
<svg xmlns="http://www.w3.org/2000/svg" version="1.1" xmlns:xlink="http://www.w3.org/1999/xlink" preserveAspectRatio="none" x="0px" y="0px" width="1200px" height="490px" viewBox="0 0 1200 490">
<defs>
<g id="Layer0_0_FILL">
<path fill="#EEF7FD" stroke="none" d="
M 744 35.55
L 744 19.55
Q 744 4.55 729 4.55
L 471 4.55
Q 456 4.55 456 19.55
L 456 35.55
Q 456 50.55 471 50.55
L 729 50.55
Q 744 50.55 744 35.55
M 508.7 23.1
Q 508.45 23.2 508.1 23.2
L 505.8 23.2 505.8 27.35
Q 505.8 27.75 505.65 28.05 505.5 28.3 505.3 28.4 504.75 28.75 504.15 28.75 503.95 28.75 503.7 28.65 503.5 28.6 503.3 28.45 503.05 28.3 502.9 28.1 502.8 27.85 502.8 27.55
L 502.8 16.7
Q 502.8 16.05 503.35 15.8 503.55 15.7 503.8 15.65 504.05 15.55 504.35 15.55 504.95 15.55 505.4 15.8 505.55 15.95 505.65 16.15 505.75 16.4 505.8 16.7
L 505.8 20.6 508.1 20.6
Q 508.45 20.6 508.7 20.7 508.9 20.8 509.05 20.95 509.1 21.15 509.15 21.4 509.2 21.6 509.2 21.9 509.2 22.15 509.15 22.4 509.1 22.6 509.05 22.8 508.9 23 508.7 23.1
M 493.7 15.4
Q 493.95 15.35 494.3 15.35 494.55 15.35 494.75 15.45 494.95 15.5 495.15 15.6 495.35 15.7 495.45 15.95 495.6 16.15 495.6 16.45
L 495.6 17.7 499.8 17.7
Q 500.15 17.7 500.4 17.75 500.6 17.85 500.7 17.95 500.8 18.1 500.8 18.35 500.85 18.55 500.85 18.85 500.85 19.1 500.8 19.3 500.8 19.45 500.7 19.6 500.5 19.9 499.8 19.9
L 499.75 19.9
Q 498.3 19.9 496.9 19.9 495.5 19.9 494.15 19.9 491.4 19.9 488.6 19.9 488.35 19.9 488.15 19.8 487.95 19.7 487.8 19.55 487.7 19.45 487.65 19.25 487.6 19.05 487.6 18.8 487.6 18.15 487.85 17.9 488 17.8 488.25 17.75 488.45 17.65 488.75 17.65 489.85 17.65 490.85 17.65 491.3 17.7 491.8 17.7 492.35 17.7 492.85 17.7
L 492.85 16.45
Q 492.85 16.15 492.95 15.9 493.05 15.7 493.25 15.55 493.45 15.5 493.7 15.4
M 489.55 22.45
Q 489.85 22.1 490.3 21.85 490.65 21.6 491.1 21.4 491.5 21.15 492 21.05 493 20.7 494.2 20.7 495.4 20.7 496.45 21.05 496.95 21.2 497.4 21.4 497.8 21.6 498.2 21.85 498.5 22.15 498.8 22.5 499.1 22.8 499.3 23.15 499.55 23.55 499.65 23.9 499.75 24.3 499.75 24.7 499.75 25.1 499.65 25.5 499.55 25.85 499.3 26.25 499.1 26.6 498.8 26.9 498.5 27.25 498.2 27.45 497.8 27.75 497.4 27.95 496.95 28.2 496.45 28.35 495.9 28.5 495.35 28.55 494.8 28.65 494.2 28.65 493.6 28.65 493.05 28.55 492.55 28.5 492.05 28.35 491.5 28.2 491.1 28 490.65 27.8 490.3 27.55 489.85 27.3 489.55 26.95 489.25 26.65 489 26.3 488.8 25.9 488.7 25.5 488.6 25.15 488.6 24.7 488.6 24.25 488.7 23.85 488.8 23.5 489 23.1 489.25 22.75 489.55 22.45
M 503.75 29.85
Q 504.2 29.85 504.55 30 504.9 30.15 505.2 30.45 505.7 31.15 505.7 32.05
L 505.7 38.25
Q 505.7 38.5 505.6 38.7 505.5 38.85 505.3 39 505.05 39.15 504.8 39.2 504.55 39.3 504.3 39.3 504.05 39.3 503.85 39.2 503.6 39.15 503.4 39 503.15 38.85 503.05 38.7 502.9 38.5 502.9 38.25
L 502.9 32.55
Q 502.8 32.55 502.65 32.5 502.45 32.5 502.3 32.5 502.05 32.5 501.9 32.45 501.75 32.45 501.6 32.45
L 493.45 32.45
Q 493.1 32.45 492.9 32.35 492.7 32.25 492.6 32.05 492.4 31.65 492.4 31.15 492.4 30.85 492.45 30.65 492.5 30.4 492.6 30.2 492.7 30 492.9 29.9 493.1 29.85 493.45 29.85
L 503.75 29.85
M 528.4 15.8
Q 528.7 15.8 528.9 15.85 529.15 15.95 529.4 16.1 529.6 16.3 529.7 16.55 529.8 16.8 529.8 17.05
L 529.8 30.6
Q 529.8 30.95 529.7 31.15 529.6 31.4 529.4 31.5 529.15 31.6 528.9 31.65 528.7 31.7 528.4 31.7 528.1 31.7 527.9 31.65 527.65 31.6 527.4 31.5 527.2 31.4 527.1 31.15 527 30.95 527 30.6
L 527 23.35 522.7 23.35
Q 522.35 23.35 522.15 23.25 521.95 23.2 521.85 23.05 521.75 22.9 521.7 22.7 521.65 22.5 521.65 22.2 521.65 21.95 521.7 21.75 521.75 21.5 521.85 21.3 521.95 21.15 522.15 21.05 522.35 21 522.7 21
L 527 21 527 19.75 522.65 19.75
Q 522.25 19.75 522.05 19.65 521.8 19.6 521.75 19.45 521.65 19.3 521.6 19.1 521.6 18.9 521.6 18.65 521.6 18.35 521.6 18.15 521.65 17.95 521.75 17.8 521.8 17.65 522.05 17.6 522.25 17.5 522.65 17.5
L 527 17.5 527 17.05
Q 527 16.8 527.1 16.55 527.2 16.3 527.4 16.1 527.65 15.95 527.9 15.85 528.1 15.8 528.4 15.8
M 528.6 35.85
Q 528.85 35.9 529 36 529.25 36.1 529.4 36.25 529.55 36.45 529.6 36.7 529.7 36.9 529.7 37.15 529.7 37.4 529.6 37.65 529.55 37.9 529.4 38.1 529.25 38.3 529 38.4 528.85 38.45 528.6 38.45
L 518.2 38.45
Q 517.75 38.45 517.3 38.35 516.9 38.2 516.5 37.9 516.15 37.65 515.95 37.25 515.8 36.8 515.8 36.3
L 515.8 31.1
Q 515.8 30.85 515.9 30.65 516 30.45 516.3 30.3 516.5 30.15 516.75 30.1 517 30 517.35 30 517.4 30 517.5 30.05 517.65 30.05 517.8 30.05 517.95 30.1 518.1 30.15 518.2 30.2 518.35 30.25 518.4 30.35 518.5 30.4 518.55 30.5 518.65 30.6 518.7 30.7 518.75 30.85 518.75 30.95 518.75 31.1
L 518.75 35.75
Q 519.15 35.8 519.55 35.85 519.9 35.9 520.25 35.85
L 528.6 35.85
M 512.3 17.8
Q 512.3 17.45 512.45 17.25 512.55 17 512.8 16.85 513.05 16.7 513.3 16.65 513.5 16.55 513.75 16.55 513.9 16.55 514.05 16.6 514.15 16.6 514.3 16.6 514.35 16.65 514.45 16.7 514.6 16.75 514.7 16.85 514.85 16.9 514.95 16.95 515.1 17.05 515.2 17.15 515.25 17.25 515.3 17.4 515.35 17.5 515.35 17.65
L 515.35 23.85
Q 515.35 24.2 515.4 24.5 515.4 24.8 515.45 25.15 516.5 25.15 517.45 25.1 518.45 25.05 519.4 24.9 520.3 24.85 521.2 24.75 522.1 24.6 522.95 24.45 522.95 24.5 523 24.5
L 523.05 24.5
Q 523.15 24.5 523.2 24.45 523.25 24.45 523.3 24.45 523.35 24.45 523.4 24.45 523.65 24.45 523.85 24.55 524.05 24.65 524.2 24.85 524.35 25.05 524.4 25.3 524.45 25.55 524.45 25.85 524.45 26.05 524.4 26.25 524.3 26.45 524.2 26.65 524 26.85 523.8 26.9 523.6 27 523.3 27 521.55 27.35 519.55 27.45 518.55 27.55 517.5 27.65 516.45 27.7 515.4 27.75 515.35 27.75 515.3 27.75
L 515.25 27.75
Q 515 27.75 514.75 27.75 514.5 27.7 514.25 27.65 514 27.6 513.75 27.5 513.55 27.4 513.3 27.3 513.15 27.15 512.95 26.95 512.8 26.75 512.65 26.45 512.5 26.2 512.4 25.85 512.3 25.5 512.3 25.1
L 512.3 17.8
M 552.8 16.35
Q 552.95 16.55 552.95 16.9
L 552.95 26.1
Q 552.95 26.45 552.8 26.65 552.7 26.85 552.5 26.95 552.3 27.05 552.05 27.1 551.85 27.15 551.6 27.15 551.25 27.15 551 27.1 550.75 27.05 550.55 26.95 550.35 26.85 550.3 26.65 550.2 26.45 550.2 26.1
L 550.2 24.1 547.75 24.1
Q 547.4 24.1 547.2 24 547 23.9 546.9 23.7 546.7 23.4 546.7 22.9 546.7 22.6 546.75 22.4 546.8 22.15 546.9 22.05 547 21.85 547.2 21.8 547.4 21.7 547.75 21.7
L 550.2 21.7 550.2 20.4 547.75 20.4
Q 547.4 20.4 547.2 20.3 547 20.2 546.9 20.05 546.8 19.9 546.75 19.65 546.7 19.45 546.7 19.15 546.7 18.65 546.9 18.3 547 18.1 547.2 18 547.4 17.95 547.75 17.95
L 550.2 17.95 550.2 16.9
Q 550.2 16.55 550.3 16.35 550.35 16.1 550.55 16 550.75 15.9 551 15.85 551.25 15.8 551.6 15.8 551.85 15.8 552.05 15.85 552.3 15.9 552.5 16 552.7 16.1 552.8 16.35
M 535.7 16.55
Q 536.15 16.3 536.6 16.3 536.75 16.3 536.9 16.3 537 16.35 537.15 16.4 537.2 16.45 537.3 16.5 537.45 16.55 537.55 16.6 537.85 16.75 538 16.95 538.05 17.1 538.1 17.25 538.15 17.4 538.15 17.5
L 538.15 19.15 543.1 19.15 543.1 17.5
Q 543.1 17.25 543.2 17 543.35 16.75 543.55 16.55 543.75 16.4 544.05 16.35 544.3 16.3 544.6 16.3 544.75 16.3 545 16.35 545.2 16.45 545.5 16.6 545.7 16.75 545.85 17.05 546 17.3 546 17.65
L 546 23.8
Q 546 24.55 545.8 25.05 545.65 25.55 545.3 25.8 544.95 26.15 544.4 26.3 543.9 26.4 543.2 26.4
L 538.3 26.4
Q 537.55 26.4 537 26.3 536.45 26.15 536.05 25.8 535.65 25.55 535.45 25.05 535.25 24.55 535.25 23.8
L 535.25 17.5
Q 535.25 17.25 535.35 17 535.45 16.75 535.7 16.55
M 540.15 30.45
Q 539.55 30.45 539.35 30.15 539.2 30 539.15 29.85 539.05 29.65 539.05 29.4 539.05 29.1 539.15 28.85 539.2 28.6 539.35 28.4 539.55 28 540.15 28
L 550.4 28
Q 551.2 28 551.9 28.45 552.25 28.7 552.45 29.05 552.6 29.4 552.6 29.85
L 552.6 32.7
Q 552.6 32.95 552.55 33.2 552.5 33.4 552.4 33.55 552.25 33.7 552.15 33.85 552 34 551.9 34.1 551.7 34.2 551.5 34.25 551.35 34.35 551.1 34.4 550.85 34.45 550.6 34.5 550.35 34.5 550.1 34.5
L 542.2 34.5
Q 542.1 34.65 542.1 34.8 542.05 35 542.05 35.15
L 542.05 35.55
Q 542.05 35.7 542.1 35.9 542.1 36.1 542.2 36.2
L 551.85 36.2
Q 552.4 36.2 552.65 36.5 552.95 36.8 552.95 37.35 552.95 37.6 552.85 37.85 552.8 38.05 552.7 38.25 552.4 38.65 551.85 38.65
L 541.35 38.65
Q 540.9 38.65 540.5 38.5 540.1 38.4 539.8 38.2 539.45 37.95 539.3 37.65 539.15 37.3 539.15 36.85
L 539.15 33.75
Q 539.15 33.3 539.3 32.95 539.45 32.65 539.8 32.45 540.1 32.3 540.5 32.2 540.9 32.1 541.35 32.1
L 549.6 32.1
Q 549.6 32.05 549.6 31.95 549.65 31.85 549.65 31.75 549.65 31.65 549.65 31.6 549.7 31.5 549.7 31.45
L 549.7 31.1
Q 549.7 31.05 549.65 30.95 549.65 30.85 549.65 30.75 549.65 30.7 549.6 30.6 549.6 30.55 549.6 30.45
L 540.15 30.45
M 567.15 16.8
Q 567.3 16.7 567.5 16.65
L 578.95 16.65
Q 579.45 16.65 579.85 16.8 580.2 16.9 580.4 17.15 580.6 17.4 580.7 17.8 580.8 18.15 580.8 18.65 580.8 19.2 580.8 19.6 580.8 19.85 580.8 20.1 580.8 20.3 580.8 20.55 580.75 20.8 580.75 21.1 580.7 21.35 580.7 21.65 580.65 21.95 580.6 22.3 580.5 22.7 580.45 23.1 580.4 23.35 580.3 23.5 580.2 23.7 580.05 23.75 579.85 23.85 579.65 23.9 579.4 23.95 579.15 23.95 578.4 23.95 578.05 23.7 577.7 23.4 577.7 22.85
L 577.7 22.7
Q 577.7 22.25 577.75 21.9 577.8 21.5 577.85 21.1 577.9 20.8 577.95 20.45 577.95 20.1 577.95 19.75 577.95 19.6 577.95 19.45 577.9 19.35 577.85 19.25
L 567.5 19.25
Q 567.3 19.25 567.15 19.15 566.95 19.05 566.85 18.9 566.7 18.7 566.65 18.5 566.6 18.25 566.6 17.95 566.6 17.7 566.65 17.45 566.7 17.25 566.85 17.05 566.95 16.9 567.15 16.8
M 584.4 27.4
Q 584.2 27.5 583.95 27.5
L 563.9 27.5
Q 563.6 27.5 563.4 27.4 563.2 27.3 563.1 27.05 562.95 26.9 562.9 26.65 562.8 26.4 562.8 26.15 562.8 25.9 562.9 25.65 562.95 25.4 563.1 25.25 563.2 25.05 563.4 24.95 563.6 24.85 563.9 24.85
L 583.95 24.85
Q 584.2 24.85 584.4 24.95 584.6 25.05 584.75 25.25 584.85 25.4 584.9 25.65 584.95 25.9 584.95 26.15 584.95 26.4 584.9 26.65 584.85 26.9 584.75 27.05 584.6 27.3 584.4 27.4
M 578.6 29.85
Q 578.8 29.8 579.05 29.8 579.2 29.8 579.3 29.8 579.45 29.8 579.6 29.85 579.7 29.9 579.8 29.95 579.9 30 580.05 30.05 580.2 30.15 580.3 30.25 580.45 30.3 580.5 30.4 580.7 30.6 580.7 30.85
L 580.7 36.25
Q 580.7 36.45 580.65 36.7 580.6 36.9 580.5 37.15 580.45 37.35 580.3 37.5 580.2 37.7 580.05 37.9 579.85 38.05 579.7 38.2 579.55 38.3 579.35 38.4 579.2 38.5 579 38.55 578.8 38.65 578.6 38.65
L 578.6 38.6
Q 577.4 38.6 576.2 38.6 575 38.6 573.8 38.65 571.4 38.65 569 38.65 568.5 38.65 568.15 38.45 567.8 38.3 567.55 37.95 567.3 37.65 567.2 37.2 567.1 36.8 567.1 36.25
L 567.1 30.85
Q 567.1 30.6 567.2 30.4 567.3 30.2 567.6 30.05 567.8 29.9 568.05 29.85 568.3 29.8 568.5 29.8 568.75 29.8 569 29.85 569.35 29.95 569.45 30.05 569.6 30.15 569.7 30.25 569.8 30.3 569.9 30.4 569.95 30.5 570 30.6 570.05 30.75 570.05 30.85
L 570.05 32 577.65 32 577.65 30.85
Q 577.65 30.6 577.75 30.4 577.9 30.2 578.15 30.05 578.35 29.9 578.6 29.85
M 594.3 17.5
Q 594.3 17.7 594.3 18 594.35 18.25 594.35 18.6 594.35 19.05 594.45 19.5 594.55 19.95 594.8 20.4 595.15 21.25 595.65 22.05 596 22.4 596.35 22.75 596.65 23.15 597 23.4 597.35 23.75 597.7 24.05 598.05 24.3 598.5 24.55 598.55 24.7 598.65 24.8 598.75 24.9 598.85 24.9 598.9 24.95 598.9 25.05 598.95 25.15 598.95 25.25 598.95 25.4 598.9 25.6 598.9 25.75 598.8 25.9 598.7 26.1 598.65 26.25 598.55 26.4 598.5 26.55 598.35 26.7 598.2 26.8 598.05 26.9 597.9 26.95 597.7 27.05 597.5 27.05 597.35 27.05 597.2 26.95 596.45 26.6 595.8 26.15 595.15 25.7 594.65 25.15 594.1 24.6 593.7 24.05 593.25 23.45 592.85 22.85 592.5 23.45 592.05 24.05 591.6 24.65 591.15 25.25 590.6 25.8 590.05 26.3 589.55 26.75 588.95 27.1
L 588.9 27.1
Q 588.85 27.15 588.75 27.2 588.7 27.25 588.6 27.25 588.45 27.25 588.35 27.25 588.25 27.3 588.2 27.3 588.05 27.3 587.75 27.15 587.6 27.05 587.45 27 587.3 26.9 587.2 26.8 587.05 26.55 586.9 26.25 586.85 26.1 586.8 25.95 586.75 25.8 586.75 25.65 586.75 25.55 586.75 25.45 586.8 25.35 586.9 25.25 587 25.1 587.3 24.85 587.75 24.6 588.15 24.3 588.6 24 588.95 23.65 589.3 23.25 589.65 22.85 589.95 22.5 590.2 22.05 590.4 21.65 590.6 21.2 590.8 20.75 590.95 20.3 591.25 19.4 591.25 18.55
L 591.25 17.4
Q 591.25 17.25 591.3 17.15 591.3 17 591.4 16.9 591.45 16.8 591.6 16.75 591.7 16.65 591.85 16.55 592.1 16.5 592.3 16.4 592.4 16.4 592.55 16.4 592.7 16.4 592.8 16.4 593.05 16.4 593.3 16.4 593.45 16.45 593.65 16.45 593.8 16.55 593.9 16.6 594 16.7 594.05 16.85 594.15 16.95 594.2 17.1 594.25 17.3 594.3 17.5
M 602.6 16.85
Q 602.6 16.5 602.7 16.25 602.8 16.05 603.05 15.95 603.25 15.9 603.45 15.85 603.7 15.8 603.95 15.8 604.1 15.8 604.25 15.8 604.4 15.8 604.55 15.8 604.8 15.9 605 15.95 605.1 16 605.2 16.1 605.3 16.2 605.4 16.3 605.45 16.4 605.5 16.55 605.55 16.65 605.6 16.85
L 605.6 26.95
Q 605.55 27.1 605.5 27.25 605.45 27.35 605.4 27.45 605.3 27.55 605.2 27.65 605.1 27.7 605 27.75 604.9 27.85 604.8 27.9 604.65 27.95 604.55 27.95 604.4 28 604.25 28 604.1 28 603.95 28 603.7 28 603.45 27.95 603.25 27.9 603.05 27.8 602.6 27.6 602.6 26.95
L 602.6 16.85
M 603.55 29.5
Q 603.95 29.5 604.35 29.65 604.7 29.85 605 30.1 605.5 30.8 605.5 31.7
L 605.5 38.2
Q 605.5 38.3 605.45 38.4 605.4 38.55 605.35 38.65 605.25 38.75 605.15 38.85 605.05 38.9 604.9 39 604.85 39.05 604.7 39.1 604.6 39.15 604.4 39.2 604.25 39.25 604.1 39.25 603.95 39.3 603.85 39.3 603.65 39.3 603.45 39.2 603.25 39.15 603.05 39 602.8 38.85 602.7 38.65 602.6 38.45 602.6 38.2
L 602.6 32.1 593.3 32.1
Q 592.95 32.1 592.75 32.05 592.55 31.95 592.4 31.7 592.3 31.55 592.25 31.3 592.2 31.05 592.2 30.8 592.2 30.55 592.25 30.3 592.3 30.05 592.4 29.9 592.55 29.7 592.75 29.6 592.95 29.5 593.3 29.5
L 603.55 29.5
M 634.4 16.35
Q 634.55 16.55 634.55 16.9
L 634.55 21.75 636.95 21.75
Q 637.3 21.75 637.5 21.85 637.75 21.95 637.85 22.15 637.9 22.35 637.95 22.6 637.95 22.85 637.95 23.1 637.95 23.65 637.85 24 637.75 24.2 637.5 24.3 637.3 24.4 636.95 24.4
L 634.55 24.4 634.55 30.1
Q 634.55 30.45 634.4 30.65 634.3 30.85 634.1 31 633.65 31.2 633.05 31.2 632.8 31.2 632.55 31.15 632.3 31.1 632.05 31 631.8 30.85 631.65 30.65 631.55 30.45 631.55 30.1
L 631.55 16.9
Q 631.55 16.55 631.65 16.35 631.8 16.1 632.05 16 632.3 15.9 632.55 15.85 632.8 15.8 633.05 15.8 633.65 15.8 634.1 16 634.3 16.1 634.4 16.35
M 628.1 17.4
Q 628.15 17.6 628.15 17.9 628.15 18.45 627.95 18.8 627.8 19 627.6 19.1 627.4 19.25 627.1 19.2
L 624.35 19.2 624.35 19.7
Q 624.35 20.4 624.8 21.1 625 21.5 625.2 21.85 625.45 22.25 625.7 22.6 626.3 23.3 626.95 23.85 627.25 24.15 627.6 24.4 627.95 24.65 628.35 24.85 628.45 25 628.55 25.1 628.6 25.2 628.7 25.25 628.75 25.3 628.8 25.45 628.85 25.55 628.85 25.75 628.85 26.05 628.75 26.3 628.65 26.55 628.5 26.8 628.15 27.35 627.6 27.35 627.45 27.35 627.3 27.3 627.1 27.25 626.85 27.15 625.4 26.45 624.5 25.5 624.05 25.05 623.65 24.55 623.25 24.05 622.85 23.45 622.5 24.05 622.05 24.6 621.65 25.15 621.2 25.7 620.2 26.75 619.1 27.4 618.9 27.45 618.6 27.45 618.5 27.5 618.4 27.5 618.3 27.55 618.25 27.55 618.15 27.6 618.05 27.55 617.95 27.55 617.85 27.45 617.7 27.45 617.6 27.35 617.45 27.3 617.35 27.25 617.2 27.15 617.1 27 617.05 26.9 617 26.75 616.95 26.6 616.95 26.45 616.9 26.3 616.9 26.05 616.9 25.95 616.95 25.85 616.95 25.75 617 25.6 617.05 25.5 617.1 25.4 617.2 25.3 617.35 25.25 617.75 25 618.15 24.7 618.55 24.4 618.95 24.1 619.3 23.75 619.6 23.4 619.9 23.1 620.15 22.7 620.4 22.35 620.6 21.95 620.8 21.55 621 21.1 621.1 20.75 621.15 20.35 621.2 19.95 621.2 19.55
L 621.2 19.2 618.15 19.2
Q 617.9 19.25 617.7 19.1 617.5 19 617.4 18.8 617.2 18.6 617.15 18.4 617.1 18.15 617.1 17.9 617.1 17.65 617.15 17.4 617.2 17.15 617.35 16.95 617.55 16.55 618.15 16.55
L 627.1 16.55
Q 627.7 16.55 627.95 16.95 628.05 17.15 628.1 17.4
M 623.65 30.5
Q 623.75 30.65 623.8 30.75 623.85 30.85 623.85 31
L 623.85 35.7
Q 624.15 35.75 624.5 35.75 624.85 35.8 625.25 35.8
L 633.6 35.8
Q 633.8 35.8 634.05 35.9 634.2 36 634.4 36.2 634.7 36.55 634.7 37.1 634.7 37.35 634.65 37.6 634.55 37.8 634.4 38.05 634.2 38.2 634.05 38.3 633.8 38.4 633.6 38.4
L 623.25 38.4
Q 622.7 38.4 622.3 38.3 621.9 38.2 621.55 37.95 621.2 37.7 621 37.3 620.85 36.9 620.85 36.35
L 620.85 31
Q 620.85 30.45 621.3 30.15 621.5 30.05 621.75 29.95 622 29.9 622.25 29.9 622.3 29.9 622.45 29.9 622.6 29.95 622.75 29.95 622.9 30.05 623.05 30.1 623.15 30.15 623.3 30.15 623.35 30.25 623.45 30.35 623.55 30.45 623.65 30.5
M 657.35 16.3
Q 657.45 16.55 657.5 16.85
L 657.5 21.75 659.8 21.75
Q 660.15 21.75 660.4 21.85 660.65 21.95 660.75 22.15 660.85 22.35 660.9 22.6 660.95 22.8 660.95 23.1 660.95 23.35 660.9 23.6 660.85 23.8 660.75 24 660.65 24.2 660.4 24.3 660.15 24.4 659.8 24.4
L 657.5 24.4 657.5 30.1
Q 657.45 30.4 657.35 30.65 657.25 30.85 657.1 30.95 656.85 31.05 656.6 31.1 656.3 31.15 656 31.15 655.75 31.15 655.5 31.1 655.25 31.05 655 30.95 654.75 30.85 654.6 30.65 654.5 30.4 654.5 30.1
L 654.5 16.85
Q 654.5 16.55 654.6 16.35 654.75 16.1 655 16 655.25 15.9 655.5 15.85 655.75 15.8 656 15.8 656.3 15.8 656.6 15.85 656.85 15.9 657.1 15.95 657.25 16.1 657.35 16.3
M 649.65 16.3
Q 649.95 16.3 650.2 16.35 650.3 16.4 650.4 16.45 650.5 16.5 650.6 16.55 650.9 16.65 651.05 16.85 651.25 17.05 651.25 17.4
L 651.25 24.3
Q 651.25 25.65 650.55 26.3 649.85 27 648.45 27
L 643.4 27
Q 642.65 27 642.1 26.85 641.55 26.65 641.15 26.3 640.35 25.65 640.35 24.15
L 640.35 17.4
Q 640.35 17.05 640.45 16.85 640.55 16.65 640.8 16.5 641.05 16.4 641.25 16.35 641.55 16.3 641.85 16.3 642.05 16.3 642.25 16.35 642.4 16.4 642.5 16.45 642.65 16.5 642.8 16.55 642.9 16.6 643 16.7 643.1 16.75 643.15 16.85 643.2 16.95 643.2 17.1 643.25 17.25 643.25 17.4
L 643.25 19.5 648.3 19.5 648.3 17.4
Q 648.3 17.05 648.4 16.85 648.5 16.65 648.75 16.5 648.95 16.4 649.2 16.35 649.4 16.3 649.65 16.3
M 657.35 36.25
Q 657.5 36.45 657.6 36.7 657.65 36.9 657.65 37.15 657.65 37.4 657.6 37.65 657.5 37.9 657.35 38.1 657.15 38.3 657 38.4 656.75 38.45 656.55 38.45
L 646.2 38.45
Q 645.7 38.45 645.25 38.35 644.85 38.2 644.5 37.9 644.15 37.65 643.95 37.25 643.8 36.8 643.8 36.3
L 643.8 31.1
Q 643.8 30.85 643.9 30.65 644.05 30.45 644.3 30.3 644.55 30.15 644.75 30.1 645 30 645.2 30 645.3 30 645.45 30.05 645.6 30.05 645.75 30.05 645.9 30.1 646 30.15 646.15 30.2 646.25 30.25 646.3 30.35 646.4 30.4 646.5 30.5 646.65 30.6 646.7 30.7 646.75 30.85 646.8 30.95 646.8 31.1
L 646.8 35.75
Q 647.1 35.8 647.45 35.85 647.8 35.9 648.2 35.85
L 656.55 35.85
Q 656.75 35.9 657 36 657.15 36.1 657.35 36.25
M 671.85 17.8
Q 672.35 17.95 672.8 18.2 673.2 18.5 673.55 18.85 673.95 19.2 674.25 19.6 674.55 20.05 674.75 20.55 674.95 21.05 675.05 21.6 675.1 22.15 675.1 22.8 675.1 23.45 675.05 24 674.95 24.55 674.75 25.05 674.55 25.5 674.25 25.95 673.95 26.35 673.55 26.7 673.2 27.05 672.8 27.3 672.35 27.6 671.85 27.75 670.8 28.1 669.45 28.1 668.15 28.1 667.15 27.75 666.15 27.4 665.45 26.7 664.65 26 664.3 25.05 663.9 24.05 663.9 22.8 663.9 21.55 664.3 20.55 664.65 19.55 665.45 18.85 666.15 18.1 667.15 17.75 668.15 17.4 669.45 17.4 670.8 17.4 671.85 17.8
M 680.65 15.75
Q 680.75 15.8 680.85 15.85 680.95 15.9 681.05 15.95 681.15 16.05 681.2 16.15 681.3 16.25 681.35 16.4 681.35 16.55 681.35 16.7
L 681.35 37.9
Q 681.35 38.25 681.25 38.5 681.15 38.75 680.95 38.85 680.7 39 680.45 39.05 680.2 39.1 679.9 39.15 679.6 39.1 679.4 39.05 679.15 39 679 38.85 678.75 38.75 678.65 38.5 678.55 38.25 678.55 37.9
L 678.55 16.7
Q 678.55 16.35 678.65 16.15 678.75 15.9 678.95 15.85 679.15 15.75 679.35 15.7 679.6 15.65 679.85 15.65 680 15.65 680.15 15.65 680.3 15.65 680.45 15.7 680.55 15.7 680.65 15.75
M 665.65 30.7
Q 666.35 30.7 667 30.7 667.65 30.7 668.3 30.65 668.9 30.65 669.55 30.6 670.2 30.6 670.85 30.5 671.45 30.5 672.05 30.45 672.7 30.4 673.3 30.35 673.85 30.25 674.5 30.2 675.15 30.1 675.8 30.05 676.1 29.95 676.4 30 676.65 30.05 676.85 30.25 677.05 30.45 677.15 30.7 677.25 30.9 677.3 31.15 677.25 31.4 677.2 31.65 677.1 31.9 676.95 32.1 676.75 32.35 676.5 32.5 676.25 32.65 675.9 32.65 675.2 32.8 674.6 32.85 673.95 32.95 673.35 33 672.15 33.15 670.9 33.2 670.25 33.25 669.55 33.3 668.9 33.3 668.25 33.3 667.6 33.35 666.9 33.35 666.15 33.4 665.4 33.4
L 663.05 33.4
Q 662.8 33.35 662.6 33.25 662.45 33.15 662.35 32.95 662.1 32.55 662.1 32.1 662.1 31.5 662.35 31.1 662.45 30.95 662.6 30.85 662.8 30.75 663.05 30.7
L 665.65 30.7
M 710.35 16.35
Q 710.4 16.5 710.4 16.7
L 710.4 17.95 712.75 17.95
Q 713.45 17.95 713.65 18.35 713.7 18.55 713.75 18.75 713.8 19 713.8 19.3 713.8 19.55 713.75 19.75 713.7 19.95 713.65 20.1 713.55 20.3 713.35 20.4 713.1 20.5 712.75 20.5
L 710.4 20.5 710.4 22.7 712.75 22.7
Q 713.1 22.7 713.35 22.8 713.55 22.9 713.65 23.1 713.7 23.25 713.75 23.5 713.8 23.7 713.8 24 713.8 24.25 713.75 24.45 713.7 24.7 713.65 24.85 713.55 25.05 713.35 25.1 713.1 25.2 712.75 25.2
L 710.4 25.2 710.4 27.35
Q 710.4 27.5 710.35 27.65 710.3 27.8 710.25 27.85 710.15 28 710.05 28.05 709.95 28.15 709.85 28.2 709.7 28.25 709.6 28.3 709.5 28.35 709.4 28.35 709.25 28.4 709.1 28.4 708.95 28.4 708.8 28.4 708.55 28.4 708.3 28.35 708.05 28.3 707.85 28.2 707.6 28.1 707.5 27.9 707.4 27.7 707.4 27.35
L 707.4 16.7
Q 707.4 16.5 707.4 16.35 707.4 16.2 707.45 16.1 707.55 15.9 707.8 15.8 707.9 15.75 708.05 15.75 708.15 15.7 708.3 15.7 708.4 15.65 708.5 15.65 708.65 15.65 708.8 15.65 708.95 15.65 709.1 15.65 709.25 15.65 709.4 15.7 709.5 15.7 709.6 15.75 709.7 15.75 709.85 15.8 709.95 15.85 710.05 15.95 710.15 16 710.25 16.1 710.3 16.2 710.35 16.35
M 693.95 18.05
Q 694.35 17.75 694.8 17.45 695.3 17.2 695.85 17 696.4 16.8 696.95 16.7 697.55 16.6 698.2 16.6 699.55 16.6 700.7 17 701.2 17.2 701.65 17.45 702.1 17.75 702.45 18.05 702.9 18.45 703.2 18.9 703.5 19.3 703.75 19.85 703.9 20.35 704 20.95 704.1 21.5 704.15 22.15 704.1 22.8 704 23.35 703.9 23.95 703.75 24.45 703.5 24.95 703.2 25.4 702.9 25.85 702.45 26.2 702.1 26.55 701.65 26.85 701.2 27.1 700.7 27.3 699.55 27.65 698.2 27.65 697.55 27.65 696.95 27.55 696.4 27.45 695.85 27.3 695.3 27.1 694.8 26.85 694.35 26.55 693.95 26.2 693.55 25.85 693.25 25.4 692.95 24.95 692.8 24.45 692.6 23.95 692.5 23.35 692.4 22.8 692.4 22.15 692.4 20.9 692.8 19.85 692.95 19.3 693.25 18.9 693.55 18.45 693.95 18.05
M 707.4 29.4
Q 707.95 29.7 708.45 30 708.9 30.35 709.25 30.8 709.65 31.2 709.9 31.65 710.15 32.2 710.25 32.75 710.4 33.3 710.4 33.9 710.4 35.15 709.9 36.1 709.6 36.55 709.25 36.95 708.85 37.4 708.4 37.75 707.45 38.4 706.05 38.8 705.4 38.95 704.65 39.05 703.9 39.15 703.15 39.15 702.3 39.15 701.55 39.05 700.8 38.95 700.2 38.8 699.5 38.6 698.95 38.35 698.4 38.1 697.95 37.75 697.45 37.4 697.05 37 696.7 36.6 696.45 36.15 696.2 35.65 696.05 35.1 695.95 34.55 695.95 33.9 695.95 32.65 696.45 31.65 696.7 31.15 697.05 30.75 697.4 30.35 697.9 30 698.35 29.7 698.9 29.4 699.45 29.15 700.15 28.95 700.75 28.8 701.55 28.7 702.3 28.6 703.15 28.6 703.95 28.6 704.7 28.7 705.45 28.8 706.1 28.95 706.8 29.15 707.4 29.4
M 701.4 36.3
Q 702.2 36.45 703.2 36.45 704.1 36.45 704.85 36.3 705.65 36.1 706.25 35.75 706.8 35.45 707.1 35 707.4 34.5 707.4 33.9 707.4 32.6 706.3 31.95 705.7 31.6 704.9 31.45 704.15 31.3 703.2 31.3 702.2 31.3 701.4 31.45 700.65 31.6 700.1 31.95 699.5 32.3 699.2 32.75 698.95 33.25 698.95 33.9 698.95 34.5 699.2 34.95 699.5 35.45 700.1 35.75 700.65 36.1 701.4 36.3
M 695.3 23.35
Q 695.5 23.85 695.95 24.25 696.4 24.65 696.95 24.85 697.5 25.05 698.2 25.05 699 25.05 699.55 24.85 700.1 24.65 700.55 24.25 700.9 23.85 701.15 23.35 701.3 22.8 701.3 22.15 701.3 21.45 701.15 20.9 700.9 20.4 700.55 20 700.1 19.6 699.55 19.45 699 19.25 698.2 19.25 697.5 19.25 696.95 19.45 696.4 19.6 695.95 20 695.5 20.4 695.3 20.9 695.05 21.45 695.05 22.15 695.05 22.8 695.3 23.35
M 672.3 22.8
Q 672.3 22.1 672.1 21.55 671.95 21 671.6 20.6 671.2 20.25 670.7 20.05 670.15 19.85 669.5 19.85 668.8 19.85 668.3 20.05 667.8 20.25 667.45 20.6 667.05 21 666.9 21.55 666.7 22.1 666.7 22.8 666.7 23.5 666.9 24 667.05 24.55 667.45 24.9 667.8 25.3 668.3 25.5 668.8 25.7 669.5 25.7 670.15 25.7 670.7 25.5 671.2 25.3 671.6 24.9 671.95 24.55 672.1 24 672.3 23.5 672.3 22.8
M 648.25 23.3
L 648.25 22 643.3 22 643.3 23.3
Q 643.3 23.65 643.35 23.9 643.4 24.15 643.5 24.35
L 646.9 24.35
Q 647.05 24.35 647.25 24.35 647.4 24.35 647.6 24.3 647.75 24.3 647.9 24.3 648.05 24.3 648.2 24.3 648.2 24.2 648.2 24.05 648.25 23.95 648.25 23.8 648.25 23.6 648.25 23.3
M 577.45 34.5
Q 577.3 34.5 577.15 34.45 577 34.45 576.75 34.45
L 570.8 34.45
Q 570.6 34.45 570.45 34.45 570.35 34.5 570.25 34.5 570.15 34.55 570.1 34.65 570.05 34.8 570.05 35
L 570.05 35.7
Q 570.05 35.9 570.1 36 570.15 36.1 570.25 36.1 570.35 36.15 570.45 36.2 570.55 36.2 570.75 36.2
L 576.85 36.2
Q 577.05 36.2 577.2 36.2 577.35 36.2 577.45 36.15 577.55 36.1 577.6 36 577.65 35.9 577.65 35.7
L 577.65 35
Q 577.65 34.8 577.6 34.65 577.55 34.55 577.45 34.5
M 538.25 23.45
Q 538.3 23.7 538.35 23.85
L 542.95 23.85
Q 543 23.75 543.05 23.65 543.05 23.5 543.05 23.4 543.05 23.3 543.05 23.15 543.05 23.05 543.05 22.9
L 543.05 21.7 538.25 21.7 538.25 22.9
Q 538.25 23.2 538.25 23.45
M 491.8 24.1
Q 491.6 24.35 491.6 24.7 491.6 25 491.8 25.3 492 25.55 492.4 25.8 492.75 26 493.2 26.1 493.65 26.2 494.2 26.2 495.3 26.2 496 25.75 496.35 25.55 496.5 25.25 496.65 25 496.65 24.7 496.65 24.35 496.5 24.1 496.3 23.8 496 23.6 495.6 23.4 495.15 23.3 494.7 23.2 494.2 23.2 493.65 23.2 493.2 23.3 492.75 23.4 492.4 23.6 492 23.8 491.8 24.1 Z"/>

<path fill="#1E1E1E" stroke="none" d="
M 708.45 30
Q 707.95 29.7 707.4 29.4 706.8 29.15 706.1 28.95 705.45 28.8 704.7 28.7 703.95 28.6 703.15 28.6 702.3 28.6 701.55 28.7 700.75 28.8 700.15 28.95 699.45 29.15 698.9 29.4 698.35 29.7 697.9 30 697.4 30.35 697.05 30.75 696.7 31.15 696.45 31.65 695.95 32.65 695.95 33.9 695.95 34.55 696.05 35.1 696.2 35.65 696.45 36.15 696.7 36.6 697.05 37 697.45 37.4 697.95 37.75 698.4 38.1 698.95 38.35 699.5 38.6 700.2 38.8 700.8 38.95 701.55 39.05 702.3 39.15 703.15 39.15 703.9 39.15 704.65 39.05 705.4 38.95 706.05 38.8 707.45 38.4 708.4 37.75 708.85 37.4 709.25 36.95 709.6 36.55 709.9 36.1 710.4 35.15 710.4 33.9 710.4 33.3 710.25 32.75 710.15 32.2 709.9 31.65 709.65 31.2 709.25 30.8 708.9 30.35 708.45 30
M 703.2 36.45
Q 702.2 36.45 701.4 36.3 700.65 36.1 700.1 35.75 699.5 35.45 699.2 34.95 698.95 34.5 698.95 33.9 698.95 33.25 699.2 32.75 699.5 32.3 700.1 31.95 700.65 31.6 701.4 31.45 702.2 31.3 703.2 31.3 704.15 31.3 704.9 31.45 705.7 31.6 706.3 31.95 707.4 32.6 707.4 33.9 707.4 34.5 707.1 35 706.8 35.45 706.25 35.75 705.65 36.1 704.85 36.3 704.1 36.45 703.2 36.45
M 694.8 17.45
Q 694.35 17.75 693.95 18.05 693.55 18.45 693.25 18.9 692.95 19.3 692.8 19.85 692.4 20.9 692.4 22.15 692.4 22.8 692.5 23.35 692.6 23.95 692.8 24.45 692.95 24.95 693.25 25.4 693.55 25.85 693.95 26.2 694.35 26.55 694.8 26.85 695.3 27.1 695.85 27.3 696.4 27.45 696.95 27.55 697.55 27.65 698.2 27.65 699.55 27.65 700.7 27.3 701.2 27.1 701.65 26.85 702.1 26.55 702.45 26.2 702.9 25.85 703.2 25.4 703.5 24.95 703.75 24.45 703.9 23.95 704 23.35 704.1 22.8 704.15 22.15 704.1 21.5 704 20.95 703.9 20.35 703.75 19.85 703.5 19.3 703.2 18.9 702.9 18.45 702.45 18.05 702.1 17.75 701.65 17.45 701.2 17.2 700.7 17 699.55 16.6 698.2 16.6 697.55 16.6 696.95 16.7 696.4 16.8 695.85 17 695.3 17.2 694.8 17.45
M 695.95 24.25
Q 695.5 23.85 695.3 23.35 695.05 22.8 695.05 22.15 695.05 21.45 695.3 20.9 695.5 20.4 695.95 20 696.4 19.6 696.95 19.45 697.5 19.25 698.2 19.25 699 19.25 699.55 19.45 700.1 19.6 700.55 20 700.9 20.4 701.15 20.9 701.3 21.45 701.3 22.15 701.3 22.8 701.15 23.35 700.9 23.85 700.55 24.25 700.1 24.65 699.55 24.85 699 25.05 698.2 25.05 697.5 25.05 696.95 24.85 696.4 24.65 695.95 24.25
M 710.4 16.7
Q 710.4 16.5 710.35 16.35 710.3 16.2 710.25 16.1 710.15 16 710.05 15.95 709.95 15.85 709.85 15.8 709.7 15.75 709.6 15.75 709.5 15.7 709.4 15.7 709.25 15.65 709.1 15.65 708.95 15.65 708.8 15.65 708.65 15.65 708.5 15.65 708.4 15.65 708.3 15.7 708.15 15.7 708.05 15.75 707.9 15.75 707.8 15.8 707.55 15.9 707.45 16.1 707.4 16.2 707.4 16.35 707.4 16.5 707.4 16.7
L 707.4 27.35
Q 707.4 27.7 707.5 27.9 707.6 28.1 707.85 28.2 708.05 28.3 708.3 28.35 708.55 28.4 708.8 28.4 708.95 28.4 709.1 28.4 709.25 28.4 709.4 28.35 709.5 28.35 709.6 28.3 709.7 28.25 709.85 28.2 709.95 28.15 710.05 28.05 710.15 28 710.25 27.85 710.3 27.8 710.35 27.65 710.4 27.5 710.4 27.35
L 710.4 25.2 712.75 25.2
Q 713.1 25.2 713.35 25.1 713.55 25.05 713.65 24.85 713.7 24.7 713.75 24.45 713.8 24.25 713.8 24 713.8 23.7 713.75 23.5 713.7 23.25 713.65 23.1 713.55 22.9 713.35 22.8 713.1 22.7 712.75 22.7
L 710.4 22.7 710.4 20.5 712.75 20.5
Q 713.1 20.5 713.35 20.4 713.55 20.3 713.65 20.1 713.7 19.95 713.75 19.75 713.8 19.55 713.8 19.3 713.8 19 713.75 18.75 713.7 18.55 713.65 18.35 713.45 17.95 712.75 17.95
L 710.4 17.95 710.4 16.7
M 667 30.7
Q 666.35 30.7 665.65 30.7
L 663.05 30.7
Q 662.8 30.75 662.6 30.85 662.45 30.95 662.35 31.1 662.1 31.5 662.1 32.1 662.1 32.55 662.35 32.95 662.45 33.15 662.6 33.25 662.8 33.35 663.05 33.4
L 665.4 33.4
Q 666.15 33.4 666.9 33.35 667.6 33.35 668.25 33.3 668.9 33.3 669.55 33.3 670.25 33.25 670.9 33.2 672.15 33.15 673.35 33 673.95 32.95 674.6 32.85 675.2 32.8 675.9 32.65 676.25 32.65 676.5 32.5 676.75 32.35 676.95 32.1 677.1 31.9 677.2 31.65 677.25 31.4 677.3 31.15 677.25 30.9 677.15 30.7 677.05 30.45 676.85 30.25 676.65 30.05 676.4 30 676.1 29.95 675.8 30.05 675.15 30.1 674.5 30.2 673.85 30.25 673.3 30.35 672.7 30.4 672.05 30.45 671.45 30.5 670.85 30.5 670.2 30.6 669.55 30.6 668.9 30.65 668.3 30.65 667.65 30.7 667 30.7
M 680.85 15.85
Q 680.75 15.8 680.65 15.75 680.55 15.7 680.45 15.7 680.3 15.65 680.15 15.65 680 15.65 679.85 15.65 679.6 15.65 679.35 15.7 679.15 15.75 678.95 15.85 678.75 15.9 678.65 16.15 678.55 16.35 678.55 16.7
L 678.55 37.9
Q 678.55 38.25 678.65 38.5 678.75 38.75 679 38.85 679.15 39 679.4 39.05 679.6 39.1 679.9 39.15 680.2 39.1 680.45 39.05 680.7 39 680.95 38.85 681.15 38.75 681.25 38.5 681.35 38.25 681.35 37.9
L 681.35 16.7
Q 681.35 16.55 681.35 16.4 681.3 16.25 681.2 16.15 681.15 16.05 681.05 15.95 680.95 15.9 680.85 15.85
M 672.8 18.2
Q 672.35 17.95 671.85 17.8 670.8 17.4 669.45 17.4 668.15 17.4 667.15 17.75 666.15 18.1 665.45 18.85 664.65 19.55 664.3 20.55 663.9 21.55 663.9 22.8 663.9 24.05 664.3 25.05 664.65 26 665.45 26.7 666.15 27.4 667.15 27.75 668.15 28.1 669.45 28.1 670.8 28.1 671.85 27.75 672.35 27.6 672.8 27.3 673.2 27.05 673.55 26.7 673.95 26.35 674.25 25.95 674.55 25.5 674.75 25.05 674.95 24.55 675.05 24 675.1 23.45 675.1 22.8 675.1 22.15 675.05 21.6 674.95 21.05 674.75 20.55 674.55 20.05 674.25 19.6 673.95 19.2 673.55 18.85 673.2 18.5 672.8 18.2
M 672.1 21.55
Q 672.3 22.1 672.3 22.8 672.3 23.5 672.1 24 671.95 24.55 671.6 24.9 671.2 25.3 670.7 25.5 670.15 25.7 669.5 25.7 668.8 25.7 668.3 25.5 667.8 25.3 667.45 24.9 667.05 24.55 666.9 24 666.7 23.5 666.7 22.8 666.7 22.1 666.9 21.55 667.05 21 667.45 20.6 667.8 20.25 668.3 20.05 668.8 19.85 669.5 19.85 670.15 19.85 670.7 20.05 671.2 20.25 671.6 20.6 671.95 21 672.1 21.55
M 657.6 36.7
Q 657.5 36.45 657.35 36.25 657.15 36.1 657 36 656.75 35.9 656.55 35.85
L 648.2 35.85
Q 647.8 35.9 647.45 35.85 647.1 35.8 646.8 35.75
L 646.8 31.1
Q 646.8 30.95 646.75 30.85 646.7 30.7 646.65 30.6 646.5 30.5 646.4 30.4 646.3 30.35 646.25 30.25 646.15 30.2 646 30.15 645.9 30.1 645.75 30.05 645.6 30.05 645.45 30.05 645.3 30 645.2 30 645 30 644.75 30.1 644.55 30.15 644.3 30.3 644.05 30.45 643.9 30.65 643.8 30.85 643.8 31.1
L 643.8 36.3
Q 643.8 36.8 643.95 37.25 644.15 37.65 644.5 37.9 644.85 38.2 645.25 38.35 645.7 38.45 646.2 38.45
L 656.55 38.45
Q 656.75 38.45 657 38.4 657.15 38.3 657.35 38.1 657.5 37.9 657.6 37.65 657.65 37.4 657.65 37.15 657.65 36.9 657.6 36.7
M 650.2 16.35
Q 649.95 16.3 649.65 16.3 649.4 16.3 649.2 16.35 648.95 16.4 648.75 16.5 648.5 16.65 648.4 16.85 648.3 17.05 648.3 17.4
L 648.3 19.5 643.25 19.5 643.25 17.4
Q 643.25 17.25 643.2 17.1 643.2 16.95 643.15 16.85 643.1 16.75 643 16.7 642.9 16.6 642.8 16.55 642.65 16.5 642.5 16.45 642.4 16.4 642.25 16.35 642.05 16.3 641.85 16.3 641.55 16.3 641.25 16.35 641.05 16.4 640.8 16.5 640.55 16.65 640.45 16.85 640.35 17.05 640.35 17.4
L 640.35 24.15
Q 640.35 25.65 641.15 26.3 641.55 26.65 642.1 26.85 642.65 27 643.4 27
L 648.45 27
Q 649.85 27 650.55 26.3 651.25 25.65 651.25 24.3
L 651.25 17.4
Q 651.25 17.05 651.05 16.85 650.9 16.65 650.6 16.55 650.5 16.5 650.4 16.45 650.3 16.4 650.2 16.35
M 648.25 22
L 648.25 23.3
Q 648.25 23.6 648.25 23.8 648.25 23.95 648.2 24.05 648.2 24.2 648.2 24.3 648.05 24.3 647.9 24.3 647.75 24.3 647.6 24.3 647.4 24.35 647.25 24.35 647.05 24.35 646.9 24.35
L 643.5 24.35
Q 643.4 24.15 643.35 23.9 643.3 23.65 643.3 23.3
L 643.3 22 648.25 22
M 657.5 16.85
Q 657.45 16.55 657.35 16.3 657.25 16.1 657.1 15.95 656.85 15.9 656.6 15.85 656.3 15.8 656 15.8 655.75 15.8 655.5 15.85 655.25 15.9 655 16 654.75 16.1 654.6 16.35 654.5 16.55 654.5 16.85
L 654.5 30.1
Q 654.5 30.4 654.6 30.65 654.75 30.85 655 30.95 655.25 31.05 655.5 31.1 655.75 31.15 656 31.15 656.3 31.15 656.6 31.1 656.85 31.05 657.1 30.95 657.25 30.85 657.35 30.65 657.45 30.4 657.5 30.1
L 657.5 24.4 659.8 24.4
Q 660.15 24.4 660.4 24.3 660.65 24.2 660.75 24 660.85 23.8 660.9 23.6 660.95 23.35 660.95 23.1 660.95 22.8 660.9 22.6 660.85 22.35 660.75 22.15 660.65 21.95 660.4 21.85 660.15 21.75 659.8 21.75
L 657.5 21.75 657.5 16.85
M 623.8 30.75
Q 623.75 30.65 623.65 30.5 623.55 30.45 623.45 30.35 623.35 30.25 623.3 30.15 623.15 30.15 623.05 30.1 622.9 30.05 622.75 29.95 622.6 29.95 622.45 29.9 622.3 29.9 622.25 29.9 622 29.9 621.75 29.95 621.5 30.05 621.3 30.15 620.85 30.45 620.85 31
L 620.85 36.35
Q 620.85 36.9 621 37.3 621.2 37.7 621.55 37.95 621.9 38.2 622.3 38.3 622.7 38.4 623.25 38.4
L 633.6 38.4
Q 633.8 38.4 634.05 38.3 634.2 38.2 634.4 38.05 634.55 37.8 634.65 37.6 634.7 37.35 634.7 37.1 634.7 36.55 634.4 36.2 634.2 36 634.05 35.9 633.8 35.8 633.6 35.8
L 625.25 35.8
Q 624.85 35.8 624.5 35.75 624.15 35.75 623.85 35.7
L 623.85 31
Q 623.85 30.85 623.8 30.75
M 628.15 17.9
Q 628.15 17.6 628.1 17.4 628.05 17.15 627.95 16.95 627.7 16.55 627.1 16.55
L 618.15 16.55
Q 617.55 16.55 617.35 16.95 617.2 17.15 617.15 17.4 617.1 17.65 617.1 17.9 617.1 18.15 617.15 18.4 617.2 18.6 617.4 18.8 617.5 19 617.7 19.1 617.9 19.25 618.15 19.2
L 621.2 19.2 621.2 19.55
Q 621.2 19.95 621.15 20.35 621.1 20.75 621 21.1 620.8 21.55 620.6 21.95 620.4 22.35 620.15 22.7 619.9 23.1 619.6 23.4 619.3 23.75 618.95 24.1 618.55 24.4 618.15 24.7 617.75 25 617.35 25.25 617.2 25.3 617.1 25.4 617.05 25.5 617 25.6 616.95 25.75 616.95 25.85 616.9 25.95 616.9 26.05 616.9 26.3 616.95 26.45 616.95 26.6 617 26.75 617.05 26.9 617.1 27 617.2 27.15 617.35 27.25 617.45 27.3 617.6 27.35 617.7 27.45 617.85 27.45 617.95 27.55 618.05 27.55 618.15 27.6 618.25 27.55 618.3 27.55 618.4 27.5 618.5 27.5 618.6 27.45 618.9 27.45 619.1 27.4 620.2 26.75 621.2 25.7 621.65 25.15 622.05 24.6 622.5 24.05 622.85 23.45 623.25 24.05 623.65 24.55 624.05 25.05 624.5 25.5 625.4 26.45 626.85 27.15 627.1 27.25 627.3 27.3 627.45 27.35 627.6 27.35 628.15 27.35 628.5 26.8 628.65 26.55 628.75 26.3 628.85 26.05 628.85 25.75 628.85 25.55 628.8 25.45 628.75 25.3 628.7 25.25 628.6 25.2 628.55 25.1 628.45 25 628.35 24.85 627.95 24.65 627.6 24.4 627.25 24.15 626.95 23.85 626.3 23.3 625.7 22.6 625.45 22.25 625.2 21.85 625 21.5 624.8 21.1 624.35 20.4 624.35 19.7
L 624.35 19.2 627.1 19.2
Q 627.4 19.25 627.6 19.1 627.8 19 627.95 18.8 628.15 18.45 628.15 17.9
M 634.55 16.9
Q 634.55 16.55 634.4 16.35 634.3 16.1 634.1 16 633.65 15.8 633.05 15.8 632.8 15.8 632.55 15.85 632.3 15.9 632.05 16 631.8 16.1 631.65 16.35 631.55 16.55 631.55 16.9
L 631.55 30.1
Q 631.55 30.45 631.65 30.65 631.8 30.85 632.05 31 632.3 31.1 632.55 31.15 632.8 31.2 633.05 31.2 633.65 31.2 634.1 31 634.3 30.85 634.4 30.65 634.55 30.45 634.55 30.1
L 634.55 24.4 636.95 24.4
Q 637.3 24.4 637.5 24.3 637.75 24.2 637.85 24 637.95 23.65 637.95 23.1 637.95 22.85 637.95 22.6 637.9 22.35 637.85 22.15 637.75 21.95 637.5 21.85 637.3 21.75 636.95 21.75
L 634.55 21.75 634.55 16.9
M 604.35 29.65
Q 603.95 29.5 603.55 29.5
L 593.3 29.5
Q 592.95 29.5 592.75 29.6 592.55 29.7 592.4 29.9 592.3 30.05 592.25 30.3 592.2 30.55 592.2 30.8 592.2 31.05 592.25 31.3 592.3 31.55 592.4 31.7 592.55 31.95 592.75 32.05 592.95 32.1 593.3 32.1
L 602.6 32.1 602.6 38.2
Q 602.6 38.45 602.7 38.65 602.8 38.85 603.05 39 603.25 39.15 603.45 39.2 603.65 39.3 603.85 39.3 603.95 39.3 604.1 39.25 604.25 39.25 604.4 39.2 604.6 39.15 604.7 39.1 604.85 39.05 604.9 39 605.05 38.9 605.15 38.85 605.25 38.75 605.35 38.65 605.4 38.55 605.45 38.4 605.5 38.3 605.5 38.2
L 605.5 31.7
Q 605.5 30.8 605 30.1 604.7 29.85 604.35 29.65
M 602.7 16.25
Q 602.6 16.5 602.6 16.85
L 602.6 26.95
Q 602.6 27.6 603.05 27.8 603.25 27.9 603.45 27.95 603.7 28 603.95 28 604.1 28 604.25 28 604.4 28 604.55 27.95 604.65 27.95 604.8 27.9 604.9 27.85 605 27.75 605.1 27.7 605.2 27.65 605.3 27.55 605.4 27.45 605.45 27.35 605.5 27.25 605.55 27.1 605.6 26.95
L 605.6 16.85
Q 605.55 16.65 605.5 16.55 605.45 16.4 605.4 16.3 605.3 16.2 605.2 16.1 605.1 16 605 15.95 604.8 15.9 604.55 15.8 604.4 15.8 604.25 15.8 604.1 15.8 603.95 15.8 603.7 15.8 603.45 15.85 603.25 15.9 603.05 15.95 602.8 16.05 602.7 16.25
M 594.3 18
Q 594.3 17.7 594.3 17.5 594.25 17.3 594.2 17.1 594.15 16.95 594.05 16.85 594 16.7 593.9 16.6 593.8 16.55 593.65 16.45 593.45 16.45 593.3 16.4 593.05 16.4 592.8 16.4 592.7 16.4 592.55 16.4 592.4 16.4 592.3 16.4 592.1 16.5 591.85 16.55 591.7 16.65 591.6 16.75 591.45 16.8 591.4 16.9 591.3 17 591.3 17.15 591.25 17.25 591.25 17.4
L 591.25 18.55
Q 591.25 19.4 590.95 20.3 590.8 20.75 590.6 21.2 590.4 21.65 590.2 22.05 589.95 22.5 589.65 22.85 589.3 23.25 588.95 23.65 588.6 24 588.15 24.3 587.75 24.6 587.3 24.85 587 25.1 586.9 25.25 586.8 25.35 586.75 25.45 586.75 25.55 586.75 25.65 586.75 25.8 586.8 25.95 586.85 26.1 586.9 26.25 587.05 26.55 587.2 26.8 587.3 26.9 587.45 27 587.6 27.05 587.75 27.15 588.05 27.3 588.2 27.3 588.25 27.3 588.35 27.25 588.45 27.25 588.6 27.25 588.7 27.25 588.75 27.2 588.85 27.15 588.9 27.1
L 588.95 27.1
Q 589.55 26.75 590.05 26.3 590.6 25.8 591.15 25.25 591.6 24.65 592.05 24.05 592.5 23.45 592.85 22.85 593.25 23.45 593.7 24.05 594.1 24.6 594.65 25.15 595.15 25.7 595.8 26.15 596.45 26.6 597.2 26.95 597.35 27.05 597.5 27.05 597.7 27.05 597.9 26.95 598.05 26.9 598.2 26.8 598.35 26.7 598.5 26.55 598.55 26.4 598.65 26.25 598.7 26.1 598.8 25.9 598.9 25.75 598.9 25.6 598.95 25.4 598.95 25.25 598.95 25.15 598.9 25.05 598.9 24.95 598.85 24.9 598.75 24.9 598.65 24.8 598.55 24.7 598.5 24.55 598.05 24.3 597.7 24.05 597.35 23.75 597 23.4 596.65 23.15 596.35 22.75 596 22.4 595.65 22.05 595.15 21.25 594.8 20.4 594.55 19.95 594.45 19.5 594.35 19.05 594.35 18.6 594.35 18.25 594.3 18
M 579.05 29.8
Q 578.8 29.8 578.6 29.85 578.35 29.9 578.15 30.05 577.9 30.2 577.75 30.4 577.65 30.6 577.65 30.85
L 577.65 32 570.05 32 570.05 30.85
Q 570.05 30.75 570 30.6 569.95 30.5 569.9 30.4 569.8 30.3 569.7 30.25 569.6 30.15 569.45 30.05 569.35 29.95 569 29.85 568.75 29.8 568.5 29.8 568.3 29.8 568.05 29.85 567.8 29.9 567.6 30.05 567.3 30.2 567.2 30.4 567.1 30.6 567.1 30.85
L 567.1 36.25
Q 567.1 36.8 567.2 37.2 567.3 37.65 567.55 37.95 567.8 38.3 568.15 38.45 568.5 38.65 569 38.65 571.4 38.65 573.8 38.65 575 38.6 576.2 38.6 577.4 38.6 578.6 38.6
L 578.6 38.65
Q 578.8 38.65 579 38.55 579.2 38.5 579.35 38.4 579.55 38.3 579.7 38.2 579.85 38.05 580.05 37.9 580.2 37.7 580.3 37.5 580.45 37.35 580.5 37.15 580.6 36.9 580.65 36.7 580.7 36.45 580.7 36.25
L 580.7 30.85
Q 580.7 30.6 580.5 30.4 580.45 30.3 580.3 30.25 580.2 30.15 580.05 30.05 579.9 30 579.8 29.95 579.7 29.9 579.6 29.85 579.45 29.8 579.3 29.8 579.2 29.8 579.05 29.8
M 577.15 34.45
Q 577.3 34.5 577.45 34.5 577.55 34.55 577.6 34.65 577.65 34.8 577.65 35
L 577.65 35.7
Q 577.65 35.9 577.6 36 577.55 36.1 577.45 36.15 577.35 36.2 577.2 36.2 577.05 36.2 576.85 36.2
L 570.75 36.2
Q 570.55 36.2 570.45 36.2 570.35 36.15 570.25 36.1 570.15 36.1 570.1 36 570.05 35.9 570.05 35.7
L 570.05 35
Q 570.05 34.8 570.1 34.65 570.15 34.55 570.25 34.5 570.35 34.5 570.45 34.45 570.6 34.45 570.8 34.45
L 576.75 34.45
Q 577 34.45 577.15 34.45
M 583.95 27.5
Q 584.2 27.5 584.4 27.4 584.6 27.3 584.75 27.05 584.85 26.9 584.9 26.65 584.95 26.4 584.95 26.15 584.95 25.9 584.9 25.65 584.85 25.4 584.75 25.25 584.6 25.05 584.4 24.95 584.2 24.85 583.95 24.85
L 563.9 24.85
Q 563.6 24.85 563.4 24.95 563.2 25.05 563.1 25.25 562.95 25.4 562.9 25.65 562.8 25.9 562.8 26.15 562.8 26.4 562.9 26.65 562.95 26.9 563.1 27.05 563.2 27.3 563.4 27.4 563.6 27.5 563.9 27.5
L 583.95 27.5
M 567.5 16.65
Q 567.3 16.7 567.15 16.8 566.95 16.9 566.85 17.05 566.7 17.25 566.65 17.45 566.6 17.7 566.6 17.95 566.6 18.25 566.65 18.5 566.7 18.7 566.85 18.9 566.95 19.05 567.15 19.15 567.3 19.25 567.5 19.25
L 577.85 19.25
Q 577.9 19.35 577.95 19.45 577.95 19.6 577.95 19.75 577.95 20.1 577.95 20.45 577.9 20.8 577.85 21.1 577.8 21.5 577.75 21.9 577.7 22.25 577.7 22.7
L 577.7 22.85
Q 577.7 23.4 578.05 23.7 578.4 23.95 579.15 23.95 579.4 23.95 579.65 23.9 579.85 23.85 580.05 23.75 580.2 23.7 580.3 23.5 580.4 23.35 580.45 23.1 580.5 22.7 580.6 22.3 580.65 21.95 580.7 21.65 580.7 21.35 580.75 21.1 580.75 20.8 580.8 20.55 580.8 20.3 580.8 20.1 580.8 19.85 580.8 19.6 580.8 19.2 580.8 18.65 580.8 18.15 580.7 17.8 580.6 17.4 580.4 17.15 580.2 16.9 579.85 16.8 579.45 16.65 578.95 16.65
L 567.5 16.65
M 539.35 30.15
Q 539.55 30.45 540.15 30.45
L 549.6 30.45
Q 549.6 30.55 549.6 30.6 549.65 30.7 549.65 30.75 549.65 30.85 549.65 30.95 549.7 31.05 549.7 31.1
L 549.7 31.45
Q 549.7 31.5 549.65 31.6 549.65 31.65 549.65 31.75 549.65 31.85 549.6 31.95 549.6 32.05 549.6 32.1
L 541.35 32.1
Q 540.9 32.1 540.5 32.2 540.1 32.3 539.8 32.45 539.45 32.65 539.3 32.95 539.15 33.3 539.15 33.75
L 539.15 36.85
Q 539.15 37.3 539.3 37.65 539.45 37.95 539.8 38.2 540.1 38.4 540.5 38.5 540.9 38.65 541.35 38.65
L 551.85 38.65
Q 552.4 38.65 552.7 38.25 552.8 38.05 552.85 37.85 552.95 37.6 552.95 37.35 552.95 36.8 552.65 36.5 552.4 36.2 551.85 36.2
L 542.2 36.2
Q 542.1 36.1 542.1 35.9 542.05 35.7 542.05 35.55
L 542.05 35.15
Q 542.05 35 542.1 34.8 542.1 34.65 542.2 34.5
L 550.1 34.5
Q 550.35 34.5 550.6 34.5 550.85 34.45 551.1 34.4 551.35 34.35 551.5 34.25 551.7 34.2 551.9 34.1 552 34 552.15 33.85 552.25 33.7 552.4 33.55 552.5 33.4 552.55 33.2 552.6 32.95 552.6 32.7
L 552.6 29.85
Q 552.6 29.4 552.45 29.05 552.25 28.7 551.9 28.45 551.2 28 550.4 28
L 540.15 28
Q 539.55 28 539.35 28.4 539.2 28.6 539.15 28.85 539.05 29.1 539.05 29.4 539.05 29.65 539.15 29.85 539.2 30 539.35 30.15
M 536.6 16.3
Q 536.15 16.3 535.7 16.55 535.45 16.75 535.35 17 535.25 17.25 535.25 17.5
L 535.25 23.8
Q 535.25 24.55 535.45 25.05 535.65 25.55 536.05 25.8 536.45 26.15 537 26.3 537.55 26.4 538.3 26.4
L 543.2 26.4
Q 543.9 26.4 544.4 26.3 544.95 26.15 545.3 25.8 545.65 25.55 545.8 25.05 546 24.55 546 23.8
L 546 17.65
Q 546 17.3 545.85 17.05 545.7 16.75 545.5 16.6 545.2 16.45 545 16.35 544.75 16.3 544.6 16.3 544.3 16.3 544.05 16.35 543.75 16.4 543.55 16.55 543.35 16.75 543.2 17 543.1 17.25 543.1 17.5
L 543.1 19.15 538.15 19.15 538.15 17.5
Q 538.15 17.4 538.1 17.25 538.05 17.1 538 16.95 537.85 16.75 537.55 16.6 537.45 16.55 537.3 16.5 537.2 16.45 537.15 16.4 537 16.35 536.9 16.3 536.75 16.3 536.6 16.3
M 538.35 23.85
Q 538.3 23.7 538.25 23.45 538.25 23.2 538.25 22.9
L 538.25 21.7 543.05 21.7 543.05 22.9
Q 543.05 23.05 543.05 23.15 543.05 23.3 543.05 23.4 543.05 23.5 543.05 23.65 543 23.75 542.95 23.85
L 538.35 23.85
M 552.95 16.9
Q 552.95 16.55 552.8 16.35 552.7 16.1 552.5 16 552.3 15.9 552.05 15.85 551.85 15.8 551.6 15.8 551.25 15.8 551 15.85 550.75 15.9 550.55 16 550.35 16.1 550.3 16.35 550.2 16.55 550.2 16.9
L 550.2 17.95 547.75 17.95
Q 547.4 17.95 547.2 18 547 18.1 546.9 18.3 546.7 18.65 546.7 19.15 546.7 19.45 546.75 19.65 546.8 19.9 546.9 20.05 547 20.2 547.2 20.3 547.4 20.4 547.75 20.4
L 550.2 20.4 550.2 21.7 547.75 21.7
Q 547.4 21.7 547.2 21.8 547 21.85 546.9 22.05 546.8 22.15 546.75 22.4 546.7 22.6 546.7 22.9 546.7 23.4 546.9 23.7 547 23.9 547.2 24 547.4 24.1 547.75 24.1
L 550.2 24.1 550.2 26.1
Q 550.2 26.45 550.3 26.65 550.35 26.85 550.55 26.95 550.75 27.05 551 27.1 551.25 27.15 551.6 27.15 551.85 27.15 552.05 27.1 552.3 27.05 552.5 26.95 552.7 26.85 552.8 26.65 552.95 26.45 552.95 26.1
L 552.95 16.9
M 512.45 17.25
Q 512.3 17.45 512.3 17.8
L 512.3 25.1
Q 512.3 25.5 512.4 25.85 512.5 26.2 512.65 26.45 512.8 26.75 512.95 26.95 513.15 27.15 513.3 27.3 513.55 27.4 513.75 27.5 514 27.6 514.25 27.65 514.5 27.7 514.75 27.75 515 27.75 515.25 27.75
L 515.3 27.75
Q 515.35 27.75 515.4 27.75 516.45 27.7 517.5 27.65 518.55 27.55 519.55 27.45 521.55 27.35 523.3 27 523.6 27 523.8 26.9 524 26.85 524.2 26.65 524.3 26.45 524.4 26.25 524.45 26.05 524.45 25.85 524.45 25.55 524.4 25.3 524.35 25.05 524.2 24.85 524.05 24.65 523.85 24.55 523.65 24.45 523.4 24.45 523.35 24.45 523.3 24.45 523.25 24.45 523.2 24.45 523.15 24.5 523.05 24.5
L 523 24.5
Q 522.95 24.5 522.95 24.45 522.1 24.6 521.2 24.75 520.3 24.85 519.4 24.9 518.45 25.05 517.45 25.1 516.5 25.15 515.45 25.15 515.4 24.8 515.4 24.5 515.35 24.2 515.35 23.85
L 515.35 17.65
Q 515.35 17.5 515.3 17.4 515.25 17.25 515.2 17.15 515.1 17.05 514.95 16.95 514.85 16.9 514.7 16.85 514.6 16.75 514.45 16.7 514.35 16.65 514.3 16.6 514.15 16.6 514.05 16.6 513.9 16.55 513.75 16.55 513.5 16.55 513.3 16.65 513.05 16.7 512.8 16.85 512.55 17 512.45 17.25
M 529 36
Q 528.85 35.9 528.6 35.85
L 520.25 35.85
Q 519.9 35.9 519.55 35.85 519.15 35.8 518.75 35.75
L 518.75 31.1
Q 518.75 30.95 518.75 30.85 518.7 30.7 518.65 30.6 518.55 30.5 518.5 30.4 518.4 30.35 518.35 30.25 518.2 30.2 518.1 30.15 517.95 30.1 517.8 30.05 517.65 30.05 517.5 30.05 517.4 30 517.35 30 517 30 516.75 30.1 516.5 30.15 516.3 30.3 516 30.45 515.9 30.65 515.8 30.85 515.8 31.1
L 515.8 36.3
Q 515.8 36.8 515.95 37.25 516.15 37.65 516.5 37.9 516.9 38.2 517.3 38.35 517.75 38.45 518.2 38.45
L 528.6 38.45
Q 528.85 38.45 529 38.4 529.25 38.3 529.4 38.1 529.55 37.9 529.6 37.65 529.7 37.4 529.7 37.15 529.7 36.9 529.6 36.7 529.55 36.45 529.4 36.25 529.25 36.1 529 36
M 528.9 15.85
Q 528.7 15.8 528.4 15.8 528.1 15.8 527.9 15.85 527.65 15.95 527.4 16.1 527.2 16.3 527.1 16.55 527 16.8 527 17.05
L 527 17.5 522.65 17.5
Q 522.25 17.5 522.05 17.6 521.8 17.65 521.75 17.8 521.65 17.95 521.6 18.15 521.6 18.35 521.6 18.65 521.6 18.9 521.6 19.1 521.65 19.3 521.75 19.45 521.8 19.6 522.05 19.65 522.25 19.75 522.65 19.75
L 527 19.75 527 21 522.7 21
Q 522.35 21 522.15 21.05 521.95 21.15 521.85 21.3 521.75 21.5 521.7 21.75 521.65 21.95 521.65 22.2 521.65 22.5 521.7 22.7 521.75 22.9 521.85 23.05 521.95 23.2 522.15 23.25 522.35 23.35 522.7 23.35
L 527 23.35 527 30.6
Q 527 30.95 527.1 31.15 527.2 31.4 527.4 31.5 527.65 31.6 527.9 31.65 528.1 31.7 528.4 31.7 528.7 31.7 528.9 31.65 529.15 31.6 529.4 31.5 529.6 31.4 529.7 31.15 529.8 30.95 529.8 30.6
L 529.8 17.05
Q 529.8 16.8 529.7 16.55 529.6 16.3 529.4 16.1 529.15 15.95 528.9 15.85
M 504.55 30
Q 504.2 29.85 503.75 29.85
L 493.45 29.85
Q 493.1 29.85 492.9 29.9 492.7 30 492.6 30.2 492.5 30.4 492.45 30.65 492.4 30.85 492.4 31.15 492.4 31.65 492.6 32.05 492.7 32.25 492.9 32.35 493.1 32.45 493.45 32.45
L 501.6 32.45
Q 501.75 32.45 501.9 32.45 502.05 32.5 502.3 32.5 502.45 32.5 502.65 32.5 502.8 32.55 502.9 32.55
L 502.9 38.25
Q 502.9 38.5 503.05 38.7 503.15 38.85 503.4 39 503.6 39.15 503.85 39.2 504.05 39.3 504.3 39.3 504.55 39.3 504.8 39.2 505.05 39.15 505.3 39 505.5 38.85 505.6 38.7 505.7 38.5 505.7 38.25
L 505.7 32.05
Q 505.7 31.15 505.2 30.45 504.9 30.15 504.55 30
M 490.3 21.85
Q 489.85 22.1 489.55 22.45 489.25 22.75 489 23.1 488.8 23.5 488.7 23.85 488.6 24.25 488.6 24.7 488.6 25.15 488.7 25.5 488.8 25.9 489 26.3 489.25 26.65 489.55 26.95 489.85 27.3 490.3 27.55 490.65 27.8 491.1 28 491.5 28.2 492.05 28.35 492.55 28.5 493.05 28.55 493.6 28.65 494.2 28.65 494.8 28.65 495.35 28.55 495.9 28.5 496.45 28.35 496.95 28.2 497.4 27.95 497.8 27.75 498.2 27.45 498.5 27.25 498.8 26.9 499.1 26.6 499.3 26.25 499.55 25.85 499.65 25.5 499.75 25.1 499.75 24.7 499.75 24.3 499.65 23.9 499.55 23.55 499.3 23.15 499.1 22.8 498.8 22.5 498.5 22.15 498.2 21.85 497.8 21.6 497.4 21.4 496.95 21.2 496.45 21.05 495.4 20.7 494.2 20.7 493 20.7 492 21.05 491.5 21.15 491.1 21.4 490.65 21.6 490.3 21.85
M 491.6 24.7
Q 491.6 24.35 491.8 24.1 492 23.8 492.4 23.6 492.75 23.4 493.2 23.3 493.65 23.2 494.2 23.2 494.7 23.2 495.15 23.3 495.6 23.4 496 23.6 496.3 23.8 496.5 24.1 496.65 24.35 496.65 24.7 496.65 25 496.5 25.25 496.35 25.55 496 25.75 495.3 26.2 494.2 26.2 493.65 26.2 493.2 26.1 492.75 26 492.4 25.8 492 25.55 491.8 25.3 491.6 25 491.6 24.7
M 494.3 15.35
Q 493.95 15.35 493.7 15.4 493.45 15.5 493.25 15.55 493.05 15.7 492.95 15.9 492.85 16.15 492.85 16.45
L 492.85 17.7
Q 492.35 17.7 491.8 17.7 491.3 17.7 490.85 17.65 489.85 17.65 488.75 17.65 488.45 17.65 488.25 17.75 488 17.8 487.85 17.9 487.6 18.15 487.6 18.8 487.6 19.05 487.65 19.25 487.7 19.45 487.8 19.55 487.95 19.7 488.15 19.8 488.35 19.9 488.6 19.9 491.4 19.9 494.15 19.9 495.5 19.9 496.9 19.9 498.3 19.9 499.75 19.9
L 499.8 19.9
Q 500.5 19.9 500.7 19.6 500.8 19.45 500.8 19.3 500.85 19.1 500.85 18.85 500.85 18.55 500.8 18.35 500.8 18.1 500.7 17.95 500.6 17.85 500.4 17.75 500.15 17.7 499.8 17.7
L 495.6 17.7 495.6 16.45
Q 495.6 16.15 495.45 15.95 495.35 15.7 495.15 15.6 494.95 15.5 494.75 15.45 494.55 15.35 494.3 15.35
M 508.1 23.2
Q 508.45 23.2 508.7 23.1 508.9 23 509.05 22.8 509.1 22.6 509.15 22.4 509.2 22.15 509.2 21.9 509.2 21.6 509.15 21.4 509.1 21.15 509.05 20.95 508.9 20.8 508.7 20.7 508.45 20.6 508.1 20.6
L 505.8 20.6 505.8 16.7
Q 505.75 16.4 505.65 16.15 505.55 15.95 505.4 15.8 504.95 15.55 504.35 15.55 504.05 15.55 503.8 15.65 503.55 15.7 503.35 15.8 502.8 16.05 502.8 16.7
L 502.8 27.55
Q 502.8 27.85 502.9 28.1 503.05 28.3 503.3 28.45 503.5 28.6 503.7 28.65 503.95 28.75 504.15 28.75 504.75 28.75 505.3 28.4 505.5 28.3 505.65 28.05 505.8 27.75 505.8 27.35
L 505.8 23.2 508.1 23.2 Z"/>
</g>

<g id="dffdbfdndm_0_Layer2_0_FILL">
<path fill="#D8EDFB" stroke="none" d="
M 424.15 212.15
L 424.15 183.8 112.3 183.8 41.45 212.15 424.15 212.15 Z"/>
</g>

<g id="dffdbfdndm_0_Layer2_7_FILL">
<path fill="#EEF7FD" stroke="none" d="
M 112.3 42.05
L 41.45 42.05 41.45 212.15 112.3 183.8 112.3 42.05 Z"/>
</g>

<g id="dffdbfdndm_0_Layer0_0_FILL">
<path fill="#1E1E1E" stroke="none" d="
M -151.55 60.85
Q -151.65 60.45 -151.8 60.1 -151.95 59.75 -152.15 59.45 -152.35 59.15 -152.6 58.9 -152.85 58.7 -153.1 58.5 -153.4 58.35 -153.7 58.25 -154 58.15 -154.35 58.15 -154.75 58.15 -155.05 58.25 -155.4 58.35 -155.65 58.5 -155.9 58.65 -156.15 58.9 -156.4 59.1 -156.6 59.4 -156.75 59.7 -156.9 60.05 -157.05 60.4 -157.15 60.8 -157.25 61.25 -157.3 61.7 -157.35 62.15 -157.3 62.65 -157.35 63.15 -157.3 63.6 -157.25 64.05 -157.15 64.45 -157.05 64.85 -156.95 65.2 -156.8 65.6 -156.6 65.85 -156.4 66.2 -156.15 66.4 -155.95 66.65 -155.65 66.8 -155.4 67 -155.05 67.05 -154.75 67.15 -154.35 67.15 -154 67.15 -153.7 67.05 -153.4 67 -153.1 66.8 -152.8 66.65 -152.55 66.4 -152.35 66.2 -152.15 65.85 -151.95 65.6 -151.8 65.2 -151.65 64.85 -151.55 64.45 -151.45 64.05 -151.4 63.6 -151.35 63.15 -151.35 62.65 -151.35 62.15 -151.4 61.7 -151.45 61.25 -151.55 60.85
M -155 59.75
Q -154.85 59.65 -154.7 59.6 -154.55 59.55 -154.35 59.55 -154.2 59.55 -154 59.6 -153.85 59.65 -153.7 59.8 -153.55 59.9 -153.4 60.05 -153.3 60.25 -153.2 60.45 -153.15 60.65 -153.05 60.9 -153 61.15 -152.9 61.45 -152.85 61.7 -152.85 62.05 -152.8 62.35 -152.8 62.65 -152.8 63 -152.85 63.3 -152.85 63.6 -152.9 63.85 -153.05 64.45 -153.2 64.85 -153.3 65.1 -153.4 65.25 -153.55 65.45 -153.7 65.55 -153.85 65.7 -154 65.75 -154.15 65.8 -154.35 65.8 -154.55 65.8 -154.7 65.75 -154.9 65.7 -155.05 65.55 -155.3 65.3 -155.55 64.85 -155.65 64.65 -155.7 64.4 -155.75 64.15 -155.8 63.85 -155.85 63.55 -155.85 63.25 -155.9 62.95 -155.9 62.65 -155.9 62.35 -155.85 62 -155.85 61.7 -155.8 61.4 -155.75 61.15 -155.7 60.9 -155.6 60.65 -155.5 60.4 -155.4 60.2 -155.3 60.05 -155.15 59.9 -155 59.75 Z"/>
</g>

<path id="dffdbfdndm_0_Layer2_1_1_STROKES" stroke="#00A3E9" stroke-width="1" stroke-linejoin="miter" stroke-linecap="butt" stroke-miterlimit="4" fill="none" d="
M -148.07398681640626 30.111474609374994
L 235.07667846679686 30.111474609374994"/>

<path id="dffdbfdndm_0_Layer2_2_1_STROKES" stroke="#81CFF4" stroke-width="1" stroke-linejoin="miter" stroke-linecap="butt" stroke-miterlimit="4" fill="none" d="
M -148.07398681640626 14.262048339843744
L 235.07667846679686 14.262048339843744"/>

<path id="dffdbfdndm_0_Layer2_3_1_STROKES" stroke="#81CFF4" stroke-width="1" stroke-linejoin="miter" stroke-linecap="butt" stroke-miterlimit="4" fill="none" d="
M -148.07398681640626 6.337335205078119
L 235.07667846679686 6.337335205078119"/>

<path id="dffdbfdndm_0_Layer2_4_1_STROKES" stroke="#81CFF4" stroke-width="1" stroke-linejoin="miter" stroke-linecap="butt" stroke-miterlimit="4" fill="none" d="
M -148.07398681640626 -1.5873779296875057
L 235.07667846679686 -1.5873779296875057"/>

<path id="dffdbfdndm_0_Layer2_5_1_STROKES" stroke="#81CFF4" stroke-width="1" stroke-linejoin="miter" stroke-linecap="butt" stroke-miterlimit="4" fill="none" d="
M -148.07398681640626 22.18676147460937
L 235.07667846679686 22.18676147460937"/>

<path id="dffdbfdndm_0_Layer2_6_1_STROKES" stroke="#00A3E9" stroke-width="1" stroke-linejoin="miter" stroke-linecap="butt" stroke-miterlimit="4" fill="none" d="
M -148.07398681640626 -9.450659179687506
L 235.07667846679686 -9.450659179687506"/>

<path id="dffdbfdndm_0_Layer2_8_1_STROKES" stroke="#81CFF4" stroke-width="1" stroke-linejoin="miter" stroke-linecap="butt" stroke-miterlimit="4" fill="none" d="
M -148.07398681640626 -25.300085449218756
L 235.07667846679686 -25.300085449218756"/>

<path id="dffdbfdndm_0_Layer2_9_1_STROKES" stroke="#81CFF4" stroke-width="1" stroke-linejoin="miter" stroke-linecap="butt" stroke-miterlimit="4" fill="none" d="
M -148.07398681640626 -33.22479858398438
L 235.07667846679686 -33.22479858398438"/>

<path id="dffdbfdndm_0_Layer2_10_1_STROKES" stroke="#81CFF4" stroke-width="1" stroke-linejoin="miter" stroke-linecap="butt" stroke-miterlimit="4" fill="none" d="
M -148.07398681640626 -41.149511718750006
L 235.07667846679686 -41.149511718750006"/>

<path id="dffdbfdndm_0_Layer2_11_1_STROKES" stroke="#81CFF4" stroke-width="1" stroke-linejoin="miter" stroke-linecap="butt" stroke-miterlimit="4" fill="none" d="
M -148.07398681640626 -17.37537231445313
L 235.07667846679686 -17.37537231445313"/>

<path id="dffdbfdndm_0_Layer2_12_1_STROKES" stroke="#332D2B" stroke-width="1" stroke-linejoin="miter" stroke-linecap="butt" stroke-miterlimit="4" fill="none" d="
M -235.1229675292969 104.50548706054687
L -148.07398681640626 69.6736083984375"/>

<path id="dffdbfdndm_0_Layer2_13_1_STROKES" stroke="#00A3E9" stroke-width="1" stroke-linejoin="miter" stroke-linecap="butt" stroke-miterlimit="4" fill="none" d="
M -148.07398681640626 -49.07422485351563
L 235.07667846679686 -49.07422485351563"/>

<path id="dffdbfdndm_0_Layer2_14_1_STROKES" stroke="#81CFF4" stroke-width="1" stroke-linejoin="miter" stroke-linecap="butt" stroke-miterlimit="4" fill="none" d="
M -148.07398681640626 53.824182128906244
L 235.07667846679686 53.824182128906244"/>

<path id="dffdbfdndm_0_Layer2_15_1_STROKES" stroke="#81CFF4" stroke-width="1" stroke-linejoin="miter" stroke-linecap="butt" stroke-miterlimit="4" fill="none" d="
M -148.07398681640626 45.960900878906244
L 235.07667846679686 45.960900878906244"/>

<path id="dffdbfdndm_0_Layer2_16_1_STROKES" stroke="#81CFF4" stroke-width="1" stroke-linejoin="miter" stroke-linecap="butt" stroke-miterlimit="4" fill="none" d="
M -148.07398681640626 38.03618774414062
L 235.07667846679686 38.03618774414062"/>

<path id="dffdbfdndm_0_Layer2_17_1_STROKES" stroke="#81CFF4" stroke-width="1" stroke-linejoin="miter" stroke-linecap="butt" stroke-miterlimit="4" fill="none" d="
M -148.07398681640626 61.74889526367187
L 235.07667846679686 61.74889526367187"/>

<path id="dffdbfdndm_0_Layer2_18_1_STROKES" stroke="#81CFF4" stroke-width="1" stroke-linejoin="miter" stroke-linecap="butt" stroke-miterlimit="4" fill="none" d="
M -148.07398681640626 -56.93750610351563
L 235.07667846679686 -56.93750610351563"/>

<path id="dffdbfdndm_0_Layer2_19_1_STROKES" stroke="#81CFF4" stroke-width="1" stroke-linejoin="miter" stroke-linecap="butt" stroke-miterlimit="4" fill="none" d="
M -148.07398681640626 -64.86221923828126
L 235.07667846679686 -64.86221923828126"/>

<path id="dffdbfdndm_0_Layer2_20_1_STROKES" stroke="#81CFF4" stroke-width="1" stroke-linejoin="miter" stroke-linecap="butt" stroke-miterlimit="4" fill="none" d="
M -148.07398681640626 -72.78693237304688
L 235.07667846679686 -72.78693237304688"/>

<path id="dffdbfdndm_0_Layer2_21_1_STROKES" stroke="#81CFF4" stroke-width="1" stroke-linejoin="miter" stroke-linecap="butt" stroke-miterlimit="4" fill="none" d="
M -148.07398681640626 -80.7116455078125
L 235.07667846679686 -80.7116455078125"/>

<path id="dffdbfdndm_0_Layer2_22_1_STROKES" stroke="#00A3E9" stroke-width="1" stroke-linejoin="miter" stroke-linecap="butt" stroke-miterlimit="4" fill="none" d="
M -148.07398681640626 -88.63635864257813
L 235.07667846679686 -88.63635864257813"/>

<path id="dffdbfdndm_0_Layer2_23_1_STROKES" stroke="#81CFF4" stroke-width="1" stroke-linejoin="miter" stroke-linecap="butt" stroke-miterlimit="4" fill="none" d="
M -148.07398681640626 -96.56107177734376
L 235.07667846679686 -96.56107177734376"/>

<path id="dffdbfdndm_0_Layer2_24_1_STROKES" stroke="#332D2B" stroke-width="1" stroke-linejoin="miter" stroke-linecap="butt" stroke-miterlimit="4" fill="none" d="
M -148.07398681640626 -104.48578491210938
L -148.07398681640626 104.50548706054687"/>

<path id="dffdbfdndm_0_Layer2_25_1_STROKES" stroke="#332D2B" stroke-width="1" stroke-linejoin="miter" stroke-linecap="butt" stroke-miterlimit="4" fill="none" d="
M 43.532061767578114 -104.48578491210938
L 43.532061767578114 104.50548706054687"/>

<path id="dffdbfdndm_0_Layer2_26_1_STROKES" stroke="#332D2B" stroke-width="1" stroke-linejoin="miter" stroke-linecap="butt" stroke-miterlimit="4" fill="none" d="
M -20.357098388671886 -104.48578491210938
L -20.357098388671886 104.50548706054687"/>

<path id="dffdbfdndm_0_Layer2_27_1_STROKES" stroke="#332D2B" stroke-width="1" stroke-linejoin="miter" stroke-linecap="butt" stroke-miterlimit="4" fill="none" d="
M -84.18482666015626 -104.48578491210938
L -84.18482666015626 104.50548706054687"/>

<path id="dffdbfdndm_0_Layer2_28_1_STROKES" stroke="#332D2B" stroke-width="1" stroke-linejoin="miter" stroke-linecap="butt" stroke-miterlimit="4" fill="none" d="
M 107.35979003906249 -104.48578491210938
L 107.35979003906249 104.50548706054687"/>

<path id="dffdbfdndm_0_Layer2_29_1_STROKES" stroke="#332D2B" stroke-width="1" stroke-linejoin="miter" stroke-linecap="butt" stroke-miterlimit="4" fill="none" d="
M 235.07667846679686 69.6736083984375
L -235.1229675292969 69.6736083984375"/>

<path id="dffdbfdndm_0_Layer2_30_1_STROKES" stroke="#332D2B" stroke-width="1.5" stroke-linejoin="miter" stroke-linecap="butt" stroke-miterlimit="4" fill="none" d="
M -235.1229675292969 -104.48578491210938
L -235.1229675292969 104.50548706054687 235.07667846679686 104.50548706054687 235.07667846679686 -104.48578491210938 -235.1229675292969 -104.48578491210938 Z"/>

<path id="dffdbfdndm_0_Layer2_31_1_STROKES" stroke="#332D2B" stroke-width="1" stroke-linejoin="miter" stroke-linecap="butt" stroke-miterlimit="4" fill="none" d="
M 171.18751831054686 -104.48578491210938
L 171.18751831054686 104.50548706054687"/>
</defs>

<g transform="matrix( 1, 0, 0, 1, 0,0) ">
<use xlink:href="#Layer0_0_FILL"/>
</g>

<g transform="matrix( 2, 0, 0, 2, 600,275.7) ">
<g transform="matrix( 1.2286376953125, 0, 0, 1.2286376953125, -286.05,-156.15) ">
<use xlink:href="#dffdbfdndm_0_Layer2_0_FILL"/>
</g>

<g transform="matrix( 1.2286376953125, 0, 0, 1.2286376953125, -286.05,-156.15) ">
<use xlink:href="#dffdbfdndm_0_Layer2_1_1_STROKES" transform="matrix( 0.81390380859375, 0, 0, 0.81390380859375, 232.8,127.05) "/>
</g>

<g transform="matrix( 1.2286376953125, 0, 0, 1.2286376953125, -286.05,-156.15) ">
<use xlink:href="#dffdbfdndm_0_Layer2_2_1_STROKES" transform="matrix( 0.81390380859375, 0, 0, 0.81390380859375, 232.8,127.05) "/>
</g>

<g transform="matrix( 1.2286376953125, 0, 0, 1.2286376953125, -286.05,-156.15) ">
<use xlink:href="#dffdbfdndm_0_Layer2_3_1_STROKES" transform="matrix( 0.81390380859375, 0, 0, 0.81390380859375, 232.8,127.05) "/>
</g>

<g transform="matrix( 1.2286376953125, 0, 0, 1.2286376953125, -286.05,-156.15) ">
<use xlink:href="#dffdbfdndm_0_Layer2_4_1_STROKES" transform="matrix( 0.81390380859375, 0, 0, 0.81390380859375, 232.8,127.05) "/>
</g>

<g transform="matrix( 1.2286376953125, 0, 0, 1.2286376953125, -286.05,-156.15) ">
<use xlink:href="#dffdbfdndm_0_Layer2_5_1_STROKES" transform="matrix( 0.81390380859375, 0, 0, 0.81390380859375, 232.8,127.05) "/>
</g>

<g transform="matrix( 1.2286376953125, 0, 0, 1.2286376953125, -286.05,-156.15) ">
<use xlink:href="#dffdbfdndm_0_Layer2_6_1_STROKES" transform="matrix( 0.81390380859375, 0, 0, 0.81390380859375, 232.8,127.05) "/>
</g>

<g transform="matrix( 1.2286376953125, 0, 0, 1.2286376953125, -286.05,-156.15) ">
<use xlink:href="#dffdbfdndm_0_Layer2_7_FILL"/>
</g>

<g transform="matrix( 1.2286376953125, 0, 0, 1.2286376953125, -286.05,-156.15) ">
<use xlink:href="#dffdbfdndm_0_Layer2_8_1_STROKES" transform="matrix( 0.81390380859375, 0, 0, 0.81390380859375, 232.8,127.05) "/>
</g>

<g transform="matrix( 1.2286376953125, 0, 0, 1.2286376953125, -286.05,-156.15) ">
<use xlink:href="#dffdbfdndm_0_Layer2_9_1_STROKES" transform="matrix( 0.81390380859375, 0, 0, 0.81390380859375, 232.8,127.05) "/>
</g>

<g transform="matrix( 1.2286376953125, 0, 0, 1.2286376953125, -286.05,-156.15) ">
<use xlink:href="#dffdbfdndm_0_Layer2_10_1_STROKES" transform="matrix( 0.81390380859375, 0, 0, 0.81390380859375, 232.8,127.05) "/>
</g>

<g transform="matrix( 1.2286376953125, 0, 0, 1.2286376953125, -286.05,-156.15) ">
<use xlink:href="#dffdbfdndm_0_Layer2_11_1_STROKES" transform="matrix( 0.81390380859375, 0, 0, 0.81390380859375, 232.8,127.05) "/>
</g>

<g transform="matrix( 1.2286376953125, 0, 0, 1.2286376953125, -286.05,-156.15) ">
<use xlink:href="#dffdbfdndm_0_Layer2_12_1_STROKES" transform="matrix( 0.81390380859375, 0, 0, 0.81390380859375, 232.8,127.05) "/>
</g>

<g transform="matrix( 1.2286376953125, 0, 0, 1.2286376953125, -286.05,-156.15) ">
<use xlink:href="#dffdbfdndm_0_Layer2_13_1_STROKES" transform="matrix( 0.81390380859375, 0, 0, 0.81390380859375, 232.8,127.05) "/>
</g>

<g transform="matrix( 1.2286376953125, 0, 0, 1.2286376953125, -286.05,-156.15) ">
<use xlink:href="#dffdbfdndm_0_Layer2_14_1_STROKES" transform="matrix( 0.81390380859375, 0, 0, 0.81390380859375, 232.8,127.05) "/>
</g>

<g transform="matrix( 1.2286376953125, 0, 0, 1.2286376953125, -286.05,-156.15) ">
<use xlink:href="#dffdbfdndm_0_Layer2_15_1_STROKES" transform="matrix( 0.81390380859375, 0, 0, 0.81390380859375, 232.8,127.05) "/>
</g>

<g transform="matrix( 1.2286376953125, 0, 0, 1.2286376953125, -286.05,-156.15) ">
<use xlink:href="#dffdbfdndm_0_Layer2_16_1_STROKES" transform="matrix( 0.81390380859375, 0, 0, 0.81390380859375, 232.8,127.05) "/>
</g>

<g transform="matrix( 1.2286376953125, 0, 0, 1.2286376953125, -286.05,-156.15) ">
<use xlink:href="#dffdbfdndm_0_Layer2_17_1_STROKES" transform="matrix( 0.81390380859375, 0, 0, 0.81390380859375, 232.8,127.05) "/>
</g>

<g transform="matrix( 1.2286376953125, 0, 0, 1.2286376953125, -286.05,-156.15) ">
<use xlink:href="#dffdbfdndm_0_Layer2_18_1_STROKES" transform="matrix( 0.81390380859375, 0, 0, 0.81390380859375, 232.8,127.05) "/>
</g>

<g transform="matrix( 1.2286376953125, 0, 0, 1.2286376953125, -286.05,-156.15) ">
<use xlink:href="#dffdbfdndm_0_Layer2_19_1_STROKES" transform="matrix( 0.81390380859375, 0, 0, 0.81390380859375, 232.8,127.05) "/>
</g>

<g transform="matrix( 1.2286376953125, 0, 0, 1.2286376953125, -286.05,-156.15) ">
<use xlink:href="#dffdbfdndm_0_Layer2_20_1_STROKES" transform="matrix( 0.81390380859375, 0, 0, 0.81390380859375, 232.8,127.05) "/>
</g>

<g transform="matrix( 1.2286376953125, 0, 0, 1.2286376953125, -286.05,-156.15) ">
<use xlink:href="#dffdbfdndm_0_Layer2_21_1_STROKES" transform="matrix( 0.81390380859375, 0, 0, 0.81390380859375, 232.8,127.05) "/>
</g>

<g transform="matrix( 1.2286376953125, 0, 0, 1.2286376953125, -286.05,-156.15) ">
<use xlink:href="#dffdbfdndm_0_Layer2_22_1_STROKES" transform="matrix( 0.81390380859375, 0, 0, 0.81390380859375, 232.8,127.05) "/>
</g>

<g transform="matrix( 1.2286376953125, 0, 0, 1.2286376953125, -286.05,-156.15) ">
<use xlink:href="#dffdbfdndm_0_Layer2_23_1_STROKES" transform="matrix( 0.81390380859375, 0, 0, 0.81390380859375, 232.8,127.05) "/>
</g>

<g transform="matrix( 1.2286376953125, 0, 0, 1.2286376953125, -286.05,-156.15) ">
<use xlink:href="#dffdbfdndm_0_Layer2_24_1_STROKES" transform="matrix( 0.81390380859375, 0, 0, 0.81390380859375, 232.8,127.05) "/>
</g>

<g transform="matrix( 1.2286376953125, 0, 0, 1.2286376953125, -286.05,-156.15) ">
<use xlink:href="#dffdbfdndm_0_Layer2_25_1_STROKES" transform="matrix( 0.81390380859375, 0, 0, 0.81390380859375, 232.8,127.05) "/>
</g>

<g transform="matrix( 1.2286376953125, 0, 0, 1.2286376953125, -286.05,-156.15) ">
<use xlink:href="#dffdbfdndm_0_Layer2_26_1_STROKES" transform="matrix( 0.81390380859375, 0, 0, 0.81390380859375, 232.8,127.05) "/>
</g>

<g transform="matrix( 1.2286376953125, 0, 0, 1.2286376953125, -286.05,-156.15) ">
<use xlink:href="#dffdbfdndm_0_Layer2_27_1_STROKES" transform="matrix( 0.81390380859375, 0, 0, 0.81390380859375, 232.8,127.05) "/>
</g>

<g transform="matrix( 1.2286376953125, 0, 0, 1.2286376953125, -286.05,-156.15) ">
<use xlink:href="#dffdbfdndm_0_Layer2_28_1_STROKES" transform="matrix( 0.81390380859375, 0, 0, 0.81390380859375, 232.8,127.05) "/>
</g>

<g transform="matrix( 1.2286376953125, 0, 0, 1.2286376953125, -286.05,-156.15) ">
<use xlink:href="#dffdbfdndm_0_Layer2_29_1_STROKES" transform="matrix( 0.81390380859375, 0, 0, 0.81390380859375, 232.8,127.05) "/>
</g>

<g transform="matrix( 1.2286376953125, 0, 0, 1.2286376953125, -286.05,-156.15) ">
<use xlink:href="#dffdbfdndm_0_Layer2_30_1_STROKES" transform="matrix( 0.81390380859375, 0, 0, 0.81390380859375, 232.8,127.05) "/>
</g>

<g transform="matrix( 1.2286376953125, 0, 0, 1.2286376953125, -286.05,-156.15) ">
<use xlink:href="#dffdbfdndm_0_Layer2_31_1_STROKES" transform="matrix( 0.81390380859375, 0, 0, 0.81390380859375, 232.8,127.05) "/>
</g>

<g transform="matrix( 1, 0, 0, 1, 0,0) ">
<use xlink:href="#dffdbfdndm_0_Layer0_0_FILL"/>
</g>
</g>
</svg>
