
<svg xmlns="http://www.w3.org/2000/svg" version="1.1" xmlns:xlink="http://www.w3.org/1999/xlink" preserveAspectRatio="none" x="0px" y="0px" width="1280px" height="720px" viewBox="0 0 1280 720">
<defs>
<g id="Layer0_0_FILL">
<path fill="#7A94C2" stroke="none" d="
M 78.65 537.5
L 78.65 556.55
Q 78.65 566.55 88.65 566.55
L 133.7 566.55
Q 143.7 566.55 143.7 556.55
L 143.7 537.5
Q 143.7 527.5 133.7 527.5
L 88.65 527.5
Q 78.65 527.5 78.65 537.5
M 128.25 536.95
Q 128.65 537.15 128.65 537.75
L 128.65 540.4 130.55 540.4
Q 130.85 540.4 131.05 540.5 131.25 540.6 131.35 540.75 131.45 541.15 131.45 541.65 131.45 541.9 131.45 542.1 131.4 542.3 131.35 542.5 131.2 542.9 130.55 542.9
L 128.65 542.9 128.65 545.35
Q 128.65 545.65 128.55 545.85 128.45 546.05 128.25 546.15 128.05 546.25 127.8 546.3 127.55 546.35 127.3 546.35 127.15 546.35 127 546.35 126.9 546.3 126.75 546.3 126.65 546.3 126.5 546.25 126.4 546.2 126.3 546.15 126.2 546.1 126.1 546 126.05 545.9 126 545.8 125.9 545.7 125.9 545.6 125.85 545.5 125.85 545.35
L 125.85 537.75
Q 125.85 537.6 125.9 537.5 125.9 537.35 126 537.25 126.05 537.15 126.1 537.1 126.2 537 126.3 536.95 126.4 536.9 126.5 536.85 126.65 536.85 126.75 536.8 126.9 536.8 127 536.75 127.15 536.75 127.3 536.75 127.55 536.75 127.8 536.8 128.05 536.85 128.25 536.95
M 123.05 537.7
Q 123.25 537.75 123.35 537.85 123.45 537.95 123.5 538.2 123.55 538.5 123.55 538.9 123.55 539.2 123.5 539.45 123.45 539.7 123.35 539.85 123.25 540 123.05 540.05 122.85 540.1 122.55 540.1
L 117.4 540.1 117.4 543
Q 117.4 543.3 117.4 543.45 118.15 543.45 118.9 543.4 119.7 543.4 120.5 543.3 121.3 543.25 122.05 543.15 122.8 543.1 123.55 542.95 123.65 542.95 123.75 542.95 123.9 542.95 124 542.95 124.15 542.95 124.2 542.95 124.3 543 124.4 543 124.4 543.05 124.5 543.15 124.5 543.2 124.6 543.3 124.65 543.4 124.65 543.55 124.7 543.7 124.75 543.9 124.85 544.25 124.85 544.5 124.85 544.75 124.75 544.95 124.5 545.3 123.85 545.35 123.05 545.5 122.25 545.6 121.45 545.7 120.65 545.75 119.85 545.85 119.05 545.9 118.25 545.95 117.4 546 117 546 116.65 545.95 116.35 545.95 116.1 545.95 115.85 545.9 115.6 545.85 115.4 545.8 115.25 545.65 115 545.55 114.9 545.4 114.75 545.25 114.7 545 114.55 544.55 114.55 543.75
L 114.55 539.95
Q 114.55 539.55 114.6 539.25 114.65 538.95 114.7 538.7 114.75 538.45 114.9 538.3 115 538.1 115.25 537.95 115.4 537.85 115.6 537.8 115.85 537.7 116.1 537.7 116.35 537.65 116.65 537.65 117 537.65 117.4 537.65
L 122.55 537.65
Q 122.85 537.65 123.05 537.7
M 95.5 541.05
L 93.95 541.05
Q 93.7 541.05 93.5 540.95 93.35 540.85 93.2 540.65 93.1 540.5 93 540.25 92.95 540.05 92.95 539.8 92.95 539.55 93 539.35 93.1 539.1 93.2 538.95 93.35 538.75 93.5 538.65 93.7 538.55 93.95 538.55
L 96.15 538.55
Q 96.45 538.55 96.75 538.6 97 538.65 97.2 538.7 97.35 538.8 97.55 538.9 97.7 539 97.85 539.15 98.05 539.4 98.1 539.75 98.1 539.95 98.1 540.15 98.15 540.4 98.15 540.6 98.15 541.15 98.1 541.75 98.05 542.3 97.95 542.95 97.85 543.6 97.7 544.25 97.55 544.9 97.35 545.5 97.2 546.15 96.95 546.75 96.7 547.35 96.35 547.9 96 548.45 95.6 548.9 95.25 549.3 94.75 549.65 94.65 549.7 94.5 549.75 94.35 549.8 94.1 549.75 93.9 549.75 93.7 549.65 93.45 549.5 93.25 549.3
L 93.3 549.3
Q 93.15 549.15 93.05 548.95 92.95 548.75 92.95 548.55 92.95 548.3 93.05 548.1 93.1 547.9 93.3 547.7 93.6 547.4 93.85 547.1 94.1 546.75 94.3 546.4 94.45 546 94.6 545.6 94.75 545.2 94.85 544.75 95 544.35 95.1 543.9 95.2 543.45 95.25 542.95 95.35 542.5 95.4 542 95.45 541.55 95.5 541.05
M 98.8 538.95
Q 98.9 538.75 99.1 538.65 99.3 538.55 99.6 538.55
L 101.55 538.55
Q 101.85 538.55 102.1 538.6 102.4 538.65 102.55 538.7 102.75 538.8 102.9 538.9 103.05 539 103.2 539.15 103.3 539.3 103.35 539.45 103.4 539.6 103.4 539.8 103.4 539.95 103.45 540.2 103.45 540.4 103.45 540.6 103.45 541.35 103.4 542.05 103.35 542.8 103.25 543.5 103.15 544.2 103 544.9 102.85 545.55 102.6 546.25 102.45 546.9 102.2 547.5 102 548.1 101.65 548.7 101.35 549.3 100.95 549.8 100.6 550.35 100.15 550.85 100.05 551 99.85 551.1 99.7 551.15 99.45 551.1 99.25 551.1 99 551 98.8 550.95 98.55 550.8 98.4 550.7 98.25 550.5 98.15 550.35 98.05 550.1 97.95 549.9 98 549.65 98.05 549.45 98.2 549.2 98.5 548.8 98.8 548.4 99.05 547.95 99.3 547.5 99.5 547.05 99.65 546.55 99.85 546.05 99.95 545.5 100.1 545 100.2 544.45 100.35 543.9 100.4 543.35 100.5 542.8 100.55 542.2 100.6 541.65 100.65 541.05
L 99.6 541.05
Q 99.3 541.05 99.1 540.95 98.9 540.9 98.8 540.7 98.6 540.5 98.55 540.3 98.5 540.1 98.5 539.85 98.5 539.55 98.55 539.35 98.6 539.1 98.8 538.95
M 106.55 536.85
Q 106.95 536.85 107.4 537.05 107.6 537.15 107.75 537.35 107.85 537.55 107.85 537.85
L 107.85 543.85 109.6 543.85
Q 109.95 543.85 110.15 543.95 110.4 544.05 110.5 544.2 110.6 544.4 110.65 544.65 110.75 544.85 110.75 545.1 110.75 545.35 110.65 545.55 110.6 545.8 110.5 546 110.4 546.2 110.15 546.3 109.95 546.4 109.6 546.4
L 107.85 546.4 107.85 555.6
Q 107.85 555.9 107.75 556.05 107.6 556.3 107.4 556.35 106.95 556.55 106.55 556.55 106.25 556.55 106 556.5 105.8 556.45 105.6 556.35 105.4 556.3 105.3 556.05 105.2 555.9 105.2 555.6
L 105.2 537.85
Q 105.2 537.55 105.3 537.35 105.4 537.15 105.6 537.05 105.8 536.95 106 536.9 106.25 536.85 106.55 536.85
M 120.5 547.15
Q 120.9 547.15 121.2 547.25 121.55 547.3 121.85 547.5 122.15 547.7 122.35 548 122.5 548.3 122.5 548.7
L 122.5 551.1
Q 122.5 551.55 122.35 551.85 122.15 552.15 121.85 552.35 121.55 552.55 121.2 552.65 120.9 552.75 120.5 552.75
L 118.6 552.75 118.6 553.85
Q 119.05 553.85 119.45 553.85 119.85 553.8 120.25 553.75 120.6 553.75 121 553.7 121.4 553.65 121.85 553.55 122.15 553.55 122.35 553.6 122.55 553.65 122.7 553.8 122.85 553.95 122.95 554.15 123.05 554.3 123.1 554.55 123.15 554.8 123.1 555.05 123.05 555.25 122.95 555.45 122.85 555.6 122.65 555.7 122.4 555.8 122.15 555.85
L 122.25 555.85
Q 121.75 555.9 121.35 555.95 121.1 555.95 120.85 556 120.65 556 120.4 556.05 120.2 556.05 119.95 556.05 119.75 556.1 119.5 556.1 119.25 556.1 119 556.1 118.7 556.1 118.35 556.15 118.15 556.15 118 556.15 117.8 556.1 117.65 556.1 117.45 556.1 117.3 556.05 117.1 556 117 555.95 116.85 555.9 116.7 555.8 116.6 555.7 116.55 555.6 116.4 555.3 116.4 554.9
L 116.4 551.9
Q 116.4 551.5 116.55 551.2 116.65 550.95 116.95 550.75 117.5 550.45 118.35 550.45
L 120.1 550.45 120.1 549.45 117.4 549.45
Q 117.1 549.45 116.9 549.4 116.7 549.3 116.6 549.15 116.5 549 116.4 548.8 116.35 548.65 116.35 548.35 116.35 548.1 116.4 547.9 116.5 547.65 116.6 547.45 116.7 547.3 116.9 547.2 117.1 547.15 117.4 547.15
L 120.5 547.15
M 126.95 547.15
Q 127.35 547.15 127.65 547.25 128 547.4 128.2 547.6 128.4 547.85 128.55 548.2 128.65 548.5 128.65 548.9
L 128.65 555.1
Q 128.65 555.35 128.55 555.55 128.4 555.7 128.25 555.85 128.05 556 127.8 556.05 127.55 556.15 127.3 556.15 127.1 556.15 126.85 556.05 126.65 556 126.45 555.85 126 555.6 126 555.1
L 126 549.55 124.4 549.55
Q 124.1 549.55 123.9 549.5 123.7 549.4 123.6 549.2 123.5 549.05 123.45 548.85 123.4 548.65 123.4 548.35 123.4 548.1 123.45 547.9 123.5 547.65 123.6 547.45 123.7 547.3 123.9 547.2 124.1 547.15 124.4 547.15
L 126.95 547.15 Z"/>

<path fill="#FFFFFF" stroke="none" d="
M 127.65 547.25
Q 127.35 547.15 126.95 547.15
L 124.4 547.15
Q 124.1 547.15 123.9 547.2 123.7 547.3 123.6 547.45 123.5 547.65 123.45 547.9 123.4 548.1 123.4 548.35 123.4 548.65 123.45 548.85 123.5 549.05 123.6 549.2 123.7 549.4 123.9 549.5 124.1 549.55 124.4 549.55
L 126 549.55 126 555.1
Q 126 555.6 126.45 555.85 126.65 556 126.85 556.05 127.1 556.15 127.3 556.15 127.55 556.15 127.8 556.05 128.05 556 128.25 555.85 128.4 555.7 128.55 555.55 128.65 555.35 128.65 555.1
L 128.65 548.9
Q 128.65 548.5 128.55 548.2 128.4 547.85 128.2 547.6 128 547.4 127.65 547.25
M 121.2 547.25
Q 120.9 547.15 120.5 547.15
L 117.4 547.15
Q 117.1 547.15 116.9 547.2 116.7 547.3 116.6 547.45 116.5 547.65 116.4 547.9 116.35 548.1 116.35 548.35 116.35 548.65 116.4 548.8 116.5 549 116.6 549.15 116.7 549.3 116.9 549.4 117.1 549.45 117.4 549.45
L 120.1 549.45 120.1 550.45 118.35 550.45
Q 117.5 550.45 116.95 550.75 116.65 550.95 116.55 551.2 116.4 551.5 116.4 551.9
L 116.4 554.9
Q 116.4 555.3 116.55 555.6 116.6 555.7 116.7 555.8 116.85 555.9 117 555.95 117.1 556 117.3 556.05 117.45 556.1 117.65 556.1 117.8 556.1 118 556.15 118.15 556.15 118.35 556.15 118.7 556.1 119 556.1 119.25 556.1 119.5 556.1 119.75 556.1 119.95 556.05 120.2 556.05 120.4 556.05 120.65 556 120.85 556 121.1 555.95 121.35 555.95 121.75 555.9 122.25 555.85
L 122.15 555.85
Q 122.4 555.8 122.65 555.7 122.85 555.6 122.95 555.45 123.05 555.25 123.1 555.05 123.15 554.8 123.1 554.55 123.05 554.3 122.95 554.15 122.85 553.95 122.7 553.8 122.55 553.65 122.35 553.6 122.15 553.55 121.85 553.55 121.4 553.65 121 553.7 120.6 553.75 120.25 553.75 119.85 553.8 119.45 553.85 119.05 553.85 118.6 553.85
L 118.6 552.75 120.5 552.75
Q 120.9 552.75 121.2 552.65 121.55 552.55 121.85 552.35 122.15 552.15 122.35 551.85 122.5 551.55 122.5 551.1
L 122.5 548.7
Q 122.5 548.3 122.35 548 122.15 547.7 121.85 547.5 121.55 547.3 121.2 547.25
M 107.4 537.05
Q 106.95 536.85 106.55 536.85 106.25 536.85 106 536.9 105.8 536.95 105.6 537.05 105.4 537.15 105.3 537.35 105.2 537.55 105.2 537.85
L 105.2 555.6
Q 105.2 555.9 105.3 556.05 105.4 556.3 105.6 556.35 105.8 556.45 106 556.5 106.25 556.55 106.55 556.55 106.95 556.55 107.4 556.35 107.6 556.3 107.75 556.05 107.85 555.9 107.85 555.6
L 107.85 546.4 109.6 546.4
Q 109.95 546.4 110.15 546.3 110.4 546.2 110.5 546 110.6 545.8 110.65 545.55 110.75 545.35 110.75 545.1 110.75 544.85 110.65 544.65 110.6 544.4 110.5 544.2 110.4 544.05 110.15 543.95 109.95 543.85 109.6 543.85
L 107.85 543.85 107.85 537.85
Q 107.85 537.55 107.75 537.35 107.6 537.15 107.4 537.05
M 99.1 538.65
Q 98.9 538.75 98.8 538.95 98.6 539.1 98.55 539.35 98.5 539.55 98.5 539.85 98.5 540.1 98.55 540.3 98.6 540.5 98.8 540.7 98.9 540.9 99.1 540.95 99.3 541.05 99.6 541.05
L 100.65 541.05
Q 100.6 541.65 100.55 542.2 100.5 542.8 100.4 543.35 100.35 543.9 100.2 544.45 100.1 545 99.95 545.5 99.85 546.05 99.65 546.55 99.5 547.05 99.3 547.5 99.05 547.95 98.8 548.4 98.5 548.8 98.2 549.2 98.05 549.45 98 549.65 97.95 549.9 98.05 550.1 98.15 550.35 98.25 550.5 98.4 550.7 98.55 550.8 98.8 550.95 99 551 99.25 551.1 99.45 551.1 99.7 551.15 99.85 551.1 100.05 551 100.15 550.85 100.6 550.35 100.95 549.8 101.35 549.3 101.65 548.7 102 548.1 102.2 547.5 102.45 546.9 102.6 546.25 102.85 545.55 103 544.9 103.15 544.2 103.25 543.5 103.35 542.8 103.4 542.05 103.45 541.35 103.45 540.6 103.45 540.4 103.45 540.2 103.4 539.95 103.4 539.8 103.4 539.6 103.35 539.45 103.3 539.3 103.2 539.15 103.05 539 102.9 538.9 102.75 538.8 102.55 538.7 102.4 538.65 102.1 538.6 101.85 538.55 101.55 538.55
L 99.6 538.55
Q 99.3 538.55 99.1 538.65
M 93.95 541.05
L 95.5 541.05
Q 95.45 541.55 95.4 542 95.35 542.5 95.25 542.95 95.2 543.45 95.1 543.9 95 544.35 94.85 544.75 94.75 545.2 94.6 545.6 94.45 546 94.3 546.4 94.1 546.75 93.85 547.1 93.6 547.4 93.3 547.7 93.1 547.9 93.05 548.1 92.95 548.3 92.95 548.55 92.95 548.75 93.05 548.95 93.15 549.15 93.3 549.3
L 93.25 549.3
Q 93.45 549.5 93.7 549.65 93.9 549.75 94.1 549.75 94.35 549.8 94.5 549.75 94.65 549.7 94.75 549.65 95.25 549.3 95.6 548.9 96 548.45 96.35 547.9 96.7 547.35 96.95 546.75 97.2 546.15 97.35 545.5 97.55 544.9 97.7 544.25 97.85 543.6 97.95 542.95 98.05 542.3 98.1 541.75 98.15 541.15 98.15 540.6 98.15 540.4 98.1 540.15 98.1 539.95 98.1 539.75 98.05 539.4 97.85 539.15 97.7 539 97.55 538.9 97.35 538.8 97.2 538.7 97 538.65 96.75 538.6 96.45 538.55 96.15 538.55
L 93.95 538.55
Q 93.7 538.55 93.5 538.65 93.35 538.75 93.2 538.95 93.1 539.1 93 539.35 92.95 539.55 92.95 539.8 92.95 540.05 93 540.25 93.1 540.5 93.2 540.65 93.35 540.85 93.5 540.95 93.7 541.05 93.95 541.05
M 123.35 537.85
Q 123.25 537.75 123.05 537.7 122.85 537.65 122.55 537.65
L 117.4 537.65
Q 117 537.65 116.65 537.65 116.35 537.65 116.1 537.7 115.85 537.7 115.6 537.8 115.4 537.85 115.25 537.95 115 538.1 114.9 538.3 114.75 538.45 114.7 538.7 114.65 538.95 114.6 539.25 114.55 539.55 114.55 539.95
L 114.55 543.75
Q 114.55 544.55 114.7 545 114.75 545.25 114.9 545.4 115 545.55 115.25 545.65 115.4 545.8 115.6 545.85 115.85 545.9 116.1 545.95 116.35 545.95 116.65 545.95 117 546 117.4 546 118.25 545.95 119.05 545.9 119.85 545.85 120.65 545.75 121.45 545.7 122.25 545.6 123.05 545.5 123.85 545.35 124.5 545.3 124.75 544.95 124.85 544.75 124.85 544.5 124.85 544.25 124.75 543.9 124.7 543.7 124.65 543.55 124.65 543.4 124.6 543.3 124.5 543.2 124.5 543.15 124.4 543.05 124.4 543 124.3 543 124.2 542.95 124.15 542.95 124 542.95 123.9 542.95 123.75 542.95 123.65 542.95 123.55 542.95 122.8 543.1 122.05 543.15 121.3 543.25 120.5 543.3 119.7 543.4 118.9 543.4 118.15 543.45 117.4 543.45 117.4 543.3 117.4 543
L 117.4 540.1 122.55 540.1
Q 122.85 540.1 123.05 540.05 123.25 540 123.35 539.85 123.45 539.7 123.5 539.45 123.55 539.2 123.55 538.9 123.55 538.5 123.5 538.2 123.45 537.95 123.35 537.85
M 128.65 537.75
Q 128.65 537.15 128.25 536.95 128.05 536.85 127.8 536.8 127.55 536.75 127.3 536.75 127.15 536.75 127 536.75 126.9 536.8 126.75 536.8 126.65 536.85 126.5 536.85 126.4 536.9 126.3 536.95 126.2 537 126.1 537.1 126.05 537.15 126 537.25 125.9 537.35 125.9 537.5 125.85 537.6 125.85 537.75
L 125.85 545.35
Q 125.85 545.5 125.9 545.6 125.9 545.7 126 545.8 126.05 545.9 126.1 546 126.2 546.1 126.3 546.15 126.4 546.2 126.5 546.25 126.65 546.3 126.75 546.3 126.9 546.3 127 546.35 127.15 546.35 127.3 546.35 127.55 546.35 127.8 546.3 128.05 546.25 128.25 546.15 128.45 546.05 128.55 545.85 128.65 545.65 128.65 545.35
L 128.65 542.9 130.55 542.9
Q 131.2 542.9 131.35 542.5 131.4 542.3 131.45 542.1 131.45 541.9 131.45 541.65 131.45 541.15 131.35 540.75 131.25 540.6 131.05 540.5 130.85 540.4 130.55 540.4
L 128.65 540.4 128.65 537.75 Z"/>

<path fill="#1E1E1E" stroke="none" d="
M 739.55 379.05
Q 740.8 379.05 741.7 378.15 742.55 377.25 742.55 375.95 742.55 374.65 741.7 373.8 740.8 372.9 739.55 372.9 738.25 372.9 737.35 373.8 736.45 374.65 736.45 375.95 736.45 377.25 737.35 378.15 738.25 379.05 739.55 379.05
M 764.8 346.15
L 747.8 346.15
Q 747.1 346.15 747.1 346.8
L 747.1 349.6
Q 747.1 349.95 747.3 350.1 747.5 350.3 747.8 350.3
L 760.55 350.3 750.1 375.85
Q 749.95 376.3 750.1 376.4 750.25 376.55 750.85 376.55
L 754.1 376.55
Q 754.5 376.55 754.65 376.45 754.8 376.3 755 376
L 765.55 349.95
Q 765.8 349.65 765.8 349.3
L 765.8 346.9
Q 765.8 346.45 765.65 346.3 765.5 346.15 764.8 346.15
M 779.1 345.8
Q 777.25 345.8 775.25 346.45 773.3 347.1 771.8 347.9 771.4 348.1 771.25 348.35 771.15 348.5 771.25 348.7
L 771.8 351.75
Q 771.9 352.1 772.2 352.15 772.5 352.15 772.85 351.95 774.65 350.9 776.15 350.45 777.7 350 779.35 350 781.1 350 782.25 351.25 783.45 352.5 783.45 354.4 783.45 356.1 781.85 358.7 780.25 361.35 776.9 365.3
L 770.8 372.55
Q 770.6 372.85 770.4 373.15 770.25 373.5 770.25 373.8
L 770.25 376.1
Q 770.25 376.6 771 376.6
L 788.05 376.6
Q 788.6 376.6 788.6 375.9
L 788.6 373.1
Q 788.6 372.5 788.05 372.5
L 776.3 372.5
Q 777.3 371.35 778.3 370.2 779.3 369 780.15 367.9 781.25 366.6 782.65 365 784 363.35 785.2 361.6 786.4 359.8 787.2 357.95 788 356.1 788 354.3 788 352.2 787.3 350.6 786.6 349 785.45 347.95 784.3 346.9 782.65 346.35 781.05 345.8 779.1 345.8
M 724.45 346.25
Q 722.7 345.8 720.9 345.8 719.2 345.8 717.55 346.15 715.85 346.55 714.1 347.15 713.7 347.35 713.55 347.55 713.4 347.7 713.5 347.95
L 713.85 350.9
Q 713.95 351.25 714.15 351.35 714.35 351.45 714.85 351.25 715.45 351 716.25 350.75 717.05 350.5 717.85 350.35 718.65 350.15 719.4 350.05 720.1 349.95 720.65 349.95 721.5 349.95 722.45 350.15 723.4 350.35 724.25 350.85 725.05 351.3 725.6 352.1 726.1 352.85 726.1 353.85 726.1 355.2 725.3 356.1 724.5 357.05 723.3 357.65 722.15 358.25 720.9 358.5 719.65 358.75 718.8 358.75
L 716.9 358.75
Q 716.55 358.75 716.45 358.85 716.35 358.9 716.35 359.3
L 716.35 362.25
Q 716.35 362.55 716.45 362.65 716.55 362.75 716.9 362.75
L 718.85 362.75
Q 720.8 362.75 722.15 363.15 723.55 363.5 724.45 364.2 725.3 364.85 725.75 365.7 726.15 366.55 726.15 367.5 726.15 370.15 724.2 371.5 723.55 371.95 722.8 372.2 722 372.5 721.15 372.6 720.3 372.7 719.4 372.65 718.5 372.6 717.7 372.55 716.6 372.45 715.55 372.15 714.5 371.85 713.45 371.55 712.9 371.3 712.7 371.45 712.5 371.55 712.45 371.9
L 712.1 374.95
Q 712.05 375.3 712.25 375.45 712.4 375.65 712.8 375.75 714.25 376.3 716 376.6 717.75 376.9 719.5 376.9 721.8 376.9 723.95 376.3 726.1 375.75 727.6 374.5 729.1 373.25 729.95 371.5 730.75 369.7 730.75 367.6 730.75 365.4 729.4 363.6 728.05 361.85 725.4 360.7 726.5 360.2 727.45 359.45 728.4 358.7 729.1 357.7 729.8 356.75 730.2 355.7 730.55 354.6 730.55 353.5 730.55 351.5 729.7 350 728.85 348.5 727.5 347.6 726.2 346.7 724.45 346.25
M 586.3 346.3
Q 584.6 345.8 582.6 345.8 580.65 345.8 578.95 346.35 577.25 346.9 576 347.9 574.75 348.9 574 350.3 573.25 351.7 573.25 353.4 573.25 355.7 574.65 357.5 576.05 359.3 578.45 360.7 577.25 361.3 576.15 362 575.05 362.7 574.25 363.6 573.45 364.5 572.9 365.65 572.45 366.8 572.45 368.3 572.45 370.45 573.35 372.05 574.25 373.7 575.7 374.75 577.15 375.8 578.95 376.35 580.8 376.9 582.6 376.9 584.55 376.9 586.35 376.35 588.25 375.8 589.65 374.75 591.05 373.7 591.9 372.05 592.8 370.45 592.8 368.3 592.8 366.9 592.35 365.9 591.95 364.85 591.15 363.95 590.35 363.05 589.25 362.25 588.1 361.5 586.7 360.65 589.3 358.85 590.55 357.1 591.8 355.3 591.8 353.3 591.8 351.55 591.1 350.15 590.4 348.75 589.2 347.8 588 346.85 586.3 346.3
M 587.75 366.7
Q 588.25 367.55 588.25 368.3 588.25 369.35 587.75 370.2 587.25 371.05 586.45 371.65 585.65 372.25 584.65 372.55 583.6 372.85 582.6 372.85 581.65 372.85 580.6 372.55 579.6 372.2 578.75 371.6 577.95 371 577.45 370.15 576.9 369.3 576.9 368.3 576.9 367.05 577.5 366.15 578.1 365.25 578.95 364.6 579.8 363.95 580.85 363.55 581.8 363.1 582.6 362.9 583.6 363.25 584.6 363.85 585.6 364.45 586.45 365.15 587.25 365.9 587.75 366.7
M 582.6 349.7
Q 583.55 349.7 584.4 350.05 585.25 350.3 585.9 350.85 586.55 351.4 586.9 352.1 587.3 352.8 587.3 353.6 587.3 354.3 586.8 355.1 586.3 355.9 585.55 356.65 584.8 357.35 584 357.9 583.25 358.45 582.6 358.7 582.1 358.5 581.3 358 580.5 357.55 579.7 356.85 578.95 356.15 578.4 355.35 577.8 354.55 577.8 353.7 577.8 352.75 578.25 352 578.7 351.3 579.4 350.8 580.05 350.3 580.9 350 581.75 349.7 582.6 349.7
M 549.45 349.6
Q 549.45 349.95 549.65 350.1 549.85 350.3 550.15 350.3
L 562.9 350.3 552.45 375.85
Q 552.3 376.3 552.45 376.4 552.6 376.55 553.2 376.55
L 556.45 376.55
Q 556.85 376.55 557 376.45 557.15 376.3 557.35 376
L 567.9 349.95
Q 568.15 349.65 568.15 349.3
L 568.15 346.9
Q 568.15 346.45 568 346.3 567.85 346.15 567.15 346.15
L 550.15 346.15
Q 549.45 346.15 549.45 346.8
L 549.45 349.6
M 518.45 379.05
Q 519.7 379.05 520.6 378.15 521.45 377.25 521.45 375.95 521.45 374.65 520.6 373.8 519.7 372.9 518.45 372.9 517.15 372.9 516.25 373.8 515.35 374.65 515.35 375.95 515.35 377.25 516.25 378.15 517.15 379.05 518.45 379.05
M 534.55 345.8
Q 532.7 345.8 530.7 346.45 528.75 347.1 527.25 347.9 526.85 348.1 526.7 348.35 526.6 348.5 526.7 348.7
L 527.25 351.75
Q 527.35 352.1 527.65 352.15 527.95 352.15 528.3 351.95 530.1 350.9 531.6 350.45 533.15 350 534.8 350 536.55 350 537.7 351.25 538.9 352.5 538.9 354.4 538.9 356.1 537.3 358.7 535.7 361.35 532.35 365.3
L 526.25 372.55
Q 526.05 372.85 525.85 373.15 525.7 373.5 525.7 373.8
L 525.7 376.1
Q 525.7 376.6 526.45 376.6
L 543.5 376.6
Q 544.05 376.6 544.05 375.9
L 544.05 373.1
Q 544.05 372.5 543.5 372.5
L 531.75 372.5
Q 532.75 371.35 533.75 370.2 534.75 369 535.6 367.9 536.7 366.6 538.1 365 539.45 363.35 540.65 361.6 541.85 359.8 542.65 357.95 543.45 356.1 543.45 354.3 543.45 352.2 542.75 350.6 542.05 349 540.9 347.95 539.75 346.9 538.1 346.35 536.5 345.8 534.55 345.8
M 503.35 346.25
Q 501.6 345.8 499.8 345.8 498.1 345.8 496.45 346.15 494.75 346.55 493 347.15 492.6 347.35 492.45 347.55 492.3 347.7 492.4 347.95
L 492.75 350.9
Q 492.85 351.25 493.05 351.35 493.25 351.45 493.75 351.25 494.35 351 495.15 350.75 495.95 350.5 496.75 350.35 497.55 350.15 498.3 350.05 499 349.95 499.55 349.95 500.4 349.95 501.35 350.15 502.3 350.35 503.15 350.85 503.95 351.3 504.5 352.1 505 352.85 505 353.85 505 355.2 504.2 356.1 503.4 357.05 502.2 357.65 501.05 358.25 499.8 358.5 498.55 358.75 497.7 358.75
L 495.8 358.75
Q 495.45 358.75 495.35 358.85 495.25 358.9 495.25 359.3
L 495.25 362.25
Q 495.25 362.55 495.35 362.65 495.45 362.75 495.8 362.75
L 497.75 362.75
Q 499.7 362.75 501.05 363.15 502.45 363.5 503.35 364.2 504.2 364.85 504.65 365.7 505.05 366.55 505.05 367.5 505.05 370.15 503.1 371.5 502.45 371.95 501.7 372.2 500.9 372.5 500.05 372.6 499.2 372.7 498.3 372.65 497.4 372.6 496.6 372.55 495.5 372.45 494.45 372.15 493.4 371.85 492.35 371.55 491.8 371.3 491.6 371.45 491.4 371.55 491.35 371.9
L 491 374.95
Q 490.95 375.3 491.15 375.45 491.3 375.65 491.7 375.75 493.15 376.3 494.9 376.6 496.65 376.9 498.4 376.9 500.7 376.9 502.85 376.3 505 375.75 506.5 374.5 508 373.25 508.85 371.5 509.65 369.7 509.65 367.6 509.65 365.4 508.3 363.6 506.95 361.85 504.3 360.7 505.4 360.2 506.35 359.45 507.3 358.7 508 357.7 508.7 356.75 509.1 355.7 509.45 354.6 509.45 353.5 509.45 351.5 508.6 350 507.75 348.5 506.4 347.6 505.1 346.7 503.35 346.25 Z"/>
</g>

<path id="Layer0_0_1_STROKES" stroke="#CCCCCC" stroke-width="3" stroke-linejoin="round" stroke-linecap="round" fill="none" d="
M 152.5 631.6
L 1191.45 631.6
M 152.5 571.6
L 1191.45 571.6"/>

<path id="Layer0_0_2_STROKES" stroke="#BBDECB" stroke-width="5" stroke-linejoin="round" stroke-linecap="round" fill="none" d="
M 431.05 286
L 849 286
Q 864 286 864 301
L 864 421
Q 864 436 849 436
L 431.05 436
Q 416.05 436 416.05 421
L 416.05 301
Q 416.05 286 431.05 286 Z"/>
</defs>

<g transform="matrix( 1, 0, 0, 1, 0,0) ">
<use xlink:href="#Layer0_0_FILL"/>

<use xlink:href="#Layer0_0_1_STROKES"/>

<use xlink:href="#Layer0_0_2_STROKES"/>
</g>
</svg>
