
<svg xmlns="http://www.w3.org/2000/svg" version="1.1" xmlns:xlink="http://www.w3.org/1999/xlink" preserveAspectRatio="none" x="0px" y="0px" width="1280px" height="680px" viewBox="0 0 1280 680">
<defs>
<g id="Layer0_0_FILL">
<path fill="#4BAEF3" stroke="none" d="
M 376.75 123.45
L 376.75 143.45
Q 376.75 153.95 387.25 153.95
L 411.05 153.95
Q 421.55 153.95 421.55 143.45
L 421.55 123.45
Q 421.55 112.95 411.05 112.95
L 387.25 112.95
Q 376.75 112.95 376.75 123.45
M 404.35 123.45
Q 404.45 123.25 404.65 123.1 404.8 123 405.05 122.95 405.25 122.85 405.5 122.85 405.8 122.85 406.1 122.95 406.35 123 406.55 123.1 406.75 123.25 406.85 123.45 406.95 123.65 406.95 123.95
L 406.95 141.95
Q 406.95 142.55 406.55 142.8 406.35 142.9 406.1 142.95 405.8 143 405.5 143 405.25 143 405.05 142.95 404.8 142.9 404.65 142.8 404.25 142.55 404.25 141.95
L 404.25 123.95
Q 404.25 123.65 404.35 123.45
M 402.55 123.35
Q 402.85 123.4 403.05 123.5 403.45 123.7 403.45 124.35
L 403.45 141.35
Q 403.45 141.6 403.35 141.85 403.25 142.05 403.05 142.2 402.85 142.3 402.55 142.4 402.3 142.45 402 142.45 401.75 142.45 401.55 142.4 401.3 142.3 401.1 142.2 400.9 142.05 400.8 141.85 400.7 141.6 400.7 141.35
L 400.7 134.8 398.55 134.8
Q 398.4 135.1 398.25 135.4 398.1 135.65 397.95 135.9 397.3 136.75 396.45 137.2 395.6 137.7 394.5 137.7 394 137.7 393.55 137.55 393.05 137.45 392.6 137.2 392.2 137 391.85 136.65 391.5 136.35 391.2 135.9 390.9 135.45 390.65 134.95 390.4 134.45 390.25 133.8 390.05 133.2 390 132.5 389.9 131.8 389.9 131 389.9 130.2 390 129.5 390.05 128.8 390.25 128.15 390.4 127.55 390.65 127.05 390.9 126.55 391.2 126.1 391.5 125.7 391.85 125.35 392.2 125 392.6 124.75 393.05 124.55 393.55 124.4 394 124.3 394.5 124.3 395.6 124.3 396.45 124.75 396.85 125 397.25 125.35 397.65 125.7 397.95 126.1 398.1 126.3 398.2 126.55 398.35 126.8 398.45 127.05
L 400.7 127.05 400.7 124.35
Q 400.7 123.7 401.1 123.5 401.3 123.4 401.55 123.35 401.75 123.25 402 123.25 402.3 123.25 402.55 123.35
M 399.15 131
Q 399.15 131.3 399.15 131.6 399.15 131.9 399.1 132.2
L 400.7 132.2 400.7 129.6 399.1 129.6
Q 399.1 129.95 399.15 130.3 399.15 130.65 399.15 131
M 395.95 127.95
Q 395.65 127.45 395.3 127.15 394.95 126.9 394.55 126.9 394.1 126.9 393.7 127.15 393.35 127.45 393.1 127.95 392.6 129.05 392.6 131 392.6 131.95 392.7 132.7 392.85 133.45 393.1 134 393.35 134.55 393.7 134.8 394.1 135.1 394.55 135.1 394.95 135.1 395.3 134.8 395.65 134.55 395.95 134 396.2 133.45 396.3 132.7 396.45 131.95 396.45 131 396.45 130.05 396.3 129.25 396.2 128.5 395.95 127.95 Z"/>

<path fill="#FFFFFF" stroke="none" d="
M 403.05 123.5
Q 402.85 123.4 402.55 123.35 402.3 123.25 402 123.25 401.75 123.25 401.55 123.35 401.3 123.4 401.1 123.5 400.7 123.7 400.7 124.35
L 400.7 127.05 398.45 127.05
Q 398.35 126.8 398.2 126.55 398.1 126.3 397.95 126.1 397.65 125.7 397.25 125.35 396.85 125 396.45 124.75 395.6 124.3 394.5 124.3 394 124.3 393.55 124.4 393.05 124.55 392.6 124.75 392.2 125 391.85 125.35 391.5 125.7 391.2 126.1 390.9 126.55 390.65 127.05 390.4 127.55 390.25 128.15 390.05 128.8 390 129.5 389.9 130.2 389.9 131 389.9 131.8 390 132.5 390.05 133.2 390.25 133.8 390.4 134.45 390.65 134.95 390.9 135.45 391.2 135.9 391.5 136.35 391.85 136.65 392.2 137 392.6 137.2 393.05 137.45 393.55 137.55 394 137.7 394.5 137.7 395.6 137.7 396.45 137.2 397.3 136.75 397.95 135.9 398.1 135.65 398.25 135.4 398.4 135.1 398.55 134.8
L 400.7 134.8 400.7 141.35
Q 400.7 141.6 400.8 141.85 400.9 142.05 401.1 142.2 401.3 142.3 401.55 142.4 401.75 142.45 402 142.45 402.3 142.45 402.55 142.4 402.85 142.3 403.05 142.2 403.25 142.05 403.35 141.85 403.45 141.6 403.45 141.35
L 403.45 124.35
Q 403.45 123.7 403.05 123.5
M 395.3 127.15
Q 395.65 127.45 395.95 127.95 396.2 128.5 396.3 129.25 396.45 130.05 396.45 131 396.45 131.95 396.3 132.7 396.2 133.45 395.95 134 395.65 134.55 395.3 134.8 394.95 135.1 394.55 135.1 394.1 135.1 393.7 134.8 393.35 134.55 393.1 134 392.85 133.45 392.7 132.7 392.6 131.95 392.6 131 392.6 129.05 393.1 127.95 393.35 127.45 393.7 127.15 394.1 126.9 394.55 126.9 394.95 126.9 395.3 127.15
M 399.15 131.6
Q 399.15 131.3 399.15 131 399.15 130.65 399.15 130.3 399.1 129.95 399.1 129.6
L 400.7 129.6 400.7 132.2 399.1 132.2
Q 399.15 131.9 399.15 131.6
M 404.65 123.1
Q 404.45 123.25 404.35 123.45 404.25 123.65 404.25 123.95
L 404.25 141.95
Q 404.25 142.55 404.65 142.8 404.8 142.9 405.05 142.95 405.25 143 405.5 143 405.8 143 406.1 142.95 406.35 142.9 406.55 142.8 406.95 142.55 406.95 141.95
L 406.95 123.95
Q 406.95 123.65 406.85 123.45 406.75 123.25 406.55 123.1 406.35 123 406.1 122.95 405.8 122.85 405.5 122.85 405.25 122.85 405.05 122.95 404.8 123 404.65 123.1 Z"/>
</g>

<g id="__________fdbfdbdndnm_____13_4_Layer0_0_FILL">
<path fill="#0FB87E" stroke="none" d="
M 34.45 29.9
L 0.05 -29.9 -34.5 29.9 34.45 29.9 Z"/>
</g>

<g id="__________fdbfdbdndnm_____13_3_Layer0_0_FILL">
<path fill="#06A5EC" stroke="none" d="
M -17 -30
L -52 30 16.95 30 51.95 -30 -17 -30 Z"/>
</g>

<g id="__________fdbfdbdndnm_____13_2_Layer0_0_FILL">
<path fill="#EC2524" stroke="none" d="
M -34.5 -30
L -69.5 30 69.45 30 34.45 -30 -34.5 -30 Z"/>
</g>

<g id="__________fdbfdbdndnm_____13_1_Layer0_0_FILL">
<path fill="#FC6637" stroke="none" d="
M -34.45 -34.45
L -34.45 34.5 34.45 34.5 34.45 -34.45 -34.45 -34.45 Z"/>
</g>

<g id="__________fdbfdbdndnm_____13_0_Layer0_0_FILL">
<path fill="#FFDB1E" stroke="none" d="
M -70.2 0
L -34.85 60.6 34.8 60.6 70.15 0 34.8 -60.6 -34.85 -60.6 -70.2 0 Z"/>
</g>

<path id="Layer0_0_1_STROKES" stroke="#332D2B" stroke-width="2" stroke-linejoin="round" stroke-linecap="butt" fill="none" d="
M 944.6 540.5
L 819.75 322.5 711.85 322.5 829.75 117.5 704.85 117.5 640 10 575.1 117.5 450.25 117.5 568.1 322.5 460.25 322.5 335.35 540.5 457.25 540.5 457.25 657.35 822.75 657.35 822.75 540.5 944.6 540.5 Z"/>

<path id="__________fdbfdbdndnm_____13_4_Layer1_0_1_STROKES" stroke="#04A16B" stroke-width="3" stroke-linejoin="round" stroke-linecap="round" fill="none" d="
M 0.05 -29.9
L 34.45 29.9 -34.5 29.9 0.05 -29.9 Z"/>

<path id="__________fdbfdbdndnm_____13_3_Layer1_0_1_STROKES" stroke="#098CC6" stroke-width="3" stroke-linejoin="round" stroke-linecap="round" fill="none" d="
M -17 -30
L 51.95 -30 16.95 30 -52 30 -17 -30 Z"/>

<path id="__________fdbfdbdndnm_____13_2_Layer1_0_1_STROKES" stroke="#C41D1C" stroke-width="3" stroke-linejoin="round" stroke-linecap="round" fill="none" d="
M -34.5 -30
L 34.45 -30 69.45 30 -69.5 30 -34.5 -30 Z"/>

<path id="__________fdbfdbdndnm_____13_1_Layer1_0_1_STROKES" stroke="#E04F23" stroke-width="3" stroke-linejoin="round" stroke-linecap="round" fill="none" d="
M -34.45 -34.45
L 34.45 -34.45 34.45 34.5 -34.45 34.5 -34.45 -34.45 Z"/>

<path id="__________fdbfdbdndnm_____13_0_Layer1_0_1_STROKES" stroke="#DBBB0E" stroke-width="3" stroke-linejoin="round" stroke-linecap="round" fill="none" d="
M -34.84428405761719 -60.5987548828125
L 34.793785095214844 -60.5987548828125 70.14305877685547 0 34.793785095214844 60.5987548828125 -34.84428405761719 60.5987548828125 -70.19355773925781 0 -34.84428405761719 -60.5987548828125 Z"/>
</defs>

<g transform="matrix( 1, 0, 0, 1, 0,0) ">
<use xlink:href="#Layer0_0_FILL"/>

<use xlink:href="#Layer0_0_1_STROKES"/>
</g>

<g transform="matrix( 1.64996337890625, 0, 0, -1.64996337890625, 639.95,175.8) ">
<g transform="matrix( 1, 0, 0, 1, 0,0) ">
<use xlink:href="#__________fdbfdbdndnm_____13_4_Layer1_0_1_STROKES"/>
</g>

<g transform="matrix( 1, 0, 0, 1, 0,0) ">
<use xlink:href="#__________fdbfdbdndnm_____13_4_Layer0_0_FILL"/>
</g>
</g>

<g transform="matrix( -1.64996337890625, 0, 0, -1.64996337890625, 727.95,176.65) ">
<g transform="matrix( 1, 0, 0, 1, 0,0) ">
<use xlink:href="#__________fdbfdbdndnm_____13_3_Layer1_0_1_STROKES"/>
</g>

<g transform="matrix( 1, 0, 0, 1, 0,0) ">
<use xlink:href="#__________fdbfdbdndnm_____13_3_Layer0_0_FILL"/>
</g>
</g>

<g transform="matrix( 1.64996337890625, 0, 0, -1.64996337890625, 552.65,176.65) ">
<g transform="matrix( 1, 0, 0, 1, 0,0) ">
<use xlink:href="#__________fdbfdbdndnm_____13_3_Layer1_0_1_STROKES"/>
</g>

<g transform="matrix( 1, 0, 0, 1, 0,0) ">
<use xlink:href="#__________fdbfdbdndnm_____13_3_Layer0_0_FILL"/>
</g>
</g>

<g transform="matrix( -1.64996337890625, 0, 0, -1.64996337890625, 639.95,278.65) ">
<g transform="matrix( 1, 0, 0, 1, 0,0) ">
<use xlink:href="#__________fdbfdbdndnm_____13_2_Layer1_0_1_STROKES"/>
</g>

<g transform="matrix( 1, 0, 0, 1, 0,0) ">
<use xlink:href="#__________fdbfdbdndnm_____13_2_Layer0_0_FILL"/>
</g>
</g>

<g transform="matrix( 1.64996337890625, 0, 0, 1.64996337890625, 493.85,381.15) ">
<g transform="matrix( 1, 0, 0, 1, 0,0) ">
<use xlink:href="#__________fdbfdbdndnm_____13_3_Layer1_0_1_STROKES"/>
</g>

<g transform="matrix( 1, 0, 0, 1, 0,0) ">
<use xlink:href="#__________fdbfdbdndnm_____13_3_Layer0_0_FILL"/>
</g>
</g>

<g transform="matrix( 1.64996337890625, 0, 0, 1.64996337890625, 640,590.7) ">
<g transform="matrix( 1, 0, 0, 1, 0,0) ">
<use xlink:href="#__________fdbfdbdndnm_____13_1_Layer1_0_1_STROKES"/>
</g>

<g transform="matrix( 1, 0, 0, 1, 0,0) ">
<use xlink:href="#__________fdbfdbdndnm_____13_1_Layer0_0_FILL"/>
</g>
</g>

<g transform="matrix( 1.64996337890625, 0, 0, 1.64996337890625, 524,590.7) ">
<g transform="matrix( 1, 0, 0, 1, 0,0) ">
<use xlink:href="#__________fdbfdbdndnm_____13_1_Layer1_0_1_STROKES"/>
</g>

<g transform="matrix( 1, 0, 0, 1, 0,0) ">
<use xlink:href="#__________fdbfdbdndnm_____13_1_Layer0_0_FILL"/>
</g>
</g>

<g transform="matrix( 1.64996337890625, 0, 0, 1.64996337890625, 756,590.7) ">
<g transform="matrix( 1, 0, 0, 1, 0,0) ">
<use xlink:href="#__________fdbfdbdndnm_____13_1_Layer1_0_1_STROKES"/>
</g>

<g transform="matrix( 1, 0, 0, 1, 0,0) ">
<use xlink:href="#__________fdbfdbdndnm_____13_1_Layer0_0_FILL"/>
</g>
</g>

<g transform="matrix( 1.64996337890625, 0, 0, 1.64996337890625, 464.85,482.2) ">
<g transform="matrix( 1, 0, 0, 1, 0,0) ">
<use xlink:href="#__________fdbfdbdndnm_____13_2_Layer1_0_1_STROKES"/>
</g>

<g transform="matrix( 1, 0, 0, 1, 0,0) ">
<use xlink:href="#__________fdbfdbdndnm_____13_2_Layer0_0_FILL"/>
</g>
</g>

<g transform="matrix( -1.64996337890625, 0, 0, 1.64996337890625, 785.7,381.15) ">
<g transform="matrix( 1, 0, 0, 1, 0,0) ">
<use xlink:href="#__________fdbfdbdndnm_____13_3_Layer1_0_1_STROKES"/>
</g>

<g transform="matrix( 1, 0, 0, 1, 0,0) ">
<use xlink:href="#__________fdbfdbdndnm_____13_3_Layer0_0_FILL"/>
</g>
</g>

<g transform="matrix( 1.64996337890625, 0, 0, 1.64996337890625, 640,431.7) ">
<g transform="matrix( 1.009979248046875, 0, 0, 1.009979248046875, 0,0) ">
<use xlink:href="#__________fdbfdbdndnm_____13_0_Layer1_0_1_STROKES" transform="matrix( 0.9901123046875, 0, 0, 0.9901123046875, 0,0) "/>
</g>

<g transform="matrix( 1, 0, 0, 1, 0,0) ">
<use xlink:href="#__________fdbfdbdndnm_____13_0_Layer0_0_FILL"/>
</g>
</g>

<g transform="matrix( 1.64996337890625, 0, 0, 1.64996337890625, 814.95,482.2) ">
<g transform="matrix( 1, 0, 0, 1, 0,0) ">
<use xlink:href="#__________fdbfdbdndnm_____13_2_Layer1_0_1_STROKES"/>
</g>

<g transform="matrix( 1, 0, 0, 1, 0,0) ">
<use xlink:href="#__________fdbfdbdndnm_____13_2_Layer0_0_FILL"/>
</g>
</g>

<g transform="matrix( -1.64996337890625, 0, 0, 1.64996337890625, 639.95,75.8) ">
<g transform="matrix( 1, 0, 0, 1, 0,0) ">
<use xlink:href="#__________fdbfdbdndnm_____13_4_Layer1_0_1_STROKES"/>
</g>

<g transform="matrix( 1, 0, 0, 1, 0,0) ">
<use xlink:href="#__________fdbfdbdndnm_____13_4_Layer0_0_FILL"/>
</g>
</g>
</svg>
