
<svg xmlns="http://www.w3.org/2000/svg" version="1.1" xmlns:xlink="http://www.w3.org/1999/xlink" preserveAspectRatio="none" x="0px" y="0px" width="1280px" height="720px" viewBox="0 0 1280 720">
<defs>
<g id="Layer0_0_FILL">
<path fill="#E2F3F2" stroke="none" d="
M 860 535.2
L 860 455.2 777 455.2 636.95 455.2 636.95 475.2 636.95 515.2
Q 636.95 519.15 637.75 522.35 640.9 535.2 656.95 535.2
L 777 535.2 860 535.2
M 860 375.1
L 656.95 375.1
Q 644.3 375.1 639.65 383.1 636.95 387.75 636.95 395.1
L 636.95 415.15 636.95 455.2 777 455.2 860 455.2 860 375.1 Z"/>

<path fill="#FFFFFF" stroke="none" d="
M 860 535.2
L 967 535.2 1107.1 535.2
Q 1123.1 535.2 1126.35 522.35 1127.1 519.35 1127.1 515.2
L 1127.1 475.2 1127.1 455.2 860 455.2 860 535.2
M 1127.1 395.1
Q 1127.1 375.1 1107.1 375.1
L 967 375.1 931.25 375.1 860 375.1 860 455.2 1127.1 455.2 1127.1 395.1 Z"/>
</g>

<g id="Layer0_1_FILL">
<path fill="#1E1E1E" stroke="none" d="
M 777.7 480.55
Q 777 481.1 777 482.6
L 777 494.25
Q 777 495.7 777.7 496.5 778.45 497.3 780.05 497.3
L 787.5 497.3 787.5 505 772.35 505
Q 772.05 505 771.9 505.15 771.75 505.35 771.75 505.6
L 771.75 508.25
Q 771.75 508.45 771.9 508.65 772.05 508.85 772.35 508.85
L 807.15 508.85
Q 807.35 508.85 807.55 508.65 807.75 508.45 807.75 508.25
L 807.75 505.6
Q 807.75 505.4 807.55 505.2 807.35 505 807.15 505
L 792.05 505 792.05 497.3 802.2 497.3
Q 802.4 497.3 802.55 497.15 802.7 497 802.7 496.7
L 802.7 493.95
Q 802.7 493.65 802.5 493.55 802.35 493.45 802.05 493.45
L 782.35 493.45
Q 781.9 493.45 781.75 493.3 781.6 493.1 781.6 492.75
L 781.6 484.55
Q 781.6 483.85 782.35 483.85
L 801.85 483.85
Q 802.4 483.85 802.4 483.3
L 802.4 480.5
Q 802.4 480 801.85 480
L 779.9 480
Q 778.35 480 777.7 480.55
M 765.7 503.9
Q 765.7 502.35 765.1 501.7 764.5 501.1 763 501.1
L 742.25 501.1
Q 742.05 501.1 741.85 501.2 741.7 501.3 741.7 501.6
L 741.7 504.45
Q 741.7 504.65 741.85 504.8 742.05 504.9 742.25 504.9
L 760.3 504.9
Q 760.75 504.9 760.9 505.05 761.05 505.15 761.05 505.6
L 761.05 514.7
Q 761.05 514.9 761.25 515.05 761.45 515.25 761.7 515.25
L 765.1 515.25
Q 765.3 515.25 765.5 515.05 765.7 514.9 765.7 514.7
L 765.7 503.9
M 765.75 477.9
Q 765.75 477.35 765.15 477.35
L 761.65 477.35
Q 761.45 477.35 761.25 477.5 761.1 477.65 761.1 477.9
L 761.1 498.5
Q 761.1 498.75 761.25 498.9 761.45 499.1 761.65 499.1
L 765.15 499.1
Q 765.75 499.1 765.75 498.55
L 765.75 490.8 771.1 490.8
Q 771.35 490.8 771.55 490.65 771.7 490.5 771.7 490.3
L 771.7 487.5
Q 771.7 487.3 771.55 487.15 771.35 486.95 771.1 486.95
L 765.75 486.95 765.75 477.9
M 738.35 479.15
Q 737.8 479.15 737.8 479.7
L 737.8 482.35
Q 737.8 482.6 737.95 482.8 738.05 482.95 738.35 482.95
L 749.2 482.95
Q 749.95 482.95 749.95 483.2 749.95 483.45 749.75 484.1 748.65 487.75 745.3 490.75 741.9 493.75 737 495.9 736.55 496.1 736.5 496.4 736.45 496.7 736.6 497.05
L 737.65 499.1
Q 737.95 499.9 738.9 499.5 745.25 496.85 749.2 493 753.2 489.1 754.7 483.6 754.75 483.45 754.85 483.2 754.9 482.95 754.95 482.65 755 482.3 755.05 482.05 755.1 481.7 755.1 481.55 755.1 480.3 754.4 479.7 753.7 479.15 751.9 479.15
L 738.35 479.15
M 723.25 514.15
L 723.25 511.3
Q 723.25 511.15 723.05 510.95 722.85 510.8 722.7 510.8
L 702.6 510.8
Q 702.2 510.8 702.05 510.7 701.9 510.55 701.9 510.15
L 701.9 503.55
Q 701.9 503.35 701.7 503.15 701.55 502.95 701.25 502.95
L 697.85 502.95
Q 697.65 502.95 697.45 503.15 697.3 503.35 697.3 503.55
L 697.3 511.8
Q 697.3 513.35 697.9 514 698.5 514.65 700.3 514.65
L 722.7 514.65
Q 722.85 514.65 723.05 514.55 723.25 514.4 723.25 514.15
M 722.3 477.9
Q 722.3 477.35 721.75 477.35
L 718.3 477.35
Q 717.75 477.35 717.75 477.9
L 717.75 488.45 714.35 488.45 714.35 478.5
Q 714.35 478 713.85 478
L 710.55 478
Q 710 478 710 478.5
L 710 502.85
Q 710 503.4 710.55 503.4
L 713.85 503.4
Q 714.35 503.4 714.35 502.85
L 714.35 492.3 717.75 492.3 717.75 503.75
Q 717.75 504.25 718.3 504.25
L 721.75 504.25
Q 722.3 504.25 722.3 503.75
L 722.3 477.9
M 705.45 481.85
Q 705.45 479.7 702.1 479.7
L 691.75 479.7
Q 691.25 479.7 691.25 480.3
L 691.25 482.8
Q 691.25 483.05 691.4 483.2 691.55 483.4 691.7 483.4
L 699.9 483.4
Q 700.35 483.4 700.5 483.55 700.65 483.75 700.45 484.25 699.9 485.9 698.9 487.7 697.9 489.55 696.55 491.3 695.15 493.1 693.4 494.75 691.6 496.4 689.45 497.7 689.1 497.95 689.1 498.25 689.05 498.6 689.25 498.85
L 690.65 500.7
Q 690.9 501.05 691.25 501 691.6 500.95 691.9 500.8 694.05 499.45 696 497.65 698 495.85 699.7 493.8 700.25 494.6 701 495.45 701.7 496.25 702.5 497 703.3 497.75 704.1 498.4 704.9 499 705.45 499.4 706.25 499.9 706.8 499.25
L 708.15 497.45
Q 708.7 496.7 707.95 496.25 707.25 495.8 706.45 495.15 705.6 494.5 704.8 493.75 704 492.95 703.3 492.15 702.55 491.3 702.05 490.5 703.2 488.7 704 486.9 704.75 485.1 705.15 483.5 705.25 483.15 705.35 482.65 705.45 482.2 705.45 481.85
M 839.3 416.7
L 839.3 413.95
Q 839.3 413.65 839.1 413.55 838.95 413.45 838.65 413.45
L 818.95 413.45
Q 818.5 413.45 818.35 413.3 818.2 413.1 818.2 412.75
L 818.2 404.55
Q 818.2 403.85 818.95 403.85
L 838.45 403.85
Q 839 403.85 839 403.3
L 839 400.5
Q 839 400 838.45 400
L 816.5 400
Q 814.95 400 814.3 400.55 813.6 401.1 813.6 402.6
L 813.6 414.25
Q 813.6 415.7 814.3 416.5 815.05 417.3 816.65 417.3
L 824.1 417.3 824.1 425 808.95 425
Q 808.65 425 808.5 425.15 808.35 425.35 808.35 425.6
L 808.35 428.25
Q 808.35 428.45 808.5 428.65 808.65 428.85 808.95 428.85
L 843.75 428.85
Q 843.95 428.85 844.15 428.65 844.35 428.45 844.35 428.25
L 844.35 425.6
Q 844.35 425.4 844.15 425.2 843.95 425 843.75 425
L 828.65 425 828.65 417.3 838.8 417.3
Q 839 417.3 839.15 417.15 839.3 417 839.3 416.7
M 778.85 421.1
Q 778.65 421.1 778.45 421.2 778.3 421.3 778.3 421.6
L 778.3 424.45
Q 778.3 424.65 778.45 424.8 778.65 424.9 778.85 424.9
L 796.9 424.9
Q 797.35 424.9 797.5 425.05 797.65 425.15 797.65 425.6
L 797.65 434.7
Q 797.65 434.9 797.85 435.05 798.05 435.25 798.3 435.25
L 801.7 435.25
Q 801.9 435.25 802.1 435.05 802.3 434.9 802.3 434.7
L 802.3 423.9
Q 802.3 422.35 801.7 421.7 801.1 421.1 799.6 421.1
L 778.85 421.1
M 791.3 403.6
Q 791.35 403.45 791.45 403.2 791.5 402.95 791.55 402.65 791.6 402.3 791.65 402.05 791.7 401.7 791.7 401.55 791.7 400.3 791 399.7 790.3 399.15 788.5 399.15
L 774.95 399.15
Q 774.4 399.15 774.4 399.7
L 774.4 402.35
Q 774.4 402.6 774.55 402.8 774.65 402.95 774.95 402.95
L 785.8 402.95
Q 786.55 402.95 786.55 403.2 786.55 403.45 786.35 404.1 785.25 407.75 781.9 410.75 778.5 413.75 773.6 415.9 773.15 416.1 773.1 416.4 773.05 416.7 773.2 417.05
L 774.25 419.1
Q 774.55 419.9 775.5 419.5 781.85 416.85 785.8 413 789.8 409.1 791.3 403.6
M 808.3 407.5
Q 808.3 407.3 808.15 407.15 807.95 406.95 807.7 406.95
L 802.35 406.95 802.35 397.9
Q 802.35 397.35 801.75 397.35
L 798.25 397.35
Q 798.05 397.35 797.85 397.5 797.7 397.65 797.7 397.9
L 797.7 418.5
Q 797.7 418.75 797.85 418.9 798.05 419.1 798.25 419.1
L 801.75 419.1
Q 802.35 419.1 802.35 418.55
L 802.35 410.8 807.7 410.8
Q 807.95 410.8 808.15 410.65 808.3 410.5 808.3 410.3
L 808.3 407.5
M 736.75 425.3
Q 736.55 425.05 736.3 425.05
L 732.85 425.05
Q 732.7 425.05 732.5 425.3 732.3 425.5 732.3 425.7
L 732.3 431.85
Q 732.3 433.45 732.9 434.1 733.55 434.7 735.35 434.7
L 756.5 434.7
Q 756.7 434.7 756.9 434.6 757.05 434.5 757.05 434.25
L 757.05 431.4
Q 757.05 431.2 756.9 431.05 756.7 430.9 756.5 430.9
L 737.65 430.9
Q 737.25 430.9 737.05 430.75 736.9 430.65 736.9 430.25
L 736.9 425.7
Q 736.9 425.5 736.75 425.3
M 737.45 408.6
Q 735.65 408.6 734.05 409.15 732.5 409.7 731.3 410.7 730.1 411.65 729.45 412.95 728.75 414.25 728.75 415.7 728.75 417.25 729.45 418.55 730.1 419.85 731.3 420.8 732.5 421.75 734.05 422.3 735.6 422.9 737.4 422.9 739.25 422.9 740.85 422.3 742.45 421.75 743.6 420.8 744.8 419.85 745.5 418.55 746.15 417.25 746.15 415.7 746.15 414.25 745.5 412.95 744.8 411.65 743.6 410.7 742.45 409.7 740.85 409.15 739.25 408.6 737.45 408.6
M 737.45 419.4
Q 735.55 419.4 734.3 418.3 733.1 417.25 733.1 415.7 733.1 414.25 734.3 413.2 735.55 412.15 737.45 412.15 739.35 412.15 740.6 413.2 741.8 414.25 741.8 415.7 741.8 417.25 740.6 418.3 739.35 419.4 737.45 419.4
M 748.15 407.05
Q 748.3 406.85 748.3 406.55
L 748.3 404.15
Q 748.3 403.9 748.15 403.75 747.95 403.55 747.7 403.55
L 726.55 403.55
Q 726.35 403.55 726.1 403.75 725.9 403.95 725.9 404.15
L 725.9 406.5
Q 725.9 406.8 726.1 407 726.3 407.2 726.5 407.2
L 747.7 407.2
Q 747.95 407.2 748.15 407.05
M 743.15 401.2
L 743.15 398.9
Q 743.15 398.65 742.95 398.45 742.75 398.25 742.5 398.25
L 732.05 398.25
Q 731.9 398.25 731.65 398.4 731.45 398.55 731.45 398.9
L 731.45 401.25
Q 731.45 401.5 731.65 401.7 731.9 401.85 732.05 401.85
L 742.5 401.85
Q 742.8 401.85 743 401.65 743.15 401.45 743.15 401.2
M 751.45 397.35
Q 750.9 397.35 750.9 397.9
L 750.9 426.15
Q 750.9 426.65 751.45 426.65
L 755 426.65
Q 755.55 426.65 755.55 426.15
L 755.55 414.6 760.9 414.6
Q 761.15 414.6 761.35 414.45 761.5 414.3 761.5 414.1
L 761.5 411.3
Q 761.5 411.1 761.35 410.9 761.15 410.75 760.9 410.75
L 755.55 410.75 755.55 397.9
Q 755.55 397.35 755 397.35
L 751.45 397.35
M 696.9 424.65
L 696.9 431.8
Q 696.9 433.35 697.5 434 698.15 434.65 699.9 434.65
L 717.35 434.65
Q 718.9 434.65 719.55 434 720.2 433.35 720.2 431.85
L 720.2 424.7
Q 720.2 423.1 719.55 422.45 718.95 421.8 717.1 421.8
L 699.75 421.8
Q 698.2 421.8 697.55 422.45 696.9 423.1 696.9 424.65
M 701.95 430.95
Q 701.65 430.95 701.55 430.9 701.45 430.8 701.45 430.45
L 701.45 425.95
Q 701.45 425.65 701.55 425.55 701.65 425.5 701.95 425.5
L 715.1 425.5
Q 715.4 425.5 715.55 425.6 715.65 425.7 715.65 426
L 715.65 430.45
Q 715.65 430.8 715.55 430.9 715.45 430.95 715.1 430.95
L 701.95 430.95
M 712.75 416.6
Q 712.9 416.45 712.85 416.25
L 712.5 413.8
Q 712.45 413.55 712.25 413.5 712 413.45 711.8 413.45 710.15 413.75 708.3 413.95 706.5 414.15 704.55 414.3 702.65 414.45 700.7 414.5 698.75 414.55 696.95 414.5 696.2 414.5 696.2 413.8
L 696.2 410.65
Q 696.2 410.3 696.3 410.15 696.45 410.05 696.8 410.05
L 706.1 410.05
Q 707.35 410.05 707.95 409.55 708.6 408.95 708.6 407.5
L 708.6 401.5
Q 708.6 400.05 708.05 399.45 707.5 398.85 705.9 398.85
L 692.35 398.85
Q 692.15 398.85 692 399 691.8 399.1 691.8 399.3
L 691.8 401.95
Q 691.8 402.15 692 402.3 692.15 402.45 692.35 402.45
L 703.5 402.45
Q 703.9 402.45 703.95 402.5 704.05 402.6 704.05 403.05
L 704.05 406.1
Q 704.05 406.5 703.95 406.6 703.9 406.7 703.5 406.7
L 694 406.7
Q 692.7 406.7 692.15 407.2 691.65 407.7 691.65 408.95
L 691.65 415.65
Q 691.65 416.95 692.2 417.5 692.75 418.05 694.3 418.1 696.45 418.2 698.85 418.15 701.25 418.1 703.65 417.95 706.05 417.75 708.3 417.5 710.55 417.2 712.4 416.85 712.6 416.8 712.75 416.6
M 720.2 397.9
Q 720.2 397.35 719.7 397.35
L 716.1 397.35
Q 715.6 397.35 715.6 397.9
L 715.6 419.25
Q 715.6 419.8 716.1 419.8
L 719.7 419.8
Q 720.2 419.8 720.2 419.25
L 720.2 397.9
M 680.15 397.35
Q 679.65 397.35 679.65 397.9
L 679.65 410.95 673.7 410.95
Q 673.5 408.4 672.7 406.3 671.95 404.25 670.7 402.8 669.45 401.3 667.7 400.5 666 399.7 663.85 399.7 661.6 399.7 659.8 400.65 657.95 401.6 656.7 403.3 655.45 405.05 654.75 407.5 654.1 409.9 654.1 412.95 654.1 415.85 654.75 418.3 655.45 420.7 656.7 422.45 657.95 424.2 659.8 425.15 661.6 426.15 663.85 426.15 666 426.15 667.7 425.35 669.45 424.55 670.7 423.1 671.95 421.6 672.7 419.5 673.5 417.4 673.7 414.8
L 679.65 414.8 679.65 434.8
Q 679.65 435.35 680.15 435.35
L 683.7 435.35
Q 684.25 435.35 684.25 434.8
L 684.25 397.9
Q 684.25 397.35 683.7 397.35
L 680.15 397.35
M 669.25 412.95
Q 669.25 414.7 668.85 416.4 668.5 418.05 667.85 419.3 667.15 420.55 666.15 421.3 665.15 422.1 663.85 422.1 662.65 422.1 661.65 421.3 660.7 420.55 660 419.3 659.3 418.05 658.95 416.4 658.6 414.7 658.6 412.95 658.6 411.1 658.95 409.45 659.3 407.75 660 406.5 660.7 405.3 661.65 404.55 662.65 403.8 663.85 403.8 665.15 403.8 666.15 404.55 667.15 405.3 667.85 406.5 668.5 407.75 668.85 409.45 669.25 411.1 669.25 412.95
M 1091.6 479.5
Q 1090.6 479.5 1089.7 479.85 1088.85 480.25 1088.2 480.9 1087.55 481.5 1087.15 482.4 1086.8 483.3 1086.8 484.25 1086.8 485.3 1087.15 486.15 1087.55 487.05 1088.2 487.65 1088.85 488.3 1089.7 488.7 1090.6 489.1 1091.6 489.1 1092.6 489.1 1093.5 488.7 1094.35 488.3 1095 487.65 1095.65 487.05 1096 486.15 1096.4 485.3 1096.4 484.25 1096.4 483.3 1096 482.4 1095.65 481.5 1095 480.9 1094.35 480.25 1093.5 479.85 1092.6 479.5 1091.6 479.5
M 1093.05 485.75
Q 1092.45 486.4 1091.6 486.4 1090.75 486.4 1090.15 485.75 1089.5 485.1 1089.5 484.25 1089.5 483.45 1090.15 482.8 1090.75 482.15 1091.6 482.15 1092.45 482.15 1093.05 482.8 1093.7 483.45 1093.7 484.25 1093.7 485.1 1093.05 485.75
M 1096.4 404.25
Q 1096.4 403.3 1096 402.4 1095.65 401.5 1095 400.9 1094.35 400.25 1093.5 399.85 1092.6 399.5 1091.6 399.5 1090.6 399.5 1089.7 399.85 1088.85 400.25 1088.2 400.9 1087.55 401.5 1087.15 402.4 1086.8 403.3 1086.8 404.25 1086.8 405.3 1087.15 406.15 1087.55 407.05 1088.2 407.65 1088.85 408.3 1089.7 408.7 1090.6 409.1 1091.6 409.1 1092.6 409.1 1093.5 408.7 1094.35 408.3 1095 407.65 1095.65 407.05 1096 406.15 1096.4 405.3 1096.4 404.25
M 1089.5 404.25
Q 1089.5 403.45 1090.15 402.8 1090.75 402.15 1091.6 402.15 1092.45 402.15 1093.05 402.8 1093.7 403.45 1093.7 404.25 1093.7 405.1 1093.05 405.75 1092.45 406.4 1091.6 406.4 1090.75 406.4 1090.15 405.75 1089.5 405.1 1089.5 404.25
M 897.35 421.1
Q 897.15 421.1 896.95 421.2 896.8 421.3 896.8 421.6
L 896.8 424.45
Q 896.8 424.65 896.95 424.8 897.15 424.9 897.35 424.9
L 915.4 424.9
Q 915.85 424.9 916 425.05 916.15 425.15 916.15 425.6
L 916.15 434.7
Q 916.15 434.9 916.3 435.05 916.5 435.25 916.8 435.25
L 920.2 435.25
Q 920.4 435.25 920.55 435.05 920.75 434.9 920.75 434.7
L 920.75 423.9
Q 920.75 422.35 920.2 421.7 919.6 421.1 918.1 421.1
L 897.35 421.1
M 911.05 404.35
Q 910.35 402.65 909.05 401.4 907.75 400.15 905.95 399.45 904.15 398.75 902 398.75 899.8 398.75 898.05 399.45 896.3 400.15 895.05 401.4 893.8 402.65 893.05 404.35 892.35 406.1 892.35 408 892.35 410 893.05 411.7 893.8 413.4 895.05 414.65 896.3 415.85 898.05 416.5 899.8 417.2 902 417.2 904.15 417.2 905.95 416.5 907.75 415.85 909.05 414.65 910.35 413.4 911.05 411.7 911.8 410 911.8 408 911.8 406.1 911.05 404.35
M 902 402.85
Q 904.35 402.85 905.8 404.25 907.2 405.7 907.2 408.1 907.2 410.5 905.8 411.95 904.35 413.35 902 413.35 899.7 413.35 898.25 411.95 896.8 410.5 896.8 408.1 896.8 405.7 898.25 404.25 899.7 402.85 902 402.85
M 926.2 407.05
Q 926.4 407.05 926.6 406.85 926.8 406.7 926.8 406.5
L 926.8 403.75
Q 926.8 403.5 926.6 403.4 926.4 403.25 926.2 403.25
L 920.8 403.25 920.8 397.9
Q 920.8 397.35 920.25 397.35
L 916.7 397.35
Q 916.2 397.35 916.2 397.9
L 916.2 418.5
Q 916.2 419.1 916.7 419.1
L 920.25 419.1
Q 920.8 419.1 920.8 418.55
L 920.8 414.85 926.2 414.85
Q 926.4 414.85 926.6 414.7 926.8 414.55 926.8 414.3
L 926.8 411.5
Q 926.8 411.3 926.6 411.15 926.4 411 926.2 411
L 920.8 411 920.8 407.05 926.2 407.05 Z"/>
</g>

<path id="Layer0_0_1_STROKES" stroke="#86BA9E" stroke-width="3" stroke-linejoin="round" stroke-linecap="round" fill="none" d="
M 860 375.1
L 931.25 375.1 967 375.1 1107.1 375.1
Q 1127.1 375.1 1127.1 395.1
L 1127.1 455.2 1127.1 475.2 1127.1 515.2
Q 1127.1 519.35 1126.35 522.35 1123.1 535.2 1107.1 535.2
L 967 535.2 860 535.2 777 535.2 656.95 535.2
Q 640.9 535.2 637.75 522.35 636.95 519.15 636.95 515.2
L 636.95 475.2 636.95 455.2 636.95 415.15 636.95 395.1
Q 636.95 387.75 639.65 383.1 644.3 375.1 656.95 375.1
L 860 375.1 Z"/>

<path id="Layer0_0_2_STROKES" stroke="#86BA9E" stroke-width="2" stroke-linejoin="round" stroke-linecap="round" fill="none" d="
M 860 375.1
L 860 455.2 1127.1 455.2
M 860 455.2
L 860 535.2
M 636.95 455.2
L 777 455.2 860 455.2"/>
</defs>

<g transform="matrix( 1, 0, 0, 1, 0,0) ">
<use xlink:href="#Layer0_0_FILL"/>

<use xlink:href="#Layer0_0_1_STROKES"/>

<use xlink:href="#Layer0_0_2_STROKES"/>
</g>

<g transform="matrix( 1, 0, 0, 1, 0,0) ">
<use xlink:href="#Layer0_1_FILL"/>
</g>
</svg>
