
<svg xmlns="http://www.w3.org/2000/svg" version="1.1" xmlns:xlink="http://www.w3.org/1999/xlink" preserveAspectRatio="none" x="0px" y="0px" width="1280px" height="720px" viewBox="0 0 1280 720">
<defs>
<g id="Layer0_0_FILL">
<path fill="#FFFFFF" stroke="none" d="
M 1146.7 592.05
Q 1161.7 592.05 1161.7 577.05
L 1161.7 547
Q 1161.7 532 1146.7 532
L 1036.7 532
Q 1021.7 532 1021.7 547
L 1021.7 577.05
Q 1021.7 592.05 1036.7 592.05
L 1146.7 592.05
M 667.6 274.7
Q 661.5 280.8 661.5 289.4 661.5 298.05 667.6 304.1 673.7 310.2 682.3 310.2 690.9 310.2 697 304.1 703.1 298.05 703.1 289.4 703.1 280.8 697 274.7 690.9 268.6 682.3 268.6 673.7 268.6 667.6 274.7
M 673.5 296.4
Q 673.4 295.8 673.4 294.95
L 673.4 282.75
Q 673.4 281.9 674.05 281.9
L 677.2 281.9
Q 677.9 281.9 677.9 282.75
L 677.9 292.65
Q 677.9 293.25 678.35 293.25
L 690.9 293.25
Q 691.15 293.25 691.4 293.4 691.6 293.55 691.6 294
L 691.6 297.15
Q 691.6 297.75 691.4 297.8 691.15 297.9 690.9 297.9
L 675.6 297.9
Q 674.95 297.9 674.5 297.75 674.05 297.6 673.85 297.3 673.6 296.95 673.5 296.4
M 493.45 478.75
Q 499.55 484.85 508.15 484.85 516.75 484.85 522.85 478.75 528.95 472.7 528.95 464.05 528.95 455.45 522.85 449.35 516.75 443.25 508.15 443.25 499.55 443.25 493.45 449.35 487.35 455.45 487.35 464.05 487.35 472.7 493.45 478.75
M 517.25 459.3
Q 517.35 459.9 517.35 460.75
L 517.35 473.05
Q 517.35 473.9 516.75 473.9
L 513.55 473.9
Q 512.85 473.9 512.85 473.05
L 512.85 462.9
Q 512.85 462.3 512.4 462.3
L 499.9 462.3
Q 499.65 462.3 499.45 462.2 499.25 462.05 499.25 461.65
L 499.25 458.45
Q 499.25 457.9 499.45 457.8 499.65 457.7 499.9 457.7
L 515.1 457.7
Q 515.8 457.7 516.25 457.85 516.7 457.95 516.9 458.35 517.2 458.7 517.25 459.3 Z"/>

<path fill="#1E1E1E" stroke="none" d="
M 1177.65 544.35
Q 1176.75 544 1175.75 544 1174.75 544 1173.85 544.35 1173 544.75 1172.35 545.4 1171.7 546 1171.3 546.9 1170.95 547.8 1170.95 548.75 1170.95 549.8 1171.3 550.65 1171.7 551.55 1172.35 552.15 1173 552.8 1173.85 553.2 1174.75 553.6 1175.75 553.6 1176.75 553.6 1177.65 553.2 1178.5 552.8 1179.15 552.15 1179.8 551.55 1180.15 550.65 1180.55 549.8 1180.55 548.75 1180.55 547.8 1180.15 546.9 1179.8 546 1179.15 545.4 1178.5 544.75 1177.65 544.35
M 1173.65 548.75
Q 1173.65 547.95 1174.3 547.3 1174.9 546.65 1175.75 546.65 1176.6 546.65 1177.2 547.3 1177.85 547.95 1177.85 548.75 1177.85 549.6 1177.2 550.25 1176.6 550.9 1175.75 550.9 1174.9 550.9 1174.3 550.25 1173.65 549.6 1173.65 548.75
M 673.4 294.95
Q 673.4 295.8 673.5 296.4 673.6 296.95 673.85 297.3 674.05 297.6 674.5 297.75 674.95 297.9 675.6 297.9
L 690.9 297.9
Q 691.15 297.9 691.4 297.8 691.6 297.75 691.6 297.15
L 691.6 294
Q 691.6 293.55 691.4 293.4 691.15 293.25 690.9 293.25
L 678.35 293.25
Q 677.9 293.25 677.9 292.65
L 677.9 282.75
Q 677.9 281.9 677.2 281.9
L 674.05 281.9
Q 673.4 281.9 673.4 282.75
L 673.4 294.95
M 517.35 460.75
Q 517.35 459.9 517.25 459.3 517.2 458.7 516.9 458.35 516.7 457.95 516.25 457.85 515.8 457.7 515.1 457.7
L 499.9 457.7
Q 499.65 457.7 499.45 457.8 499.25 457.9 499.25 458.45
L 499.25 461.65
Q 499.25 462.05 499.45 462.2 499.65 462.3 499.9 462.3
L 512.4 462.3
Q 512.85 462.3 512.85 462.9
L 512.85 473.05
Q 512.85 473.9 513.55 473.9
L 516.75 473.9
Q 517.35 473.9 517.35 473.05
L 517.35 460.75
M 804.45 457.45
Q 804.45 456.6 804.1 455.8 803.8 455.05 803.25 454.5 802.65 453.95 801.9 453.6 801.15 453.3 800.25 453.3 799.35 453.3 798.6 453.6 797.85 453.95 797.3 454.5 796.7 455.05 796.4 455.8 796.05 456.6 796.05 457.45 796.05 458.35 796.4 459.1 796.7 459.9 797.3 460.45 797.85 461 798.6 461.35 799.35 461.65 800.25 461.65 801.15 461.65 801.9 461.35 802.65 461 803.25 460.45 803.8 459.9 804.1 459.1 804.45 458.35 804.45 457.45
M 801.5 456.2
Q 802.05 456.75 802.05 457.45 802.05 458.2 801.5 458.75 801 459.35 800.25 459.35 799.5 459.35 798.95 458.75 798.45 458.2 798.45 457.45 798.45 456.75 798.95 456.2 799.5 455.6 800.25 455.6 801 455.6 801.5 456.2
M 792.35 458.75
Q 791.75 457.4 790.75 456.35 789.8 455.35 788.45 454.75 787.05 454.15 785.25 454.15 782.5 454.15 780.75 455.45 779.05 456.75 778.1 458.75 777.15 460.75 776.8 463.1 776.45 465.5 776.45 467.65 776.45 474.05 778.6 477.6 780.75 481.15 785.25 481.15 787.5 481.15 789.1 480.25 790.75 479.35 791.85 477.6 792.9 475.9 793.45 473.35 793.95 470.85 793.95 467.65 793.95 466.2 793.8 464.65 793.65 463.1 793.35 461.6 792.95 460.1 792.35 458.75
M 781.75 460.15
Q 782.4 458.95 783.25 458.45 784.1 457.95 785.25 457.95 786.35 457.95 787.2 458.45 788.1 458.95 788.75 460.15 789.35 461.3 789.7 463.15 790.05 465 790.05 467.65 790.05 470.35 789.7 472.2 789.35 474.05 788.75 475.2 788.1 476.35 787.2 476.9 786.35 477.4 785.25 477.4 784.1 477.4 783.25 476.9 782.4 476.35 781.75 475.2 781.1 474.05 780.8 472.2 780.45 470.35 780.45 467.65 780.45 465 780.8 463.15 781.1 461.3 781.75 460.15
M 768.25 454.1
Q 765 454.1 762.75 455.25 760.5 456.4 759.15 458.35 757.75 460.3 757.15 462.95 756.55 465.6 756.55 468.55 756.55 475.05 758.8 478.2 761 481.25 765.15 481.25 767.15 481.25 768.75 480.55 770.35 479.85 771.5 478.65 772.6 477.45 773.2 475.75 773.8 474.1 773.8 472.2 773.8 470.2 773.2 468.6 772.6 467 771.45 465.85 770.35 464.7 768.8 464.1 767.25 463.5 765.35 463.5 764.65 463.5 763.95 463.7 763.25 463.85 762.6 464.2 761.95 464.45 761.45 464.85 760.9 465.25 760.6 465.7 760.85 464 761.35 462.55 761.85 461.05 762.7 460 763.6 458.9 764.85 458.3 766.15 457.7 767.95 457.7 769.2 457.7 770.25 457.8 771.25 457.9 772.15 458.25 772.65 458.45 772.7 457.95
L 772.8 455.15
Q 772.85 454.8 772.55 454.7 771.75 454.4 770.5 454.25 769.25 454.1 768.25 454.1
M 765.5 467.15
Q 767.6 467.15 768.8 468.55 769.95 469.9 769.95 472.35 769.95 474.85 768.65 476.35 767.3 477.8 765.2 477.8 764.25 477.8 763.35 477.35 762.55 476.9 761.9 476.1 761.3 475.3 760.95 474.25 760.6 473.2 760.6 472 760.6 469.9 761.9 468.5 763.2 467.15 765.5 467.15 Z"/>
</g>

<path id="Layer0_0_1_STROKES" stroke="#DBDBDB" stroke-width="3" stroke-linejoin="round" stroke-linecap="round" fill="none" d="
M 1036.7 532
L 1146.7 532
Q 1161.7 532 1161.7 547
L 1161.7 577.05
Q 1161.7 592.05 1146.7 592.05
L 1036.7 592.05
Q 1021.7 592.05 1021.7 577.05
L 1021.7 547
Q 1021.7 532 1036.7 532 Z"/>

<path id="Layer0_0_2_STROKES" stroke="#1E1E1E" stroke-width="3" stroke-linejoin="round" stroke-linecap="butt" fill="none" d="
M 704.1 251.9
L 687 222.25 664.025 247.175
M 704.1 251.9
L 824.775 460.975 844.1 494.45 805.1 494.45 435.95 494.45 464.7 463.3 664.025 247.175"/>

<path id="Layer0_0_3_STROKES" stroke="#E50182" stroke-width="2" stroke-linejoin="round" stroke-linecap="butt" fill="none" d="
M 664.025 247.175
Q 667.208984375 253.035546875 672.95 256.5 678.7 260.2 685.75 260.2 696.919140625 260.2 704.1 251.9
M 805.1 494.45
Q 804.45 491.85 804.45 488.5 804.45 478.9 810.2 471.25 815.8 463.7 824.775 460.975
M 464.7 463.3
Q 471.676953125 466.6419921875 475.95 473.3 480.45 480.2 480.45 488.5 480.45 491.7 479.8 494.1"/>

<path id="Layer0_0_4_STROKES" stroke="#1E1E1E" stroke-width="3" stroke-linejoin="round" stroke-linecap="round" fill="none" d="
M 703.1 289.4
Q 703.1 298.05 697 304.1 690.9 310.2 682.3 310.2 673.7 310.2 667.6 304.1 661.5 298.05 661.5 289.4 661.5 280.8 667.6 274.7 673.7 268.6 682.3 268.6 690.9 268.6 697 274.7 703.1 280.8 703.1 289.4 Z
M 528.95 464.05
Q 528.95 472.7 522.85 478.75 516.75 484.85 508.15 484.85 499.55 484.85 493.45 478.75 487.35 472.7 487.35 464.05 487.35 455.45 493.45 449.35 499.55 443.25 508.15 443.25 516.75 443.25 522.85 449.35 528.95 455.45 528.95 464.05 Z"/>
</defs>

<g transform="matrix( 1, 0, 0, 1, 0,0) ">
<use xlink:href="#Layer0_0_FILL"/>

<use xlink:href="#Layer0_0_1_STROKES"/>

<use xlink:href="#Layer0_0_2_STROKES"/>

<use xlink:href="#Layer0_0_3_STROKES"/>

<use xlink:href="#Layer0_0_4_STROKES"/>
</g>
</svg>
