<?xml version="1.0" encoding="utf-8"?>
<!-- Generator: Adobe Illustrator 23.0.0, SVG Export Plug-In . SVG Version: 6.00 Build 0)  -->
<svg version="1.1" id="레이어_1" xmlns="http://www.w3.org/2000/svg" xmlns:xlink="http://www.w3.org/1999/xlink" x="0px"
	 y="0px" width="1104px" height="829.8px" viewBox="0 0 1104 829.8" style="enable-background:new 0 0 1104 829.8;"
	 xml:space="preserve">
<g>
	<path style="fill:#C8B6D8;" d="M1101.8,816.4c0,6.5-5.3,11.8-11.8,11.8H13.8c-6.5,0-11.8-5.3-11.8-11.8V90.7
		c0-6.5,5.3-11.8,11.8-11.8h1076.4c6.5,0,11.8,5.3,11.8,11.8L1101.8,816.4z"/>
	<path style="fill:#CDBDDC;" d="M14.2,827.5c-6.3,0-11.4-5.1-11.5-11.5V91c0-0.3,0-0.6,0-0.9c0.4-5.9,5.4-10.6,11.4-10.6h1075.6
		c0.3,0,0.6,0,0.9,0c5.9,0.4,10.6,5.4,10.6,11.4l-0.2,725c0,0.3,0,0.6,0,0.9c-0.4,5.9-5.4,10.6-11.4,10.6L14.2,827.5L14.2,827.5z"/>
	<path style="fill:#D2C4E0;" d="M14.5,826.8c-6.1,0-11.1-5-11.1-11.1V91.5c0-0.3,0-0.6,0-0.8c0.4-5.8,5.2-10.4,11.1-10.4h1074.9
		c0.3,0,0.6,0,0.9,0c5.8,0.4,10.3,5.2,10.3,11.1l-0.2,724.2c0,0.3,0,0.6,0,0.9c-0.4,5.8-5.2,10.4-11.1,10.4H14.5V826.8z"/>
	<path style="fill:#D7CAE3;" d="M14.9,826.2c-5.9,0-10.7-4.8-10.8-10.8V91.9c0-0.2,0-0.6,0-0.8C4.4,85.5,9.1,81,14.8,81H1089
		c0.2,0,0.6,0,0.8,0c5.6,0.3,10.1,5,10.1,10.7l-0.2,723.5c0,0.2,0,0.6,0,0.8c-0.3,5.6-5,10.1-10.7,10.1H14.9V826.2z"/>
	<path style="fill:#DCD1E7;" d="M15.2,825.5c-5.7,0-10.4-4.6-10.4-10.4V92.3c0-0.2,0-0.6,0-0.8c0.3-5.5,4.8-9.8,10.4-9.8h1073.4
		c0.2,0,0.6,0,0.8,0c5.5,0.3,9.8,4.8,9.8,10.4l-0.2,722.7c0,0.2,0,0.6,0,0.8c-0.3,5.4-4.8,9.8-10.4,9.8H15.2V825.5z"/>
	<path style="fill:#E1D8EB;" d="M15.6,824.8c-5.5,0-10-4.5-10-10v-722c0-0.2,0-0.6,0-0.7c0.3-5.3,4.6-9.5,10-9.5h1072.6
		c0.2,0,0.6,0,0.7,0c5.3,0.3,9.5,4.6,9.5,10l-0.2,722c0,0.2,0,0.6,0,0.7c-0.3,5.3-4.6,9.5-10,9.5H15.6z"/>
	<path style="fill:#E6DEEE;" d="M15.9,824.1c-5.3,0-9.7-4.3-9.7-9.7V93.2c0-0.1,0-0.6,0-0.7c0.2-5.1,4.5-9.3,9.7-9.3h1071.9
		c0.1,0,0.6,0,0.7,0c5.1,0.2,9.2,4.5,9.2,9.6l-0.2,721.2c0,0.1,0,0.6,0,0.7c-0.2,5.1-4.5,9.2-9.6,9.2H15.9V824.1z"/>
	<path style="fill:#EBE6F2;" d="M16.3,823.4c-5.1,0-9.3-4.2-9.3-9.3V93.6c0-0.1,0-0.6,0-0.7c0.2-5,4.3-9,9.3-9h1071.1
		c0.1,0,0.6,0,0.7,0c5,0.2,9,4.3,9,9.3l-0.2,720.5c0,0.1,0,0.6,0,0.7c-0.2,5-4.3,9-9.3,9H16.3z"/>
	<path style="fill:#F0ECF5;" d="M16.6,822.7c-4.9,0-9-4-9-9V94c0-0.1,0-0.6,0-0.7c0.1-4.8,4.1-8.7,8.9-8.7H1087c0.1,0,0.6,0,0.7,0
		c4.8,0.1,8.7,4.1,8.7,8.9l-0.2,719.7v0.6c-0.1,4.8-4.1,8.7-8.9,8.7L16.6,822.7z"/>
	<path style="fill:#F5F2F8;" d="M17,822c-4.8,0-8.6-3.9-8.6-8.6v-719v-0.6c0.1-4.7,3.9-8.4,8.6-8.4h1069.6h0.6
		c4.7,0.1,8.4,3.9,8.4,8.6l-0.2,719v0.6c-0.1,4.7-3.9,8.4-8.6,8.4H17z"/>
	<path style="fill:#FAFAFC;" d="M17.3,821.3c-4.6,0-8.2-3.7-8.2-8.3V94.8v-0.6c0-4.5,3.7-8.2,8.2-8.2h1068.9h0.6
		c4.5,0,8.1,3.7,8.1,8.2l-0.2,718.3v0.6c0,4.5-3.7,8.2-8.2,8.2H17.3L17.3,821.3z"/>
	<path style="fill:#FFFFFF;" d="M1094,812.7c0,4.4-3.5,7.9-7.9,7.9H17.7c-4.3,0-7.9-3.5-7.9-7.9V94.6c0-4.4,3.5-7.9,7.9-7.9h1068.7
		c4.4,0,7.9,3.5,7.9,7.9L1094,812.7z"/>
	<path style="fill:#EBE6F2;" d="M244.3,725.8v94.8h841.9c4.4,0,7.9-3.5,7.9-7.9v-86.9L244.3,725.8L244.3,725.8z"/>
	<path style="fill:#EBE6F2;" d="M13.7,819.5c1.2,0.7,2.5,1.1,3.9,1.1h226.6v-94.8L13.7,819.5z"/>
	<path style="fill:#F3F0F7;" d="M244.3,85.6H17.7c-4.4,0-7.9,3.5-7.9,7.9v632.3h234.5V85.6z"/>
	<path style="fill:#F3F0F7;" d="M9.8,725.8v86.9c0,2.9,1.6,5.4,3.9,6.8l230.6-93.7H9.8z"/>
	<path style="fill:#FFFFFF;" d="M1094,725.8l0.2-631.2c0-4.4-3.5-7.9-7.9-7.9h-842v639H1094V725.8z"/>
	<g>
		<polyline style="fill:#E9BDC2;" points="311.1,723.9 311.1,537.9 388.1,537.9 388.1,723.9 		"/>
		<polyline style="fill:none;stroke:#C83164;stroke-width:2.082;stroke-linejoin:bevel;" points="311.1,723.9 311.1,537.9 
			388.1,537.9 388.1,723.9 		"/>
	</g>
	<g>
		<polyline style="fill:#E9BDC2;" points="532.1,723.9 532.1,423.9 609.1,423.9 609.1,723.9 		"/>
		<polyline style="fill:none;stroke:#C83164;stroke-width:2.082;stroke-linejoin:bevel;" points="532.1,723.9 532.1,423.9 
			609.1,423.9 609.1,723.9 		"/>
	</g>
	<g>
		<polyline style="fill:#E9BDC2;" points="749.1,723.9 749.1,650.9 826.1,650.9 826.1,723.9 		"/>
		<polyline style="fill:none;stroke:#C83164;stroke-width:2.082;stroke-linejoin:bevel;" points="749.1,723.9 749.1,650.9 
			826.1,650.9 826.1,723.9 		"/>
	</g>
	<g>
		<polyline style="fill:#E9BDC2;" points="957.1,723.9 957.1,235.9 1034.1,235.9 1034.1,723.9 		"/>
		<polyline style="fill:none;stroke:#C83164;stroke-width:2.0841;stroke-linejoin:bevel;" points="957.1,723.9 957.1,235.9 
			1034.1,235.9 1034.1,723.9 		"/>
	</g>
	<path style="fill:none;stroke:#B4B4B5;" d="M244.3,310h851 M244.3,385.6h851"/>
	<line style="fill:none;stroke:#B4B4B5;stroke-width:2.3333;" x1="244.3" y1="347.8" x2="1095.3" y2="347.8"/>
	<path style="fill:none;stroke:#B4B4B5;" d="M244.3,121.1h851 M244.3,196.7h851 M244.3,461.2h851 M244.3,423.4h851"/>
	<line style="fill:none;stroke:#B4B4B5;stroke-width:2.3333;" x1="244.3" y1="158.9" x2="1095.3" y2="158.9"/>
	<path style="fill:none;stroke:#B4B4B5;" d="M244.3,499h851 M244.3,272.3h851 M244.3,234.5h851"/>
	<line style="fill:none;stroke:#B4B4B5;stroke-width:2.3333;" x1="244.3" y1="536.8" x2="1095.3" y2="536.8"/>
	<path style="fill:none;stroke:#B4B4B5;" d="M244.3,725.8h851 M244.3,688h851 M244.3,650.2h851 M244.3,574.6h851 M244.3,612.4h851"
		/>
	<path style="fill:none;stroke:#9386BE;stroke-width:2.6666;" d="M244.3,82.4v743.4 M1094,725.8H7.6"/>
	<line style="fill:none;stroke:#9386BE;stroke-width:1.3333;" x1="244.3" y1="725.8" x2="13.7" y2="819.5"/>
</g>
<g>
	<g>
		<path style="fill:#231815;" d="M236.6,713.8c-1.1,1.2-2.3,2.1-3.8,2.8s-3,1-4.6,1.1s-3.1-0.2-4.5-0.8s-2.7-1.5-3.8-2.7
			s-2-2.7-2.6-4.5s-1-3.9-1-6.3c0-2.1,0.3-4.1,0.8-5.8c0.5-1.8,1.3-3.3,2.4-4.6c1-1.3,2.3-2.3,3.7-3.1s3.1-1.2,5-1.3
			c1.8-0.1,3.4,0.1,4.9,0.7c1.5,0.6,2.7,1.6,3.8,2.9s1.8,2.9,2.4,4.8c0.6,1.9,0.9,4,0.9,6.4c0,2.2-0.3,4.2-1,6
			C238.6,711.1,237.7,712.6,236.6,713.8z M231.2,713.2c1-0.5,1.8-1.2,2.5-2.1c0.7-0.9,1.3-2,1.7-3.4c0.4-1.3,0.6-2.9,0.6-4.7
			c0-1.9-0.2-3.5-0.6-4.9c-0.4-1.4-1-2.5-1.7-3.4s-1.5-1.5-2.5-2c-0.9-0.4-1.9-0.6-3-0.5c-2.3,0.2-4.1,1.2-5.6,3
			c-1.4,1.9-2.1,4.5-2.1,8c0,1.9,0.2,3.5,0.6,4.8c0.4,1.4,1,2.5,1.7,3.3c0.7,0.9,1.5,1.5,2.4,1.9s1.9,0.6,2.8,0.5
			C229.2,713.9,230.2,713.7,231.2,713.2z"/>
	</g>
	<g>
		<path style="fill:#231815;" d="M39.3,133.9c-0.1,0.3-0.4,0.5-0.8,0.8c-0.7,0.4-1.3,0.4-1.7,0.1c-0.4-0.3-0.9-0.8-1.4-1.4
			c-0.7-0.8-1.4-1.8-2-3s-1.2-2.6-1.7-4.1s-0.9-3.2-1.2-4.9c-0.3-1.8-0.5-3.6-0.5-5.5s0.2-3.7,0.5-5.5s0.8-3.4,1.3-4.9
			s1.1-2.9,1.8-4.1s1.4-2.2,2-3c0.5-0.6,1-1.1,1.5-1.3c0.5-0.3,1-0.3,1.7,0.1c0.4,0.2,0.8,0.5,0.9,0.7c0.2,0.3,0.2,0.5,0.2,0.8
			s-0.1,0.6-0.3,0.9c-0.2,0.3-0.3,0.6-0.5,0.9c-0.7,1.1-1.4,2.3-2,3.5s-1.2,2.4-1.6,3.6c-0.4,1.3-0.8,2.6-1.1,4s-0.4,2.8-0.4,4.3
			c0,3.1,0.4,5.8,1.3,8.3c0.9,2.5,2.1,4.9,3.5,7.1c0.2,0.3,0.3,0.6,0.5,0.9c0.1,0.3,0.2,0.6,0.2,0.9
			C39.6,133.4,39.5,133.6,39.3,133.9z"/>
		<path style="fill:#231815;" d="M113.3,133.4c-0.3,0.3-0.5,0.6-0.7,0.8s-0.5,0.4-0.7,0.6c-0.2,0.1-0.5,0.2-0.8,0.2
			s-0.6-0.1-0.9-0.3c-0.4-0.2-0.7-0.5-0.8-0.7c-0.1-0.3-0.2-0.5-0.2-0.8s0.1-0.6,0.2-0.9c0.1-0.3,0.3-0.6,0.5-0.9
			c1.4-2.3,2.6-4.6,3.5-7.1s1.3-5.3,1.3-8.3c0-1.5-0.1-2.9-0.4-4.3c-0.3-1.4-0.6-2.7-1.1-4c-0.4-1.3-1-2.5-1.6-3.6
			c-0.6-1.2-1.3-2.3-2-3.5c-0.2-0.3-0.4-0.6-0.5-0.9s-0.3-0.6-0.3-0.9c0-0.3,0-0.6,0.2-0.8c0.2-0.3,0.5-0.5,0.9-0.7
			c0.7-0.3,1.2-0.4,1.7-0.1c0.5,0.3,1,0.7,1.5,1.3c0.7,0.8,1.4,1.8,2,3s1.3,2.6,1.8,4.1s1,3.2,1.3,4.9s0.5,3.6,0.5,5.5
			s-0.2,3.8-0.5,5.5c-0.3,1.8-0.7,3.4-1.2,4.9s-1.1,2.9-1.7,4.1C114.6,131.6,114,132.6,113.3,133.4z"/>
	</g>
</g>
<line style="fill:none;stroke:#B1B3B5;stroke-width:3;" x1="893.6" y1="84.7" x2="893.6" y2="820.7"/>
<line style="fill:none;stroke:#B1B3B5;stroke-width:3;" x1="678.6" y1="84.7" x2="678.6" y2="820.7"/>
<line style="fill:none;stroke:#B1B3B5;stroke-width:3;" x1="460.1" y1="84.7" x2="460.1" y2="820.7"/>
<g>
	<path d="M84.2,99.4c0-0.8,0.2-1.3,0.5-1.6s0.9-0.5,1.8-0.5c1.5,0,2.2,0.7,2.2,2.2c0,1.3,0,2.8-0.1,4.4c0,1.6,0,3.2-0.1,4.7
		c0,1.5-0.1,3-0.1,4.3c-0.1,1.3-0.1,2.4-0.2,3.1c-0.1,0.8-0.3,1.3-0.7,1.6s-0.9,0.4-1.4,0.3c-0.6,0-1.1-0.2-1.4-0.4
		s-0.5-0.8-0.5-1.6c0-0.5,0-1.1,0-2c0-0.8,0-1.7,0-2.7c-1,0.1-2.1,0.1-3.3,0.1c-1.2,0-2.2,0.1-3,0.1c0,0.4,0,0.8,0,1.2s0,0.8,0,1.2
		c0,0.7-0.1,1.2-0.4,1.5c-0.2,0.3-0.6,0.4-1.2,0.5c-0.4,0-1.1,0.1-1.9,0.1s-1.7,0.1-2.6,0.1s-2,0.1-3,0.1c-1.1,0.1-2.1,0.1-3,0.1
		c-1,0-1.8,0.1-2.6,0.1c-0.8,0-1.4,0-1.8,0c-0.8,0-1.4-0.3-1.9-0.8c-0.4-0.5-0.7-1.2-0.8-2c-0.1-1-0.1-2.1-0.1-3.4
		c0-1.3-0.1-2.6-0.1-3.9c0-1.3,0-2.7,0-4s0-2.5,0-3.6c0-1.2,0.5-1.8,1.6-1.9c0.5,0,1.2-0.1,2-0.1c0.9,0,1.8-0.1,2.8-0.1
		c1,0,2.1,0,3.2-0.1c1.1,0,2.2,0,3.2-0.1c1,0,2,0,2.9,0s1.6,0,2.1,0c1,0,1.4,0.5,1.4,1.4c0,0.4,0,0.8,0,1.2s0,0.8,0,1.2
		c0.4,0,1,0,1.5,0c0.6,0,1.1,0,1.7-0.1c0.6,0,1.2,0,1.8-0.1c0.6,0,1.1,0,1.5,0C84.2,99.9,84.2,99.4,84.2,99.4z M72.9,112.3
		c0.4,0,0.5-0.2,0.5-0.6c0-0.7,0-1.5,0-2.5s0-2-0.1-3c0-1-0.1-2.1-0.1-3.1c0-1.1-0.1-2-0.1-2.9l-10.5,0.3c0,0.8,0,1.8,0,2.8
		s0,2.1,0,3.1c0,1.1,0,2.2,0,3.2c0,1.1,0,2.1,0,3.1L72.9,112.3z M87.7,129.7c-0.4,1.1-1.1,2-1.9,2.8c-0.9,0.8-1.9,1.4-3.2,1.9
		c-1.2,0.5-2.7,0.7-4.3,0.8c-1.6,0.1-3.1-0.1-4.3-0.5c-1.2-0.4-2.3-0.9-3.1-1.7c-0.8-0.7-1.5-1.6-1.9-2.7c-0.4-1.1-0.7-2.2-0.7-3.5
		c0-1.1,0.2-2.2,0.6-3.3s1-2,1.8-2.8s1.8-1.5,3-2s2.7-0.8,4.3-0.9c1.6-0.1,3,0.1,4.2,0.4c1.2,0.4,2.3,0.9,3.2,1.7
		c0.9,0.7,1.5,1.6,2,2.7c0.5,1.1,0.7,2.3,0.8,3.6C88.4,127.5,88.2,128.7,87.7,129.7z M82.5,130.1c0.5-0.5,0.9-1,1.2-1.7
		c0.3-0.7,0.4-1.4,0.4-2.1c-0.1-1.6-0.6-2.8-1.7-3.7s-2.4-1.3-4.1-1.2c-0.9,0.1-1.7,0.2-2.4,0.5c-0.7,0.3-1.3,0.7-1.8,1.2
		s-0.9,1.1-1.1,1.7c-0.2,0.6-0.4,1.3-0.4,2c0,1.6,0.5,2.8,1.5,3.7s2.3,1.3,4.1,1.3c0.9,0,1.7-0.2,2.5-0.5
		C81.4,131,82,130.6,82.5,130.1z M77.7,107.8c0.4,0,0.9,0,1.5-0.1c0.6,0,1.1,0,1.7-0.1c0.6,0,1.1,0,1.7-0.1c0.6,0,1.1,0,1.5-0.1
		c0-0.6,0-1.2,0-1.8s0-1.2,0-1.9c-0.5,0-1,0-1.6,0.1c-0.6,0-1.2,0-1.7,0.1c-0.6,0-1.1,0-1.7,0.1c-0.5,0-1,0-1.4,0V107.8z"/>
</g>
<g>
	<path d="M210,145.4c0.9,0.2,1.4,0.6,1.5,1.4c0.1,1.7,0.1,3.6,0.1,5.7c0,2.1,0,4.4,0.1,6.6c0,2.3,0,4.5,0,6.8c0,2.2-0.1,4.3-0.1,6.1
		c0,0.6,0,1.2,0,1.6c0,0.5-0.1,0.9-0.2,1.2c-0.1,0.3-0.3,0.6-0.7,0.8c-0.3,0.2-0.8,0.3-1.4,0.3c-0.7,0-1.1,0-1.4-0.2
		c-0.3-0.2-0.5-0.4-0.5-0.7s-0.1-0.8-0.1-1.3s0-1.1,0-1.7c-0.1-1.5-0.1-3.2-0.1-5.1c0-1.9,0-3.8-0.1-5.7s0-3.8-0.1-5.7
		c0-1.9-0.1-3.6-0.1-5.1c-0.3,0.2-0.8,0.5-1.4,0.9c-0.6,0.4-1.3,0.8-2,1.2s-1.4,0.8-2.1,1.2c-0.7,0.4-1.3,0.7-1.7,0.9
		c-0.5,0.3-0.9,0.4-1.3,0.3c-0.4-0.1-0.8-0.3-1.1-0.8c-0.3-0.4-0.4-0.8-0.4-1.4c0-0.5,0.2-0.9,0.5-1.1c0.5-0.3,1.1-0.8,1.9-1.3
		c0.8-0.5,1.6-1,2.4-1.6c0.8-0.5,1.7-1.1,2.4-1.6c0.8-0.5,1.4-0.9,1.9-1.2c0.6-0.4,1.2-0.6,1.8-0.7
		C208.3,145.2,209.1,145.3,210,145.4z"/>
	<path d="M219.8,159c0.4-0.4,0.9-0.7,1.4-1c0.6-0.3,1.2-0.6,1.8-0.8s1.3-0.4,2-0.6c0.7-0.1,1.4-0.2,2.2-0.2c1.2,0,2.4,0.3,3.4,0.7
		c1.1,0.5,2,1.1,2.7,2c0.8,0.8,1.3,1.9,1.8,3.1c0.4,1.2,0.6,2.5,0.5,4c-0.1,1.4-0.3,2.7-0.8,3.9s-1.2,2.2-2.1,3.1
		c-0.9,0.9-1.9,1.5-3.1,2c-1.2,0.5-2.6,0.7-4,0.7c-1.1,0-2.1-0.1-3.1-0.4c-1-0.2-1.9-0.6-2.8-1c-0.8-0.4-1.6-0.9-2.2-1.5
		s-1-1.2-1.3-1.8c-0.3-0.8-0.4-1.4-0.3-1.9c0.1-0.5,0.5-1,1.1-1.4c0.5-0.3,0.9-0.4,1.3-0.4c0.4,0.1,0.7,0.4,1,1
		c0.2,0.4,0.5,0.8,0.9,1.3c0.4,0.4,0.9,0.8,1.4,1.2c0.6,0.4,1.2,0.6,1.9,0.8s1.4,0.3,2.2,0.3c0.9,0,1.7-0.2,2.4-0.6
		c0.7-0.3,1.3-0.8,1.8-1.4c0.5-0.6,0.8-1.3,1.1-2.1c0.2-0.8,0.4-1.6,0.4-2.5c0-1.6-0.5-2.9-1.3-3.9c-0.9-1-2.1-1.5-3.8-1.5
		c-1,0-1.8,0.1-2.6,0.3s-1.4,0.5-2,0.7c-0.6,0.3-1,0.5-1.3,0.8s-0.5,0.4-0.6,0.5c-0.4,0.3-0.9,0.5-1.4,0.6s-0.9,0.1-1.3,0
		c-0.4-0.1-0.7-0.3-1-0.6s-0.4-0.7-0.4-1.2c0-0.6,0-1.4,0-2.6c0-1.2,0-2.5,0-3.9s0-2.8,0-4.2s0-2.7,0-3.7c0-0.7,0.4-1.1,1.2-1.1
		c1.7-0.1,3.1-0.1,4.5-0.1c1.3,0,2.7-0.1,4-0.1s2.7-0.1,4.1-0.1c1.4,0,3.1,0,4.9,0c0.4,0,0.8,0.1,1,0.4c0.3,0.2,0.4,0.7,0.4,1.3
		c0,0.8-0.2,1.3-0.4,1.5s-0.6,0.4-1.2,0.4c-1,0.1-2.1,0.2-3.4,0.2c-1.3,0.1-2.5,0.1-3.8,0.2c-1.3,0.1-2.5,0.1-3.8,0.1
		c-1.2,0-2.3,0.1-3.3,0.1L219.8,159z"/>
</g>
<g>
	<path d="M210,334.4c0.9,0.2,1.4,0.6,1.5,1.4c0.1,1.7,0.1,3.6,0.1,5.7s0,4.4,0.1,6.6c0,2.3,0,4.5,0,6.8c0,2.2-0.1,4.3-0.1,6.1
		c0,0.6,0,1.2,0,1.6c0,0.5-0.1,0.9-0.2,1.2c-0.1,0.3-0.3,0.6-0.7,0.8c-0.3,0.2-0.8,0.3-1.4,0.3c-0.7,0-1.1,0-1.4-0.2
		c-0.3-0.2-0.5-0.4-0.5-0.7s-0.1-0.8-0.1-1.3s0-1.1,0-1.7c-0.1-1.5-0.1-3.2-0.1-5.1s0-3.8-0.1-5.7s0-3.8-0.1-5.7
		c0-1.9-0.1-3.6-0.1-5.1c-0.3,0.2-0.8,0.5-1.4,0.9c-0.6,0.4-1.3,0.8-2,1.2s-1.4,0.8-2.1,1.2c-0.7,0.4-1.3,0.7-1.7,0.9
		c-0.5,0.3-0.9,0.4-1.3,0.3c-0.4-0.1-0.8-0.3-1.1-0.8c-0.3-0.4-0.4-0.8-0.4-1.4c0-0.5,0.2-0.9,0.5-1.1c0.5-0.3,1.1-0.8,1.9-1.3
		c0.8-0.5,1.6-1,2.4-1.6c0.8-0.5,1.7-1.1,2.4-1.6c0.8-0.5,1.4-0.9,1.9-1.2c0.6-0.4,1.2-0.6,1.8-0.7
		C208.3,334.2,209.1,334.3,210,334.4z"/>
	<path d="M236.7,360.9c-1.1,1.3-2.4,2.2-4,2.9c-1.5,0.7-3.1,1.1-4.8,1.1c-1.7,0.1-3.3-0.2-4.8-0.8c-1.5-0.6-2.8-1.6-4-2.8
		c-1.1-1.3-2.1-2.8-2.7-4.7c-0.7-1.9-1-4.1-1-6.6c0-2.2,0.3-4.3,0.9-6.1c0.6-1.8,1.4-3.4,2.5-4.8c1.1-1.3,2.4-2.4,3.9-3.2
		c1.5-0.8,3.3-1.3,5.2-1.4s3.6,0.1,5.1,0.8c1.5,0.7,2.9,1.7,3.9,3c1.1,1.3,1.9,3,2.5,5s0.9,4.2,0.9,6.8c0,2.4-0.3,4.4-1,6.3
		C238.7,358.1,237.8,359.6,236.7,360.9z M231,360.3c1-0.5,1.9-1.2,2.6-2.2c0.7-1,1.3-2.1,1.8-3.5c0.4-1.4,0.7-3.1,0.7-5
		c0-2-0.2-3.7-0.7-5.1c-0.4-1.5-1-2.7-1.8-3.6c-0.7-0.9-1.6-1.6-2.6-2.1c-1-0.4-2-0.6-3.1-0.5c-2.4,0.2-4.4,1.2-5.8,3.2
		c-1.5,1.9-2.2,4.8-2.2,8.4c0,2,0.2,3.7,0.7,5.1c0.4,1.4,1,2.6,1.7,3.5s1.6,1.6,2.5,2c1,0.4,1.9,0.6,3,0.6
		C228.9,361,230,360.7,231,360.3z"/>
</g>
<g>
	<path d="M221.7,536c0.4-0.4,0.9-0.7,1.4-1c0.6-0.3,1.2-0.6,1.8-0.8s1.3-0.4,2-0.6c0.7-0.1,1.4-0.2,2.2-0.2c1.2,0,2.4,0.3,3.4,0.7
		c1.1,0.5,2,1.1,2.7,2c0.8,0.8,1.3,1.9,1.8,3.1c0.4,1.2,0.6,2.5,0.5,4c-0.1,1.4-0.3,2.7-0.8,3.9s-1.2,2.2-2.1,3.1
		c-0.9,0.9-1.9,1.5-3.1,2c-1.2,0.5-2.6,0.7-4,0.7c-1.1,0-2.1-0.1-3.1-0.4c-1-0.2-1.9-0.6-2.8-1c-0.8-0.4-1.6-0.9-2.2-1.5
		s-1-1.2-1.3-1.8c-0.3-0.8-0.4-1.4-0.3-1.9c0.1-0.5,0.5-1,1.1-1.4c0.5-0.3,0.9-0.4,1.3-0.4s0.7,0.4,1,1c0.2,0.4,0.5,0.8,0.9,1.3
		c0.4,0.4,0.9,0.8,1.4,1.2c0.6,0.4,1.2,0.6,1.9,0.8s1.4,0.3,2.2,0.3c0.9,0,1.7-0.2,2.4-0.6c0.7-0.3,1.3-0.8,1.8-1.4
		c0.5-0.6,0.8-1.3,1.1-2.1c0.2-0.8,0.4-1.6,0.4-2.5c0-1.6-0.5-2.9-1.3-3.9c-0.9-1-2.1-1.5-3.8-1.5c-1,0-1.8,0.1-2.6,0.3
		s-1.4,0.5-2,0.7c-0.6,0.3-1,0.5-1.3,0.8s-0.5,0.4-0.6,0.5c-0.4,0.3-0.9,0.5-1.4,0.6s-0.9,0.1-1.3,0s-0.7-0.3-1-0.6
		s-0.4-0.7-0.4-1.2c0-0.6,0-1.4,0-2.6c0-1.2,0-2.5,0-3.9s0-2.8,0-4.2s0-2.7,0-3.7c0-0.7,0.4-1.1,1.2-1.1c1.7-0.1,3.1-0.1,4.5-0.1
		c1.3,0,2.7-0.1,4-0.1s2.7-0.1,4.1-0.1c1.4,0,3.1,0,4.9,0c0.4,0,0.8,0.1,1,0.4c0.3,0.2,0.4,0.7,0.4,1.3c0,0.8-0.2,1.3-0.4,1.5
		s-0.6,0.4-1.2,0.4c-1,0.1-2.1,0.2-3.4,0.2c-1.3,0.1-2.5,0.1-3.8,0.2c-1.3,0.1-2.5,0.1-3.8,0.1c-1.2,0-2.3,0.1-3.3,0.1L221.7,536z"
		/>
</g>
<g>
	<path d="M27.2,735.5c0,0.5,0,1.1,0,1.7c1.7-0.1,3.2-0.1,4.7-0.2c1.5-0.1,2.6-0.1,3.5-0.2c0.6,0,1,0.1,1.2,0.3s0.4,0.7,0.4,1.3
		s-0.1,1.1-0.4,1.3c-0.3,0.2-0.7,0.4-1.3,0.4c-0.2,0-0.4,0-0.7,0s-0.6,0-1,0s-0.7,0-1,0c-0.4,0-0.7,0-0.9,0c0.6,0.3,1.1,0.7,1.5,1.1
		c0.4,0.5,0.8,1,1.1,1.6s0.5,1.3,0.7,2s0.2,1.4,0.3,2.1c0,1.3-0.2,2.4-0.6,3.5c-0.4,1.1-1.1,2.1-1.9,2.9c-0.9,0.8-1.9,1.5-3.2,2
		c-1.3,0.5-2.7,0.8-4.3,0.8c-1.6,0.1-3.1-0.1-4.3-0.5c-1.2-0.4-2.3-1-3.1-1.7c-0.9-0.8-1.5-1.7-2-2.8c-0.4-1.1-0.7-2.3-0.7-3.6
		c0-0.7,0.1-1.4,0.2-2c0.2-0.7,0.4-1.3,0.7-1.9c0.3-0.6,0.6-1.1,1-1.6s0.8-0.8,1.3-1.1c-0.3,0-0.7,0-1,0.1c-0.4,0-0.8,0-1.2,0
		c-0.4,0-0.8,0-1.1,0c-0.4,0-0.6,0-0.8,0c-0.5,0-0.9-0.1-1.2-0.3s-0.5-0.6-0.5-1.3s0.1-1.2,0.4-1.5c0.3-0.3,0.7-0.5,1.1-0.5
		c0.9-0.1,2.1-0.1,3.7-0.2c1.5-0.1,3.1-0.1,4.9-0.2c0-0.6,0-1.1-0.1-1.6c0-0.5,0-0.9,0-1.3c0-0.6,0.1-1.1,0.4-1.5s0.9-0.6,1.8-0.6
		c1-0.1,1.7,0.1,1.9,0.3c0.3,0.3,0.4,0.8,0.5,1.5C27.2,734.5,27.2,735,27.2,735.5z M25.2,753.1c1.9-0.1,3.4-0.7,4.4-1.8
		s1.5-2.7,1.4-4.6c-0.1-1.9-0.6-3.4-1.7-4.4s-2.5-1.5-4.2-1.4c-0.9,0.1-1.7,0.2-2.4,0.6c-0.7,0.3-1.3,0.8-1.8,1.3
		c-0.5,0.6-0.9,1.2-1.1,2s-0.4,1.5-0.4,2.4c0,1.9,0.6,3.3,1.6,4.4C22.2,752.7,23.5,753.2,25.2,753.1z M42.8,770.5
		c-0.1,0.6-0.3,1.1-0.7,1.4c-0.4,0.3-0.9,0.4-1.5,0.3c-0.6-0.1-1-0.2-1.3-0.5c-0.2-0.3-0.4-0.7-0.4-1.3c0-0.5,0-1.1,0-1.7
		s0-1.4,0-2.1c0-0.7,0-1.5,0-2.2s0-1.4,0-2c-1,0.1-2.3,0.1-3.8,0.2c-1.5,0.1-3,0.1-4.6,0.1s-3.1,0.1-4.6,0.1s-2.8,0.1-3.9,0.1
		c-0.6,0-1-0.1-1.2-0.4s-0.4-0.7-0.4-1.4c0-0.6,0.2-1,0.5-1.3s0.7-0.4,1.1-0.4c1.4-0.1,2.9-0.2,4.7-0.3c1.7-0.1,3.5-0.2,5.3-0.2
		c1.8-0.1,3.6-0.1,5.3-0.2c1.7,0,3.2-0.1,4.5-0.1c0.6,0,0.9,0.1,1.1,0.4c0.2,0.3,0.3,0.7,0.3,1.2c0,1.7,0,3.4-0.1,5.1
		C43.1,767.2,43,768.8,42.8,770.5z M44.1,740.6c0,1.1,0,2.3,0,3.5c0.7,0,1.4,0,2.1,0c0.7,0,1.2,0,1.4,0c0.6,0,1,0.1,1.3,0.4
		s0.4,0.7,0.4,1.3s-0.1,1.1-0.3,1.5s-0.5,0.6-1.1,0.6c-0.3,0-0.9,0-1.6,0.1c-0.7,0-1.5,0-2.3,0c0,1.6-0.1,3.1-0.1,4.5
		s-0.1,2.4-0.2,3.1c-0.1,0.8-0.3,1.3-0.7,1.6s-0.9,0.4-1.4,0.3c-0.6,0-1.1-0.2-1.4-0.4c-0.3-0.3-0.5-0.8-0.5-1.6c0-0.6,0-1.7,0-3
		s0-2.9,0-4.6c0-1.7,0-3.5,0.1-5.3s0-3.5,0.1-5.1c0-0.8,0.2-1.3,0.5-1.6s0.9-0.5,1.8-0.5c1.5,0,2.2,0.7,2.2,2.2
		C44.1,738.4,44.1,739.5,44.1,740.6z"/>
	<path d="M61.3,740.1c0.1,1.4,0.1,2.9,0.1,4.3c1.2,1.2,2.4,2.4,3.5,3.4c1.1,1,2.2,2.1,3.1,3c0.4,0.4,0.6,0.8,0.7,1.2s0,0.8-0.4,1.3
		s-0.8,0.8-1.2,1c-0.4,0.1-0.8,0-1.3-0.3c-1.1-1-2.2-1.9-3.2-2.8c-1-0.9-2.1-1.9-3.3-3c-1.1,1.6-2.1,3.1-3,4.3
		c-1,1.2-1.9,2.4-2.9,3.5c-0.4,0.4-0.9,0.6-1.4,0.5s-1-0.4-1.4-0.9c-0.3-0.4-0.5-0.8-0.4-1.2c0.1-0.3,0.3-0.7,0.6-1.1
		c0.4-0.5,0.8-1.1,1.3-1.8s1.1-1.4,1.6-2.2s1.1-1.5,1.6-2.3s1-1.5,1.4-2.2c-0.1-1.5-0.1-3-0.2-4.4s-0.2-2.9-0.2-4.2
		c0-0.6,0.1-1.1,0.4-1.5c0.3-0.3,0.9-0.6,1.8-0.6c1-0.1,1.6,0.1,1.9,0.3c0.3,0.3,0.4,0.8,0.4,1.5C61.3,737.3,61.3,738.7,61.3,740.1z
		 M82.2,767.8c-0.4,1.1-1.1,2-1.9,2.8c-0.9,0.8-1.9,1.4-3.2,1.9c-1.3,0.5-2.7,0.7-4.4,0.8c-1.7,0.1-3.1-0.1-4.4-0.5
		s-2.3-0.9-3.2-1.7c-0.9-0.7-1.5-1.6-2-2.7c-0.4-1.1-0.7-2.2-0.7-3.5c0-1.1,0.2-2.2,0.6-3.3c0.4-1,1-2,1.8-2.8
		c0.8-0.8,1.9-1.5,3.1-2s2.7-0.8,4.4-0.9c1.6-0.1,3.1,0.1,4.3,0.4c1.3,0.4,2.4,0.9,3.2,1.7c0.9,0.7,1.6,1.6,2,2.7
		c0.5,1.1,0.7,2.3,0.8,3.6C82.8,765.5,82.6,766.7,82.2,767.8z M77.1,768.1c1.1-1,1.6-2.3,1.6-3.8c-0.1-1.6-0.6-2.8-1.7-3.7
		s-2.5-1.3-4.4-1.2c-1,0.1-1.8,0.2-2.5,0.5s-1.3,0.7-1.8,1.2s-0.9,1-1.1,1.7s-0.4,1.3-0.4,2c0,1.6,0.6,2.8,1.6,3.7s2.5,1.3,4.3,1.3
		C74.5,769.7,76,769.2,77.1,768.1z M77.6,742.7c1,0,1.8,0,2.4,0c0-1,0.1-2.1,0.1-3c0-1,0.1-2,0.1-2.9c0-0.5,0.2-0.9,0.5-1.2
		s0.8-0.4,1.6-0.4c0.8,0,1.3,0.2,1.7,0.4c0.3,0.3,0.5,0.6,0.5,1.1c-0.1,3.1-0.1,6.2-0.2,9.3s-0.2,6-0.4,8.7
		c-0.1,1.3-0.8,1.9-2.1,1.8c-1.2,0-1.8-0.7-1.8-2c0-1.2,0-2.4,0-3.8c0-1.4,0-2.8,0.1-4.3c-0.7,0-1.6,0-2.5,0s-1.8,0-2.5,0
		c0,1,0,2.1-0.1,3.1c0,1,0,2.1-0.1,3.2c0,1.2-0.7,1.8-2,1.8s-1.9-0.7-1.9-2c-0.1-2.5-0.1-5-0.2-7.5s-0.1-5.2-0.1-8
		c0-0.5,0.1-0.9,0.4-1.2c0.3-0.2,0.8-0.4,1.6-0.4c0.8,0,1.3,0.1,1.7,0.4c0.3,0.3,0.5,0.7,0.5,1.2c0,1,0,2,0,2.9s0,1.8,0,2.7
		C75.7,742.7,76.6,742.7,77.6,742.7z"/>
	<path d="M114.9,736.5c0,2,0,4.3,0,6.6c0.9,0.5,2,1,3.2,1.6s2.4,1.2,3.7,1.8c1.2,0.6,2.4,1.2,3.6,1.7c1.1,0.5,2.1,1,2.9,1.4
		c0.4,0.2,0.6,0.5,0.7,0.9c0.1,0.4,0,0.9-0.3,1.5s-0.7,1-1.2,1.1s-1,0-1.4-0.2c-0.7-0.3-1.6-0.7-2.7-1.2s-2.4-1.1-3.6-1.6
		c-1.3-0.6-2.5-1.1-3.7-1.7c-1.2-0.6-2.2-1.1-2.9-1.4c-0.7,0.6-1.6,1.3-2.5,2s-1.9,1.4-2.8,2.1c-1,0.7-1.9,1.4-2.8,2
		s-1.7,1.2-2.4,1.6c-1,0.6-1.9,0.5-2.7-0.4c-0.3-0.4-0.5-0.8-0.5-1.2s0.2-0.7,0.5-1c0.8-0.6,1.6-1.3,2.6-2c0.9-0.7,1.9-1.4,2.8-2.2
		c0.9-0.7,1.9-1.5,2.8-2.2c0.9-0.8,1.7-1.5,2.4-2.1c0-1.1-0.1-2.2-0.1-3.4s-0.1-2.3-0.1-3.2c0-0.6,0.1-1.1,0.4-1.5
		c0.3-0.3,0.9-0.6,1.8-0.6c1-0.1,1.7,0.1,2,0.3C114.7,735.3,114.9,735.8,114.9,736.5z M127.2,760.2c-3.5,0.3-7.1,0.6-10.8,0.8
		c0,1.4,0,2.8,0,4.2s-0.1,2.7-0.1,3.9c-0.1,0.8-0.3,1.4-0.7,1.7c-0.4,0.3-0.9,0.4-1.5,0.4s-1.1-0.2-1.4-0.5s-0.5-0.9-0.5-1.7
		c-0.1-1.1-0.1-2.4-0.1-3.7s0-2.7,0-4.1c-1.6,0.1-3.2,0.1-4.9,0.2c-1.6,0-3.3,0.1-4.9,0.1c-1.1,0-1.6-0.6-1.6-1.9
		c0-0.6,0.1-1.1,0.4-1.4c0.3-0.3,0.7-0.5,1.3-0.5c4.4-0.2,8.7-0.4,13-0.6s8.3-0.4,12.1-0.5c0.5,0,0.9,0.1,1.1,0.4
		c0.2,0.3,0.3,0.7,0.3,1.2c0,0.6-0.1,1.1-0.4,1.4S127.7,760.2,127.2,760.2z"/>
</g>
<g>
	<path d="M181.9,802.7c-1,0-1.9,0.1-2.7,0.1c-0.1,1.5-0.1,2.7-0.1,3.8s-0.1,1.9-0.1,2.4c-0.2,1.2-0.9,1.8-2.1,1.7
		c-0.6-0.1-1.1-0.2-1.3-0.5c-0.3-0.3-0.4-0.7-0.4-1.3c0-0.3,0-1.1,0-2.1c0-1.1,0-2.4,0-3.8s0-3,0-4.7s0-3.3,0-4.8s0-2.8,0-4
		c0-1.1,0-1.9,0-2.4c-0.7,0-1.5,0.1-2.4,0.1s-1.7,0.1-2.6,0.1c-0.9,0-1.8,0-2.7,0.1c-0.9,0-1.7,0-2.5,0c-1.1,0-1.6-0.6-1.6-1.8
		c0-0.6,0.2-1,0.5-1.3s0.7-0.4,1.1-0.4c1,0,2-0.1,3.2-0.1c1.2-0.1,2.4-0.1,3.6-0.2c1.2-0.1,2.4-0.1,3.5-0.1s2.1,0,2.8,0
		c0.6,0,0.9,0.1,1.1,0.4s0.3,0.7,0.3,1.2c0,0.4,0,0.9,0,1.6c0,0.7,0,1.5,0,2.4c0.8-0.1,1.7-0.1,2.6-0.1c0.9,0,1.7-0.1,2.4-0.1
		c0-0.8,0-1.6,0-2.3c0-0.8,0-1.6,0-2.4c0-0.6,0.2-1,0.5-1.2c0.3-0.3,0.9-0.4,1.7-0.4s1.3,0.1,1.6,0.4c0.3,0.2,0.5,0.6,0.5,1.2
		c0,2.7,0,5.1,0,7.4s0,4.5-0.1,6.8c0,2.2-0.1,4.5-0.1,6.8c-0.1,2.3-0.1,4.8-0.2,7.4c0,0.7-0.2,1.2-0.5,1.4c-0.3,0.3-0.8,0.4-1.4,0.4
		c-1.2,0-1.8-0.7-1.8-2c0-1.6,0-3.2,0-4.9s0-3.2,0-4.9C183.8,802.6,182.9,802.6,181.9,802.7z M184.5,792.6c-0.7,0.1-1.6,0.1-2.5,0.1
		s-1.8,0.1-2.6,0.1c0,1,0,2,0,3s0,2.1-0.1,3.2c0.8-0.1,1.7-0.1,2.7-0.1s1.8-0.1,2.5-0.1L184.5,792.6L184.5,792.6z M196.3,813.1
		c-0.1,1.3-0.8,1.9-2,1.8c-1.1,0-1.7-0.7-1.7-2c0-2.7,0-5.2,0.1-7.6c0-2.4,0.1-4.8,0.1-7.1s0.1-4.7,0.2-7.1c0.1-2.4,0.1-4.9,0.2-7.5
		c0-0.5,0.2-0.9,0.5-1.2s0.8-0.4,1.6-0.4s1.3,0.2,1.7,0.4c0.3,0.3,0.5,0.6,0.5,1.1c0,2.7,0,5.2-0.1,7.6c-0.1,2.4-0.1,4.7-0.2,7.1
		s-0.2,4.7-0.3,7.1C196.6,807.9,196.5,810.4,196.3,813.1z"/>
	<path d="M214.6,788.1c0,1,0,2.2,0,3.4c1.6,0.9,3.2,1.7,4.7,2.5c1.6,0.8,3,1.5,4.2,2.2c1,0.5,1.1,1.3,0.4,2.3c-0.3,0.5-0.7,0.9-1,1
		s-0.7,0.1-1.2-0.2c-1.2-0.6-2.6-1.2-4.2-2c-1.6-0.7-3.2-1.5-4.8-2.4c-0.6,0.6-1.2,1.1-1.8,1.7s-1.3,1.2-1.9,1.8s-1.3,1.2-1.9,1.7
		c-0.6,0.5-1.2,1-1.7,1.4c-0.4,0.4-0.9,0.5-1.4,0.4s-0.9-0.3-1.3-0.8c-0.3-0.4-0.5-0.8-0.4-1.1s0.3-0.7,0.6-1
		c0.5-0.5,1.1-1.1,1.7-1.7c0.6-0.6,1.3-1.2,1.9-1.9c0.6-0.6,1.3-1.3,1.9-1.9c0.6-0.6,1.1-1.2,1.6-1.7c0-0.7-0.1-1.3-0.1-1.8
		c0-0.6-0.1-1.1-0.1-1.6s0-1-0.1-1.6c0-0.5,0-1.1-0.1-1.6c-1.5,0.1-2.9,0.2-4.2,0.2c-1.3,0.1-2.3,0.1-3.1,0.1
		c-0.5,0-0.9-0.1-1.2-0.4c-0.3-0.3-0.5-0.7-0.5-1.4s0.1-1.1,0.4-1.4c0.3-0.3,0.7-0.4,1.1-0.5c0.7,0,1.6-0.1,2.7-0.1
		c1.1-0.1,2.3-0.1,3.5-0.2c1.2-0.1,2.5-0.1,3.9-0.2c1.3-0.1,2.6-0.1,3.9-0.2c1.2-0.1,2.4-0.1,3.5-0.1s2-0.1,2.7-0.1
		c0.6,0,1,0.1,1.2,0.3c0.3,0.2,0.4,0.7,0.4,1.3s-0.1,1.1-0.4,1.4c-0.3,0.3-0.7,0.4-1.3,0.5c-0.8,0.1-1.9,0.1-3.4,0.2
		c-1.5,0.1-3,0.2-4.7,0.3C214.5,786,214.6,787,214.6,788.1z M224.1,809.1c1.4-0.1,2.7-0.1,3.8-0.2c0-0.5,0-1,0-1.6s0-1.1,0-1.6
		c-1.2,0.1-2.6,0.1-4,0.2c-1.4,0.1-2.9,0.1-4.4,0.2c-1.5,0.1-2.9,0.1-4.3,0.2c-1.4,0.1-2.8,0.1-4,0.1c-0.4,0-0.8-0.1-1-0.3
		c-0.2-0.3-0.3-0.7-0.3-1.3s0.1-1.1,0.3-1.4c0.2-0.3,0.6-0.4,1-0.4c3.1-0.2,6.3-0.3,9.7-0.4s6.8-0.2,10.3-0.4c0.3,0,0.6,0.1,0.7,0.2
		c0.2,0.2,0.3,0.4,0.3,0.8c0,0.5,0,1.1,0,1.7c0,0.6,0,1.3-0.1,1.9c0,0.7-0.1,1.3-0.1,1.9s-0.1,1.2-0.1,1.7c-0.1,0.6-0.2,1-0.4,1.2
		s-0.6,0.4-1.3,0.4c-2.3,0.1-4.8,0.2-7.4,0.3c-2.6,0.1-5.2,0.2-7.8,0.3c0,0.4,0,0.9,0,1.4s0,1,0,1.4c2.6,0,5.3-0.1,8-0.1
		s5.5-0.1,8.3-0.1c0.4,0,0.7,0.1,0.9,0.4c0.2,0.3,0.3,0.7,0.3,1.1c0,0.5-0.1,0.9-0.2,1.2c-0.1,0.3-0.5,0.5-1,0.6
		c-1.7,0.1-3.2,0.1-4.6,0.1c-1.4,0-2.8,0.1-4.3,0.1c-1.4,0-2.8,0-4.3,0.1c-1.4,0-3,0-4.6,0c-1,0-1.7-0.2-2-0.5
		c-0.4-0.4-0.6-1-0.6-1.9c-0.1-0.8-0.1-1.8-0.1-2.9c0-1.1-0.1-2-0.1-2.9c0-0.3,0-0.6,0.1-0.8s0.3-0.3,0.6-0.3
		c1.1-0.1,2.4-0.1,3.8-0.2c1.4-0.1,2.9-0.1,4.4-0.2C221.2,809.2,222.7,809.2,224.1,809.1z M226.7,787.8c0.7,0,1.3-0.1,2-0.1
		c0-0.6,0-1.1,0-1.6s0-1.1,0-1.6c0-0.8,0.2-1.3,0.5-1.6s0.9-0.5,1.8-0.5c1.5,0,2.2,0.7,2.2,2.2c0,1.3,0,2.7-0.1,4.1
		c0,1.4,0,2.8-0.1,4.1c0,1.3-0.1,2.5-0.1,3.7c-0.1,1.1-0.1,2.1-0.2,2.8c-0.1,0.8-0.3,1.3-0.7,1.6s-0.9,0.4-1.4,0.3
		c-0.6,0-1.1-0.2-1.4-0.4s-0.5-0.8-0.5-1.6s0-1.8,0-3.1s0-2.8,0-4.5c-0.6,0-1.3,0.1-1.9,0.1c-0.7,0-1.3,0-1.9,0.1
		c-0.6,0-1.1,0-1.5,0s-0.7,0-0.9,0c-0.6,0-1-0.2-1.2-0.5s-0.3-0.8-0.4-1.4c0-1.2,0.4-1.9,1.4-1.9c0.2,0,0.5,0,0.9,0s1,0,1.6-0.1
		C225.4,787.8,226,787.8,226.7,787.8z"/>
</g>
<g>
	<path d="M351.4,780.4c2.2-0.1,4.2-0.1,6.2-0.2c2-0.1,3.9-0.1,5.6-0.2c0.5,0,0.9,0.1,1.1,0.4c0.2,0.3,0.3,0.7,0.3,1.2
		c0,0.6-0.1,1.1-0.4,1.4c-0.3,0.3-0.7,0.5-1.1,0.5c-2,0.1-4.1,0.2-6.5,0.3c-2.3,0.1-4.7,0.2-7.1,0.3s-4.8,0.2-7.2,0.2
		c-2.4,0.1-4.7,0.1-6.8,0.2c-1.1,0.1-1.6-0.6-1.6-1.8c0-0.6,0.1-1.1,0.4-1.4s0.7-0.5,1.3-0.5c1.8-0.1,3.6-0.1,5.5-0.2
		c1.9-0.1,3.9-0.1,5.9-0.2v-2.9c-1.8,0.1-3.4,0.1-4.8,0.1s-2.3,0-2.8,0c-1.1,0-1.9-0.2-2.4-0.6c-0.5-0.4-0.8-1.3-0.9-2.6
		c-0.1-0.7-0.1-1.6-0.1-2.6s-0.1-2-0.1-3.1c-0.1-1.1-0.1-2.1-0.1-3.1s-0.1-1.9-0.1-2.7c0-0.6,0.2-1,0.5-1.3s0.9-0.5,1.7-0.5
		c0.9,0,1.5,0.1,1.8,0.4c0.3,0.3,0.5,0.7,0.5,1.3c0,0.8,0,1.5,0,2.1s0,1.2,0,1.7c2.9-0.1,5.9-0.2,8.8-0.3c3-0.1,5.9-0.2,8.8-0.3
		c0-0.4,0-0.8,0-1.2s0-1.1,0-2c0-1.2,0.8-1.8,2.3-1.8c0.8,0,1.3,0.1,1.7,0.4c0.3,0.3,0.5,0.7,0.5,1.2c0,0.9,0,1.9,0,3
		s-0.1,2.3-0.1,3.5s-0.1,2.4-0.1,3.5s-0.1,2.2-0.1,3.1c0,0.6-0.2,1-0.5,1.2s-0.8,0.4-1.3,0.4c-0.8,0.1-2,0.1-3.5,0.1
		c-1.6,0-3.3,0.1-5.1,0.1v2.9L351.4,780.4L351.4,780.4z M361.1,792.5c0,1.4-0.1,2.7-0.1,3.9c-0.1,0.6-0.2,1.1-0.4,1.4
		c-0.2,0.3-0.6,0.5-1.1,0.5c-0.4,0-1.2,0.1-2.2,0.1s-2.2,0.1-3.4,0.1c-1.3,0-2.6,0.1-4.1,0.1c-1.4,0-2.8,0.1-4.1,0.1
		c-1.3,0-2.4,0-3.4,0.1c-1,0-1.7,0-2.1,0c-1.6,0-2.4-0.8-2.5-2.5c-0.1-1.1-0.2-2.3-0.2-3.4c-0.1-1.2-0.1-2.4-0.1-3.7
		c0-1.2,0.5-1.8,1.6-1.9c0.5,0,1.3-0.1,2.4-0.1s2.3-0.1,3.7-0.1c1.4,0,2.8-0.1,4.3-0.1c1.5-0.1,3-0.1,4.4-0.1s2.6,0,3.7-0.1
		c1.1,0,1.9,0,2.5,0c0.4,0,0.7,0.1,0.9,0.4s0.3,0.6,0.3,1C361.2,789.6,361.1,791.1,361.1,792.5z M340.4,772.1c0,0.6,0,1.3,0.1,2
		c0.3,0,0.8,0,1.6,0c0.8,0,1.8,0,3,0c1.1,0,2.3,0,3.6-0.1c1.3,0,2.5-0.1,3.6-0.1s2.1,0,2.9-0.1c0.8,0,1.4,0,1.7,0
		c0.2,0,0.4-0.1,0.6-0.2c0.2-0.1,0.2-0.3,0.2-0.6c0-0.8,0-1.5,0-2s0-0.9,0-1.3c-2.9,0.1-5.8,0.2-8.7,0.3c-3,0.1-5.8,0.2-8.7,0.3
		C340.4,771,340.4,771.5,340.4,772.1z M356.4,794.8c0.4,0,0.5-0.2,0.5-0.6c0-0.6,0-1.3,0-1.9c0-0.7,0-1.4-0.1-2.1l-15.3,0.5
		c0,0.7,0,1.5,0,2.2s0,1.5,0.1,2.2L356.4,794.8z"/>
</g>
<g>
	<path d="M560.1,782.6c-0.5,0-1,0-1.3,0c-0.9,1.5-2.2,2.6-3.8,3.4c-1.6,0.8-3.4,1.2-5.5,1.3c-3.4,0.1-6.1-0.8-8-2.6
		s-2.9-4.6-2.9-8.3c0-1.5,0.2-3,0.7-4.3s1.2-2.5,2.1-3.5c0.9-1,2.1-1.8,3.4-2.4c1.4-0.6,2.9-1,4.7-1c2-0.1,3.7,0.3,5.2,0.9
		c1.5,0.7,2.7,1.7,3.6,3c0.3,0,0.8-0.1,1.4-0.1c0.6,0,1.3-0.1,2-0.1s1.5-0.1,2.2-0.1s1.4-0.1,2-0.1c0-0.7,0.1-1.4,0.1-2.1
		c0-0.7,0.1-1.4,0.1-2.1c0-0.8,0.2-1.3,0.6-1.6c0.3-0.3,0.9-0.5,1.8-0.5c1.5,0,2.2,0.7,2.2,2.2c0,2.3-0.1,4.7-0.1,7.1
		c-0.1,2.4-0.1,4.9-0.2,7.3c-0.1,2.4-0.2,4.8-0.3,7.2s-0.3,4.6-0.4,6.7c-0.1,0.8-0.3,1.4-0.7,1.7s-0.9,0.4-1.5,0.4
		c-0.6-0.1-1.1-0.3-1.4-0.7c-0.3-0.4-0.4-1-0.4-1.9c0-1.7,0-3.3,0-4.9s0-3.3,0-4.9c-0.6,0-1.2,0.1-1.8,0.1c-0.7,0-1.3,0.1-1.9,0.1
		C561.2,782.6,560.6,782.6,560.1,782.6z M552.1,782.9c0.8-0.4,1.5-0.9,2.1-1.5s1-1.4,1.3-2.3c0.3-0.9,0.5-1.9,0.5-2.9
		c0-2.3-0.6-4.1-1.8-5.4c-1.2-1.3-2.8-1.9-4.8-1.8c-1.1,0-2,0.2-2.8,0.6c-0.8,0.4-1.5,0.9-2,1.6s-1,1.4-1.2,2.3
		c-0.3,0.9-0.4,1.9-0.4,2.9c0,2.4,0.6,4.1,1.7,5.3c1.1,1.2,2.7,1.8,4.7,1.7C550.4,783.5,551.3,783.3,552.1,782.9z M560.4,777.6
		c0,0.4-0.1,0.8-0.1,1.2c0.8-0.1,1.8-0.1,2.8-0.1s1.9-0.1,2.6-0.1c0-1,0-2.1,0.1-3.1c0-1,0-2.1,0.1-3.1c-0.9,0.1-1.8,0.1-2.9,0.1
		c-1.1,0-2.1,0.1-2.9,0.1c0.3,1.2,0.5,2.4,0.5,3.7C560.4,776.8,560.4,777.2,560.4,777.6z"/>
	<path d="M584.2,784.4c-2.4,0.1-4.7,0.1-6.8,0.2c-1.1,0.1-1.6-0.5-1.6-1.8c0-0.6,0.1-1.1,0.4-1.3c0.3-0.3,0.7-0.4,1.3-0.5
		c2.2-0.1,4.5-0.2,7-0.2c2.4-0.1,4.9-0.1,7.3-0.2c2.4-0.1,4.8-0.1,7.1-0.2c2.3-0.1,4.4-0.1,6.3-0.2c0.5,0,0.9,0.1,1.1,0.4
		c0.2,0.3,0.3,0.7,0.3,1.2c0,0.6-0.1,1.1-0.4,1.3c-0.3,0.3-0.7,0.4-1.1,0.4c-2,0.1-4.1,0.2-6.5,0.3c-2.3,0.1-4.7,0.2-7.1,0.3
		S586.6,784.4,584.2,784.4z M599.3,764.7c-0.9,0-1.9,0.1-3,0.1s-2.4,0.1-3.7,0.1s-2.6,0.1-4,0.1s-2.7,0.1-3.9,0.1s-2.4,0.1-3.4,0.1
		s-1.9,0-2.6,0c-0.4,0-0.7-0.1-0.9-0.4c-0.2-0.2-0.3-0.7-0.3-1.4s0.1-1.2,0.3-1.4c0.2-0.3,0.6-0.4,1.1-0.4c1.9-0.1,3.8-0.1,5.9-0.2
		c2-0.1,4.1-0.1,6.1-0.2c2-0.1,4.1-0.1,6.1-0.2c2,0,3.9-0.1,5.8-0.1c0.7,0,1,0.4,1,1.2c0,0.5,0,1.1,0,1.7c0,0.6,0,1.2-0.1,1.9
		c0,0.6,0,1.3-0.1,1.9s0,1.2-0.1,1.7c0,0.5-0.2,0.9-0.4,1.2c-0.3,0.3-0.7,0.4-1.3,0.5c-0.8,0.1-1.7,0.1-2.8,0.2
		c-1.1,0.1-2.2,0.1-3.5,0.2c-1.2,0.1-2.5,0.1-3.8,0.2c-1.3,0.1-2.5,0.2-3.7,0.2c-1.2,0.1-2.3,0.1-3.4,0.2c-1,0.1-1.9,0.1-2.6,0.2
		c0,0.4,0,0.7,0,1.1c0,0.3,0,0.7,0.1,1c0,0.2,0.1,0.3,0.1,0.4s0.2,0.1,0.4,0.1c1.5,0,3.1-0.1,4.7-0.1c1.7-0.1,3.3-0.1,5-0.2
		c1.7-0.1,3.4-0.1,5.1-0.1c1.7,0,3.4-0.1,5-0.1c0.5,0,0.8,0.1,1.1,0.3s0.4,0.7,0.4,1.3c0,1.1-0.4,1.6-1.3,1.6
		c-3.6,0.2-7.3,0.4-10.8,0.6c-3.6,0.2-7.2,0.3-10.8,0.4c-1.1,0.1-1.9-0.1-2.4-0.5c-0.4-0.4-0.7-1-0.8-1.8s-0.2-1.7-0.2-2.8
		c-0.1-1.1-0.1-2.1,0-3c0-0.8,0.3-1.2,0.9-1.2c0.7-0.1,1.6-0.1,2.7-0.2c1.1-0.1,2.2-0.1,3.5-0.2c1.3-0.1,2.6-0.2,3.9-0.2
		c1.4-0.1,2.7-0.1,4-0.2c1.3-0.1,2.5-0.2,3.6-0.2c1.1-0.1,2.1-0.1,2.9-0.2v-3.3L599.3,764.7L599.3,764.7z M603.1,792.6
		c0,1.3-0.1,2.6-0.1,3.7c-0.1,0.6-0.2,1.1-0.4,1.4c-0.2,0.3-0.6,0.5-1.1,0.5c-0.4,0-1.2,0.1-2.2,0.1s-2.2,0.1-3.4,0.1
		c-1.3,0-2.6,0.1-4.1,0.1c-1.4,0-2.8,0.1-4.1,0.1s-2.4,0-3.4,0.1c-1,0-1.7,0-2.1,0c-1.6,0-2.4-0.8-2.5-2.5c-0.1-1.1-0.2-2.2-0.2-3.3
		c-0.1-1.1-0.1-2.3-0.1-3.6c0-1.2,0.5-1.8,1.6-1.9c0.5,0,1.3-0.1,2.4-0.1c1.1,0,2.3-0.1,3.7-0.1s2.8-0.1,4.3-0.1
		c1.5-0.1,3-0.1,4.4-0.1s2.6,0,3.7-0.1c1.1,0,1.9,0,2.5,0c0.4,0,0.7,0.1,0.9,0.4c0.2,0.2,0.3,0.6,0.3,1
		C603.1,789.8,603.1,791.3,603.1,792.6z M598.4,794.9c0.4,0,0.5-0.2,0.5-0.6c0-0.6,0-1.2,0-1.9c0-0.6,0-1.3,0-2.1l-15.3,0.5
		c0,0.7,0,1.5,0,2.2s0,1.5,0.1,2.2L598.4,794.9z"/>
</g>
<g>
	<path d="M771,790.8c-1.2-0.1-1.8-0.7-1.8-1.8c0-0.3,0-1.1,0-2.1s0-2.4,0-3.8s0-3,0-4.7s0-3.3,0-4.8s0-2.8,0-4c0-1.1,0-1.9,0-2.4
		c-2.1,0.1-4.3,0.1-6.6,0.2c-2.3,0-4.5,0.1-6.7,0.1c-1.1,0-1.6-0.6-1.6-1.8c0-0.6,0.2-1,0.5-1.3s0.7-0.4,1.1-0.4
		c2.8-0.1,5.6-0.3,8.4-0.3c2.8-0.1,5.5-0.1,8.1-0.1c0.6,0,0.9,0.1,1.1,0.4c0.2,0.3,0.3,0.7,0.3,1.2c0,0.6,0,1.5,0,2.7
		c0,1.3,0,2.7,0,4.3s0,3.3-0.1,5.1c0,1.8-0.1,3.5-0.1,5s-0.1,3-0.1,4.2c-0.1,1.2-0.1,2.1-0.2,2.7c-0.1,0.6-0.3,1.1-0.7,1.4
		C772.1,790.7,771.6,790.8,771,790.8z M785.1,778.8c-0.4,0-0.9,0-1.3,0c-0.1,2.5-0.2,4.9-0.4,7.2s-0.3,4.6-0.4,6.8
		c-0.1,0.8-0.3,1.4-0.7,1.7s-0.9,0.4-1.5,0.4c-0.6-0.1-1.1-0.3-1.4-0.7c-0.3-0.4-0.4-1-0.4-1.9c0-9.4,0.2-18.6,0.5-27.8
		c0-0.8,0.2-1.3,0.6-1.6c0.4-0.3,0.9-0.5,1.8-0.5c1.5,0,2.2,0.7,2.2,2.2c0,1.7-0.1,3.4-0.1,5.1c0,1.7-0.1,3.5-0.1,5.3
		c0.4,0,0.8,0,1.3,0c0.4,0,0.8,0,1.2,0s0.7,0,1,0s0.5,0,0.7,0c0.6,0,1,0.1,1.3,0.4s0.4,0.7,0.4,1.3s-0.1,1.1-0.3,1.5
		s-0.5,0.6-1.1,0.6c-0.2,0-0.5,0-0.8,0.1c-0.3,0-0.7,0-1.1,0S785.5,778.8,785.1,778.8z"/>
	<path d="M799.4,782.4c-2.4,0.1-4.7,0.1-6.8,0.2c-1.1,0.1-1.6-0.5-1.6-1.8c0-0.6,0.1-1.1,0.4-1.3c0.3-0.3,0.7-0.4,1.3-0.4
		c2.2-0.1,4.5-0.2,7-0.2c2.4-0.1,4.9-0.1,7.3-0.2c2.4-0.1,4.8-0.1,7.1-0.2s4.4-0.1,6.3-0.2c1,0,1.5,0.5,1.5,1.6
		c0,0.6-0.1,1.1-0.4,1.4c-0.3,0.3-0.7,0.4-1.1,0.4c-2,0.1-4.1,0.2-6.5,0.3c-2.3,0.1-4.7,0.2-7.1,0.3S801.8,782.4,799.4,782.4z
		 M799.5,795.5c1.3,0,2.7,0,4.2,0s3.1,0,4.7-0.1s3.2,0,4.7-0.1c1.6,0,3.1-0.1,4.5-0.1c0.4,0,0.7,0.1,0.9,0.4s0.3,0.6,0.3,1.1
		s-0.1,0.9-0.2,1.2c-0.1,0.3-0.5,0.5-1,0.6c-3.3,0.1-6.6,0.2-9.8,0.3c-3.2,0-6.5,0.1-9.8,0.1c-1,0-1.7-0.2-2-0.5
		c-0.4-0.4-0.6-1-0.6-1.9c-0.1-0.8-0.1-1.6-0.1-2.2c0-0.7-0.1-1.4-0.1-2.2c0-0.3,0-0.6,0.1-0.8s0.3-0.3,0.6-0.3
		c1.1-0.1,2.5-0.1,4.1-0.2c1.6-0.1,3.3-0.1,5-0.2c1.7-0.1,3.4-0.1,5-0.1s3-0.1,4.1-0.1c0-0.5,0-0.9,0-1.2s0-0.7,0-1.2
		c-1.2,0.1-2.7,0.1-4.3,0.2c-1.6,0.1-3.3,0.1-5,0.2c-1.7,0.1-3.3,0.1-5,0.2c-1.6,0.1-3.1,0.1-4.3,0.1c-0.4,0-0.8-0.1-1-0.3
		s-0.3-0.7-0.3-1.3s0.1-1.1,0.3-1.4c0.2-0.3,0.6-0.4,1-0.4c1.5-0.1,3.2-0.2,5-0.2c1.8-0.1,3.7-0.1,5.5-0.2c1.9-0.1,3.8-0.1,5.7-0.2
		c1.9-0.1,3.7-0.1,5.5-0.2c0.3,0,0.6,0.1,0.7,0.2c0.2,0.2,0.3,0.4,0.3,0.8c0,1,0,2.1-0.1,3.2c-0.1,1.1-0.1,2.1-0.2,3.1
		c-0.1,0.6-0.2,1-0.4,1.2s-0.6,0.4-1.3,0.4c-1.1,0.1-2.5,0.1-3.9,0.1c-1.5,0-2.9,0.1-4.5,0.1c-1.5,0.1-3,0.1-4.6,0.1
		s-2.9,0.1-4.2,0.1L799.5,795.5z M816.3,771.8c-0.5,1.1-1.3,2-2.3,2.7s-2.2,1.3-3.6,1.7c-1.4,0.4-3,0.6-4.7,0.6
		c-3.2,0-5.8-0.7-7.6-2.1c-1.9-1.4-2.8-3.4-2.8-6c0-1.2,0.3-2.3,0.8-3.4c0.5-1.1,1.3-2,2.2-2.8c1-0.8,2.1-1.4,3.5-1.9s3-0.7,4.8-0.7
		c1.5,0,3,0.2,4.2,0.5c1.3,0.4,2.4,0.9,3.3,1.6c0.9,0.7,1.7,1.6,2.2,2.6s0.8,2.1,0.8,3.4C817.1,769.4,816.8,770.7,816.3,771.8z
		 M810.9,771.9c1.1-0.9,1.7-2.2,1.6-3.9c-0.1-1.5-0.7-2.6-1.8-3.4c-1.1-0.8-2.6-1.2-4.5-1.2c-1,0-2,0.1-2.8,0.4
		c-0.8,0.3-1.5,0.6-2,1.1c-0.6,0.5-1,1-1.3,1.6s-0.4,1.3-0.4,2c0,1.5,0.5,2.7,1.6,3.5c1.1,0.9,2.6,1.3,4.6,1.3
		C808.1,773.3,809.7,772.8,810.9,771.9z"/>
</g>
<g>
	<path d="M984.9,782.8c-0.6,0-1.1,0.1-1.6,0.1c-0.1,1.4-0.1,2.7-0.1,3.8s-0.1,1.9-0.1,2.4c-0.1,0.6-0.3,1.1-0.7,1.4
		c-0.4,0.3-0.9,0.4-1.5,0.3c-1.2-0.1-1.8-0.7-1.8-1.8c0-0.3,0-1.1,0-2.1c0-1.1,0-2.4,0-3.8s0-3,0-4.7s0-3.3,0-4.8s0-2.8,0-4
		c0-1.1,0-1.9,0-2.4c-2.1,0.1-4.3,0.1-6.5,0.2s-4.4,0.1-6.6,0.1c-1.1,0-1.6-0.6-1.6-1.8c0-0.6,0.2-1,0.5-1.3s0.7-0.4,1.1-0.4
		c2.8-0.1,5.6-0.3,8.3-0.3s5.4-0.1,8-0.1c0.6,0,0.9,0.1,1.1,0.4c0.2,0.3,0.3,0.7,0.3,1.2c0,0.4,0,0.9,0,1.6c0,0.7,0,1.5,0,2.5
		c0.5,0,1.1-0.1,1.8-0.1s1.3-0.1,2-0.1s1.3-0.1,1.9-0.1c0.6,0,1,0,1.4,0c0-0.7,0-1.5,0.1-2.2c0-0.7,0-1.5,0.1-2.2
		c0-0.8,0.2-1.3,0.6-1.6c0.3-0.3,0.9-0.5,1.8-0.5c1.5,0,2.2,0.7,2.2,2.2c0,2.3-0.1,4.7-0.1,7.1c-0.1,2.4-0.1,4.9-0.2,7.3
		c-0.1,2.4-0.2,4.8-0.3,7.2s-0.3,4.6-0.4,6.7c-0.1,0.8-0.3,1.4-0.7,1.7s-0.9,0.4-1.5,0.4c-0.6-0.1-1.1-0.3-1.4-0.7
		c-0.3-0.4-0.4-1-0.4-1.9c0-1.6,0-3.2,0-4.9s0-3.2,0-4.9c-0.5,0-1,0.1-1.6,0.1s-1.2,0-1.9,0.1C986.2,782.7,985.5,782.7,984.9,782.8z
		 M990.4,775.7c0-1,0.1-2.1,0.1-3.1c-0.4,0-1,0.1-1.6,0.1s-1.2,0.1-1.9,0.1c-0.6,0-1.3,0.1-1.9,0.1c-0.6,0-1.2,0.1-1.7,0.1
		c0,1,0,2,0,3.1c0,1,0,2.1-0.1,3.2c0.5,0,1.1-0.1,1.7-0.1c0.6,0,1.3-0.1,1.9-0.1c0.7,0,1.3-0.1,1.9-0.1s1.1,0,1.5,0
		C990.4,777.7,990.4,776.7,990.4,775.7z"/>
	<path d="M1009.5,795.5c1.3,0,2.7,0,4.2,0s3.1,0,4.7-0.1s3.2,0,4.7-0.1c1.6,0,3.1-0.1,4.5-0.1c0.4,0,0.7,0.1,0.9,0.4
		s0.3,0.6,0.3,1.1s-0.1,0.9-0.2,1.2s-0.5,0.5-1,0.6c-3.3,0.1-6.6,0.2-9.8,0.3c-3.2,0-6.5,0.1-9.8,0.1c-1,0-1.7-0.2-2-0.5
		c-0.4-0.4-0.6-1-0.6-1.9c-0.1-0.8-0.1-1.6-0.1-2.2c0-0.7-0.1-1.4-0.1-2.2c0-0.3,0-0.6,0.1-0.8s0.3-0.3,0.6-0.3
		c1.1-0.1,2.5-0.1,4.1-0.2c1.6-0.1,3.3-0.1,5-0.2c1.7-0.1,3.4-0.1,5-0.1s3-0.1,4.1-0.1c0-0.5,0-0.9,0-1.2s0-0.7,0-1.2
		c-1.2,0.1-2.7,0.1-4.3,0.2c-1.6,0.1-3.3,0.1-5,0.2c-1.7,0.1-3.3,0.1-5,0.2c-1.6,0.1-3.1,0.1-4.3,0.1c-0.4,0-0.8-0.1-1-0.3
		s-0.3-0.7-0.3-1.3s0.1-1.1,0.3-1.4c0.2-0.3,0.6-0.4,1-0.4c1.3-0.1,2.6-0.1,4-0.2c1.4-0.1,2.8-0.1,4.3-0.2v-2.6
		c-2,0.1-4,0.1-5.9,0.1s-3.8,0.1-5.5,0.1c-1.1,0.1-1.6-0.5-1.6-1.8c0-0.6,0.1-1.1,0.4-1.3c0.3-0.3,0.7-0.4,1.3-0.4
		c2.2-0.1,4.5-0.2,7-0.2c2.4-0.1,4.9-0.1,7.3-0.2c2.4-0.1,4.8-0.1,7.1-0.2c2.3-0.1,4.4-0.1,6.3-0.2c1,0,1.5,0.5,1.5,1.6
		c0,0.6-0.1,1.1-0.4,1.4c-0.3,0.3-0.7,0.4-1.1,0.4c-1.8,0.1-3.6,0.2-5.6,0.3s-4,0.2-6.1,0.2v2.6c1.5-0.1,3.1-0.1,4.6-0.1
		s3-0.1,4.4-0.1c0.3,0,0.6,0.1,0.7,0.2c0.2,0.2,0.3,0.4,0.3,0.8c0,1,0,2.1-0.1,3.2c-0.1,1.1-0.1,2.1-0.2,3.1c-0.1,0.6-0.2,1-0.4,1.2
		c-0.2,0.2-0.6,0.4-1.3,0.4c-1.1,0.1-2.5,0.1-3.9,0.1c-1.5,0-2.9,0.1-4.5,0.1c-1.5,0.1-3,0.1-4.6,0.1s-2.9,0.1-4.2,0.1L1009.5,795.5
		z M1026.3,771.8c-0.5,1.1-1.3,2-2.3,2.7s-2.2,1.3-3.6,1.7c-1.4,0.4-3,0.6-4.7,0.6c-3.2,0-5.8-0.7-7.6-2.1c-1.9-1.4-2.8-3.4-2.8-6
		c0-1.2,0.3-2.3,0.8-3.4c0.5-1.1,1.3-2,2.2-2.8c1-0.8,2.1-1.4,3.5-1.9s3-0.7,4.8-0.7c1.5,0,3,0.2,4.2,0.5c1.3,0.4,2.4,0.9,3.3,1.6
		c0.9,0.7,1.7,1.6,2.2,2.6s0.8,2.1,0.8,3.4C1027.1,769.4,1026.8,770.7,1026.3,771.8z M1020.9,771.9c1.1-0.9,1.7-2.2,1.6-3.9
		c-0.1-1.5-0.7-2.6-1.8-3.4c-1.1-0.8-2.6-1.2-4.5-1.2c-1,0-2,0.1-2.8,0.4c-0.8,0.3-1.5,0.6-2,1.1c-0.6,0.5-1,1-1.3,1.6
		s-0.4,1.3-0.4,2c0,1.5,0.5,2.7,1.6,3.5c1.1,0.9,2.6,1.3,4.6,1.3C1018.1,773.3,1019.7,772.8,1020.9,771.9z"/>
</g>
<g>
	<path d="M412.7,23.2c0.7,0,1.3,0.2,1.8,0.5s0.8,0.9,0.8,1.7v3.7h18.2c0.6,0,1.1,0.2,1.4,0.6c0.3,0.4,0.5,0.9,0.5,1.5
		s-0.2,1.1-0.5,1.6c-0.3,0.4-0.8,0.6-1.4,0.6h-41.7c-0.6,0-1.1-0.2-1.4-0.6c-0.3-0.4-0.5-1-0.5-1.6s0.2-1.1,0.5-1.5s0.8-0.6,1.4-0.6
		H410v-3.7c0-0.8,0.3-1.4,0.8-1.7C411.4,23.4,412,23.2,412.7,23.2z M429.3,9.1c0.3,0.4,0.5,1,0.5,1.6s-0.2,1.1-0.5,1.6
		c-0.3,0.4-0.8,0.6-1.4,0.6h-12.5v0.8c0,1,0.3,1.8,1,2.5c0.7,0.6,1.9,1.3,3.8,2c3.6,1.3,6.8,2.4,9.7,3.3c0.6,0.2,1,0.5,1.2,1.1
		s0.2,1.1,0,1.8c-0.2,0.6-0.6,1-1.1,1.3s-1.1,0.3-1.8,0.1c-1.3-0.4-2.8-0.9-4.3-1.5c-1.5-0.5-3.2-1.1-4.8-1.7
		c-1.1-0.4-2.1-0.8-2.8-1.1c-0.8-0.3-1.4-0.7-1.9-1s-0.9-0.6-1.1-1c-0.3-0.3-0.4-0.6-0.5-1h-0.1c-0.2,0.7-0.8,1.4-1.7,2
		c-0.9,0.6-2.5,1.4-4.7,2.2c-1.6,0.6-3.2,1.2-4.8,1.7c-1.5,0.5-3,1-4.4,1.5c-0.7,0.2-1.3,0.1-1.8-0.1c-0.5-0.3-0.9-0.7-1.1-1.3
		c-0.2-0.6-0.2-1.2-0.1-1.8c0.2-0.6,0.6-1,1.2-1.1c2.9-0.9,6.1-2.1,9.7-3.3c1.8-0.7,3.1-1.4,3.8-2c0.7-0.6,1-1.4,1-2.5V13h-12.5
		c-0.6,0-1.1-0.2-1.4-0.6s-0.5-1-0.5-1.6s0.2-1.1,0.5-1.6c0.3-0.4,0.8-0.6,1.4-0.6H428C428.6,8.5,429,8.7,429.3,9.1z M412.7,35.3
		c0.7,0,1.3,0.2,1.9,0.5c0.5,0.3,0.8,0.9,0.8,1.6v2.3h13.2c0.6,0,1,0.2,1.3,0.6c0.3,0.4,0.4,0.9,0.4,1.4s-0.1,1-0.4,1.4
		s-0.7,0.6-1.3,0.6h-31.9c-0.6,0-1-0.2-1.3-0.6c-0.3-0.4-0.4-0.9-0.4-1.4s0.1-1,0.4-1.4s0.7-0.6,1.3-0.6H410v-2.3
		c0-0.7,0.3-1.3,0.8-1.6S411.9,35.3,412.7,35.3z M412.7,46.1c4.1,0,7.4,0.5,9.7,1.5c2.3,1,3.5,2.6,3.5,4.7c0,2.1-1.2,3.7-3.5,4.7
		s-5.6,1.5-9.7,1.5S405.3,58,403,57s-3.5-2.6-3.5-4.7c0-2.1,1.2-3.7,3.5-4.7S408.5,46.1,412.7,46.1z M412.7,50
		c-2.8,0-4.9,0.2-6.2,0.6c-1.3,0.4-1.9,1-1.9,1.8s0.6,1.3,1.9,1.8c1.3,0.4,3.3,0.6,6.2,0.6c2.8,0,4.9-0.2,6.2-0.6
		c1.3-0.4,1.9-1,1.9-1.8s-0.6-1.3-1.9-1.8C417.6,50.2,415.5,50,412.7,50z"/>
	<path d="M452.5,10.1c4.2,0,7.3,1.4,9.4,4.1s3.2,6.7,3.2,12s-1.1,9.3-3.2,12s-5.3,4.1-9.4,4.1c-4.2,0-7.3-1.4-9.4-4.1
		c-2.1-2.7-3.2-6.7-3.2-12s1.1-9.3,3.2-12C445.2,11.4,448.3,10.1,452.5,10.1z M452.5,14.8c-2.6,0-4.5,1-5.6,2.9s-1.7,4.7-1.7,8.5
		c0,3.7,0.6,6.5,1.7,8.5c1.1,1.9,3,2.9,5.6,2.9c2.7,0,4.6-1,5.7-2.9s1.7-4.7,1.7-8.5c0-3.7-0.6-6.5-1.7-8.5
		C457.1,15.8,455.2,14.8,452.5,14.8z M474.8,7.2c0.7,0,1.4,0.2,1.9,0.5c0.5,0.4,0.8,0.9,0.8,1.7v14h5.9c0.7,0,1.2,0.2,1.5,0.7
		s0.5,1,0.5,1.6s-0.2,1.2-0.5,1.7s-0.8,0.7-1.5,0.7h-5.9v23.4c0,0.8-0.3,1.4-0.8,1.7c-0.5,0.4-1.2,0.5-1.9,0.5
		c-0.7,0-1.4-0.2-1.9-0.5c-0.5-0.4-0.8-0.9-0.8-1.7v-42c0-0.8,0.3-1.4,0.8-1.7C473.5,7.4,474.1,7.2,474.8,7.2z"/>
	<path d="M503,7.1c0.7,0,1.4,0.2,1.9,0.5c0.5,0.4,0.8,0.9,0.8,1.7V14h9.7c0.6,0,1.1,0.2,1.4,0.7c0.3,0.5,0.5,1,0.5,1.6
		s-0.2,1.2-0.5,1.6c-0.3,0.5-0.8,0.7-1.4,0.7H490c-0.6,0-1.1-0.2-1.4-0.7s-0.5-1-0.5-1.6s0.2-1.1,0.5-1.6c0.3-0.4,0.8-0.7,1.4-0.7
		h10.3V9.4c0-0.8,0.3-1.4,0.8-1.7C501.7,7.3,502.3,7.1,503,7.1z M503,22.1c1.8,0,3.4,0.3,4.9,0.8c1.4,0.5,2.7,1.3,3.6,2.2
		c1,0.9,1.8,2.1,2.3,3.3s0.8,2.7,0.8,4.3s-0.3,3-0.8,4.3s-1.3,2.4-2.3,3.3c-1,0.9-2.2,1.7-3.6,2.2s-3.1,0.8-4.9,0.8
		s-3.4-0.3-4.9-0.8c-1.4-0.5-2.7-1.3-3.7-2.2s-1.8-2.1-2.3-3.3c-0.5-1.3-0.8-2.7-0.8-4.3s0.3-3,0.8-4.3s1.3-2.4,2.3-3.3
		c1-0.9,2.2-1.7,3.7-2.2C499.6,22.4,501.2,22.1,503,22.1z M503,26.5c-2.1,0-3.7,0.6-4.9,1.7c-1.2,1.1-1.8,2.7-1.8,4.6
		c0,1.9,0.6,3.4,1.8,4.5c1.2,1.2,2.8,1.7,4.9,1.7s3.7-0.6,4.9-1.7c1.2-1.2,1.8-2.7,1.8-4.5c0-1.9-0.6-3.4-1.8-4.6
		C506.7,27.1,505.1,26.5,503,26.5z M524,7.2c0.7,0,1.4,0.2,1.9,0.5c0.5,0.4,0.8,0.9,0.8,1.7V24h5.9c0.7,0,1.2,0.2,1.5,0.7
		s0.5,1,0.5,1.6s-0.2,1.2-0.5,1.7s-0.8,0.7-1.5,0.7h-5.9v22.8c0,0.8-0.3,1.4-0.8,1.7c-0.5,0.4-1.2,0.5-1.9,0.5s-1.3-0.2-1.8-0.5
		c-0.5-0.4-0.8-0.9-0.8-1.7v-42c0-0.8,0.3-1.4,0.8-1.7C522.7,7.4,523.3,7.2,524,7.2z"/>
	<path d="M582.3,33.2c0.3,0.5,0.5,1,0.5,1.6s-0.2,1.2-0.5,1.6c-0.3,0.5-0.8,0.7-1.4,0.7h-41.6c-0.6,0-1.1-0.2-1.4-0.7
		c-0.3-0.5-0.5-1-0.5-1.6s0.2-1.1,0.5-1.6c0.3-0.4,0.8-0.7,1.4-0.7h41.6C581.5,32.6,582,32.8,582.3,33.2z M546.3,41.3
		c0.7,0,1.4,0.2,1.9,0.5c0.5,0.4,0.8,0.9,0.8,1.7v7.3c0,0.8,0.4,1.1,1.1,1.1h25.5c0.6,0,1.1,0.2,1.4,0.7c0.3,0.4,0.5,1,0.5,1.6
		s-0.2,1.2-0.5,1.6c-0.3,0.5-0.8,0.7-1.4,0.7h-28c-1.6,0-2.7-0.3-3.2-0.9c-0.6-0.6-0.9-1.6-0.9-3.2v-9c0-0.8,0.3-1.4,0.8-1.7
		C544.9,41.4,545.5,41.3,546.3,41.3z M546.4,8.5c0.7,0,1.4,0.2,1.9,0.5c0.5,0.4,0.8,1,0.8,1.8v10.4c0,0.7,0.4,1.1,1.1,1.1h25.3
		c0.6,0,1.1,0.2,1.4,0.7c0.3,0.5,0.5,1,0.5,1.6s-0.2,1.1-0.5,1.6s-0.8,0.7-1.4,0.7h-27.8c-1.6,0-2.7-0.3-3.2-0.9
		c-0.6-0.6-0.9-1.6-0.9-3.2v-12c0-0.8,0.3-1.4,0.8-1.8C545,8.7,545.7,8.5,546.4,8.5z"/>
	<path d="M616,11.3c1.6,0,2.7,0.3,3.3,0.9s0.9,1.6,0.9,3.2v5.7c0,1.7-0.1,3.1-0.2,4.4c-0.1,1.3-0.3,2.4-0.7,3.5c-0.4,1-0.9,2-1.6,3
		c-0.7,0.9-1.6,1.9-2.8,3c-1.2,1-2.6,2.2-4.3,3.5s-3.7,2.7-6.1,4.4c-0.5,0.4-1.1,0.5-1.8,0.3s-1.2-0.5-1.5-1
		c-0.4-0.5-0.6-1.1-0.6-1.8s0.3-1.3,0.9-1.6c2.1-1.5,3.9-2.8,5.4-3.8s2.7-2.1,3.7-2.9c1-0.9,1.8-1.7,2.3-2.4c0.6-0.8,1-1.5,1.3-2.3
		s0.5-1.7,0.5-2.7c0.1-1,0.1-2.2,0.1-3.5v-3.8c0-0.7-0.4-1.1-1.1-1.1H603c-0.7,0-1.2-0.2-1.5-0.7s-0.5-1-0.5-1.6s0.2-1.2,0.5-1.7
		s0.8-0.7,1.5-0.7h13V11.3z M630,7.8c0.6,0,1.2,0.2,1.7,0.5s0.8,0.9,0.8,1.6v39.6c0,0.7-0.3,1.3-0.8,1.6s-1.1,0.5-1.7,0.5
		c-0.6,0-1.2-0.2-1.7-0.5s-0.8-0.9-0.8-1.6V34.7h-5.3c-0.6,0-1.1-0.2-1.3-0.7c-0.3-0.4-0.4-1-0.4-1.6c0-0.7,0.1-1.2,0.4-1.7
		c0.3-0.4,0.7-0.6,1.3-0.6h5.3v-7.6H618V18h9.5v-8c0-0.7,0.3-1.3,0.8-1.6C628.8,8,629.4,7.8,630,7.8z M639.8,7.2
		c0.6,0,1.2,0.2,1.8,0.5c0.5,0.3,0.8,0.9,0.8,1.6v42.4c0,0.7-0.3,1.3-0.8,1.6s-1.1,0.5-1.8,0.5c-0.6,0-1.2-0.2-1.7-0.5
		s-0.8-0.9-0.8-1.6V9.4c0-0.7,0.3-1.3,0.8-1.6C638.6,7.4,639.2,7.2,639.8,7.2z"/>
	<path d="M677.5,10.2c0.3,0.5,0.5,1,0.5,1.6s-0.2,1.1-0.5,1.6s-0.8,0.7-1.4,0.7h-8.6v2.6c0,1.5,0.3,2.8,0.8,3.8s1.4,1.9,2.6,2.8
		c1.3,0.9,2.4,1.8,3.5,2.5c1.1,0.8,2.1,1.4,3,1.9c0.6,0.4,1,0.9,1.1,1.6c0.1,0.6-0.1,1.2-0.5,1.7c-0.3,0.5-0.7,0.9-1.4,1.1
		c-0.6,0.2-1.2,0.1-1.9-0.3c-0.8-0.5-1.6-1.1-2.6-1.8s-2.1-1.4-3.2-2.2c-1.4-1-2.4-1.9-3-2.5c-0.6-0.6-0.9-1.2-1.1-1.7h-0.1
		c-0.1,0.6-0.5,1.2-1.2,1.9c-0.6,0.7-1.6,1.6-3.1,2.6c-1.2,0.8-2.3,1.6-3.4,2.4c-1.1,0.8-2.2,1.5-3.4,2.2c-0.6,0.4-1.2,0.5-1.8,0.2
		c-0.6-0.2-1.1-0.6-1.3-1.1c-0.3-0.5-0.5-1.1-0.5-1.7c0-0.6,0.4-1.2,1-1.6c1.3-0.8,2.5-1.6,3.7-2.4c1.2-0.8,2.5-1.7,3.8-2.6
		c1.2-0.9,2-1.8,2.6-2.8c0.5-1,0.8-2.3,0.8-3.8v-2.8h-9c-0.7,0-1.2-0.2-1.5-0.7c-0.3-0.4-0.5-1-0.5-1.6s0.2-1.2,0.5-1.6
		c0.3-0.5,0.8-0.7,1.5-0.7H676C676.7,9.5,677.1,9.7,677.5,10.2z M686.1,35.1c1.6,0,2.7,0.3,3.3,0.9c0.6,0.6,0.9,1.6,0.9,3.2v5
		c0,1.5-0.3,2.6-0.9,3.2c-0.6,0.6-1.7,0.9-3.3,0.9H665c-0.4,0-0.7,0.1-0.9,0.2c-0.2,0.2-0.3,0.5-0.3,0.9v2.3c0,0.8,0.4,1.1,1.1,1.1
		h24.7c0.6,0,1.1,0.2,1.3,0.6s0.4,0.9,0.4,1.5s-0.1,1.1-0.4,1.5s-0.7,0.6-1.3,0.6h-26.9c-1.6,0-2.7-0.3-3.3-0.9
		c-0.6-0.6-0.9-1.6-0.9-3.2v-5c0-1.5,0.3-2.6,0.9-3.2c0.6-0.6,1.7-0.9,3.3-0.9h21.1c0.4,0,0.7-0.1,0.9-0.2c0.2-0.2,0.2-0.5,0.2-0.9
		v-2.3c0-0.4-0.1-0.7-0.2-0.8s-0.5-0.2-0.9-0.2h-23.5c-0.6,0-1.1-0.2-1.4-0.6s-0.4-1-0.4-1.6s0.1-1.1,0.4-1.5
		c0.3-0.4,0.7-0.6,1.4-0.6H686.1z M687.6,7.2c0.7,0,1.3,0.2,1.8,0.5c0.5,0.4,0.8,0.9,0.8,1.7v21c0,0.8-0.3,1.4-0.8,1.7
		c-0.5,0.4-1.2,0.5-1.8,0.5c-0.7,0-1.4-0.2-1.9-0.5c-0.5-0.4-0.8-0.9-0.8-1.7v-7.6h-7.8c-0.7,0-1.2-0.2-1.5-0.7s-0.5-1-0.5-1.6
		s0.2-1.2,0.5-1.6s0.8-0.7,1.5-0.7h7.8V9.5c0-0.8,0.3-1.4,0.8-1.7C686.2,7.4,686.9,7.2,687.6,7.2z"/>
</g>
</svg>
