<?xml version="1.0" encoding="utf-8"?>
<!-- Generator: Adobe Illustrator 23.0.0, SVG Export Plug-In . SVG Version: 6.00 Build 0)  -->
<svg version="1.1" id="Layer_1" xmlns="http://www.w3.org/2000/svg" xmlns:xlink="http://www.w3.org/1999/xlink" x="0px" y="0px"
	 width="847.8px" height="321px" viewBox="0 0 847.8 321" style="enable-background:new 0 0 847.8 321;" xml:space="preserve">
<g>
	<g>
		<path style="fill:#121312;" d="M630.8,265.9c1.5,0,2.9,0.2,4.1,0.7c1.2,0.4,2.2,1,3,1.8s1.4,1.6,1.9,2.6c0.4,1,0.6,2,0.6,3.2v0.4
			c0,1.3-0.4,2.5-1.1,3.8c-0.8,1.2-1.9,2.2-3.4,3c1.6,0.5,2.9,1.3,3.9,2.6c1,1.3,1.5,2.8,1.5,4.5v0.5c0,1.2-0.2,2.4-0.7,3.4
			s-1.2,1.9-2,2.7c-0.9,0.7-2,1.3-3.2,1.8c-1.3,0.4-2.7,0.6-4.4,0.6s-3.1-0.2-4.5-0.6c-1.3-0.4-2.4-1-3.3-1.8
			c-0.9-0.7-1.6-1.6-2.1-2.7c-0.5-1-0.7-2.2-0.7-3.4v-0.5c0-0.9,0.1-1.7,0.4-2.4s0.7-1.5,1.2-2.1s1.1-1.2,1.7-1.6s1.4-0.8,2.2-1
			c-1.5-0.7-2.6-1.7-3.4-2.9c-0.8-1.2-1.2-2.5-1.2-3.8v-0.4c0-1.1,0.2-2.2,0.6-3.2c0.4-1,1-1.9,1.8-2.6s1.8-1.3,3-1.8
			C627.9,266.1,629.3,265.9,630.8,265.9z M630.9,283.2c-0.8,0-1.6,0.1-2.3,0.3c-0.7,0.2-1.4,0.5-1.9,1c-0.6,0.4-1,1-1.3,1.6
			c-0.3,0.7-0.5,1.4-0.5,2.3v0.3c0,1.5,0.5,2.7,1.6,3.6s2.6,1.4,4.5,1.4s3.4-0.5,4.4-1.4c1.1-0.9,1.6-2.1,1.6-3.6v-0.3
			c0-0.9-0.2-1.6-0.5-2.3c-0.3-0.6-0.7-1.2-1.3-1.6c-0.5-0.4-1.2-0.8-1.9-1C632.5,283.3,631.8,283.2,630.9,283.2z M630.8,269.7
			c-1.6,0-2.8,0.4-3.8,1.2c-1,0.8-1.4,2-1.4,3.4v0.3c0,0.8,0.1,1.5,0.4,2c0.3,0.6,0.7,1.1,1.1,1.5c0.5,0.4,1,0.7,1.7,0.9
			c0.6,0.2,1.3,0.3,2,0.3c1.5,0,2.7-0.4,3.7-1.2c1-0.8,1.5-2,1.5-3.6v-0.3c0-1.5-0.5-2.6-1.4-3.4
			C633.7,270.1,632.5,269.7,630.8,269.7z"/>
	</g>
	<g>
		<path style="fill:#2888BF;" d="M639.3,205.9c1.3,0,2.3,0.2,2.8,0.7c0.6,0.5,0.8,1.2,0.8,2.3c0,0.3,0,0.5,0,0.7s-0.1,0.5-0.2,0.7
			c-0.1,0.3-0.2,0.6-0.4,1s-0.4,1-0.7,1.7l-10.1,22.3c-0.3,0.8-0.9,1.2-1.5,1.4s-1.3,0-2-0.2c-0.6-0.3-1.1-0.7-1.4-1.3
			s-0.3-1.3,0.2-2.2l10.3-22.4h-14.7c-0.7,0-1.1-0.2-1.5-0.7c-0.3-0.5-0.5-1-0.5-1.6s0.2-1.2,0.5-1.6c0.3-0.5,0.8-0.7,1.5-0.7
			L639.3,205.9L639.3,205.9z"/>
	</g>
	<g>
		<g>
			<path style="fill:#BC3D69;" d="M634.9,147.2c0.8,0,1.5,0.2,2.1,0.6c0.5,0.4,0.8,1,0.8,1.8V176c0,0.8-0.3,1.4-0.8,1.8
				c-0.5,0.4-1.2,0.6-1.9,0.6s-1.4-0.2-1.9-0.6c-0.5-0.4-0.8-1-0.8-1.8v-22.3l-5.5,3.2c-0.7,0.4-1.4,0.5-2,0.2
				c-0.6-0.2-1.1-0.7-1.5-1.3c-0.3-0.6-0.4-1.2-0.3-1.8c0.1-0.7,0.5-1.2,1.2-1.5l7.3-4c0.7-0.4,1.4-0.7,1.9-0.9
				C633.8,147.3,634.4,147.2,634.9,147.2z"/>
		</g>
	</g>
	<g>
		<path style="fill:#2888BF;" d="M633.6,78.8c0.8,0,1.5,0.2,2.1,0.6c0.5,0.4,0.8,1,0.8,1.8v26.4c0,0.8-0.3,1.4-0.8,1.8
			s-1.2,0.6-1.9,0.6s-1.4-0.2-1.9-0.6s-0.8-1-0.8-1.8V85.3l-5.5,3.2c-0.7,0.4-1.4,0.5-2,0.2c-0.6-0.2-1.1-0.7-1.5-1.3
			c-0.3-0.6-0.4-1.2-0.3-1.8c0.1-0.7,0.5-1.2,1.2-1.5l7.3-4c0.7-0.4,1.4-0.7,1.9-0.9C632.5,78.9,633.1,78.8,633.6,78.8z"/>
	</g>
	<g>
		<g>
			
				<line style="fill:none;stroke:#000100;stroke-width:1.5;stroke-linecap:round;stroke-linejoin:round;stroke-miterlimit:10;stroke-dasharray:3,3;" x1="722" y1="2.7" x2="722" y2="318.2"/>
			
				<line style="fill:none;stroke:#000100;stroke-width:1.5;stroke-linecap:round;stroke-linejoin:round;stroke-miterlimit:10;stroke-dasharray:3,3;" x1="661.4" y1="2.7" x2="661.4" y2="318.2"/>
			
				<line style="fill:none;stroke:#000100;stroke-width:1.5;stroke-linecap:round;stroke-linejoin:round;stroke-miterlimit:10;stroke-dasharray:3,3;" x1="600.8" y1="2.7" x2="600.8" y2="318.2"/>
			<path style="fill:none;stroke:#000100;stroke-width:2;stroke-linecap:round;stroke-linejoin:round;stroke-miterlimit:10;" d="
				M725,140.5"/>
		</g>
		<g>
			<path style="fill:#121312;" d="M701.4,16.3c0.5,0.4,0.7,1,0.7,1.8c0,0.2,0,0.4,0,0.6s-0.1,0.4-0.2,0.6c-0.1,0.2-0.2,0.5-0.3,0.9
				c-0.1,0.3-0.3,0.8-0.6,1.3l-10.8,23.9c-0.3,0.6-0.7,1-1.2,1.1s-1,0-1.5-0.2s-0.9-0.6-1.1-1c-0.2-0.4-0.2-1,0.1-1.6l11.1-24.2
				h-15.7c-0.5,0-0.9-0.2-1.1-0.6c-0.2-0.4-0.4-0.8-0.4-1.3s0.1-0.9,0.4-1.3c0.2-0.4,0.6-0.6,1.1-0.6h17.2
				C700.2,15.8,700.9,16,701.4,16.3z"/>
		</g>
		<g>
			<path style="fill:#121312;" d="M696.2,266.5c0.5,0.3,0.8,0.7,0.9,1.2s0,1-0.4,1.6l-12.2,17.6H695V279c0-0.6,0.2-1.1,0.6-1.4
				c0.4-0.3,0.9-0.4,1.5-0.4s1.1,0.1,1.5,0.4s0.6,0.7,0.6,1.4v7.9h3.1c0.5,0,0.9,0.2,1.1,0.5c0.2,0.3,0.3,0.8,0.3,1.2
				s-0.1,0.9-0.3,1.2c-0.2,0.3-0.6,0.5-1.1,0.5h-3.1v5c0,0.6-0.2,1.1-0.6,1.4c-0.4,0.3-0.9,0.4-1.5,0.4c-0.5,0-1-0.1-1.5-0.4
				s-0.6-0.7-0.6-1.4v-5h-12.8c-1,0-1.7-0.2-2.2-0.5c-0.4-0.3-0.6-0.9-0.6-1.6c0-0.3,0.1-0.6,0.2-0.9c0.1-0.3,0.4-0.9,1-1.7l13-18.7
				c0.3-0.5,0.8-0.8,1.2-0.8C695.3,266.1,695.8,266.2,696.2,266.5z"/>
		</g>
		<g>
			<path style="fill:#2888BF;" d="M692.7,205.4c4,0,6.9,1.3,8.7,3.9s2.7,6.2,2.7,11v1.8c0,4.7-0.9,8.4-2.7,11s-4.7,3.9-8.7,3.9
				s-6.9-1.3-8.7-3.9s-2.7-6.2-2.7-11v-1.8c0-4.7,0.9-8.4,2.7-11S688.7,205.4,692.7,205.4z M692.7,210.6c-1.1,0-2.1,0.2-2.8,0.6
				c-0.8,0.4-1.4,1-1.8,1.8c-0.4,0.8-0.8,1.9-1,3.1c-0.2,1.3-0.3,2.8-0.3,4.6v1.1c0,1.8,0.1,3.3,0.3,4.6s0.5,2.3,1,3.1
				c0.4,0.8,1,1.4,1.8,1.8c0.8,0.4,1.7,0.6,2.8,0.6s2.1-0.2,2.8-0.6c0.8-0.4,1.4-1,1.8-1.8c0.4-0.8,0.8-1.9,1-3.1
				c0.2-1.3,0.3-2.8,0.3-4.6v-1.1c0-1.8-0.1-3.3-0.3-4.6s-0.5-2.3-1-3.1c-0.4-0.8-1-1.4-1.8-1.8
				C694.8,210.8,693.8,210.6,692.7,210.6z"/>
		</g>
		<g>
			<g>
				<path style="fill:#BC3D69;" d="M697.5,147.6c0.6,0.4,1,0.9,1.1,1.5c0.2,0.6,0,1.3-0.5,2l-11.2,16.2h8.9v-7.1
					c0-0.8,0.3-1.4,0.8-1.8c0.5-0.4,1.2-0.6,1.9-0.6s1.3,0.2,1.9,0.6c0.5,0.4,0.8,1,0.8,1.8v7.1h2.6c0.7,0,1.1,0.2,1.4,0.7
					c0.3,0.4,0.4,1,0.4,1.6s-0.1,1.1-0.4,1.5c-0.3,0.4-0.8,0.7-1.4,0.7h-2.6v4.3c0,0.8-0.3,1.4-0.8,1.8c-0.5,0.4-1.2,0.6-1.9,0.6
					s-1.3-0.2-1.9-0.6c-0.5-0.4-0.8-1-0.8-1.8v-4.3h-12c-1.2,0-2.1-0.2-2.6-0.6c-0.5-0.4-0.8-1.1-0.8-2c0-0.1,0-0.3,0-0.5
					s0.1-0.3,0.2-0.6c0.1-0.2,0.2-0.5,0.4-0.8s0.4-0.7,0.7-1.1l12.3-17.8c0.4-0.6,1-1,1.6-1.1C696.3,147.2,696.9,147.3,697.5,147.6z
					"/>
			</g>
		</g>
		<g>
			<g>
				<path style="fill:#BC3D69;" d="M692.3,78.6c1.7,0,3.3,0.2,4.5,0.6c1.3,0.4,2.3,1,3.1,1.7s1.4,1.6,1.8,2.5c0.4,1,0.6,2,0.6,3v0.5
					c0,1.6-0.4,3.2-1.1,4.7c-0.8,1.5-1.9,3-3.3,4.5l-9.1,9h13c0.7,0,1.1,0.2,1.5,0.7c0.3,0.4,0.5,1,0.5,1.6s-0.2,1.2-0.5,1.6
					s-0.8,0.7-1.5,0.7h-16.4c-1.4,0-2.4-0.2-3-0.7s-0.9-1.2-0.9-2.2c0-0.5,0.1-0.9,0.4-1.3c0.2-0.4,0.6-0.8,1.1-1.3L693,94
					c0.8-0.8,1.4-1.5,1.9-2.1s0.9-1.2,1.2-1.7s0.5-1.1,0.6-1.6s0.2-1,0.2-1.6v-0.2c0-0.9-0.4-1.7-1.1-2.3c-0.7-0.6-1.8-0.9-3.3-0.9
					c-1.3,0-2.4,0.2-3.2,0.7c-0.9,0.5-1.7,1.2-2.4,2.2c-0.4,0.5-0.9,0.9-1.5,0.9c-0.6,0.1-1.2-0.1-1.8-0.5s-0.9-0.9-1.1-1.5
					c-0.2-0.6,0-1.2,0.4-1.9c0.9-1.4,2.2-2.6,3.8-3.5S690.1,78.6,692.3,78.6z"/>
			</g>
		</g>
		<g>
			
				<line style="fill:none;stroke:#000100;stroke-width:2;stroke-linecap:round;stroke-linejoin:round;stroke-miterlimit:10;" x1="553.2" y1="128.5" x2="732.1" y2="128.5"/>
			
				<line style="fill:none;stroke:#000100;stroke-width:2;stroke-linecap:round;stroke-linejoin:round;stroke-miterlimit:10;" x1="553.2" y1="249.7" x2="732.1" y2="249.7"/>
			<path style="fill:#121312;" d="M579.1,97l7.1-7.1c1-1,1-2.6,0-3.5s-2.6-1-3.5,0l-7.1,7.1l-7.1-7.1c-1-1-2.6-1-3.5,0s-1,2.6,0,3.5
				l7.1,7.1l-7.1,7.1c-1,1-1,2.6,0,3.5s2.6,1,3.5,0l7.1-7.1l7.1,7.1c1,1,2.6,1,3.5,0s1-2.6,0-3.5L579.1,97z"/>
		</g>
		<g>
			<g>
				<path style="fill:#000100;" d="M761,151.8c0.3-0.1,0.5-0.3,0.9-0.3s0.6,0,1,0H775c0.3,0,0.6,0,1,0c0.4,0,0.6,0,1,0.3
					c0.4,0.3,0.6,0.5,0.6,1c0.1,0.5,0,1-0.1,1.5c-0.1,0.6-0.4,1.2-0.6,1.9c-0.3,0.6-0.6,1.3-0.9,1.9c-0.3,0.6-0.6,1.2-0.9,1.5
					c-0.3,0.5-0.5,0.9-0.6,1c-0.4,0.6-0.6,1.3-1,1.8c-0.3,0.5-0.6,1.2-0.9,1.7c-0.3,0.5-0.5,1.2-0.9,1.7c-0.3,0.5-0.6,1.2-1,1.8
					c-0.4,0.9-0.9,1.9-1.5,2.8c-0.5,1-1.2,1.9-1.7,2.8c-0.1,0.3-0.4,0.5-0.5,0.8c-0.3,0.3-0.4,0.5-0.6,0.6s-0.5,0.3-0.9,0.4
					c-0.4,0-0.6,0-1-0.3c-0.6-0.3-0.9-0.8-1.2-1.4c-0.1-0.6-0.1-1.2,0.1-1.7c0.4-0.8,0.9-1.5,1.3-2.3s0.8-1.5,1.2-2.3
					c0.6-1.2,1.2-2.2,1.7-3.2c0.5-1,1-2.2,1.7-3.2c0.1-0.4,0.4-0.8,0.8-1.2c0.3-0.5,0.6-1,0.9-1.5s0.5-1,0.6-1.5
					c0.1-0.5,0.3-0.9,0.1-1.3c-0.8-0.1-1.5-0.1-2.2-0.1s-1.3,0-2.1,0h-3.2c-0.4,0-0.8,0-1.3,0c-0.5,0-0.9,0-1.3-0.1
					c-0.4-0.1-0.8-0.3-1-0.5c-0.3-0.3-0.5-0.6-0.5-1.2c0-0.5,0-0.9,0.1-1.2C760.3,151.9,760.8,151.9,761,151.8z"/>
			</g>
			<g>
				<g>
					<path style="fill:#BC3D69;" d="M816.7,159c-0.4,0.5-0.8,0.8-1.2,0.9c-0.5,0.1-0.9,0.1-1.3-0.1c-0.4-0.1-0.8-0.5-1-0.9
						c-0.3-0.4-0.4-0.9-0.4-1.4c0-0.4,0.1-0.8,0.3-1.2c0.1-0.4,0.4-0.8,0.6-1.2c0.3-0.4,0.5-0.8,0.8-1.2c0.3-0.4,0.5-0.6,0.9-0.9
						c0.5-0.4,1.2-0.8,1.8-1.2c0.6-0.3,1.4-0.5,2.2-0.6c0.8-0.1,1.5-0.3,2.2-0.3c0.8,0,1.4,0.1,2.1,0.4c1.8,0.5,3.2,1.4,4.1,2.7
						c1,1.2,1.4,2.7,1.4,4.6c0,0.9-0.1,1.7-0.3,2.4c-0.1,0.8-0.5,1.4-0.9,2.1c-0.4,0.6-0.9,1.3-1.7,2.1c-0.6,0.6-1.5,1.4-2.6,2.3
						c-0.4,0.3-0.6,0.6-1,0.9c-0.4,0.3-0.8,0.6-1,0.9c-0.1,0.1-0.4,0.3-0.6,0.4s-0.6,0.4-0.8,0.5c-0.3,0.1-0.4,0.4-0.4,0.5
						c0,0.1,0.1,0.3,0.5,0.3c0.5,0,0.9,0,1.2,0s0.6,0,1.2,0c0.6,0,1.2,0,1.7,0c0.5,0,1.2,0,1.7,0c0.3,0,0.5,0,0.8,0s0.5,0,0.8,0
						s0.5,0,0.8,0.1c0.3,0.1,0.5,0.1,0.6,0.3c0.1,0.1,0.3,0.4,0.4,0.6c0.1,0.3,0.1,0.5,0.1,0.9c0,0.3,0,0.6-0.1,0.9
						c-0.1,0.3-0.1,0.5-0.4,0.6c-0.3,0.4-0.6,0.5-1,0.5c-0.4,0-0.8,0-1.2,0h-11.9c-0.3,0-0.5,0-0.8,0s-0.5,0-0.6-0.1
						c-0.4-0.1-0.6-0.4-0.6-0.6s0-0.6,0-1c0-0.5,0.1-1,0.4-1.5c0.3-0.5,0.6-0.9,1-1.3c0.4-0.4,0.9-0.8,1.3-1.2
						c0.5-0.4,0.9-0.6,1.3-1c0.6-0.5,1.2-1,1.9-1.5c0.6-0.5,1.3-1,1.9-1.5c0.8-0.6,1.4-1.3,1.9-1.8c0.5-0.5,1-1,1.3-1.5
						c0.4-0.5,0.6-0.9,0.8-1.4c0.1-0.5,0.3-0.9,0.3-1.4c0-1.2-0.4-2.1-1-2.6c-0.6-0.6-1.5-0.9-2.7-0.9c-0.8,0-1.5,0.1-2.2,0.5
						c-0.6,0.4-1.3,0.8-1.7,1.4c-0.1,0.3-0.3,0.5-0.4,0.8C817.1,158.4,817,158.7,816.7,159z"/>
				</g>
			</g>
			<path style="fill:#241A16;" d="M795.9,163.7l5-5c0.6-0.6,0.6-1.8,0-2.4c-0.6-0.6-1.8-0.6-2.4,0l-5,5l-5-5c-0.6-0.6-1.8-0.6-2.4,0
				c-0.6,0.6-0.6,1.8,0,2.4l5,5l-5,5c-0.6,0.6-0.6,1.8,0,2.4c0.6,0.6,1.8,0.6,2.4,0l5-5l5,5c0.6,0.6,1.8,0.6,2.4,0
				c0.6-0.6,0.6-1.8,0-2.4L795.9,163.7z"/>
		</g>
		<g>
			<g>
				<path style="fill:#000100;" d="M761,209c0.3-0.1,0.5-0.3,0.9-0.3s0.6,0,1,0H775c0.3,0,0.6,0,1,0c0.4,0,0.6,0,1,0.3
					c0.4,0.3,0.6,0.5,0.6,1c0.1,0.5,0,1-0.1,1.5c-0.1,0.6-0.4,1.2-0.6,1.9c-0.3,0.6-0.6,1.3-0.9,1.9c-0.3,0.6-0.6,1.2-0.9,1.5
					c-0.3,0.5-0.5,0.9-0.6,1c-0.4,0.6-0.6,1.3-1,1.8c-0.3,0.5-0.6,1.2-0.9,1.7c-0.3,0.5-0.5,1.2-0.9,1.7c-0.3,0.5-0.6,1.2-1,1.8
					c-0.4,0.9-0.9,1.9-1.5,2.8c-0.5,1-1.2,1.9-1.7,2.8c-0.1,0.3-0.4,0.5-0.5,0.8c-0.3,0.3-0.4,0.5-0.6,0.6c-0.3,0.1-0.5,0.3-0.9,0.4
					c-0.4,0-0.6,0-1-0.3c-0.6-0.3-0.9-0.8-1.2-1.4c-0.1-0.6-0.1-1.2,0.1-1.7c0.4-0.8,0.9-1.5,1.3-2.3s0.8-1.5,1.2-2.3
					c0.6-1.2,1.2-2.2,1.7-3.2c0.5-1,1-2.2,1.7-3.2c0.1-0.4,0.4-0.8,0.8-1.2c0.3-0.5,0.6-1,0.9-1.5c0.3-0.5,0.5-1,0.6-1.5
					c0.1-0.5,0.3-0.9,0.1-1.3c-0.8-0.1-1.5-0.1-2.2-0.1s-1.3,0-2.1,0h-3.2c-0.4,0-0.8,0-1.3,0c-0.5,0-0.9,0-1.3-0.1
					c-0.4-0.1-0.8-0.3-1-0.5c-0.3-0.3-0.5-0.6-0.5-1.2s0-0.9,0.1-1.2C760.3,209.1,760.8,209.1,761,209z"/>
			</g>
			<g>
				<g>
					<path style="fill:#45A0D9;" d="M818.4,208.3c0.1,0,0.3-0.1,0.4-0.1c0.1,0,0.3,0,0.4-0.1c0.1,0,0.4-0.1,0.6-0.1s0.5,0,0.6,0
						c0.3,0,0.4,0.1,0.6,0.3c0.1,0.1,0.4,0.3,0.4,0.5c0.1,0.3,0.1,0.5,0.1,0.8c0,0.3,0,0.6,0,0.9c0,0.3,0,0.6,0,0.9
						c0,0.3,0,0.5,0,0.8v17.2c0,0.3,0,0.5,0,0.8s0,0.5,0,0.8c0,0.3-0.1,0.5-0.3,0.8c-0.1,0.3-0.3,0.4-0.5,0.6
						c-0.3,0.3-0.8,0.4-1.3,0.4c-0.5,0-1,0-1.4-0.1c-0.4-0.1-0.6-0.4-0.8-0.8c-0.1-0.4-0.1-0.8-0.1-1.2c-0.1-3-0.3-5.8-0.3-8.6
						s0-5.8,0-8.7c0,0.1-0.3,0.3-0.5,0.3c-0.3,0.1-0.5,0.1-0.9,0.3c-0.4,0.1-0.6,0.1-0.9,0.1c-0.3,0-0.5,0.1-0.5,0.1
						c-0.6,0.1-1.2,0-1.5-0.1c-0.5-0.1-0.8-0.6-0.8-1.3c-0.1-0.8,0.1-1.3,0.5-1.7c0.4-0.4,0.9-0.6,1.5-0.9c0.8-0.3,1.4-0.5,2.1-0.8
						S817.8,208.6,818.4,208.3z"/>
					<path style="fill:#45A0D9;" d="M838.8,232.3c-0.4,0-0.8,0-1.2-0.1c-0.4-0.1-0.8-0.1-1.2-0.3c-0.6-0.3-1.2-0.5-1.7-1
						c-0.5-0.4-1-0.9-1.5-1.4c-1-1.2-1.9-2.6-2.4-4.2c-0.5-1.7-0.9-3.3-0.9-5c0-2.3,0.4-4.5,1.3-6.7c0.1-0.4,0.4-0.8,0.6-1.2
						c0.3-0.4,0.5-0.8,0.9-1.2c0.4-0.4,0.6-0.8,1-1c0.4-0.3,0.6-0.5,1-0.6c0.5-0.3,1-0.4,1.5-0.6c0.8-0.3,1.5-0.4,2.4-0.3
						c0.9,0.1,1.7,0.1,2.4,0.3c1,0.3,1.9,0.6,2.7,1.3c0.8,0.6,1.4,1.4,1.9,2.3c0.5,0.9,0.9,1.8,1.2,2.8s0.5,2.1,0.6,3.2
						c0.1,0.8,0.1,1.4,0.1,2.2c0,0.6-0.1,1.4-0.1,2.2c-0.1,0.6-0.3,1.3-0.3,1.9c-0.1,0.6-0.3,1.3-0.5,1.9c-0.3,0.6-0.5,1.2-0.8,1.7
						c-0.3,0.5-0.6,1-1.2,1.5c-0.9,0.8-1.8,1.4-2.7,1.9C841,232.1,840,232.3,838.8,232.3z M838.8,212.8c-0.3,0-0.6,0-0.9,0.1
						c-0.3,0-0.6,0.1-0.9,0.4c-0.3,0.3-0.6,0.4-0.9,0.8c-0.3,0.3-0.5,0.6-0.6,0.9c-0.5,0.8-0.8,1.7-1,2.6c-0.3,0.9-0.3,1.8-0.3,2.8
						c0,0.9,0.1,1.9,0.3,3c0.3,1,0.6,1.9,1.2,2.8c0.3,0.4,0.6,0.8,0.9,1c0.4,0.3,0.8,0.5,1.3,0.6c0.4,0.1,0.9,0.1,1.4,0.1
						c0.5,0,0.9-0.1,1.3-0.4c0.6-0.4,1.2-0.9,1.5-1.5c0.4-0.6,0.6-1.4,0.9-2.2c0.1-0.8,0.3-1.5,0.4-2.4c0-0.8,0-1.5,0-2.2
						c0-0.6-0.1-1.4-0.4-2.1c-0.1-0.8-0.4-1.4-0.8-2.1c-0.4-0.6-0.8-1.2-1.4-1.5C840.2,213.1,839.6,212.8,838.8,212.8z"/>
				</g>
			</g>
			<path style="fill:#241A16;" d="M795.9,221l5-5c0.6-0.6,0.6-1.8,0-2.4c-0.6-0.6-1.8-0.6-2.4,0l-5,5l-5-5c-0.6-0.6-1.8-0.6-2.4,0
				c-0.6,0.6-0.6,1.8,0,2.4l5,5l-5,5c-0.6,0.6-0.6,1.8,0,2.4c0.6,0.6,1.8,0.6,2.4,0l5-5l5,5c0.6,0.6,1.8,0.6,2.4,0
				c0.6-0.6,0.6-1.8,0-2.4L795.9,221z"/>
		</g>
		
			<line style="fill:none;stroke:#000100;stroke-width:2;stroke-linecap:round;stroke-linejoin:round;stroke-miterlimit:10;stroke-dasharray:3,3;" x1="722.4" y1="163" x2="756.4" y2="163"/>
		
			<line style="fill:none;stroke:#000100;stroke-width:2;stroke-linecap:round;stroke-linejoin:round;stroke-miterlimit:10;stroke-dasharray:3,3;" x1="722.4" y1="219" x2="756.4" y2="219"/>
	</g>
</g>
<g>
	<g>
		<path style="fill:#2888BF;" d="M508.7,205.4c4,0,6.9,1.3,8.7,3.9s2.7,6.2,2.7,11v1.8c0,4.7-0.9,8.4-2.7,11s-4.7,3.9-8.7,3.9
			s-6.9-1.3-8.7-3.9s-2.7-6.2-2.7-11v-1.8c0-4.7,0.9-8.4,2.7-11S504.7,205.4,508.7,205.4z M508.7,210.6c-1.1,0-2.1,0.2-2.8,0.6
			c-0.8,0.4-1.4,1-1.8,1.8s-0.8,1.9-1,3.1c-0.2,1.3-0.3,2.8-0.3,4.6v1.1c0,1.8,0.1,3.3,0.3,4.6c0.2,1.3,0.5,2.3,1,3.1
			c0.4,0.8,1,1.4,1.8,1.8c0.8,0.4,1.7,0.6,2.8,0.6s2.1-0.2,2.8-0.6c0.8-0.4,1.4-1,1.8-1.8c0.4-0.8,0.8-1.9,1-3.1
			c0.2-1.3,0.3-2.8,0.3-4.6v-1.1c0-1.8-0.1-3.3-0.3-4.6s-0.5-2.3-1-3.1c-0.4-0.8-1-1.4-1.8-1.8C510.8,210.8,509.8,210.6,508.7,210.6
			z"/>
	</g>
	<g>
		<path style="fill:#2888BF;" d="M455.3,205.9c1.3,0,2.3,0.2,2.8,0.7c0.6,0.5,0.8,1.2,0.8,2.3c0,0.3,0,0.5,0,0.7s-0.1,0.5-0.2,0.7
			c-0.1,0.3-0.2,0.6-0.4,1c-0.2,0.4-0.4,1-0.7,1.7l-10.1,22.3c-0.3,0.8-0.9,1.2-1.5,1.4s-1.3,0-2-0.2c-0.6-0.3-1.1-0.7-1.4-1.3
			s-0.3-1.3,0.2-2.2l10.3-22.4h-14.7c-0.7,0-1.1-0.2-1.5-0.7c-0.3-0.5-0.5-1-0.5-1.6s0.2-1.2,0.5-1.6c0.3-0.5,0.8-0.7,1.5-0.7
			L455.3,205.9L455.3,205.9z"/>
	</g>
	<g>
		<g>
			<path style="fill:#BC3D69;" d="M513.5,147.6c0.5,0.3,0.8,0.7,0.9,1.2s0,1-0.4,1.6L501.8,168h10.4v-7.9c0-0.6,0.2-1.1,0.6-1.4
				c0.4-0.3,0.9-0.4,1.5-0.4s1.1,0.1,1.5,0.4c0.4,0.3,0.6,0.7,0.6,1.4v7.9h3.1c0.5,0,0.9,0.2,1.1,0.5c0.2,0.3,0.3,0.8,0.3,1.2
				s-0.1,0.9-0.3,1.2s-0.6,0.5-1.1,0.5h-3.1v5c0,0.6-0.2,1.1-0.6,1.4c-0.4,0.3-0.9,0.4-1.5,0.4c-0.5,0-1-0.1-1.5-0.4
				s-0.6-0.7-0.6-1.4v-5h-12.8c-1,0-1.7-0.2-2.2-0.5c-0.4-0.3-0.6-0.9-0.6-1.6c0-0.3,0.1-0.6,0.2-0.9c0.1-0.3,0.4-0.9,1-1.7l13-18.7
				c0.3-0.5,0.8-0.8,1.2-0.8C512.6,147.2,513.1,147.3,513.5,147.6z"/>
		</g>
	</g>
	<g>
		<g>
			<path style="fill:#BC3D69;" d="M450.6,147.3c0.7,0,1.2,0.1,1.6,0.4c0.4,0.3,0.6,0.8,0.6,1.4v27.3c0,0.6-0.2,1.1-0.6,1.4
				s-0.9,0.4-1.5,0.4s-1.1-0.1-1.5-0.4c-0.4-0.3-0.6-0.7-0.6-1.4v-24.1l-6.4,4c-0.5,0.3-1.1,0.4-1.5,0.2c-0.5-0.2-0.9-0.5-1.2-1
				c-0.2-0.5-0.3-0.9-0.2-1.4c0.1-0.5,0.4-0.9,0.9-1.2l7.7-4.6c0.6-0.3,1.1-0.6,1.5-0.7C449.7,147.3,450.1,147.3,450.6,147.3z"/>
		</g>
	</g>
	<g>
		<path style="fill:#121312;" d="M508.3,78.6c1.6,0,3,0.2,4.2,0.6s2.2,1,3,1.7s1.4,1.5,1.8,2.5c0.4,0.9,0.6,2,0.6,3v0.4
			c0,1.6-0.3,3.1-1,4.5s-1.8,2.8-3.2,4.3l-9.9,10.4h14c0.5,0,0.9,0.2,1.1,0.5c0.2,0.4,0.4,0.8,0.4,1.3s-0.1,0.9-0.4,1.3
			c-0.2,0.4-0.6,0.5-1.1,0.5h-16.6c-1.1,0-1.9-0.2-2.4-0.6s-0.7-1-0.7-1.8c0-0.4,0.1-0.7,0.3-1.1c0.2-0.3,0.5-0.8,1-1.2l10.5-11.1
			c0.8-0.8,1.4-1.5,1.9-2.1c0.5-0.6,0.9-1.2,1.1-1.7c0.3-0.5,0.5-1.1,0.6-1.6s0.2-1.1,0.2-1.6v-0.2c0-1.3-0.4-2.3-1.3-3
			c-0.9-0.7-2.2-1.1-3.9-1.1c-1.4,0-2.6,0.3-3.6,0.9s-1.8,1.4-2.6,2.6c-0.3,0.4-0.7,0.7-1.2,0.8s-0.9,0-1.4-0.4
			c-0.5-0.3-0.8-0.7-0.9-1.2s0-1,0.3-1.5c0.9-1.4,2.1-2.6,3.7-3.6C504.2,79.1,506.1,78.6,508.3,78.6z"/>
	</g>
	<g>
		<path style="fill:#2888BF;" d="M449.6,78.8c0.8,0,1.5,0.2,2.1,0.6c0.5,0.4,0.8,1,0.8,1.8v26.4c0,0.8-0.3,1.4-0.8,1.8
			s-1.2,0.6-1.9,0.6s-1.4-0.2-1.9-0.6s-0.8-1-0.8-1.8V85.3l-5.5,3.2c-0.7,0.4-1.4,0.5-2,0.2c-0.6-0.2-1.1-0.7-1.5-1.3
			c-0.3-0.6-0.4-1.2-0.3-1.8c0.1-0.7,0.5-1.2,1.2-1.5l7.3-4c0.7-0.4,1.4-0.7,1.9-0.9C448.5,78.9,449.1,78.8,449.6,78.8z"/>
	</g>
	<g>
		
			<line style="fill:none;stroke:#000100;stroke-width:2;stroke-linecap:round;stroke-linejoin:round;stroke-miterlimit:10;" x1="369.2" y1="128.5" x2="548.1" y2="128.5"/>
		
			<line style="fill:none;stroke:#000100;stroke-width:2;stroke-linecap:round;stroke-linejoin:round;stroke-miterlimit:10;" x1="369.2" y1="249.7" x2="548.1" y2="249.7"/>
		<path style="fill:#121312;" d="M395.1,97l7.1-7.1c1-1,1-2.6,0-3.5s-2.6-1-3.5,0l-7.1,7.1l-7.1-7.1c-1-1-2.6-1-3.5,0s-1,2.6,0,3.5
			l7.1,7.1l-7.1,7.1c-1,1-1,2.6,0,3.5s2.6,1,3.5,0l7.1-7.1l7.1,7.1c1,1,2.6,1,3.5,0s1-2.6,0-3.5L395.1,97z"/>
	</g>
	<g>
		<g>
			<path style="fill:#2888BF;" d="M514.8,15.8c1.3,0,2.3,0.2,2.8,0.7c0.6,0.5,0.8,1.2,0.8,2.3c0,0.3,0,0.5,0,0.7s-0.1,0.5-0.2,0.7
				c-0.1,0.3-0.2,0.6-0.4,1s-0.4,1-0.7,1.7L507,45.2c-0.3,0.8-0.9,1.2-1.5,1.4s-1.3,0-2-0.2c-0.6-0.3-1.1-0.7-1.4-1.3
				s-0.3-1.3,0.2-2.2l10.3-22.4h-14.7c-0.7,0-1.1-0.2-1.5-0.7c-0.3-0.5-0.5-1-0.5-1.6s0.2-1.2,0.5-1.6c0.3-0.5,0.8-0.7,1.5-0.7h16.9
				V15.8z"/>
		</g>
	</g>
	<g>
		
			<line style="fill:none;stroke:#000100;stroke-width:1.5;stroke-linecap:round;stroke-linejoin:round;stroke-miterlimit:10;stroke-dasharray:3,3;" x1="538" y1="2.7" x2="538" y2="318.2"/>
		
			<line style="fill:none;stroke:#000100;stroke-width:1.5;stroke-linecap:round;stroke-linejoin:round;stroke-miterlimit:10;stroke-dasharray:3,3;" x1="477.4" y1="2.7" x2="477.4" y2="318.2"/>
		
			<line style="fill:none;stroke:#000100;stroke-width:1.5;stroke-linecap:round;stroke-linejoin:round;stroke-miterlimit:10;stroke-dasharray:3,3;" x1="416.8" y1="2.7" x2="416.8" y2="318.2"/>
		<path style="fill:none;stroke:#000100;stroke-width:2;stroke-linecap:round;stroke-linejoin:round;stroke-miterlimit:10;" d="
			M541,140.5"/>
	</g>
</g>
<g>
	<g>
		<g>
			<path style="fill:#BC3D69;" d="M330,147.6c0.6,0.4,1,0.9,1.1,1.5c0.2,0.6,0,1.3-0.5,2l-11.2,16.2h8.9v-7.1c0-0.8,0.3-1.4,0.8-1.8
				c0.5-0.4,1.2-0.6,1.9-0.6s1.3,0.2,1.9,0.6c0.5,0.4,0.8,1,0.8,1.8v7.1h2.6c0.7,0,1.1,0.2,1.4,0.7c0.3,0.4,0.4,1,0.4,1.6
				s-0.1,1.1-0.4,1.5s-0.8,0.7-1.4,0.7h-2.6v4.3c0,0.8-0.3,1.4-0.8,1.8c-0.5,0.4-1.2,0.6-1.9,0.6s-1.3-0.2-1.9-0.6
				c-0.5-0.4-0.8-1-0.8-1.8v-4.3h-12c-1.2,0-2.1-0.2-2.6-0.6c-0.5-0.4-0.8-1.1-0.8-2c0-0.1,0-0.3,0-0.5s0.1-0.3,0.2-0.6
				c0.1-0.2,0.2-0.5,0.4-0.8s0.4-0.7,0.7-1.1l12.3-17.8c0.4-0.6,1-1,1.6-1.1C328.8,147.2,329.4,147.3,330,147.6z"/>
		</g>
	</g>
	<g>
		<g>
			<path style="fill:#BC3D69;" d="M267.4,147.2c0.8,0,1.5,0.2,2.1,0.6c0.5,0.4,0.8,1,0.8,1.8V176c0,0.8-0.3,1.4-0.8,1.8
				c-0.5,0.4-1.2,0.6-1.9,0.6s-1.4-0.2-1.9-0.6c-0.5-0.4-0.8-1-0.8-1.8v-22.3l-5.5,3.2c-0.7,0.4-1.4,0.5-2,0.2
				c-0.6-0.2-1.1-0.7-1.5-1.3c-0.3-0.6-0.4-1.2-0.3-1.8c0.1-0.7,0.5-1.2,1.2-1.5l7.3-4c0.7-0.4,1.4-0.7,1.9-0.9
				C266.3,147.3,266.9,147.2,267.4,147.2z"/>
		</g>
	</g>
	<g>
		<path style="fill:#121312;" d="M265.8,78.9c0.7,0,1.2,0.1,1.6,0.4s0.6,0.8,0.6,1.4V108c0,0.6-0.2,1.1-0.6,1.4s-0.9,0.4-1.5,0.4
			s-1.1-0.1-1.5-0.4s-0.6-0.7-0.6-1.4V83.9l-6.4,4c-0.5,0.3-1.1,0.4-1.5,0.2c-0.5-0.2-0.9-0.5-1.2-1c-0.2-0.5-0.3-0.9-0.2-1.4
			s0.4-0.9,0.9-1.2l7.7-4.6c0.6-0.3,1.1-0.6,1.5-0.7C264.9,78.9,265.4,78.9,265.8,78.9z"/>
	</g>
	<g>
		
			<line style="fill:none;stroke:#000100;stroke-width:2;stroke-linecap:round;stroke-linejoin:round;stroke-miterlimit:10;" x1="185.8" y1="128.5" x2="364.6" y2="128.5"/>
		
			<line style="fill:none;stroke:#000100;stroke-width:2;stroke-linecap:round;stroke-linejoin:round;stroke-miterlimit:10;" x1="185.8" y1="249.7" x2="364.6" y2="249.7"/>
		<path style="fill:#121312;" d="M211.6,97l7.1-7.1c1-1,1-2.6,0-3.5s-2.6-1-3.5,0l-7.1,7.1l-7.1-7.1c-1-1-2.6-1-3.5,0s-1,2.6,0,3.5
			l7.1,7.1l-7.1,7.1c-1,1-1,2.6,0,3.5s2.6,1,3.5,0l7.1-7.1l7.1,7.1c1,1,2.6,1,3.5,0s1-2.6,0-3.5L211.6,97z"/>
	</g>
	<g>
		<g>
			<path style="fill:#BC3D69;" d="M324.8,78.6c1.7,0,3.3,0.2,4.5,0.6c1.3,0.4,2.3,1,3.1,1.7c0.8,0.7,1.4,1.6,1.8,2.5
				c0.4,1,0.6,2,0.6,3v0.5c0,1.6-0.4,3.2-1.1,4.7c-0.8,1.5-1.9,3-3.3,4.5l-9.1,9h13c0.7,0,1.1,0.2,1.5,0.7c0.3,0.4,0.5,1,0.5,1.6
				s-0.2,1.2-0.5,1.6s-0.8,0.7-1.5,0.7H318c-1.4,0-2.4-0.2-3-0.7s-0.9-1.2-0.9-2.2c0-0.5,0.1-0.9,0.4-1.3c0.2-0.4,0.6-0.8,1.1-1.3
				l10-10.1c0.8-0.8,1.4-1.5,1.9-2.1s0.9-1.2,1.2-1.7c0.3-0.5,0.5-1.1,0.6-1.6s0.2-1,0.2-1.6v-0.2c0-0.9-0.4-1.7-1.1-2.3
				c-0.7-0.6-1.8-0.9-3.3-0.9c-1.3,0-2.4,0.2-3.2,0.7c-0.9,0.5-1.7,1.2-2.4,2.2c-0.4,0.5-0.9,0.9-1.5,0.9c-0.6,0.1-1.2-0.1-1.8-0.5
				c-0.6-0.4-0.9-0.9-1.1-1.5s0-1.2,0.4-1.9c0.9-1.4,2.2-2.6,3.8-3.5S322.6,78.6,324.8,78.6z"/>
		</g>
	</g>
	<g>
		<g>
			<path style="fill:#BC3D69;" d="M331.3,15.8c1.3,0,2.3,0.2,2.8,0.7c0.6,0.5,0.8,1.2,0.8,2.3c0,0.3,0,0.5,0,0.7s-0.1,0.5-0.2,0.7
				c-0.1,0.3-0.2,0.6-0.4,1c-0.2,0.4-0.4,1-0.7,1.7l-10.1,22.3c-0.3,0.8-0.9,1.2-1.5,1.4s-1.3,0-2-0.2c-0.6-0.3-1.1-0.7-1.4-1.3
				s-0.3-1.3,0.2-2.2l10.3-22.4h-14.7c-0.7,0-1.1-0.2-1.5-0.7c-0.3-0.5-0.5-1-0.5-1.6s0.2-1.2,0.5-1.6c0.3-0.5,0.8-0.7,1.5-0.7h16.9
				V15.8z"/>
		</g>
	</g>
	<g>
		
			<line style="fill:none;stroke:#000100;stroke-width:1.5;stroke-linecap:round;stroke-linejoin:round;stroke-miterlimit:10;stroke-dasharray:3,3;" x1="354.5" y1="2.7" x2="354.5" y2="318.2"/>
		
			<line style="fill:none;stroke:#000100;stroke-width:1.5;stroke-linecap:round;stroke-linejoin:round;stroke-miterlimit:10;stroke-dasharray:3,3;" x1="293.9" y1="2.7" x2="293.9" y2="318.2"/>
		
			<line style="fill:none;stroke:#000100;stroke-width:1.5;stroke-linecap:round;stroke-linejoin:round;stroke-miterlimit:10;stroke-dasharray:3,3;" x1="233.3" y1="2.7" x2="233.3" y2="318.2"/>
		<path style="fill:none;stroke:#000100;stroke-width:2;stroke-linecap:round;stroke-linejoin:round;stroke-miterlimit:10;" d="
			M357.5,140.5"/>
	</g>
</g>
<g>
	<g>
		<path style="fill:#121312;" d="M83.2,78.9c0.7,0,1.2,0.1,1.6,0.4s0.6,0.8,0.6,1.4V108c0,0.6-0.2,1.1-0.6,1.4s-0.9,0.4-1.5,0.4
			s-1.1-0.1-1.5-0.4s-0.6-0.7-0.6-1.4V83.9l-6.4,4c-0.5,0.3-1.1,0.4-1.5,0.2c-0.5-0.2-0.9-0.5-1.2-1c-0.2-0.5-0.3-0.9-0.2-1.4
			c0.1-0.5,0.4-0.9,0.9-1.2l7.7-4.6c0.6-0.3,1.1-0.6,1.5-0.7C82.3,78.9,82.8,78.9,83.2,78.9z"/>
	</g>
	<g>
		
			<line style="fill:none;stroke:#000100;stroke-width:2;stroke-linecap:round;stroke-linejoin:round;stroke-miterlimit:10;" x1="3.1" y1="128.5" x2="182" y2="128.5"/>
		
			<line style="fill:none;stroke:#000100;stroke-width:2;stroke-linecap:round;stroke-linejoin:round;stroke-miterlimit:10;" x1="3.1" y1="249.7" x2="182" y2="249.7"/>
		<path style="fill:#121312;" d="M29,97l7.1-7.1c1-1,1-2.6,0-3.5s-2.6-1-3.5,0l-7.1,7.1l-7.1-7.1c-1-1-2.6-1-3.5,0s-1,2.6,0,3.5
			L22,97l-7.1,7.1c-1,1-1,2.6,0,3.5s2.6,1,3.5,0l7.1-7.1l7.1,7.1c1,1,2.6,1,3.5,0s1-2.6,0-3.5L29,97z"/>
	</g>
	<g>
		<g>
			<path style="fill:#121312;" d="M142.2,78.6c1.6,0,3,0.2,4.2,0.6s2.2,1,3,1.7s1.4,1.5,1.8,2.5c0.4,0.9,0.6,2,0.6,3v0.4
				c0,1.6-0.3,3.1-1,4.5s-1.8,2.8-3.2,4.3l-9.9,10.4h14c0.5,0,0.9,0.2,1.1,0.5c0.2,0.4,0.4,0.8,0.4,1.3s-0.1,0.9-0.4,1.3
				c-0.2,0.4-0.6,0.5-1.1,0.5h-16.6c-1.1,0-1.9-0.2-2.4-0.6s-0.7-1-0.7-1.8c0-0.4,0.1-0.7,0.3-1.1c0.2-0.3,0.5-0.8,1-1.2l10.5-11.1
				c0.8-0.8,1.4-1.5,1.9-2.1s0.9-1.2,1.1-1.7c0.3-0.5,0.5-1.1,0.6-1.6s0.2-1.1,0.2-1.6v-0.2c0-1.3-0.4-2.3-1.3-3
				c-0.9-0.7-2.2-1.1-3.9-1.1c-1.4,0-2.6,0.3-3.6,0.9s-1.8,1.4-2.6,2.6c-0.3,0.4-0.7,0.7-1.2,0.8s-0.9,0-1.4-0.4
				c-0.5-0.3-0.8-0.7-0.9-1.2c-0.1-0.5,0-1,0.3-1.5c0.9-1.4,2.1-2.6,3.7-3.6C138.1,79.1,140,78.6,142.2,78.6z"/>
		</g>
	</g>
	<g>
		<g>
			<path style="fill:#121312;" d="M151.3,16.3c0.5,0.4,0.7,1,0.7,1.8c0,0.2,0,0.4,0,0.6s-0.1,0.4-0.2,0.6c-0.1,0.2-0.2,0.5-0.3,0.9
				c-0.1,0.3-0.3,0.8-0.6,1.3l-10.9,24c-0.3,0.6-0.7,1-1.2,1.1s-1,0-1.5-0.2s-0.9-0.6-1.1-1c-0.2-0.4-0.2-1,0.1-1.6l11.1-24.2h-15.7
				c-0.5,0-0.9-0.2-1.1-0.6c-0.2-0.4-0.4-0.8-0.4-1.3s0.1-0.9,0.4-1.3c0.2-0.4,0.6-0.6,1.1-0.6H149C150.1,15.8,150.8,16,151.3,16.3z
				"/>
		</g>
	</g>
	<g>
		
			<line style="fill:none;stroke:#000100;stroke-width:1.5;stroke-linecap:round;stroke-linejoin:round;stroke-miterlimit:10;stroke-dasharray:3,3;" x1="171.9" y1="2.7" x2="171.9" y2="318.2"/>
		
			<line style="fill:none;stroke:#000100;stroke-width:1.5;stroke-linecap:round;stroke-linejoin:round;stroke-miterlimit:10;stroke-dasharray:3,3;" x1="111.3" y1="2.7" x2="111.3" y2="318.2"/>
		
			<line style="fill:none;stroke:#000100;stroke-width:1.5;stroke-linecap:round;stroke-linejoin:round;stroke-miterlimit:10;stroke-dasharray:3,3;" x1="50.7" y1="2.7" x2="50.7" y2="318.2"/>
		<path style="fill:none;stroke:#000100;stroke-width:2;stroke-linecap:round;stroke-linejoin:round;stroke-miterlimit:10;" d="
			M174.9,140.5"/>
	</g>
</g>
</svg>
