<?xml version="1.0" encoding="utf-8"?>
<!-- Generator: Adobe Illustrator 23.1.0, SVG Export Plug-In . SVG Version: 6.00 Build 0)  -->
<svg version="1.1" id="레이어_1" xmlns="http://www.w3.org/2000/svg" xmlns:xlink="http://www.w3.org/1999/xlink" x="0px"
	 y="0px" width="174px" height="35px" viewBox="0 0 174 35" style="enable-background:new 0 0 174 35;" xml:space="preserve">
<g>
	<g>
		<path style="opacity:0.2;" d="M167.7,33.7H7c-2.6,0-4.7-2.1-4.7-4.7V7c0-2.6,2.1-4.7,4.7-4.7h160.7c2.6,0,4.7,2.1,4.7,4.7v22
			C172.4,31.6,170.3,33.7,167.7,33.7z"/>
		<linearGradient id="SVGID_1_" gradientUnits="userSpaceOnUse" x1="1.2731" y1="16.9835" x2="171.4035" y2="16.9835">
			<stop  offset="2.261307e-02" style="stop-color:#CDE8F3"/>
			<stop  offset="0.5519" style="stop-color:#E3F7FF"/>
		</linearGradient>
		<path style="fill:url(#SVGID_1_);" d="M166.7,32.7H6c-2.6,0-4.7-2.1-4.7-4.7V6c0-2.6,2.1-4.7,4.7-4.7h160.7c2.6,0,4.7,2.1,4.7,4.7
			v22C171.4,30.6,169.3,32.7,166.7,32.7z"/>
		<path style="opacity:0.6;fill:#FFFFFF;" d="M167.4,32.2H6.7c-2.6,0-4.7-2.1-4.7-4.7v-22c0-1.4,0.7-2.7,1.7-3.6
			C2.2,2.8,1.3,4.2,1.3,6v22c0,2.6,2.1,4.7,4.7,4.7h160.7c1.2,0,2.2-0.4,3-1.1C169.1,31.9,168.3,32.2,167.4,32.2z"/>
		<g>
			<path style="fill:#292F30;" d="M167.1,33.2H5.6c-2.5,0-4.6-2-4.6-4.6V5.6C1,3,3,1,5.6,1h161.5c2.5,0,4.6,2,4.6,4.6v23.1
				C171.6,31.2,169.6,33.2,167.1,33.2z M5.6,1.5c-2.2,0-4.1,1.8-4.1,4.1v23.1c0,2.2,1.8,4.1,4.1,4.1h161.5c2.2,0,4.1-1.8,4.1-4.1
				V5.6c0-2.2-1.8-4.1-4.1-4.1H5.6z"/>
		</g>
		
			<line style="opacity:0.5;fill:none;stroke:#FFFFFF;stroke-linecap:round;stroke-linejoin:round;" x1="7.9" y1="2.4" x2="149.4" y2="2.4"/>
	</g>
	<g>
		<path d="M15.5,19.7c0,1.6-0.5,3.4-2.3,3.4c-1.8,0-2.3-1.7-2.3-3.4c0-1.7,0.6-3.4,2.3-3.4C15,16.4,15.5,18,15.5,19.7z M11.9,19.8
			c0,1.2,0.2,2.6,1.3,2.6c1.1,0,1.3-1.3,1.3-2.6c0-1.3-0.2-2.5-1.3-2.5C12.2,17.2,11.9,18.3,11.9,19.8z"/>
		<path d="M42.2,23v-5.4c-0.3,0.2-1,0.5-1.3,0.5v-0.8c0.5-0.1,1.2-0.5,1.6-0.9h0.7V23H42.2z"/>
		<path d="M68.9,23L68.9,23c0-1,0.6-2,2-3c1-0.8,1.3-1,1.3-1.7c0-0.6-0.3-1.1-1.1-1.1c-0.8,0-1.1,0.4-1.2,1.2h-1
			c0.1-1.1,0.8-2,2.2-2c1.5,0,2.1,1,2.1,1.9c0,1-0.4,1.4-1.6,2.3c-0.9,0.7-1.3,1.2-1.5,1.6h3.4L73.2,23H68.9z"/>
		<path d="M97.8,18.1c0.1-0.8,0.7-1.7,2.1-1.7c1.4,0,2,0.8,2,1.7c0,0.8-0.5,1.2-0.9,1.3v0c0.6,0.2,1.1,0.6,1.1,1.6c0,1-0.6,2-2.3,2
			c-1.5,0-2.2-1-2.3-1.8h1c0.1,0.6,0.5,1,1.3,1c0.9,0,1.3-0.6,1.3-1.3c0-0.8-0.5-1.2-1.3-1.2h-0.5v-0.8h0.4c0.8,0,1.2-0.3,1.2-1
			c0-0.6-0.4-0.9-1.1-0.9c-0.8,0-1,0.4-1.1,0.9H97.8z"/>
		<path d="M129.5,23v-1.6h-3v-0.9l2.9-4h1v4.1h0.8l-0.1,0.8h-0.7V23H129.5z M129.5,19c0-0.5,0-1.1,0-1.6c-0.3,0.5-1.5,2.2-2.1,3.1
			h2.1V19z"/>
		<path d="M160.1,17.3h-2.7c-0.1,0.5-0.2,1.4-0.3,1.7c0.3-0.3,0.7-0.5,1.3-0.5c1.2,0,2,0.8,2,2.2c0,1.3-0.7,2.4-2.3,2.4
			c-1.2,0-2-0.6-2.2-1.8h1c0.1,0.6,0.6,1,1.3,1c0.8,0,1.3-0.6,1.3-1.5c0-0.8-0.3-1.4-1.2-1.4c-0.8,0-1.1,0.3-1.3,0.8l-0.9-0.2
			c0.2-0.8,0.4-2.7,0.5-3.6h3.6L160.1,17.3z"/>
	</g>
	<g>
		
			<line style="fill:none;stroke:#000000;stroke-width:0.5;stroke-linecap:round;stroke-linejoin:round;" x1="13.4" y1="1.3" x2="13.4" y2="13.3"/>
	</g>
	<g>
		
			<line style="fill:none;stroke:#000000;stroke-width:0.5;stroke-linecap:round;stroke-linejoin:round;" x1="16.3" y1="1.3" x2="16.3" y2="6.3"/>
	</g>
	<g>
		
			<line style="fill:none;stroke:#000000;stroke-width:0.5;stroke-linecap:round;stroke-linejoin:round;" x1="19.2" y1="1.3" x2="19.2" y2="6.3"/>
	</g>
	<g>
		
			<line style="fill:none;stroke:#000000;stroke-width:0.5;stroke-linecap:round;stroke-linejoin:round;" x1="22.1" y1="1.3" x2="22.1" y2="6.3"/>
	</g>
	<g>
		
			<line style="fill:none;stroke:#000000;stroke-width:0.5;stroke-linecap:round;stroke-linejoin:round;" x1="25" y1="1.3" x2="25" y2="6.3"/>
	</g>
	<g>
		
			<line style="fill:none;stroke:#000000;stroke-width:0.5;stroke-linecap:round;stroke-linejoin:round;" x1="27.9" y1="1.3" x2="27.9" y2="9.8"/>
	</g>
	<g>
		
			<line style="fill:none;stroke:#000000;stroke-width:0.5;stroke-linecap:round;stroke-linejoin:round;" x1="30.7" y1="1.3" x2="30.7" y2="6.3"/>
	</g>
	<g>
		
			<line style="fill:none;stroke:#000000;stroke-width:0.5;stroke-linecap:round;stroke-linejoin:round;" x1="33.6" y1="1.3" x2="33.6" y2="6.3"/>
	</g>
	<g>
		
			<line style="fill:none;stroke:#000000;stroke-width:0.5;stroke-linecap:round;stroke-linejoin:round;" x1="36.5" y1="1.3" x2="36.5" y2="6.3"/>
	</g>
	<g>
		
			<line style="fill:none;stroke:#000000;stroke-width:0.5;stroke-linecap:round;stroke-linejoin:round;" x1="39.4" y1="1.3" x2="39.4" y2="6.3"/>
	</g>
	<g>
		
			<line style="fill:none;stroke:#000000;stroke-width:0.5;stroke-linecap:round;stroke-linejoin:round;" x1="42.3" y1="1.3" x2="42.3" y2="13.3"/>
	</g>
	<g>
		
			<line style="fill:none;stroke:#000000;stroke-width:0.5;stroke-linecap:round;stroke-linejoin:round;" x1="45.2" y1="1.3" x2="45.2" y2="6.3"/>
	</g>
	<g>
		
			<line style="fill:none;stroke:#000000;stroke-width:0.5;stroke-linecap:round;stroke-linejoin:round;" x1="48.1" y1="1.3" x2="48.1" y2="6.3"/>
	</g>
	<g>
		
			<line style="fill:none;stroke:#000000;stroke-width:0.5;stroke-linecap:round;stroke-linejoin:round;" x1="51" y1="1.3" x2="51" y2="6.3"/>
	</g>
	<g>
		
			<line style="fill:none;stroke:#000000;stroke-width:0.5;stroke-linecap:round;stroke-linejoin:round;" x1="53.9" y1="1.3" x2="53.9" y2="6.3"/>
	</g>
	<g>
		
			<line style="fill:none;stroke:#000000;stroke-width:0.5;stroke-linecap:round;stroke-linejoin:round;" x1="56.8" y1="1.3" x2="56.8" y2="9.8"/>
	</g>
	<g>
		
			<line style="fill:none;stroke:#000000;stroke-width:0.5;stroke-linecap:round;stroke-linejoin:round;" x1="59.7" y1="1.3" x2="59.7" y2="6.3"/>
	</g>
	<g>
		
			<line style="fill:none;stroke:#000000;stroke-width:0.5;stroke-linecap:round;stroke-linejoin:round;" x1="62.5" y1="1.3" x2="62.5" y2="6.3"/>
	</g>
	<g>
		
			<line style="fill:none;stroke:#000000;stroke-width:0.5;stroke-linecap:round;stroke-linejoin:round;" x1="65.4" y1="1.3" x2="65.4" y2="6.3"/>
	</g>
	<g>
		
			<line style="fill:none;stroke:#000000;stroke-width:0.5;stroke-linecap:round;stroke-linejoin:round;" x1="68.3" y1="1.3" x2="68.3" y2="6.3"/>
	</g>
	<g>
		
			<line style="fill:none;stroke:#000000;stroke-width:0.5;stroke-linecap:round;stroke-linejoin:round;" x1="71.2" y1="1.3" x2="71.2" y2="13.3"/>
	</g>
	<g>
		
			<line style="fill:none;stroke:#000000;stroke-width:0.5;stroke-linecap:round;stroke-linejoin:round;" x1="74.1" y1="1.3" x2="74.1" y2="6.3"/>
	</g>
	<g>
		
			<line style="fill:none;stroke:#000000;stroke-width:0.5;stroke-linecap:round;stroke-linejoin:round;" x1="77" y1="1.3" x2="77" y2="6.3"/>
	</g>
	<g>
		
			<line style="fill:none;stroke:#000000;stroke-width:0.5;stroke-linecap:round;stroke-linejoin:round;" x1="79.9" y1="1.3" x2="79.9" y2="6.3"/>
	</g>
	<g>
		
			<line style="fill:none;stroke:#000000;stroke-width:0.5;stroke-linecap:round;stroke-linejoin:round;" x1="82.8" y1="1.3" x2="82.8" y2="6.3"/>
	</g>
	<g>
		
			<line style="fill:none;stroke:#000000;stroke-width:0.5;stroke-linecap:round;stroke-linejoin:round;" x1="85.7" y1="1.3" x2="85.7" y2="9.8"/>
	</g>
	<g>
		
			<line style="fill:none;stroke:#000000;stroke-width:0.5;stroke-linecap:round;stroke-linejoin:round;" x1="88.6" y1="1.3" x2="88.6" y2="6.3"/>
	</g>
	<g>
		
			<line style="fill:none;stroke:#000000;stroke-width:0.5;stroke-linecap:round;stroke-linejoin:round;" x1="91.4" y1="1.3" x2="91.4" y2="6.3"/>
	</g>
	<g>
		
			<line style="fill:none;stroke:#000000;stroke-width:0.5;stroke-linecap:round;stroke-linejoin:round;" x1="94.3" y1="1.3" x2="94.3" y2="6.3"/>
	</g>
	<g>
		
			<line style="fill:none;stroke:#000000;stroke-width:0.5;stroke-linecap:round;stroke-linejoin:round;" x1="97.2" y1="1.3" x2="97.2" y2="6.3"/>
	</g>
	<g>
		
			<line style="fill:none;stroke:#000000;stroke-width:0.5;stroke-linecap:round;stroke-linejoin:round;" x1="100.1" y1="1.3" x2="100.1" y2="13.3"/>
	</g>
	<g>
		
			<line style="fill:none;stroke:#000000;stroke-width:0.5;stroke-linecap:round;stroke-linejoin:round;" x1="103" y1="1.3" x2="103" y2="6.3"/>
	</g>
	<g>
		
			<line style="fill:none;stroke:#000000;stroke-width:0.5;stroke-linecap:round;stroke-linejoin:round;" x1="105.9" y1="1.3" x2="105.9" y2="6.3"/>
	</g>
	<g>
		
			<line style="fill:none;stroke:#000000;stroke-width:0.5;stroke-linecap:round;stroke-linejoin:round;" x1="108.8" y1="1.3" x2="108.8" y2="6.3"/>
	</g>
	<g>
		
			<line style="fill:none;stroke:#000000;stroke-width:0.5;stroke-linecap:round;stroke-linejoin:round;" x1="111.7" y1="1.3" x2="111.7" y2="6.3"/>
	</g>
	<g>
		
			<line style="fill:none;stroke:#000000;stroke-width:0.5;stroke-linecap:round;stroke-linejoin:round;" x1="114.6" y1="1.3" x2="114.6" y2="9.8"/>
	</g>
	<g>
		
			<line style="fill:none;stroke:#000000;stroke-width:0.5;stroke-linecap:round;stroke-linejoin:round;" x1="117.5" y1="1.3" x2="117.5" y2="6.3"/>
	</g>
	<g>
		
			<line style="fill:none;stroke:#000000;stroke-width:0.5;stroke-linecap:round;stroke-linejoin:round;" x1="120.3" y1="1.3" x2="120.3" y2="6.3"/>
	</g>
	<g>
		
			<line style="fill:none;stroke:#000000;stroke-width:0.5;stroke-linecap:round;stroke-linejoin:round;" x1="123.2" y1="1.3" x2="123.2" y2="6.3"/>
	</g>
	<g>
		
			<line style="fill:none;stroke:#000000;stroke-width:0.5;stroke-linecap:round;stroke-linejoin:round;" x1="126.1" y1="1.3" x2="126.1" y2="6.3"/>
	</g>
	<g>
		
			<line style="fill:none;stroke:#000000;stroke-width:0.5;stroke-linecap:round;stroke-linejoin:round;" x1="129" y1="1.3" x2="129" y2="13.3"/>
	</g>
	<g>
		
			<line style="fill:none;stroke:#000000;stroke-width:0.5;stroke-linecap:round;stroke-linejoin:round;" x1="131.9" y1="1.3" x2="131.9" y2="6.3"/>
	</g>
	<g>
		
			<line style="fill:none;stroke:#000000;stroke-width:0.5;stroke-linecap:round;stroke-linejoin:round;" x1="134.8" y1="1.3" x2="134.8" y2="6.3"/>
	</g>
	<g>
		
			<line style="fill:none;stroke:#000000;stroke-width:0.5;stroke-linecap:round;stroke-linejoin:round;" x1="137.7" y1="1.3" x2="137.7" y2="6.3"/>
	</g>
	<g>
		
			<line style="fill:none;stroke:#000000;stroke-width:0.5;stroke-linecap:round;stroke-linejoin:round;" x1="140.6" y1="1.3" x2="140.6" y2="6.3"/>
	</g>
	<g>
		
			<line style="fill:none;stroke:#000000;stroke-width:0.5;stroke-linecap:round;stroke-linejoin:round;" x1="143.5" y1="1.3" x2="143.5" y2="9.8"/>
	</g>
	<g>
		
			<line style="fill:none;stroke:#000000;stroke-width:0.5;stroke-linecap:round;stroke-linejoin:round;" x1="146.4" y1="1.3" x2="146.4" y2="6.3"/>
	</g>
	<g>
		
			<line style="fill:none;stroke:#000000;stroke-width:0.5;stroke-linecap:round;stroke-linejoin:round;" x1="149.3" y1="1.3" x2="149.3" y2="6.3"/>
	</g>
	<g>
		
			<line style="fill:none;stroke:#000000;stroke-width:0.5;stroke-linecap:round;stroke-linejoin:round;" x1="152.1" y1="1.3" x2="152.1" y2="6.3"/>
	</g>
	<g>
		
			<line style="fill:none;stroke:#000000;stroke-width:0.5;stroke-linecap:round;stroke-linejoin:round;" x1="155" y1="1.3" x2="155" y2="6.3"/>
	</g>
	<g>
		
			<line style="fill:none;stroke:#000000;stroke-width:0.5;stroke-linecap:round;stroke-linejoin:round;" x1="157.9" y1="1.3" x2="157.9" y2="13.3"/>
	</g>
</g>
<g>
</g>
<g>
</g>
<g>
</g>
<g>
</g>
<g>
</g>
<g>
</g>
<g>
</g>
<g>
</g>
<g>
</g>
<g>
</g>
<g>
</g>
<g>
</g>
<g>
</g>
<g>
</g>
<g>
</g>
</svg>
