
<svg xmlns="http://www.w3.org/2000/svg" version="1.1" xmlns:xlink="http://www.w3.org/1999/xlink" preserveAspectRatio="none" x="0px" y="0px" width="1280px" height="720px" viewBox="0 0 1280 720">
<defs>
<g id="Layer0_0_FILL">
<path fill="#1E1E1E" stroke="none" d="
M 670.5 505.75
Q 671.05 505.75 671.05 505.2
L 671.05 501.65
Q 671.05 501.15 670.5 501.15
L 665.35 501.15 662.95 501.15 649.15 501.15
Q 648.9 501.15 648.75 501.3 648.6 501.45 648.6 501.65
L 648.6 505.2
Q 648.6 505.4 648.75 505.6 648.9 505.75 649.15 505.75
L 662.95 505.75 665.35 505.75 670.5 505.75
M 987 517
Q 987 515.9 986.2 515.15 985.4 514.4 984.35 514.4 983.25 514.4 982.55 515.15 981.8 515.9 981.8 517 981.8 518.05 982.55 518.8 983.25 519.55 984.35 519.55 985.4 519.55 986.2 518.8 987 518.05 987 517
M 981.9 488.75
Q 981.1 488.9 980.3 489.1 979.45 489.35 978.8 489.55 978.35 489.75 978.35 490.1
L 978.35 493.45
Q 978.35 494.15 979.2 493.75 980.55 493.15 981.8 492.9 983 492.65 984.55 492.65 986.3 492.65 987.55 493.65 988.8 494.65 988.8 496.55 988.8 498 987.9 499.65 987.05 501.25 985.85 502.65 985 503.6 984.35 504.55 983.75 505.55 983.3 506.55 982.9 507.45 982.65 508.75 982.45 510.05 982.45 511.3 982.45 511.7 982.55 511.8 982.7 511.95 983 511.95
L 986 511.95
Q 986.65 511.95 986.65 511.2 986.65 509.7 987 508.5 987.35 507.3 988.05 506.3 988.7 505.45 989.65 504.05 990.6 502.7 991.7 501.25 992.35 500.35 992.8 499.05 993.15 497.8 993.15 495.85 993.15 494.25 992.55 492.9 991.95 491.55 990.85 490.55 989.75 489.55 988.2 489 986.7 488.45 984.95 488.45 984.35 488.45 983.55 488.55 982.75 488.6 981.9 488.75
M 964.9 506.6
Q 964.7 506.45 964.45 506.45
L 961 506.45
Q 960.4 506.45 960.4 507
L 960.4 513.25 950.85 513.25 950.85 507
Q 950.85 506.45 950.25 506.45
L 946.8 506.45
Q 946.2 506.45 946.2 507
L 946.2 513.25 938.25 513.25
Q 937.65 513.25 937.65 513.9
L 937.65 516.5
Q 937.65 516.7 937.8 516.9 937.95 517.1 938.25 517.1
L 973.05 517.1
Q 973.25 517.1 973.45 516.9 973.65 516.7 973.65 516.5
L 973.65 513.9
Q 973.65 513.65 973.45 513.45 973.25 513.25 973.05 513.25
L 965.05 513.25 965.05 507
Q 965.05 506.75 964.9 506.6
M 946.45 489.95
Q 944.65 491.1 943.6 492.7 942.6 494.35 942.6 496.4 942.6 498.55 943.6 500.2 944.65 501.8 946.45 502.9 948.25 504 950.6 504.55 952.95 505.1 955.6 505.1 958.3 505.1 960.7 504.55 963.05 504 964.85 502.9 966.65 501.8 967.65 500.2 968.7 498.55 968.7 496.4 968.7 494.35 967.65 492.7 966.65 491.1 964.85 489.95 963.05 488.85 960.7 488.3 958.3 487.75 955.6 487.75 952.95 487.75 950.6 488.3 948.25 488.85 946.45 489.95
M 948.05 494.4
Q 948.75 493.45 949.9 492.85 951.05 492.2 952.55 491.9 954.05 491.55 955.65 491.55 957.2 491.55 958.7 491.9 960.2 492.2 961.35 492.85 962.55 493.45 963.25 494.4 963.95 495.3 963.95 496.45 963.95 497.65 963.25 498.6 962.55 499.5 961.35 500.1 960.2 500.75 958.7 501.1 957.2 501.4 955.65 501.4 954.05 501.4 952.55 501.1 951.05 500.75 949.9 500.1 948.75 499.5 948.05 498.6 947.35 497.65 947.35 496.45 947.35 495.3 948.05 494.4
M 930.1 485.6
L 926.7 485.6
Q 926.2 485.6 926.2 486.15
L 926.2 523.05
Q 926.2 523.6 926.7 523.6
L 930.1 523.6
Q 930.65 523.6 930.65 523.05
L 930.65 504.15 936.05 504.15
Q 936.25 504.15 936.45 504 936.6 503.85 936.6 503.65
L 936.6 500.8
Q 936.6 500.6 936.45 500.45 936.25 500.35 936.05 500.35
L 930.65 500.35 930.65 486.15
Q 930.65 485.6 930.1 485.6
M 919.95 488.7
L 913.45 488.7
Q 912.9 488.7 912.9 489.15
L 912.9 491.65
Q 912.9 492.2 913.45 492.2
L 917.25 492.2
Q 917.9 492.2 918.05 492.45 918.2 492.75 918.2 493.55 918.2 495.8 917.55 498.4 916.95 501.05 915.8 503.65 914.7 506.2 913.15 508.6 911.6 511 909.8 512.95 909.6 513.1 909.5 513.5 909.4 513.9 909.7 514.15
L 911.7 515.85
Q 912 516.1 912.35 516 912.75 515.9 912.95 515.75 915.35 513.3 917.15 510.35 919.05 507.35 920.25 504.2 921.5 501 922.1 497.75 922.75 494.5 922.75 491.4 922.75 489.9 922.1 489.3 921.5 488.7 919.95 488.7
M 907.35 492.45
Q 907.45 492.75 907.45 493.55 907.45 495.1 906.9 497.05 906.4 499.05 905.4 501.15 904.45 503.25 903.15 505.3 901.8 507.3 900.15 508.85 899.95 509.05 899.9 509.4 899.85 509.75 900.1 510
L 901.85 511.55
Q 902.15 511.85 902.55 511.8 902.95 511.7 903.25 511.45 905.3 509.4 906.9 506.95 908.5 504.5 909.6 501.9 910.7 499.35 911.25 496.7 911.8 494.05 911.8 491.55 911.8 490.05 911.2 489.4 910.6 488.7 909 488.7
L 901.75 488.7
Q 901.2 488.7 901.2 489.15
L 901.2 491.65
Q 901.2 492.2 901.75 492.2
L 906.45 492.2
Q 907.15 492.2 907.35 492.45
M 871 510.9
Q 871.15 511.05 871.4 511.05
L 889.3 511.05
Q 889.65 511.05 889.75 511.15 889.85 511.2 889.85 511.65
L 889.85 513.15
Q 889.85 513.5 889.75 513.6 889.65 513.7 889.35 513.7
L 873.55 513.7
Q 871.95 513.7 871.45 514.25 870.85 514.85 870.85 516.15
L 870.85 521
Q 870.85 522.3 871.45 522.9 872 523.5 873.6 523.5
L 894.8 523.5
Q 894.95 523.5 895.1 523.3 895.3 523.15 895.3 522.95
L 895.3 520.4
Q 895.3 520.1 895.1 519.95 894.95 519.8 894.75 519.8
L 875.95 519.8
Q 875.6 519.8 875.5 519.75 875.4 519.7 875.4 519.35
L 875.4 517.65
Q 875.4 517.35 875.5 517.25 875.6 517.15 875.9 517.15
L 891.6 517.15
Q 893.2 517.15 893.75 516.6 894.3 516.1 894.3 514.7
L 894.3 509.85
Q 894.3 508.5 893.75 507.95 893.2 507.35 891.6 507.35
L 871.4 507.35
Q 871.15 507.35 871 507.55 870.8 507.75 870.8 507.95
L 870.8 510.55
Q 870.8 510.75 871 510.9
M 867.35 489.05
Q 866.15 490.25 865.5 491.9 864.85 493.55 864.85 495.4 864.85 497.3 865.5 498.85 866.15 500.45 867.35 501.6 868.6 502.8 870.35 503.4 872.1 504.1 874.35 504.1 876.5 504.1 878.3 503.4 880.05 502.8 881.35 501.6 882.6 500.45 883.25 498.85 883.95 497.3 883.95 495.4 883.95 493.55 883.25 491.9 882.6 490.25 881.35 489.05 880.05 487.85 878.3 487.15 876.5 486.5 874.35 486.5 872.1 486.5 870.35 487.15 868.6 487.85 867.35 489.05
M 874.35 490.2
Q 876.85 490.2 878.35 491.65 879.85 493.15 879.85 495.45 879.85 496.55 879.45 497.45 879.05 498.4 878.35 499.1 877.6 499.8 876.6 500.2 875.6 500.55 874.35 500.55 871.9 500.55 870.4 499.1 868.95 497.65 868.95 495.45 868.95 493.15 870.4 491.65 871.9 490.2 874.35 490.2
M 894.3 486.15
Q 894.3 485.6 893.8 485.6
L 890.2 485.6
Q 889.7 485.6 889.7 486.15
L 889.7 504.95
Q 889.7 505.55 890.2 505.55
L 893.8 505.55
Q 894.3 505.55 894.3 505
L 894.3 486.15
M 855.4 486.15
Q 855.4 485.6 854.85 485.6
L 851.3 485.6
Q 850.8 485.6 850.8 486.15
L 850.8 523.05
Q 850.8 523.6 851.3 523.6
L 854.85 523.6
Q 855.4 523.6 855.4 523.05
L 855.4 504 860.8 504
Q 861 504 861.2 503.85 861.4 503.7 861.4 503.45
L 861.4 500.65
Q 861.4 500.45 861.2 500.3 861 500.2 860.8 500.2
L 855.4 500.2 855.4 486.15
M 828.2 489.15
Q 827.6 489.75 827.6 491.25
L 827.6 509.55
Q 827.6 511.15 828.2 511.75 828.85 512.35 830.55 512.35
L 843.1 512.35
Q 844.65 512.35 845.25 511.75 845.9 511.15 845.9 509.55
L 845.9 491.25
Q 845.9 489.65 845.25 489.1 844.65 488.6 843.1 488.6
L 830.35 488.6
Q 828.85 488.6 828.2 489.15
M 832.25 492.4
Q 832.35 492.35 832.65 492.35
L 840.8 492.35
Q 841.1 492.35 841.2 492.45 841.3 492.5 841.3 492.85
L 841.3 508.1
Q 841.3 508.45 841.2 508.55 841.1 508.6 840.8 508.6
L 832.65 508.6
Q 832.35 508.6 832.25 508.55 832.15 508.45 832.15 508.1
L 832.15 492.8
Q 832.15 492.5 832.25 492.4
M 818.9 508
Q 818.35 507.45 816.7 507.45
L 796.25 507.45
Q 795.95 507.45 795.8 507.6 795.6 507.8 795.6 508
L 795.6 510.65
Q 795.6 510.85 795.8 511 795.95 511.15 796.25 511.15
L 814.45 511.15
Q 814.8 511.15 814.85 511.25 814.95 511.35 814.95 511.75
L 814.95 513.15
Q 814.95 513.55 814.85 513.65 814.8 513.75 814.45 513.75
L 798.4 513.75
Q 796.8 513.75 796.25 514.35 795.7 514.9 795.7 516.2
L 795.7 521
Q 795.7 522.3 796.3 522.9 796.85 523.5 798.4 523.5
L 819.9 523.5
Q 820.05 523.5 820.25 523.3 820.45 523.15 820.45 522.95
L 820.45 520.4
Q 820.45 520.1 820.25 519.95 820.05 519.8 819.85 519.8
L 800.8 519.8
Q 800.45 519.8 800.35 519.75 800.25 519.7 800.25 519.35
L 800.25 517.7
Q 800.25 517.35 800.35 517.25 800.45 517.15 800.75 517.15
L 816.7 517.15
Q 818.35 517.15 818.9 516.65 819.45 516.15 819.45 514.75
L 819.45 509.95
Q 819.45 508.6 818.9 508
M 819.5 486.15
Q 819.5 485.6 819 485.6
L 815.45 485.6
Q 814.9 485.6 814.9 486.15
L 814.9 493.6 808.65 493.6
Q 808.25 492.15 807.45 490.85 806.65 489.6 805.45 488.7 804.25 487.8 802.7 487.25 801.15 486.7 799.3 486.7 797.15 486.7 795.35 487.4 793.6 488.15 792.35 489.35 791.1 490.55 790.45 492.2 789.75 493.8 789.75 495.6 789.75 497.35 790.45 498.95 791.1 500.55 792.35 501.8 793.6 503 795.35 503.75 797.15 504.45 799.3 504.45 801.2 504.45 802.75 503.9 804.35 503.35 805.55 502.4 806.75 501.45 807.55 500.15 808.35 498.85 808.65 497.35
L 814.9 497.35 814.9 505.1
Q 814.9 505.65 815.45 505.65
L 819 505.65
Q 819.5 505.65 819.5 505.1
L 819.5 486.15
M 794.55 493.65
Q 794.9 492.7 795.6 492 796.25 491.3 797.2 490.85 798.15 490.45 799.3 490.45 800.45 490.45 801.4 490.85 802.4 491.3 803.05 492 803.75 492.7 804.1 493.65 804.45 494.55 804.45 495.6 804.45 496.65 804.1 497.55 803.75 498.5 803.05 499.15 802.4 499.85 801.4 500.3 800.45 500.7 799.3 500.7 798.15 500.7 797.2 500.3 796.25 499.85 795.6 499.15 794.9 498.5 794.55 497.55 794.2 496.65 794.2 495.6 794.2 494.55 794.55 493.65
M 769.95 522.15
L 769.95 519.3
Q 769.95 519.1 769.75 518.95 769.55 518.8 769.35 518.8
L 749.6 518.8
Q 749.2 518.8 749.05 518.7 748.85 518.6 748.85 518.15
L 748.85 511.15
Q 748.85 510.9 748.7 510.75 748.5 510.55 748.25 510.55
L 744.85 510.55
Q 744.6 510.55 744.45 510.75 744.25 510.9 744.25 511.15
L 744.25 519.8
Q 744.25 521.35 744.9 522 745.5 522.65 747.35 522.65
L 769.35 522.65
Q 769.55 522.65 769.75 522.5 769.95 522.4 769.95 522.15
M 774.4 507.15
L 774.4 504.5
Q 774.4 504.3 774.2 504.1 774.05 503.95 773.8 503.95
L 739.05 503.95
Q 738.45 503.95 738.45 504.5
L 738.45 507.15
Q 738.45 507.35 738.6 507.55 738.75 507.8 739.05 507.8
L 773.8 507.8
Q 774.05 507.8 774.2 507.55 774.4 507.35 774.4 507.15
M 749.05 486.9
Q 749.05 486.7 748.85 486.5 748.65 486.35 748.4 486.35
L 744.95 486.35
Q 744.75 486.35 744.55 486.5 744.4 486.7 744.4 486.9
L 744.4 496.95
Q 744.4 498.5 745 499.15 745.65 499.8 747.45 499.8
L 768.9 499.8
Q 769.1 499.8 769.3 499.7 769.45 499.55 769.45 499.3
L 769.45 496.45
Q 769.45 496.25 769.3 496.1 769.1 495.95 768.9 495.95
L 749.8 495.95
Q 749.35 495.95 749.2 495.85 749.05 495.75 749.05 495.35
L 749.05 486.9
M 710.7 518.8
Q 710.7 517.5 709.85 516.65 708.95 515.75 707.7 515.75 706.4 515.75 705.5 516.65 704.6 517.5 704.6 518.8 704.6 520.1 705.5 521 706.4 521.9 707.7 521.9 708.95 521.9 709.85 521 710.7 520.1 710.7 518.8
M 732.8 493.45
Q 732.1 491.85 730.95 490.8 729.8 489.75 728.15 489.2 726.55 488.65 724.6 488.65 722.75 488.65 720.75 489.3 718.8 489.95 717.3 490.75 716.9 490.95 716.75 491.2 716.65 491.35 716.75 491.55
L 717.3 494.6
Q 717.4 494.95 717.7 495 718 495 718.35 494.8 720.15 493.75 721.65 493.3 723.2 492.85 724.85 492.85 726.6 492.85 727.75 494.1 728.95 495.35 728.95 497.25 728.95 498.95 727.35 501.55 725.75 504.2 722.4 508.15
L 716.3 515.4
Q 716.1 515.7 715.9 516 715.75 516.35 715.75 516.65
L 715.75 518.95
Q 715.75 519.45 716.5 519.45
L 733.55 519.45
Q 734.1 519.45 734.1 518.75
L 734.1 515.95
Q 734.1 515.35 733.55 515.35
L 721.8 515.35
Q 722.8 514.2 723.8 513.05 724.8 511.85 725.65 510.75 726.75 509.45 728.15 507.85 729.5 506.2 730.7 504.45 731.9 502.65 732.7 500.8 733.5 498.95 733.5 497.15 733.5 495.05 732.8 493.45
M 684.25 490.2
Q 682.3 491.7 681.2 493.95 680.1 496.25 679.7 498.95 679.35 501.7 679.35 504.15 679.35 511.5 681.8 515.55 684.25 519.6 689.4 519.6 691.95 519.6 693.8 518.6 695.65 517.5 696.9 515.55 698.15 513.6 698.75 510.7 699.35 507.8 699.35 504.15 699.35 502.5 699.15 500.75 699 498.95 698.6 497.25 698.2 495.55 697.5 494 696.8 492.45 695.65 491.25 694.6 490.1 693 489.4 691.45 488.75 689.4 488.75 686.2 488.75 684.25 490.2
M 689.4 493.1
Q 690.6 493.1 691.65 493.7 692.65 494.25 693.4 495.55 694.1 496.9 694.5 499 694.85 501.15 694.85 504.15 694.85 507.25 694.5 509.4 694.1 511.5 693.4 512.8 692.65 514.15 691.65 514.7 690.6 515.3 689.4 515.3 688.1 515.3 687.1 514.7 686.1 514.15 685.4 512.8 684.65 511.5 684.3 509.4 683.9 507.25 683.9 504.15 683.9 501.15 684.3 499 684.65 496.9 685.4 495.55 686.1 494.25 687.1 493.7 688.1 493.1 689.4 493.1
M 623.7 489.1
Q 623.55 489.2 623.55 489.65
L 623.35 504.4
Q 623.35 505.75 624.9 505.1 626.15 504.65 627.55 504.4 628.95 504.1 630.25 504.1 633.55 504.1 634.95 505.65 636.4 507.15 636.4 509.75 636.4 512.45 634.6 513.95 632.9 515.5 630.2 515.5 629.5 515.5 628.65 515.4 627.85 515.35 627 515.2 626.15 515 625.35 514.8 624.55 514.55 624 514.25 623.15 513.85 623.15 514.55
L 623.15 517.8
Q 623.15 518.1 623.15 518.25 623.2 518.35 623.45 518.55 624.1 518.85 625.05 519.05 625.95 519.3 626.9 519.45 627.85 519.55 628.65 519.65 629.5 519.7 629.9 519.7 632.2 519.7 634.25 519.05 636.35 518.4 637.75 517.1 640.9 514.3 640.9 509.25 640.9 507.15 640.15 505.5 639.4 503.8 638.1 502.6 636.8 501.45 635.05 500.8 633.3 500.2 631.3 500.2 629.35 500.2 627.75 500.55
L 627.9 493.15 639.05 493.15
Q 639.3 493.15 639.45 492.95 639.55 492.8 639.55 492.55
L 639.55 489.5
Q 639.55 489.3 639.45 489.15 639.3 488.95 639.05 488.95
L 624.4 488.95
Q 623.8 488.95 623.7 489.1
M 611.3 521
Q 612.2 521.9 613.5 521.9 614.75 521.9 615.65 521 616.5 520.1 616.5 518.8 616.5 517.5 615.65 516.65 614.75 515.75 613.5 515.75 612.2 515.75 611.3 516.65 610.4 517.5 610.4 518.8 610.4 520.1 611.3 521
M 590.05 490.2
Q 588.1 491.7 587 493.95 585.9 496.25 585.5 498.95 585.15 501.7 585.15 504.15 585.15 511.5 587.6 515.55 590.05 519.6 595.2 519.6 597.75 519.6 599.6 518.6 601.45 517.5 602.7 515.55 603.95 513.6 604.55 510.7 605.15 507.8 605.15 504.15 605.15 502.5 604.95 500.75 604.8 498.95 604.4 497.25 604 495.55 603.3 494 602.6 492.45 601.45 491.25 600.4 490.1 598.8 489.4 597.25 488.75 595.2 488.75 592 488.75 590.05 490.2
M 592.9 493.7
Q 593.9 493.1 595.2 493.1 596.4 493.1 597.45 493.7 598.45 494.25 599.2 495.55 599.9 496.9 600.3 499 600.65 501.15 600.65 504.15 600.65 507.25 600.3 509.4 599.9 511.5 599.2 512.8 598.45 514.15 597.45 514.7 596.4 515.3 595.2 515.3 593.9 515.3 592.9 514.7 591.9 514.15 591.2 512.8 590.45 511.5 590.1 509.4 589.7 507.25 589.7 504.15 589.7 501.15 590.1 499 590.45 496.9 591.2 495.55 591.9 494.25 592.9 493.7
M 789.65 417.8
Q 788.35 417.8 787.45 418.7 786.55 419.55 786.55 420.85 786.55 422.15 787.45 423.05 788.35 423.95 789.65 423.95 790.9 423.95 791.8 423.05 792.65 422.15 792.65 420.85 792.65 419.55 791.8 418.7 790.9 417.8 789.65 417.8
M 773.85 415.3
L 773.85 409.05
Q 773.85 408.8 773.7 408.65 773.5 408.5 773.25 408.5
L 769.8 408.5
Q 769.2 408.5 769.2 409.05
L 769.2 415.3 759.65 415.3 759.65 409.05
Q 759.65 408.5 759.05 408.5
L 755.6 408.5
Q 755 408.5 755 409.05
L 755 415.3 747.05 415.3
Q 746.45 415.3 746.45 415.95
L 746.45 418.55
Q 746.45 418.75 746.6 418.95 746.75 419.15 747.05 419.15
L 781.85 419.15
Q 782.05 419.15 782.25 418.95 782.45 418.75 782.45 418.55
L 782.45 415.95
Q 782.45 415.7 782.25 415.5 782.05 415.3 781.85 415.3
L 773.85 415.3
M 764.4 389.8
Q 761.75 389.8 759.4 390.35 757.05 390.9 755.25 392 753.45 393.15 752.4 394.75 751.4 396.4 751.4 398.45 751.4 400.6 752.4 402.25 753.45 403.85 755.25 404.95 757.05 406.05 759.4 406.6 761.75 407.15 764.4 407.15 767.1 407.15 769.5 406.6 771.85 406.05 773.65 404.95 775.45 403.85 776.45 402.25 777.5 400.6 777.5 398.45 777.5 396.4 776.45 394.75 775.45 393.15 773.65 392 771.85 390.9 769.5 390.35 767.1 389.8 764.4 389.8
M 764.45 393.6
Q 766 393.6 767.5 393.95 769 394.25 770.15 394.9 771.35 395.5 772.05 396.45 772.75 397.35 772.75 398.5 772.75 399.7 772.05 400.65 771.35 401.55 770.15 402.15 769 402.8 767.5 403.15 766 403.45 764.45 403.45 762.85 403.45 761.35 403.15 759.85 402.8 758.7 402.15 757.55 401.55 756.85 400.65 756.15 399.7 756.15 398.5 756.15 397.35 756.85 396.45 757.55 395.5 758.7 394.9 759.85 394.25 761.35 393.95 762.85 393.6 764.45 393.6
M 735 388.8
Q 735 388.3 734.5 388.3
L 731.25 388.3
Q 730.6 388.3 730.6 388.8
L 730.6 400.25 724.6 400.25
Q 724.45 400.25 724.25 400.4 724.05 400.55 724.05 400.75
L 724.05 403.45
Q 724.05 403.7 724.25 403.85 724.45 404.05 724.6 404.05
L 730.6 404.05 730.6 423.75
Q 730.6 424.35 731.25 424.35
L 734.5 424.35
Q 735 424.35 735 423.75
L 735 388.8
M 742.8 388.2
Q 742.8 387.65 742.25 387.65
L 738.8 387.65
Q 738.25 387.65 738.25 388.2
L 738.25 425.2
Q 738.25 425.7 738.8 425.7
L 742.25 425.7
Q 742.8 425.7 742.8 425.2
L 742.8 388.2
M 721.6 390.6
Q 721.6 390.35 721.4 390.15 721.2 390 720.95 390
L 717.65 389.85
Q 717.15 389.85 717.15 390.45 717.15 394.25 716.75 397.6 716.4 400.9 715.5 403.75 714.6 406.65 713.2 409.1 711.75 411.55 709.6 413.6 708.95 414.2 709.55 414.8
L 711.35 416.55
Q 712 417.15 712.6 416.55 714.75 414.4 716.3 412.25 717.85 410 718.95 407.45 719.45 408.65 720.1 409.9 720.8 411.1 721.65 412.15 722.45 413.25 723.3 414.2 724.15 415.1 725 415.7 725.65 416.3 726.25 415.65
L 728.05 413.75
Q 728.55 413.25 727.95 412.75 726.95 411.9 725.85 410.6 724.8 409.25 723.8 407.7 722.8 406.1 722 404.35 721.2 402.6 720.8 400.9 721.25 398.65 721.4 396.1 721.6 393.6 721.6 390.6
M 692.05 406.35
Q 691.4 404.85 690.25 403.8 689.05 402.75 687.4 402.15 685.75 401.6 683.8 401.6 681.85 401.6 680.25 402.15 678.65 402.8 677.45 403.85 676.25 404.9 675.6 406.35 674.95 407.85 674.95 409.6 674.95 411.45 675.6 412.95 676.25 414.45 677.4 415.6 678.6 416.7 680.2 417.35 681.85 417.95 683.8 417.95 685.75 417.95 687.4 417.3 689 416.65 690.2 415.55 691.4 414.45 692.05 412.95 692.7 411.45 692.7 409.6 692.7 407.8 692.05 406.35
M 680.55 406.5
Q 681.8 405.2 683.8 405.2 685.95 405.2 687.15 406.5 688.35 407.75 688.35 409.75 688.35 411.7 687.15 412.95 685.95 414.25 683.8 414.25 681.8 414.25 680.55 412.95 679.35 411.7 679.35 409.75 679.35 407.75 680.55 406.5
M 694.4 395.9
L 672.7 395.9
Q 672.45 395.9 672.25 396.1 672 396.3 672 396.5
L 672 398.95
Q 672 399.2 672.25 399.4 672.45 399.6 672.7 399.6
L 694.4 399.6
Q 694.6 399.6 694.8 399.4 694.95 399.2 694.95 399
L 694.95 396.5
Q 694.95 396.25 694.8 396.1 694.6 395.9 694.4 395.9
M 701.85 388.2
Q 701.85 387.65 701.3 387.65
L 697.75 387.65
Q 697.2 387.65 697.2 388.2
L 697.2 425.1
Q 697.2 425.65 697.75 425.65
L 701.3 425.65
Q 701.85 425.65 701.85 425.1
L 701.85 406.6 707.2 406.6
Q 707.45 406.6 707.65 406.45 707.8 406.25 707.8 406.05
L 707.8 403.25
Q 707.8 403 707.65 402.85 707.45 402.75 707.2 402.75
L 701.85 402.75 701.85 388.2
M 678 389.4
Q 677.8 389.4 677.6 389.55 677.4 389.7 677.4 390
L 677.4 392.6
Q 677.4 392.9 677.6 393.05 677.8 393.25 678 393.25
L 689.2 393.25
Q 689.5 393.25 689.7 393 689.85 392.8 689.85 392.6
L 689.85 390
Q 689.85 389.8 689.65 389.55 689.45 389.4 689.2 389.4
L 678 389.4
M 649.25 394.05
L 653.05 394.05
Q 653.3 394.05 653.5 393.85 653.65 393.65 653.65 393.4
L 653.65 390.95
Q 653.65 390.7 653.5 390.5 653.3 390.35 653.05 390.35
L 627.8 390.35
Q 627.6 390.35 627.4 390.55 627.15 390.75 627.15 390.95
L 627.15 393.35
Q 627.15 393.6 627.4 393.8 627.6 394.05 627.8 394.05
L 631.6 394.05 631.6 404.65 627.05 404.65
Q 626.85 404.65 626.65 404.85 626.45 405.05 626.45 405.25
L 626.45 407.65
Q 626.45 407.95 626.65 408.15 626.85 408.35 627.05 408.35
L 632 408.35 632 415.3 623.05 415.3
Q 622.75 415.3 622.6 415.45 622.45 415.65 622.45 415.9
L 622.45 418.55
Q 622.45 418.75 622.6 418.95 622.75 419.15 623.05 419.15
L 657.85 419.15
Q 658.05 419.15 658.25 418.95 658.45 418.75 658.45 418.55
L 658.45 415.9
Q 658.45 415.7 658.25 415.5 658.05 415.3 657.85 415.3
L 648.85 415.3 648.85 408.35 653.85 408.35
Q 654.05 408.35 654.25 408.15 654.4 407.95 654.4 407.7
L 654.4 405.25
Q 654.4 405 654.25 404.85 654.05 404.65 653.85 404.65
L 649.25 404.65 649.25 394.05
M 636.1 394.05
L 644.8 394.05 644.8 404.65 636.1 404.65 636.1 394.05
M 644.25 408.35
L 644.25 415.3 636.6 415.3 636.6 408.35 644.25 408.35
M 1173.75 366.15
Q 1173.75 367.7 1174.35 368.3 1175 368.95 1176.75 368.95
L 1195.25 368.95
Q 1196.75 368.95 1197.5 368.3 1198.3 367.65 1198.3 366.15
L 1198.3 358.4
Q 1198.3 356.8 1197.65 356.15 1197.05 355.55 1195.25 355.55
L 1176.75 355.55
Q 1175.25 355.55 1174.5 356.2 1173.75 356.85 1173.75 358.4
L 1173.75 366.15
M 1178.45 359.5
Q 1178.55 359.35 1178.85 359.35
L 1193.15 359.35
Q 1193.7 359.35 1193.7 360.05
L 1193.7 364.6
Q 1193.7 364.95 1193.6 365 1193.5 365.1 1193.15 365.1
L 1178.85 365.1
Q 1178.55 365.1 1178.45 365 1178.35 364.95 1178.35 364.6
L 1178.35 360
Q 1178.35 359.65 1178.45 359.5
M 1174.5 343.75
Q 1177 343.75 1179.55 343.75 1182.15 343.7 1184.7 343.65 1187.2 343.6 1189.65 343.55 1192.1 343.45 1194.25 343.35 1194.15 344.65 1194 345.75 1193.85 346.9 1193.65 347.8
L 1168.65 347.8
Q 1168.35 347.8 1168.2 348 1168.05 348.2 1168.05 348.4
L 1168.05 351
Q 1168.05 351.25 1168.2 351.45 1168.35 351.6 1168.65 351.6
L 1203.45 351.6
Q 1203.65 351.6 1203.85 351.45 1204.05 351.25 1204.05 351
L 1204.05 348.4
Q 1204.05 348.2 1203.85 348.05 1203.65 347.8 1203.45 347.8
L 1197.9 347.8
Q 1198.2 346.35 1198.4 344.6 1198.65 342.8 1198.8 341.05 1198.95 339.35 1199 337.8 1199.05 336.25 1199.05 335.3 1199.05 333.85 1198.35 333.15 1197.7 332.5 1196.4 332.5
L 1174.45 332.5
Q 1174.2 332.5 1174 332.6 1173.8 332.75 1173.8 333
L 1173.8 335.7
Q 1173.8 335.9 1174 336.05 1174.2 336.15 1174.45 336.15
L 1193.5 336.15
Q 1194.05 336.15 1194.3 336.35 1194.6 336.45 1194.6 337 1194.6 337.7 1194.55 338.35 1194.55 339 1194.5 339.8 1192.65 339.9 1190.25 339.95 1187.85 340 1185.25 340 1182.55 340 1179.8 340.05 1177.05 340.05 1174.5 340.05 1174 340.05 1174 340.6
L 1174 343.1
Q 1174 343.35 1174.15 343.55 1174.3 343.75 1174.5 343.75
M 1162.35 368.85
Q 1162.55 368.7 1162.55 368.45
L 1162.55 365.6
Q 1162.55 365.45 1162.35 365.25 1162.2 365.1 1162 365.1
L 1143.1 365.1
Q 1142.7 365.1 1142.55 365 1142.4 364.85 1142.4 364.45
L 1142.4 357.3
Q 1142.4 357.1 1142.2 356.9 1142 356.75 1141.8 356.75
L 1138.35 356.75
Q 1138.15 356.75 1137.95 356.9 1137.8 357.1 1137.8 357.3
L 1137.8 366.1
Q 1137.8 367.65 1138.4 368.3 1139 368.95 1140.8 368.95
L 1162 368.95
Q 1162.2 368.95 1162.35 368.85
M 1167 344.2
Q 1167 344 1166.8 343.85 1166.6 343.7 1166.4 343.7
L 1161 343.7 1161 332.2
Q 1161 331.65 1160.45 331.65
L 1156.9 331.65
Q 1156.4 331.65 1156.4 332.2
L 1156.4 358.1
Q 1156.4 358.6 1156.9 358.6
L 1160.45 358.6
Q 1161 358.6 1161 358.1
L 1161 347.55 1166.4 347.55
Q 1166.6 347.55 1166.8 347.4 1167 347.25 1167 347
L 1167 344.2
M 1133.6 336.4
L 1133.6 349.6
Q 1133.6 351.1 1134.25 351.7 1134.95 352.3 1136.35 352.3
L 1148.35 352.3
Q 1149.85 352.3 1150.5 351.7 1151.1 351.1 1151.1 349.6
L 1151.1 336.45
Q 1151.1 334.9 1150.5 334.3 1149.85 333.7 1148.35 333.7
L 1136.35 333.7
Q 1134.8 333.7 1134.2 334.3 1133.6 334.85 1133.6 336.4
M 1138.25 337.55
Q 1138.35 337.45 1138.65 337.45
L 1146.05 337.45
Q 1146.35 337.45 1146.45 337.55 1146.55 337.65 1146.55 338
L 1146.55 348.05
Q 1146.55 348.4 1146.45 348.45 1146.35 348.55 1146.05 348.55
L 1138.65 348.55
Q 1138.35 348.55 1138.25 348.45 1138.15 348.4 1138.15 348.05
L 1138.15 337.95
Q 1138.15 337.6 1138.25 337.55
M 1099.7 367.95
Q 1100.95 367.95 1101.85 367.05 1102.7 366.15 1102.7 364.85 1102.7 363.55 1101.85 362.7 1100.95 361.8 1099.7 361.8 1098.4 361.8 1097.5 362.7 1096.6 363.55 1096.6 364.85 1096.6 366.15 1097.5 367.05 1098.4 367.95 1099.7 367.95
M 1109.3 336.8
Q 1108.9 337 1108.75 337.25 1108.65 337.4 1108.75 337.6
L 1109.3 340.65
Q 1109.4 341 1109.7 341.05 1110 341.05 1110.35 340.85 1112.15 339.8 1113.65 339.35 1115.2 338.9 1116.85 338.9 1118.6 338.9 1119.75 340.15 1120.95 341.4 1120.95 343.3 1120.95 345 1119.35 347.6 1117.75 350.25 1114.4 354.2
L 1108.3 361.45
Q 1108.1 361.75 1107.9 362.05 1107.75 362.4 1107.75 362.7
L 1107.75 365
Q 1107.75 365.5 1108.5 365.5
L 1125.55 365.5
Q 1126.1 365.5 1126.1 364.8
L 1126.1 362
Q 1126.1 361.4 1125.55 361.4
L 1113.8 361.4
Q 1114.8 360.25 1115.8 359.1 1116.8 357.9 1117.65 356.8 1118.75 355.5 1120.15 353.9 1121.5 352.25 1122.7 350.5 1123.9 348.7 1124.7 346.85 1125.5 345 1125.5 343.2 1125.5 341.1 1124.8 339.5 1124.1 337.9 1122.95 336.85 1121.8 335.8 1120.15 335.25 1118.55 334.7 1116.6 334.7 1114.75 334.7 1112.75 335.35 1110.8 336 1109.3 336.8
M 1073.2 340
Q 1072.1 342.3 1071.7 345 1071.35 347.75 1071.35 350.2 1071.35 357.55 1073.8 361.6 1076.25 365.65 1081.4 365.65 1083.95 365.65 1085.8 364.65 1087.65 363.55 1088.9 361.6 1090.15 359.65 1090.75 356.75 1091.35 353.85 1091.35 350.2 1091.35 348.55 1091.15 346.8 1091 345 1090.6 343.3 1090.2 341.6 1089.5 340.05 1088.8 338.5 1087.65 337.3 1086.6 336.15 1085 335.45 1083.45 334.8 1081.4 334.8 1078.2 334.8 1076.25 336.25 1074.3 337.75 1073.2 340
M 1076.3 345.05
Q 1076.65 342.95 1077.4 341.6 1078.1 340.3 1079.1 339.75 1080.1 339.15 1081.4 339.15 1082.6 339.15 1083.65 339.75 1084.65 340.3 1085.4 341.6 1086.1 342.95 1086.5 345.05 1086.85 347.2 1086.85 350.2 1086.85 353.3 1086.5 355.45 1086.1 357.55 1085.4 358.85 1084.65 360.2 1083.65 360.75 1082.6 361.35 1081.4 361.35 1080.1 361.35 1079.1 360.75 1078.1 360.2 1077.4 358.85 1076.65 357.55 1076.3 355.45 1075.9 353.3 1075.9 350.2 1075.9 347.2 1076.3 345.05
M 1034.15 344.1
Q 1033.95 344.1 1033.8 344.25 1033.6 344.35 1033.6 344.6
L 1033.6 347.4
Q 1033.6 347.6 1033.8 347.75 1033.95 347.95 1034.15 347.95
L 1042.4 347.95 1042.4 369.1
Q 1042.4 369.65 1042.9 369.65
L 1046.5 369.65
Q 1047 369.65 1047 369.1
L 1047 332.2
Q 1047 331.65 1046.5 331.65
L 1042.9 331.65
Q 1042.4 331.65 1042.4 332.2
L 1042.4 344.1 1034.15 344.1
M 1024.45 333.8
Q 1024.25 334 1024.25 334.2 1024.35 337.75 1024 340.8 1023.6 343.85 1022.6 346.75 1021.5 350 1019.65 352.9 1017.8 355.8 1015.2 358.2 1014.5 358.85 1015.05 359.35
L 1016.95 361.15
Q 1017.6 361.8 1018.35 361.15 1019.4 360.3 1020.55 359.1 1021.65 357.95 1022.65 356.5 1023.65 355.1 1024.6 353.55 1025.5 351.95 1026.2 350.3 1026.7 351.6 1027.55 353.05 1028.4 354.45 1029.4 355.8 1030.4 357.15 1031.5 358.3 1032.6 359.45 1033.6 360.2 1034 360.5 1034.35 360.45 1034.7 360.45 1034.85 360.15
L 1036.55 358.1
Q 1037.1 357.3 1036.5 356.8 1035.15 355.8 1033.85 354.25 1032.5 352.75 1031.4 350.95 1030.25 349.2 1029.4 347.25 1028.55 345.3 1028.2 343.4 1028.9 339.25 1028.9 334.35 1028.9 334.1 1028.75 333.95 1028.6 333.75 1028.4 333.75
L 1024.85 333.6
Q 1024.65 333.6 1024.45 333.8
M 1006.45 331.65
Q 1005.9 331.65 1005.9 332.2
L 1005.9 369.15
Q 1005.9 369.65 1006.45 369.65
L 1009.9 369.65
Q 1010.45 369.65 1010.45 369.15
L 1010.45 332.2
Q 1010.45 331.65 1009.9 331.65
L 1006.45 331.65
M 980.05 337.4
Q 978.9 338.95 978.25 341.3 977.65 343.65 977.65 346.8 977.65 349.75 978.25 352.05 978.85 354.35 979.95 356 981 357.6 982.6 358.5 984.15 359.35 986.05 359.35 987.8 359.35 989.25 358.65 990.75 357.95 991.9 356.6 993.05 355.25 993.8 353.35 994.5 351.45 994.7 349
L 998.35 349 998.35 367.75
Q 998.35 368.35 998.9 368.35
L 1002.2 368.35
Q 1002.7 368.35 1002.7 367.75
L 1002.7 332.85
Q 1002.7 332.35 1002.2 332.35
L 998.9 332.35
Q 998.35 332.35 998.35 332.85
L 998.35 345.15 994.8 345.15
Q 994.65 342.4 993.9 340.35 993.2 338.3 992.05 336.95 990.85 335.6 989.35 334.95 987.85 334.3 986.05 334.3 984.25 334.3 982.7 335.05 981.15 335.8 980.05 337.4
M 984.3 339.1
Q 985.05 338.3 986.1 338.3 987.25 338.3 988.05 339.05 988.9 339.8 989.4 341.05 989.9 342.3 990.15 343.85 990.4 345.35 990.4 346.85 990.4 348.35 990.15 349.85 989.85 351.4 989.35 352.6 988.85 353.85 988.05 354.65 987.25 355.45 986.1 355.45 985.05 355.45 984.3 354.65 983.55 353.85 983.05 352.6 982.6 351.35 982.35 349.8 982.1 348.3 982.1 346.85 982.1 345.4 982.35 343.85 982.6 342.35 983.05 341.1 983.55 339.85 984.3 339.1
M 970.4 365.35
Q 970.4 365.15 970.2 365 970 364.85 969.8 364.85
L 949.75 364.85
Q 949.35 364.85 949.2 364.75 949.05 364.65 949.05 364.2
L 949.05 357.8
Q 949.05 357.6 948.85 357.4 948.7 357.25 948.4 357.25
L 945 357.25
Q 944.8 357.25 944.6 357.4 944.45 357.6 944.45 357.8
L 944.45 365.8
Q 944.45 367.4 945.05 368.05 945.65 368.7 947.45 368.7
L 969.8 368.7
Q 970 368.7 970.2 368.55 970.4 368.45 970.4 368.2
L 970.4 365.35
M 949.35 333.05
Q 949.35 332.8 949.15 332.7 949 332.55 948.8 332.55
L 945.3 332.55
Q 945.05 332.55 944.9 332.7 944.75 332.8 944.75 333.05
L 944.75 344.35
Q 944.75 346 945.4 346.6 946 347.2 947.85 347.2
L 965.95 347.2
Q 967.7 347.2 968.35 346.5 969 345.85 969 344.5
L 969 333
Q 969 332.75 968.85 332.6 968.7 332.45 968.45 332.45
L 964.9 332.45
Q 964.7 332.45 964.55 332.6 964.4 332.75 964.4 333
L 964.4 336.45 949.35 336.45 949.35 333.05
M 949.35 342.8
L 949.35 340.1 964.4 340.1 964.4 342.8
Q 964.4 343.55 963.65 343.55
L 950.1 343.55
Q 949.35 343.55 949.35 342.8
M 974.9 353.8
L 974.9 351.15
Q 974.9 350.95 974.7 350.75 974.5 350.55 974.3 350.55
L 939.5 350.55
Q 939.2 350.55 939.05 350.7 938.9 350.9 938.9 351.15
L 938.9 353.8
Q 938.9 354 939.05 354.2 939.2 354.35 939.5 354.35
L 954.9 354.35 954.9 361.1
Q 954.9 361.65 955.45 361.65
L 958.95 361.65
Q 959.5 361.65 959.5 361.1
L 959.5 354.35 974.3 354.35
Q 974.5 354.35 974.7 354.2 974.9 354 974.9 353.8
M 921.6 368.8
L 921.6 356.6 936.7 356.6
Q 936.9 356.6 937.1 356.4 937.3 356.15 937.3 356
L 937.3 353.35
Q 937.3 353.15 937.1 352.95 936.9 352.75 936.7 352.75
L 901.9 352.75
Q 901.6 352.75 901.45 352.95 901.3 353.1 901.3 353.35
L 901.3 356
Q 901.3 356.15 901.45 356.4 901.6 356.6 901.9 356.6
L 917 356.6 917 368.8
Q 917 369.35 917.55 369.35
L 921.05 369.35
Q 921.6 369.35 921.6 368.8
M 931.9 345.6
L 931.9 332.3
Q 931.9 332.1 931.7 331.95 931.55 331.8 931.35 331.8
L 927.8 331.8
Q 927.6 331.8 927.45 331.95 927.25 332.1 927.25 332.3
L 927.25 336.8 911.25 336.8 911.25 332.25
Q 911.25 332.05 911.1 331.9 910.9 331.8 910.7 331.8
L 907.2 331.8
Q 907 331.8 906.85 331.9 906.65 332.05 906.65 332.25
L 906.65 345.45
Q 906.65 347.05 907.3 347.65 907.95 348.25 909.7 348.25
L 928.85 348.25
Q 930.6 348.25 931.25 347.6 931.9 346.9 931.9 345.6
M 911.9 344.4
Q 911.55 344.4 911.4 344.3 911.25 344.2 911.25 343.85
L 911.25 340.6 927.25 340.6 927.25 343.85
Q 927.25 344.2 927.15 344.3 927 344.4 926.6 344.4
L 911.9 344.4
M 877.5 368.9
Q 877.65 368.8 877.65 368.55
L 877.65 365.7
Q 877.65 365.5 877.5 365.35 877.3 365.2 877.1 365.2
L 858.25 365.2
Q 857.85 365.2 857.65 365.05 857.5 364.95 857.5 364.55
L 857.5 360
Q 857.5 359.8 857.35 359.6 857.15 359.35 856.9 359.35
L 853.45 359.35
Q 853.3 359.35 853.1 359.6 852.9 359.8 852.9 360
L 852.9 366.15
Q 852.9 367.75 853.5 368.4 854.15 369 855.95 369
L 877.1 369
Q 877.3 369 877.5 368.9
M 882.1 345.6
Q 882.1 345.4 881.95 345.2 881.75 345.05 881.5 345.05
L 876.15 345.05 876.15 332.2
Q 876.15 331.65 875.6 331.65
L 872.05 331.65
Q 871.5 331.65 871.5 332.2
L 871.5 360.45
Q 871.5 360.95 872.05 360.95
L 875.6 360.95
Q 876.15 360.95 876.15 360.45
L 876.15 348.9 881.5 348.9
Q 881.75 348.9 881.95 348.75 882.1 348.6 882.1 348.4
L 882.1 345.6
M 868.9 340.85
L 868.9 338.45
Q 868.9 338.2 868.75 338.05 868.55 337.85 868.3 337.85
L 847.15 337.85
Q 846.95 337.85 846.7 338.05 846.5 338.25 846.5 338.45
L 846.5 340.8
Q 846.5 341.1 846.7 341.3 846.9 341.5 847.1 341.5
L 868.3 341.5
Q 868.55 341.5 868.75 341.35 868.9 341.15 868.9 340.85
M 854.65 343.45
Q 853.1 344 851.9 345 850.7 345.95 850.05 347.25 849.35 348.55 849.35 350 849.35 351.55 850.05 352.85 850.7 354.15 851.9 355.1 853.1 356.05 854.65 356.6 856.2 357.2 858 357.2 859.85 357.2 861.45 356.6 863.05 356.05 864.2 355.1 865.4 354.15 866.1 352.85 866.75 351.55 866.75 350 866.75 348.55 866.1 347.25 865.4 345.95 864.2 345 863.05 344 861.45 343.45 859.85 342.9 858.05 342.9 856.25 342.9 854.65 343.45
M 861.2 347.5
Q 862.4 348.55 862.4 350 862.4 351.55 861.2 352.6 859.95 353.7 858.05 353.7 856.15 353.7 854.9 352.6 853.7 351.55 853.7 350 853.7 348.55 854.9 347.5 856.15 346.45 858.05 346.45 859.95 346.45 861.2 347.5
M 863.55 332.75
Q 863.35 332.55 863.1 332.55
L 852.65 332.55
Q 852.5 332.55 852.25 332.7 852.05 332.85 852.05 333.2
L 852.05 335.55
Q 852.05 335.8 852.25 336 852.5 336.15 852.65 336.15
L 863.1 336.15
Q 863.4 336.15 863.6 335.95 863.75 335.75 863.75 335.5
L 863.75 333.2
Q 863.75 332.95 863.55 332.75
M 834.8 358.4
Q 835.15 358.4 835.25 358.45 835.35 358.55 835.35 359
L 835.35 359.8
Q 835.35 360.2 835.25 360.25 835.15 360.4 834.85 360.4
L 819.05 360.4
Q 817.45 360.4 816.95 360.95 816.4 361.5 816.4 362.75
L 816.4 367.05
Q 816.4 368.35 816.95 368.95 817.5 369.55 819.1 369.55
L 840.3 369.55
Q 840.45 369.55 840.65 369.35 840.85 369.2 840.85 369
L 840.85 366.45
Q 840.85 366.15 840.65 366 840.45 365.85 840.25 365.85
L 821.45 365.85
Q 821.1 365.85 821 365.8 820.9 365.75 820.9 365.4
L 820.9 364.35
Q 820.9 364 821 363.9 821.1 363.8 821.4 363.8
L 837.1 363.8
Q 838.7 363.8 839.25 363.25 839.8 362.75 839.8 361.35
L 839.8 357.15
Q 839.8 355.8 839.25 355.25 838.7 354.7 837.1 354.7
L 816.9 354.7
Q 816.65 354.7 816.5 354.85 816.3 355 816.3 355.2
L 816.3 357.9
Q 816.3 358.1 816.5 358.25 816.65 358.4 816.9 358.4
L 834.8 358.4
M 839.8 332.2
Q 839.8 331.65 839.3 331.65
L 835.7 331.65
Q 835.2 331.65 835.2 332.2
L 835.2 352.3
Q 835.2 352.85 835.7 352.85
L 839.3 352.85
Q 839.8 352.85 839.8 352.35
L 839.8 332.2
M 825.45 331.95
Q 825.25 331.8 825 331.8
L 815.65 331.8
Q 815.5 331.8 815.25 331.95 815.05 332.1 815.05 332.4
L 815.05 334.6
Q 815.05 334.85 815.25 335 815.5 335.2 815.65 335.2
L 825 335.2
Q 825.3 335.2 825.45 335 825.65 334.8 825.65 334.55
L 825.65 332.4
Q 825.65 332.2 825.45 331.95
M 809.95 350.2
Q 809.75 350.5 809.95 350.8
L 810.95 352.8
Q 811.15 353.2 811.5 353.25 811.8 353.35 812 353.25 815.05 352.25 817.85 350.7 820.65 349.2 822.9 347.4 823.7 348.05 824.55 348.65 825.45 349.35 826.35 349.9 827.25 350.5 828.1 351 828.95 351.45 829.7 351.75 830.5 352.1 830.9 351.4
L 832.05 349.45
Q 832.25 349.1 832.2 348.8 832.1 348.5 831.65 348.35 830.35 347.85 828.7 346.9 827.1 345.95 825.7 344.85 826.55 343.95 827.2 343 827.9 342.05 828.45 341.05 828.65 340.6 828.85 340.05 829.05 339.45 829.05 339 829.05 338 828.2 337.55 827.3 337.1 825.7 337.1
L 812.3 337.1
Q 811.7 337.1 811.7 337.6
L 811.7 340.15
Q 811.7 340.4 811.85 340.55 812 340.75 812.3 340.75
L 822.65 340.75
Q 823.25 340.75 823.25 340.9 823.25 341.1 823.1 341.35 822.3 342.55 821.05 343.75 819.7 344.9 818.05 346 816.35 347.1 814.4 348.1 812.45 349.05 810.4 349.8 810.15 349.95 809.95 350.2
M 804.3 358.55
Q 804.3 357.05 803.7 356.45 803.15 355.8 801.65 355.8
L 779.05 355.8
Q 778.85 355.8 778.65 355.95 778.5 356.05 778.5 356.3
L 778.5 359.15
Q 778.5 359.35 778.65 359.45 778.85 359.65 779.05 359.65
L 798.95 359.65
Q 799.35 359.65 799.5 359.75 799.7 359.85 799.7 360.3
L 799.7 369
Q 799.7 369.2 799.85 369.35 800.05 369.55 800.3 369.55
L 803.7 369.55
Q 803.9 369.55 804.1 369.35 804.3 369.2 804.3 369
L 804.3 358.55
M 804.3 332.2
Q 804.3 331.65 803.75 331.65
L 800.3 331.65
Q 799.75 331.65 799.75 332.2
L 799.75 341.1 796.15 341.1 796.15 332.8
Q 796.15 332.3 795.65 332.3
L 792.35 332.3
Q 791.8 332.3 791.8 332.8
L 791.8 353.15
Q 791.8 353.7 792.35 353.7
L 795.65 353.7
Q 796.15 353.7 796.15 353.15
L 796.15 344.95 799.75 344.95 799.75 353.4
Q 799.75 354 800.3 354
L 803.75 354
Q 804.3 354 804.3 353.4
L 804.3 332.2
M 783.1 333.2
L 779.75 333.05
Q 779.55 333.05 779.4 333.25 779.2 333.45 779.2 333.75 779.2 336.1 778.85 338.25 778.5 340.45 777.6 342.4 776.7 344.35 775.15 346.15 773.65 347.95 771.3 349.65 770.55 350.2 771.15 350.85
L 772.65 352.6
Q 772.9 352.9 773.25 352.85 773.65 352.85 773.95 352.65 776.35 351.1 778.15 349.2 779.9 347.3 781.15 344.95 782.25 346.85 783.9 348.5 785.6 350.15 787.3 351.15 787.95 351.6 788.45 351
L 789.95 349
Q 790.15 348.7 790.2 348.5 790.2 348.25 789.85 348.05 787.6 346.55 785.7 344.35 783.85 342.25 783.05 339.9 783.65 337.1 783.65 333.85 783.65 333.2 783.1 333.2
M 714.6 356.25
L 714.6 358.65
Q 714.6 358.85 714.75 359.05 714.9 359.25 715.2 359.25
L 730.3 359.25 730.3 369.1
Q 730.3 369.65 730.85 369.65
L 734.35 369.65
Q 734.9 369.65 734.9 369.1
L 734.9 359.25 750 359.25
Q 750.2 359.25 750.4 359.05 750.6 358.85 750.6 358.65
L 750.6 356.25
Q 750.6 356 750.4 355.8 750.2 355.6 750 355.6
L 715.2 355.6
Q 714.9 355.6 714.75 355.8 714.6 356 714.6 356.25
M 724.8 343.4
Q 723.35 344.2 722.55 345.3 721.8 346.45 721.8 347.75 721.8 349.1 722.55 350.25 723.35 351.4 724.8 352.2 726.2 353.05 728.2 353.5 730.2 353.95 732.55 353.95 734.95 353.95 736.95 353.5 738.95 353.05 740.35 352.2 741.8 351.4 742.6 350.25 743.35 349.1 743.35 347.75 743.35 346.45 742.6 345.3 741.8 344.2 740.35 343.4 738.95 342.6 736.95 342.15 734.95 341.65 732.55 341.65 730.2 341.65 728.25 342.15 726.25 342.6 724.8 343.4
M 726.4 347.75
Q 726.4 347.2 726.9 346.65 727.35 346.15 728.2 345.75 729.05 345.4 730.2 345.15 731.3 344.95 732.55 344.95 733.8 344.95 734.9 345.15 736.05 345.4 736.9 345.75 737.75 346.15 738.2 346.65 738.7 347.2 738.7 347.75 738.7 348.4 738.2 348.9 737.75 349.4 736.9 349.8 736.05 350.15 734.9 350.35 733.8 350.6 732.55 350.6 731.3 350.6 730.2 350.35 729.05 350.15 728.2 349.8 727.35 349.4 726.9 348.9 726.4 348.4 726.4 347.75
M 718.05 340.05
Q 718.25 340.25 718.45 340.25
L 746.7 340.25
Q 746.95 340.25 747.1 340.1 747.3 339.9 747.3 339.65
L 747.3 337.35
Q 747.3 337.1 747.1 336.9 746.95 336.75 746.7 336.75
L 718.5 336.75
Q 718.3 336.75 718.05 336.95 717.85 337.15 717.85 337.35
L 717.85 339.65
Q 717.85 339.85 718.05 340.05
M 726.3 331.8
Q 726.1 331.95 726.1 332.25
L 726.1 334.6
Q 726.1 334.85 726.3 335 726.55 335.2 726.7 335.2
L 738.45 335.2
Q 738.75 335.2 738.9 335 739.1 334.8 739.1 334.55
L 739.1 332.25
Q 739.1 332 738.9 331.8 738.7 331.6 738.45 331.6
L 726.7 331.6
Q 726.55 331.6 726.3 331.8
M 671.55 365.2
Q 671.15 365.2 670.95 365.05 670.8 364.95 670.8 364.55
L 670.8 360
Q 670.8 359.8 670.65 359.6 670.45 359.35 670.2 359.35
L 666.75 359.35
Q 666.6 359.35 666.4 359.6 666.2 359.8 666.2 360
L 666.2 366.15
Q 666.2 367.75 666.8 368.4 667.45 369 669.25 369
L 690.4 369
Q 690.6 369 690.8 368.9 690.95 368.8 690.95 368.55
L 690.95 365.7
Q 690.95 365.5 690.8 365.35 690.6 365.2 690.4 365.2
L 671.55 365.2
M 667.95 343.45
Q 666.4 344 665.2 345 664 345.95 663.35 347.25 662.65 348.55 662.65 350 662.65 351.55 663.35 352.85 664 354.15 665.2 355.1 666.4 356.05 667.95 356.6 669.5 357.2 671.3 357.2 673.15 357.2 674.75 356.6 676.35 356.05 677.5 355.1 678.7 354.15 679.4 352.85 680.05 351.55 680.05 350 680.05 348.55 679.4 347.25 678.7 345.95 677.5 345 676.35 344 674.75 343.45 673.15 342.9 671.35 342.9 669.55 342.9 667.95 343.45
M 674.5 352.6
Q 673.25 353.7 671.35 353.7 669.45 353.7 668.2 352.6 667 351.55 667 350 667 348.55 668.2 347.5 669.45 346.45 671.35 346.45 673.25 346.45 674.5 347.5 675.7 348.55 675.7 350 675.7 351.55 674.5 352.6
M 659.8 340.8
Q 659.8 341.1 660 341.3 660.2 341.5 660.4 341.5
L 681.6 341.5
Q 681.85 341.5 682.05 341.35 682.2 341.15 682.2 340.85
L 682.2 338.45
Q 682.2 338.2 682.05 338.05 681.85 337.85 681.6 337.85
L 660.45 337.85
Q 660.25 337.85 660 338.05 659.8 338.25 659.8 338.45
L 659.8 340.8
M 665.55 332.7
Q 665.35 332.85 665.35 333.2
L 665.35 335.55
Q 665.35 335.8 665.55 336 665.8 336.15 665.95 336.15
L 676.4 336.15
Q 676.7 336.15 676.9 335.95 677.05 335.75 677.05 335.5
L 677.05 333.2
Q 677.05 332.95 676.85 332.75 676.65 332.55 676.4 332.55
L 665.95 332.55
Q 665.8 332.55 665.55 332.7
M 695.4 345.6
Q 695.4 345.4 695.25 345.2 695.05 345.05 694.8 345.05
L 689.45 345.05 689.45 332.2
Q 689.45 331.65 688.9 331.65
L 685.35 331.65
Q 684.8 331.65 684.8 332.2
L 684.8 360.45
Q 684.8 360.95 685.35 360.95
L 688.9 360.95
Q 689.45 360.95 689.45 360.45
L 689.45 348.9 694.8 348.9
Q 695.05 348.9 695.25 348.75 695.4 348.6 695.4 348.4
L 695.4 345.6
M 638.75 331.95
Q 638.55 331.8 638.3 331.8
L 628.95 331.8
Q 628.8 331.8 628.55 331.95 628.35 332.1 628.35 332.4
L 628.35 334.6
Q 628.35 334.85 628.55 335 628.8 335.2 628.95 335.2
L 638.3 335.2
Q 638.6 335.2 638.75 335 638.95 334.8 638.95 334.55
L 638.95 332.4
Q 638.95 332.2 638.75 331.95
M 625.6 337.1
Q 625 337.1 625 337.6
L 625 340.15
Q 625 340.4 625.15 340.55 625.3 340.75 625.6 340.75
L 635.95 340.75
Q 636.55 340.75 636.55 340.9 636.55 341.1 636.4 341.35 635.6 342.55 634.35 343.75 633 344.9 631.35 346 629.65 347.1 627.7 348.1 625.75 349.05 623.7 349.8 623.45 349.95 623.25 350.2 623.05 350.5 623.25 350.8
L 624.25 352.8
Q 624.45 353.2 624.8 353.25 625.1 353.35 625.3 353.25 628.35 352.25 631.15 350.7 633.95 349.2 636.2 347.4 637 348.05 637.85 348.65 638.75 349.35 639.65 349.9 640.55 350.5 641.4 351 642.25 351.45 643 351.75 643.8 352.1 644.2 351.4
L 645.35 349.45
Q 645.55 349.1 645.5 348.8 645.4 348.5 644.95 348.35 643.65 347.85 642 346.9 640.4 345.95 639 344.85 639.85 343.95 640.5 343 641.2 342.05 641.75 341.05 641.95 340.6 642.15 340.05 642.35 339.45 642.35 339 642.35 338 641.5 337.55 640.6 337.1 639 337.1
L 625.6 337.1
M 653.1 357.15
Q 653.1 355.8 652.55 355.25 652 354.7 650.4 354.7
L 630.2 354.7
Q 629.95 354.7 629.8 354.85 629.6 355 629.6 355.2
L 629.6 357.9
Q 629.6 358.1 629.8 358.25 629.95 358.4 630.2 358.4
L 648.1 358.4
Q 648.45 358.4 648.55 358.45 648.65 358.55 648.65 359
L 648.65 359.8
Q 648.65 360.2 648.55 360.25 648.45 360.4 648.15 360.4
L 632.35 360.4
Q 630.75 360.4 630.25 360.95 629.7 361.5 629.7 362.75
L 629.7 367.05
Q 629.7 368.35 630.25 368.95 630.8 369.55 632.4 369.55
L 653.6 369.55
Q 653.75 369.55 653.95 369.35 654.15 369.2 654.15 369
L 654.15 366.45
Q 654.15 366.15 653.95 366 653.75 365.85 653.55 365.85
L 634.75 365.85
Q 634.4 365.85 634.3 365.8 634.2 365.75 634.2 365.4
L 634.2 364.35
Q 634.2 364 634.3 363.9 634.4 363.8 634.7 363.8
L 650.4 363.8
Q 652 363.8 652.55 363.25 653.1 362.75 653.1 361.35
L 653.1 357.15
M 653.1 332.2
Q 653.1 331.65 652.6 331.65
L 649 331.65
Q 648.5 331.65 648.5 332.2
L 648.5 352.3
Q 648.5 352.85 649 352.85
L 652.6 352.85
Q 653.1 352.85 653.1 352.35
L 653.1 332.2
M 592.35 355.8
Q 592.15 355.8 591.95 355.95 591.8 356.05 591.8 356.3
L 591.8 359.15
Q 591.8 359.35 591.95 359.45 592.15 359.65 592.35 359.65
L 612.25 359.65
Q 612.65 359.65 612.8 359.75 613 359.85 613 360.3
L 613 369
Q 613 369.2 613.15 369.35 613.35 369.55 613.6 369.55
L 617 369.55
Q 617.2 369.55 617.4 369.35 617.6 369.2 617.6 369
L 617.6 358.55
Q 617.6 357.05 617 356.45 616.45 355.8 614.95 355.8
L 592.35 355.8
M 592.7 333.25
Q 592.5 333.45 592.5 333.75 592.5 336.1 592.15 338.25 591.8 340.45 590.9 342.4 590 344.35 588.45 346.15 586.95 347.95 584.6 349.65 583.85 350.2 584.45 350.85
L 585.95 352.6
Q 586.2 352.9 586.55 352.85 586.95 352.85 587.25 352.65 589.65 351.1 591.45 349.2 593.2 347.3 594.45 344.95 595.55 346.85 597.2 348.5 598.9 350.15 600.6 351.15 601.25 351.6 601.75 351
L 603.25 349
Q 603.45 348.7 603.5 348.5 603.5 348.25 603.15 348.05 600.9 346.55 599 344.35 597.15 342.25 596.35 339.9 596.95 337.1 596.95 333.85 596.95 333.2 596.4 333.2
L 593.05 333.05
Q 592.85 333.05 592.7 333.25
M 613.05 332.2
L 613.05 341.1 609.45 341.1 609.45 332.8
Q 609.45 332.3 608.95 332.3
L 605.65 332.3
Q 605.1 332.3 605.1 332.8
L 605.1 353.15
Q 605.1 353.7 605.65 353.7
L 608.95 353.7
Q 609.45 353.7 609.45 353.15
L 609.45 344.95 613.05 344.95 613.05 353.4
Q 613.05 354 613.6 354
L 617.05 354
Q 617.6 354 617.6 353.4
L 617.6 332.2
Q 617.6 331.65 617.05 331.65
L 613.6 331.65
Q 613.05 331.65 613.05 332.2
M 1197.55 312.3
Q 1198.35 311.65 1198.35 310.15
L 1198.35 302.4
Q 1198.35 300.8 1197.7 300.15 1197.1 299.55 1195.3 299.55
L 1176.8 299.55
Q 1175.3 299.55 1174.55 300.2 1173.8 300.85 1173.8 302.4
L 1173.8 310.15
Q 1173.8 311.7 1174.4 312.3 1175.05 312.95 1176.8 312.95
L 1195.3 312.95
Q 1196.8 312.95 1197.55 312.3
M 1193.75 304.05
L 1193.75 308.6
Q 1193.75 308.95 1193.65 309 1193.55 309.1 1193.2 309.1
L 1178.9 309.1
Q 1178.6 309.1 1178.5 309 1178.4 308.95 1178.4 308.6
L 1178.4 304
Q 1178.4 303.65 1178.5 303.5 1178.6 303.35 1178.9 303.35
L 1193.2 303.35
Q 1193.75 303.35 1193.75 304.05
M 1174.05 276.6
Q 1173.85 276.75 1173.85 277
L 1173.85 279.7
Q 1173.85 279.9 1174.05 280.05 1174.25 280.15 1174.5 280.15
L 1193.55 280.15
Q 1194.1 280.15 1194.35 280.35 1194.65 280.45 1194.65 281 1194.65 281.7 1194.6 282.35 1194.6 283 1194.55 283.8 1192.7 283.9 1190.3 283.95 1187.9 284 1185.3 284 1182.6 284 1179.85 284.05 1177.1 284.05 1174.55 284.05 1174.05 284.05 1174.05 284.6
L 1174.05 287.1
Q 1174.05 287.35 1174.2 287.55 1174.35 287.75 1174.55 287.75 1177.05 287.75 1179.6 287.75 1182.2 287.7 1184.75 287.65 1187.25 287.6 1189.7 287.55 1192.15 287.45 1194.3 287.35 1194.2 288.65 1194.05 289.75 1193.9 290.9 1193.7 291.8
L 1168.7 291.8
Q 1168.4 291.8 1168.25 292 1168.1 292.2 1168.1 292.4
L 1168.1 295
Q 1168.1 295.25 1168.25 295.45 1168.4 295.6 1168.7 295.6
L 1203.5 295.6
Q 1203.7 295.6 1203.9 295.45 1204.1 295.25 1204.1 295
L 1204.1 292.4
Q 1204.1 292.2 1203.9 292.05 1203.7 291.8 1203.5 291.8
L 1197.95 291.8
Q 1198.25 290.35 1198.45 288.6 1198.7 286.8 1198.85 285.05 1199 283.35 1199.05 281.8 1199.1 280.25 1199.1 279.3 1199.1 277.85 1198.4 277.15 1197.75 276.5 1196.45 276.5
L 1174.5 276.5
Q 1174.25 276.5 1174.05 276.6
M 1162.6 312.45
L 1162.6 309.6
Q 1162.6 309.45 1162.4 309.25 1162.25 309.1 1162.05 309.1
L 1143.15 309.1
Q 1142.75 309.1 1142.6 309 1142.45 308.85 1142.45 308.45
L 1142.45 301.3
Q 1142.45 301.1 1142.25 300.9 1142.05 300.75 1141.85 300.75
L 1138.4 300.75
Q 1138.2 300.75 1138 300.9 1137.85 301.1 1137.85 301.3
L 1137.85 310.1
Q 1137.85 311.65 1138.45 312.3 1139.05 312.95 1140.85 312.95
L 1162.05 312.95
Q 1162.25 312.95 1162.4 312.85 1162.6 312.7 1162.6 312.45
M 1156.95 275.65
Q 1156.45 275.65 1156.45 276.2
L 1156.45 302.1
Q 1156.45 302.6 1156.95 302.6
L 1160.5 302.6
Q 1161.05 302.6 1161.05 302.1
L 1161.05 291.55 1166.45 291.55
Q 1166.65 291.55 1166.85 291.4 1167.05 291.25 1167.05 291
L 1167.05 288.2
Q 1167.05 288 1166.85 287.85 1166.65 287.7 1166.45 287.7
L 1161.05 287.7 1161.05 276.2
Q 1161.05 275.65 1160.5 275.65
L 1156.95 275.65
M 1133.65 280.4
L 1133.65 293.6
Q 1133.65 295.1 1134.3 295.7 1135 296.3 1136.4 296.3
L 1148.4 296.3
Q 1149.9 296.3 1150.55 295.7 1151.15 295.1 1151.15 293.6
L 1151.15 280.45
Q 1151.15 278.9 1150.55 278.3 1149.9 277.7 1148.4 277.7
L 1136.4 277.7
Q 1134.85 277.7 1134.25 278.3 1133.65 278.85 1133.65 280.4
M 1146.1 281.45
Q 1146.4 281.45 1146.5 281.55 1146.6 281.65 1146.6 282
L 1146.6 292.05
Q 1146.6 292.4 1146.5 292.45 1146.4 292.55 1146.1 292.55
L 1138.7 292.55
Q 1138.4 292.55 1138.3 292.45 1138.2 292.4 1138.2 292.05
L 1138.2 281.95
Q 1138.2 281.6 1138.3 281.55 1138.4 281.45 1138.7 281.45
L 1146.1 281.45
M 1109.6 294.45
Q 1109.6 295.8 1111.15 295.15 1112.4 294.7 1113.8 294.45 1115.2 294.15 1116.5 294.15 1119.8 294.15 1121.2 295.7 1122.65 297.2 1122.65 299.8 1122.65 302.5 1120.85 304 1119.15 305.55 1116.45 305.55 1115.75 305.55 1114.9 305.45 1114.1 305.4 1113.25 305.25 1112.4 305.05 1111.6 304.85 1110.8 304.6 1110.25 304.3 1109.4 303.9 1109.4 304.6
L 1109.4 307.85
Q 1109.4 308.15 1109.4 308.3 1109.45 308.4 1109.7 308.6 1110.35 308.9 1111.3 309.1 1112.2 309.35 1113.15 309.5 1114.1 309.6 1114.9 309.7 1115.75 309.75 1116.15 309.75 1118.45 309.75 1120.5 309.1 1122.6 308.45 1124 307.15 1127.15 304.35 1127.15 299.3 1127.15 297.2 1126.4 295.55 1125.65 293.85 1124.35 292.65 1123.05 291.5 1121.3 290.85 1119.55 290.25 1117.55 290.25 1115.6 290.25 1114 290.6
L 1114.15 283.2 1125.3 283.2
Q 1125.55 283.2 1125.7 283 1125.8 282.85 1125.8 282.6
L 1125.8 279.55
Q 1125.8 279.35 1125.7 279.2 1125.55 279 1125.3 279
L 1110.65 279
Q 1110.05 279 1109.95 279.15 1109.8 279.25 1109.8 279.7
L 1109.6 294.45
M 1097.55 311.05
Q 1098.45 311.95 1099.75 311.95 1101 311.95 1101.9 311.05 1102.75 310.15 1102.75 308.85 1102.75 307.55 1101.9 306.7 1101 305.8 1099.75 305.8 1098.45 305.8 1097.55 306.7 1096.65 307.55 1096.65 308.85 1096.65 310.15 1097.55 311.05
M 1071.75 289
Q 1071.4 291.75 1071.4 294.2 1071.4 301.55 1073.85 305.6 1076.3 309.65 1081.45 309.65 1084 309.65 1085.85 308.65 1087.7 307.55 1088.95 305.6 1090.2 303.65 1090.8 300.75 1091.4 297.85 1091.4 294.2 1091.4 292.55 1091.2 290.8 1091.05 289 1090.65 287.3 1090.25 285.6 1089.55 284.05 1088.85 282.5 1087.7 281.3 1086.65 280.15 1085.05 279.45 1083.5 278.8 1081.45 278.8 1078.25 278.8 1076.3 280.25 1074.35 281.75 1073.25 284 1072.15 286.3 1071.75 289
M 1079.15 283.75
Q 1080.15 283.15 1081.45 283.15 1082.65 283.15 1083.7 283.75 1084.7 284.3 1085.45 285.6 1086.15 286.95 1086.55 289.05 1086.9 291.2 1086.9 294.2 1086.9 297.3 1086.55 299.45 1086.15 301.55 1085.45 302.85 1084.7 304.2 1083.7 304.75 1082.65 305.35 1081.45 305.35 1080.15 305.35 1079.15 304.75 1078.15 304.2 1077.45 302.85 1076.7 301.55 1076.35 299.45 1075.95 297.3 1075.95 294.2 1075.95 291.2 1076.35 289.05 1076.7 286.95 1077.45 285.6 1078.15 284.3 1079.15 283.75
M 1029.75 278.3
Q 1027.95 278.3 1026.4 279.05 1024.85 279.8 1023.75 281.4 1022.6 282.95 1021.95 285.3 1021.35 287.65 1021.35 290.8 1021.35 293.75 1021.95 296.05 1022.55 298.35 1023.65 300 1024.7 301.6 1026.3 302.5 1027.85 303.35 1029.75 303.35 1031.5 303.35 1032.95 302.65 1034.45 301.95 1035.6 300.6 1036.75 299.25 1037.5 297.35 1038.2 295.45 1038.4 293
L 1042.05 293 1042.05 311.75
Q 1042.05 312.35 1042.6 312.35
L 1045.9 312.35
Q 1046.4 312.35 1046.4 311.75
L 1046.4 276.85
Q 1046.4 276.35 1045.9 276.35
L 1042.6 276.35
Q 1042.05 276.35 1042.05 276.85
L 1042.05 289.15 1038.5 289.15
Q 1038.35 286.4 1037.6 284.35 1036.9 282.3 1035.75 280.95 1034.55 279.6 1033.05 278.95 1031.55 278.3 1029.75 278.3
M 1028 283.1
Q 1028.75 282.3 1029.8 282.3 1030.95 282.3 1031.75 283.05 1032.6 283.8 1033.1 285.05 1033.6 286.3 1033.85 287.85 1034.1 289.35 1034.1 290.85 1034.1 292.35 1033.85 293.85 1033.55 295.4 1033.05 296.6 1032.55 297.85 1031.75 298.65 1030.95 299.45 1029.8 299.45 1028.75 299.45 1028 298.65 1027.25 297.85 1026.75 296.6 1026.3 295.35 1026.05 293.8 1025.8 292.3 1025.8 290.85 1025.8 289.4 1026.05 287.85 1026.3 286.35 1026.75 285.1 1027.25 283.85 1028 283.1
M 1054.15 276.2
Q 1054.15 275.65 1053.6 275.65
L 1050.15 275.65
Q 1049.6 275.65 1049.6 276.2
L 1049.6 313.15
Q 1049.6 313.65 1050.15 313.65
L 1053.6 313.65
Q 1054.15 313.65 1054.15 313.15
L 1054.15 276.2
M 1010.75 275.65
Q 1010.2 275.65 1010.2 276.2
L 1010.2 313.1
Q 1010.2 313.65 1010.75 313.65
L 1014.3 313.65
Q 1014.8 313.65 1014.8 313.1
L 1014.8 276.2
Q 1014.8 275.65 1014.3 275.65
L 1010.75 275.65
M 990.95 279
Q 989.1 279.95 987.85 281.65 986.6 283.35 985.9 285.8 985.2 288.2 985.2 291.25 985.2 294.15 985.9 296.6 986.6 299 987.85 300.75 989.1 302.5 990.95 303.45 992.75 304.45 995.05 304.45 997.4 304.45 999.2 303.45 1001 302.55 1002.3 300.8 1003.55 299.1 1004.2 296.65 1004.9 294.2 1004.9 291.25 1004.9 288.2 1004.2 285.8 1003.55 283.35 1002.3 281.65 1001 279.95 999.2 279 997.4 278.05 995.05 278.05 992.75 278.05 990.95 279
M 989.7 291.25
Q 989.7 289.4 990.1 287.75 990.45 286.05 991.15 284.8 991.8 283.6 992.8 282.85 993.75 282.15 995.05 282.15 996.3 282.15 997.3 282.85 998.3 283.6 999 284.8 999.65 286.05 1000 287.75 1000.35 289.4 1000.35 291.25 1000.35 293 1000 294.7 999.65 296.35 999 297.6 998.3 298.85 997.3 299.6 996.3 300.35 995.05 300.35 993.75 300.35 992.8 299.6 991.8 298.85 991.15 297.6 990.45 296.35 990.1 294.7 989.7 293 989.7 291.25
M 975.6 306.8
Q 975.6 305.35 974.8 304.05 973.95 302.8 972.3 301.9 970.7 300.95 968.35 300.45 965.95 299.95 962.95 299.95 959.95 299.95 957.6 300.45 955.25 300.95 953.65 301.9 952 302.8 951.15 304.05 950.3 305.35 950.3 306.8 950.3 308.35 951.15 309.6 952 310.9 953.65 311.8 955.25 312.75 957.6 313.25 959.95 313.75 962.95 313.75 965.95 313.75 968.35 313.25 970.7 312.75 972.3 311.8 973.95 310.9 974.8 309.6 975.6 308.35 975.6 306.8
M 971.05 306.85
Q 971.05 308.2 969 309.2 966.95 310.25 962.95 310.25 959 310.25 956.95 309.2 954.9 308.2 954.9 306.85 954.9 305.55 956.95 304.5 959 303.4 962.95 303.4 966.95 303.4 969 304.5 971.05 305.55 971.05 306.85
M 980.95 296.75
L 980.95 294.25
Q 980.95 294 980.7 293.8 980.4 293.65 980.2 293.65
L 965.3 293.65 965.3 289.45
Q 965.3 288.9 964.75 288.9
L 961.25 288.9
Q 960.7 288.9 960.7 289.45
L 960.7 293.65 945.6 293.65
Q 945 293.65 945 294.25
L 945 296.75
Q 945 297 945.15 297.2 945.3 297.4 945.6 297.4
L 980.35 297.4
Q 980.6 297.4 980.75 297.2 980.95 297 980.95 296.75
M 972.55 281
Q 972.9 280.65 973.5 279.95 974.05 279.2 974.05 278.35 974.05 277.4 973.05 276.95 972.05 276.4 970.5 276.4
L 951.5 276.4
Q 950.95 276.4 950.95 276.9
L 950.95 279.55
Q 950.95 280.1 951.5 280.1
L 965.95 280.1
Q 966.75 280.1 966.6 280.4 966.4 280.65 965.9 280.9 964.15 281.8 962 282.65 959.85 283.55 957.55 284.3 955.2 285.05 952.85 285.7 950.5 286.3 948.4 286.65 948.2 286.7 948.05 286.95 947.85 287.2 947.9 287.4
L 948.7 289.75
Q 948.9 290.35 949.6 290.25 953.25 289.55 956.6 288.6 959.95 287.6 962.85 286.45 964.4 286.95 966.2 287.4 968.05 287.85 969.9 288.3 971.75 288.75 973.55 289.1 975.3 289.45 976.8 289.65 977.1 289.75 977.4 289.55 977.6 289.4 977.7 289.2
L 978.5 287
Q 978.6 286.65 978.45 286.45 978.3 286.25 977.95 286.25 976.85 286.05 975.55 285.8 974.2 285.6 972.85 285.3 971.5 285 970.2 284.75 968.95 284.45 967.9 284.2 969.35 283.35 970.55 282.6 971.75 281.8 972.55 281
M 939.05 312.2
L 939.05 309.3
Q 939.05 309.1 938.85 308.95 938.65 308.8 938.45 308.8
L 918.1 308.8
Q 917.7 308.8 917.55 308.7 917.35 308.6 917.35 308.2
L 917.35 301.35
Q 917.35 301.15 917.2 300.95 917 300.8 916.75 300.8
L 913.35 300.8
Q 913.15 300.8 912.95 300.95 912.75 301.15 912.75 301.35
L 912.75 309.8
Q 912.75 311.35 913.4 312 914 312.65 915.8 312.65
L 938.45 312.65
Q 938.7 312.65 938.9 312.55 939.05 312.4 939.05 312.2
M 917.95 277.1
Q 917.95 276.9 917.75 276.7 917.55 276.55 917.35 276.55
L 913.85 276.55
Q 913.65 276.55 913.45 276.7 913.3 276.9 913.3 277.1
L 913.3 287.2
Q 913.3 288.75 913.9 289.4 914.5 290.05 916.4 290.05
L 937.95 290.05
Q 938.15 290.05 938.3 289.95 938.5 289.8 938.5 289.6
L 938.5 286.7
Q 938.5 286.5 938.3 286.35 938.15 286.25 937.95 286.25
L 918.7 286.25
Q 918.25 286.25 918.1 286.1 917.95 285.95 917.95 285.6
L 917.95 277.1
M 908 293.8
Q 907.7 293.8 907.55 294 907.4 294.2 907.4 294.45
L 907.4 297.05
Q 907.4 297.2 907.55 297.4 907.7 297.6 908 297.6
L 923.4 297.6 923.4 305
Q 923.4 305.55 923.95 305.55
L 927.45 305.55
Q 928 305.55 928 305
L 928 297.6 942.8 297.6
Q 943 297.6 943.2 297.4 943.4 297.2 943.4 297.05
L 943.4 294.45
Q 943.4 294.2 943.2 294 943 293.8 942.8 293.8
L 908 293.8
M 900.4 281
Q 900.4 279.45 899.8 278.8 899.15 278.2 897.35 278.2
L 877.95 278.2
Q 876.4 278.2 875.75 278.85 875.1 279.45 875.1 280.95
L 875.1 292.9
Q 875.1 294.45 875.7 295.05 876.35 295.7 878.15 295.7
L 885.55 295.7 885.55 303.3 870.4 303.3
Q 869.8 303.3 869.8 303.95
L 869.8 306.55
Q 869.8 306.75 869.95 306.95 870.1 307.15 870.4 307.15
L 905.2 307.15
Q 905.4 307.15 905.6 306.95 905.8 306.75 905.8 306.55
L 905.8 303.95
Q 905.8 303.7 905.6 303.5 905.4 303.3 905.2 303.3
L 890.1 303.3 890.1 295.7 897.55 295.7
Q 899.1 295.7 899.75 295.05 900.4 294.45 900.4 292.95
L 900.4 281
M 895.3 282.05
Q 895.6 282.05 895.7 282.15 895.8 282.25 895.8 282.55
L 895.8 291.35
Q 895.8 291.75 895.7 291.8 895.6 291.9 895.3 291.9
L 880.25 291.9
Q 879.95 291.9 879.85 291.8 879.75 291.75 879.75 291.35
L 879.75 282.55
Q 879.75 282.2 879.85 282.15 879.95 282.05 880.25 282.05
L 895.3 282.05
M 853.2 312.4
L 853.2 309.5
Q 853.2 309.3 853 309.15 852.8 309 852.6 309
L 834.2 309
Q 833.8 309 833.65 308.9 833.45 308.8 833.45 308.35
L 833.45 300.95
Q 833.45 300.8 833.3 300.6 833.1 300.45 832.85 300.45
L 829.4 300.45
Q 829.2 300.45 829 300.6 828.8 300.8 828.8 300.95
L 828.8 310
Q 828.8 311.6 829.45 312.2 830.05 312.85 831.85 312.85
L 852.6 312.85
Q 852.8 312.85 853 312.75 853.2 312.6 853.2 312.4
M 847.85 275.65
Q 847.35 275.65 847.35 276.2
L 847.35 302.05
Q 847.35 302.6 847.85 302.6
L 851.45 302.6
Q 851.95 302.6 851.95 302.1
L 851.95 276.2
Q 851.95 275.65 851.45 275.65
L 847.85 275.65
M 824.9 280.2
Q 823.65 281.55 822.9 283.3 822.2 285 822.2 286.95 822.2 288.95 822.9 290.7 823.65 292.45 824.9 293.75 826.2 295.05 827.95 295.8 829.7 296.6 831.85 296.6 834.05 296.6 835.85 295.8 837.65 295.05 838.95 293.75 840.25 292.45 840.95 290.7 841.65 288.95 841.65 286.95 841.65 285 840.95 283.3 840.25 281.55 838.95 280.2 837.65 278.85 835.85 278.1 834.05 277.3 831.85 277.3 829.7 277.3 827.95 278.1 826.2 278.85 824.9 280.2
M 828.15 283.05
Q 828.8 282.3 829.8 281.85 830.7 281.4 831.85 281.4 833 281.4 834 281.85 834.95 282.3 835.65 283.05 836.35 283.8 836.75 284.85 837.1 285.85 837.1 287.05 837.1 288.2 836.75 289.25 836.35 290.3 835.65 291.05 834.95 291.8 834 292.25 833 292.7 831.85 292.7 830.7 292.7 829.8 292.25 828.8 291.8 828.15 291.05 827.5 290.3 827.1 289.25 826.7 288.2 826.7 287.05 826.7 285.85 827.1 284.85 827.5 283.8 828.15 283.05
M 809.3 279.05
L 807.2 279.05
Q 807.05 279.05 806.85 279.15 806.65 279.2 806.6 279.3
L 800.45 284.95
Q 800.25 285.15 800.25 285.35 800.2 285.6 800.35 285.75
L 802.15 287.9
Q 802.3 288.05 802.55 288 802.8 288 803.05 287.85
L 806 285.25 806 308.95
Q 806 309.45 806.55 309.45
L 809.75 309.45
Q 810.25 309.45 810.25 308.95
L 810.25 280.15
Q 810.25 279.35 810.1 279.2 810 279.05 809.3 279.05
M 776.75 276.2
Q 776.75 275.65 776.2 275.65
L 772.65 275.65
Q 772.1 275.65 772.1 276.2
L 772.1 313.1
Q 772.1 313.65 772.65 313.65
L 776.2 313.65
Q 776.75 313.65 776.75 313.1
L 776.75 294.1 782.1 294.1
Q 782.35 294.1 782.55 293.95 782.7 293.8 782.7 293.55
L 782.7 290.75
Q 782.7 290.55 782.55 290.4 782.35 290.25 782.1 290.25
L 776.75 290.25 776.75 276.2
M 748.7 279.15
L 748.7 281.95
Q 748.7 282.5 749.25 282.5
L 760.5 282.5
Q 761.25 282.5 761.45 282.75 761.7 283 761.55 283.8 760.75 289.25 757.1 293.9 753.4 298.55 747.45 301.7 747.15 301.9 747.1 302.2 747 302.55 747.2 302.85
L 748.8 305.1
Q 749 305.45 749.35 305.45 749.7 305.45 750 305.3 753.7 303.25 756.7 300.65 759.65 298.05 761.75 295.05 763.85 292.05 765.05 288.7 766.25 285.3 766.5 281.65 766.65 280.15 766.05 279.4 765.5 278.65 763.7 278.65
L 749.25 278.65
Q 748.7 278.65 748.7 279.15
M 740.75 276.2
Q 740.75 275.65 740.25 275.65
L 736.7 275.65
Q 736.15 275.65 736.15 276.2
L 736.15 313.1
Q 736.15 313.65 736.7 313.65
L 740.25 313.65
Q 740.75 313.65 740.75 313.1
L 740.75 276.2
M 729.95 281.65
Q 730.1 280.15 729.5 279.4 728.95 278.65 727.15 278.65
L 712.85 278.65
Q 712.25 278.65 712.25 279.15
L 712.25 281.95
Q 712.25 282.5 712.85 282.5
L 724.15 282.5
Q 724.9 282.5 725.1 282.75 725.35 283 725.2 283.8 724.15 289.3 720.55 293.9 716.95 298.5 711 302.05 710.75 302.2 710.65 302.5 710.55 302.8 710.75 303.1
L 712.1 305.25
Q 712.3 305.55 712.7 305.6 713.05 305.65 713.4 305.45 716.9 303.35 719.85 300.85 722.75 298.35 724.9 295.4 727.05 292.4 728.35 289 729.65 285.55 729.95 281.65
M 676.75 278.35
Q 676.55 278.35 676.4 278.55 676.25 278.75 676.25 278.95
L 676.25 281.6
Q 676.25 281.75 676.4 281.95 676.55 282.15 676.75 282.15
L 696.55 282.15
Q 697.2 282.15 697.35 282.45 697.5 282.75 697.5 283.35 697.5 284.6 697.5 286.2 697.45 287.75 697.35 289.5 695.45 289.6 693.05 289.7 690.7 289.75 688 289.75 685.35 289.8 682.55 289.8 679.75 289.8 677.1 289.8 676.55 289.8 676.55 290.4
L 676.55 293
Q 676.55 293.25 676.7 293.45 676.9 293.65 677.1 293.65 683.05 293.65 687.95 293.55 692.9 293.45 697.1 293.25 696.9 296.15 696.65 298.75 696.4 301.4 696.1 303.05
L 671.55 303.05
Q 671.25 303.05 671.1 303.25 670.95 303.4 670.95 303.65
L 670.95 306.3
Q 670.95 306.5 671.1 306.7 671.25 306.9 671.55 306.9
L 706.35 306.9
Q 706.55 306.9 706.75 306.7 706.95 306.5 706.95 306.3
L 706.95 303.65
Q 706.95 303.45 706.75 303.25 706.55 303.05 706.35 303.05
L 700.65 303.05
Q 701.55 296.55 701.95 290.95 702.4 285.45 702.3 281.65 702.25 280.95 702.15 280.35 702.05 279.7 701.75 279.25 701.45 278.85 700.9 278.65 700.35 278.35 699.5 278.35
L 676.75 278.35
M 647.55 276.8
Q 647.55 276.3 647 276.3
L 643.8 276.3
Q 643.2 276.3 643.2 276.8
L 643.2 291.05 638.9 291.05
Q 638.7 291.05 638.55 291.2 638.35 291.35 638.35 291.55
L 638.35 294.3
Q 638.35 294.5 638.55 294.65 638.7 294.8 638.9 294.8
L 643.2 294.8 643.2 311.55
Q 643.2 312.1 643.8 312.1
L 647 312.1
Q 647.55 312.1 647.55 311.55
L 647.55 276.8
M 627 281.2
Q 627.2 281.35 627.4 281.35
L 635.75 281.35
Q 636.05 281.35 636.2 281.15 636.4 280.95 636.4 280.7
L 636.4 278.45
Q 636.4 278.2 636.2 278 636 277.85 635.75 277.85
L 627.4 277.85
Q 627.2 277.85 627 278 626.8 278.15 626.8 278.4
L 626.8 280.75
Q 626.8 281 627 281.2
M 624.45 283.75
Q 624 283.75 624 284.3
L 624 286.75
Q 624 287.05 624.1 287.2 624.2 287.4 624.45 287.4
L 632.7 287.4
Q 633.45 287.4 633.35 287.65 633.35 287.9 633.15 288.35 632.5 290.05 631.45 291.75 630.4 293.5 629 295.15 627.65 296.8 625.95 298.35 624.2 299.9 622.25 301.2 621.95 301.4 621.9 301.75 621.85 302.1 622.05 302.35
L 623.55 304.2
Q 623.75 304.5 624.1 304.45 624.45 304.45 624.7 304.25 627 302.8 628.95 300.95 630.95 299.2 632.65 297.15 634 298.9 635.7 300.5 637.35 302.15 638.8 303.2 639.1 303.35 639.45 303.4 639.8 303.4 640 303.15
L 641.55 301.25
Q 641.85 300.95 641.85 300.65 641.85 300.35 641.4 300 640.75 299.55 639.9 298.85 639.1 298.15 638.2 297.3 637.35 296.45 636.5 295.55 635.7 294.65 635.05 293.8 636.05 292.25 636.85 290.65 637.65 289 638.2 287.35 638.3 287.1 638.45 286.55 638.6 285.95 638.6 285.65 638.6 284.65 637.8 284.2 637.05 283.75 635.3 283.75
L 624.45 283.75
M 655.2 276.2
Q 655.2 275.65 654.65 275.65
L 651.2 275.65
Q 650.65 275.65 650.65 276.2
L 650.65 313.2
Q 650.65 313.7 651.2 313.7
L 654.65 313.7
Q 655.2 313.7 655.2 313.2
L 655.2 276.2
M 617.05 312.45
L 617.05 309.6
Q 617.05 309.45 616.9 309.25 616.7 309.1 616.5 309.1
L 598 309.1
Q 597.55 309.1 597.35 309 597.2 308.85 597.2 308.45
L 597.2 301.4
Q 597.2 301.2 597.05 301 596.85 300.8 596.6 300.8
L 593.15 300.8
Q 593 300.8 592.8 301 592.65 301.2 592.65 301.4
L 592.65 310.1
Q 592.65 311.65 593.25 312.3 593.85 312.95 595.65 312.95
L 616.5 312.95
Q 616.7 312.95 616.9 312.85 617.05 312.7 617.05 312.45
M 604.4 289.05
Q 604.4 289.25 604.55 289.45 604.75 289.6 604.95 289.6
L 611.3 289.6 611.3 302.15
Q 611.3 302.65 611.85 302.65
L 615.4 302.65
Q 615.9 302.65 615.9 302.15
L 615.9 276.2
Q 615.9 275.65 615.4 275.65
L 611.85 275.65
Q 611.3 275.65 611.3 276.2
L 611.3 285.8 604.95 285.8
Q 604.75 285.8 604.55 285.95 604.4 286.1 604.4 286.3
L 604.4 289.05
M 587.2 278.8
L 587.2 281.45
Q 587.2 281.7 587.35 281.9 587.5 282.05 587.8 282.05
L 597.65 282.05
Q 598.3 282.05 598.35 282.3 598.35 282.55 598.15 283 597.6 284.6 596.35 286.4 595.15 288.15 593.5 289.8 591.85 291.5 589.8 293 587.75 294.45 585.55 295.55 585.2 295.75 585.1 296.1 585 296.4 585.2 296.75
L 586.4 298.7
Q 586.6 299.15 587 299.15 587.35 299.15 587.65 299 590.4 297.65 592.9 295.8 595.4 294 597.4 291.8 598.2 292.65 599.25 293.6 600.25 294.5 601.3 295.35 602.35 296.15 603.35 296.8 604.35 297.45 605.05 297.85 605.85 298.2 606.3 297.55
L 607.65 295.55
Q 608.1 294.75 607.3 294.35 606.5 293.9 605.55 293.25 604.6 292.6 603.6 291.9 602.65 291.15 601.7 290.35 600.75 289.55 600.05 288.75 601.2 287.2 602 285.6 602.85 284 603.3 282.5 603.45 282.15 603.55 281.7 603.65 281.25 603.75 280.8 603.95 279.55 603.1 278.9 602.25 278.2 600.5 278.2
L 587.8 278.2
Q 587.2 278.2 587.2 278.8 Z"/>

<path fill="#FFFFFF" stroke="none" d="
M 619.2 399.8
Q 619.2 399.55 619.05 399.45 618.9 399.3 618.7 399.3
L 615.35 399.3
Q 615.15 399.3 615.05 399.45 614.85 399.55 614.85 399.8
L 614.85 420.85
Q 614.85 421.05 615.05 421.2 615.15 421.35 615.35 421.35
L 618.7 421.35
Q 618.9 421.35 619.05 421.2 619.2 421.05 619.2 420.85
L 619.2 399.8
M 615.15 394.15
Q 615.95 394.95 617.1 394.95 618.25 394.95 619.05 394.15 619.85 393.4 619.85 392.25 619.85 391.1 619.05 390.3 618.25 389.5 617.1 389.5 615.95 389.5 615.15 390.3 614.35 391.1 614.35 392.25 614.35 393.4 615.15 394.15
M 609 421.35
Q 609.2 421.35 609.35 421.2 609.5 421.05 609.5 420.85
L 609.5 399.8
Q 609.5 399.55 609.35 399.45 609.2 399.3 609 399.3
L 605.65 399.3
Q 605.45 399.3 605.35 399.45 605.15 399.55 605.15 399.8
L 605.15 420.85
Q 605.15 421.05 605.35 421.2 605.45 421.35 605.65 421.35
L 609 421.35
M 607.4 389.5
Q 606.25 389.5 605.45 390.3 604.65 391.1 604.65 392.25 604.65 393.4 605.45 394.15 606.25 394.95 607.4 394.95 608.55 394.95 609.35 394.15 610.15 393.4 610.15 392.25 610.15 391.1 609.35 390.3 608.55 389.5 607.4 389.5
M 599.8 399.8
Q 599.8 399.55 599.65 399.45 599.5 399.3 599.3 399.3
L 595.95 399.3
Q 595.75 399.3 595.65 399.45 595.45 399.55 595.45 399.8
L 595.45 420.85
Q 595.45 421.05 595.65 421.2 595.75 421.35 595.95 421.35
L 599.3 421.35
Q 599.5 421.35 599.65 421.2 599.8 421.05 599.8 420.85
L 599.8 399.8
M 594.95 392.25
Q 594.95 393.4 595.75 394.15 596.55 394.95 597.7 394.95 598.85 394.95 599.65 394.15 600.45 393.4 600.45 392.25 600.45 391.1 599.65 390.3 598.85 389.5 597.7 389.5 596.55 389.5 595.75 390.3 594.95 391.1 594.95 392.25
M 589.95 399.45
Q 589.8 399.3 589.6 399.3
L 586.25 399.3
Q 586.05 399.3 585.95 399.45 585.75 399.55 585.75 399.8
L 585.75 420.85
Q 585.75 421.05 585.95 421.2 586.05 421.35 586.25 421.35
L 589.6 421.35
Q 589.8 421.35 589.95 421.2 590.1 421.05 590.1 420.85
L 590.1 399.8
Q 590.1 399.55 589.95 399.45
M 586.05 390.3
Q 585.25 391.1 585.25 392.25 585.25 393.4 586.05 394.15 586.85 394.95 588 394.95 589.15 394.95 589.95 394.15 590.75 393.4 590.75 392.25 590.75 391.1 589.95 390.3 589.15 389.5 588 389.5 586.85 389.5 586.05 390.3
M 1175.65 586.55
L 1175.65 556.5
Q 1175.65 541.5 1160.65 541.5
L 1045.65 541.5
Q 1030.65 541.5 1030.65 556.5
L 1030.65 586.55
Q 1030.65 601.55 1045.65 601.55
L 1160.65 601.55
Q 1175.65 601.55 1175.65 586.55 Z"/>
</g>

<g id="bfdbdfbdfndfn_0_Layer1_0_FILL">
<path fill="#C1EBFF" stroke="none" d="
M -7.15 -7.25
Q -7.17890625 -7.18828125 -7.25 -7.15 -10.1611328125 -4.123046875 -10.15 0.05 -10.147265625 4.25625 -7.2 7.2
L -7.15 7.25
Q -4.123046875 10.2109375 0.05 10.2 4.248828125 10.1962890625 7.15 7.25 7.1880859375 7.237890625 7.2 7.2 10.2125 4.2333984375 10.2 0.05 10.2134765625 -4.1400390625 7.15 -7.2
L 7.2 -7.15
Q 4.302734375 -10.1462890625 0.05 -10.15 -4.123046875 -10.1611328125 -7.15 -7.25
M -1.55 -1.5
Q -1.5125 -1.5119140625 -1.5 -1.55 -0.824609375 -2.1396484375 0.05 -2.15 0.897265625 -2.1537109375 1.45 -1.55
L 1.5 -1.55
Q 2.18671875 -0.859765625 2.2 0.05 2.1873046875 0.9138671875 1.55 1.5 1.5123046875 1.5705078125 1.45 1.6 0.897265625 2.2037109375 0.05 2.2 -0.876953125 2.1888671875 -1.55 1.5
L -1.55 1.55
Q -2.152734375 0.94375 -2.15 0.05 -2.1396484375 -0.824609375 -1.55 -1.5 Z"/>
</g>

<g id="bfdbdfbdfndfn_0_Layer0_0_FILL">
<path fill="#4CB6E6" stroke="none" d="
M 4.2 -4.2
Q 2.5 -5.9 0.05 -5.9 -2.4 -5.9 -4.2 -4.2 -5.9 -2.4 -5.9 0.05 -5.9 2.5 -4.2 4.2 -2.4 5.95 0.05 5.95 2.5 5.95 4.2 4.2 5.95 2.5 5.95 0.05 5.95 -2.4 4.2 -4.2 Z"/>
</g>

<path id="Layer0_0_1_STROKES" stroke="#DBDBDB" stroke-width="3" stroke-linejoin="round" stroke-linecap="round" fill="none" d="
M 1160.65 541.5
Q 1175.65 541.5 1175.65 556.5
L 1175.65 586.55
Q 1175.65 601.55 1160.65 601.55
L 1045.65 601.55
Q 1030.65 601.55 1030.65 586.55
L 1030.65 556.5
Q 1030.65 541.5 1045.65 541.5
L 1160.65 541.5 Z"/>

<path id="Layer0_3_MEMBER_0_1_STROKES" stroke="#E50182" stroke-width="3" stroke-linejoin="round" stroke-linecap="butt" fill="none" d="
M 604.9001739501953 403.9498260498047
L 594.1003387451171 393.1499908447266
M 604.9001739501953 403.9498260498047
L 615.7000091552734 393.1499908447266
M 594.1003387451171 414.7496612548828
L 604.9001739501953 403.9498260498047 615.7000091552734 414.7496612548828"/>
</defs>

<g transform="matrix( 1, 0, 0, 1, 0,0) ">
<use xlink:href="#Layer0_0_FILL"/>

<use xlink:href="#Layer0_0_1_STROKES"/>
</g>

<g transform="matrix( 1, 0, 0, 1, 559.15,293.5) ">
<g transform="matrix( 1, 0, 0, 1, 0,0) ">
<use xlink:href="#bfdbdfbdfndfn_0_Layer1_0_FILL"/>
</g>

<g transform="matrix( 1, 0, 0, 1, 0,0) ">
<use xlink:href="#bfdbdfbdfndfn_0_Layer0_0_FILL"/>
</g>
</g>

<g transform="matrix( 1, 0, 0, 1, 559.15,503.45) ">
<g transform="matrix( 1, 0, 0, 1, 0,0) ">
<use xlink:href="#bfdbdfbdfndfn_0_Layer1_0_FILL"/>
</g>

<g transform="matrix( 1, 0, 0, 1, 0,0) ">
<use xlink:href="#bfdbdfbdfndfn_0_Layer0_0_FILL"/>
</g>
</g>

<g transform="matrix( 0.1999969482421875, 0, 0, 0.1999969482421875, 616.3,392.55) ">
<use xlink:href="#Layer0_3_MEMBER_0_1_STROKES" transform="matrix( 5.00006103515625, 0, 0, 5.00006103515625, -3081.5,-1962.75) "/>
</g>
</svg>
