<?xml version="1.0" encoding="utf-8"?>
<!-- Generator: Adobe Illustrator 23.0.0, SVG Export Plug-In . SVG Version: 6.00 Build 0)  -->
<svg version="1.1" xmlns="http://www.w3.org/2000/svg" xmlns:xlink="http://www.w3.org/1999/xlink" x="0px" y="0px" width="50px"
	 height="70px" viewBox="0 0 50 70" style="enable-background:new 0 0 50 70;" xml:space="preserve">
<g id="Layer_1">
</g>
<g id="Layer_2">
	<g>
		<path style="stroke:#000000;stroke-width:0.8;stroke-linecap:round;stroke-linejoin:round;stroke-miterlimit:10;" d="M26,43.8
			l-0.6,9.4c0.7-0.8,1.5-1.4,2.5-1.8c1-0.4,2.1-0.5,3.4-0.5c2.5,0,4.4,0.8,5.8,2.4c1.2,1.4,1.9,3.3,1.9,5.4c0,2.1-0.6,3.9-1.9,5.4
			c-1.4,1.8-3.3,2.7-5.8,2.7c-2.3,0-4.2-0.6-5.7-1.8c-1.3-1.1-2-2.4-2-3.9c0-0.5,0.1-0.9,0.4-1.2c0.3-0.2,0.6-0.4,1.1-0.4
			c0.4,0,0.8,0.1,1.1,0.4c0.3,0.3,0.5,0.6,0.5,1.1l-0.1,0.9c-0.1,1.3,0,2.1,0.4,2.6c0.6,0.8,1.9,1.3,4,1.3c1.9,0,3.4-0.8,4.4-2.4
			c0.9-1.4,1.4-2.9,1.4-4.8c0-1.9-0.5-3.6-1.4-4.8c-1-1.4-2.5-2.2-4.4-2.2c-1.2,0-2.4,0.3-3.5,1c-0.9,0.5-1.6,1.2-2.2,2.1l-0.7-0.3
			l0.8-12.7h12.6l-0.5,1.9h-5.9H26z"/>
	</g>
	<g>
		<path style="stroke:#000000;stroke-width:0.8;stroke-linecap:round;stroke-linejoin:round;stroke-miterlimit:10;" d="M28.4,13.6
			C28.2,13.5,28,13.3,28,13c0-0.3,0.1-0.5,0.4-0.6c0.2,0,0.6,0,1.1,0.1c2,0,3.5-0.5,4.6-1.5c1.1-1,1.7-2.3,1.7-4.1
			c0-1.5-0.4-2.7-1.1-3.6c-0.8-1-2-1.5-3.5-1.5c-2,0-3.2,0.4-3.8,1.1c-0.3,0.4-0.4,1.1-0.3,2.1l0.1,0.7c0,0.5-0.1,0.9-0.4,1.3
			c-0.3,0.3-0.6,0.5-0.9,0.5c-0.4,0-0.8-0.1-1.1-0.4c-0.4-0.3-0.5-0.8-0.5-1.4c0-1.2,0.6-2.2,1.7-3.2c1.3-1,3.1-1.6,5.2-1.6
			c2.2,0,3.9,0.5,5,1.6C37.4,3.7,38,5.2,38,7c0,1.5-0.5,2.8-1.6,3.9c-1,1-2.2,1.7-3.8,2.1c1.9,0.3,3.5,1.1,4.5,2.3
			c1,1.1,1.5,2.4,1.5,3.9c0,2.1-0.6,3.9-1.9,5.2c-1.5,1.5-3.6,2.3-6.3,2.3c-2.3,0-4.1-0.5-5.4-1.6c-1.2-1-1.8-2.3-1.8-3.8
			c0-0.7,0.2-1.2,0.5-1.5c0.3-0.3,0.7-0.4,1.1-0.4c0.4,0,0.7,0.1,1,0.4c0.4,0.3,0.5,0.7,0.5,1.2l-0.1,0.7c-0.1,1.3,0,2.2,0.4,2.7
			c0.6,1,1.8,1.5,3.8,1.5c2,0,3.5-0.7,4.5-2c1-1.2,1.4-2.8,1.4-4.7c0-1.8-0.6-3.2-1.7-4.2c-1.2-1-2.9-1.6-5.2-1.6l0,0
			C29.1,13.6,28.7,13.6,28.4,13.6z"/>
	</g>
	<rect x="15.8" y="33" width="31.3" height="1"/>
	<g>
		<path style="stroke:#000000;stroke-width:0.8;stroke-linecap:round;stroke-linejoin:round;stroke-miterlimit:10;" d="M3.5,45.1
			c1.7,0,2.9-0.2,3.6-0.5c0.7-0.3,1.1-0.9,1.1-1.7V25.7c0-0.6-0.2-1.1-0.6-1.3C7.3,24.1,6.7,24,6,24H3v-0.6c1.5-0.2,2.9-0.5,4.1-0.9
			c1-0.4,2-0.9,3.2-1.6v22c0,0.8,0.4,1.4,1.2,1.7c0.7,0.3,1.9,0.5,3.7,0.5v0.9H3.5V45.1z"/>
	</g>
</g>
</svg>
