
<svg xmlns="http://www.w3.org/2000/svg" version="1.1" xmlns:xlink="http://www.w3.org/1999/xlink" preserveAspectRatio="none" x="0px" y="0px" width="1280px" height="720px" viewBox="0 0 1280 720">
<defs>
<path id="Layer1_0_1_STROKES" stroke="#EA5B70" stroke-width="3" stroke-linejoin="round" stroke-linecap="butt" fill="none" d="
M 732.1 288.4
L 732.1 268.7 600.4 268.7 600.4 288.4
M 732.1 268.7
L 863.7 268.7 863.7 400.3 863.7 531.9 732.1 531.9 600.4 531.9 468.8 531.9 337.2 531.9 337.2 400.3 337.2 268.7 468.8 268.7 600.4 268.7
M 863.7 400.3
L 843.95 400.3
M 732.1 531.9
L 732.1 512.15
M 468.8 288.4
L 468.8 268.7
M 600.4 531.9
L 600.4 512.15
M 356.9 400.3
L 337.2 400.3
M 468.8 531.9
L 468.8 512.15"/>
</defs>

<g transform="matrix( 1, 0, 0, 1, 0,0) ">
<use xlink:href="#Layer1_0_1_STROKES"/>
</g>
</svg>
