
<svg xmlns="http://www.w3.org/2000/svg" version="1.1" xmlns:xlink="http://www.w3.org/1999/xlink" preserveAspectRatio="none" x="0px" y="0px" width="1280px" height="720px" viewBox="0 0 1280 720">
<defs>
<g id="Layer1_0_FILL">
<path fill="#FDE9D1" stroke="none" d="
M 760.6 397.6
L 760.6 275.2 564.65 275.2 564.65 397.6 760.6 397.6
M 531.05 275.2
L 335.1 275.2 335.1 397.6 531.05 397.6 531.05 275.2
M 301.1 275.2
L 105.25 275.2 105.25 397.6 301.1 397.6 301.1 275.2
M 859.4 336.4
L 794.15 336.4 794.15 397.6 859.4 397.6 859.4 336.4
M 924.75 336.4
L 859.4 336.4 859.4 397.6 924.75 397.6 924.75 336.4
M 924.75 336.4
L 924.75 275.2 859.4 275.2 859.4 336.4 924.75 336.4
M 794.15 275.2
L 794.15 336.4 859.4 336.4 859.4 275.2 794.15 275.2 Z"/>
</g>

<g id="Layer1_0_STROKES_1_FILL">
<path fill="#F0861B" stroke="none" d="
M 925.75 394.6
Q 925.746484375 394.1892578125 925.45 393.9 925.1607421875 393.603515625 924.75 393.6 924.3392578125 393.603515625 924.05 393.9 923.753515625 394.1892578125 923.75 394.6
L 923.75 397.6
Q 923.753515625 398.0107421875 924.05 398.3 924.3392578125 398.596484375 924.75 398.6 925.1607421875 398.596484375 925.45 398.3 925.746484375 398.0107421875 925.75 397.6
L 925.75 394.6
M 924.05 386.9
Q 923.753515625 387.1892578125 923.75 387.6
L 923.75 390.6
Q 923.753515625 391.0107421875 924.05 391.3 924.3392578125 391.596484375 924.75 391.6 925.1607421875 391.596484375 925.45 391.3 925.746484375 391.0107421875 925.75 390.6
L 925.75 387.6
Q 925.746484375 387.1892578125 925.45 386.9 925.1607421875 386.603515625 924.75 386.6 924.3392578125 386.603515625 924.05 386.9
M 923.75 380.6
L 923.75 383.6
Q 923.753515625 384.0107421875 924.05 384.3 924.3392578125 384.596484375 924.75 384.6 925.1607421875 384.596484375 925.45 384.3 925.746484375 384.0107421875 925.75 383.6
L 925.75 380.6
Q 925.746484375 380.1892578125 925.45 379.9 925.1607421875 379.603515625 924.75 379.6 924.3392578125 379.603515625 924.05 379.9 923.753515625 380.1892578125 923.75 380.6
M 925.75 376.6
L 925.75 373.6
Q 925.746484375 373.1892578125 925.45 372.9 925.1607421875 372.603515625 924.75 372.6 924.3392578125 372.603515625 924.05 372.9 923.753515625 373.1892578125 923.75 373.6
L 923.75 376.6
Q 923.753515625 377.0107421875 924.05 377.3 924.3392578125 377.596484375 924.75 377.6 925.1607421875 377.596484375 925.45 377.3 925.746484375 377.0107421875 925.75 376.6
M 924.75 365.6
Q 924.3392578125 365.603515625 924.05 365.9 923.753515625 366.1892578125 923.75 366.6
L 923.75 369.6
Q 923.753515625 370.0107421875 924.05 370.3 924.3392578125 370.596484375 924.75 370.6 925.1607421875 370.596484375 925.45 370.3 925.746484375 370.0107421875 925.75 369.6
L 925.75 366.6
Q 925.746484375 366.1892578125 925.45 365.9 925.1607421875 365.603515625 924.75 365.6
M 923.75 359.6
L 923.75 362.6
Q 923.753515625 363.0107421875 924.05 363.3 924.3392578125 363.596484375 924.75 363.6 925.1607421875 363.596484375 925.45 363.3 925.746484375 363.0107421875 925.75 362.6
L 925.75 359.6
Q 925.746484375 359.1892578125 925.45 358.9 925.1607421875 358.603515625 924.75 358.6 924.3392578125 358.603515625 924.05 358.9 923.753515625 359.1892578125 923.75 359.6
M 924.05 351.9
Q 923.753515625 352.1892578125 923.75 352.6
L 923.75 355.6
Q 923.753515625 356.0107421875 924.05 356.3 924.3392578125 356.596484375 924.75 356.6 925.1607421875 356.596484375 925.45 356.3 925.746484375 356.0107421875 925.75 355.6
L 925.75 352.6
Q 925.746484375 352.1892578125 925.45 351.9 925.1607421875 351.603515625 924.75 351.6 924.3392578125 351.603515625 924.05 351.9
M 924.05 344.9
Q 923.753515625 345.1892578125 923.75 345.6
L 923.75 348.6
Q 923.753515625 349.0107421875 924.05 349.3 924.3392578125 349.596484375 924.75 349.6 925.1607421875 349.596484375 925.45 349.3 925.746484375 349.0107421875 925.75 348.6
L 925.75 345.6
Q 925.746484375 345.1892578125 925.45 344.9 925.1607421875 344.603515625 924.75 344.6 924.3392578125 344.603515625 924.05 344.9
M 924.75 337.6
Q 924.3392578125 337.603515625 924.05 337.9 923.753515625 338.1892578125 923.75 338.6
L 923.75 341.6
Q 923.753515625 342.0107421875 924.05 342.3 924.3392578125 342.596484375 924.75 342.6 925.1607421875 342.596484375 925.45 342.3 925.746484375 342.0107421875 925.75 341.6
L 925.75 338.6
Q 925.746484375 338.1892578125 925.45 337.9 925.1607421875 337.603515625 924.75 337.6
M 919.1 335.7
Q 918.8107421875 335.403515625 918.4 335.4
L 915.4 335.4
Q 914.9892578125 335.403515625 914.7 335.7 914.403515625 335.9892578125 914.4 336.4 914.403515625 336.8107421875 914.7 337.1 914.9892578125 337.396484375 915.4 337.4
L 918.4 337.4
Q 918.8107421875 337.396484375 919.1 337.1 919.396484375 336.8107421875 919.4 336.4 919.396484375 335.9892578125 919.1 335.7
M 925.75 333.4
Q 925.746484375 332.9892578125 925.45 332.7 925.1607421875 332.403515625 924.75 332.4 924.3392578125 332.403515625 924.05 332.7 923.753515625 332.9892578125 923.75 333.4
L 923.75 335.4 922.4 335.4
Q 921.9892578125 335.403515625 921.7 335.7 921.403515625 335.9892578125 921.4 336.4 921.403515625 336.8107421875 921.7 337.1 921.9892578125 337.396484375 922.4 337.4
L 927.75 337.4
Q 928.1607421875 337.396484375 928.45 337.1 928.746484375 336.8107421875 928.75 336.4 928.746484375 335.9892578125 928.45 335.7 928.1607421875 335.403515625 927.75 335.4
L 925.75 335.4 925.75 333.4
M 924.75 325.4
Q 924.3392578125 325.403515625 924.05 325.7 923.753515625 325.9892578125 923.75 326.4
L 923.75 329.4
Q 923.753515625 329.8107421875 924.05 330.1 924.3392578125 330.396484375 924.75 330.4 925.1607421875 330.396484375 925.45 330.1 925.746484375 329.8107421875 925.75 329.4
L 925.75 326.4
Q 925.746484375 325.9892578125 925.45 325.7 925.1607421875 325.403515625 924.75 325.4
M 907.7 337.1
Q 907.9892578125 337.396484375 908.4 337.4
L 911.4 337.4
Q 911.8107421875 337.396484375 912.1 337.1 912.396484375 336.8107421875 912.4 336.4 912.396484375 335.9892578125 912.1 335.7 911.8107421875 335.403515625 911.4 335.4
L 908.4 335.4
Q 907.9892578125 335.403515625 907.7 335.7 907.403515625 335.9892578125 907.4 336.4 907.403515625 336.8107421875 907.7 337.1
M 900.4 336.4
Q 900.403515625 336.8107421875 900.7 337.1 900.9892578125 337.396484375 901.4 337.4
L 904.4 337.4
Q 904.8107421875 337.396484375 905.1 337.1 905.396484375 336.8107421875 905.4 336.4 905.396484375 335.9892578125 905.1 335.7 904.8107421875 335.403515625 904.4 335.4
L 901.4 335.4
Q 900.9892578125 335.403515625 900.7 335.7 900.403515625 335.9892578125 900.4 336.4
M 898.1 335.7
Q 897.8107421875 335.403515625 897.4 335.4
L 894.4 335.4
Q 893.9892578125 335.403515625 893.7 335.7 893.403515625 335.9892578125 893.4 336.4 893.403515625 336.8107421875 893.7 337.1 893.9892578125 337.396484375 894.4 337.4
L 897.4 337.4
Q 897.8107421875 337.396484375 898.1 337.1 898.396484375 336.8107421875 898.4 336.4 898.396484375 335.9892578125 898.1 335.7
M 924.05 318.7
Q 923.753515625 318.9892578125 923.75 319.4
L 923.75 322.4
Q 923.753515625 322.8107421875 924.05 323.1 924.3392578125 323.396484375 924.75 323.4 925.1607421875 323.396484375 925.45 323.1 925.746484375 322.8107421875 925.75 322.4
L 925.75 319.4
Q 925.746484375 318.9892578125 925.45 318.7 925.1607421875 318.403515625 924.75 318.4 924.3392578125 318.403515625 924.05 318.7
M 924.75 311.4
Q 924.3392578125 311.403515625 924.05 311.7 923.753515625 311.9892578125 923.75 312.4
L 923.75 315.4
Q 923.753515625 315.8107421875 924.05 316.1 924.3392578125 316.396484375 924.75 316.4 925.1607421875 316.396484375 925.45 316.1 925.746484375 315.8107421875 925.75 315.4
L 925.75 312.4
Q 925.746484375 311.9892578125 925.45 311.7 925.1607421875 311.403515625 924.75 311.4
M 923.75 305.4
L 923.75 308.4
Q 923.753515625 308.8107421875 924.05 309.1 924.3392578125 309.396484375 924.75 309.4 925.1607421875 309.396484375 925.45 309.1 925.746484375 308.8107421875 925.75 308.4
L 925.75 305.4
Q 925.746484375 304.9892578125 925.45 304.7 925.1607421875 304.403515625 924.75 304.4 924.3392578125 304.403515625 924.05 304.7 923.753515625 304.9892578125 923.75 305.4
M 925.75 298.4
Q 925.746484375 297.9892578125 925.45 297.7 925.1607421875 297.403515625 924.75 297.4 924.3392578125 297.403515625 924.05 297.7 923.753515625 297.9892578125 923.75 298.4
L 923.75 301.4
Q 923.753515625 301.8107421875 924.05 302.1 924.3392578125 302.396484375 924.75 302.4 925.1607421875 302.396484375 925.45 302.1 925.746484375 301.8107421875 925.75 301.4
L 925.75 298.4
M 970.45 335.7
Q 970.1607421875 335.403515625 969.75 335.4
L 966.75 335.4
Q 966.3392578125 335.403515625 966.05 335.7 965.753515625 335.9892578125 965.75 336.4 965.753515625 336.8107421875 966.05 337.1 966.3392578125 337.396484375 966.75 337.4
L 969.75 337.4
Q 970.1607421875 337.396484375 970.45 337.1 970.746484375 336.8107421875 970.75 336.4 970.746484375 335.9892578125 970.45 335.7
M 956.45 335.7
Q 956.1607421875 335.403515625 955.75 335.4
L 952.75 335.4
Q 952.3392578125 335.403515625 952.05 335.7 951.753515625 335.9892578125 951.75 336.4 951.753515625 336.8107421875 952.05 337.1 952.3392578125 337.396484375 952.75 337.4
L 955.75 337.4
Q 956.1607421875 337.396484375 956.45 337.1 956.746484375 336.8107421875 956.75 336.4 956.746484375 335.9892578125 956.45 335.7
M 959.05 337.1
Q 959.3392578125 337.396484375 959.75 337.4
L 962.75 337.4
Q 963.1607421875 337.396484375 963.45 337.1 963.746484375 336.8107421875 963.75 336.4 963.746484375 335.9892578125 963.45 335.7 963.1607421875 335.403515625 962.75 335.4
L 959.75 335.4
Q 959.3392578125 335.403515625 959.05 335.7 958.753515625 335.9892578125 958.75 336.4 958.753515625 336.8107421875 959.05 337.1
M 949.45 335.7
Q 949.1607421875 335.403515625 948.75 335.4
L 945.75 335.4
Q 945.3392578125 335.403515625 945.05 335.7 944.753515625 335.9892578125 944.75 336.4 944.753515625 336.8107421875 945.05 337.1 945.3392578125 337.396484375 945.75 337.4
L 948.75 337.4
Q 949.1607421875 337.396484375 949.45 337.1 949.746484375 336.8107421875 949.75 336.4 949.746484375 335.9892578125 949.45 335.7
M 934.75 335.4
L 931.75 335.4
Q 931.3392578125 335.403515625 931.05 335.7 930.753515625 335.9892578125 930.75 336.4 930.753515625 336.8107421875 931.05 337.1 931.3392578125 337.396484375 931.75 337.4
L 934.75 337.4
Q 935.1607421875 337.396484375 935.45 337.1 935.746484375 336.8107421875 935.75 336.4 935.746484375 335.9892578125 935.45 335.7 935.1607421875 335.403515625 934.75 335.4
M 938.75 335.4
Q 938.3392578125 335.403515625 938.05 335.7 937.753515625 335.9892578125 937.75 336.4 937.753515625 336.8107421875 938.05 337.1 938.3392578125 337.396484375 938.75 337.4
L 941.75 337.4
Q 942.1607421875 337.396484375 942.45 337.1 942.746484375 336.8107421875 942.75 336.4 942.746484375 335.9892578125 942.45 335.7 942.1607421875 335.403515625 941.75 335.4
L 938.75 335.4
M 858.7 391.7
Q 858.403515625 391.9892578125 858.4 392.4
L 858.4 395.4
Q 858.403515625 395.8107421875 858.7 396.1 858.9892578125 396.396484375 859.4 396.4 859.8107421875 396.396484375 860.1 396.1 860.396484375 395.8107421875 860.4 395.4
L 860.4 392.4
Q 860.396484375 391.9892578125 860.1 391.7 859.8107421875 391.403515625 859.4 391.4 858.9892578125 391.403515625 858.7 391.7
M 858.7 384.7
Q 858.403515625 384.9892578125 858.4 385.4
L 858.4 388.4
Q 858.403515625 388.8107421875 858.7 389.1 858.9892578125 389.396484375 859.4 389.4 859.8107421875 389.396484375 860.1 389.1 860.396484375 388.8107421875 860.4 388.4
L 860.4 385.4
Q 860.396484375 384.9892578125 860.1 384.7 859.8107421875 384.403515625 859.4 384.4 858.9892578125 384.403515625 858.7 384.7
M 860.1 382.1
Q 860.396484375 381.8107421875 860.4 381.4
L 860.4 378.4
Q 860.396484375 377.9892578125 860.1 377.7 859.8107421875 377.403515625 859.4 377.4 858.9892578125 377.403515625 858.7 377.7 858.403515625 377.9892578125 858.4 378.4
L 858.4 381.4
Q 858.403515625 381.8107421875 858.7 382.1 858.9892578125 382.396484375 859.4 382.4 859.8107421875 382.396484375 860.1 382.1
M 860.1 370.7
Q 859.8107421875 370.403515625 859.4 370.4 858.9892578125 370.403515625 858.7 370.7 858.403515625 370.9892578125 858.4 371.4
L 858.4 374.4
Q 858.403515625 374.8107421875 858.7 375.1 858.9892578125 375.396484375 859.4 375.4 859.8107421875 375.396484375 860.1 375.1 860.396484375 374.8107421875 860.4 374.4
L 860.4 371.4
Q 860.396484375 370.9892578125 860.1 370.7
M 860.4 364.4
Q 860.396484375 363.9892578125 860.1 363.7 859.8107421875 363.403515625 859.4 363.4 858.9892578125 363.403515625 858.7 363.7 858.403515625 363.9892578125 858.4 364.4
L 858.4 367.4
Q 858.403515625 367.8107421875 858.7 368.1 858.9892578125 368.396484375 859.4 368.4 859.8107421875 368.396484375 860.1 368.1 860.396484375 367.8107421875 860.4 367.4
L 860.4 364.4
M 858.7 356.7
Q 858.403515625 356.9892578125 858.4 357.4
L 858.4 360.4
Q 858.403515625 360.8107421875 858.7 361.1 858.9892578125 361.396484375 859.4 361.4 859.8107421875 361.396484375 860.1 361.1 860.396484375 360.8107421875 860.4 360.4
L 860.4 357.4
Q 860.396484375 356.9892578125 860.1 356.7 859.8107421875 356.403515625 859.4 356.4 858.9892578125 356.403515625 858.7 356.7
M 860.4 350.4
Q 860.396484375 349.9892578125 860.1 349.7 859.8107421875 349.403515625 859.4 349.4 858.9892578125 349.403515625 858.7 349.7 858.403515625 349.9892578125 858.4 350.4
L 858.4 353.4
Q 858.403515625 353.8107421875 858.7 354.1 858.9892578125 354.396484375 859.4 354.4 859.8107421875 354.396484375 860.1 354.1 860.396484375 353.8107421875 860.4 353.4
L 860.4 350.4
M 846.85 335.7
Q 846.5607421875 335.403515625 846.15 335.4
L 843.15 335.4
Q 842.7392578125 335.403515625 842.45 335.7 842.153515625 335.9892578125 842.15 336.4 842.153515625 336.8107421875 842.45 337.1 842.7392578125 337.396484375 843.15 337.4
L 846.15 337.4
Q 846.5607421875 337.396484375 846.85 337.1 847.146484375 336.8107421875 847.15 336.4 847.146484375 335.9892578125 846.85 335.7
M 839.85 335.7
Q 839.5607421875 335.403515625 839.15 335.4
L 836.15 335.4
Q 835.7392578125 335.403515625 835.45 335.7 835.153515625 335.9892578125 835.15 336.4 835.153515625 336.8107421875 835.45 337.1 835.7392578125 337.396484375 836.15 337.4
L 839.15 337.4
Q 839.5607421875 337.396484375 839.85 337.1 840.146484375 336.8107421875 840.15 336.4 840.146484375 335.9892578125 839.85 335.7
M 825.85 337.1
Q 826.146484375 336.8107421875 826.15 336.4 826.146484375 335.9892578125 825.85 335.7 825.5607421875 335.403515625 825.15 335.4
L 822.15 335.4
Q 821.7392578125 335.403515625 821.45 335.7 821.153515625 335.9892578125 821.15 336.4 821.153515625 336.8107421875 821.45 337.1 821.7392578125 337.396484375 822.15 337.4
L 825.15 337.4
Q 825.5607421875 337.396484375 825.85 337.1
M 828.45 337.1
Q 828.7392578125 337.396484375 829.15 337.4
L 832.15 337.4
Q 832.5607421875 337.396484375 832.85 337.1 833.146484375 336.8107421875 833.15 336.4 833.146484375 335.9892578125 832.85 335.7 832.5607421875 335.403515625 832.15 335.4
L 829.15 335.4
Q 828.7392578125 335.403515625 828.45 335.7 828.153515625 335.9892578125 828.15 336.4 828.153515625 336.8107421875 828.45 337.1
M 819.15 336.4
Q 819.146484375 335.9892578125 818.85 335.7 818.5607421875 335.403515625 818.15 335.4
L 815.15 335.4
Q 814.7392578125 335.403515625 814.45 335.7 814.153515625 335.9892578125 814.15 336.4 814.153515625 336.8107421875 814.45 337.1 814.7392578125 337.396484375 815.15 337.4
L 818.15 337.4
Q 818.5607421875 337.396484375 818.85 337.1 819.146484375 336.8107421875 819.15 336.4
M 890.4 335.4
L 887.4 335.4
Q 886.9892578125 335.403515625 886.7 335.7 886.403515625 335.9892578125 886.4 336.4 886.403515625 336.8107421875 886.7 337.1 886.9892578125 337.396484375 887.4 337.4
L 890.4 337.4
Q 890.8107421875 337.396484375 891.1 337.1 891.396484375 336.8107421875 891.4 336.4 891.396484375 335.9892578125 891.1 335.7 890.8107421875 335.403515625 890.4 335.4
M 879.7 337.1
Q 879.9892578125 337.396484375 880.4 337.4
L 883.4 337.4
Q 883.8107421875 337.396484375 884.1 337.1 884.396484375 336.8107421875 884.4 336.4 884.396484375 335.9892578125 884.1 335.7 883.8107421875 335.403515625 883.4 335.4
L 880.4 335.4
Q 879.9892578125 335.403515625 879.7 335.7 879.403515625 335.9892578125 879.4 336.4 879.403515625 336.8107421875 879.7 337.1
M 877.1 335.7
Q 876.8107421875 335.403515625 876.4 335.4
L 873.4 335.4
Q 872.9892578125 335.403515625 872.7 335.7 872.403515625 335.9892578125 872.4 336.4 872.403515625 336.8107421875 872.7 337.1 872.9892578125 337.396484375 873.4 337.4
L 876.4 337.4
Q 876.8107421875 337.396484375 877.1 337.1 877.396484375 336.8107421875 877.4 336.4 877.396484375 335.9892578125 877.1 335.7
M 870.4 336.4
Q 870.396484375 335.9892578125 870.1 335.7 869.8107421875 335.403515625 869.4 335.4
L 866.4 335.4
Q 865.9892578125 335.403515625 865.7 335.7 865.403515625 335.9892578125 865.4 336.4 865.403515625 336.8107421875 865.7 337.1 865.9892578125 337.396484375 866.4 337.4
L 869.4 337.4
Q 869.8107421875 337.396484375 870.1 337.1 870.396484375 336.8107421875 870.4 336.4
M 858.7 342.7
Q 858.403515625 342.9892578125 858.4 343.4
L 858.4 346.4
Q 858.403515625 346.8107421875 858.7 347.1 858.9892578125 347.396484375 859.4 347.4 859.8107421875 347.396484375 860.1 347.1 860.396484375 346.8107421875 860.4 346.4
L 860.4 343.4
Q 860.396484375 342.9892578125 860.1 342.7 859.8107421875 342.403515625 859.4 342.4 858.9892578125 342.403515625 858.7 342.7
M 853.85 335.7
Q 853.5607421875 335.403515625 853.15 335.4
L 850.15 335.4
Q 849.7392578125 335.403515625 849.45 335.7 849.153515625 335.9892578125 849.15 336.4 849.153515625 336.8107421875 849.45 337.1 849.7392578125 337.396484375 850.15 337.4
L 853.15 337.4
Q 853.5607421875 337.396484375 853.85 337.1 854.146484375 336.8107421875 854.15 336.4 854.146484375 335.9892578125 853.85 335.7
M 856.15 336.4
Q 856.153515625 336.8107421875 856.45 337.1 856.7392578125 337.396484375 857.15 337.4
L 858.4 337.4 858.4 339.4
Q 858.403515625 339.8107421875 858.7 340.1 858.9892578125 340.396484375 859.4 340.4 859.8107421875 340.396484375 860.1 340.1 860.396484375 339.8107421875 860.4 339.4
L 860.4 337.4 862.4 337.4
Q 862.8107421875 337.396484375 863.1 337.1 863.396484375 336.8107421875 863.4 336.4 863.396484375 335.9892578125 863.1 335.7 862.8107421875 335.403515625 862.4 335.4
L 857.15 335.4
Q 856.7392578125 335.403515625 856.45 335.7 856.153515625 335.9892578125 856.15 336.4
M 858.7 330.5
Q 858.403515625 330.7892578125 858.4 331.2
L 858.4 334.2
Q 858.403515625 334.6107421875 858.7 334.9 858.9892578125 335.196484375 859.4 335.2 859.8107421875 335.196484375 860.1 334.9 860.396484375 334.6107421875 860.4 334.2
L 860.4 331.2
Q 860.396484375 330.7892578125 860.1 330.5 859.8107421875 330.203515625 859.4 330.2 858.9892578125 330.203515625 858.7 330.5
M 860.1 327.9
Q 860.396484375 327.6107421875 860.4 327.2
L 860.4 324.2
Q 860.396484375 323.7892578125 860.1 323.5 859.8107421875 323.203515625 859.4 323.2 858.9892578125 323.203515625 858.7 323.5 858.403515625 323.7892578125 858.4 324.2
L 858.4 327.2
Q 858.403515625 327.6107421875 858.7 327.9 858.9892578125 328.196484375 859.4 328.2 859.8107421875 328.196484375 860.1 327.9
M 858.7 316.5
Q 858.403515625 316.7892578125 858.4 317.2
L 858.4 320.2
Q 858.403515625 320.6107421875 858.7 320.9 858.9892578125 321.196484375 859.4 321.2 859.8107421875 321.196484375 860.1 320.9 860.396484375 320.6107421875 860.4 320.2
L 860.4 317.2
Q 860.396484375 316.7892578125 860.1 316.5 859.8107421875 316.203515625 859.4 316.2 858.9892578125 316.203515625 858.7 316.5
M 860.1 313.9
Q 860.396484375 313.6107421875 860.4 313.2
L 860.4 310.2
Q 860.396484375 309.7892578125 860.1 309.5 859.8107421875 309.203515625 859.4 309.2 858.9892578125 309.203515625 858.7 309.5 858.403515625 309.7892578125 858.4 310.2
L 858.4 313.2
Q 858.403515625 313.6107421875 858.7 313.9 858.9892578125 314.196484375 859.4 314.2 859.8107421875 314.196484375 860.1 313.9
M 860.1 302.5
Q 859.8107421875 302.203515625 859.4 302.2 858.9892578125 302.203515625 858.7 302.5 858.403515625 302.7892578125 858.4 303.2
L 858.4 306.2
Q 858.403515625 306.6107421875 858.7 306.9 858.9892578125 307.196484375 859.4 307.2 859.8107421875 307.196484375 860.1 306.9 860.396484375 306.6107421875 860.4 306.2
L 860.4 303.2
Q 860.396484375 302.7892578125 860.1 302.5
M 858.7 295.5
Q 858.403515625 295.7892578125 858.4 296.2
L 858.4 299.2
Q 858.403515625 299.6107421875 858.7 299.9 858.9892578125 300.196484375 859.4 300.2 859.8107421875 300.196484375 860.1 299.9 860.396484375 299.6107421875 860.4 299.2
L 860.4 296.2
Q 860.396484375 295.7892578125 860.1 295.5 859.8107421875 295.203515625 859.4 295.2 858.9892578125 295.203515625 858.7 295.5
M 860.4 289.2
Q 860.396484375 288.7892578125 860.1 288.5 859.8107421875 288.203515625 859.4 288.2 858.9892578125 288.203515625 858.7 288.5 858.403515625 288.7892578125 858.4 289.2
L 858.4 292.2
Q 858.403515625 292.6107421875 858.7 292.9 858.9892578125 293.196484375 859.4 293.2 859.8107421875 293.196484375 860.1 292.9 860.396484375 292.6107421875 860.4 292.2
L 860.4 289.2
M 858.7 281.5
Q 858.403515625 281.7892578125 858.4 282.2
L 858.4 285.2
Q 858.403515625 285.6107421875 858.7 285.9 858.9892578125 286.196484375 859.4 286.2 859.8107421875 286.196484375 860.1 285.9 860.396484375 285.6107421875 860.4 285.2
L 860.4 282.2
Q 860.396484375 281.7892578125 860.1 281.5 859.8107421875 281.203515625 859.4 281.2 858.9892578125 281.203515625 858.7 281.5
M 860.4 278.2
L 860.4 275.2
Q 860.396484375 274.7892578125 860.1 274.5 859.8107421875 274.203515625 859.4 274.2 858.9892578125 274.203515625 858.7 274.5 858.403515625 274.7892578125 858.4 275.2
L 858.4 278.2
Q 858.403515625 278.6107421875 858.7 278.9 858.9892578125 279.196484375 859.4 279.2 859.8107421875 279.196484375 860.1 278.9 860.396484375 278.6107421875 860.4 278.2
M 925.45 290.7
Q 925.1607421875 290.403515625 924.75 290.4 924.3392578125 290.403515625 924.05 290.7 923.753515625 290.9892578125 923.75 291.4
L 923.75 294.4
Q 923.753515625 294.8107421875 924.05 295.1 924.3392578125 295.396484375 924.75 295.4 925.1607421875 295.396484375 925.45 295.1 925.746484375 294.8107421875 925.75 294.4
L 925.75 291.4
Q 925.746484375 290.9892578125 925.45 290.7
M 925.75 284.4
Q 925.746484375 283.9892578125 925.45 283.7 925.1607421875 283.403515625 924.75 283.4 924.3392578125 283.403515625 924.05 283.7 923.753515625 283.9892578125 923.75 284.4
L 923.75 287.4
Q 923.753515625 287.8107421875 924.05 288.1 924.3392578125 288.396484375 924.75 288.4 925.1607421875 288.396484375 925.45 288.1 925.746484375 287.8107421875 925.75 287.4
L 925.75 284.4
M 924.05 276.7
Q 923.753515625 276.9892578125 923.75 277.4
L 923.75 280.4
Q 923.753515625 280.8107421875 924.05 281.1 924.3392578125 281.396484375 924.75 281.4 925.1607421875 281.396484375 925.45 281.1 925.746484375 280.8107421875 925.75 280.4
L 925.75 277.4
Q 925.746484375 276.9892578125 925.45 276.7 925.1607421875 276.403515625 924.75 276.4 924.3392578125 276.403515625 924.05 276.7
M 804.15 337.4
Q 804.5607421875 337.396484375 804.85 337.1 805.146484375 336.8107421875 805.15 336.4 805.146484375 335.9892578125 804.85 335.7 804.5607421875 335.403515625 804.15 335.4
L 801.15 335.4
Q 800.7392578125 335.403515625 800.45 335.7 800.153515625 335.9892578125 800.15 336.4 800.153515625 336.8107421875 800.45 337.1 800.7392578125 337.396484375 801.15 337.4
L 804.15 337.4
M 808.15 335.4
Q 807.7392578125 335.403515625 807.45 335.7 807.153515625 335.9892578125 807.15 336.4 807.153515625 336.8107421875 807.45 337.1 807.7392578125 337.396484375 808.15 337.4
L 811.15 337.4
Q 811.5607421875 337.396484375 811.85 337.1 812.146484375 336.8107421875 812.15 336.4 812.146484375 335.9892578125 811.85 335.7 811.5607421875 335.403515625 811.15 335.4
L 808.15 335.4
M 797.85 335.7
Q 797.5607421875 335.403515625 797.15 335.4
L 794.15 335.4
Q 793.7392578125 335.403515625 793.45 335.7 793.153515625 335.9892578125 793.15 336.4 793.153515625 336.8107421875 793.45 337.1 793.7392578125 337.396484375 794.15 337.4
L 797.15 337.4
Q 797.5607421875 337.396484375 797.85 337.1 798.146484375 336.8107421875 798.15 336.4 798.146484375 335.9892578125 797.85 335.7
M 991 336.4
Q 990.996484375 335.9892578125 990.7 335.7 990.4107421875 335.403515625 990 335.4
L 987.75 335.4
Q 987.3392578125 335.403515625 987.05 335.7 986.753515625 335.9892578125 986.75 336.4 986.753515625 336.8107421875 987.05 337.1 987.3392578125 337.396484375 987.75 337.4
L 990 337.4
Q 990.4107421875 337.396484375 990.7 337.1 990.996484375 336.8107421875 991 336.4
M 977.45 337.1
Q 977.746484375 336.8107421875 977.75 336.4 977.746484375 335.9892578125 977.45 335.7 977.1607421875 335.403515625 976.75 335.4
L 973.75 335.4
Q 973.3392578125 335.403515625 973.05 335.7 972.753515625 335.9892578125 972.75 336.4 972.753515625 336.8107421875 973.05 337.1 973.3392578125 337.396484375 973.75 337.4
L 976.75 337.4
Q 977.1607421875 337.396484375 977.45 337.1
M 980.75 335.4
Q 980.3392578125 335.403515625 980.05 335.7 979.753515625 335.9892578125 979.75 336.4 979.753515625 336.8107421875 980.05 337.1 980.3392578125 337.396484375 980.75 337.4
L 983.75 337.4
Q 984.1607421875 337.396484375 984.45 337.1 984.746484375 336.8107421875 984.75 336.4 984.746484375 335.9892578125 984.45 335.7 984.1607421875 335.403515625 983.75 335.4
L 980.75 335.4 Z"/>
</g>

<path id="Layer1_0_1_STROKES" stroke="#F0861B" stroke-width="3" stroke-linejoin="round" stroke-linecap="butt" fill="none" d="
M 990 336.4
L 990 275.2 924.75 275.2
M 990 336.4
L 990 397.6 924.75 397.6 859.4 397.6 794.15 397.6 794.15 336.4 794.15 275.2 859.4 275.2 924.75 275.2
M 564.65 397.6
L 760.6 397.6 760.6 275.2 564.65 275.2 564.65 397.6 Z
M 335.1 397.6
L 531.05 397.6 531.05 275.2 335.1 275.2 335.1 397.6 Z
M 105.25 397.6
L 301.1 397.6 301.1 275.2 105.25 275.2 105.25 397.6 Z"/>
</defs>

<g transform="matrix( 1, 0, 0, 1, 0,0) ">
<use xlink:href="#Layer1_0_FILL"/>

<use xlink:href="#Layer1_0_1_STROKES"/>

<use xlink:href="#Layer1_0_STROKES_1_FILL"/>
</g>
</svg>
