
<svg xmlns="http://www.w3.org/2000/svg" version="1.1" xmlns:xlink="http://www.w3.org/1999/xlink" preserveAspectRatio="none" x="0px" y="0px" width="1280px" height="320px" viewBox="0 0 1280 320">
<defs>
<g id="bdfbdbdn_1_Layer4_0_FILL">
<path fill="#FFFFFF" stroke="none" d="
M 127.6 -0.05
Q 127.6 -52.85 90.25 -90.2 52.9 -127.55 0.1 -127.55 -52.7 -127.55 -90.2 -90.2 -127.55 -52.85 -127.55 -0.05 -127.55 52.9 -90.2 90.25 -52.7 127.6 0.1 127.6 52.9 127.6 90.25 90.25 127.6 52.75 127.6 -0.05 Z"/>
</g>

<g id="bdfbdbdn_1_Layer3_0_FILL">
<path fill="#D4EDFB" stroke="none" d="
M 127.6 -0.05
Q 127.6 -52.85 90.25 -90.2 52.9 -127.55 0.1 -127.55
L 0.1 -0.05 127.6 -0.05 Z"/>
</g>

<g id="bdfbdbdn_1_Layer2_0_STROKES_1_FILL">
<path fill="#3567D7" stroke="none" d="
M -6.15 -0.9
Q -6.48671875 -1.2455078125 -7 -1.25
L -10 -1.25
Q -10.51328125 -1.2455078125 -10.9 -0.9 -11.2455078125 -0.51328125 -11.25 0 -11.2455078125 0.51328125 -10.9 0.85 -10.51328125 1.2455078125 -10 1.25
L -7 1.25
Q -6.48671875 1.2455078125 -6.15 0.85 -5.7544921875 0.51328125 -5.75 0 -5.7544921875 -0.51328125 -6.15 -0.9
M -14 -1.25
L -17 -1.25
Q -17.51328125 -1.2455078125 -17.9 -0.9 -18.2455078125 -0.51328125 -18.25 0 -18.2455078125 0.51328125 -17.9 0.85 -17.51328125 1.2455078125 -17 1.25
L -14 1.25
Q -13.48671875 1.2455078125 -13.15 0.85 -12.7544921875 0.51328125 -12.75 0 -12.7544921875 -0.51328125 -13.15 -0.9 -13.48671875 -1.2455078125 -14 -1.25
M -38 -1.25
Q -38.51328125 -1.2455078125 -38.9 -0.9 -39.2455078125 -0.51328125 -39.25 0 -39.2455078125 0.51328125 -38.9 0.85 -38.51328125 1.2455078125 -38 1.25
L -35 1.25
Q -34.48671875 1.2455078125 -34.15 0.85 -33.7544921875 0.51328125 -33.75 0 -33.7544921875 -0.51328125 -34.15 -0.9 -34.48671875 -1.2455078125 -35 -1.25
L -38 -1.25
M -31 -1.25
Q -31.51328125 -1.2455078125 -31.9 -0.9 -32.2455078125 -0.51328125 -32.25 0 -32.2455078125 0.51328125 -31.9 0.85 -31.51328125 1.2455078125 -31 1.25
L -28 1.25
Q -27.48671875 1.2455078125 -27.15 0.85 -26.7544921875 0.51328125 -26.75 0 -26.7544921875 -0.51328125 -27.15 -0.9 -27.48671875 -1.2455078125 -28 -1.25
L -31 -1.25
M -24 -1.25
Q -24.51328125 -1.2455078125 -24.9 -0.9 -25.2455078125 -0.51328125 -25.25 0 -25.2455078125 0.51328125 -24.9 0.85 -24.51328125 1.2455078125 -24 1.25
L -21 1.25
Q -20.48671875 1.2455078125 -20.15 0.85 -19.7544921875 0.51328125 -19.75 0 -19.7544921875 -0.51328125 -20.15 -0.9 -20.48671875 -1.2455078125 -21 -1.25
L -24 -1.25
M -42 -1.25
L -45 -1.25
Q -45.51328125 -1.2455078125 -45.9 -0.9 -46.2455078125 -0.51328125 -46.25 0 -46.2455078125 0.51328125 -45.9 0.85 -45.51328125 1.2455078125 -45 1.25
L -42 1.25
Q -41.48671875 1.2455078125 -41.15 0.85 -40.7544921875 0.51328125 -40.75 0 -40.7544921875 -0.51328125 -41.15 -0.9 -41.48671875 -1.2455078125 -42 -1.25
M -52 -1.25
Q -52.51328125 -1.2455078125 -52.9 -0.9 -53.2455078125 -0.51328125 -53.25 0 -53.2455078125 0.51328125 -52.9 0.85 -52.51328125 1.2455078125 -52 1.25
L -49 1.25
Q -48.48671875 1.2455078125 -48.15 0.85 -47.7544921875 0.51328125 -47.75 0 -47.7544921875 -0.51328125 -48.15 -0.9 -48.48671875 -1.2455078125 -49 -1.25
L -52 -1.25
M -56 -1.25
L -59 -1.25
Q -59.51328125 -1.2455078125 -59.9 -0.9 -60.2455078125 -0.51328125 -60.25 0 -60.2455078125 0.51328125 -59.9 0.85 -59.51328125 1.2455078125 -59 1.25
L -56 1.25
Q -55.48671875 1.2455078125 -55.15 0.85 -54.7544921875 0.51328125 -54.75 0 -54.7544921875 -0.51328125 -55.15 -0.9 -55.48671875 -1.2455078125 -56 -1.25
M -63 -1.25
L -66 -1.25
Q -66.51328125 -1.2455078125 -66.9 -0.9 -67.2455078125 -0.51328125 -67.25 0 -67.2455078125 0.51328125 -66.9 0.85 -66.51328125 1.2455078125 -66 1.25
L -63 1.25
Q -62.48671875 1.2455078125 -62.15 0.85 -61.7544921875 0.51328125 -61.75 0 -61.7544921875 -0.51328125 -62.15 -0.9 -62.48671875 -1.2455078125 -63 -1.25
M -73 -1.25
Q -73.51328125 -1.2455078125 -73.9 -0.9 -74.2455078125 -0.51328125 -74.25 0 -74.2455078125 0.51328125 -73.9 0.85 -73.51328125 1.2455078125 -73 1.25
L -70 1.25
Q -69.48671875 1.2455078125 -69.15 0.85 -68.7544921875 0.51328125 -68.75 0 -68.7544921875 -0.51328125 -69.15 -0.9 -69.48671875 -1.2455078125 -70 -1.25
L -73 -1.25
M -77 -1.25
L -80 -1.25
Q -80.51328125 -1.2455078125 -80.9 -0.9 -81.2455078125 -0.51328125 -81.25 0 -81.2455078125 0.51328125 -80.9 0.85 -80.51328125 1.2455078125 -80 1.25
L -77 1.25
Q -76.48671875 1.2455078125 -76.15 0.85 -75.7544921875 0.51328125 -75.75 0 -75.7544921875 -0.51328125 -76.15 -0.9 -76.48671875 -1.2455078125 -77 -1.25
M -84 -1.25
L -87 -1.25
Q -87.51328125 -1.2455078125 -87.9 -0.9 -88.2455078125 -0.51328125 -88.25 0 -88.2455078125 0.51328125 -87.9 0.85 -87.51328125 1.2455078125 -87 1.25
L -84 1.25
Q -83.48671875 1.2455078125 -83.15 0.85 -82.7544921875 0.51328125 -82.75 0 -82.7544921875 -0.51328125 -83.15 -0.9 -83.48671875 -1.2455078125 -84 -1.25
M -91 -1.25
L -94 -1.25
Q -94.51328125 -1.2455078125 -94.9 -0.9 -95.2455078125 -0.51328125 -95.25 0 -95.2455078125 0.51328125 -94.9 0.85 -94.51328125 1.2455078125 -94 1.25
L -91 1.25
Q -90.48671875 1.2455078125 -90.15 0.85 -89.7544921875 0.51328125 -89.75 0 -89.7544921875 -0.51328125 -90.15 -0.9 -90.48671875 -1.2455078125 -91 -1.25
M -98 -1.25
L -101 -1.25
Q -101.51328125 -1.2455078125 -101.9 -0.9 -102.2455078125 -0.51328125 -102.25 0 -102.2455078125 0.51328125 -101.9 0.85 -101.51328125 1.2455078125 -101 1.25
L -98 1.25
Q -97.48671875 1.2455078125 -97.15 0.85 -96.7544921875 0.51328125 -96.75 0 -96.7544921875 -0.51328125 -97.15 -0.9 -97.48671875 -1.2455078125 -98 -1.25
M -105 -1.25
L -108 -1.25
Q -108.51328125 -1.2455078125 -108.9 -0.9 -109.2455078125 -0.51328125 -109.25 0 -109.2455078125 0.51328125 -108.9 0.85 -108.51328125 1.2455078125 -108 1.25
L -105 1.25
Q -104.48671875 1.2455078125 -104.15 0.85 -103.7544921875 0.51328125 -103.75 0 -103.7544921875 -0.51328125 -104.15 -0.9 -104.48671875 -1.2455078125 -105 -1.25
M -112 -1.25
L -115 -1.25
Q -115.51328125 -1.2455078125 -115.9 -0.9 -116.2455078125 -0.51328125 -116.25 0 -116.2455078125 0.51328125 -115.9 0.85 -115.51328125 1.2455078125 -115 1.25
L -112 1.25
Q -111.48671875 1.2455078125 -111.15 0.85 -110.7544921875 0.51328125 -110.75 0 -110.7544921875 -0.51328125 -111.15 -0.9 -111.48671875 -1.2455078125 -112 -1.25
M -126.45 -1.25
Q -126.96328125 -1.2455078125 -127.35 -0.9 -127.6955078125 -0.51328125 -127.7 0 -127.6955078125 0.51328125 -127.35 0.85 -126.96328125 1.2455078125 -126.45 1.25
L -126 1.25
Q -125.48671875 1.2455078125 -125.15 0.85 -124.7544921875 0.51328125 -124.75 0 -124.7544921875 -0.51328125 -125.15 -0.9 -125.48671875 -1.2455078125 -126 -1.25
L -126.45 -1.25
M -122 -1.25
Q -122.51328125 -1.2455078125 -122.9 -0.9 -123.2455078125 -0.51328125 -123.25 0 -123.2455078125 0.51328125 -122.9 0.85 -122.51328125 1.2455078125 -122 1.25
L -119 1.25
Q -118.48671875 1.2455078125 -118.15 0.85 -117.7544921875 0.51328125 -117.75 0 -117.7544921875 -0.51328125 -118.15 -0.9 -118.48671875 -1.2455078125 -119 -1.25
L -122 -1.25
M 0.85 122.85
Q 1.2455078125 122.51328125 1.25 122
L 1.25 119
Q 1.2455078125 118.48671875 0.85 118.1 0.51328125 117.7544921875 0 117.75 -0.51328125 117.7544921875 -0.9 118.1 -1.2455078125 118.48671875 -1.25 119
L -1.25 122
Q -1.2455078125 122.51328125 -0.9 122.85 -0.51328125 123.2455078125 0 123.25 0.51328125 123.2455078125 0.85 122.85
M 0.85 111.1
Q 0.51328125 110.7544921875 0 110.75 -0.51328125 110.7544921875 -0.9 111.1 -1.2455078125 111.48671875 -1.25 112
L -1.25 115
Q -1.2455078125 115.51328125 -0.9 115.85 -0.51328125 116.2455078125 0 116.25 0.51328125 116.2455078125 0.85 115.85 1.2455078125 115.51328125 1.25 115
L 1.25 112
Q 1.2455078125 111.48671875 0.85 111.1
M 0.85 108.85
Q 1.2455078125 108.51328125 1.25 108
L 1.25 105
Q 1.2455078125 104.48671875 0.85 104.1 0.51328125 103.7544921875 0 103.75 -0.51328125 103.7544921875 -0.9 104.1 -1.2455078125 104.48671875 -1.25 105
L -1.25 108
Q -1.2455078125 108.51328125 -0.9 108.85 -0.51328125 109.2455078125 0 109.25 0.51328125 109.2455078125 0.85 108.85
M 0.85 97.1
Q 0.51328125 96.7544921875 0 96.75 -0.51328125 96.7544921875 -0.9 97.1 -1.2455078125 97.48671875 -1.25 98
L -1.25 101
Q -1.2455078125 101.51328125 -0.9 101.85 -0.51328125 102.2455078125 0 102.25 0.51328125 102.2455078125 0.85 101.85 1.2455078125 101.51328125 1.25 101
L 1.25 98
Q 1.2455078125 97.48671875 0.85 97.1
M 0.85 90.1
Q 0.51328125 89.7544921875 0 89.75 -0.51328125 89.7544921875 -0.9 90.1 -1.2455078125 90.48671875 -1.25 91
L -1.25 94
Q -1.2455078125 94.51328125 -0.9 94.85 -0.51328125 95.2455078125 0 95.25 0.51328125 95.2455078125 0.85 94.85 1.2455078125 94.51328125 1.25 94
L 1.25 91
Q 1.2455078125 90.48671875 0.85 90.1
M 0.85 83.1
Q 0.51328125 82.7544921875 0 82.75 -0.51328125 82.7544921875 -0.9 83.1 -1.2455078125 83.48671875 -1.25 84
L -1.25 87
Q -1.2455078125 87.51328125 -0.9 87.85 -0.51328125 88.2455078125 0 88.25 0.51328125 88.2455078125 0.85 87.85 1.2455078125 87.51328125 1.25 87
L 1.25 84
Q 1.2455078125 83.48671875 0.85 83.1
M 0.85 80.85
Q 1.2455078125 80.51328125 1.25 80
L 1.25 77
Q 1.2455078125 76.48671875 0.85 76.1 0.51328125 75.7544921875 0 75.75 -0.51328125 75.7544921875 -0.9 76.1 -1.2455078125 76.48671875 -1.25 77
L -1.25 80
Q -1.2455078125 80.51328125 -0.9 80.85 -0.51328125 81.2455078125 0 81.25 0.51328125 81.2455078125 0.85 80.85
M 0.85 73.85
Q 1.2455078125 73.51328125 1.25 73
L 1.25 70
Q 1.2455078125 69.48671875 0.85 69.1 0.51328125 68.7544921875 0 68.75 -0.51328125 68.7544921875 -0.9 69.1 -1.2455078125 69.48671875 -1.25 70
L -1.25 73
Q -1.2455078125 73.51328125 -0.9 73.85 -0.51328125 74.2455078125 0 74.25 0.51328125 74.2455078125 0.85 73.85
M 0.85 66.85
Q 1.2455078125 66.51328125 1.25 66
L 1.25 63
Q 1.2455078125 62.48671875 0.85 62.1 0.51328125 61.7544921875 0 61.75 -0.51328125 61.7544921875 -0.9 62.1 -1.2455078125 62.48671875 -1.25 63
L -1.25 66
Q -1.2455078125 66.51328125 -0.9 66.85 -0.51328125 67.2455078125 0 67.25 0.51328125 67.2455078125 0.85 66.85
M 0.85 59.85
Q 1.2455078125 59.51328125 1.25 59
L 1.25 56
Q 1.2455078125 55.48671875 0.85 55.1 0.51328125 54.7544921875 0 54.75 -0.51328125 54.7544921875 -0.9 55.1 -1.2455078125 55.48671875 -1.25 56
L -1.25 59
Q -1.2455078125 59.51328125 -0.9 59.85 -0.51328125 60.2455078125 0 60.25 0.51328125 60.2455078125 0.85 59.85
M 0.85 48.1
Q 0.51328125 47.7544921875 0 47.75 -0.51328125 47.7544921875 -0.9 48.1 -1.2455078125 48.48671875 -1.25 49
L -1.25 52
Q -1.2455078125 52.51328125 -0.9 52.85 -0.51328125 53.2455078125 0 53.25 0.51328125 53.2455078125 0.85 52.85 1.2455078125 52.51328125 1.25 52
L 1.25 49
Q 1.2455078125 48.48671875 0.85 48.1
M 0.85 41.1
Q 0.51328125 40.7544921875 0 40.75 -0.51328125 40.7544921875 -0.9 41.1 -1.2455078125 41.48671875 -1.25 42
L -1.25 45
Q -1.2455078125 45.51328125 -0.9 45.85 -0.51328125 46.2455078125 0 46.25 0.51328125 46.2455078125 0.85 45.85 1.2455078125 45.51328125 1.25 45
L 1.25 42
Q 1.2455078125 41.48671875 0.85 41.1
M 0.85 31.85
Q 1.2455078125 31.51328125 1.25 31
L 1.25 28
Q 1.2455078125 27.48671875 0.85 27.1 0.51328125 26.7544921875 0 26.75 -0.51328125 26.7544921875 -0.9 27.1 -1.2455078125 27.48671875 -1.25 28
L -1.25 31
Q -1.2455078125 31.51328125 -0.9 31.85 -0.51328125 32.2455078125 0 32.25 0.51328125 32.2455078125 0.85 31.85
M 1.25 35
Q 1.2455078125 34.48671875 0.85 34.1 0.51328125 33.7544921875 0 33.75 -0.51328125 33.7544921875 -0.9 34.1 -1.2455078125 34.48671875 -1.25 35
L -1.25 38
Q -1.2455078125 38.51328125 -0.9 38.85 -0.51328125 39.2455078125 0 39.25 0.51328125 39.2455078125 0.85 38.85 1.2455078125 38.51328125 1.25 38
L 1.25 35
M 0.85 20.1
Q 0.51328125 19.7544921875 0 19.75 -0.51328125 19.7544921875 -0.9 20.1 -1.2455078125 20.48671875 -1.25 21
L -1.25 24
Q -1.2455078125 24.51328125 -0.9 24.85 -0.51328125 25.2455078125 0 25.25 0.51328125 25.2455078125 0.85 24.85 1.2455078125 24.51328125 1.25 24
L 1.25 21
Q 1.2455078125 20.48671875 0.85 20.1
M 0.85 17.85
Q 1.2455078125 17.51328125 1.25 17
L 1.25 14
Q 1.2455078125 13.48671875 0.85 13.1 0.51328125 12.7544921875 0 12.75 -0.51328125 12.7544921875 -0.9 13.1 -1.2455078125 13.48671875 -1.25 14
L -1.25 17
Q -1.2455078125 17.51328125 -0.9 17.85 -0.51328125 18.2455078125 0 18.25 0.51328125 18.2455078125 0.85 17.85
M 0.85 6.1
Q 0.51328125 5.7544921875 0 5.75 -0.51328125 5.7544921875 -0.9 6.1 -1.2455078125 6.48671875 -1.25 7
L -1.25 10
Q -1.2455078125 10.51328125 -0.9 10.85 -0.51328125 11.2455078125 0 11.25 0.51328125 11.2455078125 0.85 10.85 1.2455078125 10.51328125 1.25 10
L 1.25 7
Q 1.2455078125 6.48671875 0.85 6.1
M 125.85 -0.9
Q 125.51328125 -1.2455078125 125 -1.25
L 122 -1.25
Q 121.48671875 -1.2455078125 121.1 -0.9 120.7544921875 -0.51328125 120.75 0 120.7544921875 0.51328125 121.1 0.85 121.48671875 1.2455078125 122 1.25
L 125 1.25
Q 125.51328125 1.2455078125 125.85 0.85 126.2455078125 0.51328125 126.25 0 126.2455078125 -0.51328125 125.85 -0.9
M 118 -1.25
L 115 -1.25
Q 114.48671875 -1.2455078125 114.1 -0.9 113.7544921875 -0.51328125 113.75 0 113.7544921875 0.51328125 114.1 0.85 114.48671875 1.2455078125 115 1.25
L 118 1.25
Q 118.51328125 1.2455078125 118.85 0.85 119.2455078125 0.51328125 119.25 0 119.2455078125 -0.51328125 118.85 -0.9 118.51328125 -1.2455078125 118 -1.25
M 111 -1.25
L 108 -1.25
Q 107.48671875 -1.2455078125 107.1 -0.9 106.7544921875 -0.51328125 106.75 0 106.7544921875 0.51328125 107.1 0.85 107.48671875 1.2455078125 108 1.25
L 111 1.25
Q 111.51328125 1.2455078125 111.85 0.85 112.2455078125 0.51328125 112.25 0 112.2455078125 -0.51328125 111.85 -0.9 111.51328125 -1.2455078125 111 -1.25
M 101 -1.25
Q 100.48671875 -1.2455078125 100.1 -0.9 99.7544921875 -0.51328125 99.75 0 99.7544921875 0.51328125 100.1 0.85 100.48671875 1.2455078125 101 1.25
L 104 1.25
Q 104.51328125 1.2455078125 104.85 0.85 105.2455078125 0.51328125 105.25 0 105.2455078125 -0.51328125 104.85 -0.9 104.51328125 -1.2455078125 104 -1.25
L 101 -1.25
M 97 -1.25
L 94 -1.25
Q 93.48671875 -1.2455078125 93.1 -0.9 92.7544921875 -0.51328125 92.75 0 92.7544921875 0.51328125 93.1 0.85 93.48671875 1.2455078125 94 1.25
L 97 1.25
Q 97.51328125 1.2455078125 97.85 0.85 98.2455078125 0.51328125 98.25 0 98.2455078125 -0.51328125 97.85 -0.9 97.51328125 -1.2455078125 97 -1.25
M 90 -1.25
L 87 -1.25
Q 86.48671875 -1.2455078125 86.1 -0.9 85.7544921875 -0.51328125 85.75 0 85.7544921875 0.51328125 86.1 0.85 86.48671875 1.2455078125 87 1.25
L 90 1.25
Q 90.51328125 1.2455078125 90.85 0.85 91.2455078125 0.51328125 91.25 0 91.2455078125 -0.51328125 90.85 -0.9 90.51328125 -1.2455078125 90 -1.25
M 80 -1.25
Q 79.48671875 -1.2455078125 79.1 -0.9 78.7544921875 -0.51328125 78.75 0 78.7544921875 0.51328125 79.1 0.85 79.48671875 1.2455078125 80 1.25
L 83 1.25
Q 83.51328125 1.2455078125 83.85 0.85 84.2455078125 0.51328125 84.25 0 84.2455078125 -0.51328125 83.85 -0.9 83.51328125 -1.2455078125 83 -1.25
L 80 -1.25
M 76 -1.25
L 73 -1.25
Q 72.48671875 -1.2455078125 72.1 -0.9 71.7544921875 -0.51328125 71.75 0 71.7544921875 0.51328125 72.1 0.85 72.48671875 1.2455078125 73 1.25
L 76 1.25
Q 76.51328125 1.2455078125 76.85 0.85 77.2455078125 0.51328125 77.25 0 77.2455078125 -0.51328125 76.85 -0.9 76.51328125 -1.2455078125 76 -1.25
M 69 -1.25
L 66 -1.25
Q 65.48671875 -1.2455078125 65.1 -0.9 64.7544921875 -0.51328125 64.75 0 64.7544921875 0.51328125 65.1 0.85 65.48671875 1.2455078125 66 1.25
L 69 1.25
Q 69.51328125 1.2455078125 69.85 0.85 70.2455078125 0.51328125 70.25 0 70.2455078125 -0.51328125 69.85 -0.9 69.51328125 -1.2455078125 69 -1.25
M 59 -1.25
Q 58.48671875 -1.2455078125 58.1 -0.9 57.7544921875 -0.51328125 57.75 0 57.7544921875 0.51328125 58.1 0.85 58.48671875 1.2455078125 59 1.25
L 62 1.25
Q 62.51328125 1.2455078125 62.85 0.85 63.2455078125 0.51328125 63.25 0 63.2455078125 -0.51328125 62.85 -0.9 62.51328125 -1.2455078125 62 -1.25
L 59 -1.25
M 55 -1.25
L 52 -1.25
Q 51.48671875 -1.2455078125 51.1 -0.9 50.7544921875 -0.51328125 50.75 0 50.7544921875 0.51328125 51.1 0.85 51.48671875 1.2455078125 52 1.25
L 55 1.25
Q 55.51328125 1.2455078125 55.85 0.85 56.2455078125 0.51328125 56.25 0 56.2455078125 -0.51328125 55.85 -0.9 55.51328125 -1.2455078125 55 -1.25
M 48 -1.25
L 45 -1.25
Q 44.48671875 -1.2455078125 44.1 -0.9 43.7544921875 -0.51328125 43.75 0 43.7544921875 0.51328125 44.1 0.85 44.48671875 1.2455078125 45 1.25
L 48 1.25
Q 48.51328125 1.2455078125 48.85 0.85 49.2455078125 0.51328125 49.25 0 49.2455078125 -0.51328125 48.85 -0.9 48.51328125 -1.2455078125 48 -1.25
M 38 -1.25
Q 37.48671875 -1.2455078125 37.1 -0.9 36.7544921875 -0.51328125 36.75 0 36.7544921875 0.51328125 37.1 0.85 37.48671875 1.2455078125 38 1.25
L 41 1.25
Q 41.51328125 1.2455078125 41.85 0.85 42.2455078125 0.51328125 42.25 0 42.2455078125 -0.51328125 41.85 -0.9 41.51328125 -1.2455078125 41 -1.25
L 38 -1.25
M 34 -1.25
L 31 -1.25
Q 30.48671875 -1.2455078125 30.1 -0.9 29.7544921875 -0.51328125 29.75 0 29.7544921875 0.51328125 30.1 0.85 30.48671875 1.2455078125 31 1.25
L 34 1.25
Q 34.51328125 1.2455078125 34.85 0.85 35.2455078125 0.51328125 35.25 0 35.2455078125 -0.51328125 34.85 -0.9 34.51328125 -1.2455078125 34 -1.25
M 27 -1.25
L 24 -1.25
Q 23.48671875 -1.2455078125 23.1 -0.9 22.7544921875 -0.51328125 22.75 0 22.7544921875 0.51328125 23.1 0.85 23.48671875 1.2455078125 24 1.25
L 27 1.25
Q 27.51328125 1.2455078125 27.85 0.85 28.2455078125 0.51328125 28.25 0 28.2455078125 -0.51328125 27.85 -0.9 27.51328125 -1.2455078125 27 -1.25
M 20 -1.25
L 17 -1.25
Q 16.48671875 -1.2455078125 16.1 -0.9 15.7544921875 -0.51328125 15.75 0 15.7544921875 0.51328125 16.1 0.85 16.48671875 1.2455078125 17 1.25
L 20 1.25
Q 20.51328125 1.2455078125 20.85 0.85 21.2455078125 0.51328125 21.25 0 21.2455078125 -0.51328125 20.85 -0.9 20.51328125 -1.2455078125 20 -1.25
M 10 -1.25
Q 9.48671875 -1.2455078125 9.1 -0.9 8.7544921875 -0.51328125 8.75 0 8.7544921875 0.51328125 9.1 0.85 9.48671875 1.2455078125 10 1.25
L 13 1.25
Q 13.51328125 1.2455078125 13.85 0.85 14.2455078125 0.51328125 14.25 0 14.2455078125 -0.51328125 13.85 -0.9 13.51328125 -1.2455078125 13 -1.25
L 10 -1.25
M 3 -1.25
Q 2.48671875 -1.2455078125 2.1 -0.9 1.7544921875 -0.51328125 1.75 0 1.7544921875 0.51328125 2.1 0.85 2.48671875 1.2455078125 3 1.25
L 6 1.25
Q 6.51328125 1.2455078125 6.85 0.85 7.2455078125 0.51328125 7.25 0 7.2455078125 -0.51328125 6.85 -0.9 6.51328125 -1.2455078125 6 -1.25
L 3 -1.25
M 1.25 -0.45
Q 1.2455078125 -0.96328125 0.85 -1.35 0.51328125 -1.6955078125 0 -1.7 -0.51328125 -1.6955078125 -0.9 -1.35 -0.9126953125 -1.28828125 -0.95 -1.25
L -3 -1.25
Q -3.51328125 -1.2455078125 -3.9 -0.9 -4.2455078125 -0.51328125 -4.25 0 -4.2455078125 0.51328125 -3.9 0.85 -3.51328125 1.2455078125 -3 1.25
L -1.25 1.25 -1.25 3
Q -1.2455078125 3.51328125 -0.9 3.85 -0.51328125 4.2455078125 0 4.25 0.51328125 4.2455078125 0.85 3.85 1.2455078125 3.51328125 1.25 3
L 1.25 -0.45
M 1.25 -7.45
Q 1.2455078125 -7.96328125 0.85 -8.35 0.51328125 -8.6955078125 0 -8.7 -0.51328125 -8.6955078125 -0.9 -8.35 -1.2455078125 -7.96328125 -1.25 -7.45
L -1.25 -4.45
Q -1.2455078125 -3.93671875 -0.9 -3.6 -0.51328125 -3.2044921875 0 -3.2 0.51328125 -3.2044921875 0.85 -3.6 1.2455078125 -3.93671875 1.25 -4.45
L 1.25 -7.45
M 1.25 -18.45
L 1.25 -21.45
Q 1.2455078125 -21.96328125 0.85 -22.35 0.51328125 -22.6955078125 0 -22.7 -0.51328125 -22.6955078125 -0.9 -22.35 -1.2455078125 -21.96328125 -1.25 -21.45
L -1.25 -18.45
Q -1.2455078125 -17.93671875 -0.9 -17.6 -0.51328125 -17.2044921875 0 -17.2 0.51328125 -17.2044921875 0.85 -17.6 1.2455078125 -17.93671875 1.25 -18.45
M 1.25 -14.45
Q 1.2455078125 -14.96328125 0.85 -15.35 0.51328125 -15.6955078125 0 -15.7 -0.51328125 -15.6955078125 -0.9 -15.35 -1.2455078125 -14.96328125 -1.25 -14.45
L -1.25 -11.45
Q -1.2455078125 -10.93671875 -0.9 -10.6 -0.51328125 -10.2044921875 0 -10.2 0.51328125 -10.2044921875 0.85 -10.6 1.2455078125 -10.93671875 1.25 -11.45
L 1.25 -14.45
M 0.85 -29.35
Q 0.51328125 -29.6955078125 0 -29.7 -0.51328125 -29.6955078125 -0.9 -29.35 -1.2455078125 -28.96328125 -1.25 -28.45
L -1.25 -25.45
Q -1.2455078125 -24.93671875 -0.9 -24.6 -0.51328125 -24.2044921875 0 -24.2 0.51328125 -24.2044921875 0.85 -24.6 1.2455078125 -24.93671875 1.25 -25.45
L 1.25 -28.45
Q 1.2455078125 -28.96328125 0.85 -29.35
M 0.85 -31.6
Q 1.2455078125 -31.93671875 1.25 -32.45
L 1.25 -35.45
Q 1.2455078125 -35.96328125 0.85 -36.35 0.51328125 -36.6955078125 0 -36.7 -0.51328125 -36.6955078125 -0.9 -36.35 -1.2455078125 -35.96328125 -1.25 -35.45
L -1.25 -32.45
Q -1.2455078125 -31.93671875 -0.9 -31.6 -0.51328125 -31.2044921875 0 -31.2 0.51328125 -31.2044921875 0.85 -31.6
M 1.25 -39.45
L 1.25 -42.45
Q 1.2455078125 -42.96328125 0.85 -43.35 0.51328125 -43.6955078125 0 -43.7 -0.51328125 -43.6955078125 -0.9 -43.35 -1.2455078125 -42.96328125 -1.25 -42.45
L -1.25 -39.45
Q -1.2455078125 -38.93671875 -0.9 -38.6 -0.51328125 -38.2044921875 0 -38.2 0.51328125 -38.2044921875 0.85 -38.6 1.2455078125 -38.93671875 1.25 -39.45
M 0.85 -50.35
Q 0.51328125 -50.6955078125 0 -50.7 -0.51328125 -50.6955078125 -0.9 -50.35 -1.2455078125 -49.96328125 -1.25 -49.45
L -1.25 -46.45
Q -1.2455078125 -45.93671875 -0.9 -45.6 -0.51328125 -45.2044921875 0 -45.2 0.51328125 -45.2044921875 0.85 -45.6 1.2455078125 -45.93671875 1.25 -46.45
L 1.25 -49.45
Q 1.2455078125 -49.96328125 0.85 -50.35
M 0.85 -52.6
Q 1.2455078125 -52.93671875 1.25 -53.45
L 1.25 -56.45
Q 1.2455078125 -56.96328125 0.85 -57.35 0.51328125 -57.6955078125 0 -57.7 -0.51328125 -57.6955078125 -0.9 -57.35 -1.2455078125 -56.96328125 -1.25 -56.45
L -1.25 -53.45
Q -1.2455078125 -52.93671875 -0.9 -52.6 -0.51328125 -52.2044921875 0 -52.2 0.51328125 -52.2044921875 0.85 -52.6
M 0.85 -66.6
Q 1.2455078125 -66.93671875 1.25 -67.45
L 1.25 -70.45
Q 1.2455078125 -70.96328125 0.85 -71.35 0.51328125 -71.6955078125 0 -71.7 -0.51328125 -71.6955078125 -0.9 -71.35 -1.2455078125 -70.96328125 -1.25 -70.45
L -1.25 -67.45
Q -1.2455078125 -66.93671875 -0.9 -66.6 -0.51328125 -66.2044921875 0 -66.2 0.51328125 -66.2044921875 0.85 -66.6
M 1.25 -63.45
Q 1.2455078125 -63.96328125 0.85 -64.35 0.51328125 -64.6955078125 0 -64.7 -0.51328125 -64.6955078125 -0.9 -64.35 -1.2455078125 -63.96328125 -1.25 -63.45
L -1.25 -60.45
Q -1.2455078125 -59.93671875 -0.9 -59.6 -0.51328125 -59.2044921875 0 -59.2 0.51328125 -59.2044921875 0.85 -59.6 1.2455078125 -59.93671875 1.25 -60.45
L 1.25 -63.45
M 0.85 -78.35
Q 0.51328125 -78.6955078125 0 -78.7 -0.51328125 -78.6955078125 -0.9 -78.35 -1.2455078125 -77.96328125 -1.25 -77.45
L -1.25 -74.45
Q -1.2455078125 -73.93671875 -0.9 -73.6 -0.51328125 -73.2044921875 0 -73.2 0.51328125 -73.2044921875 0.85 -73.6 1.2455078125 -73.93671875 1.25 -74.45
L 1.25 -77.45
Q 1.2455078125 -77.96328125 0.85 -78.35
M 0.85 -80.6
Q 1.2455078125 -80.93671875 1.25 -81.45
L 1.25 -84.45
Q 1.2455078125 -84.96328125 0.85 -85.35 0.51328125 -85.6955078125 0 -85.7 -0.51328125 -85.6955078125 -0.9 -85.35 -1.2455078125 -84.96328125 -1.25 -84.45
L -1.25 -81.45
Q -1.2455078125 -80.93671875 -0.9 -80.6 -0.51328125 -80.2044921875 0 -80.2 0.51328125 -80.2044921875 0.85 -80.6
M 0.85 -87.6
Q 1.2455078125 -87.93671875 1.25 -88.45
L 1.25 -91.45
Q 1.2455078125 -91.96328125 0.85 -92.35 0.51328125 -92.6955078125 0 -92.7 -0.51328125 -92.6955078125 -0.9 -92.35 -1.2455078125 -91.96328125 -1.25 -91.45
L -1.25 -88.45
Q -1.2455078125 -87.93671875 -0.9 -87.6 -0.51328125 -87.2044921875 0 -87.2 0.51328125 -87.2044921875 0.85 -87.6
M 0.85 -99.35
Q 0.51328125 -99.6955078125 0 -99.7 -0.51328125 -99.6955078125 -0.9 -99.35 -1.2455078125 -98.96328125 -1.25 -98.45
L -1.25 -95.45
Q -1.2455078125 -94.93671875 -0.9 -94.6 -0.51328125 -94.2044921875 0 -94.2 0.51328125 -94.2044921875 0.85 -94.6 1.2455078125 -94.93671875 1.25 -95.45
L 1.25 -98.45
Q 1.2455078125 -98.96328125 0.85 -99.35
M 0.85 -101.6
Q 1.2455078125 -101.93671875 1.25 -102.45
L 1.25 -105.45
Q 1.2455078125 -105.96328125 0.85 -106.35 0.51328125 -106.6955078125 0 -106.7 -0.51328125 -106.6955078125 -0.9 -106.35 -1.2455078125 -105.96328125 -1.25 -105.45
L -1.25 -102.45
Q -1.2455078125 -101.93671875 -0.9 -101.6 -0.51328125 -101.2044921875 0 -101.2 0.51328125 -101.2044921875 0.85 -101.6
M 1.25 -112.45
Q 1.2455078125 -112.96328125 0.85 -113.35 0.51328125 -113.6955078125 0 -113.7 -0.51328125 -113.6955078125 -0.9 -113.35 -1.2455078125 -112.96328125 -1.25 -112.45
L -1.25 -109.45
Q -1.2455078125 -108.93671875 -0.9 -108.6 -0.51328125 -108.2044921875 0 -108.2 0.51328125 -108.2044921875 0.85 -108.6 1.2455078125 -108.93671875 1.25 -109.45
L 1.25 -112.45
M 0.85 -120.35
Q 0.51328125 -120.6955078125 0 -120.7 -0.51328125 -120.6955078125 -0.9 -120.35 -1.2455078125 -119.96328125 -1.25 -119.45
L -1.25 -116.45
Q -1.2455078125 -115.93671875 -0.9 -115.6 -0.51328125 -115.2044921875 0 -115.2 0.51328125 -115.2044921875 0.85 -115.6 1.2455078125 -115.93671875 1.25 -116.45
L 1.25 -119.45
Q 1.2455078125 -119.96328125 0.85 -120.35
M 0.85 -127.35
Q 0.51328125 -127.6955078125 0 -127.7 -0.51328125 -127.6955078125 -0.9 -127.35 -1.2455078125 -126.96328125 -1.25 -126.45
L -1.25 -123.45
Q -1.2455078125 -122.93671875 -0.9 -122.6 -0.51328125 -122.2044921875 0 -122.2 0.51328125 -122.2044921875 0.85 -122.6 1.2455078125 -122.93671875 1.25 -123.45
L 1.25 -126.45
Q 1.2455078125 -126.96328125 0.85 -127.35 Z"/>
</g>

<g id="bdfbdbdn_1_Layer0_0_FILL">
<path fill="#4BAEF3" stroke="none" d="
M -165.95 -127.55
Q -176.45 -127.55 -176.45 -117.05
L -176.45 -97.05
Q -176.45 -86.55 -165.95 -86.55
L -142.15 -86.55
Q -131.65 -86.55 -131.65 -97.05
L -131.65 -117.05
Q -131.65 -127.55 -142.15 -127.55
L -165.95 -127.55
M -162.9 -112.3
Q -162.75 -112.9 -162.5 -113.4 -162.25 -113.9 -161.95 -114.35 -161.65 -114.75 -161.3 -115.1 -160.95 -115.45 -160.55 -115.7 -160.1 -115.9 -159.6 -116.05 -159.15 -116.15 -158.65 -116.15 -157.55 -116.15 -156.7 -115.7 -156.3 -115.45 -155.9 -115.1 -155.5 -114.75 -155.2 -114.35 -155.05 -114.15 -154.95 -113.9 -154.8 -113.65 -154.7 -113.4
L -152.45 -113.4 -152.45 -116.1
Q -152.45 -116.75 -152.05 -116.95 -151.85 -117.05 -151.6 -117.1 -151.4 -117.2 -151.15 -117.2 -150.85 -117.2 -150.6 -117.1 -150.3 -117.05 -150.1 -116.95 -149.7 -116.75 -149.7 -116.1
L -149.7 -99.1
Q -149.7 -98.85 -149.8 -98.6 -149.9 -98.4 -150.1 -98.25 -150.3 -98.15 -150.6 -98.05 -150.85 -98 -151.15 -98 -151.4 -98 -151.6 -98.05 -151.85 -98.15 -152.05 -98.25 -152.25 -98.4 -152.35 -98.6 -152.45 -98.85 -152.45 -99.1
L -152.45 -105.65 -154.6 -105.65
Q -154.75 -105.35 -154.9 -105.05 -155.05 -104.8 -155.2 -104.55 -155.85 -103.7 -156.7 -103.25 -157.55 -102.75 -158.65 -102.75 -159.15 -102.75 -159.6 -102.9 -160.1 -103 -160.55 -103.25 -160.95 -103.45 -161.3 -103.8 -161.65 -104.1 -161.95 -104.55 -162.25 -105 -162.5 -105.5 -162.75 -106 -162.9 -106.65 -163.1 -107.25 -163.15 -107.95 -163.25 -108.65 -163.25 -109.45 -163.25 -110.25 -163.15 -110.95 -163.1 -111.65 -162.9 -112.3
M -148.9 -116.5
Q -148.9 -116.8 -148.8 -117 -148.7 -117.2 -148.5 -117.35 -148.35 -117.45 -148.1 -117.5 -147.9 -117.6 -147.65 -117.6 -147.35 -117.6 -147.05 -117.5 -146.8 -117.45 -146.6 -117.35 -146.4 -117.2 -146.3 -117 -146.2 -116.8 -146.2 -116.5
L -146.2 -98.5
Q -146.2 -97.9 -146.6 -97.65 -146.8 -97.55 -147.05 -97.5 -147.35 -97.45 -147.65 -97.45 -147.9 -97.45 -148.1 -97.5 -148.35 -97.55 -148.5 -97.65 -148.9 -97.9 -148.9 -98.5
L -148.9 -116.5
M -154 -110.15
Q -154 -109.8 -154 -109.45 -154 -109.15 -154 -108.85 -154 -108.55 -154.05 -108.25
L -152.45 -108.25 -152.45 -110.85 -154.05 -110.85
Q -154.05 -110.5 -154 -110.15
M -159.45 -113.3
Q -159.8 -113 -160.05 -112.5 -160.55 -111.4 -160.55 -109.45 -160.55 -108.5 -160.45 -107.75 -160.3 -107 -160.05 -106.45 -159.8 -105.9 -159.45 -105.65 -159.05 -105.35 -158.6 -105.35 -158.2 -105.35 -157.85 -105.65 -157.5 -105.9 -157.2 -106.45 -156.95 -107 -156.85 -107.75 -156.7 -108.5 -156.7 -109.45 -156.7 -110.4 -156.85 -111.2 -156.95 -111.95 -157.2 -112.5 -157.5 -113 -157.85 -113.3 -158.2 -113.55 -158.6 -113.55 -159.05 -113.55 -159.45 -113.3 Z"/>

<path fill="#FFFFFF" stroke="none" d="
M -148.8 -117
Q -148.9 -116.8 -148.9 -116.5
L -148.9 -98.5
Q -148.9 -97.9 -148.5 -97.65 -148.35 -97.55 -148.1 -97.5 -147.9 -97.45 -147.65 -97.45 -147.35 -97.45 -147.05 -97.5 -146.8 -97.55 -146.6 -97.65 -146.2 -97.9 -146.2 -98.5
L -146.2 -116.5
Q -146.2 -116.8 -146.3 -117 -146.4 -117.2 -146.6 -117.35 -146.8 -117.45 -147.05 -117.5 -147.35 -117.6 -147.65 -117.6 -147.9 -117.6 -148.1 -117.5 -148.35 -117.45 -148.5 -117.35 -148.7 -117.2 -148.8 -117
M -162.5 -113.4
Q -162.75 -112.9 -162.9 -112.3 -163.1 -111.65 -163.15 -110.95 -163.25 -110.25 -163.25 -109.45 -163.25 -108.65 -163.15 -107.95 -163.1 -107.25 -162.9 -106.65 -162.75 -106 -162.5 -105.5 -162.25 -105 -161.95 -104.55 -161.65 -104.1 -161.3 -103.8 -160.95 -103.45 -160.55 -103.25 -160.1 -103 -159.6 -102.9 -159.15 -102.75 -158.65 -102.75 -157.55 -102.75 -156.7 -103.25 -155.85 -103.7 -155.2 -104.55 -155.05 -104.8 -154.9 -105.05 -154.75 -105.35 -154.6 -105.65
L -152.45 -105.65 -152.45 -99.1
Q -152.45 -98.85 -152.35 -98.6 -152.25 -98.4 -152.05 -98.25 -151.85 -98.15 -151.6 -98.05 -151.4 -98 -151.15 -98 -150.85 -98 -150.6 -98.05 -150.3 -98.15 -150.1 -98.25 -149.9 -98.4 -149.8 -98.6 -149.7 -98.85 -149.7 -99.1
L -149.7 -116.1
Q -149.7 -116.75 -150.1 -116.95 -150.3 -117.05 -150.6 -117.1 -150.85 -117.2 -151.15 -117.2 -151.4 -117.2 -151.6 -117.1 -151.85 -117.05 -152.05 -116.95 -152.45 -116.75 -152.45 -116.1
L -152.45 -113.4 -154.7 -113.4
Q -154.8 -113.65 -154.95 -113.9 -155.05 -114.15 -155.2 -114.35 -155.5 -114.75 -155.9 -115.1 -156.3 -115.45 -156.7 -115.7 -157.55 -116.15 -158.65 -116.15 -159.15 -116.15 -159.6 -116.05 -160.1 -115.9 -160.55 -115.7 -160.95 -115.45 -161.3 -115.1 -161.65 -114.75 -161.95 -114.35 -162.25 -113.9 -162.5 -113.4
M -160.05 -112.5
Q -159.8 -113 -159.45 -113.3 -159.05 -113.55 -158.6 -113.55 -158.2 -113.55 -157.85 -113.3 -157.5 -113 -157.2 -112.5 -156.95 -111.95 -156.85 -111.2 -156.7 -110.4 -156.7 -109.45 -156.7 -108.5 -156.85 -107.75 -156.95 -107 -157.2 -106.45 -157.5 -105.9 -157.85 -105.65 -158.2 -105.35 -158.6 -105.35 -159.05 -105.35 -159.45 -105.65 -159.8 -105.9 -160.05 -106.45 -160.3 -107 -160.45 -107.75 -160.55 -108.5 -160.55 -109.45 -160.55 -111.4 -160.05 -112.5
M -154 -109.45
Q -154 -109.8 -154 -110.15 -154.05 -110.5 -154.05 -110.85
L -152.45 -110.85 -152.45 -108.25 -154.05 -108.25
Q -154 -108.55 -154 -108.85 -154 -109.15 -154 -109.45 Z"/>
</g>

<path id="bdfbdbdn_1_Layer1_0_1_STROKES" stroke="#EA5B70" stroke-width="3" stroke-linejoin="round" stroke-linecap="butt" fill="none" d="
M 119.05 -0.05
L 127.6 -0.05
Q 127.6 -52.85 90.25 -90.2 52.9 -127.55 0.1 -127.55
L 0.1 -119.15
M 0.1 119.05
L 0.1 127.6
Q 52.9 127.6 90.25 90.25 127.6 52.75 127.6 -0.05
M 0.1 127.6
Q -52.7 127.6 -90.2 90.25 -127.55 52.9 -127.55 -0.05 -127.55 -52.85 -90.2 -90.2 -52.7 -127.55 0.1 -127.55
M -119 -0.05
L -127.55 -0.05"/>
</defs>

<g transform="matrix( 1, 0, 0, 1, 663.65,159.95) ">
<g transform="matrix( 1, 0, 0, 1, 0,0) ">
<use xlink:href="#bdfbdbdn_1_Layer4_0_FILL"/>
</g>

<g transform="matrix( 1, 0, 0, 1, 0,0) ">
<use xlink:href="#bdfbdbdn_1_Layer3_0_FILL"/>
</g>

<g transform="matrix( 1, 0, 0, 1, 0,0) ">
<use xlink:href="#bdfbdbdn_1_Layer2_0_STROKES_1_FILL"/>
</g>

<g transform="matrix( 1, 0, 0, 1, 0,0) ">
<use xlink:href="#bdfbdbdn_1_Layer1_0_1_STROKES"/>
</g>

<g transform="matrix( 1, 0, 0, 1, 0,0) ">
<use xlink:href="#bdfbdbdn_1_Layer0_0_FILL"/>
</g>
</g>
</svg>
