<?xml version="1.0" encoding="utf-8"?>
<!-- Generator: Adobe Illustrator 23.0.0, SVG Export Plug-In . SVG Version: 6.00 Build 0)  -->
<svg version="1.1" id="레이어_1" xmlns="http://www.w3.org/2000/svg" xmlns:xlink="http://www.w3.org/1999/xlink" x="0px"
	 y="0px" width="102px" height="75.5px" viewBox="0 0 102 75.5" style="enable-background:new 0 0 102 75.5;" xml:space="preserve">
<path style="fill:#FFFFFF;stroke:#000000;stroke-width:2;stroke-linecap:round;stroke-linejoin:round;" d="M63,73.1
	c6.1-0.3,12.1-1.4,17.8-3.2c7.4-2.6,14.4-7.6,17.4-17.7c0.8-2.7,1.3-5.6,1.4-8.4c0.1-4.9-0.1-9.8-0.6-14.7
	c-3.4-31.7-49.7-27-49.7-27C17.7,2.7,9.3,16.1,9.3,41c0,9.8,3,19.4,9.5,25.1c4.8,4.2,10.5,5.9,16.1,6.6c1.6,0.2,3.3,0.4,4.9,0.5
	c7,0.4,14,0.4,20.9,0C61.5,73.2,62.3,73.1,63,73.1z"/>
<path style="fill:#FFFFFF;stroke:#000000;stroke-width:2;stroke-linecap:round;stroke-miterlimit:10;" d="M12.6,53.2
	c-1.8,3.7-4.3,7-7.2,9.9c0,0-6.9,5.1-0.3,5.8c5.5,0.6,11.1-0.8,15.7-4"/>
<path d="M24.3,26.4c0.6,0.1,0.9,0.4,0.9,0.9c0,1.1,0.1,2.3,0.1,3.6s0,2.8,0,4.2c0,1.5,0,2.9,0,4.3s0,2.7-0.1,3.9c0,0.4,0,0.7,0,1
	c0,0.3,0,0.5-0.1,0.7c-0.1,0.2-0.2,0.4-0.4,0.5c-0.3,0.1-0.6,0.2-0.9,0.2c-0.3,0-0.6,0-0.9-0.1c-0.2-0.1-0.3-0.3-0.3-0.5
	c-0.1-0.3-0.1-0.5-0.1-0.8c0-0.3,0-0.7,0-1.1c0-1-0.1-2-0.1-3.2s0-2.4,0-3.6c0-1.2,0-2.4,0-3.6s0-2.3-0.1-3.3
	c-0.2,0.1-0.5,0.3-0.9,0.6c-0.4,0.2-0.8,0.5-1.2,0.8c-0.4,0.3-0.9,0.5-1.3,0.8c-0.4,0.2-0.8,0.4-1.1,0.6c-0.2,0.1-0.5,0.2-0.8,0.2
	c-0.3-0.1-0.5-0.2-0.7-0.5c-0.2-0.3-0.2-0.6-0.2-0.9c0-0.3,0.1-0.5,0.3-0.7c0.3-0.2,0.7-0.5,1.2-0.8s1-0.7,1.5-1s1-0.7,1.5-1
	s0.9-0.6,1.2-0.8c0.3-0.2,0.7-0.4,1.1-0.4C23.3,26.3,23.8,26.4,24.3,26.4z"/>
<path d="M34.7,26.4c0.6,0.1,0.9,0.4,0.9,0.9c0,1.1,0.1,2.3,0.1,3.6s0,2.8,0,4.2c0,1.5,0,2.9,0,4.3s0,2.7-0.1,3.9c0,0.4,0,0.7,0,1
	c0,0.3,0,0.5-0.1,0.7c-0.1,0.2-0.2,0.4-0.4,0.5c-0.3,0.1-0.6,0.2-0.9,0.2c-0.3,0-0.6,0-0.9-0.1c-0.2-0.1-0.3-0.3-0.3-0.5
	C33,45,33,44.7,33,44.5c0-0.3,0-0.7,0-1.1c0-1-0.1-2-0.1-3.2s0-2.4,0-3.6c0-1.2,0-2.4,0-3.6s0-2.3-0.1-3.3c-0.2,0.1-0.5,0.3-0.9,0.6
	c-0.4,0.2-0.8,0.5-1.2,0.8c-0.4,0.3-0.9,0.5-1.3,0.8s-0.8,0.4-1.1,0.6c-0.2,0.1-0.5,0.2-0.8,0.2c-0.3-0.1-0.5-0.2-0.7-0.5
	c-0.2-0.3-0.2-0.6-0.2-0.9c0-0.3,0.1-0.5,0.3-0.7c0.3-0.2,0.7-0.5,1.2-0.8s1-0.7,1.5-1s1-0.7,1.5-1s0.9-0.6,1.2-0.8
	c0.3-0.2,0.7-0.4,1.1-0.4C33.8,26.3,34.3,26.4,34.7,26.4z"/>
<path d="M50.2,40.2c-0.6,0-1.2,0-1.8,0.1c0,0.4-0.1,0.7-0.1,1.1c0,0.4,0,0.8,0,1.2s0,0.7,0,1.1s0,0.6,0,0.9c0,0.4-0.1,0.9-0.3,1.2
	c-0.3,0.2-0.7,0.3-1,0.3c-0.3,0.1-0.7-0.1-0.9-0.3c-0.2-0.4-0.2-0.8-0.2-1.2v-0.9c0-0.3,0-0.7,0-1.1c0-0.4,0-0.7,0-1.1v-1
	c-0.6,0-1.1,0.1-1.7,0.1s-1.1,0.1-1.6,0.1c-0.5,0-0.9,0-1.3,0.1c-0.4,0-0.7,0-0.9,0c-0.7,0-1.5-0.2-2-0.7c-0.5-0.5-0.8-1.3-0.7-2
	c0-0.6,0-1.3,0.1-2.1s0.1-1.7,0.2-2.6c0.1-0.9,0.1-1.8,0.2-2.7s0.1-1.7,0.2-2.5c0.1-0.9,0.5-1.3,1.3-1.3c0.4-0.1,0.8,0.1,1.1,0.3
	c0.2,0.3,0.3,0.7,0.2,1c0,0.1,0,0.3-0.1,0.8s-0.1,1-0.1,1.7s-0.1,1.4-0.1,2.2s-0.1,1.5-0.1,2.2s-0.1,1.3-0.1,1.7s0,0.8,0,0.9
	c0,0.3,0,0.5,0.1,0.6c0.2,0.1,0.4,0.1,0.6,0.1c0.2,0,0.4,0,0.9,0l1.4,0l1.5,0c0.5,0,0.9,0,1.2,0c0.1-1.6,0.1-3.3,0.2-5.1
	c0.1-1.8,0.1-3.4,0.2-4.9c0-0.4,0.1-0.7,0.3-1c0.2-0.2,0.5-0.3,1.1-0.3c0.2,0,0.5,0,0.7,0.1c0.2,0,0.3,0.1,0.4,0.3
	c0.1,0.1,0.1,0.3,0.1,0.5c0,0.2,0,0.4,0,0.7c0,0.3,0,0.8,0,1.5S49,31.1,48.9,32s-0.1,1.8-0.1,2.9s-0.1,2-0.2,3l1.8-0.1
	c0.6,0,1,0,1.3,0c0.2,0,0.5,0,0.7,0.1c0.2,0.1,0.2,0.3,0.2,0.8c0.1,0.4,0,0.8-0.3,1.1c-0.2,0.2-0.5,0.3-0.7,0.3
	C51.3,40.1,50.8,40.1,50.2,40.2z"/>
<path d="M63.3,31c0,0.7,0,1.4,0,2c0.6,0.3,1.2,0.6,1.9,1s1.4,0.7,2.1,1.1c0.7,0.4,1.4,0.7,2,1l1.7,0.8c0.2,0.1,0.4,0.3,0.4,0.6
	c0,0.3,0,0.6-0.2,0.9c-0.1,0.3-0.4,0.6-0.8,0.7c-0.3,0.1-0.6,0-0.9-0.1l-1.6-0.7c-0.6-0.3-1.3-0.6-2-1c-0.7-0.3-1.4-0.7-2.1-1
	c-0.7-0.3-1.2-0.6-1.7-0.9c-0.4,0.4-1,0.8-1.5,1.2s-1.1,0.9-1.7,1.3c-0.6,0.4-1.1,0.8-1.7,1.2s-1,0.7-1.5,1
	c-0.5,0.4-1.2,0.3-1.6-0.2c0,0-0.1-0.1-0.1-0.1c-0.4-0.6-0.4-1,0-1.4c0.5-0.4,1-0.8,1.6-1.2s1.1-0.9,1.7-1.3
	c0.6-0.4,1.1-0.9,1.7-1.3c0.5-0.4,1-0.8,1.5-1.2c0-0.3,0-0.6,0-0.9c0-0.3,0-0.7,0-1.1s0-0.7,0-1.1s0-0.7,0-1
	c-1.2,0.1-2.3,0.1-3.3,0.1l-2.2,0.1c-0.3,0-0.5-0.1-0.7-0.3c-0.2-0.3-0.3-0.6-0.3-0.9c0-0.3,0-0.7,0.2-0.9c0.2-0.2,0.4-0.3,0.6-0.3
	c0.4,0,1.1,0,1.9-0.1s1.7-0.1,2.8-0.1s2.1-0.1,3.2-0.1s2.1-0.1,3.2-0.1s1.9-0.1,2.7-0.1s1.4,0,1.9-0.1c0.3,0,0.6,0,0.8,0.2
	c0.2,0.3,0.3,0.6,0.3,0.9c0,0.8-0.3,1.2-1,1.3c-0.3,0-0.7,0-1.1,0.1s-1,0.1-1.6,0.1s-1.3,0.1-2,0.1S64,29,63.3,29
	C63.3,29.6,63.3,30.3,63.3,31z M71.4,44.8c-0.2,0.2-0.4,0.3-0.7,0.3c-2.5,0.2-5,0.4-7.6,0.5c-2.6,0.1-5.2,0.3-7.9,0.3
	c-0.7,0-1-0.4-1-1.2c0-0.3,0.1-0.6,0.2-0.9c0.2-0.2,0.5-0.3,0.8-0.3c1.9-0.1,3.7-0.1,5.5-0.2c0-0.6-0.1-1.2-0.1-1.8
	c0-0.6,0-1.2,0-1.7c-0.1-0.4,0-0.7,0.2-1c0.3-0.2,0.7-0.3,1-0.3c0.4-0.1,0.8,0,1.1,0.2c0.2,0.3,0.4,0.6,0.4,1c0,0.5,0,1,0.1,1.7
	s0,1.3,0.1,1.8l3.6-0.2c1.2-0.1,2.3-0.1,3.5-0.1c0.3,0,0.5,0.1,0.7,0.3c0.1,0.2,0.2,0.5,0.2,0.8C71.6,44.3,71.6,44.6,71.4,44.8
	L71.4,44.8z"/>
<path d="M84.5,37.5c0,0.3-0.2,0.7-0.4,0.9c-0.3,0.2-0.6,0.3-0.9,0.2c-0.6,0-1.1-0.4-1.1-1c0,0,0-0.1,0-0.1c0-0.2,0-0.6,0-1
	c0-0.5,0-1,0-1.6c0-0.6,0-1.3,0-2c0-0.7,0-1.4,0-2c0-0.6,0-1.2,0-1.7V28c-0.6,0-1.3,0.1-2,0.1c-0.7,0-1.4,0-2.2,0l-2.2,0
	c-0.7,0-1.4,0-2.1,0c-0.7,0-1-0.4-1-1.2c0-0.3,0.1-0.6,0.3-0.8c0.2-0.2,0.4-0.3,0.7-0.3c1.7-0.1,3.5-0.2,5.3-0.2s3.5-0.1,5.1-0.1
	c0.3,0,0.5,0.1,0.7,0.2c0.1,0.2,0.2,0.5,0.2,0.8c0,0.4,0,0.8,0,1.4s0,1.2,0,1.9s0,1.4,0,2.2s0,1.5-0.1,2.2s-0.1,1.3-0.1,1.9
	S84.6,37.1,84.5,37.5z M90,48.1c0,0.3-0.2,0.7-0.4,0.9c-0.3,0.2-0.6,0.3-0.9,0.2c-0.3,0-0.6-0.1-0.8-0.3c-0.2-0.2-0.2-0.5-0.2-0.8
	c0-0.3,0-0.7,0-1.2c0-0.5,0-1,0-1.6c0-0.6,0-1.1,0-1.6c0-0.5,0-1,0-1.4c-0.6,0-1.4,0.1-2.3,0.1c-0.9,0-1.8,0.1-2.8,0.1l-2.8,0.1
	c-0.9,0-1.7,0-2.4,0c-0.7,0-1-0.4-1-1.2c0-0.3,0.1-0.6,0.3-0.8c0.2-0.2,0.4-0.3,0.7-0.3c0.8-0.1,1.8-0.1,2.9-0.2s2.2-0.1,3.3-0.1
	c1.1,0,2.2-0.1,3.2-0.1s2,0,2.8,0c0.3,0,0.5,0.1,0.7,0.2c0.1,0.2,0.2,0.5,0.2,0.8c0,0.5,0,1.1,0,1.7s0,1.3-0.1,1.9
	c0,0.7-0.1,1.3-0.1,1.9S90,47.6,90,48.1L90,48.1z M90.8,29.1c0,0.7,0,1.4,0,2.1c0.5,0,1,0,1.5,0h1c0.3,0,0.6,0.1,0.8,0.2
	c0.2,0.2,0.3,0.5,0.2,0.8c0,0.3,0,0.6-0.2,0.9c-0.1,0.2-0.4,0.4-0.7,0.4c-0.2,0-0.6,0-1.1,0s-1,0-1.6,0c0,0.9,0,1.7-0.1,2.4
	c0,0.7-0.1,1.3-0.1,1.7c0,0.4-0.1,0.8-0.4,1c-0.3,0.2-0.6,0.2-0.9,0.2c-0.3,0-0.6-0.1-0.9-0.3c-0.3-0.3-0.4-0.7-0.3-1
	c0-0.4,0-1,0-1.8c0-0.8,0-1.7,0-2.6c0-1,0-2,0-3.1s0-2.1,0-3.1c0-0.4,0.1-0.7,0.3-1c0.3-0.2,0.7-0.3,1.1-0.3c0.9,0,1.4,0.5,1.3,1.4
	C90.8,27.7,90.8,28.4,90.8,29.1L90.8,29.1z"/>
</svg>
