
<svg xmlns="http://www.w3.org/2000/svg" version="1.1" xmlns:xlink="http://www.w3.org/1999/xlink" preserveAspectRatio="none" x="0px" y="0px" width="1280px" height="720px" viewBox="0 0 1280 720">
<defs>
<g id="Layer0_0_FILL">
<path fill="#1E1E1E" stroke="none" d="
M 1154.1 435.7
L 1154.1 438.45
Q 1154.1 438.95 1154.7 438.95
L 1163.55 438.95
Q 1164.35 438.95 1164.55 439.25 1164.75 439.55 1164.7 440.4 1164.65 442.35 1163.8 444.7 1162.95 447 1161.4 449.3 1159.9 451.55 1157.7 453.7 1155.5 455.85 1152.8 457.5 1152.6 457.65 1152.45 457.95 1152.3 458.25 1152.55 458.6
L 1154.15 460.85
Q 1154.35 461.1 1154.7 461.05 1155 461 1155.35 460.85 1158.45 458.8 1161.05 456.3 1163.6 453.8 1165.4 450.9 1167.2 448 1168.2 444.75 1169.2 441.55 1169.25 438.05 1169.3 436.5 1168.7 435.85 1168.05 435.2 1166.3 435.2
L 1154.7 435.2
Q 1154.5 435.2 1154.3 435.35 1154.1 435.5 1154.1 435.7
M 1177.1 433.3
Q 1177.1 432.8 1176.55 432.8
L 1173.3 432.8
Q 1172.75 432.8 1172.75 433.3
L 1172.75 468
Q 1172.75 468.55 1173.3 468.55
L 1176.55 468.55
Q 1177.1 468.55 1177.1 468
L 1177.1 450.6 1180.8 450.6 1180.8 469.5
Q 1180.8 470.05 1181.3 470.05
L 1184.8 470.05
Q 1185.35 470.05 1185.35 469.5
L 1185.35 432.6
Q 1185.35 432.05 1184.8 432.05
L 1181.35 432.05
Q 1180.8 432.05 1180.8 432.6
L 1180.8 446.75 1177.1 446.75 1177.1 433.3 Z"/>

<path fill="#FFFFFF" stroke="none" d="
M 1141.95 434.9
Q 1141.95 428.25 1139 424.55 1135.3 419.9 1126.95 419.9
L 1100 419.9 1099 419.9 1003.95 419.9
Q 988.95 419.9 988.95 434.9
L 988.95 464.95
Q 988.95 479.95 1003.95 479.95
L 1126.95 479.95
Q 1135.3 479.95 1139 475.3 1141.95 471.6 1141.95 464.95
L 1141.95 434.9 Z"/>
</g>

<path id="Layer0_0_1_STROKES" stroke="#DBDBDB" stroke-width="3" stroke-linejoin="round" stroke-linecap="round" fill="none" d="
M 1100 419.9
L 1126.95 419.9
Q 1135.3 419.9 1139 424.55 1141.95 428.25 1141.95 434.9
L 1141.95 464.95
Q 1141.95 471.6 1139 475.3 1135.3 479.95 1126.95 479.95
L 1003.95 479.95
Q 988.95 479.95 988.95 464.95
L 988.95 434.9
Q 988.95 419.9 1003.95 419.9
L 1099 419.9"/>
</defs>

<g transform="matrix( 1, 0, 0, 1, 0,0) ">
<use xlink:href="#Layer0_0_FILL"/>

<use xlink:href="#Layer0_0_1_STROKES"/>
</g>
</svg>
