<?xml version="1.0" encoding="utf-8"?>
<!-- Generator: Adobe Illustrator 23.0.0, SVG Export Plug-In . SVG Version: 6.00 Build 0)  -->
<svg version="1.1" id="레이어_1" xmlns="http://www.w3.org/2000/svg" xmlns:xlink="http://www.w3.org/1999/xlink" x="0px"
	 y="0px" width="1000px" height="374.7px" viewBox="0 0 1000 374.7" style="enable-background:new 0 0 1000 374.7;"
	 xml:space="preserve">
<g>
	<rect x="228.7" y="189.1" style="fill:#E4007F;" width="544.6" height="3.5"/>
	<g>
		<path d="M233.7,190.9c0,2.8-2.2,5-5,5s-5-2.2-5-5s2.2-5,5-5S233.7,188.1,233.7,190.9"/>
		<path d="M778.3,190.9c0,2.8-2.2,5-5,5s-5-2.2-5-5s2.2-5,5-5S778.3,188.1,778.3,190.9"/>
		<path d="M686.8,190.9c0,2.8-2.2,5-5,5s-5-2.2-5-5s2.2-5,5-5S686.8,188.1,686.8,190.9"/>
	</g>
	<g>
		<path d="M160.7,49c0,0.9,0,2,0,3.1c1.3,0.8,2.6,1.5,3.8,2.3c1.2,0.7,2.3,1.4,3.4,2c0.4,0.2,0.6,0.5,0.6,0.9
			c0.1,0.3-0.1,0.7-0.3,1.1c-0.3,0.4-0.5,0.7-0.8,0.8s-0.6,0.1-1-0.1c-1-0.5-2.1-1.1-3.3-1.8s-2.5-1.4-3.9-2.2c-0.5,0.5-1,1-1.5,1.6
			c-0.5,0.5-1.1,1.1-1.6,1.6s-1.1,1-1.6,1.5s-1,0.9-1.4,1.3c-0.3,0.3-0.7,0.4-1.1,0.3c-0.4-0.1-0.8-0.3-1.1-0.7s-0.4-0.7-0.3-1
			c0.1-0.3,0.2-0.6,0.5-0.9c0.4-0.4,0.9-0.9,1.5-1.5c0.5-0.6,1.1-1.1,1.6-1.7c0.5-0.6,1.1-1.1,1.6-1.7c0.5-0.6,1-1.1,1.4-1.5
			c0-1.2-0.1-2.2-0.1-3.1c0-0.9-0.1-1.9-0.1-2.9c-1.3,0.1-2.5,0.1-3.5,0.2c-1.1,0.1-1.9,0.1-2.6,0.1c-0.4,0-0.7-0.1-1-0.3
			s-0.4-0.6-0.4-1.2c0-0.6,0.1-1,0.3-1.2c0.2-0.3,0.5-0.4,0.9-0.4c0.6,0,1.3-0.1,2.2-0.1s1.8-0.1,2.9-0.1c1,0,2.1-0.1,3.2-0.1
			c1.1,0,2.2-0.1,3.2-0.1s2-0.1,2.8-0.1c0.9,0,1.6-0.1,2.2-0.1c0.5,0,0.8,0.1,1,0.2c0.2,0.2,0.3,0.5,0.4,1.1c0,1.1-0.4,1.6-1.3,1.7
			c-0.7,0-1.6,0.1-2.7,0.2c-1.1,0.1-2.4,0.1-3.7,0.2C160.7,47.1,160.7,48.1,160.7,49z M173.9,70.9c-0.3,0.9-0.9,1.7-1.6,2.3
			c-0.7,0.7-1.6,1.2-2.6,1.6s-2.2,0.6-3.5,0.7c-1.3,0-2.5-0.1-3.5-0.4s-1.9-0.8-2.5-1.4s-1.2-1.4-1.6-2.3c-0.4-0.9-0.5-1.9-0.5-3
			c0-0.9,0.2-1.9,0.5-2.7c0.3-0.9,0.8-1.7,1.5-2.4s1.5-1.3,2.5-1.7s2.2-0.7,3.5-0.8s2.4,0,3.4,0.4c1,0.3,1.9,0.8,2.6,1.4
			c0.7,0.6,1.3,1.4,1.6,2.3c0.4,0.9,0.6,1.9,0.7,3C174.4,69,174.3,70,173.9,70.9z M169.7,71.2c0.4-0.4,0.7-0.9,0.9-1.4
			c0.2-0.6,0.3-1.1,0.3-1.8c0-1.3-0.5-2.4-1.4-3.1s-2-1.1-3.4-1c-0.7,0-1.4,0.2-1.9,0.4c-0.6,0.2-1,0.6-1.4,1s-0.7,0.9-0.9,1.4
			s-0.3,1.1-0.3,1.7c0,1.3,0.4,2.4,1.2,3.1c0.8,0.8,1.9,1.1,3.3,1.1c0.8,0,1.4-0.2,2-0.4C168.8,71.9,169.3,71.6,169.7,71.2z
			 M174.7,47.7c0,0.8,0,1.6,0,2.4c0.6,0,1.2,0,1.7,0s1,0,1.2,0c0.5,0,0.8,0.1,1,0.3s0.3,0.6,0.3,1.1s-0.1,0.9-0.2,1.3
			c-0.1,0.3-0.4,0.5-0.9,0.5c-0.3,0-0.7,0-1.3,0.1c-0.6,0-1.2,0-1.9,0c0,1.3-0.1,2.4-0.1,3.5s-0.1,1.9-0.2,2.5
			c-0.1,0.7-0.3,1.1-0.6,1.3S173,61,172.5,61s-0.9-0.1-1.2-0.4c-0.3-0.2-0.4-0.7-0.4-1.4c0-0.5,0-1.3,0-2.3s0-2.2,0-3.4
			c0-1.3,0-2.6,0.1-4c0-1.4,0-2.8,0.1-4.1c0-0.6,0.1-1.1,0.4-1.4c0.3-0.3,0.8-0.4,1.4-0.4c1.2,0,1.8,0.6,1.8,1.9
			C174.7,46.1,174.7,46.9,174.7,47.7z"/>
		<path d="M195.8,65.8c-0.2,0.2-0.5,0.3-1,0.4c-0.4,0-0.9,0.1-1.5,0.1c-0.7,0-1.4,0.1-2.2,0.1s-1.6,0-2.5,0.1c-0.9,0-1.7,0-2.5,0.1
			s-1.5,0-2.2,0.1c-0.7,0-1.1,0-1.5,0c-0.7,0-1.2-0.2-1.6-0.6c-0.4-0.4-0.6-1-0.6-1.7c0-1.5-0.1-3-0.1-4.5S180,57,180,55.6
			c0-1.4,0-2.9,0-4.4s0-3,0-4.6c0-1,0.4-1.5,1.3-1.6c0.4,0,1,0,1.7-0.1c0.7,0,1.5,0,2.3-0.1c0.8,0,1.7,0,2.7-0.1
			c0.9,0,1.8,0,2.7-0.1c0.9,0,1.6,0,2.4,0s1.3,0,1.8,0c0.8,0,1.2,0.4,1.2,1.2c0,3.2,0.1,6.3,0.1,9.5s0,6.3-0.1,9.4
			C196,65.2,196,65.6,195.8,65.8z M192.1,63.1c0.3,0,0.4-0.2,0.4-0.5c0-0.9,0-2,0-3.3s0-2.6-0.1-3.9c0-1.3,0-2.7-0.1-4
			c0-1.3,0-2.5-0.1-3.6l-8.7,0.3c0,1.2,0,2.4,0,3.7s0,2.6,0,4c0,1.3,0,2.7,0,4s0,2.5,0,3.6L192.1,63.1z M204.2,69.2
			c0,0.7-0.2,1.2-0.5,1.4c-0.3,0.3-0.7,0.4-1.2,0.3c-0.5,0-0.9-0.2-1.1-0.6c-0.2-0.3-0.4-0.9-0.4-1.6c0-7.9,0.1-15.7,0.4-23.4
			c0-0.6,0.2-1.1,0.5-1.4c0.3-0.3,0.8-0.4,1.5-0.4c1.2,0,1.8,0.6,1.8,1.9c0,1.9-0.1,3.9-0.1,6c0,2-0.1,4.1-0.2,6.1
			c-0.1,2-0.2,4-0.3,6C204.4,65.5,204.3,67.4,204.2,69.2z"/>
		<path d="M222.1,58.7c-1-0.1-1.4-0.6-1.5-1.5c0-0.3,0-0.7,0-1.3s0-1.2,0-1.9s0-1.5,0-2.3s0-1.6,0-2.3s0-1.4,0-2s0-1.1,0-1.4
			c-0.8,0-1.7,0.1-2.7,0.1s-1.9,0-2.9,0.1c-1,0-2,0-2.9,0c-1,0-1.9,0-2.8,0c-0.5,0-0.8-0.1-1-0.4c-0.2-0.2-0.3-0.6-0.3-1.2
			c0-0.5,0.1-0.8,0.4-1.1c0.3-0.2,0.6-0.3,0.9-0.4c2.3-0.1,4.6-0.2,7.1-0.3c2.4-0.1,4.7-0.1,6.9-0.1c0.5,0,0.8,0.1,0.9,0.3
			c0.2,0.2,0.2,0.6,0.2,1c0,0.7,0,1.7,0,2.9s-0.1,2.4-0.1,3.7s-0.1,2.5-0.1,3.7c-0.1,1.2-0.1,2.1-0.2,2.8c-0.1,0.5-0.3,0.9-0.6,1.2
			C223,58.6,222.6,58.7,222.1,58.7z M225.6,65.9c1.2,0,2.2-0.1,3.1-0.1c0-0.4,0-0.9,0-1.4s0-1,0-1.4c-1,0-2.1,0.1-3.3,0.1
			s-2.4,0.1-3.6,0.1c-1.2,0-2.4,0.1-3.5,0.1c-1.2,0-2.2,0.1-3.3,0.1c-0.4,0-0.6-0.1-0.8-0.3s-0.3-0.6-0.3-1.1s0.1-0.9,0.2-1.1
			c0.2-0.2,0.5-0.3,0.9-0.4c2.5-0.1,5.2-0.3,7.9-0.4c2.7-0.1,5.5-0.2,8.4-0.3c0.3,0,0.5,0.1,0.6,0.2c0.1,0.1,0.2,0.4,0.2,0.7
			c0,0.4,0,0.9,0,1.5s0,1.1-0.1,1.7c0,0.6-0.1,1.1-0.1,1.7c0,0.5-0.1,1-0.1,1.4c0,0.5-0.2,0.8-0.3,1c-0.2,0.2-0.5,0.3-1,0.3
			c-1.9,0.1-3.9,0.2-6.1,0.2c-2.1,0.1-4.3,0.2-6.3,0.2c0,0.4,0,0.8,0,1.3s0,0.9,0,1.3c2.1,0,4.3-0.1,6.5-0.1s4.5-0.1,6.7-0.1
			c0.3,0,0.6,0.1,0.7,0.4c0.1,0.2,0.2,0.6,0.2,1s-0.1,0.7-0.2,1c-0.1,0.3-0.4,0.5-0.8,0.5c-1.3,0-2.6,0.1-3.8,0.1s-2.3,0.1-3.5,0.1
			s-2.3,0-3.5,0.1c-1.2,0-2.4,0-3.8,0c-0.8,0-1.3-0.2-1.6-0.5s-0.5-0.8-0.5-1.6c0-0.4,0-0.7-0.1-1.2c0-0.4,0-0.9-0.1-1.3
			c0-0.5,0-0.9,0-1.3s0-0.8,0-1.2c0-0.3,0-0.5,0.1-0.6c0.1-0.2,0.2-0.3,0.5-0.3c0.9,0,2-0.1,3.1-0.1c1.2,0,2.4-0.1,3.6-0.1
			C223.3,66,224.5,66,225.6,65.9z M232.6,57.4c-0.1,0.7-0.3,1.1-0.6,1.3s-0.7,0.3-1.2,0.3s-0.9-0.1-1.2-0.4
			c-0.3-0.2-0.4-0.7-0.4-1.4c0-1.1-0.1-2.7,0-4.8c0-2.1,0.1-4.5,0.1-7.1c0-0.6,0.1-1.1,0.4-1.4c0.3-0.3,0.8-0.4,1.4-0.4
			c1.2,0,1.8,0.6,1.8,1.9c0,1.1,0,2.3-0.1,3.4c0,1.1,0,2.2-0.1,3.3c0,1.1-0.1,2-0.1,2.9C232.8,56,232.7,56.8,232.6,57.4z"/>
	</g>
	<g>
		<path d="M556.5,240.8c0,0.9,0,1.7,0.1,2.4c1.3,0.6,2.6,1.1,4,1.7c1.3,0.6,2.5,1.1,3.4,1.5c0.3,0.1,0.5,0.4,0.6,0.8
			c0.1,0.4,0,0.8-0.2,1.2c-0.5,0.9-1.1,1.2-1.9,0.8c-0.5-0.2-1-0.4-1.6-0.7s-1.3-0.5-1.9-0.8c-0.7-0.3-1.3-0.5-2-0.8
			s-1.3-0.5-1.8-0.8c-0.5,0.3-1.1,0.7-1.7,1.1c-0.6,0.4-1.2,0.8-1.9,1.1c-0.6,0.4-1.2,0.7-1.8,1.1c-0.6,0.4-1.1,0.6-1.5,0.9
			c-0.4,0.2-0.8,0.3-1.2,0.3s-0.7-0.3-1-0.6c-0.3-0.4-0.4-0.7-0.4-1s0.2-0.6,0.5-0.8c0.4-0.3,1-0.7,1.6-1.1c0.6-0.4,1.2-0.8,1.8-1.3
			s1.2-0.8,1.8-1.2s1.1-0.7,1.5-1c0-0.8-0.1-1.6-0.2-2.5s-0.1-1.7-0.2-2.3c0-0.5,0.1-1,0.3-1.3c0.3-0.3,0.8-0.5,1.5-0.5
			c0.8,0,1.4,0,1.6,0.3s0.4,0.7,0.4,1.3C556.5,239.2,556.5,240,556.5,240.8z M553.6,255.9c0-0.3,0-0.7,0-1c-1.2,0-2.3,0.1-3.4,0.1
			c-1.1,0-2.2,0.1-3.2,0.1c-0.9,0-1.3-0.4-1.3-1.5c0-0.5,0.1-0.9,0.3-1.1s0.5-0.4,1-0.4c3.3-0.2,6.3-0.4,9-0.5
			c2.8-0.1,5.5-0.3,8.1-0.4c0.4,0,0.7,0.1,0.9,0.4s0.3,0.6,0.3,1c0,0.5-0.1,0.9-0.3,1.1c-0.2,0.2-0.5,0.3-0.9,0.4
			c-1,0.1-2.1,0.2-3.3,0.3s-2.4,0.2-3.6,0.3c0,0.5,0,0.9,0,1.4c0,0.4,0,0.8-0.1,1c-0.1,0.7-0.3,1.1-0.7,1.3
			c-0.3,0.2-0.8,0.3-1.2,0.2c-0.5,0-0.9-0.1-1.1-0.3c-0.2-0.2-0.4-0.6-0.4-1.3C553.7,256.6,553.6,256.3,553.6,255.9z M570.3,265.5
			c0,0.5,0,1.1-0.1,1.7c0,0.5-0.1,0.9-0.3,1.2c-0.2,0.2-0.5,0.4-0.9,0.4s-0.9,0.1-1.7,0.1s-1.7,0.1-2.7,0.1s-2,0-3.1,0.1
			s-2.1,0-3.1,0.1c-1,0-1.9,0-2.6,0.1s-1.3,0-1.7,0c-1.3,0-2-0.7-2.1-2.1c0-0.9-0.1-1.8-0.1-2.8s-0.1-2-0.1-3.1c0-1,0.4-1.5,1.3-1.6
			c0.4,0,1,0,1.9-0.1c0.8,0,1.8-0.1,2.9-0.1c1.1,0,2.2-0.1,3.4-0.1s2.3-0.1,3.4-0.1s2,0,2.9-0.1s1.5,0,2,0c0.3,0,0.6,0.1,0.7,0.3
			s0.2,0.5,0.2,0.9c0,0.7,0,1.3,0,1.9s0,1.2-0.1,1.7C570.3,264.4,570.3,264.9,570.3,265.5z M566.4,266c0.3,0,0.4-0.2,0.4-0.5
			c0-0.5,0-1,0-1.5s0-1.2,0-2l-11.5,0.5c0,0.3,0,0.6,0,0.9s0,0.7,0,1s0,0.7,0,1s0,0.6,0,0.8L566.4,266z M571,256.5
			c-0.1,0.7-0.3,1.2-0.6,1.4s-0.7,0.4-1.2,0.3c-0.5,0-0.9-0.2-1.1-0.4c-0.2-0.2-0.4-0.7-0.4-1.5c0-1.2,0-2.6,0-3.9s0-2.7,0-4.1
			s0-2.7,0-4.1s0-2.6,0.1-3.9c0-0.6,0.2-1.1,0.5-1.4c0.3-0.3,0.8-0.4,1.5-0.4c1.2,0,1.8,0.6,1.8,1.9c0,1.1,0,2.4-0.1,3.8
			s0,2.8-0.1,4.2c0,1.4-0.1,2.8-0.2,4.2C571.2,254,571.1,255.3,571,256.5z"/>
		<path d="M579,258.3c0,0.3,0.1,0.4,0.3,0.4c0.9-0.1,1.8-0.1,2.9-0.2c1.1-0.1,2.1-0.1,3.2-0.2s2.2-0.1,3.2-0.2s2-0.1,2.9-0.2
			c0.5,0,0.8,0,1,0.2s0.3,0.6,0.3,1.1c0,0.6-0.1,1-0.3,1.2s-0.5,0.4-0.9,0.4c-2.3,0.3-4.6,0.5-6.9,0.7c-2.3,0.2-4.6,0.3-6.7,0.4
			c-0.7,0-1.2-0.2-1.7-0.6c-0.4-0.4-0.7-1-0.7-1.7c0-0.5,0-1.2-0.1-2.2c0-1,0-2.1-0.1-3.3c0-1.2,0-2.5,0-3.8s0-2.6,0-3.8
			s0-2.3,0-3.3s0-1.7,0-2.2s0.1-0.8,0.2-1c0.2-0.2,0.5-0.3,0.9-0.3c2.1-0.1,4.4-0.2,6.8-0.3s4.7-0.2,7-0.2c0.7,0,1.1,0.5,1.1,1.5
			c0,0.5-0.1,0.9-0.2,1.1s-0.5,0.4-0.9,0.4c-0.9,0.1-1.8,0.1-2.8,0.2c-1,0-1.9,0.1-2.9,0.2c-1,0.1-1.9,0.1-2.9,0.2
			c-0.9,0-1.8,0.1-2.7,0.1c0,0.2,0,0.5,0,0.9s0,1,0,1.6s0,1.3,0,2s0,1.5,0,2.3c1.5-0.1,3.1-0.1,4.6-0.2s3.1-0.1,4.6-0.1
			c0.4,0,0.7,0.1,0.9,0.4s0.2,0.6,0.2,1.1s-0.1,0.9-0.3,1.1s-0.5,0.4-0.9,0.4c-1.4,0.1-2.9,0.2-4.5,0.3s-3.1,0.1-4.6,0.2
			c0,0.7,0,1.3,0,1.9c0,0.6,0,1.2,0,1.7s0,0.9,0,1.2C579,258,579,258.2,579,258.3z M595,248.2c0.5,0,0.9,0,1.4-0.1
			c0-1.3,0.1-2.6,0.1-3.9s0.1-2.6,0.1-3.9c0-0.6,0.2-1.1,0.5-1.4s0.8-0.4,1.5-0.4c1.2,0,1.8,0.6,1.8,1.9c0,1.9-0.1,3.9-0.1,6
			s-0.1,4.1-0.2,6.1c-0.1,2-0.2,4-0.3,6s-0.2,3.9-0.4,5.6c0,0.7-0.2,1.2-0.5,1.4s-0.7,0.4-1.2,0.3c-0.5,0-0.9-0.2-1.1-0.6
			c-0.2-0.3-0.4-0.9-0.4-1.6c0-4.1,0-8.2,0.1-12.3c-0.5,0-0.9,0-1.4,0.1s-0.9,0-1.4,0.1c-0.4,0-0.8,0-1.1,0s-0.5,0-0.7,0
			c-0.5,0-0.8-0.1-1-0.4c-0.2-0.3-0.3-0.7-0.3-1.2c0-1,0.4-1.6,1.2-1.6c0.2,0,0.4,0,0.8,0c0.3,0,0.7,0,1.2-0.1
			C594,248.3,594.5,248.2,595,248.2z"/>
	</g>
	<g>
		<path d="M230.7,188.9l-0.3-1.4c0,0,1.5-0.3,4.4-0.9l0.3,1.4C232.2,188.6,230.7,188.9,230.7,188.9z M237.9,187.4l-0.3-1.4
			c1.3-0.3,2.7-0.5,4.4-0.8l0.3,1.4C240.6,186.9,239.2,187.1,237.9,187.4z M245.1,186l-0.3-1.4c1.4-0.3,2.8-0.5,4.4-0.8l0.3,1.4
			C247.9,185.5,246.5,185.7,245.1,186z M252.4,184.7l-0.3-1.4c1.4-0.2,2.8-0.5,4.4-0.8l0.3,1.4C255.2,184.2,253.8,184.4,252.4,184.7
			z M259.7,183.4l-0.2-1.4c1.4-0.2,2.9-0.5,4.4-0.7l0.2,1.5C262.5,182.9,261.1,183.2,259.7,183.4z M266.9,182.2l-0.2-1.5
			c1.4-0.2,2.9-0.5,4.4-0.7l0.2,1.5C269.8,181.7,268.3,182,266.9,182.2z M274.2,181.1l-0.2-1.5c1.4-0.2,2.9-0.4,4.4-0.7l0.2,1.5
			C277.1,180.6,275.6,180.8,274.2,181.1z M281.5,180l-0.2-1.5c1.4-0.2,2.9-0.4,4.4-0.6l0.2,1.5C284.4,179.5,282.9,179.7,281.5,180z
			 M288.8,178.9l-0.2-1.5c1.4-0.2,2.9-0.4,4.4-0.6l0.2,1.5C291.7,178.5,290.2,178.7,288.8,178.9z M296.1,177.9l-0.2-1.5
			c1.4-0.2,2.9-0.4,4.4-0.6l0.2,1.5C299,177.5,297.5,177.7,296.1,177.9z M303.4,176.9l-0.2-1.5c1.4-0.2,2.9-0.4,4.4-0.6l0.2,1.5
			C306.3,176.5,304.9,176.7,303.4,176.9z M310.7,176l-0.2-1.5c1.4-0.2,2.9-0.4,4.4-0.5l0.2,1.5C313.6,175.6,312.2,175.8,310.7,176z
			 M318,175.1l-0.2-1.5c1.5-0.2,2.9-0.3,4.4-0.5l0.2,1.5C321,174.8,319.5,174.9,318,175.1z M325.4,174.3l-0.2-1.5
			c1.5-0.2,2.9-0.3,4.4-0.5l0.2,1.5C328.3,174,326.8,174.1,325.4,174.3z M332.7,173.5l-0.2-1.5c1.5-0.2,2.9-0.3,4.4-0.5l0.1,1.5
			C335.6,173.2,334.1,173.3,332.7,173.5z M340,172.7l-0.1-1.5c1.5-0.1,2.9-0.3,4.4-0.4l0.1,1.5C343,172.4,341.5,172.6,340,172.7z
			 M347.4,172l-0.1-1.5c1.5-0.1,2.9-0.3,4.4-0.4l0.1,1.5C350.3,171.7,348.8,171.9,347.4,172z M354.7,171.3l-0.1-1.5
			c1.5-0.1,2.9-0.3,4.4-0.4l0.1,1.5C357.6,171.1,356.2,171.2,354.7,171.3z M362.1,170.7l-0.1-1.5c1.5-0.1,2.9-0.2,4.4-0.4l0.1,1.5
			C365,170.5,363.5,170.6,362.1,170.7z M369.4,170.1l-0.1-1.5c1.5-0.1,2.9-0.2,4.4-0.3l0.1,1.5C372.3,169.9,370.9,170,369.4,170.1z
			 M376.8,169.6l-0.1-1.5c1.5-0.1,2.9-0.2,4.4-0.3l0.1,1.5C379.7,169.4,378.2,169.5,376.8,169.6z M384.1,169.1l-0.1-1.5
			c1.5-0.1,2.9-0.2,4.4-0.3l0.1,1.5C387,168.9,385.6,169,384.1,169.1z M391.5,168.6l-0.1-1.5c1.5-0.1,2.9-0.2,4.4-0.3l0.1,1.5
			C394.4,168.4,392.9,168.5,391.5,168.6z M398.8,168.2l-0.1-1.5c1.5-0.1,2.9-0.2,4.4-0.2l0.1,1.5C401.8,168,400.3,168.1,398.8,168.2
			z M406.2,167.8l-0.1-1.5c1.5-0.1,2.9-0.1,4.4-0.2l0.1,1.5C409.1,167.7,407.6,167.7,406.2,167.8z M413.5,167.5l-0.1-1.5
			c1.5-0.1,2.9-0.1,4.4-0.2l0.1,1.5C416.5,167.3,415,167.4,413.5,167.5z"/>
	</g>
	<g>
		<path d="M432,171.6c0,0.8,0.2,1.3,0.5,1.4c0.6,0.2,1.4,0.3,2,0.3c0.5,0,0.8,0.2,0.8,0.8s-0.4,0.7-0.9,0.7c-0.7,0-3.9-0.1-4.1-0.1
			c-0.3,0-3.5,0.1-4.5,0.1c-0.5,0-0.9-0.1-0.9-0.7s0.2-0.7,0.8-0.8c0.9,0,1.7-0.1,2.3-0.3c0.4-0.1,0.6-0.6,0.6-1.4V156
			c0-0.8-0.2-1.2-0.5-1.3c-0.9-0.1-1.9-0.2-2.7-0.2c-0.5,0-0.9-0.1-0.9-0.7c0-0.5,0.2-0.7,0.7-0.8c2-0.5,4.3-1.5,5.6-2.3l0,0
			c0.6-0.5,1.4-0.4,1.3,0.5c-0.1,1.4-0.1,2.7-0.1,4L432,171.6L432,171.6z"/>
		<path d="M464.8,172.8c0.6,0.6,1.3,0.8,1.7,0.8c0.5,0,0.7,0,0.7,0.6s-0.3,0.5-0.7,0.5c-0.2,0-2.3-0.1-2.9-0.1
			c-0.7,0-3.2,0.1-3.4,0.1c-0.5,0-0.7,0.1-0.7-0.5s0.2-0.6,0.7-0.6c0.4,0,0.8-0.1,0.9-0.2c0.2-0.2,0-0.5-0.5-1.1l-4.7-4.9
			c-0.1-0.2-0.3-0.1-0.3,0.1v4.4c0.1,0.9,0.2,1.3,0.4,1.4c0.4,0.2,0.7,0.2,1.2,0.3c0.5,0,0.7,0,0.7,0.6s-0.3,0.5-0.7,0.5
			c-0.2,0-2.6-0.1-3.2-0.1c-0.7,0-3.2,0.1-3.4,0.1c-0.5,0-0.7,0.1-0.7-0.5s0.2-0.6,0.7-0.6c0.4,0,1-0.1,1.4-0.3
			c0.3-0.1,0.6-0.5,0.6-1.4v-19.8c0-0.5-0.5-0.7-1.3-0.8c-0.5-0.1-0.8,0-0.8-0.5c0-0.4,0.2-0.5,0.7-0.6c1.3-0.4,2.9-1,4-1.6
			c0.4-0.2,0.7,0,0.6,0.4c-0.1,1-0.2,2.1-0.2,3.2v13.5c0,0.2,0.1,0.3,0.3,0.1l4.4-3.7c1.1-0.8,1.5-1.4,1.4-1.6
			c-0.1-0.1-0.7-0.2-1.1-0.2c-0.5,0-0.7,0-0.7-0.6s0.2-0.5,0.7-0.5c0.2,0,2.1,0.1,2.8,0.1c0.6,0,2.5-0.1,2.7-0.1
			c0.5,0,0.7-0.1,0.7,0.5s-0.2,0.6-0.7,0.6c-0.4,0-0.8,0-1.2,0.3c-2.3,1.2-4.5,3.1-6.7,5c-0.1,0.1-0.1,0.2,0,0.3L464.8,172.8z"/>
		<path d="M493.9,172c0,0.9,0.3,1.3,0.5,1.4c0.4,0.2,0.9,0.2,1.4,0.3c0.5,0,0.7,0,0.7,0.6s-0.2,0.6-0.7,0.6c-0.2,0-2.7-0.1-3.4-0.1
			c-0.7,0-3.1,0.1-3.3,0.1c-0.5,0-0.7,0.1-0.7-0.6c0-0.6,0.2-0.6,0.7-0.6c0.4,0,0.8-0.1,1.2-0.3c0.3-0.1,0.4-0.5,0.4-1.4v-7.6
			c0-2.6-1.1-3.7-3.4-3.7c-1.3,0-2.1,0.4-2.8,1.5c-0.1,0.2-0.3,0.6-0.3,1v8.7c0,0.9,0.3,1.3,0.5,1.4c0.4,0.2,0.9,0.2,1.4,0.3
			c0.5,0,0.7,0,0.7,0.6s-0.2,0.6-0.7,0.6c-0.2,0-2.7-0.1-3.4-0.1c-0.7,0-3.1,0.1-3.3,0.1c-0.5,0-0.7,0.1-0.7-0.6
			c0-0.6,0.2-0.6,0.7-0.6c0.4,0,0.8-0.1,1.2-0.3c0.3-0.1,0.4-0.5,0.4-1.4v-7.6c0-2.6-1.3-3.7-3.6-3.7c-1.3,0-2.1,0.4-2.8,1.5
			c-0.1,0.2-0.3,0.6-0.3,1v8.7c0.1,0.9,0.2,1.3,0.5,1.4c0.4,0.2,0.8,0.2,1.2,0.3c0.5,0,0.7,0,0.7,0.6s-0.3,0.6-0.7,0.6
			c-0.2,0-2.7-0.1-3.3-0.1c-0.7,0-3.2,0.1-3.4,0.1c-0.5,0-0.7,0.1-0.7-0.6c0-0.6,0.2-0.6,0.7-0.6c0.4,0,1-0.1,1.4-0.3
			c0.3-0.1,0.5-0.5,0.5-1.4V162c0-0.5-0.5-0.7-1.3-0.8c-0.5-0.1-0.8,0-0.8-0.5c0-0.4,0.2-0.5,0.7-0.6c1.3-0.4,2.9-1,4-1.6
			c0.4-0.2,0.7,0,0.6,0.4c-0.1,0.6-0.1,1-0.1,1.6c1-1.2,2.4-2.2,4.5-2.2c2.3,0,3.8,0.8,4.7,2.5c0.9-1.4,2.8-2.5,5-2.5
			c3.4,0,5.4,1.7,5.4,5.1L493.9,172L493.9,172z"/>
	</g>
	<g>
		<path d="M687.5,189.5c-1.4-0.3-2.9-0.6-4.3-0.9l0.3-1.4c1.4,0.3,2.9,0.6,4.3,0.9L687.5,189.5z M680.3,188.1
			c-1.4-0.3-2.9-0.6-4.3-0.9l0.3-1.4c1.4,0.3,2.9,0.6,4.3,0.9L680.3,188.1z M673.1,186.6c-1.4-0.3-2.9-0.6-4.3-0.8l0.3-1.4
			c1.4,0.3,2.9,0.6,4.3,0.8L673.1,186.6z M665.9,185.2c-1.4-0.3-2.9-0.5-4.3-0.8l0.3-1.4c1.4,0.3,2.9,0.5,4.3,0.8L665.9,185.2z
			 M658.7,183.9c-1.4-0.3-2.9-0.5-4.3-0.8l0.3-1.4c1.4,0.3,2.9,0.5,4.3,0.8L658.7,183.9z M651.5,182.6c-1.4-0.3-2.9-0.5-4.3-0.8
			l0.3-1.4c1.4,0.3,2.9,0.5,4.3,0.8L651.5,182.6z M644.2,181.3c-1.4-0.2-2.9-0.5-4.3-0.7l0.2-1.5c1.4,0.2,2.9,0.5,4.3,0.7
			L644.2,181.3z M637,180.1c-1.4-0.2-2.9-0.5-4.3-0.7l0.2-1.5c1.4,0.2,2.9,0.5,4.4,0.7L637,180.1z M629.8,178.9
			c-1.5-0.2-2.9-0.5-4.3-0.7l0.2-1.5c1.5,0.2,2.9,0.5,4.4,0.7L629.8,178.9z M622.5,177.8c-1.5-0.2-2.9-0.4-4.4-0.7l0.2-1.5
			c1.5,0.2,2.9,0.4,4.4,0.7L622.5,177.8z M615.2,176.7c-1.5-0.2-2.9-0.4-4.4-0.6l0.2-1.5c1.5,0.2,2.9,0.4,4.4,0.6L615.2,176.7z
			 M608,175.7c-1.5-0.2-2.9-0.4-4.4-0.6l0.2-1.5c1.5,0.2,2.9,0.4,4.4,0.6L608,175.7z M600.7,174.7c-1.5-0.2-2.9-0.4-4.4-0.6l0.2-1.5
			c1.5,0.2,2.9,0.4,4.4,0.6L600.7,174.7z M593.4,173.8c-1.5-0.2-2.9-0.4-4.4-0.5l0.2-1.5c1.5,0.2,2.9,0.4,4.4,0.5L593.4,173.8z
			 M586.2,172.9c-1.5-0.2-2.9-0.3-4.4-0.5l0.2-1.5c1.5,0.2,2.9,0.3,4.4,0.5L586.2,172.9z M578.9,172c-1.5-0.2-2.9-0.3-4.4-0.5
			l0.2-1.5c1.5,0.2,2.9,0.3,4.4,0.5L578.9,172z M571.6,171.3c-1.5-0.2-2.9-0.3-4.4-0.4l0.1-1.5c1.5,0.1,2.9,0.3,4.4,0.4L571.6,171.3
			z M564.3,170.5c-1.5-0.1-2.9-0.3-4.4-0.4l0.1-1.5c1.5,0.1,2.9,0.3,4.4,0.4L564.3,170.5z M557,169.9c-1.5-0.1-2.9-0.3-4.4-0.4
			l0.1-1.5c1.5,0.1,2.9,0.2,4.4,0.4L557,169.9z M549.7,169.2c-1.5-0.1-2.9-0.2-4.4-0.3l0.1-1.5c1.5,0.1,2.9,0.2,4.4,0.3L549.7,169.2
			z M542.4,168.7c-1.5-0.1-2.9-0.2-4.4-0.3l0.1-1.5c1.5,0.1,2.9,0.2,4.4,0.3L542.4,168.7z M535.1,168.2c-1.5-0.1-2.9-0.2-4.4-0.3
			l0.1-1.5c1.5,0.1,2.9,0.2,4.4,0.3L535.1,168.2z M527.7,167.7c-1.5-0.1-2.9-0.2-4.4-0.2l0.1-1.5c1.5,0.1,2.9,0.2,4.4,0.2
			L527.7,167.7z M520.4,167.3c-1.5-0.1-2.9-0.1-4.4-0.2l0.1-1.5c1.5,0.1,2.9,0.1,4.4,0.2L520.4,167.3z M513.1,167
			c-1.5-0.1-2.9-0.1-4.4-0.2l0.1-1.5c1.5,0.1,2.9,0.1,4.4,0.2L513.1,167z M505.8,166.8c-1.5,0-2.9-0.1-4.4-0.1v-1.5
			c1.5,0,2.9,0.1,4.4,0.1V166.8z"/>
		<path d="M683.8,190.7l-1.2-0.9c0-0.1,1.1-1.4,3.1-3.5l1,1C684.8,189.3,683.8,190.7,683.8,190.7z M689,185.2l-1-1.1
			c1.1-1,2.3-2,3.6-3l0.9,1.2C691.3,183.3,690.2,184.2,689,185.2z"/>
	</g>
	<g>
		<path d="M696,175c1.4,0,2.1-0.3,2.5-1c0.3-0.5,0.6-1.3,0.8-1.7c0.2-0.5,0.4-0.5,0.9-0.4c0.4,0.1,0.6,0.3,0.5,0.7
			c-0.2,1.7-0.5,3.2-1,5c-0.1,0.3-0.3,0.4-0.6,0.4H688c-0.7,0-1.5,0-2.1,0.1c-0.5,0-0.8-0.4-0.4-0.9c1-1.2,3.5-4,5.7-7.1
			c2.4-3.2,4.5-6.8,4.5-9.3c0-2.8-1.4-4.4-4.1-4.4c-2.1,0-3.6,1.7-4.5,3.6c-0.2,0.5-0.4,0.7-1.1,0.5c-0.5-0.2-0.6-0.5-0.5-1
			c1-3.4,3.1-5.5,7.1-5.5c4.1,0,6.8,2.3,6.8,5.9c0,2.9-2.1,5.7-4.7,9.2c-1,1.4-3.1,4.2-4.1,5.7c-0.2,0.2-0.1,0.3,0.2,0.3h5.2V175z"
			/>
		<path d="M711.3,178.5c-5,0-8.2-3.7-8.2-12.2c0-8.4,3.1-12.1,8.2-12.1c5.1,0,8.2,3.8,8.2,12.1c0,4.2-0.8,7.3-2.2,9.3
			C715.9,177.5,713.9,178.5,711.3,178.5z M715.9,166.3c0-7-1.5-10.3-4.6-10.3c-3,0-4.5,3.4-4.5,10.3c0,7,1.4,10.3,4.5,10.3
			C714.5,176.6,715.9,173.3,715.9,166.3z"/>
		<path d="M729.9,178.5c-5,0-8.2-3.7-8.2-12.2c0-8.4,3.1-12.1,8.2-12.1c5.1,0,8.2,3.8,8.2,12.1c0,4.2-0.8,7.3-2.2,9.3
			C734.4,177.5,732.4,178.5,729.9,178.5z M734.5,166.3c0-7-1.5-10.3-4.6-10.3c-3,0-4.5,3.4-4.5,10.3c0,7,1.4,10.3,4.5,10.3
			S734.5,173.3,734.5,166.3z"/>
		<path d="M775.7,175.3c0,0.9,0.3,1.3,0.5,1.4c0.4,0.2,0.9,0.2,1.4,0.3c0.5,0,0.7,0,0.7,0.6s-0.2,0.6-0.7,0.6
			c-0.2,0-2.7-0.1-3.4-0.1s-3.1,0.1-3.3,0.1c-0.5,0-0.7,0.1-0.7-0.6c0-0.6,0.2-0.6,0.7-0.6c0.4,0,0.8-0.1,1.2-0.3
			c0.3-0.1,0.4-0.5,0.4-1.4v-7.6c0-2.6-1.1-3.7-3.4-3.7c-1.3,0-2.1,0.4-2.8,1.5c-0.1,0.2-0.3,0.6-0.3,1v8.7c0,0.9,0.3,1.3,0.5,1.4
			c0.4,0.2,0.9,0.2,1.4,0.3c0.5,0,0.7,0,0.7,0.6s-0.2,0.6-0.7,0.6c-0.2,0-2.7-0.1-3.4-0.1s-3.1,0.1-3.3,0.1c-0.5,0-0.7,0.1-0.7-0.6
			c0-0.6,0.2-0.6,0.7-0.6c0.4,0,0.8-0.1,1.2-0.3c0.3-0.1,0.4-0.5,0.4-1.4v-7.6c0-2.6-1.3-3.7-3.6-3.7c-1.3,0-2.1,0.4-2.8,1.5
			c-0.1,0.2-0.3,0.6-0.3,1v8.7c0.1,0.9,0.2,1.3,0.5,1.4c0.4,0.2,0.8,0.2,1.2,0.3c0.5,0,0.7,0,0.7,0.6s-0.3,0.6-0.7,0.6
			c-0.2,0-2.7-0.1-3.3-0.1c-0.7,0-3.2,0.1-3.4,0.1c-0.5,0-0.7,0.1-0.7-0.6c0-0.6,0.2-0.6,0.7-0.6c0.4,0,1-0.1,1.4-0.3
			c0.3-0.1,0.5-0.5,0.5-1.4v-9.8c0-0.5-0.5-0.7-1.3-0.8c-0.5-0.1-0.8,0-0.8-0.5c0-0.4,0.2-0.5,0.7-0.6c1.3-0.4,2.9-1,4-1.6
			c0.4-0.2,0.7,0,0.6,0.4c-0.1,0.6-0.1,1-0.1,1.6c1-1.2,2.4-2.2,4.5-2.2c2.3,0,3.8,0.8,4.7,2.5c0.9-1.4,2.8-2.5,5-2.5
			c3.4,0,5.4,1.7,5.4,5.1L775.7,175.3L775.7,175.3z"/>
	</g>
	<path d="M771.1,189.4c-1.3-1-2.6-2.1-3.9-3l0.9-1.2c1.3,1,2.7,2,4,3.1L771.1,189.4z M764.3,184.3c-1.4-0.9-2.8-1.9-4.1-2.7l0.8-1.3
		c1.4,0.9,2.8,1.8,4.2,2.7L764.3,184.3z"/>
</g>
</svg>
