
<svg xmlns="http://www.w3.org/2000/svg" version="1.1" xmlns:xlink="http://www.w3.org/1999/xlink" preserveAspectRatio="none" x="0px" y="0px" width="780px" height="360px" viewBox="0 0 780 360">
<defs>
<g id="fdbfdbfdnm_0_Layer5_0_FILL">
<path fill="#BBDECB" stroke="none" d="
M -207.95 -183.95
Q -227.95 -183.95 -227.95 -163.95
L -227.95 -141.45
Q -227.95 -121.45 -207.95 -121.45
L -109.95 -121.45
Q -89.95 -121.45 -89.95 -141.45
L -89.95 -163.95
Q -89.95 -183.95 -109.95 -183.95
L -207.95 -183.95 Z"/>
</g>

<g id="fdbfdbfdnm_0_Layer4_0_FILL">
<path fill="#000000" stroke="none" d="
M -162.95 -162.05
Q -163.1 -161.9 -163.1 -161.5
L -163.1 -128.35
Q -163.1 -127.95 -162.95 -127.8 -162.75 -127.7 -162.4 -127.7
L -158.75 -127.7
Q -158.35 -127.7 -158.2 -127.8 -158.1 -127.95 -158.1 -128.35
L -158.1 -145.15 -153.65 -145.15
Q -153.3 -145.15 -153.1 -145.25 -152.9 -145.4 -152.9 -145.8
L -152.9 -148.55
Q -152.9 -149.05 -153.1 -149.15 -153.3 -149.25 -153.65 -149.25
L -158.1 -149.25 -158.1 -161.5
Q -158.1 -161.9 -158.2 -162.05 -158.35 -162.2 -158.75 -162.2
L -162.4 -162.2
Q -162.75 -162.2 -162.95 -162.05
M -183.6 -155.6
Q -183.5 -155.45 -183 -155.45
L -172.95 -155.45
Q -172.3 -155.45 -172.4 -154.7 -173.05 -149.95 -176.2 -146 -179.35 -141.95 -184.8 -138.9 -185.1 -138.75 -185.2 -138.4 -185.25 -138.1 -185 -137.75
L -183.35 -135.2
Q -183.05 -134.8 -182.75 -134.8 -182.5 -134.8 -182 -135.1 -178.65 -136.95 -176 -139.3 -173.3 -141.65 -171.4 -144.4 -169.45 -147.1 -168.4 -150.2 -167.25 -153.25 -167.05 -156.5 -166.95 -158.05 -167.55 -158.8 -168.1 -159.55 -169.9 -159.55
L -183 -159.55
Q -183.4 -159.55 -183.55 -159.4 -183.7 -159.3 -183.7 -158.85
L -183.7 -156.15
Q -183.7 -155.75 -183.6 -155.6 Z"/>
</g>

<g id="fdbfdbfdnm_0_Layer3_0_FILL">
<path fill="#FFFFFF" stroke="none" d="
M 833.95 261.05
Q 833.95 246.05 818.95 246.05
L 582 246.05
Q 567 246.05 567 261.05
L 567 580
Q 567 595 582 595
L 818.95 595
Q 833.95 595 833.95 580
L 833.95 261.05 Z"/>
</g>

<g id="fdbfdbfdnm_0_Layer2_0_FILL">
<path fill="#F4B6D1" stroke="none" d="
M 14.55 0.35
L 0.4 0.35 0.4 113.7 14.55 113.7 14.55 0.35 Z"/>
</g>

<g id="fdbfdbfdnm_0_Layer2_1_FILL">
<path fill="#F4B6D1" stroke="none" d="
M 43.85 0.35
L 29.65 0.35 29.65 113.7 43.85 113.7 43.85 0.35 Z"/>
</g>

<g id="fdbfdbfdnm_0_Layer2_2_FILL">
<path fill="#F4B6D1" stroke="none" d="
M 73.15 0.35
L 58.95 0.35 58.95 113.7 73.15 113.7 73.15 0.35 Z"/>
</g>

<g id="fdbfdbfdnm_0_Layer2_3_FILL">
<path fill="#F4B6D1" stroke="none" d="
M 102.4 0.35
L 88.25 0.35 88.25 113.7 102.4 113.7 102.4 0.35 Z"/>
</g>

<g id="fdbfdbfdnm_1_Layer5_0_FILL">
<path fill="#BBDECB" stroke="none" d="
M -207.95 -183.95
Q -227.95 -183.95 -227.95 -163.95
L -227.95 -141.45
Q -227.95 -121.45 -207.95 -121.45
L -109.95 -121.45
Q -89.95 -121.45 -89.95 -141.45
L -89.95 -163.95
Q -89.95 -183.95 -109.95 -183.95
L -207.95 -183.95 Z"/>
</g>

<g id="fdbfdbfdnm_1_Layer4_0_FILL">
<path fill="#000000" stroke="none" d="
M -162.4 -162.2
Q -162.75 -162.2 -162.95 -162.05 -163.1 -161.9 -163.1 -161.5
L -163.1 -128.35
Q -163.1 -127.95 -162.95 -127.8 -162.75 -127.7 -162.4 -127.7
L -158.75 -127.7
Q -158.35 -127.7 -158.2 -127.8 -158.1 -127.95 -158.1 -128.35
L -158.1 -145.1 -153.65 -145.1
Q -153.3 -145.1 -153.1 -145.25 -152.9 -145.35 -152.9 -145.8
L -152.9 -148.55
Q -152.9 -149.05 -153.1 -149.1 -153.3 -149.2 -153.65 -149.2
L -158.1 -149.2 -158.1 -161.5
Q -158.1 -161.9 -158.2 -162.05 -158.35 -162.2 -158.75 -162.2
L -162.4 -162.2
M -178.35 -159.3
Q -178.35 -160.05 -179.1 -160.05
L -182.65 -160.05
Q -183.35 -160.05 -183.35 -159.3
L -183.35 -140.3
Q -183.35 -138.9 -182.7 -138.35 -182.1 -137.75 -180.6 -137.65 -179.2 -137.55 -177.25 -137.6 -175.35 -137.6 -173.25 -137.8 -171.1 -138 -169.05 -138.3 -166.9 -138.6 -165.1 -139 -164.5 -139.15 -164.55 -139.7
L -165.05 -142.7
Q -165.15 -142.85 -165.3 -143 -165.4 -143.15 -165.85 -143.05 -167.15 -142.75 -168.65 -142.55 -170.15 -142.3 -171.7 -142.15 -173.3 -141.95 -174.8 -141.9 -176.25 -141.85 -177.5 -141.9 -178.35 -141.95 -178.35 -142.75
L -178.35 -159.3 Z"/>
</g>

<g id="fdbfdbfdnm_1_Layer3_0_FILL">
<path fill="#FFFFFF" stroke="none" d="
M 833.95 261.05
Q 833.95 246.05 818.95 246.05
L 582 246.05
Q 567 246.05 567 261.05
L 567 580
Q 567 595 582 595
L 818.95 595
Q 833.95 595 833.95 580
L 833.95 261.05 Z"/>
</g>

<g id="fdbfdbfdnm_1_Layer2_0_FILL">
<path fill="#F4B6D1" stroke="none" d="
M 14.55 0.35
L 0.4 0.35 0.4 113.75 14.55 113.75 14.55 0.35 Z"/>
</g>

<g id="fdbfdbfdnm_1_Layer2_1_FILL">
<path fill="#F4B6D1" stroke="none" d="
M 43.85 0.35
L 29.65 0.35 29.65 113.75 43.85 113.75 43.85 0.35 Z"/>
</g>

<g id="fdbfdbfdnm_1_Layer2_2_FILL">
<path fill="#C3DB6E" stroke="none" d="
M 73.15 20.2
L 58.95 20.2 58.95 113.75 73.15 113.75 73.15 20.2 Z"/>
</g>

<g id="fdbfdbfdnm_1_Layer2_3_FILL">
<path fill="#C3DB6E" stroke="none" d="
M 102.4 20.2
L 88.25 20.2 88.25 113.75 102.4 113.75 102.4 20.2 Z"/>
</g>

<path id="fdbfdbfdnm_0_Layer3_0_1_STROKES" stroke="#BBDECB" stroke-width="5" stroke-linejoin="round" stroke-linecap="butt" fill="none" d="
M 582 246.05
L 818.95 246.05
Q 833.95 246.05 833.95 261.05
L 833.95 580
Q 833.95 595 818.95 595
L 582 595
Q 567 595 567 580
L 567 261.05
Q 567 246.05 582 246.05 Z"/>

<path id="fdbfdbfdnm_0_Layer2_0_1_STROKES" stroke="#332D2B" stroke-width="2" stroke-linejoin="round" stroke-linecap="butt" fill="none" d="
M -73.69999999999999 113.35000000000001
L -102 113.35000000000001 -102 -113.35 -73.69999999999999 -113.35 -73.69999999999999 113.35000000000001 Z"/>

<path id="fdbfdbfdnm_0_Layer2_1_1_STROKES" stroke="#332D2B" stroke-width="2" stroke-linejoin="round" stroke-linecap="butt" fill="none" d="
M -15.099999999999994 113.35000000000001
L -43.5 113.35000000000001 -43.5 -113.35 -15.099999999999994 -113.35 -15.099999999999994 113.35000000000001 Z"/>

<path id="fdbfdbfdnm_0_Layer2_2_1_STROKES" stroke="#332D2B" stroke-width="2" stroke-linejoin="round" stroke-linecap="butt" fill="none" d="
M 43.500000000000014 113.35000000000001
L 15.100000000000009 113.35000000000001 15.100000000000009 -113.35 43.500000000000014 -113.35 43.500000000000014 113.35000000000001 Z"/>

<path id="fdbfdbfdnm_0_Layer2_3_1_STROKES" stroke="#332D2B" stroke-width="2" stroke-linejoin="round" stroke-linecap="butt" fill="none" d="
M 102.00000000000001 113.35000000000001
L 73.7 113.35000000000001 73.7 -113.35 102.00000000000001 -113.35 102.00000000000001 113.35000000000001 Z"/>

<path id="fdbfdbfdnm_1_Layer3_0_1_STROKES" stroke="#BBDECB" stroke-width="5" stroke-linejoin="round" stroke-linecap="butt" fill="none" d="
M 582 246.05
L 818.95 246.05
Q 833.95 246.05 833.95 261.05
L 833.95 580
Q 833.95 595 818.95 595
L 582 595
Q 567 595 567 580
L 567 261.05
Q 567 246.05 582 246.05 Z"/>

<path id="fdbfdbfdnm_1_Layer2_0_1_STROKES" stroke="#332D2B" stroke-width="2" stroke-linejoin="round" stroke-linecap="butt" fill="none" d="
M -73.30088806152344 113.49305725097656
L -101.6000244140625 113.49305725097656 -101.6000244140625 -113.30002136230469 -73.30088806152344 -113.30002136230469 -73.30088806152344 113.49305725097656 Z"/>

<path id="fdbfdbfdnm_1_Layer2_1_1_STROKES" stroke="#332D2B" stroke-width="2" stroke-linejoin="round" stroke-linecap="butt" fill="none" d="
M -14.702676391601571 113.49305725097656
L -43.10180969238282 113.49305725097656 -43.10180969238282 -113.30002136230469 -14.702676391601571 -113.30002136230469 -14.702676391601571 113.49305725097656 Z"/>

<path id="fdbfdbfdnm_1_Layer2_2_1_STROKES" stroke="#332D2B" stroke-width="2" stroke-linejoin="round" stroke-linecap="butt" fill="none" d="
M 43.895535278320324 113.49305725097656
L 15.496401977539065 113.49305725097656 15.496401977539065 -73.60123291015626 43.895535278320324 -73.60123291015626 43.895535278320324 113.49305725097656 Z"/>

<path id="fdbfdbfdnm_1_Layer2_3_1_STROKES" stroke="#332D2B" stroke-width="2" stroke-linejoin="round" stroke-linecap="butt" fill="none" d="
M 102.39375000000001 113.49305725097656
L 74.09461364746093 113.49305725097656 74.09461364746093 -73.60123291015626 102.39375000000001 -73.60123291015626 102.39375000000001 113.49305725097656 Z"/>
</defs>

<g transform="matrix( 1, 0, 0, 1, 211.7,179.95) ">
<g transform="matrix( 1, 0, 0, 1, 18.5,7) ">
<use xlink:href="#fdbfdbfdnm_0_Layer5_0_FILL"/>
</g>

<g transform="matrix( 1, 0, 0, 1, 0,0) ">
<use xlink:href="#fdbfdbfdnm_0_Layer4_0_FILL"/>
</g>

<g transform="matrix( 1, 0, 0, 1, -700.45,-420.5) ">
<use xlink:href="#fdbfdbfdnm_0_Layer3_0_FILL"/>

<use xlink:href="#fdbfdbfdnm_0_Layer3_0_1_STROKES"/>
</g>

<g transform="matrix( 2, 0, 0, 2, -102.8,-114.05) ">
<use xlink:href="#fdbfdbfdnm_0_Layer2_0_FILL"/>

<use xlink:href="#fdbfdbfdnm_0_Layer2_0_1_STROKES" transform="matrix( 0.5, 0, 0, 0.5, 51.4,57) "/>
</g>

<g transform="matrix( 2, 0, 0, 2, -102.8,-114.05) ">
<use xlink:href="#fdbfdbfdnm_0_Layer2_1_FILL"/>

<use xlink:href="#fdbfdbfdnm_0_Layer2_1_1_STROKES" transform="matrix( 0.5, 0, 0, 0.5, 51.4,57) "/>
</g>

<g transform="matrix( 2, 0, 0, 2, -102.8,-114.05) ">
<use xlink:href="#fdbfdbfdnm_0_Layer2_2_FILL"/>

<use xlink:href="#fdbfdbfdnm_0_Layer2_2_1_STROKES" transform="matrix( 0.5, 0, 0, 0.5, 51.4,57) "/>
</g>

<g transform="matrix( 2, 0, 0, 2, -102.8,-114.05) ">
<use xlink:href="#fdbfdbfdnm_0_Layer2_3_FILL"/>

<use xlink:href="#fdbfdbfdnm_0_Layer2_3_1_STROKES" transform="matrix( 0.5, 0, 0, 0.5, 51.4,57) "/>
</g>
</g>

<g transform="matrix( 1, 0, 0, 1, 641.7,179.95) ">
<g transform="matrix( 1, 0, 0, 1, 18.5,7) ">
<use xlink:href="#fdbfdbfdnm_1_Layer5_0_FILL"/>
</g>

<g transform="matrix( 1, 0, 0, 1, 0,0) ">
<use xlink:href="#fdbfdbfdnm_1_Layer4_0_FILL"/>
</g>

<g transform="matrix( 1, 0, 0, 1, -700.45,-420.5) ">
<use xlink:href="#fdbfdbfdnm_1_Layer3_0_FILL"/>

<use xlink:href="#fdbfdbfdnm_1_Layer3_0_1_STROKES"/>
</g>

<g transform="matrix( 1.99993896484375, 0, 0, 1.99993896484375, -102.4,-114) ">
<use xlink:href="#fdbfdbfdnm_1_Layer2_0_FILL"/>

<use xlink:href="#fdbfdbfdnm_1_Layer2_0_1_STROKES" transform="matrix( 0.5000152587890625, 0, 0, 0.5000152587890625, 51.2,57) "/>
</g>

<g transform="matrix( 1.99993896484375, 0, 0, 1.99993896484375, -102.4,-114) ">
<use xlink:href="#fdbfdbfdnm_1_Layer2_1_FILL"/>

<use xlink:href="#fdbfdbfdnm_1_Layer2_1_1_STROKES" transform="matrix( 0.5000152587890625, 0, 0, 0.5000152587890625, 51.2,57) "/>
</g>

<g transform="matrix( 1.99993896484375, 0, 0, 1.99993896484375, -102.4,-114) ">
<use xlink:href="#fdbfdbfdnm_1_Layer2_2_FILL"/>

<use xlink:href="#fdbfdbfdnm_1_Layer2_2_1_STROKES" transform="matrix( 0.5000152587890625, 0, 0, 0.5000152587890625, 51.2,57) "/>
</g>

<g transform="matrix( 1.99993896484375, 0, 0, 1.99993896484375, -102.4,-114) ">
<use xlink:href="#fdbfdbfdnm_1_Layer2_3_FILL"/>

<use xlink:href="#fdbfdbfdnm_1_Layer2_3_1_STROKES" transform="matrix( 0.5000152587890625, 0, 0, 0.5000152587890625, 51.2,57) "/>
</g>
</g>
</svg>
