<?xml version="1.0" encoding="utf-8"?>
<!-- Generator: Adobe Illustrator 23.1.0, SVG Export Plug-In . SVG Version: 6.00 Build 0)  -->
<svg version="1.1" id="레이어_1" xmlns="http://www.w3.org/2000/svg" xmlns:xlink="http://www.w3.org/1999/xlink" x="0px"
	 y="0px" width="1149.7px" height="270.1px" viewBox="0 0 1149.7 270.1" style="enable-background:new 0 0 1149.7 270.1;"
	 xml:space="preserve">
<line style="fill:none;stroke:#000000;stroke-width:3;stroke-linejoin:bevel;" x1="12.3" y1="169.8" x2="1149.7" y2="169.8"/>
<path style="fill:none;stroke:#000000;stroke-width:2;" d="M12.3,151.3v37 M1121.3,188.3v-37"/>
<path style="fill:none;stroke:#999999;stroke-width:2;" d="M677.3,155.9v27.8 M122.3,155.9v27.8 M344.3,155.9v27.8 M566.3,155.9
	v27.8 M788.3,155.9v27.8 M899.3,155.9v27.8 M1010.3,155.9v27.8 M455.3,155.9v27.8 M233.3,155.9v27.8"/>
<path d="M13.8,203c4.5,0,7.8,1.5,9.8,4.4s3,7.2,3,12.7v2.4c0,5.5-1,9.8-3,12.7s-5.3,4.4-9.8,4.4S6,238.1,4,235.2s-3-7.2-3-12.7v-2.4
	c0-5.5,1-9.8,3-12.7S9.3,203,13.8,203z M13.8,207.7c-1.3,0-2.5,0.2-3.7,0.8c-1,0.5-1.9,1.3-2.4,2.3c-0.7,1.2-1.1,2.6-1.3,4
	c-0.3,1.9-0.4,3.8-0.4,5.8v1.6c0,1.9,0.1,3.8,0.4,5.8c0.2,1.4,0.6,2.8,1.3,4c0.5,1,1.4,1.8,2.4,2.3c1.2,0.5,2.4,0.8,3.7,0.8
	s2.5-0.2,3.7-0.8c1-0.5,1.9-1.3,2.4-2.3c0.7-1.2,1.1-2.6,1.3-4c0.3-1.9,0.4-3.8,0.4-5.8v-1.6c0-1.9-0.1-3.8-0.4-5.8
	c-0.2-1.4-0.6-2.8-1.3-4c-0.5-1-1.4-1.8-2.4-2.3C16.3,207.9,15.1,207.6,13.8,207.7z"/>
<path d="M98,203c4.5,0,7.8,1.5,9.8,4.4s3,7.2,3,12.7v2.4c0,5.5-1,9.8-3,12.7s-5.3,4.4-9.8,4.4s-7.8-1.5-9.8-4.4s-3-7.2-3-12.7v-2.4
	c0-5.5,1-9.8,3-12.7S93.5,203,98,203z M98,207.7c-1.3,0-2.5,0.2-3.7,0.8c-1,0.5-1.9,1.3-2.4,2.3c-0.7,1.2-1.1,2.6-1.3,4
	c-0.3,1.9-0.4,3.8-0.4,5.8v1.6c0,1.9,0.1,3.8,0.4,5.8c0.2,1.4,0.6,2.8,1.3,4c0.5,1,1.4,1.8,2.4,2.3c2.4,1,5,1,7.4,0
	c1-0.5,1.9-1.3,2.4-2.3c0.7-1.2,1.1-2.6,1.3-4c0.3-1.9,0.4-3.8,0.4-5.8v-1.6c0-1.9-0.1-3.8-0.4-5.8c-0.2-1.4-0.6-2.8-1.3-4
	c-0.5-1-1.4-1.8-2.4-2.3C100.6,207.9,99.3,207.6,98,207.7z"/>
<path d="M117,234.3c0.9,0,1.8,0.4,2.4,1c0.7,0.6,1,1.5,1,2.4c0,1.8-1.4,3.4-3.3,3.4H117c-0.9,0-1.8-0.3-2.4-1c-0.7-0.6-1-1.5-1-2.4
	s0.3-1.8,1-2.4C115.2,234.6,116.1,234.3,117,234.3z"/>
<path d="M139.3,203.3c0.7,0,1.3,0.1,1.9,0.5c0.5,0.4,0.8,1,0.7,1.6v31.8c0.1,0.6-0.2,1.2-0.8,1.6c-1.1,0.7-2.4,0.7-3.5,0
	c-0.5-0.4-0.8-1-0.8-1.6v-28.1l-7.5,4.6c-0.5,0.4-1.2,0.4-1.8,0.2c-0.6-0.2-1.1-0.7-1.4-1.2s-0.4-1.1-0.3-1.7c0.1-0.6,0.5-1.1,1-1.4
	l9-5.4c0.6-0.3,1.2-0.6,1.8-0.8C138.2,203.4,138.8,203.3,139.3,203.3z"/>
<path d="M321,203c4.5,0,7.8,1.5,9.8,4.4s3,7.2,3,12.7v2.4c0,5.5-1,9.8-3,12.7s-5.3,4.4-9.8,4.4s-7.8-1.5-9.8-4.4s-3-7.2-3-12.7v-2.4
	c0-5.5,1-9.8,3-12.7S316.4,203,321,203z M321,207.7c-1.3,0-2.5,0.2-3.7,0.8c-1,0.5-1.9,1.3-2.4,2.3c-0.7,1.2-1.1,2.6-1.3,4
	c-0.3,1.9-0.4,3.8-0.4,5.8v1.6c0,1.9,0.1,3.8,0.4,5.8c0.2,1.4,0.6,2.8,1.3,4c0.5,1,1.4,1.8,2.4,2.3c2.4,1,5,1,7.4,0
	c1-0.5,1.9-1.3,2.4-2.3c0.7-1.2,1.1-2.6,1.3-4c0.3-1.9,0.4-3.8,0.4-5.8v-1.6c0-1.9-0.1-3.8-0.4-5.8c-0.2-1.4-0.6-2.8-1.3-4
	c-0.5-1-1.4-1.8-2.4-2.3C323.5,207.9,322.2,207.6,321,207.7z"/>
<path d="M339.9,234.3c0.9,0,1.8,0.4,2.4,1c0.7,0.6,1,1.5,1,2.4c0,1.8-1.4,3.4-3.3,3.4h-0.1c-0.9,0-1.8-0.3-2.4-1
	c-0.6-0.6-1-1.5-1-2.4s0.3-1.8,1-2.4C338.2,234.7,339,234.3,339.9,234.3z"/>
<path d="M358,203c1.7,0,3.4,0.2,5,0.7c1.3,0.4,2.5,1.1,3.6,1.9c0.9,0.8,1.7,1.8,2.1,2.9c0.5,1.1,0.7,2.3,0.7,3.5v0.3
	c0,1.8-0.5,3.5-1.5,4.9c-0.5,0.8-1.2,1.5-1.9,2c-0.8,0.6-1.8,1.1-2.8,1.4c1,0.2,2,0.5,3,0.9c0.9,0.4,1.7,0.9,2.4,1.6
	c0.7,0.7,1.3,1.5,1.6,2.4c0.4,1,0.6,2.1,0.6,3.2v0.5c0,1.4-0.3,2.7-0.8,4s-1.3,2.4-2.4,3.3c-1.2,1-2.5,1.8-4,2.3
	c-1.8,0.6-3.6,0.9-5.5,0.9c-3.6,0.1-7.2-0.9-10.3-2.9c-0.6-0.3-1-0.9-1.1-1.5s0-1.3,0.4-1.8c0.3-0.5,0.8-0.9,1.4-1.1
	c0.6-0.1,1.2,0,1.7,0.4c1.1,0.8,2.4,1.4,3.6,1.9c1.3,0.4,2.6,0.6,4,0.6c1.2,0,2.4-0.1,3.6-0.5c0.9-0.3,1.7-0.7,2.4-1.3
	c0.6-0.5,1.1-1.2,1.4-1.9s0.4-1.5,0.4-2.3v-0.4c0-1-0.2-1.9-0.6-2.8c-0.4-0.7-1-1.3-1.6-1.8c-0.8-0.5-1.6-0.8-2.5-1
	c-1-0.2-2.1-0.3-3.1-0.3h-2.9c-0.5,0-1.1-0.2-1.4-0.6c-0.3-0.5-0.4-1-0.4-1.6c0-0.5,0.1-1.1,0.4-1.5s0.8-0.7,1.4-0.6h2.5
	c1.8,0.1,3.5-0.4,5-1.4c1.4-1.1,2.1-2.8,2-4.5v-0.1c0.1-1.4-0.5-2.8-1.6-3.7c-1.4-1-3.2-1.5-4.9-1.4c-1.3,0-2.5,0.2-3.6,0.8
	c-1.1,0.5-2,1.3-2.8,2.2c-0.4,0.4-1,0.7-1.6,0.6c-0.6,0-1.1-0.3-1.5-0.8c-0.4-0.4-0.6-1-0.6-1.5c0-0.6,0.2-1.1,0.6-1.5
	c1.1-1.3,2.4-2.3,3.9-3C354.1,203.3,356.1,202.9,358,203z"/>
<path d="M433.7,203c4.5,0,7.8,1.5,9.8,4.4s3,7.2,3,12.7v2.4c0,5.5-1,9.8-3,12.7s-5.3,4.4-9.8,4.4s-7.8-1.5-9.8-4.4s-3-7.2-3-12.7
	v-2.4c0-5.5,1-9.8,3-12.7S429.2,203,433.7,203z M433.7,207.7c-1.3,0-2.5,0.2-3.7,0.8c-1,0.5-1.9,1.3-2.4,2.3c-0.7,1.2-1.1,2.6-1.3,4
	c-0.3,1.9-0.4,3.8-0.4,5.8v1.6c0,1.9,0.1,3.8,0.4,5.8c0.2,1.4,0.6,2.8,1.3,4c0.5,1,1.4,1.8,2.4,2.3c2.4,1,5,1,7.4,0
	c1-0.5,1.9-1.3,2.4-2.3c0.7-1.2,1.1-2.6,1.3-4c0.3-1.9,0.4-3.8,0.4-5.8v-1.6c0-1.9-0.1-3.8-0.4-5.8c-0.2-1.4-0.6-2.8-1.3-4
	c-0.5-1-1.4-1.8-2.4-2.3C436.3,207.9,435,207.6,433.7,207.7z"/>
<path d="M452.7,234.3c0.9,0,1.8,0.4,2.4,1c0.7,0.6,1,1.5,1,2.4c0,1.8-1.4,3.4-3.3,3.4h-0.1c-0.9,0-1.8-0.3-2.4-1
	c-0.6-0.6-1-1.5-1-2.4c-0.1-1.8,1.4-3.3,3.1-3.4C452.5,234.3,452.6,234.3,452.7,234.3L452.7,234.3z"/>
<path d="M477.5,203.7c0.5,0.3,0.9,0.8,1,1.4c0.1,0.6,0,1.3-0.5,1.8l-14.1,20.4H476v-9.1c-0.1-0.6,0.2-1.2,0.8-1.6
	c0.5-0.3,1.1-0.5,1.7-0.5s1.2,0.2,1.8,0.5c0.5,0.4,0.8,1,0.8,1.6v9.1h3.6c0.5-0.1,1,0.2,1.3,0.6c0.5,0.9,0.5,2,0,2.9
	c-0.3,0.4-0.8,0.7-1.3,0.6H481v5.8c0.1,0.6-0.2,1.2-0.8,1.6c-0.5,0.3-1.1,0.5-1.8,0.5c-0.6,0-1.2-0.2-1.7-0.5
	c-0.5-0.4-0.8-1-0.8-1.6v-5.8H461c-0.9,0.1-1.8-0.1-2.5-0.6c-0.5-0.5-0.8-1.1-0.8-1.9c0-0.3,0.1-0.7,0.2-1c0.3-0.7,0.7-1.3,1.1-1.9
	l15.1-21.7c0.3-0.5,0.8-0.9,1.5-1C476.4,203.2,477,203.4,477.5,203.7z"/>
<path d="M546,203c4.5,0,7.8,1.5,9.8,4.4s3,7.2,3,12.7v2.4c0,5.5-1,9.8-3,12.7s-5.3,4.4-9.8,4.4s-7.8-1.5-9.8-4.4s-3-7.2-3-12.7v-2.4
	c0-5.5,1-9.8,3-12.7S541.5,203,546,203z M546,207.7c-1.3,0-2.5,0.2-3.7,0.8c-1,0.5-1.9,1.3-2.4,2.3c-0.7,1.2-1.1,2.6-1.3,4
	c-0.3,1.9-0.4,3.8-0.4,5.8v1.6c0,1.9,0.1,3.8,0.4,5.8c0.2,1.4,0.6,2.8,1.3,4c0.5,1,1.4,1.8,2.4,2.3c2.4,1,5,1,7.4,0
	c1-0.5,1.9-1.3,2.4-2.3c0.7-1.2,1.1-2.6,1.3-4c0.3-1.9,0.4-3.8,0.4-5.8v-1.6c0-1.9-0.1-3.8-0.4-5.8c-0.2-1.4-0.6-2.8-1.3-4
	c-0.5-1-1.4-1.8-2.4-2.3C548.6,207.9,547.3,207.6,546,207.7z"/>
<path d="M565,234.3c0.9,0,1.8,0.4,2.4,1c0.7,0.6,1,1.5,1,2.4c0,1.8-1.4,3.4-3.3,3.4H565c-0.9,0-1.8-0.3-2.4-1c-0.6-0.6-1-1.5-1-2.4
	s0.3-1.7,0.9-2.4C563.2,234.6,564.1,234.3,565,234.3z"/>
<path d="M594.1,204.2c0.3,0.5,0.4,1,0.4,1.5s-0.1,1.1-0.4,1.5c-0.3,0.4-0.8,0.7-1.3,0.6h-13.5l-0.6,11c0.9-0.7,2-1.2,3.1-1.6
	c1.3-0.5,2.7-0.7,4.2-0.7c1.6,0,3.1,0.3,4.6,0.9c1.3,0.5,2.4,1.3,3.4,2.3c0.9,1,1.6,2.2,2.1,3.4c0.5,1.4,0.7,2.8,0.7,4.3v0.5
	c0,1.4-0.2,2.8-0.7,4.2c-0.4,1.4-1.2,2.7-2.2,3.7c-1.1,1.2-2.4,2.1-3.9,2.7c-1.8,0.7-3.8,1.1-5.8,1c-2.1,0-4.1-0.2-6.1-0.8
	c-1.7-0.5-3.3-1.2-4.7-2.1c-0.5-0.3-0.9-0.9-1-1.5s0-1.2,0.4-1.8c0.5-1,1.6-1.5,2.6-1c0.1,0.1,0.3,0.2,0.4,0.3
	c1.2,0.7,2.4,1.3,3.8,1.7c1.5,0.4,3,0.7,4.6,0.6c1.2,0,2.3-0.2,3.5-0.6c0.9-0.3,1.7-0.9,2.4-1.5c0.6-0.6,1.1-1.4,1.3-2.3
	c0.3-0.9,0.4-1.8,0.4-2.7v-0.4c0.1-1.9-0.5-3.8-1.9-5.2c-1.5-1.2-3.4-1.9-5.4-1.8c-1.2,0-2.4,0.2-3.5,0.6c-1,0.4-2,1-2.8,1.7
	c-0.3,0.3-0.7,0.6-1.1,0.8c-0.4,0.1-0.8,0.2-1.2,0.2c-0.6,0-1.1-0.1-1.5-0.5c-0.4-0.3-0.6-0.8-0.6-1.3l0.9-14.9
	c0-0.6,0.1-1.3,0.3-1.9c0.1-0.4,0.3-0.8,0.7-1.2c0.3-0.3,0.7-0.5,1.1-0.6c0.6-0.1,1.2-0.2,1.8-0.2h14.5
	C593.3,203.4,593.8,203.7,594.1,204.2z"/>
<path d="M655.8,203c4.5,0,7.8,1.5,9.8,4.4s3,7.2,3,12.7v2.4c0,5.5-1,9.8-3,12.7s-5.3,4.4-9.8,4.4s-7.8-1.5-9.8-4.4s-3-7.2-3-12.7
	v-2.4c0-5.5,1-9.8,3-12.7S651.2,203,655.8,203z M655.8,207.7c-1.3,0-2.5,0.2-3.7,0.8c-1,0.5-1.9,1.3-2.4,2.3c-0.7,1.2-1.1,2.6-1.3,4
	c-0.3,1.9-0.4,3.8-0.4,5.8v1.6c0,1.9,0.1,3.8,0.4,5.8c0.2,1.4,0.6,2.8,1.3,4c0.5,1,1.4,1.8,2.4,2.3c2.4,1,5,1,7.4,0
	c1-0.5,1.9-1.3,2.4-2.3c0.7-1.2,1.1-2.6,1.3-4c0.3-1.9,0.4-3.8,0.4-5.8v-1.6c0-1.9-0.1-3.8-0.4-5.8c-0.2-1.4-0.6-2.8-1.3-4
	c-0.5-1-1.4-1.8-2.4-2.3C658.3,207.9,657,207.6,655.8,207.7z"/>
<path d="M674.7,234.3c0.9,0,1.8,0.4,2.4,1c0.7,0.6,1,1.5,1,2.4c0,1.8-1.4,3.4-3.3,3.4h-0.1c-0.9,0-1.8-0.3-2.4-1
	c-0.7-0.6-1-1.5-1-2.4s0.3-1.8,1-2.4C673,234.6,673.8,234.3,674.7,234.3z"/>
<path d="M695.5,203c1.5,0,3,0.2,4.5,0.5c1.2,0.3,2.4,0.7,3.5,1.3c0.5,0.3,0.9,0.8,1.1,1.3c0.1,0.5,0.1,1.1-0.2,1.6
	c-0.2,0.5-0.6,1-1.2,1.2c-0.6,0.2-1.2,0.2-1.8-0.1c-0.9-0.4-1.9-0.8-2.8-1c-1.1-0.2-2.2-0.3-3.3-0.3c-5.3,0-8.2,4.1-8.8,12.4
	c0.9-1.3,2.2-2.4,3.7-3c1.6-0.7,3.3-1.1,5-1.1c1.6,0,3.2,0.2,4.7,0.8c1.3,0.5,2.5,1.3,3.5,2.3s1.7,2.3,2.2,3.6
	c0.5,1.5,0.8,3.1,0.8,4.7v0.8c0,1.6-0.3,3.2-0.9,4.7c-0.6,1.4-1.4,2.6-2.5,3.6s-2.5,1.9-3.9,2.4c-1.6,0.6-3.3,0.9-5,0.9
	c-4.1,0-7.2-1.3-9.3-3.9s-3.2-6.4-3.2-11.3V223c-0.1-3.3,0.2-6.5,1-9.7c0.5-2.2,1.5-4.3,2.9-6.2c1.1-1.5,2.7-2.6,4.4-3.3
	C691.7,203.3,693.6,202.9,695.5,203z M694.3,220.2c-1.1,0-2.2,0.2-3.3,0.6c-0.9,0.3-1.7,0.8-2.3,1.5c-0.6,0.6-1.1,1.4-1.4,2.2
	c-0.3,0.9-0.5,1.8-0.5,2.7v0.4c-0.1,2,0.6,4,2,5.5c1.4,1.4,3.4,2.1,5.3,2c2,0.1,4-0.6,5.5-1.9c1.4-1.4,2.1-3.4,2-5.4v-0.4
	C701.6,222.6,699.2,220.2,694.3,220.2L694.3,220.2z"/>
<path d="M763.5,203c4.5,0,7.8,1.5,9.8,4.4s3,7.2,3,12.7v2.4c0,5.5-1,9.8-3,12.7s-5.3,4.4-9.8,4.4s-7.8-1.5-9.8-4.4s-3-7.2-3-12.7
	v-2.4c0-5.5,1-9.8,3-12.7S759,203,763.5,203z M763.5,207.7c-1.3,0-2.5,0.2-3.7,0.8c-1,0.5-1.9,1.3-2.4,2.3c-0.7,1.2-1.1,2.6-1.3,4
	c-0.3,1.9-0.4,3.8-0.4,5.8v1.6c0,1.9,0.1,3.8,0.4,5.8c0.2,1.4,0.6,2.8,1.3,4c0.5,1,1.4,1.8,2.4,2.3c2.4,1,5,1,7.4,0
	c1-0.5,1.9-1.3,2.4-2.3c0.7-1.2,1.1-2.6,1.3-4c0.3-1.9,0.4-3.8,0.4-5.8v-1.6c0-1.9-0.1-3.8-0.4-5.8c-0.2-1.4-0.6-2.8-1.3-4
	c-0.5-1-1.4-1.8-2.4-2.3C766.1,207.9,764.8,207.6,763.5,207.7z"/>
<path d="M782.5,234.3c0.9,0,1.8,0.4,2.4,1c0.7,0.6,1,1.5,1,2.4c0,1.8-1.4,3.4-3.3,3.4h-0.1c-0.9,0-1.8-0.3-2.4-1
	c-0.6-0.6-1-1.5-1-2.4c-0.1-1.8,1.4-3.3,3.1-3.4C782.4,234.3,782.4,234.3,782.5,234.3L782.5,234.3z"/>
<path d="M813.3,204.2c0.6,0.5,0.8,1.2,0.8,2c0,0.2,0,0.4,0,0.7s-0.1,0.5-0.2,0.8c-0.1,0.3-0.2,0.6-0.4,1s-0.4,0.9-0.7,1.6
	l-12.6,27.8c-0.2,0.6-0.7,1.1-1.4,1.2c-0.6,0.1-1.2,0-1.8-0.2c-0.5-0.2-1-0.6-1.3-1.1c-0.3-0.6-0.3-1.3,0.1-1.9l13-28.1h-18.3
	c-0.5,0-1-0.2-1.3-0.6c-0.6-0.9-0.6-2.1,0-3c0.3-0.4,0.8-0.7,1.3-0.6h20C811.5,203.4,812.5,203.6,813.3,204.2z"/>
<path d="M875.3,203c4.5,0,7.8,1.5,9.8,4.4s3,7.2,3,12.7v2.4c0,5.5-1,9.8-3,12.7s-5.3,4.4-9.8,4.4s-7.8-1.5-9.8-4.4s-3-7.2-3-12.7
	v-2.4c0-5.5,1-9.8,3-12.7S870.8,203,875.3,203z M875.3,207.7c-1.3,0-2.5,0.2-3.7,0.8c-1,0.5-1.9,1.3-2.4,2.3c-0.7,1.2-1.1,2.6-1.3,4
	c-0.3,1.9-0.4,3.8-0.4,5.8v1.6c0,1.9,0.1,3.8,0.4,5.8c0.2,1.4,0.6,2.8,1.3,4c0.5,1,1.4,1.8,2.4,2.3c2.4,1,5,1,7.4,0
	c1-0.5,1.9-1.3,2.4-2.3c0.7-1.2,1.1-2.6,1.3-4c0.3-1.9,0.4-3.8,0.4-5.8v-1.6c0-1.9-0.1-3.8-0.4-5.8c-0.2-1.4-0.6-2.8-1.3-4
	c-0.5-1-1.4-1.8-2.4-2.3C877.9,207.9,876.6,207.6,875.3,207.7z"/>
<path d="M894.3,234.3c0.9,0,1.8,0.4,2.4,1c0.7,0.6,1,1.5,1,2.4c0,1.8-1.4,3.4-3.3,3.4h-0.1c-0.9,0-1.8-0.3-2.4-1
	c-0.6-0.6-1-1.5-1-2.4c-0.1-1.8,1.4-3.3,3.1-3.4C894.1,234.3,894.2,234.3,894.3,234.3L894.3,234.3z"/>
<path d="M913.3,203c1.6,0,3.2,0.2,4.7,0.8c1.3,0.5,2.5,1.2,3.5,2.1c0.9,0.8,1.7,1.9,2.2,3c0.5,1.2,0.8,2.4,0.8,3.7v0.4
	c0,1.6-0.5,3.1-1.3,4.4c-1,1.5-2.4,2.7-4,3.5c1.8,0.5,3.4,1.5,4.5,3c1.2,1.5,1.8,3.3,1.8,5.3v0.6c0,1.4-0.3,2.7-0.8,4
	c-0.5,1.2-1.4,2.3-2.4,3.1c-1.1,0.9-2.4,1.6-3.8,2c-1.6,0.5-3.4,0.8-5.1,0.8c-1.8,0-3.5-0.2-5.2-0.8c-1.4-0.4-2.7-1.1-3.8-2
	c-1-0.8-1.9-1.9-2.4-3.1c-0.6-1.3-0.8-2.6-0.8-4v-0.6c0-1,0.2-1.9,0.5-2.8c0.3-0.9,0.8-1.7,1.3-2.4c0.6-0.7,1.2-1.4,2-1.9
	s1.6-0.9,2.5-1.2c-1.6-0.7-3-1.9-4-3.4c-0.9-1.3-1.3-2.8-1.4-4.4v-0.4c0-1.3,0.2-2.5,0.7-3.7c0.5-1.1,1.2-2.2,2.1-3
	c1-0.9,2.2-1.6,3.5-2.1C910,203.2,911.6,202.9,913.3,203z M913.3,223.1c-0.9,0-1.8,0.1-2.7,0.4c-0.8,0.2-1.6,0.6-2.3,1.1
	s-1.2,1.2-1.5,1.9c-0.4,0.8-0.6,1.7-0.6,2.6v0.3c0,1.6,0.7,3.1,1.9,4.1c1.5,1.1,3.3,1.7,5.2,1.6c1.9,0.1,3.7-0.5,5.2-1.6
	c1.2-1,1.9-2.6,1.8-4.1v-0.3c0-0.9-0.2-1.8-0.5-2.6c-0.3-0.7-0.9-1.4-1.5-1.9c-0.7-0.5-1.4-0.9-2.2-1.1
	C915.2,223.2,914.3,223.1,913.3,223.1L913.3,223.1z M913.3,207.4c-1.6-0.1-3.2,0.4-4.4,1.4c-1.1,1-1.8,2.5-1.7,4v0.3
	c0,0.8,0.2,1.6,0.5,2.4c0.3,0.7,0.8,1.3,1.3,1.8c0.6,0.5,1.2,0.9,2,1.1c0.8,0.3,1.6,0.4,2.4,0.4c1.6,0,3.1-0.5,4.3-1.4
	c1.2-1,1.8-2.6,1.8-4.1V213c0.1-1.5-0.5-3-1.7-4C916.5,207.8,914.9,207.3,913.3,207.4L913.3,207.4z"/>
<path d="M1123.7,203.3c0.7,0,1.3,0.1,1.9,0.5c0.5,0.4,0.8,1,0.7,1.6v31.8c0.1,0.6-0.2,1.2-0.8,1.6c-1.1,0.7-2.4,0.7-3.5,0
	c-0.5-0.4-0.8-1-0.8-1.6v-28.1l-7.5,4.6c-0.5,0.4-1.2,0.4-1.8,0.2c-1.2-0.5-1.8-1.7-1.6-2.9c0.1-0.6,0.5-1.1,1-1.4l8.9-5.4
	c0.6-0.3,1.2-0.6,1.8-0.8C1122.6,203.4,1123.1,203.3,1123.7,203.3z"/>
<path d="M107.6,90.5c0.7,0,1.3,0.1,1.9,0.5c0.5,0.4,0.8,1,0.7,1.7v31.8c0,0.6-0.2,1.2-0.8,1.6c-1.1,0.7-2.4,0.7-3.5,0
	c-0.5-0.4-0.8-1-0.8-1.6v-28l-7.5,4.6c-0.5,0.4-1.2,0.4-1.8,0.2c-0.6-0.2-1-0.7-1.3-1.2s-0.4-1.1-0.3-1.7s0.5-1.1,1-1.4l9-5.3
	c0.6-0.3,1.2-0.6,1.8-0.8C106.5,90.6,107,90.5,107.6,90.5z"/>
<path d="M134.7,90.2c4.5,0,7.8,1.5,9.8,4.4s3,7.2,3,12.7v2.4c0,5.5-1,9.8-3,12.7s-5.3,4.4-9.8,4.4s-7.8-1.5-9.8-4.4s-3-7.2-3-12.7
	v-2.4c0-5.5,1-9.8,3-12.7C127,91.7,130.2,90.2,134.7,90.2z M134.7,94.9c-1.3,0-2.5,0.2-3.7,0.8c-1,0.5-1.9,1.3-2.4,2.3
	c-0.7,1.2-1.1,2.6-1.3,4c-0.3,1.9-0.4,3.8-0.4,5.8v1.7c0,1.9,0.1,3.8,0.4,5.8c0.2,1.4,0.6,2.8,1.3,4c0.5,1,1.4,1.8,2.4,2.3
	c2.4,1,5,1,7.4,0c1-0.5,1.9-1.3,2.4-2.3c0.7-1.2,1.1-2.6,1.3-4c0.3-1.9,0.4-3.8,0.4-5.8v-1.7c0-1.9-0.1-3.8-0.4-5.8
	c-0.2-1.4-0.6-2.8-1.3-4c-0.5-1-1.4-1.8-2.4-2.3C137.3,95.1,136,94.9,134.7,94.9z"/>
<path d="M122.8,22.3c0.7,0,1.3,0.1,1.9,0.5c0.5,0.4,0.8,1,0.7,1.7v31.8c0.1,0.6-0.2,1.2-0.8,1.6c-1.1,0.7-2.4,0.7-3.5,0
	c-0.5-0.4-0.8-1-0.8-1.6V28.2l-7.5,4.6c-0.5,0.4-1.2,0.4-1.8,0.2c-1.2-0.5-1.8-1.7-1.6-2.9c0.1-0.6,0.5-1.1,1-1.4l9-5.4
	c0.6-0.3,1.2-0.6,1.8-0.8C121.8,22.4,122.3,22.3,122.8,22.3z"/>
<line style="fill:none;stroke:#000000;stroke-width:2;stroke-miterlimit:10;" x1="79.5" y1="74.7" x2="159.5" y2="74.7"/>
<path d="M13.8,90.2c4.5,0,7.7,1.5,9.7,4.4s3,7.2,3,12.7v2.4c0,5.5-1,9.8-3,12.7s-5.3,4.4-9.8,4.4s-7.8-1.5-9.8-4.4s-3-7.2-3-12.7
	v-2.4c0-5.5,1-9.8,3-12.7S9.3,90.2,13.8,90.2z M13.8,94.9c-1.3,0-2.5,0.2-3.7,0.8c-1,0.5-1.9,1.3-2.4,2.3c-0.7,1.2-1.1,2.6-1.3,4
	c-0.3,1.9-0.4,3.8-0.4,5.7v1.7c0,1.9,0.1,3.8,0.4,5.8c0.2,1.4,0.6,2.8,1.3,4c0.5,1,1.4,1.8,2.4,2.3c1.2,0.5,2.4,0.8,3.7,0.8
	s2.5-0.2,3.7-0.8c1-0.5,1.9-1.3,2.4-2.3c0.7-1.2,1.1-2.6,1.3-4c0.3-1.9,0.4-3.8,0.4-5.8v-1.7c0-1.9-0.1-3.8-0.4-5.8
	c-0.2-1.4-0.6-2.8-1.3-4c-0.5-1-1.4-1.8-2.3-2.3C16.4,95.1,15.1,94.9,13.8,94.9z"/>
<path d="M219.4,90.5c0.7,0,1.3,0.1,1.9,0.5c0.5,0.4,0.8,1,0.7,1.7v31.8c0,0.6-0.2,1.2-0.8,1.6c-1.1,0.7-2.4,0.7-3.5,0
	c-0.5-0.4-0.8-1-0.8-1.6v-28l-7.5,4.6c-0.5,0.4-1.2,0.4-1.8,0.2c-1.2-0.5-1.8-1.7-1.6-2.9c0.1-0.6,0.5-1.1,1-1.4l9-5.3
	c0.6-0.3,1.2-0.6,1.8-0.8C218.3,90.6,218.8,90.5,219.4,90.5z"/>
<path d="M246.6,90.2c4.5,0,7.8,1.5,9.8,4.4c2,2.9,3,7.2,3,12.7v2.4c0,5.5-1,9.8-3,12.7c-2,2.9-5.3,4.4-9.8,4.4s-7.8-1.5-9.8-4.4
	s-3-7.2-3-12.7v-2.4c0-5.5,1-9.8,3-12.7S242,90.2,246.6,90.2z M246.6,94.9c-1.3,0-2.5,0.2-3.7,0.8c-1,0.5-1.8,1.3-2.4,2.3
	c-0.7,1.2-1.1,2.6-1.3,4c-0.3,1.9-0.4,3.8-0.4,5.8v1.7c0,1.9,0.1,3.8,0.4,5.8c0.2,1.4,0.6,2.8,1.3,4c0.5,1,1.4,1.8,2.4,2.3
	c2.4,1,5,1,7.4,0c1-0.5,1.8-1.3,2.4-2.3c0.7-1.2,1.1-2.6,1.3-4c0.3-1.9,0.4-3.8,0.4-5.8v-1.7c0-1.9-0.1-3.8-0.4-5.8
	c-0.2-1.4-0.6-2.8-1.3-4c-0.5-1-1.4-1.8-2.4-2.3C249.1,95.1,247.8,94.9,246.6,94.9z"/>
<path d="M231.1,22c1.7,0,3.3,0.2,4.9,0.7c1.3,0.4,2.5,1.1,3.5,1.9c0.9,0.8,1.6,1.8,2.1,2.9s0.7,2.3,0.7,3.5v0.5
	c0,1.8-0.4,3.6-1.2,5.3c-1,1.9-2.3,3.6-3.8,5l-11.5,12.1h16.3c0.5,0,1,0.2,1.3,0.6c0.6,0.9,0.6,2,0,2.9c-0.3,0.4-0.8,0.7-1.3,0.6
	h-19.3c-1,0.1-2-0.1-2.8-0.7c-0.9-0.9-1.1-2.2-0.5-3.3c0.3-0.5,0.7-1,1.1-1.5l12.2-12.9c0.8-0.8,1.5-1.6,2.2-2.5
	c0.5-0.6,0.9-1.3,1.3-2c0.3-0.6,0.5-1.2,0.7-1.8c0.1-0.6,0.2-1.3,0.2-1.9v-0.3c0.1-1.3-0.5-2.6-1.5-3.5c-1.3-1-2.9-1.4-4.5-1.3
	c-1.5-0.1-2.9,0.3-4.2,1c-1.2,0.8-2.2,1.8-3,3c-0.3,0.5-0.8,0.8-1.4,0.9c-0.6,0.1-1.2-0.1-1.6-0.4c-0.5-0.3-0.9-0.8-1-1.4
	s0-1.2,0.3-1.7c1.1-1.7,2.5-3.1,4.3-4.2C226.5,22.5,228.8,21.9,231.1,22z"/>
<line style="fill:none;stroke:#000000;stroke-width:2;stroke-miterlimit:10;" x1="191.3" y1="74.7" x2="271.3" y2="74.7"/>
<path d="M443.3,91.5c0.7,0,1.3,0.1,1.9,0.5c0.5,0.4,0.8,1,0.7,1.7v31.8c0,0.6-0.2,1.2-0.8,1.6c-1.1,0.7-2.4,0.7-3.5,0
	c-0.5-0.4-0.8-1-0.8-1.6v-28l-7.5,4.6c-0.5,0.4-1.2,0.4-1.8,0.2c-1.2-0.5-1.8-1.7-1.6-2.9c0.1-0.6,0.5-1.1,1-1.4l9-5.3
	c0.6-0.3,1.2-0.6,1.8-0.8C442.2,91.6,442.7,91.5,443.3,91.5z"/>
<path d="M470.4,91.2c4.5,0,7.8,1.5,9.8,4.4s3,7.2,3,12.7v2.4c0,5.5-1,9.8-3,12.7c-2,2.9-5.3,4.4-9.8,4.4s-7.8-1.5-9.8-4.4
	s-3-7.2-3-12.7v-2.4c0-5.5,1-9.8,3-12.7S465.9,91.2,470.4,91.2z M470.4,95.9c-1.3,0-2.5,0.2-3.7,0.8c-1,0.5-1.9,1.3-2.4,2.3
	c-0.7,1.2-1.1,2.6-1.3,4c-0.3,1.9-0.4,3.8-0.4,5.8v1.7c0,1.9,0.1,3.8,0.4,5.8c0.2,1.4,0.6,2.8,1.3,4c0.5,1,1.4,1.8,2.4,2.3
	c2.4,1,5,1,7.4,0c1-0.5,1.9-1.3,2.4-2.3c0.7-1.2,1.1-2.6,1.3-4c0.3-1.9,0.4-3.8,0.4-5.8v-1.7c0-1.9-0.1-3.8-0.4-5.8
	c-0.2-1.4-0.6-2.8-1.3-4c-0.5-1-1.4-1.8-2.4-2.3C473,96.1,471.7,95.9,470.4,95.9z"/>
<path d="M461,23.7c0.5,0.3,0.9,0.8,1,1.4c0.2,0.6,0,1.3-0.5,1.8l-14.1,20.4h12.1v-9.1c-0.1-0.6,0.2-1.2,0.8-1.6
	c0.5-0.3,1.1-0.5,1.7-0.5s1.2,0.2,1.8,0.5c0.5,0.4,0.8,1,0.8,1.6v9.1h3.6c0.5-0.1,1,0.2,1.3,0.6c0.5,0.9,0.5,2,0,2.9
	c-0.3,0.4-0.8,0.7-1.3,0.6h-3.6v5.9c0.1,0.6-0.2,1.2-0.8,1.6c-0.5,0.3-1.1,0.5-1.8,0.5c-0.6,0-1.2-0.2-1.7-0.5
	c-0.5-0.4-0.8-1-0.8-1.6v-5.8h-14.9c-0.9,0.1-1.8-0.1-2.5-0.6c-0.5-0.5-0.8-1.1-0.8-1.8c0-0.3,0.1-0.7,0.2-1
	c0.3-0.7,0.7-1.3,1.1-1.9l15.1-21.8c0.3-0.5,0.8-0.9,1.5-1C459.9,23.2,460.5,23.4,461,23.7z"/>
<line style="fill:none;stroke:#000000;stroke-width:2;stroke-miterlimit:10;" x1="415.2" y1="75.7" x2="495.2" y2="75.7"/>
<path d="M555.5,91.5c0.7,0,1.3,0.1,1.9,0.5c0.5,0.4,0.8,1,0.7,1.7v31.8c0,0.6-0.2,1.2-0.8,1.6c-1.1,0.7-2.4,0.7-3.5,0
	c-0.5-0.4-0.8-1-0.8-1.6v-28l-7.5,4.6c-0.5,0.4-1.2,0.4-1.8,0.2c-0.6-0.2-1-0.7-1.3-1.2s-0.4-1.1-0.3-1.7c0.1-0.6,0.5-1.1,1-1.4
	l9-5.3c0.6-0.3,1.2-0.6,1.8-0.8C554.5,91.6,555,91.5,555.5,91.5z"/>
<path d="M582.7,91.2c4.5,0,7.8,1.5,9.8,4.4s3,7.2,3,12.7v2.4c0,5.5-1,9.8-3,12.7s-5.3,4.4-9.8,4.4s-7.8-1.5-9.8-4.4s-3-7.2-3-12.7
	v-2.4c0-5.5,1-9.8,3-12.7S578.2,91.2,582.7,91.2z M582.7,95.9c-1.3,0-2.5,0.2-3.7,0.8c-1,0.5-1.9,1.3-2.4,2.3
	c-0.7,1.2-1.1,2.6-1.3,4c-0.3,1.9-0.4,3.8-0.4,5.8v1.7c0,1.9,0.1,3.8,0.4,5.8c0.2,1.4,0.6,2.8,1.3,4c0.5,1,1.4,1.8,2.4,2.3
	c2.4,1,5,1,7.4,0c1-0.5,1.9-1.3,2.4-2.3c0.7-1.2,1.1-2.6,1.3-4c0.3-1.9,0.4-3.8,0.4-5.8v-1.7c0-1.9-0.1-3.8-0.4-5.8
	c-0.2-1.4-0.6-2.8-1.3-4c-0.5-1-1.4-1.8-2.4-2.3C585.3,96.1,584,95.9,582.7,95.9z"/>
<path d="M577.6,24.2c0.3,0.5,0.4,1,0.4,1.5s-0.1,1.1-0.4,1.5c-0.3,0.4-0.8,0.7-1.3,0.6h-13.6l-0.6,11.1c0.9-0.7,1.9-1.2,3-1.6
	c1.3-0.5,2.7-0.7,4.2-0.7c1.6,0,3.1,0.3,4.6,0.9c1.3,0.5,2.4,1.3,3.4,2.3c0.9,1,1.6,2.2,2.1,3.4c0.5,1.4,0.7,2.8,0.7,4.3V48
	c0,1.4-0.2,2.8-0.7,4.2s-1.2,2.7-2.2,3.7c-1.1,1.2-2.4,2.1-3.9,2.7c-1.8,0.7-3.8,1.1-5.8,1c-2,0-4.1-0.2-6.1-0.8
	c-1.7-0.5-3.3-1.2-4.7-2.1c-0.5-0.3-0.9-0.9-1-1.5s0-1.2,0.4-1.8c0.5-1,1.7-1.4,2.7-1c0.1,0.1,0.2,0.1,0.3,0.2
	c1.2,0.7,2.4,1.3,3.8,1.7c1.5,0.4,3,0.7,4.6,0.6c1.2,0,2.3-0.2,3.5-0.6c0.9-0.3,1.7-0.9,2.4-1.6c0.6-0.6,1.1-1.4,1.3-2.3
	c0.3-0.9,0.4-1.8,0.4-2.7v-0.4c0.1-1.9-0.5-3.8-1.9-5.2c-1.5-1.2-3.4-1.9-5.3-1.8c-1.2,0-2.4,0.2-3.5,0.7c-1,0.4-2,1-2.8,1.7
	c-0.3,0.3-0.7,0.6-1.1,0.8c-0.4,0.1-0.8,0.2-1.2,0.2c-0.6,0-1.1-0.1-1.5-0.5c-0.4-0.3-0.6-0.8-0.5-1.3l0.8-14.9
	c0-0.6,0.1-1.3,0.3-1.9c0.1-0.4,0.4-0.9,0.7-1.2c0.3-0.3,0.7-0.5,1.1-0.6c0.6-0.1,1.2-0.2,1.8-0.2h14.5
	C576.8,23.5,577.3,23.7,577.6,24.2z"/>
<line style="fill:none;stroke:#000000;stroke-width:2;stroke-miterlimit:10;" x1="527.5" y1="75.7" x2="607.5" y2="75.7"/>
<path d="M773.1,91.5c0.7,0,1.3,0.1,1.9,0.5c0.5,0.4,0.8,1,0.7,1.7v31.8c0,0.6-0.2,1.2-0.8,1.6c-1.1,0.7-2.4,0.7-3.5,0
	c-0.5-0.4-0.8-1-0.8-1.6v-28l-7.5,4.6c-0.5,0.4-1.2,0.4-1.8,0.2c-1.2-0.5-1.8-1.7-1.6-2.9c0.1-0.6,0.5-1.1,1-1.4l9-5.3
	c0.6-0.3,1.2-0.6,1.8-0.8C772,91.6,772.5,91.5,773.1,91.5z"/>
<path d="M800.3,91.2c4.5,0,7.8,1.5,9.8,4.4s3,7.2,3,12.7v2.4c0,5.5-1,9.8-3,12.7s-5.3,4.4-9.8,4.4s-7.8-1.5-9.8-4.4s-3-7.2-3-12.7
	v-2.4c0-5.5,1-9.8,3-12.7S795.7,91.2,800.3,91.2z M800.3,95.9c-1.3,0-2.5,0.2-3.7,0.8c-1,0.5-1.9,1.3-2.4,2.3
	c-0.7,1.2-1.1,2.6-1.3,4c-0.3,1.9-0.4,3.8-0.3,5.7v1.7c0,1.9,0.1,3.8,0.4,5.8c0.2,1.4,0.6,2.8,1.3,4c0.5,1,1.4,1.8,2.4,2.3
	c2.4,1,5,1,7.4,0c1-0.5,1.9-1.3,2.4-2.3c0.7-1.2,1.1-2.6,1.3-4c0.3-1.9,0.4-3.8,0.4-5.8v-1.7c0-1.9-0.1-3.8-0.4-5.8
	c-0.2-1.4-0.6-2.8-1.3-4c-0.5-1-1.4-1.8-2.4-2.3C802.8,96.1,801.5,95.8,800.3,95.9z"/>
<path d="M796.8,24.2c0.6,0.5,0.9,1.3,0.8,2c0,0.2,0,0.5,0,0.7c0,0.3-0.1,0.5-0.2,0.8c-0.1,0.3-0.2,0.6-0.4,1l-0.7,1.6l-12.6,27.8
	c-0.2,0.6-0.7,1.1-1.4,1.2c-0.6,0.1-1.2,0-1.8-0.2c-0.5-0.2-1-0.6-1.3-1.2c-0.3-0.6-0.3-1.3,0.1-1.9l13-28.1H774
	c-0.5,0-1-0.2-1.3-0.6s-0.4-1-0.4-1.5s0.1-1.1,0.4-1.5c0.3-0.4,0.8-0.7,1.3-0.6h20C795,23.5,796,23.7,796.8,24.2z"/>
<line style="fill:none;stroke:#000000;stroke-width:2;stroke-miterlimit:10;" x1="745" y1="75.7" x2="825" y2="75.7"/>
<path d="M884.9,91.5c0.7,0,1.3,0.1,1.9,0.5c0.5,0.4,0.8,1,0.7,1.7v31.8c0,0.6-0.2,1.2-0.8,1.6c-1.1,0.7-2.4,0.7-3.5,0
	c-0.5-0.4-0.8-1-0.8-1.6v-28L875,102c-0.5,0.4-1.2,0.4-1.8,0.2c-1.2-0.5-1.8-1.7-1.6-2.9c0.1-0.6,0.5-1.1,1-1.4l9-5.3
	c0.6-0.3,1.2-0.6,1.8-0.8C883.8,91.6,884.3,91.5,884.9,91.5z"/>
<path d="M912.1,91.2c4.5,0,7.8,1.5,9.8,4.4s3,7.2,3,12.7v2.4c0,5.5-1,9.8-3,12.7s-5.3,4.4-9.8,4.4s-7.8-1.5-9.8-4.4s-3-7.2-3-12.7
	v-2.4c0-5.5,1-9.8,3-12.7S907.6,91.2,912.1,91.2z M912.1,95.9c-1.3,0-2.5,0.2-3.7,0.8c-1,0.5-1.9,1.3-2.4,2.3
	c-0.7,1.2-1.1,2.6-1.3,4c-0.3,1.9-0.4,3.8-0.4,5.8v1.7c0,1.9,0.1,3.8,0.4,5.8c0.2,1.4,0.6,2.8,1.3,4c0.5,1,1.4,1.8,2.4,2.3
	c2.4,1,5,1,7.4,0c1-0.5,1.9-1.3,2.4-2.3c0.7-1.2,1.1-2.6,1.3-4c0.3-1.9,0.4-3.8,0.4-5.8v-1.7c0-1.9-0.1-3.8-0.4-5.8
	c-0.2-1.4-0.6-2.8-1.3-4c-0.5-1-1.4-1.8-2.4-2.3C914.6,96.1,913.3,95.9,912.1,95.9z"/>
<path d="M896.8,23c1.6,0,3.2,0.2,4.7,0.8c1.3,0.5,2.5,1.2,3.5,2.1c0.9,0.8,1.7,1.9,2.2,3c0.5,1.2,0.8,2.4,0.8,3.7V33
	c0,1.6-0.5,3.1-1.3,4.4c-1,1.5-2.4,2.7-4,3.5c1.8,0.5,3.4,1.6,4.5,3c1.2,1.5,1.8,3.3,1.8,5.3v0.6c0,1.4-0.3,2.7-0.8,4
	c-0.5,1.2-1.4,2.3-2.4,3.1c-1.1,0.9-2.4,1.6-3.8,2c-1.6,0.5-3.4,0.8-5.1,0.8c-1.8,0-3.5-0.2-5.2-0.8c-1.4-0.4-2.7-1.1-3.8-2
	c-1-0.8-1.9-1.9-2.4-3.1c-0.6-1.3-0.8-2.6-0.8-4v-0.6c0-1,0.2-1.9,0.5-2.8c0.3-0.9,0.8-1.7,1.4-2.4c0.6-0.7,1.2-1.4,2-1.9
	s1.6-0.9,2.5-1.2c-1.6-0.7-3-1.9-4-3.4c-0.9-1.3-1.4-2.9-1.4-4.4v-0.5c0-1.3,0.2-2.5,0.7-3.7c0.5-1.1,1.2-2.2,2.1-3
	c1-0.9,2.2-1.6,3.5-2.1C893.5,23.3,895.2,23,896.8,23z M896.9,43.1c-0.9,0-1.8,0.1-2.7,0.4c-0.8,0.2-1.6,0.6-2.3,1.1
	s-1.2,1.2-1.5,1.9c-0.4,0.8-0.6,1.7-0.6,2.6v0.3c0,1.6,0.7,3.1,1.9,4.2c1.5,1.1,3.3,1.7,5.2,1.6c1.9,0.1,3.7-0.5,5.2-1.6
	c1.2-1,1.9-2.6,1.8-4.1v-0.3c0-0.9-0.2-1.8-0.5-2.6c-0.3-0.7-0.8-1.4-1.5-1.9s-1.4-0.9-2.2-1.2C898.7,43.3,897.8,43.1,896.9,43.1z
	 M896.8,27.4c-1.6-0.1-3.2,0.4-4.4,1.5c-1.1,1-1.8,2.5-1.7,4v0.3c0,0.8,0.2,1.6,0.5,2.4c0.3,0.7,0.8,1.3,1.3,1.8
	c0.6,0.5,1.3,0.9,2,1.1c0.8,0.3,1.6,0.4,2.4,0.4c1.6,0,3.1-0.5,4.3-1.5s1.8-2.6,1.8-4.1V33c0.1-1.5-0.5-3-1.6-4
	C900.1,27.8,898.5,27.3,896.8,27.4z"/>
<line style="fill:none;stroke:#000000;stroke-width:2;stroke-miterlimit:10;" x1="856.8" y1="75.7" x2="936.8" y2="75.7"/>
<path d="M998,91.5c0.7,0,1.3,0.1,1.9,0.5c0.5,0.4,0.8,1,0.7,1.7v31.8c0,0.6-0.2,1.2-0.8,1.6c-1.1,0.7-2.4,0.7-3.5,0
	c-0.5-0.4-0.8-1-0.8-1.6v-28l-7.5,4.6c-0.5,0.4-1.2,0.4-1.8,0.2c-0.6-0.2-1-0.7-1.3-1.2s-0.4-1.1-0.3-1.7c0.1-0.6,0.5-1.1,1-1.4
	l9-5.3c0.6-0.3,1.2-0.6,1.8-0.8C997,91.6,997.5,91.5,998,91.5z"/>
<path d="M1025.2,91.2c4.5,0,7.8,1.5,9.8,4.4s3,7.2,3,12.7v2.4c0,5.5-1,9.8-3,12.7s-5.3,4.4-9.8,4.4s-7.8-1.5-9.8-4.4s-3-7.2-3-12.7
	v-2.4c0-5.5,1-9.8,3-12.7C1017.4,92.7,1020.7,91.2,1025.2,91.2z M1025.2,95.9c-1.3,0-2.5,0.2-3.7,0.8c-1,0.5-1.9,1.3-2.4,2.3
	c-0.7,1.2-1.1,2.6-1.3,4c-0.3,1.9-0.4,3.8-0.4,5.8v1.7c0,1.9,0.1,3.8,0.4,5.8c0.2,1.4,0.6,2.8,1.3,4c0.5,1,1.4,1.8,2.4,2.3
	c2.4,1,5,1,7.4,0c1-0.5,1.9-1.3,2.4-2.3c0.7-1.2,1.1-2.6,1.3-4c0.3-1.9,0.4-3.8,0.4-5.8v-1.7c0-1.9-0.1-3.8-0.4-5.8
	c-0.2-1.4-0.6-2.8-1.3-4c-0.5-1-1.4-1.8-2.4-2.3C1027.8,96.1,1026.5,95.9,1025.2,95.9z"/>
<path d="M1009.7,23c4.2,0,7.3,1.3,9.4,3.9s3.2,6.3,3.2,11.2v1.5c0.1,3.3-0.3,6.6-1,9.9c-0.5,2.2-1.4,4.3-2.8,6.2
	c-1.1,1.5-2.6,2.6-4.4,3.2c-1.9,0.6-3.8,0.9-5.8,0.9c-1.5,0-3-0.1-4.5-0.5c-1.2-0.3-2.4-0.7-3.5-1.3c-0.5-0.3-1-0.7-1.2-1.3
	c-0.1-0.6-0.1-1.2,0.2-1.7c0.2-0.5,0.6-1,1.2-1.2c0.6-0.2,1.2-0.2,1.8,0.1c0.9,0.4,1.9,0.8,2.9,1c1.1,0.2,2.2,0.4,3.3,0.3
	c1.2,0,2.5-0.2,3.7-0.7c1.1-0.4,2-1.2,2.6-2.1c0.8-1.2,1.4-2.5,1.7-3.8c0.4-1.9,0.7-3.8,0.7-5.8c-0.9,1.3-2.2,2.4-3.7,3
	c-1.6,0.7-3.3,1.1-5,1.1c-1.6,0-3.2-0.2-4.7-0.8c-1.3-0.5-2.5-1.3-3.5-2.3s-1.8-2.2-2.3-3.6c-0.5-1.5-0.8-3.1-0.8-4.7v-0.8
	c0-1.6,0.3-3.2,0.9-4.7c1.1-2.8,3.4-5,6.3-6.1C1006.2,23.3,1007.9,23,1009.7,23z M1009.8,27.5c-2-0.1-4,0.6-5.5,1.9
	c-1.4,1.4-2.1,3.4-2,5.4v0.4c0,4.8,2.4,7.3,7.3,7.3c1.1,0,2.2-0.2,3.3-0.5c0.9-0.3,1.7-0.8,2.3-1.5c0.6-0.6,1.1-1.4,1.4-2.2
	c0.3-0.9,0.5-1.8,0.5-2.7v-0.4c0.1-2-0.6-4-1.9-5.5C1013.7,28.2,1011.8,27.4,1009.8,27.5L1009.8,27.5z"/>
<line style="fill:none;stroke:#000000;stroke-width:2;stroke-miterlimit:10;" x1="970" y1="75.7" x2="1050" y2="75.7"/>
<path d="M1123.7,90.5c0.7,0,1.3,0.1,1.9,0.5c0.5,0.4,0.8,1,0.7,1.7v31.8c0,0.6-0.2,1.2-0.8,1.6c-1.1,0.7-2.4,0.7-3.5,0
	c-0.5-0.4-0.8-1-0.8-1.6v-28l-7.5,4.6c-0.5,0.4-1.2,0.4-1.8,0.2c-0.6-0.2-1-0.7-1.3-1.2s-0.4-1.1-0.3-1.7s0.5-1.1,1-1.4l8.9-5.3
	c0.6-0.3,1.2-0.6,1.8-0.8C1122.6,90.6,1123.1,90.5,1123.7,90.5z"/>
<line style="fill:none;stroke:#000000;stroke-width:2;stroke-miterlimit:10;" x1="294.3" y1="75.4" x2="394.3" y2="75.4"/>
<line style="fill:none;stroke:#000000;stroke-width:2;stroke-miterlimit:10;" x1="626.7" y1="75.4" x2="726.7" y2="75.4"/>
</svg>
