<?xml version="1.0" encoding="utf-8"?>
<!-- Generator: Adobe Illustrator 23.1.0, SVG Export Plug-In . SVG Version: 6.00 Build 0)  -->
<svg version="1.1" id="레이어_1" xmlns="http://www.w3.org/2000/svg" xmlns:xlink="http://www.w3.org/1999/xlink" x="0px"
	 y="0px" width="520px" height="50px" viewBox="0 0 520 50" style="enable-background:new 0 0 520 50;" xml:space="preserve">
<g>
	<path style="fill:#F9A75F;" d="M57.5,19.1C57.5,9.1,47.9,1,36.1,1H22.4C10.6,1,1,9.1,1,19.1c0,10,9.6,18.1,21.4,18.1h0.8l11.6,9.5
		c0.5,0.4,1.4,1.4,2.1,1.4c0.3,0,1-0.4,1.3-0.5c1-0.3,1-1.4,1-2.2v-8.3C49.7,35.8,57.5,28.3,57.5,19.1"/>
</g>
<g>
	<path style="fill:#231F20;" d="M29.5,26.4c-0.7,0-1-0.4-1-1.1c0-0.2,0-0.6,0-1.3s0-1.4,0-2.3s0-1.8,0-2.8c0-1,0-2,0-2.9
		c0-0.9,0-1.7,0-2.4s0-1.2,0-1.4c-1.2,0.1-2.5,0.1-3.8,0.1s-2.6,0-3.8,0c-0.6,0-0.9-0.4-0.9-1.1c0-0.4,0.1-0.6,0.3-0.8
		c0.2-0.2,0.4-0.2,0.6-0.3c1.6-0.1,3.2-0.2,4.8-0.2c1.6-0.1,3.1-0.1,4.6-0.1c0.3,0,0.5,0.1,0.6,0.2c0.1,0.2,0.2,0.4,0.2,0.7
		s0,0.9,0,1.6c0,0.8,0,1.6,0,2.6s0,2,0,3c0,1.1,0,2.1-0.1,3c0,1-0.1,1.8-0.1,2.6c0,0.7-0.1,1.3-0.1,1.6c0,0.4-0.2,0.7-0.4,0.8
		C30.2,26.3,29.9,26.4,29.5,26.4z M37.6,19.1c-0.3,0-0.5,0-0.7,0c-0.1,1.5-0.1,2.9-0.2,4.4c-0.1,1.4-0.1,2.8-0.2,4.1
		c0,0.5-0.2,0.8-0.4,1c-0.2,0.2-0.5,0.3-0.8,0.2c-0.4,0-0.6-0.2-0.8-0.4c-0.2-0.2-0.3-0.6-0.3-1.2c0-5.6,0.1-11.2,0.3-16.7
		c0-0.5,0.1-0.8,0.3-1c0.2-0.2,0.5-0.3,1-0.3c0.8,0,1.2,0.4,1.2,1.3c0,1,0,2,0,3.1c0,1,0,2.1-0.1,3.2c0.2,0,0.5,0,0.7,0
		c0.2,0,0.5,0,0.7,0s0.4,0,0.6,0s0.3,0,0.4,0c0.3,0,0.6,0.1,0.7,0.2c0.1,0.2,0.2,0.4,0.2,0.8c0,0.4-0.1,0.7-0.2,0.9
		c-0.1,0.2-0.3,0.3-0.6,0.4c-0.1,0-0.3,0-0.5,0c-0.2,0-0.4,0-0.6,0S37.8,19.1,37.6,19.1z"/>
</g>
<g>
	<path style="fill:#F9A75F;" d="M287.5,19.1c0-10-9.6-18.1-21.4-18.1h-13.7C240.6,1,231,9.1,231,19.1c0,10,9.6,18.1,21.4,18.1h0.8
		l11.6,9.5c0.5,0.4,1.4,1.4,2.1,1.4c0.3,0,1-0.4,1.3-0.5c1-0.3,1-1.4,1-2.2v-8.3C279.7,35.8,287.5,28.3,287.5,19.1"/>
</g>
<g>
	<path style="fill:#231F20;" d="M253.2,10.4c0.2,0.2,0.3,0.4,0.4,0.8c0,1,0.1,2,0.1,3c0,1,0.1,2,0.1,3s0.1,1.9,0.1,2.9
		c0,0.9,0.1,1.8,0.1,2.6c0,0.2,0.1,0.3,0.2,0.3c1.2-0.1,2.4-0.2,3.7-0.3c1.3-0.1,2.5-0.2,3.7-0.3c0.3,0,0.5,0,0.7,0.2
		s0.3,0.4,0.3,0.9c0,0.3-0.1,0.6-0.2,0.8s-0.3,0.3-0.6,0.3c-0.6,0.1-1.2,0.2-1.9,0.3c-0.7,0.1-1.4,0.2-2.1,0.2
		c-0.7,0.1-1.5,0.1-2.3,0.2c-0.8,0-1.5,0.1-2.2,0.1c-0.5,0-0.9-0.1-1.3-0.3c-0.3-0.2-0.5-0.6-0.5-1.1c0-0.5-0.1-1-0.1-1.7
		c0-0.7-0.1-1.4-0.1-2.1c0-0.8-0.1-1.5-0.1-2.3c0-0.8-0.1-1.6-0.1-2.4c0-0.8-0.1-1.5-0.1-2.1c0-0.7-0.1-1.2-0.1-1.7
		c0-0.2,0-0.3,0-0.5c0-0.1,0.1-0.3,0.2-0.4c0.1-0.1,0.2-0.2,0.4-0.2c0.2-0.1,0.4-0.1,0.7-0.1C252.6,10.2,253,10.3,253.2,10.4z
		 M267.7,19.1c-0.3,0-0.6,0-0.8,0c-0.1,1.5-0.1,2.9-0.2,4.4c-0.1,1.4-0.1,2.8-0.2,4.1c0,0.5-0.2,0.8-0.4,1c-0.2,0.2-0.5,0.3-0.8,0.2
		c-0.4,0-0.6-0.2-0.8-0.4c-0.2-0.2-0.3-0.6-0.3-1.2c0-5.6,0.1-11.2,0.3-16.7c0-0.5,0.1-0.8,0.3-1c0.2-0.2,0.5-0.3,1-0.3
		c0.8,0,1.2,0.4,1.2,1.3c0,1,0,2,0,3.1c0,1.1,0,2.1-0.1,3.2c0.2,0,0.5,0,0.8,0c0.3,0,0.5,0,0.8,0c0.3,0,0.5,0,0.7,0
		c0.2,0,0.3,0,0.4,0c0.3,0,0.6,0.1,0.7,0.2c0.1,0.2,0.2,0.4,0.2,0.8c0,0.4-0.1,0.7-0.2,0.9c-0.1,0.2-0.3,0.3-0.6,0.4
		c-0.1,0-0.3,0-0.5,0c-0.2,0-0.5,0-0.8,0C268.3,19.1,268,19.1,267.7,19.1z"/>
</g>
<g>
	<path style="fill:#F9A75F;" d="M518.3,19.1c0-10-9.6-18.1-21.4-18.1h-13.7c-11.8,0-21.4,8.1-21.4,18.1c0,10,9.6,18.1,21.4,18.1h0.8
		l11.6,9.5c0.5,0.4,1.4,1.4,2.1,1.4c0.3,0,1-0.4,1.3-0.5c1-0.3,1-1.4,1-2.2v-8.3C510.5,35.8,518.3,28.3,518.3,19.1"/>
</g>
<g>
	<path style="fill:#231F20;" d="M484.4,23.2c0,0.2,0.1,0.3,0.2,0.3c0.6-0.1,1.3-0.1,1.9-0.2c0.7-0.1,1.4-0.1,2.1-0.2
		c0.7-0.1,1.4-0.1,2.1-0.2c0.7-0.1,1.3-0.1,1.9-0.2c0.3,0,0.5,0,0.7,0.2c0.1,0.1,0.2,0.4,0.2,0.8c0,0.4,0,0.7-0.2,0.9
		S493,25,492.7,25c-1.6,0.2-3.1,0.3-4.6,0.5s-3,0.2-4.5,0.3c-0.5,0-0.9-0.1-1.2-0.4c-0.3-0.3-0.5-0.7-0.5-1.3c0-0.3,0-0.8,0-1.5
		c0-0.7,0-1.4,0-2.3c0-0.9,0-1.8,0-2.7c0-0.9,0-1.8,0-2.7c0-0.9,0-1.6,0-2.3c0-0.7,0-1.2,0-1.5s0.1-0.6,0.2-0.7
		c0.1-0.1,0.3-0.2,0.6-0.2c1.5-0.1,3.1-0.1,4.7-0.2s3.3-0.1,4.9-0.2c0.5,0,0.8,0.4,0.8,1.1c0,0.4-0.1,0.7-0.2,0.8
		c-0.1,0.2-0.3,0.3-0.6,0.3c-0.6,0.1-1.3,0.1-1.9,0.1s-1.3,0.1-2,0.1c-0.7,0-1.3,0.1-2,0.1c-0.7,0-1.3,0.1-1.9,0.1
		c0,0.2,0,0.6,0,1.1s0,1.2,0,2c0,0.7,0,1.5,0,2.4s0,1.6,0,2.3c0,0.7,0,1.3,0,1.9C484.4,22.7,484.4,23,484.4,23.2z M498.9,19.1
		c-0.3,0-0.5,0-0.7,0c-0.1,1.5-0.1,2.9-0.2,4.4s-0.1,2.8-0.2,4.1c0,0.5-0.2,0.8-0.4,1c-0.2,0.2-0.5,0.3-0.8,0.2
		c-0.4,0-0.6-0.2-0.8-0.4c-0.2-0.2-0.3-0.6-0.3-1.2c0-5.6,0.1-11.2,0.3-16.7c0-0.5,0.1-0.8,0.3-1c0.2-0.2,0.5-0.3,1-0.3
		c0.8,0,1.2,0.4,1.2,1.3c0,1,0,2,0,3.1c0,1,0,2.1-0.1,3.2c0.2,0,0.5,0,0.7,0c0.2,0,0.5,0,0.7,0c0.2,0,0.4,0,0.6,0s0.3,0,0.4,0
		c0.3,0,0.6,0.1,0.7,0.2c0.1,0.2,0.2,0.4,0.2,0.8c0,0.4-0.1,0.7-0.2,0.9c-0.1,0.2-0.3,0.3-0.6,0.4c-0.1,0-0.3,0-0.5,0
		c-0.2,0-0.4,0-0.6,0S499.1,19.1,498.9,19.1z"/>
</g>
</svg>
