
<svg xmlns="http://www.w3.org/2000/svg" version="1.1" xmlns:xlink="http://www.w3.org/1999/xlink" preserveAspectRatio="none" x="0px" y="0px" width="1200px" height="460px" viewBox="0 0 1200 460">
<defs>
<radialGradient id="Gradient_1" gradientUnits="userSpaceOnUse" cx="0" cy="0" r="7.8500000000000005" fx="0" fy="0" gradientTransform="matrix( 1, 0, 0, 1, 0,0) " spreadMethod="pad">
<stop  offset="0%" stop-color="#987EEE"/>

<stop  offset="100%" stop-color="#7254CD"/>
</radialGradient>

<g id="Layer0_0_FILL">
<path fill="#BEE5FC" stroke="none" d="
M 635 346.15
Q 635 331.15 620 331.15
L 580 331.15
Q 578.25 331.15 576.7 331.35 565.365625 332.8515625 565 345.3
L 565 427
Q 565.365625 439.4984375 576.7 441 578.25 441.2 580 441.2
L 620 441.2
Q 635 441.2 635 426.2
L 635 420.6 635 346.15
M 599 345.85
Q 600.95 345.85 602.55 346.4 604.2 346.95 605.35 348 606.5 349.05 607.2 350.65 607.9 352.25 607.9 354.35 607.9 356.15 607.1 358 606.3 359.85 605.1 361.65 603.9 363.4 602.55 365.05 601.15 366.65 600.05 367.95 599.2 369.05 598.2 370.25 597.2 371.4 596.2 372.55
L 607.95 372.55
Q 608.5 372.55 608.5 373.15
L 608.5 375.95
Q 608.5 376.65 607.95 376.65
L 590.9 376.65
Q 590.15 376.65 590.15 376.15
L 590.15 373.85
Q 590.15 373.55 590.3 373.2 590.5 372.9 590.7 372.6
L 596.8 365.35
Q 600.15 361.4 601.75 358.75 603.35 356.15 603.35 354.45 603.35 352.55 602.15 351.3 601 350.05 599.25 350.05 597.6 350.05 596.05 350.5 594.55 350.95 592.75 352 592.4 352.2 592.1 352.2 591.8 352.15 591.7 351.8
L 591.15 348.75
Q 591.05 348.55 591.15 348.4 591.3 348.15 591.7 347.95 593.2 347.15 595.15 346.5 597.15 345.85 599 345.85
M 580.95 386.15
L 619.15 386.15 580.95 386.15
M 608.85 417.65
Q 608.85 419.75 608.05 421.55 607.2 423.3 605.7 424.55 604.2 425.8 602.05 426.35 599.9 426.95 597.6 426.95 595.85 426.95 594.1 426.65 592.35 426.35 590.9 425.8 590.5 425.7 590.35 425.5 590.15 425.35 590.2 425
L 590.55 421.95
Q 590.6 421.6 590.8 421.5 591 421.35 591.55 421.6 592.6 421.9 593.65 422.2 594.7 422.5 595.8 422.6 596.6 422.65 597.5 422.7 598.4 422.75 599.25 422.65 600.1 422.55 600.9 422.25 601.65 422 602.3 421.55 604.25 420.2 604.25 417.55 604.25 416.6 603.85 415.75 603.4 414.9 602.55 414.25 601.65 413.55 600.25 413.2 598.9 412.8 596.95 412.8
L 595 412.8
Q 594.65 412.8 594.55 412.7 594.45 412.6 594.45 412.3
L 594.45 409.35
Q 594.45 408.95 594.55 408.9 594.65 408.8 595 408.8
L 596.9 408.8
Q 597.75 408.8 599 408.55 600.25 408.3 601.4 407.7 602.6 407.1 603.4 406.15 604.2 405.25 604.2 403.9 604.2 402.9 603.7 402.15 603.15 401.35 602.35 400.9 601.5 400.4 600.55 400.2 599.6 400 598.75 400 598.2 400 597.5 400.1 596.75 400.2 595.95 400.4 595.15 400.55 594.35 400.8 593.55 401.05 592.95 401.3 592.45 401.5 592.25 401.4 592.05 401.3 591.95 400.95
L 591.6 398
Q 591.5 397.75 591.65 397.6 591.8 397.4 592.2 397.2 593.95 396.6 595.65 396.2 597.3 395.85 599 395.85 600.8 395.85 602.55 396.3 604.3 396.75 605.6 397.65 606.95 398.55 607.8 400.05 608.65 401.55 608.65 403.55 608.65 404.65 608.3 405.75 607.9 406.8 607.2 407.75 606.5 408.75 605.55 409.5 604.6 410.25 603.5 410.75 606.15 411.9 607.5 413.65 608.85 415.45 608.85 417.65
M 580 171.15
Q 578.25 171.15 576.7 171.35 565.365625 172.8515625 565 185.3
L 565 267
Q 565.365625 279.4984375 576.7 281 578.25 281.2 580 281.2
L 620 281.2
Q 635 281.2 635 266.2
L 635 186.15
Q 635 171.15 620 171.15
L 580 171.15
M 595.8 195
Q 595.55 195.15 595.3 195.15 595.05 195.2 594.9 195.05
L 593.1 192.9
Q 592.95 192.75 593 192.5 593 192.3 593.2 192.1
L 599.35 186.45
Q 599.4 186.35 599.6 186.3 599.8 186.2 599.95 186.2
L 602.05 186.2
Q 602.75 186.2 602.85 186.35 603 186.5 603 187.3
L 603 216.1
Q 603 216.6 602.5 216.6
L 599.3 216.6
Q 598.75 216.6 598.75 216.1
L 598.75 192.4 595.8 195
M 591.7 237.95
Q 593.2 237.15 595.15 236.5 597.15 235.85 599 235.85 600.95 235.85 602.55 236.4 604.2 236.95 605.35 238 606.5 239.05 607.2 240.65 607.9 242.25 607.9 244.35 607.9 246.15 607.1 248 606.3 249.85 605.1 251.65 603.9 253.4 602.55 255.05 601.15 256.65 600.05 257.95 599.2 259.05 598.2 260.25 597.2 261.4 596.2 262.55
L 607.95 262.55
Q 608.5 262.55 608.5 263.15
L 608.5 265.95
Q 608.5 266.65 607.95 266.65
L 590.9 266.65
Q 590.15 266.65 590.15 266.15
L 590.15 263.85
Q 590.15 263.55 590.3 263.2 590.5 262.9 590.7 262.6
L 596.8 255.35
Q 600.15 251.4 601.75 248.75 603.35 246.15 603.35 244.45 603.35 242.55 602.15 241.3 601 240.05 599.25 240.05 597.6 240.05 596.05 240.5 594.55 240.95 592.75 242 592.4 242.2 592.1 242.2 591.8 242.15 591.7 241.8
L 591.15 238.75
Q 591.05 238.55 591.15 238.4 591.3 238.15 591.7 237.95
M 580.95 226.15
L 619.15 226.15 580.95 226.15
M 634.1 19.65
Q 631.3 11.15 620 11.15
L 580 11.15
Q 578.25 11.15 576.7 11.35 568.25 12.45 565.95 19.65 565.0890625 22.1875 565 25.45
L 565 107
Q 565.365625 119.4984375 576.7 121 578.25 121.2 580 121.2
L 620 121.2
Q 635 121.2 635 106.2
L 635 26.15
Q 635 22.45 634.1 19.65
M 611 46.3
L 611 49.2
Q 611 49.6 610.85 49.7 610.7 49.8 610.35 49.8
L 606.65 49.8 606.65 55.9
Q 606.65 56.35 606.5 56.45 606.4 56.6 606 56.6
L 603.1 56.6
Q 602.65 56.6 602.5 56.45 602.35 56.3 602.35 55.9
L 602.35 49.8 589.55 49.8
Q 589.2 49.8 589.05 49.7 588.9 49.65 588.9 49.35
L 588.9 46.35
Q 588.9 46.1 589.1 45.8 589.25 45.5 589.4 45.35
L 601.8 26.75
Q 602 26.4 602.1 26.3 602.2 26.2 602.6 26.2
L 606.25 26.2
Q 606.55 26.2 606.6 26.35 606.65 26.45 606.65 26.8
L 606.65 45.7 610.35 45.7
Q 610.7 45.7 610.85 45.8 611 45.9 611 46.3
M 599.85 80.65
Q 598.4 81.35 597.4 82.6 596.4 83.85 595.85 85.5 595.25 87.2 595 89.15 595.35 88.65 595.95 88.2 596.55 87.75 597.3 87.4 598.05 87.05 598.85 86.85 599.65 86.6 600.4 86.6 602.6 86.6 604.35 87.3 606.15 88 607.4 89.3 608.7 90.6 609.4 92.45 610.1 94.25 610.1 96.55 610.1 98.75 609.4 100.6 608.75 102.55 607.45 103.9 606.15 105.35 604.3 106.15 602.45 106.95 600.15 106.95 595.45 106.95 592.9 103.4 590.35 99.85 590.35 92.4 590.35 89 591.05 86 591.75 82.95 593.3 80.75 594.9 78.5 597.45 77.15 600 75.85 603.75 75.85 604.9 75.85 606.3 76.05 607.75 76.25 608.65 76.6 609 76.7 608.95 77.1
L 608.85 80.3
Q 608.75 80.85 608.2 80.6 607.15 80.2 606 80.1 604.8 80 603.4 80 601.35 80 599.85 80.65
M 580.95 66.15
L 619.15 66.15 580.95 66.15
M 595 96.35
Q 595 97.75 595.4 98.9 595.8 100.15 596.5 101.05 597.2 101.95 598.15 102.45 599.15 102.95 600.25 102.95 602.65 102.95 604.2 101.3 605.7 99.6 605.7 96.75 605.7 93.95 604.35 92.4 603 90.8 600.55 90.8 597.95 90.8 596.5 92.35 595 93.9 595 96.35
M 602.35 32.65
L 593.75 45.7 602.35 45.7 602.35 32.65 Z"/>

<path fill="#1E1E1E" stroke="none" d="
M 608.05 421.55
Q 608.85 419.75 608.85 417.65 608.85 415.45 607.5 413.65 606.15 411.9 603.5 410.75 604.6 410.25 605.55 409.5 606.5 408.75 607.2 407.75 607.9 406.8 608.3 405.75 608.65 404.65 608.65 403.55 608.65 401.55 607.8 400.05 606.95 398.55 605.6 397.65 604.3 396.75 602.55 396.3 600.8 395.85 599 395.85 597.3 395.85 595.65 396.2 593.95 396.6 592.2 397.2 591.8 397.4 591.65 397.6 591.5 397.75 591.6 398
L 591.95 400.95
Q 592.05 401.3 592.25 401.4 592.45 401.5 592.95 401.3 593.55 401.05 594.35 400.8 595.15 400.55 595.95 400.4 596.75 400.2 597.5 400.1 598.2 400 598.75 400 599.6 400 600.55 400.2 601.5 400.4 602.35 400.9 603.15 401.35 603.7 402.15 604.2 402.9 604.2 403.9 604.2 405.25 603.4 406.15 602.6 407.1 601.4 407.7 600.25 408.3 599 408.55 597.75 408.8 596.9 408.8
L 595 408.8
Q 594.65 408.8 594.55 408.9 594.45 408.95 594.45 409.35
L 594.45 412.3
Q 594.45 412.6 594.55 412.7 594.65 412.8 595 412.8
L 596.95 412.8
Q 598.9 412.8 600.25 413.2 601.65 413.55 602.55 414.25 603.4 414.9 603.85 415.75 604.25 416.6 604.25 417.55 604.25 420.2 602.3 421.55 601.65 422 600.9 422.25 600.1 422.55 599.25 422.65 598.4 422.75 597.5 422.7 596.6 422.65 595.8 422.6 594.7 422.5 593.65 422.2 592.6 421.9 591.55 421.6 591 421.35 590.8 421.5 590.6 421.6 590.55 421.95
L 590.2 425
Q 590.15 425.35 590.35 425.5 590.5 425.7 590.9 425.8 592.35 426.35 594.1 426.65 595.85 426.95 597.6 426.95 599.9 426.95 602.05 426.35 604.2 425.8 605.7 424.55 607.2 423.3 608.05 421.55
M 602.55 346.4
Q 600.95 345.85 599 345.85 597.15 345.85 595.15 346.5 593.2 347.15 591.7 347.95 591.3 348.15 591.15 348.4 591.05 348.55 591.15 348.75
L 591.7 351.8
Q 591.8 352.15 592.1 352.2 592.4 352.2 592.75 352 594.55 350.95 596.05 350.5 597.6 350.05 599.25 350.05 601 350.05 602.15 351.3 603.35 352.55 603.35 354.45 603.35 356.15 601.75 358.75 600.15 361.4 596.8 365.35
L 590.7 372.6
Q 590.5 372.9 590.3 373.2 590.15 373.55 590.15 373.85
L 590.15 376.15
Q 590.15 376.65 590.9 376.65
L 607.95 376.65
Q 608.5 376.65 608.5 375.95
L 608.5 373.15
Q 608.5 372.55 607.95 372.55
L 596.2 372.55
Q 597.2 371.4 598.2 370.25 599.2 369.05 600.05 367.95 601.15 366.65 602.55 365.05 603.9 363.4 605.1 361.65 606.3 359.85 607.1 358 607.9 356.15 607.9 354.35 607.9 352.25 607.2 350.65 606.5 349.05 605.35 348 604.2 346.95 602.55 346.4
M 595.15 236.5
Q 593.2 237.15 591.7 237.95 591.3 238.15 591.15 238.4 591.05 238.55 591.15 238.75
L 591.7 241.8
Q 591.8 242.15 592.1 242.2 592.4 242.2 592.75 242 594.55 240.95 596.05 240.5 597.6 240.05 599.25 240.05 601 240.05 602.15 241.3 603.35 242.55 603.35 244.45 603.35 246.15 601.75 248.75 600.15 251.4 596.8 255.35
L 590.7 262.6
Q 590.5 262.9 590.3 263.2 590.15 263.55 590.15 263.85
L 590.15 266.15
Q 590.15 266.65 590.9 266.65
L 607.95 266.65
Q 608.5 266.65 608.5 265.95
L 608.5 263.15
Q 608.5 262.55 607.95 262.55
L 596.2 262.55
Q 597.2 261.4 598.2 260.25 599.2 259.05 600.05 257.95 601.15 256.65 602.55 255.05 603.9 253.4 605.1 251.65 606.3 249.85 607.1 248 607.9 246.15 607.9 244.35 607.9 242.25 607.2 240.65 606.5 239.05 605.35 238 604.2 236.95 602.55 236.4 600.95 235.85 599 235.85 597.15 235.85 595.15 236.5
M 595.3 195.15
Q 595.55 195.15 595.8 195
L 598.75 192.4 598.75 216.1
Q 598.75 216.6 599.3 216.6
L 602.5 216.6
Q 603 216.6 603 216.1
L 603 187.3
Q 603 186.5 602.85 186.35 602.75 186.2 602.05 186.2
L 599.95 186.2
Q 599.8 186.2 599.6 186.3 599.4 186.35 599.35 186.45
L 593.2 192.1
Q 593 192.3 593 192.5 592.95 192.75 593.1 192.9
L 594.9 195.05
Q 595.05 195.2 595.3 195.15
M 597.4 82.6
Q 598.4 81.35 599.85 80.65 601.35 80 603.4 80 604.8 80 606 80.1 607.15 80.2 608.2 80.6 608.75 80.85 608.85 80.3
L 608.95 77.1
Q 609 76.7 608.65 76.6 607.75 76.25 606.3 76.05 604.9 75.85 603.75 75.85 600 75.85 597.45 77.15 594.9 78.5 593.3 80.75 591.75 82.95 591.05 86 590.35 89 590.35 92.4 590.35 99.85 592.9 103.4 595.45 106.95 600.15 106.95 602.45 106.95 604.3 106.15 606.15 105.35 607.45 103.9 608.75 102.55 609.4 100.6 610.1 98.75 610.1 96.55 610.1 94.25 609.4 92.45 608.7 90.6 607.4 89.3 606.15 88 604.35 87.3 602.6 86.6 600.4 86.6 599.65 86.6 598.85 86.85 598.05 87.05 597.3 87.4 596.55 87.75 595.95 88.2 595.35 88.65 595 89.15 595.25 87.2 595.85 85.5 596.4 83.85 597.4 82.6
M 595.4 98.9
Q 595 97.75 595 96.35 595 93.9 596.5 92.35 597.95 90.8 600.55 90.8 603 90.8 604.35 92.4 605.7 93.95 605.7 96.75 605.7 99.6 604.2 101.3 602.65 102.95 600.25 102.95 599.15 102.95 598.15 102.45 597.2 101.95 596.5 101.05 595.8 100.15 595.4 98.9
M 611 49.2
L 611 46.3
Q 611 45.9 610.85 45.8 610.7 45.7 610.35 45.7
L 606.65 45.7 606.65 26.8
Q 606.65 26.45 606.6 26.35 606.55 26.2 606.25 26.2
L 602.6 26.2
Q 602.2 26.2 602.1 26.3 602 26.4 601.8 26.75
L 589.4 45.35
Q 589.25 45.5 589.1 45.8 588.9 46.1 588.9 46.35
L 588.9 49.35
Q 588.9 49.65 589.05 49.7 589.2 49.8 589.55 49.8
L 602.35 49.8 602.35 55.9
Q 602.35 56.3 602.5 56.45 602.65 56.6 603.1 56.6
L 606 56.6
Q 606.4 56.6 606.5 56.45 606.65 56.35 606.65 55.9
L 606.65 49.8 610.35 49.8
Q 610.7 49.8 610.85 49.7 611 49.6 611 49.2
M 593.75 45.7
L 602.35 32.65 602.35 45.7 593.75 45.7
M 938.3 392.95
Q 938.15 393.15 938.15 393.35
L 938.15 401.35
Q 938.15 402.95 938.75 403.6 939.35 404.25 941.15 404.25
L 963.5 404.25
Q 963.7 404.25 963.9 404.1 964.1 404 964.1 403.75
L 964.1 400.9
Q 964.1 400.7 963.9 400.55 963.7 400.4 963.5 400.4
L 943.45 400.4
Q 943.05 400.4 942.9 400.3 942.75 400.2 942.75 399.75
L 942.75 393.35
Q 942.75 393.15 942.55 392.95 942.4 392.8 942.1 392.8
L 938.7 392.8
Q 938.5 392.8 938.3 392.95
M 933.2 386.1
Q 932.9 386.1 932.75 386.25 932.6 386.45 932.6 386.7
L 932.6 389.35
Q 932.6 389.55 932.75 389.75 932.9 389.9 933.2 389.9
L 948.6 389.9 948.6 396.65
Q 948.6 397.2 949.15 397.2
L 952.65 397.2
Q 953.2 397.2 953.2 396.65
L 953.2 389.9 968 389.9
Q 968.2 389.9 968.4 389.75 968.6 389.55 968.6 389.35
L 968.6 386.7
Q 968.6 386.5 968.4 386.3 968.2 386.1 968 386.1
L 933.2 386.1
M 962.7 368.55
Q 962.7 368.3 962.55 368.15 962.4 368 962.15 368
L 958.6 368
Q 958.4 368 958.25 368.15 958.1 368.3 958.1 368.55
L 958.1 372 943.05 372 943.05 368.6
Q 943.05 368.35 942.85 368.25 942.7 368.1 942.5 368.1
L 939 368.1
Q 938.75 368.1 938.6 368.25 938.45 368.35 938.45 368.6
L 938.45 379.9
Q 938.45 381.55 939.1 382.15 939.7 382.75 941.55 382.75
L 959.65 382.75
Q 961.4 382.75 962.05 382.05 962.7 381.4 962.7 380.05
L 962.7 368.55
M 943.8 379.1
Q 943.05 379.1 943.05 378.35
L 943.05 375.65 958.1 375.65 958.1 378.35
Q 958.1 379.1 957.35 379.1
L 943.8 379.1
M 926.05 370.45
Q 924.65 370.25 923.5 370.25 919.75 370.25 917.2 371.55 914.65 372.9 913.05 375.15 911.5 377.35 910.8 380.4 910.1 383.4 910.1 386.8 910.1 394.25 912.65 397.8 915.2 401.35 919.9 401.35 922.2 401.35 924.05 400.55 925.9 399.75 927.2 398.3 928.5 396.95 929.15 395 929.85 393.15 929.85 390.95 929.85 388.65 929.15 386.85 928.45 385 927.15 383.7 925.9 382.4 924.1 381.7 922.35 381 920.15 381 919.4 381 918.6 381.25 917.8 381.45 917.05 381.8 916.3 382.15 915.7 382.6 915.1 383.05 914.75 383.55 915 381.6 915.6 379.9 916.15 378.25 917.15 377 918.15 375.75 919.6 375.05 921.1 374.4 923.15 374.4 924.55 374.4 925.75 374.5 926.9 374.6 927.95 375 928.5 375.25 928.6 374.7
L 928.7 371.5
Q 928.75 371.1 928.4 371 927.5 370.65 926.05 370.45
M 916.25 395.45
Q 915.55 394.55 915.15 393.3 914.75 392.15 914.75 390.75 914.75 388.3 916.25 386.75 917.7 385.2 920.3 385.2 922.75 385.2 924.1 386.8 925.45 388.35 925.45 391.15 925.45 394 923.95 395.7 922.4 397.35 920 397.35 918.9 397.35 917.9 396.85 916.95 396.35 916.25 395.45
M 1037.05 371.2
Q 1037.05 370.85 1037 370.75 1036.95 370.6 1036.65 370.6
L 1033 370.6
Q 1032.6 370.6 1032.5 370.7 1032.4 370.8 1032.2 371.15
L 1019.8 389.75
Q 1019.65 389.9 1019.5 390.2 1019.3 390.5 1019.3 390.75
L 1019.3 393.75
Q 1019.3 394.05 1019.45 394.1 1019.6 394.2 1019.95 394.2
L 1032.75 394.2 1032.75 400.3
Q 1032.75 400.7 1032.9 400.85 1033.05 401 1033.5 401
L 1036.4 401
Q 1036.8 401 1036.9 400.85 1037.05 400.75 1037.05 400.3
L 1037.05 394.2 1040.75 394.2
Q 1041.1 394.2 1041.25 394.1 1041.4 394 1041.4 393.6
L 1041.4 390.7
Q 1041.4 390.3 1041.25 390.2 1041.1 390.1 1040.75 390.1
L 1037.05 390.1 1037.05 371.2
M 1032.75 377.05
L 1032.75 390.1 1024.15 390.1 1032.75 377.05
M 989.75 392.45
Q 986.8 392.75 983.65 392.9 980.5 393.05 977.4 393.15 974.2 393.2 971.35 393.15 971.1 393.15 970.95 393.3 970.8 393.5 970.8 393.75
L 970.8 396.45
Q 970.8 396.7 970.95 396.9 971.1 397.05 971.35 397.05 974.2 397.1 977.55 397 980.85 396.9 984.15 396.7 987.45 396.5 990.45 396.2 993.45 395.95 995.7 395.6 995.9 395.55 996.05 395.4 996.25 395.2 996.2 394.9
L 995.95 392.3
Q 995.95 392 995.65 391.9 995.4 391.85 995.2 391.9 992.75 392.2 989.75 392.45
M 982.85 369.55
Q 980.8 369.55 979 370.2 977.25 370.85 975.95 372.05 974.65 373.3 973.9 375 973.1 376.7 973.1 378.8 973.1 380.95 973.9 382.65 974.65 384.35 975.95 385.5 977.25 386.7 979 387.35 980.8 387.95 982.8 387.95 984.9 387.95 986.7 387.35 988.45 386.7 989.75 385.5 991.1 384.35 991.85 382.65 992.6 380.95 992.6 378.8 992.6 376.7 991.85 375 991.1 373.3 989.75 372.05 988.45 370.85 986.7 370.2 984.9 369.55 982.85 369.55
M 988.15 378.8
Q 988.15 381.35 986.7 382.85 985.2 384.35 982.85 384.35 980.55 384.35 979.1 382.85 977.6 381.35 977.6 378.8 977.6 376.3 979.1 374.8 980.55 373.3 982.85 373.3 985.2 373.3 986.7 374.8 988.15 376.3 988.15 378.8
M 998 367.35
Q 997.8 367.5 997.8 367.75
L 997.8 404.65
Q 997.8 404.9 998 405 998.15 405.2 998.4 405.2
L 1001.9 405.2
Q 1002.45 405.2 1002.45 404.65
L 1002.45 367.75
Q 1002.45 367.2 1001.9 367.2
L 998.4 367.2
Q 998.15 367.2 998 367.35
M 915.8 214.9
Q 917.35 214.45 919 214.45 920.75 214.45 921.9 215.7 923.1 216.95 923.1 218.85 923.1 220.55 921.5 223.15 919.9 225.8 916.55 229.75
L 910.45 237
Q 910.25 237.3 910.05 237.6 909.9 237.95 909.9 238.25
L 909.9 240.55
Q 909.9 241.05 910.65 241.05
L 927.7 241.05
Q 928.25 241.05 928.25 240.35
L 928.25 237.55
Q 928.25 236.95 927.7 236.95
L 915.95 236.95
Q 916.95 235.8 917.95 234.65 918.95 233.45 919.8 232.35 920.9 231.05 922.3 229.45 923.65 227.8 924.85 226.05 926.05 224.25 926.85 222.4 927.65 220.55 927.65 218.75 927.65 216.65 926.95 215.05 926.25 213.45 925.1 212.4 923.95 211.35 922.3 210.8 920.7 210.25 918.75 210.25 916.9 210.25 914.9 210.9 912.95 211.55 911.45 212.35 911.05 212.55 910.9 212.8 910.8 212.95 910.9 213.15
L 911.45 216.2
Q 911.55 216.55 911.85 216.6 912.15 216.6 912.5 216.4 914.3 215.35 915.8 214.9
M 932.75 229.75
Q 932.9 229.9 933.2 229.9
L 948.6 229.9 948.6 236.65
Q 948.6 237.2 949.15 237.2
L 952.65 237.2
Q 953.2 237.2 953.2 236.65
L 953.2 229.9 968 229.9
Q 968.2 229.9 968.4 229.75 968.6 229.55 968.6 229.35
L 968.6 226.7
Q 968.6 226.5 968.4 226.3 968.2 226.1 968 226.1
L 933.2 226.1
Q 932.9 226.1 932.75 226.25 932.6 226.45 932.6 226.7
L 932.6 229.35
Q 932.6 229.55 932.75 229.75
M 942.75 233.35
Q 942.75 233.15 942.55 232.95 942.4 232.8 942.1 232.8
L 938.7 232.8
Q 938.5 232.8 938.3 232.95 938.15 233.15 938.15 233.35
L 938.15 241.35
Q 938.15 242.95 938.75 243.6 939.35 244.25 941.15 244.25
L 963.5 244.25
Q 963.7 244.25 963.9 244.1 964.1 244 964.1 243.75
L 964.1 240.9
Q 964.1 240.7 963.9 240.55 963.7 240.4 963.5 240.4
L 943.45 240.4
Q 943.05 240.4 942.9 240.3 942.75 240.2 942.75 239.75
L 942.75 233.35
M 962.55 208.15
Q 962.4 208 962.15 208
L 958.6 208
Q 958.4 208 958.25 208.15 958.1 208.3 958.1 208.55
L 958.1 212 943.05 212 943.05 208.6
Q 943.05 208.35 942.85 208.25 942.7 208.1 942.5 208.1
L 939 208.1
Q 938.75 208.1 938.6 208.25 938.45 208.35 938.45 208.6
L 938.45 219.9
Q 938.45 221.55 939.1 222.15 939.7 222.75 941.55 222.75
L 959.65 222.75
Q 961.4 222.75 962.05 222.05 962.7 221.4 962.7 220.05
L 962.7 208.55
Q 962.7 208.3 962.55 208.15
M 958.1 218.35
Q 958.1 219.1 957.35 219.1
L 943.8 219.1
Q 943.05 219.1 943.05 218.35
L 943.05 215.65 958.1 215.65 958.1 218.35
M 989.75 232.45
Q 986.8 232.75 983.65 232.9 980.5 233.05 977.4 233.15 974.2 233.2 971.35 233.15 971.1 233.15 970.95 233.3 970.8 233.5 970.8 233.75
L 970.8 236.45
Q 970.8 236.7 970.95 236.9 971.1 237.05 971.35 237.05 974.2 237.1 977.55 237 980.85 236.9 984.15 236.7 987.45 236.5 990.45 236.2 993.45 235.95 995.7 235.6 995.9 235.55 996.05 235.4 996.25 235.2 996.2 234.9
L 995.95 232.3
Q 995.95 232 995.65 231.9 995.4 231.85 995.2 231.9 992.75 232.2 989.75 232.45
M 986.7 210.2
Q 984.9 209.55 982.85 209.55 980.8 209.55 979 210.2 977.25 210.85 975.95 212.05 974.65 213.3 973.9 215 973.1 216.7 973.1 218.8 973.1 220.95 973.9 222.65 974.65 224.35 975.95 225.5 977.25 226.7 979 227.35 980.8 227.95 982.8 227.95 984.9 227.95 986.7 227.35 988.45 226.7 989.75 225.5 991.1 224.35 991.85 222.65 992.6 220.95 992.6 218.8 992.6 216.7 991.85 215 991.1 213.3 989.75 212.05 988.45 210.85 986.7 210.2
M 977.6 218.8
Q 977.6 216.3 979.1 214.8 980.55 213.3 982.85 213.3 985.2 213.3 986.7 214.8 988.15 216.3 988.15 218.8 988.15 221.35 986.7 222.85 985.2 224.35 982.85 224.35 980.55 224.35 979.1 222.85 977.6 221.35 977.6 218.8
M 998 207.35
Q 997.8 207.5 997.8 207.75
L 997.8 244.65
Q 997.8 244.9 998 245 998.15 245.2 998.4 245.2
L 1001.9 245.2
Q 1002.45 245.2 1002.45 244.65
L 1002.45 207.75
Q 1002.45 207.2 1001.9 207.2
L 998.4 207.2
Q 998.15 207.2 998 207.35
M 1033.4 211.7
Q 1033.4 210.9 1033.25 210.75 1033.15 210.6 1032.45 210.6
L 1030.35 210.6
Q 1030.2 210.6 1030 210.7 1029.8 210.75 1029.75 210.85
L 1023.6 216.5
Q 1023.4 216.7 1023.4 216.9 1023.35 217.15 1023.5 217.3
L 1025.3 219.45
Q 1025.45 219.6 1025.7 219.55 1025.95 219.55 1026.2 219.4
L 1029.15 216.8 1029.15 240.5
Q 1029.15 241 1029.7 241
L 1032.9 241
Q 1033.4 241 1033.4 240.5
L 1033.4 211.7
M 938.3 72.95
Q 938.15 73.15 938.15 73.35
L 938.15 81.35
Q 938.15 82.95 938.75 83.6 939.35 84.25 941.15 84.25
L 963.5 84.25
Q 963.7 84.25 963.9 84.1 964.1 84 964.1 83.75
L 964.1 80.9
Q 964.1 80.7 963.9 80.55 963.7 80.4 963.5 80.4
L 943.45 80.4
Q 943.05 80.4 942.9 80.3 942.75 80.2 942.75 79.75
L 942.75 73.35
Q 942.75 73.15 942.55 72.95 942.4 72.8 942.1 72.8
L 938.7 72.8
Q 938.5 72.8 938.3 72.95
M 968 69.9
Q 968.2 69.9 968.4 69.75 968.6 69.55 968.6 69.35
L 968.6 66.7
Q 968.6 66.5 968.4 66.3 968.2 66.1 968 66.1
L 933.2 66.1
Q 932.9 66.1 932.75 66.25 932.6 66.45 932.6 66.7
L 932.6 69.35
Q 932.6 69.55 932.75 69.75 932.9 69.9 933.2 69.9
L 948.6 69.9 948.6 76.65
Q 948.6 77.2 949.15 77.2
L 952.65 77.2
Q 953.2 77.2 953.2 76.65
L 953.2 69.9 968 69.9
M 928.05 60.15
Q 928.4 59.05 928.4 57.95 928.4 55.95 927.55 54.45 926.7 52.95 925.35 52.05 924.05 51.15 922.3 50.7 920.55 50.25 918.75 50.25 917.05 50.25 915.4 50.6 913.7 51 911.95 51.6 911.55 51.8 911.4 52 911.25 52.15 911.35 52.4
L 911.7 55.35
Q 911.8 55.7 912 55.8 912.2 55.9 912.7 55.7 913.3 55.45 914.1 55.2 914.9 54.95 915.7 54.8 916.5 54.6 917.25 54.5 917.95 54.4 918.5 54.4 919.35 54.4 920.3 54.6 921.25 54.8 922.1 55.3 922.9 55.75 923.45 56.55 923.95 57.3 923.95 58.3 923.95 59.65 923.15 60.55 922.35 61.5 921.15 62.1 920 62.7 918.75 62.95 917.5 63.2 916.65 63.2
L 914.75 63.2
Q 914.4 63.2 914.3 63.3 914.2 63.35 914.2 63.75
L 914.2 66.7
Q 914.2 67 914.3 67.1 914.4 67.2 914.75 67.2
L 916.7 67.2
Q 918.65 67.2 920 67.6 921.4 67.95 922.3 68.65 923.15 69.3 923.6 70.15 924 71 924 71.95 924 74.6 922.05 75.95 921.4 76.4 920.65 76.65 919.85 76.95 919 77.05 918.15 77.15 917.25 77.1 916.35 77.05 915.55 77 914.45 76.9 913.4 76.6 912.35 76.3 911.3 76 910.75 75.75 910.55 75.9 910.35 76 910.3 76.35
L 909.95 79.4
Q 909.9 79.75 910.1 79.9 910.25 80.1 910.65 80.2 912.1 80.75 913.85 81.05 915.6 81.35 917.35 81.35 919.65 81.35 921.8 80.75 923.95 80.2 925.45 78.95 926.95 77.7 927.8 75.95 928.6 74.15 928.6 72.05 928.6 69.85 927.25 68.05 925.9 66.3 923.25 65.15 924.35 64.65 925.3 63.9 926.25 63.15 926.95 62.15 927.65 61.2 928.05 60.15
M 938.6 48.25
Q 938.45 48.35 938.45 48.6
L 938.45 59.9
Q 938.45 61.55 939.1 62.15 939.7 62.75 941.55 62.75
L 959.65 62.75
Q 961.4 62.75 962.05 62.05 962.7 61.4 962.7 60.05
L 962.7 48.55
Q 962.7 48.3 962.55 48.15 962.4 48 962.15 48
L 958.6 48
Q 958.4 48 958.25 48.15 958.1 48.3 958.1 48.55
L 958.1 52 943.05 52 943.05 48.6
Q 943.05 48.35 942.85 48.25 942.7 48.1 942.5 48.1
L 939 48.1
Q 938.75 48.1 938.6 48.25
M 958.1 58.35
Q 958.1 59.1 957.35 59.1
L 943.8 59.1
Q 943.05 59.1 943.05 58.35
L 943.05 55.65 958.1 55.65 958.1 58.35
M 1032.95 69.45
Q 1034.3 67.8 1035.5 66.05 1036.7 64.25 1037.5 62.4 1038.3 60.55 1038.3 58.75 1038.3 56.65 1037.6 55.05 1036.9 53.45 1035.75 52.4 1034.6 51.35 1032.95 50.8 1031.35 50.25 1029.4 50.25 1027.55 50.25 1025.55 50.9 1023.6 51.55 1022.1 52.35 1021.7 52.55 1021.55 52.8 1021.45 52.95 1021.55 53.15
L 1022.1 56.2
Q 1022.2 56.55 1022.5 56.6 1022.8 56.6 1023.15 56.4 1024.95 55.35 1026.45 54.9 1028 54.45 1029.65 54.45 1031.4 54.45 1032.55 55.7 1033.75 56.95 1033.75 58.85 1033.75 60.55 1032.15 63.15 1030.55 65.8 1027.2 69.75
L 1021.1 77
Q 1020.9 77.3 1020.7 77.6 1020.55 77.95 1020.55 78.25
L 1020.55 80.55
Q 1020.55 81.05 1021.3 81.05
L 1038.35 81.05
Q 1038.9 81.05 1038.9 80.35
L 1038.9 77.55
Q 1038.9 76.95 1038.35 76.95
L 1026.6 76.95
Q 1027.6 75.8 1028.6 74.65 1029.6 73.45 1030.45 72.35 1031.55 71.05 1032.95 69.45
M 991.85 55
Q 991.1 53.3 989.75 52.05 988.45 50.85 986.7 50.2 984.9 49.55 982.85 49.55 980.8 49.55 979 50.2 977.25 50.85 975.95 52.05 974.65 53.3 973.9 55 973.1 56.7 973.1 58.8 973.1 60.95 973.9 62.65 974.65 64.35 975.95 65.5 977.25 66.7 979 67.35 980.8 67.95 982.8 67.95 984.9 67.95 986.7 67.35 988.45 66.7 989.75 65.5 991.1 64.35 991.85 62.65 992.6 60.95 992.6 58.8 992.6 56.7 991.85 55
M 986.7 54.8
Q 988.15 56.3 988.15 58.8 988.15 61.35 986.7 62.85 985.2 64.35 982.85 64.35 980.55 64.35 979.1 62.85 977.6 61.35 977.6 58.8 977.6 56.3 979.1 54.8 980.55 53.3 982.85 53.3 985.2 53.3 986.7 54.8
M 995.95 72.3
Q 995.95 72 995.65 71.9 995.4 71.85 995.2 71.9 992.75 72.2 989.75 72.45 986.8 72.75 983.65 72.9 980.5 73.05 977.4 73.15 974.2 73.2 971.35 73.15 971.1 73.15 970.95 73.3 970.8 73.5 970.8 73.75
L 970.8 76.45
Q 970.8 76.7 970.95 76.9 971.1 77.05 971.35 77.05 974.2 77.1 977.55 77 980.85 76.9 984.15 76.7 987.45 76.5 990.45 76.2 993.45 75.95 995.7 75.6 995.9 75.55 996.05 75.4 996.25 75.2 996.2 74.9
L 995.95 72.3
M 1002.45 47.75
Q 1002.45 47.2 1001.9 47.2
L 998.4 47.2
Q 998.15 47.2 998 47.35 997.8 47.5 997.8 47.75
L 997.8 84.65
Q 997.8 84.9 998 85 998.15 85.2 998.4 85.2
L 1001.9 85.2
Q 1002.45 85.2 1002.45 84.65
L 1002.45 47.75 Z"/>

<path fill="#E3E7D8" stroke="none" d="
M 1040.9 352.65
L 1029.9 352.65 903.95 352.65
Q 888.95 352.65 888.95 367.65
L 888.95 404.65
Q 888.95 419.65 903.95 419.65
L 1029.9 419.65 1040.9 419.65
Q 1055.9 419.65 1055.9 404.65
L 1055.9 367.65
Q 1055.9 352.65 1040.9 352.65
M 997.8 367.75
Q 997.8 367.5 998 367.35 998.15 367.2 998.4 367.2
L 1001.9 367.2
Q 1002.45 367.2 1002.45 367.75
L 1002.45 404.65
Q 1002.45 405.2 1001.9 405.2
L 998.4 405.2
Q 998.15 405.2 998 405 997.8 404.9 997.8 404.65
L 997.8 367.75
M 979 370.2
Q 980.8 369.55 982.85 369.55 984.9 369.55 986.7 370.2 988.45 370.85 989.75 372.05 991.1 373.3 991.85 375 992.6 376.7 992.6 378.8 992.6 380.95 991.85 382.65 991.1 384.35 989.75 385.5 988.45 386.7 986.7 387.35 984.9 387.95 982.8 387.95 980.8 387.95 979 387.35 977.25 386.7 975.95 385.5 974.65 384.35 973.9 382.65 973.1 380.95 973.1 378.8 973.1 376.7 973.9 375 974.65 373.3 975.95 372.05 977.25 370.85 979 370.2
M 983.65 392.9
Q 986.8 392.75 989.75 392.45 992.75 392.2 995.2 391.9 995.4 391.85 995.65 391.9 995.95 392 995.95 392.3
L 996.2 394.9
Q 996.25 395.2 996.05 395.4 995.9 395.55 995.7 395.6 993.45 395.95 990.45 396.2 987.45 396.5 984.15 396.7 980.85 396.9 977.55 397 974.2 397.1 971.35 397.05 971.1 397.05 970.95 396.9 970.8 396.7 970.8 396.45
L 970.8 393.75
Q 970.8 393.5 970.95 393.3 971.1 393.15 971.35 393.15 974.2 393.2 977.4 393.15 980.5 393.05 983.65 392.9
M 1037 370.75
Q 1037.05 370.85 1037.05 371.2
L 1037.05 390.1 1040.75 390.1
Q 1041.1 390.1 1041.25 390.2 1041.4 390.3 1041.4 390.7
L 1041.4 393.6
Q 1041.4 394 1041.25 394.1 1041.1 394.2 1040.75 394.2
L 1037.05 394.2 1037.05 400.3
Q 1037.05 400.75 1036.9 400.85 1036.8 401 1036.4 401
L 1033.5 401
Q 1033.05 401 1032.9 400.85 1032.75 400.7 1032.75 400.3
L 1032.75 394.2 1019.95 394.2
Q 1019.6 394.2 1019.45 394.1 1019.3 394.05 1019.3 393.75
L 1019.3 390.75
Q 1019.3 390.5 1019.5 390.2 1019.65 389.9 1019.8 389.75
L 1032.2 371.15
Q 1032.4 370.8 1032.5 370.7 1032.6 370.6 1033 370.6
L 1036.65 370.6
Q 1036.95 370.6 1037 370.75
M 923.5 370.25
Q 924.65 370.25 926.05 370.45 927.5 370.65 928.4 371 928.75 371.1 928.7 371.5
L 928.6 374.7
Q 928.5 375.25 927.95 375 926.9 374.6 925.75 374.5 924.55 374.4 923.15 374.4 921.1 374.4 919.6 375.05 918.15 375.75 917.15 377 916.15 378.25 915.6 379.9 915 381.6 914.75 383.55 915.1 383.05 915.7 382.6 916.3 382.15 917.05 381.8 917.8 381.45 918.6 381.25 919.4 381 920.15 381 922.35 381 924.1 381.7 925.9 382.4 927.15 383.7 928.45 385 929.15 386.85 929.85 388.65 929.85 390.95 929.85 393.15 929.15 395 928.5 396.95 927.2 398.3 925.9 399.75 924.05 400.55 922.2 401.35 919.9 401.35 915.2 401.35 912.65 397.8 910.1 394.25 910.1 386.8 910.1 383.4 910.8 380.4 911.5 377.35 913.05 375.15 914.65 372.9 917.2 371.55 919.75 370.25 923.5 370.25
M 962.55 368.15
Q 962.7 368.3 962.7 368.55
L 962.7 380.05
Q 962.7 381.4 962.05 382.05 961.4 382.75 959.65 382.75
L 941.55 382.75
Q 939.7 382.75 939.1 382.15 938.45 381.55 938.45 379.9
L 938.45 368.6
Q 938.45 368.35 938.6 368.25 938.75 368.1 939 368.1
L 942.5 368.1
Q 942.7 368.1 942.85 368.25 943.05 368.35 943.05 368.6
L 943.05 372 958.1 372 958.1 368.55
Q 958.1 368.3 958.25 368.15 958.4 368 958.6 368
L 962.15 368
Q 962.4 368 962.55 368.15
M 932.75 386.25
Q 932.9 386.1 933.2 386.1
L 968 386.1
Q 968.2 386.1 968.4 386.3 968.6 386.5 968.6 386.7
L 968.6 389.35
Q 968.6 389.55 968.4 389.75 968.2 389.9 968 389.9
L 953.2 389.9 953.2 396.65
Q 953.2 397.2 952.65 397.2
L 949.15 397.2
Q 948.6 397.2 948.6 396.65
L 948.6 389.9 933.2 389.9
Q 932.9 389.9 932.75 389.75 932.6 389.55 932.6 389.35
L 932.6 386.7
Q 932.6 386.45 932.75 386.25
M 938.15 393.35
Q 938.15 393.15 938.3 392.95 938.5 392.8 938.7 392.8
L 942.1 392.8
Q 942.4 392.8 942.55 392.95 942.75 393.15 942.75 393.35
L 942.75 399.75
Q 942.75 400.2 942.9 400.3 943.05 400.4 943.45 400.4
L 963.5 400.4
Q 963.7 400.4 963.9 400.55 964.1 400.7 964.1 400.9
L 964.1 403.75
Q 964.1 404 963.9 404.1 963.7 404.25 963.5 404.25
L 941.15 404.25
Q 939.35 404.25 938.75 403.6 938.15 402.95 938.15 401.35
L 938.15 393.35
M 943.05 378.35
Q 943.05 379.1 943.8 379.1
L 957.35 379.1
Q 958.1 379.1 958.1 378.35
L 958.1 375.65 943.05 375.65 943.05 378.35
M 915.15 393.3
Q 915.55 394.55 916.25 395.45 916.95 396.35 917.9 396.85 918.9 397.35 920 397.35 922.4 397.35 923.95 395.7 925.45 394 925.45 391.15 925.45 388.35 924.1 386.8 922.75 385.2 920.3 385.2 917.7 385.2 916.25 386.75 914.75 388.3 914.75 390.75 914.75 392.15 915.15 393.3
M 1032.75 390.1
L 1032.75 377.05 1024.15 390.1 1032.75 390.1
M 986.7 382.85
Q 988.15 381.35 988.15 378.8 988.15 376.3 986.7 374.8 985.2 373.3 982.85 373.3 980.55 373.3 979.1 374.8 977.6 376.3 977.6 378.8 977.6 381.35 979.1 382.85 980.55 384.35 982.85 384.35 985.2 384.35 986.7 382.85
M 1040.9 192.65
L 1029.9 192.65 903.95 192.65
Q 888.95 192.65 888.95 207.65
L 888.95 244.65
Q 888.95 259.65 903.95 259.65
L 1029.9 259.65 1040.9 259.65
Q 1055.9 259.65 1055.9 244.65
L 1055.9 207.65
Q 1055.9 192.65 1040.9 192.65
M 1033.25 210.75
Q 1033.4 210.9 1033.4 211.7
L 1033.4 240.5
Q 1033.4 241 1032.9 241
L 1029.7 241
Q 1029.15 241 1029.15 240.5
L 1029.15 216.8 1026.2 219.4
Q 1025.95 219.55 1025.7 219.55 1025.45 219.6 1025.3 219.45
L 1023.5 217.3
Q 1023.35 217.15 1023.4 216.9 1023.4 216.7 1023.6 216.5
L 1029.75 210.85
Q 1029.8 210.75 1030 210.7 1030.2 210.6 1030.35 210.6
L 1032.45 210.6
Q 1033.15 210.6 1033.25 210.75
M 997.8 207.75
Q 997.8 207.5 998 207.35 998.15 207.2 998.4 207.2
L 1001.9 207.2
Q 1002.45 207.2 1002.45 207.75
L 1002.45 244.65
Q 1002.45 245.2 1001.9 245.2
L 998.4 245.2
Q 998.15 245.2 998 245 997.8 244.9 997.8 244.65
L 997.8 207.75
M 982.85 209.55
Q 984.9 209.55 986.7 210.2 988.45 210.85 989.75 212.05 991.1 213.3 991.85 215 992.6 216.7 992.6 218.8 992.6 220.95 991.85 222.65 991.1 224.35 989.75 225.5 988.45 226.7 986.7 227.35 984.9 227.95 982.8 227.95 980.8 227.95 979 227.35 977.25 226.7 975.95 225.5 974.65 224.35 973.9 222.65 973.1 220.95 973.1 218.8 973.1 216.7 973.9 215 974.65 213.3 975.95 212.05 977.25 210.85 979 210.2 980.8 209.55 982.85 209.55
M 983.65 232.9
Q 986.8 232.75 989.75 232.45 992.75 232.2 995.2 231.9 995.4 231.85 995.65 231.9 995.95 232 995.95 232.3
L 996.2 234.9
Q 996.25 235.2 996.05 235.4 995.9 235.55 995.7 235.6 993.45 235.95 990.45 236.2 987.45 236.5 984.15 236.7 980.85 236.9 977.55 237 974.2 237.1 971.35 237.05 971.1 237.05 970.95 236.9 970.8 236.7 970.8 236.45
L 970.8 233.75
Q 970.8 233.5 970.95 233.3 971.1 233.15 971.35 233.15 974.2 233.2 977.4 233.15 980.5 233.05 983.65 232.9
M 962.15 208
Q 962.4 208 962.55 208.15 962.7 208.3 962.7 208.55
L 962.7 220.05
Q 962.7 221.4 962.05 222.05 961.4 222.75 959.65 222.75
L 941.55 222.75
Q 939.7 222.75 939.1 222.15 938.45 221.55 938.45 219.9
L 938.45 208.6
Q 938.45 208.35 938.6 208.25 938.75 208.1 939 208.1
L 942.5 208.1
Q 942.7 208.1 942.85 208.25 943.05 208.35 943.05 208.6
L 943.05 212 958.1 212 958.1 208.55
Q 958.1 208.3 958.25 208.15 958.4 208 958.6 208
L 962.15 208
M 942.55 232.95
Q 942.75 233.15 942.75 233.35
L 942.75 239.75
Q 942.75 240.2 942.9 240.3 943.05 240.4 943.45 240.4
L 963.5 240.4
Q 963.7 240.4 963.9 240.55 964.1 240.7 964.1 240.9
L 964.1 243.75
Q 964.1 244 963.9 244.1 963.7 244.25 963.5 244.25
L 941.15 244.25
Q 939.35 244.25 938.75 243.6 938.15 242.95 938.15 241.35
L 938.15 233.35
Q 938.15 233.15 938.3 232.95 938.5 232.8 938.7 232.8
L 942.1 232.8
Q 942.4 232.8 942.55 232.95
M 933.2 229.9
Q 932.9 229.9 932.75 229.75 932.6 229.55 932.6 229.35
L 932.6 226.7
Q 932.6 226.45 932.75 226.25 932.9 226.1 933.2 226.1
L 968 226.1
Q 968.2 226.1 968.4 226.3 968.6 226.5 968.6 226.7
L 968.6 229.35
Q 968.6 229.55 968.4 229.75 968.2 229.9 968 229.9
L 953.2 229.9 953.2 236.65
Q 953.2 237.2 952.65 237.2
L 949.15 237.2
Q 948.6 237.2 948.6 236.65
L 948.6 229.9 933.2 229.9
M 919 214.45
Q 917.35 214.45 915.8 214.9 914.3 215.35 912.5 216.4 912.15 216.6 911.85 216.6 911.55 216.55 911.45 216.2
L 910.9 213.15
Q 910.8 212.95 910.9 212.8 911.05 212.55 911.45 212.35 912.95 211.55 914.9 210.9 916.9 210.25 918.75 210.25 920.7 210.25 922.3 210.8 923.95 211.35 925.1 212.4 926.25 213.45 926.95 215.05 927.65 216.65 927.65 218.75 927.65 220.55 926.85 222.4 926.05 224.25 924.85 226.05 923.65 227.8 922.3 229.45 920.9 231.05 919.8 232.35 918.95 233.45 917.95 234.65 916.95 235.8 915.95 236.95
L 927.7 236.95
Q 928.25 236.95 928.25 237.55
L 928.25 240.35
Q 928.25 241.05 927.7 241.05
L 910.65 241.05
Q 909.9 241.05 909.9 240.55
L 909.9 238.25
Q 909.9 237.95 910.05 237.6 910.25 237.3 910.45 237
L 916.55 229.75
Q 919.9 225.8 921.5 223.15 923.1 220.55 923.1 218.85 923.1 216.95 921.9 215.7 920.75 214.45 919 214.45
M 957.35 219.1
Q 958.1 219.1 958.1 218.35
L 958.1 215.65 943.05 215.65 943.05 218.35
Q 943.05 219.1 943.8 219.1
L 957.35 219.1
M 979.1 214.8
Q 977.6 216.3 977.6 218.8 977.6 221.35 979.1 222.85 980.55 224.35 982.85 224.35 985.2 224.35 986.7 222.85 988.15 221.35 988.15 218.8 988.15 216.3 986.7 214.8 985.2 213.3 982.85 213.3 980.55 213.3 979.1 214.8
M 1055.9 84.65
L 1055.9 47.65
Q 1055.9 32.65 1040.9 32.65
L 1029.9 32.65 903.95 32.65
Q 888.95 32.65 888.95 47.65
L 888.95 84.65
Q 888.95 99.65 903.95 99.65
L 1029.9 99.65 1040.9 99.65
Q 1055.9 99.65 1055.9 84.65
M 1001.9 47.2
Q 1002.45 47.2 1002.45 47.75
L 1002.45 84.65
Q 1002.45 85.2 1001.9 85.2
L 998.4 85.2
Q 998.15 85.2 998 85 997.8 84.9 997.8 84.65
L 997.8 47.75
Q 997.8 47.5 998 47.35 998.15 47.2 998.4 47.2
L 1001.9 47.2
M 995.65 71.9
Q 995.95 72 995.95 72.3
L 996.2 74.9
Q 996.25 75.2 996.05 75.4 995.9 75.55 995.7 75.6 993.45 75.95 990.45 76.2 987.45 76.5 984.15 76.7 980.85 76.9 977.55 77 974.2 77.1 971.35 77.05 971.1 77.05 970.95 76.9 970.8 76.7 970.8 76.45
L 970.8 73.75
Q 970.8 73.5 970.95 73.3 971.1 73.15 971.35 73.15 974.2 73.2 977.4 73.15 980.5 73.05 983.65 72.9 986.8 72.75 989.75 72.45 992.75 72.2 995.2 71.9 995.4 71.85 995.65 71.9
M 989.75 52.05
Q 991.1 53.3 991.85 55 992.6 56.7 992.6 58.8 992.6 60.95 991.85 62.65 991.1 64.35 989.75 65.5 988.45 66.7 986.7 67.35 984.9 67.95 982.8 67.95 980.8 67.95 979 67.35 977.25 66.7 975.95 65.5 974.65 64.35 973.9 62.65 973.1 60.95 973.1 58.8 973.1 56.7 973.9 55 974.65 53.3 975.95 52.05 977.25 50.85 979 50.2 980.8 49.55 982.85 49.55 984.9 49.55 986.7 50.2 988.45 50.85 989.75 52.05
M 1035.5 66.05
Q 1034.3 67.8 1032.95 69.45 1031.55 71.05 1030.45 72.35 1029.6 73.45 1028.6 74.65 1027.6 75.8 1026.6 76.95
L 1038.35 76.95
Q 1038.9 76.95 1038.9 77.55
L 1038.9 80.35
Q 1038.9 81.05 1038.35 81.05
L 1021.3 81.05
Q 1020.55 81.05 1020.55 80.55
L 1020.55 78.25
Q 1020.55 77.95 1020.7 77.6 1020.9 77.3 1021.1 77
L 1027.2 69.75
Q 1030.55 65.8 1032.15 63.15 1033.75 60.55 1033.75 58.85 1033.75 56.95 1032.55 55.7 1031.4 54.45 1029.65 54.45 1028 54.45 1026.45 54.9 1024.95 55.35 1023.15 56.4 1022.8 56.6 1022.5 56.6 1022.2 56.55 1022.1 56.2
L 1021.55 53.15
Q 1021.45 52.95 1021.55 52.8 1021.7 52.55 1022.1 52.35 1023.6 51.55 1025.55 50.9 1027.55 50.25 1029.4 50.25 1031.35 50.25 1032.95 50.8 1034.6 51.35 1035.75 52.4 1036.9 53.45 1037.6 55.05 1038.3 56.65 1038.3 58.75 1038.3 60.55 1037.5 62.4 1036.7 64.25 1035.5 66.05
M 938.45 48.6
Q 938.45 48.35 938.6 48.25 938.75 48.1 939 48.1
L 942.5 48.1
Q 942.7 48.1 942.85 48.25 943.05 48.35 943.05 48.6
L 943.05 52 958.1 52 958.1 48.55
Q 958.1 48.3 958.25 48.15 958.4 48 958.6 48
L 962.15 48
Q 962.4 48 962.55 48.15 962.7 48.3 962.7 48.55
L 962.7 60.05
Q 962.7 61.4 962.05 62.05 961.4 62.75 959.65 62.75
L 941.55 62.75
Q 939.7 62.75 939.1 62.15 938.45 61.55 938.45 59.9
L 938.45 48.6
M 928.4 57.95
Q 928.4 59.05 928.05 60.15 927.65 61.2 926.95 62.15 926.25 63.15 925.3 63.9 924.35 64.65 923.25 65.15 925.9 66.3 927.25 68.05 928.6 69.85 928.6 72.05 928.6 74.15 927.8 75.95 926.95 77.7 925.45 78.95 923.95 80.2 921.8 80.75 919.65 81.35 917.35 81.35 915.6 81.35 913.85 81.05 912.1 80.75 910.65 80.2 910.25 80.1 910.1 79.9 909.9 79.75 909.95 79.4
L 910.3 76.35
Q 910.35 76 910.55 75.9 910.75 75.75 911.3 76 912.35 76.3 913.4 76.6 914.45 76.9 915.55 77 916.35 77.05 917.25 77.1 918.15 77.15 919 77.05 919.85 76.95 920.65 76.65 921.4 76.4 922.05 75.95 924 74.6 924 71.95 924 71 923.6 70.15 923.15 69.3 922.3 68.65 921.4 67.95 920 67.6 918.65 67.2 916.7 67.2
L 914.75 67.2
Q 914.4 67.2 914.3 67.1 914.2 67 914.2 66.7
L 914.2 63.75
Q 914.2 63.35 914.3 63.3 914.4 63.2 914.75 63.2
L 916.65 63.2
Q 917.5 63.2 918.75 62.95 920 62.7 921.15 62.1 922.35 61.5 923.15 60.55 923.95 59.65 923.95 58.3 923.95 57.3 923.45 56.55 922.9 55.75 922.1 55.3 921.25 54.8 920.3 54.6 919.35 54.4 918.5 54.4 917.95 54.4 917.25 54.5 916.5 54.6 915.7 54.8 914.9 54.95 914.1 55.2 913.3 55.45 912.7 55.7 912.2 55.9 912 55.8 911.8 55.7 911.7 55.35
L 911.35 52.4
Q 911.25 52.15 911.4 52 911.55 51.8 911.95 51.6 913.7 51 915.4 50.6 917.05 50.25 918.75 50.25 920.55 50.25 922.3 50.7 924.05 51.15 925.35 52.05 926.7 52.95 927.55 54.45 928.4 55.95 928.4 57.95
M 968.4 69.75
Q 968.2 69.9 968 69.9
L 953.2 69.9 953.2 76.65
Q 953.2 77.2 952.65 77.2
L 949.15 77.2
Q 948.6 77.2 948.6 76.65
L 948.6 69.9 933.2 69.9
Q 932.9 69.9 932.75 69.75 932.6 69.55 932.6 69.35
L 932.6 66.7
Q 932.6 66.45 932.75 66.25 932.9 66.1 933.2 66.1
L 968 66.1
Q 968.2 66.1 968.4 66.3 968.6 66.5 968.6 66.7
L 968.6 69.35
Q 968.6 69.55 968.4 69.75
M 938.15 73.35
Q 938.15 73.15 938.3 72.95 938.5 72.8 938.7 72.8
L 942.1 72.8
Q 942.4 72.8 942.55 72.95 942.75 73.15 942.75 73.35
L 942.75 79.75
Q 942.75 80.2 942.9 80.3 943.05 80.4 943.45 80.4
L 963.5 80.4
Q 963.7 80.4 963.9 80.55 964.1 80.7 964.1 80.9
L 964.1 83.75
Q 964.1 84 963.9 84.1 963.7 84.25 963.5 84.25
L 941.15 84.25
Q 939.35 84.25 938.75 83.6 938.15 82.95 938.15 81.35
L 938.15 73.35
M 957.35 59.1
Q 958.1 59.1 958.1 58.35
L 958.1 55.65 943.05 55.65 943.05 58.35
Q 943.05 59.1 943.8 59.1
L 957.35 59.1
M 988.15 58.8
Q 988.15 56.3 986.7 54.8 985.2 53.3 982.85 53.3 980.55 53.3 979.1 54.8 977.6 56.3 977.6 58.8 977.6 61.35 979.1 62.85 980.55 64.35 982.85 64.35 985.2 64.35 986.7 62.85 988.15 61.35 988.15 58.8 Z"/>
</g>

<g id="gfnf56556_21_Layer0_0_FILL">
<path fill="#FCECE8" stroke="none" d="
M 0 22
L 0 -66.5 -76.6 66.2 0 22
M 76.75 66.5
L 76.55 66.2 0 22 -76.6 66.2 -76.75 66.5 76.75 66.5 Z"/>

<path fill="#FFFFFF" stroke="none" d="
M 0 22
L 76.55 66.2 0 -66.5 0 22 Z"/>
</g>

<g id="gfnf56556_21_Layer0_0_STROKES_1_FILL">
<path fill="#E8546E" stroke="none" d="
M -75.7 66.45
Q -75.3068359375 66.5826171875 -74.95 66.35
L -72.35 64.85
Q -71.9884765625 64.6580078125 -71.9 64.25 -71.7671875 63.85546875 -72 63.5 -72.191796875 63.1369140625 -72.6 63 -72.9931640625 62.9171875 -73.35 63.1
L -75.95 64.6
Q -76.31171875 64.8419921875 -76.45 65.25 -76.5328125 65.64453125 -76.35 66 -76.1080078125 66.362890625 -75.7 66.45
M -69.95 61.1
Q -70.31171875 61.3419921875 -70.45 61.75 -70.5328125 62.14453125 -70.35 62.5 -70.1080078125 62.862890625 -69.7 62.95 -69.3068359375 63.0826171875 -68.95 62.85
L -66.35 61.35
Q -65.9884765625 61.1580078125 -65.9 60.75 -65.7671875 60.35546875 -66 60 -66.191796875 59.6369140625 -66.6 59.5 -66.9931640625 59.4171875 -67.35 59.6
L -69.95 61.1
M -60.35 57.85
Q -59.9884765625 57.6580078125 -59.9 57.25 -59.7671875 56.85546875 -60 56.5 -60.191796875 56.1369140625 -60.6 56 -60.9931640625 55.9171875 -61.35 56.1
L -63.95 57.6
Q -64.31171875 57.8419921875 -64.45 58.25 -64.5328125 58.64453125 -64.35 59 -64.1080078125 59.362890625 -63.7 59.45 -63.3068359375 59.5826171875 -62.95 59.35
L -60.35 57.85
M -54.35 54.35
Q -53.9884765625 54.1580078125 -53.9 53.75 -53.7671875 53.35546875 -54 53 -54.191796875 52.6369140625 -54.6 52.5 -54.9931640625 52.4171875 -55.35 52.6
L -57.95 54.1
Q -58.31171875 54.3419921875 -58.45 54.75 -58.5328125 55.14453125 -58.35 55.5 -58.1080078125 55.862890625 -57.7 55.95 -57.3068359375 56.0826171875 -56.95 55.85
L -54.35 54.35
M -45.8 47.1
Q -46.16171875 47.3419921875 -46.3 47.75 -46.3828125 48.14453125 -46.2 48.5 -45.9580078125 48.862890625 -45.55 48.95 -45.1568359375 49.0826171875 -44.8 48.85
L -42.2 47.35
Q -41.8384765625 47.1580078125 -41.75 46.75 -41.6171875 46.35546875 -41.85 46 -42.041796875 45.6369140625 -42.45 45.5 -42.8431640625 45.4171875 -43.2 45.6
L -45.8 47.1
M -48.55 49
Q -48.9431640625 48.9171875 -49.3 49.1
L -51.9 50.6
Q -52.26171875 50.8419921875 -52.4 51.25 -52.4828125 51.64453125 -52.3 52 -52.0580078125 52.362890625 -51.65 52.45 -51.2568359375 52.5826171875 -50.9 52.35
L -48.3 50.85
Q -47.9384765625 50.6580078125 -47.85 50.25 -47.7171875 49.85546875 -47.95 49.5 -48.141796875 49.1369140625 -48.55 49
M -11.7 29.85
Q -11.3384765625 29.6580078125 -11.25 29.25 -11.1171875 28.85546875 -11.35 28.5 -11.541796875 28.1369140625 -11.95 28 -12.3431640625 27.9171875 -12.7 28.1
L -15.3 29.6
Q -15.66171875 29.8419921875 -15.8 30.25 -15.8828125 30.64453125 -15.7 31 -15.4580078125 31.362890625 -15.05 31.45 -14.6568359375 31.5826171875 -14.3 31.35
L -11.7 29.85
M -35.65 43.25
Q -35.5171875 42.85546875 -35.75 42.5 -35.941796875 42.1369140625 -36.35 42 -36.7431640625 41.9171875 -37.1 42.1
L -39.7 43.6
Q -40.06171875 43.8419921875 -40.2 44.25 -40.2828125 44.64453125 -40.1 45 -39.8580078125 45.362890625 -39.45 45.45 -39.0568359375 45.5826171875 -38.7 45.35
L -36.1 43.85
Q -35.7384765625 43.6580078125 -35.65 43.25
M -33.35 41.95
Q -32.9568359375 42.0826171875 -32.6 41.85
L -30 40.35
Q -29.6384765625 40.1580078125 -29.55 39.75 -29.4171875 39.35546875 -29.65 39 -29.841796875 38.6369140625 -30.25 38.5 -30.6431640625 38.4171875 -31 38.6
L -33.6 40.1
Q -33.96171875 40.3419921875 -34.1 40.75 -34.1828125 41.14453125 -34 41.5 -33.7580078125 41.862890625 -33.35 41.95
M -24.15 35
Q -24.5431640625 34.9171875 -24.9 35.1
L -27.5 36.6
Q -27.86171875 36.8419921875 -28 37.25 -28.0828125 37.64453125 -27.9 38 -27.6580078125 38.362890625 -27.25 38.45 -26.8568359375 38.5826171875 -26.5 38.35
L -23.9 36.85
Q -23.5384765625 36.6580078125 -23.45 36.25 -23.3171875 35.85546875 -23.55 35.5 -23.741796875 35.1369140625 -24.15 35
M -21.15 34.95
Q -20.7568359375 35.0826171875 -20.4 34.85
L -17.8 33.35
Q -17.4384765625 33.1580078125 -17.35 32.75 -17.2171875 32.35546875 -17.45 32 -17.641796875 31.6369140625 -18.05 31.5 -18.4431640625 31.4171875 -18.8 31.6
L -21.4 33.1
Q -21.76171875 33.3419921875 -21.9 33.75 -21.9828125 34.14453125 -21.8 34.5 -21.5580078125 34.862890625 -21.15 34.95
M -5.85 24.5
Q -6.2431640625 24.4171875 -6.6 24.6
L -9.2 26.1
Q -9.56171875 26.3419921875 -9.7 26.75 -9.7828125 27.14453125 -9.6 27.5 -9.3580078125 27.862890625 -8.95 27.95 -8.5568359375 28.0826171875 -8.2 27.85
L -5.6 26.35
Q -5.2384765625 26.1580078125 -5.15 25.75 -5.0171875 25.35546875 -5.25 25 -5.441796875 24.6369140625 -5.85 24.5
M 58.35 55.5
Q 58.5828125 55.14453125 58.45 54.75 58.3615234375 54.3419921875 58 54.1
L 55.4 52.6
Q 55.0431640625 52.4171875 54.65 52.5 54.2419921875 52.6369140625 54 53 53.8171875 53.35546875 53.9 53.75 54.03828125 54.1580078125 54.4 54.35
L 57 55.85
Q 57.3568359375 56.0826171875 57.75 55.95 58.158203125 55.862890625 58.35 55.5
M 76.45 65.25
Q 76.3615234375 64.8419921875 76 64.6
L 73.4 63.1
Q 73.0431640625 62.9171875 72.65 63 72.2419921875 63.1369140625 72 63.5 71.8171875 63.85546875 71.9 64.25 72.03828125 64.6580078125 72.4 64.85
L 75 66.35
Q 75.3568359375 66.5826171875 75.75 66.45 76.158203125 66.362890625 76.35 66 76.5828125 65.64453125 76.45 65.25
M 70.45 61.75
Q 70.3615234375 61.3419921875 70 61.1
L 67.4 59.6
Q 67.0431640625 59.4171875 66.65 59.5 66.2419921875 59.6369140625 66 60 65.8171875 60.35546875 65.9 60.75 66.03828125 61.1580078125 66.4 61.35
L 69 62.85
Q 69.3568359375 63.0826171875 69.75 62.95 70.158203125 62.862890625 70.35 62.5 70.5828125 62.14453125 70.45 61.75
M 64.35 59
Q 64.5828125 58.64453125 64.45 58.25 64.3615234375 57.8419921875 64 57.6
L 61.4 56.1
Q 61.0431640625 55.9171875 60.65 56 60.2419921875 56.1369140625 60 56.5 59.8171875 56.85546875 59.9 57.25 60.03828125 57.6580078125 60.4 57.85
L 63 59.35
Q 63.3568359375 59.5826171875 63.75 59.45 64.158203125 59.362890625 64.35 59
M 37.1 42.1
Q 36.7431640625 41.9171875 36.35 42 35.9419921875 42.1369140625 35.7 42.5 35.5171875 42.85546875 35.6 43.25 35.73828125 43.6580078125 36.1 43.85
L 38.7 45.35
Q 39.0568359375 45.5826171875 39.45 45.45 39.858203125 45.362890625 40.05 45 40.2828125 44.64453125 40.15 44.25 40.0615234375 43.8419921875 39.7 43.6
L 37.1 42.1
M 29.5 39.75
Q 29.63828125 40.1580078125 30 40.35
L 32.6 41.85
Q 32.9568359375 42.0826171875 33.35 41.95 33.758203125 41.862890625 33.95 41.5 34.1828125 41.14453125 34.05 40.75 33.9615234375 40.3419921875 33.6 40.1
L 31 38.6
Q 30.6431640625 38.4171875 30.25 38.5 29.8419921875 38.6369140625 29.6 39 29.4171875 39.35546875 29.5 39.75
M 23.4 36.25
Q 23.53828125 36.6580078125 23.9 36.85
L 26.5 38.35
Q 26.8568359375 38.5826171875 27.25 38.45 27.658203125 38.362890625 27.85 38 28.0828125 37.64453125 27.95 37.25 27.8615234375 36.8419921875 27.5 36.6
L 24.9 35.1
Q 24.5431640625 34.9171875 24.15 35 23.7419921875 35.1369140625 23.5 35.5 23.3171875 35.85546875 23.4 36.25
M 18.8 31.6
Q 18.4431640625 31.4171875 18.05 31.5 17.6419921875 31.6369140625 17.4 32 17.2171875 32.35546875 17.3 32.75 17.43828125 33.1580078125 17.8 33.35
L 20.4 34.85
Q 20.7568359375 35.0826171875 21.15 34.95 21.558203125 34.862890625 21.75 34.5 21.9828125 34.14453125 21.85 33.75 21.7615234375 33.3419921875 21.4 33.1
L 18.8 31.6
M 15.75 30.25
Q 15.6615234375 29.8419921875 15.3 29.6
L 12.7 28.1
Q 12.3431640625 27.9171875 11.95 28 11.5419921875 28.1369140625 11.3 28.5 11.1171875 28.85546875 11.2 29.25 11.33828125 29.6580078125 11.7 29.85
L 14.3 31.35
Q 14.6568359375 31.5826171875 15.05 31.45 15.458203125 31.362890625 15.65 31 15.8828125 30.64453125 15.75 30.25
M 6.6 24.6
Q 6.2431640625 24.4171875 5.85 24.5 5.4419921875 24.6369140625 5.2 25 5.0171875 25.35546875 5.1 25.75 5.23828125 26.1580078125 5.6 26.35
L 8.2 27.85
Q 8.5568359375 28.0826171875 8.95 27.95 9.358203125 27.862890625 9.55 27.5 9.7828125 27.14453125 9.65 26.75 9.5615234375 26.3419921875 9.2 26.1
L 6.6 24.6
M 1 17.5
Q 0.996484375 17.0892578125 0.7 16.8 0.4107421875 16.503515625 0 16.5 -0.4107421875 16.503515625 -0.7 16.8 -0.996484375 17.0892578125 -1 17.5
L -1 20.5
Q -0.996484375 20.9107421875 -0.7 21.2
L -0.7 21.2 -3.1 22.6
Q -3.46171875 22.8419921875 -3.6 23.25 -3.6828125 23.64453125 -3.5 24 -3.2580078125 24.362890625 -2.85 24.45 -2.4568359375 24.5826171875 -2.1 24.35
L 0 23.15 2.1 24.35
Q 2.4568359375 24.5826171875 2.85 24.45 3.258203125 24.362890625 3.45 24 3.6828125 23.64453125 3.55 23.25 3.4615234375 22.8419921875 3.1 22.6
L 0.65 21.25
Q 0.67734375 21.2232421875 0.7 21.2 0.996484375 20.9107421875 1 20.5
L 1 17.5
M 0.7 9.8
Q 0.4107421875 9.503515625 0 9.5 -0.4107421875 9.503515625 -0.7 9.8 -0.996484375 10.0892578125 -1 10.5
L -1 13.5
Q -0.996484375 13.9107421875 -0.7 14.2 -0.4107421875 14.496484375 0 14.5 0.4107421875 14.496484375 0.7 14.2 0.996484375 13.9107421875 1 13.5
L 1 10.5
Q 0.996484375 10.0892578125 0.7 9.8
M 0.7 7.2
Q 0.996484375 6.9107421875 1 6.5
L 1 3.5
Q 0.996484375 3.0892578125 0.7 2.8 0.4107421875 2.503515625 0 2.5 -0.4107421875 2.503515625 -0.7 2.8 -0.996484375 3.0892578125 -1 3.5
L -1 6.5
Q -0.996484375 6.9107421875 -0.7 7.2 -0.4107421875 7.496484375 0 7.5 0.4107421875 7.496484375 0.7 7.2
M 49.3 49.1
Q 48.9431640625 48.9171875 48.55 49 48.1419921875 49.1369140625 47.9 49.5 47.7171875 49.85546875 47.8 50.25 47.93828125 50.6580078125 48.3 50.85
L 50.9 52.35
Q 51.2568359375 52.5826171875 51.65 52.45 52.058203125 52.362890625 52.25 52 52.4828125 51.64453125 52.35 51.25 52.2615234375 50.8419921875 51.9 50.6
L 49.3 49.1
M 42.2 47.35
L 44.8 48.85
Q 45.1568359375 49.0826171875 45.55 48.95 45.958203125 48.862890625 46.15 48.5 46.3828125 48.14453125 46.25 47.75 46.1615234375 47.3419921875 45.8 47.1
L 43.2 45.6
Q 42.8431640625 45.4171875 42.45 45.5 42.0419921875 45.6369140625 41.8 46 41.6171875 46.35546875 41.7 46.75 41.83828125 47.1580078125 42.2 47.35
M -1 -7.5
Q -0.996484375 -7.0892578125 -0.7 -6.8 -0.4107421875 -6.503515625 0 -6.5 0.4107421875 -6.503515625 0.7 -6.8 0.996484375 -7.0892578125 1 -7.5
L 1 -10.5
Q 0.996484375 -10.9107421875 0.7 -11.2 0.4107421875 -11.496484375 0 -11.5 -0.4107421875 -11.496484375 -0.7 -11.2 -0.996484375 -10.9107421875 -1 -10.5
L -1 -7.5
M -0.7 -4.2
Q -0.996484375 -3.9107421875 -1 -3.5
L -1 -0.5
Q -0.996484375 -0.0892578125 -0.7 0.2 -0.4107421875 0.496484375 0 0.5 0.4107421875 0.496484375 0.7 0.2 0.996484375 -0.0892578125 1 -0.5
L 1 -3.5
Q 0.996484375 -3.9107421875 0.7 -4.2 0.4107421875 -4.496484375 0 -4.5 -0.4107421875 -4.496484375 -0.7 -4.2
M -1 -14.5
Q -0.996484375 -14.0892578125 -0.7 -13.8 -0.4107421875 -13.503515625 0 -13.5 0.4107421875 -13.503515625 0.7 -13.8 0.996484375 -14.0892578125 1 -14.5
L 1 -17.5
Q 0.996484375 -17.9107421875 0.7 -18.2 0.4107421875 -18.496484375 0 -18.5 -0.4107421875 -18.496484375 -0.7 -18.2 -0.996484375 -17.9107421875 -1 -17.5
L -1 -14.5
M -1 -21.5
Q -0.996484375 -21.0892578125 -0.7 -20.8 -0.4107421875 -20.503515625 0 -20.5 0.4107421875 -20.503515625 0.7 -20.8 0.996484375 -21.0892578125 1 -21.5
L 1 -24.5
Q 0.996484375 -24.9107421875 0.7 -25.2 0.4107421875 -25.496484375 0 -25.5 -0.4107421875 -25.496484375 -0.7 -25.2 -0.996484375 -24.9107421875 -1 -24.5
L -1 -21.5
M -1 -28.5
Q -0.996484375 -28.0892578125 -0.7 -27.8 -0.4107421875 -27.503515625 0 -27.5 0.4107421875 -27.503515625 0.7 -27.8 0.996484375 -28.0892578125 1 -28.5
L 1 -31.5
Q 0.996484375 -31.9107421875 0.7 -32.2 0.4107421875 -32.496484375 0 -32.5 -0.4107421875 -32.496484375 -0.7 -32.2 -0.996484375 -31.9107421875 -1 -31.5
L -1 -28.5
M -0.7 -39.2
Q -0.996484375 -38.9107421875 -1 -38.5
L -1 -35.5
Q -0.996484375 -35.0892578125 -0.7 -34.8 -0.4107421875 -34.503515625 0 -34.5 0.4107421875 -34.503515625 0.7 -34.8 0.996484375 -35.0892578125 1 -35.5
L 1 -38.5
Q 0.996484375 -38.9107421875 0.7 -39.2 0.4107421875 -39.496484375 0 -39.5 -0.4107421875 -39.496484375 -0.7 -39.2
M -1 -42.5
Q -0.996484375 -42.0892578125 -0.7 -41.8 -0.4107421875 -41.503515625 0 -41.5 0.4107421875 -41.503515625 0.7 -41.8 0.996484375 -42.0892578125 1 -42.5
L 1 -45.5
Q 0.996484375 -45.9107421875 0.7 -46.2 0.4107421875 -46.496484375 0 -46.5 -0.4107421875 -46.496484375 -0.7 -46.2 -0.996484375 -45.9107421875 -1 -45.5
L -1 -42.5
M -0.7 -53.2
Q -0.996484375 -52.9107421875 -1 -52.5
L -1 -49.5
Q -0.996484375 -49.0892578125 -0.7 -48.8 -0.4107421875 -48.503515625 0 -48.5 0.4107421875 -48.503515625 0.7 -48.8 0.996484375 -49.0892578125 1 -49.5
L 1 -52.5
Q 0.996484375 -52.9107421875 0.7 -53.2 0.4107421875 -53.496484375 0 -53.5 -0.4107421875 -53.496484375 -0.7 -53.2
M -1 -56.5
Q -0.996484375 -56.0892578125 -0.7 -55.8 -0.4107421875 -55.503515625 0 -55.5 0.4107421875 -55.503515625 0.7 -55.8 0.996484375 -56.0892578125 1 -56.5
L 1 -59.5
Q 0.996484375 -59.9107421875 0.7 -60.2 0.4107421875 -60.496484375 0 -60.5 -0.4107421875 -60.496484375 -0.7 -60.2 -0.996484375 -59.9107421875 -1 -59.5
L -1 -56.5
M -1 -63.5
Q -0.996484375 -63.0892578125 -0.7 -62.8 -0.4107421875 -62.503515625 0 -62.5 0.4107421875 -62.503515625 0.7 -62.8 0.996484375 -63.0892578125 1 -63.5
L 1 -66.5
Q 0.996484375 -66.9107421875 0.7 -67.2 0.4107421875 -67.496484375 0 -67.5 -0.4107421875 -67.496484375 -0.7 -67.2 -0.996484375 -66.9107421875 -1 -66.5
L -1 -63.5 Z"/>
</g>

<g id="gfnf56556_20_Layer0_0_FILL">
<path fill="#FFFFFF" stroke="none" d="
M 0 66.5
L 0 -66.5 -76.75 66.5 0 66.5 Z"/>

<path fill="#FDEBE9" stroke="none" d="
M 0 66.5
L 76.75 66.5 0 -66.5 0 66.5 Z"/>
</g>

<g id="gfnf56556_20_Layer0_0_STROKES_1_FILL">
<path fill="#E8546E" stroke="none" d="
M 0.7 58.8
Q 0.4107421875 58.503515625 0 58.5 -0.4107421875 58.503515625 -0.7 58.8 -0.996484375 59.0892578125 -1 59.5
L -1 62.5
Q -0.996484375 62.9107421875 -0.7 63.2 -0.4107421875 63.496484375 0 63.5 0.4107421875 63.496484375 0.7 63.2 0.996484375 62.9107421875 1 62.5
L 1 59.5
Q 0.996484375 59.0892578125 0.7 58.8
M 0.7 56.2
Q 0.996484375 55.9107421875 1 55.5
L 1 52.5
Q 0.996484375 52.0892578125 0.7 51.8 0.4107421875 51.503515625 0 51.5 -0.4107421875 51.503515625 -0.7 51.8 -0.996484375 52.0892578125 -1 52.5
L -1 55.5
Q -0.996484375 55.9107421875 -0.7 56.2 -0.4107421875 56.496484375 0 56.5 0.4107421875 56.496484375 0.7 56.2
M 0.7 49.2
Q 0.996484375 48.9107421875 1 48.5
L 1 45.5
Q 0.996484375 45.0892578125 0.7 44.8 0.4107421875 44.503515625 0 44.5 -0.4107421875 44.503515625 -0.7 44.8 -0.996484375 45.0892578125 -1 45.5
L -1 48.5
Q -0.996484375 48.9107421875 -0.7 49.2 -0.4107421875 49.496484375 0 49.5 0.4107421875 49.496484375 0.7 49.2
M 0.7 42.2
Q 0.996484375 41.9107421875 1 41.5
L 1 38.5
Q 0.996484375 38.0892578125 0.7 37.8 0.4107421875 37.503515625 0 37.5 -0.4107421875 37.503515625 -0.7 37.8 -0.996484375 38.0892578125 -1 38.5
L -1 41.5
Q -0.996484375 41.9107421875 -0.7 42.2 -0.4107421875 42.496484375 0 42.5 0.4107421875 42.496484375 0.7 42.2
M 0.7 35.2
Q 0.996484375 34.9107421875 1 34.5
L 1 31.5
Q 0.996484375 31.0892578125 0.7 30.8 0.4107421875 30.503515625 0 30.5 -0.4107421875 30.503515625 -0.7 30.8 -0.996484375 31.0892578125 -1 31.5
L -1 34.5
Q -0.996484375 34.9107421875 -0.7 35.2 -0.4107421875 35.496484375 0 35.5 0.4107421875 35.496484375 0.7 35.2
M 0.7 23.8
Q 0.4107421875 23.503515625 0 23.5 -0.4107421875 23.503515625 -0.7 23.8 -0.996484375 24.0892578125 -1 24.5
L -1 27.5
Q -0.996484375 27.9107421875 -0.7 28.2 -0.4107421875 28.496484375 0 28.5 0.4107421875 28.496484375 0.7 28.2 0.996484375 27.9107421875 1 27.5
L 1 24.5
Q 0.996484375 24.0892578125 0.7 23.8
M 0.7 16.8
Q 0.4107421875 16.503515625 0 16.5 -0.4107421875 16.503515625 -0.7 16.8 -0.996484375 17.0892578125 -1 17.5
L -1 20.5
Q -0.996484375 20.9107421875 -0.7 21.2 -0.4107421875 21.496484375 0 21.5 0.4107421875 21.496484375 0.7 21.2 0.996484375 20.9107421875 1 20.5
L 1 17.5
Q 0.996484375 17.0892578125 0.7 16.8
M 0.7 9.8
Q 0.4107421875 9.503515625 0 9.5 -0.4107421875 9.503515625 -0.7 9.8 -0.996484375 10.0892578125 -1 10.5
L -1 13.5
Q -0.996484375 13.9107421875 -0.7 14.2 -0.4107421875 14.496484375 0 14.5 0.4107421875 14.496484375 0.7 14.2 0.996484375 13.9107421875 1 13.5
L 1 10.5
Q 0.996484375 10.0892578125 0.7 9.8
M 0.7 7.2
Q 0.996484375 6.9107421875 1 6.5
L 1 3.5
Q 0.996484375 3.0892578125 0.7 2.8 0.4107421875 2.503515625 0 2.5 -0.4107421875 2.503515625 -0.7 2.8 -0.996484375 3.0892578125 -1 3.5
L -1 6.5
Q -0.996484375 6.9107421875 -0.7 7.2 -0.4107421875 7.496484375 0 7.5 0.4107421875 7.496484375 0.7 7.2
M 0.7 -4.2
Q 0.4107421875 -4.496484375 0 -4.5 -0.4107421875 -4.496484375 -0.7 -4.2 -0.996484375 -3.9107421875 -1 -3.5
L -1 -0.5
Q -0.996484375 -0.0892578125 -0.7 0.2 -0.4107421875 0.496484375 0 0.5 0.4107421875 0.496484375 0.7 0.2 0.996484375 -0.0892578125 1 -0.5
L 1 -3.5
Q 0.996484375 -3.9107421875 0.7 -4.2
M 0.7 -6.8
Q 0.996484375 -7.0892578125 1 -7.5
L 1 -10.5
Q 0.996484375 -10.9107421875 0.7 -11.2 0.4107421875 -11.496484375 0 -11.5 -0.4107421875 -11.496484375 -0.7 -11.2 -0.996484375 -10.9107421875 -1 -10.5
L -1 -7.5
Q -0.996484375 -7.0892578125 -0.7 -6.8 -0.4107421875 -6.503515625 0 -6.5 0.4107421875 -6.503515625 0.7 -6.8
M 0.7 -13.8
Q 0.996484375 -14.0892578125 1 -14.5
L 1 -17.5
Q 0.996484375 -17.9107421875 0.7 -18.2 0.4107421875 -18.496484375 0 -18.5 -0.4107421875 -18.496484375 -0.7 -18.2 -0.996484375 -17.9107421875 -1 -17.5
L -1 -14.5
Q -0.996484375 -14.0892578125 -0.7 -13.8 -0.4107421875 -13.503515625 0 -13.5 0.4107421875 -13.503515625 0.7 -13.8
M 0.7 -25.2
Q 0.4107421875 -25.496484375 0 -25.5 -0.4107421875 -25.496484375 -0.7 -25.2 -0.996484375 -24.9107421875 -1 -24.5
L -1 -21.5
Q -0.996484375 -21.0892578125 -0.7 -20.8 -0.4107421875 -20.503515625 0 -20.5 0.4107421875 -20.503515625 0.7 -20.8 0.996484375 -21.0892578125 1 -21.5
L 1 -24.5
Q 0.996484375 -24.9107421875 0.7 -25.2
M 0.7 -27.8
Q 0.996484375 -28.0892578125 1 -28.5
L 1 -31.5
Q 0.996484375 -31.9107421875 0.7 -32.2 0.4107421875 -32.496484375 0 -32.5 -0.4107421875 -32.496484375 -0.7 -32.2 -0.996484375 -31.9107421875 -1 -31.5
L -1 -28.5
Q -0.996484375 -28.0892578125 -0.7 -27.8 -0.4107421875 -27.503515625 0 -27.5 0.4107421875 -27.503515625 0.7 -27.8
M 0.7 -39.2
Q 0.4107421875 -39.496484375 0 -39.5 -0.4107421875 -39.496484375 -0.7 -39.2 -0.996484375 -38.9107421875 -1 -38.5
L -1 -35.5
Q -0.996484375 -35.0892578125 -0.7 -34.8 -0.4107421875 -34.503515625 0 -34.5 0.4107421875 -34.503515625 0.7 -34.8 0.996484375 -35.0892578125 1 -35.5
L 1 -38.5
Q 0.996484375 -38.9107421875 0.7 -39.2
M 0.7 -46.2
Q 0.4107421875 -46.496484375 0 -46.5 -0.4107421875 -46.496484375 -0.7 -46.2 -0.996484375 -45.9107421875 -1 -45.5
L -1 -42.5
Q -0.996484375 -42.0892578125 -0.7 -41.8 -0.4107421875 -41.503515625 0 -41.5 0.4107421875 -41.503515625 0.7 -41.8 0.996484375 -42.0892578125 1 -42.5
L 1 -45.5
Q 0.996484375 -45.9107421875 0.7 -46.2
M 0.7 -53.2
Q 0.4107421875 -53.496484375 0 -53.5 -0.4107421875 -53.496484375 -0.7 -53.2 -0.996484375 -52.9107421875 -1 -52.5
L -1 -49.5
Q -0.996484375 -49.0892578125 -0.7 -48.8 -0.4107421875 -48.503515625 0 -48.5 0.4107421875 -48.503515625 0.7 -48.8 0.996484375 -49.0892578125 1 -49.5
L 1 -52.5
Q 0.996484375 -52.9107421875 0.7 -53.2
M 0.7 -55.8
Q 0.996484375 -56.0892578125 1 -56.5
L 1 -59.5
Q 0.996484375 -59.9107421875 0.7 -60.2 0.4107421875 -60.496484375 0 -60.5 -0.4107421875 -60.496484375 -0.7 -60.2 -0.996484375 -59.9107421875 -1 -59.5
L -1 -56.5
Q -0.996484375 -56.0892578125 -0.7 -55.8 -0.4107421875 -55.503515625 0 -55.5 0.4107421875 -55.503515625 0.7 -55.8
M 0.7 -62.8
Q 0.996484375 -63.0892578125 1 -63.5
L 1 -66.5
Q 0.996484375 -66.9107421875 0.7 -67.2 0.4107421875 -67.496484375 0 -67.5 -0.4107421875 -67.496484375 -0.7 -67.2 -0.996484375 -66.9107421875 -1 -66.5
L -1 -63.5
Q -0.996484375 -63.0892578125 -0.7 -62.8 -0.4107421875 -62.503515625 0 -62.5 0.4107421875 -62.503515625 0.7 -62.8 Z"/>
</g>

<g id="gfnf56556_22_Layer0_0_FILL">
<path fill="#FDEBE9" stroke="none" d="
M -38.3 -0.15
L -76.6 66.2 0 22 -38.3 -0.15
M 0 22
L 0 -66.5 -38.3 -0.15 0 22
M 0 22
L 76.55 66.2 38.3 -0.15 0 22
M 38.3 -0.15
L 0 -66.5 0 22 38.3 -0.15 Z"/>

<path fill="#FFFFFF" stroke="none" d="
M 0 66.5
L 0 22 -76.6 66.2 -76.75 66.5 0 66.5
M 76.75 66.5
L 76.55 66.2 0 22 0 66.5 76.75 66.5 Z"/>
</g>

<g id="gfnf56556_22_Layer0_0_STROKES_1_FILL">
<path fill="#E8546E" stroke="none" d="
M -75.7 66.45
Q -75.3068359375 66.5826171875 -74.95 66.35
L -72.35 64.85
Q -71.9884765625 64.6580078125 -71.9 64.25 -71.7671875 63.85546875 -72 63.5 -72.191796875 63.1369140625 -72.6 63 -72.9931640625 62.9171875 -73.35 63.1
L -75.95 64.6
Q -76.31171875 64.8419921875 -76.45 65.25 -76.5328125 65.64453125 -76.35 66 -76.1080078125 66.362890625 -75.7 66.45
M -69.95 61.1
Q -70.31171875 61.3419921875 -70.45 61.75 -70.5328125 62.14453125 -70.35 62.5 -70.1080078125 62.862890625 -69.7 62.95 -69.3068359375 63.0826171875 -68.95 62.85
L -66.35 61.35
Q -65.9884765625 61.1580078125 -65.9 60.75 -65.7671875 60.35546875 -66 60 -66.191796875 59.6369140625 -66.6 59.5 -66.9931640625 59.4171875 -67.35 59.6
L -69.95 61.1
M -60.35 57.85
Q -59.9884765625 57.6580078125 -59.9 57.25 -59.7671875 56.85546875 -60 56.5 -60.191796875 56.1369140625 -60.6 56 -60.9931640625 55.9171875 -61.35 56.1
L -63.95 57.6
Q -64.31171875 57.8419921875 -64.45 58.25 -64.5328125 58.64453125 -64.35 59 -64.1080078125 59.362890625 -63.7 59.45 -63.3068359375 59.5826171875 -62.95 59.35
L -60.35 57.85
M -54.35 54.35
Q -53.9884765625 54.1580078125 -53.9 53.75 -53.7671875 53.35546875 -54 53 -54.191796875 52.6369140625 -54.6 52.5 -54.9931640625 52.4171875 -55.35 52.6
L -57.95 54.1
Q -58.31171875 54.3419921875 -58.45 54.75 -58.5328125 55.14453125 -58.35 55.5 -58.1080078125 55.862890625 -57.7 55.95 -57.3068359375 56.0826171875 -56.95 55.85
L -54.35 54.35
M -45.8 47.1
Q -46.16171875 47.3419921875 -46.3 47.75 -46.3828125 48.14453125 -46.2 48.5 -45.9580078125 48.862890625 -45.55 48.95 -45.1568359375 49.0826171875 -44.8 48.85
L -42.2 47.35
Q -41.8384765625 47.1580078125 -41.75 46.75 -41.6171875 46.35546875 -41.85 46 -42.041796875 45.6369140625 -42.45 45.5 -42.8431640625 45.4171875 -43.2 45.6
L -45.8 47.1
M -48.55 49
Q -48.9431640625 48.9171875 -49.3 49.1
L -51.9 50.6
Q -52.26171875 50.8419921875 -52.4 51.25 -52.4828125 51.64453125 -52.3 52 -52.0580078125 52.362890625 -51.65 52.45 -51.2568359375 52.5826171875 -50.9 52.35
L -48.3 50.85
Q -47.9384765625 50.6580078125 -47.85 50.25 -47.7171875 49.85546875 -47.95 49.5 -48.141796875 49.1369140625 -48.55 49
M -11.7 29.85
Q -11.3384765625 29.6580078125 -11.25 29.25 -11.1171875 28.85546875 -11.35 28.5 -11.541796875 28.1369140625 -11.95 28 -12.3431640625 27.9171875 -12.7 28.1
L -15.3 29.6
Q -15.66171875 29.8419921875 -15.8 30.25 -15.8828125 30.64453125 -15.7 31 -15.4580078125 31.362890625 -15.05 31.45 -14.6568359375 31.5826171875 -14.3 31.35
L -11.7 29.85
M -35.65 43.25
Q -35.5171875 42.85546875 -35.75 42.5 -35.941796875 42.1369140625 -36.35 42 -36.7431640625 41.9171875 -37.1 42.1
L -39.7 43.6
Q -40.06171875 43.8419921875 -40.2 44.25 -40.2828125 44.64453125 -40.1 45 -39.8580078125 45.362890625 -39.45 45.45 -39.0568359375 45.5826171875 -38.7 45.35
L -36.1 43.85
Q -35.7384765625 43.6580078125 -35.65 43.25
M -33.35 41.95
Q -32.9568359375 42.0826171875 -32.6 41.85
L -30 40.35
Q -29.6384765625 40.1580078125 -29.55 39.75 -29.4171875 39.35546875 -29.65 39 -29.841796875 38.6369140625 -30.25 38.5 -30.6431640625 38.4171875 -31 38.6
L -33.6 40.1
Q -33.96171875 40.3419921875 -34.1 40.75 -34.1828125 41.14453125 -34 41.5 -33.7580078125 41.862890625 -33.35 41.95
M -24.15 35
Q -24.5431640625 34.9171875 -24.9 35.1
L -27.5 36.6
Q -27.86171875 36.8419921875 -28 37.25 -28.0828125 37.64453125 -27.9 38 -27.6580078125 38.362890625 -27.25 38.45 -26.8568359375 38.5826171875 -26.5 38.35
L -23.9 36.85
Q -23.5384765625 36.6580078125 -23.45 36.25 -23.3171875 35.85546875 -23.55 35.5 -23.741796875 35.1369140625 -24.15 35
M -21.15 34.95
Q -20.7568359375 35.0826171875 -20.4 34.85
L -17.8 33.35
Q -17.4384765625 33.1580078125 -17.35 32.75 -17.2171875 32.35546875 -17.45 32 -17.641796875 31.6369140625 -18.05 31.5 -18.4431640625 31.4171875 -18.8 31.6
L -21.4 33.1
Q -21.76171875 33.3419921875 -21.9 33.75 -21.9828125 34.14453125 -21.8 34.5 -21.5580078125 34.862890625 -21.15 34.95
M -30.1 5.75
Q -29.7431640625 5.9826171875 -29.35 5.85 -28.941796875 5.762890625 -28.75 5.4 -28.5171875 5.04453125 -28.65 4.65 -28.7384765625 4.2419921875 -29.1 4
L -31.7 2.5
Q -32.0568359375 2.3171875 -32.45 2.4 -32.8580078125 2.5369140625 -33.1 2.9 -33.2828125 3.25546875 -33.2 3.65 -33.06171875 4.0580078125 -32.7 4.25
L -30.1 5.75
M -25.6 6
Q -25.9568359375 5.8171875 -26.35 5.9 -26.7580078125 6.0369140625 -27 6.4 -27.1828125 6.75546875 -27.1 7.15 -26.96171875 7.5580078125 -26.6 7.75
L -24 9.25
Q -23.6431640625 9.4826171875 -23.25 9.35 -22.841796875 9.262890625 -22.65 8.9 -22.4171875 8.54453125 -22.55 8.15 -22.6384765625 7.7419921875 -23 7.5
L -25.6 6
M -5.85 24.5
Q -6.2431640625 24.4171875 -6.6 24.6
L -9.2 26.1
Q -9.56171875 26.3419921875 -9.7 26.75 -9.7828125 27.14453125 -9.6 27.5 -9.3580078125 27.862890625 -8.95 27.95 -8.5568359375 28.0826171875 -8.2 27.85
L -5.6 26.35
Q -5.2384765625 26.1580078125 -5.15 25.75 -5.0171875 25.35546875 -5.25 25 -5.441796875 24.6369140625 -5.85 24.5
M -8.8 17.65
Q -8.66171875 18.0580078125 -8.3 18.25
L -5.7 19.75
Q -5.3431640625 19.9826171875 -4.95 19.85 -4.541796875 19.762890625 -4.35 19.4 -4.1171875 19.04453125 -4.25 18.65 -4.3384765625 18.2419921875 -4.7 18
L -7.3 16.5
Q -7.6568359375 16.3171875 -8.05 16.4 -8.4580078125 16.5369140625 -8.7 16.9 -8.8828125 17.25546875 -8.8 17.65
M -10.35 15.15
Q -10.4384765625 14.7419921875 -10.8 14.5
L -13.4 13
Q -13.7568359375 12.8171875 -14.15 12.9 -14.5580078125 13.0369140625 -14.8 13.4 -14.9828125 13.75546875 -14.9 14.15 -14.76171875 14.5580078125 -14.4 14.75
L -11.8 16.25
Q -11.4431640625 16.4826171875 -11.05 16.35 -10.641796875 16.262890625 -10.45 15.9 -10.2171875 15.54453125 -10.35 15.15
M -16.45 11.65
Q -16.5384765625 11.2419921875 -16.9 11
L -19.5 9.5
Q -19.8568359375 9.3171875 -20.25 9.4 -20.6580078125 9.5369140625 -20.9 9.9 -21.0828125 10.25546875 -21 10.65 -20.86171875 11.0580078125 -20.5 11.25
L -17.9 12.75
Q -17.5431640625 12.9826171875 -17.15 12.85 -16.741796875 12.762890625 -16.55 12.4 -16.3171875 12.04453125 -16.45 11.65
M 58.35 55.5
Q 58.5828125 55.14453125 58.45 54.75 58.3615234375 54.3419921875 58 54.1
L 55.4 52.6
Q 55.0431640625 52.4171875 54.65 52.5 54.2419921875 52.6369140625 54 53 53.8171875 53.35546875 53.9 53.75 54.03828125 54.1580078125 54.4 54.35
L 57 55.85
Q 57.3568359375 56.0826171875 57.75 55.95 58.158203125 55.862890625 58.35 55.5
M 76.45 65.25
Q 76.3615234375 64.8419921875 76 64.6
L 73.4 63.1
Q 73.0431640625 62.9171875 72.65 63 72.2419921875 63.1369140625 72 63.5 71.8171875 63.85546875 71.9 64.25 72.03828125 64.6580078125 72.4 64.85
L 75 66.35
Q 75.3568359375 66.5826171875 75.75 66.45 76.158203125 66.362890625 76.35 66 76.5828125 65.64453125 76.45 65.25
M 70.45 61.75
Q 70.3615234375 61.3419921875 70 61.1
L 67.4 59.6
Q 67.0431640625 59.4171875 66.65 59.5 66.2419921875 59.6369140625 66 60 65.8171875 60.35546875 65.9 60.75 66.03828125 61.1580078125 66.4 61.35
L 69 62.85
Q 69.3568359375 63.0826171875 69.75 62.95 70.158203125 62.862890625 70.35 62.5 70.5828125 62.14453125 70.45 61.75
M 64.35 59
Q 64.5828125 58.64453125 64.45 58.25 64.3615234375 57.8419921875 64 57.6
L 61.4 56.1
Q 61.0431640625 55.9171875 60.65 56 60.2419921875 56.1369140625 60 56.5 59.8171875 56.85546875 59.9 57.25 60.03828125 57.6580078125 60.4 57.85
L 63 59.35
Q 63.3568359375 59.5826171875 63.75 59.45 64.158203125 59.362890625 64.35 59
M 0.7 67.2
Q 0.996484375 66.9107421875 1 66.5
L 1 64
Q 0.996484375 63.5892578125 0.7 63.3 0.4107421875 63.003515625 0 63 -0.4107421875 63.003515625 -0.7 63.3 -0.996484375 63.5892578125 -1 64
L -1 66.5
Q -0.996484375 66.9107421875 -0.7 67.2 -0.4107421875 67.496484375 0 67.5 0.4107421875 67.496484375 0.7 67.2
M 0.7 60.7
Q 0.996484375 60.4107421875 1 60
L 1 57
Q 0.996484375 56.5892578125 0.7 56.3 0.4107421875 56.003515625 0 56 -0.4107421875 56.003515625 -0.7 56.3 -0.996484375 56.5892578125 -1 57
L -1 60
Q -0.996484375 60.4107421875 -0.7 60.7 -0.4107421875 60.996484375 0 61 0.4107421875 60.996484375 0.7 60.7
M 37.1 42.1
Q 36.7431640625 41.9171875 36.35 42 35.9419921875 42.1369140625 35.7 42.5 35.5171875 42.85546875 35.6 43.25 35.73828125 43.6580078125 36.1 43.85
L 38.7 45.35
Q 39.0568359375 45.5826171875 39.45 45.45 39.858203125 45.362890625 40.05 45 40.2828125 44.64453125 40.15 44.25 40.0615234375 43.8419921875 39.7 43.6
L 37.1 42.1
M 29.5 39.75
Q 29.63828125 40.1580078125 30 40.35
L 32.6 41.85
Q 32.9568359375 42.0826171875 33.35 41.95 33.758203125 41.862890625 33.95 41.5 34.1828125 41.14453125 34.05 40.75 33.9615234375 40.3419921875 33.6 40.1
L 31 38.6
Q 30.6431640625 38.4171875 30.25 38.5 29.8419921875 38.6369140625 29.6 39 29.4171875 39.35546875 29.5 39.75
M 23.4 36.25
Q 23.53828125 36.6580078125 23.9 36.85
L 26.5 38.35
Q 26.8568359375 38.5826171875 27.25 38.45 27.658203125 38.362890625 27.85 38 28.0828125 37.64453125 27.95 37.25 27.8615234375 36.8419921875 27.5 36.6
L 24.9 35.1
Q 24.5431640625 34.9171875 24.15 35 23.7419921875 35.1369140625 23.5 35.5 23.3171875 35.85546875 23.4 36.25
M 0.7 49.3
Q 0.4107421875 49.003515625 0 49 -0.4107421875 49.003515625 -0.7 49.3 -0.996484375 49.5892578125 -1 50
L -1 53
Q -0.996484375 53.4107421875 -0.7 53.7 -0.4107421875 53.996484375 0 54 0.4107421875 53.996484375 0.7 53.7 0.996484375 53.4107421875 1 53
L 1 50
Q 0.996484375 49.5892578125 0.7 49.3
M 0.7 46.7
Q 0.996484375 46.4107421875 1 46
L 1 43
Q 0.996484375 42.5892578125 0.7 42.3 0.4107421875 42.003515625 0 42 -0.4107421875 42.003515625 -0.7 42.3 -0.996484375 42.5892578125 -1 43
L -1 46
Q -0.996484375 46.4107421875 -0.7 46.7 -0.4107421875 46.996484375 0 47 0.4107421875 46.996484375 0.7 46.7
M 0.7 35.3
Q 0.4107421875 35.003515625 0 35 -0.4107421875 35.003515625 -0.7 35.3 -0.996484375 35.5892578125 -1 36
L -1 39
Q -0.996484375 39.4107421875 -0.7 39.7 -0.4107421875 39.996484375 0 40 0.4107421875 39.996484375 0.7 39.7 0.996484375 39.4107421875 1 39
L 1 36
Q 0.996484375 35.5892578125 0.7 35.3
M 1 29
Q 0.996484375 28.5892578125 0.7 28.3 0.4107421875 28.003515625 0 28 -0.4107421875 28.003515625 -0.7 28.3 -0.996484375 28.5892578125 -1 29
L -1 32
Q -0.996484375 32.4107421875 -0.7 32.7 -0.4107421875 32.996484375 0 33 0.4107421875 32.996484375 0.7 32.7 0.996484375 32.4107421875 1 32
L 1 29
M 18.8 31.6
Q 18.4431640625 31.4171875 18.05 31.5 17.6419921875 31.6369140625 17.4 32 17.2171875 32.35546875 17.3 32.75 17.43828125 33.1580078125 17.8 33.35
L 20.4 34.85
Q 20.7568359375 35.0826171875 21.15 34.95 21.558203125 34.862890625 21.75 34.5 21.9828125 34.14453125 21.85 33.75 21.7615234375 33.3419921875 21.4 33.1
L 18.8 31.6
M 15.75 30.25
Q 15.6615234375 29.8419921875 15.3 29.6
L 12.7 28.1
Q 12.3431640625 27.9171875 11.95 28 11.5419921875 28.1369140625 11.3 28.5 11.1171875 28.85546875 11.2 29.25 11.33828125 29.6580078125 11.7 29.85
L 14.3 31.35
Q 14.6568359375 31.5826171875 15.05 31.45 15.458203125 31.362890625 15.65 31 15.8828125 30.64453125 15.75 30.25
M 14.15 12.9
Q 13.7568359375 12.8171875 13.4 13
L 10.8 14.5
Q 10.43828125 14.7419921875 10.3 15.15 10.2171875 15.54453125 10.4 15.9 10.6419921875 16.262890625 11.05 16.35 11.4431640625 16.4826171875 11.8 16.25
L 14.4 14.75
Q 14.7615234375 14.5580078125 14.85 14.15 14.9828125 13.75546875 14.75 13.4 14.558203125 13.0369140625 14.15 12.9
M 6.6 24.6
Q 6.2431640625 24.4171875 5.85 24.5 5.4419921875 24.6369140625 5.2 25 5.0171875 25.35546875 5.1 25.75 5.23828125 26.1580078125 5.6 26.35
L 8.2 27.85
Q 8.5568359375 28.0826171875 8.95 27.95 9.358203125 27.862890625 9.55 27.5 9.7828125 27.14453125 9.65 26.75 9.5615234375 26.3419921875 9.2 26.1
L 6.6 24.6
M 1 17.5
Q 0.996484375 17.0892578125 0.7 16.8 0.4107421875 16.503515625 0 16.5 -0.4107421875 16.503515625 -0.7 16.8 -0.996484375 17.0892578125 -1 17.5
L -1 20.2 -1.3 20.05
Q -1.6275390625 19.8306640625 -2.05 19.9 -2.4298828125 20.021875 -2.65 20.35 -2.86953125 20.7265625 -2.8 21.1 -2.6771484375 21.5294921875 -2.35 21.75
L -2 21.95 -3.1 22.6
Q -3.46171875 22.8419921875 -3.6 23.25 -3.6828125 23.64453125 -3.5 24 -3.2580078125 24.362890625 -2.85 24.45 -2.4568359375 24.5826171875 -2.1 24.35
L -1 23.75 -1 25
Q -0.996484375 25.4107421875 -0.7 25.7 -0.4107421875 25.996484375 0 26 0.4107421875 25.996484375 0.7 25.7 0.996484375 25.4107421875 1 25
L 1 23.75 2.1 24.35
Q 2.4568359375 24.5826171875 2.85 24.45 3.258203125 24.362890625 3.45 24 3.6828125 23.64453125 3.55 23.25 3.4615234375 22.8419921875 3.1 22.6
L 1.95 21.95 2.3 21.75
Q 2.676953125 21.5294921875 2.75 21.1 2.86953125 20.7265625 2.65 20.35 2.4298828125 20.021875 2 19.9 1.6275390625 19.8306640625 1.25 20.05
L 1 20.2 1 17.5
M 8.05 16.4
Q 7.6568359375 16.3171875 7.3 16.5
L 4.7 18
Q 4.33828125 18.2419921875 4.2 18.65 4.1171875 19.04453125 4.3 19.4 4.5419921875 19.762890625 4.95 19.85 5.3431640625 19.9826171875 5.7 19.75
L 8.3 18.25
Q 8.6615234375 18.0580078125 8.75 17.65 8.8828125 17.25546875 8.65 16.9 8.458203125 16.5369140625 8.05 16.4
M 1 6.5
L 1 3.5
Q 0.996484375 3.0892578125 0.7 2.8 0.4107421875 2.503515625 0 2.5 -0.4107421875 2.503515625 -0.7 2.8 -0.996484375 3.0892578125 -1 3.5
L -1 6.5
Q -0.996484375 6.9107421875 -0.7 7.2 -0.4107421875 7.496484375 0 7.5 0.4107421875 7.496484375 0.7 7.2 0.996484375 6.9107421875 1 6.5
M 1 10.5
Q 0.996484375 10.0892578125 0.7 9.8 0.4107421875 9.503515625 0 9.5 -0.4107421875 9.503515625 -0.7 9.8 -0.996484375 10.0892578125 -1 10.5
L -1 13.5
Q -0.996484375 13.9107421875 -0.7 14.2 -0.4107421875 14.496484375 0 14.5 0.4107421875 14.496484375 0.7 14.2 0.996484375 13.9107421875 1 13.5
L 1 10.5
M 20.85 9.9
Q 20.658203125 9.5369140625 20.25 9.4 19.8568359375 9.3171875 19.5 9.5
L 16.9 11
Q 16.53828125 11.2419921875 16.4 11.65 16.3171875 12.04453125 16.5 12.4 16.7419921875 12.762890625 17.15 12.85 17.5431640625 12.9826171875 17.9 12.75
L 20.5 11.25
Q 20.8615234375 11.0580078125 20.95 10.65 21.0828125 10.25546875 20.85 9.9
M 26.35 5.9
Q 25.9568359375 5.8171875 25.6 6
L 23 7.5
Q 22.63828125 7.7419921875 22.5 8.15 22.4171875 8.54453125 22.6 8.9 22.8419921875 9.262890625 23.25 9.35 23.6431640625 9.4826171875 24 9.25
L 26.6 7.75
Q 26.9615234375 7.5580078125 27.05 7.15 27.1828125 6.75546875 26.95 6.4 26.758203125 6.0369140625 26.35 5.9
M 32.7 4.25
Q 33.0615234375 4.0580078125 33.15 3.65 33.2828125 3.25546875 33.05 2.9 32.858203125 2.5369140625 32.45 2.4 32.0568359375 2.3171875 31.7 2.5
L 29.1 4
Q 28.73828125 4.2419921875 28.6 4.65 28.5171875 5.04453125 28.7 5.4 28.9419921875 5.762890625 29.35 5.85 29.7431640625 5.9826171875 30.1 5.75
L 32.7 4.25
M 49.3 49.1
Q 48.9431640625 48.9171875 48.55 49 48.1419921875 49.1369140625 47.9 49.5 47.7171875 49.85546875 47.8 50.25 47.93828125 50.6580078125 48.3 50.85
L 50.9 52.35
Q 51.2568359375 52.5826171875 51.65 52.45 52.058203125 52.362890625 52.25 52 52.4828125 51.64453125 52.35 51.25 52.2615234375 50.8419921875 51.9 50.6
L 49.3 49.1
M 42.2 47.35
L 44.8 48.85
Q 45.1568359375 49.0826171875 45.55 48.95 45.958203125 48.862890625 46.15 48.5 46.3828125 48.14453125 46.25 47.75 46.1615234375 47.3419921875 45.8 47.1
L 43.2 45.6
Q 42.8431640625 45.4171875 42.45 45.5 42.0419921875 45.6369140625 41.8 46 41.6171875 46.35546875 41.7 46.75 41.83828125 47.1580078125 42.2 47.35
M 39.15 -0.6
Q 38.958203125 -0.9630859375 38.55 -1.1 38.1568359375 -1.1828125 37.8 -1
L 35.2 0.5
Q 34.83828125 0.7419921875 34.7 1.15 34.6171875 1.54453125 34.8 1.9 35.0419921875 2.262890625 35.45 2.35 35.8431640625 2.4826171875 36.2 2.25
L 38.8 0.75
Q 39.1615234375 0.5580078125 39.25 0.15 39.3828125 -0.24453125 39.15 -0.6
M -1 -7.5
Q -0.996484375 -7.0892578125 -0.7 -6.8 -0.4107421875 -6.503515625 0 -6.5 0.4107421875 -6.503515625 0.7 -6.8 0.996484375 -7.0892578125 1 -7.5
L 1 -10.5
Q 0.996484375 -10.9107421875 0.7 -11.2 0.4107421875 -11.496484375 0 -11.5 -0.4107421875 -11.496484375 -0.7 -11.2 -0.996484375 -10.9107421875 -1 -10.5
L -1 -7.5
M -0.7 -4.2
Q -0.996484375 -3.9107421875 -1 -3.5
L -1 -0.5
Q -0.996484375 -0.0892578125 -0.7 0.2 -0.4107421875 0.496484375 0 0.5 0.4107421875 0.496484375 0.7 0.2 0.996484375 -0.0892578125 1 -0.5
L 1 -3.5
Q 0.996484375 -3.9107421875 0.7 -4.2 0.4107421875 -4.496484375 0 -4.5 -0.4107421875 -4.496484375 -0.7 -4.2
M -1 -14.5
Q -0.996484375 -14.0892578125 -0.7 -13.8 -0.4107421875 -13.503515625 0 -13.5 0.4107421875 -13.503515625 0.7 -13.8 0.996484375 -14.0892578125 1 -14.5
L 1 -17.5
Q 0.996484375 -17.9107421875 0.7 -18.2 0.4107421875 -18.496484375 0 -18.5 -0.4107421875 -18.496484375 -0.7 -18.2 -0.996484375 -17.9107421875 -1 -17.5
L -1 -14.5
M -1 -21.5
Q -0.996484375 -21.0892578125 -0.7 -20.8 -0.4107421875 -20.503515625 0 -20.5 0.4107421875 -20.503515625 0.7 -20.8 0.996484375 -21.0892578125 1 -21.5
L 1 -24.5
Q 0.996484375 -24.9107421875 0.7 -25.2 0.4107421875 -25.496484375 0 -25.5 -0.4107421875 -25.496484375 -0.7 -25.2 -0.996484375 -24.9107421875 -1 -24.5
L -1 -21.5
M -37.8 -1
Q -38.1568359375 -1.1828125 -38.55 -1.1 -38.9580078125 -0.9630859375 -39.2 -0.6 -39.3828125 -0.24453125 -39.3 0.15 -39.16171875 0.5580078125 -38.8 0.75
L -36.2 2.25
Q -35.8431640625 2.4826171875 -35.45 2.35 -35.041796875 2.262890625 -34.85 1.9 -34.6171875 1.54453125 -34.75 1.15 -34.8384765625 0.7419921875 -35.2 0.5
L -37.8 -1
M -0.7 -32.2
Q -0.996484375 -31.9107421875 -1 -31.5
L -1 -28.5
Q -0.996484375 -28.0892578125 -0.7 -27.8 -0.4107421875 -27.503515625 0 -27.5 0.4107421875 -27.503515625 0.7 -27.8 0.996484375 -28.0892578125 1 -28.5
L 1 -31.5
Q 0.996484375 -31.9107421875 0.7 -32.2 0.4107421875 -32.496484375 0 -32.5 -0.4107421875 -32.496484375 -0.7 -32.2
M -0.7 -39.2
Q -0.996484375 -38.9107421875 -1 -38.5
L -1 -35.5
Q -0.996484375 -35.0892578125 -0.7 -34.8 -0.4107421875 -34.503515625 0 -34.5 0.4107421875 -34.503515625 0.7 -34.8 0.996484375 -35.0892578125 1 -35.5
L 1 -38.5
Q 0.996484375 -38.9107421875 0.7 -39.2 0.4107421875 -39.496484375 0 -39.5 -0.4107421875 -39.496484375 -0.7 -39.2
M -1 -42.5
Q -0.996484375 -42.0892578125 -0.7 -41.8 -0.4107421875 -41.503515625 0 -41.5 0.4107421875 -41.503515625 0.7 -41.8 0.996484375 -42.0892578125 1 -42.5
L 1 -45.5
Q 0.996484375 -45.9107421875 0.7 -46.2 0.4107421875 -46.496484375 0 -46.5 -0.4107421875 -46.496484375 -0.7 -46.2 -0.996484375 -45.9107421875 -1 -45.5
L -1 -42.5
M -0.7 -53.2
Q -0.996484375 -52.9107421875 -1 -52.5
L -1 -49.5
Q -0.996484375 -49.0892578125 -0.7 -48.8 -0.4107421875 -48.503515625 0 -48.5 0.4107421875 -48.503515625 0.7 -48.8 0.996484375 -49.0892578125 1 -49.5
L 1 -52.5
Q 0.996484375 -52.9107421875 0.7 -53.2 0.4107421875 -53.496484375 0 -53.5 -0.4107421875 -53.496484375 -0.7 -53.2
M -1 -56.5
Q -0.996484375 -56.0892578125 -0.7 -55.8 -0.4107421875 -55.503515625 0 -55.5 0.4107421875 -55.503515625 0.7 -55.8 0.996484375 -56.0892578125 1 -56.5
L 1 -59.5
Q 0.996484375 -59.9107421875 0.7 -60.2 0.4107421875 -60.496484375 0 -60.5 -0.4107421875 -60.496484375 -0.7 -60.2 -0.996484375 -59.9107421875 -1 -59.5
L -1 -56.5
M -1 -63.5
Q -0.996484375 -63.0892578125 -0.7 -62.8 -0.4107421875 -62.503515625 0 -62.5 0.4107421875 -62.503515625 0.7 -62.8 0.996484375 -63.0892578125 1 -63.5
L 1 -66.5
Q 0.996484375 -66.9107421875 0.7 -67.2 0.4107421875 -67.496484375 0 -67.5 -0.4107421875 -67.496484375 -0.7 -67.2 -0.996484375 -66.9107421875 -1 -66.5
L -1 -63.5 Z"/>
</g>

<g id="fdnd533535_0_Layer0_0_FILL">
<path fill="url(#Gradient_1)" stroke="none" d="
M 5.45 -5.5
Q 3.2 -7.75 0 -7.75 -3.2 -7.75 -5.5 -5.5 -7.75 -3.2 -7.75 0 -7.75 3.2 -5.5 5.45 -3.2 7.75 0 7.75 3.2 7.75 5.45 5.45 7.75 3.2 7.75 0 7.75 -3.2 5.45 -5.5 Z"/>
</g>

<path id="Layer0_0_1_STROKES" stroke="#1E1E1E" stroke-width="3" stroke-linejoin="miter" stroke-linecap="butt" stroke-miterlimit="3" fill="none" d="
M 580.95 66.15
L 619.15 66.15
M 580.95 226.15
L 619.15 226.15
M 580.95 386.15
L 619.15 386.15"/>

<path id="gfnf56556_21_Layer0_0_1_STROKES" stroke="#E8546E" stroke-width="3" stroke-linejoin="miter" stroke-linecap="butt" stroke-miterlimit="3" fill="none" d="
M 76.575 66.2
L 76.75 66.5 -76.75 66.5 -76.575 66.2 0 -66.5 76.575 66.2 Z"/>

<path id="gfnf56556_20_Layer0_0_1_STROKES" stroke="#E8546E" stroke-width="3" stroke-linejoin="miter" stroke-linecap="butt" stroke-miterlimit="3" fill="none" d="
M 0 -66.5
L 76.75 66.5 0 66.5 -76.75 66.5 0 -66.5 Z"/>

<path id="gfnf56556_22_Layer0_0_1_STROKES" stroke="#E8546E" stroke-width="3" stroke-linejoin="miter" stroke-linecap="butt" stroke-miterlimit="3" fill="none" d="
M -76.575 66.2
L -38.3 -0.125 0 -66.5 38.3 -0.125 76.575 66.2 76.75 66.5 0 66.5 -76.75 66.5 -76.575 66.2 Z"/>
</defs>

<g transform="matrix( 1, 0, 0, 1, 0,0) ">
<use xlink:href="#Layer0_0_FILL"/>

<use xlink:href="#Layer0_0_1_STROKES"/>
</g>

<g transform="matrix( 1, 0, 0, 1, 239.55,230) ">
<g transform="matrix( 1, 0, 0, 1, 0,0) ">
<use xlink:href="#gfnf56556_21_Layer0_0_FILL"/>

<use xlink:href="#gfnf56556_21_Layer0_0_1_STROKES"/>

<use xlink:href="#gfnf56556_21_Layer0_0_STROKES_1_FILL"/>
</g>
</g>

<g transform="matrix( 1, 0, 0, 1, 239.55,70) ">
<g transform="matrix( 1, 0, 0, 1, 0,0) ">
<use xlink:href="#gfnf56556_20_Layer0_0_FILL"/>

<use xlink:href="#gfnf56556_20_Layer0_0_1_STROKES"/>

<use xlink:href="#gfnf56556_20_Layer0_0_STROKES_1_FILL"/>
</g>
</g>

<g transform="matrix( 1, 0, 0, 1, 239.55,390) ">
<g transform="matrix( 1, 0, 0, 1, 0,0) ">
<use xlink:href="#gfnf56556_22_Layer0_0_FILL"/>

<use xlink:href="#gfnf56556_22_Layer0_0_1_STROKES"/>

<use xlink:href="#gfnf56556_22_Layer0_0_STROKES_1_FILL"/>
</g>
</g>

<g transform="matrix( 1, 0, 0, 1, 333.1,67.15) ">
<g transform="matrix( 1, 0, 0, 1, 0,0) ">
<use xlink:href="#fdnd533535_0_Layer0_0_FILL"/>
</g>
</g>

<g transform="matrix( 1, 0, 0, 1, 333.1,227.15) ">
<g transform="matrix( 1, 0, 0, 1, 0,0) ">
<use xlink:href="#fdnd533535_0_Layer0_0_FILL"/>
</g>
</g>

<g transform="matrix( 1, 0, 0, 1, 333.1,387.15) ">
<g transform="matrix( 1, 0, 0, 1, 0,0) ">
<use xlink:href="#fdnd533535_0_Layer0_0_FILL"/>
</g>
</g>

<g transform="matrix( 1, 0, 0, 1, 533.1,67.15) ">
<g transform="matrix( 1, 0, 0, 1, 0,0) ">
<use xlink:href="#fdnd533535_0_Layer0_0_FILL"/>
</g>
</g>

<g transform="matrix( 1, 0, 0, 1, 533.1,227.15) ">
<g transform="matrix( 1, 0, 0, 1, 0,0) ">
<use xlink:href="#fdnd533535_0_Layer0_0_FILL"/>
</g>
</g>

<g transform="matrix( 1, 0, 0, 1, 533.1,387.15) ">
<g transform="matrix( 1, 0, 0, 1, 0,0) ">
<use xlink:href="#fdnd533535_0_Layer0_0_FILL"/>
</g>
</g>

<g transform="matrix( 1, 0, 0, 1, 663.1,67.15) ">
<g transform="matrix( 1, 0, 0, 1, 0,0) ">
<use xlink:href="#fdnd533535_0_Layer0_0_FILL"/>
</g>
</g>

<g transform="matrix( 1, 0, 0, 1, 663.1,227.15) ">
<g transform="matrix( 1, 0, 0, 1, 0,0) ">
<use xlink:href="#fdnd533535_0_Layer0_0_FILL"/>
</g>
</g>

<g transform="matrix( 1, 0, 0, 1, 663.1,387.15) ">
<g transform="matrix( 1, 0, 0, 1, 0,0) ">
<use xlink:href="#fdnd533535_0_Layer0_0_FILL"/>
</g>
</g>

<g transform="matrix( 1, 0, 0, 1, 863.1,67.15) ">
<g transform="matrix( 1, 0, 0, 1, 0,0) ">
<use xlink:href="#fdnd533535_0_Layer0_0_FILL"/>
</g>
</g>

<g transform="matrix( 1, 0, 0, 1, 863.1,227.15) ">
<g transform="matrix( 1, 0, 0, 1, 0,0) ">
<use xlink:href="#fdnd533535_0_Layer0_0_FILL"/>
</g>
</g>

<g transform="matrix( 1, 0, 0, 1, 863.1,387.15) ">
<g transform="matrix( 1, 0, 0, 1, 0,0) ">
<use xlink:href="#fdnd533535_0_Layer0_0_FILL"/>
</g>
</g>
</svg>
