<svg xmlns="http://www.w3.org/2000/svg" viewBox="0 0 192.76 22.98"><defs><style>.cls-1{fill:none;stroke:#d0c395;stroke-linecap:round;stroke-linejoin:round;}.cls-2{fill:#d0c395;}.cls-3{fill:#dfd5b5;}.cls-4{fill:#fdfcf9;}.cls-5{fill:#efe9d6;}</style></defs><title>자산 3</title><g id="레이어_2" data-name="레이어 2"><g id="레이어_1-2" data-name="레이어 1"><line class="cls-1" x1="23.18" y1="11.49" x2="160.37" y2="11.49"/><path class="cls-2" d="M43.28.86A1.77,1.77,0,0,0,41.78,0h-40A1.81,1.81,0,0,0,0,1.82V21.16a1.84,1.84,0,0,0,.39,1.13A1.77,1.77,0,0,0,1.78,23h40a1.8,1.8,0,0,0,1.78-1.82V1.82a1.83,1.83,0,0,0-.28-1"/><path class="cls-3" d="M41.32,2a1.48,1.48,0,0,1,.58,1.15V19.78a1.59,1.59,0,0,1-1.65,1.53H3.43a1.64,1.64,0,0,1-.85-.23l-1.46.59a1.72,1.72,0,0,0,1.35.66H41.2a1.74,1.74,0,0,0,1.74-1.74V2.39a1.71,1.71,0,0,0-.27-.92Z"/><path class="cls-4" d="M1.79,19.78V3.17A1.59,1.59,0,0,1,3.43,1.64H40.25A1.72,1.72,0,0,1,41.32,2l1.35-.55A1.74,1.74,0,0,0,41.2.65H2.47A1.74,1.74,0,0,0,.73,2.39v18.2a1.72,1.72,0,0,0,.39,1.08l1.45-.59a1.5,1.5,0,0,1-.78-1.3"/><path class="cls-5" d="M41.32,2a1.72,1.72,0,0,0-1.07-.38H3.43A1.59,1.59,0,0,0,1.79,3.17V19.78a1.49,1.49,0,0,0,.79,1.3,1.64,1.64,0,0,0,.85.23H40.25a1.59,1.59,0,0,0,1.65-1.53V3.17A1.48,1.48,0,0,0,41.32,2"/><path class="cls-2" d="M192.48.86A1.79,1.79,0,0,0,191,0H151a1.8,1.8,0,0,0-1.78,1.82V21.16a1.84,1.84,0,0,0,.39,1.13A1.77,1.77,0,0,0,151,23h40a1.8,1.8,0,0,0,1.79-1.82V1.82a1.83,1.83,0,0,0-.28-1"/><path class="cls-3" d="M190.52,2a1.47,1.47,0,0,1,.57,1.15V19.78a1.58,1.58,0,0,1-1.64,1.53H152.63a1.68,1.68,0,0,1-.86-.23l-1.45.59a1.72,1.72,0,0,0,1.35.66H190.4a1.74,1.74,0,0,0,1.74-1.74V2.39a1.71,1.71,0,0,0-.27-.92Z"/><path class="cls-4" d="M151,19.78V3.17a1.6,1.6,0,0,1,1.65-1.53h36.82a1.72,1.72,0,0,1,1.07.38l1.35-.55A1.74,1.74,0,0,0,190.4.65H151.67a1.74,1.74,0,0,0-1.74,1.74v18.2a1.72,1.72,0,0,0,.39,1.08l1.45-.59a1.51,1.51,0,0,1-.79-1.3"/><path class="cls-5" d="M190.52,2a1.72,1.72,0,0,0-1.07-.38H152.63A1.6,1.6,0,0,0,151,3.17V19.78a1.51,1.51,0,0,0,.79,1.3,1.68,1.68,0,0,0,.86.23h36.82a1.58,1.58,0,0,0,1.64-1.53V3.17A1.47,1.47,0,0,0,190.52,2"/><path class="cls-2" d="M142.75.86A1.79,1.79,0,0,0,141.24,0h-40a1.81,1.81,0,0,0-1.79,1.82V21.16a1.85,1.85,0,0,0,.4,1.13,1.75,1.75,0,0,0,1.39.69h40A1.8,1.8,0,0,0,143,21.16V1.82a1.82,1.82,0,0,0-.27-1"/><path class="cls-3" d="M140.78,2a1.48,1.48,0,0,1,.58,1.15V19.78a1.59,1.59,0,0,1-1.64,1.53H102.9a1.65,1.65,0,0,1-.86-.23l-1.46.59a1.73,1.73,0,0,0,1.36.66h38.72a1.73,1.73,0,0,0,1.74-1.74V2.39a1.7,1.7,0,0,0-.26-.92Z"/><path class="cls-4" d="M101.25,19.78V3.17a1.6,1.6,0,0,1,1.65-1.53h36.82a1.69,1.69,0,0,1,1.06.38l1.36-.55a1.74,1.74,0,0,0-1.48-.82H101.94a1.74,1.74,0,0,0-1.74,1.74v18.2a1.71,1.71,0,0,0,.38,1.08l1.46-.59a1.51,1.51,0,0,1-.79-1.3"/><path class="cls-5" d="M140.78,2a1.69,1.69,0,0,0-1.06-.38H102.9a1.6,1.6,0,0,0-1.65,1.53V19.78a1.51,1.51,0,0,0,.79,1.3,1.65,1.65,0,0,0,.86.23h36.82a1.59,1.59,0,0,0,1.64-1.53V3.17A1.48,1.48,0,0,0,140.78,2"/><path class="cls-2" d="M93,.86A1.76,1.76,0,0,0,91.51,0h-40a1.81,1.81,0,0,0-1.78,1.82V21.16a1.85,1.85,0,0,0,.4,1.13,1.75,1.75,0,0,0,1.38.69h40a1.8,1.8,0,0,0,1.78-1.82V1.82a1.74,1.74,0,0,0-.28-1"/><path class="cls-3" d="M91.05,2a1.48,1.48,0,0,1,.58,1.15V19.78A1.59,1.59,0,0,1,90,21.31H53.17a1.65,1.65,0,0,1-.86-.23l-1.46.59a1.72,1.72,0,0,0,1.35.66H90.93a1.74,1.74,0,0,0,1.74-1.74V2.39a1.79,1.79,0,0,0-.26-.92Z"/><path class="cls-4" d="M51.52,19.78V3.17a1.6,1.6,0,0,1,1.65-1.53H90A1.72,1.72,0,0,1,91.05,2l1.35-.55A1.73,1.73,0,0,0,90.93.65H52.2a1.74,1.74,0,0,0-1.74,1.74v18.2a1.72,1.72,0,0,0,.39,1.08l1.46-.59a1.51,1.51,0,0,1-.79-1.3"/><path class="cls-5" d="M91.05,2A1.72,1.72,0,0,0,90,1.64H53.17a1.6,1.6,0,0,0-1.65,1.53V19.78a1.51,1.51,0,0,0,.79,1.3,1.65,1.65,0,0,0,.86.23H90a1.59,1.59,0,0,0,1.65-1.53V3.17A1.48,1.48,0,0,0,91.05,2"/></g></g></svg>