<?xml version="1.0" encoding="utf-8"?>
<!-- Generator: Adobe Illustrator 23.0.0, SVG Export Plug-In . SVG Version: 6.00 Build 0)  -->
<svg version="1.1" id="Layer_1" xmlns="http://www.w3.org/2000/svg" xmlns:xlink="http://www.w3.org/1999/xlink" x="0px" y="0px"
	 width="570.5px" height="59.2px" viewBox="0 0 570.5 59.2" style="enable-background:new 0 0 570.5 59.2;" xml:space="preserve">
<g>
	
		<line style="fill:none;stroke:#A195C7;stroke-width:2.9856;stroke-linecap:round;stroke-linejoin:round;stroke-miterlimit:10;" x1="115.9" y1="29.6" x2="512.2" y2="29.6"/>
	<g>
		<path style="fill:#A195C7;" d="M161,2.6C160,1,158.4,0,156.5,0H5.3C2.4,0,0,2.4,0,5.4v48.4c0,1.3,0.5,2.4,1.2,3.4
			c1,1.2,2.5,2.1,4.1,2.1h151.1c2.9,0,5.3-2.4,5.3-5.4V5.4C161.8,4.4,161.5,3.4,161,2.6"/>
		<path style="fill:#AEA4D0;" d="M155.1,6c1,0.8,1.7,2.1,1.7,3.4v40.2c0,2.5-2.2,4.6-4.9,4.6H10.2c-0.9,0-1.8-0.3-2.6-0.7l-4.3,1.8
			c0.9,1.2,2.4,2,4,2h147.4c2.9,0,5.2-2.3,5.2-5.2v-45c0-1-0.3-1.9-0.8-2.7L155.1,6z"/>
		<path style="fill:#F6F6FA;" d="M5.3,49.7V9.5c0-2.5,2.2-4.6,4.9-4.6h141.7c1.2,0,2.3,0.4,3.2,1.1l4-1.6c-0.9-1.5-2.5-2.4-4.4-2.4
			H7.4c-2.9,0-5.2,2.3-5.2,5.2v45c0,1.2,0.4,2.3,1.2,3.2l4.3-1.8C6.3,52.8,5.3,51.3,5.3,49.7"/>
		<path style="fill:#F0ECF5;" d="M155.1,6c-0.9-0.7-2-1.1-3.2-1.1H10.2c-2.7,0-4.9,2-4.9,4.6v40.2c0,1.6,0.9,3.1,2.3,3.9
			c0.7,0.4,1.6,0.7,2.6,0.7h141.7c2.7,0,4.9-2,4.9-4.6V9.5C156.8,8.1,156.1,6.9,155.1,6"/>
	</g>
	<g>
		<path d="M60.8,17.1c1.1,0,2,0.2,2.8,0.5c0.8,0.3,1.5,0.7,2.1,1.2c0.6,0.5,1,1.1,1.3,1.8c0.3,0.7,0.4,1.4,0.4,2.2v0.3
			c0,0.9-0.3,1.8-0.8,2.6s-1.3,1.5-2.4,2.1c1.1,0.3,2,0.9,2.7,1.8c0.7,0.9,1.1,1.9,1.1,3.1v0.4c0,0.9-0.2,1.6-0.5,2.4
			c-0.3,0.7-0.8,1.3-1.4,1.9c-0.6,0.5-1.4,0.9-2.3,1.2c-0.9,0.3-1.9,0.4-3,0.4c-1.2,0-2.2-0.1-3.1-0.4c-0.9-0.3-1.7-0.7-2.3-1.2
			s-1.1-1.1-1.4-1.9s-0.5-1.5-0.5-2.4v-0.4c0-0.6,0.1-1.2,0.3-1.7c0.2-0.5,0.5-1,0.8-1.4s0.7-0.8,1.2-1.1c0.5-0.3,1-0.5,1.5-0.7
			c-1-0.5-1.8-1.2-2.4-2c-0.5-0.9-0.8-1.7-0.8-2.6v-0.3c0-0.8,0.1-1.5,0.4-2.2c0.3-0.7,0.7-1.3,1.3-1.8s1.2-0.9,2.1-1.2
			C58.8,17.2,59.8,17.1,60.8,17.1z M60.9,29.1c-0.6,0-1.1,0.1-1.6,0.2c-0.5,0.1-1,0.4-1.3,0.7c-0.4,0.3-0.7,0.7-0.9,1.1
			c-0.2,0.5-0.3,1-0.3,1.6v0.2c0,1,0.4,1.8,1.1,2.5c0.8,0.6,1.8,1,3.1,1c1.3,0,2.3-0.3,3.1-1c0.7-0.6,1.1-1.5,1.1-2.5v-0.2
			c0-0.6-0.1-1.1-0.3-1.6c-0.2-0.4-0.5-0.8-0.9-1.1s-0.8-0.5-1.3-0.7C62,29.2,61.5,29.1,60.9,29.1z M60.9,19.7c-1.1,0-2,0.3-2.6,0.9
			c-0.7,0.6-1,1.4-1,2.4v0.2c0,0.5,0.1,1,0.3,1.4c0.2,0.4,0.5,0.8,0.8,1c0.3,0.3,0.7,0.5,1.2,0.7s0.9,0.2,1.4,0.2
			c1,0,1.9-0.3,2.6-0.9c0.7-0.6,1-1.4,1-2.5V23c0-1-0.3-1.8-1-2.4C62.9,20,62,19.7,60.9,19.7z"/>
		<path d="M86.1,17.8c0.3,0.3,0.5,0.7,0.5,1.2c0,0.1,0,0.3,0,0.4c0,0.1-0.1,0.3-0.1,0.4c-0.1,0.2-0.1,0.4-0.2,0.6
			c-0.1,0.2-0.2,0.5-0.4,0.9L78.3,38c-0.2,0.4-0.5,0.7-0.8,0.7c-0.4,0.1-0.7,0-1.1-0.1s-0.6-0.4-0.8-0.7c-0.2-0.3-0.2-0.7,0-1.1
			L83.4,20H72.5c-0.4,0-0.6-0.1-0.8-0.4c-0.2-0.3-0.3-0.6-0.3-0.9c0-0.3,0.1-0.6,0.3-0.9c0.2-0.3,0.4-0.4,0.8-0.4h12
			C85.3,17.4,85.8,17.5,86.1,17.8z"/>
		<path d="M97,16.6c1.2,0,2.2,0.2,3,0.5c0.9,0.3,1.6,0.8,2.1,1.4c0.6,0.6,1,1.3,1.3,2.1c0.3,0.8,0.4,1.7,0.4,2.6
			c0,1-0.1,1.8-0.4,2.6c-0.3,0.8-0.7,1.5-1.3,2.1c-0.6,0.6-1.3,1.1-2.1,1.4s-1.9,0.5-3,0.5c-1.2,0-2.2-0.2-3-0.5
			c-0.9-0.3-1.6-0.8-2.1-1.4c-0.6-0.6-1-1.3-1.3-2.1c-0.3-0.8-0.4-1.7-0.4-2.6c0-0.9,0.1-1.8,0.4-2.6c0.3-0.8,0.7-1.5,1.3-2.1
			c0.6-0.6,1.3-1.1,2.1-1.4C94.8,16.8,95.8,16.6,97,16.6z M97,19.1c-0.7,0-1.3,0.1-1.8,0.3c-0.5,0.2-0.9,0.5-1.2,0.9
			c-0.3,0.4-0.6,0.8-0.7,1.3s-0.2,1-0.2,1.6c0,0.6,0.1,1.1,0.2,1.6c0.1,0.5,0.4,0.9,0.7,1.3c0.3,0.4,0.7,0.7,1.2,0.9
			c0.5,0.2,1.1,0.3,1.8,0.3c0.7,0,1.3-0.1,1.8-0.3c0.5-0.2,0.9-0.5,1.2-0.9c0.3-0.4,0.6-0.8,0.7-1.3c0.1-0.5,0.2-1,0.2-1.6
			c0-0.6-0.1-1.1-0.2-1.6c-0.1-0.5-0.4-0.9-0.7-1.3c-0.3-0.4-0.7-0.7-1.2-0.9C98.3,19.3,97.7,19.1,97,19.1z M109.6,33
			c0.9,0,1.5,0.2,1.8,0.5c0.3,0.3,0.5,0.9,0.5,1.8V42c0,0.4-0.1,0.8-0.4,1c-0.3,0.2-0.6,0.3-1,0.3c-0.4,0-0.7-0.1-1-0.3
			c-0.3-0.2-0.4-0.5-0.4-1v-5.9c0-0.4-0.2-0.6-0.6-0.6H94.9c-0.4,0-0.7-0.1-0.8-0.4c-0.2-0.3-0.3-0.6-0.3-0.9c0-0.3,0.1-0.6,0.3-0.9
			c0.2-0.3,0.4-0.4,0.8-0.4H109.6z M110.5,15.5c0.4,0,0.7,0.1,1,0.3c0.3,0.2,0.4,0.5,0.4,1v13.6c0,0.4-0.1,0.8-0.4,1
			c-0.3,0.2-0.6,0.3-1,0.3c-0.4,0-0.7-0.1-1-0.3c-0.3-0.2-0.4-0.5-0.4-1v-5.9h-7V22h7v-5.2c0-0.4,0.1-0.8,0.4-1
			C109.7,15.6,110.1,15.5,110.5,15.5z"/>
	</g>
	<g>
		<path style="fill:#A195C7;" d="M365.3,2.6C364.4,1,362.7,0,360.8,0H209.7c-2.9,0-5.3,2.4-5.3,5.4v48.4c0,1.3,0.5,2.4,1.2,3.4
			c1,1.2,2.5,2.1,4.1,2.1h151.1c2.9,0,5.3-2.4,5.3-5.4V5.4C366.1,4.4,365.8,3.4,365.3,2.6"/>
		<path style="fill:#AEA4D0;" d="M359.5,6c1,0.8,1.7,2.1,1.7,3.4v40.2c0,2.5-2.2,4.6-4.9,4.6H214.6c-0.9,0-1.8-0.3-2.6-0.7l-4.3,1.8
			c0.9,1.2,2.4,2,4,2h147.4c2.9,0,5.2-2.3,5.2-5.2v-45c0-1-0.3-1.9-0.8-2.7L359.5,6z"/>
		<path style="fill:#F6F6FA;" d="M209.7,49.7V9.5c0-2.5,2.2-4.6,4.9-4.6h141.7c1.2,0,2.3,0.4,3.2,1.1l4-1.6
			c-0.9-1.5-2.5-2.4-4.4-2.4H211.7c-2.9,0-5.2,2.3-5.2,5.2v45c0,1.2,0.4,2.3,1.2,3.2l4.3-1.8C210.6,52.8,209.7,51.3,209.7,49.7"/>
		<path style="fill:#FFFFFF;" d="M359.5,6c-0.9-0.7-2-1.1-3.2-1.1H214.6c-2.7,0-4.9,2-4.9,4.6v40.2c0,1.6,0.9,3.1,2.3,3.9
			c0.7,0.4,1.6,0.7,2.6,0.7h141.7c2.7,0,4.9-2,4.9-4.6V9.5C361.2,8.1,360.5,6.9,359.5,6"/>
	</g>
	<g>
		<path style="fill:#00A0E9;" d="M265,17.1c2.5,0,4.4,0.8,5.6,2.3c1.3,1.5,1.9,3.8,1.9,6.7V27c0,2.4-0.2,4.3-0.6,5.9
			c-0.4,1.6-0.9,2.8-1.7,3.7c-0.7,0.9-1.6,1.5-2.6,1.9c-1,0.4-2.2,0.5-3.4,0.5c-1,0-1.8-0.1-2.7-0.3c-0.8-0.2-1.5-0.5-2.1-0.8
			c-0.4-0.2-0.6-0.5-0.7-0.8c-0.1-0.3,0-0.6,0.1-1s0.4-0.6,0.7-0.7c0.3-0.1,0.7-0.1,1.1,0.1c0.5,0.3,1.1,0.5,1.7,0.6
			c0.6,0.1,1.3,0.2,2,0.2c0.8,0,1.6-0.1,2.2-0.4c0.6-0.3,1.1-0.7,1.6-1.3c0.4-0.6,0.8-1.3,1-2.3c0.2-0.9,0.4-2.1,0.4-3.4
			c-0.5,0.8-1.2,1.4-2.2,1.8c-1,0.4-2,0.6-3,0.6c-1,0-2-0.2-2.8-0.5c-0.8-0.3-1.5-0.8-2.1-1.4c-0.6-0.6-1-1.3-1.3-2.1
			c-0.3-0.8-0.5-1.8-0.5-2.8V24c0-1,0.2-2,0.5-2.8c0.4-0.8,0.9-1.6,1.5-2.2c0.6-0.6,1.4-1.1,2.3-1.4C262.9,17.3,263.9,17.1,265,17.1
			z M265.1,19.8c-1.4,0-2.5,0.4-3.3,1.1s-1.2,1.8-1.2,3.2v0.2c0,2.9,1.5,4.3,4.4,4.3c0.7,0,1.4-0.1,1.9-0.3s1-0.5,1.4-0.9
			s0.7-0.8,0.9-1.3c0.2-0.5,0.3-1,0.3-1.6v-0.2c0-1.4-0.4-2.5-1.1-3.3C267.5,20.2,266.5,19.8,265.1,19.8z"/>
		<path style="fill:#00A0E9;" d="M283.4,17.1c2.7,0,4.6,0.9,5.8,2.6c1.2,1.8,1.8,4.3,1.8,7.6v1.5c0,3.3-0.6,5.8-1.8,7.6
			c-1.2,1.8-3.2,2.6-5.8,2.6c-2.7,0-4.6-0.9-5.8-2.6c-1.2-1.8-1.8-4.3-1.8-7.6v-1.5c0-3.3,0.6-5.8,1.8-7.6
			C278.8,18,280.7,17.1,283.4,17.1z M283.4,19.9c-0.9,0-1.6,0.1-2.2,0.4c-0.6,0.3-1.1,0.8-1.4,1.4s-0.6,1.4-0.8,2.4
			c-0.1,1-0.2,2.1-0.2,3.4v1c0,1.3,0.1,2.5,0.2,3.4c0.1,1,0.4,1.7,0.8,2.4s0.8,1.1,1.4,1.4c0.6,0.3,1.3,0.4,2.2,0.4
			c0.9,0,1.6-0.1,2.2-0.4c0.6-0.3,1.1-0.8,1.4-1.4c0.4-0.6,0.6-1.4,0.8-2.4c0.1-1,0.2-2.1,0.2-3.4v-1c0-1.3-0.1-2.5-0.2-3.4
			c-0.1-1-0.4-1.7-0.8-2.4c-0.4-0.6-0.8-1.1-1.4-1.4C285,20,284.3,19.9,283.4,19.9z"/>
		<path style="fill:#00A0E9;" d="M301.3,16.6c1.2,0,2.2,0.2,3,0.5c0.9,0.3,1.6,0.8,2.1,1.4c0.6,0.6,1,1.3,1.3,2.1
			c0.3,0.8,0.4,1.7,0.4,2.6c0,1-0.1,1.8-0.4,2.6c-0.3,0.8-0.7,1.5-1.3,2.1c-0.6,0.6-1.3,1.1-2.1,1.4s-1.9,0.5-3,0.5s-2.2-0.2-3-0.5
			c-0.9-0.3-1.6-0.8-2.1-1.4c-0.6-0.6-1-1.3-1.3-2.1c-0.3-0.8-0.4-1.7-0.4-2.6c0-0.9,0.1-1.8,0.4-2.6c0.3-0.8,0.7-1.5,1.3-2.1
			c0.6-0.6,1.3-1.1,2.1-1.4C299.2,16.8,300.2,16.6,301.3,16.6z M301.3,19.1c-0.7,0-1.3,0.1-1.8,0.3c-0.5,0.2-0.9,0.5-1.2,0.9
			s-0.6,0.8-0.7,1.3s-0.2,1-0.2,1.6c0,0.6,0.1,1.1,0.2,1.6c0.1,0.5,0.4,0.9,0.7,1.3s0.7,0.7,1.2,0.9c0.5,0.2,1.1,0.3,1.8,0.3
			c0.7,0,1.3-0.1,1.8-0.3c0.5-0.2,0.9-0.5,1.2-0.9s0.6-0.8,0.7-1.3c0.1-0.5,0.2-1,0.2-1.6c0-0.6-0.1-1.1-0.2-1.6s-0.4-0.9-0.7-1.3
			s-0.7-0.7-1.2-0.9C302.6,19.3,302,19.1,301.3,19.1z M314,33c0.9,0,1.5,0.2,1.8,0.5s0.5,0.9,0.5,1.8V42c0,0.4-0.1,0.8-0.4,1
			c-0.3,0.2-0.6,0.3-1,0.3c-0.4,0-0.7-0.1-1-0.3c-0.3-0.2-0.4-0.5-0.4-1v-5.9c0-0.4-0.2-0.6-0.6-0.6h-13.4c-0.4,0-0.7-0.1-0.8-0.4
			s-0.3-0.6-0.3-0.9c0-0.3,0.1-0.6,0.3-0.9c0.2-0.3,0.4-0.4,0.8-0.4H314z M314.8,15.5c0.4,0,0.7,0.1,1,0.3c0.3,0.2,0.4,0.5,0.4,1
			v13.6c0,0.4-0.1,0.8-0.4,1c-0.3,0.2-0.6,0.3-1,0.3c-0.4,0-0.7-0.1-1-0.3s-0.4-0.5-0.4-1v-5.9h-7V22h7v-5.2c0-0.4,0.1-0.8,0.4-1
			C314.1,15.6,314.4,15.5,314.8,15.5z"/>
	</g>
	<g>
		<path style="fill:#A195C7;" d="M569.7,2.6C568.7,1,567.1,0,565.2,0H414c-2.9,0-5.3,2.4-5.3,5.4v48.4c0,1.3,0.5,2.4,1.2,3.4
			c1,1.2,2.5,2.1,4.1,2.1h151.1c2.9,0,5.3-2.4,5.3-5.4V5.4C570.5,4.4,570.2,3.4,569.7,2.6"/>
		<path style="fill:#AEA4D0;" d="M563.8,6c1,0.8,1.7,2.1,1.7,3.4v40.2c0,2.5-2.2,4.6-4.9,4.6H419c-0.9,0-1.8-0.3-2.6-0.7l-4.3,1.8
			c0.9,1.2,2.4,2,4,2h147.4c2.9,0,5.2-2.3,5.2-5.2v-45c0-1-0.3-1.9-0.8-2.7L563.8,6z"/>
		<path style="fill:#F6F6FA;" d="M414.1,49.7V9.5c0-2.5,2.2-4.6,4.9-4.6h141.7c1.2,0,2.3,0.4,3.2,1.1l4-1.6
			c-0.9-1.5-2.5-2.4-4.4-2.4H416.1c-2.9,0-5.2,2.3-5.2,5.2v45c0,1.2,0.4,2.3,1.2,3.2l4.3-1.8C415,52.8,414.1,51.3,414.1,49.7"/>
		<path style="fill:#FFFFFF;" d="M563.8,6c-0.9-0.7-2-1.1-3.2-1.1H419c-2.7,0-4.9,2-4.9,4.6v40.2c0,1.6,0.9,3.1,2.3,3.9
			c0.7,0.4,1.6,0.7,2.6,0.7h141.7c2.7,0,4.9-2,4.9-4.6V9.5C565.5,8.1,564.9,6.9,563.8,6"/>
	</g>
	<g>
		<path style="fill:#00A0E9;" d="M469.4,17.1c2.5,0,4.4,0.8,5.6,2.3c1.3,1.5,1.9,3.8,1.9,6.7V27c0,2.4-0.2,4.3-0.6,5.9
			c-0.4,1.6-0.9,2.8-1.7,3.7c-0.7,0.9-1.6,1.5-2.6,1.9c-1,0.4-2.2,0.5-3.4,0.5c-1,0-1.8-0.1-2.7-0.3c-0.8-0.2-1.5-0.5-2.1-0.8
			c-0.4-0.2-0.6-0.5-0.7-0.8c-0.1-0.3,0-0.6,0.1-1s0.4-0.6,0.7-0.7c0.3-0.1,0.7-0.1,1.1,0.1c0.5,0.3,1.1,0.5,1.7,0.6
			c0.6,0.1,1.3,0.2,2,0.2c0.8,0,1.6-0.1,2.2-0.4c0.6-0.3,1.1-0.7,1.6-1.3c0.4-0.6,0.8-1.3,1-2.3c0.2-0.9,0.4-2.1,0.4-3.4
			c-0.5,0.8-1.2,1.4-2.2,1.8c-1,0.4-2,0.6-3,0.6c-1,0-2-0.2-2.8-0.5c-0.8-0.3-1.5-0.8-2.1-1.4c-0.6-0.6-1-1.3-1.3-2.1
			c-0.3-0.8-0.5-1.8-0.5-2.8V24c0-1,0.2-2,0.5-2.8c0.4-0.8,0.9-1.6,1.5-2.2c0.6-0.6,1.4-1.1,2.3-1.4
			C467.3,17.3,468.3,17.1,469.4,17.1z M469.5,19.8c-1.4,0-2.5,0.4-3.3,1.1s-1.2,1.8-1.2,3.2v0.2c0,2.9,1.5,4.3,4.4,4.3
			c0.7,0,1.4-0.1,1.9-0.3s1-0.5,1.4-0.9s0.7-0.8,0.9-1.3c0.2-0.5,0.3-1,0.3-1.6v-0.2c0-1.4-0.4-2.5-1.1-3.3
			C471.9,20.2,470.8,19.8,469.5,19.8z"/>
		<path style="fill:#00A0E9;" d="M487.3,17.1c1.1,0,2.1,0.1,3,0.4c0.9,0.3,1.6,0.7,2.1,1.2c0.6,0.5,1,1.1,1.3,1.7
			c0.3,0.7,0.4,1.4,0.4,2.1v0.1c0,0.5-0.1,1-0.2,1.5c-0.1,0.5-0.4,1-0.7,1.4c-0.3,0.4-0.7,0.8-1.1,1.2c-0.5,0.3-1,0.6-1.7,0.8
			c0.6,0.1,1.2,0.3,1.8,0.5c0.6,0.2,1,0.6,1.4,1c0.4,0.4,0.7,0.9,1,1.4c0.2,0.6,0.4,1.2,0.4,1.9v0.3c0,0.8-0.2,1.6-0.5,2.4
			c-0.3,0.8-0.8,1.4-1.4,2s-1.4,1-2.4,1.4c-0.9,0.3-2,0.5-3.3,0.5c-2.4,0-4.4-0.6-6.1-1.7c-0.4-0.2-0.6-0.5-0.7-0.9
			c-0.1-0.4,0-0.7,0.2-1.1c0.2-0.4,0.5-0.6,0.8-0.7c0.3-0.1,0.7,0,1,0.2c0.7,0.5,1.5,0.9,2.2,1.1c0.7,0.2,1.5,0.4,2.4,0.4
			c0.8,0,1.6-0.1,2.1-0.3c0.6-0.2,1.1-0.5,1.4-0.8c0.4-0.3,0.6-0.7,0.8-1.1c0.2-0.4,0.3-0.9,0.3-1.4v-0.2c0-0.7-0.1-1.2-0.4-1.6
			c-0.2-0.4-0.6-0.8-1-1.1c-0.4-0.3-0.9-0.5-1.5-0.6c-0.6-0.1-1.2-0.2-1.9-0.2h-1.7c-0.4,0-0.7-0.1-0.8-0.4s-0.3-0.6-0.3-0.9
			s0.1-0.7,0.3-0.9c0.2-0.2,0.4-0.4,0.8-0.4h1.5c1.2,0,2.2-0.3,3-0.8c0.8-0.6,1.2-1.5,1.2-2.7v-0.1c0-0.9-0.3-1.7-1-2.2
			c-0.6-0.6-1.6-0.8-2.9-0.8c-0.8,0-1.6,0.1-2.2,0.4c-0.6,0.3-1.2,0.7-1.7,1.3c-0.3,0.3-0.6,0.4-0.9,0.4c-0.3,0-0.6-0.2-0.9-0.5
			c-0.3-0.3-0.4-0.6-0.4-0.9c0-0.3,0.1-0.6,0.4-0.9c0.6-0.7,1.3-1.3,2.3-1.8C484.9,17.3,486,17.1,487.3,17.1z"/>
		<path style="fill:#00A0E9;" d="M505.7,16.6c1.2,0,2.2,0.2,3,0.5c0.9,0.3,1.6,0.8,2.1,1.4c0.6,0.6,1,1.3,1.3,2.1
			c0.3,0.8,0.4,1.7,0.4,2.6c0,1-0.1,1.8-0.4,2.6c-0.3,0.8-0.7,1.5-1.3,2.1c-0.6,0.6-1.3,1.1-2.1,1.4s-1.9,0.5-3,0.5s-2.2-0.2-3-0.5
			c-0.9-0.3-1.6-0.8-2.1-1.4c-0.6-0.6-1-1.3-1.3-2.1c-0.3-0.8-0.4-1.7-0.4-2.6c0-0.9,0.1-1.8,0.4-2.6c0.3-0.8,0.7-1.5,1.3-2.1
			c0.6-0.6,1.3-1.1,2.1-1.4C503.5,16.8,504.5,16.6,505.7,16.6z M505.7,19.1c-0.7,0-1.3,0.1-1.8,0.3c-0.5,0.2-0.9,0.5-1.2,0.9
			s-0.6,0.8-0.7,1.3s-0.2,1-0.2,1.6c0,0.6,0.1,1.1,0.2,1.6c0.1,0.5,0.4,0.9,0.7,1.3s0.7,0.7,1.2,0.9c0.5,0.2,1.1,0.3,1.8,0.3
			c0.7,0,1.3-0.1,1.8-0.3c0.5-0.2,0.9-0.5,1.2-0.9s0.6-0.8,0.7-1.3c0.1-0.5,0.2-1,0.2-1.6c0-0.6-0.1-1.1-0.2-1.6s-0.4-0.9-0.7-1.3
			s-0.7-0.7-1.2-0.9C507,19.3,506.4,19.1,505.7,19.1z M518.3,33c0.9,0,1.5,0.2,1.8,0.5s0.5,0.9,0.5,1.8V42c0,0.4-0.1,0.8-0.4,1
			c-0.3,0.2-0.6,0.3-1,0.3c-0.4,0-0.7-0.1-1-0.3c-0.3-0.2-0.4-0.5-0.4-1v-5.9c0-0.4-0.2-0.6-0.6-0.6h-13.4c-0.4,0-0.7-0.1-0.8-0.4
			s-0.3-0.6-0.3-0.9c0-0.3,0.1-0.6,0.3-0.9c0.2-0.3,0.4-0.4,0.8-0.4H518.3z M519.2,15.5c0.4,0,0.7,0.1,1,0.3c0.3,0.2,0.4,0.5,0.4,1
			v13.6c0,0.4-0.1,0.8-0.4,1c-0.3,0.2-0.6,0.3-1,0.3c-0.4,0-0.7-0.1-1-0.3s-0.4-0.5-0.4-1v-5.9h-7V22h7v-5.2c0-0.4,0.1-0.8,0.4-1
			C518.4,15.6,518.8,15.5,519.2,15.5z"/>
	</g>
</g>
</svg>
