
<svg xmlns="http://www.w3.org/2000/svg" version="1.1" xmlns:xlink="http://www.w3.org/1999/xlink" preserveAspectRatio="none" x="0px" y="0px" width="901px" height="273px" viewBox="0 0 901 273">
<defs>
<g id="Layer0_0_FILL">
<path fill="#FFFFFF" stroke="none" d="
M 55.55 211.5
Q 40.55 211.5 40.55 226.5
L 40.55 256.55
Q 40.55 271.55 55.55 271.55
L 243.55 271.55
Q 251.9 271.55 255.6 266.9 258.55 263.2 258.55 256.55
L 258.55 226.5
Q 258.55 219.85 255.6 216.15 251.9 211.5 243.55 211.5
L 55.55 211.5
M 255.6 69.1
Q 251.9 64.45 243.55 64.45
L 55.55 64.45
Q 40.55 64.45 40.55 79.45
L 40.55 109.5
Q 40.55 124.5 55.55 124.5
L 243.55 124.5
Q 251.9 124.5 255.6 119.85 258.55 116.15 258.55 109.5
L 258.55 79.45
Q 258.55 72.8 255.6 69.1 Z"/>

<path fill="#1E1E1E" stroke="none" d="
M 275.5 224.1
Q 275.8 223.65 275.25 223.65
L 272.3 223.65
Q 272 223.65 271.75 224 268 228.7 266.3 233.45 264.6 238.15 264.6 243.25 264.6 248.3 266.3 253.05 268 257.8 271.75 262.45 272 262.8 272.3 262.8
L 275.25 262.8
Q 275.55 262.8 275.6 262.65 275.65 262.5 275.5 262.35 272.25 257.3 270.75 252.6 269.25 247.95 269.25 243.25 269.25 238.55 270.8 233.85 272.3 229.15 275.5 224.1
M 309 224.2
Q 309 223.65 308.5 223.65
L 304.95 223.65
Q 304.4 223.65 304.4 224.2
L 304.4 261.1
Q 304.4 261.65 304.95 261.65
L 308.5 261.65
Q 309 261.65 309 261.1
L 309 224.2
M 323.65 233.45
Q 321.95 228.7 318.15 224 317.95 223.65 317.6 223.65
L 314.65 223.65
Q 314.15 223.65 314.4 224.1 317.6 229.15 319.15 233.85 320.65 238.55 320.65 243.25 320.65 247.95 319.15 252.6 317.65 257.3 314.4 262.35 314.3 262.5 314.35 262.65 314.35 262.8 314.65 262.8
L 317.6 262.8
Q 317.95 262.8 318.15 262.45 321.95 257.8 323.65 253.05 325.35 248.3 325.35 243.25 325.35 238.15 323.65 233.45
M 298.4 233.8
Q 297.75 231.35 296.5 229.65 295.2 227.95 293.4 227 291.6 226.05 289.25 226.05 286.95 226.05 285.15 227 283.3 227.95 282.05 229.65 280.8 231.35 280.1 233.8 279.4 236.2 279.4 239.25 279.4 242.15 280.1 244.6 280.8 247 282.05 248.75 283.3 250.5 285.15 251.45 286.95 252.45 289.25 252.45 291.6 252.45 293.4 251.45 295.2 250.55 296.5 248.8 297.75 247.1 298.4 244.65 299.1 242.2 299.1 239.25 299.1 236.2 298.4 233.8
M 285.35 232.8
Q 286 231.6 287 230.85 287.95 230.15 289.25 230.15 290.5 230.15 291.5 230.85 292.5 231.6 293.2 232.8 293.85 234.05 294.2 235.75 294.55 237.4 294.55 239.25 294.55 241 294.2 242.7 293.85 244.35 293.2 245.6 292.5 246.85 291.5 247.6 290.5 248.35 289.25 248.35 287.95 248.35 287 247.6 286 246.85 285.35 245.6 284.65 244.35 284.3 242.7 283.9 241 283.9 239.25 283.9 237.4 284.3 235.75 284.65 234.05 285.35 232.8
M 142.8 154.7
Q 142.8 154.5 142.6 154.35 142.45 154.15 142.25 154.15
L 138.7 154.15
Q 138.15 154.15 138.15 154.7
L 138.15 164.95 133.4 164.95
Q 133.25 164.95 133.05 165.05 132.9 165.2 132.9 165.4
L 132.9 168.15
Q 132.9 168.35 133.05 168.45 133.25 168.6 133.4 168.6
L 138.15 168.6 138.15 171.3 133.4 171.3
Q 133.25 171.3 133.05 171.45 132.9 171.55 132.9 171.75
L 132.9 174.5
Q 132.9 174.7 133.05 174.85 133.25 174.95 133.4 174.95
L 138.15 174.95 138.15 177.75
Q 138.15 178 138.3 178.15 138.45 178.35 138.7 178.35
L 142.25 178.35
Q 142.45 178.35 142.6 178.15 142.8 178 142.8 177.75
L 142.8 154.7
M 119.7 182.7
Q 118.85 183.9 118.85 185.35 118.85 186.85 119.7 188.1 120.55 189.35 122.1 190.2 123.7 191.1 125.85 191.55 128.05 192.05 130.8 192.05 133.4 192.05 135.6 191.55 137.85 191.1 139.45 190.2 141.1 189.35 142 188.1 142.9 186.85 142.9 185.35 142.9 183.9 142 182.7 141.1 181.5 139.45 180.6 137.85 179.75 135.6 179.25 133.4 178.8 130.8 178.8 128.05 178.8 125.85 179.25 123.7 179.75 122.1 180.6 120.55 181.5 119.7 182.7
M 133.65 182.4
Q 134.95 182.6 135.95 183.05 136.95 183.45 137.55 184.05 138.15 184.7 138.15 185.5 138.15 186.3 137.55 186.85 136.95 187.4 135.95 187.8 134.95 188.2 133.65 188.4 132.3 188.55 130.8 188.55 129.25 188.55 127.95 188.4 126.65 188.2 125.65 187.8 124.65 187.4 124.15 186.85 123.6 186.3 123.6 185.5 123.6 184.7 124.15 184.05 124.65 183.45 125.65 183.05 126.6 182.6 127.9 182.4 129.2 182.2 130.8 182.2 132.3 182.2 133.65 182.4
M 119.8 164.95
Q 118.25 165.4 117.1 166.2 115.95 167.05 115.3 168.2 114.65 169.35 114.65 170.85 114.65 172.35 115.3 173.6 115.95 174.85 117.1 175.75 118.25 176.65 119.75 177.15 121.3 177.65 123.1 177.65 124.95 177.65 126.5 177.2 128.05 176.7 129.2 175.85 130.4 174.95 131.05 173.75 131.7 172.55 131.7 171.05 131.7 169.55 131.05 168.35 130.4 167.2 129.25 166.3 128.1 165.45 126.55 165 124.95 164.5 123.15 164.5 121.35 164.5 119.8 164.95
M 118.95 171.05
Q 118.95 169.65 120.1 168.85 121.25 168.05 123.15 168.05 125.05 168.05 126.2 168.85 127.35 169.65 127.35 171.05 127.35 172.45 126.2 173.35 125.05 174.2 123.15 174.2 121.25 174.2 120.1 173.35 118.95 172.45 118.95 171.05
M 103.5 154.75
Q 103.5 154.2 102.9 154.2
L 99.4 154.2
Q 99.2 154.2 99 154.35 98.85 154.5 98.85 154.75
L 98.85 175.35
Q 98.85 175.6 99 175.75 99.2 175.95 99.4 175.95
L 102.9 175.95
Q 103.5 175.95 103.5 175.4
L 103.5 167.65 108.85 167.65
Q 109.1 167.65 109.3 167.5 109.45 167.35 109.45 167.15
L 109.45 164.35
Q 109.45 164.15 109.3 164 109.1 163.8 108.85 163.8
L 103.5 163.8 103.5 154.75
M 112.1 159.9
Q 111.9 160.15 111.9 160.3
L 111.9 162.55
Q 111.9 162.8 112.1 163 112.3 163.2 112.5 163.2
L 133.4 163.2
Q 133.65 163.2 133.8 163.05 134 162.85 134 162.6
L 134 160.3
Q 134 160.1 133.8 159.9 133.65 159.7 133.4 159.7
L 112.55 159.7
Q 112.35 159.7 112.1 159.9
M 118 154.55
Q 117.85 154.55 117.6 154.75 117.4 154.9 117.4 155.15
L 117.4 157.45
Q 117.4 157.75 117.6 157.9 117.85 158.1 118 158.1
L 128.2 158.1
Q 128.5 158.1 128.7 157.85 128.85 157.65 128.85 157.4
L 128.85 155.2
Q 128.85 154.95 128.7 154.8 128.45 154.55 128.2 154.55
L 118 154.55
M 80 177.95
Q 79.8 177.95 79.6 178.05 79.45 178.15 79.45 178.45
L 79.45 181.3
Q 79.45 181.5 79.6 181.65 79.8 181.75 80 181.75
L 98.05 181.75
Q 98.5 181.75 98.65 181.9 98.8 182 98.8 182.45
L 98.8 191.55
Q 98.8 191.75 99 191.9 99.2 192.1 99.45 192.1
L 102.85 192.1
Q 103.05 192.1 103.25 191.9 103.45 191.75 103.45 191.55
L 103.45 180.75
Q 103.45 179.2 102.85 178.55 102.25 177.95 100.75 177.95
L 80 177.95
M 45.25 177.85
Q 43.7 177.85 43.05 178.55 42.35 179.2 42.35 180.75
L 42.35 188.7
Q 42.35 190.3 43 190.95 43.65 191.55 45.45 191.55
L 63.05 191.55
Q 64.6 191.55 65.25 190.95 65.9 190.3 65.9 188.8
L 65.9 180.75
Q 65.9 179.15 65.3 178.5 64.65 177.85 62.85 177.85
L 45.25 177.85
M 47.05 181.6
Q 47.15 181.55 47.5 181.55
L 60.85 181.55
Q 61.15 181.55 61.25 181.65 61.35 181.75 61.35 182.1
L 61.35 187.35
Q 61.35 187.75 61.25 187.8 61.15 187.9 60.85 187.9
L 47.5 187.9
Q 47.15 187.9 47.05 187.8 46.95 187.75 46.95 187.35
L 46.95 182
Q 46.95 181.7 47.05 181.6
M 61.8 154.2
Q 61.25 154.2 61.25 154.75
L 61.25 175.3
Q 61.25 175.85 61.8 175.85
L 65.35 175.85
Q 65.9 175.85 65.9 175.3
L 65.9 167.8 71.3 167.8
Q 71.5 167.8 71.7 167.65 71.85 167.45 71.85 167.25
L 71.85 164.45
Q 71.85 164.25 71.7 164.1 71.5 164 71.3 164
L 65.9 164 65.9 154.75
Q 65.9 154.2 65.35 154.2
L 61.8 154.2
M 75.7 159.65
Q 75.8 159.8 76.1 159.8
L 86.95 159.8
Q 87.7 159.8 87.7 160.05 87.7 160.3 87.5 160.95 86.4 164.6 83.05 167.6 79.65 170.6 74.75 172.75 74.3 172.95 74.25 173.25 74.2 173.55 74.35 173.9
L 75.4 175.95
Q 75.7 176.75 76.65 176.35 83 173.7 86.95 169.85 90.95 165.95 92.45 160.45 92.5 160.3 92.6 160.05 92.65 159.8 92.7 159.5 92.75 159.15 92.8 158.9 92.85 158.55 92.85 158.4 92.85 157.15 92.15 156.55 91.45 156 89.65 156
L 76.1 156
Q 75.55 156 75.55 156.55
L 75.55 159.2
Q 75.55 159.45 75.7 159.65
M 40.05 169.15
Q 38.35 170.75 36.1 172.3 35.75 172.55 35.65 172.8 35.55 173.1 35.95 173.55
L 37.6 175.4
Q 37.85 175.7 38.1 175.8 38.4 175.9 38.9 175.55 41.75 173.6 43.85 171.55 45.9 169.45 47.25 166.9 48.75 169.2 50.85 171.05 52.95 172.9 55.4 174 56.1 174.35 56.45 173.65
L 57.85 171.45
Q 58.3 170.75 57.65 170.5 56.55 170 55.35 169.15 54.1 168.3 52.95 167.2 51.75 166.05 50.7 164.7 49.7 163.35 49.05 161.8 49.65 159.05 49.65 155.6 49.65 154.95 49.15 154.95
L 45.6 154.8
Q 45.45 154.8 45.25 155 45.05 155.2 45.05 155.5 45.05 158.7 44.45 161.15 43.9 163.6 42.8 165.6 41.7 167.55 40.05 169.15
M 45.25 30.8
Q 43.7 30.8 43.05 31.5 42.35 32.15 42.35 33.7
L 42.35 41.65
Q 42.35 43.25 43 43.9 43.65 44.5 45.45 44.5
L 63.05 44.5
Q 64.6 44.5 65.25 43.9 65.9 43.25 65.9 41.75
L 65.9 33.7
Q 65.9 32.1 65.3 31.45 64.65 30.8 62.85 30.8
L 45.25 30.8
M 47.05 34.55
Q 47.15 34.5 47.5 34.5
L 60.85 34.5
Q 61.15 34.5 61.25 34.6 61.35 34.7 61.35 35.05
L 61.35 40.3
Q 61.35 40.7 61.25 40.75 61.15 40.85 60.85 40.85
L 47.5 40.85
Q 47.15 40.85 47.05 40.75 46.95 40.7 46.95 40.3
L 46.95 34.95
Q 46.95 34.65 47.05 34.55
M 45.25 7.95
Q 45.05 8.15 45.05 8.45 45.05 11.65 44.45 14.1 43.9 16.55 42.8 18.55 41.7 20.5 40.05 22.1 38.35 23.7 36.1 25.25 35.75 25.5 35.65 25.75 35.55 26.05 35.95 26.5
L 37.6 28.35
Q 37.85 28.65 38.1 28.75 38.4 28.85 38.9 28.5 41.75 26.55 43.85 24.5 45.9 22.4 47.25 19.85 48.75 22.15 50.85 24 52.95 25.85 55.4 26.95 56.1 27.3 56.45 26.6
L 57.85 24.4
Q 58.3 23.7 57.65 23.45 56.55 22.95 55.35 22.1 54.1 21.25 52.95 20.15 51.75 19 50.7 17.65 49.7 16.3 49.05 14.75 49.65 12 49.65 8.55 49.65 7.9 49.15 7.9
L 45.6 7.75
Q 45.45 7.75 45.25 7.95
M 61.8 7.15
Q 61.25 7.15 61.25 7.7
L 61.25 28.25
Q 61.25 28.8 61.8 28.8
L 65.35 28.8
Q 65.9 28.8 65.9 28.25
L 65.9 20.75 71.3 20.75
Q 71.5 20.75 71.7 20.6 71.85 20.4 71.85 20.2
L 71.85 17.4
Q 71.85 17.2 71.7 17.05 71.5 16.95 71.3 16.95
L 65.9 16.95 65.9 7.7
Q 65.9 7.15 65.35 7.15
L 61.8 7.15
M 99 44.85
Q 99.2 45.05 99.45 45.05
L 102.85 45.05
Q 103.05 45.05 103.25 44.85 103.45 44.7 103.45 44.5
L 103.45 33.7
Q 103.45 32.15 102.85 31.5 102.25 30.9 100.75 30.9
L 80 30.9
Q 79.8 30.9 79.6 31 79.45 31.1 79.45 31.4
L 79.45 34.25
Q 79.45 34.45 79.6 34.6 79.8 34.7 80 34.7
L 98.05 34.7
Q 98.5 34.7 98.65 34.85 98.8 34.95 98.8 35.4
L 98.8 44.5
Q 98.8 44.7 99 44.85
M 92.85 11.35
Q 92.85 10.1 92.15 9.5 91.45 8.95 89.65 8.95
L 76.1 8.95
Q 75.55 8.95 75.55 9.5
L 75.55 12.15
Q 75.55 12.4 75.7 12.6 75.8 12.75 76.1 12.75
L 86.95 12.75
Q 87.7 12.75 87.7 13 87.7 13.25 87.5 13.9 86.4 17.55 83.05 20.55 79.65 23.55 74.75 25.7 74.3 25.9 74.25 26.2 74.2 26.5 74.35 26.85
L 75.4 28.9
Q 75.7 29.7 76.65 29.3 83 26.65 86.95 22.8 90.95 18.9 92.45 13.4 92.5 13.25 92.6 13 92.65 12.75 92.7 12.45 92.75 12.1 92.8 11.85 92.85 11.5 92.85 11.35
M 103.5 7.7
Q 103.5 7.15 102.9 7.15
L 99.4 7.15
Q 99.2 7.15 99 7.3 98.85 7.45 98.85 7.7
L 98.85 28.3
Q 98.85 28.55 99 28.7 99.2 28.9 99.4 28.9
L 102.9 28.9
Q 103.5 28.9 103.5 28.35
L 103.5 20.6 108.85 20.6
Q 109.1 20.6 109.3 20.45 109.45 20.3 109.45 20.1
L 109.45 17.3
Q 109.45 17.1 109.3 16.95 109.1 16.75 108.85 16.75
L 103.5 16.75 103.5 7.7
M 139.45 33.55
Q 137.85 32.7 135.6 32.2 133.4 31.75 130.8 31.75 128.05 31.75 125.85 32.2 123.7 32.7 122.1 33.55 120.55 34.45 119.7 35.65 118.85 36.85 118.85 38.3 118.85 39.8 119.7 41.05 120.55 42.3 122.1 43.15 123.7 44.05 125.85 44.5 128.05 45 130.8 45 133.4 45 135.6 44.5 137.85 44.05 139.45 43.15 141.1 42.3 142 41.05 142.9 39.8 142.9 38.3 142.9 36.85 142 35.65 141.1 34.45 139.45 33.55
M 133.65 35.35
Q 134.95 35.55 135.95 36 136.95 36.4 137.55 37 138.15 37.65 138.15 38.45 138.15 39.25 137.55 39.8 136.95 40.35 135.95 40.75 134.95 41.15 133.65 41.35 132.3 41.5 130.8 41.5 129.25 41.5 127.95 41.35 126.65 41.15 125.65 40.75 124.65 40.35 124.15 39.8 123.6 39.25 123.6 38.45 123.6 37.65 124.15 37 124.65 36.4 125.65 36 126.6 35.55 127.9 35.35 129.2 35.15 130.8 35.15 132.3 35.15 133.65 35.35
M 134 15.55
L 134 13.25
Q 134 13.05 133.8 12.85 133.65 12.65 133.4 12.65
L 112.55 12.65
Q 112.35 12.65 112.1 12.85 111.9 13.1 111.9 13.25
L 111.9 15.5
Q 111.9 15.75 112.1 15.95 112.3 16.15 112.5 16.15
L 133.4 16.15
Q 133.65 16.15 133.8 16 134 15.8 134 15.55
M 126.55 17.95
Q 124.95 17.45 123.15 17.45 121.35 17.45 119.8 17.9 118.25 18.35 117.1 19.15 115.95 20 115.3 21.15 114.65 22.3 114.65 23.8 114.65 25.3 115.3 26.55 115.95 27.8 117.1 28.7 118.25 29.6 119.75 30.1 121.3 30.6 123.1 30.6 124.95 30.6 126.5 30.15 128.05 29.65 129.2 28.8 130.4 27.9 131.05 26.7 131.7 25.5 131.7 24 131.7 22.5 131.05 21.3 130.4 20.15 129.25 19.25 128.1 18.4 126.55 17.95
M 123.15 21
Q 125.05 21 126.2 21.8 127.35 22.6 127.35 24 127.35 25.4 126.2 26.3 125.05 27.15 123.15 27.15 121.25 27.15 120.1 26.3 118.95 25.4 118.95 24 118.95 22.6 120.1 21.8 121.25 21 123.15 21
M 128.85 10.35
L 128.85 8.15
Q 128.85 7.9 128.7 7.75 128.45 7.5 128.2 7.5
L 118 7.5
Q 117.85 7.5 117.6 7.7 117.4 7.85 117.4 8.1
L 117.4 10.4
Q 117.4 10.7 117.6 10.85 117.85 11.05 118 11.05
L 128.2 11.05
Q 128.5 11.05 128.7 10.8 128.85 10.6 128.85 10.35
M 142.8 7.65
Q 142.8 7.45 142.6 7.3 142.45 7.1 142.25 7.1
L 138.7 7.1
Q 138.15 7.1 138.15 7.65
L 138.15 17.9 133.4 17.9
Q 133.25 17.9 133.05 18 132.9 18.15 132.9 18.35
L 132.9 21.1
Q 132.9 21.3 133.05 21.4 133.25 21.55 133.4 21.55
L 138.15 21.55 138.15 24.25 133.4 24.25
Q 133.25 24.25 133.05 24.4 132.9 24.5 132.9 24.7
L 132.9 27.45
Q 132.9 27.65 133.05 27.8 133.25 27.9 133.4 27.9
L 138.15 27.9 138.15 30.7
Q 138.15 30.95 138.3 31.1 138.45 31.3 138.7 31.3
L 142.25 31.3
Q 142.45 31.3 142.6 31.1 142.8 30.95 142.8 30.7
L 142.8 7.65
M 294.35 170.45
Q 294.35 170.25 294.2 170.1 294 169.95 293.8 169.95
L 288.55 169.95 288.55 154.75
Q 288.55 154.2 288.05 154.2
L 284.5 154.2
Q 283.95 154.2 283.95 154.75
L 283.95 191.65
Q 283.95 192.2 284.5 192.2
L 288.05 192.2
Q 288.55 192.2 288.55 191.65
L 288.55 173.8 293.8 173.8
Q 294 173.8 294.2 173.6 294.35 173.45 294.35 173.25
L 294.35 170.45
M 246.65 154.2
Q 246.15 154.2 246.15 154.75
L 246.15 191.65
Q 246.15 192.2 246.65 192.2
L 250.2 192.2
Q 250.75 192.2 250.75 191.65
L 250.75 172.7 256.15 172.7
Q 256.35 172.7 256.55 172.55 256.75 172.35 256.75 172.15
L 256.75 169.35
Q 256.75 169.15 256.55 169 256.35 168.85 256.15 168.85
L 250.75 168.85 250.75 154.75
Q 250.75 154.2 250.2 154.2
L 246.65 154.2
M 276.5 159.3
Q 275.2 158.1 273.4 157.4 271.6 156.75 269.55 156.75 267.55 156.75 265.75 157.4 263.95 158.1 262.7 159.3 261.35 160.5 260.6 162.2 259.85 163.85 259.85 165.8 259.85 167.55 260.45 169.05 261 170.55 262.05 171.65 263.1 172.8 264.5 173.55 265.9 174.35 267.6 174.6
L 267.6 180.9
Q 263.05 181 258.55 180.9 258 180.9 258 181.45
L 258 184.1
Q 258 184.75 258.55 184.75 264.35 184.8 270.35 184.5 276.35 184.25 281.95 183.35 282.15 183.3 282.3 183.15 282.45 183 282.4 182.65
L 282.15 180.1
Q 282.15 179.8 281.9 179.7 281.65 179.65 281.45 179.7 279.1 180.05 276.75 180.3 274.4 180.6 272 180.7
L 272 174.5
Q 273.6 174.15 274.95 173.4 276.3 172.6 277.25 171.5 278.25 170.35 278.8 168.95 279.35 167.5 279.35 165.8 279.35 163.85 278.55 162.2 277.8 160.5 276.5 159.3
M 271.65 160.9
Q 272.6 161.3 273.35 161.95 274.05 162.65 274.45 163.6 274.85 164.6 274.85 165.8 274.85 167 274.45 168 274.05 169 273.35 169.7 272.6 170.35 271.65 170.75 270.7 171.1 269.55 171.1 268.45 171.1 267.5 170.75 266.5 170.35 265.8 169.7 265.1 169 264.7 168 264.3 167 264.3 165.8 264.3 164.6 264.7 163.6 265.1 162.65 265.8 161.95 266.5 161.3 267.5 160.9 268.45 160.55 269.55 160.55 270.7 160.55 271.65 160.9
M 240.1 159.85
Q 240.1 158.4 239.6 157.75 239.1 157.15 237.4 157.15
L 223.45 157.15
Q 223.25 157.15 223.05 157.3 222.9 157.4 222.9 157.6
L 222.9 160.35
Q 222.9 160.6 223.05 160.75 223.25 160.9 223.45 160.9
L 235 160.9
Q 235.35 160.9 235.45 161 235.5 161.1 235.5 161.45
L 235.5 167.05
Q 235.5 167.45 235.4 167.55 235.3 167.65 235 167.65
L 225.45 167.65
Q 224.05 167.65 223.35 168.3 222.65 168.95 222.65 170.35
L 222.65 179.95
Q 222.65 181.5 223.3 182.1 223.95 182.7 225.75 182.85 227.05 183 229.3 182.95 231.6 182.9 234.1 182.75 236.6 182.55 239.05 182.3 241.5 181.95 243.25 181.55 243.55 181.5 243.8 181.3 244 181.1 243.95 180.8
L 243.6 178.4
Q 243.55 178.05 243.3 177.9 243 177.75 242.7 177.85 241.05 178.15 239.2 178.4 237.4 178.65 235.45 178.8 233.55 178.95 231.7 179 229.75 179.05 227.95 179 227.6 179 227.4 178.85 227.25 178.7 227.25 178.25
L 227.25 171.9
Q 227.25 171.4 227.8 171.4
L 237.3 171.4
Q 238.85 171.4 239.45 170.8 240.1 170.25 240.1 168.7
L 240.1 159.85
M 201.2 185.05
Q 200.75 185.05 200.6 185.25 200.45 185.5 200.35 185.7
L 198.4 193
Q 198.3 193.2 198.45 193.35 198.55 193.5 198.75 193.5
L 201.95 193.5
Q 202.2 193.5 202.5 193.4 202.7 193.3 202.85 193
L 205.6 185.8
Q 205.65 185.6 205.6 185.3 205.6 185.05 205.1 185.05
L 201.2 185.05
M 166.55 161.75
Q 166.55 161.05 167.25 161.05
L 179.15 161.05
Q 179.7 161.05 179.7 160.55
L 179.7 157.75
Q 179.7 157.2 179.15 157.2
L 164.6 157.2
Q 163.1 157.2 162.55 157.75 161.95 158.35 161.95 159.75
L 161.95 178.7
Q 161.95 180.15 162.65 180.7 163.35 181.3 164.85 181.4 166.5 181.5 168.9 181.4 171.3 181.35 173.85 181.1 176.4 180.9 178.75 180.55 181.15 180.15 182.75 179.7 182.95 179.6 183.15 179.45 183.3 179.35 183.25 178.9
L 182.8 176.55
Q 182.65 175.95 182.05 176.1 180.25 176.4 178.3 176.7 176.25 176.95 174.35 177.15 172.45 177.35 170.7 177.4 169 177.5 167.75 177.35 167 177.3 166.75 177.1 166.55 176.9 166.55 176.3
L 166.55 161.75
M 185.75 154.2
Q 185.25 154.2 185.25 154.75
L 185.25 191.65
Q 185.25 192.2 185.75 192.2
L 189.3 192.2
Q 189.85 192.2 189.85 191.65
L 189.85 172.7 195.25 172.7
Q 195.45 172.7 195.65 172.55 195.85 172.35 195.85 172.15
L 195.85 169.35
Q 195.85 169.15 195.65 169 195.45 168.85 195.25 168.85
L 189.85 168.85 189.85 154.75
Q 189.85 154.2 189.3 154.2
L 185.75 154.2
M 179.2 10.9
Q 178.65 10.15 176.85 10.15
L 162.4 10.15
Q 161.85 10.15 161.85 10.65
L 161.85 13.45
Q 161.85 14 162.4 14
L 173.65 14
Q 174.4 14 174.6 14.25 174.85 14.5 174.7 15.3 173.9 20.75 170.25 25.4 166.55 30.05 160.6 33.2 160.3 33.4 160.25 33.7 160.15 34.05 160.35 34.35
L 161.95 36.6
Q 162.15 36.95 162.5 36.95 162.85 36.95 163.15 36.8 166.85 34.75 169.85 32.15 172.8 29.55 174.9 26.55 177 23.55 178.2 20.2 179.4 16.8 179.65 13.15 179.8 11.65 179.2 10.9
M 195.85 22.25
Q 195.85 22.05 195.7 21.9 195.5 21.75 195.25 21.75
L 189.9 21.75 189.9 7.7
Q 189.9 7.15 189.35 7.15
L 185.8 7.15
Q 185.25 7.15 185.25 7.7
L 185.25 44.6
Q 185.25 45.15 185.8 45.15
L 189.35 45.15
Q 189.9 45.15 189.9 44.6
L 189.9 25.6 195.25 25.6
Q 195.5 25.6 195.7 25.45 195.85 25.3 195.85 25.05
L 195.85 22.25
M 202.85 45.95
L 205.6 38.75
Q 205.65 38.55 205.6 38.25 205.6 38 205.1 38
L 201.2 38
Q 200.75 38 200.6 38.2 200.45 38.45 200.35 38.65
L 198.4 45.95
Q 198.3 46.15 198.45 46.3 198.55 46.45 198.75 46.45
L 201.95 46.45
Q 202.2 46.45 202.5 46.35 202.7 46.25 202.85 45.95
M 309 77.15
Q 309 76.6 308.5 76.6
L 304.95 76.6
Q 304.4 76.6 304.4 77.15
L 304.4 114.05
Q 304.4 114.6 304.95 114.6
L 308.5 114.6
Q 309 114.6 309 114.05
L 309 77.15
M 323.65 86.4
Q 321.95 81.65 318.15 76.95 317.95 76.6 317.6 76.6
L 314.65 76.6
Q 314.15 76.6 314.4 77.05 317.6 82.1 319.15 86.8 320.65 91.5 320.65 96.2 320.65 100.9 319.15 105.55 317.65 110.25 314.4 115.3 314.3 115.45 314.35 115.6 314.35 115.75 314.65 115.75
L 317.6 115.75
Q 317.95 115.75 318.15 115.4 321.95 110.75 323.65 106 325.35 101.25 325.35 96.2 325.35 91.1 323.65 86.4
M 280.1 86.75
Q 279.4 89.15 279.4 92.2 279.4 95.1 280.1 97.55 280.8 99.95 282.05 101.7 283.3 103.45 285.15 104.4 286.95 105.4 289.25 105.4 291.6 105.4 293.4 104.4 295.2 103.5 296.5 101.75 297.75 100.05 298.4 97.6 299.1 95.15 299.1 92.2 299.1 89.15 298.4 86.75 297.75 84.3 296.5 82.6 295.2 80.9 293.4 79.95 291.6 79 289.25 79 286.95 79 285.15 79.95 283.3 80.9 282.05 82.6 280.8 84.3 280.1 86.75
M 285.35 85.75
Q 286 84.55 287 83.8 287.95 83.1 289.25 83.1 290.5 83.1 291.5 83.8 292.5 84.55 293.2 85.75 293.85 87 294.2 88.7 294.55 90.35 294.55 92.2 294.55 93.95 294.2 95.65 293.85 97.3 293.2 98.55 292.5 99.8 291.5 100.55 290.5 101.3 289.25 101.3 287.95 101.3 287 100.55 286 99.8 285.35 98.55 284.65 97.3 284.3 95.65 283.9 93.95 283.9 92.2 283.9 90.35 284.3 88.7 284.65 87 285.35 85.75
M 275.5 77.05
Q 275.8 76.6 275.25 76.6
L 272.3 76.6
Q 272 76.6 271.75 76.95 268 81.65 266.3 86.4 264.6 91.1 264.6 96.2 264.6 101.25 266.3 106 268 110.75 271.75 115.4 272 115.75 272.3 115.75
L 275.25 115.75
Q 275.55 115.75 275.6 115.6 275.65 115.45 275.5 115.3 272.25 110.25 270.75 105.55 269.25 100.9 269.25 96.2 269.25 91.5 270.8 86.8 272.3 82.1 275.5 77.05
M 244.35 31.3
L 243.9 29.05
Q 243.8 28.8 243.65 28.6 243.45 28.35 243 28.45 241.35 28.85 239.45 29.15 237.6 29.5 235.6 29.75 233.7 29.95 231.85 30 230.05 30.1 228.6 29.95 228.2 29.9 228.05 29.8 227.9 29.7 227.9 29.35
L 227.9 10.05
Q 227.9 9.85 227.7 9.65 227.55 9.5 227.3 9.5
L 223.85 9.5
Q 223.65 9.5 223.45 9.65 223.3 9.85 223.3 10.05
L 223.3 30.85
Q 223.3 32.2 223.95 32.95 224.65 33.7 226.2 33.9 227.9 34.05 230.25 33.95 232.65 33.85 235.15 33.55 237.6 33.25 239.9 32.9 242.15 32.5 243.65 32.1 244 32.05 244.2 31.8 244.4 31.55 244.35 31.3
M 246.65 7.15
Q 246.15 7.15 246.15 7.7
L 246.15 44.6
Q 246.15 45.15 246.65 45.15
L 250.2 45.15
Q 250.75 45.15 250.75 44.6
L 250.75 25.65 256.15 25.65
Q 256.35 25.65 256.55 25.5 256.75 25.3 256.75 25.1
L 256.75 22.3
Q 256.75 22.1 256.55 21.95 256.35 21.8 256.15 21.8
L 250.75 21.8 250.75 7.7
Q 250.75 7.15 250.2 7.15
L 246.65 7.15
M 276.5 12.25
Q 275.2 11.05 273.4 10.35 271.6 9.7 269.55 9.7 267.55 9.7 265.75 10.35 263.95 11.05 262.7 12.25 261.35 13.45 260.6 15.15 259.85 16.8 259.85 18.75 259.85 20.5 260.45 22 261 23.5 262.05 24.6 263.1 25.75 264.5 26.5 265.9 27.3 267.6 27.55
L 267.6 33.85
Q 263.05 33.95 258.55 33.85 258 33.85 258 34.4
L 258 37.05
Q 258 37.7 258.55 37.7 264.35 37.75 270.35 37.45 276.35 37.2 281.95 36.3 282.15 36.25 282.3 36.1 282.45 35.95 282.4 35.6
L 282.15 33.05
Q 282.15 32.75 281.9 32.65 281.65 32.6 281.45 32.65 279.1 33 276.75 33.25 274.4 33.55 272 33.65
L 272 27.45
Q 273.6 27.1 274.95 26.35 276.3 25.55 277.25 24.45 278.25 23.3 278.8 21.9 279.35 20.45 279.35 18.75 279.35 16.8 278.55 15.15 277.8 13.45 276.5 12.25
M 271.65 13.85
Q 272.6 14.25 273.35 14.9 274.05 15.6 274.45 16.55 274.85 17.55 274.85 18.75 274.85 19.95 274.45 20.95 274.05 21.95 273.35 22.65 272.6 23.3 271.65 23.7 270.7 24.05 269.55 24.05 268.45 24.05 267.5 23.7 266.5 23.3 265.8 22.65 265.1 21.95 264.7 20.95 264.3 19.95 264.3 18.75 264.3 17.55 264.7 16.55 265.1 15.6 265.8 14.9 266.5 14.25 267.5 13.85 268.45 13.5 269.55 13.5 270.7 13.5 271.65 13.85
M 294.35 23.4
Q 294.35 23.2 294.2 23.05 294 22.9 293.8 22.9
L 288.55 22.9 288.55 7.7
Q 288.55 7.15 288.05 7.15
L 284.5 7.15
Q 283.95 7.15 283.95 7.7
L 283.95 44.6
Q 283.95 45.15 284.5 45.15
L 288.05 45.15
Q 288.55 45.15 288.55 44.6
L 288.55 26.75 293.8 26.75
Q 294 26.75 294.2 26.55 294.35 26.4 294.35 26.2
L 294.35 23.4
M 531.5 259.05
Q 532.4 259.95 533.7 259.95 534.95 259.95 535.85 259.05 536.7 258.15 536.7 256.85 536.7 255.55 535.85 254.7 534.95 253.8 533.7 253.8 532.4 253.8 531.5 254.7 530.6 255.55 530.6 256.85 530.6 258.15 531.5 259.05
M 505.55 246.6
Q 503.65 246.8 501.9 246.85 500.2 246.95 498.95 246.8 498.2 246.75 497.95 246.55 497.75 246.35 497.75 245.75
L 497.75 231.2
Q 497.75 230.5 498.45 230.5
L 510.35 230.5
Q 510.9 230.5 510.9 230
L 510.9 227.2
Q 510.9 226.65 510.35 226.65
L 495.8 226.65
Q 494.3 226.65 493.75 227.2 493.15 227.8 493.15 229.2
L 493.15 248.15
Q 493.15 249.6 493.85 250.15 494.55 250.75 496.05 250.85 497.7 250.95 500.1 250.85 502.5 250.8 505.05 250.55 507.6 250.35 509.95 250 512.35 249.6 513.95 249.15 514.15 249.05 514.35 248.9 514.5 248.8 514.45 248.35
L 514 246
Q 513.85 245.4 513.25 245.55 511.45 245.85 509.5 246.15 507.45 246.4 505.55 246.6
M 527.05 241.6
L 527.05 238.8
Q 527.05 238.6 526.85 238.45 526.65 238.3 526.45 238.3
L 521.05 238.3 521.05 224.2
Q 521.05 223.65 520.5 223.65
L 516.95 223.65
Q 516.45 223.65 516.45 224.2
L 516.45 261.1
Q 516.45 261.65 516.95 261.65
L 520.5 261.65
Q 521.05 261.65 521.05 261.1
L 521.05 242.15 526.45 242.15
Q 526.65 242.15 526.85 242 527.05 241.8 527.05 241.6
M 343.7 230.35
Q 344.05 230.35 344.15 230.45 344.2 230.55 344.2 230.9
L 344.2 236.5
Q 344.2 236.9 344.1 237 344 237.1 343.7 237.1
L 334.15 237.1
Q 332.75 237.1 332.05 237.75 331.35 238.4 331.35 239.8
L 331.35 249.4
Q 331.35 250.95 332 251.55 332.65 252.15 334.45 252.3 335.75 252.45 338 252.4 340.3 252.35 342.8 252.2 345.3 252 347.75 251.75 350.2 251.4 351.95 251 352.25 250.95 352.5 250.75 352.7 250.55 352.65 250.25
L 352.3 247.85
Q 352.25 247.5 352 247.35 351.7 247.2 351.4 247.3 349.75 247.6 347.9 247.85 346.1 248.1 344.15 248.25 342.25 248.4 340.4 248.45 338.45 248.5 336.65 248.45 336.3 248.45 336.1 248.3 335.95 248.15 335.95 247.7
L 335.95 241.35
Q 335.95 240.85 336.5 240.85
L 346 240.85
Q 347.55 240.85 348.15 240.25 348.8 239.7 348.8 238.15
L 348.8 229.3
Q 348.8 227.85 348.3 227.2 347.8 226.6 346.1 226.6
L 332.15 226.6
Q 331.95 226.6 331.75 226.75 331.6 226.85 331.6 227.05
L 331.6 229.8
Q 331.6 230.05 331.75 230.2 331.95 230.35 332.15 230.35
L 343.7 230.35
M 384.55 239.3
L 381.05 239.3
Q 380.5 239.3 380.5 239.9
L 380.5 251 367.1 251
Q 366.8 251 366.65 251.2 366.5 251.35 366.5 251.65
L 366.5 254.25
Q 366.5 254.45 366.65 254.65 366.8 254.85 367.1 254.85
L 401.9 254.85
Q 402.1 254.85 402.3 254.65 402.5 254.45 402.5 254.25
L 402.5 251.65
Q 402.5 251.4 402.3 251.2 402.1 251 401.9 251
L 385.1 251 385.1 239.9
Q 385.1 239.3 384.55 239.3
M 365.45 241.6
L 365.45 238.8
Q 365.45 238.6 365.25 238.45 365.05 238.3 364.85 238.3
L 359.45 238.3 359.45 224.2
Q 359.45 223.65 358.9 223.65
L 355.35 223.65
Q 354.85 223.65 354.85 224.2
L 354.85 261.1
Q 354.85 261.65 355.35 261.65
L 358.9 261.65
Q 359.45 261.65 359.45 261.1
L 359.45 242.15 364.85 242.15
Q 365.05 242.15 365.25 242 365.45 241.8 365.45 241.6
M 372.15 230.1
Q 372.35 230.25 372.55 230.25
L 392.25 230.25
Q 392.8 230.25 393.05 230.4 393.3 230.55 393.3 231.1 393.3 232.75 393.25 234.75 393.15 236.75 393 238.8 392.9 240.85 392.65 242.8 392.45 244.75 392.15 246.2 392.1 246.55 392.2 246.8 392.3 247 392.65 247.05
L 395.8 247.35
Q 396.1 247.4 396.3 247.15 396.45 246.9 396.55 246.6 397.15 243.6 397.55 239.15 397.9 234.65 397.9 229.25 397.9 227.8 397.2 227.1 396.5 226.4 395.2 226.4
L 372.55 226.4
Q 372.35 226.4 372.15 226.55 371.95 226.65 371.95 226.9
L 371.95 229.75
Q 371.95 230 372.15 230.1
M 445.35 247.4
L 441.8 247.4
Q 441.6 247.4 441.45 247.55 441.25 247.75 441.25 247.95
L 441.25 251.15 426.9 251.15 426.9 248.1
Q 426.9 247.9 426.75 247.75 426.55 247.6 426.35 247.6
L 422.85 247.6
Q 422.65 247.6 422.5 247.75 422.3 247.9 422.3 248.1
L 422.3 258.25
Q 422.3 259.8 422.95 260.4 423.6 261 425.4 261
L 442.85 261
Q 444.55 261 445.2 260.35 445.9 259.7 445.9 258.35
L 445.9 247.95
Q 445.9 247.75 445.7 247.55 445.55 247.4 445.35 247.4
M 441.25 254.7
L 441.25 256.8
Q 441.25 257.45 440.5 257.45
L 427.7 257.45
Q 426.9 257.45 426.9 256.8
L 426.9 254.7 441.25 254.7
M 424.45 233.6
Q 422.85 234.05 421.7 234.9 420.5 235.7 419.85 236.85 419.2 238 419.2 239.4 419.2 240.85 419.85 242 420.5 243.15 421.7 243.95 422.85 244.8 424.4 245.3 425.95 245.75 427.75 245.75 429.6 245.75 431.15 245.3 432.75 244.8 433.9 243.95 435.1 243.15 435.75 242 436.45 240.85 436.45 239.4 436.45 238 435.75 236.85 435.1 235.7 433.95 234.9 432.75 234.05 431.15 233.6 429.6 233.15 427.8 233.15 426 233.15 424.45 233.6
M 423.5 239.4
Q 423.5 238.15 424.7 237.35 425.9 236.55 427.8 236.55 429.7 236.55 430.9 237.35 432.1 238.15 432.1 239.4 432.1 240.65 430.9 241.5 429.7 242.4 427.8 242.4 425.9 242.4 424.7 241.5 423.5 240.65 423.5 239.4
M 416.95 228.6
Q 416.7 228.6 416.5 228.8 416.25 229 416.25 229.25
L 416.25 231.35
Q 416.25 231.6 416.45 231.8 416.7 232 416.9 232
L 438 232
Q 438.2 232 438.4 231.8 438.6 231.65 438.6 231.35
L 438.6 229.25
Q 438.6 228.95 438.4 228.8 438.2 228.6 438 228.6
L 416.95 228.6
M 422.4 223.85
Q 422.25 223.85 422 224 421.8 224.2 421.8 224.45
L 421.8 226.6
Q 421.8 226.85 422 227.05 422.25 227.2 422.4 227.2
L 432.75 227.2
Q 433.05 227.2 433.25 227 433.45 226.8 433.45 226.55
L 433.45 224.5
Q 433.45 224.25 433.2 224.05 433.05 223.85 432.75 223.85
L 422.4 223.85
M 481.05 223.65
Q 480.5 223.65 480.5 224.2
L 480.5 261.1
Q 480.5 261.65 481.05 261.65
L 484.6 261.65
Q 485.1 261.65 485.1 261.1
L 485.1 224.2
Q 485.1 223.65 484.6 223.65
L 481.05 223.65
M 451.85 233.8
Q 451.85 233.6 451.7 233.45 451.5 233.3 451.25 233.3
L 445.9 233.3 445.9 224.2
Q 445.9 223.65 445.35 223.65
L 441.8 223.65
Q 441.25 223.65 441.25 224.2
L 441.25 245
Q 441.25 245.2 441.45 245.4 441.6 245.55 441.8 245.55
L 445.35 245.55
Q 445.55 245.55 445.7 245.4 445.9 245.2 445.9 245.05
L 445.9 237.1 451.25 237.1
Q 451.5 237.1 451.7 236.95 451.85 236.8 451.85 236.6
L 451.85 233.8
M 461.05 226.55
Q 461.05 226.35 460.85 226.15 460.65 226 460.45 226
L 457 226
Q 456.8 226 456.6 226.15 456.45 226.35 456.45 226.55
L 456.45 247.4
Q 456.45 248.75 457.1 249.55 457.8 250.35 459.35 250.4 461.55 250.55 463.95 250.5 466.4 250.4 468.75 250.25 471.1 250.05 473.3 249.75 475.5 249.4 477.25 248.95 477.6 248.85 477.8 248.6 478.05 248.4 477.95 248.1
L 477.45 245.9
Q 477.4 245.6 477.2 245.4 477.05 245.2 476.6 245.25 472.5 246.1 468.75 246.4 465 246.7 461.8 246.5 461.35 246.45 461.2 246.35 461.05 246.25 461.05 245.85
L 461.05 226.55
M 448.9 177.95
Q 448.7 177.95 448.5 178.05 448.35 178.15 448.35 178.45
L 448.35 181.3
Q 448.35 181.5 448.5 181.65 448.7 181.75 448.9 181.75
L 466.95 181.75
Q 467.4 181.75 467.55 181.9 467.7 182 467.7 182.45
L 467.7 191.55
Q 467.7 191.75 467.9 191.9 468.1 192.1 468.35 192.1
L 471.75 192.1
Q 471.95 192.1 472.15 191.9 472.35 191.75 472.35 191.55
L 472.35 180.75
Q 472.35 179.2 471.75 178.55 471.15 177.95 469.65 177.95
L 448.9 177.95
M 467.9 154.35
Q 467.75 154.5 467.75 154.75
L 467.75 175.35
Q 467.75 175.6 467.9 175.75 468.1 175.95 468.3 175.95
L 471.8 175.95
Q 472.4 175.95 472.4 175.4
L 472.4 167.65 477.75 167.65
Q 478 167.65 478.2 167.5 478.35 167.35 478.35 167.15
L 478.35 164.35
Q 478.35 164.15 478.2 164 478 163.8 477.75 163.8
L 472.4 163.8 472.4 154.75
Q 472.4 154.2 471.8 154.2
L 468.3 154.2
Q 468.1 154.2 467.9 154.35
M 429.4 171.3
Q 429.55 171.15 429.55 170.95
L 429.55 168.15
Q 429.55 167.95 429.4 167.75 429.2 167.6 428.95 167.6
L 423.6 167.6 423.6 154.75
Q 423.6 154.2 423.05 154.2
L 419.5 154.2
Q 418.95 154.2 418.95 154.75
L 418.95 183
Q 418.95 183.5 419.5 183.5
L 423.05 183.5
Q 423.6 183.5 423.6 183
L 423.6 171.45 428.95 171.45
Q 429.2 171.45 429.4 171.3
M 444.6 159.65
Q 444.7 159.8 445 159.8
L 455.85 159.8
Q 456.6 159.8 456.6 160.05 456.6 160.3 456.4 160.95 455.3 164.6 451.95 167.6 448.55 170.6 443.65 172.75 443.2 172.95 443.15 173.25 443.1 173.55 443.25 173.9
L 444.3 175.95
Q 444.6 176.75 445.55 176.35 451.9 173.7 455.85 169.85 459.85 165.95 461.35 160.45 461.4 160.3 461.5 160.05 461.55 159.8 461.6 159.5 461.65 159.15 461.7 158.9 461.75 158.55 461.75 158.4 461.75 157.15 461.05 156.55 460.35 156 458.55 156
L 445 156
Q 444.45 156 444.45 156.55
L 444.45 159.2
Q 444.45 159.45 444.6 159.65
M 445.9 100.9
Q 445.9 100.7 445.7 100.5 445.55 100.35 445.35 100.35
L 441.8 100.35
Q 441.6 100.35 441.45 100.5 441.25 100.7 441.25 100.9
L 441.25 104.1 426.9 104.1 426.9 101.05
Q 426.9 100.85 426.75 100.7 426.55 100.55 426.35 100.55
L 422.85 100.55
Q 422.65 100.55 422.5 100.7 422.3 100.85 422.3 101.05
L 422.3 111.2
Q 422.3 112.75 422.95 113.35 423.6 113.95 425.4 113.95
L 442.85 113.95
Q 444.55 113.95 445.2 113.3 445.9 112.65 445.9 111.3
L 445.9 100.9
M 441.25 107.65
L 441.25 109.75
Q 441.25 110.4 440.5 110.4
L 427.7 110.4
Q 426.9 110.4 426.9 109.75
L 426.9 107.65 441.25 107.65
M 404.95 182.55
Q 404.95 182.35 404.8 182.15 404.6 181.9 404.35 181.9
L 400.9 181.9
Q 400.75 181.9 400.55 182.15 400.35 182.35 400.35 182.55
L 400.35 188.7
Q 400.35 190.3 400.95 190.95 401.6 191.55 403.4 191.55
L 424.55 191.55
Q 424.75 191.55 424.95 191.45 425.1 191.35 425.1 191.1
L 425.1 188.25
Q 425.1 188.05 424.95 187.9 424.75 187.75 424.55 187.75
L 405.7 187.75
Q 405.3 187.75 405.1 187.6 404.95 187.5 404.95 187.1
L 404.95 182.55
M 372.35 154.2
Q 371.8 154.2 371.8 154.75
L 371.8 191.65
Q 371.8 192.2 372.35 192.2
L 375.9 192.2
Q 376.4 192.2 376.4 191.65
L 376.4 154.75
Q 376.4 154.2 375.9 154.2
L 372.35 154.2
M 402.1 166
Q 400.55 166.55 399.35 167.55 398.15 168.5 397.5 169.8 396.8 171.1 396.8 172.55 396.8 174.1 397.5 175.4 398.15 176.7 399.35 177.65 400.55 178.6 402.1 179.15 403.65 179.75 405.45 179.75 407.3 179.75 408.9 179.15 410.5 178.6 411.65 177.65 412.85 176.7 413.55 175.4 414.2 174.1 414.2 172.55 414.2 171.1 413.55 169.8 412.85 168.5 411.65 167.55 410.5 166.55 408.9 166 407.3 165.45 405.5 165.45 403.7 165.45 402.1 166
M 401.15 172.55
Q 401.15 171.1 402.35 170.05 403.6 169 405.5 169 407.4 169 408.65 170.05 409.85 171.1 409.85 172.55 409.85 174.1 408.65 175.15 407.4 176.25 405.5 176.25 403.6 176.25 402.35 175.15 401.15 174.1 401.15 172.55
M 394.6 160.4
Q 394.4 160.4 394.15 160.6 393.95 160.8 393.95 161
L 393.95 163.35
Q 393.95 163.65 394.15 163.85 394.35 164.05 394.55 164.05
L 415.75 164.05
Q 416 164.05 416.2 163.9 416.35 163.7 416.35 163.4
L 416.35 161
Q 416.35 160.75 416.2 160.6 416 160.4 415.75 160.4
L 394.6 160.4
M 399.7 158.55
Q 399.95 158.7 400.1 158.7
L 410.55 158.7
Q 410.85 158.7 411.05 158.5 411.2 158.3 411.2 158.05
L 411.2 155.75
Q 411.2 155.5 411 155.3 410.8 155.1 410.55 155.1
L 400.1 155.1
Q 399.95 155.1 399.7 155.25 399.5 155.4 399.5 155.75
L 399.5 158.1
Q 399.5 158.35 399.7 158.55
M 336.75 185.6
Q 336.95 185.45 336.95 185.2
L 336.95 182.85
Q 336.95 182.65 336.75 182.5 336.55 182.35 336.4 182.35
L 318.55 182.35 318.55 180.3
Q 318.55 179.9 318.65 179.85 318.7 179.8 319.1 179.8
L 336.55 179.8
Q 337.15 179.8 337.15 179.25
L 337.15 176.8
Q 337.15 176.3 336.55 176.3
L 316.8 176.3
Q 315.3 176.3 314.6 176.9 313.95 177.5 313.95 179
L 313.95 189.25
Q 313.95 190.75 314.55 191.35 315.2 191.9 316.8 191.9
L 337.15 191.9
Q 337.8 191.9 337.8 191.3
L 337.8 189
Q 337.8 188.45 337.15 188.45
L 319.15 188.45
Q 318.7 188.45 318.6 188.35 318.55 188.3 318.55 187.85
L 318.55 185.75 336.4 185.75
Q 336.55 185.75 336.75 185.6
M 326.5 158.1
Q 326.5 156.8 325.75 156.2 325 155.65 323.25 155.65
L 309.8 155.65
Q 309.55 155.65 309.4 155.85 309.25 156 309.25 156.25
L 309.25 158.8
Q 309.25 159 309.4 159.2 309.5 159.35 309.8 159.35
L 320.75 159.35
Q 321.4 159.35 321.4 159.6 321.4 159.85 321.25 160.55 320.8 162.2 319.7 163.7 318.55 165.3 316.9 166.75 315.25 168.2 313.1 169.5 310.95 170.8 308.45 171.9 308 172.1 307.95 172.45 307.9 172.8 308.05 173.15
L 309.1 175.1
Q 309.45 175.8 310.35 175.45 316.75 172.85 320.65 169.2 324.5 165.6 326.05 160.45 326.1 160.3 326.15 160 326.25 159.7 326.3 159.35 326.4 159 326.45 158.6 326.5 158.3 326.5 158.1
M 337.2 154.75
Q 337.2 154.2 336.6 154.2
L 333.1 154.2
Q 332.9 154.2 332.7 154.35 332.55 154.5 332.55 154.75
L 332.55 173.85
Q 332.55 174.15 332.7 174.3 332.9 174.45 333.1 174.45
L 336.6 174.45
Q 337.2 174.45 337.2 173.9
L 337.2 166.5 342.55 166.5
Q 342.8 166.5 343 166.35 343.15 166.15 343.15 165.95
L 343.15 163.15
Q 343.15 162.95 343 162.8 342.8 162.65 342.55 162.65
L 337.2 162.65 337.2 154.75
M 360.8 157.55
Q 359 156.6 356.65 156.6 354.35 156.6 352.55 157.55 350.7 158.5 349.45 160.2 348.2 161.9 347.5 164.35 346.8 166.75 346.8 169.8 346.8 172.7 347.5 175.15 348.2 177.55 349.45 179.3 350.7 181.05 352.55 182 354.35 183 356.65 183 359 183 360.8 182 362.6 181.1 363.9 179.35 365.15 177.65 365.8 175.2 366.5 172.75 366.5 169.8 366.5 166.75 365.8 164.35 365.15 161.9 363.9 160.2 362.6 158.5 360.8 157.55
M 351.7 166.3
Q 352.05 164.6 352.75 163.35 353.4 162.15 354.4 161.4 355.35 160.7 356.65 160.7 357.9 160.7 358.9 161.4 359.9 162.15 360.6 163.35 361.25 164.6 361.6 166.3 361.95 167.95 361.95 169.8 361.95 171.55 361.6 173.25 361.25 174.9 360.6 176.15 359.9 177.4 358.9 178.15 357.9 178.9 356.65 178.9 355.35 178.9 354.4 178.15 353.4 177.4 352.75 176.15 352.05 174.9 351.7 173.25 351.3 171.55 351.3 169.8 351.3 167.95 351.7 166.3
M 384.55 92.25
L 381.05 92.25
Q 380.5 92.25 380.5 92.85
L 380.5 103.95 367.1 103.95
Q 366.8 103.95 366.65 104.15 366.5 104.3 366.5 104.6
L 366.5 107.2
Q 366.5 107.4 366.65 107.6 366.8 107.8 367.1 107.8
L 401.9 107.8
Q 402.1 107.8 402.3 107.6 402.5 107.4 402.5 107.2
L 402.5 104.6
Q 402.5 104.35 402.3 104.15 402.1 103.95 401.9 103.95
L 385.1 103.95 385.1 92.85
Q 385.1 92.25 384.55 92.25
M 372.15 83.05
Q 372.35 83.2 372.55 83.2
L 392.25 83.2
Q 392.8 83.2 393.05 83.35 393.3 83.5 393.3 84.05 393.3 85.7 393.25 87.7 393.15 89.7 393 91.75 392.9 93.8 392.65 95.75 392.45 97.7 392.15 99.15 392.1 99.5 392.2 99.75 392.3 99.95 392.65 100
L 395.8 100.3
Q 396.1 100.35 396.3 100.1 396.45 99.85 396.55 99.55 397.15 96.55 397.55 92.1 397.9 87.6 397.9 82.2 397.9 80.75 397.2 80.05 396.5 79.35 395.2 79.35
L 372.55 79.35
Q 372.35 79.35 372.15 79.5 371.95 79.6 371.95 79.85
L 371.95 82.7
Q 371.95 82.95 372.15 83.05
M 355.35 76.6
Q 354.85 76.6 354.85 77.15
L 354.85 114.05
Q 354.85 114.6 355.35 114.6
L 358.9 114.6
Q 359.45 114.6 359.45 114.05
L 359.45 95.1 364.85 95.1
Q 365.05 95.1 365.25 94.95 365.45 94.75 365.45 94.55
L 365.45 91.75
Q 365.45 91.55 365.25 91.4 365.05 91.25 364.85 91.25
L 359.45 91.25 359.45 77.15
Q 359.45 76.6 358.9 76.6
L 355.35 76.6
M 343.7 83.3
Q 344.05 83.3 344.15 83.4 344.2 83.5 344.2 83.85
L 344.2 89.45
Q 344.2 89.85 344.1 89.95 344 90.05 343.7 90.05
L 334.15 90.05
Q 332.75 90.05 332.05 90.7 331.35 91.35 331.35 92.75
L 331.35 102.35
Q 331.35 103.9 332 104.5 332.65 105.1 334.45 105.25 335.75 105.4 338 105.35 340.3 105.3 342.8 105.15 345.3 104.95 347.75 104.7 350.2 104.35 351.95 103.95 352.25 103.9 352.5 103.7 352.7 103.5 352.65 103.2
L 352.3 100.8
Q 352.25 100.45 352 100.3 351.7 100.15 351.4 100.25 349.75 100.55 347.9 100.8 346.1 101.05 344.15 101.2 342.25 101.35 340.4 101.4 338.45 101.45 336.65 101.4 336.3 101.4 336.1 101.25 335.95 101.1 335.95 100.65
L 335.95 94.3
Q 335.95 93.8 336.5 93.8
L 346 93.8
Q 347.55 93.8 348.15 93.2 348.8 92.65 348.8 91.1
L 348.8 82.25
Q 348.8 80.8 348.3 80.15 347.8 79.55 346.1 79.55
L 332.15 79.55
Q 331.95 79.55 331.75 79.7 331.6 79.8 331.6 80
L 331.6 82.75
Q 331.6 83 331.75 83.15 331.95 83.3 332.15 83.3
L 343.7 83.3
M 336.95 35.8
Q 336.95 35.6 336.75 35.45 336.55 35.3 336.4 35.3
L 318.55 35.3 318.55 33.25
Q 318.55 32.85 318.65 32.8 318.7 32.75 319.1 32.75
L 336.55 32.75
Q 337.15 32.75 337.15 32.2
L 337.15 29.75
Q 337.15 29.25 336.55 29.25
L 316.8 29.25
Q 315.3 29.25 314.6 29.85 313.95 30.45 313.95 31.95
L 313.95 42.2
Q 313.95 43.7 314.55 44.3 315.2 44.85 316.8 44.85
L 337.15 44.85
Q 337.8 44.85 337.8 44.25
L 337.8 41.95
Q 337.8 41.4 337.15 41.4
L 319.15 41.4
Q 318.7 41.4 318.6 41.3 318.55 41.25 318.55 40.8
L 318.55 38.7 336.4 38.7
Q 336.55 38.7 336.75 38.55 336.95 38.4 336.95 38.15
L 336.95 35.8
M 326.5 11.05
Q 326.5 9.75 325.75 9.15 325 8.6 323.25 8.6
L 309.8 8.6
Q 309.55 8.6 309.4 8.8 309.25 8.95 309.25 9.2
L 309.25 11.75
Q 309.25 11.95 309.4 12.15 309.5 12.3 309.8 12.3
L 320.75 12.3
Q 321.4 12.3 321.4 12.55 321.4 12.8 321.25 13.5 320.8 15.15 319.7 16.65 318.55 18.25 316.9 19.7 315.25 21.15 313.1 22.45 310.95 23.75 308.45 24.85 308 25.05 307.95 25.4 307.9 25.75 308.05 26.1
L 309.1 28.05
Q 309.45 28.75 310.35 28.4 316.75 25.8 320.65 22.15 324.5 18.55 326.05 13.4 326.1 13.25 326.15 12.95 326.25 12.65 326.3 12.3 326.4 11.95 326.45 11.55 326.5 11.25 326.5 11.05
M 337.2 7.7
Q 337.2 7.15 336.6 7.15
L 333.1 7.15
Q 332.9 7.15 332.7 7.3 332.55 7.45 332.55 7.7
L 332.55 26.8
Q 332.55 27.1 332.7 27.25 332.9 27.4 333.1 27.4
L 336.6 27.4
Q 337.2 27.4 337.2 26.85
L 337.2 19.45 342.55 19.45
Q 342.8 19.45 343 19.3 343.15 19.1 343.15 18.9
L 343.15 16.1
Q 343.15 15.9 343 15.75 342.8 15.6 342.55 15.6
L 337.2 15.6 337.2 7.7
M 366.5 22.75
Q 366.5 19.7 365.8 17.3 365.15 14.85 363.9 13.15 362.6 11.45 360.8 10.5 359 9.55 356.65 9.55 354.35 9.55 352.55 10.5 350.7 11.45 349.45 13.15 348.2 14.85 347.5 17.3 346.8 19.7 346.8 22.75 346.8 25.65 347.5 28.1 348.2 30.5 349.45 32.25 350.7 34 352.55 34.95 354.35 35.95 356.65 35.95 359 35.95 360.8 34.95 362.6 34.05 363.9 32.3 365.15 30.6 365.8 28.15 366.5 25.7 366.5 22.75
M 351.7 19.25
Q 352.05 17.55 352.75 16.3 353.4 15.1 354.4 14.35 355.35 13.65 356.65 13.65 357.9 13.65 358.9 14.35 359.9 15.1 360.6 16.3 361.25 17.55 361.6 19.25 361.95 20.9 361.95 22.75 361.95 24.5 361.6 26.2 361.25 27.85 360.6 29.1 359.9 30.35 358.9 31.1 357.9 31.85 356.65 31.85 355.35 31.85 354.4 31.1 353.4 30.35 352.75 29.1 352.05 27.85 351.7 26.2 351.3 24.5 351.3 22.75 351.3 20.9 351.7 19.25
M 372.35 7.15
Q 371.8 7.15 371.8 7.7
L 371.8 44.6
Q 371.8 45.15 372.35 45.15
L 375.9 45.15
Q 376.4 45.15 376.4 44.6
L 376.4 7.7
Q 376.4 7.15 375.9 7.15
L 372.35 7.15
M 481.05 76.6
Q 480.5 76.6 480.5 77.15
L 480.5 114.05
Q 480.5 114.6 481.05 114.6
L 484.6 114.6
Q 485.1 114.6 485.1 114.05
L 485.1 77.15
Q 485.1 76.6 484.6 76.6
L 481.05 76.6
M 461.05 79.5
Q 461.05 79.3 460.85 79.1 460.65 78.95 460.45 78.95
L 457 78.95
Q 456.8 78.95 456.6 79.1 456.45 79.3 456.45 79.5
L 456.45 100.35
Q 456.45 101.7 457.1 102.5 457.8 103.3 459.35 103.35 461.55 103.5 463.95 103.45 466.4 103.35 468.75 103.2 471.1 103 473.3 102.7 475.5 102.35 477.25 101.9 477.6 101.8 477.8 101.55 478.05 101.35 477.95 101.05
L 477.45 98.85
Q 477.4 98.55 477.2 98.35 477.05 98.15 476.6 98.2 472.5 99.05 468.75 99.35 465 99.65 461.8 99.45 461.35 99.4 461.2 99.3 461.05 99.2 461.05 98.8
L 461.05 79.5
M 445.35 76.6
L 441.8 76.6
Q 441.25 76.6 441.25 77.15
L 441.25 97.95
Q 441.25 98.15 441.45 98.35 441.6 98.5 441.8 98.5
L 445.35 98.5
Q 445.55 98.5 445.7 98.35 445.9 98.15 445.9 98
L 445.9 90.05 451.25 90.05
Q 451.5 90.05 451.7 89.9 451.85 89.75 451.85 89.55
L 451.85 86.75
Q 451.85 86.55 451.7 86.4 451.5 86.25 451.25 86.25
L 445.9 86.25 445.9 77.15
Q 445.9 76.6 445.35 76.6
M 421.7 96.9
Q 422.85 97.75 424.4 98.25 425.95 98.7 427.75 98.7 429.6 98.7 431.15 98.25 432.75 97.75 433.9 96.9 435.1 96.1 435.75 94.95 436.45 93.8 436.45 92.35 436.45 90.95 435.75 89.8 435.1 88.65 433.95 87.85 432.75 87 431.15 86.55 429.6 86.1 427.8 86.1 426 86.1 424.45 86.55 422.85 87 421.7 87.85 420.5 88.65 419.85 89.8 419.2 90.95 419.2 92.35 419.2 93.8 419.85 94.95 420.5 96.1 421.7 96.9
M 424.7 94.45
Q 423.5 93.6 423.5 92.35 423.5 91.1 424.7 90.3 425.9 89.5 427.8 89.5 429.7 89.5 430.9 90.3 432.1 91.1 432.1 92.35 432.1 93.6 430.9 94.45 429.7 95.35 427.8 95.35 425.9 95.35 424.7 94.45
M 416.95 81.55
Q 416.7 81.55 416.5 81.75 416.25 81.95 416.25 82.2
L 416.25 84.3
Q 416.25 84.55 416.45 84.75 416.7 84.95 416.9 84.95
L 438 84.95
Q 438.2 84.95 438.4 84.75 438.6 84.6 438.6 84.3
L 438.6 82.2
Q 438.6 81.9 438.4 81.75 438.2 81.55 438 81.55
L 416.95 81.55
M 422.4 76.8
Q 422.25 76.8 422 76.95 421.8 77.15 421.8 77.4
L 421.8 79.55
Q 421.8 79.8 422 80 422.25 80.15 422.4 80.15
L 432.75 80.15
Q 433.05 80.15 433.25 79.95 433.45 79.75 433.45 79.5
L 433.45 77.45
Q 433.45 77.2 433.2 77 433.05 76.8 432.75 76.8
L 422.4 76.8
M 405.75 10.1
Q 405.75 9.85 405.55 9.65 405.35 9.5 405.1 9.5
L 401.8 9.35
Q 401.3 9.35 401.3 9.95 401.3 13.75 400.9 17.1 400.55 20.4 399.65 23.25 398.75 26.15 397.35 28.6 395.9 31.05 393.75 33.1 393.1 33.7 393.7 34.3
L 395.5 36.05
Q 396.15 36.65 396.75 36.05 398.9 33.9 400.45 31.75 402 29.5 403.1 26.95 403.6 28.15 404.25 29.4 404.95 30.6 405.8 31.65 406.6 32.75 407.45 33.7 408.3 34.6 409.15 35.2 409.8 35.8 410.4 35.15
L 412.2 33.25
Q 412.7 32.75 412.1 32.25 411.1 31.4 410 30.1 408.95 28.75 407.95 27.2 406.95 25.6 406.15 23.85 405.35 22.1 404.95 20.4 405.4 18.15 405.55 15.6 405.75 13.1 405.75 10.1
M 419.15 8.3
Q 419.15 7.8 418.65 7.8
L 415.4 7.8
Q 414.75 7.8 414.75 8.3
L 414.75 19.75 408.75 19.75
Q 408.6 19.75 408.4 19.9 408.2 20.05 408.2 20.25
L 408.2 22.95
Q 408.2 23.2 408.4 23.35 408.6 23.55 408.75 23.55
L 414.75 23.55 414.75 43.25
Q 414.75 43.85 415.4 43.85
L 418.65 43.85
Q 419.15 43.85 419.15 43.25
L 419.15 8.3
M 426.95 7.7
Q 426.95 7.15 426.4 7.15
L 422.95 7.15
Q 422.4 7.15 422.4 7.7
L 422.4 44.7
Q 422.4 45.2 422.95 45.2
L 426.4 45.2
Q 426.95 45.2 426.95 44.7
L 426.95 7.7
M 448.9 30.9
Q 448.7 30.9 448.5 31 448.35 31.1 448.35 31.4
L 448.35 34.25
Q 448.35 34.45 448.5 34.6 448.7 34.7 448.9 34.7
L 466.95 34.7
Q 467.4 34.7 467.55 34.85 467.7 34.95 467.7 35.4
L 467.7 44.5
Q 467.7 44.7 467.9 44.85 468.1 45.05 468.35 45.05
L 471.75 45.05
Q 471.95 45.05 472.15 44.85 472.35 44.7 472.35 44.5
L 472.35 33.7
Q 472.35 32.15 471.75 31.5 471.15 30.9 469.65 30.9
L 448.9 30.9
M 461.05 9.5
Q 460.35 8.95 458.55 8.95
L 445 8.95
Q 444.45 8.95 444.45 9.5
L 444.45 12.15
Q 444.45 12.4 444.6 12.6 444.7 12.75 445 12.75
L 455.85 12.75
Q 456.6 12.75 456.6 13 456.6 13.25 456.4 13.9 455.3 17.55 451.95 20.55 448.55 23.55 443.65 25.7 443.2 25.9 443.15 26.2 443.1 26.5 443.25 26.85
L 444.3 28.9
Q 444.6 29.7 445.55 29.3 451.9 26.65 455.85 22.8 459.85 18.9 461.35 13.4 461.4 13.25 461.5 13 461.55 12.75 461.6 12.45 461.65 12.1 461.7 11.85 461.75 11.5 461.75 11.35 461.75 10.1 461.05 9.5
M 467.9 7.3
Q 467.75 7.45 467.75 7.7
L 467.75 28.3
Q 467.75 28.55 467.9 28.7 468.1 28.9 468.3 28.9
L 471.8 28.9
Q 472.4 28.9 472.4 28.35
L 472.4 20.6 477.75 20.6
Q 478 20.6 478.2 20.45 478.35 20.3 478.35 20.1
L 478.35 17.3
Q 478.35 17.1 478.2 16.95 478 16.75 477.75 16.75
L 472.4 16.75 472.4 7.7
Q 472.4 7.15 471.8 7.15
L 468.3 7.15
Q 468.1 7.15 467.9 7.3
M 616.15 179
L 612.7 179
Q 612.5 179 612.3 179.15 612.1 179.35 612.1 179.5
L 612.1 188.55
Q 612.1 190.15 612.75 190.75 613.35 191.4 615.15 191.4
L 635.9 191.4
Q 636.1 191.4 636.3 191.3 636.5 191.15 636.5 190.95
L 636.5 188.05
Q 636.5 187.85 636.3 187.7 636.1 187.55 635.9 187.55
L 617.5 187.55
Q 617.1 187.55 616.95 187.45 616.75 187.35 616.75 186.9
L 616.75 179.5
Q 616.75 179.35 616.6 179.15 616.4 179 616.15 179
M 635.25 154.75
Q 635.25 154.2 634.75 154.2
L 631.15 154.2
Q 630.65 154.2 630.65 154.75
L 630.65 180.6
Q 630.65 181.15 631.15 181.15
L 634.75 181.15
Q 635.25 181.15 635.25 180.65
L 635.25 154.75
M 572.9 177.95
Q 572.7 177.95 572.5 178.05 572.35 178.15 572.35 178.45
L 572.35 181.3
Q 572.35 181.5 572.5 181.65 572.7 181.75 572.9 181.75
L 590.95 181.75
Q 591.4 181.75 591.55 181.9 591.7 182 591.7 182.45
L 591.7 191.55
Q 591.7 191.75 591.9 191.9 592.1 192.1 592.35 192.1
L 595.75 192.1
Q 595.95 192.1 596.15 191.9 596.35 191.75 596.35 191.55
L 596.35 180.75
Q 596.35 179.2 595.75 178.55 595.15 177.95 593.65 177.95
L 572.9 177.95
M 585.35 160.45
Q 585.4 160.3 585.5 160.05 585.55 159.8 585.6 159.5 585.65 159.15 585.7 158.9 585.75 158.55 585.75 158.4 585.75 157.15 585.05 156.55 584.35 156 582.55 156
L 569 156
Q 568.45 156 568.45 156.55
L 568.45 159.2
Q 568.45 159.45 568.6 159.65 568.7 159.8 569 159.8
L 579.85 159.8
Q 580.6 159.8 580.6 160.05 580.6 160.3 580.4 160.95 579.3 164.6 575.95 167.6 572.55 170.6 567.65 172.75 567.2 172.95 567.15 173.25 567.1 173.55 567.25 173.9
L 568.3 175.95
Q 568.6 176.75 569.55 176.35 575.9 173.7 579.85 169.85 583.85 165.95 585.35 160.45
M 606.2 161.85
Q 605.5 163.55 605.5 165.5 605.5 167.5 606.2 169.25 606.95 171 608.2 172.3 609.5 173.6 611.25 174.35 613 175.15 615.15 175.15 617.35 175.15 619.15 174.35 620.95 173.6 622.25 172.3 623.55 171 624.25 169.25 624.95 167.5 624.95 165.5 624.95 163.55 624.25 161.85 623.55 160.1 622.25 158.75 620.95 157.4 619.15 156.65 617.35 155.85 615.15 155.85 613 155.85 611.25 156.65 609.5 157.4 608.2 158.75 606.95 160.1 606.2 161.85
M 613.1 160.4
Q 614 159.95 615.15 159.95 616.3 159.95 617.3 160.4 618.25 160.85 618.95 161.6 619.65 162.35 620.05 163.4 620.4 164.4 620.4 165.6 620.4 166.75 620.05 167.8 619.65 168.85 618.95 169.6 618.25 170.35 617.3 170.8 616.3 171.25 615.15 171.25 614 171.25 613.1 170.8 612.1 170.35 611.45 169.6 610.8 168.85 610.4 167.8 610 166.75 610 165.6 610 164.4 610.4 163.4 610.8 162.35 611.45 161.6 612.1 160.85 613.1 160.4
M 591.9 154.35
Q 591.75 154.5 591.75 154.75
L 591.75 175.35
Q 591.75 175.6 591.9 175.75 592.1 175.95 592.3 175.95
L 595.8 175.95
Q 596.4 175.95 596.4 175.4
L 596.4 167.65 601.75 167.65
Q 602 167.65 602.2 167.5 602.35 167.35 602.35 167.15
L 602.35 164.35
Q 602.35 164.15 602.2 164 602 163.8 601.75 163.8
L 596.4 163.8 596.4 154.75
Q 596.4 154.2 595.8 154.2
L 592.3 154.2
Q 592.1 154.2 591.9 154.35
M 538.15 180
Q 538.15 179.8 538 179.65 537.8 179.45 537.55 179.45
L 534.15 179.45
Q 533.95 179.45 533.75 179.65 533.55 179.8 533.55 180
L 533.55 188.35
Q 533.55 189.9 534.2 190.55 534.8 191.2 536.6 191.2
L 559.25 191.2
Q 559.5 191.2 559.7 191.1 559.85 190.95 559.85 190.75
L 559.85 187.85
Q 559.85 187.65 559.65 187.5 559.45 187.35 559.25 187.35
L 538.9 187.35
Q 538.5 187.35 538.35 187.25 538.15 187.15 538.15 186.75
L 538.15 180
M 564 172.75
Q 563.8 172.55 563.6 172.55
L 528.8 172.55
Q 528.5 172.55 528.35 172.75 528.2 172.95 528.2 173.15
L 528.2 175.75
Q 528.2 175.95 528.35 176.2 528.5 176.4 528.8 176.4
L 544.2 176.4 544.2 183.55
Q 544.2 184.1 544.75 184.1
L 548.25 184.1
Q 548.8 184.1 548.8 183.55
L 548.8 176.4 563.6 176.4
Q 563.8 176.4 564 176.2 564.2 175.95 564.2 175.75
L 564.2 173.15
Q 564.2 173 564 172.75
M 558.5 155.85
Q 558.5 155.3 557.95 155.3
L 536.9 155.3
Q 535.4 155.3 534.7 155.85 534 156.4 534 157.95
L 534 166.2
Q 534 167.6 534.65 168.35 535.3 169.05 536.9 169.05
L 558.3 169.05
Q 558.5 169.05 558.6 168.9 558.8 168.8 558.8 168.45
L 558.8 165.75
Q 558.8 165.4 558.6 165.3 558.45 165.25 558.15 165.25
L 539.4 165.25
Q 538.95 165.25 538.8 165.05 538.65 164.9 538.65 164.55
L 538.65 159.8
Q 538.65 159.15 539.4 159.15
L 557.95 159.15
Q 558.5 159.15 558.5 158.6
L 558.5 155.85
M 496 157.55
Q 494.2 156.6 491.85 156.6 489.55 156.6 487.75 157.55 485.9 158.5 484.65 160.2 483.4 161.9 482.7 164.35 482 166.75 482 169.8 482 172.7 482.7 175.15 483.4 177.55 484.65 179.3 485.9 181.05 487.75 182 489.55 183 491.85 183 494.2 183 496 182 497.8 181.1 499.1 179.35 500.35 177.65 501 175.2 501.7 172.75 501.7 169.8 501.7 166.75 501 164.35 500.35 161.9 499.1 160.2 497.8 158.5 496 157.55
M 494.1 161.4
Q 495.1 162.15 495.8 163.35 496.45 164.6 496.8 166.3 497.15 167.95 497.15 169.8 497.15 171.55 496.8 173.25 496.45 174.9 495.8 176.15 495.1 177.4 494.1 178.15 493.1 178.9 491.85 178.9 490.55 178.9 489.6 178.15 488.6 177.4 487.95 176.15 487.25 174.9 486.9 173.25 486.5 171.55 486.5 169.8 486.5 167.95 486.9 166.3 487.25 164.6 487.95 163.35 488.6 162.15 489.6 161.4 490.55 160.7 491.85 160.7 493.1 160.7 494.1 161.4
M 507.55 154.2
Q 507 154.2 507 154.75
L 507 191.65
Q 507 192.2 507.55 192.2
L 511.1 192.2
Q 511.6 192.2 511.6 191.65
L 511.6 154.75
Q 511.6 154.2 511.1 154.2
L 507.55 154.2
M 531.5 112
Q 532.4 112.9 533.7 112.9 534.95 112.9 535.85 112 536.7 111.1 536.7 109.8 536.7 108.5 535.85 107.65 534.95 106.75 533.7 106.75 532.4 106.75 531.5 107.65 530.6 108.5 530.6 109.8 530.6 111.1 531.5 112
M 521.05 77.15
Q 521.05 76.6 520.5 76.6
L 516.95 76.6
Q 516.45 76.6 516.45 77.15
L 516.45 114.05
Q 516.45 114.6 516.95 114.6
L 520.5 114.6
Q 521.05 114.6 521.05 114.05
L 521.05 95.1 526.45 95.1
Q 526.65 95.1 526.85 94.95 527.05 94.75 527.05 94.55
L 527.05 91.75
Q 527.05 91.55 526.85 91.4 526.65 91.25 526.45 91.25
L 521.05 91.25 521.05 77.15
M 497.75 98.7
L 497.75 84.15
Q 497.75 83.45 498.45 83.45
L 510.35 83.45
Q 510.9 83.45 510.9 82.95
L 510.9 80.15
Q 510.9 79.6 510.35 79.6
L 495.8 79.6
Q 494.3 79.6 493.75 80.15 493.15 80.75 493.15 82.15
L 493.15 101.1
Q 493.15 102.55 493.85 103.1 494.55 103.7 496.05 103.8 497.7 103.9 500.1 103.8 502.5 103.75 505.05 103.5 507.6 103.3 509.95 102.95 512.35 102.55 513.95 102.1 514.15 102 514.35 101.85 514.5 101.75 514.45 101.3
L 514 98.95
Q 513.85 98.35 513.25 98.5 511.45 98.8 509.5 99.1 507.45 99.35 505.55 99.55 503.65 99.75 501.9 99.8 500.2 99.9 498.95 99.75 498.2 99.7 497.95 99.5 497.75 99.3 497.75 98.7
M 496 10.5
Q 494.2 9.55 491.85 9.55 489.55 9.55 487.75 10.5 485.9 11.45 484.65 13.15 483.4 14.85 482.7 17.3 482 19.7 482 22.75 482 25.65 482.7 28.1 483.4 30.5 484.65 32.25 485.9 34 487.75 34.95 489.55 35.95 491.85 35.95 494.2 35.95 496 34.95 497.8 34.05 499.1 32.3 500.35 30.6 501 28.15 501.7 25.7 501.7 22.75 501.7 19.7 501 17.3 500.35 14.85 499.1 13.15 497.8 11.45 496 10.5
M 494.1 14.35
Q 495.1 15.1 495.8 16.3 496.45 17.55 496.8 19.25 497.15 20.9 497.15 22.75 497.15 24.5 496.8 26.2 496.45 27.85 495.8 29.1 495.1 30.35 494.1 31.1 493.1 31.85 491.85 31.85 490.55 31.85 489.6 31.1 488.6 30.35 487.95 29.1 487.25 27.85 486.9 26.2 486.5 24.5 486.5 22.75 486.5 20.9 486.9 19.25 487.25 17.55 487.95 16.3 488.6 15.1 489.6 14.35 490.55 13.65 491.85 13.65 493.1 13.65 494.1 14.35
M 507.55 7.15
Q 507 7.15 507 7.7
L 507 44.6
Q 507 45.15 507.55 45.15
L 511.1 45.15
Q 511.6 45.15 511.6 44.6
L 511.6 7.7
Q 511.6 7.15 511.1 7.15
L 507.55 7.15
M 558.8 24.45
L 558.8 12.5
Q 558.8 10.95 558.2 10.3 557.55 9.7 555.75 9.7
L 536.35 9.7
Q 534.8 9.7 534.15 10.35 533.5 10.95 533.5 12.45
L 533.5 24.4
Q 533.5 25.95 534.1 26.55 534.75 27.2 536.55 27.2
L 543.95 27.2 543.95 34.8 528.8 34.8
Q 528.2 34.8 528.2 35.45
L 528.2 38.05
Q 528.2 38.25 528.35 38.45 528.5 38.65 528.8 38.65
L 563.6 38.65
Q 563.8 38.65 564 38.45 564.2 38.25 564.2 38.05
L 564.2 35.45
Q 564.2 35.2 564 35 563.8 34.8 563.6 34.8
L 548.5 34.8 548.5 27.2 555.95 27.2
Q 557.5 27.2 558.15 26.55 558.8 25.95 558.8 24.45
M 554.2 14.05
L 554.2 22.85
Q 554.2 23.25 554.1 23.3 554 23.4 553.7 23.4
L 538.65 23.4
Q 538.35 23.4 538.25 23.3 538.15 23.25 538.15 22.85
L 538.15 14.05
Q 538.15 13.7 538.25 13.65 538.35 13.55 538.65 13.55
L 553.7 13.55
Q 554 13.55 554.1 13.65 554.2 13.75 554.2 14.05
M 586.15 44.3
L 586.15 31.6 601.2 31.6
Q 601.4 31.6 601.6 31.4 601.8 31.15 601.8 30.95
L 601.8 28.35
Q 601.8 28.15 601.6 27.95 601.4 27.75 601.2 27.75
L 566.4 27.75
Q 566.1 27.75 565.95 27.95 565.8 28.1 565.8 28.35
L 565.8 30.95
Q 565.8 31.15 565.95 31.4 566.1 31.6 566.4 31.6
L 581.55 31.6 581.55 44.3
Q 581.55 44.85 582.15 44.85
L 585.6 44.85
Q 586.15 44.85 586.15 44.3
M 596.65 23.05
L 596.65 20.3
Q 596.65 20 596.5 19.9 596.35 19.85 596 19.85
L 576.45 19.85
Q 575.75 19.85 575.75 19.1
L 575.75 12.5
Q 575.75 11.85 576.45 11.85
L 595.8 11.85
Q 596.4 11.85 596.4 11.3
L 596.4 8.55
Q 596.4 8 595.8 8
L 574 8
Q 572.5 8 571.8 8.55 571.1 9.05 571.1 10.6
L 571.1 20.8
Q 571.1 22.2 571.75 22.95 572.4 23.7 574 23.7
L 596.15 23.7
Q 596.4 23.7 596.5 23.55 596.65 23.4 596.65 23.05
M 640.85 8.3
Q 640.85 7.8 640.35 7.8
L 637.05 7.8
Q 636.5 7.8 636.5 8.3
L 636.5 15.25 631.8 15.25
Q 630.7 12.45 628.75 11.1 626.8 9.7 624.3 9.7 622.4 9.7 620.85 10.5 619.3 11.3 618.15 12.85 617 14.4 616.4 16.75 615.75 19.1 615.75 22.3 615.75 25.5 616.4 27.9 617 30.3 618.15 31.85 619.3 33.4 620.85 34.15 622.4 34.95 624.3 34.95 626.7 34.95 628.55 33.8 630.35 32.65 631.5 30.15
L 636.5 30.15 636.5 43.25
Q 636.5 43.85 637.05 43.85
L 640.35 43.85
Q 640.85 43.85 640.85 43.25
L 640.85 8.3
M 632.85 22.3
Q 632.85 21.45 632.8 20.6 632.75 19.75 632.65 18.95
L 636.5 18.95 636.5 26.35 632.5 26.35
Q 632.7 25.45 632.8 24.45 632.85 23.5 632.85 22.3
M 628.2 19.35
Q 628.45 20.85 628.45 22.3 628.45 23.8 628.2 25.35 627.95 26.9 627.45 28.1 627 29.35 626.2 30.15 625.4 30.95 624.35 30.95 623.3 30.95 622.5 30.15 621.7 29.35 621.25 28.1 620.75 26.9 620.5 25.35 620.25 23.8 620.25 22.3 620.25 20.85 620.5 19.35 620.75 17.8 621.25 16.55 621.7 15.3 622.5 14.5 623.3 13.7 624.35 13.7 625.4 13.7 626.2 14.5 627 15.3 627.45 16.55 627.95 17.8 628.2 19.35
M 771.15 176.15
Q 770.95 176.15 770.8 176.35 770.6 176.5 770.6 176.7
L 770.6 179.35
Q 770.6 179.55 770.8 179.7 770.95 179.85 771.15 179.85
L 790.25 179.85
Q 790.6 179.85 790.7 179.95 790.75 180.05 790.75 180.5
L 790.75 181.7
Q 790.75 182.1 790.7 182.15 790.6 182.2 790.3 182.2
L 773.35 182.2
Q 771.75 182.2 771.2 182.75 770.7 183.35 770.7 184.6
L 770.7 189.3
Q 770.7 190.6 771.25 191.1 771.8 191.7 773.35 191.7
L 795.7 191.7
Q 795.85 191.7 796.05 191.5 796.2 191.35 796.2 191.1
L 796.2 188.55
Q 796.2 188.3 796.05 188.15 795.85 188 795.65 188
L 775.75 188
Q 775.35 188 775.3 187.9 775.2 187.85 775.2 187.5
L 775.2 186.1
Q 775.2 185.75 775.3 185.65 775.35 185.6 775.7 185.6
L 792.55 185.6
Q 794.2 185.6 794.75 185.1 795.3 184.6 795.3 183.2
L 795.3 178.55
Q 795.3 177.2 794.75 176.65 794.2 176.15 792.55 176.15
L 771.15 176.15
M 794.8 158
Q 794 156.75 792.4 155.8 790.75 154.9 788.45 154.35 786.1 153.8 783.05 153.8 780 153.8 777.65 154.35 775.3 154.9 773.7 155.8 772.1 156.75 771.3 158 770.5 159.3 770.5 160.75 770.5 162.2 771.3 163.45 772.1 164.7 773.7 165.6 775.3 166.5 777.65 167 780 167.55 783.05 167.55 786.1 167.55 788.45 167 790.75 166.5 792.4 165.6 794 164.7 794.8 163.45 795.6 162.2 795.6 160.75 795.6 159.3 794.8 158
M 790.4 159.4
Q 790.95 160 790.95 160.75 790.95 161.45 790.4 162.05 789.8 162.7 788.75 163.15 787.7 163.6 786.2 163.85 784.8 164.1 783.05 164.1 781.3 164.1 779.85 163.85 778.4 163.6 777.35 163.15 776.3 162.7 775.7 162.1 775.15 161.5 775.15 160.75 775.15 160.05 775.7 159.4 776.3 158.8 777.35 158.3 778.4 157.8 779.85 157.55 781.3 157.3 783.05 157.3 784.8 157.3 786.2 157.55 787.7 157.8 788.75 158.3 789.8 158.8 790.4 159.4
M 747.7 178.8
Q 744.95 178.8 742.75 179.25 740.6 179.75 739 180.6 737.45 181.5 736.6 182.7 735.75 183.9 735.75 185.35 735.75 186.85 736.6 188.1 737.45 189.35 739 190.2 740.6 191.1 742.75 191.55 744.95 192.05 747.7 192.05 750.3 192.05 752.5 191.55 754.75 191.1 756.35 190.2 758 189.35 758.9 188.1 759.8 186.85 759.8 185.35 759.8 183.9 758.9 182.7 758 181.5 756.35 180.6 754.75 179.75 752.5 179.25 750.3 178.8 747.7 178.8
M 741.05 184.05
Q 741.55 183.45 742.55 183.05 743.5 182.6 744.8 182.4 746.1 182.2 747.7 182.2 749.2 182.2 750.55 182.4 751.85 182.6 752.85 183.05 753.85 183.45 754.45 184.05 755.05 184.7 755.05 185.5 755.05 186.3 754.45 186.85 753.85 187.4 752.85 187.8 751.85 188.2 750.55 188.4 749.2 188.55 747.7 188.55 746.15 188.55 744.85 188.4 743.55 188.2 742.55 187.8 741.55 187.4 741.05 186.85 740.5 186.3 740.5 185.5 740.5 184.7 741.05 184.05
M 732.2 168.2
Q 731.55 169.35 731.55 170.85 731.55 172.35 732.2 173.6 732.85 174.85 734 175.75 735.15 176.65 736.65 177.15 738.2 177.65 740 177.65 741.85 177.65 743.4 177.2 744.95 176.7 746.1 175.85 747.3 174.95 747.95 173.75 748.6 172.55 748.6 171.05 748.6 169.55 747.95 168.35 747.3 167.2 746.15 166.3 745 165.45 743.45 165 741.85 164.5 740.05 164.5 738.25 164.5 736.7 164.95 735.15 165.4 734 166.2 732.85 167.05 732.2 168.2
M 735.85 171.05
Q 735.85 169.65 737 168.85 738.15 168.05 740.05 168.05 741.95 168.05 743.1 168.85 744.25 169.65 744.25 171.05 744.25 172.45 743.1 173.35 741.95 174.2 740.05 174.2 738.15 174.2 737 173.35 735.85 172.45 735.85 171.05
M 745.75 157.4
L 745.75 155.2
Q 745.75 154.95 745.6 154.8 745.35 154.55 745.1 154.55
L 734.9 154.55
Q 734.75 154.55 734.5 154.75 734.3 154.9 734.3 155.15
L 734.3 157.45
Q 734.3 157.75 734.5 157.9 734.75 158.1 734.9 158.1
L 745.1 158.1
Q 745.4 158.1 745.6 157.85 745.75 157.65 745.75 157.4
M 765.6 169.9
Q 765.3 169.9 765.15 170.05 765 170.25 765 170.5
L 765 173.05
Q 765 173.6 765.6 173.6
L 800.4 173.6
Q 800.6 173.6 800.8 173.45 801 173.25 801 173.05
L 801 170.5
Q 801 170.3 800.8 170.1 800.6 169.9 800.4 169.9
L 765.6 169.9
M 759.7 154.7
Q 759.7 154.5 759.5 154.35 759.35 154.15 759.15 154.15
L 755.6 154.15
Q 755.05 154.15 755.05 154.7
L 755.05 164.95 750.3 164.95
Q 750.15 164.95 749.95 165.05 749.8 165.2 749.8 165.4
L 749.8 168.15
Q 749.8 168.35 749.95 168.45 750.15 168.6 750.3 168.6
L 755.05 168.6 755.05 171.3 750.3 171.3
Q 750.15 171.3 749.95 171.45 749.8 171.55 749.8 171.75
L 749.8 174.5
Q 749.8 174.7 749.95 174.85 750.15 174.95 750.3 174.95
L 755.05 174.95 755.05 177.75
Q 755.05 178 755.2 178.15 755.35 178.35 755.6 178.35
L 759.15 178.35
Q 759.35 178.35 759.5 178.15 759.7 178 759.7 177.75
L 759.7 154.7
M 696.9 177.95
Q 696.7 177.95 696.5 178.05 696.35 178.15 696.35 178.45
L 696.35 181.3
Q 696.35 181.5 696.5 181.65 696.7 181.75 696.9 181.75
L 714.95 181.75
Q 715.4 181.75 715.55 181.9 715.7 182 715.7 182.45
L 715.7 191.55
Q 715.7 191.75 715.9 191.9 716.1 192.1 716.35 192.1
L 719.75 192.1
Q 719.95 192.1 720.15 191.9 720.35 191.75 720.35 191.55
L 720.35 180.75
Q 720.35 179.2 719.75 178.55 719.15 177.95 717.65 177.95
L 696.9 177.95
M 728.8 160.3
L 728.8 162.55
Q 728.8 162.8 729 163 729.2 163.2 729.4 163.2
L 750.3 163.2
Q 750.55 163.2 750.7 163.05 750.9 162.85 750.9 162.6
L 750.9 160.3
Q 750.9 160.1 750.7 159.9 750.55 159.7 750.3 159.7
L 729.45 159.7
Q 729.25 159.7 729 159.9 728.8 160.15 728.8 160.3
M 709.6 159.5
Q 709.65 159.15 709.7 158.9 709.75 158.55 709.75 158.4 709.75 157.15 709.05 156.55 708.35 156 706.55 156
L 693 156
Q 692.45 156 692.45 156.55
L 692.45 159.2
Q 692.45 159.45 692.6 159.65 692.7 159.8 693 159.8
L 703.85 159.8
Q 704.6 159.8 704.6 160.05 704.6 160.3 704.4 160.95 703.3 164.6 699.95 167.6 696.55 170.6 691.65 172.75 691.2 172.95 691.15 173.25 691.1 173.55 691.25 173.9
L 692.3 175.95
Q 692.6 176.75 693.55 176.35 699.9 173.7 703.85 169.85 707.85 165.95 709.35 160.45 709.4 160.3 709.5 160.05 709.55 159.8 709.6 159.5
M 720.4 154.75
Q 720.4 154.2 719.8 154.2
L 716.3 154.2
Q 716.1 154.2 715.9 154.35 715.75 154.5 715.75 154.75
L 715.75 175.35
Q 715.75 175.6 715.9 175.75 716.1 175.95 716.3 175.95
L 719.8 175.95
Q 720.4 175.95 720.4 175.4
L 720.4 167.65 725.75 167.65
Q 726 167.65 726.2 167.5 726.35 167.35 726.35 167.15
L 726.35 164.35
Q 726.35 164.15 726.2 164 726 163.8 725.75 163.8
L 720.4 163.8 720.4 154.75
M 662.15 177.85
Q 660.6 177.85 659.95 178.55 659.25 179.2 659.25 180.75
L 659.25 188.7
Q 659.25 190.3 659.9 190.95 660.55 191.55 662.35 191.55
L 679.95 191.55
Q 681.5 191.55 682.15 190.95 682.8 190.3 682.8 188.8
L 682.8 180.75
Q 682.8 179.15 682.2 178.5 681.55 177.85 679.75 177.85
L 662.15 177.85
M 663.85 182
Q 663.85 181.7 663.95 181.6 664.05 181.55 664.4 181.55
L 677.75 181.55
Q 678.05 181.55 678.15 181.65 678.25 181.75 678.25 182.1
L 678.25 187.35
Q 678.25 187.75 678.15 187.8 678.05 187.9 677.75 187.9
L 664.4 187.9
Q 664.05 187.9 663.95 187.8 663.85 187.75 663.85 187.35
L 663.85 182
M 672.25 169.15
Q 671 168.3 669.85 167.2 668.65 166.05 667.6 164.7 666.6 163.35 665.95 161.8 666.55 159.05 666.55 155.6 666.55 154.95 666.05 154.95
L 662.5 154.8
Q 662.35 154.8 662.15 155 661.95 155.2 661.95 155.5 661.95 158.7 661.35 161.15 660.8 163.6 659.7 165.6 658.6 167.55 656.95 169.15 655.25 170.75 653 172.3 652.65 172.55 652.55 172.8 652.45 173.1 652.85 173.55
L 654.5 175.4
Q 654.75 175.7 655 175.8 655.3 175.9 655.8 175.55 658.65 173.6 660.75 171.55 662.8 169.45 664.15 166.9 665.65 169.2 667.75 171.05 669.85 172.9 672.3 174 673 174.35 673.35 173.65
L 674.75 171.45
Q 675.2 170.75 674.55 170.5 673.45 170 672.25 169.15
M 682.25 154.2
L 678.7 154.2
Q 678.15 154.2 678.15 154.75
L 678.15 175.3
Q 678.15 175.85 678.7 175.85
L 682.25 175.85
Q 682.8 175.85 682.8 175.3
L 682.8 167.8 688.2 167.8
Q 688.4 167.8 688.6 167.65 688.75 167.45 688.75 167.25
L 688.75 164.45
Q 688.75 164.25 688.6 164.1 688.4 164 688.2 164
L 682.8 164 682.8 154.75
Q 682.8 154.2 682.25 154.2
M 658.9 34.6
Q 659.1 34.7 659.3 34.7
L 677.35 34.7
Q 677.8 34.7 677.95 34.85 678.1 34.95 678.1 35.4
L 678.1 44.5
Q 678.1 44.7 678.3 44.85 678.5 45.05 678.75 45.05
L 682.15 45.05
Q 682.35 45.05 682.55 44.85 682.75 44.7 682.75 44.5
L 682.75 33.7
Q 682.75 32.15 682.15 31.5 681.55 30.9 680.05 30.9
L 659.3 30.9
Q 659.1 30.9 658.9 31 658.75 31.1 658.75 31.4
L 658.75 34.25
Q 658.75 34.45 658.9 34.6
M 648.55 7.7
Q 648.55 7.15 648 7.15
L 644.55 7.15
Q 644 7.15 644 7.7
L 644 44.7
Q 644 45.2 644.55 45.2
L 648 45.2
Q 648.55 45.2 648.55 44.7
L 648.55 7.7
M 672.1 11.85
Q 672.15 11.5 672.15 11.35 672.15 10.1 671.45 9.5 670.75 8.95 668.95 8.95
L 655.4 8.95
Q 654.85 8.95 654.85 9.5
L 654.85 12.15
Q 654.85 12.4 655 12.6 655.1 12.75 655.4 12.75
L 666.25 12.75
Q 667 12.75 667 13 667 13.25 666.8 13.9 665.7 17.55 662.35 20.55 658.95 23.55 654.05 25.7 653.6 25.9 653.55 26.2 653.5 26.5 653.65 26.85
L 654.7 28.9
Q 655 29.7 655.95 29.3 662.3 26.65 666.25 22.8 670.25 18.9 671.75 13.4 671.8 13.25 671.9 13 671.95 12.75 672 12.45 672.05 12.1 672.1 11.85
M 702.55 31.95
L 699.1 31.95
Q 698.9 31.95 698.7 32.1 698.5 32.3 698.5 32.45
L 698.5 41.5
Q 698.5 43.1 699.15 43.7 699.75 44.35 701.55 44.35
L 722.3 44.35
Q 722.5 44.35 722.7 44.25 722.9 44.1 722.9 43.9
L 722.9 41
Q 722.9 40.8 722.7 40.65 722.5 40.5 722.3 40.5
L 703.9 40.5
Q 703.5 40.5 703.35 40.4 703.15 40.3 703.15 39.85
L 703.15 32.45
Q 703.15 32.3 703 32.1 702.8 31.95 702.55 31.95
M 688.75 17.3
Q 688.75 17.1 688.6 16.95 688.4 16.75 688.15 16.75
L 682.8 16.75 682.8 7.7
Q 682.8 7.15 682.2 7.15
L 678.7 7.15
Q 678.5 7.15 678.3 7.3 678.15 7.45 678.15 7.7
L 678.15 28.3
Q 678.15 28.55 678.3 28.7 678.5 28.9 678.7 28.9
L 682.2 28.9
Q 682.8 28.9 682.8 28.35
L 682.8 20.6 688.15 20.6
Q 688.4 20.6 688.6 20.45 688.75 20.3 688.75 20.1
L 688.75 17.3
M 721.65 7.7
Q 721.65 7.15 721.15 7.15
L 717.55 7.15
Q 717.05 7.15 717.05 7.7
L 717.05 33.55
Q 717.05 34.1 717.55 34.1
L 721.15 34.1
Q 721.65 34.1 721.65 33.6
L 721.65 7.7
M 711.35 18.45
Q 711.35 16.5 710.65 14.8 709.95 13.05 708.65 11.7 707.35 10.35 705.55 9.6 703.75 8.8 701.55 8.8 699.4 8.8 697.65 9.6 695.9 10.35 694.6 11.7 693.35 13.05 692.6 14.8 691.9 16.5 691.9 18.45 691.9 20.45 692.6 22.2 693.35 23.95 694.6 25.25 695.9 26.55 697.65 27.3 699.4 28.1 701.55 28.1 703.75 28.1 705.55 27.3 707.35 26.55 708.65 25.25 709.95 23.95 710.65 22.2 711.35 20.45 711.35 18.45
M 696.4 18.55
Q 696.4 17.35 696.8 16.35 697.2 15.3 697.85 14.55 698.5 13.8 699.5 13.35 700.4 12.9 701.55 12.9 702.7 12.9 703.7 13.35 704.65 13.8 705.35 14.55 706.05 15.3 706.45 16.35 706.8 17.35 706.8 18.55 706.8 19.7 706.45 20.75 706.05 21.8 705.35 22.55 704.65 23.3 703.7 23.75 702.7 24.2 701.55 24.2 700.4 24.2 699.5 23.75 698.5 23.3 697.85 22.55 697.2 21.8 696.8 20.75 696.4 19.7 696.4 18.55
M 748.55 30.8
Q 747 30.8 746.35 31.5 745.65 32.15 745.65 33.7
L 745.65 41.65
Q 745.65 43.25 746.3 43.9 746.95 44.5 748.75 44.5
L 766.35 44.5
Q 767.9 44.5 768.55 43.9 769.2 43.25 769.2 41.75
L 769.2 33.7
Q 769.2 32.1 768.6 31.45 767.95 30.8 766.15 30.8
L 748.55 30.8
M 764.15 34.5
Q 764.45 34.5 764.55 34.6 764.65 34.7 764.65 35.05
L 764.65 40.3
Q 764.65 40.7 764.55 40.75 764.45 40.85 764.15 40.85
L 750.8 40.85
Q 750.45 40.85 750.35 40.75 750.25 40.7 750.25 40.3
L 750.25 34.95
Q 750.25 34.65 750.35 34.55 750.45 34.5 750.8 34.5
L 764.15 34.5
M 752.95 8.55
Q 752.95 7.9 752.45 7.9
L 748.9 7.75
Q 748.75 7.75 748.55 7.95 748.35 8.15 748.35 8.45 748.35 11.65 747.75 14.1 747.2 16.55 746.1 18.55 745 20.5 743.35 22.1 741.65 23.7 739.4 25.25 739.05 25.5 738.95 25.75 738.85 26.05 739.25 26.5
L 740.9 28.35
Q 741.15 28.65 741.4 28.75 741.7 28.85 742.2 28.5 745.05 26.55 747.15 24.5 749.2 22.4 750.55 19.85 752.05 22.15 754.15 24 756.25 25.85 758.7 26.95 759.4 27.3 759.75 26.6
L 761.15 24.4
Q 761.6 23.7 760.95 23.45 759.85 22.95 758.65 22.1 757.4 21.25 756.25 20.15 755.05 19 754 17.65 753 16.3 752.35 14.75 752.95 12 752.95 8.55
M 782.9 34.6
Q 783.1 34.7 783.3 34.7
L 801.35 34.7
Q 801.8 34.7 801.95 34.85 802.1 34.95 802.1 35.4
L 802.1 44.5
Q 802.1 44.7 802.3 44.85 802.5 45.05 802.75 45.05
L 806.15 45.05
Q 806.35 45.05 806.55 44.85 806.75 44.7 806.75 44.5
L 806.75 33.7
Q 806.75 32.15 806.15 31.5 805.55 30.9 804.05 30.9
L 783.3 30.9
Q 783.1 30.9 782.9 31 782.75 31.1 782.75 31.4
L 782.75 34.25
Q 782.75 34.45 782.9 34.6
M 775.15 20.2
L 775.15 17.4
Q 775.15 17.2 775 17.05 774.8 16.95 774.6 16.95
L 769.2 16.95 769.2 7.7
Q 769.2 7.15 768.65 7.15
L 765.1 7.15
Q 764.55 7.15 764.55 7.7
L 764.55 28.25
Q 764.55 28.8 765.1 28.8
L 768.65 28.8
Q 769.2 28.8 769.2 28.25
L 769.2 20.75 774.6 20.75
Q 774.8 20.75 775 20.6 775.15 20.4 775.15 20.2
M 796.15 11.35
Q 796.15 10.1 795.45 9.5 794.75 8.95 792.95 8.95
L 779.4 8.95
Q 778.85 8.95 778.85 9.5
L 778.85 12.15
Q 778.85 12.4 779 12.6 779.1 12.75 779.4 12.75
L 790.25 12.75
Q 791 12.75 791 13 791 13.25 790.8 13.9 789.7 17.55 786.35 20.55 782.95 23.55 778.05 25.7 777.6 25.9 777.55 26.2 777.5 26.5 777.65 26.85
L 778.7 28.9
Q 779 29.7 779.95 29.3 786.3 26.65 790.25 22.8 794.25 18.9 795.75 13.4 795.8 13.25 795.9 13 795.95 12.75 796 12.45 796.05 12.1 796.1 11.85 796.15 11.5 796.15 11.35
M 825.4 33.55
Q 823.85 34.45 823 35.65 822.15 36.85 822.15 38.3 822.15 39.8 823 41.05 823.85 42.3 825.4 43.15 827 44.05 829.15 44.5 831.35 45 834.1 45 836.7 45 838.9 44.5 841.15 44.05 842.75 43.15 844.4 42.3 845.3 41.05 846.2 39.8 846.2 38.3 846.2 36.85 845.3 35.65 844.4 34.45 842.75 33.55 841.15 32.7 838.9 32.2 836.7 31.75 834.1 31.75 831.35 31.75 829.15 32.2 827 32.7 825.4 33.55
M 827.45 37
Q 827.95 36.4 828.95 36 829.9 35.55 831.2 35.35 832.5 35.15 834.1 35.15 835.6 35.15 836.95 35.35 838.25 35.55 839.25 36 840.25 36.4 840.85 37 841.45 37.65 841.45 38.45 841.45 39.25 840.85 39.8 840.25 40.35 839.25 40.75 838.25 41.15 836.95 41.35 835.6 41.5 834.1 41.5 832.55 41.5 831.25 41.35 829.95 41.15 828.95 40.75 827.95 40.35 827.45 39.8 826.9 39.25 826.9 38.45 826.9 37.65 827.45 37
M 812.6 16.95
Q 812.4 16.75 812.15 16.75
L 806.8 16.75 806.8 7.7
Q 806.8 7.15 806.2 7.15
L 802.7 7.15
Q 802.5 7.15 802.3 7.3 802.15 7.45 802.15 7.7
L 802.15 28.3
Q 802.15 28.55 802.3 28.7 802.5 28.9 802.7 28.9
L 806.2 28.9
Q 806.8 28.9 806.8 28.35
L 806.8 20.6 812.15 20.6
Q 812.4 20.6 812.6 20.45 812.75 20.3 812.75 20.1
L 812.75 17.3
Q 812.75 17.1 812.6 16.95
M 835 24
Q 835 22.5 834.35 21.3 833.7 20.15 832.55 19.25 831.4 18.4 829.85 17.95 828.25 17.45 826.45 17.45 824.65 17.45 823.1 17.9 821.55 18.35 820.4 19.15 819.25 20 818.6 21.15 817.95 22.3 817.95 23.8 817.95 25.3 818.6 26.55 819.25 27.8 820.4 28.7 821.55 29.6 823.05 30.1 824.6 30.6 826.4 30.6 828.25 30.6 829.8 30.15 831.35 29.65 832.5 28.8 833.7 27.9 834.35 26.7 835 25.5 835 24
M 826.45 21
Q 828.35 21 829.5 21.8 830.65 22.6 830.65 24 830.65 25.4 829.5 26.3 828.35 27.15 826.45 27.15 824.55 27.15 823.4 26.3 822.25 25.4 822.25 24 822.25 22.6 823.4 21.8 824.55 21 826.45 21
M 837.3 15.55
L 837.3 13.25
Q 837.3 13.05 837.1 12.85 836.95 12.65 836.7 12.65
L 815.85 12.65
Q 815.65 12.65 815.4 12.85 815.2 13.1 815.2 13.25
L 815.2 15.5
Q 815.2 15.75 815.4 15.95 815.6 16.15 815.8 16.15
L 836.7 16.15
Q 836.95 16.15 837.1 16 837.3 15.8 837.3 15.55
M 832 10.8
Q 832.15 10.6 832.15 10.35
L 832.15 8.15
Q 832.15 7.9 832 7.75 831.75 7.5 831.5 7.5
L 821.3 7.5
Q 821.15 7.5 820.9 7.7 820.7 7.85 820.7 8.1
L 820.7 10.4
Q 820.7 10.7 820.9 10.85 821.15 11.05 821.3 11.05
L 831.5 11.05
Q 831.8 11.05 832 10.8
M 846.1 7.65
Q 846.1 7.45 845.9 7.3 845.75 7.1 845.55 7.1
L 842 7.1
Q 841.45 7.1 841.45 7.65
L 841.45 17.9 836.7 17.9
Q 836.55 17.9 836.35 18 836.2 18.15 836.2 18.35
L 836.2 21.1
Q 836.2 21.3 836.35 21.4 836.55 21.55 836.7 21.55
L 841.45 21.55 841.45 24.25 836.7 24.25
Q 836.55 24.25 836.35 24.4 836.2 24.5 836.2 24.7
L 836.2 27.45
Q 836.2 27.65 836.35 27.8 836.55 27.9 836.7 27.9
L 841.45 27.9 841.45 30.7
Q 841.45 30.95 841.6 31.1 841.75 31.3 842 31.3
L 845.55 31.3
Q 845.75 31.3 845.9 31.1 846.1 30.95 846.1 30.7
L 846.1 7.65
M 857.55 29.1
Q 857.35 29.1 857.2 29.3 857 29.45 857 29.65
L 857 32.3
Q 857 32.5 857.2 32.65 857.35 32.8 857.55 32.8
L 876.65 32.8
Q 877 32.8 877.1 32.9 877.15 33 877.15 33.45
L 877.15 34.65
Q 877.15 35.05 877.1 35.1 877 35.15 876.7 35.15
L 859.75 35.15
Q 858.15 35.15 857.6 35.7 857.1 36.3 857.1 37.55
L 857.1 42.25
Q 857.1 43.55 857.65 44.05 858.2 44.65 859.75 44.65
L 882.1 44.65
Q 882.25 44.65 882.45 44.45 882.6 44.3 882.6 44.05
L 882.6 41.5
Q 882.6 41.25 882.45 41.1 882.25 40.95 882.05 40.95
L 862.15 40.95
Q 861.75 40.95 861.7 40.85 861.6 40.8 861.6 40.45
L 861.6 39.05
Q 861.6 38.7 861.7 38.6 861.75 38.55 862.1 38.55
L 878.95 38.55
Q 880.6 38.55 881.15 38.05 881.7 37.55 881.7 36.15
L 881.7 31.5
Q 881.7 30.15 881.15 29.6 880.6 29.1 878.95 29.1
L 857.55 29.1
M 887.4 23.45
Q 887.4 23.25 887.2 23.05 887 22.85 886.8 22.85
L 852 22.85
Q 851.7 22.85 851.55 23 851.4 23.2 851.4 23.45
L 851.4 26
Q 851.4 26.55 852 26.55
L 886.8 26.55
Q 887 26.55 887.2 26.4 887.4 26.2 887.4 26
L 887.4 23.45
M 878.8 8.75
Q 877.15 7.85 874.85 7.3 872.5 6.75 869.45 6.75 866.4 6.75 864.05 7.3 861.7 7.85 860.1 8.75 858.5 9.7 857.7 10.95 856.9 12.25 856.9 13.7 856.9 15.15 857.7 16.4 858.5 17.65 860.1 18.55 861.7 19.45 864.05 19.95 866.4 20.5 869.45 20.5 872.5 20.5 874.85 19.95 877.15 19.45 878.8 18.55 880.4 17.65 881.2 16.4 882 15.15 882 13.7 882 12.25 881.2 10.95 880.4 9.7 878.8 8.75
M 875.15 11.25
Q 876.2 11.75 876.8 12.35 877.35 12.95 877.35 13.7 877.35 14.4 876.8 15 876.2 15.65 875.15 16.1 874.1 16.55 872.6 16.8 871.2 17.05 869.45 17.05 867.7 17.05 866.25 16.8 864.8 16.55 863.75 16.1 862.7 15.65 862.1 15.05 861.55 14.45 861.55 13.7 861.55 13 862.1 12.35 862.7 11.75 863.75 11.25 864.8 10.75 866.25 10.5 867.7 10.25 869.45 10.25 871.2 10.25 872.6 10.5 874.1 10.75 875.15 11.25 Z"/>

<path fill="#C1EBFF" stroke="none" d="
M 3 164.85
Q 2.95 164.85 2.95 164.9 0 167.95 0 172.1 0 176.3 3 179.3
L 3 179.35
Q 6.05 182.25 10.2 182.25 14.4 182.25 17.3 179.35 17.35 179.3 17.4 179.25 20.35 176.3 20.35 172.1 20.35 167.9 17.35 164.9
L 17.4 164.9
Q 14.45 161.9 10.2 161.9 6.05 161.9 3 164.85
M 4.25 172.1
Q 4.25 169.65 5.95 167.85 7.75 166.15 10.2 166.15 12.65 166.15 14.35 167.85 16.1 169.65 16.1 172.1 16.1 174.55 14.35 176.25 12.65 178 10.2 178 7.75 178 5.95 176.25 4.25 174.55 4.25 172.1
M 3 17.8
Q 2.95 17.8 2.95 17.85 0 20.9 0 25.05 0 29.25 3 32.25
L 3 32.3
Q 6.05 35.2 10.2 35.2 14.4 35.2 17.3 32.3 17.35 32.25 17.4 32.2 20.35 29.25 20.35 25.05 20.35 20.85 17.35 17.85
L 17.4 17.85
Q 14.45 14.85 10.2 14.85 6.05 14.85 3 17.8
M 10.2 19.1
Q 12.65 19.1 14.35 20.8 16.1 22.6 16.1 25.05 16.1 27.5 14.35 29.2 12.65 30.95 10.2 30.95 7.75 30.95 5.95 29.2 4.25 27.5 4.25 25.05 4.25 22.6 5.95 20.8 7.75 19.1 10.2 19.1 Z"/>

<path fill="#4CB6E6" stroke="none" d="
M 5.95 167.85
Q 4.25 169.65 4.25 172.1 4.25 174.55 5.95 176.25 7.75 178 10.2 178 12.65 178 14.35 176.25 16.1 174.55 16.1 172.1 16.1 169.65 14.35 167.85 12.65 166.15 10.2 166.15 7.75 166.15 5.95 167.85
M 14.35 20.8
Q 12.65 19.1 10.2 19.1 7.75 19.1 5.95 20.8 4.25 22.6 4.25 25.05 4.25 27.5 5.95 29.2 7.75 30.95 10.2 30.95 12.65 30.95 14.35 29.2 16.1 27.5 16.1 25.05 16.1 22.6 14.35 20.8 Z"/>
</g>

<path id="Layer0_0_1_STROKES" stroke="#DBDBDB" stroke-width="3" stroke-linejoin="round" stroke-linecap="round" fill="none" d="
M 243.55 64.45
Q 251.9 64.45 255.6 69.1 258.55 72.8 258.55 79.45
L 258.55 109.5
Q 258.55 116.15 255.6 119.85 251.9 124.5 243.55 124.5
L 55.55 124.5
Q 40.55 124.5 40.55 109.5
L 40.55 79.45
Q 40.55 64.45 55.55 64.45
L 243.55 64.45 Z
M 243.55 211.5
Q 251.9 211.5 255.6 216.15 258.55 219.85 258.55 226.5
L 258.55 256.55
Q 258.55 263.2 255.6 266.9 251.9 271.55 243.55 271.55
L 55.55 271.55
Q 40.55 271.55 40.55 256.55
L 40.55 226.5
Q 40.55 211.5 55.55 211.5
L 243.55 211.5 Z"/>
</defs>

<g transform="matrix( 1, 0, 0, 1, 0,0) ">
<use xlink:href="#Layer0_0_FILL"/>

<use xlink:href="#Layer0_0_1_STROKES"/>
</g>
</svg>
