<?xml version="1.0" encoding="utf-8"?>
<!-- Generator: Adobe Illustrator 23.1.0, SVG Export Plug-In . SVG Version: 6.00 Build 0)  -->
<svg version="1.1" id="레이어_1" xmlns="http://www.w3.org/2000/svg" xmlns:xlink="http://www.w3.org/1999/xlink" x="0px"
	 y="0px" width="570px" height="300px" viewBox="0 0 570 300" style="enable-background:new 0 0 570 300;" xml:space="preserve">
<g>
	<g>
		<radialGradient id="SVGID_1_" cx="149.4363" cy="149.7446" r="145.9311" gradientUnits="userSpaceOnUse">
			<stop  offset="0.8191" style="stop-color:#E1BE00"/>
			<stop  offset="0.9523" style="stop-color:#FAF2D6"/>
			<stop  offset="0.9899" style="stop-color:#EAD15F"/>
		</radialGradient>
		<circle style="fill:url(#SVGID_1_);" cx="149.4" cy="149.7" r="145.9"/>
		<path style="fill:none;" d="M3.8,150c0,80.6,65.5,146,146.3,146c80.8,0,146.3-65.4,146.3-146c0-80.6-65.5-146-146.3-146
			C69.3,4,3.8,69.4,3.8,150"/>
		<path style="fill:none;" d="M3.8,150c0,80.6,65.5,146,146.3,146c80.8,0,146.3-65.4,146.3-146c0-80.6-65.5-146-146.3-146
			C69.3,4,3.8,69.4,3.8,150"/>
		<g>
			<path style="fill:#E9B024;" d="M150.1,296.6c-81,0-146.9-65.8-146.9-146.6C3.1,69.1,69.1,3.4,150.1,3.4
				C231.1,3.4,297,69.1,297,150C297,230.9,231.1,296.6,150.1,296.6z M150.1,4.6C69.7,4.6,4.4,69.8,4.4,150
				c0,80.2,65.4,145.4,145.7,145.4c80.3,0,145.7-65.2,145.7-145.4C295.8,69.8,230.4,4.6,150.1,4.6z"/>
		</g>
		<path style="fill:#FFFFFF;" d="M271.2,149.9c0,66.7-54.2,120.8-121.1,120.8C83.3,270.8,29,216.7,29,149.9
			C29,83.2,83.3,29.1,150.1,29.1C217,29.1,271.2,83.2,271.2,149.9"/>
		<path style="fill:#898989;" d="M152.2,42.6c0,1.2-1,2.1-2.3,2.1c-1.2,0-2.3-1-2.3-2.1v-9.1c0-1.2,1-2.1,2.3-2.1
			c1.2,0,2.3,1,2.3,2.1V42.6z"/>
		<path style="fill:#898989;" d="M98.2,56c0.6,1,0.2,2.4-0.9,3c-1.1,0.6-2.4,0.3-3-0.7l-4.6-7.9c-0.6-1-0.2-2.4,0.9-3
			c1.1-0.6,2.4-0.3,3,0.7L98.2,56z"/>
		<path style="fill:#898989;" d="M57.9,94.2c1,0.6,1.4,2,0.7,3c-0.6,1.1-2,1.5-3,0.9l-7.9-4.6c-1-0.6-1.4-1.9-0.7-3
			c0.6-1.1,2-1.5,3-0.9L57.9,94.2z"/>
		<path style="fill:#898989;" d="M42.2,147.6c1.2,0,2.2,1,2.2,2.3c0,1.2-1,2.3-2.2,2.3h-9.2c-1.2,0-2.1-1-2.1-2.3
			c0-1.3,1-2.3,2.2-2.3H42.2z"/>
		<path style="fill:#898989;" d="M258.1,147.6c-1.2,0-2.2,1-2.2,2.3c0,1.2,1,2.3,2.2,2.3h9.2c1.2,0,2.1-1,2.1-2.3
			c0-1.3-1-2.3-2.2-2.3H258.1z"/>
		<path style="fill:#898989;" d="M55.3,201.8c1-0.6,2.4-0.2,3,0.9c0.6,1.1,0.3,2.4-0.7,3l-7.9,4.6c-1,0.6-2.4,0.2-3-0.9
			c-0.6-1.1-0.3-2.4,0.7-3L55.3,201.8z"/>
		<path style="fill:#898989;" d="M94.1,242.2c0.6-1,2-1.4,3.1-0.7c1.1,0.6,1.5,1.9,0.9,3l-4.6,7.9c-0.6,1-2,1.4-3,0.7
			c-1.1-0.6-1.5-2-0.9-3L94.1,242.2z"/>
		<path style="fill:#898989;" d="M147.7,257.8c0-1.2,1-2.2,2.3-2.2c1.2,0,2.3,1,2.3,2.1l0,9.1c0,1.2-1,2.2-2.3,2.2
			c-1.3,0-2.3-1-2.3-2.2L147.7,257.8z"/>
		<path style="fill:#898989;" d="M202,244.3c-0.6-1-0.2-2.4,0.9-3c1.1-0.6,2.4-0.3,3,0.7l4.6,7.9c0.6,1,0.2,2.4-0.9,3
			c-1.1,0.6-2.5,0.3-3-0.7L202,244.3z"/>
		<path style="fill:#898989;" d="M242.3,205.7c-1-0.6-1.4-2-0.7-3c0.6-1.1,2-1.5,3-0.9l7.9,4.6c1,0.6,1.4,2,0.7,3
			c-0.6,1.1-2,1.5-3,0.9L242.3,205.7z"/>
		<path style="fill:#898989;" d="M244.4,98.1c-1,0.6-2.4,0.2-3-0.9c-0.6-1.1-0.3-2.4,0.7-3l8-4.6c1-0.6,2.4-0.2,3,0.9
			c0.6,1.1,0.3,2.4-0.8,3L244.4,98.1z"/>
		<path style="fill:#898989;" d="M205.7,57.9c-0.6,1-2,1.4-3,0.7c-1.1-0.6-1.5-1.9-0.9-3l4.6-7.9c0.6-1,2-1.3,3.1-0.7
			c1.1,0.6,1.5,2,0.9,3L205.7,57.9z"/>
		<g>
			<path d="M137.5,268.5C137.5,268.5,137.5,268.5,137.5,268.5c-0.3,0-0.5-0.3-0.5-0.6l0.8-7.3c0-0.3,0.3-0.5,0.6-0.5
				c0.3,0,0.5,0.3,0.5,0.6L138,268C138,268.3,137.8,268.5,137.5,268.5z M162.3,268.4c-0.3,0-0.5-0.2-0.5-0.5l-0.8-7
				c0-0.3,0.2-0.5,0.5-0.6c0.3,0,0.5,0.2,0.6,0.5l0.8,7C162.9,268.1,162.7,268.3,162.3,268.4C162.4,268.4,162.4,268.4,162.3,268.4z
				 M125.4,266.6C125.3,266.6,125.3,266.6,125.4,266.6c-0.4-0.1-0.6-0.3-0.5-0.6l1.2-7.2c0-0.3,0.3-0.5,0.6-0.4
				c0.3,0,0.5,0.3,0.4,0.6l-1.2,7.2C125.8,266.4,125.6,266.6,125.4,266.6z M174.6,266c-0.2,0-0.4-0.2-0.5-0.4l-1.6-6.7
				c-0.1-0.3,0.1-0.6,0.4-0.6c0.3-0.1,0.6,0.1,0.6,0.4l1.6,6.7c0.1,0.3-0.1,0.6-0.4,0.6C174.6,266,174.6,266,174.6,266z
				 M186.7,263.1c-0.2,0-0.4-0.1-0.5-0.3l-2.6-6.9c-0.1-0.3,0-0.6,0.3-0.7c0.3-0.1,0.6,0,0.7,0.3l2.6,6.9c0.1,0.3,0,0.6-0.3,0.7
				C186.8,263.1,186.8,263.1,186.7,263.1z M113.4,263c0,0-0.1,0-0.1,0c-0.3-0.1-0.4-0.4-0.3-0.6l2-6.6c0.1-0.3,0.4-0.4,0.6-0.3
				c0.3,0.1,0.4,0.4,0.3,0.6l-2,6.6C113.8,262.8,113.6,263,113.4,263z M101.6,258.9c-0.1,0-0.1,0-0.2,0c-0.3-0.1-0.4-0.4-0.3-0.7
				l2.8-6.5c0.1-0.3,0.4-0.4,0.7-0.3c0.3,0.1,0.4,0.4,0.3,0.7l-2.8,6.5C102,258.8,101.8,258.9,101.6,258.9z M198.2,258.7
				c-0.2,0-0.4-0.1-0.5-0.3l-2.9-6.7c-0.1-0.3,0-0.6,0.3-0.7c0.3-0.1,0.6,0,0.7,0.3l2.9,6.7c0.1,0.3,0,0.6-0.3,0.7
				C198.3,258.7,198.3,258.7,198.2,258.7z M80.1,246.5c-0.1,0-0.2,0-0.3-0.1c-0.2-0.2-0.3-0.5-0.1-0.7l4.3-5.9
				c0.2-0.2,0.5-0.3,0.7-0.1c0.2,0.2,0.3,0.5,0.1,0.7l-4.3,5.9C80.4,246.5,80.3,246.5,80.1,246.5z M220,246.3
				c-0.2,0-0.3-0.1-0.4-0.2l-4.2-5.7c-0.2-0.2-0.1-0.6,0.1-0.7c0.2-0.2,0.6-0.1,0.7,0.1l4.2,5.7c0.2,0.2,0.1,0.6-0.1,0.7
				C220.2,246.3,220.1,246.3,220,246.3z M70.5,238.8c-0.1,0-0.2,0-0.3-0.1c-0.2-0.2-0.3-0.5-0.1-0.7l4.7-5.7
				c0.2-0.2,0.5-0.2,0.7-0.1c0.2,0.2,0.3,0.5,0.1,0.7l-4.7,5.7C70.8,238.8,70.7,238.8,70.5,238.8z M229.4,238.1
				c-0.1,0-0.3-0.1-0.4-0.2l-4.7-5c-0.2-0.2-0.2-0.5,0-0.7c0.2-0.2,0.5-0.2,0.7,0l4.7,5c0.2,0.2,0.2,0.5,0,0.7
				C229.7,238.1,229.5,238.1,229.4,238.1z M62,229.7c-0.1,0-0.3-0.1-0.4-0.2c-0.2-0.2-0.2-0.5,0-0.7l5-4.7c0.2-0.2,0.5-0.2,0.7,0
				c0.2,0.2,0.2,0.5,0,0.7l-5,4.7C62.3,229.7,62.1,229.7,62,229.7z M238.5,229.6c-0.1,0-0.2,0-0.3-0.1l-5.7-4.6
				c-0.2-0.2-0.3-0.5-0.1-0.7c0.2-0.2,0.5-0.3,0.7-0.1l5.7,4.6c0.2,0.2,0.3,0.5,0.1,0.7C238.8,229.6,238.7,229.6,238.5,229.6z
				 M53.8,220.4c-0.2,0-0.3-0.1-0.4-0.2c-0.2-0.2-0.1-0.6,0.1-0.7l5.7-4.2c0.2-0.2,0.6-0.1,0.7,0.1c0.2,0.2,0.1,0.6-0.1,0.7
				l-5.7,4.2C54,220.3,53.9,220.4,53.8,220.4z M246.2,220.1c-0.1,0-0.2,0-0.3-0.1l-5.9-4.3c-0.2-0.2-0.3-0.5-0.1-0.7
				c0.2-0.2,0.5-0.3,0.7-0.1l5.9,4.3c0.2,0.2,0.3,0.5,0.1,0.7C246.5,220,246.4,220.1,246.2,220.1z M258.9,198.8c-0.1,0-0.1,0-0.2,0
				l-6.5-2.8c-0.3-0.1-0.4-0.4-0.3-0.7s0.4-0.4,0.7-0.3l6.5,2.8c0.3,0.1,0.4,0.4,0.3,0.7C259.2,198.7,259.1,198.8,258.9,198.8z
				 M41.4,198.8c-0.2,0-0.4-0.1-0.5-0.3c-0.1-0.3,0-0.6,0.3-0.7l6.7-2.9c0.3-0.1,0.6,0,0.7,0.3c0.1,0.3,0,0.6-0.3,0.7l-6.7,2.9
				C41.5,198.8,41.5,198.8,41.4,198.8z M37,187.3c-0.2,0-0.4-0.1-0.5-0.3c-0.1-0.3,0-0.6,0.3-0.7l6.9-2.6c0.3-0.1,0.6,0,0.7,0.3
				c0.1,0.3,0,0.6-0.3,0.7l-6.9,2.6C37.1,187.3,37.1,187.3,37,187.3z M262.9,187c0,0-0.1,0-0.1,0l-6.6-1.9c-0.3-0.1-0.4-0.4-0.3-0.6
				c0.1-0.3,0.4-0.4,0.6-0.3l6.6,1.9c0.3,0.1,0.4,0.4,0.3,0.6C263.3,186.9,263.1,187,262.9,187z M34.2,175.2c-0.2,0-0.4-0.2-0.5-0.4
				c-0.1-0.3,0.1-0.6,0.4-0.6l6.7-1.6c0.3-0.1,0.6,0.1,0.6,0.4c0.1,0.3-0.1,0.6-0.4,0.6l-6.7,1.6C34.2,175.2,34.2,175.2,34.2,175.2z
				 M266.5,175.1C266.5,175.1,266.4,175.1,266.5,175.1l-7.3-1.2c-0.3,0-0.5-0.3-0.4-0.6c0-0.3,0.3-0.5,0.6-0.4l7.2,1.2
				c0.3,0,0.5,0.3,0.4,0.6C266.9,174.9,266.7,175.1,266.5,175.1z M31.8,163c-0.3,0-0.5-0.2-0.5-0.5c0-0.3,0.2-0.5,0.5-0.6l7-0.8
				c0.3,0,0.5,0.2,0.6,0.5c0,0.3-0.2,0.5-0.5,0.6L31.8,163C31.8,163,31.8,163,31.8,163z M268.4,163C268.4,163,268.4,163,268.4,163
				l-7.3-0.8c-0.3,0-0.5-0.3-0.5-0.6c0-0.3,0.3-0.5,0.6-0.5l7.3,0.8c0.3,0,0.5,0.3,0.5,0.6C268.9,162.8,268.6,163,268.4,163z
				 M38.9,138.8C38.9,138.8,38.9,138.8,38.9,138.8l-7.3-0.8c-0.3,0-0.5-0.3-0.5-0.6c0-0.3,0.3-0.5,0.6-0.5l7.3,0.8
				c0.3,0,0.5,0.3,0.5,0.6C39.4,138.6,39.2,138.8,38.9,138.8z M261.7,138.8c-0.3,0-0.5-0.2-0.5-0.5c0-0.3,0.2-0.5,0.5-0.6l7-0.8
				c0.3,0,0.5,0.2,0.6,0.5s-0.2,0.5-0.5,0.6L261.7,138.8C261.7,138.8,261.7,138.8,261.7,138.8z M259.5,127.4c-0.2,0-0.4-0.2-0.5-0.4
				c-0.1-0.3,0.1-0.6,0.4-0.6l6.7-1.6c0.3-0.1,0.6,0.1,0.6,0.4c0.1,0.3-0.1,0.6-0.4,0.6l-6.7,1.6
				C259.6,127.4,259.6,127.4,259.5,127.4z M40.8,127.1C40.8,127.1,40.8,127.1,40.8,127.1l-7.3-1.2c-0.3,0-0.5-0.3-0.4-0.6
				c0-0.3,0.3-0.5,0.6-0.4l7.2,1.2c0.3,0,0.5,0.3,0.4,0.6C41.3,126.9,41.1,127.1,40.8,127.1z M256.5,116.2c-0.2,0-0.4-0.1-0.5-0.3
				c-0.1-0.3,0-0.6,0.3-0.7l6.9-2.6c0.3-0.1,0.6,0,0.7,0.3c0.1,0.3,0,0.6-0.3,0.7l-6.9,2.6C256.6,116.2,256.6,116.2,256.5,116.2z
				 M43.8,115.9c0,0-0.1,0-0.1,0l-6.6-2c-0.3-0.1-0.4-0.4-0.3-0.6c0.1-0.3,0.4-0.4,0.6-0.3l6.6,2c0.3,0.1,0.4,0.4,0.3,0.6
				C44.3,115.8,44,115.9,43.8,115.9z M252.3,105.1c-0.2,0-0.4-0.1-0.5-0.3c-0.1-0.3,0-0.6,0.3-0.7l6.7-2.9c0.3-0.1,0.6,0,0.7,0.3
				c0.1,0.3,0,0.6-0.3,0.7l-6.7,2.9C252.4,105.1,252.3,105.1,252.3,105.1z M47.7,105c-0.1,0-0.1,0-0.2,0l-6.5-2.8
				c-0.3-0.1-0.4-0.4-0.3-0.7c0.1-0.3,0.4-0.4,0.7-0.3l6.5,2.8c0.3,0.1,0.4,0.4,0.3,0.7C48.1,104.9,47.9,105,47.7,105z M59.6,85.1
				c-0.1,0-0.2,0-0.3-0.1l-5.9-4.3c-0.2-0.2-0.3-0.5-0.1-0.7c0.2-0.2,0.5-0.3,0.7-0.1l5.9,4.3c0.2,0.2,0.3,0.5,0.1,0.7
				C59.9,85,59.7,85.1,59.6,85.1z M240.9,84.6c-0.2,0-0.3-0.1-0.4-0.2c-0.2-0.2-0.1-0.6,0.1-0.7l5.7-4.2c0.2-0.2,0.6-0.1,0.7,0.1
				c0.2,0.2,0.1,0.6-0.1,0.7l-5.7,4.2C241.1,84.6,241,84.6,240.9,84.6z M67.1,75.8c-0.1,0-0.2,0-0.3-0.1l-5.7-4.7
				c-0.2-0.2-0.3-0.5-0.1-0.7c0.2-0.2,0.5-0.3,0.7-0.1l5.7,4.7c0.2,0.2,0.3,0.5,0.1,0.7C67.4,75.8,67.2,75.8,67.1,75.8z M233.3,75.8
				c-0.1,0-0.3-0.1-0.4-0.2c-0.2-0.2-0.2-0.5,0-0.7l5-4.7c0.2-0.2,0.5-0.2,0.7,0c0.2,0.2,0.2,0.5,0,0.7l-5,4.7
				C233.6,75.8,233.5,75.8,233.3,75.8z M75.3,67.7c-0.1,0-0.3-0.1-0.4-0.2l-4.7-5c-0.2-0.2-0.2-0.5,0-0.7c0.2-0.2,0.5-0.2,0.7,0
				l4.7,5c0.2,0.2,0.2,0.5,0,0.7C75.5,67.6,75.4,67.7,75.3,67.7z M225.1,67.7c-0.1,0-0.2,0-0.3-0.1c-0.2-0.2-0.3-0.5-0.1-0.7
				l4.7-5.7c0.2-0.2,0.5-0.3,0.7-0.1c0.2,0.2,0.3,0.5,0.1,0.7l-4.7,5.7C225.4,67.6,225.3,67.7,225.1,67.7z M215.9,60.2
				c-0.1,0-0.2,0-0.3-0.1c-0.2-0.2-0.3-0.5-0.1-0.7l4.3-5.9c0.2-0.2,0.5-0.3,0.7-0.1c0.2,0.2,0.3,0.5,0.1,0.7l-4.3,5.9
				C216.2,60.1,216,60.2,215.9,60.2z M84.1,60.2c-0.2,0-0.3-0.1-0.4-0.2l-4.2-5.7c-0.2-0.2-0.1-0.6,0.1-0.7c0.2-0.2,0.6-0.1,0.7,0.1
				l4.2,5.7c0.2,0.2,0.1,0.6-0.1,0.7C84.3,60.1,84.2,60.2,84.1,60.2z M104.5,48.6c-0.2,0-0.4-0.1-0.5-0.3l-2.9-6.7
				c-0.1-0.3,0-0.6,0.3-0.7c0.3-0.1,0.6,0,0.7,0.3l2.9,6.7c0.1,0.3,0,0.6-0.3,0.7C104.6,48.6,104.6,48.6,104.5,48.6z M195.5,48.3
				c-0.1,0-0.1,0-0.2,0c-0.3-0.1-0.4-0.4-0.3-0.7l2.8-6.5c0.1-0.3,0.4-0.4,0.7-0.3c0.3,0.1,0.4,0.4,0.3,0.7L196,48
				C195.9,48.2,195.7,48.3,195.5,48.3z M184.6,44.4c0,0-0.1,0-0.1,0c-0.3-0.1-0.4-0.4-0.3-0.6l2-6.6c0.1-0.3,0.4-0.4,0.6-0.3
				c0.3,0.1,0.4,0.4,0.3,0.6l-2,6.6C185,44.3,184.8,44.4,184.6,44.4z M115.6,44.4c-0.2,0-0.4-0.1-0.5-0.3l-2.6-6.9
				c-0.1-0.3,0-0.6,0.3-0.7c0.3-0.1,0.6,0,0.7,0.3l2.6,6.9c0.1,0.3,0,0.6-0.3,0.7C115.7,44.4,115.7,44.4,115.6,44.4z M126.8,41.4
				c-0.2,0-0.4-0.2-0.5-0.4l-1.6-6.7c-0.1-0.3,0.1-0.6,0.4-0.6c0.3-0.1,0.6,0.1,0.6,0.4l1.6,6.7c0.1,0.3-0.1,0.6-0.4,0.6
				C126.9,41.4,126.9,41.4,126.8,41.4z M173.4,41.4C173.4,41.4,173.4,41.4,173.4,41.4c-0.4-0.1-0.6-0.3-0.5-0.6l1.2-7.2
				c0-0.3,0.3-0.5,0.6-0.4c0.3,0,0.5,0.3,0.4,0.6l-1.2,7.2C173.9,41.2,173.7,41.4,173.4,41.4z M161.7,39.5
				C161.6,39.5,161.6,39.5,161.7,39.5c-0.3,0-0.5-0.3-0.5-0.6l0.8-7.3c0-0.3,0.3-0.5,0.6-0.5c0.3,0,0.5,0.3,0.5,0.6l-0.8,7.3
				C162.1,39.3,161.9,39.5,161.7,39.5z M138.2,39.3c-0.3,0-0.5-0.2-0.5-0.5l-0.8-7c0-0.3,0.2-0.5,0.5-0.6c0.3,0,0.5,0.2,0.6,0.5
				l0.8,7C138.8,39,138.6,39.3,138.2,39.3C138.3,39.3,138.2,39.3,138.2,39.3z"/>
		</g>
		<polygon style="fill:#009944;" points="151.6,148.3 111.2,116.3 116.1,114.4 98.2,109.1 107.3,125.4 108,120.3 148.4,152.3 		"/>
		<polygon style="fill:#E4007F;" points="238.4,121.1 219.7,119.7 224.6,124.1 149.4,148.7 150.4,151.6 225.4,127.1 224.1,133.1 		
			"/>
		<g>
			<linearGradient id="SVGID_2_" gradientUnits="userSpaceOnUse" x1="145.7323" y1="145.7976" x2="153.8978" y2="153.963">
				<stop  offset="0" style="stop-color:#B7CDDA"/>
				<stop  offset="1" style="stop-color:#FFFFFF"/>
			</linearGradient>
			<circle style="fill:url(#SVGID_2_);" cx="149.8" cy="149.9" r="5.8"/>
			
				<linearGradient id="SVGID_3_" gradientUnits="userSpaceOnUse" x1="-89.8308" y1="-2.5908" x2="-83.5329" y2="3.7071" gradientTransform="matrix(-1 0 0 -1 63.1332 150.4385)">
				<stop  offset="0" style="stop-color:#B7CDDA"/>
				<stop  offset="1" style="stop-color:#FFFFFF"/>
			</linearGradient>
			<circle style="fill:url(#SVGID_3_);" cx="149.8" cy="149.9" r="4.5"/>
			<g>
				<path d="M149.9,154.4c-2.5,0-4.6-2-4.6-4.5c0-2.5,2-4.6,4.6-4.6c2.5,0,4.5,2,4.5,4.6C154.4,152.4,152.4,154.4,149.9,154.4z
					 M149.9,145.5c-2.4,0-4.4,2-4.4,4.4c0,2.4,2,4.4,4.4,4.4c2.4,0,4.4-2,4.4-4.4C154.3,147.5,152.3,145.5,149.9,145.5z"/>
			</g>
			<g>
				<path style="fill:#747374;" d="M149.9,156c-3.4,0-6.2-2.8-6.2-6.2c0-3.4,2.8-6.2,6.2-6.2c3.4,0,6.2,2.8,6.2,6.2
					C156,153.3,153.3,156,149.9,156z M149.9,144.4c-3.1,0-5.5,2.5-5.5,5.5c0,3,2.5,5.5,5.5,5.5c3,0,5.5-2.5,5.5-5.5
					C155.4,146.8,152.9,144.4,149.9,144.4z"/>
			</g>
		</g>
		<g>
			<path style="stroke:#000000;stroke-width:0.1;stroke-linecap:round;stroke-linejoin:round;stroke-miterlimit:10;" d="M153.5,10.6
				c0.7,1.3,1,2.8,1,4.6s-0.3,3.4-1,4.6c-0.7,1.4-1.7,2.1-3,2.1c-1.3,0-2.3-0.7-3-2.1c-0.7-1.3-1-2.8-1-4.6s0.3-3.4,1-4.6
				c0.7-1.4,1.8-2.1,3-2.1C151.8,8.6,152.7,9.3,153.5,10.6z M148.4,11c-0.5,1.2-0.7,2.6-0.7,4.3c0,1.7,0.2,3.1,0.7,4.3
				c0.5,1.3,1.2,1.9,2.1,1.9c0.8,0,1.5-0.6,2.1-1.9c0.5-1.2,0.8-2.6,0.8-4.3s-0.3-3.1-0.8-4.3c-0.5-1.3-1.2-1.9-2.1-1.9
				C149.6,9.1,149,9.7,148.4,11z"/>
		</g>
		<g>
			<path style="stroke:#000000;stroke-width:0.1;stroke-linecap:round;stroke-linejoin:round;stroke-miterlimit:10;" d="M162,22.1
				c0.9,0,1.6-0.1,2-0.3c0.4-0.2,0.6-0.5,0.6-1v-9c0-0.3-0.1-0.6-0.3-0.7c-0.2-0.1-0.5-0.2-0.9-0.2h-1.6v-0.4
				c0.8-0.1,1.6-0.2,2.3-0.5c0.5-0.2,1.1-0.5,1.7-0.9v11.7c0,0.5,0.2,0.8,0.7,1c0.4,0.2,1.1,0.3,2,0.3v0.5H162V22.1z"/>
		</g>
		<g>
			<path style="stroke:#000000;stroke-width:0.1;stroke-linecap:round;stroke-linejoin:round;stroke-miterlimit:10;" d="M179.4,23.8
				h-7v-0.6c0.5-0.8,1.1-1.7,1.9-2.7c0.5-0.6,1.2-1.4,2.2-2.5l0.8-0.9c0.6-0.6,1-1.3,1.2-1.8c0.2-0.5,0.3-1,0.3-1.6
				c0-0.9-0.3-1.5-0.8-2c-0.4-0.4-1-0.6-1.7-0.6c-0.6,0-1.2,0.1-1.6,0.4c-0.5,0.3-0.8,0.8-0.8,1.3c0,0.3,0,0.5,0.1,0.7
				c0,0.1,0.1,0.2,0.2,0.3c0.1,0.1,0.1,0.2,0.1,0.2c0.1,0.1,0.1,0.2,0.1,0.3c0,0.2-0.1,0.4-0.3,0.6c-0.2,0.1-0.3,0.2-0.6,0.2
				c-0.3,0-0.5-0.1-0.6-0.3c-0.1-0.2-0.2-0.6-0.2-1c0-0.7,0.3-1.4,0.9-2c0.7-0.7,1.6-1.1,2.8-1.1c1.1,0,2,0.3,2.6,0.9
				c0.6,0.6,0.9,1.4,0.9,2.4c0,0.8-0.2,1.6-0.8,2.3c-0.4,0.5-1.1,1.3-2.1,2.1c-0.8,0.7-1.5,1.4-2.1,1.9c-0.8,0.8-1.4,1.6-2.1,2.4
				h4.4c0.5,0,0.9-0.2,1.3-0.5c0.4-0.4,0.8-1.1,1.2-2.1l0.3,0.1L179.4,23.8z"/>
		</g>
		<g>
			<path style="stroke:#000000;stroke-width:0.1;stroke-linecap:round;stroke-linejoin:round;stroke-miterlimit:10;" d="M188.1,22.2
				c-0.2,0-0.2-0.2-0.2-0.3c0-0.2,0.1-0.3,0.2-0.3c0.1,0,0.3,0,0.6,0.1c0.8,0,1.5-0.3,2.1-0.8c0.6-0.5,0.9-1.2,0.9-2.1
				c0-0.7-0.2-1.4-0.6-1.9c-0.4-0.5-1-0.8-1.7-0.8c-1,0-1.6,0.2-1.8,0.6c-0.2,0.2-0.2,0.6-0.1,1.2l0.1,0.4c0,0.2-0.1,0.4-0.3,0.6
				c-0.2,0.2-0.3,0.3-0.5,0.3c-0.2,0-0.4-0.1-0.6-0.2c-0.2-0.2-0.3-0.4-0.3-0.7c0-0.6,0.3-1.2,0.9-1.7c0.7-0.6,1.6-0.9,2.6-0.9
				s1.9,0.3,2.5,0.8c0.6,0.6,1,1.3,1,2.3c0,0.7-0.3,1.4-0.9,2c-0.5,0.5-1.2,0.9-2.1,1.2c1.1,0.2,1.9,0.6,2.5,1.3
				c0.6,0.6,0.8,1.3,0.8,2.1c0,1.1-0.3,1.9-1,2.6c-0.8,0.8-1.8,1.2-3.2,1.2c-1.1,0-2-0.3-2.7-0.8c-0.6-0.5-1-1.1-1-1.9
				c0-0.4,0.1-0.6,0.3-0.8c0.2-0.1,0.4-0.2,0.6-0.2c0.2,0,0.4,0.1,0.6,0.2c0.2,0.2,0.3,0.4,0.3,0.7l0,0.3c-0.1,0.6,0,1.1,0.1,1.3
				c0.3,0.5,0.9,0.7,1.8,0.7s1.7-0.3,2.2-1c0.5-0.6,0.8-1.4,0.8-2.4c0-1-0.3-1.7-0.9-2.3c-0.6-0.6-1.4-0.9-2.5-0.9l0,0
				C188.4,22.2,188.2,22.2,188.1,22.2z"/>
		</g>
		<g>
			<path style="stroke:#000000;stroke-width:0.1;stroke-linecap:round;stroke-linejoin:round;stroke-miterlimit:10;" d="M201,33.2
				c0.6,0,1-0.1,1.3-0.2c0.3-0.1,0.4-0.3,0.4-0.7v-2.1h-5.1v-0.6l5.7-9.3h0.6v9.3h2.3v0.6h-2.3v2.1c0,0.3,0.1,0.5,0.4,0.6
				c0.2,0.1,0.6,0.1,1.2,0.1v0.4H201V33.2z M198.2,29.7h4.4v-7.4L198.2,29.7z"/>
		</g>
		<g>
			<path style="stroke:#000000;stroke-width:0.1;stroke-linecap:round;stroke-linejoin:round;stroke-miterlimit:10;" d="M211.7,28.2
				l-0.3,4.8c0.4-0.4,0.8-0.8,1.3-1c0.5-0.2,1-0.3,1.6-0.3c1.2,0,2.2,0.4,2.9,1.3c0.7,0.8,1,1.8,1,3c0,1.2-0.3,2.1-1,2.9
				c-0.7,0.9-1.7,1.4-2.9,1.4c-1.2,0-2.1-0.3-2.9-0.8c-0.7-0.5-1.1-1.2-1.1-2c0-0.3,0.1-0.5,0.3-0.6c0.1-0.1,0.3-0.2,0.6-0.2
				c0.2,0,0.4,0.1,0.6,0.2c0.2,0.1,0.3,0.3,0.3,0.6l-0.1,0.5c-0.1,0.6,0,1,0.2,1.2c0.3,0.4,0.9,0.6,1.9,0.6c0.9,0,1.6-0.4,2.1-1.2
				c0.5-0.7,0.7-1.6,0.7-2.6c0-1-0.2-1.9-0.7-2.6c-0.5-0.8-1.2-1.2-2.1-1.2c-0.6,0-1.1,0.2-1.7,0.6c-0.5,0.3-0.9,0.7-1.2,1.2
				l-0.4-0.2l0.4-6.6h6.3l-0.3,1h-3H211.7z"/>
		</g>
		<g>
			<path style="stroke:#000000;stroke-width:0.1;stroke-linecap:round;stroke-linejoin:round;stroke-miterlimit:10;" d="M224.5,40.2
				c0.7-0.4,1.3-0.7,2-0.7c0.9,0,1.6,0.4,2.2,1.1c0.6,0.8,1,1.8,1,3.1c0,1.4-0.4,2.4-1.3,3.2c-0.8,0.7-1.6,1.1-2.6,1.1
				c-1.2,0-2.1-0.5-2.8-1.4c-0.8-1.1-1.2-2.6-1.2-4.6c0-2.2,0.4-4,1.3-5.3c0.9-1.4,2.1-2.1,3.5-2.1c0.8,0,1.5,0.2,2,0.6
				c0.5,0.4,0.7,0.8,0.7,1.2c0,0.3-0.1,0.5-0.2,0.7c-0.1,0.2-0.3,0.3-0.6,0.3c-0.3,0-0.5-0.1-0.6-0.3c-0.2-0.2-0.2-0.4-0.2-0.7
				c0-0.4-0.1-0.7-0.4-0.9c-0.3-0.2-0.6-0.3-1.1-0.3c-0.9,0-1.6,0.6-2.2,1.8c-0.6,1.2-1,2.8-1,4.8C223.5,41.1,223.9,40.6,224.5,40.2
				z M223.9,46.6c0.5,0.6,1.1,1,1.9,1c0.8,0,1.5-0.4,2-1.1c0.5-0.7,0.7-1.7,0.7-3c0-1-0.2-1.8-0.7-2.4c-0.5-0.6-1.1-1-1.8-1
				c-0.6,0-1.1,0.3-1.7,0.8c-0.5,0.5-1,1-1.3,1.6C223,44.5,223.3,45.8,223.9,46.6z"/>
		</g>
		<g>
			<path style="stroke:#000000;stroke-width:0.1;stroke-linecap:round;stroke-linejoin:round;stroke-miterlimit:10;" d="M242,44
				l-1.1,2c-1.1,1.9-1.8,3.4-2.2,4.4c-0.7,1.7-1,3.2-0.8,4.5c0,0.5,0,0.9-0.2,1.2c-0.1,0.3-0.3,0.4-0.6,0.4c-0.3,0-0.5-0.1-0.6-0.3
				c-0.2-0.2-0.3-0.6-0.2-1c0.1-1.2,0.5-2.6,1.2-4.2c0.4-1,1.3-2.6,2.6-4.8l1.1-1.9h-4.8c-0.4,0-0.8,0.3-1.2,0.9
				c-0.3,0.4-0.6,1-0.8,1.8l-0.3-0.1l0.9-3.6h7.2V44z"/>
		</g>
		<g>
			<path style="stroke:#000000;stroke-width:0.1;stroke-linecap:round;stroke-linejoin:round;stroke-miterlimit:10;" d="M249.9,53.1
				c0.6,0.5,1,1.3,1,2.2c0,0.8-0.2,1.4-0.7,2c-0.4,0.5-1,0.8-1.7,1.1c1,0.3,1.7,0.8,2.2,1.3c0.6,0.6,0.9,1.4,0.9,2.4
				c0,1.1-0.4,2-1.2,2.7c-0.8,0.7-1.7,1-2.8,1c-1.1,0-2-0.3-2.7-0.8c-0.8-0.6-1.1-1.4-1.1-2.5c0-0.7,0.2-1.3,0.5-1.9
				c0.5-0.6,1.3-1.3,2.4-1.8c-0.7-0.3-1.3-0.7-1.7-1.3c-0.4-0.6-0.7-1.2-0.7-1.9c0-0.8,0.3-1.6,0.8-2.2c0.7-0.7,1.5-1.1,2.5-1.1
				C248.5,52.3,249.3,52.6,249.9,53.1z M245.6,64.7c0.5,0.5,1.2,0.7,2,0.7c1,0,1.7-0.3,2.3-0.8c0.6-0.5,0.8-1.3,0.8-2.2
				c0-0.8-0.3-1.4-1-2c-0.6-0.4-1.5-0.9-2.7-1.3c-0.9,0.5-1.5,1-1.7,1.5c-0.3,0.5-0.4,1.1-0.4,2C244.8,63.4,245,64.2,245.6,64.7z
				 M245.7,53.4c-0.5,0.5-0.8,1.1-0.8,1.9c0,0.7,0.3,1.2,0.8,1.7c0.5,0.4,1.2,0.8,2.1,1.2c0.7-0.4,1.1-0.7,1.4-1.2
				c0.4-0.5,0.5-1.1,0.5-1.7c0-0.8-0.2-1.4-0.7-1.9c-0.5-0.5-1-0.7-1.7-0.7C246.8,52.7,246.2,52.9,245.7,53.4z"/>
		</g>
		<g>
			<path style="stroke:#000000;stroke-width:0.1;stroke-linecap:round;stroke-linejoin:round;stroke-miterlimit:10;" d="M258.5,71.4
				c-0.6,0.4-1.3,0.7-2,0.7c-0.9,0-1.7-0.4-2.3-1.1c-0.6-0.8-1-1.8-1-3.1c0-1.4,0.4-2.5,1.3-3.3c0.7-0.7,1.6-1,2.6-1
				c1.2,0,2.1,0.5,2.8,1.4c0.8,1.1,1.2,2.6,1.2,4.6c0,2.2-0.5,3.9-1.3,5.3c-0.9,1.4-2,2.1-3.5,2.1c-0.8,0-1.5-0.2-2-0.6
				c-0.5-0.4-0.7-0.8-0.7-1.2c0-0.3,0.1-0.6,0.2-0.7c0.1-0.2,0.3-0.2,0.6-0.2c0.2,0,0.5,0.1,0.6,0.2c0.2,0.2,0.3,0.4,0.3,0.7
				c0,0.4,0.1,0.6,0.4,0.9c0.3,0.2,0.6,0.4,1.1,0.4c0.8,0,1.6-0.6,2.2-1.8c0.7-1.2,1-2.8,1-4.8C259.5,70.5,259,71,258.5,71.4z
				 M259,65c-0.5-0.6-1.1-1-1.9-1c-0.9,0-1.5,0.4-2,1.1c-0.5,0.7-0.7,1.7-0.7,3c0,1,0.2,1.7,0.7,2.4c0.5,0.6,1,1,1.8,1
				c0.5,0,1.1-0.3,1.7-0.8c0.5-0.5,1-1,1.3-1.6C260,67.1,259.7,65.8,259,65z"/>
		</g>
		<g>
			<path style="stroke:#000000;stroke-width:0.1;stroke-linecap:round;stroke-linejoin:round;stroke-miterlimit:10;" d="M261.2,87.9
				c0.9,0,1.6-0.1,2-0.3c0.4-0.2,0.6-0.5,0.6-1v-9c0-0.3-0.1-0.6-0.3-0.7c-0.2-0.1-0.5-0.2-0.9-0.2H261v-0.4
				c0.8-0.1,1.6-0.2,2.3-0.5c0.5-0.2,1.1-0.5,1.7-0.9v11.7c0,0.5,0.2,0.8,0.7,1c0.4,0.2,1.1,0.3,2,0.3v0.5h-6.5V87.9z"/>
			<path style="stroke:#000000;stroke-width:0.1;stroke-linecap:round;stroke-linejoin:round;stroke-miterlimit:10;" d="M275.3,77.3
				c0.7,1.3,1,2.8,1,4.6c0,1.8-0.3,3.4-1,4.6c-0.7,1.4-1.7,2.1-3,2.1c-1.3,0-2.3-0.7-3-2.1c-0.7-1.3-1-2.8-1-4.6
				c0-1.8,0.3-3.4,1-4.6c0.7-1.4,1.8-2.1,3-2.1C273.5,75.2,274.5,75.9,275.3,77.3z M270.2,77.7c-0.5,1.2-0.7,2.6-0.7,4.3
				c0,1.7,0.2,3.1,0.7,4.3c0.5,1.3,1.2,1.9,2.1,1.9c0.8,0,1.5-0.6,2.1-1.9c0.5-1.2,0.8-2.6,0.8-4.3c0-1.7-0.3-3.1-0.8-4.3
				c-0.5-1.3-1.2-1.9-2.1-1.9C271.4,75.7,270.7,76.4,270.2,77.7z"/>
		</g>
		<g>
			<path style="stroke:#000000;stroke-width:0.1;stroke-linecap:round;stroke-linejoin:round;stroke-miterlimit:10;" d="
				M265.8,101.8c0.9,0,1.6-0.1,2-0.3c0.4-0.2,0.6-0.5,0.6-1v-9c0-0.3-0.1-0.6-0.3-0.7c-0.2-0.1-0.5-0.2-0.9-0.2h-1.6v-0.4
				c0.8-0.1,1.6-0.2,2.3-0.5c0.5-0.2,1.1-0.5,1.7-0.9v11.7c0,0.5,0.2,0.8,0.7,1c0.4,0.2,1.1,0.3,2,0.3v0.5h-6.5V101.8z"/>
			<path style="stroke:#000000;stroke-width:0.1;stroke-linecap:round;stroke-linejoin:round;stroke-miterlimit:10;" d="
				M274.3,101.8c0.9,0,1.6-0.1,2-0.3c0.4-0.2,0.6-0.5,0.6-1v-9c0-0.3-0.1-0.6-0.3-0.7c-0.2-0.1-0.5-0.2-0.9-0.2H274v-0.4
				c0.8-0.1,1.6-0.2,2.3-0.5c0.5-0.2,1.1-0.5,1.7-0.9v11.7c0,0.5,0.2,0.8,0.7,1c0.4,0.2,1.1,0.3,2,0.3v0.5h-6.5V101.8z"/>
		</g>
		<g>
			<path style="stroke:#000000;stroke-width:0.1;stroke-linecap:round;stroke-linejoin:round;stroke-miterlimit:10;" d="
				M270.3,115.8c0.9,0,1.6-0.1,2-0.3c0.4-0.2,0.6-0.5,0.6-1v-9c0-0.3-0.1-0.6-0.3-0.7c-0.2-0.1-0.5-0.2-0.9-0.2h-1.6v-0.4
				c0.8-0.1,1.6-0.2,2.3-0.5c0.5-0.2,1.1-0.5,1.7-0.9v11.7c0,0.5,0.2,0.8,0.7,1c0.4,0.2,1.1,0.3,2,0.3v0.5h-6.5V115.8z"/>
			<path style="stroke:#000000;stroke-width:0.1;stroke-linecap:round;stroke-linejoin:round;stroke-miterlimit:10;" d="
				M284.4,116.3h-7v-0.6c0.5-0.8,1.1-1.7,1.9-2.7c0.5-0.6,1.2-1.4,2.2-2.5l0.8-0.9c0.6-0.6,1-1.3,1.2-1.8c0.2-0.5,0.3-1,0.3-1.6
				c0-0.9-0.3-1.5-0.8-2c-0.4-0.4-1-0.6-1.7-0.6c-0.6,0-1.2,0.1-1.6,0.4c-0.5,0.3-0.8,0.8-0.8,1.3c0,0.3,0,0.5,0.1,0.7
				c0,0.1,0.1,0.2,0.2,0.3c0.1,0.1,0.1,0.2,0.1,0.2c0.1,0.1,0.1,0.2,0.1,0.3c0,0.2-0.1,0.4-0.3,0.6c-0.2,0.1-0.3,0.2-0.6,0.2
				c-0.3,0-0.5-0.1-0.6-0.3c-0.1-0.2-0.2-0.6-0.2-1c0-0.7,0.3-1.4,0.9-2c0.7-0.7,1.6-1.1,2.8-1.1c1.1,0,2,0.3,2.6,0.9
				c0.6,0.6,0.9,1.4,0.9,2.4c0,0.8-0.2,1.6-0.8,2.3c-0.4,0.5-1.1,1.3-2.1,2.1c-0.8,0.7-1.5,1.4-2.1,1.9c-0.8,0.8-1.4,1.6-2.1,2.4
				h4.4c0.5,0,0.9-0.2,1.3-0.5c0.4-0.4,0.8-1.1,1.2-2.1l0.3,0.1L284.4,116.3z"/>
		</g>
		<g>
			<path style="stroke:#000000;stroke-width:0.1;stroke-linecap:round;stroke-linejoin:round;stroke-miterlimit:10;" d="M141.3,62.8
				c1.4,0,2.3-0.1,2.9-0.4c0.6-0.3,0.9-0.7,0.9-1.4V47.8c0-0.5-0.2-0.9-0.5-1.1c-0.3-0.2-0.7-0.3-1.3-0.3h-2.4v-0.5
				c1.2-0.1,2.4-0.4,3.3-0.7c0.8-0.3,1.6-0.7,2.6-1.3V61c0,0.7,0.3,1.1,1,1.4c0.6,0.3,1.6,0.4,3,0.4v0.7h-9.5V62.8z"/>
			<path style="stroke:#000000;stroke-width:0.1;stroke-linecap:round;stroke-linejoin:round;stroke-miterlimit:10;" d="M161.8,63.5
				h-10.2v-0.9c0.7-1.2,1.6-2.6,2.8-4c0.7-0.8,1.8-2,3.2-3.6l1.2-1.3c0.9-1,1.5-1.8,1.8-2.7c0.3-0.7,0.5-1.5,0.5-2.4
				c0-1.3-0.4-2.2-1.1-2.9c-0.6-0.6-1.4-0.9-2.4-0.9c-0.9,0-1.7,0.2-2.4,0.6c-0.7,0.5-1.1,1.1-1.1,1.9c0,0.4,0,0.7,0.1,1
				c0.1,0.2,0.1,0.3,0.3,0.5c0.1,0.1,0.2,0.2,0.2,0.3c0.1,0.1,0.1,0.3,0.1,0.5c0,0.4-0.1,0.6-0.4,0.8c-0.2,0.2-0.5,0.3-0.8,0.3
				c-0.4,0-0.7-0.2-0.9-0.5c-0.2-0.4-0.3-0.8-0.3-1.5c0-1.1,0.4-2,1.3-3c1.1-1.1,2.4-1.6,4-1.6c1.7,0,3,0.4,3.9,1.3
				c0.9,0.8,1.3,2,1.3,3.5c0,1.2-0.4,2.3-1.1,3.4c-0.6,0.8-1.6,1.9-3,3.2c-1.2,1.1-2.3,2-3,2.8c-1.1,1.1-2.1,2.3-3,3.6h6.4
				c0.7,0,1.4-0.2,2-0.7c0.6-0.6,1.2-1.6,1.8-3l0.5,0.1L161.8,63.5z"/>
		</g>
		<g>
			<path style="stroke:#000000;stroke-width:0.1;stroke-linecap:round;stroke-linejoin:round;stroke-miterlimit:10;" d="M196.7,78.3
				c1.4,0,2.3-0.1,2.9-0.4c0.6-0.3,0.9-0.7,0.9-1.4V63.3c0-0.5-0.2-0.9-0.5-1.1c-0.3-0.2-0.7-0.3-1.3-0.3h-2.4v-0.5
				c1.2-0.1,2.4-0.4,3.3-0.7c0.8-0.3,1.6-0.7,2.6-1.3v17.2c0,0.7,0.3,1.1,1,1.4c0.6,0.3,1.6,0.4,3,0.4V79h-9.5V78.3z"/>
		</g>
		<g>
			<path style="stroke:#000000;stroke-width:0.1;stroke-linecap:round;stroke-linejoin:round;stroke-miterlimit:10;" d="
				M235.4,111.2h-10.2v-0.9c0.7-1.2,1.6-2.6,2.8-4c0.7-0.8,1.8-2,3.2-3.6l1.2-1.3c0.9-1,1.5-1.8,1.8-2.7c0.3-0.7,0.5-1.5,0.5-2.4
				c0-1.3-0.4-2.2-1.1-2.9c-0.6-0.6-1.4-0.9-2.4-0.9c-0.9,0-1.7,0.2-2.4,0.6c-0.7,0.5-1.1,1.1-1.1,1.9c0,0.4,0,0.7,0.1,1
				c0.1,0.2,0.1,0.3,0.3,0.5c0.1,0.1,0.2,0.2,0.2,0.3c0.1,0.1,0.1,0.3,0.1,0.5c0,0.4-0.1,0.6-0.4,0.8c-0.2,0.2-0.5,0.3-0.8,0.3
				c-0.4,0-0.7-0.2-0.9-0.5c-0.2-0.4-0.3-0.8-0.3-1.5c0-1.1,0.4-2,1.3-3c1.1-1.1,2.4-1.6,4-1.6c1.7,0,3,0.4,3.9,1.3
				c0.9,0.8,1.3,2,1.3,3.5c0,1.2-0.4,2.3-1.1,3.4c-0.6,0.8-1.6,1.9-3,3.2c-1.2,1.1-2.3,2-3,2.8c-1.1,1.1-2.1,2.3-3,3.6h6.4
				c0.7,0,1.4-0.2,2-0.7c0.6-0.6,1.2-1.6,1.8-3l0.5,0.1L235.4,111.2z"/>
		</g>
		<g>
			<path style="stroke:#000000;stroke-width:0.1;stroke-linecap:round;stroke-linejoin:round;stroke-miterlimit:10;" d="M244.7,148
				c-0.2-0.1-0.4-0.2-0.4-0.5c0-0.3,0.1-0.4,0.3-0.5c0.2,0,0.5,0,0.9,0.1c1.2,0,2.3-0.4,3.1-1.1c0.9-0.8,1.3-1.8,1.3-3
				c0-1.1-0.3-2-0.9-2.7c-0.6-0.8-1.4-1.2-2.5-1.2c-1.4,0-2.3,0.3-2.7,0.8c-0.2,0.3-0.3,0.9-0.2,1.7l0.1,0.6c0,0.3-0.1,0.6-0.4,0.9
				c-0.2,0.3-0.5,0.4-0.7,0.4c-0.3,0-0.6-0.1-0.8-0.3c-0.3-0.3-0.4-0.6-0.4-1c0-1,0.4-1.8,1.3-2.6c1-0.8,2.3-1.3,3.8-1.3
				c1.5,0,2.8,0.4,3.7,1.2c0.9,0.8,1.4,1.9,1.4,3.3c0,1.1-0.4,2-1.3,2.9c-0.8,0.8-1.8,1.4-3.1,1.7c1.6,0.3,2.8,0.9,3.7,1.9
				c0.8,0.9,1.2,1.9,1.2,3.1c0,1.6-0.5,2.9-1.5,3.9c-1.1,1.2-2.7,1.8-4.7,1.8c-1.6,0-3-0.4-4-1.2c-1-0.7-1.4-1.7-1.4-2.8
				c0-0.5,0.1-0.9,0.4-1.2c0.2-0.2,0.5-0.3,0.9-0.3c0.3,0,0.6,0.1,0.8,0.3c0.3,0.2,0.4,0.6,0.4,1l-0.1,0.5c-0.1,0.9,0,1.6,0.2,2
				c0.4,0.7,1.3,1.1,2.7,1.1c1.4,0,2.5-0.5,3.3-1.5c0.7-0.9,1.1-2,1.1-3.5c0-1.4-0.4-2.5-1.3-3.4c-0.9-0.8-2.1-1.3-3.6-1.3l0,0
				C245.2,148,244.9,148,244.7,148z"/>
		</g>
		<g>
			<path style="stroke:#000000;stroke-width:0.1;stroke-linecap:round;stroke-linejoin:round;stroke-miterlimit:10;" d="
				M230.4,204.2c0.9,0,1.5-0.1,1.9-0.2c0.4-0.2,0.6-0.5,0.6-1v-3h-7.4v-0.8l8.3-13.7h0.8v13.7h3.3v0.9h-3.3v3.1
				c0,0.4,0.2,0.8,0.6,0.9c0.4,0.1,1,0.2,1.8,0.2v0.6h-6.6V204.2z M226.4,199.1h6.5v-10.9L226.4,199.1z"/>
		</g>
		<g>
			<path style="stroke:#000000;stroke-width:0.1;stroke-linecap:round;stroke-linejoin:round;stroke-miterlimit:10;" d="
				M195.2,220.2l-0.5,7.1c0.6-0.6,1.2-1.1,1.9-1.4c0.7-0.3,1.5-0.4,2.3-0.4c1.8,0,3.2,0.7,4.3,2c1,1.2,1.5,2.6,1.5,4.3
				c0,1.7-0.5,3.1-1.5,4.3c-1.1,1.3-2.5,2-4.3,2c-1.7,0-3.1-0.4-4.2-1.2c-1-0.8-1.6-1.8-1.6-3c0-0.4,0.1-0.7,0.4-0.9
				c0.2-0.2,0.5-0.3,0.8-0.3s0.6,0.1,0.9,0.3c0.3,0.2,0.4,0.5,0.4,0.9l-0.1,0.8c-0.1,0.9,0,1.5,0.3,1.8c0.4,0.6,1.4,0.8,2.8,0.8
				c1.3,0,2.4-0.6,3.2-1.7c0.7-1,1.1-2.3,1.1-3.8s-0.4-2.8-1.1-3.9c-0.8-1.2-1.8-1.7-3.2-1.7c-0.8,0-1.6,0.3-2.5,0.8
				c-0.7,0.5-1.3,1-1.7,1.7l-0.6-0.3l0.6-9.7h9.3l-0.4,1.5h-4.3H195.2z"/>
		</g>
		<g>
			<path style="stroke:#000000;stroke-width:0.1;stroke-linecap:round;stroke-linejoin:round;stroke-miterlimit:10;" d="
				M148.7,241.5c1-0.6,1.9-1,2.9-1c1.3,0,2.4,0.5,3.3,1.6c1,1.1,1.4,2.7,1.4,4.6c0,2-0.6,3.6-1.9,4.8c-1.1,1-2.4,1.6-3.8,1.6
				c-1.7,0-3.1-0.7-4.2-2.1c-1.1-1.6-1.7-3.8-1.7-6.8c0-3.2,0.6-5.8,1.9-7.8c1.3-2.1,3-3.1,5.2-3.1c1.2,0,2.2,0.3,3,0.9
				c0.7,0.5,1,1.1,1,1.8c0,0.4-0.1,0.8-0.3,1.1c-0.2,0.3-0.5,0.4-0.9,0.4c-0.4,0-0.7-0.1-0.9-0.4c-0.2-0.3-0.4-0.6-0.4-1.1
				c0-0.5-0.2-1-0.6-1.3c-0.4-0.3-0.9-0.5-1.6-0.5c-1.3,0-2.4,0.9-3.2,2.6c-0.9,1.8-1.4,4.2-1.4,7.1
				C147.1,242.8,147.9,242,148.7,241.5z M147.8,250.9c0.7,1,1.6,1.4,2.8,1.4c1.2,0,2.2-0.5,2.9-1.6c0.7-1,1.1-2.5,1.1-4.4
				c0-1.4-0.3-2.6-1-3.5c-0.7-0.9-1.5-1.4-2.6-1.4c-0.8,0-1.7,0.4-2.6,1.2c-0.8,0.7-1.4,1.5-1.9,2.4
				C146.5,247.7,147,249.7,147.8,250.9z"/>
		</g>
		<g>
			<path style="stroke:#000000;stroke-width:0.1;stroke-linecap:round;stroke-linejoin:round;stroke-miterlimit:10;" d="
				M109.3,221.3l-1.6,3c-1.5,2.8-2.6,5-3.2,6.5c-1,2.5-1.4,4.7-1.2,6.7c0,0.7-0.1,1.3-0.3,1.7c-0.2,0.4-0.5,0.6-0.8,0.6
				c-0.4,0-0.7-0.1-0.9-0.4c-0.3-0.3-0.4-0.8-0.3-1.4c0.1-1.7,0.7-3.8,1.8-6.1c0.6-1.4,1.9-3.8,3.8-7l1.6-2.8h-7
				c-0.6,0-1.2,0.4-1.8,1.3c-0.4,0.6-0.8,1.5-1.2,2.6l-0.5-0.1l1.3-5.3h10.5V221.3z"/>
		</g>
		<g>
			<path style="stroke:#000000;stroke-width:0.1;stroke-linecap:round;stroke-linejoin:round;stroke-miterlimit:10;" d="M72.8,189.5
				c0.9,0.8,1.4,1.9,1.4,3.2c0,1.1-0.3,2.1-1,2.9c-0.6,0.7-1.4,1.2-2.5,1.7c1.4,0.5,2.5,1.1,3.3,2c0.8,0.9,1.3,2.1,1.3,3.5
				c0,1.6-0.6,3-1.8,4c-1.1,1-2.5,1.5-4.1,1.5c-1.7,0-3-0.4-4-1.2c-1.1-0.9-1.7-2.1-1.7-3.7c0-1.1,0.3-2,0.8-2.7
				c0.7-1,1.8-1.8,3.5-2.7c-1.1-0.4-1.9-1.1-2.5-1.9c-0.6-0.8-1-1.8-1-2.8c0-1.2,0.4-2.3,1.2-3.3c1-1.1,2.2-1.6,3.7-1.6
				C70.8,188.4,71.9,188.7,72.8,189.5z M66.5,206.5c0.7,0.7,1.7,1,2.9,1c1.4,0,2.5-0.4,3.3-1.2c0.8-0.8,1.2-1.8,1.2-3.2
				c0-1.1-0.5-2.1-1.5-2.9c-0.8-0.6-2.2-1.3-4-2c-1.3,0.7-2.1,1.5-2.6,2.2c-0.4,0.7-0.6,1.6-0.6,2.9
				C65.3,204.7,65.7,205.8,66.5,206.5z M66.7,189.9c-0.8,0.7-1.1,1.6-1.1,2.8c0,1,0.4,1.8,1.2,2.6c0.7,0.6,1.7,1.2,3.2,1.7
				c1-0.5,1.7-1.1,2.1-1.7c0.5-0.7,0.8-1.6,0.8-2.6c0-1.1-0.3-2-1-2.7c-0.7-0.7-1.5-1-2.5-1C68.3,189,67.4,189.3,66.7,189.9z"/>
		</g>
		<g>
			<path style="stroke:#000000;stroke-width:0.1;stroke-linecap:round;stroke-linejoin:round;stroke-miterlimit:10;" d="M56.2,151
				c-0.9,0.6-1.9,1-2.9,1c-1.3,0-2.4-0.5-3.3-1.6c-0.9-1.1-1.4-2.6-1.4-4.5c0-2,0.6-3.6,1.9-4.8c1.1-1,2.4-1.5,3.8-1.5
				c1.7,0,3.1,0.7,4.2,2.1c1.1,1.6,1.7,3.8,1.7,6.8c0,3.2-0.7,5.8-1.9,7.8c-1.3,2.1-3,3.1-5.1,3.1c-1.2,0-2.2-0.3-3-0.9
				c-0.7-0.5-1-1.1-1-1.8c0-0.5,0.1-0.8,0.3-1.1c0.2-0.2,0.5-0.4,0.9-0.4c0.4,0,0.7,0.1,0.9,0.4c0.3,0.3,0.4,0.6,0.4,1.1
				c0,0.5,0.2,1,0.6,1.3c0.4,0.4,0.9,0.5,1.6,0.5c1.2,0,2.3-0.9,3.2-2.6c1-1.8,1.4-4.2,1.4-7C57.7,149.7,57,150.4,56.2,151z
				 M57.1,141.6c-0.7-0.9-1.6-1.4-2.8-1.4c-1.3,0-2.2,0.5-2.9,1.6c-0.7,1-1,2.5-1,4.4c0,1.4,0.3,2.6,1,3.5c0.7,0.9,1.5,1.4,2.6,1.4
				c0.8,0,1.6-0.4,2.5-1.2c0.8-0.7,1.4-1.5,1.9-2.4C58.4,144.8,58,142.8,57.1,141.6z"/>
		</g>
		<g>
			<path style="stroke:#000000;stroke-width:0.1;stroke-linecap:round;stroke-linejoin:round;stroke-miterlimit:10;" d="M61.6,111.6
				c1.4,0,2.3-0.1,2.9-0.4c0.6-0.3,0.9-0.7,0.9-1.4V96.6c0-0.5-0.2-0.9-0.5-1.1c-0.3-0.2-0.7-0.3-1.3-0.3h-2.4v-0.5
				c1.2-0.1,2.4-0.4,3.3-0.7c0.8-0.3,1.6-0.7,2.6-1.3v17.2c0,0.7,0.3,1.1,1,1.4c0.6,0.3,1.6,0.4,3,0.4v0.7h-9.5V111.6z"/>
			<path style="stroke:#000000;stroke-width:0.1;stroke-linecap:round;stroke-linejoin:round;stroke-miterlimit:10;" d="M82.2,96.1
				c1,1.9,1.5,4.1,1.5,6.8c0,2.7-0.5,4.9-1.5,6.8c-1.1,2.1-2.6,3.1-4.4,3.1c-1.9,0-3.3-1-4.4-3.1c-1-1.9-1.5-4.1-1.5-6.8
				c0-2.7,0.5-5,1.5-6.8c1.1-2,2.6-3.1,4.4-3.1C79.7,93,81.1,94.1,82.2,96.1z M74.8,96.6c-0.7,1.7-1.1,3.8-1.1,6.3
				c0,2.4,0.4,4.5,1.1,6.3c0.8,1.9,1.8,2.9,3,2.9c1.2,0,2.2-1,3-2.9c0.7-1.8,1.1-3.9,1.1-6.3s-0.4-4.5-1.1-6.3
				c-0.8-1.9-1.8-2.9-3-2.9C76.6,93.8,75.6,94.7,74.8,96.6z"/>
		</g>
		<g>
			<path style="stroke:#000000;stroke-width:0.1;stroke-linecap:round;stroke-linejoin:round;stroke-miterlimit:10;" d="M93.9,80.6
				c1.4,0,2.3-0.1,2.9-0.4c0.6-0.3,0.9-0.7,0.9-1.4V65.6c0-0.5-0.2-0.9-0.5-1.1c-0.3-0.2-0.7-0.3-1.3-0.3h-2.4v-0.5
				c1.2-0.1,2.4-0.4,3.3-0.7c0.8-0.3,1.6-0.7,2.6-1.3v17.2c0,0.7,0.3,1.1,1,1.4c0.6,0.3,1.6,0.4,3,0.4v0.7h-9.5V80.6z"/>
			<path style="stroke:#000000;stroke-width:0.1;stroke-linecap:round;stroke-linejoin:round;stroke-miterlimit:10;" d="M106.3,80.6
				c1.4,0,2.3-0.1,2.9-0.4c0.6-0.3,0.9-0.7,0.9-1.4V65.6c0-0.5-0.2-0.9-0.5-1.1c-0.3-0.2-0.7-0.3-1.3-0.3h-2.4v-0.5
				c1.2-0.1,2.4-0.4,3.3-0.7c0.8-0.3,1.6-0.7,2.6-1.3v17.2c0,0.7,0.3,1.1,1,1.4c0.6,0.3,1.6,0.4,3,0.4v0.7h-9.5V80.6z"/>
		</g>
	</g>
	<g>
		<path d="M388.9,132.7c0.7,0,1.2,0.1,1.6,0.4s0.6,0.8,0.6,1.4v27.6c0,0.6-0.2,1.1-0.7,1.4c-0.4,0.3-0.9,0.4-1.5,0.4
			c-0.6,0-1.1-0.1-1.5-0.4c-0.4-0.3-0.7-0.8-0.7-1.4v-24.3l-6.5,4c-0.6,0.3-1.1,0.4-1.6,0.2c-0.5-0.2-0.9-0.5-1.2-1
			c-0.2-0.5-0.3-0.9-0.2-1.5c0.1-0.5,0.4-0.9,0.9-1.2l7.8-4.6c0.6-0.3,1.1-0.6,1.6-0.7C388,132.8,388.4,132.7,388.9,132.7z"/>
		<path d="M412.5,132.4c3.9,0,6.7,1.3,8.5,3.8c1.7,2.5,2.6,6.2,2.6,11v2.1c0,4.8-0.9,8.5-2.6,11c-1.8,2.5-4.6,3.8-8.5,3.8
			c-3.9,0-6.7-1.3-8.5-3.8c-1.8-2.5-2.6-6.2-2.6-11v-2.1c0-4.8,0.9-8.5,2.6-11C405.7,133.7,408.6,132.4,412.5,132.4z M412.5,136.5
			c-1.3,0-2.3,0.2-3.2,0.7c-0.9,0.4-1.6,1.1-2.1,2c-0.5,0.9-0.9,2.1-1.1,3.4c-0.2,1.4-0.3,3.1-0.3,5v1.4c0,1.9,0.1,3.6,0.3,5
			c0.2,1.4,0.6,2.5,1.1,3.4c0.5,0.9,1.2,1.6,2.1,2c0.9,0.4,1.9,0.7,3.2,0.7c1.3,0,2.3-0.2,3.2-0.7c0.9-0.4,1.6-1.1,2.1-2
			c0.5-0.9,0.9-2.1,1.1-3.4c0.2-1.4,0.3-3,0.3-5v-1.4c0-1.9-0.1-3.6-0.3-5c-0.2-1.4-0.6-2.5-1.1-3.4c-0.5-0.9-1.2-1.6-2.1-2
			C414.8,136.7,413.7,136.5,412.5,136.5z"/>
		<path d="M440,132.2c0.6,0,1.1,0.1,1.5,0.4c0.4,0.3,0.7,0.8,0.7,1.4v6.5c0,0.9,0.1,1.8,0.2,2.5c0.1,0.7,0.3,1.4,0.6,2.1
			c0.3,0.7,0.6,1.3,1.1,2c0.4,0.6,1,1.3,1.6,2c0.9,0.9,1.7,1.8,2.6,2.7c0.9,0.9,1.7,1.6,2.4,2.3c0.4,0.4,0.6,0.8,0.5,1.3
			c-0.1,0.5-0.3,1-0.6,1.3c-0.3,0.3-0.7,0.6-1.3,0.7c-0.5,0.1-1-0.1-1.4-0.4c-1.3-1.2-2.8-2.7-4.5-4.5c-0.6-0.6-1.2-1.2-1.6-1.7
			c-0.4-0.5-0.8-0.9-1-1.3c-0.3-0.4-0.5-0.7-0.6-1c-0.1-0.3-0.2-0.5-0.2-0.8h0c-0.1,0.3-0.2,0.5-0.3,0.8c-0.1,0.3-0.3,0.6-0.6,1
			c-0.3,0.4-0.6,0.8-1,1.3c-0.4,0.5-0.9,1.1-1.6,1.7c-0.8,0.9-1.7,1.7-2.5,2.5c-0.8,0.8-1.7,1.6-2.6,2.5c-0.5,0.4-1,0.5-1.5,0.4
			c-0.5-0.1-0.9-0.4-1.3-0.8c-0.3-0.4-0.5-0.9-0.6-1.3s0.2-0.9,0.6-1.3c1-0.9,1.9-1.8,2.9-2.7c0.9-0.9,1.8-1.8,2.7-2.7
			c0.6-0.7,1.2-1.4,1.6-2c0.4-0.6,0.8-1.3,1.1-2c0.3-0.7,0.5-1.4,0.6-2.1c0.1-0.7,0.2-1.6,0.2-2.5V134c0-0.6,0.2-1.1,0.7-1.4
			C438.9,132.3,439.4,132.2,440,132.2z M457.7,130.2c0.6,0,1.1,0.1,1.5,0.4c0.4,0.3,0.7,0.8,0.7,1.4v33.8c0,0.6-0.2,1.1-0.7,1.4
			c-0.4,0.3-1,0.4-1.5,0.4c-0.5,0-1-0.1-1.5-0.4c-0.4-0.3-0.7-0.8-0.7-1.4V132c0-0.6,0.2-1.1,0.7-1.4
			C456.7,130.3,457.2,130.2,457.7,130.2z"/>
		<path d="M492.1,132.7c0.7,0,1.2,0.1,1.6,0.4c0.4,0.3,0.6,0.8,0.6,1.4v27.6c0,0.6-0.2,1.1-0.7,1.4c-0.4,0.3-0.9,0.4-1.5,0.4
			c-0.6,0-1.1-0.1-1.5-0.4c-0.4-0.3-0.7-0.8-0.7-1.4v-24.3l-6.5,4c-0.6,0.3-1.1,0.4-1.6,0.2c-0.5-0.2-0.9-0.5-1.2-1
			c-0.2-0.5-0.3-0.9-0.2-1.5c0.1-0.5,0.4-0.9,0.9-1.2l7.8-4.6c0.6-0.3,1.1-0.6,1.6-0.7C491.2,132.8,491.7,132.7,492.1,132.7z"/>
		<path d="M515.5,132.4c1.7,0,3.1,0.2,4.3,0.6c1.2,0.4,2.2,1,3,1.7c0.8,0.7,1.4,1.5,1.8,2.5c0.4,1,0.6,2,0.6,3v0.4
			c0,1.6-0.3,3.2-1,4.6c-0.7,1.4-1.8,2.8-3.3,4.4l-10,10.5H525c0.5,0,0.9,0.2,1.2,0.5c0.2,0.4,0.4,0.8,0.4,1.3
			c0,0.5-0.1,0.9-0.4,1.3c-0.2,0.4-0.6,0.5-1.2,0.5h-16.7c-1.1,0-1.9-0.2-2.4-0.6c-0.5-0.4-0.7-1-0.7-1.8c0-0.4,0.1-0.7,0.3-1.1
			c0.2-0.3,0.5-0.8,1-1.3l10.6-11.2c0.8-0.8,1.4-1.5,1.9-2.1s0.9-1.2,1.2-1.8c0.3-0.5,0.5-1.1,0.6-1.6c0.1-0.5,0.2-1.1,0.2-1.6v-0.2
			c0-1.3-0.4-2.3-1.3-3s-2.2-1.1-3.9-1.1c-1.4,0-2.7,0.3-3.6,0.9c-1,0.6-1.9,1.5-2.6,2.6c-0.3,0.4-0.7,0.7-1.2,0.8s-0.9-0.1-1.4-0.4
			c-0.5-0.3-0.8-0.7-0.9-1.2c-0.1-0.5,0-1,0.3-1.5c0.9-1.4,2.2-2.7,3.7-3.6C511.3,132.9,513.2,132.4,515.5,132.4z"/>
		<path d="M566.5,151.3c0.2,0.4,0.4,0.8,0.4,1.3c0,0.5-0.1,0.9-0.4,1.3c-0.2,0.3-0.6,0.5-1.1,0.5h-14.1v5.7c0,0.6-0.2,1-0.6,1.3
			c-0.4,0.3-0.9,0.4-1.5,0.4c-0.6,0-1.1-0.1-1.5-0.4s-0.6-0.7-0.6-1.3v-5.7h-15c-0.5,0-0.9-0.2-1.2-0.5c-0.2-0.3-0.4-0.8-0.4-1.3
			c0-0.5,0.1-0.9,0.4-1.3c0.2-0.4,0.6-0.6,1.2-0.6h33.4C565.9,150.8,566.2,151,566.5,151.3z M537.5,157.9c0.6,0,1.1,0.1,1.5,0.4
			c0.4,0.3,0.6,0.8,0.6,1.4v5.6c0,0.6,0.3,0.9,0.9,0.9h20.5c0.5,0,0.9,0.2,1.2,0.5c0.2,0.4,0.4,0.8,0.4,1.3c0,0.5-0.1,0.9-0.4,1.3
			c-0.2,0.4-0.6,0.6-1.2,0.6h-22.5c-1.3,0-2.1-0.2-2.6-0.7c-0.5-0.5-0.7-1.3-0.7-2.6v-6.9c0-0.6,0.2-1.1,0.6-1.4
			C536.5,158,537,157.9,537.5,157.9z M537.5,131.1c0.5,0,1,0.1,1.5,0.4c0.4,0.3,0.6,0.7,0.6,1.3v3.2h18v-3.2c0-0.6,0.2-1.1,0.7-1.3
			c0.4-0.3,0.9-0.4,1.4-0.4c0.5,0,1,0.1,1.5,0.4c0.4,0.3,0.7,0.7,0.7,1.3v10.9c0,1.2-0.2,2.1-0.7,2.6c-0.5,0.5-1.4,0.7-2.6,0.7
			h-19.8c-1.3,0-2.1-0.2-2.6-0.7c-0.5-0.5-0.7-1.3-0.7-2.6v-10.9c0-0.6,0.2-1.1,0.7-1.3C536.5,131.2,537,131.1,537.5,131.1z
			 M539.7,142.8c0,0.4,0.2,0.6,0.7,0.6h16.6c0.5,0,0.7-0.2,0.7-0.6v-3.1h-18V142.8z"/>
	</g>
	<path style="fill:#FF7373;" d="M355.7,139l-6-6.3c-1.7-1.7-4.7-0.6-4.7,1.9v7.4c0,0.6-1.1,1.1-1.1,1.1h-19.8
		c-3.8,0-6.9,3.1-6.9,6.9c0,3.8,3.1,6.9,6.9,6.9h19.8c0.6,0,1.1,0.5,1.1,1.1v7.4c0,2.4,3,3.6,4.7,1.9l6-6.3l8.7-8.9
		c1.1-1.2,1.1-3,0-4.2L355.7,139z"/>
</g>
<g>
</g>
<g>
</g>
<g>
</g>
<g>
</g>
<g>
</g>
<g>
</g>
<g>
</g>
<g>
</g>
<g>
</g>
<g>
</g>
<g>
</g>
<g>
</g>
<g>
</g>
<g>
</g>
<g>
</g>
</svg>
