
<svg xmlns="http://www.w3.org/2000/svg" version="1.1" xmlns:xlink="http://www.w3.org/1999/xlink" preserveAspectRatio="none" x="0px" y="0px" width="1280px" height="720px" viewBox="0 0 1280 720">
<defs>
<g id="Layer0_0_FILL">
<path fill="#FFFFFF" stroke="none" d="
M 640.25 474.8
L 603.25 474.8 559.3 474.8 527.25 474.8 500.25 474.8 453.3 474.8 453.25 474.8 360.25 474.8 343.3 474.8 343.3 554.8 360.25 554.8 453.25 554.8 453.3 554.8 500.25 554.8 527.25 554.8 559.3 554.8 603.25 554.8 640.25 554.8 642.3 554.8 751.25 554.8 753.25 554.8 780.25 554.8 809.3 554.8 818.3 554.8 826.3 554.8 903.25 554.8 920.25 554.8 941.3 554.8 975.25 554.8 1009.65 554.8 1053.25 554.8 1060.25 554.8 1084.65 554.8 1220.35 554.8
Q 1239.15 554.8 1240.3 537
L 1240.3 474.8 1084.65 474.8 1060.25 474.8 1053.25 474.8 1009.65 474.8 975.25 474.8 920.25 474.8 903.25 474.8 826.3 474.8 818.3 474.8 809.3 474.8 780.25 474.8 753.25 474.8 751.25 474.8 640.25 474.8
M 220.25 474.8
L 198.25 474.8 74.25 474.8 40.3 474.8 40.3 537
Q 41.35 554.8 60.2 554.8
L 74.25 554.8 198.25 554.8 220.25 554.8 303.25 554.8 343.3 554.8 343.3 474.8 303.25 474.8 220.25 474.8
M 74.25 394.8
L 40.25 394.8 40.3 474.8 74.25 474.8 198.25 474.8 220.25 474.8 303.25 474.8 343.3 474.8 343.3 394.8 303.25 394.8 220.25 394.8 198.25 394.8 74.25 394.8
M 164.05 417.5
Q 164.05 416.95 164.6 416.95
L 168.15 416.95
Q 168.7 416.95 168.7 417.5
L 168.7 431.55 174.1 431.55
Q 174.3 431.55 174.5 431.7 174.65 431.85 174.65 432.05
L 174.65 434.85
Q 174.65 435.1 174.5 435.25 174.3 435.4 174.1 435.4
L 168.7 435.4 168.7 454.4
Q 168.7 454.95 168.15 454.95
L 164.6 454.95
Q 164.05 454.95 164.05 454.4
L 164.05 417.5
M 152.3 419.25
Q 152.45 419.4 152.45 419.65 152.45 422.1 152.3 424.2 152.15 426.3 151.8 428.25 152.2 430.1 153.05 432 153.85 433.85 155 435.6 156.1 437.35 157.4 438.8 158.7 440.3 160 441.3 160.65 441.8 160.05 442.55
L 158.4 444.6
Q 158.2 444.9 157.85 444.95 157.5 444.95 157.1 444.65 156.15 443.9 155.05 442.8 154 441.7 153 440.4 152.05 439.1 151.2 437.7 150.35 436.3 149.85 435.05 149.1 436.75 148.2 438.35 147.25 439.95 146.25 441.35 145.2 442.75 144.1 443.95 143 445.2 141.9 446.1 141.15 446.7 140.5 446.05
L 138.65 444.3
Q 138.05 443.7 138.75 443.05 141.35 440.7 143.2 437.8 145.05 434.95 146.15 431.65 146.65 430.2 147 428.8 147.3 427.35 147.5 425.9 147.7 424.45 147.8 422.85 147.9 421.3 147.85 419.5 147.85 419.3 148 419.1 148.2 418.9 148.4 418.9
L 151.95 419.05
Q 152.15 419.05 152.3 419.25
M 204.7 416.95
Q 205.3 416.95 205.3 417.5
L 205.3 426.55 210.65 426.55
Q 210.9 426.55 211.1 426.75 211.25 426.9 211.25 427.1
L 211.25 429.9
Q 211.25 430.1 211.1 430.25 210.9 430.4 210.65 430.4
L 205.3 430.4 205.3 438.15
Q 205.3 438.7 204.7 438.7
L 201.2 438.7
Q 201 438.7 200.8 438.5 200.65 438.35 200.65 438.1
L 200.65 417.5
Q 200.65 417.25 200.8 417.1 201 416.95 201.2 416.95
L 204.7 416.95
M 204.65 441.3
Q 205.25 441.95 205.25 443.5
L 205.25 454.3
Q 205.25 454.5 205.05 454.65 204.85 454.85 204.65 454.85
L 201.25 454.85
Q 201 454.85 200.8 454.65 200.6 454.5 200.6 454.3
L 200.6 445.2
Q 200.6 444.75 200.45 444.65 200.3 444.5 199.85 444.5
L 181.8 444.5
Q 181.6 444.5 181.4 444.4 181.25 444.25 181.25 444.05
L 181.25 441.2
Q 181.25 440.9 181.4 440.8 181.6 440.7 181.8 440.7
L 202.55 440.7
Q 204.05 440.7 204.65 441.3
M 191.45 418.75
Q 193.25 418.75 193.95 419.3 194.65 419.9 194.65 421.15 194.65 421.3 194.6 421.65 194.55 421.9 194.5 422.25 194.45 422.55 194.4 422.8 194.3 423.05 194.25 423.2 192.75 428.7 188.75 432.6 184.8 436.45 178.45 439.1 177.5 439.5 177.2 438.7
L 176.15 436.65
Q 176 436.3 176.05 436 176.1 435.7 176.55 435.5 181.45 433.35 184.85 430.35 188.2 427.35 189.3 423.7 189.5 423.05 189.5 422.8 189.5 422.55 188.75 422.55
L 177.9 422.55
Q 177.6 422.55 177.5 422.4 177.35 422.2 177.35 421.95
L 177.35 419.3
Q 177.35 418.75 177.9 418.75
L 191.45 418.75
M 243.4 440.9
Q 243.25 441.1 243.05 441.1
L 239.5 441.1
Q 239.25 441.1 239.1 440.9 238.95 440.75 238.95 440.5
L 238.95 437.7 234.2 437.7
Q 234.05 437.7 233.85 437.6 233.7 437.45 233.7 437.25
L 233.7 434.5
Q 233.7 434.3 233.85 434.2 234.05 434.05 234.2 434.05
L 238.95 434.05 238.95 431.35 234.2 431.35
Q 234.05 431.35 233.85 431.2 233.7 431.1 233.7 430.9
L 233.7 428.15
Q 233.7 427.95 233.85 427.8 234.05 427.7 234.2 427.7
L 238.95 427.7 238.95 417.45
Q 238.95 416.9 239.5 416.9
L 243.05 416.9
Q 243.25 416.9 243.4 417.1 243.6 417.25 243.6 417.45
L 243.6 440.5
Q 243.6 440.75 243.4 440.9
M 229.65 420.15
Q 229.65 420.4 229.5 420.6 229.3 420.85 229 420.85
L 218.8 420.85
Q 218.65 420.85 218.4 420.65 218.2 420.5 218.2 420.2
L 218.2 417.9
Q 218.2 417.65 218.4 417.5 218.65 417.3 218.8 417.3
L 229 417.3
Q 229.25 417.3 229.5 417.55 229.65 417.7 229.65 417.95
L 229.65 420.15
M 212.7 425.3
L 212.7 423.05
Q 212.7 422.9 212.9 422.65 213.15 422.45 213.35 422.45
L 234.2 422.45
Q 234.45 422.45 234.6 422.65 234.8 422.85 234.8 423.05
L 234.8 425.35
Q 234.8 425.6 234.6 425.8 234.45 425.95 234.2 425.95
L 213.3 425.95
Q 213.1 425.95 212.9 425.75 212.7 425.55 212.7 425.3
M 217.9 428.95
Q 219.05 428.15 220.6 427.7 222.15 427.25 223.95 427.25 225.75 427.25 227.35 427.75 228.9 428.2 230.05 429.05 231.2 429.95 231.85 431.1 232.5 432.3 232.5 433.8 232.5 435.3 231.85 436.5 231.2 437.7 230 438.6 228.85 439.45 227.3 439.95 225.75 440.4 223.9 440.4 222.1 440.4 220.55 439.9 219.05 439.4 217.9 438.5 216.75 437.6 216.1 436.35 215.45 435.1 215.45 433.6 215.45 432.1 216.1 430.95 216.75 429.8 217.9 428.95
M 222.9 443.35
Q 224.5 442.5 226.65 442 228.85 441.55 231.6 441.55 234.2 441.55 236.4 442 238.65 442.5 240.25 443.35 241.9 444.25 242.8 445.45 243.7 446.65 243.7 448.1 243.7 449.6 242.8 450.85 241.9 452.1 240.25 452.95 238.65 453.85 236.4 454.3 234.2 454.8 231.6 454.8 228.85 454.8 226.65 454.3 224.5 453.85 222.9 452.95 221.35 452.1 220.5 450.85 219.65 449.6 219.65 448.1 219.65 446.65 220.5 445.45 221.35 444.25 222.9 443.35
M 231.6 444.95
Q 230 444.95 228.7 445.15 227.4 445.35 226.45 445.8 225.45 446.2 224.95 446.8 224.4 447.45 224.4 448.25 224.4 449.05 224.95 449.6 225.45 450.15 226.45 450.55 227.45 450.95 228.75 451.15 230.05 451.3 231.6 451.3 233.1 451.3 234.45 451.15 235.75 450.95 236.75 450.55 237.75 450.15 238.35 449.6 238.95 449.05 238.95 448.25 238.95 447.45 238.35 446.8 237.75 446.2 236.75 445.8 235.75 445.35 234.45 445.15 233.1 444.95 231.6 444.95
M 219.75 433.8
Q 219.75 435.2 220.9 436.1 222.05 436.95 223.95 436.95 225.85 436.95 227 436.1 228.15 435.2 228.15 433.8 228.15 432.4 227 431.6 225.85 430.8 223.95 430.8 222.05 430.8 220.9 431.6 219.75 432.4 219.75 433.8
M 343.3 394.8
L 343.3 314.8 303.25 314.8 220.25 314.8 198.25 314.8 74.25 314.8 40.2 314.8 40.2 334.8 40.25 394.8 74.25 394.8 198.25 394.8 220.25 394.8 303.25 394.8 343.3 394.8
M 152.45 338.35
Q 152.45 341.8 151.85 344.55 152.5 346.1 153.5 347.45 154.55 348.8 155.75 349.95 156.9 351.05 158.15 351.9 159.35 352.75 160.45 353.25 161.1 353.5 160.65 354.2
L 159.25 356.4
Q 158.9 357.1 158.2 356.75 155.75 355.65 153.65 353.8 151.55 351.95 150.05 349.65 148.7 352.2 146.65 354.3 144.55 356.35 141.7 358.3 141.2 358.65 140.9 358.55 140.65 358.45 140.4 358.15
L 138.75 356.3
Q 138.35 355.85 138.45 355.55 138.55 355.3 138.9 355.05 141.15 353.5 142.85 351.9 144.5 350.3 145.6 348.35 146.7 346.35 147.25 343.9 147.85 341.45 147.85 338.25 147.85 337.95 148.05 337.75 148.25 337.55 148.4 337.55
L 151.95 337.7
Q 152.45 337.7 152.45 338.35
M 145.85 361.3
Q 146.5 360.6 148.05 360.6
L 165.65 360.6
Q 167.45 360.6 168.1 361.25 168.7 361.9 168.7 363.5
L 168.7 371.55
Q 168.7 373.05 168.05 373.7 167.4 374.3 165.85 374.3
L 148.25 374.3
Q 146.45 374.3 145.8 373.7 145.15 373.05 145.15 371.45
L 145.15 363.5
Q 145.15 361.95 145.85 361.3
M 168.15 336.95
Q 168.7 336.95 168.7 337.5
L 168.7 346.75 174.1 346.75
Q 174.3 346.75 174.5 346.85 174.65 347 174.65 347.2
L 174.65 350
Q 174.65 350.2 174.5 350.4 174.3 350.55 174.1 350.55
L 168.7 350.55 168.7 358.05
Q 168.7 358.6 168.15 358.6
L 164.6 358.6
Q 164.05 358.6 164.05 358.05
L 164.05 337.5
Q 164.05 336.95 164.6 336.95
L 168.15 336.95
M 204.7 336.95
Q 205.3 336.95 205.3 337.5
L 205.3 346.55 210.65 346.55
Q 210.9 346.55 211.1 346.75 211.25 346.9 211.25 347.1
L 211.25 349.9
Q 211.25 350.1 211.1 350.25 210.9 350.4 210.65 350.4
L 205.3 350.4 205.3 358.15
Q 205.3 358.7 204.7 358.7
L 201.2 358.7
Q 201 358.7 200.8 358.5 200.65 358.35 200.65 358.1
L 200.65 337.5
Q 200.65 337.25 200.8 337.1 201 336.95 201.2 336.95
L 204.7 336.95
M 177.9 342.55
Q 177.6 342.55 177.5 342.4 177.35 342.2 177.35 341.95
L 177.35 339.3
Q 177.35 338.75 177.9 338.75
L 191.45 338.75
Q 193.25 338.75 193.95 339.3 194.65 339.9 194.65 341.15 194.65 341.3 194.6 341.65 194.55 341.9 194.5 342.25 194.45 342.55 194.4 342.8 194.3 343.05 194.25 343.2 192.75 348.7 188.75 352.6 184.8 356.45 178.45 359.1 177.5 359.5 177.2 358.7
L 176.15 356.65
Q 176 356.3 176.05 356 176.1 355.7 176.55 355.5 181.45 353.35 184.85 350.35 188.2 347.35 189.3 343.7 189.5 343.05 189.5 342.8 189.5 342.55 188.75 342.55
L 177.9 342.55
M 200.45 364.65
Q 200.3 364.5 199.85 364.5
L 181.8 364.5
Q 181.6 364.5 181.4 364.4 181.25 364.25 181.25 364.05
L 181.25 361.2
Q 181.25 360.9 181.4 360.8 181.6 360.7 181.8 360.7
L 202.55 360.7
Q 204.05 360.7 204.65 361.3 205.25 361.95 205.25 363.5
L 205.25 374.3
Q 205.25 374.5 205.05 374.65 204.85 374.85 204.65 374.85
L 201.25 374.85
Q 201 374.85 200.8 374.65 200.6 374.5 200.6 374.3
L 200.6 365.2
Q 200.6 364.75 200.45 364.65
M 218.4 337.5
Q 218.65 337.3 218.8 337.3
L 229 337.3
Q 229.25 337.3 229.5 337.55 229.65 337.7 229.65 337.95
L 229.65 340.15
Q 229.65 340.4 229.5 340.6 229.3 340.85 229 340.85
L 218.8 340.85
Q 218.65 340.85 218.4 340.65 218.2 340.5 218.2 340.2
L 218.2 337.9
Q 218.2 337.65 218.4 337.5
M 213.3 345.95
Q 213.1 345.95 212.9 345.75 212.7 345.55 212.7 345.3
L 212.7 343.05
Q 212.7 342.9 212.9 342.65 213.15 342.45 213.35 342.45
L 234.2 342.45
Q 234.45 342.45 234.6 342.65 234.8 342.85 234.8 343.05
L 234.8 345.35
Q 234.8 345.6 234.6 345.8 234.45 345.95 234.2 345.95
L 213.3 345.95
M 238.95 337.45
Q 238.95 336.9 239.5 336.9
L 243.05 336.9
Q 243.25 336.9 243.4 337.1 243.6 337.25 243.6 337.45
L 243.6 360.5
Q 243.6 360.75 243.4 360.9 243.25 361.1 243.05 361.1
L 239.5 361.1
Q 239.25 361.1 239.1 360.9 238.95 360.75 238.95 360.5
L 238.95 357.7 234.2 357.7
Q 234.05 357.7 233.85 357.6 233.7 357.45 233.7 357.25
L 233.7 354.5
Q 233.7 354.3 233.85 354.2 234.05 354.05 234.2 354.05
L 238.95 354.05 238.95 351.35 234.2 351.35
Q 234.05 351.35 233.85 351.2 233.7 351.1 233.7 350.9
L 233.7 348.15
Q 233.7 347.95 233.85 347.8 234.05 347.7 234.2 347.7
L 238.95 347.7 238.95 337.45
M 230.05 349.05
Q 231.2 349.95 231.85 351.1 232.5 352.3 232.5 353.8 232.5 355.3 231.85 356.5 231.2 357.7 230 358.6 228.85 359.45 227.3 359.95 225.75 360.4 223.9 360.4 222.1 360.4 220.55 359.9 219.05 359.4 217.9 358.5 216.75 357.6 216.1 356.35 215.45 355.1 215.45 353.6 215.45 352.1 216.1 350.95 216.75 349.8 217.9 348.95 219.05 348.15 220.6 347.7 222.15 347.25 223.95 347.25 225.75 347.25 227.35 347.75 228.9 348.2 230.05 349.05
M 222.9 363.35
Q 224.5 362.5 226.65 362 228.85 361.55 231.6 361.55 234.2 361.55 236.4 362 238.65 362.5 240.25 363.35 241.9 364.25 242.8 365.45 243.7 366.65 243.7 368.1 243.7 369.6 242.8 370.85 241.9 372.1 240.25 372.95 238.65 373.85 236.4 374.3 234.2 374.8 231.6 374.8 228.85 374.8 226.65 374.3 224.5 373.85 222.9 372.95 221.35 372.1 220.5 370.85 219.65 369.6 219.65 368.1 219.65 366.65 220.5 365.45 221.35 364.25 222.9 363.35
M 226.45 365.8
Q 225.45 366.2 224.95 366.8 224.4 367.45 224.4 368.25 224.4 369.05 224.95 369.6 225.45 370.15 226.45 370.55 227.45 370.95 228.75 371.15 230.05 371.3 231.6 371.3 233.1 371.3 234.45 371.15 235.75 370.95 236.75 370.55 237.75 370.15 238.35 369.6 238.95 369.05 238.95 368.25 238.95 367.45 238.35 366.8 237.75 366.2 236.75 365.8 235.75 365.35 234.45 365.15 233.1 364.95 231.6 364.95 230 364.95 228.7 365.15 227.4 365.35 226.45 365.8
M 227 351.6
Q 225.85 350.8 223.95 350.8 222.05 350.8 220.9 351.6 219.75 352.4 219.75 353.8 219.75 355.2 220.9 356.1 222.05 356.95 223.95 356.95 225.85 356.95 227 356.1 228.15 355.2 228.15 353.8 228.15 352.4 227 351.6
M 149.85 370.55
Q 149.95 370.65 150.3 370.65
L 163.65 370.65
Q 163.95 370.65 164.05 370.55 164.15 370.5 164.15 370.1
L 164.15 364.85
Q 164.15 364.5 164.05 364.4 163.95 364.3 163.65 364.3
L 150.3 364.3
Q 149.95 364.3 149.85 364.35 149.75 364.45 149.75 364.75
L 149.75 370.1
Q 149.75 370.5 149.85 370.55
M 360.25 394.8
L 343.3 394.8 343.3 474.8 360.25 474.8 453.25 474.8 453.3 474.8 500.25 474.8 527.25 474.8 559.3 474.8 603.25 474.8 640.25 474.8 751.25 474.8 753.25 474.8 780.25 474.8 809.3 474.8 818.3 474.8 826.3 474.8 903.25 474.8 920.25 474.8 975.25 474.8 1009.65 474.8 1053.25 474.8 1060.25 474.8 1084.65 474.8 1240.3 474.8 1240.35 394.8 1084.65 394.8 1060.25 394.8 1053.25 394.8 1009.65 394.8 975.25 394.8 920.25 394.8 903.25 394.8 826.3 394.8 818.3 394.8 809.3 394.8 780.25 394.8 753.25 394.8 751.25 394.8 640.25 394.8 603.25 394.8 559.3 394.8 527.25 394.8 500.25 394.8 453.3 394.8 453.25 394.8 360.25 394.8
M 360.25 314.8
L 343.3 314.8 343.3 394.8 360.25 394.8 453.25 394.8 453.3 394.8 500.25 394.8 527.25 394.8 559.3 394.8 603.25 394.8 640.25 394.8 751.25 394.8 753.25 394.8 780.25 394.8 809.3 394.8 818.3 394.8 826.3 394.8 903.25 394.8 920.25 394.8 975.25 394.8 1009.65 394.8 1053.25 394.8 1060.25 394.8 1084.65 394.8 1240.35 394.8 1240.35 334.8 1240.35 314.8 1084.65 314.8 1060.25 314.8 1053.25 314.8 1009.65 314.8 975.25 314.8 920.25 314.8 903.25 314.8 826.3 314.8 818.3 314.8 809.3 314.8 780.25 314.8 753.25 314.8 751.25 314.8 640.25 314.8 603.25 314.8 559.3 314.8 527.25 314.8 500.25 314.8 453.3 314.8 453.25 314.8 360.25 314.8 Z"/>

<path fill="#1E1E1E" stroke="none" d="
M 226.65 442
Q 224.5 442.5 222.9 443.35 221.35 444.25 220.5 445.45 219.65 446.65 219.65 448.1 219.65 449.6 220.5 450.85 221.35 452.1 222.9 452.95 224.5 453.85 226.65 454.3 228.85 454.8 231.6 454.8 234.2 454.8 236.4 454.3 238.65 453.85 240.25 452.95 241.9 452.1 242.8 450.85 243.7 449.6 243.7 448.1 243.7 446.65 242.8 445.45 241.9 444.25 240.25 443.35 238.65 442.5 236.4 442 234.2 441.55 231.6 441.55 228.85 441.55 226.65 442
M 228.7 445.15
Q 230 444.95 231.6 444.95 233.1 444.95 234.45 445.15 235.75 445.35 236.75 445.8 237.75 446.2 238.35 446.8 238.95 447.45 238.95 448.25 238.95 449.05 238.35 449.6 237.75 450.15 236.75 450.55 235.75 450.95 234.45 451.15 233.1 451.3 231.6 451.3 230.05 451.3 228.75 451.15 227.45 450.95 226.45 450.55 225.45 450.15 224.95 449.6 224.4 449.05 224.4 448.25 224.4 447.45 224.95 446.8 225.45 446.2 226.45 445.8 227.4 445.35 228.7 445.15
M 220.6 427.7
Q 219.05 428.15 217.9 428.95 216.75 429.8 216.1 430.95 215.45 432.1 215.45 433.6 215.45 435.1 216.1 436.35 216.75 437.6 217.9 438.5 219.05 439.4 220.55 439.9 222.1 440.4 223.9 440.4 225.75 440.4 227.3 439.95 228.85 439.45 230 438.6 231.2 437.7 231.85 436.5 232.5 435.3 232.5 433.8 232.5 432.3 231.85 431.1 231.2 429.95 230.05 429.05 228.9 428.2 227.35 427.75 225.75 427.25 223.95 427.25 222.15 427.25 220.6 427.7
M 220.9 436.1
Q 219.75 435.2 219.75 433.8 219.75 432.4 220.9 431.6 222.05 430.8 223.95 430.8 225.85 430.8 227 431.6 228.15 432.4 228.15 433.8 228.15 435.2 227 436.1 225.85 436.95 223.95 436.95 222.05 436.95 220.9 436.1
M 212.7 423.05
L 212.7 425.3
Q 212.7 425.55 212.9 425.75 213.1 425.95 213.3 425.95
L 234.2 425.95
Q 234.45 425.95 234.6 425.8 234.8 425.6 234.8 425.35
L 234.8 423.05
Q 234.8 422.85 234.6 422.65 234.45 422.45 234.2 422.45
L 213.35 422.45
Q 213.15 422.45 212.9 422.65 212.7 422.9 212.7 423.05
M 229.5 420.6
Q 229.65 420.4 229.65 420.15
L 229.65 417.95
Q 229.65 417.7 229.5 417.55 229.25 417.3 229 417.3
L 218.8 417.3
Q 218.65 417.3 218.4 417.5 218.2 417.65 218.2 417.9
L 218.2 420.2
Q 218.2 420.5 218.4 420.65 218.65 420.85 218.8 420.85
L 229 420.85
Q 229.3 420.85 229.5 420.6
M 243.05 441.1
Q 243.25 441.1 243.4 440.9 243.6 440.75 243.6 440.5
L 243.6 417.45
Q 243.6 417.25 243.4 417.1 243.25 416.9 243.05 416.9
L 239.5 416.9
Q 238.95 416.9 238.95 417.45
L 238.95 427.7 234.2 427.7
Q 234.05 427.7 233.85 427.8 233.7 427.95 233.7 428.15
L 233.7 430.9
Q 233.7 431.1 233.85 431.2 234.05 431.35 234.2 431.35
L 238.95 431.35 238.95 434.05 234.2 434.05
Q 234.05 434.05 233.85 434.2 233.7 434.3 233.7 434.5
L 233.7 437.25
Q 233.7 437.45 233.85 437.6 234.05 437.7 234.2 437.7
L 238.95 437.7 238.95 440.5
Q 238.95 440.75 239.1 440.9 239.25 441.1 239.5 441.1
L 243.05 441.1
M 193.95 419.3
Q 193.25 418.75 191.45 418.75
L 177.9 418.75
Q 177.35 418.75 177.35 419.3
L 177.35 421.95
Q 177.35 422.2 177.5 422.4 177.6 422.55 177.9 422.55
L 188.75 422.55
Q 189.5 422.55 189.5 422.8 189.5 423.05 189.3 423.7 188.2 427.35 184.85 430.35 181.45 433.35 176.55 435.5 176.1 435.7 176.05 436 176 436.3 176.15 436.65
L 177.2 438.7
Q 177.5 439.5 178.45 439.1 184.8 436.45 188.75 432.6 192.75 428.7 194.25 423.2 194.3 423.05 194.4 422.8 194.45 422.55 194.5 422.25 194.55 421.9 194.6 421.65 194.65 421.3 194.65 421.15 194.65 419.9 193.95 419.3
M 205.25 443.5
Q 205.25 441.95 204.65 441.3 204.05 440.7 202.55 440.7
L 181.8 440.7
Q 181.6 440.7 181.4 440.8 181.25 440.9 181.25 441.2
L 181.25 444.05
Q 181.25 444.25 181.4 444.4 181.6 444.5 181.8 444.5
L 199.85 444.5
Q 200.3 444.5 200.45 444.65 200.6 444.75 200.6 445.2
L 200.6 454.3
Q 200.6 454.5 200.8 454.65 201 454.85 201.25 454.85
L 204.65 454.85
Q 204.85 454.85 205.05 454.65 205.25 454.5 205.25 454.3
L 205.25 443.5
M 205.3 417.5
Q 205.3 416.95 204.7 416.95
L 201.2 416.95
Q 201 416.95 200.8 417.1 200.65 417.25 200.65 417.5
L 200.65 438.1
Q 200.65 438.35 200.8 438.5 201 438.7 201.2 438.7
L 204.7 438.7
Q 205.3 438.7 205.3 438.15
L 205.3 430.4 210.65 430.4
Q 210.9 430.4 211.1 430.25 211.25 430.1 211.25 429.9
L 211.25 427.1
Q 211.25 426.9 211.1 426.75 210.9 426.55 210.65 426.55
L 205.3 426.55 205.3 417.5
M 152.45 419.65
Q 152.45 419.4 152.3 419.25 152.15 419.05 151.95 419.05
L 148.4 418.9
Q 148.2 418.9 148 419.1 147.85 419.3 147.85 419.5 147.9 421.3 147.8 422.85 147.7 424.45 147.5 425.9 147.3 427.35 147 428.8 146.65 430.2 146.15 431.65 145.05 434.95 143.2 437.8 141.35 440.7 138.75 443.05 138.05 443.7 138.65 444.3
L 140.5 446.05
Q 141.15 446.7 141.9 446.1 143 445.2 144.1 443.95 145.2 442.75 146.25 441.35 147.25 439.95 148.2 438.35 149.1 436.75 149.85 435.05 150.35 436.3 151.2 437.7 152.05 439.1 153 440.4 154 441.7 155.05 442.8 156.15 443.9 157.1 444.65 157.5 444.95 157.85 444.95 158.2 444.9 158.4 444.6
L 160.05 442.55
Q 160.65 441.8 160 441.3 158.7 440.3 157.4 438.8 156.1 437.35 155 435.6 153.85 433.85 153.05 432 152.2 430.1 151.8 428.25 152.15 426.3 152.3 424.2 152.45 422.1 152.45 419.65
M 164.6 416.95
Q 164.05 416.95 164.05 417.5
L 164.05 454.4
Q 164.05 454.95 164.6 454.95
L 168.15 454.95
Q 168.7 454.95 168.7 454.4
L 168.7 435.4 174.1 435.4
Q 174.3 435.4 174.5 435.25 174.65 435.1 174.65 434.85
L 174.65 432.05
Q 174.65 431.85 174.5 431.7 174.3 431.55 174.1 431.55
L 168.7 431.55 168.7 417.5
Q 168.7 416.95 168.15 416.95
L 164.6 416.95
M 220.5 285.45
Q 219.65 286.65 219.65 288.1 219.65 289.6 220.5 290.85 221.35 292.1 222.9 292.95 224.5 293.85 226.65 294.3 228.85 294.8 231.6 294.8 234.2 294.8 236.4 294.3 238.65 293.85 240.25 292.95 241.9 292.1 242.8 290.85 243.7 289.6 243.7 288.1 243.7 286.65 242.8 285.45 241.9 284.25 240.25 283.35 238.65 282.5 236.4 282 234.2 281.55 231.6 281.55 228.85 281.55 226.65 282 224.5 282.5 222.9 283.35 221.35 284.25 220.5 285.45
M 228.7 285.15
Q 230 284.95 231.6 284.95 233.1 284.95 234.45 285.15 235.75 285.35 236.75 285.8 237.75 286.2 238.35 286.8 238.95 287.45 238.95 288.25 238.95 289.05 238.35 289.6 237.75 290.15 236.75 290.55 235.75 290.95 234.45 291.15 233.1 291.3 231.6 291.3 230.05 291.3 228.75 291.15 227.45 290.95 226.45 290.55 225.45 290.15 224.95 289.6 224.4 289.05 224.4 288.25 224.4 287.45 224.95 286.8 225.45 286.2 226.45 285.8 227.4 285.35 228.7 285.15
M 234.8 265.35
L 234.8 263.05
Q 234.8 262.85 234.6 262.65 234.45 262.45 234.2 262.45
L 213.35 262.45
Q 213.15 262.45 212.9 262.65 212.7 262.9 212.7 263.05
L 212.7 265.3
Q 212.7 265.55 212.9 265.75 213.1 265.95 213.3 265.95
L 234.2 265.95
Q 234.45 265.95 234.6 265.8 234.8 265.6 234.8 265.35
M 231.85 271.1
Q 231.2 269.95 230.05 269.05 228.9 268.2 227.35 267.75 225.75 267.25 223.95 267.25 222.15 267.25 220.6 267.7 219.05 268.15 217.9 268.95 216.75 269.8 216.1 270.95 215.45 272.1 215.45 273.6 215.45 275.1 216.1 276.35 216.75 277.6 217.9 278.5 219.05 279.4 220.55 279.9 222.1 280.4 223.9 280.4 225.75 280.4 227.3 279.95 228.85 279.45 230 278.6 231.2 277.7 231.85 276.5 232.5 275.3 232.5 273.8 232.5 272.3 231.85 271.1
M 223.95 270.8
Q 225.85 270.8 227 271.6 228.15 272.4 228.15 273.8 228.15 275.2 227 276.1 225.85 276.95 223.95 276.95 222.05 276.95 220.9 276.1 219.75 275.2 219.75 273.8 219.75 272.4 220.9 271.6 222.05 270.8 223.95 270.8
M 229.5 257.55
Q 229.25 257.3 229 257.3
L 218.8 257.3
Q 218.65 257.3 218.4 257.5 218.2 257.65 218.2 257.9
L 218.2 260.2
Q 218.2 260.5 218.4 260.65 218.65 260.85 218.8 260.85
L 229 260.85
Q 229.3 260.85 229.5 260.6 229.65 260.4 229.65 260.15
L 229.65 257.95
Q 229.65 257.7 229.5 257.55
M 243.05 281.1
Q 243.25 281.1 243.4 280.9 243.6 280.75 243.6 280.5
L 243.6 257.45
Q 243.6 257.25 243.4 257.1 243.25 256.9 243.05 256.9
L 239.5 256.9
Q 238.95 256.9 238.95 257.45
L 238.95 267.7 234.2 267.7
Q 234.05 267.7 233.85 267.8 233.7 267.95 233.7 268.15
L 233.7 270.9
Q 233.7 271.1 233.85 271.2 234.05 271.35 234.2 271.35
L 238.95 271.35 238.95 274.05 234.2 274.05
Q 234.05 274.05 233.85 274.2 233.7 274.3 233.7 274.5
L 233.7 277.25
Q 233.7 277.45 233.85 277.6 234.05 277.7 234.2 277.7
L 238.95 277.7 238.95 280.5
Q 238.95 280.75 239.1 280.9 239.25 281.1 239.5 281.1
L 243.05 281.1
M 181.25 281.2
L 181.25 284.05
Q 181.25 284.25 181.4 284.4 181.6 284.5 181.8 284.5
L 199.85 284.5
Q 200.3 284.5 200.45 284.65 200.6 284.75 200.6 285.2
L 200.6 294.3
Q 200.6 294.5 200.8 294.65 201 294.85 201.25 294.85
L 204.65 294.85
Q 204.85 294.85 205.05 294.65 205.25 294.5 205.25 294.3
L 205.25 283.5
Q 205.25 281.95 204.65 281.3 204.05 280.7 202.55 280.7
L 181.8 280.7
Q 181.6 280.7 181.4 280.8 181.25 280.9 181.25 281.2
M 188.75 262.55
Q 189.5 262.55 189.5 262.8 189.5 263.05 189.3 263.7 188.2 267.35 184.85 270.35 181.45 273.35 176.55 275.5 176.1 275.7 176.05 276 176 276.3 176.15 276.65
L 177.2 278.7
Q 177.5 279.5 178.45 279.1 184.8 276.45 188.75 272.6 192.75 268.7 194.25 263.2 194.3 263.05 194.4 262.8 194.45 262.55 194.5 262.25 194.55 261.9 194.6 261.65 194.65 261.3 194.65 261.15 194.65 259.9 193.95 259.3 193.25 258.75 191.45 258.75
L 177.9 258.75
Q 177.35 258.75 177.35 259.3
L 177.35 261.95
Q 177.35 262.2 177.5 262.4 177.6 262.55 177.9 262.55
L 188.75 262.55
M 201.2 256.95
Q 201 256.95 200.8 257.1 200.65 257.25 200.65 257.5
L 200.65 278.1
Q 200.65 278.35 200.8 278.5 201 278.7 201.2 278.7
L 204.7 278.7
Q 205.3 278.7 205.3 278.15
L 205.3 270.4 210.65 270.4
Q 210.9 270.4 211.1 270.25 211.25 270.1 211.25 269.9
L 211.25 267.1
Q 211.25 266.9 211.1 266.75 210.9 266.55 210.65 266.55
L 205.3 266.55 205.3 257.5
Q 205.3 256.95 204.7 256.95
L 201.2 256.95
M 174.65 272.1
Q 174.65 271.9 174.45 271.75 174.25 271.6 174.05 271.6
L 168.65 271.6 168.65 257.5
Q 168.65 256.95 168.1 256.95
L 164.55 256.95
Q 164.05 256.95 164.05 257.5
L 164.05 294.4
Q 164.05 294.95 164.55 294.95
L 168.1 294.95
Q 168.65 294.95 168.65 294.4
L 168.65 275.45 174.05 275.45
Q 174.25 275.45 174.45 275.3 174.65 275.1 174.65 274.9
L 174.65 272.1
M 145.35 264.5
Q 145.35 263.8 146.05 263.8
L 157.95 263.8
Q 158.5 263.8 158.5 263.3
L 158.5 260.5
Q 158.5 259.95 157.95 259.95
L 143.4 259.95
Q 141.9 259.95 141.35 260.5 140.75 261.1 140.75 262.5
L 140.75 281.45
Q 140.75 282.9 141.45 283.45 142.15 284.05 143.65 284.15 145.3 284.25 147.7 284.15 150.1 284.1 152.65 283.85 155.2 283.65 157.55 283.3 159.95 282.9 161.55 282.45 161.75 282.35 161.95 282.2 162.1 282.1 162.05 281.65
L 161.6 279.3
Q 161.45 278.7 160.85 278.85 159.05 279.15 157.1 279.45 155.05 279.7 153.15 279.9 151.25 280.1 149.5 280.15 147.8 280.25 146.55 280.1 145.8 280.05 145.55 279.85 145.35 279.65 145.35 279.05
L 145.35 264.5
M 226.65 362
Q 224.5 362.5 222.9 363.35 221.35 364.25 220.5 365.45 219.65 366.65 219.65 368.1 219.65 369.6 220.5 370.85 221.35 372.1 222.9 372.95 224.5 373.85 226.65 374.3 228.85 374.8 231.6 374.8 234.2 374.8 236.4 374.3 238.65 373.85 240.25 372.95 241.9 372.1 242.8 370.85 243.7 369.6 243.7 368.1 243.7 366.65 242.8 365.45 241.9 364.25 240.25 363.35 238.65 362.5 236.4 362 234.2 361.55 231.6 361.55 228.85 361.55 226.65 362
M 224.95 366.8
Q 225.45 366.2 226.45 365.8 227.4 365.35 228.7 365.15 230 364.95 231.6 364.95 233.1 364.95 234.45 365.15 235.75 365.35 236.75 365.8 237.75 366.2 238.35 366.8 238.95 367.45 238.95 368.25 238.95 369.05 238.35 369.6 237.75 370.15 236.75 370.55 235.75 370.95 234.45 371.15 233.1 371.3 231.6 371.3 230.05 371.3 228.75 371.15 227.45 370.95 226.45 370.55 225.45 370.15 224.95 369.6 224.4 369.05 224.4 368.25 224.4 367.45 224.95 366.8
M 231.85 351.1
Q 231.2 349.95 230.05 349.05 228.9 348.2 227.35 347.75 225.75 347.25 223.95 347.25 222.15 347.25 220.6 347.7 219.05 348.15 217.9 348.95 216.75 349.8 216.1 350.95 215.45 352.1 215.45 353.6 215.45 355.1 216.1 356.35 216.75 357.6 217.9 358.5 219.05 359.4 220.55 359.9 222.1 360.4 223.9 360.4 225.75 360.4 227.3 359.95 228.85 359.45 230 358.6 231.2 357.7 231.85 356.5 232.5 355.3 232.5 353.8 232.5 352.3 231.85 351.1
M 223.95 350.8
Q 225.85 350.8 227 351.6 228.15 352.4 228.15 353.8 228.15 355.2 227 356.1 225.85 356.95 223.95 356.95 222.05 356.95 220.9 356.1 219.75 355.2 219.75 353.8 219.75 352.4 220.9 351.6 222.05 350.8 223.95 350.8
M 239.5 336.9
Q 238.95 336.9 238.95 337.45
L 238.95 347.7 234.2 347.7
Q 234.05 347.7 233.85 347.8 233.7 347.95 233.7 348.15
L 233.7 350.9
Q 233.7 351.1 233.85 351.2 234.05 351.35 234.2 351.35
L 238.95 351.35 238.95 354.05 234.2 354.05
Q 234.05 354.05 233.85 354.2 233.7 354.3 233.7 354.5
L 233.7 357.25
Q 233.7 357.45 233.85 357.6 234.05 357.7 234.2 357.7
L 238.95 357.7 238.95 360.5
Q 238.95 360.75 239.1 360.9 239.25 361.1 239.5 361.1
L 243.05 361.1
Q 243.25 361.1 243.4 360.9 243.6 360.75 243.6 360.5
L 243.6 337.45
Q 243.6 337.25 243.4 337.1 243.25 336.9 243.05 336.9
L 239.5 336.9
M 212.9 345.75
Q 213.1 345.95 213.3 345.95
L 234.2 345.95
Q 234.45 345.95 234.6 345.8 234.8 345.6 234.8 345.35
L 234.8 343.05
Q 234.8 342.85 234.6 342.65 234.45 342.45 234.2 342.45
L 213.35 342.45
Q 213.15 342.45 212.9 342.65 212.7 342.9 212.7 343.05
L 212.7 345.3
Q 212.7 345.55 212.9 345.75
M 218.8 337.3
Q 218.65 337.3 218.4 337.5 218.2 337.65 218.2 337.9
L 218.2 340.2
Q 218.2 340.5 218.4 340.65 218.65 340.85 218.8 340.85
L 229 340.85
Q 229.3 340.85 229.5 340.6 229.65 340.4 229.65 340.15
L 229.65 337.95
Q 229.65 337.7 229.5 337.55 229.25 337.3 229 337.3
L 218.8 337.3
M 199.85 364.5
Q 200.3 364.5 200.45 364.65 200.6 364.75 200.6 365.2
L 200.6 374.3
Q 200.6 374.5 200.8 374.65 201 374.85 201.25 374.85
L 204.65 374.85
Q 204.85 374.85 205.05 374.65 205.25 374.5 205.25 374.3
L 205.25 363.5
Q 205.25 361.95 204.65 361.3 204.05 360.7 202.55 360.7
L 181.8 360.7
Q 181.6 360.7 181.4 360.8 181.25 360.9 181.25 361.2
L 181.25 364.05
Q 181.25 364.25 181.4 364.4 181.6 364.5 181.8 364.5
L 199.85 364.5
M 177.5 342.4
Q 177.6 342.55 177.9 342.55
L 188.75 342.55
Q 189.5 342.55 189.5 342.8 189.5 343.05 189.3 343.7 188.2 347.35 184.85 350.35 181.45 353.35 176.55 355.5 176.1 355.7 176.05 356 176 356.3 176.15 356.65
L 177.2 358.7
Q 177.5 359.5 178.45 359.1 184.8 356.45 188.75 352.6 192.75 348.7 194.25 343.2 194.3 343.05 194.4 342.8 194.45 342.55 194.5 342.25 194.55 341.9 194.6 341.65 194.65 341.3 194.65 341.15 194.65 339.9 193.95 339.3 193.25 338.75 191.45 338.75
L 177.9 338.75
Q 177.35 338.75 177.35 339.3
L 177.35 341.95
Q 177.35 342.2 177.5 342.4
M 205.3 337.5
Q 205.3 336.95 204.7 336.95
L 201.2 336.95
Q 201 336.95 200.8 337.1 200.65 337.25 200.65 337.5
L 200.65 358.1
Q 200.65 358.35 200.8 358.5 201 358.7 201.2 358.7
L 204.7 358.7
Q 205.3 358.7 205.3 358.15
L 205.3 350.4 210.65 350.4
Q 210.9 350.4 211.1 350.25 211.25 350.1 211.25 349.9
L 211.25 347.1
Q 211.25 346.9 211.1 346.75 210.9 346.55 210.65 346.55
L 205.3 346.55 205.3 337.5
M 168.7 337.5
Q 168.7 336.95 168.15 336.95
L 164.6 336.95
Q 164.05 336.95 164.05 337.5
L 164.05 358.05
Q 164.05 358.6 164.6 358.6
L 168.15 358.6
Q 168.7 358.6 168.7 358.05
L 168.7 350.55 174.1 350.55
Q 174.3 350.55 174.5 350.4 174.65 350.2 174.65 350
L 174.65 347.2
Q 174.65 347 174.5 346.85 174.3 346.75 174.1 346.75
L 168.7 346.75 168.7 337.5
M 148.05 360.6
Q 146.5 360.6 145.85 361.3 145.15 361.95 145.15 363.5
L 145.15 371.45
Q 145.15 373.05 145.8 373.7 146.45 374.3 148.25 374.3
L 165.85 374.3
Q 167.4 374.3 168.05 373.7 168.7 373.05 168.7 371.55
L 168.7 363.5
Q 168.7 361.9 168.1 361.25 167.45 360.6 165.65 360.6
L 148.05 360.6
M 150.3 370.65
Q 149.95 370.65 149.85 370.55 149.75 370.5 149.75 370.1
L 149.75 364.75
Q 149.75 364.45 149.85 364.35 149.95 364.3 150.3 364.3
L 163.65 364.3
Q 163.95 364.3 164.05 364.4 164.15 364.5 164.15 364.85
L 164.15 370.1
Q 164.15 370.5 164.05 370.55 163.95 370.65 163.65 370.65
L 150.3 370.65
M 151.85 344.55
Q 152.45 341.8 152.45 338.35 152.45 337.7 151.95 337.7
L 148.4 337.55
Q 148.25 337.55 148.05 337.75 147.85 337.95 147.85 338.25 147.85 341.45 147.25 343.9 146.7 346.35 145.6 348.35 144.5 350.3 142.85 351.9 141.15 353.5 138.9 355.05 138.55 355.3 138.45 355.55 138.35 355.85 138.75 356.3
L 140.4 358.15
Q 140.65 358.45 140.9 358.55 141.2 358.65 141.7 358.3 144.55 356.35 146.65 354.3 148.7 352.2 150.05 349.65 151.55 351.95 153.65 353.8 155.75 355.65 158.2 356.75 158.9 357.1 159.25 356.4
L 160.65 354.2
Q 161.1 353.5 160.45 353.25 159.35 352.75 158.15 351.9 156.9 351.05 155.75 349.95 154.55 348.8 153.5 347.45 152.5 346.1 151.85 344.55
M 863.4 256.95
Q 862.85 256.95 862.85 257.5
L 862.85 268.7 855.65 268.7
Q 855.45 268.7 855.25 268.8 855.1 268.95 855.1 269.15
L 855.1 272
Q 855.1 272.2 855.25 272.35 855.45 272.5 855.65 272.5
L 862.85 272.5 862.85 283.4
Q 862.85 283.9 863.4 283.9
L 866.95 283.9
Q 867.45 283.9 867.45 283.4
L 867.45 257.5
Q 867.45 256.95 866.95 256.95
L 863.4 256.95
M 844.4 282.2
Q 844.2 282.4 844.2 282.6
L 844.2 291.4
Q 844.2 292.95 844.8 293.6 845.45 294.25 847.25 294.25
L 868.05 294.25
Q 868.3 294.25 868.45 294.15 868.65 294 868.65 293.75
L 868.65 290.9
Q 868.65 290.75 868.45 290.55 868.25 290.4 868.05 290.4
L 849.55 290.4
Q 849.15 290.4 848.95 290.3 848.8 290.15 848.8 289.75
L 848.8 282.6
Q 848.8 282.4 848.65 282.2 848.45 282.05 848.2 282.05
L 844.75 282.05
Q 844.55 282.05 844.4 282.2
M 839.15 263.05
L 849.95 263.05
Q 850.7 263.05 850.7 263.35 850.7 263.55 850.5 264.2 849.35 268.05 846.15 271.25 843 274.45 837.75 276.85 837.3 277.05 837.25 277.35 837.2 277.7 837.4 278
L 838.4 280.05
Q 838.75 280.8 839.7 280.4 846.1 277.7 849.95 273.6 853.75 269.5 855.4 263.8 855.45 263.7 855.5 263.4 855.55 263.15 855.6 262.8 855.7 262.5 855.75 262.15 855.8 261.85 855.8 261.65 855.8 260.35 855.1 259.8 854.35 259.25 852.6 259.25
L 839.2 259.25
Q 838.6 259.25 838.6 259.8
L 838.6 262.5
Q 838.6 262.7 838.75 262.9 838.9 263.05 839.15 263.05
M 804.85 279.15
Q 804.65 279.15 804.45 279.3 804.3 279.5 804.3 279.65
L 804.3 282.35
Q 804.3 282.55 804.45 282.7 804.65 282.85 804.85 282.85
L 824 282.85
Q 824.35 282.85 824.45 282.95 824.55 283.05 824.55 283.5
L 824.55 284.55
Q 824.55 284.95 824.45 285.05 824.35 285.1 824.05 285.1
L 807 285.1
Q 805.45 285.1 804.9 285.65 804.35 286.2 804.35 287.5
L 804.35 292.05
Q 804.35 293.35 804.95 293.85 805.5 294.45 807.05 294.45
L 829.4 294.45
Q 829.55 294.45 829.75 294.25 830 294.1 830 293.85
L 830 291.3
Q 830 291 829.75 290.85 829.55 290.75 829.35 290.75
L 809.4 290.75
Q 809.05 290.75 808.95 290.65 808.9 290.6 808.9 290.25
L 808.9 288.95
Q 808.9 288.65 808.95 288.55 809.05 288.45 809.35 288.45
L 826.3 288.45
Q 827.95 288.45 828.5 287.95 829 287.5 829 286.1
L 829 281.55
Q 829 280.15 828.5 279.65 827.95 279.15 826.3 279.15
L 818.9 279.15 818.9 276.15 834 276.15
Q 834.2 276.15 834.4 276 834.6 275.8 834.6 275.6
L 834.6 273.1
Q 834.6 272.9 834.4 272.7 834.2 272.5 834 272.5
L 799.2 272.5
Q 798.9 272.5 798.75 272.7 798.6 272.9 798.6 273.1
L 798.6 275.6
Q 798.6 276.15 799.2 276.15
L 814.3 276.15 814.3 279.15 804.85 279.15
M 807.5 257.05
Q 806 257.05 805.2 257.7 804.4 258.35 804.4 259.85
L 804.4 266.8
Q 804.4 268.35 805.05 268.95 805.65 269.6 807.5 269.6
L 825.65 269.6
Q 827.15 269.6 827.95 268.95 828.75 268.35 828.75 266.8
L 828.75 259.85
Q 828.75 258.25 828.1 257.65 827.5 257.05 825.65 257.05
L 807.5 257.05
M 809.05 265.85
Q 808.95 265.75 808.95 265.4
L 808.95 261.2
Q 808.95 260.9 809.05 260.8 809.2 260.75 809.55 260.75
L 823.6 260.75
Q 823.9 260.75 824.05 260.85 824.2 260.9 824.2 261.25
L 824.2 265.4
Q 824.2 265.75 824.05 265.85 823.95 265.9 823.6 265.9
L 809.55 265.9
Q 809.2 265.9 809.05 265.85
M 751.95 278.95
Q 752.1 279.15 752.4 279.15
L 787.2 279.15
Q 787.4 279.15 787.6 278.95 787.8 278.7 787.8 278.5
L 787.8 275.9
Q 787.8 275.75 787.6 275.5 787.4 275.3 787.2 275.3
L 752.4 275.3
Q 752.1 275.3 751.95 275.5 751.8 275.7 751.8 275.9
L 751.8 278.5
Q 751.8 278.75 751.95 278.95
M 762.1 282.25
Q 762.1 282.05 761.95 281.85 761.75 281.7 761.55 281.7
L 758.1 281.7
Q 757.9 281.7 757.7 281.85 757.55 282.05 757.55 282.25
L 757.55 290.9
Q 757.55 292.55 758.15 293.15 758.75 293.8 760.55 293.8
L 782.85 293.8
Q 783.1 293.8 783.3 293.7 783.45 293.55 783.45 293.35
L 783.45 290.45
Q 783.45 290.25 783.25 290.1 783.05 289.95 782.85 289.95
L 762.9 289.95
Q 762.45 289.95 762.3 289.85 762.1 289.7 762.1 289.3
L 762.1 282.25
M 764.75 258
Q 762.4 258.5 760.75 259.45 759.05 260.35 758.1 261.75 757.15 263.1 757.15 264.85 757.15 266.55 758.1 267.9 759.05 269.3 760.75 270.2 762.4 271.1 764.75 271.65 767.1 272.1 769.9 272.1 772.7 272.1 775 271.65 777.35 271.1 779 270.2 780.7 269.3 781.65 267.9 782.55 266.55 782.55 264.85 782.55 263.1 781.65 261.75 780.7 260.35 779 259.45 777.35 258.5 775 258 772.7 257.55 769.9 257.55 767.1 257.55 764.75 258
M 766.7 268.2
Q 765.25 267.9 764.2 267.45 763.15 266.95 762.55 266.3 761.95 265.65 761.95 264.85 761.95 264.05 762.55 263.35 763.15 262.7 764.2 262.2 765.25 261.75 766.7 261.45 768.15 261.2 769.9 261.2 771.6 261.2 773.05 261.45 774.5 261.75 775.55 262.2 776.6 262.7 777.2 263.35 777.75 264.05 777.75 264.85 777.75 265.65 777.2 266.3 776.6 266.95 775.55 267.45 774.5 267.9 773.05 268.2 771.6 268.45 769.9 268.45 768.15 268.45 766.7 268.2
M 745.5 283.45
Q 745.5 282.55 744.65 282 743.75 281.45 741.65 281.45
L 723.8 281.45
Q 723.35 281.45 723.35 281.9
L 723.35 284.55
Q 723.35 284.8 723.45 284.95 723.6 285.1 723.8 285.1
L 737.75 285.1
Q 738.65 285.1 738.65 285.35 738.65 285.6 738.05 286 736.75 286.75 734.95 287.55 733.1 288.3 731 288.95 728.85 289.65 726.45 290.25 724.1 290.85 721.65 291.3 721.35 291.4 721.2 291.65 721 291.9 721.15 292.2
L 721.95 294.4
Q 722.15 294.75 722.4 294.85 722.6 294.95 723.05 294.9 726.15 294.35 729.45 293.4 732.75 292.5 735.8 291.3 737.1 291.75 738.55 292.25 740 292.7 741.45 293.15 742.95 293.55 744.35 293.9 745.75 294.3 746.9 294.5 747.7 294.65 747.9 294.15
L 748.75 291.9
Q 748.95 291.2 748.15 291 746.5 290.65 744.3 290.1 742.15 289.6 740.35 289 742.4 287.9 743.65 286.7 744.55 285.85 745.05 285 745.5 284.15 745.5 283.45
M 734.8 266.95
Q 735.05 266.45 735.25 265.9 735.45 265.3 735.45 264.95 735.45 263.85 734.6 263.4 733.75 263 732.15 263
L 718.75 263
Q 718.1 263 718.1 263.5
L 718.1 266
Q 718.1 266.25 718.3 266.4 718.4 266.6 718.65 266.6
L 728.95 266.6
Q 729.6 266.6 729.6 266.8 729.55 266.95 729.4 267.25 728.85 268.35 727.65 269.55 726.4 270.8 724.75 272.05 723.1 273.3 721.05 274.45 719.05 275.6 716.85 276.55 716.55 276.65 716.35 276.95 716.2 277.25 716.4 277.55
L 717.55 279.65
Q 717.75 280 718.1 280.05 718.45 280.1 718.65 280 721.6 278.8 724.2 277.25 726.75 275.7 728.9 273.9 729.7 274.6 730.65 275.3 731.6 275.95 732.6 276.6 733.55 277.2 734.45 277.7 735.35 278.2 736.1 278.5 736.9 278.85 737.3 278.15
L 738.45 276.3
Q 738.65 275.9 738.6 275.6 738.55 275.3 738.1 275.15 737.4 274.9 736.55 274.45 735.75 274.05 734.9 273.5 734.05 273 733.25 272.45 732.4 271.85 731.75 271.3 733.8 269.1 734.8 266.95
M 732.05 258.05
Q 732.05 257.8 731.85 257.6 731.65 257.4 731.4 257.4
L 722.05 257.4
Q 721.9 257.4 721.7 257.55 721.45 257.7 721.45 258
L 721.45 260.3
Q 721.45 260.6 721.7 260.75 721.9 260.9 722.05 260.9
L 731.4 260.9
Q 731.7 260.9 731.85 260.7 732.05 260.5 732.05 260.25
L 732.05 258.05
M 751.75 270.95
L 751.75 268.1
Q 751.75 267.9 751.6 267.8 751.4 267.65 751.15 267.65
L 745.8 267.65 745.8 257.5
Q 745.8 256.95 745.25 256.95
L 741.7 256.95
Q 741.15 256.95 741.15 257.5
L 741.15 278.85
Q 741.15 279.5 741.7 279.5
L 745.25 279.5
Q 745.8 279.5 745.8 278.9
L 745.8 271.45 751.15 271.45
Q 751.4 271.45 751.6 271.3 751.75 271.15 751.75 270.95 Z"/>

<path fill="#E2F3F2" stroke="none" d="
M 343.3 314.8
L 343.3 234.7 314.25 234.7 303.25 234.7 267.25 234.7 220.25 234.7 198.25 234.7 76.25 234.7 74.25 234.7 60.2 234.7
Q 47.55 234.7 42.9 242.7 40.2 247.35 40.2 254.7
L 40.2 271.2 40.2 274.75 40.2 314.8 74.25 314.8 198.25 314.8 220.25 314.8 303.25 314.8 343.3 314.8
M 146.05 263.8
Q 145.35 263.8 145.35 264.5
L 145.35 279.05
Q 145.35 279.65 145.55 279.85 145.8 280.05 146.55 280.1 147.8 280.25 149.5 280.15 151.25 280.1 153.15 279.9 155.05 279.7 157.1 279.45 159.05 279.15 160.85 278.85 161.45 278.7 161.6 279.3
L 162.05 281.65
Q 162.1 282.1 161.95 282.2 161.75 282.35 161.55 282.45 159.95 282.9 157.55 283.3 155.2 283.65 152.65 283.85 150.1 284.1 147.7 284.15 145.3 284.25 143.65 284.15 142.15 284.05 141.45 283.45 140.75 282.9 140.75 281.45
L 140.75 262.5
Q 140.75 261.1 141.35 260.5 141.9 259.95 143.4 259.95
L 157.95 259.95
Q 158.5 259.95 158.5 260.5
L 158.5 263.3
Q 158.5 263.8 157.95 263.8
L 146.05 263.8
M 174.45 271.75
Q 174.65 271.9 174.65 272.1
L 174.65 274.9
Q 174.65 275.1 174.45 275.3 174.25 275.45 174.05 275.45
L 168.65 275.45 168.65 294.4
Q 168.65 294.95 168.1 294.95
L 164.55 294.95
Q 164.05 294.95 164.05 294.4
L 164.05 257.5
Q 164.05 256.95 164.55 256.95
L 168.1 256.95
Q 168.65 256.95 168.65 257.5
L 168.65 271.6 174.05 271.6
Q 174.25 271.6 174.45 271.75
M 200.8 257.1
Q 201 256.95 201.2 256.95
L 204.7 256.95
Q 205.3 256.95 205.3 257.5
L 205.3 266.55 210.65 266.55
Q 210.9 266.55 211.1 266.75 211.25 266.9 211.25 267.1
L 211.25 269.9
Q 211.25 270.1 211.1 270.25 210.9 270.4 210.65 270.4
L 205.3 270.4 205.3 278.15
Q 205.3 278.7 204.7 278.7
L 201.2 278.7
Q 201 278.7 200.8 278.5 200.65 278.35 200.65 278.1
L 200.65 257.5
Q 200.65 257.25 200.8 257.1
M 189.5 262.8
Q 189.5 262.55 188.75 262.55
L 177.9 262.55
Q 177.6 262.55 177.5 262.4 177.35 262.2 177.35 261.95
L 177.35 259.3
Q 177.35 258.75 177.9 258.75
L 191.45 258.75
Q 193.25 258.75 193.95 259.3 194.65 259.9 194.65 261.15 194.65 261.3 194.6 261.65 194.55 261.9 194.5 262.25 194.45 262.55 194.4 262.8 194.3 263.05 194.25 263.2 192.75 268.7 188.75 272.6 184.8 276.45 178.45 279.1 177.5 279.5 177.2 278.7
L 176.15 276.65
Q 176 276.3 176.05 276 176.1 275.7 176.55 275.5 181.45 273.35 184.85 270.35 188.2 267.35 189.3 263.7 189.5 263.05 189.5 262.8
M 181.25 284.05
L 181.25 281.2
Q 181.25 280.9 181.4 280.8 181.6 280.7 181.8 280.7
L 202.55 280.7
Q 204.05 280.7 204.65 281.3 205.25 281.95 205.25 283.5
L 205.25 294.3
Q 205.25 294.5 205.05 294.65 204.85 294.85 204.65 294.85
L 201.25 294.85
Q 201 294.85 200.8 294.65 200.6 294.5 200.6 294.3
L 200.6 285.2
Q 200.6 284.75 200.45 284.65 200.3 284.5 199.85 284.5
L 181.8 284.5
Q 181.6 284.5 181.4 284.4 181.25 284.25 181.25 284.05
M 243.4 280.9
Q 243.25 281.1 243.05 281.1
L 239.5 281.1
Q 239.25 281.1 239.1 280.9 238.95 280.75 238.95 280.5
L 238.95 277.7 234.2 277.7
Q 234.05 277.7 233.85 277.6 233.7 277.45 233.7 277.25
L 233.7 274.5
Q 233.7 274.3 233.85 274.2 234.05 274.05 234.2 274.05
L 238.95 274.05 238.95 271.35 234.2 271.35
Q 234.05 271.35 233.85 271.2 233.7 271.1 233.7 270.9
L 233.7 268.15
Q 233.7 267.95 233.85 267.8 234.05 267.7 234.2 267.7
L 238.95 267.7 238.95 257.45
Q 238.95 256.9 239.5 256.9
L 243.05 256.9
Q 243.25 256.9 243.4 257.1 243.6 257.25 243.6 257.45
L 243.6 280.5
Q 243.6 280.75 243.4 280.9
M 229 257.3
Q 229.25 257.3 229.5 257.55 229.65 257.7 229.65 257.95
L 229.65 260.15
Q 229.65 260.4 229.5 260.6 229.3 260.85 229 260.85
L 218.8 260.85
Q 218.65 260.85 218.4 260.65 218.2 260.5 218.2 260.2
L 218.2 257.9
Q 218.2 257.65 218.4 257.5 218.65 257.3 218.8 257.3
L 229 257.3
M 230.05 269.05
Q 231.2 269.95 231.85 271.1 232.5 272.3 232.5 273.8 232.5 275.3 231.85 276.5 231.2 277.7 230 278.6 228.85 279.45 227.3 279.95 225.75 280.4 223.9 280.4 222.1 280.4 220.55 279.9 219.05 279.4 217.9 278.5 216.75 277.6 216.1 276.35 215.45 275.1 215.45 273.6 215.45 272.1 216.1 270.95 216.75 269.8 217.9 268.95 219.05 268.15 220.6 267.7 222.15 267.25 223.95 267.25 225.75 267.25 227.35 267.75 228.9 268.2 230.05 269.05
M 234.8 263.05
L 234.8 265.35
Q 234.8 265.6 234.6 265.8 234.45 265.95 234.2 265.95
L 213.3 265.95
Q 213.1 265.95 212.9 265.75 212.7 265.55 212.7 265.3
L 212.7 263.05
Q 212.7 262.9 212.9 262.65 213.15 262.45 213.35 262.45
L 234.2 262.45
Q 234.45 262.45 234.6 262.65 234.8 262.85 234.8 263.05
M 219.65 288.1
Q 219.65 286.65 220.5 285.45 221.35 284.25 222.9 283.35 224.5 282.5 226.65 282 228.85 281.55 231.6 281.55 234.2 281.55 236.4 282 238.65 282.5 240.25 283.35 241.9 284.25 242.8 285.45 243.7 286.65 243.7 288.1 243.7 289.6 242.8 290.85 241.9 292.1 240.25 292.95 238.65 293.85 236.4 294.3 234.2 294.8 231.6 294.8 228.85 294.8 226.65 294.3 224.5 293.85 222.9 292.95 221.35 292.1 220.5 290.85 219.65 289.6 219.65 288.1
M 231.6 284.95
Q 230 284.95 228.7 285.15 227.4 285.35 226.45 285.8 225.45 286.2 224.95 286.8 224.4 287.45 224.4 288.25 224.4 289.05 224.95 289.6 225.45 290.15 226.45 290.55 227.45 290.95 228.75 291.15 230.05 291.3 231.6 291.3 233.1 291.3 234.45 291.15 235.75 290.95 236.75 290.55 237.75 290.15 238.35 289.6 238.95 289.05 238.95 288.25 238.95 287.45 238.35 286.8 237.75 286.2 236.75 285.8 235.75 285.35 234.45 285.15 233.1 284.95 231.6 284.95
M 227 271.6
Q 225.85 270.8 223.95 270.8 222.05 270.8 220.9 271.6 219.75 272.4 219.75 273.8 219.75 275.2 220.9 276.1 222.05 276.95 223.95 276.95 225.85 276.95 227 276.1 228.15 275.2 228.15 273.8 228.15 272.4 227 271.6
M 453.3 234.7
L 453.25 234.7 360.25 234.7 343.3 234.7 343.3 314.8 360.25 314.8 453.25 314.8 453.3 314.8 500.25 314.8 527.25 314.8 559.3 314.8 603.25 314.8 640.25 314.8 751.25 314.8 753.25 314.8 780.25 314.8 809.3 314.8 818.3 314.8 826.3 314.8 903.25 314.8 920.25 314.8 975.25 314.8 1009.65 314.8 1053.25 314.8 1060.25 314.8 1084.65 314.8 1240.35 314.8 1240.35 254.7
Q 1240.35 234.7 1220.35 234.7
L 1084.65 234.7 1060.25 234.7 1053.25 234.7 1009.65 234.7 975.25 234.7 941.3 234.7 920.25 234.7 903.25 234.7 826.3 234.7 818.3 234.7 780.25 234.7 753.25 234.7 751.25 234.7 642.3 234.7 640.25 234.7 603.25 234.7 559.3 234.7 527.25 234.7 500.25 234.7 453.3 234.7
M 751.75 268.1
L 751.75 270.95
Q 751.75 271.15 751.6 271.3 751.4 271.45 751.15 271.45
L 745.8 271.45 745.8 278.9
Q 745.8 279.5 745.25 279.5
L 741.7 279.5
Q 741.15 279.5 741.15 278.85
L 741.15 257.5
Q 741.15 256.95 741.7 256.95
L 745.25 256.95
Q 745.8 256.95 745.8 257.5
L 745.8 267.65 751.15 267.65
Q 751.4 267.65 751.6 267.8 751.75 267.9 751.75 268.1
M 731.85 257.6
Q 732.05 257.8 732.05 258.05
L 732.05 260.25
Q 732.05 260.5 731.85 260.7 731.7 260.9 731.4 260.9
L 722.05 260.9
Q 721.9 260.9 721.7 260.75 721.45 260.6 721.45 260.3
L 721.45 258
Q 721.45 257.7 721.7 257.55 721.9 257.4 722.05 257.4
L 731.4 257.4
Q 731.65 257.4 731.85 257.6
M 735.25 265.9
Q 735.05 266.45 734.8 266.95 733.8 269.1 731.75 271.3 732.4 271.85 733.25 272.45 734.05 273 734.9 273.5 735.75 274.05 736.55 274.45 737.4 274.9 738.1 275.15 738.55 275.3 738.6 275.6 738.65 275.9 738.45 276.3
L 737.3 278.15
Q 736.9 278.85 736.1 278.5 735.35 278.2 734.45 277.7 733.55 277.2 732.6 276.6 731.6 275.95 730.65 275.3 729.7 274.6 728.9 273.9 726.75 275.7 724.2 277.25 721.6 278.8 718.65 280 718.45 280.1 718.1 280.05 717.75 280 717.55 279.65
L 716.4 277.55
Q 716.2 277.25 716.35 276.95 716.55 276.65 716.85 276.55 719.05 275.6 721.05 274.45 723.1 273.3 724.75 272.05 726.4 270.8 727.65 269.55 728.85 268.35 729.4 267.25 729.55 266.95 729.6 266.8 729.6 266.6 728.95 266.6
L 718.65 266.6
Q 718.4 266.6 718.3 266.4 718.1 266.25 718.1 266
L 718.1 263.5
Q 718.1 263 718.75 263
L 732.15 263
Q 733.75 263 734.6 263.4 735.45 263.85 735.45 264.95 735.45 265.3 735.25 265.9
M 744.65 282
Q 745.5 282.55 745.5 283.45 745.5 284.15 745.05 285 744.55 285.85 743.65 286.7 742.4 287.9 740.35 289 742.15 289.6 744.3 290.1 746.5 290.65 748.15 291 748.95 291.2 748.75 291.9
L 747.9 294.15
Q 747.7 294.65 746.9 294.5 745.75 294.3 744.35 293.9 742.95 293.55 741.45 293.15 740 292.7 738.55 292.25 737.1 291.75 735.8 291.3 732.75 292.5 729.45 293.4 726.15 294.35 723.05 294.9 722.6 294.95 722.4 294.85 722.15 294.75 721.95 294.4
L 721.15 292.2
Q 721 291.9 721.2 291.65 721.35 291.4 721.65 291.3 724.1 290.85 726.45 290.25 728.85 289.65 731 288.95 733.1 288.3 734.95 287.55 736.75 286.75 738.05 286 738.65 285.6 738.65 285.35 738.65 285.1 737.75 285.1
L 723.8 285.1
Q 723.6 285.1 723.45 284.95 723.35 284.8 723.35 284.55
L 723.35 281.9
Q 723.35 281.45 723.8 281.45
L 741.65 281.45
Q 743.75 281.45 744.65 282
M 760.75 259.45
Q 762.4 258.5 764.75 258 767.1 257.55 769.9 257.55 772.7 257.55 775 258 777.35 258.5 779 259.45 780.7 260.35 781.65 261.75 782.55 263.1 782.55 264.85 782.55 266.55 781.65 267.9 780.7 269.3 779 270.2 777.35 271.1 775 271.65 772.7 272.1 769.9 272.1 767.1 272.1 764.75 271.65 762.4 271.1 760.75 270.2 759.05 269.3 758.1 267.9 757.15 266.55 757.15 264.85 757.15 263.1 758.1 261.75 759.05 260.35 760.75 259.45
M 761.95 281.85
Q 762.1 282.05 762.1 282.25
L 762.1 289.3
Q 762.1 289.7 762.3 289.85 762.45 289.95 762.9 289.95
L 782.85 289.95
Q 783.05 289.95 783.25 290.1 783.45 290.25 783.45 290.45
L 783.45 293.35
Q 783.45 293.55 783.3 293.7 783.1 293.8 782.85 293.8
L 760.55 293.8
Q 758.75 293.8 758.15 293.15 757.55 292.55 757.55 290.9
L 757.55 282.25
Q 757.55 282.05 757.7 281.85 757.9 281.7 758.1 281.7
L 761.55 281.7
Q 761.75 281.7 761.95 281.85
M 752.4 279.15
Q 752.1 279.15 751.95 278.95 751.8 278.75 751.8 278.5
L 751.8 275.9
Q 751.8 275.7 751.95 275.5 752.1 275.3 752.4 275.3
L 787.2 275.3
Q 787.4 275.3 787.6 275.5 787.8 275.75 787.8 275.9
L 787.8 278.5
Q 787.8 278.7 787.6 278.95 787.4 279.15 787.2 279.15
L 752.4 279.15
M 805.2 257.7
Q 806 257.05 807.5 257.05
L 825.65 257.05
Q 827.5 257.05 828.1 257.65 828.75 258.25 828.75 259.85
L 828.75 266.8
Q 828.75 268.35 827.95 268.95 827.15 269.6 825.65 269.6
L 807.5 269.6
Q 805.65 269.6 805.05 268.95 804.4 268.35 804.4 266.8
L 804.4 259.85
Q 804.4 258.35 805.2 257.7
M 804.45 279.3
Q 804.65 279.15 804.85 279.15
L 814.3 279.15 814.3 276.15 799.2 276.15
Q 798.6 276.15 798.6 275.6
L 798.6 273.1
Q 798.6 272.9 798.75 272.7 798.9 272.5 799.2 272.5
L 834 272.5
Q 834.2 272.5 834.4 272.7 834.6 272.9 834.6 273.1
L 834.6 275.6
Q 834.6 275.8 834.4 276 834.2 276.15 834 276.15
L 818.9 276.15 818.9 279.15 826.3 279.15
Q 827.95 279.15 828.5 279.65 829 280.15 829 281.55
L 829 286.1
Q 829 287.5 828.5 287.95 827.95 288.45 826.3 288.45
L 809.35 288.45
Q 809.05 288.45 808.95 288.55 808.9 288.65 808.9 288.95
L 808.9 290.25
Q 808.9 290.6 808.95 290.65 809.05 290.75 809.4 290.75
L 829.35 290.75
Q 829.55 290.75 829.75 290.85 830 291 830 291.3
L 830 293.85
Q 830 294.1 829.75 294.25 829.55 294.45 829.4 294.45
L 807.05 294.45
Q 805.5 294.45 804.95 293.85 804.35 293.35 804.35 292.05
L 804.35 287.5
Q 804.35 286.2 804.9 285.65 805.45 285.1 807 285.1
L 824.05 285.1
Q 824.35 285.1 824.45 285.05 824.55 284.95 824.55 284.55
L 824.55 283.5
Q 824.55 283.05 824.45 282.95 824.35 282.85 824 282.85
L 804.85 282.85
Q 804.65 282.85 804.45 282.7 804.3 282.55 804.3 282.35
L 804.3 279.65
Q 804.3 279.5 804.45 279.3
M 849.95 263.05
L 839.15 263.05
Q 838.9 263.05 838.75 262.9 838.6 262.7 838.6 262.5
L 838.6 259.8
Q 838.6 259.25 839.2 259.25
L 852.6 259.25
Q 854.35 259.25 855.1 259.8 855.8 260.35 855.8 261.65 855.8 261.85 855.75 262.15 855.7 262.5 855.6 262.8 855.55 263.15 855.5 263.4 855.45 263.7 855.4 263.8 853.75 269.5 849.95 273.6 846.1 277.7 839.7 280.4 838.75 280.8 838.4 280.05
L 837.4 278
Q 837.2 277.7 837.25 277.35 837.3 277.05 837.75 276.85 843 274.45 846.15 271.25 849.35 268.05 850.5 264.2 850.7 263.55 850.7 263.35 850.7 263.05 849.95 263.05
M 844.2 282.6
Q 844.2 282.4 844.4 282.2 844.55 282.05 844.75 282.05
L 848.2 282.05
Q 848.45 282.05 848.65 282.2 848.8 282.4 848.8 282.6
L 848.8 289.75
Q 848.8 290.15 848.95 290.3 849.15 290.4 849.55 290.4
L 868.05 290.4
Q 868.25 290.4 868.45 290.55 868.65 290.75 868.65 290.9
L 868.65 293.75
Q 868.65 294 868.45 294.15 868.3 294.25 868.05 294.25
L 847.25 294.25
Q 845.45 294.25 844.8 293.6 844.2 292.95 844.2 291.4
L 844.2 282.6
M 862.85 257.5
Q 862.85 256.95 863.4 256.95
L 866.95 256.95
Q 867.45 256.95 867.45 257.5
L 867.45 283.4
Q 867.45 283.9 866.95 283.9
L 863.4 283.9
Q 862.85 283.9 862.85 283.4
L 862.85 272.5 855.65 272.5
Q 855.45 272.5 855.25 272.35 855.1 272.2 855.1 272
L 855.1 269.15
Q 855.1 268.95 855.25 268.8 855.45 268.7 855.65 268.7
L 862.85 268.7 862.85 257.5
M 808.95 265.4
Q 808.95 265.75 809.05 265.85 809.2 265.9 809.55 265.9
L 823.6 265.9
Q 823.95 265.9 824.05 265.85 824.2 265.75 824.2 265.4
L 824.2 261.25
Q 824.2 260.9 824.05 260.85 823.9 260.75 823.6 260.75
L 809.55 260.75
Q 809.2 260.75 809.05 260.8 808.95 260.9 808.95 261.2
L 808.95 265.4
M 764.2 267.45
Q 765.25 267.9 766.7 268.2 768.15 268.45 769.9 268.45 771.6 268.45 773.05 268.2 774.5 267.9 775.55 267.45 776.6 266.95 777.2 266.3 777.75 265.65 777.75 264.85 777.75 264.05 777.2 263.35 776.6 262.7 775.55 262.2 774.5 261.75 773.05 261.45 771.6 261.2 769.9 261.2 768.15 261.2 766.7 261.45 765.25 261.75 764.2 262.2 763.15 262.7 762.55 263.35 761.95 264.05 761.95 264.85 761.95 265.65 762.55 266.3 763.15 266.95 764.2 267.45 Z"/>
</g>

<path id="Layer0_0_1_STROKES" stroke="#86BA9E" stroke-width="3" stroke-linejoin="round" stroke-linecap="round" fill="none" d="
M 40.2 314.8
L 40.2 274.75 40.2 271.2 40.2 254.7
Q 40.2 247.35 42.9 242.7 47.55 234.7 60.2 234.7
L 74.25 234.7 76.25 234.7 198.25 234.7 220.25 234.7 267.25 234.7 303.25 234.7 314.25 234.7 343.3 234.7 360.25 234.7 453.25 234.7 453.3 234.7 500.25 234.7 527.25 234.7 559.3 234.7 603.25 234.7 640.25 234.7 642.3 234.7 751.25 234.7 753.25 234.7 780.25 234.7 818.3 234.7 826.3 234.7 903.25 234.7 920.25 234.7 941.3 234.7 975.25 234.7 1009.65 234.7 1053.25 234.7 1060.25 234.7 1084.65 234.7 1220.35 234.7
Q 1240.35 234.7 1240.35 254.7
L 1240.35 314.8 1240.35 334.8 1240.35 394.8 1240.3 474.8 1240.3 537
Q 1239.15 554.8 1220.35 554.8
L 1084.65 554.8 1060.25 554.8 1053.25 554.8 1009.65 554.8 975.25 554.8 941.3 554.8 920.25 554.8 903.25 554.8 826.3 554.8 818.3 554.8 809.3 554.8 780.25 554.8 753.25 554.8 751.25 554.8 642.3 554.8 640.25 554.8 603.25 554.8 559.3 554.8 527.25 554.8 500.25 554.8 453.3 554.8 453.25 554.8 360.25 554.8 343.3 554.8 303.25 554.8 220.25 554.8 198.25 554.8 74.25 554.8 60.2 554.8
Q 41.35 554.8 40.3 537
L 40.3 474.8 40.25 394.8 40.2 334.8 40.2 314.8 Z"/>

<path id="Layer0_0_2_STROKES" stroke="#86BA9E" stroke-width="2" stroke-linejoin="round" stroke-linecap="round" fill="none" d="
M 40.2 314.8
L 74.25 314.8 198.25 314.8 220.25 314.8 303.25 314.8 343.3 314.8 343.3 234.7
M 343.3 314.8
L 360.25 314.8 453.25 314.8 453.3 314.8 500.25 314.8 527.25 314.8 559.3 314.8 603.25 314.8 640.25 314.8 751.25 314.8 753.25 314.8 780.25 314.8 809.3 314.8 818.3 314.8 826.3 314.8 903.25 314.8 920.25 314.8 975.25 314.8 1009.65 314.8 1053.25 314.8 1060.25 314.8 1084.65 314.8 1240.35 314.8
M 343.3 314.8
L 343.3 394.8 360.25 394.8 453.25 394.8 453.3 394.8 500.25 394.8 527.25 394.8 559.3 394.8 603.25 394.8 640.25 394.8 751.25 394.8 753.25 394.8 780.25 394.8 809.3 394.8 818.3 394.8 826.3 394.8 903.25 394.8 920.25 394.8 975.25 394.8 1009.65 394.8 1053.25 394.8 1060.25 394.8 1084.65 394.8 1240.35 394.8
M 40.25 394.8
L 74.25 394.8 198.25 394.8 220.25 394.8 303.25 394.8 343.3 394.8 343.3 474.8 360.25 474.8 453.25 474.8 453.3 474.8 500.25 474.8 527.25 474.8 559.3 474.8 603.25 474.8 640.25 474.8 751.25 474.8 753.25 474.8 780.25 474.8 809.3 474.8 818.3 474.8 826.3 474.8 903.25 474.8 920.25 474.8 975.25 474.8 1009.65 474.8 1053.25 474.8 1060.25 474.8 1084.65 474.8 1240.3 474.8
M 40.3 474.8
L 74.25 474.8 198.25 474.8 220.25 474.8 303.25 474.8 343.3 474.8 343.3 554.8"/>
</defs>

<g transform="matrix( 1, 0, 0, 1, 0,0) ">
<use xlink:href="#Layer0_0_FILL"/>

<use xlink:href="#Layer0_0_1_STROKES"/>

<use xlink:href="#Layer0_0_2_STROKES"/>
</g>
</svg>
