<?xml version="1.0" encoding="utf-8"?>
<!-- Generator: Adobe Illustrator 23.1.0, SVG Export Plug-In . SVG Version: 6.00 Build 0)  -->
<svg version="1.1" id="레이어_1" xmlns="http://www.w3.org/2000/svg" xmlns:xlink="http://www.w3.org/1999/xlink" x="0px"
	 y="0px" width="360px" height="60px" viewBox="0 0 360 60" style="enable-background:new 0 0 360 60;" xml:space="preserve">
<g>
	<path style="fill:#DD6E06;" d="M19.8,45H8.3c0.8,2.4,3.1,4.1,5.8,4.1C16.7,49.1,19,47.4,19.8,45 M35.8,45H24.2
		c0.8,2.4,3.1,4.1,5.8,4.1S34.9,47.4,35.8,45 M51.7,45H40.2c0.8,2.4,3.1,4.1,5.8,4.1C48.6,49.1,50.9,47.4,51.7,45"/>
	<path style="fill:#DD6E06;" d="M44.7,37c-1.5,0-2.7-1.2-2.7-2.7s1.2-2.7,2.7-2.7s2.7,1.2,2.7,2.7S46.2,37,44.7,37 M30,37
		c-1.5,0-2.7-1.2-2.7-2.7s1.2-2.7,2.7-2.7s2.7,1.2,2.7,2.7S31.5,37,30,37 M19.7,23.7c-0.3,0.5-0.9,0.8-1.5,0.8
		c-0.3,0-0.6-0.1-0.8-0.2c-0.8-0.5-1.1-1.5-0.6-2.3c2.5-4.2,7-6.9,11.9-6.9c0.9,0,1.7,0.7,1.7,1.7c0,0.9-0.7,1.7-1.7,1.7
		C25,18.6,21.5,20.5,19.7,23.7 M15.3,37c-1.5,0-2.7-1.2-2.7-2.7s1.2-2.7,2.7-2.7s2.7,1.2,2.7,2.7C17.9,35.8,16.7,37,15.3,37
		 M58.8,38.1L56,30.5c-0.8-2.1-2.8-3.5-5-3.5h-1.9c-1.6-9.1-9.5-16.1-19.1-16.1S12.5,17.8,10.9,27H9c-2.3,0-4.3,1.4-5,3.5l-2.8,7.6
		c-0.6,1.7,0.7,3.6,2.5,3.6h52.6C58.2,41.7,59.5,39.8,58.8,38.1"/>
</g>
<g>
	<g>
		<path style="fill:#6B72B0;" d="M79.8,45H68.3c0.8,2.4,3.1,4.1,5.8,4.1C76.7,49.1,79,47.4,79.8,45 M95.8,45H84.2
			c0.8,2.4,3.1,4.1,5.8,4.1S94.9,47.4,95.8,45 M111.7,45h-11.5c0.8,2.4,3.1,4.1,5.8,4.1C108.6,49.1,110.9,47.4,111.7,45"/>
		<path style="fill:#6B72B0;" d="M104.7,37c-1.5,0-2.7-1.2-2.7-2.7s1.2-2.7,2.7-2.7s2.7,1.2,2.7,2.7S106.2,37,104.7,37 M90,37
			c-1.5,0-2.7-1.2-2.7-2.7s1.2-2.7,2.7-2.7s2.7,1.2,2.7,2.7S91.5,37,90,37 M79.7,23.7c-0.3,0.5-0.9,0.8-1.5,0.8
			c-0.3,0-0.6-0.1-0.8-0.2c-0.8-0.5-1.1-1.5-0.6-2.3c2.5-4.2,7-6.9,11.9-6.9c0.9,0,1.7,0.7,1.7,1.7c0,0.9-0.7,1.7-1.7,1.7
			C85,18.6,81.5,20.5,79.7,23.7 M75.3,37c-1.5,0-2.7-1.2-2.7-2.7s1.2-2.7,2.7-2.7s2.7,1.2,2.7,2.7C77.9,35.8,76.7,37,75.3,37
			 M118.8,38.1l-2.8-7.6c-0.8-2.1-2.8-3.5-5-3.5h-1.9c-1.6-9.1-9.5-16.1-19.1-16.1S72.5,17.8,70.9,27H69c-2.3,0-4.3,1.4-5,3.5
			l-2.8,7.6c-0.6,1.7,0.7,3.6,2.5,3.6h52.6C118.2,41.7,119.5,39.8,118.8,38.1"/>
	</g>
</g>
<g>
	<g>
		<path style="fill:#1A97A1;" d="M139.8,45h-11.5c0.8,2.4,3.1,4.1,5.8,4.1C136.7,49.1,139,47.4,139.8,45 M155.8,45h-11.6
			c0.8,2.4,3.1,4.1,5.8,4.1S154.9,47.4,155.8,45 M171.7,45h-11.5c0.8,2.4,3.1,4.1,5.8,4.1C168.6,49.1,170.9,47.4,171.7,45"/>
		<path style="fill:#1A97A1;" d="M164.7,37c-1.5,0-2.7-1.2-2.7-2.7s1.2-2.7,2.7-2.7s2.7,1.2,2.7,2.7S166.2,37,164.7,37 M150,37
			c-1.5,0-2.7-1.2-2.7-2.7s1.2-2.7,2.7-2.7s2.7,1.2,2.7,2.7S151.5,37,150,37 M139.7,23.7c-0.3,0.5-0.9,0.8-1.5,0.8
			c-0.3,0-0.6-0.1-0.8-0.2c-0.8-0.5-1.1-1.5-0.6-2.3c2.5-4.2,7-6.9,11.9-6.9c0.9,0,1.7,0.7,1.7,1.7c0,0.9-0.7,1.7-1.7,1.7
			C145,18.6,141.5,20.5,139.7,23.7 M135.3,37c-1.5,0-2.7-1.2-2.7-2.7s1.2-2.7,2.7-2.7s2.7,1.2,2.7,2.7C137.9,35.8,136.7,37,135.3,37
			 M178.8,38.1l-2.8-7.6c-0.8-2.1-2.8-3.5-5-3.5h-1.9c-1.6-9.1-9.5-16.1-19.1-16.1s-17.5,6.9-19.1,16.1H129c-2.3,0-4.3,1.4-5,3.5
			l-2.8,7.6c-0.6,1.7,0.7,3.6,2.5,3.6h52.6C178.2,41.7,179.5,39.8,178.8,38.1"/>
	</g>
</g>
<g>
	<g>
		<path style="fill:#AA5FA5;" d="M199.8,45h-11.5c0.8,2.4,3.1,4.1,5.8,4.1C196.7,49.1,199,47.4,199.8,45 M215.8,45h-11.6
			c0.8,2.4,3.1,4.1,5.8,4.1S214.9,47.4,215.8,45 M231.7,45h-11.5c0.8,2.4,3.1,4.1,5.8,4.1C228.6,49.1,230.9,47.4,231.7,45"/>
		<path style="fill:#AA5FA5;" d="M224.7,37c-1.5,0-2.7-1.2-2.7-2.7s1.2-2.7,2.7-2.7s2.7,1.2,2.7,2.7S226.2,37,224.7,37 M210,37
			c-1.5,0-2.7-1.2-2.7-2.7s1.2-2.7,2.7-2.7s2.7,1.2,2.7,2.7S211.5,37,210,37 M199.7,23.7c-0.3,0.5-0.9,0.8-1.5,0.8
			c-0.3,0-0.6-0.1-0.8-0.2c-0.8-0.5-1.1-1.5-0.6-2.3c2.5-4.2,7-6.9,11.9-6.9c0.9,0,1.7,0.7,1.7,1.7c0,0.9-0.7,1.7-1.7,1.7
			C205,18.6,201.5,20.5,199.7,23.7 M195.3,37c-1.5,0-2.7-1.2-2.7-2.7s1.2-2.7,2.7-2.7s2.7,1.2,2.7,2.7C197.9,35.8,196.7,37,195.3,37
			 M238.8,38.1l-2.8-7.6c-0.8-2.1-2.8-3.5-5-3.5h-1.9c-1.6-9.1-9.5-16.1-19.1-16.1s-17.5,6.9-19.1,16.1H189c-2.3,0-4.3,1.4-5,3.5
			l-2.8,7.6c-0.6,1.7,0.7,3.6,2.5,3.6h52.6C238.2,41.7,239.5,39.8,238.8,38.1"/>
	</g>
</g>
<g>
	<g>
		<path style="fill:#388F50;" d="M259.8,45h-11.5c0.8,2.4,3.1,4.1,5.8,4.1C256.7,49.1,259,47.4,259.8,45 M275.8,45h-11.6
			c0.8,2.4,3.1,4.1,5.8,4.1S274.9,47.4,275.8,45 M291.7,45h-11.5c0.8,2.4,3.1,4.1,5.8,4.1C288.6,49.1,290.9,47.4,291.7,45"/>
		<path style="fill:#388F50;" d="M284.7,37c-1.5,0-2.7-1.2-2.7-2.7s1.2-2.7,2.7-2.7s2.7,1.2,2.7,2.7S286.2,37,284.7,37 M270,37
			c-1.5,0-2.7-1.2-2.7-2.7s1.2-2.7,2.7-2.7s2.7,1.2,2.7,2.7S271.5,37,270,37 M259.7,23.7c-0.3,0.5-0.9,0.8-1.5,0.8
			c-0.3,0-0.6-0.1-0.8-0.2c-0.8-0.5-1.1-1.5-0.6-2.3c2.5-4.2,7-6.9,11.9-6.9c0.9,0,1.7,0.7,1.7,1.7c0,0.9-0.7,1.7-1.7,1.7
			C265,18.6,261.5,20.5,259.7,23.7 M255.3,37c-1.5,0-2.7-1.2-2.7-2.7s1.2-2.7,2.7-2.7c1.5,0,2.7,1.2,2.7,2.7
			C257.9,35.8,256.7,37,255.3,37 M298.8,38.1l-2.8-7.6c-0.8-2.1-2.8-3.5-5-3.5h-1.9c-1.6-9.1-9.5-16.1-19.1-16.1
			s-17.5,6.9-19.1,16.1H249c-2.3,0-4.3,1.4-5,3.5l-2.8,7.6c-0.6,1.7,0.7,3.6,2.5,3.6h52.6C298.2,41.7,299.5,39.8,298.8,38.1"/>
	</g>
</g>
<g>
	<g>
		<path style="fill:#E06230;" d="M319.8,45h-11.5c0.8,2.4,3.1,4.1,5.8,4.1C316.7,49.1,319,47.4,319.8,45 M335.8,45h-11.6
			c0.8,2.4,3.1,4.1,5.8,4.1S334.9,47.4,335.8,45 M351.7,45h-11.5c0.8,2.4,3.1,4.1,5.8,4.1C348.6,49.1,350.9,47.4,351.7,45"/>
		<path style="fill:#E06230;" d="M344.7,37c-1.5,0-2.7-1.2-2.7-2.7s1.2-2.7,2.7-2.7s2.7,1.2,2.7,2.7S346.2,37,344.7,37 M330,37
			c-1.5,0-2.7-1.2-2.7-2.7s1.2-2.7,2.7-2.7s2.7,1.2,2.7,2.7S331.5,37,330,37 M319.7,23.7c-0.3,0.5-0.9,0.8-1.5,0.8
			c-0.3,0-0.6-0.1-0.8-0.2c-0.8-0.5-1.1-1.5-0.6-2.3c2.5-4.2,7-6.9,11.9-6.9c0.9,0,1.7,0.7,1.7,1.7c0,0.9-0.7,1.7-1.7,1.7
			C325,18.6,321.5,20.5,319.7,23.7 M315.3,37c-1.5,0-2.7-1.2-2.7-2.7s1.2-2.7,2.7-2.7s2.7,1.2,2.7,2.7C317.9,35.8,316.7,37,315.3,37
			 M358.8,38.1l-2.8-7.6c-0.8-2.1-2.8-3.5-5-3.5h-1.9c-1.6-9.1-9.5-16.1-19.1-16.1s-17.5,6.9-19.1,16.1H309c-2.3,0-4.3,1.4-5,3.5
			l-2.8,7.6c-0.6,1.7,0.7,3.6,2.5,3.6h52.6C358.2,41.7,359.5,39.8,358.8,38.1"/>
	</g>
</g>
</svg>
