<?xml version="1.0" encoding="utf-8"?>
<!-- Generator: Adobe Illustrator 25.2.1, SVG Export Plug-In . SVG Version: 6.00 Build 0)  -->
<svg version="1.1" id="레이어_1" xmlns="http://www.w3.org/2000/svg" xmlns:xlink="http://www.w3.org/1999/xlink" x="0px"
	 y="0px" width="1600px" height="829px" viewBox="0 0 1600 829" style="enable-background:new 0 0 1600 829;" xml:space="preserve">
<g>
	<path style="fill:#231F20;" d="M1139.7,601l0.5,0.3l0.5,0.8c0.3,0.8,0,1.4-0.8,1.6c-3.3,0.8-6.5,1.1-10,1.1l0.5,0.5l0.3,0.8v7
		c5.7,0,11.4-0.3,16.3-0.8l0.3,0.3l0.3,1.1c0,1.1-0.3,1.4-0.5,1.4c-4.9,0.5-10.3,0.8-16.3,0.8s-12.2,0-19-0.5l-0.5-0.3
		c0-0.3-0.3-0.5,0-1.1v-1.1l0.3-0.3c5.2,0.5,10.6,0.8,16.3,0.8v-7.3v-0.5l0.5-0.3c-2.2,0-4.3,0-6.5-0.3c-1.9-0.3-3-1.1-3.3-3
		s-0.3-4.3,0-7c0-0.8,0.3-1.4,0.5-1.6c0.3-0.3,0.8-0.8,1.6-0.8c3.8-0.3,8.1-0.5,13.3-0.5c0.5,0,1.1-0.3,1.6-0.8
		c0.5-1.1,0.8-2.2,0.8-3l-0.5-1.1l-1.1-0.5c-6.8-0.5-11.9-1.6-14.9-2.7c-0.5,0-0.8-0.5-0.5-1.4c0-0.8,0.5-1.1,1.4-0.8
		c3.5,1.1,9.2,2.2,16.8,3.3l1.1,0.5l0.5,1.1c0,1.1,0,2.2-0.3,3.3s-0.5,2.2-1.1,3c-0.5,0.5-1.1,1.1-1.9,1.1c-2.4,0.5-6.8,0.8-13,0.8
		l-1.1,0.5c-0.3,0.3-0.5,0.8-0.5,1.4c0,0.8-0.3,1.4,0,1.9c0,0.8,0,1.4,0.3,1.9c0.3,1.4,1.1,1.9,2.4,1.9c3.3,0,6,0,8.7,0
		C1135.7,601.5,1137.8,601.2,1139.7,601z M1097.7,619.7c-0.3-4.9-2.4-7.3-6.8-7.6c-1.1,0-2.2,0.3-3,0.5c-0.8,0.3-1.6,0.8-2.4,1.4
		c-0.8,0.8-1.4,1.4-1.6,2.2c-0.3,0.8-0.5,1.6-0.5,2.7c0,2.2,0.5,3.8,1.9,5.2c0.5,0.8,1.4,1.1,2.2,1.6c0.8,0.3,1.6,0.5,2.7,0.5
		c0.8,0,1.9-0.3,2.7-0.3c0.8-0.3,1.6-0.8,2.4-1.4c0.5-0.5,1.1-1.1,1.6-2.2C1097.4,621.6,1097.7,620.7,1097.7,619.7z M1090.9,609.4
		c2.4,0,4.6,0.8,6.5,2.4c1.6,1.6,2.7,4.1,3,7c0,1.4-0.3,2.4-0.5,3.5c-0.5,1.1-1.1,2.2-1.6,3c-1.6,1.9-4.3,3-7.9,3
		c-2.7,0-4.9-1.1-6.5-2.7c-0.8-0.8-1.6-1.9-1.9-3c-0.5-1.1-0.5-2.4-0.5-4.1c0-2.2,0.8-4.1,2.4-6.2c0.8-0.8,1.6-1.6,3-2.2
		C1087.7,609.9,1089.3,609.6,1090.9,609.4z M1101.5,581.7c0.8,8.1,0.8,16.3-0.3,24.4l-0.5,1.1l-0.8,0.3c-0.8,0-1.1-0.3-1.1-1.1
		c0-1.4,0.3-3,0.3-4.3s0.3-2.7,0.3-4.3h-6.5l-0.8-0.3l-0.3-0.8l0.3-0.8l0.8-0.3h6.8c0-1.1,0-1.9,0-2.7s0-1.6,0-2.7h-6.8l-0.8-0.3
		l-0.3-0.8c0-0.8,0.3-1.1,1.1-1.1h6.5c0-1.1-0.3-2.2-0.3-3.3s-0.3-2.2-0.3-3c0-0.5,0.3-0.8,1.1-1.1
		C1100.7,580.6,1101.2,581.2,1101.5,581.7z M1088.2,587.1c-0.8,6-2.7,11.7-5.2,17.1l-0.8,0.8l-1.1-0.3c-1.1-0.3-1.4-0.8-1.1-1.1
		c0.8-1.6,1.6-3.8,2.4-6c0.8-2.4,1.6-4.9,2.4-8.1c0.3-0.8,0.3-1.4-0.3-1.9c-0.3-0.3-1.1-0.5-1.9-0.8c-2.2,0-4.1-0.3-6-0.5
		s-3.8-0.8-5.4-1.4l-0.8-0.8V583c0-0.8,0.3-1.1,0.8-1.1c1.4,0.5,3.3,1.1,5.7,1.4c2.4,0.3,5.4,0.5,8.9,0.8
		C1087.4,585,1087.9,585.8,1088.2,587.1z M1042.9,621.3h0.8l0.5,0.8c0.3,0.8,0,1.4-0.5,1.6c-3,1.1-8.7,1.6-17.6,1.4
		c-0.5-0.3-1.1-0.5-1.6-1.1c-0.5-0.5-0.8-1.1-1.1-2.2c-0.3-1.1-0.5-2.4-0.5-4.1c0-1.4,0-3,0-4.9l0.3-0.5l1.1-0.3
		c0.8,0,1.1,0.5,1.1,1.1c0,3,0,5.2,0.5,6.8c0.3,1.4,1.1,2.2,2.2,2.4c3.3,0.3,6,0.3,8.4,0C1039.2,622.4,1041.3,621.8,1042.9,621.3z
		 M1041.3,595.3h-7.3l-1.1-0.3l-0.3-0.8c0-0.8,0.3-1.1,1.1-1.1h7.3c0-1.9-0.3-3.8-0.3-5.7s-0.3-3.8-0.3-5.4l0.3-0.8l0.8-0.3
		c0.8,0,1.4,0.5,1.4,1.1c0.8,11.7,0.8,22-0.3,30.6c-0.3,1.1-0.5,1.4-1.4,1.4l-1.1-0.3l-0.3-0.8C1041.1,608,1041.3,602,1041.3,595.3z
		 M1027.5,582.5c0.3,0,0.5,0.5,0.3,1.4c-0.3,0.8-0.5,1.1-1.1,1.1c-1.6,0-3.3-0.3-4.6-0.8c-1.6-0.3-3-0.8-4.3-1.4
		c-0.8-0.3-1.1-0.8-0.8-1.6c0-0.8,0.3-1.1,0.8-1.1C1020.7,581.4,1024,582,1027.5,582.5z M1034,605v0.3l-0.3,0.8l-0.5,0.8h-0.8
		c-3.5-1.4-7-3.3-10.6-5.4c-1.1,1.4-2.2,2.4-3.3,3.5s-2.2,2.2-3.5,3c-0.5,0.5-1.1,0.5-1.9,0c-0.8-0.5-1.1-0.8-1.1-0.8
		c5.4-4.3,9.5-8.9,12.2-13.6v-1.1c-0.3-0.3-0.5-0.3-1.4-0.5c-1.6,0-3.3-0.3-4.9-0.3c-1.6-0.3-3.5-0.5-5.2-0.8c-0.3,0-0.3-0.3,0-1.4
		l0.3-0.8l0.5-0.3c1.6,0.5,3.5,0.8,5.7,1.1s4.6,0.5,7,0.8c1.4,0.3,1.9,0.8,1.6,1.6c-1.1,2.7-2.7,5.4-4.9,7.9
		C1026.4,601.2,1029.9,603.1,1034,605z M1004.5,607.5c0.3,0,0.5,0.5,0.5,1.4v1.1l-0.3,0.3c-4.9,0.3-10.3,0.5-16.3,0.3l0.3,10.6
		l-0.3,0.3h-1.1c-1.1,0-1.4,0-1.4,0l-0.3-10.8c-2.7,0-5.4,0-8.1-0.3c-2.7,0-5.4-0.3-7.9-0.3c-0.5,0-0.8-0.3-0.8-1.1l0.3-0.8l0.3-0.3
		c6.5,0.3,12.7,0.5,18.4,0.3C993.3,608,999,607.7,1004.5,607.5z M992.3,583.3l0.3,0.3v0.8c-0.3,0.8-0.5,1.1-1.1,1.1
		c-3.8-0.5-6.8-1.6-9.5-3c-0.8-0.8-1.4-1.4-0.8-2.2c0.3-0.5,0.5-0.8,0.8-0.8C984.7,581.4,988.2,582.5,992.3,583.3z M1000.1,600.7
		c0.3,0.3,0.3,0.8,0,1.4c-0.3,0.8-0.8,1.1-1.4,0.8c-1.6-0.3-3.5-1.1-5.4-1.9c-1.9-0.8-3.8-1.9-5.4-3.3c-3.5,2.2-7.9,3.8-12.5,4.9
		c-0.5,0.3-1.1,0-1.6-0.8s-0.5-1.4-0.3-1.4c3.5-1.1,6.5-2.2,9.2-3.5c2.4-1.1,4.3-2.2,5.7-3c1.9-1.1,1.6-1.9-1.1-1.9
		c-3.3,0-7-0.5-11.7-1.6c-0.5,0-0.5-0.5-0.3-1.4c0-0.8,0.3-1.1,0.8-1.1c5.2,0.8,10.8,1.6,17.1,2.2c0.8,0.3,1.4,0.5,1.6,0.8
		c0.3,0.3,0.3,0.8,0,1.4c-1.1,1.4-2.4,2.7-4.6,3.8C993.6,598,996.6,599.6,1000.1,600.7z"/>
	<path style="fill:#231F20;" d="M1207.2,604.2c-0.3,5.4-2.2,10-5.7,13.3c-3.5,3.5-8.1,5.4-13.3,5.4c-5.7,0-10.3-1.9-13.6-5.4
		c-3.5-3.5-5.4-7.9-5.7-13.3c0-5.4,1.9-9.8,5.7-13.6c3.5-3.5,8.1-5.4,13.6-5.4c5.2,0,9.5,1.9,13.3,5.4
		C1205,594.4,1206.9,599.1,1207.2,604.2z M1205.6,604.2c-0.3-4.9-1.9-8.9-5.2-12.5c-3.5-3.3-7.3-4.9-12.2-5.2
		c-5.2,0.3-9.2,1.9-12.5,5.2c-3.5,3.5-5.2,7.6-4.9,12.5c0,4.9,1.6,8.9,4.9,12.2c3.3,3.5,7.6,5.2,12.5,5.2s8.7-1.9,12.2-5.2
		C1203.7,613.4,1205.3,609.4,1205.6,604.2z M1190.1,616.4v0.8l-0.3,0.3h-0.3h-0.3c-0.8,0-1.1,0-1.1,0c0.3-3.5,0.3-7,0.3-11.4
		c0-4.1,0-8.4-0.3-13c-2.4,3.5-4.1,5.7-4.9,6.8l-0.5,0.5l-0.8-0.3l-0.8-0.5v-0.3c2.2-3,4.1-5.4,5.7-7c1.1-1.1,1.9-1.6,2.2-1.6
		l0.8,0.3c0.3,0.8,0.5,4.3,0.5,10.8C1190.4,608.8,1190.4,613.7,1190.1,616.4z"/>
	<path style="fill:#231F20;" d="M1287.7,586c-1.9-1.6-4.1-2.4-6.8-2.4c-2.4,0-4.3,0.5-6.2,1.9c-1.9,1.4-3,3.3-3,5.2
		c0,1.4,0.8,2.2,2.4,2.2l1.4-0.5c0.5-0.5,0.8-0.8,0.8-1.6l-0.3-1.1l-0.3-1.1l0.3-1.4l0.8-1.1c0.8-0.8,2.2-1.1,3.5-1.1
		c3.8,0,5.4,2.2,5.4,6.8c0,2.7-0.8,4.6-2.4,6c-1.4,1.1-2.4,1.4-3.5,1.4l-1.1-0.3h-0.8c-1.1,0-1.4,0.3-1.4,1.1c0,0.5,0.5,1.1,1.4,1.1
		h0.8l1.1-0.3h0.8c1.6,0,3,0.5,4.1,1.4c1.6,1.4,2.4,3.8,2.4,6.8c0,5.2-2.4,7.6-7,7.6c-3.3,0-4.6-1.1-4.6-3.3l0.3-1.1l0.3-0.8
		c0-0.5-0.3-1.1-0.8-1.6s-1.4-1.1-2.2-1.1s-1.4,0.3-1.9,0.8s-0.8,1.1-0.5,1.9c0.3,1.9,1.4,3.8,3.8,4.9c1.9,1.1,3.5,1.6,5.4,1.6
		c3.5,0,6.2-0.8,8.7-2.7c2.2-1.9,3.5-4.1,3.5-7c0-2.4-1.1-4.3-3.3-6c-1.9-1.4-4.1-2.2-6.8-2.7c2.2-0.5,3.8-1.4,5.4-2.7
		c1.9-1.6,3-3.5,3-5.4C1290.4,589.6,1289.6,587.7,1287.7,586z M1263,620.7c0.8-0.8,1.1-1.4,1.1-2.4c0-1.1-0.3-1.9-1.1-2.7
		c-0.8-0.8-1.6-1.1-2.4-1.1c-1.1,0-1.9,0.3-2.4,1.1c-0.8,0.8-1.1,1.6-1.1,2.4c0,1.1,0.3,1.9,1.1,2.4c0.8,0.8,1.6,1.1,2.4,1.1
		C1261.4,621.8,1262.2,621.6,1263,620.7z M1249.8,608c-1.1,2.7-2.2,4.6-3.5,5.4c-0.8,0.5-1.9,0.8-3.5,0.8h-9.8
		c0.8-1.9,4.1-5.7,10.3-11.4c2.4-2.2,4.1-3.8,4.9-4.6c0.8-1.1,1.4-1.9,1.9-3c0.3-1.1,0.5-2.2,0.5-3.3c0-2.4-1.1-4.3-3-6
		c-1.9-1.6-4.3-2.4-7.3-2.4c-2.4,0-4.9,0.8-7,2.4s-3.3,3.5-3.3,5.4c0,2.2,0.8,3.3,2.7,3.3l1.6-0.5c0.5-0.5,0.8-1.1,0.8-1.9l-0.3-1.1
		l-0.5-0.8l-0.5-0.8l-0.3-0.8c0-1.1,0.8-1.9,2.2-2.7c1.1-0.5,2.4-0.8,3.5-0.8c2.2,0,3.5,0.5,4.6,1.9c1.1,1.1,1.6,3,1.6,5.2
		c0,1.9-0.5,3.8-1.6,5.7c-0.3,0.5-0.8,1.4-1.6,2.2c-0.8,0.8-1.6,1.9-2.7,3.3c-1.4,1.6-2.7,3-3.8,4.1c-1.1,1.1-1.9,2.2-2.4,3
		c-1.9,2.7-3.3,5.2-3.5,7h18.7l2.4-8.9L1249.8,608z"/>
	<path style="fill:#231F20;" d="M1372.8,598c0.5,1.1,0.8,2.4,0.8,4.1V614c0,1.1-0.3,1.9-0.5,2.4c-0.5,0.5-1.6,0.8-3.3,0.8v1.4h11.1
		v-1.4c-2.4,0-3.8-1.1-3.8-3.5v-13.6c0-1.6-0.5-3.3-1.4-4.6c-1.4-1.9-3.3-2.7-5.7-2.7c-3.3,0-6.2,1.9-9.2,5.4
		c-1.1-3.5-3.3-5.2-6.8-5.2c-2.2,0-4.1,0.5-5.7,1.9l-3.3,3v-5.4c-3.8,1.4-6.5,2.4-8.1,2.7v1.4c2.7,0,4.1,0.8,4.1,2.2v16
		c0,0.8-0.3,1.4-0.5,1.6c-0.5,0.5-1.6,0.8-3.5,0.8v1.4h11.7v-1.4c-1.6,0-2.7-0.3-3.3-0.8c-0.3-0.3-0.5-0.8-0.5-1.6v-15.2
		c1.4-1.4,2.4-2.4,2.7-2.4c1.4-0.8,2.7-1.4,4.6-1.4c2.2,0,3.5,0.8,4.3,2.2c0.3,0.8,0.5,2.4,0.5,4.6v11.9c0,1.1-0.3,1.9-0.5,2.2
		c-0.3,0.3-1.4,0.5-3.3,0.5v1.4h11.9v-1.4c-2.7,0-4.3-0.8-4.3-2.4v-15.2c0.5-0.5,1.1-1.1,1.6-1.6l1.4-1.1c1.4-0.8,2.7-1.4,4.3-1.4
		C1370.7,595.5,1372,596.3,1372.8,598z M1314,579.3c-2.2,0.8-3.8,1.4-5.2,1.9c-1.4,0.5-2.4,0.8-3,0.8v1.1c1.4,0,2.4,0.3,3.3,1.1
		c0.5,0.5,1.1,1.4,1.1,2.2v27.4c0,2.4-1.1,3.5-3.3,3.5v1.4h11.1v-1.4c-2.4,0-3.8-1.1-3.8-3.5v-4.9l4.1-3.5l6,8.4
		c0.5,0.8,0.8,1.6,0.8,2.2c0,1.1-0.8,1.4-2.7,1.4v1.4h11.9v-1.4c-1.9,0-3.3-0.5-4.3-2.2l-9.2-12.5l5.7-5.4c1.6-1.6,3.8-2.4,6.5-2.4
		v-1.4h-11.9v1.4c1.9,0,2.7,0.5,2.7,1.6c0,0.8-0.3,1.6-1.1,2.2l-8.7,7.9V579.3L1314,579.3z"/>
	<path style="fill:#231F20;" d="M1139.7,666.6l0.5,0.3l0.5,0.8c0.3,0.8,0,1.4-0.8,1.6c-3.3,0.8-6.5,1.1-10,1.1l0.5,0.5l0.3,0.8v7
		c5.7,0,11.4-0.3,16.3-0.8l0.3,0.3l0.3,1.1c0,1.1-0.3,1.4-0.5,1.4c-4.9,0.5-10.3,0.8-16.3,0.8s-12.2,0-19-0.5l-0.5-0.3
		c0-0.3-0.3-0.5,0-1.1v-1.1l0.3-0.3c5.2,0.5,10.6,0.8,16.3,0.8v-7.3v-0.5l0.5-0.3c-2.2,0-4.3,0-6.5-0.3c-1.9-0.3-3-1.1-3.3-3
		s-0.3-4.3,0-7c0-0.8,0.3-1.4,0.5-1.6c0.3-0.3,0.8-0.8,1.6-0.8c3.8-0.3,8.1-0.5,13.3-0.5c0.5,0,1.1-0.3,1.6-0.8
		c0.5-1.1,0.8-2.2,0.8-3l-0.5-1.1l-1.1-0.5c-6.8-0.5-11.9-1.6-14.9-2.7c-0.5,0-0.8-0.5-0.5-1.4c0-0.8,0.5-1.1,1.4-0.8
		c3.5,1.1,9.2,2.2,16.8,3.3l1.1,0.5l0.5,1.1c0,1.1,0,2.2-0.3,3.3s-0.5,2.2-1.1,3c-0.5,0.5-1.1,1.1-1.9,1.1c-2.4,0.5-6.8,0.8-13,0.8
		l-1.1,0.5c-0.3,0.3-0.5,0.8-0.5,1.4c0,0.8-0.3,1.4,0,1.9c0,0.8,0,1.4,0.3,1.9c0.3,1.4,1.1,1.9,2.4,1.9c3.3,0,6,0,8.7,0
		C1135.7,667.4,1137.8,666.8,1139.7,666.6z M1097.7,685.3c-0.3-4.9-2.4-7.3-6.8-7.6c-1.1,0-2.2,0.3-3,0.5c-0.8,0.3-1.6,0.8-2.4,1.4
		c-0.8,0.8-1.4,1.4-1.6,2.2s-0.5,1.6-0.5,2.7c0,2.2,0.5,3.8,1.9,5.2c0.5,0.8,1.4,1.1,2.2,1.6c0.8,0.3,1.6,0.5,2.7,0.5
		c0.8,0,1.9-0.3,2.7-0.3c0.8-0.3,1.6-0.8,2.4-1.4c0.5-0.5,1.1-1.1,1.6-2.2C1097.4,687.2,1097.7,686.4,1097.7,685.3z M1090.9,675
		c2.4,0,4.6,0.8,6.5,2.4c1.6,1.6,2.7,4.1,3,7c0,1.4-0.3,2.4-0.5,3.5c-0.5,1.1-1.1,2.2-1.6,3c-1.6,1.9-4.3,3-7.9,3
		c-2.7,0-4.9-1.1-6.5-2.7c-0.8-0.8-1.6-1.9-1.9-3c-0.5-1.1-0.5-2.4-0.5-4.1c0-2.2,0.8-4.1,2.4-6.2c0.8-0.8,1.6-1.6,3-2.2
		C1087.7,675.5,1089.3,675.2,1090.9,675z M1101.5,647.6c0.8,8.1,0.8,16.3-0.3,24.4l-0.5,1.1l-0.8,0.3c-0.8,0-1.1-0.3-1.1-1.1
		c0-1.4,0.3-3,0.3-4.3c0-1.4,0.3-2.7,0.3-4.3h-6.5l-0.8-0.3l-0.3-0.8l0.3-0.8l0.8-0.3h6.8c0-1.1,0-1.9,0-2.7s0-1.6,0-2.7h-6.8
		l-0.8-0.3l-0.3-0.8c0-0.8,0.3-1.1,1.1-1.1h6.5c0-1.1-0.3-2.2-0.3-3.3s-0.3-2.2-0.3-3c0-0.5,0.3-0.8,1.1-1.1
		C1100.7,646.5,1101.2,646.8,1101.5,647.6z M1088.2,653c-0.8,6-2.7,11.7-5.2,17.1l-0.8,0.8l-1.1-0.3c-1.1-0.3-1.4-0.8-1.1-1.1
		c0.8-1.6,1.6-3.8,2.4-6c0.8-2.4,1.6-4.9,2.4-8.1c0.3-0.8,0.3-1.4-0.3-1.9c-0.3-0.3-1.1-0.5-1.9-0.8c-2.2,0-4.1-0.3-6-0.5
		c-1.9-0.3-3.8-0.8-5.4-1.4l-0.8-0.8v-1c0-0.8,0.3-1.1,0.8-1.1c1.4,0.5,3.3,1.1,5.7,1.4c2.4,0.3,5.4,0.5,8.9,0.8
		C1087.4,650.6,1087.9,651.4,1088.2,653z M1042.9,686.9h0.8l0.5,0.8c0.3,0.8,0,1.4-0.5,1.6c-3,1.1-8.7,1.6-17.6,1.4
		c-0.5-0.3-1.1-0.5-1.6-1.1c-0.5-0.5-0.8-1.1-1.1-2.2c-0.3-1.1-0.5-2.4-0.5-4.1c0-1.4,0-3,0-4.9l0.3-0.5l1.1-0.3
		c0.8,0,1.1,0.5,1.1,1.1c0,3,0,5.2,0.5,6.8c0.3,1.4,1.1,2.2,2.2,2.4c3.3,0.3,6,0.3,8.4,0C1039.2,688,1041.3,687.4,1042.9,686.9z
		 M1041.3,660.9h-7.3l-1.1-0.3l-0.3-0.8c0-0.8,0.3-1.1,1.1-1.1h7.3c0-1.9-0.3-3.8-0.3-5.7s-0.3-3.8-0.3-5.4l0.3-0.8l0.8-0.3
		c0.8,0,1.4,0.5,1.4,1.1c0.8,11.7,0.8,22-0.3,30.6c-0.3,1.1-0.5,1.4-1.4,1.4l-1.1-0.3l-0.3-0.8
		C1041.1,673.6,1041.3,667.7,1041.3,660.9z M1027.5,648.1c0.3,0,0.5,0.5,0.3,1.4c-0.3,0.8-0.5,1.1-1.1,1.1c-1.6,0-3.3-0.3-4.6-0.8
		c-1.6-0.3-3-0.8-4.3-1.4c-0.8-0.3-1.1-0.8-0.8-1.6c0-0.8,0.3-1.1,0.8-1.1C1020.7,647.1,1024,647.9,1027.5,648.1z M1034,670.6v0.3
		l-0.3,0.8l-0.5,0.8h-0.8c-3.5-1.4-7-3.3-10.6-5.4c-1.1,1.4-2.2,2.4-3.3,3.5s-2.2,2.2-3.5,3c-0.5,0.5-1.1,0.5-1.9,0
		c-0.8-0.5-1.1-0.8-1.1-0.8c5.4-4.3,9.5-8.9,12.2-13.6v-1.1c-0.3-0.3-0.5-0.3-1.4-0.5c-1.6,0-3.3-0.3-4.9-0.3
		c-1.6-0.3-3.5-0.5-5.2-0.8c-0.3,0-0.3-0.3,0-1.4l0.3-0.8l0.5-0.3c1.6,0.5,3.5,0.8,5.7,1.1s4.6,0.5,7,0.8c1.4,0.3,1.9,0.8,1.6,1.6
		c-1.1,2.7-2.7,5.4-4.9,7.9C1026.4,666.8,1029.9,668.7,1034,670.6z M1004.5,673.1c0.3,0,0.5,0.5,0.5,1.4v1.1l-0.3,0.3
		c-4.9,0.3-10.3,0.5-16.3,0.3l0.3,10.6l-0.3,0.3h-1.1c-1.1,0-1.4,0-1.4,0l-0.3-10.8c-2.7,0-5.4,0-8.1-0.3c-2.7,0-5.4-0.3-7.9-0.3
		c-0.5,0-0.8-0.3-0.8-1.1l0.3-0.8l0.3-0.3c6.5,0.3,12.7,0.5,18.4,0.3C993.3,673.6,999,673.3,1004.5,673.1z M992.3,649l0.3,0.3v0.8
		c-0.3,0.8-0.5,1.1-1.1,1.1c-3.8-0.5-6.8-1.6-9.5-3c-0.8-0.8-1.4-1.4-0.8-2.2c0.3-0.5,0.5-0.8,0.8-0.8
		C984.7,647.1,988.2,648.4,992.3,649z M1000.1,666.3c0.3,0.3,0.3,0.8,0,1.4c-0.3,0.8-0.8,1.1-1.4,0.8c-1.6-0.3-3.5-1.1-5.4-1.9
		c-1.9-0.8-3.8-1.9-5.4-3.3c-3.5,2.2-7.9,3.8-12.5,4.9c-0.5,0.3-1.1,0-1.6-0.8s-0.5-1.4-0.3-1.4c3.5-1.1,6.5-2.2,9.2-3.5
		c2.4-1.1,4.3-2.2,5.7-3c1.9-1.1,1.6-1.9-1.1-1.9c-3.3,0-7-0.5-11.7-1.6c-0.5,0-0.5-0.5-0.3-1.4c0-0.8,0.3-1.1,0.8-1.1
		c5.2,0.8,10.8,1.6,17.1,2.2c0.8,0.3,1.4,0.5,1.6,0.8c0.3,0.3,0.3,0.8,0,1.4c-1.1,1.4-2.4,2.7-4.6,3.8
		C993.6,663.6,996.6,665.2,1000.1,666.3z"/>
	<path style="fill:#231F20;" d="M1207.2,670.1c-0.3,5.4-2.2,10-5.7,13.3c-3.5,3.5-8.1,5.4-13.3,5.4c-5.7,0-10.3-1.9-13.6-5.4
		c-3.5-3.5-5.4-7.9-5.7-13.3c0-5.4,1.9-9.8,5.7-13.6c3.5-3.5,8.1-5.4,13.6-5.4c5.2,0,9.5,1.9,13.3,5.4
		C1205,660.1,1206.9,664.7,1207.2,670.1z M1205.6,670.1c-0.3-4.9-1.9-8.9-5.2-12.5c-3.5-3.3-7.3-4.9-12.2-5.2
		c-5.2,0.3-9.2,1.9-12.5,5.2c-3.5,3.5-5.2,7.6-4.9,12.5c0,4.9,1.6,8.9,4.9,12.2c3.3,3.5,7.6,5.2,12.5,5.2s8.7-1.9,12.2-5.2
		C1203.7,679,1205.3,675,1205.6,670.1z M1197.7,681.7l-0.3,0.5l-0.3,0.3l-12.2-0.3c-1.9,0-3-0.3-3.5-0.8s-0.8-1.4-0.5-2.4
		c0.5-2.2,2.7-4.9,6.2-7.3c3.5-2.4,5.4-4.3,5.7-6c0-1.1-0.5-2.4-1.9-4.1c-1.4-1.4-3-2.4-4.9-3c-2.7-0.5-4.3-0.8-4.6-0.8l0,0v-0.3
		V657l0.5-0.5c0.3-0.3,1.1-0.3,1.6-0.3c0.8,0,1.6,0.3,2.7,0.5c1.1,0.5,2.2,0.8,3,1.1c0.8,0.5,1.6,0.8,2.2,1.1c1.1,0.8,2.2,2.2,3,3.5
		c0.5,1.1,0.8,2.2,0.8,3c-0.3,0.8-0.5,1.9-1.1,2.7c-0.5,0.8-1.4,1.6-2.4,2.4c-2.2,1.4-3.8,2.7-5.4,4.3s-3,3.3-4.1,4.9l14.9,0.3
		l0.3,0.3v1.4L1197.7,681.7L1197.7,681.7z"/>
	<path style="fill:#231F20;" d="M1287.4,651.9c-1.9-1.6-3.8-2.4-6.2-2.4c-3,0-5.4,0.8-7.3,2.7c-1.9,1.6-2.7,3.8-2.7,6
		c0,3.5,2.2,6.5,6.2,8.7c-1.9,0.8-3.5,1.9-4.9,3.3c-1.6,1.9-2.4,3.8-2.4,5.7c0,2.4,1.1,4.6,3.5,6.2c2.2,1.6,4.3,2.2,7,2.2
		c2.4,0,4.9-0.5,7-1.9c2.7-1.6,4.1-4.1,4.1-7c0-4.6-2.4-7.9-7.3-10c4.1-2.2,6.2-4.6,6.2-7.6C1290.2,655.5,1289.3,653.6,1287.4,651.9
		z M1286.9,680.4c-1.4,1.4-3.5,2.2-6,2.2s-4.1-0.8-5.4-2.2c-1.1-1.1-1.6-2.7-1.6-4.3c0-4.1,1.6-6.8,5.2-8.4l4.1,1.9
		c0.8,0.5,1.6,0.8,2.2,1.4c0.5,0.5,1.1,0.8,1.6,1.4c1.1,1.1,1.6,2.4,1.6,4.1C1288.5,677.7,1288,679,1286.9,680.4z M1276.3,652.2
		c1.4-1.1,2.7-1.6,4.3-1.6c1.9,0,3.3,0.8,4.6,2.2c1.1,1.4,1.6,2.7,1.6,4.3c0,3.3-1.4,5.7-4.1,7.3l-5.7-3c-1.9-1.4-3-2.7-3-4.6
		C1274.2,654.9,1275,653.6,1276.3,652.2z M1263,686.4c0.8-0.8,1.1-1.4,1.1-2.4c0-1.1-0.3-1.9-1.1-2.7c-0.8-0.8-1.6-1.1-2.4-1.1
		c-1.1,0-1.9,0.3-2.4,1.1c-0.8,0.8-1.1,1.6-1.1,2.4c0,1.1,0.3,1.9,1.1,2.4c0.8,0.8,1.6,1.1,2.4,1.1
		C1261.4,687.4,1262.2,687.2,1263,686.4z M1231.9,653.3c3.3,0,5.4,0,6,0.3c0.8,0.3,1.4,0.8,1.4,1.6v23.3c0,1.1-0.3,1.6-0.8,2.2
		c-1.1,0.8-3.3,1.1-6.5,1.1v1.4h18.4v-1.4c-3.3,0-5.4-0.3-6.5-1.1c-0.5-0.5-0.8-1.1-0.8-1.9V649c-2.2,0.8-4.1,1.6-5.7,2.2
		c-1.9,0.5-3.5,0.8-5.4,1.1L1231.9,653.3L1231.9,653.3z"/>
	<path style="fill:#231F20;" d="M1372.8,663.6c0.5,1.1,0.8,2.4,0.8,4.1v11.9c0,1.1-0.3,1.9-0.5,2.4c-0.5,0.5-1.6,0.8-3.3,0.8v1.4
		h11.1v-1.4c-2.4,0-3.8-1.1-3.8-3.5v-13.6c0-1.6-0.5-3.3-1.4-4.6c-1.4-1.9-3.3-2.7-5.7-2.7c-3.3,0-6.2,1.9-9.2,5.4
		c-1.1-3.5-3.3-5.2-6.8-5.2c-2.2,0-4.1,0.5-5.7,1.9l-3.3,3v-5.4c-3.8,1.4-6.5,2.4-8.1,2.7v1.4c2.7,0,4.1,0.8,4.1,2.2v16
		c0,0.8-0.3,1.4-0.5,1.6c-0.5,0.5-1.6,0.8-3.5,0.8v1.4h11.7v-1.4c-1.6,0-2.7-0.3-3.3-0.8c-0.3-0.3-0.5-0.8-0.5-1.6v-15.2
		c1.4-1.4,2.4-2.4,2.7-2.4c1.4-0.8,2.7-1.4,4.6-1.4c2.2,0,3.5,0.8,4.3,2.2c0.3,0.8,0.5,2.4,0.5,4.6v11.9c0,1.1-0.3,1.9-0.5,2.2
		c-0.3,0.3-1.4,0.5-3.3,0.5v1.4h11.9v-1.4c-2.7,0-4.3-0.8-4.3-2.4v-15.2c0.5-0.5,1.1-1.1,1.6-1.6l1.4-1.1c1.4-0.8,2.7-1.4,4.3-1.4
		C1370.7,661.1,1372,662,1372.8,663.6z M1314,644.9c-2.2,0.8-3.8,1.4-5.2,1.9c-1.4,0.5-2.4,0.8-3,0.8v1.1c1.4,0,2.4,0.3,3.3,1.1
		c0.5,0.5,1.1,1.4,1.1,2.2v27.4c0,2.4-1.1,3.5-3.3,3.5v1.4h11.1v-1.4c-2.4,0-3.8-1.1-3.8-3.5v-4.9l4.1-3.5l6,8.4
		c0.5,0.8,0.8,1.6,0.8,2.2c0,1.1-0.8,1.4-2.7,1.4v1.4h11.9V683c-1.9,0-3.3-0.5-4.3-2.2l-9.2-12.5l5.7-5.4c1.6-1.6,3.8-2.4,6.5-2.4
		V659h-11.9v1.4c1.9,0,2.7,0.5,2.7,1.6c0,0.8-0.3,1.6-1.1,2.2l-8.7,7.9V644.9L1314,644.9z"/>
</g>
<g>
	<path d="M962.6,375.5c0.4,0,0.7,0.1,0.8,0.2c0.1,0.1,0.2,0.4,0.2,0.8c-0.6,5.4-2.6,9.9-6,13.5c-3.4,3.6-8,6.4-13.7,8.3l-2.5-2.8
		c2.1-0.6,4.1-1.4,6-2.3c1.9-0.9,3.7-2.1,5.4-3.5c1.6-1.4,3-2.9,4.1-4.7c1.1-1.8,1.9-3.8,2.4-6.2H944v-3.4H962.6z M977.4,409
		c0,2.7-1.4,4.8-4.1,6.3c-2.7,1.6-6.4,2.4-10.9,2.4c-2.3,0-4.4-0.2-6.2-0.6c-1.8-0.4-3.4-1-4.7-1.7c-1.3-0.8-2.3-1.7-3-2.7
		c-0.7-1.1-1-2.3-1-3.6c0-2.6,1.3-4.8,4-6.4c2.7-1.6,6.3-2.4,10.9-2.4c4.6,0,8.2,0.8,10.9,2.4C976.1,404.3,977.4,406.4,977.4,409z
		 M973.4,409.1c0-1.7-1-3.1-3.1-4.2c-2.3-1-4.9-1.6-7.8-1.6c-3.2,0-5.8,0.5-7.8,1.5c-2,1-3,2.4-3,4.1c0,1.7,1,3.1,3,4.2
		c2,1,4.6,1.5,7.8,1.5c3.2,0,5.8-0.5,7.8-1.5C972.3,412.1,973.4,410.8,973.4,409.1z M976.8,399.5h-3.9v-7.1H964v-3.2h8.9V383h-7.8
		v-3.2h7.8v-6.3h3.9V399.5z"/>
	<path d="M1022.8,399.4h-39.8v-3.3h17.9v-5.4h-11.7c-0.4,0-0.7-0.1-0.8-0.2c-0.1-0.1-0.2-0.4-0.2-0.8v-15.8h3.8v4.9h21.7v-4.9h3.8
		v15.8c0,0.4-0.1,0.7-0.2,0.8c-0.1,0.1-0.4,0.2-0.8,0.2h-11.7v5.4h17.9V399.4z M1017.5,417.2h-3.9V407h-25.7v-3.3h28.6
		c0.4,0,0.7,0.1,0.8,0.2c0.1,0.1,0.2,0.4,0.2,0.8V417.2z M1013.8,387.4V382h-21.7v5.4H1013.8z"/>
	<path d="M1065.5,394.1h-17.9v6.5c4.4,0.2,7.8,1.1,10.2,2.7c2.4,1.6,3.5,3.5,3.5,5.9c0,1.3-0.3,2.4-1,3.5c-0.7,1-1.7,2-3,2.7
		c-1.3,0.8-3,1.4-4.9,1.8s-4.2,0.6-6.7,0.6c-5,0-8.9-0.8-11.6-2.5c-2.7-1.6-4.1-3.7-4.1-6.2c0-1.1,0.3-2.2,0.9-3.2
		c0.6-1,1.5-1.9,2.6-2.6c1.1-0.8,2.6-1.4,4.2-1.9c1.7-0.5,3.6-0.8,5.8-0.9v-6.5h-17.7v-3.3h29.4c0.2-0.9,0.4-1.9,0.6-3.1l0.6-3.4
		c0.2-1.1,0.3-2.3,0.4-3.3c0.1-1.1,0.2-2,0.3-2.8h-26.6v-3.3h29.6c0.4,0,0.7,0.1,0.8,0.2c0.1,0.1,0.2,0.4,0.2,0.8
		c-0.1,1-0.2,2.2-0.3,3.5c-0.2,1.3-0.3,2.6-0.5,3.9c-0.2,1.4-0.4,2.7-0.7,4c-0.2,1.3-0.5,2.5-0.7,3.6h6.7L1065.5,394.1z
		 M1057.1,409.1c0-1.7-1.1-3.1-3.2-4c-2.4-0.9-5.1-1.4-8.2-1.4c-3.4,0-6.2,0.5-8.3,1.4c-2.1,0.9-3.1,2.3-3.1,4c0,1.9,1,3.3,3.1,4.2
		c2.1,0.9,4.8,1.4,8.3,1.4c3.1,0,5.8-0.5,8.2-1.4C1056,412.3,1057.1,410.9,1057.1,409.1z"/>
</g>
<g>
	<path d="M1373.8,559.2h-4v-10.9h-25.7V545h13v-6h-17.8v-3.3h39.8v3.3h-18v6h11.7c0.4,0,0.7,0.1,0.8,0.2c0.1,0.1,0.2,0.4,0.2,0.8
		V559.2z M1374.5,532.3c-1.5-0.3-2.9-0.8-4.4-1.4c-1.5-0.6-2.9-1.3-4.3-2.2c-1.4-0.8-2.6-1.7-3.8-2.8c-1.1-1-2.1-2.2-2.7-3.4
		c-0.7,1.2-1.6,2.4-2.7,3.4c-1.1,1-2.3,2-3.7,2.8c-1.4,0.8-2.8,1.5-4.3,2.1s-3,1.1-4.6,1.4l-2.5-2.9c2-0.4,3.9-1,5.8-1.8
		c1.9-0.8,3.6-1.6,5-2.7c1.5-1,2.6-2.2,3.5-3.5c0.9-1.3,1.3-2.7,1.3-4.3v-1.7h4.3v1.7c0,1.7,0.5,3.2,1.5,4.5c1,1.3,2.3,2.5,3.8,3.6
		c1.6,1,3.3,1.9,5.1,2.6c1.8,0.7,3.6,1.2,5.3,1.6L1374.5,532.3z"/>
	<path d="M1421.9,553.4H1382v-3.3h17.9v-10.9h4v10.9h18V553.4z M1417.4,540.7c-1.6-0.6-3.1-1.3-4.7-2.2c-1.6-0.9-3-1.9-4.4-3
		c-1.4-1.1-2.6-2.4-3.7-3.7c-1.1-1.3-2-2.7-2.6-4.3c-0.7,1.5-1.6,3-2.6,4.3c-1.1,1.3-2.3,2.5-3.6,3.7c-1.3,1.1-2.8,2.1-4.3,3
		c-1.6,0.9-3.2,1.6-4.8,2.3l-2.9-3c2-0.6,3.9-1.4,5.8-2.5c1.9-1.1,3.6-2.4,5.1-3.8c1.6-1.5,2.8-3.1,3.7-4.9c0.9-1.8,1.4-3.7,1.4-5.8
		v-3.6h4.2v3.6c0,2,0.5,3.9,1.4,5.7c1,1.8,2.2,3.5,3.8,5c1.6,1.5,3.3,2.8,5.2,3.8c1.9,1.1,3.7,1.9,5.6,2.4L1417.4,540.7z"/>
</g>
<g>
	<path d="M1110.6,447.5c-2,2.4-4.4,4.3-7.3,5.7c-2.9,1.4-6,2.1-9.3,2.1c-3,0-5.8-0.6-8.4-1.7s-4.9-2.7-6.9-4.6c-2-2-3.5-4.2-4.6-6.9
		c-1.1-2.6-1.7-5.4-1.7-8.4c0-3,0.6-5.8,1.7-8.4c1.1-2.6,2.7-4.9,4.7-6.9c2-1.9,4.2-3.5,6.9-4.6c2.6-1.1,5.4-1.7,8.3-1.7
		c2.9,0,5.7,0.6,8.3,1.7c2.6,1.1,4.9,2.7,6.9,4.6c2,1.9,3.5,4.2,4.7,6.9c1.1,2.6,1.7,5.4,1.7,8.4c0,2.7-0.6,5.5-1.7,8.4
		C1113,444.1,1112,445.9,1110.6,447.5z M1106.5,448.9c2.2-1.8,3.9-4,5.2-6.6c1.3-2.6,1.9-5.5,1.9-8.5c0-2.7-0.5-5.3-1.6-7.7
		c-1-2.4-2.5-4.5-4.2-6.2c-1.8-1.8-3.9-3.2-6.2-4.2c-2.4-1-4.9-1.5-7.6-1.5s-5.2,0.5-7.6,1.5c-2.4,1-4.5,2.4-6.2,4.2
		c-1.8,1.8-3.2,3.9-4.2,6.2c-1,2.4-1.6,4.9-1.6,7.7c0,2.7,0.5,5.3,1.5,7.6s2.4,4.5,4.2,6.2s3.9,3.2,6.2,4.2c2.4,1,4.9,1.5,7.6,1.5
		c2.5,0,5-0.5,7.6-1.6C1103.4,451.1,1105,450.2,1106.5,448.9z M1096.1,445.8h-3v-21.3c-1.1,1.2-2.8,2.4-4.9,3.4v-3
		c2-1,3.7-2.4,5.2-4h1.9c0.3,0,0.5,0.1,0.7,0.2c0.1,0.1,0.2,0.4,0.2,0.7V445.8z"/>
</g>
<g>
	<path d="M1110.6,513.5c-2,2.4-4.4,4.3-7.3,5.7c-2.9,1.4-6,2.1-9.3,2.1c-3,0-5.8-0.6-8.4-1.7s-4.9-2.7-6.9-4.6c-2-2-3.5-4.2-4.6-6.9
		c-1.1-2.6-1.7-5.4-1.7-8.4c0-3,0.6-5.8,1.7-8.4c1.1-2.6,2.7-4.9,4.7-6.9c2-1.9,4.2-3.5,6.9-4.6s5.4-1.7,8.3-1.7
		c2.9,0,5.7,0.6,8.3,1.7s4.9,2.7,6.9,4.6c2,1.9,3.5,4.2,4.7,6.9c1.1,2.6,1.7,5.4,1.7,8.4c0,2.7-0.6,5.5-1.7,8.4
		C1113,510.2,1112,511.9,1110.6,513.5z M1106.5,514.9c2.2-1.8,3.9-4,5.2-6.6c1.3-2.6,1.9-5.5,1.9-8.5c0-2.7-0.5-5.3-1.6-7.7
		c-1-2.4-2.5-4.5-4.2-6.2c-1.8-1.8-3.9-3.2-6.2-4.2c-2.4-1-4.9-1.5-7.6-1.5s-5.2,0.5-7.6,1.5c-2.4,1-4.5,2.4-6.2,4.2
		c-1.8,1.8-3.2,3.9-4.2,6.2c-1,2.4-1.6,4.9-1.6,7.7c0,2.7,0.5,5.3,1.5,7.6s2.4,4.5,4.2,6.2s3.9,3.2,6.2,4.2c2.4,1,4.9,1.5,7.6,1.5
		c2.5,0,5-0.5,7.6-1.6C1103.4,517.1,1105,516.2,1106.5,514.9z M1101.6,511.8h-14.2c-0.3,0-0.5,0-0.6-0.1s-0.1-0.3-0.1-0.6V509
		c0.5-0.5,1.1-1.1,1.9-1.9c0.8-0.8,1.6-1.6,2.4-2.6c0.8-0.9,1.7-1.9,2.5-3c0.8-1,1.6-2,2.3-3s1.2-1.9,1.6-2.8
		c0.4-0.9,0.6-1.7,0.6-2.3c0-1.5-0.3-2.5-1.1-3.2c-0.8-0.7-1.8-1-3-1c-1.2,0-2.2,0.4-2.9,1.3c-0.7,0.9-1.1,2.1-1.1,3.5h-3
		c0-1.1,0.2-2.2,0.5-3.1s0.9-1.7,1.5-2.4s1.4-1.2,2.3-1.5c0.9-0.4,1.8-0.5,2.8-0.5c2.1,0,3.8,0.5,5.1,1.6c1.4,1.1,2,2.8,2,5
		c0,1.3-0.3,2.6-1,3.9c-0.7,1.4-1.5,2.7-2.5,4c-1,1.3-2.1,2.6-3.2,3.8c-1.1,1.2-2.1,2.3-3.1,3.2l-1,1.1h11.3V511.8z"/>
</g>
</svg>
