
<svg xmlns="http://www.w3.org/2000/svg" version="1.1" xmlns:xlink="http://www.w3.org/1999/xlink" preserveAspectRatio="none" x="0px" y="0px" width="1280px" height="720px" viewBox="0 0 1280 720">
<defs>
<g id="Layer2_0_FILL">
<path fill="#FFFFFF" stroke="none" d="
M 269.5 518.05
Q 269.5 498.05 249.5 498.05
L 70.5 498.05
Q 50.5 498.05 50.5 518.05
L 50.5 550.05
Q 50.5 570.05 70.5 570.05
L 249.5 570.05
Q 269.5 570.05 269.5 550.05
L 269.5 518.05
M 72.3 517.85
Q 74.25 517.85 75.85 518.4 77.5 518.95 78.65 520 79.8 521.05 80.5 522.65 81.2 524.25 81.2 526.35 81.2 528.15 80.4 530 79.6 531.85 78.4 533.65 77.2 535.4 75.85 537.05 74.45 538.65 73.35 539.95 72.5 541.05 71.5 542.25 70.5 543.4 69.5 544.55
L 81.25 544.55
Q 81.8 544.55 81.8 545.15
L 81.8 547.95
Q 81.8 548.65 81.25 548.65
L 64.2 548.65
Q 63.45 548.65 63.45 548.15
L 63.45 545.85
Q 63.45 545.55 63.6 545.2 63.8 544.9 64 544.6
L 70.1 537.35
Q 73.45 533.4 75.05 530.75 76.65 528.15 76.65 526.45 76.65 524.55 75.45 523.3 74.3 522.05 72.55 522.05 70.9 522.05 69.35 522.5 67.85 522.95 66.05 524 65.7 524.2 65.4 524.2 65.1 524.15 65 523.8
L 64.45 520.75
Q 64.35 520.55 64.45 520.4 64.6 520.15 65 519.95 66.5 519.15 68.45 518.5 70.45 517.85 72.3 517.85
M 112.85 518.1
Q 113.65 518.6 113.65 519.55 113.65 520.95 111.7 523.2 109.8 525.4 107.4 527.35 108.4 527.8 109.7 528.4 111.05 529 112.35 529.6 113.7 530.1 114.95 530.6 116.2 531.05 117.1 531.35 117.75 531.55 117.45 532.15
L 116.4 534.75
Q 116.3 535 115.95 535.1 115.65 535.15 115.35 535.1 114.15 534.7 112.75 534.15 111.3 533.6 109.8 532.9 108.25 532.2 106.7 531.45 105.2 530.7 103.75 529.9 100.7 531.75 97.25 533.25 93.8 534.75 90.15 535.75 89.85 535.8 89.55 535.75 89.15 535.65 89.1 535.45
L 88.15 533
Q 88.05 532.7 88.25 532.35 88.4 532.05 88.65 532 94.8 530.1 99.35 527.6 103.85 525.1 106.6 522.25 107.05 521.8 107.05 521.6 107.05 521.4 106.45 521.4
L 91.2 521.4
Q 90.65 521.4 90.65 520.9
L 90.65 518.1
Q 90.65 517.6 91.2 517.6
L 110.45 517.6
Q 112.1 517.6 112.85 518.1
M 84.65 543
Q 84.65 542.45 85.25 542.45
L 100.3 542.45 100.3 534.95
Q 100.3 534.4 100.85 534.4
L 104.35 534.4
Q 104.6 534.4 104.75 534.6 104.95 534.75 104.95 534.95
L 104.95 542.45 120.05 542.45
Q 120.25 542.45 120.45 542.6 120.65 542.8 120.65 543
L 120.65 545.7
Q 120.65 545.9 120.45 546.1 120.25 546.3 120.05 546.3
L 85.25 546.3
Q 84.95 546.3 84.8 546.1 84.65 545.9 84.65 545.7
L 84.65 543
M 142 517.85
Q 144 517.85 145.7 518.35 147.4 518.9 148.6 519.85 149.8 520.8 150.5 522.2 151.2 523.6 151.2 525.35 151.2 527.35 149.95 529.15 148.7 530.9 146.1 532.7 147.5 533.55 148.65 534.3 149.75 535.1 150.55 536 151.35 536.9 151.75 537.95 152.2 538.95 152.2 540.35 152.2 542.5 151.3 544.1 150.45 545.75 149.05 546.8 147.65 547.85 145.75 548.4 143.95 548.95 142 548.95 140.2 548.95 138.35 548.4 136.55 547.85 135.1 546.8 133.65 545.75 132.75 544.1 131.85 542.5 131.85 540.35 131.85 538.85 132.3 537.7 132.85 536.55 133.65 535.65 134.45 534.75 135.55 534.05 136.65 533.35 137.85 532.75 135.45 531.35 134.05 529.55 132.65 527.75 132.65 525.45 132.65 523.75 133.4 522.35 134.15 520.95 135.4 519.95 136.65 518.95 138.35 518.4 140.05 517.85 142 517.85
M 162.05 519.15
Q 164.6 517.85 168.35 517.85 169.5 517.85 170.9 518.05 172.35 518.25 173.25 518.6 173.6 518.7 173.55 519.1
L 173.45 522.3
Q 173.35 522.85 172.8 522.6 171.75 522.2 170.6 522.1 169.4 522 168 522 165.95 522 164.45 522.65 163 523.35 162 524.6 161 525.85 160.45 527.5 159.85 529.2 159.6 531.15 159.95 530.65 160.55 530.2 161.15 529.75 161.9 529.4 162.65 529.05 163.45 528.85 164.25 528.6 165 528.6 167.2 528.6 168.95 529.3 170.75 530 172 531.3 173.3 532.6 174 534.45 174.7 536.25 174.7 538.55 174.7 540.75 174 542.6 173.35 544.55 172.05 545.9 170.75 547.35 168.9 548.15 167.05 548.95 164.75 548.95 160.05 548.95 157.5 545.4 154.95 541.85 154.95 534.4 154.95 531 155.65 528 156.35 524.95 157.9 522.75 159.5 520.5 162.05 519.15
M 195 518.15
Q 195.25 518.15 195.4 518.35 195.5 518.5 195.5 518.7
L 195.5 521.75
Q 195.5 522 195.4 522.15 195.25 522.35 195 522.35
L 183.85 522.35 183.7 529.75
Q 185.3 529.4 187.25 529.4 189.25 529.4 191 530 192.75 530.65 194.05 531.8 195.35 533 196.1 534.7 196.85 536.35 196.85 538.45 196.85 543.5 193.7 546.3 192.3 547.6 190.2 548.25 188.15 548.9 185.85 548.9 185.45 548.9 184.6 548.85 183.8 548.75 182.85 548.65 181.9 548.5 181 548.25 180.05 548.05 179.4 547.75 179.15 547.55 179.1 547.45 179.1 547.3 179.1 547
L 179.1 543.75
Q 179.1 543.05 179.95 543.45 180.5 543.75 181.3 544 182.1 544.2 182.95 544.4 183.8 544.55 184.6 544.6 185.45 544.7 186.15 544.7 188.85 544.7 190.55 543.15 192.35 541.65 192.35 538.95 192.35 536.35 190.9 534.85 189.5 533.3 186.2 533.3 184.9 533.3 183.5 533.6 182.1 533.85 180.85 534.3 179.3 534.95 179.3 533.6
L 179.5 518.85
Q 179.5 518.4 179.65 518.3 179.75 518.15 180.35 518.15
L 195 518.15
M 212.65 518.3
Q 214.4 518.75 215.7 519.65 217.05 520.55 217.9 522.05 218.75 523.55 218.75 525.55 218.75 526.65 218.4 527.75 218 528.8 217.3 529.75 216.6 530.75 215.65 531.5 214.7 532.25 213.6 532.75 216.25 533.9 217.6 535.65 218.95 537.45 218.95 539.65 218.95 541.75 218.15 543.55 217.3 545.3 215.8 546.55 214.3 547.8 212.15 548.35 210 548.95 207.7 548.95 205.95 548.95 204.2 548.65 202.45 548.35 201 547.8 200.6 547.7 200.45 547.5 200.25 547.35 200.3 547
L 200.65 543.95
Q 200.7 543.6 200.9 543.5 201.1 543.35 201.65 543.6 202.7 543.9 203.75 544.2 204.8 544.5 205.9 544.6 206.7 544.65 207.6 544.7 208.5 544.75 209.35 544.65 210.2 544.55 211 544.25 211.75 544 212.4 543.55 214.35 542.2 214.35 539.55 214.35 538.6 213.95 537.75 213.5 536.9 212.65 536.25 211.75 535.55 210.35 535.2 209 534.8 207.05 534.8
L 205.1 534.8
Q 204.75 534.8 204.65 534.7 204.55 534.6 204.55 534.3
L 204.55 531.35
Q 204.55 530.95 204.65 530.9 204.75 530.8 205.1 530.8
L 207 530.8
Q 207.85 530.8 209.1 530.55 210.35 530.3 211.5 529.7 212.7 529.1 213.5 528.15 214.3 527.25 214.3 525.9 214.3 524.9 213.8 524.15 213.25 523.35 212.45 522.9 211.6 522.4 210.65 522.2 209.7 522 208.85 522 208.3 522 207.6 522.1 206.85 522.2 206.05 522.4 205.25 522.55 204.45 522.8 203.65 523.05 203.05 523.3 202.55 523.5 202.35 523.4 202.15 523.3 202.05 522.95
L 201.7 520
Q 201.6 519.75 201.75 519.6 201.9 519.4 202.3 519.2 204.05 518.6 205.75 518.2 207.4 517.85 209.1 517.85 210.9 517.85 212.65 518.3
M 226.5 518.85
Q 227.75 517.6 229.55 516.9 231.3 516.2 233.4 516.2 235.3 516.2 236.9 516.7 238.55 517.3 239.8 518.3 241.05 519.3 241.85 520.65 242.7 522 243 523.6
L 249.1 523.6 249.1 515.35
Q 249.1 515.1 249.3 514.95 249.5 514.8 249.7 514.8
L 253.25 514.8
Q 253.7 514.8 253.7 515.35
L 253.7 535.9
Q 253.7 536.45 253.2 536.45
L 249.65 536.45
Q 249.1 536.45 249.1 535.9
L 249.1 527.4 243 527.4
Q 242.7 529.05 241.85 530.4 241.05 531.7 239.8 532.65 238.55 533.6 236.9 534.15 235.3 534.65 233.4 534.65 231.3 534.65 229.55 533.95 227.75 533.3 226.5 532.1 225.2 530.85 224.55 529.15 223.85 527.45 223.85 525.45 223.85 523.55 224.55 521.8 225.2 520.1 226.5 518.85
M 229.5 538.65
Q 229.7 538.55 229.9 538.55
L 251.05 538.55
Q 252.6 538.55 253.15 539.15 253.7 539.8 253.7 541.35
L 253.7 552.15
Q 253.7 552.35 253.5 552.5 253.35 552.7 253.15 552.7
L 249.7 552.7
Q 249.45 552.7 249.25 552.5 249.1 552.35 249.1 552.15
L 249.1 543.05
Q 249.1 542.6 248.95 542.5 248.8 542.35 248.4 542.35
L 229.9 542.35
Q 229.7 542.35 229.5 542.25 229.3 542.1 229.3 541.9
L 229.3 539.05
Q 229.3 538.75 229.5 538.65
M 238.65 525.55
Q 238.65 523.15 237.2 521.7 235.8 520.3 233.4 520.3 231.15 520.3 229.7 521.7 228.25 523.15 228.25 525.55 228.25 527.95 229.7 529.4 231.15 530.8 233.4 530.8 235.8 530.8 237.2 529.4 238.65 527.95 238.65 525.55
M 170.3 538.75
Q 170.3 535.95 168.95 534.4 167.6 532.8 165.15 532.8 162.55 532.8 161.1 534.35 159.6 535.9 159.6 538.35 159.6 539.75 160 540.9 160.4 542.15 161.1 543.05 161.8 543.95 162.75 544.45 163.75 544.95 164.85 544.95 167.25 544.95 168.8 543.3 170.3 541.6 170.3 538.75
M 140.25 535.6
Q 139.2 536 138.35 536.65 137.5 537.3 136.9 538.2 136.3 539.1 136.3 540.35 136.3 541.35 136.85 542.2 137.35 543.05 138.15 543.65 139 544.25 140 544.6 141.05 544.9 142 544.9 143 544.9 144.05 544.6 145.05 544.3 145.85 543.7 146.65 543.1 147.15 542.25 147.65 541.4 147.65 540.35 147.65 539.6 147.15 538.75 146.65 537.95 145.85 537.2 145 536.5 144 535.9 143 535.3 142 534.95 141.2 535.15 140.25 535.6
M 140.3 522.05
Q 139.45 522.35 138.8 522.85 138.1 523.35 137.65 524.05 137.2 524.8 137.2 525.75 137.2 526.6 137.8 527.4 138.35 528.2 139.1 528.9 139.9 529.6 140.7 530.05 141.5 530.55 142 530.75 142.65 530.5 143.4 529.95 144.2 529.4 144.95 528.7 145.7 527.95 146.2 527.15 146.7 526.35 146.7 525.65 146.7 524.85 146.3 524.15 145.95 523.45 145.3 522.9 144.65 522.35 143.8 522.1 142.95 521.75 142 521.75 141.15 521.75 140.3 522.05
M 310.5 498.05
Q 290.5 498.05 290.5 518.05
L 290.5 550.05
Q 290.5 570.05 310.5 570.05
L 489.5 570.05
Q 509.5 570.05 509.5 550.05
L 509.5 518.05
Q 509.5 498.05 489.5 498.05
L 310.5 498.05
M 104.5 298.05
L 104.5 330.05
Q 104.5 350.05 124.5 350.05
L 275.5 350.05
Q 295.5 350.05 295.5 330.05
L 295.5 298.05
Q 295.5 278.05 275.5 278.05
L 124.5 278.05
Q 104.5 278.05 104.5 298.05
M 150.05 305.55
Q 150.05 306.65 149.7 307.75 149.3 308.8 148.6 309.75 147.9 310.75 146.95 311.5 146 312.25 144.9 312.75 147.55 313.9 148.9 315.65 150.25 317.45 150.25 319.65 150.25 321.75 149.45 323.55 148.6 325.3 147.1 326.55 145.6 327.8 143.45 328.35 141.3 328.95 139 328.95 137.25 328.95 135.5 328.65 133.75 328.35 132.3 327.8 131.9 327.7 131.75 327.5 131.55 327.35 131.6 327
L 131.95 323.95
Q 132 323.6 132.2 323.5 132.4 323.35 132.95 323.6 134 323.9 135.05 324.2 136.1 324.5 137.2 324.6 138 324.65 138.9 324.7 139.8 324.75 140.65 324.65 141.5 324.55 142.3 324.25 143.05 324 143.7 323.55 145.65 322.2 145.65 319.55 145.65 318.6 145.25 317.75 144.8 316.9 143.95 316.25 143.05 315.55 141.65 315.2 140.3 314.8 138.35 314.8
L 136.4 314.8
Q 136.05 314.8 135.95 314.7 135.85 314.6 135.85 314.3
L 135.85 311.35
Q 135.85 310.95 135.95 310.9 136.05 310.8 136.4 310.8
L 138.3 310.8
Q 139.15 310.8 140.4 310.55 141.65 310.3 142.8 309.7 144 309.1 144.8 308.15 145.6 307.25 145.6 305.9 145.6 304.9 145.1 304.15 144.55 303.35 143.75 302.9 142.9 302.4 141.95 302.2 141 302 140.15 302 139.6 302 138.9 302.1 138.15 302.2 137.35 302.4 136.55 302.55 135.75 302.8 134.95 303.05 134.35 303.3 133.85 303.5 133.65 303.4 133.45 303.3 133.35 302.95
L 133 300
Q 132.9 299.75 133.05 299.6 133.2 299.4 133.6 299.2 135.35 298.6 137.05 298.2 138.7 297.85 140.4 297.85 142.2 297.85 143.95 298.3 145.7 298.75 147 299.65 148.35 300.55 149.2 302.05 150.05 303.55 150.05 305.55
M 156.35 303.8
L 155.8 300.75
Q 155.7 300.55 155.8 300.4 155.95 300.15 156.35 299.95 157.85 299.15 159.8 298.5 161.8 297.85 163.65 297.85 165.6 297.85 167.2 298.4 168.85 298.95 170 300 171.15 301.05 171.85 302.65 172.55 304.25 172.55 306.35 172.55 308.15 171.75 310 170.95 311.85 169.75 313.65 168.55 315.4 167.2 317.05 165.8 318.65 164.7 319.95 163.85 321.05 162.85 322.25 161.85 323.4 160.85 324.55
L 172.6 324.55
Q 173.15 324.55 173.15 325.15
L 173.15 327.95
Q 173.15 328.65 172.6 328.65
L 155.55 328.65
Q 154.8 328.65 154.8 328.15
L 154.8 325.85
Q 154.8 325.55 154.95 325.2 155.15 324.9 155.35 324.6
L 161.45 317.35
Q 164.8 313.4 166.4 310.75 168 308.15 168 306.45 168 304.55 166.8 303.3 165.65 302.05 163.9 302.05 162.25 302.05 160.7 302.5 159.2 302.95 157.4 304 157.05 304.2 156.75 304.2 156.45 304.15 156.35 303.8
M 183.85 298.65
Q 185.65 297.85 187.95 297.85 192.65 297.85 195.2 301.4 197.75 304.95 197.75 312.4 197.75 315.75 197.1 318.8 196.4 321.8 194.8 324.05 193.25 326.3 190.65 327.6 188.1 328.95 184.4 328.95 183.25 328.95 181.8 328.75 180.4 328.55 179.45 328.2 179.1 328.1 179.15 327.7
L 179.25 324.5
Q 179.35 323.95 179.9 324.15 180.95 324.6 182.15 324.7 183.3 324.8 184.7 324.8 186.8 324.8 188.25 324.1 189.7 323.4 190.7 322.15 191.7 320.9 192.3 319.25 192.9 317.55 193.15 315.65 192.8 316.15 192.2 316.6 191.55 317.05 190.8 317.4 190.05 317.75 189.25 317.95 188.45 318.15 187.7 318.15 185.55 318.15 183.8 317.45 182 316.75 180.7 315.45 179.4 314.15 178.75 312.35 178.05 310.55 178.05 308.25 178.05 306.05 178.7 304.15 179.4 302.25 180.7 300.85 182 299.45 183.85 298.65
M 220.3 301.35
Q 220.3 301.7 220.05 302
L 209.5 328.05
Q 209.3 328.35 209.15 328.5 209 328.6 208.6 328.6
L 205.35 328.6
Q 204.75 328.6 204.6 328.45 204.45 328.35 204.6 327.9
L 215.05 302.35 202.3 302.35
Q 202 302.35 201.8 302.15 201.6 302 201.6 301.65
L 201.6 298.85
Q 201.6 298.2 202.3 298.2
L 219.3 298.2
Q 220 298.2 220.15 298.35 220.3 298.5 220.3 298.95
L 220.3 301.35
M 234.55 297.85
Q 236.55 297.85 238.25 298.35 239.95 298.9 241.15 299.85 242.35 300.8 243.05 302.2 243.75 303.6 243.75 305.35 243.75 307.35 242.5 309.15 241.25 310.9 238.65 312.7 240.05 313.55 241.2 314.3 242.3 315.1 243.1 316 243.9 316.9 244.3 317.95 244.75 318.95 244.75 320.35 244.75 322.5 243.85 324.1 243 325.75 241.6 326.8 240.2 327.85 238.3 328.4 236.5 328.95 234.55 328.95 232.75 328.95 230.9 328.4 229.1 327.85 227.65 326.8 226.2 325.75 225.3 324.1 224.4 322.5 224.4 320.35 224.4 318.85 224.85 317.7 225.4 316.55 226.2 315.65 227 314.75 228.1 314.05 229.2 313.35 230.4 312.75 228 311.35 226.6 309.55 225.2 307.75 225.2 305.45 225.2 303.75 225.95 302.35 226.7 300.95 227.95 299.95 229.2 298.95 230.9 298.4 232.6 297.85 234.55 297.85
M 267.75 313.35
Q 267.75 317 267.15 319.9 266.55 322.8 265.3 324.75 264.05 326.7 262.2 327.8 260.35 328.8 257.8 328.8 252.65 328.8 250.2 324.75 247.75 320.7 247.75 313.35 247.75 310.9 248.1 308.15 248.5 305.45 249.6 303.15 250.7 300.9 252.65 299.4 254.6 297.95 257.8 297.95 259.85 297.95 261.4 298.6 263 299.3 264.05 300.45 265.2 301.65 265.9 303.2 266.6 304.75 267 306.45 267.4 308.15 267.55 309.95 267.75 311.7 267.75 313.35
M 262.9 308.2
Q 262.5 306.1 261.8 304.75 261.05 303.45 260.05 302.9 259 302.3 257.8 302.3 256.5 302.3 255.5 302.9 254.5 303.45 253.8 304.75 253.05 306.1 252.7 308.2 252.3 310.35 252.3 313.35 252.3 316.45 252.7 318.6 253.05 320.7 253.8 322 254.5 323.35 255.5 323.9 256.5 324.5 257.8 324.5 259 324.5 260.05 323.9 261.05 323.35 261.8 322 262.5 320.7 262.9 318.6 263.25 316.45 263.25 313.35 263.25 310.35 262.9 308.2
M 229.45 318.2
Q 228.85 319.1 228.85 320.35 228.85 321.35 229.4 322.2 229.9 323.05 230.7 323.65 231.55 324.25 232.55 324.6 233.6 324.9 234.55 324.9 235.55 324.9 236.6 324.6 237.6 324.3 238.4 323.7 239.2 323.1 239.7 322.25 240.2 321.4 240.2 320.35 240.2 319.6 239.7 318.75 239.2 317.95 238.4 317.2 237.55 316.5 236.55 315.9 235.55 315.3 234.55 314.95 233.75 315.15 232.8 315.6 231.75 316 230.9 316.65 230.05 317.3 229.45 318.2
M 237.5 308.7
Q 238.25 307.95 238.75 307.15 239.25 306.35 239.25 305.65 239.25 304.85 238.85 304.15 238.5 303.45 237.85 302.9 237.2 302.35 236.35 302.1 235.5 301.75 234.55 301.75 233.7 301.75 232.85 302.05 232 302.35 231.35 302.85 230.65 303.35 230.2 304.05 229.75 304.8 229.75 305.75 229.75 306.6 230.35 307.4 230.9 308.2 231.65 308.9 232.45 309.6 233.25 310.05 234.05 310.55 234.55 310.75 235.2 310.5 235.95 309.95 236.75 309.4 237.5 308.7
M 193.1 308.4
Q 193.1 307.05 192.7 305.85 192.3 304.65 191.6 303.75 190.9 302.85 189.95 302.35 189 301.8 187.9 301.8 185.5 301.8 183.95 303.5 182.45 305.15 182.45 308.05 182.45 310.8 183.8 312.4 185.1 314 187.55 314 190.15 314 191.65 312.45 193.1 310.85 193.1 308.4
M 324.5 298.05
L 324.5 330.05
Q 324.5 350.05 344.5 350.05
L 495.5 350.05
Q 515.5 350.05 515.5 330.05
L 515.5 298.05
Q 515.5 278.05 495.5 278.05
L 344.5 278.05
Q 324.5 278.05 324.5 298.05
M 372.4 321.2
Q 372.4 321.6 372.25 321.7 372.1 321.8 371.75 321.8
L 368.05 321.8 368.05 327.9
Q 368.05 328.35 367.9 328.45 367.8 328.6 367.4 328.6
L 364.5 328.6
Q 364.05 328.6 363.9 328.45 363.75 328.3 363.75 327.9
L 363.75 321.8 350.95 321.8
Q 350.6 321.8 350.45 321.7 350.3 321.65 350.3 321.35
L 350.3 318.35
Q 350.3 318.1 350.5 317.8 350.65 317.5 350.8 317.35
L 363.2 298.75
Q 363.4 298.4 363.5 298.3 363.6 298.2 364 298.2
L 367.65 298.2
Q 367.95 298.2 368 298.35 368.05 298.45 368.05 298.8
L 368.05 317.7 371.75 317.7
Q 372.1 317.7 372.25 317.8 372.4 317.9 372.4 318.3
L 372.4 321.2
M 388 306.45
Q 388 304.55 386.8 303.3 385.65 302.05 383.9 302.05 382.25 302.05 380.7 302.5 379.2 302.95 377.4 304 377.05 304.2 376.75 304.2 376.45 304.15 376.35 303.8
L 375.8 300.75
Q 375.7 300.55 375.8 300.4 375.95 300.15 376.35 299.95 377.85 299.15 379.8 298.5 381.8 297.85 383.65 297.85 385.6 297.85 387.2 298.4 388.85 298.95 390 300 391.15 301.05 391.85 302.65 392.55 304.25 392.55 306.35 392.55 308.15 391.75 310 390.95 311.85 389.75 313.65 388.55 315.4 387.2 317.05 385.8 318.65 384.7 319.95 383.85 321.05 382.85 322.25 381.85 323.4 380.85 324.55
L 392.6 324.55
Q 393.15 324.55 393.15 325.15
L 393.15 327.95
Q 393.15 328.65 392.6 328.65
L 375.55 328.65
Q 374.8 328.65 374.8 328.15
L 374.8 325.85
Q 374.8 325.55 374.95 325.2 375.15 324.9 375.35 324.6
L 381.45 317.35
Q 384.8 313.4 386.4 310.75 388 308.15 388 306.45
M 398.05 308.25
Q 398.05 306.05 398.7 304.15 399.4 302.25 400.7 300.85 402 299.45 403.85 298.65 405.65 297.85 407.95 297.85 412.65 297.85 415.2 301.4 417.75 304.95 417.75 312.4 417.75 315.75 417.1 318.8 416.4 321.8 414.8 324.05 413.25 326.3 410.65 327.6 408.1 328.95 404.4 328.95 403.25 328.95 401.8 328.75 400.4 328.55 399.45 328.2 399.1 328.1 399.15 327.7
L 399.25 324.5
Q 399.35 323.95 399.9 324.15 400.95 324.6 402.15 324.7 403.3 324.8 404.7 324.8 406.8 324.8 408.25 324.1 409.7 323.4 410.7 322.15 411.7 320.9 412.3 319.25 412.9 317.55 413.15 315.65 412.8 316.15 412.2 316.6 411.55 317.05 410.8 317.4 410.05 317.75 409.25 317.95 408.45 318.15 407.7 318.15 405.55 318.15 403.8 317.45 402 316.75 400.7 315.45 399.4 314.15 398.75 312.35 398.05 310.55 398.05 308.25
M 439.3 298.2
Q 440 298.2 440.15 298.35 440.3 298.5 440.3 298.95
L 440.3 301.35
Q 440.3 301.7 440.05 302
L 429.5 328.05
Q 429.3 328.35 429.15 328.5 429 328.6 428.6 328.6
L 425.35 328.6
Q 424.75 328.6 424.6 328.45 424.45 328.35 424.6 327.9
L 435.05 302.35 422.3 302.35
Q 422 302.35 421.8 302.15 421.6 302 421.6 301.65
L 421.6 298.85
Q 421.6 298.2 422.3 298.2
L 439.3 298.2
M 461.15 299.85
Q 462.35 300.8 463.05 302.2 463.75 303.6 463.75 305.35 463.75 307.35 462.5 309.15 461.25 310.9 458.65 312.7 460.05 313.55 461.2 314.3 462.3 315.1 463.1 316 463.9 316.9 464.3 317.95 464.75 318.95 464.75 320.35 464.75 322.5 463.85 324.1 463 325.75 461.6 326.8 460.2 327.85 458.3 328.4 456.5 328.95 454.55 328.95 452.75 328.95 450.9 328.4 449.1 327.85 447.65 326.8 446.2 325.75 445.3 324.1 444.4 322.5 444.4 320.35 444.4 318.85 444.85 317.7 445.4 316.55 446.2 315.65 447 314.75 448.1 314.05 449.2 313.35 450.4 312.75 448 311.35 446.6 309.55 445.2 307.75 445.2 305.45 445.2 303.75 445.95 302.35 446.7 300.95 447.95 299.95 449.2 298.95 450.9 298.4 452.6 297.85 454.55 297.85 456.55 297.85 458.25 298.35 459.95 298.9 461.15 299.85
M 477.8 297.95
Q 479.85 297.95 481.4 298.6 483 299.3 484.05 300.45 485.2 301.65 485.9 303.2 486.6 304.75 487 306.45 487.4 308.15 487.55 309.95 487.75 311.7 487.75 313.35 487.75 317 487.15 319.9 486.55 322.8 485.3 324.75 484.05 326.7 482.2 327.8 480.35 328.8 477.8 328.8 472.65 328.8 470.2 324.75 467.75 320.7 467.75 313.35 467.75 310.9 468.1 308.15 468.5 305.45 469.6 303.15 470.7 300.9 472.65 299.4 474.6 297.95 477.8 297.95
M 482.9 308.2
Q 482.5 306.1 481.8 304.75 481.05 303.45 480.05 302.9 479 302.3 477.8 302.3 476.5 302.3 475.5 302.9 474.5 303.45 473.8 304.75 473.05 306.1 472.7 308.2 472.3 310.35 472.3 313.35 472.3 316.45 472.7 318.6 473.05 320.7 473.8 322 474.5 323.35 475.5 323.9 476.5 324.5 477.8 324.5 479 324.5 480.05 323.9 481.05 323.35 481.8 322 482.5 320.7 482.9 318.6 483.25 316.45 483.25 313.35 483.25 310.35 482.9 308.2
M 449.45 318.2
Q 448.85 319.1 448.85 320.35 448.85 321.35 449.4 322.2 449.9 323.05 450.7 323.65 451.55 324.25 452.55 324.6 453.6 324.9 454.55 324.9 455.55 324.9 456.6 324.6 457.6 324.3 458.4 323.7 459.2 323.1 459.7 322.25 460.2 321.4 460.2 320.35 460.2 319.6 459.7 318.75 459.2 317.95 458.4 317.2 457.55 316.5 456.55 315.9 455.55 315.3 454.55 314.95 453.75 315.15 452.8 315.6 451.75 316 450.9 316.65 450.05 317.3 449.45 318.2
M 457.85 302.9
Q 457.2 302.35 456.35 302.1 455.5 301.75 454.55 301.75 453.7 301.75 452.85 302.05 452 302.35 451.35 302.85 450.65 303.35 450.2 304.05 449.75 304.8 449.75 305.75 449.75 306.6 450.35 307.4 450.9 308.2 451.65 308.9 452.45 309.6 453.25 310.05 454.05 310.55 454.55 310.75 455.2 310.5 455.95 309.95 456.75 309.4 457.5 308.7 458.25 307.95 458.75 307.15 459.25 306.35 459.25 305.65 459.25 304.85 458.85 304.15 458.5 303.45 457.85 302.9
M 403.95 303.5
Q 402.45 305.15 402.45 308.05 402.45 310.8 403.8 312.4 405.1 314 407.55 314 410.15 314 411.65 312.45 413.1 310.85 413.1 308.4 413.1 307.05 412.7 305.85 412.3 304.65 411.6 303.75 410.9 302.85 409.95 302.35 409 301.8 407.9 301.8 405.5 301.8 403.95 303.5
M 355.15 317.7
L 363.75 317.7 363.75 304.65 355.15 317.7
M 1229.5 550.05
L 1229.5 518.05
Q 1229.5 498.05 1209.5 498.05
L 1030.5 498.05
Q 1010.5 498.05 1010.5 518.05
L 1010.5 550.05
Q 1010.5 570.05 1030.5 570.05
L 1209.5 570.05
Q 1229.5 570.05 1229.5 550.05
M 749.5 518.05
Q 749.5 498.05 729.5 498.05
L 550.5 498.05
Q 530.5 498.05 530.5 518.05
L 530.5 550.05
Q 530.5 570.05 550.5 570.05
L 729.5 570.05
Q 749.5 570.05 749.5 550.05
L 749.5 518.05
M 790.5 498.05
Q 770.5 498.05 770.5 518.05
L 770.5 550.05
Q 770.5 570.05 790.5 570.05
L 969.5 570.05
Q 989.5 570.05 989.5 550.05
L 989.5 518.05
Q 989.5 498.05 969.5 498.05
L 790.5 498.05
M 795.85 518.3
Q 797.6 518.75 798.9 519.65 800.25 520.55 801.1 522.05 801.95 523.55 801.95 525.55 801.95 526.65 801.6 527.75 801.2 528.8 800.5 529.75 799.8 530.75 798.85 531.5 797.9 532.25 796.8 532.75 799.45 533.9 800.8 535.65 802.15 537.45 802.15 539.65 802.15 541.75 801.35 543.55 800.5 545.3 799 546.55 797.5 547.8 795.35 548.35 793.2 548.95 790.9 548.95 789.15 548.95 787.4 548.65 785.65 548.35 784.2 547.8 783.8 547.7 783.65 547.5 783.45 547.35 783.5 547
L 783.85 543.95
Q 783.9 543.6 784.1 543.5 784.3 543.35 784.85 543.6 785.9 543.9 786.95 544.2 788 544.5 789.1 544.6 789.9 544.65 790.8 544.7 791.7 544.75 792.55 544.65 793.4 544.55 794.2 544.25 794.95 544 795.6 543.55 797.55 542.2 797.55 539.55 797.55 538.6 797.15 537.75 796.7 536.9 795.85 536.25 794.95 535.55 793.55 535.2 792.2 534.8 790.25 534.8
L 788.3 534.8
Q 787.95 534.8 787.85 534.7 787.75 534.6 787.75 534.3
L 787.75 531.35
Q 787.75 530.95 787.85 530.9 787.95 530.8 788.3 530.8
L 790.2 530.8
Q 791.05 530.8 792.3 530.55 793.55 530.3 794.7 529.7 795.9 529.1 796.7 528.15 797.5 527.25 797.5 525.9 797.5 524.9 797 524.15 796.45 523.35 795.65 522.9 794.8 522.4 793.85 522.2 792.9 522 792.05 522 791.5 522 790.8 522.1 790.05 522.2 789.25 522.4 788.45 522.55 787.65 522.8 786.85 523.05 786.25 523.3 785.75 523.5 785.55 523.4 785.35 523.3 785.25 522.95
L 784.9 520
Q 784.8 519.75 784.95 519.6 785.1 519.4 785.5 519.2 787.25 518.6 788.95 518.2 790.6 517.85 792.3 517.85 794.1 517.85 795.85 518.3
M 832.85 518.1
Q 833.65 518.6 833.65 519.55 833.65 520.95 831.7 523.2 829.8 525.4 827.4 527.35 828.4 527.8 829.7 528.4 831.05 529 832.35 529.6 833.7 530.1 834.95 530.6 836.2 531.05 837.1 531.35 837.75 531.55 837.45 532.15
L 836.4 534.75
Q 836.3 535 835.95 535.1 835.65 535.15 835.35 535.1 834.15 534.7 832.75 534.15 831.3 533.6 829.8 532.9 828.25 532.2 826.7 531.45 825.2 530.7 823.75 529.9 820.7 531.75 817.25 533.25 813.8 534.75 810.15 535.75 809.85 535.8 809.55 535.75 809.15 535.65 809.1 535.45
L 808.15 533
Q 808.05 532.7 808.25 532.35 808.4 532.05 808.65 532 814.8 530.1 819.35 527.6 823.85 525.1 826.6 522.25 827.05 521.8 827.05 521.6 827.05 521.4 826.45 521.4
L 811.2 521.4
Q 810.65 521.4 810.65 520.9
L 810.65 518.1
Q 810.65 517.6 811.2 517.6
L 830.45 517.6
Q 832.1 517.6 832.85 518.1
M 824.35 534.4
Q 824.6 534.4 824.75 534.6 824.95 534.75 824.95 534.95
L 824.95 542.45 840.05 542.45
Q 840.25 542.45 840.45 542.6 840.65 542.8 840.65 543
L 840.65 545.7
Q 840.65 545.9 840.45 546.1 840.25 546.3 840.05 546.3
L 805.25 546.3
Q 804.95 546.3 804.8 546.1 804.65 545.9 804.65 545.7
L 804.65 543
Q 804.65 542.45 805.25 542.45
L 820.3 542.45 820.3 534.95
Q 820.3 534.4 820.85 534.4
L 824.35 534.4
M 864.7 518.35
Q 864.85 518.5 864.85 519.3
L 864.85 548.1
Q 864.85 548.6 864.35 548.6
L 861.15 548.6
Q 860.6 548.6 860.6 548.1
L 860.6 524.4 857.65 527
Q 857.4 527.15 857.15 527.15 856.9 527.2 856.75 527.05
L 854.95 524.9
Q 854.8 524.75 854.85 524.5 854.85 524.3 855.05 524.1
L 861.2 518.45
Q 861.25 518.35 861.45 518.3 861.65 518.2 861.8 518.2
L 863.9 518.2
Q 864.6 518.2 864.7 518.35
M 888.35 517.85
Q 889.5 517.85 890.9 518.05 892.35 518.25 893.25 518.6 893.6 518.7 893.55 519.1
L 893.45 522.3
Q 893.35 522.85 892.8 522.6 891.75 522.2 890.6 522.1 889.4 522 888 522 885.95 522 884.45 522.65 883 523.35 882 524.6 881 525.85 880.45 527.5 879.85 529.2 879.6 531.15 879.95 530.65 880.55 530.2 881.15 529.75 881.9 529.4 882.65 529.05 883.45 528.85 884.25 528.6 885 528.6 887.2 528.6 888.95 529.3 890.75 530 892 531.3 893.3 532.6 894 534.45 894.7 536.25 894.7 538.55 894.7 540.75 894 542.6 893.35 544.55 892.05 545.9 890.75 547.35 888.9 548.15 887.05 548.95 884.75 548.95 880.05 548.95 877.5 545.4 874.95 541.85 874.95 534.4 874.95 531 875.65 528 876.35 524.95 877.9 522.75 879.5 520.5 882.05 519.15 884.6 517.85 888.35 517.85
M 915.4 518.35
Q 915.5 518.5 915.5 518.7
L 915.5 521.75
Q 915.5 522 915.4 522.15 915.25 522.35 915 522.35
L 903.85 522.35 903.7 529.75
Q 905.3 529.4 907.25 529.4 909.25 529.4 911 530 912.75 530.65 914.05 531.8 915.35 533 916.1 534.7 916.85 536.35 916.85 538.45 916.85 543.5 913.7 546.3 912.3 547.6 910.2 548.25 908.15 548.9 905.85 548.9 905.45 548.9 904.6 548.85 903.8 548.75 902.85 548.65 901.9 548.5 901 548.25 900.05 548.05 899.4 547.75 899.15 547.55 899.1 547.45 899.1 547.3 899.1 547
L 899.1 543.75
Q 899.1 543.05 899.95 543.45 900.5 543.75 901.3 544 902.1 544.2 902.95 544.4 903.8 544.55 904.6 544.6 905.45 544.7 906.15 544.7 908.85 544.7 910.55 543.15 912.35 541.65 912.35 538.95 912.35 536.35 910.9 534.85 909.5 533.3 906.2 533.3 904.9 533.3 903.5 533.6 902.1 533.85 900.85 534.3 899.3 534.95 899.3 533.6
L 899.5 518.85
Q 899.5 518.4 899.65 518.3 899.75 518.15 900.35 518.15
L 915 518.15
Q 915.25 518.15 915.4 518.35
M 932.65 518.3
Q 934.4 518.75 935.7 519.65 937.05 520.55 937.9 522.05 938.75 523.55 938.75 525.55 938.75 526.65 938.4 527.75 938 528.8 937.3 529.75 936.6 530.75 935.65 531.5 934.7 532.25 933.6 532.75 936.25 533.9 937.6 535.65 938.95 537.45 938.95 539.65 938.95 541.75 938.15 543.55 937.3 545.3 935.8 546.55 934.3 547.8 932.15 548.35 930 548.95 927.7 548.95 925.95 548.95 924.2 548.65 922.45 548.35 921 547.8 920.6 547.7 920.45 547.5 920.25 547.35 920.3 547
L 920.65 543.95
Q 920.7 543.6 920.9 543.5 921.1 543.35 921.65 543.6 922.7 543.9 923.75 544.2 924.8 544.5 925.9 544.6 926.7 544.65 927.6 544.7 928.5 544.75 929.35 544.65 930.2 544.55 931 544.25 931.75 544 932.4 543.55 934.35 542.2 934.35 539.55 934.35 538.6 933.95 537.75 933.5 536.9 932.65 536.25 931.75 535.55 930.35 535.2 929 534.8 927.05 534.8
L 925.1 534.8
Q 924.75 534.8 924.65 534.7 924.55 534.6 924.55 534.3
L 924.55 531.35
Q 924.55 530.95 924.65 530.9 924.75 530.8 925.1 530.8
L 927 530.8
Q 927.85 530.8 929.1 530.55 930.35 530.3 931.5 529.7 932.7 529.1 933.5 528.15 934.3 527.25 934.3 525.9 934.3 524.9 933.8 524.15 933.25 523.35 932.45 522.9 931.6 522.4 930.65 522.2 929.7 522 928.85 522 928.3 522 927.6 522.1 926.85 522.2 926.05 522.4 925.25 522.55 924.45 522.8 923.65 523.05 923.05 523.3 922.55 523.5 922.35 523.4 922.15 523.3 922.05 522.95
L 921.7 520
Q 921.6 519.75 921.75 519.6 921.9 519.4 922.3 519.2 924.05 518.6 925.75 518.2 927.4 517.85 929.1 517.85 930.9 517.85 932.65 518.3
M 953.4 516.2
Q 955.3 516.2 956.9 516.7 958.55 517.3 959.8 518.3 961.05 519.3 961.85 520.65 962.7 522 963 523.6
L 969.1 523.6 969.1 515.35
Q 969.1 515.1 969.3 514.95 969.5 514.8 969.7 514.8
L 973.25 514.8
Q 973.7 514.8 973.7 515.35
L 973.7 535.9
Q 973.7 536.45 973.2 536.45
L 969.65 536.45
Q 969.1 536.45 969.1 535.9
L 969.1 527.4 963 527.4
Q 962.7 529.05 961.85 530.4 961.05 531.7 959.8 532.65 958.55 533.6 956.9 534.15 955.3 534.65 953.4 534.65 951.3 534.65 949.55 533.95 947.75 533.3 946.5 532.1 945.2 530.85 944.55 529.15 943.85 527.45 943.85 525.45 943.85 523.55 944.55 521.8 945.2 520.1 946.5 518.85 947.75 517.6 949.55 516.9 951.3 516.2 953.4 516.2
M 949.3 539.05
Q 949.3 538.75 949.5 538.65 949.7 538.55 949.9 538.55
L 971.05 538.55
Q 972.6 538.55 973.15 539.15 973.7 539.8 973.7 541.35
L 973.7 552.15
Q 973.7 552.35 973.5 552.5 973.35 552.7 973.15 552.7
L 969.7 552.7
Q 969.45 552.7 969.25 552.5 969.1 552.35 969.1 552.15
L 969.1 543.05
Q 969.1 542.6 968.95 542.5 968.8 542.35 968.4 542.35
L 949.9 542.35
Q 949.7 542.35 949.5 542.25 949.3 542.1 949.3 541.9
L 949.3 539.05
M 948.25 525.55
Q 948.25 527.95 949.7 529.4 951.15 530.8 953.4 530.8 955.8 530.8 957.2 529.4 958.65 527.95 958.65 525.55 958.65 523.15 957.2 521.7 955.8 520.3 953.4 520.3 951.15 520.3 949.7 521.7 948.25 523.15 948.25 525.55
M 879.6 538.35
Q 879.6 539.75 880 540.9 880.4 542.15 881.1 543.05 881.8 543.95 882.75 544.45 883.75 544.95 884.85 544.95 887.25 544.95 888.8 543.3 890.3 541.6 890.3 538.75 890.3 535.95 888.95 534.4 887.6 532.8 885.15 532.8 882.55 532.8 881.1 534.35 879.6 535.9 879.6 538.35
M 735.5 330.05
L 735.5 298.05
Q 735.5 278.05 715.5 278.05
L 564.5 278.05
Q 544.5 278.05 544.5 298.05
L 544.5 330.05
Q 544.5 350.05 564.5 350.05
L 715.5 350.05
Q 735.5 350.05 735.5 330.05
M 590.15 314.7
Q 590.9 316.35 590.9 318.45 590.9 323.5 587.75 326.3 586.35 327.6 584.25 328.25 582.2 328.9 579.9 328.9 579.5 328.9 578.65 328.85 577.85 328.75 576.9 328.65 575.95 328.5 575.05 328.25 574.1 328.05 573.45 327.75 573.2 327.55 573.15 327.45 573.15 327.3 573.15 327
L 573.15 323.75
Q 573.15 323.05 574 323.45 574.55 323.75 575.35 324 576.15 324.2 577 324.4 577.85 324.55 578.65 324.6 579.5 324.7 580.2 324.7 582.9 324.7 584.6 323.15 586.4 321.65 586.4 318.95 586.4 316.35 584.95 314.85 583.55 313.3 580.25 313.3 578.95 313.3 577.55 313.6 576.15 313.85 574.9 314.3 573.35 314.95 573.35 313.6
L 573.55 298.85
Q 573.55 298.4 573.7 298.3 573.8 298.15 574.4 298.15
L 589.05 298.15
Q 589.3 298.15 589.45 298.35 589.55 298.5 589.55 298.7
L 589.55 301.75
Q 589.55 302 589.45 302.15 589.3 302.35 589.05 302.35
L 577.9 302.35 577.75 309.75
Q 579.35 309.4 581.3 309.4 583.3 309.4 585.05 310 586.8 310.65 588.1 311.8 589.4 313 590.15 314.7
M 613.15 327.95
Q 613.15 328.65 612.6 328.65
L 595.55 328.65
Q 594.8 328.65 594.8 328.15
L 594.8 325.85
Q 594.8 325.55 594.95 325.2 595.15 324.9 595.35 324.6
L 601.45 317.35
Q 604.8 313.4 606.4 310.75 608 308.15 608 306.45 608 304.55 606.8 303.3 605.65 302.05 603.9 302.05 602.25 302.05 600.7 302.5 599.2 302.95 597.4 304 597.05 304.2 596.75 304.2 596.45 304.15 596.35 303.8
L 595.8 300.75
Q 595.7 300.55 595.8 300.4 595.95 300.15 596.35 299.95 597.85 299.15 599.8 298.5 601.8 297.85 603.65 297.85 605.6 297.85 607.2 298.4 608.85 298.95 610 300 611.15 301.05 611.85 302.65 612.55 304.25 612.55 306.35 612.55 308.15 611.75 310 610.95 311.85 609.75 313.65 608.55 315.4 607.2 317.05 605.8 318.65 604.7 319.95 603.85 321.05 602.85 322.25 601.85 323.4 600.85 324.55
L 612.6 324.55
Q 613.15 324.55 613.15 325.15
L 613.15 327.95
M 627.95 297.85
Q 632.65 297.85 635.2 301.4 637.75 304.95 637.75 312.4 637.75 315.75 637.1 318.8 636.4 321.8 634.8 324.05 633.25 326.3 630.65 327.6 628.1 328.95 624.4 328.95 623.25 328.95 621.8 328.75 620.4 328.55 619.45 328.2 619.1 328.1 619.15 327.7
L 619.25 324.5
Q 619.35 323.95 619.9 324.15 620.95 324.6 622.15 324.7 623.3 324.8 624.7 324.8 626.8 324.8 628.25 324.1 629.7 323.4 630.7 322.15 631.7 320.9 632.3 319.25 632.9 317.55 633.15 315.65 632.8 316.15 632.2 316.6 631.55 317.05 630.8 317.4 630.05 317.75 629.25 317.95 628.45 318.15 627.7 318.15 625.55 318.15 623.8 317.45 622 316.75 620.7 315.45 619.4 314.15 618.75 312.35 618.05 310.55 618.05 308.25 618.05 306.05 618.7 304.15 619.4 302.25 620.7 300.85 622 299.45 623.85 298.65 625.65 297.85 627.95 297.85
M 649.5 328.05
Q 649.3 328.35 649.15 328.5 649 328.6 648.6 328.6
L 645.35 328.6
Q 644.75 328.6 644.6 328.45 644.45 328.35 644.6 327.9
L 655.05 302.35 642.3 302.35
Q 642 302.35 641.8 302.15 641.6 302 641.6 301.65
L 641.6 298.85
Q 641.6 298.2 642.3 298.2
L 659.3 298.2
Q 660 298.2 660.15 298.35 660.3 298.5 660.3 298.95
L 660.3 301.35
Q 660.3 301.7 660.05 302
L 649.5 328.05
M 683.05 302.2
Q 683.75 303.6 683.75 305.35 683.75 307.35 682.5 309.15 681.25 310.9 678.65 312.7 680.05 313.55 681.2 314.3 682.3 315.1 683.1 316 683.9 316.9 684.3 317.95 684.75 318.95 684.75 320.35 684.75 322.5 683.85 324.1 683 325.75 681.6 326.8 680.2 327.85 678.3 328.4 676.5 328.95 674.55 328.95 672.75 328.95 670.9 328.4 669.1 327.85 667.65 326.8 666.2 325.75 665.3 324.1 664.4 322.5 664.4 320.35 664.4 318.85 664.85 317.7 665.4 316.55 666.2 315.65 667 314.75 668.1 314.05 669.2 313.35 670.4 312.75 668 311.35 666.6 309.55 665.2 307.75 665.2 305.45 665.2 303.75 665.95 302.35 666.7 300.95 667.95 299.95 669.2 298.95 670.9 298.4 672.6 297.85 674.55 297.85 676.55 297.85 678.25 298.35 679.95 298.9 681.15 299.85 682.35 300.8 683.05 302.2
M 705.9 303.2
Q 706.6 304.75 707 306.45 707.4 308.15 707.55 309.95 707.75 311.7 707.75 313.35 707.75 317 707.15 319.9 706.55 322.8 705.3 324.75 704.05 326.7 702.2 327.8 700.35 328.8 697.8 328.8 692.65 328.8 690.2 324.75 687.75 320.7 687.75 313.35 687.75 310.9 688.1 308.15 688.5 305.45 689.6 303.15 690.7 300.9 692.65 299.4 694.6 297.95 697.8 297.95 699.85 297.95 701.4 298.6 703 299.3 704.05 300.45 705.2 301.65 705.9 303.2
M 701.8 304.75
Q 701.05 303.45 700.05 302.9 699 302.3 697.8 302.3 696.5 302.3 695.5 302.9 694.5 303.45 693.8 304.75 693.05 306.1 692.7 308.2 692.3 310.35 692.3 313.35 692.3 316.45 692.7 318.6 693.05 320.7 693.8 322 694.5 323.35 695.5 323.9 696.5 324.5 697.8 324.5 699 324.5 700.05 323.9 701.05 323.35 701.8 322 702.5 320.7 702.9 318.6 703.25 316.45 703.25 313.35 703.25 310.35 702.9 308.2 702.5 306.1 701.8 304.75
M 676.55 315.9
Q 675.55 315.3 674.55 314.95 673.75 315.15 672.8 315.6 671.75 316 670.9 316.65 670.05 317.3 669.45 318.2 668.85 319.1 668.85 320.35 668.85 321.35 669.4 322.2 669.9 323.05 670.7 323.65 671.55 324.25 672.55 324.6 673.6 324.9 674.55 324.9 675.55 324.9 676.6 324.6 677.6 324.3 678.4 323.7 679.2 323.1 679.7 322.25 680.2 321.4 680.2 320.35 680.2 319.6 679.7 318.75 679.2 317.95 678.4 317.2 677.55 316.5 676.55 315.9
M 678.75 307.15
Q 679.25 306.35 679.25 305.65 679.25 304.85 678.85 304.15 678.5 303.45 677.85 302.9 677.2 302.35 676.35 302.1 675.5 301.75 674.55 301.75 673.7 301.75 672.85 302.05 672 302.35 671.35 302.85 670.65 303.35 670.2 304.05 669.75 304.8 669.75 305.75 669.75 306.6 670.35 307.4 670.9 308.2 671.65 308.9 672.45 309.6 673.25 310.05 674.05 310.55 674.55 310.75 675.2 310.5 675.95 309.95 676.75 309.4 677.5 308.7 678.25 307.95 678.75 307.15
M 633.1 308.4
Q 633.1 307.05 632.7 305.85 632.3 304.65 631.6 303.75 630.9 302.85 629.95 302.35 629 301.8 627.9 301.8 625.5 301.8 623.95 303.5 622.45 305.15 622.45 308.05 622.45 310.8 623.8 312.4 625.1 314 627.55 314 630.15 314 631.65 312.45 633.1 310.85 633.1 308.4
M 764.5 298.05
L 764.5 330.05
Q 764.5 350.05 784.5 350.05
L 935.5 350.05
Q 955.5 350.05 955.5 330.05
L 955.5 298.05
Q 955.5 278.05 935.5 278.05
L 784.5 278.05
Q 764.5 278.05 764.5 298.05
M 984.5 298.05
L 984.5 330.05
Q 984.5 350.05 1004.5 350.05
L 1155.5 350.05
Q 1175.5 350.05 1175.5 330.05
L 1175.5 298.05
Q 1175.5 278.05 1155.5 278.05
L 1004.5 278.05
Q 984.5 278.05 984.5 298.05 Z"/>

<path fill="#1E1E1E" stroke="none" d="
M 229.9 538.55
Q 229.7 538.55 229.5 538.65 229.3 538.75 229.3 539.05
L 229.3 541.9
Q 229.3 542.1 229.5 542.25 229.7 542.35 229.9 542.35
L 248.4 542.35
Q 248.8 542.35 248.95 542.5 249.1 542.6 249.1 543.05
L 249.1 552.15
Q 249.1 552.35 249.25 552.5 249.45 552.7 249.7 552.7
L 253.15 552.7
Q 253.35 552.7 253.5 552.5 253.7 552.35 253.7 552.15
L 253.7 541.35
Q 253.7 539.8 253.15 539.15 252.6 538.55 251.05 538.55
L 229.9 538.55
M 229.55 516.9
Q 227.75 517.6 226.5 518.85 225.2 520.1 224.55 521.8 223.85 523.55 223.85 525.45 223.85 527.45 224.55 529.15 225.2 530.85 226.5 532.1 227.75 533.3 229.55 533.95 231.3 534.65 233.4 534.65 235.3 534.65 236.9 534.15 238.55 533.6 239.8 532.65 241.05 531.7 241.85 530.4 242.7 529.05 243 527.4
L 249.1 527.4 249.1 535.9
Q 249.1 536.45 249.65 536.45
L 253.2 536.45
Q 253.7 536.45 253.7 535.9
L 253.7 515.35
Q 253.7 514.8 253.25 514.8
L 249.7 514.8
Q 249.5 514.8 249.3 514.95 249.1 515.1 249.1 515.35
L 249.1 523.6 243 523.6
Q 242.7 522 241.85 520.65 241.05 519.3 239.8 518.3 238.55 517.3 236.9 516.7 235.3 516.2 233.4 516.2 231.3 516.2 229.55 516.9
M 237.2 521.7
Q 238.65 523.15 238.65 525.55 238.65 527.95 237.2 529.4 235.8 530.8 233.4 530.8 231.15 530.8 229.7 529.4 228.25 527.95 228.25 525.55 228.25 523.15 229.7 521.7 231.15 520.3 233.4 520.3 235.8 520.3 237.2 521.7
M 215.7 519.65
Q 214.4 518.75 212.65 518.3 210.9 517.85 209.1 517.85 207.4 517.85 205.75 518.2 204.05 518.6 202.3 519.2 201.9 519.4 201.75 519.6 201.6 519.75 201.7 520
L 202.05 522.95
Q 202.15 523.3 202.35 523.4 202.55 523.5 203.05 523.3 203.65 523.05 204.45 522.8 205.25 522.55 206.05 522.4 206.85 522.2 207.6 522.1 208.3 522 208.85 522 209.7 522 210.65 522.2 211.6 522.4 212.45 522.9 213.25 523.35 213.8 524.15 214.3 524.9 214.3 525.9 214.3 527.25 213.5 528.15 212.7 529.1 211.5 529.7 210.35 530.3 209.1 530.55 207.85 530.8 207 530.8
L 205.1 530.8
Q 204.75 530.8 204.65 530.9 204.55 530.95 204.55 531.35
L 204.55 534.3
Q 204.55 534.6 204.65 534.7 204.75 534.8 205.1 534.8
L 207.05 534.8
Q 209 534.8 210.35 535.2 211.75 535.55 212.65 536.25 213.5 536.9 213.95 537.75 214.35 538.6 214.35 539.55 214.35 542.2 212.4 543.55 211.75 544 211 544.25 210.2 544.55 209.35 544.65 208.5 544.75 207.6 544.7 206.7 544.65 205.9 544.6 204.8 544.5 203.75 544.2 202.7 543.9 201.65 543.6 201.1 543.35 200.9 543.5 200.7 543.6 200.65 543.95
L 200.3 547
Q 200.25 547.35 200.45 547.5 200.6 547.7 201 547.8 202.45 548.35 204.2 548.65 205.95 548.95 207.7 548.95 210 548.95 212.15 548.35 214.3 547.8 215.8 546.55 217.3 545.3 218.15 543.55 218.95 541.75 218.95 539.65 218.95 537.45 217.6 535.65 216.25 533.9 213.6 532.75 214.7 532.25 215.65 531.5 216.6 530.75 217.3 529.75 218 528.8 218.4 527.75 218.75 526.65 218.75 525.55 218.75 523.55 217.9 522.05 217.05 520.55 215.7 519.65
M 195.4 518.35
Q 195.25 518.15 195 518.15
L 180.35 518.15
Q 179.75 518.15 179.65 518.3 179.5 518.4 179.5 518.85
L 179.3 533.6
Q 179.3 534.95 180.85 534.3 182.1 533.85 183.5 533.6 184.9 533.3 186.2 533.3 189.5 533.3 190.9 534.85 192.35 536.35 192.35 538.95 192.35 541.65 190.55 543.15 188.85 544.7 186.15 544.7 185.45 544.7 184.6 544.6 183.8 544.55 182.95 544.4 182.1 544.2 181.3 544 180.5 543.75 179.95 543.45 179.1 543.05 179.1 543.75
L 179.1 547
Q 179.1 547.3 179.1 547.45 179.15 547.55 179.4 547.75 180.05 548.05 181 548.25 181.9 548.5 182.85 548.65 183.8 548.75 184.6 548.85 185.45 548.9 185.85 548.9 188.15 548.9 190.2 548.25 192.3 547.6 193.7 546.3 196.85 543.5 196.85 538.45 196.85 536.35 196.1 534.7 195.35 533 194.05 531.8 192.75 530.65 191 530 189.25 529.4 187.25 529.4 185.3 529.4 183.7 529.75
L 183.85 522.35 195 522.35
Q 195.25 522.35 195.4 522.15 195.5 522 195.5 521.75
L 195.5 518.7
Q 195.5 518.5 195.4 518.35
M 168.35 517.85
Q 164.6 517.85 162.05 519.15 159.5 520.5 157.9 522.75 156.35 524.95 155.65 528 154.95 531 154.95 534.4 154.95 541.85 157.5 545.4 160.05 548.95 164.75 548.95 167.05 548.95 168.9 548.15 170.75 547.35 172.05 545.9 173.35 544.55 174 542.6 174.7 540.75 174.7 538.55 174.7 536.25 174 534.45 173.3 532.6 172 531.3 170.75 530 168.95 529.3 167.2 528.6 165 528.6 164.25 528.6 163.45 528.85 162.65 529.05 161.9 529.4 161.15 529.75 160.55 530.2 159.95 530.65 159.6 531.15 159.85 529.2 160.45 527.5 161 525.85 162 524.6 163 523.35 164.45 522.65 165.95 522 168 522 169.4 522 170.6 522.1 171.75 522.2 172.8 522.6 173.35 522.85 173.45 522.3
L 173.55 519.1
Q 173.6 518.7 173.25 518.6 172.35 518.25 170.9 518.05 169.5 517.85 168.35 517.85
M 168.95 534.4
Q 170.3 535.95 170.3 538.75 170.3 541.6 168.8 543.3 167.25 544.95 164.85 544.95 163.75 544.95 162.75 544.45 161.8 543.95 161.1 543.05 160.4 542.15 160 540.9 159.6 539.75 159.6 538.35 159.6 535.9 161.1 534.35 162.55 532.8 165.15 532.8 167.6 532.8 168.95 534.4
M 145.7 518.35
Q 144 517.85 142 517.85 140.05 517.85 138.35 518.4 136.65 518.95 135.4 519.95 134.15 520.95 133.4 522.35 132.65 523.75 132.65 525.45 132.65 527.75 134.05 529.55 135.45 531.35 137.85 532.75 136.65 533.35 135.55 534.05 134.45 534.75 133.65 535.65 132.85 536.55 132.3 537.7 131.85 538.85 131.85 540.35 131.85 542.5 132.75 544.1 133.65 545.75 135.1 546.8 136.55 547.85 138.35 548.4 140.2 548.95 142 548.95 143.95 548.95 145.75 548.4 147.65 547.85 149.05 546.8 150.45 545.75 151.3 544.1 152.2 542.5 152.2 540.35 152.2 538.95 151.75 537.95 151.35 536.9 150.55 536 149.75 535.1 148.65 534.3 147.5 533.55 146.1 532.7 148.7 530.9 149.95 529.15 151.2 527.35 151.2 525.35 151.2 523.6 150.5 522.2 149.8 520.8 148.6 519.85 147.4 518.9 145.7 518.35
M 138.8 522.85
Q 139.45 522.35 140.3 522.05 141.15 521.75 142 521.75 142.95 521.75 143.8 522.1 144.65 522.35 145.3 522.9 145.95 523.45 146.3 524.15 146.7 524.85 146.7 525.65 146.7 526.35 146.2 527.15 145.7 527.95 144.95 528.7 144.2 529.4 143.4 529.95 142.65 530.5 142 530.75 141.5 530.55 140.7 530.05 139.9 529.6 139.1 528.9 138.35 528.2 137.8 527.4 137.2 526.6 137.2 525.75 137.2 524.8 137.65 524.05 138.1 523.35 138.8 522.85
M 138.35 536.65
Q 139.2 536 140.25 535.6 141.2 535.15 142 534.95 143 535.3 144 535.9 145 536.5 145.85 537.2 146.65 537.95 147.15 538.75 147.65 539.6 147.65 540.35 147.65 541.4 147.15 542.25 146.65 543.1 145.85 543.7 145.05 544.3 144.05 544.6 143 544.9 142 544.9 141.05 544.9 140 544.6 139 544.25 138.15 543.65 137.35 543.05 136.85 542.2 136.3 541.35 136.3 540.35 136.3 539.1 136.9 538.2 137.5 537.3 138.35 536.65
M 85.25 542.45
Q 84.65 542.45 84.65 543
L 84.65 545.7
Q 84.65 545.9 84.8 546.1 84.95 546.3 85.25 546.3
L 120.05 546.3
Q 120.25 546.3 120.45 546.1 120.65 545.9 120.65 545.7
L 120.65 543
Q 120.65 542.8 120.45 542.6 120.25 542.45 120.05 542.45
L 104.95 542.45 104.95 534.95
Q 104.95 534.75 104.75 534.6 104.6 534.4 104.35 534.4
L 100.85 534.4
Q 100.3 534.4 100.3 534.95
L 100.3 542.45 85.25 542.45
M 113.65 519.55
Q 113.65 518.6 112.85 518.1 112.1 517.6 110.45 517.6
L 91.2 517.6
Q 90.65 517.6 90.65 518.1
L 90.65 520.9
Q 90.65 521.4 91.2 521.4
L 106.45 521.4
Q 107.05 521.4 107.05 521.6 107.05 521.8 106.6 522.25 103.85 525.1 99.35 527.6 94.8 530.1 88.65 532 88.4 532.05 88.25 532.35 88.05 532.7 88.15 533
L 89.1 535.45
Q 89.15 535.65 89.55 535.75 89.85 535.8 90.15 535.75 93.8 534.75 97.25 533.25 100.7 531.75 103.75 529.9 105.2 530.7 106.7 531.45 108.25 532.2 109.8 532.9 111.3 533.6 112.75 534.15 114.15 534.7 115.35 535.1 115.65 535.15 115.95 535.1 116.3 535 116.4 534.75
L 117.45 532.15
Q 117.75 531.55 117.1 531.35 116.2 531.05 114.95 530.6 113.7 530.1 112.35 529.6 111.05 529 109.7 528.4 108.4 527.8 107.4 527.35 109.8 525.4 111.7 523.2 113.65 520.95 113.65 519.55
M 75.85 518.4
Q 74.25 517.85 72.3 517.85 70.45 517.85 68.45 518.5 66.5 519.15 65 519.95 64.6 520.15 64.45 520.4 64.35 520.55 64.45 520.75
L 65 523.8
Q 65.1 524.15 65.4 524.2 65.7 524.2 66.05 524 67.85 522.95 69.35 522.5 70.9 522.05 72.55 522.05 74.3 522.05 75.45 523.3 76.65 524.55 76.65 526.45 76.65 528.15 75.05 530.75 73.45 533.4 70.1 537.35
L 64 544.6
Q 63.8 544.9 63.6 545.2 63.45 545.55 63.45 545.85
L 63.45 548.15
Q 63.45 548.65 64.2 548.65
L 81.25 548.65
Q 81.8 548.65 81.8 547.95
L 81.8 545.15
Q 81.8 544.55 81.25 544.55
L 69.5 544.55
Q 70.5 543.4 71.5 542.25 72.5 541.05 73.35 539.95 74.45 538.65 75.85 537.05 77.2 535.4 78.4 533.65 79.6 531.85 80.4 530 81.2 528.15 81.2 526.35 81.2 524.25 80.5 522.65 79.8 521.05 78.65 520 77.5 518.95 75.85 518.4
M 267.15 319.9
Q 267.75 317 267.75 313.35 267.75 311.7 267.55 309.95 267.4 308.15 267 306.45 266.6 304.75 265.9 303.2 265.2 301.65 264.05 300.45 263 299.3 261.4 298.6 259.85 297.95 257.8 297.95 254.6 297.95 252.65 299.4 250.7 300.9 249.6 303.15 248.5 305.45 248.1 308.15 247.75 310.9 247.75 313.35 247.75 320.7 250.2 324.75 252.65 328.8 257.8 328.8 260.35 328.8 262.2 327.8 264.05 326.7 265.3 324.75 266.55 322.8 267.15 319.9
M 261.8 304.75
Q 262.5 306.1 262.9 308.2 263.25 310.35 263.25 313.35 263.25 316.45 262.9 318.6 262.5 320.7 261.8 322 261.05 323.35 260.05 323.9 259 324.5 257.8 324.5 256.5 324.5 255.5 323.9 254.5 323.35 253.8 322 253.05 320.7 252.7 318.6 252.3 316.45 252.3 313.35 252.3 310.35 252.7 308.2 253.05 306.1 253.8 304.75 254.5 303.45 255.5 302.9 256.5 302.3 257.8 302.3 259 302.3 260.05 302.9 261.05 303.45 261.8 304.75
M 238.25 298.35
Q 236.55 297.85 234.55 297.85 232.6 297.85 230.9 298.4 229.2 298.95 227.95 299.95 226.7 300.95 225.95 302.35 225.2 303.75 225.2 305.45 225.2 307.75 226.6 309.55 228 311.35 230.4 312.75 229.2 313.35 228.1 314.05 227 314.75 226.2 315.65 225.4 316.55 224.85 317.7 224.4 318.85 224.4 320.35 224.4 322.5 225.3 324.1 226.2 325.75 227.65 326.8 229.1 327.85 230.9 328.4 232.75 328.95 234.55 328.95 236.5 328.95 238.3 328.4 240.2 327.85 241.6 326.8 243 325.75 243.85 324.1 244.75 322.5 244.75 320.35 244.75 318.95 244.3 317.95 243.9 316.9 243.1 316 242.3 315.1 241.2 314.3 240.05 313.55 238.65 312.7 241.25 310.9 242.5 309.15 243.75 307.35 243.75 305.35 243.75 303.6 243.05 302.2 242.35 300.8 241.15 299.85 239.95 298.9 238.25 298.35
M 238.75 307.15
Q 238.25 307.95 237.5 308.7 236.75 309.4 235.95 309.95 235.2 310.5 234.55 310.75 234.05 310.55 233.25 310.05 232.45 309.6 231.65 308.9 230.9 308.2 230.35 307.4 229.75 306.6 229.75 305.75 229.75 304.8 230.2 304.05 230.65 303.35 231.35 302.85 232 302.35 232.85 302.05 233.7 301.75 234.55 301.75 235.5 301.75 236.35 302.1 237.2 302.35 237.85 302.9 238.5 303.45 238.85 304.15 239.25 304.85 239.25 305.65 239.25 306.35 238.75 307.15
M 228.85 320.35
Q 228.85 319.1 229.45 318.2 230.05 317.3 230.9 316.65 231.75 316 232.8 315.6 233.75 315.15 234.55 314.95 235.55 315.3 236.55 315.9 237.55 316.5 238.4 317.2 239.2 317.95 239.7 318.75 240.2 319.6 240.2 320.35 240.2 321.4 239.7 322.25 239.2 323.1 238.4 323.7 237.6 324.3 236.6 324.6 235.55 324.9 234.55 324.9 233.6 324.9 232.55 324.6 231.55 324.25 230.7 323.65 229.9 323.05 229.4 322.2 228.85 321.35 228.85 320.35
M 220.05 302
Q 220.3 301.7 220.3 301.35
L 220.3 298.95
Q 220.3 298.5 220.15 298.35 220 298.2 219.3 298.2
L 202.3 298.2
Q 201.6 298.2 201.6 298.85
L 201.6 301.65
Q 201.6 302 201.8 302.15 202 302.35 202.3 302.35
L 215.05 302.35 204.6 327.9
Q 204.45 328.35 204.6 328.45 204.75 328.6 205.35 328.6
L 208.6 328.6
Q 209 328.6 209.15 328.5 209.3 328.35 209.5 328.05
L 220.05 302
M 187.95 297.85
Q 185.65 297.85 183.85 298.65 182 299.45 180.7 300.85 179.4 302.25 178.7 304.15 178.05 306.05 178.05 308.25 178.05 310.55 178.75 312.35 179.4 314.15 180.7 315.45 182 316.75 183.8 317.45 185.55 318.15 187.7 318.15 188.45 318.15 189.25 317.95 190.05 317.75 190.8 317.4 191.55 317.05 192.2 316.6 192.8 316.15 193.15 315.65 192.9 317.55 192.3 319.25 191.7 320.9 190.7 322.15 189.7 323.4 188.25 324.1 186.8 324.8 184.7 324.8 183.3 324.8 182.15 324.7 180.95 324.6 179.9 324.15 179.35 323.95 179.25 324.5
L 179.15 327.7
Q 179.1 328.1 179.45 328.2 180.4 328.55 181.8 328.75 183.25 328.95 184.4 328.95 188.1 328.95 190.65 327.6 193.25 326.3 194.8 324.05 196.4 321.8 197.1 318.8 197.75 315.75 197.75 312.4 197.75 304.95 195.2 301.4 192.65 297.85 187.95 297.85
M 192.7 305.85
Q 193.1 307.05 193.1 308.4 193.1 310.85 191.65 312.45 190.15 314 187.55 314 185.1 314 183.8 312.4 182.45 310.8 182.45 308.05 182.45 305.15 183.95 303.5 185.5 301.8 187.9 301.8 189 301.8 189.95 302.35 190.9 302.85 191.6 303.75 192.3 304.65 192.7 305.85
M 155.8 300.75
L 156.35 303.8
Q 156.45 304.15 156.75 304.2 157.05 304.2 157.4 304 159.2 302.95 160.7 302.5 162.25 302.05 163.9 302.05 165.65 302.05 166.8 303.3 168 304.55 168 306.45 168 308.15 166.4 310.75 164.8 313.4 161.45 317.35
L 155.35 324.6
Q 155.15 324.9 154.95 325.2 154.8 325.55 154.8 325.85
L 154.8 328.15
Q 154.8 328.65 155.55 328.65
L 172.6 328.65
Q 173.15 328.65 173.15 327.95
L 173.15 325.15
Q 173.15 324.55 172.6 324.55
L 160.85 324.55
Q 161.85 323.4 162.85 322.25 163.85 321.05 164.7 319.95 165.8 318.65 167.2 317.05 168.55 315.4 169.75 313.65 170.95 311.85 171.75 310 172.55 308.15 172.55 306.35 172.55 304.25 171.85 302.65 171.15 301.05 170 300 168.85 298.95 167.2 298.4 165.6 297.85 163.65 297.85 161.8 297.85 159.8 298.5 157.85 299.15 156.35 299.95 155.95 300.15 155.8 300.4 155.7 300.55 155.8 300.75
M 149.7 307.75
Q 150.05 306.65 150.05 305.55 150.05 303.55 149.2 302.05 148.35 300.55 147 299.65 145.7 298.75 143.95 298.3 142.2 297.85 140.4 297.85 138.7 297.85 137.05 298.2 135.35 298.6 133.6 299.2 133.2 299.4 133.05 299.6 132.9 299.75 133 300
L 133.35 302.95
Q 133.45 303.3 133.65 303.4 133.85 303.5 134.35 303.3 134.95 303.05 135.75 302.8 136.55 302.55 137.35 302.4 138.15 302.2 138.9 302.1 139.6 302 140.15 302 141 302 141.95 302.2 142.9 302.4 143.75 302.9 144.55 303.35 145.1 304.15 145.6 304.9 145.6 305.9 145.6 307.25 144.8 308.15 144 309.1 142.8 309.7 141.65 310.3 140.4 310.55 139.15 310.8 138.3 310.8
L 136.4 310.8
Q 136.05 310.8 135.95 310.9 135.85 310.95 135.85 311.35
L 135.85 314.3
Q 135.85 314.6 135.95 314.7 136.05 314.8 136.4 314.8
L 138.35 314.8
Q 140.3 314.8 141.65 315.2 143.05 315.55 143.95 316.25 144.8 316.9 145.25 317.75 145.65 318.6 145.65 319.55 145.65 322.2 143.7 323.55 143.05 324 142.3 324.25 141.5 324.55 140.65 324.65 139.8 324.75 138.9 324.7 138 324.65 137.2 324.6 136.1 324.5 135.05 324.2 134 323.9 132.95 323.6 132.4 323.35 132.2 323.5 132 323.6 131.95 323.95
L 131.6 327
Q 131.55 327.35 131.75 327.5 131.9 327.7 132.3 327.8 133.75 328.35 135.5 328.65 137.25 328.95 139 328.95 141.3 328.95 143.45 328.35 145.6 327.8 147.1 326.55 148.6 325.3 149.45 323.55 150.25 321.75 150.25 319.65 150.25 317.45 148.9 315.65 147.55 313.9 144.9 312.75 146 312.25 146.95 311.5 147.9 310.75 148.6 309.75 149.3 308.8 149.7 307.75
M 481.4 298.6
Q 479.85 297.95 477.8 297.95 474.6 297.95 472.65 299.4 470.7 300.9 469.6 303.15 468.5 305.45 468.1 308.15 467.75 310.9 467.75 313.35 467.75 320.7 470.2 324.75 472.65 328.8 477.8 328.8 480.35 328.8 482.2 327.8 484.05 326.7 485.3 324.75 486.55 322.8 487.15 319.9 487.75 317 487.75 313.35 487.75 311.7 487.55 309.95 487.4 308.15 487 306.45 486.6 304.75 485.9 303.2 485.2 301.65 484.05 300.45 483 299.3 481.4 298.6
M 481.8 304.75
Q 482.5 306.1 482.9 308.2 483.25 310.35 483.25 313.35 483.25 316.45 482.9 318.6 482.5 320.7 481.8 322 481.05 323.35 480.05 323.9 479 324.5 477.8 324.5 476.5 324.5 475.5 323.9 474.5 323.35 473.8 322 473.05 320.7 472.7 318.6 472.3 316.45 472.3 313.35 472.3 310.35 472.7 308.2 473.05 306.1 473.8 304.75 474.5 303.45 475.5 302.9 476.5 302.3 477.8 302.3 479 302.3 480.05 302.9 481.05 303.45 481.8 304.75
M 463.05 302.2
Q 462.35 300.8 461.15 299.85 459.95 298.9 458.25 298.35 456.55 297.85 454.55 297.85 452.6 297.85 450.9 298.4 449.2 298.95 447.95 299.95 446.7 300.95 445.95 302.35 445.2 303.75 445.2 305.45 445.2 307.75 446.6 309.55 448 311.35 450.4 312.75 449.2 313.35 448.1 314.05 447 314.75 446.2 315.65 445.4 316.55 444.85 317.7 444.4 318.85 444.4 320.35 444.4 322.5 445.3 324.1 446.2 325.75 447.65 326.8 449.1 327.85 450.9 328.4 452.75 328.95 454.55 328.95 456.5 328.95 458.3 328.4 460.2 327.85 461.6 326.8 463 325.75 463.85 324.1 464.75 322.5 464.75 320.35 464.75 318.95 464.3 317.95 463.9 316.9 463.1 316 462.3 315.1 461.2 314.3 460.05 313.55 458.65 312.7 461.25 310.9 462.5 309.15 463.75 307.35 463.75 305.35 463.75 303.6 463.05 302.2
M 456.35 302.1
Q 457.2 302.35 457.85 302.9 458.5 303.45 458.85 304.15 459.25 304.85 459.25 305.65 459.25 306.35 458.75 307.15 458.25 307.95 457.5 308.7 456.75 309.4 455.95 309.95 455.2 310.5 454.55 310.75 454.05 310.55 453.25 310.05 452.45 309.6 451.65 308.9 450.9 308.2 450.35 307.4 449.75 306.6 449.75 305.75 449.75 304.8 450.2 304.05 450.65 303.35 451.35 302.85 452 302.35 452.85 302.05 453.7 301.75 454.55 301.75 455.5 301.75 456.35 302.1
M 448.85 320.35
Q 448.85 319.1 449.45 318.2 450.05 317.3 450.9 316.65 451.75 316 452.8 315.6 453.75 315.15 454.55 314.95 455.55 315.3 456.55 315.9 457.55 316.5 458.4 317.2 459.2 317.95 459.7 318.75 460.2 319.6 460.2 320.35 460.2 321.4 459.7 322.25 459.2 323.1 458.4 323.7 457.6 324.3 456.6 324.6 455.55 324.9 454.55 324.9 453.6 324.9 452.55 324.6 451.55 324.25 450.7 323.65 449.9 323.05 449.4 322.2 448.85 321.35 448.85 320.35
M 440.15 298.35
Q 440 298.2 439.3 298.2
L 422.3 298.2
Q 421.6 298.2 421.6 298.85
L 421.6 301.65
Q 421.6 302 421.8 302.15 422 302.35 422.3 302.35
L 435.05 302.35 424.6 327.9
Q 424.45 328.35 424.6 328.45 424.75 328.6 425.35 328.6
L 428.6 328.6
Q 429 328.6 429.15 328.5 429.3 328.35 429.5 328.05
L 440.05 302
Q 440.3 301.7 440.3 301.35
L 440.3 298.95
Q 440.3 298.5 440.15 298.35
M 398.7 304.15
Q 398.05 306.05 398.05 308.25 398.05 310.55 398.75 312.35 399.4 314.15 400.7 315.45 402 316.75 403.8 317.45 405.55 318.15 407.7 318.15 408.45 318.15 409.25 317.95 410.05 317.75 410.8 317.4 411.55 317.05 412.2 316.6 412.8 316.15 413.15 315.65 412.9 317.55 412.3 319.25 411.7 320.9 410.7 322.15 409.7 323.4 408.25 324.1 406.8 324.8 404.7 324.8 403.3 324.8 402.15 324.7 400.95 324.6 399.9 324.15 399.35 323.95 399.25 324.5
L 399.15 327.7
Q 399.1 328.1 399.45 328.2 400.4 328.55 401.8 328.75 403.25 328.95 404.4 328.95 408.1 328.95 410.65 327.6 413.25 326.3 414.8 324.05 416.4 321.8 417.1 318.8 417.75 315.75 417.75 312.4 417.75 304.95 415.2 301.4 412.65 297.85 407.95 297.85 405.65 297.85 403.85 298.65 402 299.45 400.7 300.85 399.4 302.25 398.7 304.15
M 402.45 308.05
Q 402.45 305.15 403.95 303.5 405.5 301.8 407.9 301.8 409 301.8 409.95 302.35 410.9 302.85 411.6 303.75 412.3 304.65 412.7 305.85 413.1 307.05 413.1 308.4 413.1 310.85 411.65 312.45 410.15 314 407.55 314 405.1 314 403.8 312.4 402.45 310.8 402.45 308.05
M 386.8 303.3
Q 388 304.55 388 306.45 388 308.15 386.4 310.75 384.8 313.4 381.45 317.35
L 375.35 324.6
Q 375.15 324.9 374.95 325.2 374.8 325.55 374.8 325.85
L 374.8 328.15
Q 374.8 328.65 375.55 328.65
L 392.6 328.65
Q 393.15 328.65 393.15 327.95
L 393.15 325.15
Q 393.15 324.55 392.6 324.55
L 380.85 324.55
Q 381.85 323.4 382.85 322.25 383.85 321.05 384.7 319.95 385.8 318.65 387.2 317.05 388.55 315.4 389.75 313.65 390.95 311.85 391.75 310 392.55 308.15 392.55 306.35 392.55 304.25 391.85 302.65 391.15 301.05 390 300 388.85 298.95 387.2 298.4 385.6 297.85 383.65 297.85 381.8 297.85 379.8 298.5 377.85 299.15 376.35 299.95 375.95 300.15 375.8 300.4 375.7 300.55 375.8 300.75
L 376.35 303.8
Q 376.45 304.15 376.75 304.2 377.05 304.2 377.4 304 379.2 302.95 380.7 302.5 382.25 302.05 383.9 302.05 385.65 302.05 386.8 303.3
M 372.25 321.7
Q 372.4 321.6 372.4 321.2
L 372.4 318.3
Q 372.4 317.9 372.25 317.8 372.1 317.7 371.75 317.7
L 368.05 317.7 368.05 298.8
Q 368.05 298.45 368 298.35 367.95 298.2 367.65 298.2
L 364 298.2
Q 363.6 298.2 363.5 298.3 363.4 298.4 363.2 298.75
L 350.8 317.35
Q 350.65 317.5 350.5 317.8 350.3 318.1 350.3 318.35
L 350.3 321.35
Q 350.3 321.65 350.45 321.7 350.6 321.8 350.95 321.8
L 363.75 321.8 363.75 327.9
Q 363.75 328.3 363.9 328.45 364.05 328.6 364.5 328.6
L 367.4 328.6
Q 367.8 328.6 367.9 328.45 368.05 328.35 368.05 327.9
L 368.05 321.8 371.75 321.8
Q 372.1 321.8 372.25 321.7
M 363.75 317.7
L 355.15 317.7 363.75 304.65 363.75 317.7
M 949.5 538.65
Q 949.3 538.75 949.3 539.05
L 949.3 541.9
Q 949.3 542.1 949.5 542.25 949.7 542.35 949.9 542.35
L 968.4 542.35
Q 968.8 542.35 968.95 542.5 969.1 542.6 969.1 543.05
L 969.1 552.15
Q 969.1 552.35 969.25 552.5 969.45 552.7 969.7 552.7
L 973.15 552.7
Q 973.35 552.7 973.5 552.5 973.7 552.35 973.7 552.15
L 973.7 541.35
Q 973.7 539.8 973.15 539.15 972.6 538.55 971.05 538.55
L 949.9 538.55
Q 949.7 538.55 949.5 538.65
M 956.9 516.7
Q 955.3 516.2 953.4 516.2 951.3 516.2 949.55 516.9 947.75 517.6 946.5 518.85 945.2 520.1 944.55 521.8 943.85 523.55 943.85 525.45 943.85 527.45 944.55 529.15 945.2 530.85 946.5 532.1 947.75 533.3 949.55 533.95 951.3 534.65 953.4 534.65 955.3 534.65 956.9 534.15 958.55 533.6 959.8 532.65 961.05 531.7 961.85 530.4 962.7 529.05 963 527.4
L 969.1 527.4 969.1 535.9
Q 969.1 536.45 969.65 536.45
L 973.2 536.45
Q 973.7 536.45 973.7 535.9
L 973.7 515.35
Q 973.7 514.8 973.25 514.8
L 969.7 514.8
Q 969.5 514.8 969.3 514.95 969.1 515.1 969.1 515.35
L 969.1 523.6 963 523.6
Q 962.7 522 961.85 520.65 961.05 519.3 959.8 518.3 958.55 517.3 956.9 516.7
M 949.7 529.4
Q 948.25 527.95 948.25 525.55 948.25 523.15 949.7 521.7 951.15 520.3 953.4 520.3 955.8 520.3 957.2 521.7 958.65 523.15 958.65 525.55 958.65 527.95 957.2 529.4 955.8 530.8 953.4 530.8 951.15 530.8 949.7 529.4
M 935.7 519.65
Q 934.4 518.75 932.65 518.3 930.9 517.85 929.1 517.85 927.4 517.85 925.75 518.2 924.05 518.6 922.3 519.2 921.9 519.4 921.75 519.6 921.6 519.75 921.7 520
L 922.05 522.95
Q 922.15 523.3 922.35 523.4 922.55 523.5 923.05 523.3 923.65 523.05 924.45 522.8 925.25 522.55 926.05 522.4 926.85 522.2 927.6 522.1 928.3 522 928.85 522 929.7 522 930.65 522.2 931.6 522.4 932.45 522.9 933.25 523.35 933.8 524.15 934.3 524.9 934.3 525.9 934.3 527.25 933.5 528.15 932.7 529.1 931.5 529.7 930.35 530.3 929.1 530.55 927.85 530.8 927 530.8
L 925.1 530.8
Q 924.75 530.8 924.65 530.9 924.55 530.95 924.55 531.35
L 924.55 534.3
Q 924.55 534.6 924.65 534.7 924.75 534.8 925.1 534.8
L 927.05 534.8
Q 929 534.8 930.35 535.2 931.75 535.55 932.65 536.25 933.5 536.9 933.95 537.75 934.35 538.6 934.35 539.55 934.35 542.2 932.4 543.55 931.75 544 931 544.25 930.2 544.55 929.35 544.65 928.5 544.75 927.6 544.7 926.7 544.65 925.9 544.6 924.8 544.5 923.75 544.2 922.7 543.9 921.65 543.6 921.1 543.35 920.9 543.5 920.7 543.6 920.65 543.95
L 920.3 547
Q 920.25 547.35 920.45 547.5 920.6 547.7 921 547.8 922.45 548.35 924.2 548.65 925.95 548.95 927.7 548.95 930 548.95 932.15 548.35 934.3 547.8 935.8 546.55 937.3 545.3 938.15 543.55 938.95 541.75 938.95 539.65 938.95 537.45 937.6 535.65 936.25 533.9 933.6 532.75 934.7 532.25 935.65 531.5 936.6 530.75 937.3 529.75 938 528.8 938.4 527.75 938.75 526.65 938.75 525.55 938.75 523.55 937.9 522.05 937.05 520.55 935.7 519.65
M 915.5 518.7
Q 915.5 518.5 915.4 518.35 915.25 518.15 915 518.15
L 900.35 518.15
Q 899.75 518.15 899.65 518.3 899.5 518.4 899.5 518.85
L 899.3 533.6
Q 899.3 534.95 900.85 534.3 902.1 533.85 903.5 533.6 904.9 533.3 906.2 533.3 909.5 533.3 910.9 534.85 912.35 536.35 912.35 538.95 912.35 541.65 910.55 543.15 908.85 544.7 906.15 544.7 905.45 544.7 904.6 544.6 903.8 544.55 902.95 544.4 902.1 544.2 901.3 544 900.5 543.75 899.95 543.45 899.1 543.05 899.1 543.75
L 899.1 547
Q 899.1 547.3 899.1 547.45 899.15 547.55 899.4 547.75 900.05 548.05 901 548.25 901.9 548.5 902.85 548.65 903.8 548.75 904.6 548.85 905.45 548.9 905.85 548.9 908.15 548.9 910.2 548.25 912.3 547.6 913.7 546.3 916.85 543.5 916.85 538.45 916.85 536.35 916.1 534.7 915.35 533 914.05 531.8 912.75 530.65 911 530 909.25 529.4 907.25 529.4 905.3 529.4 903.7 529.75
L 903.85 522.35 915 522.35
Q 915.25 522.35 915.4 522.15 915.5 522 915.5 521.75
L 915.5 518.7
M 890.9 518.05
Q 889.5 517.85 888.35 517.85 884.6 517.85 882.05 519.15 879.5 520.5 877.9 522.75 876.35 524.95 875.65 528 874.95 531 874.95 534.4 874.95 541.85 877.5 545.4 880.05 548.95 884.75 548.95 887.05 548.95 888.9 548.15 890.75 547.35 892.05 545.9 893.35 544.55 894 542.6 894.7 540.75 894.7 538.55 894.7 536.25 894 534.45 893.3 532.6 892 531.3 890.75 530 888.95 529.3 887.2 528.6 885 528.6 884.25 528.6 883.45 528.85 882.65 529.05 881.9 529.4 881.15 529.75 880.55 530.2 879.95 530.65 879.6 531.15 879.85 529.2 880.45 527.5 881 525.85 882 524.6 883 523.35 884.45 522.65 885.95 522 888 522 889.4 522 890.6 522.1 891.75 522.2 892.8 522.6 893.35 522.85 893.45 522.3
L 893.55 519.1
Q 893.6 518.7 893.25 518.6 892.35 518.25 890.9 518.05
M 880 540.9
Q 879.6 539.75 879.6 538.35 879.6 535.9 881.1 534.35 882.55 532.8 885.15 532.8 887.6 532.8 888.95 534.4 890.3 535.95 890.3 538.75 890.3 541.6 888.8 543.3 887.25 544.95 884.85 544.95 883.75 544.95 882.75 544.45 881.8 543.95 881.1 543.05 880.4 542.15 880 540.9
M 864.85 519.3
Q 864.85 518.5 864.7 518.35 864.6 518.2 863.9 518.2
L 861.8 518.2
Q 861.65 518.2 861.45 518.3 861.25 518.35 861.2 518.45
L 855.05 524.1
Q 854.85 524.3 854.85 524.5 854.8 524.75 854.95 524.9
L 856.75 527.05
Q 856.9 527.2 857.15 527.15 857.4 527.15 857.65 527
L 860.6 524.4 860.6 548.1
Q 860.6 548.6 861.15 548.6
L 864.35 548.6
Q 864.85 548.6 864.85 548.1
L 864.85 519.3
M 824.75 534.6
Q 824.6 534.4 824.35 534.4
L 820.85 534.4
Q 820.3 534.4 820.3 534.95
L 820.3 542.45 805.25 542.45
Q 804.65 542.45 804.65 543
L 804.65 545.7
Q 804.65 545.9 804.8 546.1 804.95 546.3 805.25 546.3
L 840.05 546.3
Q 840.25 546.3 840.45 546.1 840.65 545.9 840.65 545.7
L 840.65 543
Q 840.65 542.8 840.45 542.6 840.25 542.45 840.05 542.45
L 824.95 542.45 824.95 534.95
Q 824.95 534.75 824.75 534.6
M 833.65 519.55
Q 833.65 518.6 832.85 518.1 832.1 517.6 830.45 517.6
L 811.2 517.6
Q 810.65 517.6 810.65 518.1
L 810.65 520.9
Q 810.65 521.4 811.2 521.4
L 826.45 521.4
Q 827.05 521.4 827.05 521.6 827.05 521.8 826.6 522.25 823.85 525.1 819.35 527.6 814.8 530.1 808.65 532 808.4 532.05 808.25 532.35 808.05 532.7 808.15 533
L 809.1 535.45
Q 809.15 535.65 809.55 535.75 809.85 535.8 810.15 535.75 813.8 534.75 817.25 533.25 820.7 531.75 823.75 529.9 825.2 530.7 826.7 531.45 828.25 532.2 829.8 532.9 831.3 533.6 832.75 534.15 834.15 534.7 835.35 535.1 835.65 535.15 835.95 535.1 836.3 535 836.4 534.75
L 837.45 532.15
Q 837.75 531.55 837.1 531.35 836.2 531.05 834.95 530.6 833.7 530.1 832.35 529.6 831.05 529 829.7 528.4 828.4 527.8 827.4 527.35 829.8 525.4 831.7 523.2 833.65 520.95 833.65 519.55
M 798.9 519.65
Q 797.6 518.75 795.85 518.3 794.1 517.85 792.3 517.85 790.6 517.85 788.95 518.2 787.25 518.6 785.5 519.2 785.1 519.4 784.95 519.6 784.8 519.75 784.9 520
L 785.25 522.95
Q 785.35 523.3 785.55 523.4 785.75 523.5 786.25 523.3 786.85 523.05 787.65 522.8 788.45 522.55 789.25 522.4 790.05 522.2 790.8 522.1 791.5 522 792.05 522 792.9 522 793.85 522.2 794.8 522.4 795.65 522.9 796.45 523.35 797 524.15 797.5 524.9 797.5 525.9 797.5 527.25 796.7 528.15 795.9 529.1 794.7 529.7 793.55 530.3 792.3 530.55 791.05 530.8 790.2 530.8
L 788.3 530.8
Q 787.95 530.8 787.85 530.9 787.75 530.95 787.75 531.35
L 787.75 534.3
Q 787.75 534.6 787.85 534.7 787.95 534.8 788.3 534.8
L 790.25 534.8
Q 792.2 534.8 793.55 535.2 794.95 535.55 795.85 536.25 796.7 536.9 797.15 537.75 797.55 538.6 797.55 539.55 797.55 542.2 795.6 543.55 794.95 544 794.2 544.25 793.4 544.55 792.55 544.65 791.7 544.75 790.8 544.7 789.9 544.65 789.1 544.6 788 544.5 786.95 544.2 785.9 543.9 784.85 543.6 784.3 543.35 784.1 543.5 783.9 543.6 783.85 543.95
L 783.5 547
Q 783.45 547.35 783.65 547.5 783.8 547.7 784.2 547.8 785.65 548.35 787.4 548.65 789.15 548.95 790.9 548.95 793.2 548.95 795.35 548.35 797.5 547.8 799 546.55 800.5 545.3 801.35 543.55 802.15 541.75 802.15 539.65 802.15 537.45 800.8 535.65 799.45 533.9 796.8 532.75 797.9 532.25 798.85 531.5 799.8 530.75 800.5 529.75 801.2 528.8 801.6 527.75 801.95 526.65 801.95 525.55 801.95 523.55 801.1 522.05 800.25 520.55 798.9 519.65
M 707 306.45
Q 706.6 304.75 705.9 303.2 705.2 301.65 704.05 300.45 703 299.3 701.4 298.6 699.85 297.95 697.8 297.95 694.6 297.95 692.65 299.4 690.7 300.9 689.6 303.15 688.5 305.45 688.1 308.15 687.75 310.9 687.75 313.35 687.75 320.7 690.2 324.75 692.65 328.8 697.8 328.8 700.35 328.8 702.2 327.8 704.05 326.7 705.3 324.75 706.55 322.8 707.15 319.9 707.75 317 707.75 313.35 707.75 311.7 707.55 309.95 707.4 308.15 707 306.45
M 700.05 302.9
Q 701.05 303.45 701.8 304.75 702.5 306.1 702.9 308.2 703.25 310.35 703.25 313.35 703.25 316.45 702.9 318.6 702.5 320.7 701.8 322 701.05 323.35 700.05 323.9 699 324.5 697.8 324.5 696.5 324.5 695.5 323.9 694.5 323.35 693.8 322 693.05 320.7 692.7 318.6 692.3 316.45 692.3 313.35 692.3 310.35 692.7 308.2 693.05 306.1 693.8 304.75 694.5 303.45 695.5 302.9 696.5 302.3 697.8 302.3 699 302.3 700.05 302.9
M 683.75 305.35
Q 683.75 303.6 683.05 302.2 682.35 300.8 681.15 299.85 679.95 298.9 678.25 298.35 676.55 297.85 674.55 297.85 672.6 297.85 670.9 298.4 669.2 298.95 667.95 299.95 666.7 300.95 665.95 302.35 665.2 303.75 665.2 305.45 665.2 307.75 666.6 309.55 668 311.35 670.4 312.75 669.2 313.35 668.1 314.05 667 314.75 666.2 315.65 665.4 316.55 664.85 317.7 664.4 318.85 664.4 320.35 664.4 322.5 665.3 324.1 666.2 325.75 667.65 326.8 669.1 327.85 670.9 328.4 672.75 328.95 674.55 328.95 676.5 328.95 678.3 328.4 680.2 327.85 681.6 326.8 683 325.75 683.85 324.1 684.75 322.5 684.75 320.35 684.75 318.95 684.3 317.95 683.9 316.9 683.1 316 682.3 315.1 681.2 314.3 680.05 313.55 678.65 312.7 681.25 310.9 682.5 309.15 683.75 307.35 683.75 305.35
M 679.25 305.65
Q 679.25 306.35 678.75 307.15 678.25 307.95 677.5 308.7 676.75 309.4 675.95 309.95 675.2 310.5 674.55 310.75 674.05 310.55 673.25 310.05 672.45 309.6 671.65 308.9 670.9 308.2 670.35 307.4 669.75 306.6 669.75 305.75 669.75 304.8 670.2 304.05 670.65 303.35 671.35 302.85 672 302.35 672.85 302.05 673.7 301.75 674.55 301.75 675.5 301.75 676.35 302.1 677.2 302.35 677.85 302.9 678.5 303.45 678.85 304.15 679.25 304.85 679.25 305.65
M 674.55 314.95
Q 675.55 315.3 676.55 315.9 677.55 316.5 678.4 317.2 679.2 317.95 679.7 318.75 680.2 319.6 680.2 320.35 680.2 321.4 679.7 322.25 679.2 323.1 678.4 323.7 677.6 324.3 676.6 324.6 675.55 324.9 674.55 324.9 673.6 324.9 672.55 324.6 671.55 324.25 670.7 323.65 669.9 323.05 669.4 322.2 668.85 321.35 668.85 320.35 668.85 319.1 669.45 318.2 670.05 317.3 670.9 316.65 671.75 316 672.8 315.6 673.75 315.15 674.55 314.95
M 649.15 328.5
Q 649.3 328.35 649.5 328.05
L 660.05 302
Q 660.3 301.7 660.3 301.35
L 660.3 298.95
Q 660.3 298.5 660.15 298.35 660 298.2 659.3 298.2
L 642.3 298.2
Q 641.6 298.2 641.6 298.85
L 641.6 301.65
Q 641.6 302 641.8 302.15 642 302.35 642.3 302.35
L 655.05 302.35 644.6 327.9
Q 644.45 328.35 644.6 328.45 644.75 328.6 645.35 328.6
L 648.6 328.6
Q 649 328.6 649.15 328.5
M 635.2 301.4
Q 632.65 297.85 627.95 297.85 625.65 297.85 623.85 298.65 622 299.45 620.7 300.85 619.4 302.25 618.7 304.15 618.05 306.05 618.05 308.25 618.05 310.55 618.75 312.35 619.4 314.15 620.7 315.45 622 316.75 623.8 317.45 625.55 318.15 627.7 318.15 628.45 318.15 629.25 317.95 630.05 317.75 630.8 317.4 631.55 317.05 632.2 316.6 632.8 316.15 633.15 315.65 632.9 317.55 632.3 319.25 631.7 320.9 630.7 322.15 629.7 323.4 628.25 324.1 626.8 324.8 624.7 324.8 623.3 324.8 622.15 324.7 620.95 324.6 619.9 324.15 619.35 323.95 619.25 324.5
L 619.15 327.7
Q 619.1 328.1 619.45 328.2 620.4 328.55 621.8 328.75 623.25 328.95 624.4 328.95 628.1 328.95 630.65 327.6 633.25 326.3 634.8 324.05 636.4 321.8 637.1 318.8 637.75 315.75 637.75 312.4 637.75 304.95 635.2 301.4
M 632.7 305.85
Q 633.1 307.05 633.1 308.4 633.1 310.85 631.65 312.45 630.15 314 627.55 314 625.1 314 623.8 312.4 622.45 310.8 622.45 308.05 622.45 305.15 623.95 303.5 625.5 301.8 627.9 301.8 629 301.8 629.95 302.35 630.9 302.85 631.6 303.75 632.3 304.65 632.7 305.85
M 612.6 328.65
Q 613.15 328.65 613.15 327.95
L 613.15 325.15
Q 613.15 324.55 612.6 324.55
L 600.85 324.55
Q 601.85 323.4 602.85 322.25 603.85 321.05 604.7 319.95 605.8 318.65 607.2 317.05 608.55 315.4 609.75 313.65 610.95 311.85 611.75 310 612.55 308.15 612.55 306.35 612.55 304.25 611.85 302.65 611.15 301.05 610 300 608.85 298.95 607.2 298.4 605.6 297.85 603.65 297.85 601.8 297.85 599.8 298.5 597.85 299.15 596.35 299.95 595.95 300.15 595.8 300.4 595.7 300.55 595.8 300.75
L 596.35 303.8
Q 596.45 304.15 596.75 304.2 597.05 304.2 597.4 304 599.2 302.95 600.7 302.5 602.25 302.05 603.9 302.05 605.65 302.05 606.8 303.3 608 304.55 608 306.45 608 308.15 606.4 310.75 604.8 313.4 601.45 317.35
L 595.35 324.6
Q 595.15 324.9 594.95 325.2 594.8 325.55 594.8 325.85
L 594.8 328.15
Q 594.8 328.65 595.55 328.65
L 612.6 328.65
M 590.9 318.45
Q 590.9 316.35 590.15 314.7 589.4 313 588.1 311.8 586.8 310.65 585.05 310 583.3 309.4 581.3 309.4 579.35 309.4 577.75 309.75
L 577.9 302.35 589.05 302.35
Q 589.3 302.35 589.45 302.15 589.55 302 589.55 301.75
L 589.55 298.7
Q 589.55 298.5 589.45 298.35 589.3 298.15 589.05 298.15
L 574.4 298.15
Q 573.8 298.15 573.7 298.3 573.55 298.4 573.55 298.85
L 573.35 313.6
Q 573.35 314.95 574.9 314.3 576.15 313.85 577.55 313.6 578.95 313.3 580.25 313.3 583.55 313.3 584.95 314.85 586.4 316.35 586.4 318.95 586.4 321.65 584.6 323.15 582.9 324.7 580.2 324.7 579.5 324.7 578.65 324.6 577.85 324.55 577 324.4 576.15 324.2 575.35 324 574.55 323.75 574 323.45 573.15 323.05 573.15 323.75
L 573.15 327
Q 573.15 327.3 573.15 327.45 573.2 327.55 573.45 327.75 574.1 328.05 575.05 328.25 575.95 328.5 576.9 328.65 577.85 328.75 578.65 328.85 579.5 328.9 579.9 328.9 582.2 328.9 584.25 328.25 586.35 327.6 587.75 326.3 590.9 323.5 590.9 318.45 Z"/>
</g>

<path id="Layer3_0_1_STROKES" stroke="#D2E288" stroke-width="7" stroke-linejoin="miter" stroke-linecap="butt" stroke-miterlimit="3" fill="none" d="
M 295.7657836914062 314.05
L 984.2328948974609 314.05"/>

<path id="Layer3_1_1_STROKES" stroke="#D2E288" stroke-width="7" stroke-linejoin="miter" stroke-linecap="butt" stroke-miterlimit="3" fill="none" d="
M 174.7944549560547 534.05
L 1105.3817512512207 534.05"/>

<path id="Layer2_0_1_STROKES" stroke="#D2E288" stroke-width="7" stroke-linejoin="miter" stroke-linecap="butt" stroke-miterlimit="3" fill="none" d="
M 1004.5 278.05
L 1155.5 278.05
Q 1175.5 278.05 1175.5 298.05
L 1175.5 330.05
Q 1175.5 350.05 1155.5 350.05
L 1004.5 350.05
Q 984.5 350.05 984.5 330.05
L 984.5 298.05
Q 984.5 278.05 1004.5 278.05 Z
M 784.5 278.05
L 935.5 278.05
Q 955.5 278.05 955.5 298.05
L 955.5 330.05
Q 955.5 350.05 935.5 350.05
L 784.5 350.05
Q 764.5 350.05 764.5 330.05
L 764.5 298.05
Q 764.5 278.05 784.5 278.05 Z
M 564.5 278.05
L 715.5 278.05
Q 735.5 278.05 735.5 298.05
L 735.5 330.05
Q 735.5 350.05 715.5 350.05
L 564.5 350.05
Q 544.5 350.05 544.5 330.05
L 544.5 298.05
Q 544.5 278.05 564.5 278.05 Z
M 790.5 498.05
L 969.5 498.05
Q 989.5 498.05 989.5 518.05
L 989.5 550.05
Q 989.5 570.05 969.5 570.05
L 790.5 570.05
Q 770.5 570.05 770.5 550.05
L 770.5 518.05
Q 770.5 498.05 790.5 498.05 Z
M 550.5 498.05
L 729.5 498.05
Q 749.5 498.05 749.5 518.05
L 749.5 550.05
Q 749.5 570.05 729.5 570.05
L 550.5 570.05
Q 530.5 570.05 530.5 550.05
L 530.5 518.05
Q 530.5 498.05 550.5 498.05 Z
M 1030.5 498.05
L 1209.5 498.05
Q 1229.5 498.05 1229.5 518.05
L 1229.5 550.05
Q 1229.5 570.05 1209.5 570.05
L 1030.5 570.05
Q 1010.5 570.05 1010.5 550.05
L 1010.5 518.05
Q 1010.5 498.05 1030.5 498.05 Z
M 344.5 278.05
L 495.5 278.05
Q 515.5 278.05 515.5 298.05
L 515.5 330.05
Q 515.5 350.05 495.5 350.05
L 344.5 350.05
Q 324.5 350.05 324.5 330.05
L 324.5 298.05
Q 324.5 278.05 344.5 278.05 Z
M 124.5 278.05
L 275.5 278.05
Q 295.5 278.05 295.5 298.05
L 295.5 330.05
Q 295.5 350.05 275.5 350.05
L 124.5 350.05
Q 104.5 350.05 104.5 330.05
L 104.5 298.05
Q 104.5 278.05 124.5 278.05 Z
M 310.5 498.05
L 489.5 498.05
Q 509.5 498.05 509.5 518.05
L 509.5 550.05
Q 509.5 570.05 489.5 570.05
L 310.5 570.05
Q 290.5 570.05 290.5 550.05
L 290.5 518.05
Q 290.5 498.05 310.5 498.05 Z
M 70.5 498.05
L 249.5 498.05
Q 269.5 498.05 269.5 518.05
L 269.5 550.05
Q 269.5 570.05 249.5 570.05
L 70.5 570.05
Q 50.5 570.05 50.5 550.05
L 50.5 518.05
Q 50.5 498.05 70.5 498.05 Z"/>
</defs>

<g transform="matrix( 1.08258056640625, 0, 0, 1, -17.1,11.05) ">
<use xlink:href="#Layer3_0_1_STROKES" transform="matrix( 0.9237060546875, 0, 0, 0.9999847412109375, 15.75,-11.05) "/>
</g>

<g transform="matrix( 1.4633026123046875, 0, 0, 1, -248.1,231.05) ">
<use xlink:href="#Layer3_1_1_STROKES" transform="matrix( 0.683380126953125, 0, 0, 1, 169.5,-231.05) "/>
</g>

<g transform="matrix( 1, 0, 0, 1, 0,0) ">
<use xlink:href="#Layer2_0_FILL"/>

<use xlink:href="#Layer2_0_1_STROKES"/>
</g>
</svg>
