<?xml version="1.0" encoding="utf-8"?>
<!-- Generator: Adobe Illustrator 23.1.0, SVG Export Plug-In . SVG Version: 6.00 Build 0)  -->
<svg version="1.1" id="레이어_1" xmlns="http://www.w3.org/2000/svg" xmlns:xlink="http://www.w3.org/1999/xlink" x="0px"
	 y="0px" width="916px" height="353px" viewBox="0 0 916 353" style="enable-background:new 0 0 916 353;" xml:space="preserve">
<g>
	<path style="fill:#C5C4E0;" d="M25.3,42.5c1.7-0.2,3.2-1,4.2-2.2c1-1.2,1.6-2.8,1.4-4.5c-0.3-3.4-3.3-5.9-6.7-5.6
		c-3.4,0.3-5.9,3.3-5.6,6.7C18.9,40.3,21.9,42.8,25.3,42.5z"/>
	<path style="fill:#C5C4E0;" d="M270.4,42.5c3.4,0.3,6.4-2.2,6.7-5.6c0.3-3.4-2.2-6.4-5.6-6.7c-3.4-0.3-6.4,2.2-6.7,5.6
		c-0.1,1.7,0.4,3.3,1.4,4.5C267.3,41.5,268.7,42.3,270.4,42.5z"/>
	<path style="fill:#C5C4E0;" d="M265.9,76.8c-0.5-10.2-3.6-16.8-7.7-21.1l8.9-11.4c-1.7-0.8-3.2-1.9-4.5-3.4
		c-0.1-0.1-0.1-0.2-0.2-0.3l-8.9,11.4c-9.2-5.6-20.2-3.6-20.2-3.6C141.1-1.1,58.9,45.6,58.9,45.6c-8.2-0.4-14.2,1.2-18.7,3.9
		l-6.9-8.8c-0.1,0.1-0.1,0.2-0.2,0.3c-1.3,1.5-2.8,2.6-4.5,3.4l6.9,8.8C27.2,61.6,27.8,74,27.8,74c-45.4,31.2-17,93.5-17,93.5
		L273,169C311.2,106.6,265.9,76.8,265.9,76.8z"/>
</g>
<g>
	<path style="fill:#C5C4E0;" d="M651.8,42.5c1.7-0.2,3.2-1,4.2-2.2c1-1.2,1.6-2.8,1.4-4.5c-0.3-3.4-3.3-5.9-6.7-5.6
		c-3.4,0.3-5.9,3.3-5.6,6.7C645.3,40.3,648.4,42.8,651.8,42.5z"/>
	<path style="fill:#C5C4E0;" d="M896.9,42.5c3.4,0.3,6.4-2.2,6.7-5.6c0.3-3.4-2.2-6.4-5.6-6.7c-3.4-0.3-6.4,2.2-6.7,5.6
		c-0.1,1.7,0.4,3.3,1.4,4.5C893.7,41.5,895.2,42.3,896.9,42.5z"/>
	<path style="fill:#C5C4E0;" d="M892.3,76.8c-0.5-10.2-3.6-16.8-7.7-21.1l8.9-11.4c-1.7-0.8-3.2-1.9-4.5-3.4
		c-0.1-0.1-0.1-0.2-0.2-0.3l-8.9,11.4c-9.2-5.6-20.2-3.6-20.2-3.6c-92.1-49.6-174.3-2.8-174.3-2.8c-8.2-0.4-14.2,1.2-18.7,3.9
		l-6.9-8.8c-0.1,0.1-0.1,0.2-0.2,0.3c-1.3,1.5-2.8,2.6-4.5,3.4l6.9,8.8c-8.4,8.4-7.8,20.9-7.8,20.9c-45.4,31.2-17,93.5-17,93.5
		l262.2,1.4C937.7,106.6,892.3,76.8,892.3,76.8z"/>
</g>
<g>
	<path d="M108.6,62c0,0.5,0,0.9,0,1.4c1,0.8,1.9,1.5,2.8,2c0.9,0.6,1.7,1.2,2.5,1.7c0.2,0.2,0.4,0.4,0.4,0.7s0,0.5-0.2,0.8
		c-0.2,0.3-0.4,0.6-0.6,0.7c-0.2,0.1-0.5,0.1-0.7-0.1c-0.4-0.2-0.8-0.5-1.2-0.8c-0.5-0.3-0.9-0.6-1.4-0.9s-0.9-0.7-1.4-1
		c-0.5-0.3-0.9-0.7-1.3-1c-1,1.1-1.9,2.1-2.7,2.9c-0.8,0.8-1.6,1.5-2.2,2c-0.3,0.2-0.5,0.3-0.8,0.2s-0.6-0.2-0.8-0.5
		c-0.2-0.3-0.3-0.5-0.2-0.7c0-0.2,0.2-0.5,0.4-0.7c0.3-0.3,0.7-0.7,1.1-1.2c0.4-0.5,0.9-0.9,1.3-1.4s0.9-0.9,1.3-1.4
		c0.4-0.5,0.8-0.9,1.1-1.2c0-0.9-0.1-1.8-0.1-2.8c-0.1-0.9-0.1-1.8-0.1-2.7c0-0.4,0.1-0.7,0.3-0.9c0.2-0.2,0.6-0.3,1.1-0.4
		c0.6,0,1,0,1.2,0.2c0.2,0.2,0.3,0.5,0.3,0.9c0,0.3,0,0.7,0,1.2c0,0.4,0,0.9,0,1.4S108.6,61.6,108.6,62z M118.6,75.7
		c0,1.1-0.1,2.2-0.1,3.2c0,0.4-0.1,0.7-0.2,0.9c-0.1,0.2-0.3,0.3-0.7,0.3c-0.3,0-0.7,0-1.2,0.1c-0.5,0-1.1,0-1.8,0.1
		c-0.7,0-1.4,0-2.1,0.1c-0.7,0-1.4,0-2.1,0.1c-0.7,0-1.3,0-1.8,0c-0.5,0-0.9,0-1.2,0c-0.9,0-1.4-0.5-1.5-1.6c0-0.3-0.1-0.8-0.1-1.3
		c0-0.5-0.1-1.1-0.1-1.6c0-0.6-0.1-1.1-0.1-1.7c0-0.6,0-1,0-1.4c0-0.7,0.3-1.1,1-1.2c0.3,0,0.8,0,1.3-0.1s1.3,0,2-0.1
		c0.7,0,1.5-0.1,2.3-0.1c0.8,0,1.6-0.1,2.3-0.1c0.7,0,1.4,0,2,0c0.6,0,1.1,0,1.4,0c0.3,0,0.4,0.1,0.5,0.2c0.1,0.1,0.2,0.4,0.2,0.6
		C118.6,73.3,118.6,74.5,118.6,75.7z M115.7,77.9c0.2,0,0.3-0.1,0.3-0.4c0-0.3,0-0.6,0-0.9c0-0.3,0-0.7,0-1.1c0-0.4,0-0.7,0-1.1
		c0-0.4,0-0.7,0-1l-7.8,0.3c0,0.3,0,0.7,0.1,1.1c0,0.4,0,0.8,0,1.2c0,0.4,0,0.8,0,1.1s0,0.6,0.1,0.9L115.7,77.9z M119.1,60.9
		c0,0.6,0,1.2,0,1.8c0.4,0,0.9,0,1.3,0c0.4,0,0.7,0,0.9,0c0.4,0,0.6,0.1,0.8,0.2s0.2,0.4,0.2,0.8c0,0.4-0.1,0.7-0.2,0.9
		c-0.1,0.2-0.3,0.4-0.6,0.4c-0.2,0-0.5,0-1,0c-0.4,0-0.9,0-1.4,0c0,0.8,0,1.6-0.1,2.3c0,0.7-0.1,1.2-0.1,1.7c-0.1,0.5-0.2,0.8-0.4,1
		c-0.2,0.2-0.5,0.2-0.9,0.2c-0.4,0-0.7-0.1-0.9-0.3c-0.2-0.2-0.3-0.5-0.3-1c0-0.4,0-1,0-1.7c0-0.7,0-1.5,0-2.4c0-0.9,0-1.8,0-2.8
		c0-1,0-2,0-3c0-0.5,0.1-0.8,0.3-1c0.2-0.2,0.6-0.3,1.1-0.3c0.9,0,1.3,0.5,1.3,1.4C119.1,59.7,119.1,60.3,119.1,60.9z"/>
	<path d="M133.8,69.2c-0.1,0.4-0.2,0.7-0.4,0.9c-0.2,0.2-0.5,0.2-0.9,0.2c-0.7-0.1-1.1-0.4-1.1-1.1c0-0.2,0-0.5,0-1s0-1,0-1.6
		c0-0.6,0-1.2,0-1.9s0-1.3,0-1.9c0-0.6,0-1.2,0-1.7c0-0.5,0-0.9,0-1.1c-0.6,0-1.3,0.1-2,0.1c-0.7,0-1.4,0-2.1,0s-1.4,0-2.1,0
		s-1.4,0-2,0c-0.6,0-1-0.4-1-1.1c0-0.4,0.1-0.6,0.3-0.8s0.4-0.3,0.6-0.3c1.7-0.1,3.4-0.2,5.1-0.2c1.7-0.1,3.4-0.1,5-0.1
		c0.3,0,0.6,0.1,0.7,0.2c0.1,0.2,0.2,0.4,0.2,0.8s0,0.8,0,1.4s0,1.2,0,1.9c0,0.7,0,1.4,0,2.1c0,0.7,0,1.4-0.1,2.1
		c0,0.7-0.1,1.3-0.1,1.8C133.8,68.5,133.8,68.9,133.8,69.2z M139.1,79.6c-0.1,0.4-0.2,0.7-0.4,0.9c-0.2,0.2-0.5,0.2-0.9,0.2
		c-0.4,0-0.6-0.1-0.8-0.3c-0.1-0.2-0.2-0.4-0.2-0.8c0-0.3,0-0.7,0-1.2s0-1,0-1.5c0-0.5,0-1.1,0-1.6c0-0.5,0-1,0-1.4
		c-0.6,0-1.4,0.1-2.3,0.1c-0.9,0-1.8,0.1-2.7,0.1c-0.9,0-1.9,0.1-2.8,0.1c-0.9,0-1.7,0-2.3,0c-0.6,0-1-0.4-1-1.1
		c0-0.4,0.1-0.6,0.3-0.8s0.4-0.3,0.6-0.3c0.8-0.1,1.8-0.1,2.8-0.2c1.1-0.1,2.1-0.1,3.2-0.1c1.1,0,2.1-0.1,3.2-0.1c1,0,1.9,0,2.7,0
		c0.3,0,0.6,0.1,0.7,0.2c0.1,0.2,0.2,0.4,0.2,0.8c0,0.5,0,1.1,0,1.7c0,0.6,0,1.2-0.1,1.9c0,0.6-0.1,1.2-0.1,1.8
		C139.2,78.5,139.1,79.1,139.1,79.6z M139.8,61.1c0,0.7,0,1.3,0,2.1c0.5,0,1,0,1.4,0c0.5,0,0.8,0,1,0c0.4,0,0.6,0.1,0.8,0.2
		s0.2,0.4,0.2,0.8c0,0.4-0.1,0.7-0.2,0.9c-0.1,0.2-0.3,0.4-0.6,0.4c-0.2,0-0.6,0-1.1,0c-0.5,0-1,0-1.5,0c0,0.8,0,1.6-0.1,2.3
		c0,0.7-0.1,1.3-0.1,1.7c-0.1,0.5-0.2,0.8-0.4,1s-0.5,0.2-0.9,0.2c-0.4,0-0.7-0.1-0.9-0.3s-0.3-0.5-0.3-1c0-0.4,0-1,0-1.8
		c0-0.8,0-1.6,0-2.6c0-0.9,0-1.9,0-3c0-1,0-2.1,0-3c0-0.5,0.1-0.8,0.3-1c0.2-0.2,0.6-0.3,1.1-0.3c0.9,0,1.3,0.5,1.3,1.4
		C139.8,59.8,139.8,60.4,139.8,61.1z"/>
	<path d="M151.3,57.7c0,0.3,0,0.7,0,1.1c1,0,2-0.1,2.9-0.1c0.9,0,1.6-0.1,2.2-0.1c0.3,0,0.6,0,0.7,0.2s0.2,0.4,0.3,0.8
		c0,0.4-0.1,0.7-0.2,0.8c-0.2,0.1-0.4,0.2-0.8,0.3c-0.1,0-0.2,0-0.4,0c-0.2,0-0.4,0-0.6,0s-0.4,0-0.6,0c-0.2,0-0.4,0-0.5,0
		c0.3,0.2,0.6,0.4,0.8,0.7c0.2,0.3,0.4,0.6,0.6,1s0.3,0.8,0.3,1.2s0.1,0.9,0.1,1.3c0,0.8-0.1,1.5-0.3,2.2c-0.2,0.7-0.6,1.3-1.1,1.8
		c-0.5,0.5-1.1,0.9-1.9,1.2c-0.7,0.3-1.6,0.5-2.6,0.5c-1,0-1.8-0.1-2.6-0.3s-1.4-0.6-1.9-1.1c-0.5-0.5-0.9-1-1.1-1.7
		s-0.4-1.4-0.4-2.2c0-0.4,0-0.8,0.1-1.2c0.1-0.4,0.2-0.8,0.4-1.2c0.2-0.4,0.4-0.7,0.6-1s0.5-0.5,0.8-0.7c-0.2,0-0.4,0-0.6,0
		s-0.5,0-0.7,0s-0.5,0-0.7,0c-0.2,0-0.4,0-0.5,0c-0.3,0-0.5,0-0.7-0.2c-0.2-0.1-0.3-0.4-0.3-0.8c0-0.4,0.1-0.7,0.2-0.9
		c0.2-0.2,0.4-0.3,0.7-0.3c0.5,0,1.3-0.1,2.1-0.1c0.9,0,1.8-0.1,2.9-0.1c0-0.4,0-0.7,0-1c0-0.3,0-0.6,0-0.8c0-0.4,0.1-0.7,0.2-0.9
		s0.5-0.3,1.1-0.4c0.6,0,1,0,1.2,0.2c0.2,0.2,0.3,0.5,0.3,0.9C151.3,57.1,151.3,57.3,151.3,57.7z M150.1,68.4c1.1,0,2-0.4,2.6-1.1
		c0.6-0.7,0.8-1.6,0.8-2.8c0-1.2-0.4-2.1-1-2.7c-0.6-0.6-1.4-0.9-2.4-0.9c-0.5,0-1,0.2-1.4,0.4s-0.7,0.5-1,0.8s-0.5,0.8-0.6,1.2
		s-0.2,1-0.2,1.5c0,1.2,0.3,2.1,0.9,2.7C148.3,68.2,149.1,68.5,150.1,68.4z M161.8,78.1c-0.3,0.6-0.7,1.2-1.2,1.7
		c-0.5,0.5-1.2,0.8-1.9,1.1c-0.8,0.3-1.6,0.4-2.6,0.5c-2,0.1-3.5-0.3-4.5-1.2c-1.1-0.9-1.6-2.2-1.6-3.8c0-0.7,0.1-1.4,0.4-2
		s0.6-1.2,1.1-1.7c0.5-0.5,1.1-0.9,1.9-1.2c0.7-0.3,1.6-0.5,2.6-0.5c0.9-0.1,1.8,0,2.6,0.2s1.4,0.5,2,1c0.5,0.4,1,1,1.2,1.6
		c0.3,0.6,0.5,1.4,0.5,2.2C162.2,76.7,162,77.4,161.8,78.1z M158.6,78.2c0.3-0.3,0.6-0.6,0.7-1c0.2-0.4,0.2-0.8,0.2-1.3
		c0-1-0.4-1.7-1.1-2.2c-0.7-0.5-1.5-0.7-2.5-0.7c-0.5,0-1,0.1-1.5,0.3c-0.4,0.2-0.8,0.4-1.1,0.7s-0.5,0.6-0.7,1
		c-0.2,0.4-0.2,0.8-0.2,1.2c0,1,0.3,1.7,1,2.2c0.6,0.5,1.5,0.8,2.5,0.7c0.6,0,1.1-0.1,1.5-0.3C157.9,78.8,158.3,78.5,158.6,78.2z
		 M159.6,63.8c-0.5,0-1,0.1-1.4,0.1c-0.4,0-0.7,0-0.8,0c-0.4,0-0.6-0.1-0.7-0.3c-0.1-0.2-0.2-0.5-0.2-0.9c0-0.7,0.3-1.1,0.9-1.1
		c0.2,0,0.5,0,0.9,0s0.9-0.1,1.4-0.1c0-0.4,0-0.8,0-1.2c0-0.4,0-0.8,0-1.1c0-0.5,0.1-0.8,0.3-1c0.2-0.2,0.6-0.3,1.1-0.3
		c0.9,0,1.3,0.5,1.3,1.4c0,0.8,0,1.8,0,2.8c0,1,0,2,0,3.1c0,1,0,1.9-0.1,2.8c0,0.8-0.1,1.5-0.1,2c0,0.5-0.2,0.8-0.4,1
		c-0.2,0.2-0.5,0.2-0.9,0.2c-0.4,0-0.7-0.1-0.9-0.3s-0.3-0.5-0.3-1c0-0.2,0-0.5,0-0.9s0-0.8,0-1.2c-0.5,0-1,0-1.4,0
		c-0.4,0-0.6,0-0.7,0c-0.4,0-0.6-0.1-0.7-0.3s-0.2-0.5-0.2-0.9c0-0.7,0.3-1.1,0.9-1.1c0.1,0,0.4,0,0.8,0c0.4,0,0.9,0,1.4-0.1V63.8z"
		/>
	<path d="M169.9,70.3c-1.4,0-2.8,0.1-4.1,0.1c-0.6,0-1-0.3-1-1.1c0-0.4,0.1-0.7,0.2-0.8c0.2-0.2,0.4-0.3,0.8-0.3
		c1.3-0.1,2.7-0.1,4.2-0.1c1.5,0,2.9-0.1,4.4-0.1c1.5,0,2.9-0.1,4.3-0.1c1.4,0,2.6-0.1,3.8-0.1c0.6,0,0.9,0.3,0.9,1
		c0,0.4-0.1,0.7-0.3,0.8c-0.2,0.2-0.4,0.3-0.7,0.3c-1.2,0.1-2.5,0.1-3.9,0.2c-1.4,0.1-2.8,0.1-4.3,0.2
		C172.8,70.2,171.4,70.2,169.9,70.3z M170,78.4c0.8,0,1.6,0,2.5,0c0.9,0,1.9,0,2.8,0s1.9,0,2.8,0s1.8,0,2.7-0.1
		c0.3,0,0.4,0.1,0.5,0.2c0.1,0.2,0.2,0.4,0.2,0.7c0,0.3,0,0.5-0.1,0.8c-0.1,0.2-0.3,0.3-0.6,0.4c-2,0.1-3.9,0.1-5.9,0.2
		c-1.9,0-3.9,0-5.9,0c-0.6,0-1-0.1-1.2-0.3c-0.2-0.2-0.3-0.6-0.4-1.2c0-0.5-0.1-1-0.1-1.4s0-0.9,0-1.4c0-0.2,0-0.3,0.1-0.5
		c0.1-0.1,0.2-0.2,0.4-0.2c0.7,0,1.5-0.1,2.5-0.1c1,0,2-0.1,3-0.1c1,0,2.1-0.1,3-0.1c1,0,1.8-0.1,2.4-0.1c0-0.3,0-0.5,0-0.7
		c0-0.2,0-0.4,0-0.8c-0.7,0-1.6,0.1-2.6,0.1c-1,0-2,0.1-3,0.1c-1,0-2,0.1-3,0.1c-1,0-1.8,0.1-2.6,0.1c-0.3,0-0.5,0-0.6-0.2
		c-0.1-0.1-0.2-0.4-0.2-0.8c0-0.4,0-0.7,0.2-0.8s0.3-0.3,0.6-0.3c0.9-0.1,1.9-0.1,3-0.1c1.1,0,2.2-0.1,3.3-0.1s2.3-0.1,3.4-0.1
		s2.2-0.1,3.3-0.1c0.2,0,0.3,0,0.4,0.1s0.2,0.3,0.2,0.5c0,0.6,0,1.3-0.1,2s-0.1,1.3-0.1,1.9c0,0.3-0.1,0.6-0.3,0.7s-0.4,0.2-0.8,0.2
		c-0.7,0-1.5,0.1-2.3,0.1c-0.9,0-1.8,0.1-2.7,0.1c-0.9,0-1.8,0.1-2.7,0.1c-0.9,0-1.7,0.1-2.5,0.1L170,78.4z M180.1,63.7
		c-0.3,0.7-0.8,1.2-1.4,1.7c-0.6,0.5-1.3,0.8-2.2,1c-0.8,0.2-1.8,0.4-2.8,0.4c-1.9,0-3.5-0.4-4.6-1.3c-1.1-0.9-1.7-2.1-1.7-3.7
		c0-0.7,0.2-1.4,0.5-2.1c0.3-0.7,0.8-1.2,1.3-1.7c0.6-0.5,1.3-0.9,2.1-1.2c0.8-0.3,1.8-0.4,2.9-0.4c0.9,0,1.8,0.1,2.5,0.3
		s1.4,0.6,2,1c0.6,0.4,1,1,1.3,1.6s0.5,1.3,0.5,2.1C180.5,62.2,180.4,63,180.1,63.7z M176.8,63.8c0.7-0.6,1-1.4,1-2.4
		c-0.1-0.9-0.4-1.6-1.1-2.1c-0.7-0.5-1.6-0.8-2.7-0.8c-0.6,0-1.2,0.1-1.7,0.2c-0.5,0.2-0.9,0.4-1.2,0.7c-0.3,0.3-0.6,0.6-0.8,1
		c-0.2,0.4-0.3,0.8-0.3,1.2c0,0.9,0.3,1.6,1,2.2c0.7,0.5,1.6,0.8,2.7,0.8C175.1,64.6,176.1,64.3,176.8,63.8z"/>
</g>
<g>
	<path d="M105.8,102.3c0,0.4-0.2,0.7-0.4,0.9c-0.2,0.2-0.5,0.2-0.9,0.2c-0.7-0.1-1.1-0.4-1.1-1.1c0-0.2,0-0.6,0-1.1
		c0-0.5,0-1.1,0.1-1.8c0-0.7,0-1.4,0.1-2.1c0-0.8,0-1.5,0.1-2.2c0-0.7,0-1.3,0.1-1.8c0-0.5,0-0.9,0-1.2c-0.4,0-1,0-1.6,0.1
		c-0.7,0-1.4,0-2.2,0c-0.8,0-1.6,0-2.4,0c-0.8,0-1.7,0-2.5,0c-0.8,0-1.5,0-2.2,0c-0.7,0-1.2,0-1.7,0c-0.6,0-1-0.4-1-1.2
		c0-0.4,0.1-0.6,0.3-0.8s0.4-0.3,0.6-0.3c0.6,0,1.2-0.1,2-0.1c0.8,0,1.6,0,2.5-0.1c0.9,0,1.8,0,2.8-0.1s1.9,0,2.7,0s1.7,0,2.5,0
		c0.8,0,1.4,0,1.9,0c0.3,0,0.6,0.1,0.7,0.2c0.1,0.2,0.2,0.4,0.2,0.8s0,0.8,0,1.4c0,0.6-0.1,1.3-0.1,2c0,0.7-0.1,1.5-0.1,2.3
		c0,0.8-0.1,1.6-0.1,2.3c0,0.7-0.1,1.4-0.1,2S105.8,102,105.8,102.3z M106.9,107.5c-0.2,0.2-0.4,0.3-0.7,0.3
		c-2.4,0.2-4.9,0.4-7.4,0.5s-5.1,0.2-7.7,0.3c-0.6,0-1-0.4-1-1.2c0-0.4,0.1-0.7,0.2-0.9c0.2-0.2,0.4-0.3,0.8-0.3
		c2.7-0.1,5.3-0.2,7.8-0.4c2.5-0.1,5-0.2,7.3-0.3c0.3,0,0.5,0.1,0.7,0.3c0.1,0.2,0.2,0.5,0.2,0.8C107.1,107,107,107.3,106.9,107.5z"
		/>
	<path d="M115.9,105.9c-1.5,0.1-3,0.2-4.4,0.3c-0.4,0-0.8-0.1-1.1-0.3c-0.3-0.2-0.4-0.5-0.5-0.9c-0.1-0.4-0.1-0.8-0.2-1.3
		c-0.1-0.5-0.1-1-0.2-1.6c-0.1-0.5-0.1-1.1-0.1-1.7c0-0.6-0.1-1.1-0.1-1.7c0-0.5,0.2-0.7,0.6-0.8c0.7-0.1,1.4-0.2,2-0.3
		c0.6-0.1,1.2-0.2,1.8-0.3c0.6-0.1,1.2-0.2,1.8-0.3c0.6-0.1,1.3-0.2,2-0.4c0-0.8-0.1-1.6-0.1-2.4c0-0.8-0.1-1.6-0.1-2.4
		c-0.8,0-1.5,0-2.2,0.1s-1.3,0-1.8,0.1c-0.6,0-1.1,0-1.7,0.1c-0.5,0-1.1,0-1.8,0.1c-0.3,0-0.5-0.1-0.6-0.3c-0.1-0.2-0.2-0.5-0.2-0.9
		c0-0.4,0.1-0.7,0.2-0.8c0.1-0.2,0.3-0.3,0.6-0.3c1.7-0.1,3.3-0.2,4.9-0.2c1.6,0,3.1-0.1,4.5-0.1c0.4,0,0.6,0.2,0.6,0.7
		c0,1.2,0.1,2.5,0.1,3.7c0,1.2,0,2.5,0,3.7c0,0.3-0.1,0.6-0.3,0.7c-0.2,0.1-0.4,0.3-0.8,0.3c-0.7,0.1-1.3,0.2-1.8,0.3
		c-0.5,0.1-1.1,0.2-1.6,0.3c-0.5,0.1-1.1,0.2-1.6,0.3c-0.6,0.1-1.2,0.2-1.8,0.3c0,0.6,0.1,1.2,0.1,1.8s0.1,1.2,0.1,1.7
		c0,0.3,0.2,0.4,0.4,0.3c1.2-0.1,2.4-0.2,3.6-0.3s2.4-0.2,3.7-0.3c0.3,0,0.5,0,0.7,0.2s0.2,0.4,0.3,0.8c0,0.4,0,0.7-0.1,0.9
		c-0.1,0.2-0.3,0.3-0.6,0.3C118.9,105.6,117.5,105.7,115.9,105.9z M123,99.1c0.5,0,1.1,0,1.7-0.1c0-0.5,0-1,0-1.5s0-1,0-1.4
		c-0.7,0-1.2,0-1.8,0c-0.5,0-0.8,0-1,0c-0.4,0-0.6-0.1-0.7-0.3s-0.2-0.5-0.2-0.9c0-0.7,0.3-1.1,0.9-1.1c0.2,0,0.5,0,1.1,0
		c0.5,0,1.1-0.1,1.8-0.1c0-0.6,0.1-1.1,0.1-1.7c0-0.6,0-1.1,0.1-1.7c0-0.5,0.1-0.8,0.3-1s0.6-0.3,1.1-0.3c0.9,0,1.3,0.5,1.3,1.4
		c0,1.4,0,2.9-0.1,4.4c0,1.5-0.1,3-0.1,4.5s-0.1,3-0.2,4.4c-0.1,1.5-0.2,2.8-0.3,4.2c0,0.5-0.2,0.8-0.4,1c-0.2,0.2-0.5,0.3-0.9,0.2
		c-0.4,0-0.6-0.2-0.8-0.4c-0.2-0.2-0.3-0.6-0.3-1.2c0-1,0-2.1,0-3.1s0-2.1,0-3.1c-0.6,0-1.2,0-1.7,0c-0.5,0-0.8,0-0.9,0
		c-0.4,0-0.6-0.1-0.7-0.3c-0.1-0.2-0.2-0.5-0.2-0.9c0-0.7,0.3-1.1,0.9-1.1C122.2,99.1,122.5,99.1,123,99.1z"/>
	<path d="M146.7,106.1c1.1-0.1,2.1-0.1,3.1-0.1c1,0,2-0.1,3-0.1c0.3,0,0.5,0.1,0.7,0.3s0.2,0.5,0.2,0.8c0,0.4-0.1,0.7-0.3,0.9
		c-0.2,0.2-0.4,0.3-0.7,0.3c-2.4,0.2-4.9,0.4-7.4,0.5s-5.1,0.2-7.7,0.3c-0.6,0-1-0.4-1-1.2c0-0.4,0.1-0.7,0.2-0.9
		c0.2-0.2,0.4-0.3,0.8-0.3c1.1,0,2.1-0.1,3.1-0.1c1-0.1,2.1-0.1,3.1-0.2v-3.6c-1.1,0-2.1,0.1-2.9,0.1c-0.8,0-1.4,0-1.7,0
		c-0.6,0-1.1-0.1-1.4-0.4c-0.3-0.3-0.5-0.8-0.5-1.6c0-0.6-0.1-1.4-0.1-2.2c0-0.8-0.1-1.7-0.1-2.6c0-0.9-0.1-1.8-0.1-2.8
		c0-0.9,0-1.8,0-2.7c0-0.3,0.1-0.6,0.3-0.8c0.2-0.2,0.5-0.3,1-0.3c0.5,0,0.9,0.1,1.1,0.2c0.2,0.2,0.3,0.4,0.3,0.8
		c0,0.6,0,1.3,0.1,1.9s0,1.3,0.1,1.9c1.7-0.1,3.5-0.1,5.3-0.2c1.8-0.1,3.5-0.1,5.3-0.2c0-0.5,0-1,0-1.6c0-0.5,0-1.2,0-1.8
		c0-0.8,0.5-1.1,1.4-1.1c0.5,0,0.8,0.1,1,0.2c0.2,0.2,0.3,0.4,0.3,0.8c0,0.8,0,1.7,0,2.7s0,2-0.1,3c0,1-0.1,2-0.1,3
		c0,1-0.1,1.9-0.1,2.8c0,0.4-0.1,0.6-0.3,0.8c-0.2,0.1-0.5,0.2-0.8,0.3c-0.5,0-1.1,0.1-2.1,0.1c-0.9,0-1.9,0-3,0.1V106.1z
		 M139.9,98.5c0,0.6,0,1.3,0.1,1.9c0.2,0,0.5,0,1,0c0.5,0,1.1,0,1.8,0c0.7,0,1.4,0,2.2,0c0.8,0,1.5,0,2.2-0.1c0.7,0,1.3,0,1.8,0
		c0.5,0,0.8,0,1,0c0.1,0,0.2,0,0.3-0.1c0.1-0.1,0.1-0.2,0.1-0.4c0-0.7,0-1.4,0-2s0-1.1,0-1.7c-1.7,0.1-3.5,0.1-5.3,0.2
		c-1.8,0.1-3.5,0.1-5.2,0.2C139.9,97.1,139.9,97.8,139.9,98.5z"/>
	<path d="M161.5,96.4c0,0.7,0,1.3,0,1.9c0.7,0.8,1.4,1.7,2.1,2.4s1.3,1.5,1.9,2.1c0.2,0.2,0.4,0.5,0.4,0.7c0.1,0.2,0,0.5-0.2,0.8
		c-0.2,0.3-0.5,0.5-0.7,0.6c-0.3,0.1-0.5,0-0.7-0.2c-0.7-0.7-1.3-1.3-1.9-2c-0.6-0.6-1.2-1.4-2-2.2c-0.6,1.1-1.2,2-1.8,2.9
		c-0.6,0.9-1.2,1.7-1.7,2.4c-0.2,0.3-0.5,0.4-0.8,0.3c-0.3-0.1-0.6-0.3-0.8-0.5c-0.2-0.3-0.3-0.5-0.2-0.7s0.2-0.4,0.3-0.7
		c0.2-0.4,0.5-0.8,0.8-1.3s0.6-1,0.9-1.5c0.3-0.5,0.7-1.1,1-1.6c0.3-0.5,0.6-1,0.9-1.5c0-0.5,0-1.1,0-1.8s-0.1-1.4-0.1-2.2
		c0-0.7-0.1-1.5-0.1-2.2c0-0.7,0-1.3-0.1-1.9c0-0.4,0.1-0.7,0.2-0.9s0.5-0.3,1.1-0.4c0.6,0,1,0,1.2,0.2c0.2,0.2,0.3,0.5,0.3,0.9
		c0,0.6,0,1.3,0,1.9c0,0.7,0,1.4,0,2.1S161.5,95.7,161.5,96.4z M166.4,95.2c0.3,0,0.6,0,0.9-0.1c0-0.8,0-1.7,0-2.5s0-1.7,0-2.5
		c0-0.3,0.1-0.6,0.3-0.8c0.2-0.2,0.5-0.2,1-0.2c0.5,0,0.8,0.1,1,0.2c0.2,0.1,0.3,0.4,0.3,0.7c0,1.6,0,3.2,0,4.6s0,2.8,0,4.2
		c0,1.4-0.1,2.8-0.1,4.2c0,1.4-0.1,2.9-0.1,4.6c0,0.4-0.1,0.7-0.3,0.9c-0.2,0.2-0.5,0.3-0.9,0.3c-0.7,0-1.1-0.4-1.1-1.2
		c0-1.7,0-3.4,0-5c0-1.7,0-3.3,0-5c-0.3,0-0.6,0-0.9,0c-0.3,0-0.6,0-0.9,0s-0.5,0-0.7,0c-0.2,0-0.4,0-0.4,0c-0.4,0-0.6-0.1-0.7-0.3
		s-0.2-0.5-0.2-0.9c0-0.8,0.3-1.2,0.9-1.2c0.1,0,0.3,0,0.5,0c0.2,0,0.5,0,0.8,0C165.8,95.2,166.1,95.2,166.4,95.2z M174.7,108.1
		c0,0.8-0.5,1.2-1.2,1.1c-0.7,0-1-0.4-1-1.2c0-1.6,0-3.2,0-4.7c0-1.5,0-2.9,0.1-4.4s0.1-2.9,0.1-4.4s0.1-3,0.1-4.6
		c0-0.3,0.1-0.6,0.3-0.7c0.2-0.2,0.5-0.2,1-0.2c0.5,0,0.8,0.1,1,0.3c0.2,0.2,0.3,0.4,0.3,0.7c0,1.6,0,3.2-0.1,4.7
		c0,1.5-0.1,2.9-0.1,4.4s-0.1,2.9-0.2,4.4C174.9,104.8,174.8,106.4,174.7,108.1z"/>
	<path d="M191.2,105.9c0.5,0,1,0,1.4-0.1s0.9,0,1.4-0.1c0.3,0,0.5,0.1,0.7,0.3c0.1,0.2,0.2,0.5,0.2,0.8c0,0.4-0.1,0.7-0.3,0.9
		c-0.2,0.2-0.4,0.3-0.7,0.3c-2.4,0.2-4.9,0.4-7.4,0.5s-5.1,0.2-7.7,0.3c-0.6,0-1-0.4-1-1.2c0-0.4,0.1-0.7,0.2-0.9
		c0.2-0.2,0.4-0.3,0.8-0.3c0.5,0,0.9,0,1.4-0.1s0.9,0,1.4-0.1l-0.1-4.5c-1-0.6-1.8-1.3-2.4-2.3c-0.6-1-0.9-2.2-0.9-3.6
		c0-1,0.2-1.9,0.6-2.7c0.4-0.8,0.9-1.6,1.6-2.2c0.7-0.6,1.5-1.2,2.4-1.5c1-0.4,2-0.6,3.2-0.6c1.2,0,2.2,0.1,3.2,0.5
		c1,0.3,1.8,0.8,2.5,1.4c0.7,0.6,1.2,1.4,1.6,2.3c0.4,0.9,0.6,1.9,0.6,2.9c0,1.2-0.2,2.3-0.7,3.2c-0.5,0.9-1.2,1.7-2,2.3
		L191.2,105.9z M189.8,99.1c0.5-0.4,0.8-0.9,1.1-1.5c0.3-0.6,0.4-1.2,0.4-1.8c0-0.7-0.1-1.4-0.4-1.9c-0.3-0.6-0.6-1.1-1.1-1.5
		c-0.5-0.4-1-0.7-1.6-0.9c-0.6-0.2-1.3-0.3-2-0.3c-0.8,0-1.5,0.2-2.1,0.4s-1.2,0.6-1.6,1s-0.8,0.9-1,1.5c-0.2,0.6-0.4,1.2-0.4,1.8
		c0,0.7,0.1,1.4,0.4,1.9c0.3,0.6,0.6,1,1,1.4c0.4,0.4,1,0.7,1.6,0.9c0.6,0.2,1.3,0.3,2,0.3c0.8,0,1.5-0.1,2.1-0.4
		C188.8,99.9,189.4,99.6,189.8,99.1z M188.5,102.5c-0.7,0.2-1.5,0.3-2.4,0.3c-0.3,0-0.7,0-1,0c-0.3,0-0.6-0.1-0.9-0.1l0.1,3.5
		c0.7,0,1.4-0.1,2.1-0.1c0.7,0,1.4-0.1,2-0.1L188.5,102.5z"/>
	<path d="M200.4,107.7c0,0.5-0.2,0.9-0.5,1.3c-0.3,0.3-0.8,0.5-1.3,0.5c-0.5,0-0.9-0.2-1.2-0.5c-0.3-0.3-0.5-0.8-0.5-1.3
		c0-0.5,0.2-1,0.5-1.3c0.3-0.3,0.7-0.5,1.2-0.5c0.5,0,0.9,0.2,1.3,0.5C200.2,106.8,200.4,107.2,200.4,107.7z"/>
</g>
<g>
	<path d="M727,64.8c0.6,0,1.2,0,1.6-0.1c0-0.9,0.1-1.9,0.1-2.8c0-0.9,0.1-1.9,0.1-2.8c0-0.5,0.1-0.8,0.3-1c0.2-0.2,0.6-0.3,1.1-0.3
		c0.9,0,1.3,0.5,1.3,1.4c0,1.4,0,2.9-0.1,4.4c0,1.5-0.1,3-0.1,4.5c-0.1,1.5-0.1,3-0.2,4.4c-0.1,1.5-0.2,2.8-0.3,4.2
		c0,0.5-0.2,0.8-0.4,1c-0.2,0.2-0.5,0.3-0.9,0.2c-0.4,0-0.6-0.2-0.8-0.4c-0.2-0.2-0.3-0.6-0.3-1.2c0-3.1,0-6.2,0.1-9.3
		c-0.5,0-1,0.1-1.6,0.1c-0.6,0-1.1,0-1.6,0.1c-0.1,1-0.3,1.8-0.6,2.5c-0.3,0.7-0.8,1.4-1.4,1.9c-0.6,0.5-1.2,0.9-2,1.2
		c-0.8,0.3-1.6,0.4-2.5,0.4c-2.1,0.1-3.7-0.5-4.8-1.6c-1.2-1.1-1.7-2.9-1.7-5.1c0-1,0.1-1.8,0.4-2.7c0.3-0.8,0.7-1.6,1.3-2.2
		s1.2-1.1,2.1-1.5s1.8-0.6,2.8-0.6c0.9,0,1.7,0.1,2.4,0.3c0.7,0.2,1.4,0.6,1.9,1.1s1,1,1.4,1.7c0.4,0.7,0.6,1.4,0.7,2.2
		C725.8,64.8,726.4,64.8,727,64.8z M720.4,70.6c0.5-0.2,0.9-0.5,1.3-0.9s0.6-0.9,0.8-1.4c0.2-0.5,0.3-1.1,0.3-1.8
		c0-1.4-0.4-2.5-1.1-3.3c-0.7-0.8-1.7-1.2-2.9-1.1c-0.6,0-1.2,0.1-1.7,0.4c-0.5,0.2-0.9,0.6-1.2,1c-0.3,0.4-0.6,0.9-0.7,1.4
		c-0.2,0.6-0.3,1.2-0.3,1.8c0,1.5,0.3,2.6,1,3.3c0.7,0.7,1.6,1.1,2.8,1.1C719.4,70.9,719.9,70.8,720.4,70.6z"/>
	<path d="M737.9,70.9c-0.4,0-0.9,0-1.4,0.1c-0.5,0-0.9-0.1-1.2-0.4c-0.3-0.3-0.5-0.7-0.5-1.3c0-0.3,0-0.8-0.1-1.3s0-1.1,0-1.8
		c0-0.6,0-1.3,0-2c0-0.7,0-1.4,0-2c0-0.6,0-1.2,0-1.8c0-0.5,0-1,0-1.3s0.1-0.6,0.2-0.7c0.1-0.1,0.3-0.2,0.7-0.2c0.6,0,1.1,0,1.6-0.1
		c0.5,0,0.9,0,1.4,0s0.9,0,1.3,0s0.9,0,1.4,0c0.1-0.1,0.3-0.1,0.6-0.1c0.6,0,1.1,0,1.6-0.1c0.5,0,1,0,1.4,0c0.5,0,0.9,0,1.4,0
		c0.5,0,0.9,0,1.5,0c0.5,0,0.8,0.4,0.8,1.1c0,0.4-0.1,0.7-0.2,0.9c-0.1,0.2-0.3,0.3-0.7,0.3c-0.7,0.1-1.4,0.1-2.1,0.1
		c-0.7,0-1.4,0.1-2,0.1c0,0.2,0,0.5,0,1c0,0.4,0,0.9-0.1,1.5c0,0.6,0,1.2-0.1,1.8s0,1.2-0.1,1.7s0,1-0.1,1.4c0,0.4,0,0.7,0,0.8
		c0,0.2,0.1,0.3,0.3,0.3c0.4,0,0.7,0,1.1-0.1c0.4,0,0.8,0,1.2-0.1c0.4,0,0.8,0,1.2-0.1c0.4,0,0.7,0,1-0.1c0.3,0,0.6,0,0.7,0.1
		c0.1,0.1,0.2,0.4,0.3,0.8c0,0.4,0,0.7-0.2,0.9c-0.2,0.2-0.4,0.3-0.7,0.3c-0.9,0.1-1.7,0.2-2.6,0.2s-1.9,0.1-2.9,0.2
		c-0.5,0-0.9-0.1-1.3-0.4c-0.4,0.1-0.8,0.1-1.1,0.1c-0.3,0-0.7,0.1-1.1,0.1C738.7,70.9,738.3,70.9,737.9,70.9z M740.8,62.3
		c0-0.7,0-1.4,0-2c-0.6,0-1.2,0.1-1.8,0.1c-0.6,0-1.2,0-1.8,0.1c0,0.3,0,0.9,0,1.6c0,0.8,0,1.6,0,2.5c0,0.9,0,1.7,0,2.4
		c0,0.7,0,1.2,0,1.4s0.1,0.3,0.3,0.3c0.6,0,1.1-0.1,1.6-0.1c0.5,0,1.1-0.1,1.5-0.1c0-0.5,0-1.1,0-1.8c0-0.7,0-1.4,0-2.1
		C740.8,63.7,740.8,63,740.8,62.3z M753.3,78.7c0,0.4-0.1,0.6-0.3,0.8c-0.2,0.2-0.4,0.3-0.6,0.3c-0.8,0.1-1.7,0.1-2.7,0.2
		c-1,0.1-1.9,0.1-2.9,0.1c-1,0-1.9,0.1-2.9,0.1c-0.9,0-1.8,0-2.6,0c-0.4,0-0.7-0.1-1-0.4c-0.2-0.3-0.4-0.6-0.4-1.1
		c0-0.5-0.1-1-0.1-1.4c0-0.4,0-0.8-0.1-1.2s0-0.8,0-1.2c0-0.4,0-0.9,0-1.4c0-0.4,0.1-0.7,0.3-0.8c0.2-0.1,0.5-0.2,1-0.3
		c0.5,0,0.8,0,1.1,0.2s0.4,0.4,0.4,0.8c0,0.3,0,0.6,0,1c0,0.4,0,0.8,0,1.2c0,0.4,0,0.8,0,1.1s0,0.7,0,0.9c0,0.2,0.1,0.3,0.3,0.3
		c0.6,0,1.4,0,2.2-0.1c0.8,0,1.7-0.1,2.5-0.1c0.9,0,1.7-0.1,2.5-0.1c0.8,0,1.6,0,2.2,0c0.3,0,0.6,0.1,0.7,0.2S753.3,78.3,753.3,78.7
		z M749.6,62.8c0.4,0,0.7,0,1.1-0.1c0-0.7,0-1.3,0-2c0-0.6,0-1.2,0-1.7c0-0.5,0.1-0.8,0.3-1s0.5-0.3,1-0.3c0.9,0,1.3,0.5,1.3,1.4
		c0,0.6,0,1.2,0,2s0,1.6,0,2.4s0,1.7,0,2.5c0,0.9,0,1.7,0,2.4s0,1.4-0.1,2c0,0.6-0.1,1.1-0.1,1.4c-0.1,0.5-0.2,0.8-0.4,1
		c-0.2,0.2-0.5,0.2-0.9,0.2c-0.4,0-0.6-0.1-0.8-0.3c-0.2-0.2-0.3-0.5-0.3-1c0-0.2,0-0.6,0-1c0-0.4,0-1,0-1.5c0-0.6,0-1.2,0-1.9
		c0-0.7,0-1.4,0-2.1c-0.4,0-0.7,0-1.1,0.1c-0.4,0-0.7,0-1,0c-0.3,0-0.6,0-0.8,0s-0.4,0-0.5,0c-0.4,0-0.6-0.1-0.7-0.3
		c-0.1-0.2-0.2-0.5-0.2-0.9c0-0.8,0.3-1.2,0.9-1.2c0.1,0,0.3,0,0.5,0c0.3,0,0.6,0,0.9-0.1C748.8,62.9,749.2,62.9,749.6,62.8z"/>
	<path d="M769.2,62c0,0.5,0,0.9,0,1.4c1,0.8,1.9,1.5,2.8,2c0.9,0.6,1.7,1.2,2.5,1.7c0.2,0.2,0.4,0.4,0.4,0.7c0.1,0.3,0,0.5-0.2,0.8
		c-0.2,0.3-0.4,0.6-0.6,0.7c-0.2,0.1-0.5,0.1-0.7-0.1c-0.4-0.2-0.8-0.5-1.2-0.8c-0.5-0.3-0.9-0.6-1.4-0.9s-0.9-0.7-1.4-1
		c-0.5-0.3-0.9-0.7-1.3-1c-1,1.1-1.9,2.1-2.7,2.9c-0.8,0.8-1.6,1.5-2.2,2c-0.3,0.2-0.5,0.3-0.8,0.2c-0.3-0.1-0.6-0.2-0.8-0.5
		c-0.2-0.3-0.3-0.5-0.2-0.7c0-0.2,0.2-0.5,0.4-0.7c0.3-0.3,0.7-0.7,1.1-1.2c0.4-0.5,0.9-0.9,1.3-1.4s0.9-0.9,1.3-1.4
		c0.4-0.5,0.8-0.9,1.1-1.2c0-0.9-0.1-1.8-0.1-2.8c-0.1-0.9-0.1-1.8-0.1-2.7c0-0.4,0.1-0.7,0.3-0.9c0.2-0.2,0.6-0.3,1.1-0.4
		c0.6,0,1,0,1.2,0.2c0.2,0.2,0.3,0.5,0.3,0.9c0,0.3,0,0.7,0,1.2s0,0.9,0.1,1.4S769.2,61.6,769.2,62z M779.9,77.9
		c-0.3,0.7-0.6,1.2-1.2,1.7c-0.5,0.5-1.2,0.9-1.9,1.2c-0.7,0.3-1.6,0.5-2.6,0.5c-1,0-1.8-0.1-2.6-0.3c-0.7-0.2-1.4-0.6-1.9-1
		c-0.5-0.5-0.9-1-1.1-1.7c-0.3-0.7-0.4-1.4-0.4-2.2c0-0.7,0.1-1.4,0.4-2c0.2-0.7,0.6-1.2,1.1-1.7c0.5-0.5,1.1-0.9,1.8-1.2
		s1.6-0.5,2.6-0.6c0.9-0.1,1.8,0,2.5,0.3c0.7,0.2,1.4,0.6,1.9,1c0.5,0.5,0.9,1,1.2,1.7c0.3,0.7,0.4,1.4,0.5,2.2
		C780.3,76.5,780.2,77.2,779.9,77.9z M776.8,78.1c0.3-0.3,0.5-0.6,0.7-1.1c0.2-0.4,0.2-0.8,0.2-1.3c0-1-0.4-1.8-1-2.3
		c-0.6-0.5-1.5-0.8-2.5-0.7c-0.5,0-1,0.1-1.4,0.3c-0.4,0.2-0.8,0.4-1.1,0.7c-0.3,0.3-0.5,0.7-0.7,1c-0.1,0.4-0.2,0.8-0.2,1.2
		c0,1,0.3,1.7,0.9,2.3c0.6,0.6,1.4,0.8,2.4,0.8c0.6,0,1-0.1,1.5-0.3S776.5,78.4,776.8,78.1z M777.7,65.4c0-0.6,0-1.2,0-1.8
		c-0.5,0-0.9,0-1.4,0.1s-0.9,0-1.4,0s-0.8,0-1.1,0c-0.3,0-0.5,0-0.6,0c-0.4,0-0.6-0.1-0.7-0.3c-0.1-0.2-0.2-0.5-0.2-0.9
		c0-0.8,0.3-1.2,0.9-1.2c0.1,0,0.3,0,0.6,0c0.3,0,0.7,0,1.1-0.1c0.4,0,0.9,0,1.4-0.1c0.5,0,1,0,1.4-0.1c0-0.3,0-0.7,0-1s0-0.7,0-1
		c0-0.5,0.1-0.8,0.3-1s0.6-0.3,1.1-0.3c0.9,0,1.3,0.5,1.3,1.4c0,0.8,0,1.7,0,2.7c0,1,0,2,0,2.9s0,1.8-0.1,2.7c0,0.8-0.1,1.5-0.1,1.9
		c0,0.5-0.2,0.8-0.4,1c-0.2,0.2-0.5,0.2-0.9,0.2c-0.4,0-0.7-0.1-0.9-0.3c-0.2-0.2-0.3-0.5-0.3-1c0-0.3,0-0.6,0-1c0-0.4,0-0.8,0-1.4
		S777.7,66,777.7,65.4z"/>
	<path d="M791,62.1c0,0.3,0,0.7,0,1.1c1,0.6,1.9,1.1,2.8,1.7c0.9,0.5,1.7,1,2.5,1.5c0.3,0.2,0.4,0.4,0.5,0.6s0,0.5-0.2,0.8
		c-0.2,0.3-0.4,0.5-0.6,0.6c-0.2,0.1-0.4,0-0.7-0.1c-0.7-0.4-1.5-0.8-2.4-1.3s-1.8-1-2.8-1.6c-0.3,0.4-0.7,0.7-1.1,1.1
		c-0.4,0.4-0.8,0.8-1.2,1.2c-0.4,0.4-0.8,0.8-1.2,1.1s-0.7,0.7-1,0.9c-0.3,0.2-0.5,0.3-0.8,0.3c-0.3-0.1-0.6-0.2-0.8-0.5
		c-0.2-0.3-0.3-0.5-0.2-0.7c0-0.2,0.2-0.4,0.4-0.6c0.3-0.3,0.7-0.7,1.1-1.1c0.4-0.4,0.8-0.8,1.2-1.2c0.4-0.4,0.8-0.8,1.2-1.2
		c0.4-0.4,0.7-0.8,1-1.1c0-0.4,0-0.8-0.1-1.1c0-0.3,0-0.6,0-0.9c0-0.3,0-0.5,0-0.8c0-0.3,0-0.6,0-1c-1,0.1-1.8,0.1-2.6,0.1
		c-0.8,0-1.4,0.1-1.9,0.1c-0.3,0-0.5-0.1-0.7-0.2c-0.2-0.2-0.3-0.4-0.3-0.8c0-0.4,0.1-0.7,0.2-0.9c0.2-0.2,0.4-0.3,0.7-0.3
		c0.4,0,1,0,1.6-0.1c0.7,0,1.4-0.1,2.1-0.1c0.8,0,1.6-0.1,2.4-0.1c0.8,0,1.6-0.1,2.4-0.1c0.8,0,1.5-0.1,2.1-0.1c0.6,0,1.2,0,1.6-0.1
		c0.3,0,0.6,0,0.7,0.2c0.2,0.1,0.2,0.4,0.3,0.8c0,0.4-0.1,0.7-0.2,0.9c-0.2,0.2-0.4,0.3-0.8,0.3c-0.5,0-1.2,0.1-2,0.1
		c-0.9,0.1-1.8,0.1-2.8,0.2c0,0.3,0,0.6,0,0.9c0,0.3,0,0.5,0,0.8C791,61.5,791,61.8,791,62.1z M796.5,74.4c0.9,0,1.6-0.1,2.3-0.1
		c0-0.3,0-0.6,0-1s0-0.7,0-1c-0.7,0-1.5,0.1-2.4,0.1c-0.9,0-1.7,0.1-2.6,0.1c-0.9,0-1.8,0.1-2.6,0.1c-0.9,0-1.7,0.1-2.4,0.1
		c-0.3,0-0.5-0.1-0.6-0.2c-0.1-0.2-0.2-0.4-0.2-0.8s0-0.7,0.2-0.8c0.1-0.2,0.3-0.3,0.6-0.3c1.9-0.1,3.8-0.2,5.8-0.3
		c2-0.1,4.1-0.2,6.2-0.2c0.2,0,0.3,0,0.4,0.1c0.1,0.1,0.2,0.3,0.2,0.5c0,0.3,0,0.7,0,1.1s0,0.8,0,1.2c0,0.4,0,0.8-0.1,1.2
		c0,0.4,0,0.7-0.1,1c0,0.3-0.1,0.6-0.3,0.7s-0.4,0.2-0.8,0.2c-1.4,0.1-2.9,0.1-4.5,0.2s-3.1,0.1-4.7,0.2c0,0.3,0,0.5,0,0.9
		c0,0.3,0,0.6,0,0.9c1.6,0,3.2,0,4.8-0.1c1.6,0,3.3-0.1,5-0.1c0.3,0,0.4,0.1,0.5,0.3c0.1,0.2,0.2,0.4,0.2,0.7c0,0.3,0,0.5-0.1,0.8
		c-0.1,0.2-0.3,0.3-0.6,0.4c-1,0-1.9,0.1-2.8,0.1c-0.9,0-1.7,0-2.6,0.1c-0.8,0-1.7,0-2.6,0c-0.9,0-1.8,0-2.8,0c-0.6,0-1-0.1-1.2-0.3
		s-0.3-0.6-0.4-1.2c0-0.5-0.1-1.1-0.1-1.8c0-0.7,0-1.3,0-1.8c0-0.2,0-0.3,0.1-0.5s0.2-0.2,0.4-0.2c0.7,0,1.4-0.1,2.3-0.1
		c0.9,0,1.7-0.1,2.6-0.1C794.8,74.5,795.6,74.4,796.5,74.4z M801.7,68.3c0,0.5-0.2,0.8-0.4,1c-0.2,0.2-0.5,0.2-0.9,0.2
		c-0.4,0-0.7-0.1-0.9-0.3c-0.2-0.2-0.3-0.5-0.3-1c0-0.4,0-0.9,0-1.6c0-0.6,0-1.4,0-2.1c0-0.8,0-1.6,0-2.6c0-0.9,0-1.9,0-2.8
		c0-0.5,0.1-0.8,0.3-1s0.6-0.3,1.1-0.3c0.9,0,1.3,0.5,1.3,1.4c0,0.8,0,1.7,0,2.6c0,0.9,0,1.7,0,2.5c0,0.8,0,1.6-0.1,2.3
		C801.8,67.2,801.7,67.8,801.7,68.3z"/>
	<path d="M817.4,69.3c-0.3,0.8-0.8,1.5-1.4,2.1s-1.3,1-2.2,1.3s-1.7,0.5-2.7,0.5c-1,0-2-0.1-2.8-0.4s-1.5-0.7-2.1-1.3
		c-0.6-0.6-1-1.3-1.4-2.1c-0.3-0.9-0.5-1.9-0.5-3c0-1,0.2-1.8,0.5-2.7c0.3-0.8,0.8-1.6,1.3-2.2s1.3-1.1,2.1-1.5
		c0.8-0.4,1.8-0.6,2.8-0.6c1,0,2,0.1,2.8,0.4c0.8,0.3,1.6,0.8,2.1,1.4c0.6,0.6,1,1.3,1.4,2.2s0.5,1.8,0.5,2.9
		C817.9,67.6,817.7,68.5,817.4,69.3z M812.7,70.6c0.5-0.2,1-0.5,1.3-0.9s0.7-0.9,0.9-1.4c0.2-0.5,0.3-1.1,0.3-1.8
		c0-0.7-0.1-1.3-0.3-1.9c-0.2-0.6-0.5-1-0.9-1.4c-0.4-0.4-0.8-0.7-1.3-0.9c-0.5-0.2-1.1-0.3-1.6-0.3c-0.6,0-1.2,0.1-1.7,0.4
		c-0.5,0.2-0.9,0.6-1.3,1c-0.4,0.4-0.6,0.9-0.8,1.4s-0.3,1.2-0.3,1.8c0,1.5,0.4,2.6,1.1,3.3c0.7,0.7,1.7,1.1,2.9,1.1
		C811.6,70.9,812.2,70.8,812.7,70.6z M822.9,76.7c0,0.5-0.2,0.8-0.4,1c-0.2,0.2-0.5,0.3-0.9,0.2c-0.4,0-0.6-0.2-0.8-0.4
		c-0.2-0.2-0.3-0.6-0.3-1.2c0-5.8,0.1-11.5,0.3-17.2c0-0.5,0.1-0.8,0.3-1c0.2-0.2,0.6-0.3,1.1-0.3c0.9,0,1.3,0.5,1.3,1.4
		c0,1.4,0,2.9-0.1,4.4c0,1.5-0.1,3-0.1,4.5c-0.1,1.5-0.1,3-0.2,4.4C823.1,74,823,75.4,822.9,76.7z"/>
</g>
<g>
	<path d="M746.7,97.5c-0.3,0.8-0.8,1.4-1.4,1.9c-0.6,0.5-1.3,0.9-2.1,1.2c-0.8,0.3-1.7,0.4-2.6,0.5c-1,0-1.9-0.1-2.7-0.3
		c-0.8-0.2-1.5-0.6-2.1-1.1c-0.6-0.5-1-1.2-1.3-2c-0.3-0.8-0.5-1.7-0.5-2.8c0-0.9,0.2-1.7,0.5-2.5s0.7-1.4,1.3-2
		c0.6-0.6,1.3-1,2.1-1.4s1.7-0.5,2.8-0.6c1,0,1.9,0.1,2.7,0.4c0.8,0.3,1.5,0.7,2.1,1.3c0.6,0.6,1,1.2,1.3,2c0.3,0.8,0.5,1.7,0.5,2.7
		C747.2,95.8,747,96.7,746.7,97.5z M743.4,97.6c0.4-0.4,0.7-0.8,0.9-1.3c0.2-0.5,0.3-1,0.3-1.7c0-0.7-0.1-1.2-0.3-1.7
		c-0.2-0.5-0.5-0.9-0.9-1.3c-0.4-0.3-0.8-0.6-1.3-0.8c-0.5-0.2-1-0.2-1.5-0.2c-0.6,0-1.1,0.1-1.6,0.4c-0.5,0.2-0.9,0.5-1.2,0.9
		c-0.3,0.4-0.6,0.8-0.8,1.3s-0.3,1-0.3,1.6c0,1.3,0.4,2.3,1.1,3c0.7,0.7,1.6,1,2.8,0.9c0.6,0,1.1-0.1,1.6-0.3
		C742.6,98.3,743,98,743.4,97.6z M750.9,105.2c0,0.2,0,0.5,0,0.6c0.7,0.7,1.4,1.3,2.1,1.9c0.7,0.6,1.3,1.1,1.9,1.6
		c0.2,0.1,0.3,0.3,0.5,0.5c0.1,0.2,0.1,0.5-0.1,0.8c-0.2,0.3-0.4,0.5-0.6,0.6c-0.2,0.1-0.5,0-0.7-0.1c-0.3-0.2-0.6-0.5-1-0.7
		c-0.4-0.3-0.7-0.6-1.1-0.9c-0.4-0.3-0.7-0.6-1.1-0.9c-0.4-0.3-0.7-0.6-1-0.8c-0.3,0.3-0.6,0.6-1,0.9c-0.4,0.3-0.7,0.7-1.1,1
		s-0.7,0.7-1.1,1c-0.3,0.3-0.6,0.6-0.9,0.7c-0.6,0.4-1.1,0.3-1.5-0.2c-0.4-0.5-0.4-0.9,0-1.3c0.1-0.1,0.2-0.2,0.3-0.3
		c0.1-0.1,0.2-0.2,0.4-0.4c-0.4-0.3-0.8-0.6-1.2-0.9s-0.7-0.6-1-0.8c-0.3,0.3-0.6,0.6-0.9,1c-0.3,0.3-0.7,0.7-1,1
		c-0.3,0.3-0.7,0.7-1,1c-0.3,0.3-0.6,0.6-0.9,0.8c-0.3,0.2-0.6,0.3-0.8,0.3c-0.2-0.1-0.5-0.2-0.7-0.5c-0.2-0.3-0.3-0.5-0.3-0.7
		s0.1-0.4,0.3-0.6c0.5-0.5,1.1-1.1,1.7-1.8s1.3-1.4,2-2.1c0-0.1,0-0.3,0-0.5s0-0.4,0-0.6c0-0.2,0-0.4,0-0.6c0-0.2,0-0.4,0-0.5
		c0-0.4,0.1-0.7,0.3-0.9s0.6-0.3,1.1-0.4c0.6,0,1,0,1.2,0.2c0.2,0.2,0.3,0.5,0.3,0.9c0,0.3,0,0.6,0,1c0,0.4,0,0.8,0,1.1
		c0.4,0.3,0.8,0.7,1.3,1.1s0.9,0.7,1.4,1.1c0.3-0.3,0.6-0.6,0.9-0.9s0.6-0.6,0.8-0.8c0-0.1,0-0.3,0-0.5s0-0.5,0-0.8
		c0-0.3,0-0.5,0-0.8s0-0.5,0-0.6c0-0.4,0.1-0.7,0.3-0.9s0.6-0.3,1.1-0.4c0.6,0,1,0,1.2,0.2c0.2,0.2,0.3,0.5,0.3,0.9
		c0,0.1,0,0.3,0,0.5s0,0.4,0,0.7C750.9,104.7,750.9,104.9,750.9,105.2z M752.8,100.2c0,0.5-0.2,0.8-0.4,1c-0.2,0.2-0.5,0.2-0.9,0.2
		c-0.4,0-0.7-0.1-0.9-0.3c-0.2-0.2-0.3-0.5-0.3-1c0-0.4,0-1,0-1.7c0-0.7,0-1.5,0-2.4c0-0.9,0-1.8,0-2.8c0-1,0-2,0-2.9
		c0-0.5,0.1-0.8,0.3-1s0.6-0.3,1.1-0.3c0.9,0,1.3,0.5,1.3,1.4c0,0.8,0,1.7,0,2.7c0,1,0,1.9,0,2.8s0,1.7-0.1,2.5
		C752.9,99.1,752.9,99.7,752.8,100.2z"/>
	<path d="M758.7,90.2c0.2,0.2,0.3,0.4,0.4,0.9c0.1,1,0.1,2.1,0.1,3.1s0.1,2.1,0.1,3.1s0.1,2,0.1,2.9c0,0.9,0.1,1.8,0.1,2.6
		c0,0.2,0.1,0.3,0.3,0.3c1.3-0.1,2.6-0.2,3.9-0.3c1.3-0.1,2.6-0.2,3.9-0.3c0.3,0,0.5,0,0.7,0.2s0.3,0.4,0.3,0.9
		c0,0.3-0.1,0.6-0.2,0.8c-0.2,0.2-0.4,0.3-0.6,0.3c-0.6,0.1-1.3,0.2-2,0.3c-0.7,0.1-1.5,0.2-2.3,0.2c-0.8,0.1-1.6,0.1-2.4,0.2
		c-0.8,0-1.6,0.1-2.3,0.1c-0.6,0-1-0.1-1.3-0.4c-0.3-0.3-0.5-0.6-0.6-1.2c0-0.5-0.1-1.1-0.1-1.7c0-0.7-0.1-1.4-0.1-2.2
		c0-0.8-0.1-1.6-0.1-2.4c0-0.8-0.1-1.6-0.1-2.4c0-0.8-0.1-1.5-0.1-2.2c0-0.7-0.1-1.3-0.1-1.8c0-0.2,0-0.4,0-0.5
		c0-0.1,0.1-0.3,0.2-0.4c0.1-0.1,0.2-0.2,0.4-0.2c0.2-0.1,0.4-0.1,0.7-0.1C758.1,90,758.5,90.1,758.7,90.2z M774,99.2
		c-0.3,0-0.6,0-0.9,0c-0.1,1.5-0.1,3-0.2,4.5c-0.1,1.5-0.2,2.9-0.2,4.2c0,0.5-0.2,0.8-0.4,1c-0.2,0.2-0.5,0.3-0.9,0.2
		c-0.4,0-0.6-0.2-0.8-0.4c-0.2-0.2-0.3-0.6-0.3-1.2c0-5.8,0.1-11.5,0.3-17.2c0-0.5,0.1-0.8,0.3-1c0.2-0.2,0.6-0.3,1.1-0.3
		c0.9,0,1.3,0.5,1.3,1.4c0,1,0,2.1-0.1,3.2c0,1.1,0,2.2-0.1,3.3c0.3,0,0.5,0,0.8,0s0.6,0,0.8,0c0.3,0,0.5,0,0.7,0s0.4,0,0.5,0
		c0.4,0,0.6,0.1,0.8,0.2s0.2,0.4,0.2,0.8c0,0.4-0.1,0.7-0.2,0.9c-0.1,0.2-0.3,0.4-0.6,0.4c-0.1,0-0.3,0-0.6,0c-0.2,0-0.5,0-0.8,0
		S774.3,99.2,774,99.2z"/>
	<path d="M791.1,105.9c0.5,0,1,0,1.4-0.1s0.9,0,1.4-0.1c0.3,0,0.5,0.1,0.7,0.3s0.2,0.5,0.2,0.8c0,0.4-0.1,0.7-0.3,0.9
		c-0.2,0.2-0.4,0.3-0.7,0.3c-2.4,0.2-4.9,0.4-7.4,0.5c-2.5,0.1-5.1,0.2-7.7,0.3c-0.6,0-1-0.4-1-1.2c0-0.4,0.1-0.7,0.2-0.9
		c0.2-0.2,0.4-0.3,0.8-0.3c0.5,0,0.9,0,1.4-0.1c0.5,0,0.9,0,1.4-0.1l-0.1-4.5c-1-0.6-1.8-1.3-2.4-2.3c-0.6-1-0.9-2.2-0.9-3.6
		c0-1,0.2-1.9,0.6-2.7c0.4-0.8,0.9-1.6,1.6-2.2c0.7-0.6,1.5-1.2,2.4-1.5c1-0.4,2-0.6,3.2-0.6c1.2,0,2.2,0.1,3.2,0.5
		c1,0.3,1.8,0.8,2.5,1.4c0.7,0.6,1.2,1.4,1.6,2.3c0.4,0.9,0.6,1.9,0.6,2.9c0,1.2-0.2,2.3-0.7,3.2c-0.5,0.9-1.2,1.7-2,2.3
		L791.1,105.9z M789.8,99.1c0.5-0.4,0.8-0.9,1.1-1.5s0.4-1.2,0.4-1.8c0-0.7-0.1-1.4-0.4-1.9c-0.3-0.6-0.6-1.1-1.1-1.5
		c-0.5-0.4-1-0.7-1.6-0.9s-1.3-0.3-2-0.3c-0.8,0-1.5,0.2-2.1,0.4c-0.6,0.3-1.2,0.6-1.6,1s-0.8,0.9-1,1.5c-0.2,0.6-0.4,1.2-0.4,1.8
		c0,0.7,0.1,1.4,0.4,1.9s0.6,1,1,1.4c0.4,0.4,1,0.7,1.6,0.9c0.6,0.2,1.3,0.3,2,0.3c0.8,0,1.5-0.1,2.1-0.4
		C788.7,99.9,789.3,99.6,789.8,99.1z M788.5,102.5c-0.7,0.2-1.5,0.3-2.4,0.3c-0.3,0-0.7,0-1,0c-0.3,0-0.6-0.1-0.9-0.1l0.1,3.5
		c0.7,0,1.4-0.1,2.1-0.1c0.7,0,1.4-0.1,2-0.1L788.5,102.5z"/>
	<path d="M803.3,103.2c-0.1,0.3-0.5,0.4-1,0.4c-0.5,0-0.8-0.1-1-0.4c-0.1-0.2-0.2-0.5-0.2-0.9c0-0.4,0-0.7,0.1-1.1s0.2-0.8,0.5-1.2
		s0.6-0.9,1-1.4c0.4-0.5,0.9-1,1.6-1.6c0.2-0.2,0.3-0.3,0.5-0.6c0.2-0.2,0.4-0.5,0.5-0.7c0.2-0.3,0.3-0.6,0.4-0.9
		c0.1-0.3,0.1-0.6,0.1-0.9c0-0.8-0.4-1.5-1-1.9s-1.3-0.6-2.2-0.4c-0.5,0.1-1,0.2-1.4,0.5c-0.4,0.2-0.7,0.5-0.9,0.8
		c-0.2,0.3-0.4,0.7-0.5,1.1c-0.1,0.4-0.1,0.8-0.1,1.2c0.1,0.6,0,0.9-0.2,1.1c-0.2,0.2-0.5,0.3-0.9,0.4c-0.4,0.1-0.7,0.1-0.9-0.1
		c-0.3-0.2-0.5-0.5-0.6-1c-0.1-0.6-0.1-1.3,0-1.9c0.2-0.7,0.5-1.3,0.9-2c0.4-0.6,1-1.1,1.7-1.6s1.6-0.7,2.6-0.8c1-0.1,1.8,0,2.6,0.2
		c0.8,0.2,1.4,0.5,1.9,0.9s0.9,1,1.2,1.6c0.3,0.6,0.4,1.4,0.4,2.2c0,0.6-0.1,1.2-0.3,1.7c-0.2,0.5-0.5,1-0.9,1.5
		c-0.4,0.5-0.7,0.9-1.2,1.4s-0.9,0.8-1.3,1.2c-0.4,0.4-0.7,0.8-0.9,1.2s-0.3,0.8-0.3,1.2S803.5,103,803.3,103.2z M804,107.6
		c0,0.5-0.2,0.9-0.5,1.2s-0.7,0.5-1.2,0.5c-0.5,0-0.9-0.2-1.2-0.5s-0.5-0.7-0.5-1.2c0-0.5,0.2-0.9,0.5-1.2s0.7-0.5,1.2-0.5
		c0.5,0,0.9,0.2,1.2,0.5S804,107.1,804,107.6z"/>
</g>
<g>
	<path style="fill:#C5C4E0;" d="M338.5,42.5c1.7-0.2,3.2-1,4.2-2.2c1-1.2,1.6-2.8,1.4-4.5c-0.3-3.4-3.3-5.9-6.7-5.6
		c-3.4,0.3-5.9,3.3-5.6,6.7C332.1,40.3,335.1,42.8,338.5,42.5z"/>
	<path style="fill:#C5C4E0;" d="M583.7,42.5c3.4,0.3,6.4-2.2,6.7-5.6c0.3-3.4-2.2-6.4-5.6-6.7c-3.4-0.3-6.4,2.2-6.7,5.6
		c-0.1,1.7,0.4,3.3,1.4,4.5C580.5,41.5,582,42.3,583.7,42.5z"/>
	<path style="fill:#C5C4E0;" d="M579.1,76.8c-0.5-10.2-3.6-16.8-7.7-21.1l8.9-11.4c-1.7-0.8-3.2-1.9-4.5-3.4
		c-0.1-0.1-0.1-0.2-0.2-0.3l-8.9,11.4c-9.2-5.6-20.2-3.6-20.2-3.6c-92.1-49.6-174.3-2.8-174.3-2.8c-8.2-0.4-14.2,1.2-18.7,3.9
		l-6.9-8.8c-0.1,0.1-0.1,0.2-0.2,0.3c-1.3,1.5-2.8,2.6-4.5,3.4l6.9,8.8C340.4,61.6,341,74,341,74c-45.4,31.2-17,93.5-17,93.5
		l262.2,1.4C624.4,106.6,579.1,76.8,579.1,76.8z"/>
</g>
<g>
	<g>
		<path style="fill:#898BBF;" d="M30.6,132.2c-9.4,3.1-17.1,9.1-20.3,19.1c-3.3,10.2-2.9,148.4-2,159c0.8,8.6,2.2,17.7,6.9,25.1
			c2.6,4.1,6.3,7.4,10.7,9.4c13.6,6,30.7,4.4,45.3,4.8c15.9,0.4,127,1.1,142.9,1.3c14.9,0.2,30.7,0,45.1-4.4
			c10.5-3.1,19.6-9.8,24.2-20c5.4-11.8,3.5-154.1,1.1-166.7c-2.5-12.7-9-22.4-21.3-26.9c-12.9-4.7-27.6-5-41.2-5.4
			c-16.2-0.5-125.4,0-141.7,0.2c-15.1,0.3-31.4-0.1-46.2,3.5C33,131.5,31.8,131.8,30.6,132.2"/>
		<path style="fill:none;stroke:#898BBF;stroke-width:2;stroke-linecap:round;stroke-linejoin:round;" d="M30.6,132.2
			c-9.4,3.1-17.1,9.1-20.3,19.1c-3.3,10.2-2.9,148.4-2,159c0.8,8.6,2.2,17.7,6.9,25.1c2.6,4.1,6.3,7.4,10.7,9.4
			c13.6,6,30.7,4.4,45.3,4.8c15.9,0.4,127,1.1,142.9,1.3c14.9,0.2,30.7,0,45.1-4.4c10.5-3.1,19.6-9.8,24.2-20
			c5.4-11.8,3.5-154.1,1.1-166.7c-2.5-12.7-9-22.4-21.3-26.9c-12.9-4.7-27.6-5-41.2-5.4c-16.2-0.5-125.4,0-141.7,0.2
			c-15.1,0.3-31.4-0.1-46.2,3.5C33,131.5,31.8,131.8,30.6,132.2z"/>
		<path style="fill:#FFFFFF;" d="M27.3,129c-9.3,3.1-17,9.1-20.2,19c-3.3,10.1-2.9,147.9-2,158.5c0.8,8.5,2.2,17.7,6.8,25
			c2.6,4.1,6.3,7.4,10.7,9.4c13.6,6,30.6,4.4,45.1,4.8c15.8,0.4,126.1,1.1,141.9,1.3c14.9,0.2,30.6,0,45-4.4
			c10.5-3.1,19.5-9.8,24.2-19.9c5.4-11.7,3.5-153.6,1.1-166.2c-2.5-12.7-9-22.3-21.2-26.8c-12.8-4.7-27.6-5-41-5.4
			c-16.2-0.5-124.5,0-140.7,0.2c-15.1,0.3-31.3-0.1-46.1,3.4C29.7,128.3,28.5,128.6,27.3,129"/>
		<path style="fill:none;stroke:#898BBF;stroke-width:2;stroke-linecap:round;stroke-linejoin:round;" d="M27.3,129
			c-9.3,3.1-17,9.1-20.2,19c-3.3,10.1-2.9,147.9-2,158.5c0.8,8.5,2.2,17.7,6.8,25c2.6,4.1,6.3,7.4,10.7,9.4
			c13.6,6,30.6,4.4,45.1,4.8c15.8,0.4,126.1,1.1,141.9,1.3c14.9,0.2,30.6,0,45-4.4c10.5-3.1,19.5-9.8,24.2-19.9
			c5.4-11.7,3.5-153.6,1.1-166.2c-2.5-12.7-9-22.3-21.2-26.8c-12.8-4.7-27.6-5-41-5.4c-16.2-0.5-124.5,0-140.7,0.2
			c-15.1,0.3-31.3-0.1-46.1,3.4C29.7,128.3,28.5,128.6,27.3,129z"/>
	</g>
	<path style="fill:#898BBF;" d="M343.8,132.2c-9.4,3.1-17.1,9.1-20.3,19.1c-3.3,10.2-2.9,148.4-2,159c0.8,8.6,2.2,17.7,6.9,25.1
		c2.6,4.1,6.3,7.4,10.8,9.4c13.6,6,30.7,4.4,45.3,4.8c15.9,0.4,127,1.1,142.9,1.3c14.9,0.2,30.7,0,45.1-4.4
		c10.5-3.1,19.6-9.8,24.2-20c5.4-11.8,3.5-154.1,1.1-166.7c-2.5-12.7-9-22.4-21.3-26.9c-12.9-4.7-27.6-5-41.2-5.4
		c-16.2-0.5-125.4,0-141.7,0.2c-15.1,0.3-31.4-0.1-46.2,3.5C346.2,131.5,345,131.8,343.8,132.2"/>
	<path style="fill:none;stroke:#898BBF;stroke-width:2;stroke-linecap:round;stroke-linejoin:round;" d="M343.8,132.2
		c-9.4,3.1-17.1,9.1-20.3,19.1c-3.3,10.2-2.9,148.4-2,159c0.8,8.6,2.2,17.7,6.9,25.1c2.6,4.1,6.3,7.4,10.8,9.4
		c13.6,6,30.7,4.4,45.3,4.8c15.9,0.4,127,1.1,142.9,1.3c14.9,0.2,30.7,0,45.1-4.4c10.5-3.1,19.6-9.8,24.2-20
		c5.4-11.8,3.5-154.1,1.1-166.7c-2.5-12.7-9-22.4-21.3-26.9c-12.9-4.7-27.6-5-41.2-5.4c-16.2-0.5-125.4,0-141.7,0.2
		c-15.1,0.3-31.4-0.1-46.2,3.5C346.2,131.5,345,131.8,343.8,132.2z"/>
	<path style="fill:#FFFFFF;" d="M340.5,129c-9.3,3.1-17,9.1-20.2,19c-3.3,10.1-2.9,147.9-2,158.5c0.8,8.5,2.2,17.7,6.9,25
		c2.6,4.1,6.3,7.4,10.7,9.4c13.6,6,30.6,4.4,45.1,4.8c15.8,0.4,126.1,1.1,141.9,1.3c14.9,0.2,30.6,0,45-4.4
		c10.5-3.1,19.5-9.8,24.2-19.9c5.4-11.7,3.5-153.6,1.1-166.2c-2.5-12.7-9-22.3-21.2-26.8c-12.8-4.7-27.6-5-41-5.4
		c-16.2-0.5-124.5,0-140.7,0.2c-15.1,0.3-31.3-0.1-46.1,3.4C342.9,128.3,341.7,128.6,340.5,129"/>
	<path style="fill:none;stroke:#898BBF;stroke-width:2;stroke-linecap:round;stroke-linejoin:round;" d="M340.5,129
		c-9.3,3.1-17,9.1-20.2,19c-3.3,10.1-2.9,147.9-2,158.5c0.8,8.5,2.2,17.7,6.9,25c2.6,4.1,6.3,7.4,10.7,9.4c13.6,6,30.6,4.4,45.1,4.8
		c15.8,0.4,126.1,1.1,141.9,1.3c14.9,0.2,30.6,0,45-4.4c10.5-3.1,19.5-9.8,24.2-19.9c5.4-11.7,3.5-153.6,1.1-166.2
		c-2.5-12.7-9-22.3-21.2-26.8c-12.8-4.7-27.6-5-41-5.4c-16.2-0.5-124.5,0-140.7,0.2c-15.1,0.3-31.3-0.1-46.1,3.4
		C342.9,128.3,341.7,128.6,340.5,129z"/>
	<path style="fill:#898BBF;" d="M657,132.2c-9.4,3.1-17.1,9.1-20.3,19.1c-3.3,10.2-2.9,148.4-2,159c0.8,8.6,2.2,17.7,6.9,25.1
		c2.6,4.1,6.3,7.4,10.8,9.4c13.6,6,30.7,4.4,45.3,4.8c15.9,0.4,127,1.1,142.9,1.3c14.9,0.2,30.7,0,45.1-4.4
		c10.5-3.1,19.6-9.8,24.2-20c5.4-11.8,3.5-154.1,1.1-166.7c-2.5-12.7-9-22.4-21.3-26.9c-12.9-4.7-27.6-5-41.2-5.4
		c-16.2-0.5-125.4,0-141.7,0.2c-15.1,0.3-31.4-0.1-46.2,3.5C659.4,131.5,658.2,131.8,657,132.2"/>
	<path style="fill:none;stroke:#898BBF;stroke-width:2;stroke-linecap:round;stroke-linejoin:round;" d="M657,132.2
		c-9.4,3.1-17.1,9.1-20.3,19.1c-3.3,10.2-2.9,148.4-2,159c0.8,8.6,2.2,17.7,6.9,25.1c2.6,4.1,6.3,7.4,10.8,9.4
		c13.6,6,30.7,4.4,45.3,4.8c15.9,0.4,127,1.1,142.9,1.3c14.9,0.2,30.7,0,45.1-4.4c10.5-3.1,19.6-9.8,24.2-20
		c5.4-11.8,3.5-154.1,1.1-166.7c-2.5-12.7-9-22.4-21.3-26.9c-12.9-4.7-27.6-5-41.2-5.4c-16.2-0.5-125.4,0-141.7,0.2
		c-15.1,0.3-31.4-0.1-46.2,3.5C659.4,131.5,658.2,131.8,657,132.2z"/>
	<path style="fill:#FFFFFF;" d="M653.7,129c-9.3,3.1-17,9.1-20.2,19c-3.3,10.1-2.9,147.9-2,158.5c0.8,8.5,2.2,17.7,6.8,25
		c2.6,4.1,6.3,7.4,10.7,9.4c13.6,6,30.6,4.4,45.1,4.8c15.8,0.4,126.1,1.1,141.9,1.3c14.9,0.2,30.6,0,45-4.4
		c10.5-3.1,19.5-9.8,24.2-19.9c5.4-11.7,3.5-153.6,1.1-166.2c-2.5-12.7-9-22.3-21.2-26.8c-12.8-4.7-27.6-5-41-5.4
		c-16.2-0.5-124.5,0-140.7,0.2c-15.1,0.3-31.3-0.1-46.1,3.4C656.1,128.3,654.9,128.6,653.7,129"/>
	<path style="fill:none;stroke:#898BBF;stroke-width:2;stroke-linecap:round;stroke-linejoin:round;" d="M653.7,129
		c-9.3,3.1-17,9.1-20.2,19c-3.3,10.1-2.9,147.9-2,158.5c0.8,8.5,2.2,17.7,6.8,25c2.6,4.1,6.3,7.4,10.7,9.4c13.6,6,30.6,4.4,45.1,4.8
		c15.8,0.4,126.1,1.1,141.9,1.3c14.9,0.2,30.6,0,45-4.4c10.5-3.1,19.5-9.8,24.2-19.9c5.4-11.7,3.5-153.6,1.1-166.2
		c-2.5-12.7-9-22.3-21.2-26.8c-12.8-4.7-27.6-5-41-5.4c-16.2-0.5-124.5,0-140.7,0.2c-15.1,0.3-31.3-0.1-46.1,3.4
		C656.1,128.3,654.9,128.6,653.7,129z"/>
	<path style="fill:#3BB5BE;" d="M307.2,232.7c-1.7,0-3.1,1.4-3.1,3.1s1.4,3.1,3.1,3.1c1.7,0,3.1-1.4,3.1-3.1
		S308.9,232.7,307.2,232.7"/>
	<path style="fill:#3BB5BE;" d="M279.4,232.7c-1.7,0-3.1,1.4-3.1,3.1s1.4,3.1,3.1,3.1c1.7,0,3.1-1.4,3.1-3.1
		S281.1,232.7,279.4,232.7"/>
	<path style="fill:#3BB5BE;" d="M293.3,232.7c-1.7,0-3.1,1.4-3.1,3.1s1.4,3.1,3.1,3.1c1.7,0,3.1-1.4,3.1-3.1S295,232.7,293.3,232.7"
		/>
	<path style="fill:#3BB5BE;" d="M321.1,232.7c-1.7,0-3.1,1.4-3.1,3.1s1.4,3.1,3.1,3.1c1.7,0,3.1-1.4,3.1-3.1
		S322.8,232.7,321.1,232.7"/>
	<path style="fill:#898BBF;" d="M275.1,229.3c-0.6,0.3-1.2,0.7-1.6,1.2c-1.4,1.4-2.2,3.3-2.2,5.2v0.3c0,2,0.8,3.8,2.2,5.2
		c1.4,1.4,3.3,2.2,5.2,2.2h43.2c2,0,3.8-0.8,5.2-2.2c1.4-1.4,2.2-3.3,2.2-5.2v-0.3c0-2-0.8-3.8-2.2-5.2c-1.4-1.4-3.3-2.2-5.2-2.2
		h-43.2c-0.5,0-1.1,0.1-1.6,0.2"/>
	<path style="fill:#FFFFFF;" d="M281.9,239.1c1.9,0,3.5-1.6,3.5-3.5c0-1.9-1.6-3.5-3.5-3.5c-1.9,0-3.5,1.6-3.5,3.5
		C278.4,237.6,280,239.1,281.9,239.1"/>
	<path style="fill:#FFFFFF;" d="M300.2,239.1c1.9,0,3.5-1.6,3.5-3.5c0-1.9-1.6-3.5-3.5-3.5c-1.9,0-3.5,1.6-3.5,3.5
		C296.7,237.6,298.3,239.1,300.2,239.1"/>
	<path style="fill:#FFFFFF;" d="M318.9,239.1c1.9,0,3.5-1.6,3.5-3.5c0-1.9-1.6-3.5-3.5-3.5c-1.9,0-3.5,1.6-3.5,3.5
		C315.4,237.6,317,239.1,318.9,239.1"/>
	<path style="fill:#3BB5BE;" d="M620.4,232.7c-1.7,0-3.1,1.4-3.1,3.1s1.4,3.1,3.1,3.1c1.7,0,3.1-1.4,3.1-3.1
		S622.1,232.7,620.4,232.7"/>
	<path style="fill:#3BB5BE;" d="M592.6,232.7c-1.7,0-3.1,1.4-3.1,3.1s1.4,3.1,3.1,3.1c1.7,0,3.1-1.4,3.1-3.1
		S594.4,232.7,592.6,232.7"/>
	<path style="fill:#3BB5BE;" d="M606.5,232.7c-1.7,0-3.1,1.4-3.1,3.1s1.4,3.1,3.1,3.1c1.7,0,3.1-1.4,3.1-3.1
		S608.2,232.7,606.5,232.7"/>
	<path style="fill:#3BB5BE;" d="M634.3,232.7c-1.7,0-3.1,1.4-3.1,3.1s1.4,3.1,3.1,3.1c1.7,0,3.1-1.4,3.1-3.1S636,232.7,634.3,232.7"
		/>
	<path style="fill:#898BBF;" d="M588.3,229.3c-0.6,0.3-1.2,0.7-1.6,1.2c-1.4,1.4-2.2,3.3-2.2,5.2v0.3c0,2,0.8,3.8,2.2,5.2
		c1.4,1.4,3.3,2.2,5.2,2.2H635c2,0,3.8-0.8,5.2-2.2c1.4-1.4,2.2-3.3,2.2-5.2v-0.3c0-2-0.8-3.8-2.2-5.2c-1.4-1.4-3.3-2.2-5.2-2.2
		h-43.2c-0.5,0-1.1,0.1-1.6,0.2"/>
	<path style="fill:#FFFFFF;" d="M595.2,239.1c1.9,0,3.5-1.6,3.5-3.5c0-1.9-1.6-3.5-3.5-3.5c-1.9,0-3.5,1.6-3.5,3.5
		C591.7,237.6,593.2,239.1,595.2,239.1"/>
	<path style="fill:#FFFFFF;" d="M613.5,239.1c1.9,0,3.5-1.6,3.5-3.5c0-1.9-1.6-3.5-3.5-3.5c-1.9,0-3.5,1.6-3.5,3.5
		C610,237.6,611.5,239.1,613.5,239.1"/>
	<path style="fill:#FFFFFF;" d="M632.1,239.1c1.9,0,3.5-1.6,3.5-3.5c0-1.9-1.6-3.5-3.5-3.5c-1.9,0-3.5,1.6-3.5,3.5
		C628.6,237.6,630.2,239.1,632.1,239.1"/>
</g>
<g>
	<path d="M392.6,64.8c0.6,0,1.2,0,1.6-0.1c0-0.9,0.1-1.9,0.1-2.8c0-0.9,0.1-1.9,0.1-2.8c0-0.5,0.1-0.8,0.3-1
		c0.2-0.2,0.6-0.3,1.1-0.3c0.9,0,1.3,0.5,1.3,1.4c0,1.4,0,2.9-0.1,4.4c0,1.5-0.1,3-0.1,4.5c-0.1,1.5-0.1,3-0.2,4.4
		c-0.1,1.5-0.2,2.8-0.3,4.2c0,0.5-0.2,0.8-0.4,1c-0.2,0.2-0.5,0.3-0.9,0.2c-0.4,0-0.6-0.2-0.8-0.4c-0.2-0.2-0.3-0.6-0.3-1.2
		c0-3.1,0-6.2,0.1-9.3c-0.5,0-1,0.1-1.6,0.1c-0.6,0-1.1,0-1.6,0.1c-0.1,1-0.3,1.8-0.6,2.5c-0.3,0.7-0.8,1.4-1.4,1.9
		c-0.6,0.5-1.2,0.9-2,1.2c-0.8,0.3-1.6,0.4-2.5,0.4c-2.1,0.1-3.7-0.5-4.8-1.6c-1.2-1.1-1.7-2.9-1.7-5.1c0-1,0.1-1.8,0.4-2.7
		c0.3-0.8,0.7-1.6,1.3-2.2s1.2-1.1,2.1-1.5s1.8-0.6,2.8-0.6c0.9,0,1.7,0.1,2.4,0.3c0.7,0.2,1.4,0.6,1.9,1.1s1,1,1.4,1.7
		c0.4,0.7,0.6,1.4,0.7,2.2C391.4,64.8,391.9,64.8,392.6,64.8z M386,70.6c0.5-0.2,0.9-0.5,1.3-0.9s0.6-0.9,0.8-1.4
		c0.2-0.5,0.3-1.1,0.3-1.8c0-1.4-0.4-2.5-1.1-3.3c-0.7-0.8-1.7-1.2-2.9-1.1c-0.6,0-1.2,0.1-1.7,0.4c-0.5,0.2-0.9,0.6-1.2,1
		c-0.3,0.4-0.6,0.9-0.7,1.4c-0.2,0.6-0.3,1.2-0.3,1.8c0,1.5,0.3,2.6,1,3.3c0.7,0.7,1.6,1.1,2.8,1.1C384.9,70.9,385.5,70.8,386,70.6z
		"/>
	<path d="M403.4,70.9c-0.4,0-0.9,0-1.4,0.1c-0.5,0-0.9-0.1-1.2-0.4c-0.3-0.3-0.5-0.7-0.5-1.3c0-0.3,0-0.8-0.1-1.3s0-1.1,0-1.8
		c0-0.6,0-1.3,0-2c0-0.7,0-1.4,0-2c0-0.6,0-1.2,0-1.8c0-0.5,0-1,0-1.3s0.1-0.6,0.2-0.7c0.1-0.1,0.3-0.2,0.7-0.2c0.6,0,1.1,0,1.6-0.1
		c0.5,0,0.9,0,1.4,0s0.9,0,1.3,0s0.9,0,1.4,0c0.1-0.1,0.3-0.1,0.6-0.1c0.6,0,1.1,0,1.6-0.1c0.5,0,1,0,1.4,0c0.5,0,0.9,0,1.4,0
		c0.5,0,0.9,0,1.5,0c0.5,0,0.8,0.4,0.8,1.1c0,0.4-0.1,0.7-0.2,0.9c-0.1,0.2-0.3,0.3-0.7,0.3c-0.7,0.1-1.4,0.1-2.1,0.1
		c-0.7,0-1.4,0.1-2,0.1c0,0.2,0,0.5,0,1c0,0.4,0,0.9-0.1,1.5c0,0.6,0,1.2-0.1,1.8s0,1.2-0.1,1.7s0,1-0.1,1.4c0,0.4,0,0.7,0,0.8
		c0,0.2,0.1,0.3,0.3,0.3c0.4,0,0.7,0,1.1-0.1c0.4,0,0.8,0,1.2-0.1c0.4,0,0.8,0,1.2-0.1c0.4,0,0.7,0,1-0.1c0.3,0,0.6,0,0.7,0.1
		c0.1,0.1,0.2,0.4,0.3,0.8c0,0.4,0,0.7-0.2,0.9c-0.2,0.2-0.4,0.3-0.7,0.3c-0.9,0.1-1.7,0.2-2.6,0.2S409.1,71,408,71
		c-0.5,0-0.9-0.1-1.3-0.4c-0.4,0.1-0.8,0.1-1.1,0.1c-0.3,0-0.7,0.1-1.1,0.1C404.2,70.9,403.9,70.9,403.4,70.9z M406.3,62.3
		c0-0.7,0-1.4,0-2c-0.6,0-1.2,0.1-1.8,0.1c-0.6,0-1.2,0-1.8,0.1c0,0.3,0,0.9,0,1.6c0,0.8,0,1.6,0,2.5c0,0.9,0,1.7,0,2.4
		c0,0.7,0,1.2,0,1.4s0.1,0.3,0.3,0.3c0.6,0,1.1-0.1,1.6-0.1c0.5,0,1.1-0.1,1.5-0.1c0-0.5,0-1.1,0-1.8c0-0.7,0-1.4,0-2.1
		C406.3,63.7,406.3,63,406.3,62.3z M418.9,78.7c0,0.4-0.1,0.6-0.3,0.8c-0.2,0.2-0.4,0.3-0.6,0.3c-0.8,0.1-1.7,0.1-2.7,0.2
		c-1,0.1-1.9,0.1-2.9,0.1c-1,0-1.9,0.1-2.9,0.1c-0.9,0-1.8,0-2.6,0c-0.4,0-0.7-0.1-1-0.4c-0.2-0.3-0.4-0.6-0.4-1.1
		c0-0.5-0.1-1-0.1-1.4c0-0.4,0-0.8-0.1-1.2s0-0.8,0-1.2c0-0.4,0-0.9,0-1.4c0-0.4,0.1-0.7,0.3-0.8c0.2-0.1,0.5-0.2,1-0.3
		c0.5,0,0.8,0,1.1,0.2s0.4,0.4,0.4,0.8c0,0.3,0,0.6,0,1c0,0.4,0,0.8,0,1.2c0,0.4,0,0.8,0,1.1s0,0.7,0,0.9c0,0.2,0.1,0.3,0.3,0.3
		c0.6,0,1.4,0,2.2-0.1c0.8,0,1.7-0.1,2.5-0.1c0.9,0,1.7-0.1,2.5-0.1c0.8,0,1.6,0,2.2,0c0.3,0,0.6,0.1,0.7,0.2S418.9,78.3,418.9,78.7
		z M415.1,62.8c0.4,0,0.7,0,1.1-0.1c0-0.7,0-1.3,0-2c0-0.6,0-1.2,0-1.7c0-0.5,0.1-0.8,0.3-1s0.5-0.3,1-0.3c0.9,0,1.3,0.5,1.3,1.4
		c0,0.6,0,1.2,0,2s0,1.6,0,2.4s0,1.7,0,2.5c0,0.9,0,1.7,0,2.4s0,1.4-0.1,2c0,0.6-0.1,1.1-0.1,1.4c-0.1,0.5-0.2,0.8-0.4,1
		c-0.2,0.2-0.5,0.2-0.9,0.2c-0.4,0-0.6-0.1-0.8-0.3c-0.2-0.2-0.3-0.5-0.3-1c0-0.2,0-0.6,0-1c0-0.4,0-1,0-1.5c0-0.6,0-1.2,0-1.9
		c0-0.7,0-1.4,0-2.1c-0.4,0-0.7,0-1.1,0.1c-0.4,0-0.7,0-1,0c-0.3,0-0.6,0-0.8,0s-0.4,0-0.5,0c-0.4,0-0.6-0.1-0.7-0.3
		c-0.1-0.2-0.2-0.5-0.2-0.9c0-0.8,0.3-1.2,0.9-1.2c0.1,0,0.3,0,0.5,0c0.3,0,0.6,0,0.9-0.1C414.4,62.9,414.8,62.9,415.1,62.8z"/>
	<path d="M434.7,62c0,0.5,0,0.9,0,1.4c1,0.8,1.9,1.5,2.8,2c0.9,0.6,1.7,1.2,2.5,1.7c0.2,0.2,0.4,0.4,0.4,0.7c0.1,0.3,0,0.5-0.2,0.8
		c-0.2,0.3-0.4,0.6-0.6,0.7c-0.2,0.1-0.5,0.1-0.7-0.1c-0.4-0.2-0.8-0.5-1.2-0.8c-0.5-0.3-0.9-0.6-1.4-0.9s-0.9-0.7-1.4-1
		c-0.5-0.3-0.9-0.7-1.3-1c-1,1.1-1.9,2.1-2.7,2.9c-0.8,0.8-1.6,1.5-2.2,2c-0.3,0.2-0.5,0.3-0.8,0.2c-0.3-0.1-0.6-0.2-0.8-0.5
		c-0.2-0.3-0.3-0.5-0.2-0.7c0-0.2,0.2-0.5,0.4-0.7c0.3-0.3,0.7-0.7,1.1-1.2c0.4-0.5,0.9-0.9,1.3-1.4s0.9-0.9,1.3-1.4
		c0.4-0.5,0.8-0.9,1.1-1.2c0-0.9-0.1-1.8-0.1-2.8c-0.1-0.9-0.1-1.8-0.1-2.7c0-0.4,0.1-0.7,0.3-0.9c0.2-0.2,0.6-0.3,1.1-0.4
		c0.6,0,1,0,1.2,0.2c0.2,0.2,0.3,0.5,0.3,0.9c0,0.3,0,0.7,0,1.2s0,0.9,0.1,1.4S434.7,61.6,434.7,62z M444.7,75.7
		c0,1.1-0.1,2.2-0.1,3.2c0,0.4-0.1,0.7-0.2,0.9c-0.1,0.2-0.3,0.3-0.7,0.3c-0.3,0-0.7,0-1.2,0.1c-0.5,0-1.1,0-1.8,0.1
		c-0.7,0-1.4,0-2.1,0.1c-0.7,0-1.4,0-2.1,0.1c-0.7,0-1.3,0-1.8,0c-0.5,0-0.9,0-1.2,0c-0.9,0-1.4-0.5-1.5-1.6c0-0.3-0.1-0.8-0.1-1.3
		c0-0.5-0.1-1.1-0.1-1.6c0-0.6-0.1-1.1-0.1-1.7c0-0.6,0-1,0-1.4c0-0.7,0.3-1.1,1-1.2c0.3,0,0.8,0,1.3-0.1c0.6,0,1.3,0,2-0.1
		c0.7,0,1.5-0.1,2.3-0.1c0.8,0,1.6-0.1,2.3-0.1c0.7,0,1.4,0,2,0c0.6,0,1.1,0,1.4,0c0.3,0,0.4,0.1,0.5,0.2c0.1,0.1,0.2,0.4,0.2,0.6
		C444.8,73.3,444.7,74.5,444.7,75.7z M441.8,77.9c0.2,0,0.3-0.1,0.3-0.4c0-0.3,0-0.6,0-0.9c0-0.3,0-0.7,0-1.1c0-0.4,0-0.7,0-1.1
		s0-0.7,0-1l-7.8,0.3c0,0.3,0,0.7,0,1.1s0,0.8,0,1.2s0,0.8,0,1.1s0,0.6,0.1,0.9L441.8,77.9z M445.3,60.9c0,0.6,0,1.2,0,1.8
		c0.4,0,0.9,0,1.3,0s0.7,0,0.9,0c0.4,0,0.6,0.1,0.8,0.2s0.2,0.4,0.2,0.8c0,0.4-0.1,0.7-0.2,0.9c-0.1,0.2-0.3,0.4-0.6,0.4
		c-0.2,0-0.5,0-1,0c-0.4,0-0.9,0-1.4,0c0,0.8,0,1.6-0.1,2.3c0,0.7-0.1,1.2-0.1,1.7c-0.1,0.5-0.2,0.8-0.4,1c-0.2,0.2-0.5,0.2-0.9,0.2
		c-0.4,0-0.7-0.1-0.9-0.3c-0.2-0.2-0.3-0.5-0.3-1c0-0.4,0-1,0-1.7c0-0.7,0-1.5,0-2.4c0-0.9,0-1.8,0-2.8c0-1,0-2,0-3
		c0-0.5,0.1-0.8,0.3-1c0.2-0.2,0.6-0.3,1.1-0.3c0.9,0,1.3,0.5,1.3,1.4C445.3,59.7,445.3,60.3,445.3,60.9z"/>
	<path d="M459.9,69.2c0,0.4-0.2,0.7-0.4,0.9c-0.2,0.2-0.5,0.2-0.9,0.2c-0.7-0.1-1.1-0.4-1.1-1.1c0-0.2,0-0.5,0-1s0-1,0-1.6
		c0-0.6,0-1.2,0-1.9s0-1.3,0-1.9c0-0.6,0-1.2,0-1.7c0-0.5,0-0.9,0-1.1c-0.6,0-1.3,0.1-2,0.1c-0.7,0-1.4,0-2.1,0s-1.4,0-2.1,0
		s-1.4,0-2,0c-0.6,0-1-0.4-1-1.1c0-0.4,0.1-0.6,0.3-0.8c0.2-0.2,0.4-0.3,0.6-0.3c1.7-0.1,3.4-0.2,5.1-0.2c1.7-0.1,3.4-0.1,5-0.1
		c0.3,0,0.6,0.1,0.7,0.2s0.2,0.4,0.2,0.8s0,0.8,0,1.4s0,1.2,0,1.9s0,1.4,0,2.1c0,0.7,0,1.4-0.1,2.1c0,0.7-0.1,1.3-0.1,1.8
		C460,68.5,459.9,68.9,459.9,69.2z M465.2,79.6c-0.1,0.4-0.2,0.7-0.4,0.9c-0.2,0.2-0.5,0.2-0.9,0.2c-0.4,0-0.6-0.1-0.8-0.3
		c-0.1-0.2-0.2-0.4-0.2-0.8c0-0.3,0-0.7,0-1.2s0-1,0-1.5c0-0.5,0-1.1,0-1.6c0-0.5,0-1,0-1.4c-0.6,0-1.4,0.1-2.3,0.1
		c-0.9,0-1.8,0.1-2.7,0.1c-0.9,0-1.9,0.1-2.8,0.1c-0.9,0-1.7,0-2.3,0c-0.6,0-1-0.4-1-1.1c0-0.4,0.1-0.6,0.3-0.8s0.4-0.3,0.6-0.3
		c0.8-0.1,1.8-0.1,2.8-0.2c1.1-0.1,2.1-0.1,3.2-0.1c1.1,0,2.1-0.1,3.2-0.1c1,0,1.9,0,2.7,0c0.3,0,0.6,0.1,0.7,0.2
		c0.1,0.2,0.2,0.4,0.2,0.8c0,0.5,0,1.1,0,1.7c0,0.6,0,1.2-0.1,1.9c0,0.6-0.1,1.2-0.1,1.8C465.3,78.5,465.2,79.1,465.2,79.6z
		 M466,61.1c0,0.7,0,1.3,0,2.1c0.5,0,1,0,1.4,0c0.5,0,0.8,0,1,0c0.4,0,0.6,0.1,0.8,0.2c0.2,0.2,0.2,0.4,0.2,0.8
		c0,0.4-0.1,0.7-0.2,0.9c-0.1,0.2-0.3,0.4-0.6,0.4c-0.2,0-0.6,0-1.1,0c-0.5,0-1,0-1.5,0c0,0.8,0,1.6-0.1,2.3c0,0.7-0.1,1.3-0.1,1.7
		c-0.1,0.5-0.2,0.8-0.4,1c-0.2,0.2-0.5,0.2-0.9,0.2c-0.4,0-0.7-0.1-0.9-0.3c-0.2-0.2-0.3-0.5-0.3-1c0-0.4,0-1,0-1.8
		c0-0.8,0-1.6,0-2.6c0-0.9,0-1.9,0-3c0-1,0-2.1,0-3c0-0.5,0.1-0.8,0.3-1c0.2-0.2,0.6-0.3,1.1-0.3c0.9,0,1.3,0.5,1.3,1.4
		C466,59.8,466,60.4,466,61.1z"/>
	<path d="M477.4,57.7c0,0.3,0,0.7,0,1.1c1,0,2-0.1,2.9-0.1c0.9,0,1.6-0.1,2.2-0.1c0.3,0,0.6,0,0.7,0.2c0.2,0.1,0.2,0.4,0.3,0.8
		c0,0.4-0.1,0.7-0.2,0.8c-0.2,0.1-0.4,0.2-0.8,0.3c-0.1,0-0.2,0-0.4,0c-0.2,0-0.4,0-0.6,0c-0.2,0-0.4,0-0.6,0s-0.4,0-0.5,0
		c0.3,0.2,0.6,0.4,0.8,0.7c0.2,0.3,0.4,0.6,0.6,1s0.3,0.8,0.3,1.2c0.1,0.4,0.1,0.9,0.1,1.3c0,0.8-0.1,1.5-0.3,2.2
		c-0.2,0.7-0.6,1.3-1.1,1.8c-0.5,0.5-1.1,0.9-1.9,1.2c-0.7,0.3-1.6,0.5-2.6,0.5c-1,0-1.8-0.1-2.6-0.3c-0.7-0.2-1.4-0.6-1.9-1.1
		c-0.5-0.5-0.9-1-1.1-1.7s-0.4-1.4-0.4-2.2c0-0.4,0-0.8,0.1-1.2c0.1-0.4,0.2-0.8,0.4-1.2c0.2-0.4,0.4-0.7,0.6-1
		c0.2-0.3,0.5-0.5,0.8-0.7c-0.2,0-0.4,0-0.6,0c-0.2,0-0.5,0-0.7,0c-0.2,0-0.5,0-0.7,0c-0.2,0-0.4,0-0.5,0c-0.3,0-0.5,0-0.7-0.2
		c-0.2-0.1-0.3-0.4-0.3-0.8c0-0.4,0.1-0.7,0.2-0.9s0.4-0.3,0.7-0.3c0.5,0,1.3-0.1,2.1-0.1c0.9,0,1.8-0.1,2.9-0.1c0-0.4,0-0.7,0-1
		c0-0.3,0-0.6,0-0.8c0-0.4,0.1-0.7,0.2-0.9s0.5-0.3,1.1-0.4c0.6,0,1,0,1.2,0.2c0.2,0.2,0.3,0.5,0.3,0.9
		C477.4,57.1,477.4,57.3,477.4,57.7z M476.3,68.4c1.1,0,2-0.4,2.6-1.1s0.8-1.6,0.8-2.8c0-1.2-0.4-2.1-1-2.7
		c-0.6-0.6-1.4-0.9-2.4-0.9c-0.5,0-1,0.2-1.4,0.4s-0.7,0.5-1,0.8s-0.5,0.8-0.6,1.2c-0.1,0.5-0.2,1-0.2,1.5c0,1.2,0.3,2.1,0.9,2.7
		S475.2,68.5,476.3,68.4z M487.9,78.1c-0.3,0.6-0.7,1.2-1.2,1.7c-0.5,0.5-1.2,0.8-1.9,1.1s-1.6,0.4-2.6,0.5c-2,0.1-3.5-0.3-4.5-1.2
		c-1.1-0.9-1.6-2.2-1.6-3.8c0-0.7,0.1-1.4,0.4-2s0.6-1.2,1.1-1.7c0.5-0.5,1.1-0.9,1.9-1.2c0.7-0.3,1.6-0.5,2.6-0.5
		c0.9-0.1,1.8,0,2.6,0.2c0.8,0.2,1.4,0.5,2,1s1,1,1.2,1.6c0.3,0.6,0.5,1.4,0.5,2.2C488.3,76.7,488.2,77.4,487.9,78.1z M484.7,78.2
		c0.3-0.3,0.6-0.6,0.7-1c0.2-0.4,0.2-0.8,0.2-1.3c0-1-0.4-1.7-1.1-2.2c-0.7-0.5-1.5-0.7-2.5-0.7c-0.5,0-1,0.1-1.5,0.3
		s-0.8,0.4-1.1,0.7s-0.5,0.6-0.7,1c-0.2,0.4-0.2,0.8-0.2,1.2c0,1,0.3,1.7,1,2.2c0.6,0.5,1.5,0.8,2.5,0.7c0.6,0,1.1-0.1,1.5-0.3
		C484,78.8,484.4,78.5,484.7,78.2z M485.7,63.8c-0.5,0-1,0.1-1.4,0.1c-0.4,0-0.7,0-0.8,0c-0.4,0-0.6-0.1-0.7-0.3s-0.2-0.5-0.2-0.9
		c0-0.7,0.3-1.1,0.9-1.1c0.2,0,0.5,0,0.9,0c0.4,0,0.9-0.1,1.4-0.1c0-0.4,0-0.8,0-1.2c0-0.4,0-0.8,0-1.1c0-0.5,0.1-0.8,0.3-1
		s0.6-0.3,1.1-0.3c0.9,0,1.3,0.5,1.3,1.4c0,0.8,0,1.8,0,2.8c0,1,0,2,0,3.1c0,1,0,1.9-0.1,2.8c0,0.8-0.1,1.5-0.1,2
		c0,0.5-0.2,0.8-0.4,1c-0.2,0.2-0.5,0.2-0.9,0.2c-0.4,0-0.7-0.1-0.9-0.3c-0.2-0.2-0.3-0.5-0.3-1c0-0.2,0-0.5,0-0.9s0-0.8,0-1.2
		c-0.5,0-1,0-1.4,0c-0.4,0-0.6,0-0.7,0c-0.4,0-0.6-0.1-0.7-0.3s-0.2-0.5-0.2-0.9c0-0.7,0.3-1.1,0.9-1.1c0.1,0,0.4,0,0.8,0
		c0.4,0,0.9,0,1.4-0.1V63.8z"/>
	<path d="M503.5,66.9c-0.3,0.8-0.8,1.4-1.4,2c-0.6,0.5-1.3,1-2.1,1.3c-0.8,0.3-1.7,0.5-2.6,0.5c-1,0-1.9-0.1-2.7-0.3
		c-0.8-0.3-1.5-0.7-2.1-1.2s-1-1.2-1.3-2c-0.3-0.8-0.5-1.8-0.5-2.8c0-0.9,0.2-1.7,0.5-2.5c0.3-0.8,0.7-1.5,1.3-2.1
		c0.6-0.6,1.3-1.1,2.1-1.4c0.8-0.4,1.7-0.6,2.8-0.6c1,0,1.9,0.1,2.7,0.4c0.8,0.3,1.5,0.8,2.1,1.3c0.6,0.6,1,1.3,1.3,2.1
		c0.3,0.8,0.5,1.7,0.5,2.7C504,65.2,503.9,66.1,503.5,66.9z M498.9,68c0.5-0.2,0.9-0.5,1.3-0.9c0.4-0.4,0.6-0.8,0.8-1.3
		c0.2-0.5,0.3-1.1,0.3-1.7c0-0.7-0.1-1.3-0.3-1.8c-0.2-0.5-0.5-1-0.9-1.3c-0.4-0.4-0.8-0.6-1.3-0.8c-0.5-0.2-1-0.3-1.5-0.2
		c-0.6,0-1.1,0.1-1.6,0.4c-0.5,0.2-0.9,0.5-1.2,0.9c-0.3,0.4-0.6,0.8-0.8,1.4c-0.2,0.5-0.3,1.1-0.3,1.7c0,1.4,0.4,2.4,1.1,3.1
		c0.7,0.7,1.6,1,2.8,1C497.9,68.3,498.4,68.2,498.9,68z M509.9,78.7c0,0.4-0.1,0.6-0.3,0.8c-0.2,0.2-0.4,0.3-0.6,0.3
		c-0.8,0.1-1.7,0.1-2.7,0.2c-1,0.1-1.9,0.1-2.9,0.1c-1,0-1.9,0.1-2.9,0.1c-0.9,0-1.8,0-2.6,0c-0.4,0-0.7-0.1-1-0.4
		c-0.2-0.3-0.4-0.6-0.4-1.1c0-0.5-0.1-1-0.1-1.4s0-0.8,0-1.2c0-0.4,0-0.8,0-1.2c0-0.4,0-0.8,0-1.4c0-0.4,0.1-0.7,0.3-0.8
		c0.2-0.1,0.5-0.2,1-0.3c0.5,0,0.8,0,1.1,0.2c0.2,0.1,0.4,0.4,0.4,0.8c0,0.3,0,0.6,0,1c0,0.4,0,0.8,0,1.1c0,0.4,0,0.7,0,1.1
		c0,0.3,0,0.6,0,0.9c0,0.2,0.1,0.3,0.3,0.3c0.6,0,1.4,0,2.2-0.1c0.8,0,1.7-0.1,2.5-0.1c0.9,0,1.7-0.1,2.5-0.1c0.8,0,1.6,0,2.2,0
		c0.3,0,0.6,0.1,0.7,0.2S509.9,78.3,509.9,78.7z M509.6,71.8c0,0.5-0.2,0.8-0.4,1c-0.2,0.2-0.5,0.2-0.9,0.2c-0.4,0-0.7-0.1-0.9-0.3
		c-0.2-0.2-0.3-0.5-0.3-1c0-0.3,0-0.7,0-1.2c0-0.6,0-1.2,0-1.9c0-0.7,0-1.5,0-2.3s0-1.7,0-2.5c0-0.8,0-1.7,0-2.5c0-0.8,0-1.5,0-2.2
		c0-0.5,0.1-0.8,0.3-1s0.6-0.3,1.1-0.3c0.9,0,1.3,0.5,1.3,1.4c0,0.6,0,1.2,0,2s0,1.5,0,2.4c0,0.8,0,1.7,0,2.5c0,0.8,0,1.6,0,2.4
		s0,1.4-0.1,2C509.7,71,509.7,71.5,509.6,71.8z"/>
	<path d="M520.7,66.2c0,0.6,0,1.1,0,1.5c1,0.8,1.8,1.5,2.7,2.1s1.6,1.2,2.4,1.9c0.2,0.2,0.4,0.4,0.4,0.7c0.1,0.2,0,0.5-0.2,0.8
		c-0.2,0.3-0.4,0.6-0.6,0.7s-0.5,0.1-0.7-0.1c-0.4-0.2-0.7-0.5-1.2-0.8s-0.9-0.6-1.3-1c-0.4-0.3-0.9-0.7-1.3-1.1
		c-0.4-0.4-0.9-0.7-1.2-1c-1,1.1-1.9,2-2.8,2.9c-0.9,0.9-1.6,1.6-2.2,2.1c-0.3,0.2-0.5,0.3-0.8,0.2s-0.6-0.2-0.8-0.5
		c-0.2-0.3-0.3-0.5-0.2-0.7s0.2-0.4,0.4-0.6c0.3-0.4,0.7-0.8,1.2-1.2c0.5-0.5,0.9-0.9,1.4-1.4c0.5-0.5,0.9-1,1.4-1.4
		c0.4-0.5,0.8-0.9,1.1-1.2c0-0.4,0-0.9-0.1-1.5c0-0.6-0.1-1.2-0.1-1.9s0-1.3-0.1-1.9s0-1.2,0-1.7c-1,0.1-1.9,0.1-2.7,0.1
		c-0.8,0-1.5,0.1-2,0.1c-0.3,0-0.5-0.1-0.7-0.2c-0.2-0.2-0.3-0.5-0.3-0.9c0-0.4,0.1-0.7,0.2-0.9s0.4-0.3,0.6-0.3c0.4,0,1,0,1.6-0.1
		c0.7,0,1.4-0.1,2.1-0.1c0.8,0,1.5-0.1,2.4-0.1c0.8,0,1.6-0.1,2.4-0.1c0.8,0,1.5-0.1,2.1-0.1c0.6,0,1.2,0,1.6-0.1
		c0.3,0,0.6,0.1,0.7,0.2c0.2,0.2,0.2,0.5,0.3,0.9c0,0.8-0.3,1.2-1,1.2c-0.5,0-1.1,0.1-1.9,0.1c-0.8,0-1.6,0.1-2.6,0.1
		c0,0.5,0,1,0.1,1.6c0,0.6,0,1.2,0,1.8C520.7,65,520.7,65.6,520.7,66.2z M530.9,76.7c0,0.5-0.2,0.8-0.4,1c-0.2,0.2-0.5,0.3-0.9,0.2
		c-0.4,0-0.6-0.2-0.8-0.4c-0.2-0.2-0.3-0.6-0.3-1.2c0-5.8,0.1-11.5,0.3-17.2c0-0.5,0.1-0.8,0.3-1c0.2-0.2,0.6-0.3,1.1-0.3
		c0.9,0,1.3,0.5,1.3,1.4c0,1.4,0,2.9-0.1,4.4c0,1.5-0.1,3-0.1,4.5c-0.1,1.5-0.1,3-0.2,4.4C531.1,74,531,75.4,530.9,76.7z"/>
</g>
<g>
	<path d="M376.2,106.1c1.1-0.1,2.1-0.1,3.1-0.1c1,0,2-0.1,3-0.1c0.3,0,0.5,0.1,0.7,0.3s0.2,0.5,0.2,0.8c0,0.4-0.1,0.7-0.3,0.9
		c-0.2,0.2-0.4,0.3-0.7,0.3c-2.4,0.2-4.9,0.4-7.4,0.5c-2.5,0.1-5.1,0.2-7.7,0.3c-0.6,0-1-0.4-1-1.2c0-0.4,0.1-0.7,0.2-0.9
		c0.2-0.2,0.4-0.3,0.8-0.3c1.1,0,2.1-0.1,3.1-0.1c1-0.1,2.1-0.1,3.1-0.2v-3.7c-0.6,0-1.2,0-1.7,0s-1,0-1.5,0c-0.5,0-0.8,0-1.2,0
		c-0.3,0-0.6,0-0.7,0c-0.5,0-0.9-0.2-1.1-0.5c-0.3-0.3-0.4-0.7-0.5-1.2c0-0.6-0.1-1.3-0.1-2.2c0-0.9,0-1.8,0-2.7c0-0.9,0-1.8,0-2.7
		c0-0.9,0-1.6,0-2.2c0-0.7,0.3-1.1,1-1.2c0.3,0,0.8,0,1.5-0.1c0.7,0,1.5,0,2.4-0.1c0.9,0,1.9,0,2.9,0c1,0,2,0,2.9,0
		c0.9,0,1.7,0,2.5,0s1.3,0,1.6,0c0.6,0,0.9,0.3,0.9,0.9c0,0.7,0,1.5,0,2.4c0,0.9,0,1.9,0,2.8s0,1.9,0,2.8s0,1.7,0,2.4
		c0,0.5-0.1,0.8-0.2,0.9c-0.1,0.2-0.4,0.3-0.7,0.3c-0.2,0-0.5,0-0.8,0.1c-0.3,0-0.7,0-1.2,0s-1,0-1.5,0s-1.1,0-1.7,0.1V106.1z
		 M379.5,100c0.2,0,0.3-0.1,0.3-0.4c0-0.4,0-1,0-1.6c0-0.6,0-1.3,0-2s0-1.4-0.1-2.1c0-0.7,0-1.3,0-1.8l-10.3,0.2c0,0.5,0,1.1,0,1.9
		c0,0.7,0,1.5,0,2.2s0,1.5,0,2.2c0,0.7,0,1.2,0,1.7L379.5,100z"/>
	<path d="M398.4,104.8c-1,0.1-2.1,0.1-3.1,0.2c0,0.9,0,1.7,0,2.6c0,0.8-0.1,1.6-0.1,2.4c0,0.5-0.2,0.8-0.4,1
		c-0.3,0.2-0.6,0.3-0.9,0.2c-0.4,0-0.6-0.1-0.8-0.3c-0.2-0.2-0.3-0.5-0.3-1c0-0.7,0-1.5,0-2.3s0-1.6,0-2.5c-1,0.1-2.1,0.1-3.1,0.1
		c-1,0-2.1,0.1-3.1,0.1c-0.6,0-1-0.4-1-1.2c0-0.4,0.1-0.7,0.2-0.9c0.2-0.2,0.4-0.3,0.8-0.3c2.7-0.1,5.3-0.2,7.8-0.4
		c2.5-0.1,5-0.2,7.3-0.3c0.3,0,0.5,0.1,0.7,0.3s0.2,0.5,0.2,0.8c0,0.4-0.1,0.7-0.3,0.9c-0.2,0.2-0.4,0.3-0.7,0.3
		C400.4,104.6,399.4,104.7,398.4,104.8z M401.4,99.4c-0.2,0.2-0.4,0.3-0.7,0.3c-0.8,0.1-1.8,0.2-3,0.3s-2.3,0.2-3.5,0.2
		c-1.2,0.1-2.4,0.1-3.5,0.2s-2.1,0.1-2.9,0.1c-0.5,0-0.9-0.1-1.2-0.4c-0.3-0.3-0.5-0.7-0.5-1.3c0-0.5,0-1.2,0-1.9s0-1.6,0-2.4
		c0-0.8,0-1.6,0-2.4s0-1.4,0-1.9c0-0.3,0.1-0.6,0.2-0.8c0.1-0.2,0.3-0.2,0.7-0.2c1.1,0,2.2,0,3.4-0.1c1.2,0,2.4,0,3.5-0.1
		c1.2,0,2.4,0,3.5,0c1.2,0,2.3,0,3.4,0c0.5,0,0.8,0.4,0.8,1.1c0,0.4-0.1,0.7-0.2,0.9c-0.1,0.2-0.3,0.3-0.7,0.3c-0.4,0-0.9,0-1.6,0.1
		c-0.6,0-1.3,0-2,0c-0.7,0-1.5,0-2.3,0c-0.8,0-1.6,0-2.3,0.1c-0.7,0-1.5,0-2.1,0.1c-0.7,0-1.2,0-1.7,0c0,0.3,0,0.7,0,1.3
		s0,1.1,0,1.8c0,0.6,0,1.2,0,1.8c0,0.6,0,1,0,1.4c0,0.2,0.1,0.3,0.3,0.3c0.4,0,1,0,1.6-0.1c0.6,0,1.3-0.1,2-0.1
		c0.7,0,1.5-0.1,2.3-0.1c0.8,0,1.5-0.1,2.2-0.1c0.7,0,1.4-0.1,2-0.1c0.6,0,1.2-0.1,1.6-0.1c0.3,0,0.6,0,0.7,0.2s0.2,0.4,0.3,0.8
		C401.6,98.9,401.6,99.2,401.4,99.4z"/>
	<path d="M417.7,94.3c0,0.6,0,1.1,0,1.5c1,0.6,1.9,1.1,2.8,1.7c0.9,0.5,1.7,1,2.5,1.5c0.6,0.3,0.6,0.8,0.2,1.4
		c-0.2,0.3-0.4,0.5-0.6,0.6c-0.2,0.1-0.4,0.1-0.7-0.1c-0.7-0.4-1.5-0.8-2.4-1.3c-0.9-0.5-1.8-1-2.8-1.6c-0.3,0.4-0.7,0.7-1.1,1.1
		c-0.4,0.4-0.8,0.8-1.2,1.2c-0.4,0.4-0.8,0.8-1.2,1.1c-0.4,0.4-0.7,0.7-1,0.9c-0.3,0.2-0.5,0.3-0.8,0.2c-0.3-0.1-0.6-0.2-0.8-0.5
		c-0.2-0.3-0.3-0.5-0.2-0.7s0.2-0.4,0.4-0.6c0.3-0.3,0.7-0.7,1.1-1.1c0.4-0.4,0.8-0.8,1.2-1.2s0.8-0.8,1.2-1.2s0.7-0.8,1-1.1
		c0-0.4-0.1-1-0.1-1.6c0-0.6,0-1.3,0-2c-1,0.1-1.8,0.1-2.7,0.1c-0.8,0-1.5,0.1-2,0.1c-0.3,0-0.5-0.1-0.7-0.2
		c-0.2-0.2-0.3-0.5-0.3-0.9c0-0.4,0.1-0.7,0.2-0.9c0.2-0.2,0.4-0.3,0.7-0.3c0.5,0,1.2-0.1,2-0.1s1.7-0.1,2.6-0.1c0-0.3,0-0.7,0-0.9
		s0-0.5,0-0.7c0-0.4,0.1-0.7,0.2-0.9c0.2-0.2,0.5-0.3,1.1-0.4c0.6,0,1,0,1.2,0.2c0.2,0.2,0.3,0.5,0.3,0.9c0,0.2,0,0.4,0,0.7
		c0,0.3,0,0.6,0,1c1,0,1.8-0.1,2.7-0.1c0.8,0,1.5-0.1,2-0.1c0.3,0,0.6,0,0.7,0.2c0.2,0.1,0.2,0.4,0.3,0.8c0,0.8-0.3,1.2-1,1.2
		c-0.5,0-1.2,0.1-2,0.1c-0.8,0.1-1.8,0.1-2.7,0.2C417.7,93,417.7,93.7,417.7,94.3z M422.5,109c-0.5-0.3-1-0.5-1.5-0.7
		c-0.9,0.6-1.8,1.1-2.7,1.7c-0.9,0.5-1.8,1-2.7,1.5c-0.6,0.3-1.2,0.3-1.6-0.3c-0.4-0.5-0.3-0.9,0.2-1.2c1-0.6,1.8-1.2,2.7-1.7
		s1.7-1,2.6-1.6c0-0.2,0-0.4,0-0.7c0-0.3,0-0.6,0-0.9c-1.1,0-2,0.1-2.8,0.1s-1.4,0-1.7,0.1c-0.3,0-0.5,0-0.7-0.2s-0.3-0.4-0.3-0.8
		c0-0.4,0.1-0.7,0.2-0.9s0.3-0.3,0.6-0.3c0.3,0,0.7,0,1.4-0.1c0.6,0,1.4-0.1,2.2-0.1s1.7-0.1,2.6-0.1s1.8,0,2.6-0.1
		c0.8,0,1.5,0,2.2-0.1c0.6,0,1.1,0,1.3-0.1c0.3,0,0.5,0,0.7,0.2c0.2,0.1,0.3,0.4,0.3,0.8c0,0.4-0.1,0.7-0.2,0.8
		c-0.2,0.1-0.4,0.2-0.7,0.2c-0.1,0-0.4,0-0.7,0.1c-0.3,0-0.7,0-1.1,0.1s-0.9,0-1.4,0.1c-0.5,0-1,0-1.6,0.1c0,0.2,0,0.5,0,0.7
		c0,0.2,0,0.5,0,0.7c1.1,0.5,2.2,1,3.1,1.5c1,0.5,1.9,0.9,2.8,1.4c0.2,0.1,0.3,0.3,0.4,0.5s0,0.5-0.2,0.8c-0.2,0.3-0.4,0.5-0.6,0.6
		c-0.2,0.1-0.5,0-0.7-0.1c-0.4-0.2-0.9-0.4-1.4-0.6c-0.5-0.2-1-0.5-1.6-0.7C423.5,109.6,423,109.3,422.5,109z M428,92.1
		c0,0.6,0,1.2,0,1.9c0.4,0,0.9,0,1.3,0s0.7,0,0.9,0c0.4,0,0.6,0.1,0.8,0.2s0.2,0.4,0.2,0.8c0,0.4-0.1,0.7-0.2,0.9
		c-0.1,0.2-0.3,0.4-0.6,0.4c-0.2,0-0.5,0-1,0c-0.4,0-0.9,0-1.4,0c0,0.9,0,1.7-0.1,2.4c0,0.7-0.1,1.3-0.1,1.8c-0.1,0.5-0.2,0.8-0.4,1
		c-0.2,0.2-0.5,0.2-0.9,0.2c-0.4,0-0.7-0.1-0.9-0.3c-0.2-0.2-0.3-0.5-0.3-1c0-0.4,0-1,0-1.7c0-0.8,0-1.6,0-2.5c0-0.9,0-1.9,0-3
		c0-1,0-2,0-3c0-0.5,0.1-0.8,0.3-1c0.2-0.2,0.6-0.3,1.1-0.3c0.9,0,1.3,0.5,1.3,1.4C428,90.9,428,91.5,428,92.1z"/>
	<path d="M440.4,104c-0.8,0.3-1.7,0.5-2.7,0.5c-2.1,0.1-3.7-0.5-4.9-1.6c-1.2-1.1-1.8-2.9-1.8-5.1c0-1,0.1-1.8,0.4-2.7
		c0.3-0.8,0.7-1.6,1.3-2.2c0.6-0.6,1.3-1.1,2.1-1.5s1.8-0.6,2.8-0.6c1,0,2,0.1,2.8,0.4c0.8,0.3,1.5,0.8,2.1,1.4
		c0.6,0.6,1,1.3,1.3,2.2s0.5,1.8,0.5,2.9c0,1.1-0.2,2-0.5,2.9s-0.8,1.5-1.4,2.1C442,103.2,441.3,103.7,440.4,104z M439.4,101.8
		c0.5-0.2,0.9-0.5,1.3-0.9c0.4-0.4,0.6-0.9,0.8-1.4s0.3-1.1,0.3-1.8c0-0.7-0.1-1.3-0.3-1.9s-0.5-1-0.8-1.4c-0.4-0.4-0.8-0.7-1.3-0.9
		c-0.5-0.2-1-0.3-1.6-0.3c-0.6,0-1.2,0.1-1.7,0.4c-0.5,0.2-0.9,0.6-1.2,1s-0.6,0.9-0.8,1.4c-0.2,0.6-0.3,1.2-0.3,1.8
		c0,1.5,0.3,2.6,1,3.3c0.7,0.7,1.6,1.1,2.9,1.1C438.3,102.1,438.9,102,439.4,101.8z M449.6,93.6c0,1.1,0,2.2-0.1,3.3
		c0.5,0,0.9,0,1.3,0s0.7,0,0.9,0c0.4,0,0.6,0.1,0.8,0.2s0.2,0.4,0.2,0.8c0,0.4-0.1,0.7-0.2,0.9c-0.1,0.2-0.3,0.4-0.6,0.4
		c-0.2,0-0.5,0-1,0c-0.5,0-1,0-1.5,0c-0.1,1.5-0.1,3-0.2,4.5c-0.1,1.5-0.2,2.9-0.2,4.2c0,0.5-0.2,0.8-0.4,1
		c-0.2,0.2-0.5,0.3-0.9,0.2c-0.4,0-0.6-0.2-0.8-0.4c-0.2-0.2-0.3-0.6-0.3-1.2c0-5.8,0.1-11.5,0.3-17.2c0-0.5,0.1-0.8,0.3-1
		s0.6-0.3,1.1-0.3c0.9,0,1.3,0.5,1.3,1.4C449.6,91.4,449.6,92.5,449.6,93.6z"/>
	<path d="M470.6,97c0,0.7,0,1.4-0.1,2c0.3,0.4,0.6,0.8,0.9,1.1c0.3,0.3,0.6,0.6,0.8,0.9c0.3,0.3,0.5,0.5,0.8,0.8
		c0.3,0.3,0.5,0.5,0.8,0.8c0.2,0.2,0.4,0.5,0.4,0.7c0.1,0.2,0,0.5-0.2,0.8c-0.2,0.3-0.4,0.6-0.6,0.7c-0.2,0.1-0.5,0.1-0.7-0.1
		c-0.5-0.5-1.1-1-1.6-1.5c-0.5-0.5-1.1-1.2-1.8-1.9c-0.6,0.9-1.2,1.8-1.7,2.7s-1.1,1.6-1.7,2.2c-0.2,0.2-0.5,0.4-0.7,0.4
		s-0.5-0.1-0.7-0.3c-0.2-0.2-0.4-0.5-0.4-0.7c0-0.2,0.1-0.5,0.2-0.7c0.5-0.7,1-1.6,1.5-2.4c-0.3-0.3-0.6-0.7-1-1
		c-0.3-0.4-0.6-0.7-0.9-1c-0.6,0.9-1.1,1.7-1.7,2.5c-0.5,0.8-1.1,1.5-1.6,2.1c-0.2,0.2-0.5,0.4-0.7,0.4c-0.3,0-0.5-0.1-0.7-0.3
		c-0.3-0.2-0.4-0.5-0.4-0.7c0-0.3,0.1-0.5,0.2-0.8c0.5-0.8,1.1-1.7,1.6-2.5c0.6-0.8,1.1-1.7,1.6-2.6c0-0.5-0.1-1.1-0.1-1.8
		s-0.1-1.4-0.2-2.1c-0.1-0.7-0.1-1.4-0.2-2.1s-0.1-1.3-0.1-1.8c0-0.4,0.1-0.7,0.3-0.9c0.2-0.2,0.6-0.3,1.1-0.4c0.6,0,1,0,1.2,0.2
		c0.2,0.2,0.3,0.5,0.3,0.9c0,0.5,0.1,1.1,0.1,1.8c0,0.6,0.1,1.3,0.1,2c0,0.7,0.1,1.3,0.1,2c0,0.7,0.1,1.3,0.1,1.8
		c0.3,0.4,0.7,0.8,1,1.2c0.4,0.4,0.7,0.7,1,1.1c0.1-0.2,0.3-0.4,0.4-0.6c0.1-0.2,0.2-0.4,0.3-0.6c0-0.5,0-1.2,0.1-2
		c0-0.8,0-1.6,0.1-2.4s0-1.7,0.1-2.4c0-0.8,0-1.5,0-2c0-0.4,0.1-0.7,0.3-0.9c0.2-0.2,0.5-0.3,1.1-0.4c0.6,0,1,0,1.2,0.2
		c0.2,0.2,0.3,0.5,0.3,0.9c0,0.6,0,1.3-0.1,2.1c0,0.8-0.1,1.5-0.1,2.3C470.6,95.5,470.6,96.2,470.6,97z M475,95.6
		c0.3,0,0.6,0,0.9-0.1c0-0.9,0.1-1.8,0.1-2.6c0-0.8,0.1-1.7,0.1-2.6c0-0.5,0.1-0.8,0.3-1c0.2-0.2,0.6-0.3,1.1-0.3
		c0.9,0,1.3,0.5,1.3,1.4c0,1.4,0,2.9-0.1,4.4c0,1.5-0.1,3-0.1,4.5s-0.1,3-0.2,4.4c-0.1,1.5-0.2,2.8-0.3,4.2c0,0.5-0.2,0.8-0.4,1
		c-0.2,0.2-0.5,0.3-0.9,0.2c-0.4,0-0.6-0.2-0.8-0.4c-0.2-0.2-0.3-0.6-0.3-1.2c0-3.2,0-6.4,0.1-9.6c-0.6,0-1.1,0.1-1.7,0.1
		c-0.5,0-0.9,0-1,0c-0.4,0-0.6-0.1-0.7-0.3c-0.1-0.2-0.2-0.5-0.2-0.9c0-0.8,0.3-1.2,0.9-1.2c0.1,0,0.2,0,0.4,0c0.2,0,0.4,0,0.7,0
		C474.5,95.6,474.7,95.6,475,95.6z"/>
	<path d="M497,106.1c1.1-0.1,2.1-0.1,3.1-0.1c1,0,2-0.1,3-0.1c0.3,0,0.5,0.1,0.7,0.3s0.2,0.5,0.2,0.8c0,0.4-0.1,0.7-0.3,0.9
		c-0.2,0.2-0.4,0.3-0.7,0.3c-2.4,0.2-4.9,0.4-7.4,0.5c-2.5,0.1-5.1,0.2-7.7,0.3c-0.6,0-1-0.4-1-1.2c0-0.4,0.1-0.7,0.2-0.9
		c0.2-0.2,0.4-0.3,0.8-0.3c1.1,0,2.1-0.1,3.1-0.1c1-0.1,2.1-0.1,3.1-0.2v-3.6c-1.1,0-2.1,0.1-2.9,0.1c-0.8,0-1.4,0-1.7,0
		c-0.6,0-1.1-0.1-1.4-0.4c-0.3-0.3-0.5-0.8-0.5-1.6c0-0.6-0.1-1.4-0.1-2.2s-0.1-1.7-0.1-2.6c0-0.9-0.1-1.8-0.1-2.8
		c0-0.9,0-1.8,0-2.7c0-0.3,0.1-0.6,0.3-0.8c0.2-0.2,0.5-0.3,1-0.3c0.5,0,0.9,0.1,1.1,0.2c0.2,0.2,0.3,0.4,0.3,0.8c0,0.6,0,1.3,0,1.9
		s0,1.3,0.1,1.9c1.7-0.1,3.5-0.1,5.3-0.2c1.8-0.1,3.5-0.1,5.3-0.2c0-0.5,0-1,0-1.6c0-0.5,0-1.2,0-1.8c0-0.8,0.5-1.1,1.4-1.1
		c0.5,0,0.8,0.1,1,0.2c0.2,0.2,0.3,0.4,0.3,0.8c0,0.8,0,1.7,0,2.7s0,2-0.1,3c0,1-0.1,2-0.1,3c0,1-0.1,1.9-0.1,2.8
		c0,0.4-0.1,0.6-0.3,0.8c-0.2,0.1-0.5,0.2-0.8,0.3c-0.5,0-1.1,0.1-2.1,0.1c-0.9,0-1.9,0-3,0.1V106.1z M490.3,98.5
		c0,0.6,0,1.3,0.1,1.9c0.2,0,0.5,0,1,0c0.5,0,1.1,0,1.8,0s1.4,0,2.2,0c0.8,0,1.5,0,2.2-0.1c0.7,0,1.3,0,1.8,0c0.5,0,0.8,0,1,0
		c0.1,0,0.2,0,0.3-0.1s0.1-0.2,0.1-0.4c0-0.7,0-1.4,0-2s0-1.1,0-1.7c-1.7,0.1-3.5,0.1-5.3,0.2c-1.8,0.1-3.5,0.1-5.2,0.2
		C490.3,97.1,490.3,97.8,490.3,98.5z"/>
	<path d="M511.8,96.4c0,0.7,0,1.3,0,1.9c0.7,0.8,1.4,1.7,2.1,2.4c0.7,0.8,1.3,1.5,1.9,2.1c0.2,0.2,0.4,0.5,0.4,0.7
		c0.1,0.2,0,0.5-0.2,0.8c-0.2,0.3-0.5,0.5-0.7,0.6c-0.3,0.1-0.5,0-0.7-0.2c-0.7-0.7-1.3-1.3-1.9-2s-1.2-1.4-2-2.2
		c-0.6,1.1-1.2,2-1.8,2.9c-0.6,0.9-1.2,1.7-1.7,2.4c-0.2,0.3-0.5,0.4-0.8,0.3s-0.6-0.3-0.8-0.5c-0.2-0.3-0.3-0.5-0.2-0.7
		s0.2-0.4,0.3-0.7c0.2-0.4,0.5-0.8,0.8-1.3c0.3-0.5,0.6-1,0.9-1.5c0.3-0.5,0.7-1.1,1-1.6c0.3-0.5,0.6-1,0.9-1.5c0-0.5,0-1.1,0-1.8
		s0-1.4-0.1-2.2s-0.1-1.5-0.1-2.2c0-0.7,0-1.3-0.1-1.9c0-0.4,0.1-0.7,0.2-0.9s0.5-0.3,1.1-0.4c0.6,0,1,0,1.2,0.2
		c0.2,0.2,0.3,0.5,0.3,0.9c0,0.6,0,1.3,0,1.9s0,1.4,0.1,2.1C511.8,95,511.8,95.7,511.8,96.4z M516.8,95.2c0.3,0,0.6,0,0.9-0.1
		c0-0.8,0-1.7,0-2.5s0-1.7,0-2.5c0-0.3,0.1-0.6,0.3-0.8c0.2-0.2,0.5-0.2,1-0.2c0.5,0,0.8,0.1,1,0.2c0.2,0.1,0.3,0.4,0.3,0.7
		c0,1.6,0,3.2,0,4.6s0,2.8,0,4.2c0,1.4-0.1,2.8-0.1,4.2c0,1.4-0.1,2.9-0.1,4.6c0,0.4-0.1,0.7-0.3,0.9c-0.2,0.2-0.5,0.3-0.9,0.3
		c-0.7,0-1.1-0.4-1.1-1.2c0-1.7,0-3.4,0-5s0-3.3,0-5c-0.3,0-0.6,0-0.9,0s-0.6,0-0.9,0s-0.5,0-0.7,0s-0.4,0-0.4,0
		c-0.4,0-0.6-0.1-0.7-0.3s-0.2-0.5-0.2-0.9c0-0.8,0.3-1.2,0.9-1.2c0.1,0,0.3,0,0.5,0c0.2,0,0.5,0,0.8,0
		C516.2,95.2,516.5,95.2,516.8,95.2z M525.1,108.1c0,0.8-0.5,1.2-1.2,1.1c-0.7,0-1-0.4-1-1.2c0-1.6,0-3.2,0-4.7c0-1.5,0-2.9,0.1-4.4
		s0.1-2.9,0.1-4.4c0-1.5,0.1-3,0.1-4.6c0-0.3,0.1-0.6,0.3-0.7c0.2-0.2,0.5-0.2,1-0.2c0.5,0,0.8,0.1,1,0.3s0.3,0.4,0.3,0.7
		c0,1.6,0,3.2-0.1,4.7c0,1.5-0.1,2.9-0.1,4.4c0,1.4-0.1,2.9-0.2,4.4C525.3,104.8,525.2,106.4,525.1,108.1z"/>
	<path d="M541.5,105.9c0.5,0,1,0,1.4-0.1s0.9,0,1.4-0.1c0.3,0,0.5,0.1,0.7,0.3s0.2,0.5,0.2,0.8c0,0.4-0.1,0.7-0.3,0.9
		c-0.2,0.2-0.4,0.3-0.7,0.3c-2.4,0.2-4.9,0.4-7.4,0.5c-2.5,0.1-5.1,0.2-7.7,0.3c-0.6,0-1-0.4-1-1.2c0-0.4,0.1-0.7,0.2-0.9
		c0.2-0.2,0.4-0.3,0.8-0.3c0.5,0,0.9,0,1.4-0.1c0.5,0,0.9,0,1.4-0.1l-0.1-4.5c-1-0.6-1.8-1.3-2.4-2.3c-0.6-1-0.9-2.2-0.9-3.6
		c0-1,0.2-1.9,0.6-2.7c0.4-0.8,0.9-1.6,1.6-2.2c0.7-0.6,1.5-1.2,2.4-1.5c1-0.4,2-0.6,3.2-0.6c1.2,0,2.2,0.1,3.2,0.5
		c1,0.3,1.8,0.8,2.5,1.4c0.7,0.6,1.2,1.4,1.6,2.3c0.4,0.9,0.6,1.9,0.6,2.9c0,1.2-0.2,2.3-0.7,3.2c-0.5,0.9-1.2,1.7-2,2.3
		L541.5,105.9z M540.2,99.1c0.5-0.4,0.8-0.9,1.1-1.5s0.4-1.2,0.4-1.8c0-0.7-0.1-1.4-0.4-1.9c-0.3-0.6-0.6-1.1-1.1-1.5
		c-0.5-0.4-1-0.7-1.6-0.9s-1.3-0.3-2-0.3c-0.8,0-1.5,0.2-2.1,0.4c-0.6,0.3-1.2,0.6-1.6,1s-0.8,0.9-1,1.5c-0.2,0.6-0.4,1.2-0.4,1.8
		c0,0.7,0.1,1.4,0.4,1.9s0.6,1,1,1.4c0.4,0.4,1,0.7,1.6,0.9c0.6,0.2,1.3,0.3,2,0.3c0.8,0,1.5-0.1,2.1-0.4
		C539.2,99.9,539.7,99.6,540.2,99.1z M538.9,102.5c-0.7,0.2-1.5,0.3-2.4,0.3c-0.3,0-0.7,0-1,0c-0.3,0-0.6-0.1-0.9-0.1l0.1,3.5
		c0.7,0,1.4-0.1,2.1-0.1c0.7,0,1.4-0.1,2-0.1L538.9,102.5z"/>
	<path d="M550.7,107.7c0,0.5-0.2,0.9-0.5,1.3c-0.3,0.3-0.8,0.5-1.3,0.5c-0.5,0-0.9-0.2-1.2-0.5c-0.3-0.3-0.5-0.8-0.5-1.3
		c0-0.5,0.2-1,0.5-1.3c0.3-0.3,0.7-0.5,1.2-0.5c0.5,0,0.9,0.2,1.3,0.5C550.6,106.8,550.7,107.2,550.7,107.7z"/>
</g>
<g>
	<path style="fill:#FFE74D;" d="M464.7,17.4l2.4-7.5c0,0-8.1-4.1-9.7-1C455.8,11.9,460.5,17.7,464.7,17.4z"/>
	<path style="fill:none;stroke:#000000;stroke-width:1.5;stroke-linecap:round;stroke-linejoin:round;stroke-miterlimit:10;" d="
		M464.7,17.4l2.4-7.5c0,0-8.1-4.1-9.7-1C455.8,11.9,460.5,17.7,464.7,17.4z"/>
	<path style="fill:#FFE74D;" d="M463.7,12.5c-2.3,6.7-4.4,15.5,7.2,18.7c8.9,2.4,14.8-3.7,17.1-10.4c2.3-6.7-2-12-8.7-14.3
		C472.6,4.1,466,5.7,463.7,12.5"/>
	<path style="fill:none;stroke:#000000;stroke-width:1.5;stroke-linecap:round;stroke-linejoin:round;stroke-miterlimit:10;" d="
		M463.7,12.5c-2.3,6.7-4.4,15.5,7.2,18.7c8.9,2.4,14.8-3.7,17.1-10.4c2.3-6.7-2-12-8.7-14.3C472.6,4.1,466,5.7,463.7,12.5z"/>
	
		<polyline style="fill:none;stroke:#000000;stroke-width:1.5;stroke-linecap:round;stroke-linejoin:round;stroke-miterlimit:10;" points="
		484.6,4 480,6.7 478.3,2 	"/>
	<path d="M472.8,13.3c0.2-0.7-0.1-1.4-0.8-1.6s-1.4,0.1-1.6,0.8c-0.2,0.7,0.1,1.4,0.8,1.6C471.9,14.3,472.6,14,472.8,13.3"/>
	<path d="M481.1,16.1c0.2-0.7-0.1-1.4-0.8-1.6c-0.7-0.2-1.4,0.1-1.6,0.8c-0.2,0.7,0.1,1.4,0.8,1.6C480.2,17.2,480.9,16.8,481.1,16.1
		"/>
	<path style="fill:#EA5514;" d="M470.7,17.5c-0.5,1.5,1.4,1.2,3.4,1.9c2,0.7,3.3,2,3.8,0.5c0.5-1.5-0.7-3.3-2.7-3.9
		C473.2,15.3,471.2,16,470.7,17.5"/>
	<path style="fill:none;stroke:#000000;stroke-width:1.5;stroke-linecap:round;stroke-linejoin:round;stroke-miterlimit:10;" d="
		M470.7,17.5c-0.5,1.5,1.4,1.2,3.4,1.9c2,0.7,3.3,2,3.8,0.5c0.5-1.5-0.7-3.3-2.7-3.9C473.2,15.3,471.2,16,470.7,17.5z"/>
	<path style="fill:#EA5514;" d="M476.2,20.7c0.3-1-0.9-0.8-2.2-1.2c-1.3-0.4-2.2-1.3-2.5-0.4c-0.3,1,0.4,2.1,1.7,2.6
		C474.6,22.1,475.9,21.6,476.2,20.7"/>
	<path style="fill:none;stroke:#000000;stroke-width:1.5;stroke-linecap:round;stroke-linejoin:round;stroke-miterlimit:10;" d="
		M476.2,20.7c0.3-1-0.9-0.8-2.2-1.2c-1.3-0.4-2.2-1.3-2.5-0.4c-0.3,1,0.4,2.1,1.7,2.6C474.6,22.1,475.9,21.6,476.2,20.7z"/>
	<path style="fill:#FFE74D;" d="M474.1,24.4c0,0-8.9-2-8,3.5c0.5,3.4,9.5,4.7,13.8-2.1"/>
	<path style="fill:none;stroke:#000000;stroke-width:1.5;stroke-linecap:round;stroke-linejoin:round;stroke-miterlimit:10;" d="
		M474.1,24.4c0,0-8.9-2-8,3.5c0.5,3.4,9.5,4.7,13.8-2.1"/>
</g>
<g>
	<path style="fill:none;stroke:#000000;stroke-width:1.5;stroke-linecap:round;stroke-linejoin:round;stroke-miterlimit:10;" d="
		M64.8,122.5l1.4,2.2 M66.4,117.6l-1.6,4.8l-1.9,1.2 M56.8,123.4l1.4,2.2 M58.4,118.6l-1.6,4.8l-1.9,1.2"/>
	<path style="fill:#FFE74D;" d="M69.6,105.9c0,0,4.4-6.5,6.3-4.6c1.9,1.9-2.2,8.3-5.1,9.9"/>
	<path style="fill:none;stroke:#000000;stroke-width:1.5;stroke-linecap:round;stroke-linejoin:round;stroke-miterlimit:10;" d="
		M69.6,105.9c0,0,4.4-6.5,6.3-4.6c1.9,1.9-2.2,8.3-5.1,9.9"/>
	<path style="fill:#FFE74D;" d="M70.7,102.9c1.6,6.7,2.6,14.7-8.7,17.3c-10.5,2.5-13.9-5-15.5-11.6c-1.6-6.7,3-11.4,9.7-13
		C62.9,94.1,69.1,96.3,70.7,102.9"/>
	<path style="fill:none;stroke:#000000;stroke-width:1.5;stroke-linecap:round;stroke-linejoin:round;stroke-miterlimit:10;" d="
		M70.7,102.9c1.6,6.7,2.6,14.7-8.7,17.3c-10.5,2.5-13.9-5-15.5-11.6c-1.6-6.7,3-11.4,9.7-13C62.9,94.1,69.1,96.3,70.7,102.9z"/>
	
		<polyline style="fill:none;stroke:#000000;stroke-width:1.5;stroke-linecap:round;stroke-linejoin:round;stroke-miterlimit:10;" points="
		51.3,92.8 55.5,95.9 57.6,91.5 	"/>
	<path style="fill:#EA5514;" d="M67.3,108.3c0.3,1.5-1.4,1.1-3.4,1.5c-2,0.5-3.4,1.7-3.7,0.2c-0.4-1.5,1-3.1,2.9-3.5
		C65,106,66.9,106.8,67.3,108.3"/>
	<path style="fill:none;stroke:#000000;stroke-width:1.5;stroke-linecap:round;stroke-linejoin:round;stroke-miterlimit:10;" d="
		M67.3,108.3c0.3,1.5-1.4,1.1-3.4,1.5c-2,0.5-3.4,1.7-3.7,0.2c-0.4-1.5,1-3.1,2.9-3.5C65,106,66.9,106.8,67.3,108.3z"/>
	<path style="fill:#EA5514;" d="M61.6,110.9c-0.2-1,0.9-0.7,2.2-1c1.3-0.3,2.2-1.1,2.4-0.1c0.2,1-0.6,2-1.9,2.3
		C63.1,112.4,61.9,111.8,61.6,110.9"/>
	<path style="fill:none;stroke:#000000;stroke-width:1.5;stroke-linecap:round;stroke-linejoin:round;stroke-miterlimit:10;" d="
		M61.6,110.9c-0.2-1,0.9-0.7,2.2-1c1.3-0.3,2.2-1.1,2.4-0.1c0.2,1-0.6,2-1.9,2.3C63.1,112.4,61.9,111.8,61.6,110.9z"/>
	<path style="fill:#FFE74D;" d="M53.3,112.4c0,0,4.4-6.5,6.3-4.6c1.9,1.9-0.1,6.3-3,7.8"/>
	<path style="fill:none;stroke:#000000;stroke-width:1.5;stroke-linecap:round;stroke-linejoin:round;stroke-miterlimit:10;" d="
		M53.3,112.4c0,0,4.4-6.5,6.3-4.6c1.9,1.9-0.1,6.3-3,7.8"/>
	<path style="fill:#FFE200;" d="M60,105.5c0,0-1.4-0.8-2.1-0.5"/>
	<path style="fill:none;stroke:#000000;stroke-width:1.5;stroke-linecap:round;stroke-linejoin:round;stroke-miterlimit:10;" d="
		M60,105.5c0,0-1.4-0.8-2.1-0.5"/>
	<path style="fill:#FFE200;" d="M65,104.3c0,0,0-0.9,1-1.3"/>
	<path style="fill:none;stroke:#000000;stroke-width:1.5;stroke-linecap:round;stroke-linejoin:round;stroke-miterlimit:10;" d="
		M65,104.3c0,0,0-0.9,1-1.3"/>
	<path style="fill:none;stroke:#000000;stroke-width:1.5;stroke-linecap:round;stroke-linejoin:round;stroke-miterlimit:10;" d="
		M40.6,117.9c0.5,1.1,1.5,1.7,2.6,1.9 M43.1,112.4c-0.3,2.1,0.9,3.3,2.3,4.7"/>
</g>
<g>
	<path style="fill:#FFE74D;" d="M840.2,112.8c0,0-8.4-4.3-10.5-1.7c-2.1,2.6,5,7.1,8.9,7.5"/>
	<path style="fill:none;stroke:#000000;stroke-width:1.5;stroke-linecap:round;stroke-linejoin:round;stroke-miterlimit:10;" d="
		M840.2,112.8c0,0-8.4-4.3-10.5-1.7c-2.1,2.6,5,7.1,8.9,7.5"/>
	<path style="fill:#FFE74D;" d="M859.6,114.1c0,0,8-4.2,9-1c1,3.1-4.9,6.1-8.2,6.9"/>
	<path style="fill:none;stroke:#000000;stroke-width:1.5;stroke-linecap:round;stroke-linejoin:round;stroke-miterlimit:10;" d="
		M859.6,114.1c0,0,8-4.2,9-1c1,3.1-4.9,6.1-8.2,6.9"/>
	<path style="fill:#FFE74D;" d="M861.9,111c0,6.8-0.8,14.7-12.3,14.7c-10.6,0-12.3-7.9-12.3-14.7c0-6.8,5.5-10.3,12.3-10.3
		C856.4,100.7,861.9,104.2,861.9,111"/>
	<path style="fill:none;stroke:#000000;stroke-width:1.5;stroke-linecap:round;stroke-linejoin:round;stroke-miterlimit:10;" d="
		M861.9,111c0,6.8-0.8,14.7-12.3,14.7c-10.6,0-12.3-7.9-12.3-14.7c0-6.8,5.5-10.3,12.3-10.3C856.4,100.7,861.9,104.2,861.9,111z"/>
	
		<polyline style="fill:none;stroke:#000000;stroke-width:1.5;stroke-linecap:round;stroke-linejoin:round;stroke-miterlimit:10;" points="
		845.6,96.9 848.9,100.7 851.9,97 	"/>
	<path d="M852.8,111c0-0.7,0.5-1.2,1.2-1.2c0.7,0,1.2,0.5,1.2,1.2c0,0.7-0.5,1.2-1.2,1.2C853.3,112.2,852.8,111.6,852.8,111"/>
	<path d="M844.4,111c0-0.7,0.5-1.2,1.2-1.2c0.7,0,1.2,0.5,1.2,1.2c0,0.7-0.5,1.2-1.2,1.2C845,112.2,844.4,111.6,844.4,111"/>
	<path style="fill:#EA5514;" d="M853.4,115.3c0,1.5-1.6,0.7-3.6,0.7c-2,0-3.6,0.8-3.6-0.7c0-1.5,1.6-2.7,3.6-2.7
		C851.8,112.6,853.4,113.8,853.4,115.3"/>
	<path style="fill:none;stroke:#000000;stroke-width:1.5;stroke-linecap:round;stroke-linejoin:round;stroke-miterlimit:10;" d="
		M853.4,115.3c0,1.5-1.6,0.7-3.6,0.7c-2,0-3.6,0.8-3.6-0.7c0-1.5,1.6-2.7,3.6-2.7C851.8,112.6,853.4,113.8,853.4,115.3z"/>
	<path style="fill:#EA5514;" d="M847.5,116.5c0-1,1.1-0.4,2.4-0.4c1.3,0,2.4-0.5,2.4,0.4c0,1-1.1,1.8-2.4,1.8
		C848.5,118.3,847.5,117.5,847.5,116.5"/>
	<path style="fill:none;stroke:#000000;stroke-width:1.5;stroke-linecap:round;stroke-linejoin:round;stroke-miterlimit:10;" d="
		M847.5,116.5c0-1,1.1-0.4,2.4-0.4c1.3,0,2.4-0.5,2.4,0.4c0,1-1.1,1.8-2.4,1.8C848.5,118.3,847.5,117.5,847.5,116.5z"/>
	<path style="fill:#FFE74D;" d="M846.8,123.5c0,1.7-0.8,3.1-1.8,3.1c-1,0-1.8-1.4-1.8-3.1c0-1.7,0.8-3.1,1.8-3.1
		C846,120.4,846.8,121.8,846.8,123.5"/>
	<path style="fill:none;stroke:#000000;stroke-width:1.5;stroke-linecap:round;stroke-linejoin:round;stroke-miterlimit:10;" d="
		M846.8,123.5c0,1.7-0.8,3.1-1.8,3.1c-1,0-1.8-1.4-1.8-3.1c0-1.7,0.8-3.1,1.8-3.1C846,120.4,846.8,121.8,846.8,123.5z"/>
	<path style="fill:#FFE74D;" d="M856,123.5c0,1.7-0.8,3.1-1.8,3.1c-1,0-1.8-1.4-1.8-3.1c0-1.7,0.8-3.1,1.8-3.1
		C855.2,120.4,856,121.8,856,123.5"/>
	<path style="fill:none;stroke:#000000;stroke-width:1.5;stroke-linecap:round;stroke-linejoin:round;stroke-miterlimit:10;" d="
		M856,123.5c0,1.7-0.8,3.1-1.8,3.1c-1,0-1.8-1.4-1.8-3.1c0-1.7,0.8-3.1,1.8-3.1C855.2,120.4,856,121.8,856,123.5z"/>
</g>
</svg>
