<?xml version="1.0" encoding="utf-8"?>
<!-- Generator: Adobe Illustrator 23.0.0, SVG Export Plug-In . SVG Version: 6.00 Build 0)  -->
<svg version="1.1" id="Layer_4" xmlns="http://www.w3.org/2000/svg" xmlns:xlink="http://www.w3.org/1999/xlink" x="0px" y="0px"
	 width="1000px" height="286px" viewBox="0 0 1000 286" style="enable-background:new 0 0 1000 286;" xml:space="preserve">
<g>
	<g>
		<g>
			<path style="fill:#FFFFFF;" d="M190.7,264.1c-11.1,0-20.2-9-20.2-20.2v-9c0-11.1,9-20.2,20.2-20.2h63.4c11.1,0,20.2,9,20.2,20.2
				v9c0,11.1-9,20.2-20.2,20.2L190.7,264.1L190.7,264.1z"/>
			<g>
				<path style="fill:#F5B3BA;" d="M254.1,215.8c10.6,0,19.2,8.6,19.2,19.2v9c0,10.6-8.6,19.2-19.2,19.2h-63.4
					c-10.6,0-19.2-8.6-19.2-19.2v-9c0-10.6,8.6-19.2,19.2-19.2H254.1 M254.1,213.9h-63.4c-11.7,0-21.1,9.4-21.1,21.1v9
					c0,11.7,9.4,21.1,21.1,21.1h63.4c11.7,0,21.1-9.4,21.1-21.1v-9C275.2,223.3,265.7,213.9,254.1,213.9L254.1,213.9z"/>
			</g>
		</g>
		<g>
			<path style="fill:#E6286E;" d="M203.2,229.3c1.9,0,3.4,0.7,4.2,2.1c0.9,1.4,1.4,3.4,1.4,6.2c0,2.7-0.5,4.7-1.4,6.2
				c-0.9,1.4-2.3,2.1-4.2,2.1c-1.9,0-3.4-0.7-4.2-2.1c-0.9-1.4-1.4-3.4-1.4-6.2c0-2.7,0.5-4.7,1.4-6.2
				C199.8,229.9,201.3,229.3,203.2,229.3z M203.2,231.1c-1.3,0-2.2,0.6-2.8,1.6c-0.6,1.1-0.8,2.6-0.8,4.7s0.2,3.6,0.8,4.7
				s1.4,1.6,2.8,1.6c1.3,0,2.2-0.6,2.8-1.6c0.6-1.1,0.8-2.6,0.8-4.7s-0.2-3.6-0.8-4.7C205.4,231.7,204.5,231.1,203.2,231.1z
				 M213.4,227.8c0.2,0,0.5,0.1,0.6,0.2c0.2,0.2,0.3,0.3,0.3,0.6v21.5c0,0.3-0.1,0.5-0.3,0.6c-0.2,0.2-0.4,0.2-0.6,0.2
				s-0.5-0.1-0.7-0.2c-0.2-0.2-0.3-0.3-0.3-0.6v-8.6h-5.1v-1.8h5.1v-4.5h-5.1v-1.8h5.1v-4.8c0-0.3,0.1-0.5,0.3-0.6
				S213.2,227.8,213.4,227.8z M218.5,227.5c0.2,0,0.5,0.1,0.7,0.2c0.2,0.2,0.3,0.3,0.3,0.6v23c0,0.3-0.1,0.5-0.3,0.6
				c-0.2,0.2-0.4,0.2-0.7,0.2c-0.2,0-0.5-0.1-0.6-0.2c-0.2-0.2-0.3-0.3-0.3-0.6v-23c0-0.3,0.1-0.5,0.3-0.6
				C218,227.5,218.2,227.5,218.5,227.5z"/>
			<path style="fill:#E6286E;" d="M235.7,229.4c0.3,0.2,0.4,0.8,0.4,1.5v2.2c0,0.7-0.1,1.3-0.2,1.8s-0.3,1-0.6,1.5
				c-0.3,0.5-0.6,0.9-1.2,1.4c-0.5,0.4-1.1,0.9-1.9,1.4c-0.8,0.5-1.7,1-2.8,1.5s-2.3,1.2-3.8,1.8c-0.2,0.1-0.5,0.1-0.7,0
				s-0.4-0.2-0.6-0.5c-0.1-0.2-0.2-0.5-0.2-0.7s0.2-0.5,0.5-0.6c2.1-1,3.7-1.8,5-2.4c1.2-0.6,2.2-1.2,2.8-1.8c0.6-0.6,1-1,1.3-1.6
				c0.2-0.6,0.3-1.2,0.3-1.9v-1.6c0-0.4-0.2-0.6-0.6-0.6h-8.2c-0.2,0-0.5-0.1-0.6-0.2c-0.1-0.2-0.2-0.4-0.2-0.6s0.1-0.5,0.2-0.6
				c0.1-0.2,0.3-0.2,0.6-0.2h8.8C234.9,229,235.4,229.1,235.7,229.4z M243.2,244.8c0.3,0.2,0.4,0.8,0.4,1.5v6.9
				c0,0.3-0.1,0.6-0.3,0.6c-0.2,0.2-0.5,0.2-0.7,0.2s-0.5-0.1-0.7-0.2c-0.2-0.2-0.3-0.3-0.3-0.6v-6.5c0-0.3-0.2-0.5-0.6-0.5h-13.2
				c-0.2,0-0.4-0.1-0.6-0.2c-0.1-0.2-0.2-0.4-0.2-0.6s0.1-0.5,0.2-0.6c0.1-0.2,0.3-0.2,0.6-0.2h13.8
				C242.3,244.4,242.9,244.5,243.2,244.8z M242.6,227.5c0.2,0,0.5,0.1,0.7,0.2c0.2,0.2,0.3,0.3,0.3,0.6v5.5h3.7
				c0.2,0,0.5,0.1,0.6,0.2c0.1,0.2,0.2,0.4,0.2,0.6s-0.1,0.5-0.2,0.6c-0.1,0.2-0.3,0.2-0.6,0.2h-3.7v6.2c0,0.3-0.1,0.6-0.3,0.6
				c-0.2,0.2-0.5,0.2-0.7,0.2s-0.5-0.1-0.7-0.2c-0.2-0.2-0.3-0.3-0.3-0.6v-13.7c0-0.3,0.1-0.6,0.3-0.6
				C242,227.5,242.2,227.5,242.6,227.5z"/>
		</g>
	</g>
	<g>
		<polyline style="fill:none;stroke:#315F97;stroke-width:2;stroke-miterlimit:10;stroke-dasharray:4,4;" points="209.6,4 
			209.6,193.3 4,193.3 		"/>
		<polyline style="fill:none;stroke:#000000;stroke-width:2;stroke-miterlimit:10;" points="367.1,8.6 209.6,193.3 451.9,193.3 		
			"/>
		<path style="fill:none;stroke:#EF319B;stroke-width:2;stroke-miterlimit:10;" d="M236.8,161.4c0,0,19.2,7.4,16.2,31.8"/>
	</g>
</g>
</svg>
