
<svg xmlns="http://www.w3.org/2000/svg" version="1.1" xmlns:xlink="http://www.w3.org/1999/xlink" preserveAspectRatio="none" x="0px" y="0px" width="1280px" height="720px" viewBox="0 0 1280 720">
<defs>
<g id="Layer0_0_FILL">
<path fill="#1E1E1E" stroke="none" d="
M 1119.3 618.55
Q 1119.35 618.35 1119.3 618.05 1119.3 617.8 1118.8 617.8
L 1114.9 617.8
Q 1114.45 617.8 1114.3 618 1114.15 618.25 1114.05 618.45
L 1112.1 625.75
Q 1112 625.95 1112.15 626.1 1112.25 626.25 1112.45 626.25
L 1115.65 626.25
Q 1115.9 626.25 1116.2 626.15 1116.4 626.05 1116.55 625.75
L 1119.3 618.55
M 472.15 590.35
Q 473.05 591.25 474.35 591.25 475.6 591.25 476.5 590.35 477.35 589.45 477.35 588.2 477.35 587.05 476.5 586.15 475.6 585.25 474.35 585.25 473.05 585.25 472.15 586.15 471.25 587.05 471.25 588.2 471.25 589.45 472.15 590.35
M 474.35 567.05
Q 473.05 567.05 472.15 567.95 471.25 568.85 471.25 570.1 471.25 571.25 472.15 572.15 473.05 573.05 474.35 573.05 475.6 573.05 476.5 572.15 477.35 571.25 477.35 570.1 477.35 568.85 476.5 567.95 475.6 567.05 474.35 567.05
M 472.15 515.15
Q 471.25 516.05 471.25 517.2 471.25 518.45 472.15 519.35 473.05 520.25 474.35 520.25 475.6 520.25 476.5 519.35 477.35 518.45 477.35 517.2 477.35 516.05 476.5 515.15 475.6 514.25 474.35 514.25 473.05 514.25 472.15 515.15
M 476.5 501.15
Q 477.35 500.25 477.35 499.1 477.35 497.85 476.5 496.95 475.6 496.05 474.35 496.05 473.05 496.05 472.15 496.95 471.25 497.85 471.25 499.1 471.25 500.25 472.15 501.15 473.05 502.05 474.35 502.05 475.6 502.05 476.5 501.15
M 474.35 443.25
Q 473.05 443.25 472.15 444.15 471.25 445.05 471.25 446.2 471.25 447.45 472.15 448.35 473.05 449.25 474.35 449.25 475.6 449.25 476.5 448.35 477.35 447.45 477.35 446.2 477.35 445.05 476.5 444.15 475.6 443.25 474.35 443.25
M 477.35 428.1
Q 477.35 426.85 476.5 425.95 475.6 425.05 474.35 425.05 473.05 425.05 472.15 425.95 471.25 426.85 471.25 428.1 471.25 429.25 472.15 430.15 473.05 431.05 474.35 431.05 475.6 431.05 476.5 430.15 477.35 429.25 477.35 428.1
M 606.85 585.65
Q 606.65 585.8 606.65 586.05
L 606.65 594.7
Q 606.65 596.25 607.3 596.9 607.9 597.55 609.75 597.55
L 631.75 597.55
Q 631.95 597.55 632.15 597.4 632.35 597.3 632.35 597.05
L 632.35 594.2
Q 632.35 594 632.15 593.85 631.95 593.7 631.75 593.7
L 612 593.7
Q 611.6 593.7 611.45 593.6 611.25 593.5 611.25 593.05
L 611.25 586.05
Q 611.25 585.8 611.1 585.65 610.9 585.45 610.65 585.45
L 607.25 585.45
Q 607 585.45 606.85 585.65
M 601.45 578.85
Q 600.85 578.85 600.85 579.4
L 600.85 582.05
Q 600.85 582.25 601 582.45 601.15 582.7 601.45 582.7
L 636.2 582.7
Q 636.45 582.7 636.6 582.45 636.8 582.25 636.8 582.05
L 636.8 579.4
Q 636.8 579.2 636.6 579 636.45 578.85 636.2 578.85
L 601.45 578.85
M 584.85 579.2
Q 584.2 577.7 583.05 576.65 581.85 575.6 580.2 575 578.55 574.45 576.6 574.45 574.65 574.45 573.05 575 571.45 575.65 570.25 576.7 569.05 577.75 568.4 579.2 567.75 580.7 567.75 582.45 567.75 584.3 568.4 585.8 569.05 587.3 570.2 588.45 571.4 589.55 573 590.2 574.65 590.8 576.6 590.8 578.55 590.8 580.2 590.15 581.8 589.5 583 588.4 584.2 587.3 584.85 585.8 585.5 584.3 585.5 582.45 585.5 580.65 584.85 579.2
M 573.35 579.35
Q 574.6 578.05 576.6 578.05 578.75 578.05 579.95 579.35 581.15 580.6 581.15 582.6 581.15 584.55 579.95 585.8 578.75 587.1 576.6 587.1 574.6 587.1 573.35 585.8 572.15 584.55 572.15 582.6 572.15 580.6 573.35 579.35
M 570.2 565.45
Q 570.2 565.75 570.4 565.9 570.6 566.1 570.8 566.1
L 582 566.1
Q 582.3 566.1 582.5 565.85 582.65 565.65 582.65 565.45
L 582.65 562.85
Q 582.65 562.65 582.45 562.4 582.25 562.25 582 562.25
L 570.8 562.25
Q 570.6 562.25 570.4 562.4 570.2 562.55 570.2 562.85
L 570.2 565.45
M 606.95 561.4
Q 606.8 561.6 606.8 561.8
L 606.8 571.85
Q 606.8 573.4 607.4 574.05 608.05 574.7 609.85 574.7
L 631.3 574.7
Q 631.5 574.7 631.7 574.6 631.85 574.45 631.85 574.2
L 631.85 571.35
Q 631.85 571.15 631.7 571 631.5 570.85 631.3 570.85
L 612.2 570.85
Q 611.75 570.85 611.6 570.75 611.45 570.65 611.45 570.25
L 611.45 561.8
Q 611.45 561.6 611.25 561.4 611.05 561.25 610.8 561.25
L 607.35 561.25
Q 607.15 561.25 606.95 561.4
M 590.55 560.5
Q 590 560.5 590 561.05
L 590 597.95
Q 590 598.5 590.55 598.5
L 594.1 598.5
Q 594.65 598.5 594.65 597.95
L 594.65 579.45 600 579.45
Q 600.25 579.45 600.45 579.3 600.6 579.1 600.6 578.9
L 600.6 576.1
Q 600.6 575.85 600.45 575.7 600.25 575.6 600 575.6
L 594.65 575.6 594.65 561.05
Q 594.65 560.5 594.1 560.5
L 590.55 560.5
M 583.05 505.65
Q 581.85 504.6 580.2 504 578.55 503.45 576.6 503.45 574.65 503.45 573.05 504 571.45 504.65 570.25 505.7 569.05 506.75 568.4 508.2 567.75 509.7 567.75 511.45 567.75 513.3 568.4 514.8 569.05 516.3 570.2 517.45 571.4 518.55 573 519.2 574.65 519.8 576.6 519.8 578.55 519.8 580.2 519.15 581.8 518.5 583 517.4 584.2 516.3 584.85 514.8 585.5 513.3 585.5 511.45 585.5 509.65 584.85 508.2 584.2 506.7 583.05 505.65
M 573.35 514.8
Q 572.15 513.55 572.15 511.6 572.15 509.6 573.35 508.35 574.6 507.05 576.6 507.05 578.75 507.05 579.95 508.35 581.15 509.6 581.15 511.6 581.15 513.55 579.95 514.8 578.75 516.1 576.6 516.1 574.6 516.1 573.35 514.8
M 611.1 514.65
Q 610.9 514.45 610.65 514.45
L 607.25 514.45
Q 607 514.45 606.85 514.65 606.65 514.8 606.65 515.05
L 606.65 523.7
Q 606.65 525.25 607.3 525.9 607.9 526.55 609.75 526.55
L 631.75 526.55
Q 631.95 526.55 632.15 526.4 632.35 526.3 632.35 526.05
L 632.35 523.2
Q 632.35 523 632.15 522.85 631.95 522.7 631.75 522.7
L 612 522.7
Q 611.6 522.7 611.45 522.6 611.25 522.5 611.25 522.05
L 611.25 515.05
Q 611.25 514.8 611.1 514.65
M 636.8 511.05
L 636.8 508.4
Q 636.8 508.2 636.6 508 636.45 507.85 636.2 507.85
L 601.45 507.85
Q 600.85 507.85 600.85 508.4
L 600.85 511.05
Q 600.85 511.25 601 511.45 601.15 511.7 601.45 511.7
L 636.2 511.7
Q 636.45 511.7 636.6 511.45 636.8 511.25 636.8 511.05
M 534.8 563.85
Q 533 564.8 531.7 566.5 530.45 568.2 529.8 570.65 529.1 573.05 529.1 576.1 529.1 579 529.8 581.4 530.45 583.8 531.7 585.5 533 587.25 534.8 588.15 536.65 589.1 538.95 589.1 541.25 589.1 543.1 588.2 544.9 587.25 546.2 585.55 547.45 583.85 548.15 581.4 548.8 579 548.8 576 548.8 573 548.15 570.55 547.45 568.15 546.2 566.45 544.9 564.75 543.1 563.85 541.25 562.9 538.95 562.9 536.65 562.9 534.8 563.85
M 538.95 567
Q 540.2 567 541.25 567.7 542.2 568.45 542.9 569.65 543.6 570.85 543.95 572.5 544.3 574.15 544.3 576 544.3 577.8 543.95 579.45 543.6 581.1 542.9 582.3 542.2 583.55 541.25 584.3 540.2 585 538.95 585 537.7 585 536.7 584.3 535.75 583.55 535.05 582.3 534.35 581.1 534 579.45 533.65 577.8 533.65 576 533.65 574.15 534 572.5 534.35 570.85 535.05 569.65 535.75 568.45 536.7 567.7 537.7 567 538.95 567
M 565.5 568.75
Q 565.25 568.75 565.05 568.95 564.8 569.15 564.8 569.35
L 564.8 571.8
Q 564.8 572.05 565.05 572.25 565.25 572.45 565.5 572.45
L 587.2 572.45
Q 587.4 572.45 587.6 572.25 587.75 572.05 587.75 571.85
L 587.75 569.35
Q 587.75 569.1 587.6 568.95 587.4 568.75 587.2 568.75
L 565.5 568.75
M 553.75 560.5
Q 553.2 560.5 553.2 561.05
L 553.2 597.95
Q 553.2 598.5 553.75 598.5
L 557.25 598.5
Q 557.45 598.5 557.65 598.3 557.85 598.2 557.85 597.95
L 557.85 579 563.2 579
Q 563.4 579 563.6 578.85 563.8 578.65 563.8 578.45
L 563.8 575.65
Q 563.8 575.45 563.6 575.3 563.4 575.15 563.2 575.15
L 557.85 575.15 557.85 561.05
Q 557.85 560.8 557.65 560.65 557.45 560.5 557.25 560.5
L 553.75 560.5
M 504.7 590.65
Q 503 591 501.7 591.6 500.45 592.25 499.75 593.1 499.05 594 499.05 595.1 499.05 596.25 499.75 597.15 500.45 598.05 501.7 598.65 503 599.3 504.7 599.65 506.4 600 508.45 600 510.5 600 512.2 599.65 513.95 599.3 515.2 598.65 516.4 598.05 517.1 597.15 517.85 596.25 517.85 595.1 517.85 594 517.1 593.1 516.4 592.25 515.2 591.6 513.95 591 512.2 590.65 510.5 590.3 508.45 590.3 506.4 590.3 504.7 590.65
M 506.7 593.5
Q 507.55 593.35 508.45 593.35 509.35 593.35 510.15 593.5 511 593.6 511.6 593.85 512.25 594.05 512.65 594.4 513 594.7 513 595.1 513 595.55 512.65 595.85 512.25 596.2 511.6 596.4 511 596.6 510.15 596.75 509.35 596.9 508.45 596.9 507.55 596.9 506.7 596.75 505.9 596.6 505.25 596.4 504.6 596.2 504.25 595.85 503.85 595.55 503.85 595.1 503.85 594.7 504.25 594.4 504.6 594.05 505.25 593.85 505.9 593.6 506.7 593.5
M 496.05 585.8
Q 495.8 585.8 495.6 586 495.4 586.2 495.4 586.4
L 495.4 588.5
Q 495.4 588.7 495.6 588.9 495.75 589.1 496 589.1
L 520.85 589.1
Q 521.1 589.1 521.3 588.95 521.45 588.75 521.45 588.5
L 521.45 586.4
Q 521.45 586.15 521.3 586 521.1 585.8 520.85 585.8
L 496.05 585.8
M 502.65 580.85
Q 502.45 580.85 502.25 581.05 502 581.2 502 581.5
L 502 583.75
Q 502 584.05 502.25 584.2 502.45 584.35 502.65 584.35
L 514.25 584.35
Q 514.55 584.35 514.7 584.15 514.9 583.95 514.9 583.7
L 514.9 581.55
Q 514.9 581.25 514.7 581.1 514.5 580.85 514.25 580.85
L 502.65 580.85
M 506.2 572.2
L 506.2 575.35 491.05 575.35
Q 490.75 575.35 490.6 575.55 490.45 575.7 490.45 575.95
L 490.45 578.3
Q 490.45 578.5 490.6 578.7 490.75 578.9 491.05 578.9
L 525.8 578.9
Q 526.05 578.9 526.2 578.7 526.4 578.5 526.4 578.3
L 526.4 575.95
Q 526.4 575.75 526.15 575.55 525.85 575.35 525.65 575.35
L 510.8 575.35 510.8 572.2
Q 510.8 571.6 510.25 571.6
L 506.8 571.6
Q 506.2 571.6 506.2 572.2
M 516.2 567.95
Q 514.95 567.75 514 567.5 515.25 566.85 516.25 566.2 517.2 565.6 517.9 564.95 518.25 564.6 518.8 563.95 519.3 563.35 519.3 562.45 519.3 561.55 518.3 561.1 517.3 560.65 515.75 560.65
L 497 560.65
Q 496.5 560.65 496.5 561.2
L 496.5 563.65
Q 496.5 564.15 497 564.15
L 511.25 564.15
Q 511.95 564.15 511.85 564.4 511.75 564.6 511.2 564.85 508.05 566.3 503.95 567.4 499.8 568.55 494.25 569.5 494.05 569.55 493.9 569.8 493.7 570 493.8 570.3
L 494.45 572.4
Q 494.6 572.95 495.4 572.85 498.9 572.4 502.3 571.55 505.65 570.7 508.65 569.65 510.25 570.1 512 570.45 513.8 570.85 515.6 571.25 517.4 571.6 519.1 571.9 520.8 572.2 522.3 572.35 522.65 572.4 522.85 572.25 523.05 572.05 523.15 571.85
L 523.85 569.85
Q 524 569.5 523.8 569.35 523.6 569.15 523.3 569.05 522.25 568.95 521.05 568.75 519.85 568.6 518.65 568.4 517.4 568.2 516.2 567.95
M 521.3 517.95
Q 521.45 517.75 521.45 517.5
L 521.45 515.4
Q 521.45 515.15 521.3 515 521.1 514.8 520.85 514.8
L 496.05 514.8
Q 495.8 514.8 495.6 515 495.4 515.2 495.4 515.4
L 495.4 517.5
Q 495.4 517.7 495.6 517.9 495.75 518.1 496 518.1
L 520.85 518.1
Q 521.1 518.1 521.3 517.95
M 514.7 513.15
Q 514.9 512.95 514.9 512.7
L 514.9 510.55
Q 514.9 510.25 514.7 510.1 514.5 509.85 514.25 509.85
L 502.65 509.85
Q 502.45 509.85 502.25 510.05 502 510.2 502 510.5
L 502 512.75
Q 502 513.05 502.25 513.2 502.45 513.35 502.65 513.35
L 514.25 513.35
Q 514.55 513.35 514.7 513.15
M 512.2 519.65
Q 510.5 519.3 508.45 519.3 506.4 519.3 504.7 519.65 503 520 501.7 520.6 500.45 521.25 499.75 522.1 499.05 523 499.05 524.1 499.05 525.25 499.75 526.15 500.45 527.05 501.7 527.65 503 528.3 504.7 528.65 506.4 529 508.45 529 510.5 529 512.2 528.65 513.95 528.3 515.2 527.65 516.4 527.05 517.1 526.15 517.85 525.25 517.85 524.1 517.85 523 517.1 522.1 516.4 521.25 515.2 520.6 513.95 520 512.2 519.65
M 504.25 523.4
Q 504.6 523.05 505.25 522.85 505.9 522.6 506.7 522.5 507.55 522.35 508.45 522.35 509.35 522.35 510.15 522.5 511 522.6 511.6 522.85 512.25 523.05 512.65 523.4 513 523.7 513 524.1 513 524.55 512.65 524.85 512.25 525.2 511.6 525.4 511 525.6 510.15 525.75 509.35 525.9 508.45 525.9 507.55 525.9 506.7 525.75 505.9 525.6 505.25 525.4 504.6 525.2 504.25 524.85 503.85 524.55 503.85 524.1 503.85 523.7 504.25 523.4
M 526.15 504.55
Q 525.85 504.35 525.65 504.35
L 510.8 504.35 510.8 501.2
Q 510.8 500.6 510.25 500.6
L 506.8 500.6
Q 506.2 500.6 506.2 501.2
L 506.2 504.35 491.05 504.35
Q 490.75 504.35 490.6 504.55 490.45 504.7 490.45 504.95
L 490.45 507.3
Q 490.45 507.5 490.6 507.7 490.75 507.9 491.05 507.9
L 525.8 507.9
Q 526.05 507.9 526.2 507.7 526.4 507.5 526.4 507.3
L 526.4 504.95
Q 526.4 504.75 526.15 504.55
M 565.05 501.25
Q 565.25 501.45 565.5 501.45
L 587.2 501.45
Q 587.4 501.45 587.6 501.25 587.75 501.05 587.75 500.85
L 587.75 498.35
Q 587.75 498.1 587.6 497.95 587.4 497.75 587.2 497.75
L 565.5 497.75
Q 565.25 497.75 565.05 497.95 564.8 498.15 564.8 498.35
L 564.8 500.8
Q 564.8 501.05 565.05 501.25
M 557.85 490.05
Q 557.85 489.8 557.65 489.65 557.45 489.5 557.25 489.5
L 553.75 489.5
Q 553.2 489.5 553.2 490.05
L 553.2 526.95
Q 553.2 527.5 553.75 527.5
L 557.25 527.5
Q 557.45 527.5 557.65 527.3 557.85 527.2 557.85 526.95
L 557.85 508 563.2 508
Q 563.4 508 563.6 507.85 563.8 507.65 563.8 507.45
L 563.8 504.65
Q 563.8 504.45 563.6 504.3 563.4 504.15 563.2 504.15
L 557.85 504.15 557.85 490.05
M 543.1 492.85
Q 541.25 491.9 538.95 491.9 536.65 491.9 534.8 492.85 533 493.8 531.7 495.5 530.45 497.2 529.8 499.65 529.1 502.05 529.1 505.1 529.1 508 529.8 510.4 530.45 512.8 531.7 514.5 533 516.25 534.8 517.15 536.65 518.1 538.95 518.1 541.25 518.1 543.1 517.2 544.9 516.25 546.2 514.55 547.45 512.85 548.15 510.4 548.8 508 548.8 505 548.8 502 548.15 499.55 547.45 497.15 546.2 495.45 544.9 493.75 543.1 492.85
M 543.95 501.5
Q 544.3 503.15 544.3 505 544.3 506.8 543.95 508.45 543.6 510.1 542.9 511.3 542.2 512.55 541.25 513.3 540.2 514 538.95 514 537.7 514 536.7 513.3 535.75 512.55 535.05 511.3 534.35 510.1 534 508.45 533.65 506.8 533.65 505 533.65 503.15 534 501.5 534.35 499.85 535.05 498.65 535.75 497.45 536.7 496.7 537.7 496 538.95 496 540.2 496 541.25 496.7 542.2 497.45 542.9 498.65 543.6 499.85 543.95 501.5
M 497 489.65
Q 496.5 489.65 496.5 490.2
L 496.5 492.65
Q 496.5 493.15 497 493.15
L 511.25 493.15
Q 511.95 493.15 511.85 493.4 511.75 493.6 511.2 493.85 508.05 495.3 503.95 496.4 499.8 497.55 494.25 498.5 494.05 498.55 493.9 498.8 493.7 499 493.8 499.3
L 494.45 501.4
Q 494.6 501.95 495.4 501.85 498.9 501.4 502.3 500.55 505.65 499.7 508.65 498.65 510.25 499.1 512 499.45 513.8 499.85 515.6 500.25 517.4 500.6 519.1 500.9 520.8 501.2 522.3 501.35 522.65 501.4 522.85 501.25 523.05 501.05 523.15 500.85
L 523.85 498.85
Q 524 498.5 523.8 498.35 523.6 498.15 523.3 498.05 522.25 497.95 521.05 497.75 519.85 497.6 518.65 497.4 517.4 497.2 516.2 496.95 514.95 496.75 514 496.5 515.25 495.85 516.25 495.2 517.2 494.6 517.9 493.95 518.25 493.6 518.8 492.95 519.3 492.35 519.3 491.45 519.3 490.55 518.3 490.1 517.3 489.65 515.75 489.65
L 497 489.65
M 503.95 422
Q 503.85 422.1 503.65 422.45
L 491.25 441.05
Q 491.1 441.2 490.95 441.5 490.75 441.8 490.75 442.05
L 490.75 445.05
Q 490.75 445.35 490.9 445.4 491.05 445.5 491.4 445.5
L 504.2 445.5 504.2 451.6
Q 504.2 452 504.35 452.15 504.5 452.3 504.95 452.3
L 507.85 452.3
Q 508.25 452.3 508.35 452.15 508.5 452.05 508.5 451.6
L 508.5 445.5 512.2 445.5
Q 512.55 445.5 512.7 445.4 512.85 445.3 512.85 444.9
L 512.85 442
Q 512.85 441.6 512.7 441.5 512.55 441.4 512.2 441.4
L 508.5 441.4 508.5 422.5
Q 508.5 422.15 508.45 422.05 508.4 421.9 508.1 421.9
L 504.45 421.9
Q 504.05 421.9 503.95 422
M 495.6 441.4
L 504.2 428.35 504.2 441.4 495.6 441.4
M 543.85 445.15
Q 543.25 444.5 541.75 444.5
L 521 444.5
Q 520.8 444.5 520.6 444.65 520.45 444.8 520.45 445.05
L 520.45 447.8
Q 520.45 448 520.6 448.15 520.8 448.3 521 448.3
L 539.05 448.3
Q 539.5 448.3 539.65 448.4 539.85 448.5 539.85 448.95
L 539.85 455.85
Q 539.85 456.05 540 456.2 540.2 456.4 540.45 456.4
L 543.85 456.4
Q 544.05 456.4 544.25 456.2 544.45 456.05 544.45 455.85
L 544.45 447.3
Q 544.45 445.8 543.85 445.15
M 532.55 430.6
Q 531.4 429.7 529.8 429.2 528.2 428.7 526.4 428.7 524.6 428.7 523 429.2 521.45 429.7 520.3 430.6 519.1 431.5 518.4 432.7 517.75 433.9 517.75 435.4 517.75 436.85 518.4 438.1 519.1 439.35 520.3 440.25 521.45 441.15 523 441.65 524.55 442.15 526.35 442.15 528.2 442.15 529.75 441.65 531.35 441.15 532.55 440.25 533.7 439.35 534.4 438.1 535.05 436.85 535.05 435.4 535.05 433.9 534.4 432.7 533.7 431.5 532.55 430.6
M 530.7 435.4
Q 530.7 436.8 529.5 437.75 528.25 438.7 526.4 438.7 525.45 438.7 524.65 438.45 523.85 438.2 523.3 437.75 522.7 437.3 522.4 436.7 522.1 436.1 522.1 435.4 522.1 434 523.3 433.1 524.5 432.2 526.4 432.2 528.3 432.2 529.5 433.1 530.7 434 530.7 435.4
M 537.1 427.25
Q 537.25 427.05 537.25 426.85
L 537.25 424.55
Q 537.25 424.3 537.1 424.1 536.9 423.9 536.65 423.9
L 515.5 423.9
Q 515.3 423.9 515.05 424.15 514.85 424.35 514.85 424.55
L 514.85 426.8
Q 514.85 427.05 515.05 427.2 515.25 427.45 515.45 427.45
L 536.65 427.45
Q 536.9 427.45 537.1 427.25
M 540.4 418.5
Q 539.85 418.5 539.85 419.05
L 539.85 442.3
Q 539.85 442.9 540.4 442.9
L 543.95 442.9
Q 544.5 442.9 544.5 442.35
L 544.5 433.65 549.85 433.65
Q 550.1 433.65 550.3 433.45 550.45 433.3 550.45 433.1
L 550.45 430.25
Q 550.45 430.05 550.3 429.95 550.1 429.8 549.85 429.8
L 544.5 429.8 544.5 419.05
Q 544.5 418.5 543.95 418.5
L 540.4 418.5
M 531.9 419.1
Q 531.7 418.9 531.45 418.9
L 521 418.9
Q 520.85 418.9 520.6 419.1 520.4 419.25 520.4 419.5
L 520.4 421.8
Q 520.4 422.1 520.6 422.3 520.85 422.45 521 422.45
L 531.45 422.45
Q 531.75 422.45 531.95 422.2 532.1 422 532.1 421.75
L 532.1 419.55
Q 532.1 419.3 531.9 419.1
M 594.65 490.05
Q 594.65 489.5 594.1 489.5
L 590.55 489.5
Q 590 489.5 590 490.05
L 590 526.95
Q 590 527.5 590.55 527.5
L 594.1 527.5
Q 594.65 527.5 594.65 526.95
L 594.65 508.45 600 508.45
Q 600.25 508.45 600.45 508.3 600.6 508.1 600.6 507.9
L 600.6 505.1
Q 600.6 504.85 600.45 504.7 600.25 504.6 600 504.6
L 594.65 504.6 594.65 490.05
M 607.35 490.25
Q 607.15 490.25 606.95 490.4 606.8 490.6 606.8 490.8
L 606.8 500.85
Q 606.8 502.4 607.4 503.05 608.05 503.7 609.85 503.7
L 631.3 503.7
Q 631.5 503.7 631.7 503.6 631.85 503.45 631.85 503.2
L 631.85 500.35
Q 631.85 500.15 631.7 500 631.5 499.85 631.3 499.85
L 612.2 499.85
Q 611.75 499.85 611.6 499.75 611.45 499.65 611.45 499.25
L 611.45 490.8
Q 611.45 490.6 611.25 490.4 611.05 490.25 610.8 490.25
L 607.35 490.25
M 570.4 491.4
Q 570.2 491.55 570.2 491.85
L 570.2 494.45
Q 570.2 494.75 570.4 494.9 570.6 495.1 570.8 495.1
L 582 495.1
Q 582.3 495.1 582.5 494.85 582.65 494.65 582.65 494.45
L 582.65 491.85
Q 582.65 491.65 582.45 491.4 582.25 491.25 582 491.25
L 570.8 491.25
Q 570.6 491.25 570.4 491.4
M 583.95 452.1
Q 583.75 451.95 583.55 451.95
L 564.7 451.95
Q 564.3 451.95 564.15 451.85 563.95 451.7 563.95 451.3
L 563.95 444.55
Q 563.95 444.3 563.8 444.15 563.6 443.95 563.35 443.95
L 559.9 443.95
Q 559.7 443.95 559.55 444.15 559.35 444.35 559.35 444.55
L 559.35 452.95
Q 559.35 454.5 559.95 455.15 560.6 455.8 562.45 455.8
L 583.6 455.8
Q 584.1 455.8 584.1 455.3
L 584.1 452.45
Q 584.1 452.3 583.95 452.1
M 572.95 436.05
Q 571.45 436.25 569.7 436.4 567.95 436.55 566.15 436.65 564.4 436.7 562.7 436.75 561 436.75 559.7 436.7 559.3 436.7 559.15 436.6 559 436.5 559 436.05
L 559 420.85
Q 559 420.7 558.8 420.5 558.6 420.3 558.4 420.3
L 554.95 420.3
Q 554.75 420.3 554.6 420.5 554.4 420.7 554.4 420.85
L 554.4 437.45
Q 554.4 438.65 555 439.5 555.65 440.3 557.25 440.4 559 440.45 561.1 440.45 563.25 440.4 565.5 440.35 567.7 440.25 569.8 440 571.9 439.8 573.55 439.45 573.75 439.4 573.9 439.25 574.05 439.1 574.05 438.8
L 573.65 436.5
Q 573.6 436.25 573.45 436.1 573.25 435.95 572.95 436.05
M 578.9 418.5
Q 578.65 418.5 578.5 418.65 578.3 418.8 578.3 419.05
L 578.3 422.95 569.2 422.95
Q 569 422.95 568.8 423.1 568.6 423.25 568.6 423.45
L 568.6 426.05
Q 568.6 426.25 568.8 426.4 569 426.55 569.2 426.55
L 578.3 426.55 578.3 429.8 569.2 429.8
Q 569 429.8 568.8 429.95 568.6 430.1 568.6 430.3
L 568.6 432.9
Q 568.6 433.1 568.8 433.25 569 433.4 569.2 433.4
L 578.3 433.4 578.3 444.95
Q 578.3 445.15 578.5 445.3 578.65 445.45 578.9 445.45
L 582.4 445.45
Q 582.95 445.45 582.95 444.95
L 582.95 419.05
Q 582.95 418.5 582.4 418.5
L 578.9 418.5
M 609.65 444.1
Q 609.45 443.9 609.25 443.9
L 605.8 443.9
Q 605.6 443.9 605.4 444.1 605.25 444.3 605.25 444.5
L 605.25 452.95
Q 605.25 454.5 605.85 455.15 606.45 455.8 608.25 455.8
L 629.45 455.8
Q 629.65 455.8 629.8 455.7 630 455.55 630 455.3
L 630 452.45
Q 630 452.3 629.8 452.1 629.65 451.95 629.45 451.95
L 610.6 451.95
Q 610.15 451.95 610 451.85 609.85 451.7 609.85 451.3
L 609.85 444.5
Q 609.85 444.25 609.65 444.1
M 614.1 420.25
Q 613.95 420.4 613.95 420.65
L 613.95 426.8 605.45 426.8 605.45 420.7
Q 605.45 420.45 605.3 420.35 605.1 420.2 604.9 420.2
L 601.45 420.2
Q 601.25 420.2 601.1 420.35 600.9 420.45 600.9 420.7
L 600.9 436.75
Q 600.9 438.35 601.55 438.95 602.2 439.55 603.95 439.55
L 615.5 439.55
Q 617.25 439.55 617.85 438.9 618.5 438.25 618.5 436.85
L 618.5 420.65
Q 618.5 420.4 618.35 420.25 618.2 420.1 618 420.1
L 614.45 420.1
Q 614.3 420.1 614.1 420.25
M 613.95 430.5
L 613.95 435.1
Q 613.95 435.8 613.2 435.8
L 606.2 435.8
Q 605.45 435.8 605.45 435.1
L 605.45 430.5 613.95 430.5
M 628.45 419.05
Q 628.45 418.5 627.9 418.5
L 624.35 418.5
Q 623.85 418.5 623.85 419.05
L 623.85 444.95
Q 623.85 445.45 624.35 445.45
L 627.9 445.45
Q 628.45 445.45 628.45 444.95
L 628.45 434.9 633.85 434.9
Q 634.05 434.9 634.25 434.7 634.45 434.6 634.45 434.4
L 634.45 431.5
Q 634.45 431.3 634.25 431.15 634.05 431.05 633.85 431.05
L 628.45 431.05 628.45 419.05
M 642.95 347.5
L 639.4 347.5
Q 638.85 347.5 638.85 348.05
L 638.85 384.95
Q 638.85 385.5 639.4 385.5
L 642.95 385.5
Q 643.45 385.5 643.45 384.95
L 643.45 348.05
Q 643.45 347.5 642.95 347.5
M 632.2 351.25
Q 631.65 350.5 629.85 350.5
L 615.55 350.5
Q 614.95 350.5 614.95 351
L 614.95 353.8
Q 614.95 354.35 615.55 354.35
L 626.85 354.35
Q 627.6 354.35 627.8 354.6 628.05 354.85 627.9 355.65 626.85 361.15 623.25 365.75 619.65 370.35 613.7 373.9 613.45 374.05 613.35 374.35 613.25 374.65 613.45 374.95
L 614.8 377.1
Q 615 377.4 615.4 377.45 615.75 377.5 616.1 377.3 619.6 375.2 622.55 372.7 625.45 370.2 627.6 367.25 629.75 364.25 631.05 360.85 632.35 357.4 632.65 353.5 632.8 352 632.2 351.25
M 583.6 352.35
Q 582.3 351.15 580.55 350.5 578.75 349.85 576.7 349.85 574.65 349.85 572.85 350.5 571.1 351.15 569.8 352.35 568.5 353.6 567.75 355.3 566.95 357 566.95 359.1 566.95 361.25 567.75 362.95 568.5 364.65 569.8 365.8 571.1 367 572.85 367.65 574.65 368.25 576.65 368.25 578.75 368.25 580.55 367.65 582.3 367 583.6 365.8 584.95 364.65 585.7 362.95 586.45 361.25 586.45 359.1 586.45 357 585.7 355.3 584.95 353.6 583.6 352.35
M 572.95 355.1
Q 574.4 353.6 576.7 353.6 579.05 353.6 580.55 355.1 582 356.6 582 359.1 582 361.65 580.55 363.15 579.05 364.65 576.7 364.65 574.4 364.65 572.95 363.15 571.45 361.65 571.45 359.1 571.45 356.6 572.95 355.1
M 595.75 347.5
L 592.25 347.5
Q 592 347.5 591.85 347.65 591.65 347.8 591.65 348.05
L 591.65 384.95
Q 591.65 385.2 591.85 385.3 592 385.5 592.25 385.5
L 595.75 385.5
Q 596.3 385.5 596.3 384.95
L 596.3 348.05
Q 596.3 347.5 595.75 347.5
M 647.25 304.5
Q 647.25 304.25 647.05 304.05 646.85 303.85 646.65 303.85
L 611.85 303.85
Q 611.25 303.85 611.25 304.5
L 611.25 307.1
Q 611.25 307.3 611.4 307.5 611.55 307.7 611.85 307.7
L 646.65 307.7
Q 646.85 307.7 647.05 307.5 647.25 307.3 647.25 307.1
L 647.25 304.5
M 565.2 373.45
Q 564.95 373.45 564.8 373.6 564.65 373.8 564.65 374.05
L 564.65 376.75
Q 564.65 377 564.8 377.2 564.95 377.35 565.2 377.35 568.05 377.4 571.4 377.3 574.7 377.2 578 377 581.3 376.8 584.3 376.5 587.3 376.25 589.55 375.9 589.75 375.85 589.9 375.7 590.1 375.5 590.05 375.2
L 589.8 372.6
Q 589.8 372.3 589.5 372.2 589.25 372.15 589.05 372.2 586.6 372.5 583.6 372.75 580.65 373.05 577.5 373.2 574.35 373.35 571.25 373.45 568.05 373.5 565.2 373.45
M 558.55 369.85
Q 558 369.25 556.4 369.25
L 536.2 369.25
Q 535.95 369.25 535.8 369.45 535.6 369.65 535.6 369.85
L 535.6 372.45
Q 535.6 372.65 535.8 372.8 535.95 372.95 536.2 372.95
L 554.1 372.95
Q 554.45 372.95 554.55 373.05 554.65 373.1 554.65 373.55
L 554.65 375.05
Q 554.65 375.4 554.55 375.5 554.45 375.6 554.15 375.6
L 538.35 375.6
Q 536.75 375.6 536.25 376.15 535.7 376.75 535.7 378.05
L 535.7 382.9
Q 535.7 384.2 536.25 384.8 536.8 385.4 538.4 385.4
L 559.65 385.4
Q 559.8 385.4 559.95 385.2 560.15 385.05 560.15 384.85
L 560.15 382.3
Q 560.15 382 559.95 381.85 559.8 381.7 559.6 381.7
L 540.75 381.7
Q 540.4 381.7 540.3 381.65 540.2 381.6 540.2 381.25
L 540.2 379.55
Q 540.2 379.25 540.3 379.15 540.4 379.05 540.7 379.05
L 556.4 379.05
Q 558 379.05 558.55 378.5 559.1 378 559.1 376.6
L 559.1 371.75
Q 559.1 370.4 558.55 369.85
M 548.8 365.7
L 550.15 363.55
Q 550.6 362.8 549.95 362.55 548.85 362.1 547.65 361.35 546.5 360.6 545.4 359.6 544.25 358.6 543.25 357.4 542.25 356.2 541.6 354.85 541.95 353.45 542.15 351.95 542.35 350.5 542.35 348.8 542.35 348.2 541.8 348.2
L 538.4 348.05
Q 538.2 348.05 537.95 348.2 537.75 348.35 537.75 348.6 537.75 354.1 535.6 357.8 533.4 361.5 528.65 364.1 528.25 364.3 528.25 364.6 528.2 364.9 528.45 365.2
L 530.05 367.2
Q 530.45 367.75 531.35 367.25 534.05 365.8 536.2 363.85 538.35 361.9 539.75 359.4 541.25 361.55 543.3 363.25 545.4 365 547.8 366.05 548.4 366.3 548.8 365.7
M 559.1 348.05
Q 559.1 347.5 558.6 347.5
L 555 347.5
Q 554.5 347.5 554.5 348.05
L 554.5 366.85
Q 554.5 367.45 555 367.45
L 558.6 367.45
Q 559.1 367.45 559.1 366.9
L 559.1 348.05
M 509.2 363.15
Q 508.65 363.15 508.65 363.75
L 508.65 374.85 504.15 374.85 504.15 363.75
Q 504.15 363.15 503.65 363.15
L 500.3 363.15
Q 499.75 363.15 499.75 363.75
L 499.75 374.85 491.25 374.85
Q 491 374.85 490.8 375.05 490.65 375.2 490.65 375.5
L 490.65 378.1
Q 490.65 378.3 490.8 378.5 491 378.7 491.25 378.7
L 525.6 378.7
Q 525.8 378.7 526.05 378.5 526.25 378.3 526.25 378.1
L 526.25 375.5
Q 526.25 375.25 526.05 375.05 525.8 374.85 525.6 374.85
L 513.1 374.85 513.1 363.75
Q 513.1 363.15 512.55 363.15
L 509.2 363.15
M 517.2 354.95
Q 517.2 356.6 517.15 358.6 517.1 360.65 517 362.7 516.85 364.75 516.65 366.7 516.45 368.65 516.2 370.15 516.1 370.5 516.15 370.65 516.2 370.85 516.55 370.9
L 519.8 371.15
Q 520.15 371.2 520.35 370.95 520.5 370.65 520.6 370.35 521.15 367.4 521.45 362.95 521.8 358.5 521.8 353.1 521.8 351.65 521.1 350.95 520.4 350.25 519.1 350.25
L 495.9 350.25
Q 495.7 350.25 495.5 350.4 495.3 350.5 495.3 350.75
L 495.3 353.6
Q 495.3 353.85 495.5 353.95 495.7 354.1 495.9 354.1
L 516.1 354.1
Q 516.65 354.1 516.95 354.25 517.2 354.4 517.2 354.95
M 522.65 303.15
Q 522.65 301.8 522.1 301.3 521.6 300.8 519.95 300.8
L 498.65 300.8
Q 498.4 300.8 498.2 300.95 498 301.1 498 301.3
L 498 303.7
Q 498 303.9 498.2 304.05 498.4 304.2 498.65 304.2
L 517.65 304.2
Q 518 304.2 518.05 304.3 518.15 304.4 518.15 304.85
L 518.15 305.45
Q 518.15 305.85 518.05 305.9 518 306 517.65 306
L 500.75 306
Q 499.2 306 498.65 306.6 498.1 307.15 498.1 308.4
L 498.1 312.25
Q 498.1 313.5 498.7 314.05 499.25 314.65 500.8 314.65
L 523.1 314.65
Q 523.25 314.65 523.45 314.45 523.65 314.25 523.65 314.05
L 523.65 311.7
Q 523.65 311.45 523.45 311.35 523.25 311.2 523.05 311.2
L 503.2 311.2
Q 502.85 311.2 502.75 311.15 502.65 311.1 502.65 310.65
L 502.65 309.85
Q 502.65 309.55 502.75 309.45 502.85 309.35 503.15 309.35
L 519.95 309.35
Q 521.6 309.35 522.1 308.85 522.65 308.4 522.65 307
L 522.65 303.15
M 559.45 300.85
Q 559.45 299.45 558.9 298.9 558.35 298.35 556.65 298.35
L 536.2 298.35
Q 535.95 298.35 535.8 298.5 535.6 298.7 535.6 298.9
L 535.6 301.55
Q 535.6 301.75 535.8 301.9 535.95 302.05 536.2 302.05
L 554.35 302.05
Q 554.8 302.05 554.85 302.15 554.95 302.25 554.95 302.65
L 554.95 304.05
Q 554.95 304.45 554.85 304.55 554.8 304.65 554.45 304.65
L 538.4 304.65
Q 536.75 304.65 536.25 305.25 535.7 305.8 535.7 307.1
L 535.7 311.9
Q 535.7 313.2 536.3 313.8 536.85 314.4 538.4 314.4
L 559.9 314.4
Q 560.05 314.4 560.25 314.2 560.45 314.05 560.45 313.85
L 560.45 311.3
Q 560.45 311 560.25 310.85 560.05 310.7 559.85 310.7
L 540.8 310.7
Q 540.4 310.7 540.3 310.65 540.2 310.6 540.2 310.25
L 540.2 308.6
Q 540.2 308.25 540.3 308.15 540.4 308.05 540.75 308.05
L 556.65 308.05
Q 558.35 308.05 558.9 307.55 559.45 307.05 559.45 305.65
L 559.45 300.85
M 544.1 277.2
Q 543.9 277.2 543.75 277.35 543.6 277.5 543.6 277.7
L 543.6 283 535 283 535 277.75
Q 535 277.55 534.85 277.4 534.65 277.25 534.45 277.25
L 531 277.25
Q 530.8 277.25 530.65 277.4 530.5 277.55 530.5 277.75
L 530.5 292.3
Q 530.5 293.95 531.15 294.55 531.75 295.15 533.55 295.15
L 545.1 295.15
Q 546.8 295.15 547.45 294.5 548.1 293.8 548.1 292.45
L 548.1 291.95 554.9 291.95 554.9 296
Q 554.9 296.55 555.45 296.55
L 559 296.55
Q 559.5 296.55 559.5 296
L 559.5 277.05
Q 559.5 276.5 559 276.5
L 555.45 276.5
Q 554.9 276.5 554.9 277.05
L 554.9 280.85 548.1 280.85 548.1 277.7
Q 548.1 277.5 547.95 277.35 547.8 277.2 547.55 277.2
L 544.1 277.2
M 535.75 291.4
Q 535 291.4 535 290.7
L 535 286.7 543.6 286.7 543.6 290.7
Q 543.6 291.4 542.85 291.4
L 535.75 291.4
M 548.1 284.55
L 554.9 284.55 554.9 288.25 548.1 288.25 548.1 284.55
M 522.15 276.45
L 518.6 276.45
Q 518.05 276.45 518.05 277
L 518.05 295.05 511.2 295.05
Q 511.05 295.05 510.85 295.15 510.65 295.3 510.65 295.5
L 510.65 297.8
Q 510.65 298 510.85 298.15 511.05 298.3 511.2 298.3
L 518.05 298.3 518.05 299.05
Q 518.05 299.55 518.6 299.55
L 522.15 299.55
Q 522.65 299.55 522.65 299.05
L 522.65 277
Q 522.65 276.45 522.15 276.45
M 491.8 294.45
Q 492.55 294.5 493.65 294.5 494.75 294.5 495.95 294.45 497.15 294.45 498.4 294.4 499.65 294.4 500.85 294.35
L 500.85 298.65
Q 500.85 298.85 501.05 299.05 501.2 299.2 501.45 299.2
L 504.8 299.2
Q 505 299.2 505.2 299.05 505.4 298.85 505.4 298.65
L 505.4 294.05
Q 506.4 294 507.8 293.9 509.15 293.85 510.65 293.7 512.15 293.6 513.6 293.45 515 293.3 516.2 293.1 516.4 293.05 516.55 292.85 516.75 292.6 516.7 292.35
L 516.4 290.25
Q 516.4 290.05 516.15 289.9 515.95 289.75 515.75 289.8 511.6 290.35 505.75 290.65 499.9 290.95 491.8 290.85 491.2 290.85 491.2 291.45
L 491.2 293.8
Q 491.2 294.05 491.4 294.2 491.55 294.45 491.8 294.45
M 499.6 277.1
Q 497.95 277.6 496.75 278.45 495.55 279.3 494.9 280.45 494.2 281.6 494.2 282.9 494.2 284.2 494.9 285.4 495.55 286.55 496.75 287.4 497.95 288.25 499.6 288.8 501.3 289.25 503.35 289.25 505.4 289.25 507.1 288.8 508.8 288.25 509.95 287.4 511.2 286.55 511.85 285.4 512.5 284.2 512.5 282.9 512.5 281.6 511.85 280.45 511.2 279.3 509.95 278.45 508.8 277.6 507.1 277.1 505.4 276.6 503.35 276.6 501.3 276.6 499.6 277.1
M 499.9 280.7
Q 501.2 279.85 503.35 279.85 505.5 279.85 506.85 280.7 508.2 281.6 508.2 282.9 508.2 284.25 506.85 285.1 505.5 286 503.35 286 501.2 286 499.9 285.1 498.55 284.25 498.55 282.9 498.55 281.6 499.9 280.7
M 626.95 279.15
Q 626.65 282 625.75 284.15 624.85 286.3 623.25 288 621.7 289.65 619.45 290.95 617.2 292.25 614.15 293.4 613.9 293.45 613.75 293.75 613.65 294 613.8 294.3
L 615.25 296.8
Q 615.4 297.1 615.7 297.15 615.95 297.25 616.15 297.15 620.6 295.65 624.05 293.2 627.45 290.7 629.45 287.2 630.45 288.85 631.9 290.35 633.35 291.8 635.05 292.95 636.8 294.15 638.65 295.05 640.5 295.9 642.35 296.4 643 296.55 643.3 295.95
L 644.65 293.4
Q 644.75 293.2 644.7 292.95 644.6 292.65 644.35 292.6 642.05 291.95 639.95 290.85 637.8 289.7 636.1 288.25 634.35 286.8 633.15 285.05 631.95 283.25 631.45 281.35 631.65 280.45 631.7 279.4 631.75 278.55 631.05 278.5
L 627.6 278.35
Q 627.25 278.3 627.1 278.6 627 278.85 626.95 279.15
M 600.95 276.5
Q 600.4 276.5 600.4 277.05
L 600.4 313.95
Q 600.4 314.5 600.95 314.5
L 604.5 314.5
Q 605.05 314.5 605.05 313.95
L 605.05 294.95 610.4 294.95
Q 610.65 294.95 610.85 294.8 611 294.65 611 294.4
L 611 291.6
Q 611 291.4 610.85 291.25 610.65 291.1 610.4 291.1
L 605.05 291.1 605.05 277.05
Q 605.05 276.5 604.5 276.5
L 600.95 276.5
M 577 280
L 577 282.8
Q 577 283.35 577.55 283.35
L 588.8 283.35
Q 589.55 283.35 589.75 283.6 590 283.85 589.85 284.65 589.05 290.1 585.4 294.75 581.7 299.4 575.75 302.55 575.45 302.75 575.4 303.05 575.3 303.4 575.5 303.7
L 577.1 305.95
Q 577.3 306.3 577.65 306.3 578 306.3 578.3 306.15 582 304.1 585 301.5 587.95 298.9 590.05 295.9 592.15 292.9 593.35 289.55 594.55 286.15 594.8 282.5 594.95 281 594.35 280.25 593.8 279.5 592 279.5
L 577.55 279.5
Q 577 279.5 577 280
M 471.25 375.2
Q 471.25 376.45 472.15 377.35 473.05 378.25 474.35 378.25 475.6 378.25 476.5 377.35 477.35 376.45 477.35 375.2 477.35 374.05 476.5 373.15 475.6 372.25 474.35 372.25 473.05 372.25 472.15 373.15 471.25 374.05 471.25 375.2
M 472.15 359.15
Q 473.05 360.05 474.35 360.05 475.6 360.05 476.5 359.15 477.35 358.25 477.35 357.1 477.35 355.85 476.5 354.95 475.6 354.05 474.35 354.05 473.05 354.05 472.15 354.95 471.25 355.85 471.25 357.1 471.25 358.25 472.15 359.15
M 472.15 306.35
Q 473.05 307.25 474.35 307.25 475.6 307.25 476.5 306.35 477.35 305.45 477.35 304.2 477.35 303.05 476.5 302.15 475.6 301.25 474.35 301.25 473.05 301.25 472.15 302.15 471.25 303.05 471.25 304.2 471.25 305.45 472.15 306.35
M 476.5 283.95
Q 475.6 283.05 474.35 283.05 473.05 283.05 472.15 283.95 471.25 284.85 471.25 286.1 471.25 287.25 472.15 288.15 473.05 289.05 474.35 289.05 475.6 289.05 476.5 288.15 477.35 287.25 477.35 286.1 477.35 284.85 476.5 283.95
M 775.55 590.15
Q 775.75 590.3 775.95 590.3
L 794 590.3
Q 794.45 590.3 794.6 590.4 794.8 590.5 794.8 590.95
L 794.8 597.85
Q 794.8 598.05 794.95 598.2 795.15 598.4 795.4 598.4
L 798.8 598.4
Q 799 598.4 799.2 598.2 799.4 598.05 799.4 597.85
L 799.4 589.3
Q 799.4 587.8 798.8 587.15 798.2 586.5 796.7 586.5
L 775.95 586.5
Q 775.75 586.5 775.55 586.65 775.4 586.8 775.4 587.05
L 775.4 589.8
Q 775.4 590 775.55 590.15
M 784.75 571.2
Q 783.15 570.7 781.35 570.7 779.55 570.7 777.95 571.2 776.4 571.7 775.25 572.6 774.05 573.5 773.35 574.7 772.7 575.9 772.7 577.4 772.7 578.85 773.35 580.1 774.05 581.35 775.25 582.25 776.4 583.15 777.95 583.65 779.5 584.15 781.3 584.15 783.15 584.15 784.7 583.65 786.3 583.15 787.5 582.25 788.65 581.35 789.35 580.1 790 578.85 790 577.4 790 575.9 789.35 574.7 788.65 573.5 787.5 572.6 786.35 571.7 784.75 571.2
M 784.45 579.75
Q 783.2 580.7 781.35 580.7 780.4 580.7 779.6 580.45 778.8 580.2 778.25 579.75 777.65 579.3 777.35 578.7 777.05 578.1 777.05 577.4 777.05 576 778.25 575.1 779.45 574.2 781.35 574.2 783.25 574.2 784.45 575.1 785.65 576 785.65 577.4 785.65 578.8 784.45 579.75
M 775.55 561.1
Q 775.35 561.25 775.35 561.5
L 775.35 563.8
Q 775.35 564.1 775.55 564.3 775.8 564.45 775.95 564.45
L 786.4 564.45
Q 786.7 564.45 786.9 564.2 787.05 564 787.05 563.75
L 787.05 561.55
Q 787.05 561.3 786.85 561.1 786.65 560.9 786.4 560.9
L 775.95 560.9
Q 775.8 560.9 775.55 561.1
M 792.05 566.1
Q 791.85 565.9 791.6 565.9
L 770.45 565.9
Q 770.25 565.9 770 566.15 769.8 566.35 769.8 566.55
L 769.8 568.8
Q 769.8 569.05 770 569.2 770.2 569.45 770.4 569.45
L 791.6 569.45
Q 791.85 569.45 792.05 569.25 792.2 569.05 792.2 568.85
L 792.2 566.55
Q 792.2 566.3 792.05 566.1
M 795.35 560.5
Q 794.8 560.5 794.8 561.05
L 794.8 584.3
Q 794.8 584.9 795.35 584.9
L 798.9 584.9
Q 799.45 584.9 799.45 584.35
L 799.45 575.65 804.8 575.65
Q 805.05 575.65 805.25 575.45 805.4 575.3 805.4 575.1
L 805.4 572.25
Q 805.4 572.05 805.25 571.95 805.05 571.8 804.8 571.8
L 799.45 571.8 799.45 561.05
Q 799.45 560.5 798.9 560.5
L 795.35 560.5
M 730 582.9
L 730 585.55
Q 730 585.75 730.2 585.9 730.35 586.05 730.6 586.05
L 748.75 586.05
Q 749.2 586.05 749.25 586.15 749.35 586.25 749.35 586.65
L 749.35 588.05
Q 749.35 588.45 749.25 588.55 749.2 588.65 748.85 588.65
L 732.8 588.65
Q 731.15 588.65 730.65 589.25 730.1 589.8 730.1 591.1
L 730.1 595.9
Q 730.1 597.2 730.7 597.8 731.25 598.4 732.8 598.4
L 754.3 598.4
Q 754.45 598.4 754.65 598.2 754.85 598.05 754.85 597.85
L 754.85 595.3
Q 754.85 595 754.65 594.85 754.45 594.7 754.25 594.7
L 735.2 594.7
Q 734.8 594.7 734.7 594.65 734.6 594.6 734.6 594.25
L 734.6 592.6
Q 734.6 592.25 734.7 592.15 734.8 592.05 735.15 592.05
L 751.05 592.05
Q 752.75 592.05 753.3 591.55 753.85 591.05 753.85 589.65
L 753.85 584.85
Q 753.85 583.45 753.3 582.9 752.75 582.35 751.05 582.35
L 730.6 582.35
Q 730.35 582.35 730.2 582.5 730 582.7 730 582.9
M 753.3 511.9
Q 752.75 511.35 751.05 511.35
L 730.6 511.35
Q 730.35 511.35 730.2 511.5 730 511.7 730 511.9
L 730 514.55
Q 730 514.75 730.2 514.9 730.35 515.05 730.6 515.05
L 748.75 515.05
Q 749.2 515.05 749.25 515.15 749.35 515.25 749.35 515.65
L 749.35 517.05
Q 749.35 517.45 749.25 517.55 749.2 517.65 748.85 517.65
L 732.8 517.65
Q 731.15 517.65 730.65 518.25 730.1 518.8 730.1 520.1
L 730.1 524.9
Q 730.1 526.2 730.7 526.8 731.25 527.4 732.8 527.4
L 754.3 527.4
Q 754.45 527.4 754.65 527.2 754.85 527.05 754.85 526.85
L 754.85 524.3
Q 754.85 524 754.65 523.85 754.45 523.7 754.25 523.7
L 735.2 523.7
Q 734.8 523.7 734.7 523.65 734.6 523.6 734.6 523.25
L 734.6 521.6
Q 734.6 521.25 734.7 521.15 734.8 521.05 735.15 521.05
L 751.05 521.05
Q 752.75 521.05 753.3 520.55 753.85 520.05 753.85 518.65
L 753.85 513.85
Q 753.85 512.45 753.3 511.9
M 789.35 503.7
Q 788.65 502.5 787.5 501.6 786.35 500.7 784.75 500.2 783.15 499.7 781.35 499.7 779.55 499.7 777.95 500.2 776.4 500.7 775.25 501.6 774.05 502.5 773.35 503.7 772.7 504.9 772.7 506.4 772.7 507.85 773.35 509.1 774.05 510.35 775.25 511.25 776.4 512.15 777.95 512.65 779.5 513.15 781.3 513.15 783.15 513.15 784.7 512.65 786.3 512.15 787.5 511.25 788.65 510.35 789.35 509.1 790 507.85 790 506.4 790 504.9 789.35 503.7
M 784.45 504.1
Q 785.65 505 785.65 506.4 785.65 507.8 784.45 508.75 783.2 509.7 781.35 509.7 780.4 509.7 779.6 509.45 778.8 509.2 778.25 508.75 777.65 508.3 777.35 507.7 777.05 507.1 777.05 506.4 777.05 505 778.25 504.1 779.45 503.2 781.35 503.2 783.25 503.2 784.45 504.1
M 794 519.3
Q 794.45 519.3 794.6 519.4 794.8 519.5 794.8 519.95
L 794.8 526.85
Q 794.8 527.05 794.95 527.2 795.15 527.4 795.4 527.4
L 798.8 527.4
Q 799 527.4 799.2 527.2 799.4 527.05 799.4 526.85
L 799.4 518.3
Q 799.4 516.8 798.8 516.15 798.2 515.5 796.7 515.5
L 775.95 515.5
Q 775.75 515.5 775.55 515.65 775.4 515.8 775.4 516.05
L 775.4 518.8
Q 775.4 519 775.55 519.15 775.75 519.3 775.95 519.3
L 794 519.3
M 693.05 584.1
Q 692.8 584.1 692.65 584.25 692.45 584.35 692.45 584.65
L 692.45 587.45
Q 692.45 587.7 692.65 587.8 692.8 587.95 693.05 587.95
L 711.4 587.95
Q 711.8 587.95 711.95 588.05 712.1 588.2 712.1 588.6
L 712.1 597.85
Q 712.1 598.05 712.3 598.2 712.5 598.4 712.75 598.4
L 716.15 598.4
Q 716.4 598.4 716.55 598.2 716.75 598.05 716.75 597.85
L 716.75 586.9
Q 716.75 585.4 716.15 584.75 715.6 584.1 714.05 584.1
L 693.05 584.1
M 728.85 561.25
L 725.4 561.25
Q 725.2 561.25 725.05 561.4 724.9 561.55 724.9 561.75
L 724.9 576.3
Q 724.9 577.95 725.55 578.55 726.15 579.15 727.95 579.15
L 739.5 579.15
Q 741.2 579.15 741.85 578.5 742.5 577.8 742.5 576.45
L 742.5 575.95 749.3 575.95 749.3 580
Q 749.3 580.55 749.85 580.55
L 753.4 580.55
Q 753.9 580.55 753.9 580
L 753.9 561.05
Q 753.9 560.5 753.4 560.5
L 749.85 560.5
Q 749.3 560.5 749.3 561.05
L 749.3 564.85 742.5 564.85 742.5 561.7
Q 742.5 561.5 742.35 561.35 742.2 561.2 741.95 561.2
L 738.5 561.2
Q 738.3 561.2 738.15 561.35 738 561.5 738 561.7
L 738 567 729.4 567 729.4 561.75
Q 729.4 561.55 729.25 561.4 729.05 561.25 728.85 561.25
M 729.4 570.7
L 738 570.7 738 574.7
Q 738 575.4 737.25 575.4
L 730.15 575.4
Q 729.4 575.4 729.4 574.7
L 729.4 570.7
M 742.5 572.25
L 742.5 568.55 749.3 568.55 749.3 572.25 742.5 572.25
M 712.3 560.65
Q 712.1 560.8 712.1 561.05
L 712.1 581.55
Q 712.1 581.8 712.3 581.95 712.45 582.1 712.65 582.1
L 716.2 582.1
Q 716.75 582.1 716.75 581.6
L 716.75 561.05
Q 716.75 560.5 716.2 560.5
L 712.65 560.5
Q 712.45 560.5 712.3 560.65
M 686.25 578.8
Q 685.8 579.05 685.7 579.3 685.6 579.6 686.05 580
L 687.65 581.9
Q 687.95 582.2 688.2 582.25 688.5 582.35 689 582.05 691.75 580.1 693.85 578.1 695.9 576.1 697.3 573.6 698.8 575.85 700.8 577.65 702.85 579.45 705.25 580.5 706 580.8 706.4 580.15
L 707.75 577.95
Q 708.2 577.25 707.5 577 706.45 576.5 705.25 575.7 704.1 574.9 702.95 573.85 701.8 572.8 700.8 571.5 699.8 570.25 699.15 568.8 699.85 565.85 699.85 562.05 699.85 561.45 699.35 561.45
L 695.8 561.3
Q 695.6 561.3 695.45 561.5 695.2 561.7 695.2 562 695.2 565.2 694.65 567.65 694.1 570.1 692.95 572.05 691.8 574.05 690.15 575.65 688.45 577.25 686.25 578.8
M 655.6 585.7
Q 655.4 585.9 655.4 586.1
L 655.4 594.95
Q 655.4 596.5 656 597.15 656.65 597.8 658.45 597.8
L 679.6 597.8
Q 679.8 597.8 680 597.7 680.15 597.55 680.15 597.3
L 680.15 594.45
Q 680.15 594.3 680 594.1 679.8 593.95 679.6 593.95
L 660.75 593.95
Q 660.35 593.95 660.15 593.85 660 593.7 660 593.3
L 660 586.1
Q 660 585.9 659.8 585.7 659.6 585.55 659.4 585.55
L 655.95 585.55
Q 655.8 585.55 655.6 585.7
M 650.7 566.05
Q 650.7 566.25 650.85 566.45 650.95 566.6 651.25 566.6
L 662.1 566.6
Q 662.85 566.6 662.85 566.9 662.85 567.1 662.65 567.75 661.5 571.6 658.25 574.8 655 578 649.75 580.4 649.3 580.6 649.2 580.9 649.15 581.25 649.35 581.55
L 650.45 583.6
Q 650.85 584.3 651.75 583.95 658.2 581.25 662.1 577.15 665.95 573.05 667.6 567.35 667.65 567.25 667.75 566.95 667.8 566.7 667.85 566.35 667.9 566.05 667.95 565.7 668 565.4 668 565.2 668 563.9 667.3 563.35 666.6 562.8 664.8 562.8
L 651.25 562.8
Q 650.7 562.8 650.7 563.35
L 650.7 566.05
M 674.15 560.65
Q 674 560.8 674 561.05
L 674 586.95
Q 674 587.15 674.15 587.3 674.35 587.45 674.55 587.45
L 678.05 587.45
Q 678.65 587.45 678.65 586.95
L 678.65 576.4 684 576.4
Q 684.25 576.4 684.45 576.25 684.6 576.1 684.6 575.85
L 684.6 573.05
Q 684.6 572.85 684.45 572.7 684.25 572.55 684 572.55
L 678.65 572.55 678.65 561.05
Q 678.65 560.5 678.05 560.5
L 674.55 560.5
Q 674.35 560.5 674.15 560.65
M 653.6 514.8
Q 653.4 515 653.4 515.2
L 653.4 523.65
Q 653.4 525.25 654.05 525.9 654.65 526.5 656.45 526.5
L 679.1 526.5
Q 679.35 526.5 679.55 526.4 679.7 526.25 679.7 526.05
L 679.7 523.15
Q 679.7 522.95 679.5 522.8 679.3 522.65 679.1 522.65
L 658.75 522.65
Q 658.35 522.65 658.2 522.55 658 522.45 658 522.05
L 658 515.2
Q 658 515 657.85 514.8 657.65 514.65 657.4 514.65
L 654 514.65
Q 653.8 514.65 653.6 514.8
M 668.65 518.85
L 668.65 511.5 683.45 511.5
Q 683.65 511.5 683.85 511.3 684.05 511.05 684.05 510.9
L 684.05 508.3
Q 684.05 508.05 683.85 507.85 683.65 507.65 683.45 507.65
L 648.65 507.65
Q 648.35 507.65 648.2 507.85 648.05 508.05 648.05 508.3
L 648.05 510.9
Q 648.05 511.05 648.2 511.3 648.35 511.5 648.65 511.5
L 664.05 511.5 664.05 518.85
Q 664.05 519.4 664.6 519.4
L 668.1 519.4
Q 668.65 519.4 668.65 518.85
M 702.8 513.75
Q 696.75 513.75 693.5 515.55 690.2 517.4 690.2 520.6 690.2 523.9 693.5 525.7 696.75 527.5 702.8 527.5 708.9 527.5 712.15 525.7 715.45 523.9 715.45 520.6 715.45 517.4 712.15 515.55 708.9 513.75 702.8 513.75
M 696.8 518.25
Q 698.85 517.25 702.8 517.25 706.8 517.25 708.85 518.25 710.85 519.25 710.85 520.65 710.85 522.05 708.85 523.05 706.8 524 702.8 524 698.85 524 696.8 523.05 694.8 522.05 694.8 520.65 694.8 519.25 696.8 518.25
M 691.35 490.7
Q 690.65 491.25 690.65 492.8
L 690.65 500.6
Q 690.65 502.05 691.3 502.75 691.95 503.45 693.55 503.45
L 700.55 503.45 700.55 507.6 685.45 507.6
Q 685.15 507.6 685 507.75 684.85 507.95 684.85 508.2
L 684.85 510.85
Q 684.85 511.05 685 511.25 685.15 511.4 685.45 511.4
L 720.2 511.4
Q 720.45 511.4 720.6 511.25 720.8 511.05 720.8 510.85
L 720.8 508.2
Q 720.8 508 720.6 507.8 720.45 507.6 720.2 507.6
L 705.15 507.6 705.15 503.45 714.95 503.45
Q 715.15 503.45 715.25 503.35 715.45 503.2 715.45 502.85
L 715.45 500.2
Q 715.45 499.85 715.25 499.8 715.1 499.7 714.8 499.7
L 696.05 499.7
Q 695.6 499.7 695.45 499.5 695.3 499.3 695.3 499
L 695.3 494.65
Q 695.3 494 696.05 494
L 714.6 494
Q 715.15 494 715.15 493.45
L 715.15 490.7
Q 715.15 490.2 714.6 490.2
L 693.55 490.2
Q 692.05 490.2 691.35 490.7
M 666.15 490.1
Q 663.35 490.1 661 490.55 658.65 491.05 657 492 655.3 492.95 654.35 494.35 653.4 495.7 653.4 497.45 653.4 499.15 654.35 500.5 655.3 501.85 657 502.8 658.65 503.75 661 504.25 663.35 504.75 666.15 504.75 668.95 504.75 671.25 504.25 673.6 503.75 675.25 502.8 676.95 501.85 677.9 500.5 678.8 499.15 678.8 497.45 678.8 495.7 677.9 494.35 676.95 492.95 675.25 492 673.6 491.05 671.25 490.55 668.95 490.1 666.15 490.1
M 660.45 494.8
Q 661.5 494.3 662.95 494 664.4 493.75 666.15 493.75 667.85 493.75 669.3 494 670.75 494.3 671.8 494.8 672.85 495.25 673.45 495.95 674 496.65 674 497.45 674 498.25 673.45 498.9 672.85 499.6 671.8 500.1 670.75 500.55 669.3 500.8 667.85 501.05 666.15 501.05 664.4 501.05 662.95 500.8 661.5 500.55 660.45 500.1 659.4 499.6 658.8 498.9 658.2 498.25 658.2 497.45 658.2 496.65 658.8 495.95 659.4 495.25 660.45 494.8
M 662.3 444.15
Q 662.4 444.25 662.4 444.65
L 662.4 446.05
Q 662.4 446.45 662.3 446.55 662.25 446.65 661.9 446.65
L 645.85 446.65
Q 644.2 446.65 643.7 447.25 643.15 447.8 643.15 449.1
L 643.15 453.9
Q 643.15 455.2 643.75 455.8 644.3 456.4 645.85 456.4
L 667.35 456.4
Q 667.5 456.4 667.7 456.2 667.9 456.05 667.9 455.85
L 667.9 453.3
Q 667.9 453 667.7 452.85 667.5 452.7 667.3 452.7
L 648.25 452.7
Q 647.85 452.7 647.75 452.65 647.65 452.6 647.65 452.25
L 647.65 450.6
Q 647.65 450.25 647.75 450.15 647.85 450.05 648.2 450.05
L 664.1 450.05
Q 665.8 450.05 666.35 449.55 666.9 449.05 666.9 447.65
L 666.9 442.85
Q 666.9 441.45 666.35 440.9 665.8 440.35 664.1 440.35
L 643.65 440.35
Q 643.4 440.35 643.25 440.5 643.05 440.7 643.05 440.9
L 643.05 443.55
Q 643.05 443.75 643.25 443.9 643.4 444.05 643.65 444.05
L 661.8 444.05
Q 662.25 444.05 662.3 444.15
M 651.2 419.35
Q 651.05 419.5 651.05 419.7
L 651.05 425 642.45 425 642.45 419.75
Q 642.45 419.55 642.3 419.4 642.1 419.25 641.9 419.25
L 638.45 419.25
Q 638.25 419.25 638.1 419.4 637.95 419.55 637.95 419.75
L 637.95 434.3
Q 637.95 435.95 638.6 436.55 639.2 437.15 641 437.15
L 652.55 437.15
Q 654.25 437.15 654.9 436.5 655.55 435.8 655.55 434.45
L 655.55 433.95 662.35 433.95 662.35 438
Q 662.35 438.55 662.9 438.55
L 666.45 438.55
Q 666.95 438.55 666.95 438
L 666.95 419.05
Q 666.95 418.5 666.45 418.5
L 662.9 418.5
Q 662.35 418.5 662.35 419.05
L 662.35 422.85 655.55 422.85 655.55 419.7
Q 655.55 419.5 655.4 419.35 655.25 419.2 655 419.2
L 651.55 419.2
Q 651.35 419.2 651.2 419.35
M 662.35 426.55
L 662.35 430.25 655.55 430.25 655.55 426.55 662.35 426.55
M 651.05 428.7
L 651.05 432.7
Q 651.05 433.4 650.3 433.4
L 643.2 433.4
Q 642.45 433.4 642.45 432.7
L 642.45 428.7 651.05 428.7
M 710.3 418.5
Q 709.8 418.5 709.8 419.05
L 709.8 425.9 701.95 425.9
Q 700.75 423.5 698.7 422.2 696.65 420.85 693.85 420.85 691.6 420.85 689.75 421.8 687.95 422.75 686.7 424.45 685.45 426.2 684.8 428.65 684.15 431.05 684.15 434.1 684.15 437 684.8 439.45 685.45 441.85 686.7 443.6 687.95 445.35 689.75 446.3 691.6 447.3 693.85 447.3 696.75 447.3 698.85 445.9 700.95 444.45 702.1 441.85
L 709.8 441.85 709.8 455.95
Q 709.8 456.5 710.3 456.5
L 713.85 456.5
Q 714.4 456.5 714.4 455.95
L 714.4 419.05
Q 714.4 418.5 713.85 418.5
L 710.3 418.5
M 689 430.6
Q 689.35 428.9 690 427.65 690.65 426.45 691.65 425.7 692.65 424.95 693.85 424.95 695.15 424.95 696.15 425.7 697.15 426.45 697.8 427.65 698.45 428.9 698.8 430.6 699.15 432.25 699.15 434.1 699.15 435.85 698.8 437.55 698.45 439.2 697.8 440.45 697.15 441.7 696.15 442.45 695.15 443.25 693.85 443.25 692.65 443.25 691.65 442.45 690.65 441.7 690 440.45 689.35 439.2 689 437.55 688.65 435.85 688.65 434.1 688.65 432.25 689 430.6
M 703.3 438.1
Q 703.65 436.3 703.65 434.1 703.65 431.8 703.25 429.65
L 709.8 429.65 709.8 438.1 703.3 438.1
M 791.6 494.9
L 770.45 494.9
Q 770.25 494.9 770 495.15 769.8 495.35 769.8 495.55
L 769.8 497.8
Q 769.8 498.05 770 498.2 770.2 498.45 770.4 498.45
L 791.6 498.45
Q 791.85 498.45 792.05 498.25 792.2 498.05 792.2 497.85
L 792.2 495.55
Q 792.2 495.3 792.05 495.1 791.85 494.9 791.6 494.9
M 795.35 489.5
Q 794.8 489.5 794.8 490.05
L 794.8 513.3
Q 794.8 513.9 795.35 513.9
L 798.9 513.9
Q 799.45 513.9 799.45 513.35
L 799.45 504.65 804.8 504.65
Q 805.05 504.65 805.25 504.45 805.4 504.3 805.4 504.1
L 805.4 501.25
Q 805.4 501.05 805.25 500.95 805.05 500.8 804.8 500.8
L 799.45 500.8 799.45 490.05
Q 799.45 489.5 798.9 489.5
L 795.35 489.5
M 775.35 492.8
Q 775.35 493.1 775.55 493.3 775.8 493.45 775.95 493.45
L 786.4 493.45
Q 786.7 493.45 786.9 493.2 787.05 493 787.05 492.75
L 787.05 490.55
Q 787.05 490.3 786.85 490.1 786.65 489.9 786.4 489.9
L 775.95 489.9
Q 775.8 489.9 775.55 490.1 775.35 490.25 775.35 490.5
L 775.35 492.8
M 742.5 490.7
Q 742.5 490.5 742.35 490.35 742.2 490.2 741.95 490.2
L 738.5 490.2
Q 738.3 490.2 738.15 490.35 738 490.5 738 490.7
L 738 496 729.4 496 729.4 490.75
Q 729.4 490.55 729.25 490.4 729.05 490.25 728.85 490.25
L 725.4 490.25
Q 725.2 490.25 725.05 490.4 724.9 490.55 724.9 490.75
L 724.9 505.3
Q 724.9 506.95 725.55 507.55 726.15 508.15 727.95 508.15
L 739.5 508.15
Q 741.2 508.15 741.85 507.5 742.5 506.8 742.5 505.45
L 742.5 504.95 749.3 504.95 749.3 509
Q 749.3 509.55 749.85 509.55
L 753.4 509.55
Q 753.9 509.55 753.9 509
L 753.9 490.05
Q 753.9 489.5 753.4 489.5
L 749.85 489.5
Q 749.3 489.5 749.3 490.05
L 749.3 493.85 742.5 493.85 742.5 490.7
M 749.3 497.55
L 749.3 501.25 742.5 501.25 742.5 497.55 749.3 497.55
M 738 499.7
L 738 503.7
Q 738 504.4 737.25 504.4
L 730.15 504.4
Q 729.4 504.4 729.4 503.7
L 729.4 499.7 738 499.7
M 748.65 445.15
Q 748.05 444.5 746.55 444.5
L 725.8 444.5
Q 725.6 444.5 725.4 444.65 725.25 444.8 725.25 445.05
L 725.25 447.8
Q 725.25 448 725.4 448.15 725.6 448.3 725.8 448.3
L 743.85 448.3
Q 744.3 448.3 744.45 448.4 744.65 448.5 744.65 448.95
L 744.65 455.85
Q 744.65 456.05 744.8 456.2 745 456.4 745.25 456.4
L 748.65 456.4
Q 748.85 456.4 749.05 456.2 749.25 456.05 749.25 455.85
L 749.25 447.3
Q 749.25 445.8 748.65 445.15
M 737.35 430.6
Q 736.2 429.7 734.6 429.2 733 428.7 731.2 428.7 729.4 428.7 727.8 429.2 726.25 429.7 725.1 430.6 723.9 431.5 723.2 432.7 722.55 433.9 722.55 435.4 722.55 436.85 723.2 438.1 723.9 439.35 725.1 440.25 726.25 441.15 727.8 441.65 729.35 442.15 731.15 442.15 733 442.15 734.55 441.65 736.15 441.15 737.35 440.25 738.5 439.35 739.2 438.1 739.85 436.85 739.85 435.4 739.85 433.9 739.2 432.7 738.5 431.5 737.35 430.6
M 731.2 432.2
Q 733.1 432.2 734.3 433.1 735.5 434 735.5 435.4 735.5 436.8 734.3 437.75 733.05 438.7 731.2 438.7 730.25 438.7 729.45 438.45 728.65 438.2 728.1 437.75 727.5 437.3 727.2 436.7 726.9 436.1 726.9 435.4 726.9 434 728.1 433.1 729.3 432.2 731.2 432.2
M 741.9 424.1
Q 741.7 423.9 741.45 423.9
L 720.3 423.9
Q 720.1 423.9 719.85 424.15 719.65 424.35 719.65 424.55
L 719.65 426.8
Q 719.65 427.05 719.85 427.2 720.05 427.45 720.25 427.45
L 741.45 427.45
Q 741.7 427.45 741.9 427.25 742.05 427.05 742.05 426.85
L 742.05 424.55
Q 742.05 424.3 741.9 424.1
M 736.7 419.1
Q 736.5 418.9 736.25 418.9
L 725.8 418.9
Q 725.65 418.9 725.4 419.1 725.2 419.25 725.2 419.5
L 725.2 421.8
Q 725.2 422.1 725.4 422.3 725.65 422.45 725.8 422.45
L 736.25 422.45
Q 736.55 422.45 736.75 422.2 736.9 422 736.9 421.75
L 736.9 419.55
Q 736.9 419.3 736.7 419.1
M 745.2 418.5
Q 744.65 418.5 744.65 419.05
L 744.65 442.3
Q 744.65 442.9 745.2 442.9
L 748.75 442.9
Q 749.3 442.9 749.3 442.35
L 749.3 433.65 754.65 433.65
Q 754.9 433.65 755.1 433.45 755.25 433.3 755.25 433.1
L 755.25 430.25
Q 755.25 430.05 755.1 429.95 754.9 429.8 754.65 429.8
L 749.3 429.8 749.3 419.05
Q 749.3 418.5 748.75 418.5
L 745.2 418.5
M 772.45 437.8
Q 773.1 438.25 773.6 437.65
L 775.1 435.6
Q 775.3 435.3 775.35 435.1 775.35 434.9 775 434.65 772.75 433.15 770.85 431 769 428.8 768.2 426.5 768.8 423.7 768.8 420.45 768.8 419.85 768.25 419.85
L 764.9 419.65
Q 764.7 419.65 764.55 419.85 764.35 420.05 764.35 420.35 764.35 422.7 764 424.9 763.65 427.05 762.75 429 761.85 430.95 760.3 432.75 758.8 434.55 756.45 436.2 755.7 436.85 756.3 437.45
L 757.8 439.2
Q 758.05 439.5 758.4 439.5 758.8 439.45 759.1 439.25 761.5 437.7 763.3 435.8 765.05 433.9 766.3 431.55 767.4 433.45 769.05 435.1 770.75 436.75 772.45 437.8
M 776.75 441.4
Q 774 441.4 771.65 441.95 769.3 442.45 767.55 443.45 765.8 444.45 764.85 445.85 763.85 447.25 763.85 448.9 763.85 450.65 764.85 452.05 765.8 453.45 767.55 454.4 769.3 455.4 771.65 455.95 774 456.5 776.75 456.5 779.3 456.5 781.65 455.95 784.05 455.4 785.8 454.4 787.6 453.4 788.7 452 789.75 450.6 789.75 448.9 789.75 447.2 788.7 445.8 787.6 444.45 785.8 443.45 784.05 442.45 781.65 441.95 779.3 441.4 776.75 441.4
M 773.7 445.3
Q 775.15 445.05 776.75 445.05 778.25 445.05 779.7 445.3 781.2 445.55 782.35 446.05 783.55 446.55 784.3 447.3 785 448 785 449.05 785 450 784.3 450.7 783.55 451.4 782.35 451.85 781.2 452.35 779.7 452.6 778.25 452.85 776.75 452.85 775.2 452.85 773.7 452.6 772.25 452.35 771.1 451.85 769.95 451.4 769.25 450.7 768.6 450 768.6 449.05 768.6 448 769.25 447.3 769.95 446.55 771.1 446.05 772.25 445.55 773.7 445.3
M 785.45 418.5
Q 784.9 418.5 784.9 419.05
L 784.9 428.25 781.3 428.25 781.3 419.65
Q 781.3 419.15 780.8 419.15
L 777.5 419.15
Q 776.95 419.15 776.95 419.65
L 776.95 439.35
Q 776.95 439.9 777.5 439.9
L 780.8 439.9
Q 781.3 439.9 781.3 439.35
L 781.3 432.05 784.9 432.05 784.9 440.4
Q 784.9 441 785.45 441
L 788.9 441
Q 789.45 441 789.45 440.4
L 789.45 419.05
Q 789.45 418.5 788.9 418.5
L 785.45 418.5
M 853.45 580.7
Q 853.15 580.7 853 580.9 852.85 581.1 852.85 581.3
L 852.85 583.9
Q 852.85 584.1 853 584.35 853.15 584.55 853.45 584.55
L 868.5 584.55 868.5 597.65
Q 868.5 598.2 869.05 598.2
L 872.55 598.2
Q 873.1 598.2 873.1 597.65
L 873.1 584.55 888.25 584.55
Q 888.45 584.55 888.65 584.35 888.85 584.1 888.85 583.9
L 888.85 581.3
Q 888.85 581.1 888.65 580.9 888.45 580.7 888.25 580.7
L 853.45 580.7
M 873.35 561.15
Q 873.35 560.5 872.8 560.5
L 869.4 560.4
Q 869.1 560.4 868.9 560.6 868.75 560.8 868.7 561.1 868.45 563.6 867.5 565.55 866.55 567.45 864.9 568.95 863.25 570.45 861 571.55 858.75 572.65 855.9 573.45 855.6 573.5 855.45 573.75 855.35 574.05 855.45 574.3
L 856.85 576.9
Q 856.95 577.05 857.2 577.1 857.5 577.1 857.8 577.05 862.35 575.85 865.8 573.7 869.25 571.5 871.15 568.45 872 569.85 873.45 571.1 874.9 572.4 876.65 573.5 878.45 574.55 880.4 575.35 882.35 576.1 884.3 576.45 884.95 576.6 885.15 576.1
L 886.35 573.45
Q 886.45 573.15 886.3 572.95 886.15 572.75 885.85 572.7 883.7 572.15 881.65 571.25 879.6 570.35 877.9 569.1 876.2 567.9 874.9 566.45 873.65 565 873.1 563.35 873.25 562.35 873.35 561.15
M 815 587.85
Q 814 589.25 814 590.9 814 592.65 815 594.05 815.95 595.45 817.7 596.4 819.45 597.4 821.8 597.95 824.15 598.5 826.9 598.5 829.45 598.5 831.8 597.95 834.2 597.4 835.95 596.4 837.75 595.4 838.85 594 839.9 592.6 839.9 590.9 839.9 589.2 838.85 587.8 837.75 586.45 835.95 585.45 834.2 584.45 831.8 583.95 829.45 583.4 826.9 583.4 824.15 583.4 821.8 583.95 819.45 584.45 817.7 585.45 815.95 586.45 815 587.85
M 818.75 591.05
Q 818.75 590 819.4 589.3 820.1 588.55 821.25 588.05 822.4 587.55 823.85 587.3 825.3 587.05 826.9 587.05 828.4 587.05 829.85 587.3 831.35 587.55 832.5 588.05 833.7 588.55 834.45 589.3 835.15 590 835.15 591.05 835.15 592 834.45 592.7 833.7 593.4 832.5 593.85 831.35 594.35 829.85 594.6 828.4 594.85 826.9 594.85 825.35 594.85 823.85 594.6 822.4 594.35 821.25 593.85 820.1 593.4 819.4 592.7 818.75 592 818.75 591.05
M 814.5 562.35
Q 814.5 564.7 814.15 566.9 813.8 569.05 812.9 571 812 572.95 810.45 574.75 808.95 576.55 806.6 578.2 805.85 578.85 806.45 579.45
L 807.95 581.2
Q 808.2 581.5 808.55 581.5 808.95 581.45 809.25 581.25 811.65 579.7 813.45 577.8 815.2 575.9 816.45 573.55 817.55 575.45 819.2 577.1 820.9 578.75 822.6 579.8 823.25 580.25 823.75 579.65
L 825.25 577.6
Q 825.45 577.3 825.5 577.1 825.5 576.9 825.15 576.65 822.9 575.15 821 573 819.15 570.8 818.35 568.5 818.95 565.7 818.95 562.45 818.95 561.85 818.4 561.85
L 815.05 561.65
Q 814.85 561.65 814.7 561.85 814.5 562.05 814.5 562.35
M 835.6 560.5
Q 835.05 560.5 835.05 561.05
L 835.05 570.25 831.45 570.25 831.45 561.65
Q 831.45 561.15 830.95 561.15
L 827.65 561.15
Q 827.1 561.15 827.1 561.65
L 827.1 581.35
Q 827.1 581.9 827.65 581.9
L 830.95 581.9
Q 831.45 581.9 831.45 581.35
L 831.45 574.05 835.05 574.05 835.05 582.4
Q 835.05 583 835.6 583
L 839.05 583
Q 839.6 583 839.6 582.4
L 839.6 561.05
Q 839.6 560.5 839.05 560.5
L 835.6 560.5
M 835.95 514.45
Q 834.2 513.45 831.8 512.95 829.45 512.4 826.9 512.4 824.15 512.4 821.8 512.95 819.45 513.45 817.7 514.45 815.95 515.45 815 516.85 814 518.25 814 519.9 814 521.65 815 523.05 815.95 524.45 817.7 525.4 819.45 526.4 821.8 526.95 824.15 527.5 826.9 527.5 829.45 527.5 831.8 526.95 834.2 526.4 835.95 525.4 837.75 524.4 838.85 523 839.9 521.6 839.9 519.9 839.9 518.2 838.85 516.8 837.75 515.45 835.95 514.45
M 832.5 517.05
Q 833.7 517.55 834.45 518.3 835.15 519 835.15 520.05 835.15 521 834.45 521.7 833.7 522.4 832.5 522.85 831.35 523.35 829.85 523.6 828.4 523.85 826.9 523.85 825.35 523.85 823.85 523.6 822.4 523.35 821.25 522.85 820.1 522.4 819.4 521.7 818.75 521 818.75 520.05 818.75 519 819.4 518.3 820.1 517.55 821.25 517.05 822.4 516.55 823.85 516.3 825.3 516.05 826.9 516.05 828.4 516.05 829.85 516.3 831.35 516.55 832.5 517.05
M 888.65 509.9
Q 888.45 509.7 888.25 509.7
L 853.45 509.7
Q 853.15 509.7 853 509.9 852.85 510.1 852.85 510.3
L 852.85 512.9
Q 852.85 513.1 853 513.35 853.15 513.55 853.45 513.55
L 868.5 513.55 868.5 526.65
Q 868.5 527.2 869.05 527.2
L 872.55 527.2
Q 873.1 527.2 873.1 526.65
L 873.1 513.55 888.25 513.55
Q 888.45 513.55 888.65 513.35 888.85 513.1 888.85 512.9
L 888.85 510.3
Q 888.85 510.1 888.65 509.9
M 868.7 490.1
Q 868.45 492.6 867.5 494.55 866.55 496.45 864.9 497.95 863.25 499.45 861 500.55 858.75 501.65 855.9 502.45 855.6 502.5 855.45 502.75 855.35 503.05 855.45 503.3
L 856.85 505.9
Q 856.95 506.05 857.2 506.1 857.5 506.1 857.8 506.05 862.35 504.85 865.8 502.7 869.25 500.5 871.15 497.45 872 498.85 873.45 500.1 874.9 501.4 876.65 502.5 878.45 503.55 880.4 504.35 882.35 505.1 884.3 505.45 884.95 505.6 885.15 505.1
L 886.35 502.45
Q 886.45 502.15 886.3 501.95 886.15 501.75 885.85 501.7 883.7 501.15 881.65 500.25 879.6 499.35 877.9 498.1 876.2 496.9 874.9 495.45 873.65 494 873.1 492.35 873.25 491.35 873.35 490.15 873.35 489.5 872.8 489.5
L 869.4 489.4
Q 869.1 489.4 868.9 489.6 868.75 489.8 868.7 490.1
M 818.95 491.45
Q 818.95 490.85 818.4 490.85
L 815.05 490.65
Q 814.85 490.65 814.7 490.85 814.5 491.05 814.5 491.35 814.5 493.7 814.15 495.9 813.8 498.05 812.9 500 812 501.95 810.45 503.75 808.95 505.55 806.6 507.2 805.85 507.85 806.45 508.45
L 807.95 510.2
Q 808.2 510.5 808.55 510.5 808.95 510.45 809.25 510.25 811.65 508.7 813.45 506.8 815.2 504.9 816.45 502.55 817.55 504.45 819.2 506.1 820.9 507.75 822.6 508.8 823.25 509.25 823.75 508.65
L 825.25 506.6
Q 825.45 506.3 825.5 506.1 825.5 505.9 825.15 505.65 822.9 504.15 821 502 819.15 499.8 818.35 497.5 818.95 494.7 818.95 491.45
M 827.65 490.15
Q 827.1 490.15 827.1 490.65
L 827.1 510.35
Q 827.1 510.9 827.65 510.9
L 830.95 510.9
Q 831.45 510.9 831.45 510.35
L 831.45 503.05 835.05 503.05 835.05 511.4
Q 835.05 512 835.6 512
L 839.05 512
Q 839.6 512 839.6 511.4
L 839.6 490.05
Q 839.6 489.5 839.05 489.5
L 835.6 489.5
Q 835.05 489.5 835.05 490.05
L 835.05 499.25 831.45 499.25 831.45 490.65
Q 831.45 490.15 830.95 490.15
L 827.65 490.15
M 838.5 438.9
Q 838.3 438.7 838.1 438.7
L 803.3 438.7
Q 803 438.7 802.85 438.9 802.7 439.1 802.7 439.3
L 802.7 441.9
Q 802.7 442.1 802.85 442.35 803 442.55 803.3 442.55
L 818.35 442.55 818.35 455.65
Q 818.35 456.2 818.9 456.2
L 822.4 456.2
Q 822.95 456.2 822.95 455.65
L 822.95 442.55 838.1 442.55
Q 838.3 442.55 838.5 442.35 838.7 442.1 838.7 441.9
L 838.7 439.3
Q 838.7 439.1 838.5 438.9
M 818.75 418.6
Q 818.6 418.8 818.55 419.1 818.3 421.6 817.35 423.55 816.4 425.45 814.75 426.95 813.1 428.45 810.85 429.55 808.6 430.65 805.75 431.45 805.45 431.5 805.3 431.75 805.2 432.05 805.3 432.3
L 806.7 434.9
Q 806.8 435.05 807.05 435.1 807.35 435.1 807.65 435.05 812.2 433.85 815.65 431.7 819.1 429.5 821 426.45 821.85 427.85 823.3 429.1 824.75 430.4 826.5 431.5 828.3 432.55 830.25 433.35 832.2 434.1 834.15 434.45 834.8 434.6 835 434.1
L 836.2 431.45
Q 836.3 431.15 836.15 430.95 836 430.75 835.7 430.7 833.55 430.15 831.5 429.25 829.45 428.35 827.75 427.1 826.05 425.9 824.75 424.45 823.5 423 822.95 421.35 823.1 420.35 823.2 419.15 823.2 418.5 822.65 418.5
L 819.25 418.4
Q 818.95 418.4 818.75 418.6
M 752.5 362.25
Q 751.85 361 750.6 360.1 749.45 359.25 747.8 358.7 746.2 358.25 744.4 358.25 742.6 358.25 741 358.7 739.4 359.25 738.2 360.1 737 361 736.3 362.25 735.6 363.5 735.6 365 735.6 366.3 736.05 367.35 736.55 368.4 737.4 369.25 738.25 370.05 739.45 370.65 740.6 371.25 742 371.5
L 742 375.1
Q 737.35 375.2 732.8 375.1 732.25 375.1 732.25 375.7
L 732.25 378.3
Q 732.25 378.55 732.4 378.75 732.6 378.9 732.8 378.9 738.6 379 744.6 378.7 750.6 378.45 756.2 377.5 756.4 377.45 756.55 377.3 756.7 377.15 756.65 376.85
L 756.4 374.35
Q 756.4 374.05 756.15 373.95 755.9 373.9 755.7 373.95 751.15 374.7 746.45 374.9
L 746.45 371.55
Q 747.9 371.3 749.15 370.75 750.4 370.15 751.3 369.3 752.2 368.45 752.7 367.35 753.2 366.3 753.2 365 753.2 363.5 752.5 362.25
M 741.2 362.7
Q 742.45 361.8 744.4 361.8 746.35 361.8 747.6 362.7 748.85 363.6 748.85 365 748.85 366.4 747.6 367.3 746.35 368.25 744.4 368.25 742.4 368.25 741.15 367.3 739.9 366.4 739.9 365 739.9 363.6 741.2 362.7
M 755.25 354
Q 755.25 353.75 755.1 353.55 754.9 353.4 754.65 353.4
L 733.6 353.4
Q 733.4 353.4 733.15 353.6 732.9 353.8 732.9 354
L 732.9 356.25
Q 732.9 356.45 733.1 356.65 733.35 356.85 733.55 356.85
L 754.65 356.85
Q 754.9 356.85 755.1 356.7 755.25 356.5 755.25 356.3
L 755.25 354
M 750 351.55
Q 750.2 351.35 750.2 351.05
L 750.2 348.85
Q 750.2 348.6 749.95 348.4 749.8 348.2 749.55 348.2
L 738.8 348.2
Q 738.65 348.2 738.45 348.35 738.2 348.5 738.2 348.8
L 738.2 351.1
Q 738.2 351.45 738.45 351.6 738.65 351.75 738.8 351.75
L 749.55 351.75
Q 749.8 351.75 750 351.55
M 762.8 348.05
Q 762.8 347.5 762.3 347.5
L 758.75 347.5
Q 758.2 347.5 758.2 348.05
L 758.2 384.95
Q 758.2 385.5 758.75 385.5
L 762.3 385.5
Q 762.8 385.5 762.8 384.95
L 762.8 367.1 768.05 367.1
Q 768.25 367.1 768.45 366.9 768.6 366.75 768.6 366.55
L 768.6 363.75
Q 768.6 363.55 768.45 363.4 768.25 363.25 768.05 363.25
L 762.8 363.25 762.8 348.05
M 762.2 304.5
Q 761.4 303.15 759.9 302.2 758.4 301.3 756.15 300.75 753.95 300.25 751.1 300.25 748.25 300.25 746.05 300.75 743.8 301.3 742.3 302.2 740.75 303.15 739.9 304.5 739.1 305.8 739.1 307.35 739.1 308.9 739.9 310.2 740.75 311.55 742.3 312.45 743.8 313.4 746.05 313.9 748.25 314.45 751.1 314.45 753.95 314.45 756.15 313.9 758.4 313.4 759.9 312.45 761.4 311.55 762.2 310.2 763 308.9 763 307.35 763 305.8 762.2 304.5
M 756.35 304.8
Q 758.2 305.7 758.2 307.35 758.2 309 756.35 309.9 754.5 310.85 751.1 310.85 747.7 310.85 745.85 309.9 744 309 744 307.35 744 305.7 745.85 304.8 747.7 303.85 751.1 303.85 754.5 303.85 756.35 304.8
M 708.7 373.3
Q 708.5 373.1 708.2 373.1
L 704.8 373.1
Q 704.6 373.1 704.4 373.3 704.25 373.5 704.25 373.7
L 704.25 381.95
Q 704.25 383.5 704.85 384.15 705.5 384.8 707.3 384.8
L 728.1 384.8
Q 728.3 384.8 728.5 384.7 728.65 384.55 728.65 384.3
L 728.65 381.45
Q 728.65 381.3 728.5 381.1 728.3 380.95 728.1 380.95
L 709.6 380.95
Q 709.2 380.95 709 380.85 708.85 380.7 708.85 380.3
L 708.85 373.7
Q 708.85 373.5 708.7 373.3
M 722.9 348.05
L 722.9 353.6 716.1 353.6 716.1 349.75
Q 716.1 349.55 715.95 349.4 715.8 349.25 715.55 349.25
L 712.05 349.25
Q 711.85 349.25 711.7 349.4 711.55 349.55 711.55 349.75
L 711.55 356.05 703.05 356.05 703.05 349.8
Q 703.05 349.6 702.9 349.45 702.7 349.3 702.5 349.3
L 699 349.3
Q 698.8 349.3 698.65 349.45 698.5 349.6 698.5 349.8
L 698.5 366.1
Q 698.5 367.7 699.15 368.3 699.75 368.9 701.55 368.9
L 713.1 368.9
Q 714.8 368.9 715.45 368.25 716.1 367.6 716.1 366.25
L 716.1 365.25 722.9 365.25 722.9 374.25
Q 722.9 374.75 723.45 374.75
L 727 374.75
Q 727.5 374.75 727.5 374.25
L 727.5 348.05
Q 727.5 347.5 727 347.5
L 723.45 347.5
Q 722.9 347.5 722.9 348.05
M 711.55 359.75
L 711.55 364.35
Q 711.55 365.05 710.85 365.05
L 703.8 365.05
Q 703.05 365.05 703.05 364.35
L 703.05 359.75 711.55 359.75
M 722.9 357.2
L 722.9 361.65 716.1 361.65 716.1 357.2 722.9 357.2
M 658.4 373.9
Q 658.4 373.65 658.25 373.45 658.05 373.25 657.85 373.25
L 654.4 373.25
Q 654.2 373.25 654 373.45 653.8 373.65 653.8 373.9
L 653.8 381.7
Q 653.8 383.25 654.45 383.9 655.05 384.55 656.85 384.55
L 678.9 384.55
Q 679.1 384.55 679.3 384.4 679.5 384.3 679.5 384.05
L 679.5 381.2
Q 679.5 381 679.3 380.85 679.1 380.7 678.9 380.7
L 659.2 380.7
Q 658.75 380.7 658.6 380.6 658.4 380.5 658.4 380.05
L 658.4 373.9
M 675.35 350.1
Q 673.65 349.2 671.3 348.7 668.95 348.2 666.15 348.2 663.35 348.2 660.95 348.7 658.65 349.2 656.95 350.1 655.25 351.05 654.25 352.4 653.35 353.8 653.35 355.5 653.35 357.1 654.1 358.3 654.85 359.55 656.25 360.5 657.55 361.4 659.5 361.95 661.4 362.5 663.75 362.7
L 663.75 366.85 648.65 366.85
Q 648.05 366.85 648.05 367.45
L 648.05 370.05
Q 648.05 370.25 648.2 370.5 648.35 370.65 648.65 370.65
L 683.45 370.65
Q 683.65 370.65 683.85 370.5 684.05 370.25 684.05 370.05
L 684.05 367.45
Q 684.05 367.25 683.85 367 683.65 366.85 683.45 366.85
L 668.35 366.85 668.35 362.7
Q 670.65 362.55 672.6 361.95 674.6 361.4 675.95 360.5 677.35 359.6 678.1 358.35 678.9 357.1 678.9 355.5 678.9 353.8 677.95 352.4 677.05 351.05 675.35 350.1
M 671.85 358.1
Q 670.8 358.6 669.3 358.85 667.85 359.1 666.15 359.1 664.4 359.1 662.95 358.85 661.45 358.6 660.4 358.1 659.35 357.65 658.75 356.95 658.15 356.3 658.15 355.5 658.15 354.7 658.75 354.05 659.35 353.35 660.4 352.85 661.45 352.4 662.95 352.15 664.4 351.85 666.15 351.85 667.85 351.85 669.3 352.15 670.8 352.4 671.85 352.85 672.9 353.35 673.5 354.05 674.1 354.7 674.1 355.5 674.1 356.3 673.5 356.95 672.9 357.65 671.85 358.1
M 726 307.8
Q 726 306.3 725.15 305.05 724.25 303.8 722.65 302.9 721 302 718.65 301.5 716.25 301 713.25 301 710.25 301 707.9 301.5 705.5 302 703.9 302.9 702.25 303.8 701.4 305.05 700.55 306.3 700.55 307.8 700.55 309.3 701.4 310.55 702.25 311.8 703.9 312.7 705.5 313.65 707.9 314.15 710.25 314.65 713.25 314.65 716.25 314.65 718.65 314.15 721 313.65 722.65 312.7 724.25 311.8 725.15 310.55 726 309.3 726 307.8
M 721.4 307.85
Q 721.4 308.45 720.9 309.05 720.35 309.65 719.3 310.15 718.3 310.65 716.75 310.9 715.2 311.2 713.25 311.2 711.25 311.2 709.75 310.9 708.2 310.65 707.2 310.15 706.2 309.65 705.65 309.05 705.1 308.45 705.1 307.85 705.1 307.2 705.65 306.6 706.2 306 707.2 305.5 708.2 305.05 709.75 304.75 711.25 304.5 713.25 304.5 715.2 304.5 716.75 304.75 718.3 305.05 719.3 305.5 720.35 306 720.9 306.6 721.4 307.2 721.4 307.85
M 684.95 276.5
Q 684.4 276.5 684.4 277.05
L 684.4 313.95
Q 684.4 314.5 684.95 314.5
L 688.5 314.5
Q 689.05 314.5 689.05 313.95
L 689.05 294.95 694.45 294.95
Q 694.65 294.95 694.85 294.8 695 294.65 695 294.4
L 695 291.6
Q 695 291.4 694.85 291.25 694.65 291.1 694.45 291.1
L 689.05 291.1 689.05 277.05
Q 689.05 276.5 688.5 276.5
L 684.95 276.5
M 667.35 288.35
Q 667 289.75 666.5 291.2 665.4 294.5 663.55 297.35 661.7 300.25 659.1 302.6 658.4 303.25 659 303.85
L 660.85 305.6
Q 661.5 306.25 662.25 305.65 663.35 304.75 664.45 303.5 665.55 302.3 666.6 300.9 667.6 299.5 668.55 297.9 669.45 296.3 670.2 294.6 670.7 295.85 671.55 297.25 672.4 298.65 673.35 299.95 674.35 301.25 675.4 302.35 676.5 303.45 677.45 304.2 677.85 304.5 678.2 304.5 678.55 304.45 678.75 304.15
L 680.4 302.1
Q 681 301.35 680.35 300.85 679.05 299.85 677.75 298.35 676.45 296.9 675.35 295.15 674.2 293.4 673.4 291.55 672.55 289.65 672.15 287.8 672.5 285.85 672.65 283.75 672.8 281.65 672.8 279.2 672.8 278.95 672.65 278.8 672.5 278.6 672.3 278.6
L 668.75 278.45
Q 668.55 278.45 668.35 278.65 668.2 278.85 668.2 279.05 668.25 280.85 668.15 282.4 668.05 284 667.85 285.45 667.65 286.9 667.35 288.35
M 762.6 277.05
Q 762.6 276.5 762.05 276.5
L 758.5 276.5
Q 758 276.5 758 277.05
L 758 299.05
Q 758 299.65 758.5 299.65
L 762.05 299.65
Q 762.6 299.65 762.6 299.1
L 762.6 294.6 768 294.6
Q 768.2 294.6 768.4 294.4 768.6 294.2 768.6 294.05
L 768.6 291.25
Q 768.6 291 768.4 290.9 768.2 290.75 768 290.75
L 762.6 290.75 762.6 286.8 768 286.8
Q 768.2 286.8 768.4 286.65 768.6 286.45 768.6 286.25
L 768.6 283.4
Q 768.6 283.25 768.4 283.1 768.2 282.95 768 282.95
L 762.6 282.95 762.6 277.05
M 731.05 295.2
Q 730.85 295.05 730.65 295.05
L 722 295.05 722 289.7
Q 723.95 288.75 725 287.35 726 286 726 284.2 726 282.6 725.1 281.3 724.15 279.95 722.45 279 720.8 278.05 718.45 277.55 716.15 277.1 713.35 277.1 710.55 277.1 708.2 277.55 705.85 278.05 704.2 279 702.5 279.95 701.55 281.3 700.6 282.6 700.6 284.2 700.6 285.95 701.65 287.3 702.65 288.7 704.45 289.6
L 704.45 295.05 695.85 295.05
Q 695.55 295.05 695.4 295.2 695.25 295.4 695.25 295.65
L 695.25 298.15
Q 695.25 298.35 695.4 298.55 695.55 298.75 695.85 298.75
L 730.65 298.75
Q 730.85 298.75 731.05 298.55 731.25 298.35 731.25 298.15
L 731.25 295.65
Q 731.25 295.45 731.05 295.2
M 706 282.85
Q 706.6 282.2 707.65 281.7 708.65 281.25 710.15 280.95 711.6 280.7 713.35 280.75 715.05 280.75 716.5 281 718 281.3 719 281.75 720.05 282.25 720.65 282.85 721.25 283.45 721.25 284.2 721.25 285 720.65 285.65 720.05 286.3 719 286.75 718 287.25 716.5 287.5 715.05 287.75 713.35 287.75 711.6 287.75 710.15 287.5 708.65 287.25 707.65 286.75 706.6 286.3 706 285.65 705.4 285 705.4 284.2 705.4 283.45 706 282.85
M 708.95 295.05
L 708.95 291.1
Q 710.05 291.25 711.1 291.3 712.15 291.4 713.35 291.4 714.45 291.4 715.5 291.3 716.5 291.25 717.5 291.1
L 717.5 295.05 708.95 295.05
M 747.2 281.8
Q 747.3 281.9 747.3 282.35
L 747.3 285.45
Q 747.3 285.85 747.2 285.95 747.15 286 746.7 286
L 737.45 286
Q 736.2 286 735.65 286.55 735.1 287.1 735.1 288.25
L 735.1 295.05
Q 735.1 296.3 735.65 296.85 736.2 297.45 737.8 297.5 739.9 297.6 742.3 297.55 744.65 297.45 747 297.3 749.4 297.15 751.6 296.85 753.85 296.6 755.75 296.25 755.95 296.2 756.1 296 756.25 295.85 756.2 295.65
L 755.8 293.2
Q 755.75 292.95 755.55 292.9 755.35 292.85 755.15 292.9 751.85 293.4 747.95 293.7 744 293.95 740.4 293.85 739.65 293.85 739.65 293.2
L 739.65 290
Q 739.65 289.65 739.8 289.55 739.9 289.45 740.25 289.45
L 749.35 289.45
Q 750.6 289.45 751.25 288.85 751.85 288.3 751.85 286.8
L 751.85 280.8
Q 751.85 279.4 751.3 278.8 750.75 278.15 749.15 278.15
L 735.8 278.15
Q 735.6 278.15 735.45 278.3 735.25 278.4 735.25 278.65
L 735.25 281.25
Q 735.25 281.45 735.45 281.6 735.6 281.75 735.8 281.75
L 746.7 281.75
Q 747.15 281.75 747.2 281.8 Z"/>

<path fill="#FFFFFF" stroke="none" d="
M 1020.35 574.8
Q 1005.35 574.8 1005.35 589.8
L 1005.35 619.85
Q 1005.35 623.5 1006.1 625.8 1008.85 634.85 1020.35 634.85
L 1090.35 634.85
Q 1102.05 634.85 1104.6 625.8 1105.35 623.1 1105.35 619.85
L 1105.35 589.8
Q 1105.35 574.8 1090.35 574.8
L 1020.35 574.8
M 1155.35 574.8
Q 1140.35 574.8 1140.35 589.8
L 1140.35 619.85
Q 1140.35 623.5 1141.1 625.8 1143.85 634.85 1155.35 634.85
L 1225.35 634.85
Q 1237.05 634.85 1239.6 625.8 1240.35 623.1 1240.35 619.85
L 1240.35 589.8
Q 1240.35 574.8 1225.35 574.8
L 1155.35 574.8 Z"/>
</g>

<g id="Duplicate_Items_Folder_gfngfnfm_0_Layer1_0_FILL">
<path fill="#26B6BD" stroke="none" d="
M 40 -7.5
Q 40 -22.5 25 -22.5
L -25 -22.5
Q -40 -22.5 -40 -7.5
L -40 7.5
Q -40 22.5 -25 22.5
L 25 22.5
Q 40 22.5 40 7.5
L 40 -7.5 Z"/>
</g>

<g id="Duplicate_Items_Folder_gfngfnfm_0_Layer0_0_FILL">
<path fill="#FFFFFF" stroke="none" d="
M -3.4 5.75
Q -3.5 5.2 -3.75 4.65 -4 4.2 -4.4 3.8 -4.75 3.35 -5.2 3 -5.7 2.7 -6.25 2.4 -6.85 2.15 -7.55 1.95 -8.2 1.8 -8.95 1.7 -9.7 1.6 -10.5 1.6 -11.35 1.6 -12.1 1.7 -12.9 1.8 -13.5 1.95 -14.2 2.15 -14.75 2.4 -15.3 2.7 -15.75 3 -16.25 3.35 -16.6 3.75 -16.95 4.15 -17.2 4.65 -17.7 5.65 -17.7 6.9 -17.7 7.55 -17.6 8.1 -17.45 8.65 -17.2 9.15 -16.95 9.6 -16.55 10 -16.2 10.4 -15.7 10.75 -15.25 11.1 -14.7 11.35 -14.15 11.6 -13.45 11.8 -12.85 11.95 -12.1 12.05 -11.35 12.15 -10.5 12.15 -9.75 12.15 -9 12.05 -8.25 11.95 -7.6 11.8 -6.2 11.4 -5.25 10.75 -4.8 10.4 -4.4 9.95 -4.05 9.55 -3.75 9.1 -3.25 8.15 -3.25 6.9 -3.25 6.3 -3.4 5.75
M -8.75 4.45
Q -7.95 4.6 -7.35 4.95 -6.25 5.6 -6.25 6.9 -6.25 7.5 -6.55 8 -6.85 8.45 -7.4 8.75 -8 9.1 -8.8 9.3 -9.55 9.45 -10.45 9.45 -11.45 9.45 -12.25 9.3 -13 9.1 -13.55 8.75 -14.15 8.45 -14.45 7.95 -14.75 7.5 -14.7 6.9 -14.75 6.25 -14.45 5.75 -14.15 5.3 -13.55 4.95 -13 4.6 -12.25 4.45 -11.45 4.3 -10.45 4.3 -9.5 4.3 -8.75 4.45
M -20.7 -8.1
Q -21.05 -7.7 -21.25 -7.15 -21.7 -6.1 -21.7 -4.85 -21.7 -4.2 -21.6 -3.65 -21.45 -3.05 -21.25 -2.55 -21.05 -2.05 -20.7 -1.6 -20.4 -1.15 -20.05 -0.8 -19.7 -0.45 -19.25 -0.15 -18.8 0.1 -18.25 0.3 -17.7 0.45 -17.1 0.55 -16.45 0.65 -15.75 0.65 -15.1 0.65 -14.5 0.55 -13.95 0.45 -13.4 0.3 -12.9 0.1 -12.4 -0.15 -11.9 -0.45 -11.45 -0.8 -11.3 -1 -11.15 -1.2 -10.95 -1.35 -10.85 -1.6
L -5.9 -1.6 -5.9 0.25
Q -5.9 0.55 -5.8 0.8 -5.7 1 -5.5 1.05 -5.3 1.2 -5.05 1.25 -4.8 1.3 -4.5 1.3 -4.25 1.3 -4 1.25 -3.75 1.2 -3.55 1.05 -3.3 1 -3.2 0.8 -3.1 0.55 -3.1 0.25
L -3.1 -10.2
Q -3.1 -10.5 -3.2 -10.7 -3.3 -10.9 -3.55 -11.05 -3.75 -11.1 -4 -11.15 -4.25 -11.2 -4.5 -11.2 -4.8 -11.2 -5.05 -11.15 -5.3 -11.1 -5.5 -11.05 -5.7 -10.9 -5.8 -10.7 -5.9 -10.5 -5.9 -10.2
L -5.9 -8.35 -11 -8.35
Q -11.1 -8.5 -11.25 -8.65 -11.35 -8.8 -11.45 -8.95 -11.9 -9.25 -12.4 -9.55 -12.9 -9.8 -13.4 -10 -13.95 -10.2 -14.5 -10.3 -15.1 -10.4 -15.75 -10.4 -16.45 -10.4 -17.1 -10.3 -17.7 -10.2 -18.25 -10 -18.8 -9.8 -19.25 -9.55 -19.7 -9.25 -20.05 -8.95 -20.4 -8.55 -20.7 -8.1
M -14.5 -7.55
Q -13.95 -7.4 -13.5 -7 -13.05 -6.6 -12.85 -6.1 -12.65 -5.55 -12.6 -4.85 -12.65 -4.2 -12.85 -3.65 -13.05 -3.15 -13.5 -2.75 -13.95 -2.35 -14.5 -2.15 -15.05 -1.95 -15.7 -1.95 -16.5 -1.95 -17.1 -2.15 -17.65 -2.35 -18.05 -2.75 -18.85 -3.5 -18.85 -4.85 -18.85 -5.55 -18.65 -6.1 -18.45 -6.6 -18.05 -7 -17.25 -7.75 -15.7 -7.75 -15.05 -7.75 -14.5 -7.55
M -10 -4.05
Q -10 -4.25 -10 -4.45 -9.95 -4.65 -9.95 -4.85 -9.95 -5.1 -10 -5.35 -10 -5.6 -10.05 -5.9
L -5.9 -5.9 -5.9 -4.05 -10 -4.05
M 7.05 -4.15
Q 6 -3.45 5.5 -2.6 5 -1.7 5 -0.65 5 -0.15 5.1 0.35 5.25 0.8 5.5 1.2 5.75 1.65 6.1 2 6.45 2.35 6.9 2.65 7.35 2.95 7.9 3.2 8.4 3.45 9.05 3.6 9.35 3.7 9.65 3.8 9.95 3.85 10.3 3.9
L 10.3 5.9 1.95 5.9
Q 1.35 5.9 1.1 6.25 0.95 6.5 0.9 6.7 0.85 6.95 0.85 7.25 0.85 7.5 0.9 7.7 0.95 7.95 1.1 8.15 1.2 8.35 1.4 8.45 1.6 8.55 1.95 8.55
L 21.6 8.55
Q 21.85 8.55 22.05 8.45 22.25 8.35 22.4 8.15 22.55 7.95 22.65 7.7 22.7 7.5 22.7 7.25 22.7 6.7 22.4 6.25 22.25 6.1 22.05 6 21.85 5.9 21.6 5.9
L 13.25 5.9 13.25 3.9
Q 13.55 3.85 13.85 3.8 14.15 3.7 14.5 3.6 15.65 3.3 16.55 2.65 17.05 2.35 17.45 2 17.8 1.65 18.1 1.2 18.3 0.8 18.45 0.35 18.6 -0.15 18.6 -0.65 18.6 -1.7 18.05 -2.55 17.55 -3.45 16.55 -4.15
L 16.55 -4.1
Q 15.55 -4.7 14.35 -5 13.15 -5.3 11.7 -5.3 10.3 -5.3 9.1 -5 7.95 -4.7 7.05 -4.1
L 7.05 -4.15
M 8 -0.75
Q 8 -0.95 8.05 -1.15 8.1 -1.35 8.25 -1.55 8.35 -1.75 8.55 -1.9 8.75 -2.05 9.05 -2.15 9.25 -2.3 9.55 -2.4 9.8 -2.55 10.2 -2.65 10.9 -2.8 11.7 -2.8 12.5 -2.8 13.3 -2.65 13.65 -2.55 13.95 -2.4 14.25 -2.3 14.5 -2.15 14.7 -2 14.9 -1.85 15.05 -1.7 15.2 -1.55 15.55 -1.15 15.55 -0.75 15.55 -0.3 15.25 0.05 15 0.4 14.5 0.65 13.95 0.95 13.25 1.1 12.55 1.25 11.7 1.25 10.85 1.25 10.2 1.1 9.55 0.95 9.05 0.7 8.55 0.4 8.25 0.05 8 -0.3 8 -0.75
M 3.9 -7.8
Q 3.9 -7.5 3.95 -7.3 4 -7.05 4.1 -6.85 4.2 -6.65 4.45 -6.55 4.65 -6.45 5 -6.45 6.6 -6.45 8.25 -6.45 9.9 -6.4 11.55 -6.4 13.25 -6.4 14.9 -6.4 16.6 -6.4 18.3 -6.4
L 18.5 -6.4
Q 18.75 -6.4 19 -6.5 19.2 -6.6 19.35 -6.85 19.55 -7.05 19.6 -7.25 19.7 -7.5 19.7 -7.75 19.7 -8.35 19.3 -8.7 19.1 -8.9 18.85 -9 18.65 -9.05 18.35 -9.05
L 13.15 -9.05 13.15 -10.8
Q 13.15 -11.1 13.05 -11.35 12.95 -11.55 12.75 -11.65 12.5 -11.75 12.25 -11.8 12 -11.85 11.75 -11.85 11.45 -11.85 11.25 -11.8 11 -11.75 10.8 -11.65 10.55 -11.55 10.45 -11.35 10.35 -11.1 10.35 -10.8
L 10.35 -9.05 5 -9.05
Q 4.65 -9.05 4.45 -9 4.2 -8.9 4.1 -8.7 4 -8.5 3.95 -8.3 3.9 -8.05 3.9 -7.8 Z"/>
</g>

<g id="Duplicate_Items_Folder_gfngfnfm_1_Layer1_0_FILL">
<path fill="#EEB278" stroke="none" d="
M 40 -7.5
Q 40 -22.5 25 -22.5
L -25 -22.5
Q -40 -22.5 -40 -7.5
L -40 7.5
Q -40 22.5 -25 22.5
L 25 22.5
Q 40 22.5 40 7.5
L 40 -7.5 Z"/>
</g>

<g id="Duplicate_Items_Folder_gfngfnfm_1_Layer0_0_FILL">
<path fill="#FFFFFF" stroke="none" d="
M -3.35 -10.1
Q -3.35 -10.45 -3.45 -10.65 -3.55 -10.9 -3.7 -11 -3.95 -11.1 -4.2 -11.15 -4.45 -11.2 -4.75 -11.2 -5 -11.2 -5.25 -11.15 -5.45 -11.1 -5.65 -11 -5.9 -10.9 -6 -10.65 -6.15 -10.45 -6.15 -10.1
L -6.15 10.65
Q -6.15 10.9 -6 11.15 -5.9 11.35 -5.65 11.5 -5.45 11.6 -5.25 11.65 -5 11.75 -4.75 11.75 -4.45 11.75 -4.2 11.65 -3.95 11.6 -3.7 11.5 -3.55 11.35 -3.45 11.15 -3.35 10.9 -3.35 10.65
L -3.35 -10.1
M -20.45 -8.45
Q -20.8 -8.05 -21.15 -7.55 -21.45 -7.1 -21.75 -6.5 -22 -5.9 -22.2 -5.2 -22.4 -4.5 -22.5 -3.7 -22.6 -2.9 -22.6 -2 -22.6 -1.1 -22.5 -0.3 -22.4 0.5 -22.2 1.2 -22 1.9 -21.75 2.45 -21.45 3.05 -21.15 3.55 -20.8 4.05 -20.45 4.4 -20.05 4.8 -19.6 5.05 -19.1 5.3 -18.55 5.4 -18.05 5.55 -17.45 5.55 -16.85 5.55 -16.3 5.4 -15.75 5.3 -15.3 5.05 -14.8 4.8 -14.4 4.4 -13.95 4.05 -13.55 3.55 -13.4 3.25 -13.2 2.95 -13.05 2.6 -12.9 2.2
L -10.2 2.2 -10.2 9.9
Q -10.2 10.25 -10.1 10.45 -9.95 10.65 -9.75 10.8 -9.55 10.9 -9.3 11 -9.1 11.05 -8.8 11.05 -8.55 11.05 -8.25 11 -8 10.9 -7.8 10.8 -7.6 10.65 -7.5 10.45 -7.4 10.25 -7.4 9.9
L -7.4 -9.7
Q -7.4 -10 -7.5 -10.2 -7.6 -10.4 -7.8 -10.55 -8 -10.65 -8.25 -10.7 -8.55 -10.75 -8.8 -10.75 -9.1 -10.75 -9.3 -10.7 -9.55 -10.65 -9.75 -10.55 -9.95 -10.4 -10.1 -10.2 -10.2 -10 -10.2 -9.7
L -10.2 -6.45 -13 -6.45
Q -13.15 -6.75 -13.3 -7.05 -13.45 -7.3 -13.55 -7.55 -13.95 -8.05 -14.4 -8.45 -14.8 -8.8 -15.3 -9.05 -15.75 -9.35 -16.3 -9.45 -16.85 -9.6 -17.45 -9.6 -18.05 -9.6 -18.55 -9.45 -19.1 -9.35 -19.6 -9.05 -20.05 -8.8 -20.45 -8.45
M -18.45 -6.65
Q -18 -6.95 -17.4 -6.95 -16.85 -6.95 -16.4 -6.65 -15.95 -6.3 -15.6 -5.65 -15.25 -4.95 -15.1 -4.05 -14.95 -3.15 -14.95 -2 -14.95 -0.85 -15.1 0.1 -15.25 1 -15.6 1.65 -15.95 2.35 -16.4 2.65 -16.85 2.95 -17.4 2.95 -18 2.95 -18.45 2.65 -18.85 2.35 -19.15 1.65 -19.5 1 -19.65 0.1 -19.8 -0.85 -19.8 -2 -19.8 -3.15 -19.65 -4.05 -19.5 -4.95 -19.15 -5.65 -18.85 -6.3 -18.45 -6.65
M -10.2 -0.4
L -12.35 -0.4
Q -12.3 -0.75 -12.25 -1.2 -12.25 -1.55 -12.25 -2 -12.25 -2.5 -12.3 -2.95 -12.3 -3.4 -12.35 -3.8
L -10.2 -3.8 -10.2 -0.4
M 17.2 -10.5
Q 17.1 -10.25 17.1 -9.95
L 17.1 10.45
Q 17.1 10.8 17.2 11.05 17.3 11.3 17.5 11.4 17.65 11.6 17.9 11.65 18.15 11.75 18.5 11.75 18.95 11.75 19.35 11.4 19.55 11.3 19.65 11.05 19.75 10.8 19.75 10.45
L 19.75 -9.95
Q 19.75 -10.25 19.65 -10.5 19.55 -10.75 19.35 -10.9 19.15 -11.05 18.95 -11.15 18.7 -11.2 18.5 -11.2 18.15 -11.2 17.9 -11.15 17.65 -11.05 17.5 -10.9 17.3 -10.75 17.2 -10.5
M 3.6 5.15
L 3.6 5.1
Q 3.5751953125 5.131640625 3.55 5.15
L 3.6 5.15
M 2.45 -6.6
Q 2.7 -6.5 3.05 -6.5
L 6.15 -6.5 6.15 -4.9
Q 6.15 -2.5 5.1 -0.65 4.6 0.3 3.85 1.15 3.1 2 2.15 2.7 2.1240234375 2.7259765625 2.1 2.75 1.9828125 2.8671875 1.9 2.95 1.75 3.1 1.6 3.15 1.5 3.3 1.45 3.4 1.4 3.55 1.4 3.65 1.4 3.8 1.4 3.9 1.45 4.05 1.55 4.15 1.7 4.5 1.95 4.7 2 4.85 2.1 4.95 2.25 5.05 2.4 5.1 2.55 5.2 2.7 5.25 2.9 5.3 3.05 5.25 3.15 5.3 3.3 5.25 3.45 5.2 3.6 5.1
L 3.6 5.1
Q 4.3201171875 4.5798828125 4.9 4 5.55 3.45 6.05 2.8 6.55 2.2 6.95 1.5 7.4 0.8 7.75 0.05 8.1 0.75 8.55 1.45 8.95 2.1 9.45 2.8 10 3.45 10.6 4 11.25 4.5 11.95 4.9
L 12 4.9
Q 12 4.95 12.05 4.95 12.2 5.05 12.35 5.1 12.45 5.15 12.6 5.15 12.8 5.15 12.9 5.15 13.05 5.1 13.2 5.05 13.3 4.95 13.4 4.85 13.5 4.75 13.55 4.6 13.75 4.4 13.95 4.1 14 4 14.05 3.85 14.1 3.7 14.1 3.55 14.1 3.35 14 3.2 13.85 3 13.6 2.85 12.55 2.05 11.75 1.2 10.95 0.35 10.4 -0.65 9.3 -2.55 9.3 -4.85
L 9.3 -6.5 12.4 -6.5
Q 12.7 -6.5 12.9 -6.6 13.1 -6.7 13.25 -6.95 13.35 -7.1 13.4 -7.35 13.45 -7.6 13.45 -7.85 13.45 -8.1 13.4 -8.3 13.35 -8.55 13.25 -8.75 13.15 -8.95 12.9 -9.05 12.7 -9.1 12.4 -9.1
L 3.05 -9.1
Q 2.7 -9.1 2.45 -9.05 2.25 -8.95 2.15 -8.75 2.05 -8.55 2 -8.3 1.95 -8.1 1.95 -7.85 1.95 -7.55 2 -7.3 2.05 -7.1 2.15 -6.9 2.25 -6.7 2.45 -6.6 Z"/>
</g>

<g id="Duplicate_Items_Folder_gfngfnfm_2_Layer1_0_FILL">
<path fill="#8394D9" stroke="none" d="
M 40 -7.5
Q 40 -22.5 25 -22.5
L -25 -22.5
Q -40 -22.5 -40 -7.5
L -40 7.5
Q -40 22.5 -25 22.5
L 25 22.5
Q 40 22.5 40 7.5
L 40 -7.5 Z"/>
</g>

<g id="Duplicate_Items_Folder_gfngfnfm_2_Layer0_0_FILL">
<path fill="#FFFFFF" stroke="none" d="
M -4.45 11.45
Q -3.95 11.45 -3.6 11.1 -3.45 10.9 -3.4 10.65 -3.3 10.4 -3.3 10.15 -3.3 9.9 -3.4 9.7 -3.45 9.45 -3.6 9.25 -3.75 9.1 -4 9 -4.2 8.9 -4.45 8.85
L -12.75 8.85
Q -12.95 8.9 -13.2 8.85 -13.4 8.85 -13.5 8.8 -13.7 8.8 -13.85 8.8 -14.05 8.8 -14.25 8.75
L -14.25 4.1
Q -14.25 3.95 -14.25 3.85 -14.3 3.7 -14.35 3.6 -14.45 3.5 -14.5 3.4 -14.6 3.35 -14.65 3.25 -14.8 3.2 -14.9 3.15 -15.05 3.1 -15.2 3.05 -15.35 3.05 -15.5 3.05 -15.6 3 -15.65 3 -16 3 -16.25 3.1 -16.5 3.15 -16.7 3.3 -17 3.45 -17.1 3.65 -17.2 3.85 -17.2 4.1
L -17.2 9.3
Q -17.2 9.8 -17.05 10.25 -16.85 10.65 -16.5 10.9 -16.15 11.2 -15.75 11.35 -15.3 11.45 -14.8 11.45
L -4.45 11.45
M -3.25 -10.15
Q -3.3 -10.35 -3.35 -10.45 -3.4 -10.6 -3.45 -10.7 -3.55 -10.8 -3.65 -10.9 -3.75 -11 -3.85 -11.05 -4.05 -11.1 -4.3 -11.2 -4.45 -11.2 -4.6 -11.2 -4.75 -11.2 -4.9 -11.2 -5.15 -11.2 -5.4 -11.15 -5.6 -11.1 -5.8 -11.05 -6.05 -10.95 -6.15 -10.75 -6.25 -10.5 -6.25 -10.15
L -6.25 2.5
Q -6.25 2.85 -6.15 3.05 -6.05 3.25 -5.8 3.35 -5.6 3.45 -5.4 3.5 -5.15 3.55 -4.9 3.55 -4.75 3.55 -4.6 3.55 -4.45 3.55 -4.3 3.5 -4.2 3.5 -4.05 3.45 -3.95 3.45 -3.85 3.35 -3.75 3.3 -3.65 3.2 -3.55 3.15 -3.45 3 -3.4 2.95 -3.35 2.8 -3.3 2.65 -3.25 2.5
L -3.25 -10.15
M -20.6 -9.7
Q -20.9 -9.35 -21.05 -8.9 -21.25 -8.45 -21.25 -7.95
L -21.25 -2.65
Q -21.25 -2.05 -21 -1.65 -20.9 -1.4 -20.75 -1.25 -20.65 -1.05 -20.5 -0.95 -20.3 -0.8 -20.1 -0.7 -19.85 -0.6 -19.65 -0.5 -19.25 -0.35 -18.65 -0.35
L -12.9 -0.35
Q -12.65 -0.35 -12.4 -0.4 -12.2 -0.45 -11.95 -0.55 -11.75 -0.65 -11.6 -0.75 -11.4 -0.9 -11.3 -1.1 -11 -1.45 -10.8 -1.9 -10.7 -2.1 -10.65 -2.35 -10.6 -2.55 -10.6 -2.8
L -10.6 -8.1
Q -10.6 -8.4 -10.65 -8.6 -10.7 -8.85 -10.85 -9.05 -10.95 -9.25 -11.1 -9.45 -11.2 -9.65 -11.35 -9.8 -11.55 -9.95 -11.75 -10.05 -11.9 -10.2 -12.15 -10.25 -12.65 -10.45 -13.2 -10.45
L -18.9 -10.45
Q -19.45 -10.45 -19.85 -10.25 -20.25 -10.05 -20.6 -9.7
M -14.95 -7.7
Q -14.7 -7.7 -14.5 -7.7 -14.3 -7.7 -14.05 -7.7 -13.85 -7.7 -13.55 -7.7 -13.55 -7.45 -13.55 -7.2 -13.55 -6.95 -13.5 -6.75 -13.5 -6.25 -13.5 -5.85
L -13.5 -4.85
Q -13.5 -4.65 -13.5 -4.4 -13.5 -4.2 -13.5 -3.95 -13.55 -3.75 -13.55 -3.5 -13.55 -3.3 -13.55 -3.05 -13.85 -3.05 -14.05 -3.05 -14.3 -3 -14.5 -3 -14.7 -3 -14.95 -3 -15.2 -3 -15.45 -3
L -16.55 -3
Q -16.95 -3 -17.4 -3 -17.6 -3 -17.85 -3.05 -18.1 -3.05 -18.3 -3.05 -18.35 -3.3 -18.35 -3.5 -18.35 -3.75 -18.35 -3.95 -18.35 -4.2 -18.35 -4.4 -18.35 -4.65 -18.35 -4.85
L -18.35 -7.6
Q -18.1 -7.6 -17.85 -7.65 -17.6 -7.65 -17.4 -7.7 -17.15 -7.7 -16.95 -7.7 -16.75 -7.7 -16.55 -7.7
L -15.45 -7.7
Q -15.2 -7.7 -14.95 -7.7
M 21.65 4.2
Q 22.2 4.2 22.5 3.85 22.8 3.5 22.8 3 22.8 2.75 22.75 2.45 22.7 2.2 22.5 2 22.35 1.8 22.15 1.7 21.9 1.6 21.65 1.6
L 1.9 1.6
Q 1.55 1.6 1.3 1.7 1.1 1.8 0.95 2 0.65 2.4 0.65 2.9 0.65 3.2 0.75 3.45 0.8 3.65 0.95 3.85 1.1 4.05 1.3 4.15 1.55 4.2 1.9 4.2
L 10.2 4.2 10.2 11.25
Q 10.2 11.55 10.3 11.8 10.4 12.05 10.7 12.25 10.9 12.35 11.15 12.45 11.4 12.55 11.65 12.55 11.95 12.55 12.2 12.45 12.5 12.35 12.75 12.25 12.95 12.05 13.05 11.8 13.2 11.55 13.2 11.25
L 13.2 4.2 21.65 4.2
M 9.9 -8.25
Q 9.75 -7.75 9.45 -7.4 9.2 -6.95 8.85 -6.6 8.5 -6.25 8.1 -5.95 7.65 -5.6 7.15 -5.35 6.65 -5.1 6.15 -4.85 5.65 -4.65 5.1 -4.4 4.6 -4.2 4.05 -4 3.75 -3.85 3.6 -3.65 3.45 -3.4 3.45 -3.1 3.45 -2.8 3.55 -2.5 3.65 -2.25 3.85 -2.05 4.05 -1.8 4.3 -1.65 4.55 -1.55 4.9 -1.55 5 -1.55 5.1 -1.55 5.2 -1.6 5.25 -1.65 6.25 -2 7.2 -2.45 8.15 -2.9 9 -3.4 9.85 -3.95 10.55 -4.55 11.2 -5.1 11.7 -5.8 12.15 -5.05 12.8 -4.45 13.45 -3.85 14.25 -3.35 15 -2.85 15.95 -2.45 16.85 -2 17.95 -1.65
L 17.95 -1.7
Q 18.05 -1.65 18.15 -1.65 18.3 -1.6 18.45 -1.6 18.65 -1.6 18.85 -1.7 19.1 -1.8 19.3 -2.05 19.5 -2.25 19.6 -2.55 19.7 -2.8 19.7 -3.15 19.7 -3.25 19.65 -3.4 19.65 -3.5 19.6 -3.65 19.55 -3.75 19.4 -3.85 19.3 -3.95 19.15 -4 18.6 -4.25 18.05 -4.5 17.5 -4.75 17.05 -4.95 16.05 -5.35 15.3 -6 14.9 -6.3 14.55 -6.6 14.2 -6.95 13.95 -7.4 13.7 -7.75 13.55 -8.25 13.4 -8.7 13.35 -9.3
L 13.35 -10.35
Q 13.35 -10.6 13.15 -10.8 13.1 -10.9 13 -10.95 12.9 -11.05 12.75 -11.1 12.6 -11.2 12.45 -11.25 12.35 -11.3 12.25 -11.3 12.1 -11.35 12 -11.35 11.85 -11.35 11.7 -11.4 11.6 -11.35 11.45 -11.35 11.35 -11.35 11.25 -11.3 11.15 -11.3 11 -11.25 10.85 -11.2 10.7 -11.1 10.55 -11.05 10.45 -10.95 10.4 -10.9 10.3 -10.8 10.25 -10.7 10.25 -10.6 10.2 -10.45 10.2 -10.35
L 10.2 -9.3
Q 10.1 -8.75 9.9 -8.25 Z"/>
</g>

<g id="Duplicate_Items_Folder_gfngfnfm_3_Layer1_0_FILL">
<path fill="#57B674" stroke="none" d="
M 40 -7.5
Q 40 -22.5 25 -22.5
L -25 -22.5
Q -40 -22.5 -40 -7.5
L -40 7.5
Q -40 22.5 -25 22.5
L 25 22.5
Q 40 22.5 40 7.5
L 40 -7.5 Z"/>
</g>

<g id="Duplicate_Items_Folder_gfngfnfm_3_Layer0_0_FILL">
<path fill="#FFFFFF" stroke="none" d="
M -3.7 -10.25
Q -3.7 -10.6 -3.8 -10.8 -3.9 -11.05 -4.1 -11.15 -4.3 -11.25 -4.55 -11.3 -4.8 -11.35 -5.1 -11.35 -5.4 -11.35 -5.65 -11.3 -5.9 -11.25 -6.1 -11.15 -6.3 -11.05 -6.4 -10.8 -6.5 -10.6 -6.5 -10.25
L -6.5 11.1
Q -6.5 11.4 -6.4 11.6 -6.3 11.8 -6.1 11.9 -5.9 12 -5.65 12.05 -5.4 12.15 -5.1 12.15 -4.8 12.15 -4.55 12.05 -4.3 12 -4.1 11.9 -3.9 11.8 -3.8 11.6 -3.7 11.4 -3.7 11.1
L -3.7 -10.25
M -20.35 -8.9
Q -20.55 -8.75 -20.7 -8.55 -20.8 -8.4 -20.9 -8.15 -20.95 -7.95 -21.05 -7.7 -21.15 -7.5 -21.2 -7.25 -21.25 -7 -21.25 -6.75
L -21.25 2.35
Q -21.25 2.6 -21.2 2.8 -21.15 3.05 -21.05 3.25 -20.95 3.45 -20.85 3.65 -20.75 3.85 -20.6 4 -20.45 4.15 -20.25 4.3 -20.1 4.4 -19.85 4.5 -19.65 4.6 -19.45 4.65 -19.2 4.65 -18.95 4.65
L -13.6 4.65
Q -13.4 4.65 -13.15 4.65 -12.9 4.6 -12.65 4.5 -12.4 4.45 -12.15 4.35 -11.9 4.25 -11.7 4.1 -11.5 3.95 -11.35 3.75 -11.25 3.5 -11.05 3.3 -10.95 3.1 -10.85 2.85 -10.8 2.6 -10.8 2.35
L -10.8 -7
Q -10.8 -7.3 -10.85 -7.5 -10.95 -7.75 -11.05 -8 -11.35 -8.4 -11.7 -8.7 -11.9 -8.9 -12.15 -9 -12.4 -9.1 -12.65 -9.2 -12.9 -9.25 -13.15 -9.3 -13.4 -9.35 -13.6 -9.35
L -18.95 -9.35
Q -19.2 -9.35 -19.5 -9.3 -19.75 -9.25 -19.95 -9.15 -20.2 -9.05 -20.35 -8.9
M -18.3 -0.3
L -18.3 -4.2
Q -18.35 -4.45 -18.3 -4.8 -18.3 -5.05 -18.25 -5.4 -18.25 -5.95 -18.2 -6.5
L -13.9 -6.5
Q -13.85 -6.2 -13.85 -5.95 -13.8 -5.65 -13.8 -5.4 -13.8 -5.05 -13.75 -4.8 -13.75 -4.45 -13.75 -4.2
L -13.75 -0.3
Q -13.75 -0.05 -13.75 0.3 -13.8 0.55 -13.8 0.85 -13.8 1.15 -13.85 1.45 -13.85 1.75 -13.9 2
L -16.55 2
Q -16.95 2 -17.4 2 -17.6 2 -17.8 2 -18.05 2 -18.25 2 -18.3 1.7 -18.3 1.4 -18.3 1.1 -18.3 0.85 -18.3 0.55 -18.3 0.25 -18.3 -0.05 -18.3 -0.3
M 16.4 -10.9
Q 16.25 -10.7 16.25 -10.4
L 16.25 11.1
Q 16.25 11.4 16.4 11.6 16.5 11.8 16.75 11.9 17 12 17.2 12.05 17.45 12.15 17.7 12.15 18.05 12.15 18.3 12.05 18.6 12 18.8 11.9 19 11.8 19.1 11.6 19.2 11.4 19.2 11.1
L 19.2 -0.1 21.9 -0.1
Q 22.25 -0.1 22.5 -0.2 22.7 -0.3 22.8 -0.55 22.85 -0.75 22.9 -0.95 22.9 -1.2 22.9 -1.45 22.9 -1.75 22.9 -1.95 22.85 -2.2 22.8 -2.4 22.7 -2.6 22.5 -2.7 22.25 -2.8 21.9 -2.8
L 19.2 -2.8 19.2 -10.4
Q 19.2 -10.7 19.1 -10.9 19 -11.15 18.8 -11.25 18.6 -11.35 18.3 -11.4 18.05 -11.45 17.7 -11.45 17.45 -11.45 17.2 -11.4 17 -11.35 16.75 -11.25 16.5 -11.15 16.4 -10.9
M 9.05 -6.65
Q 9.25 -6.65 9.25 -6.45
L 9.25 -3.35
Q 9.25 -3.25 9.2 -3.2 9.2 -3.15 9.15 -3.15
L 5.75 -3.15
Q 5 -3.15 4.45 -3 3.85 -2.85 3.5 -2.6 3.1 -2.25 2.9 -1.8 2.7 -1.35 2.7 -0.7
L 2.7 3.05
Q 2.7 3.5 2.75 3.9 2.8 4.25 2.9 4.55 3 4.85 3.15 5.1 3.3 5.35 3.55 5.5 3.75 5.7 4 5.8 4.2 5.95 4.55 6 4.8 6.1 5.1 6.15 5.4 6.15 5.75 6.15 7.85 6.1 9.75 5.95 10.65 5.9 11.55 5.8 12.5 5.7 13.45 5.55 13.75 5.55 14 5.45 14.2 5.35 14.4 5.15 14.5 5 14.55 4.75 14.65 4.5 14.65 4.15
L 14.65 3.95 14.55 3.95
Q 14.5 3.6 14.4 3.4 14.3 3.2 14.15 3.05 13.95 2.95 13.8 2.95 13.6 2.9 13.4 2.9 13.35 2.9 13.25 2.9 13.2 2.9 13.15 2.9 13.1 2.9 13.05 2.9 12.15 3.05 11.25 3.15 10.3 3.25 9.4 3.35 8.45 3.4 7.55 3.45 6.65 3.55 5.75 3.55 5.7 3.35 5.65 3.1 5.55 3 5.55 2.85 5.55 2.75 5.55 2.6
L 5.55 0.45
Q 5.55 0 5.65 -0.45 5.8 -0.45 5.95 -0.45 6.05 -0.5 6.15 -0.5 6.4 -0.5 6.75 -0.5
L 9.15 -0.5
Q 9.4 -0.5 9.7 -0.55 9.95 -0.6 10.25 -0.7 10.5 -0.8 10.75 -0.95 11 -1.05 11.25 -1.25 11.4 -1.4 11.55 -1.65 11.75 -1.85 11.9 -2.15 12 -2.35 12.1 -2.65 12.15 -2.9 12.2 -3.25
L 12.2 -6.05
Q 12.2 -6.9 12 -7.5 11.8 -8.15 11.45 -8.5 11.05 -8.9 10.5 -9.1 9.9 -9.3 9.1 -9.3
L 4 -9.3
Q 3.6 -9.3 3.3 -9.25 3.05 -9.2 2.95 -9.05 2.8 -8.95 2.7 -8.65 2.65 -8.4 2.65 -8 2.65 -7.6 2.7 -7.35 2.8 -7.1 2.95 -6.95 3.05 -6.85 3.3 -6.75 3.6 -6.65 4 -6.65
L 9.05 -6.65 Z"/>
</g>

<g id="Duplicate_Items_Folder_gfngfnfm_4_Layer1_0_FILL">
<path fill="#F37CA3" stroke="none" d="
M 40 -7.5
Q 40 -22.5 25 -22.5
L -25 -22.5
Q -40 -22.5 -40 -7.5
L -40 7.5
Q -40 22.5 -25 22.5
L 25 22.5
Q 40 22.5 40 7.5
L 40 -7.5 Z"/>
</g>

<g id="Duplicate_Items_Folder_gfngfnfm_4_Layer0_0_FILL">
<path fill="#FFFFFF" stroke="none" d="
M -3.4 5.75
Q -3.5 5.2 -3.75 4.65 -4 4.2 -4.4 3.8 -4.75 3.35 -5.2 3 -5.7 2.7 -6.25 2.4 -6.85 2.15 -7.55 1.95 -8.2 1.8 -8.95 1.7 -9.7 1.6 -10.5 1.6 -11.35 1.6 -12.1 1.7 -12.9 1.8 -13.5 1.95 -14.2 2.15 -14.75 2.4 -15.3 2.7 -15.75 3 -16.25 3.35 -16.6 3.75 -16.95 4.15 -17.2 4.65 -17.7 5.65 -17.7 6.9 -17.7 7.55 -17.6 8.1 -17.45 8.65 -17.2 9.15 -16.95 9.6 -16.55 10 -16.2 10.4 -15.7 10.75 -15.25 11.1 -14.7 11.35 -14.15 11.6 -13.45 11.8 -12.85 11.95 -12.1 12.05 -11.35 12.15 -10.5 12.15 -9.75 12.15 -9 12.05 -8.25 11.95 -7.6 11.8 -6.2 11.4 -5.25 10.75 -4.8 10.4 -4.4 9.95 -4.05 9.55 -3.75 9.1 -3.25 8.15 -3.25 6.9 -3.25 6.3 -3.4 5.75
M -8.75 4.45
Q -7.95 4.6 -7.35 4.95 -6.25 5.6 -6.25 6.9 -6.25 7.5 -6.55 8 -6.85 8.45 -7.4 8.75 -8 9.1 -8.8 9.3 -9.55 9.45 -10.45 9.45 -11.45 9.45 -12.25 9.3 -13 9.1 -13.55 8.75 -14.15 8.45 -14.45 7.95 -14.75 7.5 -14.7 6.9 -14.75 6.25 -14.45 5.75 -14.15 5.3 -13.55 4.95 -13 4.6 -12.25 4.45 -11.45 4.3 -10.45 4.3 -9.5 4.3 -8.75 4.45
M -20.7 -8.1
Q -21.05 -7.7 -21.25 -7.15 -21.7 -6.1 -21.7 -4.85 -21.7 -4.2 -21.6 -3.65 -21.45 -3.05 -21.25 -2.55 -21.05 -2.05 -20.7 -1.6 -20.4 -1.15 -20.05 -0.8 -19.7 -0.45 -19.25 -0.15 -18.8 0.1 -18.25 0.3 -17.7 0.45 -17.1 0.55 -16.45 0.65 -15.75 0.65 -15.1 0.65 -14.5 0.55 -13.95 0.45 -13.4 0.3 -12.9 0.1 -12.4 -0.15 -11.9 -0.45 -11.45 -0.8 -11.3 -1 -11.15 -1.2 -10.95 -1.35 -10.85 -1.6
L -5.9 -1.6 -5.9 0.25
Q -5.9 0.55 -5.8 0.8 -5.7 1 -5.5 1.05 -5.3 1.2 -5.05 1.25 -4.8 1.3 -4.5 1.3 -4.25 1.3 -4 1.25 -3.75 1.2 -3.55 1.05 -3.3 1 -3.2 0.8 -3.1 0.55 -3.1 0.25
L -3.1 -10.2
Q -3.1 -10.5 -3.2 -10.7 -3.3 -10.9 -3.55 -11.05 -3.75 -11.1 -4 -11.15 -4.25 -11.2 -4.5 -11.2 -4.8 -11.2 -5.05 -11.15 -5.3 -11.1 -5.5 -11.05 -5.7 -10.9 -5.8 -10.7 -5.9 -10.5 -5.9 -10.2
L -5.9 -8.35 -11 -8.35
Q -11.1 -8.5 -11.25 -8.65 -11.35 -8.8 -11.45 -8.95 -11.9 -9.25 -12.4 -9.55 -12.9 -9.8 -13.4 -10 -13.95 -10.2 -14.5 -10.3 -15.1 -10.4 -15.75 -10.4 -16.45 -10.4 -17.1 -10.3 -17.7 -10.2 -18.25 -10 -18.8 -9.8 -19.25 -9.55 -19.7 -9.25 -20.05 -8.95 -20.4 -8.55 -20.7 -8.1
M -14.5 -7.55
Q -13.95 -7.4 -13.5 -7 -13.05 -6.6 -12.85 -6.1 -12.65 -5.55 -12.6 -4.85 -12.65 -4.2 -12.85 -3.65 -13.05 -3.15 -13.5 -2.75 -13.95 -2.35 -14.5 -2.15 -15.05 -1.95 -15.7 -1.95 -16.5 -1.95 -17.1 -2.15 -17.65 -2.35 -18.05 -2.75 -18.85 -3.5 -18.85 -4.85 -18.85 -5.55 -18.65 -6.1 -18.45 -6.6 -18.05 -7 -17.25 -7.75 -15.7 -7.75 -15.05 -7.75 -14.5 -7.55
M -10 -4.05
Q -10 -4.25 -10 -4.45 -9.95 -4.65 -9.95 -4.85 -9.95 -5.1 -10 -5.35 -10 -5.6 -10.05 -5.9
L -5.9 -5.9 -5.9 -4.05 -10 -4.05
M 20.35 11.1
Q 20.5 10.9 20.6 10.65 20.65 10.4 20.65 10.15 20.65 9.9 20.6 9.7 20.5 9.45 20.35 9.25 20.2 9.1 20 9 19.75 8.9 19.55 8.85
L 11.2 8.85
Q 10.8 8.9 10.45 8.85 10.1 8.8 9.8 8.75
L 9.8 4.1
Q 9.8 3.95 9.75 3.85 9.7 3.7 9.65 3.6 9.5 3.5 9.45 3.4 9.35 3.35 9.3 3.25 9.15 3.2 9.05 3.15 8.9 3.1 8.75 3.05 8.6 3.05 8.45 3.05 8.35 3 8.25 3 8 3 7.75 3.1 7.55 3.15 7.3 3.3 7.05 3.45 6.9 3.65 6.8 3.85 6.8 4.1
L 6.8 9.3
Q 6.8 9.8 6.95 10.25 7.15 10.65 7.5 10.9 7.85 11.2 8.25 11.35 8.7 11.45 9.2 11.45
L 19.55 11.45
Q 19.75 11.45 20 11.4 20.2 11.3 20.35 11.1
M 17.6 -10.75
Q 17.5 -10.5 17.5 -10.15
L 17.5 3.45
Q 17.5 3.8 17.6 4.05 17.7 4.25 17.95 4.35 18.15 4.45 18.35 4.5 18.6 4.55 18.85 4.55 19.15 4.55 19.45 4.5 19.75 4.45 20 4.35 20.2 4.25 20.35 4.05 20.45 3.8 20.5 3.45
L 20.5 -10.15
Q 20.45 -10.5 20.35 -10.75 20.2 -10.95 20 -11.05 19.75 -11.1 19.45 -11.15 19.15 -11.2 18.85 -11.2 18.6 -11.2 18.35 -11.15 18.15 -11.1 17.95 -11.05 17.7 -10.95 17.6 -10.75
M 5.25 -7.5
L 5.25 -9.6
Q 5.25 -9.75 5.2 -9.9 5.2 -10.05 5.15 -10.15 5.1 -10.25 5 -10.3 4.9 -10.4 4.8 -10.45 4.65 -10.5 4.5 -10.55 4.4 -10.6 4.25 -10.65 4.05 -10.7 3.85 -10.7 3.55 -10.7 3.25 -10.65 3.05 -10.6 2.8 -10.5 2.55 -10.35 2.45 -10.15 2.35 -9.95 2.35 -9.6
L 2.35 -2.85
Q 2.35 -1.35 3.15 -0.7 3.55 -0.35 4.1 -0.15 4.65 0 5.4 0
L 10.45 0
Q 11.85 0 12.55 -0.7 13.25 -1.35 13.25 -2.7
L 13.25 -9.6
Q 13.25 -9.95 13.05 -10.15 12.9 -10.35 12.6 -10.45 12.5 -10.5 12.4 -10.55 12.3 -10.6 12.2 -10.65 11.95 -10.7 11.65 -10.7 11.4 -10.7 11.2 -10.65 10.95 -10.6 10.75 -10.5 10.5 -10.35 10.4 -10.15 10.3 -9.95 10.3 -9.6
L 10.3 -7.5 5.25 -7.5
M 8.9 -2.65
L 5.5 -2.65
Q 5.4 -2.85 5.35 -3.1 5.3 -3.35 5.3 -3.7
L 5.3 -5 10.25 -5 10.25 -3.7
Q 10.25 -3.4 10.25 -3.2 10.25 -3.05 10.2 -2.95 10.2 -2.8 10.2 -2.7 10.05 -2.7 9.9 -2.7 9.75 -2.7 9.6 -2.7 9.4 -2.65 9.25 -2.65 9.05 -2.65 8.9 -2.65 Z"/>
</g>

<path id="Layer0_0_1_STROKES" stroke="#DBDBDB" stroke-width="3" stroke-linejoin="round" stroke-linecap="round" fill="none" d="
M 1155.35 574.8
L 1225.35 574.8
Q 1240.35 574.8 1240.35 589.8
L 1240.35 619.85
Q 1240.35 623.1 1239.6 625.8 1237.05 634.85 1225.35 634.85
L 1155.35 634.85
Q 1143.85 634.85 1141.1 625.8 1140.35 623.5 1140.35 619.85
L 1140.35 589.8
Q 1140.35 574.8 1155.35 574.8 Z
M 1020.35 574.8
L 1090.35 574.8
Q 1105.35 574.8 1105.35 589.8
L 1105.35 619.85
Q 1105.35 623.1 1104.6 625.8 1102.05 634.85 1090.35 634.85
L 1020.35 634.85
Q 1008.85 634.85 1006.1 625.8 1005.35 623.5 1005.35 619.85
L 1005.35 589.8
Q 1005.35 574.8 1020.35 574.8 Z"/>

<path id="Layer0_0_2_STROKES" stroke="#BBDECB" stroke-width="5" stroke-linejoin="miter" stroke-linecap="butt" stroke-miterlimit="10" fill="none" d="
M 363.05 238.9
L 917 238.9
Q 932 238.9 932 253.9
L 932 619.85
Q 932 634.85 917 634.85
L 363.05 634.85
Q 348.05 634.85 348.05 619.85
L 348.05 253.9
Q 348.05 238.9 363.05 238.9 Z"/>
</defs>

<g transform="matrix( 1, 0, 0, 1, 0,0) ">
<use xlink:href="#Layer0_0_FILL"/>

<use xlink:href="#Layer0_0_1_STROKES"/>

<use xlink:href="#Layer0_0_2_STROKES"/>
</g>

<g transform="matrix( 1, 0, 0, 1, 422.75,294.85) ">
<g transform="matrix( 1, 0, 0, 1, 0,0) ">
<use xlink:href="#Duplicate_Items_Folder_gfngfnfm_0_Layer1_0_FILL"/>
</g>

<g transform="matrix( 1, 0, 0, 1, 0,0) ">
<use xlink:href="#Duplicate_Items_Folder_gfngfnfm_0_Layer0_0_FILL"/>
</g>
</g>

<g transform="matrix( 1, 0, 0, 1, 422.75,365.85) ">
<g transform="matrix( 1, 0, 0, 1, 0,0) ">
<use xlink:href="#Duplicate_Items_Folder_gfngfnfm_1_Layer1_0_FILL"/>
</g>

<g transform="matrix( 1, 0, 0, 1, 0,0) ">
<use xlink:href="#Duplicate_Items_Folder_gfngfnfm_1_Layer0_0_FILL"/>
</g>
</g>

<g transform="matrix( 1, 0, 0, 1, 422.75,436.85) ">
<g transform="matrix( 1, 0, 0, 1, 0,0) ">
<use xlink:href="#Duplicate_Items_Folder_gfngfnfm_2_Layer1_0_FILL"/>
</g>

<g transform="matrix( 1, 0, 0, 1, 0,0) ">
<use xlink:href="#Duplicate_Items_Folder_gfngfnfm_2_Layer0_0_FILL"/>
</g>
</g>

<g transform="matrix( 1, 0, 0, 1, 422.75,507.85) ">
<g transform="matrix( 1, 0, 0, 1, 0,0) ">
<use xlink:href="#Duplicate_Items_Folder_gfngfnfm_3_Layer1_0_FILL"/>
</g>

<g transform="matrix( 1, 0, 0, 1, 0,0) ">
<use xlink:href="#Duplicate_Items_Folder_gfngfnfm_3_Layer0_0_FILL"/>
</g>
</g>

<g transform="matrix( 1, 0, 0, 1, 422.75,578.85) ">
<g transform="matrix( 1, 0, 0, 1, 0,0) ">
<use xlink:href="#Duplicate_Items_Folder_gfngfnfm_4_Layer1_0_FILL"/>
</g>

<g transform="matrix( 1, 0, 0, 1, 0,0) ">
<use xlink:href="#Duplicate_Items_Folder_gfngfnfm_4_Layer0_0_FILL"/>
</g>
</g>
</svg>
