
<svg xmlns="http://www.w3.org/2000/svg" version="1.1" xmlns:xlink="http://www.w3.org/1999/xlink" preserveAspectRatio="none" x="0px" y="0px" width="1280px" height="720px" viewBox="0 0 1280 720">
<defs>
<filter id="Filter_1" x="-20%" y="-20%" width="140%" height="140%" color-interpolation-filters="sRGB">
<feColorMatrix in="SourceGraphic" type="matrix" values="0 0 0 0 0.9411764705882353 0 0 0 0 0.3843137254901961 0 0 0 0 0.5725490196078431 0 0 0 1 0" result="result1"/>
</filter>

<g id="Layer0_0_FILL">
<path fill="#1E1E1E" stroke="none" d="
M 88.9 406.5
Q 89.45 406.5 89.45 405.95
L 89.45 402.4
Q 89.45 401.9 88.9 401.9
L 83.75 401.9 81.35 401.9 67.55 401.9
Q 67.3 401.9 67.15 402.05 67 402.2 67 402.4
L 67 405.95
Q 67 406.15 67.15 406.35 67.3 406.5 67.55 406.5
L 81.35 406.5 83.75 406.5 88.9 406.5
M 378.4 391.85
Q 378.15 391.85 378 392 377.85 392.15 377.85 392.35
L 377.85 395.9
Q 377.85 396.1 378 396.3 378.15 396.45 378.4 396.45
L 392.2 396.45 394.6 396.45 399.75 396.45
Q 400.3 396.45 400.3 395.9
L 400.3 392.35
Q 400.3 391.85 399.75 391.85
L 394.6 391.85 392.2 391.85 378.4 391.85
M 1014.9 406.5
Q 1015.45 406.5 1015.45 405.95
L 1015.45 402.4
Q 1015.45 401.9 1014.9 401.9
L 1009.75 401.9 1007.35 401.9 993.55 401.9
Q 993.3 401.9 993.15 402.05 993 402.2 993 402.4
L 993 405.95
Q 993 406.15 993.15 406.35 993.3 406.5 993.55 406.5
L 1007.35 406.5 1009.75 406.5 1014.9 406.5
M 682.15 459.35
Q 681.6 459.35 681.6 459.9
L 681.6 496.8
Q 681.6 497.35 682.15 497.35
L 685.7 497.35
Q 686.2 497.35 686.2 496.8
L 686.2 459.9
Q 686.2 459.35 685.7 459.35
L 682.15 459.35
M 675.6 469.5
Q 674.95 467.05 673.7 465.35 672.4 463.65 670.6 462.7 668.8 461.75 666.45 461.75 664.15 461.75 662.35 462.7 660.5 463.65 659.25 465.35 658 467.05 657.3 469.5 656.6 471.9 656.6 474.95 656.6 477.85 657.3 480.3 658 482.7 659.25 484.45 660.5 486.2 662.35 487.15 664.15 488.15 666.45 488.15 668.8 488.15 670.6 487.15 672.4 486.25 673.7 484.5 674.95 482.8 675.6 480.35 676.3 477.9 676.3 474.95 676.3 471.9 675.6 469.5
M 668.7 466.55
Q 669.7 467.3 670.4 468.5 671.05 469.75 671.4 471.45 671.75 473.1 671.75 474.95 671.75 476.7 671.4 478.4 671.05 480.05 670.4 481.3 669.7 482.55 668.7 483.3 667.7 484.05 666.45 484.05 665.15 484.05 664.2 483.3 663.2 482.55 662.55 481.3 661.85 480.05 661.5 478.4 661.1 476.7 661.1 474.95 661.1 473.1 661.5 471.45 661.85 469.75 662.55 468.5 663.2 467.3 664.2 466.55 665.15 465.85 666.45 465.85 667.7 465.85 668.7 466.55
M 640.5 463
L 634.35 468.65
Q 634.15 468.85 634.15 469.05 634.1 469.3 634.25 469.45
L 636.05 471.6
Q 636.2 471.75 636.45 471.7 636.7 471.7 636.95 471.55
L 639.9 468.95 639.9 492.65
Q 639.9 493.15 640.45 493.15
L 643.65 493.15
Q 644.15 493.15 644.15 492.65
L 644.15 463.85
Q 644.15 463.05 644 462.9 643.9 462.75 643.2 462.75
L 641.1 462.75
Q 640.95 462.75 640.75 462.85 640.55 462.9 640.5 463
M 595.9 492.55
Q 595.9 493.85 596.8 494.75 597.7 495.65 599 495.65 600.25 495.65 601.15 494.75 602 493.85 602 492.55 602 491.25 601.15 490.4 600.25 489.5 599 489.5 597.7 489.5 596.8 490.4 595.9 491.25 595.9 492.55
M 607.35 472.7
Q 607 475.45 607 477.9 607 485.25 609.45 489.3 611.9 493.35 617.05 493.35 619.6 493.35 621.45 492.35 623.3 491.25 624.55 489.3 625.8 487.35 626.4 484.45 627 481.55 627 477.9 627 476.25 626.8 474.5 626.65 472.7 626.25 471 625.85 469.3 625.15 467.75 624.45 466.2 623.3 465 622.25 463.85 620.65 463.15 619.1 462.5 617.05 462.5 613.85 462.5 611.9 463.95 609.95 465.45 608.85 467.7 607.75 470 607.35 472.7
M 614.75 467.45
Q 615.75 466.85 617.05 466.85 618.25 466.85 619.3 467.45 620.3 468 621.05 469.3 621.75 470.65 622.15 472.75 622.5 474.9 622.5 477.9 622.5 481 622.15 483.15 621.75 485.25 621.05 486.55 620.3 487.9 619.3 488.45 618.25 489.05 617.05 489.05 615.75 489.05 614.75 488.45 613.75 487.9 613.05 486.55 612.3 485.25 611.95 483.15 611.55 481 611.55 477.9 611.55 474.9 611.95 472.75 612.3 470.65 613.05 469.3 613.75 468 614.75 467.45
M 575.55 463.95
Q 573.6 465.45 572.5 467.7 571.4 470 571 472.7 570.65 475.45 570.65 477.9 570.65 485.25 573.1 489.3 575.55 493.35 580.7 493.35 583.25 493.35 585.1 492.35 586.95 491.25 588.2 489.3 589.45 487.35 590.05 484.45 590.65 481.55 590.65 477.9 590.65 476.25 590.45 474.5 590.3 472.7 589.9 471 589.5 469.3 588.8 467.75 588.1 466.2 586.95 465 585.9 463.85 584.3 463.15 582.75 462.5 580.7 462.5 577.5 462.5 575.55 463.95
M 580.7 466.85
Q 581.9 466.85 582.95 467.45 583.95 468 584.7 469.3 585.4 470.65 585.8 472.75 586.15 474.9 586.15 477.9 586.15 481 585.8 483.15 585.4 485.25 584.7 486.55 583.95 487.9 582.95 488.45 581.9 489.05 580.7 489.05 579.4 489.05 578.4 488.45 577.4 487.9 576.7 486.55 575.95 485.25 575.6 483.15 575.2 481 575.2 477.9 575.2 474.9 575.6 472.75 575.95 470.65 576.7 469.3 577.4 468 578.4 467.45 579.4 466.85 580.7 466.85
M 686.2 376.9
Q 686.2 376.35 685.7 376.35
L 682.15 376.35
Q 681.6 376.35 681.6 376.9
L 681.6 413.8
Q 681.6 414.35 682.15 414.35
L 685.7 414.35
Q 686.2 414.35 686.2 413.8
L 686.2 376.9
M 662.35 379.7
Q 660.5 380.65 659.25 382.35 658 384.05 657.3 386.5 656.6 388.9 656.6 391.95 656.6 394.85 657.3 397.3 658 399.7 659.25 401.45 660.5 403.2 662.35 404.15 664.15 405.15 666.45 405.15 668.8 405.15 670.6 404.15 672.4 403.25 673.7 401.5 674.95 399.8 675.6 397.35 676.3 394.9 676.3 391.95 676.3 388.9 675.6 386.5 674.95 384.05 673.7 382.35 672.4 380.65 670.6 379.7 668.8 378.75 666.45 378.75 664.15 378.75 662.35 379.7
M 664.2 383.55
Q 665.15 382.85 666.45 382.85 667.7 382.85 668.7 383.55 669.7 384.3 670.4 385.5 671.05 386.75 671.4 388.45 671.75 390.1 671.75 391.95 671.75 393.7 671.4 395.4 671.05 397.05 670.4 398.3 669.7 399.55 668.7 400.3 667.7 401.05 666.45 401.05 665.15 401.05 664.2 400.3 663.2 399.55 662.55 398.3 661.85 397.05 661.5 395.4 661.1 393.7 661.1 391.95 661.1 390.1 661.5 388.45 661.85 386.75 662.55 385.5 663.2 384.3 664.2 383.55
M 601.15 407.4
Q 600.25 406.5 599 406.5 597.7 406.5 596.8 407.4 595.9 408.25 595.9 409.55 595.9 410.85 596.8 411.75 597.7 412.65 599 412.65 600.25 412.65 601.15 411.75 602 410.85 602 409.55 602 408.25 601.15 407.4
M 640.75 379.85
Q 640.55 379.9 640.5 380
L 634.35 385.65
Q 634.15 385.85 634.15 386.05 634.1 386.3 634.25 386.45
L 636.05 388.6
Q 636.2 388.75 636.45 388.7 636.7 388.7 636.95 388.55
L 639.9 385.95 639.9 409.65
Q 639.9 410.15 640.45 410.15
L 643.65 410.15
Q 644.15 410.15 644.15 409.65
L 644.15 380.85
Q 644.15 380.05 644 379.9 643.9 379.75 643.2 379.75
L 641.1 379.75
Q 640.95 379.75 640.75 379.85
M 607.35 389.7
Q 607 392.45 607 394.9 607 402.25 609.45 406.3 611.9 410.35 617.05 410.35 619.6 410.35 621.45 409.35 623.3 408.25 624.55 406.3 625.8 404.35 626.4 401.45 627 398.55 627 394.9 627 393.25 626.8 391.5 626.65 389.7 626.25 388 625.85 386.3 625.15 384.75 624.45 383.2 623.3 382 622.25 380.85 620.65 380.15 619.1 379.5 617.05 379.5 613.85 379.5 611.9 380.95 609.95 382.45 608.85 384.7 607.75 387 607.35 389.7
M 614.75 384.45
Q 615.75 383.85 617.05 383.85 618.25 383.85 619.3 384.45 620.3 385 621.05 386.3 621.75 387.65 622.15 389.75 622.5 391.9 622.5 394.9 622.5 398 622.15 400.15 621.75 402.25 621.05 403.55 620.3 404.9 619.3 405.45 618.25 406.05 617.05 406.05 615.75 406.05 614.75 405.45 613.75 404.9 613.05 403.55 612.3 402.25 611.95 400.15 611.55 398 611.55 394.9 611.55 391.9 611.95 389.75 612.3 387.65 613.05 386.3 613.75 385 614.75 384.45
M 586.95 382
Q 585.9 380.85 584.3 380.15 582.75 379.5 580.7 379.5 577.5 379.5 575.55 380.95 573.6 382.45 572.5 384.7 571.4 387 571 389.7 570.65 392.45 570.65 394.9 570.65 402.25 573.1 406.3 575.55 410.35 580.7 410.35 583.25 410.35 585.1 409.35 586.95 408.25 588.2 406.3 589.45 404.35 590.05 401.45 590.65 398.55 590.65 394.9 590.65 393.25 590.45 391.5 590.3 389.7 589.9 388 589.5 386.3 588.8 384.75 588.1 383.2 586.95 382
M 575.2 394.9
Q 575.2 391.9 575.6 389.75 575.95 387.65 576.7 386.3 577.4 385 578.4 384.45 579.4 383.85 580.7 383.85 581.9 383.85 582.95 384.45 583.95 385 584.7 386.3 585.4 387.65 585.8 389.75 586.15 391.9 586.15 394.9 586.15 398 585.8 400.15 585.4 402.25 584.7 403.55 583.95 404.9 582.95 405.45 581.9 406.05 580.7 406.05 579.4 406.05 578.4 405.45 577.4 404.9 576.7 403.55 575.95 402.25 575.6 400.15 575.2 398 575.2 394.9
M 552 412.75
L 552 409.85
Q 552 409.65 551.8 409.5 551.6 409.35 551.4 409.35
L 531.45 409.35
Q 531 409.35 530.85 409.25 530.65 409.1 530.65 408.7
L 530.65 401.65
Q 530.65 401.45 530.5 401.25 530.3 401.1 530.1 401.1
L 526.65 401.1
Q 526.45 401.1 526.25 401.25 526.1 401.45 526.1 401.65
L 526.1 410.3
Q 526.1 411.95 526.7 412.55 527.3 413.2 529.1 413.2
L 551.4 413.2
Q 551.65 413.2 551.85 413.1 552 412.95 552 412.75
M 543.55 377.4
Q 541.25 376.95 538.45 376.95 535.65 376.95 533.3 377.4 530.95 377.9 529.3 378.85 527.6 379.75 526.65 381.15 525.7 382.5 525.7 384.25 525.7 385.95 526.65 387.3 527.6 388.7 529.3 389.6 530.95 390.5 533.3 391.05 535.65 391.5 538.45 391.5 541.25 391.5 543.55 391.05 545.9 390.5 547.55 389.6 549.25 388.7 550.2 387.3 551.1 385.95 551.1 384.25 551.1 382.5 550.2 381.15 549.25 379.75 547.55 378.85 545.9 377.9 543.55 377.4
M 538.45 380.6
Q 540.15 380.6 541.6 380.85 543.05 381.15 544.1 381.6 545.15 382.1 545.75 382.75 546.3 383.45 546.3 384.25 546.3 385.05 545.75 385.7 545.15 386.35 544.1 386.85 543.05 387.3 541.6 387.6 540.15 387.85 538.45 387.85 536.7 387.85 535.25 387.6 533.8 387.3 532.75 386.85 531.7 386.35 531.1 385.7 530.5 385.05 530.5 384.25 530.5 383.45 531.1 382.75 531.7 382.1 532.75 381.6 533.8 381.15 535.25 380.85 536.7 380.6 538.45 380.6
M 520.95 394.7
Q 520.65 394.7 520.5 394.9 520.35 395.1 520.35 395.3
L 520.35 397.9
Q 520.35 398.15 520.5 398.35 520.65 398.55 520.95 398.55
L 555.75 398.55
Q 555.95 398.55 556.15 398.35 556.35 398.1 556.35 397.9
L 556.35 395.3
Q 556.35 395.15 556.15 394.9 555.95 394.7 555.75 394.7
L 520.95 394.7
M 503.15 379.75
Q 501.45 380.15 499.7 380.75 499.3 380.95 499.15 381.15 499 381.3 499.1 381.55
L 499.45 384.5
Q 499.55 384.85 499.75 384.95 499.95 385.05 500.45 384.85 501.05 384.6 501.85 384.35 502.65 384.1 503.45 383.95 504.25 383.75 505 383.65 505.7 383.55 506.25 383.55 507.1 383.55 508.05 383.75 509 383.95 509.85 384.45 510.65 384.9 511.2 385.7 511.7 386.45 511.7 387.45 511.7 388.8 510.9 389.7 510.1 390.65 508.9 391.25 507.75 391.85 506.5 392.1 505.25 392.35 504.4 392.35
L 502.5 392.35
Q 502.15 392.35 502.05 392.45 501.95 392.5 501.95 392.9
L 501.95 395.85
Q 501.95 396.15 502.05 396.25 502.15 396.35 502.5 396.35
L 504.45 396.35
Q 506.4 396.35 507.75 396.75 509.15 397.1 510.05 397.8 510.9 398.45 511.35 399.3 511.75 400.15 511.75 401.1 511.75 403.75 509.8 405.1 509.15 405.55 508.4 405.8 507.6 406.1 506.75 406.2 505.9 406.3 505 406.25 504.1 406.2 503.3 406.15 502.2 406.05 501.15 405.75 500.1 405.45 499.05 405.15 498.5 404.9 498.3 405.05 498.1 405.15 498.05 405.5
L 497.7 408.55
Q 497.65 408.9 497.85 409.05 498 409.25 498.4 409.35 499.85 409.9 501.6 410.2 503.35 410.5 505.1 410.5 507.4 410.5 509.55 409.9 511.7 409.35 513.2 408.1 514.7 406.85 515.55 405.1 516.35 403.3 516.35 401.2 516.35 399 515 397.2 513.65 395.45 511 394.3 512.1 393.8 513.05 393.05 514 392.3 514.7 391.3 515.4 390.35 515.8 389.3 516.15 388.2 516.15 387.1 516.15 385.1 515.3 383.6 514.45 382.1 513.1 381.2 511.8 380.3 510.05 379.85 508.3 379.4 506.5 379.4 504.8 379.4 503.15 379.75
M 467.5 411.75
Q 468.35 410.85 468.35 409.55 468.35 408.25 467.5 407.4 466.6 406.5 465.35 406.5 464.05 406.5 463.15 407.4 462.25 408.25 462.25 409.55 462.25 410.85 463.15 411.75 464.05 412.65 465.35 412.65 466.6 412.65 467.5 411.75
M 485.35 379.85
Q 485.25 379.95 485.05 380.3
L 472.65 398.9
Q 472.5 399.05 472.35 399.35 472.15 399.65 472.15 399.9
L 472.15 402.9
Q 472.15 403.2 472.3 403.25 472.45 403.35 472.8 403.35
L 485.6 403.35 485.6 409.45
Q 485.6 409.85 485.75 410 485.9 410.15 486.35 410.15
L 489.25 410.15
Q 489.65 410.15 489.75 410 489.9 409.9 489.9 409.45
L 489.9 403.35 493.6 403.35
Q 493.95 403.35 494.1 403.25 494.25 403.15 494.25 402.75
L 494.25 399.85
Q 494.25 399.45 494.1 399.35 493.95 399.25 493.6 399.25
L 489.9 399.25 489.9 380.35
Q 489.9 380 489.85 379.9 489.8 379.75 489.5 379.75
L 485.85 379.75
Q 485.45 379.75 485.35 379.85
M 485.6 399.25
L 477 399.25 485.6 386.2 485.6 399.25
M 441.9 380.95
Q 439.95 382.45 438.85 384.7 437.75 387 437.35 389.7 437 392.45 437 394.9 437 402.25 439.45 406.3 441.9 410.35 447.05 410.35 449.6 410.35 451.45 409.35 453.3 408.25 454.55 406.3 455.8 404.35 456.4 401.45 457 398.55 457 394.9 457 393.25 456.8 391.5 456.65 389.7 456.25 388 455.85 386.3 455.15 384.75 454.45 383.2 453.3 382 452.25 380.85 450.65 380.15 449.1 379.5 447.05 379.5 443.85 379.5 441.9 380.95
M 441.55 394.9
Q 441.55 391.9 441.95 389.75 442.3 387.65 443.05 386.3 443.75 385 444.75 384.45 445.75 383.85 447.05 383.85 448.25 383.85 449.3 384.45 450.3 385 451.05 386.3 451.75 387.65 452.15 389.75 452.5 391.9 452.5 394.9 452.5 398 452.15 400.15 451.75 402.25 451.05 403.55 450.3 404.9 449.3 405.45 448.25 406.05 447.05 406.05 445.75 406.05 444.75 405.45 443.75 404.9 443.05 403.55 442.3 402.25 441.95 400.15 441.55 398 441.55 394.9
M 675.6 315.45
Q 674.95 313 673.7 311.3 672.4 309.6 670.6 308.65 668.8 307.7 666.45 307.7 664.15 307.7 662.35 308.65 660.5 309.6 659.25 311.3 658 313 657.3 315.45 656.6 317.85 656.6 320.9 656.6 323.8 657.3 326.25 658 328.65 659.25 330.4 660.5 332.15 662.35 333.1 664.15 334.1 666.45 334.1 668.8 334.1 670.6 333.1 672.4 332.2 673.7 330.45 674.95 328.75 675.6 326.3 676.3 323.85 676.3 320.9 676.3 317.85 675.6 315.45
M 671.4 317.4
Q 671.75 319.05 671.75 320.9 671.75 322.65 671.4 324.35 671.05 326 670.4 327.25 669.7 328.5 668.7 329.25 667.7 330 666.45 330 665.15 330 664.2 329.25 663.2 328.5 662.55 327.25 661.85 326 661.5 324.35 661.1 322.65 661.1 320.9 661.1 319.05 661.5 317.4 661.85 315.7 662.55 314.45 663.2 313.25 664.2 312.5 665.15 311.8 666.45 311.8 667.7 311.8 668.7 312.5 669.7 313.25 670.4 314.45 671.05 315.7 671.4 317.4
M 686.2 305.85
Q 686.2 305.3 685.7 305.3
L 682.15 305.3
Q 681.6 305.3 681.6 305.85
L 681.6 342.75
Q 681.6 343.3 682.15 343.3
L 685.7 343.3
Q 686.2 343.3 686.2 342.75
L 686.2 305.85
M 595.9 338.5
Q 595.9 339.8 596.8 340.7 597.7 341.6 599 341.6 600.25 341.6 601.15 340.7 602 339.8 602 338.5 602 337.2 601.15 336.35 600.25 335.45 599 335.45 597.7 335.45 596.8 336.35 595.9 337.2 595.9 338.5
M 611.9 309.9
Q 609.95 311.4 608.85 313.65 607.75 315.95 607.35 318.65 607 321.4 607 323.85 607 331.2 609.45 335.25 611.9 339.3 617.05 339.3 619.6 339.3 621.45 338.3 623.3 337.2 624.55 335.25 625.8 333.3 626.4 330.4 627 327.5 627 323.85 627 322.2 626.8 320.45 626.65 318.65 626.25 316.95 625.85 315.25 625.15 313.7 624.45 312.15 623.3 310.95 622.25 309.8 620.65 309.1 619.1 308.45 617.05 308.45 613.85 308.45 611.9 309.9
M 611.95 318.7
Q 612.3 316.6 613.05 315.25 613.75 313.95 614.75 313.4 615.75 312.8 617.05 312.8 618.25 312.8 619.3 313.4 620.3 313.95 621.05 315.25 621.75 316.6 622.15 318.7 622.5 320.85 622.5 323.85 622.5 326.95 622.15 329.1 621.75 331.2 621.05 332.5 620.3 333.85 619.3 334.4 618.25 335 617.05 335 615.75 335 614.75 334.4 613.75 333.85 613.05 332.5 612.3 331.2 611.95 329.1 611.55 326.95 611.55 323.85 611.55 320.85 611.95 318.7
M 644 308.85
Q 643.9 308.7 643.2 308.7
L 641.1 308.7
Q 640.95 308.7 640.75 308.8 640.55 308.85 640.5 308.95
L 634.35 314.6
Q 634.15 314.8 634.15 315 634.1 315.25 634.25 315.4
L 636.05 317.55
Q 636.2 317.7 636.45 317.65 636.7 317.65 636.95 317.5
L 639.9 314.9 639.9 338.6
Q 639.9 339.1 640.45 339.1
L 643.65 339.1
Q 644.15 339.1 644.15 338.6
L 644.15 309.8
Q 644.15 309 644 308.85
M 590.45 320.45
Q 590.3 318.65 589.9 316.95 589.5 315.25 588.8 313.7 588.1 312.15 586.95 310.95 585.9 309.8 584.3 309.1 582.75 308.45 580.7 308.45 577.5 308.45 575.55 309.9 573.6 311.4 572.5 313.65 571.4 315.95 571 318.65 570.65 321.4 570.65 323.85 570.65 331.2 573.1 335.25 575.55 339.3 580.7 339.3 583.25 339.3 585.1 338.3 586.95 337.2 588.2 335.25 589.45 333.3 590.05 330.4 590.65 327.5 590.65 323.85 590.65 322.2 590.45 320.45
M 575.6 318.7
Q 575.95 316.6 576.7 315.25 577.4 313.95 578.4 313.4 579.4 312.8 580.7 312.8 581.9 312.8 582.95 313.4 583.95 313.95 584.7 315.25 585.4 316.6 585.8 318.7 586.15 320.85 586.15 323.85 586.15 326.95 585.8 329.1 585.4 331.2 584.7 332.5 583.95 333.85 582.95 334.4 581.9 335 580.7 335 579.4 335 578.4 334.4 577.4 333.85 576.7 332.5 575.95 331.2 575.6 329.1 575.2 326.95 575.2 323.85 575.2 320.85 575.6 318.7
M 556.15 323.85
Q 555.95 323.65 555.75 323.65
L 520.95 323.65
Q 520.65 323.65 520.5 323.85 520.35 324.05 520.35 324.25
L 520.35 326.85
Q 520.35 327.1 520.5 327.3 520.65 327.5 520.95 327.5
L 555.75 327.5
Q 555.95 327.5 556.15 327.3 556.35 327.05 556.35 326.85
L 556.35 324.25
Q 556.35 324.1 556.15 323.85
M 531.45 338.3
Q 531 338.3 530.85 338.2 530.65 338.05 530.65 337.65
L 530.65 330.6
Q 530.65 330.4 530.5 330.2 530.3 330.05 530.1 330.05
L 526.65 330.05
Q 526.45 330.05 526.25 330.2 526.1 330.4 526.1 330.6
L 526.1 339.25
Q 526.1 340.9 526.7 341.5 527.3 342.15 529.1 342.15
L 551.4 342.15
Q 551.65 342.15 551.85 342.05 552 341.9 552 341.7
L 552 338.8
Q 552 338.6 551.8 338.45 551.6 338.3 551.4 338.3
L 531.45 338.3
M 547.55 318.55
Q 549.25 317.65 550.2 316.25 551.1 314.9 551.1 313.2 551.1 311.45 550.2 310.1 549.25 308.7 547.55 307.8 545.9 306.85 543.55 306.35 541.25 305.9 538.45 305.9 535.65 305.9 533.3 306.35 530.95 306.85 529.3 307.8 527.6 308.7 526.65 310.1 525.7 311.45 525.7 313.2 525.7 314.9 526.65 316.25 527.6 317.65 529.3 318.55 530.95 319.45 533.3 320 535.65 320.45 538.45 320.45 541.25 320.45 543.55 320 545.9 319.45 547.55 318.55
M 532.75 315.8
Q 531.7 315.3 531.1 314.65 530.5 314 530.5 313.2 530.5 312.4 531.1 311.7 531.7 311.05 532.75 310.55 533.8 310.1 535.25 309.8 536.7 309.55 538.45 309.55 540.15 309.55 541.6 309.8 543.05 310.1 544.1 310.55 545.15 311.05 545.75 311.7 546.3 312.4 546.3 313.2 546.3 314 545.75 314.65 545.15 315.3 544.1 315.8 543.05 316.25 541.6 316.55 540.15 316.8 538.45 316.8 536.7 316.8 535.25 316.55 533.8 316.25 532.75 315.8
M 507.1 308.8
Q 506.9 308.85 506.85 308.95
L 500.7 314.6
Q 500.5 314.8 500.5 315 500.45 315.25 500.6 315.4
L 502.4 317.55
Q 502.55 317.7 502.8 317.65 503.05 317.65 503.3 317.5
L 506.25 314.9 506.25 338.6
Q 506.25 339.1 506.8 339.1
L 510 339.1
Q 510.5 339.1 510.5 338.6
L 510.5 309.8
Q 510.5 309 510.35 308.85 510.25 308.7 509.55 308.7
L 507.45 308.7
Q 507.3 308.7 507.1 308.8
M 474.05 314.65
Q 473.4 316.55 473.4 318.75 473.4 321.05 474.1 322.85 474.75 324.65 476.05 325.95 477.35 327.25 479.15 327.95 480.9 328.65 483.05 328.65 483.8 328.65 484.6 328.45 485.4 328.25 486.15 327.9 486.9 327.55 487.55 327.1 488.15 326.65 488.5 326.15 488.25 328.05 487.65 329.75 487.05 331.4 486.05 332.65 485.05 333.9 483.6 334.6 482.15 335.3 480.05 335.3 478.65 335.3 477.5 335.2 476.3 335.1 475.25 334.65 474.7 334.45 474.6 335
L 474.5 338.2
Q 474.45 338.6 474.8 338.7 475.75 339.05 477.15 339.25 478.6 339.45 479.75 339.45 483.45 339.45 486 338.1 488.6 336.8 490.15 334.55 491.75 332.3 492.45 329.3 493.1 326.25 493.1 322.9 493.1 315.45 490.55 311.9 488 308.35 483.3 308.35 481 308.35 479.2 309.15 477.35 309.95 476.05 311.35 474.75 312.75 474.05 314.65
M 479.3 314
Q 480.85 312.3 483.25 312.3 484.35 312.3 485.3 312.85 486.25 313.35 486.95 314.25 487.65 315.15 488.05 316.35 488.45 317.55 488.45 318.9 488.45 321.35 487 322.95 485.5 324.5 482.9 324.5 480.45 324.5 479.15 322.9 477.8 321.3 477.8 318.55 477.8 315.65 479.3 314
M 463.15 340.7
Q 464.05 341.6 465.35 341.6 466.6 341.6 467.5 340.7 468.35 339.8 468.35 338.5 468.35 337.2 467.5 336.35 466.6 335.45 465.35 335.45 464.05 335.45 463.15 336.35 462.25 337.2 462.25 338.5 462.25 339.8 463.15 340.7
M 450.65 309.1
Q 449.1 308.45 447.05 308.45 443.85 308.45 441.9 309.9 439.95 311.4 438.85 313.65 437.75 315.95 437.35 318.65 437 321.4 437 323.85 437 331.2 439.45 335.25 441.9 339.3 447.05 339.3 449.6 339.3 451.45 338.3 453.3 337.2 454.55 335.25 455.8 333.3 456.4 330.4 457 327.5 457 323.85 457 322.2 456.8 320.45 456.65 318.65 456.25 316.95 455.85 315.25 455.15 313.7 454.45 312.15 453.3 310.95 452.25 309.8 450.65 309.1
M 447.05 312.8
Q 448.25 312.8 449.3 313.4 450.3 313.95 451.05 315.25 451.75 316.6 452.15 318.7 452.5 320.85 452.5 323.85 452.5 326.95 452.15 329.1 451.75 331.2 451.05 332.5 450.3 333.85 449.3 334.4 448.25 335 447.05 335 445.75 335 444.75 334.4 443.75 333.85 443.05 332.5 442.3 331.2 441.95 329.1 441.55 326.95 441.55 323.85 441.55 320.85 441.95 318.7 442.3 316.6 443.05 315.25 443.75 313.95 444.75 313.4 445.75 312.8 447.05 312.8
M 219.3 390.75
Q 218.9 390.95 218.75 391.15 218.6 391.3 218.7 391.55
L 219.05 394.5
Q 219.15 394.85 219.35 394.95 219.55 395.05 220.05 394.85 220.65 394.6 221.45 394.35 222.25 394.1 223.05 393.95 223.85 393.75 224.6 393.65 225.3 393.55 225.85 393.55 226.7 393.55 227.65 393.75 228.6 393.95 229.45 394.45 230.25 394.9 230.8 395.7 231.3 396.45 231.3 397.45 231.3 398.8 230.5 399.7 229.7 400.65 228.5 401.25 227.35 401.85 226.1 402.1 224.85 402.35 224 402.35
L 222.1 402.35
Q 221.75 402.35 221.65 402.45 221.55 402.5 221.55 402.9
L 221.55 405.85
Q 221.55 406.15 221.65 406.25 221.75 406.35 222.1 406.35
L 224.05 406.35
Q 226 406.35 227.35 406.75 228.75 407.1 229.65 407.8 230.5 408.45 230.95 409.3 231.35 410.15 231.35 411.1 231.35 413.75 229.4 415.1 228.75 415.55 228 415.8 227.2 416.1 226.35 416.2 225.5 416.3 224.6 416.25 223.7 416.2 222.9 416.15 221.8 416.05 220.75 415.75 219.7 415.45 218.65 415.15 218.1 414.9 217.9 415.05 217.7 415.15 217.65 415.5
L 217.3 418.55
Q 217.25 418.9 217.45 419.05 217.6 419.25 218 419.35 219.45 419.9 221.2 420.2 222.95 420.5 224.7 420.5 227 420.5 229.15 419.9 231.3 419.35 232.8 418.1 234.3 416.85 235.15 415.1 235.95 413.3 235.95 411.2 235.95 409 234.6 407.2 233.25 405.45 230.6 404.3 231.7 403.8 232.65 403.05 233.6 402.3 234.3 401.3 235 400.35 235.4 399.3 235.75 398.2 235.75 397.1 235.75 395.1 234.9 393.6 234.05 392.1 232.7 391.2 231.4 390.3 229.65 389.85 227.9 389.4 226.1 389.4 224.4 389.4 222.75 389.75 221.05 390.15 219.3 390.75
M 165.55 419.55
Q 165.55 418.25 164.7 417.4 163.8 416.5 162.55 416.5 161.25 416.5 160.35 417.4 159.45 418.25 159.45 419.55 159.45 420.85 160.35 421.75 161.25 422.65 162.55 422.65 163.8 422.65 164.7 421.75 165.55 420.85 165.55 419.55
M 193.75 389.85
Q 193.65 389.95 193.45 390.3
L 181.05 408.9
Q 180.9 409.05 180.75 409.35 180.55 409.65 180.55 409.9
L 180.55 412.9
Q 180.55 413.2 180.7 413.25 180.85 413.35 181.2 413.35
L 194 413.35 194 419.45
Q 194 419.85 194.15 420 194.3 420.15 194.75 420.15
L 197.65 420.15
Q 198.05 420.15 198.15 420 198.3 419.9 198.3 419.45
L 198.3 413.35 202 413.35
Q 202.35 413.35 202.5 413.25 202.65 413.15 202.65 412.75
L 202.65 409.85
Q 202.65 409.45 202.5 409.35 202.35 409.25 202 409.25
L 198.3 409.25 198.3 390.35
Q 198.3 390 198.25 389.9 198.2 389.75 197.9 389.75
L 194.25 389.75
Q 193.85 389.75 193.75 389.85
M 194 409.25
L 185.4 409.25 194 396.2 194 409.25
M 222 337.55
Q 222.15 337.7 222.4 337.65 222.65 337.65 222.9 337.5
L 225.85 334.9 225.85 358.6
Q 225.85 359.1 226.4 359.1
L 229.6 359.1
Q 230.1 359.1 230.1 358.6
L 230.1 329.8
Q 230.1 329 229.95 328.85 229.85 328.7 229.15 328.7
L 227.05 328.7
Q 226.9 328.7 226.7 328.8 226.5 328.85 226.45 328.95
L 220.3 334.6
Q 220.1 334.8 220.1 335 220.05 335.25 220.2 335.4
L 222 337.55
M 127.9 390.95
Q 125.95 392.45 124.85 394.7 123.75 397 123.35 399.7 123 402.45 123 404.9 123 412.25 125.45 416.3 127.9 420.35 133.05 420.35 135.6 420.35 137.45 419.35 139.3 418.25 140.55 416.3 141.8 414.35 142.4 411.45 143 408.55 143 404.9 143 403.25 142.8 401.5 142.65 399.7 142.25 398 141.85 396.3 141.15 394.75 140.45 393.2 139.3 392 138.25 390.85 136.65 390.15 135.1 389.5 133.05 389.5 129.85 389.5 127.9 390.95
M 130.75 394.45
Q 131.75 393.85 133.05 393.85 134.25 393.85 135.3 394.45 136.3 395 137.05 396.3 137.75 397.65 138.15 399.75 138.5 401.9 138.5 404.9 138.5 408 138.15 410.15 137.75 412.25 137.05 413.55 136.3 414.9 135.3 415.45 134.25 416.05 133.05 416.05 131.75 416.05 130.75 415.45 129.75 414.9 129.05 413.55 128.3 412.25 127.95 410.15 127.55 408 127.55 404.9 127.55 401.9 127.95 399.75 128.3 397.65 129.05 396.3 129.75 395 130.75 394.45
M 191.7 328.35
Q 189.4 328.35 187.6 329.15 185.75 329.95 184.45 331.35 183.15 332.75 182.45 334.65 181.8 336.55 181.8 338.75 181.8 341.05 182.5 342.85 183.15 344.65 184.45 345.95 185.75 347.25 187.55 347.95 189.3 348.65 191.45 348.65 192.2 348.65 193 348.45 193.8 348.25 194.55 347.9 195.3 347.55 195.95 347.1 196.55 346.65 196.9 346.15 196.65 348.05 196.05 349.75 195.45 351.4 194.45 352.65 193.45 353.9 192 354.6 190.55 355.3 188.45 355.3 187.05 355.3 185.9 355.2 184.7 355.1 183.65 354.65 183.1 354.45 183 355
L 182.9 358.2
Q 182.85 358.6 183.2 358.7 184.15 359.05 185.55 359.25 187 359.45 188.15 359.45 191.85 359.45 194.4 358.1 197 356.8 198.55 354.55 200.15 352.3 200.85 349.3 201.5 346.25 201.5 342.9 201.5 335.45 198.95 331.9 196.4 328.35 191.7 328.35
M 187.7 334
Q 189.25 332.3 191.65 332.3 192.75 332.3 193.7 332.85 194.65 333.35 195.35 334.25 196.05 335.15 196.45 336.35 196.85 337.55 196.85 338.9 196.85 341.35 195.4 342.95 193.9 344.5 191.3 344.5 188.85 344.5 187.55 342.9 186.2 341.3 186.2 338.55 186.2 335.65 187.7 334
M 159.45 358.5
Q 159.45 359.8 160.35 360.7 161.25 361.6 162.55 361.6 163.8 361.6 164.7 360.7 165.55 359.8 165.55 358.5 165.55 357.2 164.7 356.35 163.8 355.45 162.55 355.45 161.25 355.45 160.35 356.35 159.45 357.2 159.45 358.5
M 141.15 333.7
Q 140.45 332.15 139.3 330.95 138.25 329.8 136.65 329.1 135.1 328.45 133.05 328.45 129.85 328.45 127.9 329.9 125.95 331.4 124.85 333.65 123.75 335.95 123.35 338.65 123 341.4 123 343.85 123 351.2 125.45 355.25 127.9 359.3 133.05 359.3 135.6 359.3 137.45 358.3 139.3 357.2 140.55 355.25 141.8 353.3 142.4 350.4 143 347.5 143 343.85 143 342.2 142.8 340.45 142.65 338.65 142.25 336.95 141.85 335.25 141.15 333.7
M 133.05 332.8
Q 134.25 332.8 135.3 333.4 136.3 333.95 137.05 335.25 137.75 336.6 138.15 338.7 138.5 340.85 138.5 343.85 138.5 346.95 138.15 349.1 137.75 351.2 137.05 352.5 136.3 353.85 135.3 354.4 134.25 355 133.05 355 131.75 355 130.75 354.4 129.75 353.85 129.05 352.5 128.3 351.2 127.95 349.1 127.55 346.95 127.55 343.85 127.55 340.85 127.95 338.7 128.3 336.6 129.05 335.25 129.75 333.95 130.75 333.4 131.75 332.8 133.05 332.8
M 1083.75 490.7
Q 1082.85 491.55 1082.85 492.85 1082.85 494.15 1083.75 495.05 1084.65 495.95 1085.95 495.95 1087.2 495.95 1088.1 495.05 1088.95 494.15 1088.95 492.85 1088.95 491.55 1088.1 490.7 1087.2 489.8 1085.95 489.8 1084.65 489.8 1083.75 490.7
M 1082.85 417.85
Q 1082.85 419.15 1083.75 420.05 1084.65 420.95 1085.95 420.95 1087.2 420.95 1088.1 420.05 1088.95 419.15 1088.95 417.85 1088.95 416.55 1088.1 415.7 1087.2 414.8 1085.95 414.8 1084.65 414.8 1083.75 415.7 1082.85 416.55 1082.85 417.85
M 859.05 459.35
Q 858.5 459.35 858.5 459.9
L 858.5 474.05 854.8 474.05 854.8 460.6
Q 854.8 460.1 854.25 460.1
L 851 460.1
Q 850.45 460.1 850.45 460.6
L 850.45 495.3
Q 850.45 495.85 851 495.85
L 854.25 495.85
Q 854.8 495.85 854.8 495.3
L 854.8 477.9 858.5 477.9 858.5 496.8
Q 858.5 497.35 859 497.35
L 862.5 497.35
Q 863.05 497.35 863.05 496.8
L 863.05 459.9
Q 863.05 459.35 862.5 459.35
L 859.05 459.35
M 831.8 465.75
Q 831.8 466.25 832.4 466.25
L 841.25 466.25
Q 842.05 466.25 842.25 466.55 842.45 466.85 842.4 467.7 842.35 469.65 841.5 472 840.65 474.3 839.1 476.6 837.6 478.85 835.4 481 833.2 483.15 830.5 484.8 830.3 484.95 830.15 485.25 830 485.55 830.25 485.9
L 831.85 488.15
Q 832.05 488.4 832.4 488.35 832.7 488.3 833.05 488.15 836.15 486.1 838.75 483.6 841.3 481.1 843.1 478.2 844.9 475.3 845.9 472.05 846.9 468.85 846.95 465.35 847 463.8 846.4 463.15 845.75 462.5 844 462.5
L 832.4 462.5
Q 832.2 462.5 832 462.65 831.8 462.8 831.8 463
L 831.8 465.75
M 863.05 376.9
Q 863.05 376.35 862.5 376.35
L 859.05 376.35
Q 858.5 376.35 858.5 376.9
L 858.5 391.05 854.8 391.05 854.8 377.6
Q 854.8 377.1 854.25 377.1
L 851 377.1
Q 850.45 377.1 850.45 377.6
L 850.45 412.3
Q 850.45 412.85 851 412.85
L 854.25 412.85
Q 854.8 412.85 854.8 412.3
L 854.8 394.9 858.5 394.9 858.5 413.8
Q 858.5 414.35 859 414.35
L 862.5 414.35
Q 863.05 414.35 863.05 413.8
L 863.05 376.9
M 846.95 382.35
Q 847 380.8 846.4 380.15 845.75 379.5 844 379.5
L 832.4 379.5
Q 832.2 379.5 832 379.65 831.8 379.8 831.8 380
L 831.8 382.75
Q 831.8 383.25 832.4 383.25
L 841.25 383.25
Q 842.05 383.25 842.25 383.55 842.45 383.85 842.4 384.7 842.35 386.65 841.5 389 840.65 391.3 839.1 393.6 837.6 395.85 835.4 398 833.2 400.15 830.5 401.8 830.3 401.95 830.15 402.25 830 402.55 830.25 402.9
L 831.85 405.15
Q 832.05 405.4 832.4 405.35 832.7 405.3 833.05 405.15 836.15 403.1 838.75 400.6 841.3 398.1 843.1 395.2 844.9 392.3 845.9 389.05 846.9 385.85 846.95 382.35
M 846.4 309.1
Q 845.75 308.45 844 308.45
L 832.4 308.45
Q 832.2 308.45 832 308.6 831.8 308.75 831.8 308.95
L 831.8 311.7
Q 831.8 312.2 832.4 312.2
L 841.25 312.2
Q 842.05 312.2 842.25 312.5 842.45 312.8 842.4 313.65 842.35 315.6 841.5 317.95 840.65 320.25 839.1 322.55 837.6 324.8 835.4 326.95 833.2 329.1 830.5 330.75 830.3 330.9 830.15 331.2 830 331.5 830.25 331.85
L 831.85 334.1
Q 832.05 334.35 832.4 334.3 832.7 334.25 833.05 334.1 836.15 332.05 838.75 329.55 841.3 327.05 843.1 324.15 844.9 321.25 845.9 318 846.9 314.8 846.95 311.3 847 309.75 846.4 309.1
M 858.5 305.85
L 858.5 320 854.8 320 854.8 306.55
Q 854.8 306.05 854.25 306.05
L 851 306.05
Q 850.45 306.05 850.45 306.55
L 850.45 341.25
Q 850.45 341.8 851 341.8
L 854.25 341.8
Q 854.8 341.8 854.8 341.25
L 854.8 323.85 858.5 323.85 858.5 342.75
Q 858.5 343.3 859 343.3
L 862.5 343.3
Q 863.05 343.3 863.05 342.75
L 863.05 305.85
Q 863.05 305.3 862.5 305.3
L 859.05 305.3
Q 858.5 305.3 858.5 305.85
M 1171.95 389.05
Q 1171.55 389.25 1171.4 389.45 1171.25 389.6 1171.35 389.85
L 1171.7 392.8
Q 1171.8 393.15 1172 393.25 1172.2 393.35 1172.7 393.15 1173.3 392.9 1174.1 392.65 1174.9 392.4 1175.7 392.25 1176.5 392.05 1177.25 391.95 1177.95 391.85 1178.5 391.85 1179.35 391.85 1180.3 392.05 1181.25 392.25 1182.1 392.75 1182.9 393.2 1183.45 394 1183.95 394.75 1183.95 395.75 1183.95 397.1 1183.15 398 1182.35 398.95 1181.15 399.55 1180 400.15 1178.75 400.4 1177.5 400.65 1176.65 400.65
L 1174.75 400.65
Q 1174.4 400.65 1174.3 400.75 1174.2 400.8 1174.2 401.2
L 1174.2 404.15
Q 1174.2 404.45 1174.3 404.55 1174.4 404.65 1174.75 404.65
L 1176.7 404.65
Q 1178.65 404.65 1180 405.05 1181.4 405.4 1182.3 406.1 1183.15 406.75 1183.6 407.6 1184 408.45 1184 409.4 1184 412.05 1182.05 413.4 1181.4 413.85 1180.65 414.1 1179.85 414.4 1179 414.5 1178.15 414.6 1177.25 414.55 1176.35 414.5 1175.55 414.45 1174.45 414.35 1173.4 414.05 1172.35 413.75 1171.3 413.45 1170.75 413.2 1170.55 413.35 1170.35 413.45 1170.3 413.8
L 1169.95 416.85
Q 1169.9 417.2 1170.1 417.35 1170.25 417.55 1170.65 417.65 1172.1 418.2 1173.85 418.5 1175.6 418.8 1177.35 418.8 1179.65 418.8 1181.8 418.2 1183.95 417.65 1185.45 416.4 1186.95 415.15 1187.8 413.4 1188.6 411.6 1188.6 409.5 1188.6 407.3 1187.25 405.5 1185.9 403.75 1183.25 402.6 1184.35 402.1 1185.3 401.35 1186.25 400.6 1186.95 399.6 1187.65 398.65 1188.05 397.6 1188.4 396.5 1188.4 395.4 1188.4 393.4 1187.55 391.9 1186.7 390.4 1185.35 389.5 1184.05 388.6 1182.3 388.15 1180.55 387.7 1178.75 387.7 1177.05 387.7 1175.4 388.05 1173.7 388.45 1171.95 389.05
M 1175.55 336.85
L 1178.5 334.25 1178.5 357.95
Q 1178.5 358.45 1179.05 358.45
L 1182.25 358.45
Q 1182.75 358.45 1182.75 357.95
L 1182.75 329.15
Q 1182.75 328.35 1182.6 328.2 1182.5 328.05 1181.8 328.05
L 1179.7 328.05
Q 1179.55 328.05 1179.35 328.15 1179.15 328.2 1179.1 328.3
L 1172.95 333.95
Q 1172.75 334.15 1172.75 334.35 1172.7 334.6 1172.85 334.75
L 1174.65 336.9
Q 1174.8 337.05 1175.05 337 1175.3 337 1175.55 336.85
M 1121.85 388.15
Q 1121.75 388.25 1121.55 388.6
L 1109.15 407.2
Q 1109 407.35 1108.85 407.65 1108.65 407.95 1108.65 408.2
L 1108.65 411.2
Q 1108.65 411.5 1108.8 411.55 1108.95 411.65 1109.3 411.65
L 1122.1 411.65 1122.1 417.75
Q 1122.1 418.15 1122.25 418.3 1122.4 418.45 1122.85 418.45
L 1125.75 418.45
Q 1126.15 418.45 1126.25 418.3 1126.4 418.2 1126.4 417.75
L 1126.4 411.65 1130.1 411.65
Q 1130.45 411.65 1130.6 411.55 1130.75 411.45 1130.75 411.05
L 1130.75 408.15
Q 1130.75 407.75 1130.6 407.65 1130.45 407.55 1130.1 407.55
L 1126.4 407.55 1126.4 388.65
Q 1126.4 388.3 1126.35 388.2 1126.3 388.05 1126 388.05
L 1122.35 388.05
Q 1121.95 388.05 1121.85 388.15
M 1122.1 407.55
L 1113.5 407.55 1122.1 394.5 1122.1 407.55
M 1085.95 360.95
Q 1087.2 360.95 1088.1 360.05 1088.95 359.15 1088.95 357.85 1088.95 356.55 1088.1 355.7 1087.2 354.8 1085.95 354.8 1084.65 354.8 1083.75 355.7 1082.85 356.55 1082.85 357.85 1082.85 359.15 1083.75 360.05 1084.65 360.95 1085.95 360.95
M 1110.6 342.2
Q 1111.25 344 1112.55 345.3 1113.85 346.6 1115.65 347.3 1117.4 348 1119.55 348 1120.3 348 1121.1 347.8 1121.9 347.6 1122.65 347.25 1123.4 346.9 1124.05 346.45 1124.65 346 1125 345.5 1124.75 347.4 1124.15 349.1 1123.55 350.75 1122.55 352 1121.55 353.25 1120.1 353.95 1118.65 354.65 1116.55 354.65 1115.15 354.65 1114 354.55 1112.8 354.45 1111.75 354 1111.2 353.8 1111.1 354.35
L 1111 357.55
Q 1110.95 357.95 1111.3 358.05 1112.25 358.4 1113.65 358.6 1115.1 358.8 1116.25 358.8 1119.95 358.8 1122.5 357.45 1125.1 356.15 1126.65 353.9 1128.25 351.65 1128.95 348.65 1129.6 345.6 1129.6 342.25 1129.6 334.8 1127.05 331.25 1124.5 327.7 1119.8 327.7 1117.5 327.7 1115.7 328.5 1113.85 329.3 1112.55 330.7 1111.25 332.1 1110.55 334 1109.9 335.9 1109.9 338.1 1109.9 340.4 1110.6 342.2
M 1119.75 331.65
Q 1120.85 331.65 1121.8 332.2 1122.75 332.7 1123.45 333.6 1124.15 334.5 1124.55 335.7 1124.95 336.9 1124.95 338.25 1124.95 340.7 1123.5 342.3 1122 343.85 1119.4 343.85 1116.95 343.85 1115.65 342.25 1114.3 340.65 1114.3 337.9 1114.3 335 1115.8 333.35 1117.35 331.65 1119.75 331.65
M 1050.1 387.8
Q 1046.9 387.8 1044.95 389.25 1043 390.75 1041.9 393 1040.8 395.3 1040.4 398 1040.05 400.75 1040.05 403.2 1040.05 410.55 1042.5 414.6 1044.95 418.65 1050.1 418.65 1052.65 418.65 1054.5 417.65 1056.35 416.55 1057.6 414.6 1058.85 412.65 1059.45 409.75 1060.05 406.85 1060.05 403.2 1060.05 401.55 1059.85 399.8 1059.7 398 1059.3 396.3 1058.9 394.6 1058.2 393.05 1057.5 391.5 1056.35 390.3 1055.3 389.15 1053.7 388.45 1052.15 387.8 1050.1 387.8
M 1050.1 392.15
Q 1051.3 392.15 1052.35 392.75 1053.35 393.3 1054.1 394.6 1054.8 395.95 1055.2 398.05 1055.55 400.2 1055.55 403.2 1055.55 406.3 1055.2 408.45 1054.8 410.55 1054.1 411.85 1053.35 413.2 1052.35 413.75 1051.3 414.35 1050.1 414.35 1048.8 414.35 1047.8 413.75 1046.8 413.2 1046.1 411.85 1045.35 410.55 1045 408.45 1044.6 406.3 1044.6 403.2 1044.6 400.2 1045 398.05 1045.35 395.95 1046.1 394.6 1046.8 393.3 1047.8 392.75 1048.8 392.15 1050.1 392.15
M 1050.1 327.8
Q 1046.9 327.8 1044.95 329.25 1043 330.75 1041.9 333 1040.8 335.3 1040.4 338 1040.05 340.75 1040.05 343.2 1040.05 350.55 1042.5 354.6 1044.95 358.65 1050.1 358.65 1052.65 358.65 1054.5 357.65 1056.35 356.55 1057.6 354.6 1058.85 352.65 1059.45 349.75 1060.05 346.85 1060.05 343.2 1060.05 341.55 1059.85 339.8 1059.7 338 1059.3 336.3 1058.9 334.6 1058.2 333.05 1057.5 331.5 1056.35 330.3 1055.3 329.15 1053.7 328.45 1052.15 327.8 1050.1 327.8
M 1047.8 332.75
Q 1048.8 332.15 1050.1 332.15 1051.3 332.15 1052.35 332.75 1053.35 333.3 1054.1 334.6 1054.8 335.95 1055.2 338.05 1055.55 340.2 1055.55 343.2 1055.55 346.3 1055.2 348.45 1054.8 350.55 1054.1 351.85 1053.35 353.2 1052.35 353.75 1051.3 354.35 1050.1 354.35 1048.8 354.35 1047.8 353.75 1046.8 353.2 1046.1 351.85 1045.35 350.55 1045 348.45 1044.6 346.3 1044.6 343.2 1044.6 340.2 1045 338.05 1045.35 335.95 1046.1 334.6 1046.8 333.3 1047.8 332.75 Z"/>

<path fill="#FFFFFF" stroke="none" d="
M 820.9 492.25
L 820.9 462.2
Q 820.9 447.2 805.9 447.2
L 731.9 447.2
Q 716.9 447.2 716.9 462.2
L 716.9 492.25
Q 716.9 507.25 731.9 507.25
L 805.9 507.25
Q 820.9 507.25 820.9 492.25
M 805.9 364.15
L 731.9 364.15
Q 716.9 364.15 716.9 379.15
L 716.9 409.2
Q 716.9 424.2 731.9 424.2
L 805.9 424.2
Q 820.9 424.2 820.9 409.2
L 820.9 379.15
Q 820.9 364.15 805.9 364.15
M 805.9 293.15
L 731.9 293.15
Q 716.9 293.15 716.9 308.15
L 716.9 338.2
Q 716.9 353.2 731.9 353.2
L 805.9 353.2
Q 820.9 353.2 820.9 338.2
L 820.9 308.15
Q 820.9 293.15 805.9 293.15
M 1075.75 462.2
Q 1075.75 447.2 1060.75 447.2
L 1040.75 447.2
Q 1025.75 447.2 1025.75 462.2
L 1025.75 492.25
Q 1025.75 507.25 1040.75 507.25
L 1060.75 507.25
Q 1075.75 507.25 1075.75 492.25
L 1075.75 462.2
M 1170.75 447.2
Q 1155.75 447.2 1155.75 462.2
L 1155.75 492.25
Q 1155.75 507.25 1170.75 507.25
L 1190.75 507.25
Q 1205.75 507.25 1205.75 492.25
L 1205.75 462.2
Q 1205.75 447.2 1190.75 447.2
L 1170.75 447.2
M 1145.75 492.25
L 1145.75 462.2
Q 1145.75 447.2 1130.75 447.2
L 1110.75 447.2
Q 1095.75 447.2 1095.75 462.2
L 1095.75 492.25
Q 1095.75 507.25 1110.75 507.25
L 1130.75 507.25
Q 1145.75 507.25 1145.75 492.25 Z"/>
</g>

<g id="vsdvs434_0_Layer1_0_FILL">
<path fill="#000000" stroke="none" d="
M 7.5 -19.9
Q 5.25 -19.9 3.75 -18.3
L -11.15 -3.5
Q -12.75 -1.95 -12.75 0.25 -12.75 2.5 -11.15 4.1 -11.07734375 4.175 -11 4.25
L 3.35 18.55
Q 4.95 20.05 7.2 20.05 9.35 20.05 10.95 18.55 12.45 16.9 12.45 14.75 12.45 12.5 10.95 11
L 0.25 0.25 11.25 -10.8
Q 12.8 -12.4 12.8 -14.55 12.8 -16.8 11.25 -18.4 9.75 -19.9 7.5 -19.9 Z"/>
</g>

<g id="vsdvs434_0_Layer0_0_FILL">
<path fill="#000000" stroke="none" d="
M 34.95 -4.35
Q 33.2 -6.1 30.65 -6.1
L 24.25 -6.1 23.1 -6.1 18.5 -6.1 17.35 -6.1 0.6 -6.1
Q -1.95 -6.1 -3.75 -4.35 -5.5 -2.55 -5.5 0
L -5.5 0.05
Q -5.5 2.6 -3.75 4.35 -1.95 6.15 0.6 6.15
L 17.35 6.15 18.5 6.15 23.1 6.15 24.25 6.15 30.65 6.15
Q 33.25 6.15 34.95 4.35 36.75 2.65 36.75 0.05
L 36.75 0
Q 36.75 -2.55 34.95 -4.35 Z"/>
</g>

<path id="Layer0_0_1_STROKES" stroke="#DBDBDB" stroke-width="3" stroke-linejoin="round" stroke-linecap="round" fill="none" d="
M 805.9 293.15
Q 820.9 293.15 820.9 308.15
L 820.9 338.2
Q 820.9 353.2 805.9 353.2
L 731.9 353.2
Q 716.9 353.2 716.9 338.2
L 716.9 308.15
Q 716.9 293.15 731.9 293.15
L 805.9 293.15 Z
M 805.9 364.15
Q 820.9 364.15 820.9 379.15
L 820.9 409.2
Q 820.9 424.2 805.9 424.2
L 731.9 424.2
Q 716.9 424.2 716.9 409.2
L 716.9 379.15
Q 716.9 364.15 731.9 364.15
L 805.9 364.15 Z
M 805.9 447.2
Q 820.9 447.2 820.9 462.2
L 820.9 492.25
Q 820.9 507.25 805.9 507.25
L 731.9 507.25
Q 716.9 507.25 716.9 492.25
L 716.9 462.2
Q 716.9 447.2 731.9 447.2
L 805.9 447.2 Z
M 1110.75 447.2
L 1130.75 447.2
Q 1145.75 447.2 1145.75 462.2
L 1145.75 492.25
Q 1145.75 507.25 1130.75 507.25
L 1110.75 507.25
Q 1095.75 507.25 1095.75 492.25
L 1095.75 462.2
Q 1095.75 447.2 1110.75 447.2 Z
M 1170.75 447.2
L 1190.75 447.2
Q 1205.75 447.2 1205.75 462.2
L 1205.75 492.25
Q 1205.75 507.25 1190.75 507.25
L 1170.75 507.25
Q 1155.75 507.25 1155.75 492.25
L 1155.75 462.2
Q 1155.75 447.2 1170.75 447.2 Z
M 1040.75 447.2
L 1060.75 447.2
Q 1075.75 447.2 1075.75 462.2
L 1075.75 492.25
Q 1075.75 507.25 1060.75 507.25
L 1040.75 507.25
Q 1025.75 507.25 1025.75 492.25
L 1025.75 462.2
Q 1025.75 447.2 1040.75 447.2 Z"/>

<path id="Layer0_0_2_STROKES" stroke="#000000" stroke-width="3" stroke-linejoin="round" stroke-linecap="round" fill="none" d="
M 363.25 437
L 880.75 437"/>

<path id="Layer0_0_3_STROKES" stroke="#1E1E1E" stroke-width="3" stroke-linejoin="round" stroke-linecap="butt" fill="none" d="
M 988 437
L 1206.95 437 1207.75 437
M 52.25 437
L 252 437"/>
</defs>

<g transform="matrix( 1, 0, 0, 1, 0,0) ">
<use xlink:href="#Layer0_0_FILL"/>

<use xlink:href="#Layer0_0_1_STROKES"/>

<use xlink:href="#Layer0_0_2_STROKES"/>

<use xlink:href="#Layer0_0_3_STROKES"/>
</g>

<g transform="matrix( -0.7999725341796875, 0, 0, -0.7999725341796875, 316.35,400.3) ">
<g transform="matrix( 1, 0, 0, 1, 0,0) ">
<use filter="url(#Filter_1)" xlink:href="#vsdvs434_0_Layer1_0_FILL"/>
</g>

<g transform="matrix( 1, 0, 0, 1, 0,0) ">
<use filter="url(#Filter_1)" xlink:href="#vsdvs434_0_Layer0_0_FILL"/>
</g>
</g>

<g transform="matrix( -0.7999725341796875, 0, 0, -0.7999725341796875, 942.3,400.3) ">
<g transform="matrix( 1, 0, 0, 1, 0,0) ">
<use filter="url(#Filter_1)" xlink:href="#vsdvs434_0_Layer1_0_FILL"/>
</g>

<g transform="matrix( 1, 0, 0, 1, 0,0) ">
<use filter="url(#Filter_1)" xlink:href="#vsdvs434_0_Layer0_0_FILL"/>
</g>
</g>
</svg>
