
<svg xmlns="http://www.w3.org/2000/svg" version="1.1" xmlns:xlink="http://www.w3.org/1999/xlink" preserveAspectRatio="none" x="0px" y="0px" width="1280px" height="720px" viewBox="0 0 1280 720">
<defs>
<g id="Layer0_0_STROKES_1_FILL">
<path fill="#33CCFF" stroke="none" d="
M -50.8 -70.25
Q -50.8044921875 -70.76328125 -51.2 -71.15 -51.53671875 -71.4955078125 -52.05 -71.5 -53.55 -71.5 -55.05 -71.5 -55.56328125 -71.4955078125 -55.95 -71.15 -56.2955078125 -70.76328125 -56.3 -70.25 -56.2955078125 -69.73671875 -55.95 -69.4 -55.56328125 -69.0044921875 -55.05 -69 -53.55 -69 -52.05 -69 -51.53671875 -69.0044921875 -51.2 -69.4 -50.8044921875 -69.73671875 -50.8 -70.25
M -43.8 -70.25
Q -43.8044921875 -70.76328125 -44.2 -71.15 -44.53671875 -71.4955078125 -45.05 -71.5 -46.55 -71.5 -48.05 -71.5 -48.56328125 -71.4955078125 -48.95 -71.15 -49.2955078125 -70.76328125 -49.3 -70.25 -49.2955078125 -69.73671875 -48.95 -69.4 -48.56328125 -69.0044921875 -48.05 -69 -46.55 -69 -45.05 -69 -44.53671875 -69.0044921875 -44.2 -69.4 -43.8044921875 -69.73671875 -43.8 -70.25
M -72.2 -71.15
Q -72.53671875 -71.4955078125 -73.05 -71.5 -74.55 -71.5 -76.05 -71.5 -76.56328125 -71.4955078125 -76.95 -71.15 -77.2955078125 -70.76328125 -77.3 -70.25 -77.2955078125 -69.73671875 -76.95 -69.4 -76.56328125 -69.0044921875 -76.05 -69 -74.55 -69 -73.05 -69 -72.53671875 -69.0044921875 -72.2 -69.4 -71.8044921875 -69.73671875 -71.8 -70.25 -71.8044921875 -70.76328125 -72.2 -71.15
M -65.2 -69.4
Q -64.8044921875 -69.73671875 -64.8 -70.25 -64.8044921875 -70.76328125 -65.2 -71.15 -65.53671875 -71.4955078125 -66.05 -71.5 -67.55 -71.5 -69.05 -71.5 -69.56328125 -71.4955078125 -69.95 -71.15 -70.2955078125 -70.76328125 -70.3 -70.25 -70.2955078125 -69.73671875 -69.95 -69.4 -69.56328125 -69.0044921875 -69.05 -69 -67.55 -69 -66.05 -69 -65.53671875 -69.0044921875 -65.2 -69.4
M -62.95 -69.4
Q -62.56328125 -69.0044921875 -62.05 -69 -60.55 -69 -59.05 -69 -58.53671875 -69.0044921875 -58.2 -69.4 -57.8044921875 -69.73671875 -57.8 -70.25 -57.8044921875 -70.76328125 -58.2 -71.15 -58.53671875 -71.4955078125 -59.05 -71.5 -60.55 -71.5 -62.05 -71.5 -62.56328125 -71.4955078125 -62.95 -71.15 -63.2955078125 -70.76328125 -63.3 -70.25 -63.2955078125 -69.73671875 -62.95 -69.4
M -10.1 -68.35
Q -9.58125 -68.3396484375 -9.2 -68.7 -8.8193359375 -69.04453125 -8.8 -69.55 -8.7892578125 -70.0685546875 -9.15 -70.45 -9.494921875 -70.8302734375 -10 -70.85 -11.5 -70.9 -13 -70.95 -13.51875 -70.9603515625 -13.9 -70.6 -14.2806640625 -70.25546875 -14.3 -69.75 -14.3107421875 -69.2314453125 -13.95 -68.85 -13.6052734375 -68.4697265625 -13.1 -68.45 -11.6 -68.4 -10.1 -68.35
M -1.8 -69.35
Q -1.7892578125 -69.8685546875 -2.15 -70.25 -2.494921875 -70.6302734375 -3 -70.65 -4.5 -70.7 -6 -70.75 -6.51875 -70.7603515625 -6.9 -70.4 -7.2806640625 -70.05546875 -7.3 -69.55 -7.3107421875 -69.0314453125 -6.95 -68.65 -6.6052734375 -68.2697265625 -6.1 -68.25 -4.6 -68.2 -3.1 -68.15 -2.58125 -68.1396484375 -2.2 -68.5 -1.8193359375 -68.84453125 -1.8 -69.35
M -38.05 -69
Q -37.53671875 -69.0044921875 -37.2 -69.4 -36.8044921875 -69.73671875 -36.8 -70.25 -36.8044921875 -70.76328125 -37.2 -71.15 -37.53671875 -71.4955078125 -38.05 -71.5 -39.55 -71.5 -41.05 -71.5 -41.56328125 -71.4955078125 -41.95 -71.15 -42.2955078125 -70.76328125 -42.3 -70.25 -42.2955078125 -69.73671875 -41.95 -69.4 -41.56328125 -69.0044921875 -41.05 -69 -39.55 -69 -38.05 -69
M -29.8 -70.2
Q -29.8044921875 -70.71328125 -30.2 -71.1 -30.53671875 -71.4455078125 -31.05 -71.45 -32.55 -71.45 -34.05 -71.45 -34.56328125 -71.4455078125 -34.95 -71.1 -35.2955078125 -70.71328125 -35.3 -70.2 -35.2955078125 -69.68671875 -34.95 -69.35 -34.56328125 -68.9544921875 -34.05 -68.95 -32.55 -68.95 -31.05 -68.95 -30.53671875 -68.9544921875 -30.2 -69.35 -29.8044921875 -69.68671875 -29.8 -70.2
M -23.15 -70.85
Q -23.494921875 -71.2302734375 -24 -71.25 -25.5 -71.3 -27 -71.35 -27.51875 -71.3603515625 -27.9 -71 -28.2806640625 -70.65546875 -28.3 -70.15 -28.3107421875 -69.6314453125 -27.95 -69.25 -27.6052734375 -68.8697265625 -27.1 -68.85 -25.6 -68.8 -24.1 -68.75 -23.58125 -68.7396484375 -23.2 -69.1 -22.8193359375 -69.44453125 -22.8 -69.95 -22.7892578125 -70.4685546875 -23.15 -70.85
M -21.3 -69.95
Q -21.3107421875 -69.4314453125 -20.95 -69.05 -20.6052734375 -68.6697265625 -20.1 -68.65 -18.6 -68.6 -17.1 -68.55 -16.58125 -68.5396484375 -16.2 -68.9 -15.8193359375 -69.24453125 -15.8 -69.75 -15.7892578125 -70.2685546875 -16.15 -70.65 -16.494921875 -71.0302734375 -17 -71.05 -18.5 -71.1 -20 -71.15 -20.51875 -71.1603515625 -20.9 -70.8 -21.2806640625 -70.45546875 -21.3 -69.95
M -134.8 -68.5
Q -134.8193359375 -69.00546875 -135.2 -69.35 -135.58125 -69.7103515625 -136.1 -69.7 -137.6 -69.65 -139.1 -69.6 -139.6052734375 -69.5802734375 -139.95 -69.2 -140.3107421875 -68.8185546875 -140.3 -68.3 -140.2806640625 -67.79453125 -139.9 -67.45 -139.51875 -67.0896484375 -139 -67.1 -137.5 -67.15 -136 -67.2 -135.494921875 -67.2197265625 -135.15 -67.6 -134.7892578125 -67.9814453125 -134.8 -68.5
M -127.8 -68.8
Q -127.8193359375 -69.30546875 -128.2 -69.65 -128.58125 -70.0103515625 -129.1 -70 -130.6 -69.95 -132.1 -69.9 -132.6052734375 -69.8802734375 -132.95 -69.5 -133.3107421875 -69.1185546875 -133.3 -68.6 -133.2806640625 -68.09453125 -132.9 -67.75 -132.51875 -67.3896484375 -132 -67.4 -130.5 -67.45 -129 -67.5 -128.494921875 -67.5197265625 -128.15 -67.9 -127.7892578125 -68.2814453125 -127.8 -68.8
M -157.15 -68.6
Q -158.625 -68.5 -160.15 -68.4 -160.6498046875 -68.36484375 -161 -68 -161.3380859375 -67.5869140625 -161.3 -67.1 -161.265234375 -66.55078125 -160.9 -66.2 -160.4865234375 -65.8625 -160 -65.9 -158.475 -66 -157 -66.1 -156.450390625 -66.13515625 -156.1 -66.55 -155.7619140625 -66.912890625 -155.8 -67.45 -155.834765625 -67.94921875 -156.25 -68.3 -156.6134765625 -68.6376953125 -157.15 -68.6
M -149.25 -68.7
Q -149.6134765625 -69.0376953125 -150.15 -69 -151.625 -68.9 -153.15 -68.8 -153.6498046875 -68.76484375 -154 -68.4 -154.3380859375 -67.9869140625 -154.3 -67.5 -154.265234375 -66.95078125 -153.9 -66.6 -153.4865234375 -66.2625 -153 -66.3 -151.475 -66.4 -150 -66.5 -149.450390625 -66.53515625 -149.1 -66.95 -148.7619140625 -67.312890625 -148.8 -67.85 -148.834765625 -68.34921875 -149.25 -68.7
M -142.25 -69.1
Q -142.6134765625 -69.4376953125 -143.15 -69.4 -144.625 -69.3 -146.15 -69.2 -146.6498046875 -69.16484375 -147 -68.8 -147.3380859375 -68.3869140625 -147.3 -67.9 -147.265234375 -67.35078125 -146.9 -67 -146.4865234375 -66.6625 -146 -66.7 -144.475 -66.8 -143 -66.9 -142.450390625 -66.93515625 -142.1 -67.35 -141.7619140625 -67.712890625 -141.8 -68.25 -141.834765625 -68.74921875 -142.25 -69.1
M -92.8 -69.95
Q -92.8193359375 -70.45546875 -93.2 -70.8 -93.58125 -71.1603515625 -94.1 -71.15 -95.6 -71.1 -97.1 -71.05 -97.6052734375 -71.0302734375 -97.95 -70.65 -98.3107421875 -70.2685546875 -98.3 -69.75 -98.2806640625 -69.24453125 -97.9 -68.9 -97.51875 -68.5396484375 -97 -68.55 -95.5 -68.6 -94 -68.65 -93.494921875 -68.6697265625 -93.15 -69.05 -92.7892578125 -69.4314453125 -92.8 -69.95
M -87.1 -71.35
Q -88.6 -71.3 -90.1 -71.25 -90.6052734375 -71.2302734375 -90.95 -70.85 -91.3107421875 -70.4685546875 -91.3 -69.95 -91.2806640625 -69.44453125 -90.9 -69.1 -90.51875 -68.7396484375 -90 -68.75 -88.5 -68.8 -87 -68.85 -86.494921875 -68.8697265625 -86.15 -69.25 -85.7892578125 -69.6314453125 -85.8 -70.15 -85.8193359375 -70.65546875 -86.2 -71 -86.58125 -71.3603515625 -87.1 -71.35
M -83.95 -69.35
Q -83.56328125 -68.9544921875 -83.05 -68.95 -81.55 -68.95 -80.05 -68.95 -79.53671875 -68.9544921875 -79.2 -69.35 -78.8044921875 -69.68671875 -78.8 -70.2 -78.8044921875 -70.71328125 -79.2 -71.1 -79.53671875 -71.4455078125 -80.05 -71.45 -81.55 -71.45 -83.05 -71.45 -83.56328125 -71.4455078125 -83.95 -71.1 -84.2955078125 -70.71328125 -84.3 -70.2 -84.2955078125 -69.68671875 -83.95 -69.35
M -120.8 -69.1
Q -120.8193359375 -69.60546875 -121.2 -69.95 -121.58125 -70.3103515625 -122.1 -70.3 -123.6 -70.25 -125.1 -70.2 -125.6052734375 -70.1802734375 -125.95 -69.8 -126.3107421875 -69.4185546875 -126.3 -68.9 -126.2806640625 -68.39453125 -125.9 -68.05 -125.51875 -67.6896484375 -125 -67.7 -123.5 -67.75 -122 -67.8 -121.494921875 -67.8197265625 -121.15 -68.2 -120.7892578125 -68.5814453125 -120.8 -69.1
M -114.2 -70.2
Q -114.58125 -70.5603515625 -115.1 -70.55 -116.6 -70.5 -118.1 -70.45 -118.6052734375 -70.4302734375 -118.95 -70.05 -119.3107421875 -69.6685546875 -119.3 -69.15 -119.2806640625 -68.64453125 -118.9 -68.3 -118.51875 -67.9396484375 -118 -67.95 -116.5 -68 -115 -68.05 -114.494921875 -68.0697265625 -114.15 -68.45 -113.7892578125 -68.8314453125 -113.8 -69.35 -113.8193359375 -69.85546875 -114.2 -70.2
M -108.1 -70.75
Q -109.6 -70.7 -111.1 -70.65 -111.6052734375 -70.6302734375 -111.95 -70.25 -112.3107421875 -69.8685546875 -112.3 -69.35 -112.2806640625 -68.84453125 -111.9 -68.5 -111.51875 -68.1396484375 -111 -68.15 -109.5 -68.2 -108 -68.25 -107.494921875 -68.2697265625 -107.15 -68.65 -106.7892578125 -69.0314453125 -106.8 -69.55 -106.8193359375 -70.05546875 -107.2 -70.4 -107.58125 -70.7603515625 -108.1 -70.75
M -104.9 -68.7
Q -104.51875 -68.3396484375 -104 -68.35 -102.5 -68.4 -101 -68.45 -100.494921875 -68.4697265625 -100.15 -68.85 -99.7892578125 -69.2314453125 -99.8 -69.75 -99.8193359375 -70.25546875 -100.2 -70.6 -100.58125 -70.9603515625 -101.1 -70.95 -102.6 -70.9 -104.1 -70.85 -104.6052734375 -70.8302734375 -104.95 -70.45 -105.3107421875 -70.0685546875 -105.3 -69.55 -105.2806640625 -69.04453125 -104.9 -68.7
M -211.8 -63.1
Q -211.8501953125 -63.5921875 -212.25 -63.95 -212.6556640625 -64.2521484375 -213.2 -64.2 -214.675 -64.05 -216.2 -63.9 -216.6916015625 -63.8494140625 -217.05 -63.45 -217.3525390625 -63.0435546875 -217.3 -62.55 -217.2498046875 -62.0078125 -216.85 -61.7 -216.4443359375 -61.3478515625 -215.95 -61.4 -214.425 -61.55 -212.95 -61.7 -212.40859375 -61.7505859375 -212.1 -62.15 -211.7474609375 -62.55625 -211.8 -63.1
M -209.85 -62.4
Q -209.4443359375 -62.0478515625 -208.95 -62.1 -207.425 -62.25 -205.95 -62.4 -205.40859375 -62.4505859375 -205.1 -62.85 -204.7474609375 -63.25625 -204.8 -63.8 -204.8501953125 -64.2921875 -205.25 -64.65 -205.6556640625 -64.9521484375 -206.2 -64.9 -207.675 -64.75 -209.2 -64.6 -209.6916015625 -64.5494140625 -210.05 -64.15 -210.3525390625 -63.7435546875 -210.3 -63.25 -210.2498046875 -62.7078125 -209.85 -62.4
M -236.95 -59.3
Q -235.425 -59.45 -233.95 -59.6 -233.40859375 -59.6505859375 -233.1 -60.05 -232.7474609375 -60.45625 -232.8 -61 -232.8501953125 -61.4921875 -233.25 -61.85 -233.6556640625 -62.1521484375 -234.2 -62.1 -235.675 -61.95 -237.2 -61.8 -237.6916015625 -61.7494140625 -238.05 -61.35 -238.3525390625 -60.9435546875 -238.3 -60.45 -238.2498046875 -59.9078125 -237.85 -59.6 -237.4443359375 -59.2478515625 -236.95 -59.3
M -223.2 -63.2
Q -223.6916015625 -63.1494140625 -224.05 -62.75 -224.3525390625 -62.3435546875 -224.3 -61.85 -224.2498046875 -61.3078125 -223.85 -61 -223.4443359375 -60.6478515625 -222.95 -60.7 -221.425 -60.85 -219.95 -61 -219.40859375 -61.0505859375 -219.1 -61.45 -218.7474609375 -61.85625 -218.8 -62.4 -218.8501953125 -62.8921875 -219.25 -63.25 -219.6556640625 -63.5521484375 -220.2 -63.5 -221.675 -63.35 -223.2 -63.2
M -226.25 -62.55
Q -226.6556640625 -62.8521484375 -227.2 -62.8 -228.675 -62.65 -230.2 -62.5 -230.6916015625 -62.4494140625 -231.05 -62.05 -231.3525390625 -61.6435546875 -231.3 -61.15 -231.2498046875 -60.6078125 -230.85 -60.3 -230.4443359375 -59.9478515625 -229.95 -60 -228.425 -60.15 -226.95 -60.3 -226.40859375 -60.3505859375 -226.1 -60.75 -225.7474609375 -61.15625 -225.8 -61.7 -225.8501953125 -62.1921875 -226.25 -62.55
M -181.9 -64.75
Q -181.4865234375 -64.4125 -181 -64.45 -179.475 -64.55 -178 -64.65 -177.450390625 -64.68515625 -177.1 -65.1 -176.7619140625 -65.462890625 -176.8 -66 -176.834765625 -66.49921875 -177.25 -66.85 -177.6134765625 -67.1876953125 -178.15 -67.15 -179.625 -67.05 -181.15 -66.95 -181.6498046875 -66.91484375 -182 -66.55 -182.3380859375 -66.1369140625 -182.3 -65.65 -182.265234375 -65.10078125 -181.9 -64.75
M -171 -65.15
Q -170.450390625 -65.18515625 -170.1 -65.6 -169.7619140625 -65.962890625 -169.8 -66.5 -169.834765625 -66.99921875 -170.25 -67.35 -170.6134765625 -67.6876953125 -171.15 -67.65 -172.625 -67.55 -174.15 -67.45 -174.6498046875 -67.41484375 -175 -67.05 -175.3380859375 -66.6369140625 -175.3 -66.15 -175.265234375 -65.60078125 -174.9 -65.25 -174.4865234375 -64.9125 -174 -64.95 -172.475 -65.05 -171 -65.15
M -168.3 -66.65
Q -168.265234375 -66.10078125 -167.9 -65.75 -167.4865234375 -65.4125 -167 -65.45 -165.475 -65.55 -164 -65.65 -163.450390625 -65.68515625 -163.1 -66.1 -162.7619140625 -66.462890625 -162.8 -67 -162.834765625 -67.49921875 -163.25 -67.85 -163.6134765625 -68.1876953125 -164.15 -68.15 -165.625 -68.05 -167.15 -67.95 -167.6498046875 -67.91484375 -168 -67.55 -168.3380859375 -67.1369140625 -168.3 -66.65
M -198.25 -65.35
Q -198.6556640625 -65.6521484375 -199.2 -65.6 -200.675 -65.45 -202.2 -65.3 -202.6916015625 -65.2494140625 -203.05 -64.85 -203.3525390625 -64.4435546875 -203.3 -63.95 -203.2498046875 -63.4078125 -202.85 -63.1 -202.4443359375 -62.7478515625 -201.95 -62.8 -200.425 -62.95 -198.95 -63.1 -198.40859375 -63.1505859375 -198.1 -63.55 -197.7474609375 -63.95625 -197.8 -64.5 -197.8501953125 -64.9921875 -198.25 -65.35
M -188.15 -66.45
Q -188.6498046875 -66.41484375 -189 -66.05 -189.3380859375 -65.6369140625 -189.3 -65.15 -189.265234375 -64.60078125 -188.9 -64.25 -188.4865234375 -63.9125 -188 -63.95 -186.475 -64.05 -185 -64.15 -184.450390625 -64.18515625 -184.1 -64.6 -183.7619140625 -64.962890625 -183.8 -65.5 -183.834765625 -65.99921875 -184.25 -66.35 -184.6134765625 -66.6876953125 -185.15 -66.65 -186.625 -66.55 -188.15 -66.45
M -191.25 -65.85
Q -191.6134765625 -66.1876953125 -192.15 -66.15 -193.65 -66.050390625 -195.2 -65.9 -195.6916015625 -65.8494140625 -196.05 -65.45 -196.3525390625 -65.0435546875 -196.3 -64.55 -196.2498046875 -64.0078125 -195.85 -63.7 -195.4443359375 -63.3478515625 -194.95 -63.4 -193.45 -63.549609375 -192 -63.65 -191.450390625 -63.68515625 -191.1 -64.1 -190.7619140625 -64.462890625 -190.8 -65 -190.834765625 -65.49921875 -191.25 -65.85
M -294.3 -53.35
Q -294.221484375 -52.814453125 -293.8 -52.5 -293.3869140625 -52.18359375 -292.9 -52.25 -291.375 -52.45 -289.9 -52.65 -289.3642578125 -52.7291015625 -289.05 -53.15 -288.7330078125 -53.562890625 -288.8 -54.1 -288.878515625 -54.585546875 -289.3 -54.9 -289.71328125 -55.2166015625 -290.25 -55.15 -291.725 -54.95 -293.25 -54.75 -293.7359375 -54.67109375 -294.05 -54.25 -294.3669921875 -53.837109375 -294.3 -53.35
M -300.25 -53.75
Q -300.7359375 -53.67109375 -301.05 -53.25 -301.3669921875 -52.837109375 -301.3 -52.35 -301.221484375 -51.814453125 -300.8 -51.5 -300.3869140625 -51.18359375 -299.9 -51.25 -298.375 -51.45 -296.9 -51.65 -296.3642578125 -51.7291015625 -296.05 -52.15 -295.7330078125 -52.562890625 -295.8 -53.1 -295.878515625 -53.585546875 -296.3 -53.9 -296.71328125 -54.2166015625 -297.25 -54.15 -298.725 -53.95 -300.25 -53.75
M -308.3 -51.2
Q -308.193359375 -50.6841796875 -307.8 -50.4 -307.3568359375 -50.0818359375 -306.85 -50.2 -305.35 -50.425 -303.85 -50.7 -303.3349609375 -50.75703125 -303.05 -51.2 -302.7314453125 -51.5939453125 -302.85 -52.1 -302.906640625 -52.6158203125 -303.35 -52.95 -303.743359375 -53.2181640625 -304.25 -53.15 -305.75 -52.875 -307.25 -52.65 -307.765234375 -52.54296875 -308.1 -52.15 -308.3685546875 -51.7060546875 -308.3 -51.2
M -315.1 -51.05
Q -315.3685546875 -50.6060546875 -315.3 -50.1 -315.193359375 -49.5841796875 -314.8 -49.3 -314.3568359375 -48.9818359375 -313.85 -49.1 -312.35 -49.325 -310.85 -49.6 -310.3349609375 -49.65703125 -310.05 -50.1 -309.7314453125 -50.4939453125 -309.85 -51 -309.906640625 -51.5158203125 -310.35 -51.85 -310.743359375 -52.1181640625 -311.25 -52.05 -312.75 -51.775 -314.25 -51.55 -314.765234375 -51.44296875 -315.1 -51.05
M -317.35 -50.75
Q -317.743359375 -51.0181640625 -318.25 -50.95 -319.75 -50.675 -321.25 -50.45 -321.765234375 -50.34296875 -322.1 -49.95 -322.3685546875 -49.5060546875 -322.3 -49 -322.193359375 -48.4841796875 -321.8 -48.2 -321.3568359375 -47.8818359375 -320.85 -48 -319.35 -48.225 -317.85 -48.5 -317.3349609375 -48.55703125 -317.05 -49 -316.7314453125 -49.3939453125 -316.85 -49.9 -316.906640625 -50.4158203125 -317.35 -50.75
M -247.95 -58.1
Q -247.40859375 -58.1505859375 -247.1 -58.55 -246.7474609375 -58.95625 -246.8 -59.5 -246.8501953125 -59.9921875 -247.25 -60.35 -247.6556640625 -60.6521484375 -248.2 -60.6 -249.7001953125 -60.450390625 -251.25 -60.25 -251.7359375 -60.17109375 -252.05 -59.75 -252.3669921875 -59.337109375 -252.3 -58.85 -252.221484375 -58.314453125 -251.8 -58 -251.3869140625 -57.68359375 -250.9 -57.75 -249.4001953125 -57.949609375 -247.95 -58.1
M -244.2 -61.1
Q -244.6916015625 -61.0494140625 -245.05 -60.65 -245.3525390625 -60.2435546875 -245.3 -59.75 -245.2498046875 -59.2078125 -244.85 -58.9 -244.4443359375 -58.5478515625 -243.95 -58.6 -242.425 -58.75 -240.95 -58.9 -240.40859375 -58.9505859375 -240.1 -59.35 -239.7474609375 -59.75625 -239.8 -60.3 -239.8501953125 -60.7921875 -240.25 -61.15 -240.6556640625 -61.4521484375 -241.2 -61.4 -242.675 -61.25 -244.2 -61.1
M -254.3 -59.5
Q -254.71328125 -59.8166015625 -255.25 -59.75 -256.725 -59.55 -258.25 -59.35 -258.7359375 -59.27109375 -259.05 -58.85 -259.3669921875 -58.437109375 -259.3 -57.95 -259.221484375 -57.414453125 -258.8 -57.1 -258.3869140625 -56.78359375 -257.9 -56.85 -256.375 -57.05 -254.9 -57.25 -254.3642578125 -57.3291015625 -254.05 -57.75 -253.7330078125 -58.162890625 -253.8 -58.7 -253.878515625 -59.185546875 -254.3 -59.5
M -268.05 -55.95
Q -267.7330078125 -56.362890625 -267.8 -56.9 -267.878515625 -57.385546875 -268.3 -57.7 -268.71328125 -58.0166015625 -269.25 -57.95 -270.725 -57.75 -272.25 -57.55 -272.7359375 -57.47109375 -273.05 -57.05 -273.3669921875 -56.637109375 -273.3 -56.15 -273.221484375 -55.614453125 -272.8 -55.3 -272.3869140625 -54.98359375 -271.9 -55.05 -270.375 -55.25 -268.9 -55.45 -268.3642578125 -55.5291015625 -268.05 -55.95
M -265.8 -56.2
Q -265.3869140625 -55.88359375 -264.9 -55.95 -263.375 -56.15 -261.9 -56.35 -261.3642578125 -56.4291015625 -261.05 -56.85 -260.7330078125 -57.262890625 -260.8 -57.8 -260.878515625 -58.285546875 -261.3 -58.6 -261.71328125 -58.9166015625 -262.25 -58.85 -263.725 -58.65 -265.25 -58.45 -265.7359375 -58.37109375 -266.05 -57.95 -266.3669921875 -57.537109375 -266.3 -57.05 -266.221484375 -56.514453125 -265.8 -56.2
M -282.3 -55.9
Q -282.71328125 -56.2166015625 -283.25 -56.15 -284.725 -55.95 -286.25 -55.75 -286.7359375 -55.67109375 -287.05 -55.25 -287.3669921875 -54.837109375 -287.3 -54.35 -287.221484375 -53.814453125 -286.8 -53.5 -286.3869140625 -53.18359375 -285.9 -53.25 -284.375 -53.45 -282.9 -53.65 -282.3642578125 -53.7291015625 -282.05 -54.15 -281.7330078125 -54.562890625 -281.8 -55.1 -281.878515625 -55.585546875 -282.3 -55.9
M -275.3 -56.8
Q -275.71328125 -57.1166015625 -276.25 -57.05 -277.725 -56.85 -279.25 -56.65 -279.7359375 -56.57109375 -280.05 -56.15 -280.3669921875 -55.737109375 -280.3 -55.25 -280.221484375 -54.714453125 -279.8 -54.4 -279.3869140625 -54.08359375 -278.9 -54.15 -277.375 -54.35 -275.9 -54.55 -275.3642578125 -54.6291015625 -275.05 -55.05 -274.7330078125 -55.462890625 -274.8 -56 -274.878515625 -56.485546875 -275.3 -56.8
M 353 -22.5
Q 352.755078125 -22.9458984375 352.25 -23.1 351.25 -23.325 350.25 -23.6 349.748046875 -23.69609375 349.3 -23.45 348.866015625 -23.154296875 348.75 -22.65 348.6158203125 -22.147265625 348.85 -21.7 349.144921875 -21.2541015625 349.65 -21.15 350.65 -20.875 351.65 -20.65 352.1517578125 -20.5041015625 352.6 -20.8 353.033984375 -21.045703125 353.15 -21.55 353.2841796875 -22.052734375 353 -22.5
M 343.2 -25.25
Q 342.7314453125 -25.333203125 342.3 -25.05 341.8515625 -24.7765625 341.7 -24.3 341.61640625 -23.7814453125 341.9 -23.35 342.1734375 -22.901953125 342.65 -22.8 344.175 -22.425 345.65 -22.1 346.1685546875 -21.966796875 346.6 -22.25 347.0486328125 -22.5234375 347.15 -23.05 347.28359375 -23.5185546875 347 -23.95 346.7265625 -24.398046875 346.2 -24.55 344.725 -24.875 343.2 -25.25
M 340 -25.55
Q 339.7265625 -25.998046875 339.2 -26.15 337.7123046875 -26.475390625 336.2 -26.8 335.688671875 -26.8818359375 335.25 -26.6 334.8228515625 -26.308984375 334.7 -25.8 334.617578125 -25.287890625 334.9 -24.85 335.190234375 -24.4234375 335.7 -24.35 337.1873046875 -24.0248046875 338.65 -23.7 339.1685546875 -23.566796875 339.6 -23.85 340.0486328125 -24.1234375 340.15 -24.65 340.28359375 -25.1185546875 340 -25.55
M 328.45 -28.1
Q 328.0359375 -27.809765625 327.9 -27.3 327.8173828125 -26.8013671875 328.1 -26.4 328.390625 -25.936328125 328.9 -25.85 330.35 -25.525 331.8 -25.25 332.2990234375 -25.117578125 332.7 -25.4 333.1640625 -25.690234375 333.25 -26.2 333.3826171875 -26.6986328125 333.1 -27.15 332.809375 -27.563671875 332.3 -27.7 330.85 -27.975 329.4 -28.3 328.9009765625 -28.382421875 328.45 -28.1
M 293.15 -34.6
Q 293.067578125 -34.087890625 293.35 -33.65 293.640234375 -33.2234375 294.15 -33.15 295.65 -32.825 297.15 -32.55 297.661328125 -32.4181640625 298.1 -32.7 298.5271484375 -32.991015625 298.6 -33.5 298.732421875 -34.0119140625 298.45 -34.45 298.1595703125 -34.8765625 297.65 -35 296.15 -35.275 294.65 -35.6 294.138671875 -35.6818359375 293.7 -35.4 293.2728515625 -35.108984375 293.15 -34.6
M 291.6 -34.9
Q 291.732421875 -35.4119140625 291.45 -35.85 291.1595703125 -36.2765625 290.65 -36.4 289.15 -36.675 287.65 -37 287.138671875 -37.0818359375 286.7 -36.8 286.2728515625 -36.508984375 286.15 -36 286.067578125 -35.487890625 286.35 -35.05 286.640234375 -34.6234375 287.15 -34.55 288.65 -34.225 290.15 -33.95 290.661328125 -33.8181640625 291.1 -34.1 291.5271484375 -34.391015625 291.6 -34.9
M 322.5 -29.85
Q 321.988671875 -29.9318359375 321.55 -29.65 321.1228515625 -29.358984375 321 -28.85 320.917578125 -28.337890625 321.2 -27.9 321.490234375 -27.4734375 322 -27.4 323.4873046875 -27.0748046875 324.95 -26.75 325.4685546875 -26.616796875 325.9 -26.9 326.3486328125 -27.1734375 326.45 -27.7 326.58359375 -28.1685546875 326.3 -28.6 326.0265625 -29.048046875 325.5 -29.2 324.0123046875 -29.525390625 322.5 -29.85
M 315.6 -31.35
Q 315.088671875 -31.4318359375 314.65 -31.15 314.2228515625 -30.858984375 314.1 -30.35 314.017578125 -29.837890625 314.3 -29.4 314.590234375 -28.9734375 315.1 -28.9 316.6 -28.575 318.1 -28.3 318.611328125 -28.1681640625 319.05 -28.45 319.4771484375 -28.741015625 319.55 -29.25 319.682421875 -29.7619140625 319.4 -30.2 319.1095703125 -30.6265625 318.6 -30.75 317.1 -31.025 315.6 -31.35
M 305.6 -32.1
Q 305.732421875 -32.6119140625 305.45 -33.05 305.1595703125 -33.4765625 304.65 -33.6 303.15 -33.875 301.65 -34.2 301.138671875 -34.2818359375 300.7 -34 300.2728515625 -33.708984375 300.15 -33.2 300.067578125 -32.687890625 300.35 -32.25 300.640234375 -31.8234375 301.15 -31.75 302.65 -31.425 304.15 -31.15 304.661328125 -31.0181640625 305.1 -31.3 305.5271484375 -31.591015625 305.6 -32.1
M 312.45 -31.65
Q 312.1595703125 -32.0765625 311.65 -32.2 310.15 -32.475 308.65 -32.8 308.138671875 -32.8818359375 307.7 -32.6 307.2728515625 -32.308984375 307.15 -31.8 307.067578125 -31.287890625 307.35 -30.85 307.640234375 -30.4234375 308.15 -30.35 309.65 -30.025 311.15 -29.75 311.661328125 -29.6181640625 312.1 -29.9 312.5271484375 -30.191015625 312.6 -30.7 312.732421875 -31.2119140625 312.45 -31.65
M 249.95 -43.85
Q 249.6650390625 -44.24296875 249.15 -44.35 247.65 -44.575 246.15 -44.85 245.6431640625 -44.9181640625 245.2 -44.65 244.806640625 -44.3158203125 244.7 -43.8 244.6314453125 -43.2939453125 244.9 -42.9 245.234765625 -42.45703125 245.75 -42.4 247.25 -42.125 248.75 -41.9 249.256640625 -41.7818359375 249.65 -42.1 250.093359375 -42.3841796875 250.15 -42.9 250.2685546875 -43.4060546875 249.95 -43.85
M 255.65 -40.7
Q 256.156640625 -40.5818359375 256.55 -40.9 256.993359375 -41.1841796875 257.05 -41.7 257.1685546875 -42.2060546875 256.85 -42.65 256.5650390625 -43.04296875 256.05 -43.15 254.55 -43.375 253.05 -43.65 252.5431640625 -43.7181640625 252.1 -43.45 251.706640625 -43.1158203125 251.6 -42.6 251.5314453125 -42.0939453125 251.8 -41.7 252.134765625 -41.25703125 252.65 -41.2 254.15 -40.925 255.65 -40.7
M 264.05 -40.35
Q 264.182421875 -40.8619140625 263.9 -41.3 263.6095703125 -41.7265625 263.1 -41.85 261.6 -42.125 260.1 -42.45 259.588671875 -42.5318359375 259.15 -42.25 258.7228515625 -41.958984375 258.6 -41.45 258.517578125 -40.937890625 258.8 -40.5 259.090234375 -40.0734375 259.6 -40 261.1 -39.675 262.6 -39.4 263.111328125 -39.2681640625 263.55 -39.55 263.9771484375 -39.841015625 264.05 -40.35
M 265.7 -39.2
Q 265.990234375 -38.7734375 266.5 -38.7 268 -38.375 269.5 -38.1 270.011328125 -37.9681640625 270.45 -38.25 270.8771484375 -38.541015625 270.95 -39.05 271.082421875 -39.5619140625 270.8 -40 270.5095703125 -40.4265625 270 -40.55 268.5 -40.825 267 -41.15 266.488671875 -41.2318359375 266.05 -40.95 265.6228515625 -40.658984375 265.5 -40.15 265.417578125 -39.637890625 265.7 -39.2
M 279.9 -38.2
Q 279.4859375 -37.909765625 279.35 -37.4 279.2673828125 -36.9013671875 279.55 -36.5 279.840625 -36.036328125 280.35 -35.95 281.8 -35.625 283.25 -35.35 283.7490234375 -35.217578125 284.15 -35.5 284.6140625 -35.790234375 284.7 -36.3 284.8326171875 -36.7986328125 284.55 -37.25 284.259375 -37.663671875 283.75 -37.8 282.3 -38.075 280.85 -38.4 280.3509765625 -38.482421875 279.9 -38.2
M 277.75 -38.65
Q 277.4595703125 -39.0765625 276.95 -39.2 275.45 -39.475 273.95 -39.8 273.438671875 -39.8818359375 273 -39.6 272.5728515625 -39.308984375 272.45 -38.8 272.367578125 -38.287890625 272.65 -37.85 272.940234375 -37.4234375 273.45 -37.35 274.95 -37.025 276.45 -36.75 276.961328125 -36.6181640625 277.4 -36.9 277.8271484375 -37.191015625 277.9 -37.7 278.032421875 -38.2119140625 277.75 -38.65
M 220.75 -46.6
Q 221.256640625 -46.4818359375 221.65 -46.8 222.093359375 -47.0841796875 222.15 -47.6 222.2685546875 -48.1060546875 221.95 -48.55 221.6650390625 -48.94296875 221.15 -49.05 219.65 -49.275 218.15 -49.55 217.6431640625 -49.6181640625 217.2 -49.35 216.806640625 -49.0158203125 216.7 -48.5 216.6314453125 -47.9939453125 216.9 -47.6 217.234765625 -47.15703125 217.75 -47.1 219.25 -46.825 220.75 -46.6
M 229.15 -46.5
Q 229.2685546875 -47.0060546875 228.95 -47.45 228.6650390625 -47.84296875 228.15 -47.95 226.65 -48.175 225.15 -48.45 224.6431640625 -48.5181640625 224.2 -48.25 223.806640625 -47.9158203125 223.7 -47.4 223.6314453125 -46.8939453125 223.9 -46.5 224.234765625 -46.05703125 224.75 -46 226.25 -45.725 227.75 -45.5 228.256640625 -45.3818359375 228.65 -45.7 229.093359375 -45.9841796875 229.15 -46.5
M 235.95 -46.25
Q 235.6650390625 -46.64296875 235.15 -46.75 233.65 -46.975 232.15 -47.25 231.6431640625 -47.3181640625 231.2 -47.05 230.806640625 -46.7158203125 230.7 -46.2 230.6314453125 -45.6939453125 230.9 -45.3 231.234765625 -44.85703125 231.75 -44.8 233.25 -44.525 234.75 -44.3 235.256640625 -44.1818359375 235.65 -44.5 236.093359375 -44.7841796875 236.15 -45.3 236.2685546875 -45.8060546875 235.95 -46.25
M 242.15 -45.55
Q 240.65 -45.775 239.15 -46.05 238.6431640625 -46.1181640625 238.2 -45.85 237.806640625 -45.5158203125 237.7 -45 237.6314453125 -44.4939453125 237.9 -44.1 238.234765625 -43.65703125 238.75 -43.6 240.25 -43.325 241.75 -43.1 242.256640625 -42.9818359375 242.65 -43.3 243.093359375 -43.5841796875 243.15 -44.1 243.2685546875 -44.6060546875 242.95 -45.05 242.6650390625 -45.44296875 242.15 -45.55
M 197.1 -52.7
Q 196.6130859375 -52.7666015625 196.2 -52.45 195.778515625 -52.135546875 195.7 -51.65 195.6330078125 -51.112890625 195.95 -50.7 196.2640625 -50.2791015625 196.75 -50.2 198.275 -50 199.75 -49.8 200.28671875 -49.73359375 200.7 -50.05 201.121484375 -50.364453125 201.2 -50.9 201.2669921875 -51.387109375 200.95 -51.8 200.6357421875 -52.22109375 200.1 -52.3 198.625 -52.5 197.1 -52.7
M 188.95 -51.7
Q 189.2640625 -51.2791015625 189.75 -51.2 191.275 -51 192.75 -50.8 193.28671875 -50.73359375 193.7 -51.05 194.121484375 -51.364453125 194.2 -51.9 194.2669921875 -52.387109375 193.95 -52.8 193.6357421875 -53.22109375 193.1 -53.3 191.625 -53.5 190.1 -53.7 189.6130859375 -53.7666015625 189.2 -53.45 188.778515625 -53.135546875 188.7 -52.65 188.6330078125 -52.112890625 188.95 -51.7
M 181.7 -53.65
Q 181.6330078125 -53.112890625 181.95 -52.7 182.2640625 -52.2791015625 182.75 -52.2 184.275 -52 185.75 -51.8 186.28671875 -51.73359375 186.7 -52.05 187.121484375 -52.364453125 187.2 -52.9 187.2669921875 -53.387109375 186.95 -53.8 186.6357421875 -54.22109375 186.1 -54.3 184.625 -54.5 183.1 -54.7 182.6130859375 -54.7666015625 182.2 -54.45 181.778515625 -54.135546875 181.7 -53.65
M 176.1 -55.6
Q 175.6130859375 -55.6666015625 175.2 -55.35 174.778515625 -55.035546875 174.7 -54.55 174.6330078125 -54.012890625 174.95 -53.6 175.2640625 -53.1791015625 175.75 -53.1 177.275 -52.9 178.75 -52.7 179.28671875 -52.63359375 179.7 -52.95 180.121484375 -53.264453125 180.2 -53.8 180.2669921875 -54.287109375 179.95 -54.7 179.6357421875 -55.12109375 179.1 -55.2 177.625 -55.4 176.1 -55.6
M 169.1 -56.5
Q 168.6130859375 -56.5666015625 168.2 -56.25 167.778515625 -55.935546875 167.7 -55.45 167.6330078125 -54.912890625 167.95 -54.5 168.2640625 -54.0791015625 168.75 -54 170.275 -53.8 171.75 -53.6 172.28671875 -53.53359375 172.7 -53.85 173.121484375 -54.164453125 173.2 -54.7 173.2669921875 -55.187109375 172.95 -55.6 172.6357421875 -56.02109375 172.1 -56.1 170.625 -56.3 169.1 -56.5
M 210.2 -50.45
Q 209.806640625 -50.1158203125 209.7 -49.6 209.6314453125 -49.0939453125 209.9 -48.7 210.234765625 -48.25703125 210.75 -48.2 212.25 -47.925 213.75 -47.7 214.256640625 -47.5818359375 214.65 -47.9 215.093359375 -48.1841796875 215.15 -48.7 215.2685546875 -49.2060546875 214.95 -49.65 214.6650390625 -50.04296875 214.15 -50.15 212.65 -50.375 211.15 -50.65 210.6431640625 -50.7181640625 210.2 -50.45
M 207.95 -50.75
Q 207.6650390625 -51.14296875 207.15 -51.25 205.6375 -51.487890625 204.1 -51.7 203.6130859375 -51.7666015625 203.2 -51.45 202.778515625 -51.135546875 202.7 -50.65 202.6330078125 -50.112890625 202.95 -49.7 203.2640625 -49.2791015625 203.75 -49.2 205.2625 -49.0123046875 206.75 -48.8 207.256640625 -48.6818359375 207.65 -49 208.093359375 -49.2841796875 208.15 -49.8 208.2685546875 -50.3060546875 207.95 -50.75
M 109.9 -62.8
Q 109.59140625 -63.1994140625 109.05 -63.25 107.575 -63.4 106.05 -63.55 105.5556640625 -63.6021484375 105.15 -63.3 104.7501953125 -62.9421875 104.7 -62.45 104.6474609375 -61.90625 104.95 -61.5 105.3083984375 -61.1005859375 105.8 -61.05 107.325 -60.9 108.8 -60.75 109.3443359375 -60.6978515625 109.75 -61.05 110.1498046875 -61.3578125 110.2 -61.9 110.2525390625 -62.3935546875 109.9 -62.8
M 116.05 -62.55
Q 114.575 -62.7 113.05 -62.85 112.5556640625 -62.9021484375 112.15 -62.6 111.7501953125 -62.2421875 111.7 -61.75 111.6474609375 -61.20625 111.95 -60.8 112.3083984375 -60.4005859375 112.8 -60.35 114.325 -60.2 115.8 -60.05 116.3443359375 -59.9978515625 116.75 -60.35 117.1498046875 -60.6578125 117.2 -61.2 117.2525390625 -61.6935546875 116.9 -62.1 116.59140625 -62.4994140625 116.05 -62.55
M 85.05 -65.6
Q 84.5556640625 -65.6521484375 84.15 -65.35 83.7501953125 -64.9921875 83.7 -64.5 83.6474609375 -63.95625 83.95 -63.55 84.3083984375 -63.1505859375 84.8 -63.1 86.325 -62.95 87.8 -62.8 88.3443359375 -62.7478515625 88.75 -63.1 89.1498046875 -63.4078125 89.2 -63.95 89.2525390625 -64.4435546875 88.9 -64.85 88.59140625 -65.2494140625 88.05 -65.3 86.575 -65.45 85.05 -65.6
M 97.7 -63.15
Q 97.6474609375 -62.60625 97.95 -62.2 98.3083984375 -61.8005859375 98.8 -61.75 100.325 -61.6 101.8 -61.45 102.3443359375 -61.3978515625 102.75 -61.75 103.1498046875 -62.0578125 103.2 -62.6 103.2525390625 -63.0935546875 102.9 -63.5 102.59140625 -63.8994140625 102.05 -63.95 100.575 -64.1 99.05 -64.25 98.5556640625 -64.3021484375 98.15 -64 97.7501953125 -63.6421875 97.7 -63.15
M 95.9 -64.2
Q 95.59140625 -64.5994140625 95.05 -64.65 93.575 -64.8 92.05 -64.95 91.5556640625 -65.0021484375 91.15 -64.7 90.7501953125 -64.3421875 90.7 -63.85 90.6474609375 -63.30625 90.95 -62.9 91.3083984375 -62.5005859375 91.8 -62.45 93.325 -62.3 94.8 -62.15 95.3443359375 -62.0978515625 95.75 -62.45 96.1498046875 -62.7578125 96.2 -63.3 96.2525390625 -63.7935546875 95.9 -64.2
M 158.95 -57.4
Q 158.6357421875 -57.82109375 158.1 -57.9 156.625 -58.1 155.1 -58.3 154.6130859375 -58.3666015625 154.2 -58.05 153.778515625 -57.735546875 153.7 -57.25 153.6330078125 -56.712890625 153.95 -56.3 154.2640625 -55.8791015625 154.75 -55.8 156.275 -55.6 157.75 -55.4 158.28671875 -55.33359375 158.7 -55.65 159.121484375 -55.964453125 159.2 -56.5 159.2669921875 -56.987109375 158.95 -57.4
M 161.2 -57.15
Q 160.778515625 -56.835546875 160.7 -56.35 160.6330078125 -55.812890625 160.95 -55.4 161.2640625 -54.9791015625 161.75 -54.9 163.275 -54.7 164.75 -54.5 165.28671875 -54.43359375 165.7 -54.75 166.121484375 -55.064453125 166.2 -55.6 166.2669921875 -56.087109375 165.95 -56.5 165.6357421875 -56.92109375 165.1 -57 163.625 -57.2 162.1 -57.4 161.6130859375 -57.4666015625 161.2 -57.15
M 150.75 -56.3
Q 151.28671875 -56.23359375 151.7 -56.55 152.121484375 -56.864453125 152.2 -57.4 152.2669921875 -57.887109375 151.95 -58.3 151.6357421875 -58.72109375 151.1 -58.8 149.625 -59 148.1 -59.2 147.6130859375 -59.2666015625 147.2 -58.95 146.778515625 -58.635546875 146.7 -58.15 146.6330078125 -57.612890625 146.95 -57.2 147.2640625 -56.7791015625 147.75 -56.7 149.275 -56.5 150.75 -56.3
M 137.9 -60
Q 137.59140625 -60.3994140625 137.05 -60.45 135.575 -60.6 134.05 -60.75 133.5556640625 -60.8021484375 133.15 -60.5 132.7501953125 -60.1421875 132.7 -59.65 132.6474609375 -59.10625 132.95 -58.7 133.3083984375 -58.3005859375 133.8 -58.25 135.325 -58.1 136.8 -57.95 137.3443359375 -57.8978515625 137.75 -58.25 138.1498046875 -58.5578125 138.2 -59.1 138.2525390625 -59.5935546875 137.9 -60
M 139.95 -57.95
Q 140.3083984375 -57.5505859375 140.8 -57.5 142.325 -57.35 143.8 -57.2 144.3443359375 -57.1478515625 144.75 -57.5 145.1498046875 -57.8078125 145.2 -58.35 145.2525390625 -58.8435546875 144.9 -59.25 144.59140625 -59.6494140625 144.05 -59.7 142.575 -59.85 141.05 -60 140.5556640625 -60.0521484375 140.15 -59.75 139.7501953125 -59.3921875 139.7 -58.9 139.6474609375 -58.35625 139.95 -57.95
M 122.8 -59.35
Q 123.3443359375 -59.2978515625 123.75 -59.65 124.1498046875 -59.9578125 124.2 -60.5 124.2525390625 -60.9935546875 123.9 -61.4 123.59140625 -61.7994140625 123.05 -61.85 121.575 -62 120.05 -62.15 119.5556640625 -62.2021484375 119.15 -61.9 118.7501953125 -61.5421875 118.7 -61.05 118.6474609375 -60.50625 118.95 -60.1 119.3083984375 -59.7005859375 119.8 -59.65 121.325 -59.5 122.8 -59.35
M 131.2 -59.8
Q 131.2525390625 -60.2935546875 130.9 -60.7 130.59140625 -61.0994140625 130.05 -61.15 128.575 -61.3 127.05 -61.45 126.5556640625 -61.5021484375 126.15 -61.2 125.7501953125 -60.8421875 125.7 -60.35 125.6474609375 -59.80625 125.95 -59.4 126.3083984375 -59.0005859375 126.8 -58.95 128.325 -58.8 129.8 -58.65 130.3443359375 -58.5978515625 130.75 -58.95 131.1498046875 -59.2578125 131.2 -59.8
M 26.2 -68.25
Q 26.2380859375 -68.7369140625 25.9 -69.15 25.549609375 -69.51484375 25 -69.55 23.5125 -69.650390625 22 -69.7 21.48125 -69.7103515625 21.1 -69.35 20.7193359375 -69.00546875 20.7 -68.5 20.6892578125 -67.9814453125 21.05 -67.6 21.3947265625 -67.2197265625 21.9 -67.2 23.3873046875 -67.149609375 24.85 -67.05 25.3865234375 -67.0125 25.75 -67.35 26.165234375 -67.70078125 26.2 -68.25
M 32.9 -68.75
Q 32.549609375 -69.11484375 32 -69.15 30.525 -69.25 29 -69.35 28.5134765625 -69.3876953125 28.1 -69.05 27.734765625 -68.69921875 27.7 -68.2 27.6619140625 -67.662890625 28 -67.3 28.3501953125 -66.88515625 28.85 -66.85 30.375 -66.75 31.85 -66.65 32.3865234375 -66.6125 32.75 -66.95 33.165234375 -67.30078125 33.2 -67.85 33.2380859375 -68.3369140625 32.9 -68.75
M 39 -68.75
Q 37.525 -68.85 36 -68.95 35.5134765625 -68.9876953125 35.1 -68.65 34.734765625 -68.29921875 34.7 -67.8 34.6619140625 -67.262890625 35 -66.9 35.3501953125 -66.48515625 35.85 -66.45 37.375 -66.35 38.85 -66.25 39.3865234375 -66.2125 39.75 -66.55 40.165234375 -66.90078125 40.2 -67.45 40.2380859375 -67.9369140625 39.9 -68.35 39.549609375 -68.71484375 39 -68.75
M 4.85 -70.05
Q 4.505078125 -70.4302734375 4 -70.45 2.5 -70.5 1 -70.55 0.48125 -70.5603515625 0.1 -70.2 -0.2806640625 -69.85546875 -0.3 -69.35 -0.3107421875 -68.8314453125 0.05 -68.45 0.3947265625 -68.0697265625 0.9 -68.05 2.4 -68 3.9 -67.95 4.41875 -67.9396484375 4.8 -68.3 5.1806640625 -68.64453125 5.2 -69.15 5.2107421875 -69.6685546875 4.85 -70.05
M 11.85 -69.8
Q 11.505078125 -70.1802734375 11 -70.2 9.5 -70.25 8 -70.3 7.48125 -70.3103515625 7.1 -69.95 6.7193359375 -69.60546875 6.7 -69.1 6.6892578125 -68.5814453125 7.05 -68.2 7.3947265625 -67.8197265625 7.9 -67.8 9.4 -67.75 10.9 -67.7 11.41875 -67.6896484375 11.8 -68.05 12.1806640625 -68.39453125 12.2 -68.9 12.2107421875 -69.4185546875 11.85 -69.8
M 18.85 -69.5
Q 18.505078125 -69.8802734375 18 -69.9 16.5 -69.95 15 -70 14.48125 -70.0103515625 14.1 -69.65 13.7193359375 -69.30546875 13.7 -68.8 13.6892578125 -68.2814453125 14.05 -67.9 14.3947265625 -67.5197265625 14.9 -67.5 16.4 -67.45 17.9 -67.4 18.41875 -67.3896484375 18.8 -67.75 19.1806640625 -68.09453125 19.2 -68.6 19.2107421875 -69.1185546875 18.85 -69.5
M 63 -65.05
Q 63.3501953125 -64.63515625 63.85 -64.6 65.375 -64.5 66.85 -64.4 67.3865234375 -64.3625 67.75 -64.7 68.165234375 -65.05078125 68.2 -65.6 68.2380859375 -66.0869140625 67.9 -66.5 67.549609375 -66.86484375 67 -66.9 65.525 -67 64 -67.1 63.5134765625 -67.1376953125 63.1 -66.8 62.734765625 -66.44921875 62.7 -65.95 62.6619140625 -65.412890625 63 -65.05
M 77.1 -65.8
Q 76.734765625 -65.44921875 76.7 -64.95 76.6619140625 -64.412890625 77 -64.05 77.3501953125 -63.63515625 77.85 -63.6 79.375 -63.5 80.85 -63.4 81.3865234375 -63.3625 81.75 -63.7 82.165234375 -64.05078125 82.2 -64.6 82.2380859375 -65.0869140625 81.9 -65.5 81.549609375 -65.86484375 81 -65.9 79.525 -66 78 -66.1 77.5134765625 -66.1376953125 77.1 -65.8
M 74 -66.4
Q 72.525 -66.5 71 -66.6 70.5134765625 -66.6376953125 70.1 -66.3 69.734765625 -65.94921875 69.7 -65.45 69.6619140625 -64.912890625 70 -64.55 70.3501953125 -64.13515625 70.85 -64.1 72.375 -64 73.85 -63.9 74.3865234375 -63.8625 74.75 -64.2 75.165234375 -64.55078125 75.2 -65.1 75.2380859375 -65.5869140625 74.9 -66 74.549609375 -66.36484375 74 -66.4
M 43 -68.55
Q 42.5134765625 -68.5876953125 42.1 -68.25 41.734765625 -67.89921875 41.7 -67.4 41.6619140625 -66.862890625 42 -66.5 42.3501953125 -66.08515625 42.85 -66.05 44.375 -65.95 45.85 -65.85 46.3865234375 -65.8125 46.75 -66.15 47.165234375 -66.50078125 47.2 -67.05 47.2380859375 -67.5369140625 46.9 -67.95 46.549609375 -68.31484375 46 -68.35 44.525 -68.45 43 -68.55
M 55.7 -66.45
Q 55.6619140625 -65.912890625 56 -65.55 56.3501953125 -65.13515625 56.85 -65.1 58.375 -65 59.85 -64.9 60.3865234375 -64.8625 60.75 -65.2 61.165234375 -65.55078125 61.2 -66.1 61.2380859375 -66.5869140625 60.9 -67 60.549609375 -67.36484375 60 -67.4 58.525 -67.5 57 -67.6 56.5134765625 -67.6376953125 56.1 -67.3 55.734765625 -66.94921875 55.7 -66.45
M 53.9 -67.5
Q 53.549609375 -67.86484375 53 -67.9 51.525 -68 50 -68.1 49.5134765625 -68.1376953125 49.1 -67.8 48.734765625 -67.44921875 48.7 -66.95 48.6619140625 -66.412890625 49 -66.05 49.3501953125 -65.63515625 49.85 -65.6 51.375 -65.5 52.85 -65.4 53.3865234375 -65.3625 53.75 -65.7 54.165234375 -66.05078125 54.2 -66.6 54.2380859375 -67.0869140625 53.9 -67.5 Z"/>
</g>

<g id="Layer0_1_STROKES_1_FILL">
<path fill="#33CCFF" stroke="none" d="
M -56.4 -66.6
Q -56.4107421875 -66.0814453125 -56.05 -65.7 -55.7052734375 -65.3197265625 -55.2 -65.3 -53.7126953125 -65.249609375 -52.25 -65.15 -51.7134765625 -65.1125 -51.35 -65.45 -50.934765625 -65.80078125 -50.9 -66.35 -50.8619140625 -66.8369140625 -51.2 -67.25 -51.550390625 -67.61484375 -52.1 -67.65 -53.5875 -67.750390625 -55.1 -67.8 -55.61875 -67.8103515625 -56 -67.45 -56.3806640625 -67.10546875 -56.4 -66.6
M -49.1 -65.4
Q -48.7498046875 -64.98515625 -48.25 -64.95 -46.725 -64.85 -45.25 -64.75 -44.7134765625 -64.7125 -44.35 -65.05 -43.934765625 -65.40078125 -43.9 -65.95 -43.8619140625 -66.4369140625 -44.2 -66.85 -44.550390625 -67.21484375 -45.1 -67.25 -46.575 -67.35 -48.1 -67.45 -48.5865234375 -67.4876953125 -49 -67.15 -49.365234375 -66.79921875 -49.4 -66.3 -49.4380859375 -65.762890625 -49.1 -65.4
M -72.25 -68.15
Q -72.594921875 -68.5302734375 -73.1 -68.55 -74.6 -68.6 -76.1 -68.65 -76.61875 -68.6603515625 -77 -68.3 -77.3806640625 -67.95546875 -77.4 -67.45 -77.4107421875 -66.9314453125 -77.05 -66.55 -76.7052734375 -66.1697265625 -76.2 -66.15 -74.7 -66.1 -73.2 -66.05 -72.68125 -66.0396484375 -72.3 -66.4 -71.9193359375 -66.74453125 -71.9 -67.25 -71.8892578125 -67.7685546875 -72.25 -68.15
M -63.05 -66
Q -62.7052734375 -65.6197265625 -62.2 -65.6 -60.7 -65.55 -59.2 -65.5 -58.68125 -65.4896484375 -58.3 -65.85 -57.9193359375 -66.19453125 -57.9 -66.7 -57.8892578125 -67.2185546875 -58.25 -67.6 -58.594921875 -67.9802734375 -59.1 -68 -60.6 -68.05 -62.1 -68.1 -62.61875 -68.1103515625 -63 -67.75 -63.3806640625 -67.40546875 -63.4 -66.9 -63.4107421875 -66.3814453125 -63.05 -66
M -66.1 -68.3
Q -67.6 -68.35 -69.1 -68.4 -69.61875 -68.4103515625 -70 -68.05 -70.3806640625 -67.70546875 -70.4 -67.2 -70.4107421875 -66.6814453125 -70.05 -66.3 -69.7052734375 -65.9197265625 -69.2 -65.9 -67.7 -65.85 -66.2 -65.8 -65.68125 -65.7896484375 -65.3 -66.15 -64.9193359375 -66.49453125 -64.9 -67 -64.8892578125 -67.5185546875 -65.25 -67.9 -65.594921875 -68.2802734375 -66.1 -68.3
M -9.2 -64.3
Q -9.50859375 -64.6994140625 -10.05 -64.75 -11.525 -64.9 -13.05 -65.05 -13.5443359375 -65.1021484375 -13.95 -64.8 -14.3498046875 -64.4421875 -14.4 -63.95 -14.4525390625 -63.40625 -14.15 -63 -13.7916015625 -62.6005859375 -13.3 -62.55 -11.775 -62.4 -10.3 -62.25 -9.7556640625 -62.1978515625 -9.35 -62.55 -8.9501953125 -62.8578125 -8.9 -63.4 -8.8474609375 -63.8935546875 -9.2 -64.3
M -6.05 -64.4
Q -6.5443359375 -64.4521484375 -6.95 -64.15 -7.3498046875 -63.7921875 -7.4 -63.3 -7.4525390625 -62.75625 -7.15 -62.35 -6.7916015625 -61.9505859375 -6.3 -61.9 -4.775 -61.75 -3.3 -61.6 -2.7556640625 -61.5478515625 -2.35 -61.9 -1.9501953125 -62.2078125 -1.9 -62.75 -1.8474609375 -63.2435546875 -2.2 -63.65 -2.50859375 -64.0494140625 -3.05 -64.1 -4.525 -64.25 -6.05 -64.4
M -37.2 -66.45
Q -37.550390625 -66.81484375 -38.1 -66.85 -39.575 -66.95 -41.1 -67.05 -41.5865234375 -67.0876953125 -42 -66.75 -42.365234375 -66.39921875 -42.4 -65.9 -42.4380859375 -65.362890625 -42.1 -65 -41.7498046875 -64.58515625 -41.25 -64.55 -39.725 -64.45 -38.25 -64.35 -37.7134765625 -64.3125 -37.35 -64.65 -36.934765625 -65.00078125 -36.9 -65.55 -36.8619140625 -66.0369140625 -37.2 -66.45
M -21.4 -64.4
Q -21.4380859375 -63.862890625 -21.1 -63.5 -20.7498046875 -63.08515625 -20.25 -63.05 -18.725 -62.95 -17.25 -62.85 -16.7134765625 -62.8125 -16.35 -63.15 -15.934765625 -63.50078125 -15.9 -64.05 -15.8619140625 -64.5369140625 -16.2 -64.95 -16.550390625 -65.31484375 -17.1 -65.35 -18.575 -65.45 -20.1 -65.55 -20.5865234375 -65.5876953125 -21 -65.25 -21.365234375 -64.89921875 -21.4 -64.4
M -27.1 -66.05
Q -27.5865234375 -66.0876953125 -28 -65.75 -28.365234375 -65.39921875 -28.4 -64.9 -28.4380859375 -64.362890625 -28.1 -64 -27.7498046875 -63.58515625 -27.25 -63.55 -25.725 -63.45 -24.25 -63.35 -23.7134765625 -63.3125 -23.35 -63.65 -22.934765625 -64.00078125 -22.9 -64.55 -22.8619140625 -65.0369140625 -23.2 -65.45 -23.550390625 -65.81484375 -24.1 -65.85 -25.575 -65.95 -27.1 -66.05
M -29.9 -65.05
Q -29.8619140625 -65.5369140625 -30.2 -65.95 -30.550390625 -66.31484375 -31.1 -66.35 -32.575 -66.45 -34.1 -66.55 -34.5865234375 -66.5876953125 -35 -66.25 -35.365234375 -65.89921875 -35.4 -65.4 -35.4380859375 -64.862890625 -35.1 -64.5 -34.7498046875 -64.08515625 -34.25 -64.05 -32.725 -63.95 -31.25 -63.85 -30.7134765625 -63.8125 -30.35 -64.15 -29.934765625 -64.50078125 -29.9 -65.05
M -135.3 -68.8
Q -135.63671875 -69.1455078125 -136.15 -69.15 -137.675 -69.150390625 -139.2 -69.1 -139.7052734375 -69.0802734375 -140.05 -68.7 -140.4107421875 -68.3185546875 -140.4 -67.8 -140.3806640625 -67.29453125 -140 -66.95 -139.61875 -66.5896484375 -139.1 -66.6 -137.6251953125 -66.649609375 -136.15 -66.65 -135.63671875 -66.6544921875 -135.3 -67.05 -134.9044921875 -67.38671875 -134.9 -67.9 -134.9044921875 -68.41328125 -135.3 -68.8
M -128.3 -68.9
Q -128.63671875 -69.2455078125 -129.15 -69.25 -130.65 -69.25 -132.15 -69.25 -132.66328125 -69.2455078125 -133.05 -68.9 -133.3955078125 -68.51328125 -133.4 -68 -133.3955078125 -67.48671875 -133.05 -67.15 -132.66328125 -66.7544921875 -132.15 -66.75 -130.65 -66.75 -129.15 -66.75 -128.63671875 -66.7544921875 -128.3 -67.15 -127.9044921875 -67.48671875 -127.9 -68 -127.9044921875 -68.51328125 -128.3 -68.9
M -157.2 -68.6
Q -158.7 -68.55 -160.2 -68.5 -160.7052734375 -68.4802734375 -161.05 -68.1 -161.4107421875 -67.7185546875 -161.4 -67.2 -161.3806640625 -66.69453125 -161 -66.35 -160.61875 -65.9896484375 -160.1 -66 -158.6 -66.05 -157.1 -66.1 -156.594921875 -66.1197265625 -156.25 -66.5 -155.8892578125 -66.8814453125 -155.9 -67.4 -155.9193359375 -67.90546875 -156.3 -68.25 -156.68125 -68.6103515625 -157.2 -68.6
M -149.3 -68.45
Q -149.68125 -68.8103515625 -150.2 -68.8 -151.7 -68.75 -153.2 -68.7 -153.7052734375 -68.6802734375 -154.05 -68.3 -154.4107421875 -67.9185546875 -154.4 -67.4 -154.3806640625 -66.89453125 -154 -66.55 -153.61875 -66.1896484375 -153.1 -66.2 -151.6 -66.25 -150.1 -66.3 -149.594921875 -66.3197265625 -149.25 -66.7 -148.8892578125 -67.0814453125 -148.9 -67.6 -148.9193359375 -68.10546875 -149.3 -68.45
M -142.3 -68.65
Q -142.68125 -69.0103515625 -143.2 -69 -144.7 -68.95 -146.2 -68.9 -146.7052734375 -68.8802734375 -147.05 -68.5 -147.4107421875 -68.1185546875 -147.4 -67.6 -147.3806640625 -67.09453125 -147 -66.75 -146.61875 -66.3896484375 -146.1 -66.4 -144.6 -66.45 -143.1 -66.5 -142.594921875 -66.5197265625 -142.25 -66.9 -141.8892578125 -67.2814453125 -141.9 -67.8 -141.9193359375 -68.30546875 -142.3 -68.65
M -93.25 -68.75
Q -93.594921875 -69.1302734375 -94.1 -69.15 -95.6251953125 -69.200390625 -97.15 -69.2 -97.66328125 -69.1955078125 -98.05 -68.85 -98.3955078125 -68.46328125 -98.4 -67.95 -98.3955078125 -67.43671875 -98.05 -67.1 -97.66328125 -66.7044921875 -97.15 -66.7 -95.675 -66.699609375 -94.2 -66.65 -93.68125 -66.6396484375 -93.3 -67 -92.9193359375 -67.34453125 -92.9 -67.85 -92.8892578125 -68.3685546875 -93.25 -68.75
M -87.1 -68.95
Q -88.6 -69 -90.1 -69.05 -90.61875 -69.0603515625 -91 -68.7 -91.3806640625 -68.35546875 -91.4 -67.85 -91.4107421875 -67.3314453125 -91.05 -66.95 -90.7052734375 -66.5697265625 -90.2 -66.55 -88.7 -66.5 -87.2 -66.45 -86.68125 -66.4396484375 -86.3 -66.8 -85.9193359375 -67.14453125 -85.9 -67.65 -85.8892578125 -68.1685546875 -86.25 -68.55 -86.594921875 -68.9302734375 -87.1 -68.95
M -83.1 -68.85
Q -83.61875 -68.8603515625 -84 -68.5 -84.3806640625 -68.15546875 -84.4 -67.65 -84.4107421875 -67.1314453125 -84.05 -66.75 -83.7052734375 -66.3697265625 -83.2 -66.35 -81.7 -66.3 -80.2 -66.25 -79.68125 -66.2396484375 -79.3 -66.6 -78.9193359375 -66.94453125 -78.9 -67.45 -78.8892578125 -67.9685546875 -79.25 -68.35 -79.594921875 -68.7302734375 -80.1 -68.75 -81.6 -68.8 -83.1 -68.85
M -121.3 -67.15
Q -120.9044921875 -67.48671875 -120.9 -68 -120.9044921875 -68.51328125 -121.3 -68.9 -121.63671875 -69.2455078125 -122.15 -69.25 -123.65 -69.25 -125.15 -69.25 -125.66328125 -69.2455078125 -126.05 -68.9 -126.3955078125 -68.51328125 -126.4 -68 -126.3955078125 -67.48671875 -126.05 -67.15 -125.66328125 -66.7544921875 -125.15 -66.75 -123.65 -66.75 -122.15 -66.75 -121.63671875 -66.7544921875 -121.3 -67.15
M -114.3 -68.9
Q -114.63671875 -69.2455078125 -115.15 -69.25 -116.65 -69.25 -118.15 -69.25 -118.66328125 -69.2455078125 -119.05 -68.9 -119.3955078125 -68.51328125 -119.4 -68 -119.3955078125 -67.48671875 -119.05 -67.15 -118.66328125 -66.7544921875 -118.15 -66.75 -116.65 -66.75 -115.15 -66.75 -114.63671875 -66.7544921875 -114.3 -67.15 -113.9044921875 -67.48671875 -113.9 -68 -113.9044921875 -68.51328125 -114.3 -68.9
M -107.3 -68.9
Q -107.63671875 -69.2455078125 -108.15 -69.25 -109.65 -69.25 -111.15 -69.25 -111.66328125 -69.2455078125 -112.05 -68.9 -112.3955078125 -68.51328125 -112.4 -68 -112.3955078125 -67.48671875 -112.05 -67.15 -111.66328125 -66.7544921875 -111.15 -66.75 -109.65 -66.75 -108.15 -66.75 -107.63671875 -66.7544921875 -107.3 -67.15 -106.9044921875 -67.48671875 -106.9 -68 -106.9044921875 -68.51328125 -107.3 -68.9
M -104.15 -69.25
Q -104.66328125 -69.2455078125 -105.05 -68.9 -105.3955078125 -68.51328125 -105.4 -68 -105.3955078125 -67.48671875 -105.05 -67.15 -104.66328125 -66.7544921875 -104.15 -66.75 -102.65 -66.75 -101.15 -66.75 -100.63671875 -66.7544921875 -100.3 -67.15 -99.9044921875 -67.48671875 -99.9 -68 -99.9044921875 -68.51328125 -100.3 -68.9 -100.63671875 -69.2455078125 -101.15 -69.25 -102.65 -69.25 -104.15 -69.25
M -211.9 -64.3
Q -211.934765625 -64.79921875 -212.35 -65.15 -212.7134765625 -65.4876953125 -213.25 -65.45 -214.725 -65.35 -216.25 -65.25 -216.7498046875 -65.21484375 -217.1 -64.85 -217.4380859375 -64.4369140625 -217.4 -63.95 -217.365234375 -63.40078125 -217 -63.05 -216.5865234375 -62.7125 -216.1 -62.75 -214.575 -62.85 -213.1 -62.95 -212.550390625 -62.98515625 -212.2 -63.4 -211.8619140625 -63.762890625 -211.9 -64.3
M -210 -63.55
Q -209.5865234375 -63.2125 -209.1 -63.25 -207.575 -63.35 -206.1 -63.45 -205.550390625 -63.48515625 -205.2 -63.9 -204.8619140625 -64.262890625 -204.9 -64.8 -204.934765625 -65.29921875 -205.35 -65.65 -205.7134765625 -65.9876953125 -206.25 -65.95 -207.725 -65.85 -209.25 -65.75 -209.7498046875 -65.71484375 -210.1 -65.35 -210.4380859375 -64.9369140625 -210.4 -64.45 -210.365234375 -63.90078125 -210 -63.55
M -233.35 -63.35
Q -233.7556640625 -63.6521484375 -234.3 -63.6 -235.775 -63.45 -237.3 -63.3 -237.7916015625 -63.2494140625 -238.15 -62.85 -238.4525390625 -62.4435546875 -238.4 -61.95 -238.3498046875 -61.4078125 -237.95 -61.1 -237.5443359375 -60.7478515625 -237.05 -60.8 -235.525 -60.95 -234.05 -61.1 -233.50859375 -61.1505859375 -233.2 -61.55 -232.8474609375 -61.95625 -232.9 -62.5 -232.9501953125 -62.9921875 -233.35 -63.35
M -223.95 -62.45
Q -223.5443359375 -62.0978515625 -223.05 -62.15 -221.525 -62.3 -220.05 -62.45 -219.50859375 -62.5005859375 -219.2 -62.9 -218.8474609375 -63.30625 -218.9 -63.85 -218.9501953125 -64.3421875 -219.35 -64.7 -219.7556640625 -65.0021484375 -220.3 -64.95 -221.775 -64.8 -223.3 -64.65 -223.7916015625 -64.5994140625 -224.15 -64.2 -224.4525390625 -63.7935546875 -224.4 -63.3 -224.3498046875 -62.7578125 -223.95 -62.45
M -231.15 -63.55
Q -231.4525390625 -63.1435546875 -231.4 -62.65 -231.3498046875 -62.1078125 -230.95 -61.8 -230.5443359375 -61.4478515625 -230.05 -61.5 -228.525 -61.65 -227.05 -61.8 -226.50859375 -61.8505859375 -226.2 -62.25 -225.8474609375 -62.65625 -225.9 -63.2 -225.9501953125 -63.6921875 -226.35 -64.05 -226.7556640625 -64.3521484375 -227.3 -64.3 -228.775 -64.15 -230.3 -64 -230.7916015625 -63.9494140625 -231.15 -63.55
M -178.1 -65.25
Q -177.550390625 -65.28515625 -177.2 -65.7 -176.8619140625 -66.062890625 -176.9 -66.6 -176.934765625 -67.09921875 -177.35 -67.45 -177.7134765625 -67.7876953125 -178.25 -67.75 -179.725 -67.65 -181.25 -67.55 -181.7498046875 -67.51484375 -182.1 -67.15 -182.4380859375 -66.7369140625 -182.4 -66.25 -182.365234375 -65.70078125 -182 -65.35 -181.5865234375 -65.0125 -181.1 -65.05 -179.575 -65.15 -178.1 -65.25
M -171.1 -65.55
Q -170.594921875 -65.5697265625 -170.25 -65.95 -169.8892578125 -66.3314453125 -169.9 -66.85 -169.9193359375 -67.35546875 -170.3 -67.7 -170.68125 -68.0603515625 -171.2 -68.05 -172.7 -68 -174.2 -67.95 -174.7052734375 -67.9302734375 -175.05 -67.55 -175.4107421875 -67.1685546875 -175.4 -66.65 -175.3806640625 -66.14453125 -175 -65.8 -174.61875 -65.4396484375 -174.1 -65.45 -172.6 -65.5 -171.1 -65.55
M -168 -66.1
Q -167.61875 -65.7396484375 -167.1 -65.75 -165.6 -65.8 -164.1 -65.85 -163.594921875 -65.8697265625 -163.25 -66.25 -162.8892578125 -66.6314453125 -162.9 -67.15 -162.9193359375 -67.65546875 -163.3 -68 -163.68125 -68.3603515625 -164.2 -68.35 -165.7 -68.3 -167.2 -68.25 -167.7052734375 -68.2302734375 -168.05 -67.85 -168.4107421875 -67.4685546875 -168.4 -66.95 -168.3806640625 -66.44453125 -168 -66.1
M -198.35 -66.15
Q -198.7134765625 -66.4876953125 -199.25 -66.45 -200.725 -66.35 -202.25 -66.25 -202.7498046875 -66.21484375 -203.1 -65.85 -203.4380859375 -65.4369140625 -203.4 -64.95 -203.365234375 -64.40078125 -203 -64.05 -202.5865234375 -63.7125 -202.1 -63.75 -200.575 -63.85 -199.1 -63.95 -198.550390625 -63.98515625 -198.2 -64.4 -197.8619140625 -64.762890625 -197.9 -65.3 -197.934765625 -65.79921875 -198.35 -66.15
M -188.25 -67.15
Q -188.7498046875 -67.11484375 -189.1 -66.75 -189.4380859375 -66.3369140625 -189.4 -65.85 -189.365234375 -65.30078125 -189 -64.95 -188.5865234375 -64.6125 -188.1 -64.65 -186.575 -64.75 -185.1 -64.85 -184.550390625 -64.88515625 -184.2 -65.3 -183.8619140625 -65.662890625 -183.9 -66.2 -183.934765625 -66.69921875 -184.35 -67.05 -184.7134765625 -67.3876953125 -185.25 -67.35 -186.725 -67.25 -188.25 -67.15
M -191.35 -66.65
Q -191.7134765625 -66.9876953125 -192.25 -66.95 -193.725 -66.85 -195.25 -66.75 -195.7498046875 -66.71484375 -196.1 -66.35 -196.4380859375 -65.9369140625 -196.4 -65.45 -196.365234375 -64.90078125 -196 -64.55 -195.5865234375 -64.2125 -195.1 -64.25 -193.575 -64.35 -192.1 -64.45 -191.550390625 -64.48515625 -191.2 -64.9 -190.8619140625 -65.262890625 -190.9 -65.8 -190.934765625 -66.29921875 -191.35 -66.65
M -294.4 -55.25
Q -294.321484375 -54.714453125 -293.9 -54.4 -293.4869140625 -54.08359375 -293 -54.15 -291.475 -54.35 -290 -54.55 -289.4642578125 -54.6291015625 -289.15 -55.05 -288.8330078125 -55.462890625 -288.9 -56 -288.978515625 -56.485546875 -289.4 -56.8 -289.81328125 -57.1166015625 -290.35 -57.05 -291.825 -56.85 -293.35 -56.65 -293.8359375 -56.57109375 -294.15 -56.15 -294.4669921875 -55.737109375 -294.4 -55.25
M -296.4 -55.8
Q -296.81328125 -56.1166015625 -297.35 -56.05 -298.825 -55.85 -300.35 -55.65 -300.8359375 -55.57109375 -301.15 -55.15 -301.4669921875 -54.737109375 -301.4 -54.25 -301.321484375 -53.714453125 -300.9 -53.4 -300.4869140625 -53.08359375 -300 -53.15 -298.475 -53.35 -297 -53.55 -296.4642578125 -53.6291015625 -296.15 -54.05 -295.8330078125 -54.462890625 -295.9 -55 -295.978515625 -55.485546875 -296.4 -55.8
M -308.4 -53.1
Q -308.293359375 -52.5841796875 -307.9 -52.3 -307.4568359375 -51.9818359375 -306.95 -52.1 -305.45 -52.325 -303.95 -52.6 -303.4349609375 -52.65703125 -303.15 -53.1 -302.8314453125 -53.4939453125 -302.95 -54 -303.006640625 -54.5158203125 -303.45 -54.85 -303.843359375 -55.1181640625 -304.35 -55.05 -305.85 -54.775 -307.35 -54.55 -307.865234375 -54.44296875 -308.2 -54.05 -308.4685546875 -53.6060546875 -308.4 -53.1
M -314.35 -53.45
Q -314.865234375 -53.34296875 -315.2 -52.95 -315.4685546875 -52.5060546875 -315.4 -52 -315.293359375 -51.4841796875 -314.9 -51.2 -314.4568359375 -50.8818359375 -313.95 -51 -312.45 -51.225 -310.95 -51.5 -310.4349609375 -51.55703125 -310.15 -52 -309.8314453125 -52.3939453125 -309.95 -52.9 -310.006640625 -53.4158203125 -310.45 -53.75 -310.843359375 -54.0181640625 -311.35 -53.95 -312.85 -53.675 -314.35 -53.45
M -321.25 -52.35
Q -321.765234375 -52.24296875 -322.1 -51.85 -322.3685546875 -51.4060546875 -322.3 -50.9 -322.193359375 -50.3841796875 -321.8 -50.1 -321.3568359375 -49.7818359375 -320.85 -49.9 -319.35 -50.125 -317.85 -50.4 -317.3349609375 -50.45703125 -317.05 -50.9 -316.7314453125 -51.2939453125 -316.85 -51.8 -316.906640625 -52.3158203125 -317.35 -52.65 -317.743359375 -52.9181640625 -318.25 -52.85 -319.75 -52.575 -321.25 -52.35
M -254.35 -61.25
Q -254.7556640625 -61.5521484375 -255.3 -61.5 -256.775 -61.35 -258.3 -61.2 -258.7916015625 -61.1494140625 -259.15 -60.75 -259.4525390625 -60.3435546875 -259.4 -59.85 -259.3498046875 -59.3078125 -258.95 -59 -258.5443359375 -58.6478515625 -258.05 -58.7 -256.525 -58.85 -255.05 -59 -254.50859375 -59.0505859375 -254.2 -59.45 -253.8474609375 -59.85625 -253.9 -60.4 -253.9501953125 -60.8921875 -254.35 -61.25
M -248.3 -62.2
Q -249.775 -62.05 -251.3 -61.9 -251.7916015625 -61.8494140625 -252.15 -61.45 -252.4525390625 -61.0435546875 -252.4 -60.55 -252.3498046875 -60.0078125 -251.95 -59.7 -251.5443359375 -59.3478515625 -251.05 -59.4 -249.525 -59.55 -248.05 -59.7 -247.50859375 -59.7505859375 -247.2 -60.15 -246.8474609375 -60.55625 -246.9 -61.1 -246.9501953125 -61.5921875 -247.35 -61.95 -247.7556640625 -62.2521484375 -248.3 -62.2
M -244.3 -62.6
Q -244.7916015625 -62.5494140625 -245.15 -62.15 -245.4525390625 -61.7435546875 -245.4 -61.25 -245.3498046875 -60.7078125 -244.95 -60.4 -244.5443359375 -60.0478515625 -244.05 -60.1 -242.525 -60.25 -241.05 -60.4 -240.50859375 -60.4505859375 -240.2 -60.85 -239.8474609375 -61.25625 -239.9 -61.8 -239.9501953125 -62.2921875 -240.35 -62.65 -240.7556640625 -62.9521484375 -241.3 -62.9 -242.775 -62.75 -244.3 -62.6
M -268.15 -57.8
Q -267.8330078125 -58.212890625 -267.9 -58.75 -267.978515625 -59.235546875 -268.4 -59.55 -268.81328125 -59.8666015625 -269.35 -59.8 -270.825 -59.6 -272.35 -59.4 -272.8359375 -59.32109375 -273.15 -58.9 -273.4669921875 -58.487109375 -273.4 -58 -273.321484375 -57.464453125 -272.9 -57.15 -272.4869140625 -56.83359375 -272 -56.9 -270.475 -57.1 -269 -57.3 -268.4642578125 -57.3791015625 -268.15 -57.8
M -265.9 -58.05
Q -265.4869140625 -57.73359375 -265 -57.8 -263.475 -58 -262 -58.2 -261.4642578125 -58.2791015625 -261.15 -58.7 -260.8330078125 -59.112890625 -260.9 -59.65 -260.978515625 -60.135546875 -261.4 -60.45 -261.81328125 -60.7666015625 -262.35 -60.7 -263.825 -60.5 -265.35 -60.3 -265.8359375 -60.22109375 -266.15 -59.8 -266.4669921875 -59.387109375 -266.4 -58.9 -266.321484375 -58.364453125 -265.9 -58.05
M -282.15 -56
Q -281.8330078125 -56.412890625 -281.9 -56.95 -281.978515625 -57.435546875 -282.4 -57.75 -282.81328125 -58.0666015625 -283.35 -58 -284.825 -57.8 -286.35 -57.6 -286.8359375 -57.52109375 -287.15 -57.1 -287.4669921875 -56.687109375 -287.4 -56.2 -287.321484375 -55.664453125 -286.9 -55.35 -286.4869140625 -55.03359375 -286 -55.1 -284.475 -55.3 -283 -55.5 -282.4642578125 -55.5791015625 -282.15 -56
M -275.4 -58.65
Q -275.81328125 -58.9666015625 -276.35 -58.9 -277.825 -58.7 -279.35 -58.5 -279.8359375 -58.42109375 -280.15 -58 -280.4669921875 -57.587109375 -280.4 -57.1 -280.321484375 -56.564453125 -279.9 -56.25 -279.4869140625 -55.93359375 -279 -56 -277.475 -56.2 -276 -56.4 -275.4642578125 -56.4791015625 -275.15 -56.9 -274.8330078125 -57.312890625 -274.9 -57.85 -274.978515625 -58.335546875 -275.4 -58.65
M 218.65 -22.45
Q 218.3841796875 -22.905078125 217.85 -23.05 216.975 -23.3 216.05 -23.55 215.5908203125 -23.6966796875 215.15 -23.45 214.694140625 -23.1833984375 214.55 -22.7 214.402734375 -22.18984375 214.65 -21.75 214.915625 -21.294921875 215.4 -21.15 216.325 -20.9 217.2 -20.65 217.7091796875 -20.503515625 218.15 -20.75 218.605859375 -21.0166015625 218.75 -21.55 218.897265625 -22.01015625 218.65 -22.45
M 209.1 -25.6
Q 208.60546875 -25.74765625 208.15 -25.5 207.696484375 -25.2486328125 207.55 -24.75 207.4021484375 -24.2560546875 207.65 -23.8 207.9017578125 -23.3466796875 208.4 -23.2 209.9 -22.75 211.4 -22.3 211.8943359375 -22.1525390625 212.35 -22.4 212.803515625 -22.6513671875 212.95 -23.15 213.0978515625 -23.6439453125 212.85 -24.1 212.5982421875 -24.5533203125 212.1 -24.7 210.6 -25.15 209.1 -25.6
M 178.55 -33.3
Q 178.3033203125 -33.7470703125 177.8 -33.9 176.35 -34.225 174.9 -34.6 174.39609375 -34.6958984375 173.95 -34.45 173.5025390625 -34.1529296875 173.35 -33.65 173.2537109375 -33.145703125 173.5 -32.7 173.7966796875 -32.253125 174.3 -32.15 175.75 -31.775 177.2 -31.45 177.70390625 -31.3041015625 178.15 -31.6 178.5974609375 -31.8470703125 178.7 -32.35 178.846484375 -32.8544921875 178.55 -33.3
M 170.4 -33.05
Q 170.90390625 -32.9041015625 171.35 -33.2 171.7974609375 -33.4470703125 171.9 -33.95 172.046484375 -34.4544921875 171.75 -34.9 171.5033203125 -35.3470703125 171 -35.5 169.55 -35.825 168.1 -36.2 167.59609375 -36.2958984375 167.15 -36.05 166.7025390625 -35.7529296875 166.55 -35.25 166.4537109375 -34.745703125 166.7 -34.3 166.9966796875 -33.853125 167.5 -33.75 168.95 -33.375 170.4 -33.05
M 202.15 -27.5
Q 201.6763671875 -27.634375 201.2 -27.4 200.78125 -27.1203125 200.65 -26.65 200.515234375 -26.1265625 200.75 -25.7 201.0298828125 -25.231640625 201.5 -25.1 202.975 -24.7 204.4 -24.3 204.9236328125 -24.165625 205.35 -24.45 205.81875 -24.6796875 205.95 -25.2 206.084765625 -25.6734375 205.8 -26.15 205.5701171875 -26.568359375 205.05 -26.7 203.625 -27.1 202.15 -27.5
M 195.35 -29.3
Q 194.8763671875 -29.434375 194.4 -29.2 193.98125 -28.9203125 193.85 -28.45 193.715234375 -27.9265625 193.95 -27.5 194.2298828125 -27.031640625 194.7 -26.9 196.175 -26.5 197.6 -26.1 198.1236328125 -25.965625 198.55 -26.25 199.01875 -26.4796875 199.15 -27 199.284765625 -27.4734375 199 -27.95 198.7701171875 -28.368359375 198.25 -28.5 196.825 -28.9 195.35 -29.3
M 185.4 -31.55
Q 185.1701171875 -31.968359375 184.65 -32.1 183.200390625 -32.5130859375 181.65 -32.9 181.1814453125 -32.983203125 180.75 -32.7 180.3015625 -32.4265625 180.15 -31.95 180.06640625 -31.4314453125 180.35 -31 180.6234375 -30.551953125 181.1 -30.45 182.599609375 -30.087109375 184 -29.7 184.5236328125 -29.565625 184.95 -29.85 185.41875 -30.0796875 185.55 -30.6 185.684765625 -31.0734375 185.4 -31.55
M 188.55 -31.1
Q 188.0763671875 -31.234375 187.6 -31 187.18125 -30.7203125 187.05 -30.25 186.915234375 -29.7265625 187.15 -29.3 187.4298828125 -28.831640625 187.9 -28.7 189.375 -28.3 190.8 -27.9 191.3236328125 -27.765625 191.75 -28.05 192.21875 -28.2796875 192.35 -28.8 192.484765625 -29.2734375 192.2 -29.75 191.9701171875 -30.168359375 191.45 -30.3 190.025 -30.7 188.55 -31.1
M 130.7 -44.1
Q 130.4095703125 -44.5265625 129.9 -44.65 128.4 -44.925 126.9 -45.25 126.388671875 -45.3318359375 125.95 -45.05 125.5228515625 -44.758984375 125.4 -44.25 125.317578125 -43.737890625 125.6 -43.3 125.890234375 -42.8734375 126.4 -42.8 127.9 -42.475 129.4 -42.2 129.911328125 -42.0681640625 130.35 -42.35 130.7771484375 -42.641015625 130.85 -43.15 130.982421875 -43.6619140625 130.7 -44.1
M 133.8 -43.85
Q 133.3009765625 -43.932421875 132.85 -43.65 132.4359375 -43.359765625 132.3 -42.85 132.2173828125 -42.3513671875 132.5 -41.95 132.790625 -41.486328125 133.3 -41.4 134.75 -41.075 136.2 -40.8 136.6990234375 -40.667578125 137.1 -40.95 137.5640625 -41.240234375 137.65 -41.75 137.7826171875 -42.2486328125 137.5 -42.7 137.209375 -43.113671875 136.7 -43.25 135.25 -43.525 133.8 -43.85
M 144.55 -40.35
Q 144.682421875 -40.8619140625 144.4 -41.3 144.1095703125 -41.7265625 143.6 -41.85 142.1 -42.125 140.6 -42.45 140.088671875 -42.5318359375 139.65 -42.25 139.2228515625 -41.958984375 139.1 -41.45 139.017578125 -40.937890625 139.3 -40.5 139.590234375 -40.0734375 140.1 -40 141.6 -39.675 143.1 -39.4 143.611328125 -39.2681640625 144.05 -39.55 144.4771484375 -39.841015625 144.55 -40.35
M 146.05 -39.95
Q 145.967578125 -39.437890625 146.25 -39 146.540234375 -38.5734375 147.05 -38.5 148.5373046875 -38.1748046875 150 -37.85 150.5185546875 -37.716796875 150.95 -38 151.3986328125 -38.2734375 151.5 -38.8 151.63359375 -39.2685546875 151.35 -39.7 151.0765625 -40.148046875 150.55 -40.3 149.0623046875 -40.625390625 147.55 -40.95 147.038671875 -41.0318359375 146.6 -40.75 146.1728515625 -40.458984375 146.05 -39.95
M 161.3 -37.8
Q 160.79609375 -37.8958984375 160.35 -37.65 159.9025390625 -37.3529296875 159.75 -36.85 159.6537109375 -36.345703125 159.9 -35.9 160.1966796875 -35.453125 160.7 -35.35 162.15 -34.975 163.6 -34.65 164.10390625 -34.5041015625 164.55 -34.8 164.9974609375 -35.0470703125 165.1 -35.55 165.246484375 -36.0544921875 164.95 -36.5 164.7033203125 -36.9470703125 164.2 -37.1 162.75 -37.425 161.3 -37.8
M 158.15 -38.1
Q 157.9033203125 -38.5470703125 157.4 -38.7 155.95 -39.025 154.5 -39.4 153.99609375 -39.4958984375 153.55 -39.25 153.1025390625 -38.9529296875 152.95 -38.45 152.8537109375 -37.945703125 153.1 -37.5 153.3966796875 -37.053125 153.9 -36.95 155.35 -36.575 156.8 -36.25 157.30390625 -36.1041015625 157.75 -36.4 158.1974609375 -36.6470703125 158.3 -37.15 158.446484375 -37.6544921875 158.15 -38.1
M 110.05 -47.25
Q 110.182421875 -47.7619140625 109.9 -48.2 109.6095703125 -48.6265625 109.1 -48.75 107.5748046875 -49.025390625 106.05 -49.3 105.5431640625 -49.3681640625 105.1 -49.1 104.706640625 -48.7658203125 104.6 -48.25 104.5314453125 -47.7439453125 104.8 -47.35 105.134765625 -46.90703125 105.65 -46.85 107.1248046875 -46.5748046875 108.6 -46.3 109.111328125 -46.1681640625 109.55 -46.45 109.9771484375 -46.741015625 110.05 -47.25
M 116.45 -45.15
Q 116.8771484375 -45.441015625 116.95 -45.95 117.082421875 -46.4619140625 116.8 -46.9 116.5095703125 -47.3265625 116 -47.45 114.5 -47.725 113 -48.05 112.488671875 -48.1318359375 112.05 -47.85 111.6228515625 -47.558984375 111.5 -47.05 111.417578125 -46.537890625 111.7 -46.1 111.990234375 -45.6734375 112.5 -45.6 114 -45.275 115.5 -45 116.011328125 -44.8681640625 116.45 -45.15
M 119.9 -46.65
Q 119.388671875 -46.7318359375 118.95 -46.45 118.5228515625 -46.158984375 118.4 -45.65 118.317578125 -45.137890625 118.6 -44.7 118.890234375 -44.2734375 119.4 -44.2 120.9 -43.875 122.4 -43.6 122.911328125 -43.4681640625 123.35 -43.75 123.7771484375 -44.041015625 123.85 -44.55 123.982421875 -45.0619140625 123.7 -45.5 123.4095703125 -45.9265625 122.9 -46.05 121.4 -46.325 119.9 -46.65
M 99.05 -50.5
Q 98.5431640625 -50.5681640625 98.1 -50.3 97.706640625 -49.9658203125 97.6 -49.45 97.5314453125 -48.9439453125 97.8 -48.55 98.134765625 -48.10703125 98.65 -48.05 100.15 -47.775 101.65 -47.55 102.156640625 -47.4318359375 102.55 -47.75 102.993359375 -48.0341796875 103.05 -48.55 103.1685546875 -49.0560546875 102.85 -49.5 102.5650390625 -49.89296875 102.05 -50 100.55 -50.225 99.05 -50.5
M 90.6 -50.65
Q 90.5314453125 -50.1439453125 90.8 -49.75 91.134765625 -49.30703125 91.65 -49.25 93.15 -48.975 94.65 -48.75 95.156640625 -48.6318359375 95.55 -48.95 95.993359375 -49.2341796875 96.05 -49.75 96.1685546875 -50.2560546875 95.85 -50.7 95.5650390625 -51.09296875 95.05 -51.2 93.55 -51.425 92.05 -51.7 91.5431640625 -51.7681640625 91.1 -51.5 90.706640625 -51.1658203125 90.6 -50.65
M 85.05 -52.9
Q 84.5431640625 -52.9681640625 84.1 -52.7 83.706640625 -52.3658203125 83.6 -51.85 83.5314453125 -51.3439453125 83.8 -50.95 84.134765625 -50.50703125 84.65 -50.45 86.15 -50.175 87.65 -49.95 88.156640625 -49.8318359375 88.55 -50.15 88.993359375 -50.4341796875 89.05 -50.95 89.1685546875 -51.4560546875 88.85 -51.9 88.5650390625 -52.29296875 88.05 -52.4 86.55 -52.625 85.05 -52.9
M 40.1 -58.1
Q 40.1669921875 -58.587109375 39.85 -59 39.5357421875 -59.42109375 39 -59.5 37.525 -59.7 36 -59.9 35.5130859375 -59.9666015625 35.1 -59.65 34.678515625 -59.335546875 34.6 -58.85 34.5330078125 -58.312890625 34.85 -57.9 35.1640625 -57.4791015625 35.65 -57.4 37.175 -57.2 38.65 -57 39.18671875 -56.93359375 39.6 -57.25 40.021484375 -57.564453125 40.1 -58.1
M 27.85 -58.8
Q 28.1640625 -58.3791015625 28.65 -58.3 30.175 -58.1 31.65 -57.9 32.18671875 -57.83359375 32.6 -58.15 33.021484375 -58.464453125 33.1 -59 33.1669921875 -59.487109375 32.85 -59.9 32.5357421875 -60.32109375 32 -60.4 30.525 -60.6 29 -60.8 28.5130859375 -60.8666015625 28.1 -60.55 27.678515625 -60.235546875 27.6 -59.75 27.5330078125 -59.212890625 27.85 -58.8
M 25.65 -59.1
Q 26.0498046875 -59.4078125 26.1 -59.95 26.1525390625 -60.4435546875 25.8 -60.85 25.49140625 -61.2494140625 24.95 -61.3 23.475 -61.45 21.95 -61.6 21.4556640625 -61.6521484375 21.05 -61.35 20.6501953125 -60.9921875 20.6 -60.5 20.5474609375 -59.95625 20.85 -59.55 21.2083984375 -59.1505859375 21.7 -59.1 23.225 -58.95 24.7 -58.8 25.2443359375 -58.7478515625 25.65 -59.1
M 4.8 -62.95
Q 4.49140625 -63.3494140625 3.95 -63.4 2.475 -63.55 0.95 -63.7 0.4556640625 -63.7521484375 0.05 -63.45 -0.3498046875 -63.0921875 -0.4 -62.6 -0.4525390625 -62.05625 -0.15 -61.65 0.2083984375 -61.2505859375 0.7 -61.2 2.225 -61.05 3.7 -60.9 4.2443359375 -60.8478515625 4.65 -61.2 5.0498046875 -61.5078125 5.1 -62.05 5.1525390625 -62.5435546875 4.8 -62.95
M 14.95 -62.3
Q 14.4556640625 -62.3521484375 14.05 -62.05 13.6501953125 -61.6921875 13.6 -61.2 13.5474609375 -60.65625 13.85 -60.25 14.2083984375 -59.8505859375 14.7 -59.8 16.225 -59.65 17.7 -59.5 18.2443359375 -59.4478515625 18.65 -59.8 19.0498046875 -60.1078125 19.1 -60.65 19.1525390625 -61.1435546875 18.8 -61.55 18.49140625 -61.9494140625 17.95 -62 16.475 -62.15 14.95 -62.3
M 11.8 -62.25
Q 11.49140625 -62.6494140625 10.95 -62.7 9.475 -62.85 7.95 -63 7.4556640625 -63.0521484375 7.05 -62.75 6.6501953125 -62.3921875 6.6 -61.9 6.5474609375 -61.35625 6.85 -60.95 7.2083984375 -60.5505859375 7.7 -60.5 9.225 -60.35 10.7 -60.2 11.2443359375 -60.1478515625 11.65 -60.5 12.0498046875 -60.8078125 12.1 -61.35 12.1525390625 -61.8435546875 11.8 -62.25
M 78.05 -54.05
Q 77.5431640625 -54.1181640625 77.1 -53.85 76.706640625 -53.5158203125 76.6 -53 76.5314453125 -52.4939453125 76.8 -52.1 77.134765625 -51.65703125 77.65 -51.6 79.15 -51.325 80.65 -51.1 81.156640625 -50.9818359375 81.55 -51.3 81.993359375 -51.5841796875 82.05 -52.1 82.1685546875 -52.6060546875 81.85 -53.05 81.5650390625 -53.44296875 81.05 -53.55 79.55 -53.775 78.05 -54.05
M 69.8 -53.2
Q 70.134765625 -52.75703125 70.65 -52.7 72.15 -52.425 73.65 -52.2 74.156640625 -52.0818359375 74.55 -52.4 74.993359375 -52.6841796875 75.05 -53.2 75.1685546875 -53.7060546875 74.85 -54.15 74.5650390625 -54.54296875 74.05 -54.65 72.55 -54.875 71.05 -55.15 70.5431640625 -55.2181640625 70.1 -54.95 69.706640625 -54.6158203125 69.6 -54.1 69.5314453125 -53.5939453125 69.8 -53.2
M 64 -56.15
Q 63.5130859375 -56.2166015625 63.1 -55.9 62.678515625 -55.585546875 62.6 -55.1 62.5330078125 -54.562890625 62.85 -54.15 63.1640625 -53.7291015625 63.65 -53.65 65.175 -53.45 66.65 -53.25 67.18671875 -53.18359375 67.6 -53.5 68.021484375 -53.814453125 68.1 -54.35 68.1669921875 -54.837109375 67.85 -55.25 67.5357421875 -55.67109375 67 -55.75 65.525 -55.95 64 -56.15
M 60 -56.75
Q 58.525 -56.95 57 -57.15 56.5130859375 -57.2166015625 56.1 -56.9 55.678515625 -56.585546875 55.6 -56.1 55.5330078125 -55.562890625 55.85 -55.15 56.1640625 -54.7291015625 56.65 -54.65 58.175 -54.45 59.65 -54.25 60.18671875 -54.18359375 60.6 -54.5 61.021484375 -54.814453125 61.1 -55.35 61.1669921875 -55.837109375 60.85 -56.25 60.5357421875 -56.67109375 60 -56.75
M 46.85 -58.1
Q 46.5357421875 -58.52109375 46 -58.6 44.525 -58.8 43 -59 42.5130859375 -59.0666015625 42.1 -58.75 41.678515625 -58.435546875 41.6 -57.95 41.5330078125 -57.412890625 41.85 -57 42.1640625 -56.5791015625 42.65 -56.5 44.175 -56.3 45.65 -56.1 46.18671875 -56.03359375 46.6 -56.35 47.021484375 -56.664453125 47.1 -57.2 47.1669921875 -57.687109375 46.85 -58.1
M 50 -58.1
Q 49.5130859375 -58.1666015625 49.1 -57.85 48.678515625 -57.535546875 48.6 -57.05 48.5330078125 -56.512890625 48.85 -56.1 49.1640625 -55.6791015625 49.65 -55.6 51.175 -55.4 52.65 -55.2 53.18671875 -55.13359375 53.6 -55.45 54.021484375 -55.764453125 54.1 -56.3 54.1669921875 -56.787109375 53.85 -57.2 53.5357421875 -57.62109375 53 -57.7 51.525 -57.9 50 -58.1 Z"/>
</g>
</defs>

<g transform="matrix( 1, 0, 0, 1, 710,379.85) ">
<use xlink:href="#Layer0_0_STROKES_1_FILL"/>
</g>

<g transform="matrix( 1, 0, 0, 1, 710,510.9) ">
<use xlink:href="#Layer0_1_STROKES_1_FILL"/>
</g>
</svg>
