
<svg xmlns="http://www.w3.org/2000/svg" version="1.1" xmlns:xlink="http://www.w3.org/1999/xlink" preserveAspectRatio="none" x="0px" y="0px" width="1200px" height="393px" viewBox="0 0 1200 393">
<defs>
<g id="Layer0_0_FILL">
<path fill="#3567D7" stroke="none" d="
M 910.5 225.25
Q 909.75 224.95 908.85 224.95 907.95 224.95 907.2 225.25 906.45 225.6 905.9 226.15 905.3 226.7 905 227.45 904.65 228.25 904.65 229.1 904.65 230 905 230.75 905.3 231.55 905.9 232.1 906.45 232.65 907.2 233 907.95 233.3 908.85 233.3 909.75 233.3 910.5 233 911.25 232.65 911.85 232.1 912.4 231.55 912.7 230.75 913.05 230 913.05 229.1 913.05 228.25 912.7 227.45 912.4 226.7 911.85 226.15 911.25 225.6 910.5 225.25
M 908.85 227.25
Q 909.6 227.25 910.1 227.85 910.65 228.4 910.65 229.1 910.65 229.85 910.1 230.4 909.6 231 908.85 231 908.1 231 907.55 230.4 907.05 229.85 907.05 229.1 907.05 228.4 907.55 227.85 908.1 227.25 908.85 227.25
M 900.45 229.65
Q 900.65 229.65 900.75 229.5 900.85 229.35 900.85 229.15
L 900.85 226.45
Q 900.85 226.3 900.75 226.15 900.65 226 900.45 226
L 887.6 226
Q 887.1 226 887 226.1 886.9 226.2 886.85 226.6
L 886.65 239.5
Q 886.65 240.7 888.05 240.15 889.15 239.75 890.35 239.5 891.6 239.25 892.7 239.25 895.6 239.25 896.85 240.6 898.1 241.95 898.1 244.2 898.1 246.55 896.55 247.9 895.05 249.2 892.7 249.2 892.05 249.2 891.35 249.15 890.6 249.1 889.9 248.95 889.15 248.8 888.45 248.6 887.75 248.4 887.25 248.1 886.5 247.8 886.5 248.4
L 886.5 251.25
Q 886.5 251.5 886.5 251.6 886.55 251.7 886.75 251.9 887.35 252.15 888.15 252.35 889 252.55 889.8 252.65 890.6 252.8 891.35 252.85 892.05 252.9 892.4 252.9 894.4 252.9 896.25 252.3 898.05 251.75 899.3 250.6 902.05 248.15 902.05 243.75 902.05 241.95 901.4 240.45 900.75 239 899.6 237.95 898.45 236.9 896.95 236.4 895.4 235.85 893.65 235.85 891.9 235.85 890.55 236.15
L 890.7 229.65 900.45 229.65
M 869.75 226.05
Q 868.3 226.35 866.75 226.9 866.4 227.05 866.3 227.25 866.15 227.4 866.25 227.6
L 866.55 230.15
Q 866.6 230.5 866.8 230.55 867 230.65 867.4 230.5 867.95 230.3 868.65 230.05 869.35 229.85 870.05 229.7 870.75 229.55 871.4 229.45 872 229.35 872.5 229.35 873.25 229.35 874.1 229.5 874.9 229.7 875.65 230.15 876.35 230.55 876.8 231.2 877.25 231.9 877.25 232.8 877.25 233.95 876.55 234.75 875.85 235.55 874.8 236.1 873.8 236.6 872.7 236.85 871.65 237.05 870.85 237.05
L 869.2 237.05
Q 868.9 237.05 868.8 237.15 868.75 237.2 868.75 237.5
L 868.75 240.1
Q 868.75 240.4 868.8 240.5 868.9 240.55 869.2 240.55
L 870.95 240.55
Q 872.6 240.55 873.8 240.9 875.05 241.25 875.8 241.8 876.55 242.4 876.95 243.15 877.3 243.9 877.3 244.7 877.3 247.05 875.6 248.2 875.05 248.6 874.35 248.85 873.65 249.1 872.9 249.15 872.15 249.25 871.4 249.2 870.6 249.2 869.9 249.1 868.95 249.05 868.05 248.75 867.1 248.5 866.2 248.25 865.7 248.05 865.55 248.15 865.35 248.25 865.35 248.6
L 865 251.2
Q 865 251.5 865.1 251.65 865.25 251.85 865.6 251.95 866.9 252.4 868.45 252.65 869.95 252.9 871.45 252.9 873.5 252.9 875.35 252.4 877.25 251.9 878.55 250.8 879.9 249.75 880.6 248.2 881.3 246.65 881.3 244.8 881.3 242.85 880.15 241.3 878.95 239.75 876.65 238.75 877.6 238.35 878.45 237.65 879.3 237 879.9 236.15 880.5 235.3 880.85 234.4 881.15 233.4 881.15 232.5 881.15 230.7 880.4 229.4 879.7 228.1 878.5 227.3 877.35 226.5 875.8 226.1 874.3 225.75 872.7 225.75 871.25 225.75 869.75 226.05
M 856.05 227
Q 856.05 226.3 855.95 226.15 855.8 226.05 855.2 226.05
L 853.4 226.05
Q 853.25 226.05 853.1 226.1 852.9 226.15 852.85 226.25
L 847.5 231.2
Q 847.3 231.35 847.3 231.55 847.3 231.75 847.4 231.9
L 848.95 233.8
Q 849.1 233.9 849.35 233.9 849.55 233.85 849.75 233.7
L 852.3 231.45 852.3 252.2
Q 852.3 252.65 852.8 252.65
L 855.6 252.65
Q 856.05 252.65 856.05 252.2
L 856.05 227 Z"/>

<path fill="#4BAEF3" stroke="none" d="
M 702.95 115.4
Q 702.95 104.9 692.45 104.9
L 668.65 104.9
Q 658.15 104.9 658.15 115.4
L 658.15 135.4
Q 658.15 145.9 668.65 145.9
L 692.45 145.9
Q 702.95 145.9 702.95 135.4
L 702.95 115.4
M 674 116.7
Q 674.45 116.5 674.95 116.35 675.4 116.25 675.9 116.25 677 116.25 677.85 116.7 678.25 116.95 678.65 117.3 679.05 117.65 679.35 118.05 679.5 118.25 679.6 118.5 679.75 118.75 679.85 119
L 682.1 119 682.1 116.3
Q 682.1 115.65 682.5 115.45 682.7 115.35 682.95 115.3 683.15 115.2 683.4 115.2 683.7 115.2 683.95 115.3 684.25 115.35 684.45 115.45 684.85 115.65 684.85 116.3
L 684.85 133.3
Q 684.85 133.55 684.75 133.8 684.65 134 684.45 134.15 684.25 134.25 683.95 134.35 683.7 134.4 683.4 134.4 683.15 134.4 682.95 134.35 682.7 134.25 682.5 134.15 682.3 134 682.2 133.8 682.1 133.55 682.1 133.3
L 682.1 126.75 679.95 126.75
Q 679.8 127.05 679.65 127.35 679.5 127.6 679.35 127.85 678.7 128.7 677.85 129.15 677 129.65 675.9 129.65 675.4 129.65 674.95 129.5 674.45 129.4 674 129.15 673.6 128.95 673.25 128.6 672.9 128.3 672.6 127.85 672.3 127.4 672.05 126.9 671.8 126.4 671.65 125.75 671.45 125.15 671.4 124.45 671.3 123.75 671.3 122.95 671.3 122.15 671.4 121.45 671.45 120.75 671.65 120.1 671.8 119.5 672.05 119 672.3 118.5 672.6 118.05 672.9 117.65 673.25 117.3 673.6 116.95 674 116.7
M 685.65 115.9
Q 685.65 115.6 685.75 115.4 685.85 115.2 686.05 115.05 686.2 114.95 686.45 114.9 686.65 114.8 686.9 114.8 687.2 114.8 687.5 114.9 687.75 114.95 687.95 115.05 688.15 115.2 688.25 115.4 688.35 115.6 688.35 115.9
L 688.35 133.9
Q 688.35 134.5 687.95 134.75 687.75 134.85 687.5 134.9 687.2 134.95 686.9 134.95 686.65 134.95 686.45 134.9 686.2 134.85 686.05 134.75 685.65 134.5 685.65 133.9
L 685.65 115.9
M 680.55 122.95
Q 680.55 123.25 680.55 123.55 680.55 123.85 680.5 124.15
L 682.1 124.15 682.1 121.55 680.5 121.55
Q 680.5 121.9 680.55 122.25 680.55 122.6 680.55 122.95
M 675.1 119.1
Q 674.75 119.4 674.5 119.9 674 121 674 122.95 674 123.9 674.1 124.65 674.25 125.4 674.5 125.95 674.75 126.5 675.1 126.75 675.5 127.05 675.95 127.05 676.35 127.05 676.7 126.75 677.05 126.5 677.35 125.95 677.6 125.4 677.7 124.65 677.85 123.9 677.85 122.95 677.85 122 677.7 121.2 677.6 120.45 677.35 119.9 677.05 119.4 676.7 119.1 676.35 118.85 675.95 118.85 675.5 118.85 675.1 119.1 Z"/>

<path fill="#FFFFFF" stroke="none" d="
M 685.75 115.4
Q 685.65 115.6 685.65 115.9
L 685.65 133.9
Q 685.65 134.5 686.05 134.75 686.2 134.85 686.45 134.9 686.65 134.95 686.9 134.95 687.2 134.95 687.5 134.9 687.75 134.85 687.95 134.75 688.35 134.5 688.35 133.9
L 688.35 115.9
Q 688.35 115.6 688.25 115.4 688.15 115.2 687.95 115.05 687.75 114.95 687.5 114.9 687.2 114.8 686.9 114.8 686.65 114.8 686.45 114.9 686.2 114.95 686.05 115.05 685.85 115.2 685.75 115.4
M 674.95 116.35
Q 674.45 116.5 674 116.7 673.6 116.95 673.25 117.3 672.9 117.65 672.6 118.05 672.3 118.5 672.05 119 671.8 119.5 671.65 120.1 671.45 120.75 671.4 121.45 671.3 122.15 671.3 122.95 671.3 123.75 671.4 124.45 671.45 125.15 671.65 125.75 671.8 126.4 672.05 126.9 672.3 127.4 672.6 127.85 672.9 128.3 673.25 128.6 673.6 128.95 674 129.15 674.45 129.4 674.95 129.5 675.4 129.65 675.9 129.65 677 129.65 677.85 129.15 678.7 128.7 679.35 127.85 679.5 127.6 679.65 127.35 679.8 127.05 679.95 126.75
L 682.1 126.75 682.1 133.3
Q 682.1 133.55 682.2 133.8 682.3 134 682.5 134.15 682.7 134.25 682.95 134.35 683.15 134.4 683.4 134.4 683.7 134.4 683.95 134.35 684.25 134.25 684.45 134.15 684.65 134 684.75 133.8 684.85 133.55 684.85 133.3
L 684.85 116.3
Q 684.85 115.65 684.45 115.45 684.25 115.35 683.95 115.3 683.7 115.2 683.4 115.2 683.15 115.2 682.95 115.3 682.7 115.35 682.5 115.45 682.1 115.65 682.1 116.3
L 682.1 119 679.85 119
Q 679.75 118.75 679.6 118.5 679.5 118.25 679.35 118.05 679.05 117.65 678.65 117.3 678.25 116.95 677.85 116.7 677 116.25 675.9 116.25 675.4 116.25 674.95 116.35
M 674.5 119.9
Q 674.75 119.4 675.1 119.1 675.5 118.85 675.95 118.85 676.35 118.85 676.7 119.1 677.05 119.4 677.35 119.9 677.6 120.45 677.7 121.2 677.85 122 677.85 122.95 677.85 123.9 677.7 124.65 677.6 125.4 677.35 125.95 677.05 126.5 676.7 126.75 676.35 127.05 675.95 127.05 675.5 127.05 675.1 126.75 674.75 126.5 674.5 125.95 674.25 125.4 674.1 124.65 674 123.9 674 122.95 674 121 674.5 119.9
M 680.55 123.55
Q 680.55 123.25 680.55 122.95 680.55 122.6 680.55 122.25 680.5 121.9 680.5 121.55
L 682.1 121.55 682.1 124.15 680.5 124.15
Q 680.55 123.85 680.55 123.55 Z"/>
</g>

<path id="Layer0_1_1_STROKES" stroke="#3567D7" stroke-width="3" stroke-linejoin="round" stroke-linecap="butt" fill="none" d="
M 707.65 610.7
L 914.05 610.7 933.2 610.7
Q 933.2 598.45 941.85 589.75 950.55 581.1 962.8 581.1 975.05 581.1 983.7 589.75 983.7611328125 589.8111328125 983.825 589.875
L 1146.75 428.45
M 933.2 610.7
L 962.8 610.7 983.825 589.875"/>

<path id="Layer0_1_2_STROKES" stroke="#3567D7" stroke-width="3" stroke-linejoin="miter" stroke-linecap="butt" stroke-miterlimit="3" fill="none" d="
M 914.05 610.7
Q 914.05 611.15 914.05 611.55"/>
</defs>

<g transform="matrix( 1, 0, 0, 1, 0,0) ">
<use xlink:href="#Layer0_0_FILL"/>
</g>

<g transform="matrix( 1, 0, 0, 1, -49.5,-323.55) ">
<use xlink:href="#Layer0_1_1_STROKES"/>

<use xlink:href="#Layer0_1_2_STROKES"/>
</g>
</svg>
