
<svg xmlns="http://www.w3.org/2000/svg" version="1.1" xmlns:xlink="http://www.w3.org/1999/xlink" preserveAspectRatio="none" x="0px" y="0px" width="320px" height="120px" viewBox="0 0 320 120">
<defs>
<filter id="Filter_1" x="-20%" y="-20%" width="140%" height="140%" color-interpolation-filters="sRGB">
<feColorMatrix in="SourceGraphic" type="matrix" values="1 0 0 0 0 0 1 0 0 0 0 0 1 0 0 0 0 0 0.7 0" result="result1"/>
</filter>

<g id="Duplicate_Items_Folder_bs43434_0_Layer4_0_FILL">
<path fill="#569ECC" fill-opacity="0.14901960784313725" stroke="none" d="
M 141.6 -23.65
Q 126.4 -38.85 104.95 -38.85
L -104.95 -38.85
Q -126.4 -38.85 -141.6 -23.65 -156.8 -8.5 -156.8 13
L -156.8 13.05
Q -156.8 34.5 -141.6 49.7 -126.4 64.9 -104.95 64.9
L 104.95 64.9
Q 126.4 64.9 141.6 49.7 156.8 34.5 156.8 13.05
L 156.8 13
Q 156.8 -8.5 141.6 -23.65 Z"/>
</g>

<g id="Duplicate_Items_Folder_bs43434_0_Layer3_0_FILL">
<path fill="#FFFFFF" stroke="none" d="
M 141.6 -36.65
Q 126.4 -51.85 104.95 -51.85
L -104.95 -51.85
Q -126.4 -51.85 -141.6 -36.65 -156.8 -21.5 -156.8 0
L -156.8 0.05
Q -156.8 21.5 -141.6 36.7 -126.4 51.9 -104.95 51.9
L 104.95 51.9
Q 126.4 51.9 141.6 36.7 156.8 21.5 156.8 0.05
L 156.8 0
Q 156.8 -21.5 141.6 -36.65 Z"/>
</g>

<g id="Mask_Duplicate_Items_Folder_bs43434_0_2_MASK_0_FILL">
<path fill="#FFFFFF" stroke="none" d="
M 141.6 -36.65
Q 126.4 -51.85 104.95 -51.85
L -104.95 -51.85
Q -126.4 -51.85 -141.6 -36.65 -156.8 -21.5 -156.8 0
L -156.8 0.05
Q -156.8 21.5 -141.6 36.7 -126.4 51.9 -104.95 51.9
L 104.95 51.9
Q 126.4 51.9 141.6 36.7 156.8 21.5 156.8 0.05
L 156.8 0
Q 156.8 -21.5 141.6 -36.65 Z"/>
</g>

<g id="Duplicate_Items_Folder_fbd33535_0_Layer0_0_FILL">
<path fill="#D2E4F0" stroke="none" d="
M 410.75 133.75
Q 411.5 136.45 413.95 137.8 416.4 139.3 419.15 138.6 421.85 137.9 423.25 135.35 424.65 132.9 423.9 130.2 423.2 127.4 420.8 126.05 418.35 124.7 415.6 125.35 412.9 126.1 411.45 128.5 410.05 130.95 410.75 133.75
M 388.25 112.6
Q 387.85 113.35 388.1 114.25
L 390.5 123.3
Q 390.75 124.2 391.5 124.7 392.2 125.05 393.1 124.85
L 434.8 113.65
Q 435.7 113.4 436.15 112.7 436.55 111.95 436.35 111.05
L 433.9 102
Q 433.65 101.1 432.95 100.65 432.2 100.25 431.3 100.5
L 389.6 111.7
Q 388.7 111.95 388.25 112.6
M 413.05 97.25
Q 414.45 94.8 413.75 92.1 413 89.35 410.55 87.95 408.15 86.55 405.4 87.25 402.7 88 401.25 90.45 399.85 92.9 400.6 95.6 401.3 98.3 403.75 99.75 406.25 101.25 408.95 100.55 411.7 99.85 413.05 97.25 Z"/>
</g>

<g id="Duplicate_Items_Folder_fbd33535_0_Layer0_1_FILL">
<path fill="#D2E4F0" stroke="none" d="
M 116.85 -32.35
L 111 -38.25
Q 110.55 -38.65 109.9 -38.65 109.2 -38.65 108.7 -38.25
L 105.35 -34.8
Q 104.95 -34.3 104.95 -33.65 104.95 -33.05 105.35 -32.6
L 111.2 -26.75 105.35 -20.8
Q 104.95 -20.3 104.95 -19.65 104.95 -19 105.35 -18.5
L 108.7 -15.25
Q 109.2 -14.75 109.9 -14.75 110.55 -14.75 111 -15.25
L 116.85 -21.1 122.7 -15.25
Q 123.3 -14.75 123.85 -14.75 124.55 -14.75 125 -15.25
L 128.3 -18.5
Q 128.85 -19 128.85 -19.65 128.85 -20.3 128.3 -20.8
L 122.5 -26.75 128.3 -32.6
Q 128.85 -33.05 128.85 -33.65 128.85 -34.3 128.3 -34.8
L 125 -38.25
Q 124.55 -38.65 123.85 -38.65 123.3 -38.65 122.7 -38.25
L 116.85 -32.35 Z"/>
</g>

<g id="Duplicate_Items_Folder_fbd33535_0_Layer0_2_FILL">
<path fill="#D2E4F0" stroke="none" d="
M -211.85 69.05
L -211.85 57
Q -211.85 56 -212.45 55.45 -213 54.85 -213.8 54.75 -213.95 54.75 -214.05 54.75
L -220.85 54.75
Q -221.7 54.75 -222.4 55.45 -223.1 56.15 -223.1 57
L -223.1 69.05 -235.2 69.05
Q -236 69.05 -236.7 69.75 -237.4 70.45 -237.4 71.3
L -237.4 78.1
Q -237.4 79.15 -236.7 79.75 -236.1 80.35 -235.2 80.35
L -223.1 80.35 -223.1 92.4
Q -223.1 93.5 -222.4 94.05 -221.7 94.65 -220.85 94.65
L -214.05 94.65
Q -213.95 94.65 -213.8 94.65 -213 94.5 -212.45 94.05 -211.85 93.5 -211.85 92.4
L -211.85 80.35 -199.75 80.35
Q -198.8 80.35 -198.1 79.75 -197.5 79.15 -197.5 78.1
L -197.5 71.3
Q -197.5 70.35 -198.1 69.75 -198.8 69.05 -199.75 69.05
L -211.85 69.05 Z"/>
</g>

<g id="Duplicate_Items_Folder_fbd33535_0_Layer0_3_FILL">
<path fill="#D2E4F0" stroke="none" d="
M -102.2 -27
Q -100.1 -29.1 -100.1 -32.05 -100.1 -34.95 -102.2 -37.05 -104.3 -39.2 -107.25 -39.2 -110.2 -39.2 -112.3 -37.05 -114.4 -34.95 -114.4 -32.05 -114.4 -29.1 -112.3 -27 -110.2 -24.9 -107.25 -24.9 -104.3 -24.9 -102.2 -27 Z"/>
</g>

<g id="Duplicate_Items_Folder_fbd33535_0_Layer0_4_FILL">
<path fill="#D2E4F0" stroke="none" d="
M -102.2 -27
Q -100.1 -29.1 -100.1 -32.05 -100.1 -34.95 -102.2 -37.05 -104.3 -39.2 -107.25 -39.2 -110.2 -39.2 -112.3 -37.05 -114.4 -34.95 -114.4 -32.05 -114.4 -29.1 -112.3 -27 -110.2 -24.9 -107.25 -24.9 -104.3 -24.9 -102.2 -27 Z"/>
</g>

<g id="Duplicate_Items_Folder_fbd33535_0_Layer0_5_FILL">
<path fill="#D2E4F0" stroke="none" d="
M -102.2 -27
Q -100.1 -29.1 -100.1 -32.05 -100.1 -34.95 -102.2 -37.05 -104.3 -39.2 -107.25 -39.2 -110.2 -39.2 -112.3 -37.05 -114.4 -34.95 -114.4 -32.05 -114.4 -29.1 -112.3 -27 -110.2 -24.9 -107.25 -24.9 -104.3 -24.9 -102.2 -27 Z"/>
</g>

<g id="Duplicate_Items_Folder_fbd343434_0_Layer0_0_FILL">
<path fill="#234F6B" stroke="none" d="
M 124.45 26.25
Q 124 26.7 124 28
L 124 34.35
Q 124 35 124.1 35.45 124.15 35.85 124.45 36.1 124.7 36.35 125.15 36.45 125.55 36.55 126.35 36.55
L 141.05 36.55
Q 141.7 36.55 142.15 36.45 142.55 36.35 142.8 36.1 143.05 35.9 143.2 35.45 143.3 35.05 143.3 34.4
L 143.3 28.05
Q 143.3 27.4 143.2 26.95 143.1 26.5 142.85 26.25 142.6 26 142.15 25.9 141.65 25.8 140.9 25.8
L 126.15 25.8
Q 124.9 25.8 124.45 26.25
M 139.1 29.55
L 139.1 32.75
Q 139.1 33.05 139.05 33.1 138.95 33.15 138.75 33.15
L 128.5 33.15
Q 128.15 33.15 128.15 32.8
L 128.15 29.6
Q 128.15 29.2 128.5 29.2
L 138.75 29.2
Q 139.1 29.2 139.1 29.55
M 127.2 9.35
L 124.4 9.2
Q 124 9.2 123.85 9.3 123.75 9.4 123.75 9.85 123.75 11.45 123.45 13.1 123.15 14.7 122.5 16.2 121.8 17.75 120.7 19.1 119.6 20.5 118 21.7 117.55 22 117.7 22.25 117.8 22.5 118.05 22.75
L 119.5 24.4
Q 119.7 24.65 119.85 24.75 120 24.85 120.4 24.55 123.55 22.55 125.45 19.25 125.85 19.95 126.4 20.65 126.95 21.3 127.55 21.9 128.15 22.5 128.75 22.95 129.3 23.4 129.8 23.7 130.15 23.9 130.35 23.9 130.6 23.9 130.85 23.55
L 132.2 21.55
Q 132.35 21.3 132.35 21.1 132.4 20.95 132.05 20.7 130.6 19.6 129.3 18.2 128 16.8 127.25 14.75 127.5 13.6 127.65 12.45 127.8 11.25 127.8 9.95 127.8 9.65 127.65 9.5 127.55 9.4 127.2 9.35
M 137.45 9.25
Q 137.45 8.95 137.35 8.8 137.2 8.7 136.9 8.7
L 134.1 8.7
Q 133.75 8.7 133.6 8.8 133.45 8.95 133.45 9.25
L 133.45 13.85 130.45 13.85
Q 130.15 13.85 130.05 13.95 129.85 14 129.85 14.45
L 129.85 16.6
Q 129.85 17.2 130.45 17.2
L 133.45 17.2 133.45 23.6
Q 133.45 23.95 133.6 24.05 133.8 24.15 134.1 24.15
L 136.9 24.15
Q 137.2 24.15 137.35 24.05 137.45 23.95 137.45 23.6
L 137.45 9.25
M 142.7 24.35
Q 143.05 24.35 143.15 24.2 143.3 24.1 143.3 23.75
L 143.3 8.8
Q 143.3 8.45 143.15 8.35 143.05 8.2 142.7 8.2
L 139.75 8.2
Q 139.15 8.2 139.15 8.8
L 139.15 23.75
Q 139.15 24.1 139.3 24.2 139.4 24.35 139.75 24.35
L 142.7 24.35
M 97.55 29.35
Q 96.85 29.35 96.5 29.45 96.1 29.5 95.85 29.75 95.65 30 95.55 30.35 95.5 30.7 95.5 31.25
L 95.5 35.2
Q 95.5 35.75 95.55 36.1 95.65 36.5 95.85 36.7 96.1 36.95 96.5 37.05 96.9 37.15 97.55 37.15
L 116.1 37.15
Q 116.7 37.15 116.7 36.55
L 116.7 34.45
Q 116.7 34.1 116.55 34 116.45 33.9 116.1 33.9
L 99.95 33.9
Q 99.6 33.9 99.6 33.55
L 99.6 32.75
Q 99.6 32.45 99.95 32.45
L 113.85 32.45
Q 114.55 32.45 114.95 32.35 115.35 32.3 115.6 32.05 115.8 31.85 115.85 31.5 115.95 31.1 115.95 30.5
L 115.95 26.6
Q 115.95 26.05 115.85 25.7 115.8 25.3 115.55 25.1 115.3 24.85 114.9 24.75 114.5 24.65 113.8 24.65
L 96.05 24.65
Q 95.4 24.65 95.4 25.25
L 95.4 27.3
Q 95.4 27.65 95.55 27.8 95.7 27.9 96.05 27.9
L 111.55 27.9
Q 111.85 27.9 111.85 28.25
L 111.85 29
Q 111.85 29.35 111.55 29.35
L 97.55 29.35
M 97.15 9.75
Q 97.15 9.15 96.6 9.15
L 94.7 9.15
Q 94.1 9.15 94.1 9.75
L 94.1 12.75 92.6 12.75 92.6 9.8
Q 92.6 9.2 92 9.2
L 90.05 9.2
Q 89.5 9.2 89.5 9.8
L 89.5 20.2
Q 89.5 20.85 89.6 21.25 89.65 21.65 89.95 21.9 90.2 22.1 90.6 22.2 91.05 22.25 91.8 22.25
L 94.95 22.25
Q 96.3 22.25 96.75 21.85 97.15 21.4 97.15 20.3
L 97.15 9.75
M 92.6 15.95
L 94.1 15.95 94.1 18.65
Q 94.1 18.9 94.05 18.95 94 19 93.75 19
L 92.95 19
Q 92.75 19 92.65 18.95 92.6 18.9 92.6 18.65
L 92.6 15.95
M 105.85 9.75
Q 105.85 9.15 105.25 9.15
L 103.3 9.15
Q 102.75 9.15 102.75 9.75
L 102.75 12.75 101.25 12.75 101.25 9.8
Q 101.25 9.2 100.65 9.2
L 98.7 9.2
Q 98.15 9.2 98.15 9.8
L 98.15 20.2
Q 98.15 20.85 98.25 21.25 98.3 21.65 98.55 21.9 98.8 22.1 99.3 22.2 99.7 22.25 100.45 22.25
L 103.6 22.25
Q 104.95 22.25 105.4 21.85 105.85 21.4 105.85 20.3
L 105.85 9.75
M 101.25 15.95
L 102.75 15.95 102.75 18.65
Q 102.75 18.9 102.7 18.95 102.65 19 102.4 19
L 101.6 19
Q 101.35 19 101.3 18.95 101.25 18.9 101.25 18.65
L 101.25 15.95
M 115.95 8.8
Q 115.95 8.45 115.85 8.35 115.7 8.2 115.4 8.2
L 112.85 8.2
Q 112.55 8.2 112.4 8.35 112.25 8.45 112.25 8.8
L 112.25 14.2 110.55 14.2 110.55 9.25
Q 110.55 8.7 110 8.7
L 107.6 8.7
Q 107.25 8.7 107.1 8.8 107 8.95 107 9.25
L 107 22.3
Q 107 22.7 107.15 22.8 107.3 22.9 107.6 22.9
L 110 22.9
Q 110.3 22.9 110.4 22.8 110.55 22.7 110.55 22.3
L 110.55 17.55 112.25 17.55 112.25 22.6
Q 112.25 22.95 112.35 23.1 112.5 23.2 112.85 23.2
L 115.4 23.2
Q 115.95 23.2 115.95 22.6
L 115.95 8.8
M 62.4 19.85
Q 62.3 19.7 61.9 19.7
L 58.95 19.7
Q 58.6 19.7 58.45 19.85 58.35 20 58.35 20.3
L 58.35 27.85
Q 57.1 27.85 55.85 27.85 54.6 27.85 53.35 27.8 53 27.8 52.9 27.95 52.75 28.1 52.75 28.45
L 52.75 30.6
Q 52.75 30.95 52.9 31.05 53 31.25 53.35 31.25 57.6 31.3 61.9 31.2 66.2 31.05 70.35 30.35 70.65 30.25 70.8 30.2 70.95 30.1 70.9 29.7
L 70.65 27.55
Q 70.6 27.2 70.45 27.1 70.3 27.05 69.85 27.1 68 27.4 66.15 27.55 64.35 27.7 62.5 27.8
L 62.5 20.3
Q 62.5 20 62.4 19.85
M 69.25 11
Q 68.7 10.5 67.6 10.5
L 55.35 10.5
Q 55.05 10.5 54.85 10.65 54.7 10.7 54.7 11.05
L 54.7 13.4
Q 54.7 13.8 54.85 13.9 55.05 13.95 55.35 13.95
L 64.7 13.95
Q 65.35 13.95 65.5 14.15 65.65 14.35 65.65 14.8 65.65 15.95 65.6 16.95 65.6 17.9 65.5 18.8 65.4 19.7 65.25 20.65 65.1 21.55 64.9 22.6 64.85 22.95 64.9 23.15 64.9 23.35 65.4 23.45
L 68.05 23.7
Q 68.5 23.75 68.65 23.7 68.8 23.6 68.85 23.15 69.1 22.1 69.25 21 69.4 19.95 69.5 18.7 69.65 17.5 69.7 16.05 69.75 14.6 69.75 12.8 69.75 11.5 69.25 11
M 76.2 8.8
Q 76.2 8.45 76.1 8.35 75.95 8.2 75.65 8.2
L 72.6 8.2
Q 72.25 8.2 72.15 8.35 72 8.45 72 8.8
L 72 36.4
Q 72 36.75 72.15 36.9 72.25 37 72.6 37
L 75.65 37
Q 75.95 37 76.1 36.9 76.2 36.75 76.2 36.4
L 76.2 23.25 79.75 23.25
Q 80.05 23.25 80.2 23.15 80.35 23.05 80.35 22.7
L 80.35 20.4
Q 80.35 20.05 80.2 19.95 80 19.8 79.75 19.8
L 76.2 19.8 76.2 8.8
M 31.4 9.2
Q 31 9.2 30.85 9.3 30.75 9.4 30.75 9.85 30.75 11.45 30.45 13.1 30.15 14.7 29.5 16.2 28.8 17.75 27.7 19.1 26.6 20.5 25 21.7 24.55 22 24.7 22.25 24.8 22.5 25.05 22.75
L 26.5 24.4
Q 26.7 24.65 26.85 24.75 27 24.85 27.4 24.55 30.55 22.55 32.45 19.25 32.85 19.95 33.4 20.65 33.95 21.3 34.55 21.9 35.15 22.5 35.75 22.95 36.3 23.4 36.8 23.7 37.15 23.9 37.35 23.9 37.6 23.9 37.85 23.55
L 39.2 21.55
Q 39.35 21.3 39.35 21.1 39.4 20.95 39.05 20.7 37.6 19.6 36.3 18.2 35 16.8 34.25 14.75 34.5 13.6 34.65 12.45 34.8 11.25 34.8 9.95 34.8 9.65 34.65 9.5 34.55 9.4 34.2 9.35
L 31.4 9.2
M 49.15 25.9
Q 48.65 25.8 47.9 25.8
L 33.15 25.8
Q 31.9 25.8 31.45 26.25 31 26.7 31 28
L 31 34.35
Q 31 35 31.1 35.45 31.15 35.85 31.45 36.1 31.7 36.35 32.15 36.45 32.55 36.55 33.35 36.55
L 48.05 36.55
Q 48.7 36.55 49.15 36.45 49.55 36.35 49.8 36.1 50.05 35.9 50.2 35.45 50.3 35.05 50.3 34.4
L 50.3 28.05
Q 50.3 27.4 50.2 26.95 50.1 26.5 49.85 26.25 49.6 26 49.15 25.9
M 45.75 29.2
Q 46.1 29.2 46.1 29.55
L 46.1 32.75
Q 46.1 33.05 46.05 33.1 45.95 33.15 45.75 33.15
L 35.5 33.15
Q 35.15 33.15 35.15 32.8
L 35.15 29.6
Q 35.15 29.2 35.5 29.2
L 45.75 29.2
M 41.1 8.7
Q 40.75 8.7 40.6 8.8 40.45 8.95 40.45 9.25
L 40.45 13.85 37.45 13.85
Q 37.15 13.85 37.05 13.95 36.85 14 36.85 14.45
L 36.85 16.6
Q 36.85 17.2 37.45 17.2
L 40.45 17.2 40.45 23.6
Q 40.45 23.95 40.6 24.05 40.8 24.15 41.1 24.15
L 43.9 24.15
Q 44.2 24.15 44.35 24.05 44.45 23.95 44.45 23.6
L 44.45 9.25
Q 44.45 8.95 44.35 8.8 44.2 8.7 43.9 8.7
L 41.1 8.7
M 50.3 8.8
Q 50.3 8.45 50.15 8.35 50.05 8.2 49.7 8.2
L 46.75 8.2
Q 46.15 8.2 46.15 8.8
L 46.15 23.75
Q 46.15 24.1 46.3 24.2 46.4 24.35 46.75 24.35
L 49.7 24.35
Q 50.05 24.35 50.15 24.2 50.3 24.1 50.3 23.75
L 50.3 8.8
M 13.55 25.5
L 10.45 25.35
Q 10.25 25.35 10.05 25.5 9.85 25.65 9.85 25.8 9.6 28.6 7.2 30.7 4.85 32.8 0.9 33.95 0.25 34.1 0.45 34.6
L 1.45 37.05
Q 1.55 37.3 1.7 37.35 1.8 37.4 2.25 37.3 5.45 36.5 7.9 34.95 10.35 33.45 11.85 31.4 12.65 32.45 13.7 33.35 14.8 34.25 16 35 17.2 35.75 18.45 36.25 19.75 36.75 20.95 37 21.65 37.2 21.85 36.75
L 22.85 34.25
Q 22.9 34 22.9 33.85 22.85 33.6 22.45 33.55 21.2 33.3 19.9 32.8 18.6 32.3 17.4 31.55 16.15 30.8 15.2 29.85 14.2 28.9 13.65 27.75 13.8 27.4 13.85 27 13.9 26.65 13.95 26.25 14.05 25.55 13.55 25.5
M 12.2 10
Q 12.2 9.5 11.6 9.5
L 1.1 9.5
Q 0.5 9.5 0.1 9.55 -0.35 9.65 -0.55 9.8 -0.8 10 -0.9 10.4 -1 10.75 -1 11.35
L -1 22.1
Q -1 23.3 -0.45 23.7 0.1 24.1 1.15 24.1 2.4 24.2 4.1 24.15 5.8 24.1 7.6 24 9.3 23.9 11 23.7 12.65 23.5 13.9 23.2 14.25 23.15 14.35 23 14.45 22.9 14.35 22.5
L 14.05 20.55
Q 14 20.3 13.85 20.2 13.75 20.05 13.3 20.15 10.7 20.55 8.3 20.7 5.85 20.8 3.65 20.8 3.2 20.75 3.2 20.35
L 3.2 13.3
Q 3.2 13.15 3.25 13 3.3 12.9 3.6 12.9
L 11.6 12.9
Q 12.2 12.9 12.2 12.4
L 12.2 10
M 20.8 8.8
Q 20.8 8.55 20.75 8.4 20.7 8.2 20.25 8.2
L 17.3 8.2
Q 17.05 8.2 16.85 8.3 16.7 8.4 16.7 8.8
L 16.7 14.8 11 14.8
Q 10.7 14.8 10.55 14.9 10.4 15 10.4 15.35
L 10.4 17.45
Q 10.4 17.75 10.55 17.9 10.7 18 11 18
L 16.7 18 16.7 25.65
Q 16.7 26.2 17.25 26.2
L 20.2 26.2
Q 20.8 26.2 20.8 25.6
L 20.8 8.8
M -21.5 29.8
Q -21 29.7 -21.05 29.15
L -21.35 26.9
Q -21.35 26.6 -21.5 26.5 -21.6 26.4 -22 26.45 -23.9 26.7 -26.05 26.95 -28.2 27.1 -30.45 27.2 -32.65 27.3 -34.9 27.35 -37.15 27.4 -39.25 27.3 -39.85 27.3 -39.85 27.95
L -39.85 30.1
Q -39.85 30.45 -39.75 30.6 -39.6 30.75 -39.25 30.75 -37.1 30.8 -34.85 30.8 -32.6 30.75 -30.3 30.65 -28 30.55 -25.8 30.35 -23.55 30.1 -21.5 29.8
M -25.45 11.85
Q -26.5 10.9 -27.9 10.4 -29.25 9.85 -30.8 9.85 -32.35 9.85 -33.7 10.4 -35.1 10.9 -36.15 11.85 -37.15 12.8 -37.75 14.1 -38.35 15.4 -38.35 16.9 -38.35 18.5 -37.75 19.75 -37.15 21 -36.15 21.9 -35.1 22.85 -33.75 23.35 -32.35 23.8 -30.85 23.8 -29.3 23.8 -27.9 23.35 -26.5 22.85 -25.45 21.9 -24.4 21 -23.8 19.75 -23.2 18.5 -23.2 16.9 -23.2 15.4 -23.8 14.1 -24.4 12.8 -25.45 11.85
M -33.25 14.4
Q -32.3 13.4 -30.8 13.4 -30.1 13.4 -29.45 13.65 -28.8 13.9 -28.35 14.4 -27.9 14.85 -27.6 15.5 -27.35 16.2 -27.35 16.9 -27.35 18.55 -28.35 19.5 -29.35 20.45 -30.8 20.45 -32.3 20.45 -33.25 19.5 -34.25 18.55 -34.25 16.9 -34.25 15.35 -33.25 14.4
M -19.85 8.35
Q -19.95 8.45 -19.95 8.8
L -19.95 36.4
Q -19.95 36.75 -19.85 36.9 -19.7 37 -19.4 37
L -16.4 37
Q -16.05 37 -15.9 36.9 -15.8 36.75 -15.8 36.4
L -15.8 8.8
Q -15.8 8.45 -15.9 8.35 -16.05 8.2 -16.4 8.2
L -19.4 8.2
Q -19.7 8.2 -19.85 8.35
M -41.3 23.8
Q -41.3 23.15 -41.9 23.15
L -67.7 23.15
Q -68.05 23.15 -68.2 23.35 -68.3 23.5 -68.3 23.8
L -68.3 25.9
Q -68.3 26.25 -68.2 26.4 -68.05 26.6 -67.7 26.6
L -56.9 26.6 -56.9 36.2
Q -56.9 36.75 -56.3 36.75
L -53.3 36.75
Q -52.7 36.75 -52.7 36.2
L -52.7 26.6 -41.9 26.6
Q -41.3 26.6 -41.3 25.9
L -41.3 23.8
M -52.85 10.4
Q -52.8 10 -52.75 9.65 -52.75 9.3 -52.7 8.9 -52.7 8.3 -53.35 8.3
L -56.1 8.15
Q -56.5 8.15 -56.6 8.2 -56.75 8.3 -56.8 8.75 -57.15 11.85 -59.35 14.2 -61.55 16.6 -65.9 18 -66.55 18.25 -66.3 18.75
L -65.2 20.95
Q -65.15 21.05 -65.05 21.15 -65 21.3 -64.9 21.35 -64.75 21.45 -64.3 21.35 -61.25 20.4 -58.7 18.75 -56.15 17.05 -54.55 14.65 -53.75 15.7 -52.65 16.7 -51.5 17.7 -50.2 18.5 -48.95 19.35 -47.55 19.9 -46.2 20.45 -44.95 20.7 -44.7 20.75 -44.6 20.75 -44.5 20.75 -44.45 20.7 -44.4 20.65 -44.35 20.5 -44.3 20.4 -44.25 20.35
L -43.25 18.25
Q -43.1 17.9 -43.15 17.65 -43.15 17.45 -43.55 17.35 -45.1 16.9 -46.55 16.2 -48 15.45 -49.25 14.55 -50.45 13.65 -51.4 12.6 -52.35 11.5 -52.85 10.4
M -70.1 32.1
Q -69.5 32.1 -69.5 31.45
L -69.5 29.3
Q -69.5 28.7 -70.1 28.7
L -80.95 28.7 -80.95 22.8
Q -80.95 22.5 -81.1 22.35 -81.2 22.25 -81.55 22.25
L -84.5 22.25
Q -84.9 22.25 -85 22.35 -85.1 22.5 -85.1 22.8
L -85.1 28.7 -95.9 28.7
Q -96.25 28.7 -96.4 28.85 -96.5 29 -96.5 29.3
L -96.5 31.45
Q -96.5 31.75 -96.4 31.9 -96.25 32.1 -95.9 32.1
L -70.1 32.1
M -80.95 10.15
Q -80.9 9.7 -81 9.6 -81.1 9.45 -81.65 9.4
L -84.5 9.2
Q -84.9 9.2 -85 9.35 -85.15 9.5 -85.2 9.8 -85.4 11.85 -86.1 13.45 -86.75 15.05 -87.9 16.4 -89.1 17.7 -90.75 18.75 -92.45 19.8 -94.6 20.6 -95.15 20.8 -94.75 21.5
L -93.6 23.6
Q -93.4 23.9 -93.25 23.95 -93.1 24.05 -92.7 23.9 -89.6 22.85 -87.05 21 -84.5 19.15 -82.95 16.6 -82.15 17.85 -81 18.95 -79.95 20.05 -78.65 20.95 -77.35 21.8 -75.95 22.45 -74.6 23.1 -73.3 23.4 -72.9 23.5 -72.8 23.4 -72.7 23.35 -72.7 23.3 -72.65 23.2 -72.55 23
L -71.45 20.8
Q -71.3 20.45 -71.3 20.25 -71.35 20.1 -71.7 20 -73.35 19.5 -74.85 18.7 -76.35 17.9 -77.6 16.85 -78.85 15.8 -79.8 14.5 -80.7 13.25 -81.15 11.7 -81 11 -80.95 10.15 Z"/>

<path fill="#FF6989" stroke="none" d="
M -112.45 24.45
L -112.45 18.3
Q -112.45 11.05 -117.6 5.85 -122.7 0.75 -130 0.75 -137.25 0.75 -142.4 5.85 -147.55 11.05 -147.55 18.3
L -147.55 25.15
Q -147.55 32.45 -142.4 37.6 -137.25 42.7 -130 42.7
L -101.05 42.7
Q -103.4 41.85 -106 39.9 -111 35.9 -112 30.05 -112.35 27.95 -112.4 25.15 -112.45 24.8 -112.45 24.45
M -127.15 10.85
Q -125.95 11.15 -125 11.8 -124.05 12.5 -123.45 13.55 -122.9 14.6 -122.9 16 -122.9 16.8 -123.15 17.55 -123.45 18.25 -123.95 18.9 -124.45 19.55 -125.15 20.05 -125.85 20.55 -126.65 20.85 -124.6 21.65 -123.55 23 -122.5 24.4 -122.5 25.75 -122.5 27.15 -123 28.35 -123.5 29.55 -124.5 30.4 -125.5 31.3 -126.95 31.8 -128.4 32.3 -130.3 32.3 -131.45 32.3 -132.75 32.1 -134.05 31.9 -135.05 31.5 -135.4 31.35 -135.5 31.2 -135.6 31 -135.5 30.7
L -135.25 28.5
Q -135.2 28.15 -135.05 28.05 -134.9 27.95 -134.45 28.1 -133.8 28.3 -132.95 28.55 -132.1 28.75 -131.45 28.8 -130.55 28.9 -129.65 28.8 -128.7 28.65 -127.95 28.3 -127.25 27.95 -126.8 27.3 -126.35 26.65 -126.35 25.65 -126.35 25.1 -126.6 24.55 -126.9 23.95 -127.45 23.55 -128 23.1 -128.8 22.85 -129.65 22.55 -130.75 22.55
L -132.25 22.55
Q -132.6 22.55 -132.7 22.45 -132.75 22.35 -132.75 22
L -132.75 19.8
Q -132.75 19.4 -132.7 19.3 -132.6 19.2 -132.25 19.2
L -130.8 19.2
Q -130.25 19.2 -129.55 19.05 -128.85 18.9 -128.25 18.5 -127.65 18.2 -127.2 17.65 -126.8 17.1 -126.8 16.4 -126.8 15.35 -127.5 14.65 -128.25 13.95 -129.7 13.95 -130.65 13.95 -131.75 14.2 -132.85 14.45 -133.7 14.85 -134.1 15 -134.3 15 -134.55 14.95 -134.6 14.55
L -134.85 12.3
Q -134.9 12.05 -134.8 11.9 -134.7 11.75 -134.3 11.6 -133.15 11.15 -131.95 10.8 -130.7 10.5 -129.55 10.5 -128.35 10.5 -127.15 10.85 Z"/>

<path fill="#FFFFFF" stroke="none" d="
M -125 11.8
Q -125.95 11.15 -127.15 10.85 -128.35 10.5 -129.55 10.5 -130.7 10.5 -131.95 10.8 -133.15 11.15 -134.3 11.6 -134.7 11.75 -134.8 11.9 -134.9 12.05 -134.85 12.3
L -134.6 14.55
Q -134.55 14.95 -134.3 15 -134.1 15 -133.7 14.85 -132.85 14.45 -131.75 14.2 -130.65 13.95 -129.7 13.95 -128.25 13.95 -127.5 14.65 -126.8 15.35 -126.8 16.4 -126.8 17.1 -127.2 17.65 -127.65 18.2 -128.25 18.5 -128.85 18.9 -129.55 19.05 -130.25 19.2 -130.8 19.2
L -132.25 19.2
Q -132.6 19.2 -132.7 19.3 -132.75 19.4 -132.75 19.8
L -132.75 22
Q -132.75 22.35 -132.7 22.45 -132.6 22.55 -132.25 22.55
L -130.75 22.55
Q -129.65 22.55 -128.8 22.85 -128 23.1 -127.45 23.55 -126.9 23.95 -126.6 24.55 -126.35 25.1 -126.35 25.65 -126.35 26.65 -126.8 27.3 -127.25 27.95 -127.95 28.3 -128.7 28.65 -129.65 28.8 -130.55 28.9 -131.45 28.8 -132.1 28.75 -132.95 28.55 -133.8 28.3 -134.45 28.1 -134.9 27.95 -135.05 28.05 -135.2 28.15 -135.25 28.5
L -135.5 30.7
Q -135.6 31 -135.5 31.2 -135.4 31.35 -135.05 31.5 -134.05 31.9 -132.75 32.1 -131.45 32.3 -130.3 32.3 -128.4 32.3 -126.95 31.8 -125.5 31.3 -124.5 30.4 -123.5 29.55 -123 28.35 -122.5 27.15 -122.5 25.75 -122.5 24.4 -123.55 23 -124.6 21.65 -126.65 20.85 -125.85 20.55 -125.15 20.05 -124.45 19.55 -123.95 18.9 -123.45 18.25 -123.15 17.55 -122.9 16.8 -122.9 16 -122.9 14.6 -123.45 13.55 -124.05 12.5 -125 11.8 Z"/>
</g>

<path id="Duplicate_Items_Folder_bs43434_0_Layer0_0_1_STROKES" stroke="#569ECC" stroke-width="6" stroke-linejoin="round" stroke-linecap="round" fill="none" d="
M -104.95 -51.85
L 104.95 -51.85
Q 126.4 -51.85 141.6 -36.65 156.8 -21.5 156.8 0
L 156.8 0.05
Q 156.8 21.5 141.6 36.7 126.4 51.9 104.95 51.9
L -104.95 51.9
Q -126.4 51.9 -141.6 36.7 -156.8 21.5 -156.8 0.05
L -156.8 0
Q -156.8 -21.5 -141.6 -36.65 -126.4 -51.85 -104.95 -51.85 Z"/>
</defs>

<g transform="matrix( 1, 0, 0, 1, 159.8,32) ">
<g transform="matrix( 1, 0, 0, 1, 0,22.85) ">
<g transform="matrix( 1, 0, 0, 1, 0,0) ">
<use xlink:href="#Duplicate_Items_Folder_bs43434_0_Layer4_0_FILL"/>
</g>

<g transform="matrix( 1, 0, 0, 1, 0,0) ">
<use xlink:href="#Duplicate_Items_Folder_bs43434_0_Layer3_0_FILL"/>
</g>

<mask id="Mask_Mask_1">
<g transform="matrix( 1, 0, 0, 1, 0,0) ">
<use xlink:href="#Mask_Duplicate_Items_Folder_bs43434_0_2_MASK_0_FILL"/>
</g>
</mask>

<g mask="url(#Mask_Mask_1)">
<g transform="matrix( 1, 0, 0, 1, -3.25,24.2) ">
<g transform="matrix( 0.7107391357421875, 0, 0, 0.7107391357421875, -334.95,-70.95) ">
<use filter="url(#Filter_1)" xlink:href="#Duplicate_Items_Folder_fbd33535_0_Layer0_0_FILL"/>
</g>

<g transform="matrix( 1, 0, 0, 1, 3.25,-24.2) ">
<use filter="url(#Filter_1)" xlink:href="#Duplicate_Items_Folder_fbd33535_0_Layer0_1_FILL"/>
</g>

<g transform="matrix( 0.0501251220703125, 0, 0, 0.0501251220703125, -68.3,58.1) ">
<use filter="url(#Filter_1)" xlink:href="#Duplicate_Items_Folder_fbd33535_0_Layer0_2_FILL"/>
</g>

<g transform="matrix( 1, 0, 0, 1, -17.75,-17.9) ">
<use filter="url(#Filter_1)" xlink:href="#Duplicate_Items_Folder_fbd33535_0_Layer0_3_FILL"/>
</g>

<g transform="matrix( 0.7902069091796875, 0, 0, 0.7902069091796875, 113.7,-29.1) ">
<use filter="url(#Filter_1)" xlink:href="#Duplicate_Items_Folder_fbd33535_0_Layer0_4_FILL"/>
</g>

<g transform="matrix( 0.7902069091796875, 0, 0, 0.7902069091796875, 189.7,32.9) ">
<use filter="url(#Filter_1)" xlink:href="#Duplicate_Items_Folder_fbd33535_0_Layer0_5_FILL"/>
</g>
</g>
</g>

<g transform="matrix( 1, 0, 0, 1, 0,0) ">
<use xlink:href="#Duplicate_Items_Folder_bs43434_0_Layer0_0_1_STROKES"/>
</g>
</g>

<g transform="matrix( 1, 0, 0, 1, 0,0) ">
<use xlink:href="#Duplicate_Items_Folder_fbd343434_0_Layer0_0_FILL"/>
</g>
</g>
</svg>
