
<svg xmlns="http://www.w3.org/2000/svg" version="1.1" xmlns:xlink="http://www.w3.org/1999/xlink" preserveAspectRatio="none" x="0px" y="0px" width="1280px" height="720px" viewBox="0 0 1280 720">
<defs>
<g id="Layer0_0_FILL">
<path fill="#FFFFFF" stroke="none" d="
M 350.1 412.15
L 483.8 489.35
Q 504.15 454.95 504.15 412.1 504.15 369.35 483.85 334.95
L 350.1 412.15 Z"/>

<path fill="#CCEFFF" stroke="none" d="
M 350.1 412.15
L 350.1 566.15
Q 413.9 566.15 459 521 473.85 506.2 483.8 489.35
L 350.1 412.15
M 216.4 489.35
Q 226.35 506.2 241.15 521 286.3 566.15 350.1 566.15
L 350.1 412.15 216.4 489.35
M 196.05 412.1
Q 196.05 454.95 216.4 489.35
L 350.1 412.15 216.35 334.95
Q 196.05 369.3 196.05 412.1 Z"/>

<path fill="#A0DAF5" stroke="none" d="
M 241.15 303.15
Q 226.3 318 216.35 334.95
L 350.1 412.15 350.1 258.05
Q 286.3 258.05 241.15 303.15
M 483.85 334.95
Q 473.9 318.05 459 303.15 413.9 258.05 350.1 258.05
L 350.1 412.15 483.85 334.95 Z"/>
</g>

<g id="Layer0_0_STROKES_1_FILL">
<path fill="#9585B8" stroke="none" d="
M 350.95 563
Q 351.3455078125 562.66328125 351.35 562.15
L 351.35 559.15
Q 351.3455078125 558.63671875 350.95 558.25 350.61328125 557.9044921875 350.1 557.9 349.58671875 557.9044921875 349.2 558.25 348.8544921875 558.63671875 348.85 559.15
L 348.85 562.15
Q 348.8544921875 562.66328125 349.2 563 349.58671875 563.3955078125 350.1 563.4 350.61328125 563.3955078125 350.95 563
M 348.85 552.15
L 348.85 555.15
Q 348.8544921875 555.66328125 349.2 556 349.58671875 556.3955078125 350.1 556.4 350.61328125 556.3955078125 350.95 556 351.3455078125 555.66328125 351.35 555.15
L 351.35 552.15
Q 351.3455078125 551.63671875 350.95 551.25 350.61328125 550.9044921875 350.1 550.9 349.58671875 550.9044921875 349.2 551.25 348.8544921875 551.63671875 348.85 552.15
M 350.95 544.25
Q 350.61328125 543.9044921875 350.1 543.9 349.58671875 543.9044921875 349.2 544.25 348.8544921875 544.63671875 348.85 545.15
L 348.85 548.15
Q 348.8544921875 548.66328125 349.2 549 349.58671875 549.3955078125 350.1 549.4 350.61328125 549.3955078125 350.95 549 351.3455078125 548.66328125 351.35 548.15
L 351.35 545.15
Q 351.3455078125 544.63671875 350.95 544.25
M 351.35 538.15
Q 351.3455078125 537.63671875 350.95 537.25 350.61328125 536.9044921875 350.1 536.9 349.58671875 536.9044921875 349.2 537.25 348.8544921875 537.63671875 348.85 538.15
L 348.85 541.15
Q 348.8544921875 541.66328125 349.2 542 349.58671875 542.3955078125 350.1 542.4 350.61328125 542.3955078125 350.95 542 351.3455078125 541.66328125 351.35 541.15
L 351.35 538.15
M 349.2 530.25
Q 348.8544921875 530.63671875 348.85 531.15
L 348.85 534.15
Q 348.8544921875 534.66328125 349.2 535 349.58671875 535.3955078125 350.1 535.4 350.61328125 535.3955078125 350.95 535 351.3455078125 534.66328125 351.35 534.15
L 351.35 531.15
Q 351.3455078125 530.63671875 350.95 530.25 350.61328125 529.9044921875 350.1 529.9 349.58671875 529.9044921875 349.2 530.25
M 351.35 524.15
Q 351.3455078125 523.63671875 350.95 523.25 350.61328125 522.9044921875 350.1 522.9 349.58671875 522.9044921875 349.2 523.25 348.8544921875 523.63671875 348.85 524.15
L 348.85 527.15
Q 348.8544921875 527.66328125 349.2 528 349.58671875 528.3955078125 350.1 528.4 350.61328125 528.3955078125 350.95 528 351.3455078125 527.66328125 351.35 527.15
L 351.35 524.15
M 349.2 516.25
Q 348.8544921875 516.63671875 348.85 517.15
L 348.85 520.15
Q 348.8544921875 520.66328125 349.2 521 349.58671875 521.3955078125 350.1 521.4 350.61328125 521.3955078125 350.95 521 351.3455078125 520.66328125 351.35 520.15
L 351.35 517.15
Q 351.3455078125 516.63671875 350.95 516.25 350.61328125 515.9044921875 350.1 515.9 349.58671875 515.9044921875 349.2 516.25
M 351.35 513.15
L 351.35 510.15
Q 351.3455078125 509.63671875 350.95 509.25 350.61328125 508.9044921875 350.1 508.9 349.58671875 508.9044921875 349.2 509.25 348.8544921875 509.63671875 348.85 510.15
L 348.85 513.15
Q 348.8544921875 513.66328125 349.2 514 349.58671875 514.3955078125 350.1 514.4 350.61328125 514.3955078125 350.95 514 351.3455078125 513.66328125 351.35 513.15
M 348.85 506.15
Q 348.8544921875 506.66328125 349.2 507 349.58671875 507.3955078125 350.1 507.4 350.61328125 507.3955078125 350.95 507 351.3455078125 506.66328125 351.35 506.15
L 351.35 503.15
Q 351.3455078125 502.63671875 350.95 502.25 350.61328125 501.9044921875 350.1 501.9 349.58671875 501.9044921875 349.2 502.25 348.8544921875 502.63671875 348.85 503.15
L 348.85 506.15
M 350.95 500
Q 351.3455078125 499.66328125 351.35 499.15
L 351.35 496.15
Q 351.3455078125 495.63671875 350.95 495.25 350.61328125 494.9044921875 350.1 494.9 349.58671875 494.9044921875 349.2 495.25 348.8544921875 495.63671875 348.85 496.15
L 348.85 499.15
Q 348.8544921875 499.66328125 349.2 500 349.58671875 500.3955078125 350.1 500.4 350.61328125 500.3955078125 350.95 500
M 350.95 488.25
Q 350.61328125 487.9044921875 350.1 487.9 349.58671875 487.9044921875 349.2 488.25 348.8544921875 488.63671875 348.85 489.15
L 348.85 492.15
Q 348.8544921875 492.66328125 349.2 493 349.58671875 493.3955078125 350.1 493.4 350.61328125 493.3955078125 350.95 493 351.3455078125 492.66328125 351.35 492.15
L 351.35 489.15
Q 351.3455078125 488.63671875 350.95 488.25
M 349.2 481.25
Q 348.8544921875 481.63671875 348.85 482.15
L 348.85 485.15
Q 348.8544921875 485.66328125 349.2 486 349.58671875 486.3955078125 350.1 486.4 350.61328125 486.3955078125 350.95 486 351.3455078125 485.66328125 351.35 485.15
L 351.35 482.15
Q 351.3455078125 481.63671875 350.95 481.25 350.61328125 480.9044921875 350.1 480.9 349.58671875 480.9044921875 349.2 481.25
M 351.35 475.15
Q 351.3455078125 474.63671875 350.95 474.25 350.61328125 473.9044921875 350.1 473.9 349.58671875 473.9044921875 349.2 474.25 348.8544921875 474.63671875 348.85 475.15
L 348.85 478.15
Q 348.8544921875 478.66328125 349.2 479 349.58671875 479.3955078125 350.1 479.4 350.61328125 479.3955078125 350.95 479 351.3455078125 478.66328125 351.35 478.15
L 351.35 475.15
M 349.2 467.25
Q 348.8544921875 467.63671875 348.85 468.15
L 348.85 471.15
Q 348.8544921875 471.66328125 349.2 472 349.58671875 472.3955078125 350.1 472.4 350.61328125 472.3955078125 350.95 472 351.3455078125 471.66328125 351.35 471.15
L 351.35 468.15
Q 351.3455078125 467.63671875 350.95 467.25 350.61328125 466.9044921875 350.1 466.9 349.58671875 466.9044921875 349.2 467.25
M 351.35 461.15
Q 351.3455078125 460.63671875 350.95 460.25 350.61328125 459.9044921875 350.1 459.9 349.58671875 459.9044921875 349.2 460.25 348.8544921875 460.63671875 348.85 461.15
L 348.85 464.15
Q 348.8544921875 464.66328125 349.2 465 349.58671875 465.3955078125 350.1 465.4 350.61328125 465.3955078125 350.95 465 351.3455078125 464.66328125 351.35 464.15
L 351.35 461.15
M 349.2 453.25
Q 348.8544921875 453.63671875 348.85 454.15
L 348.85 457.15
Q 348.8544921875 457.66328125 349.2 458 349.58671875 458.3955078125 350.1 458.4 350.61328125 458.3955078125 350.95 458 351.3455078125 457.66328125 351.35 457.15
L 351.35 454.15
Q 351.3455078125 453.63671875 350.95 453.25 350.61328125 452.9044921875 350.1 452.9 349.58671875 452.9044921875 349.2 453.25
M 350.95 451
Q 351.3455078125 450.66328125 351.35 450.15
L 351.35 447.15
Q 351.3455078125 446.63671875 350.95 446.25 350.61328125 445.9044921875 350.1 445.9 349.58671875 445.9044921875 349.2 446.25 348.8544921875 446.63671875 348.85 447.15
L 348.85 450.15
Q 348.8544921875 450.66328125 349.2 451 349.58671875 451.3955078125 350.1 451.4 350.61328125 451.3955078125 350.95 451
M 350.95 439.25
Q 350.61328125 438.9044921875 350.1 438.9 349.58671875 438.9044921875 349.2 439.25 348.8544921875 439.63671875 348.85 440.15
L 348.85 443.15
Q 348.8544921875 443.66328125 349.2 444 349.58671875 444.3955078125 350.1 444.4 350.61328125 444.3955078125 350.95 444 351.3455078125 443.66328125 351.35 443.15
L 351.35 440.15
Q 351.3455078125 439.63671875 350.95 439.25
M 350.95 432.25
Q 350.61328125 431.9044921875 350.1 431.9 349.58671875 431.9044921875 349.2 432.25 348.8544921875 432.63671875 348.85 433.15
L 348.85 436.15
Q 348.8544921875 436.66328125 349.2 437 349.58671875 437.3955078125 350.1 437.4 350.61328125 437.3955078125 350.95 437 351.3455078125 436.66328125 351.35 436.15
L 351.35 433.15
Q 351.3455078125 432.63671875 350.95 432.25
M 351.35 426.15
Q 351.3455078125 425.63671875 350.95 425.25 350.61328125 424.9044921875 350.1 424.9 349.58671875 424.9044921875 349.2 425.25 348.8544921875 425.63671875 348.85 426.15
L 348.85 429.15
Q 348.8544921875 429.66328125 349.2 430 349.58671875 430.3955078125 350.1 430.4 350.61328125 430.3955078125 350.95 430 351.3455078125 429.66328125 351.35 429.15
L 351.35 426.15
M 329.8 425.2
L 332.4 423.7
Q 332.8677734375 423.4693359375 333 422.95 333.134765625 422.4755859375 332.85 422 332.61953125 421.5806640625 332.1 421.45 331.62734375 421.3154296875 331.15 421.55
L 328.55 423.05
Q 328.1322265625 423.3306640625 328 423.8 327.8654296875 424.32421875 328.1 424.75 328.38046875 425.2193359375 328.85 425.35 329.37265625 425.4845703125 329.8 425.2
M 338.2 417.95
Q 337.72734375 417.8154296875 337.25 418.05
L 334.65 419.55
Q 334.2322265625 419.8306640625 334.1 420.3 333.9654296875 420.82421875 334.2 421.25 334.48046875 421.7193359375 334.95 421.85 335.47265625 421.9845703125 335.9 421.7
L 338.5 420.2
Q 338.9677734375 419.9693359375 339.1 419.45 339.234765625 418.9755859375 338.95 418.5 338.71953125 418.0806640625 338.2 417.95
M 329.65 400.05
Q 329.934765625 399.62421875 329.8 399.1 329.6677734375 398.6306640625 329.2 398.35
L 326.6 396.85
Q 326.17265625 396.6154296875 325.65 396.75 325.18046875 396.8806640625 324.9 397.3 324.6654296875 397.7755859375 324.8 398.25 324.9322265625 398.7693359375 325.35 399
L 327.95 400.5
Q 328.42734375 400.7845703125 328.9 400.65 329.41953125 400.5193359375 329.65 400.05
M 334.9 404.15
Q 335.41953125 404.0193359375 335.65 403.55 335.934765625 403.12421875 335.8 402.6 335.6677734375 402.1306640625 335.2 401.85
L 332.6 400.35
Q 332.17265625 400.1154296875 331.65 400.25 331.18046875 400.3806640625 330.9 400.8 330.6654296875 401.2755859375 330.8 401.75 330.9322265625 402.2693359375 331.35 402.5
L 333.95 404
Q 334.42734375 404.2845703125 334.9 404.15
M 336.8 405.25
Q 336.9322265625 405.7693359375 337.35 406
L 339.95 407.5
Q 340.42734375 407.7845703125 340.9 407.65 341.41953125 407.5193359375 341.65 407.05 341.934765625 406.62421875 341.8 406.1 341.6677734375 405.6306640625 341.2 405.35
L 338.6 403.85
Q 338.17265625 403.6154296875 337.65 403.75 337.18046875 403.8806640625 336.9 404.3 336.6654296875 404.7755859375 336.8 405.25
M 359.4 416.05
L 356.8 414.55
Q 356.37265625 414.3154296875 355.85 414.45 355.38046875 414.5806640625 355.1 415 354.8654296875 415.4755859375 355 415.95 355.1322265625 416.4693359375 355.55 416.7
L 358.15 418.2
Q 358.62734375 418.4845703125 359.1 418.35 359.61953125 418.2193359375 359.85 417.75 360.134765625 417.32421875 360 416.8 359.8677734375 416.3306640625 359.4 416.05
M 344.6 416.7
Q 345.0677734375 416.4693359375 345.2 415.95 345.334765625 415.4755859375 345.05 415 344.81953125 414.5806640625 344.3 414.45 343.82734375 414.3154296875 343.35 414.55
L 340.75 416.05
Q 340.3322265625 416.3306640625 340.2 416.8 340.0654296875 417.32421875 340.3 417.75 340.58046875 418.2193359375 341.05 418.35 341.57265625 418.4845703125 342 418.2
L 344.6 416.7
M 349.2 418.25
Q 348.8544921875 418.63671875 348.85 419.15
L 348.85 422.15
Q 348.8544921875 422.66328125 349.2 423 349.58671875 423.3955078125 350.1 423.4 350.61328125 423.3955078125 350.95 423 351.3455078125 422.66328125 351.35 422.15
L 351.35 419.15
Q 351.3455078125 418.63671875 350.95 418.25 350.61328125 417.9044921875 350.1 417.9 349.58671875 417.9044921875 349.2 418.25
M 345.95 411.1
Q 346.42734375 411.3845703125 346.9 411.25 347.41953125 411.1193359375 347.65 410.65 347.934765625 410.22421875 347.8 409.7 347.6677734375 409.2306640625 347.2 408.95
L 344.6 407.45
Q 344.17265625 407.2154296875 343.65 407.35 343.18046875 407.4806640625 342.9 407.9 342.6654296875 408.3755859375 342.8 408.85 342.9322265625 409.3693359375 343.35 409.6
L 345.95 411.1
M 351.05 411.15
Q 350.71328125 410.8044921875 350.2 410.8 350.15078125 410.800390625 350.1 410.8 350.05078125 410.800390625 350 410.8 349.48671875 410.8044921875 349.1 411.15 349.028125 411.26953125 348.95 411.35
L 346.85 412.55
Q 346.4322265625 412.8306640625 346.3 413.3 346.1654296875 413.82421875 346.4 414.25 346.68046875 414.7193359375 347.15 414.85 347.67265625 414.9845703125 348.1 414.7
L 348.85 414.3 348.85 415.15
Q 348.8544921875 415.66328125 349.2 416 349.58671875 416.3955078125 350.1 416.4 350.61328125 416.3955078125 350.95 416 351.3455078125 415.66328125 351.35 415.15
L 351.35 414.3 352.05 414.7
Q 352.52734375 414.9845703125 353 414.85 353.51953125 414.7193359375 353.75 414.25 354.034765625 413.82421875 353.9 413.3 353.7677734375 412.8306640625 353.3 412.55
L 351.2 411.35
Q 351.1626953125 411.2607421875 351.05 411.15
M 348.85 405.05
L 348.85 408.05
Q 348.8544921875 408.56328125 349.2 408.9 349.58671875 409.2955078125 350.1 409.3 350.61328125 409.2955078125 350.95 408.9 351.3455078125 408.56328125 351.35 408.05
L 351.35 405.05
Q 351.3455078125 404.53671875 350.95 404.15 350.61328125 403.8044921875 350.1 403.8 349.58671875 403.8044921875 349.2 404.15 348.8544921875 404.53671875 348.85 405.05
M 350.95 401.9
Q 351.3455078125 401.56328125 351.35 401.05
L 351.35 398.05
Q 351.3455078125 397.53671875 350.95 397.15 350.61328125 396.8044921875 350.1 396.8 349.58671875 396.8044921875 349.2 397.15 348.8544921875 397.53671875 348.85 398.05
L 348.85 401.05
Q 348.8544921875 401.56328125 349.2 401.9 349.58671875 402.2955078125 350.1 402.3 350.61328125 402.2955078125 350.95 401.9
M 358.95 405.35
Q 358.5322265625 405.6306640625 358.4 406.1 358.2654296875 406.62421875 358.5 407.05 358.78046875 407.5193359375 359.25 407.65 359.77265625 407.7845703125 360.2 407.5
L 362.8 406
Q 363.2677734375 405.7693359375 363.4 405.25 363.534765625 404.7755859375 363.25 404.3 363.01953125 403.8806640625 362.5 403.75 362.02734375 403.6154296875 361.55 403.85
L 358.95 405.35
M 357.25 407.9
Q 357.01953125 407.4806640625 356.5 407.35 356.02734375 407.2154296875 355.55 407.45
L 352.95 408.95
Q 352.5322265625 409.2306640625 352.4 409.7 352.2654296875 410.22421875 352.5 410.65 352.78046875 411.1193359375 353.25 411.25 353.77265625 411.3845703125 354.2 411.1
L 356.8 409.6
Q 357.2677734375 409.3693359375 357.4 408.85 357.534765625 408.3755859375 357.25 407.9
M 399.5 439.05
Q 399.07265625 438.8154296875 398.55 438.95 398.08046875 439.0806640625 397.8 439.5 397.5654296875 439.9755859375 397.7 440.45 397.8322265625 440.9693359375 398.25 441.2
L 400.85 442.7
Q 401.32734375 442.9845703125 401.8 442.85 402.31953125 442.7193359375 402.55 442.25 402.834765625 441.82421875 402.7 441.3 402.5677734375 440.8306640625 402.1 440.55
L 399.5 439.05
M 392.45 435.45
Q 391.98046875 435.5806640625 391.7 436 391.4654296875 436.4755859375 391.6 436.95 391.7322265625 437.4693359375 392.15 437.7
L 394.75 439.2
Q 395.22734375 439.4845703125 395.7 439.35 396.21953125 439.2193359375 396.45 438.75 396.734765625 438.32421875 396.6 437.8 396.4677734375 437.3306640625 396 437.05
L 393.4 435.55
Q 392.97265625 435.3154296875 392.45 435.45
M 386.35 431.95
Q 385.88046875 432.0806640625 385.6 432.5 385.3654296875 432.9755859375 385.5 433.45 385.6322265625 433.9693359375 386.05 434.2
L 388.65 435.7
Q 389.12734375 435.9845703125 389.6 435.85 390.11953125 435.7193359375 390.35 435.25 390.634765625 434.82421875 390.5 434.3 390.3677734375 433.8306640625 389.9 433.55
L 387.3 432.05
Q 386.87265625 431.8154296875 386.35 431.95
M 372.2 423.8
Q 372.0677734375 423.3306640625 371.6 423.05
L 369 421.55
Q 368.57265625 421.3154296875 368.05 421.45 367.58046875 421.5806640625 367.3 422 367.0654296875 422.4755859375 367.2 422.95 367.3322265625 423.4693359375 367.75 423.7
L 370.35 425.2
Q 370.82734375 425.4845703125 371.3 425.35 371.81953125 425.2193359375 372.05 424.75 372.334765625 424.32421875 372.2 423.8
M 379.5 429
Q 379.2654296875 429.4755859375 379.4 429.95 379.5322265625 430.4693359375 379.95 430.7
L 382.55 432.2
Q 383.02734375 432.4845703125 383.5 432.35 384.01953125 432.2193359375 384.25 431.75 384.534765625 431.32421875 384.4 430.8 384.2677734375 430.3306640625 383.8 430.05
L 381.2 428.55
Q 380.77265625 428.3154296875 380.25 428.45 379.78046875 428.5806640625 379.5 429
M 377.7 426.55
L 375.1 425.05
Q 374.67265625 424.8154296875 374.15 424.95 373.68046875 425.0806640625 373.4 425.5 373.1654296875 425.9755859375 373.3 426.45 373.4322265625 426.9693359375 373.85 427.2
L 376.45 428.7
Q 376.92734375 428.9845703125 377.4 428.85 377.91953125 428.7193359375 378.15 428.25 378.434765625 427.82421875 378.3 427.3 378.1677734375 426.8306640625 377.7 426.55
M 366.1 420.3
Q 365.9677734375 419.8306640625 365.5 419.55
L 362.9 418.05
Q 362.47265625 417.8154296875 361.95 417.95 361.48046875 418.0806640625 361.2 418.5 360.9654296875 418.9755859375 361.1 419.45 361.2322265625 419.9693359375 361.65 420.2
L 364.25 421.7
Q 364.72734375 421.9845703125 365.2 421.85 365.71953125 421.7193359375 365.95 421.25 366.234765625 420.82421875 366.1 420.3
M 368.5 400.25
Q 368.02734375 400.1154296875 367.55 400.35
L 364.95 401.85
Q 364.5322265625 402.1306640625 364.4 402.6 364.2654296875 403.12421875 364.5 403.55 364.78046875 404.0193359375 365.25 404.15 365.77265625 404.2845703125 366.2 404
L 368.8 402.5
Q 369.2677734375 402.2693359375 369.4 401.75 369.534765625 401.2755859375 369.25 400.8 369.01953125 400.3806640625 368.5 400.25
M 374.8 399
Q 375.2677734375 398.7693359375 375.4 398.25 375.534765625 397.7755859375 375.25 397.3 375.01953125 396.8806640625 374.5 396.75 374.02734375 396.6154296875 373.55 396.85
L 370.95 398.35
Q 370.5322265625 398.6306640625 370.4 399.1 370.2654296875 399.62421875 370.5 400.05 370.78046875 400.5193359375 371.25 400.65 371.77265625 400.7845703125 372.2 400.5
L 374.8 399
M 481.35 487.85
Q 481.634765625 487.42421875 481.5 486.9 481.3677734375 486.4306640625 480.9 486.15
L 478.3 484.65
Q 477.87265625 484.4154296875 477.35 484.55 476.88046875 484.6806640625 476.6 485.1 476.3654296875 485.5755859375 476.5 486.05 476.6322265625 486.5693359375 477.05 486.8
L 479.65 488.3
Q 480.12734375 488.5845703125 480.6 488.45 481.11953125 488.3193359375 481.35 487.85
M 483.7 488
Q 483.18671875 488.0044921875 482.8 488.35 482.4544921875 488.73671875 482.45 489.25 482.454296875 489.76328125 482.8 490.1
L 482.9 490.2
Q 483.2865234375 490.5955078125 483.8 490.6 484.31328125 490.5955078125 484.65 490.2 485.0455078125 489.86328125 485.05 489.35 485.0455078125 488.8365234375 484.65 488.45
L 484.55 488.35
Q 484.21328125 488.004296875 483.7 488
M 470.6 481.5
Q 470.3654296875 481.9755859375 470.5 482.45 470.6322265625 482.9693359375 471.05 483.2
L 473.65 484.7
Q 474.12734375 484.9845703125 474.6 484.85 475.11953125 484.7193359375 475.35 484.25 475.634765625 483.82421875 475.5 483.3 475.3677734375 482.8306640625 474.9 482.55
L 472.3 481.05
Q 471.87265625 480.8154296875 471.35 480.95 470.88046875 481.0806640625 470.6 481.5
M 465.35 477.45
Q 464.88046875 477.5806640625 464.6 478 464.3654296875 478.4755859375 464.5 478.95 464.6322265625 479.4693359375 465.05 479.7
L 467.65 481.2
Q 468.12734375 481.4845703125 468.6 481.35 469.11953125 481.2193359375 469.35 480.75 469.634765625 480.32421875 469.5 479.8 469.3677734375 479.3306640625 468.9 479.05
L 466.3 477.55
Q 465.87265625 477.3154296875 465.35 477.45
M 457.5 472.8
Q 457.3677734375 472.3306640625 456.9 472.05
L 454.3 470.55
Q 453.87265625 470.3154296875 453.35 470.45 452.88046875 470.5806640625 452.6 471 452.3654296875 471.4755859375 452.5 471.95 452.6322265625 472.4693359375 453.05 472.7
L 455.65 474.2
Q 456.12734375 474.4845703125 456.6 474.35 457.11953125 474.2193359375 457.35 473.75 457.634765625 473.32421875 457.5 472.8
M 463.5 476.3
Q 463.3677734375 475.8306640625 462.9 475.55
L 460.3 474.05
Q 459.87265625 473.8154296875 459.35 473.95 458.88046875 474.0806640625 458.6 474.5 458.3654296875 474.9755859375 458.5 475.45 458.6322265625 475.9693359375 459.05 476.2
L 461.65 477.7
Q 462.12734375 477.9845703125 462.6 477.85 463.11953125 477.7193359375 463.35 477.25 463.634765625 476.82421875 463.5 476.3
M 451.5 469.3
Q 451.3677734375 468.8306640625 450.9 468.55
L 448.3 467.05
Q 447.87265625 466.8154296875 447.35 466.95 446.88046875 467.0806640625 446.6 467.5 446.3654296875 467.9755859375 446.5 468.45 446.6322265625 468.9693359375 447.05 469.2
L 449.65 470.7
Q 450.12734375 470.9845703125 450.6 470.85 451.11953125 470.7193359375 451.35 470.25 451.634765625 469.82421875 451.5 469.3
M 414.9 448.3
Q 414.7677734375 447.8306640625 414.3 447.55
L 411.7 446.05
Q 411.27265625 445.8154296875 410.75 445.95 410.28046875 446.0806640625 410 446.5 409.7654296875 446.9755859375 409.9 447.45 410.0322265625 447.9693359375 410.45 448.2
L 413.05 449.7
Q 413.52734375 449.9845703125 414 449.85 414.51953125 449.7193359375 414.75 449.25 415.034765625 448.82421875 414.9 448.3
M 416.1 450
Q 415.8654296875 450.4755859375 416 450.95 416.1322265625 451.4693359375 416.55 451.7
L 419.15 453.2
Q 419.62734375 453.4845703125 420.1 453.35 420.61953125 453.2193359375 420.85 452.75 421.134765625 452.32421875 421 451.8 420.8677734375 451.3306640625 420.4 451.05
L 417.8 449.55
Q 417.37265625 449.3154296875 416.85 449.45 416.38046875 449.5806640625 416.1 450
M 442.2 463.55
Q 441.77265625 463.3154296875 441.25 463.45 440.78046875 463.5806640625 440.5 464 440.2654296875 464.4755859375 440.4 464.95 440.5322265625 465.4693359375 440.95 465.7
L 443.55 467.2
Q 444.02734375 467.4845703125 444.5 467.35 445.01953125 467.2193359375 445.25 466.75 445.534765625 466.32421875 445.4 465.8 445.2677734375 465.3306640625 444.8 465.05
L 442.2 463.55
M 434.3 461.45
Q 434.4322265625 461.9693359375 434.85 462.2
L 437.45 463.7
Q 437.92734375 463.9845703125 438.4 463.85 438.91953125 463.7193359375 439.15 463.25 439.434765625 462.82421875 439.3 462.3 439.1677734375 461.8306640625 438.7 461.55
L 436.1 460.05
Q 435.67265625 459.8154296875 435.15 459.95 434.68046875 460.0806640625 434.4 460.5 434.1654296875 460.9755859375 434.3 461.45
M 426.95 456.25
Q 427.234765625 455.82421875 427.1 455.3 426.9677734375 454.8306640625 426.5 454.55
L 423.9 453.05
Q 423.47265625 452.8154296875 422.95 452.95 422.48046875 453.0806640625 422.2 453.5 421.9654296875 453.9755859375 422.1 454.45 422.2322265625 454.9693359375 422.65 455.2
L 425.25 456.7
Q 425.72734375 456.9845703125 426.2 456.85 426.71953125 456.7193359375 426.95 456.25
M 430 456.55
Q 429.57265625 456.3154296875 429.05 456.45 428.58046875 456.5806640625 428.3 457 428.0654296875 457.4755859375 428.2 457.95 428.3322265625 458.4693359375 428.75 458.7
L 431.35 460.2
Q 431.82734375 460.4845703125 432.3 460.35 432.81953125 460.2193359375 433.05 459.75 433.334765625 459.32421875 433.2 458.8 433.0677734375 458.3306640625 432.6 458.05
L 430 456.55
M 408.8 444.8
Q 408.6677734375 444.3306640625 408.2 444.05
L 405.6 442.55
Q 405.17265625 442.3154296875 404.65 442.45 404.18046875 442.5806640625 403.9 443 403.6654296875 443.4755859375 403.8 443.95 403.9322265625 444.4693359375 404.35 444.7
L 406.95 446.2
Q 407.42734375 446.4845703125 407.9 446.35 408.41953125 446.2193359375 408.65 445.75 408.934765625 445.32421875 408.8 444.8
M 228.8 480.95
Q 228.32734375 480.8154296875 227.85 481.05
L 225.25 482.55
Q 224.8322265625 482.8306640625 224.7 483.3 224.5654296875 483.82421875 224.8 484.25 225.08046875 484.7193359375 225.55 484.85 226.07265625 484.9845703125 226.5 484.7
L 229.1 483.2
Q 229.5677734375 482.9693359375 229.7 482.45 229.834765625 481.9755859375 229.55 481.5 229.31953125 481.0806640625 228.8 480.95
M 234.8 477.45
Q 234.32734375 477.3154296875 233.85 477.55
L 231.25 479.05
Q 230.8322265625 479.3306640625 230.7 479.8 230.5654296875 480.32421875 230.8 480.75 231.08046875 481.2193359375 231.55 481.35 232.07265625 481.4845703125 232.5 481.2
L 235.1 479.7
Q 235.5677734375 479.4693359375 235.7 478.95 235.834765625 478.4755859375 235.55 478 235.31953125 477.5806640625 234.8 477.45
M 240.8 473.95
Q 240.32734375 473.8154296875 239.85 474.05
L 237.25 475.55
Q 236.8322265625 475.8306640625 236.7 476.3 236.5654296875 476.82421875 236.8 477.25 237.08046875 477.7193359375 237.55 477.85 238.07265625 477.9845703125 238.5 477.7
L 241.1 476.2
Q 241.5677734375 475.9693359375 241.7 475.45 241.834765625 474.9755859375 241.55 474.5 241.31953125 474.0806640625 240.8 473.95
M 216.5 488
Q 215.9865234375 488.004296875 215.6 488.35
L 215.5 488.45
Q 215.154296875 488.8365234375 215.15 489.35 215.1544921875 489.86328125 215.5 490.2 215.88671875 490.5955078125 216.4 490.6 216.91328125 490.5955078125 217.25 490.2
L 217.35 490.1
Q 217.7455078125 489.76328125 217.75 489.25 217.7455078125 488.73671875 217.35 488.35 217.01328125 488.0044921875 216.5 488
M 218.8 487.85
Q 219.08046875 488.3193359375 219.55 488.45 220.07265625 488.5845703125 220.5 488.3
L 223.1 486.8
Q 223.5677734375 486.5693359375 223.7 486.05 223.834765625 485.5755859375 223.55 485.1 223.31953125 484.6806640625 222.8 484.55 222.32734375 484.4154296875 221.85 484.65
L 219.25 486.15
Q 218.8322265625 486.4306640625 218.7 486.9 218.5654296875 487.42421875 218.8 487.85
M 289.7 448.2
Q 290.1677734375 447.9693359375 290.3 447.45 290.434765625 446.9755859375 290.15 446.5 289.91953125 446.0806640625 289.4 445.95 288.92734375 445.8154296875 288.45 446.05
L 285.85 447.55
Q 285.4322265625 447.8306640625 285.3 448.3 285.1654296875 448.82421875 285.4 449.25 285.68046875 449.7193359375 286.15 449.85 286.67265625 449.9845703125 287.1 449.7
L 289.7 448.2
M 243.55 474.35
Q 244.07265625 474.4845703125 244.5 474.2
L 247.1 472.7
Q 247.5677734375 472.4693359375 247.7 471.95 247.834765625 471.4755859375 247.55 471 247.31953125 470.5806640625 246.8 470.45 246.32734375 470.3154296875 245.85 470.55
L 243.25 472.05
Q 242.8322265625 472.3306640625 242.7 472.8 242.5654296875 473.32421875 242.8 473.75 243.08046875 474.2193359375 243.55 474.35
M 259.65 464
Q 259.41953125 463.5806640625 258.9 463.45 258.42734375 463.3154296875 257.95 463.55
L 255.35 465.05
Q 254.9322265625 465.3306640625 254.8 465.8 254.6654296875 466.32421875 254.9 466.75 255.18046875 467.2193359375 255.65 467.35 256.17265625 467.4845703125 256.6 467.2
L 259.2 465.7
Q 259.6677734375 465.4693359375 259.8 464.95 259.934765625 464.4755859375 259.65 464
M 249.25 468.55
Q 248.8322265625 468.8306640625 248.7 469.3 248.5654296875 469.82421875 248.8 470.25 249.08046875 470.7193359375 249.55 470.85 250.07265625 470.9845703125 250.5 470.7
L 253.1 469.2
Q 253.5677734375 468.9693359375 253.7 468.45 253.834765625 467.9755859375 253.55 467.5 253.31953125 467.0806640625 252.8 466.95 252.32734375 466.8154296875 251.85 467.05
L 249.25 468.55
M 265 459.95
Q 264.52734375 459.8154296875 264.05 460.05
L 261.45 461.55
Q 261.0322265625 461.8306640625 260.9 462.3 260.7654296875 462.82421875 261 463.25 261.28046875 463.7193359375 261.75 463.85 262.27265625 463.9845703125 262.7 463.7
L 265.3 462.2
Q 265.7677734375 461.9693359375 265.9 461.45 266.034765625 460.9755859375 265.75 460.5 265.51953125 460.0806640625 265 459.95
M 271.1 456.45
Q 270.62734375 456.3154296875 270.15 456.55
L 267.55 458.05
Q 267.1322265625 458.3306640625 267 458.8 266.8654296875 459.32421875 267.1 459.75 267.38046875 460.2193359375 267.85 460.35 268.37265625 460.4845703125 268.8 460.2
L 271.4 458.7
Q 271.8677734375 458.4693359375 272 457.95 272.134765625 457.4755859375 271.85 457 271.61953125 456.5806640625 271.1 456.45
M 274.9 456.7
L 277.5 455.2
Q 277.9677734375 454.9693359375 278.1 454.45 278.234765625 453.9755859375 277.95 453.5 277.71953125 453.0806640625 277.2 452.95 276.72734375 452.8154296875 276.25 453.05
L 273.65 454.55
Q 273.2322265625 454.8306640625 273.1 455.3 272.9654296875 455.82421875 273.2 456.25 273.48046875 456.7193359375 273.95 456.85 274.47265625 456.9845703125 274.9 456.7
M 283.3 449.45
Q 282.82734375 449.3154296875 282.35 449.55
L 279.75 451.05
Q 279.3322265625 451.3306640625 279.2 451.8 279.0654296875 452.32421875 279.3 452.75 279.58046875 453.2193359375 280.05 453.35 280.57265625 453.4845703125 281 453.2
L 283.6 451.7
Q 284.0677734375 451.4693359375 284.2 450.95 284.334765625 450.4755859375 284.05 450 283.81953125 449.5806640625 283.3 449.45
M 313.8 431.95
Q 313.32734375 431.8154296875 312.85 432.05
L 310.25 433.55
Q 309.8322265625 433.8306640625 309.7 434.3 309.5654296875 434.82421875 309.8 435.25 310.08046875 435.7193359375 310.55 435.85 311.07265625 435.9845703125 311.5 435.7
L 314.1 434.2
Q 314.5677734375 433.9693359375 314.7 433.45 314.834765625 432.9755859375 314.55 432.5 314.31953125 432.0806640625 313.8 431.95
M 321.9 427.3
Q 321.7654296875 427.82421875 322 428.25 322.28046875 428.7193359375 322.75 428.85 323.27265625 428.9845703125 323.7 428.7
L 326.3 427.2
Q 326.7677734375 426.9693359375 326.9 426.45 327.034765625 425.9755859375 326.75 425.5 326.51953125 425.0806640625 326 424.95 325.52734375 424.8154296875 325.05 425.05
L 322.45 426.55
Q 322.0322265625 426.8306640625 321.9 427.3
M 315.8 430.8
Q 315.6654296875 431.32421875 315.9 431.75 316.18046875 432.2193359375 316.65 432.35 317.17265625 432.4845703125 317.6 432.2
L 320.2 430.7
Q 320.6677734375 430.4693359375 320.8 429.95 320.934765625 429.4755859375 320.65 429 320.41953125 428.5806640625 319.9 428.45 319.42734375 428.3154296875 318.95 428.55
L 316.35 430.05
Q 315.9322265625 430.3306640625 315.8 430.8
M 303.6 437.8
Q 303.4654296875 438.32421875 303.7 438.75 303.98046875 439.2193359375 304.45 439.35 304.97265625 439.4845703125 305.4 439.2
L 308 437.7
Q 308.4677734375 437.4693359375 308.6 436.95 308.734765625 436.4755859375 308.45 436 308.21953125 435.5806640625 307.7 435.45 307.22734375 435.3154296875 306.75 435.55
L 304.15 437.05
Q 303.7322265625 437.3306640625 303.6 437.8
M 301.6 438.95
Q 301.12734375 438.8154296875 300.65 439.05
L 298.05 440.55
Q 297.6322265625 440.8306640625 297.5 441.3 297.3654296875 441.82421875 297.6 442.25 297.88046875 442.7193359375 298.35 442.85 298.87265625 442.9845703125 299.3 442.7
L 301.9 441.2
Q 302.3677734375 440.9693359375 302.5 440.45 302.634765625 439.9755859375 302.35 439.5 302.11953125 439.0806640625 301.6 438.95
M 291.95 444.05
Q 291.5322265625 444.3306640625 291.4 444.8 291.2654296875 445.32421875 291.5 445.75 291.78046875 446.2193359375 292.25 446.35 292.77265625 446.4845703125 293.2 446.2
L 295.8 444.7
Q 296.2677734375 444.4693359375 296.4 443.95 296.534765625 443.4755859375 296.25 443 296.01953125 442.5806640625 295.5 442.45 295.02734375 442.3154296875 294.55 442.55
L 291.95 444.05
M 318.9 393.8
Q 318.6654296875 394.2755859375 318.8 394.75 318.9322265625 395.2693359375 319.35 395.5
L 321.95 397
Q 322.42734375 397.2845703125 322.9 397.15 323.41953125 397.0193359375 323.65 396.55 323.934765625 396.12421875 323.8 395.6 323.6677734375 395.1306640625 323.2 394.85
L 320.6 393.35
Q 320.17265625 393.1154296875 319.65 393.25 319.18046875 393.3806640625 318.9 393.8
M 312.7 391.25
Q 312.8322265625 391.7693359375 313.25 392
L 315.85 393.5
Q 316.32734375 393.7845703125 316.8 393.65 317.31953125 393.5193359375 317.55 393.05 317.834765625 392.62421875 317.7 392.1 317.5677734375 391.6306640625 317.1 391.35
L 314.5 389.85
Q 314.07265625 389.6154296875 313.55 389.75 313.08046875 389.8806640625 312.8 390.3 312.5654296875 390.7755859375 312.7 391.25
M 311.65 388.6
Q 311.5177734375 388.1306640625 311.05 387.85
L 308.45 386.35
Q 308.02265625 386.1154296875 307.5 386.25 307.03046875 386.3806640625 306.75 386.8 306.5154296875 387.2755859375 306.65 387.75 306.7822265625 388.2693359375 307.2 388.5
L 309.8 390
Q 310.27734375 390.2845703125 310.75 390.15 311.26953125 390.0193359375 311.5 389.55 311.784765625 389.12421875 311.65 388.6
M 292.75 377.35
L 290.15 375.85
Q 289.72265625 375.6154296875 289.2 375.75 288.73046875 375.8806640625 288.45 376.3 288.2154296875 376.7755859375 288.35 377.25 288.4822265625 377.7693359375 288.9 378
L 291.5 379.5
Q 291.97734375 379.7845703125 292.45 379.65 292.96953125 379.5193359375 293.2 379.05 293.484765625 378.62421875 293.35 378.1 293.2177734375 377.6306640625 292.75 377.35
M 301.4 382.75
Q 300.93046875 382.8806640625 300.65 383.3 300.4154296875 383.7755859375 300.55 384.25 300.6822265625 384.7693359375 301.1 385
L 303.7 386.5
Q 304.17734375 386.7845703125 304.65 386.65 305.16953125 386.5193359375 305.4 386.05 305.684765625 385.62421875 305.55 385.1 305.4177734375 384.6306640625 304.95 384.35
L 302.35 382.85
Q 301.92265625 382.6154296875 301.4 382.75
M 295 381.5
L 297.6 383
Q 298.07734375 383.2845703125 298.55 383.15 299.06953125 383.0193359375 299.3 382.55 299.584765625 382.12421875 299.45 381.6 299.3177734375 381.1306640625 298.85 380.85
L 296.25 379.35
Q 295.82265625 379.1154296875 295.3 379.25 294.83046875 379.3806640625 294.55 379.8 294.3154296875 380.2755859375 294.45 380.75 294.5822265625 381.2693359375 295 381.5
M 282.25 373.75
Q 282.3822265625 374.2693359375 282.8 374.5
L 285.4 376
Q 285.87734375 376.2845703125 286.35 376.15 286.86953125 376.0193359375 287.1 375.55 287.384765625 375.12421875 287.25 374.6 287.1177734375 374.1306640625 286.65 373.85
L 284.05 372.35
Q 283.62265625 372.1154296875 283.1 372.25 282.63046875 372.3806640625 282.35 372.8 282.1154296875 373.2755859375 282.25 373.75
M 247.45 351.35
Q 247.02265625 351.1154296875 246.5 351.25 246.03046875 351.3806640625 245.75 351.8 245.5154296875 352.2755859375 245.65 352.75 245.7822265625 353.2693359375 246.2 353.5
L 248.8 355
Q 249.27734375 355.2845703125 249.75 355.15 250.26953125 355.0193359375 250.5 354.55 250.784765625 354.12421875 250.65 353.6 250.5177734375 353.1306640625 250.05 352.85
L 247.45 351.35
M 256.15 356.35
L 253.55 354.85
Q 253.12265625 354.6154296875 252.6 354.75 252.13046875 354.8806640625 251.85 355.3 251.6154296875 355.7755859375 251.75 356.25 251.8822265625 356.7693359375 252.3 357
L 254.9 358.5
Q 255.37734375 358.7845703125 255.85 358.65 256.36953125 358.5193359375 256.6 358.05 256.884765625 357.62421875 256.75 357.1 256.6177734375 356.6306640625 256.15 356.35
M 259.65 358.35
Q 259.22265625 358.1154296875 258.7 358.25 258.23046875 358.3806640625 257.95 358.8 257.7154296875 359.2755859375 257.85 359.75 257.9822265625 360.2693359375 258.4 360.5
L 261 362
Q 261.47734375 362.2845703125 261.95 362.15 262.46953125 362.0193359375 262.7 361.55 262.984765625 361.12421875 262.85 360.6 262.7177734375 360.1306640625 262.25 359.85
L 259.65 358.35
M 277.95 368.85
Q 277.52265625 368.6154296875 277 368.75 276.53046875 368.8806640625 276.25 369.3 276.0154296875 369.7755859375 276.15 370.25 276.2822265625 370.7693359375 276.7 371
L 279.3 372.5
Q 279.77734375 372.7845703125 280.25 372.65 280.76953125 372.5193359375 281 372.05 281.284765625 371.62421875 281.15 371.1 281.0177734375 370.6306640625 280.55 370.35
L 277.95 368.85
M 270.05 366.75
Q 270.1822265625 367.2693359375 270.6 367.5
L 273.2 369
Q 273.67734375 369.2845703125 274.15 369.15 274.66953125 369.0193359375 274.9 368.55 275.184765625 368.12421875 275.05 367.6 274.9177734375 367.1306640625 274.45 366.85
L 271.85 365.35
Q 271.42265625 365.1154296875 270.9 365.25 270.43046875 365.3806640625 270.15 365.8 269.9154296875 366.2755859375 270.05 366.75
M 268.95 364.1
Q 268.8177734375 363.6306640625 268.35 363.35
L 265.75 361.85
Q 265.32265625 361.6154296875 264.8 361.75 264.33046875 361.8806640625 264.05 362.3 263.8154296875 362.7755859375 263.95 363.25 264.0822265625 363.7693359375 264.5 364
L 267.1 365.5
Q 267.57734375 365.7845703125 268.05 365.65 268.56953125 365.5193359375 268.8 365.05 269.084765625 364.62421875 268.95 364.1
M 239.55 349.25
Q 239.6822265625 349.7693359375 240.1 350
L 242.7 351.5
Q 243.17734375 351.7845703125 243.65 351.65 244.16953125 351.5193359375 244.4 351.05 244.684765625 350.62421875 244.55 350.1 244.4177734375 349.6306640625 243.95 349.35
L 241.35 347.85
Q 240.92265625 347.6154296875 240.4 347.75 239.93046875 347.8806640625 239.65 348.3 239.4154296875 348.7755859375 239.55 349.25
M 233.55 344.8
Q 233.3154296875 345.2755859375 233.45 345.75 233.5822265625 346.2693359375 234 346.5
L 236.6 348
Q 237.07734375 348.2845703125 237.55 348.15 238.06953125 348.0193359375 238.3 347.55 238.584765625 347.12421875 238.45 346.6 238.3177734375 346.1306640625 237.85 345.85
L 235.25 344.35
Q 234.82265625 344.1154296875 234.3 344.25 233.83046875 344.3806640625 233.55 344.8
M 227.45 341.3
Q 227.2154296875 341.7755859375 227.35 342.25 227.4822265625 342.7693359375 227.9 343
L 230.5 344.5
Q 230.97734375 344.7845703125 231.45 344.65 231.96953125 344.5193359375 232.2 344.05 232.484765625 343.62421875 232.35 343.1 232.2177734375 342.6306640625 231.75 342.35
L 229.15 340.85
Q 228.72265625 340.6154296875 228.2 340.75 227.73046875 340.8806640625 227.45 341.3
M 221.25 338.75
Q 221.3822265625 339.2693359375 221.8 339.5
L 224.4 341
Q 224.87734375 341.2845703125 225.35 341.15 225.86953125 341.0193359375 226.1 340.55 226.384765625 340.12421875 226.25 339.6 226.1177734375 339.1306640625 225.65 338.85
L 223.05 337.35
Q 222.62265625 337.1154296875 222.1 337.25 221.63046875 337.3806640625 221.35 337.8 221.1154296875 338.2755859375 221.25 338.75
M 216.95 333.85
Q 216.52265625 333.6154296875 216 333.75 215.53046875 333.8806640625 215.25 334.3 215.0154296875 334.7755859375 215.15 335.25 215.2822265625 335.7693359375 215.7 336
L 218.3 337.5
Q 218.77734375 337.7845703125 219.25 337.65 219.76953125 337.5193359375 220 337.05 220.284765625 336.62421875 220.15 336.1 220.0177734375 335.6306640625 219.55 335.35
L 216.95 333.85
M 454.4 351.8
Q 454.16953125 351.3806640625 453.65 351.25 453.17734375 351.1154296875 452.7 351.35
L 450.1 352.85
Q 449.6822265625 353.1306640625 449.55 353.6 449.4154296875 354.12421875 449.65 354.55 449.93046875 355.0193359375 450.4 355.15 450.92265625 355.2845703125 451.35 355
L 453.95 353.5
Q 454.4177734375 353.2693359375 454.55 352.75 454.684765625 352.2755859375 454.4 351.8
M 459.75 347.75
Q 459.27734375 347.6154296875 458.8 347.85
L 456.2 349.35
Q 455.7822265625 349.6306640625 455.65 350.1 455.5154296875 350.62421875 455.75 351.05 456.03046875 351.5193359375 456.5 351.65 457.02265625 351.7845703125 457.45 351.5
L 460.05 350
Q 460.5177734375 349.7693359375 460.65 349.25 460.784765625 348.7755859375 460.5 348.3 460.26953125 347.8806640625 459.75 347.75
M 411.85 377.25
Q 411.984765625 376.7755859375 411.7 376.3 411.46953125 375.8806640625 410.95 375.75 410.47734375 375.6154296875 410 375.85
L 407.4 377.35
Q 406.9822265625 377.6306640625 406.85 378.1 406.7154296875 378.62421875 406.95 379.05 407.23046875 379.5193359375 407.7 379.65 408.22265625 379.7845703125 408.65 379.5
L 411.25 378
Q 411.7177734375 377.7693359375 411.85 377.25
M 417.05 372.25
Q 416.57734375 372.1154296875 416.1 372.35
L 413.5 373.85
Q 413.0822265625 374.1306640625 412.95 374.6 412.8154296875 375.12421875 413.05 375.55 413.33046875 376.0193359375 413.8 376.15 414.32265625 376.2845703125 414.75 376
L 417.35 374.5
Q 417.8177734375 374.2693359375 417.95 373.75 418.084765625 373.2755859375 417.8 372.8 417.56953125 372.3806640625 417.05 372.25
M 422.2 368.85
L 419.6 370.35
Q 419.1822265625 370.6306640625 419.05 371.1 418.9154296875 371.62421875 419.15 372.05 419.43046875 372.5193359375 419.9 372.65 420.42265625 372.7845703125 420.85 372.5
L 423.45 371
Q 423.9177734375 370.7693359375 424.05 370.25 424.184765625 369.7755859375 423.9 369.3 423.66953125 368.8806640625 423.15 368.75 422.67734375 368.6154296875 422.2 368.85
M 429.55 367.5
Q 430.0177734375 367.2693359375 430.15 366.75 430.284765625 366.2755859375 430 365.8 429.76953125 365.3806640625 429.25 365.25 428.77734375 365.1154296875 428.3 365.35
L 425.7 366.85
Q 425.2822265625 367.1306640625 425.15 367.6 425.0154296875 368.12421875 425.25 368.55 425.53046875 369.0193359375 426 369.15 426.52265625 369.2845703125 426.95 369
L 429.55 367.5
M 431.8 363.35
Q 431.3822265625 363.6306640625 431.25 364.1 431.1154296875 364.62421875 431.35 365.05 431.63046875 365.5193359375 432.1 365.65 432.62265625 365.7845703125 433.05 365.5
L 435.65 364
Q 436.1177734375 363.7693359375 436.25 363.25 436.384765625 362.7755859375 436.1 362.3 435.86953125 361.8806640625 435.35 361.75 434.87734375 361.6154296875 434.4 361.85
L 431.8 363.35
M 441.45 358.25
Q 440.97734375 358.1154296875 440.5 358.35
L 437.9 359.85
Q 437.4822265625 360.1306640625 437.35 360.6 437.2154296875 361.12421875 437.45 361.55 437.73046875 362.0193359375 438.2 362.15 438.72265625 362.2845703125 439.15 362
L 441.75 360.5
Q 442.2177734375 360.2693359375 442.35 359.75 442.484765625 359.2755859375 442.2 358.8 441.96953125 358.3806640625 441.45 358.25
M 444.3 358.65
Q 444.82265625 358.7845703125 445.25 358.5
L 447.85 357
Q 448.3177734375 356.7693359375 448.45 356.25 448.584765625 355.7755859375 448.3 355.3 448.06953125 354.8806640625 447.55 354.75 447.07734375 354.6154296875 446.6 354.85
L 444 356.35
Q 443.5822265625 356.6306640625 443.45 357.1 443.3154296875 357.62421875 443.55 358.05 443.83046875 358.5193359375 444.3 358.65
M 468.7 344.65
Q 469.22265625 344.7845703125 469.65 344.5
L 472.25 343
Q 472.7177734375 342.7693359375 472.85 342.25 472.984765625 341.7755859375 472.7 341.3 472.46953125 340.8806640625 471.95 340.75 471.47734375 340.6154296875 471 340.85
L 468.4 342.35
Q 467.9822265625 342.6306640625 467.85 343.1 467.7154296875 343.62421875 467.95 344.05 468.23046875 344.5193359375 468.7 344.65
M 474.5 338.85
Q 474.0822265625 339.1306640625 473.95 339.6 473.8154296875 340.12421875 474.05 340.55 474.33046875 341.0193359375 474.8 341.15 475.32265625 341.2845703125 475.75 341
L 478.35 339.5
Q 478.8177734375 339.2693359375 478.95 338.75 479.084765625 338.2755859375 478.8 337.8 478.56953125 337.3806640625 478.05 337.25 477.57734375 337.1154296875 477.1 337.35
L 474.5 338.85
M 484.15 333.75
Q 483.67734375 333.6154296875 483.2 333.85
L 480.6 335.35
Q 480.1822265625 335.6306640625 480.05 336.1 479.9154296875 336.62421875 480.15 337.05 480.43046875 337.5193359375 480.9 337.65 481.42265625 337.7845703125 481.85 337.5
L 484.45 336
Q 484.9177734375 335.7693359375 485.05 335.25 485.184765625 334.7755859375 484.9 334.3 484.66953125 333.8806640625 484.15 333.75
M 464.9 344.35
L 462.3 345.85
Q 461.8822265625 346.1306640625 461.75 346.6 461.6154296875 347.12421875 461.85 347.55 462.13046875 348.0193359375 462.6 348.15 463.12265625 348.2845703125 463.55 348
L 466.15 346.5
Q 466.6177734375 346.2693359375 466.75 345.75 466.884765625 345.2755859375 466.6 344.8 466.36953125 344.3806640625 465.85 344.25 465.37734375 344.1154296875 464.9 344.35
M 392.95 388.5
Q 393.4177734375 388.2693359375 393.55 387.75 393.684765625 387.2755859375 393.4 386.8 393.16953125 386.3806640625 392.65 386.25 392.17734375 386.1154296875 391.7 386.35
L 389.1 387.85
Q 388.6822265625 388.1306640625 388.55 388.6 388.4154296875 389.12421875 388.65 389.55 388.93046875 390.0193359375 389.4 390.15 389.92265625 390.2845703125 390.35 390
L 392.95 388.5
M 403.9 379.35
L 401.3 380.85
Q 400.8822265625 381.1306640625 400.75 381.6 400.6154296875 382.12421875 400.85 382.55 401.13046875 383.0193359375 401.6 383.15 402.12265625 383.2845703125 402.55 383
L 405.15 381.5
Q 405.6177734375 381.2693359375 405.75 380.75 405.884765625 380.2755859375 405.6 379.8 405.36953125 379.3806640625 404.85 379.25 404.37734375 379.1154296875 403.9 379.35
M 399.5 383.3
Q 399.26953125 382.8806640625 398.75 382.75 398.27734375 382.6154296875 397.8 382.85
L 395.2 384.35
Q 394.7822265625 384.6306640625 394.65 385.1 394.5154296875 385.62421875 394.75 386.05 395.03046875 386.5193359375 395.5 386.65 396.02265625 386.7845703125 396.45 386.5
L 399.05 385
Q 399.5177734375 384.7693359375 399.65 384.25 399.784765625 383.7755859375 399.5 383.3
M 382.6 393.05
Q 382.88046875 393.5193359375 383.35 393.65 383.87265625 393.7845703125 384.3 393.5
L 386.9 392
Q 387.3677734375 391.7693359375 387.5 391.25 387.634765625 390.7755859375 387.35 390.3 387.11953125 389.8806640625 386.6 389.75 386.12734375 389.6154296875 385.65 389.85
L 383.05 391.35
Q 382.6322265625 391.6306640625 382.5 392.1 382.3654296875 392.62421875 382.6 393.05
M 379.55 393.35
L 376.95 394.85
Q 376.5322265625 395.1306640625 376.4 395.6 376.2654296875 396.12421875 376.5 396.55 376.78046875 397.0193359375 377.25 397.15 377.77265625 397.2845703125 378.2 397
L 380.8 395.5
Q 381.2677734375 395.2693359375 381.4 394.75 381.534765625 394.2755859375 381.25 393.8 381.01953125 393.3806640625 380.5 393.25 380.02734375 393.1154296875 379.55 393.35
M 348.85 391.05
L 348.85 394.05
Q 348.8544921875 394.56328125 349.2 394.9 349.58671875 395.2955078125 350.1 395.3 350.61328125 395.2955078125 350.95 394.9 351.3455078125 394.56328125 351.35 394.05
L 351.35 391.05
Q 351.3455078125 390.53671875 350.95 390.15 350.61328125 389.8044921875 350.1 389.8 349.58671875 389.8044921875 349.2 390.15 348.8544921875 390.53671875 348.85 391.05
M 350.95 383.15
Q 350.61328125 382.8044921875 350.1 382.8 349.58671875 382.8044921875 349.2 383.15 348.8544921875 383.53671875 348.85 384.05
L 348.85 387.05
Q 348.8544921875 387.56328125 349.2 387.9 349.58671875 388.2955078125 350.1 388.3 350.61328125 388.2955078125 350.95 387.9 351.3455078125 387.56328125 351.35 387.05
L 351.35 384.05
Q 351.3455078125 383.53671875 350.95 383.15
M 351.35 377.05
Q 351.3455078125 376.53671875 350.95 376.15 350.61328125 375.8044921875 350.1 375.8 349.58671875 375.8044921875 349.2 376.15 348.8544921875 376.53671875 348.85 377.05
L 348.85 380.05
Q 348.8544921875 380.56328125 349.2 380.9 349.58671875 381.2955078125 350.1 381.3 350.61328125 381.2955078125 350.95 380.9 351.3455078125 380.56328125 351.35 380.05
L 351.35 377.05
M 349.2 369.15
Q 348.8544921875 369.53671875 348.85 370.05
L 348.85 373.05
Q 348.8544921875 373.56328125 349.2 373.9 349.58671875 374.2955078125 350.1 374.3 350.61328125 374.2955078125 350.95 373.9 351.3455078125 373.56328125 351.35 373.05
L 351.35 370.05
Q 351.3455078125 369.53671875 350.95 369.15 350.61328125 368.8044921875 350.1 368.8 349.58671875 368.8044921875 349.2 369.15
M 351.35 363.05
Q 351.3455078125 362.53671875 350.95 362.15 350.61328125 361.8044921875 350.1 361.8 349.58671875 361.8044921875 349.2 362.15 348.8544921875 362.53671875 348.85 363.05
L 348.85 366.05
Q 348.8544921875 366.56328125 349.2 366.9 349.58671875 367.2955078125 350.1 367.3 350.61328125 367.2955078125 350.95 366.9 351.3455078125 366.56328125 351.35 366.05
L 351.35 363.05
M 349.2 355.15
Q 348.8544921875 355.53671875 348.85 356.05
L 348.85 359.05
Q 348.8544921875 359.56328125 349.2 359.9 349.58671875 360.2955078125 350.1 360.3 350.61328125 360.2955078125 350.95 359.9 351.3455078125 359.56328125 351.35 359.05
L 351.35 356.05
Q 351.3455078125 355.53671875 350.95 355.15 350.61328125 354.8044921875 350.1 354.8 349.58671875 354.8044921875 349.2 355.15
M 351.35 352.05
L 351.35 349.05
Q 351.3455078125 348.53671875 350.95 348.15 350.61328125 347.8044921875 350.1 347.8 349.58671875 347.8044921875 349.2 348.15 348.8544921875 348.53671875 348.85 349.05
L 348.85 352.05
Q 348.8544921875 352.56328125 349.2 352.9 349.58671875 353.2955078125 350.1 353.3 350.61328125 353.2955078125 350.95 352.9 351.3455078125 352.56328125 351.35 352.05
M 348.85 342.05
L 348.85 345.05
Q 348.8544921875 345.56328125 349.2 345.9 349.58671875 346.2955078125 350.1 346.3 350.61328125 346.2955078125 350.95 345.9 351.3455078125 345.56328125 351.35 345.05
L 351.35 342.05
Q 351.3455078125 341.53671875 350.95 341.15 350.61328125 340.8044921875 350.1 340.8 349.58671875 340.8044921875 349.2 341.15 348.8544921875 341.53671875 348.85 342.05
M 350.95 338.9
Q 351.3455078125 338.56328125 351.35 338.05
L 351.35 335.05
Q 351.3455078125 334.53671875 350.95 334.15 350.61328125 333.8044921875 350.1 333.8 349.58671875 333.8044921875 349.2 334.15 348.8544921875 334.53671875 348.85 335.05
L 348.85 338.05
Q 348.8544921875 338.56328125 349.2 338.9 349.58671875 339.2955078125 350.1 339.3 350.61328125 339.2955078125 350.95 338.9
M 350.95 327.15
Q 350.61328125 326.8044921875 350.1 326.8 349.58671875 326.8044921875 349.2 327.15 348.8544921875 327.53671875 348.85 328.05
L 348.85 331.05
Q 348.8544921875 331.56328125 349.2 331.9 349.58671875 332.2955078125 350.1 332.3 350.61328125 332.2955078125 350.95 331.9 351.3455078125 331.56328125 351.35 331.05
L 351.35 328.05
Q 351.3455078125 327.53671875 350.95 327.15
M 349.2 320.15
Q 348.8544921875 320.53671875 348.85 321.05
L 348.85 324.05
Q 348.8544921875 324.56328125 349.2 324.9 349.58671875 325.2955078125 350.1 325.3 350.61328125 325.2955078125 350.95 324.9 351.3455078125 324.56328125 351.35 324.05
L 351.35 321.05
Q 351.3455078125 320.53671875 350.95 320.15 350.61328125 319.8044921875 350.1 319.8 349.58671875 319.8044921875 349.2 320.15
M 351.35 314.05
Q 351.3455078125 313.53671875 350.95 313.15 350.61328125 312.8044921875 350.1 312.8 349.58671875 312.8044921875 349.2 313.15 348.8544921875 313.53671875 348.85 314.05
L 348.85 317.05
Q 348.8544921875 317.56328125 349.2 317.9 349.58671875 318.2955078125 350.1 318.3 350.61328125 318.2955078125 350.95 317.9 351.3455078125 317.56328125 351.35 317.05
L 351.35 314.05
M 349.2 306.15
Q 348.8544921875 306.53671875 348.85 307.05
L 348.85 310.05
Q 348.8544921875 310.56328125 349.2 310.9 349.58671875 311.2955078125 350.1 311.3 350.61328125 311.2955078125 350.95 310.9 351.3455078125 310.56328125 351.35 310.05
L 351.35 307.05
Q 351.3455078125 306.53671875 350.95 306.15 350.61328125 305.8044921875 350.1 305.8 349.58671875 305.8044921875 349.2 306.15
M 351.35 303.05
L 351.35 300.05
Q 351.3455078125 299.53671875 350.95 299.15 350.61328125 298.8044921875 350.1 298.8 349.58671875 298.8044921875 349.2 299.15 348.8544921875 299.53671875 348.85 300.05
L 348.85 303.05
Q 348.8544921875 303.56328125 349.2 303.9 349.58671875 304.2955078125 350.1 304.3 350.61328125 304.2955078125 350.95 303.9 351.3455078125 303.56328125 351.35 303.05
M 348.85 296.05
Q 348.8544921875 296.56328125 349.2 296.9 349.58671875 297.2955078125 350.1 297.3 350.61328125 297.2955078125 350.95 296.9 351.3455078125 296.56328125 351.35 296.05
L 351.35 293.05
Q 351.3455078125 292.53671875 350.95 292.15 350.61328125 291.8044921875 350.1 291.8 349.58671875 291.8044921875 349.2 292.15 348.8544921875 292.53671875 348.85 293.05
L 348.85 296.05
M 350.95 289.9
Q 351.3455078125 289.56328125 351.35 289.05
L 351.35 286.05
Q 351.3455078125 285.53671875 350.95 285.15 350.61328125 284.8044921875 350.1 284.8 349.58671875 284.8044921875 349.2 285.15 348.8544921875 285.53671875 348.85 286.05
L 348.85 289.05
Q 348.8544921875 289.56328125 349.2 289.9 349.58671875 290.2955078125 350.1 290.3 350.61328125 290.2955078125 350.95 289.9
M 350.95 278.15
Q 350.61328125 277.8044921875 350.1 277.8 349.58671875 277.8044921875 349.2 278.15 348.8544921875 278.53671875 348.85 279.05
L 348.85 282.05
Q 348.8544921875 282.56328125 349.2 282.9 349.58671875 283.2955078125 350.1 283.3 350.61328125 283.2955078125 350.95 282.9 351.3455078125 282.56328125 351.35 282.05
L 351.35 279.05
Q 351.3455078125 278.53671875 350.95 278.15
M 349.2 271.15
Q 348.8544921875 271.53671875 348.85 272.05
L 348.85 275.05
Q 348.8544921875 275.56328125 349.2 275.9 349.58671875 276.2955078125 350.1 276.3 350.61328125 276.2955078125 350.95 275.9 351.3455078125 275.56328125 351.35 275.05
L 351.35 272.05
Q 351.3455078125 271.53671875 350.95 271.15 350.61328125 270.8044921875 350.1 270.8 349.58671875 270.8044921875 349.2 271.15
M 351.35 265.05
Q 351.3455078125 264.53671875 350.95 264.15 350.61328125 263.8044921875 350.1 263.8 349.58671875 263.8044921875 349.2 264.15 348.8544921875 264.53671875 348.85 265.05
L 348.85 268.05
Q 348.8544921875 268.56328125 349.2 268.9 349.58671875 269.2955078125 350.1 269.3 350.61328125 269.2955078125 350.95 268.9 351.3455078125 268.56328125 351.35 268.05
L 351.35 265.05
M 349.2 257.15
Q 348.8544921875 257.53671875 348.85 258.05
L 348.85 261.05
Q 348.8544921875 261.56328125 349.2 261.9 349.58671875 262.2955078125 350.1 262.3 350.61328125 262.2955078125 350.95 261.9 351.3455078125 261.56328125 351.35 261.05
L 351.35 258.05
Q 351.3455078125 257.53671875 350.95 257.15 350.61328125 256.8044921875 350.1 256.8 349.58671875 256.8044921875 349.2 257.15 Z"/>
</g>

<path id="Layer0_0_1_STROKES" stroke="#9585B8" stroke-width="3" stroke-linejoin="miter" stroke-linecap="butt" stroke-miterlimit="10" fill="none" d="
M 216.35 334.95
Q 226.3 318 241.15 303.15 286.3 258.05 350.1 258.05 413.9 258.05 459 303.15 473.9 318.05 483.85 334.95 504.15 369.35 504.15 412.1 504.15 454.95 483.8 489.35 473.85 506.2 459 521 413.9 566.15 350.1 566.15 286.3 566.15 241.15 521 226.35 506.2 216.4 489.35 196.05 454.95 196.05 412.1 196.05 369.3 216.35 334.95 Z"/>
</defs>

<g transform="matrix( 1, 0, 0, 1, 0,0) ">
<use xlink:href="#Layer0_0_FILL"/>

<use xlink:href="#Layer0_0_1_STROKES"/>

<use xlink:href="#Layer0_0_STROKES_1_FILL"/>
</g>
</svg>
