<?xml version="1.0" encoding="utf-8"?>
<!-- Generator: Adobe Illustrator 23.1.0, SVG Export Plug-In . SVG Version: 6.00 Build 0)  -->
<svg version="1.1" id="레이어_1" xmlns="http://www.w3.org/2000/svg" xmlns:xlink="http://www.w3.org/1999/xlink" x="0px"
	 y="0px" width="470px" height="100px" viewBox="0 0 470 100" style="enable-background:new 0 0 470 100;" xml:space="preserve">
<g>
	<path style="fill:#FFF87B;" d="M60.3,33.4v4.9h29.5c1.3,0,2.5,0.2,3.4,0.6c0.9,0.4,1.6,1,2.2,1.6c0.6,0.7,1,1.4,1.3,2.3
		c0.3,0.8,0.4,1.7,0.4,2.6c0,1.8-0.5,3.4-1.7,4.9c-1.1,1.5-2.9,2.2-5.5,2.2H10.6c-2.6,0-4.4-0.7-5.5-2.2c-1.1-1.5-1.7-3.1-1.7-4.9
		c0-0.9,0.1-1.7,0.4-2.6c0.3-0.8,0.7-1.6,1.3-2.3C5.6,40,6.4,39.4,7.3,39c0.9-0.4,2-0.6,3.3-0.6h29.5v-4.9H21.5
		c-2.5,0-4.7-0.2-6.5-0.6c-1.8-0.4-3.3-1.2-4.4-2.2c-1.1-1-1.9-2.3-2.4-4c-0.5-1.7-0.8-3.8-0.8-6.3v-6.7c0-1.7,0.3-3.1,0.8-4.3
		c0.6-1.2,1.3-2.3,2.3-3.1c1-0.8,2.1-1.4,3.4-1.8c1.3-0.4,2.6-0.6,3.9-0.6c2.7,0,5.1,0.8,7,2.4c2,1.6,3,4.1,3,7.4v3.3
		c0,1.1,0.2,1.7,0.5,2c0.3,0.3,1.1,0.4,2.2,0.4h54.6c3,0,5.1,0.7,6.3,2.1c1.2,1.4,1.8,3.1,1.8,5.1c0,2-0.6,3.6-1.8,4.9
		c-1.2,1.3-3.3,2-6.3,2H60.3z M18.8,96.9c-2.1,0-4-0.4-5.6-1.1c-1.6-0.7-2.9-1.6-3.9-2.8c-1-1.2-1.8-2.6-2.3-4.2
		c-0.5-1.6-0.8-3.2-0.8-4.9v-0.3c0-3.5,1-6.4,3-8.7c2-2.3,5.2-3.4,9.6-3.4h53.5v-2.1c0-1.1-0.7-1.6-2.1-1.6H12.9
		c-1.9,0-3.3-0.6-4.3-1.8c-1-1.2-1.4-2.5-1.4-3.8c0-1.3,0.4-2.6,1.4-3.9c0.9-1.2,2.3-1.8,4.3-1.8h68.8c4.3,0,7.2,0.8,8.8,2.3
		c1.6,1.6,2.4,3.9,2.4,7v16H29.6c-0.7,0-1.2,0.2-1.5,0.5c-0.3,0.4-0.4,0.8-0.4,1.4c0,0.5,0.1,1,0.4,1.3c0.3,0.3,0.8,0.5,1.5,0.5
		h60.7c1.9,0,3.3,0.6,4.2,1.8c0.8,1.2,1.3,2.5,1.3,3.9c0,1.2-0.4,2.5-1.2,3.8c-0.8,1.3-2.2,2-4.2,2H18.8z M106,31.7
		c0-4.4,0.7-8.3,2.1-11.6c1.4-3.4,3.4-6.2,5.9-8.5s5.5-4,9-5.2c3.5-1.2,7.3-1.8,11.5-1.8c4.2,0,8,0.6,11.5,1.8
		c3.5,1.2,6.5,2.9,9,5.2c2.5,2.3,4.5,5.1,5.9,8.5c1.4,3.4,2.1,7.3,2.1,11.7v36.2c0,4.4-0.7,8.3-2.1,11.7c-1.4,3.4-3.4,6.2-5.9,8.5
		s-5.5,4-9,5.2c-3.5,1.2-7.3,1.8-11.5,1.8c-4.2,0-8-0.6-11.5-1.8c-3.5-1.2-6.5-2.9-9-5.2c-2.5-2.3-4.5-5.1-5.9-8.5
		c-1.4-3.4-2.1-7.3-2.1-11.7V31.7z M125.8,68.3c0,3.4,0.8,6,2.4,7.6c1.6,1.7,3.7,2.6,6.2,2.6c2.5,0,4.5-0.9,6.2-2.6
		c1.7-1.7,2.5-4.3,2.5-7.6v-37c0-3.4-0.8-6-2.5-7.7c-1.7-1.7-3.7-2.6-6.2-2.5c-2.5,0.1-4.5,1-6.2,2.7c-1.6,1.7-2.4,4.2-2.4,7.5V68.3
		z M174.3,96.9v-84c0-3.3,1-5.7,3-7.4c2-1.7,4.3-2.5,7-2.5c2.7,0,5,0.8,7,2.5c2,1.7,3,4.1,3,7.4v84H174.3z"/>
	<path style="fill:#FFFFFF;" d="M273.8,52.1c2.1,0,3.6,0.5,4.5,1.6c0.9,1.1,1.3,2.3,1.3,3.6c0,1.5-0.5,2.7-1.4,3.7
		c-0.9,1-2.4,1.5-4.5,1.5h-65.2c-2.1,0-3.6-0.5-4.4-1.5c-0.9-1-1.3-2.3-1.3-3.7c0-1.4,0.4-2.6,1.3-3.6c0.9-1.1,2.3-1.6,4.4-1.6
		H273.8z M215.3,95.6c-3.4,0-5.9-0.9-7.6-2.8c-1.7-1.9-2.5-4.2-2.5-6.9v-0.5c0-2.8,0.8-5,2.5-6.5c1.7-1.6,4.2-2.3,7.7-2.3h44v-1.5
		c0-0.5-0.1-0.8-0.3-1c-0.2-0.2-0.6-0.2-1.2-0.2h-47.6c-1.4,0-2.5-0.5-3.2-1.4c-0.7-0.9-1.1-1.9-1.1-2.9c0-1,0.3-2,1-3
		c0.7-0.9,1.8-1.4,3.4-1.4h57.1c3.4,0,5.7,0.6,7,1.8c1.3,1.2,1.9,3,1.9,5.4V84h-52.1c-0.5,0-0.9,0.2-1.1,0.5
		c-0.2,0.3-0.3,0.6-0.3,0.9c0,0.9,0.5,1.3,1.5,1.3h50.2c1.5,0,2.6,0.5,3.2,1.4c0.6,1,0.9,2,0.9,3.1c0,0.9-0.3,1.9-0.9,2.9
		c-0.6,1-1.7,1.5-3.3,1.5H215.3z M215.9,49.7c-3.4,0-5.9-0.9-7.6-2.8c-1.7-1.9-2.5-4.2-2.5-6.9v-0.5c0-2.8,0.8-4.9,2.5-6.4
		c1.7-1.5,4.2-2.3,7.7-2.3h42.6v-1.4c0-0.5-0.1-0.8-0.3-1c-0.2-0.2-0.6-0.2-1.2-0.2h-46.3c-1.4,0-2.5-0.5-3.2-1.4
		c-0.7-0.9-1.1-1.9-1.1-3c0-1,0.3-2,1-3c0.7-1,1.8-1.4,3.4-1.4h55.8c3.4,0,5.7,0.6,7,1.8c1.3,1.2,1.9,3,1.9,5.4v11.6h-50.7
		c-0.5,0-0.9,0.1-1.1,0.4c-0.2,0.3-0.3,0.6-0.3,0.9c0,0.8,0.5,1.2,1.5,1.2H273c1.5,0,2.6,0.5,3.2,1.4c0.6,1,0.9,2,0.9,3.1
		c0,0.9-0.3,1.9-0.9,2.9c-0.6,1-1.7,1.5-3.3,1.5H215.9z M327.8,94.1c-2.5,0-4.9-0.4-7.1-1.1c-2.2-0.8-4.1-1.9-5.7-3.5
		c-1.6-1.6-2.9-3.6-3.8-6c-0.9-2.4-1.4-5.3-1.4-8.7v-28c0-2.7,0.4-5,1.1-7c-1.4-0.3-2.5-1.1-3.2-2.2c-0.7-1.1-1-2.4-1-3.9
		c0-1.7,0.5-3.2,1.4-4.4c0.9-1.2,2.4-1.8,4.4-1.8h7.7v-1.1c0-2.5,0.6-4.4,1.9-5.8c1.3-1.4,3.2-2.1,5.7-2.1c2.6,0,4.5,0.7,5.8,2.1
		c1.3,1.4,2,3.3,2,5.8v1.1h7.5c2,0,3.5,0.6,4.4,1.8c0.9,1.2,1.4,2.6,1.4,4.4c0,1.5-0.3,2.8-1,3.9c-0.7,1.1-1.7,1.8-3.2,2.2
		c0.3,1,0.6,2.1,0.8,3.3c0.2,1.1,0.3,2.4,0.3,3.7v28c0,3.3-0.5,6.2-1.4,8.7c-0.9,2.4-2.2,4.4-3.8,6c-1.6,1.6-3.5,2.8-5.7,3.5
		C332.7,93.7,330.3,94.1,327.8,94.1z M327.8,81.8c0.8,0,1.5-0.3,2.3-0.9c0.8-0.6,1.2-1.7,1.2-3.3V43.7c0-1.5-0.4-2.6-1.2-3.2
		c-0.8-0.6-1.6-0.9-2.3-0.9c-0.8,0-1.5,0.3-2.3,0.9c-0.8,0.6-1.2,1.7-1.2,3.2v33.9c0,1.6,0.4,2.7,1.2,3.3
		C326.3,81.5,327.1,81.8,327.8,81.8z M369.2,61.7h-3.9v33.9H351v-70c0-2.3,0.7-4,2.1-5.2c1.4-1.2,3-1.8,5-1.8c1.9,0,3.5,0.6,5,1.8
		c1.4,1.2,2.2,2.9,2.2,5.2v22.7h3.9V25.6c0-2.3,0.7-4,2.2-5.2c1.4-1.2,3.1-1.8,5-1.8c0.9,0,1.8,0.2,2.7,0.5c0.9,0.3,1.7,0.8,2.3,1.4
		c0.7,0.6,1.2,1.3,1.6,2.2c0.4,0.8,0.6,1.8,0.6,3v70h-14.5V61.7z M404.7,80.8v-7.5c0-1.3,0.2-2.4,0.7-3.3c0.4-0.9,1-1.6,1.8-2.2
		c0.7-0.5,1.6-0.9,2.6-1.1c1-0.2,2-0.3,3.1-0.3c1,0,2,0.1,3,0.4s1.9,0.6,2.6,1.1c0.8,0.5,1.4,1.2,1.8,2.1c0.4,0.9,0.7,2,0.7,3.3v7.5
		h14.6v-7.5c0-1.3,0.2-2.4,0.7-3.3c0.4-0.9,1-1.6,1.8-2.2c0.7-0.5,1.6-0.9,2.6-1.1c1-0.2,2-0.3,3.1-0.3c1,0,2,0.1,3,0.4
		s1.9,0.6,2.6,1.1c0.8,0.5,1.4,1.2,1.8,2.1c0.4,0.9,0.7,2,0.7,3.3v7.5h8c2.5,0,4.3,0.7,5.3,2.1c1,1.4,1.6,2.9,1.6,4.5
		c0,1.7-0.5,3.2-1.6,4.6c-1.1,1.3-2.8,2-5.3,2h-63c-2.5,0-4.2-0.7-5.3-2c-1.1-1.3-1.6-2.9-1.6-4.6c0-1.6,0.5-3.1,1.6-4.5
		c1-1.4,2.8-2.1,5.3-2.1H404.7z M392.1,41.7c0-2.8,0.5-5.5,1.4-8c0.9-2.6,2.3-4.8,4.1-6.7c1.8-1.9,4-3.4,6.7-4.6
		c2.7-1.1,5.7-1.7,9.1-1.7H443c3.4,0,6.5,0.6,9.1,1.7c2.7,1.1,4.9,2.7,6.7,4.6c1.8,1.9,3.2,4.2,4.1,6.7c0.9,2.6,1.4,5.2,1.4,8v1
		c0,2.8-0.5,5.5-1.4,8c-0.9,2.5-2.3,4.8-4.1,6.7c-1.8,1.9-4,3.5-6.7,4.6c-2.7,1.1-5.7,1.7-9.1,1.7h-29.5c-3.4,0-6.5-0.6-9.1-1.7
		c-2.7-1.1-4.9-2.7-6.7-4.6c-1.8-1.9-3.2-4.2-4.1-6.7c-0.9-2.5-1.4-5.2-1.4-8V41.7z M447.2,41.5c0-2.2-0.8-4-2.3-5.4
		c-1.6-1.4-3.7-2.1-6.4-2.1h-20.5c-2.7,0-4.9,0.7-6.4,2.1c-1.6,1.4-2.3,3.2-2.3,5.4v1.3c0,2.2,0.8,4,2.3,5.4
		c1.6,1.4,3.7,2.1,6.4,2.1h20.5c2.7,0,4.9-0.7,6.4-2.1c1.6-1.4,2.3-3.2,2.3-5.4V41.5z"/>
</g>
<g>
</g>
<g>
</g>
<g>
</g>
<g>
</g>
<g>
</g>
<g>
</g>
<g>
</g>
<g>
</g>
<g>
</g>
<g>
</g>
<g>
</g>
<g>
</g>
<g>
</g>
<g>
</g>
<g>
</g>
</svg>
