<svg xmlns="http://www.w3.org/2000/svg" viewBox="0 0 56.061 47.747"><defs><style>.cls-1{fill:#a872c1;}.cls-2{fill:#fff;}</style></defs><g id="레이어_2" data-name="레이어 2"><g id="레이어_2-2" data-name="레이어 2"><path class="cls-1" d="M44.71,12.017c2.543,5.008,7.218,8.438,10.293,10.27.127.075.254.146.37.217a1.706,1.706,0,0,1,0,2.738c-.12.067-.243.142-.37.217-3.071,1.833-7.746,5.263-10.293,10.271C40.659,43.7,31.653,47.747,24.21,47.747A24.215,24.215,0,0,1,0,23.873v0A24.209,24.209,0,0,1,24.21,0c7.443,0,16.449,4.043,20.5,12.017"/><path class="cls-2" d="M17.017,12.582A5.474,5.474,0,0,1,22,15.073q1.584,2.49,1.583,7.3T22,29.682a5.473,5.473,0,0,1-4.981,2.49,5.473,5.473,0,0,1-4.982-2.49q-1.584-2.491-1.583-7.3t1.583-7.3A5.473,5.473,0,0,1,17.017,12.582Zm0,2.962a2.784,2.784,0,0,0-2.739,1.733,12.779,12.779,0,0,0-.792,5.1,12.773,12.773,0,0,0,.792,5.1,2.784,2.784,0,0,0,2.739,1.734,2.783,2.783,0,0,0,2.738-1.734,12.775,12.775,0,0,0,.791-5.1,12.782,12.782,0,0,0-.791-5.1A2.784,2.784,0,0,0,17.017,15.544Zm11.677-4.612a1.834,1.834,0,0,1,1.039.32,1.111,1.111,0,0,1,.479.993V36.953a1.109,1.109,0,0,1-.479.992,1.847,1.847,0,0,1-2.078,0,1.109,1.109,0,0,1-.478-.992V27.426H21.6V24.6h5.575V20.155H21.6V17.328h5.575V12.245a1.111,1.111,0,0,1,.478-.993A1.834,1.834,0,0,1,28.694,10.932ZM34.5,10.6a1.887,1.887,0,0,1,1.072.32,1.11,1.11,0,0,1,.479.993V38.366a1.11,1.11,0,0,1-.479.993,1.887,1.887,0,0,1-1.072.32,1.832,1.832,0,0,1-1.039-.32,1.11,1.11,0,0,1-.479-.993V11.909a1.11,1.11,0,0,1,.479-.993A1.832,1.832,0,0,1,34.5,10.6Z"/></g></g></svg>