<svg xmlns="http://www.w3.org/2000/svg" viewBox="0 0 204.09 113.89"><defs><style>.cls-1{fill:#efe9d6;}.cls-2{fill:#f6f3e7;}.cls-3,.cls-4,.cls-5{fill:none;}.cls-3,.cls-4{stroke:#595757;stroke-linecap:round;stroke-linejoin:round;stroke-width:0.3px;}.cls-3{stroke-dasharray:0 0.6;}.cls-5{stroke:#d0c395;stroke-miterlimit:10;}.cls-6{fill:#231815;}</style></defs><title>자산 1</title><g id="레이어_2" data-name="레이어 2"><g id="레이어_1-2" data-name="레이어 1"><path class="cls-1" d="M4.25,0S0,0,0,4.25V17.58s0,4.25,4.25,4.25H51.59s4.25,0,4.25-4.25V4.25S55.84,0,51.59,0Z"/><path class="cls-1" d="M61.8,0s-4.26,0-4.26,4.25V17.58s0,4.25,4.26,4.25h138s4.25,0,4.25-4.25V4.25s0-4.25-4.25-4.25Z"/><path class="cls-2" d="M4.25,23.53S0,23.53,0,27.78V40.25S0,44.5,4.25,44.5H51.59s4.25,0,4.25-4.25V27.78s0-4.25-4.25-4.25Z"/><path class="cls-2" d="M4.25,46.2S0,46.2,0,50.46V62.93s0,4.25,4.25,4.25H51.59s4.25,0,4.25-4.25V50.46s0-4.26-4.25-4.26Z"/><path class="cls-2" d="M4.25,68.88S0,68.88,0,73.13V85.61s0,4.25,4.25,4.25H51.59s4.25,0,4.25-4.25V73.13s0-4.25-4.25-4.25Z"/><path class="cls-2" d="M4.25,91.56S0,91.56,0,95.81v13.82s0,4.25,4.25,4.25H51.59s4.25,0,4.25-4.25V95.81s0-4.25-4.25-4.25Z"/><line class="cls-3" x1="57.44" y1="45.35" x2="203.64" y2="45.35"/><path class="cls-4" d="M203.94,45.35h0m-147.1,0h0"/><line class="cls-3" x1="57.44" y1="68.03" x2="203.64" y2="68.03"/><path class="cls-4" d="M203.94,68h0M56.84,68h0"/><line class="cls-3" x1="57.44" y1="90.71" x2="203.64" y2="90.71"/><path class="cls-4" d="M203.94,90.71h0m-147.1,0h0"/><line class="cls-5" x1="56.69" y1="113.39" x2="204.09" y2="113.39"/><path class="cls-6" d="M29.43,12.59c0,.28-.14.54-.45.54H24.9V15c0,.34-.28.5-.63.5s-.62-.16-.62-.5V13.13H19.28c-.3,0-.44-.26-.44-.54S19,12,19.28,12H29C29.29,12,29.43,12.29,29.43,12.59ZM24.77,6.78v.53c0,.8.43,1.29,1.3,1.7s1.49.69,2.21,1a.55.55,0,0,1,.2.73.54.54,0,0,1-.72.33c-.63-.28-1.35-.6-2-.93-1.16-.56-1.53-1-1.6-1.26h0c-.09.35-.45.73-1.61,1.29-.67.32-1.39.65-2,.92a.52.52,0,0,1-.71-.32A.57.57,0,0,1,20,10c.71-.31,1.38-.61,2.2-1s1.3-.9,1.3-1.7V6.78c0-.39.3-.56.64-.56S24.77,6.39,24.77,6.78Zm-3.23,8V16.5c0,.19.07.27.26.27h6c.3,0,.44.25.44.55s-.14.56-.44.56H21.23c-.73,0-.95-.24-.95-1V14.73c0-.38.3-.54.63-.54S21.54,14.35,21.54,14.73Z"/><path class="cls-6" d="M34.17,7.15v2a3.28,3.28,0,0,0,1,2.55c.5.55,1,1.07,1.45,1.48a.57.57,0,0,1,0,.8.54.54,0,0,1-.77.07c-.39-.37-.82-.81-1.3-1.33-.73-.79-.91-1.1-1-1.38h0c-.07.3-.24.62-1,1.41-.48.52-.92,1-1.47,1.48a.53.53,0,0,1-.79-.1.58.58,0,0,1,0-.81q.84-.79,1.59-1.62a3.32,3.32,0,0,0,1-2.55v-2c0-.37.3-.54.63-.54S34.17,6.78,34.17,7.15Zm5.36-.61V16.68a.56.56,0,0,1-.63.55.55.55,0,0,1-.62-.55V10.6H36.36c-.31,0-.45-.25-.45-.55s.14-.56.45-.56h1.92V6.54A.55.55,0,0,1,38.9,6C39.22,6,39.53,6.16,39.53,6.54Z"/><path class="cls-6" d="M121.14,9.65v1.71h5c.3,0,.44.25.44.54s-.14.56-.44.56h-9.71c-.3,0-.44-.26-.44-.56s.14-.54.44-.54h3.44V9.65a.55.55,0,0,1,.62-.53C120.84,9.12,121.14,9.28,121.14,9.65Zm3-3.17c.73,0,1,.23,1,1v.83a6.58,6.58,0,0,1-.24,1.89.6.6,0,0,1-.77.4.51.51,0,0,1-.44-.66,6.78,6.78,0,0,0,.19-1.67V7.87c0-.2-.08-.26-.27-.26h-5.87c-.3,0-.43-.26-.43-.56s.13-.57.43-.57Zm-5.51,7.41v.85h5.27v-.85a.55.55,0,0,1,.6-.54.56.56,0,0,1,.63.54V17c0,.74-.24,1-1,1h-5.79c-.74,0-1-.23-1-1V13.89a.55.55,0,0,1,.6-.54A.55.55,0,0,1,118.67,13.89Zm0,2.79c0,.14.06.21.2.21h4.87c.14,0,.2-.07.2-.21v-.9h-5.27Z"/><path class="cls-6" d="M130.62,7V8.18a2.36,2.36,0,0,0,.67,1.9c.49.49.9.87,1.26,1.18a.61.61,0,0,1,0,.82.55.55,0,0,1-.79.08c-.33-.29-.62-.56-1-1s-.7-.8-.75-1h0c-.05.29-.18.55-.75,1.1s-.82.77-1.26,1.14a.52.52,0,0,1-.77-.1.58.58,0,0,1,0-.81c.49-.42,1-.88,1.48-1.37a2.38,2.38,0,0,0,.66-1.9V7a.57.57,0,0,1,.63-.55A.56.56,0,0,1,130.62,7Zm5.4,6.32c.73,0,1,.23,1,1v2.64c0,.74-.24,1-1,1h-5.74c-.73,0-1-.24-1-1V14.3c0-.74.24-1,1-1Zm-5.46,1.36v1.86c0,.2.08.27.27.27h4.65c.19,0,.26-.07.26-.27V14.69c0-.19-.07-.27-.26-.27h-4.65C130.64,14.42,130.56,14.5,130.56,14.69Zm4.16-8.12V12.2a.59.59,0,0,1-1.17,0V9.49h-1.26c-.3,0-.44-.26-.44-.56s.14-.56.44-.56h1.26V6.57a.59.59,0,0,1,1.17,0ZM137,6.5v5.76a.59.59,0,0,1-1.17,0V6.5a.52.52,0,0,1,.58-.5C136.7,6,137,6.15,137,6.5Z"/><path class="cls-6" d="M142.58,6.93V8.11a2.33,2.33,0,0,0,.84,1.93c.6.51,1.12.92,1.54,1.23a.55.55,0,0,1,.09.8.53.53,0,0,1-.77.15c-.34-.24-.86-.65-1.39-1.1S142,10.27,142,10h0c-.06.3-.34.66-1,1.17s-1.05.87-1.58,1.26a.55.55,0,0,1-.78-.16.59.59,0,0,1,.1-.83c.6-.44,1.13-.86,1.72-1.36a2.33,2.33,0,0,0,.84-1.93V6.93c0-.38.32-.54.65-.54S142.58,6.55,142.58,6.93Zm4.18,6.66c.73,0,1,.23,1,1v3a.64.64,0,0,1-1.26,0V15c0-.2-.07-.26-.26-.26H140.6c-.32,0-.45-.26-.45-.56s.13-.56.45-.56Zm1-7v5.94a.64.64,0,0,1-1.26,0V6.54c0-.38.3-.54.63-.54S147.73,6.16,147.73,6.54Z"/><path class="cls-6" d="M23.52,29.47v.89h1.93c.28,0,.41.24.41.52s-.13.5-.41.5H23.52V32a1.68,1.68,0,0,0,.73,1.53c.55.42,1,.75,1.37,1a.5.5,0,0,1,.13.73.49.49,0,0,1-.71.15c-.27-.16-.72-.49-1.2-.85s-.84-.73-.88-1h0c-.06.28-.31.58-.92,1s-1,.7-1.41,1a.5.5,0,0,1-.69-.18.53.53,0,0,1,.12-.75c.51-.34,1-.69,1.57-1.11A1.72,1.72,0,0,0,22.35,32v-.62h-2c-.29,0-.42-.23-.42-.5s.13-.52.42-.52h2v-.89a.52.52,0,0,1,.58-.5C23.24,29,23.52,29.12,23.52,29.47Zm2.06,6.83v.22a1.56,1.56,0,0,0,1,1.55c.67.36,1.33.67,2,1a.49.49,0,0,1,.18.66.5.5,0,0,1-.66.28c-.66-.28-1.24-.58-1.82-.89-.91-.5-1.23-.82-1.31-1.13h0c-.09.32-.42.66-1.33,1.15-.58.31-1.15.61-1.82.9a.5.5,0,0,1-.66-.29.51.51,0,0,1,.17-.68c.73-.33,1.38-.64,2-1a1.56,1.56,0,0,0,1-1.55V36.3c0-.34.28-.5.59-.5A.52.52,0,0,1,25.58,36.3Zm2.84-6.71v6.29a.58.58,0,0,1-1.15,0V33.3H25.62c-.28,0-.4-.24-.4-.52s.12-.51.4-.51h1.65V29.59c0-.35.28-.5.58-.5A.51.51,0,0,1,28.42,29.59Z"/><path class="cls-6" d="M35.63,30.56c0,.28-.12.51-.4.51h-.71v1.11a4.17,4.17,0,0,0,.38,2.15c.25.48.52,1,.77,1.39a.5.5,0,0,1-.14.68.45.45,0,0,1-.65-.12c-.21-.33-.37-.64-.58-1a2.43,2.43,0,0,1-.31-.82h0a2.7,2.7,0,0,1-.31.87c-.17.33-.34.67-.56,1a.4.4,0,0,1-.75,0,10.17,10.17,0,0,1-.54-1,2.6,2.6,0,0,1-.33-.87h0a2.68,2.68,0,0,1-.3.84c-.21.38-.39.7-.63,1.08a.43.43,0,0,1-.65.11.5.5,0,0,1-.15-.68c.27-.44.58-1,.82-1.45A4.13,4.13,0,0,0,31,32.18V31.07h-.68c-.29,0-.42-.23-.42-.51s.13-.51.42-.51h5C35.51,30.05,35.63,30.29,35.63,30.56ZM32.22,34c.13.32.24.58.39.87s.15.22.27,0,.25-.55.38-.87a5.26,5.26,0,0,0,.21-1.83V31.07H32v1.11A5.21,5.21,0,0,0,32.22,34Zm6.9-4.47V39c0,.31-.25.45-.53.45a.45.45,0,0,1-.51-.45V33.79h-1v4.7a.47.47,0,0,1-.52.46.46.46,0,0,1-.52-.46V29.66c0-.31.24-.45.52-.45a.46.46,0,0,1,.52.45v3.11h1V29.54a.45.45,0,0,1,.51-.45C38.87,29.09,39.12,29.23,39.12,29.54Z"/><path class="cls-6" d="M102.57,32.15v.32c0,3.5-1.19,4.42-3.06,4.42a3.56,3.56,0,0,1-1.74-.39.47.47,0,0,1-.21-.66.44.44,0,0,1,.65-.24,3.17,3.17,0,0,0,1.36.29c1.22,0,1.83-.72,1.91-2.72a2.29,2.29,0,0,1-1.92.91,2.32,2.32,0,0,1-2.47-2.5v-.19a2.5,2.5,0,0,1,2.71-2.56C101.62,28.83,102.57,30,102.57,32.15Zm-4.39-.72v.08a1.42,1.42,0,0,0,1.6,1.6,1.49,1.49,0,0,0,1.65-1.53v-.09a1.5,1.5,0,0,0-1.6-1.66A1.48,1.48,0,0,0,98.18,31.43Z"/><path class="cls-6" d="M109.27,32.15v.32c0,3.5-1.18,4.42-3,4.42a3.56,3.56,0,0,1-1.74-.39.47.47,0,0,1-.21-.66.44.44,0,0,1,.65-.24,3.17,3.17,0,0,0,1.36.29c1.22,0,1.83-.72,1.91-2.72a2.29,2.29,0,0,1-1.92.91,2.32,2.32,0,0,1-2.47-2.5v-.19a2.5,2.5,0,0,1,2.71-2.56C108.33,28.83,109.27,30,109.27,32.15Zm-4.38-.72v.08a1.42,1.42,0,0,0,1.6,1.6,1.49,1.49,0,0,0,1.65-1.53v-.09a1.5,1.5,0,0,0-1.6-1.66A1.48,1.48,0,0,0,104.89,31.43Z"/><path class="cls-6" d="M116.32,31a.39.39,0,0,1,.07.58l-1.75,1.85,1.74,1.84a.46.46,0,0,1-.65.63L114,34l-1.7,1.81a.4.4,0,0,1-.58,0,.4.4,0,0,1-.08-.59l1.73-1.84-1.73-1.85a.39.39,0,0,1,.07-.58.38.38,0,0,1,.58,0l1.71,1.8,1.69-1.8A.39.39,0,0,1,116.32,31Z"/><path class="cls-6" d="M123.61,29.37v7c0,.31-.25.46-.55.46s-.55-.15-.55-.46V30.19l-1.65,1a.51.51,0,0,1-.7-.22.49.49,0,0,1,.17-.68l2-1.17a1.5,1.5,0,0,1,.74-.25C123.37,28.89,123.61,29,123.61,29.37Z"/><path class="cls-6" d="M131.42,30.81v.11a3.18,3.18,0,0,1-1.09,2.27l-2.53,2.66h3.59c.26,0,.38.21.38.46s-.12.46-.38.46h-4.24c-.57,0-.8-.18-.8-.59,0-.19.1-.34.33-.6l2.68-2.83c.78-.82,1-1.24,1-1.82v-.05c0-.64-.45-1.06-1.33-1.06a1.81,1.81,0,0,0-1.6.88.46.46,0,0,1-.66.1.47.47,0,0,1-.15-.68A2.72,2.72,0,0,1,129,28.83C130.63,28.83,131.42,29.72,131.42,30.81Z"/><path class="cls-6" d="M139.11,32.21c0,.25-.12.46-.38.46H134.3c-.26,0-.39-.21-.39-.46s.13-.45.39-.45h4.43C139,31.76,139.11,32,139.11,32.21Zm0,2.33c0,.24-.12.45-.38.45H134.3a.4.4,0,0,1-.39-.45c0-.25.13-.46.39-.46h4.43C139,34.08,139.11,34.29,139.11,34.54Z"/><path class="cls-6" d="M146.05,29.37v7c0,.31-.26.46-.55.46s-.55-.15-.55-.46V30.19l-1.65,1a.51.51,0,0,1-.7-.22.49.49,0,0,1,.17-.68l2-1.17a1.5,1.5,0,0,1,.74-.25C145.81,28.89,146.05,29,146.05,29.37Z"/><path class="cls-6" d="M152.76,29.37v7c0,.31-.26.46-.55.46s-.55-.15-.55-.46V30.19l-1.65,1a.51.51,0,0,1-.7-.22.49.49,0,0,1,.17-.68l2-1.17a1.5,1.5,0,0,1,.74-.25C152.52,28.89,152.76,29,152.76,29.37Z"/><path class="cls-6" d="M160.61,30.93V31a2,2,0,0,1-1.16,1.73,1.9,1.9,0,0,1,1.39,1.82v.14c0,1.26-1,2.17-2.65,2.17s-2.69-.91-2.69-2.17v-.14a1.91,1.91,0,0,1,1.39-1.82A2,2,0,0,1,155.72,31v-.1a2.16,2.16,0,0,1,2.44-2.1A2.19,2.19,0,0,1,160.61,30.93Zm-4,3.66v.07c0,.75.6,1.27,1.56,1.27s1.54-.52,1.54-1.27v-.07c0-.87-.67-1.33-1.54-1.33S156.62,33.7,156.62,34.59Zm.21-3.59v.06a1.24,1.24,0,0,0,1.35,1.23,1.21,1.21,0,0,0,1.33-1.23V31a1.35,1.35,0,0,0-2.68,0Z"/><path class="cls-6" d="M167.32,30.93V31a2,2,0,0,1-1.16,1.73,1.9,1.9,0,0,1,1.39,1.82v.14c0,1.26-1,2.17-2.65,2.17s-2.69-.91-2.69-2.17v-.14a1.91,1.91,0,0,1,1.39-1.82A2,2,0,0,1,162.43,31v-.1a2.16,2.16,0,0,1,2.44-2.1A2.19,2.19,0,0,1,167.32,30.93Zm-4,3.66v.07c0,.75.6,1.27,1.56,1.27s1.54-.52,1.54-1.27v-.07c0-.87-.67-1.33-1.54-1.33S163.33,33.7,163.33,34.59Zm.21-3.59v.06a1.24,1.24,0,0,0,1.35,1.23,1.21,1.21,0,0,0,1.33-1.23V31a1.35,1.35,0,0,0-2.68,0Z"/><path class="cls-6" d="M28,59.3v.89c0,.68-.22.89-.89.89H22.2c-.13,0-.18.05-.18.18v.5c0,.12.05.18.18.18h5.69a.41.41,0,0,1,.39.46c0,.26-.13.47-.39.47H21.78c-.67,0-.89-.21-.89-.9v-.89c0-.68.22-.89.89-.89h4.93c.13,0,.18-.06.18-.18v-.48c0-.14-.05-.2-.18-.2H21.23c-.25,0-.37-.21-.37-.46s.12-.47.37-.47h2.66v-1H20c-.27,0-.4-.21-.4-.49s.13-.48.4-.48h9c.27,0,.4.22.4.48s-.13.49-.4.49H25v1h2.1C27.8,58.4,28,58.61,28,59.3ZM28,52.51c0,.28-.12.49-.38.49H22.33c-.18,0-.24.06-.24.25v1.09c0,.2.06.26.24.26H27.7c.25,0,.38.21.38.48s-.13.5-.38.5H21.81c-.68,0-.89-.22-.89-.9V52.92c0-.69.21-.9.89-.9h5.77C27.84,52,28,52.25,28,52.51Z"/><path class="cls-6" d="M35.63,53.24c0,.28-.12.5-.4.5h-.71v1.12A4.19,4.19,0,0,0,34.9,57c.25.48.52,1,.77,1.39a.5.5,0,0,1-.14.68.45.45,0,0,1-.65-.12c-.21-.33-.37-.65-.58-1A2.47,2.47,0,0,1,34,57.1h0a2.82,2.82,0,0,1-.31.88c-.17.32-.34.67-.56,1a.41.41,0,0,1-.75,0,11.38,11.38,0,0,1-.54-1,2.71,2.71,0,0,1-.33-.88h0a2.6,2.6,0,0,1-.3.84c-.21.39-.39.71-.63,1.08a.43.43,0,0,1-.65.12.5.5,0,0,1-.15-.68c.27-.45.58-1,.82-1.45A4.15,4.15,0,0,0,31,54.86V53.74h-.68c-.29,0-.42-.22-.42-.5s.13-.51.42-.51h5C35.51,52.73,35.63,53,35.63,53.24Zm-3.41,3.44a9,9,0,0,0,.39.88c.1.21.15.21.27,0s.25-.55.38-.88a5.16,5.16,0,0,0,.21-1.82V53.74H32v1.12A5.11,5.11,0,0,0,32.22,56.68Zm6.9-4.46v9.45a.47.47,0,0,1-.53.46.46.46,0,0,1-.51-.46v-5.2h-1v4.7a.46.46,0,0,1-.52.45c-.28,0-.52-.14-.52-.45V52.34c0-.31.24-.45.52-.45a.46.46,0,0,1,.52.45v3.11h1V52.22a.45.45,0,0,1,.51-.45C38.87,51.77,39.12,51.91,39.12,52.22Z"/><path class="cls-6" d="M102.57,54.83v.32c0,3.5-1.19,4.42-3.06,4.42a3.44,3.44,0,0,1-1.74-.4.47.47,0,0,1-.21-.66.46.46,0,0,1,.65-.24,3,3,0,0,0,1.36.3c1.22,0,1.83-.73,1.91-2.72a2.48,2.48,0,0,1-4.39-1.59v-.19a2.5,2.5,0,0,1,2.71-2.56C101.62,51.51,102.57,52.68,102.57,54.83Zm-4.39-.73v.09a1.42,1.42,0,0,0,1.6,1.6,1.5,1.5,0,0,0,1.65-1.53v-.09a1.5,1.5,0,0,0-1.6-1.66A1.47,1.47,0,0,0,98.18,54.1Z"/><path class="cls-6" d="M109.27,54.83v.32c0,3.5-1.18,4.42-3,4.42a3.44,3.44,0,0,1-1.74-.4.47.47,0,0,1-.21-.66.46.46,0,0,1,.65-.24,3,3,0,0,0,1.36.3c1.22,0,1.83-.73,1.91-2.72a2.48,2.48,0,0,1-4.39-1.59v-.19a2.5,2.5,0,0,1,2.71-2.56C108.33,51.51,109.27,52.68,109.27,54.83Zm-4.38-.73v.09a1.42,1.42,0,0,0,1.6,1.6,1.5,1.5,0,0,0,1.65-1.53v-.09a1.5,1.5,0,0,0-1.6-1.66A1.47,1.47,0,0,0,104.89,54.1Z"/><path class="cls-6" d="M116.32,53.63a.39.39,0,0,1,.07.58l-1.75,1.85,1.74,1.84a.41.41,0,0,1-.06.59.4.4,0,0,1-.59,0L114,56.72l-1.7,1.8a.39.39,0,0,1-.58,0,.4.4,0,0,1-.08-.59l1.73-1.84-1.73-1.85a.39.39,0,0,1,.07-.58.37.37,0,0,1,.58,0L114,55.4l1.69-1.8A.38.38,0,0,1,116.32,53.63Z"/><path class="cls-6" d="M124.71,53.49v.11a3.16,3.16,0,0,1-1.09,2.26l-2.53,2.66h3.59c.26,0,.38.21.38.47s-.12.46-.38.46h-4.24c-.57,0-.8-.19-.8-.6,0-.18.1-.34.33-.59l2.68-2.84c.78-.81,1-1.23,1-1.81v-.06c0-.64-.45-1-1.33-1a1.79,1.79,0,0,0-1.6.88.45.45,0,0,1-.66.09.47.47,0,0,1-.15-.68,2.73,2.73,0,0,1,2.39-1.28C123.92,51.51,124.71,52.4,124.71,53.49Z"/><path class="cls-6" d="M131.34,53.5v0A1.88,1.88,0,0,1,130,55.38a1.77,1.77,0,0,1,1.68,1.79v.11c0,1.21-.91,2.29-2.77,2.29a4,4,0,0,1-2.26-.64.5.5,0,0,1-.15-.72.45.45,0,0,1,.68-.17,2.87,2.87,0,0,0,1.67.54c1.25,0,1.72-.63,1.72-1.33v-.09c0-1-.75-1.28-1.74-1.28h-.63c-.27,0-.39-.22-.39-.48s.12-.47.39-.47h.54c.89,0,1.54-.4,1.54-1.3v0c0-.67-.47-1.13-1.44-1.13a1.81,1.81,0,0,0-1.42.65.44.44,0,0,1-.67,0,.49.49,0,0,1,0-.67,2.64,2.64,0,0,1,2.09-.91C130.49,51.51,131.34,52.4,131.34,53.5Z"/><path class="cls-6" d="M139.11,54.88c0,.26-.12.47-.38.47H134.3c-.26,0-.39-.21-.39-.47a.4.4,0,0,1,.39-.45h4.43C139,54.43,139.11,54.64,139.11,54.88Zm0,2.34c0,.24-.12.45-.38.45H134.3a.4.4,0,0,1-.39-.45c0-.26.13-.47.39-.47h4.43C139,56.75,139.11,57,139.11,57.22Z"/><path class="cls-6" d="M147.15,53.49v.11a3.16,3.16,0,0,1-1.09,2.26l-2.53,2.66h3.58c.27,0,.39.21.39.47s-.12.46-.39.46h-4.23c-.57,0-.8-.19-.8-.6,0-.18.1-.34.33-.59l2.68-2.84c.78-.81,1-1.23,1-1.81v-.06c0-.64-.45-1-1.33-1a1.79,1.79,0,0,0-1.6.88.45.45,0,0,1-.66.09.47.47,0,0,1-.15-.68,2.73,2.73,0,0,1,2.38-1.28C146.36,51.51,147.15,52.4,147.15,53.49Z"/><path class="cls-6" d="M153.86,53.49v.11a3.16,3.16,0,0,1-1.09,2.26l-2.53,2.66h3.58c.27,0,.39.21.39.47s-.12.46-.39.46h-4.23c-.57,0-.8-.19-.8-.6,0-.18.1-.34.33-.59l2.68-2.84c.78-.81,1-1.23,1-1.81v-.06c0-.64-.45-1-1.33-1a1.79,1.79,0,0,0-1.6.88.45.45,0,0,1-.66.09.47.47,0,0,1-.15-.68,2.73,2.73,0,0,1,2.38-1.28C153.07,51.51,153.86,52.4,153.86,53.49Z"/><path class="cls-6" d="M160.94,52.22a2.06,2.06,0,0,1-.28.88l-2.78,6.12a.48.48,0,0,1-.69.22.46.46,0,0,1-.26-.67l2.85-6.2h-4c-.26,0-.38-.22-.38-.47s.12-.47.38-.47h4.41C160.73,51.63,160.94,51.81,160.94,52.22Z"/><path class="cls-6" d="M167.65,52.22a2.06,2.06,0,0,1-.28.88l-2.78,6.12a.48.48,0,0,1-.69.22.46.46,0,0,1-.26-.67l2.85-6.2h-4c-.26,0-.38-.22-.38-.47s.12-.47.38-.47h4.41C167.44,51.63,167.65,51.81,167.65,52.22Z"/><path class="cls-6" d="M22.81,75.38v1.14a2.22,2.22,0,0,0,.63,1.78c.41.45.79.8,1.16,1.14a.54.54,0,0,1,0,.75.5.5,0,0,1-.73,0c-.28-.26-.61-.56-.93-.88a2.28,2.28,0,0,1-.71-1h0c0,.26-.18.52-.71,1s-.73.71-1.12,1.06a.51.51,0,0,1-.73-.09.55.55,0,0,1,0-.75c.43-.38.93-.86,1.37-1.3a2.36,2.36,0,0,0,.61-1.8V75.38a.52.52,0,0,1,.58-.5C22.53,74.88,22.81,75,22.81,75.38Zm2.79,6v.44a1.57,1.57,0,0,0,1,1.57c.66.36,1.32.7,2,1a.49.49,0,0,1,.16.69.47.47,0,0,1-.65.26c-.65-.3-1.24-.6-1.81-.91-.92-.51-1.23-.82-1.32-1.13h0c-.08.32-.41.65-1.33,1.15-.56.31-1.15.61-1.81.91a.49.49,0,0,1-.66-.26.53.53,0,0,1,.18-.71c.71-.32,1.38-.66,2-1a1.57,1.57,0,0,0,1-1.57v-.44a.58.58,0,0,1,1.16,0Zm1-6.42v5a.49.49,0,0,1-.53.47.5.5,0,0,1-.55-.47V77.73H24.34c-.28,0-.4-.24-.4-.52s.12-.51.4-.51h1.17V75a.49.49,0,0,1,.55-.47A.48.48,0,0,1,26.59,75Zm2.1-.06v6.24a.55.55,0,0,1-1.09,0V74.91a.55.55,0,0,1,1.09,0Z"/><path class="cls-6" d="M35.63,75.92c0,.27-.12.5-.4.5h-.71v1.12a4.13,4.13,0,0,0,.38,2.14c.25.48.52,1,.77,1.4a.5.5,0,0,1-.14.68.45.45,0,0,1-.65-.12c-.21-.34-.37-.65-.58-1a2.47,2.47,0,0,1-.31-.83h0a2.82,2.82,0,0,1-.31.88c-.17.32-.34.67-.56,1a.41.41,0,0,1-.75,0,11.38,11.38,0,0,1-.54-1,2.71,2.71,0,0,1-.33-.88h0a2.6,2.6,0,0,1-.3.84c-.21.38-.39.71-.63,1.08a.43.43,0,0,1-.65.12.5.5,0,0,1-.15-.68c.27-.45.58-1,.82-1.46A4.11,4.11,0,0,0,31,77.54V76.42h-.68c-.29,0-.42-.23-.42-.5s.13-.52.42-.52h5C35.51,75.4,35.63,75.64,35.63,75.92Zm-3.41,3.44c.13.32.24.59.39.88s.15.21.27,0,.25-.56.38-.88a5.16,5.16,0,0,0,.21-1.82V76.42H32v1.12A5.11,5.11,0,0,0,32.22,79.36Zm6.9-4.46v9.45a.47.47,0,0,1-.53.46.46.46,0,0,1-.51-.46V79.14h-1v4.71a.46.46,0,0,1-.52.45c-.28,0-.52-.14-.52-.45V75a.46.46,0,0,1,.52-.46.47.47,0,0,1,.52.46v3.11h1V74.9a.46.46,0,0,1,.51-.46A.47.47,0,0,1,39.12,74.9Z"/><path class="cls-6" d="M102.68,77.51v.31c0,3.5-1.19,4.43-3.06,4.43a3.55,3.55,0,0,1-1.74-.4.47.47,0,0,1-.21-.66.46.46,0,0,1,.65-.24,3,3,0,0,0,1.36.3c1.22,0,1.83-.73,1.91-2.72a2.48,2.48,0,0,1-4.39-1.6v-.18a2.51,2.51,0,0,1,2.71-2.57C101.73,74.18,102.68,75.36,102.68,77.51Zm-4.39-.73v.09a1.41,1.41,0,0,0,1.6,1.59,1.49,1.49,0,0,0,1.65-1.53v-.08a1.51,1.51,0,0,0-1.6-1.67A1.48,1.48,0,0,0,98.29,76.78Z"/><path class="cls-6" d="M109.39,77.51v.31c0,3.5-1.19,4.43-3.06,4.43a3.55,3.55,0,0,1-1.74-.4.47.47,0,0,1-.21-.66A.46.46,0,0,1,105,81a3,3,0,0,0,1.36.3c1.22,0,1.83-.73,1.91-2.72a2.48,2.48,0,0,1-4.39-1.6v-.18a2.51,2.51,0,0,1,2.71-2.57C108.44,74.18,109.39,75.36,109.39,77.51ZM105,76.78v.09a1.41,1.41,0,0,0,1.6,1.59,1.49,1.49,0,0,0,1.65-1.53v-.08a1.51,1.51,0,0,0-1.6-1.67A1.48,1.48,0,0,0,105,76.78Z"/><path class="cls-6" d="M116.42,76.31a.39.39,0,0,1,.08.58l-1.75,1.85,1.74,1.84a.4.4,0,0,1-.07.59.39.39,0,0,1-.58,0l-1.69-1.8-1.7,1.8a.39.39,0,0,1-.58,0,.4.4,0,0,1-.08-.59l1.73-1.84-1.73-1.85a.39.39,0,0,1,.07-.58.38.38,0,0,1,.58,0l1.71,1.81,1.69-1.81A.38.38,0,0,1,116.42,76.31Z"/><path class="cls-6" d="M124.74,76.17v.06a1.88,1.88,0,0,1-1.36,1.83,1.77,1.77,0,0,1,1.68,1.79V80c0,1.21-.91,2.29-2.77,2.29a4,4,0,0,1-2.26-.64.51.51,0,0,1-.15-.73.45.45,0,0,1,.68-.16,2.87,2.87,0,0,0,1.67.54c1.25,0,1.72-.63,1.72-1.33v-.09c0-1-.75-1.28-1.74-1.28h-.63c-.27,0-.39-.22-.39-.48s.12-.48.39-.48h.54c.89,0,1.54-.39,1.54-1.29v0c0-.67-.47-1.12-1.44-1.12a1.81,1.81,0,0,0-1.42.65.44.44,0,0,1-.67,0,.49.49,0,0,1,0-.67,2.65,2.65,0,0,1,2.09-.92C123.89,74.18,124.74,75.07,124.74,76.17Z"/><path class="cls-6" d="M130.54,75l-3.12,4.5h2.67v-2c0-.32.26-.46.54-.46s.55.14.55.46v2h.8c.27,0,.37.21.37.45s-.1.45-.37.45h-.8v1.28c0,.32-.27.46-.55.46s-.54-.14-.54-.46V80.44h-3.27c-.51,0-.72-.17-.72-.54,0-.14,0-.24.3-.65l3.32-4.78a.48.48,0,0,1,.69-.13A.45.45,0,0,1,130.54,75Z"/><path class="cls-6" d="M139,77.56c0,.25-.12.46-.38.46h-4.43c-.26,0-.39-.21-.39-.46a.4.4,0,0,1,.39-.45h4.43C138.88,77.11,139,77.32,139,77.56Zm0,2.33c0,.25-.12.45-.38.45h-4.43c-.26,0-.39-.2-.39-.45s.13-.46.39-.46h4.43C138.88,79.43,139,79.64,139,79.89Z"/><path class="cls-6" d="M147,76.17v.06a1.88,1.88,0,0,1-1.36,1.83,1.77,1.77,0,0,1,1.68,1.79V80c0,1.21-.91,2.29-2.77,2.29a4,4,0,0,1-2.26-.64.51.51,0,0,1-.15-.73.45.45,0,0,1,.68-.16,2.84,2.84,0,0,0,1.67.54c1.25,0,1.72-.63,1.72-1.33v-.09c0-1-.75-1.28-1.74-1.28h-.63c-.27,0-.39-.22-.39-.48s.12-.48.39-.48h.54c.89,0,1.54-.39,1.54-1.29v0c0-.67-.47-1.12-1.44-1.12a1.79,1.79,0,0,0-1.42.65.44.44,0,0,1-.67,0,.49.49,0,0,1,0-.67,2.65,2.65,0,0,1,2.09-.92C146.11,74.18,147,75.07,147,76.17Z"/><path class="cls-6" d="M153.67,76.17v.06a1.88,1.88,0,0,1-1.36,1.83A1.77,1.77,0,0,1,154,79.85V80c0,1.21-.91,2.29-2.77,2.29a4,4,0,0,1-2.26-.64.51.51,0,0,1-.15-.73.45.45,0,0,1,.68-.16,2.84,2.84,0,0,0,1.67.54c1.25,0,1.72-.63,1.72-1.33v-.09c0-1-.75-1.28-1.74-1.28h-.63c-.27,0-.39-.22-.39-.48s.12-.48.39-.48h.54c.89,0,1.54-.39,1.54-1.29v0c0-.67-.47-1.12-1.44-1.12a1.79,1.79,0,0,0-1.42.65.44.44,0,0,1-.67,0,.49.49,0,0,1,0-.67,2.65,2.65,0,0,1,2.09-.92C152.82,74.18,153.67,75.07,153.67,76.17Z"/><path class="cls-6" d="M160.22,74.58a.48.48,0,0,1,.19.65.46.46,0,0,1-.65.24,3,3,0,0,0-1.34-.29c-1.15,0-1.8.9-1.92,2.73a2.28,2.28,0,0,1,1.91-.9,2.32,2.32,0,0,1,2.47,2.51v.17a2.5,2.5,0,0,1-2.71,2.56c-1.79,0-2.76-1.19-2.76-3.34v-.3c0-3.43,1.3-4.43,3.06-4.43A3.71,3.71,0,0,1,160.22,74.58Zm-3.68,4.93v.09a1.52,1.52,0,0,0,1.61,1.65,1.49,1.49,0,0,0,1.65-1.6v-.08A1.42,1.42,0,0,0,158.19,78,1.49,1.49,0,0,0,156.54,79.51Z"/><path class="cls-6" d="M166.93,74.58a.48.48,0,0,1,.19.65.46.46,0,0,1-.65.24,3,3,0,0,0-1.34-.29c-1.15,0-1.8.9-1.92,2.73a2.28,2.28,0,0,1,1.91-.9,2.32,2.32,0,0,1,2.47,2.51v.17a2.5,2.5,0,0,1-2.71,2.56c-1.79,0-2.76-1.19-2.76-3.34v-.3c0-3.43,1.3-4.43,3.06-4.43A3.71,3.71,0,0,1,166.93,74.58Zm-3.68,4.93v.09a1.52,1.52,0,0,0,1.61,1.65,1.49,1.49,0,0,0,1.65-1.6v-.08A1.42,1.42,0,0,0,164.9,78,1.49,1.49,0,0,0,163.25,79.51Z"/><path class="cls-6" d="M21.08,98.2v3.42c0,.19.07.25.25.25a20.15,20.15,0,0,0,2.77-.19c.26,0,.43.15.45.44a.47.47,0,0,1-.32.58,26.35,26.35,0,0,1-3.43.19c-.67,0-.89-.22-.89-.9V98.2a.59.59,0,0,1,1.17,0Zm4.52,5.86v.45a1.58,1.58,0,0,0,1,1.57c.66.36,1.32.7,2,1a.54.54,0,0,1-.49,1c-.65-.3-1.24-.6-1.81-.91-.92-.51-1.23-.82-1.32-1.13h0c-.08.32-.41.65-1.33,1.15-.56.31-1.15.61-1.81.91a.49.49,0,0,1-.66-.26.53.53,0,0,1,.18-.71c.71-.32,1.38-.66,2-1a1.58,1.58,0,0,0,1-1.57v-.45a.59.59,0,0,1,1.16,0Zm.92-6.41v5a.55.55,0,0,1-1.08,0v-2.28H23.53c-.28,0-.41-.24-.41-.51s.13-.52.41-.52h1.91V97.65a.55.55,0,0,1,1.08,0Zm2.17-.06v6.24a.55.55,0,0,1-1.09,0V97.59a.48.48,0,0,1,.54-.47C28.42,97.12,28.69,97.26,28.69,97.59Z"/><path class="cls-6" d="M35.63,98.6c0,.27-.12.5-.4.5h-.71v1.12a4.13,4.13,0,0,0,.38,2.14c.25.48.52,1,.77,1.39a.51.51,0,0,1-.14.69.45.45,0,0,1-.65-.12c-.21-.34-.37-.65-.58-1a2.55,2.55,0,0,1-.31-.83h0a2.7,2.7,0,0,1-.31.87c-.17.33-.34.67-.56,1a.4.4,0,0,1-.75,0,10.17,10.17,0,0,1-.54-1,2.6,2.6,0,0,1-.33-.87h0a2.6,2.6,0,0,1-.3.84c-.21.38-.39.7-.63,1.08a.44.44,0,0,1-.65.12.52.52,0,0,1-.15-.69c.27-.44.58-1,.82-1.45a4.11,4.11,0,0,0,.38-2.14V99.1h-.68c-.29,0-.42-.23-.42-.5s.13-.52.42-.52h5C35.51,98.08,35.63,98.32,35.63,98.6ZM32.22,102a8.76,8.76,0,0,0,.39.87c.1.22.15.22.27,0s.25-.55.38-.87a5.19,5.19,0,0,0,.21-1.82V99.1H32v1.12A5.14,5.14,0,0,0,32.22,102Zm6.9-4.46V107c0,.31-.25.45-.53.45a.45.45,0,0,1-.51-.45v-5.21h-1v4.7a.46.46,0,0,1-.52.46.46.46,0,0,1-.52-.46V97.7a.46.46,0,0,1,.52-.46.46.46,0,0,1,.52.46v3.1h1V97.58a.45.45,0,0,1,.51-.46C38.87,97.12,39.12,97.26,39.12,97.58Z"/></g></g></svg>