
<svg xmlns="http://www.w3.org/2000/svg" version="1.1" xmlns:xlink="http://www.w3.org/1999/xlink" preserveAspectRatio="none" x="0px" y="0px" width="1280px" height="1070px" viewBox="0 0 1280 1070">
<defs>
<g id="dsbfsdbfdn44_0_Layer0_0_FILL">
<path fill="#000000" stroke="none" d="
M 88.4 71.8
Q 88.4 71.4 88.7 71.4
L 99.6 71.4
Q 100.2 71.4 100.2 70.7
L 100.2 68
Q 100.2 67.3 99.6 67.3
L 86.55 67.3
Q 85.4 67.3 84.9 67.75 84.4 68.15 84.4 69.75
L 84.4 78.95
Q 84.4 80.45 84.85 81.05 85.25 81.6 86.55 81.6
L 100.15 81.6
Q 100.5 81.6 100.6 81.5 100.7 81.35 100.7 80.85
L 100.7 78.15
Q 100.7 77.5 100.05 77.5
L 88.7 77.5
Q 88.4 77.5 88.4 77.1
L 88.4 71.8
M -113.55 67
Q -114.15 67 -114.15 67.75
L -114.15 78.65
Q -114.15 79.4 -114.05 79.9 -113.95 80.4 -113.75 80.7 -113.55 80.95 -113.15 81.1 -112.75 81.25 -112.15 81.25
L -98.55 81.25
Q -98.35 81.25 -98.15 81.15 -97.95 81.1 -97.95 80.6
L -97.95 77.75
Q -97.95 77.4 -98.15 77.25 -98.35 77.1 -98.55 77.1
L -109.7 77.1
Q -110.15 77.1 -110.15 76.6
L -110.15 67.75
Q -110.15 67 -110.75 67
L -113.55 67
M -98 -75.55
Q -98 -76.3 -98.05 -76.85 -98.15 -77.35 -98.35 -77.7 -98.6 -78 -99 -78.15 -99.35 -78.25 -100 -78.25
L -113.5 -78.25
Q -113.75 -78.25 -113.9 -78.2 -114.1 -78.1 -114.1 -77.6
L -114.1 -74.75
Q -114.1 -74.4 -113.9 -74.25 -113.75 -74.15 -113.5 -74.15
L -102.4 -74.15
Q -102 -74.15 -102 -73.6
L -102 -64.6
Q -102 -63.85 -101.35 -63.85
L -98.55 -63.85
Q -98 -63.85 -98 -64.6
L -98 -75.55 Z"/>
</g>

<g id="fddbdbdndm_32_Layer4_0_FILL">
<path fill="#96CE8E" stroke="none" d="
M 0 32.5
L 0 0 -32.5 0
Q -32.5 13.45 -23 22.95 -13.45 32.5 0 32.5
M 0 0
L 0 32.5
Q 13.45 32.5 22.95 22.95 32.5 13.45 32.5 0
L 0 0
M 0 -32.5
Q -13.45 -32.5 -23 -23 -32.5 -13.45 -32.5 0
L 0 0 0 -32.5
M 22.95 -23
Q 13.45 -32.5 0 -32.5
L 0 0 32.5 0
Q 32.5 -13.45 22.95 -23 Z"/>
</g>

<g id="fddbdbdndm_32_Layer4_0_STROKES_1_FILL">
<path fill="#18B4E6" stroke="none" d="
M 0.7 32.7
Q 0.996484375 32.4107421875 1 32
L 1 30
Q 0.996484375 29.5892578125 0.7 29.3 0.4107421875 29.003515625 0 29 -0.4107421875 29.003515625 -0.7 29.3 -0.996484375 29.5892578125 -1 30
L -1 32
Q -0.996484375 32.4107421875 -0.7 32.7 -0.4107421875 32.996484375 0 33 0.4107421875 32.996484375 0.7 32.7
M 0.7 24.3
Q 0.4107421875 24.003515625 0 24 -0.4107421875 24.003515625 -0.7 24.3 -0.996484375 24.5892578125 -1 25
L -1 27
Q -0.996484375 27.4107421875 -0.7 27.7 -0.4107421875 27.996484375 0 28 0.4107421875 27.996484375 0.7 27.7 0.996484375 27.4107421875 1 27
L 1 25
Q 0.996484375 24.5892578125 0.7 24.3
M 0.7 19.3
Q 0.4107421875 19.003515625 0 19 -0.4107421875 19.003515625 -0.7 19.3 -0.996484375 19.5892578125 -1 20
L -1 22
Q -0.996484375 22.4107421875 -0.7 22.7 -0.4107421875 22.996484375 0 23 0.4107421875 22.996484375 0.7 22.7 0.996484375 22.4107421875 1 22
L 1 20
Q 0.996484375 19.5892578125 0.7 19.3
M 0.7 17.7
Q 0.996484375 17.4107421875 1 17
L 1 15
Q 0.996484375 14.5892578125 0.7 14.3 0.4107421875 14.003515625 0 14 -0.4107421875 14.003515625 -0.7 14.3 -0.996484375 14.5892578125 -1 15
L -1 17
Q -0.996484375 17.4107421875 -0.7 17.7 -0.4107421875 17.996484375 0 18 0.4107421875 17.996484375 0.7 17.7
M 0.7 9.3
Q 0.4107421875 9.003515625 0 9 -0.4107421875 9.003515625 -0.7 9.3 -0.996484375 9.5892578125 -1 10
L -1 12
Q -0.996484375 12.4107421875 -0.7 12.7 -0.4107421875 12.996484375 0 13 0.4107421875 12.996484375 0.7 12.7 0.996484375 12.4107421875 1 12
L 1 10
Q 0.996484375 9.5892578125 0.7 9.3
M 1 5
Q 0.996484375 4.5892578125 0.7 4.3 0.4107421875 4.003515625 0 4 -0.4107421875 4.003515625 -0.7 4.3 -0.996484375 4.5892578125 -1 5
L -1 7
Q -0.996484375 7.4107421875 -0.7 7.7 -0.4107421875 7.996484375 0 8 0.4107421875 7.996484375 0.7 7.7 0.996484375 7.4107421875 1 7
L 1 5
M 32.7 -0.7
Q 32.4107421875 -0.996484375 32 -1
L 30 -1
Q 29.5892578125 -0.996484375 29.3 -0.7 29.003515625 -0.4107421875 29 0 29.003515625 0.4107421875 29.3 0.7 29.5892578125 0.996484375 30 1
L 32 1
Q 32.4107421875 0.996484375 32.7 0.7 32.996484375 0.4107421875 33 0 32.996484375 -0.4107421875 32.7 -0.7
M 27.7 -0.7
Q 27.4107421875 -0.996484375 27 -1
L 25 -1
Q 24.5892578125 -0.996484375 24.3 -0.7 24.003515625 -0.4107421875 24 0 24.003515625 0.4107421875 24.3 0.7 24.5892578125 0.996484375 25 1
L 27 1
Q 27.4107421875 0.996484375 27.7 0.7 27.996484375 0.4107421875 28 0 27.996484375 -0.4107421875 27.7 -0.7
M 20 -1
Q 19.5892578125 -0.996484375 19.3 -0.7 19.003515625 -0.4107421875 19 0 19.003515625 0.4107421875 19.3 0.7 19.5892578125 0.996484375 20 1
L 22 1
Q 22.4107421875 0.996484375 22.7 0.7 22.996484375 0.4107421875 23 0 22.996484375 -0.4107421875 22.7 -0.7 22.4107421875 -0.996484375 22 -1
L 20 -1
M 17.7 -0.7
Q 17.4107421875 -0.996484375 17 -1
L 15 -1
Q 14.5892578125 -0.996484375 14.3 -0.7 14.003515625 -0.4107421875 14 0 14.003515625 0.4107421875 14.3 0.7 14.5892578125 0.996484375 15 1
L 17 1
Q 17.4107421875 0.996484375 17.7 0.7 17.996484375 0.4107421875 18 0 17.996484375 -0.4107421875 17.7 -0.7
M 10 -1
Q 9.5892578125 -0.996484375 9.3 -0.7 9.003515625 -0.4107421875 9 0 9.003515625 0.4107421875 9.3 0.7 9.5892578125 0.996484375 10 1
L 12 1
Q 12.4107421875 0.996484375 12.7 0.7 12.996484375 0.4107421875 13 0 12.996484375 -0.4107421875 12.7 -0.7 12.4107421875 -0.996484375 12 -1
L 10 -1
M 7.7 -0.7
Q 7.4107421875 -0.996484375 7 -1
L 5 -1
Q 4.5892578125 -0.996484375 4.3 -0.7 4.003515625 -0.4107421875 4 0 4.003515625 0.4107421875 4.3 0.7 4.5892578125 0.996484375 5 1
L 7 1
Q 7.4107421875 0.996484375 7.7 0.7 7.996484375 0.4107421875 8 0 7.996484375 -0.4107421875 7.7 -0.7
M -0.25 -1
Q -0.36875 -0.998828125 -0.5 -1
L -2.5 -1
Q -2.9107421875 -0.996484375 -3.2 -0.7 -3.496484375 -0.4107421875 -3.5 0 -3.496484375 0.4107421875 -3.2 0.7 -2.9107421875 0.996484375 -2.5 1
L -1 1 -1 2
Q -0.996484375 2.4107421875 -0.7 2.7 -0.4107421875 2.996484375 0 3 0.4107421875 2.996484375 0.7 2.7 0.996484375 2.4107421875 1 2
L 1 1 2 1
Q 2.4107421875 0.996484375 2.7 0.7 2.996484375 0.4107421875 3 0 2.996484375 -0.4107421875 2.7 -0.7 2.4107421875 -0.996484375 2 -1
L 0 -1
Q -0.13125 -0.998828125 -0.25 -1
M -5.5 -1
L -7.5 -1
Q -7.9107421875 -0.996484375 -8.2 -0.7 -8.496484375 -0.4107421875 -8.5 0 -8.496484375 0.4107421875 -8.2 0.7 -7.9107421875 0.996484375 -7.5 1
L -5.5 1
Q -5.0892578125 0.996484375 -4.8 0.7 -4.503515625 0.4107421875 -4.5 0 -4.503515625 -0.4107421875 -4.8 -0.7 -5.0892578125 -0.996484375 -5.5 -1
M -12.5 -1
Q -12.9107421875 -0.996484375 -13.2 -0.7 -13.496484375 -0.4107421875 -13.5 0 -13.496484375 0.4107421875 -13.2 0.7 -12.9107421875 0.996484375 -12.5 1
L -10.5 1
Q -10.0892578125 0.996484375 -9.8 0.7 -9.503515625 0.4107421875 -9.5 0 -9.503515625 -0.4107421875 -9.8 -0.7 -10.0892578125 -0.996484375 -10.5 -1
L -12.5 -1
M -14.8 -0.7
Q -15.0892578125 -0.996484375 -15.5 -1
L -17.5 -1
Q -17.9107421875 -0.996484375 -18.2 -0.7 -18.496484375 -0.4107421875 -18.5 0 -18.496484375 0.4107421875 -18.2 0.7 -17.9107421875 0.996484375 -17.5 1
L -15.5 1
Q -15.0892578125 0.996484375 -14.8 0.7 -14.503515625 0.4107421875 -14.5 0 -14.503515625 -0.4107421875 -14.8 -0.7
M -22.5 -1
Q -22.9107421875 -0.996484375 -23.2 -0.7 -23.496484375 -0.4107421875 -23.5 0 -23.496484375 0.4107421875 -23.2 0.7 -22.9107421875 0.996484375 -22.5 1
L -20.5 1
Q -20.0892578125 0.996484375 -19.8 0.7 -19.503515625 0.4107421875 -19.5 0 -19.503515625 -0.4107421875 -19.8 -0.7 -20.0892578125 -0.996484375 -20.5 -1
L -22.5 -1
M -24.8 -0.7
Q -25.0892578125 -0.996484375 -25.5 -1
L -27.5 -1
Q -27.9107421875 -0.996484375 -28.2 -0.7 -28.496484375 -0.4107421875 -28.5 0 -28.496484375 0.4107421875 -28.2 0.7 -27.9107421875 0.996484375 -27.5 1
L -25.5 1
Q -25.0892578125 0.996484375 -24.8 0.7 -24.503515625 0.4107421875 -24.5 0 -24.503515625 -0.4107421875 -24.8 -0.7
M -29.8 -0.7
Q -30.0892578125 -0.996484375 -30.5 -1
L -32.5 -1
Q -32.9107421875 -0.996484375 -33.2 -0.7 -33.496484375 -0.4107421875 -33.5 0 -33.496484375 0.4107421875 -33.2 0.7 -32.9107421875 0.996484375 -32.5 1
L -30.5 1
Q -30.0892578125 0.996484375 -29.8 0.7 -29.503515625 0.4107421875 -29.5 0 -29.503515625 -0.4107421875 -29.8 -0.7 Z"/>
</g>

<g id="fddbdbdndm_32_Layer2_0_FILL">
<path fill="#E50182" stroke="none" d="
M -39.25 -20.7
L -34.65 -28.6 -43.8 -28.6 -39.25 -20.7 Z"/>
</g>

<g id="fddbdbdndm_30_Layer4_0_FILL">
<path fill="#96CE8E" stroke="none" d="
M 0 32.5
L 0 0 -32.5 0
Q -32.5 13.45 -23 22.95 -13.45 32.5 0 32.5
M 0 -32.5
Q -13.45 -32.5 -23 -23 -32.5 -13.45 -32.5 0
L 0 0 0 -32.5 Z"/>

<path fill="#FFDE00" stroke="none" d="
M 0 0
L 0 32.5
Q 13.45 32.5 22.95 22.95 32.5 13.45 32.5 0
L 0 0
M 22.95 -23
Q 13.45 -32.5 0 -32.5
L 0 0 32.5 0
Q 32.5 -13.45 22.95 -23 Z"/>
</g>

<g id="fddbdbdndm_30_Layer4_0_STROKES_1_FILL">
<path fill="#18B4E6" stroke="none" d="
M 30.2 -0.7
Q 29.9107421875 -0.996484375 29.5 -1
L 27.5 -1
Q 27.0892578125 -0.996484375 26.8 -0.7 26.503515625 -0.4107421875 26.5 0 26.503515625 0.4107421875 26.8 0.7 27.0892578125 0.996484375 27.5 1
L 29.5 1
Q 29.9107421875 0.996484375 30.2 0.7 30.496484375 0.4107421875 30.5 0 30.496484375 -0.4107421875 30.2 -0.7
M 25.2 -0.7
Q 24.9107421875 -0.996484375 24.5 -1
L 22.5 -1
Q 22.0892578125 -0.996484375 21.8 -0.7 21.503515625 -0.4107421875 21.5 0 21.503515625 0.4107421875 21.8 0.7 22.0892578125 0.996484375 22.5 1
L 24.5 1
Q 24.9107421875 0.996484375 25.2 0.7 25.496484375 0.4107421875 25.5 0 25.496484375 -0.4107421875 25.2 -0.7
M 20.2 -0.7
Q 19.9107421875 -0.996484375 19.5 -1
L 17.5 -1
Q 17.0892578125 -0.996484375 16.8 -0.7 16.503515625 -0.4107421875 16.5 0 16.503515625 0.4107421875 16.8 0.7 17.0892578125 0.996484375 17.5 1
L 19.5 1
Q 19.9107421875 0.996484375 20.2 0.7 20.496484375 0.4107421875 20.5 0 20.496484375 -0.4107421875 20.2 -0.7
M 15.2 -0.7
Q 14.9107421875 -0.996484375 14.5 -1
L 12.5 -1
Q 12.0892578125 -0.996484375 11.8 -0.7 11.503515625 -0.4107421875 11.5 0 11.503515625 0.4107421875 11.8 0.7 12.0892578125 0.996484375 12.5 1
L 14.5 1
Q 14.9107421875 0.996484375 15.2 0.7 15.496484375 0.4107421875 15.5 0 15.496484375 -0.4107421875 15.2 -0.7
M 7.5 -1
Q 7.0892578125 -0.996484375 6.8 -0.7 6.503515625 -0.4107421875 6.5 0 6.503515625 0.4107421875 6.8 0.7 7.0892578125 0.996484375 7.5 1
L 9.5 1
Q 9.9107421875 0.996484375 10.2 0.7 10.496484375 0.4107421875 10.5 0 10.496484375 -0.4107421875 10.2 -0.7 9.9107421875 -0.996484375 9.5 -1
L 7.5 -1
M 5.2 -0.7
Q 4.9107421875 -0.996484375 4.5 -1
L 2.5 -1
Q 2.0892578125 -0.996484375 1.8 -0.7 1.503515625 -0.4107421875 1.5 0 1.503515625 0.4107421875 1.8 0.7 2.0892578125 0.996484375 2.5 1
L 4.5 1
Q 4.9107421875 0.996484375 5.2 0.7 5.496484375 0.4107421875 5.5 0 5.496484375 -0.4107421875 5.2 -0.7
M -0.5 -1
L -2.5 -1
Q -2.9107421875 -0.996484375 -3.2 -0.7 -3.496484375 -0.4107421875 -3.5 0 -3.496484375 0.4107421875 -3.2 0.7 -2.9107421875 0.996484375 -2.5 1
L -0.5 1
Q -0.0892578125 0.996484375 0.2 0.7 0.496484375 0.4107421875 0.5 0 0.496484375 -0.4107421875 0.2 -0.7 -0.0892578125 -0.996484375 -0.5 -1
M -5.5 -1
L -7.5 -1
Q -7.9107421875 -0.996484375 -8.2 -0.7 -8.496484375 -0.4107421875 -8.5 0 -8.496484375 0.4107421875 -8.2 0.7 -7.9107421875 0.996484375 -7.5 1
L -5.5 1
Q -5.0892578125 0.996484375 -4.8 0.7 -4.503515625 0.4107421875 -4.5 0 -4.503515625 -0.4107421875 -4.8 -0.7 -5.0892578125 -0.996484375 -5.5 -1
M -12.5 -1
Q -12.9107421875 -0.996484375 -13.2 -0.7 -13.496484375 -0.4107421875 -13.5 0 -13.496484375 0.4107421875 -13.2 0.7 -12.9107421875 0.996484375 -12.5 1
L -10.5 1
Q -10.0892578125 0.996484375 -9.8 0.7 -9.503515625 0.4107421875 -9.5 0 -9.503515625 -0.4107421875 -9.8 -0.7 -10.0892578125 -0.996484375 -10.5 -1
L -12.5 -1
M -14.8 -0.7
Q -15.0892578125 -0.996484375 -15.5 -1
L -17.5 -1
Q -17.9107421875 -0.996484375 -18.2 -0.7 -18.496484375 -0.4107421875 -18.5 0 -18.496484375 0.4107421875 -18.2 0.7 -17.9107421875 0.996484375 -17.5 1
L -15.5 1
Q -15.0892578125 0.996484375 -14.8 0.7 -14.503515625 0.4107421875 -14.5 0 -14.503515625 -0.4107421875 -14.8 -0.7
M -22.5 -1
Q -22.9107421875 -0.996484375 -23.2 -0.7 -23.496484375 -0.4107421875 -23.5 0 -23.496484375 0.4107421875 -23.2 0.7 -22.9107421875 0.996484375 -22.5 1
L -20.5 1
Q -20.0892578125 0.996484375 -19.8 0.7 -19.503515625 0.4107421875 -19.5 0 -19.503515625 -0.4107421875 -19.8 -0.7 -20.0892578125 -0.996484375 -20.5 -1
L -22.5 -1
M -24.8 -0.7
Q -25.0892578125 -0.996484375 -25.5 -1
L -27.5 -1
Q -27.9107421875 -0.996484375 -28.2 -0.7 -28.496484375 -0.4107421875 -28.5 0 -28.496484375 0.4107421875 -28.2 0.7 -27.9107421875 0.996484375 -27.5 1
L -25.5 1
Q -25.0892578125 0.996484375 -24.8 0.7 -24.503515625 0.4107421875 -24.5 0 -24.503515625 -0.4107421875 -24.8 -0.7
M -29.8 -0.7
Q -30.0892578125 -0.996484375 -30.5 -1
L -32.5 -1
Q -32.9107421875 -0.996484375 -33.2 -0.7 -33.496484375 -0.4107421875 -33.5 0 -33.496484375 0.4107421875 -33.2 0.7 -32.9107421875 0.996484375 -32.5 1
L -30.5 1
Q -30.0892578125 0.996484375 -29.8 0.7 -29.503515625 0.4107421875 -29.5 0 -29.503515625 -0.4107421875 -29.8 -0.7 Z"/>
</g>

<g id="fddbdbdndm_30_Layer2_0_FILL">
<path fill="#E50182" stroke="none" d="
M -39.25 -20.7
L -34.65 -28.6 -43.8 -28.6 -39.25 -20.7 Z"/>
</g>

<g id="fddbdbdndm_28_Layer4_0_FILL">
<path fill="#FFDE00" stroke="none" d="
M 0 32.5
L 0 0 -32.5 0
Q -32.5 13.45 -23 22.95 -13.45 32.5 0 32.5
M 0 0
L 0 32.5
Q 13.45 32.5 22.95 22.95 32.5 13.45 32.5 0
L 0 0
M 22.95 -23
Q 13.45 -32.5 0 -32.5
L 0 0 32.5 0
Q 32.5 -13.45 22.95 -23 Z"/>

<path fill="#96CE8E" stroke="none" d="
M 0 -32.5
Q -13.45 -32.5 -23 -23 -32.5 -13.45 -32.5 0
L 0 0 0 -32.5 Z"/>
</g>

<g id="fddbdbdndm_28_Layer4_0_STROKES_1_FILL">
<path fill="#18B4E6" stroke="none" d="
M 0.7 30.2
Q 0.996484375 29.9107421875 1 29.5
L 1 27.5
Q 0.996484375 27.0892578125 0.7 26.8 0.4107421875 26.503515625 0 26.5 -0.4107421875 26.503515625 -0.7 26.8 -0.996484375 27.0892578125 -1 27.5
L -1 29.5
Q -0.996484375 29.9107421875 -0.7 30.2 -0.4107421875 30.496484375 0 30.5 0.4107421875 30.496484375 0.7 30.2
M 0.7 21.8
Q 0.4107421875 21.503515625 0 21.5 -0.4107421875 21.503515625 -0.7 21.8 -0.996484375 22.0892578125 -1 22.5
L -1 24.5
Q -0.996484375 24.9107421875 -0.7 25.2 -0.4107421875 25.496484375 0 25.5 0.4107421875 25.496484375 0.7 25.2 0.996484375 24.9107421875 1 24.5
L 1 22.5
Q 0.996484375 22.0892578125 0.7 21.8
M 0.7 16.8
Q 0.4107421875 16.503515625 0 16.5 -0.4107421875 16.503515625 -0.7 16.8 -0.996484375 17.0892578125 -1 17.5
L -1 19.5
Q -0.996484375 19.9107421875 -0.7 20.2 -0.4107421875 20.496484375 0 20.5 0.4107421875 20.496484375 0.7 20.2 0.996484375 19.9107421875 1 19.5
L 1 17.5
Q 0.996484375 17.0892578125 0.7 16.8
M 0.7 11.8
Q 0.4107421875 11.503515625 0 11.5 -0.4107421875 11.503515625 -0.7 11.8 -0.996484375 12.0892578125 -1 12.5
L -1 14.5
Q -0.996484375 14.9107421875 -0.7 15.2 -0.4107421875 15.496484375 0 15.5 0.4107421875 15.496484375 0.7 15.2 0.996484375 14.9107421875 1 14.5
L 1 12.5
Q 0.996484375 12.0892578125 0.7 11.8
M 0.7 10.2
Q 0.996484375 9.9107421875 1 9.5
L 1 7.5
Q 0.996484375 7.0892578125 0.7 6.8 0.4107421875 6.503515625 0 6.5 -0.4107421875 6.503515625 -0.7 6.8 -0.996484375 7.0892578125 -1 7.5
L -1 9.5
Q -0.996484375 9.9107421875 -0.7 10.2 -0.4107421875 10.496484375 0 10.5 0.4107421875 10.496484375 0.7 10.2
M 1 2.5
Q 0.996484375 2.0892578125 0.7 1.8 0.4107421875 1.503515625 0 1.5 -0.4107421875 1.503515625 -0.7 1.8 -0.996484375 2.0892578125 -1 2.5
L -1 4.5
Q -0.996484375 4.9107421875 -0.7 5.2 -0.4107421875 5.496484375 0 5.5 0.4107421875 5.496484375 0.7 5.2 0.996484375 4.9107421875 1 4.5
L 1 2.5
M 32.5 -1
L 30.5 -1
Q 30.0892578125 -0.996484375 29.8 -0.7 29.503515625 -0.4107421875 29.5 0 29.503515625 0.4107421875 29.8 0.7 30.0892578125 0.996484375 30.5 1
L 32.5 1
Q 32.9107421875 0.996484375 33.2 0.7 33.496484375 0.4107421875 33.5 0 33.496484375 -0.4107421875 33.2 -0.7 32.9107421875 -0.996484375 32.5 -1
M 27.5 -1
L 25.5 -1
Q 25.0892578125 -0.996484375 24.8 -0.7 24.503515625 -0.4107421875 24.5 0 24.503515625 0.4107421875 24.8 0.7 25.0892578125 0.996484375 25.5 1
L 27.5 1
Q 27.9107421875 0.996484375 28.2 0.7 28.496484375 0.4107421875 28.5 0 28.496484375 -0.4107421875 28.2 -0.7 27.9107421875 -0.996484375 27.5 -1
M 22.5 -1
L 20.5 -1
Q 20.0892578125 -0.996484375 19.8 -0.7 19.503515625 -0.4107421875 19.5 0 19.503515625 0.4107421875 19.8 0.7 20.0892578125 0.996484375 20.5 1
L 22.5 1
Q 22.9107421875 0.996484375 23.2 0.7 23.496484375 0.4107421875 23.5 0 23.496484375 -0.4107421875 23.2 -0.7 22.9107421875 -0.996484375 22.5 -1
M 17.5 -1
L 15.5 -1
Q 15.0892578125 -0.996484375 14.8 -0.7 14.503515625 -0.4107421875 14.5 0 14.503515625 0.4107421875 14.8 0.7 15.0892578125 0.996484375 15.5 1
L 17.5 1
Q 17.9107421875 0.996484375 18.2 0.7 18.496484375 0.4107421875 18.5 0 18.496484375 -0.4107421875 18.2 -0.7 17.9107421875 -0.996484375 17.5 -1
M 12.5 -1
L 10.5 -1
Q 10.0892578125 -0.996484375 9.8 -0.7 9.503515625 -0.4107421875 9.5 0 9.503515625 0.4107421875 9.8 0.7 10.0892578125 0.996484375 10.5 1
L 12.5 1
Q 12.9107421875 0.996484375 13.2 0.7 13.496484375 0.4107421875 13.5 0 13.496484375 -0.4107421875 13.2 -0.7 12.9107421875 -0.996484375 12.5 -1
M 3.2 -0.7
Q 2.9107421875 -0.996484375 2.5 -1
L 0.5 -1
Q 0.0892578125 -0.996484375 -0.2 -0.7 -0.496484375 -0.4107421875 -0.5 0 -0.496484375 0.4107421875 -0.2 0.7 0.0892578125 0.996484375 0.5 1
L 2.5 1
Q 2.9107421875 0.996484375 3.2 0.7 3.496484375 0.4107421875 3.5 0 3.496484375 -0.4107421875 3.2 -0.7
M 7.5 -1
L 5.5 -1
Q 5.0892578125 -0.996484375 4.8 -0.7 4.503515625 -0.4107421875 4.5 0 4.503515625 0.4107421875 4.8 0.7 5.0892578125 0.996484375 5.5 1
L 7.5 1
Q 7.9107421875 0.996484375 8.2 0.7 8.496484375 0.4107421875 8.5 0 8.496484375 -0.4107421875 8.2 -0.7 7.9107421875 -0.996484375 7.5 -1 Z"/>
</g>

<g id="fddbdbdndm_28_Layer2_0_FILL">
<path fill="#E50182" stroke="none" d="
M -39.25 -20.7
L -34.65 -28.6 -43.8 -28.6 -39.25 -20.7 Z"/>
</g>

<g id="fddbdbdndm_34_Layer4_0_FILL">
<path fill="#96CE8E" stroke="none" d="
M 0 32.5
L 0 0 -32.5 0
Q -32.5 13.45 -23 22.95 -13.45 32.5 0 32.5
M 0 0
L 0 32.5
Q 13.45 32.5 22.95 22.95 32.5 13.45 32.5 0
L 0 0
M 0 -32.5
Q -13.45 -32.5 -23 -23 -32.5 -13.45 -32.5 0
L 0 0 0 -32.5 Z"/>

<path fill="#FFDE00" stroke="none" d="
M 22.95 -23
Q 13.45 -32.5 0 -32.5
L 0 0 32.5 0
Q 32.5 -13.45 22.95 -23 Z"/>
</g>

<g id="fddbdbdndm_34_Layer4_0_STROKES_1_FILL">
<path fill="#18B4E6" stroke="none" d="
M 0.7 30.2
Q 0.996484375 29.9107421875 1 29.5
L 1 27.5
Q 0.996484375 27.0892578125 0.7 26.8 0.4107421875 26.503515625 0 26.5 -0.4107421875 26.503515625 -0.7 26.8 -0.996484375 27.0892578125 -1 27.5
L -1 29.5
Q -0.996484375 29.9107421875 -0.7 30.2 -0.4107421875 30.496484375 0 30.5 0.4107421875 30.496484375 0.7 30.2
M 0.7 21.8
Q 0.4107421875 21.503515625 0 21.5 -0.4107421875 21.503515625 -0.7 21.8 -0.996484375 22.0892578125 -1 22.5
L -1 24.5
Q -0.996484375 24.9107421875 -0.7 25.2 -0.4107421875 25.496484375 0 25.5 0.4107421875 25.496484375 0.7 25.2 0.996484375 24.9107421875 1 24.5
L 1 22.5
Q 0.996484375 22.0892578125 0.7 21.8
M 0.7 16.8
Q 0.4107421875 16.503515625 0 16.5 -0.4107421875 16.503515625 -0.7 16.8 -0.996484375 17.0892578125 -1 17.5
L -1 19.5
Q -0.996484375 19.9107421875 -0.7 20.2 -0.4107421875 20.496484375 0 20.5 0.4107421875 20.496484375 0.7 20.2 0.996484375 19.9107421875 1 19.5
L 1 17.5
Q 0.996484375 17.0892578125 0.7 16.8
M 0.7 11.8
Q 0.4107421875 11.503515625 0 11.5 -0.4107421875 11.503515625 -0.7 11.8 -0.996484375 12.0892578125 -1 12.5
L -1 14.5
Q -0.996484375 14.9107421875 -0.7 15.2 -0.4107421875 15.496484375 0 15.5 0.4107421875 15.496484375 0.7 15.2 0.996484375 14.9107421875 1 14.5
L 1 12.5
Q 0.996484375 12.0892578125 0.7 11.8
M 0.7 6.8
Q 0.4107421875 6.503515625 0 6.5 -0.4107421875 6.503515625 -0.7 6.8 -0.996484375 7.0892578125 -1 7.5
L -1 9.5
Q -0.996484375 9.9107421875 -0.7 10.2 -0.4107421875 10.496484375 0 10.5 0.4107421875 10.496484375 0.7 10.2 0.996484375 9.9107421875 1 9.5
L 1 7.5
Q 0.996484375 7.0892578125 0.7 6.8
M 0.7 5.2
Q 0.996484375 4.9107421875 1 4.5
L 1 2.5
Q 0.996484375 2.0892578125 0.7 1.8 0.4107421875 1.503515625 0 1.5 -0.4107421875 1.503515625 -0.7 1.8 -0.996484375 2.0892578125 -1 2.5
L -1 4.5
Q -0.996484375 4.9107421875 -0.7 5.2 -0.4107421875 5.496484375 0 5.5 0.4107421875 5.496484375 0.7 5.2
M -0.5 -1
L -2.5 -1
Q -2.9107421875 -0.996484375 -3.2 -0.7 -3.496484375 -0.4107421875 -3.5 0 -3.496484375 0.4107421875 -3.2 0.7 -2.9107421875 0.996484375 -2.5 1
L -0.5 1
Q -0.0892578125 0.996484375 0.2 0.7 0.496484375 0.4107421875 0.5 0 0.496484375 -0.4107421875 0.2 -0.7 -0.0892578125 -0.996484375 -0.5 -1
M -5.5 -1
L -7.5 -1
Q -7.9107421875 -0.996484375 -8.2 -0.7 -8.496484375 -0.4107421875 -8.5 0 -8.496484375 0.4107421875 -8.2 0.7 -7.9107421875 0.996484375 -7.5 1
L -5.5 1
Q -5.0892578125 0.996484375 -4.8 0.7 -4.503515625 0.4107421875 -4.5 0 -4.503515625 -0.4107421875 -4.8 -0.7 -5.0892578125 -0.996484375 -5.5 -1
M -12.5 -1
Q -12.9107421875 -0.996484375 -13.2 -0.7 -13.496484375 -0.4107421875 -13.5 0 -13.496484375 0.4107421875 -13.2 0.7 -12.9107421875 0.996484375 -12.5 1
L -10.5 1
Q -10.0892578125 0.996484375 -9.8 0.7 -9.503515625 0.4107421875 -9.5 0 -9.503515625 -0.4107421875 -9.8 -0.7 -10.0892578125 -0.996484375 -10.5 -1
L -12.5 -1
M -14.8 -0.7
Q -15.0892578125 -0.996484375 -15.5 -1
L -17.5 -1
Q -17.9107421875 -0.996484375 -18.2 -0.7 -18.496484375 -0.4107421875 -18.5 0 -18.496484375 0.4107421875 -18.2 0.7 -17.9107421875 0.996484375 -17.5 1
L -15.5 1
Q -15.0892578125 0.996484375 -14.8 0.7 -14.503515625 0.4107421875 -14.5 0 -14.503515625 -0.4107421875 -14.8 -0.7
M -22.5 -1
Q -22.9107421875 -0.996484375 -23.2 -0.7 -23.496484375 -0.4107421875 -23.5 0 -23.496484375 0.4107421875 -23.2 0.7 -22.9107421875 0.996484375 -22.5 1
L -20.5 1
Q -20.0892578125 0.996484375 -19.8 0.7 -19.503515625 0.4107421875 -19.5 0 -19.503515625 -0.4107421875 -19.8 -0.7 -20.0892578125 -0.996484375 -20.5 -1
L -22.5 -1
M -24.8 -0.7
Q -25.0892578125 -0.996484375 -25.5 -1
L -27.5 -1
Q -27.9107421875 -0.996484375 -28.2 -0.7 -28.496484375 -0.4107421875 -28.5 0 -28.496484375 0.4107421875 -28.2 0.7 -27.9107421875 0.996484375 -27.5 1
L -25.5 1
Q -25.0892578125 0.996484375 -24.8 0.7 -24.503515625 0.4107421875 -24.5 0 -24.503515625 -0.4107421875 -24.8 -0.7
M -29.8 -0.7
Q -30.0892578125 -0.996484375 -30.5 -1
L -32.5 -1
Q -32.9107421875 -0.996484375 -33.2 -0.7 -33.496484375 -0.4107421875 -33.5 0 -33.496484375 0.4107421875 -33.2 0.7 -32.9107421875 0.996484375 -32.5 1
L -30.5 1
Q -30.0892578125 0.996484375 -29.8 0.7 -29.503515625 0.4107421875 -29.5 0 -29.503515625 -0.4107421875 -29.8 -0.7 Z"/>
</g>

<g id="fddbdbdndm_34_Layer2_0_FILL">
<path fill="#E50182" stroke="none" d="
M -39.25 -20.7
L -34.65 -28.6 -43.8 -28.6 -39.25 -20.7 Z"/>
</g>

<path id="dsbfsdbfdn44_0_Layer1_0_1_STROKES" stroke="#000000" stroke-width="3" stroke-linejoin="round" stroke-linecap="round" fill="none" d="
M -92.45 58.45
L 78.2 58.45 -92.45 -55.8"/>

<path id="dsbfsdbfdn44_0_Layer1_0_2_STROKES" stroke="#E50182" stroke-width="3" stroke-linejoin="round" stroke-linecap="round" fill="none" d="
M -92.45 -55.8
L -92.45 58.45"/>

<path id="fddbdbdndm_32_Layer4_0_1_STROKES" stroke="#332D2B" stroke-width="2" stroke-linejoin="round" stroke-linecap="butt" fill="none" d="
M 0 -32.5
L 0 0"/>

<path id="fddbdbdndm_32_Layer3_0_1_STROKES" stroke="#E50182" stroke-width="2" stroke-linejoin="round" stroke-linecap="butt" fill="none" d="
M -0.65 -32.5
Q -0.326171875 -32.5 0 -32.5 13.45 -32.5 22.95 -23 32.5 -13.45 32.5 0 32.5 13.45 22.95 22.95 13.45 32.5 0 32.5 -13.45 32.5 -23 22.95 -32.5 13.45 -32.5 0 -32.5 -13.45 -23 -23 -15.5587890625 -30.4021484375 -5.75 -32.025"/>

<path id="fddbdbdndm_30_Layer4_0_1_STROKES" stroke="#332D2B" stroke-width="2" stroke-linejoin="round" stroke-linecap="butt" fill="none" d="
M 0 -32.5
L 0 0 0 32.5"/>

<path id="fddbdbdndm_30_Layer3_0_1_STROKES" stroke="#E50182" stroke-width="2" stroke-linejoin="round" stroke-linecap="butt" fill="none" d="
M -5.7 32.05
Q -15.53984375 30.41015625 -23 22.95 -32.5 13.45 -32.5 0 -32.5 -13.45 -23 -23 -13.45 -32.5 0 -32.5"/>

<path id="fddbdbdndm_28_Layer4_0_1_STROKES" stroke="#332D2B" stroke-width="2" stroke-linejoin="round" stroke-linecap="butt" fill="none" d="
M 0 -32.5
L 0 0 -32.5 0"/>

<path id="fddbdbdndm_28_Layer3_0_1_STROKES" stroke="#E50182" stroke-width="2" stroke-linejoin="round" stroke-linecap="butt" fill="none" d="
M -31.975 -6.1
Q -30.2697265625 -15.6919921875 -23 -23 -13.45 -32.5 0 -32.5"/>

<path id="fddbdbdndm_34_Layer4_0_1_STROKES" stroke="#332D2B" stroke-width="2" stroke-linejoin="round" stroke-linecap="butt" fill="none" d="
M 0 -32.5
L 0 0 32.5 0"/>

<path id="fddbdbdndm_34_Layer3_0_1_STROKES" stroke="#E50182" stroke-width="2" stroke-linejoin="round" stroke-linecap="butt" fill="none" d="
M 32.1 5.35
Q 30.5416015625 15.398046875 22.95 22.95 13.45 32.5 0 32.5 -13.45 32.5 -23 22.95 -32.5 13.45 -32.5 0 -32.5 -13.45 -23 -23 -13.45 -32.5 0 -32.5"/>
</defs>

<g transform="matrix( 1, 0, 0, 1, 607.5,561.55) ">
<g transform="matrix( 1, 0, 0, 1, 0,0) ">
<use xlink:href="#dsbfsdbfdn44_0_Layer1_0_1_STROKES"/>

<use xlink:href="#dsbfsdbfdn44_0_Layer1_0_2_STROKES"/>
</g>

<g transform="matrix( 1, 0, 0, 1, 0,0) ">
<use xlink:href="#dsbfsdbfdn44_0_Layer0_0_FILL"/>
</g>
</g>

<g transform="matrix( 1, 0, 0, 1, 599.6,344.75) ">
<g transform="matrix( 1, 0, 0, 1, 0,0) ">
<use xlink:href="#fddbdbdndm_32_Layer4_0_FILL"/>

<use xlink:href="#fddbdbdndm_32_Layer4_0_1_STROKES"/>

<use xlink:href="#fddbdbdndm_32_Layer4_0_STROKES_1_FILL"/>
</g>

<g transform="matrix( 1, 0, 0, 1, 0,0) ">
<use xlink:href="#fddbdbdndm_32_Layer3_0_1_STROKES"/>
</g>

<g transform="matrix( 0.7662200927734375, -0.642486572265625, -0.6425018310546875, -0.7662353515625, 6.6,-76.7) ">
<use xlink:href="#fddbdbdndm_32_Layer2_0_FILL"/>
</g>
</g>

<g transform="matrix( 1, 0, 0, 1, 599.6,724.75) ">
<g transform="matrix( 1, 0, 0, 1, 0,0) ">
<use xlink:href="#fddbdbdndm_30_Layer4_0_FILL"/>

<use xlink:href="#fddbdbdndm_30_Layer4_0_1_STROKES"/>

<use xlink:href="#fddbdbdndm_30_Layer4_0_STROKES_1_FILL"/>
</g>

<g transform="matrix( 1, 0, 0, 1, 0,0) ">
<use xlink:href="#fddbdbdndm_30_Layer3_0_1_STROKES"/>
</g>

<g transform="matrix( 0.13818359375, -0.9903564453125, 0.990386962890625, 0.13818359375, 24.4,-3.55) ">
<use xlink:href="#fddbdbdndm_30_Layer2_0_FILL"/>
</g>
</g>

<g transform="matrix( 1, 0, 0, 1, 409.6,534.75) ">
<g transform="matrix( 1, 0, 0, 1, 0,0) ">
<use xlink:href="#fddbdbdndm_28_Layer4_0_FILL"/>

<use xlink:href="#fddbdbdndm_28_Layer4_0_1_STROKES"/>

<use xlink:href="#fddbdbdndm_28_Layer4_0_STROKES_1_FILL"/>
</g>

<g transform="matrix( 1, 0, 0, 1, 0,0) ">
<use xlink:href="#fddbdbdndm_28_Layer3_0_1_STROKES"/>
</g>

<g transform="matrix( 0.989166259765625, 0.14678955078125, -0.14678955078125, 0.989166259765625, 3.3,24.55) ">
<use xlink:href="#fddbdbdndm_28_Layer2_0_FILL"/>
</g>
</g>

<g transform="matrix( 1, 0, 0, 1, 789.6,534.75) ">
<g transform="matrix( 1, 0, 0, 1, 0,0) ">
<use xlink:href="#fddbdbdndm_34_Layer4_0_FILL"/>

<use xlink:href="#fddbdbdndm_34_Layer4_0_1_STROKES"/>

<use xlink:href="#fddbdbdndm_34_Layer4_0_STROKES_1_FILL"/>
</g>

<g transform="matrix( 1, 0, 0, 1, 0,0) ">
<use xlink:href="#fddbdbdndm_34_Layer3_0_1_STROKES"/>
</g>

<g transform="matrix( -0.989166259765625, -0.14678955078125, 0.14678955078125, -0.989166259765625, -3.3,-24.75) ">
<use xlink:href="#fddbdbdndm_34_Layer2_0_FILL"/>
</g>
</g>
</svg>
