<svg xmlns="http://www.w3.org/2000/svg" version="1.1" xmlns:xlink="http://www.w3.org/1999/xlink"
    preserveAspectRatio="none" x="0px" y="0px" width="20.05px" height="17px" viewBox="0 0 20.05 17">
    <defs>
        <filter id="Filter_1" x="-20%" y="-20%" width="140%" height="140%" color-interpolation-filters="sRGB">
            <feColorMatrix in="SourceGraphic" type="matrix" values="0 0 0 0 1 0 0 0 0 1 0 0 0 0 1 0 0 0 1 0"
                result="result1" />
        </filter>

        <g id="fdbfdnd4_4_Layer4_0_FILL">
            <path fill="#000000" stroke="none" d="
M -7.45 5.5
Q -7.95 5 -8.65 5 -9.35 5 -9.9 5.5 -10.4 6.05 -10.4 6.75 -10.4 7.45 -9.9 7.95 -9.35 8.5 -8.65 8.5 -7.95 8.5 -7.45 7.95 -6.9 7.45 -6.9 6.75 -6.9 6.05 -7.45 5.5
M -0.75 5
L -4.15 5
Q -4.9 5 -5.4 5.5 -5.9 6 -5.9 6.75 -5.9 7.5 -5.4 8 -4.9 8.5 -4.15 8.5
L -0.75 8.5 0 8.5 0.6 8.5 1.85 8.5 7.9 8.5
Q 8.65 8.5 9.15 8 9.65 7.5 9.65 6.75 9.65 6 9.15 5.5 8.65 5 7.9 5
L 1.85 5 0.6 5 0 5 -0.75 5
M -7.45 -1.25
Q -7.95 -1.75 -8.65 -1.75 -9.35 -1.75 -9.9 -1.25 -10.4 -0.7 -10.4 0 -10.4 0.7 -9.9 1.2 -9.35 1.75 -8.65 1.75 -7.95 1.75 -7.45 1.2 -6.9 0.7 -6.9 0 -6.9 -0.7 -7.45 -1.25
M -6.9 -6.75
Q -6.9 -7.45 -7.45 -8 -7.95 -8.5 -8.65 -8.5 -9.35 -8.5 -9.9 -8 -10.4 -7.45 -10.4 -6.75 -10.4 -6.05 -9.9 -5.55 -9.35 -5 -8.65 -5 -7.95 -5 -7.45 -5.55 -6.9 -6.05 -6.9 -6.75
M 1.85 -1.75
L 0.6 -1.75 0 -1.75 -0.75 -1.75 -4.15 -1.75
Q -4.9 -1.75 -5.4 -1.25 -5.9 -0.75 -5.9 0 -5.9 0.75 -5.4 1.25 -4.9 1.75 -4.15 1.75
L -0.75 1.75 0 1.75 0.6 1.75 1.85 1.75 7.9 1.75
Q 8.65 1.75 9.15 1.25 9.65 0.75 9.65 0 9.65 -0.75 9.15 -1.25 8.65 -1.75 7.9 -1.75
L 1.85 -1.75
M 9.15 -8
Q 8.65 -8.5 7.9 -8.5
L 1.85 -8.5 0.6 -8.5 0 -8.5 -0.75 -8.5 -4.15 -8.5
Q -4.9 -8.5 -5.4 -8 -5.9 -7.5 -5.9 -6.75 -5.9 -6 -5.4 -5.5 -4.9 -5 -4.15 -5
L -0.75 -5 0 -5 0.6 -5 1.85 -5 7.9 -5
Q 8.65 -5 9.15 -5.5 9.65 -6 9.65 -6.75 9.65 -7.5 9.15 -8 Z" />
        </g>
    </defs>

    <g transform="matrix( 1, 0, 0, 1, 10.4,8.5) ">
        <g transform="matrix( 1, 0, 0, 1, 0,0) ">
            <use filter="url(#Filter_1)" xlink:href="#fdbfdnd4_4_Layer4_0_FILL" />
        </g>
    </g>
</svg>