<?xml version="1.0" encoding="utf-8"?>
<!-- Generator: Adobe Illustrator 23.0.0, SVG Export Plug-In . SVG Version: 6.00 Build 0)  -->
<svg version="1.1" id="레이어_1" xmlns="http://www.w3.org/2000/svg" xmlns:xlink="http://www.w3.org/1999/xlink" x="0px"
	 y="0px" width="733.4px" height="496.8px" viewBox="0 0 733.4 496.8" enable-background="new 0 0 733.4 496.8"
	 xml:space="preserve">
<g>
	<g>
		<defs>
			<rect id="SVGID_1_" x="0" y="0" width="733.4" height="405.4"/>
		</defs>
		<clipPath id="SVGID_2_">
			<use xlink:href="#SVGID_1_"  overflow="visible"/>
		</clipPath>
		<path clip-path="url(#SVGID_2_)" fill="#B6D56A" d="M733.4,16.7c0-9.2-7.5-16.7-16.7-16.7l-700,0C7.5,0,0,7.5,0,16.7v371.9
			c0,9.2,7.5,16.7,16.7,16.7l700,0c9.2,0,16.7-7.5,16.7-16.7V16.7z"/>
		<path clip-path="url(#SVGID_2_)" fill="#BDD978" d="M17.2,1C8.3,1,1,8.2,1,17.2L1,388c0,0.4,0,0.9,0,1.3c0.6,8.4,7.6,15,16.2,15
			h698.9c0.4,0,0.9,0,1.3,0c8.4-0.6,15.1-7.6,15.1-16.2V17.3c0-0.4,0-0.8-0.1-1.2c-0.6-8.4-7.6-15-16.2-15H17.2z"/>
		<path clip-path="url(#SVGID_2_)" fill="#C4DD87" d="M17.7,2C9,2,2,9,2,17.7l0,369.7c0,0.4,0,0.8,0,1.2c0.5,8.2,7.4,14.7,15.7,14.7
			h697.8c0.4,0,0.9,0,1.2,0c8.2-0.6,14.7-7.4,14.7-15.7V17.8c0-0.4,0-0.9,0-1.2C730.8,8.5,724,2,715.7,2H17.7z"/>
		<path clip-path="url(#SVGID_2_)" fill="#CBE196" d="M18.2,2.9C9.8,2.9,3,9.8,3,18.2l0,368.7c0,0.3,0,0.8,0,1.2
			c0.5,8,7.1,14.3,15.2,14.3H715c0.3,0,0.9,0,1.2-0.1c7.9-0.5,14.3-7.1,14.3-15.2V18.4c0-0.3,0-0.8,0-1.2c-0.5-8-7.1-14.3-15.2-14.3
			H18.2z"/>
		<path clip-path="url(#SVGID_2_)" fill="#D2E5A4" d="M18.7,3.9C10.6,3.9,4,10.5,4,18.6v367.6c0,0.3,0,0.8,0,1.1
			c0.4,7.7,6.8,13.9,14.7,13.9h695.7c0.3,0,0.9,0,1.1,0c7.7-0.4,13.9-6.8,13.9-14.7V18.9c0-0.3,0-0.8,0-1.1
			c-0.4-7.7-6.8-13.9-14.7-13.9H18.7z"/>
		<path clip-path="url(#SVGID_2_)" fill="#D9E9B3" d="M19.2,4.9C11.4,4.9,5,11.3,5,19.1l0,366.6c0,0.2,0,0.8,0,1.1
			c0.4,7.5,6.6,13.5,14.2,13.5h694.7c0.2,0,0.8,0,1.1,0c7.5-0.4,13.5-6.6,13.5-14.2V19.5c0-0.2,0-0.8,0-1.1
			c-0.4-7.5-6.6-13.5-14.2-13.5L19.2,4.9z"/>
		<path clip-path="url(#SVGID_2_)" fill="#E0EDC1" d="M19.7,5.9C12.1,5.9,6,12,6,19.6v365.5c0,0.2,0,0.8,0,1
			c0.3,7.3,6.3,13.1,13.7,13.1h693.6c0.2,0,0.8,0,1,0c7.3-0.3,13.1-6.3,13.1-13.7V20c0-0.2,0-0.8,0-1c-0.3-7.3-6.3-13.1-13.7-13.1
			H19.7z"/>
		<path clip-path="url(#SVGID_2_)" fill="#E7F0CE" d="M20.2,6.9C12.9,6.9,7,12.8,7,20.1v364.5c0,0.2,0,0.8,0,1
			c0.2,7.1,6,12.7,13.2,12.7l692.6,0c0.2,0,0.8,0,1,0c7.1-0.2,12.7-6.1,12.7-13.2V20.6c0-0.2,0-0.8,0-1c-0.2-7.1-6.1-12.7-13.2-12.7
			H20.2z"/>
		<path clip-path="url(#SVGID_2_)" fill="#EDF4DB" d="M20.7,7.9C13.7,7.9,8,13.6,8,20.6V384c0,0.1,0,0.8,0,0.9
			c0.2,6.8,5.8,12.3,12.7,12.3h691.5c0.1,0,0.8,0,0.9,0c6.8-0.2,12.3-5.8,12.3-12.7V21.1v-0.9c-0.2-6.8-5.8-12.3-12.7-12.3L20.7,7.9
			z"/>
		<path clip-path="url(#SVGID_2_)" fill="#F3F8E8" d="M21.2,8.8C14.4,8.8,9,14.3,9,21v362.4v0.9c0.1,6.6,5.5,11.9,12.2,11.9h690.4
			c0.1,0,0.8,0,0.9,0c6.6-0.1,11.9-5.5,11.9-12.2V21.7c0-0.1,0-0.8,0-0.9c-0.1-6.6-5.5-11.9-12.1-11.9H21.2z"/>
		<path clip-path="url(#SVGID_2_)" fill="#FAFCF4" d="M21.7,9.8C15.2,9.8,10,15.1,10,21.5v361.3c0,0,0,0.8,0,0.8
			c0.1,6.4,5.3,11.6,11.7,11.6h689.4c0,0,0.8,0,0.8,0c6.4-0.1,11.5-5.3,11.5-11.7V22.2v-0.8c-0.1-6.4-5.3-11.5-11.7-11.5H21.7z"/>
		<path clip-path="url(#SVGID_2_)" fill="#FFFFFF" d="M722.4,22c0-6.2-5-11.1-11.2-11.1H22.2C16,10.8,11,15.8,11,22v361
			c0,6.2,5,11.2,11.2,11.2h689.1c6.2,0,11.2-5,11.2-11.2V22z"/>
		<path clip-path="url(#SVGID_2_)" fill="#FFFFFF" d="M711.3,10.8H309H22.2c-2.1,0-3.9,0.6-5.6,1.5C13.3,14.3,11,17.9,11,22v52.2
			V383c0,6.2,5,11.2,11.2,11.2H309h402.2c6.2,0,11.2-5,11.2-11.2V74.2V22C722.4,15.8,717.4,10.8,711.3,10.8"/>
		<path clip-path="url(#SVGID_2_)" fill="none" stroke="#AACF52" stroke-width="3.7755" d="M578.2,10.7v384.5 M435.5,10.7v384.5
			 M292.7,10.7v384.5 M149.9,10.7v384.5 M722.4,266H7.9 M722.4,138.4H7.9"/>
		<rect x="39.8" y="37.6" clip-path="url(#SVGID_2_)" fill="#C8245B" width="70.3" height="70.3"/>
		<rect x="471.6" y="37.6" clip-path="url(#SVGID_2_)" fill="#0086CD" width="70.3" height="70.3"/>
		<polygon clip-path="url(#SVGID_2_)" fill="#0086CD" points="223,37.3 263.9,108.1 182.1,108.1 		"/>
		<polygon clip-path="url(#SVGID_2_)" fill="#C8245B" points="657.2,37.3 698.1,108.1 616.3,108.1 		"/>
		<path clip-path="url(#SVGID_2_)" fill="#C8245B" d="M399.4,72.7c0,19.5-15.8,35.4-35.4,35.4c-19.6,0-35.4-15.8-35.4-35.4
			c0-19.5,15.8-35.4,35.4-35.4C383.5,37.3,399.4,53.1,399.4,72.7"/>
		<rect x="182.5" y="166.2" clip-path="url(#SVGID_2_)" fill="#0086CD" width="70.3" height="70.3"/>
		<polygon clip-path="url(#SVGID_2_)" fill="#C8245B" points="368.2,165.9 409,236.7 327.2,236.7 		"/>
		<path clip-path="url(#SVGID_2_)" fill="#C8245B" d="M110.3,201.3c0,19.6-15.8,35.4-35.4,35.4c-19.5,0-35.4-15.8-35.4-35.4
			c0-19.5,15.8-35.4,35.4-35.4C94.5,165.9,110.3,181.7,110.3,201.3"/>
		<rect x="615.6" y="166.2" clip-path="url(#SVGID_2_)" fill="#C8245B" width="70.3" height="70.3"/>
		<path clip-path="url(#SVGID_2_)" fill="#0086CD" d="M543.3,201.3c0,19.6-15.8,35.4-35.4,35.4c-19.6,0-35.4-15.8-35.4-35.4
			c0-19.5,15.8-35.4,35.4-35.4C527.5,165.9,543.3,181.7,543.3,201.3"/>
		<polygon clip-path="url(#SVGID_2_)" fill="#C8245B" points="79.1,295.4 120,366.2 38.1,366.2 		"/>
		<polygon clip-path="url(#SVGID_2_)" fill="#0086CD" points="508.6,295.4 549.4,366.2 467.6,366.2 		"/>
		<rect x="326.5" y="295.6" clip-path="url(#SVGID_2_)" fill="#C8245B" width="70.3" height="70.3"/>
		<path clip-path="url(#SVGID_2_)" fill="#0086CD" d="M254.3,330.8c0,19.6-15.8,35.4-35.4,35.4c-19.5,0-35.4-15.8-35.4-35.4
			c0-19.5,15.8-35.4,35.4-35.4C238.4,295.4,254.3,311.2,254.3,330.8"/>
	</g>
	<g>
		<defs>
			<rect id="SVGID_3_" x="213.9" y="426" width="89.8" height="70.8"/>
		</defs>
		<clipPath id="SVGID_4_">
			<use xlink:href="#SVGID_3_"  overflow="visible"/>
		</clipPath>
		<path clip-path="url(#SVGID_4_)" fill="#C8245B" d="M289.5,461.4c0,19.5-15.8,35.4-35.4,35.4c-19.6,0-35.4-15.8-35.4-35.4
			s15.8-35.4,35.4-35.4C273.7,426,289.5,441.9,289.5,461.4"/>
	</g>
	<path fill="none" stroke="#C8245B" stroke-width="1.4158" d="M657,335.2c0,0,42.3,120.9-48.6,123.6"/>
	<polygon fill="#C8245B" points="587.4,459.5 616.3,469 608.4,458.8 615.7,448.2 	"/>
</g>
<g>
</g>
<g>
</g>
<g>
</g>
<g>
</g>
<g>
</g>
</svg>
