
<svg xmlns="http://www.w3.org/2000/svg" version="1.1" xmlns:xlink="http://www.w3.org/1999/xlink" preserveAspectRatio="none" x="0px" y="0px" width="1200px" height="160px" viewBox="0 0 1200 160">
<defs>
<filter id="Filter_1" x="-20%" y="-20%" width="140%" height="140%" color-interpolation-filters="sRGB">
<feColorMatrix in="SourceGraphic" type="matrix" values="0 0 0 0 1 0 0 0 0 0.4 0 0 0 0 0.4 0 0 0 1 0" result="result1"/>
</filter>

<g id="Layer0_0_FILL">
<path fill="#1E1E1E" stroke="none" d="
M 254.8 49.05
Q 254.95 49.15 255.3 49.15
L 268.1 49.15 268.1 55.25
Q 268.1 55.65 268.25 55.8 268.4 55.95 268.85 55.95
L 271.75 55.95
Q 272.15 55.95 272.25 55.8 272.4 55.7 272.4 55.25
L 272.4 49.15 276.1 49.15
Q 276.45 49.15 276.6 49.05 276.75 48.95 276.75 48.55
L 276.75 45.65
Q 276.75 45.25 276.6 45.15 276.45 45.05 276.1 45.05
L 272.4 45.05 272.4 26.15
Q 272.4 25.8 272.35 25.7 272.3 25.55 272 25.55
L 268.35 25.55
Q 267.95 25.55 267.85 25.65 267.75 25.75 267.55 26.1
L 255.15 44.7
Q 255 44.85 254.85 45.15 254.65 45.45 254.65 45.7
L 254.65 48.7
Q 254.65 49 254.8 49.05
M 268.1 32
L 268.1 45.05 259.5 45.05 268.1 32
M 244.35 25.7
Q 244.25 25.55 243.55 25.55
L 241.45 25.55
Q 241.3 25.55 241.1 25.65 240.9 25.7 240.85 25.8
L 234.7 31.45
Q 234.5 31.65 234.5 31.85 234.45 32.1 234.6 32.25
L 236.4 34.4
Q 236.55 34.55 236.8 34.5 237.05 34.5 237.3 34.35
L 240.25 31.75 240.25 55.45
Q 240.25 55.95 240.8 55.95
L 244 55.95
Q 244.5 55.95 244.5 55.45
L 244.5 26.65
Q 244.5 25.85 244.35 25.7
M 285.75 42.65
Q 285.85 42.8 286.05 42.8
L 307.2 42.8
Q 307.7 42.8 307.7 42.3
L 307.7 39.2
Q 307.7 38.7 307.2 38.7
L 286.05 38.7
Q 285.85 38.7 285.75 38.85 285.6 39 285.6 39.2
L 285.6 42.3
Q 285.6 42.5 285.75 42.65
M 427.55 109.35
Q 427.75 109.65 427.7 110.5 427.65 112.45 426.8 114.8 425.95 117.1 424.4 119.4 422.9 121.65 420.7 123.8 418.5 125.95 415.8 127.6 415.6 127.75 415.45 128.05 415.3 128.35 415.55 128.7
L 417.15 130.95
Q 417.35 131.2 417.7 131.15 418 131.1 418.35 130.95 421.45 128.9 424.05 126.4 426.6 123.9 428.4 121 430.2 118.1 431.2 114.85 432.2 111.65 432.25 108.15 432.3 106.6 431.7 105.95 431.05 105.3 429.3 105.3
L 417.7 105.3
Q 417.5 105.3 417.3 105.45 417.1 105.6 417.1 105.8
L 417.1 108.55
Q 417.1 109.05 417.7 109.05
L 426.55 109.05
Q 427.35 109.05 427.55 109.35
M 460.25 126.25
Q 460.05 126.25 459.85 126.35 459.7 126.5 459.7 126.75
L 459.7 129.55
Q 459.7 129.75 459.85 129.9 460.05 130.05 460.25 130.05
L 479.05 130.05
Q 479.5 130.05 479.65 130.15 479.8 130.3 479.8 130.7
L 479.8 139.5
Q 479.8 139.7 480 139.85 480.15 140.05 480.4 140.05
L 483.85 140.05
Q 484.05 140.05 484.25 139.85 484.4 139.7 484.4 139.5
L 484.4 129
Q 484.4 127.45 483.85 126.85 483.3 126.25 481.75 126.25
L 460.25 126.25
M 448.35 102.7
Q 448.35 102.15 447.8 102.15
L 444.35 102.15
Q 443.8 102.15 443.8 102.7
L 443.8 116.85 440.1 116.85 440.1 103.4
Q 440.1 102.9 439.55 102.9
L 436.3 102.9
Q 435.75 102.9 435.75 103.4
L 435.75 138.1
Q 435.75 138.65 436.3 138.65
L 439.55 138.65
Q 440.1 138.65 440.1 138.1
L 440.1 120.7 443.8 120.7 443.8 139.6
Q 443.8 140.15 444.3 140.15
L 447.8 140.15
Q 448.35 140.15 448.35 139.6
L 448.35 102.7
M 468.35 104.15
Q 468.35 107.55 467.75 110.15 467.15 112.75 465.75 114.95 464.6 113.9 463.6 112.6 462.6 111.25 462.15 109.95 462.9 107.3 462.9 104.25 462.9 104 462.7 103.8 462.55 103.6 462.35 103.6
L 459.3 103.55
Q 459.05 103.55 458.9 103.7 458.7 103.9 458.7 104.15 458.7 106.35 458.35 108.2 458.05 110.1 457.25 111.75 456.5 113.35 455.3 114.85 454.05 116.4 452.2 117.9 451.5 118.55 452.1 119.1
L 453.6 120.7
Q 453.85 120.95 454.25 120.9 454.6 120.9 455 120.6 458.35 118.1 460.25 114.6 460.7 115.5 461.55 116.45 462.4 117.4 463.3 118.1 462.7 118.65 462.15 119.15 461.55 119.7 460.9 120.25 460.15 120.85 460.75 121.45
L 462.35 123.1
Q 462.6 123.35 462.95 123.3 463.35 123.25 463.7 122.9 467.85 119.7 469.95 115.75 470.45 116.5 471.05 117.2 471.7 117.9 472.35 118.55 473 119.2 473.7 119.7 474.35 120.25 474.9 120.55 475.8 121.1 476.25 120.5
L 477.55 118.9
Q 477.85 118.55 477.85 118.2 477.9 117.85 477.55 117.6 476.6 117.1 475.75 116.35 474.85 115.6 474.15 114.75 473.35 113.9 472.75 113 472.1 112.1 471.75 111.25 472.2 109.65 472.35 107.9 472.55 106.15 472.55 104.25 472.55 104 472.4 103.8 472.25 103.6 472.05 103.6
L 468.9 103.55
Q 468.7 103.55 468.55 103.7 468.35 103.9 468.35 104.15
M 484.45 102.7
Q 484.45 102.15 483.9 102.15
L 480.55 102.15
Q 480.05 102.15 480.05 102.7
L 480.05 123.6
Q 480.05 124.1 480.55 124.1
L 483.9 124.1
Q 484.45 124.1 484.45 123.6
L 484.45 102.7
M 397.55 109.85
Q 399.1 109.4 400.75 109.4 402.5 109.4 403.65 110.65 404.85 111.9 404.85 113.8 404.85 115.5 403.25 118.1 401.65 120.75 398.3 124.7
L 392.2 131.95
Q 392 132.25 391.8 132.55 391.65 132.9 391.65 133.2
L 391.65 135.5
Q 391.65 136 392.4 136
L 409.45 136
Q 410 136 410 135.3
L 410 132.5
Q 410 131.9 409.45 131.9
L 397.7 131.9
Q 398.7 130.75 399.7 129.6 400.7 128.4 401.55 127.3 402.65 126 404.05 124.4 405.4 122.75 406.6 121 407.8 119.2 408.6 117.35 409.4 115.5 409.4 113.7 409.4 111.6 408.7 110 408 108.4 406.85 107.35 405.7 106.3 404.05 105.75 402.45 105.2 400.5 105.2 398.65 105.2 396.65 105.85 394.7 106.5 393.2 107.3 392.8 107.5 392.65 107.75 392.55 107.9 392.65 108.1
L 393.2 111.15
Q 393.3 111.5 393.6 111.55 393.9 111.55 394.25 111.35 396.05 110.3 397.55 109.85
M 407.7 42.3
L 407.7 39.2
Q 407.7 38.7 407.2 38.7
L 386.05 38.7
Q 385.85 38.7 385.75 38.85 385.6 39 385.6 39.2
L 385.6 42.3
Q 385.6 42.5 385.75 42.65 385.85 42.8 386.05 42.8
L 407.2 42.8
Q 407.7 42.8 407.7 42.3
M 606.6 102.7
Q 606.6 102.15 606.1 102.15
L 602.55 102.15
Q 602 102.15 602 102.7
L 602 111.65 595.25 111.65 595.25 104.3
Q 595.25 104.05 595.1 103.9 594.95 103.75 594.7 103.75
L 591.2 103.75
Q 591 103.75 590.85 103.9 590.7 104.05 590.7 104.3
L 590.7 110.45 582.2 110.45 582.2 104.35
Q 582.2 104.1 582 104 581.85 103.85 581.65 103.85
L 578.15 103.85
Q 577.95 103.85 577.8 104 577.65 104.1 577.65 104.35
L 577.65 120.4
Q 577.65 122 578.3 122.6 578.9 123.2 580.7 123.2
L 592.25 123.2
Q 593.95 123.2 594.6 122.55 595.25 121.9 595.25 120.5
L 595.25 115.5 602 115.5 602 128.65
Q 602 129.15 602.55 129.15
L 606.1 129.15
Q 606.6 129.15 606.6 128.65
L 606.6 102.7
M 590.7 118.75
Q 590.7 119.45 589.95 119.45
L 582.9 119.45
Q 582.2 119.45 582.2 118.75
L 582.2 114.15 590.7 114.15 590.7 118.75
M 607.75 136.2
Q 607.75 136 607.6 135.85 607.4 135.7 607.2 135.7
L 588.7 135.7
Q 588.3 135.7 588.1 135.55 587.95 135.45 587.95 135.05
L 587.95 127.9
Q 587.95 127.75 587.8 127.55 587.6 127.35 587.3 127.35
L 583.9 127.35
Q 583.7 127.35 583.5 127.55 583.35 127.75 583.35 127.9
L 583.35 136.65
Q 583.35 138.25 583.95 138.9 584.6 139.5 586.4 139.5
L 607.2 139.5
Q 607.4 139.5 607.6 139.4 607.75 139.3 607.75 139.05
L 607.75 136.2
M 643.2 107
Q 643.75 107 643.75 106.5
L 643.75 103.9
Q 643.75 103.3 643.2 103.3
L 629.3 103.3
Q 627.75 103.3 627.2 103.9 626.6 104.5 626.6 105.9
L 626.6 118.4
Q 626.6 119.8 627.4 120.4 628.15 121 629.5 121.1 631.45 121.15 633.8 121.1 636.1 121.1 638.45 120.95 640.75 120.8 642.9 120.5 645.05 120.25 646.55 119.85 646.75 119.85 647 119.7 647.25 119.5 647.15 119.1
L 646.85 117.05
Q 646.75 116.75 646.5 116.6 646.25 116.5 645.95 116.55 644.4 116.8 642.6 117 640.75 117.15 638.9 117.3 637.1 117.4 635.4 117.45 633.7 117.45 632.4 117.4 631.65 117.35 631.4 117.15 631.2 116.95 631.2 116.3
L 631.2 107.7
Q 631.2 107 631.9 107
L 643.2 107
M 486.05 42.8
L 507.2 42.8
Q 507.7 42.8 507.7 42.3
L 507.7 39.2
Q 507.7 38.7 507.2 38.7
L 486.05 38.7
Q 485.85 38.7 485.75 38.85 485.6 39 485.6 39.2
L 485.6 42.3
Q 485.6 42.5 485.75 42.65 485.85 42.8 486.05 42.8
M 607.7 42.3
L 607.7 39.2
Q 607.7 38.7 607.2 38.7
L 586.05 38.7
Q 585.85 38.7 585.75 38.85 585.6 39 585.6 39.2
L 585.6 42.3
Q 585.6 42.5 585.75 42.65 585.85 42.8 586.05 42.8
L 607.2 42.8
Q 607.7 42.8 607.7 42.3
M 743.45 102.7
Q 743.45 102.15 742.9 102.15
L 739.5 102.15
Q 738.9 102.15 738.9 102.7
L 738.9 110.9 735.3 110.9 735.3 103.3
Q 735.3 102.8 734.8 102.8
L 731.5 102.8
Q 730.95 102.8 730.95 103.3
L 730.95 121.8
Q 730.95 122.35 731.5 122.35
L 734.8 122.35
Q 735.3 122.35 735.3 121.8
L 735.3 114.7 738.9 114.7 738.9 122.25
Q 738.9 122.75 739.45 122.75
L 742.9 122.75
Q 743.45 122.75 743.45 122.25
L 743.45 102.7
M 794.35 122.95
Q 794.35 122.75 794.15 122.55 793.95 122.35 793.75 122.35
L 758.95 122.35
Q 758.65 122.35 758.5 122.55 758.35 122.75 758.35 122.95
L 758.35 125.55
Q 758.35 125.75 758.5 126 758.65 126.2 758.95 126.2
L 774 126.2 774 139.3
Q 774 139.85 774.55 139.85
L 778.05 139.85
Q 778.6 139.85 778.6 139.3
L 778.6 126.2 793.75 126.2
Q 793.95 126.2 794.15 126 794.35 125.75 794.35 125.55
L 794.35 122.95
M 790.65 117.75
L 791.85 115.1
Q 791.95 114.8 791.8 114.6 791.65 114.4 791.35 114.35 789.2 113.8 787.15 112.9 785.1 112 783.4 110.75 781.7 109.55 780.4 108.1 779.15 106.65 778.6 105 778.75 104 778.85 102.8 778.85 102.15 778.3 102.15
L 774.9 102.05
Q 774.6 102.05 774.4 102.25 774.25 102.45 774.2 102.75 773.95 105.25 773 107.2 772.05 109.1 770.4 110.6 768.75 112.1 766.5 113.2 764.25 114.3 761.4 115.1 761.1 115.15 760.95 115.4 760.85 115.7 760.95 115.95
L 762.35 118.55
Q 762.45 118.7 762.7 118.75 763 118.75 763.3 118.7 767.85 117.5 771.3 115.35 774.75 113.15 776.65 110.1 777.5 111.5 778.95 112.75 780.4 114.05 782.15 115.15 783.95 116.2 785.9 117 787.85 117.75 789.8 118.1 790.45 118.25 790.65 117.75
M 655.4 126.5
Q 655.4 125.1 654.85 124.55 654.3 124 652.65 124
L 632.1 124
Q 631.85 124 631.7 124.15 631.5 124.35 631.5 124.55
L 631.5 127.2
Q 631.5 127.4 631.7 127.55 631.85 127.7 632.1 127.7
L 650.35 127.7
Q 650.75 127.7 650.85 127.8 650.9 127.9 650.9 128.3
L 650.9 129.7
Q 650.9 130.1 650.85 130.2 650.75 130.3 650.4 130.3
L 634.25 130.3
Q 632.65 130.3 632.15 130.9 631.6 131.45 631.6 132.75
L 631.6 137.55
Q 631.6 138.85 632.15 139.45 632.7 140.05 634.3 140.05
L 655.9 140.05
Q 656.05 140.05 656.25 139.85 656.4 139.7 656.4 139.5
L 656.4 136.95
Q 656.4 136.65 656.25 136.5 656.05 136.35 655.85 136.35
L 636.7 136.35
Q 636.3 136.35 636.2 136.3 636.1 136.25 636.1 135.9
L 636.1 134.25
Q 636.1 133.9 636.2 133.8 636.3 133.7 636.65 133.7
L 652.65 133.7
Q 654.3 133.7 654.85 133.2 655.4 132.7 655.4 131.3
L 655.4 126.5
M 650.8 102.7
L 650.8 109.95 642.3 109.95
Q 642.1 109.95 641.9 110.1 641.7 110.25 641.7 110.45
L 641.7 113.1
Q 641.7 113.25 641.9 113.45 642.1 113.6 642.3 113.6
L 650.8 113.6 650.8 121.65
Q 650.8 121.85 650.95 122 651.1 122.2 651.35 122.2
L 654.9 122.2
Q 655.1 122.2 655.25 122 655.4 121.85 655.4 121.6
L 655.4 102.7
Q 655.4 102.15 654.9 102.15
L 651.35 102.15
Q 650.8 102.15 650.8 102.7
M 722.65 135.9
L 722.65 134.5
Q 722.65 134.1 722.75 134 722.8 133.9 723.1 133.9
L 740.7 133.9
Q 742.35 133.9 742.9 133.4 743.45 132.9 743.45 131.5
L 743.45 126.95
Q 743.45 125.55 742.9 125 742.35 124.5 740.7 124.5
L 718.6 124.5
Q 718.4 124.5 718.2 124.65 718.05 124.8 718.05 125
L 718.05 127.65
Q 718.05 127.85 718.2 128 718.4 128.1 718.6 128.1
L 738.45 128.1
Q 738.8 128.1 738.9 128.2 738.95 128.3 738.95 128.75
L 738.95 129.9
Q 738.95 130.3 738.9 130.4 738.8 130.5 738.5 130.5
L 720.75 130.5
Q 719.2 130.5 718.65 131.1 718.1 131.65 718.1 132.9
L 718.1 137.55
Q 718.1 138.85 718.7 139.45 719.25 140.05 720.8 140.05
L 743.95 140.05
Q 744.1 140.05 744.3 139.85 744.5 139.7 744.5 139.5
L 744.5 136.95
Q 744.5 136.65 744.3 136.5 744.1 136.35 743.9 136.35
L 723.15 136.35
Q 722.8 136.35 722.75 136.3 722.65 136.25 722.65 135.9
M 688.65 102.7
L 688.65 115.75 682.7 115.75
Q 682.5 113.2 681.7 111.1 680.95 109.05 679.7 107.6 678.45 106.1 676.7 105.3 675 104.5 672.85 104.5 670.6 104.5 668.8 105.45 666.95 106.4 665.7 108.1 664.45 109.85 663.75 112.3 663.1 114.7 663.1 117.75 663.1 120.65 663.75 123.1 664.45 125.5 665.7 127.25 666.95 129 668.8 129.95 670.6 130.95 672.85 130.95 675 130.95 676.7 130.15 678.45 129.35 679.7 127.9 680.95 126.4 681.7 124.3 682.5 122.2 682.7 119.6
L 688.65 119.6 688.65 139.6
Q 688.65 140.15 689.15 140.15
L 692.7 140.15
Q 693.25 140.15 693.25 139.6
L 693.25 102.7
Q 693.25 102.15 692.7 102.15
L 689.15 102.15
Q 688.65 102.15 688.65 102.7
M 675.15 109.35
Q 676.15 110.1 676.85 111.3 677.5 112.55 677.85 114.25 678.25 115.9 678.25 117.75 678.25 119.5 677.85 121.2 677.5 122.85 676.85 124.1 676.15 125.35 675.15 126.1 674.15 126.9 672.85 126.9 671.65 126.9 670.65 126.1 669.7 125.35 669 124.1 668.3 122.85 667.95 121.2 667.6 119.5 667.6 117.75 667.6 115.9 667.95 114.25 668.3 112.55 669 111.3 669.7 110.1 670.65 109.35 671.65 108.6 672.85 108.6 674.15 108.6 675.15 109.35
M 717.05 103.7
Q 716.9 103.55 716.65 103.55
L 713.2 103.55
Q 713 103.55 712.8 103.7 712.65 103.9 712.65 104.1
L 712.65 117.9
Q 712.65 119.3 713.2 120 713.8 120.7 715.55 120.8 717.05 120.9 718.95 120.8 720.9 120.75 722.75 120.6 724.65 120.4 726.3 120.15 728 119.85 729.05 119.55 729.25 119.5 729.45 119.3 729.65 119.05 729.55 118.85
L 729.15 116.4
Q 729.1 116.2 728.9 116.1 728.7 115.95 728.5 116.05 727.3 116.3 725.85 116.5 724.5 116.65 723.1 116.8 721.65 116.95 720.4 116.95 719.05 117 718 116.95 717.6 116.9 717.4 116.8 717.25 116.65 717.25 116.3
L 717.25 104.1
Q 717.25 103.9 717.05 103.7
M 707.7 42.3
L 707.7 39.2
Q 707.7 38.7 707.2 38.7
L 686.05 38.7
Q 685.85 38.7 685.75 38.85 685.6 39 685.6 39.2
L 685.6 42.3
Q 685.6 42.5 685.75 42.65 685.85 42.8 686.05 42.8
L 707.2 42.8
Q 707.7 42.8 707.7 42.3
M 785.6 42.3
Q 785.6 42.5 785.75 42.65 785.85 42.8 786.05 42.8
L 807.2 42.8
Q 807.7 42.8 807.7 42.3
L 807.7 39.2
Q 807.7 38.7 807.2 38.7
L 786.05 38.7
Q 785.85 38.7 785.75 38.85 785.6 39 785.6 39.2
L 785.6 42.3
M 914.55 102.7
Q 914.55 102.15 914.05 102.15
L 910.5 102.15
Q 909.95 102.15 909.95 102.7
L 909.95 139.6
Q 909.95 140.15 910.5 140.15
L 914.05 140.15
Q 914.55 140.15 914.55 139.6
L 914.55 102.7
M 960.95 137.55
Q 961.85 138.45 963.15 138.45 964.4 138.45 965.3 137.55 966.15 136.65 966.15 135.35 966.15 134.05 965.3 133.2 964.4 132.3 963.15 132.3 961.85 132.3 960.95 133.2 960.05 134.05 960.05 135.35 960.05 136.65 960.95 137.55
M 940.35 108.5
L 940.35 105.7
Q 940.35 105.15 939.8 105.15
L 925.25 105.15
Q 923.75 105.15 923.2 105.7 922.6 106.3 922.6 107.7
L 922.6 126.65
Q 922.6 128.1 923.3 128.65 924 129.25 925.5 129.35 927.15 129.45 929.55 129.35 931.95 129.3 934.5 129.05 937.05 128.85 939.4 128.5 941.8 128.1 943.4 127.65 943.6 127.55 943.8 127.4 943.95 127.3 943.9 126.85
L 943.45 124.5
Q 943.3 123.9 942.7 124.05 940.9 124.35 938.95 124.65 936.9 124.9 935 125.1 933.1 125.3 931.35 125.35 929.65 125.45 928.4 125.3 927.65 125.25 927.4 125.05 927.2 124.85 927.2 124.25
L 927.2 109.7
Q 927.2 109 927.9 109
L 939.8 109
Q 940.35 109 940.35 108.5
M 956.5 120.1
L 956.5 117.3
Q 956.5 117.1 956.3 116.95 956.1 116.8 955.9 116.8
L 950.5 116.8 950.5 102.7
Q 950.5 102.15 949.95 102.15
L 946.4 102.15
Q 945.9 102.15 945.9 102.7
L 945.9 139.6
Q 945.9 140.15 946.4 140.15
L 949.95 140.15
Q 950.5 140.15 950.5 139.6
L 950.5 120.65 955.9 120.65
Q 956.1 120.65 956.3 120.5 956.5 120.3 956.5 120.1
M 822.55 128.15
Q 822.65 127.55 822.7 126.95 822.75 126.3 822.75 125.6 822.75 125.15 822.15 125.15
L 819 125.15
Q 818.5 125.15 818.5 125.7 818.5 129.25 816.9 132.1 815.3 135 811.75 136.95 811.3 137.15 811.3 137.4 811.3 137.65 811.5 137.9
L 813 140.05
Q 813.3 140.4 813.6 140.35 813.9 140.3 814.2 140.1 816.25 139.05 817.85 137.5 819.5 135.95 820.6 134.05 821.55 135.95 823.25 137.5 824.9 139.05 826.6 139.75 827.45 140.15 828.2 139.75 830.1 138.7 831.7 137.3 833.3 135.9 834.4 134 834.9 134.95 835.7 135.85 836.45 136.8 837.3 137.6 838.1 138.35 839 138.95 839.9 139.55 840.7 139.85 841.35 140.15 841.6 139.8
L 843.2 137.5
Q 843.35 137.3 843.3 137.05 843.3 136.8 842.95 136.6 841.85 136.05 840.8 135.2 839.7 134.35 838.8 133.25 837.9 132.2 837.25 130.95 836.6 129.65 836.3 128.25 836.4 127.6 836.45 126.95 836.5 126.3 836.5 125.6 836.5 125.35 836.35 125.25 836.15 125.15 835.9 125.15
L 832.75 125.15
Q 832.25 125.15 832.25 125.7 832.25 128.7 831.2 131.1 830.15 133.55 828 135.15 827.65 135.5 827.4 135.4 827.15 135.35 826.85 135.15 826.15 134.7 825.5 134 824.8 133.25 824.2 132.35 823.65 131.45 823.2 130.4 822.75 129.35 822.55 128.15
M 827.95 109.15
Q 827.25 107.45 825.95 106.25 824.65 105 822.85 104.3 821.1 103.55 818.9 103.55 816.8 103.55 815.05 104.3 813.3 105 812.05 106.25 810.75 107.45 810.05 109.15 809.4 110.85 809.4 112.75 809.4 114.75 810.05 116.45 810.75 118.1 812.05 119.35 813.3 120.5 815.05 121.2 816.8 121.9 818.9 121.9 821.1 121.9 822.85 121.2 824.65 120.5 825.95 119.35 827.25 118.1 827.95 116.45 828.65 114.75 828.65 112.75 828.65 110.85 827.95 109.15
M 815.25 109.05
Q 816.65 107.7 818.9 107.7 821.3 107.7 822.7 109.05 824.1 110.45 824.1 112.85 824.1 115.25 822.7 116.6 821.3 118 818.9 118 816.65 118 815.25 116.6 813.85 115.25 813.85 112.85 813.85 110.45 815.25 109.05
M 834.9 102.15
Q 834.35 102.15 834.35 102.7
L 834.35 122.8
Q 834.35 123.35 834.9 123.35
L 838.45 123.35
Q 838.95 123.35 838.95 122.85
L 838.95 102.7
Q 838.95 102.15 838.45 102.15
L 834.9 102.15
M 870.45 125.4
L 870.45 129.05 855.05 129.05 855.05 125.4
Q 855.05 125.2 854.9 125.05 854.7 124.9 854.55 124.9
L 851 124.9
Q 850.8 124.9 850.65 125.05 850.5 125.2 850.5 125.4
L 850.5 136.75
Q 850.5 138.3 851.15 138.9 851.75 139.5 853.5 139.5
L 872.05 139.5
Q 873.75 139.5 874.4 138.85 875.05 138.2 875.05 136.85
L 875.05 125.4
Q 875.05 125.2 874.9 125.05 874.7 124.85 874.55 124.85
L 870.95 124.85
Q 870.75 124.85 870.6 125.05 870.45 125.2 870.45 125.4
M 870.45 132.75
L 870.45 135.1
Q 870.45 135.75 869.7 135.75
L 855.85 135.75
Q 855.05 135.75 855.05 135.1
L 855.05 132.75 870.45 132.75
M 880.1 122.2
Q 880.35 122.2 880.5 122 880.7 121.75 880.7 121.55
L 880.7 119
Q 880.7 118.8 880.5 118.6 880.35 118.45 880.1 118.45
L 845.35 118.45
Q 844.75 118.45 844.75 119
L 844.75 121.55
Q 844.75 122.2 845.35 122.2
L 880.1 122.2
M 876.35 115.4
L 877.55 113.05
Q 877.65 112.85 877.55 112.65 877.45 112.4 877.2 112.3 875.15 111.85 873.15 111.1 871.15 110.4 869.5 109.4 867.8 108.4 866.55 107.1 865.3 105.85 864.7 104.35 864.75 104 864.8 103.65 864.8 103.25 864.85 102.9 864.85 102.35 864.25 102.35
L 861.2 102.25
Q 860.5 102.25 860.45 102.9 860.3 104.85 859.35 106.4 858.4 107.95 856.8 109.15 855.25 110.3 853.1 111.2 850.9 112.05 848.35 112.6 848.1 112.7 848 112.9 847.95 113.15 848 113.35
L 849.1 115.9
Q 849.25 116.3 850.15 116.1 854.4 115.3 857.65 113.45 860.95 111.6 862.85 108.9 863.75 110.2 865.25 111.4 866.7 112.55 868.45 113.5 870.15 114.45 872 115.05 873.8 115.65 875.45 115.85 875.85 115.95 876.05 115.75 876.3 115.6 876.35 115.4
M 890.5 105.05
Q 890.5 104.85 890.3 104.65 890.1 104.5 889.9 104.5
L 886.45 104.5
Q 886.25 104.5 886.05 104.65 885.9 104.85 885.9 105.05
L 885.9 125.9
Q 885.9 127.25 886.55 128.05 887.25 128.85 888.8 128.9 891 129.05 893.4 129 895.85 128.9 898.2 128.75 900.55 128.55 902.75 128.25 904.95 127.9 906.7 127.45 907.05 127.35 907.25 127.1 907.5 126.9 907.4 126.6
L 906.9 124.4
Q 906.85 124.1 906.65 123.9 906.5 123.7 906.05 123.75 901.95 124.6 898.2 124.9 894.45 125.2 891.25 125 890.8 124.95 890.65 124.85 890.5 124.75 890.5 124.35
L 890.5 105.05
M 907.7 42.3
L 907.7 39.2
Q 907.7 38.7 907.2 38.7
L 886.05 38.7
Q 885.85 38.7 885.75 38.85 885.6 39 885.6 39.2
L 885.6 42.3
Q 885.6 42.5 885.75 42.65 885.85 42.8 886.05 42.8
L 907.2 42.8
Q 907.7 42.8 907.7 42.3
M 1013 47
Q 1013.2 47 1013.35 46.85 1013.5 46.75 1013.5 46.5
L 1013.5 43.35
Q 1013.5 43.15 1013.35 43 1013.2 42.9 1013 42.9
L 991.9 42.9
Q 991.7 42.9 991.55 43 991.4 43.15 991.4 43.35
L 991.4 46.5
Q 991.4 46.75 991.55 46.85 991.7 47 991.9 47
L 1013 47
M 1013.5 35.05
Q 1013.5 34.85 1013.35 34.7 1013.2 34.55 1013 34.55
L 991.9 34.55
Q 991.7 34.55 991.55 34.7 991.4 34.85 991.4 35.05
L 991.4 38.2
Q 991.4 38.4 991.55 38.55 991.7 38.7 991.9 38.7
L 1013 38.7
Q 1013.2 38.7 1013.35 38.55 1013.5 38.4 1013.5 38.2
L 1013.5 35.05
M 1030.35 30.5
Q 1029.25 32.8 1028.85 35.5 1028.5 38.25 1028.5 40.7 1028.5 48.05 1030.95 52.1 1033.4 56.15 1038.55 56.15 1041.1 56.15 1042.95 55.15 1044.8 54.05 1046.05 52.1 1047.3 50.15 1047.9 47.25 1048.5 44.35 1048.5 40.7 1048.5 39.05 1048.3 37.3 1048.15 35.5 1047.75 33.8 1047.35 32.1 1046.65 30.55 1045.95 29 1044.8 27.8 1043.75 26.65 1042.15 25.95 1040.6 25.3 1038.55 25.3 1035.35 25.3 1033.4 26.75 1031.45 28.25 1030.35 30.5
M 1034.55 32.1
Q 1035.25 30.8 1036.25 30.25 1037.25 29.65 1038.55 29.65 1039.75 29.65 1040.8 30.25 1041.8 30.8 1042.55 32.1 1043.25 33.45 1043.65 35.55 1044 37.7 1044 40.7 1044 43.8 1043.65 45.95 1043.25 48.05 1042.55 49.35 1041.8 50.7 1040.8 51.25 1039.75 51.85 1038.55 51.85 1037.25 51.85 1036.25 51.25 1035.25 50.7 1034.55 49.35 1033.8 48.05 1033.45 45.95 1033.05 43.8 1033.05 40.7 1033.05 37.7 1033.45 35.55 1033.8 33.45 1034.55 32.1 Z"/>

<path fill="#FFFFFF" stroke="none" d="
M 361.4 10
L 331.4 10
Q 316.4 10 316.4 25
L 316.4 55.05
Q 316.4 70.05 331.4 70.05
L 361.4 70.05
Q 376.4 70.05 376.4 55.05
L 376.4 25
Q 376.4 10 361.4 10
M 476.4 25
Q 476.4 10 461.4 10
L 431.4 10
Q 416.4 10 416.4 25
L 416.4 55.05
Q 416.4 70.05 431.4 70.05
L 461.4 70.05
Q 476.4 70.05 476.4 55.05
L 476.4 25
M 546.4 90
L 516.4 90
Q 501.4 90 501.4 105
L 501.4 135.05
Q 501.4 150.05 516.4 150.05
L 546.4 150.05
Q 561.4 150.05 561.4 135.05
L 561.4 105
Q 561.4 90 546.4 90
M 576.4 55.05
L 576.4 25
Q 576.4 10 561.4 10
L 531.4 10
Q 516.4 10 516.4 25
L 516.4 55.05
Q 516.4 70.05 531.4 70.05
L 561.4 70.05
Q 576.4 70.05 576.4 55.05
M 676.4 25
Q 676.4 10 661.4 10
L 631.4 10
Q 616.4 10 616.4 25
L 616.4 55.05
Q 616.4 70.05 631.4 70.05
L 661.4 70.05
Q 676.4 70.05 676.4 55.05
L 676.4 25
M 761.4 10
L 731.4 10
Q 716.4 10 716.4 25
L 716.4 55.05
Q 716.4 70.05 731.4 70.05
L 761.4 70.05
Q 776.4 70.05 776.4 55.05
L 776.4 25
Q 776.4 10 761.4 10
M 876.4 25
Q 876.4 10 861.4 10
L 831.4 10
Q 816.4 10 816.4 25
L 816.4 55.05
Q 816.4 70.05 831.4 70.05
L 861.4 70.05
Q 876.4 70.05 876.4 55.05
L 876.4 25
M 976.4 55.05
L 976.4 25
Q 976.4 10 961.4 10
L 931.4 10
Q 916.4 10 916.4 25
L 916.4 55.05
Q 916.4 70.05 931.4 70.05
L 961.4 70.05
Q 976.4 70.05 976.4 55.05 Z"/>
</g>

<g id="vsdvs434_0_Layer1_0_FILL">
<path fill="#000000" stroke="none" d="
M 7.5 -19.9
Q 5.25 -19.9 3.75 -18.3
L -11.15 -3.5
Q -12.75 -1.95 -12.75 0.25 -12.75 2.5 -11.15 4.1 -11.07734375 4.175 -11 4.25
L 3.35 18.55
Q 4.95 20.05 7.2 20.05 9.35 20.05 10.95 18.55 12.45 16.9 12.45 14.75 12.45 12.5 10.95 11
L 0.25 0.25 11.25 -10.8
Q 12.8 -12.4 12.8 -14.55 12.8 -16.8 11.25 -18.4 9.75 -19.9 7.5 -19.9 Z"/>
</g>

<g id="vsdvs434_0_Layer0_0_FILL">
<path fill="#000000" stroke="none" d="
M 34.95 -4.35
Q 33.2 -6.1 30.65 -6.1
L 24.25 -6.1 23.1 -6.1 18.5 -6.1 17.35 -6.1 0.6 -6.1
Q -1.95 -6.1 -3.75 -4.35 -5.5 -2.55 -5.5 0
L -5.5 0.05
Q -5.5 2.6 -3.75 4.35 -1.95 6.15 0.6 6.15
L 17.35 6.15 18.5 6.15 23.1 6.15 24.25 6.15 30.65 6.15
Q 33.25 6.15 34.95 4.35 36.75 2.65 36.75 0.05
L 36.75 0
Q 36.75 -2.55 34.95 -4.35 Z"/>
</g>

<path id="Layer0_0_1_STROKES" stroke="#DBDBDB" stroke-width="3" stroke-linejoin="round" stroke-linecap="round" fill="none" d="
M 931.4 10
L 961.4 10
Q 976.4 10 976.4 25
L 976.4 55.05
Q 976.4 70.05 961.4 70.05
L 931.4 70.05
Q 916.4 70.05 916.4 55.05
L 916.4 25
Q 916.4 10 931.4 10 Z
M 831.4 10
L 861.4 10
Q 876.4 10 876.4 25
L 876.4 55.05
Q 876.4 70.05 861.4 70.05
L 831.4 70.05
Q 816.4 70.05 816.4 55.05
L 816.4 25
Q 816.4 10 831.4 10 Z
M 731.4 10
L 761.4 10
Q 776.4 10 776.4 25
L 776.4 55.05
Q 776.4 70.05 761.4 70.05
L 731.4 70.05
Q 716.4 70.05 716.4 55.05
L 716.4 25
Q 716.4 10 731.4 10 Z
M 631.4 10
L 661.4 10
Q 676.4 10 676.4 25
L 676.4 55.05
Q 676.4 70.05 661.4 70.05
L 631.4 70.05
Q 616.4 70.05 616.4 55.05
L 616.4 25
Q 616.4 10 631.4 10 Z
M 531.4 10
L 561.4 10
Q 576.4 10 576.4 25
L 576.4 55.05
Q 576.4 70.05 561.4 70.05
L 531.4 70.05
Q 516.4 70.05 516.4 55.05
L 516.4 25
Q 516.4 10 531.4 10 Z
M 516.4 90
L 546.4 90
Q 561.4 90 561.4 105
L 561.4 135.05
Q 561.4 150.05 546.4 150.05
L 516.4 150.05
Q 501.4 150.05 501.4 135.05
L 501.4 105
Q 501.4 90 516.4 90 Z
M 431.4 10
L 461.4 10
Q 476.4 10 476.4 25
L 476.4 55.05
Q 476.4 70.05 461.4 70.05
L 431.4 70.05
Q 416.4 70.05 416.4 55.05
L 416.4 25
Q 416.4 10 431.4 10 Z
M 331.4 10
L 361.4 10
Q 376.4 10 376.4 25
L 376.4 55.05
Q 376.4 70.05 361.4 70.05
L 331.4 70.05
Q 316.4 70.05 316.4 55.05
L 316.4 25
Q 316.4 10 331.4 10 Z"/>
</defs>

<g transform="matrix( 1, 0, 0, 1, 0,0) ">
<use xlink:href="#Layer0_0_FILL"/>

<use xlink:href="#Layer0_0_1_STROKES"/>
</g>

<g transform="matrix( -0.7999725341796875, 0, 0, -0.7999725341796875, 367.05,122.75) ">
<g transform="matrix( 1, 0, 0, 1, 0,0) ">
<use filter="url(#Filter_1)" xlink:href="#vsdvs434_0_Layer1_0_FILL"/>
</g>

<g transform="matrix( 1, 0, 0, 1, 0,0) ">
<use filter="url(#Filter_1)" xlink:href="#vsdvs434_0_Layer0_0_FILL"/>
</g>
</g>
</svg>
