
<svg xmlns="http://www.w3.org/2000/svg" version="1.1" xmlns:xlink="http://www.w3.org/1999/xlink" preserveAspectRatio="none" x="0px" y="0px" width="408px" height="472px" viewBox="0 0 408 472">
<defs>
<path id="Layer0_0_1_STROKES" stroke="#2241BD" stroke-width="5" stroke-linejoin="round" stroke-linecap="round" fill="none" d="
M 176.9 17.65
L 177 17.65 176.95 17.55 176.9 17.65 18.45 227.05 117 226.95 117.45 226.95 117.5 226.75 117.6 226.95 117.9 227.75 117.3 227.25 17.75 453.6 17.75 453.9
M 117 226.95
L 117.3 227.25 117.45 226.95 117.6 226.95
M 176.9 17.65
L 17.75 17.65 17.75 227.05 18.45 227.05 17.75 228 17.75 453.6
M 17.75 228
L 17.75 227.05"/>
</defs>

<g transform="matrix( 1, 0, 0, 1, 0,0) ">
<use xlink:href="#Layer0_0_1_STROKES"/>
</g>
</svg>
