
<svg xmlns="http://www.w3.org/2000/svg" version="1.1" xmlns:xlink="http://www.w3.org/1999/xlink" preserveAspectRatio="none" x="0px" y="0px" width="1114px" height="407px" viewBox="0 0 1114 407">
<defs>
<g id="Layer0_0_FILL">
<path fill="#1E1E1E" stroke="none" d="
M 217.75 92.2
Q 217.4 92.2 217.25 92.3 217.1 92.45 217.1 92.8
L 217.1 121.8
Q 217.1 122.15 217.25 122.3 217.4 122.4 217.75 122.4
L 220.95 122.4
Q 221.3 122.4 221.4 122.3 221.5 122.15 221.5 121.8
L 221.5 107.1 225.4 107.1
Q 225.7 107.1 225.85 107 226.05 106.9 226.05 106.5
L 226.05 104.1
Q 226.05 103.65 225.85 103.6 225.7 103.5 225.4 103.5
L 221.5 103.5 221.5 92.8
Q 221.5 92.45 221.4 92.3 221.3 92.2 220.95 92.2
L 217.75 92.2
M 199.2 97.95
Q 199.3 98.1 199.7 98.1
L 208.5 98.1
Q 209.05 98.1 208.95 98.75 208.4 102.9 205.65 106.4 202.95 109.9 198.15 112.55 197.9 112.7 197.8 113 197.75 113.3 197.95 113.6
L 199.4 115.8
Q 199.7 116.15 199.9 116.15 200.15 116.15 200.6 115.9 203.5 114.3 205.85 112.2 208.2 110.15 209.85 107.8 211.55 105.4 212.5 102.7 213.5 100 213.65 97.2 213.75 95.8 213.25 95.15 212.75 94.5 211.15 94.5
L 199.7 94.5
Q 199.35 94.5 199.25 94.65 199.1 94.75 199.1 95.1
L 199.1 97.45
Q 199.1 97.8 199.2 97.95
M 388.75 169.15
Q 387.4 169.3 386.1 169.4 384.75 169.45 383.7 169.4 382.95 169.35 382.95 168.7
L 382.95 154.2
Q 382.95 153.5 382.3 153.5
L 379.2 153.5
Q 378.6 153.5 378.6 154.2
L 378.6 170.75
Q 378.6 172 379.1 172.5 379.65 173 381 173.1 382.2 173.2 383.85 173.2 385.6 173.15 387.45 172.95 389.25 172.8 391.1 172.55 392.95 172.3 394.55 171.9 395.05 171.8 395.05 171.3
L 394.6 168.7
Q 394.5 168.55 394.4 168.4 394.25 168.25 393.9 168.35 392.8 168.65 391.45 168.8 390.15 169.05 388.75 169.15
M 400.55 151.75
Q 400.45 151.65 400.1 151.65
L 396.9 151.65
Q 396.55 151.65 396.4 151.75 396.3 151.85 396.3 152.2
L 396.3 181.25
Q 396.3 181.6 396.4 181.75 396.55 181.8 396.9 181.8
L 400.1 181.8
Q 400.45 181.8 400.55 181.75 400.65 181.6 400.65 181.25
L 400.65 166.55 404.55 166.55
Q 404.85 166.55 405 166.45 405.2 166.35 405.2 166
L 405.2 163.6
Q 405.2 163.15 405 163.05 404.85 162.95 404.55 162.95
L 400.65 162.95 400.65 152.2
Q 400.65 151.85 400.55 151.75
M 523.4 79.6
Q 523.05 79.6 522.9 79.7 522.75 79.85 522.75 80.2
L 522.75 109.2
Q 522.75 109.55 522.9 109.7 523.05 109.8 523.4 109.8
L 526.6 109.8
Q 526.95 109.8 527.05 109.7 527.15 109.55 527.15 109.2
L 527.15 94.5 531.05 94.5
Q 531.35 94.5 531.5 94.4 531.7 94.3 531.7 93.9
L 531.7 91.5
Q 531.7 91.05 531.5 91 531.35 90.9 531.05 90.9
L 527.15 90.9 527.15 80.2
Q 527.15 79.85 527.05 79.7 526.95 79.6 526.6 79.6
L 523.4 79.6
M 505.3 82.3
Q 504.9 82.7 504.9 83.95
L 504.9 99.15
Q 504.9 100.45 505.45 100.85 506 101.2 507.1 101.25 508.45 101.3 510.25 101.3 512.05 101.25 513.9 101.1 515.8 100.95 517.55 100.75 519.3 100.5 520.65 100.15 520.95 100.1 521.1 99.95 521.25 99.85 521.15 99.5
L 520.8 97.2
Q 520.7 96.95 520.6 96.8 520.5 96.7 520.1 96.8 518.9 97 517.55 97.2 516.2 97.35 514.85 97.45 513.5 97.55 512.2 97.6 510.9 97.6 509.75 97.6 509.25 97.6 509.25 97.1
L 509.25 86
Q 509.25 85.8 509.35 85.65 509.4 85.55 509.7 85.55
L 518.4 85.55
Q 518.75 85.55 518.9 85.45 519 85.35 519 85
L 519 82.5
Q 519 82.15 518.9 82.05 518.75 81.95 518.4 81.95
L 507 81.95
Q 505.75 81.95 505.3 82.3
M 920.85 92.1
Q 920.75 92 920.4 92
L 917.2 92
Q 916.85 92 916.7 92.1 916.55 92.25 916.55 92.6
L 916.55 121.6
Q 916.55 121.95 916.7 122.1 916.85 122.2 917.2 122.2
L 920.4 122.2
Q 920.75 122.2 920.85 122.1 920.95 121.95 920.95 121.6
L 920.95 106.9 924.85 106.9
Q 925.15 106.9 925.3 106.8 925.5 106.7 925.5 106.3
L 925.5 103.9
Q 925.5 103.45 925.3 103.4 925.15 103.3 924.85 103.3
L 920.95 103.3 920.95 92.6
Q 920.95 92.25 920.85 92.1
M 899.2 94.65
Q 898.7 95.05 898.7 96.4
L 898.7 111.15
Q 898.7 111.9 898.8 112.3 898.9 112.75 899.15 112.95 899.4 113.2 899.85 113.3 900.3 113.35 901.05 113.35
L 911.3 113.35
Q 911.95 113.35 912.4 113.3 912.8 113.2 913.05 112.95 913.25 112.75 913.35 112.3 913.45 111.85 913.45 111.15
L 913.45 96.4
Q 913.45 95.7 913.35 95.25 913.25 94.85 913.05 94.65 912.8 94.4 912.4 94.35 911.95 94.25 911.3 94.25
L 900.85 94.25
Q 899.7 94.25 899.2 94.65
M 903.7 97.85
L 908.6 97.85
Q 909 97.85 909.05 97.95 909.1 98.05 909.1 98.45
L 909.1 109.2
Q 909.1 109.6 909.05 109.7 909 109.8 908.6 109.8
L 903.7 109.8
Q 903.3 109.8 903.15 109.7 903.05 109.6 903.05 109.2
L 903.05 98.45
Q 903.05 98 903.15 97.95 903.3 97.85 903.7 97.85
M 720.5 132.8
Q 720.35 132.95 720.35 133.3
L 720.35 162.3
Q 720.35 162.65 720.5 162.8 720.65 162.9 721 162.9
L 724.2 162.9
Q 724.55 162.9 724.65 162.8 724.75 162.65 724.75 162.3
L 724.75 147.6 728.65 147.6
Q 728.95 147.6 729.1 147.5 729.3 147.4 729.3 147
L 729.3 144.6
Q 729.3 144.15 729.1 144.1 728.95 144 728.65 144
L 724.75 144 724.75 133.3
Q 724.75 132.95 724.65 132.8 724.55 132.7 724.2 132.7
L 721 132.7
Q 720.65 132.7 720.5 132.8
M 702.45 137.9
Q 702.45 138.5 703.1 138.5
L 711.55 138.5
Q 711.8 138.5 711.9 138.6 711.95 138.65 711.95 138.95
L 711.95 142.8
Q 711.95 143.1 711.9 143.15 711.8 143.25 711.55 143.25
L 704.15 143.25
Q 703.15 143.25 702.7 143.65 702.25 144.05 702.25 145.05
L 702.25 153.45
Q 702.25 154.65 702.75 155.15 703.25 155.65 704.6 155.65 706.25 155.75 708.1 155.7 709.9 155.65 711.75 155.55 713.55 155.4 715.25 155.15 716.95 154.95 718.4 154.65 718.75 154.6 718.85 154.5 718.95 154.4 718.9 154.05
L 718.55 151.7
Q 718.5 151.45 718.4 151.35 718.3 151.25 718 151.3 715.45 151.75 712.65 151.95 709.8 152.2 707.05 152.1 706.55 152.1 706.55 151.7
L 706.55 147
Q 706.55 146.6 707 146.6
L 714.15 146.6
Q 715.25 146.6 715.8 146.15 716.3 145.7 716.3 144.35
L 716.3 137.1
Q 716.3 136.45 716.25 136.05 716.15 135.65 715.9 135.4 715.7 135.15 715.3 135 714.85 134.9 714.15 134.9
L 703.1 134.9
Q 702.75 134.9 702.6 135.05 702.45 135.15 702.45 135.5
L 702.45 137.9 Z"/>
</g>

<g id="Duplicate_Items_Folder_fbd54454d34_0_Layer1_0_FILL">
<path fill="#7A94C2" stroke="none" d="
M 29.05 -10
Q 29.05 -20 19.05 -20
L -26 -20
Q -36 -20 -36 -10
L -36 9.05
Q -36 19.05 -26 19.05
L 19.05 19.05
Q 29.05 19.05 29.05 9.05
L 29.05 -10 Z"/>
</g>

<g id="Duplicate_Items_Folder_fbd54454d34_0_Layer0_0_FILL">
<path fill="#FFFFFF" stroke="none" d="
M -3.3 -9.2
Q -3.3 -9.5 -3.4 -9.7 -3.55 -9.9 -3.75 -10 -4.2 -10.2 -4.6 -10.2 -4.9 -10.2 -5.15 -10.15 -5.35 -10.1 -5.55 -10 -5.75 -9.9 -5.85 -9.7 -5.95 -9.5 -5.95 -9.2
L -5.95 8.55
Q -5.95 8.85 -5.85 9 -5.75 9.25 -5.55 9.3 -5.35 9.4 -5.15 9.45 -4.9 9.5 -4.6 9.5 -4.2 9.5 -3.75 9.3 -3.55 9.25 -3.4 9 -3.3 8.85 -3.3 8.55
L -3.3 -0.65 -1.55 -0.65
Q -1.2 -0.65 -1 -0.75 -0.75 -0.85 -0.65 -1.05 -0.55 -1.25 -0.5 -1.5 -0.4 -1.7 -0.4 -1.95 -0.4 -2.2 -0.5 -2.4 -0.55 -2.65 -0.65 -2.85 -0.75 -3 -1 -3.1 -1.2 -3.2 -1.55 -3.2
L -3.3 -3.2 -3.3 -9.2
M -11.55 -8.5
Q -11.85 -8.5 -12.05 -8.4 -12.25 -8.3 -12.35 -8.1 -12.55 -7.95 -12.6 -7.7 -12.65 -7.5 -12.65 -7.2 -12.65 -6.95 -12.6 -6.75 -12.55 -6.55 -12.35 -6.35 -12.25 -6.15 -12.05 -6.1 -11.85 -6 -11.55 -6
L -10.5 -6
Q -10.55 -5.4 -10.6 -4.85 -10.65 -4.25 -10.75 -3.7 -10.8 -3.15 -10.95 -2.6 -11.05 -2.05 -11.2 -1.55 -11.3 -1 -11.5 -0.5 -11.65 0 -11.85 0.45 -12.1 0.9 -12.35 1.35 -12.65 1.75 -12.95 2.15 -13.1 2.4 -13.15 2.6 -13.2 2.85 -13.1 3.05 -13 3.3 -12.9 3.45 -12.75 3.65 -12.6 3.75 -12.35 3.9 -12.15 3.95 -11.9 4.05 -11.7 4.05 -11.45 4.1 -11.3 4.05 -11.1 3.95 -11 3.8 -10.55 3.3 -10.2 2.75 -9.8 2.25 -9.5 1.65 -9.15 1.05 -8.95 0.45 -8.7 -0.15 -8.55 -0.8 -8.3 -1.5 -8.15 -2.15 -8 -2.85 -7.9 -3.55 -7.8 -4.25 -7.75 -5 -7.7 -5.7 -7.7 -6.45 -7.7 -6.65 -7.7 -6.85 -7.75 -7.1 -7.75 -7.25 -7.75 -7.45 -7.8 -7.6 -7.85 -7.75 -7.95 -7.9 -8.1 -8.05 -8.25 -8.15 -8.4 -8.25 -8.6 -8.35 -8.75 -8.4 -9.05 -8.45 -9.3 -8.5 -9.6 -8.5
L -11.55 -8.5
M -13 -6.45
Q -13 -6.65 -13.05 -6.9 -13.05 -7.1 -13.05 -7.3 -13.1 -7.65 -13.3 -7.9 -13.45 -8.05 -13.6 -8.15 -13.8 -8.25 -13.95 -8.35 -14.15 -8.4 -14.4 -8.45 -14.7 -8.5 -15 -8.5
L -17.2 -8.5
Q -17.45 -8.5 -17.65 -8.4 -17.8 -8.3 -17.95 -8.1 -18.05 -7.95 -18.15 -7.7 -18.2 -7.5 -18.2 -7.25 -18.2 -7 -18.15 -6.8 -18.05 -6.55 -17.95 -6.4 -17.8 -6.2 -17.65 -6.1 -17.45 -6 -17.2 -6
L -15.65 -6
Q -15.7 -5.5 -15.75 -5.05 -15.8 -4.55 -15.9 -4.1 -15.95 -3.6 -16.05 -3.15 -16.15 -2.7 -16.3 -2.3 -16.4 -1.85 -16.55 -1.45 -16.7 -1.05 -16.85 -0.65 -17.05 -0.3 -17.3 0.05 -17.55 0.35 -17.85 0.65 -18.05 0.85 -18.1 1.05 -18.2 1.25 -18.2 1.5 -18.2 1.7 -18.1 1.9 -18 2.1 -17.85 2.25
L -17.9 2.25
Q -17.7 2.45 -17.45 2.6 -17.25 2.7 -17.05 2.7 -16.8 2.75 -16.65 2.7 -16.5 2.65 -16.4 2.6 -15.9 2.25 -15.55 1.85 -15.15 1.4 -14.8 0.85 -14.45 0.3 -14.2 -0.3 -13.95 -0.9 -13.8 -1.55 -13.6 -2.15 -13.45 -2.8 -13.3 -3.45 -13.2 -4.1 -13.1 -4.75 -13.05 -5.3 -13 -5.9 -13 -6.45
M 11.35 1.65
Q 11.35 1.25 11.2 0.95 11 0.65 10.7 0.45 10.4 0.25 10.05 0.2 9.75 0.1 9.35 0.1
L 6.25 0.1
Q 5.95 0.1 5.75 0.15 5.55 0.25 5.45 0.4 5.35 0.6 5.25 0.85 5.2 1.05 5.2 1.3 5.2 1.6 5.25 1.75 5.35 1.95 5.45 2.1 5.55 2.25 5.75 2.35 5.95 2.4 6.25 2.4
L 8.95 2.4 8.95 3.4 7.2 3.4
Q 6.35 3.4 5.8 3.7 5.5 3.9 5.4 4.15 5.25 4.45 5.25 4.85
L 5.25 7.85
Q 5.25 8.25 5.4 8.55 5.45 8.65 5.55 8.75 5.7 8.85 5.85 8.9 5.95 8.95 6.15 9 6.3 9.05 6.5 9.05 6.65 9.05 6.85 9.1 7 9.1 7.2 9.1 7.55 9.05 7.85 9.05 8.1 9.05 8.35 9.05 8.6 9.05 8.8 9 9.05 9 9.25 9 9.5 8.95 9.7 8.95 9.95 8.9 10.2 8.9 10.6 8.85 11.1 8.8
L 11 8.8
Q 11.25 8.75 11.5 8.65 11.7 8.55 11.8 8.4 11.9 8.2 11.95 8 12 7.75 11.95 7.5 11.9 7.25 11.8 7.1 11.7 6.9 11.55 6.75 11.4 6.6 11.2 6.55 11 6.5 10.7 6.5 10.25 6.6 9.85 6.65 9.45 6.7 9.1 6.7 8.7 6.75 8.3 6.8 7.9 6.8 7.45 6.8
L 7.45 5.7 9.35 5.7
Q 9.75 5.7 10.05 5.6 10.4 5.5 10.7 5.3 11 5.1 11.2 4.8 11.35 4.5 11.35 4.05
L 11.35 1.65
M 17.5 1.85
Q 17.5 1.45 17.4 1.15 17.25 0.8 17.05 0.55 16.85 0.35 16.5 0.2 16.2 0.1 15.8 0.1
L 13.25 0.1
Q 12.95 0.1 12.75 0.15 12.55 0.25 12.45 0.4 12.35 0.6 12.3 0.85 12.25 1.05 12.25 1.3 12.25 1.6 12.3 1.8 12.35 2 12.45 2.15 12.55 2.35 12.75 2.45 12.95 2.5 13.25 2.5
L 14.85 2.5 14.85 8.05
Q 14.85 8.55 15.3 8.8 15.5 8.95 15.7 9 15.95 9.1 16.15 9.1 16.4 9.1 16.65 9 16.9 8.95 17.1 8.8 17.25 8.65 17.4 8.5 17.5 8.3 17.5 8.05
L 17.5 1.85
M 15.6 -10.25
Q 15.5 -10.2 15.35 -10.2 15.25 -10.15 15.15 -10.1 15.05 -10.05 14.95 -9.95 14.9 -9.9 14.85 -9.8 14.75 -9.7 14.75 -9.55 14.7 -9.45 14.7 -9.3
L 14.7 -1.7
Q 14.7 -1.55 14.75 -1.45 14.75 -1.35 14.85 -1.25 14.9 -1.15 14.95 -1.05 15.05 -0.95 15.15 -0.9 15.25 -0.85 15.35 -0.8 15.5 -0.75 15.6 -0.75 15.75 -0.75 15.85 -0.7 16 -0.7 16.15 -0.7 16.4 -0.7 16.65 -0.75 16.9 -0.8 17.1 -0.9 17.3 -1 17.4 -1.2 17.5 -1.4 17.5 -1.7
L 17.5 -4.15 19.4 -4.15
Q 20.05 -4.15 20.2 -4.55 20.25 -4.75 20.3 -4.95 20.3 -5.15 20.3 -5.4 20.3 -5.9 20.2 -6.3 20.1 -6.45 19.9 -6.55 19.7 -6.65 19.4 -6.65
L 17.5 -6.65 17.5 -9.3
Q 17.5 -9.9 17.1 -10.1 16.9 -10.2 16.65 -10.25 16.4 -10.3 16.15 -10.3 16 -10.3 15.85 -10.3 15.75 -10.25 15.6 -10.25
M 6.25 -9.4
Q 5.85 -9.4 5.5 -9.4 5.2 -9.4 4.95 -9.35 4.7 -9.35 4.45 -9.25 4.25 -9.2 4.1 -9.1 3.85 -8.95 3.75 -8.75 3.6 -8.6 3.55 -8.35 3.5 -8.1 3.45 -7.8 3.4 -7.5 3.4 -7.1
L 3.4 -3.3
Q 3.4 -2.5 3.55 -2.05 3.6 -1.8 3.75 -1.65 3.85 -1.5 4.1 -1.4 4.25 -1.25 4.45 -1.2 4.7 -1.15 4.95 -1.1 5.2 -1.1 5.5 -1.1 5.85 -1.05 6.25 -1.05 7.1 -1.1 7.9 -1.15 8.7 -1.2 9.5 -1.3 10.3 -1.35 11.1 -1.45 11.9 -1.55 12.7 -1.7 13.35 -1.75 13.6 -2.1 13.7 -2.3 13.7 -2.55 13.7 -2.8 13.6 -3.15 13.55 -3.35 13.5 -3.5 13.5 -3.65 13.45 -3.75 13.35 -3.85 13.35 -3.9 13.25 -4 13.25 -4.05 13.15 -4.05 13.05 -4.1 13 -4.1 12.85 -4.1 12.75 -4.1 12.6 -4.1 12.5 -4.1 12.4 -4.1 11.65 -3.95 10.9 -3.9 10.15 -3.8 9.35 -3.75 8.55 -3.65 7.75 -3.65 7 -3.6 6.25 -3.6 6.25 -3.72734375 6.25 -4.05
L 6.25 -6.95 11.4 -6.95
Q 11.7 -6.95 11.9 -7 12.1 -7.05 12.2 -7.2 12.3 -7.35 12.35 -7.6 12.4 -7.85 12.4 -8.15 12.4 -8.55 12.35 -8.85 12.3 -9.1 12.2 -9.2 12.1 -9.3 11.9 -9.35 11.7 -9.4 11.4 -9.4
L 6.25 -9.4 Z"/>
</g>

<g id="Duplicate_Items_Folder_fbd54454d34_1_Layer1_0_FILL">
<path fill="#7A94C2" stroke="none" d="
M 29.05 -10
Q 29.05 -20 19.05 -20
L -26 -20
Q -36 -20 -36 -10
L -36 9.05
Q -36 19.05 -26 19.05
L 19.05 19.05
Q 29.05 19.05 29.05 9.05
L 29.05 -10 Z"/>
</g>

<g id="Duplicate_Items_Folder_fbd54454d34_1_Layer0_0_FILL">
<path fill="#FFFFFF" stroke="none" d="
M 5.5 0.75
Q 5.35 0.7 5.3 0.7 5 0.7 4.8 0.8 4.55 0.85 4.3 1 4.1 1.15 4 1.3 3.9 1.5 3.9 1.75
L 3.9 2.8 -1.85 2.8 -1.85 1.75
Q -1.85 1.65 -1.9 1.5 -1.9 1.4 -2 1.3 -2.1 1.2 -2.2 1.15 -2.3 1.05 -2.4 1 -2.5 0.95 -2.6 0.9 -2.7 0.85 -2.8 0.8 -3 0.75 -3.1 0.75 -3.25 0.7 -3.35 0.7 -3.4 0.7 -3.55 0.75 -3.65 0.75 -3.8 0.8 -3.95 0.85 -4.05 0.9 -4.15 0.95 -4.25 1 -4.35 1.05 -4.4 1.15 -4.5 1.2 -4.55 1.3 -4.6 1.4 -4.65 1.5 -4.65 1.65 -4.65 1.75
L -4.65 7.3
Q -4.65 7.7 -4.55 8.05 -4.5 8.35 -4.25 8.6 -4.1 8.85 -3.8 8.95 -3.5 9.1 -3.05 9.1
L 4.95 9.1
Q 5.3 9.1 5.6 8.95 5.95 8.85 6.25 8.6 6.5 8.35 6.65 8.05 6.75 7.7 6.75 7.3
L 6.75 1.75
Q 6.75 1.65 6.75 1.5 6.7 1.4 6.6 1.3 6.5 1.2 6.4 1.15 6.35 1.05 6.25 1 6 0.9 5.75 0.8 5.6 0.75 5.5 0.75
M 3.45 5.1
Q 3.55 5.1 3.6 5.15 3.7 5.2 3.75 5.2 3.8 5.25 3.85 5.35 3.9 5.4 3.9 5.55
L 3.9 6.45
Q 3.9 6.6 3.85 6.65 3.8 6.75 3.75 6.75 3.7 6.8 3.6 6.8 3.55 6.8 3.45 6.8
L -1.4 6.8
Q -1.5 6.8 -1.6 6.8 -1.7 6.8 -1.75 6.75 -1.8 6.75 -1.8 6.65 -1.85 6.6 -1.85 6.45
L -1.85 5.55
Q -1.85 5.4 -1.8 5.35 -1.8 5.25 -1.75 5.2 -1.7 5.2 -1.6 5.15 -1.5 5.1 -1.4 5.1
L 3.45 5.1
M 1.4 -9.35
Q 1.2 -9.4 0.9 -9.4
L -4.25 -9.4
Q -4.65 -9.4 -5 -9.4 -5.3 -9.4 -5.55 -9.35 -5.8 -9.35 -6.05 -9.25 -6.25 -9.2 -6.4 -9.1 -6.65 -8.95 -6.75 -8.75 -6.9 -8.6 -6.95 -8.35 -7 -8.1 -7.05 -7.8 -7.1 -7.5 -7.1 -7.1
L -7.1 -3.3
Q -7.1 -2.5 -6.95 -2.05 -6.9 -1.8 -6.75 -1.65 -6.65 -1.5 -6.4 -1.4 -6.25 -1.25 -6.05 -1.2 -5.8 -1.15 -5.55 -1.1 -5.3 -1.1 -5 -1.1 -4.65 -1.05 -4.25 -1.05 -3.4 -1.1 -2.6 -1.15 -1.8 -1.2 -1 -1.3 -0.2 -1.35 0.6 -1.45 1.4 -1.55 2.2 -1.7 2.85 -1.75 3.1 -2.1 3.2 -2.3 3.2 -2.55 3.2 -2.8 3.1 -3.15 3.05 -3.35 3 -3.5 3 -3.65 2.95 -3.75 2.85 -3.85 2.85 -3.9 2.75 -4 2.75 -4.05 2.65 -4.05 2.55 -4.1 2.5 -4.1 2.35 -4.1 2.25 -4.1 2.1 -4.1 2 -4.1 1.9 -4.1 1.15 -3.95 0.4 -3.9 -0.35 -3.8 -1.15 -3.75 -1.95 -3.65 -2.75 -3.65 -3.5 -3.6 -4.25 -3.6 -4.25 -3.72734375 -4.25 -4.05
L -4.25 -6.95 0.9 -6.95
Q 1.2 -6.95 1.4 -7 1.6 -7.05 1.7 -7.2 1.8 -7.35 1.85 -7.6 1.9 -7.85 1.9 -8.15 1.9 -8.55 1.85 -8.85 1.8 -9.1 1.7 -9.2 1.6 -9.3 1.4 -9.35
M 5.35 -10.3
Q 5.25 -10.25 5.1 -10.25 5 -10.2 4.85 -10.2 4.75 -10.15 4.65 -10.1 4.55 -10.05 4.45 -9.95 4.4 -9.9 4.35 -9.8 4.25 -9.7 4.25 -9.55 4.2 -9.45 4.2 -9.3
L 4.2 -1.7
Q 4.2 -1.55 4.25 -1.45 4.25 -1.35 4.35 -1.25 4.4 -1.15 4.45 -1.05 4.55 -0.95 4.65 -0.9 4.75 -0.85 4.85 -0.8 5 -0.75 5.1 -0.75 5.25 -0.75 5.35 -0.7 5.5 -0.7 5.65 -0.7 5.9 -0.7 6.15 -0.75 6.4 -0.8 6.6 -0.9 6.8 -1 6.9 -1.2 7 -1.4 7 -1.7
L 7 -4.15 8.9 -4.15
Q 9.55 -4.15 9.7 -4.55 9.75 -4.75 9.8 -4.95 9.8 -5.15 9.8 -5.4 9.8 -5.9 9.7 -6.3 9.6 -6.45 9.4 -6.55 9.2 -6.65 8.9 -6.65
L 7 -6.65 7 -9.3
Q 7 -9.9 6.6 -10.1 6.4 -10.2 6.15 -10.25 5.9 -10.3 5.65 -10.3 5.5 -10.3 5.35 -10.3 Z"/>
</g>

<path id="Layer0_0_1_STROKES" stroke="#BBDECB" stroke-width="5" stroke-linejoin="round" stroke-linecap="round" fill="none" d="
M 51.85 2.5
L 1070.85 2.5
Q 1085.85 2.5 1085.85 17.5
L 1085.85 229.55
Q 1085.85 237.85 1081.3 241.55 1077.55 244.55 1070.85 244.55
L 51.85 244.55
Q 36.85 244.55 36.85 229.55
L 36.85 17.5
Q 36.85 2.5 51.85 2.5 Z"/>

<path id="Layer0_0_2_STROKES" stroke="#1E1E1E" stroke-width="3" stroke-linejoin="round" stroke-linecap="butt" fill="none" d="
M 823.85 196.75
L 677.4 196.75 677.4 50.15 823.85 196.75 Z
M 806.7 64.8
L 982.65 64.8 927.9 194.55 806.7 64.8 Z
M 441.85 63.7
L 625.1 63.7 507.75 151.6 441.85 63.7 Z
M 280.7 196.8
L 464 196.8 397.7 108.4 280.7 196.8 Z
M 140.1 63.45
L 282.35 63.45 211.2 186.65 140.1 63.45 Z"/>

<path id="Layer0_2_1_STROKES" stroke="#CCCCCC" stroke-width="3" stroke-linejoin="round" stroke-linecap="round" fill="none" d="
M 73.86716232299804 406
L 1112.812393951416 406"/>

<path id="Layer0_4_1_STROKES" stroke="#CCCCCC" stroke-width="3" stroke-linejoin="round" stroke-linecap="round" fill="none" d="
M 848.95 478.6
L 1191.45 478.6"/>
</defs>

<g transform="matrix( 1, 0, 0, 1, 0,0) ">
<use xlink:href="#Layer0_0_FILL"/>

<use xlink:href="#Layer0_0_1_STROKES"/>

<use xlink:href="#Layer0_0_2_STROKES"/>
</g>

<g transform="matrix( 1, 0, 0, 1, 32.5,381.45) ">
<g transform="matrix( 1, 0, 0, 1, 3.5,0.45) ">
<use xlink:href="#Duplicate_Items_Folder_fbd54454d34_0_Layer1_0_FILL"/>
</g>

<g transform="matrix( 1, 0, 0, 1, 0,0) ">
<use xlink:href="#Duplicate_Items_Folder_fbd54454d34_0_Layer0_0_FILL"/>
</g>
</g>

<g transform="matrix( 0.9332122802734375, 0, 0, 1, -25.1,-217.1) ">
<use xlink:href="#Layer0_2_1_STROKES" transform="matrix( 1.071563720703125, 0, 0, 1, 26.85,217.1) "/>
</g>

<g transform="matrix( 1, 0, 0, 1, 32.5,309.45) ">
<g transform="matrix( 1, 0, 0, 1, 3.5,0.45) ">
<use xlink:href="#Duplicate_Items_Folder_fbd54454d34_1_Layer1_0_FILL"/>
</g>

<g transform="matrix( 1, 0, 0, 1, 0,0) ">
<use xlink:href="#Duplicate_Items_Folder_fbd54454d34_1_Layer0_0_FILL"/>
</g>
</g>

<g transform="matrix( 1, 0, 0, 1, -775.1,-144.6) ">
<use xlink:href="#Layer0_4_1_STROKES"/>
</g>
</svg>
