
<svg xmlns="http://www.w3.org/2000/svg" version="1.1" xmlns:xlink="http://www.w3.org/1999/xlink" preserveAspectRatio="none" x="0px" y="0px" width="1280px" height="720px" viewBox="0 0 1280 720">
<defs>
<g id="Layer1_0_FILL">
<path fill="#1E1E1E" stroke="none" d="
M 178.25 364.65
Q 178.25 363.85 178.1 363.7 178 363.55 177.3 363.55
L 175.2 363.55
Q 175.05 363.55 174.85 363.65 174.65 363.7 174.6 363.8
L 168.45 369.45
Q 168.25 369.65 168.25 369.85 168.2 370.1 168.35 370.25
L 170.15 372.4
Q 170.3 372.55 170.55 372.5 170.8 372.5 171.05 372.35
L 174 369.75 174 393.45
Q 174 393.95 174.55 393.95
L 177.75 393.95
Q 178.25 393.95 178.25 393.45
L 178.25 364.65
M 154 364.65
Q 154 363.85 153.85 363.7 153.75 363.55 153.05 363.55
L 150.95 363.55
Q 150.8 363.55 150.6 363.65 150.4 363.7 150.35 363.8
L 144.2 369.45
Q 144 369.65 144 369.85 143.95 370.1 144.1 370.25
L 145.9 372.4
Q 146.05 372.55 146.3 372.5 146.55 372.5 146.8 372.35
L 149.75 369.75 149.75 393.45
Q 149.75 393.95 150.3 393.95
L 153.5 393.95
Q 154 393.95 154 393.45
L 154 364.65
M 998.75 413.65
Q 998.65 413.75 998.45 414.1
L 986.05 432.7
Q 985.9 432.85 985.75 433.15 985.55 433.45 985.55 433.7
L 985.55 436.7
Q 985.55 437 985.7 437.05 985.85 437.15 986.2 437.15
L 999 437.15 999 443.25
Q 999 443.65 999.15 443.8 999.3 443.95 999.75 443.95
L 1002.65 443.95
Q 1003.05 443.95 1003.15 443.8 1003.3 443.7 1003.3 443.25
L 1003.3 437.15 1007 437.15
Q 1007.35 437.15 1007.5 437.05 1007.65 436.95 1007.65 436.55
L 1007.65 433.65
Q 1007.65 433.25 1007.5 433.15 1007.35 433.05 1007 433.05
L 1003.3 433.05 1003.3 414.15
Q 1003.3 413.8 1003.25 413.7 1003.2 413.55 1002.9 413.55
L 999.25 413.55
Q 998.85 413.55 998.75 413.65
M 999 433.05
L 990.4 433.05 999 420 999 433.05
M 965.4 419.85
Q 965.35 420.1 965.5 420.25
L 967.3 422.4
Q 967.45 422.55 967.7 422.5 967.95 422.5 968.2 422.35
L 971.15 419.75 971.15 443.45
Q 971.15 443.95 971.7 443.95
L 974.9 443.95
Q 975.4 443.95 975.4 443.45
L 975.4 414.65
Q 975.4 413.85 975.25 413.7 975.15 413.55 974.45 413.55
L 972.35 413.55
Q 972.2 413.55 972 413.65 971.8 413.7 971.75 413.8
L 965.6 419.45
Q 965.4 419.65 965.4 419.85
M 587.8 413.65
Q 587.65 413.75 587.65 414.2
L 587.45 428.95
Q 587.45 430.3 589 429.65 590.25 429.2 591.65 428.95 593.05 428.65 594.35 428.65 597.65 428.65 599.05 430.2 600.5 431.7 600.5 434.3 600.5 437 598.7 438.5 597 440.05 594.3 440.05 593.6 440.05 592.75 439.95 591.95 439.9 591.1 439.75 590.25 439.55 589.45 439.35 588.65 439.1 588.1 438.8 587.25 438.4 587.25 439.1
L 587.25 442.35
Q 587.25 442.65 587.25 442.8 587.3 442.9 587.55 443.1 588.2 443.4 589.15 443.6 590.05 443.85 591 444 591.95 444.1 592.75 444.2 593.6 444.25 594 444.25 596.3 444.25 598.35 443.6 600.45 442.95 601.85 441.65 605 438.85 605 433.8 605 431.7 604.25 430.05 603.5 428.35 602.2 427.15 600.9 426 599.15 425.35 597.4 424.75 595.4 424.75 593.45 424.75 591.85 425.1
L 592 417.7 603.15 417.7
Q 603.4 417.7 603.55 417.5 603.65 417.35 603.65 417.1
L 603.65 414.05
Q 603.65 413.85 603.55 413.7 603.4 413.5 603.15 413.5
L 588.5 413.5
Q 587.9 413.5 587.8 413.65
M 169.75 414.15
Q 169.75 413.8 169.7 413.7 169.65 413.55 169.35 413.55
L 165.7 413.55
Q 165.3 413.55 165.2 413.65 165.1 413.75 164.9 414.1
L 152.5 432.7
Q 152.35 432.85 152.2 433.15 152 433.45 152 433.7
L 152 436.7
Q 152 437 152.15 437.05 152.3 437.15 152.65 437.15
L 165.45 437.15 165.45 443.25
Q 165.45 443.65 165.6 443.8 165.75 443.95 166.2 443.95
L 169.1 443.95
Q 169.5 443.95 169.6 443.8 169.75 443.7 169.75 443.25
L 169.75 437.15 173.45 437.15
Q 173.8 437.15 173.95 437.05 174.1 436.95 174.1 436.55
L 174.1 433.65
Q 174.1 433.25 173.95 433.15 173.8 433.05 173.45 433.05
L 169.75 433.05 169.75 414.15
M 165.45 420
L 165.45 433.05 156.85 433.05 165.45 420
M 222.1 406
Q 221.95 405.9 221.75 405.9
L 200.65 405.9
Q 200.45 405.9 200.3 406 200.15 406.15 200.15 406.35
L 200.15 409.5
Q 200.15 409.75 200.3 409.85 200.45 410 200.65 410
L 221.75 410
Q 221.95 410 222.1 409.85 222.25 409.75 222.25 409.5
L 222.25 406.35
Q 222.25 406.15 222.1 406
M 222.1 397.7
Q 221.95 397.55 221.75 397.55
L 200.65 397.55
Q 200.45 397.55 200.3 397.7 200.15 397.85 200.15 398.05
L 200.15 401.2
Q 200.15 401.4 200.3 401.55 200.45 401.7 200.65 401.7
L 221.75 401.7
Q 221.95 401.7 222.1 401.55 222.25 401.4 222.25 401.2
L 222.25 398.05
Q 222.25 397.85 222.1 397.7
M 598.5 364.65
Q 598.5 363.85 598.35 363.7 598.25 363.55 597.55 363.55
L 595.45 363.55
Q 595.3 363.55 595.1 363.65 594.9 363.7 594.85 363.8
L 588.7 369.45
Q 588.5 369.65 588.5 369.85 588.45 370.1 588.6 370.25
L 590.4 372.4
Q 590.55 372.55 590.8 372.5 591.05 372.5 591.3 372.35
L 594.25 369.75 594.25 393.45
Q 594.25 393.95 594.8 393.95
L 598 393.95
Q 598.5 393.95 598.5 393.45
L 598.5 364.65
M 566.15 389.15
Q 566.15 388.8 566.1 388.7 566.05 388.55 565.75 388.55
L 562.1 388.55
Q 561.7 388.55 561.6 388.65 561.5 388.75 561.3 389.1
L 548.9 407.7
Q 548.75 407.85 548.6 408.15 548.4 408.45 548.4 408.7
L 548.4 411.7
Q 548.4 412 548.55 412.05 548.7 412.15 549.05 412.15
L 561.85 412.15 561.85 418.25
Q 561.85 418.65 562 418.8 562.15 418.95 562.6 418.95
L 565.5 418.95
Q 565.9 418.95 566 418.8 566.15 418.7 566.15 418.25
L 566.15 412.15 569.85 412.15
Q 570.2 412.15 570.35 412.05 570.5 411.95 570.5 411.55
L 570.5 408.65
Q 570.5 408.25 570.35 408.15 570.2 408.05 569.85 408.05
L 566.15 408.05 566.15 389.15
M 561.85 408.05
L 553.25 408.05 561.85 395 561.85 408.05
M 1047.8 406
Q 1047.65 405.9 1047.45 405.9
L 1026.35 405.9
Q 1026.15 405.9 1026 406 1025.85 406.15 1025.85 406.35
L 1025.85 409.5
Q 1025.85 409.75 1026 409.85 1026.15 410 1026.35 410
L 1047.45 410
Q 1047.65 410 1047.8 409.85 1047.95 409.75 1047.95 409.5
L 1047.95 406.35
Q 1047.95 406.15 1047.8 406
M 1047.95 401.2
L 1047.95 398.05
Q 1047.95 397.85 1047.8 397.7 1047.65 397.55 1047.45 397.55
L 1026.35 397.55
Q 1026.15 397.55 1026 397.7 1025.85 397.85 1025.85 398.05
L 1025.85 401.2
Q 1025.85 401.4 1026 401.55 1026.15 401.7 1026.35 401.7
L 1047.45 401.7
Q 1047.65 401.7 1047.8 401.55 1047.95 401.4 1047.95 401.2
M 651.15 401.7
Q 651.35 401.7 651.5 401.55 651.65 401.4 651.65 401.2
L 651.65 398.05
Q 651.65 397.85 651.5 397.7 651.35 397.55 651.15 397.55
L 630.05 397.55
Q 629.85 397.55 629.7 397.7 629.55 397.85 629.55 398.05
L 629.55 401.2
Q 629.55 401.4 629.7 401.55 629.85 401.7 630.05 401.7
L 651.15 401.7
M 651.65 406.35
Q 651.65 406.15 651.5 406 651.35 405.9 651.15 405.9
L 630.05 405.9
Q 629.85 405.9 629.7 406 629.55 406.15 629.55 406.35
L 629.55 409.5
Q 629.55 409.75 629.7 409.85 629.85 410 630.05 410
L 651.15 410
Q 651.35 410 651.5 409.85 651.65 409.75 651.65 409.5
L 651.65 406.35
M 936.2 394.85
Q 936.15 395.1 936.3 395.25
L 938.1 397.4
Q 938.25 397.55 938.5 397.5 938.75 397.5 939 397.35
L 941.95 394.75 941.95 418.45
Q 941.95 418.95 942.5 418.95
L 945.7 418.95
Q 946.2 418.95 946.2 418.45
L 946.2 389.65
Q 946.2 388.85 946.05 388.7 945.95 388.55 945.25 388.55
L 943.15 388.55
Q 943 388.55 942.8 388.65 942.6 388.7 942.55 388.8
L 936.4 394.45
Q 936.2 394.65 936.2 394.85
M 993.15 370.9
Q 993.15 368.9 992.3 367.4 991.45 365.9 990.1 365 988.8 364.1 987.05 363.65 985.3 363.2 983.5 363.2 981.8 363.2 980.15 363.55 978.45 363.95 976.7 364.55 976.3 364.75 976.15 364.95 976 365.1 976.1 365.35
L 976.45 368.3
Q 976.55 368.65 976.75 368.75 976.95 368.85 977.45 368.65 978.05 368.4 978.85 368.15 979.65 367.9 980.45 367.75 981.25 367.55 982 367.45 982.7 367.35 983.25 367.35 984.1 367.35 985.05 367.55 986 367.75 986.85 368.25 987.65 368.7 988.2 369.5 988.7 370.25 988.7 371.25 988.7 372.6 987.9 373.5 987.1 374.45 985.9 375.05 984.75 375.65 983.5 375.9 982.25 376.15 981.4 376.15
L 979.5 376.15
Q 979.15 376.15 979.05 376.25 978.95 376.3 978.95 376.7
L 978.95 379.65
Q 978.95 379.95 979.05 380.05 979.15 380.15 979.5 380.15
L 981.45 380.15
Q 983.4 380.15 984.75 380.55 986.15 380.9 987.05 381.6 987.9 382.25 988.35 383.1 988.75 383.95 988.75 384.9 988.75 387.55 986.8 388.9 986.15 389.35 985.4 389.6 984.6 389.9 983.75 390 982.9 390.1 982 390.05 981.1 390 980.3 389.95 979.2 389.85 978.15 389.55 977.1 389.25 976.05 388.95 975.5 388.7 975.3 388.85 975.1 388.95 975.05 389.3
L 974.7 392.35
Q 974.65 392.7 974.85 392.85 975 393.05 975.4 393.15 976.85 393.7 978.6 394 980.35 394.3 982.1 394.3 984.4 394.3 986.55 393.7 988.7 393.15 990.2 391.9 991.7 390.65 992.55 388.9 993.35 387.1 993.35 385 993.35 382.8 992 381 990.65 379.25 988 378.1 989.1 377.6 990.05 376.85 991 376.1 991.7 375.1 992.4 374.15 992.8 373.1 993.15 372 993.15 370.9 Z"/>

<path fill="#FFFFFF" stroke="none" d="
M 311.65 428
L 311.65 458.05
Q 311.65 473.05 326.65 473.05
L 356.65 473.05
Q 371.65 473.05 371.65 458.05
L 371.65 428
Q 371.65 413 356.65 413
L 326.65 413
Q 311.65 413 311.65 428
M 300.65 388
Q 300.65 373 285.65 373
L 255.65 373
Q 240.65 373 240.65 388
L 240.65 418.05
Q 240.65 433.05 255.65 433.05
L 285.65 433.05
Q 300.65 433.05 300.65 418.05
L 300.65 388
M 356.65 333
L 326.65 333
Q 311.65 333 311.65 348
L 311.65 378.05
Q 311.65 393.05 326.65 393.05
L 356.65 393.05
Q 371.65 393.05 371.65 378.05
L 371.65 348
Q 371.65 333 356.65 333
M 1142.45 458.05
L 1142.45 428
Q 1142.45 413 1127.45 413
L 1077.45 413
Q 1062.45 413 1062.45 428
L 1062.45 458.05
Q 1062.45 473.05 1077.45 473.05
L 1127.45 473.05
Q 1142.45 473.05 1142.45 458.05
M 736.9 458.05
L 736.9 428
Q 736.9 413 721.9 413
L 691.9 413
Q 676.9 413 676.9 428
L 676.9 458.05
Q 676.9 473.05 691.9 473.05
L 721.9 473.05
Q 736.9 473.05 736.9 458.05
M 666.9 348
L 666.9 378.05
Q 666.9 393.05 681.9 393.05
L 731.9 393.05
Q 746.9 393.05 746.9 378.05
L 746.9 348
Q 746.9 333 731.9 333
L 681.9 333
Q 666.9 333 666.9 348
M 1062.45 378.05
Q 1062.45 393.05 1077.45 393.05
L 1127.45 393.05
Q 1142.45 393.05 1142.45 378.05
L 1142.45 348
Q 1142.45 333 1127.45 333
L 1077.45 333
Q 1062.45 333 1062.45 348
L 1062.45 378.05 Z"/>
</g>

<path id="Layer1_0_1_STROKES" stroke="#1E1E1E" stroke-width="3" stroke-linejoin="miter" stroke-linecap="butt" stroke-miterlimit="3" fill="none" d="
M 666.3 402.5
L 747.7 402.5
M 1061.85 402.5
L 1143.25 402.5
M 959.2 403.5
L 1009.9 403.5
M 137.8 403.5
L 188.5 403.5
M 576.45 403.5
L 614.65 403.5
M 310.3 402.5
L 373.05 402.5"/>

<path id="Layer1_0_2_STROKES" stroke="#DBDBDB" stroke-width="3" stroke-linejoin="round" stroke-linecap="round" fill="none" d="
M 1077.45 333
L 1127.45 333
Q 1142.45 333 1142.45 348
L 1142.45 378.05
Q 1142.45 393.05 1127.45 393.05
L 1077.45 393.05
Q 1062.45 393.05 1062.45 378.05
L 1062.45 348
Q 1062.45 333 1077.45 333 Z
M 681.9 333
L 731.9 333
Q 746.9 333 746.9 348
L 746.9 378.05
Q 746.9 393.05 731.9 393.05
L 681.9 393.05
Q 666.9 393.05 666.9 378.05
L 666.9 348
Q 666.9 333 681.9 333 Z
M 691.9 413
L 721.9 413
Q 736.9 413 736.9 428
L 736.9 458.05
Q 736.9 473.05 721.9 473.05
L 691.9 473.05
Q 676.9 473.05 676.9 458.05
L 676.9 428
Q 676.9 413 691.9 413 Z
M 1077.45 413
L 1127.45 413
Q 1142.45 413 1142.45 428
L 1142.45 458.05
Q 1142.45 473.05 1127.45 473.05
L 1077.45 473.05
Q 1062.45 473.05 1062.45 458.05
L 1062.45 428
Q 1062.45 413 1077.45 413 Z
M 326.65 333
L 356.65 333
Q 371.65 333 371.65 348
L 371.65 378.05
Q 371.65 393.05 356.65 393.05
L 326.65 393.05
Q 311.65 393.05 311.65 378.05
L 311.65 348
Q 311.65 333 326.65 333 Z
M 255.65 373
L 285.65 373
Q 300.65 373 300.65 388
L 300.65 418.05
Q 300.65 433.05 285.65 433.05
L 255.65 433.05
Q 240.65 433.05 240.65 418.05
L 240.65 388
Q 240.65 373 255.65 373 Z
M 326.65 413
L 356.65 413
Q 371.65 413 371.65 428
L 371.65 458.05
Q 371.65 473.05 356.65 473.05
L 326.65 473.05
Q 311.65 473.05 311.65 458.05
L 311.65 428
Q 311.65 413 326.65 413 Z"/>
</defs>

<g transform="matrix( 1, 0, 0, 1, 0,0) ">
<use xlink:href="#Layer1_0_FILL"/>

<use xlink:href="#Layer1_0_1_STROKES"/>

<use xlink:href="#Layer1_0_2_STROKES"/>
</g>
</svg>
