
<svg xmlns="http://www.w3.org/2000/svg" version="1.1" xmlns:xlink="http://www.w3.org/1999/xlink" preserveAspectRatio="none" x="0px" y="0px" width="1280px" height="370px" viewBox="0 0 1280 370">
<defs>
<filter id="Filter_1" x="-20%" y="-20%" width="140%" height="140%" color-interpolation-filters="sRGB">
<feColorMatrix in="SourceGraphic" type="matrix" values="0 0 0 0 0.9411764705882353 0 0 0 0 0.3843137254901961 0 0 0 0 0.5725490196078431 0 0 0 1 0" result="result1"/>
</filter>

<g id="fnfmf343434_copy_43_0_Layer1_0_FILL">
<path fill="#FFFFFF" stroke="none" d="
M 63 -15
Q 63 -30 48 -30
L -37 -30
Q -52 -30 -52 -15
L -52 15.05
Q -52 30.05 -37 30.05
L 48 30.05
Q 63 30.05 63 15.05
L 63 -15 Z"/>
</g>

<g id="vsdvs434_0_Layer1_0_FILL">
<path fill="#000000" stroke="none" d="
M 7.5 -19.9
Q 5.25 -19.9 3.75 -18.3
L -11.15 -3.5
Q -12.75 -1.95 -12.75 0.25 -12.75 2.5 -11.15 4.1 -11.07734375 4.175 -11 4.25
L 3.35 18.55
Q 4.95 20.05 7.2 20.05 9.35 20.05 10.95 18.55 12.45 16.9 12.45 14.75 12.45 12.5 10.95 11
L 0.25 0.25 11.25 -10.8
Q 12.8 -12.4 12.8 -14.55 12.8 -16.8 11.25 -18.4 9.75 -19.9 7.5 -19.9 Z"/>
</g>

<g id="vsdvs434_0_Layer0_0_FILL">
<path fill="#000000" stroke="none" d="
M 34.95 -4.35
Q 33.2 -6.1 30.65 -6.1
L 24.25 -6.1 23.1 -6.1 18.5 -6.1 17.35 -6.1 0.6 -6.1
Q -1.95 -6.1 -3.75 -4.35 -5.5 -2.55 -5.5 0
L -5.5 0.05
Q -5.5 2.6 -3.75 4.35 -1.95 6.15 0.6 6.15
L 17.35 6.15 18.5 6.15 23.1 6.15 24.25 6.15 30.65 6.15
Q 33.25 6.15 34.95 4.35 36.75 2.65 36.75 0.05
L 36.75 0
Q 36.75 -2.55 34.95 -4.35 Z"/>
</g>

<g id="db55535_copy_0_Layer1_0_FILL">
<path fill="#CEE4FC" stroke="none" d="
M 37.25 -16.95
Q 31.05 -24 22.3 -24
L -22.3 -24
Q -31.1 -24 -37.3 -16.95 -43.5 -9.9 -43.5 0 -43.5 9.95 -37.3 17 -31.1 24 -22.3 24
L 22.3 24
Q 31.05 24 37.25 17 43.5 9.95 43.5 0 43.5 -9.9 37.25 -16.95 Z"/>
</g>

<g id="db55535_copy_0_Layer0_0_FILL">
<path fill="#1E1E1E" stroke="none" d="
M -2.5 5.6
Q -2.6 5 -2.9 4.4 -3.2 3.85 -3.6 3.4 -4.05 2.9 -4.6 2.5 -5.7 1.75 -7.15 1.35 -7.9 1.15 -8.7 1.05 -9.55 0.95 -10.45 0.95 -11.4 0.95 -12.2 1.05 -13.05 1.15 -13.75 1.35 -14.5 1.55 -15.15 1.85 -15.8 2.1 -16.35 2.5 -16.85 2.85 -17.3 3.35 -17.7 3.8 -18 4.35 -18.6 5.55 -18.6 6.95 -18.6 7.7 -18.45 8.3 -18.3 8.9 -18 9.45 -17.4 10.55 -16.35 11.3 -15.8 11.7 -15.15 12 -14.5 12.3 -13.75 12.5 -13.05 12.7 -12.2 12.75 -11.4 12.9 -10.45 12.9 -9.55 12.9 -8.7 12.75 -7.9 12.7 -7.15 12.5 -5.75 12.05 -4.65 11.3 -4.1 10.9 -3.65 10.45 -3.2 10 -2.9 9.45 -2.65 8.9 -2.5 8.3 -2.35 7.7 -2.35 6.95 -2.35 6.25 -2.5 5.6
M -8.5 4.15
Q -7.65 4.35 -7 4.75 -6.4 5.15 -6.1 5.7 -5.75 6.25 -5.75 6.95 -5.75 7.65 -6.1 8.2 -6.4 8.75 -7 9.1 -7.65 9.5 -8.5 9.7 -9.35 9.85 -10.45 9.85 -11.6 9.85 -12.45 9.7 -13.3 9.5 -13.9 9.1 -14.55 8.75 -14.85 8.2 -15.2 7.65 -15.2 6.95 -15.2 6.25 -14.85 5.7 -14.55 5.15 -13.9 4.75 -13.3 4.35 -12.45 4.15 -11.6 3.95 -10.45 3.95 -9.35 3.95 -8.5 4.15
M -2.45 -12.65
Q -2.55 -12.9 -2.8 -13.05 -3 -13.15 -3.3 -13.2 -3.55 -13.25 -3.8 -13.25 -4.2 -13.25 -4.45 -13.2 -4.75 -13.15 -4.95 -13.05 -5.2 -12.9 -5.3 -12.65 -5.4 -12.4 -5.4 -12.05
L -5.4 -10.8 -8.1 -10.8
Q -8.5 -10.8 -8.75 -10.7 -8.95 -10.6 -9.1 -10.4 -9.35 -10 -9.35 -9.4 -9.35 -9.1 -9.25 -8.9 -9.2 -8.65 -9.1 -8.45 -8.95 -8.25 -8.75 -8.15 -8.5 -8.05 -8.1 -8.05
L -5.4 -8.05 -5.4 -6.1 -8.1 -6.1
Q -8.5 -6.1 -8.75 -6.05 -8.95 -5.95 -9.1 -5.75 -9.2 -5.6 -9.25 -5.35 -9.35 -5.1 -9.35 -4.8 -9.35 -4.5 -9.25 -4.25 -9.2 -4 -9.1 -3.85 -8.95 -3.65 -8.75 -3.55 -8.5 -3.45 -8.1 -3.45
L -5.4 -3.45 -5.4 -0.8
Q -5.4 -0.45 -5.3 -0.25 -5.2 0 -4.95 0.15 -4.75 0.25 -4.45 0.35 -4.2 0.4 -3.8 0.4 -3.55 0.4 -3.3 0.35 -3 0.25 -2.8 0.15 -2.55 0 -2.45 -0.25 -2.35 -0.45 -2.35 -0.8
L -2.35 -12.05
Q -2.35 -12.4 -2.45 -12.65
M -21.45 -12.35
Q -21.8 -12.35 -22.05 -12.25 -22.25 -12.15 -22.4 -11.95 -22.55 -11.7 -22.6 -11.45 -22.7 -11.2 -22.7 -10.85 -22.7 -10.6 -22.6 -10.3 -22.55 -10.05 -22.4 -9.85 -22.25 -9.65 -22.05 -9.55 -21.8 -9.4 -21.45 -9.4
L -15.05 -9.4
Q -15.1 -9 -15.2 -8.6 -15.3 -8.25 -15.4 -7.85 -15.55 -7.45 -15.9 -7 -16.2 -6.5 -16.65 -6 -17 -5.65 -17.3 -5.4 -17.55 -5.1 -17.8 -4.9 -18.1 -4.6 -18.35 -4.4 -18.6 -4.15 -18.85 -4 -19.2 -3.75 -19.55 -3.55 -19.9 -3.35 -20.25 -3.15 -20.6 -2.95 -21.05 -2.75 -21.5 -2.55 -22.05 -2.3 -22.2 -2.25 -22.35 -2.15 -22.45 -2 -22.55 -1.9 -22.65 -1.7 -22.65 -1.55 -22.7 -1.35 -22.7 -1.15 -22.7 -0.8 -22.65 -0.55 -22.55 -0.25 -22.35 0.05 -22.2 0.3 -21.95 0.45 -21.7 0.55 -21.45 0.55 -21.4 0.55 -21.35 0.55 -21.3 0.55 -21.2 0.55
L -21.15 0.55
Q -21.1 0.55 -21.05 0.5 -20 0.2 -19 -0.25 -18 -0.7 -17.15 -1.3 -16.25 -1.95 -15.5 -2.6 -14.75 -3.3 -14.1 -4.05 -12.85 -5.45 -12.15 -7.05 -11.8 -7.85 -11.65 -8.55 -11.5 -9.25 -11.5 -9.9 -11.5 -11.1 -12.15 -11.75 -12.5 -12.05 -12.95 -12.2 -13.4 -12.35 -13.95 -12.35
L -21.45 -12.35
M 6.25 -10.85
Q 5.65 -10.6 5.15 -10.15 4.65 -9.75 4.25 -9.2 3.75 -8.65 3.4 -7.95 3.05 -7.3 2.85 -6.55 2.6 -5.75 2.5 -4.8 2.35 -3.95 2.35 -2.95 2.35 -1.95 2.5 -1.05 2.6 -0.15 2.85 0.6 3.05 1.4 3.4 2.05 3.75 2.7 4.25 3.25 4.65 3.8 5.15 4.25 5.65 4.65 6.25 4.9 6.85 5.2 7.5 5.35 8.2 5.5 8.95 5.5 10.3 5.5 11.55 4.9 12.1 4.65 12.65 4.25 13.15 3.8 13.65 3.25 14.05 2.7 14.4 2.05 14.7 1.4 14.9 0.6 15.1 -0.15 15.2 -1.05 15.3 -1.95 15.3 -2.95 15.3 -3.95 15.2 -4.8 15.1 -5.75 14.9 -6.55 14.7 -7.3 14.4 -7.95 14.05 -8.65 13.65 -9.2 12.7 -10.3 11.55 -10.85 10.3 -11.45 8.95 -11.45 8.2 -11.45 7.5 -11.3 6.85 -11.15 6.25 -10.85
M 6.45 -7.05
Q 6.9 -7.75 7.55 -8.15 8.15 -8.5 8.95 -8.5 9.65 -8.5 10.25 -8.15 10.9 -7.75 11.35 -7.05 11.85 -6.25 12.05 -5.25 12.3 -4.25 12.3 -2.95 12.3 -1.65 12.05 -0.6 11.85 0.4 11.35 1.15 10.9 1.9 10.25 2.25 9.65 2.65 8.95 2.65 8.15 2.65 7.55 2.25 6.9 1.9 6.45 1.15 6 0.4 5.8 -0.6 5.55 -1.65 5.55 -2.95 5.55 -4.25 5.8 -5.25 6 -6.25 6.45 -7.05
M 19.8 -13.15
Q 19.55 -13 19.4 -12.75 19.3 -12.45 19.3 -12.1
L 19.3 11.45
Q 19.3 11.85 19.4 12.1 19.55 12.4 19.8 12.55 20.1 12.7 20.35 12.8 20.6 12.9 20.9 12.9 21.25 12.9 21.55 12.8 21.85 12.7 22.1 12.55 22.35 12.4 22.45 12.1 22.6 11.85 22.6 11.45
L 22.6 -0.8 25.4 -0.8
Q 25.8 -0.8 26.05 -0.95 26.3 -1.05 26.45 -1.3 26.6 -1.55 26.65 -1.75 26.7 -2.05 26.7 -2.3 26.7 -2.6 26.65 -2.9 26.6 -3.15 26.45 -3.35 26.3 -3.6 26.05 -3.7 25.8 -3.8 25.4 -3.8
L 22.6 -3.8 22.6 -12.1
Q 22.6 -12.45 22.45 -12.75 22.35 -13 22.1 -13.15 21.85 -13.35 21.55 -13.4 21.25 -13.5 20.9 -13.5 20.6 -13.5 20.35 -13.4 20.1 -13.35 19.8 -13.15 Z"/>
</g>

<g id="fnfmf343434_copy_44_0_Layer1_0_FILL">
<path fill="#FFFFFF" stroke="none" d="
M 63 -15
Q 63 -30 48 -30
L -37 -30
Q -52 -30 -52 -15
L -52 15.05
Q -52 30.05 -37 30.05
L 48 30.05
Q 63 30.05 63 15.05
L 63 -15 Z"/>
</g>

<g id="db55535_copy_1_Layer1_0_FILL">
<path fill="#C4E9B2" stroke="none" d="
M 37.25 -16.95
Q 31.05 -24 22.3 -24
L -22.3 -24
Q -31.1 -24 -37.3 -16.95 -43.5 -9.9 -43.5 0 -43.5 9.95 -37.3 17 -31.1 24 -22.3 24
L 22.3 24
Q 31.05 24 37.25 17 43.5 9.95 43.5 0 43.5 -9.9 37.25 -16.95 Z"/>
</g>

<g id="db55535_copy_1_Layer0_0_FILL">
<path fill="#1E1E1E" stroke="none" d="
M -1.3 4
Q -0.7 4 -0.3 3.6 0.05 3.25 0.05 2.7 0.05 2.35 -0.05 2.05 -0.15 1.75 -0.3 1.55 -0.5 1.35 -0.75 1.2 -1 1.1 -1.3 1.1
L -23.4 1.1
Q -23.8 1.1 -24.05 1.2 -24.3 1.35 -24.45 1.55 -24.8 2 -24.8 2.55 -24.8 2.85 -24.7 3.15 -24.65 3.4 -24.45 3.6 -24.3 3.8 -24.05 3.95 -23.8 4 -23.4 4
L -14.15 4 -14.15 11.9
Q -14.15 12.25 -14 12.55 -13.9 12.8 -13.6 13 -13.35 13.15 -13.05 13.25 -12.8 13.35 -12.5 13.35 -12.15 13.35 -11.85 13.25 -11.55 13.15 -11.3 13 -11.05 12.8 -10.9 12.55 -10.75 12.25 -10.75 11.9
L -10.75 4 -1.3 4
M -20.95 -5.2
Q -21.35 -5 -21.5 -4.75 -21.65 -4.5 -21.65 -4.2 -21.65 -3.85 -21.55 -3.5 -21.45 -3.2 -21.2 -3 -21 -2.7 -20.75 -2.55 -20.45 -2.45 -20.05 -2.45 -19.95 -2.45 -19.85 -2.45 -19.75 -2.5 -19.65 -2.55 -18.5 -2.95 -17.45 -3.45 -16.4 -3.95 -15.45 -4.55 -14.5 -5.1 -13.75 -5.8 -13 -6.45 -12.45 -7.2 -11.9 -6.35 -11.2 -5.7 -10.5 -5.05 -9.6 -4.5 -8.7 -3.9 -7.7 -3.45 -6.65 -2.95 -5.45 -2.55
L -5.45 -2.6
Q -5.35 -2.55 -5.2 -2.55 -5.05 -2.5 -4.9 -2.5 -4.65 -2.5 -4.4 -2.6 -4.15 -2.75 -3.95 -3 -3.7 -3.25 -3.6 -3.55 -3.45 -3.85 -3.45 -4.2 -3.45 -4.35 -3.5 -4.5 -3.55 -4.65 -3.6 -4.8 -3.65 -4.9 -3.8 -5.05 -3.9 -5.1 -4.05 -5.2 -4.75 -5.45 -5.35 -5.75 -5.95 -6 -6.45 -6.25 -7.55 -6.7 -8.4 -7.4 -8.85 -7.75 -9.25 -8.1 -9.6 -8.5 -9.9 -8.95 -10.2 -9.4 -10.35 -9.9 -10.55 -10.45 -10.6 -11.15
L -10.6 -12.3
Q -10.6 -12.55 -10.8 -12.8 -10.85 -12.9 -11 -13 -11.1 -13.1 -11.3 -13.15 -11.45 -13.25 -11.55 -13.3 -11.7 -13.35 -11.8 -13.4 -11.95 -13.4 -12.1 -13.4 -12.25 -13.45 -12.45 -13.45 -12.55 -13.45 -12.7 -13.4 -12.8 -13.4 -12.95 -13.4 -13.05 -13.35 -13.2 -13.3 -13.4 -13.25 -13.55 -13.15 -13.7 -13.1 -13.8 -13 -13.9 -12.9 -13.95 -12.8 -14.05 -12.65 -14.1 -12.55 -14.1 -12.45 -14.1 -12.3
L -14.1 -11.15
Q -14.2 -10.5 -14.45 -9.95 -14.65 -9.4 -14.95 -8.95 -15.25 -8.5 -15.65 -8.1 -16.05 -7.7 -16.5 -7.35 -17 -7 -17.55 -6.7 -18.05 -6.4 -18.65 -6.15 -19.25 -5.9 -19.85 -5.65 -20.4 -5.4 -20.95 -5.2
M 22.7 12.15
Q 23.25 12.15 23.65 11.75 23.8 11.5 23.9 11.25 23.95 10.95 23.95 10.65 23.95 10.35 23.9 10.15 23.8 9.9 23.65 9.7 23.45 9.5 23.2 9.35 23 9.25 22.7 9.25
L 13.4 9.25
Q 13.15 9.25 12.9 9.25 12.7 9.2 12.5 9.2 12.35 9.2 12.15 9.15 11.95 9.15 11.7 9.1
L 11.7 3.9
Q 11.7 3.75 11.7 3.6 11.65 3.45 11.6 3.3 11.5 3.25 11.4 3.1 11.35 3 11.25 2.95 11.1 2.85 10.95 2.85 10.8 2.8 10.65 2.75 10.45 2.7 10.3 2.7 10.2 2.7 10.1 2.7 9.75 2.7 9.5 2.75 9.2 2.85 8.95 2.95 8.65 3.15 8.5 3.35 8.35 3.6 8.35 3.9
L 8.35 9.7
Q 8.35 10.3 8.55 10.75 8.75 11.2 9.2 11.55 9.55 11.85 10.05 12 10.5 12.15 11.1 12.15
L 22.7 12.15
M 21.15 -13.1
Q 20.9 -12.95 20.75 -12.75 20.65 -12.5 20.65 -12.1
L 20.65 2.1
Q 20.65 2.5 20.75 2.7 20.9 2.95 21.15 3.05 21.35 3.15 21.6 3.25 21.9 3.3 22.15 3.3 22.35 3.3 22.5 3.3 22.7 3.3 22.85 3.25 23 3.25 23.1 3.15 23.2 3.15 23.35 3.05 23.5 3 23.6 2.9 23.7 2.8 23.8 2.7 23.9 2.55 23.95 2.45 24 2.3 24 2.1
L 24 -12.1
Q 24 -12.25 23.95 -12.45 23.9 -12.6 23.8 -12.7 23.7 -12.8 23.6 -12.9 23.5 -13 23.35 -13.1 23.1 -13.15 22.85 -13.25 22.7 -13.25 22.5 -13.25 22.35 -13.25 22.15 -13.25 21.9 -13.25 21.6 -13.2 21.35 -13.15 21.15 -13.1
M 4.6 -11.55
Q 4.25 -11.15 4.05 -10.65 3.9 -10.15 3.9 -9.6
L 3.9 -3.65
Q 3.9 -3 4.15 -2.55 4.25 -2.3 4.4 -2.1 4.55 -1.9 4.7 -1.75 4.95 -1.6 5.15 -1.45 5.4 -1.35 5.65 -1.25 6.1 -1.1 6.75 -1.1
L 13.25 -1.1
Q 13.5 -1.1 13.75 -1.15 14 -1.2 14.3 -1.3 14.5 -1.4 14.7 -1.55 14.9 -1.7 15 -1.9 15.35 -2.3 15.6 -2.85 15.7 -3.05 15.75 -3.3 15.8 -3.6 15.8 -3.85
L 15.8 -9.8
Q 15.8 -10.1 15.75 -10.35 15.65 -10.6 15.55 -10.85 15.4 -11.1 15.25 -11.3 15.1 -11.5 14.95 -11.65 14.75 -11.85 14.55 -11.95 14.3 -12.1 14.05 -12.2 13.5 -12.4 12.85 -12.4
L 6.5 -12.4
Q 5.9 -12.4 5.45 -12.2 4.95 -11.95 4.6 -11.55
M 7.1 -9.2
Q 7.4 -9.25 7.65 -9.25 7.9 -9.3 8.15 -9.3 8.45 -9.35 8.65 -9.35 8.9 -9.35 9.15 -9.35
L 10.35 -9.35
Q 10.65 -9.35 10.9 -9.35 11.2 -9.35 11.4 -9.35 11.65 -9.35 11.9 -9.35 12.15 -9.3 12.45 -9.3 12.45 -9.05 12.5 -8.8 12.5 -8.5 12.5 -8.25 12.5 -7.7 12.5 -7.25
L 12.5 -6.15
Q 12.5 -5.9 12.5 -5.65 12.5 -5.4 12.5 -5.1 12.5 -4.9 12.5 -4.6 12.45 -4.35 12.45 -4.15 12.15 -4.1 11.9 -4.1 11.65 -4.1 11.4 -4.1 11.2 -4.1 10.9 -4.1 10.65 -4.1 10.35 -4.1
L 9.15 -4.1
Q 8.7 -4.1 8.2 -4.1 7.95 -4.1 7.7 -4.1 7.4 -4.1 7.15 -4.15 7.1 -4.35 7.1 -4.6 7.1 -4.9 7.1 -5.1 7.1 -5.4 7.1 -5.65 7.1 -5.9 7.1 -6.15
L 7.1 -9.2 Z"/>
</g>

<g id="Layer0_8_FILL">
<path fill="#1E1E1E" stroke="none" d="
M 276.05 125.35
Q 275.4 124.7 274.45 124.7 273.5 124.7 272.8 125.35 272.15 126 272.15 126.95 272.15 127.9 272.8 128.6 273.5 129.3 274.45 129.3 275.4 129.3 276.05 128.6 276.7 127.9 276.7 126.95 276.7 126 276.05 125.35
M 267.6 108.35
Q 267.05 107.2 266.25 106.3 265.4 105.4 264.25 104.95 263.05 104.4 261.5 104.4 259.15 104.4 257.7 105.55 256.2 106.65 255.4 108.35 254.55 110.05 254.25 112.1 254 114.15 254 116 254 121.5 255.85 124.55 257.7 127.55 261.5 127.55 263.45 127.55 264.8 126.8 266.2 126 267.15 124.55 268.1 123.05 268.55 120.9 269 118.7 269 116 269 114.75 268.85 113.4 268.75 112.1 268.45 110.8 268.15 109.5 267.6 108.35
M 265.35 119.9
Q 265.05 121.5 264.5 122.45 263.95 123.45 263.2 123.9 262.45 124.35 261.5 124.35 260.55 124.35 259.8 123.9 259.05 123.45 258.5 122.45 257.95 121.5 257.7 119.9 257.4 118.3 257.4 116 257.4 113.7 257.7 112.1 257.95 110.55 258.5 109.55 259.05 108.55 259.8 108.1 260.55 107.7 261.5 107.7 262.45 107.7 263.2 108.1 263.95 108.55 264.5 109.55 265.05 110.55 265.35 112.1 265.6 113.7 265.6 116 265.6 118.3 265.35 119.9
M 283.95 111.2
L 286.15 109.3 286.15 127.05
Q 286.15 127.45 286.6 127.45
L 289 127.45
Q 289.35 127.45 289.35 127.05
L 289.35 105.4
Q 289.35 104.8 289.25 104.7 289.15 104.6 288.65 104.6
L 287.05 104.6
Q 286.95 104.6 286.8 104.7 286.65 104.75 286.6 104.8
L 282 109.05
Q 281.85 109.15 281.85 109.35 281.85 109.5 281.95 109.65
L 283.25 111.25
Q 283.4 111.35 283.6 111.35 283.8 111.3 283.95 111.2
M 209.3 110.8
Q 209 109.5 208.45 108.35 207.9 107.2 207.1 106.3 206.25 105.4 205.1 104.95 203.9 104.4 202.35 104.4 200 104.4 198.55 105.55 197.05 106.65 196.25 108.35 195.4 110.05 195.1 112.1 194.85 114.15 194.85 116 194.85 121.5 196.7 124.55 198.55 127.55 202.35 127.55 204.3 127.55 205.65 126.8 207.05 126 208 124.55 208.95 123.05 209.4 120.9 209.85 118.7 209.85 116 209.85 114.75 209.7 113.4 209.6 112.1 209.3 110.8
M 204.05 108.1
Q 204.8 108.55 205.35 109.55 205.9 110.55 206.2 112.1 206.45 113.7 206.45 116 206.45 118.3 206.2 119.9 205.9 121.5 205.35 122.45 204.8 123.45 204.05 123.9 203.3 124.35 202.35 124.35 201.4 124.35 200.65 123.9 199.9 123.45 199.35 122.45 198.8 121.5 198.55 119.9 198.25 118.3 198.25 116 198.25 113.7 198.55 112.1 198.8 110.55 199.35 109.55 199.9 108.55 200.65 108.1 201.4 107.7 202.35 107.7 203.3 107.7 204.05 108.1
M 422.15 129.3
Q 423.1 129.3 423.75 128.6 424.4 127.9 424.4 126.95 424.4 126 423.75 125.35 423.1 124.7 422.15 124.7 421.2 124.7 420.5 125.35 419.85 126 419.85 126.95 419.85 127.9 420.5 128.6 421.2 129.3 422.15 129.3
M 437.6 109.05
Q 438 109.65 438 110.4 438 111.4 437.35 112.1 436.75 112.8 435.85 113.25 435 113.7 434.05 113.9 433.15 114.05 432.5 114.05
L 431.05 114.05
Q 430.8 114.05 430.7 114.15 430.65 114.2 430.65 114.45
L 430.65 116.65
Q 430.65 116.9 430.7 117 430.8 117.05 431.05 117.05
L 432.55 117.05
Q 434 117.05 435 117.35 436.05 117.65 436.7 118.15 437.35 118.65 437.7 119.3 438 119.95 438 120.6 438 122.6 436.55 123.6 436.05 123.95 435.45 124.15 434.9 124.35 434.25 124.45 433.6 124.5 432.95 124.5 432.3 124.45 431.65 124.4 430.85 124.35 430.05 124.1 429.25 123.9 428.5 123.65 428.05 123.5 427.95 123.55 427.75 123.7 427.75 123.95
L 427.45 126.2
Q 427.45 126.45 427.55 126.6 427.7 126.7 428 126.85 429.1 127.2 430.4 127.45 431.7 127.65 433 127.65 434.7 127.65 436.35 127.2 437.95 126.8 439.05 125.85 440.2 124.95 440.85 123.6 441.45 122.3 441.45 120.7 441.45 119.05 440.45 117.7 439.4 116.4 437.45 115.5 438.25 115.15 439 114.6 439.7 114 440.2 113.3 440.75 112.55 441 111.75 441.3 110.95 441.3 110.15 441.3 108.6 440.65 107.5 440.05 106.4 439.05 105.7 438.05 105 436.75 104.7 435.45 104.35 434.05 104.35 432.8 104.35 431.55 104.6 430.3 104.9 428.95 105.35 428.65 105.5 428.55 105.65 428.45 105.8 428.55 105.95
L 428.8 108.15
Q 428.85 108.45 429 108.5 429.15 108.55 429.5 108.45 430 108.25 430.6 108.1 431.2 107.9 431.8 107.75 432.35 107.6 432.9 107.55 433.45 107.45 433.9 107.45 434.5 107.45 435.25 107.6 435.95 107.75 436.55 108.15 437.2 108.5 437.6 109.05
M 350.55 126.95
Q 350.55 126 349.9 125.35 349.25 124.7 348.3 124.7 347.35 124.7 346.65 125.35 346 126 346 126.95 346 127.9 346.65 128.6 347.35 129.3 348.3 129.3 349.25 129.3 349.9 128.6 350.55 127.9 350.55 126.95
M 341.45 108.35
Q 340.9 107.2 340.1 106.3 339.25 105.4 338.1 104.95 336.9 104.4 335.35 104.4 333 104.4 331.55 105.55 330.05 106.65 329.25 108.35 328.4 110.05 328.1 112.1 327.85 114.15 327.85 116 327.85 121.5 329.7 124.55 331.55 127.55 335.35 127.55 337.3 127.55 338.65 126.8 340.05 126 341 124.55 341.95 123.05 342.4 120.9 342.85 118.7 342.85 116 342.85 114.75 342.7 113.4 342.6 112.1 342.3 110.8 342 109.5 341.45 108.35
M 335.35 107.7
Q 336.3 107.7 337.05 108.1 337.8 108.55 338.35 109.55 338.9 110.55 339.2 112.1 339.45 113.7 339.45 116 339.45 118.3 339.2 119.9 338.9 121.5 338.35 122.45 337.8 123.45 337.05 123.9 336.3 124.35 335.35 124.35 334.4 124.35 333.65 123.9 332.9 123.45 332.35 122.45 331.8 121.5 331.55 119.9 331.25 118.3 331.25 116 331.25 113.7 331.55 112.1 331.8 110.55 332.35 109.55 332.9 108.55 333.65 108.1 334.4 107.7 335.35 107.7
M 366.35 107.95
Q 365.85 106.75 365 105.95 364.1 105.15 362.9 104.75 361.65 104.35 360.2 104.35 358.8 104.35 357.35 104.8 355.85 105.3 354.75 105.9 354.45 106.1 354.35 106.25 354.25 106.4 354.3 106.55
L 354.75 108.8
Q 354.8 109.1 355.05 109.1 355.25 109.1 355.5 108.95 356.85 108.2 358 107.85 359.15 107.5 360.4 107.5 361.7 107.5 362.55 108.45 363.45 109.35 363.45 110.8 363.45 112.05 362.25 114.05 361.05 116 358.55 119
L 354 124.4
Q 353.85 124.65 353.7 124.9 353.55 125.1 353.55 125.35
L 353.55 127.05
Q 353.55 127.45 354.15 127.45
L 366.9 127.45
Q 367.35 127.45 367.35 126.95
L 367.35 124.85
Q 367.35 124.35 366.9 124.35
L 358.1 124.35
Q 358.85 123.5 359.6 122.65 360.35 121.75 361 120.95 361.85 119.95 362.85 118.75 363.9 117.5 364.8 116.2 365.7 114.85 366.3 113.45 366.9 112.05 366.9 110.7 366.9 109.15 366.35 107.95
M 403.1 108.35
Q 402.25 110.05 401.95 112.1 401.7 114.15 401.7 116 401.7 121.5 403.55 124.55 405.4 127.55 409.2 127.55 411.15 127.55 412.5 126.8 413.9 126 414.85 124.55 415.8 123.05 416.25 120.9 416.7 118.7 416.7 116 416.7 114.75 416.55 113.4 416.45 112.1 416.15 110.8 415.85 109.5 415.3 108.35 414.75 107.2 413.95 106.3 413.1 105.4 411.95 104.95 410.75 104.4 409.2 104.4 406.85 104.4 405.4 105.55 403.9 106.65 403.1 108.35
M 407.5 108.1
Q 408.25 107.7 409.2 107.7 410.15 107.7 410.9 108.1 411.65 108.55 412.2 109.55 412.75 110.55 413.05 112.1 413.3 113.7 413.3 116 413.3 118.3 413.05 119.9 412.75 121.5 412.2 122.45 411.65 123.45 410.9 123.9 410.15 124.35 409.2 124.35 408.25 124.35 407.5 123.9 406.75 123.45 406.2 122.45 405.65 121.5 405.4 119.9 405.1 118.3 405.1 116 405.1 113.7 405.4 112.1 405.65 110.55 406.2 109.55 406.75 108.55 407.5 108.1
M 569.85 129.3
Q 570.8 129.3 571.45 128.6 572.1 127.9 572.1 126.95 572.1 126 571.45 125.35 570.8 124.7 569.85 124.7 568.9 124.7 568.2 125.35 567.55 126 567.55 126.95 567.55 127.9 568.2 128.6 568.9 129.3 569.85 129.3
M 588.55 104.7
Q 588.45 104.6 588.25 104.6
L 577.25 104.6
Q 576.8 104.6 576.75 104.7 576.65 104.75 576.6 105.1
L 576.45 116.2
Q 576.45 117.2 577.65 116.7 578.6 116.35 579.65 116.15 580.65 115.95 581.65 115.95 584.1 115.95 585.2 117.1 586.25 118.25 586.25 120.2 586.25 122.2 584.95 123.35 583.6 124.5 581.6 124.5 581.1 124.5 580.45 124.4 579.85 124.35 579.2 124.25 578.6 124.1 578 123.95 577.4 123.8 576.95 123.55 576.3 123.25 576.3 123.8
L 576.3 126.2
Q 576.3 126.45 576.35 126.55 576.35 126.65 576.55 126.75 577.05 127 577.75 127.15 578.45 127.3 579.15 127.45 579.85 127.55 580.45 127.6 581.1 127.65 581.4 127.65 583.1 127.65 584.65 127.15 586.2 126.65 587.3 125.7 589.65 123.55 589.65 119.8 589.65 118.25 589.05 117 588.5 115.7 587.55 114.85 586.55 113.95 585.25 113.5 583.95 113.05 582.4 113.05 580.95 113.05 579.8 113.3
L 579.9 107.7 588.25 107.7
Q 588.45 107.7 588.55 107.6 588.65 107.45 588.65 107.3
L 588.65 105
Q 588.65 104.8 588.55 104.7
M 642.05 128.6
Q 642.75 129.3 643.7 129.3 644.65 129.3 645.3 128.6 645.95 127.9 645.95 126.95 645.95 126 645.3 125.35 644.65 124.7 643.7 124.7 642.75 124.7 642.05 125.35 641.4 126 641.4 126.95 641.4 127.9 642.05 128.6
M 636.85 108.35
Q 636.3 107.2 635.5 106.3 634.65 105.4 633.5 104.95 632.3 104.4 630.75 104.4 628.4 104.4 626.95 105.55 625.45 106.65 624.65 108.35 623.8 110.05 623.5 112.1 623.25 114.15 623.25 116 623.25 121.5 625.1 124.55 626.95 127.55 630.75 127.55 632.7 127.55 634.05 126.8 635.45 126 636.4 124.55 637.35 123.05 637.8 120.9 638.25 118.7 638.25 116 638.25 114.75 638.1 113.4 638 112.1 637.7 110.8 637.4 109.5 636.85 108.35
M 630.75 107.7
Q 631.7 107.7 632.45 108.1 633.2 108.55 633.75 109.55 634.3 110.55 634.6 112.1 634.85 113.7 634.85 116 634.85 118.3 634.6 119.9 634.3 121.5 633.75 122.45 633.2 123.45 632.45 123.9 631.7 124.35 630.75 124.35 629.8 124.35 629.05 123.9 628.3 123.45 627.75 122.45 627.2 121.5 626.95 119.9 626.65 118.3 626.65 116 626.65 113.7 626.95 112.1 627.2 110.55 627.75 109.55 628.3 108.55 629.05 108.1 629.8 107.7 630.75 107.7
M 498.25 126.95
Q 498.25 126 497.6 125.35 496.95 124.7 496 124.7 495.05 124.7 494.35 125.35 493.7 126 493.7 126.95 493.7 127.9 494.35 128.6 495.05 129.3 496 129.3 496.95 129.3 497.6 128.6 498.25 127.9 498.25 126.95
M 490 110.8
Q 489.7 109.5 489.15 108.35 488.6 107.2 487.8 106.3 486.95 105.4 485.8 104.95 484.6 104.4 483.05 104.4 480.7 104.4 479.25 105.55 477.75 106.65 476.95 108.35 476.1 110.05 475.8 112.1 475.55 114.15 475.55 116 475.55 121.5 477.4 124.55 479.25 127.55 483.05 127.55 485 127.55 486.35 126.8 487.75 126 488.7 124.55 489.65 123.05 490.1 120.9 490.55 118.7 490.55 116 490.55 114.75 490.4 113.4 490.3 112.1 490 110.8
M 487.15 116
Q 487.15 118.3 486.9 119.9 486.6 121.5 486.05 122.45 485.5 123.45 484.75 123.9 484 124.35 483.05 124.35 482.1 124.35 481.35 123.9 480.6 123.45 480.05 122.45 479.5 121.5 479.25 119.9 478.95 118.3 478.95 116 478.95 113.7 479.25 112.1 479.5 110.55 480.05 109.55 480.6 108.55 481.35 108.1 482.1 107.7 483.05 107.7 484 107.7 484.75 108.1 485.5 108.55 486.05 109.55 486.6 110.55 486.9 112.1 487.15 113.7 487.15 116
M 513.65 105.05
Q 513.65 104.8 513.65 104.7 513.6 104.6 513.35 104.6
L 510.6 104.6
Q 510.3 104.6 510.25 104.7 510.15 104.75 510 105
L 500.7 118.95
Q 500.6 119.1 500.45 119.35 500.35 119.55 500.35 119.75
L 500.35 121.95
Q 500.35 122.2 500.45 122.25 500.55 122.3 500.85 122.3
L 510.45 122.3 510.45 126.9
Q 510.45 127.2 510.55 127.3 510.65 127.45 511 127.45
L 513.15 127.45
Q 513.45 127.45 513.55 127.3 513.65 127.2 513.65 126.9
L 513.65 122.3 516.45 122.3
Q 516.7 122.3 516.8 122.25 516.9 122.15 516.9 121.85
L 516.9 119.7
Q 516.9 119.4 516.8 119.3 516.7 119.2 516.45 119.2
L 513.65 119.2 513.65 105.05
M 510.45 109.45
L 510.45 119.2 504 119.2 510.45 109.45
M 563.85 110.8
Q 563.55 109.5 563 108.35 562.45 107.2 561.65 106.3 560.8 105.4 559.65 104.95 558.45 104.4 556.9 104.4 554.55 104.4 553.1 105.55 551.6 106.65 550.8 108.35 549.95 110.05 549.65 112.1 549.4 114.15 549.4 116 549.4 121.5 551.25 124.55 553.1 127.55 556.9 127.55 558.85 127.55 560.2 126.8 561.6 126 562.55 124.55 563.5 123.05 563.95 120.9 564.4 118.7 564.4 116 564.4 114.75 564.25 113.4 564.15 112.1 563.85 110.8
M 558.6 108.1
Q 559.35 108.55 559.9 109.55 560.45 110.55 560.75 112.1 561 113.7 561 116 561 118.3 560.75 119.9 560.45 121.5 559.9 122.45 559.35 123.45 558.6 123.9 557.85 124.35 556.9 124.35 555.95 124.35 555.2 123.9 554.45 123.45 553.9 122.45 553.35 121.5 553.1 119.9 552.8 118.3 552.8 116 552.8 113.7 553.1 112.1 553.35 110.55 553.9 109.55 554.45 108.55 555.2 108.1 555.95 107.7 556.9 107.7 557.85 107.7 558.6 108.1
M 793.65 126.95
Q 793.65 126 793 125.35 792.35 124.7 791.4 124.7 790.45 124.7 789.75 125.35 789.1 126 789.1 126.95 789.1 127.9 789.75 128.6 790.45 129.3 791.4 129.3 792.35 129.3 793 128.6 793.65 127.9 793.65 126.95
M 785.4 110.8
Q 785.1 109.5 784.55 108.35 784 107.2 783.2 106.3 782.35 105.4 781.2 104.95 780 104.4 778.45 104.4 776.1 104.4 774.65 105.55 773.15 106.65 772.35 108.35 771.5 110.05 771.2 112.1 770.95 114.15 770.95 116 770.95 121.5 772.8 124.55 774.65 127.55 778.45 127.55 780.4 127.55 781.75 126.8 783.15 126 784.1 124.55 785.05 123.05 785.5 120.9 785.95 118.7 785.95 116 785.95 114.75 785.8 113.4 785.7 112.1 785.4 110.8
M 780.15 108.1
Q 780.9 108.55 781.45 109.55 782 110.55 782.3 112.1 782.55 113.7 782.55 116 782.55 118.3 782.3 119.9 782 121.5 781.45 122.45 780.9 123.45 780.15 123.9 779.4 124.35 778.45 124.35 777.5 124.35 776.75 123.9 776 123.45 775.45 122.45 774.9 121.5 774.65 119.9 774.35 118.3 774.35 116 774.35 113.7 774.65 112.1 774.9 110.55 775.45 109.55 776 108.55 776.75 108.1 777.5 107.7 778.45 107.7 779.4 107.7 780.15 108.1
M 658.9 107.45
Q 659.95 107.45 660.85 107.55 661.75 107.6 662.5 107.9 662.95 108.1 663 107.7
L 663.1 105.3
Q 663.1 105 662.85 104.9 662.15 104.65 661.1 104.5 660 104.35 659.15 104.35 656.4 104.35 654.45 105.35 652.5 106.35 651.35 108 650.15 109.7 649.65 111.95 649.15 114.2 649.15 116.75 649.15 122.35 651.05 125 652.95 127.65 656.5 127.65 658.2 127.65 659.6 127.05 660.95 126.45 661.95 125.4 662.9 124.35 663.4 122.95 663.95 121.5 663.95 119.85 663.95 118.15 663.4 116.8 662.9 115.4 661.9 114.45 660.95 113.45 659.65 112.95 658.3 112.45 656.65 112.45 656.1 112.45 655.5 112.6 654.9 112.75 654.35 113 653.8 113.25 653.35 113.6 652.85 113.95 652.6 114.3 652.8 112.85 653.25 111.6 653.65 110.35 654.4 109.4 655.15 108.5 656.25 107.95 657.35 107.45 658.9 107.45
M 653.7 116.7
Q 654.85 115.55 656.8 115.55 658.6 115.55 659.65 116.75 660.6 117.95 660.6 120 660.6 122.15 659.5 123.45 658.35 124.7 656.55 124.7 655.7 124.7 655 124.3 654.25 123.9 653.75 123.25 653.25 122.55 652.9 121.65 652.65 120.75 652.65 119.75 652.65 117.9 653.7 116.7
M 719.15 128.6
Q 719.8 127.9 719.8 126.95 719.8 126 719.15 125.35 718.5 124.7 717.55 124.7 716.6 124.7 715.9 125.35 715.25 126 715.25 126.95 715.25 127.9 715.9 128.6 716.6 129.3 717.55 129.3 718.5 129.3 719.15 128.6
M 710.7 108.35
Q 710.15 107.2 709.35 106.3 708.5 105.4 707.35 104.95 706.15 104.4 704.6 104.4 702.25 104.4 700.8 105.55 699.3 106.65 698.5 108.35 697.65 110.05 697.35 112.1 697.1 114.15 697.1 116 697.1 121.5 698.95 124.55 700.8 127.55 704.6 127.55 706.55 127.55 707.9 126.8 709.3 126 710.25 124.55 711.2 123.05 711.65 120.9 712.1 118.7 712.1 116 712.1 114.75 711.95 113.4 711.85 112.1 711.55 110.8 711.25 109.5 710.7 108.35
M 704.6 107.7
Q 705.55 107.7 706.3 108.1 707.05 108.55 707.6 109.55 708.15 110.55 708.45 112.1 708.7 113.7 708.7 116 708.7 118.3 708.45 119.9 708.15 121.5 707.6 122.45 707.05 123.45 706.3 123.9 705.55 124.35 704.6 124.35 703.65 124.35 702.9 123.9 702.15 123.45 701.6 122.45 701.05 121.5 700.8 119.9 700.5 118.3 700.5 116 700.5 113.7 700.8 112.1 701.05 110.55 701.6 109.55 702.15 108.55 702.9 108.1 703.65 107.7 704.6 107.7
M 723.55 104.6
Q 723.05 104.6 723.05 105.1
L 723.05 107.2
Q 723.05 107.45 723.2 107.6 723.35 107.7 723.55 107.7
L 733.15 107.7 725.3 126.9
Q 725.2 127.2 725.3 127.3 725.4 127.45 725.9 127.45
L 728.3 127.45
Q 728.6 127.45 728.7 127.3 728.85 127.25 728.95 127
L 736.9 107.45
Q 737.05 107.25 737.05 107
L 737.05 105.15
Q 737.05 104.8 736.95 104.7 736.85 104.6 736.35 104.6
L 723.55 104.6
M 945.25 105.4
Q 945.25 104.8 945.15 104.7 945.05 104.6 944.55 104.6
L 942.95 104.6
Q 942.85 104.6 942.7 104.7 942.55 104.75 942.5 104.8
L 937.9 109.05
Q 937.75 109.15 937.75 109.35 937.75 109.5 937.85 109.65
L 939.15 111.25
Q 939.3 111.35 939.5 111.35 939.7 111.3 939.85 111.2
L 942.05 109.3 942.05 127.05
Q 942.05 127.45 942.5 127.45
L 944.9 127.45
Q 945.25 127.45 945.25 127.05
L 945.25 105.4
M 811.5 119.4
Q 811.2 118.65 810.6 117.95 810 117.25 809.15 116.7 808.3 116.1 807.25 115.45 809.2 114.15 810.15 112.8 811.1 111.5 811.1 109.95 811.1 108.65 810.55 107.6 810.05 106.55 809.15 105.85 808.2 105.15 806.95 104.75 805.65 104.35 804.15 104.35 802.7 104.35 801.45 104.75 800.15 105.2 799.25 105.95 798.3 106.7 797.7 107.75 797.2 108.8 797.2 110.05 797.2 111.75 798.2 113.15 799.25 114.5 801.05 115.5 800.15 115.95 799.35 116.5 798.5 117.05 797.9 117.7 797.3 118.4 796.9 119.25 796.55 120.1 796.55 121.2 796.55 122.85 797.25 124.05 797.9 125.25 799 126.05 800.1 126.85 801.45 127.25 802.8 127.65 804.15 127.65 805.65 127.65 807 127.25 808.4 126.85 809.45 126.05 810.5 125.25 811.15 124.05 811.8 122.85 811.8 121.2 811.8 120.2 811.5 119.4
M 800.6 110.3
Q 800.6 109.55 800.95 109 801.25 108.45 801.75 108.1 802.25 107.7 802.9 107.5 803.55 107.3 804.15 107.3 804.9 107.3 805.55 107.5 806.15 107.75 806.65 108.15 807.1 108.55 807.4 109.05 807.7 109.6 807.7 110.2 807.7 110.75 807.35 111.35 806.95 111.95 806.4 112.5 805.85 113.05 805.25 113.4 804.65 113.85 804.2 114 803.8 113.85 803.2 113.5 802.6 113.15 802 112.65 801.4 112.1 801 111.5 800.6 110.9 800.6 110.3
M 800.3 122.6
Q 799.9 122 799.9 121.2 799.9 120.3 800.35 119.6 800.8 118.95 801.45 118.45 802.1 117.95 802.85 117.65 803.6 117.35 804.2 117.15 804.95 117.45 805.7 117.9 806.45 118.35 807.05 118.85 807.65 119.4 808.05 120.05 808.45 120.65 808.45 121.2 808.45 122 808.05 122.65 807.65 123.3 807.05 123.75 806.45 124.15 805.7 124.4 804.95 124.65 804.15 124.65 803.45 124.65 802.65 124.4 801.9 124.15 801.3 123.7 800.7 123.25 800.3 122.6
M 865.4 129.3
Q 866.35 129.3 867 128.6 867.65 127.9 867.65 126.95 867.65 126 867 125.35 866.35 124.7 865.4 124.7 864.45 124.7 863.75 125.35 863.1 126 863.1 126.95 863.1 127.9 863.75 128.6 864.45 129.3 865.4 129.3
M 859.4 110.8
Q 859.1 109.5 858.55 108.35 858 107.2 857.2 106.3 856.35 105.4 855.2 104.95 854 104.4 852.45 104.4 850.1 104.4 848.65 105.55 847.15 106.65 846.35 108.35 845.5 110.05 845.2 112.1 844.95 114.15 844.95 116 844.95 121.5 846.8 124.55 848.65 127.55 852.45 127.55 854.4 127.55 855.75 126.8 857.15 126 858.1 124.55 859.05 123.05 859.5 120.9 859.95 118.7 859.95 116 859.95 114.75 859.8 113.4 859.7 112.1 859.4 110.8
M 852.45 107.7
Q 853.4 107.7 854.15 108.1 854.9 108.55 855.45 109.55 856 110.55 856.3 112.1 856.55 113.7 856.55 116 856.55 118.3 856.3 119.9 856 121.5 855.45 122.45 854.9 123.45 854.15 123.9 853.4 124.35 852.45 124.35 851.5 124.35 850.75 123.9 850 123.45 849.45 122.45 848.9 121.5 848.65 119.9 848.35 118.3 848.35 116 848.35 113.7 848.65 112.1 848.9 110.55 849.45 109.55 850 108.55 850.75 108.1 851.5 107.7 852.45 107.7
M 872.65 106.6
Q 871.65 107.65 871.2 109.05 870.65 110.5 870.65 112.15 870.65 113.85 871.2 115.2 871.7 116.6 872.65 117.55 873.6 118.55 874.95 119.05 876.3 119.6 877.9 119.6 878.5 119.6 879.1 119.45 879.7 119.25 880.25 119 880.8 118.75 881.25 118.4 881.7 118.05 882 117.7 881.8 119.15 881.35 120.4 880.9 121.65 880.15 122.6 879.4 123.5 878.35 124.05 877.25 124.55 875.65 124.55 874.6 124.55 873.75 124.5 872.85 124.4 872.05 124.1 871.65 123.9 871.6 124.35
L 871.5 126.7
Q 871.45 127.05 871.75 127.1 872.45 127.35 873.5 127.5 874.55 127.65 875.4 127.65 878.2 127.65 880.15 126.65 882.05 125.7 883.25 124 884.45 122.3 884.95 120.05 885.45 117.8 885.45 115.25 885.45 109.65 883.55 107 881.65 104.35 878.1 104.35 876.4 104.35 875 104.95 873.6 105.55 872.65 106.6
M 875.1 108.55
Q 876.25 107.3 878.05 107.3 878.9 107.3 879.6 107.7 880.3 108.1 880.85 108.8 881.35 109.45 881.65 110.35 881.95 111.25 881.95 112.25 881.95 114.1 880.85 115.3 879.75 116.45 877.8 116.45 875.95 116.45 874.95 115.25 873.95 114.05 873.95 112 873.95 109.85 875.1 108.55
M 978.1 110.3
Q 976.55 110.3 975.2 111 973.85 111.7 973.2 113.15 972.6 111.75 971.3 111.05 970.05 110.3 968.45 110.3 967.3 110.3 966.25 110.8 965.2 111.3 964.6 111.95
L 964.65 110.9
Q 964.65 110.7 964.35 110.7
L 961.8 110.7
Q 961.35 110.7 961.4 111.05 961.45 111.65 961.5 112.7 961.5 113.75 961.5 114.9
L 961.5 126.85
Q 961.5 127 961.6 127.15 961.75 127.25 961.85 127.25
L 964.35 127.25
Q 964.7 127.25 964.7 126.9
L 964.7 117.15
Q 964.7 115.35 965.65 114.3 966.6 113.3 968.3 113.3 970.95 113.3 970.95 116.45
L 970.95 126.85
Q 970.95 127 971.05 127.15 971.2 127.25 971.3 127.25
L 973.8 127.25
Q 974.15 127.25 974.15 126.9
L 974.15 118.2
Q 974.15 117.15 974.45 116.25 974.7 115.35 975.15 114.7 975.65 114.05 976.35 113.65 977.05 113.3 977.95 113.3 979.2 113.3 979.9 114.15 980.55 115.05 980.55 116.45
L 980.55 126.85
Q 980.55 127 980.65 127.15 980.75 127.25 980.9 127.25
L 983.4 127.25
Q 983.55 127.25 983.65 127.15 983.75 127.05 983.75 126.9
L 983.75 116.05
Q 983.75 113.35 982.2 111.85 980.65 110.3 978.1 110.3 Z"/>
</g>

<g id="Layer0_9_FILL">
<path fill="#1E1E1E" stroke="none" d="
M 276.7 307.95
Q 276.7 307 276.05 306.35 275.4 305.7 274.45 305.7 273.5 305.7 272.8 306.35 272.15 307 272.15 307.95 272.15 308.9 272.8 309.6 273.5 310.3 274.45 310.3 275.4 310.3 276.05 309.6 276.7 308.9 276.7 307.95
M 202.35 285.4
Q 200 285.4 198.55 286.55 197.05 287.65 196.25 289.35 195.4 291.05 195.1 293.1 194.85 295.15 194.85 297 194.85 302.5 196.7 305.55 198.55 308.55 202.35 308.55 204.3 308.55 205.65 307.8 207.05 307 208 305.55 208.95 304.05 209.4 301.9 209.85 299.7 209.85 297 209.85 295.75 209.7 294.4 209.6 293.1 209.3 291.8 209 290.5 208.45 289.35 207.9 288.2 207.1 287.3 206.25 286.4 205.1 285.95 203.9 285.4 202.35 285.4
M 198.55 293.1
Q 198.8 291.55 199.35 290.55 199.9 289.55 200.65 289.1 201.4 288.7 202.35 288.7 203.3 288.7 204.05 289.1 204.8 289.55 205.35 290.55 205.9 291.55 206.2 293.1 206.45 294.7 206.45 297 206.45 299.3 206.2 300.9 205.9 302.5 205.35 303.45 204.8 304.45 204.05 304.9 203.3 305.35 202.35 305.35 201.4 305.35 200.65 304.9 199.9 304.45 199.35 303.45 198.8 302.5 198.55 300.9 198.25 299.3 198.25 297 198.25 294.7 198.55 293.1
M 281.85 290.35
Q 281.85 290.5 281.95 290.65
L 283.25 292.25
Q 283.4 292.35 283.6 292.35 283.8 292.3 283.95 292.2
L 286.15 290.3 286.15 308.05
Q 286.15 308.45 286.6 308.45
L 289 308.45
Q 289.35 308.45 289.35 308.05
L 289.35 286.4
Q 289.35 285.8 289.25 285.7 289.15 285.6 288.65 285.6
L 287.05 285.6
Q 286.95 285.6 286.8 285.7 286.65 285.75 286.6 285.8
L 282 290.05
Q 281.85 290.15 281.85 290.35
M 255.4 289.35
Q 254.55 291.05 254.25 293.1 254 295.15 254 297 254 302.5 255.85 305.55 257.7 308.55 261.5 308.55 263.45 308.55 264.8 307.8 266.2 307 267.15 305.55 268.1 304.05 268.55 301.9 269 299.7 269 297 269 295.75 268.85 294.4 268.75 293.1 268.45 291.8 268.15 290.5 267.6 289.35 267.05 288.2 266.25 287.3 265.4 286.4 264.25 285.95 263.05 285.4 261.5 285.4 259.15 285.4 257.7 286.55 256.2 287.65 255.4 289.35
M 261.5 288.7
Q 262.45 288.7 263.2 289.1 263.95 289.55 264.5 290.55 265.05 291.55 265.35 293.1 265.6 294.7 265.6 297 265.6 299.3 265.35 300.9 265.05 302.5 264.5 303.45 263.95 304.45 263.2 304.9 262.45 305.35 261.5 305.35 260.55 305.35 259.8 304.9 259.05 304.45 258.5 303.45 257.95 302.5 257.7 300.9 257.4 299.3 257.4 297 257.4 294.7 257.7 293.1 257.95 291.55 258.5 290.55 259.05 289.55 259.8 289.1 260.55 288.7 261.5 288.7
M 568.2 306.35
Q 567.55 307 567.55 307.95 567.55 308.9 568.2 309.6 568.9 310.3 569.85 310.3 570.8 310.3 571.45 309.6 572.1 308.9 572.1 307.95 572.1 307 571.45 306.35 570.8 305.7 569.85 305.7 568.9 305.7 568.2 306.35
M 642.05 306.35
Q 641.4 307 641.4 307.95 641.4 308.9 642.05 309.6 642.75 310.3 643.7 310.3 644.65 310.3 645.3 309.6 645.95 308.9 645.95 307.95 645.95 307 645.3 306.35 644.65 305.7 643.7 305.7 642.75 305.7 642.05 306.35
M 498.25 307.95
Q 498.25 307 497.6 306.35 496.95 305.7 496 305.7 495.05 305.7 494.35 306.35 493.7 307 493.7 307.95 493.7 308.9 494.35 309.6 495.05 310.3 496 310.3 496.95 310.3 497.6 309.6 498.25 308.9 498.25 307.95
M 550.8 289.35
Q 549.95 291.05 549.65 293.1 549.4 295.15 549.4 297 549.4 302.5 551.25 305.55 553.1 308.55 556.9 308.55 558.85 308.55 560.2 307.8 561.6 307 562.55 305.55 563.5 304.05 563.95 301.9 564.4 299.7 564.4 297 564.4 295.75 564.25 294.4 564.15 293.1 563.85 291.8 563.55 290.5 563 289.35 562.45 288.2 561.65 287.3 560.8 286.4 559.65 285.95 558.45 285.4 556.9 285.4 554.55 285.4 553.1 286.55 551.6 287.65 550.8 289.35
M 553.9 290.55
Q 554.45 289.55 555.2 289.1 555.95 288.7 556.9 288.7 557.85 288.7 558.6 289.1 559.35 289.55 559.9 290.55 560.45 291.55 560.75 293.1 561 294.7 561 297 561 299.3 560.75 300.9 560.45 302.5 559.9 303.45 559.35 304.45 558.6 304.9 557.85 305.35 556.9 305.35 555.95 305.35 555.2 304.9 554.45 304.45 553.9 303.45 553.35 302.5 553.1 300.9 552.8 299.3 552.8 297 552.8 294.7 553.1 293.1 553.35 291.55 553.9 290.55
M 513.65 286.05
Q 513.65 285.8 513.65 285.7 513.6 285.6 513.35 285.6
L 510.6 285.6
Q 510.3 285.6 510.25 285.7 510.15 285.75 510 286
L 500.7 299.95
Q 500.6 300.1 500.45 300.35 500.35 300.55 500.35 300.75
L 500.35 302.95
Q 500.35 303.2 500.45 303.25 500.55 303.3 500.85 303.3
L 510.45 303.3 510.45 307.9
Q 510.45 308.2 510.55 308.3 510.65 308.45 511 308.45
L 513.15 308.45
Q 513.45 308.45 513.55 308.3 513.65 308.2 513.65 307.9
L 513.65 303.3 516.45 303.3
Q 516.7 303.3 516.8 303.25 516.9 303.15 516.9 302.85
L 516.9 300.7
Q 516.9 300.4 516.8 300.3 516.7 300.2 516.45 300.2
L 513.65 300.2 513.65 286.05
M 510.45 300.2
L 504 300.2 510.45 290.45 510.45 300.2
M 624.65 289.35
Q 623.8 291.05 623.5 293.1 623.25 295.15 623.25 297 623.25 302.5 625.1 305.55 626.95 308.55 630.75 308.55 632.7 308.55 634.05 307.8 635.45 307 636.4 305.55 637.35 304.05 637.8 301.9 638.25 299.7 638.25 297 638.25 295.75 638.1 294.4 638 293.1 637.7 291.8 637.4 290.5 636.85 289.35 636.3 288.2 635.5 287.3 634.65 286.4 633.5 285.95 632.3 285.4 630.75 285.4 628.4 285.4 626.95 286.55 625.45 287.65 624.65 289.35
M 627.75 290.55
Q 628.3 289.55 629.05 289.1 629.8 288.7 630.75 288.7 631.7 288.7 632.45 289.1 633.2 289.55 633.75 290.55 634.3 291.55 634.6 293.1 634.85 294.7 634.85 297 634.85 299.3 634.6 300.9 634.3 302.5 633.75 303.45 633.2 304.45 632.45 304.9 631.7 305.35 630.75 305.35 629.8 305.35 629.05 304.9 628.3 304.45 627.75 303.45 627.2 302.5 626.95 300.9 626.65 299.3 626.65 297 626.65 294.7 626.95 293.1 627.2 291.55 627.75 290.55
M 585.25 294.5
Q 583.95 294.05 582.4 294.05 580.95 294.05 579.8 294.3
L 579.9 288.7 588.25 288.7
Q 588.45 288.7 588.55 288.6 588.65 288.45 588.65 288.3
L 588.65 286
Q 588.65 285.8 588.55 285.7 588.45 285.6 588.25 285.6
L 577.25 285.6
Q 576.8 285.6 576.75 285.7 576.65 285.75 576.6 286.1
L 576.45 297.2
Q 576.45 298.2 577.65 297.7 578.6 297.35 579.65 297.15 580.65 296.95 581.65 296.95 584.1 296.95 585.2 298.1 586.25 299.25 586.25 301.2 586.25 303.2 584.95 304.35 583.6 305.5 581.6 305.5 581.1 305.5 580.45 305.4 579.85 305.35 579.2 305.25 578.6 305.1 578 304.95 577.4 304.8 576.95 304.55 576.3 304.25 576.3 304.8
L 576.3 307.2
Q 576.3 307.45 576.35 307.55 576.35 307.65 576.55 307.75 577.05 308 577.75 308.15 578.45 308.3 579.15 308.45 579.85 308.55 580.45 308.6 581.1 308.65 581.4 308.65 583.1 308.65 584.65 308.15 586.2 307.65 587.3 306.7 589.65 304.55 589.65 300.8 589.65 299.25 589.05 298 588.5 296.7 587.55 295.85 586.55 294.95 585.25 294.5
M 420.5 306.35
Q 419.85 307 419.85 307.95 419.85 308.9 420.5 309.6 421.2 310.3 422.15 310.3 423.1 310.3 423.75 309.6 424.4 308.9 424.4 307.95 424.4 307 423.75 306.35 423.1 305.7 422.15 305.7 421.2 305.7 420.5 306.35
M 350.55 307.95
Q 350.55 307 349.9 306.35 349.25 305.7 348.3 305.7 347.35 305.7 346.65 306.35 346 307 346 307.95 346 308.9 346.65 309.6 347.35 310.3 348.3 310.3 349.25 310.3 349.9 309.6 350.55 308.9 350.55 307.95
M 354.35 287.25
Q 354.25 287.4 354.3 287.55
L 354.75 289.8
Q 354.8 290.1 355.05 290.1 355.25 290.1 355.5 289.95 356.85 289.2 358 288.85 359.15 288.5 360.4 288.5 361.7 288.5 362.55 289.45 363.45 290.35 363.45 291.8 363.45 293.05 362.25 295.05 361.05 297 358.55 300
L 354 305.4
Q 353.85 305.65 353.7 305.9 353.55 306.1 353.55 306.35
L 353.55 308.05
Q 353.55 308.45 354.15 308.45
L 366.9 308.45
Q 367.35 308.45 367.35 307.95
L 367.35 305.85
Q 367.35 305.35 366.9 305.35
L 358.1 305.35
Q 358.85 304.5 359.6 303.65 360.35 302.75 361 301.95 361.85 300.95 362.85 299.75 363.9 298.5 364.8 297.2 365.7 295.85 366.3 294.45 366.9 293.05 366.9 291.7 366.9 290.15 366.35 288.95 365.85 287.75 365 286.95 364.1 286.15 362.9 285.75 361.65 285.35 360.2 285.35 358.8 285.35 357.35 285.8 355.85 286.3 354.75 286.9 354.45 287.1 354.35 287.25
M 329.25 289.35
Q 328.4 291.05 328.1 293.1 327.85 295.15 327.85 297 327.85 302.5 329.7 305.55 331.55 308.55 335.35 308.55 337.3 308.55 338.65 307.8 340.05 307 341 305.55 341.95 304.05 342.4 301.9 342.85 299.7 342.85 297 342.85 295.75 342.7 294.4 342.6 293.1 342.3 291.8 342 290.5 341.45 289.35 340.9 288.2 340.1 287.3 339.25 286.4 338.1 285.95 336.9 285.4 335.35 285.4 333 285.4 331.55 286.55 330.05 287.65 329.25 289.35
M 332.35 290.55
Q 332.9 289.55 333.65 289.1 334.4 288.7 335.35 288.7 336.3 288.7 337.05 289.1 337.8 289.55 338.35 290.55 338.9 291.55 339.2 293.1 339.45 294.7 339.45 297 339.45 299.3 339.2 300.9 338.9 302.5 338.35 303.45 337.8 304.45 337.05 304.9 336.3 305.35 335.35 305.35 334.4 305.35 333.65 304.9 332.9 304.45 332.35 303.45 331.8 302.5 331.55 300.9 331.25 299.3 331.25 297 331.25 294.7 331.55 293.1 331.8 291.55 332.35 290.55
M 485.8 285.95
Q 484.6 285.4 483.05 285.4 480.7 285.4 479.25 286.55 477.75 287.65 476.95 289.35 476.1 291.05 475.8 293.1 475.55 295.15 475.55 297 475.55 302.5 477.4 305.55 479.25 308.55 483.05 308.55 485 308.55 486.35 307.8 487.75 307 488.7 305.55 489.65 304.05 490.1 301.9 490.55 299.7 490.55 297 490.55 295.75 490.4 294.4 490.3 293.1 490 291.8 489.7 290.5 489.15 289.35 488.6 288.2 487.8 287.3 486.95 286.4 485.8 285.95
M 483.05 288.7
Q 484 288.7 484.75 289.1 485.5 289.55 486.05 290.55 486.6 291.55 486.9 293.1 487.15 294.7 487.15 297 487.15 299.3 486.9 300.9 486.6 302.5 486.05 303.45 485.5 304.45 484.75 304.9 484 305.35 483.05 305.35 482.1 305.35 481.35 304.9 480.6 304.45 480.05 303.45 479.5 302.5 479.25 300.9 478.95 299.3 478.95 297 478.95 294.7 479.25 293.1 479.5 291.55 480.05 290.55 480.6 289.55 481.35 289.1 482.1 288.7 483.05 288.7
M 430.6 289.1
Q 431.2 288.9 431.8 288.75 432.35 288.6 432.9 288.55 433.45 288.45 433.9 288.45 434.5 288.45 435.25 288.6 435.95 288.75 436.55 289.15 437.2 289.5 437.6 290.05 438 290.65 438 291.4 438 292.4 437.35 293.1 436.75 293.8 435.85 294.25 435 294.7 434.05 294.9 433.15 295.05 432.5 295.05
L 431.05 295.05
Q 430.8 295.05 430.7 295.15 430.65 295.2 430.65 295.45
L 430.65 297.65
Q 430.65 297.9 430.7 298 430.8 298.05 431.05 298.05
L 432.55 298.05
Q 434 298.05 435 298.35 436.05 298.65 436.7 299.15 437.35 299.65 437.7 300.3 438 300.95 438 301.6 438 303.6 436.55 304.6 436.05 304.95 435.45 305.15 434.9 305.35 434.25 305.45 433.6 305.5 432.95 305.5 432.3 305.45 431.65 305.4 430.85 305.35 430.05 305.1 429.25 304.9 428.5 304.65 428.05 304.5 427.95 304.55 427.75 304.7 427.75 304.95
L 427.45 307.2
Q 427.45 307.45 427.55 307.6 427.7 307.7 428 307.85 429.1 308.2 430.4 308.45 431.7 308.65 433 308.65 434.7 308.65 436.35 308.2 437.95 307.8 439.05 306.85 440.2 305.95 440.85 304.6 441.45 303.3 441.45 301.7 441.45 300.05 440.45 298.7 439.4 297.4 437.45 296.5 438.25 296.15 439 295.6 439.7 295 440.2 294.3 440.75 293.55 441 292.75 441.3 291.95 441.3 291.15 441.3 289.6 440.65 288.5 440.05 287.4 439.05 286.7 438.05 286 436.75 285.7 435.45 285.35 434.05 285.35 432.8 285.35 431.55 285.6 430.3 285.9 428.95 286.35 428.65 286.5 428.55 286.65 428.45 286.8 428.55 286.95
L 428.8 289.15
Q 428.85 289.45 429 289.5 429.15 289.55 429.5 289.45 430 289.25 430.6 289.1
M 413.95 287.3
Q 413.1 286.4 411.95 285.95 410.75 285.4 409.2 285.4 406.85 285.4 405.4 286.55 403.9 287.65 403.1 289.35 402.25 291.05 401.95 293.1 401.7 295.15 401.7 297 401.7 302.5 403.55 305.55 405.4 308.55 409.2 308.55 411.15 308.55 412.5 307.8 413.9 307 414.85 305.55 415.8 304.05 416.25 301.9 416.7 299.7 416.7 297 416.7 295.75 416.55 294.4 416.45 293.1 416.15 291.8 415.85 290.5 415.3 289.35 414.75 288.2 413.95 287.3
M 410.9 289.1
Q 411.65 289.55 412.2 290.55 412.75 291.55 413.05 293.1 413.3 294.7 413.3 297 413.3 299.3 413.05 300.9 412.75 302.5 412.2 303.45 411.65 304.45 410.9 304.9 410.15 305.35 409.2 305.35 408.25 305.35 407.5 304.9 406.75 304.45 406.2 303.45 405.65 302.5 405.4 300.9 405.1 299.3 405.1 297 405.1 294.7 405.4 293.1 405.65 291.55 406.2 290.55 406.75 289.55 407.5 289.1 408.25 288.7 409.2 288.7 410.15 288.7 410.9 289.1
M 867.65 307.95
Q 867.65 307 867 306.35 866.35 305.7 865.4 305.7 864.45 305.7 863.75 306.35 863.1 307 863.1 307.95 863.1 308.9 863.75 309.6 864.45 310.3 865.4 310.3 866.35 310.3 867 309.6 867.65 308.9 867.65 307.95
M 872.65 287.6
Q 871.65 288.65 871.2 290.05 870.65 291.5 870.65 293.15 870.65 294.85 871.2 296.2 871.7 297.6 872.65 298.55 873.6 299.55 874.95 300.05 876.3 300.6 877.9 300.6 878.5 300.6 879.1 300.45 879.7 300.25 880.25 300 880.8 299.75 881.25 299.4 881.7 299.05 882 298.7 881.8 300.15 881.35 301.4 880.9 302.65 880.15 303.6 879.4 304.5 878.35 305.05 877.25 305.55 875.65 305.55 874.6 305.55 873.75 305.5 872.85 305.4 872.05 305.1 871.65 304.9 871.6 305.35
L 871.5 307.7
Q 871.45 308.05 871.75 308.1 872.45 308.35 873.5 308.5 874.55 308.65 875.4 308.65 878.2 308.65 880.15 307.65 882.05 306.7 883.25 305 884.45 303.3 884.95 301.05 885.45 298.8 885.45 296.25 885.45 290.65 883.55 288 881.65 285.35 878.1 285.35 876.4 285.35 875 285.95 873.6 286.55 872.65 287.6
M 874.95 296.25
Q 873.95 295.05 873.95 293 873.95 290.85 875.1 289.55 876.25 288.3 878.05 288.3 878.9 288.3 879.6 288.7 880.3 289.1 880.85 289.8 881.35 290.45 881.65 291.35 881.95 292.25 881.95 293.25 881.95 295.1 880.85 296.3 879.75 297.45 877.8 297.45 875.95 297.45 874.95 296.25
M 848.65 286.55
Q 847.15 287.65 846.35 289.35 845.5 291.05 845.2 293.1 844.95 295.15 844.95 297 844.95 302.5 846.8 305.55 848.65 308.55 852.45 308.55 854.4 308.55 855.75 307.8 857.15 307 858.1 305.55 859.05 304.05 859.5 301.9 859.95 299.7 859.95 297 859.95 295.75 859.8 294.4 859.7 293.1 859.4 291.8 859.1 290.5 858.55 289.35 858 288.2 857.2 287.3 856.35 286.4 855.2 285.95 854 285.4 852.45 285.4 850.1 285.4 848.65 286.55
M 848.65 293.1
Q 848.9 291.55 849.45 290.55 850 289.55 850.75 289.1 851.5 288.7 852.45 288.7 853.4 288.7 854.15 289.1 854.9 289.55 855.45 290.55 856 291.55 856.3 293.1 856.55 294.7 856.55 297 856.55 299.3 856.3 300.9 856 302.5 855.45 303.45 854.9 304.45 854.15 304.9 853.4 305.35 852.45 305.35 851.5 305.35 850.75 304.9 850 304.45 849.45 303.45 848.9 302.5 848.65 300.9 848.35 299.3 848.35 297 848.35 294.7 848.65 293.1
M 937.9 290.05
Q 937.75 290.15 937.75 290.35 937.75 290.5 937.85 290.65
L 939.15 292.25
Q 939.3 292.35 939.5 292.35 939.7 292.3 939.85 292.2
L 942.05 290.3 942.05 308.05
Q 942.05 308.45 942.5 308.45
L 944.9 308.45
Q 945.25 308.45 945.25 308.05
L 945.25 286.4
Q 945.25 285.8 945.15 285.7 945.05 285.6 944.55 285.6
L 942.95 285.6
Q 942.85 285.6 942.7 285.7 942.55 285.75 942.5 285.8
L 937.9 290.05
M 791.4 305.7
Q 790.45 305.7 789.75 306.35 789.1 307 789.1 307.95 789.1 308.9 789.75 309.6 790.45 310.3 791.4 310.3 792.35 310.3 793 309.6 793.65 308.9 793.65 307.95 793.65 307 793 306.35 792.35 305.7 791.4 305.7
M 719.8 307.95
Q 719.8 307 719.15 306.35 718.5 305.7 717.55 305.7 716.6 305.7 715.9 306.35 715.25 307 715.25 307.95 715.25 308.9 715.9 309.6 716.6 310.3 717.55 310.3 718.5 310.3 719.15 309.6 719.8 308.9 719.8 307.95
M 698.5 289.35
Q 697.65 291.05 697.35 293.1 697.1 295.15 697.1 297 697.1 302.5 698.95 305.55 700.8 308.55 704.6 308.55 706.55 308.55 707.9 307.8 709.3 307 710.25 305.55 711.2 304.05 711.65 301.9 712.1 299.7 712.1 297 712.1 295.75 711.95 294.4 711.85 293.1 711.55 291.8 711.25 290.5 710.7 289.35 710.15 288.2 709.35 287.3 708.5 286.4 707.35 285.95 706.15 285.4 704.6 285.4 702.25 285.4 700.8 286.55 699.3 287.65 698.5 289.35
M 704.6 288.7
Q 705.55 288.7 706.3 289.1 707.05 289.55 707.6 290.55 708.15 291.55 708.45 293.1 708.7 294.7 708.7 297 708.7 299.3 708.45 300.9 708.15 302.5 707.6 303.45 707.05 304.45 706.3 304.9 705.55 305.35 704.6 305.35 703.65 305.35 702.9 304.9 702.15 304.45 701.6 303.45 701.05 302.5 700.8 300.9 700.5 299.3 700.5 297 700.5 294.7 700.8 293.1 701.05 291.55 701.6 290.55 702.15 289.55 702.9 289.1 703.65 288.7 704.6 288.7
M 654.4 290.4
Q 655.15 289.5 656.25 288.95 657.35 288.45 658.9 288.45 659.95 288.45 660.85 288.55 661.75 288.6 662.5 288.9 662.95 289.1 663 288.7
L 663.1 286.3
Q 663.1 286 662.85 285.9 662.15 285.65 661.1 285.5 660 285.35 659.15 285.35 656.4 285.35 654.45 286.35 652.5 287.35 651.35 289 650.15 290.7 649.65 292.95 649.15 295.2 649.15 297.75 649.15 303.35 651.05 306 652.95 308.65 656.5 308.65 658.2 308.65 659.6 308.05 660.95 307.45 661.95 306.4 662.9 305.35 663.4 303.95 663.95 302.5 663.95 300.85 663.95 299.15 663.4 297.8 662.9 296.4 661.9 295.45 660.95 294.45 659.65 293.95 658.3 293.45 656.65 293.45 656.1 293.45 655.5 293.6 654.9 293.75 654.35 294 653.8 294.25 653.35 294.6 652.85 294.95 652.6 295.3 652.8 293.85 653.25 292.6 653.65 291.35 654.4 290.4
M 659.65 297.75
Q 660.6 298.95 660.6 301 660.6 303.15 659.5 304.45 658.35 305.7 656.55 305.7 655.7 305.7 655 305.3 654.25 304.9 653.75 304.25 653.25 303.55 652.9 302.65 652.65 301.75 652.65 300.75 652.65 298.9 653.7 297.7 654.85 296.55 656.8 296.55 658.6 296.55 659.65 297.75
M 797.2 291.05
Q 797.2 292.75 798.2 294.15 799.25 295.5 801.05 296.5 800.15 296.95 799.35 297.5 798.5 298.05 797.9 298.7 797.3 299.4 796.9 300.25 796.55 301.1 796.55 302.2 796.55 303.85 797.25 305.05 797.9 306.25 799 307.05 800.1 307.85 801.45 308.25 802.8 308.65 804.15 308.65 805.65 308.65 807 308.25 808.4 307.85 809.45 307.05 810.5 306.25 811.15 305.05 811.8 303.85 811.8 302.2 811.8 301.2 811.5 300.4 811.2 299.65 810.6 298.95 810 298.25 809.15 297.7 808.3 297.1 807.25 296.45 809.2 295.15 810.15 293.8 811.1 292.5 811.1 290.95 811.1 289.65 810.55 288.6 810.05 287.55 809.15 286.85 808.2 286.15 806.95 285.75 805.65 285.35 804.15 285.35 802.7 285.35 801.45 285.75 800.15 286.2 799.25 286.95 798.3 287.7 797.7 288.75 797.2 289.8 797.2 291.05
M 806.65 289.15
Q 807.1 289.55 807.4 290.05 807.7 290.6 807.7 291.2 807.7 291.75 807.35 292.35 806.95 292.95 806.4 293.5 805.85 294.05 805.25 294.4 804.65 294.85 804.2 295 803.8 294.85 803.2 294.5 802.6 294.15 802 293.65 801.4 293.1 801 292.5 800.6 291.9 800.6 291.3 800.6 290.55 800.95 290 801.25 289.45 801.75 289.1 802.25 288.7 802.9 288.5 803.55 288.3 804.15 288.3 804.9 288.3 805.55 288.5 806.15 288.75 806.65 289.15
M 808.05 301.05
Q 808.45 301.65 808.45 302.2 808.45 303 808.05 303.65 807.65 304.3 807.05 304.75 806.45 305.15 805.7 305.4 804.95 305.65 804.15 305.65 803.45 305.65 802.65 305.4 801.9 305.15 801.3 304.7 800.7 304.25 800.3 303.6 799.9 303 799.9 302.2 799.9 301.3 800.35 300.6 800.8 299.95 801.45 299.45 802.1 298.95 802.85 298.65 803.6 298.35 804.2 298.15 804.95 298.45 805.7 298.9 806.45 299.35 807.05 299.85 807.65 300.4 808.05 301.05
M 772.35 289.35
Q 771.5 291.05 771.2 293.1 770.95 295.15 770.95 297 770.95 302.5 772.8 305.55 774.65 308.55 778.45 308.55 780.4 308.55 781.75 307.8 783.15 307 784.1 305.55 785.05 304.05 785.5 301.9 785.95 299.7 785.95 297 785.95 295.75 785.8 294.4 785.7 293.1 785.4 291.8 785.1 290.5 784.55 289.35 784 288.2 783.2 287.3 782.35 286.4 781.2 285.95 780 285.4 778.45 285.4 776.1 285.4 774.65 286.55 773.15 287.65 772.35 289.35
M 776.75 289.1
Q 777.5 288.7 778.45 288.7 779.4 288.7 780.15 289.1 780.9 289.55 781.45 290.55 782 291.55 782.3 293.1 782.55 294.7 782.55 297 782.55 299.3 782.3 300.9 782 302.5 781.45 303.45 780.9 304.45 780.15 304.9 779.4 305.35 778.45 305.35 777.5 305.35 776.75 304.9 776 304.45 775.45 303.45 774.9 302.5 774.65 300.9 774.35 299.3 774.35 297 774.35 294.7 774.65 293.1 774.9 291.55 775.45 290.55 776 289.55 776.75 289.1
M 736.95 285.7
Q 736.85 285.6 736.35 285.6
L 723.55 285.6
Q 723.05 285.6 723.05 286.1
L 723.05 288.2
Q 723.05 288.45 723.2 288.6 723.35 288.7 723.55 288.7
L 733.15 288.7 725.3 307.9
Q 725.2 308.2 725.3 308.3 725.4 308.45 725.9 308.45
L 728.3 308.45
Q 728.6 308.45 728.7 308.3 728.85 308.25 728.95 308
L 736.9 288.45
Q 737.05 288.25 737.05 288
L 737.05 286.15
Q 737.05 285.8 736.95 285.7
M 982.2 292.85
Q 980.65 291.3 978.1 291.3 976.55 291.3 975.2 292 973.85 292.7 973.2 294.15 972.6 292.75 971.3 292.05 970.05 291.3 968.45 291.3 967.3 291.3 966.25 291.8 965.2 292.3 964.6 292.95
L 964.65 291.9
Q 964.65 291.7 964.35 291.7
L 961.8 291.7
Q 961.35 291.7 961.4 292.05 961.45 292.65 961.5 293.7 961.5 294.75 961.5 295.9
L 961.5 307.85
Q 961.5 308 961.6 308.15 961.75 308.25 961.85 308.25
L 964.35 308.25
Q 964.7 308.25 964.7 307.9
L 964.7 298.15
Q 964.7 296.35 965.65 295.3 966.6 294.3 968.3 294.3 970.95 294.3 970.95 297.45
L 970.95 307.85
Q 970.95 308 971.05 308.15 971.2 308.25 971.3 308.25
L 973.8 308.25
Q 974.15 308.25 974.15 307.9
L 974.15 299.2
Q 974.15 298.15 974.45 297.25 974.7 296.35 975.15 295.7 975.65 295.05 976.35 294.65 977.05 294.3 977.95 294.3 979.2 294.3 979.9 295.15 980.55 296.05 980.55 297.45
L 980.55 307.85
Q 980.55 308 980.65 308.15 980.75 308.25 980.9 308.25
L 983.4 308.25
Q 983.55 308.25 983.65 308.15 983.75 308.05 983.75 307.9
L 983.75 297.05
Q 983.75 294.35 982.2 292.85 Z"/>
</g>

<g id="Layer0_10_FILL">
<path fill="#1E1E1E" stroke="none" d="
M 1216 275.45
L 1219.35 275.45
Q 1219.5 275.45 1219.7 275.3 1219.8 275.15 1219.8 274.95
L 1219.8 260.55
Q 1219.8 256.9 1217.7 254.9 1215.65 252.85 1212.25 252.85 1210.2 252.85 1208.4 253.8 1206.6 254.75 1205.7 256.65 1204.95 254.8 1203.2 253.8 1201.5 252.85 1199.4 252.85 1197.85 252.85 1196.45 253.5 1195.05 254.15 1194.25 255.05
L 1194.3 253.65
Q 1194.3 253.35 1193.95 253.35
L 1190.55 253.35
Q 1189.9 253.35 1189.95 253.85 1190.05 254.65 1190.1 256.05 1190.15 257.45 1190.15 259
L 1190.15 274.9
Q 1190.15 275.1 1190.25 275.3 1190.4 275.45 1190.6 275.45
L 1193.95 275.45
Q 1194.4 275.45 1194.4 274.95
L 1194.4 261.95
Q 1194.4 259.55 1195.65 258.2 1196.9 256.8 1199.15 256.8 1202.7 256.8 1202.7 261.05
L 1202.7 274.9
Q 1202.7 275.1 1202.85 275.3 1203 275.45 1203.2 275.45
L 1206.55 275.45
Q 1207 275.45 1207 274.95
L 1207 263.35
Q 1207 261.95 1207.35 260.75 1207.7 259.55 1208.35 258.7 1208.95 257.8 1209.9 257.35 1210.85 256.8 1212.05 256.8 1213.75 256.8 1214.6 258 1215.5 259.2 1215.5 261.05
L 1215.5 274.9
Q 1215.5 275.1 1215.65 275.3 1215.8 275.45 1216 275.45
M 1216 94.45
L 1219.35 94.45
Q 1219.5 94.45 1219.7 94.3 1219.8 94.15 1219.8 93.95
L 1219.8 79.55
Q 1219.8 75.9 1217.7 73.9 1215.65 71.85 1212.25 71.85 1210.2 71.85 1208.4 72.8 1206.6 73.75 1205.7 75.65 1204.95 73.8 1203.2 72.8 1201.5 71.85 1199.4 71.85 1197.85 71.85 1196.45 72.5 1195.05 73.15 1194.25 74.05
L 1194.3 72.65
Q 1194.3 72.35 1193.95 72.35
L 1190.55 72.35
Q 1189.9 72.35 1189.95 72.85 1190.05 73.65 1190.1 75.05 1190.15 76.45 1190.15 78
L 1190.15 93.9
Q 1190.15 94.1 1190.25 94.3 1190.4 94.45 1190.6 94.45
L 1193.95 94.45
Q 1194.4 94.45 1194.4 93.95
L 1194.4 80.95
Q 1194.4 78.55 1195.65 77.2 1196.9 75.8 1199.15 75.8 1202.7 75.8 1202.7 80.05
L 1202.7 93.9
Q 1202.7 94.1 1202.85 94.3 1203 94.45 1203.2 94.45
L 1206.55 94.45
Q 1207 94.45 1207 93.95
L 1207 82.35
Q 1207 80.95 1207.35 79.75 1207.7 78.55 1208.35 77.7 1208.95 76.8 1209.9 76.35 1210.85 75.8 1212.05 75.8 1213.75 75.8 1214.6 77 1215.5 78.2 1215.5 80.05
L 1215.5 93.9
Q 1215.5 94.1 1215.65 94.3 1215.8 94.45 1216 94.45 Z"/>
</g>

<path id="fnfmf343434_copy_43_0_Layer1_0_1_STROKES" stroke="#DBDBDB" stroke-width="3" stroke-linejoin="round" stroke-linecap="round" fill="none" d="
M 48 -30
Q 63 -30 63 -15
L 63 15.05
Q 63 30.05 48 30.05
L -37 30.05
Q -52 30.05 -52 15.05
L -52 -15
Q -52 -30 -37 -30
L 48 -30 Z"/>

<path id="fnfmf343434_copy_44_0_Layer1_0_1_STROKES" stroke="#DBDBDB" stroke-width="3" stroke-linejoin="round" stroke-linecap="round" fill="none" d="
M 48 -30
Q 63 -30 63 -15
L 63 15.05
Q 63 30.05 48 30.05
L -37 30.05
Q -52 30.05 -52 15.05
L -52 -15
Q -52 -30 -37 -30
L 48 -30 Z"/>

<path id="Symbol_2_0_Layer0_0_1_STROKES" stroke="#332D2B" stroke-width="2" stroke-linejoin="miter" stroke-linecap="butt" stroke-miterlimit="4" fill="none" d="
M -374.581948852539 -0.008602905273434658
L 374.5796417236328 -0.008602905273434658"/>

<path id="Symbol_2_0_Layer0_1_MEMBER_0_1_STROKES" stroke="#332D2B" stroke-width="3" stroke-linejoin="miter" stroke-linecap="butt" stroke-miterlimit="4" fill="none" d="
M -374.581948852539 -17.25
L -374.581948852539 17.23279418945313"/>

<path id="Symbol_2_0_Layer0_1_MEMBER_1_1_STROKES" stroke="#332D2B" stroke-width="3" stroke-linejoin="miter" stroke-linecap="butt" stroke-miterlimit="4" fill="none" d="
M -300.78384094238277 -17.25
L -300.78384094238277 17.23279418945313"/>

<path id="Symbol_2_0_Layer0_1_MEMBER_2_1_STROKES" stroke="#332D2B" stroke-width="3" stroke-linejoin="miter" stroke-linecap="butt" stroke-miterlimit="4" fill="none" d="
M -226.98573303222656 -17.25
L -226.98573303222656 17.23279418945313"/>

<path id="Symbol_2_0_Layer0_1_MEMBER_3_1_STROKES" stroke="#332D2B" stroke-width="3" stroke-linejoin="miter" stroke-linecap="butt" stroke-miterlimit="4" fill="none" d="
M -153.1876251220703 -17.25
L -153.1876251220703 17.23279418945313"/>

<path id="Symbol_2_0_Layer0_1_MEMBER_4_1_STROKES" stroke="#332D2B" stroke-width="3" stroke-linejoin="miter" stroke-linecap="butt" stroke-miterlimit="4" fill="none" d="
M -79.38951721191404 -17.25
L -79.38951721191404 17.23279418945313"/>

<path id="Symbol_2_0_Layer0_1_MEMBER_5_1_STROKES" stroke="#332D2B" stroke-width="3" stroke-linejoin="miter" stroke-linecap="butt" stroke-miterlimit="4" fill="none" d="
M -5.591409301757835 -17.25
L -5.591409301757835 17.23279418945313"/>

<path id="Symbol_2_0_Layer0_1_MEMBER_6_1_STROKES" stroke="#332D2B" stroke-width="3" stroke-linejoin="miter" stroke-linecap="butt" stroke-miterlimit="4" fill="none" d="
M 68.20669860839848 -17.25
L 68.20669860839848 17.23279418945313"/>

<path id="Symbol_2_0_Layer0_1_MEMBER_7_1_STROKES" stroke="#332D2B" stroke-width="3" stroke-linejoin="miter" stroke-linecap="butt" stroke-miterlimit="4" fill="none" d="
M 142.0048065185547 -17.25
L 142.0048065185547 17.23279418945313"/>

<path id="Symbol_2_0_Layer0_1_MEMBER_8_1_STROKES" stroke="#332D2B" stroke-width="3" stroke-linejoin="miter" stroke-linecap="butt" stroke-miterlimit="4" fill="none" d="
M 215.8054931640625 -17.25
L 215.8054931640625 17.23279418945313"/>

<path id="Symbol_2_0_Layer0_1_MEMBER_9_1_STROKES" stroke="#332D2B" stroke-width="3" stroke-linejoin="miter" stroke-linecap="butt" stroke-miterlimit="4" fill="none" d="
M 289.60360107421866 -17.25
L 289.60360107421866 17.23279418945313"/>

<path id="Symbol_2_0_Layer0_1_MEMBER_10_1_STROKES" stroke="#332D2B" stroke-width="3" stroke-linejoin="miter" stroke-linecap="butt" stroke-miterlimit="4" fill="none" d="
M 364.05170898437507 -17.25
L 364.05170898437507 17.23279418945313"/>

<path id="Symbol_2_0_Layer0_1_MEMBER_11_1_STROKES" stroke="#332D2B" stroke-width="3" stroke-linejoin="miter" stroke-linecap="butt" stroke-miterlimit="4" fill="none" d="
M 717.6 342.3
L 717.6 363.95
M 724.95 342.3
L 724.95 363.95
M 754.4 342.3
L 754.4 363.95
M 739.65 342.3
L 739.65 363.95
M 747.05 342.3
L 747.05 363.95
M 732.3 342.3
L 732.3 363.95
M 776.5 342.3
L 776.5 363.95
M 769.15 342.3
L 769.15 363.95
M 761.75 342.3
L 761.75 363.95"/>

<path id="Symbol_2_0_Layer0_1_MEMBER_12_1_STROKES" stroke="#332D2B" stroke-width="3" stroke-linejoin="miter" stroke-linecap="butt" stroke-miterlimit="4" fill="none" d="
M 673.4 342.3
L 673.4 363.95
M 658.65 342.3
L 658.65 363.95
M 666.05 342.3
L 666.05 363.95
M 651.3 342.3
L 651.3 363.95
M 702.85 342.3
L 702.85 363.95
M 688.1 342.3
L 688.1 363.95
M 680.75 342.3
L 680.75 363.95
M 695.5 342.3
L 695.5 363.95
M 643.95 342.3
L 643.95 363.95"/>

<path id="Symbol_2_0_Layer0_1_MEMBER_13_1_STROKES" stroke="#332D2B" stroke-width="3" stroke-linejoin="miter" stroke-linecap="butt" stroke-miterlimit="4" fill="none" d="
M 585.05 342.3
L 585.05 363.95
M 577.65 342.3
L 577.65 363.95
M 570.3 342.3
L 570.3 363.95
M 592.4 342.3
L 592.4 363.95
M 629.2 342.3
L 629.2 363.95
M 621.85 342.3
L 621.85 363.95
M 614.5 342.3
L 614.5 363.95
M 607.1 342.3
L 607.1 363.95
M 599.75 342.3
L 599.75 363.95"/>

<path id="Symbol_2_0_Layer0_1_MEMBER_14_1_STROKES" stroke="#332D2B" stroke-width="3" stroke-linejoin="miter" stroke-linecap="butt" stroke-miterlimit="4" fill="none" d="
M 496.65 342.3
L 496.65 363.95
M 504 342.3
L 504 363.95
M 511.4 342.3
L 511.4 363.95
M 540.85 342.3
L 540.85 363.95
M 555.55 342.3
L 555.55 363.95
M 548.2 342.3
L 548.2 363.95
M 533.5 342.3
L 533.5 363.95
M 526.1 342.3
L 526.1 363.95
M 518.75 342.3
L 518.75 363.95"/>

<path id="Symbol_2_0_Layer0_1_MEMBER_15_1_STROKES" stroke="#332D2B" stroke-width="3" stroke-linejoin="miter" stroke-linecap="butt" stroke-miterlimit="4" fill="none" d="
M 430.4 342.3
L 430.4 363.95
M 423 342.3
L 423 363.95
M 474.55 342.3
L 474.55 363.95
M 467.2 342.3
L 467.2 363.95
M 459.85 342.3
L 459.85 363.95
M 452.5 342.3
L 452.5 363.95
M 445.1 342.3
L 445.1 363.95
M 437.75 342.3
L 437.75 363.95
M 481.95 342.3
L 481.95 363.95"/>

<path id="Symbol_2_0_Layer0_1_MEMBER_16_1_STROKES" stroke="#332D2B" stroke-width="3" stroke-linejoin="miter" stroke-linecap="butt" stroke-miterlimit="4" fill="none" d="
M 349.4 342.3
L 349.4 363.95
M 393.55 342.3
L 393.55 363.95
M 386.2 342.3
L 386.2 363.95
M 378.85 342.3
L 378.85 363.95
M 371.45 342.3
L 371.45 363.95
M 364.1 342.3
L 364.1 363.95
M 356.75 342.3
L 356.75 363.95
M 400.95 342.3
L 400.95 363.95
M 408.3 342.3
L 408.3 363.95"/>

<path id="Symbol_2_0_Layer0_1_MEMBER_17_1_STROKES" stroke="#332D2B" stroke-width="3" stroke-linejoin="miter" stroke-linecap="butt" stroke-miterlimit="4" fill="none" d="
M 327.3 342.3
L 327.3 363.95
M 334.65 342.3
L 334.65 363.95
M 319.9 342.3
L 319.9 363.95
M 312.55 342.3
L 312.55 363.95
M 305.2 342.3
L 305.2 363.95
M 297.85 342.3
L 297.85 363.95
M 283.1 342.3
L 283.1 363.95
M 275.75 342.3
L 275.75 363.95
M 290.45 342.3
L 290.45 363.95"/>

<path id="Symbol_2_0_Layer0_1_MEMBER_18_1_STROKES" stroke="#332D2B" stroke-width="3" stroke-linejoin="miter" stroke-linecap="butt" stroke-miterlimit="4" fill="none" d="
M 231.55 342.3
L 231.55 363.95
M 216.85 342.3
L 216.85 363.95
M 224.2 342.3
L 224.2 363.95
M 209.45 342.3
L 209.45 363.95
M 202.1 342.3
L 202.1 363.95
M 238.9 342.3
L 238.9 363.95
M 246.3 342.3
L 246.3 363.95
M 253.65 342.3
L 253.65 363.95
M 261 342.3
L 261 363.95"/>

<path id="Symbol_2_0_Layer0_1_MEMBER_19_1_STROKES" stroke="#332D2B" stroke-width="3" stroke-linejoin="miter" stroke-linecap="butt" stroke-miterlimit="4" fill="none" d="
M 807.15 342.3
L 807.15 363.95
M 792.4 342.3
L 792.4 363.95
M 799.8 342.3
L 799.8 363.95
M 843.95 342.3
L 843.95 363.95
M 814.5 342.3
L 814.5 363.95
M 836.6 342.3
L 836.6 363.95
M 821.9 342.3
L 821.9 363.95
M 829.25 342.3
L 829.25 363.95
M 851.35 342.3
L 851.35 363.95"/>

<path id="Symbol_2_0_Layer0_1_MEMBER_20_1_STROKES" stroke="#332D2B" stroke-width="3" stroke-linejoin="miter" stroke-linecap="butt" stroke-miterlimit="4" fill="none" d="
M 880.95 342.3
L 880.95 363.95
M 866.2 342.3
L 866.2 363.95
M 873.55 342.3
L 873.55 363.95
M 888.3 342.3
L 888.3 363.95
M 903.05 342.3
L 903.05 363.95
M 917.75 342.3
L 917.75 363.95
M 910.4 342.3
L 910.4 363.95
M 895.65 342.3
L 895.65 363.95
M 925.1 342.3
L 925.1 363.95"/>
</defs>

<g transform="matrix( 1, 0, 0, 1, 1119.8,78.7) ">
<g transform="matrix( 1, 0, 0, 1, -5.5,0) ">
<use xlink:href="#fnfmf343434_copy_43_0_Layer1_0_FILL"/>

<use xlink:href="#fnfmf343434_copy_43_0_Layer1_0_1_STROKES"/>
</g>
</g>

<g transform="matrix( -0.7999725341796875, 0, 0, -0.7999725341796875, 1036.05,78.8) ">
<g transform="matrix( 1, 0, 0, 1, 0,0) ">
<use filter="url(#Filter_1)" xlink:href="#vsdvs434_0_Layer1_0_FILL"/>
</g>

<g transform="matrix( 1, 0, 0, 1, 0,0) ">
<use filter="url(#Filter_1)" xlink:href="#vsdvs434_0_Layer0_0_FILL"/>
</g>
</g>

<g transform="matrix( 1, 0, 0, 1, 118.25,164.2) ">
<g transform="matrix( 1, 0, 0, 1, 0,0) ">
<use xlink:href="#db55535_copy_0_Layer1_0_FILL"/>
</g>

<g transform="matrix( 1, 0, 0, 1, 0,0) ">
<use xlink:href="#db55535_copy_0_Layer0_0_FILL"/>
</g>
</g>

<g transform="matrix( 1, 0, 0, 1, 1119.8,259.7) ">
<g transform="matrix( 1, 0, 0, 1, -5.5,0) ">
<use xlink:href="#fnfmf343434_copy_44_0_Layer1_0_FILL"/>

<use xlink:href="#fnfmf343434_copy_44_0_Layer1_0_1_STROKES"/>
</g>
</g>

<g transform="matrix( -0.7999725341796875, 0, 0, -0.7999725341796875, 1036.05,259.8) ">
<g transform="matrix( 1, 0, 0, 1, 0,0) ">
<use filter="url(#Filter_1)" xlink:href="#vsdvs434_0_Layer1_0_FILL"/>
</g>

<g transform="matrix( 1, 0, 0, 1, 0,0) ">
<use filter="url(#Filter_1)" xlink:href="#vsdvs434_0_Layer0_0_FILL"/>
</g>
</g>

<g transform="matrix( 1, 0, 0, 1, 118.25,345.2) ">
<g transform="matrix( 1, 0, 0, 1, 0,0) ">
<use xlink:href="#db55535_copy_1_Layer1_0_FILL"/>
</g>

<g transform="matrix( 1, 0, 0, 1, 0,0) ">
<use xlink:href="#db55535_copy_1_Layer0_0_FILL"/>
</g>
</g>

<g transform="matrix( 1, 0, 0, 1, 576.55,78.7) ">
<g transform="matrix( 3.05157470703125, 0, 0, 3.05157470703125, -375.65,-17.25) ">
<use xlink:href="#Symbol_2_0_Layer0_0_1_STROKES" transform="matrix( 0.32769775390625, 0, 0, 0.32769775390625, 123.1,5.65) "/>
</g>

<g transform="matrix( 3.05157470703125, 0, 0, 3.05157470703125, -375.65,-17.25) ">
<use xlink:href="#Symbol_2_0_Layer0_1_MEMBER_0_1_STROKES" transform="matrix( 0.32769775390625, 0, 0, 0.32769775390625, 123.1,5.65) "/>
</g>

<g transform="matrix( 3.05157470703125, 0, 0, 3.05157470703125, -375.7,-17.25) ">
<use xlink:href="#Symbol_2_0_Layer0_1_MEMBER_1_1_STROKES" transform="matrix( 0.32769775390625, 0, 0, 0.32769775390625, 123.1,5.65) "/>
</g>

<g transform="matrix( 3.05157470703125, 0, 0, 3.05157470703125, -375.75,-17.25) ">
<use xlink:href="#Symbol_2_0_Layer0_1_MEMBER_2_1_STROKES" transform="matrix( 0.32769775390625, 0, 0, 0.32769775390625, 123.1,5.65) "/>
</g>

<g transform="matrix( 3.05157470703125, 0, 0, 3.05157470703125, -375.8,-17.25) ">
<use xlink:href="#Symbol_2_0_Layer0_1_MEMBER_3_1_STROKES" transform="matrix( 0.32769775390625, 0, 0, 0.32769775390625, 123.1,5.65) "/>
</g>

<g transform="matrix( 3.05157470703125, 0, 0, 3.05157470703125, -375.85,-17.25) ">
<use xlink:href="#Symbol_2_0_Layer0_1_MEMBER_4_1_STROKES" transform="matrix( 0.32769775390625, 0, 0, 0.32769775390625, 123.15,5.65) "/>
</g>

<g transform="matrix( 3.05157470703125, 0, 0, 3.05157470703125, -375.9,-17.25) ">
<use xlink:href="#Symbol_2_0_Layer0_1_MEMBER_5_1_STROKES" transform="matrix( 0.32769775390625, 0, 0, 0.32769775390625, 123.15,5.65) "/>
</g>

<g transform="matrix( 3.05157470703125, 0, 0, 3.05157470703125, -375.95,-17.25) ">
<use xlink:href="#Symbol_2_0_Layer0_1_MEMBER_6_1_STROKES" transform="matrix( 0.32769775390625, 0, 0, 0.32769775390625, 123.15,5.65) "/>
</g>

<g transform="matrix( 3.05157470703125, 0, 0, 3.05157470703125, -376,-17.25) ">
<use xlink:href="#Symbol_2_0_Layer0_1_MEMBER_7_1_STROKES" transform="matrix( 0.32769775390625, 0, 0, 0.32769775390625, 123.2,5.65) "/>
</g>

<g transform="matrix( 3.05157470703125, 0, 0, 3.05157470703125, -376.2,-17.25) ">
<use xlink:href="#Symbol_2_0_Layer0_1_MEMBER_8_1_STROKES" transform="matrix( 0.32769775390625, 0, 0, 0.32769775390625, 123.25,5.65) "/>
</g>

<g transform="matrix( 3.05157470703125, 0, 0, 3.05157470703125, -376.25,-17.25) ">
<use xlink:href="#Symbol_2_0_Layer0_1_MEMBER_9_1_STROKES" transform="matrix( 0.32769775390625, 0, 0, 0.32769775390625, 123.25,5.65) "/>
</g>

<g transform="matrix( 3.05157470703125, 0, 0, 3.05157470703125, -375.65,-17.25) ">
<use xlink:href="#Symbol_2_0_Layer0_1_MEMBER_10_1_STROKES" transform="matrix( 0.32769775390625, 0, 0, 0.32769775390625, 123.1,5.65) "/>
</g>

<g transform="matrix( 1, 0, 0, 1, -568.15,-353) ">
<use xlink:href="#Symbol_2_0_Layer0_1_MEMBER_11_1_STROKES"/>
</g>

<g transform="matrix( 1, 0, 0, 1, -568.3,-353) ">
<use xlink:href="#Symbol_2_0_Layer0_1_MEMBER_12_1_STROKES"/>
</g>

<g transform="matrix( 1, 0, 0, 1, -568.45,-353) ">
<use xlink:href="#Symbol_2_0_Layer0_1_MEMBER_13_1_STROKES"/>
</g>

<g transform="matrix( 1, 0, 0, 1, -568.6,-353) ">
<use xlink:href="#Symbol_2_0_Layer0_1_MEMBER_14_1_STROKES"/>
</g>

<g transform="matrix( 1, 0, 0, 1, -568.75,-353) ">
<use xlink:href="#Symbol_2_0_Layer0_1_MEMBER_15_1_STROKES"/>
</g>

<g transform="matrix( 1, 0, 0, 1, -568.95,-353) ">
<use xlink:href="#Symbol_2_0_Layer0_1_MEMBER_16_1_STROKES"/>
</g>

<g transform="matrix( 1, 0, 0, 1, -569.1,-353) ">
<use xlink:href="#Symbol_2_0_Layer0_1_MEMBER_17_1_STROKES"/>
</g>

<g transform="matrix( 1, 0, 0, 1, -569.25,-353) ">
<use xlink:href="#Symbol_2_0_Layer0_1_MEMBER_18_1_STROKES"/>
</g>

<g transform="matrix( 1, 0, 0, 1, -569.15,-353) ">
<use xlink:href="#Symbol_2_0_Layer0_1_MEMBER_19_1_STROKES"/>
</g>

<g transform="matrix( 1, 0, 0, 1, -569.15,-353) ">
<use xlink:href="#Symbol_2_0_Layer0_1_MEMBER_20_1_STROKES"/>
</g>
</g>

<g transform="matrix( 1, 0, 0, 1, 576.55,259.7) ">
<g transform="matrix( 3.05157470703125, 0, 0, 3.05157470703125, -375.65,-17.25) ">
<use xlink:href="#Symbol_2_0_Layer0_0_1_STROKES" transform="matrix( 0.32769775390625, 0, 0, 0.32769775390625, 123.1,5.65) "/>
</g>

<g transform="matrix( 3.05157470703125, 0, 0, 3.05157470703125, -375.65,-17.25) ">
<use xlink:href="#Symbol_2_0_Layer0_1_MEMBER_0_1_STROKES" transform="matrix( 0.32769775390625, 0, 0, 0.32769775390625, 123.1,5.65) "/>
</g>

<g transform="matrix( 3.05157470703125, 0, 0, 3.05157470703125, -375.7,-17.25) ">
<use xlink:href="#Symbol_2_0_Layer0_1_MEMBER_1_1_STROKES" transform="matrix( 0.32769775390625, 0, 0, 0.32769775390625, 123.1,5.65) "/>
</g>

<g transform="matrix( 3.05157470703125, 0, 0, 3.05157470703125, -375.75,-17.25) ">
<use xlink:href="#Symbol_2_0_Layer0_1_MEMBER_2_1_STROKES" transform="matrix( 0.32769775390625, 0, 0, 0.32769775390625, 123.1,5.65) "/>
</g>

<g transform="matrix( 3.05157470703125, 0, 0, 3.05157470703125, -375.8,-17.25) ">
<use xlink:href="#Symbol_2_0_Layer0_1_MEMBER_3_1_STROKES" transform="matrix( 0.32769775390625, 0, 0, 0.32769775390625, 123.1,5.65) "/>
</g>

<g transform="matrix( 3.05157470703125, 0, 0, 3.05157470703125, -375.85,-17.25) ">
<use xlink:href="#Symbol_2_0_Layer0_1_MEMBER_4_1_STROKES" transform="matrix( 0.32769775390625, 0, 0, 0.32769775390625, 123.15,5.65) "/>
</g>

<g transform="matrix( 3.05157470703125, 0, 0, 3.05157470703125, -375.9,-17.25) ">
<use xlink:href="#Symbol_2_0_Layer0_1_MEMBER_5_1_STROKES" transform="matrix( 0.32769775390625, 0, 0, 0.32769775390625, 123.15,5.65) "/>
</g>

<g transform="matrix( 3.05157470703125, 0, 0, 3.05157470703125, -375.95,-17.25) ">
<use xlink:href="#Symbol_2_0_Layer0_1_MEMBER_6_1_STROKES" transform="matrix( 0.32769775390625, 0, 0, 0.32769775390625, 123.15,5.65) "/>
</g>

<g transform="matrix( 3.05157470703125, 0, 0, 3.05157470703125, -376,-17.25) ">
<use xlink:href="#Symbol_2_0_Layer0_1_MEMBER_7_1_STROKES" transform="matrix( 0.32769775390625, 0, 0, 0.32769775390625, 123.2,5.65) "/>
</g>

<g transform="matrix( 3.05157470703125, 0, 0, 3.05157470703125, -376.2,-17.25) ">
<use xlink:href="#Symbol_2_0_Layer0_1_MEMBER_8_1_STROKES" transform="matrix( 0.32769775390625, 0, 0, 0.32769775390625, 123.25,5.65) "/>
</g>

<g transform="matrix( 3.05157470703125, 0, 0, 3.05157470703125, -376.25,-17.25) ">
<use xlink:href="#Symbol_2_0_Layer0_1_MEMBER_9_1_STROKES" transform="matrix( 0.32769775390625, 0, 0, 0.32769775390625, 123.25,5.65) "/>
</g>

<g transform="matrix( 3.05157470703125, 0, 0, 3.05157470703125, -375.65,-17.25) ">
<use xlink:href="#Symbol_2_0_Layer0_1_MEMBER_10_1_STROKES" transform="matrix( 0.32769775390625, 0, 0, 0.32769775390625, 123.1,5.65) "/>
</g>

<g transform="matrix( 1, 0, 0, 1, -568.15,-353) ">
<use xlink:href="#Symbol_2_0_Layer0_1_MEMBER_11_1_STROKES"/>
</g>

<g transform="matrix( 1, 0, 0, 1, -568.3,-353) ">
<use xlink:href="#Symbol_2_0_Layer0_1_MEMBER_12_1_STROKES"/>
</g>

<g transform="matrix( 1, 0, 0, 1, -568.45,-353) ">
<use xlink:href="#Symbol_2_0_Layer0_1_MEMBER_13_1_STROKES"/>
</g>

<g transform="matrix( 1, 0, 0, 1, -568.6,-353) ">
<use xlink:href="#Symbol_2_0_Layer0_1_MEMBER_14_1_STROKES"/>
</g>

<g transform="matrix( 1, 0, 0, 1, -568.75,-353) ">
<use xlink:href="#Symbol_2_0_Layer0_1_MEMBER_15_1_STROKES"/>
</g>

<g transform="matrix( 1, 0, 0, 1, -568.95,-353) ">
<use xlink:href="#Symbol_2_0_Layer0_1_MEMBER_16_1_STROKES"/>
</g>

<g transform="matrix( 1, 0, 0, 1, -569.1,-353) ">
<use xlink:href="#Symbol_2_0_Layer0_1_MEMBER_17_1_STROKES"/>
</g>

<g transform="matrix( 1, 0, 0, 1, -569.25,-353) ">
<use xlink:href="#Symbol_2_0_Layer0_1_MEMBER_18_1_STROKES"/>
</g>

<g transform="matrix( 1, 0, 0, 1, -569.15,-353) ">
<use xlink:href="#Symbol_2_0_Layer0_1_MEMBER_19_1_STROKES"/>
</g>

<g transform="matrix( 1, 0, 0, 1, -569.15,-353) ">
<use xlink:href="#Symbol_2_0_Layer0_1_MEMBER_20_1_STROKES"/>
</g>
</g>

<g transform="matrix( 1, 0, 0, 1, 0,0) ">
<use xlink:href="#Layer0_8_FILL"/>
</g>

<g transform="matrix( 1, 0, 0, 1, 0,0) ">
<use xlink:href="#Layer0_9_FILL"/>
</g>

<g transform="matrix( 1, 0, 0, 1, 0,0) ">
<use xlink:href="#Layer0_10_FILL"/>
</g>
</svg>
