<svg xmlns="http://www.w3.org/2000/svg" xmlns:xlink="http://www.w3.org/1999/xlink" viewBox="0 0 453.32 152.47"><defs><style>.cls-1,.cls-21,.cls-23,.cls-5{fill:none;}.cls-2{clip-path:url(#clip-path);}.cls-3{fill:url(#무제_그라디언트_8);}.cls-4{clip-path:url(#clip-path-2);}.cls-5{stroke:#d98700;stroke-linejoin:bevel;}.cls-21,.cls-5{stroke-width:0.8px;}.cls-6{clip-path:url(#clip-path-3);}.cls-7{fill:url(#무제_그라디언트_8-2);}.cls-8{fill:#231815;}.cls-9{clip-path:url(#clip-path-4);}.cls-10{fill:url(#무제_그라디언트_8-3);}.cls-11{clip-path:url(#clip-path-6);}.cls-12{fill:url(#무제_그라디언트_8-4);}.cls-13{clip-path:url(#clip-path-7);}.cls-14{fill:url(#무제_그라디언트_8-5);}.cls-15{clip-path:url(#clip-path-9);}.cls-16{fill:url(#무제_그라디언트_8-6);}.cls-17{clip-path:url(#clip-path-11);}.cls-18{fill:url(#무제_그라디언트_8-7);}.cls-19{clip-path:url(#clip-path-13);}.cls-20{fill:url(#무제_그라디언트_8-8);}.cls-21{stroke:#c8245b;}.cls-22{fill:#fff;}.cls-23{stroke:#00a0e9;stroke-linejoin:round;stroke-width:0.4px;}.cls-24{fill:#f5a53b;}</style><clipPath id="clip-path"><path class="cls-1" d="M69,45.93l-30.64,53c-4.14,7.17-.76,13,7.52,13h61.22c8.28,0,11.67-5.86,7.53-13L84.08,45.94c-2.07-3.59-4.8-5.38-7.54-5.38S71.08,42.35,69,45.93"/></clipPath><linearGradient id="무제_그라디언트_8" x1="-115.74" y1="717.92" x2="-114.74" y2="717.92" gradientTransform="matrix(0, 110.16, 87.97, 0, -63078.62, 12801.8)" gradientUnits="userSpaceOnUse"><stop offset="0" stop-color="#fffaf4"/><stop offset="1" stop-color="#f7b66c"/></linearGradient><clipPath id="clip-path-2"><rect class="cls-1" x="36.2" y="40.16" width="380.92" height="72.15"/></clipPath><clipPath id="clip-path-3"><path class="cls-1" d="M70.52,49.21,41.91,98.66c-3.87,6.69-1.73,10.41,6,10.41h57.18c7.73,0,9.88-3.72,6-10.42L82.56,49.22c-1.93-3.35-4-5-6-5s-4.08,1.67-6,5"/></clipPath><linearGradient id="무제_그라디언트_8-2" x1="-115.74" y1="717.72" x2="-114.74" y2="717.72" gradientTransform="matrix(0, -121.78, -80.62, 0, 57937.24, -13967.14)" xlink:href="#무제_그라디언트_8"/><clipPath id="clip-path-4"><path class="cls-1" d="M269.45,45.93l-30.64,53c-4.15,7.17-.77,13,7.51,13h61.23c8.28,0,11.67-5.86,7.53-13L284.52,45.94c-2.07-3.59-4.8-5.38-7.54-5.38s-5.46,1.79-7.53,5.37"/></clipPath><linearGradient id="무제_그라디언트_8-3" x1="-115.74" y1="717.92" x2="-114.74" y2="717.92" gradientTransform="matrix(0, 110.16, 87.97, 0, -62878.54, 12801.82)" xlink:href="#무제_그라디언트_8"/><clipPath id="clip-path-6"><path class="cls-1" d="M271,49.21,242.35,98.66c-3.87,6.69-1.73,10.41,6,10.41h57.17c7.74,0,9.89-3.72,6-10.42L283,49.22c-1.94-3.35-4-5-6-5s-4.09,1.67-6,5"/></clipPath><linearGradient id="무제_그라디언트_8-4" x1="-115.74" y1="717.72" x2="-114.74" y2="717.72" gradientTransform="matrix(0, -121.78, -80.62, 0, 58137.29, -13967.13)" xlink:href="#무제_그라디언트_8"/><clipPath id="clip-path-7"><path class="cls-1" d="M369.33,45.93l-30.64,53c-4.15,7.17-.77,13,7.51,13h61.23c8.28,0,11.67-5.86,7.53-13L384.39,45.94c-2.07-3.59-4.8-5.38-7.53-5.38s-5.46,1.79-7.53,5.37"/></clipPath><linearGradient id="무제_그라디언트_8-5" x1="-115.74" y1="717.92" x2="-114.74" y2="717.92" gradientTransform="matrix(0, 110.16, 87.97, 0, -62780.37, 12801.8)" xlink:href="#무제_그라디언트_8"/><clipPath id="clip-path-9"><path class="cls-1" d="M370.84,49.21,342.23,98.66c-3.88,6.69-1.74,10.41,6,10.41H405.4c7.74,0,9.88-3.72,6-10.42L382.88,49.22c-1.94-3.35-4-5-6-5s-4.09,1.67-6,5"/></clipPath><linearGradient id="무제_그라디언트_8-6" x1="-115.74" y1="717.72" x2="-114.74" y2="717.72" gradientTransform="matrix(0, -121.78, -80.62, 0, 58236.81, -13967.18)" xlink:href="#무제_그라디언트_8"/><clipPath id="clip-path-11"><path class="cls-1" d="M168.89,45.93l-30.64,53c-4.15,7.17-.76,13,7.52,13H207c8.28,0,11.67-5.86,7.53-13L184,45.94c-2.07-3.59-4.8-5.38-7.54-5.38s-5.46,1.79-7.53,5.37"/></clipPath><linearGradient id="무제_그라디언트_8-7" x1="-115.74" y1="717.92" x2="-114.74" y2="717.92" gradientTransform="matrix(0, 110.16, 87.97, 0, -62978.95, 12801.77)" xlink:href="#무제_그라디언트_8"/><clipPath id="clip-path-13"><path class="cls-1" d="M170.4,49.21,141.79,98.66c-3.88,6.69-1.73,10.41,6,10.41H205c7.74,0,9.89-3.72,6-10.42L182.44,49.22c-1.93-3.35-4-5-6-5s-4.09,1.67-6,5"/></clipPath><linearGradient id="무제_그라디언트_8-8" x1="-115.74" y1="717.72" x2="-114.74" y2="717.72" gradientTransform="matrix(0, -121.78, -80.62, 0, 58036.53, -13967.21)" xlink:href="#무제_그라디언트_8"/></defs><title>자산 1</title><g id="레이어_2" data-name="레이어 2"><g id="레이어_1-2" data-name="레이어 1"><g class="cls-2"><rect class="cls-3" x="22.61" y="21.01" width="107.79" height="110.45" transform="translate(-30.37 91.83) rotate(-53.2)"/></g><g class="cls-4"><path class="cls-5" d="M69,45.93c4.15-7.16,10.93-7.16,15.07,0l30.56,52.94c4.14,7.17.75,13-7.53,13H45.88c-8.28,0-11.65-5.86-7.51-13Z"/></g><g class="cls-6"><rect class="cls-7" x="30.43" y="27.81" width="92.15" height="97.65" transform="translate(-26.01 111.52) rotate(-63.85)"/></g><path class="cls-8" d="M80.12,51.27v.08a2.56,2.56,0,0,1-1.86,2.49,2.43,2.43,0,0,1,2.29,2.44v.16c0,1.64-1.24,3.11-3.78,3.11a5.41,5.41,0,0,1-3.07-.87.68.68,0,0,1-.21-1,.62.62,0,0,1,.93-.22,3.87,3.87,0,0,0,2.28.73c1.69,0,2.34-.85,2.34-1.81v-.12c0-1.32-1-1.74-2.37-1.74h-.86c-.37,0-.54-.3-.54-.66s.17-.64.54-.64h.74c1.21,0,2.1-.54,2.1-1.77v-.05c0-.91-.65-1.53-2-1.53a2.43,2.43,0,0,0-1.93.89.62.62,0,0,1-.92-.05.68.68,0,0,1,0-.91,3.59,3.59,0,0,1,2.85-1.25C79,48.56,80.12,49.77,80.12,51.27Z"/><path class="cls-8" d="M52.91,95v9.54c0,.43-.35.63-.75.63s-.75-.2-.75-.63V96.09l-2.25,1.38a.67.67,0,0,1-.95-.3.65.65,0,0,1,.23-.91l2.68-1.61a2.15,2.15,0,0,1,1-.33C52.58,94.32,52.91,94.52,52.91,95Z"/><path class="cls-8" d="M109.08,96.94v.14a4.33,4.33,0,0,1-1.48,3.09l-3.45,3.63H109c.36,0,.52.29.52.63s-.16.63-.52.63h-5.78c-.78,0-1.09-.25-1.09-.81,0-.25.13-.46.45-.81l3.66-3.87c1.06-1.11,1.3-1.67,1.3-2.47V97c0-.87-.61-1.44-1.81-1.44a2.46,2.46,0,0,0-2.18,1.2.61.61,0,0,1-.9.14.66.66,0,0,1-.21-.93,3.74,3.74,0,0,1,3.26-1.76C108,94.23,109.08,95.45,109.08,96.94Z"/><g class="cls-9"><rect class="cls-10" x="223.05" y="21.01" width="107.79" height="110.45" transform="translate(50 252.33) rotate(-53.2)"/></g><g class="cls-4"><path class="cls-5" d="M269.45,45.93c4.15-7.16,10.93-7.16,15.07,0l30.56,52.94c4.14,7.17.75,13-7.53,13H246.32c-8.28,0-11.66-5.86-7.51-13Z"/></g><g class="cls-11"><rect class="cls-12" x="230.87" y="27.81" width="92.15" height="97.65" transform="translate(86.08 291.44) rotate(-63.85)"/></g><path class="cls-8" d="M281.17,49.54a2.83,2.83,0,0,1-.39,1.19L277,59.07a.65.65,0,0,1-.94.3.64.64,0,0,1-.37-.91L279.58,50h-5.47c-.37,0-.53-.3-.53-.65s.16-.64.53-.64h6C280.88,48.73,281.17,49,281.17,49.54Z"/><path class="cls-8" d="M254.74,97.29v.08a2.56,2.56,0,0,1-1.86,2.49,2.44,2.44,0,0,1,2.3,2.44v.16c0,1.64-1.25,3.11-3.78,3.11a5.42,5.42,0,0,1-3.08-.87.69.69,0,0,1-.21-1,.62.62,0,0,1,.93-.22,3.89,3.89,0,0,0,2.28.73c1.7,0,2.34-.85,2.34-1.81v-.12c0-1.32-1-1.74-2.37-1.74h-.85c-.38,0-.54-.3-.54-.66s.16-.64.54-.64h.73c1.22,0,2.1-.54,2.1-1.77v0c0-.91-.64-1.53-2-1.53a2.47,2.47,0,0,0-1.94.89.61.61,0,0,1-.91-.05.66.66,0,0,1,0-.91,3.56,3.56,0,0,1,2.85-1.25C253.59,94.58,254.74,95.79,254.74,97.29Z"/><path class="cls-8" d="M308.16,95.75l-4.25,6.13h3.63V99.14a.65.65,0,0,1,.73-.63c.4,0,.75.2.75.63v2.74h1.1c.38,0,.51.29.51.62s-.13.61-.51.61H309v1.74c0,.44-.35.63-.75.63a.65.65,0,0,1-.73-.63v-1.74h-4.45c-.69,0-1-.23-1-.73,0-.19,0-.33.41-.88L307.05,95a.66.66,0,0,1,.93-.18A.63.63,0,0,1,308.16,95.75Z"/><g class="cls-13"><rect class="cls-14" x="322.92" y="21.01" width="107.79" height="110.45" transform="translate(90.05 332.3) rotate(-53.2)"/></g><g class="cls-4"><path class="cls-5" d="M369.33,45.93c4.14-7.16,10.93-7.16,15.06,0L415,98.88c4.14,7.17.75,13-7.53,13H346.2c-8.28,0-11.66-5.86-7.51-13Z"/></g><g class="cls-15"><rect class="cls-16" x="330.74" y="27.81" width="92.15" height="97.66" transform="translate(141.93 381.09) rotate(-63.85)"/></g><g class="cls-4"><path class="cls-8" d="M353.37,95.75l-4.24,6.13h3.63V99.14c0-.44.35-.63.73-.63s.75.19.75.63v2.74h1.1c.37,0,.51.29.51.62s-.14.61-.51.61h-1.1v1.74c0,.44-.36.63-.75.63s-.73-.19-.73-.63v-1.74H348.3c-.69,0-1-.24-1-.73,0-.2,0-.33.4-.89L352.26,95a.64.64,0,0,1,.93-.18A.62.62,0,0,1,353.37,95.75Z"/><path class="cls-8" d="M409.29,95.39c0,.36-.15.64-.52.64H404.7l-.18,3.32a3.52,3.52,0,0,1,2.16-.69,3.08,3.08,0,0,1,3.24,3.27v.16c0,1.67-1,3.48-3.77,3.48a5.74,5.74,0,0,1-3.23-.87.68.68,0,0,1-.2-1,.61.61,0,0,1,.92-.23,4.42,4.42,0,0,0,2.5.71,2,2,0,0,0,2.28-2.13V102a1.91,1.91,0,0,0-2.18-2.08,2.85,2.85,0,0,0-1.9.7.93.93,0,0,1-.69.29c-.38,0-.64-.2-.63-.53l.25-4.45c.07-.92.29-1.16,1.16-1.16h4.34C409.14,94.74,409.29,95,409.29,95.39Z"/></g><g class="cls-17"><rect class="cls-18" x="122.49" y="21.01" width="107.79" height="110.45" transform="translate(9.68 171.8) rotate(-53.2)"/></g><g class="cls-4"><path class="cls-5" d="M168.89,45.93c4.15-7.16,10.93-7.16,15.07,0l30.56,52.94c4.14,7.17.75,13-7.53,13H145.77c-8.28,0-11.67-5.86-7.52-13Z"/></g><g class="cls-19"><rect class="cls-20" x="130.31" y="27.81" width="92.15" height="97.65" transform="translate(29.84 201.18) rotate(-63.85)"/></g><path class="cls-8" d="M154.28,97.28v.15a4.35,4.35,0,0,1-1.48,3.09l-3.45,3.63h4.89c.36,0,.52.28.52.63s-.16.63-.52.63h-5.78c-.78,0-1.09-.26-1.09-.81,0-.26.13-.47.45-.81l3.66-3.87c1.06-1.11,1.3-1.68,1.3-2.48v-.07c0-.87-.61-1.44-1.81-1.44a2.46,2.46,0,0,0-2.18,1.2.61.61,0,0,1-.9.13.66.66,0,0,1-.21-.93,3.73,3.73,0,0,1,3.26-1.75C153.2,94.58,154.28,95.79,154.28,97.28Z"/><path class="cls-8" d="M208.84,97.29v.08A2.56,2.56,0,0,1,207,99.86a2.42,2.42,0,0,1,2.29,2.44v.15c0,1.65-1.24,3.12-3.78,3.12a5.41,5.41,0,0,1-3.07-.87.68.68,0,0,1-.21-1,.62.62,0,0,1,.93-.22,3.87,3.87,0,0,0,2.28.73c1.69,0,2.34-.85,2.34-1.81v-.12c0-1.32-1-1.74-2.37-1.74h-.86c-.37,0-.54-.3-.54-.66s.17-.65.54-.65h.74c1.21,0,2.1-.54,2.1-1.77v0c0-.92-.65-1.53-2-1.53a2.42,2.42,0,0,0-1.93.88.62.62,0,0,1-.92,0,.69.69,0,0,1,0-.92,3.61,3.61,0,0,1,2.85-1.24C207.68,94.58,208.84,95.79,208.84,97.29Z"/><path class="cls-8" d="M180.55,49.37c0,.36-.15.64-.53.64H176l-.18,3.32a3.52,3.52,0,0,1,2.16-.69,3.08,3.08,0,0,1,3.24,3.27v.16a3.4,3.4,0,0,1-3.77,3.48,5.76,5.76,0,0,1-3.24-.87.67.67,0,0,1-.19-1,.6.6,0,0,1,.91-.23,4.45,4.45,0,0,0,2.51.71,2,2,0,0,0,2.28-2.13V56a1.92,1.92,0,0,0-2.18-2.08,2.83,2.83,0,0,0-1.9.7,1,1,0,0,1-.69.29c-.38,0-.65-.2-.63-.53l.25-4.45c.06-.92.29-1.16,1.16-1.16H180C180.4,48.72,180.55,49,180.55,49.37Z"/><g class="cls-4"><path class="cls-21" d="M360.59,100.69a9.48,9.48,0,1,1-9.48-9.47A9.48,9.48,0,0,1,360.59,100.69Zm-100.1,0A9.48,9.48,0,1,1,251,91.22,9.49,9.49,0,0,1,260.49,100.69Zm-100.5,0a9.48,9.48,0,1,1-9.48-9.47A9.49,9.49,0,0,1,160,100.69Zm-100.25,0a9.48,9.48,0,1,1-9.48-9.47A9.49,9.49,0,0,1,59.74,100.69Z"/><rect class="cls-22" x="368.24" y="49.5" width="17.01" height="17.01" rx="1.42"/><rect class="cls-23" x="368.24" y="49.5" width="17.01" height="17.01" rx="1.42"/></g><path class="cls-8" d="M70.42,23.61v.85h1.85c.26,0,.39.23.39.49s-.13.49-.39.49H70.42V26a1.62,1.62,0,0,0,.7,1.47c.52.4,1,.71,1.31.94a.51.51,0,0,1,.13.71.48.48,0,0,1-.68.15c-.26-.17-.7-.48-1.15-.82s-.81-.7-.85-.93h0c-.06.26-.29.55-.88,1s-.92.66-1.35.95a.47.47,0,0,1-.66-.17.49.49,0,0,1,.11-.71c.49-.34,1-.67,1.51-1.07A1.66,1.66,0,0,0,69.3,26v-.59H67.37c-.28,0-.4-.22-.4-.49s.12-.49.4-.49H69.3v-.85a.56.56,0,0,1,1.12,0Zm2,6.54v.22a1.49,1.49,0,0,0,1,1.48c.65.35,1.27.65,2,1a.46.46,0,0,1,.18.63.48.48,0,0,1-.64.28c-.63-.28-1.18-.57-1.74-.86-.87-.48-1.18-.79-1.26-1.09h0c-.08.31-.4.64-1.27,1.11-.56.3-1.1.59-1.74.86a.48.48,0,0,1-.64-.27.5.5,0,0,1,.17-.66c.69-.31,1.32-.61,2-1a1.48,1.48,0,0,0,1-1.48v-.22c0-.32.27-.47.56-.47S72.39,29.83,72.39,30.15Zm2.72-6.43v6a.49.49,0,0,1-.55.48.49.49,0,0,1-.55-.48V27.28H72.43c-.26,0-.39-.23-.39-.5s.13-.49.39-.49H74V23.72a.49.49,0,0,1,.55-.48A.49.49,0,0,1,75.11,23.72Z"/><path class="cls-8" d="M82.13,24.65c0,.27-.13.49-.39.49h-.68v1.07a4.08,4.08,0,0,0,.36,2.06c.24.46.51.94.74,1.33a.48.48,0,0,1-.13.66.45.45,0,0,1-.63-.12c-.2-.32-.35-.62-.56-1a2.42,2.42,0,0,1-.29-.79h0a2.52,2.52,0,0,1-.3.84,10.74,10.74,0,0,1-.53,1c-.22.32-.51.32-.72,0a10.53,10.53,0,0,1-.52-1,2.59,2.59,0,0,1-.31-.84h0a2.54,2.54,0,0,1-.29.8c-.21.37-.37.68-.61,1a.41.41,0,0,1-.62.11.48.48,0,0,1-.14-.65c.26-.43.55-.93.79-1.39a4.05,4.05,0,0,0,.36-2.06V25.14H77c-.28,0-.41-.22-.41-.49s.13-.49.41-.49h4.75C82,24.16,82.13,24.39,82.13,24.65ZM78.86,28a5.9,5.9,0,0,0,.37.84c.1.21.14.21.25,0a7.3,7.3,0,0,0,.37-.84,4.77,4.77,0,0,0,.2-1.74V25.14h-1.4v1.07A4.73,4.73,0,0,0,78.86,28Zm6.6-4.28v9.07a.5.5,0,0,1-1,0v-5h-1v4.51a.44.44,0,0,1-.49.43c-.27,0-.5-.13-.5-.43V23.79a.5.5,0,0,1,1,0v3h1v-3.1a.44.44,0,0,1,.49-.43C85.23,23.24,85.46,23.38,85.46,23.67Z"/><path class="cls-8" d="M174.59,30.46v.85c0,.66-.21.87-.86.87H169c-.12,0-.17,0-.17.17v.47c0,.12,0,.17.17.17h5.46a.4.4,0,0,1,.37.45c0,.24-.13.45-.37.45h-5.86c-.64,0-.86-.21-.86-.86v-.85c0-.66.22-.87.86-.87h4.72c.12,0,.18,0,.18-.17v-.46c0-.13-.06-.18-.18-.18h-5.24c-.25,0-.36-.21-.36-.45s.11-.45.36-.45h2.54v-.94h-3.76c-.25,0-.38-.21-.38-.48s.13-.46.38-.46h8.61c.26,0,.38.21.38.46s-.12.48-.38.48h-3.76v.94h2C174.38,29.6,174.59,29.81,174.59,30.46ZM174.54,24c0,.27-.13.47-.37.47h-5c-.17,0-.24.06-.24.24v1.05c0,.19.07.24.24.24h5.14c.24,0,.37.21.37.46s-.13.49-.37.49h-5.65c-.64,0-.84-.21-.84-.87V24.34c0-.65.2-.86.84-.86h5.54C174.41,23.48,174.54,23.7,174.54,24Z"/><path class="cls-8" d="M182,24.65c0,.27-.13.49-.39.49h-.68v1.07a4.08,4.08,0,0,0,.36,2.06c.24.46.51.94.74,1.33a.48.48,0,0,1-.13.66.45.45,0,0,1-.63-.12c-.2-.32-.36-.62-.56-1a2.42,2.42,0,0,1-.29-.79h0a2.52,2.52,0,0,1-.3.84,10.74,10.74,0,0,1-.53,1c-.22.32-.51.32-.72,0a10.53,10.53,0,0,1-.52-1,2.59,2.59,0,0,1-.31-.84h0a2.12,2.12,0,0,1-.29.8c-.2.37-.36.68-.6,1a.41.41,0,0,1-.62.11.48.48,0,0,1-.14-.65c.26-.43.55-.93.78-1.39a4,4,0,0,0,.37-2.06V25.14h-.66c-.27,0-.4-.22-.4-.49s.13-.49.4-.49h4.76C181.86,24.16,182,24.39,182,24.65ZM178.72,28a5.9,5.9,0,0,0,.37.84c.1.21.14.21.25,0a7.3,7.3,0,0,0,.37-.84,4.77,4.77,0,0,0,.2-1.74V25.14h-1.4v1.07A4.73,4.73,0,0,0,178.72,28Zm6.6-4.28v9.07a.5.5,0,0,1-1,0v-5h-1v4.51a.44.44,0,0,1-.49.43c-.27,0-.51-.13-.51-.43V23.79a.45.45,0,0,1,.51-.44.44.44,0,0,1,.49.44v3h1v-3.1a.44.44,0,0,1,.49-.43C185.09,23.24,185.32,23.38,185.32,23.67Z"/><path class="cls-8" d="M270.73,24.13v1.1a2.17,2.17,0,0,0,.6,1.71c.4.43.76.76,1.11,1.1a.51.51,0,0,1,0,.71.47.47,0,0,1-.7,0c-.27-.24-.58-.52-.89-.84a2.1,2.1,0,0,1-.68-.95h0a2,2,0,0,1-.68,1c-.39.39-.71.68-1.09,1a.47.47,0,0,1-.69-.08.53.53,0,0,1,0-.72c.42-.36.9-.82,1.31-1.24a2.24,2.24,0,0,0,.59-1.73V24.13a.5.5,0,0,1,.56-.48A.5.5,0,0,1,270.73,24.13Zm2.67,5.77v.42a1.51,1.51,0,0,0,1,1.51c.63.35,1.26.67,1.95,1a.47.47,0,0,1,.16.66.46.46,0,0,1-.62.25c-.63-.29-1.2-.58-1.74-.88-.89-.48-1.18-.78-1.26-1.08h0c-.07.31-.39.62-1.27,1.11-.53.3-1.1.58-1.74.87a.46.46,0,0,1-.62-.25.5.5,0,0,1,.17-.68c.68-.31,1.32-.63,1.95-1a1.52,1.52,0,0,0,1-1.51V29.9a.49.49,0,0,1,.55-.48A.5.5,0,0,1,273.4,29.9Zm1-6.16v4.8a.47.47,0,0,1-.51.45.48.48,0,0,1-.53-.45V26.39H272.2c-.27,0-.39-.23-.39-.49s.12-.5.39-.5h1.11V23.74a.47.47,0,0,1,.53-.45A.46.46,0,0,1,274.35,23.74Zm2,0v6a.48.48,0,0,1-.53.45.47.47,0,0,1-.51-.45v-6a.46.46,0,0,1,.51-.45A.47.47,0,0,1,276.36,23.69Z"/><path class="cls-8" d="M283.12,24.65c0,.27-.12.49-.39.49h-.68v1.07a4,4,0,0,0,.37,2.06c.23.46.5.94.73,1.33a.48.48,0,0,1-.13.66.45.45,0,0,1-.63-.12c-.2-.32-.35-.62-.55-1a2.2,2.2,0,0,1-.29-.79h0a2.52,2.52,0,0,1-.3.84,10.74,10.74,0,0,1-.53,1c-.21.32-.5.32-.72,0a10.53,10.53,0,0,1-.52-1,2.59,2.59,0,0,1-.31-.84h0a2.31,2.31,0,0,1-.29.8c-.2.37-.37.68-.61,1a.41.41,0,0,1-.62.11.48.48,0,0,1-.14-.65c.26-.43.55-.93.79-1.39a4.05,4.05,0,0,0,.36-2.06V25.14H278c-.28,0-.41-.22-.41-.49s.13-.49.41-.49h4.75C283,24.16,283.12,24.39,283.12,24.65ZM279.85,28a5.9,5.9,0,0,0,.37.84c.1.21.14.21.25,0a7.3,7.3,0,0,0,.37-.84,4.77,4.77,0,0,0,.2-1.74V25.14h-1.4v1.07A4.73,4.73,0,0,0,279.85,28Zm6.6-4.28v9.07a.5.5,0,0,1-1,0v-5h-1v4.51a.44.44,0,0,1-.49.43c-.27,0-.5-.13-.5-.43V23.79a.5.5,0,0,1,1,0v3h1v-3.1a.44.44,0,0,1,.49-.43C286.22,23.24,286.45,23.38,286.45,23.67Z"/><path class="cls-8" d="M368.32,24.27v3.28c0,.19.07.24.23.24a18.48,18.48,0,0,0,2.66-.18c.24,0,.41.15.43.43a.44.44,0,0,1-.31.55,24.43,24.43,0,0,1-3.28.18c-.64,0-.86-.21-.86-.86V24.27a.5.5,0,0,1,.56-.49C368.05,23.78,368.32,23.93,368.32,24.27Zm4.33,5.63v.42a1.51,1.51,0,0,0,1,1.51c.62.35,1.26.67,1.95,1a.47.47,0,0,1,.16.66.47.47,0,0,1-.63.25c-.62-.29-1.19-.58-1.74-.88-.88-.48-1.17-.78-1.26-1.08h0c-.08.31-.39.62-1.27,1.11-.54.3-1.11.58-1.74.87a.47.47,0,0,1-.63-.25.51.51,0,0,1,.17-.68c.68-.31,1.33-.63,1.95-1a1.52,1.52,0,0,0,1-1.51V29.9a.57.57,0,0,1,1.12,0Zm.88-6.16v4.8A.47.47,0,0,1,373,29a.48.48,0,0,1-.53-.45V26.36h-1.83c-.26,0-.39-.23-.39-.5s.13-.49.39-.49h1.83V23.74a.47.47,0,0,1,.53-.45A.46.46,0,0,1,373.53,23.74Zm2.07,0v6a.52.52,0,0,1-1,0v-6a.52.52,0,0,1,1,0Z"/><path class="cls-8" d="M382.36,24.65c0,.27-.12.49-.39.49h-.68v1.07a4.07,4.07,0,0,0,.37,2.06c.24.46.5.94.74,1.33a.5.5,0,0,1-.14.66.44.44,0,0,1-.62-.12c-.2-.32-.36-.62-.56-1a2.2,2.2,0,0,1-.29-.79h0a2.52,2.52,0,0,1-.3.84,11,11,0,0,1-.54,1,.38.38,0,0,1-.71,0,10.53,10.53,0,0,1-.52-1,2.93,2.93,0,0,1-.32-.84h0a2.12,2.12,0,0,1-.29.8c-.2.37-.37.68-.6,1a.42.42,0,0,1-.63.11.48.48,0,0,1-.13-.65c.26-.43.55-.93.78-1.39a4,4,0,0,0,.37-2.06V25.14h-.66c-.28,0-.4-.22-.4-.49s.12-.49.4-.49H382C382.24,24.16,382.36,24.39,382.36,24.65ZM379.1,28a7.31,7.31,0,0,0,.36.84c.1.21.15.21.26,0s.25-.52.37-.84a5,5,0,0,0,.2-1.74V25.14h-1.41v1.07A4.68,4.68,0,0,0,379.1,28Zm6.6-4.28v9.07a.5.5,0,0,1-1,0v-5h-1v4.51c0,.3-.24.43-.5.43s-.5-.13-.5-.43V23.79a.5.5,0,0,1,1,0v3h1v-3.1a.44.44,0,0,1,.49-.43C385.47,23.24,385.7,23.38,385.7,23.67Z"/><path class="cls-24" d="M136.05,66.31c-.08-.62-.62-1-1-1.37a18.1,18.1,0,0,0-1.75-1.42c-.76-.51-1.51-1-2.3-1.49a6,6,0,0,0-.71-.37l-.19-.1c-.4-.23-1-.47-1.36-.14s-.17,1.41-.07,1.72l.22.75c-.58-.1-1.15-.25-1.71-.4a14.8,14.8,0,0,0-2-.45A31.58,31.58,0,0,0,121,62.8h-.47a25,25,0,0,0-2.54.08q-.63.06-1.26.18l-.16,0a1.33,1.33,0,0,0-.85.35,2,2,0,0,0-.3,1.51c0,.39,0,.78,0,1.18,0,.66.1,1.32.14,2s.07,1.49.72,1.87a2.23,2.23,0,0,0,1.82-.08c.59-.21,1.15-.52,1.74-.75a14.85,14.85,0,0,1,1.84-.53c.48-.14,1-.27,1.45-.38a15.41,15.41,0,0,1,5.1-.51c.24,0,.43,0,.6,0l-.06.25a3.69,3.69,0,0,0-.13,1.16,1.41,1.41,0,0,0,.49.8,5.92,5.92,0,0,0,1,.9c.22.14.57.38.85.3.61-.17,1.05-.78,1.48-1.22s.61-.65.92-1a9.54,9.54,0,0,1,1.69-1.35,1.9,1.9,0,0,0,.91-.86.93.93,0,0,0,0-.44Z"/><path class="cls-22" d="M134.73,65.19a.6.6,0,0,1,0,.55,1.7,1.7,0,0,1-.68.54c-.14.08-.29.15-.42.24A8.39,8.39,0,0,0,132,67.84a10.35,10.35,0,0,1-1.4,1.33c-.35.23-1,.52-1.34.15a1,1,0,0,1-.13-.81c0-.35.17-.69.22-1,.09-.64-.56-.87-1.07-1a11.43,11.43,0,0,0-4.36.14c-.73.13-1.46.29-2.18.48a16.62,16.62,0,0,0-2.08.63c-.91.38-2.62,1.41-3.42.34a2.71,2.71,0,0,1-.35-1.7c0-.37,0-.74,0-1.12a4.18,4.18,0,0,1,0-1c.13-.71.83-.72,1.42-.8.75-.09,1.5-.16,2.26-.18a42.76,42.76,0,0,1,4.53.12,28.57,28.57,0,0,1,4.39.84,2,2,0,0,0,.93.13c0-.45-1.14-2.65,0-2.57a2.2,2.2,0,0,1,.74.27l.75.41c.53.3,1,.62,1.55.93l1.19.75a5.11,5.11,0,0,1,1,.71,1,1,0,0,1,.21.33"/><path class="cls-24" d="M236.57,66.31c-.08-.62-.61-1-1-1.37a17,17,0,0,0-1.75-1.42c-.76-.51-1.51-1-2.3-1.49a6.7,6.7,0,0,0-.7-.37l-.19-.1c-.41-.23-1-.47-1.37-.14s-.17,1.41-.07,1.72l.22.75c-.57-.1-1.15-.25-1.7-.4a15.15,15.15,0,0,0-2-.45,31.83,31.83,0,0,0-4.12-.24h-.47a25.09,25.09,0,0,0-2.54.08c-.41,0-.84.1-1.25.18l-.16,0a1.35,1.35,0,0,0-.86.35,2,2,0,0,0-.3,1.51c0,.39.05.78.05,1.18,0,.66.1,1.32.14,2s.07,1.49.72,1.87a2.23,2.23,0,0,0,1.82-.08c.6-.21,1.15-.52,1.74-.75a15,15,0,0,1,1.85-.53c.48-.14,1-.27,1.44-.38a15.44,15.44,0,0,1,5.1-.51c.25,0,.44,0,.6,0l-.06.25a3.69,3.69,0,0,0-.13,1.16,1.46,1.46,0,0,0,.49.8,6.35,6.35,0,0,0,1,.9c.22.14.57.38.85.3.61-.17,1.05-.78,1.48-1.22s.61-.65.92-1a10,10,0,0,1,1.7-1.35,1.88,1.88,0,0,0,.9-.86.93.93,0,0,0,0-.44Z"/><path class="cls-22" d="M235.25,65.19a.6.6,0,0,1-.05.55,1.64,1.64,0,0,1-.68.54l-.42.24a8.39,8.39,0,0,0-1.59,1.32,9.29,9.29,0,0,1-1.4,1.33c-.35.23-1,.52-1.33.15a.93.93,0,0,1-.14-.81c.05-.35.17-.69.22-1,.09-.64-.56-.87-1.07-1a11.43,11.43,0,0,0-4.36.14c-.73.13-1.46.29-2.18.48a17.14,17.14,0,0,0-2.08.63c-.91.38-2.61,1.41-3.42.34a2.71,2.71,0,0,1-.35-1.7c0-.37,0-.74,0-1.12a4.18,4.18,0,0,1,0-1c.12-.71.83-.72,1.41-.8.75-.09,1.5-.16,2.26-.18a43,43,0,0,1,4.54.12,28.45,28.45,0,0,1,4.38.84,2,2,0,0,0,.93.13c0-.45-1.14-2.65,0-2.57a2.12,2.12,0,0,1,.74.27l.76.41c.52.3,1,.62,1.54.93l1.2.75a5.4,5.4,0,0,1,.94.71.84.84,0,0,1,.21.33"/><path class="cls-24" d="M337.1,66.31a2.43,2.43,0,0,0-1.05-1.37,16.85,16.85,0,0,0-1.74-1.42c-.76-.51-1.51-1-2.3-1.49a6.85,6.85,0,0,0-.71-.37l-.19-.1c-.41-.23-1-.47-1.37-.14s-.16,1.41-.06,1.72c0,.07.12.44.21.75-.57-.1-1.14-.25-1.7-.4a14.8,14.8,0,0,0-2-.45,31.68,31.68,0,0,0-4.11-.24h-.47a25.19,25.19,0,0,0-2.55.08c-.41,0-.83.1-1.25.18l-.16,0a1.35,1.35,0,0,0-.86.35,2,2,0,0,0-.3,1.51,11.52,11.52,0,0,1,0,1.18c0,.66.1,1.32.14,2s.07,1.49.72,1.87a2.25,2.25,0,0,0,1.83-.08c.59-.21,1.15-.52,1.73-.75a15,15,0,0,1,1.85-.53c.48-.14,1-.27,1.45-.38a15.41,15.41,0,0,1,5.1-.51c.24,0,.43,0,.59,0l-.05.25a3.69,3.69,0,0,0-.14,1.16,1.48,1.48,0,0,0,.5.8,5.85,5.85,0,0,0,1,.9c.22.14.58.38.86.3a3.93,3.93,0,0,0,1.48-1.22l.91-1a10,10,0,0,1,1.7-1.35,1.88,1.88,0,0,0,.9-.86.94.94,0,0,0,.05-.44Z"/><path class="cls-22" d="M335.78,65.19a.61.61,0,0,1-.06.55,1.64,1.64,0,0,1-.68.54c-.14.08-.28.15-.42.24A9.07,9.07,0,0,0,333,67.84a9.72,9.72,0,0,1-1.39,1.33c-.35.23-1,.52-1.34.15a.93.93,0,0,1-.14-.81c.06-.35.18-.69.23-1,.09-.64-.57-.87-1.08-1a11.39,11.39,0,0,0-4.35.14c-.74.13-1.46.29-2.18.48a16.77,16.77,0,0,0-2.09.63c-.9.38-2.61,1.41-3.42.34a2.78,2.78,0,0,1-.35-1.7,10.54,10.54,0,0,0,0-1.12,4.18,4.18,0,0,1,0-1c.12-.71.83-.72,1.41-.8.76-.09,1.51-.16,2.26-.18a42.94,42.94,0,0,1,4.54.12,28.22,28.22,0,0,1,4.38.84,2,2,0,0,0,.93.13c0-.45-1.14-2.65,0-2.57a2.15,2.15,0,0,1,.73.27l.76.41c.52.3,1,.62,1.54.93l1.2.75a5,5,0,0,1,.94.71,1,1,0,0,1,.22.33"/></g></g></svg>