<svg xmlns="http://www.w3.org/2000/svg" xmlns:xlink="http://www.w3.org/1999/xlink" viewBox="0 0 192.02 193.02"><defs><style>.cls-1,.cls-11,.cls-14,.cls-2,.cls-3,.cls-7,.cls-8{fill:none;}.cls-2{stroke:#f9c385;}.cls-2,.cls-3,.cls-7,.cls-8{stroke-width:2px;}.cls-3{stroke:#f4b4d0;}.cls-4{clip-path:url(#clip-path);}.cls-5{fill:#f9c385;}.cls-6{fill:#f4b4d0;}.cls-7{stroke:#d0c2df;}.cls-8{stroke:#c1db81;}.cls-9{fill:#d0c2df;}.cls-10{fill:#c1db81;}.cls-11{stroke:#0086cd;stroke-width:0.8px;}.cls-12{fill:#231815;}.cls-13{fill:#fff;}.cls-14{stroke:#00a0e9;stroke-linejoin:round;stroke-width:0.4px;}</style><clipPath id="clip-path" transform="translate(0 0)"><rect class="cls-1" width="192.02" height="193.02"/></clipPath></defs><title>자산 1</title><g id="레이어_2" data-name="레이어 2"><g id="레이어_1-2" data-name="레이어 1"><line class="cls-2" x1="105.51" y1="93.51" x2="105.51" y2="6.67"/><line class="cls-3" x1="105.51" y1="186.34" x2="105.51" y2="111.34"/><g class="cls-4"><path class="cls-5" d="M105.51,8.59l-3.12,1.9-.06-.11,2-5.07L105.51,0l1.17,5.31,2,5.07,0,.11Z" transform="translate(0 0)"/><path class="cls-6" d="M105.51,184.42l3.11-1.89.07.11-2,5.07L105.51,193l-1.17-5.31-2-5.07,0-.11Z" transform="translate(0 0)"/><line class="cls-7" x1="92.56" y1="103.51" x2="6.67" y2="103.51"/><line class="cls-8" x1="185.35" y1="103.51" x2="113.06" y2="103.51"/><path class="cls-9" d="M8.6,103.51l1.89,3.11-.11.07-5.07-2L0,103.51l5.31-1.17,5.07-2,.11.06Z" transform="translate(0 0)"/><path class="cls-10" d="M183.43,103.51l-1.9-3.12.11-.07,5.07,2,5.31,1.17-5.31,1.17-5.07,2-.11,0Z" transform="translate(0 0)"/><path class="cls-11" d="M113.07,103.51a10.51,10.51,0,0,1-7.66,12.25c-12.09,3-19.09-6-20.09-12.5-1.95-12.66,5.25-24.42,20.21-26.59,18.69-2.71,31.7,11.6,33.95,27,2.14,14.63-7.44,38.45-33.95,41C75.78,147.53,57.61,124,56.9,103.51c-1.21-34.83,23.92-53.75,48.57-55.87,37.52-3.23,63.29,27.64,63.15,56-.24,47.16-39.38,69.68-63,70.25C49.57,175.26,28.07,130.51,28,103.5,27.78,46,73.86,19.28,105.47,18.57" transform="translate(0 0)"/></g><path class="cls-12" d="M105.76,44.76v.12a3.46,3.46,0,0,1-1.19,2.47l-2.76,2.91h3.91c.29,0,.42.23.42.5s-.13.5-.42.5H101.1c-.62,0-.87-.2-.87-.64,0-.21.11-.37.36-.65l2.93-3.09c.85-.89,1-1.35,1-2v-.06c0-.7-.49-1.16-1.45-1.16a2,2,0,0,0-1.74,1,.5.5,0,0,1-.72.11.52.52,0,0,1-.17-.74,3,3,0,0,1,2.6-1.4C104.9,42.61,105.76,43.58,105.76,44.76Z" transform="translate(0 0)"/><path class="cls-12" d="M113,44.78v.06a2,2,0,0,1-1.48,2,1.93,1.93,0,0,1,1.83,2v.12c0,1.32-1,2.5-3,2.5a4.29,4.29,0,0,1-2.46-.7.56.56,0,0,1-.17-.79.5.5,0,0,1,.75-.18,3,3,0,0,0,1.82.59c1.36,0,1.87-.69,1.87-1.45v-.1c0-1.06-.81-1.39-1.89-1.39h-.69c-.3,0-.43-.24-.43-.53s.13-.51.43-.51h.59c1,0,1.68-.44,1.68-1.42v0c0-.73-.52-1.22-1.57-1.22a2,2,0,0,0-1.55.71.49.49,0,0,1-.73,0,.54.54,0,0,1,0-.73,2.9,2.9,0,0,1,2.28-1C112.07,42.61,113,43.58,113,44.78Z" transform="translate(0 0)"/><path class="cls-12" d="M105.67,15v.06a2,2,0,0,1-1.48,2A1.93,1.93,0,0,1,106,19v.12c0,1.32-1,2.5-3,2.5a4.29,4.29,0,0,1-2.46-.7.56.56,0,0,1-.17-.79.5.5,0,0,1,.75-.18,3,3,0,0,0,1.82.59c1.36,0,1.87-.69,1.87-1.45V19c0-1.05-.81-1.39-1.89-1.39h-.69c-.3,0-.43-.24-.43-.53s.13-.51.43-.51h.59c1,0,1.68-.44,1.68-1.42v0c0-.73-.52-1.22-1.57-1.22a2,2,0,0,0-1.55.71.49.49,0,0,1-.73,0,.53.53,0,0,1,0-.73,2.9,2.9,0,0,1,2.28-1C104.75,12.85,105.67,13.82,105.67,15Z" transform="translate(0 0)"/><path class="cls-12" d="M113,13.49c0,.29-.12.52-.42.52h-3.25l-.14,2.65a2.85,2.85,0,0,1,1.73-.55,2.46,2.46,0,0,1,2.59,2.61v.13a2.72,2.72,0,0,1-3,2.79,4.62,4.62,0,0,1-2.59-.7.54.54,0,0,1-.16-.78.48.48,0,0,1,.73-.18,3.58,3.58,0,0,0,2,.56,1.62,1.62,0,0,0,1.82-1.7v-.08a1.54,1.54,0,0,0-1.74-1.67,2.25,2.25,0,0,0-1.52.57.8.8,0,0,1-.56.22c-.29,0-.51-.15-.5-.42l.21-3.56c0-.73.22-.92.92-.92h3.46C112.87,13,113,13.22,113,13.49Z" transform="translate(0 0)"/><path class="cls-12" d="M138.72,98.83v7.62c0,.35-.27.51-.6.51s-.6-.16-.6-.51V99.73l-1.79,1.1a.55.55,0,0,1-.76-.24.52.52,0,0,1,.18-.73l2.15-1.29a1.62,1.62,0,0,1,.8-.26C138.46,98.31,138.72,98.47,138.72,98.83Z" transform="translate(0 0)"/><path class="cls-12" d="M146.16,99.17l-3.39,4.91h2.9v-2.2a.52.52,0,0,1,.59-.5c.31,0,.6.16.6.5v2.2h.87c.3,0,.41.23.41.49s-.11.49-.41.49h-.87v1.39c0,.35-.29.51-.6.51a.53.53,0,0,1-.59-.51v-1.39h-3.56c-.55,0-.78-.19-.78-.59,0-.15,0-.26.32-.7l3.63-5.22a.51.51,0,0,1,.74-.14A.49.49,0,0,1,146.16,99.17Z" transform="translate(0 0)"/><path class="cls-12" d="M168.77,100.4v.12a3.44,3.44,0,0,1-1.19,2.47l-2.76,2.9h3.91c.29,0,.42.23.42.5s-.13.51-.42.51h-4.61c-.63,0-.88-.21-.88-.65,0-.2.11-.37.36-.65l2.93-3.09c.85-.89,1-1.35,1-2v-.06c0-.7-.49-1.15-1.45-1.15a2,2,0,0,0-1.74,1,.49.49,0,0,1-.72.1.52.52,0,0,1-.17-.74,3,3,0,0,1,2.61-1.4C167.91,98.24,168.77,99.21,168.77,100.4Z" transform="translate(0 0)"/><path class="cls-12" d="M175.83,98.67a.53.53,0,0,1,.21.71.5.5,0,0,1-.71.26,3.34,3.34,0,0,0-1.46-.31c-1.26,0-2,1-2.1,3a2.7,2.7,0,0,1,4.78,1.75v.2a2.72,2.72,0,0,1-3,2.78c-2,0-3-1.3-3-3.63v-.34c0-3.73,1.41-4.82,3.33-4.82A4.06,4.06,0,0,1,175.83,98.67Zm-4,5.37v.1a1.65,1.65,0,0,0,1.75,1.8,1.61,1.61,0,0,0,1.8-1.74v-.08a1.55,1.55,0,0,0-1.75-1.74A1.63,1.63,0,0,0,171.82,104Z" transform="translate(0 0)"/><path class="cls-12" d="M108.67,111.22c0,.29-.12.52-.42.52H105l-.14,2.65a2.85,2.85,0,0,1,1.73-.55,2.46,2.46,0,0,1,2.59,2.61v.13a2.72,2.72,0,0,1-3,2.79,4.62,4.62,0,0,1-2.59-.7.54.54,0,0,1-.16-.78.48.48,0,0,1,.73-.18,3.58,3.58,0,0,0,2,.56,1.62,1.62,0,0,0,1.82-1.7v-.08a1.53,1.53,0,0,0-1.74-1.67,2.3,2.3,0,0,0-1.52.56.77.77,0,0,1-.56.23c-.3,0-.51-.15-.5-.42l.2-3.56c0-.73.23-.92.93-.92h3.46C108.55,110.71,108.67,111,108.67,111.22Z" transform="translate(0 0)"/><path class="cls-12" d="M88.63,100.53v.11a2.15,2.15,0,0,1-1.27,1.88,2.08,2.08,0,0,1,1.53,2v.14c0,1.38-1.08,2.38-2.9,2.38s-2.93-1-2.93-2.38v-.14a2.1,2.1,0,0,1,1.52-2,2.15,2.15,0,0,1-1.28-1.88v-.11A2.36,2.36,0,0,1,86,98.24,2.38,2.38,0,0,1,88.63,100.53Zm-4.35,4v.07c0,.82.66,1.38,1.7,1.38s1.68-.56,1.68-1.38v-.07A1.48,1.48,0,0,0,86,103.07C85.06,103.07,84.28,103.55,84.28,104.52Zm.23-3.92v.07A1.36,1.36,0,0,0,86,102a1.33,1.33,0,0,0,1.45-1.35v-.07a1.47,1.47,0,0,0-2.92,0Z" transform="translate(0 0)"/><path class="cls-12" d="M57.52,100.4v.12A3.48,3.48,0,0,1,56.33,103l-2.76,2.9h3.91c.29,0,.42.23.42.5s-.13.51-.42.51H52.86c-.62,0-.87-.21-.87-.65,0-.2.11-.37.36-.65l2.92-3.09c.86-.89,1-1.35,1-2v-.06c0-.7-.49-1.15-1.45-1.15a2,2,0,0,0-1.74,1,.49.49,0,0,1-.72.1.52.52,0,0,1-.17-.74,3,3,0,0,1,2.6-1.4C56.65,98.24,57.52,99.21,57.52,100.4Z" transform="translate(0 0)"/><path class="cls-12" d="M65.29,102.34v.59c0,2.65-.91,4.1-3.07,4.1s-3.07-1.45-3.07-4.1v-.59c0-2.65.91-4.1,3.07-4.1S65.29,99.69,65.29,102.34Zm-4.93.1v.39c0,2.14.45,3.07,1.86,3.07s1.86-.93,1.86-3.07v-.39c0-2.14-.44-3.07-1.86-3.07S60.36,100.3,60.36,102.44Z" transform="translate(0 0)"/><path class="cls-12" d="M104.56,140.59v7.62c0,.35-.28.51-.6.51s-.6-.16-.6-.51v-6.72l-1.8,1.1a.53.53,0,0,1-.75-.24.51.51,0,0,1,.17-.73l2.15-1.29a1.68,1.68,0,0,1,.81-.26C104.3,140.07,104.56,140.23,104.56,140.59Z" transform="translate(0 0)"/><path class="cls-12" d="M113.49,140.78a2.27,2.27,0,0,1-.32,1l-3,6.67a.52.52,0,0,1-.75.24.52.52,0,0,1-.29-.74l3.11-6.75h-4.38c-.29,0-.42-.24-.42-.51s.13-.52.42-.52h4.81C113.26,140.13,113.49,140.33,113.49,140.78Z" transform="translate(0 0)"/><path class="cls-12" d="M105.76,171.08v.12a3.48,3.48,0,0,1-1.19,2.47l-2.76,2.9h3.91c.29,0,.42.23.42.5s-.13.51-.42.51H101.1c-.62,0-.87-.21-.87-.65,0-.2.11-.37.36-.65l2.93-3.09c.85-.89,1-1.35,1-2v-.06c0-.7-.49-1.15-1.45-1.15a2,2,0,0,0-1.74,1,.49.49,0,0,1-.72.1.52.52,0,0,1-.17-.74,3,3,0,0,1,2.6-1.4C104.9,168.92,105.76,169.89,105.76,171.08Z" transform="translate(0 0)"/><path class="cls-12" d="M113.4,172.54v.35c0,3.81-1.29,4.82-3.33,4.82a3.93,3.93,0,0,1-1.9-.43.51.51,0,0,1-.22-.72.49.49,0,0,1,.7-.27,3.31,3.31,0,0,0,1.49.33c1.33,0,2-.79,2.08-3a2.71,2.71,0,0,1-4.79-1.74v-.21a2.74,2.74,0,0,1,3-2.79C112.37,168.92,113.4,170.2,113.4,172.54Zm-4.78-.79v.09a1.55,1.55,0,0,0,1.75,1.74,1.63,1.63,0,0,0,1.8-1.66v-.1a1.64,1.64,0,0,0-1.75-1.81A1.61,1.61,0,0,0,108.62,171.75Z" transform="translate(0 0)"/><path class="cls-12" d="M116.15,100.4v.12A3.44,3.44,0,0,1,115,103l-2.76,2.9h3.91c.29,0,.42.23.42.5s-.13.51-.42.51H111.5c-.63,0-.88-.21-.88-.65,0-.2.11-.37.36-.65l2.93-3.09c.85-.89,1-1.35,1-2v-.06c0-.7-.49-1.15-1.45-1.15a2,2,0,0,0-1.74,1,.49.49,0,0,1-.72.1.52.52,0,0,1-.17-.74,3,3,0,0,1,2.61-1.4C115.29,98.24,116.15,99.21,116.15,100.4Z" transform="translate(0 0)"/><g class="cls-4"><rect class="cls-13" x="92.43" y="68.93" width="25.51" height="17.01" rx="1.42"/><rect class="cls-14" x="92.43" y="68.93" width="25.51" height="17.01" rx="1.42"/><rect class="cls-13" x="15.43" y="94.93" width="25.51" height="17.01" rx="1.42"/><rect class="cls-14" x="15.43" y="94.93" width="25.51" height="17.01" rx="1.42"/><path class="cls-12" d="M24.32,99.46a5.32,5.32,0,0,0,0,7.49,5.2,5.2,0,0,0,7.43,0,5.32,5.32,0,0,0,0-7.49,5.23,5.23,0,0,0-7.43,0M32,99.24a5.63,5.63,0,0,1-4,9.6,5.62,5.62,0,0,1-4-9.6,5.59,5.59,0,0,1,8,0M25.63,102c0-.26-.05-.42-.16-.5a1.38,1.38,0,0,0-.6-.2.45.45,0,0,1-.3-.17c-.07-.08.09-.15.47-.18a3.2,3.2,0,0,1,.53,0l.46,0c.29,0,.42.13.38.24a1.25,1.25,0,0,0-.06.46v3a.36.36,0,0,0,.15.31.5.5,0,0,0,.3.11h2.3a1.44,1.44,0,0,0,.46-.07,1.14,1.14,0,0,0,.36-.19,1,1,0,0,1,.57-.13,2.86,2.86,0,0,1,.68,0c.37.09.53.22.48.41s-.24.28-.57.28H26.83a2.28,2.28,0,0,1-.84-.14c-.24-.09-.36-.33-.36-.68Z" transform="translate(0 0)"/><path class="cls-12" d="M101.79,73.76a5.34,5.34,0,0,0,0,7.5,5.22,5.22,0,0,0,7.42,0,5.34,5.34,0,0,0,0-7.5,5.22,5.22,0,0,0-7.42,0m7.68-.21a5.34,5.34,0,0,1,1.66,4,5.61,5.61,0,1,1-5.63-5.63,5.35,5.35,0,0,1,4,1.67M104.74,76a1.8,1.8,0,0,0-.91.23c-.26.13-.74,0-1.44-.37a.37.37,0,0,1-.21-.22c0-.08.19-.11.68-.07a16.23,16.23,0,0,0,2.46.07,12.12,12.12,0,0,0,2-.12l.4-.13a.65.65,0,0,1,.36,0c.3.06.4.15.32.26a.74.74,0,0,0-.12.41v2.54a5.48,5.48,0,0,1-.13,1.38c-.07.33-.18.49-.34.49s-.15-.13-.18-.39a8.34,8.34,0,0,1,0-1.12V76Z" transform="translate(0 0)"/></g></g></g></svg>