<?xml version="1.0" encoding="utf-8"?>
<!-- Generator: Adobe Illustrator 23.0.0, SVG Export Plug-In . SVG Version: 6.00 Build 0)  -->
<svg version="1.1" id="레이어_1" xmlns="http://www.w3.org/2000/svg" xmlns:xlink="http://www.w3.org/1999/xlink" x="0px"
	 y="0px" width="154.9px" height="75.8px" viewBox="0 0 154.9 75.8" style="enable-background:new 0 0 154.9 75.8;"
	 xml:space="preserve">
<title>3_3_8_03</title>
<g>
	<g id="활동3-3-1">
		<g>
			<path style="fill:#CBE4E7;" d="M51.3,49.5c0.1,3.3-2.5,5.9-5.8,6s-5.9-2.5-6-5.8c-0.1-3.3,2.5-5.9,5.8-6c0,0,0.1,0,0.1,0
				c3.2-0.1,5.8,2.5,5.9,5.7C51.3,49.5,51.3,49.5,51.3,49.5 M154.9,30.1c0,0,0.2-6.9-6.7-6.7H55c-2.1,0.1-4.2,1-5.6,2.6
				c-0.8,1.1-18,17.2-18,17.2c-2.8,3.7-3.1,8.8-0.6,12.7l18.1,18c1.3,1.3,3.1,2,4.9,1.8h94.1c0,0,6.8-0.4,7-7.3V30.1z"/>
			<g>
				<path d="M74.3,34.2c3.6,0,6.3,1.2,7.9,3.6c1.6,2.4,2.5,5.8,2.5,10.3v2c0,4.5-0.8,7.9-2.5,10.3s-4.3,3.5-7.9,3.5
					s-6.3-1.1-7.9-3.5s-2.5-5.8-2.5-10.3v-2c0-4.5,0.8-8,2.5-10.3S70.6,34.2,74.3,34.2z M74.3,38c-1,0-2.1,0.2-3,0.6
					c-0.8,0.4-1.5,1.1-2,1.9c-0.5,1-0.9,2.1-1,3.2c-0.2,1.6-0.3,3.1-0.3,4.7v1.3c0,1.6,0.1,3.1,0.3,4.7c0.1,1.1,0.5,2.2,1,3.2
					c0.5,0.8,1.2,1.5,2,1.9c1.9,0.8,4.1,0.8,6,0c0.8-0.4,1.5-1.1,1.9-1.9c0.6-1,0.9-2.1,1.1-3.2c0.2-1.6,0.3-3.1,0.3-4.7v-1.3
					c0-1.6-0.1-3.1-0.3-4.7c-0.2-1.1-0.5-2.2-1.1-3.2c-0.4-0.8-1.1-1.5-1.9-1.9C76.4,38.2,75.3,38,74.3,38L74.3,38z"/>
				<path d="M91.7,59.6c0.7,0,1.5,0.3,2,0.8c0.5,0.5,0.8,1.3,0.8,2c0,1.5-1.2,2.7-2.7,2.7c0,0-0.1,0-0.1,0c-1.5,0-2.7-1.2-2.7-2.7
					l0,0c-0.1-0.8,0.2-1.5,0.8-2C90.3,59.9,91,59.6,91.7,59.6z"/>
				<path d="M108.4,34.2c1.4,0,2.8,0.2,4.1,0.6c1.1,0.3,2,0.8,2.9,1.5c0.7,0.7,1.3,1.5,1.7,2.4c0.4,0.9,0.6,1.8,0.6,2.8v0.2
					c0,0.7-0.1,1.4-0.3,2.1c-0.2,0.7-0.5,1.3-0.9,1.9c-0.4,0.7-0.9,1.3-1.6,1.7c-0.7,0.5-1.4,0.8-2.2,1.1c0.8,0.1,1.6,0.3,2.4,0.7
					c1.5,0.6,2.7,1.8,3.3,3.3c0.3,0.8,0.5,1.7,0.5,2.6v0.4c0,1.1-0.2,2.2-0.6,3.2c-0.5,1-1.1,1.9-1.9,2.7c-1,0.8-2,1.4-3.2,1.9
					c-1.5,0.4-3,0.6-4.5,0.6c-3,0.1-5.9-0.7-8.4-2.3c-0.5-0.2-0.8-0.7-0.8-1.2c-0.1-0.5,0-1.1,0.3-1.5c0.2-0.5,0.6-0.8,1.1-0.9
					c0.5-0.1,1,0,1.4,0.3c0.9,0.7,1.9,1.2,3,1.5c1,0.3,2.1,0.5,3.2,0.5c1,0,2-0.1,2.9-0.4c0.7-0.2,1.4-0.6,2-1.1
					c0.5-0.4,0.8-0.9,1.1-1.5c0.2-0.6,0.3-1.3,0.3-1.9v-0.3c0-0.8-0.2-1.6-0.5-2.3c-0.3-0.6-0.8-1-1.3-1.4c-0.6-0.4-1.4-0.7-2.1-0.8
					c-0.8-0.2-1.7-0.2-2.5-0.2h-2.3c-0.5,0-0.9-0.2-1.1-0.6c-0.3-0.3-0.4-0.8-0.4-1.2c0-0.5,0.1-0.9,0.4-1.3
					c0.3-0.3,0.7-0.5,1.1-0.5h2c1.4,0,2.8-0.3,4-1.1c1.1-0.9,1.7-2.3,1.6-3.7l0,0c0-1.1-0.4-2.2-1.3-3c-1.2-0.8-2.6-1.2-4-1.1
					c-1,0-2,0.2-2.9,0.6c-0.9,0.4-1.7,1.1-2.3,1.8c-0.4,0.3-0.8,0.5-1.3,0.5c-0.9-0.2-1.6-1-1.7-1.9c0.1-0.4,0.2-0.8,0.5-1.2
					c0.9-1.1,2-1.9,3.2-2.5C105.3,34.6,106.8,34.2,108.4,34.2z"/>
				<path d="M142.2,35.2c0.4,0.8,0.4,1.6,0,2.4c-0.2,0.4-0.7,0.5-1.1,0.5h-11l-0.5,9c0.8-0.6,1.6-1,2.5-1.3c1-0.4,2.2-0.6,3.3-0.6
					c1.3,0,2.6,0.2,3.8,0.7c1,0.5,1.9,1.1,2.7,1.9c0.7,0.8,1.3,1.8,1.7,2.8c0.4,1.1,0.6,2.3,0.6,3.5v0.4c0,1.2-0.2,2.3-0.6,3.4
					c-0.3,1.1-0.9,2.2-1.7,3c-0.9,1-2,1.7-3.2,2.2c-1.5,0.6-3.1,0.9-4.7,0.8c-1.7,0-3.3-0.2-4.9-0.6c-1.4-0.4-2.7-0.9-3.9-1.7
					c-0.4-0.3-0.7-0.7-0.8-1.2c-0.1-0.5,0-1,0.3-1.4c0.3-0.8,1.2-1.3,2.1-1c0.2,0.1,0.3,0.1,0.4,0.3c0.9,0.6,1.9,1.1,3,1.4
					c1.2,0.4,2.5,0.6,3.8,0.6c1,0,1.9-0.2,2.8-0.5c0.7-0.3,1.4-0.7,1.9-1.3c0.5-0.5,0.9-1.1,1.1-1.8c0.2-0.7,0.3-1.5,0.3-2.2v-0.3
					c0.1-1.6-0.4-3.1-1.5-4.2c-1.2-1-2.8-1.5-4.4-1.4c-1,0-1.9,0.1-2.8,0.5c-0.9,0.3-1.7,0.8-2.3,1.4l-0.9,0.6h-1
					c-0.4,0-0.8-0.1-1.2-0.3c-0.4-0.2-0.5-0.7-0.5-1.1l0.7-12c0-0.5,0.1-1.1,0.2-1.6c0.1-0.3,0.3-0.7,0.6-0.9
					c0.2-0.3,0.5-0.5,0.9-0.5l1.4-0.2h11.8C141.6,34.5,142,34.8,142.2,35.2z"/>
			</g>
			<g>
				<path style="fill:#68B9C3;" d="M2.1,23.5c-0.7,0-1.2-0.5-1.4-1.1c-0.3-0.9-0.5-1.9-0.6-2.8C0,18.8,0.6,18.1,1.4,18
					c0.8-0.1,1.6,0.5,1.7,1.3c0,0,0,0,0,0c0.1,0.8,0.2,1.6,0.4,2.4c0.2,0.7-0.2,1.5-0.9,1.8c0,0-0.1,0-0.1,0L2.1,23.5z M1.5,16.8
					L1.5,16.8C0.6,16.7,0,16,0,15.2c0.1-0.9,0.2-1.9,0.4-2.8c0.2-0.8,0.9-1.3,1.7-1.2c0.8,0.1,1.3,0.8,1.2,1.6c0,0,0,0.1,0,0.1
					L3,15.4C2.9,16.2,2.3,16.8,1.5,16.8z M2.9,10.1H2.4C1.7,9.8,1.3,9,1.5,8.2c0.4-0.9,0.7-1.8,1.1-2.6c0.4-0.7,1.3-1.1,2-0.7
					c0.7,0.4,1,1.3,0.7,2c-0.4,0.7-0.7,1.5-1,2.3C4.1,9.8,3.5,10.1,2.9,10.1z"/>
				<path style="fill:#68B9C3;" d="M17.1,35.4h-0.2c-0.9-0.1-1.8-0.2-2.7-0.5c-0.8-0.2-1.3-1-1.1-1.8c0.2-0.8,0.9-1.2,1.7-1
					c0,0,0.1,0,0.1,0l2.3,0.4c0.8,0.1,1.5,0.8,1.4,1.6c0,0,0,0,0,0C18.5,34.9,17.9,35.4,17.1,35.4z M21.1,35.3
					c-0.8-0.1-1.4-0.9-1.2-1.7c0.1-0.5,0.5-1,1-1.2c0.7-0.1,1.4-0.3,2.1-0.6c0.7-0.4,1.6,0,2,0.7c0.3,0.8-0.1,1.6-0.8,2
					c-0.9,0.4-1.8,0.7-2.8,0.8H21.1z M10.7,33.6h-0.6l-2.5-1.3c-0.7-0.5-0.9-1.4-0.4-2.1c0,0,0,0,0,0c0.4-0.7,1.3-0.9,1.9-0.4
					c0,0,0,0,0.1,0l2.1,1.1c0.7,0.3,1.1,1.1,0.8,1.8c0,0.1-0.1,0.1-0.1,0.2C11.8,33.4,11.2,33.7,10.7,33.6z"/>
				<path style="fill:#68B9C3;" d="M26.8,26.1c-0.4,0-0.7-0.2-1-0.4c-0.4-0.4-0.9-0.7-1.5-0.9c-0.7-0.4-1-1.3-0.6-2
					c0.3-0.6,1-0.9,1.6-0.8c0.9,0.4,1.8,0.9,2.5,1.5c0.6,0.6,0.6,1.5,0.1,2.1C27.6,25.9,27.2,26.1,26.8,26.1z"/>
				<path style="fill:#68B9C3;" d="M11.6,30.6l-0.7-0.2c-0.7-0.4-0.9-1.2-0.6-1.9c0,0,0-0.1,0.1-0.1c0.7-1.1,1.4-2.2,2.3-3.2
					c0.5-0.6,1.4-0.6,2-0.1c0,0,0.1,0.1,0.1,0.1c0.6,0.6,0.6,1.5,0.1,2.1c-0.8,0.8-1.4,1.7-2,2.6C12.6,30.4,12.1,30.6,11.6,30.6z"/>
				<path style="fill:#68B9C3;" d="M27.5,52.6c-0.8,0-1.5-0.7-1.6-1.5c0-0.8,0.6-1.4,1.4-1.5h2.8c0.8-0.1,1.5,0.6,1.6,1.4
					c0,0,0,0,0,0c0,0.8-0.6,1.5-1.4,1.6H27.5z M23,52.3h-0.2c-1-0.1-2-0.3-3-0.6c-0.8-0.2-1.3-1-1.1-1.8c0.2-0.8,0.9-1.2,1.7-1
					c0,0,0.1,0,0.1,0l2.7,0.4c0.8,0.2,1.3,0.9,1.2,1.7c0,0.7-0.6,1.3-1.3,1.3C23.1,52.3,23,52.3,23,52.3z M34.5,52.1
					c-0.7,0-1.4-0.6-1.5-1.3c-0.1-0.8,0.5-1.5,1.3-1.7l2.8-0.3c0.8-0.3,1.6,0.1,1.9,0.9c0.3,0.8-0.1,1.6-0.9,1.9
					c-0.2,0.1-0.4,0.1-0.6,0.1l-2.9,0.4H34.5z M16.1,50.2c-0.3,0-0.5,0-0.7-0.2c-0.9-0.5-1.8-1.1-2.6-1.8c-0.7-0.4-1-1.3-0.7-2
					c0.4-0.7,1.3-1,2-0.7c0.2,0.1,0.4,0.3,0.6,0.5l2.1,1.4c0.7,0.4,1,1.4,0.6,2.1C17.1,49.9,16.6,50.2,16.1,50.2z M11,45.2
					c-0.5,0-1-0.3-1.3-0.7c-0.5-0.9-0.9-1.9-1.2-2.9c-0.3-0.8,0.1-1.6,0.9-1.9c0.8-0.2,1.6,0.2,1.9,1c0.3,0.8,0.6,1.6,1,2.3
					c0.4,0.7,0.2,1.6-0.5,2C11.6,45.2,11.3,45.3,11,45.2z"/>
				<path style="fill:#68B9C3;" d="M41.7,51c-0.7,0.1-1.4-0.5-1.5-1.2c-0.1-0.8,0.4-1.5,1.2-1.7l1.5-0.2c0.8-0.3,1.6,0.1,1.9,0.9
					c0.3,0.8-0.1,1.6-0.9,1.9c-0.2,0.1-0.4,0.1-0.6,0.1L41.9,51L41.7,51z M9,38.4c-0.8,0-1.4-0.6-1.4-1.4c-0.1-0.5-0.1-1-0.2-1.5
					c0-0.2,0-0.4,0.1-0.5l0.6-1.8c0.2-0.7,1-1.2,1.7-1c0.1,0,0.1,0,0.2,0.1c0.7,0.3,1.1,1.1,0.9,1.9c-0.2,0.4-0.4,0.9-0.5,1.4
					c0,0.4,0.1,0.8,0.1,1.1c0.1,0.8-0.5,1.5-1.3,1.7L9,38.4z M26.8,32.1c-0.3,0-0.7-0.1-0.9-0.3c-0.7-0.5-0.8-1.4-0.3-2.1
					c0,0,0,0,0,0l0.6-1c0.2-0.3,0.3-0.7,0.4-1c0.2-0.8,0.9-1.3,1.7-1.2c0.8,0.2,1.3,0.9,1.2,1.7c-0.1,0.6-0.3,1.2-0.6,1.8
					c-0.3,0.6-0.6,1.1-1,1.5C27.7,31.9,27.2,32.1,26.8,32.1L26.8,32.1z M5.3,29.8c-0.4,0-0.8-0.1-1.1-0.4C3.8,29,3.4,28.5,3.1,28
					c-0.3-0.4-0.5-0.9-0.8-1.4c-0.3-0.8,0.2-1.6,1-1.9c0.6-0.2,1.3,0,1.6,0.5l0.7,1.2l0.8,1C6.9,28,6.9,29,6.3,29.5
					C6,29.7,5.7,29.8,5.3,29.8L5.3,29.8z M17.9,24.9c-0.6,0-1.2-0.4-1.4-1c-0.3-0.7,0-1.5,0.7-1.8c0.1,0,0.1,0,0.2-0.1
					c0.6-0.3,1.3-0.5,2-0.6h1.7c0.8,0,1.4,0.6,1.5,1.4c0,0.8-0.7,1.5-1.5,1.5h-1.2l-1.5,0.5L17.9,24.9z M6,4L5.2,3.8
					C4.6,3.3,4.4,2.4,4.8,1.7c0.3-0.5,0.6-0.9,1-1.3c0.6-0.6,1.5-0.6,2.1,0C8.4,1,8.5,1.7,8.1,2.3L7.2,3.4C6.9,3.8,6.5,4.1,6,4z"/>
			</g>
		</g>
	</g>
</g>
</svg>
