
<svg xmlns="http://www.w3.org/2000/svg" version="1.1" xmlns:xlink="http://www.w3.org/1999/xlink" preserveAspectRatio="none" x="0px" y="0px" width="1280px" height="720px" viewBox="0 0 1280 720">
<defs>
<g id="Layer0_0_FILL">
<path fill="#1E1E1E" stroke="none" d="
M 396.85 339.3
Q 397.15 338.85 396.6 338.85
L 393.65 338.85
Q 393.35 338.85 393.1 339.2 389.35 343.9 387.65 348.65 385.95 353.35 385.95 358.45 385.95 363.5 387.65 368.25 389.35 373 393.1 377.65 393.35 378 393.65 378
L 396.6 378
Q 396.9 378 396.95 377.85 397 377.7 396.85 377.55 393.6 372.5 392.1 367.8 390.6 363.15 390.6 358.45 390.6 353.75 392.15 349.05 393.65 344.35 396.85 339.3
M 183.8 513.2
Q 183.6 512.85 183.25 512.85
L 180.3 512.85
Q 179.8 512.85 180.05 513.3 183.25 518.35 184.8 523.05 186.3 527.75 186.3 532.45 186.3 537.15 184.8 541.8 183.3 546.5 180.05 551.55 179.95 551.7 180 551.85 180 552 180.3 552
L 183.25 552
Q 183.6 552 183.8 551.65 187.6 547 189.3 542.25 191 537.5 191 532.45 191 527.35 189.3 522.65 187.6 517.9 183.8 513.2
M 151 517.35
Q 150.4 517.95 150.05 518.75 149.7 519.55 149.7 520.4 149.7 521.35 150.05 522.1 150.4 522.9 151 523.5 151.6 524.05 152.4 524.4 153.15 524.75 154.1 524.75 155 524.75 155.8 524.4 156.6 524.05 157.2 523.45 157.75 522.85 158.1 522.1 158.45 521.3 158.45 520.4 158.45 519.55 158.1 518.75 157.75 518 157.15 517.35 156.55 516.8 155.75 516.45 154.95 516.1 154.05 516.1 153.1 516.1 152.35 516.45 151.55 516.8 151 517.35
M 152.85 519.2
Q 153.4 518.6 154.1 518.6 154.8 518.6 155.3 519.2 155.8 519.75 155.8 520.4
L 155.75 520.4
Q 155.75 521.1 155.25 521.65 154.75 522.2 154.05 522.2 153.35 522.2 152.85 521.65 152.3 521.1 152.3 520.4 152.3 519.75 152.85 519.2
M 173.15 528.5
L 177 528.5
Q 176.7 526.4 175.8 524.8 174.95 523.2 173.6 522.2 172.25 521.2 170.6 520.65 168.95 520.2 167.1 520.2 164.6 520.2 162.55 521.15 160.5 522.15 159.05 523.9 157.6 525.65 156.8 528.05 156 530.5 156 533.35 156 536.3 156.75 538.7 157.55 541.15 158.95 542.9 160.4 544.6 162.45 545.55 164.5 546.55 167.1 546.55 169.2 546.55 170.95 545.95 172.7 545.35 174.1 544.1 175.45 542.8 176.3 540.95 177.1 539.05 177.35 536.45
L 173.45 536.45
Q 173.05 539.85 171.5 541.4 169.95 542.9 167.1 542.9 163.6 542.9 161.75 540.35 159.95 537.8 159.95 533.35 159.95 531.1 160.45 529.3 160.95 527.55 161.9 526.3 162.9 525.1 164.25 524.45 165.55 523.8 167.15 523.8 169.5 523.8 171.05 524.85 172.65 526 173.15 528.5
M 145.55 512.85
Q 145.25 512.85 145 513.2 141.25 517.9 139.55 522.65 137.85 527.35 137.85 532.45 137.85 537.5 139.55 542.25 141.25 547 145 551.65 145.25 552 145.55 552
L 148.5 552
Q 148.8 552 148.85 551.85 148.9 551.7 148.75 551.55 145.5 546.5 144 541.8 142.5 537.15 142.5 532.45 142.5 527.75 144.05 523.05 145.55 518.35 148.75 513.3 149.05 512.85 148.5 512.85
L 145.55 512.85
M 100.1 539.25
Q 100.1 539 99.95 538.8 99.75 538.6 99.55 538.6
L 96.1 538.6
Q 95.9 538.6 95.7 538.8 95.5 539 95.5 539.25
L 95.5 547.05
Q 95.5 548.6 96.15 549.25 96.75 549.9 98.55 549.9
L 120.6 549.9
Q 120.8 549.9 121 549.75 121.2 549.65 121.2 549.4
L 121.2 546.55
Q 121.2 546.35 121 546.2 120.8 546.05 120.6 546.05
L 100.9 546.05
Q 100.45 546.05 100.3 545.95 100.1 545.85 100.1 545.4
L 100.1 539.25
M 125.75 535.4
L 125.75 532.8
Q 125.75 532.6 125.55 532.35 125.35 532.2 125.15 532.2
L 110.05 532.2 110.05 528.05
Q 112.35 527.9 114.3 527.3 116.3 526.75 117.65 525.85 119.05 524.95 119.8 523.7 120.6 522.45 120.6 520.85 120.6 519.15 119.65 517.75 118.75 516.4 117.05 515.45 115.35 514.55 113 514.05 110.65 513.55 107.85 513.55 105.05 513.55 102.65 514.05 100.35 514.55 98.65 515.45 96.95 516.4 95.95 517.75 95.05 519.15 95.05 520.85 95.05 522.45 95.8 523.65 96.55 524.9 97.95 525.85 99.25 526.75 101.2 527.3 103.1 527.85 105.45 528.05
L 105.45 532.2 90.35 532.2
Q 89.75 532.2 89.75 532.8
L 89.75 535.4
Q 89.75 535.6 89.9 535.85 90.05 536 90.35 536
L 125.15 536
Q 125.35 536 125.55 535.85 125.75 535.6 125.75 535.4
M 104.65 517.5
Q 106.1 517.2 107.85 517.2 109.55 517.2 111 517.5 112.5 517.75 113.55 518.2 114.6 518.7 115.2 519.4 115.8 520.05 115.8 520.85 115.8 521.65 115.2 522.3 114.6 523 113.55 523.45 112.5 523.95 111 524.2 109.55 524.45 107.85 524.45 106.1 524.45 104.65 524.2 103.15 523.95 102.1 523.45 101.05 523 100.45 522.3 99.85 521.65 99.85 520.85 99.85 520.05 100.45 519.4 101.05 518.7 102.1 518.2 103.15 517.75 104.65 517.5
M 81.8 512.85
Q 81.25 512.85 81.25 513.4
L 81.25 550.3
Q 81.25 550.85 81.8 550.85
L 85.35 550.85
Q 85.85 550.85 85.85 550.3
L 85.85 513.4
Q 85.85 512.85 85.35 512.85
L 81.8 512.85
M 75.05 518.85
Q 75.2 517.35 74.6 516.6 74.05 515.85 72.25 515.85
L 57.95 515.85
Q 57.35 515.85 57.35 516.35
L 57.35 519.15
Q 57.35 519.7 57.95 519.7
L 69.25 519.7
Q 70 519.7 70.2 519.95 70.45 520.2 70.3 521 69.25 526.5 65.65 531.1 62.05 535.7 56.1 539.25 55.85 539.4 55.75 539.7 55.65 540 55.85 540.3
L 57.2 542.45
Q 57.4 542.75 57.8 542.8 58.15 542.85 58.5 542.65 62 540.55 64.95 538.05 67.85 535.55 70 532.6 72.15 529.6 73.45 526.2 74.75 522.75 75.05 518.85
M 181.45 432.85
L 178.5 432.85
Q 178 432.85 178.25 433.3 181.45 438.35 183 443.05 184.5 447.75 184.5 452.45 184.5 457.15 183 461.8 181.5 466.5 178.25 471.55 178.15 471.7 178.2 471.85 178.2 472 178.5 472
L 181.45 472
Q 181.8 472 182 471.65 185.8 467 187.5 462.25 189.2 457.5 189.2 452.45 189.2 447.35 187.5 442.65 185.8 437.9 182 433.2 181.8 432.85 181.45 432.85
M 175.05 469.65
L 175.05 466.8
Q 175.05 466.65 174.9 466.45 174.7 466.3 174.5 466.3
L 155.65 466.3
Q 155.25 466.3 155.1 466.2 154.9 466.05 154.9 465.65
L 154.9 458.9
Q 154.9 458.65 154.75 458.5 154.55 458.3 154.3 458.3
L 150.85 458.3
Q 150.65 458.3 150.5 458.5 150.3 458.7 150.3 458.9
L 150.3 467.3
Q 150.3 468.85 150.9 469.5 151.55 470.15 153.4 470.15
L 174.55 470.15
Q 175.05 470.15 175.05 469.65
M 165 453.15
L 164.6 450.85
Q 164.55 450.6 164.4 450.45 164.2 450.3 163.9 450.4 162.4 450.6 160.65 450.75 158.9 450.9 157.1 451 155.35 451.05 153.65 451.1 151.95 451.1 150.65 451.05 150.25 451.05 150.1 450.95 149.95 450.85 149.95 450.4
L 149.95 435.2
Q 149.95 435.05 149.75 434.85 149.55 434.65 149.35 434.65
L 145.9 434.65
Q 145.7 434.65 145.55 434.85 145.35 435.05 145.35 435.2
L 145.35 451.8
Q 145.35 453 145.95 453.85 146.6 454.65 148.2 454.75 149.95 454.8 152.05 454.8 154.2 454.75 156.45 454.7 158.65 454.6 160.75 454.35 162.85 454.15 164.5 453.8 164.7 453.75 164.85 453.6 165 453.45 165 453.15
M 169.25 440.9
L 169.25 444.15 160.15 444.15
Q 159.95 444.15 159.75 444.3 159.55 444.45 159.55 444.65
L 159.55 447.25
Q 159.55 447.45 159.75 447.6 159.95 447.75 160.15 447.75
L 169.25 447.75 169.25 459.3
Q 169.25 459.5 169.45 459.65 169.6 459.8 169.85 459.8
L 173.35 459.8
Q 173.9 459.8 173.9 459.3
L 173.9 433.4
Q 173.9 432.85 173.35 432.85
L 169.85 432.85
Q 169.6 432.85 169.45 433 169.25 433.15 169.25 433.4
L 169.25 437.3 160.15 437.3
Q 159.95 437.3 159.75 437.45 159.55 437.6 159.55 437.8
L 159.55 440.4
Q 159.55 440.6 159.75 440.75 159.95 440.9 160.15 440.9
L 169.25 440.9
M 137.6 433.2
Q 133.85 437.9 132.15 442.65 130.45 447.35 130.45 452.45 130.45 457.5 132.15 462.25 133.85 467 137.6 471.65 137.85 472 138.15 472
L 141.1 472
Q 141.4 472 141.45 471.85 141.5 471.7 141.35 471.55 138.1 466.5 136.6 461.8 135.1 457.15 135.1 452.45 135.1 447.75 136.65 443.05 138.15 438.35 141.35 433.3 141.65 432.85 141.1 432.85
L 138.15 432.85
Q 137.85 432.85 137.6 433.2
M 121.65 439.35
Q 122.2 439.35 122.2 438.8
L 122.2 436
Q 122.2 435.5 121.65 435.5
L 99.7 435.5
Q 98.15 435.5 97.5 436.05 96.8 436.6 96.8 438.1
L 96.8 449.75
Q 96.8 451.2 97.5 452 98.25 452.8 99.85 452.8
L 107.3 452.8 107.3 460.5 92.15 460.5
Q 91.85 460.5 91.7 460.65 91.55 460.85 91.55 461.1
L 91.55 463.75
Q 91.55 463.95 91.7 464.15 91.85 464.35 92.15 464.35
L 126.95 464.35
Q 127.15 464.35 127.35 464.15 127.55 463.95 127.55 463.75
L 127.55 461.1
Q 127.55 460.9 127.35 460.7 127.15 460.5 126.95 460.5
L 111.85 460.5 111.85 452.8 122 452.8
Q 122.2 452.8 122.35 452.65 122.5 452.5 122.5 452.2
L 122.5 449.45
Q 122.5 449.15 122.3 449.05 122.15 448.95 121.85 448.95
L 102.15 448.95
Q 101.7 448.95 101.55 448.8 101.4 448.6 101.4 448.25
L 101.4 440.05
Q 101.4 439.35 102.15 439.35
L 121.65 439.35
M 88.4 469.65
L 88.4 466.8
Q 88.4 466.65 88.2 466.45 88 466.3 87.8 466.3
L 69.2 466.3
Q 68.8 466.3 68.65 466.2 68.5 466.05 68.5 465.65
L 68.5 458.65
Q 68.5 458.45 68.3 458.25 68.15 458.05 67.85 458.05
L 64.45 458.05
Q 64.25 458.05 64.05 458.25 63.9 458.45 63.9 458.65
L 63.9 467.3
Q 63.9 468.85 64.5 469.5 65.1 470.15 66.9 470.15
L 87.8 470.15
Q 88 470.15 88.2 470.05 88.4 469.9 88.4 469.65
M 87.2 433.4
Q 87.2 432.85 86.7 432.85
L 83.15 432.85
Q 82.6 432.85 82.6 433.4
L 82.6 438.6 74.9 438.6
Q 73.65 436.75 71.6 435.65 69.55 434.55 66.9 434.55 64.75 434.55 63 435.3 61.25 436.1 59.95 437.45 58.65 438.75 58 440.5 57.3 442.2 57.3 444.15 57.3 446.15 58 447.9 58.65 449.65 59.95 450.95 61.25 452.25 63 453 64.75 453.75 66.9 453.75 69.2 453.75 71 452.95 72.85 452.2 74.15 450.8
L 82.6 450.8 82.6 459.35
Q 82.6 459.85 83.15 459.85
L 86.7 459.85
Q 87.2 459.85 87.2 459.35
L 87.2 433.4
M 82.6 442.2
L 82.6 447.1 76.3 447.1
Q 76.7 445.65 76.7 444.15 76.7 443.65 76.65 443.15 76.6 442.7 76.5 442.2
L 82.6 442.2
M 66.9 438.6
Q 68.15 438.6 69.1 439.05 70.05 439.5 70.75 440.25 71.45 441 71.8 442 72.2 443 72.2 444.25 72.2 445.4 71.8 446.45 71.45 447.5 70.75 448.25 70.05 449 69.1 449.45 68.15 449.9 66.9 449.9 65.75 449.9 64.8 449.45 63.85 449 63.15 448.25 62.5 447.5 62.1 446.45 61.7 445.4 61.7 444.25 61.7 443 62.1 442 62.5 441 63.15 440.25 63.85 439.5 64.8 439.05 65.75 438.6 66.9 438.6
M 871.45 364.8
Q 871.25 364.6 871.05 364.6
L 867.6 364.6
Q 867.4 364.6 867.2 364.8 867 365 867 365.25
L 867 373.05
Q 867 374.6 867.65 375.25 868.25 375.9 870.05 375.9
L 892.1 375.9
Q 892.3 375.9 892.5 375.75 892.7 375.65 892.7 375.4
L 892.7 372.55
Q 892.7 372.35 892.5 372.2 892.3 372.05 892.1 372.05
L 872.4 372.05
Q 871.95 372.05 871.8 371.95 871.6 371.85 871.6 371.4
L 871.6 365.25
Q 871.6 365 871.45 364.8
M 846.05 344.85
Q 846.2 343.35 845.6 342.6 845.05 341.85 843.25 341.85
L 828.95 341.85
Q 828.35 341.85 828.35 342.35
L 828.35 345.15
Q 828.35 345.7 828.95 345.7
L 840.25 345.7
Q 841 345.7 841.2 345.95 841.45 346.2 841.3 347 840.25 352.5 836.65 357.1 833.05 361.7 827.1 365.25 826.85 365.4 826.75 365.7 826.65 366 826.85 366.3
L 828.2 368.45
Q 828.4 368.75 828.8 368.8 829.15 368.85 829.5 368.65 833 366.55 835.95 364.05 838.85 361.55 841 358.6 843.15 355.6 844.45 352.2 845.75 348.75 846.05 344.85
M 870.15 341.45
Q 868.45 342.4 867.45 343.75 866.55 345.15 866.55 346.85 866.55 348.45 867.3 349.65 868.05 350.9 869.45 351.85 870.75 352.75 872.7 353.3 874.6 353.85 876.95 354.05
L 876.95 358.2 861.85 358.2
Q 861.25 358.2 861.25 358.8
L 861.25 361.4
Q 861.25 361.6 861.4 361.85 861.55 362 861.85 362
L 896.65 362
Q 896.85 362 897.05 361.85 897.25 361.6 897.25 361.4
L 897.25 358.8
Q 897.25 358.6 897.05 358.35 896.85 358.2 896.65 358.2
L 881.55 358.2 881.55 354.05
Q 883.85 353.9 885.8 353.3 887.8 352.75 889.15 351.85 890.55 350.95 891.3 349.7 892.1 348.45 892.1 346.85 892.1 345.15 891.15 343.75 890.25 342.4 888.55 341.45 886.85 340.55 884.5 340.05 882.15 339.55 879.35 339.55 876.55 339.55 874.15 340.05 871.85 340.55 870.15 341.45
M 871.95 345.4
Q 872.55 344.7 873.6 344.2 874.65 343.75 876.15 343.5 877.6 343.2 879.35 343.2 881.05 343.2 882.5 343.5 884 343.75 885.05 344.2 886.1 344.7 886.7 345.4 887.3 346.05 887.3 346.85 887.3 347.65 886.7 348.3 886.1 349 885.05 349.45 884 349.95 882.5 350.2 881.05 350.45 879.35 350.45 877.6 350.45 876.15 350.2 874.65 349.95 873.6 349.45 872.55 349 871.95 348.3 871.35 347.65 871.35 346.85 871.35 346.05 871.95 345.4
M 852.8 338.85
Q 852.25 338.85 852.25 339.4
L 852.25 376.3
Q 852.25 376.85 852.8 376.85
L 856.35 376.85
Q 856.85 376.85 856.85 376.3
L 856.85 339.4
Q 856.85 338.85 856.35 338.85
L 852.8 338.85
M 791.8 368.35
Q 795.1 368.15 798.1 367.85 801.1 367.6 803.35 367.25 803.55 367.2 803.7 367.05 803.9 366.85 803.85 366.55
L 803.6 363.95
Q 803.6 363.65 803.3 363.55 803.05 363.5 802.85 363.55 800.4 363.85 797.4 364.1 794.45 364.4 791.3 364.55 788.15 364.7 785.05 364.8 781.85 364.85 779 364.8 778.75 364.8 778.6 364.95 778.45 365.15 778.45 365.4
L 778.45 368.1
Q 778.45 368.35 778.6 368.55 778.75 368.7 779 368.7 781.85 368.75 785.2 368.65 788.5 368.55 791.8 368.35
M 757.9 339.2
Q 757.7 338.85 757.35 338.85
L 754.4 338.85
Q 753.9 338.85 754.15 339.3 757.35 344.35 758.9 349.05 760.4 353.75 760.4 358.45 760.4 363.15 758.9 367.8 757.4 372.5 754.15 377.55 754.05 377.7 754.1 377.85 754.1 378 754.4 378
L 757.35 378
Q 757.7 378 757.9 377.65 761.7 373 763.4 368.25 765.1 363.5 765.1 358.45 765.1 353.35 763.4 348.65 761.7 343.9 757.9 339.2
M 805.65 339
Q 805.45 339.15 805.45 339.4
L 805.45 376.3
Q 805.45 376.55 805.65 376.65 805.8 376.85 806.05 376.85
L 809.55 376.85
Q 810.1 376.85 810.1 376.3
L 810.1 339.4
Q 810.1 338.85 809.55 338.85
L 806.05 338.85
Q 805.8 338.85 805.65 339
M 786.65 341.85
Q 784.9 342.5 783.6 343.7 782.3 344.95 781.55 346.65 780.75 348.35 780.75 350.45 780.75 352.6 781.55 354.3 782.3 356 783.6 357.15 784.9 358.35 786.65 359 788.45 359.6 790.45 359.6 792.55 359.6 794.35 359 796.1 358.35 797.4 357.15 798.75 356 799.5 354.3 800.25 352.6 800.25 350.45 800.25 348.35 799.5 346.65 798.75 344.95 797.4 343.7 796.1 342.5 794.35 341.85 792.55 341.2 790.5 341.2 788.45 341.2 786.65 341.85
M 790.5 344.95
Q 792.85 344.95 794.35 346.45 795.8 347.95 795.8 350.45 795.8 353 794.35 354.5 792.85 356 790.5 356 788.2 356 786.75 354.5 785.25 353 785.25 350.45 785.25 347.95 786.75 346.45 788.2 344.95 790.5 344.95 Z"/>

<path fill="#FFFFFF" stroke="none" d="
M 549 490.7
L 540.05 490.7 508 490.7 481 490.7 434 490.7 434 570.7 481 570.7 508 570.7 540.05 570.7 549 570.7 549 490.7
M 549 410.6
L 540.05 410.6 508 410.6 481 410.6 434 410.6 434 490.7 481 490.7 508 490.7 540.05 490.7 549 490.7 549 410.6
M 319 490.7
L 319 570.7 341 570.7 434 570.7 434 490.7 341 490.7 319 490.7
M 319 410.6
L 319 490.7 341 490.7 434 490.7 434 410.6 341 410.6 319 410.6
M 319 490.7
L 284 490.7 204 490.7 204 570.7 284 570.7 319 570.7 319 490.7
M 319 410.6
L 284 410.6 204 410.6 204 490.7 284 490.7 319 490.7 319 410.6
M 1124 490.7
L 1065.4 490.7 1041 490.7 1034 490.7 1009 490.7 1009 570.7 1034 570.7 1041 570.7 1065.4 570.7 1124 570.7 1124 490.7
M 1124 490.7
L 1124 410.6 1065.4 410.6 1041 410.6 1034 410.6 1009 410.6 1009 490.7 1034 490.7 1041 490.7 1065.4 490.7 1124 490.7
M 1240.1 490.7
L 1239.95 490.7 1124 490.7 1124 570.7 1220.1 570.7
Q 1238.3 570.7 1239.95 554.15
L 1240.1 510.7 1240.1 490.7
M 1240.1 430.6
Q 1240.1 429.05 1239.95 427.3 1238.45 410.6 1220.1 410.6
L 1124 410.6 1124 490.7 1239.95 490.7 1240.1 490.7 1240.1 430.6
M 664 570.7
L 664 490.7 621 490.7 584 490.7 549 490.7 549 570.7 584 570.7 621 570.7 664 570.7
M 664 490.7
L 664 410.6 621 410.6 584 410.6 549 410.6 549 490.7 584 490.7 621 490.7 664 490.7
M 761 490.7
L 734 490.7 732 490.7 664 490.7 664 570.7 732 570.7 734 570.7 761 570.7 779 570.7 779 490.7 761 490.7
M 761 410.6
L 734 410.6 732 410.6 664 410.6 664 490.7 732 490.7 734 490.7 761 490.7 779 490.7 779 410.6 761 410.6
M 894 570.7
L 894 490.7 884 490.7 799.05 490.7 790.05 490.7 779 490.7 779 570.7 790.05 570.7 799.05 570.7 884 570.7 894 570.7
M 894 490.7
L 894 410.6 884 410.6 799.05 410.6 779 410.6 779 490.7 790.05 490.7 799.05 490.7 884 490.7 894 490.7
M 901 490.7
L 894 490.7 894 570.7 901 570.7 956 570.7 990.4 570.7 1009 570.7 1009 490.7 990.4 490.7 956 490.7 901 490.7
M 901 410.6
L 894 410.6 894 490.7 901 490.7 956 490.7 990.4 490.7 1009 490.7 1009 410.6 990.4 410.6 956 410.6 901 410.6
M 730 373
L 730 342.95
Q 730 327.95 715 327.95
L 425 327.95
Q 410 327.95 410 342.95
L 410 373
Q 410 388 425 388
L 715 388
Q 730 388 730 373 Z"/>

<path fill="#E2F3F2" stroke="none" d="
M 201 490.7
L 179 490.7 75 490.7 40.95 490.7 40.95 510.7 41.05 552.9
Q 42.1 570.7 60.95 570.7
L 75 570.7 179 570.7 201 570.7 204 570.7 204 490.7 201 490.7
M 74.6 516.6
Q 75.2 517.35 75.05 518.85 74.75 522.75 73.45 526.2 72.15 529.6 70 532.6 67.85 535.55 64.95 538.05 62 540.55 58.5 542.65 58.15 542.85 57.8 542.8 57.4 542.75 57.2 542.45
L 55.85 540.3
Q 55.65 540 55.75 539.7 55.85 539.4 56.1 539.25 62.05 535.7 65.65 531.1 69.25 526.5 70.3 521 70.45 520.2 70.2 519.95 70 519.7 69.25 519.7
L 57.95 519.7
Q 57.35 519.7 57.35 519.15
L 57.35 516.35
Q 57.35 515.85 57.95 515.85
L 72.25 515.85
Q 74.05 515.85 74.6 516.6
M 81.25 513.4
Q 81.25 512.85 81.8 512.85
L 85.35 512.85
Q 85.85 512.85 85.85 513.4
L 85.85 550.3
Q 85.85 550.85 85.35 550.85
L 81.8 550.85
Q 81.25 550.85 81.25 550.3
L 81.25 513.4
M 125.75 532.8
L 125.75 535.4
Q 125.75 535.6 125.55 535.85 125.35 536 125.15 536
L 90.35 536
Q 90.05 536 89.9 535.85 89.75 535.6 89.75 535.4
L 89.75 532.8
Q 89.75 532.2 90.35 532.2
L 105.45 532.2 105.45 528.05
Q 103.1 527.85 101.2 527.3 99.25 526.75 97.95 525.85 96.55 524.9 95.8 523.65 95.05 522.45 95.05 520.85 95.05 519.15 95.95 517.75 96.95 516.4 98.65 515.45 100.35 514.55 102.65 514.05 105.05 513.55 107.85 513.55 110.65 513.55 113 514.05 115.35 514.55 117.05 515.45 118.75 516.4 119.65 517.75 120.6 519.15 120.6 520.85 120.6 522.45 119.8 523.7 119.05 524.95 117.65 525.85 116.3 526.75 114.3 527.3 112.35 527.9 110.05 528.05
L 110.05 532.2 125.15 532.2
Q 125.35 532.2 125.55 532.35 125.75 532.6 125.75 532.8
M 99.95 538.8
Q 100.1 539 100.1 539.25
L 100.1 545.4
Q 100.1 545.85 100.3 545.95 100.45 546.05 100.9 546.05
L 120.6 546.05
Q 120.8 546.05 121 546.2 121.2 546.35 121.2 546.55
L 121.2 549.4
Q 121.2 549.65 121 549.75 120.8 549.9 120.6 549.9
L 98.55 549.9
Q 96.75 549.9 96.15 549.25 95.5 548.6 95.5 547.05
L 95.5 539.25
Q 95.5 539 95.7 538.8 95.9 538.6 96.1 538.6
L 99.55 538.6
Q 99.75 538.6 99.95 538.8
M 145 513.2
Q 145.25 512.85 145.55 512.85
L 148.5 512.85
Q 149.05 512.85 148.75 513.3 145.55 518.35 144.05 523.05 142.5 527.75 142.5 532.45 142.5 537.15 144 541.8 145.5 546.5 148.75 551.55 148.9 551.7 148.85 551.85 148.8 552 148.5 552
L 145.55 552
Q 145.25 552 145 551.65 141.25 547 139.55 542.25 137.85 537.5 137.85 532.45 137.85 527.35 139.55 522.65 141.25 517.9 145 513.2
M 177 528.5
L 173.15 528.5
Q 172.65 526 171.05 524.85 169.5 523.8 167.15 523.8 165.55 523.8 164.25 524.45 162.9 525.1 161.9 526.3 160.95 527.55 160.45 529.3 159.95 531.1 159.95 533.35 159.95 537.8 161.75 540.35 163.6 542.9 167.1 542.9 169.95 542.9 171.5 541.4 173.05 539.85 173.45 536.45
L 177.35 536.45
Q 177.1 539.05 176.3 540.95 175.45 542.8 174.1 544.1 172.7 545.35 170.95 545.95 169.2 546.55 167.1 546.55 164.5 546.55 162.45 545.55 160.4 544.6 158.95 542.9 157.55 541.15 156.75 538.7 156 536.3 156 533.35 156 530.5 156.8 528.05 157.6 525.65 159.05 523.9 160.5 522.15 162.55 521.15 164.6 520.2 167.1 520.2 168.95 520.2 170.6 520.65 172.25 521.2 173.6 522.2 174.95 523.2 175.8 524.8 176.7 526.4 177 528.5
M 150.05 518.75
Q 150.4 517.95 151 517.35 151.55 516.8 152.35 516.45 153.1 516.1 154.05 516.1 154.95 516.1 155.75 516.45 156.55 516.8 157.15 517.35 157.75 518 158.1 518.75 158.45 519.55 158.45 520.4 158.45 521.3 158.1 522.1 157.75 522.85 157.2 523.45 156.6 524.05 155.8 524.4 155 524.75 154.1 524.75 153.15 524.75 152.4 524.4 151.6 524.05 151 523.5 150.4 522.9 150.05 522.1 149.7 521.35 149.7 520.4 149.7 519.55 150.05 518.75
M 183.25 512.85
Q 183.6 512.85 183.8 513.2 187.6 517.9 189.3 522.65 191 527.35 191 532.45 191 537.5 189.3 542.25 187.6 547 183.8 551.65 183.6 552 183.25 552
L 180.3 552
Q 180 552 180 551.85 179.95 551.7 180.05 551.55 183.3 546.5 184.8 541.8 186.3 537.15 186.3 532.45 186.3 527.75 184.8 523.05 183.25 518.35 180.05 513.3 179.8 512.85 180.3 512.85
L 183.25 512.85
M 154.1 518.6
Q 153.4 518.6 152.85 519.2 152.3 519.75 152.3 520.4 152.3 521.1 152.85 521.65 153.35 522.2 154.05 522.2 154.75 522.2 155.25 521.65 155.75 521.1 155.75 520.4
L 155.8 520.4
Q 155.8 519.75 155.3 519.2 154.8 518.6 154.1 518.6
M 107.85 517.2
Q 106.1 517.2 104.65 517.5 103.15 517.75 102.1 518.2 101.05 518.7 100.45 519.4 99.85 520.05 99.85 520.85 99.85 521.65 100.45 522.3 101.05 523 102.1 523.45 103.15 523.95 104.65 524.2 106.1 524.45 107.85 524.45 109.55 524.45 111 524.2 112.5 523.95 113.55 523.45 114.6 523 115.2 522.3 115.8 521.65 115.8 520.85 115.8 520.05 115.2 519.4 114.6 518.7 113.55 518.2 112.5 517.75 111 517.5 109.55 517.2 107.85 517.2
M 201 410.6
L 179 410.6 77 410.6 75 410.6 60.95 410.6
Q 48.3 410.6 43.65 418.6 40.95 423.25 40.95 430.6
L 40.95 447.1 40.95 450.65 40.95 490.7 75 490.7 179 490.7 201 490.7 204 490.7 204 410.6 201 410.6
M 86.7 432.85
Q 87.2 432.85 87.2 433.4
L 87.2 459.35
Q 87.2 459.85 86.7 459.85
L 83.15 459.85
Q 82.6 459.85 82.6 459.35
L 82.6 450.8 74.15 450.8
Q 72.85 452.2 71 452.95 69.2 453.75 66.9 453.75 64.75 453.75 63 453 61.25 452.25 59.95 450.95 58.65 449.65 58 447.9 57.3 446.15 57.3 444.15 57.3 442.2 58 440.5 58.65 438.75 59.95 437.45 61.25 436.1 63 435.3 64.75 434.55 66.9 434.55 69.55 434.55 71.6 435.65 73.65 436.75 74.9 438.6
L 82.6 438.6 82.6 433.4
Q 82.6 432.85 83.15 432.85
L 86.7 432.85
M 88.4 466.8
L 88.4 469.65
Q 88.4 469.9 88.2 470.05 88 470.15 87.8 470.15
L 66.9 470.15
Q 65.1 470.15 64.5 469.5 63.9 468.85 63.9 467.3
L 63.9 458.65
Q 63.9 458.45 64.05 458.25 64.25 458.05 64.45 458.05
L 67.85 458.05
Q 68.15 458.05 68.3 458.25 68.5 458.45 68.5 458.65
L 68.5 465.65
Q 68.5 466.05 68.65 466.2 68.8 466.3 69.2 466.3
L 87.8 466.3
Q 88 466.3 88.2 466.45 88.4 466.65 88.4 466.8
M 122.2 438.8
Q 122.2 439.35 121.65 439.35
L 102.15 439.35
Q 101.4 439.35 101.4 440.05
L 101.4 448.25
Q 101.4 448.6 101.55 448.8 101.7 448.95 102.15 448.95
L 121.85 448.95
Q 122.15 448.95 122.3 449.05 122.5 449.15 122.5 449.45
L 122.5 452.2
Q 122.5 452.5 122.35 452.65 122.2 452.8 122 452.8
L 111.85 452.8 111.85 460.5 126.95 460.5
Q 127.15 460.5 127.35 460.7 127.55 460.9 127.55 461.1
L 127.55 463.75
Q 127.55 463.95 127.35 464.15 127.15 464.35 126.95 464.35
L 92.15 464.35
Q 91.85 464.35 91.7 464.15 91.55 463.95 91.55 463.75
L 91.55 461.1
Q 91.55 460.85 91.7 460.65 91.85 460.5 92.15 460.5
L 107.3 460.5 107.3 452.8 99.85 452.8
Q 98.25 452.8 97.5 452 96.8 451.2 96.8 449.75
L 96.8 438.1
Q 96.8 436.6 97.5 436.05 98.15 435.5 99.7 435.5
L 121.65 435.5
Q 122.2 435.5 122.2 436
L 122.2 438.8
M 132.15 442.65
Q 133.85 437.9 137.6 433.2 137.85 432.85 138.15 432.85
L 141.1 432.85
Q 141.65 432.85 141.35 433.3 138.15 438.35 136.65 443.05 135.1 447.75 135.1 452.45 135.1 457.15 136.6 461.8 138.1 466.5 141.35 471.55 141.5 471.7 141.45 471.85 141.4 472 141.1 472
L 138.15 472
Q 137.85 472 137.6 471.65 133.85 467 132.15 462.25 130.45 457.5 130.45 452.45 130.45 447.35 132.15 442.65
M 169.25 444.15
L 169.25 440.9 160.15 440.9
Q 159.95 440.9 159.75 440.75 159.55 440.6 159.55 440.4
L 159.55 437.8
Q 159.55 437.6 159.75 437.45 159.95 437.3 160.15 437.3
L 169.25 437.3 169.25 433.4
Q 169.25 433.15 169.45 433 169.6 432.85 169.85 432.85
L 173.35 432.85
Q 173.9 432.85 173.9 433.4
L 173.9 459.3
Q 173.9 459.8 173.35 459.8
L 169.85 459.8
Q 169.6 459.8 169.45 459.65 169.25 459.5 169.25 459.3
L 169.25 447.75 160.15 447.75
Q 159.95 447.75 159.75 447.6 159.55 447.45 159.55 447.25
L 159.55 444.65
Q 159.55 444.45 159.75 444.3 159.95 444.15 160.15 444.15
L 169.25 444.15
M 164.6 450.85
L 165 453.15
Q 165 453.45 164.85 453.6 164.7 453.75 164.5 453.8 162.85 454.15 160.75 454.35 158.65 454.6 156.45 454.7 154.2 454.75 152.05 454.8 149.95 454.8 148.2 454.75 146.6 454.65 145.95 453.85 145.35 453 145.35 451.8
L 145.35 435.2
Q 145.35 435.05 145.55 434.85 145.7 434.65 145.9 434.65
L 149.35 434.65
Q 149.55 434.65 149.75 434.85 149.95 435.05 149.95 435.2
L 149.95 450.4
Q 149.95 450.85 150.1 450.95 150.25 451.05 150.65 451.05 151.95 451.1 153.65 451.1 155.35 451.05 157.1 451 158.9 450.9 160.65 450.75 162.4 450.6 163.9 450.4 164.2 450.3 164.4 450.45 164.55 450.6 164.6 450.85
M 175.05 466.8
L 175.05 469.65
Q 175.05 470.15 174.55 470.15
L 153.4 470.15
Q 151.55 470.15 150.9 469.5 150.3 468.85 150.3 467.3
L 150.3 458.9
Q 150.3 458.7 150.5 458.5 150.65 458.3 150.85 458.3
L 154.3 458.3
Q 154.55 458.3 154.75 458.5 154.9 458.65 154.9 458.9
L 154.9 465.65
Q 154.9 466.05 155.1 466.2 155.25 466.3 155.65 466.3
L 174.5 466.3
Q 174.7 466.3 174.9 466.45 175.05 466.65 175.05 466.8
M 178.5 432.85
L 181.45 432.85
Q 181.8 432.85 182 433.2 185.8 437.9 187.5 442.65 189.2 447.35 189.2 452.45 189.2 457.5 187.5 462.25 185.8 467 182 471.65 181.8 472 181.45 472
L 178.5 472
Q 178.2 472 178.2 471.85 178.15 471.7 178.25 471.55 181.5 466.5 183 461.8 184.5 457.15 184.5 452.45 184.5 447.75 183 443.05 181.45 438.35 178.25 433.3 178 432.85 178.5 432.85
M 69.1 439.05
Q 68.15 438.6 66.9 438.6 65.75 438.6 64.8 439.05 63.85 439.5 63.15 440.25 62.5 441 62.1 442 61.7 443 61.7 444.25 61.7 445.4 62.1 446.45 62.5 447.5 63.15 448.25 63.85 449 64.8 449.45 65.75 449.9 66.9 449.9 68.15 449.9 69.1 449.45 70.05 449 70.75 448.25 71.45 447.5 71.8 446.45 72.2 445.4 72.2 444.25 72.2 443 71.8 442 71.45 441 70.75 440.25 70.05 439.5 69.1 439.05
M 82.6 447.1
L 82.6 442.2 76.5 442.2
Q 76.6 442.7 76.65 443.15 76.7 443.65 76.7 444.15 76.7 445.65 76.3 447.1
L 82.6 447.1 Z"/>
</g>

<path id="Layer0_0_1_STROKES" stroke="#DBDBDB" stroke-width="3" stroke-linejoin="round" stroke-linecap="round" fill="none" d="
M 425 327.95
L 715 327.95
Q 730 327.95 730 342.95
L 730 373
Q 730 388 715 388
L 425 388
Q 410 388 410 373
L 410 342.95
Q 410 327.95 425 327.95 Z"/>

<path id="Layer0_0_2_STROKES" stroke="#86BA9E" stroke-width="3" stroke-linejoin="round" stroke-linecap="round" fill="none" d="
M 204 410.6
L 284 410.6 319 410.6 341 410.6 434 410.6 481 410.6 508 410.6 540.05 410.6 549 410.6 584 410.6 621 410.6 664 410.6 732 410.6 734 410.6 761 410.6 779 410.6 799.05 410.6 884 410.6 894 410.6 901 410.6 956 410.6 990.4 410.6 1009 410.6 1034 410.6 1041 410.6 1065.4 410.6 1124 410.6 1220.1 410.6
Q 1238.45 410.6 1239.95 427.3 1240.1 429.05 1240.1 430.6
L 1240.1 490.7 1240.1 510.7 1239.95 554.15
Q 1238.3 570.7 1220.1 570.7
L 1124 570.7 1065.4 570.7 1041 570.7 1034 570.7 1009 570.7 990.4 570.7 956 570.7 901 570.7 894 570.7 884 570.7 799.05 570.7 790.05 570.7 779 570.7 761 570.7 734 570.7 732 570.7 664 570.7 621 570.7 584 570.7 549 570.7 540.05 570.7 508 570.7 481 570.7 434 570.7 341 570.7 319 570.7 284 570.7 204 570.7 201 570.7 179 570.7 75 570.7 60.95 570.7
Q 42.1 570.7 41.05 552.9
L 40.95 510.7 40.95 490.7 40.95 450.65 40.95 447.1 40.95 430.6
Q 40.95 423.25 43.65 418.6 48.3 410.6 60.95 410.6
L 75 410.6 77 410.6 179 410.6 201 410.6 204 410.6 Z"/>

<path id="Layer0_0_3_STROKES" stroke="#86BA9E" stroke-width="2" stroke-linejoin="round" stroke-linecap="round" fill="none" d="
M 204 410.6
L 204 490.7 284 490.7 319 490.7 319 410.6
M 894 410.6
L 894 490.7 901 490.7 956 490.7 990.4 490.7 1009 490.7 1009 410.6
M 894 490.7
L 894 570.7
M 779 410.6
L 779 490.7 790.05 490.7 799.05 490.7 884 490.7 894 490.7
M 664 410.6
L 664 490.7 732 490.7 734 490.7 761 490.7 779 490.7 779 570.7
M 664 490.7
L 664 570.7
M 1124 410.6
L 1124 490.7 1239.95 490.7 1240.1 490.7
M 1009 490.7
L 1034 490.7 1041 490.7 1065.4 490.7 1124 490.7 1124 570.7
M 1009 490.7
L 1009 570.7
M 40.95 490.7
L 75 490.7 179 490.7 201 490.7 204 490.7 204 570.7
M 434 570.7
L 434 490.7 341 490.7 319 490.7 319 570.7
M 549 410.6
L 549 490.7 584 490.7 621 490.7 664 490.7
M 434 410.6
L 434 490.7 481 490.7 508 490.7 540.05 490.7 549 490.7 549 570.7"/>
</defs>

<g transform="matrix( 1, 0, 0, 1, 0,0) ">
<use xlink:href="#Layer0_0_FILL"/>

<use xlink:href="#Layer0_0_1_STROKES"/>

<use xlink:href="#Layer0_0_2_STROKES"/>

<use xlink:href="#Layer0_0_3_STROKES"/>
</g>
</svg>
