
<svg xmlns="http://www.w3.org/2000/svg" version="1.1" xmlns:xlink="http://www.w3.org/1999/xlink" preserveAspectRatio="none" x="0px" y="0px" width="1280px" height="720px" viewBox="0 0 1280 720">
<defs>
<g id="Layer0_0_FILL">
<path fill="#1E1E1E" stroke="none" d="
M 814.75 238.25
Q 814.6 238.35 814.6 238.8
L 814.4 253.55
Q 814.4 254.9 815.95 254.25 817.2 253.8 818.6 253.55 820 253.25 821.3 253.25 824.6 253.25 826 254.8 827.45 256.3 827.45 258.9 827.45 261.6 825.65 263.1 823.95 264.65 821.25 264.65 820.55 264.65 819.7 264.55 818.9 264.5 818.05 264.35 817.2 264.15 816.4 263.95 815.6 263.7 815.05 263.4 814.2 263 814.2 263.7
L 814.2 266.95
Q 814.2 267.25 814.2 267.4 814.25 267.5 814.5 267.7 815.15 268 816.1 268.2 817 268.45 817.95 268.6 818.9 268.7 819.7 268.8 820.55 268.85 820.95 268.85 823.25 268.85 825.3 268.2 827.4 267.55 828.8 266.25 831.95 263.45 831.95 258.4 831.95 256.3 831.2 254.65 830.45 252.95 829.15 251.75 827.85 250.6 826.1 249.95 824.35 249.35 822.35 249.35 820.4 249.35 818.8 249.7
L 818.95 242.3 830.1 242.3
Q 830.35 242.3 830.5 242.1 830.6 241.95 830.6 241.7
L 830.6 238.65
Q 830.6 238.45 830.5 238.3 830.35 238.1 830.1 238.1
L 815.45 238.1
Q 814.85 238.1 814.75 238.25
M 745.35 244.05
Q 745.15 244.25 745.15 244.45 745.1 244.7 745.25 244.85
L 747.05 247
Q 747.2 247.15 747.45 247.1 747.7 247.1 747.95 246.95
L 750.9 244.35 750.9 268.05
Q 750.9 268.55 751.45 268.55
L 754.65 268.55
Q 755.15 268.55 755.15 268.05
L 755.15 239.25
Q 755.15 238.45 755 238.3 754.9 238.15 754.2 238.15
L 752.1 238.15
Q 751.95 238.15 751.75 238.25 751.55 238.3 751.5 238.4
L 745.35 244.05
M 777.25 246.3
Q 777.25 246.55 777.45 246.75
L 784.7 253.9 777.15 261.45
Q 776.95 261.65 776.95 261.95 776.95 262.2 777.15 262.4
L 778.85 264.1
Q 779.15 264.6 779.75 264.1
L 787.3 256.6 794.75 264.1
Q 794.95 264.25 795.25 264.25 795.5 264.25 795.7 264.1
L 797.35 262.3
Q 797.6 262.1 797.6 261.9 797.6 261.65 797.35 261.45
L 789.9 253.95 797.15 246.65
Q 797.35 246.5 797.35 246.2 797.35 245.9 797.15 245.7
L 795.55 244
Q 795.35 243.8 795.1 243.8 794.85 243.8 794.65 244
L 787.35 251.25 780.1 244.1
Q 779.65 243.65 779.15 244.1
L 777.45 245.85
Q 777.25 246.1 777.25 246.3
M 736.55 245.5
Q 736.55 243.5 735.7 242 734.85 240.5 733.5 239.6 732.2 238.7 730.45 238.25 728.7 237.8 726.9 237.8 725.2 237.8 723.55 238.15 721.85 238.55 720.1 239.15 719.7 239.35 719.55 239.55 719.4 239.7 719.5 239.95
L 719.85 242.9
Q 719.95 243.25 720.15 243.35 720.35 243.45 720.85 243.25 721.45 243 722.25 242.75 723.05 242.5 723.85 242.35 724.65 242.15 725.4 242.05 726.1 241.95 726.65 241.95 727.5 241.95 728.45 242.15 729.4 242.35 730.25 242.85 731.05 243.3 731.6 244.1 732.1 244.85 732.1 245.85 732.1 247.2 731.3 248.1 730.5 249.05 729.3 249.65 728.15 250.25 726.9 250.5 725.65 250.75 724.8 250.75
L 722.9 250.75
Q 722.55 250.75 722.45 250.85 722.35 250.9 722.35 251.3
L 722.35 254.25
Q 722.35 254.55 722.45 254.65 722.55 254.75 722.9 254.75
L 724.85 254.75
Q 726.8 254.75 728.15 255.15 729.55 255.5 730.45 256.2 731.3 256.85 731.75 257.7 732.15 258.55 732.15 259.5 732.15 262.15 730.2 263.5 729.55 263.95 728.8 264.2 728 264.5 727.15 264.6 726.3 264.7 725.4 264.65 724.5 264.6 723.7 264.55 722.6 264.45 721.55 264.15 720.5 263.85 719.45 263.55 718.9 263.3 718.7 263.45 718.5 263.55 718.45 263.9
L 718.1 266.95
Q 718.05 267.3 718.25 267.45 718.4 267.65 718.8 267.75 720.25 268.3 722 268.6 723.75 268.9 725.5 268.9 727.8 268.9 729.95 268.3 732.1 267.75 733.6 266.5 735.1 265.25 735.95 263.5 736.75 261.7 736.75 259.6 736.75 257.4 735.4 255.6 734.05 253.85 731.4 252.7 732.5 252.2 733.45 251.45 734.4 250.7 735.1 249.7 735.8 248.75 736.2 247.7 736.55 246.6 736.55 245.5
M 415 238.25
Q 413.25 237.8 411.45 237.8 409.75 237.8 408.1 238.15 406.4 238.55 404.65 239.15 404.25 239.35 404.1 239.55 403.95 239.7 404.05 239.95
L 404.4 242.9
Q 404.5 243.25 404.7 243.35 404.9 243.45 405.4 243.25 406 243 406.8 242.75 407.6 242.5 408.4 242.35 409.2 242.15 409.95 242.05 410.65 241.95 411.2 241.95 412.05 241.95 413 242.15 413.95 242.35 414.8 242.85 415.6 243.3 416.15 244.1 416.65 244.85 416.65 245.85 416.65 247.2 415.85 248.1 415.05 249.05 413.85 249.65 412.7 250.25 411.45 250.5 410.2 250.75 409.35 250.75
L 407.45 250.75
Q 407.1 250.75 407 250.85 406.9 250.9 406.9 251.3
L 406.9 254.25
Q 406.9 254.55 407 254.65 407.1 254.75 407.45 254.75
L 409.4 254.75
Q 411.35 254.75 412.7 255.15 414.1 255.5 415 256.2 415.85 256.85 416.3 257.7 416.7 258.55 416.7 259.5 416.7 262.15 414.75 263.5 414.1 263.95 413.35 264.2 412.55 264.5 411.7 264.6 410.85 264.7 409.95 264.65 409.05 264.6 408.25 264.55 407.15 264.45 406.1 264.15 405.05 263.85 404 263.55 403.45 263.3 403.25 263.45 403.05 263.55 403 263.9
L 402.65 266.95
Q 402.6 267.3 402.8 267.45 402.95 267.65 403.35 267.75 404.8 268.3 406.55 268.6 408.3 268.9 410.05 268.9 412.35 268.9 414.5 268.3 416.65 267.75 418.15 266.5 419.65 265.25 420.5 263.5 421.3 261.7 421.3 259.6 421.3 257.4 419.95 255.6 418.6 253.85 415.95 252.7 417.05 252.2 418 251.45 418.95 250.7 419.65 249.7 420.35 248.75 420.75 247.7 421.1 246.6 421.1 245.5 421.1 243.5 420.25 242 419.4 240.5 418.05 239.6 416.75 238.7 415 238.25
M 367.25 246.3
Q 367.25 246.55 367.45 246.75
L 374.7 253.9 367.15 261.45
Q 366.95 261.65 366.95 261.95 366.95 262.2 367.15 262.4
L 368.85 264.1
Q 369.15 264.6 369.75 264.1
L 377.3 256.6 384.75 264.1
Q 384.95 264.25 385.25 264.25 385.5 264.25 385.7 264.1
L 387.35 262.3
Q 387.6 262.1 387.6 261.9 387.6 261.65 387.35 261.45
L 379.9 253.95 387.15 246.65
Q 387.35 246.5 387.35 246.2 387.35 245.9 387.15 245.7
L 385.55 244
Q 385.35 243.8 385.1 243.8 384.85 243.8 384.65 244
L 377.35 251.25 370.1 244.1
Q 369.65 243.65 369.15 244.1
L 367.45 245.85
Q 367.25 246.1 367.25 246.3
M 333.75 239.95
L 334.1 242.9
Q 334.2 243.25 334.4 243.35 334.6 243.45 335.1 243.25 335.7 243 336.5 242.75 337.3 242.5 338.1 242.35 338.9 242.15 339.65 242.05 340.35 241.95 340.9 241.95 341.75 241.95 342.7 242.15 343.65 242.35 344.5 242.85 345.3 243.3 345.85 244.1 346.35 244.85 346.35 245.85 346.35 247.2 345.55 248.1 344.75 249.05 343.55 249.65 342.4 250.25 341.15 250.5 339.9 250.75 339.05 250.75
L 337.15 250.75
Q 336.8 250.75 336.7 250.85 336.6 250.9 336.6 251.3
L 336.6 254.25
Q 336.6 254.55 336.7 254.65 336.8 254.75 337.15 254.75
L 339.1 254.75
Q 341.05 254.75 342.4 255.15 343.8 255.5 344.7 256.2 345.55 256.85 346 257.7 346.4 258.55 346.4 259.5 346.4 262.15 344.45 263.5 343.8 263.95 343.05 264.2 342.25 264.5 341.4 264.6 340.55 264.7 339.65 264.65 338.75 264.6 337.95 264.55 336.85 264.45 335.8 264.15 334.75 263.85 333.7 263.55 333.15 263.3 332.95 263.45 332.75 263.55 332.7 263.9
L 332.35 266.95
Q 332.3 267.3 332.5 267.45 332.65 267.65 333.05 267.75 334.5 268.3 336.25 268.6 338 268.9 339.75 268.9 342.05 268.9 344.2 268.3 346.35 267.75 347.85 266.5 349.35 265.25 350.2 263.5 351 261.7 351 259.6 351 257.4 349.65 255.6 348.3 253.85 345.65 252.7 346.75 252.2 347.7 251.45 348.65 250.7 349.35 249.7 350.05 248.75 350.45 247.7 350.8 246.6 350.8 245.5 350.8 243.5 349.95 242 349.1 240.5 347.75 239.6 346.45 238.7 344.7 238.25 342.95 237.8 341.15 237.8 339.45 237.8 337.8 238.15 336.1 238.55 334.35 239.15 333.95 239.35 333.8 239.55 333.65 239.7 333.75 239.95
M 325.55 242.3
Q 325.8 242.3 325.95 242.1 326.05 241.95 326.05 241.7
L 326.05 238.65
Q 326.05 238.45 325.95 238.3 325.8 238.1 325.55 238.1
L 310.9 238.1
Q 310.3 238.1 310.2 238.25 310.05 238.35 310.05 238.8
L 309.85 253.55
Q 309.85 254.9 311.4 254.25 312.65 253.8 314.05 253.55 315.45 253.25 316.75 253.25 320.05 253.25 321.45 254.8 322.9 256.3 322.9 258.9 322.9 261.6 321.1 263.1 319.4 264.65 316.7 264.65 316 264.65 315.15 264.55 314.35 264.5 313.5 264.35 312.65 264.15 311.85 263.95 311.05 263.7 310.5 263.4 309.65 263 309.65 263.7
L 309.65 266.95
Q 309.65 267.25 309.65 267.4 309.7 267.5 309.95 267.7 310.6 268 311.55 268.2 312.45 268.45 313.4 268.6 314.35 268.7 315.15 268.8 316 268.85 316.4 268.85 318.7 268.85 320.75 268.2 322.85 267.55 324.25 266.25 327.4 263.45 327.4 258.4 327.4 256.3 326.65 254.65 325.9 252.95 324.6 251.75 323.3 250.6 321.55 249.95 319.8 249.35 317.8 249.35 315.85 249.35 314.25 249.7
L 314.4 242.3 325.55 242.3
M 355.15 493.1
Q 353.35 491.25 351.35 489.35
L 351.4 489.35
Q 350.55 488.45 349.75 489.35
L 347.85 491.25
Q 347.05 492.05 347.85 492.85 349.75 494.7 351.6 496.6 353.5 498.5 355.4 500.4
L 347.55 508.3
Q 347.2 508.65 347.2 509.1 347.2 509.6 347.55 509.95 348 510.4 348.45 510.9 348.95 511.4 349.4 511.85 350 512.65 350.95 511.85 352.95 509.85 354.95 507.85 356.95 505.85 358.9 503.95
L 366.8 511.8
Q 367.65 512.5 368.4 511.8
L 370.25 509.85
Q 370.95 509.05 370.25 508.3 368.25 506.25 366.35 504.35 364.45 502.45 362.45 500.4
L 370.05 492.75
Q 370.4 492.4 370.35 491.95 370.35 491.45 370.05 491.1
L 368.3 489.2
Q 367.9 488.85 367.45 488.85 367 488.9 366.65 489.2 364.7 491.1 362.8 493.05 360.9 494.95 358.95 496.85 357 494.9 355.15 493.1
M 423.45 422.3
Q 419.3 422.3 416.4 423.75 413.5 425.25 411.75 427.8 409.95 430.3 409.2 433.7 408.45 437.05 408.45 440.85 408.45 449.25 411.3 453.25 414.15 457.25 419.45 457.25 422.05 457.25 424.1 456.35 426.15 455.45 427.65 453.85 429.1 452.3 429.85 450.15 430.65 448 430.65 445.55 430.65 443 429.85 440.95 429.05 438.85 427.6 437.4 426.15 435.95 424.15 435.15 422.15 434.4 419.75 434.4 418.85 434.4 417.95 434.65 417.05 434.85 416.25 435.25 415.4 435.65 414.7 436.15 414 436.65 413.6 437.2 413.95 435.05 414.6 433.15 415.2 431.25 416.35 429.9 417.5 428.5 419.1 427.7 420.75 426.9 423.1 426.9 424.65 426.9 426 427.05 427.35 427.2 428.5 427.6 429.15 427.9 429.2 427.25
L 429.35 423.65
Q 429.4 423.25 429 423.1 427.95 422.7 426.35 422.5 424.75 422.3 423.45 422.3
M 419.9 439.05
Q 422.65 439.05 424.15 440.85 425.65 442.65 425.65 445.75 425.65 449 423.95 450.9 422.25 452.8 419.55 452.8 418.3 452.8 417.2 452.2 416.1 451.6 415.35 450.6 414.55 449.6 414.1 448.25 413.65 446.9 413.65 445.35 413.65 442.6 415.3 440.85 417 439.05 419.9 439.05
M 488.15 491.8
Q 488.15 489.45 487.35 487.65 486.6 485.9 485.3 484.7 483.95 483.5 482.15 482.9 480.3 482.3 478.15 482.3 476.05 482.3 473.85 483 471.6 483.7 469.95 484.6 469.45 484.85 469.35 485.1 469.2 485.35 469.3 485.55
L 469.95 489
Q 470 489.4 470.35 489.4 470.7 489.4 471.1 489.2 473.1 488.05 474.85 487.5 476.6 487 478.45 487 480.35 487 481.7 488.4 483 489.8 483 491.95 483 493.85 481.2 496.8 479.4 499.75 475.7 504.25
L 468.85 512.35
Q 468.55 512.7 468.35 513.05 468.15 513.4 468.15 513.75
L 468.15 516.35
Q 468.15 516.95 469.05 516.95
L 488.2 516.95
Q 488.85 516.95 488.85 516.15
L 488.85 513
Q 488.85 512.3 488.2 512.3
L 475 512.3
Q 476.1 511 477.2 509.7 478.35 508.4 479.35 507.15 480.6 505.7 482.1 503.85 483.65 502.05 485 500.05 486.35 498 487.25 495.95 488.15 493.85 488.15 491.8
M 487.35 435.7
Q 488.15 434.6 488.6 433.4 489 432.15 489 430.95 489 428.7 488.05 427 487.1 425.35 485.6 424.3 484.1 423.25 482.15 422.75 480.2 422.3 478.15 422.3 476.25 422.3 474.35 422.7 472.5 423.1 470.5 423.8 470 424 469.9 424.2 469.75 424.45 469.85 424.7
L 470.25 428
Q 470.3 428.4 470.55 428.5 470.8 428.6 471.3 428.4 472.05 428.15 472.95 427.85 473.85 427.6 474.7 427.4 475.6 427.2 476.45 427.05 477.25 426.9 477.9 426.9 478.85 426.9 479.9 427.15 481 427.4 481.9 427.95 482.85 428.5 483.4 429.35 484 430.2 484 431.35 484 432.85 483.1 433.9 482.15 434.9 480.85 435.6 479.55 436.3 478.15 436.55 476.75 436.85 475.75 436.85
L 473.6 436.85
Q 473.25 436.85 473.15 436.95 473.05 437.05 473.05 437.45
L 473.05 440.75
Q 473.05 441.15 473.15 441.25 473.25 441.35 473.6 441.35
L 475.85 441.35
Q 478 441.35 479.55 441.75 481.15 442.2 482.1 442.95 483.1 443.7 483.55 444.65 484.05 445.65 484.05 446.65 484.05 449.7 481.9 451.2 481.15 451.7 480.25 452 479.4 452.3 478.4 452.4 477.45 452.5 476.45 452.45 475.45 452.45 474.5 452.35 473.3 452.25 472.15 451.9 470.95 451.55 469.75 451.2 469.15 451 468.95 451.1 468.7 451.25 468.65 451.65
L 468.25 455.05
Q 468.2 455.45 468.4 455.65 468.55 455.85 469.05 456 470.7 456.55 472.65 456.9 474.6 457.25 476.55 457.25 479.15 457.25 481.55 456.6 483.95 455.95 485.65 454.55 487.35 453.15 488.3 451.2 489.2 449.2 489.2 446.8 489.2 444.3 487.7 442.3 486.15 440.3 483.2 439.05 484.45 438.5 485.55 437.6 486.6 436.75 487.35 435.7
M 436.6 255.5
Q 436.4 255.5 436.25 255.6 436.1 255.75 436.1 255.95
L 436.1 259.1
Q 436.1 259.35 436.25 259.45 436.4 259.6 436.6 259.6
L 457.7 259.6
Q 457.9 259.6 458.05 259.45 458.2 259.35 458.2 259.1
L 458.2 255.95
Q 458.2 255.75 458.05 255.6 457.9 255.5 457.7 255.5
L 436.6 255.5
M 458.05 247.3
Q 457.9 247.15 457.7 247.15
L 436.6 247.15
Q 436.4 247.15 436.25 247.3 436.1 247.45 436.1 247.65
L 436.1 250.8
Q 436.1 251 436.25 251.15 436.4 251.3 436.6 251.3
L 457.7 251.3
Q 457.9 251.3 458.05 251.15 458.2 251 458.2 250.8
L 458.2 247.65
Q 458.2 247.45 458.05 247.3
M 757.85 491.25
Q 757.05 492.05 757.85 492.85 759.75 494.7 761.6 496.6 763.5 498.5 765.4 500.4
L 757.55 508.3
Q 757.2 508.65 757.2 509.1 757.2 509.6 757.55 509.95 758 510.4 758.45 510.9 758.95 511.4 759.4 511.85 760 512.65 760.95 511.85 762.95 509.85 764.95 507.85 766.95 505.85 768.9 503.95
L 776.8 511.8
Q 777.65 512.5 778.4 511.8
L 780.25 509.85
Q 780.95 509.05 780.25 508.3 778.25 506.25 776.35 504.35 774.45 502.45 772.45 500.4
L 780.05 492.75
Q 780.4 492.4 780.35 491.95 780.35 491.45 780.05 491.1
L 778.3 489.2
Q 777.9 488.85 777.45 488.85 777 488.9 776.65 489.2 774.7 491.1 772.8 493.05 770.9 494.95 768.95 496.85 767 494.9 765.15 493.1 763.35 491.25 761.35 489.35
L 761.4 489.35
Q 760.55 488.45 759.75 489.35
L 757.85 491.25
M 817 444.75
Q 816.8 445.05 816.8 445.35
L 816.8 448.7
Q 816.8 449.05 816.95 449.15 817.1 449.2 817.55 449.2
L 831.95 449.2 831.95 456.1
Q 831.95 456.5 832.1 456.7 832.25 456.9 832.75 456.9
L 836 456.9
Q 836.45 456.9 836.6 456.7 836.75 456.55 836.75 456.1
L 836.75 449.2 840.95 449.2
Q 841.35 449.2 841.5 449.1 841.6 449 841.6 448.55
L 841.6 445.25
Q 841.6 444.85 841.5 444.7 841.35 444.6 840.95 444.6
L 836.75 444.6 836.75 423.35
Q 836.75 422.95 836.7 422.8 836.65 422.7 836.3 422.7
L 832.2 422.7
Q 831.75 422.7 831.65 422.8 831.55 422.9 831.25 423.25
L 817.35 444.2
Q 817.2 444.4 817 444.75
M 831.95 429.95
L 831.95 444.6 822.25 444.6 831.95 429.95
M 891.65 482.8
Q 891.55 482.9 891.25 483.25
L 877.35 504.2
Q 877.2 504.4 877 504.75 876.8 505.05 876.8 505.35
L 876.8 508.7
Q 876.8 509.05 876.95 509.15 877.1 509.2 877.55 509.2
L 891.95 509.2 891.95 516.1
Q 891.95 516.5 892.1 516.7 892.25 516.9 892.75 516.9
L 896 516.9
Q 896.45 516.9 896.6 516.7 896.75 516.55 896.75 516.1
L 896.75 509.2 900.95 509.2
Q 901.35 509.2 901.5 509.1 901.6 509 901.6 508.55
L 901.6 505.25
Q 901.6 504.85 901.5 504.7 901.35 504.6 900.95 504.6
L 896.75 504.6 896.75 483.35
Q 896.75 482.95 896.7 482.8 896.65 482.7 896.3 482.7
L 892.2 482.7
Q 891.75 482.7 891.65 482.8
M 891.95 504.6
L 882.25 504.6 891.95 489.95 891.95 504.6
M 892.5 422.85
Q 892.35 422.7 891.55 422.7
L 889.2 422.7
Q 889.05 422.7 888.85 422.75 888.6 422.85 888.5 422.95
L 881.6 429.3
Q 881.4 429.5 881.4 429.75 881.35 430 881.5 430.2
L 883.5 432.65
Q 883.7 432.8 884 432.75 884.3 432.7 884.5 432.55
L 887.85 429.65 887.85 456.3
Q 887.85 456.9 888.5 456.9
L 892.1 456.9
Q 892.65 456.9 892.65 456.3
L 892.65 423.9
Q 892.65 423 892.5 422.85
M 846.6 255.5
Q 846.4 255.5 846.25 255.6 846.1 255.75 846.1 255.95
L 846.1 259.1
Q 846.1 259.35 846.25 259.45 846.4 259.6 846.6 259.6
L 867.7 259.6
Q 867.9 259.6 868.05 259.45 868.2 259.35 868.2 259.1
L 868.2 255.95
Q 868.2 255.75 868.05 255.6 867.9 255.5 867.7 255.5
L 846.6 255.5
M 868.05 247.3
Q 867.9 247.15 867.7 247.15
L 846.6 247.15
Q 846.4 247.15 846.25 247.3 846.1 247.45 846.1 247.65
L 846.1 250.8
Q 846.1 251 846.25 251.15 846.4 251.3 846.6 251.3
L 867.7 251.3
Q 867.9 251.3 868.05 251.15 868.2 251 868.2 250.8
L 868.2 247.65
Q 868.2 247.45 868.05 247.3 Z"/>

<path fill="#FFFFFF" stroke="none" d="
M 510.8 563.9
Q 510.8 548.9 495.8 548.9
L 467.85 548.9 377.85 548.9 345.8 548.9
Q 330.8 548.9 330.8 563.9
L 330.8 593.95
Q 330.8 608.95 345.8 608.95
L 377.85 608.95 467.85 608.95 495.8 608.95
Q 510.8 608.95 510.8 593.95
L 510.8 563.9
M 476 268.65
Q 476 272.3 476.75 274.6 479.5 283.65 491 283.65
L 561 283.65
Q 572.7 283.65 575.25 274.6 576 271.9 576 268.65
L 576 238.6
Q 576 223.6 561 223.6
L 491 223.6
Q 476 223.6 476 238.6
L 476 268.65
M 920.8 563.9
Q 920.8 548.9 905.8 548.9
L 877.85 548.9 787.85 548.9 755.8 548.9
Q 740.8 548.9 740.8 563.9
L 740.8 593.95
Q 740.8 608.95 755.8 608.95
L 787.85 608.95 877.85 608.95 905.8 608.95
Q 920.8 608.95 920.8 593.95
L 920.8 563.9
M 985.25 274.6
Q 986 271.9 986 268.65
L 986 238.6
Q 986 223.6 971 223.6
L 901 223.6
Q 886 223.6 886 238.6
L 886 268.65
Q 886 272.3 886.75 274.6 889.5 283.65 901 283.65
L 971 283.65
Q 982.7 283.65 985.25 274.6 Z"/>
</g>

<path id="Layer0_0_1_STROKES" stroke="#DBDBDB" stroke-width="3" stroke-linejoin="round" stroke-linecap="round" fill="none" d="
M 901 223.6
L 971 223.6
Q 986 223.6 986 238.6
L 986 268.65
Q 986 271.9 985.25 274.6 982.7 283.65 971 283.65
L 901 283.65
Q 889.5 283.65 886.75 274.6 886 272.3 886 268.65
L 886 238.6
Q 886 223.6 901 223.6 Z
M 755.8 548.9
L 787.85 548.9 877.85 548.9 905.8 548.9
Q 920.8 548.9 920.8 563.9
L 920.8 593.95
Q 920.8 608.95 905.8 608.95
L 877.85 608.95 787.85 608.95 755.8 608.95
Q 740.8 608.95 740.8 593.95
L 740.8 563.9
Q 740.8 548.9 755.8 548.9 Z
M 491 223.6
L 561 223.6
Q 576 223.6 576 238.6
L 576 268.65
Q 576 271.9 575.25 274.6 572.7 283.65 561 283.65
L 491 283.65
Q 479.5 283.65 476.75 274.6 476 272.3 476 268.65
L 476 238.6
Q 476 223.6 491 223.6 Z
M 345.8 548.9
L 377.85 548.9 467.85 548.9 495.8 548.9
Q 510.8 548.9 510.8 563.9
L 510.8 593.95
Q 510.8 608.95 495.8 608.95
L 467.85 608.95 377.85 608.95 345.8 608.95
Q 330.8 608.95 330.8 593.95
L 330.8 563.9
Q 330.8 548.9 345.8 548.9 Z"/>

<path id="Layer0_0_2_STROKES" stroke="#1E1E1E" stroke-width="3" stroke-linejoin="round" stroke-linecap="butt" fill="none" d="
M 737.7 534.4
L 923.15 534.4
M 327.7 534.4
L 513.75 534.4"/>
</defs>

<g transform="matrix( 1, 0, 0, 1, 0,0) ">
<use xlink:href="#Layer0_0_FILL"/>

<use xlink:href="#Layer0_0_1_STROKES"/>

<use xlink:href="#Layer0_0_2_STROKES"/>
</g>
</svg>
