<?xml version="1.0" encoding="utf-8"?>
<!-- Generator: Adobe Illustrator 23.0.0, SVG Export Plug-In . SVG Version: 6.00 Build 0)  -->
<svg version="1.1" id="레이어_1" xmlns="http://www.w3.org/2000/svg" xmlns:xlink="http://www.w3.org/1999/xlink" x="0px"
	 y="0px" width="88.7px" height="71px" viewBox="0 0 88.7 71" style="enable-background:new 0 0 88.7 71;" xml:space="preserve">
<g>
	
		<path style="fill:none;stroke:#0060E3;stroke-width:2;stroke-linecap:round;stroke-linejoin:round;stroke-miterlimit:10;stroke-dasharray:2,3;" d="
		M0.6,69.3c2.5-2.2,3.3-3.1,5.5-7.2"/>
	
		<path style="fill:none;stroke:#0060E3;stroke-width:2;stroke-linecap:round;stroke-linejoin:round;stroke-miterlimit:10;stroke-dasharray:2,3;" d="
		M13.2,35.4c0-14.5-5-27.5-12.6-34.4"/>
</g>
<path style="fill:#0060E3;" d="M48.4,45.8c1.1,0,2,0.2,2.7,0.7c0.7,0.5,1.2,1.1,1.5,1.8c0.5-0.8,1.1-1.4,1.9-1.9
	c0.8-0.5,1.7-0.7,2.9-0.7c1.6,0,2.8,0.5,3.8,1.5c0.9,1,1.4,2.3,1.4,4.1v8.5c0,0.4-0.1,0.7-0.4,0.9c-0.3,0.2-0.6,0.3-1,0.3
	c-0.4,0-0.7-0.1-1-0.3c-0.3-0.2-0.4-0.5-0.4-0.9v-7.9c0-1.3-0.3-2.3-0.8-2.8c-0.6-0.5-1.3-0.8-2.3-0.8c-1,0-1.8,0.3-2.4,0.9
	c-0.6,0.6-0.9,1.5-0.9,2.6v8c0,0.4-0.1,0.7-0.4,0.9c-0.3,0.2-0.6,0.3-1,0.3c-0.4,0-0.7-0.1-1-0.3c-0.3-0.2-0.4-0.5-0.4-0.9v-7.9
	c0-1.3-0.3-2.2-0.8-2.8c-0.5-0.6-1.3-0.9-2.3-0.9c-0.5,0-1,0.1-1.4,0.3c-0.4,0.2-0.8,0.4-1,0.7c-0.3,0.3-0.5,0.7-0.6,1.1
	c-0.1,0.4-0.2,0.9-0.2,1.3v8.1c0,0.4-0.1,0.7-0.4,0.9c-0.3,0.2-0.6,0.3-1,0.3c-0.4,0-0.7-0.1-1-0.3c-0.3-0.2-0.4-0.5-0.4-0.9V47.1
	c0-0.4,0.1-0.7,0.4-0.9c0.3-0.2,0.6-0.3,0.9-0.3c0.3,0,0.6,0.1,0.9,0.3c0.3,0.2,0.4,0.5,0.4,0.9v1.1c0.4-0.7,0.9-1.3,1.6-1.8
	C46.4,46,47.3,45.8,48.4,45.8z"/>
<path style="fill:#0060E3;" d="M73.9,45.8c1.1,0,2,0.2,2.7,0.7c0.7,0.5,1.2,1.1,1.5,1.8c0.5-0.8,1.1-1.4,1.9-1.9
	c0.8-0.5,1.7-0.7,2.9-0.7c1.6,0,2.8,0.5,3.8,1.5c0.9,1,1.4,2.3,1.4,4.1v8.5c0,0.4-0.1,0.7-0.4,0.9c-0.3,0.2-0.6,0.3-1,0.3
	s-0.7-0.1-1-0.3c-0.3-0.2-0.4-0.5-0.4-0.9v-7.9c0-1.3-0.3-2.3-0.8-2.8c-0.6-0.5-1.3-0.8-2.3-0.8c-1,0-1.8,0.3-2.4,0.9
	c-0.6,0.6-0.9,1.5-0.9,2.6v8c0,0.4-0.1,0.7-0.4,0.9c-0.3,0.2-0.6,0.3-1,0.3c-0.4,0-0.7-0.1-1-0.3c-0.3-0.2-0.4-0.5-0.4-0.9v-7.9
	c0-1.3-0.3-2.2-0.8-2.8c-0.5-0.6-1.3-0.9-2.3-0.9c-0.5,0-1,0.1-1.4,0.3c-0.4,0.2-0.8,0.4-1,0.7c-0.3,0.3-0.5,0.7-0.6,1.1
	c-0.1,0.4-0.2,0.9-0.2,1.3v8.1c0,0.4-0.1,0.7-0.4,0.9c-0.3,0.2-0.6,0.3-1,0.3c-0.4,0-0.7-0.1-1-0.3c-0.3-0.2-0.4-0.5-0.4-0.9V47.1
	c0-0.4,0.1-0.7,0.4-0.9c0.3-0.2,0.6-0.3,0.9-0.3c0.3,0,0.6,0.1,0.9,0.3c0.3,0.2,0.4,0.5,0.4,0.9v1.1c0.4-0.7,0.9-1.3,1.6-1.8
	C71.9,46,72.8,45.8,73.9,45.8z"/>
<g>
	<path style="fill:#0060E3;" d="M8.5,40.1c0.9,0,1.8,0.1,2.6,0.3c0.8,0.2,1.5,0.4,2,0.7c0.3,0.2,0.5,0.5,0.7,0.7
		c0.1,0.3,0.1,0.6-0.1,0.9c-0.2,0.3-0.4,0.6-0.7,0.7c-0.3,0.1-0.7,0.1-1-0.1c-0.5-0.2-1.1-0.4-1.6-0.6s-1.2-0.2-1.9-0.2
		c-3,0-4.8,2.4-5,7.2C4,49,4.7,48.5,5.6,48c1-0.4,1.9-0.7,2.9-0.7s1.9,0.2,2.7,0.5c0.8,0.3,1.5,0.7,2.1,1.3s1,1.2,1.3,2.1
		C14.9,52.1,15,53,15,54v0.5c0,1-0.2,1.9-0.5,2.7s-0.8,1.5-1.5,2.1c-0.7,0.6-1.4,1.1-2.2,1.4C9.9,61,9,61.2,7.9,61.2
		c-2.4,0-4.2-0.7-5.3-2.2c-1.5-1.5-2.1-3.7-2.1-6.5v-0.8c0-2.2,0.2-4.1,0.6-5.6s1-2.6,1.6-3.5c0.7-0.9,1.6-1.5,2.5-1.9
		C6.3,40.3,7.4,40.1,8.5,40.1z M7.8,50c-0.7,0-1.3,0.1-1.9,0.3s-1,0.5-1.3,0.8c-0.3,0.3-0.7,0.8-0.8,1.3s-0.2,1-0.2,1.6v0.2
		c0,1.3,0.4,2.4,1.2,3.1s1.7,1.2,3,1.2s2.4-0.3,3.1-1.1c0.7-0.7,1.2-1.7,1.2-3.1v-0.2C12,51.4,10.6,50,7.8,50z"/>
	<path style="fill:#0060E3;" d="M23.6,40.1c2.6,0,4.4,0.8,5.6,2.5c1.2,1.7,1.7,4.1,1.7,7.3v1.4c0,3.2-0.6,5.6-1.7,7.3
		c-1.2,1.7-3,2.5-5.6,2.5s-4.4-0.8-5.6-2.5c-1.2-1.7-1.7-4.1-1.7-7.3v-1.4c0-3.2,0.6-5.6,1.7-7.3C19.1,41,20.9,40.1,23.6,40.1z
		 M23.6,42.8c-0.8,0-1.6,0.2-2.1,0.4c-0.6,0.3-1.1,0.8-1.4,1.4c-0.3,0.6-0.6,1.4-0.7,2.3c-0.2,0.9-0.2,2.1-0.2,3.3v1
		c0,1.3,0.1,2.4,0.2,3.3c0.2,0.9,0.4,1.6,0.7,2.3c0.3,0.6,0.8,1.1,1.4,1.3c0.6,0.3,1.3,0.4,2.1,0.4c0.8,0,1.6-0.2,2.1-0.4
		s1.1-0.7,1.4-1.3s0.6-1.4,0.7-2.3s0.2-2.1,0.2-3.3v-1c0-1.3-0.1-2.4-0.2-3.3c-0.2-0.9-0.4-1.6-0.7-2.3c-0.3-0.6-0.8-1.1-1.4-1.3
		C25.1,42.9,24.4,42.8,23.6,42.8z"/>
</g>
</svg>
