
<svg xmlns="http://www.w3.org/2000/svg" version="1.1" xmlns:xlink="http://www.w3.org/1999/xlink" preserveAspectRatio="none" x="0px" y="0px" width="1280px" height="720px" viewBox="0 0 1280 720">
<defs>
<g id="Layer0_0_FILL">
<path fill="#E1EDF5" stroke="none" d="
M 876.9 535.25
L 876.9 495.5
Q 876.9 480.5 861.9 480.5
L 418.15 480.5
Q 403.15 480.5 403.15 495.5
L 403.15 535.25
Q 403.15 550.25 418.15 550.25
L 861.9 550.25
Q 876.9 550.25 876.9 535.25
M 443.5 499.3
Q 443.65 499.45 443.65 500.35
L 443.65 532.75
Q 443.65 533.35 443.1 533.35
L 439.5 533.35
Q 438.85 533.35 438.85 532.75
L 438.85 506.1 435.5 509
Q 435.3 509.15 435 509.2 434.7 509.25 434.5 509.1
L 432.5 506.65
Q 432.35 506.45 432.4 506.2 432.4 505.95 432.6 505.75
L 439.5 499.4
Q 439.6 499.3 439.85 499.2 440.05 499.15 440.2 499.15
L 442.55 499.15
Q 443.35 499.15 443.5 499.3
M 487.3 532.6
Q 487.75 533.2 487 533.2
L 482.8 533.2
Q 482.25 533.2 482.05 533.1 481.85 532.95 481.65 532.6
L 474.45 522.3 472.3 524.75 472.3 532.65
Q 472.3 533.2 471.75 533.2
L 468.1 533.2
Q 467.9 533.2 467.7 533.05 467.55 532.9 467.55 532.65
L 467.55 497.2
Q 467.55 496.95 467.7 496.8 467.9 496.65 468.1 496.65
L 471.75 496.65
Q 472 496.65 472.15 496.8 472.3 496.95 472.3 497.2
L 472.3 517.85 480.9 508.65
Q 481.25 508.25 481.6 508.25
L 486.05 508.25
Q 486.9 508.25 486.3 508.9
L 477.55 518.65 487.3 532.6
M 510.1 516.55
Q 509.7 517.9 509.7 519.45
L 509.7 532.55
Q 509.7 533.1 509.15 533.1
L 505.45 533.1
Q 505.2 533.1 505 532.9 504.85 532.7 504.85 532.5
L 504.85 516.9
Q 504.85 512.15 500.9 512.15 498.35 512.15 496.95 513.65 495.5 515.2 495.5 517.9
L 495.5 532.55
Q 495.5 533.1 495 533.1
L 491.25 533.1
Q 491.05 533.1 490.85 532.9 490.7 532.7 490.7 532.5
L 490.7 514.55
Q 490.7 512.85 490.65 511.3 490.6 509.7 490.55 508.8 490.45 508.2 491.15 508.2
L 495 508.2
Q 495.4 508.2 495.4 508.6
L 495.35 510.15
Q 496.25 509.15 497.85 508.4 499.4 507.65 501.15 507.65 503.5 507.65 505.45 508.75 507.35 509.85 508.2 511.95 509.25 509.8 511.3 508.75 513.3 507.65 515.6 507.65 519.45 507.65 521.75 509.95 524.1 512.2 524.1 516.3
L 524.1 532.55
Q 524.1 532.75 523.95 532.9 523.8 533.1 523.55 533.1
L 519.8 533.1
Q 519.6 533.1 519.45 532.9 519.25 532.7 519.25 532.5
L 519.25 516.9
Q 519.25 514.8 518.25 513.45 517.3 512.15 515.35 512.15 514 512.15 512.95 512.7 511.9 513.25 511.2 514.2 510.45 515.2 510.1 516.55
M 559.35 499.25
Q 559.4 499.4 559.4 499.8
L 559.4 521.05 563.6 521.05
Q 564 521.05 564.15 521.15 564.25 521.3 564.25 521.7
L 564.25 525
Q 564.25 525.45 564.15 525.55 564 525.65 563.6 525.65
L 559.4 525.65 559.4 532.55
Q 559.4 533 559.25 533.15 559.1 533.35 558.65 533.35
L 555.4 533.35
Q 554.9 533.35 554.75 533.15 554.6 532.95 554.6 532.55
L 554.6 525.65 540.2 525.65
Q 539.75 525.65 539.6 525.6 539.45 525.5 539.45 525.15
L 539.45 521.8
Q 539.45 521.5 539.65 521.2 539.85 520.85 540 520.65
L 553.9 499.7
Q 554.2 499.35 554.3 499.25 554.4 499.15 554.85 499.15
L 558.95 499.15
Q 559.3 499.15 559.35 499.25
M 588.45 502.7
Q 588.45 503.05 588.2 503.4
L 576.3 532.7
Q 576.1 533.05 575.95 533.2 575.75 533.35 575.3 533.35
L 571.65 533.35
Q 571 533.35 570.8 533.15 570.65 533 570.8 532.55
L 582.55 503.75 568.2 503.75
Q 567.9 503.75 567.65 503.55 567.4 503.35 567.4 503
L 567.4 499.85
Q 567.4 499.15 568.2 499.15
L 587.35 499.15
Q 588.1 499.15 588.25 499.3 588.45 499.45 588.45 499.95
L 588.45 502.7
M 608.65 499.6
Q 610.4 500.35 611.65 501.7 612.9 503 613.7 504.75 614.5 506.45 614.95 508.4 615.4 510.35 615.6 512.35 615.8 514.35 615.8 516.2 615.8 520.3 615.1 523.5 614.4 526.75 613.05 529 611.6 531.2 609.55 532.4 607.45 533.55 604.55 533.55 598.8 533.55 596.05 529 593.3 524.4 593.3 516.2 593.3 513.4 593.7 510.35 594.15 507.3 595.35 504.7 596.6 502.15 598.8 500.5 601 498.8 604.55 498.8 606.9 498.8 608.65 499.6
M 651.9 516.55
Q 651.5 517.9 651.5 519.45
L 651.5 532.55
Q 651.5 533.1 650.95 533.1
L 647.25 533.1
Q 647 533.1 646.8 532.9 646.65 532.7 646.65 532.5
L 646.65 516.9
Q 646.65 512.15 642.7 512.15 640.15 512.15 638.75 513.65 637.3 515.2 637.3 517.9
L 637.3 532.55
Q 637.3 533.1 636.8 533.1
L 633.05 533.1
Q 632.85 533.1 632.65 532.9 632.5 532.7 632.5 532.5
L 632.5 514.55
Q 632.5 512.85 632.45 511.3 632.4 509.7 632.35 508.8 632.25 508.2 632.95 508.2
L 636.8 508.2
Q 637.2 508.2 637.2 508.6
L 637.15 510.15
Q 638.05 509.15 639.65 508.4 641.2 507.65 642.95 507.65 645.3 507.65 647.25 508.75 649.15 509.85 650 511.95 651.05 509.8 653.1 508.75 655.1 507.65 657.4 507.65 661.25 507.65 663.55 509.95 665.9 512.2 665.9 516.3
L 665.9 532.55
Q 665.9 532.75 665.75 532.9 665.6 533.1 665.35 533.1
L 661.6 533.1
Q 661.4 533.1 661.25 532.9 661.05 532.7 661.05 532.5
L 661.05 516.9
Q 661.05 514.8 660.05 513.45 659.1 512.15 657.15 512.15 655.8 512.15 654.75 512.7 653.7 513.25 653 514.2 652.25 515.2 651.9 516.55
M 695.2 509.25
Q 695.4 509.25 695.55 509.4 695.7 509.55 695.7 509.8
L 695.7 513.35
Q 695.7 513.6 695.55 513.75 695.4 513.9 695.2 513.9
L 671.4 513.9
Q 671.2 513.9 671.05 513.75 670.9 513.6 670.9 513.35
L 670.9 509.8
Q 670.9 509.55 671.05 509.4 671.2 509.25 671.4 509.25
L 695.2 509.25
M 695.2 518.6
Q 695.4 518.6 695.55 518.75 695.7 518.9 695.7 519.15
L 695.7 522.7
Q 695.7 522.95 695.55 523.1 695.4 523.25 695.2 523.25
L 671.4 523.25
Q 671.2 523.25 671.05 523.1 670.9 522.95 670.9 522.7
L 670.9 519.15
Q 670.9 518.9 671.05 518.75 671.2 518.6 671.4 518.6
L 695.2 518.6
M 709.8 499.4
Q 709.9 499.3 710.15 499.2 710.35 499.15 710.5 499.15
L 712.85 499.15
Q 713.65 499.15 713.8 499.3 713.95 499.45 713.95 500.35
L 713.95 532.75
Q 713.95 533.35 713.4 533.35
L 709.8 533.35
Q 709.15 533.35 709.15 532.75
L 709.15 506.1 705.8 509
Q 705.6 509.15 705.3 509.2 705 509.25 704.8 509.1
L 702.8 506.65
Q 702.65 506.45 702.7 506.2 702.7 505.95 702.9 505.75
L 709.8 499.4
M 725.1 525.65
Q 724.65 525.65 724.5 525.6 724.35 525.5 724.35 525.15
L 724.35 521.8
Q 724.35 521.5 724.55 521.2 724.75 520.85 724.9 520.65
L 738.8 499.7
Q 739.1 499.35 739.2 499.25 739.3 499.15 739.75 499.15
L 743.85 499.15
Q 744.2 499.15 744.25 499.25 744.3 499.4 744.3 499.8
L 744.3 521.05 748.5 521.05
Q 748.9 521.05 749.05 521.15 749.15 521.3 749.15 521.7
L 749.15 525
Q 749.15 525.45 749.05 525.55 748.9 525.65 748.5 525.65
L 744.3 525.65 744.3 532.55
Q 744.3 533 744.15 533.15 744 533.35 743.55 533.35
L 740.3 533.35
Q 739.8 533.35 739.65 533.15 739.5 532.95 739.5 532.55
L 739.5 525.65 725.1 525.65
M 796.55 501.7
Q 797.8 503 798.6 504.75 799.4 506.45 799.85 508.4 800.3 510.35 800.5 512.35 800.7 514.35 800.7 516.2 800.7 520.3 800 523.5 799.3 526.75 797.95 529 796.5 531.2 794.45 532.4 792.35 533.55 789.45 533.55 783.7 533.55 780.95 529 778.2 524.4 778.2 516.2 778.2 513.4 778.6 510.35 779.05 507.3 780.25 504.7 781.5 502.15 783.7 500.5 785.9 498.8 789.45 498.8 791.8 498.8 793.55 499.6 795.3 500.35 796.55 501.7
M 773.35 502.7
Q 773.35 503.05 773.1 503.4
L 761.2 532.7
Q 761 533.05 760.85 533.2 760.65 533.35 760.2 533.35
L 756.55 533.35
Q 755.9 533.35 755.7 533.15 755.55 533 755.7 532.55
L 767.45 503.75 753.1 503.75
Q 752.8 503.75 752.55 503.55 752.3 503.35 752.3 503
L 752.3 499.85
Q 752.3 499.15 753.1 499.15
L 772.25 499.15
Q 773 499.15 773.15 499.3 773.35 499.45 773.35 499.95
L 773.35 502.7
M 850.8 532.55
Q 850.8 532.75 850.65 532.9 850.5 533.1 850.25 533.1
L 846.5 533.1
Q 846.3 533.1 846.15 532.9 845.95 532.7 845.95 532.5
L 845.95 516.9
Q 845.95 514.8 844.95 513.45 844 512.15 842.05 512.15 840.7 512.15 839.65 512.7 838.6 513.25 837.9 514.2 837.15 515.2 836.8 516.55 836.4 517.9 836.4 519.45
L 836.4 532.55
Q 836.4 533.1 835.85 533.1
L 832.15 533.1
Q 831.9 533.1 831.7 532.9 831.55 532.7 831.55 532.5
L 831.55 516.9
Q 831.55 512.15 827.6 512.15 825.05 512.15 823.65 513.65 822.2 515.2 822.2 517.9
L 822.2 532.55
Q 822.2 533.1 821.7 533.1
L 817.95 533.1
Q 817.75 533.1 817.55 532.9 817.4 532.7 817.4 532.5
L 817.4 514.55
Q 817.4 512.85 817.35 511.3 817.3 509.7 817.25 508.8 817.15 508.2 817.85 508.2
L 821.7 508.2
Q 822.1 508.2 822.1 508.6
L 822.05 510.15
Q 822.95 509.15 824.55 508.4 826.1 507.65 827.85 507.65 830.2 507.65 832.15 508.75 834.05 509.85 834.9 511.95 835.95 509.8 838 508.75 840 507.65 842.3 507.65 846.15 507.65 848.45 509.95 850.8 512.2 850.8 516.3
L 850.8 532.55
M 794 506.5
Q 793.15 505 792 504.4 790.85 503.7 789.45 503.7 788 503.7 786.9 504.4 785.8 505 784.95 506.5 784.15 508 783.75 510.4 783.3 512.75 783.3 516.2 783.3 519.65 783.75 522.05 784.15 524.4 784.95 525.9 785.8 527.4 786.9 528.05 788 528.7 789.45 528.7 790.85 528.7 792 528.05 793.15 527.4 794 525.9 794.75 524.4 795.2 522.05 795.6 519.65 795.6 516.2 795.6 512.75 795.2 510.4 794.75 508 794 506.5
M 729.8 521.05
L 739.5 521.05 739.5 506.4 729.8 521.05
M 610.3 510.4
Q 609.85 508 609.1 506.5 608.25 505 607.1 504.4 605.95 503.7 604.55 503.7 603.1 503.7 602 504.4 600.9 505 600.05 506.5 599.25 508 598.85 510.4 598.4 512.75 598.4 516.2 598.4 519.65 598.85 522.05 599.25 524.4 600.05 525.9 600.9 527.4 602 528.05 603.1 528.7 604.55 528.7 605.95 528.7 607.1 528.05 608.25 527.4 609.1 525.9 609.85 524.4 610.3 522.05 610.7 519.65 610.7 516.2 610.7 512.75 610.3 510.4
M 554.6 506.4
L 544.9 521.05 554.6 521.05 554.6 506.4 Z"/>

<path fill="#1E1E1E" stroke="none" d="
M 850.65 532.9
Q 850.8 532.75 850.8 532.55
L 850.8 516.3
Q 850.8 512.2 848.45 509.95 846.15 507.65 842.3 507.65 840 507.65 838 508.75 835.95 509.8 834.9 511.95 834.05 509.85 832.15 508.75 830.2 507.65 827.85 507.65 826.1 507.65 824.55 508.4 822.95 509.15 822.05 510.15
L 822.1 508.6
Q 822.1 508.2 821.7 508.2
L 817.85 508.2
Q 817.15 508.2 817.25 508.8 817.3 509.7 817.35 511.3 817.4 512.85 817.4 514.55
L 817.4 532.5
Q 817.4 532.7 817.55 532.9 817.75 533.1 817.95 533.1
L 821.7 533.1
Q 822.2 533.1 822.2 532.55
L 822.2 517.9
Q 822.2 515.2 823.65 513.65 825.05 512.15 827.6 512.15 831.55 512.15 831.55 516.9
L 831.55 532.5
Q 831.55 532.7 831.7 532.9 831.9 533.1 832.15 533.1
L 835.85 533.1
Q 836.4 533.1 836.4 532.55
L 836.4 519.45
Q 836.4 517.9 836.8 516.55 837.15 515.2 837.9 514.2 838.6 513.25 839.65 512.7 840.7 512.15 842.05 512.15 844 512.15 844.95 513.45 845.95 514.8 845.95 516.9
L 845.95 532.5
Q 845.95 532.7 846.15 532.9 846.3 533.1 846.5 533.1
L 850.25 533.1
Q 850.5 533.1 850.65 532.9
M 773.1 503.4
Q 773.35 503.05 773.35 502.7
L 773.35 499.95
Q 773.35 499.45 773.15 499.3 773 499.15 772.25 499.15
L 753.1 499.15
Q 752.3 499.15 752.3 499.85
L 752.3 503
Q 752.3 503.35 752.55 503.55 752.8 503.75 753.1 503.75
L 767.45 503.75 755.7 532.55
Q 755.55 533 755.7 533.15 755.9 533.35 756.55 533.35
L 760.2 533.35
Q 760.65 533.35 760.85 533.2 761 533.05 761.2 532.7
L 773.1 503.4
M 798.6 504.75
Q 797.8 503 796.55 501.7 795.3 500.35 793.55 499.6 791.8 498.8 789.45 498.8 785.9 498.8 783.7 500.5 781.5 502.15 780.25 504.7 779.05 507.3 778.6 510.35 778.2 513.4 778.2 516.2 778.2 524.4 780.95 529 783.7 533.55 789.45 533.55 792.35 533.55 794.45 532.4 796.5 531.2 797.95 529 799.3 526.75 800 523.5 800.7 520.3 800.7 516.2 800.7 514.35 800.5 512.35 800.3 510.35 799.85 508.4 799.4 506.45 798.6 504.75
M 792 504.4
Q 793.15 505 794 506.5 794.75 508 795.2 510.4 795.6 512.75 795.6 516.2 795.6 519.65 795.2 522.05 794.75 524.4 794 525.9 793.15 527.4 792 528.05 790.85 528.7 789.45 528.7 788 528.7 786.9 528.05 785.8 527.4 784.95 525.9 784.15 524.4 783.75 522.05 783.3 519.65 783.3 516.2 783.3 512.75 783.75 510.4 784.15 508 784.95 506.5 785.8 505 786.9 504.4 788 503.7 789.45 503.7 790.85 503.7 792 504.4
M 724.5 525.6
Q 724.65 525.65 725.1 525.65
L 739.5 525.65 739.5 532.55
Q 739.5 532.95 739.65 533.15 739.8 533.35 740.3 533.35
L 743.55 533.35
Q 744 533.35 744.15 533.15 744.3 533 744.3 532.55
L 744.3 525.65 748.5 525.65
Q 748.9 525.65 749.05 525.55 749.15 525.45 749.15 525
L 749.15 521.7
Q 749.15 521.3 749.05 521.15 748.9 521.05 748.5 521.05
L 744.3 521.05 744.3 499.8
Q 744.3 499.4 744.25 499.25 744.2 499.15 743.85 499.15
L 739.75 499.15
Q 739.3 499.15 739.2 499.25 739.1 499.35 738.8 499.7
L 724.9 520.65
Q 724.75 520.85 724.55 521.2 724.35 521.5 724.35 521.8
L 724.35 525.15
Q 724.35 525.5 724.5 525.6
M 739.5 521.05
L 729.8 521.05 739.5 506.4 739.5 521.05
M 710.15 499.2
Q 709.9 499.3 709.8 499.4
L 702.9 505.75
Q 702.7 505.95 702.7 506.2 702.65 506.45 702.8 506.65
L 704.8 509.1
Q 705 509.25 705.3 509.2 705.6 509.15 705.8 509
L 709.15 506.1 709.15 532.75
Q 709.15 533.35 709.8 533.35
L 713.4 533.35
Q 713.95 533.35 713.95 532.75
L 713.95 500.35
Q 713.95 499.45 713.8 499.3 713.65 499.15 712.85 499.15
L 710.5 499.15
Q 710.35 499.15 710.15 499.2
M 695.55 518.75
Q 695.4 518.6 695.2 518.6
L 671.4 518.6
Q 671.2 518.6 671.05 518.75 670.9 518.9 670.9 519.15
L 670.9 522.7
Q 670.9 522.95 671.05 523.1 671.2 523.25 671.4 523.25
L 695.2 523.25
Q 695.4 523.25 695.55 523.1 695.7 522.95 695.7 522.7
L 695.7 519.15
Q 695.7 518.9 695.55 518.75
M 695.55 509.4
Q 695.4 509.25 695.2 509.25
L 671.4 509.25
Q 671.2 509.25 671.05 509.4 670.9 509.55 670.9 509.8
L 670.9 513.35
Q 670.9 513.6 671.05 513.75 671.2 513.9 671.4 513.9
L 695.2 513.9
Q 695.4 513.9 695.55 513.75 695.7 513.6 695.7 513.35
L 695.7 509.8
Q 695.7 509.55 695.55 509.4
M 651.5 519.45
Q 651.5 517.9 651.9 516.55 652.25 515.2 653 514.2 653.7 513.25 654.75 512.7 655.8 512.15 657.15 512.15 659.1 512.15 660.05 513.45 661.05 514.8 661.05 516.9
L 661.05 532.5
Q 661.05 532.7 661.25 532.9 661.4 533.1 661.6 533.1
L 665.35 533.1
Q 665.6 533.1 665.75 532.9 665.9 532.75 665.9 532.55
L 665.9 516.3
Q 665.9 512.2 663.55 509.95 661.25 507.65 657.4 507.65 655.1 507.65 653.1 508.75 651.05 509.8 650 511.95 649.15 509.85 647.25 508.75 645.3 507.65 642.95 507.65 641.2 507.65 639.65 508.4 638.05 509.15 637.15 510.15
L 637.2 508.6
Q 637.2 508.2 636.8 508.2
L 632.95 508.2
Q 632.25 508.2 632.35 508.8 632.4 509.7 632.45 511.3 632.5 512.85 632.5 514.55
L 632.5 532.5
Q 632.5 532.7 632.65 532.9 632.85 533.1 633.05 533.1
L 636.8 533.1
Q 637.3 533.1 637.3 532.55
L 637.3 517.9
Q 637.3 515.2 638.75 513.65 640.15 512.15 642.7 512.15 646.65 512.15 646.65 516.9
L 646.65 532.5
Q 646.65 532.7 646.8 532.9 647 533.1 647.25 533.1
L 650.95 533.1
Q 651.5 533.1 651.5 532.55
L 651.5 519.45
M 611.65 501.7
Q 610.4 500.35 608.65 499.6 606.9 498.8 604.55 498.8 601 498.8 598.8 500.5 596.6 502.15 595.35 504.7 594.15 507.3 593.7 510.35 593.3 513.4 593.3 516.2 593.3 524.4 596.05 529 598.8 533.55 604.55 533.55 607.45 533.55 609.55 532.4 611.6 531.2 613.05 529 614.4 526.75 615.1 523.5 615.8 520.3 615.8 516.2 615.8 514.35 615.6 512.35 615.4 510.35 614.95 508.4 614.5 506.45 613.7 504.75 612.9 503 611.65 501.7
M 609.1 506.5
Q 609.85 508 610.3 510.4 610.7 512.75 610.7 516.2 610.7 519.65 610.3 522.05 609.85 524.4 609.1 525.9 608.25 527.4 607.1 528.05 605.95 528.7 604.55 528.7 603.1 528.7 602 528.05 600.9 527.4 600.05 525.9 599.25 524.4 598.85 522.05 598.4 519.65 598.4 516.2 598.4 512.75 598.85 510.4 599.25 508 600.05 506.5 600.9 505 602 504.4 603.1 503.7 604.55 503.7 605.95 503.7 607.1 504.4 608.25 505 609.1 506.5
M 588.2 503.4
Q 588.45 503.05 588.45 502.7
L 588.45 499.95
Q 588.45 499.45 588.25 499.3 588.1 499.15 587.35 499.15
L 568.2 499.15
Q 567.4 499.15 567.4 499.85
L 567.4 503
Q 567.4 503.35 567.65 503.55 567.9 503.75 568.2 503.75
L 582.55 503.75 570.8 532.55
Q 570.65 533 570.8 533.15 571 533.35 571.65 533.35
L 575.3 533.35
Q 575.75 533.35 575.95 533.2 576.1 533.05 576.3 532.7
L 588.2 503.4
M 559.4 499.8
Q 559.4 499.4 559.35 499.25 559.3 499.15 558.95 499.15
L 554.85 499.15
Q 554.4 499.15 554.3 499.25 554.2 499.35 553.9 499.7
L 540 520.65
Q 539.85 520.85 539.65 521.2 539.45 521.5 539.45 521.8
L 539.45 525.15
Q 539.45 525.5 539.6 525.6 539.75 525.65 540.2 525.65
L 554.6 525.65 554.6 532.55
Q 554.6 532.95 554.75 533.15 554.9 533.35 555.4 533.35
L 558.65 533.35
Q 559.1 533.35 559.25 533.15 559.4 533 559.4 532.55
L 559.4 525.65 563.6 525.65
Q 564 525.65 564.15 525.55 564.25 525.45 564.25 525
L 564.25 521.7
Q 564.25 521.3 564.15 521.15 564 521.05 563.6 521.05
L 559.4 521.05 559.4 499.8
M 544.9 521.05
L 554.6 506.4 554.6 521.05 544.9 521.05
M 509.7 519.45
Q 509.7 517.9 510.1 516.55 510.45 515.2 511.2 514.2 511.9 513.25 512.95 512.7 514 512.15 515.35 512.15 517.3 512.15 518.25 513.45 519.25 514.8 519.25 516.9
L 519.25 532.5
Q 519.25 532.7 519.45 532.9 519.6 533.1 519.8 533.1
L 523.55 533.1
Q 523.8 533.1 523.95 532.9 524.1 532.75 524.1 532.55
L 524.1 516.3
Q 524.1 512.2 521.75 509.95 519.45 507.65 515.6 507.65 513.3 507.65 511.3 508.75 509.25 509.8 508.2 511.95 507.35 509.85 505.45 508.75 503.5 507.65 501.15 507.65 499.4 507.65 497.85 508.4 496.25 509.15 495.35 510.15
L 495.4 508.6
Q 495.4 508.2 495 508.2
L 491.15 508.2
Q 490.45 508.2 490.55 508.8 490.6 509.7 490.65 511.3 490.7 512.85 490.7 514.55
L 490.7 532.5
Q 490.7 532.7 490.85 532.9 491.05 533.1 491.25 533.1
L 495 533.1
Q 495.5 533.1 495.5 532.55
L 495.5 517.9
Q 495.5 515.2 496.95 513.65 498.35 512.15 500.9 512.15 504.85 512.15 504.85 516.9
L 504.85 532.5
Q 504.85 532.7 505 532.9 505.2 533.1 505.45 533.1
L 509.15 533.1
Q 509.7 533.1 509.7 532.55
L 509.7 519.45
M 487 533.2
Q 487.75 533.2 487.3 532.6
L 477.55 518.65 486.3 508.9
Q 486.9 508.25 486.05 508.25
L 481.6 508.25
Q 481.25 508.25 480.9 508.65
L 472.3 517.85 472.3 497.2
Q 472.3 496.95 472.15 496.8 472 496.65 471.75 496.65
L 468.1 496.65
Q 467.9 496.65 467.7 496.8 467.55 496.95 467.55 497.2
L 467.55 532.65
Q 467.55 532.9 467.7 533.05 467.9 533.2 468.1 533.2
L 471.75 533.2
Q 472.3 533.2 472.3 532.65
L 472.3 524.75 474.45 522.3 481.65 532.6
Q 481.85 532.95 482.05 533.1 482.25 533.2 482.8 533.2
L 487 533.2
M 443.65 500.35
Q 443.65 499.45 443.5 499.3 443.35 499.15 442.55 499.15
L 440.2 499.15
Q 440.05 499.15 439.85 499.2 439.6 499.3 439.5 499.4
L 432.6 505.75
Q 432.4 505.95 432.4 506.2 432.35 506.45 432.5 506.65
L 434.5 509.1
Q 434.7 509.25 435 509.2 435.3 509.15 435.5 509
L 438.85 506.1 438.85 532.75
Q 438.85 533.35 439.5 533.35
L 443.1 533.35
Q 443.65 533.35 443.65 532.75
L 443.65 500.35 Z"/>
</g>

<path id="Layer0_0_1_STROKES" stroke="#EEEEEE" stroke-width="5" stroke-linejoin="round" stroke-linecap="round" fill="none" d="
M 57.5 184.8
L 1223.65 184.8
Q 1238.65 184.8 1238.65 199.8
L 1238.65 586.85
Q 1238.65 601.85 1223.65 601.85
L 57.5 601.85
Q 42.5 601.85 42.5 586.85
L 42.5 199.8
Q 42.5 184.8 57.5 184.8 Z"/>
</defs>

<g transform="matrix( 1, 0, 0, 1, 0,0) ">
<use xlink:href="#Layer0_0_FILL"/>

<use xlink:href="#Layer0_0_1_STROKES"/>
</g>
</svg>
