<?xml version="1.0" encoding="utf-8"?>
<!-- Generator: Adobe Illustrator 23.0.0, SVG Export Plug-In . SVG Version: 6.00 Build 0)  -->
<svg version="1.1" id="레이어_1" xmlns="http://www.w3.org/2000/svg" xmlns:xlink="http://www.w3.org/1999/xlink" x="0px"
	 y="0px" width="700px" height="267px" viewBox="0 0 700 267" style="enable-background:new 0 0 700 267;" xml:space="preserve">
<title>1_4_8_01</title>
<g id="레이어_2_1_">
	<g id="활동2-2">
		<g>
			<g>
				<rect x="9.4" y="78.2" style="fill:#D9E6B4;" width="624.1" height="60.6"/>
				<path style="fill:#367C3E;" d="M689.5,139.8H8.4l-1.1-1V78.2l1.1-1h681.1l1.1,1v60.6L689.5,139.8z M9.4,137.7h679.1V79.3H9.4
					V137.7z"/>
				<path style="fill:#367C3E;" d="M690.2,138.8h-1.3v-4h1.3V138.8z M236.1,138.8h-1.3v-0.5h1.3V138.8z M9,138.8H7.7v-0.5H9V138.8z
					 M236.1,135.6h-1.3v-4h1.3V135.6z M9,135.6H7.7v-4H9V135.6z M690.2,132.1h-1.3v-4h1.3V132.1z M236.1,129h-1.3v-4h1.3V129z
					 M9,129H7.7v-4H9V129z M690.2,125.4h-1.3v-4h1.3V125.4z M236.1,122.3h-1.3v-4h1.3V122.3z M9,122.3H7.7v-4H9V122.3z M690.2,118.8
					h-1.3v-4.1h1.3V118.8z M236.1,115.6h-1.3v-4h1.3V115.6z M9,115.6H7.7v-4H9V115.6z M690.2,112.1h-1.3v-4h1.3V112.1z M236.1,108.9
					h-1.3v-4h1.3V108.9z M9,108.9H7.7v-4H9V108.9z M690.2,105.4h-1.3v-4h1.3V105.4z M236.1,102.3h-1.3v-4h1.3V102.3z M9,102.3H7.7
					v-4H9V102.3z M690.2,98.7h-1.3v-4h1.3V98.7z M236.1,95.6h-1.3v-4h1.3V95.6z M9,95.6H7.7v-4H9V95.6z M690.2,92.1h-1.3V88h1.3
					V92.1z M236.1,88.9h-1.3v-4h1.3V88.9z M9,88.9H7.7v-4H9V88.9z M690.2,85.4h-1.3v-4h1.3V85.4z M236.1,82.2h-1.3v-4h1.3V82.2z
					 M9,82.2H7.7v-4H9V82.2z M690.2,78.7h-1.3v-0.5h1.3V78.7z"/>
				<rect x="178" y="78.2" style="fill:#367C3E;" width="1.3" height="60.6"/>
				<path style="fill:#367C3E;" d="M633.4,138.8h-1.3v-0.5h1.3V138.8z M463.2,138.8h-1.4v-0.5h1.4V138.8z M406.4,138.8h-1.3v-0.5
					h1.3V138.8z M122.6,138.8h-1.4v-0.5h1.4V138.8z M65.8,138.8h-1.3v-0.5h1.3V138.8z M633.4,135.6h-1.3v-4h1.3V135.6z M463.2,135.6
					h-1.4v-4h1.4V135.6z M406.4,135.6h-1.3v-4h1.3V135.6z M122.6,135.6h-1.4v-4h1.4V135.6z M65.8,135.6h-1.3v-4h1.3V135.6z
					 M633.4,129h-1.3v-4h1.3V129z M463.2,129h-1.4v-4h1.4V129z M406.4,129h-1.3v-4h1.3V129z M122.6,129h-1.4v-4h1.4V129z M65.8,129
					h-1.3v-4h1.3V129z M633.4,122.3h-1.3v-4h1.3V122.3z M463.2,122.3h-1.4v-4h1.4V122.3z M406.4,122.3h-1.3v-4h1.3V122.3z
					 M122.6,122.3h-1.4v-4h1.4V122.3z M65.8,122.3h-1.3v-4h1.3V122.3z M633.4,115.6h-1.3v-4h1.3V115.6z M463.2,115.6h-1.4v-4h1.4
					V115.6z M406.4,115.6h-1.3v-4h1.3V115.6z M122.6,115.6h-1.4v-4h1.4V115.6z M65.8,115.6h-1.3v-4h1.3V115.6z M633.4,108.9h-1.3v-4
					h1.3V108.9z M463.2,108.9h-1.4v-4h1.4V108.9z M406.4,108.9h-1.3v-4h1.3V108.9z M122.6,108.9h-1.4v-4h1.4V108.9z M65.8,108.9
					h-1.3v-4h1.3V108.9z M633.4,102.3h-1.3v-4h1.3V102.3z M463.2,102.3h-1.4v-4h1.4V102.3z M406.4,102.3h-1.3v-4h1.3V102.3z
					 M122.6,102.3h-1.4v-4h1.4V102.3z M65.8,102.3h-1.3v-4h1.3V102.3z M633.4,95.6h-1.3v-4h1.3V95.6z M463.2,95.6h-1.4v-4h1.4V95.6z
					 M406.4,95.6h-1.3v-4h1.3V95.6z M122.6,95.6h-1.4v-4h1.4V95.6z M65.8,95.6h-1.3v-4h1.3V95.6z M633.4,88.9h-1.3v-4h1.3V88.9z
					 M463.2,88.9h-1.4v-4h1.4V88.9z M406.4,88.9h-1.3v-4h1.3V88.9z M122.6,88.9h-1.4v-4h1.4V88.9z M65.8,88.9h-1.3v-4h1.3V88.9z
					 M633.4,82.2h-1.3v-4h1.3V82.2z M463.2,82.2h-1.4v-4h1.4V82.2z M406.4,82.2h-1.3v-4h1.3V82.2z M122.6,82.2h-1.4v-4h1.4V82.2z
					 M65.8,82.2h-1.3v-4h1.3V82.2z"/>
				<path style="fill:#367C3E;" d="M519.9,138.8h-1.3V78.2h1.3V138.8z M349.6,138.8h-1.3V78.2h1.3V138.8z"/>
				<path style="fill:#367C3E;" d="M576.7,138.8h-1.4v-0.5h1.4V138.8z M292.9,138.8h-1.4v-0.5h1.4V138.8z M576.7,135.6h-1.4v-4h1.4
					V135.6z M292.9,135.6h-1.4v-4h1.4V135.6z M576.7,129h-1.4v-4h1.4V129z M292.9,129h-1.4v-4h1.4V129z M576.7,122.3h-1.4v-4h1.4
					V122.3z M292.9,122.3h-1.4v-4h1.4V122.3z M576.7,115.6h-1.4v-4h1.4V115.6z M292.9,115.6h-1.4v-4h1.4V115.6z M576.7,108.9h-1.4
					v-4h1.4V108.9z M292.9,108.9h-1.4v-4h1.4V108.9z M576.7,102.3h-1.4v-4h1.4V102.3z M292.9,102.3h-1.4v-4h1.4V102.3z M576.7,95.6
					h-1.4v-4h1.4V95.6z M292.9,95.6h-1.4v-4h1.4V95.6z M576.7,88.9h-1.4v-4h1.4V88.9z M292.9,88.9h-1.4v-4h1.4V88.9z M576.7,82.2
					h-1.4v-4h1.4V82.2z M292.9,82.2h-1.4v-4h1.4V82.2z"/>
				<rect x="8.4" y="56.4" width="681.2" height="2.7"/>
				<path d="M690.2,57.7h-1.3V35.9h1.3V57.7z M519.9,57.7h-1.3V35.9h1.3V57.7z M349.6,57.7h-1.3V35.9h1.3V57.7z M179.3,57.7H178
					V35.9h1.3V57.7z M9,57.7H7.7V35.9H9V57.7z"/>
				<path d="M633.2,57.7h-0.8V43.6h0.8V57.7z M576.4,57.7h-0.8V43.6h0.8V57.7z M462.9,57.7h-0.8V43.6h0.8V57.7z M406.1,57.7h-0.8
					V43.6h0.8V57.7z M292.6,57.7h-0.8V43.6h0.8V57.7z M235.8,57.7H235V43.6h0.8V57.7z M122.3,57.7h-0.8V43.6h0.8V57.7z M65.5,57.7
					h-0.8V43.6h0.8V57.7z"/>
				<path d="M7.3,139l0.6-0.2"/>
			</g>
			<g>
				<path style="fill:#D02E7D;" d="M486.2,175c0,0,0.2-0.8,0.6,0.3l0.6,0.8l0.8,0.5v0.7c0.1-1.8-1.5,5.6-18.2-1
					c-0.2,0-5.9-3.6-11.6-10.8c1.4-0.1-6.1-2.9-1.2-11.5c1.7-1.8,7-6.3,11.6-2c4.4,2.4,3.6,11.3-1.6,12.8
					c-10.4,4.6-18.1-5.6-20.6-11.1c-2.1-3.8-3.6-7.9-4.4-12.2c0.2-0.2,1.8,10.2,8.9,18.8c3.4,4.3,9.8,7.1,14.7,5.1s6.1-6.2,5.9-7
					s-0.3,3.8-4.2,6s-10.3,1.6-14.2-2.2c-7.9-7.5-10-18.2-10.3-19.6s1.9,9.5,8.5,17.3c7.1,10.4,21.2,2.8,19.3-0.6
					c1.8,0.2-7.3,10.6-16,3c-7.5-6.1-9.7-16.1-10.3-17.9c-0.1,0,2,6.3,3,7.7l-1.1-2.8c0.6,1.5,1.3,3,2.1,4.4l1.4,2.5
					c-0.2,0.1-3.5-6.8-3.4-7.5s-2.4-2.6,4.9,9c1.1,1.6,2.5,3,4.1,4.1c2.4,2.3,10.4,4.7,14.1-2.3c1.4-3.1-2.4-8.2-6.5-7
					s-7.8,6.1-3.7,10.2c5.9,7.2,15.4,17.6,26.7,12.3"/>
				<path style="fill:#E4A1C0;" d="M480.1,179.4c-1.4,0-2.8-0.2-4.2-0.4c-4.2-1.4-8.1-3.8-11.4-6.8c-2.1-1.9-3.9-4-5.5-6.3
					c-1.2-0.2-2.4-0.7-3.4-1.4c-2.6-1.6-4.9-3.8-6.6-6.4l-0.4-0.6h-0.1c-0.8-0.5-6.2-11.4-7.3-18.5c1.1,7.1,6.5,18,7.3,18.5h0.1
					l0.4,0.6c1.7,2.6,4,4.8,6.6,6.4c1,0.7,2.2,1.2,3.4,1.4c-1.4-1.9-2.6-3.9-3.6-6h-0.1c-0.1,0-0.1-0.1-0.2-0.3s0.5-5.7,3.8-7.4
					c1.4-2.2,5.1-2.8,8.5-1.4c0.7,0.3,1.3,0.7,1.9,1.1c-0.6-0.4-1.2-0.8-1.9-1.1c-3.4-1.4-7-0.7-8.5,1.4c-3.3,1.7-3.9,6.2-3.7,7.4
					s0,0.3,0.1,0.3h0.1c1,2.1,2.2,4.1,3.6,6c2.2,0.5,4.5,0.5,6.7-0.2c2.9-0.9,5.2-3.1,6.2-5.9c0.4-1.8,0.2-3.7-0.5-5.4
					c0.8,1.7,1,3.6,0.5,5.4c-1,2.9-3.3,5.1-6.2,5.9c-2.2,0.7-4.5,0.8-6.7,0.2c1.6,2.3,3.4,4.4,5.5,6.3c3.3,3,7.2,5.4,11.4,6.8
					c4.3,0.8,8.7,0.3,12.6-1.5l0,0C485.9,178.7,483,179.4,480.1,179.4z"/>
				<path style="fill:#D02E7D;" d="M479.8,179.5c-1.2,0-2.5-0.1-3.7-0.4c-6.6-1.3-11.4-6.5-14.8-10.2l-1.9-2l0,0
					c-0.7-0.8-1.4-1.7-2-2.6c-0.8-0.4-1.5-0.8-2.2-1.4c-6.3-4.5-9-12-10.5-16.1c-0.2-0.5-0.4-1.1-0.6-1.6c0.2,0.5,0.4,1.1,0.6,1.6
					c1.5,4.1,4.2,11.6,10.5,16.1c0.7,0.6,1.4,1,2.2,1.4l-0.6-0.9c-1-0.6-1.6-2.8-1.5-5.1s0.5-4.3,3.1-5.6c1.1-1.5,3.7-2.6,6.3-2.6
					h0.4c1.9,0,3.7,0.9,4.8,2.4c1.5,1.6,2.3,3.7,2.3,5.9c0.1,0.6-0.1,1.1-0.4,1.6l0,0c0.3-0.5,0.5-1,0.4-1.6c0-2.2-0.8-4.3-2.3-5.9
					c-1.1-1.5-2.9-2.4-4.8-2.4h-0.4c-2.6,0-5.2,1.1-6.3,2.6c-2.6,1.3-3,4.4-3.1,5.6s0.5,4.4,1.5,5.1c0.2,0.3,0.4,0.6,0.6,0.9
					c3.5,1.6,7.7,1.2,10.8-1.1c1.6-1.1,2.5-2.2,2.4-2.5h0.1c0,0.3-0.9,1.4-2.5,2.5s-6,3.4-10.7,1.1c0.6,0.9,1.2,1.8,1.9,2.6l1.9,2
					c3.4,3.7,8.2,8.9,14.8,10.2c4.3,0.8,8.7,0.2,12.6-1.6l0,0C485.9,178.8,482.9,179.5,479.8,179.5z"/>
				<path style="fill:#E4A1C0;" d="M462.5,163.8h-0.6c-3.7-0.5-7-2.4-9.3-5.3c-1.6-1.9-3-4.1-4-6.4l-0.2-0.5l0.2,0.5
					c1,2.3,2.4,4.5,4,6.4c2.7,3.1,5.8,4.9,9.3,5.2h0.6c2.2-0.1,4.3-1,5.8-2.6c1-1,1.5-2.5,1.4-3.9c-0.5-1.7-1.4-3.1-2.8-4.2l0,0
					c1.4,1.1,2.3,2.5,2.8,4.2c0.3,1.2-0.3,2.6-1.4,3.9C466.8,162.7,464.7,163.7,462.5,163.8z"/>
				<path style="fill:#D02E7D;" d="M473.8,188.2c0,0,0.1,0.7-0.4-0.4l-0.5-0.8l-0.5-0.6l-0.2-0.6c0,0,0.4-0.5,6-3.5
					c1.7-1.1,3.5-2,5.3-2.9l3.6-1.6c0.6,0.7,3.5-3.7,2.6,1l-2.7-3.9c-3.6-5.3-7.4-10.9-7.7-11.8s8.5,13.2,9.3,13.9
					s-8.3-12.6-8.6-13.7s7.9,12.2,9,12.9s-7.3-11.2-7.8-12.8c0.5,0.9,1.1,1.8,1.8,2.7l-0.6-1l1.1,1.6l0.5,0.9
					c-0.5-0.9-1-1.9-1.4-2.9c0,0-1-1,2.2,3.4c0,0,1.7,2.8,4.9,7.4c3.9,2.7-1.7,4.1-4.6,5.9S477.9,185.5,473.8,188.2"/>
				<path style="fill:#E4A1C0;" d="M471.9,185.6L471.9,185.6c0-0.1,6.9-3.8,13.5-7.2l2.4-1.1l0.6-0.3l-0.2-0.2h-0.1
					c-3.3-4.7-5.2-7.4-5.5-8c-1.5-2-2.9-4.2-4.1-6.4c1.2,2.2,2.6,4.4,4.1,6.4c0.3,0.6,2.2,3.3,5.5,8h0.1l0.2,0.2l1.8-0.8
					c-0.4,1.7-0.7,2.5-1,2.6l0,0c-0.2,0-0.3-0.5-0.5-1l-0.3-0.8l-0.6,0.3l-2.4,1.1C478.8,181.8,471.9,185.5,471.9,185.6z M488.4,177
					l0.3,0.8c0.2,0.5,0.3,0.9,0.5,0.9l0,0c0.3,0,0.6-0.8,1-2.5L488.4,177z"/>
				<path style="fill:#D02E7D;" d="M471.9,185.6c3.6-2.2,7.2-4.3,11-6.1l4.6-2.1h0.2l0.6-0.3l-0.3-0.4l0,0l0.3,0.4l0.5-0.4
					c0.6-0.4,1-0.8,1.2-0.7s0,1-0.7,2.6l-1-1.5l-0.6,0.3h-0.2l-4.6,2.1C479.3,181.2,471.9,185.5,471.9,185.6z M488.3,177.2
					c0.2,0.3,0.6,0.8,1,1.5c0.7-1.5,0.9-2.4,0.7-2.5s-0.7,0.2-1.2,0.6L488.3,177.2z M488.6,176c0-0.1-6.5-9.8-7.8-12
					c1.3,2.2,7.8,11.9,7.9,12H488.6z"/>
				<path style="fill:#E4A1C0;" d="M491.4,178.3L491.4,178.3c0.3-0.5-2.6-4.8-4.9-8.3l-2.8-4.4l2.8,4.4
					C488.9,173.5,491.7,177.8,491.4,178.3z"/>
				<g>
					<path style="fill:#D02E7D;" d="M238.7,126.1c0,0,1,4.6-0.6,4.3l-1.3,1.9l-1,4.6l-1-1.4c0,0,0-3-0.2-22.8c0-5,0-11-0.1-18.2
						c0-3.7,0-7.6-0.1-11.9v-6.7c4-4.9-0.3-1.4,2.8-2.5l88.3-0.3c0,0,59.6-0.5,140.1-0.5h164.7c1.6,1.1-1.3-2.5,4,2.5v13.2
						c-0.1,15.8-0.1,32.1-0.1,48.7v5.1c-4.9,4.6-1.6,1.3-2.8,2.3h-44.2c-151.3-0.1-308.1-0.3-330.1-0.6l185.8,0.3l132.6,0.2h40.2
						c7.1-1.1,10,2.2,18.4-2.4v-3.8c-1.2,2,2.7,0.8-2.7,6.1H591l-123.2-0.3c-90.9-0.2-185-0.4-198.5-0.7
						c0.1-0.9,333.3,2.9,363.7-2.1c-0.2,4.4-306.4,0.6-344.3,1c0,0,60,0.2,76,0.1h43c0,0-70.4-0.4-75.3-0.6c0,0-32.1,0.3,94.9,0.2
						c0,0,69.2,0.3,200.4,0.3c6,1.6,3.2-4.1,3.9-7.5V123c0-7.7,0-15.7-0.1-23.9s0.8-17.6-0.8-23.9h-23l-127.9,0.3l-145.4,0.8
						l-78.6,0.5h-19.4c3.8-2.9,1.1,1.8,1.9,2.4v9.2l0.3,37.5"/>
					<path style="fill:#E4A1C0;" d="M631.4,145L631.4,145l0.2-0.3l0.3-0.2l-0.3,0.2h-0.3l-221.4-0.2c-1.1,0-111.7,0-176.9-0.4
						c65.2,0.4,175.8,0.4,176.9,0.4l221.4,0.2h0.3l0.3-0.2l-0.3,0.2L631.4,145l3.1-2.8V75.1l0.6,0.5l-3.5-3.2H516.1l-244.9,0.7
						h-34.8c-2.9,3-2.6,3.8-2.2,4.6c0.2,0.5,0.2,1.2,0,1.7c0,12.3,0.1,23.1,0.1,32c0.1,17.8,0.1,28,0.1,28l0,0c0,0,0-10.2-0.1-28
						c0-8.9-0.1-19.7-0.1-32c0.2-0.6,0.2-1.2-0.1-1.7c-0.3-0.8-0.6-1.6,2.3-4.6h34.8l244.9-0.7h115.5l3.5,3.1h0.1l-0.6-0.5v67.1
						L631.4,145z"/>
					<path style="fill:#D02E7D;" d="M631.7,144.7l2.9-2.5v-1.5c0.1-1.2,0.1-2.6,0.1-4.2V75l-3.1-2.8l0.2,0.2l0.2,0.2l0,0l-0.2-0.2
						h-187c-48.3,0-121.2,0.3-174.9,0.5h-33.6c-1.8,1.5-2.6,2.2-2.5,2.4h0.4c0.1,0.1,0,0.2-0.2,0.4v7.4c0,10,0.1,19,0.1,26.7
						c0.2,18.2,0.2,29.4,0.2,29.4s-0.1-11.2-0.2-29.4c0-7.7-0.1-16.7-0.1-26.7V76c0.2-0.2,0.3-0.3,0.2-0.4h-0.4
						c0-0.1,0.2-0.5,2.5-2.4h33.6c53.7-0.2,126.6-0.5,174.9-0.5h186.9l0.2,0.2l-0.2-0.2l-0.3-0.2l0,0l3.2,2.8v67l0.5-0.4H635
						L631.7,144.7z M622.3,143.5c-2.7,0-268.6-0.3-327.9-0.6C353.7,143.2,619.6,143.5,622.3,143.5z"/>
					<path style="fill:#E4A1C0;" d="M631.2,141.9c-0.6-0.2-1.3-0.3-2-0.2h-84.6l-180.9-0.4l180.9,0.4h83.3
						C629.4,141.7,630.9,141.6,631.2,141.9v-16.1c0.1-27,0.1-44.7,0.1-44.7l0,0c0,0,0,17.7-0.1,44.7V141.9z"/>
				</g>
			</g>
		</g>
	</g>
</g>
<path style="fill:none;stroke:#000000;stroke-width:0.6822;stroke-dasharray:4.0934,2.7289;" d="M7.4,138.7
	c33,135.5,183.2,124.8,227.6,0"/>
<g>
	<path d="M11.4,0.7c3.8,0,6.6,1.2,8.3,3.7s2.6,6.1,2.6,10.7v2.1c0,4.7-0.9,8.3-2.6,10.7c-1.7,2.5-4.5,3.7-8.3,3.7s-6.6-1.2-8.3-3.7
		s-2.6-6.1-2.6-10.7v-2.1c0-4.7,0.9-8.3,2.6-10.7C4.8,1.9,7.6,0.7,11.4,0.7z M11.4,4.6c-1.2,0-2.3,0.2-3.1,0.6s-1.5,1.1-2,2
		s-0.9,2-1.1,3.4s-0.3,3-0.3,4.9v1.4c0,1.9,0.1,3.5,0.3,4.9c0.2,1.4,0.6,2.5,1.1,3.4s1.2,1.5,2,2c0.8,0.4,1.9,0.6,3.1,0.6
		s2.3-0.2,3.1-0.6s1.5-1.1,2-2s0.9-2,1.1-3.4s0.3-3,0.3-4.9v-1.4c0-1.9-0.1-3.5-0.3-4.9c-0.2-1.4-0.6-2.5-1.1-3.4s-1.2-1.5-2-2
		C13.7,4.8,12.6,4.6,11.4,4.6z"/>
	<path d="M179.1,0.9c0.6,0,1.2,0.1,1.6,0.4c0.4,0.3,0.6,0.7,0.6,1.4v26.9c0,0.6-0.2,1.1-0.6,1.4c-0.4,0.3-0.9,0.4-1.5,0.4
		s-1.1-0.1-1.5-0.4s-0.6-0.7-0.6-1.4V5.9l-6.3,3.9c-0.5,0.3-1,0.4-1.5,0.2s-0.9-0.5-1.1-1c-0.2-0.5-0.3-0.9-0.2-1.4s0.4-0.9,0.9-1.2
		l7.6-4.5c0.6-0.3,1.1-0.5,1.5-0.7C178.2,1,178.6,0.9,179.1,0.9z"/>
	<path d="M348.2,0.7c1.6,0,3,0.2,4.2,0.6s2.1,0.9,2.9,1.6s1.4,1.5,1.8,2.4s0.6,1.9,0.6,3v0.4c0,1.6-0.3,3.1-1,4.4
		c-0.7,1.4-1.7,2.8-3.2,4.3l-9.7,10.2h13.8c0.5,0,0.9,0.2,1.1,0.5c0.2,0.4,0.4,0.8,0.4,1.2c0,0.5-0.1,0.9-0.4,1.2
		c-0.2,0.4-0.6,0.5-1.1,0.5h-16.3c-1.1,0-1.9-0.2-2.4-0.5c-0.5-0.4-0.7-0.9-0.7-1.7c0-0.4,0.1-0.7,0.3-1.1c0.2-0.3,0.5-0.7,1-1.2
		l10.3-10.9c0.8-0.8,1.4-1.5,1.8-2.1c0.5-0.6,0.8-1.2,1.1-1.7c0.3-0.5,0.5-1.1,0.6-1.6s0.1-1,0.1-1.6V8.5c0-1.2-0.4-2.2-1.3-3
		c-0.9-0.7-2.1-1.1-3.8-1.1c-1.4,0-2.6,0.3-3.6,0.9s-1.8,1.4-2.6,2.5c-0.3,0.4-0.7,0.7-1.2,0.7c-0.5,0.1-0.9,0-1.4-0.4
		c-0.5-0.3-0.7-0.7-0.9-1.2c-0.1-0.5,0-1,0.3-1.4c0.9-1.4,2.1-2.6,3.6-3.5C344.1,1.1,346,0.7,348.2,0.7z"/>
	<path d="M519.1,0.7c1.6,0,3,0.2,4.2,0.6s2.2,0.9,3,1.6s1.4,1.5,1.8,2.5c0.4,0.9,0.6,1.9,0.6,3v0.2c0,0.7-0.1,1.5-0.3,2.2
		s-0.5,1.4-1,2c-0.4,0.6-1,1.2-1.6,1.7c-0.7,0.5-1.4,0.9-2.3,1.2c0.9,0.1,1.7,0.4,2.5,0.7c0.8,0.4,1.5,0.8,2.1,1.4s1,1.2,1.4,2.1
		c0.3,0.8,0.5,1.7,0.5,2.7V23c0,1.2-0.2,2.3-0.7,3.3c-0.4,1.1-1.1,2-2,2.8s-2,1.4-3.3,1.9s-2.9,0.7-4.7,0.7c-3.4,0-6.3-0.8-8.7-2.5
		c-0.5-0.3-0.8-0.8-0.9-1.3s0-1,0.3-1.5s0.7-0.8,1.2-0.9s1,0,1.5,0.3c1,0.7,2.1,1.2,3.1,1.6c1,0.3,2.1,0.5,3.3,0.5s2.2-0.1,3-0.4
		s1.5-0.7,2.1-1.1c0.5-0.5,0.9-1,1.1-1.6c0.2-0.6,0.4-1.3,0.4-1.9v-0.3c0-0.9-0.2-1.7-0.5-2.3c-0.3-0.6-0.8-1.1-1.4-1.5
		c-0.6-0.4-1.3-0.7-2.1-0.8c-0.8-0.2-1.7-0.3-2.7-0.3h-2.4c-0.5,0-0.9-0.2-1.2-0.5c-0.2-0.4-0.4-0.8-0.4-1.3s0.1-0.9,0.4-1.3
		c0.2-0.4,0.6-0.5,1.2-0.5h2.1c1.7,0,3.1-0.4,4.3-1.2c1.1-0.8,1.7-2.1,1.7-3.8V8.7c0-1.3-0.5-2.3-1.4-3.1s-2.3-1.2-4.2-1.2
		c-1.2,0-2.2,0.2-3.1,0.6c-0.9,0.4-1.7,1-2.4,1.9c-0.4,0.4-0.8,0.6-1.3,0.5c-0.5,0-0.9-0.3-1.2-0.7c-0.4-0.4-0.5-0.8-0.5-1.3
		s0.2-0.9,0.5-1.3c0.8-1,1.9-1.9,3.3-2.5C515.7,1,517.3,0.7,519.1,0.7z"/>
	<path d="M692,1.2c0.5,0.3,0.7,0.7,0.9,1.2c0.1,0.5,0,1-0.4,1.5l-12,17.3h10.2v-7.7c0-0.6,0.2-1.1,0.6-1.4c0.4-0.3,0.9-0.4,1.4-0.4
		c0.6,0,1.1,0.1,1.5,0.4c0.4,0.3,0.6,0.7,0.6,1.4v7.7h3.1c0.5,0,0.9,0.2,1.1,0.5c0.2,0.3,0.3,0.7,0.3,1.2s-0.1,0.9-0.3,1.2
		c-0.2,0.3-0.6,0.5-1.1,0.5H695v4.9c0,0.6-0.2,1.1-0.6,1.4c-0.4,0.3-0.9,0.4-1.5,0.4c-0.5,0-1-0.1-1.4-0.4s-0.6-0.7-0.6-1.4v-4.9
		h-12.6c-1,0-1.7-0.2-2.1-0.5c-0.4-0.3-0.6-0.9-0.6-1.6c0-0.3,0.1-0.6,0.2-0.9c0.1-0.3,0.4-0.8,1-1.6l12.8-18.4
		c0.3-0.5,0.7-0.8,1.2-0.8C691.1,0.9,691.5,1,692,1.2z"/>
</g>
</svg>
