<?xml version="1.0" encoding="utf-8"?>
<!-- Generator: Adobe Illustrator 23.0.0, SVG Export Plug-In . SVG Version: 6.00 Build 0)  -->
<svg version="1.1" id="레이어_1" xmlns="http://www.w3.org/2000/svg" xmlns:xlink="http://www.w3.org/1999/xlink" x="0px"
	 y="0px" width="40.2px" height="44.7px" viewBox="0 0 40.2 44.7" style="enable-background:new 0 0 40.2 44.7;"
	 xml:space="preserve">
<style type="text/css">
	.st0{fill:#FFFFFF;}
	.st1{fill:#D5577C;}
	.st2{fill:#CB3A61;}
	.st3{fill:#D86D8D;}
	.st4{fill:#DE88A8;}
	.st5{fill:#EAB8CC;}
</style>
<g>
	<g>
		<g transform="translate(718.5 89.2) scale(0.5)">
		</g>
		<path class="st0" d="M33,44.7c-0.5,0-1,0-1.5-0.2c-3-0.7-5-3.4-6.6-5.4l-0.3-0.3l-0.9-1.4c-0.8-1.2-2.7-4-3.7-4l0,0
			c-0.3,0-0.9,0.8-1.2,1.3l-0.4,0.6l-1.5,1.8c-1.1,1.5-2.3,2.9-3.6,4.2c-2.8,3.1-6.1,4.1-9.2,2.8C2.3,43.3,1,41.8,0.4,40
			c-0.7-2-0.4-4.2,0.7-6c1.4-2.1,3-4.1,4.8-5.8c1.4-1.4,2.7-3,3.9-4.6c0.4-0.4,0.6-1.1,0.5-1.7c-0.1-0.4-0.3-0.7-0.6-1H9.6l-1.4-1.5
			L7.8,19l-0.5-0.5l-0.8-0.8l-0.7-0.8l-0.4-0.5C2.9,13.7-0.4,9.5,0.1,5.8c0.3-1.9,1.4-3.5,3-4.5C9.5-3,14.9,4.6,18.2,9.1l1.7,2.2
			c0.7-0.4,2.4-1.8,6.5-7.1l0.9-1c1.5-1.8,3.1-3.4,6-3.2c3.2,0.3,5.9,2.6,6.7,5.8h0.1v1.6c0,0.2,0,0.5-0.1,0.7
			c-0.6,2.9-3.2,5.5-5.3,7.6L33.5,17l-0.8,0.8c-1.4,1.4-2.6,2.6-2.8,3.8v0.2c0,1,0.5,2,1.3,2.6l1.9,1.9c3.5,3.6,8.4,8.5,6.8,13.5
			c-1,2.9-3.8,4.8-6.8,4.8"/>
	</g>
	<path class="st0" d="M28.5,21.3L28.5,21.3c0.4-1.6,2-3.1,3.7-4.9l0.3-0.3c2.1-2.2,5.6-5.1,6.2-8.2V6.2l0,0c-0.5-2.7-2.8-4.7-5.5-5
		c-2.3-0.2-3.6,1.1-5,2.7s-7.6,10.4-9.2,8.4C15.8,8.5,10.3-2,3.9,2.2S3,11.5,6.4,15.3h0.1l0.2,0.3h0.1l0.7,0.8h0.1l0.2,0.2L8,16.8
		l0.3,0.4l0.5,0.4l1.9,2.1l0,0c1.1,1.2,1.2,3.1,0.2,4.4c-2.5,3.6-6.3,6.5-8.6,10.4C0.6,37,1.2,40.3,3.7,42c0.3,0.2,0.6,0.4,0.9,0.5
		c2.9,1.2,5.7-0.4,7.6-2.5s3.3-3.9,5-5.9s1.5-2.4,2.7-2.3s4.5,4.3,5.7,5.9s3.5,4.5,6.1,5.2c2.8,0.5,5.6-1,6.7-3.6
		c1.7-5.2-5.4-10.8-8.4-14.1c-1.4-1.6-1.8-2.9-1.5-4.1"/>
	<path class="st1" d="M38.7,7.9c0.4-3.3-1.9-6.3-5.2-6.7c-0.1,0-0.2,0-0.3,0c-2.3-0.2-3.6,1.1-5,2.7s-7.5,10.4-9.2,8.4
		C15.8,8.5,10.3-2,3.9,2.2s1.2,11.7,4.5,15.2s4.5,3.9,2.5,6.9s-6.3,6.5-8.6,10.4c-1.7,2.5-1.1,5.8,1.4,7.5c0.3,0.2,0.6,0.4,0.9,0.5
		c2.9,1.2,5.7-0.4,7.6-2.5s3.3-3.9,5-5.9s1.5-2.4,2.8-2.3s4.5,4.3,5.7,5.9s3.4,4.5,6.1,5.2c2.8,0.6,5.6-0.9,6.6-3.6
		c1.7-5.2-5.4-10.8-8.4-14.1s-0.6-6.1,2.5-9.4S38,11,38.7,7.9"/>
	<path class="st2" d="M11.6,21.6c0.5-2.2-1.5-3.8-3.2-5.6S2,9.5,1.5,5.7c-0.6,4.1,4.4,9.1,6.9,11.8S11.2,20.1,11.6,21.6"/>
	<path class="st2" d="M38.7,6.4c-0.6,3.1-4.1,6-6.2,8.2s-4.5,4.3-4,6.8c0.4-1.8,2.2-3.4,4-5.3c1.8-1.9,5.6-5.1,6.2-8.2
		c0.1-0.6,0.1-1.1,0-1.7V6.4"/>
	<path class="st3" d="M32.9,40h-0.7c-1.8-0.5-3.4-2.5-4.8-4.3l-0.2-0.3l-0.8-1.2c-1.5-2.3-3.6-5.4-6.4-5.5l0,0c-2,0-3.2,1.6-3.9,2.6
		l-0.4,0.4l-1.5,1.8c-1.1,1.4-2.2,2.8-3.4,4.1c-1,1.3-2.5,2.2-4.1,2.3c-0.5,0-1-0.1-1.4-0.3c-0.9-0.4-1.5-1.1-1.8-2
		c-0.4-1.1-0.2-2.3,0.4-3.3c1.3-1.9,2.8-3.7,4.4-5.3c1.5-1.5,2.9-3.2,4.2-4.9c2.6-3.9-0.1-6.7-1.9-8.5l-0.8-0.8l-0.4-0.4
		c-2-2.2-6.3-6.7-6-9.7C3.6,3.8,4.2,3,5,2.6c0.6-0.5,1.3-0.7,2-0.7c3,0,6.3,4.7,8.5,7.7c0.8,1,1.4,1.9,2.1,2.7
		c0.5,0.6,1.2,0.9,2,0.9c2.1,0,4.6-2.2,9.4-8.4c0.2-0.3,0.4-0.6,0.7-0.9c1.2-1.5,1.9-2.1,3.1-2.1h0.3c1.2,0.1,2.2,0.7,2.9,1.7
		c0.6,0.7,0.9,1.7,0.8,2.7c-0.4,2-2.6,4.2-4.4,5.9l-1.3,1.4l-0.8,0.8c-2.6,2.6-6.1,6.3-1.7,11.1c0.6,0.8,1.3,1.5,2,2.1
		c2.8,2.8,7,7.1,6,10.1C36,39,34.5,40,32.9,40L32.9,40z"/>
	<path class="st4" d="M36.7,10.2c0.1,0-0.2,0.6-0.9,1.4c-0.8,0.9-1.8,1.9-2.7,2.7c-0.9,0.8-1.8,1.7-2.7,2.6c-0.6,0.8-0.9,1.3-1,1.2
		s0-0.6,0.6-1.5c0.7-1.1,1.6-2.1,2.6-2.9l2.9-2.5C36.1,10.5,36.6,10.1,36.7,10.2"/>
	<path class="st4" d="M11,18.3c-0.2,0.2-1.8-1.2-3.5-3.1c-1.2-1.1-2.2-2.3-3-3.7c0.2-0.2,1.7,1.2,3.5,3.1C9.2,15.7,10.2,17,11,18.3"
		/>
	<path class="st5" d="M11.5,5.1c-0.1,0.1-0.5-0.2-1.1-0.6L7.8,3.2L6.4,2.9C6,2.9,5.7,3,5.4,3.2C4.8,3.5,4.6,4,4.4,3.9
		S4.2,3.3,4.8,2.6c0.4-0.4,0.9-0.7,1.5-0.8c0.6,0,1.3,0.1,1.9,0.3c1,0.4,2,1,2.7,1.8C11.4,4.5,11.7,5,11.5,5.1"/>
	<path class="st5" d="M20.7,13.2c0.1,0,0,0.2-0.2,0.3v0.2h-0.8c-0.5,0-1-0.1-1.5-0.3l-1.4-1.1c-0.7-0.7-1.3-1.6-1.8-2.5
		c-0.3-0.7-0.5-1.1-0.4-1.2s0.5,0.2,1,0.7l1.9,2.2l1.2,1c0.3,0.2,0.6,0.4,1,0.4c0.6,0.1,1-0.1,1.1,0.1"/>
	<path class="st5" d="M25.4,9.9c0.2,0,0.2,0.3,0.1,0.6c-0.1,0.4-0.3,0.7-0.6,1c-0.7,0.6-1.4,0.7-1.6,0.5s0.3-0.8,0.9-1.3
		S25.1,9.7,25.4,9.9"/>
	<path class="st5" d="M36.1,4.3c-0.2,0.1-0.5-0.3-1.2-0.9c-0.4-0.3-0.8-0.5-1.2-0.6c-0.5,0-1,0.1-1.4,0.4c-1,0.6-1.8,1.4-2.5,2.3
		l-1.1,1c-0.1-0.1,0-0.7,0.5-1.5l1-1.3c0.4-0.5,0.9-1,1.5-1.4c0.7-0.4,1.5-0.6,2.3-0.4c0.6,0.2,1.1,0.5,1.5,1
		C36.1,3.6,36.2,4.2,36.1,4.3"/>
	<path class="st2" d="M38.4,38.1c-1,2.7-3.8,4.2-6.6,3.6c-2.7-0.6-4.5-3.2-6.1-5.2s-3.5-5.9-5.7-5.9s-2.1,1.4-2.8,2.3s-3.3,4.1-5,6
		s-4.7,3.6-7.6,2.4c-1.7-0.7-3-2.3-3.2-4.1c-0.3,2.4,1,4.7,3.2,5.6c2.9,1.2,5.7-0.4,7.6-2.5s3.3-3.9,5-5.9s1.5-2.4,2.8-2.3
		s4.5,4.3,5.7,5.9s3.4,4.5,6.1,5.2c2.8,0.6,5.6-0.9,6.6-3.6c0.3-0.7,0.3-1.5,0.2-2.3C38.6,37.5,38.5,37.8,38.4,38.1"/>
	<path class="st4" d="M11.4,39.8c0,0.1-0.3,0.5-1.1,1.1c-1,0.7-2.2,1.2-3.4,1.4c-1.3,0.1-2.6-0.3-3.5-1.2c-0.7-0.7-0.8-1.3-0.7-1.3
		s0.4,0.4,1,0.9c0.9,0.6,2,0.9,3.1,0.8c1.1-0.2,2.2-0.6,3.2-1.1C10.8,40,11.3,39.7,11.4,39.8"/>
	<path class="st4" d="M37.7,39.7c0,0.1,0,0.2-0.2,0.4c-0.2,0.3-0.5,0.6-0.8,0.8l-0.3,0.3l-0.3,0.2l-0.4,0.3l-0.5,0.2
		c-0.7,0.3-1.4,0.4-2.1,0.4c-0.7,0-1.4-0.2-2.1-0.4L29.5,41c-0.4-0.3-0.7-0.7-1-1.1c0.1-0.1,0.5,0.2,1.3,0.7l1.5,0.6
		c0.6,0.2,1.2,0.4,1.8,0.4c1.1,0,2.2-0.4,3.2-1l0.9-0.6L37.7,39.7"/>
</g>
</svg>
