<?xml version="1.0" encoding="utf-8"?>
<!-- Generator: Adobe Illustrator 22.0.1, SVG Export Plug-In . SVG Version: 6.00 Build 0)  -->
<svg version="1.1" id="레이어_1" xmlns="http://www.w3.org/2000/svg" xmlns:xlink="http://www.w3.org/1999/xlink" x="0px"
	 y="0px" viewBox="0 0 1108 71.2" style="enable-background:new 0 0 1108 71.2;" xml:space="preserve">
<title>1_4_4_02</title>
<g id="레이어_2_1_">
	<g id="활동2-2">
		<g>
			<rect x="9.4" y="63.2" width="1087.2" height="2.9"/>
			<path d="M1097.3,64.7h-1.4V40.5h1.4V64.7z M825.5,64.7h-1.4V40.5h1.4V64.7z M553.7,64.7h-1.4V40.5h1.4V64.7z M281.9,64.7h-1.4
				V40.5h1.4V64.7z M10.1,64.7H8.7V40.5h1.4C10.1,40.5,10.1,64.7,10.1,64.7z"/>
			<path d="M1042.7,64.7h-0.9V49h0.9V64.7z M988.3,64.7h-0.9V49h0.9V64.7z M934,64.7h-0.9V49h0.9V64.7z M879.6,64.7h-0.9V49h0.9
				V64.7z M770.9,64.7H770V49h0.9V64.7z M716.5,64.7h-0.9V49h0.9V64.7z M662.2,64.7h-0.9V49h0.9V64.7z M607.8,64.7h-0.9V49h0.9V64.7
				z M499.1,64.7h-0.9V49h0.9V64.7z M444.7,64.7h-0.9V49h0.9V64.7z M390.4,64.7h-0.9V49h0.9V64.7z M336,64.7h-0.9V49h0.9V64.7z
				 M227.3,64.7h-0.9V49h0.9V64.7z M172.9,64.7H172V49h0.9V64.7z M118.6,64.7h-0.9V49h0.9V64.7z M64.2,64.7h-0.9V49h0.9V64.7z"/>
		</g>
	</g>
</g>
<g>
	<path d="M13.1,0.7c4.5,0,7.8,1.5,9.8,4.4c2,2.9,3,7.2,3,12.7v2.5c0,5.5-1,9.8-3,12.7c-2,2.9-5.3,4.4-9.8,4.4s-7.8-1.5-9.8-4.4
		c-2-2.9-3-7.2-3-12.7v-2.5c0-5.5,1-9.8,3-12.7C5.3,2.1,8.6,0.7,13.1,0.7z M13.1,5.3c-1.5,0-2.7,0.3-3.7,0.8S7.6,7.4,7,8.4
		c-0.6,1-1,2.4-1.3,4c-0.3,1.6-0.4,3.5-0.4,5.7v1.6c0,2.2,0.1,4.1,0.4,5.8s0.7,2.9,1.3,4c0.6,1,1.4,1.8,2.4,2.3s2.2,0.8,3.7,0.8
		c1.5,0,2.7-0.3,3.7-0.8s1.8-1.3,2.4-2.3c0.6-1.1,1-2.4,1.3-4s0.4-3.5,0.4-5.8v-1.6c0-2.2-0.1-4.2-0.4-5.7c-0.3-1.6-0.7-2.9-1.3-4
		c-0.6-1.1-1.4-1.8-2.4-2.3S14.6,5.3,13.1,5.3z"/>
	<path d="M281.4,0.9c0.8,0,1.4,0.2,1.9,0.5c0.5,0.3,0.7,0.9,0.7,1.6v31.8c0,0.7-0.3,1.3-0.8,1.6c-0.5,0.3-1.1,0.5-1.8,0.5
		c-0.7,0-1.3-0.2-1.8-0.5c-0.5-0.3-0.8-0.9-0.8-1.6V6.8l-7.5,4.6c-0.6,0.4-1.2,0.4-1.8,0.2c-0.6-0.2-1-0.6-1.4-1.2
		c-0.3-0.5-0.4-1.1-0.3-1.7c0.1-0.6,0.4-1,1-1.4l9-5.4c0.7-0.4,1.3-0.6,1.8-0.8C280.4,1,280.9,0.9,281.4,0.9z"/>
	<path d="M551.1,0.7c1.9,0,3.5,0.2,4.9,0.7c1.4,0.5,2.5,1.1,3.5,1.9c0.9,0.8,1.6,1.8,2.1,2.9c0.4,1.1,0.7,2.3,0.7,3.5v0.5
		c0,1.9-0.4,3.6-1.2,5.3c-0.8,1.6-2.1,3.3-3.8,5l-11.5,12.1h16.3c0.6,0,1,0.2,1.3,0.6c0.3,0.4,0.4,0.9,0.4,1.5
		c0,0.6-0.1,1.1-0.4,1.5c-0.3,0.4-0.7,0.6-1.3,0.6h-19.3c-1.3,0-2.2-0.2-2.8-0.6c-0.6-0.4-0.9-1.1-0.9-2c0-0.4,0.1-0.9,0.4-1.3
		c0.2-0.4,0.6-0.9,1.1-1.5l12.2-12.9c0.9-0.9,1.6-1.8,2.2-2.5c0.5-0.7,1-1.4,1.3-2c0.3-0.6,0.6-1.3,0.7-1.9c0.1-0.6,0.2-1.2,0.2-1.9
		V9.9c0-1.5-0.5-2.6-1.5-3.5c-1-0.9-2.5-1.3-4.5-1.3c-1.7,0-3.1,0.3-4.2,1c-1.1,0.7-2.1,1.7-3,3c-0.4,0.5-0.8,0.8-1.4,0.9
		c-0.6,0.1-1.1-0.1-1.6-0.4c-0.5-0.4-0.9-0.8-1-1.4c-0.2-0.6,0-1.1,0.3-1.7c1.1-1.7,2.5-3.1,4.3-4.2C546.3,1.2,548.5,0.7,551.1,0.7z
		"/>
	<path d="M822,0.7c1.9,0,3.6,0.2,5,0.7c1.4,0.5,2.6,1.1,3.6,2c1,0.8,1.7,1.8,2.2,2.9c0.5,1.1,0.7,2.3,0.7,3.5v0.3
		c0,0.9-0.1,1.7-0.4,2.5c-0.3,0.8-0.6,1.6-1.1,2.4s-1.1,1.4-1.9,2c-0.8,0.6-1.7,1-2.8,1.4c1.1,0.2,2.1,0.5,3,0.9
		c0.9,0.4,1.7,1,2.4,1.6c0.7,0.7,1.2,1.5,1.6,2.4c0.4,0.9,0.6,2,0.6,3.2v0.5c0,1.4-0.3,2.7-0.8,3.9c-0.5,1.3-1.3,2.4-2.4,3.3
		c-1,0.9-2.4,1.7-4,2.3c-1.6,0.6-3.4,0.9-5.5,0.9c-4,0-7.4-1-10.3-2.9c-0.6-0.4-1-0.9-1.1-1.5c-0.1-0.6,0-1.2,0.4-1.8
		c0.4-0.6,0.8-1,1.4-1.1c0.5-0.1,1.1,0,1.7,0.4c1.2,0.8,2.5,1.5,3.7,1.9c1.2,0.4,2.5,0.6,3.9,0.6c1.4,0,2.6-0.2,3.6-0.5
		c1-0.3,1.8-0.8,2.4-1.3c0.6-0.5,1.1-1.2,1.4-1.9c0.3-0.7,0.4-1.5,0.4-2.3v-0.4c0-1.1-0.2-2-0.6-2.8c-0.4-0.7-1-1.3-1.6-1.8
		c-0.7-0.5-1.5-0.8-2.5-1c-1-0.2-2-0.3-3.2-0.3h-2.8c-0.6,0-1.1-0.2-1.4-0.6c-0.3-0.4-0.4-1-0.4-1.6s0.1-1.1,0.4-1.5
		c0.3-0.4,0.7-0.6,1.4-0.6h2.4c2,0,3.7-0.5,5-1.4c1.3-0.9,2-2.4,2-4.5v-0.1c0-1.5-0.5-2.8-1.6-3.7c-1.1-0.9-2.7-1.4-4.9-1.4
		c-1.4,0-2.6,0.3-3.6,0.8c-1,0.5-2,1.2-2.8,2.2c-0.5,0.5-1,0.7-1.6,0.6c-0.6,0-1.1-0.3-1.5-0.8c-0.4-0.5-0.6-1-0.6-1.5
		c0-0.5,0.2-1.1,0.6-1.5c1-1.2,2.3-2.2,3.9-3C818,1,819.9,0.7,822,0.7z"/>
	<path d="M1098.8,1.3c0.5,0.4,0.9,0.8,1.1,1.4c0.2,0.6,0,1.2-0.5,1.8L1085.3,25h12.1v-9.1c0-0.7,0.3-1.3,0.8-1.6
		c0.5-0.3,1.1-0.5,1.7-0.5c0.7,0,1.3,0.2,1.8,0.5c0.5,0.3,0.8,0.9,0.8,1.6V25h3.7c0.6,0,1.1,0.2,1.3,0.6s0.4,0.9,0.4,1.5
		c0,0.6-0.1,1-0.4,1.4c-0.3,0.4-0.7,0.6-1.3,0.6h-3.7v5.8c0,0.7-0.3,1.3-0.8,1.6c-0.5,0.3-1.1,0.5-1.8,0.5c-0.6,0-1.2-0.2-1.7-0.5
		c-0.5-0.3-0.8-0.9-0.8-1.6v-5.8h-14.9c-1.2,0-2-0.2-2.5-0.6c-0.5-0.4-0.8-1-0.8-1.8c0-0.3,0.1-0.7,0.2-1c0.1-0.3,0.5-1,1.1-1.9
		l15.1-21.8c0.4-0.6,0.9-0.9,1.4-1C1097.8,0.9,1098.3,1,1098.8,1.3z"/>
</g>
</svg>
