<?xml version="1.0" encoding="utf-8"?>
<!-- Generator: Adobe Illustrator 16.0.0, SVG Export Plug-In . SVG Version: 6.00 Build 0)  -->
<!DOCTYPE svg PUBLIC "-//W3C//DTD SVG 1.1//EN" "http://www.w3.org/Graphics/SVG/1.1/DTD/svg11.dtd">
<svg version="1.1" id="레이어_1" xmlns="http://www.w3.org/2000/svg" xmlns:xlink="http://www.w3.org/1999/xlink" x="0px"
	 y="0px" width="974px" height="477.3px" viewBox="0 0 974 477.3" enable-background="new 0 0 974 477.3" xml:space="preserve">
<rect x="205.4" y="181.5" fill="#F7BA97" width="296" height="75"/>
<g>
	<path fill="#678FCA" d="M148,105.9c-0.101-2.7,2-5.1,4.5-6.5c0,0,5.2-2.9,6.3-9.3c1.2-7-2.9-15.7-13.7-16.1c0,0-4.1-0.3-8.899,2.8
		C131.9,79.5,125.9,90.4,136.1,99c1.9,1.6,4,3,4.8,5.5c0.801,2.6-0.699,4.8-3.1,5.7c-16,1-63.4,15.5-103.3,144.9
		C20.3,257.8,10,266.5,10,276.9c0,7.4,5.3,13.9,13.399,18.1c-2,10.101-4.8,48.701,72.5,48.701h113.4c0,0,64.4-0.601,56.7-49.201
		c7.6-4.199,12.5-10.5,12.5-17.6c0-10.3-10.2-18.9-24.101-21.699c-0.699-0.101-2.5-8-2.8-9c-1-3.101-2-6.201-3-9.301
		c-2.1-6.4-4.3-12.9-6.6-19.2c-4.7-13-9.8-25.8-15.8-38.2c-5.7-11.8-12.2-23.2-20.101-33.6c-7.2-9.5-15.6-18.2-25.7-24.7
		c-4.699-3-9.8-5.5-15.1-7.3c-2.7-0.9-5.5-1.7-8.4-2.2c-2.6-0.5-6.3-0.2-7.899-2.6C148.3,107.9,148,106.9,148,105.9"/>
	<g>
		<path fill="#FFFFFF" d="M140.5,99.3c-0.101-2.7,2-5.1,4.5-6.5c0,0,5.2-2.9,6.3-9.3c1.2-7-2.9-15.7-13.7-16.1
			c0,0-4.1-0.3-8.899,2.8C124.4,72.9,118.4,83.8,128.6,92.4c1.9,1.6,4,3,4.8,5.5c0.801,2.6-0.699,4.8-3.1,5.7
			c-16,1-63.4,15.5-103.3,144.899C12.9,251.201,2.5,259.9,2.5,270.3c0,7.4,5.3,13.9,13.399,18.1c-2,10.1-4.8,48.7,72.5,48.7h113.4
			c0,0,64.4-0.601,56.7-49.2c7.6-4.199,12.5-10.5,12.5-17.6c0-10.301-10.2-18.9-24.101-21.7c-0.699-0.101-2.5-8-2.8-9
			c-1-3.1-2-6.2-3-9.3c-2.1-6.4-4.3-12.9-6.6-19.2c-4.7-13-9.8-25.8-15.8-38.2c-5.7-11.8-12.2-23.2-20.101-33.6
			c-7.2-9.5-15.6-18.2-25.7-24.7c-4.699-3-9.8-5.5-15.1-7.3c-2.7-0.9-5.5-1.7-8.4-2.2c-2.6-0.5-6.3-0.2-7.899-2.6
			C140.9,101.2,140.6,100.2,140.5,99.3z"/>
		<path fill="#678FCA" d="M88.4,338c-32.899,0-55.3-6.899-66.5-20.6c-8.899-10.9-8.1-23.1-7.1-28.6c-8.4-4.5-13.3-11.301-13.3-18.6
			c0-10.4,10.1-19.701,24.7-22.701c17.1-55.5,37.5-96,60.6-120.399c19-20.1,35.2-24,43.2-24.6c1.7-0.7,3.1-2.3,2.399-4.4
			c-0.6-1.9-2.1-3.1-3.6-4.4c-0.3-0.2-0.6-0.5-0.8-0.7c-5.3-4.5-6.2-9.3-5.9-12.6c0.3-5,3.3-9.4,6.101-11.2c5-3.2,9.3-2.9,9.5-2.9
			c6.199,0.2,9.699,3,11.6,5.3c2.6,3.2,3.8,7.7,3,12c-1.1,6.5-6.2,9.6-6.7,10l0,0c-1.899,1.1-4.1,3.2-4,5.6l0,0
			c0,0.8,0.3,1.6,0.8,2.4c1,1.5,3.101,1.7,5.2,1.9c0.7,0.1,1.4,0.2,2.101,0.3c2.899,0.6,5.699,1.3,8.5,2.3
			c5.3,1.8,10.399,4.3,15.3,7.4c9.3,5.9,17.8,14.1,26,24.9c7.1,9.4,13.7,20.5,20.2,33.8c5.399,11.1,10.6,23.7,15.8,38.3
			c2.1,5.9,4.3,12.2,6.6,19.3c1,3.1,2,6.2,3,9.3c0.101,0.2,0.2,0.899,0.4,1.7c0.399,1.6,1.399,5.699,2,6.699
			c14.7,3.101,24.6,12.101,24.6,22.701c0,7.1-4.5,13.6-12.399,18.199c1.8,12.1-0.801,22.301-7.601,30.4
			C236.3,337.5,203.3,338,201.9,338H88.4L88.4,338z M137.3,68.3c-0.9,0-4.3,0.2-8.1,2.6c-2.301,1.5-4.9,5.4-5.2,9.7
			c-0.3,4,1.5,7.8,5.2,10.9c0.3,0.2,0.5,0.5,0.8,0.7c1.7,1.4,3.5,2.8,4.3,5.3c0.9,2.9-0.6,5.8-3.7,7c-0.1,0-0.2,0.1-0.3,0.1
			c-7.7,0.5-23.4,4.3-42,24C65.3,152.8,45,193.2,28,248.701c-0.101,0.399-0.4,0.6-0.8,0.699C13.3,252.1,3.6,260.701,3.6,270.201
			c0,6.699,4.7,13,12.9,17.199c0.399,0.2,0.6,0.6,0.5,1.1c-1,4.701-2.2,16.9,6.5,27.601C34.3,329.3,56.2,336,88.5,336H201.9
			c0.301,0,33.5-0.5,48.7-18.5c6.5-7.699,8.9-17.6,7-29.5c-0.1-0.399,0.101-0.799,0.5-1c7.601-4.199,12-10.299,12-16.699
			c0-9.5-9.6-18-23.3-20.801c-0.9-0.199-1.3-0.799-3.2-8.199c-0.2-0.801-0.3-1.4-0.399-1.6c-1-3.101-2-6.201-3-9.301
			c-2.301-7.1-4.5-13.3-6.601-19.2c-5.2-14.6-10.399-27-15.7-38.1c-6.399-13.2-12.899-24.2-20-33.5c-8-10.6-16.399-18.6-25.399-24.4
			c-4.8-3.1-9.8-5.5-14.9-7.2c-2.7-0.9-5.5-1.7-8.3-2.2c-0.6-0.1-1.2-0.2-1.9-0.3c-2.399-0.3-5.199-0.5-6.6-2.8
			c-0.7-1.1-1.1-2.2-1.1-3.4l0,0c-0.101-3.4,2.5-6,5-7.4l0,0c0.199-0.1,4.8-2.8,5.8-8.6c0.6-3.7-0.3-7.6-2.601-10.4
			c-2.3-2.8-5.8-4.4-10.199-4.6C137.6,68.3,137.5,68.3,137.3,68.3z M247.1,247.5L247.1,247.5L247.1,247.5z"/>
	</g>
	<path fill="#678FCA" d="M61.2,410.1c-0.101,0-0.2,0-0.4,0c-0.8-0.2-1.3-1-1.1-1.8l17.1-70.4c0.2-0.699,0.8-1.1,1.5-1.1H194
		c0.7,0,1.3,0.5,1.5,1.1l17.6,68.7c0.2,0.8-0.3,1.601-1.1,1.8c-0.8,0.2-1.601-0.3-1.8-1.1L192.9,339.8H79.5L62.6,409
		C62.5,409.6,61.8,410.1,61.2,410.1z"/>
	<path fill="#678FCA" d="M60.7,422.099c5.8,0,10.5-4.699,10.5-10.499s-4.7-10.5-10.5-10.5c-5.801,0-10.5,4.7-10.5,10.5
		S54.9,422.099,60.7,422.099"/>
	<path fill="#678FCA" d="M212.1,422.099c5.8,0,10.5-4.699,10.5-10.499s-4.7-10.5-10.5-10.5s-10.5,4.7-10.5,10.5
		S206.3,422.099,212.1,422.099"/>
</g>
<g>
	<path fill="#F5A21B" d="M510.6,11.7c-8.4,3.8-15.3,11.1-18.2,23.3c-3,12.4-2.6,379.1-1.8,392c0.7,10.5,2,21.6,6.2,30.6
		c2.3,5,5.6,9.102,9.6,11.5c12.2,7.301,27.5,5.4,40.601,5.801c14.199,0.5,345.899,1.301,360.199,1.6c13.4,0.201,27.5-0.1,40.4-5.299
		c9.4-3.801,17.5-12,21.7-24.4c4.8-14.4,3.2-386.1,1-401.4c-2.2-15.5-8.101-27.3-19.101-32.8c-11.5-5.8-24.8-6.1-36.899-6.6
		c-14.601-0.7-344.5,0-359.101,0.3c-13.6,0.3-28.1-0.2-41.399,4.2C512.699,10.8,511.6,11.2,510.6,11.7"/>
	<path fill="#F08D5C" d="M510.6,11.7c-8.4,3.8-15.3,11.1-18.2,23.3c-3,12.4-2.6,379.1-1.8,392c0.7,10.5,2,21.6,6.2,30.6
		c2.3,5,5.6,9.102,9.6,11.5c12.2,7.301,27.5,5.4,40.601,5.801c14.199,0.5,345.899,1.301,360.199,1.6c13.4,0.201,27.5-0.1,40.4-5.299
		c9.4-3.801,17.5-12,21.7-24.4c4.8-14.4,3.2-386.1,1-401.4c-2.2-15.5-8.101-27.3-19.101-32.8c-11.5-5.8-24.8-6.1-36.899-6.6
		c-14.601-0.7-344.5,0-359.101,0.3c-13.6,0.3-28.1-0.2-41.399,4.2C512.699,10.8,511.6,11.2,510.6,11.7z"/>
	<g>
		<path fill="#FFFFFF" d="M507.6,7.8c-8.4,3.8-15.3,11.1-18.1,23.2c-3,12.4-2.601,155.5-1.7,168.4c0.7,10.4,2,244.6,6.1,253.6
			c2.3,5,5.601,9.1,9.601,11.4c12.199,7.301,27.399,5.301,40.5,5.801c14.199,0.5,345.1,1.299,359.3,1.6
			c13.399,0.199,27.399-0.1,40.3-5.301c9.4-3.799,17.5-11.9,21.7-24.299c4.8-14.301,3.2-385.5,1-400.801c-2.2-15.5-8-27.2-19-32.7
			c-11.5-5.7-24.7-6-36.8-6.6c-14.5-0.7-343.7,0-358.2,0.3c-13.5,0.3-28.101-0.1-41.3,4.2C509.8,6.9,508.699,7.3,507.6,7.8z"/>
		<path fill="#F08D5C" d="M909,472.8c-2,0-3.9,0-5.801-0.1c-5.699-0.102-63.5-0.301-130.399-0.5
			c-98.2-0.301-220.4-0.801-228.9-1.102c-2.7-0.1-5.399-0.1-8.3-0.1c-11.2,0-22.7,0-32.7-5.9c-4-2.398-7.5-6.5-10-11.898
			C490,447,488.6,344.5,487.4,249c-0.3-27.2-0.6-46.799-0.7-49.7c-0.899-13.7-1.1-156.4,1.801-168.7
			c2.699-11.3,9.199-19.6,18.699-23.9c1.101-0.5,2.2-0.9,3.4-1.3c11.5-3.8,23.9-4,35.9-4.2c1.899,0,3.8-0.1,5.699-0.1
			C566.8,1,896.3,0.4,910.5,1.1l1.8,0.1c11.899,0.5,24.2,1.1,35.399,6.6c10.601,5.3,17.2,16.5,19.601,33.4
			c1.1,7.4,2.1,101.3,2.1,200.9c0,44.7-0.1,191.101-3.2,200.3c-4,11.801-11.899,20.699-22.2,24.9C932.6,472,920.3,472.8,909,472.8z
			 M537.6,469.099c2.2,0,4.3,0,6.4,0.102c8.399,0.299,130.6,0.699,228.8,1.1c66.899,0.199,124.7,0.4,130.399,0.5
			c12.5,0.199,27,0,39.9-5.301c9.8-4,17.3-12.4,21.1-23.699c2-5.9,3.2-82.4,3.101-199.7c-0.101-99.5-1.101-193.3-2.101-200.6
			c-2.3-16.2-8.5-27-18.5-31.9c-10.7-5.4-22.8-5.9-34.6-6.4l-1.8-0.1C896.199,2.4,566.8,3,552.199,3.3c-1.899,0-3.8,0.1-5.699,0.1
			c-11.801,0.2-24,0.4-35.301,4.1C510.1,7.9,509,8.3,508,8.7l0,0c-8.9,4-15,11.8-17.601,22.5c-2.899,12.2-2.6,154.4-1.7,168.1
			c0.2,2.9,0.4,22.6,0.8,49.8C490.3,318,491.8,446.201,494.8,452.5c2.3,5,5.5,8.801,9.199,11c9.4,5.6,20.7,5.6,31.601,5.6
			C536.3,469.099,537,469.099,537.6,469.099z M507.6,7.8L507.6,7.8L507.6,7.8z"/>
	</g>
</g>
<g>
	<g>
		<path fill="#FFFFFF" d="M896.3,116.4c-0.5-22.9-36.5-35.9-78.9-42.6c-18.5-31.4-52.7-52.2-91.7-51.7
			c-38.5,0.5-71.7,21.7-89.5,52.8c-31.7,5.5-58.1,14.1-69.899,26.2c-6.5,6.6-7.7,13.2-7.601,17.6c0.2,10.3,7.601,18.6,19.601,25.2
			c33.8,18.7,103.899,24.1,150.1,23.8c63.8-0.4,138.1-10.9,160.3-33.7C895.1,127.4,896.4,120.8,896.3,116.4z"/>
		<path fill="#F08D5C" d="M724.9,168.8c-50.899,0-115.2-6.3-147.1-24c-13.101-7.3-19.9-16.1-20.101-26.1c-0.1-4.6,1.2-11.4,7.9-18.3
			c13.6-14.1,45.4-22.1,69.9-26.4c18.6-32.2,53.1-52.4,90.199-52.9c37.7-0.5,73,19.3,92.4,51.8c36,5.8,78.7,18,79.3,43.5l0,0
			c0.101,4.6-1.2,11.4-7.899,18.3c-22.4,23-97,33.7-161,34C727.199,168.8,726,168.8,724.9,168.8z M727,23.1c-0.5,0-0.9,0-1.4,0
			c-36.5,0.5-70.4,20.5-88.7,52.3c-0.1,0.3-0.4,0.4-0.7,0.5c-34.7,6-58.7,15-69.3,25.9c-6.2,6.4-7.4,12.7-7.3,16.9
			c0.2,9.3,6.6,17.5,19.1,24.4c32.4,17.9,100.8,24,149.601,23.7c63.6-0.4,137.6-10.8,159.6-33.4c6.2-6.4,7.4-12.7,7.3-16.9
			c-0.5-24.2-42.7-36-78-41.7c-0.3,0-0.6-0.2-0.7-0.5C797.8,42.6,763.699,23.1,727,23.1z"/>
	</g>
	<path fill="#F08D5C" d="M640.4,170.1c19.101,28.1,51.601,46.5,88.101,46s68.399-19.6,86.8-48.2c-25.8,4.4-55.601,7-87,7.4
		C696.699,175.8,666.6,173.9,640.4,170.1"/>
</g>
<g>
	<g>
		<path fill="#FFFFFF" d="M896.3,345.8c-0.5-22.9-36.5-35.9-78.9-42.6c-18.5-31.4-52.7-52.201-91.7-51.701
			c-38.5,0.5-71.7,21.701-89.5,52.801c-31.7,5.5-58.1,14.1-69.899,26.199c-6.5,6.601-7.7,13.201-7.601,17.601
			c0.2,10.3,7.601,18.601,19.601,25.2c33.8,18.699,103.899,24.1,150.1,23.8c63.8-0.399,138.1-10.899,160.3-33.7
			C895.1,356.8,896.4,350.201,896.3,345.8z"/>
		<path fill="#F08D5C" d="M724.9,398.1c-50.899,0-115.2-6.3-147.1-24C564.699,366.8,557.9,358,557.699,348
			c-0.1-4.6,1.2-11.399,7.9-18.299c13.7-14.101,45.5-22.101,69.9-26.4c18.6-32.2,53.1-52.4,90.199-52.9
			c37.7-0.5,73,19.301,92.4,51.801c36,5.799,78.7,18,79.3,43.5l0,0c0.101,4.6-1.2,11.399-7.899,18.299c-22.4,23-97,33.701-161,34
			C727.199,398.1,726,398.1,724.9,398.1z M727,252.4c-0.5,0-0.9,0-1.4,0c-36.5,0.5-70.4,20.5-88.7,52.301
			c-0.1,0.299-0.4,0.399-0.7,0.5c-34.7,6-58.7,15-69.3,25.899c-6.2,6.399-7.4,12.7-7.3,16.899c0.2,9.301,6.6,17.5,19.1,24.4
			c32.4,17.9,100.8,24,149.601,23.7c63.6-0.399,137.6-10.8,159.6-33.399c6.2-6.4,7.4-12.701,7.3-16.9c-0.5-24.2-42.7-36-78-41.7
			c-0.3,0-0.6-0.2-0.7-0.5C797.8,272,763.699,252.4,727,252.4z"/>
	</g>
	<path fill="#F08D5C" d="M640.4,399.5c19.101,28.1,51.601,46.5,88.101,46s68.399-19.6,86.8-48.199c-25.8,4.4-55.601,7-87,7.4
		C696.699,405.201,666.6,403.3,640.4,399.5"/>
</g>
</svg>
