
<svg xmlns="http://www.w3.org/2000/svg" version="1.1" xmlns:xlink="http://www.w3.org/1999/xlink" preserveAspectRatio="none" x="0px" y="0px" width="1280px" height="720px" viewBox="0 0 1280 720">
<defs>
<g id="Layer0_0_FILL">
<path fill="#1E1E1E" stroke="none" d="
M 1230.3 567.3
Q 1229.75 567.3 1229.75 567.85
L 1229.75 582 1226.05 582 1226.05 568.55
Q 1226.05 568.05 1225.5 568.05
L 1222.25 568.05
Q 1221.7 568.05 1221.7 568.55
L 1221.7 603.25
Q 1221.7 603.8 1222.25 603.8
L 1225.5 603.8
Q 1226.05 603.8 1226.05 603.25
L 1226.05 585.85 1229.75 585.85 1229.75 604.75
Q 1229.75 605.3 1230.25 605.3
L 1233.75 605.3
Q 1234.3 605.3 1234.3 604.75
L 1234.3 567.85
Q 1234.3 567.3 1233.75 567.3
L 1230.3 567.3
M 1212.5 574.2
Q 1213.3 574.2 1213.5 574.5 1213.7 574.8 1213.65 575.65 1213.6 577.6 1212.75 579.95 1211.9 582.25 1210.35 584.55 1208.85 586.8 1206.65 588.95 1204.45 591.1 1201.75 592.75 1201.55 592.9 1201.4 593.2 1201.25 593.5 1201.5 593.85
L 1203.1 596.1
Q 1203.3 596.35 1203.65 596.3 1203.95 596.25 1204.3 596.1 1207.4 594.05 1210 591.55 1212.55 589.05 1214.35 586.15 1216.15 583.25 1217.15 580 1218.15 576.8 1218.2 573.3 1218.25 571.75 1217.65 571.1 1217 570.45 1215.25 570.45
L 1203.65 570.45
Q 1203.45 570.45 1203.25 570.6 1203.05 570.75 1203.05 570.95
L 1203.05 573.7
Q 1203.05 574.2 1203.65 574.2
L 1212.5 574.2 Z"/>

<path fill="#FFFFFF" stroke="none" d="
M 1186.05 570.15
Q 1186.05 555.15 1171.05 555.15
L 1101.05 555.15
Q 1086.05 555.15 1086.05 570.15
L 1086.05 600.2
Q 1086.05 603.85 1086.8 606.15 1089.55 615.2 1101.05 615.2
L 1171.05 615.2
Q 1182.75 615.2 1185.3 606.15 1186.05 603.45 1186.05 600.2
L 1186.05 570.15 Z"/>
</g>

<path id="Layer0_0_1_STROKES" stroke="#DBDBDB" stroke-width="3" stroke-linejoin="round" stroke-linecap="round" fill="none" d="
M 1101.05 555.15
L 1171.05 555.15
Q 1186.05 555.15 1186.05 570.15
L 1186.05 600.2
Q 1186.05 603.45 1185.3 606.15 1182.75 615.2 1171.05 615.2
L 1101.05 615.2
Q 1089.55 615.2 1086.8 606.15 1086.05 603.85 1086.05 600.2
L 1086.05 570.15
Q 1086.05 555.15 1101.05 555.15 Z"/>

<path id="Layer0_0_2_STROKES" stroke="#000000" stroke-width="3" stroke-linejoin="round" stroke-linecap="round" fill="none" d="
M 744.95 250.9
L 746.6 250.9 956.6 250.9 746.6 604.05 534.95 604.05 534.1 604.05 323.45 604.05 533.45 250.9 534.1 250.9 744.95 250.9 534.95 604.05
M 746.6 250.9
L 746.6 604.05
M 534.1 250.9
L 534.1 604.05"/>
</defs>

<g transform="matrix( 1, 0, 0, 1, 0,0) ">
<use xlink:href="#Layer0_0_FILL"/>

<use xlink:href="#Layer0_0_1_STROKES"/>

<use xlink:href="#Layer0_0_2_STROKES"/>
</g>
</svg>
