<svg xmlns="http://www.w3.org/2000/svg" xmlns:xlink="http://www.w3.org/1999/xlink" viewBox="0 0 147.88 37.44"><defs><style>.cls-1,.cls-10,.cls-12,.cls-14,.cls-15,.cls-16,.cls-5,.cls-7,.cls-8{fill:none;}.cls-2{font-size:9.8px;font-family:NanumSquareRoundB, NanumSquareRound;}.cls-3{clip-path:url(#clip-path);}.cls-4{fill:#fadcb8;}.cls-5,.cls-8{stroke:#b6711f;}.cls-10,.cls-14,.cls-15,.cls-5{stroke-width:0.3px;}.cls-6{fill:#fef7ef;}.cls-7{stroke:#fff;}.cls-12,.cls-7,.cls-8{stroke-width:0.7px;}.cls-9{fill:#edd779;}.cls-10,.cls-12{stroke:#e6a600;}.cls-11{fill:#fbf6e1;}.cls-13{fill:#ffe893;}.cls-14{stroke:#000;}.cls-15{stroke:#00a0e9;stroke-dasharray:1.5 1;}.cls-16{stroke:#e4007f;stroke-width:0.5px;}.cls-17{fill:#e4007f;}</style><clipPath id="clip-path" transform="translate(0 0)"><rect class="cls-1" x="3.23" width="144.64" height="37.44"/></clipPath></defs><title>자산 2</title><g id="레이어_2" data-name="레이어 2"><g id="레이어_1-2" data-name="레이어 1"><text class="cls-2" transform="translate(0 8) scale(1 1.02)"> </text><g class="cls-3"><path class="cls-4" d="M33.56,3.24a3.06,3.06,0,0,0-3-3.09H6.4a3.06,3.06,0,0,0-3,3.09V34.19a3.06,3.06,0,0,0,3,3.1H30.55a3.06,3.06,0,0,0,3-3.1Z" transform="translate(0 0)"/><path class="cls-5" d="M33.56,3.24a3.06,3.06,0,0,0-3-3.09H6.4a3.06,3.06,0,0,0-3,3.09V34.19a3.06,3.06,0,0,0,3,3.1H30.55a3.06,3.06,0,0,0,3-3.1Z" transform="translate(0 0)"/><path class="cls-6" d="M6.63,2.84a1.58,1.58,0,0,0-.56,1.21v29.2A1.53,1.53,0,0,0,7.58,34.8H29.16a1.48,1.48,0,0,0,1.07-.45" transform="translate(0 0)"/><path class="cls-7" d="M6.63,2.84a1.58,1.58,0,0,0-.56,1.21v29.2A1.53,1.53,0,0,0,7.58,34.8H29.16a1.48,1.48,0,0,0,1.07-.45" transform="translate(0 0)"/><path class="cls-6" d="M30.23,34.35a1.58,1.58,0,0,0,.44-1.1V4.05A1.52,1.52,0,0,0,29.16,2.5H7.58a1.51,1.51,0,0,0-1,.34" transform="translate(0 0)"/><path class="cls-8" d="M30.23,34.35a1.58,1.58,0,0,0,.44-1.1V4.05A1.52,1.52,0,0,0,29.16,2.5H7.58a1.51,1.51,0,0,0-1,.34" transform="translate(0 0)"/><path class="cls-9" d="M65.48,3.24a3.06,3.06,0,0,0-3-3.09H38.32a3.06,3.06,0,0,0-3,3.09V34.19a3.07,3.07,0,0,0,3,3.1H62.47a3.06,3.06,0,0,0,3-3.1Z" transform="translate(0 0)"/><path class="cls-10" d="M65.48,3.24a3.06,3.06,0,0,0-3-3.09H38.32a3.06,3.06,0,0,0-3,3.09V34.19a3.07,3.07,0,0,0,3,3.1H62.47a3.06,3.06,0,0,0,3-3.1Z" transform="translate(0 0)"/><path class="cls-11" d="M38.55,2.84A1.58,1.58,0,0,0,38,4.05v29.2A1.53,1.53,0,0,0,39.5,34.8H61.09a1.47,1.47,0,0,0,1.06-.45" transform="translate(0 0)"/><path class="cls-7" d="M38.55,2.84A1.58,1.58,0,0,0,38,4.05v29.2A1.53,1.53,0,0,0,39.5,34.8H61.09a1.47,1.47,0,0,0,1.06-.45" transform="translate(0 0)"/><path class="cls-11" d="M62.15,34.35a1.54,1.54,0,0,0,.44-1.1V4.05a1.52,1.52,0,0,0-1.5-1.55H39.5a1.51,1.51,0,0,0-1,.34" transform="translate(0 0)"/><path class="cls-12" d="M62.15,34.35a1.54,1.54,0,0,0,.44-1.1V4.05a1.52,1.52,0,0,0-1.5-1.55H39.5a1.51,1.51,0,0,0-1,.34" transform="translate(0 0)"/><polygon points="16.34 30.15 11.33 30.15 11.33 26.24 16.34 26.24 21.34 26.24 21.34 20.5 15.23 20.5 11.33 20.5 11.33 16.59 11.33 10.85 11.33 6.95 15.23 6.95 21.34 6.95 25.25 6.95 25.25 10.85 21.34 10.85 15.23 10.85 15.23 16.59 21.34 16.59 25.25 16.59 25.25 20.5 25.25 26.24 25.25 30.15 21.34 30.15 16.34 30.15"/><polygon points="47.71 30.15 43.8 30.15 43.8 26.24 43.8 20.5 43.8 16.59 47.71 16.59 53.82 16.59 53.82 10.85 47.71 10.85 43.8 10.85 43.8 6.95 47.71 6.95 53.82 6.95 57.73 6.95 57.73 10.85 57.73 16.59 57.73 20.5 53.82 20.5 47.71 20.5 47.71 26.24 53.82 26.24 57.73 26.24 57.73 30.15 53.82 30.15 47.71 30.15"/><path class="cls-4" d="M147.73,3.24a3.06,3.06,0,0,0-3-3.09H120.56a3.06,3.06,0,0,0-3,3.09V34.19a3.06,3.06,0,0,0,3,3.1h24.15a3.06,3.06,0,0,0,3-3.1Z" transform="translate(0 0)"/><path class="cls-5" d="M147.73,3.24a3.06,3.06,0,0,0-3-3.09H120.56a3.06,3.06,0,0,0-3,3.09V34.19a3.06,3.06,0,0,0,3,3.1h24.15a3.06,3.06,0,0,0,3-3.1Z" transform="translate(0 0)"/><path class="cls-6" d="M120.79,2.84a1.58,1.58,0,0,0-.56,1.21v29.2a1.53,1.53,0,0,0,1.52,1.55h21.58a1.47,1.47,0,0,0,1.06-.45" transform="translate(0 0)"/><path class="cls-7" d="M120.79,2.84a1.58,1.58,0,0,0-.56,1.21v29.2a1.53,1.53,0,0,0,1.52,1.55h21.58a1.47,1.47,0,0,0,1.06-.45" transform="translate(0 0)"/><path class="cls-6" d="M144.39,34.35a1.55,1.55,0,0,0,.45-1.1V4.05a1.53,1.53,0,0,0-1.51-1.55H121.75a1.52,1.52,0,0,0-1,.34" transform="translate(0 0)"/><path class="cls-8" d="M144.39,34.35a1.55,1.55,0,0,0,.45-1.1V4.05a1.53,1.53,0,0,0-1.51-1.55H121.75a1.52,1.52,0,0,0-1,.34" transform="translate(0 0)"/><path class="cls-9" d="M116,3.24a3.06,3.06,0,0,0-3-3.09H88.82a3.06,3.06,0,0,0-3,3.09V34.19a3.06,3.06,0,0,0,3,3.1H113a3.06,3.06,0,0,0,3-3.1Z" transform="translate(0 0)"/><path class="cls-10" d="M116,3.24a3.06,3.06,0,0,0-3-3.09H88.82a3.06,3.06,0,0,0-3,3.09V34.19a3.06,3.06,0,0,0,3,3.1H113a3.06,3.06,0,0,0,3-3.1Z" transform="translate(0 0)"/><path class="cls-11" d="M89.05,2.84a1.58,1.58,0,0,0-.56,1.21v29.2A1.53,1.53,0,0,0,90,34.8h21.59a1.47,1.47,0,0,0,1.06-.45" transform="translate(0 0)"/><path class="cls-7" d="M89.05,2.84a1.58,1.58,0,0,0-.56,1.21v29.2A1.53,1.53,0,0,0,90,34.8h21.59a1.47,1.47,0,0,0,1.06-.45" transform="translate(0 0)"/><path class="cls-11" d="M112.65,34.35a1.58,1.58,0,0,0,.44-1.1V4.05a1.52,1.52,0,0,0-1.5-1.55H90a1.51,1.51,0,0,0-1,.34" transform="translate(0 0)"/><path class="cls-12" d="M112.65,34.35a1.58,1.58,0,0,0,.44-1.1V4.05a1.52,1.52,0,0,0-1.5-1.55H90a1.51,1.51,0,0,0-1,.34" transform="translate(0 0)"/><polygon points="130.5 30.15 125.49 30.15 125.49 26.24 130.5 26.24 135.51 26.24 135.51 20.5 129.39 20.5 125.49 20.5 125.49 16.59 125.49 10.85 125.49 6.95 129.39 6.95 135.51 6.95 139.41 6.95 139.41 10.85 135.51 10.85 129.39 10.85 129.39 16.59 135.51 16.59 139.41 16.59 139.41 20.5 139.41 26.24 139.41 30.15 135.51 30.15 130.5 30.15"/><polygon points="98.21 30.15 94.3 30.15 94.3 26.24 94.3 20.5 94.3 16.59 98.21 16.59 104.32 16.59 104.32 10.85 98.21 10.85 94.3 10.85 94.3 6.95 98.21 6.95 104.32 6.95 108.23 6.95 108.23 10.85 108.23 16.59 108.23 20.5 104.32 20.5 98.21 20.5 98.21 26.24 104.32 26.24 108.23 26.24 108.23 30.15 104.32 30.15 98.21 30.15"/><path class="cls-13" d="M81.26,19.08a5.72,5.72,0,1,1-5.72-5.72,5.72,5.72,0,0,1,5.72,5.72" transform="translate(0 0)"/><line class="cls-14" x1="75.54" y1="24.8" x2="75.54" y2="19.08"/><path class="cls-15" d="M75.54,19.08H69.82m5.72,0h5.72" transform="translate(0 0)"/><line class="cls-14" x1="75.54" y1="13.36" x2="75.54" y2="19.08"/><path class="cls-16" d="M75.54,13.36a5.72,5.72,0,0,1,.65,11.4" transform="translate(0 0)"/><polygon class="cls-17" points="75.52 24.72 77.92 23.4 77.44 24.5 78.16 25.46 75.52 24.72"/></g></g></g></svg>