
<svg xmlns="http://www.w3.org/2000/svg" version="1.1" xmlns:xlink="http://www.w3.org/1999/xlink" preserveAspectRatio="none" x="0px" y="0px" width="1280px" height="720px" viewBox="0 0 1280 720">
<defs>
<g id="Symbol_13_0_Layer1_0_FILL">
<path fill="#4BAEF3" stroke="none" d="
M 22.4 -10
Q 22.4 -20.5 11.9 -20.5
L -11.9 -20.5
Q -22.4 -20.5 -22.4 -10
L -22.4 10
Q -22.4 20.5 -11.9 20.5
L 11.9 20.5
Q 22.4 20.5 22.4 10
L 22.4 -10 Z"/>
</g>

<g id="Symbol_13_0_Layer0_0_FILL">
<path fill="#FFFFFF" stroke="none" d="
M 4.35 -9.1
Q 4.35 -9.75 3.95 -9.95 3.75 -10.05 3.45 -10.1 3.2 -10.2 2.9 -10.2 2.65 -10.2 2.45 -10.1 2.2 -10.05 2 -9.95 1.6 -9.75 1.6 -9.1
L 1.6 -6.4 -0.65 -6.4
Q -0.75 -6.65 -0.9 -6.9 -1 -7.15 -1.15 -7.35 -1.45 -7.75 -1.85 -8.1 -2.25 -8.45 -2.65 -8.7 -3.5 -9.15 -4.6 -9.15 -5.1 -9.15 -5.55 -9.05 -6.05 -8.9 -6.5 -8.7 -6.9 -8.45 -7.25 -8.1 -7.6 -7.75 -7.9 -7.35 -8.2 -6.9 -8.45 -6.4 -8.7 -5.9 -8.85 -5.3 -9.05 -4.65 -9.1 -3.95 -9.2 -3.25 -9.2 -2.45 -9.2 -1.65 -9.1 -0.95 -9.05 -0.25 -8.85 0.35 -8.7 1 -8.45 1.5 -8.2 2 -7.9 2.45 -7.6 2.9 -7.25 3.2 -6.9 3.55 -6.5 3.75 -6.05 4 -5.55 4.1 -5.1 4.25 -4.6 4.25 -3.5 4.25 -2.65 3.75 -1.8 3.3 -1.15 2.45 -1 2.2 -0.85 1.95 -0.7 1.65 -0.55 1.35
L 1.6 1.35 1.6 7.9
Q 1.6 8.15 1.7 8.4 1.8 8.6 2 8.75 2.2 8.85 2.45 8.95 2.65 9 2.9 9 3.2 9 3.45 8.95 3.75 8.85 3.95 8.75 4.15 8.6 4.25 8.4 4.35 8.15 4.35 7.9
L 4.35 -9.1
M 0.05 -1.85
Q 0.05 -2.15 0.05 -2.45 0.05 -2.8 0.05 -3.15 0 -3.5 0 -3.85
L 1.6 -3.85 1.6 -1.25 0 -1.25
Q 0.05 -1.55 0.05 -1.85
M -4.55 -6.55
Q -4.15 -6.55 -3.8 -6.3 -3.45 -6 -3.15 -5.5 -2.9 -4.95 -2.8 -4.2 -2.65 -3.4 -2.65 -2.45 -2.65 -1.5 -2.8 -0.75 -2.9 0 -3.15 0.55 -3.45 1.1 -3.8 1.35 -4.15 1.65 -4.55 1.65 -5 1.65 -5.4 1.35 -5.75 1.1 -6 0.55 -6.25 0 -6.4 -0.75 -6.5 -1.5 -6.5 -2.45 -6.5 -4.4 -6 -5.5 -5.75 -6 -5.4 -6.3 -5 -6.55 -4.55 -6.55
M 7.85 -9.5
Q 7.85 -9.8 7.75 -10 7.65 -10.2 7.45 -10.35 7.25 -10.45 7 -10.5 6.7 -10.6 6.4 -10.6 6.15 -10.6 5.95 -10.5 5.7 -10.45 5.55 -10.35 5.35 -10.2 5.25 -10 5.15 -9.8 5.15 -9.5
L 5.15 8.5
Q 5.15 9.1 5.55 9.35 5.7 9.45 5.95 9.5 6.15 9.55 6.4 9.55 6.7 9.55 7 9.5 7.25 9.45 7.45 9.35 7.85 9.1 7.85 8.5
L 7.85 -9.5 Z"/>
</g>

<path id="dbdfbfddn_1_Layer2_0_1_STROKES" stroke="#1E1E1E" stroke-width="3" stroke-linejoin="round" stroke-linecap="butt" fill="none" d="
M 149 -64.7
L 276.5 -21.45
M -278.375 106.05
L -234.75 -63.95"/>

<path id="dbdfbfddn_1_Layer1_0_1_STROKES" stroke="#3567D7" stroke-width="3" stroke-linejoin="round" stroke-linecap="butt" fill="none" d="
M 276.5 -21.45
L 276.5 106.55 149 63.25 149 -64.7
M -234.75 -63.95
L -105.25 -63.95 -148.875 106.05 -278.375 106.05"/>
</defs>

<g transform="matrix( 1, 0, 0, 1, 640,490) ">
<g transform="matrix( 1, 0, 0, 1, 0,0) ">
<use xlink:href="#dbdfbfddn_1_Layer2_0_1_STROKES"/>
</g>

<g transform="matrix( 1, 0, 0, 1, 0,0) ">
<use xlink:href="#dbdfbfddn_1_Layer1_0_1_STROKES"/>
</g>

<g transform="matrix( 1, 0, 0, 1, -446.5,-106.95) ">
<g transform="matrix( 1, 0, 0, 1, 0,0) ">
<use xlink:href="#Symbol_13_0_Layer1_0_FILL"/>
</g>

<g transform="matrix( 1, 0, 0, 1, 0,0) ">
<use xlink:href="#Symbol_13_0_Layer0_0_FILL"/>
</g>
</g>
</g>
</svg>
