
<svg xmlns="http://www.w3.org/2000/svg" version="1.1" xmlns:xlink="http://www.w3.org/1999/xlink" preserveAspectRatio="none" x="0px" y="0px" width="1280px" height="460px" viewBox="0 0 1280 460">
<defs>
<g id="Symbol_3_copy_2_0_Layer2_0_FILL">
<path fill="#FFFFFF" stroke="none" d="
M -85 -99.2
L -155.9 -99.2 -155.9 99.25 -85 70.9 -85 60.25 -85 49.6 -85 39 -85 28.35 -85 7.1 -85 -3.55 -85 -14.15 -85 -24.8 -85 -46.05 -85 -56.7 -85 -67.3 -85 -77.95 -85 -99.2 Z"/>
</g>

<g id="Symbol_3_copy_2_0_Layer1_0_FILL">
<path fill="#1E1E1E" stroke="none" d="
M 26.6 99.8
Q 26.5 99.75 26.35 99.75
L 18.35 99.75
Q 18.2 99.75 18.1 99.8 18.05 99.85 18 99.9 17.95 100 17.95 100.1 17.9 100.2 17.9 100.3 17.9 100.4 17.95 100.5 17.95 100.55 18 100.65 18.05 100.7 18.1 100.75 18.2 100.8 18.35 100.8
L 21.7 100.8 21.7 103.25
Q 21.7 103.35 21.75 103.45 21.8 103.55 21.9 103.6 22.1 103.7 22.3 103.7 22.4 103.7 22.55 103.65 22.65 103.65 22.75 103.6 22.85 103.55 22.9 103.45 22.95 103.35 22.95 103.25
L 22.95 100.8 26.35 100.8
Q 26.5 100.8 26.6 100.75 26.7 100.7 26.7 100.65 26.75 100.55 26.75 100.5 26.8 100.4 26.8 100.3 26.8 100.2 26.75 100.1 26.75 100 26.7 99.9 26.7 99.85 26.6 99.8
M 55 77
Q 54.9 76.85 54.8 76.65 54.7 76.5 54.55 76.35 54.25 76.1 53.85 75.9 53.65 75.85 53.4 75.8 53.2 75.75 52.95 75.75 52.75 75.75 52.55 75.8 52.35 75.85 52.15 75.9 52 75.95 51.85 76.05 51.65 76.15 51.55 76.3 51.4 76.4 51.25 76.55 51.15 76.7 51.05 76.85 50.95 77 50.9 77.2 50.85 77.4 50.85 77.6 50.85 77.75 50.85 77.85 50.9 77.95 51 78 51.05 78.05 51.2 78.1 51.3 78.1 51.45 78.1 51.55 78.1 51.6 78.1 51.65 78.05 51.7 78 51.75 77.95 51.8 77.9 51.85 77.85 51.9 77.8 51.95 77.7 51.95 77.65 52 77.55 52 77.45 52.05 77.4 52.1 77.3 52.1 77.25 52.15 77.15 52.25 77.1 52.3 77.05 52.4 76.95 52.5 76.9 52.65 76.85 52.95 76.85 53.25 76.85 53.45 76.9 53.55 76.95 53.65 77.05 53.7 77.1 53.75 77.15 53.8 77.25 53.85 77.3 53.9 77.4 53.95 77.5 53.95 77.55 54 77.65 54 77.75 54 77.8 54 78 53.95 78.1 53.9 78.25 53.85 78.3 53.75 78.4 53.7 78.5 53.6 78.6 53.45 78.65 53.4 78.7 53.25 78.75 53.15 78.75 53.05 78.8 52.9 78.8 52.75 78.8 52.65 78.85 52.5 78.85 52.45 79.1 52.45 79.35 52.45 79.5 52.45 79.65 52.45 79.75 52.45 79.9
L 52.55 79.95
Q 52.6 79.95 52.7 79.95 52.75 79.95 52.85 79.95 52.95 79.95 53 79.95 53.15 80 53.25 80 53.35 80 53.45 80.05 53.55 80.05 53.65 80.1 53.7 80.15 53.8 80.2 53.9 80.25 53.95 80.35 54.05 80.4 54.1 80.5 54.15 80.65 54.15 80.75 54.2 80.9 54.2 81.05 54.15 81.25 54.1 81.45 54 81.65 53.85 81.8 53.65 81.95 53.45 82.05 53.2 82.15 52.95 82.15 52.8 82.15 52.65 82.1 52.5 82.1 52.4 82.05 52.3 82 52.2 81.9 52.15 81.85 52.1 81.75 51.95 81.6 51.85 81.4 51.8 81.25 51.75 81.15 51.7 81.05 51.65 80.9 51.65 80.85 51.55 80.8 51.5 80.8 51.45 80.75 51.4 80.75 51.3 80.75 51.25 80.7 51.2 80.7 51.05 80.7 50.95 80.75 50.85 80.8 50.75 80.9 50.7 80.95 50.7 81.05 50.65 81.15 50.65 81.3
L 50.65 81.35
Q 50.7 81.6 50.75 81.8 50.8 81.95 50.95 82.15 51.05 82.3 51.15 82.45 51.3 82.6 51.45 82.75 51.6 82.85 51.75 82.95 51.95 83.05 52.15 83.1 52.35 83.2 52.55 83.2 52.75 83.25 52.95 83.25 53.25 83.25 53.45 83.2 53.7 83.15 53.95 83.05 54.15 83 54.35 82.85 54.55 82.75 54.7 82.6 54.85 82.45 54.95 82.25 55.1 82.1 55.2 81.9 55.35 81.5 55.35 81 55.35 80.85 55.35 80.75 55.3 80.6 55.25 80.5 55.2 80.35 55.15 80.25 55.1 80.15 55.05 80 54.9 79.8 54.75 79.65 54.65 79.55 54.55 79.45 54.4 79.4 54.3 79.35 54.4 79.3 54.45 79.25 54.5 79.2 54.55 79.15 54.6 79.1 54.7 79 54.75 78.95 54.85 78.85 55 78.65 55.05 78.35 55.1 78.1 55.1 77.75 55.1 77.55 55.1 77.4 55.05 77.2 55 77
M 19.7 97.35
Q 19.65 97.5 19.65 97.7 19.65 97.85 19.7 98 19.75 98.2 19.85 98.3 19.95 98.45 20.1 98.6 20.2 98.7 20.4 98.8 20.6 98.95 20.8 99 21 99.1 21.25 99.15 21.5 99.2 21.75 99.25 22.05 99.25 22.3 99.25 22.65 99.25 22.9 99.25 23.2 99.2 23.45 99.15 23.9 99.05 24.25 98.8 24.45 98.7 24.6 98.6 24.75 98.45 24.85 98.3 24.95 98.2 25 98 25.05 97.85 25.05 97.7 25.05 97.5 25 97.35 24.95 97.2 24.85 97.05 24.75 96.9 24.6 96.8 24.45 96.65 24.25 96.55 24.1 96.45 23.9 96.35 23.65 96.3 23.45 96.2 23.2 96.15 22.9 96.15 22.65 96.1 22.3 96.1 22.05 96.1 21.75 96.15 21.5 96.15 21.25 96.2 21 96.3 20.8 96.35 20.6 96.45 20.4 96.55 20.2 96.65 20.1 96.8 19.95 96.9 19.85 97.05 19.75 97.2 19.7 97.35
M 21.75 97.2
Q 22 97.15 22.3 97.15 22.65 97.15 22.95 97.2 23.2 97.25 23.4 97.3 23.6 97.4 23.7 97.5 23.8 97.55 23.8 97.7 23.8 97.8 23.7 97.9 23.6 98 23.4 98.05 23.2 98.15 22.95 98.15 22.65 98.2 22.3 98.2 22 98.2 21.75 98.15 21.5 98.15 21.3 98.05 21.1 98 21 97.9 20.9 97.8 20.9 97.7 20.9 97.55 21 97.5 21.1 97.4 21.3 97.3 21.5 97.25 21.75 97.2
M 19.2 95.3
Q 19.2 95.5 19.3 95.65 19.4 95.8 19.65 95.8 20.3 95.8 21 95.8 21.65 95.8 22.3 95.8 23 95.8 23.65 95.8 24.3 95.8 25 95.8
L 25.05 95.8
Q 25.2 95.8 25.25 95.75 25.35 95.7 25.4 95.65 25.45 95.55 25.45 95.5 25.5 95.4 25.5 95.3 25.5 95.2 25.45 95.1 25.45 95 25.4 94.9 25.35 94.85 25.25 94.8 25.2 94.75 25.05 94.75
L 23 94.75 23 94.3
Q 23 94.05 22.75 93.95 22.65 93.9 22.55 93.85 22.45 93.85 22.3 93.85 22.2 93.85 22.1 93.85 22 93.9 21.9 93.95 21.8 94 21.75 94.1 21.7 94.2 21.7 94.3
L 21.7 94.75
Q 21.45 94.75 21.2 94.75 20.95 94.75 20.7 94.75 20.45 94.75 20.2 94.75 19.95 94.75 19.7 94.75 19.55 94.75 19.45 94.8 19.4 94.85 19.35 94.9 19.25 94.95 19.25 95.05 19.2 95.15 19.2 95.3
M 14.85 94.75
Q 14.6 94.7 14.3 94.65 13.95 94.6 13.6 94.6 13.3 94.6 13 94.65 12.7 94.7 12.4 94.75 11.85 94.95 11.45 95.25 11.25 95.4 11.1 95.6 10.95 95.8 10.85 96 10.75 96.25 10.65 96.5 10.6 96.75 10.6 97 10.6 97.45 10.8 97.85 10.9 98.05 11 98.2 11.15 98.4 11.3 98.55 11.55 98.85 11.95 99.05 12.2 99.15 12.4 99.25 12.65 99.3 12.95 99.35
L 13.05 99.35 13.05 101 9.7 101
Q 9.55 101 9.45 101.05 9.35 101.05 9.35 101.15 9.3 101.2 9.3 101.3 9.25 101.4 9.25 101.55 9.25 101.65 9.3 101.7 9.3 101.8 9.35 101.9 9.35 101.95 9.45 102 9.55 102.05 9.7 102.05
L 17.6 102.05
Q 17.75 102.05 17.8 102 17.9 101.95 17.95 101.9 18 101.8 18 101.7 18 101.65 18 101.55 18 101.4 18 101.3 18 101.2 17.95 101.15 17.9 101.05 17.8 101.05 17.75 101 17.6 101
L 14.25 101 14.25 99.35 14.3 99.35
Q 14.6 99.3 14.85 99.2 15 99.2 15.1 99.15 15.25 99.1 15.35 99 15.45 98.95 15.6 98.9 15.7 98.85 15.8 98.75 16.65 98.1 16.65 97 16.65 96.75 16.6 96.5 16.55 96.25 16.45 96 16.35 95.8 16.15 95.6 16 95.4 15.8 95.25 15.6 95.1 15.4 95 15.15 94.85 14.85 94.75
M 12.85 95.75
Q 13.2 95.65 13.6 95.65 14.5 95.65 15 96.05 15.2 96.2 15.35 96.45 15.45 96.7 15.45 97 15.45 97.3 15.35 97.55 15.2 97.8 15 97.95 14.5 98.3 13.6 98.3 13.2 98.3 12.85 98.25 12.5 98.15 12.3 97.95 12.05 97.8 11.95 97.55 11.8 97.3 11.8 97 11.8 96.7 11.95 96.45 12.05 96.2 12.3 96.05 12.5 95.85 12.85 95.75
M 18.9 76.3
Q 18.9 76.15 18.7 76 18.6 75.9 18.55 75.85 18.45 75.85 18.4 75.85 18.25 75.85 18.15 75.85 18.1 75.9 18.05 75.95 18 76.05 17.95 76.1 17.9 76.15 17.9 76.25 17.85 76.35 17.85 76.45 17.8 76.5 17.8 76.6 17.75 76.7 17.7 76.75 17.7 76.85 17.65 76.9 17.55 76.95 17.45 77 17.4 77 17.3 77.05 17.15 77.05 17.05 77.05 16.95 77.05 16.85 77.05 16.75 77.1 16.65 77.1 16.55 77.15 16.5 77.25 16.4 77.3 16.35 77.4 16.35 77.5 16.35 77.6 16.35 77.7 16.35 77.8 16.4 77.9 16.45 78 16.5 78.05 16.6 78.1 16.7 78.15 16.8 78.15
L 17.7 78.15
Q 17.7 78.7 17.7 79.25 17.7 79.8 17.7 80.35 17.7 81.45 17.7 82.6 17.7 82.7 17.75 82.75 17.8 82.85 17.9 82.9 18 83 18.1 83.05 18.2 83.05 18.35 83.05
L 18.4 83.05
Q 18.45 83.05 18.5 83.05 18.55 83 18.6 83 18.65 82.95 18.7 82.95 18.75 82.9 18.8 82.85 18.85 82.8 18.85 82.75 18.9 82.75 18.9 82.7 18.9 82.65 18.9 82.6
L 18.9 82.15
Q 18.9 81.4 18.9 80.65 18.9 79.95 18.9 79.2 18.9 78.5 18.9 77.75 18.9 77.05 18.9 76.3
M 148 94.9
Q 147.95 94.9 147.9 94.9 147.85 94.9 147.8 94.9 147.65 94.9 147.6 94.95
L 147.55 95
Q 147.5 95.05 147.5 95.1 147.45 95.15 147.45 95.2 147.45 95.25 147.45 95.3
L 147.45 103.85
Q 147.45 103.9 147.45 103.95 147.45 104.05 147.5 104.05 147.5 104.1 147.55 104.15
L 147.6 104.2
Q 147.65 104.25 147.8 104.25 147.85 104.25 147.9 104.25 147.95 104.25 148 104.25 148.05 104.25 148.1 104.25 148.15 104.25 148.25 104.25 148.35 104.25 148.4 104.2 148.45 104.15 148.5 104.15 148.55 104.1 148.55 104.05 148.6 104.05 148.6 103.95 148.65 103.9 148.65 103.85
L 148.65 95.3
Q 148.65 95.25 148.6 95.2 148.6 95.15 148.55 95.1 148.55 95.05 148.5 95 148.45 95 148.4 94.95 148.35 94.9 148.25 94.9 148.15 94.9 148.1 94.9 148.05 94.9 148 94.9
M 150.6 95.1
Q 150.55 95.05 150.5 95 150.45 94.95 150.35 94.9 150.25 94.9 150.15 94.9 150 94.95 149.9 95.05
L 149.85 95.1
Q 149.85 95.15 149.85 95.2 149.85 95.25 149.85 95.3 149.9 95.35 149.9 95.4 149.95 95.5 149.95 95.55 150 95.6 150.05 95.65 150.05 95.75 150.15 95.9 150.2 96 150.25 96.15 150.35 96.3 150.4 96.45 150.45 96.55 150.5 96.7 150.55 96.85 150.6 97 150.65 97.1 150.7 97.25 150.75 97.4 150.8 97.5 150.85 97.65 150.85 97.75 150.9 97.95 150.95 98.2 151 98.4 151 98.6 151 98.85 151 99.05 151.05 99.25 151.05 99.45 151.05 99.55 151.05 99.7 151 99.8 151 99.95 151 100.1 151 100.2 151 100.35 150.95 100.5 150.95 100.65 150.95 100.75 150.9 100.9 150.9 101.05 150.9 101.2 150.85 101.3 150.85 101.45 150.8 101.55 150.7 102 150.55 102.4 150.45 102.65 150.35 102.85 150.25 103.1 150.1 103.35 150.05 103.4 150.05 103.45 150 103.5 149.95 103.55 149.95 103.6 149.9 103.65 149.9 103.7 149.9 103.75 149.85 103.85 149.95 103.95 150 104 150.05 104 150.15 104.05 150.25 104.05 150.35 104.1 150.4 104.05 150.5 104.05 150.6 103.95 150.65 103.9 150.7 103.85 150.75 103.75 150.8 103.7 150.95 103.45 151.15 103.05 151.35 102.7 151.55 102.25 151.7 102 151.8 101.65 151.8 101.5 151.85 101.3 151.9 101.15 152 100.95 152 100.75 152.05 100.55 152.05 100.4 152.1 100.2 152.1 100 152.1 99.8 152.1 99.65 152.1 99.45 152.1 99.1 152.1 98.8 152.05 98.45 152 98.15 151.95 97.85 151.85 97.55 151.75 97.3 151.65 97 151.6 96.9 151.55 96.8 151.5 96.65 151.4 96.5 151.35 96.4 151.3 96.3 151.25 96.15 151.2 96.05 151.1 95.9 151.05 95.8 150.95 95.7 150.9 95.6 150.85 95.45 150.8 95.4 150.75 95.3 150.75 95.25 150.65 95.2 150.6 95.1
M 143.85 95.45
Q 143.75 95.4 143.65 95.4 143.5 95.4 143.4 95.45 143.3 95.45 143.2 95.55 143.1 95.6 143.05 95.65 143 95.75 143 95.85
L 143 97.05
Q 143 97.55 142.85 98 142.75 98.5 142.5 98.9 142.25 99.35 141.85 99.75 141.5 100.15 141.05 100.5 141 100.5 141 100.55
L 140.95 100.6
Q 140.95 100.65 140.95 100.7
L 140.9 100.75
Q 140.9 100.85 140.95 100.9 140.95 101 141.05 101.05 141.1 101.1 141.15 101.2 141.2 101.25 141.3 101.25 141.35 101.3 141.4 101.35 141.45 101.35 141.55 101.35 141.65 101.35 141.7 101.35 141.75 101.3 141.8 101.25 142.15 101.05 142.4 100.8 142.65 100.55 142.9 100.25 143.1 100 143.3 99.7 143.5 99.4 143.65 99.1 143.8 99.4 143.95 99.65 144.1 99.95 144.35 100.2 144.55 100.45 144.8 100.7 145.1 100.95 145.4 101.15 145.45 101.2 145.5 101.25 145.6 101.25 145.65 101.25 145.8 101.25 145.9 101.2 146 101.15 146.1 101.05 146.2 101 146.25 100.9 146.3 100.8 146.3 100.7 146.3 100.65 146.25 100.6 146.25 100.55 146.25 100.5 146.2 100.45 146.15 100.4 146.1 100.4 146.05 100.35 145.6 100 145.3 99.65 144.95 99.3 144.7 98.85 144.5 98.45 144.35 98.05 144.25 97.6 144.25 97.1
L 144.25 95.85
Q 144.25 95.75 144.2 95.65 144.15 95.6 144.05 95.55 143.95 95.45 143.85 95.45
M 140.35 95.1
Q 140.35 95.05 140.3 95.05 140.25 95 140.2 94.95 140.1 94.95 140 94.9 139.95 94.9 139.85 94.9 139.8 94.95 139.7 95 139.65 95.05 139.6 95.1 139.5 95.2 139.5 95.25 139.45 95.3 139.4 95.4 139.35 95.45 139.3 95.6 139.2 95.7 139.15 95.8 139.1 95.9 139.05 96.05 139 96.15 138.9 96.3 138.85 96.4 138.8 96.5 138.7 96.65 138.65 96.8 138.6 96.9 138.6 97 138.45 97.3 138.35 97.55 138.25 97.85 138.2 98.15 138.15 98.45 138.1 98.8 138.1 99.1 138.1 99.45 138.1 99.65 138.1 99.8 138.1 100 138.15 100.2 138.15 100.6 138.25 100.95 138.25 101.15 138.3 101.3 138.35 101.5 138.4 101.65 138.55 102 138.65 102.25 138.75 102.5 138.9 102.7 139 102.9 139.1 103.05 139.2 103.25 139.25 103.4 139.35 103.55 139.45 103.7 139.45 103.75 139.5 103.85 139.55 103.9 139.65 103.95 139.7 104.05 139.8 104.05 139.9 104.1 139.95 104.05 140.1 104.05 140.15 104 140.25 104 140.25 103.95 140.3 103.9 140.3 103.85 140.3 103.8 140.3 103.75 140.3 103.7 140.3 103.65 140.25 103.6 140.25 103.55 140.2 103.5 140.2 103.45 140.15 103.4 140.1 103.35 140 103.1 139.85 102.85 139.75 102.65 139.7 102.4 139.6 102.2 139.55 102 139.45 101.75 139.4 101.55 139.4 101.45 139.35 101.3 139.35 101.2 139.3 101.05 139.3 100.9 139.25 100.75 139.25 100.65 139.25 100.5 139.2 100.35 139.2 100.2 139.15 100.1 139.15 99.95 139.15 99.8 139.15 99.7 139.15 99.55 139.15 99.45 139.15 99.25 139.15 99.05 139.15 98.85 139.2 98.6 139.2 98.4 139.25 98.2 139.3 97.95 139.35 97.75 139.4 97.65 139.4 97.5 139.45 97.4 139.5 97.25 139.55 97 139.7 96.7 139.75 96.55 139.8 96.45 139.9 96.3 139.95 96.15 140 96 140.05 95.9 140.15 95.75 140.2 95.65 140.25 95.6 140.25 95.55 140.3 95.5 140.3 95.4 140.3 95.35 140.35 95.3 140.35 95.25 140.35 95.2 140.35 95.15 140.35 95.1
M 119.75 77.15
Q 119.85 77.2 120 77.2
L 122.95 77.2
Q 122.8 77.4 122.7 77.6 122.55 77.85 122.4 78.1 122.25 78.35 122.1 78.65 121.9 78.95 121.75 79.25 121.6 79.6 121.45 79.9 121.3 80.2 121.2 80.55 120.9 81.2 120.8 81.75 120.8 81.9 120.75 82.05 120.7 82.2 120.7 82.3 120.65 82.45 120.6 82.55 120.6 82.65 120.6 82.75 120.6 82.85 120.65 82.95 120.7 83.05 120.8 83.1 120.9 83.15 121 83.15 121.1 83.2 121.25 83.2 121.4 83.2 121.5 83.15 121.6 83.15 121.7 83.1 121.75 83.05 121.8 82.95 121.85 82.85 121.85 82.75 121.9 82.65 121.95 82.5 122 82.35 122 82.2 122 82.05 122.05 81.9 122.1 81.7 122.1 81.5 122.15 81.3 122.25 81.05 122.3 80.8 122.4 80.55 122.45 80.35 122.55 80.1 122.65 79.85 122.75 79.65 122.85 79.4 122.95 79.2 123.05 79 123.15 78.8 123.25 78.6 123.3 78.45 123.4 78.3 123.45 78.15 123.6 78 123.7 77.85 123.8 77.75 123.85 77.65 123.95 77.55 124.05 77.45 124.1 77.35 124.15 77.25 124.2 77.2 124.25 77.15 124.3 77.05 124.35 76.95 124.45 76.8 124.45 76.6
L 124.45 76.5
Q 124.45 76.4 124.45 76.3 124.4 76.25 124.35 76.15 124.35 76.05 124.25 76.05 124.2 76 124.15 76 123.6 76 123.1 76 122.55 76 122.05 76 121.55 76 121 76 120.5 76 120 76 119.85 76 119.75 76.05 119.65 76.1 119.65 76.2 119.6 76.3 119.55 76.4 119.55 76.5 119.55 76.6 119.55 76.75 119.55 76.85 119.6 76.95 119.65 77 119.65 77.1 119.75 77.15
M 89.15 77.15
Q 89.4 77.15 89.5 76.95 89.55 76.85 89.55 76.75 89.6 76.65 89.6 76.55 89.6 76.3 89.45 76.15 89.3 76 89.05 76
L 85.75 76
Q 85.65 76.45 85.6 76.95 85.55 77.45 85.5 77.9 85.4 78.4 85.35 78.9 85.3 79.35 85.25 79.85
L 85.25 79.9
Q 85.25 79.95 85.3 80 85.35 80.05 85.45 80.05 85.5 80.1 85.6 80.1 85.7 80.15 85.8 80.15 85.9 80.15 86 80.15 86.05 80.1 86.1 80.1 86.15 80.1 86.2 80.05 86.25 80.05 86.3 80
L 86.35 79.95
Q 86.4 79.9 86.45 79.85
L 86.45 79.8
Q 86.5 79.8 86.55 79.75 86.65 79.55 86.9 79.45 87.15 79.35 87.45 79.35 87.95 79.35 88.3 79.7 88.45 79.9 88.55 80.15 88.65 80.4 88.65 80.65 88.65 80.85 88.6 81 88.6 81.1 88.55 81.25 88.55 81.4 88.45 81.5 88.4 81.65 88.3 81.75 88.25 81.85 88.15 81.95 88.05 82 87.95 82.05 87.85 82.15 87.7 82.15 87.55 82.2 87.4 82.2 87.3 82.2 87.2 82.15 87.1 82.15 87.05 82.1 86.95 82.1 86.85 82.05 86.75 82 86.65 81.95 86.6 81.85 86.55 81.8 86.5 81.75 86.45 81.65 86.4 81.6 86.35 81.5 86.3 81.45 86.3 81.35 86.25 81.3 86.25 81.25 86.2 81.25 86.2 81.2 86.15 81.1 86.15 81.05 86.1 81 86.05 80.95 85.95 80.9 85.9 80.9 85.8 80.9 85.7 80.9 85.55 80.9 85.45 80.9 85.35 80.95 85.3 81 85.2 81.1 85.15 81.15 85.1 81.25 85.1 81.35
L 85.1 81.4
Q 85.1 81.45 85.15 81.5
L 85.15 81.55
Q 85.15 81.6 85.2 81.7 85.2 81.75 85.25 81.8 85.25 81.9 85.3 81.95 85.35 82.05 85.4 82.15 85.45 82.25 85.5 82.3 85.55 82.4 85.65 82.5 85.7 82.55 85.75 82.65 86.05 83 86.5 83.15 86.9 83.35 87.4 83.35 87.65 83.35 87.85 83.3 88.05 83.25 88.3 83.15 88.7 83 89.05 82.65 89.25 82.5 89.4 82.3 89.55 82.1 89.65 81.85 89.75 81.65 89.8 81.35 89.85 81.1 89.85 80.8 89.85 80.45 89.8 80.2 89.75 79.95 89.65 79.7 89.55 79.45 89.4 79.3 89.3 79.1 89.1 78.95 88.8 78.65 88.45 78.5 88.25 78.4 88.1 78.35 87.9 78.35 87.75 78.35 87.5 78.35 87.35 78.35 87.15 78.4 87 78.4 86.85 78.45 86.75 78.5 86.6 78.6 86.55 78.65 86.55 78.25 86.6 77.9 86.65 77.75 86.7 77.55 86.7 77.35 86.75 77.15 87.05 77.15 87.35 77.15 87.65 77.15 87.95 77.15 88.55 77.15 89.15 77.15
M -42.85 103.25
Q -42.75 103.25 -42.65 103.2 -42.6 103.15 -42.5 103.1 -42.45 103 -42.45 102.9 -42.4 102.8 -42.4 102.7 -42.4 102.5 -42.5 102.35 -42.6 102.25 -42.65 102.25 -42.75 102.2 -42.85 102.2
L -46.2 102.2
Q -46.35 102.2 -46.5 102.2 -46.6 102.15 -46.75 102.15
L -46.75 100.25
Q -46.75 100.2 -46.75 100.15
L -46.8 100.1
Q -46.85 100.05 -46.9 100
L -46.95 99.95
Q -47 99.9 -47.05 99.9 -47.1 99.9 -47.2 99.85 -47.25 99.85 -47.3 99.85 -47.35 99.85 -47.4 99.85 -47.5 99.85 -47.6 99.85 -47.7 99.9 -47.75 99.95 -47.85 100 -47.9 100.1 -47.95 100.15 -47.95 100.25
L -47.95 102.4
Q -47.95 102.65 -47.85 102.8 -47.8 102.95 -47.65 103.05 -47.55 103.15 -47.35 103.2 -47.2 103.25 -47 103.25
L -42.85 103.25
M -90.3 100.5
Q -90.45 100.4 -90.65 100.4
L -94.55 100.4
Q -94.65 100.4 -94.75 100.45 -94.85 100.5 -94.9 100.55 -94.95 100.65 -94.95 100.75 -95 100.85 -95 100.95 -95 101.05 -94.95 101.15 -94.95 101.25 -94.9 101.3 -94.85 101.4 -94.75 101.45 -94.65 101.45 -94.55 101.45
L -91.35 101.45
Q -91.25 101.45 -91.1 101.5 -91 101.5 -90.8 101.5
L -90.8 103.9
Q -90.8 104 -90.8 104.1 -90.75 104.15 -90.65 104.2 -90.55 104.25 -90.45 104.3 -90.35 104.35 -90.3 104.35 -90.2 104.35 -90.15 104.3 -90.1 104.3 -90.05 104.3 -90 104.3 -89.95 104.25 -89.9 104.25 -89.85 104.2 -89.8 104.2 -89.8 104.15 -89.75 104.1 -89.7 104.1 -89.7 104.05 -89.65 104 -89.65 103.95 -89.65 103.9
L -89.65 101.3
Q -89.65 101.1 -89.7 100.95 -89.8 100.75 -89.95 100.65 -90.1 100.55 -90.3 100.5
M -89.6 95.25
Q -89.6 95.15 -89.65 95.05 -89.7 95 -89.8 94.95 -89.85 94.9 -89.95 94.85 -90.1 94.85 -90.2 94.85 -90.3 94.85 -90.4 94.85 -90.5 94.9 -90.6 94.95 -90.7 95 -90.75 95.05 -90.8 95.15 -90.8 95.25
L -90.8 99.45
Q -90.8 99.55 -90.75 99.65 -90.75 99.75 -90.65 99.75 -90.55 99.8 -90.5 99.85 -90.4 99.85 -90.35 99.85 -90.3 99.85 -90.2 99.85 -90.15 99.85 -90.1 99.85 -90 99.85 -89.95 99.85
L -89.9 99.8
Q -89.85 99.75 -89.8 99.7 -89.75 99.65 -89.7 99.6 -89.65 99.55 -89.65 99.5 -89.6 99.45 -89.6 99.4
L -89.6 97.9 -88.65 97.9
Q -88.5 97.9 -88.4 97.85 -88.35 97.8 -88.3 97.75 -88.25 97.6 -88.25 97.4 -88.25 97.25 -88.25 97.15 -88.25 97.05 -88.3 97 -88.35 96.95 -88.4 96.9 -88.5 96.85 -88.65 96.85
L -89.6 96.85 -89.6 95.25
M -96.3 95.4
Q -96.35 95.5 -96.35 95.6 -96.4 95.7 -96.4 95.8 -96.4 95.9 -96.35 96 -96.35 96.05 -96.3 96.15 -96.25 96.25 -96.15 96.25 -96.1 96.3 -95.95 96.3
L -93.65 96.3
Q -93.7 96.45 -93.7 96.6 -93.75 96.75 -93.8 96.85 -93.85 97 -93.95 97.2 -94.1 97.35 -94.25 97.55 -94.35 97.65 -94.45 97.75 -94.55 97.85 -94.65 97.95 -94.75 98 -94.85 98.1 -94.95 98.2 -95 98.25 -95.15 98.3 -95.25 98.4 -95.4 98.45 -95.5 98.55 -95.65 98.6 -95.8 98.7 -95.95 98.75 -96.15 98.85 -96.2 98.85 -96.25 98.9 -96.3 98.95 -96.35 99 -96.35 99.05 -96.4 99.1 -96.4 99.2 -96.4 99.25 -96.4 99.4 -96.35 99.5 -96.35 99.6 -96.25 99.7 -96.2 99.75 -96.15 99.8 -96.05 99.85 -95.95 99.85
L -95.8 99.85
Q -95.4 99.75 -95.1 99.6 -94.75 99.4 -94.4 99.2 -94.1 99 -93.8 98.75 -93.55 98.5 -93.3 98.25 -92.85 97.7 -92.65 97.15 -92.5 96.85 -92.45 96.6 -92.4 96.35 -92.4 96.15 -92.4 95.7 -92.65 95.5 -92.75 95.4 -92.9 95.3 -93.05 95.25 -93.3 95.25
L -95.95 95.25
Q -96.1 95.25 -96.15 95.3 -96.25 95.35 -96.3 95.4
M -98.4 94.9
Q -98.5 94.9 -98.55 94.9 -98.6 94.9 -98.65 94.9 -98.7 94.9 -98.75 94.9 -98.8 94.9 -98.85 94.9 -99 94.9 -99.05 94.95
L -99.1 95
Q -99.15 95.05 -99.15 95.1 -99.2 95.15 -99.2 95.2 -99.2 95.25 -99.2 95.3
L -99.2 103.85
Q -99.2 103.9 -99.2 103.95 -99.2 104.05 -99.15 104.05 -99.15 104.1 -99.1 104.15
L -99.05 104.2
Q -99 104.25 -98.85 104.25 -98.8 104.25 -98.75 104.25 -98.7 104.25 -98.65 104.25 -98.6 104.25 -98.55 104.25 -98.5 104.25 -98.4 104.25 -98.3 104.25 -98.25 104.2 -98.2 104.15 -98.15 104.15 -98.1 104.1 -98.1 104.05 -98.05 104.05 -98.05 103.95 -98 103.9 -98 103.85
L -98 95.3
Q -98 95.25 -98.05 95.2 -98.05 95.15 -98.1 95.1 -98.1 95.05 -98.15 95 -98.2 95 -98.25 94.95 -98.3 94.9 -98.4 94.9
M -102.8 95.45
Q -102.9 95.4 -103 95.4 -103.15 95.4 -103.25 95.45 -103.35 95.45 -103.45 95.55 -103.55 95.6 -103.6 95.65 -103.65 95.75 -103.65 95.85
L -103.65 97.05
Q -103.65 97.55 -103.8 98 -103.9 98.5 -104.15 98.9 -104.4 99.35 -104.8 99.75 -105.15 100.15 -105.6 100.5 -105.65 100.5 -105.65 100.55
L -105.7 100.6
Q -105.7 100.65 -105.7 100.7
L -105.75 100.75
Q -105.75 100.85 -105.7 100.9 -105.7 101 -105.6 101.05 -105.55 101.1 -105.5 101.2 -105.45 101.25 -105.35 101.25 -105.3 101.3 -105.25 101.35 -105.2 101.35 -105.1 101.35 -105 101.35 -104.95 101.35 -104.9 101.3 -104.85 101.25 -104.5 101.05 -104.25 100.8 -104 100.55 -103.75 100.25 -103.55 100 -103.35 99.7 -103.15 99.4 -103 99.1 -102.85 99.4 -102.7 99.65 -102.55 99.95 -102.3 100.2 -102.1 100.45 -101.85 100.7 -101.55 100.95 -101.25 101.15 -101.2 101.2 -101.15 101.25 -101.05 101.25 -101 101.25 -100.85 101.25 -100.75 101.2 -100.65 101.15 -100.55 101.05 -100.45 101 -100.4 100.9 -100.35 100.8 -100.35 100.7 -100.35 100.65 -100.4 100.6 -100.4 100.55 -100.4 100.5 -100.45 100.45 -100.5 100.4 -100.55 100.4 -100.6 100.35 -101.05 100 -101.35 99.65 -101.7 99.3 -101.95 98.85 -102.15 98.45 -102.3 98.05 -102.4 97.6 -102.4 97.1
L -102.4 95.85
Q -102.4 95.75 -102.45 95.65 -102.5 95.6 -102.6 95.55 -102.7 95.45 -102.8 95.45
M -89.45 61.85
Q -89.65 61.65 -89.85 61.5 -90.1 61.4 -90.35 61.3 -90.6 61.25 -90.9 61.25 -91.2 61.25 -91.45 61.3 -91.75 61.35 -91.95 61.5 -92.2 61.65 -92.4 61.85 -92.6 62.05 -92.75 62.25 -92.9 62.5 -93 62.8 -93.15 63.1 -93.2 63.45 -93.3 63.8 -93.35 64.2 -93.35 64.55 -93.35 65 -93.35 65.4 -93.35 65.75 -93.3 66.15 -93.25 66.45 -93.15 66.8 -93.05 67.1 -92.95 67.4 -92.75 67.65 -92.6 67.9 -92.4 68.1 -92.2 68.3 -92 68.45 -91.75 68.6 -91.5 68.65 -91.2 68.7 -90.9 68.7 -90.6 68.7 -90.35 68.65 -90.1 68.6 -89.85 68.45 -89.6 68.3 -89.4 68.1 -89.2 67.9 -89.05 67.65 -88.9 67.4 -88.75 67.1 -88.65 66.8 -88.55 66.45 -88.45 66.15 -88.45 65.75 -88.4 65.4 -88.4 65 -88.4 64.55 -88.45 64.2 -88.45 63.85 -88.55 63.5 -88.65 63.15 -88.75 62.85 -88.9 62.55 -89.05 62.3 -89.25 62.05 -89.45 61.85
M -91.45 62.55
Q -91.3 62.5 -91.2 62.45 -91.05 62.4 -90.9 62.4 -90.75 62.4 -90.6 62.45 -90.5 62.5 -90.35 62.6 -90.2 62.7 -90.1 62.8 -90 62.95 -89.95 63.15 -89.85 63.3 -89.8 63.5 -89.75 63.75 -89.7 63.95 -89.65 64.2 -89.65 64.45 -89.6 64.7 -89.6 65 -89.6 65.25 -89.6 65.5 -89.65 65.75 -89.7 66 -89.8 66.45 -89.95 66.85 -90 67 -90.1 67.15 -90.2 67.3 -90.35 67.4 -90.5 67.5 -90.6 67.55 -90.75 67.6 -90.9 67.6 -91.05 67.6 -91.2 67.55 -91.35 67.5 -91.45 67.4 -91.7 67.2 -91.9 66.8 -91.95 66.65 -92 66.4 -92.05 66.2 -92.1 65.95 -92.15 65.75 -92.15 65.5 -92.15 65.25 -92.15 65 -92.15 64.7 -92.15 64.45 -92.15 64.2 -92.1 63.95 -92.05 63.7 -92 63.5 -91.95 63.3 -91.85 63.1 -91.8 62.95 -91.65 62.8 -91.55 62.65 -91.45 62.55
M -16.95 76.3
Q -16.95 76.15 -17.15 76 -17.25 75.9 -17.3 75.85 -17.4 75.85 -17.45 75.85 -17.6 75.85 -17.7 75.85 -17.75 75.9 -17.8 75.95 -17.85 76.05 -17.9 76.1 -17.95 76.15 -17.95 76.25 -18 76.35 -18 76.45 -18.05 76.5 -18.05 76.6 -18.1 76.7 -18.15 76.75 -18.15 76.85 -18.2 76.9 -18.3 76.95 -18.4 77 -18.45 77 -18.55 77.05 -18.7 77.05 -18.8 77.05 -18.9 77.05 -19 77.05 -19.1 77.1 -19.2 77.1 -19.3 77.15 -19.35 77.25 -19.45 77.3 -19.5 77.4 -19.5 77.5 -19.5 77.6 -19.5 77.7 -19.5 77.8 -19.45 77.9 -19.4 78 -19.35 78.05 -19.25 78.1 -19.15 78.15 -19.05 78.15
L -18.15 78.15
Q -18.15 78.7 -18.15 79.25 -18.15 79.8 -18.15 80.35 -18.15 81.45 -18.15 82.6 -18.15 82.7 -18.1 82.75 -18.05 82.85 -17.95 82.9 -17.85 83 -17.75 83.05 -17.65 83.05 -17.5 83.05
L -17.45 83.05
Q -17.4 83.05 -17.35 83.05 -17.3 83 -17.25 83 -17.2 82.95 -17.15 82.95 -17.1 82.9 -17.05 82.85 -17 82.8 -17 82.75 -16.95 82.75 -16.95 82.7 -16.95 82.65 -16.95 82.6
L -16.95 82.15
Q -16.95 81.4 -16.95 80.65 -16.95 79.95 -16.95 79.2 -16.95 78.5 -16.95 77.75 -16.95 77.05 -16.95 76.3
M -14.15 76.75
Q -14.15 76.85 -14.2 76.9 -14.3 76.95 -14.4 77 -14.45 77 -14.55 77.05 -14.7 77.05 -14.8 77.05 -14.9 77.05 -15 77.05 -15.1 77.1 -15.2 77.1 -15.3 77.15 -15.35 77.25 -15.45 77.3 -15.5 77.4 -15.5 77.5 -15.5 77.6 -15.5 77.7 -15.5 77.8 -15.45 77.9 -15.4 78 -15.35 78.05 -15.25 78.1 -15.15 78.15 -15.05 78.15
L -14.15 78.15
Q -14.15 78.7 -14.15 79.25 -14.15 79.8 -14.15 80.35 -14.15 81.45 -14.15 82.6 -14.15 82.7 -14.1 82.75 -14.05 82.85 -13.95 82.9 -13.85 83 -13.75 83.05 -13.65 83.05 -13.5 83.05
L -13.45 83.05
Q -13.4 83.05 -13.35 83.05 -13.3 83 -13.25 83 -13.2 82.95 -13.15 82.95 -13.1 82.9 -13.05 82.85 -13 82.8 -13 82.75 -12.95 82.75 -12.95 82.7 -12.95 82.65 -12.95 82.6
L -12.95 82.15
Q -12.95 81.4 -12.95 80.65 -12.95 79.95 -12.95 79.2 -12.95 78.5 -12.95 77.75 -12.95 77.05 -12.95 76.3 -12.95 76.15 -13.15 76 -13.25 75.9 -13.3 75.85 -13.4 75.85 -13.45 75.85 -13.6 75.85 -13.7 75.85 -13.75 75.9 -13.8 75.95 -13.85 76.05 -13.9 76.1 -13.95 76.15 -13.95 76.25 -14 76.35 -14 76.45 -14.05 76.5 -14.05 76.6 -14.1 76.7 -14.15 76.75
M -42.35 94.6
Q -42.35 94.35 -42.55 94.2 -42.75 94.1 -42.9 94.1 -43.05 94.1 -43.2 94.15 -43.3 94.15 -43.4 94.25 -43.5 94.3 -43.5 94.45 -43.55 94.55 -43.55 94.65
L -43.55 95.9 -44.7 95.9
Q -44.8 95.9 -44.9 95.95 -45 95.95 -45.05 96.05 -45.15 96.1 -45.15 96.2 -45.2 96.3 -45.2 96.45 -45.2 96.55 -45.15 96.65 -45.15 96.7 -45.05 96.8 -45 96.9 -44.9 96.9 -44.8 96.95 -44.7 96.95
L -43.55 96.95 -43.55 99.9
Q -43.55 100.05 -43.5 100.15 -43.45 100.25 -43.35 100.3 -43.25 100.35 -43.15 100.4 -43.05 100.45 -42.9 100.45 -42.8 100.45 -42.75 100.4 -42.65 100.35 -42.55 100.3 -42.45 100.25 -42.4 100.15 -42.35 100.05 -42.35 99.9
L -42.35 94.6
M -46.8 95.75
L -46.8 95.55 -45.7 95.55
Q -45.55 95.55 -45.45 95.5 -45.4 95.5 -45.35 95.4 -45.3 95.25 -45.3 95.05 -45.3 94.9 -45.3 94.8 -45.3 94.7 -45.35 94.65 -45.4 94.5 -45.7 94.5
L -49.2 94.5
Q -49.35 94.5 -49.45 94.55 -49.5 94.6 -49.55 94.65 -49.6 94.75 -49.65 94.85 -49.65 94.9 -49.65 95.05 -49.65 95.15 -49.65 95.25 -49.6 95.3 -49.55 95.4 -49.5 95.5 -49.4 95.5 -49.35 95.55 -49.2 95.55
L -48.05 95.55 -48.05 95.7
Q -48.05 95.85 -48.05 96 -48.1 96.15 -48.15 96.3 -48.2 96.5 -48.25 96.65 -48.35 96.8 -48.5 96.95 -48.55 97.1 -48.7 97.25 -48.8 97.35 -48.95 97.5 -49.1 97.65 -49.25 97.75 -49.4 97.85 -49.55 97.95 -49.65 98 -49.65 98.05 -49.7 98.05 -49.75 98.1 -49.75 98.15 -49.8 98.2 -49.8 98.25 -49.8 98.3 -49.8 98.4 -49.75 98.45 -49.75 98.5 -49.7 98.55 -49.7 98.65 -49.65 98.7 -49.6 98.75 -49.55 98.75
L -49.5 98.8
Q -49.45 98.85 -49.4 98.85 -49.35 98.9 -49.3 98.9 -49.25 98.9 -49.2 98.9
L -49.15 98.9
Q -49.1 98.85 -49.05 98.85 -49 98.85 -48.9 98.85 -48.4 98.55 -48.05 98.15 -47.9 97.95 -47.7 97.7 -47.55 97.5 -47.35 97.25 -47.2 97.5 -47.05 97.7 -46.85 97.9 -46.7 98.05 -46.3 98.45 -45.75 98.75 -45.7 98.75 -45.6 98.8 -45.55 98.8 -45.45 98.8 -45.3 98.8 -45.1 98.6 -45.05 98.5 -45 98.4 -44.95 98.3 -44.95 98.15 -44.95 98.1 -44.95 98.05 -45 98 -45 97.95 -45.05 97.95 -45.1 97.9 -45.15 97.85 -45.2 97.8 -45.35 97.75 -45.45 97.65 -45.6 97.55 -45.75 97.4 -46.05 97.2 -46.2 96.9 -46.35 96.75 -46.45 96.6 -46.55 96.45 -46.6 96.3 -46.7 96.15 -46.75 96.05 -46.8 95.9 -46.8 95.75
M -55.9 94.75
Q -56.45 94.95 -56.85 95.25 -57.05 95.4 -57.2 95.6 -57.35 95.8 -57.45 96 -57.55 96.25 -57.65 96.5 -57.7 96.75 -57.7 97 -57.7 97.45 -57.5 97.85 -57.4 98.05 -57.3 98.2 -57.15 98.4 -57 98.55 -56.75 98.85 -56.35 99.05 -56.1 99.15 -55.9 99.25 -55.65 99.3 -55.35 99.35
L -55.25 99.35 -55.25 101 -58.6 101
Q -58.75 101 -58.85 101.05 -58.95 101.05 -58.95 101.15 -59 101.2 -59 101.3 -59.05 101.4 -59.05 101.55 -59.05 101.65 -59 101.7 -59 101.8 -58.95 101.9 -58.95 101.95 -58.85 102 -58.75 102.05 -58.6 102.05
L -50.7 102.05
Q -50.55 102.05 -50.5 102 -50.4 101.95 -50.35 101.9 -50.3 101.8 -50.3 101.7 -50.3 101.65 -50.3 101.55 -50.3 101.4 -50.3 101.3 -50.3 101.2 -50.35 101.15 -50.4 101.05 -50.5 101.05 -50.55 101 -50.7 101
L -54.05 101 -54.05 99.35 -54 99.35
Q -53.7 99.3 -53.45 99.2 -53.3 99.2 -53.2 99.15 -53.05 99.1 -52.95 99 -52.85 98.95 -52.7 98.9 -52.6 98.85 -52.5 98.75 -51.65 98.1 -51.65 97 -51.65 96.75 -51.7 96.5 -51.75 96.25 -51.85 96 -51.95 95.8 -52.15 95.6 -52.3 95.4 -52.5 95.25 -52.7 95.1 -52.9 95 -53.15 94.85 -53.45 94.75 -53.7 94.7 -54 94.65 -54.35 94.6 -54.7 94.6 -55 94.6 -55.3 94.65 -55.6 94.7 -55.9 94.75
M -56.35 96.45
Q -56.25 96.2 -56 96.05 -55.8 95.85 -55.45 95.75 -55.1 95.65 -54.7 95.65 -53.8 95.65 -53.3 96.05 -53.1 96.2 -52.95 96.45 -52.85 96.7 -52.85 97 -52.85 97.3 -52.95 97.55 -53.1 97.8 -53.3 97.95 -53.8 98.3 -54.7 98.3 -55.1 98.3 -55.45 98.25 -55.8 98.15 -56 97.95 -56.25 97.8 -56.35 97.55 -56.5 97.3 -56.5 97 -56.5 96.7 -56.35 96.45
M -48.2 77.3
Q -48.3 77 -48.5 76.75 -48.65 76.5 -48.85 76.3 -49.05 76.1 -49.3 75.95 -49.55 75.85 -49.85 75.75 -50.15 75.7 -50.5 75.7 -50.75 75.7 -50.95 75.75 -51.2 75.8 -51.4 75.9 -51.65 76 -51.8 76.15 -52 76.25 -52.15 76.45 -52.35 76.65 -52.45 76.85 -52.6 77.05 -52.65 77.3 -52.75 77.5 -52.8 77.75 -52.85 78 -52.85 78.25 -52.85 78.55 -52.8 78.75 -52.75 79 -52.65 79.2 -52.6 79.45 -52.5 79.65 -52.35 79.8 -52.2 80 -52.05 80.15 -51.9 80.3 -51.75 80.4 -51.55 80.5 -51.35 80.6 -51.15 80.65 -51 80.7 -50.75 80.7 -50.7 80.7 -50.65 80.7
L -50.5 80.7
Q -50.25 80.65 -50.05 80.6 -49.8 80.55 -49.65 80.5 -49.45 80.4 -49.35 80.3 -49.2 80.2 -49.1 80.1 -49.1 80.25 -49.1 80.4 -49.15 80.55 -49.15 80.75 -49.2 80.95 -49.25 81.1 -49.3 81.25 -49.35 81.45 -49.45 81.6 -49.55 81.75 -49.7 81.9 -49.8 82 -49.95 82.1 -50.1 82.2 -50.3 82.25 -50.5 82.25 -50.7 82.25 -50.9 82.2 -51.05 82.15 -51.15 82.05 -51.3 81.95 -51.4 81.85 -51.5 81.75 -51.55 81.6 -51.65 81.45 -51.75 81.25 -51.8 81.15 -51.9 81.15 -52 81.1 -52.1 81.1 -52.3 81.1 -52.5 81.2 -52.6 81.25 -52.65 81.35 -52.7 81.45 -52.7 81.55 -52.7 81.65 -52.65 81.7 -52.65 81.8 -52.65 81.85 -52.6 81.9 -52.6 82 -52.55 82.1 -52.5 82.15 -52.5 82.25 -52.45 82.3 -52.4 82.35 -52.3 82.45 -52.25 82.5 -52.2 82.6 -52.15 82.65 -52.1 82.7 -51.95 82.85 -51.75 83 -51.6 83.1 -51.4 83.2 -51.2 83.25 -50.95 83.3 -50.75 83.35 -50.5 83.35 -50.2 83.35 -49.95 83.25 -49.65 83.2 -49.4 83.05 -49.15 82.95 -48.95 82.75 -48.7 82.55 -48.55 82.3 -48.4 82.05 -48.25 81.7 -48.15 81.4 -48.05 81.05 -47.95 80.7 -47.9 80.3 -47.85 79.9 -47.85 79.45 -47.85 79.05 -47.9 78.65 -47.95 78.25 -48 77.9 -48.1 77.55 -48.2 77.3
M -50.45 76.8
Q -49.85 76.8 -49.5 77.2 -49.35 77.4 -49.3 77.65 -49.2 77.9 -49.2 78.2 -49.2 78.55 -49.3 78.8 -49.35 79.05 -49.5 79.25 -49.85 79.65 -50.45 79.65 -50.7 79.65 -50.95 79.55 -51.15 79.45 -51.35 79.25 -51.5 79.05 -51.6 78.8 -51.7 78.55 -51.7 78.2 -51.7 77.6 -51.3 77.2 -50.95 76.8 -50.45 76.8
M -157.5 -90.1
Q -157.85 -90.1 -158.1 -90.05 -158.4 -90 -158.7 -89.95 -159.25 -89.8 -159.6 -89.55 -159.8 -89.4 -159.95 -89.2 -160.1 -89.05 -160.2 -88.85 -160.3 -88.65 -160.35 -88.4 -160.4 -88.2 -160.4 -87.95 -160.4 -87.7 -160.35 -87.45 -160.3 -87.25 -160.2 -87.05 -160.1 -86.85 -159.95 -86.7 -159.8 -86.55 -159.6 -86.4 -159.25 -86.1 -158.7 -85.95 -158.4 -85.9 -158.1 -85.85 -157.85 -85.85 -157.5 -85.85 -157.15 -85.85 -156.85 -85.85 -156.55 -85.9 -156.3 -85.95 -156.05 -86.05 -155.8 -86.15 -155.6 -86.25 -155.4 -86.4 -155.2 -86.55 -155.05 -86.7 -154.9 -86.85 -154.8 -87.05 -154.7 -87.25 -154.65 -87.45 -154.6 -87.7 -154.6 -87.95 -154.6 -88.2 -154.65 -88.4 -154.7 -88.65 -154.8 -88.85 -154.9 -89.05 -155.05 -89.2 -155.2 -89.4 -155.4 -89.5 -155.6 -89.65 -155.8 -89.75 -156.05 -89.9 -156.3 -89.95 -156.55 -90 -156.85 -90.05 -157.15 -90.1 -157.5 -90.1
M -157.5 -86.9
Q -157.9 -86.9 -158.2 -86.95 -158.5 -87.05 -158.75 -87.2 -158.95 -87.3 -159.1 -87.5 -159.2 -87.7 -159.2 -87.95 -159.2 -88.2 -159.1 -88.4 -158.95 -88.6 -158.75 -88.75 -158.5 -88.85 -158.2 -88.95 -157.9 -89 -157.5 -89 -157.1 -89 -156.8 -88.95 -156.5 -88.85 -156.25 -88.75 -156.05 -88.6 -155.95 -88.4 -155.8 -88.2 -155.8 -87.95 -155.8 -87.7 -155.95 -87.5 -156.05 -87.3 -156.25 -87.2 -156.5 -87.05 -156.8 -86.95 -157.1 -86.9 -157.5 -86.9
M -161.65 -94.25
Q -161.7 -94.05 -161.7 -93.85
L -161.7 -91.75
Q -161.7 -91.6 -161.7 -91.55 -161.65 -91.45 -161.6 -91.35 -161.55 -91.25 -161.5 -91.2 -161.45 -91.1 -161.4 -91.05 -161.3 -90.95 -161.1 -90.9 -161 -90.85 -160.9 -90.85 -160.8 -90.8 -160.7 -90.8
L -158.4 -90.8
Q -158.25 -90.8 -158.15 -90.85 -158.05 -90.85 -158 -90.9 -157.85 -90.95 -157.7 -91.1 -157.65 -91.2 -157.6 -91.25 -157.55 -91.35 -157.5 -91.45 -157.5 -91.5 -157.5 -91.6 -157.45 -91.7 -157.45 -91.8
L -157.45 -93.95
Q -157.45 -94.05 -157.5 -94.15 -157.5 -94.2 -157.55 -94.3 -157.6 -94.4 -157.65 -94.45 -157.7 -94.55 -157.75 -94.6 -157.85 -94.65 -157.95 -94.7 -158 -94.75 -158.1 -94.8 -158.3 -94.85 -158.45 -94.85
L -160.8 -94.85
Q -161 -94.85 -161.2 -94.8 -161.35 -94.7 -161.45 -94.55 -161.6 -94.4 -161.65 -94.25
M -160.5 -93.7
Q -160.45 -93.75 -160.35 -93.75 -160.3 -93.75 -160.2 -93.75 -160.1 -93.75 -160 -93.75 -159.9 -93.75 -159.8 -93.75
L -159.35 -93.75
Q -159.2 -93.75 -159 -93.75 -158.95 -93.75 -158.85 -93.75 -158.75 -93.75 -158.65 -93.75 -158.65 -93.65 -158.65 -93.55 -158.65 -93.45 -158.65 -93.4 -158.65 -93.3 -158.6 -93.2 -158.6 -93.1 -158.6 -93
L -158.6 -92.65
Q -158.6 -92.55 -158.6 -92.45 -158.65 -92.35 -158.65 -92.25 -158.65 -92.15 -158.65 -92.1 -158.65 -92 -158.65 -91.9 -158.75 -91.9 -158.85 -91.9 -158.95 -91.9 -159 -91.9 -159.2 -91.9 -159.35 -91.9
L -159.8 -91.9
Q -159.9 -91.9 -160 -91.9 -160.1 -91.9 -160.2 -91.9 -160.25 -91.9 -160.35 -91.9 -160.45 -91.9 -160.5 -91.9 -160.5 -92 -160.5 -92.1 -160.5 -92.15 -160.5 -92.25 -160.5 -92.35 -160.5 -92.45 -160.5 -92.55 -160.5 -92.65
L -160.5 -93.7
M -155.45 -95.15
Q -155.55 -95.1 -155.6 -95.1 -155.7 -95.05 -155.75 -94.95 -155.75 -94.85 -155.75 -94.75
L -155.75 -94.3 -156.75 -94.3
Q -156.9 -94.3 -156.95 -94.25 -157.05 -94.2 -157.1 -94.15 -157.15 -94 -157.15 -93.8 -157.15 -93.7 -157.15 -93.6 -157.15 -93.5 -157.1 -93.45 -157.05 -93.4 -156.95 -93.35 -156.9 -93.3 -156.75 -93.3
L -155.75 -93.3 -155.75 -92.6 -156.75 -92.6
Q -156.9 -92.6 -156.95 -92.6 -157.05 -92.55 -157.1 -92.5 -157.15 -92.4 -157.15 -92.35 -157.15 -92.25 -157.15 -92.15 -157.15 -92.05 -157.15 -91.95 -157.15 -91.85 -157.1 -91.8 -157.05 -91.75 -156.95 -91.7 -156.9 -91.65 -156.75 -91.65
L -155.75 -91.65 -155.75 -90.7
Q -155.75 -90.6 -155.75 -90.5 -155.7 -90.4 -155.6 -90.4 -155.55 -90.35 -155.45 -90.3 -155.35 -90.3 -155.2 -90.3 -155.1 -90.3 -155 -90.3 -154.9 -90.35 -154.85 -90.4 -154.75 -90.4 -154.7 -90.5 -154.65 -90.6 -154.65 -90.7
L -154.65 -94.75
Q -154.65 -94.85 -154.7 -94.95 -154.75 -95.05 -154.85 -95.1 -154.9 -95.1 -155 -95.15 -155.1 -95.15 -155.2 -95.15 -155.35 -95.15 -155.45 -95.15
M -151.4 -89.9
Q -151.4 -90.1 -151.4 -90.3 -151.4 -90.45 -151.4 -90.65 -151.4 -91 -151.4 -91.3 -151.45 -91.65 -151.5 -91.95 -151.55 -92.25 -151.65 -92.55 -151.75 -92.8 -151.85 -93.1 -151.9 -93.2 -151.95 -93.3 -152 -93.45 -152.1 -93.6 -152.15 -93.7 -152.2 -93.8 -152.25 -93.95 -152.3 -94.05 -152.4 -94.2 -152.45 -94.3 -152.55 -94.4 -152.6 -94.5 -152.65 -94.65 -152.7 -94.7 -152.75 -94.8 -152.75 -94.85 -152.85 -94.9 -152.9 -95 -152.95 -95.05 -153 -95.1 -153.05 -95.15 -153.15 -95.2 -153.25 -95.2 -153.35 -95.2 -153.5 -95.15 -153.6 -95.05
L -153.65 -95
Q -153.65 -94.95 -153.65 -94.9 -153.65 -94.85 -153.65 -94.8 -153.6 -94.75 -153.6 -94.7 -153.55 -94.6 -153.55 -94.55 -153.5 -94.5 -153.45 -94.45 -153.45 -94.35 -153.35 -94.2 -153.3 -94.1 -153.25 -93.95 -153.15 -93.8 -153.1 -93.65 -153.05 -93.55 -153 -93.4 -152.95 -93.25 -152.9 -93.1 -152.85 -93 -152.8 -92.85 -152.75 -92.7 -152.7 -92.6 -152.65 -92.45 -152.65 -92.35 -152.6 -92.15 -152.55 -91.9 -152.5 -91.7 -152.5 -91.5 -152.5 -91.25 -152.5 -91.05 -152.45 -90.85 -152.45 -90.65 -152.45 -90.55 -152.45 -90.4 -152.5 -90.3 -152.5 -90.15 -152.5 -90 -152.5 -89.9 -152.5 -89.75 -152.55 -89.6 -152.55 -89.45 -152.55 -89.35 -152.6 -89.2 -152.6 -89.05 -152.6 -88.9 -152.65 -88.8 -152.65 -88.65 -152.7 -88.55 -152.8 -88.1 -152.95 -87.7 -153.05 -87.45 -153.15 -87.25 -153.25 -87 -153.4 -86.75 -153.45 -86.7 -153.45 -86.65 -153.5 -86.6 -153.55 -86.55 -153.55 -86.5 -153.6 -86.45 -153.6 -86.4 -153.6 -86.35 -153.65 -86.25 -153.55 -86.15 -153.5 -86.1 -153.45 -86.1 -153.35 -86.05 -153.25 -86.05 -153.15 -86 -153.1 -86.05 -153 -86.05 -152.9 -86.15 -152.85 -86.2 -152.8 -86.25 -152.75 -86.35 -152.7 -86.4 -152.55 -86.65 -152.35 -87.05 -152.15 -87.4 -151.95 -87.85 -151.8 -88.1 -151.7 -88.45 -151.7 -88.6 -151.65 -88.8 -151.6 -88.95 -151.5 -89.15 -151.5 -89.35 -151.45 -89.55 -151.45 -89.7 -151.4 -89.9
M -164.85 -93.3
Q -164.9 -93.2 -164.9 -93.1 -165.05 -92.8 -165.15 -92.55 -165.25 -92.25 -165.3 -91.95 -165.35 -91.65 -165.4 -91.3 -165.4 -91 -165.4 -90.65 -165.4 -90.45 -165.4 -90.3 -165.4 -90.1 -165.35 -89.9 -165.35 -89.5 -165.25 -89.15 -165.25 -88.95 -165.2 -88.8 -165.15 -88.6 -165.1 -88.45 -164.95 -88.1 -164.85 -87.85 -164.75 -87.6 -164.6 -87.4 -164.5 -87.2 -164.4 -87.05 -164.3 -86.85 -164.25 -86.7 -164.15 -86.55 -164.05 -86.4 -164.05 -86.35 -164 -86.25 -163.95 -86.2 -163.85 -86.15 -163.8 -86.05 -163.7 -86.05 -163.6 -86 -163.55 -86.05 -163.4 -86.05 -163.35 -86.1 -163.25 -86.1 -163.25 -86.15 -163.2 -86.2 -163.2 -86.25 -163.2 -86.3 -163.2 -86.35 -163.2 -86.4 -163.2 -86.45 -163.25 -86.5 -163.25 -86.55 -163.3 -86.6 -163.3 -86.65 -163.35 -86.7 -163.4 -86.75 -163.5 -87 -163.65 -87.25 -163.75 -87.45 -163.8 -87.7 -163.9 -87.9 -163.95 -88.1 -164.05 -88.35 -164.1 -88.55 -164.1 -88.65 -164.15 -88.8 -164.15 -88.9 -164.2 -89.05 -164.2 -89.2 -164.25 -89.35 -164.25 -89.45 -164.25 -89.6 -164.3 -89.75 -164.3 -89.9 -164.35 -90 -164.35 -90.15 -164.35 -90.3 -164.35 -90.4 -164.35 -90.55 -164.35 -90.65 -164.35 -90.85 -164.35 -91.05 -164.35 -91.25 -164.3 -91.5 -164.3 -91.7 -164.25 -91.9 -164.2 -92.15 -164.15 -92.35 -164.1 -92.45 -164.1 -92.6 -164.05 -92.7 -164 -92.85 -163.95 -93.1 -163.8 -93.4 -163.75 -93.55 -163.7 -93.65 -163.6 -93.8 -163.55 -93.95 -163.5 -94.1 -163.45 -94.2 -163.35 -94.35 -163.3 -94.45 -163.25 -94.5 -163.25 -94.55 -163.2 -94.6 -163.2 -94.7 -163.2 -94.75 -163.15 -94.8 -163.15 -94.85 -163.15 -94.9 -163.15 -94.95 -163.15 -95 -163.15 -95.05 -163.2 -95.05 -163.25 -95.1 -163.3 -95.15 -163.4 -95.15 -163.5 -95.2 -163.55 -95.2 -163.65 -95.2 -163.7 -95.15 -163.8 -95.1 -163.85 -95.05 -163.9 -95 -164 -94.9 -164 -94.85 -164.05 -94.8 -164.1 -94.7 -164.15 -94.65 -164.2 -94.5 -164.3 -94.4 -164.35 -94.3 -164.4 -94.2 -164.45 -94.05 -164.5 -93.95 -164.6 -93.8 -164.65 -93.7 -164.7 -93.6 -164.8 -93.45 -164.85 -93.3 Z"/>
</g>

<g id="Layer0_1_FILL">
<path fill="#FFFFFF" stroke="none" d="
M 870 20.75
Q 870 5.75 855 5.75
L 425 5.75
Q 410 5.75 410 20.75
L 410 50.8
Q 410 65.8 425 65.8
L 855 65.8
Q 870 65.8 870 50.8
L 870 20.75 Z"/>
</g>

<path id="Symbol_3_copy_2_0_Layer2_0_1_STROKES" stroke="#81CFF4" stroke-width="0.4" stroke-linejoin="miter" stroke-linecap="butt" stroke-miterlimit="4" fill="none" d="
M -85 49.6
L 155.95 49.6
M -85 60.25
L 155.95 60.25
M -85 28.35
L 155.95 28.35
M -85 39
L 155.95 39
M -85 7.1
L 155.95 7.1
M -85 -46.05
L 155.95 -46.05
M -85 -24.8
L 155.95 -24.8
M -85 -14.15
L 155.95 -14.15
M -85 -3.55
L 155.95 -3.55
M -85 -77.95
L 155.95 -77.95
M -85 -67.3
L 155.95 -67.3
M -85 -56.7
L 155.95 -56.7"/>

<path id="Symbol_3_copy_2_0_Layer2_1_1_STROKES" stroke="#00A3E9" stroke-width="1" stroke-linejoin="miter" stroke-linecap="butt" stroke-miterlimit="4" fill="none" d="
M 71.2 117.3
L 312.15 117.3"/>

<path id="Symbol_3_copy_2_0_Layer2_2_1_STROKES" stroke="#00A3E9" stroke-width="1" stroke-linejoin="miter" stroke-linecap="butt" stroke-miterlimit="4" fill="none" d="
M 71.2 64.15
L 312.15 64.15"/>

<path id="Symbol_3_copy_2_0_Layer2_3_1_STROKES" stroke="#00A3E9" stroke-width="1" stroke-linejoin="miter" stroke-linecap="butt" stroke-miterlimit="4" fill="none" d="
M 71.2 11
L 312.15 11"/>

<path id="Symbol_3_copy_2_0_Layer2_4_1_STROKES" stroke="#332D2B" stroke-width="0.5" stroke-linejoin="miter" stroke-linecap="butt" stroke-miterlimit="4" fill="none" d="
M -169.9 107.6
L -85 70.9"/>

<path id="Symbol_3_copy_2_0_Layer2_5_1_STROKES" stroke="#332D2B" stroke-width="1.5" stroke-linejoin="miter" stroke-linecap="butt" stroke-miterlimit="4" fill="none" d="
M -169.8 108.2
L 156 108.2 156 -99.2 -169.8 -99.2 -169.8 108.2 Z"/>

<path id="Symbol_3_copy_2_0_Layer2_6_1_STROKES" stroke="#332D2B" stroke-width="1" stroke-linejoin="miter" stroke-linecap="butt" stroke-miterlimit="4" fill="none" d="
M 155.95 70.9
L -169.65 70.9"/>

<path id="Symbol_3_copy_2_0_Layer2_7_1_STROKES" stroke="#332D2B" stroke-width="1" stroke-linejoin="miter" stroke-linecap="butt" stroke-miterlimit="4" fill="none" d="
M -85 -99.2
L -85 108"/>

<path id="Symbol_3_copy_2_0_Layer2_8_1_STROKES" stroke="#332D2B" stroke-width="1" stroke-linejoin="miter" stroke-linecap="butt" stroke-miterlimit="4" fill="none" d="
M -50.6 -99.2
L -50.6 70.6"/>

<path id="Symbol_3_copy_2_0_Layer2_9_1_STROKES" stroke="#332D2B" stroke-width="1" stroke-linejoin="miter" stroke-linecap="butt" stroke-miterlimit="4" fill="none" d="
M -16.15 -99.2
L -16.15 70.6"/>

<path id="Symbol_3_copy_2_0_Layer2_10_1_STROKES" stroke="#332D2B" stroke-width="1" stroke-linejoin="miter" stroke-linecap="butt" stroke-miterlimit="4" fill="none" d="
M 18.25 -99.2
L 18.25 70.6"/>

<path id="Symbol_3_copy_2_0_Layer2_11_1_STROKES" stroke="#332D2B" stroke-width="1" stroke-linejoin="miter" stroke-linecap="butt" stroke-miterlimit="4" fill="none" d="
M 52.65 -99.2
L 52.65 70.6"/>

<path id="Symbol_3_copy_2_0_Layer2_12_1_STROKES" stroke="#332D2B" stroke-width="1" stroke-linejoin="miter" stroke-linecap="butt" stroke-miterlimit="4" fill="none" d="
M 87.1 -99.2
L 87.1 70.6"/>

<path id="Symbol_3_copy_2_0_Layer2_13_1_STROKES" stroke="#332D2B" stroke-width="1" stroke-linejoin="miter" stroke-linecap="butt" stroke-miterlimit="4" fill="none" d="
M 121.5 -99.2
L 121.5 70.6"/>

<path id="Layer0_1_1_STROKES" stroke="#DBDBDB" stroke-width="3" stroke-linejoin="round" stroke-linecap="round" fill="none" d="
M 425 5.75
L 855 5.75
Q 870 5.75 870 20.75
L 870 50.8
Q 870 65.8 855 65.8
L 425 65.8
Q 410 65.8 410 50.8
L 410 20.75
Q 410 5.75 425 5.75 Z"/>
</defs>

<g transform="matrix( 1.79998779296875, 0, 0, 1.79998779296875, 653.9,259.55) ">
<g transform="matrix( 1, 0, 0, 1, 0,0) ">
<use xlink:href="#Symbol_3_copy_2_0_Layer2_0_FILL"/>

<use xlink:href="#Symbol_3_copy_2_0_Layer2_0_1_STROKES"/>
</g>

<g transform="matrix( 1, 0, 0, 1, -156.2,-99.55) ">
<use xlink:href="#Symbol_3_copy_2_0_Layer2_1_1_STROKES"/>
</g>

<g transform="matrix( 1, 0, 0, 1, -156.2,-99.55) ">
<use xlink:href="#Symbol_3_copy_2_0_Layer2_2_1_STROKES"/>
</g>

<g transform="matrix( 1, 0, 0, 1, -156.2,-99.55) ">
<use xlink:href="#Symbol_3_copy_2_0_Layer2_3_1_STROKES"/>
</g>

<g transform="matrix( 1, 0, 0, 1, 0,0) ">
<use xlink:href="#Symbol_3_copy_2_0_Layer2_4_1_STROKES"/>
</g>

<g transform="matrix( 1, 0, 0, 1, 0,0) ">
<use xlink:href="#Symbol_3_copy_2_0_Layer2_5_1_STROKES"/>
</g>

<g transform="matrix( 1, 0, 0, 1, 0,0) ">
<use xlink:href="#Symbol_3_copy_2_0_Layer2_6_1_STROKES"/>
</g>

<g transform="matrix( 1, 0, 0, 1, 0,0) ">
<use xlink:href="#Symbol_3_copy_2_0_Layer2_7_1_STROKES"/>
</g>

<g transform="matrix( 1, 0, 0, 1, 0,0) ">
<use xlink:href="#Symbol_3_copy_2_0_Layer2_8_1_STROKES"/>
</g>

<g transform="matrix( 1, 0, 0, 1, 0,0) ">
<use xlink:href="#Symbol_3_copy_2_0_Layer2_9_1_STROKES"/>
</g>

<g transform="matrix( 1, 0, 0, 1, 0,0) ">
<use xlink:href="#Symbol_3_copy_2_0_Layer2_10_1_STROKES"/>
</g>

<g transform="matrix( 1, 0, 0, 1, 0,0) ">
<use xlink:href="#Symbol_3_copy_2_0_Layer2_11_1_STROKES"/>
</g>

<g transform="matrix( 1, 0, 0, 1, 0,0) ">
<use xlink:href="#Symbol_3_copy_2_0_Layer2_12_1_STROKES"/>
</g>

<g transform="matrix( 1, 0, 0, 1, 0,0) ">
<use xlink:href="#Symbol_3_copy_2_0_Layer2_13_1_STROKES"/>
</g>

<g transform="matrix( 1, 0, 0, 1, 0,0) ">
<use xlink:href="#Symbol_3_copy_2_0_Layer1_0_FILL"/>
</g>
</g>

<g transform="matrix( 1, 0, 0, 1, 0,0) ">
<use xlink:href="#Layer0_1_FILL"/>

<use xlink:href="#Layer0_1_1_STROKES"/>
</g>
</svg>
