
<svg xmlns="http://www.w3.org/2000/svg" version="1.1" xmlns:xlink="http://www.w3.org/1999/xlink" preserveAspectRatio="none" x="0px" y="0px" width="1280px" height="720px" viewBox="0 0 1280 720">
<defs>
<g id="Layer0_0_FILL">
<path fill="#1E1E1E" stroke="none" d="
M 1035.5 500.95
Q 1034.8 500.85 1034.1 500.85 1033.45 500.85 1032.9 500.95 1032.3 501.05 1031.75 501.2 1031.2 501.45 1030.75 501.75 1030.25 502.05 1029.9 502.4 1029.45 502.75 1029.05 503.2 1028.7 503.6 1028.4 504.1 1028.1 504.6 1027.95 505.2 1027.75 505.75 1027.75 506.35 1027.75 506.8 1027.85 507.1 1027.95 507.4 1028.25 507.55 1028.45 507.7 1028.8 507.8 1029.2 507.9 1029.65 507.9 1029.9 507.9 1030.1 507.8 1030.25 507.75 1030.4 507.55 1030.5 507.45 1030.65 507.3 1030.8 507.1 1030.95 506.9 1031.05 506.7 1031.1 506.45 1031.25 506.25 1031.3 505.95 1031.4 505.7 1031.5 505.5 1031.6 505.25 1031.7 505.05 1031.95 504.8 1032.2 504.65 1032.4 504.45 1032.7 504.3 1033.2 504.05 1034.15 504.05 1035.05 504.05 1035.65 504.3 1035.95 504.45 1036.15 504.65 1036.35 504.8 1036.5 505.05 1036.7 505.25 1036.8 505.5 1036.95 505.75 1037.05 506 1037.15 506.25 1037.2 506.5 1037.25 506.8 1037.25 507 1037.2 507.5 1037.1 507.85 1037 508.25 1036.8 508.5 1036.55 508.8 1036.3 509.05 1036 509.3 1035.65 509.45 1035.4 509.65 1035.05 509.75 1034.75 509.85 1034.35 509.9 1033.95 510 1033.55 510 1033.15 510.05 1032.75 510.05 1032.65 510.85 1032.65 511.65 1032.6 512.05 1032.6 512.45 1032.6 512.85 1032.6 513.2 1032.65 513.3 1032.85 513.35 1033 513.4 1033.3 513.4 1033.55 513.4 1033.8 513.4 1034.05 513.45 1034.3 513.45 1034.65 513.5 1034.95 513.55 1035.3 513.6 1035.6 513.65 1035.9 513.75 1036.15 513.85 1036.4 514 1036.6 514.15 1036.9 514.35 1037.15 514.6 1037.35 514.8 1037.55 515.1 1037.65 515.45 1037.7 515.8 1037.8 516.2 1037.8 516.7 1037.75 517.35 1037.5 517.95 1037.25 518.55 1036.75 519 1036.2 519.45 1035.6 519.7 1034.9 519.95 1034.15 519.95 1033.6 519.95 1033.15 519.85 1032.75 519.8 1032.5 519.65 1032.15 519.5 1031.9 519.3 1031.65 519.15 1031.5 518.85 1031.15 518.4 1030.85 517.7 1030.7 517.35 1030.55 517 1030.4 516.65 1030.25 516.25 1030.15 516.1 1029.95 516 1029.8 515.9 1029.65 515.85 1029.4 515.8 1029.2 515.75 1029.05 515.7 1028.9 515.7 1028.4 515.7 1028.05 515.85 1027.75 515.95 1027.55 516.2 1027.35 516.45 1027.3 516.75 1027.2 517.05 1027.2 517.4
L 1027.2 517.6
Q 1027.3 518.3 1027.5 518.9 1027.7 519.45 1028.05 519.95 1028.35 520.5 1028.75 520.95 1029.15 521.4 1029.65 521.75 1030.05 522.15 1030.55 522.45 1031.05 522.7 1031.65 522.9 1032.25 523.1 1032.9 523.2 1033.5 523.3 1034.15 523.25 1034.95 523.25 1035.65 523.15 1036.4 523 1037.1 522.75 1037.75 522.5 1038.3 522.1 1038.85 521.75 1039.3 521.3 1039.75 520.9 1040.15 520.35 1040.55 519.8 1040.8 519.2 1041.35 518 1041.35 516.6 1041.35 516.15 1041.3 515.8 1041.2 515.35 1041.05 515 1040.9 514.65 1040.7 514.3 1040.55 513.95 1040.35 513.6 1040 513 1039.45 512.45 1039.15 512.2 1038.85 511.95 1038.5 511.75 1038.2 511.55 1038.4 511.45 1038.6 511.3 1038.8 511.15 1038.95 510.95 1039.1 510.8 1039.35 510.55 1039.55 510.35 1039.8 510.05 1040.2 509.45 1040.4 508.65 1040.6 507.85 1040.6 506.85 1040.6 506.25 1040.5 505.7 1040.4 505.15 1040.2 504.6 1039.95 504.05 1039.65 503.55 1039.35 503.1 1038.95 502.65 1037.95 501.85 1036.75 501.3 1036.15 501.1 1035.5 500.95
M 1017.15 504.05
Q 1016.6 504.9 1016.1 505.75 1015.55 506.7 1015 507.6 1014.45 508.55 1013.85 509.45 1012.7 511.25 1011.65 512.95 1011.05 513.85 1010.5 514.7 1009.9 515.6 1009.3 516.5
L 1009.2 516.9 1009.15 516.9 1009.1 516.95
Q 1009.05 517.15 1008.95 517.3 1008.9 517.45 1008.85 517.6 1008.8 517.85 1008.85 518 1008.85 518.2 1008.9 518.4 1008.95 518.6 1009 518.75 1009.05 518.95 1009.15 519.1 1009.2 519.3 1009.3 519.4 1009.45 519.55 1009.6 519.6 1009.75 519.7 1009.9 519.75 1010.05 519.8 1010.25 519.85 1010.4 519.9 1010.55 519.9 1010.7 519.9 1010.9 519.9
L 1018.45 519.9 1018.45 521.3
Q 1018.45 521.8 1018.6 522.15 1018.7 522.5 1018.95 522.65 1019.4 523 1020.3 523 1020.9 523 1021.5 522.65 1022 522.35 1022 521.3
L 1022 519.9 1023 519.9
Q 1023.5 519.9 1023.8 519.75 1024.15 519.65 1024.3 519.35 1024.4 519.1 1024.5 518.8 1024.55 518.5 1024.55 518.1 1024.55 517.75 1024.5 517.45 1024.4 517.15 1024.3 516.9 1024.15 516.6 1023.8 516.5 1023.5 516.35 1023 516.35
L 1022 516.35 1021.9 503.1
Q 1021.9 502.85 1021.85 502.65 1021.85 502.45 1021.75 502.25 1021.6 502.05 1021.45 501.85 1021.25 501.65 1021 501.5 1020.65 501.25 1020.3 501.2 1019.95 501.15 1019.6 501.2 1019.2 501.35 1018.9 501.55 1018.6 501.75 1018.35 502.05
L 1018.15 502.4
Q 1017.65 503.2 1017.15 504.05
M 1016.7 510.95
Q 1017.05 510.45 1017.35 509.9 1018 508.95 1018.35 508.2
L 1018.35 516.4 1013.2 516.4
Q 1013.5 515.95 1013.85 515.45 1014.2 514.9 1014.6 514.35 1014.95 513.75 1015.25 513.2 1015.6 512.65 1015.9 512.05 1016.3 511.5 1016.7 510.95
M 1003.35 525.65
Q 1004.15 525.65 1004.55 525.25 1004.95 524.85 1004.95 524.1
L 1004.95 522.8
Q 1004.95 522.4 1004.85 522.1 1004.75 521.85 1004.55 521.6 1004.3 521.45 1004 521.35 1003.7 521.25 1003.3 521.25
L 1002.1 521.25
Q 1001.65 521.25 1001.35 521.3 1001 521.4 1000.85 521.6 1000.65 521.75 1000.55 522.1 1000.45 522.4 1000.45 522.8
L 1000.45 524.1
Q 1000.45 524.55 1000.55 524.85 1000.65 525.15 1000.85 525.3 1001 525.5 1001.35 525.55 1001.65 525.65 1002.1 525.65
L 1003.35 525.65
M 994.8 518.4
Q 995.15 517.5 995.4 516.45 995.65 515.45 995.75 514.35 995.85 513.2 995.85 512 995.85 510.75 995.75 509.65 995.65 508.55 995.4 507.5 995.15 506.45 994.75 505.55 994.35 504.7 993.85 503.95 993.35 503.2 992.75 502.6 992.15 502.05 991.5 501.6 990.8 501.2 990 500.95 989.25 500.75 988.35 500.75 987.45 500.75 986.65 500.95 985.8 501.15 985.15 501.6 984.45 502 983.85 502.55 983.25 503.15 982.75 503.8 982.3 504.6 982 505.5 981.65 506.35 981.4 507.4 981.15 508.45 981.05 509.6 980.95 510.7 980.95 512 980.95 513.2 981.05 514.35 981.15 515.45 981.35 516.45 981.55 517.5 981.9 518.4 982.25 519.3 982.75 520.05 983.25 520.8 983.85 521.35 984.45 521.95 985.1 522.35 985.75 522.8 986.55 523 987.4 523.2 988.35 523.2 989.25 523.2 990.05 523 990.8 522.8 991.5 522.35 992.25 521.95 992.8 521.35 993.4 520.8 993.9 520.05 994.4 519.3 994.8 518.4
M 985.45 506.4
Q 985.7 505.9 986.05 505.5 986.35 505.05 986.75 504.75 987.1 504.5 987.5 504.35 987.9 504.2 988.35 504.2 988.8 504.2 989.2 504.35 989.6 504.5 990 504.8 990.4 505.1 990.7 505.5 991 505.95 991.25 506.5 991.45 507 991.6 507.6 991.8 508.25 991.95 508.95 992.1 509.65 992.15 510.4 992.25 511.2 992.25 512 992.25 512.8 992.2 513.55 992.1 514.35 992 515 991.65 516.45 991.25 517.55 991.05 518.1 990.7 518.5 990.4 518.95 990.05 519.25 989.6 519.55 989.2 519.7 988.8 519.9 988.35 519.9 987.9 519.9 987.45 519.7 987.05 519.55 986.65 519.2 985.95 518.6 985.4 517.5 985.2 516.95 985.05 516.3 984.85 515.7 984.8 514.95 984.65 514.25 984.6 513.5 984.55 512.75 984.55 512 984.55 511.15 984.6 510.4 984.65 509.65 984.8 508.9 984.85 508.2 985.05 507.55 985.2 506.95 985.45 506.4
M 670.95 507.25
Q 670.95 506.7 670.85 506.1 670.75 505.5 670.5 504.95 670.3 504.35 669.95 503.85 669.65 503.35 669.2 502.85 668.7 502.4 668.15 502.05 667.6 501.7 667 501.4 666.4 501.15 665.7 501 665.05 500.85 664.35 500.85
L 664.3 500.85
Q 663.55 500.85 662.9 501 662.3 501.15 661.7 501.4 661.1 501.7 660.55 502.1 660 502.45 659.55 502.9 658.75 503.8 658.3 504.9 658.05 505.45 657.95 506 657.85 506.5 657.85 507.05 657.85 507.35 657.95 507.6 658.05 507.85 658.3 508.05 658.55 508.25 658.8 508.3 659.05 508.4 659.3 508.4 659.7 508.4 660.05 508.3 660.45 508.15 660.75 507.85 661 507.55 661.15 507.25 661.3 506.9 661.3 506.5 661.3 506.35 661.4 506.15 661.45 505.95 661.6 505.7 661.65 505.5 661.8 505.3 661.95 505.15 662.15 504.95 662.4 504.8 662.65 504.65 662.95 504.5 663.25 504.35 663.5 504.3 663.75 504.2 664.05 504.15 664.35 504.15 664.75 504.15 665.1 504.25 665.5 504.3 665.8 504.45 666.1 504.6 666.35 504.8 666.6 504.95 666.8 505.2 667 505.4 667.15 505.65 667.3 505.95 667.45 506.2 667.55 506.5 667.65 506.75 667.7 507.05 667.7 507.3 667.7 507.55 667.65 507.85 667.6 508.1 667.45 508.35 667.35 508.65 667.2 508.9 667 509.15 666.9 509.4 666.75 509.7 666.6 509.95 666.4 510.2 666.2 510.35 665.95 510.6 665.75 510.75 665.55 510.9 665.4 511 665 511.3 664.6 511.6 664.2 511.9 663.85 512.2 663.45 512.5 663.05 512.8 662.65 513.1 662.25 513.4 661.75 513.8 661.3 514.2 660.8 514.6 660.4 514.95 660 515.35 659.7 515.7 659.4 516.1 659.2 516.45 658.85 516.85 658.65 517.25 658.45 517.65 658.3 518.05 658.15 518.5 658.05 519 657.95 519.5 657.9 520.05 657.9 520.1 657.9 520.15 657.9 520.25 657.85 520.35 657.8 520.45 657.8 520.55 657.8 520.65 657.8 520.7
L 657.8 520.8
Q 657.8 520.9 657.8 521 657.8 521.1 657.8 521.2 657.75 521.65 657.9 521.95 658.05 522.3 658.4 522.45 658.65 522.65 659 522.75 659.3 522.85 659.7 522.85
L 669.65 522.85
Q 671.45 522.85 671.45 521.25 671.45 520.8 671.35 520.5 671.2 520.2 670.95 520.05 670.75 519.9 670.35 519.85 669.95 519.75 669.45 519.75
L 661.75 519.75
Q 661.75 519.3 661.9 518.85 662.05 518.4 662.35 518 662.6 517.6 662.95 517.2 663.3 516.85 663.75 516.5 664.1 516.15 664.5 515.85 664.95 515.55 665.4 515.25 665.85 515 666.2 514.75 666.6 514.5 666.85 514.25 667.3 513.95 667.75 513.65 668.15 513.3 668.55 512.95 668.9 512.6 669.2 512.2 669.5 511.8 669.75 511.4 670.1 511 670.35 510.55 670.55 510.1 670.7 509.55 670.85 509.05 670.9 508.5 670.95 507.9 670.95 507.25
M 652.2 503.1
Q 652.2 502.85 652.15 502.65 652.15 502.45 652.05 502.25 651.9 502.05 651.75 501.85 651.55 501.65 651.3 501.5 650.95 501.25 650.6 501.2 650.25 501.15 649.9 501.2 649.5 501.35 649.2 501.55 648.9 501.75 648.65 502.05
L 648.45 502.4
Q 647.95 503.2 647.45 504.05 646.9 504.9 646.4 505.75 645.85 506.7 645.3 507.6 644.75 508.55 644.15 509.45 643 511.25 641.95 512.95 641.35 513.85 640.8 514.7 640.2 515.6 639.6 516.5
L 639.5 516.9 639.45 516.9 639.4 516.95
Q 639.35 517.15 639.25 517.3 639.2 517.45 639.15 517.6 639.1 517.85 639.15 518 639.15 518.2 639.2 518.4 639.25 518.6 639.3 518.75 639.35 518.95 639.45 519.1 639.5 519.3 639.6 519.4 639.75 519.55 639.9 519.6 640.05 519.7 640.2 519.75 640.35 519.8 640.55 519.85 640.7 519.9 640.85 519.9 641 519.9 641.2 519.9
L 648.75 519.9 648.75 521.3
Q 648.75 521.8 648.9 522.15 649 522.5 649.25 522.65 649.7 523 650.6 523 651.2 523 651.8 522.65 652.3 522.35 652.3 521.3
L 652.3 519.9 653.3 519.9
Q 653.8 519.9 654.1 519.75 654.45 519.65 654.6 519.35 654.7 519.1 654.8 518.8 654.85 518.5 654.85 518.1 654.85 517.75 654.8 517.45 654.7 517.15 654.6 516.9 654.45 516.6 654.1 516.5 653.8 516.35 653.3 516.35
L 652.3 516.35 652.2 503.1
M 648.65 508.2
L 648.65 516.4 643.5 516.4
Q 643.8 515.95 644.15 515.45 644.5 514.9 644.9 514.35 645.25 513.75 645.55 513.2 645.9 512.65 646.2 512.05 646.6 511.5 647 510.95 647.35 510.45 647.65 509.9 648.3 508.95 648.65 508.2
M 634.3 521.35
Q 634 521.25 633.6 521.25
L 632.4 521.25
Q 631.95 521.25 631.65 521.3 631.3 521.4 631.15 521.6 630.95 521.75 630.85 522.1 630.75 522.4 630.75 522.8
L 630.75 524.1
Q 630.75 524.55 630.85 524.85 630.95 525.15 631.15 525.3 631.3 525.5 631.65 525.55 631.95 525.65 632.4 525.65
L 633.65 525.65
Q 634.45 525.65 634.85 525.25 635.25 524.85 635.25 524.1
L 635.25 522.8
Q 635.25 522.4 635.15 522.1 635.05 521.85 634.85 521.6 634.6 521.45 634.3 521.35
M 620.3 500.95
Q 619.55 500.75 618.65 500.75 617.75 500.75 616.95 500.95 616.1 501.15 615.45 501.6 614.75 502 614.15 502.55 613.55 503.15 613.05 503.8 612.6 504.6 612.3 505.5 611.95 506.35 611.7 507.4 611.45 508.45 611.35 509.6 611.25 510.7 611.25 512 611.25 513.2 611.35 514.35 611.45 515.45 611.65 516.45 611.85 517.5 612.2 518.4 612.55 519.3 613.05 520.05 613.55 520.8 614.15 521.35 614.75 521.95 615.4 522.35 616.05 522.8 616.85 523 617.7 523.2 618.65 523.2 619.55 523.2 620.35 523 621.1 522.8 621.8 522.35 622.55 521.95 623.1 521.35 623.7 520.8 624.2 520.05 624.7 519.3 625.1 518.4 625.45 517.5 625.7 516.45 625.95 515.45 626.05 514.35 626.15 513.2 626.15 512 626.15 510.75 626.05 509.65 625.95 508.55 625.7 507.5 625.45 506.45 625.05 505.55 624.65 504.7 624.15 503.95 623.65 503.2 623.05 502.6 622.45 502.05 621.8 501.6 621.1 501.2 620.3 500.95
M 617.8 504.35
Q 618.2 504.2 618.65 504.2 619.1 504.2 619.5 504.35 619.9 504.5 620.3 504.8 620.7 505.1 621 505.5 621.3 505.95 621.55 506.5 621.75 507 621.9 507.6 622.1 508.25 622.25 508.95 622.4 509.65 622.45 510.4 622.55 511.2 622.55 512 622.55 512.8 622.5 513.55 622.4 514.35 622.3 515 621.95 516.45 621.55 517.55 621.35 518.1 621 518.5 620.7 518.95 620.35 519.25 619.9 519.55 619.5 519.7 619.1 519.9 618.65 519.9 618.2 519.9 617.75 519.7 617.35 519.55 616.95 519.2 616.25 518.6 615.7 517.5 615.5 516.95 615.35 516.3 615.15 515.7 615.1 514.95 614.95 514.25 614.9 513.5 614.85 512.75 614.85 512 614.85 511.15 614.9 510.4 614.95 509.65 615.1 508.9 615.15 508.2 615.35 507.55 615.5 506.95 615.75 506.4 616 505.9 616.35 505.5 616.65 505.05 617.05 504.75 617.4 504.5 617.8 504.35
M 295.5 501.05
Q 295.1 501.05 294.85 501.15 294.6 501.25 294.45 501.45 294.35 501.65 294.25 501.85 294.1 502.05 294.05 502.3 293.9 502.55 293.85 502.85 293.75 503.1 293.7 503.35 293.6 503.6 293.5 503.85 293.4 504.05 293.25 504.2 293 504.35 292.75 504.5 292.5 504.6 292.2 504.65 291.85 504.7 291.55 504.75 291.2 504.75 290.9 504.75 290.55 504.8 290.25 504.9 290 505.05 289.8 505.25 289.55 505.5 289.45 505.8 289.35 506.05 289.4 506.35 289.4 506.7 289.45 506.95 289.55 507.25 289.75 507.5 289.9 507.75 290.15 507.9 290.4 508.05 290.8 508.05
L 293.5 508.05
Q 293.5 509.7 293.5 511.35 293.5 513 293.5 514.65 293.5 517.95 293.5 521.3 293.5 521.6 293.65 521.85 293.8 522.1 294.1 522.3 294.35 522.55 294.7 522.65 295 522.75 295.35 522.75 295.5 522.75 295.6 522.75 295.75 522.7 295.9 522.65 296 522.6 296.15 522.55 296.25 522.45 296.4 522.35 296.55 522.25 296.7 522.1 296.85 522 296.95 521.85 297 521.75 297.05 521.6 297.1 521.45 297.1 521.3
L 297.1 520.05
Q 297.1 517.8 297.1 515.55 297.1 513.4 297.1 511.2 297.05 509.05 297.05 506.85 297.05 504.7 297.05 502.5 297.05 501.95 296.5 501.5 296.2 501.3 295.95 501.15 295.7 501.05 295.5 501.05
M 283.8 503.1
Q 283.8 502.85 283.75 502.65 283.75 502.45 283.65 502.25 283.5 502.05 283.35 501.85 283.15 501.65 282.9 501.5 282.55 501.25 282.2 501.2 281.85 501.15 281.5 501.2 281.1 501.35 280.8 501.55 280.5 501.75 280.25 502.05
L 280.05 502.4
Q 279.55 503.2 279.05 504.05 278.5 504.9 278 505.75 277.45 506.7 276.9 507.6 276.35 508.55 275.75 509.45 274.6 511.25 273.55 512.95 272.95 513.85 272.4 514.7 271.8 515.6 271.2 516.5
L 271.1 516.9 271.05 516.9 271 516.95
Q 270.95 517.15 270.85 517.3 270.8 517.45 270.75 517.6 270.7 517.85 270.75 518 270.75 518.2 270.8 518.4 270.85 518.6 270.9 518.75 270.95 518.95 271.05 519.1 271.1 519.3 271.2 519.4 271.35 519.55 271.5 519.6 271.65 519.7 271.8 519.75 271.95 519.8 272.15 519.85 272.3 519.9 272.45 519.9 272.6 519.9 272.8 519.9
L 280.35 519.9 280.35 521.3
Q 280.35 521.8 280.5 522.15 280.6 522.5 280.85 522.65 281.3 523 282.2 523 282.8 523 283.4 522.65 283.9 522.35 283.9 521.3
L 283.9 519.9 284.9 519.9
Q 285.4 519.9 285.7 519.75 286.05 519.65 286.2 519.35 286.3 519.1 286.4 518.8 286.45 518.5 286.45 518.1 286.45 517.75 286.4 517.45 286.3 517.15 286.2 516.9 286.05 516.6 285.7 516.5 285.4 516.35 284.9 516.35
L 283.9 516.35 283.8 503.1
M 279.25 509.9
Q 279.9 508.95 280.25 508.2
L 280.25 516.4 275.1 516.4
Q 275.4 515.95 275.75 515.45 276.1 514.9 276.5 514.35 276.85 513.75 277.15 513.2 277.5 512.65 277.8 512.05 278.2 511.5 278.6 510.95 278.95 510.45 279.25 509.9
M 262.75 521.6
Q 262.55 521.75 262.45 522.1 262.35 522.4 262.35 522.8
L 262.35 524.1
Q 262.35 524.55 262.45 524.85 262.55 525.15 262.75 525.3 262.9 525.5 263.25 525.55 263.55 525.65 264 525.65
L 265.25 525.65
Q 266.05 525.65 266.45 525.25 266.85 524.85 266.85 524.1
L 266.85 522.8
Q 266.85 522.4 266.75 522.1 266.65 521.85 266.45 521.6 266.2 521.45 265.9 521.35 265.6 521.25 265.2 521.25
L 264 521.25
Q 263.55 521.25 263.25 521.3 262.9 521.4 262.75 521.6
M 242.95 509.6
Q 242.85 510.7 242.85 512 242.85 513.2 242.95 514.35 243.05 515.45 243.25 516.45 243.45 517.5 243.8 518.4 244.15 519.3 244.65 520.05 245.15 520.8 245.75 521.35 246.35 521.95 247 522.35 247.65 522.8 248.45 523 249.3 523.2 250.25 523.2 251.15 523.2 251.95 523 252.7 522.8 253.4 522.35 254.15 521.95 254.7 521.35 255.3 520.8 255.8 520.05 256.3 519.3 256.7 518.4 257.05 517.5 257.3 516.45 257.55 515.45 257.65 514.35 257.75 513.2 257.75 512 257.75 510.75 257.65 509.65 257.55 508.55 257.3 507.5 257.05 506.45 256.65 505.55 256.25 504.7 255.75 503.95 255.25 503.2 254.65 502.6 254.05 502.05 253.4 501.6 252.7 501.2 251.9 500.95 251.15 500.75 250.25 500.75 249.35 500.75 248.55 500.95 247.7 501.15 247.05 501.6 246.35 502 245.75 502.55 245.15 503.15 244.65 503.8 244.2 504.6 243.9 505.5 243.55 506.35 243.3 507.4 243.05 508.45 242.95 509.6
M 247.35 506.4
Q 247.6 505.9 247.95 505.5 248.25 505.05 248.65 504.75 249 504.5 249.4 504.35 249.8 504.2 250.25 504.2 250.7 504.2 251.1 504.35 251.5 504.5 251.9 504.8 252.3 505.1 252.6 505.5 252.9 505.95 253.15 506.5 253.35 507 253.5 507.6 253.7 508.25 253.85 508.95 254 509.65 254.05 510.4 254.15 511.2 254.15 512 254.15 512.8 254.1 513.55 254 514.35 253.9 515 253.55 516.45 253.15 517.55 252.95 518.1 252.6 518.5 252.3 518.95 251.95 519.25 251.5 519.55 251.1 519.7 250.7 519.9 250.25 519.9 249.8 519.9 249.35 519.7 248.95 519.55 248.55 519.2 247.85 518.6 247.3 517.5 247.1 516.95 246.95 516.3 246.75 515.7 246.7 514.95 246.55 514.25 246.5 513.5 246.45 512.75 246.45 512 246.45 511.15 246.5 510.4 246.55 509.65 246.7 508.9 246.75 508.2 246.95 507.55 247.1 506.95 247.35 506.4 Z"/>
</g>

<path id="Layer0_1_MEMBER_0_1_STROKES" stroke="#332D2B" stroke-width="3" stroke-linejoin="miter" stroke-linecap="butt" stroke-miterlimit="4" fill="none" d="
M 270.78798828125 455.00000000000006
L 270.78798828125 484.84999999999997"/>

<path id="Layer0_1_MEMBER_1_1_STROKES" stroke="#332D2B" stroke-width="2" stroke-linejoin="miter" stroke-linecap="butt" stroke-miterlimit="4" fill="none" d="
M 159.9402435302734 461.45000000000005
L 159.9402435302734 478.4"/>

<path id="Layer0_1_MEMBER_2_1_STROKES" stroke="#332D2B" stroke-width="2" stroke-linejoin="miter" stroke-linecap="butt" stroke-miterlimit="4" fill="none" d="
M 196.83949279785156 461.45000000000005
L 196.83949279785156 478.4"/>

<path id="Layer0_1_MEMBER_3_1_STROKES" stroke="#332D2B" stroke-width="2" stroke-linejoin="miter" stroke-linecap="butt" stroke-miterlimit="4" fill="none" d="
M 233.88873901367185 461.45000000000005
L 233.88873901367185 478.4"/>

<path id="Layer0_1_MEMBER_4_1_STROKES" stroke="#332D2B" stroke-width="3" stroke-linejoin="miter" stroke-linecap="butt" stroke-miterlimit="4" fill="none" d="
M 640.38046875 455.00000000000006
L 640.38046875 484.84999999999997"/>

<path id="Layer0_1_MEMBER_5_1_STROKES" stroke="#332D2B" stroke-width="2" stroke-linejoin="miter" stroke-linecap="butt" stroke-miterlimit="4" fill="none" d="
M 307.6872375488281 461.45000000000005
L 307.6872375488281 478.4"/>

<path id="Layer0_1_MEMBER_6_1_STROKES" stroke="#332D2B" stroke-width="2" stroke-linejoin="miter" stroke-linecap="butt" stroke-miterlimit="4" fill="none" d="
M 344.73648376464837 461.45000000000005
L 344.73648376464837 478.4"/>

<path id="Layer0_1_MEMBER_7_1_STROKES" stroke="#332D2B" stroke-width="2" stroke-linejoin="miter" stroke-linecap="butt" stroke-miterlimit="4" fill="none" d="
M 381.63573303222654 461.45000000000005
L 381.63573303222654 478.4"/>

<path id="Layer0_1_MEMBER_8_1_STROKES" stroke="#332D2B" stroke-width="2" stroke-linejoin="miter" stroke-linecap="butt" stroke-miterlimit="4" fill="none" d="
M 418.68497924804683 461.45000000000005
L 418.68497924804683 478.4"/>

<path id="Layer0_1_MEMBER_9_1_STROKES" stroke="#332D2B" stroke-width="2" stroke-linejoin="miter" stroke-linecap="butt" stroke-miterlimit="4" fill="none" d="
M 455.5842285156249 459.20000000000005
L 455.5842285156249 480.50000000000006"/>

<path id="Layer0_1_MEMBER_10_1_STROKES" stroke="#332D2B" stroke-width="2" stroke-linejoin="miter" stroke-linecap="butt" stroke-miterlimit="4" fill="none" d="
M 492.48347778320306 461.45000000000005
L 492.48347778320306 478.4"/>

<path id="Layer0_1_MEMBER_11_1_STROKES" stroke="#332D2B" stroke-width="2" stroke-linejoin="miter" stroke-linecap="butt" stroke-miterlimit="4" fill="none" d="
M 529.5327239990235 461.45000000000005
L 529.5327239990235 478.4"/>

<path id="Layer0_1_MEMBER_12_1_STROKES" stroke="#332D2B" stroke-width="2" stroke-linejoin="miter" stroke-linecap="butt" stroke-miterlimit="4" fill="none" d="
M 566.4319732666016 461.45000000000005
L 566.4319732666016 478.4"/>

<path id="Layer0_1_MEMBER_13_1_STROKES" stroke="#332D2B" stroke-width="2" stroke-linejoin="miter" stroke-linecap="butt" stroke-miterlimit="4" fill="none" d="
M 603.4812194824218 461.45000000000005
L 603.4812194824218 478.4"/>

<path id="Layer0_1_MEMBER_14_1_STROKES" stroke="#332D2B" stroke-width="3" stroke-linejoin="miter" stroke-linecap="butt" stroke-miterlimit="4" fill="none" d="
M 1009.9729492187499 455.00000000000006
L 1009.9729492187499 484.84999999999997"/>

<path id="Layer0_1_MEMBER_15_1_STROKES" stroke="#332D2B" stroke-width="2" stroke-linejoin="miter" stroke-linecap="butt" stroke-miterlimit="4" fill="none" d="
M 677.2797180175781 461.45000000000005
L 677.2797180175781 478.4"/>

<path id="Layer0_1_MEMBER_16_1_STROKES" stroke="#332D2B" stroke-width="2" stroke-linejoin="miter" stroke-linecap="butt" stroke-miterlimit="4" fill="none" d="
M 714.3289642333983 461.45000000000005
L 714.3289642333983 478.4"/>

<path id="Layer0_1_MEMBER_17_1_STROKES" stroke="#332D2B" stroke-width="2" stroke-linejoin="miter" stroke-linecap="butt" stroke-miterlimit="4" fill="none" d="
M 751.2282135009765 461.45000000000005
L 751.2282135009765 478.4"/>

<path id="Layer0_1_MEMBER_18_1_STROKES" stroke="#332D2B" stroke-width="2" stroke-linejoin="miter" stroke-linecap="butt" stroke-miterlimit="4" fill="none" d="
M 788.2774597167969 461.45000000000005
L 788.2774597167969 478.4"/>

<path id="Layer0_1_MEMBER_19_1_STROKES" stroke="#332D2B" stroke-width="2" stroke-linejoin="miter" stroke-linecap="butt" stroke-miterlimit="4" fill="none" d="
M 825.1767089843751 459.20000000000005
L 825.1767089843751 480.50000000000006"/>

<path id="Layer0_1_MEMBER_20_1_STROKES" stroke="#332D2B" stroke-width="2" stroke-linejoin="miter" stroke-linecap="butt" stroke-miterlimit="4" fill="none" d="
M 862.075958251953 461.45000000000005
L 862.075958251953 478.4"/>

<path id="Layer0_1_MEMBER_21_1_STROKES" stroke="#332D2B" stroke-width="2" stroke-linejoin="miter" stroke-linecap="butt" stroke-miterlimit="4" fill="none" d="
M 899.1252044677734 461.45000000000005
L 899.1252044677734 478.4"/>

<path id="Layer0_1_MEMBER_22_1_STROKES" stroke="#332D2B" stroke-width="2" stroke-linejoin="miter" stroke-linecap="butt" stroke-miterlimit="4" fill="none" d="
M 936.0244537353516 461.45000000000005
L 936.0244537353516 478.4"/>

<path id="Layer0_1_MEMBER_23_1_STROKES" stroke="#332D2B" stroke-width="2" stroke-linejoin="miter" stroke-linecap="butt" stroke-miterlimit="4" fill="none" d="
M 973.0736999511718 461.45000000000005
L 973.0736999511718 478.4"/>

<path id="Layer0_1_MEMBER_24_1_STROKES" stroke="#332D2B" stroke-width="2" stroke-linejoin="miter" stroke-linecap="butt" stroke-miterlimit="4" fill="none" d="
M 1046.8721984863282 461.45000000000005
L 1046.8721984863282 478.4"/>

<path id="Layer0_1_MEMBER_25_1_STROKES" stroke="#332D2B" stroke-width="2" stroke-linejoin="miter" stroke-linecap="butt" stroke-miterlimit="4" fill="none" d="
M 1083.9214447021486 461.45000000000005
L 1083.9214447021486 478.4"/>

<path id="Layer0_1_MEMBER_26_1_STROKES" stroke="#332D2B" stroke-width="2" stroke-linejoin="miter" stroke-linecap="butt" stroke-miterlimit="4" fill="none" d="
M 1120.8206939697266 459.20000000000005
L 1120.8206939697266 480.50000000000006"/>

<path id="Layer0_1_MEMBER_27_1_STROKES" stroke="#332D2B" stroke-width="3" stroke-linejoin="miter" stroke-linecap="butt" stroke-miterlimit="4" fill="none" d="
M 129.79085693359377 469.84999999999997
L 1150.2200958251951 469.84999999999997"/>

<path id="Layer0_2_MEMBER_0_1_STROKES" stroke="#332D2B" stroke-width="3" stroke-linejoin="miter" stroke-linecap="butt" stroke-miterlimit="4" fill="none" d="
M 270.78798828125 455.00000000000006
L 270.78798828125 484.84999999999997"/>

<path id="Layer0_2_MEMBER_1_1_STROKES" stroke="#332D2B" stroke-width="2" stroke-linejoin="miter" stroke-linecap="butt" stroke-miterlimit="4" fill="none" d="
M 159.9402435302734 461.45000000000005
L 159.9402435302734 478.4"/>

<path id="Layer0_2_MEMBER_2_1_STROKES" stroke="#332D2B" stroke-width="2" stroke-linejoin="miter" stroke-linecap="butt" stroke-miterlimit="4" fill="none" d="
M 196.83949279785156 461.45000000000005
L 196.83949279785156 478.4"/>

<path id="Layer0_2_MEMBER_3_1_STROKES" stroke="#332D2B" stroke-width="2" stroke-linejoin="miter" stroke-linecap="butt" stroke-miterlimit="4" fill="none" d="
M 233.88873901367185 461.45000000000005
L 233.88873901367185 478.4"/>

<path id="Layer0_2_MEMBER_4_1_STROKES" stroke="#332D2B" stroke-width="3" stroke-linejoin="miter" stroke-linecap="butt" stroke-miterlimit="4" fill="none" d="
M 640.38046875 455.00000000000006
L 640.38046875 484.84999999999997"/>

<path id="Layer0_2_MEMBER_5_1_STROKES" stroke="#332D2B" stroke-width="2" stroke-linejoin="miter" stroke-linecap="butt" stroke-miterlimit="4" fill="none" d="
M 307.6872375488281 461.45000000000005
L 307.6872375488281 478.4"/>

<path id="Layer0_2_MEMBER_6_1_STROKES" stroke="#332D2B" stroke-width="2" stroke-linejoin="miter" stroke-linecap="butt" stroke-miterlimit="4" fill="none" d="
M 344.73648376464837 461.45000000000005
L 344.73648376464837 478.4"/>

<path id="Layer0_2_MEMBER_7_1_STROKES" stroke="#332D2B" stroke-width="2" stroke-linejoin="miter" stroke-linecap="butt" stroke-miterlimit="4" fill="none" d="
M 381.63573303222654 461.45000000000005
L 381.63573303222654 478.4"/>

<path id="Layer0_2_MEMBER_8_1_STROKES" stroke="#332D2B" stroke-width="2" stroke-linejoin="miter" stroke-linecap="butt" stroke-miterlimit="4" fill="none" d="
M 418.68497924804683 461.45000000000005
L 418.68497924804683 478.4"/>

<path id="Layer0_2_MEMBER_9_1_STROKES" stroke="#332D2B" stroke-width="2" stroke-linejoin="miter" stroke-linecap="butt" stroke-miterlimit="4" fill="none" d="
M 455.5842285156249 459.20000000000005
L 455.5842285156249 480.50000000000006"/>

<path id="Layer0_2_MEMBER_10_1_STROKES" stroke="#332D2B" stroke-width="2" stroke-linejoin="miter" stroke-linecap="butt" stroke-miterlimit="4" fill="none" d="
M 492.48347778320306 461.45000000000005
L 492.48347778320306 478.4"/>

<path id="Layer0_2_MEMBER_11_1_STROKES" stroke="#332D2B" stroke-width="2" stroke-linejoin="miter" stroke-linecap="butt" stroke-miterlimit="4" fill="none" d="
M 529.5327239990235 461.45000000000005
L 529.5327239990235 478.4"/>

<path id="Layer0_2_MEMBER_12_1_STROKES" stroke="#332D2B" stroke-width="2" stroke-linejoin="miter" stroke-linecap="butt" stroke-miterlimit="4" fill="none" d="
M 566.4319732666016 461.45000000000005
L 566.4319732666016 478.4"/>

<path id="Layer0_2_MEMBER_13_1_STROKES" stroke="#332D2B" stroke-width="2" stroke-linejoin="miter" stroke-linecap="butt" stroke-miterlimit="4" fill="none" d="
M 603.4812194824218 461.45000000000005
L 603.4812194824218 478.4"/>

<path id="Layer0_2_MEMBER_14_1_STROKES" stroke="#332D2B" stroke-width="3" stroke-linejoin="miter" stroke-linecap="butt" stroke-miterlimit="4" fill="none" d="
M 1009.9729492187499 455.00000000000006
L 1009.9729492187499 484.84999999999997"/>

<path id="Layer0_2_MEMBER_15_1_STROKES" stroke="#332D2B" stroke-width="2" stroke-linejoin="miter" stroke-linecap="butt" stroke-miterlimit="4" fill="none" d="
M 677.2797180175781 461.45000000000005
L 677.2797180175781 478.4"/>

<path id="Layer0_2_MEMBER_16_1_STROKES" stroke="#332D2B" stroke-width="2" stroke-linejoin="miter" stroke-linecap="butt" stroke-miterlimit="4" fill="none" d="
M 714.3289642333983 461.45000000000005
L 714.3289642333983 478.4"/>

<path id="Layer0_2_MEMBER_17_1_STROKES" stroke="#332D2B" stroke-width="2" stroke-linejoin="miter" stroke-linecap="butt" stroke-miterlimit="4" fill="none" d="
M 751.2282135009765 461.45000000000005
L 751.2282135009765 478.4"/>

<path id="Layer0_2_MEMBER_18_1_STROKES" stroke="#332D2B" stroke-width="2" stroke-linejoin="miter" stroke-linecap="butt" stroke-miterlimit="4" fill="none" d="
M 788.2774597167969 461.45000000000005
L 788.2774597167969 478.4"/>

<path id="Layer0_2_MEMBER_19_1_STROKES" stroke="#332D2B" stroke-width="2" stroke-linejoin="miter" stroke-linecap="butt" stroke-miterlimit="4" fill="none" d="
M 825.1767089843751 459.20000000000005
L 825.1767089843751 480.50000000000006"/>

<path id="Layer0_2_MEMBER_20_1_STROKES" stroke="#332D2B" stroke-width="2" stroke-linejoin="miter" stroke-linecap="butt" stroke-miterlimit="4" fill="none" d="
M 862.075958251953 461.45000000000005
L 862.075958251953 478.4"/>

<path id="Layer0_2_MEMBER_21_1_STROKES" stroke="#332D2B" stroke-width="2" stroke-linejoin="miter" stroke-linecap="butt" stroke-miterlimit="4" fill="none" d="
M 899.1252044677734 461.45000000000005
L 899.1252044677734 478.4"/>

<path id="Layer0_2_MEMBER_22_1_STROKES" stroke="#332D2B" stroke-width="2" stroke-linejoin="miter" stroke-linecap="butt" stroke-miterlimit="4" fill="none" d="
M 936.0244537353516 461.45000000000005
L 936.0244537353516 478.4"/>

<path id="Layer0_2_MEMBER_23_1_STROKES" stroke="#332D2B" stroke-width="2" stroke-linejoin="miter" stroke-linecap="butt" stroke-miterlimit="4" fill="none" d="
M 973.0736999511718 461.45000000000005
L 973.0736999511718 478.4"/>

<path id="Layer0_2_MEMBER_24_1_STROKES" stroke="#332D2B" stroke-width="2" stroke-linejoin="miter" stroke-linecap="butt" stroke-miterlimit="4" fill="none" d="
M 1046.8721984863282 461.45000000000005
L 1046.8721984863282 478.4"/>

<path id="Layer0_2_MEMBER_25_1_STROKES" stroke="#332D2B" stroke-width="2" stroke-linejoin="miter" stroke-linecap="butt" stroke-miterlimit="4" fill="none" d="
M 1083.9214447021486 461.45000000000005
L 1083.9214447021486 478.4"/>

<path id="Layer0_2_MEMBER_26_1_STROKES" stroke="#332D2B" stroke-width="2" stroke-linejoin="miter" stroke-linecap="butt" stroke-miterlimit="4" fill="none" d="
M 1120.8206939697266 459.20000000000005
L 1120.8206939697266 480.50000000000006"/>

<path id="Layer0_2_MEMBER_27_1_STROKES" stroke="#332D2B" stroke-width="3" stroke-linejoin="miter" stroke-linecap="butt" stroke-miterlimit="4" fill="none" d="
M 129.79085693359377 469.84999999999997
L 1150.2200958251951 469.84999999999997"/>
</defs>

<g transform="matrix( 1, 0, 0, 1, 0,0) ">
<use xlink:href="#Layer0_0_FILL"/>
</g>

<g transform="matrix( 2.99993896484375, 0, 0, 3, -319.6,51.8) ">
<use xlink:href="#Layer0_1_MEMBER_0_1_STROKES" transform="matrix( 0.3333282470703125, 0, 0, 0.3333282470703125, 106.5,-17.25) "/>
</g>

<g transform="matrix( 2.99993896484375, 0, 0, 3, -319.6,51.8) ">
<use xlink:href="#Layer0_1_MEMBER_1_1_STROKES" transform="matrix( 0.3333282470703125, 0, 0, 0.3333282470703125, 106.5,-17.25) "/>
</g>

<g transform="matrix( 2.99993896484375, 0, 0, 3, -319.6,51.8) ">
<use xlink:href="#Layer0_1_MEMBER_2_1_STROKES" transform="matrix( 0.3333282470703125, 0, 0, 0.3333282470703125, 106.5,-17.25) "/>
</g>

<g transform="matrix( 2.99993896484375, 0, 0, 3, -319.6,51.8) ">
<use xlink:href="#Layer0_1_MEMBER_3_1_STROKES" transform="matrix( 0.3333282470703125, 0, 0, 0.3333282470703125, 106.5,-17.25) "/>
</g>

<g transform="matrix( 2.99993896484375, 0, 0, 3, -319.6,51.8) ">
<use xlink:href="#Layer0_1_MEMBER_4_1_STROKES" transform="matrix( 0.3333282470703125, 0, 0, 0.3333282470703125, 106.5,-17.25) "/>
</g>

<g transform="matrix( 2.99993896484375, 0, 0, 3, -319.6,51.8) ">
<use xlink:href="#Layer0_1_MEMBER_5_1_STROKES" transform="matrix( 0.3333282470703125, 0, 0, 0.3333282470703125, 106.5,-17.25) "/>
</g>

<g transform="matrix( 2.99993896484375, 0, 0, 3, -319.6,51.8) ">
<use xlink:href="#Layer0_1_MEMBER_6_1_STROKES" transform="matrix( 0.3333282470703125, 0, 0, 0.3333282470703125, 106.5,-17.25) "/>
</g>

<g transform="matrix( 2.99993896484375, 0, 0, 3, -319.6,51.8) ">
<use xlink:href="#Layer0_1_MEMBER_7_1_STROKES" transform="matrix( 0.3333282470703125, 0, 0, 0.3333282470703125, 106.5,-17.25) "/>
</g>

<g transform="matrix( 2.99993896484375, 0, 0, 3, -319.6,51.8) ">
<use xlink:href="#Layer0_1_MEMBER_8_1_STROKES" transform="matrix( 0.3333282470703125, 0, 0, 0.3333282470703125, 106.5,-17.25) "/>
</g>

<g transform="matrix( 2.99993896484375, 0, 0, 3, -319.6,51.8) ">
<use xlink:href="#Layer0_1_MEMBER_9_1_STROKES" transform="matrix( 0.3333282470703125, 0, 0, 0.3333282470703125, 106.5,-17.25) "/>
</g>

<g transform="matrix( 2.99993896484375, 0, 0, 3, -319.6,51.8) ">
<use xlink:href="#Layer0_1_MEMBER_10_1_STROKES" transform="matrix( 0.3333282470703125, 0, 0, 0.3333282470703125, 106.5,-17.25) "/>
</g>

<g transform="matrix( 2.99993896484375, 0, 0, 3, -319.6,51.8) ">
<use xlink:href="#Layer0_1_MEMBER_11_1_STROKES" transform="matrix( 0.3333282470703125, 0, 0, 0.3333282470703125, 106.5,-17.25) "/>
</g>

<g transform="matrix( 2.99993896484375, 0, 0, 3, -319.6,51.8) ">
<use xlink:href="#Layer0_1_MEMBER_12_1_STROKES" transform="matrix( 0.3333282470703125, 0, 0, 0.3333282470703125, 106.5,-17.25) "/>
</g>

<g transform="matrix( 2.99993896484375, 0, 0, 3, -319.6,51.8) ">
<use xlink:href="#Layer0_1_MEMBER_13_1_STROKES" transform="matrix( 0.3333282470703125, 0, 0, 0.3333282470703125, 106.5,-17.25) "/>
</g>

<g transform="matrix( 2.99993896484375, 0, 0, 3, -319.6,51.8) ">
<use xlink:href="#Layer0_1_MEMBER_14_1_STROKES" transform="matrix( 0.3333282470703125, 0, 0, 0.3333282470703125, 106.5,-17.25) "/>
</g>

<g transform="matrix( 2.99993896484375, 0, 0, 3, -319.6,51.8) ">
<use xlink:href="#Layer0_1_MEMBER_15_1_STROKES" transform="matrix( 0.3333282470703125, 0, 0, 0.3333282470703125, 106.5,-17.25) "/>
</g>

<g transform="matrix( 2.99993896484375, 0, 0, 3, -319.6,51.8) ">
<use xlink:href="#Layer0_1_MEMBER_16_1_STROKES" transform="matrix( 0.3333282470703125, 0, 0, 0.3333282470703125, 106.5,-17.25) "/>
</g>

<g transform="matrix( 2.99993896484375, 0, 0, 3, -319.6,51.8) ">
<use xlink:href="#Layer0_1_MEMBER_17_1_STROKES" transform="matrix( 0.3333282470703125, 0, 0, 0.3333282470703125, 106.5,-17.25) "/>
</g>

<g transform="matrix( 2.99993896484375, 0, 0, 3, -319.6,51.8) ">
<use xlink:href="#Layer0_1_MEMBER_18_1_STROKES" transform="matrix( 0.3333282470703125, 0, 0, 0.3333282470703125, 106.5,-17.25) "/>
</g>

<g transform="matrix( 2.99993896484375, 0, 0, 3, -319.6,51.8) ">
<use xlink:href="#Layer0_1_MEMBER_19_1_STROKES" transform="matrix( 0.3333282470703125, 0, 0, 0.3333282470703125, 106.5,-17.25) "/>
</g>

<g transform="matrix( 2.99993896484375, 0, 0, 3, -319.6,51.8) ">
<use xlink:href="#Layer0_1_MEMBER_20_1_STROKES" transform="matrix( 0.3333282470703125, 0, 0, 0.3333282470703125, 106.5,-17.25) "/>
</g>

<g transform="matrix( 2.99993896484375, 0, 0, 3, -319.6,51.8) ">
<use xlink:href="#Layer0_1_MEMBER_21_1_STROKES" transform="matrix( 0.3333282470703125, 0, 0, 0.3333282470703125, 106.5,-17.25) "/>
</g>

<g transform="matrix( 2.99993896484375, 0, 0, 3, -319.6,51.8) ">
<use xlink:href="#Layer0_1_MEMBER_22_1_STROKES" transform="matrix( 0.3333282470703125, 0, 0, 0.3333282470703125, 106.5,-17.25) "/>
</g>

<g transform="matrix( 2.99993896484375, 0, 0, 3, -319.6,51.8) ">
<use xlink:href="#Layer0_1_MEMBER_23_1_STROKES" transform="matrix( 0.3333282470703125, 0, 0, 0.3333282470703125, 106.5,-17.25) "/>
</g>

<g transform="matrix( 2.99993896484375, 0, 0, 3, -319.6,51.8) ">
<use xlink:href="#Layer0_1_MEMBER_24_1_STROKES" transform="matrix( 0.3333282470703125, 0, 0, 0.3333282470703125, 106.5,-17.25) "/>
</g>

<g transform="matrix( 2.99993896484375, 0, 0, 3, -319.6,51.8) ">
<use xlink:href="#Layer0_1_MEMBER_25_1_STROKES" transform="matrix( 0.3333282470703125, 0, 0, 0.3333282470703125, 106.5,-17.25) "/>
</g>

<g transform="matrix( 2.99993896484375, 0, 0, 3, -319.6,51.8) ">
<use xlink:href="#Layer0_1_MEMBER_26_1_STROKES" transform="matrix( 0.3333282470703125, 0, 0, 0.3333282470703125, 106.5,-17.25) "/>
</g>

<g transform="matrix( 2.99993896484375, 0, 0, 3, -319.6,51.8) ">
<use xlink:href="#Layer0_1_MEMBER_27_1_STROKES" transform="matrix( 0.3333282470703125, 0, 0, 0.3333282470703125, 106.5,-17.25) "/>
</g>

<g transform="matrix( 2.99993896484375, 0, 0, 3, -319.6,51.8) ">
<use xlink:href="#Layer0_2_MEMBER_0_1_STROKES" transform="matrix( 0.3333282470703125, 0, 0, 0.3333282470703125, 106.5,-17.25) "/>
</g>

<g transform="matrix( 2.99993896484375, 0, 0, 3, -319.6,51.8) ">
<use xlink:href="#Layer0_2_MEMBER_1_1_STROKES" transform="matrix( 0.3333282470703125, 0, 0, 0.3333282470703125, 106.5,-17.25) "/>
</g>

<g transform="matrix( 2.99993896484375, 0, 0, 3, -319.6,51.8) ">
<use xlink:href="#Layer0_2_MEMBER_2_1_STROKES" transform="matrix( 0.3333282470703125, 0, 0, 0.3333282470703125, 106.5,-17.25) "/>
</g>

<g transform="matrix( 2.99993896484375, 0, 0, 3, -319.6,51.8) ">
<use xlink:href="#Layer0_2_MEMBER_3_1_STROKES" transform="matrix( 0.3333282470703125, 0, 0, 0.3333282470703125, 106.5,-17.25) "/>
</g>

<g transform="matrix( 2.99993896484375, 0, 0, 3, -319.6,51.8) ">
<use xlink:href="#Layer0_2_MEMBER_4_1_STROKES" transform="matrix( 0.3333282470703125, 0, 0, 0.3333282470703125, 106.5,-17.25) "/>
</g>

<g transform="matrix( 2.99993896484375, 0, 0, 3, -319.6,51.8) ">
<use xlink:href="#Layer0_2_MEMBER_5_1_STROKES" transform="matrix( 0.3333282470703125, 0, 0, 0.3333282470703125, 106.5,-17.25) "/>
</g>

<g transform="matrix( 2.99993896484375, 0, 0, 3, -319.6,51.8) ">
<use xlink:href="#Layer0_2_MEMBER_6_1_STROKES" transform="matrix( 0.3333282470703125, 0, 0, 0.3333282470703125, 106.5,-17.25) "/>
</g>

<g transform="matrix( 2.99993896484375, 0, 0, 3, -319.6,51.8) ">
<use xlink:href="#Layer0_2_MEMBER_7_1_STROKES" transform="matrix( 0.3333282470703125, 0, 0, 0.3333282470703125, 106.5,-17.25) "/>
</g>

<g transform="matrix( 2.99993896484375, 0, 0, 3, -319.6,51.8) ">
<use xlink:href="#Layer0_2_MEMBER_8_1_STROKES" transform="matrix( 0.3333282470703125, 0, 0, 0.3333282470703125, 106.5,-17.25) "/>
</g>

<g transform="matrix( 2.99993896484375, 0, 0, 3, -319.6,51.8) ">
<use xlink:href="#Layer0_2_MEMBER_9_1_STROKES" transform="matrix( 0.3333282470703125, 0, 0, 0.3333282470703125, 106.5,-17.25) "/>
</g>

<g transform="matrix( 2.99993896484375, 0, 0, 3, -319.6,51.8) ">
<use xlink:href="#Layer0_2_MEMBER_10_1_STROKES" transform="matrix( 0.3333282470703125, 0, 0, 0.3333282470703125, 106.5,-17.25) "/>
</g>

<g transform="matrix( 2.99993896484375, 0, 0, 3, -319.6,51.8) ">
<use xlink:href="#Layer0_2_MEMBER_11_1_STROKES" transform="matrix( 0.3333282470703125, 0, 0, 0.3333282470703125, 106.5,-17.25) "/>
</g>

<g transform="matrix( 2.99993896484375, 0, 0, 3, -319.6,51.8) ">
<use xlink:href="#Layer0_2_MEMBER_12_1_STROKES" transform="matrix( 0.3333282470703125, 0, 0, 0.3333282470703125, 106.5,-17.25) "/>
</g>

<g transform="matrix( 2.99993896484375, 0, 0, 3, -319.6,51.8) ">
<use xlink:href="#Layer0_2_MEMBER_13_1_STROKES" transform="matrix( 0.3333282470703125, 0, 0, 0.3333282470703125, 106.5,-17.25) "/>
</g>

<g transform="matrix( 2.99993896484375, 0, 0, 3, -319.6,51.8) ">
<use xlink:href="#Layer0_2_MEMBER_14_1_STROKES" transform="matrix( 0.3333282470703125, 0, 0, 0.3333282470703125, 106.5,-17.25) "/>
</g>

<g transform="matrix( 2.99993896484375, 0, 0, 3, -319.6,51.8) ">
<use xlink:href="#Layer0_2_MEMBER_15_1_STROKES" transform="matrix( 0.3333282470703125, 0, 0, 0.3333282470703125, 106.5,-17.25) "/>
</g>

<g transform="matrix( 2.99993896484375, 0, 0, 3, -319.6,51.8) ">
<use xlink:href="#Layer0_2_MEMBER_16_1_STROKES" transform="matrix( 0.3333282470703125, 0, 0, 0.3333282470703125, 106.5,-17.25) "/>
</g>

<g transform="matrix( 2.99993896484375, 0, 0, 3, -319.6,51.8) ">
<use xlink:href="#Layer0_2_MEMBER_17_1_STROKES" transform="matrix( 0.3333282470703125, 0, 0, 0.3333282470703125, 106.5,-17.25) "/>
</g>

<g transform="matrix( 2.99993896484375, 0, 0, 3, -319.6,51.8) ">
<use xlink:href="#Layer0_2_MEMBER_18_1_STROKES" transform="matrix( 0.3333282470703125, 0, 0, 0.3333282470703125, 106.5,-17.25) "/>
</g>

<g transform="matrix( 2.99993896484375, 0, 0, 3, -319.6,51.8) ">
<use xlink:href="#Layer0_2_MEMBER_19_1_STROKES" transform="matrix( 0.3333282470703125, 0, 0, 0.3333282470703125, 106.5,-17.25) "/>
</g>

<g transform="matrix( 2.99993896484375, 0, 0, 3, -319.6,51.8) ">
<use xlink:href="#Layer0_2_MEMBER_20_1_STROKES" transform="matrix( 0.3333282470703125, 0, 0, 0.3333282470703125, 106.5,-17.25) "/>
</g>

<g transform="matrix( 2.99993896484375, 0, 0, 3, -319.6,51.8) ">
<use xlink:href="#Layer0_2_MEMBER_21_1_STROKES" transform="matrix( 0.3333282470703125, 0, 0, 0.3333282470703125, 106.5,-17.25) "/>
</g>

<g transform="matrix( 2.99993896484375, 0, 0, 3, -319.6,51.8) ">
<use xlink:href="#Layer0_2_MEMBER_22_1_STROKES" transform="matrix( 0.3333282470703125, 0, 0, 0.3333282470703125, 106.5,-17.25) "/>
</g>

<g transform="matrix( 2.99993896484375, 0, 0, 3, -319.6,51.8) ">
<use xlink:href="#Layer0_2_MEMBER_23_1_STROKES" transform="matrix( 0.3333282470703125, 0, 0, 0.3333282470703125, 106.5,-17.25) "/>
</g>

<g transform="matrix( 2.99993896484375, 0, 0, 3, -319.6,51.8) ">
<use xlink:href="#Layer0_2_MEMBER_24_1_STROKES" transform="matrix( 0.3333282470703125, 0, 0, 0.3333282470703125, 106.5,-17.25) "/>
</g>

<g transform="matrix( 2.99993896484375, 0, 0, 3, -319.6,51.8) ">
<use xlink:href="#Layer0_2_MEMBER_25_1_STROKES" transform="matrix( 0.3333282470703125, 0, 0, 0.3333282470703125, 106.5,-17.25) "/>
</g>

<g transform="matrix( 2.99993896484375, 0, 0, 3, -319.6,51.8) ">
<use xlink:href="#Layer0_2_MEMBER_26_1_STROKES" transform="matrix( 0.3333282470703125, 0, 0, 0.3333282470703125, 106.5,-17.25) "/>
</g>

<g transform="matrix( 2.99993896484375, 0, 0, 3, -319.6,51.8) ">
<use xlink:href="#Layer0_2_MEMBER_27_1_STROKES" transform="matrix( 0.3333282470703125, 0, 0, 0.3333282470703125, 106.5,-17.25) "/>
</g>
</svg>
