
<svg xmlns="http://www.w3.org/2000/svg" version="1.1" xmlns:xlink="http://www.w3.org/1999/xlink" preserveAspectRatio="none" x="0px" y="0px" width="1280px" height="720px" viewBox="0 0 1280 720">
<defs>
<g id="Layer1_0_FILL">
<path fill="#1E1E1E" stroke="none" d="
M 1123 346.35
Q 1120.95 344.3 1117.55 344.3 1115.5 344.3 1113.7 345.25 1111.9 346.2 1111 348.1 1110.25 346.25 1108.5 345.25 1106.8 344.3 1104.7 344.3 1103.15 344.3 1101.75 344.95 1100.35 345.6 1099.55 346.5
L 1099.6 345.1
Q 1099.6 344.8 1099.25 344.8
L 1095.85 344.8
Q 1095.2 344.8 1095.25 345.3 1095.35 346.1 1095.4 347.5 1095.45 348.9 1095.45 350.45
L 1095.45 366.35
Q 1095.45 366.55 1095.55 366.75 1095.7 366.9 1095.9 366.9
L 1099.25 366.9
Q 1099.7 366.9 1099.7 366.4
L 1099.7 353.4
Q 1099.7 351 1100.95 349.65 1102.2 348.25 1104.45 348.25 1108 348.25 1108 352.5
L 1108 366.35
Q 1108 366.55 1108.15 366.75 1108.3 366.9 1108.5 366.9
L 1111.85 366.9
Q 1112.3 366.9 1112.3 366.4
L 1112.3 354.8
Q 1112.3 353.4 1112.65 352.2 1113 351 1113.65 350.15 1114.25 349.25 1115.2 348.8 1116.15 348.25 1117.35 348.25 1119.05 348.25 1119.9 349.45 1120.8 350.65 1120.8 352.5
L 1120.8 366.35
Q 1120.8 366.55 1120.95 366.75 1121.1 366.9 1121.3 366.9
L 1124.65 366.9
Q 1124.8 366.9 1125 366.75 1125.1 366.6 1125.1 366.4
L 1125.1 352
Q 1125.1 348.35 1123 346.35
M 1091.9 345.65
Q 1091.95 345.25 1091.9 345.15 1091.8 345.05 1091.65 345 1090.45 344.6 1089.2 344.45 1087.9 344.3 1086.7 344.3 1084.15 344.3 1082.1 345.15 1080.1 346 1078.6 347.55 1077.15 349.05 1076.35 351.2 1075.55 353.3 1075.55 355.85 1075.55 358.25 1076.2 360.3 1076.9 362.35 1078.2 363.9 1079.5 365.4 1081.45 366.35 1083.4 367.25 1085.9 367.45 1086.7 367.45 1087.5 367.45 1088.35 367.45 1089.05 367.35 1089.8 367.25 1090.45 367.15 1091.1 367.05 1091.55 366.85 1091.85 366.8 1091.9 366.65 1091.95 366.5 1091.9 366.2
L 1091.75 363.45
Q 1091.7 363.2 1091.6 363.1 1091.45 362.95 1091.1 363.1 1088.9 363.8 1086.15 363.45 1083.15 363.1 1081.6 361.1 1080 359.1 1080 355.85 1080 352.45 1081.7 350.35 1083.35 348.25 1086.6 348.25 1087.65 348.25 1088.8 348.4 1090 348.5 1090.9 348.85 1091.25 348.9 1091.35 348.8 1091.55 348.65 1091.55 348.4
L 1091.9 345.65
M 807 356.85
Q 807.95 356.3 809.15 356.3 810.85 356.3 811.7 357.5 812.6 358.7 812.6 360.55
L 812.6 374.4
Q 812.6 374.6 812.75 374.8 812.9 374.95 813.1 374.95
L 816.45 374.95
Q 816.6 374.95 816.8 374.8 816.9 374.65 816.9 374.45
L 816.9 360.05
Q 816.9 356.4 814.8 354.4 812.75 352.35 809.35 352.35 807.3 352.35 805.5 353.3 803.7 354.25 802.8 356.15 802.05 354.3 800.3 353.3 798.6 352.35 796.5 352.35 794.95 352.35 793.55 353 792.15 353.65 791.35 354.55
L 791.4 353.15
Q 791.4 352.85 791.05 352.85
L 787.65 352.85
Q 787 352.85 787.05 353.35 787.15 354.15 787.2 355.55 787.25 356.95 787.25 358.5
L 787.25 374.4
Q 787.25 374.6 787.35 374.8 787.5 374.95 787.7 374.95
L 791.05 374.95
Q 791.5 374.95 791.5 374.45
L 791.5 361.45
Q 791.5 359.05 792.75 357.7 794 356.3 796.25 356.3 799.8 356.3 799.8 360.55
L 799.8 374.4
Q 799.8 374.6 799.95 374.8 800.1 374.95 800.3 374.95
L 803.65 374.95
Q 804.1 374.95 804.1 374.45
L 804.1 362.85
Q 804.1 361.45 804.45 360.25 804.8 359.05 805.45 358.2 806.05 357.3 807 356.85
M 768.15 359.25
Q 767.35 361.35 767.35 363.9 767.35 366.3 768 368.35 768.7 370.4 770 371.95 771.3 373.45 773.25 374.4 775.2 375.3 777.7 375.5 778.5 375.5 779.3 375.5 780.15 375.5 780.85 375.4 781.6 375.3 782.25 375.2 782.9 375.1 783.35 374.9 783.65 374.85 783.7 374.7 783.75 374.55 783.7 374.25
L 783.55 371.5
Q 783.5 371.25 783.4 371.15 783.25 371 782.9 371.15 780.7 371.85 777.95 371.5 774.95 371.15 773.4 369.15 771.8 367.15 771.8 363.9 771.8 360.5 773.5 358.4 775.15 356.3 778.4 356.3 779.45 356.3 780.6 356.45 781.8 356.55 782.7 356.9 783.05 356.95 783.15 356.85 783.35 356.7 783.35 356.45
L 783.7 353.7
Q 783.75 353.3 783.7 353.2 783.6 353.1 783.45 353.05 782.25 352.65 781 352.5 779.7 352.35 778.5 352.35 775.95 352.35 773.9 353.2 771.9 354.05 770.4 355.6 768.95 357.1 768.15 359.25
M 743.1 344.4
Q 741.25 344.4 739.25 345.05 737.3 345.7 735.8 346.5 735.4 346.7 735.25 346.95 735.15 347.1 735.25 347.3
L 735.8 350.35
Q 735.9 350.7 736.2 350.75 736.5 350.75 736.85 350.55 738.65 349.5 740.15 349.05 741.7 348.6 743.35 348.6 745.1 348.6 746.25 349.85 747.45 351.1 747.45 353 747.45 354.7 745.85 357.3 744.25 359.95 740.9 363.9
L 734.8 371.15
Q 734.6 371.45 734.4 371.75 734.25 372.1 734.25 372.4
L 734.25 374.7
Q 734.25 375.2 735 375.2
L 752.05 375.2
Q 752.6 375.2 752.6 374.5
L 752.6 371.7
Q 752.6 371.1 752.05 371.1
L 740.3 371.1
Q 741.3 369.95 742.3 368.8 743.3 367.6 744.15 366.5 745.25 365.2 746.65 363.6 748 361.95 749.2 360.2 750.4 358.4 751.2 356.55 752 354.7 752 352.9 752 350.8 751.3 349.2 750.6 347.6 749.45 346.55 748.3 345.5 746.65 344.95 745.05 344.4 743.1 344.4
M 720.45 344.85
Q 720.25 344.9 720.2 345
L 714.05 350.65
Q 713.85 350.85 713.85 351.05 713.8 351.3 713.95 351.45
L 715.75 353.6
Q 715.9 353.75 716.15 353.7 716.4 353.7 716.65 353.55
L 719.6 350.95 719.6 374.65
Q 719.6 375.15 720.15 375.15
L 723.35 375.15
Q 723.85 375.15 723.85 374.65
L 723.85 345.85
Q 723.85 345.05 723.7 344.9 723.6 344.75 722.9 344.75
L 720.8 344.75
Q 720.65 344.75 720.45 344.85
M 1101.8 537.4
Q 1100 538.35 1099.1 540.25 1098.35 538.4 1096.6 537.4 1094.9 536.45 1092.8 536.45 1091.25 536.45 1089.85 537.1 1088.45 537.75 1087.65 538.65
L 1087.7 537.25
Q 1087.7 536.95 1087.35 536.95
L 1083.95 536.95
Q 1083.3 536.95 1083.35 537.45 1083.45 538.25 1083.5 539.65 1083.55 541.05 1083.55 542.6
L 1083.55 558.5
Q 1083.55 558.7 1083.65 558.9 1083.8 559.05 1084 559.05
L 1087.35 559.05
Q 1087.8 559.05 1087.8 558.55
L 1087.8 545.55
Q 1087.8 543.15 1089.05 541.8 1090.3 540.4 1092.55 540.4 1096.1 540.4 1096.1 544.65
L 1096.1 558.5
Q 1096.1 558.7 1096.25 558.9 1096.4 559.05 1096.6 559.05
L 1099.95 559.05
Q 1100.4 559.05 1100.4 558.55
L 1100.4 546.95
Q 1100.4 545.55 1100.75 544.35 1101.1 543.15 1101.75 542.3 1102.35 541.4 1103.3 540.95 1104.25 540.4 1105.45 540.4 1107.15 540.4 1108 541.6 1108.9 542.8 1108.9 544.65
L 1108.9 558.5
Q 1108.9 558.7 1109.05 558.9 1109.2 559.05 1109.4 559.05
L 1112.75 559.05
Q 1112.9 559.05 1113.1 558.9 1113.2 558.75 1113.2 558.55
L 1113.2 544.15
Q 1113.2 540.5 1111.1 538.5 1109.05 536.45 1105.65 536.45 1103.6 536.45 1101.8 537.4
M 1066.7 539.7
Q 1065.25 541.2 1064.45 543.35 1063.65 545.45 1063.65 548 1063.65 550.4 1064.3 552.45 1065 554.5 1066.3 556.05 1067.6 557.55 1069.55 558.5 1071.5 559.4 1074 559.6 1074.8 559.6 1075.6 559.6 1076.45 559.6 1077.15 559.5 1077.9 559.4 1078.55 559.3 1079.2 559.2 1079.65 559 1079.95 558.95 1080 558.8 1080.05 558.65 1080 558.35
L 1079.85 555.6
Q 1079.8 555.35 1079.7 555.25 1079.55 555.1 1079.2 555.25 1077 555.95 1074.25 555.6 1071.25 555.25 1069.7 553.25 1068.1 551.25 1068.1 548 1068.1 544.6 1069.8 542.5 1071.45 540.4 1074.7 540.4 1075.75 540.4 1076.9 540.55 1078.1 540.65 1079 541 1079.35 541.05 1079.45 540.95 1079.65 540.8 1079.65 540.55
L 1080 537.8
Q 1080.05 537.4 1080 537.3 1079.9 537.2 1079.75 537.15 1078.55 536.75 1077.3 536.6 1076 536.45 1074.8 536.45 1072.25 536.45 1070.2 537.3 1068.2 538.15 1066.7 539.7
M 341.4 530.95
Q 341.6 530.9 341.8 530.75
L 344.35 528.5 344.35 549.25
Q 344.35 549.7 344.85 549.7
L 347.65 549.7
Q 348.1 549.7 348.1 549.25
L 348.1 524.05
Q 348.1 523.35 348 523.2 347.85 523.1 347.25 523.1
L 345.45 523.1
Q 345.3 523.1 345.15 523.15 344.95 523.2 344.9 523.3
L 339.55 528.25
Q 339.35 528.4 339.35 528.6 339.35 528.8 339.45 528.95
L 341 530.85
Q 341.15 530.95 341.4 530.95
M 368.95 523.45
Q 367.55 522.85 365.75 522.85 363 522.85 361.25 524.15 359.55 525.45 358.6 527.45 357.65 529.45 357.3 531.8 356.95 534.2 356.95 536.35 356.95 542.75 359.1 546.3 361.25 549.85 365.75 549.85 368 549.85 369.6 548.95 371.25 548.05 372.35 546.3 373.4 544.6 373.95 542.05 374.45 539.55 374.45 536.35 374.45 534.9 374.3 533.35 374.15 531.8 373.85 530.3 373.45 528.8 372.85 527.45 372.25 526.1 371.25 525.05 370.3 524.05 368.95 523.45
M 369.25 528.85
Q 369.85 530 370.2 531.85 370.55 533.7 370.55 536.35 370.55 539.05 370.2 540.9 369.85 542.75 369.25 543.9 368.6 545.05 367.7 545.6 366.85 546.1 365.75 546.1 364.6 546.1 363.75 545.6 362.9 545.05 362.25 543.9 361.6 542.75 361.3 540.9 360.95 539.05 360.95 536.35 360.95 533.7 361.3 531.85 361.6 530 362.25 528.85 362.9 527.65 363.75 527.15 364.6 526.65 365.75 526.65 366.85 526.65 367.7 527.15 368.6 527.65 369.25 528.85
M 384.6 524.5
Q 384.3 523.75 383.75 523.2 383.15 522.65 382.4 522.3 381.65 522 380.75 522 379.85 522 379.1 522.3 378.35 522.65 377.8 523.2 377.2 523.75 376.9 524.5 376.55 525.3 376.55 526.15 376.55 527.05 376.9 527.8 377.2 528.6 377.8 529.15 378.35 529.7 379.1 530.05 379.85 530.35 380.75 530.35 381.65 530.35 382.4 530.05 383.15 529.7 383.75 529.15 384.3 528.6 384.6 527.8 384.95 527.05 384.95 526.15 384.95 525.3 384.6 524.5
M 380.75 524.3
Q 381.5 524.3 382 524.9 382.55 525.45 382.55 526.15 382.55 526.9 382 527.45 381.5 528.05 380.75 528.05 380 528.05 379.45 527.45 378.95 526.9 378.95 526.15 378.95 525.45 379.45 524.9 380 524.3 380.75 524.3
M 321.25 530.95
Q 321.45 530.9 321.65 530.75
L 324.2 528.5 324.2 549.25
Q 324.2 549.7 324.7 549.7
L 327.5 549.7
Q 327.95 549.7 327.95 549.25
L 327.95 524.05
Q 327.95 523.35 327.85 523.2 327.7 523.1 327.1 523.1
L 325.3 523.1
Q 325.15 523.1 325 523.15 324.8 523.2 324.75 523.3
L 319.4 528.25
Q 319.2 528.4 319.2 528.6 319.2 528.8 319.3 528.95
L 320.85 530.85
Q 321 530.95 321.25 530.95
M 229.65 440.55
Q 227.95 441.85 227 443.85 226.05 445.85 225.7 448.2 225.35 450.6 225.35 452.75 225.35 459.15 227.5 462.7 229.65 466.25 234.15 466.25 236.4 466.25 238 465.35 239.65 464.45 240.75 462.7 241.8 461 242.35 458.45 242.85 455.95 242.85 452.75 242.85 451.3 242.7 449.75 242.55 448.2 242.25 446.7 241.85 445.2 241.25 443.85 240.65 442.5 239.65 441.45 238.7 440.45 237.35 439.85 235.95 439.25 234.15 439.25 231.4 439.25 229.65 440.55
M 230.65 445.25
Q 231.3 444.05 232.15 443.55 233 443.05 234.15 443.05 235.25 443.05 236.1 443.55 237 444.05 237.65 445.25 238.25 446.4 238.6 448.25 238.95 450.1 238.95 452.75 238.95 455.45 238.6 457.3 238.25 459.15 237.65 460.3 237 461.45 236.1 462 235.25 462.5 234.15 462.5 233 462.5 232.15 462 231.3 461.45 230.65 460.3 230 459.15 229.7 457.3 229.35 455.45 229.35 452.75 229.35 450.1 229.7 448.25 230 446.4 230.65 445.25
M 205.7 442.95
Q 205.9 443.1 206.1 443.1
L 217.3 443.1 208.15 465.45
Q 208 465.85 208.15 465.95 208.3 466.1 208.8 466.1
L 211.65 466.1
Q 212 466.1 212.15 466 212.25 465.85 212.45 465.6
L 221.7 442.8
Q 221.9 442.55 221.9 442.25
L 221.9 440.1
Q 221.9 439.75 221.75 439.6 221.6 439.5 221 439.5
L 206.1 439.5
Q 205.5 439.5 205.5 440.05
L 205.5 442.5
Q 205.5 442.8 205.7 442.95
M 250.8 438.7
Q 250.05 438.4 249.15 438.4 248.25 438.4 247.5 438.7 246.75 439.05 246.2 439.6 245.6 440.15 245.3 440.9 244.95 441.7 244.95 442.55 244.95 443.45 245.3 444.2 245.6 445 246.2 445.55 246.75 446.1 247.5 446.45 248.25 446.75 249.15 446.75 250.05 446.75 250.8 446.45 251.55 446.1 252.15 445.55 252.7 445 253 444.2 253.35 443.45 253.35 442.55 253.35 441.7 253 440.9 252.7 440.15 252.15 439.6 251.55 439.05 250.8 438.7
M 247.35 442.55
Q 247.35 441.85 247.85 441.3 248.4 440.7 249.15 440.7 249.9 440.7 250.4 441.3 250.95 441.85 250.95 442.55 250.95 443.3 250.4 443.85 249.9 444.45 249.15 444.45 248.4 444.45 247.85 443.85 247.35 443.3 247.35 442.55
M 549.5 295.2
Q 549.15 294.3 548.5 293.7 547.85 293.05 547 292.65 546.1 292.3 545.1 292.3 544.1 292.3 543.2 292.65 542.35 293.05 541.7 293.7 541.05 294.3 540.65 295.2 540.3 296.1 540.3 297.05 540.3 298.1 540.65 298.95 541.05 299.85 541.7 300.45 542.35 301.1 543.2 301.5 544.1 301.9 545.1 301.9 546.1 301.9 547 301.5 547.85 301.1 548.5 300.45 549.15 299.85 549.5 298.95 549.9 298.1 549.9 297.05 549.9 296.1 549.5 295.2
M 543.65 295.6
Q 544.25 294.95 545.1 294.95 545.95 294.95 546.55 295.6 547.2 296.25 547.2 297.05 547.2 297.9 546.55 298.55 545.95 299.2 545.1 299.2 544.25 299.2 543.65 298.55 543 297.9 543 297.05 543 296.25 543.65 295.6
M 652.3 515.5
Q 652.3 514.55 651.9 513.65 651.55 512.75 650.9 512.15 650.25 511.5 649.4 511.1 648.5 510.75 647.5 510.75 646.5 510.75 645.6 511.1 644.75 511.5 644.1 512.15 643.45 512.75 643.05 513.65 642.7 514.55 642.7 515.5 642.7 516.55 643.05 517.4 643.45 518.3 644.1 518.9 644.75 519.55 645.6 519.95 646.5 520.35 647.5 520.35 648.5 520.35 649.4 519.95 650.25 519.55 650.9 518.9 651.55 518.3 651.9 517.4 652.3 516.55 652.3 515.5
M 649.6 515.5
Q 649.6 516.35 648.95 517 648.35 517.65 647.5 517.65 646.65 517.65 646.05 517 645.4 516.35 645.4 515.5 645.4 514.7 646.05 514.05 646.65 513.4 647.5 513.4 648.35 513.4 648.95 514.05 649.6 514.7 649.6 515.5
M 966.4 406.35
Q 964.85 406.35 963.45 407 962.05 407.65 961.25 408.55
L 961.3 407.15
Q 961.3 406.85 960.95 406.85
L 957.55 406.85
Q 956.9 406.85 956.95 407.35 957.05 408.15 957.1 409.55 957.15 410.95 957.15 412.5
L 957.15 428.4
Q 957.15 428.6 957.25 428.8 957.4 428.95 957.6 428.95
L 960.95 428.95
Q 961.4 428.95 961.4 428.45
L 961.4 415.45
Q 961.4 413.05 962.65 411.7 963.9 410.3 966.15 410.3 969.7 410.3 969.7 414.55
L 969.7 428.4
Q 969.7 428.6 969.85 428.8 970 428.95 970.2 428.95
L 973.55 428.95
Q 974 428.95 974 428.45
L 974 416.85
Q 974 415.45 974.35 414.25 974.7 413.05 975.35 412.2 975.95 411.3 976.9 410.85 977.85 410.3 979.05 410.3 980.75 410.3 981.6 411.5 982.5 412.7 982.5 414.55
L 982.5 428.4
Q 982.5 428.6 982.65 428.8 982.8 428.95 983 428.95
L 986.35 428.95
Q 986.5 428.95 986.7 428.8 986.8 428.65 986.8 428.45
L 986.8 414.05
Q 986.8 410.4 984.7 408.4 982.65 406.35 979.25 406.35 977.2 406.35 975.4 407.3 973.6 408.25 972.7 410.15 971.95 408.3 970.2 407.3 968.5 406.35 966.4 406.35
M 952.6 410.9
Q 952.95 410.95 953.05 410.85 953.25 410.7 953.25 410.45
L 953.6 407.7
Q 953.65 407.3 953.6 407.2 953.5 407.1 953.35 407.05 952.15 406.65 950.9 406.5 949.6 406.35 948.4 406.35 945.85 406.35 943.8 407.2 941.8 408.05 940.3 409.6 938.85 411.1 938.05 413.25 937.25 415.35 937.25 417.9 937.25 420.3 937.9 422.35 938.6 424.4 939.9 425.95 941.2 427.45 943.15 428.4 945.1 429.3 947.6 429.5 948.4 429.5 949.2 429.5 950.05 429.5 950.75 429.4 951.5 429.3 952.15 429.2 952.8 429.1 953.25 428.9 953.55 428.85 953.6 428.7 953.65 428.55 953.6 428.25
L 953.45 425.5
Q 953.4 425.25 953.3 425.15 953.15 425 952.8 425.15 950.6 425.85 947.85 425.5 944.85 425.15 943.3 423.15 941.7 421.15 941.7 417.9 941.7 414.5 943.4 412.4 945.05 410.3 948.3 410.3 949.35 410.3 950.5 410.45 951.7 410.55 952.6 410.9
M 923.35 405.9
Q 923.35 404.15 922.65 402.75 921.95 401.35 920.75 400.4 919.55 399.45 917.85 398.9 916.15 398.4 914.15 398.4 912.2 398.4 910.5 398.95 908.8 399.5 907.55 400.5 906.3 401.5 905.55 402.9 904.8 404.3 904.8 406 904.8 408.3 906.2 410.1 907.6 411.9 910 413.3 908.8 413.9 907.7 414.6 906.6 415.3 905.8 416.2 905 417.1 904.45 418.25 904 419.4 904 420.9 904 423.05 904.9 424.65 905.8 426.3 907.25 427.35 908.7 428.4 910.5 428.95 912.35 429.5 914.15 429.5 916.1 429.5 917.9 428.95 919.8 428.4 921.2 427.35 922.6 426.3 923.45 424.65 924.35 423.05 924.35 420.9 924.35 419.5 923.9 418.5 923.5 417.45 922.7 416.55 921.9 415.65 920.8 414.85 919.65 414.1 918.25 413.25 920.85 411.45 922.1 409.7 923.35 407.9 923.35 405.9
M 914.15 402.3
Q 915.1 402.3 915.95 402.65 916.8 402.9 917.45 403.45 918.1 404 918.45 404.7 918.85 405.4 918.85 406.2 918.85 406.9 918.35 407.7 917.85 408.5 917.1 409.25 916.35 409.95 915.55 410.5 914.8 411.05 914.15 411.3 913.65 411.1 912.85 410.6 912.05 410.15 911.25 409.45 910.5 408.75 909.95 407.95 909.35 407.15 909.35 406.3 909.35 405.35 909.8 404.6 910.25 403.9 910.95 403.4 911.6 402.9 912.45 402.6 913.3 402.3 914.15 402.3
M 912.4 416.15
Q 913.35 415.7 914.15 415.5 915.15 415.85 916.15 416.45 917.15 417.05 918 417.75 918.8 418.5 919.3 419.3 919.8 420.15 919.8 420.9 919.8 421.95 919.3 422.8 918.8 423.65 918 424.25 917.2 424.85 916.2 425.15 915.15 425.45 914.15 425.45 913.2 425.45 912.15 425.15 911.15 424.8 910.3 424.2 909.5 423.6 909 422.75 908.45 421.9 908.45 420.9 908.45 419.65 909.05 418.75 909.65 417.85 910.5 417.2 911.35 416.55 912.4 416.15 Z"/>

<path fill="#FFFFFF" stroke="none" d="
M 513.35 511.45
L 513.35 541.5
Q 513.35 556.5 528.35 556.5
L 618.35 556.5
Q 633.35 556.5 633.35 541.5
L 633.35 511.45
Q 633.35 496.45 618.35 496.45
L 528.35 496.45
Q 513.35 496.45 513.35 511.45
M 425.95 278
Q 410.95 278 410.95 293
L 410.95 323.05
Q 410.95 338.05 425.95 338.05
L 515.95 338.05
Q 530.95 338.05 530.95 323.05
L 530.95 293
Q 530.95 278 515.95 278
L 425.95 278
M 1051.1 528.3
Q 1051.1 513.3 1036.1 513.3
L 1006.1 513.3
Q 991.1 513.3 991.1 528.3
L 991.1 558.35
Q 991.1 573.35 1006.1 573.35
L 1036.1 573.35
Q 1051.1 573.35 1051.1 558.35
L 1051.1 528.3
M 998 321.15
Q 983 321.15 983 336.15
L 983 366.2
Q 983 381.2 998 381.2
L 1048 381.2
Q 1063 381.2 1063 366.2
L 1063 336.15
Q 1063 321.15 1048 321.15
L 998 321.15 Z"/>
</g>

<g id="Layer1_0_STROKES_1_FILL">
<path fill="#0EA6E9" stroke="none" d="
M 1043.8 446.75
Q 1043.580859375 447.126953125 1043.65 447.5 1044.024609375 448.9625 1044.3 450.4 1044.4064453125 450.8 1044.75 451 1045.09609375 451.2560546875 1045.5 451.15 1045.900390625 451.09375 1046.1 450.75 1046.355859375 450.4041015625 1046.25 450 1045.9751953125 448.5375 1045.6 447.05 1045.527734375 446.6697265625 1045.15 446.45 1044.8234375 446.23046875 1044.4 446.3 1044.0201171875 446.421875 1043.8 446.75
M 1042.1 440.05
Q 1041.9173828125 440.4185546875 1042 440.8 1042.424609375 442.25 1042.75 443.65 1042.872265625 444.0802734375 1043.2 444.3 1043.5765625 444.51953125 1043.95 444.4 1044.3798828125 444.328125 1044.6 443.95 1044.819140625 443.623046875 1044.7 443.2 1044.3751953125 441.7498046875 1043.95 440.25 1043.8623046875 439.87890625 1043.5 439.65 1043.13125 439.4671875 1042.7 439.55 1042.3287109375 439.6875 1042.1 440.05
M 1041.6 433.05
Q 1041.2673828125 432.8794921875 1040.85 433 1040.4775390625 433.11328125 1040.25 433.45 1040.0796875 433.8322265625 1040.2 434.2 1040.6 435.625 1041 437 1041.1134765625 437.4220703125 1041.45 437.6 1041.8326171875 437.8205078125 1042.2 437.7 1042.6224609375 437.58671875 1042.8 437.2 1043.0203125 436.8677734375 1042.9 436.45 1042.5 435.075 1042.1 433.65 1041.9865234375 433.2779296875 1041.6 433.05
M 1039.45 426.5
Q 1039.10703125 426.316015625 1038.7 426.45 1038.3322265625 426.5951171875 1038.15 426.95 1037.9662109375 427.34296875 1038.1 427.7 1038.599609375 429.1123046875 1039.05 430.5 1039.1796875 430.901953125 1039.55 431.1 1039.9130859375 431.28359375 1040.3 431.15 1040.7015625 431.020703125 1040.9 430.65 1041.083203125 430.286328125 1040.95 429.9 1040.500390625 428.4873046875 1040 427.05 1039.8546875 426.6822265625 1039.45 426.5
M 1028.9 401.4
Q 1028.7232421875 401.06484375 1028.3 400.95 1027.934765625 400.829296875 1027.55 401 1027.2146484375 401.226171875 1027.1 401.6 1026.9798828125 402.01484375 1027.15 402.35 1027.8623046875 403.6626953125 1028.55 405 1028.74921875 405.3701171875 1029.15 405.5 1029.5376953125 405.62109375 1029.9 405.4 1030.27109375 405.238671875 1030.4 404.85 1030.533203125 404.46328125 1030.35 404.1 1029.6375 402.7373046875 1028.9 401.4
M 1037.55 420.45
Q 1037.4263671875 420.09140625 1037.05 419.9 1036.6646484375 419.7658203125 1036.25 419.9 1035.8912109375 420.0734375 1035.7 420.45 1035.566015625 420.8349609375 1035.7 421.2 1036.262109375 422.6 1036.75 423.95 1036.8953125 424.367578125 1037.25 424.55 1037.64296875 424.733984375 1038 424.6 1038.4177734375 424.4548828125 1038.6 424.05 1038.78359375 423.70703125 1038.65 423.3 1038.1375 421.9 1037.55 420.45
M 1033.65 413.45
Q 1033.2728515625 413.6541015625 1033.1 414.05 1032.966015625 414.4267578125 1033.1 414.8 1033.7248046875 416.137890625 1034.25 417.5 1034.4236328125 417.90859375 1034.8 418.05 1035.1853515625 418.2341796875 1035.55 418.05 1035.9587890625 417.9265625 1036.1 417.55 1036.283984375 417.1650390625 1036.1 416.75 1035.575390625 415.362109375 1034.95 414 1034.795703125 413.6240234375 1034.4 413.45 1034.0220703125 413.316015625 1033.65 413.45
M 1033.35 411.1
Q 1033.533984375 410.7232421875 1033.35 410.35 1032.762890625 408.974609375 1032.1 407.65 1031.9146484375 407.2806640625 1031.5 407.15 1031.1271484375 407.01640625 1030.75 407.2 1030.3802734375 407.384765625 1030.25 407.75 1030.116796875 408.1724609375 1030.3 408.55 1030.937109375 409.825390625 1031.5 411.15 1031.704296875 411.5259765625 1032.1 411.65 1032.4779296875 411.833984375 1032.85 411.65 1033.2271484375 411.495703125 1033.35 411.1
M 742.7 446.45
Q 742.372265625 446.6697265625 742.25 447.05 741.924609375 448.5375 741.6 450 741.544140625 450.4041015625 741.75 450.75 741.999609375 451.09375 742.4 451.15 742.80390625 451.2560546875 743.15 451 743.4935546875 450.8 743.55 450.4 743.8751953125 448.9625 744.2 447.5 744.319140625 447.126953125 744.1 446.75 743.8798828125 446.421875 743.45 446.3 743.0765625 446.23046875 742.7 446.45
M 743.35 443.95
Q 743.5701171875 444.328125 743.95 444.4 744.3734375 444.51953125 744.7 444.3 745.077734375 444.0802734375 745.15 443.65 745.525 442.2375 745.85 440.85 745.9693359375 440.453515625 745.75 440.1 745.543359375 439.73515625 745.15 439.6 744.7529296875 439.5302734375 744.4 439.75 744.035546875 439.955859375 743.9 440.35 743.575 441.7623046875 743.2 443.2 743.130859375 443.623046875 743.35 443.95
M 747.1 432.95
Q 746.7130859375 432.81640625 746.35 433 745.9796875 433.198046875 745.85 433.6 745.387109375 435.012109375 744.95 436.45 744.8673828125 436.8814453125 745.05 437.25 745.2787109375 437.6125 745.65 437.7 746.08125 437.8328125 746.45 437.6 746.8123046875 437.4208984375 746.9 437 747.312890625 435.5876953125 747.75 434.2 747.883203125 433.8134765625 747.7 433.45 747.5015625 433.079296875 747.1 432.95
M 748.45 430.95
Q 748.834375 430.7869140625 748.95 430.4 749.400390625 428.962890625 749.9 427.55 750.03359375 427.19296875 749.85 426.8 749.6677734375 426.4451171875 749.25 426.3 748.89296875 426.166015625 748.5 426.35 748.1453125 426.5322265625 748 426.9 747.499609375 428.337109375 747.05 429.8 746.929296875 430.201953125 747.1 430.55 747.3125 430.934375 747.7 431.05 748.1013671875 431.1708984375 748.45 430.95
M 750.95 419.8
Q 750.5876953125 419.98984375 750.4 420.35 749.862109375 421.749609375 749.35 423.15 749.2162109375 423.55703125 749.4 423.9 749.5822265625 424.3048828125 749.95 424.45 750.35703125 424.583984375 750.7 424.4 751.1046875 424.217578125 751.25 423.8 751.737890625 422.450390625 752.25 421.1 752.433984375 420.7498046875 752.25 420.35 752.1103515625 419.9875 751.7 419.8 751.35 419.6658203125 750.95 419.8
M 754.85 414
Q 754.7271484375 413.6041015625 754.35 413.4 753.9779296875 413.266015625 753.6 413.4 753.204296875 413.5740234375 753 413.95 752.424609375 415.312109375 751.85 416.7 751.716015625 417.1150390625 751.85 417.5 752.0412109375 417.8765625 752.4 418 752.8146484375 418.1841796875 753.2 418 753.5763671875 417.85859375 753.7 417.45 754.2751953125 416.087890625 754.85 414.75 755.033984375 414.3767578125 754.85 414
M 756.5 407.05
Q 756.1328125 407.195703125 755.95 407.55 755.2873046875 408.9375 754.65 410.3 754.516015625 410.6732421875 754.65 411.05 754.8228515625 411.445703125 755.2 411.6 755.5720703125 411.783984375 755.95 411.6 756.345703125 411.4759765625 756.5 411.1 757.1126953125 409.7625 757.75 408.4 757.9337890625 408.0564453125 757.8 407.65 757.65546875 407.2828125 757.25 407.1 756.9078125 406.9162109375 756.5 407.05
M 760.4 400.95
Q 760.065234375 400.779296875 759.65 400.9 759.2767578125 401.01484375 759.05 401.35 758.362109375 402.6873046875 757.7 404 757.516796875 404.3775390625 757.65 404.75 757.7802734375 405.165234375 758.15 405.35 758.5271484375 405.53359375 758.9 405.4 759.3146484375 405.2693359375 759.5 404.9 760.1376953125 403.6123046875 760.8 402.3 761.0201171875 401.96484375 760.9 401.55 760.7853515625 401.176171875 760.4 400.95
M 895.95 579.05
Q 895.7 579.475 895.45 579.85 895.231640625 580.224609375 895.3 580.6 895.4208984375 581.028125 895.75 581.25 896.124609375 581.4693359375 896.5 581.35 896.92734375 581.2791015625 897.15 580.9 897.4 580.525 897.65 580.1 897.868359375 579.775390625 897.75 579.35 897.679296875 578.9716796875 897.3 578.75 896.975390625 578.5306640625 896.55 578.6 896.17265625 578.7208984375 895.95 579.05
M 901.15 573.9
Q 901.3697265625 573.5669921875 901.25 573.15 901.13671875 572.7775390625 900.75 572.55 900.4173828125 572.3794921875 900 572.5 899.628125 572.6134765625 899.4 572.95 898.6748046875 574.3125 897.85 575.7 897.6671875 576.0701171875 897.75 576.45 897.8873046875 576.87109375 898.25 577.05 898.61875 577.2828125 899 577.15 899.42109375 577.061328125 899.6 576.7 900.425 575.2873046875 901.15 573.9
M 904.45 567.7
Q 904.633203125 567.33671875 904.5 566.95 904.37109375 566.5615234375 904 566.35 903.6376953125 566.1791015625 903.25 566.3 902.84921875 566.4298828125 902.65 566.8 901.95 568.15 901.25 569.5 901.066796875 569.86328125 901.2 570.25 901.32890625 570.638671875 901.7 570.8 902.0625 571.02109375 902.45 570.9 902.85078125 570.7701171875 903.05 570.4 903.75 569.05 904.45 567.7
M 907.45 561.15
Q 907.633984375 560.762109375 907.45 560.35 907.3255859375 559.990234375 906.95 559.8 906.5634765625 559.6658203125 906.15 559.8 905.7904296875 559.9755859375 905.6 560.35 905.0373046875 561.7373046875 904.4 563.1 904.2162109375 563.5078125 904.35 563.9 904.49609375 564.28125 904.85 564.45 905.2568359375 564.633984375 905.65 564.5 906.0310546875 564.353125 906.2 563.95 906.8626953125 562.5625 907.45 561.15
M 908.9 553.25
Q 908.5236328125 553.44140625 908.35 553.8 907.824609375 555.2123046875 907.2 556.6 907.0658203125 556.987890625 907.2 557.35 907.3744140625 557.759765625 907.75 557.9 908.13671875 558.0841796875 908.5 557.9 908.9095703125 557.7744140625 909.05 557.4 909.6751953125 555.9873046875 910.2 554.55 910.383984375 554.1849609375 910.2 553.8 910.0587890625 553.4234375 909.65 553.25 909.2853515625 553.1158203125 908.9 553.25
M 911.65 550.75
Q 912.2376953125 549.2873046875 912.75 547.8 912.8833984375 547.4421875 912.7 547.05 912.516796875 546.694140625 912.1 546.55 911.74140625 546.4162109375 911.35 546.6 910.99453125 546.7826171875 910.85 547.15 910.362109375 548.6123046875 909.8 550.05 909.6791015625 550.4279296875 909.85 550.8 910.0171875 551.177734375 910.4 551.3 910.7787109375 551.471484375 911.15 551.3 911.5271484375 551.13359375 911.65 550.75
M 912.1 543.35
Q 911.979296875 543.751953125 912.15 544.1 912.3625 544.484375 912.75 544.6 913.1513671875 544.7208984375 913.5 544.5 913.884375 544.3369140625 914 543.95 914.4626953125 542.4875 914.85 541 914.982421875 540.6185546875 914.75 540.25 914.5712890625 539.8875 914.15 539.75 913.7689453125 539.6671875 913.4 539.85 913.0376953125 540.07890625 912.9 540.45 912.5373046875 541.9125 912.1 543.35
M 916.5 534.05
Q 916.60546875 533.6458984375 916.35 533.3 916.149609375 532.955859375 915.75 532.85 915.3453125 532.7939453125 915 533 914.65625 533.2498046875 914.55 533.65 914.2748046875 535.1373046875 913.9 536.6 913.8310546875 537.0248046875 914.05 537.35 914.2712890625 537.72890625 914.65 537.8 915.075 537.9193359375 915.4 537.7 915.778515625 537.47890625 915.85 537.05 916.2251953125 535.5623046875 916.5 534.05
M 915.8 526.75
Q 915.612109375 528.25 915.35 529.7 915.3078125 530.1353515625 915.55 530.45 915.7798828125 530.8095703125 916.15 530.85 916.5849609375 530.9423828125 916.9 530.7 917.259375 530.4697265625 917.3 530.05 917.5876953125 528.5498046875 917.8 527 917.8533203125 526.6228515625 917.6 526.3 917.341015625 525.962890625 916.9 525.9 916.52265625 525.846484375 916.2 526.1 915.8630859375 526.3587890625 915.8 526.75
M 918.3 519.2
Q 918.0318359375 518.8828125 917.6 518.85 917.212890625 518.824609375 916.9 519.1 916.583203125 519.3677734375 916.55 519.75 916.4498046875 521.2625 916.3 522.75 916.2607421875 523.1578125 916.5 523.45 916.7888671875 523.80234375 917.2 523.85 917.607421875 523.8896484375 917.9 523.6 918.251953125 523.3607421875 918.3 522.95 918.4501953125 521.4375 918.55 519.9 918.575 519.51328125 918.3 519.2
M 918.8 512.8
Q 918.796484375 512.3892578125 918.5 512.1 918.2107421875 511.803515625 917.8 511.8 917.3892578125 511.803515625 917.1 512.1 916.803515625 512.3892578125 916.8 512.8 916.799609375 514.2875 916.75 515.75 916.7390625 516.180078125 917 516.45 917.310546875 516.78203125 917.7 516.8 918.1298828125 516.8111328125 918.4 516.5 918.7318359375 516.2390625 918.75 515.8 918.8001953125 514.3123046875 918.8 512.8
M 918.55 505.65
Q 918.516796875 505.2677734375 918.2 505 917.887109375 504.724609375 917.45 504.75 917.0681640625 504.7828125 916.8 505.1 916.525 505.41328125 916.55 505.8 916.649609375 507.3 916.7 508.75 916.7181640625 509.1890625 917 509.45 917.3203125 509.7611328125 917.7 509.75 918.139453125 509.73203125 918.4 509.4 918.7107421875 509.130078125 918.7 508.7 918.650390625 507.2 918.55 505.65
M 917.65 498.55
Q 917.609375 498.1802734375 917.25 497.95 916.9349609375 497.7076171875 916.5 497.75 916.1298828125 497.8404296875 915.9 498.15 915.6578125 498.5146484375 915.7 498.9 915.962109375 500.3998046875 916.15 501.85 916.2130859375 502.2912109375 916.55 502.55 916.87265625 502.8037109375 917.25 502.75 917.691015625 502.687109375 917.95 502.35 918.2033203125 502.026953125 918.15 501.6 917.9376953125 500.1 917.65 498.55
M 914.5 491.35
Q 914.280859375 491.726953125 914.35 492.1 914.724609375 493.5625 915 495 915.1064453125 495.4 915.45 495.6 915.79609375 495.8560546875 916.2 495.75 916.600390625 495.69375 916.8 495.35 917.055859375 495.0041015625 916.95 494.6 916.6751953125 493.1375 916.3 491.65 916.227734375 491.2697265625 915.85 491.05 915.5234375 490.83046875 915.1 490.9 914.7201171875 491.021875 914.5 491.35
M 915.1 488.45
Q 915.320703125 488.101953125 915.2 487.7 914.7501953125 486.2375 914.25 484.75 914.1052734375 484.3826171875 913.7 484.2 913.35859375 484.0162109375 912.95 484.15 912.5833984375 484.294140625 912.4 484.65 912.2166015625 485.0421875 912.35 485.4 912.8498046875 486.8623046875 913.3 488.3 913.415625 488.6869140625 913.75 488.85 914.1486328125 489.0708984375 914.55 488.95 914.9376953125 488.834375 915.1 488.45
M 909.8 478.95
Q 910.424609375 480.3375 910.95 481.7 911.1236328125 482.10859375 911.5 482.25 911.8853515625 482.4341796875 912.25 482.25 912.6587890625 482.1265625 912.8 481.75 912.983984375 481.3650390625 912.8 480.95 912.2751953125 479.5625 911.65 478.15 911.5095703125 477.7755859375 911.1 477.6 910.73671875 477.4658203125 910.35 477.6 909.9744140625 477.790234375 909.8 478.15 909.6658203125 478.562109375 909.8 478.95
M 906.8 471.9
Q 906.666796875 472.28671875 906.85 472.65 907.5498046875 473.9875 908.2 475.3 908.3828125 475.704296875 908.75 475.85 909.1578125 475.9837890625 909.5 475.8 909.90546875 475.6171875 910.05 475.2 910.1837890625 474.843359375 910 474.45 909.3501953125 473.1125 908.65 471.75 908.45078125 471.3798828125 908.05 471.25 907.6625 471.1291015625 907.3 471.3 906.92890625 471.5115234375 906.8 471.9
M 903.75 465.25
Q 903.421484375 465.470703125 903.3 465.85 903.2310546875 466.2734375 903.45 466.6 904.2373046875 467.9125 904.95 469.2 905.1919921875 469.5615234375 905.6 469.65 905.99453125 469.7828125 906.35 469.55 906.712890625 469.358203125 906.8 468.95 906.9326171875 468.5568359375 906.7 468.2 905.9625 466.8875 905.15 465.55 904.92890625 465.2220703125 904.5 465.1 904.12578125 465.0306640625 903.75 465.25
M 899.5 460.05
Q 899.4443359375 460.4548828125 899.65 460.8 900.512109375 462.0498046875 901.3 463.3 901.5234375 463.641796875 901.9 463.7 902.3392578125 463.819140625 902.7 463.6 903.042578125 463.376953125 903.1 462.95 903.2185546875 462.561328125 903 462.2 902.1876953125 460.9498046875 901.3 459.7 901.0984375 459.35625 900.7 459.25 900.2939453125 459.1943359375 899.95 459.4 899.605078125 459.6515625 899.5 460.05
M 895.3 454.5
Q 895.26015625 454.941796875 895.5 455.25 896.4623046875 456.4625 897.35 457.65 897.5958984375 457.9857421875 898 458.05 898.41328125 458.10390625 898.75 457.85 899.0865234375 457.6046875 899.15 457.2 899.2033203125 456.7873046875 898.95 456.45 898.0376953125 455.2375 897.05 454 896.8255859375 453.6994140625 896.4 453.65 896.0076171875 453.609765625 895.65 453.85 895.348828125 454.123828125 895.3 454.5
M 896.55 450.15
Q 896.97109375 450.061328125 897.15 449.7 897.375 449.35 897.55 449 897.7828125 448.6298828125 897.65 448.2 897.5626953125 447.82890625 897.2 447.6 896.83125 447.4171875 896.4 447.5 896.0287109375 447.638671875 895.8 448 895.625 448.35 895.4 448.7 895.2171875 449.0701171875 895.3 449.45 895.4373046875 449.87109375 895.8 450.05 896.16875 450.2828125 896.55 450.15
M 903 439.25
Q 903.7 437.9 904.4 436.55 904.583203125 436.18671875 904.45 435.8 904.32109375 435.4115234375 903.95 435.2 903.5876953125 435.0291015625 903.2 435.15 902.79921875 435.2798828125 902.6 435.65 901.9 437 901.2 438.35 901.016796875 438.71328125 901.15 439.1 901.27890625 439.488671875 901.65 439.65 902.0125 439.87109375 902.4 439.75 902.80078125 439.6201171875 903 439.25
M 897.85 444.55
Q 897.680078125 444.9328125 897.8 445.3 897.91328125 445.7224609375 898.25 445.9 898.6326171875 446.1205078125 899 446 899.4216796875 445.886328125 899.6 445.5 900.375 444.175 901.1 442.8 901.3197265625 442.4669921875 901.2 442.05 901.08671875 441.6775390625 900.7 441.45 900.3673828125 441.2794921875 899.95 441.4 899.578125 441.5134765625 899.35 441.85 898.625 443.225 897.85 444.55
M 918.55 388.95
Q 918.5884765625 388.5662109375 918.3 388.25 918.0466796875 387.933984375 917.6 387.9 917.2154296875 387.8611328125 916.9 388.1 916.584375 388.40234375 916.55 388.8 916.449609375 390 916.3 391.15 916.2470703125 391.591015625 916.5 391.9 916.76015625 392.250390625 917.15 392.3 917.591015625 392.353125 917.9 392.1 918.25 391.83984375 918.3 391.4 918.450390625 390.2 918.55 388.95
M 917.15 381.15
Q 916.853515625 381.4392578125 916.85 381.85 916.849609375 383.3376953125 916.8 384.85 916.7892578125 385.2794921875 917.05 385.55 917.3607421875 385.8822265625 917.75 385.9 918.1796875 385.9111328125 918.45 385.6 918.7818359375 385.339453125 918.8 384.9 918.8501953125 383.362109375 918.85 381.85 918.846484375 381.4392578125 918.55 381.15 918.2607421875 380.853515625 917.85 380.85 917.4392578125 380.853515625 917.15 381.15
M 918.55 374.7
Q 918.516796875 374.3177734375 918.2 374.05 917.887109375 373.774609375 917.45 373.8 917.0681640625 373.8328125 916.8 374.15 916.525 374.46328125 916.55 374.85 916.65 376.375 916.75 377.9 916.7828125 378.330859375 917.1 378.6 917.4123046875 378.875390625 917.8 378.85 918.23125 378.8173828125 918.5 378.5 918.775 378.1880859375 918.75 377.75 918.65 376.2248046875 918.55 374.7
M 915.7 367.95
Q 915.962109375 369.4498046875 916.15 370.9 916.2130859375 371.3412109375 916.55 371.6 916.87265625 371.8537109375 917.25 371.8 917.691015625 371.737109375 917.95 371.4 918.2033203125 371.076953125 918.15 370.65 917.9376953125 369.15 917.65 367.6 917.609375 367.2302734375 917.25 367 916.9349609375 366.7576171875 916.5 366.8 916.1298828125 366.8904296875 915.9 367.2 915.6578125 367.5646484375 915.7 367.95
M 916.8 364.4
Q 917.05546875 364.0541015625 916.95 363.65 916.675390625 362.137109375 916.3 360.65 916.227734375 360.2697265625 915.85 360.05 915.5234375 359.83046875 915.1 359.9 914.7201171875 360.021875 914.5 360.35 914.280859375 360.726953125 914.35 361.1 914.724609375 362.5626953125 915 364.05 915.10625 364.4501953125 915.45 364.65 915.7953125 364.9060546875 916.2 364.8 916.599609375 364.744140625 916.8 364.4
M 913.75 353.2
Q 913.40859375 353.0162109375 913 353.15 912.6333984375 353.294140625 912.45 353.65 912.2666015625 354.0421875 912.4 354.4 912.8998046875 355.8623046875 913.35 357.3 913.465625 357.6869140625 913.8 357.85 914.1986328125 358.0708984375 914.6 357.95 914.9876953125 357.834375 915.15 357.45 915.370703125 357.101953125 915.25 356.7 914.8001953125 355.2375 914.3 353.75 914.1552734375 353.3826171875 913.75 353.2
M 912.85 349.9
Q 912.3251953125 348.5125 911.7 347.1 911.5595703125 346.7255859375 911.15 346.55 910.78671875 346.4158203125 910.4 346.55 910.0244140625 346.740234375 909.85 347.1 909.7158203125 347.512109375 909.85 347.9 910.474609375 349.2875 911 350.65 911.1736328125 351.05859375 911.55 351.2 911.9353515625 351.3841796875 912.3 351.2 912.7087890625 351.0765625 912.85 350.7 913.033984375 350.3150390625 912.85 349.9
M 929.6 323.25
Q 928.2 322.8 926.75 322.35 926.348046875 322.229296875 925.95 322.4 925.6154296875 322.6125 925.5 323 925.3791015625 323.4013671875 925.55 323.75 925.7630859375 324.134375 926.15 324.25 927.5998046875 324.7 929 325.15 929.386328125 325.283203125 929.75 325.1 930.120703125 324.9015625 930.25 324.5 930.38359375 324.1130859375 930.2 323.75 930.001953125 323.3796875 929.6 323.25
M 908.1 340.15
Q 907.7125 340.0291015625 907.35 340.2 906.97890625 340.4115234375 906.85 340.8 906.716796875 341.18671875 906.9 341.55 907.5998046875 342.8875 908.25 344.2 908.4328125 344.604296875 908.8 344.75 909.2078125 344.8837890625 909.55 344.7 909.95546875 344.5171875 910.1 344.1 910.2337890625 343.743359375 910.05 343.35 909.4001953125 342.0125 908.7 340.65 908.50078125 340.2798828125 908.1 340.15
M 897.05 322.8
Q 896.8255859375 322.4994140625 896.4 322.45 896.0076171875 322.409765625 895.65 322.65 895.348828125 322.923828125 895.3 323.3 895.26015625 323.741796875 895.5 324.05 896.4623046875 325.2625 897.35 326.45 897.5958984375 326.7857421875 898 326.85 898.41328125 326.90390625 898.75 326.65 899.0865234375 326.4046875 899.15 326 899.2033203125 325.5873046875 898.95 325.25 898.0376953125 324.0375 897.05 322.8
M 903 331
Q 902.175 329.75 901.3 328.5 901.0984375 328.15625 900.7 328.05 900.2939453125 327.9943359375 899.95 328.2 899.605078125 328.4515625 899.5 328.85 899.4443359375 329.2548828125 899.65 329.6 900.525 330.85 901.35 332.1 901.6015625 332.44375 902 332.5 902.4060546875 332.6056640625 902.75 332.35 903.094921875 332.1486328125 903.15 331.75 903.25546875 331.3451171875 903 331
M 904.55 333.95
Q 904.17578125 333.8806640625 903.8 334.1 903.471484375 334.320703125 903.35 334.7 903.2810546875 335.1234375 903.5 335.45 904.2873046875 336.7625 905 338.05 905.2419921875 338.4115234375 905.65 338.5 906.04453125 338.6328125 906.4 338.4 906.762890625 338.208203125 906.85 337.8 906.9826171875 337.4068359375 906.75 337.05 906.0125 335.7375 905.2 334.4 904.97890625 334.0720703125 904.55 333.95
M 905.25 317.7
Q 905.1806640625 318.125 905.4 318.45 905.62109375 318.828515625 906 318.9 907.525 319.275 909 319.6 909.4248046875 319.7189453125 909.75 319.5 910.12890625 319.27890625 910.2 318.85 910.3193359375 318.4751953125 910.1 318.1 909.87890625 317.771484375 909.45 317.65 907.975 317.325 906.45 316.95 906.0751953125 316.8810546875 905.7 317.1 905.3712890625 317.3212890625 905.25 317.7
M 898.75 315.65
Q 898.405859375 315.9001953125 898.3 316.3 898.2439453125 316.7046875 898.45 317.05 898.6998046875 317.39375 899.1 317.45 900.6 317.775 902.1 318.05 902.5041015625 318.15546875 902.85 317.9 903.194140625 317.699609375 903.25 317.3 903.3560546875 316.8953125 903.1 316.55 902.9001953125 316.20625 902.5 316.1 901 315.825 899.5 315.5 899.0958984375 315.4443359375 898.75 315.65
M 919.3 320.5
Q 918.9375 320.7287109375 918.8 321.1 918.7171875 321.53125 918.9 321.9 919.12890625 322.2623046875 919.5 322.35 920.975 322.775 922.4 323.15 922.8314453125 323.282421875 923.2 323.05 923.5625 322.8712890625 923.65 322.45 923.7828125 322.0689453125 923.55 321.7 923.3708984375 321.3376953125 922.95 321.2 921.525 320.825 920.05 320.4 919.6685546875 320.3173828125 919.3 320.5
M 912.5 318.75
Q 912.171875 318.9701171875 912.05 319.35 911.98046875 319.7734375 912.2 320.1 912.4197265625 320.477734375 912.8 320.55 914.2498046875 320.9251953125 915.65 321.3 916.0814453125 321.432421875 916.45 321.2 916.8125 321.0212890625 916.9 320.6 917.0328125 320.2189453125 916.8 319.85 916.6208984375 319.4876953125 916.2 319.35 914.75 318.974609375 913.25 318.6 912.876953125 318.530859375 912.5 318.75
M 964.25 339.6
Q 964.36484375 340.0232421875 964.7 340.2 966.0125 340.9251953125 967.3 341.65 967.6568359375 341.8826171875 968.05 341.75 968.458203125 341.662890625 968.65 341.3 968.8828125 340.94453125 968.75 340.55 968.6615234375 340.1419921875 968.3 339.9 966.9875 339.174609375 965.65 338.45 965.31484375 338.2798828125 964.9 338.4 964.526171875 338.5146484375 964.3 338.85 964.129296875 339.234765625 964.25 339.6
M 958.05 336.4
Q 958.195703125 336.8169921875 958.55 337 959.899609375 337.637890625 961.15 338.3 961.53515625 338.5201171875 961.9 338.4 962.3240234375 338.2853515625 962.5 337.9 962.720703125 337.565234375 962.6 337.15 962.4849609375 336.7767578125 962.1 336.55 960.800390625 335.862109375 959.4 335.2 959.0564453125 335.0162109375 958.65 335.15 958.2828125 335.29453125 958.1 335.65 957.9162109375 336.0421875 958.05 336.4
M 936.9 326.75
Q 937.033984375 326.39296875 936.85 326 936.667578125 325.6453125 936.25 325.5 934.875 325 933.45 324.5 933.09296875 324.3662109375 932.7 324.55 932.3451171875 324.7322265625 932.2 325.1 932.066015625 325.50703125 932.25 325.85 932.4322265625 326.2546875 932.8 326.4 934.225 326.9 935.6 327.4 936.00703125 327.53359375 936.35 327.35 936.7548828125 327.1677734375 936.9 326.75
M 951.7 332.7
Q 951.5658203125 333.08671875 951.7 333.45 951.8755859375 333.8595703125 952.25 334 953.637109375 334.612890625 954.95 335.25 955.343359375 335.4337890625 955.7 335.3 956.1171875 335.15546875 956.3 334.75 956.4837890625 334.4078125 956.35 334 956.204296875 333.6328125 955.8 333.45 954.462890625 332.7869140625 953.05 332.15 952.662109375 332.0158203125 952.25 332.15 951.890234375 332.3244140625 951.7 332.7
M 945.3 329.95
Q 945.1658203125 330.3646484375 945.3 330.75 945.49140625 331.1263671875 945.85 331.25 947.2619140625 331.8251953125 948.6 332.4 948.9732421875 332.583984375 949.35 332.4 949.745703125 332.2771484375 949.9 331.9 950.083984375 331.5279296875 949.9 331.15 949.7759765625 330.754296875 949.4 330.55 948.0376953125 329.974609375 946.6 329.4 946.2349609375 329.266015625 945.85 329.4 945.4734375 329.5912109375 945.3 329.95
M 942.15 329.8
Q 942.5650390625 329.983984375 942.95 329.8 943.3265625 329.6587890625 943.45 329.25 943.6341796875 328.8853515625 943.45 328.5 943.30859375 328.1236328125 942.9 327.95 941.525 327.425 940.1 326.85 939.7349609375 326.716015625 939.35 326.85 938.9734375 327.0412109375 938.8 327.4 938.6658203125 327.8146484375 938.8 328.2 938.99140625 328.5763671875 939.35 328.7 940.775 329.275 942.15 329.8
M 840.7 331.45
Q 840.8841796875 331.08671875 840.7 330.7 840.559765625 330.3244140625 840.15 330.15 839.787890625 330.0158203125 839.4 330.15 837.9998046875 330.775 836.65 331.35 836.2740234375 331.554296875 836.1 331.95 835.966015625 332.3279296875 836.1 332.7 836.3041015625 333.0771484375 836.7 333.2 837.0767578125 333.383984375 837.45 333.2 838.8 332.625 840.2 332 840.5744140625 331.8595703125 840.7 331.45
M 846.75 327.5
Q 846.3650390625 327.366015625 845.95 327.5 844.575 328.075 843.15 328.6 842.79140625 328.7736328125 842.6 329.15 842.4658203125 329.5353515625 842.6 329.9 842.7734375 330.3087890625 843.15 330.45 843.5349609375 330.633984375 843.9 330.45 845.325 329.925 846.7 329.35 847.10859375 329.2263671875 847.25 328.85 847.4341796875 328.4646484375 847.25 328.05 847.1265625 327.6912109375 846.75 327.5
M 827.35 336.05
Q 826.96328125 335.916796875 826.6 336.1 825.2373046875 336.8123046875 823.9 337.5 823.56484375 337.7267578125 823.45 338.1 823.329296875 338.515234375 823.5 338.85 823.726171875 339.2353515625 824.1 339.35 824.51484375 339.4701171875 824.85 339.25 826.1626953125 338.5875 827.5 337.9 827.8701171875 337.70078125 828 337.3 828.12109375 336.9125 827.9 336.55 827.738671875 336.17890625 827.35 336.05
M 829.7 334.9
Q 829.5662109375 335.3078125 829.75 335.65 829.9328125 336.05546875 830.3 336.2 830.7064453125 336.3337890625 831.05 336.15 832.425 335.5 833.8 334.85 834.203125 334.6810546875 834.35 334.3 834.483984375 333.9068359375 834.3 333.5 834.13125 333.14609375 833.75 333 833.3578125 332.8662109375 832.95 333.05 831.5748046875 333.6998046875 830.2 334.35 829.845703125 334.5328125 829.7 334.9
M 818 342.8
Q 818.3931640625 342.9326171875 818.75 342.7 820.05 341.975 821.35 341.2 821.7115234375 341.0080078125 821.8 340.6 821.9328125 340.20546875 821.7 339.85 821.508203125 339.4869140625 821.1 339.35 820.7068359375 339.2671875 820.35 339.45 819.05 340.225 817.75 340.95 817.38828125 341.1919921875 817.25 341.6 817.1671875 341.99453125 817.35 342.35 817.5919921875 342.712890625 818 342.8
M 815 342.95
Q 814.6263671875 342.8810546875 814.25 343.1 812.9623046875 343.9 811.7 344.7 811.358203125 344.9234375 811.25 345.3 811.1810546875 345.7392578125 811.4 346.1 811.623046875 346.442578125 812 346.5 812.438671875 346.6185546875 812.8 346.4 814.0375 345.6 815.3 344.8 815.6779296875 344.57890625 815.75 344.15 815.86953125 343.77578125 815.65 343.4 815.429296875 343.071484375 815 342.95
M 853.25 327
Q 853.6673828125 326.8552734375 853.85 326.45 854.0337890625 326.10859375 853.9 325.7 853.755859375 325.3333984375 853.35 325.15 853.0078125 324.9666015625 852.6 325.1 851.1748046875 325.6 849.75 326.1 849.3822265625 326.2453125 849.2 326.6 849.016015625 326.99296875 849.15 327.35 849.2951171875 327.7677734375 849.65 327.95 850.04296875 328.13359375 850.4 328 851.825 327.5 853.25 327
M 860.6 323.6
Q 860.484375 323.2125 860.1 323 859.751953125 322.829296875 859.35 322.95 857.9 323.4 856.45 323.85 856.0630859375 323.965625 855.85 324.3 855.6791015625 324.6986328125 855.8 325.1 855.9154296875 325.4876953125 856.25 325.65 856.648046875 325.870703125 857.05 325.75 858.5 325.3 859.95 324.85 860.3369140625 324.734375 860.5 324.35 860.7208984375 324.0013671875 860.6 323.6
M 866.9 321
Q 866.5314453125 320.8173828125 866.1 320.9 864.6625 321.3373046875 863.2 321.8 862.8130859375 321.915625 862.6 322.25 862.4291015625 322.6486328125 862.55 323.05 862.6654296875 323.4376953125 863 323.6 863.398046875 323.820703125 863.8 323.7 865.2375 323.2626953125 866.65 322.85 867.0708984375 322.7623046875 867.25 322.4 867.4828125 322.03125 867.35 321.6 867.2625 321.2287109375 866.9 321
M 883.75 316.5
Q 883.3498046875 316.60625 883.1 316.95 882.8939453125 317.2953125 882.95 317.7 883.055859375 318.099609375 883.4 318.3 883.7458984375 318.55546875 884.15 318.45 885.65 318.175 887.15 317.85 887.5501953125 317.79375 887.75 317.45 888.0060546875 317.1046875 887.9 316.7 887.844140625 316.3001953125 887.5 316.05 887.1541015625 315.8443359375 886.75 315.9 885.25 316.225 883.75 316.5
M 890.75 315.05
Q 890.371875 315.170703125 890.15 315.5 889.930859375 315.873828125 890 316.25 890.1203125 316.6775390625 890.45 316.9 890.8244140625 317.11875 891.2 317 892.0998046875 316.82578125 892.95 316.65 893.3697265625 316.609375 893.6 316.25 893.8423828125 315.9349609375 893.75 315.5 893.7095703125 315.1298828125 893.35 314.9 893.0353515625 314.6578125 892.6 314.7 891.7 314.87421875 890.75 315.05
M 880.5 317.5
Q 880.1748046875 317.2810546875 879.75 317.35 878.2748046875 317.725 876.8 318.05 876.4197265625 318.172265625 876.2 318.5 875.98046875 318.8765625 876.05 319.25 876.171875 319.6798828125 876.5 319.9 876.876953125 320.119140625 877.25 320 878.725 319.6748046875 880.2 319.3 880.62890625 319.228515625 880.85 318.85 881.0693359375 318.525 880.95 318.1 880.87890625 317.7212890625 880.5 317.5
M 874.15 319.8
Q 874.078125 319.4201171875 873.7 319.2 873.373046875 318.980859375 872.95 319.05 871.4998046875 319.424609375 870 319.8 869.62890625 319.9376953125 869.4 320.3 869.2171875 320.6689453125 869.3 321.05 869.4375 321.4712890625 869.8 321.65 870.1685546875 321.882421875 870.55 321.75 872 321.3751953125 873.4 321 873.8302734375 320.927734375 874.05 320.55 874.26953125 320.2234375 874.15 319.8
M 763.15 394.75
Q 762.7419921875 394.88828125 762.5 395.25 761.775 396.55 761 397.85 760.8171875 398.2068359375 760.9 398.6 761.0369140625 399.008203125 761.4 399.2 761.75546875 399.4328125 762.15 399.3 762.5580078125 399.2115234375 762.75 398.85 763.525 397.55 764.25 396.25 764.4826171875 395.8931640625 764.35 395.5 764.262890625 395.0919921875 763.9 394.85 763.54453125 394.6671875 763.15 394.75
M 766.95 388.75
Q 766.5515625 388.85625 766.3 389.2 765.462109375 390.462109375 764.65 391.75 764.4310546875 392.1263671875 764.5 392.5 764.621484375 392.929296875 764.95 393.15 765.32578125 393.36953125 765.7 393.25 766.12890625 393.1779296875 766.35 392.8 767.137890625 391.537890625 767.95 390.3 768.20546875 389.9548828125 768.1 389.55 768.044921875 389.1515625 767.7 388.9 767.3560546875 388.6943359375 766.95 388.75
M 768.5 385.9
Q 768.295703125 386.266015625 768.35 386.65 768.440625 387.083203125 768.75 387.3 769.1158203125 387.5548828125 769.5 387.45 769.9326171875 387.408984375 770.15 387.05 771.0125 385.8876953125 771.85 384.75 772.104296875 384.4109375 772.05 384 771.9859375 383.5943359375 771.65 383.35 771.312109375 383.095703125 770.9 383.15 770.4943359375 383.215234375 770.25 383.55 769.3873046875 384.7123046875 768.5 385.9
M 1024.1 395.05
Q 1023.73515625 395.256640625 1023.6 395.65 1023.5302734375 396.0583984375 1023.75 396.4 1024.5 397.675 1025.25 398.9 1025.456640625 399.276171875 1025.85 399.35 1026.2470703125 399.4697265625 1026.6 399.25 1026.96484375 399.043359375 1027.05 398.65 1027.1697265625 398.2416015625 1026.95 397.85 1026.2 396.625 1025.45 395.35 1025.243359375 395.023828125 1024.85 394.9 1024.4529296875 394.8302734375 1024.1 395.05
M 1020.3 390.3
Q 1020.231640625 390.7259765625 1020.45 391.05 1021.05 392.025 1021.65 392.95 1021.873046875 393.3294921875 1022.25 393.4 1022.676171875 393.519140625 1023 393.3 1023.3796875 393.0775390625 1023.45 392.65 1023.568359375 392.2740234375 1023.35 391.9 1022.75 390.975 1022.15 390 1021.9267578125 389.6705078125 1021.5 389.55 1021.123828125 389.480859375 1020.75 389.7 1020.4205078125 389.922265625 1020.3 390.3 Z"/>
</g>

<g id="Layer1_0_STROKES_2_FILL">
<path fill="#1E1E1E" stroke="none" d="
M 1023.5 451.5
Q 1023.2107421875 451.203515625 1022.8 451.2
L 1019.8 451.2
Q 1019.3892578125 451.203515625 1019.1 451.5 1018.803515625 451.7892578125 1018.8 452.2 1018.803515625 452.6107421875 1019.1 452.9 1019.3892578125 453.196484375 1019.8 453.2
L 1022.8 453.2
Q 1023.2107421875 453.196484375 1023.5 452.9 1023.796484375 452.6107421875 1023.8 452.2 1023.796484375 451.7892578125 1023.5 451.5
M 1030.5 451.5
Q 1030.2107421875 451.203515625 1029.8 451.2
L 1026.8 451.2
Q 1026.3892578125 451.203515625 1026.1 451.5 1025.803515625 451.7892578125 1025.8 452.2 1025.803515625 452.6107421875 1026.1 452.9 1026.3892578125 453.196484375 1026.8 453.2
L 1029.8 453.2
Q 1030.2107421875 453.196484375 1030.5 452.9 1030.796484375 452.6107421875 1030.8 452.2 1030.796484375 451.7892578125 1030.5 451.5
M 1033.8 451.2
Q 1033.3892578125 451.203515625 1033.1 451.5 1032.803515625 451.7892578125 1032.8 452.2 1032.803515625 452.6107421875 1033.1 452.9 1033.3892578125 453.196484375 1033.8 453.2
L 1036.8 453.2
Q 1037.2107421875 453.196484375 1037.5 452.9 1037.796484375 452.6107421875 1037.8 452.2 1037.796484375 451.7892578125 1037.5 451.5 1037.2107421875 451.203515625 1036.8 451.2
L 1033.8 451.2
M 1044.5 451.5
Q 1044.2107421875 451.203515625 1043.8 451.2
L 1040.8 451.2
Q 1040.3892578125 451.203515625 1040.1 451.5 1039.803515625 451.7892578125 1039.8 452.2 1039.803515625 452.6107421875 1040.1 452.9 1040.3892578125 453.196484375 1040.8 453.2
L 1043.8 453.2
Q 1044.2107421875 453.196484375 1044.5 452.9 1044.796484375 452.6107421875 1044.8 452.2 1044.796484375 451.7892578125 1044.5 451.5
M 981.5 451.5
Q 981.2107421875 451.203515625 980.8 451.2
L 977.8 451.2
Q 977.3892578125 451.203515625 977.1 451.5 976.803515625 451.7892578125 976.8 452.2 976.803515625 452.6107421875 977.1 452.9 977.3892578125 453.196484375 977.8 453.2
L 980.8 453.2
Q 981.2107421875 453.196484375 981.5 452.9 981.796484375 452.6107421875 981.8 452.2 981.796484375 451.7892578125 981.5 451.5
M 988.5 451.5
Q 988.2107421875 451.203515625 987.8 451.2
L 984.8 451.2
Q 984.3892578125 451.203515625 984.1 451.5 983.803515625 451.7892578125 983.8 452.2 983.803515625 452.6107421875 984.1 452.9 984.3892578125 453.196484375 984.8 453.2
L 987.8 453.2
Q 988.2107421875 453.196484375 988.5 452.9 988.796484375 452.6107421875 988.8 452.2 988.796484375 451.7892578125 988.5 451.5
M 995.5 451.5
Q 995.2107421875 451.203515625 994.8 451.2
L 991.8 451.2
Q 991.3892578125 451.203515625 991.1 451.5 990.803515625 451.7892578125 990.8 452.2 990.803515625 452.6107421875 991.1 452.9 991.3892578125 453.196484375 991.8 453.2
L 994.8 453.2
Q 995.2107421875 453.196484375 995.5 452.9 995.796484375 452.6107421875 995.8 452.2 995.796484375 451.7892578125 995.5 451.5
M 1011.8 452.2
Q 1011.803515625 452.6107421875 1012.1 452.9 1012.3892578125 453.196484375 1012.8 453.2
L 1015.8 453.2
Q 1016.2107421875 453.196484375 1016.5 452.9 1016.796484375 452.6107421875 1016.8 452.2 1016.796484375 451.7892578125 1016.5 451.5 1016.2107421875 451.203515625 1015.8 451.2
L 1012.8 451.2
Q 1012.3892578125 451.203515625 1012.1 451.5 1011.803515625 451.7892578125 1011.8 452.2
M 1002.5 452.9
Q 1002.796484375 452.6107421875 1002.8 452.2 1002.796484375 451.7892578125 1002.5 451.5 1002.2107421875 451.203515625 1001.8 451.2
L 998.8 451.2
Q 998.3892578125 451.203515625 998.1 451.5 997.803515625 451.7892578125 997.8 452.2 997.803515625 452.6107421875 998.1 452.9 998.3892578125 453.196484375 998.8 453.2
L 1001.8 453.2
Q 1002.2107421875 453.196484375 1002.5 452.9
M 1009.5 451.5
Q 1009.2107421875 451.203515625 1008.8 451.2
L 1005.8 451.2
Q 1005.3892578125 451.203515625 1005.1 451.5 1004.803515625 451.7892578125 1004.8 452.2 1004.803515625 452.6107421875 1005.1 452.9 1005.3892578125 453.196484375 1005.8 453.2
L 1008.8 453.2
Q 1009.2107421875 453.196484375 1009.5 452.9 1009.796484375 452.6107421875 1009.8 452.2 1009.796484375 451.7892578125 1009.5 451.5
M 775.95 451.5
Q 775.6607421875 451.203515625 775.25 451.2
L 772.25 451.2
Q 771.8392578125 451.203515625 771.55 451.5 771.253515625 451.7892578125 771.25 452.2 771.253515625 452.6107421875 771.55 452.9 771.8392578125 453.196484375 772.25 453.2
L 775.25 453.2
Q 775.6607421875 453.196484375 775.95 452.9 776.246484375 452.6107421875 776.25 452.2 776.246484375 451.7892578125 775.95 451.5
M 782.95 451.5
Q 782.6607421875 451.203515625 782.25 451.2
L 779.25 451.2
Q 778.8392578125 451.203515625 778.55 451.5 778.253515625 451.7892578125 778.25 452.2 778.253515625 452.6107421875 778.55 452.9 778.8392578125 453.196484375 779.25 453.2
L 782.25 453.2
Q 782.6607421875 453.196484375 782.95 452.9 783.246484375 452.6107421875 783.25 452.2 783.246484375 451.7892578125 782.95 451.5
M 789.95 452.9
Q 790.246484375 452.6107421875 790.25 452.2 790.246484375 451.7892578125 789.95 451.5 789.6607421875 451.203515625 789.25 451.2
L 786.25 451.2
Q 785.8392578125 451.203515625 785.55 451.5 785.253515625 451.7892578125 785.25 452.2 785.253515625 452.6107421875 785.55 452.9 785.8392578125 453.196484375 786.25 453.2
L 789.25 453.2
Q 789.6607421875 453.196484375 789.95 452.9
M 796.95 451.5
Q 796.6607421875 451.203515625 796.25 451.2
L 793.25 451.2
Q 792.8392578125 451.203515625 792.55 451.5 792.253515625 451.7892578125 792.25 452.2 792.253515625 452.6107421875 792.55 452.9 792.8392578125 453.196484375 793.25 453.2
L 796.25 453.2
Q 796.6607421875 453.196484375 796.95 452.9 797.246484375 452.6107421875 797.25 452.2 797.246484375 451.7892578125 796.95 451.5
M 803.95 451.5
Q 803.6607421875 451.203515625 803.25 451.2
L 800.25 451.2
Q 799.8392578125 451.203515625 799.55 451.5 799.253515625 451.7892578125 799.25 452.2 799.253515625 452.6107421875 799.55 452.9 799.8392578125 453.196484375 800.25 453.2
L 803.25 453.2
Q 803.6607421875 453.196484375 803.95 452.9 804.246484375 452.6107421875 804.25 452.2 804.246484375 451.7892578125 803.95 451.5
M 747.25 451.2
L 744.25 451.2
Q 743.8392578125 451.203515625 743.55 451.5 743.253515625 451.7892578125 743.25 452.2 743.253515625 452.6107421875 743.55 452.9 743.8392578125 453.196484375 744.25 453.2
L 747.25 453.2
Q 747.6607421875 453.196484375 747.95 452.9 748.246484375 452.6107421875 748.25 452.2 748.246484375 451.7892578125 747.95 451.5 747.6607421875 451.203515625 747.25 451.2
M 751.25 451.2
Q 750.8392578125 451.203515625 750.55 451.5 750.253515625 451.7892578125 750.25 452.2 750.253515625 452.6107421875 750.55 452.9 750.8392578125 453.196484375 751.25 453.2
L 754.25 453.2
Q 754.6607421875 453.196484375 754.95 452.9 755.246484375 452.6107421875 755.25 452.2 755.246484375 451.7892578125 754.95 451.5 754.6607421875 451.203515625 754.25 451.2
L 751.25 451.2
M 761.95 451.5
Q 761.6607421875 451.203515625 761.25 451.2
L 758.25 451.2
Q 757.8392578125 451.203515625 757.55 451.5 757.253515625 451.7892578125 757.25 452.2 757.253515625 452.6107421875 757.55 452.9 757.8392578125 453.196484375 758.25 453.2
L 761.25 453.2
Q 761.6607421875 453.196484375 761.95 452.9 762.246484375 452.6107421875 762.25 452.2 762.246484375 451.7892578125 761.95 451.5
M 768.95 451.5
Q 768.6607421875 451.203515625 768.25 451.2
L 765.25 451.2
Q 764.8392578125 451.203515625 764.55 451.5 764.253515625 451.7892578125 764.25 452.2 764.253515625 452.6107421875 764.55 452.9 764.8392578125 453.196484375 765.25 453.2
L 768.25 453.2
Q 768.6607421875 453.196484375 768.95 452.9 769.246484375 452.6107421875 769.25 452.2 769.246484375 451.7892578125 768.95 451.5
M 894.5 584.5
Q 894.2107421875 584.203515625 893.8 584.2 893.3892578125 584.203515625 893.1 584.5 892.803515625 584.7892578125 892.8 585.2
L 892.8 586.6
Q 892.803515625 587.0107421875 893.1 587.3 893.3892578125 587.596484375 893.8 587.6 894.2107421875 587.596484375 894.5 587.3 894.796484375 587.0107421875 894.8 586.6
L 894.8 585.2
Q 894.796484375 584.7892578125 894.5 584.5
M 893.1 577.5
Q 892.803515625 577.7892578125 892.8 578.2
L 892.8 581.2
Q 892.803515625 581.6107421875 893.1 581.9 893.3892578125 582.196484375 893.8 582.2 894.2107421875 582.196484375 894.5 581.9 894.796484375 581.6107421875 894.8 581.2
L 894.8 578.2
Q 894.796484375 577.7892578125 894.5 577.5 894.2107421875 577.203515625 893.8 577.2 893.3892578125 577.203515625 893.1 577.5
M 894.5 570.5
Q 894.2107421875 570.203515625 893.8 570.2 893.3892578125 570.203515625 893.1 570.5 892.803515625 570.7892578125 892.8 571.2
L 892.8 574.2
Q 892.803515625 574.6107421875 893.1 574.9 893.3892578125 575.196484375 893.8 575.2 894.2107421875 575.196484375 894.5 574.9 894.796484375 574.6107421875 894.8 574.2
L 894.8 571.2
Q 894.796484375 570.7892578125 894.5 570.5
M 894.5 563.5
Q 894.2107421875 563.203515625 893.8 563.2 893.3892578125 563.203515625 893.1 563.5 892.803515625 563.7892578125 892.8 564.2
L 892.8 567.2
Q 892.803515625 567.6107421875 893.1 567.9 893.3892578125 568.196484375 893.8 568.2 894.2107421875 568.196484375 894.5 567.9 894.796484375 567.6107421875 894.8 567.2
L 894.8 564.2
Q 894.796484375 563.7892578125 894.5 563.5
M 893.8 556.2
Q 893.3892578125 556.203515625 893.1 556.5 892.803515625 556.7892578125 892.8 557.2
L 892.8 560.2
Q 892.803515625 560.6107421875 893.1 560.9 893.3892578125 561.196484375 893.8 561.2 894.2107421875 561.196484375 894.5 560.9 894.796484375 560.6107421875 894.8 560.2
L 894.8 557.2
Q 894.796484375 556.7892578125 894.5 556.5 894.2107421875 556.203515625 893.8 556.2
M 894.8 550.2
Q 894.796484375 549.7892578125 894.5 549.5 894.2107421875 549.203515625 893.8 549.2 893.3892578125 549.203515625 893.1 549.5 892.803515625 549.7892578125 892.8 550.2
L 892.8 553.2
Q 892.803515625 553.6107421875 893.1 553.9 893.3892578125 554.196484375 893.8 554.2 894.2107421875 554.196484375 894.5 553.9 894.796484375 553.6107421875 894.8 553.2
L 894.8 550.2
M 893.1 542.5
Q 892.803515625 542.7892578125 892.8 543.2
L 892.8 546.2
Q 892.803515625 546.6107421875 893.1 546.9 893.3892578125 547.196484375 893.8 547.2 894.2107421875 547.196484375 894.5 546.9 894.796484375 546.6107421875 894.8 546.2
L 894.8 543.2
Q 894.796484375 542.7892578125 894.5 542.5 894.2107421875 542.203515625 893.8 542.2 893.3892578125 542.203515625 893.1 542.5
M 894.8 536.2
Q 894.796484375 535.7892578125 894.5 535.5 894.2107421875 535.203515625 893.8 535.2 893.3892578125 535.203515625 893.1 535.5 892.803515625 535.7892578125 892.8 536.2
L 892.8 539.2
Q 892.803515625 539.6107421875 893.1 539.9 893.3892578125 540.196484375 893.8 540.2 894.2107421875 540.196484375 894.5 539.9 894.796484375 539.6107421875 894.8 539.2
L 894.8 536.2
M 893.1 528.5
Q 892.803515625 528.7892578125 892.8 529.2
L 892.8 532.2
Q 892.803515625 532.6107421875 893.1 532.9 893.3892578125 533.196484375 893.8 533.2 894.2107421875 533.196484375 894.5 532.9 894.796484375 532.6107421875 894.8 532.2
L 894.8 529.2
Q 894.796484375 528.7892578125 894.5 528.5 894.2107421875 528.203515625 893.8 528.2 893.3892578125 528.203515625 893.1 528.5
M 894.5 525.9
Q 894.796484375 525.6107421875 894.8 525.2
L 894.8 522.2
Q 894.796484375 521.7892578125 894.5 521.5 894.2107421875 521.203515625 893.8 521.2 893.3892578125 521.203515625 893.1 521.5 892.803515625 521.7892578125 892.8 522.2
L 892.8 525.2
Q 892.803515625 525.6107421875 893.1 525.9 893.3892578125 526.196484375 893.8 526.2 894.2107421875 526.196484375 894.5 525.9
M 894.5 514.5
Q 894.2107421875 514.203515625 893.8 514.2 893.3892578125 514.203515625 893.1 514.5 892.803515625 514.7892578125 892.8 515.2
L 892.8 518.2
Q 892.803515625 518.6107421875 893.1 518.9 893.3892578125 519.196484375 893.8 519.2 894.2107421875 519.196484375 894.5 518.9 894.796484375 518.6107421875 894.8 518.2
L 894.8 515.2
Q 894.796484375 514.7892578125 894.5 514.5
M 894.5 511.9
Q 894.796484375 511.6107421875 894.8 511.2
L 894.8 508.2
Q 894.796484375 507.7892578125 894.5 507.5 894.2107421875 507.203515625 893.8 507.2 893.3892578125 507.203515625 893.1 507.5 892.803515625 507.7892578125 892.8 508.2
L 892.8 511.2
Q 892.803515625 511.6107421875 893.1 511.9 893.3892578125 512.196484375 893.8 512.2 894.2107421875 512.196484375 894.5 511.9
M 894.5 500.5
Q 894.2107421875 500.203515625 893.8 500.2 893.3892578125 500.203515625 893.1 500.5 892.803515625 500.7892578125 892.8 501.2
L 892.8 504.2
Q 892.803515625 504.6107421875 893.1 504.9 893.3892578125 505.196484375 893.8 505.2 894.2107421875 505.196484375 894.5 504.9 894.796484375 504.6107421875 894.8 504.2
L 894.8 501.2
Q 894.796484375 500.7892578125 894.5 500.5
M 859.95 451.5
Q 859.6607421875 451.203515625 859.25 451.2
L 856.25 451.2
Q 855.8392578125 451.203515625 855.55 451.5 855.253515625 451.7892578125 855.25 452.2 855.253515625 452.6107421875 855.55 452.9 855.8392578125 453.196484375 856.25 453.2
L 859.25 453.2
Q 859.6607421875 453.196484375 859.95 452.9 860.246484375 452.6107421875 860.25 452.2 860.246484375 451.7892578125 859.95 451.5
M 866.95 451.5
Q 866.6607421875 451.203515625 866.25 451.2
L 863.25 451.2
Q 862.8392578125 451.203515625 862.55 451.5 862.253515625 451.7892578125 862.25 452.2 862.253515625 452.6107421875 862.55 452.9 862.8392578125 453.196484375 863.25 453.2
L 866.25 453.2
Q 866.6607421875 453.196484375 866.95 452.9 867.246484375 452.6107421875 867.25 452.2 867.246484375 451.7892578125 866.95 451.5
M 873.95 451.5
Q 873.6607421875 451.203515625 873.25 451.2
L 870.25 451.2
Q 869.8392578125 451.203515625 869.55 451.5 869.253515625 451.7892578125 869.25 452.2 869.253515625 452.6107421875 869.55 452.9 869.8392578125 453.196484375 870.25 453.2
L 873.25 453.2
Q 873.6607421875 453.196484375 873.95 452.9 874.246484375 452.6107421875 874.25 452.2 874.246484375 451.7892578125 873.95 451.5
M 880.95 452.9
Q 881.246484375 452.6107421875 881.25 452.2 881.246484375 451.7892578125 880.95 451.5 880.6607421875 451.203515625 880.25 451.2
L 877.25 451.2
Q 876.8392578125 451.203515625 876.55 451.5 876.253515625 451.7892578125 876.25 452.2 876.253515625 452.6107421875 876.55 452.9 876.8392578125 453.196484375 877.25 453.2
L 880.25 453.2
Q 880.6607421875 453.196484375 880.95 452.9
M 887.95 451.5
Q 887.6607421875 451.203515625 887.25 451.2
L 884.25 451.2
Q 883.8392578125 451.203515625 883.55 451.5 883.253515625 451.7892578125 883.25 452.2 883.253515625 452.6107421875 883.55 452.9 883.8392578125 453.196484375 884.25 453.2
L 887.25 453.2
Q 887.6607421875 453.196484375 887.95 452.9 888.246484375 452.6107421875 888.25 452.2 888.246484375 451.7892578125 887.95 451.5
M 810.95 451.5
Q 810.6607421875 451.203515625 810.25 451.2
L 807.25 451.2
Q 806.8392578125 451.203515625 806.55 451.5 806.253515625 451.7892578125 806.25 452.2 806.253515625 452.6107421875 806.55 452.9 806.8392578125 453.196484375 807.25 453.2
L 810.25 453.2
Q 810.6607421875 453.196484375 810.95 452.9 811.246484375 452.6107421875 811.25 452.2 811.246484375 451.7892578125 810.95 451.5
M 817.95 451.5
Q 817.6607421875 451.203515625 817.25 451.2
L 814.25 451.2
Q 813.8392578125 451.203515625 813.55 451.5 813.253515625 451.7892578125 813.25 452.2 813.253515625 452.6107421875 813.55 452.9 813.8392578125 453.196484375 814.25 453.2
L 817.25 453.2
Q 817.6607421875 453.196484375 817.95 452.9 818.246484375 452.6107421875 818.25 452.2 818.246484375 451.7892578125 817.95 451.5
M 821.25 451.2
Q 820.8392578125 451.203515625 820.55 451.5 820.253515625 451.7892578125 820.25 452.2 820.253515625 452.6107421875 820.55 452.9 820.8392578125 453.196484375 821.25 453.2
L 824.25 453.2
Q 824.6607421875 453.196484375 824.95 452.9 825.246484375 452.6107421875 825.25 452.2 825.246484375 451.7892578125 824.95 451.5 824.6607421875 451.203515625 824.25 451.2
L 821.25 451.2
M 831.95 451.5
Q 831.6607421875 451.203515625 831.25 451.2
L 828.25 451.2
Q 827.8392578125 451.203515625 827.55 451.5 827.253515625 451.7892578125 827.25 452.2 827.253515625 452.6107421875 827.55 452.9 827.8392578125 453.196484375 828.25 453.2
L 831.25 453.2
Q 831.6607421875 453.196484375 831.95 452.9 832.246484375 452.6107421875 832.25 452.2 832.246484375 451.7892578125 831.95 451.5
M 838.95 451.5
Q 838.6607421875 451.203515625 838.25 451.2
L 835.25 451.2
Q 834.8392578125 451.203515625 834.55 451.5 834.253515625 451.7892578125 834.25 452.2 834.253515625 452.6107421875 834.55 452.9 834.8392578125 453.196484375 835.25 453.2
L 838.25 453.2
Q 838.6607421875 453.196484375 838.95 452.9 839.246484375 452.6107421875 839.25 452.2 839.246484375 451.7892578125 838.95 451.5
M 845.25 451.2
L 842.25 451.2
Q 841.8392578125 451.203515625 841.55 451.5 841.253515625 451.7892578125 841.25 452.2 841.253515625 452.6107421875 841.55 452.9 841.8392578125 453.196484375 842.25 453.2
L 845.25 453.2
Q 845.6607421875 453.196484375 845.95 452.9 846.246484375 452.6107421875 846.25 452.2 846.246484375 451.7892578125 845.95 451.5 845.6607421875 451.203515625 845.25 451.2
M 849.25 451.2
Q 848.8392578125 451.203515625 848.55 451.5 848.253515625 451.7892578125 848.25 452.2 848.253515625 452.6107421875 848.55 452.9 848.8392578125 453.196484375 849.25 453.2
L 852.25 453.2
Q 852.6607421875 453.196484375 852.95 452.9 853.246484375 452.6107421875 853.25 452.2 853.246484375 451.7892578125 852.95 451.5 852.6607421875 451.203515625 852.25 451.2
L 849.25 451.2
M 939.5 451.5
Q 939.2107421875 451.203515625 938.8 451.2
L 935.8 451.2
Q 935.3892578125 451.203515625 935.1 451.5 934.803515625 451.7892578125 934.8 452.2 934.803515625 452.6107421875 935.1 452.9 935.3892578125 453.196484375 935.8 453.2
L 938.8 453.2
Q 939.2107421875 453.196484375 939.5 452.9 939.796484375 452.6107421875 939.8 452.2 939.796484375 451.7892578125 939.5 451.5
M 942.8 451.2
Q 942.3892578125 451.203515625 942.1 451.5 941.803515625 451.7892578125 941.8 452.2 941.803515625 452.6107421875 942.1 452.9 942.3892578125 453.196484375 942.8 453.2
L 945.8 453.2
Q 946.2107421875 453.196484375 946.5 452.9 946.796484375 452.6107421875 946.8 452.2 946.796484375 451.7892578125 946.5 451.5 946.2107421875 451.203515625 945.8 451.2
L 942.8 451.2
M 953.5 451.5
Q 953.2107421875 451.203515625 952.8 451.2
L 949.8 451.2
Q 949.3892578125 451.203515625 949.1 451.5 948.803515625 451.7892578125 948.8 452.2 948.803515625 452.6107421875 949.1 452.9 949.3892578125 453.196484375 949.8 453.2
L 952.8 453.2
Q 953.2107421875 453.196484375 953.5 452.9 953.796484375 452.6107421875 953.8 452.2 953.796484375 451.7892578125 953.5 451.5
M 960.5 451.5
Q 960.2107421875 451.203515625 959.8 451.2
L 956.8 451.2
Q 956.3892578125 451.203515625 956.1 451.5 955.803515625 451.7892578125 955.8 452.2 955.803515625 452.6107421875 956.1 452.9 956.3892578125 453.196484375 956.8 453.2
L 959.8 453.2
Q 960.2107421875 453.196484375 960.5 452.9 960.796484375 452.6107421875 960.8 452.2 960.796484375 451.7892578125 960.5 451.5
M 966.8 451.2
L 963.8 451.2
Q 963.3892578125 451.203515625 963.1 451.5 962.803515625 451.7892578125 962.8 452.2 962.803515625 452.6107421875 963.1 452.9 963.3892578125 453.196484375 963.8 453.2
L 966.8 453.2
Q 967.2107421875 453.196484375 967.5 452.9 967.796484375 452.6107421875 967.8 452.2 967.796484375 451.7892578125 967.5 451.5 967.2107421875 451.203515625 966.8 451.2
M 970.8 451.2
Q 970.3892578125 451.203515625 970.1 451.5 969.803515625 451.7892578125 969.8 452.2 969.803515625 452.6107421875 970.1 452.9 970.3892578125 453.196484375 970.8 453.2
L 973.8 453.2
Q 974.2107421875 453.196484375 974.5 452.9 974.796484375 452.6107421875 974.8 452.2 974.796484375 451.7892578125 974.5 451.5 974.2107421875 451.203515625 973.8 451.2
L 970.8 451.2
M 893.1 493.5
Q 892.803515625 493.7892578125 892.8 494.2
L 892.8 497.2
Q 892.803515625 497.6107421875 893.1 497.9 893.3892578125 498.196484375 893.8 498.2 894.2107421875 498.196484375 894.5 497.9 894.796484375 497.6107421875 894.8 497.2
L 894.8 494.2
Q 894.796484375 493.7892578125 894.5 493.5 894.2107421875 493.203515625 893.8 493.2 893.3892578125 493.203515625 893.1 493.5
M 894.8 487.2
Q 894.796484375 486.7892578125 894.5 486.5 894.2107421875 486.203515625 893.8 486.2 893.3892578125 486.203515625 893.1 486.5 892.803515625 486.7892578125 892.8 487.2
L 892.8 490.2
Q 892.803515625 490.6107421875 893.1 490.9 893.3892578125 491.196484375 893.8 491.2 894.2107421875 491.196484375 894.5 490.9 894.796484375 490.6107421875 894.8 490.2
L 894.8 487.2
M 893.1 479.5
Q 892.803515625 479.7892578125 892.8 480.2
L 892.8 483.2
Q 892.803515625 483.6107421875 893.1 483.9 893.3892578125 484.196484375 893.8 484.2 894.2107421875 484.196484375 894.5 483.9 894.796484375 483.6107421875 894.8 483.2
L 894.8 480.2
Q 894.796484375 479.7892578125 894.5 479.5 894.2107421875 479.203515625 893.8 479.2 893.3892578125 479.203515625 893.1 479.5
M 894.8 476.2
L 894.8 473.2
Q 894.796484375 472.7892578125 894.5 472.5 894.2107421875 472.203515625 893.8 472.2 893.3892578125 472.203515625 893.1 472.5 892.803515625 472.7892578125 892.8 473.2
L 892.8 476.2
Q 892.803515625 476.6107421875 893.1 476.9 893.3892578125 477.196484375 893.8 477.2 894.2107421875 477.196484375 894.5 476.9 894.796484375 476.6107421875 894.8 476.2
M 894.5 465.5
Q 894.2107421875 465.203515625 893.8 465.2 893.3892578125 465.203515625 893.1 465.5 892.803515625 465.7892578125 892.8 466.2
L 892.8 469.2
Q 892.803515625 469.6107421875 893.1 469.9 893.3892578125 470.196484375 893.8 470.2 894.2107421875 470.196484375 894.5 469.9 894.796484375 469.6107421875 894.8 469.2
L 894.8 466.2
Q 894.796484375 465.7892578125 894.5 465.5
M 894.5 458.5
Q 894.2107421875 458.203515625 893.8 458.2 893.3892578125 458.203515625 893.1 458.5 892.803515625 458.7892578125 892.8 459.2
L 892.8 462.2
Q 892.803515625 462.6107421875 893.1 462.9 893.3892578125 463.196484375 893.8 463.2 894.2107421875 463.196484375 894.5 462.9 894.796484375 462.6107421875 894.8 462.2
L 894.8 459.2
Q 894.796484375 458.7892578125 894.5 458.5
M 897.5 451.5
Q 897.2107421875 451.203515625 896.8 451.2
L 894.8 451.2 894.8 450.7
Q 894.796484375 450.2892578125 894.5 450 894.2107421875 449.703515625 893.8 449.7 893.3892578125 449.703515625 893.1 450 892.803515625 450.2892578125 892.8 450.7
L 892.8 451.2 891.25 451.2
Q 890.8392578125 451.203515625 890.55 451.5 890.253515625 451.7892578125 890.25 452.2 890.253515625 452.6107421875 890.55 452.9 890.8392578125 453.196484375 891.25 453.2
L 892.8 453.2 892.8 455.2
Q 892.803515625 455.6107421875 893.1 455.9 893.3892578125 456.196484375 893.8 456.2 894.2107421875 456.196484375 894.5 455.9 894.796484375 455.6107421875 894.8 455.2
L 894.8 453.2 896.8 453.2
Q 897.2107421875 453.196484375 897.5 452.9 897.796484375 452.6107421875 897.8 452.2 897.796484375 451.7892578125 897.5 451.5
M 904.5 451.5
Q 904.2107421875 451.203515625 903.8 451.2
L 900.8 451.2
Q 900.3892578125 451.203515625 900.1 451.5 899.803515625 451.7892578125 899.8 452.2 899.803515625 452.6107421875 900.1 452.9 900.3892578125 453.196484375 900.8 453.2
L 903.8 453.2
Q 904.2107421875 453.196484375 904.5 452.9 904.796484375 452.6107421875 904.8 452.2 904.796484375 451.7892578125 904.5 451.5
M 911.5 452.9
Q 911.796484375 452.6107421875 911.8 452.2 911.796484375 451.7892578125 911.5 451.5 911.2107421875 451.203515625 910.8 451.2
L 907.8 451.2
Q 907.3892578125 451.203515625 907.1 451.5 906.803515625 451.7892578125 906.8 452.2 906.803515625 452.6107421875 907.1 452.9 907.3892578125 453.196484375 907.8 453.2
L 910.8 453.2
Q 911.2107421875 453.196484375 911.5 452.9
M 918.5 451.5
Q 918.2107421875 451.203515625 917.8 451.2
L 914.8 451.2
Q 914.3892578125 451.203515625 914.1 451.5 913.803515625 451.7892578125 913.8 452.2 913.803515625 452.6107421875 914.1 452.9 914.3892578125 453.196484375 914.8 453.2
L 917.8 453.2
Q 918.2107421875 453.196484375 918.5 452.9 918.796484375 452.6107421875 918.8 452.2 918.796484375 451.7892578125 918.5 451.5
M 925.5 451.5
Q 925.2107421875 451.203515625 924.8 451.2
L 921.8 451.2
Q 921.3892578125 451.203515625 921.1 451.5 920.803515625 451.7892578125 920.8 452.2 920.803515625 452.6107421875 921.1 452.9 921.3892578125 453.196484375 921.8 453.2
L 924.8 453.2
Q 925.2107421875 453.196484375 925.5 452.9 925.796484375 452.6107421875 925.8 452.2 925.796484375 451.7892578125 925.5 451.5
M 928.8 451.2
Q 928.3892578125 451.203515625 928.1 451.5 927.803515625 451.7892578125 927.8 452.2 927.803515625 452.6107421875 928.1 452.9 928.3892578125 453.196484375 928.8 453.2
L 931.8 453.2
Q 932.2107421875 453.196484375 932.5 452.9 932.796484375 452.6107421875 932.8 452.2 932.796484375 451.7892578125 932.5 451.5 932.2107421875 451.203515625 931.8 451.2
L 928.8 451.2
M 893.1 443
Q 892.803515625 443.2892578125 892.8 443.7
L 892.8 446.7
Q 892.803515625 447.1107421875 893.1 447.4 893.3892578125 447.696484375 893.8 447.7 894.2107421875 447.696484375 894.5 447.4 894.796484375 447.1107421875 894.8 446.7
L 894.8 443.7
Q 894.796484375 443.2892578125 894.5 443 894.2107421875 442.703515625 893.8 442.7 893.3892578125 442.703515625 893.1 443
M 894.8 436.7
Q 894.796484375 436.2892578125 894.5 436 894.2107421875 435.703515625 893.8 435.7 893.3892578125 435.703515625 893.1 436 892.803515625 436.2892578125 892.8 436.7
L 892.8 439.7
Q 892.803515625 440.1107421875 893.1 440.4 893.3892578125 440.696484375 893.8 440.7 894.2107421875 440.696484375 894.5 440.4 894.796484375 440.1107421875 894.8 439.7
L 894.8 436.7
M 893.1 429
Q 892.803515625 429.2892578125 892.8 429.7
L 892.8 432.7
Q 892.803515625 433.1107421875 893.1 433.4 893.3892578125 433.696484375 893.8 433.7 894.2107421875 433.696484375 894.5 433.4 894.796484375 433.1107421875 894.8 432.7
L 894.8 429.7
Q 894.796484375 429.2892578125 894.5 429 894.2107421875 428.703515625 893.8 428.7 893.3892578125 428.703515625 893.1 429
M 894.5 422
Q 894.2107421875 421.703515625 893.8 421.7 893.3892578125 421.703515625 893.1 422 892.803515625 422.2892578125 892.8 422.7
L 892.8 425.7
Q 892.803515625 426.1107421875 893.1 426.4 893.3892578125 426.696484375 893.8 426.7 894.2107421875 426.696484375 894.5 426.4 894.796484375 426.1107421875 894.8 425.7
L 894.8 422.7
Q 894.796484375 422.2892578125 894.5 422
M 894.5 415
Q 894.2107421875 414.703515625 893.8 414.7 893.3892578125 414.703515625 893.1 415 892.803515625 415.2892578125 892.8 415.7
L 892.8 418.7
Q 892.803515625 419.1107421875 893.1 419.4 893.3892578125 419.696484375 893.8 419.7 894.2107421875 419.696484375 894.5 419.4 894.796484375 419.1107421875 894.8 418.7
L 894.8 415.7
Q 894.796484375 415.2892578125 894.5 415
M 893.8 407.7
Q 893.3892578125 407.703515625 893.1 408 892.803515625 408.2892578125 892.8 408.7
L 892.8 411.7
Q 892.803515625 412.1107421875 893.1 412.4 893.3892578125 412.696484375 893.8 412.7 894.2107421875 412.696484375 894.5 412.4 894.796484375 412.1107421875 894.8 411.7
L 894.8 408.7
Q 894.796484375 408.2892578125 894.5 408 894.2107421875 407.703515625 893.8 407.7
M 894.8 401.7
Q 894.796484375 401.2892578125 894.5 401 894.2107421875 400.703515625 893.8 400.7 893.3892578125 400.703515625 893.1 401 892.803515625 401.2892578125 892.8 401.7
L 892.8 404.7
Q 892.803515625 405.1107421875 893.1 405.4 893.3892578125 405.696484375 893.8 405.7 894.2107421875 405.696484375 894.5 405.4 894.796484375 405.1107421875 894.8 404.7
L 894.8 401.7
M 893.1 394
Q 892.803515625 394.2892578125 892.8 394.7
L 892.8 397.7
Q 892.803515625 398.1107421875 893.1 398.4 893.3892578125 398.696484375 893.8 398.7 894.2107421875 398.696484375 894.5 398.4 894.796484375 398.1107421875 894.8 397.7
L 894.8 394.7
Q 894.796484375 394.2892578125 894.5 394 894.2107421875 393.703515625 893.8 393.7 893.3892578125 393.703515625 893.1 394
M 894.8 387.7
Q 894.796484375 387.2892578125 894.5 387 894.2107421875 386.703515625 893.8 386.7 893.3892578125 386.703515625 893.1 387 892.803515625 387.2892578125 892.8 387.7
L 892.8 390.7
Q 892.803515625 391.1107421875 893.1 391.4 893.3892578125 391.696484375 893.8 391.7 894.2107421875 391.696484375 894.5 391.4 894.796484375 391.1107421875 894.8 390.7
L 894.8 387.7
M 893.1 380
Q 892.803515625 380.2892578125 892.8 380.7
L 892.8 383.7
Q 892.803515625 384.1107421875 893.1 384.4 893.3892578125 384.696484375 893.8 384.7 894.2107421875 384.696484375 894.5 384.4 894.796484375 384.1107421875 894.8 383.7
L 894.8 380.7
Q 894.796484375 380.2892578125 894.5 380 894.2107421875 379.703515625 893.8 379.7 893.3892578125 379.703515625 893.1 380
M 894.5 377.4
Q 894.796484375 377.1107421875 894.8 376.7
L 894.8 373.7
Q 894.796484375 373.2892578125 894.5 373 894.2107421875 372.703515625 893.8 372.7 893.3892578125 372.703515625 893.1 373 892.803515625 373.2892578125 892.8 373.7
L 892.8 376.7
Q 892.803515625 377.1107421875 893.1 377.4 893.3892578125 377.696484375 893.8 377.7 894.2107421875 377.696484375 894.5 377.4
M 894.5 366
Q 894.2107421875 365.703515625 893.8 365.7 893.3892578125 365.703515625 893.1 366 892.803515625 366.2892578125 892.8 366.7
L 892.8 369.7
Q 892.803515625 370.1107421875 893.1 370.4 893.3892578125 370.696484375 893.8 370.7 894.2107421875 370.696484375 894.5 370.4 894.796484375 370.1107421875 894.8 369.7
L 894.8 366.7
Q 894.796484375 366.2892578125 894.5 366
M 894.5 363.4
Q 894.796484375 363.1107421875 894.8 362.7
L 894.8 359.7
Q 894.796484375 359.2892578125 894.5 359 894.2107421875 358.703515625 893.8 358.7 893.3892578125 358.703515625 893.1 359 892.803515625 359.2892578125 892.8 359.7
L 892.8 362.7
Q 892.803515625 363.1107421875 893.1 363.4 893.3892578125 363.696484375 893.8 363.7 894.2107421875 363.696484375 894.5 363.4
M 894.5 352
Q 894.2107421875 351.703515625 893.8 351.7 893.3892578125 351.703515625 893.1 352 892.803515625 352.2892578125 892.8 352.7
L 892.8 355.7
Q 892.803515625 356.1107421875 893.1 356.4 893.3892578125 356.696484375 893.8 356.7 894.2107421875 356.696484375 894.5 356.4 894.796484375 356.1107421875 894.8 355.7
L 894.8 352.7
Q 894.796484375 352.2892578125 894.5 352
M 893.1 345
Q 892.803515625 345.2892578125 892.8 345.7
L 892.8 348.7
Q 892.803515625 349.1107421875 893.1 349.4 893.3892578125 349.696484375 893.8 349.7 894.2107421875 349.696484375 894.5 349.4 894.796484375 349.1107421875 894.8 348.7
L 894.8 345.7
Q 894.796484375 345.2892578125 894.5 345 894.2107421875 344.703515625 893.8 344.7 893.3892578125 344.703515625 893.1 345
M 894.8 338.7
Q 894.796484375 338.2892578125 894.5 338 894.2107421875 337.703515625 893.8 337.7 893.3892578125 337.703515625 893.1 338 892.803515625 338.2892578125 892.8 338.7
L 892.8 341.7
Q 892.803515625 342.1107421875 893.1 342.4 893.3892578125 342.696484375 893.8 342.7 894.2107421875 342.696484375 894.5 342.4 894.796484375 342.1107421875 894.8 341.7
L 894.8 338.7
M 893.1 331
Q 892.803515625 331.2892578125 892.8 331.7
L 892.8 334.7
Q 892.803515625 335.1107421875 893.1 335.4 893.3892578125 335.696484375 893.8 335.7 894.2107421875 335.696484375 894.5 335.4 894.796484375 335.1107421875 894.8 334.7
L 894.8 331.7
Q 894.796484375 331.2892578125 894.5 331 894.2107421875 330.703515625 893.8 330.7 893.3892578125 330.703515625 893.1 331
M 894.8 327.7
L 894.8 324.7
Q 894.796484375 324.2892578125 894.5 324 894.2107421875 323.703515625 893.8 323.7 893.3892578125 323.703515625 893.1 324 892.803515625 324.2892578125 892.8 324.7
L 892.8 327.7
Q 892.803515625 328.1107421875 893.1 328.4 893.3892578125 328.696484375 893.8 328.7 894.2107421875 328.696484375 894.5 328.4 894.796484375 328.1107421875 894.8 327.7
M 894.5 317
Q 894.2107421875 316.703515625 893.8 316.7 893.3892578125 316.703515625 893.1 317 892.803515625 317.2892578125 892.8 317.7
L 892.8 320.7
Q 892.803515625 321.1107421875 893.1 321.4 893.3892578125 321.696484375 893.8 321.7 894.2107421875 321.696484375 894.5 321.4 894.796484375 321.1107421875 894.8 320.7
L 894.8 317.7
Q 894.796484375 317.2892578125 894.5 317 Z"/>
</g>

<g id="Layer1_0_STROKES_3_FILL">
<path fill="#1E1E1E" stroke="none" d="
M 744.95 451.5
Q 744.6607421875 451.203515625 744.25 451.2
L 743.6 451.2
Q 743.1892578125 451.203515625 742.9 451.5 742.603515625 451.7892578125 742.6 452.2 742.603515625 452.6107421875 742.9 452.9 743.1892578125 453.196484375 743.6 453.2
L 744.25 453.2
Q 744.6607421875 453.196484375 744.95 452.9 745.246484375 452.6107421875 745.25 452.2 745.246484375 451.7892578125 744.95 451.5 Z"/>
</g>

<g id="Layer0_0_FILL">
<path fill="#E50182" stroke="none" d="
M 934.45 519.25
L 934.45 519.2 937.8 513.35 923.5 519.15 937.8 525.2 934.45 519.25
M 359 352.1
L 362.45 367.2 365.4 361.1 365.45 361 372.1 360.4 359 352.1
M 502.35 459.2
L 490.25 468.95 496.9 468.9 497.1 468.9 500.4 474.65 502.35 459.2 Z"/>
</g>

<path id="Layer2_0_1_STROKES" stroke="#E50182" stroke-width="2" stroke-linejoin="miter" stroke-linecap="butt" stroke-miterlimit="4" fill="none" d="
M 375.75 334.85
Q 374.15 337.2 372 339.35 363.6 347.75 351.7 347.75 339.8 347.75 331.4 339.35 328.95 336.9 327.2 334.1
M 180.35 431.7
Q 187.15 433.55 191.45 439.2 195.95 444.95 195.95 452.2 195.95 459.4 191.45 465.05 187.15 470.65 180.35 472.7
M 522.65 472.55
Q 516 470.55 511.85 465.05 507.5 459.25 507.5 452.2 507.5 444.95 511.85 439.35 516.15 433.7 522.8 431.7
M 375.75 570
Q 374.15 567.65 372 565.5 363.6 557.1 351.7 557.1 339.8 557.1 331.4 565.5 328.95 567.95 327.2 570.75"/>

<path id="Layer1_0_1_STROKES" stroke="#DBDBDB" stroke-width="3" stroke-linejoin="round" stroke-linecap="round" fill="none" d="
M 998 321.15
L 1048 321.15
Q 1063 321.15 1063 336.15
L 1063 366.2
Q 1063 381.2 1048 381.2
L 998 381.2
Q 983 381.2 983 366.2
L 983 336.15
Q 983 321.15 998 321.15 Z
M 1006.1 513.3
L 1036.1 513.3
Q 1051.1 513.3 1051.1 528.3
L 1051.1 558.35
Q 1051.1 573.35 1036.1 573.35
L 1006.1 573.35
Q 991.1 573.35 991.1 558.35
L 991.1 528.3
Q 991.1 513.3 1006.1 513.3 Z
M 425.95 278
L 515.95 278
Q 530.95 278 530.95 293
L 530.95 323.05
Q 530.95 338.05 515.95 338.05
L 425.95 338.05
Q 410.95 338.05 410.95 323.05
L 410.95 293
Q 410.95 278 425.95 278 Z
M 528.35 496.45
L 618.35 496.45
Q 633.35 496.45 633.35 511.45
L 633.35 541.5
Q 633.35 556.5 618.35 556.5
L 528.35 556.5
Q 513.35 556.5 513.35 541.5
L 513.35 511.45
Q 513.35 496.45 528.35 496.45 Z"/>

<path id="Layer1_0_2_STROKES" stroke="#1E1E1E" stroke-width="3" stroke-linejoin="round" stroke-linecap="round" fill="none" d="
M 893.8 586.6
L 1044.05 452.2 893.8 317.7
M 744.25 452.8
L 893.8 586.6
M 893.8 317.7
L 744.25 451.65"/>

<path id="Layer1_0_3_STROKES" stroke="#1E1E1E" stroke-width="3" stroke-linejoin="round" stroke-linecap="butt" fill="none" d="
M 744.25 452.8
L 743.6 452.2 744.25 451.65
M 351.6 319.05
L 150.65 452.25 351.6 585.35 552.75 452.25 351.6 319.05 Z"/>

<path id="Layer0_0_1_STROKES" stroke="#E50182" stroke-width="2" stroke-linejoin="round" stroke-linecap="butt" fill="none" d="
M 934.475 519.2
Q 953.6580078125 520.53515625 971.55 530.85 980.8 536 986.15 541.1
M 436.75 346.5
Q 426.3 359.15 412.05 367.45 383.977734375 383.4349609375 365.4 361.1
M 506.75 520.45
Q 500.45 515.55 496.05 506.4 487.609375 488.782421875 496.9 468.9"/>
</defs>

<g transform="matrix( 1, 0, 0, 1, 0,0) ">
<use xlink:href="#Layer2_0_1_STROKES"/>
</g>

<g transform="matrix( 1, 0, 0, 1, 0,0) ">
<use xlink:href="#Layer1_0_FILL"/>

<use xlink:href="#Layer1_0_1_STROKES"/>

<use xlink:href="#Layer1_0_2_STROKES"/>

<use xlink:href="#Layer1_0_3_STROKES"/>

<use xlink:href="#Layer1_0_STROKES_1_FILL"/>

<use xlink:href="#Layer1_0_STROKES_2_FILL"/>

<use xlink:href="#Layer1_0_STROKES_3_FILL"/>
</g>

<g transform="matrix( 1, 0, 0, 1, 0,0) ">
<use xlink:href="#Layer0_0_FILL"/>

<use xlink:href="#Layer0_0_1_STROKES"/>
</g>
</svg>
