<svg xmlns="http://www.w3.org/2000/svg" viewBox="0 0 67.979 61.336"><defs><style>.cls-1{fill:#5cccb6;}.cls-2{fill:#282828;}</style></defs><g id="레이어_2" data-name="레이어 2"><g id="레이어_5" data-name="레이어 5"><path class="cls-1" d="M33.919,0C15.122,0,0,13.709,0,30.668A29.181,29.181,0,0,0,5.512,47.486a4.528,4.528,0,0,1,.424,4.24L2.685,58.651a.619.619,0,0,0,.707.848l10.034-2.826a4.745,4.745,0,0,1,3.109.282A36.2,36.2,0,0,0,34.06,61.336c18.8,0,33.919-13.708,33.919-30.668C67.837,13.709,52.715,0,33.919,0Z"/><path class="cls-2" d="M32.213,16.942a10.147,10.147,0,0,1,3.6.586,7.606,7.606,0,0,1,2.572,1.561,6.4,6.4,0,0,1,1.543,2.235,6.927,6.927,0,0,1,.515,2.644v.248a5.078,5.078,0,0,1-.2,1.347,5.68,5.68,0,0,1-.621,1.42,7.532,7.532,0,0,1-1.082,1.384,7.228,7.228,0,0,1-1.579,1.206,5.379,5.379,0,0,1,1.579.8,6.182,6.182,0,0,1,2.235,2.981,5.88,5.88,0,0,1,.337,2v.426a7.079,7.079,0,0,1-.567,2.838,6.207,6.207,0,0,1-1.686,2.271,8.189,8.189,0,0,1-2.75,1.507,11.745,11.745,0,0,1-3.76.55,12.508,12.508,0,0,1-3.885-.55,8.314,8.314,0,0,1-2.82-1.507,6.124,6.124,0,0,1-1.7-2.271,7.079,7.079,0,0,1-.567-2.838v-.426a5.612,5.612,0,0,1,.355-2,6.586,6.586,0,0,1,.94-1.7A6.339,6.339,0,0,1,26,30.353a5.367,5.367,0,0,1,1.562-.78,5.944,5.944,0,0,1-1.579-1.118A6.856,6.856,0,0,1,24.9,27.071a6.325,6.325,0,0,1-.638-1.471,5.058,5.058,0,0,1-.213-1.384v-.248a7.384,7.384,0,0,1,.479-2.644,6.1,6.1,0,0,1,1.49-2.235,7.4,7.4,0,0,1,2.554-1.561A10.255,10.255,0,0,1,32.213,16.942Zm.107,14.724a5.982,5.982,0,0,0-1.615.213,3.97,3.97,0,0,0-1.347.656,3.281,3.281,0,0,0-.941,1.136,3.567,3.567,0,0,0-.355,1.649V35.5a3.058,3.058,0,0,0,1.171,2.572,4.913,4.913,0,0,0,3.087.905,4.609,4.609,0,0,0,3.015-.905,3.139,3.139,0,0,0,1.1-2.572V35.32a3.631,3.631,0,0,0-.337-1.632,3.516,3.516,0,0,0-.887-1.134,3.467,3.467,0,0,0-1.3-.675A5.786,5.786,0,0,0,32.32,31.666Zm-.072-10.785a3.868,3.868,0,0,0-2.518.834,3.024,3.024,0,0,0-1.03,2.5v.178a3.173,3.173,0,0,0,.32,1.471,3.11,3.11,0,0,0,.834,1.03,3.436,3.436,0,0,0,1.153.6,4.324,4.324,0,0,0,1.277.2,4.263,4.263,0,0,0,1.3-.2,3.288,3.288,0,0,0,1.117-.6,3.007,3.007,0,0,0,.8-1.03,3.332,3.332,0,0,0,.3-1.471v-.178a3.108,3.108,0,0,0-.975-2.5A3.824,3.824,0,0,0,32.248,20.881Z"/></g></g></svg>