<?xml version="1.0" encoding="utf-8"?>
<!-- Generator: Adobe Illustrator 23.1.0, SVG Export Plug-In . SVG Version: 6.00 Build 0)  -->
<svg version="1.1" id="레이어_1" xmlns="http://www.w3.org/2000/svg" xmlns:xlink="http://www.w3.org/1999/xlink" x="0px"
	 y="0px" width="230px" height="118px" viewBox="0 0 230 118" style="enable-background:new 0 0 230 118;" xml:space="preserve">
<g>
	<path style="fill:none;stroke:#000000;stroke-width:2;stroke-linejoin:round;" d="M2,115.4L47.4,2 M183.4,2l45.4,113.4"/>
	<path style="fill:none;stroke:#C8245B;stroke-width:2;stroke-linejoin:round;" d="M228.8,115.4H2 M47.4,2h136.1"/>
</g>
<g>
	<line style="fill:none;stroke:#E4007F;stroke-width:1.5;" x1="111" y1="109.2" x2="111" y2="72.9"/>
	<g>
		<path style="fill:#E4007F;" d="M111,108.5l2.4-1.4l0.1,0.1l-1.5,3.8c-0.3,1.3-0.6,2.7-0.9,4c-0.3-1.3-0.6-2.7-0.9-4l-1.5-3.8
			l0-0.1L111,108.5z"/>
		<line style="fill:none;stroke:#E4007F;stroke-width:1.5;" x1="111" y1="8.2" x2="111" y2="44.5"/>
		<path style="fill:#E4007F;" d="M111,8.9l2.4,1.4l0.1-0.1l-1.5-3.8c-0.3-1.3-0.6-2.7-0.9-4c-0.3,1.3-0.6,2.7-0.9,4l-1.5,3.8l0,0.1
			L111,8.9z"/>
	</g>
</g>
<g>
	<path d="M101.8,56.6c0,0.5,0,1.1,0,1.7c0.3,0,0.5,0,0.8,0c0.3,0,0.5,0,0.7,0c0.3,0,0.5,0,0.7,0.1c0.1,0.1,0.2,0.3,0.3,0.7
		c0,0.6-0.2,1-0.8,1.1c-0.3,0-0.8,0.1-1.4,0.1c-0.6,0-1.2,0.1-1.9,0.1s-1.4,0.1-2.1,0.1s-1.4,0.1-2.1,0.1s-1.3,0.1-1.9,0.1
		s-1,0.1-1.4,0.1c-0.3,0-0.5,0-0.6-0.2c-0.2-0.2-0.3-0.4-0.3-0.7c0-0.4,0-0.6,0.2-0.8c0.1-0.2,0.3-0.2,0.5-0.3c0.2,0,0.5,0,0.8,0
		c0.3,0,0.6,0,1-0.1c0-0.6-0.1-1.2-0.1-1.8c0-0.6,0-1.1,0-1.7c0-0.5,0-1.1,0-1.7c0-0.6,0-1.2,0-1.8c-0.3,0-0.6,0-0.9,0s-0.5,0-0.7,0
		c-0.3,0-0.5-0.1-0.6-0.2c-0.2-0.1-0.2-0.4-0.3-0.7c0-0.4,0-0.6,0.2-0.8c0.1-0.2,0.3-0.3,0.5-0.3c0.4,0,0.9,0,1.5,0s1.2,0,1.9,0
		s1.4,0,2.1,0c0.7,0,1.4,0,2.1,0c0.7,0,1.3,0,1.9,0c0.6,0,1.1,0,1.4,0c0.3,0,0.5,0,0.7,0.2s0.2,0.4,0.2,0.7c0,0.3,0,0.6-0.2,0.7
		c-0.1,0.1-0.4,0.2-0.7,0.2c-0.2,0-0.4,0-0.6,0c-0.2,0-0.4,0-0.7,0c0,0.6,0,1.2,0,1.7c0,0.5,0,1.1,0,1.6
		C101.8,55.5,101.8,56,101.8,56.6z M96.4,56.8c0,0.5,0,1.1,0,1.7c0.5,0,1-0.1,1.6-0.1c0.5,0,1,0,1.5-0.1c0-0.6,0-1.2,0-1.7
		s0-1.1,0-1.6s0-1.1,0-1.6c0-0.6,0-1.1,0-1.7c-0.5,0-1,0-1.6,0c-0.5,0-1.1,0-1.6,0c0,0.6,0,1.2,0,1.7s0,1.1,0,1.6
		S96.4,56.2,96.4,56.8z M108.3,65.3c0,1.3-0.4,2.4-1.3,3.3c-0.9,0.8-2.2,1.3-3.9,1.4c-0.9,0-1.6,0-2.3-0.2c-0.7-0.2-1.2-0.5-1.6-0.8
		c-0.4-0.4-0.8-0.8-1-1.4c-0.2-0.5-0.3-1.2-0.3-1.8c0-0.6,0.1-1.2,0.3-1.7s0.5-1,1-1.4s1-0.8,1.6-1c0.6-0.3,1.4-0.4,2.3-0.5
		c1.7-0.1,3,0.3,3.9,1C107.8,62.9,108.3,64,108.3,65.3z M105.3,67.3c0.5-0.5,0.8-1.2,0.8-1.9c0-0.8-0.3-1.5-0.9-1.9
		c-0.6-0.4-1.3-0.6-2.2-0.6c-0.9,0-1.7,0.3-2.2,0.8c-0.5,0.5-0.8,1.1-0.8,1.9c0,0.8,0.3,1.5,0.8,1.9c0.5,0.4,1.2,0.6,2.1,0.6
		C104,68.1,104.7,67.8,105.3,67.3z M104.5,55.3c0.5,0,1,0,1.5,0c0-0.2,0-0.3,0-0.5s0-0.3,0-0.5c-0.6,0-1.1,0-1.5,0
		c-0.5,0-0.7,0-0.8,0c-0.3,0-0.5-0.1-0.6-0.2c-0.1-0.2-0.2-0.4-0.2-0.7c0-0.3,0-0.6,0.2-0.7c0.1-0.1,0.3-0.2,0.6-0.2
		c0.1,0,0.4,0,0.9,0c0.5,0,1,0,1.6-0.1c0-0.2,0-0.4,0-0.6c0-0.2,0-0.4,0-0.6c0-0.4,0.1-0.7,0.3-0.9c0.2-0.2,0.5-0.3,0.9-0.3
		c0.8,0,1.2,0.4,1.2,1.2c0,0.7,0,1.5,0,2.4c0,0.9,0,1.7,0,2.6s0,1.6-0.1,2.3c0,0.7-0.1,1.3-0.1,1.7c0,0.4-0.2,0.7-0.4,0.8
		s-0.5,0.2-0.8,0.2c-0.3,0-0.6-0.1-0.8-0.2c-0.2-0.1-0.3-0.4-0.3-0.9c0-0.3,0-0.7,0-1.2s0-1.1,0-1.7c-0.6,0-1.1,0-1.5,0
		c-0.4,0-0.7,0-0.8,0c-0.3,0-0.5-0.1-0.6-0.2c-0.1-0.2-0.2-0.4-0.2-0.7c0-0.3,0-0.6,0.2-0.7c0.1-0.1,0.3-0.2,0.6-0.2
		C103.8,55.3,104.1,55.3,104.5,55.3z"/>
	<path d="M118,50.1c0,0.3,0,0.5,0,0.9c0.8,0,1.5-0.1,2.1-0.1c0.7,0,1.2,0,1.6-0.1c0.3,0,0.5,0,0.7,0.1c0.1,0.1,0.2,0.3,0.2,0.7
		c0,0.3,0,0.6-0.2,0.7c-0.1,0.1-0.4,0.2-0.7,0.2c-0.1,0-0.2,0-0.4,0c-0.1,0-0.3,0-0.5,0c-0.2,0-0.3,0-0.5,0c-0.2,0-0.3,0-0.5,0
		c0.6,0.3,1,0.7,1.4,1.3c0.4,0.6,0.5,1.4,0.6,2.2c0,0.7-0.1,1.3-0.3,1.9c-0.2,0.6-0.5,1.1-0.9,1.5c-0.4,0.4-0.9,0.8-1.6,1
		c-0.6,0.3-1.3,0.4-2.1,0.4c-0.8,0-1.5-0.1-2.1-0.3c-0.6-0.2-1.2-0.5-1.6-0.9s-0.8-0.9-1-1.5c-0.2-0.6-0.3-1.2-0.3-1.8
		c0-0.8,0.2-1.5,0.5-2.1s0.8-1.1,1.2-1.4c-0.2,0-0.3,0-0.5,0s-0.4,0-0.6,0c-0.2,0-0.4,0-0.5,0c-0.2,0-0.3,0-0.4,0
		c-0.3,0-0.5,0-0.6-0.1c-0.2-0.1-0.2-0.3-0.3-0.7c0-0.4,0.1-0.6,0.2-0.8c0.2-0.2,0.4-0.3,0.6-0.3c0.5,0,1.1-0.1,1.7-0.1
		c0.7,0,1.4-0.1,2.2-0.1c0-0.3,0-0.6,0-0.8s0-0.5,0-0.7c0-0.3,0.1-0.6,0.2-0.8c0.1-0.2,0.5-0.3,0.9-0.3c0.5,0,0.9,0,1,0.2
		c0.1,0.1,0.2,0.4,0.2,0.8C118,49.6,118,49.8,118,50.1z M117,59.2c0.9,0,1.6-0.3,2.1-0.9c0.5-0.6,0.7-1.4,0.7-2.4
		c0-1-0.3-1.8-0.9-2.3c-0.6-0.5-1.2-0.8-2-0.7c-0.9,0-1.5,0.4-2,1s-0.7,1.4-0.7,2.3c0,1,0.3,1.8,0.8,2.3
		C115.5,59,116.1,59.2,117,59.2z M129.1,65.4c0,1.3-0.4,2.4-1.3,3.2c-0.9,0.8-2.3,1.3-4,1.3c-1.8,0.1-3.1-0.3-4-1.1
		s-1.4-1.8-1.4-3.2c0-0.6,0.1-1.2,0.3-1.7c0.2-0.5,0.5-1,1-1.4c0.4-0.4,1-0.7,1.6-1c0.7-0.3,1.4-0.4,2.3-0.5c1.7-0.1,3,0.3,4,1
		C128.6,62.9,129.1,64,129.1,65.4z M126.1,67.4c0.6-0.5,0.8-1.2,0.8-1.9c0-0.8-0.3-1.5-0.9-1.9c-0.6-0.4-1.3-0.6-2.3-0.6
		c-1,0-1.8,0.3-2.3,0.8c-0.5,0.5-0.8,1.1-0.8,1.9c0,0.8,0.3,1.5,0.8,1.9s1.3,0.6,2.3,0.6C124.7,68.1,125.5,67.9,126.1,67.4z
		 M126.6,55.9c-0.3,0-0.7,0-1,0c0,0.6,0,1.2,0,1.8c0,0.6,0,1.2,0,1.8c0,0.6-0.4,1-1,1c-0.7,0-1-0.3-1-1c0-1.3-0.1-2.7-0.1-4.1
		c0-1.4,0-2.9,0-4.4c0-0.3,0.1-0.5,0.2-0.6c0.2-0.1,0.4-0.2,0.9-0.2c0.4,0,0.7,0.1,0.9,0.2c0.2,0.2,0.3,0.4,0.3,0.6c0,0.5,0,1,0,1.5
		c0,0.5,0,1,0,1.4c0.4,0,0.8,0,1.1,0c0.4,0,0.7,0,0.9,0c0-0.5,0-1.1,0-1.6c0-0.5,0-1,0-1.5c0-0.3,0.1-0.5,0.3-0.6
		c0.2-0.1,0.4-0.2,0.9-0.2c0.4,0,0.7,0.1,0.9,0.2c0.2,0.1,0.3,0.3,0.3,0.6c0,0.8,0,1.6,0,2.5c0,0.9,0,1.7-0.1,2.6
		c0,0.9-0.1,1.7-0.1,2.5c0,0.8-0.1,1.6-0.1,2.2c0,0.7-0.4,1-1.1,1c-0.6,0-1-0.4-1-1c0-0.6,0-1.3,0-2.1c0-0.8,0-1.6,0-2.4
		C127.3,55.9,127,55.9,126.6,55.9z"/>
</g>
</svg>
