
<svg xmlns="http://www.w3.org/2000/svg" version="1.1" xmlns:xlink="http://www.w3.org/1999/xlink" preserveAspectRatio="none" x="0px" y="0px" width="1280px" height="720px" viewBox="0 0 1280 720">
<defs>
<g id="Layer0_0_FILL">
<path fill="#FFFFFF" stroke="none" d="
M 886.85 578
L 811.85 578
Q 796.85 578 796.85 593
L 796.85 623.05
Q 796.85 638.05 811.85 638.05
L 886.85 638.05
Q 901.85 638.05 901.85 623.05
L 901.85 593
Q 901.85 578 886.85 578
M 955.65 578
Q 940.65 578 940.65 593
L 940.65 623.05
Q 940.65 638.05 955.65 638.05
L 1030.65 638.05
Q 1045.65 638.05 1045.65 623.05
L 1045.65 593
Q 1045.65 578 1030.65 578
L 955.65 578
M 1189.6 593
Q 1189.6 578 1174.6 578
L 1099.6 578
Q 1084.6 578 1084.6 593
L 1084.6 623.05
Q 1084.6 638.05 1099.6 638.05
L 1174.6 638.05
Q 1189.6 638.05 1189.6 623.05
L 1189.6 593
M 238 299.75
Q 229.35 299.75 223.3 305.85 217.2 311.95 217.2 320.55 217.2 329.15 223.3 335.25 229.35 341.35 238 341.35 246.6 341.35 252.7 335.25 258.75 329.15 258.75 320.55 258.75 311.95 252.7 305.85 246.6 299.75 238 299.75
M 229.3 314.25
Q 229.5 314.15 229.75 314.15
L 244.95 314.15
Q 245.65 314.15 246.1 314.3 246.55 314.4 246.75 314.8 247.05 315.15 247.1 315.75 247.2 316.35 247.2 317.2
L 247.2 329.55
Q 247.2 330.35 246.6 330.35
L 243.4 330.35
Q 242.7 330.35 242.7 329.55
L 242.7 319.35
Q 242.7 318.75 242.25 318.75
L 229.75 318.75
Q 229.5 318.75 229.3 318.65 229.1 318.5 229.1 318.1
L 229.1 314.9
Q 229.1 314.35 229.3 314.25
M 564.55 321.45
Q 564.55 312.85 558.5 306.75 552.4 300.65 543.8 300.65 535.15 300.65 529.1 306.75 523 312.85 523 321.45 523 330.05 529.1 336.15 535.15 342.25 543.8 342.25 552.4 342.25 558.5 336.15 564.55 330.05 564.55 321.45
M 534.9 314.8
Q 534.9 313.95 535.55 313.95
L 538.7 313.95
Q 539.4 313.95 539.4 314.8
L 539.4 324.7
Q 539.4 325.3 539.85 325.3
L 552.4 325.3
Q 552.65 325.3 552.9 325.45 553.1 325.6 553.1 326.05
L 553.1 329.2
Q 553.1 329.8 552.9 329.85 552.65 329.95 552.4 329.95
L 537.1 329.95
Q 536.45 329.95 536 329.8 535.55 329.65 535.35 329.35 535.1 329 535 328.45 534.9 327.85 534.9 327
L 534.9 314.8
M 864.4 336.6
Q 870.45 330.5 870.45 321.9 870.45 313.3 864.4 307.2 858.3 301.1 849.7 301.1 841.05 301.1 835 307.2 828.9 313.3 828.9 321.9 828.9 330.5 835 336.6 841.05 342.7 849.7 342.7 858.3 342.7 864.4 336.6
M 857.85 314.25
Q 858.5 314.25 858.5 315.05
L 858.5 318.1
Q 858.5 318.9 857.85 318.9
L 845.6 318.9
Q 845.25 318.9 845.25 319.3
L 845.25 325.25
Q 845.25 325.75 845.55 325.75
L 858.3 325.75
Q 859.05 325.75 859.05 326.5
L 859.05 329.55
Q 859.05 330.1 858.9 330.25 858.8 330.4 858.45 330.4
L 843.15 330.4
Q 841.7 330.4 841.2 329.7 840.75 329.05 840.75 327.4
L 840.75 317
Q 840.75 315.25 841.3 314.75 841.85 314.25 843.15 314.25
L 857.85 314.25 Z"/>

<path fill="#1E1E1E" stroke="none" d="
M 1065.7 628.95
L 1068.45 621.75
Q 1068.5 621.55 1068.45 621.25 1068.45 621 1067.95 621
L 1064.05 621
Q 1063.6 621 1063.45 621.2 1063.3 621.45 1063.2 621.65
L 1061.25 628.95
Q 1061.15 629.15 1061.3 629.3 1061.4 629.45 1061.6 629.45
L 1064.8 629.45
Q 1065.05 629.45 1065.35 629.35 1065.55 629.25 1065.7 628.95
M 921.9 628.95
L 924.65 621.75
Q 924.7 621.55 924.65 621.25 924.65 621 924.15 621
L 920.25 621
Q 919.8 621 919.65 621.2 919.5 621.45 919.4 621.65
L 917.45 628.95
Q 917.35 629.15 917.5 629.3 917.6 629.45 917.8 629.45
L 921 629.45
Q 921.25 629.45 921.55 629.35 921.75 629.25 921.9 628.95
M 229.75 314.15
Q 229.5 314.15 229.3 314.25 229.1 314.35 229.1 314.9
L 229.1 318.1
Q 229.1 318.5 229.3 318.65 229.5 318.75 229.75 318.75
L 242.25 318.75
Q 242.7 318.75 242.7 319.35
L 242.7 329.55
Q 242.7 330.35 243.4 330.35
L 246.6 330.35
Q 247.2 330.35 247.2 329.55
L 247.2 317.2
Q 247.2 316.35 247.1 315.75 247.05 315.15 246.75 314.8 246.55 314.4 246.1 314.3 245.65 314.15 244.95 314.15
L 229.75 314.15
M 535.55 313.95
Q 534.9 313.95 534.9 314.8
L 534.9 327
Q 534.9 327.85 535 328.45 535.1 329 535.35 329.35 535.55 329.65 536 329.8 536.45 329.95 537.1 329.95
L 552.4 329.95
Q 552.65 329.95 552.9 329.85 553.1 329.8 553.1 329.2
L 553.1 326.05
Q 553.1 325.6 552.9 325.45 552.65 325.3 552.4 325.3
L 539.85 325.3
Q 539.4 325.3 539.4 324.7
L 539.4 314.8
Q 539.4 313.95 538.7 313.95
L 535.55 313.95
M 858.5 315.05
Q 858.5 314.25 857.85 314.25
L 843.15 314.25
Q 841.85 314.25 841.3 314.75 840.75 315.25 840.75 317
L 840.75 327.4
Q 840.75 329.05 841.2 329.7 841.7 330.4 843.15 330.4
L 858.45 330.4
Q 858.8 330.4 858.9 330.25 859.05 330.1 859.05 329.55
L 859.05 326.5
Q 859.05 325.75 858.3 325.75
L 845.55 325.75
Q 845.25 325.75 845.25 325.25
L 845.25 319.3
Q 845.25 318.9 845.6 318.9
L 857.85 318.9
Q 858.5 318.9 858.5 318.1
L 858.5 315.05
M 411.05 449.05
Q 410.65 449.25 410.4 449.6 409.85 450.35 409.85 451.3 408.85 450.3 407.55 449.75 406.2 449.25 404.6 449.25 403.8 449.25 403.05 449.4 402.3 449.55 401.6 449.9 400.9 450.25 400.25 450.7 399.65 451.15 399.15 451.75 398.55 452.3 398.05 453 397.6 453.7 397.3 454.45 397 455.3 396.85 456.2 396.7 457.05 396.7 458 396.7 459 396.8 459.9 396.95 460.8 397.25 461.6 397.75 463.3 398.9 464.45 399.4 465.05 400.05 465.5 400.65 466 401.4 466.3 402.1 466.65 402.9 466.8 403.7 466.95 404.6 466.95 405.45 466.95 406.2 466.85 406.95 466.7 407.65 466.35 408.3 466.1 408.85 465.7 409.4 465.3 409.85 464.85
L 409.85 466.4
Q 409.85 467.3 409.55 468 409.25 468.7 408.7 469.15 408.1 469.65 407.3 469.9 406.5 470.1 405.55 470.1 405.25 470.1 404.95 470.05 404.6 470 404.25 469.95 403.9 469.85 403.6 469.75 403.3 469.65 403.05 469.55 402.4 469.3 402.15 469.05 402 468.9 401.9 468.75 401.85 468.6 401.85 468.45 401.7 468.2 401.45 467.95 401.25 467.75 401 467.65 400.7 467.55 400.4 467.45 400.1 467.4 399.85 467.4 399.6 467.4 399.45 467.45 399.25 467.5 399.15 467.55 399 467.55 398.9 467.6 398.75 467.6 398.65 467.7 398.55 467.8 398.45 467.95 398.35 468.05 398.25 468.2 398.15 468.35 398.1 468.5 398.05 468.6 398.05 468.75 398 468.9 398 469.05 397.95 469.15 397.95 469.25 397.95 469.5 398 469.7 398.05 469.9 398.15 470.1 398.6 470.85 399.3 471.6 399.6 471.9 400 472.2 400.35 472.5 400.75 472.75 401.3 473.05 401.8 473.25 402.35 473.45 402.95 473.6 404.1 473.95 405.55 473.95 406.3 473.9 407 473.8 407.75 473.7 408.45 473.5 409.15 473.25 409.85 472.95 410.55 472.6 411.25 472.2 412 471.75 412.5 471.1 413.05 470.5 413.4 469.75 413.7 469 413.85 468.05 414 467.1 414 466 414 464.1 414 462.15 413.95 460.2 413.95 458.25 413.95 456.35 413.95 454.4 413.9 452.45 413.9 450.45 413.7 449.8 413.2 449.35 412.9 449.1 412.65 449 412.35 448.85 412.05 448.85 411.45 448.85 411.05 449.05
M 405.35 452.85
Q 406.45 452.85 407.35 453.15 408.2 453.5 408.85 454.2 409.5 454.9 409.8 455.85 410.1 456.8 410.1 458 410.1 460.45 408.85 461.9 408.2 462.6 407.35 463 406.45 463.35 405.3 463.35 403.3 463.35 402.05 461.9 400.8 460.45 400.8 458 400.8 455.7 402.05 454.25 402.65 453.55 403.5 453.2 404.3 452.85 405.35 452.85
M 380.9 444.6
Q 380.9 444.15 380.7 443.75 380.55 443.4 380.25 443.15 379.9 442.95 379.55 442.85 379.2 442.75 378.85 442.75 378.4 442.75 378.05 442.85 377.7 442.95 377.4 443.15 377.1 443.4 376.95 443.75 376.8 444.15 376.8 444.6
L 376.8 466.7
Q 376.8 467.25 376.95 467.6 377.1 467.95 377.4 468.15 377.75 468.35 378.1 468.4 378.45 468.5 378.9 468.5 379.25 468.5 379.6 468.4 379.95 468.35 380.25 468.15 380.55 467.95 380.7 467.6 380.9 467.25 380.9 466.7
L 380.9 461.45
Q 381.05 461.2 381.25 461 381.5 460.85 381.7 460.65 381.85 460.55 382.05 460.35 382.25 460.2 382.45 460 383.15 461 383.85 462 384.55 463 385.3 463.9 385.95 464.85 386.65 465.85 387.35 466.8 388.1 467.8 388.2 467.9 388.3 468 388.4 468.05 388.5 468.15 388.6 468.25 388.65 468.35 388.75 468.45 388.85 468.5 389.05 468.65 389.25 468.7 389.35 468.8 389.45 468.8 389.6 468.85 389.75 468.85 390 468.85 390.35 468.7 390.65 468.55 391.05 468.25 391.35 468 391.55 467.65 391.75 467.3 391.75 466.85 391.75 466.75 391.7 466.6 391.7 466.45 391.65 466.3 391.6 466.2 391.5 466.05 391.45 465.9 391.35 465.75 389.75 463.7 388.3 461.3 387.55 460.2 386.8 459.05 386.05 457.95 385.25 456.9 385.8 456.35 386.35 455.8 386.9 455.25 387.45 454.7 387.95 454.2 388.55 453.65 389.1 453.1 389.75 452.55 390 452.25 390.15 451.85 390.3 451.45 390.3 451.05 390.3 450.85 390.25 450.65 390.2 450.45 390.1 450.25 389.9 449.95 389.7 449.65 389.55 449.5 389.35 449.4 389.15 449.3 388.95 449.2 388.75 449.1 388.55 449.05 388.4 449 388.3 449 388 449 387.65 449.2 387.35 449.35 386.95 449.65 386.2 450.5 385.45 451.3 384.7 452.05 384 452.8 383.3 453.55 382.5 454.35 381.7 455.1 380.9 455.9
L 380.9 444.6
M 347.95 444
Q 347.3 444.4 346.8 444.95 345.85 446 345.3 447.25 345.05 447.9 344.9 448.55 344.75 449.15 344.75 449.8 344.75 450.15 344.9 450.45 345.05 450.75 345.3 450.95 345.6 451.15 345.9 451.3 346.15 451.4 346.5 451.4 346.95 451.4 347.35 451.2 347.8 451.05 348.15 450.75 348.45 450.4 348.65 450 348.8 449.6 348.8 449.1 348.8 448.95 348.9 448.75 348.95 448.5 349.15 448.25 349.25 448 349.4 447.75 349.6 447.55 349.8 447.35 350.1 447.15 350.4 447 350.7 446.8 351.05 446.65 351.4 446.55 351.7 446.5 352 446.4 352.35 446.4 352.85 446.4 353.25 446.5 353.7 446.6 354.05 446.75 354.4 446.9 354.7 447.15 355 447.35 355.25 447.6 355.45 447.85 355.6 448.2 355.8 448.5 355.95 448.8 356.1 449.15 356.2 449.45 356.25 449.8 356.25 450.1 356.25 450.4 356.2 450.7 356.15 451 356 451.35 355.85 451.65 355.65 451.95 355.5 452.25 355.35 452.55 355.15 452.9 355 453.15 354.8 453.45 354.5 453.65 354.25 453.9 354 454.1 353.75 454.3 353.6 454.4 353.15 454.75 352.7 455.1 352.2 455.45 351.75 455.8 351.3 456.15 350.85 456.5 350.4 456.85 349.95 457.15 349.3 457.7 348.8 458.15 348.25 458.6 347.75 459 347.3 459.45 346.95 459.9 346.6 460.35 346.35 460.8 345.95 461.2 345.7 461.7 345.5 462.15 345.3 462.6 345.15 463.15 345.05 463.75 344.9 464.3 344.85 464.95 344.85 465 344.85 465.1 344.8 465.2 344.8 465.3 344.75 465.4 344.75 465.55 344.7 465.65 344.75 465.7
L 344.75 465.85
Q 344.7 465.95 344.7 466.1 344.7 466.2 344.7 466.3 344.7 466.85 344.85 467.2 345 467.55 345.4 467.75 345.7 468 346.1 468.1 346.5 468.25 346.95 468.25
L 358.55 468.25
Q 360.65 468.25 360.65 466.35 360.65 465.85 360.5 465.5 360.35 465.15 360.1 464.95 359.8 464.8 359.35 464.7 358.9 464.6 358.35 464.6
L 349.35 464.6
Q 349.35 464.1 349.5 463.55 349.65 463.05 350 462.55 350.3 462.1 350.75 461.65 351.15 461.2 351.65 460.8 352.1 460.45 352.55 460.1 353.05 459.7 353.6 459.4 354.1 459.05 354.55 458.75 355 458.45 355.3 458.2 355.8 457.85 356.3 457.5 356.8 457.1 357.25 456.7 357.65 456.25 358.05 455.8 358.4 455.35 358.7 454.85 359.05 454.4 359.35 453.85 359.6 453.35 359.75 452.75 359.9 452.15 360 451.45 360.1 450.8 360.1 450.05 360.1 449.35 359.95 448.7 359.8 448 359.55 447.35 359.3 446.65 358.9 446.05 358.5 445.45 358.05 444.9 357.45 444.4 356.8 443.95 356.15 443.55 355.45 443.2 354.75 442.9 353.95 442.75 353.2 442.55 352.35 442.55
L 352.3 442.55
Q 351.45 442.55 350.7 442.7 349.95 442.9 349.3 443.2 348.55 443.55 347.95 444
M 336.8 444.45
Q 336.8 443.8 336.15 443.3 335.85 443.05 335.55 442.95 335.25 442.8 335 442.8 334.55 442.8 334.25 442.9 333.9 443 333.8 443.25 333.6 443.45 333.5 443.7 333.4 444 333.3 444.25 333.15 444.55 333.05 444.85 332.95 445.15 332.85 445.5 332.75 445.8 332.65 446.05 332.5 446.3 332.35 446.45 332.1 446.65 331.8 446.8 331.45 446.95 331.15 447 330.75 447.05 330.4 447.1 330 447.1 329.65 447.1 329.2 447.15 328.85 447.3 328.55 447.45 328.35 447.7 328.05 448 327.95 448.3 327.85 448.65 327.85 449 327.85 449.4 327.95 449.7 328.05 450 328.25 450.3 328.45 450.65 328.75 450.8 329.05 450.95 329.5 450.95
L 332.65 450.95
Q 332.65 452.9 332.65 454.8 332.65 456.75 332.65 458.65 332.65 462.5 332.65 466.4 332.65 466.8 332.85 467.05 333 467.35 333.35 467.6 333.65 467.85 334.05 468 334.4 468.15 334.85 468.15 334.95 468.15 335.15 468.1 335.3 468.05 335.45 467.95 335.55 467.9 335.75 467.85 335.9 467.75 336.05 467.65 336.25 467.55 336.4 467.35 336.55 467.2 336.65 467.05 336.75 466.9 336.8 466.75 336.85 466.6 336.85 466.4
L 336.85 464.95
Q 336.85 462.3 336.85 459.75 336.85 457.15 336.85 454.65 336.8 452.15 336.8 449.6 336.8 447.05 336.8 444.45
M 318.8 466.35
L 317.45 466.35
Q 316.9 466.35 316.55 466.45 316.15 466.55 315.95 466.75 315.75 466.95 315.6 467.3 315.5 467.7 315.5 468.2
L 315.5 469.7
Q 315.5 470.2 315.6 470.55 315.75 470.9 315.95 471.1 316.15 471.3 316.55 471.35 316.9 471.5 317.45 471.5
L 318.9 471.5
Q 319.8 471.5 320.3 471.05 320.75 470.6 320.75 469.7
L 320.75 468.2
Q 320.75 467.7 320.65 467.35 320.5 467.05 320.25 466.8 320 466.55 319.65 466.45 319.3 466.35 318.8 466.35
M 300.55 442.4
Q 299.45 442.45 298.5 442.7 297.55 442.95 296.75 443.4 295.95 443.9 295.25 444.55 294.55 445.25 294 446.05 293.45 446.9 293.1 447.95 292.7 449 292.4 450.2 292.1 451.4 292 452.75 291.85 454.1 291.85 455.55 291.85 456.95 291.95 458.3 292.1 459.6 292.35 460.8 292.6 461.95 292.95 463 293.4 464.1 293.95 464.95 294.55 465.85 295.25 466.5 295.95 467.2 296.7 467.65 297.5 468.15 298.45 468.4 299.4 468.65 300.55 468.65 301.55 468.65 302.45 468.4 303.35 468.15 304.2 467.65 305 467.2 305.7 466.5 306.4 465.85 306.95 464.95 307.55 464.1 308 463 308.45 461.95 308.75 460.8 309 459.6 309.15 458.3 309.3 456.95 309.3 455.55 309.3 454.15 309.15 452.85 309 451.5 308.75 450.3 308.4 449.1 307.95 448.05 307.5 447.05 306.9 446.15 306.3 445.3 305.65 444.65 304.95 443.95 304.15 443.45 303.35 442.95 302.45 442.7 301.55 442.4 300.55 442.4
M 303.9 449.1
Q 304.1 449.75 304.3 450.45 304.5 451.15 304.7 452 304.85 452.85 304.95 453.7 305.05 454.6 305.05 455.55 305.05 456.5 304.95 457.4 304.9 458.3 304.75 459.1 304.35 460.8 303.9 462 303.65 462.65 303.25 463.15 302.9 463.65 302.45 464 302 464.4 301.5 464.55 301.05 464.75 300.55 464.75 299.95 464.75 299.45 464.55 298.95 464.4 298.55 464 297.7 463.25 297.1 462 296.8 461.35 296.65 460.6 296.45 459.85 296.35 459 296.2 458.2 296.1 457.35 296.05 456.45 296.05 455.55 296.05 454.6 296.1 453.7 296.2 452.8 296.35 451.95 296.45 451.15 296.65 450.4 296.85 449.65 297.1 449.05 297.4 448.45 297.8 447.95 298.2 447.5 298.6 447.1 299 446.8 299.5 446.65 300 446.45 300.55 446.45 301 446.45 301.5 446.65 301.95 446.8 302.45 447.15 302.85 447.5 303.25 448 303.6 448.5 303.9 449.1
M 683.1 454.45
Q 682.8 455.3 682.65 456.2 682.5 457.05 682.5 458 682.5 459 682.6 459.9 682.75 460.8 683.05 461.6 683.55 463.3 684.7 464.45 685.2 465.05 685.85 465.5 686.45 466 687.2 466.3 687.9 466.65 688.7 466.8 689.5 466.95 690.4 466.95 691.25 466.95 692 466.85 692.75 466.7 693.45 466.35 694.1 466.1 694.65 465.7 695.2 465.3 695.65 464.85
L 695.65 466.4
Q 695.65 467.3 695.35 468 695.05 468.7 694.5 469.15 693.9 469.65 693.1 469.9 692.3 470.1 691.35 470.1 691.05 470.1 690.75 470.05 690.4 470 690.05 469.95 689.7 469.85 689.4 469.75 689.1 469.65 688.85 469.55 688.2 469.3 687.95 469.05 687.8 468.9 687.7 468.75 687.65 468.6 687.65 468.45 687.5 468.2 687.25 467.95 687.05 467.75 686.8 467.65 686.5 467.55 686.2 467.45 685.9 467.4 685.65 467.4 685.4 467.4 685.25 467.45 685.05 467.5 684.95 467.55 684.8 467.55 684.7 467.6 684.55 467.6 684.45 467.7 684.35 467.8 684.25 467.95 684.15 468.05 684.05 468.2 683.95 468.35 683.9 468.5 683.85 468.6 683.85 468.75 683.8 468.9 683.8 469.05 683.75 469.15 683.75 469.25 683.75 469.5 683.8 469.7 683.85 469.9 683.95 470.1 684.4 470.85 685.1 471.6 685.4 471.9 685.8 472.2 686.15 472.5 686.55 472.75 687.1 473.05 687.6 473.25 688.15 473.45 688.75 473.6 689.9 473.95 691.35 473.95 692.1 473.9 692.8 473.8 693.55 473.7 694.25 473.5 694.95 473.25 695.65 472.95 696.35 472.6 697.05 472.2 697.8 471.75 698.3 471.1 698.85 470.5 699.2 469.75 699.5 469 699.65 468.05 699.8 467.1 699.8 466 699.8 464.1 699.8 462.15 699.75 460.2 699.75 458.25 699.75 456.35 699.75 454.4 699.7 452.45 699.7 450.45 699.5 449.8 699 449.35 698.7 449.1 698.45 449 698.15 448.85 697.85 448.85 697.25 448.85 696.85 449.05 696.45 449.25 696.2 449.6 695.65 450.35 695.65 451.3 694.65 450.3 693.35 449.75 692 449.25 690.4 449.25 689.6 449.25 688.85 449.4 688.1 449.55 687.4 449.9 686.7 450.25 686.05 450.7 685.45 451.15 684.95 451.75 684.35 452.3 683.85 453 683.4 453.7 683.1 454.45
M 687.85 461.9
Q 686.6 460.45 686.6 458 686.6 455.7 687.85 454.25 688.45 453.55 689.3 453.2 690.1 452.85 691.15 452.85 692.25 452.85 693.15 453.15 694 453.5 694.65 454.2 695.3 454.9 695.6 455.85 695.9 456.8 695.9 458 695.9 460.45 694.65 461.9 694 462.6 693.15 463 692.25 463.35 691.1 463.35 689.1 463.35 687.85 461.9
M 663.85 444.4
Q 663.15 443.75 662.3 443.25 661.45 442.75 660.4 442.55 659.4 442.3 658.15 442.3 657.3 442.3 656.45 442.45 655.65 442.65 654.9 443 654.1 443.35 653.45 443.85 652.8 444.35 652.3 444.95 651.7 445.6 651.25 446.3 650.8 447.05 650.5 447.85 650.2 448.7 650.05 449.55 649.9 450.4 649.9 451.35 649.9 452.25 650.05 453.05 650.2 453.9 650.5 454.65 650.75 455.45 651.2 456.1 651.6 456.75 652.15 457.3 652.6 457.9 653.2 458.35 653.75 458.8 654.45 459.1 655.05 459.5 655.75 459.65 656.45 459.8 657.2 459.8 657.35 459.8 657.5 459.8 657.65 459.8 657.8 459.8 657.9 459.8 658 459.8 658.05 459.8 658.15 459.75 659 459.75 659.75 459.55 660.5 459.4 661.15 459.05 661.75 458.75 662.2 458.45 662.65 458.1 662.95 457.7 662.95 458.2 662.9 458.75 662.85 459.3 662.75 459.95 662.65 460.6 662.5 461.2 662.3 461.85 662.1 462.4 661.75 463 661.35 463.5 660.95 463.95 660.5 464.4 660.05 464.8 659.4 465 658.8 465.2 658.05 465.2 657.35 465.2 656.75 465.05 656.2 464.9 655.8 464.55 655.35 464.25 655 463.85 654.65 463.5 654.4 463 654.05 462.4 653.75 461.75 653.55 461.5 653.25 461.35 652.9 461.2 652.45 461.2 651.8 461.2 651.15 461.6 650.8 461.8 650.65 462.15 650.45 462.45 650.45 462.85 650.45 463.15 650.5 463.35 650.55 463.6 650.65 463.85 650.7 464.1 650.8 464.4 650.9 464.65 651.05 464.95 651.15 465.2 651.35 465.45 651.5 465.7 651.75 465.9 651.95 466.2 652.1 466.4 652.25 466.6 652.45 466.85 653 467.4 653.65 467.8 654.3 468.25 655.05 468.5 655.7 468.8 656.45 468.95 657.2 469.05 658.05 469.05 659.1 469.05 660.05 468.85 661.05 468.6 661.95 468.1 662.85 467.6 663.6 466.95 664.35 466.25 664.95 465.35 665.5 464.45 665.95 463.4 666.35 462.3 666.7 461.05 667 459.8 667.15 458.4 667.3 457 667.3 455.45 667.3 454 667.2 452.65 667.05 451.3 666.8 450.1 666.55 448.9 666.15 447.85 665.7 446.85 665.2 445.95 664.55 445.1 663.85 444.4
M 658.25 446.2
Q 660.35 446.2 661.55 447.55 662.1 448.25 662.35 449.15 662.65 450.05 662.65 451.15 662.65 452.25 662.35 453.15 662.1 454.05 661.55 454.7 660.35 456.1 658.25 456.1 657.35 456.1 656.55 455.75 655.8 455.45 655.2 454.75 654.55 454.1 654.25 453.2 653.95 452.3 653.95 451.15 653.95 448.95 655.25 447.55 656.45 446.2 658.25 446.2
M 637.5 442.55
L 637.45 442.55
Q 636.6 442.55 635.85 442.7 635.1 442.9 634.45 443.2 633.7 443.55 633.1 444 632.45 444.4 631.95 444.95 631 446 630.45 447.25 630.2 447.9 630.05 448.55 629.9 449.15 629.9 449.8 629.9 450.15 630.05 450.45 630.2 450.75 630.45 450.95 630.75 451.15 631.05 451.3 631.3 451.4 631.65 451.4 632.1 451.4 632.5 451.2 632.95 451.05 633.3 450.75 633.6 450.4 633.8 450 633.95 449.6 633.95 449.1 633.95 448.95 634.05 448.75 634.1 448.5 634.3 448.25 634.4 448 634.55 447.75 634.75 447.55 634.95 447.35 635.25 447.15 635.55 447 635.85 446.8 636.2 446.65 636.55 446.55 636.85 446.5 637.15 446.4 637.5 446.4 638 446.4 638.4 446.5 638.85 446.6 639.2 446.75 639.55 446.9 639.85 447.15 640.15 447.35 640.4 447.6 640.6 447.85 640.75 448.2 640.95 448.5 641.1 448.8 641.25 449.15 641.35 449.45 641.4 449.8 641.4 450.1 641.4 450.4 641.35 450.7 641.3 451 641.15 451.35 641 451.65 640.8 451.95 640.65 452.25 640.5 452.55 640.3 452.9 640.15 453.15 639.95 453.45 639.65 453.65 639.4 453.9 639.15 454.1 638.9 454.3 638.75 454.4 638.3 454.75 637.85 455.1 637.35 455.45 636.9 455.8 636.45 456.15 636 456.5 635.55 456.85 635.1 457.15 634.45 457.7 633.95 458.15 633.4 458.6 632.9 459 632.45 459.45 632.1 459.9 631.75 460.35 631.5 460.8 631.1 461.2 630.85 461.7 630.65 462.15 630.45 462.6 630.3 463.15 630.2 463.75 630.05 464.3 630 464.95 630 465 630 465.1 629.95 465.2 629.95 465.3 629.9 465.4 629.9 465.55 629.85 465.65 629.9 465.7
L 629.9 465.85
Q 629.85 465.95 629.85 466.1 629.85 466.2 629.85 466.3 629.85 466.85 630 467.2 630.15 467.55 630.55 467.75 630.85 468 631.25 468.1 631.65 468.25 632.1 468.25
L 643.7 468.25
Q 645.8 468.25 645.8 466.35 645.8 465.85 645.65 465.5 645.5 465.15 645.25 464.95 644.95 464.8 644.5 464.7 644.05 464.6 643.5 464.6
L 634.5 464.6
Q 634.5 464.1 634.65 463.55 634.8 463.05 635.15 462.55 635.45 462.1 635.9 461.65 636.3 461.2 636.8 460.8 637.25 460.45 637.7 460.1 638.2 459.7 638.75 459.4 639.25 459.05 639.7 458.75 640.15 458.45 640.45 458.2 640.95 457.85 641.45 457.5 641.95 457.1 642.4 456.7 642.8 456.25 643.2 455.8 643.55 455.35 643.85 454.85 644.2 454.4 644.5 453.85 644.75 453.35 644.9 452.75 645.05 452.15 645.15 451.45 645.25 450.8 645.25 450.05 645.25 449.35 645.1 448.7 644.95 448 644.7 447.35 644.45 446.65 644.05 446.05 643.65 445.45 643.2 444.9 642.6 444.4 641.95 443.95 641.3 443.55 640.6 443.2 639.9 442.9 639.1 442.75 638.35 442.55 637.5 442.55
M 1037.9 449.35
Q 1037.6 449.1 1037.35 449 1037.05 448.85 1036.75 448.85 1036.15 448.85 1035.75 449.05 1035.35 449.25 1035.1 449.6 1034.55 450.35 1034.55 451.3 1033.55 450.3 1032.25 449.75 1030.9 449.25 1029.3 449.25 1028.5 449.25 1027.75 449.4 1027 449.55 1026.3 449.9 1025.6 450.25 1024.95 450.7 1024.35 451.15 1023.85 451.75 1023.25 452.3 1022.75 453 1022.3 453.7 1022 454.45 1021.7 455.3 1021.55 456.2 1021.4 457.05 1021.4 458 1021.4 459 1021.5 459.9 1021.65 460.8 1021.95 461.6 1022.45 463.3 1023.6 464.45 1024.1 465.05 1024.75 465.5 1025.35 466 1026.1 466.3 1026.8 466.65 1027.6 466.8 1028.4 466.95 1029.3 466.95 1030.15 466.95 1030.9 466.85 1031.65 466.7 1032.35 466.35 1033 466.1 1033.55 465.7 1034.1 465.3 1034.55 464.85
L 1034.55 466.4
Q 1034.55 467.3 1034.25 468 1033.95 468.7 1033.4 469.15 1032.8 469.65 1032 469.9 1031.2 470.1 1030.25 470.1 1029.95 470.1 1029.65 470.05 1029.3 470 1028.95 469.95 1028.6 469.85 1028.3 469.75 1028 469.65 1027.75 469.55 1027.1 469.3 1026.85 469.05 1026.7 468.9 1026.6 468.75 1026.55 468.6 1026.55 468.45 1026.4 468.2 1026.15 467.95 1025.95 467.75 1025.7 467.65 1025.4 467.55 1025.1 467.45 1024.8 467.4 1024.55 467.4 1024.3 467.4 1024.15 467.45 1023.95 467.5 1023.85 467.55 1023.7 467.55 1023.6 467.6 1023.45 467.6 1023.35 467.7 1023.25 467.8 1023.15 467.95 1023.05 468.05 1022.95 468.2 1022.85 468.35 1022.8 468.5 1022.75 468.6 1022.75 468.75 1022.7 468.9 1022.7 469.05 1022.65 469.15 1022.65 469.25 1022.65 469.5 1022.7 469.7 1022.75 469.9 1022.85 470.1 1023.3 470.85 1024 471.6 1024.3 471.9 1024.7 472.2 1025.05 472.5 1025.45 472.75 1026 473.05 1026.5 473.25 1027.05 473.45 1027.65 473.6 1028.8 473.95 1030.25 473.95 1031 473.9 1031.7 473.8 1032.45 473.7 1033.15 473.5 1033.85 473.25 1034.55 472.95 1035.25 472.6 1035.95 472.2 1036.7 471.75 1037.2 471.1 1037.75 470.5 1038.1 469.75 1038.4 469 1038.55 468.05 1038.7 467.1 1038.7 466 1038.7 464.1 1038.7 462.15 1038.65 460.2 1038.65 458.25 1038.65 456.35 1038.65 454.4 1038.6 452.45 1038.6 450.45 1038.4 449.8 1037.9 449.35
M 1033.55 454.2
Q 1034.2 454.9 1034.5 455.85 1034.8 456.8 1034.8 458 1034.8 460.45 1033.55 461.9 1032.9 462.6 1032.05 463 1031.15 463.35 1030 463.35 1028 463.35 1026.75 461.9 1025.5 460.45 1025.5 458 1025.5 455.7 1026.75 454.25 1027.35 453.55 1028.2 453.2 1029 452.85 1030.05 452.85 1031.15 452.85 1032.05 453.15 1032.9 453.5 1033.55 454.2
M 1005.6 444.6
Q 1005.6 444.15 1005.4 443.75 1005.25 443.4 1004.95 443.15 1004.6 442.95 1004.25 442.85 1003.9 442.75 1003.55 442.75 1003.1 442.75 1002.75 442.85 1002.4 442.95 1002.1 443.15 1001.8 443.4 1001.65 443.75 1001.5 444.15 1001.5 444.6
L 1001.5 466.7
Q 1001.5 467.25 1001.65 467.6 1001.8 467.95 1002.1 468.15 1002.45 468.35 1002.8 468.4 1003.15 468.5 1003.6 468.5 1003.95 468.5 1004.3 468.4 1004.65 468.35 1004.95 468.15 1005.25 467.95 1005.4 467.6 1005.6 467.25 1005.6 466.7
L 1005.6 461.45
Q 1005.75 461.2 1005.95 461 1006.2 460.85 1006.4 460.65 1006.55 460.55 1006.75 460.35 1006.95 460.2 1007.15 460 1007.85 461 1008.55 462 1009.25 463 1010 463.9 1010.65 464.85 1011.35 465.85 1012.05 466.8 1012.8 467.8 1012.9 467.9 1013 468 1013.1 468.05 1013.2 468.15 1013.3 468.25 1013.35 468.35 1013.45 468.45 1013.55 468.5 1013.75 468.65 1013.95 468.7 1014.05 468.8 1014.15 468.8 1014.3 468.85 1014.45 468.85 1014.7 468.85 1015.05 468.7 1015.35 468.55 1015.75 468.25 1016.05 468 1016.25 467.65 1016.45 467.3 1016.45 466.85 1016.45 466.75 1016.4 466.6 1016.4 466.45 1016.35 466.3 1016.3 466.2 1016.2 466.05 1016.15 465.9 1016.05 465.75 1014.45 463.7 1013 461.3 1012.25 460.2 1011.5 459.05 1010.75 457.95 1009.95 456.9 1010.5 456.35 1011.05 455.8 1011.6 455.25 1012.15 454.7 1012.65 454.2 1013.25 453.65 1013.8 453.1 1014.45 452.55 1014.7 452.25 1014.85 451.85 1015 451.45 1015 451.05 1015 450.85 1014.95 450.65 1014.9 450.45 1014.8 450.25 1014.6 449.95 1014.4 449.65 1014.25 449.5 1014.05 449.4 1013.85 449.3 1013.65 449.2 1013.45 449.1 1013.25 449.05 1013.1 449 1013 449 1012.7 449 1012.35 449.2 1012.05 449.35 1011.65 449.65 1010.9 450.5 1010.15 451.3 1009.4 452.05 1008.7 452.8 1008 453.55 1007.2 454.35 1006.4 455.1 1005.6 455.9
L 1005.6 444.6
M 970.15 446.7
Q 969.95 448.4 969.7 450.05 969.45 451.75 969.25 453.45 969 455.15 968.85 456.8 968.85 456.85 968.85 456.9
L 968.9 456.9 968.9 457
Q 968.9 457.15 969.05 457.35 969.2 457.5 969.55 457.6 969.85 457.75 970.15 457.8 970.5 457.85 970.8 457.85 971.2 457.85 971.5 457.85 971.75 457.8 971.95 457.7 972.1 457.65 972.25 457.6 972.4 457.5 972.55 457.4 972.7 457.25 972.8 457.15 972.9 457.05 973.05 456.9 973.1 456.8 973.2 456.7 973.3 456.6 973.4 456.5 973.8 455.8 974.75 455.45 975.65 455.15 976.65 455.15 978.35 455.15 979.55 456.4 980.15 457.05 980.45 457.85 980.75 458.7 980.75 459.7 980.75 460.3 980.7 460.8 980.65 461.3 980.5 461.8 980.4 462.3 980.15 462.7 979.95 463.1 979.6 463.45 979.4 463.85 979.05 464.15 978.75 464.4 978.4 464.6 977.95 464.85 977.5 464.95 977 465.05 976.45 465.05 976.1 465.05 975.75 465 975.45 464.95 975.1 464.8 974.8 464.7 974.45 464.5 974.15 464.35 973.9 464.15 973.6 463.9 973.4 463.7 973.25 463.45 973.05 463.2 972.9 462.95 972.75 462.65 972.6 462.4 972.5 462.1 972.35 461.95 972.3 461.85 972.25 461.7 972.25 461.6
L 972.2 461.6 972.2 461.55
Q 972.1 461.25 972 461.05 971.85 460.85 971.65 460.7 971.4 460.6 971.15 460.5 970.85 460.45 970.5 460.45 970.05 460.45 969.65 460.55 969.3 460.7 969 460.9 968.7 461.15 968.55 461.45 968.4 461.75 968.4 462.15 968.4 462.2 968.4 462.35 968.4 462.45 968.5 462.6 968.5 462.75 968.5 462.9 968.55 463.05 968.65 463.25 968.75 463.5 968.85 463.75 968.95 464 969.05 464.25 969.2 464.6 969.4 464.9 969.55 465.15 969.8 465.45 970 465.75 970.25 466.05 970.45 466.3 970.65 466.6 971.75 467.8 973.25 468.4 974.7 469.05 976.45 469.05 977.25 469.05 978 468.9 978.75 468.75 979.5 468.45 980.95 467.85 982.25 466.65 982.85 466.1 983.4 465.4 983.9 464.75 984.25 463.9 984.65 463.05 984.8 462.15 985 461.2 985.05 460.15 985.05 459.05 984.85 458.1 984.7 457.15 984.35 456.3 984 455.55 983.5 454.85 983 454.2 982.45 453.65 981.4 452.55 980.15 452.05 979.45 451.8 978.8 451.7 978.2 451.55 977.6 451.55 976.85 451.55 976.2 451.65 975.6 451.7 975.05 451.85 974.5 452 974.1 452.2 973.65 452.4 973.4 452.6 973.5 451.25 973.7 450 973.8 449.4 973.9 448.75 974.05 448.1 974.2 447.35 975.25 447.35 976.3 447.35 977.35 447.35 978.4 447.35 980.5 447.35 982.45 447.35 983.4 447.35 983.75 446.7 983.9 446.4 984 446.05 984.1 445.7 984.1 445.25 984.1 444.35 983.6 443.9 983.15 443.4 982.25 443.3
L 970.6 443.3
Q 970.35 445 970.15 446.7
M 960.8 444.45
Q 960.8 443.8 960.15 443.3 959.85 443.05 959.55 442.95 959.25 442.8 959 442.8 958.55 442.8 958.25 442.9 957.9 443 957.8 443.25 957.6 443.45 957.5 443.7 957.4 444 957.3 444.25 957.15 444.55 957.05 444.85 956.95 445.15 956.85 445.5 956.75 445.8 956.65 446.05 956.5 446.3 956.35 446.45 956.1 446.65 955.8 446.8 955.45 446.95 955.15 447 954.75 447.05 954.4 447.1 954 447.1 953.65 447.1 953.2 447.15 952.85 447.3 952.55 447.45 952.35 447.7 952.05 448 951.95 448.3 951.85 448.65 951.85 449 951.85 449.4 951.95 449.7 952.05 450 952.25 450.3 952.45 450.65 952.75 450.8 953.05 450.95 953.5 450.95
L 956.65 450.95
Q 956.65 452.9 956.65 454.8 956.65 456.75 956.65 458.65 956.65 462.5 956.65 466.4 956.65 466.8 956.85 467.05 957 467.35 957.35 467.6 957.65 467.85 958.05 468 958.4 468.15 958.85 468.15 958.95 468.15 959.15 468.1 959.3 468.05 959.45 467.95 959.55 467.9 959.75 467.85 959.9 467.75 960.05 467.65 960.25 467.55 960.4 467.35 960.55 467.2 960.65 467.05 960.75 466.9 960.8 466.75 960.85 466.6 960.85 466.4
L 960.85 464.95
Q 960.85 462.3 960.85 459.75 960.85 457.15 960.85 454.65 960.8 452.15 960.8 449.6 960.8 447.05 960.8 444.45
M 943.95 444.45
Q 943.95 443.8 943.3 443.3 943 443.05 942.7 442.95 942.4 442.8 942.15 442.8 941.7 442.8 941.4 442.9 941.05 443 940.95 443.25 940.75 443.45 940.65 443.7 940.55 444 940.45 444.25 940.3 444.55 940.2 444.85 940.1 445.15 940 445.5 939.9 445.8 939.8 446.05 939.65 446.3 939.5 446.45 939.25 446.65 938.95 446.8 938.6 446.95 938.3 447 937.9 447.05 937.55 447.1 937.15 447.1 936.8 447.1 936.35 447.15 936 447.3 935.7 447.45 935.5 447.7 935.2 448 935.1 448.3 935 448.65 935 449 935 449.4 935.1 449.7 935.2 450 935.4 450.3 935.6 450.65 935.9 450.8 936.2 450.95 936.65 450.95
L 939.8 450.95
Q 939.8 452.9 939.8 454.8 939.8 456.75 939.8 458.65 939.8 462.5 939.8 466.4 939.8 466.8 940 467.05 940.15 467.35 940.5 467.6 940.8 467.85 941.2 468 941.55 468.15 942 468.15 942.1 468.15 942.3 468.1 942.45 468.05 942.6 467.95 942.7 467.9 942.9 467.85 943.05 467.75 943.2 467.65 943.4 467.55 943.55 467.35 943.7 467.2 943.8 467.05 943.9 466.9 943.95 466.75 944 466.6 944 466.4
L 944 464.95
Q 944 462.3 944 459.75 944 457.15 944 454.65 943.95 452.15 943.95 449.6 943.95 447.05 943.95 444.45
M 925.95 466.35
L 924.6 466.35
Q 924.05 466.35 923.7 466.45 923.3 466.55 923.1 466.75 922.9 466.95 922.75 467.3 922.65 467.7 922.65 468.2
L 922.65 469.7
Q 922.65 470.2 922.75 470.55 922.9 470.9 923.1 471.1 923.3 471.3 923.7 471.35 924.05 471.5 924.6 471.5
L 926.05 471.5
Q 926.95 471.5 927.45 471.05 927.9 470.6 927.9 469.7
L 927.9 468.2
Q 927.9 467.7 927.8 467.35 927.65 467.05 927.4 466.8 927.15 466.55 926.8 466.45 926.45 466.35 925.95 466.35
M 907.7 442.4
Q 906.6 442.45 905.65 442.7 904.7 442.95 903.9 443.4 903.1 443.9 902.4 444.55 901.7 445.25 901.15 446.05 900.6 446.9 900.25 447.95 899.85 449 899.55 450.2 899.25 451.4 899.15 452.75 899 454.1 899 455.55 899 456.95 899.1 458.3 899.25 459.6 899.5 460.8 899.75 461.95 900.1 463 900.55 464.1 901.1 464.95 901.7 465.85 902.4 466.5 903.1 467.2 903.85 467.65 904.65 468.15 905.6 468.4 906.55 468.65 907.7 468.65 908.7 468.65 909.6 468.4 910.5 468.15 911.35 467.65 912.15 467.2 912.85 466.5 913.55 465.85 914.1 464.95 914.7 464.1 915.15 463 915.6 461.95 915.9 460.8 916.15 459.6 916.3 458.3 916.45 456.95 916.45 455.55 916.45 454.15 916.3 452.85 916.15 451.5 915.9 450.3 915.55 449.1 915.1 448.05 914.65 447.05 914.05 446.15 913.45 445.3 912.8 444.65 912.1 443.95 911.3 443.45 910.5 442.95 909.6 442.7 908.7 442.4 907.7 442.4
M 911.45 450.45
Q 911.65 451.15 911.85 452 912 452.85 912.1 453.7 912.2 454.6 912.2 455.55 912.2 456.5 912.1 457.4 912.05 458.3 911.9 459.1 911.5 460.8 911.05 462 910.8 462.65 910.4 463.15 910.05 463.65 909.6 464 909.15 464.4 908.65 464.55 908.2 464.75 907.7 464.75 907.1 464.75 906.6 464.55 906.1 464.4 905.7 464 904.85 463.25 904.25 462 903.95 461.35 903.8 460.6 903.6 459.85 903.5 459 903.35 458.2 903.25 457.35 903.2 456.45 903.2 455.55 903.2 454.6 903.25 453.7 903.35 452.8 903.5 451.95 903.6 451.15 903.8 450.4 904 449.65 904.25 449.05 904.55 448.45 904.95 447.95 905.35 447.5 905.75 447.1 906.15 446.8 906.65 446.65 907.15 446.45 907.7 446.45 908.15 446.45 908.65 446.65 909.1 446.8 909.6 447.15 910 447.5 910.4 448 910.75 448.5 911.05 449.1 911.25 449.75 911.45 450.45 Z"/>

<path fill="#E4E7D8" stroke="none" d="
M 273.95 424.6
Q 259.75 424.6 259.75 438.75
L 259.75 473.75
Q 259.75 487.9 273.95 487.9
L 432.7 487.9
Q 446.85 487.9 446.85 473.75
L 446.85 438.75
Q 446.85 424.6 432.7 424.6
L 273.95 424.6
M 298.5 442.7
Q 299.45 442.45 300.55 442.4 301.55 442.4 302.45 442.7 303.35 442.95 304.15 443.45 304.95 443.95 305.65 444.65 306.3 445.3 306.9 446.15 307.5 447.05 307.95 448.05 308.4 449.1 308.75 450.3 309 451.5 309.15 452.85 309.3 454.15 309.3 455.55 309.3 456.95 309.15 458.3 309 459.6 308.75 460.8 308.45 461.95 308 463 307.55 464.1 306.95 464.95 306.4 465.85 305.7 466.5 305 467.2 304.2 467.65 303.35 468.15 302.45 468.4 301.55 468.65 300.55 468.65 299.4 468.65 298.45 468.4 297.5 468.15 296.7 467.65 295.95 467.2 295.25 466.5 294.55 465.85 293.95 464.95 293.4 464.1 292.95 463 292.6 461.95 292.35 460.8 292.1 459.6 291.95 458.3 291.85 456.95 291.85 455.55 291.85 454.1 292 452.75 292.1 451.4 292.4 450.2 292.7 449 293.1 447.95 293.45 446.9 294 446.05 294.55 445.25 295.25 444.55 295.95 443.9 296.75 443.4 297.55 442.95 298.5 442.7
M 317.45 466.35
L 318.8 466.35
Q 319.3 466.35 319.65 466.45 320 466.55 320.25 466.8 320.5 467.05 320.65 467.35 320.75 467.7 320.75 468.2
L 320.75 469.7
Q 320.75 470.6 320.3 471.05 319.8 471.5 318.9 471.5
L 317.45 471.5
Q 316.9 471.5 316.55 471.35 316.15 471.3 315.95 471.1 315.75 470.9 315.6 470.55 315.5 470.2 315.5 469.7
L 315.5 468.2
Q 315.5 467.7 315.6 467.3 315.75 466.95 315.95 466.75 316.15 466.55 316.55 466.45 316.9 466.35 317.45 466.35
M 336.15 443.3
Q 336.8 443.8 336.8 444.45 336.8 447.05 336.8 449.6 336.8 452.15 336.85 454.65 336.85 457.15 336.85 459.75 336.85 462.3 336.85 464.95
L 336.85 466.4
Q 336.85 466.6 336.8 466.75 336.75 466.9 336.65 467.05 336.55 467.2 336.4 467.35 336.25 467.55 336.05 467.65 335.9 467.75 335.75 467.85 335.55 467.9 335.45 467.95 335.3 468.05 335.15 468.1 334.95 468.15 334.85 468.15 334.4 468.15 334.05 468 333.65 467.85 333.35 467.6 333 467.35 332.85 467.05 332.65 466.8 332.65 466.4 332.65 462.5 332.65 458.65 332.65 456.75 332.65 454.8 332.65 452.9 332.65 450.95
L 329.5 450.95
Q 329.05 450.95 328.75 450.8 328.45 450.65 328.25 450.3 328.05 450 327.95 449.7 327.85 449.4 327.85 449 327.85 448.65 327.95 448.3 328.05 448 328.35 447.7 328.55 447.45 328.85 447.3 329.2 447.15 329.65 447.1 330 447.1 330.4 447.1 330.75 447.05 331.15 447 331.45 446.95 331.8 446.8 332.1 446.65 332.35 446.45 332.5 446.3 332.65 446.05 332.75 445.8 332.85 445.5 332.95 445.15 333.05 444.85 333.15 444.55 333.3 444.25 333.4 444 333.5 443.7 333.6 443.45 333.8 443.25 333.9 443 334.25 442.9 334.55 442.8 335 442.8 335.25 442.8 335.55 442.95 335.85 443.05 336.15 443.3
M 346.8 444.95
Q 347.3 444.4 347.95 444 348.55 443.55 349.3 443.2 349.95 442.9 350.7 442.7 351.45 442.55 352.3 442.55
L 352.35 442.55
Q 353.2 442.55 353.95 442.75 354.75 442.9 355.45 443.2 356.15 443.55 356.8 443.95 357.45 444.4 358.05 444.9 358.5 445.45 358.9 446.05 359.3 446.65 359.55 447.35 359.8 448 359.95 448.7 360.1 449.35 360.1 450.05 360.1 450.8 360 451.45 359.9 452.15 359.75 452.75 359.6 453.35 359.35 453.85 359.05 454.4 358.7 454.85 358.4 455.35 358.05 455.8 357.65 456.25 357.25 456.7 356.8 457.1 356.3 457.5 355.8 457.85 355.3 458.2 355 458.45 354.55 458.75 354.1 459.05 353.6 459.4 353.05 459.7 352.55 460.1 352.1 460.45 351.65 460.8 351.15 461.2 350.75 461.65 350.3 462.1 350 462.55 349.65 463.05 349.5 463.55 349.35 464.1 349.35 464.6
L 358.35 464.6
Q 358.9 464.6 359.35 464.7 359.8 464.8 360.1 464.95 360.35 465.15 360.5 465.5 360.65 465.85 360.65 466.35 360.65 468.25 358.55 468.25
L 346.95 468.25
Q 346.5 468.25 346.1 468.1 345.7 468 345.4 467.75 345 467.55 344.85 467.2 344.7 466.85 344.7 466.3 344.7 466.2 344.7 466.1 344.7 465.95 344.75 465.85
L 344.75 465.7
Q 344.7 465.65 344.75 465.55 344.75 465.4 344.8 465.3 344.8 465.2 344.85 465.1 344.85 465 344.85 464.95 344.9 464.3 345.05 463.75 345.15 463.15 345.3 462.6 345.5 462.15 345.7 461.7 345.95 461.2 346.35 460.8 346.6 460.35 346.95 459.9 347.3 459.45 347.75 459 348.25 458.6 348.8 458.15 349.3 457.7 349.95 457.15 350.4 456.85 350.85 456.5 351.3 456.15 351.75 455.8 352.2 455.45 352.7 455.1 353.15 454.75 353.6 454.4 353.75 454.3 354 454.1 354.25 453.9 354.5 453.65 354.8 453.45 355 453.15 355.15 452.9 355.35 452.55 355.5 452.25 355.65 451.95 355.85 451.65 356 451.35 356.15 451 356.2 450.7 356.25 450.4 356.25 450.1 356.25 449.8 356.2 449.45 356.1 449.15 355.95 448.8 355.8 448.5 355.6 448.2 355.45 447.85 355.25 447.6 355 447.35 354.7 447.15 354.4 446.9 354.05 446.75 353.7 446.6 353.25 446.5 352.85 446.4 352.35 446.4 352 446.4 351.7 446.5 351.4 446.55 351.05 446.65 350.7 446.8 350.4 447 350.1 447.15 349.8 447.35 349.6 447.55 349.4 447.75 349.25 448 349.15 448.25 348.95 448.5 348.9 448.75 348.8 448.95 348.8 449.1 348.8 449.6 348.65 450 348.45 450.4 348.15 450.75 347.8 451.05 347.35 451.2 346.95 451.4 346.5 451.4 346.15 451.4 345.9 451.3 345.6 451.15 345.3 450.95 345.05 450.75 344.9 450.45 344.75 450.15 344.75 449.8 344.75 449.15 344.9 448.55 345.05 447.9 345.3 447.25 345.85 446 346.8 444.95
M 380.7 443.75
Q 380.9 444.15 380.9 444.6
L 380.9 455.9
Q 381.7 455.1 382.5 454.35 383.3 453.55 384 452.8 384.7 452.05 385.45 451.3 386.2 450.5 386.95 449.65 387.35 449.35 387.65 449.2 388 449 388.3 449 388.4 449 388.55 449.05 388.75 449.1 388.95 449.2 389.15 449.3 389.35 449.4 389.55 449.5 389.7 449.65 389.9 449.95 390.1 450.25 390.2 450.45 390.25 450.65 390.3 450.85 390.3 451.05 390.3 451.45 390.15 451.85 390 452.25 389.75 452.55 389.1 453.1 388.55 453.65 387.95 454.2 387.45 454.7 386.9 455.25 386.35 455.8 385.8 456.35 385.25 456.9 386.05 457.95 386.8 459.05 387.55 460.2 388.3 461.3 389.75 463.7 391.35 465.75 391.45 465.9 391.5 466.05 391.6 466.2 391.65 466.3 391.7 466.45 391.7 466.6 391.75 466.75 391.75 466.85 391.75 467.3 391.55 467.65 391.35 468 391.05 468.25 390.65 468.55 390.35 468.7 390 468.85 389.75 468.85 389.6 468.85 389.45 468.8 389.35 468.8 389.25 468.7 389.05 468.65 388.85 468.5 388.75 468.45 388.65 468.35 388.6 468.25 388.5 468.15 388.4 468.05 388.3 468 388.2 467.9 388.1 467.8 387.35 466.8 386.65 465.85 385.95 464.85 385.3 463.9 384.55 463 383.85 462 383.15 461 382.45 460 382.25 460.2 382.05 460.35 381.85 460.55 381.7 460.65 381.5 460.85 381.25 461 381.05 461.2 380.9 461.45
L 380.9 466.7
Q 380.9 467.25 380.7 467.6 380.55 467.95 380.25 468.15 379.95 468.35 379.6 468.4 379.25 468.5 378.9 468.5 378.45 468.5 378.1 468.4 377.75 468.35 377.4 468.15 377.1 467.95 376.95 467.6 376.8 467.25 376.8 466.7
L 376.8 444.6
Q 376.8 444.15 376.95 443.75 377.1 443.4 377.4 443.15 377.7 442.95 378.05 442.85 378.4 442.75 378.85 442.75 379.2 442.75 379.55 442.85 379.9 442.95 380.25 443.15 380.55 443.4 380.7 443.75
M 410.4 449.6
Q 410.65 449.25 411.05 449.05 411.45 448.85 412.05 448.85 412.35 448.85 412.65 449 412.9 449.1 413.2 449.35 413.7 449.8 413.9 450.45 413.9 452.45 413.95 454.4 413.95 456.35 413.95 458.25 413.95 460.2 414 462.15 414 464.1 414 466 414 467.1 413.85 468.05 413.7 469 413.4 469.75 413.05 470.5 412.5 471.1 412 471.75 411.25 472.2 410.55 472.6 409.85 472.95 409.15 473.25 408.45 473.5 407.75 473.7 407 473.8 406.3 473.9 405.55 473.95 404.1 473.95 402.95 473.6 402.35 473.45 401.8 473.25 401.3 473.05 400.75 472.75 400.35 472.5 400 472.2 399.6 471.9 399.3 471.6 398.6 470.85 398.15 470.1 398.05 469.9 398 469.7 397.95 469.5 397.95 469.25 397.95 469.15 398 469.05 398 468.9 398.05 468.75 398.05 468.6 398.1 468.5 398.15 468.35 398.25 468.2 398.35 468.05 398.45 467.95 398.55 467.8 398.65 467.7 398.75 467.6 398.9 467.6 399 467.55 399.15 467.55 399.25 467.5 399.45 467.45 399.6 467.4 399.85 467.4 400.1 467.4 400.4 467.45 400.7 467.55 401 467.65 401.25 467.75 401.45 467.95 401.7 468.2 401.85 468.45 401.85 468.6 401.9 468.75 402 468.9 402.15 469.05 402.4 469.3 403.05 469.55 403.3 469.65 403.6 469.75 403.9 469.85 404.25 469.95 404.6 470 404.95 470.05 405.25 470.1 405.55 470.1 406.5 470.1 407.3 469.9 408.1 469.65 408.7 469.15 409.25 468.7 409.55 468 409.85 467.3 409.85 466.4
L 409.85 464.85
Q 409.4 465.3 408.85 465.7 408.3 466.1 407.65 466.35 406.95 466.7 406.2 466.85 405.45 466.95 404.6 466.95 403.7 466.95 402.9 466.8 402.1 466.65 401.4 466.3 400.65 466 400.05 465.5 399.4 465.05 398.9 464.45 397.75 463.3 397.25 461.6 396.95 460.8 396.8 459.9 396.7 459 396.7 458 396.7 457.05 396.85 456.2 397 455.3 397.3 454.45 397.6 453.7 398.05 453 398.55 452.3 399.15 451.75 399.65 451.15 400.25 450.7 400.9 450.25 401.6 449.9 402.3 449.55 403.05 449.4 403.8 449.25 404.6 449.25 406.2 449.25 407.55 449.75 408.85 450.3 409.85 451.3 409.85 450.35 410.4 449.6
M 407.35 453.15
Q 406.45 452.85 405.35 452.85 404.3 452.85 403.5 453.2 402.65 453.55 402.05 454.25 400.8 455.7 400.8 458 400.8 460.45 402.05 461.9 403.3 463.35 405.3 463.35 406.45 463.35 407.35 463 408.2 462.6 408.85 461.9 410.1 460.45 410.1 458 410.1 456.8 409.8 455.85 409.5 454.9 408.85 454.2 408.2 453.5 407.35 453.15
M 304.3 450.45
Q 304.1 449.75 303.9 449.1 303.6 448.5 303.25 448 302.85 447.5 302.45 447.15 301.95 446.8 301.5 446.65 301 446.45 300.55 446.45 300 446.45 299.5 446.65 299 446.8 298.6 447.1 298.2 447.5 297.8 447.95 297.4 448.45 297.1 449.05 296.85 449.65 296.65 450.4 296.45 451.15 296.35 451.95 296.2 452.8 296.1 453.7 296.05 454.6 296.05 455.55 296.05 456.45 296.1 457.35 296.2 458.2 296.35 459 296.45 459.85 296.65 460.6 296.8 461.35 297.1 462 297.7 463.25 298.55 464 298.95 464.4 299.45 464.55 299.95 464.75 300.55 464.75 301.05 464.75 301.5 464.55 302 464.4 302.45 464 302.9 463.65 303.25 463.15 303.65 462.65 303.9 462 304.35 460.8 304.75 459.1 304.9 458.3 304.95 457.4 305.05 456.5 305.05 455.55 305.05 454.6 304.95 453.7 304.85 452.85 304.7 452 304.5 451.15 304.3 450.45
M 758.75 438.75
Q 758.75 424.6 744.6 424.6
L 585.85 424.6
Q 571.65 424.6 571.65 438.75
L 571.65 473.75
Q 571.65 487.9 585.85 487.9
L 744.6 487.9
Q 758.75 487.9 758.75 473.75
L 758.75 438.75
M 637.45 442.55
L 637.5 442.55
Q 638.35 442.55 639.1 442.75 639.9 442.9 640.6 443.2 641.3 443.55 641.95 443.95 642.6 444.4 643.2 444.9 643.65 445.45 644.05 446.05 644.45 446.65 644.7 447.35 644.95 448 645.1 448.7 645.25 449.35 645.25 450.05 645.25 450.8 645.15 451.45 645.05 452.15 644.9 452.75 644.75 453.35 644.5 453.85 644.2 454.4 643.85 454.85 643.55 455.35 643.2 455.8 642.8 456.25 642.4 456.7 641.95 457.1 641.45 457.5 640.95 457.85 640.45 458.2 640.15 458.45 639.7 458.75 639.25 459.05 638.75 459.4 638.2 459.7 637.7 460.1 637.25 460.45 636.8 460.8 636.3 461.2 635.9 461.65 635.45 462.1 635.15 462.55 634.8 463.05 634.65 463.55 634.5 464.1 634.5 464.6
L 643.5 464.6
Q 644.05 464.6 644.5 464.7 644.95 464.8 645.25 464.95 645.5 465.15 645.65 465.5 645.8 465.85 645.8 466.35 645.8 468.25 643.7 468.25
L 632.1 468.25
Q 631.65 468.25 631.25 468.1 630.85 468 630.55 467.75 630.15 467.55 630 467.2 629.85 466.85 629.85 466.3 629.85 466.2 629.85 466.1 629.85 465.95 629.9 465.85
L 629.9 465.7
Q 629.85 465.65 629.9 465.55 629.9 465.4 629.95 465.3 629.95 465.2 630 465.1 630 465 630 464.95 630.05 464.3 630.2 463.75 630.3 463.15 630.45 462.6 630.65 462.15 630.85 461.7 631.1 461.2 631.5 460.8 631.75 460.35 632.1 459.9 632.45 459.45 632.9 459 633.4 458.6 633.95 458.15 634.45 457.7 635.1 457.15 635.55 456.85 636 456.5 636.45 456.15 636.9 455.8 637.35 455.45 637.85 455.1 638.3 454.75 638.75 454.4 638.9 454.3 639.15 454.1 639.4 453.9 639.65 453.65 639.95 453.45 640.15 453.15 640.3 452.9 640.5 452.55 640.65 452.25 640.8 451.95 641 451.65 641.15 451.35 641.3 451 641.35 450.7 641.4 450.4 641.4 450.1 641.4 449.8 641.35 449.45 641.25 449.15 641.1 448.8 640.95 448.5 640.75 448.2 640.6 447.85 640.4 447.6 640.15 447.35 639.85 447.15 639.55 446.9 639.2 446.75 638.85 446.6 638.4 446.5 638 446.4 637.5 446.4 637.15 446.4 636.85 446.5 636.55 446.55 636.2 446.65 635.85 446.8 635.55 447 635.25 447.15 634.95 447.35 634.75 447.55 634.55 447.75 634.4 448 634.3 448.25 634.1 448.5 634.05 448.75 633.95 448.95 633.95 449.1 633.95 449.6 633.8 450 633.6 450.4 633.3 450.75 632.95 451.05 632.5 451.2 632.1 451.4 631.65 451.4 631.3 451.4 631.05 451.3 630.75 451.15 630.45 450.95 630.2 450.75 630.05 450.45 629.9 450.15 629.9 449.8 629.9 449.15 630.05 448.55 630.2 447.9 630.45 447.25 631 446 631.95 444.95 632.45 444.4 633.1 444 633.7 443.55 634.45 443.2 635.1 442.9 635.85 442.7 636.6 442.55 637.45 442.55
M 662.3 443.25
Q 663.15 443.75 663.85 444.4 664.55 445.1 665.2 445.95 665.7 446.85 666.15 447.85 666.55 448.9 666.8 450.1 667.05 451.3 667.2 452.65 667.3 454 667.3 455.45 667.3 457 667.15 458.4 667 459.8 666.7 461.05 666.35 462.3 665.95 463.4 665.5 464.45 664.95 465.35 664.35 466.25 663.6 466.95 662.85 467.6 661.95 468.1 661.05 468.6 660.05 468.85 659.1 469.05 658.05 469.05 657.2 469.05 656.45 468.95 655.7 468.8 655.05 468.5 654.3 468.25 653.65 467.8 653 467.4 652.45 466.85 652.25 466.6 652.1 466.4 651.95 466.2 651.75 465.9 651.5 465.7 651.35 465.45 651.15 465.2 651.05 464.95 650.9 464.65 650.8 464.4 650.7 464.1 650.65 463.85 650.55 463.6 650.5 463.35 650.45 463.15 650.45 462.85 650.45 462.45 650.65 462.15 650.8 461.8 651.15 461.6 651.8 461.2 652.45 461.2 652.9 461.2 653.25 461.35 653.55 461.5 653.75 461.75 654.05 462.4 654.4 463 654.65 463.5 655 463.85 655.35 464.25 655.8 464.55 656.2 464.9 656.75 465.05 657.35 465.2 658.05 465.2 658.8 465.2 659.4 465 660.05 464.8 660.5 464.4 660.95 463.95 661.35 463.5 661.75 463 662.1 462.4 662.3 461.85 662.5 461.2 662.65 460.6 662.75 459.95 662.85 459.3 662.9 458.75 662.95 458.2 662.95 457.7 662.65 458.1 662.2 458.45 661.75 458.75 661.15 459.05 660.5 459.4 659.75 459.55 659 459.75 658.15 459.75 658.05 459.8 658 459.8 657.9 459.8 657.8 459.8 657.65 459.8 657.5 459.8 657.35 459.8 657.2 459.8 656.45 459.8 655.75 459.65 655.05 459.5 654.45 459.1 653.75 458.8 653.2 458.35 652.6 457.9 652.15 457.3 651.6 456.75 651.2 456.1 650.75 455.45 650.5 454.65 650.2 453.9 650.05 453.05 649.9 452.25 649.9 451.35 649.9 450.4 650.05 449.55 650.2 448.7 650.5 447.85 650.8 447.05 651.25 446.3 651.7 445.6 652.3 444.95 652.8 444.35 653.45 443.85 654.1 443.35 654.9 443 655.65 442.65 656.45 442.45 657.3 442.3 658.15 442.3 659.4 442.3 660.4 442.55 661.45 442.75 662.3 443.25
M 682.65 456.2
Q 682.8 455.3 683.1 454.45 683.4 453.7 683.85 453 684.35 452.3 684.95 451.75 685.45 451.15 686.05 450.7 686.7 450.25 687.4 449.9 688.1 449.55 688.85 449.4 689.6 449.25 690.4 449.25 692 449.25 693.35 449.75 694.65 450.3 695.65 451.3 695.65 450.35 696.2 449.6 696.45 449.25 696.85 449.05 697.25 448.85 697.85 448.85 698.15 448.85 698.45 449 698.7 449.1 699 449.35 699.5 449.8 699.7 450.45 699.7 452.45 699.75 454.4 699.75 456.35 699.75 458.25 699.75 460.2 699.8 462.15 699.8 464.1 699.8 466 699.8 467.1 699.65 468.05 699.5 469 699.2 469.75 698.85 470.5 698.3 471.1 697.8 471.75 697.05 472.2 696.35 472.6 695.65 472.95 694.95 473.25 694.25 473.5 693.55 473.7 692.8 473.8 692.1 473.9 691.35 473.95 689.9 473.95 688.75 473.6 688.15 473.45 687.6 473.25 687.1 473.05 686.55 472.75 686.15 472.5 685.8 472.2 685.4 471.9 685.1 471.6 684.4 470.85 683.95 470.1 683.85 469.9 683.8 469.7 683.75 469.5 683.75 469.25 683.75 469.15 683.8 469.05 683.8 468.9 683.85 468.75 683.85 468.6 683.9 468.5 683.95 468.35 684.05 468.2 684.15 468.05 684.25 467.95 684.35 467.8 684.45 467.7 684.55 467.6 684.7 467.6 684.8 467.55 684.95 467.55 685.05 467.5 685.25 467.45 685.4 467.4 685.65 467.4 685.9 467.4 686.2 467.45 686.5 467.55 686.8 467.65 687.05 467.75 687.25 467.95 687.5 468.2 687.65 468.45 687.65 468.6 687.7 468.75 687.8 468.9 687.95 469.05 688.2 469.3 688.85 469.55 689.1 469.65 689.4 469.75 689.7 469.85 690.05 469.95 690.4 470 690.75 470.05 691.05 470.1 691.35 470.1 692.3 470.1 693.1 469.9 693.9 469.65 694.5 469.15 695.05 468.7 695.35 468 695.65 467.3 695.65 466.4
L 695.65 464.85
Q 695.2 465.3 694.65 465.7 694.1 466.1 693.45 466.35 692.75 466.7 692 466.85 691.25 466.95 690.4 466.95 689.5 466.95 688.7 466.8 687.9 466.65 687.2 466.3 686.45 466 685.85 465.5 685.2 465.05 684.7 464.45 683.55 463.3 683.05 461.6 682.75 460.8 682.6 459.9 682.5 459 682.5 458 682.5 457.05 682.65 456.2
M 686.6 458
Q 686.6 460.45 687.85 461.9 689.1 463.35 691.1 463.35 692.25 463.35 693.15 463 694 462.6 694.65 461.9 695.9 460.45 695.9 458 695.9 456.8 695.6 455.85 695.3 454.9 694.65 454.2 694 453.5 693.15 453.15 692.25 452.85 691.15 452.85 690.1 452.85 689.3 453.2 688.45 453.55 687.85 454.25 686.6 455.7 686.6 458
M 661.55 447.55
Q 660.35 446.2 658.25 446.2 656.45 446.2 655.25 447.55 653.95 448.95 653.95 451.15 653.95 452.3 654.25 453.2 654.55 454.1 655.2 454.75 655.8 455.45 656.55 455.75 657.35 456.1 658.25 456.1 660.35 456.1 661.55 454.7 662.1 454.05 662.35 453.15 662.65 452.25 662.65 451.15 662.65 450.05 662.35 449.15 662.1 448.25 661.55 447.55
M 889.9 424.6
Q 875.7 424.6 875.7 438.75
L 875.7 473.75
Q 875.7 487.9 889.9 487.9
L 1048.65 487.9
Q 1062.8 487.9 1062.8 473.75
L 1062.8 438.75
Q 1062.8 424.6 1048.65 424.6
L 889.9 424.6
M 905.65 442.7
Q 906.6 442.45 907.7 442.4 908.7 442.4 909.6 442.7 910.5 442.95 911.3 443.45 912.1 443.95 912.8 444.65 913.45 445.3 914.05 446.15 914.65 447.05 915.1 448.05 915.55 449.1 915.9 450.3 916.15 451.5 916.3 452.85 916.45 454.15 916.45 455.55 916.45 456.95 916.3 458.3 916.15 459.6 915.9 460.8 915.6 461.95 915.15 463 914.7 464.1 914.1 464.95 913.55 465.85 912.85 466.5 912.15 467.2 911.35 467.65 910.5 468.15 909.6 468.4 908.7 468.65 907.7 468.65 906.55 468.65 905.6 468.4 904.65 468.15 903.85 467.65 903.1 467.2 902.4 466.5 901.7 465.85 901.1 464.95 900.55 464.1 900.1 463 899.75 461.95 899.5 460.8 899.25 459.6 899.1 458.3 899 456.95 899 455.55 899 454.1 899.15 452.75 899.25 451.4 899.55 450.2 899.85 449 900.25 447.95 900.6 446.9 901.15 446.05 901.7 445.25 902.4 444.55 903.1 443.9 903.9 443.4 904.7 442.95 905.65 442.7
M 924.6 466.35
L 925.95 466.35
Q 926.45 466.35 926.8 466.45 927.15 466.55 927.4 466.8 927.65 467.05 927.8 467.35 927.9 467.7 927.9 468.2
L 927.9 469.7
Q 927.9 470.6 927.45 471.05 926.95 471.5 926.05 471.5
L 924.6 471.5
Q 924.05 471.5 923.7 471.35 923.3 471.3 923.1 471.1 922.9 470.9 922.75 470.55 922.65 470.2 922.65 469.7
L 922.65 468.2
Q 922.65 467.7 922.75 467.3 922.9 466.95 923.1 466.75 923.3 466.55 923.7 466.45 924.05 466.35 924.6 466.35
M 943.3 443.3
Q 943.95 443.8 943.95 444.45 943.95 447.05 943.95 449.6 943.95 452.15 944 454.65 944 457.15 944 459.75 944 462.3 944 464.95
L 944 466.4
Q 944 466.6 943.95 466.75 943.9 466.9 943.8 467.05 943.7 467.2 943.55 467.35 943.4 467.55 943.2 467.65 943.05 467.75 942.9 467.85 942.7 467.9 942.6 467.95 942.45 468.05 942.3 468.1 942.1 468.15 942 468.15 941.55 468.15 941.2 468 940.8 467.85 940.5 467.6 940.15 467.35 940 467.05 939.8 466.8 939.8 466.4 939.8 462.5 939.8 458.65 939.8 456.75 939.8 454.8 939.8 452.9 939.8 450.95
L 936.65 450.95
Q 936.2 450.95 935.9 450.8 935.6 450.65 935.4 450.3 935.2 450 935.1 449.7 935 449.4 935 449 935 448.65 935.1 448.3 935.2 448 935.5 447.7 935.7 447.45 936 447.3 936.35 447.15 936.8 447.1 937.15 447.1 937.55 447.1 937.9 447.05 938.3 447 938.6 446.95 938.95 446.8 939.25 446.65 939.5 446.45 939.65 446.3 939.8 446.05 939.9 445.8 940 445.5 940.1 445.15 940.2 444.85 940.3 444.55 940.45 444.25 940.55 444 940.65 443.7 940.75 443.45 940.95 443.25 941.05 443 941.4 442.9 941.7 442.8 942.15 442.8 942.4 442.8 942.7 442.95 943 443.05 943.3 443.3
M 960.15 443.3
Q 960.8 443.8 960.8 444.45 960.8 447.05 960.8 449.6 960.8 452.15 960.85 454.65 960.85 457.15 960.85 459.75 960.85 462.3 960.85 464.95
L 960.85 466.4
Q 960.85 466.6 960.8 466.75 960.75 466.9 960.65 467.05 960.55 467.2 960.4 467.35 960.25 467.55 960.05 467.65 959.9 467.75 959.75 467.85 959.55 467.9 959.45 467.95 959.3 468.05 959.15 468.1 958.95 468.15 958.85 468.15 958.4 468.15 958.05 468 957.65 467.85 957.35 467.6 957 467.35 956.85 467.05 956.65 466.8 956.65 466.4 956.65 462.5 956.65 458.65 956.65 456.75 956.65 454.8 956.65 452.9 956.65 450.95
L 953.5 450.95
Q 953.05 450.95 952.75 450.8 952.45 450.65 952.25 450.3 952.05 450 951.95 449.7 951.85 449.4 951.85 449 951.85 448.65 951.95 448.3 952.05 448 952.35 447.7 952.55 447.45 952.85 447.3 953.2 447.15 953.65 447.1 954 447.1 954.4 447.1 954.75 447.05 955.15 447 955.45 446.95 955.8 446.8 956.1 446.65 956.35 446.45 956.5 446.3 956.65 446.05 956.75 445.8 956.85 445.5 956.95 445.15 957.05 444.85 957.15 444.55 957.3 444.25 957.4 444 957.5 443.7 957.6 443.45 957.8 443.25 957.9 443 958.25 442.9 958.55 442.8 959 442.8 959.25 442.8 959.55 442.95 959.85 443.05 960.15 443.3
M 969.7 450.05
Q 969.95 448.4 970.15 446.7 970.35 445 970.6 443.3
L 982.25 443.3
Q 983.15 443.4 983.6 443.9 984.1 444.35 984.1 445.25 984.1 445.7 984 446.05 983.9 446.4 983.75 446.7 983.4 447.35 982.45 447.35 980.5 447.35 978.4 447.35 977.35 447.35 976.3 447.35 975.25 447.35 974.2 447.35 974.05 448.1 973.9 448.75 973.8 449.4 973.7 450 973.5 451.25 973.4 452.6 973.65 452.4 974.1 452.2 974.5 452 975.05 451.85 975.6 451.7 976.2 451.65 976.85 451.55 977.6 451.55 978.2 451.55 978.8 451.7 979.45 451.8 980.15 452.05 981.4 452.55 982.45 453.65 983 454.2 983.5 454.85 984 455.55 984.35 456.3 984.7 457.15 984.85 458.1 985.05 459.05 985.05 460.15 985 461.2 984.8 462.15 984.65 463.05 984.25 463.9 983.9 464.75 983.4 465.4 982.85 466.1 982.25 466.65 980.95 467.85 979.5 468.45 978.75 468.75 978 468.9 977.25 469.05 976.45 469.05 974.7 469.05 973.25 468.4 971.75 467.8 970.65 466.6 970.45 466.3 970.25 466.05 970 465.75 969.8 465.45 969.55 465.15 969.4 464.9 969.2 464.6 969.05 464.25 968.95 464 968.85 463.75 968.75 463.5 968.65 463.25 968.55 463.05 968.5 462.9 968.5 462.75 968.5 462.6 968.4 462.45 968.4 462.35 968.4 462.2 968.4 462.15 968.4 461.75 968.55 461.45 968.7 461.15 969 460.9 969.3 460.7 969.65 460.55 970.05 460.45 970.5 460.45 970.85 460.45 971.15 460.5 971.4 460.6 971.65 460.7 971.85 460.85 972 461.05 972.1 461.25 972.2 461.55
L 972.2 461.6 972.25 461.6
Q 972.25 461.7 972.3 461.85 972.35 461.95 972.5 462.1 972.6 462.4 972.75 462.65 972.9 462.95 973.05 463.2 973.25 463.45 973.4 463.7 973.6 463.9 973.9 464.15 974.15 464.35 974.45 464.5 974.8 464.7 975.1 464.8 975.45 464.95 975.75 465 976.1 465.05 976.45 465.05 977 465.05 977.5 464.95 977.95 464.85 978.4 464.6 978.75 464.4 979.05 464.15 979.4 463.85 979.6 463.45 979.95 463.1 980.15 462.7 980.4 462.3 980.5 461.8 980.65 461.3 980.7 460.8 980.75 460.3 980.75 459.7 980.75 458.7 980.45 457.85 980.15 457.05 979.55 456.4 978.35 455.15 976.65 455.15 975.65 455.15 974.75 455.45 973.8 455.8 973.4 456.5 973.3 456.6 973.2 456.7 973.1 456.8 973.05 456.9 972.9 457.05 972.8 457.15 972.7 457.25 972.55 457.4 972.4 457.5 972.25 457.6 972.1 457.65 971.95 457.7 971.75 457.8 971.5 457.85 971.2 457.85 970.8 457.85 970.5 457.85 970.15 457.8 969.85 457.75 969.55 457.6 969.2 457.5 969.05 457.35 968.9 457.15 968.9 457
L 968.9 456.9 968.85 456.9
Q 968.85 456.85 968.85 456.8 969 455.15 969.25 453.45 969.45 451.75 969.7 450.05
M 1005.4 443.75
Q 1005.6 444.15 1005.6 444.6
L 1005.6 455.9
Q 1006.4 455.1 1007.2 454.35 1008 453.55 1008.7 452.8 1009.4 452.05 1010.15 451.3 1010.9 450.5 1011.65 449.65 1012.05 449.35 1012.35 449.2 1012.7 449 1013 449 1013.1 449 1013.25 449.05 1013.45 449.1 1013.65 449.2 1013.85 449.3 1014.05 449.4 1014.25 449.5 1014.4 449.65 1014.6 449.95 1014.8 450.25 1014.9 450.45 1014.95 450.65 1015 450.85 1015 451.05 1015 451.45 1014.85 451.85 1014.7 452.25 1014.45 452.55 1013.8 453.1 1013.25 453.65 1012.65 454.2 1012.15 454.7 1011.6 455.25 1011.05 455.8 1010.5 456.35 1009.95 456.9 1010.75 457.95 1011.5 459.05 1012.25 460.2 1013 461.3 1014.45 463.7 1016.05 465.75 1016.15 465.9 1016.2 466.05 1016.3 466.2 1016.35 466.3 1016.4 466.45 1016.4 466.6 1016.45 466.75 1016.45 466.85 1016.45 467.3 1016.25 467.65 1016.05 468 1015.75 468.25 1015.35 468.55 1015.05 468.7 1014.7 468.85 1014.45 468.85 1014.3 468.85 1014.15 468.8 1014.05 468.8 1013.95 468.7 1013.75 468.65 1013.55 468.5 1013.45 468.45 1013.35 468.35 1013.3 468.25 1013.2 468.15 1013.1 468.05 1013 468 1012.9 467.9 1012.8 467.8 1012.05 466.8 1011.35 465.85 1010.65 464.85 1010 463.9 1009.25 463 1008.55 462 1007.85 461 1007.15 460 1006.95 460.2 1006.75 460.35 1006.55 460.55 1006.4 460.65 1006.2 460.85 1005.95 461 1005.75 461.2 1005.6 461.45
L 1005.6 466.7
Q 1005.6 467.25 1005.4 467.6 1005.25 467.95 1004.95 468.15 1004.65 468.35 1004.3 468.4 1003.95 468.5 1003.6 468.5 1003.15 468.5 1002.8 468.4 1002.45 468.35 1002.1 468.15 1001.8 467.95 1001.65 467.6 1001.5 467.25 1001.5 466.7
L 1001.5 444.6
Q 1001.5 444.15 1001.65 443.75 1001.8 443.4 1002.1 443.15 1002.4 442.95 1002.75 442.85 1003.1 442.75 1003.55 442.75 1003.9 442.75 1004.25 442.85 1004.6 442.95 1004.95 443.15 1005.25 443.4 1005.4 443.75
M 1037.35 449
Q 1037.6 449.1 1037.9 449.35 1038.4 449.8 1038.6 450.45 1038.6 452.45 1038.65 454.4 1038.65 456.35 1038.65 458.25 1038.65 460.2 1038.7 462.15 1038.7 464.1 1038.7 466 1038.7 467.1 1038.55 468.05 1038.4 469 1038.1 469.75 1037.75 470.5 1037.2 471.1 1036.7 471.75 1035.95 472.2 1035.25 472.6 1034.55 472.95 1033.85 473.25 1033.15 473.5 1032.45 473.7 1031.7 473.8 1031 473.9 1030.25 473.95 1028.8 473.95 1027.65 473.6 1027.05 473.45 1026.5 473.25 1026 473.05 1025.45 472.75 1025.05 472.5 1024.7 472.2 1024.3 471.9 1024 471.6 1023.3 470.85 1022.85 470.1 1022.75 469.9 1022.7 469.7 1022.65 469.5 1022.65 469.25 1022.65 469.15 1022.7 469.05 1022.7 468.9 1022.75 468.75 1022.75 468.6 1022.8 468.5 1022.85 468.35 1022.95 468.2 1023.05 468.05 1023.15 467.95 1023.25 467.8 1023.35 467.7 1023.45 467.6 1023.6 467.6 1023.7 467.55 1023.85 467.55 1023.95 467.5 1024.15 467.45 1024.3 467.4 1024.55 467.4 1024.8 467.4 1025.1 467.45 1025.4 467.55 1025.7 467.65 1025.95 467.75 1026.15 467.95 1026.4 468.2 1026.55 468.45 1026.55 468.6 1026.6 468.75 1026.7 468.9 1026.85 469.05 1027.1 469.3 1027.75 469.55 1028 469.65 1028.3 469.75 1028.6 469.85 1028.95 469.95 1029.3 470 1029.65 470.05 1029.95 470.1 1030.25 470.1 1031.2 470.1 1032 469.9 1032.8 469.65 1033.4 469.15 1033.95 468.7 1034.25 468 1034.55 467.3 1034.55 466.4
L 1034.55 464.85
Q 1034.1 465.3 1033.55 465.7 1033 466.1 1032.35 466.35 1031.65 466.7 1030.9 466.85 1030.15 466.95 1029.3 466.95 1028.4 466.95 1027.6 466.8 1026.8 466.65 1026.1 466.3 1025.35 466 1024.75 465.5 1024.1 465.05 1023.6 464.45 1022.45 463.3 1021.95 461.6 1021.65 460.8 1021.5 459.9 1021.4 459 1021.4 458 1021.4 457.05 1021.55 456.2 1021.7 455.3 1022 454.45 1022.3 453.7 1022.75 453 1023.25 452.3 1023.85 451.75 1024.35 451.15 1024.95 450.7 1025.6 450.25 1026.3 449.9 1027 449.55 1027.75 449.4 1028.5 449.25 1029.3 449.25 1030.9 449.25 1032.25 449.75 1033.55 450.3 1034.55 451.3 1034.55 450.35 1035.1 449.6 1035.35 449.25 1035.75 449.05 1036.15 448.85 1036.75 448.85 1037.05 448.85 1037.35 449
M 1034.5 455.85
Q 1034.2 454.9 1033.55 454.2 1032.9 453.5 1032.05 453.15 1031.15 452.85 1030.05 452.85 1029 452.85 1028.2 453.2 1027.35 453.55 1026.75 454.25 1025.5 455.7 1025.5 458 1025.5 460.45 1026.75 461.9 1028 463.35 1030 463.35 1031.15 463.35 1032.05 463 1032.9 462.6 1033.55 461.9 1034.8 460.45 1034.8 458 1034.8 456.8 1034.5 455.85
M 911.85 452
Q 911.65 451.15 911.45 450.45 911.25 449.75 911.05 449.1 910.75 448.5 910.4 448 910 447.5 909.6 447.15 909.1 446.8 908.65 446.65 908.15 446.45 907.7 446.45 907.15 446.45 906.65 446.65 906.15 446.8 905.75 447.1 905.35 447.5 904.95 447.95 904.55 448.45 904.25 449.05 904 449.65 903.8 450.4 903.6 451.15 903.5 451.95 903.35 452.8 903.25 453.7 903.2 454.6 903.2 455.55 903.2 456.45 903.25 457.35 903.35 458.2 903.5 459 903.6 459.85 903.8 460.6 903.95 461.35 904.25 462 904.85 463.25 905.7 464 906.1 464.4 906.6 464.55 907.1 464.75 907.7 464.75 908.2 464.75 908.65 464.55 909.15 464.4 909.6 464 910.05 463.65 910.4 463.15 910.8 462.65 911.05 462 911.5 460.8 911.9 459.1 912.05 458.3 912.1 457.4 912.2 456.5 912.2 455.55 912.2 454.6 912.1 453.7 912 452.85 911.85 452 Z"/>
</g>

<path id="Layer0_0_1_STROKES" stroke="#BBDECB" stroke-width="5" stroke-linejoin="round" stroke-linecap="round" fill="none" d="
M 182.4 256.05
L 1097.65 256.05
Q 1112.65 256.05 1112.65 271.05
L 1112.65 512.15
Q 1112.65 527.15 1097.65 527.15
L 182.4 527.15
Q 167.4 527.15 167.4 512.15
L 167.4 271.05
Q 167.4 256.05 182.4 256.05 Z"/>

<path id="Layer0_0_2_STROKES" stroke="#DBDBDB" stroke-width="3" stroke-linejoin="round" stroke-linecap="round" fill="none" d="
M 886.85 578
Q 901.85 578 901.85 593
L 901.85 623.05
Q 901.85 638.05 886.85 638.05
L 811.85 638.05
Q 796.85 638.05 796.85 623.05
L 796.85 593
Q 796.85 578 811.85 578
L 886.85 578 Z
M 1030.65 578
Q 1045.65 578 1045.65 593
L 1045.65 623.05
Q 1045.65 638.05 1030.65 638.05
L 955.65 638.05
Q 940.65 638.05 940.65 623.05
L 940.65 593
Q 940.65 578 955.65 578
L 1030.65 578 Z
M 1174.6 578
Q 1189.6 578 1189.6 593
L 1189.6 623.05
Q 1189.6 638.05 1174.6 638.05
L 1099.6 638.05
Q 1084.6 638.05 1084.6 623.05
L 1084.6 593
Q 1084.6 578 1099.6 578
L 1174.6 578 Z"/>

<path id="Layer0_0_3_STROKES" stroke="#1E1E1E" stroke-width="3" stroke-linejoin="round" stroke-linecap="round" fill="none" d="
M 870.45 321.9
Q 870.45 330.5 864.4 336.6 858.3 342.7 849.7 342.7 841.05 342.7 835 336.6 828.9 330.5 828.9 321.9 828.9 313.3 835 307.2 841.05 301.1 849.7 301.1 858.3 301.1 864.4 307.2 870.45 313.3 870.45 321.9 Z
M 564.55 321.45
Q 564.55 330.05 558.5 336.15 552.4 342.25 543.8 342.25 535.15 342.25 529.1 336.15 523 330.05 523 321.45 523 312.85 529.1 306.75 535.15 300.65 543.8 300.65 552.4 300.65 558.5 306.75 564.55 312.85 564.55 321.45 Z
M 258.75 320.55
Q 258.75 329.15 252.7 335.25 246.6 341.35 238 341.35 229.35 341.35 223.3 335.25 217.2 329.15 217.2 320.55 217.2 311.95 223.3 305.85 229.35 299.75 238 299.75 246.6 299.75 252.7 305.85 258.75 311.95 258.75 320.55 Z"/>
</defs>

<g transform="matrix( 1, 0, 0, 1, 0,0) ">
<use xlink:href="#Layer0_0_FILL"/>

<use xlink:href="#Layer0_0_1_STROKES"/>

<use xlink:href="#Layer0_0_2_STROKES"/>

<use xlink:href="#Layer0_0_3_STROKES"/>
</g>
</svg>
