
<svg xmlns="http://www.w3.org/2000/svg" version="1.1" xmlns:xlink="http://www.w3.org/1999/xlink" preserveAspectRatio="none" x="0px" y="0px" width="1280px" height="710px" viewBox="0 0 1280 710">
<defs>
<g id="Layer0_0_FILL">
<path fill="#569ECC" stroke="none" d="
M 340.1 26.9
Q 333.15 26.9 328.2 31.85 323.25 36.8 323.25 43.75 323.25 50.7 328.2 55.65 333.15 60.6 340.1 60.6 347.05 60.6 352 55.65 356.95 50.7 356.95 43.75 356.95 36.8 352 31.85 347.05 26.9 340.1 26.9
M 335.5 34.55
Q 336.3 33.8 337.4 33.8 338.5 33.8 339.3 34.55
L 346.55 41.75
Q 347.35 42.55 347.35 43.65 347.35 44.8 346.55 45.55
L 339.1 52.95
Q 338.35 53.75 337.2 53.75 336.1 53.75 335.35 53 334.6 52.2 334.6 51.05 334.6 50 335.35 49.2
L 340.85 43.65 335.5 38.3
Q 334.75 37.55 334.75 36.45 334.75 35.35 335.5 34.55
M 100.95 639
Q 97.35 635.4 92.2 635.4
L 80.95 635.4
Q 75.8 635.4 72.15 639 68.6 642.65 68.6 647.75
L 68.6 659.05
Q 68.6 664.15 72.15 667.75 75.8 671.4 80.95 671.4
L 92.2 671.4
Q 97.35 671.4 100.95 667.75 104.55 664.15 104.55 659.05
L 104.55 647.75
Q 104.55 642.65 100.95 639
M 86.25 643.45
L 87.85 643.45
Q 88.35 643.45 88.45 643.55 88.55 643.7 88.55 644.3
L 88.55 661.55
Q 88.55 661.8 88.45 661.95 88.35 662.05 88.1 662.05
L 85.7 662.05
Q 85.45 662.05 85.35 661.95 85.25 661.85 85.25 661.55
L 85.25 647.9 83.8 649.25
Q 83.45 649.65 83.2 649.35
L 81.8 647.75
Q 81.65 647.55 81.7 647.45 81.75 647.3 82 647.1
L 85.7 643.65
Q 85.95 643.45 86.25 643.45
M 256.75 -1
L 58.65 -1 58.65 41
Q 58.65 51.35 65.95 58.65 73.3 66 83.65 66
L 231.75 66
Q 242.1 66 249.4 58.65 256.75 51.35 256.75 41
L 256.75 -1
M 102.7 19.2
Q 104.25 19.2 105.8 19.15 107.4 19.15 108.95 19.15 110.5 19.1 112.15 19.1 112.55 19.1 112.9 19.25 113.25 19.35 113.45 19.6 113.65 19.85 113.75 20.15 113.85 20.5 113.85 20.8 113.85 21.25 113.75 21.55 113.65 21.9 113.45 22.1 113.25 22.4 112.9 22.5 112.55 22.65 112.15 22.65
L 105.7 22.65 105.7 25.4 117.4 25.4
Q 117.85 25.4 118.2 25.55 118.5 25.7 118.65 25.95 118.75 26.25 118.8 26.6 118.85 26.9 118.85 27.25 118.85 27.65 118.8 28 118.75 28.3 118.65 28.55 118.5 28.85 118.2 29 117.85 29.1 117.4 29.1
L 89.2 29.1
Q 88.75 29.1 88.4 29 88.1 28.85 88 28.55 87.9 28.3 87.85 28 87.75 27.65 87.75 27.25 87.75 26.9 87.85 26.6 87.9 26.25 88 25.95 88.1 25.7 88.4 25.55 88.75 25.4 89.2 25.4
L 101.45 25.4 101.45 22.7 97.45 22.7
Q 96.45 22.7 95.7 22.45 95 22.25 94.55 21.8 94 21.4 93.75 20.65 93.5 19.95 93.5 18.95
L 93.5 14.55
Q 93.5 14.1 93.65 13.8 93.85 13.45 94.15 13.25 94.45 13.05 94.8 12.95 95.15 12.85 95.5 12.85 95.6 12.85 95.75 12.85 95.95 12.9 96.15 12.95 96.35 13 96.55 13.1 96.75 13.2 96.9 13.35 97 13.4 97.1 13.5 97.2 13.65 97.3 13.8 97.55 14.1 97.55 14.55
L 97.55 18.85
Q 98.05 18.95 98.45 19.1 98.9 19.2 99.55 19.2 101.1 19.2 102.7 19.2
M 93.75 32.4
Q 93.85 32.1 94.05 31.8 94.2 31.6 94.45 31.45 94.75 31.35 95.2 31.35
L 109.55 31.35
Q 110.05 31.35 110.8 31.45 111.1 31.5 111.4 31.6 111.65 31.7 111.85 31.8 112.35 32.15 112.7 32.55 112.8 32.8 112.9 33.1 112.95 33.4 112.95 33.8
L 112.95 37.45
Q 112.95 38.1 112.75 38.5 112.5 38.9 112.05 39.05 111.6 39.3 111.05 39.35 110.5 39.45 109.9 39.45
L 98.05 39.45
Q 97.95 39.65 97.9 39.85 97.9 40.05 97.9 40.25
L 97.9 40.7
Q 97.9 40.9 97.9 41.05 97.95 41.25 98.05 41.4
L 111.75 41.4
Q 112.5 41.4 112.9 41.8 113.25 42.25 113.25 43.1 113.25 43.9 112.9 44.3 112.5 44.7 111.75 44.7
L 97.1 44.7
Q 96.8 44.7 96.5 44.7 96.2 44.65 95.95 44.6 95.6 44.55 95.35 44.45 95.05 44.4 94.85 44.3 94.55 44.15 94.3 44 94.15 43.8 94.05 43.6 93.9 43.4 93.85 43.1 93.8 42.85 93.8 42.5
L 93.8 38.7
Q 93.8 38.4 93.85 38.1 93.9 37.8 94.05 37.55 94.15 37.35 94.3 37.15 94.55 36.95 94.85 36.8 95.05 36.65 95.35 36.55 95.6 36.45 95.95 36.35 96.2 36.3 96.5 36.3 96.8 36.25 97.1 36.25
L 108.65 36.25
Q 108.7 36.2 108.7 36 108.75 35.85 108.75 35.6
L 108.75 35.3
Q 108.75 35.05 108.7 34.9 108.7 34.75 108.65 34.6
L 95.2 34.6
Q 94.35 34.6 94.05 34.2 93.85 34 93.75 33.7 93.65 33.45 93.7 33.05 93.65 32.7 93.75 32.4
M 144.25 13.75
Q 144.25 13.3 144.4 13 144.5 12.7 144.8 12.5 145.05 12.35 145.45 12.25 145.8 12.2 146.25 12.2 146.65 12.2 147 12.25 147.35 12.35 147.65 12.5 147.9 12.7 148.05 13 148.2 13.3 148.2 13.75
L 148.2 43.45
Q 148.2 43.9 148.05 44.25 147.9 44.55 147.65 44.75 147.35 44.9 147 44.95 146.65 45.05 146.25 45.05 145.8 45.05 145.45 44.95 145.05 44.9 144.8 44.75 144.5 44.55 144.4 44.25 144.25 43.9 144.25 43.45
L 144.25 13.75
M 128.2 14.8
Q 129.05 14.65 130 14.65 131.7 14.65 133.25 15.35 134.7 16.1 135.85 17.45 136.35 18.15 136.8 19 137.2 19.8 137.45 20.8 137.65 21.8 137.8 22.9 137.95 24.05 137.95 25.25 137.95 26.55 137.8 27.65 137.65 28.75 137.45 29.7 137.2 30.7 136.8 31.55 136.35 32.35 135.85 33.05 135.3 33.7 134.65 34.25 133.95 34.75 133.25 35.1 131.7 35.85 130 35.85 129.05 35.85 128.2 35.65 127.4 35.45 126.65 35.1 125.9 34.75 125.25 34.25 124.6 33.7 124.1 33.05 123.5 32.35 123.1 31.55 122.65 30.7 122.4 29.7 122.05 28.75 121.95 27.65 121.8 26.55 121.8 25.25 121.8 24.05 121.95 22.9 122.05 21.8 122.4 20.8 122.65 19.8 123.1 19 123.5 18.15 124.1 17.45 124.6 16.8 125.25 16.25 125.9 15.75 126.65 15.35 127.4 15 128.2 14.8
M 188.15 12.35
Q 188.45 12.2 188.8 12.15 189.15 12.05 189.55 12.05 189.95 12.05 190.3 12.15 190.65 12.2 191 12.35 191.25 12.5 191.4 12.8 191.55 13.1 191.55 13.55
L 191.55 19.1 194.95 19.1
Q 195.45 19.1 195.75 19.25 196.05 19.35 196.2 19.6 196.3 19.85 196.35 20.2 196.4 20.55 196.4 20.95 196.4 21.65 196.2 22.2 196.05 22.5 195.75 22.6 195.45 22.75 194.95 22.75
L 191.55 22.75 191.55 27.95
Q 191.55 28.2 191.5 28.4 191.4 28.6 191.25 28.75 191.1 28.95 190.95 29.1 190.8 29.25 190.65 29.35 190.5 29.45 190.35 29.5 190.15 29.55 189.95 29.55 189.7 29.6 189.45 29.6 189.25 29.6 189.05 29.6 188.8 29.6 188.5 29.55 188.25 29.45 188 29.3 187.65 29.15 187.55 28.85 187.4 28.55 187.4 28.15
L 187.4 13.55
Q 187.4 13.1 187.6 12.8 187.75 12.5 188.15 12.35
M 182.8 14.6
L 182.8 24.3
Q 182.8 26.2 181.85 27.1 180.85 28.05 178.95 28.05
L 171.8 28.05
Q 170.8 28.05 170.05 27.85 169.25 27.6 168.7 27.1 167.55 26.15 167.55 24.05
L 167.55 14.6
Q 167.55 14.15 167.7 13.9 167.9 13.6 168.2 13.4 168.55 13.25 168.85 13.15 169.25 13.05 169.65 13.05 169.95 13.05 170.25 13.15 170.45 13.2 170.6 13.3 170.8 13.35 171 13.45 171.15 13.5 171.3 13.6 171.4 13.75 171.5 13.85 171.55 14 171.6 14.2 171.65 14.4 171.65 14.6
L 171.65 17.55 178.7 17.55 178.7 14.6
Q 178.7 14.15 178.85 13.9 179 13.6 179.35 13.4 179.65 13.25 180 13.15 180.3 13.05 180.6 13.05 181 13.05 181.35 13.15 181.5 13.2 181.65 13.3 181.8 13.35 181.95 13.45 182.4 13.6 182.6 13.85 182.8 14.15 182.8 14.6
M 177.3 30.65
Q 178.2 30.4 179.2 30.25 180.25 30.15 181.45 30.15 182.55 30.15 183.6 30.25 184.65 30.4 185.6 30.65 186.55 30.9 187.4 31.3 188.2 31.65 188.9 32.15 189.55 32.65 190.05 33.25 190.55 33.8 190.95 34.5 191.25 35.2 191.45 36 191.65 36.8 191.65 37.65 191.65 38.5 191.45 39.25 191.25 40.05 190.95 40.7 190.55 41.4 190.05 42 189.5 42.55 188.85 43.05 188.2 43.55 187.35 43.9 186.55 44.3 185.6 44.55 184.65 44.8 183.6 44.9 182.55 45.05 181.45 45.05 180.25 45.05 179.2 44.9 178.2 44.8 177.3 44.55 175.5 44.05 174.15 43.1 173.5 42.6 172.95 42 172.45 41.45 172.1 40.75 171.7 40.1 171.55 39.35 171.35 38.55 171.35 37.65 171.35 36.75 171.55 35.95 171.7 35.15 172.1 34.45 172.45 33.75 172.95 33.15 173.5 32.55 174.15 32.05 174.8 31.6 175.6 31.25 176.4 30.9 177.3 30.65
M 226.2 12.9
Q 226.35 13.2 226.35 13.65
L 226.35 26.5
Q 226.35 26.95 226.2 27.25 226.05 27.5 225.75 27.65 225.45 27.8 225.1 27.9 224.75 27.95 224.4 27.95 223.9 27.95 223.6 27.85 223.4 27.85 223.2 27.75 223 27.7 222.8 27.6 222.65 27.55 222.5 27.45 222.4 27.35 222.35 27.2 222.25 27.05 222.2 26.9 222.2 26.7 222.2 26.5
L 222.2 21.75 216.95 21.75
Q 216.8 21.75 216.7 21.7 216.6 21.7 216.5 21.7
L 216.5 23.6
Q 216.5 24.6 216.3 25.3 216.05 26 215.6 26.4 215.1 26.85 214.35 27.05 213.55 27.25 212.5 27.25
L 205.7 27.25
Q 204.7 27.25 203.9 27.05 203.05 26.85 202.55 26.4 202 26 201.7 25.3 201.45 24.6 201.45 23.6
L 201.45 14.8
Q 201.45 14.4 201.6 14.05 201.8 13.7 202.1 13.45 202.45 13.25 202.75 13.15 203.05 13.05 203.35 13.05 203.5 13.05 203.7 13.1 203.9 13.15 204.1 13.2 204.5 13.35 204.7 13.5 204.85 13.6 205 13.75 205.15 13.9 205.3 14.05 205.4 14.2 205.5 14.4 205.55 14.6 205.55 14.8
L 205.55 17.1 212.4 17.1 212.4 14.8
Q 212.35 14.4 212.55 14.05 212.7 13.7 213.05 13.45 213.65 13.05 214.5 13.05 214.7 13.05 214.85 13.1 215 13.15 215.15 13.2 215.5 13.35 215.9 13.5 216.1 13.65 216.2 13.8 216.3 13.95 216.35 14.1 216.4 14.3 216.45 14.5 216.5 14.7 216.5 14.95
L 216.5 18.1
Q 216.6 18.1 216.7 18.1 216.8 18.05 216.95 18.05
L 222.2 18.05 222.2 13.65
Q 222.2 13.25 222.35 12.9 222.55 12.6 222.9 12.45 223.25 12.3 223.65 12.25 224 12.2 224.4 12.2 224.75 12.2 225.1 12.25 225.45 12.3 225.75 12.45 226.05 12.6 226.2 12.9
M 221.9 31.35
Q 222.05 31.1 222.4 30.85 222.7 30.7 223 30.6 223.35 30.5 223.65 30.5 223.8 30.5 224 30.5 224.2 30.55 224.4 30.6 224.6 30.65 224.8 30.7 224.95 30.8 225.1 30.9 225.2 31 225.35 31.1 225.5 31.25 225.65 31.35 225.75 31.5 225.85 31.65 225.9 31.8 225.9 32
L 225.9 41.5
Q 225.9 42.1 225.7 42.6 225.5 43.1 225.1 43.55 224.65 43.95 224.1 44.15 223.6 44.35 223 44.35
L 223 44.3
Q 221.25 44.3 219.6 44.3 217.9 44.3 216.25 44.35 214.6 44.35 212.9 44.35 211.2 44.35 209.5 44.35 208.8 44.35 208.3 44.15 207.8 43.95 207.5 43.6 207.2 43.15 207.05 42.65 206.9 42.15 206.9 41.5
L 206.9 32
Q 206.9 31.65 207.05 31.35 207.2 31.1 207.5 30.85 207.8 30.7 208.2 30.6 208.55 30.5 209 30.5 209.2 30.5 209.6 30.6 210.05 30.7 210.35 30.9 210.45 31 210.55 31.1 210.65 31.25 210.75 31.35 211 31.65 211 32
L 211 34.35 221.7 34.35 221.7 32
Q 221.7 31.65 221.9 31.35
M 211.55 40.9
Q 211.7 40.95 211.95 41
L 220.75 41
Q 220.95 41 221.15 40.95 221.35 40.9 221.5 40.85 221.6 40.8 221.65 40.65 221.7 40.5 221.7 40.25
L 221.7 38.55
Q 221.7 38.25 221.65 38.1 221.6 37.9 221.45 37.85 221.3 37.8 221.1 37.8 220.95 37.75 220.75 37.75
L 212 37.75
Q 211.45 37.75 211.25 37.85 211.1 37.95 211.05 38.1 210.95 38.3 211 38.55
L 211 40.25
Q 210.95 40.5 211.05 40.65 211.1 40.8 211.25 40.8 211.35 40.85 211.55 40.9
M 205.7 23.1
Q 205.75 23.45 205.9 23.65
L 212.25 23.65
Q 212.25 23.5 212.3 23.35 212.3 23.2 212.35 23 212.35 22.85 212.35 22.7 212.35 22.55 212.35 22.3
L 212.35 20.7 205.6 20.7 205.6 22.3
Q 205.6 22.8 205.7 23.1
M 177.15 34.85
Q 176.35 35.35 175.95 36.05 175.55 36.75 175.55 37.65 175.55 38.5 175.95 39.2 176.35 39.85 177.15 40.3 177.95 40.8 179.05 41.05 180.1 41.3 181.5 41.3 182.85 41.3 183.9 41.05 185 40.8 185.8 40.3 186.6 39.85 187 39.2 187.45 38.5 187.45 37.65 187.45 36.75 187 36.05 186.6 35.35 185.8 34.85 185 34.4 183.9 34.15 182.85 33.85 181.5 33.85 180.1 33.85 179.05 34.15 177.95 34.4 177.15 34.85
M 171.75 23.7
Q 171.85 24.1 172 24.35
L 176.75 24.35
Q 177 24.35 177.2 24.35 177.45 24.35 177.7 24.3 177.9 24.3 178.15 24.3 178.35 24.3 178.55 24.3 178.55 24.15 178.6 23.95 178.6 23.8 178.65 23.6 178.65 23.3 178.65 22.9
L 178.65 21.05 171.7 21.05 171.7 22.9
Q 171.7 23.35 171.75 23.7
M 128.25 18.75
Q 127.45 19.25 126.9 20.15 126.3 21.1 126.05 22.35 125.75 23.65 125.75 25.25 125.75 26.9 126.05 28.2 126.3 29.45 126.9 30.4 127.45 31.35 128.25 31.75 129 32.25 130 32.25 130.9 32.25 131.65 31.75 132.4 31.35 133 30.4 133.6 29.45 133.9 28.2 134.15 26.9 134.15 25.25 134.15 23.65 133.9 22.35 133.6 21.1 133 20.15 132.4 19.25 131.65 18.75 130.9 18.3 130 18.3 129 18.3 128.25 18.75 Z"/>

<path fill="#FFFFFF" stroke="none" d="
M 337.4 33.8
Q 336.3 33.8 335.5 34.55 334.75 35.35 334.75 36.45 334.75 37.55 335.5 38.3
L 340.85 43.65 335.35 49.2
Q 334.6 50 334.6 51.05 334.6 52.2 335.35 53 336.1 53.75 337.2 53.75 338.35 53.75 339.1 52.95
L 346.55 45.55
Q 347.35 44.8 347.35 43.65 347.35 42.55 346.55 41.75
L 339.3 34.55
Q 338.5 33.8 337.4 33.8
M 87.85 643.45
L 86.25 643.45
Q 85.95 643.45 85.7 643.65
L 82 647.1
Q 81.75 647.3 81.7 647.45 81.65 647.55 81.8 647.75
L 83.2 649.35
Q 83.45 649.65 83.8 649.25
L 85.25 647.9 85.25 661.55
Q 85.25 661.85 85.35 661.95 85.45 662.05 85.7 662.05
L 88.1 662.05
Q 88.35 662.05 88.45 661.95 88.55 661.8 88.55 661.55
L 88.55 644.3
Q 88.55 643.7 88.45 643.55 88.35 643.45 87.85 643.45
M 222.4 30.85
Q 222.05 31.1 221.9 31.35 221.7 31.65 221.7 32
L 221.7 34.35 211 34.35 211 32
Q 211 31.65 210.75 31.35 210.65 31.25 210.55 31.1 210.45 31 210.35 30.9 210.05 30.7 209.6 30.6 209.2 30.5 209 30.5 208.55 30.5 208.2 30.6 207.8 30.7 207.5 30.85 207.2 31.1 207.05 31.35 206.9 31.65 206.9 32
L 206.9 41.5
Q 206.9 42.15 207.05 42.65 207.2 43.15 207.5 43.6 207.8 43.95 208.3 44.15 208.8 44.35 209.5 44.35 211.2 44.35 212.9 44.35 214.6 44.35 216.25 44.35 217.9 44.3 219.6 44.3 221.25 44.3 223 44.3
L 223 44.35
Q 223.6 44.35 224.1 44.15 224.65 43.95 225.1 43.55 225.5 43.1 225.7 42.6 225.9 42.1 225.9 41.5
L 225.9 32
Q 225.9 31.8 225.85 31.65 225.75 31.5 225.65 31.35 225.5 31.25 225.35 31.1 225.2 31 225.1 30.9 224.95 30.8 224.8 30.7 224.6 30.65 224.4 30.6 224.2 30.55 224 30.5 223.8 30.5 223.65 30.5 223.35 30.5 223 30.6 222.7 30.7 222.4 30.85
M 211.95 41
Q 211.7 40.95 211.55 40.9 211.35 40.85 211.25 40.8 211.1 40.8 211.05 40.65 210.95 40.5 211 40.25
L 211 38.55
Q 210.95 38.3 211.05 38.1 211.1 37.95 211.25 37.85 211.45 37.75 212 37.75
L 220.75 37.75
Q 220.95 37.75 221.1 37.8 221.3 37.8 221.45 37.85 221.6 37.9 221.65 38.1 221.7 38.25 221.7 38.55
L 221.7 40.25
Q 221.7 40.5 221.65 40.65 221.6 40.8 221.5 40.85 221.35 40.9 221.15 40.95 220.95 41 220.75 41
L 211.95 41
M 226.35 13.65
Q 226.35 13.2 226.2 12.9 226.05 12.6 225.75 12.45 225.45 12.3 225.1 12.25 224.75 12.2 224.4 12.2 224 12.2 223.65 12.25 223.25 12.3 222.9 12.45 222.55 12.6 222.35 12.9 222.2 13.25 222.2 13.65
L 222.2 18.05 216.95 18.05
Q 216.8 18.05 216.7 18.1 216.6 18.1 216.5 18.1
L 216.5 14.95
Q 216.5 14.7 216.45 14.5 216.4 14.3 216.35 14.1 216.3 13.95 216.2 13.8 216.1 13.65 215.9 13.5 215.5 13.35 215.15 13.2 215 13.15 214.85 13.1 214.7 13.05 214.5 13.05 213.65 13.05 213.05 13.45 212.7 13.7 212.55 14.05 212.35 14.4 212.4 14.8
L 212.4 17.1 205.55 17.1 205.55 14.8
Q 205.55 14.6 205.5 14.4 205.4 14.2 205.3 14.05 205.15 13.9 205 13.75 204.85 13.6 204.7 13.5 204.5 13.35 204.1 13.2 203.9 13.15 203.7 13.1 203.5 13.05 203.35 13.05 203.05 13.05 202.75 13.15 202.45 13.25 202.1 13.45 201.8 13.7 201.6 14.05 201.45 14.4 201.45 14.8
L 201.45 23.6
Q 201.45 24.6 201.7 25.3 202 26 202.55 26.4 203.05 26.85 203.9 27.05 204.7 27.25 205.7 27.25
L 212.5 27.25
Q 213.55 27.25 214.35 27.05 215.1 26.85 215.6 26.4 216.05 26 216.3 25.3 216.5 24.6 216.5 23.6
L 216.5 21.7
Q 216.6 21.7 216.7 21.7 216.8 21.75 216.95 21.75
L 222.2 21.75 222.2 26.5
Q 222.2 26.7 222.2 26.9 222.25 27.05 222.35 27.2 222.4 27.35 222.5 27.45 222.65 27.55 222.8 27.6 223 27.7 223.2 27.75 223.4 27.85 223.6 27.85 223.9 27.95 224.4 27.95 224.75 27.95 225.1 27.9 225.45 27.8 225.75 27.65 226.05 27.5 226.2 27.25 226.35 26.95 226.35 26.5
L 226.35 13.65
M 205.9 23.65
Q 205.75 23.45 205.7 23.1 205.6 22.8 205.6 22.3
L 205.6 20.7 212.35 20.7 212.35 22.3
Q 212.35 22.55 212.35 22.7 212.35 22.85 212.35 23 212.3 23.2 212.3 23.35 212.25 23.5 212.25 23.65
L 205.9 23.65
M 179.2 30.25
Q 178.2 30.4 177.3 30.65 176.4 30.9 175.6 31.25 174.8 31.6 174.15 32.05 173.5 32.55 172.95 33.15 172.45 33.75 172.1 34.45 171.7 35.15 171.55 35.95 171.35 36.75 171.35 37.65 171.35 38.55 171.55 39.35 171.7 40.1 172.1 40.75 172.45 41.45 172.95 42 173.5 42.6 174.15 43.1 175.5 44.05 177.3 44.55 178.2 44.8 179.2 44.9 180.25 45.05 181.45 45.05 182.55 45.05 183.6 44.9 184.65 44.8 185.6 44.55 186.55 44.3 187.35 43.9 188.2 43.55 188.85 43.05 189.5 42.55 190.05 42 190.55 41.4 190.95 40.7 191.25 40.05 191.45 39.25 191.65 38.5 191.65 37.65 191.65 36.8 191.45 36 191.25 35.2 190.95 34.5 190.55 33.8 190.05 33.25 189.55 32.65 188.9 32.15 188.2 31.65 187.4 31.3 186.55 30.9 185.6 30.65 184.65 30.4 183.6 30.25 182.55 30.15 181.45 30.15 180.25 30.15 179.2 30.25
M 175.95 36.05
Q 176.35 35.35 177.15 34.85 177.95 34.4 179.05 34.15 180.1 33.85 181.5 33.85 182.85 33.85 183.9 34.15 185 34.4 185.8 34.85 186.6 35.35 187 36.05 187.45 36.75 187.45 37.65 187.45 38.5 187 39.2 186.6 39.85 185.8 40.3 185 40.8 183.9 41.05 182.85 41.3 181.5 41.3 180.1 41.3 179.05 41.05 177.95 40.8 177.15 40.3 176.35 39.85 175.95 39.2 175.55 38.5 175.55 37.65 175.55 36.75 175.95 36.05
M 182.8 24.3
L 182.8 14.6
Q 182.8 14.15 182.6 13.85 182.4 13.6 181.95 13.45 181.8 13.35 181.65 13.3 181.5 13.2 181.35 13.15 181 13.05 180.6 13.05 180.3 13.05 180 13.15 179.65 13.25 179.35 13.4 179 13.6 178.85 13.9 178.7 14.15 178.7 14.6
L 178.7 17.55 171.65 17.55 171.65 14.6
Q 171.65 14.4 171.6 14.2 171.55 14 171.5 13.85 171.4 13.75 171.3 13.6 171.15 13.5 171 13.45 170.8 13.35 170.6 13.3 170.45 13.2 170.25 13.15 169.95 13.05 169.65 13.05 169.25 13.05 168.85 13.15 168.55 13.25 168.2 13.4 167.9 13.6 167.7 13.9 167.55 14.15 167.55 14.6
L 167.55 24.05
Q 167.55 26.15 168.7 27.1 169.25 27.6 170.05 27.85 170.8 28.05 171.8 28.05
L 178.95 28.05
Q 180.85 28.05 181.85 27.1 182.8 26.2 182.8 24.3
M 172 24.35
Q 171.85 24.1 171.75 23.7 171.7 23.35 171.7 22.9
L 171.7 21.05 178.65 21.05 178.65 22.9
Q 178.65 23.3 178.65 23.6 178.6 23.8 178.6 23.95 178.55 24.15 178.55 24.3 178.35 24.3 178.15 24.3 177.9 24.3 177.7 24.3 177.45 24.35 177.2 24.35 177 24.35 176.75 24.35
L 172 24.35
M 188.8 12.15
Q 188.45 12.2 188.15 12.35 187.75 12.5 187.6 12.8 187.4 13.1 187.4 13.55
L 187.4 28.15
Q 187.4 28.55 187.55 28.85 187.65 29.15 188 29.3 188.25 29.45 188.5 29.55 188.8 29.6 189.05 29.6 189.25 29.6 189.45 29.6 189.7 29.6 189.95 29.55 190.15 29.55 190.35 29.5 190.5 29.45 190.65 29.35 190.8 29.25 190.95 29.1 191.1 28.95 191.25 28.75 191.4 28.6 191.5 28.4 191.55 28.2 191.55 27.95
L 191.55 22.75 194.95 22.75
Q 195.45 22.75 195.75 22.6 196.05 22.5 196.2 22.2 196.4 21.65 196.4 20.95 196.4 20.55 196.35 20.2 196.3 19.85 196.2 19.6 196.05 19.35 195.75 19.25 195.45 19.1 194.95 19.1
L 191.55 19.1 191.55 13.55
Q 191.55 13.1 191.4 12.8 191.25 12.5 191 12.35 190.65 12.2 190.3 12.15 189.95 12.05 189.55 12.05 189.15 12.05 188.8 12.15
M 130 14.65
Q 129.05 14.65 128.2 14.8 127.4 15 126.65 15.35 125.9 15.75 125.25 16.25 124.6 16.8 124.1 17.45 123.5 18.15 123.1 19 122.65 19.8 122.4 20.8 122.05 21.8 121.95 22.9 121.8 24.05 121.8 25.25 121.8 26.55 121.95 27.65 122.05 28.75 122.4 29.7 122.65 30.7 123.1 31.55 123.5 32.35 124.1 33.05 124.6 33.7 125.25 34.25 125.9 34.75 126.65 35.1 127.4 35.45 128.2 35.65 129.05 35.85 130 35.85 131.7 35.85 133.25 35.1 133.95 34.75 134.65 34.25 135.3 33.7 135.85 33.05 136.35 32.35 136.8 31.55 137.2 30.7 137.45 29.7 137.65 28.75 137.8 27.65 137.95 26.55 137.95 25.25 137.95 24.05 137.8 22.9 137.65 21.8 137.45 20.8 137.2 19.8 136.8 19 136.35 18.15 135.85 17.45 134.7 16.1 133.25 15.35 131.7 14.65 130 14.65
M 126.9 20.15
Q 127.45 19.25 128.25 18.75 129 18.3 130 18.3 130.9 18.3 131.65 18.75 132.4 19.25 133 20.15 133.6 21.1 133.9 22.35 134.15 23.65 134.15 25.25 134.15 26.9 133.9 28.2 133.6 29.45 133 30.4 132.4 31.35 131.65 31.75 130.9 32.25 130 32.25 129 32.25 128.25 31.75 127.45 31.35 126.9 30.4 126.3 29.45 126.05 28.2 125.75 26.9 125.75 25.25 125.75 23.65 126.05 22.35 126.3 21.1 126.9 20.15
M 144.4 13
Q 144.25 13.3 144.25 13.75
L 144.25 43.45
Q 144.25 43.9 144.4 44.25 144.5 44.55 144.8 44.75 145.05 44.9 145.45 44.95 145.8 45.05 146.25 45.05 146.65 45.05 147 44.95 147.35 44.9 147.65 44.75 147.9 44.55 148.05 44.25 148.2 43.9 148.2 43.45
L 148.2 13.75
Q 148.2 13.3 148.05 13 147.9 12.7 147.65 12.5 147.35 12.35 147 12.25 146.65 12.2 146.25 12.2 145.8 12.2 145.45 12.25 145.05 12.35 144.8 12.5 144.5 12.7 144.4 13
M 94.05 31.8
Q 93.85 32.1 93.75 32.4 93.65 32.7 93.7 33.05 93.65 33.45 93.75 33.7 93.85 34 94.05 34.2 94.35 34.6 95.2 34.6
L 108.65 34.6
Q 108.7 34.75 108.7 34.9 108.75 35.05 108.75 35.3
L 108.75 35.6
Q 108.75 35.85 108.7 36 108.7 36.2 108.65 36.25
L 97.1 36.25
Q 96.8 36.25 96.5 36.3 96.2 36.3 95.95 36.35 95.6 36.45 95.35 36.55 95.05 36.65 94.85 36.8 94.55 36.95 94.3 37.15 94.15 37.35 94.05 37.55 93.9 37.8 93.85 38.1 93.8 38.4 93.8 38.7
L 93.8 42.5
Q 93.8 42.85 93.85 43.1 93.9 43.4 94.05 43.6 94.15 43.8 94.3 44 94.55 44.15 94.85 44.3 95.05 44.4 95.35 44.45 95.6 44.55 95.95 44.6 96.2 44.65 96.5 44.7 96.8 44.7 97.1 44.7
L 111.75 44.7
Q 112.5 44.7 112.9 44.3 113.25 43.9 113.25 43.1 113.25 42.25 112.9 41.8 112.5 41.4 111.75 41.4
L 98.05 41.4
Q 97.95 41.25 97.9 41.05 97.9 40.9 97.9 40.7
L 97.9 40.25
Q 97.9 40.05 97.9 39.85 97.95 39.65 98.05 39.45
L 109.9 39.45
Q 110.5 39.45 111.05 39.35 111.6 39.3 112.05 39.05 112.5 38.9 112.75 38.5 112.95 38.1 112.95 37.45
L 112.95 33.8
Q 112.95 33.4 112.9 33.1 112.8 32.8 112.7 32.55 112.35 32.15 111.85 31.8 111.65 31.7 111.4 31.6 111.1 31.5 110.8 31.45 110.05 31.35 109.55 31.35
L 95.2 31.35
Q 94.75 31.35 94.45 31.45 94.2 31.6 94.05 31.8
M 105.8 19.15
Q 104.25 19.2 102.7 19.2 101.1 19.2 99.55 19.2 98.9 19.2 98.45 19.1 98.05 18.95 97.55 18.85
L 97.55 14.55
Q 97.55 14.1 97.3 13.8 97.2 13.65 97.1 13.5 97 13.4 96.9 13.35 96.75 13.2 96.55 13.1 96.35 13 96.15 12.95 95.95 12.9 95.75 12.85 95.6 12.85 95.5 12.85 95.15 12.85 94.8 12.95 94.45 13.05 94.15 13.25 93.85 13.45 93.65 13.8 93.5 14.1 93.5 14.55
L 93.5 18.95
Q 93.5 19.95 93.75 20.65 94 21.4 94.55 21.8 95 22.25 95.7 22.45 96.45 22.7 97.45 22.7
L 101.45 22.7 101.45 25.4 89.2 25.4
Q 88.75 25.4 88.4 25.55 88.1 25.7 88 25.95 87.9 26.25 87.85 26.6 87.75 26.9 87.75 27.25 87.75 27.65 87.85 28 87.9 28.3 88 28.55 88.1 28.85 88.4 29 88.75 29.1 89.2 29.1
L 117.4 29.1
Q 117.85 29.1 118.2 29 118.5 28.85 118.65 28.55 118.75 28.3 118.8 28 118.85 27.65 118.85 27.25 118.85 26.9 118.8 26.6 118.75 26.25 118.65 25.95 118.5 25.7 118.2 25.55 117.85 25.4 117.4 25.4
L 105.7 25.4 105.7 22.65 112.15 22.65
Q 112.55 22.65 112.9 22.5 113.25 22.4 113.45 22.1 113.65 21.9 113.75 21.55 113.85 21.25 113.85 20.8 113.85 20.5 113.75 20.15 113.65 19.85 113.45 19.6 113.25 19.35 112.9 19.25 112.55 19.1 112.15 19.1 110.5 19.1 108.95 19.15 107.4 19.15 105.8 19.15 Z"/>

<path fill="#186CA3" stroke="none" d="
M 466 53.85
Q 466.8 54.65 467.95 54.65 469.05 54.65 469.8 53.85 470.6 53.05 470.6 51.95 470.6 50.9 469.8 50.15 469.05 49.35 467.95 49.35 466.8 49.35 466 50.15 465.25 50.9 465.25 51.95 465.25 53.05 466 53.85
M 467.95 33.4
Q 466.8 33.4 466 34.2 465.25 35 465.25 36.1 465.25 37.15 466 37.9 466.8 38.7 467.95 38.7 469.05 38.7 469.8 37.9 470.6 37.15 470.6 36.1 470.6 35 469.8 34.2 469.05 33.4 467.95 33.4
M 447.9 47.15
L 447.9 44.5 461.15 44.5
Q 461.3 44.5 461.5 44.35 461.65 44.2 461.65 44
L 461.65 41.85
Q 461.65 41.7 461.5 41.5 461.3 41.3 461.15 41.3
L 430.65 41.3
Q 430.45 41.3 430.3 41.45 430.15 41.65 430.15 41.85
L 430.15 44
Q 430.15 44.5 430.65 44.5
L 443.9 44.5 443.9 47.15 435.6 47.15
Q 435.45 47.15 435.3 47.3 435.15 47.4 435.15 47.6
L 435.15 49.95
Q 435.15 50.1 435.3 50.25 435.45 50.35 435.6 50.35
L 452.4 50.35
Q 452.7 50.35 452.8 50.45 452.85 50.55 452.85 50.9
L 452.85 51.85
Q 452.85 52.2 452.8 52.25 452.7 52.3 452.4 52.3
L 437.5 52.3
Q 436.15 52.3 435.65 52.8 435.2 53.3 435.2 54.45
L 435.2 58.4
Q 435.2 59.55 435.7 60 436.2 60.5 437.55 60.5
L 457.1 60.5
Q 457.25 60.5 457.4 60.35 457.6 60.2 457.6 60
L 457.6 57.75
Q 457.6 57.5 457.4 57.4 457.25 57.25 457.1 57.25
L 439.6 57.25
Q 439.3 57.25 439.2 57.2 439.15 57.15 439.15 56.85
L 439.15 55.7
Q 439.15 55.45 439.2 55.35 439.3 55.25 439.6 55.25
L 454.4 55.25
Q 455.8 55.25 456.3 54.85 456.75 54.45 456.75 53.2
L 456.75 49.2
Q 456.75 48 456.3 47.55 455.8 47.15 454.4 47.15
L 447.9 47.15
M 456.5 36.35
L 456.5 30.25
Q 456.5 28.85 455.95 28.3 455.45 27.8 453.8 27.8
L 437.95 27.8
Q 436.6 27.8 435.95 28.35 435.25 28.9 435.25 30.25
L 435.25 36.35
Q 435.25 37.7 435.8 38.2 436.3 38.75 437.95 38.75
L 453.8 38.75
Q 455.15 38.75 455.85 38.2 456.5 37.65 456.5 36.35
M 452.4 31.1
Q 452.55 31.2 452.55 31.45
L 452.55 35.1
Q 452.55 35.4 452.45 35.5 452.35 35.55 452.05 35.55
L 439.7 35.55
Q 439.4 35.55 439.3 35.5 439.2 35.4 439.2 35.1
L 439.2 31.4
Q 439.2 31.15 439.3 31.1 439.4 31 439.7 31
L 452.05 31
Q 452.3 31 452.4 31.1
M 425 27.7
L 421.9 27.7
Q 421.4 27.7 421.4 28.2
L 421.4 60.5
Q 421.4 60.95 421.9 60.95
L 425 60.95
Q 425.45 60.95 425.45 60.5
L 425.45 28.2
Q 425.45 27.7 425 27.7
M 415.85 29.9
Q 415.85 29.75 415.7 29.6 415.55 29.45 415.35 29.45
L 412.3 29.45
Q 412.1 29.45 411.95 29.6 411.8 29.75 411.8 29.9
L 411.8 37.65 404.05 37.65 404.05 29.95
Q 404.05 29.8 403.9 29.65 403.75 29.55 403.55 29.55
L 400.5 29.55
Q 400.3 29.55 400.15 29.65 400.05 29.8 400.05 29.95
L 400.05 48.85
Q 400.05 50.25 400.6 50.8 401.15 51.3 402.7 51.3
L 413.2 51.3
Q 414.7 51.3 415.3 50.7 415.85 50.1 415.85 48.95
L 415.85 29.9
M 411.8 40.85
L 411.8 47.4
Q 411.8 48 411.15 48
L 404.7 48
Q 404.05 48 404.05 47.4
L 404.05 40.85 411.8 40.85
M 392.05 59.65
L 392.05 57.15
Q 392.05 56.95 391.9 56.85 391.7 56.75 391.5 56.75
L 373.7 56.75
Q 373.35 56.75 373.2 56.65 373.1 56.55 373.1 56.15
L 373.1 50.5
Q 373.1 50.3 372.95 50.15 372.75 50 372.55 50
L 369.55 50
Q 369.35 50 369.2 50.15 369.05 50.3 369.05 50.5
L 369.05 57.55
Q 369.05 58.95 369.6 59.5 370.15 60.1 371.7 60.1
L 391.5 60.1
Q 391.75 60.1 391.9 60 392.05 59.9 392.05 59.65
M 364.85 43.9
Q 364.65 43.9 364.5 44.05 364.35 44.2 364.35 44.4
L 364.35 46.7
Q 364.35 46.85 364.5 47.05 364.65 47.25 364.85 47.25
L 378.35 47.25 378.35 53.35
Q 378.35 53.85 378.85 53.85
L 381.9 53.85
Q 382.4 53.85 382.4 53.35
L 382.4 47.25 395.35 47.25
Q 395.5 47.25 395.7 47.05 395.85 46.85 395.85 46.7
L 395.85 44.4
Q 395.85 44.25 395.7 44.05 395.5 43.9 395.35 43.9
L 364.85 43.9
M 383.05 32
Q 383.4 32 383.55 32.05 383.7 32.1 383.65 32.2 383.6 32.3 383.4 32.4 383.25 32.55 383.05 32.7 381.65 33.55 379.9 34.4 378.1 35.2 376.05 35.95 374 36.7 371.8 37.35 369.6 37.95 367.35 38.5 367.15 38.55 367 38.75 366.85 39 366.9 39.2
L 367.6 41.35
Q 367.65 41.55 367.9 41.65 368.1 41.7 368.4 41.65 369.6 41.45 371.05 41.1 372.5 40.75 374.05 40.3 375.65 39.85 377.25 39.25 378.85 38.65 380.4 37.95 381.65 38.4 383.15 38.85 384.6 39.35 386.1 39.75 387.65 40.15 389.15 40.55 390.65 40.9 392 41.1 392.25 41.2 392.5 41.05 392.75 40.9 392.8 40.7
L 393.65 38.7
Q 393.8 38.45 393.65 38.2 393.5 38 393.25 37.95 392.3 37.75 391.2 37.55 390.05 37.3 388.9 37.05 387.8 36.75 386.7 36.45 385.6 36.15 384.65 35.85 385.85 35.15 386.9 34.4 387.95 33.65 388.7 32.8 390.1 31.35 390.1 30.35 390.1 29.6 389.35 29.15 388.6 28.7 387.2 28.7
L 370.05 28.7
Q 369.6 28.7 369.6 29.15
L 369.6 31.55
Q 369.6 32 370.05 32
L 383.05 32 Z"/>

<path fill="#1E1E1E" stroke="none" d="
M 828.95 27.05
Q 829.05 27.25 829.15 27.45 829.25 27.65 829.35 27.85 829.5 28.25 829.7 28.7 829.95 29.1 830.2 29.6 830.45 30.1 830.6 30.6 830.8 31.1 830.95 31.55 831.15 32.05 831.35 32.5 831.55 33 831.75 33.45 831.9 33.9 832.05 34.35 832.2 34.8 832.3 35.15 832.45 35.95 832.55 36.7 832.7 37.5 832.75 38.25 832.8 39 832.8 39.75 832.85 40.5 832.85 41.2 832.85 41.6 832.85 42 832.8 42.4 832.8 42.9 832.75 43.4 832.75 43.85 832.7 44.35 832.65 44.8 832.6 45.3 832.55 45.8 832.5 46.3 832.45 46.75 832.35 47.25 832.3 47.7 832.2 48.1 832.1 48.5 831.7 50.05 831.15 51.55 830.9 52.3 830.5 53.1 830.1 53.9 829.55 54.75 829.45 54.95 829.35 55.15 829.25 55.3 829.15 55.5 829.05 55.7 828.95 55.9 828.9 56.05 828.9 56.25 828.8 56.6 829.1 56.9 829.2 57.05 829.45 57.15 829.75 57.25 830.1 57.35 830.45 57.35 830.7 57.3 831 57.2 831.3 57 831.5 56.75 831.7 56.55 831.9 56.3 832 56.1 832.55 55.1 833.2 53.85 833.9 52.55 834.75 51 835.15 50.1 835.45 48.85 835.65 48.3 835.8 47.7 835.95 47.05 836.15 46.4 836.3 45.75 836.4 45.1 836.5 44.45 836.55 43.75 836.6 43.15 836.65 42.5 836.65 41.85 836.65 41.2 836.65 40 836.55 38.85 836.45 37.75 836.25 36.6 836 35.6 835.7 34.55 835.4 33.6 835.05 32.65 834.85 32.25 834.65 31.8 834.45 31.4 834.25 30.9 833.95 30.5 833.75 30.1 833.55 29.65 833.4 29.25 833.1 28.85 832.85 28.4 832.65 28 832.45 27.65 832.3 27.25 832.1 26.95 831.95 26.65 831.8 26.45 831.6 26.2 831.4 26 831.2 25.75 831.05 25.55 830.85 25.4 830.5 25.3 830.2 25.25 829.8 25.3 829.2 25.5 828.95 25.7 828.85 25.85 828.75 26.05 828.7 26.2 828.7 26.35 828.7 26.5 828.75 26.7 828.85 26.9 828.95 27.05
M 819.35 46.1
Q 819.25 45.8 819.15 45.55 818.8 45.15 818.3 44.8 818.1 44.7 817.85 44.6 817.55 44.5 817.25 44.45 816.5 44.35 816 44.35
L 801.65 44.35
Q 801.2 44.35 800.9 44.45 800.65 44.6 800.5 44.8 800.3 45.1 800.2 45.4 800.1 45.7 800.15 46.05 800.1 46.45 800.2 46.7 800.3 47 800.5 47.2 800.8 47.6 801.65 47.6
L 815.1 47.6
Q 815.15 47.75 815.15 47.9 815.2 48.05 815.2 48.3
L 815.2 48.6
Q 815.2 48.85 815.15 49 815.15 49.2 815.1 49.25
L 803.55 49.25
Q 802.85 49.25 802.25 49.4 801.7 49.5 801.2 49.8 800.7 50.05 800.5 50.55 800.25 51.05 800.25 51.7
L 800.25 55.5
Q 800.25 55.85 800.3 56.1 800.35 56.4 800.5 56.6 800.6 56.8 800.75 57 801 57.15 801.3 57.3 801.5 57.4 801.8 57.45 802.05 57.55 802.4 57.6 802.65 57.65 802.95 57.7 803.25 57.7 803.55 57.7
L 818.2 57.7
Q 818.95 57.7 819.35 57.3 819.7 56.9 819.7 56.1 819.7 55.25 819.35 54.8 818.95 54.4 818.2 54.4
L 804.5 54.4
Q 804.4 54.25 804.35 54.05 804.35 53.9 804.35 53.7
L 804.35 53.25
Q 804.35 53.05 804.35 52.85 804.4 52.65 804.5 52.45
L 816.35 52.45
Q 816.95 52.45 817.5 52.35 818.05 52.3 818.5 52.05 818.95 51.9 819.2 51.5 819.4 51.1 819.4 50.45
L 819.4 46.8
Q 819.4 46.4 819.35 46.1
M 820.25 35.25
Q 820.35 34.95 820.35 34.55 820.35 34.15 820.25 33.85 820.1 33.5 819.9 33.25 819.45 32.7 818.85 32.7
L 806.05 32.7
Q 805.7 32.7 805.4 32.7 805.1 32.7 804.85 32.7 804.6 32.7 804.35 32.7 804.05 32.7 803.75 32.65 803.7 32.55 803.7 32.4 803.7 32.25 803.7 32.1 803.7 32 803.7 31.85 803.7 31.7 803.7 31.55
L 803.7 29.95
Q 804.2 29.85 804.8 29.8 805.35 29.75 805.95 29.75
L 818.1 29.75
Q 818.5 29.75 818.8 29.6 819.1 29.4 819.3 29.1 819.45 28.8 819.55 28.45 819.65 28.15 819.65 27.8 819.65 27.4 819.55 27.05 819.45 26.7 819.3 26.45 819.1 26.2 818.8 26.05 818.5 25.9 818.1 25.9
L 803.6 25.9
Q 803.2 25.9 802.8 25.95 802.4 25.95 802 26 801.65 26.05 801.3 26.15 800.95 26.25 800.6 26.4 800.2 26.65 799.9 27.25 799.7 27.55 799.65 27.95 799.55 28.3 799.55 28.8
L 799.55 33.65
Q 799.55 34.05 799.6 34.45 799.7 34.8 799.85 35.05 800 35.35 800.15 35.55 800.3 35.75 800.5 35.9 800.95 36.25 801.7 36.35 802 36.4 802.45 36.45 802.85 36.5 803.4 36.5
L 807.95 36.5 807.95 38.95 795.65 38.95
Q 794.7 38.95 794.5 39.5 794.35 39.8 794.3 40.15 794.25 40.5 794.25 40.95 794.25 41.25 794.3 41.55 794.35 41.85 794.5 42.1 794.6 42.4 794.9 42.55 795.2 42.7 795.65 42.7
L 823.85 42.7
Q 824.35 42.7 824.65 42.55 824.95 42.4 825.1 42.1 825.2 41.85 825.25 41.55 825.3 41.25 825.3 40.95 825.3 40.5 825.25 40.15 825.2 39.8 825.1 39.5 824.95 39.25 824.65 39.1 824.35 38.95 823.85 38.95
L 812.15 38.95 812.15 36.5 818.85 36.5
Q 819.45 36.5 819.9 35.85 820.1 35.55 820.25 35.25
M 779.35 43.4
Q 779.1 43.35 778.95 43.35 778.8 43.3 778.7 43.3 778.5 43.3 778.35 43.35 778.15 43.35 777.95 43.4 777.7 43.45 777.55 43.5 777.4 43.6 777.3 43.65 777.15 43.75 777 43.9 776.85 44 776.75 44.1 776.6 44.25 776.55 44.4 776.5 44.55 776.5 44.75
L 776.5 45
Q 776.4 45.45 776.35 45.85 776.3 46.25 776.3 46.55 776.25 46.95 776.2 47.25 776.1 47.6 776 47.9 775.95 48.2 775.75 48.55 775.55 48.85 775.3 49.2 775 49.55 774.65 49.9 774.3 50.3 773.9 50.75 773.35 51.25 772.75 51.65 772.15 52.05 771.5 52.4 770.8 52.75 770 53.05 769.25 53.4 768.25 53.7 767.95 53.8 767.8 53.95 767.55 54.05 767.45 54.2 767.25 54.55 767.25 54.95 767.25 55.35 767.4 55.75 767.55 56.15 767.85 56.5 768.1 56.85 768.4 57.05 768.7 57.2 769.05 57.2 769.15 57.2 769.25 57.2 769.35 57.2 769.5 57.15
L 769.55 57.15
Q 770.45 56.8 771.3 56.45 772.1 56.1 772.8 55.75 773.5 55.4 774.05 55.05 774.65 54.7 775.1 54.35 775.6 53.95 776.1 53.6 776.55 53.2 776.95 52.8 777.35 52.4 777.75 52 778.15 51.55 778.6 51.15 778.65 51.3 778.65 51.35 778.7 51.45 778.75 51.5 778.75 51.55 778.8 51.65 778.85 51.75 778.9 51.8 778.9 51.95 779.2 52.2 779.45 52.5 780.25 53.05 780.95 53.7 781.7 54.25 782.5 54.8 783.4 55.3 784.25 55.8 785.3 56.2 786.3 56.65 787.55 57.05
L 787.6 57.05
Q 787.65 57.1 787.75 57.1 787.85 57.15 788 57.15 788.35 57.15 788.65 57 788.9 56.9 789.15 56.65 789.45 56.4 789.55 56.05 789.7 55.7 789.7 55.25 789.7 54.7 789.4 54.3 789.1 53.9 788.5 53.7 787.55 53.35 786.75 53 785.95 52.6 785.25 52.15 784.55 51.75 784 51.3 783.4 50.85 783 50.3 782.4 49.8 782 49.3 781.6 48.75 781.35 48.15 781.05 47.65 780.9 47.1 780.75 46.55 780.75 45.95 780.7 45.85 780.7 45.75 780.7 45.65 780.7 45.5 780.7 45.4 780.7 45.3 780.7 45.15 780.65 45
L 780.65 44.75
Q 780.65 44.55 780.65 44.4 780.6 44.25 780.55 44.1 780.4 44 780.3 43.9 780.2 43.75 780.05 43.65 779.9 43.6 779.7 43.5 779.5 43.45 779.35 43.4
M 776.8 27.25
Q 776.4 26.9 775.85 26.7 775.25 26.5 774.55 26.5
L 765.2 26.5
Q 764.75 26.5 764.45 26.65 764.15 26.8 764 27.05 763.85 27.3 763.75 27.65 763.65 27.95 763.65 28.35 763.65 28.75 763.75 29.05 763.85 29.35 764 29.65 764.15 29.9 764.45 30.05 764.75 30.2 765.2 30.2
L 773.2 30.2
Q 773.15 30.7 773 31.2 772.9 31.65 772.75 32.15 772.55 32.65 772.15 33.2 771.75 33.8 771.2 34.45 770.75 34.9 770.4 35.2 770.05 35.55 769.75 35.85 769.4 36.2 769.1 36.45 768.75 36.75 768.45 37 768 37.25 767.55 37.5 767.15 37.75 766.7 38 766.25 38.25 765.7 38.5 765.15 38.75 764.45 39.05 764.25 39.15 764.1 39.3 763.95 39.4 763.85 39.6 763.75 39.8 763.7 40 763.6 40.25 763.6 40.5 763.6 40.95 763.75 41.3 763.85 41.65 764.1 42 764.3 42.3 764.6 42.5 764.85 42.65 765.25 42.65 765.3 42.65 765.35 42.65 765.4 42.65 765.5 42.65 765.55 42.65 765.6 42.65 765.65 42.6 765.75 42.55 767.05 42.2 768.25 41.65 769.5 41.1 770.6 40.3 771.7 39.55 772.65 38.7 773.6 37.85 774.4 36.9 776 35.1 776.8 33.1 777.25 32.15 777.45 31.25 777.65 30.4 777.65 29.6 777.65 28.1 776.8 27.25
M 788.75 26.95
Q 788.75 26.45 788.6 26.15 788.4 25.8 788.1 25.65 787.7 25.5 787.35 25.45 786.9 25.35 786.45 25.35 786.1 25.35 785.8 25.45 785.45 25.5 785.2 25.65 784.85 25.8 784.75 26.15 784.6 26.45 784.6 26.95
L 784.6 40.95
Q 784.6 41.4 784.75 41.7 784.85 42 785.2 42.15 785.45 42.3 785.8 42.4 786.1 42.45 786.45 42.45 786.9 42.45 787.35 42.4 787.7 42.3 788.1 42.15 788.4 42 788.6 41.7 788.75 41.4 788.75 40.95
L 788.75 26.95
M 738.95 45.4
Q 737.1 45.9 735.7 46.8 734.35 47.7 733.65 48.95 732.95 50.15 732.95 51.7 732.95 53.25 733.65 54.5 734.35 55.7 735.7 56.6 737.1 57.5 738.95 58 740.8 58.45 743.2 58.45 745.6 58.45 747.5 58 749.4 57.5 750.8 56.6 752.15 55.7 752.8 54.5 753.5 53.25 753.5 51.7 753.5 50.15 752.8 48.95 752.15 47.7 750.8 46.8 749.4 45.9 747.5 45.4 745.6 44.95 743.2 44.95 740.8 44.95 738.95 45.4
M 740.8 48.85
Q 741.9 48.65 743.25 48.65 744.6 48.65 745.75 48.85 746.85 49.05 747.75 49.45 748.6 49.85 749 50.4 749.4 51 749.4 51.7 749.4 52.4 749 52.95 748.6 53.5 747.75 53.9 746.85 54.25 745.75 54.5 744.6 54.7 743.25 54.7 741.9 54.7 740.8 54.5 739.7 54.25 738.85 53.9 738 53.5 737.55 52.95 737.1 52.4 737.1 51.7 737.1 51 737.55 50.4 738 49.85 738.85 49.45 739.7 49.05 740.8 48.85
M 743.35 34.75
Q 743.35 34.35 743.2 34.05 743.05 33.75 742.8 33.6 742.5 33.5 742.15 33.4 741.75 33.35 741.35 33.35 740.95 33.35 740.65 33.4 740.3 33.5 739.95 33.6 739.6 33.75 739.45 34.05 739.3 34.35 739.3 34.75
L 739.3 39.1 729.35 39.1
Q 728.5 39.1 728.3 39.65 728.15 39.9 728.1 40.25 728.05 40.6 728.05 41 728.05 41.35 728.1 41.65 728.15 41.95 728.3 42.25 728.4 42.5 728.7 42.65 728.95 42.8 729.35 42.8
L 757.35 42.8
Q 757.7 42.8 757.95 42.65 758.25 42.5 758.4 42.25 758.55 41.95 758.6 41.65 758.7 41.35 758.7 41 758.7 40.6 758.6 40.25 758.55 39.9 758.4 39.65 758.25 39.35 757.95 39.25 757.7 39.1 757.35 39.1
L 743.35 39.1 743.35 34.75
M 748.85 30.2
Q 748.9 30.35 748.95 30.5 748.95 30.7 748.95 31 748.95 32.05 748.85 33.1 748.8 33.65 748.75 34.3 748.65 34.9 748.6 35.55
L 748.6 35.8
Q 748.6 36.55 749.05 36.95 749.55 37.35 750.55 37.35 750.9 37.35 751.2 37.3 751.55 37.25 751.8 37.1 752.1 36.95 752.25 36.7 752.4 36.45 752.45 36.1 752.7 34.95 752.8 34 752.85 33.55 752.85 33.15 752.9 32.7 752.95 32.3 752.95 31.95 752.95 31.6 752.95 31.2 753 30.85 753 30.15 753 29.35 752.95 28.7 752.8 28.2 752.65 27.65 752.4 27.25 752.1 26.95 751.6 26.75 751.1 26.6 750.35 26.55
L 734.3 26.55
Q 734.05 26.6 733.8 26.75 733.55 26.9 733.4 27.15 733.2 27.4 733.15 27.7 733.05 28 733.05 28.4 733.05 28.85 733.15 29.15 733.2 29.5 733.4 29.7 733.55 29.95 733.8 30.05 734.05 30.2 734.3 30.2
L 748.85 30.2
M 714.6 41.15
Q 714.5 40.8 714.4 40.5 714.25 40.25 713.95 40.1 713.65 39.95 713.2 39.95
L 685.15 39.95
Q 684.6 39.95 684.3 40.1 683.95 40.25 683.85 40.5 683.7 40.8 683.65 41.15 683.55 41.45 683.55 41.85 683.55 42.25 683.65 42.55 683.7 42.8 683.85 43.05 683.95 43.3 684.3 43.4 684.6 43.55 685.15 43.55
L 713.2 43.55
Q 713.65 43.55 713.95 43.4 714.25 43.3 714.4 43.05 714.5 42.8 714.6 42.55 714.65 42.25 714.65 41.85 714.65 41.45 714.6 41.15
M 690.55 47.05
Q 690.15 47.25 690 47.55 689.85 47.85 689.85 48.2
L 689.85 54.4
Q 689.85 55.05 690 55.55 690.2 56.05 690.6 56.45 691 56.8 691.5 57 692.05 57.15 692.75 57.15
L 707.75 57.15
Q 708.15 57.15 708.5 57.05 708.8 56.9 708.95 56.65 709.1 56.4 709.2 56.05 709.25 55.75 709.25 55.35 709.25 55 709.2 54.65 709.1 54.35 708.95 54.05 708.8 53.75 708.5 53.6 708.15 53.45 707.75 53.45
L 695.7 53.45
Q 695.5 53.45 695.3 53.45 695.1 53.45 694.85 53.4 694.6 53.4 694.4 53.35 694.2 53.35 694.05 53.3
L 694.05 48.2
Q 694.05 48 694 47.85 693.95 47.65 693.8 47.5 693.7 47.35 693.55 47.25 693.4 47.15 693.2 47 693.05 46.95 692.85 46.9 692.7 46.8 692.55 46.75 692.4 46.7 692.2 46.7 692 46.65 691.8 46.65 691.45 46.65 691.15 46.75 690.85 46.85 690.55 47.05
M 700.7 36.05
Q 702.55 36.1 704.35 36.1 706.15 36.1 707.95 36.1 708.4 36.1 708.75 35.95 709.05 35.85 709.3 35.6 709.45 35.35 709.55 35 709.65 34.65 709.65 34.25 709.65 33.95 709.55 33.65 709.45 33.35 709.3 33.05 709.05 32.8 708.75 32.65 708.4 32.55 707.95 32.55 706.35 32.55 704.8 32.5 703.2 32.5 701.65 32.5 700.1 32.5 698.5 32.5 696.9 32.5 695.35 32.5 694.15 32.5 693.35 32.3
L 693.35 27.55
Q 693.35 27.1 693.1 26.8 693 26.65 692.9 26.5 692.8 26.4 692.7 26.35 692.55 26.2 692.35 26.1 692.15 26 691.95 25.95 691.75 25.9 691.55 25.85 691.4 25.85 691.3 25.85 690.95 25.85 690.6 25.95 690.25 26.05 689.95 26.25 689.65 26.45 689.45 26.8 689.3 27.1 689.3 27.55
L 689.3 32.35
Q 689.3 33.35 689.55 34.05 689.8 34.8 690.35 35.2 690.8 35.65 691.5 35.85 692.25 36.05 693.25 36.05 695.1 36.05 697 36.05 698.85 36.05 700.7 36.05
M 664.05 27.95
Q 663.75 27.8 663.45 27.8
L 658.2 27.8
Q 657.5 27.8 656.95 28 656.45 28.2 656 28.55 655.55 28.95 655.35 29.5 655.15 30 655.15 30.7
L 655.15 40.1
Q 655.15 40.85 655.35 41.3 655.55 41.8 656 42.05 656.45 42.35 657.1 42.5 657.7 42.6 658.6 42.6 659.15 42.6 659.8 42.6 660.5 42.6 661.25 42.55 661.95 42.55 662.65 42.5 663.3 42.45 663.85 42.4 664.1 42.3 664.35 42.1 664.55 41.9 664.75 41.65 664.95 41.4 665.05 41.15 665.15 40.85 665.15 40.55 665.15 40.15 665 39.85 664.9 39.5 664.65 39.25 664.4 39.05 664.1 38.9 663.85 38.8 663.6 38.8
L 663.35 38.8
Q 662.9 38.9 662.5 38.9 662.05 38.95 661.7 38.95 660.9 39 659.9 39.05 659.55 39.05 659.2 39 658.9 39 658.6 38.95
L 658.6 32.75
Q 658.6 32.6 658.6 32.4 658.6 32.25 658.6 32.05 658.6 31.75 658.8 31.4
L 663.45 31.4
Q 663.75 31.4 664.05 31.25 664.3 31.15 664.55 30.9 664.75 30.6 664.85 30.3 665 30 665 29.6 665 29.2 664.85 28.9 664.75 28.55 664.55 28.3 664.3 28.05 664.05 27.95
M 667.45 28.55
Q 666.95 28.95 666.75 29.6 666.5 30.25 666.5 31.2
L 666.5 39.2
Q 666.5 40.05 666.65 40.7 666.8 41.3 667.2 41.65 667.1 41.65 667.05 41.65 667 41.65 666.95 41.65 666.8 41.65 666.65 41.6 666.45 41.6 666.25 41.6 666 41.6 665.85 41.6 665.6 41.65 665.45 41.65 665.3 41.65 665.15 41.7 664.95 41.75 664.85 41.8 664.65 41.9 664.5 42 664.4099609375 42.0451171875 664.35 42.1 664.2775390625 42.167578125 664.25 42.25 664.15 42.4 664.1 42.6 664.05 42.8 664.05 43.05
L 664.05 49.2 652 49.2
Q 651.5 49.2 651.2 49.3 650.9 49.45 650.8 49.7 650.65 50 650.6 50.35 650.55 50.7 650.55 51.1 650.55 51.45 650.6 51.75 650.65 52.05 650.8 52.3 650.9 52.6 651.2 52.75 651.5 52.85 652 52.85
L 679.8 52.85
Q 680.25 52.85 680.55 52.75 680.85 52.6 681 52.3 681.15 52.05 681.2 51.75 681.3 51.45 681.3 51.1 681.3 50.7 681.2 50.35 681.15 50 681 49.7 680.85 49.45 680.55 49.3 680.25 49.2 679.8 49.2
L 668.25 49.2 668.25 43.05
Q 668.25 42.8 668.2 42.6 668.2 42.45 668.15 42.3 668.6 42.45 669.15 42.55 669.75 42.6 670.45 42.6
L 675.65 42.6
Q 676.05 42.6 676.35 42.5 676.65 42.35 676.85 42.05 677 41.8 677.1 41.45 677.2 41.15 677.2 40.8 677.2 40.4 677.1 40.05 677 39.75 676.85 39.5 676.65 39.3 676.35 39.15 676.05 39.05 675.65 39.05
L 671.4 39.05
Q 671.3 39.05 671.15 39.05 671 39.05 670.9 39 670.75 39 670.55 39 670.35 39 670.2 38.95 670.15 38.8 670.15 38.65 670.15 38.5 670.15 38.35 670.15 38.2 670.15 38 670.1 37.85 670.15 37.65
L 670.15 32.8
Q 670.15 32.6 670.15 32.45 670.15 32.25 670.2 32.05 670.2 31.9 670.25 31.75 670.35 31.55 670.45 31.4
L 675.1 31.4
Q 675.4 31.4 675.7 31.25 675.95 31.15 676.2 30.85 676.4 30.6 676.5 30.3 676.65 30 676.65 29.65 676.65 29.25 676.5 28.95 676.4 28.6 676.2 28.35 675.7 27.8 675.1 27.8
L 670.45 27.8
Q 669.45 27.8 668.7 28 667.95 28.2 667.45 28.55
M 613.6 44.35
Q 613.15 44.35 612.85 44.45 612.6 44.6 612.45 44.8 612.25 45.1 612.15 45.4 612.05 45.7 612.1 46.05 612.05 46.45 612.15 46.7 612.25 47 612.45 47.2 612.75 47.6 613.6 47.6
L 627.05 47.6
Q 627.1 47.75 627.1 47.9 627.15 48.05 627.15 48.3
L 627.15 48.6
Q 627.15 48.85 627.1 49 627.1 49.2 627.05 49.25
L 615.5 49.25
Q 614.8 49.25 614.2 49.4 613.65 49.5 613.15 49.8 612.65 50.05 612.45 50.55 612.2 51.05 612.2 51.7
L 612.2 55.5
Q 612.2 55.85 612.25 56.1 612.3 56.4 612.45 56.6 612.55 56.8 612.7 57 612.95 57.15 613.25 57.3 613.45 57.4 613.75 57.45 614 57.55 614.35 57.6 614.6 57.65 614.9 57.7 615.2 57.7 615.5 57.7
L 630.15 57.7
Q 630.9 57.7 631.3 57.3 631.65 56.9 631.65 56.1 631.65 55.25 631.3 54.8 630.9 54.4 630.15 54.4
L 616.45 54.4
Q 616.35 54.25 616.3 54.05 616.3 53.9 616.3 53.7
L 616.3 53.25
Q 616.3 53.05 616.3 52.85 616.35 52.65 616.45 52.45
L 628.3 52.45
Q 628.9 52.45 629.45 52.35 630 52.3 630.45 52.05 630.9 51.9 631.15 51.5 631.35 51.1 631.35 50.45
L 631.35 46.8
Q 631.35 46.4 631.3 46.1 631.2 45.8 631.1 45.55 630.75 45.15 630.25 44.8 630.05 44.7 629.8 44.6 629.5 44.5 629.2 44.45 628.45 44.35 627.95 44.35
L 613.6 44.35
M 615.65 29.95
Q 616.15 29.85 616.75 29.8 617.3 29.75 617.9 29.75
L 630.05 29.75
Q 630.45 29.75 630.75 29.6 631.05 29.4 631.25 29.1 631.4 28.8 631.5 28.45 631.6 28.15 631.6 27.8 631.6 27.4 631.5 27.05 631.4 26.7 631.25 26.45 631.05 26.2 630.75 26.05 630.45 25.9 630.05 25.9
L 615.55 25.9
Q 615.15 25.9 614.75 25.95 614.35 25.95 613.95 26 613.6 26.05 613.25 26.15 612.9 26.25 612.55 26.4 612.15 26.65 611.85 27.25 611.65 27.55 611.6 27.95 611.5 28.3 611.5 28.8
L 611.5 33.65
Q 611.5 34.05 611.55 34.45 611.65 34.8 611.8 35.05 611.95 35.35 612.1 35.55 612.25 35.75 612.45 35.9 612.9 36.25 613.65 36.35 613.95 36.4 614.4 36.45 614.8 36.5 615.35 36.5
L 619.9 36.5 619.9 38.95 607.6 38.95
Q 606.65 38.95 606.45 39.5 606.3 39.8 606.25 40.15 606.2 40.5 606.2 40.95 606.2 41.25 606.25 41.55 606.3 41.85 606.45 42.1 606.55 42.4 606.85 42.55 607.15 42.7 607.6 42.7
L 635.8 42.7
Q 636.3 42.7 636.6 42.55 636.9 42.4 637.05 42.1 637.15 41.85 637.2 41.55 637.25 41.25 637.25 40.95 637.25 40.5 637.2 40.15 637.15 39.8 637.05 39.5 636.9 39.25 636.6 39.1 636.3 38.95 635.8 38.95
L 624.1 38.95 624.1 36.5 630.8 36.5
Q 631.4 36.5 631.85 35.85 632.05 35.55 632.2 35.25 632.3 34.95 632.3 34.55 632.3 34.15 632.2 33.85 632.05 33.5 631.85 33.25 631.4 32.7 630.8 32.7
L 618 32.7
Q 617.65 32.7 617.35 32.7 617.05 32.7 616.8 32.7 616.55 32.7 616.3 32.7 616 32.7 615.7 32.65 615.65 32.55 615.65 32.4 615.65 32.25 615.65 32.1 615.65 32 615.65 31.85 615.65 31.7 615.65 31.55
L 615.65 29.95
M 574.35 39.05
Q 573.9 39.05 573.55 39.2 573.25 39.35 573.15 39.6 573.05 39.9 573 40.25 572.9 40.55 572.9 40.95 572.9 41.3 573 41.6 573.05 41.95 573.15 42.2 573.25 42.45 573.55 42.6 573.9 42.7 574.35 42.7
L 586.45 42.7 586.45 45.65 580.1 45.65
Q 579.7 45.65 579.4 45.8 579.1 45.95 578.95 46.2 578.75 46.55 578.65 46.85 578.6 47.2 578.6 47.55 578.6 47.9 578.65 48.2 578.75 48.55 578.95 48.8 579.1 49.05 579.4 49.2 579.7 49.35 580.1 49.35
L 591.6 49.35
Q 591.85 49.35 592.1 49.35 592.3 49.35 592.6 49.35 593.05 49.4 593.55 49.45
L 593.55 56.6
Q 593.55 56.9 593.7 57.2 593.85 57.5 594.25 57.7 594.55 57.9 594.85 58 595.15 58.1 595.45 58.1 595.85 58.1 596.2 58 596.6 57.9 596.95 57.7 597.3 57.5 597.5 57.2 597.65 56.9 597.65 56.6
L 597.65 48.75
Q 597.65 47.5 596.9 46.55 596.55 46.1 596 45.9 595.5 45.65 594.85 45.65
L 590.7 45.65 590.7 42.7 602.55 42.7
Q 603.6 42.7 603.8 42.2 603.9 41.95 603.95 41.6 604 41.3 604 40.95 604 40.55 603.95 40.25 603.9 39.9 603.8 39.6 603.7 39.35 603.4 39.2 603.1 39.05 602.55 39.05
L 574.35 39.05
M 582.7 30.1
Q 582.95 30 583.25 30 583.5 29.95 583.75 29.9 583.95 29.85 584.2 29.85 584.5 29.85 584.9 29.85
L 596.7 29.85
Q 597.05 29.85 597.35 29.7 597.6 29.55 597.85 29.25 598 29 598.1 28.65 598.2 28.35 598.2 27.95 598.2 27.6 598.1 27.25 598 26.95 597.85 26.65 597.4 26.15 596.7 26.15
L 582.65 26.15
Q 581.7 26.15 580.95 26.25 580.55 26.3 580.2 26.4 579.9 26.45 579.55 26.55 579.35 26.75 579.2 26.95 579 27.15 578.9 27.45 578.75 27.7 578.7 28.1 578.6 28.5 578.6 28.95
L 578.6 34.05
Q 578.6 34.55 578.7 34.9 578.75 35.25 578.85 35.55 579.1 36.15 579.5 36.4 579.75 36.55 580.1 36.65 580.45 36.75 580.8 36.8 581.15 36.85 581.5 36.9 581.9 36.9 582.3 36.9
L 597.3 36.9
Q 597.65 36.9 598 36.75 598.3 36.6 598.5 36.3 598.7 36.05 598.8 35.75 598.9 35.4 598.9 35.1 598.9 34.65 598.8 34.3 598.7 33.95 598.5 33.7 598.3 33.45 598 33.3 597.65 33.15 597.3 33.15
L 584.95 33.15
Q 584.45 33.15 583.9 33.15 583.6 33.15 583.3 33.15 583.05 33.15 582.7 33.1 582.7 33 582.7 32.85 582.7 32.7 582.7 32.55 582.7 32.4 582.7 32.25 582.7 32.1 582.7 31.85
L 582.7 30.1
M 544.7 27.75
Q 544.55 27.7 544.35 27.7 544.2 27.65 544.05 27.65 543.6 27.65 543.3 27.75 542.9 27.8 542.65 27.95 542.3 28.1 542.2 28.4 542.05 28.65 542.05 29.1
L 542.05 44.45
Q 542.05 46.4 543.05 47.35 544.05 48.3 546.05 48.3 548.15 48.3 549.9 48.3 550.8 48.3 551.75 48.3 552.65 48.3 553.65 48.3 554.55 48.3 555.2 48.05 555.85 47.8 556.2 47.25 556.6 46.75 556.75 46.05 556.95 45.35 556.95 44.45
L 556.95 29.1
Q 556.95 28.9 556.9 28.75 556.8 28.55 556.7 28.4 556.55 28.25 556.4 28.15 556.3 28.05 556.15 27.95 556 27.9 555.85 27.85 555.7 27.8 555.5 27.75 555.3 27.7 555.1 27.7 554.9 27.65 554.75 27.65 554.45 27.65 554.1 27.75 553.8 27.8 553.5 27.95 553.15 28.1 553 28.4 552.8 28.65 552.8 29.1
L 552.8 34.85 546.15 34.85 546.15 29.1
Q 546.15 28.9 546.1 28.75 546.05 28.55 545.95 28.4 545.85 28.25 545.75 28.15 545.6 28.05 545.45 27.95 545.25 27.9 545.05 27.85 544.85 27.8 544.7 27.75
M 546.5 44.55
Q 546.35 44.25 546.25 43.8 546.2 43.3 546.2 42.75
L 546.2 38.6 552.8 38.6 552.8 42.75
Q 552.8 43 552.8 43.2 552.8 43.4 552.8 43.65 552.75 43.85 552.75 44.05 552.7 44.3 552.7 44.5 552.45 44.55 552.25 44.55 552.05 44.55 551.85 44.55 551.45 44.55 550.9 44.55
L 546.5 44.55
M 569.2 40.95
Q 569.65 40.95 569.95 40.8 570.3 40.65 570.45 40.35 570.65 40.05 570.7 39.75 570.8 39.4 570.8 39.05 570.8 38.65 570.7 38.3 570.65 37.95 570.45 37.7 570.1 37.2 569.2 37.2
L 565.7 37.2 565.7 26.95
Q 565.7 26.5 565.55 26.2 565.35 25.85 565.05 25.6 564.35 25.2 563.45 25.2 563.1 25.2 562.8 25.3 562.45 25.4 562.15 25.6 561.55 26.1 561.55 26.95
L 561.55 56.3
Q 561.55 56.75 561.7 57.1 561.85 57.4 562.15 57.6 562.45 57.85 562.8 57.95 563.1 58.05 563.45 58.05 564.35 58.05 565.05 57.6 565.35 57.4 565.55 57.1 565.7 56.75 565.7 56.3
L 565.7 40.95 569.2 40.95
M 535.1 27.45
Q 535.2 27.25 535.25 27.05 535.3 26.9 535.35 26.7 535.4 26.5 535.45 26.35 535.45 26.2 535.4 26.05 535.3 25.85 535.2 25.7 535.1 25.6 534.85 25.5 534.6 25.4 534.2 25.3 533.9 25.25 533.65 25.3 533.4 25.4 533.15 25.55 532.9 25.75 532.7 26 532.5 26.2 532.35 26.45 532.25 26.65 532.1 26.95 531.9 27.25 531.7 27.65 531.45 28 531.2 28.4 531 28.85 530.8 29.25 530.6 29.65 530.4 30.1 530.2 30.5 529.95 30.9 529.7 31.4 529.5 31.8 529.3 32.25 529.2 32.65 528.7 33.6 528.35 34.55 528.05 35.6 527.85 36.6 527.7 37.75 527.6 38.85 527.55 40 527.55 41.2 527.55 41.85 527.55 42.5 527.6 43.15 527.65 43.75 527.75 45.15 528 46.4 528.1 47.05 528.25 47.7 528.45 48.3 528.65 48.85 529.05 50.1 529.4 51 529.85 51.8 530.25 52.55 530.65 53.25 531 53.85 531.35 54.5 531.65 55.05 531.9 55.6 532.2 56.1 532.3 56.3 532.45 56.55 532.65 56.75 532.95 57 533.2 57.2 533.5 57.3 533.75 57.35 534.05 57.35 534.45 57.25 534.7 57.15 535 57.05 535.1 56.9 535.2 56.75 535.2 56.6 535.25 56.4 535.25 56.25 535.2 56.05 535.15 55.9 535.1 55.7 535 55.5 534.9 55.3 534.8 55.15 534.7 54.95 534.6 54.75 534.1 53.9 533.7 53.1 533.35 52.3 533.05 51.55 532.75 50.8 532.5 50.05 532.3 49.3 532.15 48.5 532.05 48.1 531.95 47.7 531.85 47.25 531.8 46.75 531.7 46.3 531.65 45.8 531.55 45.3 531.5 44.8 531.4 44.35 531.35 43.85 531.25 43.4 531.25 42.9 531.2 42.4 531.2 42 531.2 41.6 531.2 41.2 531.2 40.5 531.2 39.75 531.25 39 531.35 38.25 531.4 37.5 531.55 36.7 531.7 35.95 531.95 35.15 532.05 34.8 532.15 34.35 532.25 33.9 532.4 33.45 532.65 32.55 533.15 31.55 533.35 31.1 533.55 30.6 533.75 30.1 534 29.6 534.2 29.1 534.4 28.7 534.65 28.25 534.9 27.85 535 27.65 535.1 27.45
M 490.35 42.5
Q 489.5 42.5 489.2 43.05 489 43.3 488.9 43.65 488.85 44 488.85 44.4 488.85 44.75 488.9 45.05 489 45.3 489.2 45.5 489.5 45.95 490.35 45.95
L 503.5 45.95
Q 503.6 46.15 503.65 46.4 503.65 46.6 503.65 46.85
L 503.65 47.25
Q 503.65 47.5 503.65 47.75 503.6 47.95 503.5 48.2
L 492 48.2
Q 491.35 48.2 490.8 48.35 490.25 48.45 489.85 48.7 489.4 48.95 489.15 49.4 488.95 49.85 488.95 50.5
L 488.95 54.85
Q 488.95 55.5 489.2 56 489.4 56.5 489.9 56.8 490.35 57.05 490.85 57.2 491.4 57.35 492 57.35
L 506.75 57.35
Q 507.05 57.35 507.35 57.2 507.65 57.1 507.85 56.8 508.05 56.55 508.15 56.25 508.25 55.95 508.25 55.55 508.25 54.75 507.85 54.4 507.45 54 506.75 54
L 493.15 54
Q 493.05 53.9 493 53.8 492.95 53.65 492.95 53.5 492.95 53.4 492.95 53.3 492.95 53.15 492.95 53
L 492.95 52.45
Q 492.95 52.35 492.95 52.2 492.95 52.1 492.95 51.95 492.95 51.85 493 51.75 493.05 51.7 493.15 51.55
L 504.25 51.55
Q 504.6 51.55 505 51.55 505.35 51.5 505.65 51.45 505.95 51.35 506.25 51.25 506.5 51.15 506.8 51 506.95 50.85 507.1 50.65 507.3 50.5 507.5 50.25 507.65 50 507.7 49.75 507.8 49.4 507.8 49.05
L 507.8 45.05
Q 507.8 44.45 507.55 43.95 507.3 43.45 506.85 43.15 505.8 42.5 504.6 42.5
L 490.35 42.5
M 498.25 27.2
Q 498 27.05 497.7 26.9 497.45 26.75 497.1 26.65 496.8 26.55 496.4 26.5 496.05 26.45 495.65 26.45
L 487.7 26.45
Q 487 26.45 486.45 26.65 485.9 26.9 485.4 27.25 484.9 27.7 484.65 28.25 484.4 28.75 484.4 29.4
L 484.4 37.05
Q 484.4 37.8 484.75 38.3 484.9 38.6 485.05 38.85 485.25 39.05 485.45 39.2 486 39.6 486.7 39.75 487 39.85 487.35 39.9 487.65 39.9 488 39.9
L 496.1 39.9
Q 496.7 39.9 497.3 39.75 497.8 39.55 498.35 39.15 498.85 38.75 499.1 38.25 499.35 37.75 499.35 37.05
L 499.35 29.4
Q 499.35 29.05 499.25 28.75 499.15 28.4 499 28.15 498.8 27.85 498.65 27.65 498.45 27.4 498.25 27.2
M 492.5 30.25
Q 492.9 30.25 493.2 30.25 493.55 30.25 493.85 30.25 494.15 30.3 494.45 30.3 494.75 30.3 495.15 30.3 495.15 30.6 495.15 30.9 495.15 31.2 495.2 31.45 495.2 32 495.2 32.6
L 495.2 33.85
Q 495.2 34.5 495.2 35 495.15 35.3 495.15 35.6 495.15 35.85 495.15 36.15 494.75 36.15 494.45 36.15 494.15 36.2 493.85 36.2 493.55 36.2 493.2 36.2 492.9 36.2 492.5 36.2
L 490.95 36.2
Q 490.45 36.2 489.8 36.2 489.5 36.2 489.15 36.15 488.85 36.15 488.5 36.15 488.45 35.85 488.45 35.6 488.45 35.3 488.45 35 488.45 34.5 488.45 33.85
L 488.45 30.45
Q 488.8 30.4 489.1 30.35 489.45 30.35 489.75 30.3 490.1 30.3 490.4 30.3 490.7 30.25 490.95 30.25
L 492.5 30.25
M 504.2 25.8
Q 504.05 26.15 504.05 26.55
L 504.05 39.55
Q 504.05 39.75 504.05 39.9 504.1 40.1 504.2 40.25 504.25 40.4 504.35 40.5 504.5 40.65 504.65 40.7 504.85 40.85 505.05 40.9 505.25 40.95 505.45 40.95 505.6 41 505.75 41.05 505.95 41.05 506.15 41.05 506.55 41.05 506.95 40.95 507.3 40.9 507.6 40.7 507.85 40.55 508 40.25 508.15 39.95 508.15 39.55
L 508.15 35.1 511.6 35.1
Q 512.1 35.1 512.4 34.95 512.7 34.8 512.8 34.5 512.9 34.2 512.95 33.9 513 33.55 513 33.2 513 32.85 512.95 32.5 512.9 32.15 512.8 31.85 512.7 31.6 512.4 31.5 512.1 31.35 511.6 31.35
L 508.15 31.35 508.15 26.55
Q 508.15 26.1 508 25.8 507.85 25.5 507.6 25.3 507.3 25.2 506.95 25.1 506.55 25.05 506.15 25.05 505.8 25.05 505.45 25.1 505.1 25.2 504.75 25.35 504.4 25.5 504.2 25.8
M 547.35 663.15
L 547.35 660.1
Q 547.35 659.9 547.2 659.75 547 659.6 546.8 659.6
L 543.3 659.6
Q 543.1 659.6 542.95 659.75 542.75 659.9 542.75 660.1
L 542.75 670.25
Q 542.75 671.8 543.4 672.4 544.05 673 545.85 673
L 563.3 673
Q 565 673 565.65 672.35 566.35 671.7 566.35 670.35
L 566.35 659.95
Q 566.35 659.75 566.15 659.55 566 659.4 565.8 659.4
L 562.25 659.4
Q 562.05 659.4 561.9 659.55 561.7 659.75 561.7 659.95
L 561.7 663.15 547.35 663.15
M 547.35 666.7
L 561.7 666.7 561.7 668.8
Q 561.7 669.45 560.95 669.45
L 548.15 669.45
Q 547.35 669.45 547.35 668.8
L 547.35 666.7
M 551.6 645.6
Q 550.05 645.15 548.25 645.15 546.45 645.15 544.9 645.6 543.3 646.05 542.15 646.9 540.95 647.7 540.3 648.85 539.65 650 539.65 651.4 539.65 652.85 540.3 654 540.95 655.15 542.15 655.95 543.3 656.8 544.85 657.3 546.4 657.75 548.2 657.75 550.05 657.75 551.6 657.3 553.2 656.8 554.35 655.95 555.55 655.15 556.2 654 556.9 652.85 556.9 651.4 556.9 650 556.2 648.85 555.55 647.7 554.4 646.9 553.2 646.05 551.6 645.6
M 551.35 649.35
Q 552.55 650.15 552.55 651.4 552.55 652.65 551.35 653.5 550.15 654.4 548.25 654.4 546.35 654.4 545.15 653.5 543.95 652.65 543.95 651.4 543.95 650.15 545.15 649.35 546.35 648.55 548.25 648.55 550.15 648.55 551.35 649.35
M 513.75 659.1
Q 511.5 659.6 510 660.6 508.45 661.6 507.6 663 506.8 664.4 506.8 666.05 506.8 667.8 507.6 669.2 508.45 670.6 510 671.55 511.5 672.55 513.75 673.1 515.9 673.65 518.7 673.65 521.25 673.65 523.45 673.1 525.65 672.55 527.25 671.55 528.9 670.55 529.8 669.15 530.7 667.75 530.7 666.05 530.7 664.35 529.8 662.95 528.9 661.6 527.25 660.6 525.65 659.6 523.45 659.1 521.25 658.55 518.7 658.55 515.9 658.55 513.75 659.1
M 512.05 667.85
Q 511.5 667.15 511.5 666.2 511.5 664.2 513.5 663.2 515.5 662.2 518.7 662.2 520.15 662.2 521.45 662.45 522.75 662.7 523.75 663.2 524.75 663.7 525.35 664.45 525.9 665.15 525.9 666.2 525.9 667.15 525.35 667.85 524.75 668.55 523.75 669 522.75 669.5 521.45 669.75 520.15 670 518.7 670 517.15 670 515.8 669.75 514.5 669.5 513.55 669 512.6 668.55 512.05 667.85
M 501.85 641.45
Q 502.05 641.65 502.3 641.65
L 512.2 641.65
Q 512.85 641.65 512.85 641.95 512.9 642.2 512.7 642.55 512.1 644.2 510.9 645.85 509.7 647.5 508.05 649 506.45 650.55 504.45 651.9 502.45 653.2 500.2 654.2 499.8 654.4 499.7 654.75 499.6 655.1 499.8 655.45
L 501 657.4
Q 501.25 657.85 501.65 657.85 502.05 657.85 502.3 657.75 505.2 656.35 507.7 654.55 510.25 652.75 512.3 650.65 513.15 651.55 514.15 652.35 515.1 653.2 516.1 653.9 517.1 654.6 518 655.25 518.9 655.8 519.7 656.2 520.5 656.6 520.9 655.9
L 522.15 653.75
Q 522.6 653 521.8 652.6 521 652.25 520.1 651.7 519.15 651.2 518.25 650.5 517.3 649.85 516.45 649.15 515.55 648.4 514.85 647.7 515.75 646.4 516.5 645 517.25 643.65 517.75 642.2 517.9 641.8 518.05 641.35 518.15 640.85 518.25 640.45 518.45 639.1 517.6 638.45 516.7 637.85 514.95 637.85
L 502.3 637.85
Q 502.1 637.85 501.9 638 501.7 638.15 501.7 638.35
L 501.7 641
Q 501.7 641.25 501.85 641.45
M 542.45 639.05
Q 542.7 639.2 542.85 639.2
L 553.2 639.2
Q 553.5 639.2 553.7 639 553.9 638.8 553.9 638.55
L 553.9 636.5
Q 553.9 636.25 553.65 636.05 553.5 635.85 553.2 635.85
L 542.85 635.85
Q 542.7 635.85 542.45 636 542.25 636.2 542.25 636.45
L 542.25 638.6
Q 542.25 638.85 542.45 639.05
M 537.4 640.6
Q 537.15 640.6 536.95 640.8 536.7 641 536.7 641.25
L 536.7 643.35
Q 536.7 643.6 536.9 643.8 537.15 644 537.35 644
L 558.45 644
Q 558.65 644 558.85 643.8 559.05 643.65 559.05 643.35
L 559.05 641.25
Q 559.05 640.95 558.85 640.8 558.65 640.6 558.45 640.6
L 537.4 640.6
M 530.4 636.2
Q 530.4 635.65 529.9 635.65
L 526.35 635.65
Q 525.8 635.65 525.8 636.2
L 525.8 644.65 519.55 644.65
Q 519.3 644.65 519.15 644.8 518.95 644.95 518.95 645.15
L 518.95 647.95
Q 518.95 648.15 519.15 648.3 519.3 648.4 519.55 648.4
L 525.8 648.4 525.8 657.4
Q 525.8 658 526.35 658
L 529.9 658
Q 530.4 658 530.4 657.4
L 530.4 636.2
M 572.3 648.6
L 572.3 645.8
Q 572.3 645.6 572.15 645.45 571.95 645.3 571.7 645.3
L 566.35 645.3 566.35 636.2
Q 566.35 635.65 565.8 635.65
L 562.25 635.65
Q 561.7 635.65 561.7 636.2
L 561.7 657
Q 561.7 657.2 561.9 657.4 562.05 657.55 562.25 657.55
L 565.8 657.55
Q 566 657.55 566.15 657.4 566.35 657.2 566.35 657.05
L 566.35 649.1 571.7 649.1
Q 571.95 649.1 572.15 648.95 572.3 648.8 572.3 648.6
M 605.55 636.2
Q 605.55 635.65 605.05 635.65
L 601.5 635.65
Q 600.95 635.65 600.95 636.2
L 600.95 673.1
Q 600.95 673.65 601.5 673.65
L 605.05 673.65
Q 605.55 673.65 605.55 673.1
L 605.55 636.2
M 581.5 638.55
Q 581.5 638.35 581.3 638.15 581.1 638 580.9 638
L 577.45 638
Q 577.25 638 577.05 638.15 576.9 638.35 576.9 638.55
L 576.9 659.4
Q 576.9 660.75 577.55 661.55 578.25 662.35 579.8 662.4 582 662.55 584.4 662.5 586.85 662.4 589.2 662.25 591.55 662.05 593.75 661.75 595.95 661.4 597.7 660.95 598.05 660.85 598.25 660.6 598.5 660.4 598.4 660.1
L 597.9 657.9
Q 597.85 657.6 597.65 657.4 597.5 657.2 597.05 657.25 592.95 658.1 589.2 658.4 585.45 658.7 582.25 658.5 581.8 658.45 581.65 658.35 581.5 658.25 581.5 657.85
L 581.5 638.55
M 637.4 635.65
Q 636.9 635.65 636.9 636.2
L 636.9 673.1
Q 636.9 673.65 637.4 673.65
L 640.95 673.65
Q 641.5 673.65 641.5 673.1
L 641.5 654.15 646.9 654.15
Q 647.1 654.15 647.3 654 647.5 653.8 647.5 653.6
L 647.5 650.8
Q 647.5 650.6 647.3 650.45 647.1 650.3 646.9 650.3
L 641.5 650.3 641.5 636.2
Q 641.5 635.65 640.95 635.65
L 637.4 635.65
M 618.2 643.2
Q 618.2 642.5 618.9 642.5
L 630.8 642.5
Q 631.35 642.5 631.35 642
L 631.35 639.2
Q 631.35 638.65 630.8 638.65
L 616.25 638.65
Q 614.75 638.65 614.2 639.2 613.6 639.8 613.6 641.2
L 613.6 660.15
Q 613.6 661.6 614.3 662.15 615 662.75 616.5 662.85 618.15 662.95 620.55 662.85 622.95 662.8 625.5 662.55 628.05 662.35 630.4 662 632.8 661.6 634.4 661.15 634.6 661.05 634.8 660.9 634.95 660.8 634.9 660.35
L 634.45 658
Q 634.3 657.4 633.7 657.55 631.9 657.85 629.95 658.15 627.9 658.4 626 658.6 624.1 658.8 622.35 658.85 620.65 658.95 619.4 658.8 618.65 658.75 618.4 658.55 618.2 658.35 618.2 657.75
L 618.2 643.2
M 331.35 641.2
Q 331.5 641.4 331.75 641.4
L 350.55 641.4
Q 350.95 641.4 351.05 641.45 351.15 641.5 351.15 641.95
L 351.15 645.05
Q 351.15 645.5 351.05 645.6 350.95 645.7 350.55 645.7
L 333.9 645.7
Q 333.05 645.7 332.45 645.8 331.9 645.9 331.6 646.2 331.3 646.5 331.15 647 331.05 647.5 331.05 648.3
L 331.05 654.75
Q 331.05 655.55 331.15 656.05 331.3 656.55 331.6 656.85 331.9 657.2 332.45 657.3 333.05 657.4 333.9 657.4
L 341.1 657.4 341.1 663.35 325.95 663.35
Q 325.65 663.35 325.5 663.6 325.35 663.8 325.35 664
L 325.35 666.55
Q 325.35 666.75 325.5 666.95 325.65 667.15 325.95 667.15
L 360.75 667.15
Q 360.95 667.15 361.15 666.95 361.35 666.75 361.35 666.55
L 361.35 664
Q 361.35 663.8 361.15 663.6 360.95 663.35 360.75 663.35
L 345.65 663.35 345.65 657.4 355.95 657.4
Q 356.1 657.4 356.3 657.25 356.5 657.1 356.5 656.9
L 356.5 654.2
Q 356.5 654 356.3 653.9 356.15 653.75 355.95 653.75
L 336.1 653.75
Q 335.7 653.75 335.6 653.65 335.5 653.55 335.5 653.1
L 335.5 649.95
Q 335.5 649.55 335.6 649.45 335.65 649.4 336.1 649.4
L 352.75 649.4
Q 354.45 649.4 355.05 648.85 355.65 648.3 355.65 646.75
L 355.65 640.25
Q 355.65 638.7 355.05 638.15 354.45 637.6 352.75 637.6
L 331.75 637.6
Q 331.5 637.6 331.35 637.8 331.2 637.95 331.2 638.15
L 331.2 640.8
Q 331.2 641 331.35 641.2
M 475 664.15
Q 474.95 664.2 474.6 664.2
L 457.8 664.2
Q 456.25 664.2 455.7 664.8 455.15 665.35 455.15 666.6
L 455.15 670.9
Q 455.15 672.2 455.75 672.75 456.3 673.3 457.85 673.3
L 479.9 673.3
Q 480.05 673.3 480.2 673.1 480.4 672.95 480.4 672.75
L 480.4 670.3
Q 480.4 670.05 480.2 669.9 480.05 669.8 479.85 669.8
L 460.25 669.8
Q 459.85 669.8 459.75 669.7 459.65 669.65 459.65 669.25
L 459.65 668.05
Q 459.65 667.7 459.75 667.6 459.85 667.5 460.15 667.5
L 476.85 667.5
Q 478.5 667.5 479.05 667.05 479.55 666.55 479.55 665.15
L 479.55 660.8
Q 479.55 659.45 479.05 658.95 478.5 658.45 476.85 658.45
L 455.65 658.45
Q 455.45 658.45 455.25 658.65 455.1 658.8 455.1 659
L 455.1 661.55
Q 455.1 661.75 455.25 661.85 455.45 662.05 455.65 662.05
L 474.55 662.05
Q 474.95 662.05 475 662.1 475.1 662.2 475.1 662.6
L 475.1 663.75
Q 475.1 664.1 475 664.15
M 485.1 652.75
Q 484.95 652.55 484.7 652.55
L 449.95 652.55
Q 449.35 652.55 449.35 653.1
L 449.35 655.55
Q 449.35 655.8 449.5 655.95 449.65 656.15 449.95 656.15
L 484.7 656.15
Q 484.95 656.15 485.1 655.95 485.3 655.75 485.3 655.55
L 485.3 653.1
Q 485.3 652.9 485.1 652.75
M 405.8 672.2
L 405.8 669.3
Q 405.8 669.1 405.6 668.95 405.4 668.8 405.2 668.8
L 384.85 668.8
Q 384.45 668.8 384.3 668.7 384.1 668.6 384.1 668.2
L 384.1 661.3
Q 384.1 661.1 383.95 660.9 383.75 660.75 383.5 660.75
L 380.1 660.75
Q 379.9 660.75 379.7 660.9 379.5 661.1 379.5 661.3
L 379.5 669.8
Q 379.5 671.4 380.15 672.05 380.75 672.65 382.55 672.65
L 405.2 672.65
Q 405.45 672.65 405.65 672.55 405.8 672.4 405.8 672.2
M 410.15 654.35
Q 410.15 654.15 409.95 653.95 409.75 653.75 409.55 653.75
L 374.75 653.75
Q 374.45 653.75 374.3 653.9 374.15 654.1 374.15 654.35
L 374.15 656.95
Q 374.15 657.15 374.3 657.35 374.45 657.55 374.75 657.55
L 390.15 657.55 390.15 665
Q 390.15 665.55 390.7 665.55
L 394.2 665.55
Q 394.75 665.55 394.75 665
L 394.75 657.55 409.55 657.55
Q 409.75 657.55 409.95 657.35 410.15 657.15 410.15 656.95
L 410.15 654.35
M 405.75 650.6
L 406.95 648.15
Q 407.05 647.95 406.95 647.75 406.85 647.5 406.6 647.4 404.6 646.95 402.65 646.05 400.7 645.15 399 643.95 397.35 642.75 396 641.3 394.75 639.85 394.1 638.3 394.2 637.95 394.2 637.55 394.25 637.2 394.3 636.75 394.3 636.2 393.7 636.2
L 390.55 636.05
Q 389.9 636.05 389.8 636.7 389.35 640.8 386.45 643.5 383.5 646.25 377.75 647.75 377.5 647.85 377.4 648.05 377.35 648.3 377.4 648.5
L 378.5 651
Q 378.65 651.55 379.55 651.25 383.85 650.25 387.15 648.1 390.45 645.95 392.35 643 393.3 644.45 394.75 645.75 396.2 647.05 397.9 648.15 399.6 649.2 401.4 649.95 403.2 650.7 404.85 650.95 405.55 651.1 405.75 650.6
M 444.65 636.2
Q 444.65 635.65 444.15 635.65
L 440.55 635.65
Q 440.05 635.65 440.05 636.2
L 440.05 648.1 431.8 648.1
Q 431.6 648.1 431.45 648.25 431.25 648.35 431.25 648.6
L 431.25 651.4
Q 431.25 651.6 431.45 651.75 431.6 651.95 431.8 651.95
L 440.05 651.95 440.05 673.1
Q 440.05 673.65 440.55 673.65
L 444.15 673.65
Q 444.65 673.65 444.65 673.1
L 444.65 636.2
M 426.55 638.35
Q 426.55 638.1 426.4 637.95 426.25 637.75 426.05 637.75
L 422.5 637.6
Q 422.3 637.6 422.1 637.8 421.9 638 421.9 638.2 422 641.75 421.65 644.8 421.25 647.85 420.25 650.75 419.15 654 417.3 656.9 415.45 659.8 412.85 662.2 412.15 662.85 412.7 663.35
L 414.6 665.15
Q 415.25 665.8 416 665.15 417.05 664.3 418.2 663.1 419.3 661.95 420.3 660.5 421.3 659.1 422.25 657.55 423.15 655.95 423.85 654.3 424.35 655.6 425.2 657.05 426.05 658.45 427.05 659.8 428.05 661.15 429.15 662.3 430.25 663.45 431.25 664.2 431.65 664.5 432 664.45 432.35 664.45 432.5 664.15
L 434.2 662.1
Q 434.75 661.3 434.15 660.8 432.8 659.8 431.5 658.25 430.15 656.75 429.05 654.95 427.9 653.2 427.05 651.25 426.2 649.3 425.85 647.4 426.55 643.25 426.55 638.35
M 456 635.45
Q 455.8 635.45 455.6 635.6 455.45 635.8 455.45 635.95
L 455.45 638.5
Q 455.45 638.7 455.6 638.85 455.8 639 456 639
L 474.5 639
Q 474.9 639 474.95 639.05 475.05 639.1 475.05 639.45
L 475.05 640.65
Q 475.05 641.05 474.95 641.15 474.9 641.25 474.55 641.25
L 457.9 641.25
Q 456.35 641.25 455.85 641.8 455.3 642.4 455.3 643.65
L 455.3 647.8
Q 455.3 649.05 455.85 649.6 456.4 650.15 457.95 650.15
L 479.65 650.15
Q 479.8 650.15 480 650 480.15 649.8 480.15 649.6
L 480.15 647.15
Q 480.15 646.9 480 646.75 479.8 646.6 479.6 646.6
L 460.35 646.6
Q 459.95 646.6 459.9 646.55 459.8 646.5 459.8 646.15
L 459.8 645.05
Q 459.8 644.75 459.9 644.65 459.95 644.55 460.3 644.55
L 476.8 644.55
Q 478.45 644.55 478.95 644.05 479.5 643.6 479.5 642.2
L 479.5 637.85
Q 479.5 636.45 478.95 635.95 478.45 635.45 476.8 635.45
L 456 635.45
M 651.95 671.05
Q 652.85 671.95 654.15 671.95 655.4 671.95 656.3 671.05 657.15 670.15 657.15 668.85 657.15 667.55 656.3 666.7 655.4 665.8 654.15 665.8 652.85 665.8 651.95 666.7 651.05 667.55 651.05 668.85 651.05 670.15 651.95 671.05 Z"/>
</g>
</defs>

<g transform="matrix( 1, 0, 0, 1, 0,0) ">
<use xlink:href="#Layer0_0_FILL"/>
</g>
</svg>
