
<svg xmlns="http://www.w3.org/2000/svg" version="1.1" xmlns:xlink="http://www.w3.org/1999/xlink" preserveAspectRatio="none" x="0px" y="0px" width="1280px" height="720px" viewBox="0 0 1280 720">
<defs>
<g id="Layer0_0_FILL">
<path fill="#1E1E1E" stroke="none" d="
M 1063.5 381.9
Q 1063.5 379.75 1063.5 377.55 1063.5 377 1062.95 376.55 1062.65 376.35 1062.4 376.2 1062.15 376.1 1061.95 376.1 1061.55 376.1 1061.3 376.2 1061.05 376.3 1060.9 376.5 1060.8 376.7 1060.7 376.9 1060.55 377.1 1060.5 377.35 1060.35 377.6 1060.3 377.9 1060.2 378.15 1060.15 378.4 1060.05 378.65 1059.95 378.9 1059.85 379.1 1059.7 379.25 1059.45 379.4 1059.2 379.55 1058.95 379.65 1058.65 379.7 1058.3 379.75 1058 379.8 1057.65 379.8 1057.35 379.8 1057 379.85 1056.7 379.95 1056.45 380.1 1056.25 380.3 1056 380.55 1055.9 380.85 1055.8 381.1 1055.85 381.4 1055.85 381.75 1055.9 382 1056 382.3 1056.2 382.55 1056.35 382.8 1056.6 382.95 1056.85 383.1 1057.25 383.1
L 1059.95 383.1
Q 1059.95 384.75 1059.95 386.4 1059.95 388.05 1059.95 389.7 1059.95 393 1059.95 396.35 1059.95 396.65 1060.1 396.9 1060.25 397.15 1060.55 397.35 1060.8 397.6 1061.15 397.7 1061.45 397.8 1061.8 397.8 1061.95 397.8 1062.05 397.8 1062.2 397.75 1062.35 397.7 1062.45 397.65 1062.6 397.6 1062.7 397.5 1062.85 397.4 1063 397.3 1063.15 397.15 1063.3 397.05 1063.4 396.9 1063.45 396.8 1063.5 396.65 1063.55 396.5 1063.55 396.35
L 1063.55 395.1
Q 1063.55 392.85 1063.55 390.6 1063.55 388.45 1063.55 386.25 1063.5 384.1 1063.5 381.9
M 830.65 603.35
Q 830.9 603.35 831.05 603.15 831.15 603 831.15 602.75
L 831.15 599.7
Q 831.15 599.5 831.05 599.35 830.9 599.15 830.65 599.15
L 816 599.15
Q 815.4 599.15 815.3 599.3 815.15 599.4 815.15 599.85
L 814.95 614.6
Q 814.95 615.95 816.5 615.3 817.75 614.85 819.15 614.6 820.55 614.3 821.85 614.3 825.15 614.3 826.55 615.85 828 617.35 828 619.95 828 622.65 826.2 624.15 824.5 625.7 821.8 625.7 821.1 625.7 820.25 625.6 819.45 625.55 818.6 625.4 817.75 625.2 816.95 625 816.15 624.75 815.6 624.45 814.75 624.05 814.75 624.75
L 814.75 628
Q 814.75 628.3 814.75 628.45 814.8 628.55 815.05 628.75 815.7 629.05 816.65 629.25 817.55 629.5 818.5 629.65 819.45 629.75 820.25 629.85 821.1 629.9 821.5 629.9 823.8 629.9 825.85 629.25 827.95 628.6 829.35 627.3 832.5 624.5 832.5 619.45 832.5 617.35 831.75 615.7 831 614 829.7 612.8 828.4 611.65 826.65 611 824.9 610.4 822.9 610.4 820.95 610.4 819.35 610.75
L 819.5 603.35 830.65 603.35
M 757.3 583.15
Q 757.1 583.15 756.95 583.3 756.8 583.45 756.8 583.65
L 756.8 586.8
Q 756.8 587 756.95 587.15 757.1 587.3 757.3 587.3
L 778.4 587.3
Q 778.6 587.3 778.75 587.15 778.9 587 778.9 586.8
L 778.9 583.65
Q 778.9 583.45 778.75 583.3 778.6 583.15 778.4 583.15
L 757.3 583.15
M 757.3 591.5
Q 757.1 591.5 756.95 591.6 756.8 591.75 756.8 591.95
L 756.8 595.1
Q 756.8 595.35 756.95 595.45 757.1 595.6 757.3 595.6
L 778.4 595.6
Q 778.6 595.6 778.75 595.45 778.9 595.35 778.9 595.1
L 778.9 591.95
Q 778.9 591.75 778.75 591.6 778.6 591.5 778.4 591.5
L 757.3 591.5
M 650.25 541
Q 650.25 540.85 650.15 540.65 650 540.55 649.8 540.55
L 646.5 540.55
Q 646.35 540.55 646.15 540.65 646.05 540.85 646.05 541
L 646.05 549.4 637.55 549.4
Q 637.35 549.4 637.25 549.55 637.1 549.7 637.1 549.9
L 637.1 553
Q 637.1 553.2 637.25 553.35 637.35 553.5 637.55 553.5
L 646.05 553.5 646.05 561.95
Q 646.05 562.45 646.5 562.45
L 649.8 562.45
Q 650.25 562.45 650.25 561.95
L 650.25 553.5 658.7 553.5
Q 659.2 553.5 659.2 553
L 659.2 549.9
Q 659.2 549.4 658.7 549.4
L 650.25 549.4 650.25 541
M 657.05 615.7
Q 656.3 614 655 612.8 653.7 611.65 651.95 611 650.2 610.4 648.2 610.4 646.25 610.4 644.65 610.75
L 644.8 603.35 655.95 603.35
Q 656.2 603.35 656.35 603.15 656.45 603 656.45 602.75
L 656.45 599.7
Q 656.45 599.5 656.35 599.35 656.2 599.15 655.95 599.15
L 641.3 599.15
Q 640.7 599.15 640.6 599.3 640.45 599.4 640.45 599.85
L 640.25 614.6
Q 640.25 615.95 641.8 615.3 643.05 614.85 644.45 614.6 645.85 614.3 647.15 614.3 650.45 614.3 651.85 615.85 653.3 617.35 653.3 619.95 653.3 622.65 651.5 624.15 649.8 625.7 647.1 625.7 646.4 625.7 645.55 625.6 644.75 625.55 643.9 625.4 643.05 625.2 642.25 625 641.45 624.75 640.9 624.45 640.05 624.05 640.05 624.75
L 640.05 628
Q 640.05 628.3 640.05 628.45 640.1 628.55 640.35 628.75 641 629.05 641.95 629.25 642.85 629.5 643.8 629.65 644.75 629.75 645.55 629.85 646.4 629.9 646.8 629.9 649.1 629.9 651.15 629.25 653.25 628.6 654.65 627.3 657.8 624.5 657.8 619.45 657.8 617.35 657.05 615.7
M 516.8 583.15
Q 516.6 583.15 516.45 583.3 516.3 583.45 516.3 583.65
L 516.3 586.8
Q 516.3 587 516.45 587.15 516.6 587.3 516.8 587.3
L 537.9 587.3
Q 538.1 587.3 538.25 587.15 538.4 587 538.4 586.8
L 538.4 583.65
Q 538.4 583.45 538.25 583.3 538.1 583.15 537.9 583.15
L 516.8 583.15
M 516.8 591.5
Q 516.6 591.5 516.45 591.6 516.3 591.75 516.3 591.95
L 516.3 595.1
Q 516.3 595.35 516.45 595.45 516.6 595.6 516.8 595.6
L 537.9 595.6
Q 538.1 595.6 538.25 595.45 538.4 595.35 538.4 595.1
L 538.4 591.95
Q 538.4 591.75 538.25 591.6 538.1 591.5 537.9 591.5
L 516.8 591.5
M 489.2 579.65
Q 489.75 579.65 489.75 578.95
L 489.75 576.15
Q 489.75 575.55 489.2 575.55
L 477.45 575.55
Q 478.45 574.4 479.45 573.25 480.45 572.05 481.3 570.95 482.4 569.65 483.8 568.05 485.15 566.4 486.35 564.65 487.55 562.85 488.35 561 489.15 559.15 489.15 557.35 489.15 555.25 488.45 553.65 487.75 552.05 486.6 551 485.45 549.95 483.8 549.4 482.2 548.85 480.25 548.85 478.4 548.85 476.4 549.5 474.45 550.15 472.95 550.95 472.55 551.15 472.4 551.4 472.3 551.55 472.4 551.75
L 472.95 554.8
Q 473.05 555.15 473.35 555.2 473.65 555.2 474 555 475.8 553.95 477.3 553.5 478.85 553.05 480.5 553.05 482.25 553.05 483.4 554.3 484.6 555.55 484.6 557.45 484.6 559.15 483 561.75 481.4 564.4 478.05 568.35
L 471.95 575.6
Q 471.75 575.9 471.55 576.2 471.4 576.55 471.4 576.85
L 471.4 579.15
Q 471.4 579.65 472.15 579.65
L 489.2 579.65
M 473.55 599.3
Q 473.4 599.4 473.4 599.85
L 473.2 614.6
Q 473.2 615.95 474.75 615.3 476 614.85 477.4 614.6 478.8 614.3 480.1 614.3 483.4 614.3 484.8 615.85 486.25 617.35 486.25 619.95 486.25 622.65 484.45 624.15 482.75 625.7 480.05 625.7 479.35 625.7 478.5 625.6 477.7 625.55 476.85 625.4 476 625.2 475.2 625 474.4 624.75 473.85 624.45 473 624.05 473 624.75
L 473 628
Q 473 628.3 473 628.45 473.05 628.55 473.3 628.75 473.95 629.05 474.9 629.25 475.8 629.5 476.75 629.65 477.7 629.75 478.5 629.85 479.35 629.9 479.75 629.9 482.05 629.9 484.1 629.25 486.2 628.6 487.6 627.3 490.75 624.5 490.75 619.45 490.75 617.35 490 615.7 489.25 614 487.95 612.8 486.65 611.65 484.9 611 483.15 610.4 481.15 610.4 479.2 610.4 477.6 610.75
L 477.75 603.35 488.9 603.35
Q 489.15 603.35 489.3 603.15 489.4 603 489.4 602.75
L 489.4 599.7
Q 489.4 599.5 489.3 599.35 489.15 599.15 488.9 599.15
L 474.25 599.15
Q 473.65 599.15 473.55 599.3
M 397.1 549.35
Q 397 549.2 396.3 549.2
L 394.2 549.2
Q 394.05 549.2 393.85 549.3 393.65 549.35 393.6 549.45
L 387.45 555.1
Q 387.25 555.3 387.25 555.5 387.2 555.75 387.35 555.9
L 389.15 558.05
Q 389.3 558.2 389.55 558.15 389.8 558.15 390.05 558
L 393 555.4 393 579.1
Q 393 579.6 393.55 579.6
L 396.75 579.6
Q 397.25 579.6 397.25 579.1
L 397.25 550.3
Q 397.25 549.5 397.1 549.35
M 401.9 603.35
Q 402.15 603.35 402.3 603.15 402.4 603 402.4 602.75
L 402.4 599.7
Q 402.4 599.5 402.3 599.35 402.15 599.15 401.9 599.15
L 387.25 599.15
Q 386.65 599.15 386.55 599.3 386.4 599.4 386.4 599.85
L 386.2 614.6
Q 386.2 615.95 387.75 615.3 389 614.85 390.4 614.6 391.8 614.3 393.1 614.3 396.4 614.3 397.8 615.85 399.25 617.35 399.25 619.95 399.25 622.65 397.45 624.15 395.75 625.7 393.05 625.7 392.35 625.7 391.5 625.6 390.7 625.55 389.85 625.4 389 625.2 388.2 625 387.4 624.75 386.85 624.45 386 624.05 386 624.75
L 386 628
Q 386 628.3 386 628.45 386.05 628.55 386.3 628.75 386.95 629.05 387.9 629.25 388.8 629.5 389.75 629.65 390.7 629.75 391.5 629.85 392.35 629.9 392.75 629.9 395.05 629.9 397.1 629.25 399.2 628.6 400.6 627.3 403.75 624.5 403.75 619.45 403.75 617.35 403 615.7 402.25 614 400.95 612.8 399.65 611.65 397.9 611 396.15 610.4 394.15 610.4 392.2 610.4 390.6 610.75
L 390.75 603.35 401.9 603.35
M 439.4 578.9
Q 439.4 578.75 439.3 578.55 439.15 578.45 438.95 578.45
L 435.65 578.45
Q 435.5 578.45 435.3 578.55 435.2 578.75 435.2 578.9
L 435.2 587.3 426.7 587.3
Q 426.5 587.3 426.4 587.45 426.25 587.6 426.25 587.8
L 426.25 590.9
Q 426.25 591.1 426.4 591.25 426.5 591.4 426.7 591.4
L 435.2 591.4 435.2 599.85
Q 435.2 600.35 435.65 600.35
L 438.95 600.35
Q 439.4 600.35 439.4 599.85
L 439.4 591.4 447.85 591.4
Q 448.35 591.4 448.35 590.9
L 448.35 587.8
Q 448.35 587.3 447.85 587.3
L 439.4 587.3 439.4 578.9
M 540.9 405.3
Q 540.2 403.7 539.05 402.65 537.9 401.6 536.25 401.05 534.65 400.5 532.7 400.5 530.85 400.5 528.85 401.15 526.9 401.8 525.4 402.6 525 402.8 524.85 403.05 524.75 403.2 524.85 403.4
L 525.4 406.45
Q 525.5 406.8 525.8 406.85 526.1 406.85 526.45 406.65 528.25 405.6 529.75 405.15 531.3 404.7 532.95 404.7 534.7 404.7 535.85 405.95 537.05 407.2 537.05 409.1 537.05 410.8 535.45 413.4 533.85 416.05 530.5 420
L 524.4 427.25
Q 524.2 427.55 524 427.85 523.85 428.2 523.85 428.5
L 523.85 430.8
Q 523.85 431.3 524.6 431.3
L 541.65 431.3
Q 542.2 431.3 542.2 430.6
L 542.2 427.8
Q 542.2 427.2 541.65 427.2
L 529.9 427.2
Q 530.9 426.05 531.9 424.9 532.9 423.7 533.75 422.6 534.85 421.3 536.25 419.7 537.6 418.05 538.8 416.3 540 414.5 540.8 412.65 541.6 410.8 541.6 409 541.6 406.9 540.9 405.3
M 526 450.95
Q 525.85 451.05 525.85 451.5
L 525.65 466.25
Q 525.65 467.6 527.2 466.95 528.45 466.5 529.85 466.25 531.25 465.95 532.55 465.95 535.85 465.95 537.25 467.5 538.7 469 538.7 471.6 538.7 474.3 536.9 475.8 535.2 477.35 532.5 477.35 531.8 477.35 530.95 477.25 530.15 477.2 529.3 477.05 528.45 476.85 527.65 476.65 526.85 476.4 526.3 476.1 525.45 475.7 525.45 476.4
L 525.45 479.65
Q 525.45 479.95 525.45 480.1 525.5 480.2 525.75 480.4 526.4 480.7 527.35 480.9 528.25 481.15 529.2 481.3 530.15 481.4 530.95 481.5 531.8 481.55 532.2 481.55 534.5 481.55 536.55 480.9 538.65 480.25 540.05 478.95 543.2 476.15 543.2 471.1 543.2 469 542.45 467.35 541.7 465.65 540.4 464.45 539.1 463.3 537.35 462.65 535.6 462.05 533.6 462.05 531.65 462.05 530.05 462.4
L 530.2 455 541.35 455
Q 541.6 455 541.75 454.8 541.85 454.65 541.85 454.4
L 541.85 451.35
Q 541.85 451.15 541.75 451 541.6 450.8 541.35 450.8
L 526.7 450.8
Q 526.1 450.8 526 450.95
M 267.7 401.95
Q 267.7 401.15 267.55 401 267.45 400.85 266.75 400.85
L 264.65 400.85
Q 264.5 400.85 264.3 400.95 264.1 401 264.05 401.1
L 257.9 406.75
Q 257.7 406.95 257.7 407.15 257.65 407.4 257.8 407.55
L 259.6 409.7
Q 259.75 409.85 260 409.8 260.25 409.8 260.5 409.65
L 263.45 407.05 263.45 430.75
Q 263.45 431.25 264 431.25
L 267.2 431.25
Q 267.7 431.25 267.7 430.75
L 267.7 401.95
M 272.75 451
Q 272.6 450.8 272.35 450.8
L 257.7 450.8
Q 257.1 450.8 257 450.95 256.85 451.05 256.85 451.5
L 256.65 466.25
Q 256.65 467.6 258.2 466.95 259.45 466.5 260.85 466.25 262.25 465.95 263.55 465.95 266.85 465.95 268.25 467.5 269.7 469 269.7 471.6 269.7 474.3 267.9 475.8 266.2 477.35 263.5 477.35 262.8 477.35 261.95 477.25 261.15 477.2 260.3 477.05 259.45 476.85 258.65 476.65 257.85 476.4 257.3 476.1 256.45 475.7 256.45 476.4
L 256.45 479.65
Q 256.45 479.95 256.45 480.1 256.5 480.2 256.75 480.4 257.4 480.7 258.35 480.9 259.25 481.15 260.2 481.3 261.15 481.4 261.95 481.5 262.8 481.55 263.2 481.55 265.5 481.55 267.55 480.9 269.65 480.25 271.05 478.95 274.2 476.15 274.2 471.1 274.2 469 273.45 467.35 272.7 465.65 271.4 464.45 270.1 463.3 268.35 462.65 266.6 462.05 264.6 462.05 262.65 462.05 261.05 462.4
L 261.2 455 272.35 455
Q 272.6 455 272.75 454.8 272.85 454.65 272.85 454.4
L 272.85 451.35
Q 272.85 451.15 272.75 451
M 180.35 376
Q 179.6 375.8 178.7 375.8 177.8 375.8 177 376 176.15 376.2 175.5 376.65 174.8 377.05 174.2 377.6 173.6 378.2 173.1 378.85 172.65 379.65 172.35 380.55 172 381.4 171.75 382.45 171.5 383.5 171.4 384.65 171.3 385.75 171.3 387.05 171.3 388.25 171.4 389.4 171.5 390.5 171.7 391.5 171.9 392.55 172.25 393.45 172.6 394.35 173.1 395.1 173.6 395.85 174.2 396.4 174.8 397 175.45 397.4 176.1 397.85 176.9 398.05 177.75 398.25 178.7 398.25 179.6 398.25 180.4 398.05 181.15 397.85 181.85 397.4 182.6 397 183.15 396.4 183.75 395.85 184.25 395.1 184.75 394.35 185.15 393.45 185.5 392.55 185.75 391.5 186 390.5 186.1 389.4 186.2 388.25 186.2 387.05 186.2 385.8 186.1 384.7 186 383.6 185.75 382.55 185.5 381.5 185.1 380.6 184.7 379.75 184.2 379 183.7 378.25 183.1 377.65 182.5 377.1 181.85 376.65 181.15 376.25 180.35 376
M 175.4 382.6
Q 175.55 382 175.8 381.45 176.05 380.95 176.4 380.55 176.7 380.1 177.1 379.8 177.45 379.55 177.85 379.4 178.25 379.25 178.7 379.25 179.15 379.25 179.55 379.4 179.95 379.55 180.35 379.85 180.75 380.15 181.05 380.55 181.35 381 181.6 381.55 181.8 382.05 181.95 382.65 182.15 383.3 182.3 384 182.45 384.7 182.5 385.45 182.6 386.25 182.6 387.05 182.6 387.85 182.55 388.6 182.45 389.4 182.35 390.05 182 391.5 181.6 392.6 181.4 393.15 181.05 393.55 180.75 394 180.4 394.3 179.95 394.6 179.55 394.75 179.15 394.95 178.7 394.95 178.25 394.95 177.8 394.75 177.4 394.6 177 394.25 176.3 393.65 175.75 392.55 175.55 392 175.4 391.35 175.2 390.75 175.15 390 175 389.3 174.95 388.55 174.9 387.8 174.9 387.05 174.9 386.2 174.95 385.45 175 384.7 175.15 383.95 175.2 383.25 175.4 382.6 Z"/>
</g>

<g id="Layer0_0_STROKES_1_FILL">
<path fill="#0EA6E9" stroke="none" d="
M 395.05 397.9
Q 395.0994140625 398.3255859375 395.4 398.55 396.625 399.525 397.8 400.45 398.158203125 400.73984375 398.55 400.7 398.976171875 400.651171875 399.2 400.3 399.490234375 399.9923828125 399.45 399.55 399.4005859375 399.1744140625 399.05 398.9 397.875 397.975 396.65 397 396.341796875 396.76015625 395.9 396.8 395.523828125 396.848828125 395.25 397.15 395.009765625 397.5076171875 395.05 397.9
M 402.25 401.35
Q 401.9126953125 401.096484375 401.5 401.15 401.0953125 401.2134765625 400.85 401.55 400.59609375 401.88671875 400.65 402.3 400.7140625 402.7041015625 401.05 402.95 402.2623046875 403.85 403.5 404.75 403.851953125 404.9912109375 404.25 404.9 404.6572265625 404.86015625 404.9 404.5 405.1421875 404.198046875 405.05 403.8 405.0099609375 403.39375 404.65 403.15 403.4376953125 402.25 402.25 401.35
M 441.65 424.2
Q 441.5244140625 423.8404296875 441.15 423.65 439.75 423.075 438.35 422.45 437.962109375 422.3158203125 437.55 422.45 437.190234375 422.6244140625 437 423 436.8658203125 423.38671875 437 423.75 437.1755859375 424.1595703125 437.55 424.3 438.95 424.925 440.35 425.5 440.737890625 425.683984375 441.1 425.5 441.509765625 425.3755859375 441.65 425 441.8341796875 424.6134765625 441.65 424.2
M 419.5 412.85
Q 419.1431640625 412.6671875 418.75 412.75 418.3419921875 412.8869140625 418.1 413.25 417.9171875 413.60546875 418 414 418.13828125 414.4080078125 418.5 414.6 419.8123046875 415.3748046875 421.15 416.1 421.5328125 416.3197265625 421.9 416.2 422.3224609375 416.08671875 422.5 415.7 422.7205078125 415.3673828125 422.6 414.95 422.486328125 414.578125 422.1 414.35 420.7875 413.625 419.5 412.85
M 412 410.25
Q 412.108203125 410.6765625 412.45 410.9 413.7123046875 411.7 415 412.5 415.3763671875 412.7189453125 415.75 412.6 416.179296875 412.528515625 416.4 412.15 416.61953125 411.8240234375 416.5 411.4 416.4279296875 411.02109375 416.05 410.8 414.7875 410 413.55 409.2 413.188671875 408.9814453125 412.75 409.05 412.373046875 409.157421875 412.15 409.5 411.9310546875 409.860546875 412 410.25
M 408 405.5
Q 407.698046875 405.2587890625 407.3 405.3 406.89296875 405.3900390625 406.65 405.7 406.4080078125 406.051953125 406.45 406.45 406.5400390625 406.85625 406.85 407.1 408.137109375 408.012890625 409.45 408.85 409.79765625 409.1060546875 410.2 409 410.60078125 408.943359375 410.8 408.6 411.05625 408.253125 410.95 407.85 410.8923828125 407.4494140625 410.55 407.2 409.262890625 406.387109375 408 405.5
M 428.75 419.05
Q 428.97109375 418.6876953125 428.85 418.3 428.7201171875 417.89921875 428.35 417.7 427 417 425.65 416.3 425.28671875 416.116796875 424.9 416.25 424.5115234375 416.37890625 424.3 416.75 424.1291015625 417.1125 424.25 417.5 424.3798828125 417.90078125 424.75 418.1 426.1 418.8 427.45 419.5 427.81328125 419.683203125 428.2 419.55 428.588671875 419.42109375 428.75 419.05
M 431.2 419.5
Q 430.8328125 419.64453125 430.65 420 430.4662109375 420.3921875 430.6 420.75 430.745703125 421.1669921875 431.1 421.35 432.475 422 433.8 422.65 434.193359375 422.8337890625 434.55 422.7 434.9671875 422.55546875 435.15 422.15 435.3337890625 421.8078125 435.2 421.4 435.054296875 421.0328125 434.65 420.85 433.325 420.2 431.95 419.55 431.6064453125 419.3662109375 431.2 419.5
M 482.1 436.45
Q 481.9001953125 436.10625 481.5 436 480.0125 435.7248046875 478.5 435.35 478.1251953125 435.2810546875 477.75 435.5 477.4212890625 435.7212890625 477.3 436.1 477.2306640625 436.525 477.45 436.85 477.67109375 437.228515625 478.05 437.3 479.5875 437.6751953125 481.1 437.95 481.5041015625 438.05546875 481.85 437.8 482.194140625 437.599609375 482.25 437.2 482.3560546875 436.7953125 482.1 436.45
M 474.85 436.3
Q 475.228125 436.0798828125 475.3 435.65 475.41953125 435.2765625 475.2 434.9 474.9802734375 434.572265625 474.55 434.45 473.125 434.125 471.65 433.75 471.276953125 433.680859375 470.9 433.9 470.571875 434.1201171875 470.45 434.5 470.38046875 434.9234375 470.6 435.25 470.8197265625 435.627734375 471.2 435.7 472.675 436.075 474.1 436.4 474.523046875 436.519140625 474.85 436.3
M 450.15 428.3
Q 450.016015625 428.70703125 450.2 429.05 450.3822265625 429.4546875 450.75 429.6 452.1748046875 430.1 453.6 430.6 454.0078125 430.7333984375 454.35 430.55 454.755859375 430.366796875 454.9 429.95 455.0337890625 429.59140625 454.85 429.2 454.6673828125 428.84453125 454.25 428.7 452.825 428.2 451.4 427.7 451.04296875 427.5662109375 450.65 427.75 450.2951171875 427.9322265625 450.15 428.3
M 448.25 426.85
Q 448.08359375 426.4728515625 447.7 426.3 446.2625 425.775 444.85 425.2 444.4849609375 425.066015625 444.1 425.2 443.7234375 425.3912109375 443.55 425.75 443.4158203125 426.1646484375 443.55 426.55 443.74140625 426.9263671875 444.1 427.05 445.5375 427.625 447 428.15 447.3779296875 428.3208984375 447.75 428.15 448.127734375 427.9828125 448.25 427.6 448.421484375 427.2212890625 448.25 426.85
M 464.1 432.05
Q 463.7375 432.2787109375 463.6 432.65 463.5171875 433.08125 463.7 433.45 463.92890625 433.8123046875 464.3 433.9 465.7873046875 434.3248046875 467.3 434.7 467.6953125 434.832421875 468.05 434.6 468.4134765625 434.4076171875 468.5 434 468.6326171875 433.605078125 468.4 433.25 468.207421875 432.88671875 467.8 432.75 466.3125 432.375 464.85 431.95 464.4685546875 431.8673828125 464.1 432.05
M 457.5 431.85
Q 458.95 432.3 460.4 432.75 460.801953125 432.870703125 461.15 432.65 461.534375 432.4876953125 461.65 432.1 461.7708984375 431.6986328125 461.55 431.3 461.3869140625 430.965625 461 430.85 459.55 430.4 458.1 429.95 457.698046875 429.829296875 457.3 430 456.9654296875 430.2125 456.85 430.6 456.7291015625 431.0013671875 456.9 431.35 457.1130859375 431.734375 457.5 431.85
M 489.15 437.9
Q 488.9482421875 437.5552734375 488.55 437.45 487 437.175 485.5 436.85 485.0958984375 436.7943359375 484.75 437 484.405859375 437.2501953125 484.3 437.65 484.2439453125 438.0546875 484.45 438.4 484.6998046875 438.74375 485.1 438.8 486.6 439.125 488.15 439.4 488.55625 439.50546875 488.9 439.25 489.244921875 439.0486328125 489.3 438.65 489.4056640625 438.244140625 489.15 437.9
M 198.8 401.45
Q 198.6146484375 401.0806640625 198.2 400.95 197.8271484375 400.81640625 197.45 401 197.0802734375 401.184765625 196.95 401.55 196.816796875 401.9724609375 197 402.35 197.712109375 403.762890625 198.45 405.1 198.678125 405.486328125 199.05 405.6 199.4673828125 405.7205078125 199.8 405.5 200.18671875 405.3224609375 200.3 404.9 200.4197265625 404.5328125 200.2 404.15 199.4876953125 402.837109375 198.8 401.45
M 222.1 435.05
Q 221.8392578125 435.35625 221.85 435.75 221.8556640625 436.1876953125 222.15 436.45 223.2869140625 437.551171875 224.45 438.5 224.7921875 438.7884765625 225.2 438.75 225.610546875 438.702734375 225.85 438.35 226.1392578125 438.0580078125 226.1 437.65 226.05234375 437.240234375 225.7 436.95 224.6130859375 436.0486328125 223.55 435 223.2427734375 434.7396484375 222.8 434.75 222.4119140625 434.7548828125 222.1 435.05
M 217.15 430.05
Q 216.86875 430.3337890625 216.85 430.75 216.8265625 431.1650390625 217.1 431.45 218.124609375 432.587890625 219.2 433.65 219.4892578125 433.946484375 219.9 433.95 220.3107421875 433.946484375 220.6 433.65 220.896484375 433.3607421875 220.9 432.95 220.896484375 432.5392578125 220.6 432.25 219.575390625 431.212109375 218.6 430.1 218.315234375 429.8189453125 217.9 429.8 217.484765625 429.7755859375 217.15 430.05
M 213.95 424.85
Q 213.7255859375 424.5494140625 213.3 424.5 212.9076171875 424.459765625 212.55 424.7 212.248828125 424.973828125 212.2 425.35 212.16015625 425.791796875 212.4 426.1 213.387109375 427.337890625 214.4 428.5 214.669140625 428.8169921875 215.05 428.85 215.487109375 428.8755859375 215.8 428.6 216.1171875 428.3318359375 216.15 427.9 216.1744140625 427.5130859375 215.9 427.2 214.912890625 426.062109375 213.95 424.85
M 209.7 419.3
Q 209.45625 418.9900390625 209.05 418.9 208.651953125 418.8580078125 208.3 419.1 207.9900390625 419.34296875 207.9 419.75 207.8587890625 420.148046875 208.1 420.45 208.9998046875 421.7376953125 209.9 422.95 210.1458984375 423.2857421875 210.55 423.35 210.96328125 423.40390625 211.3 423.15 211.6365234375 422.9046875 211.7 422.5 211.7533203125 422.0873046875 211.5 421.75 210.5998046875 420.5623046875 209.7 419.3
M 205.8 413.55
Q 205.5765625 413.208203125 205.15 413.1 204.760546875 413.0310546875 204.4 413.25 204.057421875 413.473046875 203.95 413.85 203.8814453125 414.288671875 204.1 414.65 204.9123046875 415.9 205.75 417.15 206.0015625 417.49375 206.4 417.55 206.8060546875 417.6556640625 207.15 417.4 207.494921875 417.1986328125 207.55 416.8 207.65546875 416.3951171875 207.4 416.05 206.587890625 414.8 205.8 413.55
M 203.75 410.9
Q 203.881640625 410.5044921875 203.65 410.15 203.325 409.55 202.95 408.95 202.575 408.25 202.15 407.55 201.97109375 407.188671875 201.55 407.05 201.16875 406.9671875 200.8 407.15 200.4373046875 407.37890625 200.3 407.75 200.2171875 408.1798828125 200.4 408.55 200.825 409.25 201.2 409.95 201.575 410.55 201.9 411.15 202.14375 411.5138671875 202.55 411.6 202.945703125 411.7201171875 203.3 411.5 203.6638671875 411.2947265625 203.75 410.9
M 194.4 394.75
Q 194.04453125 394.9328125 193.9 395.3 193.7662109375 395.7064453125 193.95 396.05 194.6 397.425 195.25 398.75 195.4328125 399.154296875 195.8 399.3 196.2078125 399.4337890625 196.55 399.25 196.95546875 399.0671875 197.1 398.65 197.2337890625 398.293359375 197.05 397.9 196.4 396.575 195.75 395.2 195.5669921875 394.845703125 195.15 394.7 194.7921875 394.5662109375 194.4 394.75
M 191 388.85
Q 190.8658203125 389.262109375 191 389.65 191.625 391.0501953125 192.2 392.4 192.404296875 392.7759765625 192.8 392.9 193.1779296875 393.083984375 193.55 392.9 193.9271484375 392.745703125 194.05 392.35 194.233984375 391.9732421875 194.05 391.6 193.475 390.25 192.85 388.85 192.7095703125 388.4755859375 192.3 388.3 191.93671875 388.1658203125 191.55 388.3 191.1744140625 388.490234375 191 388.85
M 188.45 382.35
Q 188.3162109375 382.737109375 188.45 383.1 189.075 384.6125 189.65 386.15 189.823046875 386.545703125 190.2 386.7 190.5720703125 386.883984375 190.95 386.7 191.3458984375 386.5771484375 191.5 386.2 191.6837890625 385.8279296875 191.5 385.45 190.9248046875 383.8875 190.3 382.35 190.1751953125 381.9896484375 189.8 381.8 189.4134765625 381.6658203125 189 381.8 188.640234375 381.9744140625 188.45 382.35
M 187.9 375.8
Q 187.7546875 375.4322265625 187.35 375.25 187.00703125 375.066015625 186.6 375.2 186.2322265625 375.3451171875 186.05 375.7 185.8662109375 376.09296875 186 376.45 186.5 377.875 187 379.3 187.14453125 379.7173828125 187.5 379.9 187.89140625 380.0837890625 188.25 379.95 188.666796875 379.805859375 188.85 379.4 189.0333984375 379.0578125 188.9 378.65 188.4 377.2248046875 187.9 375.8
M 182.65 359.2
Q 182.8689453125 358.8748046875 182.75 358.45 182.4251953125 356.9876953125 182.1 355.55 182.0435546875 355.1498046875 181.7 354.9 181.35390625 354.6939453125 180.95 354.75 180.549609375 354.85625 180.3 355.2 180.094140625 355.5458984375 180.15 355.95 180.4748046875 357.4123046875 180.8 358.9 180.921484375 359.32890625 181.25 359.55 181.6251953125 359.7693359375 182 359.65 182.42890625 359.57890625 182.65 359.2
M 185.15 368.5
Q 184.8013671875 368.3291015625 184.4 368.45 184.0125 368.5654296875 183.8 368.9 183.629296875 369.298046875 183.75 369.7 184.1998046875 371.1623046875 184.7 372.6 184.84453125 373.0173828125 185.2 373.2 185.59140625 373.3837890625 185.95 373.25 186.366796875 373.105859375 186.55 372.7 186.7333984375 372.3578125 186.6 371.95 186.1001953125 370.5375 185.65 369.1 185.534375 368.7130859375 185.15 368.5
M 183.25 361.75
Q 182.88125 361.5671875 182.45 361.65 182.0787109375 361.7875 181.85 362.15 181.6673828125 362.5185546875 181.75 362.9 182.175 364.375 182.55 365.8 182.6876953125 366.2208984375 183.05 366.4 183.4189453125 366.6328125 183.8 366.5 184.2212890625 366.4125 184.4 366.05 184.632421875 365.6814453125 184.5 365.25 184.125 363.825 183.7 362.35 183.6123046875 361.97890625 183.25 361.75
M 183.7 346.45
Q 183.9412109375 346.148046875 183.85 345.75 183.81015625 345.34296875 183.45 345.1 183.148046875 344.8580078125 182.75 344.9 182.34375 344.9900390625 182.1 345.3 181.187109375 346.5875 180.3 347.85 180.0943359375 348.1951171875 180.15 348.6 180.255078125 348.9986328125 180.6 349.2 180.9439453125 349.4556640625 181.35 349.35 181.7484375 349.29375 181.95 348.95 182.8125 347.7125 183.7 346.45
M 187.2 339.4
Q 186.819140625 339.4328125 186.55 339.75 185.537109375 340.9123046875 184.55 342.05 184.311328125 342.3921875 184.35 342.8 184.397265625 343.210546875 184.7 343.45 185.041796875 343.7392578125 185.45 343.7 185.859765625 343.65234375 186.1 343.3 187.0626953125 342.1873046875 188.05 341.05 188.3244140625 340.7369140625 188.3 340.3 188.2671875 339.9181640625 187.95 339.65 187.637109375 339.3744140625 187.2 339.4
M 191.45 334.55
Q 190.3365234375 335.6375 189.3 336.7 189.0400390625 337.00703125 189.05 337.4 189.0548828125 337.8380859375 189.35 338.1 189.6564453125 338.4107421875 190.05 338.4 190.4873046875 338.3947265625 190.75 338.1 191.7630859375 337.0625 192.85 336 193.1443359375 335.7376953125 193.15 335.3 193.160546875 334.90625 192.85 334.6 192.5880859375 334.3048828125 192.15 334.3 191.75703125 334.2896484375 191.45 334.55
M 197.35 329.5
Q 196.9630859375 329.475390625 196.65 329.75 195.4873046875 330.75 194.35 331.75 194.0689453125 332.0345703125 194.05 332.45 194.0255859375 332.865234375 194.3 333.15 194.5837890625 333.48125 195 333.5 195.4150390625 333.5234375 195.7 333.25 196.8126953125 332.2501953125 197.95 331.25 198.2669921875 330.980859375 198.3 330.55 198.3255859375 330.1630859375 198.05 329.85 197.7818359375 329.5328125 197.35 329.5
M 203.3 326.75
Q 203.6505859375 326.5255859375 203.7 326.1 203.740234375 325.7076171875 203.45 325.35 203.226171875 325.048828125 202.8 325 202.408203125 324.96015625 202.05 325.2 200.8748046875 326.1748046875 199.7 327.1 199.3974609375 327.390234375 199.35 327.8 199.310546875 328.2080078125 199.55 328.5 199.839453125 328.852734375 200.25 328.9 200.6578125 328.9384765625 200.95 328.65 202.125 327.7248046875 203.3 326.75
M 219.85 312.65
Q 219.4451171875 312.5943359375 219.1 312.8 217.85 313.662109375 216.6 314.45 216.258203125 314.6734375 216.15 315.05 216.0810546875 315.4892578125 216.3 315.85 216.523046875 316.192578125 216.9 316.25 217.338671875 316.3685546875 217.7 316.15 218.95 315.3376953125 220.2 314.45 220.54375 314.2484375 220.6 313.85 220.7056640625 313.4439453125 220.45 313.1 220.2486328125 312.755078125 219.85 312.65
M 211.2 320.25
Q 211.633984375 320.354296875 211.95 320.1 213.1626953125 319.275 214.4 318.4 214.74375 318.1984375 214.8 317.8 214.9056640625 317.3939453125 214.65 317.05 214.4486328125 316.705078125 214.05 316.6 213.6451171875 316.5443359375 213.3 316.75 212.0373046875 317.625 210.8 318.45 210.491015625 318.7173828125 210.4 319.1 210.3451171875 319.5341796875 210.55 319.85 210.816796875 320.209375 211.2 320.25
M 209 321.1
Q 208.7546875 320.7634765625 208.35 320.7 207.9373046875 320.646484375 207.6 320.9 206.387109375 321.8125 205.2 322.7 204.8994140625 322.9740234375 204.85 323.35 204.8095703125 323.7916015625 205.05 324.1 205.3232421875 324.45078125 205.7 324.5 206.14140625 324.5521484375 206.45 324.3 207.6126953125 323.4 208.8 322.5 209.1357421875 322.2541015625 209.2 321.85 209.25390625 321.43671875 209 321.1
M 226.45 309.3
Q 226.229296875 308.971484375 225.8 308.85 225.4263671875 308.7810546875 225.05 309 223.775 309.8 222.45 310.6 222.1220703125 310.82109375 222 311.2 221.9306640625 311.6240234375 222.15 311.95 222.370703125 312.328515625 222.75 312.4 223.1734375 312.5189453125 223.5 312.3 224.825 311.5 226.1 310.7 226.4779296875 310.47890625 226.55 310.05 226.66953125 309.67578125 226.45 309.3
M 233.15 306.15
Q 233.2828125 305.75546875 233.05 305.4 232.858203125 305.0369140625 232.45 304.9 232.0568359375 304.8171875 231.7 305 230.374609375 305.7869140625 229.1 306.6 228.758203125 306.8234375 228.65 307.2 228.5810546875 307.6392578125 228.8 308 229.023046875 308.342578125 229.4 308.4 229.838671875 308.5185546875 230.2 308.3 231.425390625 307.512890625 232.7 306.75 233.0615234375 306.5580078125 233.15 306.15
M 239.15 302.65
Q 239.2828125 302.25546875 239.05 301.9 238.858203125 301.5369140625 238.45 301.4 238.0568359375 301.3171875 237.7 301.5 236.4 302.275 235.1 303 234.73828125 303.2419921875 234.6 303.65 234.5171875 304.04453125 234.7 304.4 234.9419921875 304.762890625 235.35 304.85 235.7431640625 304.9826171875 236.1 304.75 237.4 304.025 238.7 303.25 239.0615234375 303.0580078125 239.15 302.65
M 241.25 299.55
Q 240.91484375 299.7767578125 240.8 300.15 240.679296875 300.565234375 240.85 300.9 241.076171875 301.2853515625 241.45 301.4 241.86484375 301.5201171875 242.2 301.3 243.5126953125 300.6375 244.85 299.95 245.2201171875 299.75078125 245.35 299.35 245.47109375 298.9625 245.25 298.6 245.088671875 298.22890625 244.7 298.1 244.31328125 297.966796875 243.95 298.15 242.5873046875 298.8623046875 241.25 299.55
M 310.4 272.85
Q 310.0453125 272.667578125 309.65 272.75 308.1373046875 273.175 306.65 273.55 306.27890625 273.6876953125 306.05 274.05 305.8671875 274.4189453125 305.95 274.8 306.0875 275.2212890625 306.45 275.4 306.8185546875 275.632421875 307.2 275.5 308.6625 275.1248046875 310.15 274.7 310.557421875 274.61328125 310.75 274.25 310.9826171875 273.8951171875 310.85 273.5 310.7634765625 273.0923828125 310.4 272.85
M 286.55 279.9
Q 286.1822265625 280.0453125 286 280.4 285.816015625 280.79296875 285.95 281.15 286.0951171875 281.5677734375 286.45 281.75 286.84296875 281.93359375 287.2 281.8 288.625 281.3 290 280.8 290.417578125 280.6546875 290.6 280.25 290.783984375 279.90703125 290.65 279.5 290.5048828125 279.1322265625 290.1 278.95 289.75703125 278.7662109375 289.35 278.9 287.975 279.4 286.55 279.9
M 297.2 278.15
Q 297.4208984375 277.8013671875 297.3 277.4 297.184375 277.0125 296.8 276.8 296.451953125 276.629296875 296.05 276.75 294.5998046875 277.2 293.2 277.65 292.798046875 277.7796875 292.6 278.15 292.41640625 278.5130859375 292.55 278.9 292.679296875 279.3015625 293.05 279.5 293.4134765625 279.683203125 293.8 279.55 295.2 279.1 296.65 278.65 297.0369140625 278.534375 297.2 278.15
M 299.9 275.55
Q 299.5130859375 275.665625 299.3 276 299.1291015625 276.3986328125 299.25 276.8 299.3654296875 277.1876953125 299.7 277.35 300.098046875 277.570703125 300.5 277.45 301.9375 277.0126953125 303.35 276.6 303.7708984375 276.5123046875 303.95 276.15 304.1828125 275.78125 304.05 275.35 303.9625 274.9787109375 303.6 274.75 303.2314453125 274.5673828125 302.8 274.65 301.3625 275.0873046875 299.9 275.55
M 313.55 271.75
Q 313.1697265625 271.872265625 312.95 272.2 312.73046875 272.5765625 312.8 272.95 312.921875 273.3798828125 313.25 273.6 313.626953125 273.819140625 314 273.7 315.475 273.375 316.9 273 317.3302734375 272.927734375 317.55 272.55 317.76953125 272.2234375 317.65 271.8 317.578125 271.4201171875 317.2 271.2 316.873046875 270.980859375 316.45 271.05 315.025 271.425 313.55 271.75
M 270.75 286.8
Q 270.6265625 286.4412109375 270.25 286.25 269.8650390625 286.116015625 269.45 286.25 268.0625 286.824609375 266.65 287.4 266.2755859375 287.5904296875 266.1 287.95 265.9658203125 288.3634765625 266.1 288.75 266.290234375 289.1255859375 266.65 289.25 267.062109375 289.433984375 267.45 289.25 268.8375 288.6751953125 270.2 288.1 270.60859375 287.9763671875 270.75 287.6 270.9341796875 287.2146484375 270.75 286.8
M 277.35 284.25
Q 277.227734375 283.8671875 276.85 283.7 276.4779296875 283.5291015625 276.1 283.65 274.6375 284.225 273.2 284.75 272.84140625 284.9236328125 272.65 285.3 272.5158203125 285.6853515625 272.65 286.05 272.8234375 286.4587890625 273.2 286.6 273.5849609375 286.783984375 273.95 286.6 275.3625 286.075 276.8 285.5 277.18359375 285.3771484375 277.35 285 277.521484375 284.6287109375 277.35 284.25
M 282.75 281.25
Q 281.3248046875 281.75 279.9 282.25 279.5322265625 282.3953125 279.35 282.75 279.166015625 283.14296875 279.3 283.5 279.4451171875 283.9177734375 279.8 284.1 280.19296875 284.28359375 280.55 284.15 281.975 283.65 283.4 283.15 283.8173828125 283.0052734375 284 282.6 284.1837890625 282.25859375 284.05 281.85 283.905859375 281.4833984375 283.5 281.3 283.1578125 281.1166015625 282.75 281.25
M 257.25 291.85
Q 256.893359375 291.7162109375 256.5 291.9 255.175 292.55 253.8 293.2 253.445703125 293.3828125 253.3 293.75 253.1662109375 294.1578125 253.35 294.5 253.5328125 294.90546875 253.9 295.05 254.3064453125 295.1837890625 254.65 295 256.025 294.35 257.35 293.7 257.754296875 293.5169921875 257.9 293.1 258.0337890625 292.7421875 257.85 292.35 257.6671875 291.99453125 257.25 291.85
M 260.2 290.2
Q 259.8240234375 290.404296875 259.65 290.8 259.516015625 291.1779296875 259.65 291.55 259.8541015625 291.9271484375 260.25 292.05 260.6267578125 292.233984375 261 292.05 262.35 291.475 263.75 290.85 264.1244140625 290.7095703125 264.25 290.3 264.4341796875 289.93671875 264.25 289.55 264.109765625 289.1744140625 263.7 289 263.337890625 288.8658203125 262.95 289 261.5498046875 289.625 260.2 290.2
M 250.95 294.9
Q 250.593359375 294.7662109375 250.2 294.95 248.8625 295.5998046875 247.5 296.3 247.1298828125 296.49921875 247 296.9 246.8791015625 297.2876953125 247.05 297.65 247.2615234375 298.02109375 247.65 298.15 248.03671875 298.283203125 248.4 298.1 249.7375 297.4001953125 251.05 296.75 251.454296875 296.5669921875 251.6 296.15 251.7337890625 295.7921875 251.55 295.4 251.3671875 295.04453125 250.95 294.9
M 643.3 301.35
Q 643.7240234375 301.2353515625 643.9 300.85 644.120703125 300.515234375 644 300.1 643.8849609375 299.7267578125 643.5 299.5 642.225 298.825 640.9 298.1 640.56484375 297.9298828125 640.15 298.05 639.776171875 298.1646484375 639.55 298.5 639.379296875 298.884765625 639.5 299.25 639.61484375 299.6732421875 639.95 299.85 641.275 300.575 642.55 301.25 642.93515625 301.4701171875 643.3 301.35
M 544.3 265.95
Q 544.084375 265.64140625 543.65 265.55 542.225 265.325 540.75 265.05 540.366796875 264.9953125 540 265.2 539.691015625 265.4662109375 539.6 265.85 539.544921875 266.2837890625 539.75 266.6 540.015625 266.9583984375 540.4 267 541.875 267.275 543.3 267.5 543.7330078125 267.6046875 544.05 267.35 544.408984375 267.1337890625 544.45 266.7 544.555078125 266.3162109375 544.3 265.95
M 533.9 263.85
Q 533.5146484375 263.8078125 533.15 264.05 532.8404296875 264.2798828125 532.75 264.65 532.7076171875 265.0849609375 532.95 265.4 533.1802734375 265.759375 533.55 265.8 535.075 266.075 536.5 266.3 536.9330078125 266.4046875 537.25 266.15 537.608984375 265.9337890625 537.65 265.5 537.755078125 265.1162109375 537.5 264.75 537.284375 264.44140625 536.85 264.35 535.4251953125 264.125 533.9 263.85
M 560.25 270.75
Q 560.4560546875 271.1138671875 560.85 271.2 561.8 271.475 562.75 271.7
L 562.8 271.7
Q 563.4873046875 271.8748046875 564.1 272 564.526171875 272.119140625 564.85 271.9 565.229296875 271.678125 565.3 271.25 565.4193359375 270.874609375 565.2 270.5 564.9775390625 270.1708984375 564.55 270.05 563.9126953125 269.925 563.2 269.75
L 563.25 269.75
Q 562.3 269.525 561.35 269.25 560.9537109375 269.180078125 560.6 269.4 560.2361328125 269.60546875 560.1 270 560.030078125 270.395703125 560.25 270.75
M 554.45 267.7
Q 554.0458984375 267.6443359375 553.7 267.85 553.355859375 268.1001953125 553.25 268.5 553.1939453125 268.9046875 553.4 269.25 553.6498046875 269.59375 554.05 269.65 555.537109375 269.975390625 556.95 270.3 557.373046875 270.419140625 557.7 270.2 558.078125 269.9798828125 558.15 269.55 558.26953125 269.1765625 558.05 268.8 557.8302734375 268.472265625 557.4 268.35 555.9626953125 268.024609375 554.45 267.7
M 547.65 266.3
Q 547.2458984375 266.244140625 546.9 266.45 546.55625 266.699609375 546.45 267.1 546.3939453125 267.50390625 546.6 267.85 546.8498046875 268.1935546875 547.25 268.25 548.7 268.575 550.15 268.85 550.5541015625 268.955859375 550.9 268.7 551.24375 268.500390625 551.3 268.1 551.4060546875 267.69609375 551.15 267.35 550.95 267.0064453125 550.55 266.9 549.1 266.625 547.65 266.3
M 495.25 259
Q 493.75 258.85 492.25 258.7 491.8419921875 258.6607421875 491.5 258.9 491.19765625 259.1888671875 491.15 259.6 491.110546875 260.007421875 491.35 260.3 491.6392578125 260.651953125 492.05 260.7 493.55 260.85 495.05 261 495.4578125 261.0392578125 495.75 260.75 496.10234375 260.5111328125 496.15 260.1 496.1896484375 259.692578125 495.9 259.35 495.6607421875 259.0478515625 495.25 259
M 499.2 259.4
Q 498.7919921875 259.3607421875 498.45 259.6 498.14765625 259.8888671875 498.1 260.3 498.060546875 260.707421875 498.3 261 498.5892578125 261.351953125 499 261.4 500.5 261.55 502 261.7 502.4078125 261.7392578125 502.7 261.45 503.05234375 261.2111328125 503.1 260.8 503.1396484375 260.392578125 502.85 260.05 502.6107421875 259.7478515625 502.2 259.7 500.7 259.55 499.2 259.4
M 522.85 264.2
Q 523.2763671875 264.2533203125 523.6 264 523.9369140625 263.7416015625 524 263.3 524.0537109375 262.9234375 523.8 262.6 523.5416015625 262.2634765625 523.1 262.2 521.675 262 520.2 261.8 519.8236328125 261.746484375 519.5 262 519.1630859375 262.2583984375 519.1 262.65 519.0462890625 263.0765625 519.3 263.4 519.558203125 263.7365234375 519.95 263.8 521.425 264 522.85 264.2
M 525.9 263.65
Q 525.846484375 264.0771484375 526.1 264.4 526.3587890625 264.73671875 526.75 264.8 528.249609375 264.9876953125 529.65 265.2 530.0830078125 265.3046875 530.4 265.05 530.758984375 264.8337890625 530.8 264.4 530.905078125 264.0162109375 530.65 263.65 530.434375 263.34140625 530 263.25 528.5501953125 263.012109375 527 262.8 526.6228515625 262.7466796875 526.3 263 525.962890625 263.258984375 525.9 263.65
M 510.1 261.55
Q 510.1396484375 261.142578125 509.85 260.8 509.6107421875 260.4978515625 509.2 260.45 507.7 260.3 506.2 260.15 505.7919921875 260.1107421875 505.45 260.35 505.14765625 260.6388671875 505.1 261.05 505.060546875 261.457421875 505.3 261.75 505.5892578125 262.101953125 506 262.15 507.5 262.3 509 262.45 509.4078125 262.4892578125 509.7 262.2 510.05234375 261.9611328125 510.1 261.55
M 512.3 262.5
Q 512.5587890625 262.83671875 512.95 262.9 514.475 263.1 515.95 263.3 516.376953125 263.3533203125 516.7 263.1 517.037109375 262.841015625 517.1 262.4 517.1537109375 262.02265625 516.9 261.7 516.6412109375 261.3630859375 516.2 261.3 514.725 261.1 513.2 260.9 512.8228515625 260.8466796875 512.5 261.1 512.162890625 261.358984375 512.1 261.75 512.046484375 262.1771484375 512.3 262.5
M 637.4 296.3
Q 636.0875 295.65 634.7 295 634.3564453125 294.8162109375 633.95 294.95 633.5828125 295.09453125 633.4 295.45 633.2162109375 295.8421875 633.35 296.2 633.495703125 296.6169921875 633.85 296.8 635.2123046875 297.45 636.5 298.1 636.8775390625 298.283203125 637.25 298.15 637.665234375 298.0197265625 637.85 297.65 638.03359375 297.2728515625 637.9 296.85 637.7693359375 296.4853515625 637.4 296.3
M 627 292.5
Q 626.866015625 292.8720703125 627 293.25 627.1740234375 293.645703125 627.55 293.8 628.9 294.425 630.25 295 630.6232421875 295.183984375 631 295 631.395703125 294.8771484375 631.55 294.5 631.733984375 294.1279296875 631.55 293.75 631.4259765625 293.354296875 631.05 293.15 629.7 292.575 628.35 291.95 627.9767578125 291.816015625 627.6 291.95 627.2041015625 292.1228515625 627 292.5
M 624.8 290.75
Q 624.6759765625 290.354296875 624.3 290.15 622.9501953125 289.575 621.55 288.95 621.162109375 288.8158203125 620.75 288.95 620.390234375 289.1244140625 620.2 289.5 620.0658203125 289.88671875 620.2 290.25 620.3755859375 290.6595703125 620.75 290.8 622.15 291.425 623.5 292 623.8732421875 292.183984375 624.25 292 624.645703125 291.8771484375 624.8 291.5 624.983984375 291.1279296875 624.8 290.75
M 613.75 287.6
Q 613.94140625 287.9763671875 614.3 288.1 615.7123046875 288.6751953125 617.1 289.25 617.487890625 289.433984375 617.85 289.25 618.259765625 289.1255859375 618.4 288.75 618.5841796875 288.3634765625 618.4 287.95 618.2744140625 287.5904296875 617.9 287.4 616.4873046875 286.824609375 615.05 286.25 614.6849609375 286.116015625 614.3 286.25 613.9234375 286.4412109375 613.75 286.8 613.6158203125 287.2146484375 613.75 287.6
M 607.25 284.2
Q 607.1158203125 284.6146484375 607.25 285 607.44140625 285.3763671875 607.8 285.5 609.225 286.075 610.6 286.6 611.0150390625 286.783984375 611.4 286.6 611.7765625 286.4587890625 611.9 286.05 612.0841796875 285.6853515625 611.9 285.3 611.75859375 284.9236328125 611.35 284.75 609.975 284.225 608.55 283.65 608.1849609375 283.516015625 607.8 283.65 607.4234375 283.8412109375 607.25 284.2
M 591.65 277.7
Q 590.25 277.25 588.85 276.8 588.4634765625 276.666796875 588.1 276.85 587.729296875 277.0484375 587.6 277.45 587.46640625 277.8369140625 587.65 278.2 587.848046875 278.5703125 588.25 278.7 589.65 279.15 591.05 279.6 591.436328125 279.733203125 591.8 279.55 592.170703125 279.3515625 592.3 278.95 592.43359375 278.5630859375 592.25 278.2 592.051953125 277.8296875 591.65 277.7
M 598.85 280.45
Q 598.667578125 280.0953125 598.25 279.95 596.875 279.45 595.45 278.95 595.09296875 278.8162109375 594.7 279 594.3451171875 279.1822265625 594.2 279.55 594.066015625 279.95703125 594.25 280.3 594.4322265625 280.7046875 594.8 280.85 596.225 281.35 597.6 281.85 598.00703125 281.98359375 598.35 281.8 598.7548828125 281.6177734375 598.9 281.2 599.033984375 280.84296875 598.85 280.45
M 600.75 281.85
Q 600.616015625 282.25703125 600.8 282.6 600.9822265625 283.0046875 601.35 283.15 602.775 283.65 604.15 284.15 604.55703125 284.28359375 604.9 284.1 605.3048828125 283.9177734375 605.45 283.5 605.583984375 283.14296875 605.4 282.75 605.217578125 282.3953125 604.8 282.25 603.425 281.75 602 281.25 601.64296875 281.1162109375 601.25 281.3 600.8951171875 281.4822265625 600.75 281.85
M 578.85 274.15
Q 578.6720703125 273.8134765625 578.25 273.7 576.875 273.2873046875 575.4 272.85 575.0185546875 272.7673828125 574.65 272.95 574.2875 273.1787109375 574.15 273.55 574.0671875 273.98125 574.25 274.35 574.47890625 274.7123046875 574.85 274.8 576.3248046875 275.2125 577.7 275.6 578.1177734375 275.7203125 578.45 275.5 578.83671875 275.3224609375 578.95 274.9 579.0705078125 274.5326171875 578.85 274.15
M 585.6 276.1
Q 585.4369140625 275.765625 585.05 275.65 583.5875 275.1873046875 582.1 274.75 581.7185546875 274.6673828125 581.35 274.85 580.9875 275.0787109375 580.85 275.45 580.7671875 275.88125 580.95 276.25 581.17890625 276.6123046875 581.55 276.7 583.0125 277.1126953125 584.45 277.55 584.851953125 277.670703125 585.2 277.45 585.584375 277.2876953125 585.7 276.9 585.8208984375 276.4986328125 585.6 276.1
M 567.85 271.15
Q 567.4865234375 271.3923828125 567.35 271.8 567.2673828125 272.1951171875 567.45 272.55 567.692578125 272.91328125 568.1 273 569.6 273.425 571.1 273.8 571.4953125 273.932421875 571.85 273.7 572.2134765625 273.5076171875 572.3 273.1 572.4326171875 272.705078125 572.2 272.35 572.007421875 271.98671875 571.6 271.85 570.1 271.475 568.6 271.05 568.2046875 270.967578125 567.85 271.15
M 393.95 395.05
Q 393.9169921875 394.669140625 393.6 394.4 392.4626953125 393.4 391.35 392.4 391.0650390625 392.1265625 390.65 392.15 390.2337890625 392.16875 389.95 392.45 389.6755859375 392.784765625 389.7 393.2 389.7189453125 393.615234375 390 393.9 391.1373046875 394.9001953125 392.3 395.9 392.6130859375 396.1744140625 393 396.15 393.4318359375 396.1171875 393.7 395.8 393.9755859375 395.487109375 393.95 395.05
M 386.5 387.85
Q 386.19296875 387.5900390625 385.75 387.6 385.3619140625 387.6048828125 385.05 387.9 384.7892578125 388.2064453125 384.8 388.6 384.8052734375 389.0373046875 385.1 389.3 386.15 390.325 387.2 391.3 387.50703125 391.6099609375 387.9 391.6 388.3380859375 391.5951171875 388.6 391.3 388.9107421875 390.9935546875 388.9 390.55 388.8947265625 390.1626953125 388.6 389.85 387.55 388.875 386.5 387.85
M 371.65 371.85
Q 371.2576171875 371.809765625 370.9 372.05 370.598828125 372.323828125 370.55 372.7 370.51015625 373.141796875 370.75 373.45 371.725 374.675 372.65 375.85 372.9244140625 376.2005859375 373.3 376.25 373.7423828125 376.290234375 374.05 376 374.401171875 375.776171875 374.45 375.35 374.48984375 374.958203125 374.2 374.6 373.275 373.425 372.3 372.2 372.0755859375 371.8994140625 371.65 371.85
M 380.15 382.85
Q 379.8548828125 383.1619140625 379.85 383.55 379.8400390625 383.99296875 380.1 384.3 381.1373046875 385.3498046875 382.2 386.4 382.4892578125 386.696484375 382.9 386.7 383.3107421875 386.696484375 383.6 386.4 383.896484375 386.1107421875 383.9 385.7 383.896484375 385.2892578125 383.6 385 382.5626953125 383.95 381.55 382.9 381.2873046875 382.6052734375 380.85 382.6 380.4564453125 382.5892578125 380.15 382.85
M 378.75 381.4
Q 379.08125 381.1162109375 379.1 380.7 379.1240234375 380.2853515625 378.85 379.95 377.8 378.8375 376.8 377.7 376.530859375 377.3828125 376.1 377.35 375.7130859375 377.3244140625 375.4 377.6 375.0828125 377.8681640625 375.05 378.25 375.025390625 378.6869140625 375.3 379 376.2998046875 380.1625 377.35 381.3 377.6341796875 381.63046875 378.05 381.65 378.465234375 381.6744140625 378.75 381.4
M 366.5 367.7
Q 367.4 368.975 368.3 370.2 368.54375 370.5599609375 368.95 370.6 369.348046875 370.6921875 369.65 370.45 370.01015625 370.2072265625 370.05 369.8 370.1412109375 369.401953125 369.9 369.05 369 367.825 368.1 366.55 367.85625 366.2400390625 367.45 366.15 367.051953125 366.1080078125 366.7 366.35 366.3900390625 366.59296875 366.3 367 366.2587890625 367.398046875 366.5 367.7
M 362.6 360.95
Q 362.5302734375 361.3583984375 362.75 361.7
L 364.25 364.25
Q 364.456640625 364.626171875 364.85 364.7 365.2470703125 364.8197265625 365.6 364.6 365.96484375 364.393359375 366.05 364 366.1697265625 363.5916015625 365.95 363.2
L 364.45 360.65
Q 364.243359375 360.323828125 363.85 360.2 363.4529296875 360.1302734375 363.1 360.35 362.73515625 360.556640625 362.6 360.95
M 358.95 354.95
Q 358.8671875 355.3431640625 359.05 355.7
L 360.6 358.3
Q 360.8419921875 358.6615234375 361.25 358.75 361.64453125 358.8828125 362 358.65 362.362890625 358.458203125 362.45 358.05 362.5826171875 357.6568359375 362.35 357.3
L 360.8 354.7
Q 360.6080078125 354.33828125 360.2 354.2 359.80546875 354.1171875 359.45 354.3 359.0869140625 354.5419921875 358.95 354.95
M 379.7 261.7
Q 379.9896484375 261.407421875 379.95 261 379.90234375 260.5888671875 379.55 260.3 379.2578125 260.0607421875 378.85 260.1 377.35 260.25 375.85 260.4 375.4392578125 260.4478515625 375.15 260.75 374.910546875 261.092578125 374.95 261.5 374.99765625 261.9111328125 375.3 262.15 375.6419921875 262.4392578125 376.05 262.4 377.55 262.25 379.05 262.1 379.4607421875 262.051953125 379.7 261.7
M 372.95 261.75
Q 372.8875 261.3595703125 372.55 261.1 372.227734375 260.846875 371.8 260.9 370.275 261.0998046875 368.75 261.3 368.3587890625 261.3630859375 368.1 261.7 367.846484375 262.02265625 367.9 262.4 367.962890625 262.841015625 368.3 263.1 368.6228515625 263.3533203125 369 263.3 370.525 263.1 372.05 262.9 372.4904296875 262.837109375 372.75 262.5 373.003515625 262.1779296875 372.95 261.75
M 386.6 259.6
Q 386.3078125 259.3607421875 385.9 259.4 384.4 259.55 382.9 259.7 382.4892578125 259.7478515625 382.2 260.05 381.960546875 260.392578125 382 260.8 382.04765625 261.2111328125 382.35 261.45 382.6919921875 261.7392578125 383.1 261.7 384.6 261.55 386.1 261.4 386.5107421875 261.351953125 386.75 261 387.0396484375 260.707421875 387 260.3 386.95234375 259.8888671875 386.6 259.6
M 392.9 258.7
Q 391.4 258.85 389.9 259 389.4892578125 259.0478515625 389.2 259.35 388.960546875 259.692578125 389 260.1 389.04765625 260.5111328125 389.35 260.75 389.6919921875 261.0392578125 390.1 261 391.6 260.85 393.1 260.7 393.5107421875 260.651953125 393.75 260.3 394.0396484375 260.007421875 394 259.6 393.95234375 259.1888671875 393.6 258.9 393.3078125 258.6607421875 392.9 258.7
M 400.65 258.35
Q 400.33671875 258.075 399.9 258.1 398.425 258.2 396.9 258.3 396.5177734375 258.333203125 396.25 258.65 395.974609375 258.962890625 396 259.35 396.0328125 259.7818359375 396.35 260.05 396.66328125 260.325 397.05 260.3 398.575 260.2 400.05 260.1 400.4822265625 260.066796875 400.75 259.75 401.025390625 259.437109375 401 259 400.9671875 258.6181640625 400.65 258.35
M 333.2 268.25
Q 333.30625 268.650390625 333.65 268.85 333.9958984375 269.105859375 334.4 269 335.85 268.725 337.3 268.4 337.7 268.3435546875 337.9 268 338.1560546875 267.65390625 338.05 267.25 337.99375 266.849609375 337.65 266.6 337.3041015625 266.394140625 336.9 266.45 335.45 266.775 334 267.05 333.5998046875 267.1564453125 333.35 267.5 333.1439453125 267.84609375 333.2 268.25
M 324.4 270.9
Q 324.6193359375 270.575 324.5 270.15 324.42890625 269.7712890625 324.05 269.55 323.7248046875 269.3310546875 323.3 269.4 321.825 269.775 320.3 270.1 319.92109375 270.221484375 319.7 270.55 319.4806640625 270.9251953125 319.55 271.3 319.6712890625 271.72890625 320 271.95 320.3751953125 272.1689453125 320.75 272.05 322.275 271.725 323.75 271.35 324.17890625 271.278515625 324.4 270.9
M 327 270.3
Q 327.3751953125 270.5189453125 327.75 270.4 329.275 270.075 330.75 269.7 331.17890625 269.628515625 331.4 269.25 331.6193359375 268.925 331.5 268.5 331.42890625 268.1212890625 331.05 267.9 330.7248046875 267.6810546875 330.3 267.75 328.825 268.125 327.3 268.45 326.92109375 268.571484375 326.7 268.9 326.4806640625 269.2751953125 326.55 269.65 326.6712890625 270.07890625 327 270.3
M 361.8 262.2
Q 361.408203125 262.2634765625 361.15 262.6 360.8962890625 262.9234375 360.95 263.3 361.0130859375 263.7416015625 361.35 264 361.6736328125 264.2533203125 362.05 264.2 363.525 263.9998046875 365 263.8 365.4412109375 263.73671875 365.7 263.4 365.9537109375 263.0771484375 365.9 262.65 365.837109375 262.258984375 365.5 262 365.176953125 261.7466796875 364.75 261.8 363.2748046875 262 361.8 262.2
M 345 265.9
Q 344.9595703125 265.5298828125 344.6 265.3 344.2853515625 265.0578125 343.85 265.1 342.3625 265.374609375 340.85 265.65 340.4498046875 265.75625 340.2 266.1 339.9939453125 266.4453125 340.05 266.85 340.155859375 267.249609375 340.5 267.45 340.8458984375 267.70546875 341.25 267.6 342.7375 267.3251953125 344.2 267.05 344.6197265625 267.009375 344.85 266.65 345.0923828125 266.3349609375 345 265.9
M 351.95 264.7
Q 351.9095703125 264.3298828125 351.55 264.1 351.2353515625 263.8578125 350.8 263.9 349.325 264.175 347.8 264.4 347.4302734375 264.490625 347.2 264.8 346.9576171875 265.1650390625 347 265.55 347.0904296875 265.9701171875 347.4 266.2 347.7646484375 266.4421875 348.15 266.35 349.675 266.125 351.15 265.85 351.5697265625 265.809375 351.8 265.45 352.0423828125 265.1349609375 351.95 264.7
M 354.2 263.65
Q 353.9576171875 264.0150390625 354 264.4 354.0904296875 264.8201171875 354.4 265.05 354.7646484375 265.2921875 355.15 265.2 356.6498046875 264.9876953125 358.1 264.8 358.5412109375 264.73671875 358.8 264.4 359.0537109375 264.0771484375 359 263.65 358.937109375 263.258984375 358.6 263 358.276953125 262.7466796875 357.85 262.8 356.35 263.012109375 354.8 263.25 354.4302734375 263.340625 354.2 263.65
M 484.35 259.7
Q 484.6392578125 260.051953125 485.05 260.1 486.55 260.25 488.05 260.4 488.4578125 260.4392578125 488.75 260.15 489.10234375 259.9111328125 489.15 259.5 489.1896484375 259.092578125 488.9 258.75 488.6607421875 258.4478515625 488.25 258.4 486.75 258.25 485.25 258.1 484.8419921875 258.0607421875 484.5 258.3 484.19765625 258.5888671875 484.15 259 484.110546875 259.407421875 484.35 259.7
M 685.6 327.8
Q 685.55234375 327.390234375 685.2 327.1 684.075 326.175 682.9 325.2 682.6078125 324.961328125 682.2 325 681.789453125 325.047265625 681.5 325.35 681.260546875 325.691796875 681.3 326.1 681.3474609375 326.509765625 681.65 326.75 682.825 327.725 683.95 328.65 684.2921875 328.9384765625 684.7 328.9 685.110546875 328.852734375 685.35 328.5 685.6392578125 328.2080078125 685.6 327.8
M 649.95 304.3
Q 650.1828125 303.94453125 650.05 303.55 649.9615234375 303.1419921875 649.6 302.9 648.3 302.175 647 301.4 646.6431640625 301.2171875 646.25 301.3 645.8419921875 301.4369140625 645.6 301.8 645.4171875 302.15546875 645.5 302.55 645.63828125 302.9580078125 646 303.15 647.3 303.925 648.6 304.65 648.9568359375 304.8826171875 649.35 304.75 649.758203125 304.662890625 649.95 304.3
M 651.65 305.3
Q 651.4671875 305.65546875 651.55 306.05 651.68828125 306.4580078125 652.05 306.65 653.337109375 307.4125 654.55 308.15 654.9416015625 308.3697265625 655.35 308.25 655.743359375 308.16484375 655.95 307.8 656.1697265625 307.4470703125 656.05 307.05 655.976171875 306.656640625 655.6 306.45 654.3625 305.6873046875 653.05 304.9 652.6931640625 304.7171875 652.3 304.8 651.8919921875 304.9369140625 651.65 305.3
M 660.05 309.2
Q 659.7234375 308.9810546875 659.3 309.05 658.920703125 309.171484375 658.7 309.5 658.4806640625 309.87578125 658.55 310.25 658.6720703125 310.67890625 659 310.9 660.3123046875 311.7 661.55 312.5 661.911328125 312.7185546875 662.3 312.6 662.726953125 312.542578125 662.95 312.2 663.169140625 311.8392578125 663.05 311.4 662.991796875 311.0234375 662.65 310.8 661.3875 310 660.05 309.2
M 677.4 320.9
Q 677.0626953125 320.646484375 676.65 320.7 676.2453125 320.7634765625 676 321.1 675.74609375 321.43671875 675.8 321.85 675.8640625 322.2541015625 676.2 322.5 677.4 323.4 678.6 324.3 678.9373046875 324.5533203125 679.35 324.5 679.7546875 324.4365234375 680 324.1 680.25390625 323.76328125 680.2 323.35 680.1357421875 322.9458984375 679.8 322.7 678.6 321.8 677.4 320.9
M 670.3 317.1
Q 670.0943359375 317.4439453125 670.15 317.85 670.25625 318.2484375 670.6 318.45 671.8373046875 319.325 673 320.15 673.366015625 320.404296875 673.75 320.3 674.183203125 320.259375 674.4 319.9 674.6548828125 319.5841796875 674.55 319.15 674.508984375 318.7673828125 674.15 318.5 672.9626953125 317.675 671.7 316.8 671.3548828125 316.5943359375 670.95 316.65 670.5515625 316.755078125 670.3 317.1
M 668.85 315.25
Q 668.7931640625 314.850390625 668.45 314.6 667.2501953125 313.8125 666 313 665.638671875 312.7814453125 665.2 312.85 664.823046875 312.957421875 664.6 313.3 664.3810546875 313.660546875 664.45 314.05 664.558203125 314.4765625 664.9 314.7 666.1498046875 315.4875 667.35 316.25 667.6962890625 316.505859375 668.1 316.4 668.499609375 316.344140625 668.7 316 668.9560546875 315.6546875 668.85 315.25
M 701.05 345.75
Q 701.0087890625 346.148046875 701.25 346.45 702.1373046875 347.7125 702.95 348.95 703.2015625 349.29375 703.6 349.35 704.0060546875 349.4556640625 704.35 349.2 704.694921875 348.9986328125 704.75 348.6 704.85546875 348.1951171875 704.6 347.85 703.7626953125 346.5875 702.85 345.3 702.60625 344.9900390625 702.2 344.9 701.801953125 344.8580078125 701.45 345.1 701.1400390625 345.34296875 701.05 345.75
M 694.2 338.1
Q 694.4892578125 338.396484375 694.9 338.4 695.3107421875 338.396484375 695.6 338.1 695.896484375 337.8107421875 695.9 337.4 695.896484375 336.9892578125 695.6 336.7 694.5501953125 335.6375 693.45 334.55 693.1427734375 334.2896484375 692.7 334.3 692.3119140625 334.3048828125 692 334.6 691.7392578125 334.90625 691.75 335.3 691.7556640625 335.7376953125 692.05 336 693.149609375 337.0625 694.2 338.1
M 697.7 339.4
Q 697.3130859375 339.3744140625 697 339.65 696.6828125 339.9181640625 696.65 340.3 696.625390625 340.7369140625 696.9 341.05 697.887109375 342.1873046875 698.8 343.3 699.090234375 343.65234375 699.5 343.7 699.9080078125 343.7392578125 700.2 343.45 700.552734375 343.210546875 700.6 342.8 700.6384765625 342.3921875 700.35 342.05 699.4126953125 340.9123046875 698.4 339.75 698.130859375 339.4328125 697.7 339.4
M 690.85 332.45
Q 690.8310546875 332.0345703125 690.5 331.75 689.4126953125 330.75 688.25 329.75 687.9369140625 329.475390625 687.5 329.5 687.1181640625 329.5328125 686.85 329.85 686.5744140625 330.1630859375 686.6 330.55 686.6328125 330.980859375 686.95 331.25 688.0873046875 332.2501953125 689.15 333.25 689.484765625 333.5234375 689.9 333.5 690.3162109375 333.48125 690.6 333.15 690.8744140625 332.865234375 690.85 332.45 Z"/>
</g>

<g id="Duplicate_Items_Folder_fnfmf343434_copy_30_0_Layer1_0_FILL">
<path fill="#FFFFFF" stroke="none" d="
M 30 -15
Q 30 -30 15 -30
L -15 -30
Q -30 -30 -30 -15
L -30 15.05
Q -30 30.05 -15 30.05
L 15 30.05
Q 30 30.05 30 15.05
L 30 -15 Z"/>
</g>

<g id="Duplicate_Items_Folder_fnfmf343434_copy_31_0_Layer1_0_FILL">
<path fill="#FFFFFF" stroke="none" d="
M 30 -15
Q 30 -30 15 -30
L -15 -30
Q -30 -30 -30 -15
L -30 15.05
Q -30 30.05 -15 30.05
L 15 30.05
Q 30 30.05 30 15.05
L 30 -15 Z"/>
</g>

<g id="Layer0_4_STROKES_1_FILL">
<path fill="#0EA6E9" stroke="none" d="
M 329.85 414.3
Q 329.4876953125 414.1291015625 329.1 414.25 328.69921875 414.3798828125 328.5 414.75 327.8123046875 416.0873046875 327.1 417.35 326.9298828125 417.73515625 327.05 418.1 327.1646484375 418.5240234375 327.5 418.7 327.884765625 418.920703125 328.25 418.8 328.6732421875 418.6849609375 328.85 418.3 329.5875 417.0126953125 330.3 415.65 330.483203125 415.28671875 330.35 414.9 330.22109375 414.5115234375 329.85 414.3
M 332.9 408.05
Q 332.5578125 407.8662109375 332.15 408 331.7828125 408.145703125 331.6 408.5 330.95 409.875 330.3 411.2 330.1162109375 411.593359375 330.25 411.95 330.39453125 412.3671875 330.75 412.55 331.1421875 412.7337890625 331.5 412.6 331.9169921875 412.454296875 332.1 412.05 332.75 410.725 333.4 409.35 333.5837890625 409.0064453125 333.45 408.6 333.30546875 408.2328125 332.9 408.05
M 335.75 401.75
Q 335.3779296875 401.616015625 335 401.75 334.604296875 401.9240234375 334.4 402.3 333.825 403.65 333.2 405 333.066015625 405.3732421875 333.2 405.75 333.3728515625 406.145703125 333.75 406.3 334.1220703125 406.483984375 334.5 406.3 334.895703125 406.1759765625 335.05 405.8 335.675 404.45 336.25 403.1 336.433984375 402.7267578125 336.25 402.35 336.1271484375 401.9541015625 335.75 401.75
M 304.3 448.05
Q 304.2 448.1 304.1 448.15 303.7306640625 448.3353515625 303.6 448.7 303.46640625 449.1228515625 303.65 449.5 303.834765625 449.8697265625 304.2 450 304.6224609375 450.133203125 305 449.95 305.1 449.9 305.2 449.85 305.5693359375 449.6646484375 305.7 449.25 305.83359375 448.8771484375 305.65 448.5 305.465234375 448.1302734375 305.05 448 304.6775390625 447.866796875 304.3 448.05
M 309.7 442.95
Q 309.3119140625 442.955859375 309 443.25 307.9375 444.399609375 306.85 445.5 306.553515625 445.7892578125 306.55 446.2 306.553515625 446.6107421875 306.85 446.9 307.1392578125 447.196484375 307.55 447.2 307.9607421875 447.196484375 308.25 446.9 309.3625 445.8001953125 310.45 444.65 310.7603515625 444.342578125 310.75 443.9 310.7451171875 443.5119140625 310.45 443.2 310.1435546875 442.939453125 309.7 442.95
M 312.45 441.95
Q 312.880859375 441.9169921875 313.15 441.6 314.1623046875 440.4501953125 315.15 439.25 315.43828125 438.9208984375 315.4 438.5 315.3654296875 438.0900390625 315.05 437.8 314.7212890625 437.5607421875 314.3 437.6 313.8908203125 437.634765625 313.6 437.95 312.6375 439.1498046875 311.65 440.3 311.375390625 440.6130859375 311.4 441 311.4328125 441.4318359375 311.75 441.7 312.0630859375 441.9755859375 312.45 441.95
M 318.4 432.1
Q 318.0173828125 432.191015625 317.75 432.5 316.949609375 433.699609375 316.05 434.8 315.8103515625 435.15859375 315.85 435.55 315.89921875 435.9767578125 316.2 436.2 316.5583984375 436.490625 316.95 436.45 317.38828125 436.4005859375 317.65 436.05 318.562890625 434.900390625 319.4 433.65 319.654296875 433.333984375 319.55 432.9 319.509375 432.516796875 319.15 432.25 318.8341796875 432.0451171875 318.4 432.1
M 323 426.4
Q 322.6740234375 426.1806640625 322.25 426.25 321.87109375 426.3720703125 321.65 426.7 320.862109375 428.012109375 320 429.25 319.7943359375 429.5951171875 319.85 430 319.955078125 430.3986328125 320.3 430.6 320.6439453125 430.8556640625 321.05 430.75 321.4484375 430.69375 321.65 430.35 322.537890625 429.087890625 323.35 427.75 323.5689453125 427.4234375 323.45 427 323.378515625 426.620703125 323 426.4
M 323.75 423.3
Q 323.5302734375 423.6916015625 323.6 424.1 323.73515625 424.493359375 324.1 424.7 324.4529296875 424.9197265625 324.85 424.8 325.243359375 424.726171875 325.45 424.35 326.2125 423.1125 326.95 421.8 327.1826171875 421.4431640625 327.05 421.05 326.962890625 420.6419921875 326.6 420.4 326.24453125 420.2171875 325.85 420.3 325.4419921875 420.43828125 325.2 420.8 324.4873046875 422.087109375 323.75 423.3
M 337.6 395.35
Q 337.2236328125 395.54140625 337.05 395.9 336.525 397.325 335.95 398.65 335.816015625 399.0501953125 335.95 399.4 336.13984375 399.8126953125 336.5 399.95 336.9001953125 400.1341796875 337.25 399.95 337.6623046875 399.81015625 337.8 399.4 338.3748046875 398.075 338.9 396.65 339.083984375 396.2849609375 338.9 395.9 338.7587890625 395.5234375 338.35 395.35 337.9853515625 395.2158203125 337.6 395.35
M 339.85 389.15
Q 339.5134765625 389.3779296875 339.4 389.75 339.3080078125 390.0625 339.15 390.35 339.1619140625 390.3771484375 339.15 390.4 338.8 391.35 338.45 392.3 338.316015625 392.6935546875 338.5 393.05 338.66875 393.45390625 339.05 393.6 339.44296875 393.733984375 339.8 393.55 340.20390625 393.380859375 340.35 393 340.7 392.05 341.05 391.1 341.1986328125 390.7115234375 341.3 390.3 341.4203125 389.9322265625 341.2 389.55 341.0224609375 389.21328125 340.6 389.1 340.2326171875 388.9794921875 339.85 389.15
M 342.35 382.1
Q 341.9802734375 382.2849609375 341.85 382.65 341.35 384.175 340.85 385.65 340.71640625 386.073046875 340.9 386.45 341.084765625 386.8197265625 341.45 386.95 341.8728515625 387.08359375 342.25 386.9 342.61953125 386.71484375 342.75 386.3 343.25 384.825 343.75 383.3 343.8833984375 382.9267578125 343.7 382.55 343.515234375 382.1802734375 343.1 382.05 342.7271484375 381.91640625 342.35 382.1
M 343.95 376.1
Q 343.549609375 377.5126953125 343.1 378.95 342.979296875 379.351953125 343.15 379.7 343.3625 380.084375 343.75 380.2 344.1513671875 380.3208984375 344.5 380.1 344.884375 379.9369140625 345 379.55 345.4501953125 378.087109375 345.85 376.65 345.9703125 376.2822265625 345.75 375.9 345.5724609375 375.56328125 345.15 375.45 344.7826171875 375.3294921875 344.4 375.5 344.0634765625 375.7279296875 343.95 376.1
M 346.3 368.7
Q 345.9376953125 368.92890625 345.8 369.3 345.425 370.7873046875 345 372.3 344.917578125 372.6953125 345.1 373.05 345.3423828125 373.4134765625 345.75 373.5 346.1451171875 373.6326171875 346.5 373.4 346.86328125 373.207421875 346.95 372.8 347.3748046875 371.3125 347.75 369.85 347.882421875 369.4685546875 347.65 369.1 347.4712890625 368.7375 347.05 368.6 346.6689453125 368.5171875 346.3 368.7
M 349.5 362.9
Q 349.619140625 362.526953125 349.4 362.15 349.1798828125 361.821875 348.75 361.7 348.3765625 361.63046875 348 361.85 347.672265625 362.0697265625 347.55 362.45 347.225 363.9248046875 346.85 365.4 346.7810546875 365.8248046875 347 366.15 347.2212890625 366.52890625 347.6 366.6 348.025 366.7193359375 348.35 366.5 348.728515625 366.27890625 348.8 365.85 349.1748046875 364.375 349.5 362.9 Z"/>
</g>

<g id="Layer0_5_STROKES_1_FILL">
<path fill="#0EA6E9" stroke="none" d="
M 572.15 449.6
Q 572.4958984375 449.85546875 572.9 449.75 574.4 449.475 575.9 449.15 576.3001953125 449.09375 576.5 448.75 576.7560546875 448.4046875 576.65 448 576.594140625 447.6001953125 576.25 447.35 575.9041015625 447.1443359375 575.5 447.2 574 447.525 572.5 447.8 572.0998046875 447.90625 571.85 448.25 571.6439453125 448.5953125 571.7 449 571.805859375 449.399609375 572.15 449.6
M 582.8 447.55
Q 583.2302734375 447.477734375 583.45 447.1 583.66953125 446.7734375 583.55 446.35 583.478125 445.9701171875 583.1 445.75 582.773046875 445.530859375 582.35 445.6 580.925 445.975 579.45 446.3 579.0697265625 446.422265625 578.85 446.75 578.63046875 447.1265625 578.7 447.5 578.821875 447.9298828125 579.15 448.15 579.526953125 448.369140625 579.9 448.25 581.375 447.925 582.8 447.55
M 599.3 442.45
Q 599.69296875 442.63359375 600.05 442.5 601.475 442 602.85 441.5 603.267578125 441.3546875 603.45 440.95 603.633984375 440.60703125 603.5 440.2 603.3548828125 439.8322265625 602.95 439.65 602.60703125 439.4662109375 602.2 439.6 600.825 440.1 599.4 440.6 599.0322265625 440.7453125 598.85 441.1 598.666015625 441.49296875 598.8 441.85 598.9451171875 442.2677734375 599.3 442.45
M 592.2 443.2
Q 592.0291015625 443.5986328125 592.15 444 592.2654296875 444.3876953125 592.6 444.55 592.998046875 444.770703125 593.4 444.65 594.85 444.2 596.3 443.75 596.6869140625 443.634375 596.85 443.25 597.0708984375 442.9013671875 596.95 442.5 596.834375 442.1125 596.45 441.9 596.101953125 441.729296875 595.7 441.85 594.25 442.3 592.8 442.75 592.4130859375 442.865625 592.2 443.2
M 586.1 444.6
Q 585.72890625 444.7376953125 585.5 445.1 585.3171875 445.4689453125 585.4 445.85 585.5375 446.2712890625 585.9 446.45 586.2685546875 446.682421875 586.65 446.55 588.125 446.1625 589.5 445.75 589.9220703125 445.6365234375 590.1 445.25 590.3205078125 444.9173828125 590.2 444.5 590.08671875 444.1275390625 589.7 443.9 589.3677734375 443.7296875 588.95 443.85 587.5748046875 444.2373046875 586.1 444.6
M 634.85 426.65
Q 635.2115234375 426.4580078125 635.3 426.05 635.4328125 425.65546875 635.2 425.3 635.008203125 424.9369140625 634.6 424.8 634.2068359375 424.7171875 633.85 424.9 632.55 425.675 631.25 426.4 630.88828125 426.6419921875 630.75 427.05 630.6671875 427.44453125 630.85 427.8 631.0919921875 428.162890625 631.5 428.25 631.8931640625 428.3826171875 632.25 428.15 633.55 427.425 634.85 426.65
M 640.5 421.15
Q 640.111328125 421.0814453125 639.75 421.3 638.5123046875 422.1 637.2 422.9 636.8720703125 423.12109375 636.75 423.5 636.6806640625 423.9240234375 636.9 424.25 637.120703125 424.628515625 637.5 424.7 637.9234375 424.8189453125 638.25 424.6 639.5875 423.8 640.85 423 641.191796875 422.7765625 641.25 422.35 641.369140625 421.960546875 641.15 421.6 640.926953125 421.257421875 640.5 421.15
M 609.45 439
Q 609.85859375 438.8763671875 610 438.5 610.1841796875 438.1146484375 610 437.7 609.8765625 437.3412109375 609.5 437.15 609.1150390625 437.016015625 608.7 437.15 607.325 437.725 605.9 438.25 605.54140625 438.4236328125 605.35 438.8 605.2158203125 439.1853515625 605.35 439.55 605.5234375 439.9587890625 605.9 440.1 606.2849609375 440.283984375 606.65 440.1 608.075 439.575 609.45 439
M 613.2 437.5
Q 614.6 436.925 616 436.3 616.3744140625 436.1595703125 616.5 435.75 616.6841796875 435.38671875 616.5 435 616.359765625 434.6244140625 615.95 434.45 615.587890625 434.3158203125 615.2 434.45 613.8 435.075 612.4 435.65 612.0255859375 435.8404296875 611.85 436.2 611.7158203125 436.6134765625 611.85 437 612.040234375 437.3755859375 612.4 437.5 612.812109375 437.683984375 613.2 437.5
M 622.25 431.5
Q 621.893359375 431.3662109375 621.5 431.55 620.175 432.2 618.8 432.85 618.445703125 433.0328125 618.3 433.4 618.1662109375 433.8078125 618.35 434.15 618.5328125 434.55546875 618.9 434.7 619.3064453125 434.8337890625 619.65 434.65 621.025 434 622.35 433.35 622.754296875 433.1669921875 622.9 432.75 623.0337890625 432.3921875 622.85 432 622.6671875 431.64453125 622.25 431.5
M 625.1 429.75
Q 624.7298828125 429.94921875 624.6 430.35 624.4791015625 430.7376953125 624.65 431.1 624.8615234375 431.47109375 625.25 431.6 625.63671875 431.733203125 626 431.55 627.35 430.85 628.7 430.15 629.0701171875 429.95078125 629.2 429.55 629.32109375 429.1625 629.1 428.8 628.938671875 428.42890625 628.55 428.3 628.16328125 428.166796875 627.8 428.35 626.45 429.05 625.1 429.75
M 645.6 417.4
Q 644.35 418.275 643.1 419.1 642.75625 419.3515625 642.65 419.75 642.5943359375 420.1560546875 642.8 420.5 643.0515625 420.844921875 643.45 420.9 643.8548828125 421.00546875 644.2 420.75 645.45 419.925 646.7 419.05 647.04375 418.8484375 647.1 418.45 647.2056640625 418.0439453125 646.95 417.7 646.7486328125 417.355078125 646.35 417.25 645.9451171875 417.1943359375 645.6 417.4
M 652.8 414.25
Q 652.85390625 413.83671875 652.6 413.5 652.3546875 413.1634765625 651.95 413.1 651.5373046875 413.046484375 651.2 413.3 650 414.2 648.8 415.1 648.4640625 415.3458984375 648.4 415.75 648.34609375 416.16328125 648.6 416.5 648.8453125 416.8365234375 649.25 416.9 649.6626953125 416.9533203125 650 416.7 651.2 415.8 652.4 414.9 652.7357421875 414.6541015625 652.8 414.25
M 654.85 412.65
Q 655.2578125 412.6884765625 655.55 412.4 656.725 411.475 657.85 410.5 658.20234375 410.259765625 658.25 409.85 658.2892578125 409.441796875 658 409.1 657.760546875 408.797265625 657.35 408.75 656.9421875 408.711328125 656.6 408.95 655.475 409.925 654.3 410.85 653.9974609375 411.140234375 653.95 411.55 653.910546875 411.9580078125 654.15 412.25 654.439453125 412.602734375 654.85 412.65
M 660.2 408.2
Q 660.6369140625 408.2244140625 660.95 407.95 662.1126953125 406.9501953125 663.2 405.95 663.5310546875 405.665234375 663.55 405.25 663.5744140625 404.834765625 663.3 404.5 663.0162109375 404.21875 662.6 404.2 662.184765625 404.1765625 661.85 404.45 660.7873046875 405.45 659.65 406.45 659.3328125 406.719140625 659.3 407.1 659.2744140625 407.537109375 659.55 407.85 659.8181640625 408.1671875 660.2 408.2
M 668.4 401.15
Q 668.6943359375 400.8876953125 668.7 400.45 668.710546875 400.05625 668.4 399.75 668.1380859375 399.4548828125 667.7 399.45 667.30703125 399.4396484375 667 399.7 665.9123046875 400.7623046875 664.8 401.75 664.5189453125 402.0345703125 664.5 402.45 664.4755859375 402.865234375 664.75 403.15 665.0337890625 403.48125 665.45 403.5 665.8650390625 403.5234375 666.15 403.25 667.2875 402.2376953125 668.4 401.15
M 691.7 369.95
Q 691.4814453125 370.311328125 691.55 370.7 691.657421875 371.126953125 692 371.35 692.360546875 371.569140625 692.75 371.45 693.1765625 371.391796875 693.4 371.05 694.2 369.7875 695 368.45 695.2189453125 368.1234375 695.1 367.7 695.028515625 367.320703125 694.65 367.1 694.3240234375 366.8806640625 693.9 366.95 693.52109375 367.0720703125 693.3 367.4 692.5 368.7123046875 691.7 369.95
M 697 364.9
L 698.4 362.25
Q 698.6201171875 361.91484375 698.5 361.5 698.3853515625 361.126171875 698 360.9 697.665234375 360.729296875 697.25 360.85 696.8767578125 360.96484375 696.65 361.3
L 695.25 363.95
Q 695.0798828125 364.33515625 695.2 364.7 695.3146484375 365.1240234375 695.65 365.3 696.034765625 365.520703125 696.4 365.4 696.8232421875 365.2849609375 697 364.9
M 681.7 384.15
Q 681.3244140625 384.1994140625 681.05 384.5 680.137109375 385.712109375 679.15 386.85 678.875390625 387.1630859375 678.9 387.55 678.9328125 387.9818359375 679.25 388.25 679.5630859375 388.5255859375 679.95 388.5 680.380859375 388.4669921875 680.65 388.15 681.662890625 386.987890625 682.6 385.75 682.88984375 385.441796875 682.85 385 682.801171875 384.623828125 682.45 384.35 682.1423828125 384.109765625 681.7 384.15
M 672.6 394.5
Q 672.2123046875 394.5056640625 671.9 394.8 670.8875 395.899609375 669.85 396.95 669.553515625 397.2392578125 669.55 397.65 669.553515625 398.0607421875 669.85 398.35 670.1392578125 398.646484375 670.55 398.65 670.9607421875 398.646484375 671.25 398.35 672.3125 397.3001953125 673.35 396.2 673.66015625 395.8927734375 673.65 395.45 673.6451171875 395.0619140625 673.35 394.75 673.0435546875 394.4892578125 672.6 394.5
M 677.95 389.75
Q 677.665234375 389.4755859375 677.25 389.5 676.8345703125 389.5189453125 676.55 389.8 675.55 390.925 674.55 392 674.2765625 392.334765625 674.3 392.75 674.31875 393.1662109375 674.6 393.45 674.934765625 393.7244140625 675.35 393.7 675.765234375 393.6810546875 676.05 393.35 677.05 392.275 678.05 391.15 678.3234375 390.8650390625 678.3 390.45 678.28125 390.0337890625 677.95 389.75
M 686.1 378.6
Q 685.6958984375 378.6640625 685.45 379 684.5623046875 380.1875 683.6 381.35 683.36015625 381.708203125 683.4 382.1 683.448828125 382.526171875 683.75 382.75 684.1076171875 383.040234375 684.5 383 684.9255859375 382.9505859375 685.15 382.6 686.1376953125 381.4125 687.05 380.2 687.3033203125 379.8626953125 687.25 379.45 687.1865234375 379.0453125 686.85 378.8 686.51328125 378.54609375 686.1 378.6
M 687.6 376.55
Q 687.705078125 376.9486328125 688.05 377.15 688.3939453125 377.4056640625 688.8 377.3 689.1984375 377.24375 689.4 376.9 690.275 375.65 691.1 374.4 691.35546875 374.0548828125 691.25 373.65 691.194921875 373.2515625 690.85 373 690.5060546875 372.7943359375 690.1 372.85 689.7015625 372.95625 689.45 373.3 688.625 374.55 687.75 375.8 687.5443359375 376.1451171875 687.6 376.55 Z"/>
</g>

<g id="Duplicate_Items_Folder_fnfmf343434_copy_39_0_Layer1_0_FILL">
<path fill="#FFFFFF" stroke="none" d="
M 30 -15
Q 30 -30 15 -30
L -15 -30
Q -30 -30 -30 -15
L -30 15.05
Q -30 30.05 -15 30.05
L 15 30.05
Q 30 30.05 30 15.05
L 30 -15 Z"/>
</g>

<g id="Duplicate_Items_Folder_fnfmf343434_copy_40_0_Layer1_0_FILL">
<path fill="#FFFFFF" stroke="none" d="
M 30 -15
Q 30 -30 15 -30
L -15 -30
Q -30 -30 -30 -15
L -30 15.05
Q -30 30.05 -15 30.05
L 15 30.05
Q 30 30.05 30 15.05
L 30 -15 Z"/>
</g>

<g id="Duplicate_Items_Folder_fnfmf343434_copy_41_0_Layer1_0_FILL">
<path fill="#FFFFFF" stroke="none" d="
M 30 -15
Q 30 -30 15 -30
L -15 -30
Q -30 -30 -30 -15
L -30 15.05
Q -30 30.05 -15 30.05
L 15 30.05
Q 30 30.05 30 15.05
L 30 -15 Z"/>
</g>

<g id="Layer0_10_FILL">
<path fill="#0EA6E9" stroke="none" d="
M 352.65 440.3
L 350.6 424.4 340.8 437.2 347.65 435.4 352.65 440.3 Z"/>
</g>

<g id="Layer0_11_FILL">
<path fill="#0EA6E9" stroke="none" d="
M 352.65 440.3
L 350.6 424.4 340.8 437.2 347.65 435.4 352.65 440.3 Z"/>
</g>

<path id="Layer0_0_1_STROKES" stroke="#1E1E1E" stroke-width="3" stroke-linejoin="miter" stroke-linecap="butt" stroke-miterlimit="3" fill="none" d="
M 245.65 440.8
L 283.85 440.8
M 514.65 440.8
L 552.85 440.8
M 375.2 589.15
L 413.4 589.15
M 462.2 589.15
L 500.4 589.15
M 555.95 589.15
L 740.65 589.15"/>

<path id="Layer0_0_2_STROKES" stroke="#332D2B" stroke-width="3" stroke-linejoin="round" stroke-linecap="butt" fill="none" d="
M 1101.85 351.45
L 1060.45 351.45 1060.45 366.3
M 1060.45 336.6
L 1060.45 351.45 884.05 351.45 707.5 351.45
M 531.1 351.45
L 354.7 351.45 178.15 351.45 178.15 366.3
M 178.15 336.6
L 178.15 351.45
M 531.1 351.45
L 707.5 351.45"/>

<path id="Layer0_0_3_STROKES" stroke="#332D2B" stroke-width="2" stroke-linejoin="round" stroke-linecap="butt" fill="none" d="
M 884.05 351.45
L 884.05 362.1
M 707.5 362.1
L 707.5 351.45 707.5 340.8
M 884.05 340.8
L 884.05 351.45
M 354.7 362.1
L 354.7 351.45 354.7 340.8
M 531.1 340.8
L 531.1 351.45 531.1 362.1"/>

<path id="Layer0_1_1_STROKES" stroke="#1E1E1E" stroke-width="3" stroke-linejoin="miter" stroke-linecap="butt" stroke-miterlimit="3" fill="none" d="
M 409.85104980468736 259.05
L 472.62057189941424 259.05"/>

<path id="Duplicate_Items_Folder_fnfmf343434_copy_30_0_Layer1_0_1_STROKES" stroke="#DBDBDB" stroke-width="3" stroke-linejoin="round" stroke-linecap="round" fill="none" d="
M -15 -30
L 15 -30
Q 30 -30 30 -15
L 30 15.05
Q 30 30.05 15 30.05
L -15 30.05
Q -30 30.05 -30 15.05
L -30 -15
Q -30 -30 -15 -30 Z"/>

<path id="Duplicate_Items_Folder_fnfmf343434_copy_31_0_Layer1_0_1_STROKES" stroke="#DBDBDB" stroke-width="3" stroke-linejoin="round" stroke-linecap="round" fill="none" d="
M -15 -30
L 15 -30
Q 30 -30 30 -15
L 30 15.05
Q 30 30.05 15 30.05
L -15 30.05
Q -30 30.05 -30 15.05
L -30 -15
Q -30 -30 -15 -30 Z"/>

<path id="Duplicate_Items_Folder_fnfmf343434_copy_39_0_Layer1_0_1_STROKES" stroke="#DBDBDB" stroke-width="3" stroke-linejoin="round" stroke-linecap="round" fill="none" d="
M -15 -30
L 15 -30
Q 30 -30 30 -15
L 30 15.05
Q 30 30.05 15 30.05
L -15 30.05
Q -30 30.05 -30 15.05
L -30 -15
Q -30 -30 -15 -30 Z"/>

<path id="Duplicate_Items_Folder_fnfmf343434_copy_40_0_Layer1_0_1_STROKES" stroke="#DBDBDB" stroke-width="3" stroke-linejoin="round" stroke-linecap="round" fill="none" d="
M -15 -30
L 15 -30
Q 30 -30 30 -15
L 30 15.05
Q 30 30.05 15 30.05
L -15 30.05
Q -30 30.05 -30 15.05
L -30 -15
Q -30 -30 -15 -30 Z"/>

<path id="Layer0_8_1_STROKES" stroke="#1E1E1E" stroke-width="3" stroke-linejoin="miter" stroke-linecap="butt" stroke-miterlimit="3" fill="none" d="
M 791.5010498046873 589.2
L 854.2705718994142 589.2"/>

<path id="Duplicate_Items_Folder_fnfmf343434_copy_41_0_Layer1_0_1_STROKES" stroke="#DBDBDB" stroke-width="3" stroke-linejoin="round" stroke-linecap="round" fill="none" d="
M -15 -30
L 15 -30
Q 30 -30 30 -15
L 30 15.05
Q 30 30.05 15 30.05
L -15 30.05
Q -30 30.05 -30 15.05
L -30 -15
Q -30 -30 -15 -30 Z"/>
</defs>

<g transform="matrix( 1, 0, 0, 1, 0,0) ">
<use xlink:href="#Layer0_0_FILL"/>

<use xlink:href="#Layer0_0_1_STROKES"/>

<use xlink:href="#Layer0_0_2_STROKES"/>

<use xlink:href="#Layer0_0_3_STROKES"/>

<use xlink:href="#Layer0_0_STROKES_1_FILL"/>
</g>

<g transform="matrix( 1.51800537109375, 0, 0, 1, -1356.5,-112.45) ">
<use xlink:href="#Layer0_1_1_STROKES" transform="matrix( 0.65875244140625, 0, 0, 0.9999847412109375, 893.6,112.45) "/>
</g>

<g transform="matrix( 1, 0, 0, 1, 442.2,299.55) ">
<g transform="matrix( 1, 0, 0, 1, 0,0) ">
<use xlink:href="#Duplicate_Items_Folder_fnfmf343434_copy_30_0_Layer1_0_FILL"/>

<use xlink:href="#Duplicate_Items_Folder_fnfmf343434_copy_30_0_Layer1_0_1_STROKES"/>
</g>
</g>

<g transform="matrix( 1, 0, 0, 1, 442.2,219.55) ">
<g transform="matrix( 1, 0, 0, 1, 0,0) ">
<use xlink:href="#Duplicate_Items_Folder_fnfmf343434_copy_31_0_Layer1_0_FILL"/>

<use xlink:href="#Duplicate_Items_Folder_fnfmf343434_copy_31_0_Layer1_0_1_STROKES"/>
</g>
</g>

<g transform="matrix( 1, 0, 0, 0.892822265625, 0,38.15) ">
<use xlink:href="#Layer0_4_STROKES_1_FILL"/>
</g>

<g transform="matrix( 1, 0, 0, 0.8883514404296875, 0,39.7) ">
<use xlink:href="#Layer0_5_STROKES_1_FILL"/>
</g>

<g transform="matrix( 1, 0, 0, 1, 596.8,550.7) ">
<g transform="matrix( 1, 0, 0, 1, 0,0) ">
<use xlink:href="#Duplicate_Items_Folder_fnfmf343434_copy_39_0_Layer1_0_FILL"/>

<use xlink:href="#Duplicate_Items_Folder_fnfmf343434_copy_39_0_Layer1_0_1_STROKES"/>
</g>
</g>

<g transform="matrix( 1, 0, 0, 1, 699.8,550.7) ">
<g transform="matrix( 1, 0, 0, 1, 0,0) ">
<use xlink:href="#Duplicate_Items_Folder_fnfmf343434_copy_40_0_Layer1_0_FILL"/>

<use xlink:href="#Duplicate_Items_Folder_fnfmf343434_copy_40_0_Layer1_0_1_STROKES"/>
</g>
</g>

<g transform="matrix( 1.51800537109375, 0, 0, 1, -974.85,217.7) ">
<use xlink:href="#Layer0_8_1_STROKES" transform="matrix( 0.65875244140625, 0, 0, 0.9999847412109375, 642.15,-217.7) "/>
</g>

<g transform="matrix( 1, 0, 0, 1, 823.85,549.7) ">
<g transform="matrix( 1, 0, 0, 1, 0,0) ">
<use xlink:href="#Duplicate_Items_Folder_fnfmf343434_copy_41_0_Layer1_0_FILL"/>

<use xlink:href="#Duplicate_Items_Folder_fnfmf343434_copy_41_0_Layer1_0_1_STROKES"/>
</g>
</g>

<g transform="matrix( 1, 0, 0, 1, 0,-70) ">
<use xlink:href="#Layer0_10_FILL"/>
</g>

<g transform="matrix( 0.970458984375, 0.2412567138671875, -0.2412567138671875, 0.970458984375, 462.65,-140.8) ">
<use xlink:href="#Layer0_11_FILL"/>
</g>
</svg>
