
<svg xmlns="http://www.w3.org/2000/svg" version="1.1" xmlns:xlink="http://www.w3.org/1999/xlink" preserveAspectRatio="none" x="0px" y="0px" width="1280px" height="720px" viewBox="0 0 1280 720">
<defs>
<g id="Layer0_0_FILL">
<path fill="#1E1E1E" stroke="none" d="
M 1088.2 514.55
Q 1088.35 514.45 1088.35 514.2
L 1088.35 511.05
Q 1088.35 510.85 1088.2 510.7 1088.05 510.6 1087.85 510.6
L 1066.75 510.6
Q 1066.55 510.6 1066.4 510.7 1066.25 510.85 1066.25 511.05
L 1066.25 514.2
Q 1066.25 514.45 1066.4 514.55 1066.55 514.7 1066.75 514.7
L 1087.85 514.7
Q 1088.05 514.7 1088.2 514.55
M 1087.85 506.4
Q 1088.05 506.4 1088.2 506.25 1088.35 506.1 1088.35 505.9
L 1088.35 502.75
Q 1088.35 502.55 1088.2 502.4 1088.05 502.25 1087.85 502.25
L 1066.75 502.25
Q 1066.55 502.25 1066.4 502.4 1066.25 502.55 1066.25 502.75
L 1066.25 505.9
Q 1066.25 506.1 1066.4 506.25 1066.55 506.4 1066.75 506.4
L 1087.85 506.4
M 1139.35 544.15
Q 1140.95 541.9 1141.65 538.9 1142.3 535.85 1142.3 532.5 1142.3 525.05 1139.75 521.5 1137.2 517.95 1132.5 517.95 1130.2 517.95 1128.4 518.75 1126.55 519.55 1125.25 520.95 1123.95 522.35 1123.25 524.25 1122.6 526.15 1122.6 528.35 1122.6 530.65 1123.3 532.45 1123.95 534.25 1125.25 535.55 1126.55 536.85 1128.35 537.55 1130.1 538.25 1132.25 538.25 1133 538.25 1133.8 538.05 1134.6 537.85 1135.35 537.5 1136.1 537.15 1136.75 536.7 1137.35 536.25 1137.7 535.75 1137.45 537.65 1136.85 539.35 1136.25 541 1135.25 542.25 1134.25 543.5 1132.8 544.2 1131.35 544.9 1129.25 544.9 1127.85 544.9 1126.7 544.8 1125.5 544.7 1124.45 544.25 1123.9 544.05 1123.8 544.6
L 1123.7 547.8
Q 1123.65 548.2 1124 548.3 1124.95 548.65 1126.35 548.85 1127.8 549.05 1128.95 549.05 1132.65 549.05 1135.2 547.7 1137.8 546.4 1139.35 544.15
M 1134.5 522.45
Q 1135.45 522.95 1136.15 523.85 1136.85 524.75 1137.25 525.95 1137.65 527.15 1137.65 528.5 1137.65 530.95 1136.2 532.55 1134.7 534.1 1132.1 534.1 1129.65 534.1 1128.35 532.5 1127 530.9 1127 528.15 1127 525.25 1128.5 523.6 1130.05 521.9 1132.45 521.9 1133.55 521.9 1134.5 522.45
M 766.3 510.5
Q 766.8 510.5 766.8 510
L 766.8 506.9
Q 766.8 506.4 766.3 506.4
L 745.15 506.4
Q 744.95 506.4 744.85 506.55 744.7 506.7 744.7 506.9
L 744.7 510
Q 744.7 510.2 744.85 510.35 744.95 510.5 745.15 510.5
L 766.3 510.5
M 786.5 520.95
Q 785.2 522.35 784.5 524.25 783.85 526.15 783.85 528.35 783.85 530.65 784.55 532.45 785.2 534.25 786.5 535.55 787.8 536.85 789.6 537.55 791.35 538.25 793.5 538.25 794.25 538.25 795.05 538.05 795.85 537.85 796.6 537.5 797.35 537.15 798 536.7 798.6 536.25 798.95 535.75 798.7 537.65 798.1 539.35 797.5 541 796.5 542.25 795.5 543.5 794.05 544.2 792.6 544.9 790.5 544.9 789.1 544.9 787.95 544.8 786.75 544.7 785.7 544.25 785.15 544.05 785.05 544.6
L 784.95 547.8
Q 784.9 548.2 785.25 548.3 786.2 548.65 787.6 548.85 789.05 549.05 790.2 549.05 793.9 549.05 796.45 547.7 799.05 546.4 800.6 544.15 802.2 541.9 802.9 538.9 803.55 535.85 803.55 532.5 803.55 525.05 801 521.5 798.45 517.95 793.75 517.95 791.45 517.95 789.65 518.75 787.8 519.55 786.5 520.95
M 789.6 532.5
Q 788.25 530.9 788.25 528.15 788.25 525.25 789.75 523.6 791.3 521.9 793.7 521.9 794.8 521.9 795.75 522.45 796.7 522.95 797.4 523.85 798.1 524.75 798.5 525.95 798.9 527.15 798.9 528.5 798.9 530.95 797.45 532.55 795.95 534.1 793.35 534.1 790.9 534.1 789.6 532.5
M 715.75 517.95
Q 713.45 517.95 711.65 518.75 709.8 519.55 708.5 520.95 707.2 522.35 706.5 524.25 705.85 526.15 705.85 528.35 705.85 530.65 706.55 532.45 707.2 534.25 708.5 535.55 709.8 536.85 711.6 537.55 713.35 538.25 715.5 538.25 716.25 538.25 717.05 538.05 717.85 537.85 718.6 537.5 719.35 537.15 720 536.7 720.6 536.25 720.95 535.75 720.7 537.65 720.1 539.35 719.5 541 718.5 542.25 717.5 543.5 716.05 544.2 714.6 544.9 712.5 544.9 711.1 544.9 709.95 544.8 708.75 544.7 707.7 544.25 707.15 544.05 707.05 544.6
L 706.95 547.8
Q 706.9 548.2 707.25 548.3 708.2 548.65 709.6 548.85 711.05 549.05 712.2 549.05 715.9 549.05 718.45 547.7 721.05 546.4 722.6 544.15 724.2 541.9 724.9 538.9 725.55 535.85 725.55 532.5 725.55 525.05 723 521.5 720.45 517.95 715.75 517.95
M 719.4 523.85
Q 720.1 524.75 720.5 525.95 720.9 527.15 720.9 528.5 720.9 530.95 719.45 532.55 717.95 534.1 715.35 534.1 712.9 534.1 711.6 532.5 710.25 530.9 710.25 528.15 710.25 525.25 711.75 523.6 713.3 521.9 715.7 521.9 716.8 521.9 717.75 522.45 718.7 522.95 719.4 523.85
M 724.7 468.45
Q 724.55 468.3 723.85 468.3
L 706.85 468.3
Q 706.15 468.3 706.15 468.95
L 706.15 471.75
Q 706.15 472.1 706.35 472.25 706.55 472.45 706.85 472.45
L 719.6 472.45 709.15 498
Q 709 498.45 709.15 498.55 709.3 498.7 709.9 498.7
L 713.15 498.7
Q 713.55 498.7 713.7 498.6 713.85 498.45 714.05 498.15
L 724.6 472.1
Q 724.85 471.8 724.85 471.45
L 724.85 469.05
Q 724.85 468.6 724.7 468.45
M 801.85 468.8
Q 801.85 468.6 801.75 468.45 801.6 468.25 801.35 468.25
L 786.7 468.25
Q 786.1 468.25 786 468.4 785.85 468.5 785.85 468.95
L 785.65 483.7
Q 785.65 485.05 787.2 484.4 788.45 483.95 789.85 483.7 791.25 483.4 792.55 483.4 795.85 483.4 797.25 484.95 798.7 486.45 798.7 489.05 798.7 491.75 796.9 493.25 795.2 494.8 792.5 494.8 791.8 494.8 790.95 494.7 790.15 494.65 789.3 494.5 788.45 494.3 787.65 494.1 786.85 493.85 786.3 493.55 785.45 493.15 785.45 493.85
L 785.45 497.1
Q 785.45 497.4 785.45 497.55 785.5 497.65 785.75 497.85 786.4 498.15 787.35 498.35 788.25 498.6 789.2 498.75 790.15 498.85 790.95 498.95 791.8 499 792.2 499 794.5 499 796.55 498.35 798.65 497.7 800.05 496.4 803.2 493.6 803.2 488.55 803.2 486.45 802.45 484.8 801.7 483.1 800.4 481.9 799.1 480.75 797.35 480.1 795.6 479.5 793.6 479.5 791.65 479.5 790.05 479.85
L 790.2 472.45 801.35 472.45
Q 801.6 472.45 801.75 472.25 801.85 472.1 801.85 471.85
L 801.85 468.8
M 958.8 517.95
Q 956.5 517.95 954.7 518.75 952.85 519.55 951.55 520.95 950.25 522.35 949.55 524.25 948.9 526.15 948.9 528.35 948.9 530.65 949.6 532.45 950.25 534.25 951.55 535.55 952.85 536.85 954.65 537.55 956.4 538.25 958.55 538.25 959.3 538.25 960.1 538.05 960.9 537.85 961.65 537.5 962.4 537.15 963.05 536.7 963.65 536.25 964 535.75 963.75 537.65 963.15 539.35 962.55 541 961.55 542.25 960.55 543.5 959.1 544.2 957.65 544.9 955.55 544.9 954.15 544.9 953 544.8 951.8 544.7 950.75 544.25 950.2 544.05 950.1 544.6
L 950 547.8
Q 949.95 548.2 950.3 548.3 951.25 548.65 952.65 548.85 954.1 549.05 955.25 549.05 958.95 549.05 961.5 547.7 964.1 546.4 965.65 544.15 967.25 541.9 967.95 538.9 968.6 535.85 968.6 532.5 968.6 525.05 966.05 521.5 963.5 517.95 958.8 517.95
M 962.45 523.85
Q 963.15 524.75 963.55 525.95 963.95 527.15 963.95 528.5 963.95 530.95 962.5 532.55 961 534.1 958.4 534.1 955.95 534.1 954.65 532.5 953.3 530.9 953.3 528.15 953.3 525.25 954.8 523.6 956.35 521.9 958.75 521.9 959.85 521.9 960.8 522.45 961.75 522.95 962.45 523.85
M 850.7 506.25
Q 850.85 506.1 850.85 505.9
L 850.85 502.75
Q 850.85 502.55 850.7 502.4 850.55 502.25 850.35 502.25
L 829.25 502.25
Q 829.05 502.25 828.9 502.4 828.75 502.55 828.75 502.75
L 828.75 505.9
Q 828.75 506.1 828.9 506.25 829.05 506.4 829.25 506.4
L 850.35 506.4
Q 850.55 506.4 850.7 506.25
M 850.7 514.55
Q 850.85 514.45 850.85 514.2
L 850.85 511.05
Q 850.85 510.85 850.7 510.7 850.55 510.6 850.35 510.6
L 829.25 510.6
Q 829.05 510.6 828.9 510.7 828.75 510.85 828.75 511.05
L 828.75 514.2
Q 828.75 514.45 828.9 514.55 829.05 514.7 829.25 514.7
L 850.35 514.7
Q 850.55 514.7 850.7 514.55
M 968.65 469
Q 968.65 468.5 968.15 468.5
L 947 468.5
Q 946.8 468.5 946.7 468.65 946.55 468.8 946.55 469
L 946.55 472.1
Q 946.55 472.3 946.7 472.45 946.8 472.6 947 472.6
L 968.15 472.6
Q 968.65 472.6 968.65 472.1
L 968.65 469
M 645 259.55
Q 645.05 259.3 645.05 258.9 645.05 258.15 644.65 257.75 644.25 257.3 643.5 257.25
L 633.5 257.25
Q 633.3 258.7 633.1 260.15 632.95 261.6 632.75 263.05 632.5 264.45 632.35 265.95 632.15 267.4 632 268.8 632 268.85 632 268.9
L 632.05 268.9 632.05 268.95
Q 632.05 269.15 632.2 269.25 632.3 269.4 632.6 269.5 632.85 269.6 633.15 269.65 633.4 269.75 633.7 269.75 634 269.75 634.25 269.7 634.5 269.65 634.65 269.6 634.8 269.55 634.9 269.5 635.05 269.4 635.15 269.3 635.3 269.2 635.4 269.1 635.5 269 635.6 268.9 635.65 268.8 635.7 268.75 635.8 268.65 635.9 268.55 636.25 267.95 637.05 267.65 637.8 267.4 638.65 267.4 640.15 267.4 641.2 268.45 641.7 269 641.95 269.7 642.2 270.45 642.2 271.3 642.2 271.8 642.15 272.25 642.1 272.65 642 273.1 641.9 273.5 641.7 273.85 641.5 274.2 641.25 274.5 641.05 274.85 640.75 275.1 640.5 275.35 640.2 275.5 639.8 275.7 639.4 275.8 639 275.85 638.55 275.85 638.2 275.85 637.95 275.8 637.65 275.8 637.4 275.65 637.1 275.55 636.85 275.4 636.55 275.3 636.3 275.1 636.1 274.9 635.9 274.7 635.75 274.5 635.65 274.3 635.5 274.05 635.35 273.85 635.25 273.6 635.15 273.35 635.05 273.25 635 273.1 634.9 273 634.9 272.95
L 634.9 272.9
Q 634.8 272.65 634.7 272.45 634.55 272.25 634.4 272.15 634.2 272.05 633.95 272 633.7 271.95 633.45 271.95 633 271.95 632.7 272.05 632.4 272.15 632.15 272.35 631.9 272.55 631.75 272.8 631.65 273.05 631.65 273.35 631.65 273.45 631.65 273.55 631.65 273.65 631.7 273.8 631.7 273.9 631.7 274 631.75 274.15 631.85 274.35 631.9 274.55 632 274.75 632.1 275 632.15 275.2 632.3 275.5 632.45 275.75 632.6 276 632.85 276.25 633 276.5 633.2 276.75 633.35 276.95 633.55 277.2 634.5 278.25 635.75 278.75 637 279.3 638.55 279.3 639.2 279.3 639.85 279.15 640.5 279.05 641.15 278.8 642.4 278.3 643.5 277.25 644 276.75 644.45 276.2 644.9 275.6 645.2 274.9 645.55 274.2 645.7 273.35 645.85 272.55 645.9 271.65 645.9 270.7 645.7 269.9 645.55 269.1 645.3 268.4 644.95 267.7 644.55 267.15 644.15 266.55 643.65 266.1 642.75 265.2 641.7 264.75 641.1 264.55 640.55 264.4 640 264.3 639.5 264.3 638.85 264.3 638.3 264.4 637.8 264.45 637.35 264.55 636.85 264.7 636.5 264.85 636.15 265.05 635.9 265.2 636 264.05 636.15 262.95 636.25 262.5 636.35 261.9 636.45 261.35 636.6 260.7 637.5 260.7 638.4 260.7 639.25 260.7 640.2 260.7 642 260.7 643.7 260.7 644.45 260.7 644.75 260.15 644.9 259.9 645 259.55
M 643.15 296.7
Q 642.5 296.1 641.8 295.7 641.05 295.3 640.2 295.05 639.3 294.85 638.25 294.85 637.5 294.85 636.8 295.05 636.1 295.15 635.5 295.45 634.8 295.8 634.25 296.2 633.65 296.6 633.2 297.15 632.7 297.7 632.35 298.3 631.95 298.95 631.7 299.65 631.4 300.35 631.3 301.1 631.2 301.85 631.2 302.6 631.2 303.4 631.3 304.1 631.4 304.85 631.7 305.45 631.9 306.15 632.25 306.7 632.6 307.25 633.1 307.75 633.5 308.25 634 308.65 634.5 309.05 635.05 309.3 635.6 309.6 636.2 309.75 636.75 309.9 637.4 309.9 637.55 309.9 637.7 309.9 637.8 309.9 637.9 309.9 638.05 309.9 638.1 309.9 638.15 309.9 638.25 309.85 639 309.8 639.6 309.65 640.25 309.5 640.8 309.25 641.3 309 641.7 308.7 642.1 308.4 642.4 308.1 642.4 308.5 642.35 309 642.25 309.45 642.2 310 642.1 310.6 641.95 311.1 641.8 311.6 641.6 312.1 641.3 312.6 641 313.05 640.65 313.45 640.25 313.8 639.85 314.15 639.35 314.35 638.8 314.5 638.15 314.5 637.55 314.5 637.05 314.4 636.6 314.25 636.2 313.95 635.85 313.7 635.55 313.35 635.25 313.05 635 312.65 634.75 312.1 634.5 311.55 634.3 311.3 634.05 311.2 633.75 311.05 633.35 311.05 632.8 311.05 632.25 311.45 631.95 311.6 631.8 311.85 631.65 312.15 631.65 312.5 631.65 312.75 631.7 312.95 631.75 313.15 631.8 313.35 631.85 313.55 631.95 313.8 632.05 314.05 632.15 314.3 632.25 314.5 632.4 314.7 632.55 314.9 632.75 315.15 632.9 315.35 633.05 315.55 633.2 315.75 633.35 315.9 633.85 316.4 634.4 316.75 634.95 317.1 635.55 317.35 636.15 317.6 636.8 317.7 637.4 317.8 638.15 317.8 639.05 317.8 639.9 317.6 640.75 317.4 641.5 317 642.25 316.6 642.9 316 643.55 315.4 644.1 314.65 644.55 313.9 644.9 312.95 645.3 312.05 645.55 310.95 645.8 309.9 645.95 308.7 646.1 307.5 646.1 306.15 646.1 304.9 646 303.75 645.9 302.6 645.65 301.55 645.45 300.5 645.1 299.65 644.75 298.75 644.25 298 643.75 297.3 643.15 296.7
M 641.85 300.75
Q 642.1 301.5 642.1 302.45 642.1 303.4 641.85 304.2 641.6 304.95 641.15 305.5 640.15 306.7 638.35 306.7 637.55 306.7 636.9 306.4 636.2 306.15 635.7 305.55 635.15 305 634.9 304.2 634.65 303.45 634.65 302.45 634.65 300.55 635.75 299.4 636.8 298.25 638.35 298.25 640.15 298.25 641.15 299.4 641.6 300 641.85 300.75
M 750.3 358.4
L 750.3 357.45
Q 750.3 357.1 750.15 356.75 750.05 356.45 749.8 356.2 749.55 355.9 749.25 355.8 748.95 355.65 748.6 355.65
L 747.8 355.65
Q 747.3 355.65 747 355.8 746.65 355.9 746.5 356.2 746.15 356.7 746.15 357.45
L 746.15 358.4
Q 746.15 360.1 747.85 360.1
L 748.6 360.1
Q 749.45 360.1 749.9 359.7 750.3 359.25 750.3 358.4
M 749.15 334
Q 749.05 333.95 748.9 333.9 748.75 333.85 748.6 333.8 748.4 333.8 748.2 333.8 747.95 333.8 747.7 333.9 747.55 333.95 747.35 334 747.2 334.05 747.05 334.15 746.7 334.4 746.6 334.6 746.5 334.75 746.45 334.9 746.4 335.1 746.45 335.25
L 746.45 344.4
Q 746.5 346.15 746.6 347.75 746.65 348.6 746.7 349.45 746.75 350.25 746.8 351.1 746.8 351.5 746.9 351.75 746.95 352 747.1 352.2 747.4 352.55 748.2 352.55 749.15 352.55 749.35 352.2 749.45 352 749.55 351.75 749.55 351.5 749.6 351.1 749.65 350.3 749.7 349.5 749.8 348.65 749.9 347.8 750 346.95 750.05 346.1 750.1 345.3 750.1 344.4
L 750.1 335.25
Q 750.1 335.1 750.05 334.9 750 334.75 749.9 334.6 749.8 334.5 749.65 334.4 749.55 334.3 749.4 334.15 749.3 334.05 749.15 334
M 718.35 336.05
Q 718.05 336.2 717.95 336.4 717.8 336.65 717.75 336.95 717.7 337.2 717.7 337.5 717.7 337.85 717.75 338.15 717.8 338.4 717.95 338.65 718.05 338.9 718.35 339 718.6 339.1 719 339.1
L 722.75 339.1 722.75 341.05
Q 722.75 343.9 721.5 346.15 720.85 347.3 720 348.3 719.1 349.3 717.95 350.15 717.8 350.35 717.6 350.45 717.45 350.6 717.3 350.7 717.15 350.85 717.1 351 717 351.15 717 351.3 717 351.45 717.05 351.6 717.15 351.75 717.25 351.9 717.4 352.3 717.7 352.55 717.75 352.7 717.9 352.8 718.05 352.95 718.25 353.05 718.45 353.15 718.6 353.2 718.8 353.25 719 353.25 719.15 353.25 719.35 353.2 719.480859375 353.1564453125 719.65 353.05
L 719.65 353.1
Q 720.5 352.45 721.25 351.75 722 351.05 722.65 350.25 723.2 349.55 723.75 348.7 724.25 347.9 724.7 346.95 725.1 347.85 725.6 348.65 726.1 349.45 726.75 350.25 727.35 351.05 728.1 351.7 728.85 352.35 729.75 352.8 729.8 352.8 729.85 352.85 730 353 730.2 353.05 730.35 353.1 730.5 353.1 730.7 353.1 730.9 353.05 731.05 353.05 731.2 352.95 731.35 352.85 731.45 352.75 731.55 352.6 731.65 352.45 731.9 352.2 732.1 351.85 732.2 351.7 732.25 351.5 732.3 351.35 732.3 351.15 732.3 350.95 732.15 350.75 732 350.5 731.7 350.3 730.45 349.4 729.5 348.35 728.5 347.3 727.85 346.15 726.5 343.85 726.5 341.1
L 726.5 339.1 730.25 339.1
Q 730.6 339.1 730.85 339 731.1 338.85 731.25 338.6 731.4 338.4 731.45 338.1 731.5 337.8 731.5 337.5 731.5 337.2 731.45 336.95 731.4 336.65 731.3 336.4 731.15 336.2 730.85 336.05 730.6 335.95 730.25 335.95
L 719 335.95
Q 718.6 335.95 718.35 336.05
M 737.85 333.65
Q 737.25 333.3 736.5 333.3 736.2 333.3 735.95 333.4 735.65 333.45 735.4 333.65 734.85 334.05 734.85 334.8
L 734.85 359.95
Q 734.85 360.35 735 360.65 735.1 360.9 735.4 361.1 735.65 361.3 735.95 361.35 736.2 361.45 736.5 361.45 737.25 361.45 737.85 361.1 738.15 360.9 738.3 360.65 738.45 360.35 738.45 359.95
L 738.45 346.8 741.4 346.8
Q 741.8 346.8 742.1 346.65 742.35 346.55 742.55 346.3 742.65 346.05 742.75 345.75 742.8 345.5 742.8 345.2 742.8 344.85 742.75 344.6 742.65 344.3 742.55 344.05 742.35 343.85 742.1 343.75 741.8 343.6 741.4 343.6
L 738.45 343.6 738.45 334.8
Q 738.45 334.45 738.3 334.15 738.15 333.85 737.85 333.65
M 696.75 336.8
Q 696.75 336.6 696.7 336.45 696.65 336.25 696.55 336.15 696.35 335.95 696.2 335.8 696.05 335.7 695.9 335.65 695.75 335.6 695.55 335.55 695.4 335.55 695.25 335.55 695.1 335.55 695 335.55 694.65 335.55 694.35 335.6 694.05 335.65 693.8 335.8 693.55 335.9 693.4 336.2 693.25 336.45 693.25 336.8
L 693.25 346.3
Q 693.25 347.1 693.45 347.7 693.65 348.3 694.15 348.7 694.55 349.15 695.15 349.35 695.7 349.55 696.5 349.55
L 700.2 349.55 700.2 353.85 689.85 353.85
Q 689.45 353.85 689.2 354 688.95 354.1 688.85 354.3 688.7 354.55 688.7 354.85 688.65 355.15 688.65 355.5 688.65 355.8 688.7 356.05 688.7 356.3 688.85 356.55 688.95 356.8 689.2 356.9 689.45 357.05 689.85 357.05
L 713.7 357.05
Q 714.1 357.05 714.35 356.9 714.6 356.8 714.7 356.55 714.85 356.3 714.9 356.05 714.95 355.8 714.95 355.5 714.95 355.15 714.9 354.85 714.85 354.55 714.7 354.3 714.6 354.1 714.35 354 714.1 353.85 713.7 353.85
L 703.8 353.85 703.8 349.55 707.45 349.55
Q 709 349.55 709.75 348.75 710.55 347.9 710.55 346.3
L 710.55 336.8
Q 710.55 336.6 710.5 336.45 710.45 336.25 710.4 336.15 710.2 335.95 710 335.8 709.85 335.7 709.7 335.65 709.55 335.6 709.35 335.55 709.15 335.55 709 335.55 708.9 335.55 708.8 335.55 708.5 335.55 708.2 335.6 707.95 335.65 707.65 335.8 707.35 335.9 707.2 336.2 707.1 336.45 707.1 336.8
L 707.1 339.7 696.75 339.7 696.75 336.8
M 697.05 346.35
Q 696.9 346.05 696.8 345.7 696.75 345.3 696.75 344.8
L 696.75 343 707.05 343 707.05 344.8
Q 707.05 345.05 707.05 345.2 707.05 345.4 707.05 345.6 707.05 345.8 707 345.95 707 346.15 707 346.3 706.65 346.3 706.3 346.35 705.95 346.35 705.6 346.35 704.85 346.35 704.05 346.35
L 697.05 346.35
M 668.05 334.15
Q 667.75 334.25 667.65 334.5 667.55 334.75 667.55 335.1
L 667.55 359.45
Q 667.55 359.9 667.65 360.15 667.75 360.4 668.05 360.55 668.3 360.65 668.55 360.7 668.85 360.75 669.15 360.8 669.5 360.75 669.8 360.7 670.15 360.65 670.4 360.55 670.6 360.4 670.7 360.15 670.85 359.9 670.85 359.45
L 670.85 346.8 673.45 346.8 673.45 360.3
Q 673.45 360.7 673.55 360.95 673.65 361.2 673.85 361.35 674.05 361.45 674.35 361.5 674.65 361.6 675.05 361.6 675.4 361.6 675.7 361.5 675.95 361.45 676.2 361.35 676.4 361.2 676.55 360.95 676.65 360.7 676.65 360.3
L 676.65 334.6
Q 676.65 334.2 676.55 333.95 676.4 333.7 676.2 333.55 675.95 333.45 675.7 333.4 675.4 333.35 675.05 333.35 674.65 333.35 674.35 333.4 674.05 333.45 673.85 333.55 673.65 333.7 673.55 333.95 673.45 334.2 673.45 334.6
L 673.45 343.6 670.85 343.6 670.85 335.1
Q 670.85 334.4 670.4 334.15 670.15 334 669.8 333.95 669.5 333.9 669.15 333.9 668.85 333.9 668.55 333.95 668.3 334 668.05 334.15
M 657.15 341.7
Q 656.65 341.95 656.15 342.3 655.7 342.65 655.3 343.1 654.95 343.5 654.65 344.05 654.4 344.55 654.2 345.15 653.95 345.75 653.85 346.4 653.75 347.05 653.75 347.75 653.75 348.4 653.85 349.05 653.95 349.65 654.2 350.25 654.4 350.85 654.65 351.35 654.95 351.9 655.3 352.3 655.7 352.75 656.15 353.1 656.65 353.45 657.15 353.7 657.65 354 658.25 354.1 658.85 354.25 659.45 354.25 660.1 354.25 660.7 354.1 661.25 353.95 661.75 353.7 662.25 353.45 662.75 353.1 663.2 352.75 663.65 352.3 664.3 351.45 664.75 350.2 664.9 349.65 665.05 349 665.15 348.4 665.15 347.75 665.15 347.05 665.05 346.4 664.9 345.8 664.75 345.2 664.5 344.6 664.25 344.1 663.95 343.6 663.65 343.15 662.75 342.25 661.75 341.7 661.25 341.45 660.7 341.3 660.1 341.2 659.45 341.2 658.85 341.2 658.25 341.3 657.65 341.45 657.15 341.7
M 657.4 346.45
Q 657.55 345.85 657.85 345.35 658.1 344.9 658.5 344.65 658.9 344.4 659.45 344.4 659.7 344.4 659.95 344.45 660.15 344.55 660.4 344.65 660.8 344.95 661.1 345.4 661.2 345.65 661.3 345.9 661.4 346.15 661.5 346.45 661.55 346.75 661.6 347.1 661.65 347.4 661.65 347.75 661.65 348.05 661.6 348.35 661.55 348.7 661.5 349 661.4 349.3 661.3 349.55 661.2 349.8 661.1 350.05 660.8 350.55 660.4 350.75 660.15 350.9 659.95 350.95 659.7 351 659.45 351 658.95 351 658.55 350.75 658.15 350.5 657.85 350.05 657.55 349.6 657.4 349 657.25 348.4 657.25 347.75 657.25 347 657.4 346.45
M 658.85 332.75
Q 658.55 332.8 658.3 332.95 658.05 333.05 657.95 333.35 657.85 333.6 657.85 334
L 657.85 336.55
Q 657.4 336.55 656.95 336.55 656.45 336.55 655.95 336.55 655.5 336.55 655 336.55 654.5 336.55 653.95 336.55 653.65 336.55 653.4 336.65 653.2 336.75 653.05 336.95 652.9 337.2 652.8 337.5 652.75 337.8 652.75 338.15 652.75 338.45 652.8 338.7 652.9 339 653.05 339.2 653.2 339.45 653.4 339.55 653.65 339.7 653.95 339.7 655.3 339.7 656.65 339.7 658 339.7 659.35 339.7 660.65 339.7 662 339.7 663.35 339.7 664.65 339.7
L 664.85 339.7
Q 665.15 339.7 665.4 339.6 665.65 339.45 665.85 339.2 666.05 339 666.1 338.7 666.2 338.45 666.2 338.15 666.2 337.85 666.1 337.55 666.05 337.25 665.85 337 665.65 336.8 665.4 336.65 665.15 336.55 664.85 336.55
L 661.2 336.55 661.2 334
Q 661.2 333.2 660.65 332.95 660.35 332.8 660.1 332.75 659.85 332.7 659.55 332.7 659.15 332.7 658.85 332.75
M 619.95 337
Q 619.95 337.35 620.05 337.65 620.1 337.95 620.25 338.15 620.4 338.4 620.65 338.5 620.9 338.6 621.3 338.6
L 637.3 338.6
Q 637.95 338.6 638.3 338.15 638.45 337.95 638.55 337.65 638.65 337.35 638.65 337 638.65 336.65 638.55 336.35 638.45 336.1 638.3 335.85 638.1 335.7 637.85 335.6 637.6 335.5 637.3 335.5
L 621.3 335.5
Q 620.6 335.5 620.3 335.85 619.95 336.25 619.95 337
M 626.25 340.1
Q 626.1 339.85 625.85 339.75 625.6 339.65 625.35 339.6 625.1 339.55 624.85 339.55 624.5 339.55 624.2 339.6 623.95 339.65 623.7 339.75 623.45 339.9 623.35 340.15 623.25 340.45 623.25 340.85 623.25 342.3 623.35 343.5 623.35 344.15 623.35 344.85 623.4 345.55 623.4 346.25
L 620.35 346.25
Q 620 346.25 619.8 346.35 619.55 346.45 619.35 346.65 619.2 346.85 619.1 347.15 619.05 347.45 619.05 347.8 619.05 348.2 619.1 348.5 619.2 348.8 619.35 349 619.55 349.2 619.8 349.3 620 349.4 620.35 349.4
L 623.75 349.4 623.75 353.55 617.45 353.55
Q 616.75 353.55 616.45 354 616.3 354.2 616.25 354.5 616.15 354.8 616.15 355.1 616.15 355.4 616.25 355.7 616.3 355.95 616.45 356.2 616.6 356.45 616.85 356.55 617.1 356.65 617.45 356.65
L 641.1 356.65
Q 641.35 356.65 641.6 356.55 641.85 356.45 642.05 356.2 642.4 355.7 642.4 355.1 642.4 354.8 642.35 354.5 642.2 354.2 642.05 354 641.85 353.75 641.6 353.65 641.35 353.55 641.1 353.55
L 634.65 353.55 634.65 349.4 638.05 349.4
Q 638.4 349.4 638.7 349.3 638.95 349.2 639.15 349 639.3 348.8 639.35 348.5 639.45 348.2 639.45 347.8 639.45 347.45 639.35 347.15 639.3 346.85 639.15 346.65 638.95 346.45 638.7 346.35 638.4 346.25 638.05 346.25
L 634.7 346.25
Q 634.75 345.6 634.8 344.95 634.8 344.3 634.85 343.6 634.85 343 634.85 342.35 634.85 341.7 634.9 341.05
L 634.9 340.85
Q 634.9 340.45 634.8 340.15 634.65 339.9 634.35 339.75 634.1 339.65 633.8 339.6 633.55 339.55 633.25 339.55 632.9 339.55 632.65 339.6 632.35 339.65 632.1 339.75 631.8 339.9 631.7 340.15 631.55 340.45 631.55 340.8 631.5 341.55 631.5 342.25 631.45 342.9 631.45 343.5 631.4 344.15 631.35 344.85 631.3 345.55 631.3 346.25
L 626.65 346.25
Q 626.6 345.85 626.6 345.45 626.6 345.05 626.6 344.7 626.6 344.4 626.55 344.1 626.55 343.75 626.55 343.45 626.5 343.15 626.5 342.8 626.5 342.5 626.5 342.15 626.45 341.85 626.45 341.5 626.4 341.15 626.4 340.7 626.4 340.35 626.25 340.1
M 631.15 349.4
L 631.15 353.55 627.25 353.55 627.25 349.4 631.15 349.4
M 692.5 295.15
Q 691.9 295.15 691.5 295.3 691.05 295.5 690.8 295.85 690.5 296.2 690.35 296.65 690.25 297.1 690.25 297.65
L 690.25 302.8
Q 690.25 303.95 690.8 304.55 691.35 305.15 692.5 305.15
L 704.2 305.15
Q 705.35 305.15 705.95 304.55 706.5 303.95 706.5 302.8
L 706.5 297.65
Q 706.5 297.1 706.35 296.65 706.2 296.2 705.95 295.85 705.65 295.5 705.2 295.3 704.8 295.15 704.2 295.15
L 692.5 295.15
M 702.85 298.9
Q 702.9 299.05 702.9 299.2
L 702.9 301.15
Q 702.9 301.35 702.85 301.55 702.8 301.7 702.7 301.75 702.55 301.9 702.35 301.95 702.2 302 701.95 302
L 694.6 302
Q 694.4 302 694.25 301.95 694.15 301.9 694.05 301.75 693.95 301.7 693.9 301.55 693.8 301.35 693.8 301.15
L 693.8 299.2
Q 693.8 299.05 693.9 298.9 693.95 298.7 694.05 298.6 694.15 298.45 694.25 298.4 694.4 298.35 694.6 298.35
L 701.95 298.35
Q 702.2 298.35 702.35 298.4 702.55 298.45 702.7 298.6 702.8 298.7 702.85 298.9
M 703.25 282.95
Q 701.7 283.05 700.2 283.1 698.65 283.15 697.15 283.2 695.6 283.25 694 283.3 692.45 283.4 690.85 283.45 690.45 283.45 690.25 283.55 690 283.65 689.85 283.85 689.75 284 689.65 284.3 689.6 284.6 689.6 284.95 689.6 285.3 689.7 285.55 689.75 285.8 689.9 286 690.2 286.35 690.9 286.35 692.4 286.3 693.95 286.25 695.5 286.2 697 286.1 700.05 286 702.95 285.85 702.95 286.05 702.9 286.25 702.9 286.45 702.85 286.7 702.75 286.9 702.75 287.2 702.7 287.45 702.7 287.8 702.7 288.2 702.85 288.45 702.95 288.7 703.2 288.85 703.45 289 703.8 289.05 704.15 289.15 704.55 289.15 704.85 289.15 705.05 289.1 705.3 289.05 705.55 288.9 705.7 288.8 705.85 288.6 706 288.4 706.15 288.1 706.25 287.45 706.35 286.85 706.45 286.2 706.55 285.7 706.6 285.15 706.65 284.7 706.65 284.25 706.7 283.8 706.7 283.4 706.7 283.05 706.75 282.65 706.75 282.35 706.75 282 706.75 281.7 706.8 281.4 706.8 281.1 706.75 280.45 706.65 279.95 706.55 279.45 706.35 279.1 706.1 278.75 705.65 278.6 705.25 278.4 704.6 278.4
L 690.75 278.4
Q 690.15 278.5 689.9 278.85 689.6 279.25 689.6 279.85 689.6 280.55 689.9 280.9 690.15 281.25 690.75 281.3
L 703.2 281.3
Q 703.25 281.55 703.25 281.75 703.3 281.95 703.3 282.15 703.3 282.35 703.3 282.6 703.25 282.8 703.25 282.95
M 685.95 290.2
Q 685.25 290.2 685.05 290.65 684.95 290.9 684.85 291.2 684.85 291.45 684.85 291.8 684.85 292.1 684.85 292.35 684.95 292.65 685.05 292.85 685.1 293.05 685.35 293.15 685.6 293.25 685.95 293.25
L 710.75 293.25
Q 711.2 293.25 711.45 293.15 711.7 293.05 711.8 292.85 711.9 292.65 711.95 292.35 711.95 292.1 711.95 291.8 711.95 291.45 711.95 291.2 711.9 290.9 711.8 290.65 711.7 290.4 711.45 290.3 711.2 290.2 710.75 290.2
L 685.95 290.2
M 680 279.05
Q 680 278.65 679.85 278.4 679.75 278.1 679.5 278 679.25 277.85 678.95 277.8 678.6 277.75 678.2 277.75 677.9 277.75 677.6 277.8 677.3 277.9 677 278 676.7 278.15 676.55 278.4 676.4 278.65 676.4 279.05
L 676.4 294.95
Q 676.4 295.3 676.55 295.55 676.7 295.8 677 295.95 677.3 296.1 677.6 296.15 677.9 296.2 678.2 296.2 678.6 296.2 678.95 296.15 679.25 296.1 679.5 295.95 679.75 295.8 679.85 295.55 680 295.3 680 294.95
L 680 288.1 682.8 288.1
Q 683.2 288.1 683.5 287.95 683.8 287.85 683.9 287.6 684.05 287.4 684.1 287.1 684.15 286.85 684.15 286.55 684.15 286.2 684.1 285.9 684.05 285.6 683.9 285.4 683.8 285.15 683.5 285.05 683.2 284.95 682.8 284.95
L 680 284.95 680 279.05
M 663.7 295.55
Q 663.6 295.8 663.6 296.15
L 663.6 302.35
Q 663.6 303 663.8 303.5 664 303.95 664.4 304.3 664.8 304.65 665.35 304.8 665.85 304.95 666.45 304.95
L 678.9 304.95
Q 679.15 304.95 679.4 304.85 679.65 304.75 679.85 304.55 680.05 304.3 680.1 304 680.2 303.7 680.2 303.4 680.2 303.05 680.1 302.8 680.05 302.55 679.85 302.35 679.65 302.1 679.4 302 679.15 301.85 678.9 301.85
L 668.85 301.85
Q 668.4 301.85 667.95 301.85 667.55 301.8 667.2 301.7
L 667.2 296.15
Q 667.2 295.95 667.1 295.8 667.05 295.65 666.95 295.55 666.85 295.4 666.7 295.3 666.6 295.2 666.5 295.1 666.35 295.05 666.25 295 666.1 294.95 665.9 294.9 665.75 294.9 665.55 294.85 665.4 294.85 665.25 294.85 665 294.85 664.7 294.95 664.45 295 664.2 295.15 663.85 295.3 663.7 295.55
M 660.45 279.55
Q 660.05 280 659.85 280.55 659.65 281.1 659.65 281.7
L 659.65 288.05
Q 659.65 288.75 659.9 289.25 660.05 289.5 660.2 289.7 660.35 289.95 660.5 290.1 660.75 290.25 661 290.4 661.3 290.5 661.55 290.6 662 290.8 662.7 290.8
L 669.65 290.8
Q 669.95 290.8 670.25 290.75 670.5 290.7 670.8 290.55 671.05 290.45 671.2 290.3 671.45 290.1 671.55 289.9 671.9 289.5 672.2 288.95 672.3 288.7 672.35 288.4 672.4 288.15 672.4 287.8
L 672.4 281.45
Q 672.4 281.15 672.35 280.85 672.25 280.6 672.15 280.3 671.95 280.1 671.8 279.85 671.65 279.65 671.5 279.45 671.3 279.25 671.05 279.15 670.8 279 670.55 278.9 669.95 278.7 669.25 278.7
L 662.45 278.7
Q 661.8 278.7 661.3 278.9 660.8 279.15 660.45 279.55
M 664.75 281.95
Q 665 281.95 665.25 281.95
L 666.6 281.95
Q 666.9 281.95 667.2 281.95 667.45 281.95 667.7 281.95 667.95 281.95 668.25 281.95 668.5 282 668.85 282 668.85 282.25 668.85 282.55 668.85 282.85 668.9 283.1 668.9 283.7 668.9 284.2
L 668.9 285.35
Q 668.9 285.65 668.9 285.95 668.9 286.2 668.9 286.45 668.85 286.75 668.85 287 668.85 287.3 668.85 287.55 668.5 287.55 668.25 287.55 667.95 287.6 667.7 287.6 667.45 287.6 667.2 287.6 666.9 287.6 666.6 287.6
L 665.25 287.6
Q 664.8 287.6 664.25 287.6 664 287.6 663.7 287.55 663.45 287.55 663.15 287.55 663.1 287.3 663.1 287 663.1 286.75 663.1 286.45 663.1 286.2 663.1 285.95 663.1 285.65 663.1 285.35
L 663.1 282.1
Q 663.4 282.05 663.7 282.05 663.95 282 664.25 282 664.5 281.95 664.75 281.95 Z"/>

<path fill="#FFFFFF" stroke="none" d="
M 980.25 454.8
L 980.25 484.85
Q 980.25 499.85 995.25 499.85
L 1025.25 499.85
Q 1040.25 499.85 1040.25 484.85
L 1040.25 454.8
Q 1040.25 439.8 1025.25 439.8
L 995.25 439.8
Q 980.25 439.8 980.25 454.8
M 1163.3 483.85
L 1163.3 453.8
Q 1163.3 438.8 1148.3 438.8
L 1118.3 438.8
Q 1103.3 438.8 1103.3 453.8
L 1103.3 483.85
Q 1103.3 498.85 1118.3 498.85
L 1148.3 498.85
Q 1163.3 498.85 1163.3 483.85
M 922.25 439.8
L 892.25 439.8
Q 877.25 439.8 877.25 454.8
L 877.25 484.85
Q 877.25 499.85 892.25 499.85
L 922.25 499.85
Q 937.25 499.85 937.25 484.85
L 937.25 454.8
Q 937.25 439.8 922.25 439.8
M 799.15 287.05
Q 796.15 264.85 788.75 255.15 788 254.1 787.2 253.25 785.9 251.9 784.55 250.8 781.9 248.75 778 246.95 762.55 239.8 727.8 236.75 702.35 234.5 663.4 234.5 651.8 234.5 641.45 234.7 616.9 235.2 599 236.75 562.2 239.95 547 247.85 544.5 249.15 542.6 250.55 542.4 250.65 542.25 250.8 540.9 251.8 539.65 253.25 538.8 254.15 538 255.25 530.65 265 527.65 287.05 525.75 301.1 526 313.4
L 526.15 321.3
Q 526.5 331 527.65 339.75 530.65 361.75 538 371.6 538.8 372.7 539.65 373.6 540.9 374.95 542.25 376 544.3 377.55 547 378.95 551.275 381.1578125 557.25 383 557.7998046875 381.5720703125 558.5 380.1 557.7998046875 381.5720703125 557.25 383 550.9970703125 399.5390625 566 410.4 565.6322265625 396.5193359375 575.55 387.15 576.4470703125 386.3373046875 577.4 385.55 576.4470703125 386.3373046875 575.55 387.15 585.9248046875 388.8953125 599 390.05 616.9 391.6 641.45 392.05 651.8 392.25 663.4 392.25 702.35 392.25 727.8 390.05 731.5 389.7 735 389.35 764.2 386.2 778 379.85 781.9 378.05 784.55 376 785.9 374.95 787.2 373.6 788 372.7 788.75 371.8 796.15 361.95 799.15 339.75 801.1 325.75 800.8 313.4 801.1 301.1 799.15 287.05
M 659.85 280.55
Q 660.05 280 660.45 279.55 660.8 279.15 661.3 278.9 661.8 278.7 662.45 278.7
L 669.25 278.7
Q 669.95 278.7 670.55 278.9 670.8 279 671.05 279.15 671.3 279.25 671.5 279.45 671.65 279.65 671.8 279.85 671.95 280.1 672.15 280.3 672.25 280.6 672.35 280.85 672.4 281.15 672.4 281.45
L 672.4 287.8
Q 672.4 288.15 672.35 288.4 672.3 288.7 672.2 288.95 671.9 289.5 671.55 289.9 671.45 290.1 671.2 290.3 671.05 290.45 670.8 290.55 670.5 290.7 670.25 290.75 669.95 290.8 669.65 290.8
L 662.7 290.8
Q 662 290.8 661.55 290.6 661.3 290.5 661 290.4 660.75 290.25 660.5 290.1 660.35 289.95 660.2 289.7 660.05 289.5 659.9 289.25 659.65 288.75 659.65 288.05
L 659.65 281.7
Q 659.65 281.1 659.85 280.55
M 663.6 296.15
Q 663.6 295.8 663.7 295.55 663.85 295.3 664.2 295.15 664.45 295 664.7 294.95 665 294.85 665.25 294.85 665.4 294.85 665.55 294.85 665.75 294.9 665.9 294.9 666.1 294.95 666.25 295 666.35 295.05 666.5 295.1 666.6 295.2 666.7 295.3 666.85 295.4 666.95 295.55 667.05 295.65 667.1 295.8 667.2 295.95 667.2 296.15
L 667.2 301.7
Q 667.55 301.8 667.95 301.85 668.4 301.85 668.85 301.85
L 678.9 301.85
Q 679.15 301.85 679.4 302 679.65 302.1 679.85 302.35 680.05 302.55 680.1 302.8 680.2 303.05 680.2 303.4 680.2 303.7 680.1 304 680.05 304.3 679.85 304.55 679.65 304.75 679.4 304.85 679.15 304.95 678.9 304.95
L 666.45 304.95
Q 665.85 304.95 665.35 304.8 664.8 304.65 664.4 304.3 664 303.95 663.8 303.5 663.6 303 663.6 302.35
L 663.6 296.15
M 679.85 278.4
Q 680 278.65 680 279.05
L 680 284.95 682.8 284.95
Q 683.2 284.95 683.5 285.05 683.8 285.15 683.9 285.4 684.05 285.6 684.1 285.9 684.15 286.2 684.15 286.55 684.15 286.85 684.1 287.1 684.05 287.4 683.9 287.6 683.8 287.85 683.5 287.95 683.2 288.1 682.8 288.1
L 680 288.1 680 294.95
Q 680 295.3 679.85 295.55 679.75 295.8 679.5 295.95 679.25 296.1 678.95 296.15 678.6 296.2 678.2 296.2 677.9 296.2 677.6 296.15 677.3 296.1 677 295.95 676.7 295.8 676.55 295.55 676.4 295.3 676.4 294.95
L 676.4 279.05
Q 676.4 278.65 676.55 278.4 676.7 278.15 677 278 677.3 277.9 677.6 277.8 677.9 277.75 678.2 277.75 678.6 277.75 678.95 277.8 679.25 277.85 679.5 278 679.75 278.1 679.85 278.4
M 685.05 290.65
Q 685.25 290.2 685.95 290.2
L 710.75 290.2
Q 711.2 290.2 711.45 290.3 711.7 290.4 711.8 290.65 711.9 290.9 711.95 291.2 711.95 291.45 711.95 291.8 711.95 292.1 711.95 292.35 711.9 292.65 711.8 292.85 711.7 293.05 711.45 293.15 711.2 293.25 710.75 293.25
L 685.95 293.25
Q 685.6 293.25 685.35 293.15 685.1 293.05 685.05 292.85 684.95 292.65 684.85 292.35 684.85 292.1 684.85 291.8 684.85 291.45 684.85 291.2 684.95 290.9 685.05 290.65
M 700.2 283.1
Q 701.7 283.05 703.25 282.95 703.25 282.8 703.3 282.6 703.3 282.35 703.3 282.15 703.3 281.95 703.25 281.75 703.25 281.55 703.2 281.3
L 690.75 281.3
Q 690.15 281.25 689.9 280.9 689.6 280.55 689.6 279.85 689.6 279.25 689.9 278.85 690.15 278.5 690.75 278.4
L 704.6 278.4
Q 705.25 278.4 705.65 278.6 706.1 278.75 706.35 279.1 706.55 279.45 706.65 279.95 706.75 280.45 706.8 281.1 706.8 281.4 706.75 281.7 706.75 282 706.75 282.35 706.75 282.65 706.7 283.05 706.7 283.4 706.7 283.8 706.65 284.25 706.65 284.7 706.6 285.15 706.55 285.7 706.45 286.2 706.35 286.85 706.25 287.45 706.15 288.1 706 288.4 705.85 288.6 705.7 288.8 705.55 288.9 705.3 289.05 705.05 289.1 704.85 289.15 704.55 289.15 704.15 289.15 703.8 289.05 703.45 289 703.2 288.85 702.95 288.7 702.85 288.45 702.7 288.2 702.7 287.8 702.7 287.45 702.75 287.2 702.75 286.9 702.85 286.7 702.9 286.45 702.9 286.25 702.95 286.05 702.95 285.85 700.05 286 697 286.1 695.5 286.2 693.95 286.25 692.4 286.3 690.9 286.35 690.2 286.35 689.9 286 689.75 285.8 689.7 285.55 689.6 285.3 689.6 284.95 689.6 284.6 689.65 284.3 689.75 284 689.85 283.85 690 283.65 690.25 283.55 690.45 283.45 690.85 283.45 692.45 283.4 694 283.3 695.6 283.25 697.15 283.2 698.65 283.15 700.2 283.1
M 691.5 295.3
Q 691.9 295.15 692.5 295.15
L 704.2 295.15
Q 704.8 295.15 705.2 295.3 705.65 295.5 705.95 295.85 706.2 296.2 706.35 296.65 706.5 297.1 706.5 297.65
L 706.5 302.8
Q 706.5 303.95 705.95 304.55 705.35 305.15 704.2 305.15
L 692.5 305.15
Q 691.35 305.15 690.8 304.55 690.25 303.95 690.25 302.8
L 690.25 297.65
Q 690.25 297.1 690.35 296.65 690.5 296.2 690.8 295.85 691.05 295.5 691.5 295.3
M 625.85 339.75
Q 626.1 339.85 626.25 340.1 626.4 340.35 626.4 340.7 626.4 341.15 626.45 341.5 626.45 341.85 626.5 342.15 626.5 342.5 626.5 342.8 626.5 343.15 626.55 343.45 626.55 343.75 626.55 344.1 626.6 344.4 626.6 344.7 626.6 345.05 626.6 345.45 626.6 345.85 626.65 346.25
L 631.3 346.25
Q 631.3 345.55 631.35 344.85 631.4 344.15 631.45 343.5 631.45 342.9 631.5 342.25 631.5 341.55 631.55 340.8 631.55 340.45 631.7 340.15 631.8 339.9 632.1 339.75 632.35 339.65 632.65 339.6 632.9 339.55 633.25 339.55 633.55 339.55 633.8 339.6 634.1 339.65 634.35 339.75 634.65 339.9 634.8 340.15 634.9 340.45 634.9 340.85
L 634.9 341.05
Q 634.85 341.7 634.85 342.35 634.85 343 634.85 343.6 634.8 344.3 634.8 344.95 634.75 345.6 634.7 346.25
L 638.05 346.25
Q 638.4 346.25 638.7 346.35 638.95 346.45 639.15 346.65 639.3 346.85 639.35 347.15 639.45 347.45 639.45 347.8 639.45 348.2 639.35 348.5 639.3 348.8 639.15 349 638.95 349.2 638.7 349.3 638.4 349.4 638.05 349.4
L 634.65 349.4 634.65 353.55 641.1 353.55
Q 641.35 353.55 641.6 353.65 641.85 353.75 642.05 354 642.2 354.2 642.35 354.5 642.4 354.8 642.4 355.1 642.4 355.7 642.05 356.2 641.85 356.45 641.6 356.55 641.35 356.65 641.1 356.65
L 617.45 356.65
Q 617.1 356.65 616.85 356.55 616.6 356.45 616.45 356.2 616.3 355.95 616.25 355.7 616.15 355.4 616.15 355.1 616.15 354.8 616.25 354.5 616.3 354.2 616.45 354 616.75 353.55 617.45 353.55
L 623.75 353.55 623.75 349.4 620.35 349.4
Q 620 349.4 619.8 349.3 619.55 349.2 619.35 349 619.2 348.8 619.1 348.5 619.05 348.2 619.05 347.8 619.05 347.45 619.1 347.15 619.2 346.85 619.35 346.65 619.55 346.45 619.8 346.35 620 346.25 620.35 346.25
L 623.4 346.25
Q 623.4 345.55 623.35 344.85 623.35 344.15 623.35 343.5 623.25 342.3 623.25 340.85 623.25 340.45 623.35 340.15 623.45 339.9 623.7 339.75 623.95 339.65 624.2 339.6 624.5 339.55 624.85 339.55 625.1 339.55 625.35 339.6 625.6 339.65 625.85 339.75
M 620.05 337.65
Q 619.95 337.35 619.95 337 619.95 336.25 620.3 335.85 620.6 335.5 621.3 335.5
L 637.3 335.5
Q 637.6 335.5 637.85 335.6 638.1 335.7 638.3 335.85 638.45 336.1 638.55 336.35 638.65 336.65 638.65 337 638.65 337.35 638.55 337.65 638.45 337.95 638.3 338.15 637.95 338.6 637.3 338.6
L 621.3 338.6
Q 620.9 338.6 620.65 338.5 620.4 338.4 620.25 338.15 620.1 337.95 620.05 337.65
M 658.3 332.95
Q 658.55 332.8 658.85 332.75 659.15 332.7 659.55 332.7 659.85 332.7 660.1 332.75 660.35 332.8 660.65 332.95 661.2 333.2 661.2 334
L 661.2 336.55 664.85 336.55
Q 665.15 336.55 665.4 336.65 665.65 336.8 665.85 337 666.05 337.25 666.1 337.55 666.2 337.85 666.2 338.15 666.2 338.45 666.1 338.7 666.05 339 665.85 339.2 665.65 339.45 665.4 339.6 665.15 339.7 664.85 339.7
L 664.65 339.7
Q 663.35 339.7 662 339.7 660.65 339.7 659.35 339.7 658 339.7 656.65 339.7 655.3 339.7 653.95 339.7 653.65 339.7 653.4 339.55 653.2 339.45 653.05 339.2 652.9 339 652.8 338.7 652.75 338.45 652.75 338.15 652.75 337.8 652.8 337.5 652.9 337.2 653.05 336.95 653.2 336.75 653.4 336.65 653.65 336.55 653.95 336.55 654.5 336.55 655 336.55 655.5 336.55 655.95 336.55 656.45 336.55 656.95 336.55 657.4 336.55 657.85 336.55
L 657.85 334
Q 657.85 333.6 657.95 333.35 658.05 333.05 658.3 332.95
M 656.15 342.3
Q 656.65 341.95 657.15 341.7 657.65 341.45 658.25 341.3 658.85 341.2 659.45 341.2 660.1 341.2 660.7 341.3 661.25 341.45 661.75 341.7 662.75 342.25 663.65 343.15 663.95 343.6 664.25 344.1 664.5 344.6 664.75 345.2 664.9 345.8 665.05 346.4 665.15 347.05 665.15 347.75 665.15 348.4 665.05 349 664.9 349.65 664.75 350.2 664.3 351.45 663.65 352.3 663.2 352.75 662.75 353.1 662.25 353.45 661.75 353.7 661.25 353.95 660.7 354.1 660.1 354.25 659.45 354.25 658.85 354.25 658.25 354.1 657.65 354 657.15 353.7 656.65 353.45 656.15 353.1 655.7 352.75 655.3 352.3 654.95 351.9 654.65 351.35 654.4 350.85 654.2 350.25 653.95 349.65 653.85 349.05 653.75 348.4 653.75 347.75 653.75 347.05 653.85 346.4 653.95 345.75 654.2 345.15 654.4 344.55 654.65 344.05 654.95 343.5 655.3 343.1 655.7 342.65 656.15 342.3
M 667.65 334.5
Q 667.75 334.25 668.05 334.15 668.3 334 668.55 333.95 668.85 333.9 669.15 333.9 669.5 333.9 669.8 333.95 670.15 334 670.4 334.15 670.85 334.4 670.85 335.1
L 670.85 343.6 673.45 343.6 673.45 334.6
Q 673.45 334.2 673.55 333.95 673.65 333.7 673.85 333.55 674.05 333.45 674.35 333.4 674.65 333.35 675.05 333.35 675.4 333.35 675.7 333.4 675.95 333.45 676.2 333.55 676.4 333.7 676.55 333.95 676.65 334.2 676.65 334.6
L 676.65 360.3
Q 676.65 360.7 676.55 360.95 676.4 361.2 676.2 361.35 675.95 361.45 675.7 361.5 675.4 361.6 675.05 361.6 674.65 361.6 674.35 361.5 674.05 361.45 673.85 361.35 673.65 361.2 673.55 360.95 673.45 360.7 673.45 360.3
L 673.45 346.8 670.85 346.8 670.85 359.45
Q 670.85 359.9 670.7 360.15 670.6 360.4 670.4 360.55 670.15 360.65 669.8 360.7 669.5 360.75 669.15 360.8 668.85 360.75 668.55 360.7 668.3 360.65 668.05 360.55 667.75 360.4 667.65 360.15 667.55 359.9 667.55 359.45
L 667.55 335.1
Q 667.55 334.75 667.65 334.5
M 696.7 336.45
Q 696.75 336.6 696.75 336.8
L 696.75 339.7 707.1 339.7 707.1 336.8
Q 707.1 336.45 707.2 336.2 707.35 335.9 707.65 335.8 707.95 335.65 708.2 335.6 708.5 335.55 708.8 335.55 708.9 335.55 709 335.55 709.15 335.55 709.35 335.55 709.55 335.6 709.7 335.65 709.85 335.7 710 335.8 710.2 335.95 710.4 336.15 710.45 336.25 710.5 336.45 710.55 336.6 710.55 336.8
L 710.55 346.3
Q 710.55 347.9 709.75 348.75 709 349.55 707.45 349.55
L 703.8 349.55 703.8 353.85 713.7 353.85
Q 714.1 353.85 714.35 354 714.6 354.1 714.7 354.3 714.85 354.55 714.9 354.85 714.95 355.15 714.95 355.5 714.95 355.8 714.9 356.05 714.85 356.3 714.7 356.55 714.6 356.8 714.35 356.9 714.1 357.05 713.7 357.05
L 689.85 357.05
Q 689.45 357.05 689.2 356.9 688.95 356.8 688.85 356.55 688.7 356.3 688.7 356.05 688.65 355.8 688.65 355.5 688.65 355.15 688.7 354.85 688.7 354.55 688.85 354.3 688.95 354.1 689.2 354 689.45 353.85 689.85 353.85
L 700.2 353.85 700.2 349.55 696.5 349.55
Q 695.7 349.55 695.15 349.35 694.55 349.15 694.15 348.7 693.65 348.3 693.45 347.7 693.25 347.1 693.25 346.3
L 693.25 336.8
Q 693.25 336.45 693.4 336.2 693.55 335.9 693.8 335.8 694.05 335.65 694.35 335.6 694.65 335.55 695 335.55 695.1 335.55 695.25 335.55 695.4 335.55 695.55 335.55 695.75 335.6 695.9 335.65 696.05 335.7 696.2 335.8 696.35 335.95 696.55 336.15 696.65 336.25 696.7 336.45
M 736.5 333.3
Q 737.25 333.3 737.85 333.65 738.15 333.85 738.3 334.15 738.45 334.45 738.45 334.8
L 738.45 343.6 741.4 343.6
Q 741.8 343.6 742.1 343.75 742.35 343.85 742.55 344.05 742.65 344.3 742.75 344.6 742.8 344.85 742.8 345.2 742.8 345.5 742.75 345.75 742.65 346.05 742.55 346.3 742.35 346.55 742.1 346.65 741.8 346.8 741.4 346.8
L 738.45 346.8 738.45 359.95
Q 738.45 360.35 738.3 360.65 738.15 360.9 737.85 361.1 737.25 361.45 736.5 361.45 736.2 361.45 735.95 361.35 735.65 361.3 735.4 361.1 735.1 360.9 735 360.65 734.85 360.35 734.85 359.95
L 734.85 334.8
Q 734.85 334.05 735.4 333.65 735.65 333.45 735.95 333.4 736.2 333.3 736.5 333.3
M 717.95 336.4
Q 718.05 336.2 718.35 336.05 718.6 335.95 719 335.95
L 730.25 335.95
Q 730.6 335.95 730.85 336.05 731.15 336.2 731.3 336.4 731.4 336.65 731.45 336.95 731.5 337.2 731.5 337.5 731.5 337.8 731.45 338.1 731.4 338.4 731.25 338.6 731.1 338.85 730.85 339 730.6 339.1 730.25 339.1
L 726.5 339.1 726.5 341.1
Q 726.5 343.85 727.85 346.15 728.5 347.3 729.5 348.35 730.45 349.4 731.7 350.3 732 350.5 732.15 350.75 732.3 350.95 732.3 351.15 732.3 351.35 732.25 351.5 732.2 351.7 732.1 351.85 731.9 352.2 731.65 352.45 731.55 352.6 731.45 352.75 731.35 352.85 731.2 352.95 731.05 353.05 730.9 353.05 730.7 353.1 730.5 353.1 730.35 353.1 730.2 353.05 730 353 729.85 352.85 729.8 352.8 729.75 352.8 728.85 352.35 728.1 351.7 727.35 351.05 726.75 350.25 726.1 349.45 725.6 348.65 725.1 347.85 724.7 346.95 724.25 347.9 723.75 348.7 723.2 349.55 722.65 350.25 722 351.05 721.25 351.75 720.5 352.45 719.65 353.1
L 719.65 353.05
Q 719.480859375 353.1564453125 719.35 353.2 719.15 353.25 719 353.25 718.8 353.25 718.6 353.2 718.45 353.15 718.25 353.05 718.05 352.95 717.9 352.8 717.75 352.7 717.7 352.55 717.4 352.3 717.25 351.9 717.15 351.75 717.05 351.6 717 351.45 717 351.3 717 351.15 717.1 351 717.15 350.85 717.3 350.7 717.45 350.6 717.6 350.45 717.8 350.35 717.95 350.15 719.1 349.3 720 348.3 720.85 347.3 721.5 346.15 722.75 343.9 722.75 341.05
L 722.75 339.1 719 339.1
Q 718.6 339.1 718.35 339 718.05 338.9 717.95 338.65 717.8 338.4 717.75 338.15 717.7 337.85 717.7 337.5 717.7 337.2 717.75 336.95 717.8 336.65 717.95 336.4
M 748.9 333.9
Q 749.05 333.95 749.15 334 749.3 334.05 749.4 334.15 749.55 334.3 749.65 334.4 749.8 334.5 749.9 334.6 750 334.75 750.05 334.9 750.1 335.1 750.1 335.25
L 750.1 344.4
Q 750.1 345.3 750.05 346.1 750 346.95 749.9 347.8 749.8 348.65 749.7 349.5 749.65 350.3 749.6 351.1 749.55 351.5 749.55 351.75 749.45 352 749.35 352.2 749.15 352.55 748.2 352.55 747.4 352.55 747.1 352.2 746.95 352 746.9 351.75 746.8 351.5 746.8 351.1 746.75 350.25 746.7 349.45 746.65 348.6 746.6 347.75 746.5 346.15 746.45 344.4
L 746.45 335.25
Q 746.4 335.1 746.45 334.9 746.5 334.75 746.6 334.6 746.7 334.4 747.05 334.15 747.2 334.05 747.35 334 747.55 333.95 747.7 333.9 747.95 333.8 748.2 333.8 748.4 333.8 748.6 333.8 748.75 333.85 748.9 333.9
M 750.3 357.45
L 750.3 358.4
Q 750.3 359.25 749.9 359.7 749.45 360.1 748.6 360.1
L 747.85 360.1
Q 746.15 360.1 746.15 358.4
L 746.15 357.45
Q 746.15 356.7 746.5 356.2 746.65 355.9 747 355.8 747.3 355.65 747.8 355.65
L 748.6 355.65
Q 748.95 355.65 749.25 355.8 749.55 355.9 749.8 356.2 750.05 356.45 750.15 356.75 750.3 357.1 750.3 357.45
M 641.8 295.7
Q 642.5 296.1 643.15 296.7 643.75 297.3 644.25 298 644.75 298.75 645.1 299.65 645.45 300.5 645.65 301.55 645.9 302.6 646 303.75 646.1 304.9 646.1 306.15 646.1 307.5 645.95 308.7 645.8 309.9 645.55 310.95 645.3 312.05 644.9 312.95 644.55 313.9 644.1 314.65 643.55 315.4 642.9 316 642.25 316.6 641.5 317 640.75 317.4 639.9 317.6 639.05 317.8 638.15 317.8 637.4 317.8 636.8 317.7 636.15 317.6 635.55 317.35 634.95 317.1 634.4 316.75 633.85 316.4 633.35 315.9 633.2 315.75 633.05 315.55 632.9 315.35 632.75 315.15 632.55 314.9 632.4 314.7 632.25 314.5 632.15 314.3 632.05 314.05 631.95 313.8 631.85 313.55 631.8 313.35 631.75 313.15 631.7 312.95 631.65 312.75 631.65 312.5 631.65 312.15 631.8 311.85 631.95 311.6 632.25 311.45 632.8 311.05 633.35 311.05 633.75 311.05 634.05 311.2 634.3 311.3 634.5 311.55 634.75 312.1 635 312.65 635.25 313.05 635.55 313.35 635.85 313.7 636.2 313.95 636.6 314.25 637.05 314.4 637.55 314.5 638.15 314.5 638.8 314.5 639.35 314.35 639.85 314.15 640.25 313.8 640.65 313.45 641 313.05 641.3 312.6 641.6 312.1 641.8 311.6 641.95 311.1 642.1 310.6 642.2 310 642.25 309.45 642.35 309 642.4 308.5 642.4 308.1 642.1 308.4 641.7 308.7 641.3 309 640.8 309.25 640.25 309.5 639.6 309.65 639 309.8 638.25 309.85 638.15 309.9 638.1 309.9 638.05 309.9 637.9 309.9 637.8 309.9 637.7 309.9 637.55 309.9 637.4 309.9 636.75 309.9 636.2 309.75 635.6 309.6 635.05 309.3 634.5 309.05 634 308.65 633.5 308.25 633.1 307.75 632.6 307.25 632.25 306.7 631.9 306.15 631.7 305.45 631.4 304.85 631.3 304.1 631.2 303.4 631.2 302.6 631.2 301.85 631.3 301.1 631.4 300.35 631.7 299.65 631.95 298.95 632.35 298.3 632.7 297.7 633.2 297.15 633.65 296.6 634.25 296.2 634.8 295.8 635.5 295.45 636.1 295.15 636.8 295.05 637.5 294.85 638.25 294.85 639.3 294.85 640.2 295.05 641.05 295.3 641.8 295.7
M 624.95 287.85
L 650.95 287.85 624.95 287.85
M 645.05 258.9
Q 645.05 259.3 645 259.55 644.9 259.9 644.75 260.15 644.45 260.7 643.7 260.7 642 260.7 640.2 260.7 639.25 260.7 638.4 260.7 637.5 260.7 636.6 260.7 636.45 261.35 636.35 261.9 636.25 262.5 636.15 262.95 636 264.05 635.9 265.2 636.15 265.05 636.5 264.85 636.85 264.7 637.35 264.55 637.8 264.45 638.3 264.4 638.85 264.3 639.5 264.3 640 264.3 640.55 264.4 641.1 264.55 641.7 264.75 642.75 265.2 643.65 266.1 644.15 266.55 644.55 267.15 644.95 267.7 645.3 268.4 645.55 269.1 645.7 269.9 645.9 270.7 645.9 271.65 645.85 272.55 645.7 273.35 645.55 274.2 645.2 274.9 644.9 275.6 644.45 276.2 644 276.75 643.5 277.25 642.4 278.3 641.15 278.8 640.5 279.05 639.85 279.15 639.2 279.3 638.55 279.3 637 279.3 635.75 278.75 634.5 278.25 633.55 277.2 633.35 276.95 633.2 276.75 633 276.5 632.85 276.25 632.6 276 632.45 275.75 632.3 275.5 632.15 275.2 632.1 275 632 274.75 631.9 274.55 631.85 274.35 631.75 274.15 631.7 274 631.7 273.9 631.7 273.8 631.65 273.65 631.65 273.55 631.65 273.45 631.65 273.35 631.65 273.05 631.75 272.8 631.9 272.55 632.15 272.35 632.4 272.15 632.7 272.05 633 271.95 633.45 271.95 633.7 271.95 633.95 272 634.2 272.05 634.4 272.15 634.55 272.25 634.7 272.45 634.8 272.65 634.9 272.9
L 634.9 272.95
Q 634.9 273 635 273.1 635.05 273.25 635.15 273.35 635.25 273.6 635.35 273.85 635.5 274.05 635.65 274.3 635.75 274.5 635.9 274.7 636.1 274.9 636.3 275.1 636.55 275.3 636.85 275.4 637.1 275.55 637.4 275.65 637.65 275.8 637.95 275.8 638.2 275.85 638.55 275.85 639 275.85 639.4 275.8 639.8 275.7 640.2 275.5 640.5 275.35 640.75 275.1 641.05 274.85 641.25 274.5 641.5 274.2 641.7 273.85 641.9 273.5 642 273.1 642.1 272.65 642.15 272.25 642.2 271.8 642.2 271.3 642.2 270.45 641.95 269.7 641.7 269 641.2 268.45 640.15 267.4 638.65 267.4 637.8 267.4 637.05 267.65 636.25 267.95 635.9 268.55 635.8 268.65 635.7 268.75 635.65 268.8 635.6 268.9 635.5 269 635.4 269.1 635.3 269.2 635.15 269.3 635.05 269.4 634.9 269.5 634.8 269.55 634.65 269.6 634.5 269.65 634.25 269.7 634 269.75 633.7 269.75 633.4 269.75 633.15 269.65 632.85 269.6 632.6 269.5 632.3 269.4 632.2 269.25 632.05 269.15 632.05 268.95
L 632.05 268.9 632 268.9
Q 632 268.85 632 268.8 632.15 267.4 632.35 265.95 632.5 264.45 632.75 263.05 632.95 261.6 633.1 260.15 633.3 258.7 633.5 257.25
L 643.5 257.25
Q 644.25 257.3 644.65 257.75 645.05 258.15 645.05 258.9
M 592.1 346.5
L 605.9 360.3 592.1 346.5 578.35 360.25 592.1 346.5 578.35 332.75 592.1 346.5 605.9 332.7 592.1 346.5
M 642.1 302.45
Q 642.1 301.5 641.85 300.75 641.6 300 641.15 299.4 640.15 298.25 638.35 298.25 636.8 298.25 635.75 299.4 634.65 300.55 634.65 302.45 634.65 303.45 634.9 304.2 635.15 305 635.7 305.55 636.2 306.15 636.9 306.4 637.55 306.7 638.35 306.7 640.15 306.7 641.15 305.5 641.6 304.95 641.85 304.2 642.1 303.4 642.1 302.45
M 696.8 345.7
Q 696.9 346.05 697.05 346.35
L 704.05 346.35
Q 704.85 346.35 705.6 346.35 705.95 346.35 706.3 346.35 706.65 346.3 707 346.3 707 346.15 707 345.95 707.05 345.8 707.05 345.6 707.05 345.4 707.05 345.2 707.05 345.05 707.05 344.8
L 707.05 343 696.75 343 696.75 344.8
Q 696.75 345.3 696.8 345.7
M 657.85 345.35
Q 657.55 345.85 657.4 346.45 657.25 347 657.25 347.75 657.25 348.4 657.4 349 657.55 349.6 657.85 350.05 658.15 350.5 658.55 350.75 658.95 351 659.45 351 659.7 351 659.95 350.95 660.15 350.9 660.4 350.75 660.8 350.55 661.1 350.05 661.2 349.8 661.3 349.55 661.4 349.3 661.5 349 661.55 348.7 661.6 348.35 661.65 348.05 661.65 347.75 661.65 347.4 661.6 347.1 661.55 346.75 661.5 346.45 661.4 346.15 661.3 345.9 661.2 345.65 661.1 345.4 660.8 344.95 660.4 344.65 660.15 344.55 659.95 344.45 659.7 344.4 659.45 344.4 658.9 344.4 658.5 344.65 658.1 344.9 657.85 345.35
M 631.15 353.55
L 631.15 349.4 627.25 349.4 627.25 353.55 631.15 353.55
M 702.9 299.2
Q 702.9 299.05 702.85 298.9 702.8 298.7 702.7 298.6 702.55 298.45 702.35 298.4 702.2 298.35 701.95 298.35
L 694.6 298.35
Q 694.4 298.35 694.25 298.4 694.15 298.45 694.05 298.6 693.95 298.7 693.9 298.9 693.8 299.05 693.8 299.2
L 693.8 301.15
Q 693.8 301.35 693.9 301.55 693.95 301.7 694.05 301.75 694.15 301.9 694.25 301.95 694.4 302 694.6 302
L 701.95 302
Q 702.2 302 702.35 301.95 702.55 301.9 702.7 301.75 702.8 301.7 702.85 301.55 702.9 301.35 702.9 301.15
L 702.9 299.2
M 665.25 281.95
Q 665 281.95 664.75 281.95 664.5 281.95 664.25 282 663.95 282 663.7 282.05 663.4 282.05 663.1 282.1
L 663.1 285.35
Q 663.1 285.65 663.1 285.95 663.1 286.2 663.1 286.45 663.1 286.75 663.1 287 663.1 287.3 663.15 287.55 663.45 287.55 663.7 287.55 664 287.6 664.25 287.6 664.8 287.6 665.25 287.6
L 666.6 287.6
Q 666.9 287.6 667.2 287.6 667.45 287.6 667.7 287.6 667.95 287.6 668.25 287.55 668.5 287.55 668.85 287.55 668.85 287.3 668.85 287 668.85 286.75 668.9 286.45 668.9 286.2 668.9 285.95 668.9 285.65 668.9 285.35
L 668.9 284.2
Q 668.9 283.7 668.9 283.1 668.85 282.85 668.85 282.55 668.85 282.25 668.85 282 668.5 282 668.25 281.95 667.95 281.95 667.7 281.95 667.45 281.95 667.2 281.95 666.9 281.95 666.6 281.95
L 665.25 281.95 Z"/>
</g>

<path id="Layer0_0_1_STROKES" stroke="#1E1E1E" stroke-width="3" stroke-linejoin="miter" stroke-linecap="butt" stroke-miterlimit="3" fill="none" d="
M 696.65 508.25
L 734.85 508.25
M 774.65 508.25
L 812.85 508.25
M 1100.95 508.3
L 1163.7 508.3
M 866.4 508.25
L 1051.1 508.25
M 624.95 287.85
L 650.95 287.85"/>

<path id="Layer0_0_2_STROKES" stroke="#DBDBDB" stroke-width="3" stroke-linejoin="round" stroke-linecap="round" fill="none" d="
M 892.25 439.8
L 922.25 439.8
Q 937.25 439.8 937.25 454.8
L 937.25 484.85
Q 937.25 499.85 922.25 499.85
L 892.25 499.85
Q 877.25 499.85 877.25 484.85
L 877.25 454.8
Q 877.25 439.8 892.25 439.8 Z
M 1118.3 438.8
L 1148.3 438.8
Q 1163.3 438.8 1163.3 453.8
L 1163.3 483.85
Q 1163.3 498.85 1148.3 498.85
L 1118.3 498.85
Q 1103.3 498.85 1103.3 483.85
L 1103.3 453.8
Q 1103.3 438.8 1118.3 438.8 Z
M 995.25 439.8
L 1025.25 439.8
Q 1040.25 439.8 1040.25 454.8
L 1040.25 484.85
Q 1040.25 499.85 1025.25 499.85
L 995.25 499.85
Q 980.25 499.85 980.25 484.85
L 980.25 454.8
Q 980.25 439.8 995.25 439.8 Z"/>

<path id="Layer0_0_3_STROKES" stroke="#000000" stroke-width="2" stroke-linejoin="round" stroke-linecap="round" fill="none" d="
M 575.575 387.15
Q 585.9248046875 388.8953125 599 390.05 616.9 391.6 641.45 392.05 651.8 392.25 663.4 392.25 702.35 392.25 727.8 390.05 731.5 389.7 735 389.35 764.2 386.2 778 379.85 781.9 378.05 784.55 376 785.9 374.95 787.2 373.6 788 372.7 788.75 371.8 796.15 361.95 799.15 339.75 801.1 325.75 800.8 313.4 801.1 301.1 799.15 287.05 796.15 264.85 788.75 255.15 788 254.1 787.2 253.25 785.9 251.9 784.55 250.8 781.9 248.75 778 246.95 762.55 239.8 727.8 236.75 702.35 234.5 663.4 234.5 651.8 234.5 641.45 234.7 616.9 235.2 599 236.75 562.2 239.95 547 247.85 544.5 249.15 542.6 250.55 542.4 250.65 542.25 250.8 540.9 251.8 539.65 253.25 538.8 254.15 538 255.25 530.65 265 527.65 287.05 525.75 301.1 526 313.4
L 526.15 321.3
Q 526.5 331 527.65 339.75 530.65 361.75 538 371.6 538.8 372.7 539.65 373.6 540.9 374.95 542.25 376 544.3 377.55 547 378.95 551.275 381.1578125 557.25 383 557.7998046875 381.5720703125 558.5 380.1
M 577.4 385.55
Q 576.4470703125 386.3373046875 575.575 387.15 565.6322265625 396.5193359375 566 410.4 550.9970703125 399.5390625 557.25 383"/>

<path id="Layer0_0_4_STROKES" stroke="#E50182" stroke-width="8" stroke-linejoin="miter" stroke-linecap="butt" stroke-miterlimit="3" fill="none" d="
M 605.9 332.7
L 592.1 346.5 605.9 360.3
M 578.35 360.25
L 592.1 346.5 578.35 332.75"/>
</defs>

<g transform="matrix( 1, 0, 0, 1, 0,0) ">
<use xlink:href="#Layer0_0_FILL"/>

<use xlink:href="#Layer0_0_1_STROKES"/>

<use xlink:href="#Layer0_0_2_STROKES"/>

<use xlink:href="#Layer0_0_3_STROKES"/>

<use xlink:href="#Layer0_0_4_STROKES"/>
</g>
</svg>
