
<svg xmlns="http://www.w3.org/2000/svg" version="1.1" xmlns:xlink="http://www.w3.org/1999/xlink" preserveAspectRatio="none" x="0px" y="0px" width="1280px" height="720px" viewBox="0 0 1280 720">
<defs>
<g id="Layer1_0_FILL">
<path fill="#3567D7" stroke="none" d="
M 470.2 417.15
Q 470.2 413.5 468.1 411.5 466.05 409.45 462.65 409.45 460.6 409.45 458.8 410.4 457 411.35 456.1 413.25 455.35 411.4 453.6 410.4 451.9 409.45 449.8 409.45 448.25 409.45 446.85 410.1 445.45 410.75 444.65 411.65
L 444.7 410.25
Q 444.7 409.95 444.35 409.95
L 440.95 409.95
Q 440.3 409.95 440.35 410.45 440.45 411.25 440.5 412.65 440.55 414.05 440.55 415.6
L 440.55 431.5
Q 440.55 431.7 440.65 431.9 440.8 432.05 441 432.05
L 444.35 432.05
Q 444.8 432.05 444.8 431.55
L 444.8 418.55
Q 444.8 416.15 446.05 414.8 447.3 413.4 449.55 413.4 453.1 413.4 453.1 417.65
L 453.1 431.5
Q 453.1 431.7 453.25 431.9 453.4 432.05 453.6 432.05
L 456.95 432.05
Q 457.4 432.05 457.4 431.55
L 457.4 419.95
Q 457.4 418.55 457.75 417.35 458.1 416.15 458.75 415.3 459.35 414.4 460.3 413.95 461.25 413.4 462.45 413.4 464.15 413.4 465 414.6 465.9 415.8 465.9 417.65
L 465.9 431.5
Q 465.9 431.7 466.05 431.9 466.2 432.05 466.4 432.05
L 469.75 432.05
Q 469.9 432.05 470.1 431.9 470.2 431.75 470.2 431.55
L 470.2 417.15
M 425.8 415.5
Q 427.45 413.4 430.7 413.4 431.75 413.4 432.9 413.55 434.1 413.65 435 414 435.35 414.05 435.45 413.95 435.65 413.8 435.65 413.55
L 436 410.8
Q 436.05 410.4 436 410.3 435.9 410.2 435.75 410.15 434.55 409.75 433.3 409.6 432 409.45 430.8 409.45 428.25 409.45 426.2 410.3 424.2 411.15 422.7 412.7 421.25 414.2 420.45 416.35 419.65 418.45 419.65 421 419.65 423.4 420.3 425.45 421 427.5 422.3 429.05 423.6 430.55 425.55 431.5 427.5 432.4 430 432.6 430.8 432.6 431.6 432.6 432.45 432.6 433.15 432.5 433.9 432.4 434.55 432.3 435.2 432.2 435.65 432 435.95 431.95 436 431.8 436.05 431.65 436 431.35
L 435.85 428.6
Q 435.8 428.35 435.7 428.25 435.55 428.1 435.2 428.25 433 428.95 430.25 428.6 427.25 428.25 425.7 426.25 424.1 424.25 424.1 421 424.1 417.6 425.8 415.5
M 405.25 425.35
Q 405.4 425.25 405.4 424.85
L 405.4 421.95
Q 405.4 421.55 405.25 421.45 405.1 421.35 404.75 421.35
L 401.05 421.35 401.05 402.45
Q 401.05 402.1 401 402 400.95 401.85 400.65 401.85
L 397 401.85
Q 396.6 401.85 396.5 401.95 396.4 402.05 396.2 402.4
L 383.8 421
Q 383.65 421.15 383.5 421.45 383.3 421.75 383.3 422
L 383.3 425
Q 383.3 425.3 383.45 425.35 383.6 425.45 383.95 425.45
L 396.75 425.45 396.75 431.55
Q 396.75 431.95 396.9 432.1 397.05 432.25 397.5 432.25
L 400.4 432.25
Q 400.8 432.25 400.9 432.1 401.05 432 401.05 431.55
L 401.05 425.45 404.75 425.45
Q 405.1 425.45 405.25 425.35
M 396.75 421.35
L 388.15 421.35 396.75 408.3 396.75 421.35 Z"/>
</g>

<g id="Layer1_0_MEMBER_2_STROKES_1_FILL">
<path fill="#00BDF2" stroke="none" d="
M 411.05 535.5
Q 411.1689453125 535.1251953125 410.95 534.75 410.72890625 534.4212890625 410.3 534.3 409.9251953125 534.2306640625 409.55 534.45 409.221484375 534.67109375 409.1 535.05 408.774609375 536.5625 408.35 538.05 408.267578125 538.4453125 408.45 538.8 408.6923828125 539.1634765625 409.1 539.25 409.4951171875 539.3826171875 409.85 539.15 410.21328125 538.957421875 410.3 538.55 410.7251953125 537.0375 411.05 535.5
M 410.15 531.05
Q 410.080859375 531.4767578125 410.3 531.8 410.522265625 532.1796875 410.9 532.25 411.326171875 532.369140625 411.65 532.15 412.0294921875 531.926953125 412.1 531.5 412.475 529.975 412.8 528.45 412.9189453125 528.0751953125 412.7 527.7 412.47890625 527.3712890625 412.05 527.25 411.6751953125 527.1806640625 411.3 527.4 410.971484375 527.62109375 410.85 528 410.525 529.5248046875 410.15 531.05
M 413.5 520.25
Q 413.0953125 520.1939453125 412.75 520.4 412.40625 520.6498046875 412.3 521.05 412.025 522.55 411.7 524.05 411.6443359375 524.4541015625 411.85 524.8 412.1001953125 525.144140625 412.5 525.2 412.9046875 525.3060546875 413.25 525.05 413.59375 524.8501953125 413.65 524.45 413.975 522.95 414.25 521.45 414.35546875 521.0458984375 414.1 520.7 413.899609375 520.355859375 413.5 520.25
M 414.7 513.25
Q 414.3150390625 513.2076171875 413.95 513.45 413.640625 513.6802734375 413.55 514.05 413.325 515.575 413.05 517.05 413.0078125 517.4853515625 413.25 517.8 413.4798828125 518.1595703125 413.85 518.2 414.2849609375 518.2923828125 414.6 518.05 414.959375 517.8197265625 415 517.4 415.275 515.925 415.5 514.4 415.5921875 514.0146484375 415.35 513.65 415.1201171875 513.3404296875 414.7 513.25
M 416.35 506.65
Q 416.091015625 506.312890625 415.65 506.25 415.27265625 506.196484375 414.95 506.45 414.6130859375 506.7087890625 414.55 507.1 414.35 508.625 414.15 510.1 414.0966796875 510.526953125 414.35 510.85 414.608984375 511.187109375 415 511.25 415.4271484375 511.3037109375 415.75 511.05 416.08671875 510.7912109375 416.15 510.35 416.35 508.875 416.55 507.35 416.6033203125 506.9728515625 416.35 506.65
M 417.3 500.25
Q 417.3392578125 499.8419921875 417.05 499.5 416.8111328125 499.19765625 416.4 499.15 415.992578125 499.110546875 415.65 499.35 415.3478515625 499.6392578125 415.3 500.05 415.15 501.55 415 503.1 414.9607421875 503.5068359375 415.2 503.8 415.4888671875 504.15234375 415.9 504.2 416.307421875 504.239453125 416.6 503.95 416.951953125 503.71171875 417 503.3 417.1498046875 501.75 417.3 500.25
M 403.3 425.65
Q 403.4201171875 425.28515625 403.2 424.9 402.5251953125 423.6125 401.75 422.3 401.5580078125 421.93828125 401.15 421.8 400.75546875 421.7171875 400.4 421.9 400.0369140625 422.1419921875 399.9 422.55 399.8171875 422.9431640625 400 423.3 400.774609375 424.5875 401.45 425.85 401.6767578125 426.2349609375 402.05 426.35 402.465234375 426.470703125 402.8 426.25 403.1853515625 426.0740234375 403.3 425.65
M 396.2 416.7
Q 396.1443359375 417.1048828125 396.35 417.45 397.212109375 418.687890625 398 419.95 398.22109375 420.3279296875 398.6 420.4 399.0240234375 420.51953125 399.35 420.3 399.728515625 420.079296875 399.8 419.65 399.9189453125 419.2763671875 399.7 418.9 398.887890625 417.612109375 398 416.35 397.7984375 416.00625 397.4 415.9 396.9939453125 415.8443359375 396.65 416.05 396.305078125 416.3015625 396.2 416.7
M 394.15 414.2
Q 394.3958984375 414.5357421875 394.8 414.6 395.21328125 414.65390625 395.55 414.4 395.8865234375 414.1546875 395.95 413.75 396.0033203125 413.3373046875 395.75 413 394.85 411.8 393.95 410.6 393.7041015625 410.2640625 393.3 410.2 392.88671875 410.14609375 392.55 410.4 392.2134765625 410.6453125 392.15 411.05 392.096484375 411.4626953125 392.35 411.8 393.25 413 394.15 414.2
M 389.5 405
Q 389.230859375 404.6828125 388.8 404.65 388.4130859375 404.6244140625 388.1 404.9 387.7828125 405.1681640625 387.75 405.55 387.725390625 405.9869140625 388 406.3 388.987109375 407.437890625 389.9 408.6 390.1744140625 408.9505859375 390.55 409 390.9923828125 409.040234375 391.3 408.75 391.651171875 408.526171875 391.7 408.1 391.73984375 407.708203125 391.45 407.35 390.512890625 406.162109375 389.5 405
M 386.85 401.95
Q 385.8376953125 400.8623046875 384.75 399.75 384.4876953125 399.4556640625 384.05 399.45 383.65625 399.4392578125 383.35 399.7 383.0548828125 400.0119140625 383.05 400.4 383.0396484375 400.8427734375 383.3 401.15 384.3623046875 402.2375 385.35 403.3 385.6345703125 403.6310546875 386.05 403.65 386.465234375 403.6744140625 386.75 403.4 387.08125 403.1162109375 387.1 402.7 387.1234375 402.284765625 386.85 401.95
M 416 492.3
Q 415.7181640625 492.6107421875 415.7 493 415.6498046875 494.5001953125 415.55 496 415.5248046875 496.4380859375 415.8 496.75 416.06875 497.0673828125 416.45 497.1 416.8876953125 497.125390625 417.2 496.85 417.5171875 496.580859375 417.55 496.15 417.6501953125 494.599609375 417.7 493.05 417.7107421875 492.669921875 417.4 492.35 417.139453125 492.06796875 416.7 492.05 416.3203125 492.0388671875 416 492.3
M 417.9 486
Q 417.896484375 485.5892578125 417.6 485.3 417.3107421875 485.003515625 416.9 485 416.4892578125 485.003515625 416.2 485.3 415.903515625 485.5892578125 415.9 486 415.899609375 487.4875 415.85 488.95 415.8390625 489.380078125 416.1 489.65 416.410546875 489.98203125 416.8 490 417.2298828125 490.0111328125 417.5 489.7 417.8318359375 489.4390625 417.85 489 417.9001953125 487.5123046875 417.9 486
M 416 478.25
Q 415.7390625 478.569921875 415.75 478.95 415.8 480.475 415.85 481.95 415.8681640625 482.3890625 416.15 482.65 416.4703125 482.9611328125 416.85 482.95 417.289453125 482.93203125 417.55 482.6 417.8607421875 482.330078125 417.85 481.9 417.8 480.425 417.75 478.9 417.7318359375 478.5107421875 417.4 478.2 417.1298828125 477.9388671875 416.7 477.95 416.310546875 477.96796875 416 478.25
M 378.25 394.75
Q 377.9892578125 395.05625 378 395.45 378.0056640625 395.8876953125 378.3 396.15 379.4 397.225 380.5 398.25 380.80703125 398.56015625 381.2 398.55 381.6380859375 398.5451171875 381.9 398.25 382.210546875 397.9435546875 382.2 397.5 382.1943359375 397.1123046875 381.9 396.8 380.8 395.775 379.7 394.7 379.3927734375 394.4396484375 378.95 394.45 378.5619140625 394.4548828125 378.25 394.75
M 372.8 390.8
Q 372.8328125 391.230859375 373.15 391.5 374.2873046875 392.5001953125 375.35 393.5 375.684765625 393.7734375 376.1 393.75 376.5162109375 393.73125 376.8 393.4 377.0744140625 393.115234375 377.05 392.7 377.0310546875 392.2845703125 376.7 392 375.6126953125 391 374.45 390 374.1369140625 389.725390625 373.7 389.75 373.3181640625 389.7828125 373.05 390.1 372.7744140625 390.4130859375 372.8 390.8
M 371.75 388.05
Q 371.70234375 387.640234375 371.35 387.35 370.225 386.4248046875 369 385.45 368.691796875 385.21015625 368.25 385.25 367.873828125 385.298828125 367.6 385.6 367.359765625 385.9576171875 367.4 386.35 367.4494140625 386.7755859375 367.75 387 368.9748046875 387.9748046875 370.1 388.9 370.4421875 389.1884765625 370.85 389.15 371.260546875 389.102734375 371.5 388.75 371.7892578125 388.4580078125 371.75 388.05
M 363.45 381.2
Q 363.1126953125 380.946484375 362.7 381 362.2953125 381.0634765625 362.05 381.4 361.79609375 381.73671875 361.85 382.15 361.9140625 382.5541015625 362.25 382.8 363.45 383.7 364.65 384.6 364.9873046875 384.8533203125 365.4 384.8 365.8046875 384.7365234375 366.05 384.4 366.30390625 384.06328125 366.25 383.65 366.1857421875 383.2458984375 365.85 383 364.65 382.1 363.45 381.2
M 357.55 377.15
Q 357.2048828125 376.9443359375 356.8 377 356.4015625 377.105078125 356.15 377.45 355.9443359375 377.7939453125 356 378.2 356.10625 378.5984375 356.45 378.8 357.7 379.675 358.95 380.5 359.2951171875 380.75546875 359.7 380.65 360.0986328125 380.594921875 360.3 380.25 360.5556640625 379.9060546875 360.45 379.5 360.39375 379.1015625 360.05 378.85 358.8 378.025 357.55 377.15 Z"/>
</g>

<path id="Layer1_0_MEMBER_0_1_STROKES" stroke="#3567D7" stroke-width="3" stroke-linejoin="round" stroke-linecap="butt" fill="none" d="
M 246.55 412.6
L 354.05 377.1 461.25 341.7
M 354.05 377.1
L 408.1 541"/>

<path id="Layer1_0_MEMBER_1_1_STROKES" stroke="#1E1E1E" stroke-width="3" stroke-linejoin="round" stroke-linecap="butt" fill="none" d="
M 283.6997375488281 543.0589782714844
L 498.3990478515625 472.18920593261714"/>
</defs>

<g transform="matrix( 1, 0, 0, 1, 0,0) ">
<use xlink:href="#Layer1_0_FILL"/>
</g>

<g transform="matrix( 1, 0, 0, 1, -12.5,-35.5) ">
<use xlink:href="#Layer1_0_MEMBER_0_1_STROKES"/>
</g>

<g transform="matrix( 3.79998779296875, 0, 0, 3.79998779296875, 202,225) ">
<use xlink:href="#Layer1_0_MEMBER_1_1_STROKES" transform="matrix( 0.263153076171875, 0, 0, 0.263153076171875, -53.15,-59.2) "/>
</g>

<g transform="matrix( 1, 0, 0, 1, -12.5,-35.5) ">
<use xlink:href="#Layer1_0_MEMBER_2_STROKES_1_FILL"/>
</g>
</svg>
