
<svg xmlns="http://www.w3.org/2000/svg" version="1.1" xmlns:xlink="http://www.w3.org/1999/xlink" preserveAspectRatio="none" x="0px" y="0px" width="1280px" height="720px" viewBox="0 0 1280 720">
<defs>
<path id="Layer1_0_1_STROKES" stroke="#BBDECB" stroke-width="5" stroke-linejoin="round" stroke-linecap="butt" fill="none" d="
M 150.95 241.6
L 496.95 241.6
Q 500.35 241.6 502.95 242.35 511.65 244.9 511.95 255.9
L 511.95 602.6
Q 511.95 617.6 496.95 617.6
L 150.95 617.6
Q 135.95 617.6 135.95 602.6
L 135.95 256.6
Q 135.95 241.6 150.95 241.6 Z"/>

<path id="Layer1_1_1_STROKES" stroke="#BBDECB" stroke-width="5" stroke-linejoin="round" stroke-linecap="butt" fill="none" d="
M 150.95 241.6
L 496.95 241.6
Q 500.35 241.6 502.95 242.35 511.65 244.9 511.95 255.9
L 511.95 602.6
Q 511.95 617.6 496.95 617.6
L 150.95 617.6
Q 135.95 617.6 135.95 602.6
L 135.95 256.6
Q 135.95 241.6 150.95 241.6 Z"/>

<path id="Layer1_2_1_STROKES" stroke="#1E1E1E" stroke-width="3" stroke-linejoin="round" stroke-linecap="butt" fill="none" d="
M 828.0183471679687 295.3698028564453
L 828.0183471679687 553.7689727783204"/>

<path id="Layer1_3_1_STROKES" stroke="#1E1E1E" stroke-width="3" stroke-linejoin="round" stroke-linecap="butt" fill="none" d="
M 283.6997375488281 543.0589782714844
L 498.3990478515625 472.18920593261714"/>
</defs>

<g transform="matrix( 1, 0, 0, 1, 42.25,-5) ">
<use xlink:href="#Layer1_0_1_STROKES"/>
</g>

<g transform="matrix( 1, 0, 0, 1, 590.6,-5) ">
<use xlink:href="#Layer1_1_1_STROKES"/>
</g>

<g transform="matrix( 3.79998779296875, 0, 0, 3.79998779296875, 313.5,234) ">
<use xlink:href="#Layer1_2_1_STROKES" transform="matrix( 0.263153076171875, 0, 0, 0.263153076171875, -82.5,-61.55) "/>
</g>

<g transform="matrix( 3.79998779296875, 0, 0, 3.79998779296875, 202,225) ">
<use xlink:href="#Layer1_3_1_STROKES" transform="matrix( 0.263153076171875, 0, 0, 0.263153076171875, -53.15,-59.2) "/>
</g>
</svg>
