
<svg xmlns="http://www.w3.org/2000/svg" version="1.1" xmlns:xlink="http://www.w3.org/1999/xlink" preserveAspectRatio="none" x="0px" y="0px" width="60px" height="60px" viewBox="0 0 60 60">
<defs>
<g id="Layer0_0_FILL">
<path fill="#1E1E1E" stroke="none" d="
M 22.95 18.8
Q 22.95 18.15 22.35 18.15
L 19.35 18.15
Q 18.8 18.15 18.8 18.8
L 18.8 34.6
Q 18.8 35.8 19.3 36.25 19.8 36.75 21.05 36.85 22.25 36.9 23.85 36.9 25.45 36.85 27.2 36.7 28.95 36.55 30.7 36.3 32.45 36.05 34 35.7 34.45 35.6 34.45 35.1
L 34 32.65
Q 33.95 32.5 33.85 32.35 33.75 32.25 33.4 32.35 32.3 32.55 31.05 32.75 29.75 32.95 28.45 33.1 27.15 33.25 25.9 33.3 24.65 33.35 23.65 33.3 22.95 33.25 22.95 32.6
L 22.95 18.8
M 43.55 30.65
Q 43.8 30.65 44 30.5 44.15 30.4 44.15 30.05
L 44.15 27.75
Q 44.15 27.35 44 27.25 43.8 27.2 43.55 27.2
L 39.8 27.2 39.8 16.95
Q 39.8 16.6 39.7 16.5 39.6 16.35 39.3 16.35
L 36.25 16.35
Q 35.9 16.35 35.8 16.5 35.65 16.6 35.65 16.95
L 35.65 44.55
Q 35.65 44.9 35.8 45.05 35.9 45.15 36.25 45.15
L 39.3 45.15
Q 39.6 45.15 39.7 45.05 39.8 44.9 39.8 44.55
L 39.8 30.65 43.55 30.65 Z"/>
</g>

<path id="Layer0_0_1_STROKES" stroke="#1E1E1E" stroke-width="3" stroke-linejoin="round" stroke-linecap="round" fill="none" d="
M 53.1 30
Q 53.1 39.55 46.3 46.3 39.55 53.1 30 53.1 20.4 53.1 13.65 46.3 6.9 39.55 6.9 30 6.9 20.4 13.65 13.65 20.4 6.9 30 6.9 39.55 6.9 46.3 13.65 53.1 20.4 53.1 30 Z"/>
</defs>

<g transform="matrix( 1, 0, 0, 1, 0,0) ">
<use xlink:href="#Layer0_0_FILL"/>

<use xlink:href="#Layer0_0_1_STROKES"/>
</g>
</svg>
