
<svg xmlns="http://www.w3.org/2000/svg" version="1.1" xmlns:xlink="http://www.w3.org/1999/xlink" preserveAspectRatio="none" x="0px" y="0px" width="64px" height="60px" viewBox="0 0 64 60">
<defs>
<g id="Duplicate_Items_Folder_fdnd4545466_0_Layer2_0_MEMBER_0_FILL">
<path fill="#FF7555" stroke="none" d="
M 172.95 79.7
Q 171.35 80.45 171.05 83.35 170.45 89.3 161.2 93.4 152.25 97.35 145.25 95.55 136.7 93.35 135.8 74.4 135.55 68.75 135.9 59 136.3 49.2 136.2 46.6 135.8 36.65 129.75 28.5 127.85 25.95 125.6 23.9
L 123.75 22.35 101.25 13.75 92.2 13.75 69.7 22.35
Q 66.75 24.45 63.7 28.5 57.65 36.65 57.25 46.6 57.15 49.15 57.55 59 57.9 68.8 57.65 74.4 56.75 93.35 48.2 95.55 41.2 97.35 32.25 93.4 23 89.3 22.4 83.35 22.1 80.45 20.5 79.7 19.05 79 17.1 80.15 12.45 83 12.7 89.1 13.05 99.7 16.75 106.5 23.55 119 42.2 126
L 41.7 128.5
Q 41.3 131.55 41.65 134.45 42.8 143.8 51.2 148.15 56.35 150.8 63.2 151.3 70.55 151.9 77.2 149.7 93.75 144.3 96.7 125.85 99.7 144.3 116.25 149.7 122.9 151.9 130.25 151.3 137.1 150.8 142.2 148.15 150.65 143.8 151.8 134.45 152.15 131.55 151.75 128.5
L 151.25 126
Q 169.9 119 176.7 106.5 180.4 99.7 180.75 89.1 181 83 176.3 80.15 174.4 78.95 172.95 79.7 Z"/>
</g>

<g id="Mask_Duplicate_Items_Folder__Clip_Group__copy_0_2_MASK_0_FILL">
<path fill="#FFFFFF" stroke="none" d="
M 176.7 92.75
Q 180.4 85.95 180.75 75.35 181 69.25 176.3 66.4 174.4 65.2 172.95 65.95 171.35 66.7 171.05 69.6 170.45 75.55 161.2 79.65 152.25 83.6 145.25 81.8 136.7 79.6 135.8 60.65 135.55 55 135.9 45.25 136.3 35.45 136.2 32.85 135.8 22.9 129.75 14.75 127.85 12.2 125.6 10.15
L 123.75 8.6 101.25 0 92.2 0 69.7 8.6
Q 66.75 10.7 63.7 14.75 57.65 22.9 57.25 32.85 57.15 35.4 57.55 45.25 57.9 55.05 57.65 60.65 56.75 79.6 48.2 81.8 41.2 83.6 32.25 79.65 23 75.55 22.4 69.6 22.1 66.7 20.5 65.95 19.05 65.25 17.1 66.4 12.45 69.25 12.7 75.35 13.05 85.95 16.75 92.75 23.55 105.25 42.2 112.25
L 41.7 114.75
Q 41.3 117.8 41.65 120.7 42.8 130.05 51.2 134.4 56.35 137.05 63.2 137.55 70.55 138.15 77.2 135.95 93.75 130.55 96.7 112.1 99.7 130.55 116.25 135.95 122.9 138.15 130.25 137.55 137.1 137.05 142.2 134.4 150.65 130.05 151.8 120.7 152.15 117.8 151.75 114.75
L 151.25 112.25
Q 169.9 105.25 176.7 92.75 Z"/>
</g>

<g id="Duplicate_Items_Folder__Clip_Group__copy_0_Layer2_0_FILL">
<path fill="#FFB9AE" stroke="none" d="
M 25 66.05
L 23.6 65.25
Q 17.9 64.2 15 67.8 13.55 69.6 13.25 71.6
L 4.2 75.55 0 97.5 18.85 117.35 41.55 119.2
Q 40.75 113.5 42.75 111.3 43.35 110.6 44.2 110.35 44.6 110.25 44.9 110.25 56.05 110.45 63.75 104.65 67.65 101.75 69.25 98.8 57.9 105.6 45.55 103.5 41.7 102.9 38.15 101.4
L 35.45 100.1
Q 24.15 94.15 20.8 85.75 19.75 83.1 19.6 80.55
L 19.7 78.5
Q 21.45 80.6 24.65 79.55 26.25 79 27.5 78.05 31.05 72.7 27.65 68.45 26.6 67.1 25 66.05 Z"/>
</g>

<g id="Duplicate_Items_Folder__Clip_Group__copy_0_Layer2_1_FILL">
<path fill="#FFB9AE" stroke="none" d="
M 48.05 112.15
Q 43.5 108.85 42.2 112.55
L 35.25 131.6 53.15 146.05 81.85 146.05 94.7 133.35 96.7 113.4
Q 96.5 112.25 96 111.65 95 110.45 93.6 113.05 91.2 118 85.95 121.75 75.5 129.3 61.45 123.4 54.25 118.95 52.35 116.25 50.35 113.85 48.05 112.15 Z"/>
</g>

<g id="Duplicate_Items_Folder__Clip_Group__copy_0_Layer2_2_FILL">
<path fill="#FFB9AE" stroke="none" d="
M 180 71.6
Q 179.7 69.6 178.25 67.8 175.35 64.2 169.65 65.25 167.25 66.3 165.55 68.45 162.2 72.7 165.75 78.05
L 168.6 79.55
Q 171.8 80.6 173.55 78.5
L 173.65 80.55
Q 173.5 83.1 172.45 85.75 169.1 94.15 157.8 100.1 153.9 102.5 147.75 103.5 135.4 105.6 124 98.8
L 125.3 100.65
Q 127.05 102.85 129.5 104.65 137.2 110.45 148.35 110.25
L 149.05 110.35
Q 149.9 110.6 150.5 111.3 152.5 113.5 151.7 119.2
L 174.4 117.35 193.25 97.5 189.05 75.55 180 71.6 Z"/>
</g>

<g id="Duplicate_Items_Folder__Clip_Group__copy_0_Layer2_3_FILL">
<path fill="#FFB9AE" stroke="none" d="
M 140.05 146.05
L 158 131.6 151.05 112.55
Q 149.75 108.85 145.2 112.15
L 140.9 116.25
Q 139 118.95 131.8 123.4 117.75 129.3 107.3 121.75 104 119.4 101.5 116
L 99.65 113.05
Q 98.3 110.45 97.25 111.65 96.75 112.25 96.5 113.4
L 98.55 133.35 111.4 146.05 140.05 146.05 Z"/>
</g>

<g id="Duplicate_Items_Folder_fdnd4545466_0_Layer2_0_MEMBER_3_FILL">
<path fill="#FF7555" stroke="none" d="
M 100.2 6.85
Q 102.6 1.1 99.3 1.05
L 92.1 1.05
Q 88.75 1.1 91.15 6.85 92.4 9.75 94.25 12.6
L 97.1 12.6
Q 99 9.75 100.2 6.85 Z"/>
</g>

<g id="Duplicate_Items_Folder_fdnd4545466_0_Layer2_0_MEMBER_4_FILL">
<path fill="#579CFF" stroke="none" d="
M 119.1 17.65
Q 108.7 10.8 97 10.8 85.3 10.8 75.5 17.5 72.45 19.6 69.95 22.1
L 68.05 24.2 80.15 28.25 83.6 28.85
Q 88.15 29.45 93.35 29.5 109.95 29.7 127.2 24.5 124.35 21.1 119.1 17.65 Z"/>
</g>

<g id="Duplicate_Items_Folder_fdnd4545466_0_Layer2_0_MEMBER_5_FILL">
<path fill="#579CFF" stroke="none" d="
M 111.6 18.85
Q 107 13.85 98.55 10.9 97.45 10.8 97 10.8 85.3 10.8 75.5 17.5 72.45 19.6 69.95 22.1
L 68.05 24.2 80.15 28.25 90.05 29.4
Q 102.65 29.95 116.1 27.25 115.05 22.6 111.6 18.85 Z"/>
</g>

<g id="Duplicate_Items_Folder_fdnd4545466_0_Layer2_0_MEMBER_6_FILL">
<path fill="#CAE5FF" stroke="none" d="
M 119.55 17.95
Q 109.7 11.35 98.55 10.9 107 13.85 111.6 18.85 115.05 22.6 116.1 27.25 121.6 26.15 127.2 24.5 124.5 21.3 119.55 17.95 Z"/>
</g>

<g id="Duplicate_Items_Folder_fdnd4545466_0_Layer2_0_MEMBER_8_FILL">
<path fill="#CAE5FF" stroke="none" d="
M 51.75 15.05
Q 47.9 20.25 58.25 24 69.7 28.2 95.75 29.25 86.4 23.5 76.25 18.8 55.9 9.5 51.75 15.05 Z"/>
</g>

<g id="Duplicate_Items_Folder_fdnd4545466_0_Layer2_0_MEMBER_12_FILL">
<path fill="#FFD592" stroke="none" d="
M 82.9 62.3
Q 83.45 61.1 83.05 58.85 82.7 57.2 80.95 56.05 79.05 54.8 76.8 55.35 75.8 55.55 74.8 56.15 72.8 57.35 72.85 59.45 72.85 62.5 73.85 63.75 75.2 65.45 78.65 64.85 82 64.3 82.9 62.3 Z"/>
</g>

<g id="Duplicate_Items_Folder_fdnd4545466_0_Layer2_0_MEMBER_13_MEMBER_0_FILL">
<path fill="#000000" stroke="none" d="
M 93.7 54.9
Q 93.15 54.9 92.7 55.5 92.25 56.1 92.05 57
L 93.2 57.7 91.9 58.45
Q 91.95 59.8 92.45 60.75 93 61.65 93.7 61.65 94.45 61.65 95 60.65 95.55 59.7 95.55 58.3 95.55 56.9 95 55.9 94.45 54.9 93.7 54.9 Z"/>
</g>

<g id="Duplicate_Items_Folder_fdnd4545466_0_Layer2_0_MEMBER_14_FILL">
<path fill="#FF7555" stroke="none" d="
M 18.45 82.35
L 23.8 82.1
Q 25.1 77.85 24.85 75.9 24.45 73.15 21 73.3 17.8 73.45 17.8 77.9 17.8 80.15 18.45 82.35 Z"/>
</g>

<g id="Duplicate_Items_Folder_fdnd4545466_0_Layer2_0_MEMBER_15_MEMBER_0_FILL">
<path fill="#FFB9AE" stroke="none" d="
M 13.65 84.05
Q 12.65 86.8 12.7 89.6
L 19.25 91.6
Q 19.95 93 22 93.45 23 93.65 23.85 93.6 26.95 93.1 28.35 90.7 29.65 88.5 29.1 85.65 28.6 82.8 26.6 80.85 24.4 78.65 21.25 78.6 15.7 78.5 13.65 84.05 Z"/>
</g>

<g id="Duplicate_Items_Folder_fdnd4545466_0_Layer2_0_MEMBER_19_FILL">
<path fill="#FF7555" stroke="none" d="
M 169.65 82.1
L 175 82.35
Q 175.65 80.15 175.65 77.9 175.65 73.45 172.45 73.3 169 73.15 168.6 75.9 168.35 77.85 169.65 82.1 Z"/>
</g>

<g id="Duplicate_Items_Folder_fdnd4545466_0_Layer2_0_MEMBER_20_FILL">
<path fill="#FFD592" stroke="none" d="
M 119 55.35
Q 116.8 54.8 114.85 56.05 113.1 57.2 112.75 58.85 112.35 61.1 112.95 62.3 113.8 64.3 117.15 64.85 120.6 65.45 121.95 63.75 122.95 62.5 122.95 59.45 123 57.35 121 56.15
L 119 55.35 Z"/>
</g>

<g id="Duplicate_Items_Folder_fdnd4545466_0_Layer2_0_MEMBER_21_MEMBER_0_FILL">
<path fill="#000000" stroke="none" d="
M 103.1 55.5
Q 102.65 54.9 102.1 54.9 101.35 54.9 100.8 55.9 100.25 56.9 100.25 58.3 100.25 59.7 100.8 60.65 101.35 61.65 102.1 61.65 102.8 61.65 103.35 60.75 103.85 59.8 103.9 58.45
L 102.6 57.7 103.75 57
Q 103.55 56.1 103.1 55.5 Z"/>
</g>

<g id="Duplicate_Items_Folder_fdnd4545466_0_Layer2_0_MEMBER_22_FILL">
<path fill="#000000" stroke="none" d="
M 103.85 45.8
Q 106.9 44.65 110.3 46 109.45 45.05 107.9 44.55 104.7 43.55 101 46
L 100.9 46.55
Q 100.9 47.1 101.5 47.25
L 103.85 45.8 Z"/>
</g>

<g id="Duplicate_Items_Folder_fdnd4545466_0_Layer2_0_MEMBER_23_MEMBER_0_FILL">
<path fill="#FFB9AE" stroke="none" d="
M 179.8 84.05
Q 177.7 78.5 172.2 78.6 169.05 78.65 166.85 80.85 164.85 82.8 164.3 85.65 163.8 88.5 165.1 90.7 166.5 93.1 169.6 93.6
L 171.45 93.45
Q 173.5 93 174.2 91.6
L 180.75 89.6
Q 180.8 86.8 179.8 84.05 Z"/>
</g>

<g id="Duplicate_Items_Folder_fdnd4545466_0_Layer2_0_MEMBER_25_FILL">
<path fill="#000000" stroke="none" d="
M 85.5 46
Q 88.9 44.65 91.95 45.8 93.45 46.4 94.3 47.25 95.25 47 94.8 46 91.1 43.55 87.9 44.55
L 85.5 46 Z"/>
</g>

<path id="Duplicate_Items_Folder_fdnd4545466_0_Layer2_0_MEMBER_2_1_STROKES" stroke="#000000" stroke-width="2" stroke-linejoin="miter" stroke-linecap="round" stroke-miterlimit="4" fill="none" d="
M 180.75 89.1
Q 181 83 176.3 80.15 174.4 78.95 172.95 79.7 171.35 80.45 171.05 83.35 170.45 89.3 161.2 93.4 152.25 97.35 145.25 95.55 136.7 93.35 135.8 74.4 135.55 68.75 135.9 59 136.3 49.2 136.2 46.6 135.8 36.65 129.75 28.5 127.85 25.95 125.6 23.9
L 123.75 22.35 101.25 13.75 92.2 13.75 69.7 22.35
Q 66.75 24.45 63.7 28.5 57.65 36.65 57.25 46.6 57.15 49.15 57.55 59 57.9 68.8 57.65 74.4 56.75 93.35 48.2 95.55 41.2 97.35 32.25 93.4 23 89.3 22.4 83.35 22.1 80.45 20.5 79.7 19.05 79 17.1 80.15 12.45 83 12.7 89.1 13.05 99.7 16.75 106.5 23.55 119 42.2 126
L 41.7 128.5
Q 41.3 131.55 41.65 134.45 42.8 143.8 51.2 148.15 56.35 150.8 63.2 151.3 70.55 151.9 77.2 149.7 93.75 144.3 96.7 125.85 99.7 144.3 116.25 149.7 122.9 151.9 130.25 151.3 137.1 150.8 142.2 148.15 150.65 143.8 151.8 134.45 152.15 131.55 151.75 128.5
L 151.25 126
Q 169.9 119 176.7 106.5 180.4 99.7 180.75 89.1 Z"/>

<path id="Duplicate_Items_Folder_fdnd4545466_0_Layer2_0_MEMBER_3_1_STROKES" stroke="#000000" stroke-width="2" stroke-linejoin="miter" stroke-linecap="round" stroke-miterlimit="4" fill="none" d="
M 99.3 1.05
L 92.1 1.05
Q 88.75 1.1 91.15 6.85 92.4 9.75 94.25 12.6
L 97.1 12.6
Q 99 9.75 100.2 6.85 102.6 1.1 99.3 1.05 Z"/>

<path id="Duplicate_Items_Folder_fdnd4545466_0_Layer2_0_MEMBER_6_1_STROKES" stroke="#000000" stroke-width="1" stroke-linejoin="miter" stroke-linecap="butt" stroke-miterlimit="4" fill="none" d="
M 98.55 10.9
Q 107 13.85 111.6 18.85 115.05 22.6 116.1 27.25 121.6 26.15 127.2 24.5 124.5 21.3 119.55 17.95 109.7 11.35 98.55 10.9 Z"/>

<path id="Duplicate_Items_Folder_fdnd4545466_0_Layer2_0_MEMBER_7_1_STROKES" stroke="#000000" stroke-width="2" stroke-linejoin="miter" stroke-linecap="butt" stroke-miterlimit="4" fill="none" d="
M 80.15 28.25
L 83.6 28.85
Q 88.15 29.45 93.35 29.5 109.95 29.7 127.2 24.5 124.35 21.1 119.1 17.65 108.7 10.8 97 10.8 85.3 10.8 75.5 17.5 72.45 19.6 69.95 22.1
L 68.05 24.2 80.15 28.25 Z"/>

<path id="Duplicate_Items_Folder_fdnd4545466_0_Layer2_0_MEMBER_8_1_STROKES" stroke="#000000" stroke-width="2" stroke-linejoin="miter" stroke-linecap="butt" stroke-miterlimit="4" fill="none" d="
M 95.75 29.25
Q 86.4 23.5 76.25 18.8 55.9 9.5 51.75 15.05 47.9 20.25 58.25 24 69.7 28.2 95.75 29.25 Z"/>

<path id="Duplicate_Items_Folder_fdnd4545466_0_Layer2_0_MEMBER_9_1_STROKES" stroke="#000000" stroke-width="2" stroke-linejoin="miter" stroke-linecap="round" stroke-miterlimit="4" fill="none" d="
M 41.75 127.9
Q 41.85 126.9 42.3 125.9 43.2 123.95 44.9 124 51.45 124.25 56.15 122.6 66.45 119 72.35 107.5"/>

<path id="Duplicate_Items_Folder_fdnd4545466_0_Layer2_0_MEMBER_10_1_STROKES" stroke="#000000" stroke-width="1" stroke-linejoin="miter" stroke-linecap="round" stroke-miterlimit="4" fill="none" d="
M 42.55 125.45
L 44.1 124.55
Q 46.45 124.35 50.15 127.9 57.15 134.5 59.55 136.05 65.75 140 74 139.85 81.9 139.75 88.85 132.8 91 130.6 92.8 128
L 94.2 125.85"/>

<path id="Duplicate_Items_Folder_fdnd4545466_0_Layer2_0_MEMBER_11_1_STROKES" stroke="#000000" stroke-width="1" stroke-linejoin="miter" stroke-linecap="round" stroke-miterlimit="4" fill="none" d="
M 69 112.9
Q 64.6 115.6 57.95 116.95 44.7 119.65 33.65 112.8 22.55 105.95 20.2 98.05 18.5 92.4 21.35 87.2"/>

<path id="Duplicate_Items_Folder_fdnd4545466_0_Layer2_0_MEMBER_14_1_STROKES" stroke="#000000" stroke-width="2" stroke-linejoin="miter" stroke-linecap="round" stroke-miterlimit="4" fill="none" d="
M 18.45 82.35
Q 17.8 80.15 17.8 77.9 17.8 73.45 21 73.3 24.45 73.15 24.85 75.9 25.1 77.85 23.8 82.1
L 18.45 82.35 Z"/>

<path id="Duplicate_Items_Folder_fdnd4545466_0_Layer2_0_MEMBER_15_MEMBER_1_1_STROKES" stroke="#000000" stroke-width="2" stroke-linejoin="miter" stroke-linecap="round" stroke-miterlimit="4" fill="none" d="
M 12.7 89.6
Q 12.65 86.8 13.65 84.05 15.7 78.5 21.25 78.6 24.4 78.65 26.6 80.85 28.6 82.8 29.1 85.65 29.65 88.5 28.35 90.7 26.95 93.1 23.85 93.6 23 93.65 22 93.45 19.95 93 19.25 91.6"/>

<path id="Duplicate_Items_Folder_fdnd4545466_0_Layer2_0_MEMBER_16_1_STROKES" stroke="#000000" stroke-width="2" stroke-linejoin="miter" stroke-linecap="round" stroke-miterlimit="4" fill="none" d="
M 151.7 127.9
Q 151.6 126.9 151.15 125.9 150.25 123.95 148.55 124 141.95 124.25 137.25 122.6 127 119 121.1 107.5"/>

<path id="Duplicate_Items_Folder_fdnd4545466_0_Layer2_0_MEMBER_17_1_STROKES" stroke="#000000" stroke-width="1" stroke-linejoin="miter" stroke-linecap="round" stroke-miterlimit="4" fill="none" d="
M 150.9 125.45
Q 150.5 124.65 149.35 124.55 147 124.35 143.3 127.9 136.2 134.6 133.85 136.05 127.65 140 119.45 139.85 111.6 139.75 104.65 132.8 102.45 130.6 100.65 128
L 99.25 125.85"/>

<path id="Duplicate_Items_Folder_fdnd4545466_0_Layer2_0_MEMBER_18_1_STROKES" stroke="#000000" stroke-width="1" stroke-linejoin="miter" stroke-linecap="round" stroke-miterlimit="4" fill="none" d="
M 124.45 112.9
L 127.5 114.4
Q 131.35 116.1 135.5 116.95 148.75 119.65 159.8 112.8 170.9 105.95 173.25 98.05 174.95 92.4 172.1 87.2"/>

<path id="Duplicate_Items_Folder_fdnd4545466_0_Layer2_0_MEMBER_19_1_STROKES" stroke="#000000" stroke-width="2" stroke-linejoin="miter" stroke-linecap="round" stroke-miterlimit="4" fill="none" d="
M 175 82.35
Q 175.65 80.15 175.65 77.9 175.65 73.45 172.45 73.3 169 73.15 168.6 75.9 168.35 77.85 169.65 82.1
L 175 82.35 Z"/>

<path id="Duplicate_Items_Folder_fdnd4545466_0_Layer2_0_MEMBER_23_MEMBER_1_1_STROKES" stroke="#000000" stroke-width="2" stroke-linejoin="miter" stroke-linecap="round" stroke-miterlimit="4" fill="none" d="
M 180.75 89.6
Q 180.8 86.8 179.8 84.05 177.7 78.5 172.2 78.6 169.05 78.65 166.85 80.85 164.85 82.8 164.3 85.65 163.8 88.5 165.1 90.7 166.5 93.1 169.6 93.6
L 171.45 93.45
Q 173.5 93 174.2 91.6"/>

<path id="Duplicate_Items_Folder_fdnd4545466_0_Layer2_0_MEMBER_24_1_STROKES" stroke="#000000" stroke-width="2" stroke-linejoin="miter" stroke-linecap="round" stroke-miterlimit="4" fill="none" d="
M 81.2 61.65
L 83.9 63.4
Q 87.4 65.35 91.2 66.35 103.35 69.45 114.15 61.65"/>
</defs>

<g transform="matrix( 0.3499755859375, 0, 0, 0.3499755859375, 32,30) ">
<g transform="matrix( 1, 0, 0, 1, -96.75,-76.25) ">
<use xlink:href="#Duplicate_Items_Folder_fdnd4545466_0_Layer2_0_MEMBER_0_FILL"/>
</g>

<g transform="matrix( 1, 0, 0, 1, -96.75,-62.5) ">
<mask id="Mask_Mask_1">
<g transform="matrix( 1, 0, 0, 1, 0,0) ">
<use xlink:href="#Mask_Duplicate_Items_Folder__Clip_Group__copy_0_2_MASK_0_FILL"/>
</g>
</mask>

<g mask="url(#Mask_Mask_1)">
<g transform="matrix( 1, 0, 0, 1, 0,0) ">
<use xlink:href="#Duplicate_Items_Folder__Clip_Group__copy_0_Layer2_0_FILL"/>
</g>

<g transform="matrix( 1, 0, 0, 1, 0,0) ">
<use xlink:href="#Duplicate_Items_Folder__Clip_Group__copy_0_Layer2_1_FILL"/>
</g>

<g transform="matrix( 1, 0, 0, 1, 0,0) ">
<use xlink:href="#Duplicate_Items_Folder__Clip_Group__copy_0_Layer2_2_FILL"/>
</g>

<g transform="matrix( 1, 0, 0, 1, 0,0) ">
<use xlink:href="#Duplicate_Items_Folder__Clip_Group__copy_0_Layer2_3_FILL"/>
</g>
</g>
</g>

<g transform="matrix( 1, 0, 0, 1, -96.75,-76.25) ">
<use xlink:href="#Duplicate_Items_Folder_fdnd4545466_0_Layer2_0_MEMBER_2_1_STROKES"/>
</g>

<g transform="matrix( 1, 0, 0, 1, -96.75,-76.25) ">
<use xlink:href="#Duplicate_Items_Folder_fdnd4545466_0_Layer2_0_MEMBER_3_FILL"/>

<use xlink:href="#Duplicate_Items_Folder_fdnd4545466_0_Layer2_0_MEMBER_3_1_STROKES"/>
</g>

<g transform="matrix( 1, 0, 0, 1, -96.75,-76.25) ">
<use xlink:href="#Duplicate_Items_Folder_fdnd4545466_0_Layer2_0_MEMBER_4_FILL"/>
</g>

<g transform="matrix( 1, 0, 0, 1, -96.75,-76.25) ">
<use xlink:href="#Duplicate_Items_Folder_fdnd4545466_0_Layer2_0_MEMBER_5_FILL"/>
</g>

<g transform="matrix( 1, 0, 0, 1, -96.75,-76.25) ">
<use xlink:href="#Duplicate_Items_Folder_fdnd4545466_0_Layer2_0_MEMBER_6_FILL"/>

<use xlink:href="#Duplicate_Items_Folder_fdnd4545466_0_Layer2_0_MEMBER_6_1_STROKES"/>
</g>

<g transform="matrix( 1, 0, 0, 1, -96.75,-76.25) ">
<use xlink:href="#Duplicate_Items_Folder_fdnd4545466_0_Layer2_0_MEMBER_7_1_STROKES"/>
</g>

<g transform="matrix( 1, 0, 0, 1, -96.75,-76.25) ">
<use xlink:href="#Duplicate_Items_Folder_fdnd4545466_0_Layer2_0_MEMBER_8_FILL"/>

<use xlink:href="#Duplicate_Items_Folder_fdnd4545466_0_Layer2_0_MEMBER_8_1_STROKES"/>
</g>

<g transform="matrix( 1, 0, 0, 1, -96.75,-76.25) ">
<use xlink:href="#Duplicate_Items_Folder_fdnd4545466_0_Layer2_0_MEMBER_9_1_STROKES"/>
</g>

<g transform="matrix( 1, 0, 0, 1, -96.75,-76.25) ">
<use xlink:href="#Duplicate_Items_Folder_fdnd4545466_0_Layer2_0_MEMBER_10_1_STROKES"/>
</g>

<g transform="matrix( 1, 0, 0, 1, -96.75,-76.25) ">
<use xlink:href="#Duplicate_Items_Folder_fdnd4545466_0_Layer2_0_MEMBER_11_1_STROKES"/>
</g>

<g transform="matrix( 1, 0, 0, 1, -96.75,-76.25) ">
<use xlink:href="#Duplicate_Items_Folder_fdnd4545466_0_Layer2_0_MEMBER_12_FILL"/>
</g>

<g transform="matrix( 1, 0, 0, 1, -96.75,-76.25) ">
<use xlink:href="#Duplicate_Items_Folder_fdnd4545466_0_Layer2_0_MEMBER_13_MEMBER_0_FILL"/>
</g>

<g transform="matrix( 1, 0, 0, 1, -96.75,-76.25) ">
<use xlink:href="#Duplicate_Items_Folder_fdnd4545466_0_Layer2_0_MEMBER_14_FILL"/>

<use xlink:href="#Duplicate_Items_Folder_fdnd4545466_0_Layer2_0_MEMBER_14_1_STROKES"/>
</g>

<g transform="matrix( 1, 0, 0, 1, -96.75,-76.25) ">
<use xlink:href="#Duplicate_Items_Folder_fdnd4545466_0_Layer2_0_MEMBER_15_MEMBER_0_FILL"/>
</g>

<g transform="matrix( 1, 0, 0, 1, -96.75,-76.25) ">
<use xlink:href="#Duplicate_Items_Folder_fdnd4545466_0_Layer2_0_MEMBER_15_MEMBER_1_1_STROKES"/>
</g>

<g transform="matrix( 1, 0, 0, 1, -96.75,-76.25) ">
<use xlink:href="#Duplicate_Items_Folder_fdnd4545466_0_Layer2_0_MEMBER_16_1_STROKES"/>
</g>

<g transform="matrix( 1, 0, 0, 1, -96.75,-76.25) ">
<use xlink:href="#Duplicate_Items_Folder_fdnd4545466_0_Layer2_0_MEMBER_17_1_STROKES"/>
</g>

<g transform="matrix( 1, 0, 0, 1, -96.75,-76.25) ">
<use xlink:href="#Duplicate_Items_Folder_fdnd4545466_0_Layer2_0_MEMBER_18_1_STROKES"/>
</g>

<g transform="matrix( 1, 0, 0, 1, -96.75,-76.25) ">
<use xlink:href="#Duplicate_Items_Folder_fdnd4545466_0_Layer2_0_MEMBER_19_FILL"/>

<use xlink:href="#Duplicate_Items_Folder_fdnd4545466_0_Layer2_0_MEMBER_19_1_STROKES"/>
</g>

<g transform="matrix( 1, 0, 0, 1, -96.75,-76.25) ">
<use xlink:href="#Duplicate_Items_Folder_fdnd4545466_0_Layer2_0_MEMBER_20_FILL"/>
</g>

<g transform="matrix( 1, 0, 0, 1, -96.75,-76.25) ">
<use xlink:href="#Duplicate_Items_Folder_fdnd4545466_0_Layer2_0_MEMBER_21_MEMBER_0_FILL"/>
</g>

<g transform="matrix( 1, 0, 0, 1, -96.75,-76.25) ">
<use xlink:href="#Duplicate_Items_Folder_fdnd4545466_0_Layer2_0_MEMBER_22_FILL"/>
</g>

<g transform="matrix( 1, 0, 0, 1, -96.75,-76.25) ">
<use xlink:href="#Duplicate_Items_Folder_fdnd4545466_0_Layer2_0_MEMBER_23_MEMBER_0_FILL"/>
</g>

<g transform="matrix( 1, 0, 0, 1, -96.75,-76.25) ">
<use xlink:href="#Duplicate_Items_Folder_fdnd4545466_0_Layer2_0_MEMBER_23_MEMBER_1_1_STROKES"/>
</g>

<g transform="matrix( 1, 0, 0, 1, -96.75,-76.25) ">
<use xlink:href="#Duplicate_Items_Folder_fdnd4545466_0_Layer2_0_MEMBER_24_1_STROKES"/>
</g>

<g transform="matrix( 1, 0, 0, 1, -96.75,-76.25) ">
<use xlink:href="#Duplicate_Items_Folder_fdnd4545466_0_Layer2_0_MEMBER_25_FILL"/>
</g>
</g>
</svg>
