
<svg xmlns="http://www.w3.org/2000/svg" version="1.1" xmlns:xlink="http://www.w3.org/1999/xlink" preserveAspectRatio="none" x="0px" y="0px" width="1280px" height="130px" viewBox="0 0 1280 130">
<defs>
<g id="Layer0_0_FILL">
<path fill="#7A94C2" stroke="none" d="
M 83.6 746.5
L 83.6 765.55
Q 83.6 775.55 93.6 775.55
L 138.65 775.55
Q 148.65 775.55 148.65 765.55
L 148.65 746.5
Q 148.65 736.5 138.65 736.5
L 93.6 736.5
Q 83.6 736.5 83.6 746.5
M 119.85 747.3
Q 119.95 747.1 120.2 746.95 120.35 746.85 120.55 746.8 120.8 746.7 121.05 746.7 121.3 746.65 121.6 746.65 121.95 746.65 122.35 746.65
L 127.5 746.65
Q 127.8 746.65 128 746.7 128.2 746.75 128.3 746.85 128.4 746.95 128.45 747.2 128.5 747.5 128.5 747.9 128.5 748.2 128.45 748.45 128.4 748.7 128.3 748.85 128.2 749 128 749.05 127.8 749.1 127.5 749.1
L 122.35 749.1 122.35 752
Q 122.35 752.32265625 122.35 752.45 123.1 752.45 123.85 752.4 124.65 752.4 125.45 752.3 126.25 752.25 127 752.15 127.75 752.1 128.5 751.95 128.6 751.95 128.7 751.95 128.85 751.95 128.95 751.95 129.1 751.95 129.15 751.95 129.25 752 129.35 752 129.35 752.05 129.45 752.15 129.45 752.2 129.55 752.3 129.6 752.4 129.6 752.55 129.65 752.7 129.7 752.9 129.8 753.25 129.8 753.5 129.8 753.75 129.7 753.95 129.45 754.3 128.8 754.35 128 754.5 127.2 754.6 126.4 754.7 125.6 754.75 124.8 754.85 124 754.9 123.2 754.95 122.35 755 121.95 755 121.6 754.95 121.3 754.95 121.05 754.95 120.8 754.9 120.55 754.85 120.35 754.8 120.2 754.65 119.95 754.55 119.85 754.4 119.7 754.25 119.65 754 119.5 753.55 119.5 752.75
L 119.5 748.95
Q 119.5 748.55 119.55 748.25 119.6 747.95 119.65 747.7 119.7 747.45 119.85 747.3
M 111.5 745.85
Q 111.9 745.85 112.35 746.05 112.55 746.15 112.7 746.35 112.8 746.55 112.8 746.85
L 112.8 752.85 114.55 752.85
Q 114.9 752.85 115.1 752.95 115.35 753.05 115.45 753.2 115.55 753.4 115.6 753.65 115.7 753.85 115.7 754.1 115.7 754.35 115.6 754.55 115.55 754.8 115.45 755 115.35 755.2 115.1 755.3 114.9 755.4 114.55 755.4
L 112.8 755.4 112.8 764.6
Q 112.8 764.9 112.7 765.05 112.55 765.3 112.35 765.35 111.9 765.55 111.5 765.55 111.2 765.55 110.95 765.5 110.75 765.45 110.55 765.35 110.35 765.3 110.25 765.05 110.15 764.9 110.15 764.6
L 110.15 746.85
Q 110.15 746.55 110.25 746.35 110.35 746.15 110.55 746.05 110.75 745.95 110.95 745.9 111.2 745.85 111.5 745.85
M 108.15 748.15
Q 108.25 748.3 108.3 748.45 108.35 748.6 108.35 748.8 108.35 748.95 108.4 749.2 108.4 749.4 108.4 749.6 108.4 750.35 108.35 751.05 108.3 751.8 108.2 752.5 108.1 753.2 107.95 753.9 107.8 754.55 107.55 755.25 107.4 755.9 107.15 756.5 106.95 757.1 106.6 757.7 106.3 758.3 105.9 758.8 105.55 759.35 105.1 759.85 105 760 104.8 760.1 104.65 760.15 104.4 760.1 104.2 760.1 103.95 760 103.75 759.95 103.5 759.8 103.35 759.7 103.2 759.5 103.1 759.35 103 759.1 102.9 758.9 102.95 758.65 103 758.45 103.15 758.2 103.45 757.8 103.75 757.4 104 756.95 104.25 756.5 104.45 756.05 104.6 755.55 104.8 755.05 104.9 754.5 105.05 754 105.15 753.45 105.3 752.9 105.35 752.35 105.45 751.8 105.5 751.2 105.55 750.65 105.6 750.05
L 104.55 750.05
Q 104.25 750.05 104.05 749.95 103.85 749.9 103.75 749.7 103.55 749.5 103.5 749.3 103.45 749.1 103.45 748.85 103.45 748.55 103.5 748.35 103.55 748.1 103.75 747.95 103.85 747.75 104.05 747.65 104.25 747.55 104.55 747.55
L 106.5 747.55
Q 106.8 747.55 107.05 747.6 107.35 747.65 107.5 747.7 107.7 747.8 107.85 747.9 108 748 108.15 748.15
M 101.7 747.6
Q 101.95 747.65 102.15 747.7 102.3 747.8 102.5 747.9 102.65 748 102.8 748.15 103 748.4 103.05 748.75 103.05 748.95 103.05 749.15 103.1 749.4 103.1 749.6 103.1 750.15 103.05 750.75 103 751.3 102.9 751.95 102.8 752.6 102.65 753.25 102.5 753.9 102.3 754.5 102.15 755.15 101.9 755.75 101.65 756.35 101.3 756.9 100.95 757.45 100.55 757.9 100.2 758.3 99.7 758.65 99.6 758.7 99.45 758.75 99.3 758.8 99.05 758.75 98.85 758.75 98.65 758.65 98.4 758.5 98.2 758.3
L 98.25 758.3
Q 98.1 758.15 98 757.95 97.9 757.75 97.9 757.55 97.9 757.3 98 757.1 98.05 756.9 98.25 756.7 98.55 756.4 98.8 756.1 99.05 755.75 99.25 755.4 99.4 755 99.55 754.6 99.7 754.2 99.8 753.75 99.95 753.35 100.05 752.9 100.15 752.45 100.2 751.95 100.3 751.5 100.35 751 100.4 750.55 100.45 750.05
L 98.9 750.05
Q 98.65 750.05 98.45 749.95 98.3 749.85 98.15 749.65 98.05 749.5 97.95 749.25 97.9 749.05 97.9 748.8 97.9 748.55 97.95 748.35 98.05 748.1 98.15 747.95 98.3 747.75 98.45 747.65 98.65 747.55 98.9 747.55
L 101.1 747.55
Q 101.4 747.55 101.7 747.6
M 121.3 757.35
Q 121.3 757.1 121.35 756.9 121.45 756.65 121.55 756.45 121.65 756.3 121.85 756.2 122.05 756.15 122.35 756.15
L 125.45 756.15
Q 125.85 756.15 126.15 756.25 126.5 756.3 126.8 756.5 127.1 756.7 127.3 757 127.45 757.3 127.45 757.7
L 127.45 760.1
Q 127.45 760.55 127.3 760.85 127.1 761.15 126.8 761.35 126.5 761.55 126.15 761.65 125.85 761.75 125.45 761.75
L 123.55 761.75 123.55 762.85
Q 124 762.85 124.4 762.85 124.8 762.8 125.2 762.75 125.55 762.75 125.95 762.7 126.35 762.65 126.8 762.55 127.1 762.55 127.3 762.6 127.5 762.65 127.65 762.8 127.8 762.95 127.9 763.15 128 763.3 128.05 763.55 128.1 763.8 128.05 764.05 128 764.25 127.9 764.45 127.8 764.6 127.6 764.7 127.35 764.8 127.1 764.85
L 127.2 764.85
Q 126.7 764.9 126.3 764.95 126.05 764.95 125.8 765 125.6 765 125.35 765.05 125.15 765.05 124.9 765.05 124.7 765.1 124.45 765.1 124.2 765.1 123.95 765.1 123.65 765.1 123.3 765.15 123.1 765.15 122.95 765.15 122.75 765.1 122.6 765.1 122.4 765.1 122.25 765.05 122.05 765 121.95 764.95 121.8 764.9 121.65 764.8 121.55 764.7 121.5 764.6 121.35 764.3 121.35 763.9
L 121.35 760.9
Q 121.35 760.5 121.5 760.2 121.6 759.95 121.9 759.75 122.45 759.45 123.3 759.45
L 125.05 759.45 125.05 758.45 122.35 758.45
Q 122.05 758.45 121.85 758.4 121.65 758.3 121.55 758.15 121.45 758 121.35 757.8 121.3 757.65 121.3 757.35
M 131.7 745.8
Q 131.85 745.8 131.95 745.75 132.1 745.75 132.25 745.75 132.5 745.75 132.75 745.8 133 745.85 133.2 745.95 133.6 746.15 133.6 746.75
L 133.6 749.4 135.5 749.4
Q 135.8 749.4 136 749.5 136.2 749.6 136.3 749.75 136.4 750.15 136.4 750.65 136.4 750.9 136.4 751.1 136.35 751.3 136.3 751.5 136.15 751.9 135.5 751.9
L 133.6 751.9 133.6 754.35
Q 133.6 754.65 133.5 754.85 133.4 755.05 133.2 755.15 133 755.25 132.75 755.3 132.5 755.35 132.25 755.35 132.1 755.35 131.95 755.35 131.85 755.3 131.7 755.3 131.6 755.3 131.45 755.25 131.35 755.2 131.25 755.15 131.15 755.1 131.05 755 131 754.9 130.95 754.8 130.85 754.7 130.85 754.6 130.8 754.5 130.8 754.35
L 130.8 746.75
Q 130.8 746.6 130.85 746.5 130.85 746.35 130.95 746.25 131 746.15 131.05 746.1 131.15 746 131.25 745.95 131.35 745.9 131.45 745.85 131.6 745.85 131.7 745.8
M 128.55 756.45
Q 128.65 756.3 128.85 756.2 129.05 756.15 129.35 756.15
L 131.9 756.15
Q 132.3 756.15 132.6 756.25 132.95 756.4 133.15 756.6 133.35 756.85 133.5 757.2 133.6 757.5 133.6 757.9
L 133.6 764.1
Q 133.6 764.35 133.5 764.55 133.35 764.7 133.2 764.85 133 765 132.75 765.05 132.5 765.15 132.25 765.15 132.05 765.15 131.8 765.05 131.6 765 131.4 764.85 130.95 764.6 130.95 764.1
L 130.95 758.55 129.35 758.55
Q 129.05 758.55 128.85 758.5 128.65 758.4 128.55 758.2 128.45 758.05 128.4 757.85 128.35 757.65 128.35 757.35 128.35 757.1 128.4 756.9 128.45 756.65 128.55 756.45 Z"/>

<path fill="#FFFFFF" stroke="none" d="
M 128.85 756.2
Q 128.65 756.3 128.55 756.45 128.45 756.65 128.4 756.9 128.35 757.1 128.35 757.35 128.35 757.65 128.4 757.85 128.45 758.05 128.55 758.2 128.65 758.4 128.85 758.5 129.05 758.55 129.35 758.55
L 130.95 758.55 130.95 764.1
Q 130.95 764.6 131.4 764.85 131.6 765 131.8 765.05 132.05 765.15 132.25 765.15 132.5 765.15 132.75 765.05 133 765 133.2 764.85 133.35 764.7 133.5 764.55 133.6 764.35 133.6 764.1
L 133.6 757.9
Q 133.6 757.5 133.5 757.2 133.35 756.85 133.15 756.6 132.95 756.4 132.6 756.25 132.3 756.15 131.9 756.15
L 129.35 756.15
Q 129.05 756.15 128.85 756.2
M 131.95 745.75
Q 131.85 745.8 131.7 745.8 131.6 745.85 131.45 745.85 131.35 745.9 131.25 745.95 131.15 746 131.05 746.1 131 746.15 130.95 746.25 130.85 746.35 130.85 746.5 130.8 746.6 130.8 746.75
L 130.8 754.35
Q 130.8 754.5 130.85 754.6 130.85 754.7 130.95 754.8 131 754.9 131.05 755 131.15 755.1 131.25 755.15 131.35 755.2 131.45 755.25 131.6 755.3 131.7 755.3 131.85 755.3 131.95 755.35 132.1 755.35 132.25 755.35 132.5 755.35 132.75 755.3 133 755.25 133.2 755.15 133.4 755.05 133.5 754.85 133.6 754.65 133.6 754.35
L 133.6 751.9 135.5 751.9
Q 136.15 751.9 136.3 751.5 136.35 751.3 136.4 751.1 136.4 750.9 136.4 750.65 136.4 750.15 136.3 749.75 136.2 749.6 136 749.5 135.8 749.4 135.5 749.4
L 133.6 749.4 133.6 746.75
Q 133.6 746.15 133.2 745.95 133 745.85 132.75 745.8 132.5 745.75 132.25 745.75 132.1 745.75 131.95 745.75
M 121.35 756.9
Q 121.3 757.1 121.3 757.35 121.3 757.65 121.35 757.8 121.45 758 121.55 758.15 121.65 758.3 121.85 758.4 122.05 758.45 122.35 758.45
L 125.05 758.45 125.05 759.45 123.3 759.45
Q 122.45 759.45 121.9 759.75 121.6 759.95 121.5 760.2 121.35 760.5 121.35 760.9
L 121.35 763.9
Q 121.35 764.3 121.5 764.6 121.55 764.7 121.65 764.8 121.8 764.9 121.95 764.95 122.05 765 122.25 765.05 122.4 765.1 122.6 765.1 122.75 765.1 122.95 765.15 123.1 765.15 123.3 765.15 123.65 765.1 123.95 765.1 124.2 765.1 124.45 765.1 124.7 765.1 124.9 765.05 125.15 765.05 125.35 765.05 125.6 765 125.8 765 126.05 764.95 126.3 764.95 126.7 764.9 127.2 764.85
L 127.1 764.85
Q 127.35 764.8 127.6 764.7 127.8 764.6 127.9 764.45 128 764.25 128.05 764.05 128.1 763.8 128.05 763.55 128 763.3 127.9 763.15 127.8 762.95 127.65 762.8 127.5 762.65 127.3 762.6 127.1 762.55 126.8 762.55 126.35 762.65 125.95 762.7 125.55 762.75 125.2 762.75 124.8 762.8 124.4 762.85 124 762.85 123.55 762.85
L 123.55 761.75 125.45 761.75
Q 125.85 761.75 126.15 761.65 126.5 761.55 126.8 761.35 127.1 761.15 127.3 760.85 127.45 760.55 127.45 760.1
L 127.45 757.7
Q 127.45 757.3 127.3 757 127.1 756.7 126.8 756.5 126.5 756.3 126.15 756.25 125.85 756.15 125.45 756.15
L 122.35 756.15
Q 122.05 756.15 121.85 756.2 121.65 756.3 121.55 756.45 121.45 756.65 121.35 756.9
M 102.15 747.7
Q 101.95 747.65 101.7 747.6 101.4 747.55 101.1 747.55
L 98.9 747.55
Q 98.65 747.55 98.45 747.65 98.3 747.75 98.15 747.95 98.05 748.1 97.95 748.35 97.9 748.55 97.9 748.8 97.9 749.05 97.95 749.25 98.05 749.5 98.15 749.65 98.3 749.85 98.45 749.95 98.65 750.05 98.9 750.05
L 100.45 750.05
Q 100.4 750.55 100.35 751 100.3 751.5 100.2 751.95 100.15 752.45 100.05 752.9 99.95 753.35 99.8 753.75 99.7 754.2 99.55 754.6 99.4 755 99.25 755.4 99.05 755.75 98.8 756.1 98.55 756.4 98.25 756.7 98.05 756.9 98 757.1 97.9 757.3 97.9 757.55 97.9 757.75 98 757.95 98.1 758.15 98.25 758.3
L 98.2 758.3
Q 98.4 758.5 98.65 758.65 98.85 758.75 99.05 758.75 99.3 758.8 99.45 758.75 99.6 758.7 99.7 758.65 100.2 758.3 100.55 757.9 100.95 757.45 101.3 756.9 101.65 756.35 101.9 755.75 102.15 755.15 102.3 754.5 102.5 753.9 102.65 753.25 102.8 752.6 102.9 751.95 103 751.3 103.05 750.75 103.1 750.15 103.1 749.6 103.1 749.4 103.05 749.15 103.05 748.95 103.05 748.75 103 748.4 102.8 748.15 102.65 748 102.5 747.9 102.3 747.8 102.15 747.7
M 108.3 748.45
Q 108.25 748.3 108.15 748.15 108 748 107.85 747.9 107.7 747.8 107.5 747.7 107.35 747.65 107.05 747.6 106.8 747.55 106.5 747.55
L 104.55 747.55
Q 104.25 747.55 104.05 747.65 103.85 747.75 103.75 747.95 103.55 748.1 103.5 748.35 103.45 748.55 103.45 748.85 103.45 749.1 103.5 749.3 103.55 749.5 103.75 749.7 103.85 749.9 104.05 749.95 104.25 750.05 104.55 750.05
L 105.6 750.05
Q 105.55 750.65 105.5 751.2 105.45 751.8 105.35 752.35 105.3 752.9 105.15 753.45 105.05 754 104.9 754.5 104.8 755.05 104.6 755.55 104.45 756.05 104.25 756.5 104 756.95 103.75 757.4 103.45 757.8 103.15 758.2 103 758.45 102.95 758.65 102.9 758.9 103 759.1 103.1 759.35 103.2 759.5 103.35 759.7 103.5 759.8 103.75 759.95 103.95 760 104.2 760.1 104.4 760.1 104.65 760.15 104.8 760.1 105 760 105.1 759.85 105.55 759.35 105.9 758.8 106.3 758.3 106.6 757.7 106.95 757.1 107.15 756.5 107.4 755.9 107.55 755.25 107.8 754.55 107.95 753.9 108.1 753.2 108.2 752.5 108.3 751.8 108.35 751.05 108.4 750.35 108.4 749.6 108.4 749.4 108.4 749.2 108.35 748.95 108.35 748.8 108.35 748.6 108.3 748.45
M 112.35 746.05
Q 111.9 745.85 111.5 745.85 111.2 745.85 110.95 745.9 110.75 745.95 110.55 746.05 110.35 746.15 110.25 746.35 110.15 746.55 110.15 746.85
L 110.15 764.6
Q 110.15 764.9 110.25 765.05 110.35 765.3 110.55 765.35 110.75 765.45 110.95 765.5 111.2 765.55 111.5 765.55 111.9 765.55 112.35 765.35 112.55 765.3 112.7 765.05 112.8 764.9 112.8 764.6
L 112.8 755.4 114.55 755.4
Q 114.9 755.4 115.1 755.3 115.35 755.2 115.45 755 115.55 754.8 115.6 754.55 115.7 754.35 115.7 754.1 115.7 753.85 115.6 753.65 115.55 753.4 115.45 753.2 115.35 753.05 115.1 752.95 114.9 752.85 114.55 752.85
L 112.8 752.85 112.8 746.85
Q 112.8 746.55 112.7 746.35 112.55 746.15 112.35 746.05
M 120.2 746.95
Q 119.95 747.1 119.85 747.3 119.7 747.45 119.65 747.7 119.6 747.95 119.55 748.25 119.5 748.55 119.5 748.95
L 119.5 752.75
Q 119.5 753.55 119.65 754 119.7 754.25 119.85 754.4 119.95 754.55 120.2 754.65 120.35 754.8 120.55 754.85 120.8 754.9 121.05 754.95 121.3 754.95 121.6 754.95 121.95 755 122.35 755 123.2 754.95 124 754.9 124.8 754.85 125.6 754.75 126.4 754.7 127.2 754.6 128 754.5 128.8 754.35 129.45 754.3 129.7 753.95 129.8 753.75 129.8 753.5 129.8 753.25 129.7 752.9 129.65 752.7 129.6 752.55 129.6 752.4 129.55 752.3 129.45 752.2 129.45 752.15 129.35 752.05 129.35 752 129.25 752 129.15 751.95 129.1 751.95 128.95 751.95 128.85 751.95 128.7 751.95 128.6 751.95 128.5 751.95 127.75 752.1 127 752.15 126.25 752.25 125.45 752.3 124.65 752.4 123.85 752.4 123.1 752.45 122.35 752.45 122.35 752.32265625 122.35 752
L 122.35 749.1 127.5 749.1
Q 127.8 749.1 128 749.05 128.2 749 128.3 748.85 128.4 748.7 128.45 748.45 128.5 748.2 128.5 747.9 128.5 747.5 128.45 747.2 128.4 746.95 128.3 746.85 128.2 746.75 128 746.7 127.8 746.65 127.5 746.65
L 122.35 746.65
Q 121.95 746.65 121.6 746.65 121.3 746.65 121.05 746.7 120.8 746.7 120.55 746.8 120.35 746.85 120.2 746.95 Z"/>
</g>

<path id="Layer0_0_1_STROKES" stroke="#CCCCCC" stroke-width="3" stroke-linejoin="round" stroke-linecap="round" fill="none" d="
M 157.45 840.6
L 1196.4 840.6
M 157.45 780.6
L 1196.4 780.6"/>
</defs>

<g transform="matrix( 1, 0, 0, 1, 0,-720.6) ">
<use xlink:href="#Layer0_0_FILL"/>

<use xlink:href="#Layer0_0_1_STROKES"/>
</g>
</svg>
