
<svg xmlns="http://www.w3.org/2000/svg" version="1.1" xmlns:xlink="http://www.w3.org/1999/xlink" preserveAspectRatio="none" x="0px" y="0px" width="1280px" height="720px" viewBox="0 0 1280 720">
<defs>
<g id="Mask_Symbol_2_1_2_MASK_0_FILL">
<path fill="#FFFFFF" stroke="none" d="
M 495.9 -215.4
Q 495.9 -230.4 480.9 -230.4
L -480.9 -230.4
Q -495.9 -230.4 -495.9 -215.4
L -495.9 215.45
Q -495.9 230.45 -480.9 230.45
L 480.9 230.45
Q 495.9 230.45 495.9 215.45
L 495.9 -215.4 Z"/>
</g>

<g id="Symbol_2_1_Layer1_0_FILL">
<path fill="#3567D7" stroke="none" d="
M -280.5 36.55
L -97.25 36.55 -190.75 -179.95 -280.5 36.55 Z"/>
</g>

<g id="Symbol_2_1_Layer1_1_FILL">
<path fill="#3567D7" stroke="none" d="
M 430.75 77
L 339 104.5 355.5 198.25 430.75 77
M 144.4 63.9
L 236.95 41.75 122.4 -29 144.4 63.9
M 209.85 133.35
L 236.95 41.75 144.4 63.9 209.85 133.35
M 307.35 -24
L 215.1 -51.35 236.95 41.75 307.35 -24 Z"/>
</g>

<path id="Symbol_2_1_Layer1_0_1_STROKES" stroke="#1E1E1E" stroke-width="1" stroke-linejoin="round" stroke-linecap="round" fill="none" d="
M -280.5 36.55
L -97.25 36.55 -190.75 -179.95 -280.5 36.55 Z"/>

<path id="Symbol_2_1_Layer1_1_1_STROKES" stroke="#1E1E1E" stroke-width="1" stroke-linejoin="round" stroke-linecap="round" fill="none" d="
M 236.95 41.75
L 307.35 -24 215.1 -51.35 236.95 41.75 122.4 -29 144.4 63.9 236.95 41.75 209.85 133.35 144.4 63.9
M 339 104.5
L 430.75 77 355.5 198.25 339 104.5 Z"/>
</defs>

<g transform="matrix( 1, 0, 0, 1, 640,400.4) ">
<mask id="Mask_Mask_1">
<g transform="matrix( 1, 0, 0, 1, 0,0) ">
<use xlink:href="#Mask_Symbol_2_1_2_MASK_0_FILL"/>
</g>
</mask>

<g mask="url(#Mask_Mask_1)"/>

<g mask="url(#Mask_Mask_1)">
<g transform="matrix( 1, 0, 0, 1, -24,0) ">
<use xlink:href="#Symbol_2_1_Layer1_0_FILL"/>

<use xlink:href="#Symbol_2_1_Layer1_0_1_STROKES"/>
</g>

<g transform="matrix( 1, 0, 0, 1, -81,0) ">
<use xlink:href="#Symbol_2_1_Layer1_1_FILL"/>

<use xlink:href="#Symbol_2_1_Layer1_1_1_STROKES"/>
</g>
</g>
</g>
</svg>
