
<svg xmlns="http://www.w3.org/2000/svg" version="1.1" xmlns:xlink="http://www.w3.org/1999/xlink" preserveAspectRatio="none" x="0px" y="0px" width="1280px" height="720px" viewBox="0 0 1280 720">
<defs>
<path id="Layer0_0_1_STROKES" stroke="#1E1E1E" stroke-width="2" stroke-linejoin="round" stroke-linecap="round" fill="none" d="
M 712 354.5
L 768.5 340.25 630.15 311.55 712 354.5 824.25 429 793.725 462.225 810.25 484 810.25 625.5 712 354.5 633 403.25 683.075 457.475 683.1 457.5 791.35 573.4 734.75 600 641.5 627.5 627.1 483.2 500.25 541.5 454.5 540.25 454.5 473.25 485.975 460.9 553 359.25 509.25 242.75 591.55 335.4 587.75 262.75 630.15 311.55 633 403.25 553 359.25 591.55 335.4 610.875 323.475 587.75 262.75
M 683.1 457.5
L 734.75 600
M 793.725 462.225
L 712 354.5
M 610.875 323.475
L 630.15 311.55
M 562.25 375.75
L 554 396.25 589.25 388.25 562.25 375.75 Z
M 454.5 473.25
L 500.25 541.5 633 403.25 485.975 460.9
M 627.1 483.2
L 683.075 457.475
M 641.5 627.5
L 683.1 457.5"/>
</defs>

<g transform="matrix( 1, 0, 0, 1, 0.65,-1) ">
<use xlink:href="#Layer0_0_1_STROKES"/>
</g>
</svg>
