<?xml version="1.0" encoding="utf-8"?>
<!-- Generator: Adobe Illustrator 23.1.0, SVG Export Plug-In . SVG Version: 6.00 Build 0)  -->
<svg version="1.1" id="레이어_1" xmlns="http://www.w3.org/2000/svg" xmlns:xlink="http://www.w3.org/1999/xlink" x="0px"
	 y="0px" width="1244px" height="562px" viewBox="0 0 1244 562" style="enable-background:new 0 0 1244 562;" xml:space="preserve">
<g>
	<path style="fill:#EEF3FF;" d="M1242,476.9V93.9c0,0,0-51.3-44.1-51.3H46.1c0,0-44.1,0-44.1,51.3v382.9c0,0,0,51.3,44.1,51.3h57.4
		c4-14.1,16.6-25,33-25c16.4,0,28.9,9.5,33,25h415.9c6.8-15.8,16.6-25,33-25c16.4,0,26.4,9.2,32,25h423c3.8-14.1,14.6-25,31-25
		c16.4,0,27.6,9.2,32,25h61.2C1197.9,528.1,1242,528.1,1242,476.9z"/>
	<g>
		<path style="fill:#C2D4F2;" d="M632.4,535.4c0,7.5-6.1,13.6-13.6,13.6c-7.5,0-13.6-6.1-13.6-13.6s6.1-13.6,13.6-13.6
			C626.2,521.7,632.4,527.8,632.4,535.4 M643.7,535.4c0-13.8-11.2-25-25-25c-13.8,0-25,11.2-25,25c0,13.8,11.2,25,25,25
			C632.5,560.4,643.7,549.2,643.7,535.4"/>
	</g>
	<g>
		<path style="fill:#C2D4F2;" d="M150.3,535.4c0,7.5-6.1,13.6-13.6,13.6c-7.5,0-13.6-6.1-13.6-13.6s6.1-13.6,13.6-13.6
			C144.2,521.7,150.3,527.8,150.3,535.4 M161.6,535.4c0-13.8-11.2-25-25-25c-13.8,0-25,11.2-25,25c0,13.8,11.2,25,25,25
			C150.5,560.4,161.6,549.2,161.6,535.4"/>
	</g>
	<g>
		<path style="fill:#C2D4F2;" d="M1118.8,535.4c0,7.5-6.1,13.6-13.6,13.6c-7.5,0-13.6-6.1-13.6-13.6s6.1-13.6,13.6-13.6
			C1112.7,521.7,1118.8,527.8,1118.8,535.4 M1130.1,535.4c0-13.8-11.2-25-25-25c-13.8,0-25,11.2-25,25c0,13.8,11.2,25,25,25
			C1118.9,560.4,1130.1,549.2,1130.1,535.4"/>
	</g>
	<g>
		<path style="fill:#C2D4F2;" d="M1197.9,41.6H979.2l-2.1-5.7V21.7h-18.6v8.9h-25.6v11H46.1c-0.5,0-11.4,0.1-22.6,6.5
			C13.3,54.2,1,66.9,1,93.9v382.9c0,0.5,0.5,52.3,45.1,52.3h58.1l0.2-0.7c4.1-14.5,17-24.3,32.1-24.3c16,0,28,9.1,32.1,24.3l0.2,0.7
			h417.3l0.3-0.6c7.3-16.9,17.2-24.4,32.1-24.4c15.1,0,25.3,8,31.1,24.3l0.2,0.7h424.4l0.2-0.7c4.1-15.2,15.3-24.3,30.1-24.3
			c15.7,0,26.7,8.6,31.1,24.3l0.2,0.7h62c0.5,0,11.4-0.1,22.6-6.5c10.3-6,22.6-18.8,22.6-45.7V93.9
			C1243,93.4,1242.5,41.6,1197.9,41.6z M963,26.2c0-0.6,0.5-1,1-1h7.7c0.6,0,1,0.5,1,1v12.4c0,0.6-0.5,1-1,1H964c-0.6,0-1-0.5-1-1
			V26.2z M937.8,33.7h20.3c0.6,0,1,0.5,1,1c0,0.6-0.5,1-1,1h-20.3c-0.6,0-1-0.5-1-1C936.8,34.1,937.2,33.7,937.8,33.7z M937.8,37.6
			h20.3c0.6,0,1,0.5,1,1c0,0.6-0.5,1-1,1h-20.3c-0.6,0-1-0.5-1-1C936.8,38,937.2,37.6,937.8,37.6z M1241,476.9
			c0,20.9-7.2,35.6-21.5,44c-10.7,6.2-21.5,6.3-21.6,6.3h-60.5c-4.8-16.1-16.4-25-32.8-25c-15.2,0-27.4,9.6-31.8,25H651.3
			c-6.2-16.8-16.9-25-32.8-25c-15.5,0-26.2,7.9-33.7,25H170.3c-4.5-15.7-17.1-25-33.8-25c-15.7,0-29.2,10-33.8,25H46.1
			c-17.8,0-30.5-8.4-37.7-25C3.1,489.7,3,477,3,476.9V93.9c0-20.9,7.2-35.6,21.5-44c10.7-6.2,21.5-6.3,21.6-6.3h1151.7
			c17.8,0,30.5,8.4,37.7,25c5.4,12.5,5.5,25.2,5.5,25.3V476.9z"/>
		<rect x="965" y="27.3" style="fill:#C2D4F2;" width="5.7" height="10.3"/>
		<rect x="961.5" y="15.1" style="fill:#C2D4F2;" width="12.1" height="4.6"/>
		<path style="fill:#C2D4F2;" d="M951.2,22.1v6.5h5.2V24l-4.6-2.6c4.4-4.5,5.9-11.7,2.4-19.8L932.1,25
			C939.6,27.7,946.7,26.2,951.2,22.1z"/>
		<path style="fill:#C2D4F2;" d="M942.8,7.1c-2.2-0.1-4.3,0.7-6,2.2c-1.6,1.5-2.6,3.6-2.6,5.8c0,0.6,0.5,1.2,1.1,1.2c0,0,0,0,0,0
			c0.6,0,1.2-0.5,1.2-1.1c0.1-1.6,0.7-3.1,1.9-4.2c1.2-1.1,2.7-1.6,4.3-1.6c0.7,0,1.2-0.5,1.2-1.1C944,7.7,943.5,7.2,942.8,7.1
			C942.9,7.1,942.8,7.1,942.8,7.1z"/>
		<path style="fill:#C2D4F2;" d="M930.7,15.8L930.7,15.8c0.6,0,1.2-0.5,1.2-1.1c0.1-2.7,1.2-5.1,3.2-6.9c2-1.8,4.5-2.7,7.2-2.7
			c0.7,0,1.2-0.5,1.2-1.1c0-0.6-0.5-1.2-1.1-1.2c-3.3-0.1-6.4,1-8.8,3.3c-2.4,2.2-3.8,5.3-3.9,8.6C929.6,15.2,930.1,15.7,930.7,15.8
			z"/>
	</g>
</g>
<g>
</g>
<g>
</g>
<g>
</g>
<g>
</g>
<g>
</g>
<g>
</g>
<g>
</g>
<g>
</g>
<g>
</g>
<g>
</g>
<g>
</g>
<g>
</g>
<g>
</g>
<g>
</g>
<g>
</g>
</svg>
