
<svg xmlns="http://www.w3.org/2000/svg" version="1.1" xmlns:xlink="http://www.w3.org/1999/xlink" preserveAspectRatio="none" x="0px" y="0px" width="76px" height="50px" viewBox="0 0 76 50">
<defs>
<g id="gngfnfgnm_0_Layer1_0_FILL">
<path fill="#D1E7F5" stroke="none" d="
M 37.5 -8.45
Q 37.5 -23.45 22.5 -23.45
L -22.5 -23.45
Q -24.35 -23.45 -25.8 -23.25 -37.5 -21.75 -37.5 -8.45
L -37.5 0 -37.5 10.95
Q -37.5 25.95 -22.5 25.95
L 22.5 25.95
Q 24.35 25.95 25.8 25.75 37.5 24.25 37.5 10.95
L 37.5 0 37.5 -8.45 Z"/>
</g>

<g id="gngfnfgnm_0_Layer0_0_FILL">
<path fill="#1E1E1E" stroke="none" d="
M -21.25 -14.75
Q -24.5 -10.65 -26 -6.45 -27.5 -2.35 -27.5 2.1 -27.5 6.55 -26 10.65 -24.5 14.8 -21.25 18.9 -21 19.2 -20.75 19.2
L -18.15 19.2
Q -17.9 19.2 -17.85 19.1 -17.85 18.95 -17.95 18.8 -20.75 14.4 -22.1 10.3 -23.4 6.2 -23.4 2.1 -23.4 -2 -22.05 -6.15 -20.75 -10.25 -17.95 -14.65 -17.7 -15.05 -18.15 -15.05
L -20.75 -15.05
Q -21 -15.05 -21.25 -14.75
M 1 -9.8
Q 1.15 -11.1 0.65 -11.75 0.1 -12.4 -1.45 -12.4
L -14.1 -12.4
Q -14.55 -12.4 -14.55 -12
L -14.55 -9.55
Q -14.55 -9.05 -14.1 -9.05
L -4.2 -9.05
Q -3.6 -9.05 -3.4 -8.8 -3.2 -8.6 -3.3 -7.9 -4 -3.15 -7.25 0.95 -10.45 5 -15.65 7.75 -15.9 7.95 -16 8.2 -16.05 8.5 -15.9 8.75
L -14.5 10.7
Q -14.3 11 -14 11.05 -13.7 11.05 -13.4 10.9 -10.15 9.1 -7.55 6.85 -5 4.55 -3.15 1.95 -1.3 -0.7 -0.25 -3.65 0.8 -6.6 1 -9.8
M 6.4 -15.05
Q 5.95 -15.05 5.95 -14.55
L 5.95 17.75
Q 5.95 18.2 6.4 18.2
L 9.5 18.2
Q 9.95 18.2 9.95 17.75
L 9.95 1.1 14.7 1.1
Q 14.9 1.1 15.05 0.95 15.2 0.8 15.2 0.6
L 15.2 -1.85
Q 15.2 -2 15.05 -2.15 14.9 -2.25 14.7 -2.25
L 9.95 -2.25 9.95 -14.55
Q 9.95 -15.05 9.5 -15.05
L 6.4 -15.05
M 16.3 -15.05
Q 15.9 -15.05 16.1 -14.65 18.9 -10.25 20.25 -6.15 21.55 -2 21.55 2.1 21.55 6.2 20.25 10.3 18.95 14.4 16.1 18.8 16 18.95 16.05 19.1 16.1 19.2 16.3 19.2
L 18.9 19.2
Q 19.2 19.2 19.4 18.9 22.7 14.8 24.2 10.65 25.65 6.55 25.65 2.1 25.65 -2.35 24.2 -6.45 22.7 -10.65 19.4 -14.75 19.2 -15.05 18.9 -15.05
L 16.3 -15.05 Z"/>
</g>
</defs>

<g transform="matrix( 1, 0, 0, 1, 38,23.75) ">
<g transform="matrix( 1, 0, 0, 1, 0,0) ">
<use xlink:href="#gngfnfgnm_0_Layer1_0_FILL"/>
</g>

<g transform="matrix( 1, 0, 0, 1, 0,0) ">
<use xlink:href="#gngfnfgnm_0_Layer0_0_FILL"/>
</g>
</g>
</svg>
