
<svg xmlns="http://www.w3.org/2000/svg" version="1.1" xmlns:xlink="http://www.w3.org/1999/xlink" preserveAspectRatio="none" x="0px" y="0px" width="76px" height="50px" viewBox="0 0 76 50">
<defs>
<g id="Layer0_0_FILL">
<path fill="#D0E9DC" stroke="none" d="
M 75.5 23.75
L 75.5 15.3
Q 75.5 0.3 60.5 0.3
L 15.5 0.3
Q 13.65 0.3 12.2 0.5 0.5 2 0.5 15.3
L 0.5 23.75 0.5 34.7
Q 0.5 49.7 15.5 49.7
L 60.5 49.7
Q 62.35 49.7 63.8 49.5 75.5 48 75.5 34.7
L 75.5 23.75
M 12 17.3
Q 13.5 13.1 16.75 9 17 8.7 17.25 8.7
L 19.85 8.7
Q 20.3 8.7 20.05 9.1 17.25 13.5 15.95 17.6 14.6 21.75 14.6 25.85 14.6 29.95 15.9 34.05 17.25 38.15 20.05 42.55 20.15 42.7 20.15 42.85 20.1 42.95 19.85 42.95
L 17.25 42.95
Q 17 42.95 16.75 42.65 13.5 38.55 12 34.4 10.5 30.3 10.5 25.85 10.5 21.4 12 17.3
M 43.9 9.2
Q 43.9 8.7 44.35 8.7
L 47.45 8.7
Q 47.95 8.7 47.95 9.2
L 47.95 21.55 52.7 21.55
Q 52.85 21.55 53 21.65 53.15 21.75 53.15 21.95
L 53.15 24.4
Q 53.15 24.6 53 24.75 52.85 24.9 52.7 24.9
L 47.95 24.9 47.95 41.5
Q 47.95 41.95 47.45 41.95
L 44.35 41.95
Q 43.9 41.95 43.9 41.5
L 43.9 9.2
M 41.95 27.85
L 42.3 29.8
Q 42.4 30.05 42.2 30.3 42.05 30.5 41.7 30.55 40.45 30.9 38.45 31.25 36.45 31.55 34.25 31.8 32.1 32.05 30 32.15 27.95 32.25 26.45 32.1 25.1 31.95 24.5 31.3 23.9 30.6 23.9 29.45
L 23.9 11.25
Q 23.9 11.05 24.05 10.9 24.2 10.75 24.4 10.75
L 27.4 10.75
Q 27.65 10.75 27.8 10.9 27.95 11.05 27.95 11.25
L 27.95 28.1
Q 27.95 28.45 28.05 28.55 28.2 28.6 28.55 28.65 29.85 28.8 31.4 28.7 33 28.65 34.7 28.45 36.4 28.3 38.05 27.95 39.7 27.7 41.15 27.35 41.55 27.25 41.7 27.45 41.85 27.65 41.95 27.85
M 54.1 9.1
Q 53.9 8.7 54.3 8.7
L 56.9 8.7
Q 57.2 8.7 57.4 9 60.7 13.1 62.2 17.3 63.65 21.4 63.65 25.85 63.65 30.3 62.2 34.4 60.7 38.55 57.4 42.65 57.2 42.95 56.9 42.95
L 54.3 42.95
Q 54.1 42.95 54.05 42.85 54 42.7 54.1 42.55 56.95 38.15 58.25 34.05 59.55 29.95 59.55 25.85 59.55 21.75 58.25 17.6 56.9 13.5 54.1 9.1 Z"/>

<path fill="#1E1E1E" stroke="none" d="
M 54.3 8.7
Q 53.9 8.7 54.1 9.1 56.9 13.5 58.25 17.6 59.55 21.75 59.55 25.85 59.55 29.95 58.25 34.05 56.95 38.15 54.1 42.55 54 42.7 54.05 42.85 54.1 42.95 54.3 42.95
L 56.9 42.95
Q 57.2 42.95 57.4 42.65 60.7 38.55 62.2 34.4 63.65 30.3 63.65 25.85 63.65 21.4 62.2 17.3 60.7 13.1 57.4 9 57.2 8.7 56.9 8.7
L 54.3 8.7
M 42.3 29.8
L 41.95 27.85
Q 41.85 27.65 41.7 27.45 41.55 27.25 41.15 27.35 39.7 27.7 38.05 27.95 36.4 28.3 34.7 28.45 33 28.65 31.4 28.7 29.85 28.8 28.55 28.65 28.2 28.6 28.05 28.55 27.95 28.45 27.95 28.1
L 27.95 11.25
Q 27.95 11.05 27.8 10.9 27.65 10.75 27.4 10.75
L 24.4 10.75
Q 24.2 10.75 24.05 10.9 23.9 11.05 23.9 11.25
L 23.9 29.45
Q 23.9 30.6 24.5 31.3 25.1 31.95 26.45 32.1 27.95 32.25 30 32.15 32.1 32.05 34.25 31.8 36.45 31.55 38.45 31.25 40.45 30.9 41.7 30.55 42.05 30.5 42.2 30.3 42.4 30.05 42.3 29.8
M 44.35 8.7
Q 43.9 8.7 43.9 9.2
L 43.9 41.5
Q 43.9 41.95 44.35 41.95
L 47.45 41.95
Q 47.95 41.95 47.95 41.5
L 47.95 24.9 52.7 24.9
Q 52.85 24.9 53 24.75 53.15 24.6 53.15 24.4
L 53.15 21.95
Q 53.15 21.75 53 21.65 52.85 21.55 52.7 21.55
L 47.95 21.55 47.95 9.2
Q 47.95 8.7 47.45 8.7
L 44.35 8.7
M 16.75 9
Q 13.5 13.1 12 17.3 10.5 21.4 10.5 25.85 10.5 30.3 12 34.4 13.5 38.55 16.75 42.65 17 42.95 17.25 42.95
L 19.85 42.95
Q 20.1 42.95 20.15 42.85 20.15 42.7 20.05 42.55 17.25 38.15 15.9 34.05 14.6 29.95 14.6 25.85 14.6 21.75 15.95 17.6 17.25 13.5 20.05 9.1 20.3 8.7 19.85 8.7
L 17.25 8.7
Q 17 8.7 16.75 9 Z"/>
</g>
</defs>

<g transform="matrix( 1, 0, 0, 1, 0,0) ">
<use xlink:href="#Layer0_0_FILL"/>
</g>
</svg>
