<?xml version="1.0" encoding="utf-8"?>
<!-- Generator: Adobe Illustrator 23.0.0, SVG Export Plug-In . SVG Version: 6.00 Build 0)  -->
<svg version="1.1" id="레이어_1" xmlns="http://www.w3.org/2000/svg" xmlns:xlink="http://www.w3.org/1999/xlink" x="0px"
	 y="0px" width="938px" height="109.7px" viewBox="0 0 938 109.7" style="enable-background:new 0 0 938 109.7;"
	 xml:space="preserve">
<g>
	<g id="레이어_1-2">
		<path style="fill:#EFE9D6;" d="M11.5,0.2c0,0-10.1,0-10.1,10.1v89.2c0,0,0,10.1,10.1,10.1h133.3c0,0,10.1,0,10.1-10.1V10.3
			c0,0,0-10.1-10.1-10.1H11.5z"/>
		<path style="fill:#EFE9D6;" d="M169.1,0.2c0,0-10.2,0-10.2,10.1v31.8c0,0,0,10.2,10.2,10.2h31.1c0,0,10.1,0,10.1-10.2V10.3
			c0,0,0-10.1-10.1-10.1H169.1z"/>
		<path style="fill:#EFE9D6;" d="M224.5,0.2c0,0-10.1,0-10.1,10.1v31.8c0,0,0,10.2,10.1,10.2h31.2c0,0,10.1,0,10.1-10.2V10.3
			c0,0,0-10.1-10.1-10.1H224.5z"/>
		<path style="fill:#EFE9D6;" d="M280,0.2c0,0-10.1,0-10.1,10.1v31.8c0,0,0,10.2,10.1,10.2h31.1c0,0,10.2,0,10.2-10.2V10.3
			c0,0,0-10.1-10.2-10.1H280z"/>
		<path style="fill:#EFE9D6;" d="M335.5,0.2c0,0-10.2,0-10.2,10.1v31.8c0,0,0,10.2,10.2,10.2h31.1c0,0,10.1,0,10.1-10.2V10.3
			c0,0,0-10.1-10.1-10.1H335.5z"/>
		<path style="fill:#EFE9D6;" d="M390.9,0.2c0,0-10.1,0-10.1,10.1v31.8c0,0,0,10.2,10.1,10.2H422c0,0,10.2,0,10.2-10.2V10.3
			c0,0,0-10.1-10.2-10.1H390.9z"/>
		<path style="fill:#EFE9D6;" d="M446.4,0.2c0,0-10.1,0-10.1,10.1v31.8c0,0,0,10.2,10.1,10.2h31.1c0,0,10.2,0,10.2-10.2V10.3
			c0,0,0-10.1-10.2-10.1H446.4z"/>
		<path style="fill:#EFE9D6;" d="M501.9,0.2c0,0-10.2,0-10.2,10.1v31.8c0,0,0,10.2,10.2,10.2h31.1c0,0,10.1,0,10.1-10.2V10.3
			c0,0,0-10.1-10.1-10.1H501.9z"/>
		<path style="fill:#EFE9D6;" d="M557.3,0.2c0,0-10.1,0-10.1,10.1v31.8c0,0,0,10.2,10.1,10.2h31.1c0,0,10.2,0,10.2-10.2V10.3
			c0,0,0-10.1-10.2-10.1H557.3z"/>
		<path style="fill:#EFE9D6;" d="M612.8,0.2c0,0-10.2,0-10.2,10.1v31.8c0,0,0,10.2,10.2,10.2h31.1c0,0,10.1,0,10.1-10.2V10.3
			c0,0,0-10.1-10.1-10.1H612.8z"/>
		<path style="fill:#EFE9D6;" d="M668.3,0.2c0,0-10.2,0-10.2,10.1v31.8c0,0,0,10.2,10.2,10.2h31.1c0,0,10.1,0,10.1-10.2V10.3
			c0,0,0-10.1-10.1-10.1H668.3z"/>
		<path style="fill:#EFE9D6;" d="M723.7,0.2c0,0-10.1,0-10.1,10.1v31.8c0,0,0,10.2,10.1,10.2h31.1c0,0,10.2,0,10.2-10.2V10.3
			c0,0,0-10.1-10.2-10.1H723.7z"/>
		<path style="fill:#EFE9D6;" d="M779.2,0.2c0,0-10.2,0-10.2,10.1v31.8c0,0,0,10.2,10.2,10.2h31.1c0,0,10.1,0,10.1-10.2V10.3
			c0,0,0-10.1-10.1-10.1H779.2z"/>
		<path style="fill:#EFE9D6;" d="M834.6,0.2c0,0-10.1,0-10.1,10.1v31.8c0,0,0,10.2,10.1,10.2h31.2c0,0,10.1,0,10.1-10.2V10.3
			c0,0,0-10.1-10.1-10.1H834.6z"/>
		<path style="fill:#EFE9D6;" d="M890.1,0.2c0,0-10.1,0-10.1,10.1v31.8c0,0,0,10.2,10.1,10.2h31.1c0,0,10.2,0,10.2-10.2V10.3
			c0,0,0-10.1-10.2-10.1H890.1z"/>
		<path style="fill:#FFFFFF;" d="M880.3,51.7h55.4v54.1h-55.4V51.7z M824.8,51.7h55.5v54.1h-55.5V51.7z M769.3,51.7h55.4v54.1h-55.4
			V51.7z M713.8,51.7h55.5v54.1h-55.5V51.7z M658.3,51.7h55.5v54.1h-55.5V51.7z M602.9,51.7h55.4v54.1h-55.4V51.7z M547.4,51.7h55.5
			v54.1h-55.5V51.7z M491.9,51.7h55.5v54.1H492L491.9,51.7z M436.5,51.7h55.4v54.1h-55.4L436.5,51.7z M381,51.7h55.5v54.1h-55.5
			L381,51.7z M325.6,51.7H381v54.1h-55.4V51.7z M270.1,51.7h55.5v54.1h-55.5V51.7z M214.6,51.7h55.5v54.1h-55.5L214.6,51.7z
			 M159.3,51.7h55.4v54.1h-55.4V51.7z"/>
		<line style="fill:none;stroke:#D1C395;stroke-width:2;stroke-miterlimit:10;" x1="160" y1="108.6" x2="936.7" y2="108.6"/>
		
			<line style="fill:none;stroke:#4D4D4D;stroke-width:2;stroke-miterlimit:10;stroke-dasharray:2,4;" x1="214.8" y1="52.2" x2="214.8" y2="106.2"/>
		
			<line style="fill:none;stroke:#4D4D4D;stroke-width:2;stroke-miterlimit:10;stroke-dasharray:2,4;" x1="268.8" y1="52.2" x2="268.8" y2="106.2"/>
		
			<line style="fill:none;stroke:#4D4D4D;stroke-width:2;stroke-miterlimit:10;stroke-dasharray:2,4;" x1="324.8" y1="52.2" x2="324.8" y2="106.2"/>
		
			<line style="fill:none;stroke:#4D4D4D;stroke-width:2;stroke-miterlimit:10;stroke-dasharray:2,4;" x1="378.8" y1="52.2" x2="378.8" y2="106.2"/>
		
			<line style="fill:none;stroke:#4D4D4D;stroke-width:2;stroke-miterlimit:10;stroke-dasharray:2,4;" x1="489.8" y1="52.2" x2="489.8" y2="106.2"/>
		
			<line style="fill:none;stroke:#4D4D4D;stroke-width:2;stroke-miterlimit:10;stroke-dasharray:2,4;" x1="544.8" y1="52.2" x2="544.8" y2="106.2"/>
		
			<line style="fill:none;stroke:#4D4D4D;stroke-width:2;stroke-miterlimit:10;stroke-dasharray:2,4;" x1="599.8" y1="52.2" x2="599.8" y2="106.2"/>
		
			<line style="fill:none;stroke:#4D4D4D;stroke-width:2;stroke-miterlimit:10;stroke-dasharray:2,4;" x1="655.8" y1="52.2" x2="655.8" y2="106.2"/>
		
			<line style="fill:none;stroke:#4D4D4D;stroke-width:2;stroke-miterlimit:10;stroke-dasharray:2,4;" x1="711.8" y1="52.2" x2="711.8" y2="106.2"/>
		
			<line style="fill:none;stroke:#4D4D4D;stroke-width:2;stroke-miterlimit:10;stroke-dasharray:2,4;" x1="766.8" y1="52.2" x2="766.8" y2="106.2"/>
		
			<line style="fill:none;stroke:#4D4D4D;stroke-width:2;stroke-miterlimit:10;stroke-dasharray:2,4;" x1="821.8" y1="52.2" x2="821.8" y2="106.2"/>
		
			<line style="fill:none;stroke:#4D4D4D;stroke-width:2;stroke-miterlimit:10;stroke-dasharray:2,4;" x1="877.8" y1="52.2" x2="877.8" y2="106.2"/>
		
			<line style="fill:none;stroke:#4D4D4D;stroke-width:2;stroke-miterlimit:10;stroke-dasharray:2,4;" x1="436.8" y1="52.2" x2="436.8" y2="106.2"/>
		<g style="enable-background:new    ;">
			<path d="M65,42.8c0-0.6,0-1.2,0-1.8c-1.6,0-3.2,0.1-4.8,0.1s-3.1,0.1-4.5,0.1c-0.8,0-1.2-0.4-1.2-1.4c0-0.5,0.1-0.8,0.3-1.1
				c0.2-0.2,0.5-0.4,0.9-0.4c1.6-0.1,3.4-0.1,5.2-0.2c1.8-0.1,3.7-0.1,5.5-0.2s3.6-0.1,5.3-0.1s3.3-0.1,4.7-0.1
				c0.4,0,0.7,0.1,0.9,0.3c0.2,0.2,0.3,0.6,0.3,1c0,0.5-0.1,0.8-0.3,1.1c-0.2,0.2-0.5,0.3-0.9,0.4c-1.2,0.1-2.6,0.2-3.9,0.2
				c-1.4,0.1-2.8,0.1-4.3,0.2c0,0.6,0,1.2-0.1,1.8c0,0.6-0.1,1.1-0.1,1.6c-0.1,0.6-0.2,1-0.6,1.3c-0.3,0.2-0.7,0.3-1.1,0.3
				c-0.5,0-0.8-0.1-1-0.4s-0.4-0.7-0.4-1.3C65.1,43.9,65,43.4,65,42.8z M66,26.9c2.3-0.1,4.5-0.2,6.6-0.3c0-0.3,0-0.7,0-1.1
				s0-1.1,0-2c0-0.9,0.6-1.4,1.7-1.4c0.6,0,1,0.1,1.3,0.3c0.3,0.2,0.4,0.5,0.4,0.9c0,0.7,0,1.5,0,2.4c0,0.9,0,1.9-0.1,2.9
				c0,1-0.1,2-0.1,2.9c0,1-0.1,1.8-0.1,2.5c0,0.5-0.1,0.8-0.4,0.9c-0.2,0.2-0.6,0.3-1,0.3c-0.5,0-1.1,0-2,0.1c-0.9,0-1.8,0-2.9,0.1
				c-1.1,0-2.2,0-3.3,0.1c-1.1,0-2.2,0-3.2,0c-1,0-1.9,0-2.6,0c-0.7,0-1.3,0-1.5,0c-0.8,0-1.4-0.2-1.8-0.5c-0.4-0.3-0.6-1-0.7-2
				c0-0.6-0.1-1.3-0.1-2.1c0-0.8-0.1-1.7-0.1-2.6c0-0.9-0.1-1.8-0.1-2.6c0-0.9,0-1.6,0-2.2c0-0.4,0.1-0.8,0.4-1
				c0.2-0.2,0.7-0.4,1.3-0.4c0.7,0,1.1,0.1,1.4,0.3c0.2,0.2,0.4,0.5,0.4,1c0,0.7,0,1.4,0,1.9c0,0.6,0,1.1,0,1.6
				C61.6,27.1,63.8,27,66,26.9z M75.1,48.9c0,0.5-0.1,0.8-0.4,1c-0.2,0.2-0.5,0.3-0.8,0.3c-1.1,0.1-2.2,0.2-3.4,0.2
				c-1.2,0.1-2.5,0.1-3.8,0.2c-1.3,0-2.5,0.1-3.8,0.1c-1.2,0-2.3,0-3.3,0c-0.5,0-0.9-0.2-1.2-0.5c-0.3-0.4-0.5-0.8-0.5-1.3
				c-0.1-1-0.1-1.8-0.2-2.6c0-0.7,0-1.4,0-2c0-0.5,0.1-0.8,0.3-1c0.2-0.2,0.6-0.3,1.2-0.3c0.6,0,1.1,0,1.4,0.2
				c0.3,0.2,0.5,0.5,0.5,1c0,0.4,0,0.7,0,0.9c0,0.3,0,0.5,0,0.8s0,0.5,0,0.7c0,0.2,0,0.5,0,0.8c0,0.3,0.1,0.4,0.3,0.4
				c0.8,0,1.7,0,2.8-0.1s2.2-0.1,3.4-0.1c1.1,0,2.3-0.1,3.3-0.1c1.1,0,2,0,2.8,0c0.4,0,0.7,0.1,0.9,0.3C75,48.1,75.1,48.4,75.1,48.9
				z M59.5,31.4c0,0.4,0,0.9,0.1,1.5c0.2,0,0.6,0,1.2,0c0.6,0,1.4,0,2.2,0c0.9,0,1.8,0,2.7,0c1,0,1.9,0,2.7-0.1c0.8,0,1.6,0,2.2,0
				c0.6,0,1.1,0,1.3,0c0.2,0,0.3,0,0.4-0.1c0.1-0.1,0.2-0.2,0.2-0.5c0-0.6,0-1.1,0-1.4c0-0.4,0-0.7,0-1c-2.1,0.1-4.3,0.2-6.6,0.3
				c-2.2,0.1-4.4,0.2-6.5,0.3C59.5,30.5,59.5,31,59.5,31.4z"/>
			<path d="M92.4,44.2c1.3-0.1,2.6-0.1,3.9-0.2c1.3-0.1,2.5-0.1,3.8-0.1c0.4,0,0.7,0.1,0.9,0.3c0.2,0.2,0.3,0.6,0.3,0.9
				c0,0.5-0.1,0.9-0.3,1.1c-0.2,0.2-0.5,0.4-0.9,0.4c-3,0.2-6.1,0.4-9.2,0.6c-3.1,0.2-6.3,0.3-9.6,0.4c-0.8,0-1.2-0.5-1.2-1.5
				c0-0.5,0.1-0.8,0.3-1.1c0.2-0.2,0.5-0.4,0.9-0.4c1.3,0,2.6-0.1,3.9-0.2c1.3-0.1,2.6-0.1,3.9-0.2v-4.6c-0.7,0-1.4,0-2.1,0
				c-0.7,0-1.3,0-1.9,0s-1.1,0-1.5,0c-0.4,0-0.7,0-0.9,0c-0.6,0-1.1-0.2-1.4-0.6c-0.3-0.4-0.5-0.9-0.6-1.5c0-0.8-0.1-1.7-0.1-2.7
				c0-1.1-0.1-2.2-0.1-3.3c0-1.1,0-2.3,0-3.3c0-1.1,0-2,0-2.7c0-0.9,0.4-1.4,1.2-1.4c0.4,0,1,0,1.9-0.1c0.9,0,1.9,0,3-0.1
				c1.1,0,2.3,0,3.6,0c1.3,0,2.5,0,3.6,0c1.2,0,2.2,0,3.1,0c0.9,0,1.6,0,2,0c0.7,0,1.1,0.4,1.1,1.1c0,0.9,0,1.9,0,3
				c0,1.1,0,2.3,0,3.5c0,1.2,0,2.4,0,3.5c0,1.1,0,2.1,0,3c0,0.6-0.1,0.9-0.3,1.1s-0.4,0.3-0.9,0.4c-0.2,0-0.6,0-1,0.1
				c-0.4,0-0.9,0-1.5,0c-0.6,0-1.2,0-1.9,0c-0.7,0-1.4,0-2.2,0.1V44.2z M96.6,36.7c0.3,0,0.4-0.1,0.4-0.5c0-0.5,0-1.2,0-2
				c0-0.8,0-1.6,0-2.5c0-0.9,0-1.7-0.1-2.6c0-0.9,0-1.6-0.1-2.3l-12.9,0.3c0,0.6,0,1.4,0,2.3s0,1.8,0,2.8c0,0.9,0,1.8,0,2.7
				s0,1.5,0,2.1L96.6,36.7z"/>
			<path d="M107.3,49.1c-0.5,1.1-1.2,1.9-2.1,2.6c-0.4,0.3-0.6,0.4-0.9,0.4c-0.2,0-0.4-0.2-0.6-0.4c-0.1-0.1-0.2-0.3-0.2-0.4
				c0-0.2,0.1-0.3,0.3-0.5c0.3-0.2,0.6-0.5,0.9-0.9c0.3-0.4,0.5-0.7,0.7-1c0.1-0.3,0.1-0.6,0.1-0.8c-0.1-0.2-0.2-0.4-0.6-0.5
				c-0.4-0.1-0.7-0.3-0.9-0.7c-0.2-0.4-0.3-0.8-0.3-1.2c0-0.6,0.2-1.1,0.6-1.4c0.4-0.4,0.9-0.6,1.6-0.6c0.7,0,1.2,0.1,1.6,0.5
				c0.4,0.4,0.6,1,0.6,1.6C108.1,47,107.8,48.1,107.3,49.1z"/>
		</g>
		<g style="enable-background:new    ;">
			<path d="M54,71.3c0,0.7,0,1.4,0,1.9c1.2,1,2.3,1.9,3.3,2.7c1,0.8,2,1.5,3,2.3c0.3,0.3,0.5,0.5,0.6,0.8s0,0.6-0.3,1
				c-0.3,0.4-0.5,0.7-0.8,0.9c-0.3,0.2-0.6,0.1-0.9-0.1c-0.4-0.3-0.9-0.6-1.5-1c-0.5-0.4-1.1-0.8-1.6-1.2c-0.5-0.4-1.1-0.9-1.7-1.3
				c-0.6-0.4-1.1-0.9-1.6-1.3c-1.2,1.3-2.4,2.5-3.5,3.6c-1.1,1.1-2,1.9-2.8,2.6c-0.3,0.3-0.7,0.4-1,0.3s-0.7-0.3-1-0.6
				c-0.3-0.3-0.3-0.6-0.3-0.9c0.1-0.3,0.2-0.5,0.4-0.8c0.4-0.5,0.9-1,1.5-1.5s1.1-1.2,1.7-1.8c0.6-0.6,1.2-1.2,1.7-1.8
				s1-1.1,1.4-1.5c0-0.5,0-1.2-0.1-1.9c0-0.7-0.1-1.5-0.1-2.3c0-0.8-0.1-1.6-0.1-2.3c0-0.8,0-1.4-0.1-2C49.1,65,48,65,46.9,65.1
				s-1.9,0.1-2.5,0.1c-0.4,0-0.7-0.1-0.9-0.3c-0.2-0.2-0.3-0.6-0.4-1.1c0-0.5,0.1-0.9,0.3-1.1c0.2-0.2,0.5-0.4,0.8-0.4
				c0.5,0,1.2,0,2.1-0.1s1.7-0.1,2.7-0.1c0.9,0,1.9-0.1,3-0.1c1,0,2-0.1,3-0.1c0.9,0,1.8-0.1,2.6-0.1c0.8,0,1.5-0.1,2-0.1
				c0.4,0,0.7,0.1,0.9,0.3c0.2,0.2,0.3,0.6,0.3,1.1c0,0.9-0.4,1.4-1.2,1.5c-0.6,0-1.4,0.1-2.4,0.1c-1,0.1-2.1,0.1-3.2,0.1
				c0,0.6,0,1.3,0.1,2c0,0.8,0,1.5,0,2.3C54,69.8,54,70.6,54,71.3z M66.6,66.5c0,1.3-0.1,2.7-0.1,4.1c0.6,0,1.1,0,1.7,0s0.9,0,1.1,0
				c0.4,0,0.8,0.1,0.9,0.3s0.3,0.5,0.3,1c0,0.5-0.1,0.9-0.2,1.1c-0.1,0.3-0.4,0.4-0.8,0.5c-0.3,0-0.7,0-1.3,0c-0.6,0-1.2,0-1.8,0
				c-0.1,1.9-0.2,3.7-0.3,5.6c-0.1,1.8-0.2,3.5-0.3,5.2c0,0.6-0.2,1.1-0.5,1.3c-0.3,0.2-0.7,0.3-1.1,0.3c-0.5,0-0.8-0.2-1-0.5
				c-0.2-0.3-0.3-0.8-0.3-1.5c0-7.2,0.1-14.3,0.4-21.3c0-0.6,0.2-1,0.4-1.2c0.3-0.2,0.7-0.4,1.3-0.4c1.1,0,1.6,0.6,1.6,1.7
				C66.6,63.9,66.6,65.2,66.6,66.5z"/>
			<path d="M86.2,73.3c-0.4,0-0.7,0-0.9,0c-0.7,1.1-1.6,1.9-2.8,2.5c-1.2,0.6-2.5,0.9-4.1,1c-2.5,0.1-4.5-0.6-5.9-1.9
				s-2.2-3.4-2.2-6c0-1.1,0.2-2.1,0.5-3.1c0.4-1,0.9-1.9,1.6-2.6c0.7-0.7,1.5-1.3,2.5-1.8s2.1-0.7,3.4-0.7c1.6,0,3,0.3,4.2,0.9
				c1.2,0.6,2.1,1.5,2.8,2.7c0.3,0,0.6,0,1.1,0c0.5,0,0.9,0,1.5,0c0.5,0,1,0,1.5,0c0.5,0,1,0,1.4,0c0-0.3,0-0.6,0-0.8
				c0-0.3,0-0.5,0-0.8c0-0.6,0.1-1,0.4-1.2c0.3-0.2,0.7-0.4,1.3-0.4c1.1,0,1.7,0.6,1.6,1.7c0,0.7,0,1.5,0,2.4c0,0.9,0,1.9,0,2.9
				c0,1,0,2.1,0,3.1s0,2,0,3s0,1.8-0.1,2.5c0,0.7-0.1,1.3-0.1,1.7c-0.1,0.6-0.2,1-0.5,1.2s-0.6,0.3-1.1,0.3c-0.5,0-0.8-0.1-1.1-0.3
				s-0.4-0.6-0.4-1.3c0-0.4,0-1,0-1.9s0-1.9,0-3c-0.4,0-0.9,0-1.5,0.1c-0.5,0-1.1,0-1.6,0.1C87.2,73.3,86.7,73.3,86.2,73.3z
				 M80.3,73.5c0.6-0.3,1.1-0.6,1.6-1.1c0.4-0.5,0.8-1,1-1.7c0.2-0.6,0.4-1.3,0.4-2.1c0-0.8-0.1-1.6-0.4-2.2c-0.2-0.6-0.6-1.2-1-1.6
				c-0.4-0.5-0.9-0.8-1.5-1c-0.6-0.2-1.2-0.3-1.9-0.3c-0.7,0-1.4,0.2-2,0.5c-0.6,0.3-1.1,0.7-1.5,1.1s-0.7,1-0.9,1.7
				c-0.2,0.6-0.3,1.3-0.3,2.1c0,1.7,0.4,3,1.3,3.8c0.9,0.9,2,1.3,3.4,1.3C79,73.9,79.7,73.8,80.3,73.5z M94.2,86.8
				c0,0.5-0.1,0.8-0.4,1c-0.2,0.2-0.5,0.3-0.8,0.3c-1.1,0.1-2.2,0.2-3.4,0.2c-1.2,0.1-2.4,0.1-3.6,0.2c-1.2,0-2.4,0.1-3.6,0.1
				c-1.2,0-2.2,0-3.2,0c-0.5,0-0.9-0.2-1.2-0.5c-0.3-0.4-0.5-0.8-0.5-1.3c0-0.6-0.1-1.2-0.1-1.7s-0.1-1-0.1-1.5c0-0.5,0-1,0-1.4
				c0-0.5,0-1.1,0-1.7c0-0.5,0.1-0.8,0.3-1c0.2-0.2,0.6-0.3,1.2-0.3c0.6,0,1.1,0,1.4,0.2c0.3,0.2,0.5,0.5,0.5,1c0,0.4,0,0.8,0,1.2
				c0,0.5,0,0.9,0,1.4c0,0.5,0,0.9,0,1.4c0,0.4,0,0.8,0,1.1c0,0.3,0.1,0.4,0.3,0.4c0.8,0,1.7,0,2.8-0.1c1,0,2.1-0.1,3.2-0.1
				c1.1,0,2.1-0.1,3.2-0.1c1,0,1.9,0,2.7,0c0.4,0,0.7,0.1,0.9,0.3S94.2,86.3,94.2,86.8z M89.7,70.3c0.4,0,0.7,0,1-0.1
				c0-0.6,0-1.1,0-1.7c0-0.6,0-1.1,0-1.7c-0.7,0-1.4,0.1-2.3,0.1c-0.8,0-1.6,0-2.2,0.1c0.1,0.6,0.2,1.2,0.2,1.7c0,0.3,0,0.6,0,0.8
				s-0.1,0.5-0.1,0.8c0.3,0,0.7,0,1.1,0c0.4,0,0.8,0,1.2,0S89.4,70.3,89.7,70.3z"/>
			<path d="M108.8,61.8c0,1.6,0,3.3,0,5.1c0.7,0.4,1.5,0.8,2.4,1.2c0.9,0.5,1.8,0.9,2.8,1.4c0.9,0.5,1.8,0.9,2.7,1.3
				c0.9,0.4,1.6,0.8,2.1,1c0.3,0.2,0.5,0.4,0.5,0.7c0.1,0.3,0,0.7-0.3,1.1c-0.3,0.5-0.6,0.7-0.9,0.8s-0.7,0-1.1-0.1
				c-0.5-0.2-1.2-0.5-2.1-0.9c-0.9-0.4-1.8-0.8-2.7-1.3c-0.9-0.4-1.9-0.9-2.8-1.3c-0.9-0.4-1.6-0.8-2.2-1.1c-0.5,0.5-1.2,1-1.9,1.6
				c-0.7,0.5-1.4,1.1-2.1,1.6c-0.7,0.5-1.4,1-2.1,1.5c-0.7,0.5-1.3,0.9-1.8,1.2c-0.8,0.5-1.5,0.4-2-0.3C97.1,75,97,74.7,97,74.4
				c0-0.3,0.1-0.6,0.4-0.8c0.6-0.5,1.2-1,1.9-1.5c0.7-0.5,1.4-1.1,2.1-1.7c0.7-0.6,1.4-1.1,2.1-1.7c0.7-0.6,1.3-1.1,1.8-1.6
				c0-0.8,0-1.7-0.1-2.6c0-0.9-0.1-1.7-0.1-2.4c0-0.5,0.1-0.9,0.3-1.1c0.2-0.3,0.7-0.4,1.4-0.5c0.8,0,1.3,0,1.5,0.3
				C108.6,60.9,108.8,61.2,108.8,61.8z M118,80c-2.7,0.2-5.4,0.4-8.1,0.6c0,1.1,0,2.2,0,3.3s0,2.1-0.1,3c0,0.6-0.2,1-0.5,1.3
				s-0.7,0.3-1.1,0.3c-0.5,0-0.8-0.2-1-0.4c-0.2-0.2-0.4-0.7-0.4-1.3c0-0.9-0.1-1.8-0.1-2.8c0-1,0-2.1,0-3.2
				c-1.2,0.1-2.4,0.1-3.7,0.1c-1.2,0-2.5,0.1-3.7,0.1c-0.8,0-1.2-0.5-1.2-1.5c0-0.5,0.1-0.8,0.3-1.1s0.5-0.4,0.9-0.4
				c3.3-0.2,6.6-0.3,9.8-0.5c3.2-0.2,6.2-0.3,9.1-0.4c0.4,0,0.7,0.1,0.9,0.3c0.2,0.2,0.3,0.6,0.3,1c0,0.5-0.1,0.9-0.3,1.1
				C118.7,79.8,118.4,80,118,80z"/>
		</g>
		<g style="enable-background:new    ;">
			<path d="M192.2,86.2c0,0.5-0.2,0.8-0.5,1.1c-0.3,0.2-0.7,0.3-1.1,0.3c-0.9-0.1-1.4-0.5-1.4-1.4c0-0.3,0-0.7,0-1.3
				c0-0.6,0-1.3,0.1-2.1c0-0.8,0-1.6,0.1-2.5c0-0.9,0.1-1.7,0.1-2.5c0-0.8,0-1.5,0.1-2.2c0-0.6,0-1.1,0-1.4c-0.8,0-1.7,0.1-2.9,0.1
				c-1.2,0-2.4,0-3.6,0c-1.3,0-2.5,0-3.6,0c-1.2,0-2.2,0-3,0c-0.8,0-1.2-0.5-1.2-1.4c0-0.5,0.1-0.8,0.4-1c0.2-0.2,0.5-0.3,0.8-0.4
				c1-0.1,2.2-0.1,3.6-0.2s2.8-0.1,4.2-0.1c1.4,0,2.8-0.1,4.2-0.1c1.3,0,2.5,0,3.5,0c0.4,0,0.7,0.1,0.9,0.3c0.1,0.2,0.2,0.5,0.2,0.9
				c0,0.4,0,1,0,1.7c0,0.7-0.1,1.5-0.1,2.4c0,0.9-0.1,1.8-0.1,2.7c0,0.9-0.1,1.9-0.1,2.7c-0.1,0.9-0.1,1.7-0.2,2.4
				C192.3,85.2,192.2,85.8,192.2,86.2z"/>
		</g>
		<g style="enable-background:new    ;">
			<path d="M230.9,71.7c0.2-0.1,0.5-0.1,0.9-0.2c0.7,0,1.1,0,1.4,0.2c0.2,0.2,0.4,0.5,0.4,1.1c0,0.8,0.1,1.7,0.1,2.7
				c0,1.1,0.1,2.1,0.1,3.2c0,1.1,0.1,2,0.1,3s0,1.7,0,2.2c0,0.2,0.1,0.4,0.3,0.4c0.8,0,1.7-0.1,2.8-0.1c1.1-0.1,2.2-0.1,3.4-0.2
				c1.2-0.1,2.3-0.1,3.4-0.2c1.1-0.1,2-0.1,2.8-0.2c0.4,0,0.6,0.1,0.9,0.2c0.2,0.2,0.3,0.5,0.4,1.1c0,0.4-0.1,0.8-0.3,1
				c-0.2,0.2-0.4,0.3-0.7,0.4c-0.8,0.1-1.7,0.2-2.9,0.3c-1.2,0.1-2.4,0.2-3.7,0.3c-1.3,0.1-2.6,0.2-3.9,0.2
				c-1.3,0.1-2.4,0.1-3.3,0.1c-0.7,0-1.3-0.2-1.7-0.5c-0.4-0.4-0.7-0.9-0.7-1.5c-0.1-0.8-0.1-1.7-0.2-2.7c-0.1-1-0.1-2-0.1-3.1
				c0-1.1-0.1-2.1-0.1-3.2s-0.1-2.1-0.1-3.2c0-0.2,0-0.4,0-0.6s0.1-0.3,0.2-0.5S230.6,71.8,230.9,71.7z"/>
		</g>
		<g style="enable-background:new    ;">
			<path d="M302.3,86.2c-0.2,0.2-0.5,0.4-0.8,0.4c-1.1,0.1-2.2,0.2-3.4,0.3c-1.2,0.1-2.4,0.2-3.7,0.3c-1.2,0.1-2.4,0.2-3.6,0.2
				s-2.3,0.1-3.2,0.1c-0.6,0-1.1-0.2-1.5-0.5c-0.4-0.4-0.6-0.9-0.7-1.6c0-0.6,0-1.5,0-2.7c0-1.2,0-2.4,0-3.7c0-1.3,0-2.5,0-3.7
				s0-2.1,0-2.7c0-0.4,0.1-0.7,0.2-0.9c0.1-0.2,0.4-0.3,0.9-0.3c1.4,0,2.7,0,3.9-0.1c1.2,0,2.5-0.1,3.7-0.1c1.2,0,2.4,0,3.6,0
				c1.2,0,2.5,0,3.9,0c0.7,0,1,0.5,1,1.4c0,0.5-0.1,0.9-0.2,1.1c-0.1,0.2-0.4,0.4-0.8,0.4c-0.8,0-1.8,0-2.9,0.1
				c-1.1,0-2.2,0.1-3.4,0.1c-1.2,0-2.3,0.1-3.5,0.1c-1.1,0-2.2,0-3,0.1c0,0.3,0,0.6,0,1.1c0,0.5,0,1.1,0,1.7c0,0.6,0,1.3,0,2
				c0,0.7,0,1.4,0,2c0,0.6,0,1.2,0,1.7c0,0.5,0,0.9,0,1.2c0,0.3,0.1,0.4,0.3,0.4c0.8,0,1.8-0.1,2.9-0.2s2.2-0.1,3.4-0.2
				c1.2-0.1,2.3-0.1,3.4-0.2s2-0.1,2.8-0.2c0.4,0,0.7,0,0.9,0.2c0.2,0.2,0.3,0.5,0.3,1C302.6,85.6,302.5,85.9,302.3,86.2z"/>
		</g>
		<g style="enable-background:new    ;">
			<path d="M358,85.9c0,0.8-0.3,1.2-1,1.3c-1.4,0.1-2.6,0.2-3.8,0.3c-1.1,0.1-2.2,0.2-3.3,0.2c-1.1,0.1-2.2,0.1-3.3,0.2
				c-1.1,0.1-2.4,0.1-3.7,0.2c-0.5,0-0.9,0-1.2,0c-0.3-0.1-0.6-0.2-0.8-0.3s-0.3-0.3-0.4-0.6c-0.1-0.3-0.2-0.6-0.2-1
				c0-0.3-0.1-0.8-0.1-1.2c0-0.5,0-1,0-1.5c0-0.5,0-1.1,0-1.6c0-0.5,0-1,0-1.5c0-0.3,0.1-0.5,0.2-0.7c0.1-0.2,0.3-0.3,0.6-0.3
				c0.8-0.1,1.8-0.1,3-0.2c1.2-0.1,2.4-0.2,3.6-0.3s2.5-0.2,3.7-0.3s2.2-0.2,3.1-0.2c0-0.2,0-0.5,0-0.9s0-0.8,0-1.2
				c0-0.4,0-0.8,0-1.2c0-0.4,0-0.7,0-0.9c-1,0-2.1,0.1-3.3,0.1s-2.5,0.1-3.7,0.1c-1.3,0-2.5,0.1-3.6,0.1c-1.1,0-2.1,0.1-2.9,0.1
				c-0.3,0-0.5-0.1-0.7-0.3S340,73.6,340,73c0-0.5,0.1-0.9,0.2-1.1s0.4-0.3,0.8-0.3c1.4,0,2.8-0.1,4.1-0.1s2.6-0.1,3.9-0.2
				c1.3-0.1,2.6-0.1,3.9-0.1c1.3,0,2.6,0,4,0c0.5,0,0.8,0.3,0.8,0.9c0,0.5,0,1.1,0,1.7c0,0.7,0,1.3,0,2c0,0.7,0,1.4,0,2
				c0,0.7,0,1.2,0,1.7c0,0.4-0.1,0.7-0.3,0.9s-0.5,0.3-1,0.4c-0.9,0.1-1.9,0.1-3,0.2c-1.2,0.1-2.3,0.2-3.5,0.3s-2.4,0.2-3.5,0.3
				s-2,0.2-2.8,0.2c0,0.2,0,0.5,0,0.7c0,0.3,0,0.6,0,0.8c0,0.3,0,0.5,0,0.8c0,0.3,0,0.5,0,0.6c0,0.3,0.1,0.4,0.4,0.4
				c1.1,0,2.2-0.1,3.2-0.1c1,0,2.1-0.1,3.1-0.1c1-0.1,2.1-0.1,3.2-0.2c1.1-0.1,2.3-0.1,3.5-0.2c0.4,0,0.6,0.1,0.8,0.3
				S358,85.4,358,85.9z"/>
		</g>
		<g style="enable-background:new    ;">
			<path d="M417.5,86.8c-0.1,0.2-0.4,0.3-0.9,0.4c-0.3,0-0.9,0-1.7,0.1c-0.8,0-1.7,0.1-2.7,0.1s-2,0.1-3.1,0.1s-2.1,0.1-3.1,0.1
				c-1,0-1.9,0-2.6,0c-0.8,0-1.3,0-1.6,0c-0.6,0-1.1-0.2-1.4-0.6c-0.3-0.4-0.5-0.9-0.6-1.5c0-0.8-0.1-1.7-0.1-2.8s-0.1-2.3-0.1-3.5
				c0-1.2,0-2.4,0-3.5c0-1.1,0-2,0-2.8c0-0.9,0.4-1.4,1.2-1.4c0.4,0,1,0,1.8-0.1s1.7,0,2.8-0.1c1,0,2.1,0,3.3,0c1.1,0,2.2,0,3.3,0
				c1,0,2,0,2.8,0c0.8,0,1.5,0,1.9,0c0.7,0,1.1,0.4,1.1,1.1c0,0.9,0,1.9,0,3.1c0,1.2,0,2.4,0,3.7s0,2.5,0,3.7c0,1.2,0,2.2,0,3.1
				C417.8,86.2,417.7,86.6,417.5,86.8z M414.2,84.4c0.3,0,0.4-0.2,0.4-0.5c0-0.5,0-1.2,0-2.1c0-0.8,0-1.7,0-2.7c0-0.9,0-1.9-0.1-2.8
				c0-0.9,0-1.7-0.1-2.4L403,74.3c0,0.6,0,1.4,0,2.4c0,1,0,1.9,0,2.9c0,1,0,1.9,0,2.8c0,0.9,0,1.6,0,2.2L414.2,84.4z"/>
		</g>
		<g style="enable-background:new    ;">
			<path d="M460.9,76.5c1.8-0.1,3.7-0.2,5.7-0.3c0-0.6,0-1.3,0-1.9s0-1.4,0-2.2c0-0.9,0.6-1.4,1.7-1.4c0.6,0,1,0.1,1.3,0.3
				c0.3,0.2,0.4,0.5,0.4,0.9c0,1,0,2.1,0,3.3c0,1.2,0,2.4-0.1,3.6c0,1.2-0.1,2.5-0.1,3.7c0,1.2-0.1,2.3-0.1,3.4
				c0,0.5-0.1,0.8-0.4,0.9c-0.2,0.2-0.6,0.3-1,0.3c-0.5,0-1.1,0-1.9,0.1c-0.8,0-1.6,0-2.5,0.1c-0.9,0-1.9,0-2.8,0.1
				c-1,0-1.9,0-2.8,0c-0.9,0-1.6,0-2.3,0s-1.1,0-1.4,0c-0.8,0-1.4-0.2-1.8-0.5c-0.4-0.3-0.6-1-0.7-2c0-0.8-0.1-1.7-0.1-2.7
				c0-1-0.1-2.1-0.1-3.2c0-1.1-0.1-2.2-0.1-3.4c0-1.1,0-2.3,0-3.3c0-0.4,0.1-0.8,0.4-1c0.2-0.2,0.7-0.4,1.3-0.4
				c0.7,0,1.1,0.1,1.4,0.3c0.2,0.2,0.4,0.5,0.4,1c0,0.8,0,1.5,0,2.3c0,0.8,0,1.5,0,2.3C457.2,76.7,459.1,76.6,460.9,76.5z
				 M455.3,82.2c0,0.8,0.1,1.6,0.1,2.3c0.2,0,0.6,0,1.1,0c0.5,0,1.2,0,1.9,0c0.7,0,1.5,0,2.3,0s1.6,0,2.3-0.1s1.3,0,1.9,0
				c0.5,0,0.9,0,1.1,0c0.2,0,0.3,0,0.4-0.1c0.1-0.1,0.2-0.2,0.2-0.5c0-0.9,0-1.7,0-2.4c0-0.7,0-1.4,0-2.1c-2,0.1-3.9,0.2-5.6,0.3
				c-1.8,0.1-3.7,0.2-5.6,0.3C455.3,80.6,455.3,81.4,455.3,82.2z"/>
		</g>
		<g style="enable-background:new    ;">
			<path d="M518.8,76.8c0,0.5,0,1,0,1.5c0.7,0.4,1.5,0.8,2.3,1.3c0.8,0.5,1.6,1,2.5,1.4c0.8,0.5,1.6,0.9,2.4,1.4s1.4,0.8,2,1.1
				c0.3,0.2,0.5,0.4,0.5,0.7c0.1,0.3,0,0.7-0.3,1.1c-0.3,0.5-0.6,0.7-0.9,0.8c-0.4,0.1-0.7,0-1.1-0.1c-0.5-0.3-1.1-0.6-1.9-1
				s-1.6-0.8-2.4-1.3s-1.7-0.9-2.5-1.4c-0.8-0.5-1.5-0.9-2.1-1.2c-0.5,0.5-1.1,1-1.8,1.6s-1.3,1.1-1.9,1.7c-0.6,0.6-1.3,1.1-1.9,1.6
				c-0.6,0.5-1.2,1-1.7,1.3c-0.4,0.3-0.7,0.4-1.1,0.3s-0.7-0.3-0.9-0.6c-0.3-0.3-0.4-0.6-0.4-0.9c0-0.3,0.1-0.6,0.4-0.8
				c1.2-1.1,2.4-2.2,3.7-3.4c1.3-1.2,2.5-2.4,3.6-3.4c0-0.4,0-0.9,0-1.4c0-0.5,0-1.1,0-1.7c0-0.6,0-1.1,0-1.7s0-1,0-1.3
				c0-0.5,0.1-0.9,0.3-1.1c0.2-0.3,0.7-0.4,1.4-0.5c0.8,0,1.3,0,1.5,0.3c0.3,0.2,0.4,0.6,0.4,1.2c0,0.4,0,0.9,0,1.4s0,1,0,1.6
				S518.8,76.3,518.8,76.8z"/>
		</g>
		<g style="enable-background:new    ;">
			<path d="M581.5,83.2c-0.5,1.1-1.1,1.9-2,2.7c-0.8,0.7-1.8,1.3-3,1.7s-2.4,0.6-3.8,0.6c-1.4,0-2.7-0.1-3.9-0.5
				c-1.2-0.4-2.1-0.9-3-1.6c-0.8-0.7-1.5-1.6-1.9-2.7c-0.4-1.1-0.7-2.3-0.7-3.7c0-1.2,0.2-2.3,0.6-3.3c0.4-1.1,1-2,1.8-2.8
				s1.8-1.4,3-1.9c1.2-0.5,2.5-0.7,4-0.8c1.5,0,2.8,0.1,3.9,0.6s2.2,1,3,1.8s1.4,1.7,1.9,2.8c0.4,1.1,0.7,2.3,0.7,3.6
				C582.2,80.9,582,82.1,581.5,83.2z M577.2,83.6c0.5-0.5,1-1.1,1.3-1.8c0.3-0.7,0.4-1.5,0.4-2.3c0-0.9-0.2-1.7-0.5-2.4
				c-0.3-0.7-0.7-1.3-1.3-1.8c-0.5-0.5-1.2-0.9-1.9-1.1c-0.7-0.3-1.6-0.4-2.5-0.4c-0.9,0-1.8,0.2-2.6,0.5s-1.4,0.7-1.9,1.3
				c-0.5,0.5-0.9,1.1-1.2,1.9c-0.3,0.7-0.4,1.5-0.4,2.3c0,1.8,0.5,3.2,1.6,4.2c1.1,1,2.5,1.5,4.4,1.4c0.9,0,1.8-0.1,2.6-0.5
				C576,84.5,576.7,84.1,577.2,83.6z"/>
		</g>
		<g style="enable-background:new    ;">
			<path d="M629,76.7c0,0.9,0,1.7,0,2.4c0.7,0.4,1.4,0.8,2.2,1.2c0.7,0.4,1.5,0.8,2.2,1.3c0.7,0.4,1.5,0.8,2.2,1.2
				c0.7,0.4,1.3,0.7,1.9,1c0.3,0.2,0.5,0.4,0.5,0.7c0.1,0.3,0,0.7-0.3,1.1c-0.3,0.5-0.6,0.7-0.9,0.8c-0.4,0.1-0.7,0-1.1-0.1
				c-0.5-0.3-1.1-0.6-1.8-0.9s-1.4-0.8-2.2-1.2c-0.7-0.4-1.5-0.8-2.2-1.2c-0.7-0.4-1.4-0.8-2-1.1c-0.5,0.5-1.1,0.9-1.7,1.4
				c-0.6,0.5-1.2,1-1.8,1.5c-0.6,0.5-1.2,1-1.8,1.5c-0.6,0.5-1.1,0.9-1.7,1.3c-0.4,0.3-0.7,0.4-1.1,0.3c-0.3-0.1-0.7-0.3-0.9-0.6
				c-0.5-0.7-0.5-1.2,0-1.7c1.1-1,2.3-2,3.6-3c1.2-1.1,2.4-2.1,3.5-3.1c0-0.3,0-0.7,0-1.1c0-0.4,0-0.9,0-1.3c0-0.5,0-0.9,0-1.4
				s0-0.9,0-1.3c-1.3,0.1-2.5,0.1-3.6,0.2s-1.9,0.1-2.5,0.1c-0.4,0-0.7-0.1-0.9-0.3c-0.2-0.2-0.3-0.6-0.4-1.1c0-0.5,0.1-0.9,0.3-1.1
				c0.2-0.2,0.5-0.4,0.8-0.4c0.5,0,1.3-0.1,2.2-0.1c0.9,0,1.9-0.1,3.1-0.1s2.3-0.1,3.5-0.1s2.4-0.1,3.5-0.2c1.1-0.1,2.1-0.1,3-0.1
				c0.9,0,1.6-0.1,2.2-0.1c0.4,0,0.7,0.1,0.9,0.3c0.2,0.2,0.3,0.6,0.3,1.1c0,0.9-0.4,1.4-1.2,1.5c-0.3,0-0.8,0-1.3,0.1
				c-0.5,0-1.1,0.1-1.8,0.1s-1.4,0.1-2.2,0.1c-0.8,0-1.6,0.1-2.4,0.1C629,75,629,75.9,629,76.7z"/>
		</g>
		<g style="enable-background:new    ;">
			<path d="M686.4,78c0,0.6,0,1.1,0,1.5c0.7,0.4,1.4,0.8,2.2,1.2s1.5,0.9,2.2,1.3c0.7,0.4,1.4,0.8,2.1,1.2c0.7,0.4,1.3,0.7,1.9,1
				c0.3,0.2,0.5,0.4,0.5,0.7c0.1,0.3,0,0.7-0.3,1.1c-0.3,0.5-0.6,0.7-0.9,0.8c-0.4,0.1-0.7,0-1.1-0.1c-0.5-0.2-1.1-0.5-1.8-0.9
				c-0.7-0.4-1.4-0.8-2.1-1.2c-0.7-0.4-1.5-0.8-2.2-1.2c-0.7-0.4-1.4-0.8-1.9-1.1c-0.5,0.5-1.1,0.9-1.8,1.4c-0.6,0.5-1.3,1-2,1.5
				c-0.7,0.5-1.3,1-1.9,1.5c-0.6,0.5-1.2,0.9-1.7,1.3c-0.4,0.3-0.7,0.4-1.1,0.3c-0.3-0.1-0.7-0.3-0.9-0.6c-0.5-0.7-0.5-1.2,0-1.7
				c1.2-1,2.5-2,3.8-3.1s2.5-2.1,3.7-3.1c0-0.3,0-0.8,0-1.5c0-0.7,0-1.4,0-2.2c-1.4,0.1-2.7,0.1-3.9,0.2c-1.2,0-2.1,0.1-2.7,0.1
				c-0.4,0-0.7-0.1-0.9-0.3c-0.2-0.2-0.3-0.6-0.4-1.1c0-0.5,0.1-0.9,0.3-1.1s0.5-0.4,0.8-0.4c0.7,0,1.6-0.1,2.8-0.1
				c1.2-0.1,2.5-0.1,3.9-0.2c0-0.6,0-1.2,0-1.7s0-0.9,0-1.1c0-0.5,0.1-0.9,0.3-1.1c0.2-0.3,0.7-0.4,1.3-0.5c0.8,0,1.3,0,1.5,0.3
				c0.3,0.2,0.4,0.6,0.4,1.2c0,0.3,0,0.7,0,1.2s0,1.1,0,1.6c1.6-0.1,3.1-0.1,4.4-0.2s2.4-0.1,3.1-0.1c0.4,0,0.7,0.1,0.9,0.3
				c0.2,0.2,0.3,0.6,0.3,1.1c0,0.9-0.4,1.4-1.2,1.5c-0.7,0-1.7,0.1-3.1,0.2c-1.4,0.1-2.9,0.1-4.5,0.2
				C686.4,76.6,686.4,77.3,686.4,78z"/>
		</g>
		<g style="enable-background:new    ;">
			<path d="M743.8,79.1c0.7,0,1.4-0.1,1.9-0.1c0-1.1,0.1-2,0.1-2.9c0-0.9,0-1.5,0-1.9c-0.8,0-1.8,0-3,0.1c-1.3,0-2.6,0-3.9,0.1
				c-1.4,0-2.7,0-3.9,0c-1.3,0-2.3,0-3.1,0c-0.4,0-0.7-0.1-0.9-0.3s-0.3-0.6-0.3-1.1c0-0.5,0.1-0.8,0.4-1c0.2-0.2,0.5-0.3,0.8-0.4
				c0.7,0,1.5-0.1,2.4-0.1s1.8-0.1,2.8-0.1c1,0,2,0,3-0.1c1,0,2,0,3,0s1.9,0,2.8,0c0.9,0,1.6,0,2.3,0c0.4,0,0.7,0.1,0.9,0.3
				s0.2,0.5,0.2,0.9c0,0.4,0,1,0,1.8c0,0.8-0.1,1.6-0.1,2.5c0,0.9-0.1,1.8-0.1,2.8c0,1-0.1,1.9-0.1,2.8c-0.1,0.9-0.1,1.7-0.2,2.4
				c-0.1,0.7-0.1,1.3-0.1,1.7c0,0.5-0.2,0.8-0.5,1.1c-0.3,0.2-0.7,0.3-1.1,0.3c-0.9-0.1-1.3-0.5-1.3-1.4c0-0.3,0-0.9,0-1.8
				c0-0.9,0.1-1.9,0.1-3c-0.5,0-1.2,0.1-1.9,0.2c-0.7,0.1-1.5,0.1-2.3,0.2c-0.8,0.1-1.6,0.1-2.5,0.2c-0.9,0.1-1.7,0.1-2.5,0.2
				s-1.5,0.1-2.2,0.1c-0.7,0-1.3,0.1-1.8,0.1c-0.4,0-0.7,0-0.9-0.2c-0.2-0.2-0.3-0.5-0.4-1c0-0.5,0.1-0.8,0.3-1
				c0.2-0.2,0.5-0.4,0.8-0.4c0.5,0,1.1-0.1,1.8-0.2c0.7-0.1,1.5-0.1,2.3-0.2c0.8-0.1,1.7-0.1,2.6-0.2s1.7-0.1,2.6-0.2
				C742.3,79.2,743,79.1,743.8,79.1z"/>
		</g>
		<g style="enable-background:new    ;">
			<path d="M794.8,81.1c-1.1,0-2.1,0.1-3,0.1c0,0.7,0,1.3,0,1.9c0,0.6,0,1.1,0,1.5c0,0.3,0.1,0.4,0.3,0.4c0.8,0,1.8-0.1,3-0.1
				c1.2-0.1,2.4-0.1,3.7-0.2c1.3-0.1,2.5-0.1,3.7-0.2c1.2-0.1,2.2-0.1,3-0.2c0.4,0,0.7,0.1,0.9,0.2c0.2,0.2,0.3,0.5,0.3,1
				c0,0.5,0,0.9-0.3,1.1s-0.5,0.3-0.8,0.4c-1.1,0.1-2.2,0.2-3.5,0.3c-1.3,0.1-2.6,0.2-4,0.3c-1.3,0.1-2.7,0.1-3.9,0.2
				s-2.4,0.1-3.4,0.1c-0.6,0-1.1-0.2-1.5-0.5c-0.4-0.4-0.6-0.9-0.7-1.6c0-1-0.1-2.1-0.1-3.3s0-2.5,0-3.8c0-1.3,0-2.4,0-3.5
				c0-1.1,0-1.9,0.1-2.6c0-0.4,0.1-0.7,0.2-0.9c0.1-0.2,0.4-0.3,0.8-0.3c1,0,2.1-0.1,3.3-0.1s2.5-0.1,3.9-0.1s2.7-0.1,4.2-0.1
				c1.4,0,2.8,0,4.2,0c0.7,0,1,0.5,1,1.4c0,0.5-0.1,0.8-0.2,1c-0.1,0.2-0.4,0.3-0.8,0.3c-0.8,0-1.8,0.1-3,0.1
				c-1.2,0-2.4,0.1-3.7,0.1s-2.5,0.1-3.6,0.1c-1.2,0-2.1,0.1-2.9,0.1c0,0.3-0.1,0.9-0.1,1.6c0,0.7,0,1.5,0,2.4c0.9,0,1.9,0,3-0.1
				c1.1,0,2.3-0.1,3.4-0.1c1.2,0,2.3-0.1,3.3-0.1s2,0,2.7-0.1c0.4,0,0.6,0.1,0.8,0.3c0.2,0.2,0.2,0.5,0.2,1c0,0.5-0.1,0.8-0.3,1.1
				c-0.2,0.2-0.4,0.3-0.9,0.4c-0.7,0-1.6,0.1-2.7,0.1c-1.1,0-2.2,0.1-3.4,0.1C797.1,81,795.9,81,794.8,81.1z"/>
		</g>
		<g style="enable-background:new    ;">
			<path d="M858.3,81.5c0,0.8,0,1.6-0.1,2.5c0.4,0,0.7,0,1.1,0c0.3,0,0.6,0,0.9,0c0.4,0,0.7,0,0.9,0.2c0.2,0.2,0.3,0.5,0.4,1
				c0.1,0.9-0.3,1.5-1.2,1.5c-0.5,0-1.2,0.1-2,0.1c-0.9,0.1-1.8,0.1-2.9,0.2c-1.1,0.1-2.2,0.1-3.3,0.2c-1.2,0.1-2.3,0.1-3.3,0.2
				c-1.1,0.1-2,0.1-2.9,0.1s-1.6,0.1-2.1,0.1c-0.4,0-0.7-0.1-0.9-0.3s-0.4-0.6-0.4-1.1c0-0.5,0-0.9,0.2-1.1s0.5-0.3,0.8-0.4
				c0.3,0,0.7,0,1.2-0.1s1,0,1.5-0.1c0-1,0-1.9-0.1-2.7c0-0.8,0-1.6-0.1-2.4s0-1.6-0.1-2.4c0-0.8,0-1.7-0.1-2.7c-0.5,0-1,0-1.5,0
				c-0.4,0-0.8,0-1.1,0c-0.4,0-0.7-0.1-0.9-0.3c-0.2-0.2-0.3-0.6-0.4-1.1c0-0.5,0.1-0.9,0.3-1.1c0.2-0.2,0.5-0.4,0.8-0.4
				c0.5,0,1.3,0,2.2-0.1s2,0,3.1-0.1s2.3,0,3.5-0.1s2.4,0,3.5,0c1.1,0,2.1,0,3.1,0c0.9,0,1.6,0,2.2,0c0.4,0,0.7,0.1,0.9,0.3
				s0.3,0.5,0.3,1c0,0.9-0.4,1.4-1.2,1.4c-0.3,0-0.6,0-0.9,0s-0.8,0-1.2,0c0,1,0,1.9,0,2.7c0,0.8,0,1.6-0.1,2.3
				C858.4,80,858.3,80.7,858.3,81.5z M849.3,81.8c0,0.8,0,1.7,0,2.7c0.9,0,1.9-0.1,2.9-0.1c1,0,1.9-0.1,2.8-0.1c0-1,0-1.8,0-2.6
				s0-1.6,0-2.3c0-0.8,0-1.5,0-2.3c0-0.8,0-1.7,0-2.7c-0.9,0-1.9,0.1-2.9,0.1s-2,0-2.9,0c0,1,0,1.9,0,2.7c0,0.8,0,1.6,0,2.4
				S849.3,81,849.3,81.8z"/>
		</g>
		<g style="enable-background:new    ;">
			<path d="M906,71.3c0,0.5,0,1.1,0,1.7c0.9,0,1.8,0,2.6-0.1c0.9,0,1.6,0,2.4-0.1c0.7,0,1.4,0,2-0.1s1,0,1.4-0.1
				c0.4,0,0.7,0,0.9,0.2c0.2,0.2,0.3,0.5,0.3,1c0,0.5-0.1,0.8-0.3,1c-0.2,0.2-0.5,0.3-1,0.3c-0.1,0-0.4,0-0.8,0s-0.9,0-1.4,0
				c-0.5,0-1,0-1.4,0c-0.5,0-0.8,0-1,0c1,0.4,1.8,1.2,2.5,2.2c0.6,1.1,1,2.3,1,3.6c0,1-0.2,2-0.6,2.9c-0.4,0.9-1,1.7-1.8,2.4
				s-1.7,1.3-2.8,1.7c-1.1,0.4-2.3,0.7-3.6,0.7c-1.3,0-2.5-0.1-3.6-0.5c-1.1-0.3-2-0.8-2.7-1.5s-1.4-1.4-1.8-2.3
				c-0.4-0.9-0.6-1.9-0.6-3c0-0.6,0.1-1.3,0.3-1.9c0.2-0.6,0.4-1.2,0.7-1.7c0.3-0.5,0.7-1,1-1.4c0.4-0.4,0.8-0.7,1.2-0.9
				c-0.2,0-0.6,0-1,0c-0.5,0-0.9,0-1.4,0c-0.5,0-1,0-1.4,0c-0.4,0-0.7,0-0.8,0c-0.4,0-0.7,0-0.9-0.2c-0.2-0.2-0.3-0.5-0.4-1
				c0-0.5,0.1-0.9,0.3-1.1c0.2-0.2,0.5-0.4,0.8-0.4c0.4,0,0.8,0,1.4-0.1c0.6,0,1.2,0,2-0.1c0.7,0,1.5-0.1,2.4-0.1
				c0.8,0,1.7-0.1,2.6-0.1c0-0.6,0-1.1,0-1.6s0-0.9,0-1.2c0-0.5,0.1-0.9,0.3-1.1c0.2-0.3,0.7-0.4,1.3-0.5c0.8,0,1.2,0,1.5,0.3
				c0.2,0.2,0.3,0.6,0.3,1.2C906,70.3,906,70.7,906,71.3z M908.5,84.9c0.5-0.5,0.9-1.1,1.1-1.7c0.3-0.7,0.4-1.4,0.4-2.2
				c0-0.8-0.2-1.5-0.5-2.2c-0.3-0.6-0.7-1.2-1.2-1.6c-0.5-0.4-1.1-0.8-1.7-1c-0.7-0.2-1.4-0.3-2.1-0.3c-0.8,0-1.5,0.2-2.2,0.5
				s-1.2,0.7-1.7,1.2c-0.5,0.5-0.9,1.1-1.1,1.7c-0.3,0.7-0.4,1.3-0.4,2.1c0,0.8,0.1,1.5,0.4,2.2c0.3,0.7,0.7,1.2,1.2,1.7
				c0.5,0.5,1.1,0.8,1.7,1c0.7,0.2,1.4,0.3,2.1,0.3c0.8,0,1.6-0.2,2.3-0.5C907.5,85.7,908.1,85.4,908.5,84.9z"/>
		</g>
		<g style="enable-background:new    ;">
			<path d="M186.3,15.7c0.5,0,0.9,0.1,1.2,0.3c0.3,0.2,0.5,0.6,0.5,1.1v20.5c0,0.5-0.2,0.8-0.5,1c-0.3,0.2-0.7,0.3-1.1,0.3
				s-0.8-0.1-1.1-0.3c-0.3-0.2-0.5-0.6-0.5-1V19.5l-4.7,3c-0.4,0.2-0.8,0.3-1.1,0.1c-0.4-0.1-0.6-0.4-0.9-0.8
				c-0.2-0.3-0.2-0.7-0.2-1.1c0.1-0.4,0.3-0.7,0.6-0.9l5.7-3.4c0.4-0.2,0.8-0.4,1.1-0.5C185.6,15.7,185.9,15.7,186.3,15.7z"/>
		</g>
		<g style="enable-background:new    ;">
			<path d="M238.9,15.5c1.2,0,2.2,0.2,3.1,0.5c0.9,0.3,1.6,0.7,2.2,1.2c0.6,0.5,1,1.1,1.3,1.9s0.4,1.5,0.4,2.3v0.3
				c0,1.2-0.3,2.4-0.8,3.4c-0.5,1-1.3,2.1-2.4,3.3l-7.3,7.8h10.3c0.4,0,0.7,0.1,0.8,0.4c0.2,0.3,0.3,0.6,0.3,0.9
				c0,0.4-0.1,0.7-0.3,1c-0.2,0.3-0.5,0.4-0.8,0.4h-12.2c-0.8,0-1.4-0.1-1.8-0.4c-0.4-0.3-0.5-0.7-0.5-1.3c0-0.3,0.1-0.5,0.2-0.8
				c0.1-0.3,0.4-0.6,0.7-0.9l7.7-8.3c0.6-0.6,1-1.1,1.4-1.6c0.3-0.5,0.6-0.9,0.8-1.3c0.2-0.4,0.4-0.8,0.4-1.2
				c0.1-0.4,0.1-0.8,0.1-1.2v-0.2c0-0.9-0.3-1.7-1-2.3c-0.6-0.6-1.6-0.8-2.9-0.8c-1.1,0-1.9,0.2-2.7,0.7c-0.7,0.4-1.4,1.1-1.9,1.9
				c-0.2,0.3-0.5,0.5-0.9,0.6c-0.3,0.1-0.7,0-1-0.3c-0.3-0.2-0.6-0.5-0.6-0.9c-0.1-0.4,0-0.7,0.2-1.1c0.7-1.1,1.6-2,2.7-2.7
				S237.3,15.5,238.9,15.5z"/>
		</g>
		<g style="enable-background:new    ;">
			<path d="M293.4,15.5c1.2,0,2.3,0.2,3.2,0.5c0.9,0.3,1.7,0.7,2.3,1.3c0.6,0.5,1.1,1.2,1.4,1.9c0.3,0.7,0.5,1.5,0.5,2.3v0.2
				c0,0.6-0.1,1.1-0.2,1.6c-0.2,0.5-0.4,1-0.7,1.5c-0.3,0.5-0.7,0.9-1.2,1.3s-1.1,0.7-1.8,0.9c0.7,0.1,1.3,0.3,1.9,0.6
				c0.6,0.3,1.1,0.6,1.5,1c0.4,0.4,0.8,0.9,1,1.6c0.3,0.6,0.4,1.3,0.4,2.1v0.3c0,0.9-0.2,1.7-0.5,2.5c-0.3,0.8-0.8,1.5-1.5,2.1
				s-1.5,1.1-2.5,1.5c-1,0.4-2.2,0.5-3.5,0.5c-2.5,0-4.7-0.6-6.5-1.9c-0.4-0.3-0.6-0.6-0.7-1c-0.1-0.4,0-0.8,0.3-1.1
				c0.2-0.4,0.5-0.6,0.9-0.7c0.3-0.1,0.7,0,1.1,0.2c0.8,0.5,1.5,0.9,2.3,1.2c0.8,0.3,1.6,0.4,2.5,0.4c0.9,0,1.6-0.1,2.3-0.3
				c0.6-0.2,1.1-0.5,1.5-0.9c0.4-0.4,0.7-0.8,0.9-1.2c0.2-0.5,0.3-1,0.3-1.5V32c0-0.7-0.1-1.3-0.4-1.8s-0.6-0.9-1-1.1
				c-0.4-0.3-1-0.5-1.6-0.6c-0.6-0.1-1.3-0.2-2-0.2h-1.8c-0.4,0-0.7-0.1-0.9-0.4c-0.2-0.3-0.3-0.6-0.3-1c0-0.4,0.1-0.7,0.3-1
				c0.2-0.3,0.5-0.4,0.9-0.4h1.5c1.3,0,2.3-0.3,3.2-0.9c0.8-0.6,1.2-1.6,1.2-2.9v-0.1c0-1-0.3-1.8-1-2.4c-0.7-0.6-1.7-0.9-3.1-0.9
				c-0.9,0-1.6,0.2-2.3,0.5c-0.6,0.3-1.2,0.8-1.8,1.4c-0.3,0.3-0.6,0.4-1,0.4c-0.4,0-0.7-0.2-0.9-0.5c-0.3-0.3-0.4-0.6-0.4-1
				c0-0.4,0.1-0.7,0.4-1c0.6-0.8,1.4-1.4,2.4-1.9C290.9,15.7,292.1,15.5,293.4,15.5z"/>
		</g>
		<g style="enable-background:new    ;">
			<path d="M352.4,15.9c0.3,0.2,0.6,0.5,0.7,0.9c0.1,0.4,0,0.7-0.3,1.2l-8.9,13.2h7.6v-5.9c0-0.5,0.2-0.8,0.5-1
				c0.3-0.2,0.7-0.3,1.1-0.3c0.4,0,0.8,0.1,1.1,0.3c0.3,0.2,0.5,0.6,0.5,1v5.9h2.3c0.4,0,0.7,0.1,0.8,0.4c0.2,0.3,0.2,0.6,0.2,0.9
				c0,0.4-0.1,0.7-0.2,0.9c-0.2,0.3-0.4,0.4-0.8,0.4h-2.3v3.7c0,0.5-0.2,0.8-0.5,1c-0.3,0.2-0.7,0.3-1.1,0.3c-0.4,0-0.8-0.1-1.1-0.3
				c-0.3-0.2-0.5-0.6-0.5-1v-3.7h-9.4c-0.7,0-1.3-0.1-1.6-0.4c-0.3-0.3-0.5-0.7-0.5-1.2c0-0.2,0-0.4,0.1-0.7
				c0.1-0.2,0.3-0.6,0.7-1.2l9.5-14c0.3-0.4,0.6-0.6,0.9-0.6C351.8,15.6,352.1,15.7,352.4,15.9z"/>
		</g>
		<g style="enable-background:new    ;">
			<path d="M412.5,16.3c0.2,0.3,0.3,0.6,0.3,1c0,0.4-0.1,0.7-0.3,1c-0.2,0.3-0.5,0.4-0.9,0.4h-8.6l-0.4,7.1c0.5-0.4,1.2-0.8,1.9-1
				c0.7-0.3,1.6-0.4,2.6-0.4c1.1,0,2.1,0.2,2.9,0.5s1.6,0.9,2.1,1.5c0.6,0.6,1,1.4,1.3,2.2s0.5,1.8,0.5,2.8v0.4
				c0,0.9-0.1,1.8-0.4,2.7c-0.3,0.9-0.7,1.7-1.4,2.4c-0.6,0.7-1.5,1.3-2.5,1.7c-1,0.4-2.2,0.7-3.7,0.7c-1.4,0-2.7-0.2-3.8-0.5
				c-1.1-0.3-2.1-0.8-3-1.4c-0.4-0.3-0.6-0.6-0.7-1c-0.1-0.4,0-0.8,0.3-1.1c0.5-0.8,1.1-1,1.9-0.5c0.7,0.5,1.5,0.8,2.4,1.1
				c0.8,0.3,1.8,0.4,2.9,0.4c0.8,0,1.6-0.1,2.2-0.4c0.6-0.2,1.1-0.6,1.5-1c0.4-0.4,0.7-0.9,0.9-1.4c0.2-0.5,0.3-1.1,0.3-1.8v-0.2
				c0-1.5-0.4-2.6-1.2-3.3c-0.8-0.8-1.9-1.1-3.4-1.1c-0.8,0-1.6,0.1-2.2,0.4c-0.7,0.3-1.3,0.6-1.8,1.1c-0.3,0.2-0.5,0.4-0.7,0.5
				c-0.2,0.1-0.4,0.1-0.7,0.1c-0.4,0-0.7-0.1-1-0.3c-0.3-0.2-0.4-0.5-0.3-0.8l0.5-9.6c0-0.5,0.1-0.9,0.2-1.2
				c0.1-0.3,0.2-0.6,0.4-0.8c0.2-0.2,0.4-0.3,0.7-0.4c0.3-0.1,0.7-0.1,1.1-0.1h9.1C412,15.8,412.3,16,412.5,16.3z"/>
		</g>
		<g style="enable-background:new    ;">
			<path d="M462.1,15.5c1,0,2,0.1,2.8,0.3c0.9,0.2,1.6,0.5,2.2,0.8c0.4,0.2,0.6,0.5,0.7,0.9c0.1,0.3,0.1,0.7-0.1,1
				c-0.2,0.4-0.4,0.6-0.7,0.8c-0.3,0.1-0.7,0.1-1.1-0.1c-0.6-0.3-1.2-0.5-1.8-0.6c-0.6-0.1-1.3-0.2-2.1-0.2c-3.3,0-5.2,2.7-5.5,8
				c0.5-0.8,1.3-1.5,2.3-1.9c1-0.5,2.1-0.7,3.2-0.7c1.1,0,2.1,0.2,3,0.5c0.9,0.3,1.6,0.8,2.2,1.5s1.1,1.4,1.4,2.3
				c0.3,0.9,0.5,1.9,0.5,3v0.5c0,1.1-0.2,2.1-0.6,3c-0.4,0.9-0.9,1.7-1.6,2.4c-0.7,0.7-1.5,1.2-2.5,1.5c-1,0.4-2,0.5-3.2,0.5
				c-2.6,0-4.6-0.8-5.9-2.5c-1.3-1.7-2-4.1-2-7.2v-0.9c0-2.5,0.2-4.6,0.7-6.2c0.4-1.7,1.1-3,1.8-4c0.8-1,1.7-1.7,2.8-2.1
				C459.7,15.7,460.9,15.5,462.1,15.5z M461.4,26.6c-0.8,0-1.5,0.1-2.1,0.4c-0.6,0.2-1.1,0.6-1.5,1s-0.7,0.9-0.9,1.4
				c-0.2,0.5-0.3,1.1-0.3,1.7v0.3c0,1.5,0.4,2.7,1.2,3.5c0.8,0.9,1.9,1.3,3.4,1.3c1.5,0,2.6-0.4,3.5-1.2c0.8-0.8,1.3-2,1.3-3.5v-0.2
				C466,28.1,464.4,26.6,461.4,26.6z"/>
		</g>
		<g style="enable-background:new    ;">
			<path d="M525.6,16.3c0.3,0.3,0.5,0.7,0.5,1.3c0,0.2,0,0.3,0,0.4c0,0.1-0.1,0.3-0.1,0.5c-0.1,0.2-0.1,0.4-0.3,0.7
				c-0.1,0.3-0.2,0.6-0.4,1l-8,17.9c-0.2,0.5-0.5,0.7-0.9,0.8c-0.4,0.1-0.8,0-1.1-0.1c-0.4-0.2-0.6-0.4-0.8-0.7
				c-0.2-0.3-0.2-0.7,0-1.2l8.2-18.1h-11.5c-0.4,0-0.7-0.1-0.8-0.4c-0.2-0.3-0.3-0.6-0.3-1c0-0.4,0.1-0.7,0.3-1
				c0.2-0.3,0.5-0.4,0.8-0.4h12.7C524.7,15.8,525.3,16,525.6,16.3z"/>
		</g>
		<g style="enable-background:new    ;">
			<path d="M573,15.5c1.1,0,2.1,0.2,3,0.5c0.9,0.3,1.6,0.8,2.2,1.3c0.6,0.6,1.1,1.2,1.4,1.9c0.3,0.7,0.5,1.5,0.5,2.4v0.3
				c0,1-0.3,1.9-0.8,2.8c-0.6,0.9-1.4,1.7-2.5,2.2c1.2,0.3,2.1,1,2.9,2c0.8,1,1.1,2.1,1.1,3.4v0.4c0,0.9-0.2,1.8-0.5,2.6
				c-0.3,0.8-0.8,1.5-1.5,2s-1.4,1-2.4,1.3c-0.9,0.3-2,0.5-3.2,0.5c-1.2,0-2.3-0.2-3.3-0.5c-1-0.3-1.8-0.8-2.4-1.3s-1.2-1.2-1.5-2
				s-0.5-1.6-0.5-2.6v-0.4c0-0.6,0.1-1.2,0.3-1.8c0.2-0.6,0.5-1.1,0.9-1.6c0.4-0.5,0.8-0.9,1.3-1.2c0.5-0.3,1-0.6,1.6-0.8
				c-1.1-0.5-1.9-1.3-2.5-2.2c-0.6-0.9-0.9-1.9-0.9-2.9v-0.3c0-0.8,0.2-1.6,0.5-2.4c0.3-0.7,0.8-1.4,1.3-1.9c0.6-0.6,1.3-1,2.2-1.3
				C570.9,15.6,571.9,15.5,573,15.5z M573.1,28.5c-0.6,0-1.2,0.1-1.7,0.2c-0.5,0.2-1,0.4-1.4,0.7c-0.4,0.3-0.7,0.7-1,1.2
				c-0.2,0.5-0.4,1.1-0.4,1.7v0.2c0,1.1,0.4,2,1.2,2.7c0.8,0.7,1.9,1,3.3,1c1.4,0,2.5-0.3,3.3-1c0.8-0.7,1.2-1.6,1.2-2.7v-0.2
				c0-0.6-0.1-1.2-0.3-1.7s-0.5-0.9-0.9-1.2c-0.4-0.3-0.9-0.6-1.4-0.7C574.3,28.5,573.7,28.5,573.1,28.5z M573.1,18.3
				c-1.2,0-2.1,0.3-2.8,0.9c-0.7,0.6-1.1,1.5-1.1,2.6V22c0,0.6,0.1,1.1,0.3,1.5c0.2,0.4,0.5,0.8,0.8,1.1c0.3,0.3,0.8,0.5,1.2,0.7
				c0.5,0.2,1,0.2,1.5,0.2c1.1,0,2-0.3,2.7-0.9c0.7-0.6,1.1-1.5,1.1-2.7v-0.2c0-1.1-0.3-2-1-2.6C575.2,18.6,574.3,18.3,573.1,18.3z"
				/>
		</g>
		<g style="enable-background:new    ;">
			<path d="M627.8,15.5c2.6,0,4.6,0.8,5.9,2.5c1.3,1.7,2,4.1,2,7.2v0.9c0,2.6-0.2,4.7-0.6,6.3c-0.4,1.7-1,3-1.8,4
				c-0.8,1-1.7,1.7-2.8,2c-1.1,0.4-2.3,0.6-3.6,0.6c-1,0-1.9-0.1-2.8-0.3c-0.9-0.2-1.6-0.5-2.2-0.9c-0.4-0.2-0.6-0.5-0.7-0.9
				c-0.1-0.3,0-0.7,0.1-1.1c0.2-0.4,0.4-0.6,0.7-0.8c0.3-0.1,0.7-0.1,1.1,0.1c0.6,0.3,1.2,0.5,1.8,0.6c0.6,0.2,1.3,0.2,2.1,0.2
				c0.9,0,1.7-0.1,2.3-0.4c0.7-0.3,1.2-0.7,1.7-1.4c0.5-0.6,0.8-1.5,1-2.5c0.2-1,0.4-2.2,0.5-3.7c-0.5,0.8-1.3,1.5-2.3,1.9
				c-1,0.5-2.1,0.7-3.2,0.7c-1.1,0-2.1-0.2-3-0.5s-1.6-0.8-2.2-1.5c-0.6-0.6-1.1-1.4-1.4-2.3c-0.3-0.9-0.5-1.9-0.5-3V23
				c0-1.1,0.2-2.1,0.6-3c0.4-0.9,0.9-1.7,1.6-2.4c0.7-0.7,1.5-1.2,2.4-1.5C625.5,15.7,626.6,15.5,627.8,15.5z M627.9,18.4
				c-1.5,0-2.6,0.4-3.5,1.2c-0.8,0.8-1.3,2-1.3,3.5v0.3c0,3.1,1.5,4.7,4.6,4.7c0.8,0,1.5-0.1,2.1-0.4c0.6-0.2,1.1-0.6,1.5-1
				c0.4-0.4,0.7-0.9,0.9-1.4s0.3-1.1,0.3-1.7v-0.3c0-1.5-0.4-2.7-1.2-3.6C630.4,18.8,629.3,18.4,627.9,18.4z"/>
		</g>
		<g style="enable-background:new    ;">
			<path d="M675.8,15.7c0.5,0,0.9,0.1,1.2,0.3c0.3,0.2,0.5,0.6,0.5,1.1v20.5c0,0.5-0.2,0.8-0.5,1c-0.3,0.2-0.7,0.3-1.1,0.3
				s-0.8-0.1-1.1-0.3c-0.3-0.2-0.5-0.6-0.5-1V19.5l-4.7,3c-0.4,0.2-0.8,0.3-1.1,0.1c-0.4-0.1-0.6-0.4-0.9-0.8
				c-0.2-0.3-0.2-0.7-0.2-1.1c0.1-0.4,0.3-0.7,0.6-0.9l5.7-3.4c0.4-0.2,0.8-0.4,1.1-0.5C675.1,15.7,675.4,15.7,675.8,15.7z"/>
			<path d="M692,15.5c2.8,0,4.9,0.9,6.2,2.8c1.3,1.9,1.9,4.6,1.9,8.2v1.6c0,3.6-0.6,6.3-1.9,8.2c-1.3,1.9-3.3,2.8-6.2,2.8
				c-2.8,0-4.9-0.9-6.2-2.8c-1.3-1.9-1.9-4.6-1.9-8.2v-1.6c0-3.6,0.6-6.3,1.9-8.2C687.1,16.4,689.1,15.5,692,15.5z M692,18.5
				c-0.9,0-1.7,0.2-2.3,0.5c-0.6,0.3-1.1,0.8-1.5,1.5s-0.6,1.5-0.8,2.6c-0.2,1-0.2,2.3-0.2,3.7v1.1c0,1.4,0.1,2.7,0.2,3.7
				c0.2,1,0.4,1.9,0.8,2.6s0.9,1.2,1.5,1.5c0.6,0.3,1.4,0.5,2.3,0.5c0.9,0,1.7-0.2,2.3-0.5c0.6-0.3,1.1-0.8,1.5-1.5s0.6-1.5,0.8-2.6
				c0.2-1,0.2-2.3,0.2-3.7v-1.1c0-1.4-0.1-2.7-0.2-3.7c-0.2-1-0.4-1.9-0.8-2.6s-0.9-1.2-1.5-1.5C693.7,18.7,692.9,18.5,692,18.5z"/>
		</g>
		<g style="enable-background:new    ;">
			<path d="M730.7,15.7c0.5,0,0.9,0.1,1.2,0.3c0.3,0.2,0.5,0.6,0.5,1.1v20.5c0,0.5-0.2,0.8-0.5,1c-0.3,0.2-0.7,0.3-1.1,0.3
				s-0.8-0.1-1.1-0.3c-0.3-0.2-0.5-0.6-0.5-1V19.5l-4.7,3c-0.4,0.2-0.8,0.3-1.1,0.1c-0.4-0.1-0.6-0.4-0.9-0.8
				c-0.2-0.3-0.2-0.7-0.2-1.1c0.1-0.4,0.3-0.7,0.6-0.9l5.7-3.4c0.4-0.2,0.8-0.4,1.1-0.5C730,15.7,730.3,15.7,730.7,15.7z"/>
			<path d="M749,15.7c0.5,0,0.9,0.1,1.2,0.3c0.3,0.2,0.5,0.6,0.5,1.1v20.5c0,0.5-0.2,0.8-0.5,1c-0.3,0.2-0.7,0.3-1.1,0.3
				s-0.8-0.1-1.1-0.3c-0.3-0.2-0.5-0.6-0.5-1V19.5l-4.7,3c-0.4,0.2-0.8,0.3-1.1,0.1c-0.4-0.1-0.6-0.4-0.9-0.8
				c-0.2-0.3-0.2-0.7-0.2-1.1c0.1-0.4,0.3-0.7,0.6-0.9l5.7-3.4c0.4-0.2,0.8-0.4,1.1-0.5C748.3,15.7,748.7,15.7,749,15.7z"/>
		</g>
		<g style="enable-background:new    ;">
			<path d="M788,15.7c0.5,0,0.9,0.1,1.2,0.3c0.3,0.2,0.5,0.6,0.5,1.1v20.5c0,0.5-0.2,0.8-0.5,1c-0.3,0.2-0.7,0.3-1.1,0.3
				s-0.8-0.1-1.1-0.3c-0.3-0.2-0.5-0.6-0.5-1V19.5l-4.7,3c-0.4,0.2-0.8,0.3-1.1,0.1c-0.4-0.1-0.6-0.4-0.9-0.8
				c-0.2-0.3-0.2-0.7-0.2-1.1c0.1-0.4,0.3-0.7,0.6-0.9l5.7-3.4c0.4-0.2,0.8-0.4,1.1-0.5C787.3,15.7,787.6,15.7,788,15.7z"/>
			<path d="M804,15.5c1.2,0,2.2,0.2,3.1,0.5c0.9,0.3,1.6,0.7,2.2,1.2c0.6,0.5,1,1.1,1.3,1.9s0.4,1.5,0.4,2.3v0.3
				c0,1.2-0.3,2.4-0.8,3.4c-0.5,1-1.3,2.1-2.4,3.3l-7.3,7.8H811c0.4,0,0.7,0.1,0.8,0.4c0.2,0.3,0.3,0.6,0.3,0.9c0,0.4-0.1,0.7-0.3,1
				c-0.2,0.3-0.5,0.4-0.8,0.4h-12.2c-0.8,0-1.4-0.1-1.8-0.4c-0.4-0.3-0.5-0.7-0.5-1.3c0-0.3,0.1-0.5,0.2-0.8
				c0.1-0.3,0.4-0.6,0.7-0.9l7.7-8.3c0.6-0.6,1-1.1,1.4-1.6c0.3-0.5,0.6-0.9,0.8-1.3c0.2-0.4,0.4-0.8,0.4-1.2
				c0.1-0.4,0.1-0.8,0.1-1.2v-0.2c0-0.9-0.3-1.7-1-2.3c-0.6-0.6-1.6-0.8-2.9-0.8c-1.1,0-1.9,0.2-2.7,0.7c-0.7,0.4-1.4,1.1-1.9,1.9
				c-0.2,0.3-0.5,0.5-0.9,0.6c-0.3,0.1-0.7,0-1-0.3c-0.3-0.2-0.6-0.5-0.6-0.9c-0.1-0.4,0-0.7,0.2-1.1c0.7-1.1,1.6-2,2.7-2.7
				S802.4,15.5,804,15.5z"/>
		</g>
		<g style="enable-background:new    ;">
			<path d="M842.8,15.7c0.5,0,0.9,0.1,1.2,0.3c0.3,0.2,0.5,0.6,0.5,1.1v20.5c0,0.5-0.2,0.8-0.5,1c-0.3,0.2-0.7,0.3-1.1,0.3
				s-0.8-0.1-1.1-0.3c-0.3-0.2-0.5-0.6-0.5-1V19.5l-4.7,3c-0.4,0.2-0.8,0.3-1.1,0.1c-0.4-0.1-0.6-0.4-0.9-0.8
				c-0.2-0.3-0.2-0.7-0.2-1.1c0.1-0.4,0.3-0.7,0.6-0.9l5.7-3.4c0.4-0.2,0.8-0.4,1.1-0.5C842.1,15.7,842.4,15.7,842.8,15.7z"/>
			<path d="M858.4,15.5c1.2,0,2.3,0.2,3.2,0.5c0.9,0.3,1.7,0.7,2.3,1.3s1.1,1.2,1.4,1.9s0.5,1.5,0.5,2.3v0.2c0,0.6-0.1,1.1-0.2,1.6
				c-0.2,0.5-0.4,1-0.7,1.5c-0.3,0.5-0.7,0.9-1.2,1.3c-0.5,0.4-1.1,0.7-1.8,0.9c0.7,0.1,1.3,0.3,1.9,0.6c0.6,0.3,1.1,0.6,1.5,1
				c0.4,0.4,0.8,0.9,1,1.6c0.3,0.6,0.4,1.3,0.4,2.1v0.3c0,0.9-0.2,1.7-0.5,2.5c-0.3,0.8-0.8,1.5-1.5,2.1s-1.5,1.1-2.5,1.5
				c-1,0.4-2.2,0.5-3.5,0.5c-2.5,0-4.7-0.6-6.5-1.9c-0.4-0.3-0.6-0.6-0.7-1c-0.1-0.4,0-0.8,0.3-1.1c0.2-0.4,0.5-0.6,0.9-0.7
				c0.3-0.1,0.7,0,1.1,0.2c0.8,0.5,1.5,0.9,2.3,1.2c0.8,0.3,1.6,0.4,2.5,0.4c0.9,0,1.6-0.1,2.3-0.3c0.6-0.2,1.1-0.5,1.5-0.9
				c0.4-0.4,0.7-0.8,0.9-1.2c0.2-0.5,0.3-1,0.3-1.5V32c0-0.7-0.1-1.3-0.4-1.8c-0.3-0.5-0.6-0.9-1-1.1c-0.4-0.3-1-0.5-1.6-0.6
				c-0.6-0.1-1.3-0.2-2-0.2h-1.8c-0.4,0-0.7-0.1-0.9-0.4s-0.3-0.6-0.3-1c0-0.4,0.1-0.7,0.3-1c0.2-0.3,0.5-0.4,0.9-0.4h1.5
				c1.3,0,2.3-0.3,3.2-0.9c0.8-0.6,1.2-1.6,1.2-2.9v-0.1c0-1-0.3-1.8-1-2.4c-0.7-0.6-1.7-0.9-3.1-0.9c-0.9,0-1.6,0.2-2.3,0.5
				c-0.6,0.3-1.2,0.8-1.8,1.4c-0.3,0.3-0.6,0.4-1,0.4s-0.7-0.2-0.9-0.5c-0.3-0.3-0.4-0.6-0.4-1c0-0.4,0.1-0.7,0.4-1
				c0.6-0.8,1.4-1.4,2.4-1.9C855.9,15.7,857.1,15.5,858.4,15.5z"/>
		</g>
		<g style="enable-background:new    ;">
			<path d="M895.3,15.7c0.5,0,0.9,0.1,1.2,0.3c0.3,0.2,0.5,0.6,0.5,1.1v20.5c0,0.5-0.2,0.8-0.5,1c-0.3,0.2-0.7,0.3-1.1,0.3
				s-0.8-0.1-1.1-0.3c-0.3-0.2-0.5-0.6-0.5-1V19.5l-4.7,3c-0.4,0.2-0.8,0.3-1.1,0.1c-0.4-0.1-0.6-0.4-0.9-0.8
				c-0.2-0.3-0.2-0.7-0.2-1.1c0.1-0.4,0.3-0.7,0.6-0.9l5.7-3.4c0.4-0.2,0.8-0.4,1.1-0.5C894.6,15.7,894.9,15.7,895.3,15.7z"/>
			<path d="M915.2,15.9c0.3,0.2,0.6,0.5,0.7,0.9c0.1,0.4,0,0.7-0.3,1.2l-8.9,13.2h7.6v-5.9c0-0.5,0.2-0.8,0.5-1
				c0.3-0.2,0.7-0.3,1.1-0.3c0.4,0,0.8,0.1,1.1,0.3c0.3,0.2,0.5,0.6,0.5,1v5.9h2.3c0.4,0,0.7,0.1,0.8,0.4c0.2,0.3,0.2,0.6,0.2,0.9
				c0,0.4-0.1,0.7-0.2,0.9c-0.2,0.3-0.4,0.4-0.8,0.4h-2.3v3.7c0,0.5-0.2,0.8-0.5,1c-0.3,0.2-0.7,0.3-1.1,0.3c-0.4,0-0.8-0.1-1.1-0.3
				c-0.3-0.2-0.5-0.6-0.5-1v-3.7h-9.4c-0.7,0-1.3-0.1-1.6-0.4c-0.3-0.3-0.5-0.7-0.5-1.2c0-0.2,0-0.4,0.1-0.7
				c0.1-0.2,0.3-0.6,0.7-1.2l9.5-14c0.3-0.4,0.6-0.6,0.9-0.6C914.5,15.6,914.8,15.7,915.2,15.9z"/>
		</g>
	</g>
</g>
</svg>
