
<svg xmlns="http://www.w3.org/2000/svg" version="1.1" xmlns:xlink="http://www.w3.org/1999/xlink" preserveAspectRatio="none" x="0px" y="0px" width="1280px" height="720px" viewBox="0 0 1280 720">
<defs>
<g id="Layer1_0_FILL">
<path fill="#7A94C2" stroke="none" d="
M 841.3 561.05
L 841.3 580.1
Q 841.3 590.1 851.3 590.1
L 896.35 590.1
Q 906.35 590.1 906.35 580.1
L 906.35 561.05
Q 906.35 551.05 896.35 551.05
L 851.3 551.05
Q 841.3 551.05 841.3 561.05
M 878 561.3
Q 878 561.15 878.05 561.05 878.05 560.9 878.15 560.8 878.2 560.7 878.25 560.65 878.35 560.55 878.45 560.5 878.55 560.45 878.65 560.4 878.8 560.4 878.9 560.35 879.05 560.35 879.15 560.3 879.3 560.3 879.45 560.3 879.7 560.3 879.95 560.35 880.2 560.4 880.4 560.5 880.8 560.7 880.8 561.3
L 880.8 563.95 882.7 563.95
Q 883 563.95 883.2 564.05 883.4 564.15 883.5 564.3 883.6 564.7 883.6 565.2 883.6 565.45 883.6 565.65 883.55 565.85 883.5 566.05 883.35 566.45 882.7 566.45
L 880.8 566.45 880.8 568.9
Q 880.8 569.2 880.7 569.4 880.6 569.6 880.4 569.7 880.2 569.8 879.95 569.85 879.7 569.9 879.45 569.9 879.3 569.9 879.15 569.9 879.05 569.85 878.9 569.85 878.8 569.85 878.65 569.8 878.55 569.75 878.45 569.7 878.35 569.65 878.25 569.55 878.2 569.45 878.15 569.35 878.05 569.25 878.05 569.15 878 569.05 878 568.9
L 878 561.3
M 869.25 571.9
Q 869.3 571.8 869.4 571.75 869.45 571.65 869.55 571.6 869.65 571.55 869.75 571.5 869.85 571.45 870 571.4 870.15 571.35 870.25 571.35 870.4 571.3 870.45 571.3 870.55 571.3 870.7 571.35 870.8 571.35 871 571.4 871.1 571.45 871.2 571.5 871.3 571.55 871.4 571.6 871.5 571.65 871.6 571.75 871.7 571.8 871.8 571.9 871.9 572 871.9 572.1 871.95 572.25 871.95 572.35
L 871.95 573.4 877.7 573.4 877.7 572.35
Q 877.7 572.1 877.8 571.9 877.9 571.75 878.1 571.6 878.35 571.45 878.6 571.4 878.8 571.3 879.1 571.3 879.15 571.3 879.3 571.35 879.4 571.35 879.55 571.4 879.8 571.5 880.05 571.6 880.15 571.65 880.2 571.75 880.3 571.8 880.4 571.9 880.5 572 880.55 572.1 880.55 572.25 880.55 572.35
L 880.55 577.9
Q 880.55 578.3 880.45 578.65 880.3 578.95 880.05 579.2 879.75 579.45 879.4 579.55 879.1 579.7 878.75 579.7
L 870.75 579.7
Q 870.3 579.7 870 579.55 869.7 579.45 869.55 579.2 869.3 578.95 869.25 578.65 869.15 578.3 869.15 577.9
L 869.15 572.35
Q 869.15 572.25 869.15 572.1 869.2 572 869.25 571.9
M 875.7 562.45
Q 875.7 562.75 875.65 563 875.6 563.25 875.5 563.4 875.4 563.55 875.2 563.6 875 563.65 874.7 563.65
L 869.55 563.65 869.55 566.55
Q 869.55 566.87265625 869.55 567 870.3 567 871.05 566.95 871.85 566.95 872.65 566.85 873.45 566.8 874.2 566.7 874.95 566.65 875.7 566.5 875.8 566.5 875.9 566.5 876.05 566.5 876.15 566.5 876.3 566.5 876.35 566.5 876.45 566.55 876.55 566.55 876.55 566.6 876.65 566.7 876.65 566.75 876.75 566.85 876.8 566.95 876.8 567.1 876.85 567.25 876.9 567.45 877 567.8 877 568.05 877 568.3 876.9 568.5 876.65 568.85 876 568.9 875.2 569.05 874.4 569.15 873.6 569.25 872.8 569.3 872 569.4 871.2 569.45 870.4 569.5 869.55 569.55 869.15 569.55 868.8 569.5 868.5 569.5 868.25 569.5 868 569.45 867.75 569.4 867.55 569.35 867.4 569.2 867.15 569.1 867.05 568.95 866.9 568.8 866.85 568.55 866.7 568.1 866.7 567.3
L 866.7 563.5
Q 866.7 563.1 866.75 562.8 866.8 562.5 866.85 562.25 866.9 562 867.05 561.85 867.15 561.65 867.4 561.5 867.55 561.4 867.75 561.35 868 561.25 868.25 561.25 868.5 561.2 868.8 561.2 869.15 561.2 869.55 561.2
L 874.7 561.2
Q 875 561.2 875.2 561.25 875.4 561.3 875.5 561.4 875.6 561.5 875.65 561.75 875.7 562.05 875.7 562.45
M 872.2 575.75
Q 872.1 575.8 872.05 575.8 872 575.85 872 575.95 871.95 576 871.95 576.15
L 871.95 577.05
Q 871.95 577.2 872 577.25 872 577.35 872.05 577.35 872.1 577.4 872.2 577.4 872.3 577.4 872.4 577.4
L 877.25 577.4
Q 877.35 577.4 877.4 577.4 877.5 577.4 877.55 577.35 877.6 577.35 877.65 577.25 877.7 577.2 877.7 577.05
L 877.7 576.15
Q 877.7 576 877.65 575.95 877.6 575.85 877.55 575.8 877.5 575.8 877.4 575.75 877.35 575.7 877.25 575.7
L 872.4 575.7
Q 872.3 575.7 872.2 575.75 Z"/>

<path fill="#FFFFFF" stroke="none" d="
M 875.65 563
Q 875.7 562.75 875.7 562.45 875.7 562.05 875.65 561.75 875.6 561.5 875.5 561.4 875.4 561.3 875.2 561.25 875 561.2 874.7 561.2
L 869.55 561.2
Q 869.15 561.2 868.8 561.2 868.5 561.2 868.25 561.25 868 561.25 867.75 561.35 867.55 561.4 867.4 561.5 867.15 561.65 867.05 561.85 866.9 562 866.85 562.25 866.8 562.5 866.75 562.8 866.7 563.1 866.7 563.5
L 866.7 567.3
Q 866.7 568.1 866.85 568.55 866.9 568.8 867.05 568.95 867.15 569.1 867.4 569.2 867.55 569.35 867.75 569.4 868 569.45 868.25 569.5 868.5 569.5 868.8 569.5 869.15 569.55 869.55 569.55 870.4 569.5 871.2 569.45 872 569.4 872.8 569.3 873.6 569.25 874.4 569.15 875.2 569.05 876 568.9 876.65 568.85 876.9 568.5 877 568.3 877 568.05 877 567.8 876.9 567.45 876.85 567.25 876.8 567.1 876.8 566.95 876.75 566.85 876.65 566.75 876.65 566.7 876.55 566.6 876.55 566.55 876.45 566.55 876.35 566.5 876.3 566.5 876.15 566.5 876.05 566.5 875.9 566.5 875.8 566.5 875.7 566.5 874.95 566.65 874.2 566.7 873.45 566.8 872.65 566.85 871.85 566.95 871.05 566.95 870.3 567 869.55 567 869.55 566.87265625 869.55 566.55
L 869.55 563.65 874.7 563.65
Q 875 563.65 875.2 563.6 875.4 563.55 875.5 563.4 875.6 563.25 875.65 563
M 869.4 571.75
Q 869.3 571.8 869.25 571.9 869.2 572 869.15 572.1 869.15 572.25 869.15 572.35
L 869.15 577.9
Q 869.15 578.3 869.25 578.65 869.3 578.95 869.55 579.2 869.7 579.45 870 579.55 870.3 579.7 870.75 579.7
L 878.75 579.7
Q 879.1 579.7 879.4 579.55 879.75 579.45 880.05 579.2 880.3 578.95 880.45 578.65 880.55 578.3 880.55 577.9
L 880.55 572.35
Q 880.55 572.25 880.55 572.1 880.5 572 880.4 571.9 880.3 571.8 880.2 571.75 880.15 571.65 880.05 571.6 879.8 571.5 879.55 571.4 879.4 571.35 879.3 571.35 879.15 571.3 879.1 571.3 878.8 571.3 878.6 571.4 878.35 571.45 878.1 571.6 877.9 571.75 877.8 571.9 877.7 572.1 877.7 572.35
L 877.7 573.4 871.95 573.4 871.95 572.35
Q 871.95 572.25 871.9 572.1 871.9 572 871.8 571.9 871.7 571.8 871.6 571.75 871.5 571.65 871.4 571.6 871.3 571.55 871.2 571.5 871.1 571.45 871 571.4 870.8 571.35 870.7 571.35 870.55 571.3 870.45 571.3 870.4 571.3 870.25 571.35 870.15 571.35 870 571.4 869.85 571.45 869.75 571.5 869.65 571.55 869.55 571.6 869.45 571.65 869.4 571.75
M 872.05 575.8
Q 872.1 575.8 872.2 575.75 872.3 575.7 872.4 575.7
L 877.25 575.7
Q 877.35 575.7 877.4 575.75 877.5 575.8 877.55 575.8 877.6 575.85 877.65 575.95 877.7 576 877.7 576.15
L 877.7 577.05
Q 877.7 577.2 877.65 577.25 877.6 577.35 877.55 577.35 877.5 577.4 877.4 577.4 877.35 577.4 877.25 577.4
L 872.4 577.4
Q 872.3 577.4 872.2 577.4 872.1 577.4 872.05 577.35 872 577.35 872 577.25 871.95 577.2 871.95 577.05
L 871.95 576.15
Q 871.95 576 872 575.95 872 575.85 872.05 575.8
M 878.05 561.05
Q 878 561.15 878 561.3
L 878 568.9
Q 878 569.05 878.05 569.15 878.05 569.25 878.15 569.35 878.2 569.45 878.25 569.55 878.35 569.65 878.45 569.7 878.55 569.75 878.65 569.8 878.8 569.85 878.9 569.85 879.05 569.85 879.15 569.9 879.3 569.9 879.45 569.9 879.7 569.9 879.95 569.85 880.2 569.8 880.4 569.7 880.6 569.6 880.7 569.4 880.8 569.2 880.8 568.9
L 880.8 566.45 882.7 566.45
Q 883.35 566.45 883.5 566.05 883.55 565.85 883.6 565.65 883.6 565.45 883.6 565.2 883.6 564.7 883.5 564.3 883.4 564.15 883.2 564.05 883 563.95 882.7 563.95
L 880.8 563.95 880.8 561.3
Q 880.8 560.7 880.4 560.5 880.2 560.4 879.95 560.35 879.7 560.3 879.45 560.3 879.3 560.3 879.15 560.3 879.05 560.35 878.9 560.35 878.8 560.4 878.65 560.4 878.55 560.45 878.45 560.5 878.35 560.55 878.25 560.65 878.2 560.7 878.15 560.8 878.05 560.9 878.05 561.05
M 547.6 327.55
Q 547.6 312.55 532.6 312.55
L 502.6 312.55
Q 487.6 312.55 487.6 327.55
L 487.6 357.6
Q 487.6 372.6 502.6 372.6
L 532.6 372.6
Q 547.6 372.6 547.6 357.6
L 547.6 327.55 Z"/>

<path fill="#1E1E1E" stroke="none" d="
M 633.3 367.65
Q 633.3 367.3 633.25 367.2 633.2 367.05 632.9 367.05
L 629.25 367.05
Q 628.85 367.05 628.75 367.15 628.65 367.25 628.45 367.6
L 616.05 386.2
Q 615.9 386.35 615.75 386.65 615.55 386.95 615.55 387.2
L 615.55 390.2
Q 615.55 390.5 615.7 390.55 615.85 390.65 616.2 390.65
L 629 390.65 629 396.75
Q 629 397.15 629.15 397.3 629.3 397.45 629.75 397.45
L 632.65 397.45
Q 633.05 397.45 633.15 397.3 633.3 397.2 633.3 396.75
L 633.3 390.65 637 390.65
Q 637.35 390.65 637.5 390.55 637.65 390.45 637.65 390.05
L 637.65 387.15
Q 637.65 386.75 637.5 386.65 637.35 386.55 637 386.55
L 633.3 386.55 633.3 367.65
M 629 373.5
L 629 386.55 620.4 386.55 629 373.5
M 586.3 365.8
L 572.6 383.2 586.3 400.65 589.25 398.5 577.15 383.2 589.25 367.95 586.3 365.8
M 523.5 393.7
Q 522.3 392.75 520.6 392.2 518.9 391.7 516.9 391.7 514.95 391.7 513.25 392.25 511.55 392.8 510.3 393.8 509.05 394.8 508.3 396.2 507.55 397.6 507.55 399.3 507.55 401.6 508.95 403.4 510.35 405.2 512.75 406.6 511.55 407.2 510.45 407.9 509.35 408.6 508.55 409.5 507.75 410.4 507.2 411.55 506.75 412.7 506.75 414.2 506.75 416.35 507.65 417.95 508.55 419.6 510 420.65 511.45 421.7 513.25 422.25 515.1 422.8 516.9 422.8 518.85 422.8 520.65 422.25 522.55 421.7 523.95 420.65 525.35 419.6 526.2 417.95 527.1 416.35 527.1 414.2 527.1 412.8 526.65 411.8 526.25 410.75 525.45 409.85 524.65 408.95 523.55 408.15 522.4 407.4 521 406.55 523.6 404.75 524.85 403 526.1 401.2 526.1 399.2 526.1 397.45 525.4 396.05 524.7 394.65 523.5 393.7
M 516.9 395.6
Q 517.85 395.6 518.7 395.95 519.55 396.2 520.2 396.75 520.85 397.3 521.2 398 521.6 398.7 521.6 399.5 521.6 400.2 521.1 401 520.6 401.8 519.85 402.55 519.1 403.25 518.3 403.8 517.55 404.35 516.9 404.6 516.4 404.4 515.6 403.9 514.8 403.45 514 402.75 513.25 402.05 512.7 401.25 512.1 400.45 512.1 399.6 512.1 398.65 512.55 397.9 513 397.2 513.7 396.7 514.35 396.2 515.2 395.9 516.05 395.6 516.9 395.6
M 513.25 410.5
Q 514.1 409.85 515.15 409.45 516.1 409 516.9 408.8 517.9 409.15 518.9 409.75 519.9 410.35 520.75 411.05 521.55 411.8 522.05 412.6 522.55 413.45 522.55 414.2 522.55 415.25 522.05 416.1 521.55 416.95 520.75 417.55 519.95 418.15 518.95 418.45 517.9 418.75 516.9 418.75 515.95 418.75 514.9 418.45 513.9 418.1 513.05 417.5 512.25 416.9 511.75 416.05 511.2 415.2 511.2 414.2 511.2 412.95 511.8 412.05 512.4 411.15 513.25 410.5
M 775.8 391.7
Q 773.85 391.7 772.15 392.25 770.45 392.8 769.2 393.8 767.95 394.8 767.2 396.2 766.45 397.6 766.45 399.3 766.45 401.6 767.85 403.4 769.25 405.2 771.65 406.6 770.45 407.2 769.35 407.9 768.25 408.6 767.45 409.5 766.65 410.4 766.1 411.55 765.65 412.7 765.65 414.2 765.65 416.35 766.55 417.95 767.45 419.6 768.9 420.65 770.35 421.7 772.15 422.25 774 422.8 775.8 422.8 777.75 422.8 779.55 422.25 781.45 421.7 782.85 420.65 784.25 419.6 785.1 417.95 786 416.35 786 414.2 786 412.8 785.55 411.8 785.15 410.75 784.35 409.85 783.55 408.95 782.45 408.15 781.3 407.4 779.9 406.55 782.5 404.75 783.75 403 785 401.2 785 399.2 785 397.45 784.3 396.05 783.6 394.65 782.4 393.7 781.2 392.75 779.5 392.2 777.8 391.7 775.8 391.7
M 774.1 395.9
Q 774.95 395.6 775.8 395.6 776.75 395.6 777.6 395.95 778.45 396.2 779.1 396.75 779.75 397.3 780.1 398 780.5 398.7 780.5 399.5 780.5 400.2 780 401 779.5 401.8 778.75 402.55 778 403.25 777.2 403.8 776.45 404.35 775.8 404.6 775.3 404.4 774.5 403.9 773.7 403.45 772.9 402.75 772.15 402.05 771.6 401.25 771 400.45 771 399.6 771 398.65 771.45 397.9 771.9 397.2 772.6 396.7 773.25 396.2 774.1 395.9
M 775.8 408.8
Q 776.8 409.15 777.8 409.75 778.8 410.35 779.65 411.05 780.45 411.8 780.95 412.6 781.45 413.45 781.45 414.2 781.45 415.25 780.95 416.1 780.45 416.95 779.65 417.55 778.85 418.15 777.85 418.45 776.8 418.75 775.8 418.75 774.85 418.75 773.8 418.45 772.8 418.1 771.95 417.5 771.15 416.9 770.65 416.05 770.1 415.2 770.1 414.2 770.1 412.95 770.7 412.05 771.3 411.15 772.15 410.5 773 409.85 774.05 409.45 775 409 775.8 408.8
M 738.3 367.05
Q 736.6 367.45 734.85 368.05 734.45 368.25 734.3 368.45 734.15 368.6 734.25 368.85
L 734.6 371.8
Q 734.7 372.15 734.9 372.25 735.1 372.35 735.6 372.15 736.2 371.9 737 371.65 737.8 371.4 738.6 371.25 739.4 371.05 740.15 370.95 740.85 370.85 741.4 370.85 742.25 370.85 743.2 371.05 744.15 371.25 745 371.75 745.8 372.2 746.35 373 746.85 373.75 746.85 374.75 746.85 376.1 746.05 377 745.25 377.95 744.05 378.55 742.9 379.15 741.65 379.4 740.4 379.65 739.55 379.65
L 737.65 379.65
Q 737.3 379.65 737.2 379.75 737.1 379.8 737.1 380.2
L 737.1 383.15
Q 737.1 383.45 737.2 383.55 737.3 383.65 737.65 383.65
L 739.6 383.65
Q 741.55 383.65 742.9 384.05 744.3 384.4 745.2 385.1 746.05 385.75 746.5 386.6 746.9 387.45 746.9 388.4 746.9 391.05 744.95 392.4 744.3 392.85 743.55 393.1 742.75 393.4 741.9 393.5 741.05 393.6 740.15 393.55 739.25 393.5 738.45 393.45 737.35 393.35 736.3 393.05 735.25 392.75 734.2 392.45 733.65 392.2 733.45 392.35 733.25 392.45 733.2 392.8
L 732.85 395.85
Q 732.8 396.2 733 396.35 733.15 396.55 733.55 396.65 735 397.2 736.75 397.5 738.5 397.8 740.25 397.8 742.55 397.8 744.7 397.2 746.85 396.65 748.35 395.4 749.85 394.15 750.7 392.4 751.5 390.6 751.5 388.5 751.5 386.3 750.15 384.5 748.8 382.75 746.15 381.6 747.25 381.1 748.2 380.35 749.15 379.6 749.85 378.6 750.55 377.65 750.95 376.6 751.3 375.5 751.3 374.4 751.3 372.4 750.45 370.9 749.6 369.4 748.25 368.5 746.95 367.6 745.2 367.15 743.45 366.7 741.65 366.7 739.95 366.7 738.3 367.05
M 779.05 345.85
Q 780.45 345.85 781.65 345.95 782.8 346.05 783.85 346.45 784.4 346.7 784.5 346.15
L 784.6 342.95
Q 784.65 342.55 784.3 342.45 783.4 342.1 781.95 341.9 780.55 341.7 779.4 341.7 775.65 341.7 773.1 343 770.55 344.35 768.95 346.6 767.4 348.8 766.7 351.85 766 354.85 766 358.25 766 365.7 768.55 369.25 771.1 372.8 775.8 372.8 778.1 372.8 779.95 372 781.8 371.2 783.1 369.75 784.4 368.4 785.05 366.45 785.75 364.6 785.75 362.4 785.75 360.1 785.05 358.3 784.35 356.45 783.05 355.15 781.8 353.85 780 353.15 778.25 352.45 776.05 352.45 775.3 352.45 774.5 352.7 773.7 352.9 772.95 353.25 772.2 353.6 771.6 354.05 771 354.5 770.65 355 770.9 353.05 771.5 351.35 772.05 349.7 773.05 348.45 774.05 347.2 775.5 346.5 777 345.85 779.05 345.85
M 772.15 358.2
Q 773.6 356.65 776.2 356.65 778.65 356.65 780 358.25 781.35 359.8 781.35 362.6 781.35 365.45 779.85 367.15 778.3 368.8 775.9 368.8 774.8 368.8 773.8 368.3 772.85 367.8 772.15 366.9 771.45 366 771.05 364.75 770.65 363.6 770.65 362.2 770.65 359.75 772.15 358.2
M 694.05 384.1
Q 694.15 384.25 694.35 384.25
L 715.5 384.25
Q 716 384.25 716 383.75
L 716 380.65
Q 716 380.15 715.5 380.15
L 694.35 380.15
Q 694.15 380.15 694.05 380.3 693.9 380.45 693.9 380.65
L 693.9 383.75
Q 693.9 383.95 694.05 384.1
M 656.15 392.25
Q 654.45 392.8 653.2 393.8 651.95 394.8 651.2 396.2 650.45 397.6 650.45 399.3 650.45 401.6 651.85 403.4 653.25 405.2 655.65 406.6 654.45 407.2 653.35 407.9 652.25 408.6 651.45 409.5 650.65 410.4 650.1 411.55 649.65 412.7 649.65 414.2 649.65 416.35 650.55 417.95 651.45 419.6 652.9 420.65 654.35 421.7 656.15 422.25 658 422.8 659.8 422.8 661.75 422.8 663.55 422.25 665.45 421.7 666.85 420.65 668.25 419.6 669.1 417.95 670 416.35 670 414.2 670 412.8 669.55 411.8 669.15 410.75 668.35 409.85 667.55 408.95 666.45 408.15 665.3 407.4 663.9 406.55 666.5 404.75 667.75 403 669 401.2 669 399.2 669 397.45 668.3 396.05 667.6 394.65 666.4 393.7 665.2 392.75 663.5 392.2 661.8 391.7 659.8 391.7 657.85 391.7 656.15 392.25
M 659.8 395.6
Q 660.75 395.6 661.6 395.95 662.45 396.2 663.1 396.75 663.75 397.3 664.1 398 664.5 398.7 664.5 399.5 664.5 400.2 664 401 663.5 401.8 662.75 402.55 662 403.25 661.2 403.8 660.45 404.35 659.8 404.6 659.3 404.4 658.5 403.9 657.7 403.45 656.9 402.75 656.15 402.05 655.6 401.25 655 400.45 655 399.6 655 398.65 655.45 397.9 655.9 397.2 656.6 396.7 657.25 396.2 658.1 395.9 658.95 395.6 659.8 395.6
M 656.15 410.5
Q 657 409.85 658.05 409.45 659 409 659.8 408.8 660.8 409.15 661.8 409.75 662.8 410.35 663.65 411.05 664.45 411.8 664.95 412.6 665.45 413.45 665.45 414.2 665.45 415.25 664.95 416.1 664.45 416.95 663.65 417.55 662.85 418.15 661.85 418.45 660.8 418.75 659.8 418.75 658.85 418.75 657.8 418.45 656.8 418.1 655.95 417.5 655.15 416.9 654.65 416.05 654.1 415.2 654.1 414.2 654.1 412.95 654.7 412.05 655.3 411.15 656.15 410.5
M 666.3 342.65
Q 666.3 342.3 666.25 342.2 666.2 342.05 665.9 342.05
L 662.25 342.05
Q 661.85 342.05 661.75 342.15 661.65 342.25 661.45 342.6
L 649.05 361.2
Q 648.9 361.35 648.75 361.65 648.55 361.95 648.55 362.2
L 648.55 365.2
Q 648.55 365.5 648.7 365.55 648.85 365.65 649.2 365.65
L 662 365.65 662 371.75
Q 662 372.15 662.15 372.3 662.3 372.45 662.75 372.45
L 665.65 372.45
Q 666.05 372.45 666.15 372.3 666.3 372.2 666.3 371.75
L 666.3 365.65 670 365.65
Q 670.35 365.65 670.5 365.55 670.65 365.45 670.65 365.05
L 670.65 362.15
Q 670.65 361.75 670.5 361.65 670.35 361.55 670 361.55
L 666.3 361.55 666.3 342.65
M 662 361.55
L 653.4 361.55 662 348.5 662 361.55 Z"/>
</g>

<path id="Layer1_0_1_STROKES" stroke="#1E1E1E" stroke-width="3" stroke-linejoin="miter" stroke-linecap="butt" stroke-miterlimit="3" fill="none" d="
M 756.6 382
L 794.8 382
M 485.25 382.05
L 548 382.05
M 640.6 382
L 678.8 382"/>

<path id="Layer1_0_2_STROKES" stroke="#DBDBDB" stroke-width="3" stroke-linejoin="round" stroke-linecap="round" fill="none" d="
M 502.6 312.55
L 532.6 312.55
Q 547.6 312.55 547.6 327.55
L 547.6 357.6
Q 547.6 372.6 532.6 372.6
L 502.6 372.6
Q 487.6 372.6 487.6 357.6
L 487.6 327.55
Q 487.6 312.55 502.6 312.55 Z"/>

<path id="Layer1_0_3_STROKES" stroke="#BBDECB" stroke-width="5" stroke-linejoin="miter" stroke-linecap="butt" stroke-miterlimit="3" fill="none" d="
M 397.55 266.05
L 882.5 266.05
Q 897.5 266.05 897.5 281.05
L 897.5 463
Q 897.5 478 882.5 478
L 397.55 478
Q 382.55 478 382.55 463
L 382.55 281.05
Q 382.55 266.05 397.55 266.05 Z"/>

<path id="Layer1_0_4_STROKES" stroke="#CCCCCC" stroke-width="3" stroke-linejoin="round" stroke-linecap="round" fill="none" d="
M 915.15 595.15
L 1197.65 595.15"/>
</defs>

<g transform="matrix( 1, 0, 0, 1, 0,0) ">
<use xlink:href="#Layer1_0_FILL"/>

<use xlink:href="#Layer1_0_1_STROKES"/>

<use xlink:href="#Layer1_0_2_STROKES"/>

<use xlink:href="#Layer1_0_3_STROKES"/>

<use xlink:href="#Layer1_0_4_STROKES"/>
</g>
</svg>
