<?xml version="1.0" encoding="utf-8"?>
<!-- Generator: Adobe Illustrator 23.0.0, SVG Export Plug-In . SVG Version: 6.00 Build 0)  -->
<svg version="1.1" id="Layer_4" xmlns="http://www.w3.org/2000/svg" xmlns:xlink="http://www.w3.org/1999/xlink" x="0px" y="0px"
	 width="1000px" height="342px" viewBox="0 0 1000 342" style="enable-background:new 0 0 1000 342;" xml:space="preserve">
<g>
	<path style="fill-rule:evenodd;clip-rule:evenodd;fill:#E8E2CF;" d="M8.4,196.6c0-5.5,3.9-9.9,8.8-9.9h172.4c4.9,0,8.8,4.4,8.8,9.9
		v45.3c0,5.5-3.9,9.9-8.8,9.9H17.2c-4.9,0-8.8-4.4-8.8-9.9V196.6z"/>
</g>
<g>
	<path style="fill-rule:evenodd;clip-rule:evenodd;fill:#E8E2CF;" d="M8.4,270.6c0-5.5,3.9-9.9,8.8-9.9h172.4c4.9,0,8.8,4.4,8.8,9.9
		v45.3c0,5.5-3.9,9.9-8.8,9.9H17.2c-4.9,0-8.8-4.4-8.8-9.9V270.6z"/>
</g>
<line style="fill:none;stroke:#E8E2CF;stroke-width:3;stroke-miterlimit:10;" x1="6.1" y1="334.4" x2="998.1" y2="334.4"/>
<line style="fill:none;stroke:#E8E2CF;stroke-width:3;stroke-miterlimit:10;" x1="6.1" y1="5.9" x2="998.1" y2="5.9"/>
<line style="fill:none;stroke:#E8E2CF;stroke-width:2;stroke-miterlimit:10;stroke-dasharray:4,4;" x1="6.1" y1="181.7" x2="998.1" y2="181.7"/>
<line style="fill:none;stroke:#E8E2CF;stroke-width:2;stroke-miterlimit:10;stroke-dasharray:4,4;" x1="6.1" y1="256.8" x2="998.1" y2="256.8"/>
<line style="fill:none;stroke:#888888;stroke-miterlimit:10;" x1="207.4" y1="5.9" x2="207.4" y2="333.6"/>
<line style="fill:none;stroke:#888888;stroke-miterlimit:10;" x1="408.3" y1="5.9" x2="408.3" y2="333.6"/>
<line style="fill:none;stroke:#888888;stroke-miterlimit:10;" x1="607.3" y1="5.9" x2="607.3" y2="333.6"/>
<line style="fill:none;stroke:#888888;stroke-miterlimit:10;" x1="806.4" y1="5.9" x2="806.4" y2="333.6"/>
<g>
	<g>
		<path style="fill-rule:evenodd;clip-rule:evenodd;fill:#E8E2CF;" d="M8.4,22.3c0-5.5,3.9-9.9,8.8-9.9h172.4c4.9,0,8.8,4.4,8.8,9.9
			v146c0,5.5-3.9,9.9-8.8,9.9H17.2c-4.9,0-8.8-4.4-8.8-9.9V22.3z"/>
	</g>
</g>
<g>
	<path d="M271.6,279.8c0.5,0,0.9,0.1,1.3,0.4c0.4,0.2,0.6,0.6,0.6,1.2v3.2c0,1.1,0.2,2.1,0.5,2.9c0.3,0.8,1,1.6,1.8,2.3
		c0.8,0.7,1.6,1.3,2.4,1.9c0.7,0.6,1.4,1,2.1,1.5c0.4,0.3,0.6,0.6,0.6,1.1c0,0.4-0.1,0.8-0.4,1.1c-0.2,0.3-0.6,0.5-1,0.7
		s-0.8,0.1-1.3-0.2c-0.5-0.3-1.1-0.8-1.7-1.3c-0.7-0.5-1.4-1.1-2.2-1.7c-0.9-0.7-1.6-1.3-1.9-1.8c-0.4-0.4-0.6-0.8-0.7-1.2h0
		c-0.1,0.4-0.3,0.9-0.7,1.3c-0.4,0.5-1.1,1.1-2,1.8c-0.8,0.6-1.6,1.2-2.3,1.8c-0.8,0.6-1.5,1.1-2.3,1.6c-0.4,0.3-0.8,0.4-1.2,0.2
		c-0.4-0.1-0.7-0.4-1-0.7s-0.4-0.7-0.3-1.2c0-0.4,0.2-0.8,0.7-1.1c0.9-0.6,1.7-1.2,2.5-1.8c0.8-0.6,1.6-1.2,2.5-1.9
		c0.8-0.7,1.4-1.5,1.8-2.3c0.3-0.8,0.5-1.8,0.5-2.9v-3.2c0-0.5,0.2-0.9,0.6-1.2C270.7,279.9,271.2,279.8,271.6,279.8z M284.6,299
		c1.1,0,1.8,0.2,2.2,0.6s0.6,1.1,0.6,2.1v7.3c0,1-0.2,1.7-0.6,2.1s-1.1,0.6-2.2,0.6h-15.1c-1.1,0-1.8-0.2-2.2-0.6s-0.6-1.1-0.6-2.1
		v-7.3c0-1,0.2-1.7,0.6-2.1s1.1-0.6,2.2-0.6H284.6z M271.1,302c-0.5,0-0.8,0.3-0.8,0.8v5.1c0,0.5,0.3,0.8,0.8,0.8h12
		c0.5,0,0.8-0.3,0.8-0.8v-5.1c0-0.5-0.3-0.8-0.8-0.8H271.1z M285.6,278.7c0.5,0,0.9,0.1,1.3,0.4c0.4,0.2,0.5,0.6,0.5,1.2v6.1h4
		c0.5,0,0.8,0.2,1,0.5c0.2,0.3,0.3,0.7,0.3,1.1c0,0.5-0.1,0.8-0.3,1.1c-0.2,0.3-0.5,0.5-1,0.5h-4v6.5c0,0.5-0.2,0.9-0.5,1.2
		c-0.4,0.2-0.8,0.4-1.3,0.4c-0.5,0-0.9-0.1-1.3-0.4c-0.4-0.2-0.5-0.6-0.5-1.2v-15.7c0-0.5,0.2-0.9,0.5-1.2
		C284.7,278.8,285.1,278.7,285.6,278.7z"/>
	<path d="M307,280.5c1.1,0,1.8,0.2,2.2,0.6s0.6,1.1,0.6,2.1v2.7c0,1.3-0.2,2.4-0.5,3.3c-0.3,0.9-1,1.8-1.9,2.6
		c-0.9,0.8-2.3,1.7-3.9,2.6c-1.7,0.9-3.9,2-6.6,3.3c-0.4,0.2-0.8,0.2-1.2,0c-0.4-0.2-0.7-0.5-0.9-0.8c-0.2-0.4-0.2-0.8-0.2-1.2
		c0-0.4,0.3-0.8,0.8-1c1.7-0.8,3.1-1.4,4.3-2s2.2-1.1,3-1.6c0.8-0.5,1.4-0.9,1.9-1.3c0.5-0.4,0.8-0.8,1.1-1.2
		c0.3-0.4,0.4-0.8,0.5-1.2c0.1-0.4,0.1-0.9,0.1-1.5v-1.4c0-0.3-0.1-0.5-0.2-0.6c-0.1-0.1-0.3-0.2-0.6-0.2h-9.3c-0.4,0-0.8-0.1-1-0.5
		c-0.2-0.3-0.3-0.7-0.3-1.1c0-0.4,0.1-0.8,0.3-1.1c0.2-0.3,0.5-0.5,1-0.5H307z M316.5,299.7c1.1,0,1.8,0.2,2.2,0.6
		c0.4,0.4,0.6,1.1,0.6,2.1v8.2c0,0.5-0.2,0.9-0.5,1.2c-0.4,0.2-0.8,0.4-1.3,0.4c-0.5,0-0.9-0.1-1.3-0.4c-0.4-0.2-0.5-0.6-0.5-1.2
		v-7.1c0-0.5-0.3-0.7-0.8-0.7h-15.7c-0.5,0-0.8-0.2-1-0.5c-0.2-0.3-0.3-0.7-0.3-1.1s0.1-0.8,0.3-1.1c0.2-0.3,0.5-0.5,1-0.5H316.5z
		 M317.5,278.7c0.5,0,0.9,0.1,1.3,0.4c0.4,0.2,0.5,0.6,0.5,1.2v6.3h4c0.5,0,0.8,0.2,1,0.5c0.2,0.3,0.3,0.7,0.3,1.1
		c0,0.5-0.1,0.8-0.3,1.1c-0.2,0.3-0.5,0.5-1,0.5h-4v7.1c0,0.5-0.2,0.9-0.5,1.2s-0.8,0.4-1.3,0.4c-0.5,0-0.9-0.1-1.3-0.4
		s-0.5-0.6-0.5-1.2v-16.5c0-0.5,0.2-0.9,0.5-1.2C316.6,278.8,317,278.7,317.5,278.7z"/>
	<path d="M335.6,278.4c0.5,0,0.9,0.1,1.3,0.4s0.5,0.6,0.5,1.2v2.3h6.3c0.4,0,0.7,0.2,1,0.5c0.2,0.3,0.3,0.7,0.3,1.1
		s-0.1,0.8-0.3,1.1c-0.2,0.3-0.5,0.4-1,0.4h-16.5c-0.4,0-0.8-0.1-1-0.4c-0.2-0.3-0.3-0.7-0.3-1.1s0.1-0.8,0.3-1.1
		c0.2-0.3,0.5-0.5,1-0.5h6.6v-2.3c0-0.5,0.2-0.9,0.6-1.2C334.7,278.5,335.1,278.4,335.6,278.4z M335.6,287c2.4,0,4.2,0.5,5.5,1.5
		c1.3,1,2,2.4,2,4.2s-0.7,3.2-2,4.2c-1.3,1-3.2,1.5-5.5,1.5c-2.4,0-4.2-0.5-5.5-1.5c-1.3-1-2-2.4-2-4.2s0.7-3.2,2-4.2
		C331.4,287.5,333.2,287,335.6,287z M335.6,289.8c-1.4,0-2.5,0.3-3.2,0.8c-0.7,0.6-1.1,1.3-1.1,2.1c0,0.9,0.4,1.6,1.1,2.1
		c0.7,0.6,1.8,0.8,3.2,0.8c1.4,0,2.5-0.3,3.2-0.8c0.7-0.6,1.1-1.3,1.1-2.1c0-0.9-0.4-1.6-1.1-2.1C338.1,290.1,337,289.8,335.6,289.8
		z M342.6,300.2c3.3,0,5.9,0.5,7.7,1.5c1.8,1,2.8,2.5,2.8,4.6c0,2.1-0.9,3.6-2.8,4.6c-1.8,1-4.4,1.5-7.7,1.5s-5.9-0.5-7.7-1.5
		c-1.8-1-2.8-2.5-2.8-4.6c0-2.1,0.9-3.6,2.8-4.6C336.7,300.7,339.3,300.2,342.6,300.2z M342.6,303c-2.4,0-4.2,0.3-5.3,0.9
		c-1.1,0.6-1.6,1.4-1.6,2.4c0,1,0.5,1.8,1.6,2.4c1.1,0.6,2.9,0.8,5.3,0.8c2.4,0,4.2-0.3,5.3-0.8c1.1-0.6,1.6-1.3,1.6-2.4
		c0-1-0.5-1.8-1.6-2.4C346.8,303.3,345,303,342.6,303z M351.1,278.7c0.5,0,0.9,0.1,1.2,0.4c0.4,0.2,0.5,0.6,0.5,1.1v18.3
		c0,0.5-0.2,0.9-0.5,1.1c-0.4,0.2-0.8,0.4-1.2,0.4c-0.5,0-0.9-0.1-1.2-0.4c-0.4-0.2-0.5-0.6-0.5-1.1V296h-3.6
		c-0.4,0-0.7-0.2-0.9-0.5c-0.2-0.3-0.3-0.7-0.3-1.1c0-0.4,0.1-0.8,0.3-1c0.2-0.3,0.5-0.4,0.9-0.4h3.6v-3h-3.8
		c-0.4,0-0.7-0.1-0.9-0.4c-0.2-0.3-0.3-0.6-0.3-1s0.1-0.8,0.3-1c0.2-0.3,0.5-0.4,0.9-0.4h3.8v-6.9c0-0.5,0.2-0.9,0.5-1.1
		C350.3,278.8,350.7,278.7,351.1,278.7z"/>
</g>
<g>
	<path d="M292.2,207.2c1.4,0,2.6,0.2,3.6,0.5c1,0.3,1.9,0.8,2.6,1.4s1.2,1.3,1.5,2.1c0.3,0.8,0.5,1.6,0.5,2.5v0.2
		c0,0.6-0.1,1.2-0.3,1.8c-0.2,0.6-0.5,1.2-0.8,1.7s-0.8,1-1.4,1.4s-1.2,0.8-2,1c0.8,0.1,1.5,0.3,2.2,0.6c0.7,0.3,1.3,0.7,1.7,1.2
		c0.5,0.5,0.9,1.1,1.2,1.7s0.4,1.5,0.4,2.3v0.4c0,1-0.2,1.9-0.6,2.8c-0.4,0.9-0.9,1.7-1.7,2.4c-0.8,0.7-1.7,1.2-2.8,1.6
		c-1.1,0.4-2.5,0.6-4,0.6c-2.9,0-5.3-0.7-7.4-2.1c-0.5-0.3-0.7-0.7-0.8-1.1c-0.1-0.4,0-0.9,0.3-1.3c0.3-0.4,0.6-0.7,1-0.8
		s0.8,0,1.2,0.3c0.9,0.6,1.8,1,2.6,1.3c0.9,0.3,1.8,0.4,2.8,0.4c1,0,1.9-0.1,2.6-0.4c0.7-0.2,1.3-0.6,1.7-1c0.4-0.4,0.8-0.9,1-1.4
		c0.2-0.5,0.3-1.1,0.3-1.7v-0.3c0-0.8-0.1-1.5-0.4-2c-0.3-0.5-0.7-1-1.2-1.3c-0.5-0.3-1.1-0.6-1.8-0.7c-0.7-0.1-1.5-0.2-2.3-0.2
		h-2.1c-0.5,0-0.8-0.2-1-0.5c-0.2-0.3-0.3-0.7-0.3-1.1c0-0.4,0.1-0.8,0.3-1.1c0.2-0.3,0.5-0.5,1-0.5h1.8c1.5,0,2.7-0.3,3.6-1
		c0.9-0.7,1.4-1.8,1.4-3.2V214c0-1.1-0.4-2-1.2-2.7c-0.8-0.7-2-1-3.5-1c-1,0-1.9,0.2-2.6,0.5c-0.7,0.4-1.4,0.9-2,1.6
		c-0.3,0.3-0.7,0.5-1.1,0.5c-0.4,0-0.8-0.2-1.1-0.6c-0.3-0.3-0.5-0.7-0.4-1.1c0-0.4,0.2-0.8,0.4-1.1c0.7-0.9,1.6-1.6,2.8-2.1
		C289.3,207.5,290.7,207.2,292.2,207.2z"/>
	<path d="M315.1,208c1.1,0,1.8,0.2,2.2,0.6c0.4,0.4,0.6,1.1,0.6,2.1v3.8c0,1.1,0,2-0.1,2.9c-0.1,0.8-0.2,1.6-0.5,2.3s-0.6,1.4-1.1,2
		c-0.5,0.6-1.1,1.3-1.9,2c-0.8,0.7-1.7,1.5-2.9,2.3c-1.1,0.9-2.5,1.8-4.1,3c-0.4,0.3-0.8,0.3-1.2,0.2s-0.8-0.3-1-0.7
		c-0.2-0.3-0.4-0.7-0.4-1.2c0-0.5,0.2-0.8,0.6-1.1c1.4-1,2.7-1.8,3.7-2.6c1-0.7,1.9-1.4,2.5-2s1.2-1.1,1.6-1.6
		c0.4-0.5,0.7-1,0.9-1.6c0.2-0.6,0.3-1.2,0.4-1.8c0-0.6,0.1-1.4,0.1-2.3v-2.5c0-0.5-0.3-0.7-0.8-0.7h-7.3c-0.5,0-0.8-0.2-1-0.5
		c-0.2-0.3-0.3-0.7-0.3-1.1c0-0.4,0.1-0.8,0.3-1.1c0.2-0.3,0.5-0.5,1-0.5H315.1z M330.7,205.3c0.4,0,0.8,0.1,1.2,0.3
		c0.3,0.2,0.5,0.6,0.5,1.1V235c0,0.5-0.2,0.8-0.5,1.1c-0.3,0.2-0.7,0.3-1.2,0.3c-0.4,0-0.8-0.1-1.1-0.3c-0.3-0.2-0.5-0.6-0.5-1.1
		v-15.6H325v14.1c0,0.5-0.2,0.8-0.5,1.1c-0.3,0.2-0.7,0.3-1.2,0.3c-0.4,0-0.8-0.1-1.1-0.3c-0.3-0.2-0.5-0.6-0.5-1.1v-26.4
		c0-0.5,0.2-0.8,0.5-1.1c0.3-0.2,0.7-0.3,1.1-0.3c0.4,0,0.8,0.1,1.2,0.3c0.3,0.2,0.5,0.6,0.5,1.1v9.3h4.1v-9.6
		c0-0.5,0.2-0.8,0.5-1.1C329.9,205.5,330.3,205.3,330.7,205.3z"/>
</g>
<g>
	<path d="M473.4,280.4c0.5,0,0.9,0.1,1.3,0.4c0.4,0.2,0.6,0.6,0.6,1.2v5.4c0,0.8,0,1.5,0.1,2.1c0.1,0.6,0.3,1.2,0.5,1.7
		c0.2,0.6,0.5,1.1,0.9,1.6c0.4,0.5,0.8,1.1,1.4,1.7c0.7,0.8,1.4,1.5,2.1,2.2s1.4,1.3,2,1.9c0.4,0.3,0.5,0.7,0.5,1.1
		c-0.1,0.4-0.2,0.8-0.5,1.1c-0.3,0.3-0.6,0.5-1.1,0.5c-0.4,0.1-0.8,0-1.2-0.4c-1.1-1-2.3-2.3-3.7-3.7c-0.5-0.5-1-1-1.3-1.4
		c-0.3-0.4-0.6-0.8-0.8-1.1c-0.2-0.3-0.4-0.6-0.5-0.8c-0.1-0.2-0.2-0.4-0.2-0.6h0c0,0.2-0.1,0.4-0.2,0.7c-0.1,0.2-0.3,0.5-0.5,0.8
		c-0.2,0.3-0.5,0.7-0.8,1.1c-0.3,0.4-0.8,0.9-1.3,1.4c-0.7,0.7-1.4,1.4-2.1,2.1c-0.7,0.7-1.4,1.4-2.2,2.1c-0.4,0.3-0.8,0.5-1.2,0.3
		c-0.4-0.1-0.8-0.3-1-0.6c-0.3-0.3-0.4-0.7-0.5-1.1c0-0.4,0.1-0.8,0.5-1.1c0.8-0.8,1.6-1.5,2.4-2.3c0.8-0.7,1.5-1.5,2.2-2.3
		c0.5-0.6,1-1.1,1.3-1.7c0.4-0.5,0.7-1.1,0.9-1.6c0.2-0.6,0.4-1.1,0.5-1.7c0.1-0.6,0.1-1.3,0.1-2.1v-5.4c0-0.5,0.2-0.9,0.6-1.2
		C472.5,280.5,472.9,280.4,473.4,280.4z M487.4,278.7c0.5,0,0.9,0.1,1.3,0.4c0.4,0.2,0.5,0.6,0.5,1.2v9.4h4c0.5,0,0.8,0.2,1,0.5
		c0.2,0.3,0.3,0.7,0.3,1.1s-0.1,0.8-0.3,1.1c-0.2,0.3-0.5,0.5-1,0.5h-4v15.6c0,0.5-0.2,0.9-0.5,1.2c-0.4,0.2-0.8,0.4-1.3,0.4
		c-0.5,0-0.9-0.1-1.3-0.4c-0.4-0.2-0.5-0.6-0.5-1.2v-28.1c0-0.5,0.2-0.9,0.5-1.2C486.5,278.8,486.9,278.7,487.4,278.7z"/>
	<path d="M508.8,280.5c1.1,0,1.8,0.2,2.2,0.6c0.4,0.4,0.6,1.1,0.6,2.1v2.7c0,1.3-0.2,2.4-0.5,3.3c-0.3,0.9-1,1.8-1.9,2.6
		c-0.9,0.8-2.3,1.7-3.9,2.6c-1.7,0.9-3.9,2-6.6,3.3c-0.4,0.2-0.8,0.2-1.2,0c-0.4-0.2-0.7-0.5-0.9-0.8c-0.2-0.4-0.2-0.8-0.2-1.2
		c0-0.4,0.3-0.8,0.8-1c1.7-0.8,3.1-1.4,4.3-2c1.2-0.6,2.2-1.1,3-1.6c0.8-0.5,1.4-0.9,1.9-1.3c0.5-0.4,0.8-0.8,1.1-1.2
		c0.3-0.4,0.4-0.8,0.5-1.2c0.1-0.4,0.1-0.9,0.1-1.5v-1.4c0-0.3-0.1-0.5-0.2-0.6c-0.1-0.1-0.3-0.2-0.6-0.2h-9.3c-0.4,0-0.8-0.1-1-0.5
		c-0.2-0.3-0.3-0.7-0.3-1.1c0-0.4,0.1-0.8,0.3-1.1c0.2-0.3,0.5-0.5,1-0.5H508.8z M518.3,299.7c1.1,0,1.8,0.2,2.2,0.6
		c0.4,0.4,0.6,1.1,0.6,2.1v8.2c0,0.5-0.2,0.9-0.5,1.2c-0.4,0.2-0.8,0.4-1.3,0.4c-0.5,0-0.9-0.1-1.3-0.4c-0.4-0.2-0.5-0.6-0.5-1.2
		v-7.1c0-0.5-0.3-0.7-0.8-0.7H501c-0.5,0-0.8-0.2-1-0.5c-0.2-0.3-0.3-0.7-0.3-1.1s0.1-0.8,0.3-1.1c0.2-0.3,0.5-0.5,1-0.5H518.3z
		 M519.3,278.7c0.5,0,0.9,0.1,1.3,0.4c0.4,0.2,0.5,0.6,0.5,1.2v6.3h4c0.5,0,0.8,0.2,1,0.5c0.2,0.3,0.3,0.7,0.3,1.1
		c0,0.5-0.1,0.8-0.3,1.1c-0.2,0.3-0.5,0.5-1,0.5h-4v7.1c0,0.5-0.2,0.9-0.5,1.2c-0.4,0.2-0.8,0.4-1.3,0.4c-0.5,0-0.9-0.1-1.3-0.4
		c-0.4-0.2-0.5-0.6-0.5-1.2v-16.5c0-0.5,0.2-0.9,0.5-1.2C518.4,278.8,518.8,278.7,519.3,278.7z"/>
	<path d="M537.4,278.4c0.5,0,0.9,0.1,1.3,0.4c0.4,0.2,0.5,0.6,0.5,1.2v2.3h6.3c0.4,0,0.8,0.2,1,0.5c0.2,0.3,0.3,0.7,0.3,1.1
		s-0.1,0.8-0.3,1.1c-0.2,0.3-0.5,0.4-1,0.4h-16.5c-0.4,0-0.8-0.1-1-0.4s-0.3-0.7-0.3-1.1s0.1-0.8,0.3-1.1c0.2-0.3,0.5-0.5,1-0.5h6.6
		v-2.3c0-0.5,0.2-0.9,0.6-1.2C536.5,278.5,536.9,278.4,537.4,278.4z M537.4,287c2.4,0,4.2,0.5,5.5,1.5c1.3,1,2,2.4,2,4.2
		s-0.7,3.2-2,4.2c-1.3,1-3.2,1.5-5.5,1.5c-2.4,0-4.2-0.5-5.5-1.5s-2-2.4-2-4.2s0.7-3.2,2-4.2S535,287,537.4,287z M537.4,289.8
		c-1.4,0-2.5,0.3-3.2,0.8s-1.1,1.3-1.1,2.1c0,0.9,0.4,1.6,1.1,2.1s1.8,0.8,3.2,0.8c1.4,0,2.5-0.3,3.2-0.8s1.1-1.3,1.1-2.1
		c0-0.9-0.4-1.6-1.1-2.1S538.8,289.8,537.4,289.8z M544.3,300.2c3.3,0,5.9,0.5,7.7,1.5c1.8,1,2.8,2.5,2.8,4.6c0,2.1-0.9,3.6-2.8,4.6
		c-1.8,1-4.4,1.5-7.7,1.5c-3.3,0-5.9-0.5-7.7-1.5c-1.8-1-2.8-2.5-2.8-4.6c0-2.1,0.9-3.6,2.8-4.6C538.5,300.7,541,300.2,544.3,300.2z
		 M544.3,303c-2.4,0-4.2,0.3-5.3,0.9c-1.1,0.6-1.6,1.4-1.6,2.4c0,1,0.5,1.8,1.6,2.4c1.1,0.6,2.9,0.8,5.3,0.8s4.2-0.3,5.3-0.8
		c1.1-0.6,1.6-1.3,1.6-2.4c0-1-0.5-1.8-1.6-2.4C548.6,303.3,546.8,303,544.3,303z M552.9,278.7c0.5,0,0.9,0.1,1.2,0.4
		c0.4,0.2,0.5,0.6,0.5,1.1v18.3c0,0.5-0.2,0.9-0.5,1.1c-0.4,0.2-0.8,0.4-1.2,0.4c-0.5,0-0.9-0.1-1.2-0.4c-0.4-0.2-0.5-0.6-0.5-1.1
		V296h-3.6c-0.4,0-0.7-0.2-0.9-0.5s-0.3-0.7-0.3-1.1c0-0.4,0.1-0.8,0.3-1s0.5-0.4,0.9-0.4h3.6v-3h-3.8c-0.4,0-0.7-0.1-0.9-0.4
		s-0.3-0.6-0.3-1s0.1-0.8,0.3-1s0.5-0.4,0.9-0.4h3.8v-6.9c0-0.5,0.2-0.9,0.5-1.1C552.1,278.8,552.5,278.7,552.9,278.7z"/>
</g>
<g>
	<path d="M498.8,207.7c0.4,0.3,0.6,0.6,0.8,1c0.1,0.4,0,0.8-0.3,1.3l-10.2,14.7h8.7v-6.6c0-0.5,0.2-0.9,0.5-1.2
		c0.4-0.2,0.8-0.4,1.2-0.4c0.5,0,0.9,0.1,1.3,0.4c0.4,0.2,0.5,0.6,0.5,1.2v6.6h2.6c0.5,0,0.8,0.1,1,0.4s0.3,0.6,0.3,1
		s-0.1,0.8-0.3,1s-0.5,0.4-1,0.4h-2.6v4.2c0,0.5-0.2,0.9-0.5,1.2c-0.4,0.2-0.8,0.4-1.3,0.4c-0.5,0-0.9-0.1-1.2-0.4
		c-0.4-0.2-0.5-0.6-0.5-1.2v-4.2h-10.7c-0.8,0-1.4-0.1-1.8-0.4c-0.4-0.3-0.5-0.7-0.5-1.3c0-0.2,0-0.5,0.1-0.7
		c0.1-0.3,0.4-0.7,0.8-1.4l10.9-15.7c0.3-0.4,0.6-0.6,1-0.7C498,207.4,498.4,207.5,498.8,207.7z"/>
	<path d="M516.9,208c1.1,0,1.8,0.2,2.2,0.6c0.4,0.4,0.6,1.1,0.6,2.1v3.8c0,1.1,0,2-0.1,2.9s-0.2,1.6-0.5,2.3s-0.6,1.4-1.1,2
		c-0.5,0.6-1.1,1.3-1.9,2s-1.7,1.5-2.9,2.3c-1.1,0.9-2.5,1.8-4.1,3c-0.4,0.3-0.8,0.3-1.2,0.2c-0.4-0.1-0.8-0.3-1-0.7
		c-0.2-0.3-0.4-0.7-0.4-1.2c0-0.5,0.2-0.8,0.6-1.1c1.4-1,2.7-1.8,3.7-2.6c1-0.7,1.9-1.4,2.5-2c0.7-0.6,1.2-1.1,1.6-1.6
		c0.4-0.5,0.7-1,0.9-1.6c0.2-0.6,0.3-1.2,0.4-1.8c0-0.6,0.1-1.4,0.1-2.3v-2.5c0-0.5-0.3-0.7-0.8-0.7h-7.3c-0.5,0-0.8-0.2-1-0.5
		c-0.2-0.3-0.3-0.7-0.3-1.1c0-0.4,0.1-0.8,0.3-1.1c0.2-0.3,0.5-0.5,1-0.5H516.9z M532.5,205.3c0.4,0,0.8,0.1,1.2,0.3
		c0.3,0.2,0.5,0.6,0.5,1.1V235c0,0.5-0.2,0.8-0.5,1.1c-0.3,0.2-0.7,0.3-1.2,0.3c-0.4,0-0.8-0.1-1.1-0.3c-0.3-0.2-0.5-0.6-0.5-1.1
		v-15.6h-4.1v14.1c0,0.5-0.2,0.8-0.5,1.1c-0.3,0.2-0.7,0.3-1.2,0.3c-0.4,0-0.8-0.1-1.1-0.3c-0.3-0.2-0.5-0.6-0.5-1.1v-26.4
		c0-0.5,0.2-0.8,0.5-1.1c0.3-0.2,0.7-0.3,1.1-0.3c0.4,0,0.8,0.1,1.2,0.3c0.3,0.2,0.5,0.6,0.5,1.1v9.3h4.1v-9.6
		c0-0.5,0.2-0.8,0.5-1.1C531.7,205.5,532.1,205.3,532.5,205.3z"/>
</g>
<g>
	<path d="M677.5,303.6h12.1c0.4,0,0.8,0.1,1,0.4c0.2,0.3,0.3,0.7,0.3,1.1s-0.1,0.8-0.3,1.1c-0.2,0.3-0.5,0.5-1,0.5h-27.7
		c-0.4,0-0.8-0.2-1-0.5c-0.2-0.3-0.3-0.7-0.3-1.1s0.1-0.8,0.3-1.1c0.2-0.3,0.5-0.4,1-0.4h12.1v-8.4h3.6V303.6z M675.7,280
		c1.7,0,3.3,0.2,4.7,0.6c1.4,0.4,2.5,1,3.5,1.7s1.7,1.7,2.2,2.8c0.5,1.1,0.8,2.3,0.8,3.7s-0.3,2.6-0.8,3.7c-0.5,1.1-1.2,2-2.2,2.8
		s-2.1,1.3-3.5,1.7c-1.4,0.4-2.9,0.6-4.7,0.6c-3.5,0-6.2-0.8-8.1-2.3s-2.9-3.7-2.9-6.5s1-4.9,2.9-6.5S672.2,280,675.7,280z
		 M675.7,283c-1.3,0-2.4,0.1-3.3,0.4s-1.7,0.7-2.3,1.2c-0.6,0.5-1.1,1.1-1.3,1.8c-0.3,0.7-0.4,1.5-0.4,2.3c0,0.8,0.1,1.6,0.4,2.3
		c0.3,0.7,0.7,1.3,1.3,1.8c0.6,0.5,1.4,0.9,2.3,1.2s2.1,0.4,3.3,0.4s2.4-0.1,3.3-0.4c0.9-0.3,1.7-0.7,2.3-1.2
		c0.6-0.5,1.1-1.1,1.4-1.8c0.3-0.7,0.4-1.5,0.4-2.3c0-0.8-0.1-1.6-0.4-2.3c-0.3-0.7-0.7-1.3-1.4-1.8c-0.6-0.5-1.4-0.9-2.3-1.2
		C678.1,283.2,677,283,675.7,283z"/>
	<path d="M705.8,280.5c1.1,0,1.8,0.2,2.2,0.6c0.4,0.4,0.6,1.1,0.6,2.1v2.7c0,1.3-0.2,2.4-0.5,3.3c-0.3,0.9-1,1.8-1.9,2.6
		c-0.9,0.8-2.3,1.7-3.9,2.6s-3.9,2-6.6,3.3c-0.4,0.2-0.8,0.2-1.2,0c-0.4-0.2-0.7-0.5-0.9-0.8c-0.2-0.4-0.2-0.8-0.2-1.2
		c0-0.4,0.3-0.8,0.8-1c1.7-0.8,3.1-1.4,4.3-2c1.2-0.6,2.2-1.1,3-1.6c0.8-0.5,1.4-0.9,1.9-1.3c0.5-0.4,0.8-0.8,1.1-1.2
		c0.3-0.4,0.4-0.8,0.5-1.2c0.1-0.4,0.1-0.9,0.1-1.5v-1.4c0-0.3-0.1-0.5-0.2-0.6c-0.1-0.1-0.3-0.2-0.6-0.2h-9.3c-0.4,0-0.8-0.1-1-0.5
		c-0.2-0.3-0.3-0.7-0.3-1.1c0-0.4,0.1-0.8,0.3-1.1c0.2-0.3,0.5-0.5,1-0.5H705.8z M715.3,299.7c1.1,0,1.8,0.2,2.2,0.6
		c0.4,0.4,0.6,1.1,0.6,2.1v8.2c0,0.5-0.2,0.9-0.5,1.2c-0.4,0.2-0.8,0.4-1.3,0.4c-0.5,0-0.9-0.1-1.3-0.4c-0.4-0.2-0.5-0.6-0.5-1.2
		v-7.1c0-0.5-0.3-0.7-0.8-0.7H698c-0.5,0-0.8-0.2-1-0.5c-0.2-0.3-0.3-0.7-0.3-1.1s0.1-0.8,0.3-1.1c0.2-0.3,0.5-0.5,1-0.5H715.3z
		 M716.2,278.7c0.5,0,0.9,0.1,1.3,0.4c0.4,0.2,0.5,0.6,0.5,1.2v6.3h4c0.5,0,0.8,0.2,1,0.5s0.3,0.7,0.3,1.1c0,0.5-0.1,0.8-0.3,1.1
		s-0.5,0.5-1,0.5h-4v7.1c0,0.5-0.2,0.9-0.5,1.2c-0.4,0.2-0.8,0.4-1.3,0.4c-0.5,0-0.9-0.1-1.3-0.4c-0.4-0.2-0.5-0.6-0.5-1.2v-16.5
		c0-0.5,0.2-0.9,0.5-1.2C715.3,278.8,715.7,278.7,716.2,278.7z"/>
	<path d="M734.3,278.4c0.5,0,0.9,0.1,1.3,0.4c0.4,0.2,0.5,0.6,0.5,1.2v2.3h6.3c0.4,0,0.7,0.2,1,0.5c0.2,0.3,0.3,0.7,0.3,1.1
		s-0.1,0.8-0.3,1.1s-0.5,0.4-1,0.4h-16.5c-0.4,0-0.8-0.1-1-0.4c-0.2-0.3-0.3-0.7-0.3-1.1s0.1-0.8,0.3-1.1c0.2-0.3,0.5-0.5,1-0.5h6.6
		v-2.3c0-0.5,0.2-0.9,0.6-1.2S733.9,278.4,734.3,278.4z M734.3,287c2.4,0,4.2,0.5,5.5,1.5s2,2.4,2,4.2s-0.7,3.2-2,4.2
		s-3.2,1.5-5.5,1.5c-2.4,0-4.2-0.5-5.5-1.5c-1.3-1-2-2.4-2-4.2s0.7-3.2,2-4.2C730.1,287.5,732,287,734.3,287z M734.3,289.8
		c-1.4,0-2.5,0.3-3.2,0.8c-0.7,0.6-1.1,1.3-1.1,2.1c0,0.9,0.4,1.6,1.1,2.1c0.7,0.6,1.8,0.8,3.2,0.8s2.5-0.3,3.2-0.8
		c0.7-0.6,1.1-1.3,1.1-2.1c0-0.9-0.4-1.6-1.1-2.1C736.8,290.1,735.7,289.8,734.3,289.8z M741.3,300.2c3.3,0,5.9,0.5,7.7,1.5
		c1.8,1,2.8,2.5,2.8,4.6c0,2.1-0.9,3.6-2.8,4.6c-1.8,1-4.4,1.5-7.7,1.5c-3.3,0-5.9-0.5-7.7-1.5c-1.8-1-2.8-2.5-2.8-4.6
		c0-2.1,0.9-3.6,2.8-4.6C735.4,300.7,738,300.2,741.3,300.2z M741.3,303c-2.4,0-4.2,0.3-5.3,0.9c-1.1,0.6-1.6,1.4-1.6,2.4
		c0,1,0.5,1.8,1.6,2.4c1.1,0.6,2.9,0.8,5.3,0.8c2.4,0,4.2-0.3,5.3-0.8c1.1-0.6,1.6-1.3,1.6-2.4c0-1-0.5-1.8-1.6-2.4
		C745.5,303.3,743.8,303,741.3,303z M749.9,278.7c0.5,0,0.9,0.1,1.2,0.4c0.4,0.2,0.5,0.6,0.5,1.1v18.3c0,0.5-0.2,0.9-0.5,1.1
		c-0.4,0.2-0.8,0.4-1.2,0.4s-0.9-0.1-1.2-0.4c-0.4-0.2-0.5-0.6-0.5-1.1V296h-3.6c-0.4,0-0.7-0.2-0.9-0.5c-0.2-0.3-0.3-0.7-0.3-1.1
		c0-0.4,0.1-0.8,0.3-1c0.2-0.3,0.5-0.4,0.9-0.4h3.6v-3h-3.8c-0.4,0-0.7-0.1-0.9-0.4c-0.2-0.3-0.3-0.6-0.3-1s0.1-0.8,0.3-1
		c0.2-0.3,0.5-0.4,0.9-0.4h3.8v-6.9c0-0.5,0.2-0.9,0.5-1.1C749,278.8,749.4,278.7,749.9,278.7z"/>
</g>
<g>
	<path d="M698.9,208.1c0.2,0.3,0.3,0.7,0.3,1.1c0,0.4-0.1,0.8-0.3,1.1s-0.5,0.5-1,0.5h-9.8l-0.4,8c0.6-0.5,1.4-0.8,2.2-1.2
		c0.8-0.3,1.8-0.5,3-0.5c1.2,0,2.4,0.2,3.3,0.6c1,0.4,1.8,1,2.4,1.7c0.7,0.7,1.2,1.5,1.5,2.5c0.3,0.9,0.5,2,0.5,3.1v0.4
		c0,1-0.2,2-0.5,3c-0.3,1-0.8,1.9-1.6,2.7s-1.7,1.4-2.8,1.9c-1.2,0.5-2.5,0.7-4.2,0.7s-3.1-0.2-4.4-0.6c-1.3-0.4-2.4-0.9-3.4-1.5
		c-0.4-0.3-0.7-0.6-0.8-1.1c-0.1-0.4,0-0.9,0.3-1.3c0.6-0.9,1.3-1.1,2.2-0.5c0.8,0.5,1.7,0.9,2.7,1.2s2.1,0.4,3.3,0.4
		c1,0,1.8-0.1,2.5-0.4c0.7-0.3,1.3-0.6,1.7-1.1c0.4-0.5,0.8-1,1-1.6c0.2-0.6,0.3-1.3,0.3-2V225c0-1.7-0.5-2.9-1.4-3.7
		s-2.2-1.3-3.9-1.3c-0.9,0-1.8,0.2-2.6,0.5c-0.8,0.3-1.4,0.7-2,1.2c-0.3,0.3-0.6,0.4-0.8,0.5c-0.2,0.1-0.5,0.1-0.8,0.1
		c-0.5,0-0.8-0.1-1.1-0.3c-0.3-0.2-0.4-0.5-0.4-0.9l0.6-10.7c0-0.6,0.1-1,0.2-1.4c0.1-0.4,0.3-0.6,0.5-0.8c0.2-0.2,0.5-0.3,0.8-0.4
		c0.3-0.1,0.8-0.1,1.3-0.1H698C698.4,207.6,698.7,207.8,698.9,208.1z"/>
	<path d="M713.8,208c1.1,0,1.8,0.2,2.2,0.6c0.4,0.4,0.6,1.1,0.6,2.1v3.8c0,1.1,0,2-0.1,2.9c-0.1,0.8-0.2,1.6-0.5,2.3s-0.6,1.4-1.1,2
		s-1.1,1.3-1.9,2c-0.8,0.7-1.7,1.5-2.9,2.3c-1.1,0.9-2.5,1.8-4.1,3c-0.4,0.3-0.8,0.3-1.2,0.2c-0.4-0.1-0.8-0.3-1-0.7
		c-0.2-0.3-0.4-0.7-0.4-1.2c0-0.5,0.2-0.8,0.6-1.1c1.4-1,2.7-1.8,3.7-2.6c1-0.7,1.9-1.4,2.5-2c0.7-0.6,1.2-1.1,1.6-1.6
		s0.7-1,0.9-1.6c0.2-0.6,0.3-1.2,0.4-1.8s0.1-1.4,0.1-2.3v-2.5c0-0.5-0.3-0.7-0.8-0.7h-7.3c-0.5,0-0.8-0.2-1-0.5
		c-0.2-0.3-0.3-0.7-0.3-1.1c0-0.4,0.1-0.8,0.3-1.1c0.2-0.3,0.5-0.5,1-0.5H713.8z M729.5,205.3c0.4,0,0.8,0.1,1.2,0.3
		c0.3,0.2,0.5,0.6,0.5,1.1V235c0,0.5-0.2,0.8-0.5,1.1c-0.3,0.2-0.7,0.3-1.2,0.3c-0.4,0-0.8-0.1-1.1-0.3c-0.3-0.2-0.5-0.6-0.5-1.1
		v-15.6h-4.1v14.1c0,0.5-0.2,0.8-0.5,1.1c-0.3,0.2-0.7,0.3-1.2,0.3c-0.4,0-0.8-0.1-1.1-0.3c-0.3-0.2-0.5-0.6-0.5-1.1v-26.4
		c0-0.5,0.2-0.8,0.5-1.1s0.7-0.3,1.1-0.3c0.4,0,0.8,0.1,1.2,0.3s0.5,0.6,0.5,1.1v9.3h4.1v-9.6c0-0.5,0.2-0.8,0.5-1.1
		C728.7,205.5,729,205.3,729.5,205.3z"/>
</g>
<g>
	<path d="M883.3,294.9c0.2,0.3,0.3,0.7,0.3,1.1s-0.1,0.8-0.3,1c-0.2,0.3-0.5,0.4-0.9,0.4h-7.6v5.2h-3.4v-5.2h-5.8v5.2h-3.4v-5.2
		h-7.6c-0.4,0-0.7-0.1-0.9-0.4c-0.2-0.3-0.3-0.6-0.3-1s0.1-0.8,0.3-1.1c0.2-0.3,0.5-0.4,0.9-0.4h27.8
		C882.8,294.4,883.1,294.6,883.3,294.9z M879,301.8c0.4,0.4,0.6,1.1,0.6,2.1v6.9c0,0.5-0.2,0.9-0.6,1.2s-0.8,0.4-1.3,0.4
		c-0.5,0-0.9-0.1-1.2-0.4c-0.4-0.2-0.5-0.6-0.5-1.2V305c0-0.3-0.1-0.5-0.2-0.6c-0.1-0.1-0.3-0.2-0.6-0.2h-16.9
		c-0.4,0-0.7-0.1-0.9-0.5c-0.2-0.3-0.3-0.7-0.3-1.1s0.1-0.8,0.3-1.1c0.2-0.3,0.5-0.4,0.9-0.4h18.5
		C877.9,301.2,878.6,301.4,879,301.8z M868.5,279.4c3.5,0,6.1,0.5,8.1,1.5c1.9,1,2.9,2.6,2.9,4.8c0,2.1-1,3.7-2.9,4.8
		c-1.9,1-4.6,1.5-8.1,1.5s-6.1-0.5-8.1-1.5c-1.9-1-2.9-2.6-2.9-4.8c0-2.1,1-3.7,2.9-4.8C862.4,279.9,865.1,279.4,868.5,279.4z
		 M868.5,282.3c-2.6,0-4.5,0.3-5.6,0.9s-1.7,1.4-1.7,2.5c0,1.1,0.6,1.9,1.7,2.5c1.2,0.6,3,0.9,5.6,0.9c2.6,0,4.5-0.3,5.6-0.9
		c1.2-0.6,1.7-1.4,1.7-2.5c0-1.1-0.6-1.9-1.7-2.5C873,282.6,871.1,282.3,868.5,282.3z"/>
	<path d="M898.6,280.5c1.1,0,1.8,0.2,2.2,0.6c0.4,0.4,0.6,1.1,0.6,2.1v2.7c0,1.3-0.2,2.4-0.5,3.3c-0.3,0.9-1,1.8-1.9,2.6
		c-0.9,0.8-2.3,1.7-3.9,2.6s-3.9,2-6.6,3.3c-0.4,0.2-0.8,0.2-1.2,0c-0.4-0.2-0.7-0.5-0.9-0.8c-0.2-0.4-0.2-0.8-0.2-1.2
		c0-0.4,0.3-0.8,0.8-1c1.7-0.8,3.1-1.4,4.3-2c1.2-0.6,2.2-1.1,3-1.6c0.8-0.5,1.4-0.9,1.9-1.3c0.5-0.4,0.8-0.8,1.1-1.2
		c0.3-0.4,0.4-0.8,0.5-1.2c0.1-0.4,0.1-0.9,0.1-1.5v-1.4c0-0.3-0.1-0.5-0.2-0.6c-0.1-0.1-0.3-0.2-0.6-0.2h-9.3c-0.4,0-0.8-0.1-1-0.5
		c-0.2-0.3-0.3-0.7-0.3-1.1c0-0.4,0.1-0.8,0.3-1.1c0.2-0.3,0.5-0.5,1-0.5H898.6z M908.1,299.7c1.1,0,1.8,0.2,2.2,0.6
		c0.4,0.4,0.6,1.1,0.6,2.1v8.2c0,0.5-0.2,0.9-0.5,1.2c-0.4,0.2-0.8,0.4-1.3,0.4c-0.5,0-0.9-0.1-1.3-0.4c-0.4-0.2-0.5-0.6-0.5-1.2
		v-7.1c0-0.5-0.3-0.7-0.8-0.7h-15.7c-0.5,0-0.8-0.2-1-0.5c-0.2-0.3-0.3-0.7-0.3-1.1s0.1-0.8,0.3-1.1c0.2-0.3,0.5-0.5,1-0.5H908.1z
		 M909.1,278.7c0.5,0,0.9,0.1,1.3,0.4c0.4,0.2,0.5,0.6,0.5,1.2v6.3h4c0.5,0,0.8,0.2,1,0.5s0.3,0.7,0.3,1.1c0,0.5-0.1,0.8-0.3,1.1
		s-0.5,0.5-1,0.5h-4v7.1c0,0.5-0.2,0.9-0.5,1.2c-0.4,0.2-0.8,0.4-1.3,0.4c-0.5,0-0.9-0.1-1.3-0.4c-0.4-0.2-0.5-0.6-0.5-1.2v-16.5
		c0-0.5,0.2-0.9,0.5-1.2C908.2,278.8,908.6,278.7,909.1,278.7z"/>
	<path d="M927.2,278.4c0.5,0,0.9,0.1,1.3,0.4c0.4,0.2,0.5,0.6,0.5,1.2v2.3h6.3c0.4,0,0.7,0.2,1,0.5c0.2,0.3,0.3,0.7,0.3,1.1
		s-0.1,0.8-0.3,1.1s-0.5,0.4-1,0.4h-16.5c-0.4,0-0.8-0.1-1-0.4c-0.2-0.3-0.3-0.7-0.3-1.1s0.1-0.8,0.3-1.1c0.2-0.3,0.5-0.5,1-0.5h6.6
		v-2.3c0-0.5,0.2-0.9,0.6-1.2S926.7,278.4,927.2,278.4z M927.2,287c2.4,0,4.2,0.5,5.5,1.5s2,2.4,2,4.2s-0.7,3.2-2,4.2
		s-3.2,1.5-5.5,1.5c-2.4,0-4.2-0.5-5.5-1.5c-1.3-1-2-2.4-2-4.2s0.7-3.2,2-4.2C923,287.5,924.8,287,927.2,287z M927.2,289.8
		c-1.4,0-2.5,0.3-3.2,0.8c-0.7,0.6-1.1,1.3-1.1,2.1c0,0.9,0.4,1.6,1.1,2.1c0.7,0.6,1.8,0.8,3.2,0.8s2.5-0.3,3.2-0.8
		c0.7-0.6,1.1-1.3,1.1-2.1c0-0.9-0.4-1.6-1.1-2.1C929.7,290.1,928.6,289.8,927.2,289.8z M934.2,300.2c3.3,0,5.9,0.5,7.7,1.5
		c1.8,1,2.8,2.5,2.8,4.6c0,2.1-0.9,3.6-2.8,4.6c-1.8,1-4.4,1.5-7.7,1.5c-3.3,0-5.9-0.5-7.7-1.5c-1.8-1-2.8-2.5-2.8-4.6
		c0-2.1,0.9-3.6,2.8-4.6C928.3,300.7,930.8,300.2,934.2,300.2z M934.2,303c-2.4,0-4.2,0.3-5.3,0.9c-1.1,0.6-1.6,1.4-1.6,2.4
		c0,1,0.5,1.8,1.6,2.4c1.1,0.6,2.9,0.8,5.3,0.8c2.4,0,4.2-0.3,5.3-0.8c1.1-0.6,1.6-1.3,1.6-2.4c0-1-0.5-1.8-1.6-2.4
		C938.4,303.3,936.6,303,934.2,303z M942.7,278.7c0.5,0,0.9,0.1,1.2,0.4c0.4,0.2,0.5,0.6,0.5,1.1v18.3c0,0.5-0.2,0.9-0.5,1.1
		c-0.4,0.2-0.8,0.4-1.2,0.4s-0.9-0.1-1.2-0.4c-0.4-0.2-0.5-0.6-0.5-1.1V296h-3.6c-0.4,0-0.7-0.2-0.9-0.5c-0.2-0.3-0.3-0.7-0.3-1.1
		c0-0.4,0.1-0.8,0.3-1c0.2-0.3,0.5-0.4,0.9-0.4h3.6v-3h-3.8c-0.4,0-0.7-0.1-0.9-0.4c-0.2-0.3-0.3-0.6-0.3-1s0.1-0.8,0.3-1
		c0.2-0.3,0.5-0.4,0.9-0.4h3.8v-6.9c0-0.5,0.2-0.9,0.5-1.1C941.9,278.8,942.3,278.7,942.7,278.7z"/>
</g>
<g>
	<path d="M885.8,207.2c1.2,0,2.3,0.1,3.2,0.4c1,0.2,1.8,0.6,2.5,0.9c0.4,0.3,0.7,0.6,0.8,1c0.1,0.4,0.1,0.8-0.1,1.2
		c-0.2,0.4-0.5,0.7-0.8,0.9c-0.4,0.1-0.8,0.1-1.3-0.1c-0.6-0.3-1.3-0.5-2.1-0.7s-1.5-0.2-2.3-0.2c-3.8,0-5.9,3-6.3,8.9
		c0.6-0.9,1.5-1.7,2.6-2.2c1.2-0.5,2.4-0.8,3.6-0.8c1.2,0,2.4,0.2,3.4,0.6c1,0.4,1.8,0.9,2.5,1.7c0.7,0.7,1.2,1.6,1.6,2.6
		c0.4,1,0.6,2.1,0.6,3.4v0.6c0,1.2-0.2,2.4-0.6,3.4c-0.4,1-1,1.9-1.8,2.6c-0.8,0.7-1.7,1.3-2.8,1.7c-1.1,0.4-2.3,0.6-3.6,0.6
		c-3,0-5.2-0.9-6.7-2.8s-2.3-4.6-2.3-8.1v-1c0-2.8,0.3-5.1,0.8-7c0.5-1.8,1.2-3.3,2.1-4.4s1.9-1.9,3.2-2.4
		C883,207.4,884.4,207.2,885.8,207.2z M884.9,219.6c-0.9,0-1.7,0.1-2.3,0.4c-0.7,0.3-1.2,0.6-1.7,1.1c-0.5,0.5-0.8,1-1,1.6
		c-0.2,0.6-0.3,1.3-0.3,1.9v0.3c0,1.7,0.5,3,1.4,3.9c0.9,1,2.2,1.5,3.9,1.5c1.7,0,3-0.4,4-1.3c1-0.9,1.4-2.2,1.4-3.9v-0.3
		C890.1,221.4,888.4,219.6,884.9,219.6z"/>
	<path d="M906.7,208c1.1,0,1.8,0.2,2.2,0.6c0.4,0.4,0.6,1.1,0.6,2.1v3.8c0,1.1,0,2-0.1,2.9s-0.2,1.6-0.5,2.3s-0.6,1.4-1.1,2
		c-0.5,0.6-1.1,1.3-1.9,2s-1.7,1.5-2.9,2.3c-1.1,0.9-2.5,1.8-4.1,3c-0.4,0.3-0.8,0.3-1.2,0.2c-0.4-0.1-0.8-0.3-1-0.7
		c-0.2-0.3-0.4-0.7-0.4-1.2c0-0.5,0.2-0.8,0.6-1.1c1.4-1,2.7-1.8,3.7-2.6c1-0.7,1.9-1.4,2.5-2c0.7-0.6,1.2-1.1,1.6-1.6
		c0.4-0.5,0.7-1,0.9-1.6c0.2-0.6,0.3-1.2,0.4-1.8c0-0.6,0.1-1.4,0.1-2.3v-2.5c0-0.5-0.3-0.7-0.8-0.7h-7.3c-0.5,0-0.8-0.2-1-0.5
		c-0.2-0.3-0.3-0.7-0.3-1.1c0-0.4,0.1-0.8,0.3-1.1c0.2-0.3,0.5-0.5,1-0.5H906.7z M922.3,205.3c0.4,0,0.8,0.1,1.2,0.3
		c0.3,0.2,0.5,0.6,0.5,1.1V235c0,0.5-0.2,0.8-0.5,1.1c-0.3,0.2-0.7,0.3-1.2,0.3c-0.4,0-0.8-0.1-1.1-0.3c-0.3-0.2-0.5-0.6-0.5-1.1
		v-15.6h-4.1v14.1c0,0.5-0.2,0.8-0.5,1.1c-0.3,0.2-0.7,0.3-1.2,0.3c-0.4,0-0.8-0.1-1.1-0.3c-0.3-0.2-0.5-0.6-0.5-1.1v-26.4
		c0-0.5,0.2-0.8,0.5-1.1c0.3-0.2,0.7-0.3,1.1-0.3c0.4,0,0.8,0.1,1.2,0.3c0.3,0.2,0.5,0.6,0.5,1.1v9.3h4.1v-9.6
		c0-0.5,0.2-0.8,0.5-1.1C921.5,205.5,921.9,205.3,922.3,205.3z"/>
</g>
<polygon style="fill:#FFFFFF;stroke:#1D1D1B;stroke-width:3;stroke-linecap:round;stroke-linejoin:round;stroke-miterlimit:10;" points="
	569.6,161.7 427.6,161.7 463.3,58.2 569.6,25.2 "/>
<polygon style="fill:#FFFFFF;stroke:#1D1D1B;stroke-width:3;stroke-linecap:round;stroke-linejoin:round;stroke-miterlimit:10;" points="
	304.8,25.2 225.5,161.7 384.3,161.7 "/>
<g>
	<path d="M74.5,221.7c-0.5,0-0.9,0-1.2,0c0,0.4,0,0.9-0.1,1.3c0,0.4,0,0.8,0,1.2c0,0.5-0.2,0.9-0.4,1.1c-0.3,0.2-0.6,0.3-1.2,0.4
		c-0.8,0-1.8,0.1-2.9,0.2c-1.2,0.1-2.3,0.1-3.5,0.2c-1.2,0-2.3,0.1-3.3,0.1c-1,0-1.8,0.1-2.2,0.1c-0.8,0-1.5-0.2-2-0.6
		c-0.5-0.4-0.8-1.1-0.8-2.1c0-0.9-0.1-1.9-0.2-3.1c-0.1-1.2-0.1-2.5-0.2-3.8c0-1.3-0.1-2.7-0.2-4c-0.1-1.3-0.1-2.6-0.1-3.8
		c0-0.5,0.1-0.9,0.4-1.1c0.3-0.3,0.8-0.4,1.5-0.5c0.8,0,1.3,0.1,1.5,0.3c0.3,0.2,0.4,0.6,0.4,1.1c0,0.9,0.1,1.8,0.1,2.8
		c0,0.9,0,1.9,0.1,2.8c0.7,0,1.4-0.1,2.2-0.2c0.8-0.1,1.7-0.1,2.5-0.2c0.9-0.1,1.7-0.1,2.5-0.2s1.6-0.1,2.3-0.2c0-0.8,0-1.6,0-2.4
		c0-0.8,0-1.7,0-2.7c0-0.6,0.2-0.9,0.5-1.2c0.3-0.2,0.8-0.3,1.5-0.3s1.1,0.1,1.4,0.3c0.3,0.2,0.4,0.6,0.4,1.1c0,0.6,0,1.1,0,1.7
		c0,0.6,0,1.2,0,1.9c0.4,0,0.8,0,1.3,0c0.5,0,0.9,0,1.4-0.1c0.5,0,1,0,1.4-0.1c0.5,0,0.9,0,1.2,0c0-0.4,0-0.7,0-1.1c0-0.3,0-0.7,0-1
		c0-0.6,0.1-1.1,0.4-1.4c0.3-0.3,0.8-0.4,1.5-0.4c1.3,0,1.9,0.6,1.9,1.9c0,0.8,0,1.7,0,2.8s0,2.2,0,3.4c0,1.2,0,2.4-0.1,3.6
		c0,1.2,0,2.4-0.1,3.4s-0.1,2-0.1,2.9c0,0.8-0.1,1.5-0.1,1.9c-0.1,0.7-0.3,1.2-0.6,1.4c-0.3,0.2-0.7,0.3-1.2,0.3
		c-0.5,0-0.9-0.1-1.2-0.4s-0.4-0.7-0.5-1.4c0-0.5,0-1.2,0-2.3c0-1.1,0-2.3,0-3.7c-0.4,0-0.9,0-1.4,0.1c-0.5,0-1,0-1.5,0.1
		C75.5,221.7,75,221.7,74.5,221.7z M60.5,220.3c0,0.9,0.1,1.8,0.1,2.7c0.3,0,0.9,0,1.7-0.1s1.6-0.1,2.5-0.1c0.9,0,1.7-0.1,2.5-0.1
		c0.8,0,1.4-0.1,1.7-0.1c0.2,0,0.4-0.1,0.5-0.2c0.1-0.1,0.2-0.3,0.2-0.5c0-1,0-1.9,0-2.8c0-0.9,0-1.7,0-2.5c-0.7,0-1.4,0.1-2.3,0.2
		c-0.8,0.1-1.7,0.1-2.5,0.2c-0.9,0.1-1.7,0.1-2.5,0.2c-0.8,0.1-1.5,0.1-2.1,0.2C60.4,218.4,60.5,219.3,60.5,220.3z M82.8,236.7
		c0,0.5-0.1,0.9-0.4,1.1c-0.3,0.2-0.6,0.4-0.9,0.4c-1.2,0.1-2.5,0.2-3.8,0.3c-1.4,0.1-2.7,0.1-4.1,0.2c-1.4,0-2.8,0.1-4.1,0.1
		s-2.6,0.1-3.7,0.1c-0.6,0-1-0.2-1.4-0.6c-0.3-0.4-0.5-0.9-0.6-1.5c0-0.7-0.1-1.3-0.1-1.9c0-0.5-0.1-1-0.1-1.5c0-0.5,0-0.9,0-1.4
		c0-0.5,0-1.1,0-1.8c0-0.6,0.1-0.9,0.4-1.1c0.3-0.2,0.7-0.3,1.4-0.4c0.7,0,1.2,0,1.5,0.2c0.3,0.2,0.5,0.6,0.5,1.1c0,0.4,0,0.8,0,1.3
		c0,0.5,0,0.9,0,1.4s0,0.9,0,1.3c0,0.4,0,0.8,0,1.2c0,0.3,0.1,0.4,0.4,0.4c0.9,0,2-0.1,3.1-0.1c1.2,0,2.4-0.1,3.6-0.1
		c1.2,0,2.4-0.1,3.6-0.1c1.2,0,2.2-0.1,3.1-0.1c0.5,0,0.8,0.1,1,0.3C82.7,235.7,82.8,236.1,82.8,236.7z M78.9,216.6
		c0-0.6,0-1.2,0-1.8c-0.4,0-0.9,0-1.3,0.1c-0.5,0-1,0-1.5,0.1c-0.5,0-1,0-1.4,0.1c-0.4,0-0.8,0-1.2,0c0,0.6,0,1.2,0,1.8s0,1.2,0,1.8
		c0.4,0,0.8,0,1.2-0.1c0.5,0,0.9,0,1.4-0.1c0.5,0,1,0,1.5-0.1c0.5,0,0.9,0,1.3-0.1C78.9,217.7,78.9,217.1,78.9,216.6z"/>
	<path d="M107.8,231.9c-0.2,0.2-0.6,0.4-1,0.4c-2.9,0.3-5.9,0.6-8.9,0.8s-6.2,0.4-9.4,0.6c-0.9,0-1.4-0.6-1.4-1.7
		c0-0.5,0.1-0.9,0.3-1.2c0.2-0.3,0.6-0.4,1.1-0.5c1.9-0.1,3.6-0.3,5.1-0.4c1.5-0.1,3-0.2,4.4-0.3s2.8-0.2,4.2-0.3
		c1.4-0.1,2.9-0.2,4.6-0.3c0.5,0,0.8,0.1,1,0.4c0.2,0.3,0.3,0.6,0.3,1.1C108.1,231.2,108,231.6,107.8,231.9z M106.1,221
		c-0.5,1.1-1.2,2-2.1,2.7c-0.9,0.7-1.9,1.3-3.1,1.7c-1.2,0.4-2.5,0.6-3.8,0.7c-1.4,0-2.7-0.1-3.9-0.4s-2.2-0.9-3.1-1.6
		c-0.9-0.7-1.5-1.7-2-2.8c-0.5-1.1-0.7-2.4-0.7-3.9c0-1.2,0.2-2.4,0.7-3.5c0.5-1.1,1.1-2,2-2.8c0.9-0.8,1.9-1.5,3.1-1.9
		c1.2-0.5,2.5-0.7,4-0.8c1.4,0,2.8,0.1,3.9,0.5c1.2,0.4,2.2,1,3.1,1.8c0.9,0.8,1.5,1.7,2,2.9c0.5,1.1,0.7,2.4,0.7,3.8
		S106.6,219.9,106.1,221z M101.3,221.2c0.6-0.5,1-1.1,1.3-1.8c0.3-0.7,0.5-1.4,0.5-2.3c0-0.9-0.2-1.7-0.5-2.4
		c-0.3-0.7-0.8-1.3-1.3-1.8c-0.5-0.5-1.2-0.8-1.9-1.1c-0.7-0.2-1.5-0.3-2.3-0.3c-0.9,0-1.7,0.2-2.4,0.5c-0.7,0.3-1.3,0.7-1.9,1.2
		c-0.5,0.5-0.9,1.1-1.2,1.8c-0.3,0.7-0.4,1.5-0.4,2.3c0,0.9,0.1,1.7,0.4,2.4c0.3,0.7,0.7,1.3,1.2,1.7c0.5,0.5,1.1,0.8,1.8,1
		c0.7,0.2,1.5,0.3,2.3,0.3c0.8,0,1.6-0.1,2.4-0.4C100.1,222.1,100.8,221.7,101.3,221.2z M113.2,232c0,0.7-0.2,1.2-0.6,1.4
		c-0.3,0.3-0.8,0.4-1.3,0.3c-0.5,0-0.9-0.2-1.2-0.6c-0.3-0.3-0.4-0.9-0.4-1.7c0-2,0-3.8,0-5.6c0-1.7,0-3.4,0.1-5.1
		c0-1.7,0.1-3.3,0.1-5s0.1-3.5,0.2-5.5c0-0.6,0.2-1.1,0.5-1.4c0.3-0.3,0.8-0.4,1.5-0.4c1.2,0,1.9,0.6,1.9,1.9c0,2-0.1,3.9-0.1,5.7
		c0,1.8-0.1,3.6-0.2,5.3c-0.1,1.8-0.2,3.5-0.3,5.2S113.4,230.2,113.2,232z"/>
	<path d="M139,208.8c0,1.8,0,3.6,0,5.7c0.8,0.4,1.7,0.9,2.8,1.4s2.1,1,3.2,1.5c1.1,0.5,2.1,1,3.1,1.5c1,0.5,1.8,0.9,2.4,1.2
		c0.3,0.2,0.5,0.4,0.6,0.8c0.1,0.4,0,0.8-0.3,1.3c-0.3,0.5-0.6,0.8-1,0.9c-0.4,0.1-0.8,0-1.2-0.2c-0.6-0.2-1.4-0.6-2.3-1
		c-1-0.4-2-0.9-3.1-1.4s-2.1-1-3.2-1.5c-1-0.5-1.9-0.9-2.5-1.2c-0.6,0.6-1.3,1.1-2.1,1.7c-0.8,0.6-1.6,1.2-2.4,1.8
		c-0.8,0.6-1.6,1.2-2.4,1.7c-0.8,0.5-1.5,1-2.1,1.3c-0.9,0.6-1.7,0.4-2.3-0.4c-0.3-0.4-0.4-0.7-0.5-1s0.1-0.6,0.5-0.9
		c0.7-0.5,1.4-1.1,2.2-1.7s1.6-1.2,2.4-1.9c0.8-0.6,1.6-1.3,2.4-1.9c0.8-0.6,1.5-1.3,2.1-1.8c0-0.9-0.1-1.9-0.1-2.9
		c0-1-0.1-1.9-0.1-2.7c0-0.6,0.1-1,0.4-1.3c0.3-0.3,0.8-0.5,1.5-0.5c0.9,0,1.4,0,1.7,0.3C138.8,207.7,139,208.1,139,208.8z
		 M149.6,229.1c-3,0.3-6.1,0.5-9.3,0.6c0,1.2,0,2.4,0,3.6c0,1.2-0.1,2.3-0.1,3.3c0,0.7-0.3,1.2-0.6,1.4s-0.8,0.4-1.3,0.3
		c-0.5,0-0.9-0.2-1.2-0.4c-0.3-0.3-0.4-0.7-0.4-1.4c0-1-0.1-2-0.1-3.2c0-1.2,0-2.3,0-3.5c-1.4,0.1-2.8,0.1-4.2,0.2
		c-1.4,0-2.8,0.1-4.2,0.1c-0.9,0-1.4-0.6-1.4-1.7c0-0.5,0.1-0.9,0.3-1.2c0.2-0.3,0.6-0.4,1.1-0.4c3.8-0.2,7.5-0.3,11.1-0.5
		c3.6-0.2,7.1-0.3,10.4-0.4c0.5,0,0.8,0.1,1,0.4c0.2,0.3,0.3,0.6,0.3,1.1c0,0.6-0.1,1-0.4,1.2C150.3,228.9,150,229,149.6,229.1z"/>
</g>
<g>
	<path d="M63.5,109.3c0,0.3,0.1,0.4,0.4,0.4c0.9-0.1,1.9-0.1,2.9-0.2c1-0.1,2.1-0.1,3.1-0.2c1-0.1,2.1-0.1,3.1-0.2
		c1-0.1,2-0.1,2.9-0.2c0.5,0,0.8,0,1,0.2s0.3,0.6,0.4,1.1c0,0.6-0.1,1-0.3,1.2s-0.6,0.4-1,0.5c-2.4,0.3-4.7,0.5-6.9,0.7
		c-2.2,0.2-4.5,0.3-6.7,0.4c-0.7,0-1.3-0.2-1.7-0.6c-0.5-0.4-0.7-1-0.8-1.8c0-0.5,0-1.2-0.1-2.2s0-2.1-0.1-3.3c0-1.2,0-2.5,0-3.8
		c0-1.3,0-2.6,0-3.8c0-1.2,0-2.3,0-3.3s0-1.7,0-2.2s0.1-0.8,0.3-1c0.2-0.2,0.5-0.3,1-0.3c2.3-0.1,4.6-0.2,7.1-0.3
		c2.5-0.1,4.9-0.2,7.3-0.2c0.8,0,1.2,0.5,1.2,1.5c0,0.6-0.1,1-0.2,1.2c-0.2,0.3-0.5,0.4-1,0.5c-0.9,0.1-1.9,0.1-2.9,0.2
		c-1,0-2,0.1-3,0.2c-1,0.1-2,0.1-3,0.2c-1,0-1.9,0.1-2.8,0.1c0,0.3,0,0.8,0,1.6c0,0.8,0,1.7,0,2.8c0,1.1,0,2.2,0,3.4s0,2.3,0,3.3
		c0,1,0,1.9,0,2.7C63.5,108.6,63.5,109.1,63.5,109.3z M85.1,103.5c-0.4,0-0.8,0-1.1,0c-0.1,2.1-0.2,4.2-0.3,6.2
		c-0.1,2-0.2,4-0.3,5.8c0,0.7-0.2,1.2-0.6,1.4c-0.3,0.3-0.8,0.4-1.3,0.3c-0.5,0-0.9-0.2-1.2-0.6c-0.3-0.3-0.4-0.9-0.4-1.7
		c0-8,0.1-16,0.4-23.9c0-0.6,0.2-1.1,0.5-1.4c0.3-0.3,0.8-0.4,1.5-0.4c1.2,0,1.9,0.6,1.9,1.9c0,1.4,0,2.9-0.1,4.4
		c0,1.5-0.1,3-0.1,4.5c0.4,0,0.7,0,1.1,0c0.4,0,0.7,0,1,0c0.3,0,0.6,0,0.9,0s0.4,0,0.6,0c0.5,0,0.9,0.1,1.1,0.3
		c0.2,0.2,0.3,0.6,0.3,1.1c0,0.5-0.1,1-0.2,1.3c-0.2,0.3-0.5,0.5-0.9,0.5c-0.2,0-0.4,0-0.7,0.1c-0.3,0-0.6,0-1,0
		C85.9,103.5,85.5,103.5,85.1,103.5z"/>
	<path d="M105.4,105.3c-0.1,0.6-0.3,0.9-0.6,1.2c-0.3,0.2-0.8,0.3-1.3,0.3c-1-0.1-1.5-0.6-1.5-1.5c0-0.3,0-0.8,0-1.4s0-1.4,0-2.2
		s0-1.7,0-2.6c0-0.9,0-1.8,0-2.7c0-0.9,0-1.6,0-2.3s0-1.2,0-1.6c-0.9,0-1.8,0.1-2.8,0.1c-1,0-2,0-3,0.1c-1,0-2,0-3,0c-1,0-2,0-2.9,0
		c-0.9,0-1.4-0.5-1.4-1.6c0-0.5,0.1-0.9,0.4-1.1c0.3-0.2,0.6-0.4,0.9-0.4c2.4-0.1,4.8-0.2,7.3-0.3c2.5-0.1,4.9-0.1,7.1-0.1
		c0.5,0,0.8,0.1,1,0.3c0.2,0.2,0.3,0.6,0.3,1c0,0.5,0,1.1,0,1.9c0,0.8,0,1.7,0,2.6c0,0.9,0,1.9-0.1,2.9c0,1-0.1,2-0.1,2.9
		c0,0.9-0.1,1.8-0.1,2.6C105.5,104.2,105.5,104.8,105.4,105.3z M113,119.6c-0.1,0.6-0.3,0.9-0.6,1.2c-0.3,0.2-0.8,0.3-1.3,0.3
		s-0.9-0.2-1.1-0.4c-0.2-0.2-0.3-0.6-0.3-1.1c0-0.4,0-1,0-1.7s0-1.4,0-2.1c0-0.7,0-1.5,0-2.2c0-0.7,0-1.4,0-1.9
		c-0.9,0-2,0.1-3.2,0.1c-1.3,0-2.6,0.1-3.9,0.1c-1.3,0-2.7,0.1-3.9,0.1c-1.3,0-2.4,0.1-3.3,0.1c-0.9,0-1.4-0.5-1.4-1.6
		c0-0.5,0.1-0.9,0.4-1.1c0.3-0.2,0.6-0.4,0.9-0.4c1.2-0.1,2.5-0.1,4-0.2c1.5-0.1,3-0.1,4.6-0.2c1.5-0.1,3-0.1,4.5-0.1
		c1.5,0,2.7-0.1,3.9-0.1c0.5,0,0.8,0.1,1,0.3s0.3,0.6,0.3,1c0,0.7,0,1.5,0,2.4c0,0.9-0.1,1.7-0.1,2.6c0,0.9-0.1,1.7-0.1,2.6
		S113.1,118.9,113,119.6z M114.1,94c0,0.9,0,1.9,0,2.8c0.7,0,1.4,0,2,0s1.1,0,1.4,0c0.5,0,0.9,0.1,1.1,0.3c0.2,0.2,0.3,0.6,0.3,1.1
		s-0.1,1-0.2,1.3c-0.2,0.3-0.5,0.5-0.9,0.5c-0.3,0-0.8,0-1.6,0.1c-0.7,0-1.5,0-2.2,0c0,1.2-0.1,2.3-0.1,3.2c0,1-0.1,1.8-0.1,2.3
		c-0.1,0.7-0.3,1.2-0.6,1.4c-0.3,0.2-0.7,0.3-1.2,0.3c-0.5,0-0.9-0.1-1.2-0.4c-0.3-0.2-0.4-0.7-0.5-1.4c0-0.6,0-1.4,0-2.4
		c0-1.1,0-2.3,0-3.6c0-1.3,0-2.7,0.1-4.1s0-2.8,0.1-4.2c0-0.6,0.1-1.1,0.4-1.4c0.3-0.3,0.8-0.4,1.5-0.4c1.3,0,1.9,0.6,1.9,1.9
		C114.1,92.1,114.1,93,114.1,94z"/>
	<path d="M130.6,89.2c0,0.5,0,1,0,1.5c1.5,0,2.8-0.1,4.1-0.1c1.3,0,2.3-0.1,3.1-0.1c0.5,0,0.8,0.1,1.1,0.2c0.2,0.2,0.4,0.6,0.4,1.1
		c0,0.6-0.1,0.9-0.3,1.1c-0.2,0.2-0.6,0.3-1.1,0.4c-0.1,0-0.3,0-0.6,0c-0.3,0-0.5,0-0.8,0c-0.3,0-0.6,0-0.9,0c-0.3,0-0.6,0-0.8,0
		c0.5,0.2,0.9,0.6,1.2,1c0.3,0.4,0.6,0.8,0.8,1.4c0.2,0.5,0.4,1,0.5,1.6c0.1,0.6,0.2,1.2,0.2,1.8c0,1.1-0.1,2.1-0.5,3
		c-0.3,0.9-0.9,1.7-1.6,2.4c-0.7,0.7-1.6,1.3-2.7,1.7c-1.1,0.4-2.3,0.7-3.7,0.7c-1.4,0-2.6-0.1-3.7-0.4c-1.1-0.3-1.9-0.8-2.6-1.5
		c-0.7-0.6-1.2-1.4-1.6-2.4s-0.5-2-0.5-3.1c0-0.6,0.1-1.2,0.2-1.7c0.1-0.6,0.3-1.1,0.6-1.6c0.3-0.5,0.5-1,0.9-1.4
		c0.3-0.4,0.7-0.7,1.1-0.9c-0.3,0-0.6,0-0.9,0.1c-0.3,0-0.7,0-1,0c-0.3,0-0.7,0-1,0c-0.3,0-0.5,0-0.7,0c-0.4,0-0.8-0.1-1-0.2
		c-0.3-0.2-0.4-0.5-0.4-1.1c0-0.6,0.1-1,0.3-1.3c0.3-0.3,0.6-0.4,1-0.4c0.8,0,1.8-0.1,3.1-0.1c1.3,0,2.6-0.1,4.1-0.2
		c0-0.5,0-1-0.1-1.4c0-0.4,0-0.8,0-1.2c0-0.6,0.1-1,0.3-1.3c0.2-0.3,0.7-0.5,1.5-0.5c0.9,0,1.4,0,1.7,0.3c0.2,0.2,0.4,0.7,0.4,1.3
		C130.6,88.4,130.6,88.8,130.6,89.2z M128.9,104.1c1.6,0,2.9-0.6,3.7-1.5c0.8-1,1.2-2.3,1.2-3.9c0-1.6-0.5-2.9-1.4-3.8
		c-0.9-0.9-2-1.3-3.5-1.2c-0.8,0-1.4,0.2-2,0.5s-1.1,0.7-1.5,1.2c-0.4,0.5-0.7,1-0.9,1.7c-0.2,0.6-0.3,1.3-0.3,2.1
		c0,1.6,0.5,2.9,1.3,3.8C126.3,103.8,127.5,104.2,128.9,104.1z M145.5,117.5c-0.4,0.9-1,1.7-1.7,2.3c-0.8,0.6-1.7,1.2-2.8,1.5
		c-1.1,0.4-2.3,0.6-3.7,0.6c-2.8,0.1-4.9-0.5-6.5-1.7c-1.5-1.3-2.3-3-2.3-5.2c0-1,0.2-1.9,0.5-2.8s0.9-1.7,1.6-2.3
		c0.7-0.7,1.6-1.2,2.7-1.6c1.1-0.4,2.3-0.7,3.7-0.7c1.3-0.1,2.6,0,3.7,0.3c1.1,0.3,2,0.7,2.8,1.3c0.8,0.6,1.4,1.3,1.8,2.2
		c0.4,0.9,0.7,1.9,0.7,3C146.1,115.6,145.9,116.6,145.5,117.5z M141,117.7c0.5-0.4,0.8-0.8,1-1.4c0.2-0.5,0.3-1.1,0.3-1.8
		c0-1.3-0.6-2.4-1.5-3.1c-1-0.7-2.2-1-3.6-1c-0.8,0-1.5,0.2-2.1,0.4c-0.6,0.2-1.1,0.5-1.6,0.9c-0.4,0.4-0.8,0.9-1,1.4
		c-0.2,0.5-0.3,1.1-0.3,1.7c0,1.3,0.5,2.4,1.4,3.1c0.9,0.7,2.1,1.1,3.6,1c0.8,0,1.5-0.2,2.1-0.4C140,118.4,140.6,118.1,141,117.7z
		 M142.4,97.7c-0.8,0-1.4,0.1-2,0.1c-0.6,0-0.9,0-1.1,0c-0.5,0-0.8-0.1-1-0.4s-0.3-0.7-0.3-1.2c0-1,0.4-1.6,1.2-1.6
		c0.2,0,0.6,0,1.2-0.1c0.6,0,1.3-0.1,2.1-0.1c0-0.6,0-1.1,0-1.6c0-0.5,0-1.1,0-1.6c0-0.6,0.1-1.1,0.4-1.4c0.3-0.3,0.8-0.4,1.5-0.4
		c1.3,0,1.9,0.6,1.9,1.9c0,1.2,0,2.4-0.1,3.9s0,2.8-0.1,4.2c0,1.4-0.1,2.7-0.1,3.9c0,1.2-0.1,2.1-0.2,2.7c-0.1,0.7-0.3,1.2-0.6,1.4
		c-0.3,0.2-0.7,0.3-1.2,0.3c-0.5,0-0.9-0.1-1.2-0.4s-0.4-0.7-0.5-1.4c0-0.3,0-0.7,0-1.3c0-0.6,0-1.1,0-1.7c-0.7,0-1.4,0-2,0.1
		c-0.6,0-0.9,0-1.1,0c-0.5,0-0.8-0.1-1-0.4c-0.2-0.3-0.3-0.7-0.3-1.2c0-1,0.4-1.6,1.2-1.6c0.2,0,0.6,0,1.2,0c0.6,0,1.2-0.1,2-0.1
		V97.7z"/>
</g>
<g>
	<path d="M93.2,297.8c-0.5,1.2-1.2,2.1-2,2.9c-0.9,0.8-1.9,1.4-3.1,1.9c-1.2,0.4-2.5,0.7-3.9,0.7c-1.5,0-2.8-0.1-4-0.5s-2.2-1-3-1.7
		c-0.8-0.8-1.5-1.8-1.9-3c-0.5-1.2-0.7-2.6-0.7-4.2c0-1.3,0.2-2.6,0.7-3.7c0.4-1.2,1.1-2.2,1.9-3c0.8-0.9,1.8-1.6,3-2.1
		c1.2-0.5,2.5-0.8,4-0.9c1.5,0,2.8,0.2,4,0.6c1.2,0.4,2.2,1.1,3.1,1.9c0.8,0.8,1.5,1.9,1.9,3.1c0.5,1.2,0.7,2.6,0.7,4
		C94,295.4,93.7,296.7,93.2,297.8z M86.6,299.5c0.7-0.3,1.4-0.7,1.9-1.3c0.5-0.6,0.9-1.2,1.2-2c0.3-0.8,0.4-1.6,0.4-2.5
		c0-1-0.1-1.9-0.4-2.6c-0.3-0.8-0.7-1.4-1.2-2c-0.5-0.5-1.2-0.9-1.9-1.2c-0.7-0.3-1.5-0.4-2.3-0.4c-0.9,0-1.7,0.2-2.4,0.5
		c-0.7,0.3-1.3,0.8-1.8,1.4c-0.5,0.6-0.9,1.2-1.2,2c-0.3,0.8-0.4,1.6-0.4,2.5c0,2,0.5,3.5,1.6,4.6c1,1,2.4,1.5,4.2,1.5
		C85.1,300,85.9,299.8,86.6,299.5z M101.2,308c0,0.7-0.2,1.2-0.6,1.4c-0.3,0.3-0.8,0.4-1.3,0.3c-0.5,0-0.9-0.2-1.2-0.6
		c-0.3-0.3-0.4-0.9-0.4-1.7c0-8,0.1-16,0.4-23.9c0-0.6,0.2-1.1,0.5-1.4c0.3-0.3,0.8-0.4,1.5-0.4c1.2,0,1.9,0.6,1.9,1.9
		c0,2-0.1,4-0.1,6.1c0,2.1-0.1,4.2-0.2,6.2c-0.1,2.1-0.2,4.1-0.3,6.1C101.4,304.2,101.3,306.2,101.2,308z"/>
	<path d="M112.9,300.8c-2.1,0-4,0.1-5.8,0.1c-0.9,0-1.4-0.5-1.4-1.5c0-0.5,0.1-0.9,0.3-1.2c0.2-0.2,0.6-0.4,1.1-0.4
		c1.9-0.1,3.9-0.1,6-0.2s4.2-0.1,6.3-0.2c2.1-0.1,4.1-0.1,6.1-0.2c2,0,3.8-0.1,5.4-0.1c0.5,0,0.8,0.1,1,0.4c0.2,0.3,0.3,0.6,0.3,1.1
		c0,0.6-0.1,0.9-0.4,1.2c-0.2,0.2-0.6,0.3-1,0.4c-1.7,0.1-3.6,0.2-5.5,0.3c-2,0.1-4,0.2-6.1,0.2C117,300.7,114.9,300.8,112.9,300.8z
		 M125.8,283.9c-0.7,0-1.6,0-2.6,0.1c-1,0-2,0.1-3.1,0.1c-1.1,0-2.3,0.1-3.4,0.1s-2.3,0.1-3.3,0.1c-1.1,0-2,0.1-2.9,0.1
		c-0.9,0-1.6,0-2.2,0c-0.4,0-0.6-0.1-0.8-0.3s-0.2-0.6-0.2-1.2c0-0.6,0.1-1,0.3-1.2c0.2-0.2,0.5-0.3,1-0.4c1.6,0,3.3-0.1,5-0.2
		c1.7-0.1,3.5-0.1,5.2-0.2c1.8-0.1,3.5-0.1,5.2-0.1c1.7,0,3.4-0.1,4.9-0.1c0.6,0,0.9,0.3,0.9,1c0,0.5,0,0.9,0,1.5
		c0,0.5,0,1.1-0.1,1.6s0,1.1-0.1,1.6c0,0.5,0,1-0.1,1.5s-0.1,0.8-0.4,1c-0.2,0.2-0.6,0.4-1.2,0.4c-0.7,0-1.5,0.1-2.4,0.2
		c-0.9,0.1-1.9,0.1-3,0.2c-1.1,0.1-2.1,0.1-3.2,0.2c-1.1,0.1-2.2,0.1-3.2,0.2c-1,0.1-2,0.1-2.9,0.2c-0.9,0.1-1.6,0.1-2.2,0.2
		c0,0.3,0,0.6,0,0.9c0,0.3,0,0.6,0.1,0.8c0,0.2,0.1,0.3,0.1,0.4c0.1,0.1,0.2,0.1,0.4,0.1c1.3,0,2.6-0.1,4-0.1c1.4,0,2.9-0.1,4.3-0.1
		c1.5,0,2.9-0.1,4.4-0.1c1.5,0,2.9-0.1,4.3-0.1c0.4,0,0.7,0.1,0.9,0.2c0.2,0.2,0.3,0.6,0.3,1.1c0,0.9-0.4,1.4-1.1,1.4
		c-3.1,0.2-6.2,0.4-9.3,0.5c-3.1,0.1-6.2,0.2-9.3,0.3c-1,0-1.6-0.1-2-0.4c-0.4-0.3-0.6-0.8-0.7-1.5c-0.1-0.7-0.1-1.5-0.2-2.4
		c0-0.9-0.1-1.8,0-2.5c0-0.7,0.3-1,0.8-1c0.6,0,1.4-0.1,2.3-0.2c0.9-0.1,1.9-0.1,3-0.2c1.1-0.1,2.2-0.1,3.4-0.2
		c1.2-0.1,2.3-0.1,3.4-0.2c1.1-0.1,2.1-0.1,3.1-0.2c1-0.1,1.8-0.1,2.4-0.2V283.9z M129,307.8c0,1.1-0.1,2.2-0.1,3.2
		c0,0.6-0.2,1-0.3,1.2c-0.2,0.3-0.5,0.4-1,0.4c-0.4,0-1,0.1-1.9,0.1c-0.9,0-1.8,0.1-3,0.1c-1.1,0-2.3,0-3.5,0.1
		c-1.2,0-2.4,0-3.5,0.1c-1.1,0-2.1,0-2.9,0.1c-0.9,0-1.5,0-1.8,0c-1.3,0-2.1-0.7-2.2-2.2c-0.1-1-0.1-1.9-0.2-2.9
		c0-0.9-0.1-2-0.1-3.1c0-1,0.5-1.6,1.4-1.6c0.4,0,1.1,0,2.1-0.1c0.9,0,2-0.1,3.2-0.1c1.2,0,2.4-0.1,3.7-0.1s2.6-0.1,3.7-0.1
		c1.2,0,2.3,0,3.2-0.1c0.9,0,1.7,0,2.1,0c0.4,0,0.6,0.1,0.8,0.3s0.2,0.5,0.2,0.9C129.1,305.4,129.1,306.7,129,307.8z M125,309.8
		c0.3,0,0.5-0.2,0.5-0.5c0-0.5,0-1.1,0-1.6s0-1.2,0-1.8l-13.1,0.4c0,0.6,0,1.2,0,1.9s0,1.2,0.1,1.9L125,309.8z"/>
</g>
<polygon style="fill:#FFFFFF;stroke:#1D1D1B;stroke-width:3;stroke-linecap:round;stroke-linejoin:round;stroke-miterlimit:10;" points="
	707.3,12.4 629.5,79.7 649,142.5 763.6,142.5 784.7,80.5 "/>
<path style="fill:#FFFFFF;stroke:#1D1D1B;stroke-width:3;stroke-linecap:round;stroke-linejoin:round;stroke-miterlimit:10;" d="
	M921.5,22.4L844.9,58v73.3c0,0,59.1,37.7,57.9,36.9c-1.2-0.8,69.7-37.7,69.7-37.7V58L921.5,22.4z"/>
</svg>
