
<svg xmlns="http://www.w3.org/2000/svg" version="1.1" xmlns:xlink="http://www.w3.org/1999/xlink" preserveAspectRatio="none" x="0px" y="0px" width="60px" height="60px" viewBox="0 0 60 60">
<defs>
<radialGradient id="Gradient_1" gradientUnits="userSpaceOnUse" cx="0" cy="0" r="25.75" fx="0" fy="0" gradientTransform="matrix( 1, 0, 0, 1, 30,26.75) " spreadMethod="pad">
<stop  offset="0%" stop-color="#987EEE"/>

<stop  offset="100%" stop-color="#7254CD"/>
</radialGradient>

<g id="Layer1_0_FILL">
<path fill="#7658D0" stroke="none" d="
M 1039.05 185.15
L 1029.9 194.3 1048 203.2 1039.05 185.15 Z"/>
</g>

<g id="Layer1_1_FILL">
<path fill="url(#Gradient_1)" stroke="none" d="
M 55.4 26.75
Q 55.4 16.2 47.95 8.75 40.55 1.35 30 1.35 19.45 1.35 12 8.75 4.6 16.2 4.6 26.75 4.6 37.3 12 44.7 19.45 52.15 30 52.15 40.55 52.15 47.95 44.7 55.4 37.3 55.4 26.75 Z"/>
</g>

<g id="Layer1_2_FILL">
<path fill="#FFFFFF" fill-opacity="0.2980392156862745" stroke="none" d="
M 4.7 -18.45
Q 6.45 -19.15 6.45 -20.2 6.45 -21.25 4.7 -22 2.95 -22.7 0.45 -22.7 -2.05 -22.7 -3.8 -22 -5.55 -21.25 -5.55 -20.2 -5.55 -19.15 -3.8 -18.45 -2.05 -17.7 0.45 -17.7 2.95 -17.7 4.7 -18.45 Z"/>
</g>

<g id="Layer0_0_FILL">
<path fill="#FFFFFF" stroke="none" d="
M 32.1 34.85
Q 31.4 34.15 30.5 33.95 30.1 33.9 29.8 33.9 29.5 33.9 29.15 33.95 28.2 34.15 27.45 34.85 26.5 35.95 26.5 37.25 26.5 38.6 27.45 39.5 28.45 40.55 29.8 40.55 31.15 40.55 32.1 39.5 33.15 38.6 33.15 37.25 33.15 35.95 32.1 34.85
M 32.4 13.85
Q 31.5 12.95 30.2 12.95
L 29.5 12.95
Q 28.15 12.95 27.2 13.85 26.3 14.8 26.3 16.1
L 26.3 27.85
Q 26.45 29.15 27.2 29.85 28.15 30.8 29.5 30.8
L 30.2 30.8
Q 31.55 30.8 32.4 29.85 33.15 29.15 33.3 27.85
L 33.3 16.1
Q 33.3 14.8 32.4 13.85 Z"/>
</g>
</defs>

<g transform="matrix( 0.89996337890625, 0, 0, 0.899993896484375, -905.55,-124.25) ">
<use xlink:href="#Layer1_0_FILL"/>
</g>

<g transform="matrix( 1, 0, 0, 1, 0,0) ">
<use xlink:href="#Layer1_1_FILL"/>
</g>

<g transform="matrix( 0.8099212646484375, 0, 0, 0.8099822998046875, 29.65,21.8) ">
<use xlink:href="#Layer1_2_FILL"/>
</g>

<g transform="matrix( 1, 0, 0, 1, 0,0) ">
<use xlink:href="#Layer0_0_FILL"/>
</g>
</svg>
