<?xml version="1.0" encoding="utf-8"?>
<!-- Generator: Adobe Illustrator 23.1.0, SVG Export Plug-In . SVG Version: 6.00 Build 0)  -->
<svg version="1.1" id="레이어_1" xmlns="http://www.w3.org/2000/svg" xmlns:xlink="http://www.w3.org/1999/xlink" x="0px"
	 y="0px" width="370px" height="60px" viewBox="0 0 370 60" style="enable-background:new 0 0 370 60;" xml:space="preserve">
<g>
	<g>
		<path style="fill:#231F20;" d="M182.6,57.1c-8.5,0-16.6-1.9-24.2-5.7l-0.2-0.5l24-48h0.7l24,48l-0.2,0.5
			C199.2,55.2,191.1,57.1,182.6,57.1z M159.2,50.9c7.3,3.6,15.2,5.4,23.4,5.4s16.1-1.8,23.4-5.4L182.6,4L159.2,50.9z M360.5,52.5
			h-48.6l-0.3-0.7l55.1-48.6l0.7,0.4l-6.5,48.6L360.5,52.5z M312.9,51.6h47.2l6.3-47.2L312.9,51.6z M285,52.5h-48.6l-0.4-0.4V3.4
			l0.7-0.3l48.6,48.6L285,52.5z M236.7,51.6H284L236.7,4.4V51.6z M127.8,52.5h-49l-0.4-0.6l24.5-49h0.7l24.5,49L127.8,52.5z
			 M79.4,51.6h47.7L103.3,4L79.4,51.6z"/>
	</g>
	<g>
		<path style="fill:#231F20;" d="M29.2,57.1c-9.3,0-18.4-2.5-26.3-7.1l-0.2-0.3C2.7,31,12.7,13.7,28.9,4.4h0.4
			c16.2,9.4,26.2,26.8,26.2,45.4l-0.2,0.3C47.4,54.7,38.3,57.1,29.2,57.1z M3.4,49.4c7.8,4.5,16.7,6.9,25.7,6.9
			c8.9,0,17.7-2.3,25.5-6.7c-0.1-18.2-9.9-35.2-25.6-44.4C13.4,14.3,3.6,31.3,3.4,49.4z"/>
	</g>
	<g>
		<path style="fill:#231F20;" d="M32.3,29.6v11h0.9v-5.5h1.7v-0.8h-1.7v-4.7H32.3z M25.2,30.9v0.8h3.9c0,0.5-0.2,1-0.4,1.7
			c-0.2,0.7-0.6,1.4-1,2c-0.4,0.6-0.9,1.1-1.5,1.6c-0.6,0.5-1.1,0.8-1.7,1.1l0.7,0.6c0.6-0.3,1.2-0.7,1.7-1.2c0.5-0.5,1.1-1,1.6-1.7
			c0.5-0.7,0.9-1.5,1.2-2.4c0.2-0.9,0.4-1.7,0.4-2.4H25.2z"/>
	</g>
	<g>
		<path style="fill:#231F20;" d="M109.4,33.9h-1.7v-4.3h-0.9v11h0.9v-5.9h1.7V33.9z M106,36.6c-0.4,0.1-0.9,0.2-1.6,0.3
			c-0.7,0.1-1.3,0.1-1.8,0.2l-2,0v-6.4h-0.9v7.3l2.8,0c0.6,0,1.3-0.1,1.9-0.2c0.7-0.1,1.2-0.2,1.6-0.2V36.6z"/>
	</g>
	<g>
		<path style="fill:#231F20;" d="M187,34h-1.7v-4.5h-0.9v11h0.9v-5.7h1.7V34z M183.7,36.9c-0.3,0-0.7,0.1-1.3,0.2
			c-0.6,0.1-1.2,0.1-1.7,0.1l-2.3,0v-5.5h4.2v-0.8h-5.1V38h1c0.6,0,1.3,0,1.9,0c0.7,0,1.4-0.1,2-0.1c0.6-0.1,1.1-0.1,1.3-0.2V36.9z"
			/>
	</g>
	<g>
		<path style="fill:#231F20;" d="M253.8,31.4v11h0.9v-5.7h1.7v-0.8h-1.7v-4.5H253.8z M253,39c-0.3,0-0.8,0.1-1.5,0.2
			c-0.7,0.1-1.3,0.1-1.8,0.1l-2.2,0v-2.7h4v-4.2h-4.9v0.8h4v2.6h-4v4.3h1c0.6,0,1.3,0,1.9,0c0.6,0,1.3-0.1,1.9-0.1
			c0.7-0.1,1.2-0.1,1.5-0.2V39z"/>
	</g>
	<g>
		<path style="fill:#231F20;" d="M343.4,35.2h3.3v5.6h-3.3V35.2z M352.4,37.4h-1.7v-4.4h-0.9v11h0.9v-5.8h1.7V37.4z M347.6,34.5h-5
			v7.2h5V34.5z"/>
	</g>
	<g>
		<rect x="2.6" y="2.9" style="fill:none;" width="364.7" height="54.2"/>
	</g>
</g>
<g>
</g>
<g>
</g>
<g>
</g>
<g>
</g>
<g>
</g>
<g>
</g>
<g>
</g>
<g>
</g>
<g>
</g>
<g>
</g>
<g>
</g>
<g>
</g>
<g>
</g>
<g>
</g>
<g>
</g>
</svg>
