
<svg xmlns="http://www.w3.org/2000/svg" version="1.1" xmlns:xlink="http://www.w3.org/1999/xlink" preserveAspectRatio="none" x="0px" y="0px" width="1122px" height="373px" viewBox="0 0 1122 373">
<defs>
<g id="Layer0_0_FILL">
<path fill="#3567D7" stroke="none" d="
M 582.65 305.2
Q 582.15 305.2 582.4 305.65 585.6 310.7 587.15 315.4 588.65 320.1 588.65 324.8 588.65 329.5 587.15 334.15 585.65 338.85 582.4 343.9 582.3 344.05 582.35 344.2 582.35 344.35 582.65 344.35
L 585.6 344.35
Q 585.95 344.35 586.15 344 589.95 339.35 591.65 334.6 593.35 329.85 593.35 324.8 593.35 319.7 591.65 315 589.95 310.25 586.15 305.55 585.95 305.2 585.6 305.2
L 582.65 305.2
M 564.85 317.55
Q 565.1 317.55 565.35 317.4
L 568.3 314.8 568.3 338.5
Q 568.3 339 568.85 339
L 572.05 339
Q 572.55 339 572.55 338.5
L 572.55 309.7
Q 572.55 308.9 572.4 308.75 572.3 308.6 571.6 308.6
L 569.5 308.6
Q 569.35 308.6 569.15 308.7 568.95 308.75 568.9 308.85
L 562.75 314.5
Q 562.55 314.7 562.55 314.9 562.5 315.15 562.65 315.3
L 564.45 317.45
Q 564.6 317.6 564.85 317.55
M 530.1 320.15
Q 530.8 319.2 531.2 318.15 531.55 317.05 531.55 315.95 531.55 313.95 530.7 312.45 529.85 310.95 528.5 310.05 527.2 309.15 525.45 308.7 523.7 308.25 521.9 308.25 520.2 308.25 518.55 308.6 516.85 309 515.1 309.6 514.7 309.8 514.55 310 514.4 310.15 514.5 310.4
L 514.85 313.35
Q 514.95 313.7 515.15 313.8 515.35 313.9 515.85 313.7 516.45 313.45 517.25 313.2 518.05 312.95 518.85 312.8 519.65 312.6 520.4 312.5 521.1 312.4 521.65 312.4 522.5 312.4 523.45 312.6 524.4 312.8 525.25 313.3 526.05 313.75 526.6 314.55 527.1 315.3 527.1 316.3 527.1 317.65 526.3 318.55 525.5 319.5 524.3 320.1 523.15 320.7 521.9 320.95 520.65 321.2 519.8 321.2
L 517.9 321.2
Q 517.55 321.2 517.45 321.3 517.35 321.35 517.35 321.75
L 517.35 324.7
Q 517.35 325 517.45 325.1 517.55 325.2 517.9 325.2
L 519.85 325.2
Q 521.8 325.2 523.15 325.6 524.55 325.95 525.45 326.65 526.3 327.3 526.75 328.15 527.15 329 527.15 329.95 527.15 332.6 525.2 333.95 524.55 334.4 523.8 334.65 523 334.95 522.15 335.05 521.3 335.15 520.4 335.1 519.5 335.05 518.7 335 517.6 334.9 516.55 334.6 515.5 334.3 514.45 334 513.9 333.75 513.7 333.9 513.5 334 513.45 334.35
L 513.1 337.4
Q 513.05 337.75 513.25 337.9 513.4 338.1 513.8 338.2 515.25 338.75 517 339.05 518.75 339.35 520.5 339.35 522.8 339.35 524.95 338.75 527.1 338.2 528.6 336.95 530.1 335.7 530.95 333.95 531.75 332.15 531.75 330.05 531.75 327.85 530.4 326.05 529.05 324.3 526.4 323.15 527.5 322.65 528.45 321.9 529.4 321.15 530.1 320.15
M 507 305.2
Q 506.7 305.2 506.45 305.55 502.7 310.25 501 315 499.3 319.7 499.3 324.8 499.3 329.85 501 334.6 502.7 339.35 506.45 344 506.7 344.35 507 344.35
L 509.95 344.35
Q 510.25 344.35 510.3 344.2 510.35 344.05 510.2 343.9 506.95 338.85 505.45 334.15 503.95 329.5 503.95 324.8 503.95 320.1 505.5 315.4 507 310.7 510.2 305.65 510.5 305.2 509.95 305.2
L 507 305.2
M 298.85 111.15
Q 299.2 110.05 299.2 108.95 299.2 106.95 298.35 105.45 297.5 103.95 296.15 103.05 294.85 102.15 293.1 101.7 291.35 101.25 289.55 101.25 287.85 101.25 286.2 101.6 284.5 102 282.75 102.6 282.35 102.8 282.2 103 282.05 103.15 282.15 103.4
L 282.5 106.35
Q 282.6 106.7 282.8 106.8 283 106.9 283.5 106.7 284.1 106.45 284.9 106.2 285.7 105.95 286.5 105.8 287.3 105.6 288.05 105.5 288.75 105.4 289.3 105.4 290.15 105.4 291.1 105.6 292.05 105.8 292.9 106.3 293.7 106.75 294.25 107.55 294.75 108.3 294.75 109.3 294.75 110.65 293.95 111.55 293.15 112.5 291.95 113.1 290.8 113.7 289.55 113.95 288.3 114.2 287.45 114.2
L 285.55 114.2
Q 285.2 114.2 285.1 114.3 285 114.35 285 114.75
L 285 117.7
Q 285 118 285.1 118.1 285.2 118.2 285.55 118.2
L 287.5 118.2
Q 289.45 118.2 290.8 118.6 292.2 118.95 293.1 119.65 293.95 120.3 294.4 121.15 294.8 122 294.8 122.95 294.8 125.6 292.85 126.95 292.2 127.4 291.45 127.65 290.65 127.95 289.8 128.05 288.95 128.15 288.05 128.1 287.15 128.05 286.35 128 285.25 127.9 284.2 127.6 283.15 127.3 282.1 127 281.55 126.75 281.35 126.9 281.15 127 281.1 127.35
L 280.75 130.4
Q 280.7 130.75 280.9 130.9 281.05 131.1 281.45 131.2 282.9 131.75 284.65 132.05 286.4 132.35 288.15 132.35 290.45 132.35 292.6 131.75 294.75 131.2 296.25 129.95 297.75 128.7 298.6 126.95 299.4 125.15 299.4 123.05 299.4 120.85 298.05 119.05 296.7 117.3 294.05 116.15 295.15 115.65 296.1 114.9 297.05 114.15 297.75 113.15 298.45 112.2 298.85 111.15
M 240.05 117
Q 241.45 116.7 242.75 116.7 246.05 116.7 247.45 118.25 248.9 119.75 248.9 122.35 248.9 125.05 247.1 126.55 245.4 128.1 242.7 128.1 242 128.1 241.15 128 240.35 127.95 239.5 127.8 238.65 127.6 237.85 127.4 237.05 127.15 236.5 126.85 235.65 126.45 235.65 127.15
L 235.65 130.4
Q 235.65 130.7 235.65 130.85 235.7 130.95 235.95 131.15 236.6 131.45 237.55 131.65 238.45 131.9 239.4 132.05 240.35 132.15 241.15 132.25 242 132.3 242.4 132.3 244.7 132.3 246.75 131.65 248.85 131 250.25 129.7 253.4 126.9 253.4 121.85 253.4 119.75 252.65 118.1 251.9 116.4 250.6 115.2 249.3 114.05 247.55 113.4 245.8 112.8 243.8 112.8 241.85 112.8 240.25 113.15
L 240.4 105.75 251.55 105.75
Q 251.8 105.75 251.95 105.55 252.05 105.4 252.05 105.15
L 252.05 102.1
Q 252.05 101.9 251.95 101.75 251.8 101.55 251.55 101.55
L 236.9 101.55
Q 236.3 101.55 236.2 101.7 236.05 101.8 236.05 102.25
L 235.85 117
Q 235.85 118.35 237.4 117.7 238.65 117.25 240.05 117
M 245 11.65
Q 245 10.85 244.85 10.7 244.75 10.55 244.05 10.55
L 241.95 10.55
Q 241.8 10.55 241.6 10.65 241.4 10.7 241.35 10.8
L 235.2 16.45
Q 235 16.65 235 16.85 234.95 17.1 235.1 17.25
L 236.9 19.4
Q 237.05 19.55 237.3 19.5 237.55 19.5 237.8 19.35
L 240.75 16.75 240.75 40.45
Q 240.75 40.95 241.3 40.95
L 244.5 40.95
Q 245 40.95 245 40.45
L 245 11.65
M 265.15 15.3
L 265.15 23.7 256.65 23.7
Q 256.45 23.7 256.35 23.85 256.2 24 256.2 24.2
L 256.2 27.3
Q 256.2 27.5 256.35 27.65 256.45 27.8 256.65 27.8
L 265.15 27.8 265.15 36.25
Q 265.15 36.75 265.6 36.75
L 268.9 36.75
Q 269.35 36.75 269.35 36.25
L 269.35 27.8 277.8 27.8
Q 278.3 27.8 278.3 27.3
L 278.3 24.2
Q 278.3 23.7 277.8 23.7
L 269.35 23.7 269.35 15.3
Q 269.35 15.15 269.25 14.95 269.1 14.85 268.9 14.85
L 265.6 14.85
Q 265.45 14.85 265.25 14.95 265.15 15.15 265.15 15.3
M 297.75 12.35
Q 296.6 11.3 294.95 10.75 293.35 10.2 291.4 10.2 289.55 10.2 287.55 10.85 285.6 11.5 284.1 12.3 283.7 12.5 283.55 12.75 283.45 12.9 283.55 13.1
L 284.1 16.15
Q 284.2 16.5 284.5 16.55 284.8 16.55 285.15 16.35 286.95 15.3 288.45 14.85 290 14.4 291.65 14.4 293.4 14.4 294.55 15.65 295.75 16.9 295.75 18.8 295.75 20.5 294.15 23.1 292.55 25.75 289.2 29.7
L 283.1 36.95
Q 282.9 37.25 282.7 37.55 282.55 37.9 282.55 38.2
L 282.55 40.5
Q 282.55 41 283.3 41
L 300.35 41
Q 300.9 41 300.9 40.3
L 300.9 37.5
Q 300.9 36.9 300.35 36.9
L 288.6 36.9
Q 289.6 35.75 290.6 34.6 291.6 33.4 292.45 32.3 293.55 31 294.95 29.4 296.3 27.75 297.5 26 298.7 24.2 299.5 22.35 300.3 20.5 300.3 18.7 300.3 16.6 299.6 15 298.9 13.4 297.75 12.35
M 346.25 218.7
Q 346.25 217.9 346.1 217.75 346 217.6 345.3 217.6
L 343.2 217.6
Q 343.05 217.6 342.85 217.7 342.65 217.75 342.6 217.85
L 336.45 223.5
Q 336.25 223.7 336.25 223.9 336.2 224.15 336.35 224.3
L 338.15 226.45
Q 338.3 226.6 338.55 226.55 338.8 226.55 339.05 226.4
L 342 223.8 342 247.5
Q 342 248 342.55 248
L 345.75 248
Q 346.25 248 346.25 247.5
L 346.25 218.7
M 367.05 233.8
Q 367.05 228.7 365.35 224 363.65 219.25 359.85 214.55 359.65 214.2 359.3 214.2
L 356.35 214.2
Q 355.85 214.2 356.1 214.65 359.3 219.7 360.85 224.4 362.35 229.1 362.35 233.8 362.35 238.5 360.85 243.15 359.35 247.85 356.1 252.9 356 253.05 356.05 253.2 356.05 253.35 356.35 253.35
L 359.3 253.35
Q 359.65 253.35 359.85 253 363.65 248.35 365.35 243.6 367.05 238.85 367.05 233.8
M 328.65 234.85
Q 329.15 234.85 329.15 234.35
L 329.15 231.25
Q 329.15 230.75 328.65 230.75
L 320.2 230.75 320.2 222.35
Q 320.2 222.2 320.1 222 319.95 221.9 319.75 221.9
L 316.45 221.9
Q 316.3 221.9 316.1 222 316 222.2 316 222.35
L 316 230.75 307.5 230.75
Q 307.3 230.75 307.2 230.9 307.05 231.05 307.05 231.25
L 307.05 234.35
Q 307.05 234.55 307.2 234.7 307.3 234.85 307.5 234.85
L 316 234.85 316 243.3
Q 316 243.8 316.45 243.8
L 319.75 243.8
Q 320.2 243.8 320.2 243.3
L 320.2 234.85 328.65 234.85
M 285.05 218.6
Q 284.65 218.8 284.5 219 284.35 219.15 284.45 219.4
L 284.8 222.35
Q 284.9 222.7 285.1 222.8 285.3 222.9 285.8 222.7 286.4 222.45 287.2 222.2 288 221.95 288.8 221.8 289.6 221.6 290.35 221.5 291.05 221.4 291.6 221.4 292.45 221.4 293.4 221.6 294.35 221.8 295.2 222.3 296 222.75 296.55 223.55 297.05 224.3 297.05 225.3 297.05 226.65 296.25 227.55 295.45 228.5 294.25 229.1 293.1 229.7 291.85 229.95 290.6 230.2 289.75 230.2
L 287.85 230.2
Q 287.5 230.2 287.4 230.3 287.3 230.35 287.3 230.75
L 287.3 233.7
Q 287.3 234 287.4 234.1 287.5 234.2 287.85 234.2
L 289.8 234.2
Q 291.75 234.2 293.1 234.6 294.5 234.95 295.4 235.65 296.25 236.3 296.7 237.15 297.1 238 297.1 238.95 297.1 241.6 295.15 242.95 294.5 243.4 293.75 243.65 292.95 243.95 292.1 244.05 291.25 244.15 290.35 244.1 289.45 244.05 288.65 244 287.55 243.9 286.5 243.6 285.45 243.3 284.4 243 283.85 242.75 283.65 242.9 283.45 243 283.4 243.35
L 283.05 246.4
Q 283 246.75 283.2 246.9 283.35 247.1 283.75 247.2 285.2 247.75 286.95 248.05 288.7 248.35 290.45 248.35 292.75 248.35 294.9 247.75 297.05 247.2 298.55 245.95 300.05 244.7 300.9 242.95 301.7 241.15 301.7 239.05 301.7 236.85 300.35 235.05 299 233.3 296.35 232.15 297.45 231.65 298.4 230.9 299.35 230.15 300.05 229.15 300.75 228.2 301.15 227.15 301.5 226.05 301.5 224.95 301.5 222.95 300.65 221.45 299.8 219.95 298.45 219.05 297.15 218.15 295.4 217.7 293.65 217.25 291.85 217.25 290.15 217.25 288.5 217.6 286.8 218 285.05 218.6
M 280.15 214.65
Q 280.45 214.2 279.9 214.2
L 276.95 214.2
Q 276.65 214.2 276.4 214.55 272.65 219.25 270.95 224 269.25 228.7 269.25 233.8 269.25 238.85 270.95 243.6 272.65 248.35 276.4 253 276.65 253.35 276.95 253.35
L 279.9 253.35
Q 280.2 253.35 280.25 253.2 280.3 253.05 280.15 252.9 276.9 247.85 275.4 243.15 273.9 238.5 273.9 233.8 273.9 229.1 275.45 224.4 276.95 219.7 280.15 214.65
M 292 312.45
Q 291.15 310.95 289.8 310.05 288.5 309.15 286.75 308.7 285 308.25 283.2 308.25 281.5 308.25 279.85 308.6 278.15 309 276.4 309.6 276 309.8 275.85 310 275.7 310.15 275.8 310.4
L 276.15 313.35
Q 276.25 313.7 276.45 313.8 276.65 313.9 277.15 313.7 277.75 313.45 278.55 313.2 279.35 312.95 280.15 312.8 280.95 312.6 281.7 312.5 282.4 312.4 282.95 312.4 283.8 312.4 284.75 312.6 285.7 312.8 286.55 313.3 287.35 313.75 287.9 314.55 288.4 315.3 288.4 316.3 288.4 317.65 287.6 318.55 286.8 319.5 285.6 320.1 284.45 320.7 283.2 320.95 281.95 321.2 281.1 321.2
L 279.2 321.2
Q 278.85 321.2 278.75 321.3 278.65 321.35 278.65 321.75
L 278.65 324.7
Q 278.65 325 278.75 325.1 278.85 325.2 279.2 325.2
L 281.15 325.2
Q 283.1 325.2 284.45 325.6 285.85 325.95 286.75 326.65 287.6 327.3 288.05 328.15 288.45 329 288.45 329.95 288.45 332.6 286.5 333.95 285.85 334.4 285.1 334.65 284.3 334.95 283.45 335.05 282.6 335.15 281.7 335.1 280.8 335.05 280 335 278.9 334.9 277.85 334.6 276.8 334.3 275.75 334 275.2 333.75 275 333.9 274.8 334 274.75 334.35
L 274.4 337.4
Q 274.35 337.75 274.55 337.9 274.7 338.1 275.1 338.2 276.55 338.75 278.3 339.05 280.05 339.35 281.8 339.35 284.1 339.35 286.25 338.75 288.4 338.2 289.9 336.95 291.4 335.7 292.25 333.95 293.05 332.15 293.05 330.05 293.05 327.85 291.7 326.05 290.35 324.3 287.7 323.15 288.8 322.65 289.75 321.9 290.7 321.15 291.4 320.15 292.1 319.2 292.5 318.15 292.85 317.05 292.85 315.95 292.85 313.95 292 312.45
M 232.4 325.95
Q 232.2 325.95 232.05 326.05 231.9 326.2 231.9 326.4
L 231.9 329.55
Q 231.9 329.8 232.05 329.9 232.2 330.05 232.4 330.05
L 253.5 330.05
Q 253.7 330.05 253.85 329.9 254 329.8 254 329.55
L 254 326.4
Q 254 326.2 253.85 326.05 253.7 325.95 253.5 325.95
L 232.4 325.95
M 204.15 333.75
Q 204 333.6 203.3 333.6
L 186.3 333.6
Q 185.6 333.6 185.6 334.25
L 185.6 337.05
Q 185.6 337.4 185.8 337.55 186 337.75 186.3 337.75
L 199.05 337.75 188.6 363.3
Q 188.45 363.75 188.6 363.85 188.75 364 189.35 364
L 192.6 364
Q 193 364 193.15 363.9 193.3 363.75 193.5 363.45
L 204.05 337.4
Q 204.3 337.1 204.3 336.75
L 204.3 334.35
Q 204.3 333.9 204.15 333.75
M 231.9 321.25
Q 231.9 321.45 232.05 321.6 232.2 321.75 232.4 321.75
L 253.5 321.75
Q 253.7 321.75 253.85 321.6 254 321.45 254 321.25
L 254 318.1
Q 254 317.9 253.85 317.75 253.7 317.6 253.5 317.6
L 232.4 317.6
Q 232.2 317.6 232.05 317.75 231.9 317.9 231.9 318.1
L 231.9 321.25
M 198.8 295.4
Q 197.05 294.8 195.05 294.8 193.1 294.8 191.5 295.15
L 191.65 287.75 202.8 287.75
Q 203.05 287.75 203.2 287.55 203.3 287.4 203.3 287.15
L 203.3 284.1
Q 203.3 283.9 203.2 283.75 203.05 283.55 202.8 283.55
L 188.15 283.55
Q 187.55 283.55 187.45 283.7 187.3 283.8 187.3 284.25
L 187.1 299
Q 187.1 300.35 188.65 299.7 189.9 299.25 191.3 299 192.7 298.7 194 298.7 197.3 298.7 198.7 300.25 200.15 301.75 200.15 304.35 200.15 307.05 198.35 308.55 196.65 310.1 193.95 310.1 193.25 310.1 192.4 310 191.6 309.95 190.75 309.8 189.9 309.6 189.1 309.4 188.3 309.15 187.75 308.85 186.9 308.45 186.9 309.15
L 186.9 312.4
Q 186.9 312.7 186.9 312.85 186.95 312.95 187.2 313.15 187.85 313.45 188.8 313.65 189.7 313.9 190.65 314.05 191.6 314.15 192.4 314.25 193.25 314.3 193.65 314.3 195.95 314.3 198 313.65 200.1 313 201.5 311.7 204.65 308.9 204.65 303.85 204.65 301.75 203.9 300.1 203.15 298.4 201.85 297.2 200.55 296.05 198.8 295.4
M 203.35 247
Q 203.9 247.25 204 246.7
L 204.1 243.5
Q 204.15 243.1 203.8 243 202.9 242.65 201.45 242.45 200.05 242.25 198.9 242.25 195.15 242.25 192.6 243.55 190.05 244.9 188.45 247.15 186.9 249.35 186.2 252.4 185.5 255.4 185.5 258.8 185.5 266.25 188.05 269.8 190.6 273.35 195.3 273.35 197.6 273.35 199.45 272.55 201.3 271.75 202.6 270.3 203.9 268.95 204.55 267 205.25 265.15 205.25 262.95 205.25 260.65 204.55 258.85 203.85 257 202.55 255.7 201.3 254.4 199.5 253.7 197.75 253 195.55 253 194.8 253 194 253.25 193.2 253.45 192.45 253.8 191.7 254.15 191.1 254.6 190.5 255.05 190.15 255.55 190.4 253.6 191 251.9 191.55 250.25 192.55 249 193.55 247.75 195 247.05 196.5 246.4 198.55 246.4 199.95 246.4 201.15 246.5 202.3 246.6 203.35 247
M 195.7 257.2
Q 198.15 257.2 199.5 258.8 200.85 260.35 200.85 263.15 200.85 266 199.35 267.7 197.8 269.35 195.4 269.35 194.3 269.35 193.3 268.85 192.35 268.35 191.65 267.45 190.95 266.55 190.55 265.3 190.15 264.15 190.15 262.75 190.15 260.3 191.65 258.75 193.1 257.2 195.7 257.2
M 253.5 230.75
Q 253.7 230.75 253.85 230.6 254 230.45 254 230.25
L 254 227.1
Q 254 226.9 253.85 226.75 253.7 226.6 253.5 226.6
L 232.4 226.6
Q 232.2 226.6 232.05 226.75 231.9 226.9 231.9 227.1
L 231.9 230.25
Q 231.9 230.45 232.05 230.6 232.2 230.75 232.4 230.75
L 253.5 230.75
M 253.85 235.05
Q 253.7 234.95 253.5 234.95
L 232.4 234.95
Q 232.2 234.95 232.05 235.05 231.9 235.2 231.9 235.4
L 231.9 238.55
Q 231.9 238.8 232.05 238.9 232.2 239.05 232.4 239.05
L 253.5 239.05
Q 253.7 239.05 253.85 238.9 254 238.8 254 238.55
L 254 235.4
Q 254 235.2 253.85 235.05
M 124.25 321.3
Q 124.1 321.45 124.1 321.65
L 124.1 324.85
Q 124.1 325.05 124.25 325.2 124.4 325.35 124.6 325.35
L 134.25 325.35
Q 134.5 325.35 134.65 325.2 134.8 325.05 134.8 324.85
L 134.8 321.65
Q 134.8 321.45 134.65 321.3 134.5 321.15 134.25 321.15
L 124.6 321.15
Q 124.4 321.15 124.25 321.3
M 160.75 308.7
Q 160.55 308.75 160.5 308.85
L 154.35 314.5
Q 154.15 314.7 154.15 314.9 154.1 315.15 154.25 315.3
L 156.05 317.45
Q 156.2 317.6 156.45 317.55 156.7 317.55 156.95 317.4
L 159.9 314.8 159.9 338.5
Q 159.9 339 160.45 339
L 163.65 339
Q 164.15 339 164.15 338.5
L 164.15 309.7
Q 164.15 308.9 164 308.75 163.9 308.6 163.2 308.6
L 161.1 308.6
Q 160.95 308.6 160.75 308.7
M 23.9 321.55
Q 23.35 320.95 22.55 320.55 21.75 320.2 20.8 320.2 19.85 320.2 19.05 320.55 18.3 320.95 17.7 321.55 17.1 322.1 16.75 322.9 16.35 323.75 16.35 324.65 16.35 325.55 16.75 326.35 17.1 327.15 17.7 327.75 18.3 328.35 19.05 328.7 19.85 329.05 20.8 329.05 21.75 329.05 22.55 328.7 23.35 328.35 23.9 327.75 24.5 327.15 24.85 326.35 25.25 325.55 25.25 324.65 25.25 323.75 24.85 322.9 24.5 322.1 23.9 321.55
M 80.6 337.05
Q 80.6 337.4 80.8 337.55 81 337.75 81.3 337.75
L 94.05 337.75 83.6 363.3
Q 83.45 363.75 83.6 363.85 83.75 364 84.35 364
L 87.6 364
Q 88 364 88.15 363.9 88.3 363.75 88.5 363.45
L 99.05 337.4
Q 99.3 337.1 99.3 336.75
L 99.3 334.35
Q 99.3 333.9 99.15 333.75 99 333.6 98.3 333.6
L 81.3 333.6
Q 80.6 333.6 80.6 334.25
L 80.6 337.05
M 62.8 309.2
Q 62.8 308.85 62.75 308.75 62.7 308.6 62.4 308.6
L 58.75 308.6
Q 58.35 308.6 58.25 308.7 58.15 308.8 57.95 309.15
L 45.55 327.75
Q 45.4 327.9 45.25 328.2 45.05 328.5 45.05 328.75
L 45.05 331.75
Q 45.05 332.05 45.2 332.1 45.35 332.2 45.7 332.2
L 58.5 332.2 58.5 338.3
Q 58.5 338.7 58.65 338.85 58.8 339 59.25 339
L 62.15 339
Q 62.55 339 62.65 338.85 62.8 338.75 62.8 338.3
L 62.8 332.2 66.5 332.2
Q 66.85 332.2 67 332.1 67.15 332 67.15 331.6
L 67.15 328.7
Q 67.15 328.3 67 328.2 66.85 328.1 66.5 328.1
L 62.8 328.1 62.8 309.2
M 58.5 328.1
L 49.9 328.1 58.5 315.05 58.5 328.1
M 19.05 229.55
Q 18.3 229.95 17.7 230.55 17.1 231.1 16.75 231.9 16.35 232.75 16.35 233.65 16.35 234.55 16.75 235.35 17.1 236.15 17.7 236.75 18.3 237.35 19.05 237.7 19.85 238.05 20.8 238.05 21.75 238.05 22.55 237.7 23.35 237.35 23.9 236.75 24.5 236.15 24.85 235.35 25.25 234.55 25.25 233.65 25.25 232.75 24.85 231.9 24.5 231.1 23.9 230.55 23.35 229.95 22.55 229.55 21.75 229.2 20.8 229.2 19.85 229.2 19.05 229.55
M 63.95 221.45
Q 63.1 219.95 61.75 219.05 60.45 218.15 58.7 217.7 56.95 217.25 55.15 217.25 53.45 217.25 51.8 217.6 50.1 218 48.35 218.6 47.95 218.8 47.8 219 47.65 219.15 47.75 219.4
L 48.1 222.35
Q 48.2 222.7 48.4 222.8 48.6 222.9 49.1 222.7 49.7 222.45 50.5 222.2 51.3 221.95 52.1 221.8 52.9 221.6 53.65 221.5 54.35 221.4 54.9 221.4 55.75 221.4 56.7 221.6 57.65 221.8 58.5 222.3 59.3 222.75 59.85 223.55 60.35 224.3 60.35 225.3 60.35 226.65 59.55 227.55 58.75 228.5 57.55 229.1 56.4 229.7 55.15 229.95 53.9 230.2 53.05 230.2
L 51.15 230.2
Q 50.8 230.2 50.7 230.3 50.6 230.35 50.6 230.75
L 50.6 233.7
Q 50.6 234 50.7 234.1 50.8 234.2 51.15 234.2
L 53.1 234.2
Q 55.05 234.2 56.4 234.6 57.8 234.95 58.7 235.65 59.55 236.3 60 237.15 60.4 238 60.4 238.95 60.4 241.6 58.45 242.95 57.8 243.4 57.05 243.65 56.25 243.95 55.4 244.05 54.55 244.15 53.65 244.1 52.75 244.05 51.95 244 50.85 243.9 49.8 243.6 48.75 243.3 47.7 243 47.15 242.75 46.95 242.9 46.75 243 46.7 243.35
L 46.35 246.4
Q 46.3 246.75 46.5 246.9 46.65 247.1 47.05 247.2 48.5 247.75 50.25 248.05 52 248.35 53.75 248.35 56.05 248.35 58.2 247.75 60.35 247.2 61.85 245.95 63.35 244.7 64.2 242.95 65 241.15 65 239.05 65 236.85 63.65 235.05 62.3 233.3 59.65 232.15 60.75 231.65 61.7 230.9 62.65 230.15 63.35 229.15 64.05 228.2 64.45 227.15 64.8 226.05 64.8 224.95 64.8 222.95 63.95 221.45
M 89.15 283.25
Q 87.3 283.25 85.3 283.9 83.35 284.55 81.85 285.35 81.45 285.55 81.3 285.8 81.2 285.95 81.3 286.15
L 81.85 289.2
Q 81.95 289.55 82.25 289.6 82.55 289.6 82.9 289.4 84.7 288.35 86.2 287.9 87.75 287.45 89.4 287.45 91.15 287.45 92.3 288.7 93.5 289.95 93.5 291.85 93.5 293.55 91.9 296.15 90.3 298.8 86.95 302.75
L 80.85 310
Q 80.65 310.3 80.45 310.6 80.3 310.95 80.3 311.25
L 80.3 313.55
Q 80.3 314.05 81.05 314.05
L 98.1 314.05
Q 98.65 314.05 98.65 313.35
L 98.65 310.55
Q 98.65 309.95 98.1 309.95
L 86.35 309.95
Q 87.35 308.8 88.35 307.65 89.35 306.45 90.2 305.35 91.3 304.05 92.7 302.45 94.05 300.8 95.25 299.05 96.45 297.25 97.25 295.4 98.05 293.55 98.05 291.75 98.05 289.65 97.35 288.05 96.65 286.45 95.5 285.4 94.35 284.35 92.7 283.8 91.1 283.25 89.15 283.25
M 87.6 243.55
Q 85.05 244.9 83.45 247.15 81.9 249.35 81.2 252.4 80.5 255.4 80.5 258.8 80.5 266.25 83.05 269.8 85.6 273.35 90.3 273.35 92.6 273.35 94.45 272.55 96.3 271.75 97.6 270.3 98.9 268.95 99.55 267 100.25 265.15 100.25 262.95 100.25 260.65 99.55 258.85 98.85 257 97.55 255.7 96.3 254.4 94.5 253.7 92.75 253 90.55 253 89.8 253 89 253.25 88.2 253.45 87.45 253.8 86.7 254.15 86.1 254.6 85.5 255.05 85.15 255.55 85.4 253.6 86 251.9 86.55 250.25 87.55 249 88.55 247.75 90 247.05 91.5 246.4 93.55 246.4 94.95 246.4 96.15 246.5 97.3 246.6 98.35 247 98.9 247.25 99 246.7
L 99.1 243.5
Q 99.15 243.1 98.8 243 97.9 242.65 96.45 242.45 95.05 242.25 93.9 242.25 90.15 242.25 87.6 243.55
M 86.65 258.75
Q 88.1 257.2 90.7 257.2 93.15 257.2 94.5 258.8 95.85 260.35 95.85 263.15 95.85 266 94.35 267.7 92.8 269.35 90.4 269.35 89.3 269.35 88.3 268.85 87.35 268.35 86.65 267.45 85.95 266.55 85.55 265.3 85.15 264.15 85.15 262.75 85.15 260.3 86.65 258.75
M 131.35 222.35
Q 131.35 222.2 131.25 222 131.1 221.9 130.9 221.9
L 127.6 221.9
Q 127.45 221.9 127.25 222 127.15 222.2 127.15 222.35
L 127.15 230.75 118.65 230.75
Q 118.45 230.75 118.35 230.9 118.2 231.05 118.2 231.25
L 118.2 234.35
Q 118.2 234.55 118.35 234.7 118.45 234.85 118.65 234.85
L 127.15 234.85 127.15 243.3
Q 127.15 243.8 127.6 243.8
L 130.9 243.8
Q 131.35 243.8 131.35 243.3
L 131.35 234.85 139.8 234.85
Q 140.3 234.85 140.3 234.35
L 140.3 231.25
Q 140.3 230.75 139.8 230.75
L 131.35 230.75 131.35 222.35
M 161.1 217.6
Q 160.95 217.6 160.75 217.7 160.55 217.75 160.5 217.85
L 154.35 223.5
Q 154.15 223.7 154.15 223.9 154.1 224.15 154.25 224.3
L 156.05 226.45
Q 156.2 226.6 156.45 226.55 156.7 226.55 156.95 226.4
L 159.9 223.8 159.9 247.5
Q 159.9 248 160.45 248
L 163.65 248
Q 164.15 248 164.15 247.5
L 164.15 218.7
Q 164.15 217.9 164 217.75 163.9 217.6 163.2 217.6
L 161.1 217.6
M 154.9 155.4
Q 155.15 155.1 155.15 154.75
L 155.15 152.35
Q 155.15 151.9 155 151.75 154.85 151.6 154.15 151.6
L 137.15 151.6
Q 136.45 151.6 136.45 152.25
L 136.45 155.05
Q 136.45 155.4 136.65 155.55 136.85 155.75 137.15 155.75
L 149.9 155.75 139.45 181.3
Q 139.3 181.75 139.45 181.85 139.6 182 140.2 182
L 143.45 182
Q 143.85 182 144 181.9 144.15 181.75 144.35 181.45
L 154.9 155.4
M 85.8 192.6
Q 84.1 193 82.35 193.6 81.95 193.8 81.8 194 81.65 194.15 81.75 194.4
L 82.1 197.35
Q 82.2 197.7 82.4 197.8 82.6 197.9 83.1 197.7 83.7 197.45 84.5 197.2 85.3 196.95 86.1 196.8 86.9 196.6 87.65 196.5 88.35 196.4 88.9 196.4 89.75 196.4 90.7 196.6 91.65 196.8 92.5 197.3 93.3 197.75 93.85 198.55 94.35 199.3 94.35 200.3 94.35 201.65 93.55 202.55 92.75 203.5 91.55 204.1 90.4 204.7 89.15 204.95 87.9 205.2 87.05 205.2
L 85.15 205.2
Q 84.8 205.2 84.7 205.3 84.6 205.35 84.6 205.75
L 84.6 208.7
Q 84.6 209 84.7 209.1 84.8 209.2 85.15 209.2
L 87.1 209.2
Q 89.05 209.2 90.4 209.6 91.8 209.95 92.7 210.65 93.55 211.3 94 212.15 94.4 213 94.4 213.95 94.4 216.6 92.45 217.95 91.8 218.4 91.05 218.65 90.25 218.95 89.4 219.05 88.55 219.15 87.65 219.1 86.75 219.05 85.95 219 84.85 218.9 83.8 218.6 82.75 218.3 81.7 218 81.15 217.75 80.95 217.9 80.75 218 80.7 218.35
L 80.35 221.4
Q 80.3 221.75 80.5 221.9 80.65 222.1 81.05 222.2 82.5 222.75 84.25 223.05 86 223.35 87.75 223.35 90.05 223.35 92.2 222.75 94.35 222.2 95.85 220.95 97.35 219.7 98.2 217.95 99 216.15 99 214.05 99 211.85 97.65 210.05 96.3 208.3 93.65 207.15 94.75 206.65 95.7 205.9 96.65 205.15 97.35 204.15 98.05 203.2 98.45 202.15 98.8 201.05 98.8 199.95 98.8 197.95 97.95 196.45 97.1 194.95 95.75 194.05 94.45 193.15 92.7 192.7 90.95 192.25 89.15 192.25 87.45 192.25 85.8 192.6
M 98.6 143.2
Q 98.75 143.35 98.95 143.35
L 108.6 143.35
Q 108.85 143.35 109 143.2 109.15 143.05 109.15 142.85
L 109.15 139.65
Q 109.15 139.45 109 139.3 108.85 139.15 108.6 139.15
L 98.95 139.15
Q 98.75 139.15 98.6 139.3 98.45 139.45 98.45 139.65
L 98.45 142.85
Q 98.45 143.05 98.6 143.2
M 154.3 111.15
Q 154.65 110.05 154.65 108.95 154.65 106.95 153.8 105.45 152.95 103.95 151.6 103.05 150.3 102.15 148.55 101.7 146.8 101.25 145 101.25 143.3 101.25 141.65 101.6 139.95 102 138.2 102.6 137.8 102.8 137.65 103 137.5 103.15 137.6 103.4
L 137.95 106.35
Q 138.05 106.7 138.25 106.8 138.45 106.9 138.95 106.7 139.55 106.45 140.35 106.2 141.15 105.95 141.95 105.8 142.75 105.6 143.5 105.5 144.2 105.4 144.75 105.4 145.6 105.4 146.55 105.6 147.5 105.8 148.35 106.3 149.15 106.75 149.7 107.55 150.2 108.3 150.2 109.3 150.2 110.65 149.4 111.55 148.6 112.5 147.4 113.1 146.25 113.7 145 113.95 143.75 114.2 142.9 114.2
L 141 114.2
Q 140.65 114.2 140.55 114.3 140.45 114.35 140.45 114.75
L 140.45 117.7
Q 140.45 118 140.55 118.1 140.65 118.2 141 118.2
L 142.95 118.2
Q 144.9 118.2 146.25 118.6 147.65 118.95 148.55 119.65 149.4 120.3 149.85 121.15 150.25 122 150.25 122.95 150.25 125.6 148.3 126.95 147.65 127.4 146.9 127.65 146.1 127.95 145.25 128.05 144.4 128.15 143.5 128.1 142.6 128.05 141.8 128 140.7 127.9 139.65 127.6 138.6 127.3 137.55 127 137 126.75 136.8 126.9 136.6 127 136.55 127.35
L 136.2 130.4
Q 136.15 130.75 136.35 130.9 136.5 131.1 136.9 131.2 138.35 131.75 140.1 132.05 141.85 132.35 143.6 132.35 145.9 132.35 148.05 131.75 150.2 131.2 151.7 129.95 153.2 128.7 154.05 126.95 154.85 125.15 154.85 123.05 154.85 120.85 153.5 119.05 152.15 117.3 149.5 116.15 150.6 115.65 151.55 114.9 152.5 114.15 153.2 113.15 153.9 112.2 154.3 111.15
M 69.9 155.4
Q 70.15 155.1 70.15 154.75
L 70.15 152.35
Q 70.15 151.9 70 151.75 69.85 151.6 69.15 151.6
L 52.15 151.6
Q 51.45 151.6 51.45 152.25
L 51.45 155.05
Q 51.45 155.4 51.65 155.55 51.85 155.75 52.15 155.75
L 64.9 155.75 54.45 181.3
Q 54.3 181.75 54.45 181.85 54.6 182 55.2 182
L 58.45 182
Q 58.85 182 59 181.9 59.15 181.75 59.35 181.45
L 69.9 155.4
M 19.05 138.55
Q 18.3 138.95 17.7 139.55 17.1 140.1 16.75 140.9 16.35 141.75 16.35 142.65 16.35 143.55 16.75 144.35 17.1 145.15 17.7 145.75 18.3 146.35 19.05 146.7 19.85 147.05 20.8 147.05 21.75 147.05 22.55 146.7 23.35 146.35 23.9 145.75 24.5 145.15 24.85 144.35 25.25 143.55 25.25 142.65 25.25 141.75 24.85 140.9 24.5 140.1 23.9 139.55 23.35 138.95 22.55 138.55 21.75 138.2 20.8 138.2 19.85 138.2 19.05 138.55
M 69.05 101.75
Q 68.9 101.55 68.65 101.55
L 54 101.55
Q 53.4 101.55 53.3 101.7 53.15 101.8 53.15 102.25
L 52.95 117
Q 52.95 118.35 54.5 117.7 55.75 117.25 57.15 117 58.55 116.7 59.85 116.7 63.15 116.7 64.55 118.25 66 119.75 66 122.35 66 125.05 64.2 126.55 62.5 128.1 59.8 128.1 59.1 128.1 58.25 128 57.45 127.95 56.6 127.8 55.75 127.6 54.95 127.4 54.15 127.15 53.6 126.85 52.75 126.45 52.75 127.15
L 52.75 130.4
Q 52.75 130.7 52.75 130.85 52.8 130.95 53.05 131.15 53.7 131.45 54.65 131.65 55.55 131.9 56.5 132.05 57.45 132.15 58.25 132.25 59.1 132.3 59.5 132.3 61.8 132.3 63.85 131.65 65.95 131 67.35 129.7 70.5 126.9 70.5 121.85 70.5 119.75 69.75 118.1 69 116.4 67.7 115.2 66.4 114.05 64.65 113.4 62.9 112.8 60.9 112.8 58.95 112.8 57.35 113.15
L 57.5 105.75 68.65 105.75
Q 68.9 105.75 69.05 105.55 69.15 105.4 69.15 105.15
L 69.15 102.1
Q 69.15 101.9 69.05 101.75
M 67.7 74.15
Q 66.4 73 64.65 72.35 62.9 71.75 60.9 71.75 58.95 71.75 57.35 72.1
L 57.5 64.7 68.65 64.7
Q 68.9 64.7 69.05 64.5 69.15 64.35 69.15 64.1
L 69.15 61.05
Q 69.15 60.85 69.05 60.7 68.9 60.5 68.65 60.5
L 54 60.5
Q 53.4 60.5 53.3 60.65 53.15 60.75 53.15 61.2
L 52.95 75.95
Q 52.95 77.3 54.5 76.65 55.75 76.2 57.15 75.95 58.55 75.65 59.85 75.65 63.15 75.65 64.55 77.2 66 78.7 66 81.3 66 84 64.2 85.5 62.5 87.05 59.8 87.05 59.1 87.05 58.25 86.95 57.45 86.9 56.6 86.75 55.75 86.55 54.95 86.35 54.15 86.1 53.6 85.8 52.75 85.4 52.75 86.1
L 52.75 89.35
Q 52.75 89.65 52.75 89.8 52.8 89.9 53.05 90.1 53.7 90.4 54.65 90.6 55.55 90.85 56.5 91 57.45 91.1 58.25 91.2 59.1 91.25 59.5 91.25 61.8 91.25 63.85 90.6 65.95 89.95 67.35 88.65 70.5 85.85 70.5 80.8 70.5 78.7 69.75 77.05 69 75.35 67.7 74.15
M 23.9 48.55
Q 23.35 47.95 22.55 47.55 21.75 47.2 20.8 47.2 19.85 47.2 19.05 47.55 18.3 47.95 17.7 48.55 17.1 49.1 16.75 49.9 16.35 50.75 16.35 51.65 16.35 52.55 16.75 53.35 17.1 54.15 17.7 54.75 18.3 55.35 19.05 55.7 19.85 56.05 20.8 56.05 21.75 56.05 22.55 55.7 23.35 55.35 23.9 54.75 24.5 54.15 24.85 53.35 25.25 52.55 25.25 51.65 25.25 50.75 24.85 49.9 24.5 49.1 23.9 48.55
M 64 11.65
Q 64 10.85 63.85 10.7 63.75 10.55 63.05 10.55
L 60.95 10.55
Q 60.8 10.55 60.6 10.65 60.4 10.7 60.35 10.8
L 54.2 16.45
Q 54 16.65 54 16.85 53.95 17.1 54.1 17.25
L 55.9 19.4
Q 56.05 19.55 56.3 19.5 56.55 19.5 56.8 19.35
L 59.75 16.75 59.75 40.45
Q 59.75 40.95 60.3 40.95
L 63.5 40.95
Q 64 40.95 64 40.45
L 64 11.65
M 154.05 60.7
Q 153.9 60.5 153.65 60.5
L 139 60.5
Q 138.4 60.5 138.3 60.65 138.15 60.75 138.15 61.2
L 137.95 75.95
Q 137.95 77.3 139.5 76.65 140.75 76.2 142.15 75.95 143.55 75.65 144.85 75.65 148.15 75.65 149.55 77.2 151 78.7 151 81.3 151 84 149.2 85.5 147.5 87.05 144.8 87.05 144.1 87.05 143.25 86.95 142.45 86.9 141.6 86.75 140.75 86.55 139.95 86.35 139.15 86.1 138.6 85.8 137.75 85.4 137.75 86.1
L 137.75 89.35
Q 137.75 89.65 137.75 89.8 137.8 89.9 138.05 90.1 138.7 90.4 139.65 90.6 140.55 90.85 141.5 91 142.45 91.1 143.25 91.2 144.1 91.25 144.5 91.25 146.8 91.25 148.85 90.6 150.95 89.95 152.35 88.65 155.5 85.85 155.5 80.8 155.5 78.7 154.75 77.05 154 75.35 152.7 74.15 151.4 73 149.65 72.35 147.9 71.75 145.9 71.75 143.95 71.75 142.35 72.1
L 142.5 64.7 153.65 64.7
Q 153.9 64.7 154.05 64.5 154.15 64.35 154.15 64.1
L 154.15 61.05
Q 154.15 60.85 154.05 60.7
M 92.7 48.85
Q 92.55 49 92.55 49.2
L 92.55 52.3
Q 92.55 52.5 92.7 52.65 92.8 52.8 93 52.8
L 101.5 52.8 101.5 61.25
Q 101.5 61.75 101.95 61.75
L 105.25 61.75
Q 105.7 61.75 105.7 61.25
L 105.7 52.8 114.15 52.8
Q 114.65 52.8 114.65 52.3
L 114.65 49.2
Q 114.65 48.7 114.15 48.7
L 105.7 48.7 105.7 40.3
Q 105.7 40.15 105.6 39.95 105.45 39.85 105.25 39.85
L 101.95 39.85
Q 101.8 39.85 101.6 39.95 101.5 40.15 101.5 40.3
L 101.5 48.7 93 48.7
Q 92.8 48.7 92.7 48.85
M 148.55 10.75
Q 146.95 10.2 145 10.2 143.15 10.2 141.15 10.85 139.2 11.5 137.7 12.3 137.3 12.5 137.15 12.75 137.05 12.9 137.15 13.1
L 137.7 16.15
Q 137.8 16.5 138.1 16.55 138.4 16.55 138.75 16.35 140.55 15.3 142.05 14.85 143.6 14.4 145.25 14.4 147 14.4 148.15 15.65 149.35 16.9 149.35 18.8 149.35 20.5 147.75 23.1 146.15 25.75 142.8 29.7
L 136.7 36.95
Q 136.5 37.25 136.3 37.55 136.15 37.9 136.15 38.2
L 136.15 40.5
Q 136.15 41 136.9 41
L 153.95 41
Q 154.5 41 154.5 40.3
L 154.5 37.5
Q 154.5 36.9 153.95 36.9
L 142.2 36.9
Q 143.2 35.75 144.2 34.6 145.2 33.4 146.05 32.3 147.15 31 148.55 29.4 149.9 27.75 151.1 26 152.3 24.2 153.1 22.35 153.9 20.5 153.9 18.7 153.9 16.6 153.2 15 152.5 13.4 151.35 12.35 150.2 11.3 148.55 10.75
M 276.2 155.4
Q 276.45 155.1 276.45 154.75
L 276.45 152.35
Q 276.45 151.9 276.3 151.75 276.15 151.6 275.45 151.6
L 258.45 151.6
Q 257.75 151.6 257.75 152.25
L 257.75 155.05
Q 257.75 155.4 257.95 155.55 258.15 155.75 258.45 155.75
L 271.2 155.75 260.75 181.3
Q 260.6 181.75 260.75 181.85 260.9 182 261.5 182
L 264.75 182
Q 265.15 182 265.3 181.9 265.45 181.75 265.65 181.45
L 276.2 155.4
M 272.25 118.35
Q 272.5 118.35 272.65 118.2 272.8 118.05 272.8 117.85
L 272.8 114.65
Q 272.8 114.45 272.65 114.3 272.5 114.15 272.25 114.15
L 262.6 114.15
Q 262.4 114.15 262.25 114.3 262.1 114.45 262.1 114.65
L 262.1 117.85
Q 262.1 118.05 262.25 118.2 262.4 118.35 262.6 118.35
L 272.25 118.35
M 201.8 193.2
Q 201.8 192.85 201.75 192.75 201.7 192.6 201.4 192.6
L 197.75 192.6
Q 197.35 192.6 197.25 192.7 197.15 192.8 196.95 193.15
L 184.55 211.75
Q 184.4 211.9 184.25 212.2 184.05 212.5 184.05 212.75
L 184.05 215.75
Q 184.05 216.05 184.2 216.1 184.35 216.2 184.7 216.2
L 197.5 216.2 197.5 222.3
Q 197.5 222.7 197.65 222.85 197.8 223 198.25 223
L 201.15 223
Q 201.55 223 201.65 222.85 201.8 222.75 201.8 222.3
L 201.8 216.2 205.5 216.2
Q 205.85 216.2 206 216.1 206.15 216 206.15 215.6
L 206.15 212.7
Q 206.15 212.3 206 212.2 205.85 212.1 205.5 212.1
L 201.8 212.1 201.8 193.2
M 188.9 212.1
L 197.5 199.05 197.5 212.1 188.9 212.1
M 204.35 148.05
Q 204.55 148.05 204.7 147.9 204.85 147.8 204.85 147.55
L 204.85 144.4
Q 204.85 144.2 204.7 144.05 204.55 143.95 204.35 143.95
L 183.25 143.95
Q 183.05 143.95 182.9 144.05 182.75 144.2 182.75 144.4
L 182.75 147.55
Q 182.75 147.8 182.9 147.9 183.05 148.05 183.25 148.05
L 204.35 148.05
M 204.85 136.1
Q 204.85 135.9 204.7 135.75 204.55 135.6 204.35 135.6
L 183.25 135.6
Q 183.05 135.6 182.9 135.75 182.75 135.9 182.75 136.1
L 182.75 139.25
Q 182.75 139.45 182.9 139.6 183.05 139.75 183.25 139.75
L 204.35 139.75
Q 204.55 139.75 204.7 139.6 204.85 139.45 204.85 139.25
L 204.85 136.1
M 183.25 52.9
Q 183.05 52.9 182.9 53 182.75 53.15 182.75 53.35
L 182.75 56.5
Q 182.75 56.75 182.9 56.85 183.05 57 183.25 57
L 204.35 57
Q 204.55 57 204.7 56.85 204.85 56.75 204.85 56.5
L 204.85 53.35
Q 204.85 53.15 204.7 53 204.55 52.9 204.35 52.9
L 183.25 52.9
M 204.35 48.7
Q 204.55 48.7 204.7 48.55 204.85 48.4 204.85 48.2
L 204.85 45.05
Q 204.85 44.85 204.7 44.7 204.55 44.55 204.35 44.55
L 183.25 44.55
Q 183.05 44.55 182.9 44.7 182.75 44.85 182.75 45.05
L 182.75 48.2
Q 182.75 48.4 182.9 48.55 183.05 48.7 183.25 48.7
L 204.35 48.7
M 275.35 60.7
Q 275.2 60.5 274.95 60.5
L 260.3 60.5
Q 259.7 60.5 259.6 60.65 259.45 60.75 259.45 61.2
L 259.25 75.95
Q 259.25 77.3 260.8 76.65 262.05 76.2 263.45 75.95 264.85 75.65 266.15 75.65 269.45 75.65 270.85 77.2 272.3 78.7 272.3 81.3 272.3 84 270.5 85.5 268.8 87.05 266.1 87.05 265.4 87.05 264.55 86.95 263.75 86.9 262.9 86.75 262.05 86.55 261.25 86.35 260.45 86.1 259.9 85.8 259.05 85.4 259.05 86.1
L 259.05 89.35
Q 259.05 89.65 259.05 89.8 259.1 89.9 259.35 90.1 260 90.4 260.95 90.6 261.85 90.85 262.8 91 263.75 91.1 264.55 91.2 265.4 91.25 265.8 91.25 268.1 91.25 270.15 90.6 272.25 89.95 273.65 88.65 276.8 85.85 276.8 80.8 276.8 78.7 276.05 77.05 275.3 75.35 274 74.15 272.7 73 270.95 72.35 269.2 71.75 267.2 71.75 265.25 71.75 263.65 72.1
L 263.8 64.7 274.95 64.7
Q 275.2 64.7 275.35 64.5 275.45 64.35 275.45 64.1
L 275.45 61.05
Q 275.45 60.85 275.35 60.7
M 609.65 329.9
Q 609.8 330.05 610 330.05
L 631.1 330.05
Q 631.3 330.05 631.45 329.9 631.6 329.8 631.6 329.55
L 631.6 326.4
Q 631.6 326.2 631.45 326.05 631.3 325.95 631.1 325.95
L 610 325.95
Q 609.8 325.95 609.65 326.05 609.5 326.2 609.5 326.4
L 609.5 329.55
Q 609.5 329.8 609.65 329.9
M 631.45 321.6
Q 631.6 321.45 631.6 321.25
L 631.6 318.1
Q 631.6 317.9 631.45 317.75 631.3 317.6 631.1 317.6
L 610 317.6
Q 609.8 317.6 609.65 317.75 609.5 317.9 609.5 318.1
L 609.5 321.25
Q 609.5 321.45 609.65 321.6 609.8 321.75 610 321.75
L 631.1 321.75
Q 631.3 321.75 631.45 321.6
M 551.65 321.3
Q 551.5 321.15 551.25 321.15
L 541.6 321.15
Q 541.4 321.15 541.25 321.3 541.1 321.45 541.1 321.65
L 541.1 324.85
Q 541.1 325.05 541.25 325.2 541.4 325.35 541.6 325.35
L 551.25 325.35
Q 551.5 325.35 551.65 325.2 551.8 325.05 551.8 324.85
L 551.8 321.65
Q 551.8 321.45 551.65 321.3
M 529.4 247.05
Q 530.9 246.4 532.95 246.4 534.35 246.4 535.55 246.5 536.7 246.6 537.75 247 538.3 247.25 538.4 246.7
L 538.5 243.5
Q 538.55 243.1 538.2 243 537.3 242.65 535.85 242.45 534.45 242.25 533.3 242.25 529.55 242.25 527 243.55 524.45 244.9 522.85 247.15 521.3 249.35 520.6 252.4 519.9 255.4 519.9 258.8 519.9 266.25 522.45 269.8 525 273.35 529.7 273.35 532 273.35 533.85 272.55 535.7 271.75 537 270.3 538.3 268.95 538.95 267 539.65 265.15 539.65 262.95 539.65 260.65 538.95 258.85 538.25 257 536.95 255.7 535.7 254.4 533.9 253.7 532.15 253 529.95 253 529.2 253 528.4 253.25 527.6 253.45 526.85 253.8 526.1 254.15 525.5 254.6 524.9 255.05 524.55 255.55 524.8 253.6 525.4 251.9 525.95 250.25 526.95 249 527.95 247.75 529.4 247.05
M 526.05 267.45
Q 525.35 266.55 524.95 265.3 524.55 264.15 524.55 262.75 524.55 260.3 526.05 258.75 527.5 257.2 530.1 257.2 532.55 257.2 533.9 258.8 535.25 260.35 535.25 263.15 535.25 266 533.75 267.7 532.2 269.35 529.8 269.35 528.7 269.35 527.7 268.85 526.75 268.35 526.05 267.45
M 555.2 214.55
Q 555 214.2 554.65 214.2
L 551.7 214.2
Q 551.2 214.2 551.45 214.65 554.65 219.7 556.2 224.4 557.7 229.1 557.7 233.8 557.7 238.5 556.2 243.15 554.7 247.85 551.45 252.9 551.35 253.05 551.4 253.2 551.4 253.35 551.7 253.35
L 554.65 253.35
Q 555 253.35 555.2 253 559 248.35 560.7 243.6 562.4 238.85 562.4 233.8 562.4 228.7 560.7 224 559 219.25 555.2 214.55
M 573.6 234.95
Q 573.4 234.95 573.25 235.05 573.1 235.2 573.1 235.4
L 573.1 238.55
Q 573.1 238.8 573.25 238.9 573.4 239.05 573.6 239.05
L 594.7 239.05
Q 594.9 239.05 595.05 238.9 595.2 238.8 595.2 238.55
L 595.2 235.4
Q 595.2 235.2 595.05 235.05 594.9 234.95 594.7 234.95
L 573.6 234.95
M 573.25 230.6
Q 573.4 230.75 573.6 230.75
L 594.7 230.75
Q 594.9 230.75 595.05 230.6 595.2 230.45 595.2 230.25
L 595.2 227.1
Q 595.2 226.9 595.05 226.75 594.9 226.6 594.7 226.6
L 573.6 226.6
Q 573.4 226.6 573.25 226.75 573.1 226.9 573.1 227.1
L 573.1 230.25
Q 573.1 230.45 573.25 230.6
M 625.55 218.2
Q 625.55 217.85 625.5 217.75 625.45 217.6 625.15 217.6
L 621.5 217.6
Q 621.1 217.6 621 217.7 620.9 217.8 620.7 218.15
L 608.3 236.75
Q 608.15 236.9 608 237.2 607.8 237.5 607.8 237.75
L 607.8 240.75
Q 607.8 241.05 607.95 241.1 608.1 241.2 608.45 241.2
L 621.25 241.2 621.25 247.3
Q 621.25 247.7 621.4 247.85 621.55 248 622 248
L 624.9 248
Q 625.3 248 625.4 247.85 625.55 247.75 625.55 247.3
L 625.55 241.2 629.25 241.2
Q 629.6 241.2 629.75 241.1 629.9 241 629.9 240.6
L 629.9 237.7
Q 629.9 237.3 629.75 237.2 629.6 237.1 629.25 237.1
L 625.55 237.1 625.55 218.2
M 621.25 237.1
L 612.65 237.1 621.25 224.05 621.25 237.1
M 413.85 337.55
Q 414.05 337.75 414.35 337.75
L 427.1 337.75 416.65 363.3
Q 416.5 363.75 416.65 363.85 416.8 364 417.4 364
L 420.65 364
Q 421.05 364 421.2 363.9 421.35 363.75 421.55 363.45
L 432.1 337.4
Q 432.35 337.1 432.35 336.75
L 432.35 334.35
Q 432.35 333.9 432.2 333.75 432.05 333.6 431.35 333.6
L 414.35 333.6
Q 413.65 333.6 413.65 334.25
L 413.65 337.05
Q 413.65 337.4 413.85 337.55
M 460.1 329.9
Q 460.25 330.05 460.45 330.05
L 481.55 330.05
Q 481.75 330.05 481.9 329.9 482.05 329.8 482.05 329.55
L 482.05 326.4
Q 482.05 326.2 481.9 326.05 481.75 325.95 481.55 325.95
L 460.45 325.95
Q 460.25 325.95 460.1 326.05 459.95 326.2 459.95 326.4
L 459.95 329.55
Q 459.95 329.8 460.1 329.9
M 481.9 321.6
Q 482.05 321.45 482.05 321.25
L 482.05 318.1
Q 482.05 317.9 481.9 317.75 481.75 317.6 481.55 317.6
L 460.45 317.6
Q 460.25 317.6 460.1 317.75 459.95 317.9 459.95 318.1
L 459.95 321.25
Q 459.95 321.45 460.1 321.6 460.25 321.75 460.45 321.75
L 481.55 321.75
Q 481.75 321.75 481.9 321.6
M 327.35 336.75
L 327.35 334.35
Q 327.35 333.9 327.2 333.75 327.05 333.6 326.35 333.6
L 309.35 333.6
Q 308.65 333.6 308.65 334.25
L 308.65 337.05
Q 308.65 337.4 308.85 337.55 309.05 337.75 309.35 337.75
L 322.1 337.75 311.65 363.3
Q 311.5 363.75 311.65 363.85 311.8 364 312.4 364
L 315.65 364
Q 316.05 364 316.2 363.9 316.35 363.75 316.55 363.45
L 327.1 337.4
Q 327.35 337.1 327.35 336.75
M 325.1 309.45
Q 326.7 307.2 327.4 304.2 328.05 301.15 328.05 297.8 328.05 290.35 325.5 286.8 322.95 283.25 318.25 283.25 315.95 283.25 314.15 284.05 312.3 284.85 311 286.25 309.7 287.65 309 289.55 308.35 291.45 308.35 293.65 308.35 295.95 309.05 297.75 309.7 299.55 311 300.85 312.3 302.15 314.1 302.85 315.85 303.55 318 303.55 318.75 303.55 319.55 303.35 320.35 303.15 321.1 302.8 321.85 302.45 322.5 302 323.1 301.55 323.45 301.05 323.2 302.95 322.6 304.65 322 306.3 321 307.55 320 308.8 318.55 309.5 317.1 310.2 315 310.2 313.6 310.2 312.45 310.1 311.25 310 310.2 309.55 309.65 309.35 309.55 309.9
L 309.45 313.1
Q 309.4 313.5 309.75 313.6 310.7 313.95 312.1 314.15 313.55 314.35 314.7 314.35 318.4 314.35 320.95 313 323.55 311.7 325.1 309.45
M 318.2 287.2
Q 319.3 287.2 320.25 287.75 321.2 288.25 321.9 289.15 322.6 290.05 323 291.25 323.4 292.45 323.4 293.8 323.4 296.25 321.95 297.85 320.45 299.4 317.85 299.4 315.4 299.4 314.1 297.8 312.75 296.2 312.75 293.45 312.75 290.55 314.25 288.9 315.8 287.2 318.2 287.2
M 352.3 321.3
Q 352.15 321.45 352.15 321.65
L 352.15 324.85
Q 352.15 325.05 352.3 325.2 352.45 325.35 352.65 325.35
L 362.3 325.35
Q 362.55 325.35 362.7 325.2 362.85 325.05 362.85 324.85
L 362.85 321.65
Q 362.85 321.45 362.7 321.3 362.55 321.15 362.3 321.15
L 352.65 321.15
Q 352.45 321.15 352.3 321.3
M 392.2 309.7
Q 392.2 308.9 392.05 308.75 391.95 308.6 391.25 308.6
L 389.15 308.6
Q 389 308.6 388.8 308.7 388.6 308.75 388.55 308.85
L 382.4 314.5
Q 382.2 314.7 382.2 314.9 382.15 315.15 382.3 315.3
L 384.1 317.45
Q 384.25 317.6 384.5 317.55 384.75 317.55 385 317.4
L 387.95 314.8 387.95 338.5
Q 387.95 339 388.5 339
L 391.7 339
Q 392.2 339 392.2 338.5
L 392.2 309.7
M 380.95 234.95
Q 380.75 234.95 380.6 235.05 380.45 235.2 380.45 235.4
L 380.45 238.55
Q 380.45 238.8 380.6 238.9 380.75 239.05 380.95 239.05
L 402.05 239.05
Q 402.25 239.05 402.4 238.9 402.55 238.8 402.55 238.55
L 402.55 235.4
Q 402.55 235.2 402.4 235.05 402.25 234.95 402.05 234.95
L 380.95 234.95
M 380.6 230.6
Q 380.75 230.75 380.95 230.75
L 402.05 230.75
Q 402.25 230.75 402.4 230.6 402.55 230.45 402.55 230.25
L 402.55 227.1
Q 402.55 226.9 402.4 226.75 402.25 226.6 402.05 226.6
L 380.95 226.6
Q 380.75 226.6 380.6 226.75 380.45 226.9 380.45 227.1
L 380.45 230.25
Q 380.45 230.45 380.6 230.6
M 416.2 283.55
Q 415.6 283.55 415.5 283.7 415.35 283.8 415.35 284.25
L 415.15 299
Q 415.15 300.35 416.7 299.7 417.95 299.25 419.35 299 420.75 298.7 422.05 298.7 425.35 298.7 426.75 300.25 428.2 301.75 428.2 304.35 428.2 307.05 426.4 308.55 424.7 310.1 422 310.1 421.3 310.1 420.45 310 419.65 309.95 418.8 309.8 417.95 309.6 417.15 309.4 416.35 309.15 415.8 308.85 414.95 308.45 414.95 309.15
L 414.95 312.4
Q 414.95 312.7 414.95 312.85 415 312.95 415.25 313.15 415.9 313.45 416.85 313.65 417.75 313.9 418.7 314.05 419.65 314.15 420.45 314.25 421.3 314.3 421.7 314.3 424 314.3 426.05 313.65 428.15 313 429.55 311.7 432.7 308.9 432.7 303.85 432.7 301.75 431.95 300.1 431.2 298.4 429.9 297.2 428.6 296.05 426.85 295.4 425.1 294.8 423.1 294.8 421.15 294.8 419.55 295.15
L 419.7 287.75 430.85 287.75
Q 431.1 287.75 431.25 287.55 431.35 287.4 431.35 287.15
L 431.35 284.1
Q 431.35 283.9 431.25 283.75 431.1 283.55 430.85 283.55
L 416.2 283.55
M 427.7 214.65
Q 428 214.2 427.45 214.2
L 424.5 214.2
Q 424.2 214.2 423.95 214.55 420.2 219.25 418.5 224 416.8 228.7 416.8 233.8 416.8 238.85 418.5 243.6 420.2 248.35 423.95 253 424.2 253.35 424.5 253.35
L 427.45 253.35
Q 427.75 253.35 427.8 253.2 427.85 253.05 427.7 252.9 424.45 247.85 422.95 243.15 421.45 238.5 421.45 233.8 421.45 229.1 423 224.4 424.5 219.7 427.7 214.65
M 480.7 230.75
Q 480.5 230.75 480.4 230.9 480.25 231.05 480.25 231.25
L 480.25 234.35
Q 480.25 234.55 480.4 234.7 480.5 234.85 480.7 234.85
L 489.2 234.85 489.2 243.3
Q 489.2 243.8 489.65 243.8
L 492.95 243.8
Q 493.4 243.8 493.4 243.3
L 493.4 234.85 501.85 234.85
Q 502.35 234.85 502.35 234.35
L 502.35 231.25
Q 502.35 230.75 501.85 230.75
L 493.4 230.75 493.4 222.35
Q 493.4 222.2 493.3 222 493.15 221.9 492.95 221.9
L 489.65 221.9
Q 489.5 221.9 489.3 222 489.2 222.2 489.2 222.35
L 489.2 230.75 480.7 230.75
M 449.35 247.05
Q 450.85 246.4 452.9 246.4 454.3 246.4 455.5 246.5 456.65 246.6 457.7 247 458.25 247.25 458.35 246.7
L 458.45 243.5
Q 458.5 243.1 458.15 243 457.25 242.65 455.8 242.45 454.4 242.25 453.25 242.25 449.5 242.25 446.95 243.55 444.4 244.9 442.8 247.15 441.25 249.35 440.55 252.4 439.85 255.4 439.85 258.8 439.85 266.25 442.4 269.8 444.95 273.35 449.65 273.35 451.95 273.35 453.8 272.55 455.65 271.75 456.95 270.3 458.25 268.95 458.9 267 459.6 265.15 459.6 262.95 459.6 260.65 458.9 258.85 458.2 257 456.9 255.7 455.65 254.4 453.85 253.7 452.1 253 449.9 253 449.15 253 448.35 253.25 447.55 253.45 446.8 253.8 446.05 254.15 445.45 254.6 444.85 255.05 444.5 255.55 444.75 253.6 445.35 251.9 445.9 250.25 446.9 249 447.9 247.75 449.35 247.05
M 444.9 265.3
Q 444.5 264.15 444.5 262.75 444.5 260.3 446 258.75 447.45 257.2 450.05 257.2 452.5 257.2 453.85 258.8 455.2 260.35 455.2 263.15 455.2 266 453.7 267.7 452.15 269.35 449.75 269.35 448.65 269.35 447.65 268.85 446.7 268.35 446 267.45 445.3 266.55 444.9 265.3
M 445.15 192.6
Q 443.45 193 441.7 193.6 441.3 193.8 441.15 194 441 194.15 441.1 194.4
L 441.45 197.35
Q 441.55 197.7 441.75 197.8 441.95 197.9 442.45 197.7 443.05 197.45 443.85 197.2 444.65 196.95 445.45 196.8 446.25 196.6 447 196.5 447.7 196.4 448.25 196.4 449.1 196.4 450.05 196.6 451 196.8 451.85 197.3 452.65 197.75 453.2 198.55 453.7 199.3 453.7 200.3 453.7 201.65 452.9 202.55 452.1 203.5 450.9 204.1 449.75 204.7 448.5 204.95 447.25 205.2 446.4 205.2
L 444.5 205.2
Q 444.15 205.2 444.05 205.3 443.95 205.35 443.95 205.75
L 443.95 208.7
Q 443.95 209 444.05 209.1 444.15 209.2 444.5 209.2
L 446.45 209.2
Q 448.4 209.2 449.75 209.6 451.15 209.95 452.05 210.65 452.9 211.3 453.35 212.15 453.75 213 453.75 213.95 453.75 216.6 451.8 217.95 451.15 218.4 450.4 218.65 449.6 218.95 448.75 219.05 447.9 219.15 447 219.1 446.1 219.05 445.3 219 444.2 218.9 443.15 218.6 442.1 218.3 441.05 218 440.5 217.75 440.3 217.9 440.1 218 440.05 218.35
L 439.7 221.4
Q 439.65 221.75 439.85 221.9 440 222.1 440.4 222.2 441.85 222.75 443.6 223.05 445.35 223.35 447.1 223.35 449.4 223.35 451.55 222.75 453.7 222.2 455.2 220.95 456.7 219.7 457.55 217.95 458.35 216.15 458.35 214.05 458.35 211.85 457 210.05 455.65 208.3 453 207.15 454.1 206.65 455.05 205.9 456 205.15 456.7 204.15 457.4 203.2 457.8 202.15 458.15 201.05 458.15 199.95 458.15 197.95 457.3 196.45 456.45 194.95 455.1 194.05 453.8 193.15 452.05 192.7 450.3 192.25 448.5 192.25 446.8 192.25 445.15 192.6
M 396.45 155.4
Q 396.7 155.1 396.7 154.75
L 396.7 152.35
Q 396.7 151.9 396.55 151.75 396.4 151.6 395.7 151.6
L 378.7 151.6
Q 378 151.6 378 152.25
L 378 155.05
Q 378 155.4 378.2 155.55 378.4 155.75 378.7 155.75
L 391.45 155.75 381 181.3
Q 380.85 181.75 381 181.85 381.15 182 381.75 182
L 385 182
Q 385.4 182 385.55 181.9 385.7 181.75 385.9 181.45
L 396.45 155.4
M 328.9 144.05
Q 328.75 144.2 328.75 144.4
L 328.75 147.55
Q 328.75 147.8 328.9 147.9 329.05 148.05 329.25 148.05
L 350.35 148.05
Q 350.55 148.05 350.7 147.9 350.85 147.8 350.85 147.55
L 350.85 144.4
Q 350.85 144.2 350.7 144.05 350.55 143.95 350.35 143.95
L 329.25 143.95
Q 329.05 143.95 328.9 144.05
M 328.9 135.75
Q 328.75 135.9 328.75 136.1
L 328.75 139.25
Q 328.75 139.45 328.9 139.6 329.05 139.75 329.25 139.75
L 350.35 139.75
Q 350.55 139.75 350.7 139.6 350.85 139.45 350.85 139.25
L 350.85 136.1
Q 350.85 135.9 350.7 135.75 350.55 135.6 350.35 135.6
L 329.25 135.6
Q 329.05 135.6 328.9 135.75
M 394.75 106.05
Q 394.05 104.45 392.9 103.4 391.75 102.35 390.1 101.8 388.5 101.25 386.55 101.25 384.7 101.25 382.7 101.9 380.75 102.55 379.25 103.35 378.85 103.55 378.7 103.8 378.6 103.95 378.7 104.15
L 379.25 107.2
Q 379.35 107.55 379.65 107.6 379.95 107.6 380.3 107.4 382.1 106.35 383.6 105.9 385.15 105.45 386.8 105.45 388.55 105.45 389.7 106.7 390.9 107.95 390.9 109.85 390.9 111.55 389.3 114.15 387.7 116.8 384.35 120.75
L 378.25 128
Q 378.05 128.3 377.85 128.6 377.7 128.95 377.7 129.25
L 377.7 131.55
Q 377.7 132.05 378.45 132.05
L 395.5 132.05
Q 396.05 132.05 396.05 131.35
L 396.05 128.55
Q 396.05 127.95 395.5 127.95
L 383.75 127.95
Q 384.75 126.8 385.75 125.65 386.75 124.45 387.6 123.35 388.7 122.05 390.1 120.45 391.45 118.8 392.65 117.05 393.85 115.25 394.65 113.4 395.45 111.55 395.45 109.75 395.45 107.65 394.75 106.05
M 394.25 74.15
Q 392.95 73 391.2 72.35 389.45 71.75 387.45 71.75 385.5 71.75 383.9 72.1
L 384.05 64.7 395.2 64.7
Q 395.45 64.7 395.6 64.5 395.7 64.35 395.7 64.1
L 395.7 61.05
Q 395.7 60.85 395.6 60.7 395.45 60.5 395.2 60.5
L 380.55 60.5
Q 379.95 60.5 379.85 60.65 379.7 60.75 379.7 61.2
L 379.5 75.95
Q 379.5 77.3 381.05 76.65 382.3 76.2 383.7 75.95 385.1 75.65 386.4 75.65 389.7 75.65 391.1 77.2 392.55 78.7 392.55 81.3 392.55 84 390.75 85.5 389.05 87.05 386.35 87.05 385.65 87.05 384.8 86.95 384 86.9 383.15 86.75 382.3 86.55 381.5 86.35 380.7 86.1 380.15 85.8 379.3 85.4 379.3 86.1
L 379.3 89.35
Q 379.3 89.65 379.3 89.8 379.35 89.9 379.6 90.1 380.25 90.4 381.2 90.6 382.1 90.85 383.05 91 384 91.1 384.8 91.2 385.65 91.25 386.05 91.25 388.35 91.25 390.4 90.6 392.5 89.95 393.9 88.65 397.05 85.85 397.05 80.8 397.05 78.7 396.3 77.05 395.55 75.35 394.25 74.15
M 350.35 57
Q 350.55 57 350.7 56.85 350.85 56.75 350.85 56.5
L 350.85 53.35
Q 350.85 53.15 350.7 53 350.55 52.9 350.35 52.9
L 329.25 52.9
Q 329.05 52.9 328.9 53 328.75 53.15 328.75 53.35
L 328.75 56.5
Q 328.75 56.75 328.9 56.85 329.05 57 329.25 57
L 350.35 57
M 328.9 48.55
Q 329.05 48.7 329.25 48.7
L 350.35 48.7
Q 350.55 48.7 350.7 48.55 350.85 48.4 350.85 48.2
L 350.85 45.05
Q 350.85 44.85 350.7 44.7 350.55 44.55 350.35 44.55
L 329.25 44.55
Q 329.05 44.55 328.9 44.7 328.75 44.85 328.75 45.05
L 328.75 48.2
Q 328.75 48.4 328.9 48.55
M 393.15 12
Q 391.85 11.1 390.1 10.65 388.35 10.2 386.55 10.2 384.85 10.2 383.2 10.55 381.5 10.95 379.75 11.55 379.35 11.75 379.2 11.95 379.05 12.1 379.15 12.35
L 379.5 15.3
Q 379.6 15.65 379.8 15.75 380 15.85 380.5 15.65 381.1 15.4 381.9 15.15 382.7 14.9 383.5 14.75 384.3 14.55 385.05 14.45 385.75 14.35 386.3 14.35 387.15 14.35 388.1 14.55 389.05 14.75 389.9 15.25 390.7 15.7 391.25 16.5 391.75 17.25 391.75 18.25 391.75 19.6 390.95 20.5 390.15 21.45 388.95 22.05 387.8 22.65 386.55 22.9 385.3 23.15 384.45 23.15
L 382.55 23.15
Q 382.2 23.15 382.1 23.25 382 23.3 382 23.7
L 382 26.65
Q 382 26.95 382.1 27.05 382.2 27.15 382.55 27.15
L 384.5 27.15
Q 386.45 27.15 387.8 27.55 389.2 27.9 390.1 28.6 390.95 29.25 391.4 30.1 391.8 30.95 391.8 31.9 391.8 34.55 389.85 35.9 389.2 36.35 388.45 36.6 387.65 36.9 386.8 37 385.95 37.1 385.05 37.05 384.15 37 383.35 36.95 382.25 36.85 381.2 36.55 380.15 36.25 379.1 35.95 378.55 35.7 378.35 35.85 378.15 35.95 378.1 36.3
L 377.75 39.35
Q 377.7 39.7 377.9 39.85 378.05 40.05 378.45 40.15 379.9 40.7 381.65 41 383.4 41.3 385.15 41.3 387.45 41.3 389.6 40.7 391.75 40.15 393.25 38.9 394.75 37.65 395.6 35.9 396.4 34.1 396.4 32 396.4 29.8 395.05 28 393.7 26.25 391.05 25.1 392.15 24.6 393.1 23.85 394.05 23.1 394.75 22.1 395.45 21.15 395.85 20.1 396.2 19 396.2 17.9 396.2 15.9 395.35 14.4 394.5 12.9 393.15 12
M 536.2 193.2
Q 536.2 192.85 536.15 192.75 536.1 192.6 535.8 192.6
L 532.15 192.6
Q 531.75 192.6 531.65 192.7 531.55 192.8 531.35 193.15
L 518.95 211.75
Q 518.8 211.9 518.65 212.2 518.45 212.5 518.45 212.75
L 518.45 215.75
Q 518.45 216.05 518.6 216.1 518.75 216.2 519.1 216.2
L 531.9 216.2 531.9 222.3
Q 531.9 222.7 532.05 222.85 532.2 223 532.65 223
L 535.55 223
Q 535.95 223 536.05 222.85 536.2 222.75 536.2 222.3
L 536.2 216.2 539.9 216.2
Q 540.25 216.2 540.4 216.1 540.55 216 540.55 215.6
L 540.55 212.7
Q 540.55 212.3 540.4 212.2 540.25 212.1 539.9 212.1
L 536.2 212.1 536.2 193.2
M 531.9 199.05
L 531.9 212.1 523.3 212.1 531.9 199.05
M 890.75 333.75
Q 890.6 333.6 889.9 333.6
L 872.9 333.6
Q 872.2 333.6 872.2 334.25
L 872.2 337.05
Q 872.2 337.4 872.4 337.55 872.6 337.75 872.9 337.75
L 885.65 337.75 875.2 363.3
Q 875.05 363.75 875.2 363.85 875.35 364 875.95 364
L 879.2 364
Q 879.6 364 879.75 363.9 879.9 363.75 880.1 363.45
L 890.65 337.4
Q 890.9 337.1 890.9 336.75
L 890.9 334.35
Q 890.9 333.9 890.75 333.75
M 854.95 313.05
Q 854.25 311.45 853.1 310.4 851.95 309.35 850.3 308.8 848.7 308.25 846.75 308.25 844.9 308.25 842.9 308.9 840.95 309.55 839.45 310.35 839.05 310.55 838.9 310.8 838.8 310.95 838.9 311.15
L 839.45 314.2
Q 839.55 314.55 839.85 314.6 840.15 314.6 840.5 314.4 842.3 313.35 843.8 312.9 845.35 312.45 847 312.45 848.75 312.45 849.9 313.7 851.1 314.95 851.1 316.85 851.1 318.55 849.5 321.15 847.9 323.8 844.55 327.75
L 838.45 335
Q 838.25 335.3 838.05 335.6 837.9 335.95 837.9 336.25
L 837.9 338.55
Q 837.9 339.05 838.65 339.05
L 855.7 339.05
Q 856.25 339.05 856.25 338.35
L 856.25 335.55
Q 856.25 334.95 855.7 334.95
L 843.95 334.95
Q 844.95 333.8 845.95 332.65 846.95 331.45 847.8 330.35 848.9 329.05 850.3 327.45 851.65 325.8 852.85 324.05 854.05 322.25 854.85 320.4 855.65 318.55 855.65 316.75 855.65 314.65 854.95 313.05
M 883.85 283.7
Q 883.75 283.8 883.55 284.15
L 871.15 302.75
Q 871 302.9 870.85 303.2 870.65 303.5 870.65 303.75
L 870.65 306.75
Q 870.65 307.05 870.8 307.1 870.95 307.2 871.3 307.2
L 884.1 307.2 884.1 313.3
Q 884.1 313.7 884.25 313.85 884.4 314 884.85 314
L 887.75 314
Q 888.15 314 888.25 313.85 888.4 313.75 888.4 313.3
L 888.4 307.2 892.1 307.2
Q 892.45 307.2 892.6 307.1 892.75 307 892.75 306.6
L 892.75 303.7
Q 892.75 303.3 892.6 303.2 892.45 303.1 892.1 303.1
L 888.4 303.1 888.4 284.2
Q 888.4 283.85 888.35 283.75 888.3 283.6 888 283.6
L 884.35 283.6
Q 883.95 283.6 883.85 283.7
M 884.1 303.1
L 875.5 303.1 884.1 290.05 884.1 303.1
M 840.7 217.6
Q 840.55 217.6 840.35 217.7 840.15 217.75 840.1 217.85
L 833.95 223.5
Q 833.75 223.7 833.75 223.9 833.7 224.15 833.85 224.3
L 835.65 226.45
Q 835.8 226.6 836.05 226.55 836.3 226.55 836.55 226.4
L 839.5 223.8 839.5 247.5
Q 839.5 248 840.05 248
L 843.25 248
Q 843.75 248 843.75 247.5
L 843.75 218.7
Q 843.75 217.9 843.6 217.75 843.5 217.6 842.8 217.6
L 840.7 217.6
M 878.15 246.4
Q 879.55 246.4 880.75 246.5 881.9 246.6 882.95 247 883.5 247.25 883.6 246.7
L 883.7 243.5
Q 883.75 243.1 883.4 243 882.5 242.65 881.05 242.45 879.65 242.25 878.5 242.25 874.75 242.25 872.2 243.55 869.65 244.9 868.05 247.15 866.5 249.35 865.8 252.4 865.1 255.4 865.1 258.8 865.1 266.25 867.65 269.8 870.2 273.35 874.9 273.35 877.2 273.35 879.05 272.55 880.9 271.75 882.2 270.3 883.5 268.95 884.15 267 884.85 265.15 884.85 262.95 884.85 260.65 884.15 258.85 883.45 257 882.15 255.7 880.9 254.4 879.1 253.7 877.35 253 875.15 253 874.4 253 873.6 253.25 872.8 253.45 872.05 253.8 871.3 254.15 870.7 254.6 870.1 255.05 869.75 255.55 870 253.6 870.6 251.9 871.15 250.25 872.15 249 873.15 247.75 874.6 247.05 876.1 246.4 878.15 246.4
M 875.3 257.2
Q 877.75 257.2 879.1 258.8 880.45 260.35 880.45 263.15 880.45 266 878.95 267.7 877.4 269.35 875 269.35 873.9 269.35 872.9 268.85 871.95 268.35 871.25 267.45 870.55 266.55 870.15 265.3 869.75 264.15 869.75 262.75 869.75 260.3 871.25 258.75 872.7 257.2 875.3 257.2
M 908.2 234.95
Q 908 234.95 907.85 235.05 907.7 235.2 907.7 235.4
L 907.7 238.55
Q 907.7 238.8 907.85 238.9 908 239.05 908.2 239.05
L 929.3 239.05
Q 929.5 239.05 929.65 238.9 929.8 238.8 929.8 238.55
L 929.8 235.4
Q 929.8 235.2 929.65 235.05 929.5 234.95 929.3 234.95
L 908.2 234.95
M 907.85 230.6
Q 908 230.75 908.2 230.75
L 929.3 230.75
Q 929.5 230.75 929.65 230.6 929.8 230.45 929.8 230.25
L 929.8 227.1
Q 929.8 226.9 929.65 226.75 929.5 226.6 929.3 226.6
L 908.2 226.6
Q 908 226.6 907.85 226.75 907.7 226.9 907.7 227.1
L 907.7 230.25
Q 907.7 230.45 907.85 230.6
M 960.95 221.75
Q 961.2 221.75 961.35 221.55 961.45 221.4 961.45 221.15
L 961.45 218.1
Q 961.45 217.9 961.35 217.75 961.2 217.55 960.95 217.55
L 946.3 217.55
Q 945.7 217.55 945.6 217.7 945.45 217.8 945.45 218.25
L 945.25 233
Q 945.25 234.35 946.8 233.7 948.05 233.25 949.45 233 950.85 232.7 952.15 232.7 955.45 232.7 956.85 234.25 958.3 235.75 958.3 238.35 958.3 241.05 956.5 242.55 954.8 244.1 952.1 244.1 951.4 244.1 950.55 244 949.75 243.95 948.9 243.8 948.05 243.6 947.25 243.4 946.45 243.15 945.9 242.85 945.05 242.45 945.05 243.15
L 945.05 246.4
Q 945.05 246.7 945.05 246.85 945.1 246.95 945.35 247.15 946 247.45 946.95 247.65 947.85 247.9 948.8 248.05 949.75 248.15 950.55 248.25 951.4 248.3 951.8 248.3 954.1 248.3 956.15 247.65 958.25 247 959.65 245.7 962.8 242.9 962.8 237.85 962.8 235.75 962.05 234.1 961.3 232.4 960 231.2 958.7 230.05 956.95 229.4 955.2 228.8 953.2 228.8 951.25 228.8 949.65 229.15
L 949.8 221.75 960.95 221.75
M 749.05 334.25
L 749.05 337.05
Q 749.05 337.4 749.25 337.55 749.45 337.75 749.75 337.75
L 762.5 337.75 752.05 363.3
Q 751.9 363.75 752.05 363.85 752.2 364 752.8 364
L 756.05 364
Q 756.45 364 756.6 363.9 756.75 363.75 756.95 363.45
L 767.5 337.4
Q 767.75 337.1 767.75 336.75
L 767.75 334.35
Q 767.75 333.9 767.6 333.75 767.45 333.6 766.75 333.6
L 749.75 333.6
Q 749.05 333.6 749.05 334.25
M 802.65 325.95
Q 802.45 325.95 802.3 326.05 802.15 326.2 802.15 326.4
L 802.15 329.55
Q 802.15 329.8 802.3 329.9 802.45 330.05 802.65 330.05
L 823.75 330.05
Q 823.95 330.05 824.1 329.9 824.25 329.8 824.25 329.55
L 824.25 326.4
Q 824.25 326.2 824.1 326.05 823.95 325.95 823.75 325.95
L 802.65 325.95
M 784.25 305.55
Q 784.05 305.2 783.7 305.2
L 780.75 305.2
Q 780.25 305.2 780.5 305.65 783.7 310.7 785.25 315.4 786.75 320.1 786.75 324.8 786.75 329.5 785.25 334.15 783.75 338.85 780.5 343.9 780.4 344.05 780.45 344.2 780.45 344.35 780.75 344.35
L 783.7 344.35
Q 784.05 344.35 784.25 344 788.05 339.35 789.75 334.6 791.45 329.85 791.45 324.8 791.45 319.7 789.75 315 788.05 310.25 784.25 305.55
M 802.65 317.6
Q 802.45 317.6 802.3 317.75 802.15 317.9 802.15 318.1
L 802.15 321.25
Q 802.15 321.45 802.3 321.6 802.45 321.75 802.65 321.75
L 823.75 321.75
Q 823.95 321.75 824.1 321.6 824.25 321.45 824.25 321.25
L 824.25 318.1
Q 824.25 317.9 824.1 317.75 823.95 317.6 823.75 317.6
L 802.65 317.6
M 687.55 333.75
Q 687.4 333.6 686.7 333.6
L 669.7 333.6
Q 669 333.6 669 334.25
L 669 337.05
Q 669 337.4 669.2 337.55 669.4 337.75 669.7 337.75
L 682.45 337.75 672 363.3
Q 671.85 363.75 672 363.85 672.15 364 672.75 364
L 676 364
Q 676.4 364 676.55 363.9 676.7 363.75 676.9 363.45
L 687.45 337.4
Q 687.7 337.1 687.7 336.75
L 687.7 334.35
Q 687.7 333.9 687.55 333.75
M 653.55 305.2
Q 653.25 305.2 653 305.55 649.25 310.25 647.55 315 645.85 319.7 645.85 324.8 645.85 329.85 647.55 334.6 649.25 339.35 653 344 653.25 344.35 653.55 344.35
L 656.5 344.35
Q 656.8 344.35 656.85 344.2 656.9 344.05 656.75 343.9 653.5 338.85 652 334.15 650.5 329.5 650.5 324.8 650.5 320.1 652.05 315.4 653.55 310.7 656.75 305.65 657.05 305.2 656.5 305.2
L 653.55 305.2
M 715.35 321.3
Q 715.2 321.45 715.2 321.65
L 715.2 324.85
Q 715.2 325.05 715.35 325.2 715.5 325.35 715.7 325.35
L 725.35 325.35
Q 725.6 325.35 725.75 325.2 725.9 325.05 725.9 324.85
L 725.9 321.65
Q 725.9 321.45 725.75 321.3 725.6 321.15 725.35 321.15
L 715.7 321.15
Q 715.5 321.15 715.35 321.3
M 671.35 286.25
Q 670.05 287.65 669.35 289.55 668.7 291.45 668.7 293.65 668.7 295.95 669.4 297.75 670.05 299.55 671.35 300.85 672.65 302.15 674.45 302.85 676.2 303.55 678.35 303.55 679.1 303.55 679.9 303.35 680.7 303.15 681.45 302.8 682.2 302.45 682.85 302 683.45 301.55 683.8 301.05 683.55 302.95 682.95 304.65 682.35 306.3 681.35 307.55 680.35 308.8 678.9 309.5 677.45 310.2 675.35 310.2 673.95 310.2 672.8 310.1 671.6 310 670.55 309.55 670 309.35 669.9 309.9
L 669.8 313.1
Q 669.75 313.5 670.1 313.6 671.05 313.95 672.45 314.15 673.9 314.35 675.05 314.35 678.75 314.35 681.3 313 683.9 311.7 685.45 309.45 687.05 307.2 687.75 304.2 688.4 301.15 688.4 297.8 688.4 290.35 685.85 286.8 683.3 283.25 678.6 283.25 676.3 283.25 674.5 284.05 672.65 284.85 671.35 286.25
M 673.1 293.45
Q 673.1 290.55 674.6 288.9 676.15 287.2 678.55 287.2 679.65 287.2 680.6 287.75 681.55 288.25 682.25 289.15 682.95 290.05 683.35 291.25 683.75 292.45 683.75 293.8 683.75 296.25 682.3 297.85 680.8 299.4 678.2 299.4 675.75 299.4 674.45 297.8 673.1 296.2 673.1 293.45
M 653.4 222.35
Q 653.4 222.2 653.3 222 653.15 221.9 652.95 221.9
L 649.65 221.9
Q 649.5 221.9 649.3 222 649.2 222.2 649.2 222.35
L 649.2 230.75 640.7 230.75
Q 640.5 230.75 640.4 230.9 640.25 231.05 640.25 231.25
L 640.25 234.35
Q 640.25 234.55 640.4 234.7 640.5 234.85 640.7 234.85
L 649.2 234.85 649.2 243.3
Q 649.2 243.8 649.65 243.8
L 652.95 243.8
Q 653.4 243.8 653.4 243.3
L 653.4 234.85 661.85 234.85
Q 662.35 234.85 662.35 234.35
L 662.35 231.25
Q 662.35 230.75 661.85 230.75
L 653.4 230.75 653.4 222.35
M 694.4 247.05
Q 695.9 246.4 697.95 246.4 699.35 246.4 700.55 246.5 701.7 246.6 702.75 247 703.3 247.25 703.4 246.7
L 703.5 243.5
Q 703.55 243.1 703.2 243 702.3 242.65 700.85 242.45 699.45 242.25 698.3 242.25 694.55 242.25 692 243.55 689.45 244.9 687.85 247.15 686.3 249.35 685.6 252.4 684.9 255.4 684.9 258.8 684.9 266.25 687.45 269.8 690 273.35 694.7 273.35 697 273.35 698.85 272.55 700.7 271.75 702 270.3 703.3 268.95 703.95 267 704.65 265.15 704.65 262.95 704.65 260.65 703.95 258.85 703.25 257 701.95 255.7 700.7 254.4 698.9 253.7 697.15 253 694.95 253 694.2 253 693.4 253.25 692.6 253.45 691.85 253.8 691.1 254.15 690.5 254.6 689.9 255.05 689.55 255.55 689.8 253.6 690.4 251.9 690.95 250.25 691.95 249 692.95 247.75 694.4 247.05
M 691.05 258.75
Q 692.5 257.2 695.1 257.2 697.55 257.2 698.9 258.8 700.25 260.35 700.25 263.15 700.25 266 698.75 267.7 697.2 269.35 694.8 269.35 693.7 269.35 692.7 268.85 691.75 268.35 691.05 267.45 690.35 266.55 689.95 265.3 689.55 264.15 689.55 262.75 689.55 260.3 691.05 258.75
M 766.75 284.1
Q 766.75 283.9 766.65 283.75 766.5 283.55 766.25 283.55
L 751.6 283.55
Q 751 283.55 750.9 283.7 750.75 283.8 750.75 284.25
L 750.55 299
Q 750.55 300.35 752.1 299.7 753.35 299.25 754.75 299 756.15 298.7 757.45 298.7 760.75 298.7 762.15 300.25 763.6 301.75 763.6 304.35 763.6 307.05 761.8 308.55 760.1 310.1 757.4 310.1 756.7 310.1 755.85 310 755.05 309.95 754.2 309.8 753.35 309.6 752.55 309.4 751.75 309.15 751.2 308.85 750.35 308.45 750.35 309.15
L 750.35 312.4
Q 750.35 312.7 750.35 312.85 750.4 312.95 750.65 313.15 751.3 313.45 752.25 313.65 753.15 313.9 754.1 314.05 755.05 314.15 755.85 314.25 756.7 314.3 757.1 314.3 759.4 314.3 761.45 313.65 763.55 313 764.95 311.7 768.1 308.9 768.1 303.85 768.1 301.75 767.35 300.1 766.6 298.4 765.3 297.2 764 296.05 762.25 295.4 760.5 294.8 758.5 294.8 756.55 294.8 754.95 295.15
L 755.1 287.75 766.25 287.75
Q 766.5 287.75 766.65 287.55 766.75 287.4 766.75 287.15
L 766.75 284.1
M 730.65 234.95
Q 730.45 234.95 730.3 235.05 730.15 235.2 730.15 235.4
L 730.15 238.55
Q 730.15 238.8 730.3 238.9 730.45 239.05 730.65 239.05
L 751.75 239.05
Q 751.95 239.05 752.1 238.9 752.25 238.8 752.25 238.55
L 752.25 235.4
Q 752.25 235.2 752.1 235.05 751.95 234.95 751.75 234.95
L 730.65 234.95
M 730.3 230.6
Q 730.45 230.75 730.65 230.75
L 751.75 230.75
Q 751.95 230.75 752.1 230.6 752.25 230.45 752.25 230.25
L 752.25 227.1
Q 752.25 226.9 752.1 226.75 751.95 226.6 751.75 226.6
L 730.65 226.6
Q 730.45 226.6 730.3 226.75 730.15 226.9 730.15 227.1
L 730.15 230.25
Q 730.15 230.45 730.3 230.6
M 778.05 217.7
Q 777.95 217.8 777.75 218.15
L 765.35 236.75
Q 765.2 236.9 765.05 237.2 764.85 237.5 764.85 237.75
L 764.85 240.75
Q 764.85 241.05 765 241.1 765.15 241.2 765.5 241.2
L 778.3 241.2 778.3 247.3
Q 778.3 247.7 778.45 247.85 778.6 248 779.05 248
L 781.95 248
Q 782.35 248 782.45 247.85 782.6 247.75 782.6 247.3
L 782.6 241.2 786.3 241.2
Q 786.65 241.2 786.8 241.1 786.95 241 786.95 240.6
L 786.95 237.7
Q 786.95 237.3 786.8 237.2 786.65 237.1 786.3 237.1
L 782.6 237.1 782.6 218.2
Q 782.6 217.85 782.55 217.75 782.5 217.6 782.2 217.6
L 778.55 217.6
Q 778.15 217.6 778.05 217.7
M 778.3 237.1
L 769.7 237.1 778.3 224.05 778.3 237.1
M 806.35 222
Q 806.25 222.2 806.25 222.35
L 806.25 230.75 797.75 230.75
Q 797.55 230.75 797.45 230.9 797.3 231.05 797.3 231.25
L 797.3 234.35
Q 797.3 234.55 797.45 234.7 797.55 234.85 797.75 234.85
L 806.25 234.85 806.25 243.3
Q 806.25 243.8 806.7 243.8
L 810 243.8
Q 810.45 243.8 810.45 243.3
L 810.45 234.85 818.9 234.85
Q 819.4 234.85 819.4 234.35
L 819.4 231.25
Q 819.4 230.75 818.9 230.75
L 810.45 230.75 810.45 222.35
Q 810.45 222.2 810.35 222 810.2 221.9 810 221.9
L 806.7 221.9
Q 806.55 221.9 806.35 222
M 685.2 196.55
Q 685.4 196.75 685.7 196.75
L 698.45 196.75 688 222.3
Q 687.85 222.75 688 222.85 688.15 223 688.75 223
L 692 223
Q 692.4 223 692.55 222.9 692.7 222.75 692.9 222.45
L 703.45 196.4
Q 703.7 196.1 703.7 195.75
L 703.7 193.35
Q 703.7 192.9 703.55 192.75 703.4 192.6 702.7 192.6
L 685.7 192.6
Q 685 192.6 685 193.25
L 685 196.05
Q 685 196.4 685.2 196.55
M 874.35 192.7
Q 874.15 192.75 874.1 192.85
L 867.95 198.5
Q 867.75 198.7 867.75 198.9 867.7 199.15 867.85 199.3
L 869.65 201.45
Q 869.8 201.6 870.05 201.55 870.3 201.55 870.55 201.4
L 873.5 198.8 873.5 222.5
Q 873.5 223 874.05 223
L 877.25 223
Q 877.75 223 877.75 222.5
L 877.75 193.7
Q 877.75 192.9 877.6 192.75 877.5 192.6 876.8 192.6
L 874.7 192.6
Q 874.55 192.6 874.35 192.7
M 987.15 247.05
Q 988.65 246.4 990.7 246.4 992.1 246.4 993.3 246.5 994.45 246.6 995.5 247 996.05 247.25 996.15 246.7
L 996.25 243.5
Q 996.3 243.1 995.95 243 995.05 242.65 993.6 242.45 992.2 242.25 991.05 242.25 987.3 242.25 984.75 243.55 982.2 244.9 980.6 247.15 979.05 249.35 978.35 252.4 977.65 255.4 977.65 258.8 977.65 266.25 980.2 269.8 982.75 273.35 987.45 273.35 989.75 273.35 991.6 272.55 993.45 271.75 994.75 270.3 996.05 268.95 996.7 267 997.4 265.15 997.4 262.95 997.4 260.65 996.7 258.85 996 257 994.7 255.7 993.45 254.4 991.65 253.7 989.9 253 987.7 253 986.95 253 986.15 253.25 985.35 253.45 984.6 253.8 983.85 254.15 983.25 254.6 982.65 255.05 982.3 255.55 982.55 253.6 983.15 251.9 983.7 250.25 984.7 249 985.7 247.75 987.15 247.05
M 987.85 257.2
Q 990.3 257.2 991.65 258.8 993 260.35 993 263.15 993 266 991.5 267.7 989.95 269.35 987.55 269.35 986.45 269.35 985.45 268.85 984.5 268.35 983.8 267.45 983.1 266.55 982.7 265.3 982.3 264.15 982.3 262.75 982.3 260.3 983.8 258.75 985.25 257.2 987.85 257.2
M 986.9 192.7
Q 986.7 192.75 986.65 192.85
L 980.5 198.5
Q 980.3 198.7 980.3 198.9 980.25 199.15 980.4 199.3
L 982.2 201.45
Q 982.35 201.6 982.6 201.55 982.85 201.55 983.1 201.4
L 986.05 198.8 986.05 222.5
Q 986.05 223 986.6 223
L 989.8 223
Q 990.3 223 990.3 222.5
L 990.3 193.7
Q 990.3 192.9 990.15 192.75 990.05 192.6 989.35 192.6
L 987.25 192.6
Q 987.1 192.6 986.9 192.7 Z"/>
</g>

<path id="Layer0_0_1_STROKES" stroke="#3567D7" stroke-width="3" stroke-linejoin="miter" stroke-linecap="butt" stroke-miterlimit="3" fill="none" d="
M 675.5 232.55
L 713.7 232.55
M 659.5 323.55
L 697.7 323.55
M 739.55 323.55
L 777.75 323.55
M 862.7 323.55
L 900.9 323.55
M 855.7 232.55
L 893.9 232.55
M 968.25 232.55
L 1006.45 232.55
M 368.5 141.55
L 406.7 141.55
M 368.5 50.5
L 406.7 50.5
M 430.45 232.55
L 468.65 232.55
M 404.15 323.55
L 442.35 323.55
M 510.5 232.55
L 548.7 232.55
M 220.95 141.55
L 313.65 141.55
M 220.95 50.5
L 313.65 50.5
M 41.95 50.5
L 80.15 50.5
M 41.95 141.55
L 80.15 141.55
M 71.1 323.55
L 109.3 323.55
M 71.1 232.55
L 109.3 232.55
M 176.1 232.55
L 214.3 232.55
M 176.1 323.55
L 214.3 323.55
M 126.95 141.55
L 165.15 141.55
M 126.95 50.5
L 165.15 50.5
M 299.15 323.55
L 337.35 323.55"/>
</defs>

<g transform="matrix( 1, 0, 0, 1, 0,0) ">
<use xlink:href="#Layer0_0_FILL"/>

<use xlink:href="#Layer0_0_1_STROKES"/>
</g>
</svg>
