
<svg xmlns="http://www.w3.org/2000/svg" version="1.1" xmlns:xlink="http://www.w3.org/1999/xlink" preserveAspectRatio="none" x="0px" y="0px" width="909px" height="452px" viewBox="0 0 909 452">
<defs>
<g id="Layer0_0_FILL">
<path fill="#569ECC" stroke="none" d="
M 396.85 46.95
L 396.85 4.95 52.75 4.95 52.75 46.95
Q 52.75 57.3 60.05 64.6 67.4 71.95 77.75 71.95
L 371.85 71.95
Q 382.25 71.95 389.5 64.6 396.85 57.35 396.85 46.95 Z"/>

<path fill="#FFFFFF" stroke="none" d="
M 904 29.95
Q 904 19.6 896.65 12.25 889.35 4.95 879 4.95
L 396.85 4.95 396.85 46.95
Q 396.85 57.35 389.5 64.6 382.25 71.95 371.85 71.95
L 77.75 71.95
Q 67.4 71.95 60.05 64.6 52.75 57.3 52.75 46.95
L 52.75 4.95 30 4.95
Q 19.7 4.95 12.3 12.25 5 19.65 5 29.95
L 5 422.1
Q 5 432.45 12.3 439.75 19.65 447.1 30 447.1
L 879 447.1
Q 889.4 447.1 896.65 439.75 904 432.5 904 422.1
L 904 29.95 Z"/>
</g>

<g id="Layer0_1_FILL">
<path fill="#FFFFFF" stroke="none" d="
M 99.45 36.45
Q 98.5 36.45 97.65 36.55 96.8 36.65 96 36.85 95.15 37.05 94.45 37.35 93.8 37.65 93.2 38.05 92.65 38.5 92.2 39 91.75 39.5 91.45 40.1 91.15 40.7 90.95 41.4 90.85 42.1 90.85 42.85 90.85 44.4 91.45 45.55 91.75 46.15 92.2 46.65 92.65 47.15 93.2 47.55 93.8 47.95 94.45 48.3 95.15 48.6 96 48.85 96.8 49.05 97.65 49.15 98.5 49.3 99.45 49.3 100.5 49.3 101.4 49.15 102.3 49.05 103.1 48.8 103.9 48.55 104.55 48.25 105.25 47.95 105.85 47.5 106.4 47.1 106.8 46.6 107.3 46.1 107.6 45.5 107.9 44.9 108.05 44.25 108.2 43.6 108.2 42.85 108.2 42.1 108.05 41.45 107.9 40.8 107.6 40.2 107.3 39.6 106.85 39.1 106.4 38.55 105.85 38.15 105.25 37.75 104.6 37.4 103.9 37.1 103.1 36.85 102.3 36.65 101.4 36.55 100.5 36.45 99.45 36.45
M 97.4 39.8
Q 98.35 39.6 99.5 39.6 100.65 39.6 101.6 39.8 102.5 40.05 103.2 40.45 103.9 40.9 104.25 41.5 104.6 42.1 104.6 42.85 104.6 43.6 104.25 44.2 103.9 44.8 103.2 45.2 102.5 45.6 101.6 45.8 100.65 46 99.5 46 98.35 46 97.4 45.8 96.5 45.6 95.8 45.2 95.1 44.8 94.75 44.2 94.4 43.6 94.4 42.85 94.4 42.1 94.75 41.5 95.1 40.9 95.8 40.45 96.5 40.05 97.4 39.8
M 86.45 23.15
Q 86.4 23.4 86.4 23.75 86.4 24.35 86.7 24.8 86.8 25.1 87.05 25.2 87.3 25.3 87.7 25.3
L 91.05 25.3 91.05 25.7
Q 91.05 26.65 90.75 27.55 90.45 28.45 89.85 29.3 88.7 31 86.7 32.5 86.3 32.8 86.1 33.1 85.95 33.4 85.95 33.65 85.95 33.85 86 34 86.05 34.15 86.15 34.3 86.25 34.45 86.4 34.6 86.5 34.75 86.7 34.85 86.75 35 86.95 35.1 87.1 35.25 87.3 35.3 87.45 35.4 87.6 35.45 87.8 35.5 87.9 35.5 88.1 35.5 88.3 35.45 88.5 35.35 88.7 35.1 89.35 34.55 89.95 34 90.55 33.45 91.05 32.9 92 31.85 93 30.4 93.2 30.75 93.45 31.05 93.65 31.35 93.85 31.65 94.1 31.95 94.35 32.2 94.6 32.5 94.9 32.75 95.15 33 95.45 33.25 95.7 33.55 96 33.8 96.3 34.05 96.6 34.3 96.95 34.6 97.3 34.85 97.55 34.95 97.8 35 98 35.05 98.2 35.05 98.35 35.05 98.45 35 98.6 34.95 98.75 34.85 98.9 34.75 99.05 34.65 99.15 34.55 99.25 34.4 99.35 34.25 99.4 34.15 99.5 34 99.6 33.85 99.65 33.7 99.7 33.55 99.75 33.4 99.75 33.3 99.75 33.1 99.7 32.95 99.65 32.8 99.6 32.7 99.4 32.5 99.05 32.05 96.9 30.6 96 29.05 95.5 28.3 95.15 27.5 94.85 26.7 94.7 25.9
L 94.7 25.3 98.05 25.3
Q 98.45 25.3 98.7 25.2 99 25.1 99.1 24.8 99.2 24.6 99.25 24.3 99.3 24.05 99.3 23.75 99.3 23.4 99.25 23.15 99.2 22.85 99.1 22.6 99 22.35 98.7 22.25 98.45 22.15 98.05 22.15
L 87.7 22.15
Q 87.25 22.15 87 22.25 86.75 22.35 86.65 22.6 86.5 22.85 86.45 23.15
M 104.9 21.6
Q 104.75 21.85 104.75 22.25
L 104.75 26.1 101.6 26.1
Q 100.75 26.1 100.6 26.55 100.5 26.75 100.45 27.05 100.4 27.35 100.4 27.7 100.4 28 100.45 28.3 100.5 28.55 100.6 28.75 100.7 29.05 100.95 29.15 101.2 29.3 101.6 29.3
L 104.75 29.3 104.75 35.05
Q 104.75 35.45 104.9 35.7 105.05 35.95 105.3 36.1 105.6 36.2 105.9 36.3 106.2 36.35 106.6 36.3 106.9 36.35 107.15 36.3 107.45 36.2 107.75 36.1 108 35.95 108.15 35.7 108.25 35.45 108.25 35.05
L 108.25 22.25
Q 108.25 21.45 107.85 21.25 107.6 21.15 107.3 21.1 107.05 21.05 106.7 21.05 106.35 21.05 106 21.1 105.65 21.15 105.35 21.25 105.05 21.35 104.9 21.6
M 145.6 40.65
Q 145.85 40.8 146.15 40.8
L 155.95 40.8
Q 156.35 40.8 156.7 40.8 157.05 40.85 157.35 40.9
L 157.35 48.15
Q 157.35 48.45 157.5 48.65 157.65 48.9 157.9 49.1 158.2 49.25 158.5 49.3 158.8 49.4 159.1 49.4 159.25 49.4 159.4 49.4 159.55 49.4 159.7 49.35 159.95 49.25 160.3 49.1 160.45 49 160.55 48.9 160.65 48.8 160.75 48.7 160.8 48.55 160.85 48.4 160.85 48.3 160.85 48.15
L 160.85 40.3
Q 160.85 39.65 160.65 39.2 160.45 38.7 160.05 38.35 159.6 38 159.1 37.85 158.55 37.65 158 37.65
L 146.15 37.65
Q 145.85 37.65 145.6 37.75 145.35 37.9 145.2 38.1 144.85 38.55 144.85 39.25 144.85 39.55 144.95 39.8 145.05 40.05 145.2 40.3 145.35 40.55 145.6 40.65
M 122 48.3
Q 122.35 48.35 122.8 48.4 123.2 48.45 123.75 48.5 124.25 48.55 124.75 48.6 125.25 48.6 125.8 48.6 126.3 48.6 126.9 48.55 127.5 48.55 128.2 48.5 128.9 48.4 129.55 48.3 130.2 48.2 130.85 48.05 132 47.6 132.9 46.95 133.3 46.6 133.55 46.15 133.75 45.7 133.75 45.1
L 133.75 39.6
Q 133.75 39.05 133.55 38.6 133.4 38.2 133.05 37.9 132.7 37.6 132.25 37.5 131.75 37.35 131.25 37.35
L 119.95 37.35
Q 119.35 37.35 118.85 37.5 118.4 37.6 118.1 37.9 117.75 38.2 117.6 38.6 117.45 39.05 117.45 39.6
L 117.45 45.1
Q 117.45 45.7 117.6 46.15 117.75 46.65 118.1 46.95 118.45 47.25 118.9 47.5 119.4 47.75 120 47.9 120.1 47.95 120.25 48 120.45 48.05 120.7 48.1 120.95 48.15 121.3 48.2 121.6 48.25 122 48.3
M 129.2 40.55
Q 129.45 40.55 129.6 40.6 129.75 40.65 129.9 40.7 129.95 40.8 130.05 40.95 130.1 41.1 130.1 41.3
L 130.1 44.15
Q 130.1 44.3 130 44.45 129.95 44.6 129.8 44.75 129.6 44.85 129.45 44.95 129.3 45.05 129.15 45.1 128.9 45.15 128.65 45.2 128.4 45.3 128.15 45.35 127.85 45.4 127.55 45.4 127.25 45.45 126.9 45.5 126.55 45.55 126.2 45.55 125.85 45.55 125.45 45.55 125.2 45.55 124.9 45.55 124.6 45.55 124.25 45.55 123.9 45.5 123.5 45.45 123.1 45.4 122.75 45.35 122.05 45.2 121.6 44.9 121.3 44.75 121.15 44.55 121.05 44.4 121.05 44.15
L 121.05 41.3
Q 121.05 41.1 121.1 40.95 121.1 40.8 121.25 40.7 121.35 40.65 121.5 40.6 121.7 40.55 121.9 40.55
L 129.2 40.55
M 130.5 21.55
Q 130.35 21.8 130.35 22.2
L 130.35 34.7
Q 130.35 35.1 130.5 35.35 130.6 35.6 130.85 35.7 131.3 35.95 131.95 35.95 132.1 35.95 132.25 35.95 132.45 35.95 132.6 35.9 132.75 35.9 132.95 35.85 133.1 35.8 133.3 35.7 133.45 35.65 133.55 35.55 133.7 35.45 133.8 35.3 133.85 35.15 133.9 34.95 133.9 34.75 133.9 34.5
L 133.9 30.1 137 30.1
Q 137.35 30.1 137.6 29.95 137.85 29.85 138 29.6 138.1 29.4 138.15 29.1 138.2 28.85 138.2 28.55 138.2 28.2 138.15 27.9 138.1 27.6 138 27.4 137.7 26.95 137 26.95
L 133.9 26.95 133.9 22.2
Q 133.9 21.8 133.8 21.55 133.7 21.3 133.45 21.2 133.2 21.05 132.9 21 132.65 20.95 132.35 20.95 131.95 20.95 131.6 21 131.3 21.05 131 21.2 130.65 21.3 130.5 21.55
M 121.6 23.85
Q 121.6 23.5 121.6 23.25 121.55 23 121.45 22.8 121.4 22.6 121.35 22.45 121.25 22.3 121.15 22.2 121 22.1 120.8 22.05 120.6 21.95 120.4 21.95 120.15 21.9 119.9 21.9 119.75 21.9 119.6 21.95 119.45 21.95 119.3 21.95 119.1 22 118.95 22.05 118.8 22.1 118.7 22.15 118.6 22.25 118.45 22.3 118.3 22.4 118.25 22.55 118.15 22.65 118.1 22.8 118.05 22.95 118.05 23.15
L 118.05 24.45
Q 118 25 117.9 25.55 117.85 26.1 117.7 26.6 117.5 27.15 117.25 27.7 117 28.2 116.7 28.7 116.4 29.25 116.05 29.7 115.7 30.15 115.3 30.6 114.85 31.05 114.35 31.4 113.9 31.8 113.35 32.1
L 113.2 32.15
Q 113 32.25 112.85 32.35 112.75 32.45 112.7 32.55 112.6 32.65 112.55 32.8 112.55 32.9 112.55 33.05 112.55 33.4 112.7 33.75 112.8 33.95 112.95 34.1 113.05 34.25 113.25 34.4 113.35 34.5 113.5 34.65 113.65 34.75 113.8 34.8 114.1 35 114.45 35 114.5 35 114.6 35 114.7 34.95 114.8 34.9 114.9 34.9 114.95 34.85 115.05 34.85 115.1 34.75
L 115.15 34.75
Q 115.85 34.35 116.5 33.8 117.2 33.25 117.8 32.5 118.35 31.85 118.9 31.1 119.45 30.4 119.95 29.65 120.4 30.4 121 31.1 121.55 31.75 122.15 32.4 122.8 33.05 123.5 33.6 124.25 34.15 125.1 34.6 125.2 34.65 125.3 34.65 125.4 34.7 125.55 34.7 125.7 34.7 125.85 34.65 126.05 34.6 126.2 34.5 126.45 34.3 126.75 33.95 126.85 33.8 127 33.65 127.1 33.45 127.15 33.3 127.25 33.1 127.3 32.95 127.35 32.75 127.35 32.55 127.35 32.4 127.3 32.3 127.25 32.2 127.15 32.15 127.1 32.1 126.95 32 126.8 31.9 126.6 31.7 126.2 31.45 125.8 31.1 125.35 30.75 124.95 30.35 124.5 30 124.1 29.55 123.7 29.15 123.4 28.7 123 28.2 122.7 27.75 122.4 27.25 122.15 26.7 121.95 26.2 121.8 25.65 121.7 25.1 121.65 24.6
L 121.65 24.5
Q 121.65 24.15 121.6 23.85
M 151.1 22.35
Q 150.6 22.15 150 22.15
L 142 22.15
Q 141.3 22.15 141 22.6 140.85 22.85 140.8 23.15 140.7 23.4 140.7 23.75 140.7 24.1 140.8 24.35 140.85 24.6 141 24.8 141.15 25.05 141.4 25.2 141.65 25.3 142 25.3
L 148.95 25.3
Q 148.85 25.75 148.75 26.15 148.65 26.55 148.45 26.95 148.3 27.4 147.95 27.9 147.6 28.4 147.05 29 146.8 29.35 146.55 29.65 146.25 29.95 146 30.2 145.4 30.7 144.7 31.15 144.45 31.4 144.1 31.6 143.75 31.85 143.35 32.05 142.9 32.25 142.45 32.45 142 32.7 141.5 32.9 141.2 33 141.05 33.1 140.9 33.2 140.85 33.35 140.75 33.55 140.7 33.7 140.7 33.9 140.7 34.1 140.7 34.5 140.8 34.85 140.85 35.15 141.1 35.45 141.3 35.7 141.55 35.85 141.75 36 142.05 36
L 142.1 36
Q 142.15 36 142.2 35.95 142.25 35.95 142.3 35.95 142.35 35.95 142.4 35.95 143.55 35.6 144.6 35.1 145.65 34.65 146.6 33.95 147.55 33.3 148.35 32.6 149.15 31.85 149.85 31.05 150.55 30.25 151.05 29.45 151.6 28.65 152 27.8 152.35 26.95 152.6 26.2 152.75 25.45 152.75 24.8 152.75 24.15 152.6 23.65 152.35 23.2 152 22.85 151.6 22.5 151.1 22.35
M 178.9 37.15
Q 178 37.25 177.2 37.4 176.35 37.6 175.65 37.9 175 38.2 174.45 38.6 173.85 39 173.4 39.45 173 39.95 172.7 40.5 172.45 41.1 172.3 41.75 172.15 42.45 172.15 43.15 172.15 44.65 172.8 45.8 173.05 46.35 173.5 46.8 173.9 47.3 174.45 47.7 175 48.05 175.7 48.35 176.4 48.65 177.2 48.85 178 49.05 178.9 49.2 179.8 49.3 180.75 49.3 181.7 49.3 182.65 49.2 183.55 49.05 184.4 48.85 185.2 48.65 185.9 48.35 186.55 48.05 187.15 47.7 187.65 47.25 188.1 46.8 188.5 46.3 188.85 45.75 189.15 45.2 189.25 44.55 189.45 43.9 189.45 43.15 189.45 41.7 188.85 40.55 188.3 39.4 187.15 38.6 186 37.8 184.4 37.4 182.75 37.05 180.75 37.05 179.75 37.05 178.9 37.15
M 178.65 40.4
Q 179.6 40.2 180.75 40.2 181.95 40.2 182.85 40.4 183.8 40.55 184.5 40.9 185.2 41.3 185.55 41.85 185.9 42.4 185.9 43.15 185.9 43.9 185.55 44.4 185.2 44.95 184.5 45.3 183.8 45.65 182.85 45.85 181.95 46 180.75 46 178.4 46 177.05 45.3 176.35 44.95 176 44.4 175.65 43.9 175.65 43.15 175.65 42.45 176 41.85 176.35 41.3 177.05 40.9 177.7 40.55 178.65 40.4
M 165 27.4
Q 164.85 27.15 164.6 27.05 164.4 26.95 164 26.95
L 160.9 26.95 160.9 22.2
Q 160.9 21.8 160.8 21.55 160.7 21.3 160.45 21.2 160.2 21.05 159.9 21 159.65 20.95 159.35 20.95 158.95 20.95 158.6 21 158.3 21.05 158 21.2 157.65 21.35 157.55 21.55 157.4 21.85 157.4 22.2
L 157.4 34.7
Q 157.4 35.1 157.5 35.35 157.65 35.6 157.9 35.7 158.35 35.95 159 35.95 159.25 35.95 159.6 35.9 159.75 35.85 159.95 35.8 160.1 35.75 160.3 35.65 160.45 35.6 160.55 35.45 160.7 35.35 160.8 35.15 160.85 35 160.9 34.8 160.9 34.6 160.9 34.35
L 160.9 30.05 164 30.05
Q 164.4 30.05 164.6 29.95 164.85 29.8 165 29.6 165.1 29.35 165.15 29.1 165.2 28.85 165.2 28.55 165.2 28.2 165.15 27.9 165.1 27.6 165 27.4
M 178.9 28.5
Q 178.4 28.2 177.85 27.95 177.3 27.7 176.75 27.5 175.45 27.15 174.05 27.15 173.35 27.15 172.7 27.2 172.1 27.3 171.5 27.5 170.25 27.85 169.35 28.45 168.9 28.8 168.55 29.15 168.2 29.55 167.95 29.95 167.7 30.4 167.6 30.9 167.45 31.35 167.5 31.85 167.45 32.4 167.6 32.9 167.7 33.35 167.95 33.8 168.45 34.7 169.35 35.3 169.8 35.6 170.3 35.85 170.85 36.1 171.5 36.25 172.1 36.45 172.75 36.55 173.35 36.65 174.05 36.65 174.75 36.65 175.4 36.55 176.05 36.45 176.7 36.25 177.3 36.05 177.85 35.8 178.4 35.55 178.9 35.25 179.35 34.9 179.65 34.55 180 34.15 180.25 33.7 180.45 33.3 180.6 32.8 180.7 32.35 180.7 31.85 180.7 31.4 180.6 30.95 180.45 30.5 180.25 30.05 179.75 29.2 178.9 28.5
M 175.25 30.2
Q 175.8 30.3 176.25 30.55 176.7 30.85 176.95 31.15 177.15 31.5 177.15 31.85 177.15 32.25 176.95 32.6 176.7 32.9 176.25 33.15 175.8 33.4 175.25 33.55 174.7 33.7 174.05 33.7 173.4 33.7 172.85 33.55 172.3 33.45 171.9 33.2 171.5 32.95 171.25 32.6 171.05 32.25 171.05 31.85 171.05 31.5 171.25 31.15 171.5 30.85 171.9 30.55 172.3 30.3 172.85 30.2 173.4 30.05 174.05 30.05 174.65 30.05 175.25 30.2
M 166.55 23.75
Q 166.4 23.9 166.3 24.15 166.25 24.45 166.25 24.8 166.25 25.1 166.3 25.35 166.35 25.6 166.5 25.75 166.65 26.1 167.5 26.1 169.1 26.1 170.75 26.1 172.45 26.1 174.1 26.1 175.75 26.15 177.4 26.15 179.05 26.15 180.7 26.15
L 180.9 26.15
Q 181.25 26.15 181.5 26.05 181.75 26 181.9 25.8 182.05 25.65 182.1 25.4 182.15 25.15 182.15 24.85 182.15 24.5 182.1 24.25 182.05 24 181.9 23.8 181.75 23.65 181.5 23.6 181.25 23.5 180.9 23.5
L 175.8 23.5 175.8 21.95
Q 175.8 21.6 175.65 21.35 175.55 21.1 175.35 20.95 174.85 20.65 174.15 20.65 173.85 20.65 173.55 20.75 173.3 20.8 173.05 20.9 172.8 21.05 172.7 21.3 172.55 21.55 172.55 21.95
L 172.55 23.5
Q 171.95 23.5 171.3 23.5 170.7 23.5 170.1 23.45 169.5 23.45 168.85 23.45 168.25 23.45 167.6 23.45 166.8 23.45 166.55 23.75
M 185.85 21.9
Q 185.7 22.2 185.7 22.6
L 185.7 27.3 182.75 27.3
Q 181.85 27.3 181.65 27.65 181.5 27.85 181.45 28.1 181.4 28.35 181.4 28.65 181.4 28.95 181.45 29.2 181.5 29.45 181.65 29.6 181.75 29.8 182 29.85 182.3 29.95 182.75 29.95
L 185.7 29.95 185.7 32.15 182.75 32.15
Q 181.85 32.15 181.65 32.5 181.5 32.7 181.45 32.95 181.4 33.2 181.4 33.55 181.4 33.85 181.45 34.1 181.5 34.35 181.65 34.5 181.85 34.85 182.75 34.85
L 185.7 34.9 185.7 35.5
Q 185.7 35.9 185.85 36.15 186 36.35 186.3 36.5 186.6 36.65 186.9 36.75 187.25 36.8 187.65 36.8 187.95 36.8 188.2 36.75 188.5 36.65 188.75 36.5 189 36.35 189.15 36.15 189.25 35.9 189.25 35.5
L 189.25 22.6
Q 189.25 22.2 189.15 21.9 189 21.65 188.75 21.5 188.5 21.35 188.2 21.25 187.95 21.2 187.65 21.2 187.25 21.2 186.9 21.25 186.6 21.35 186.3 21.5 186 21.65 185.85 21.9
M 210.6 41.6
Q 210.55 41.85 210.5 41.95
L 199.85 41.95
Q 199.3 41.95 198.85 42.05 198.35 42.15 198 42.3 197.65 42.5 197.45 42.85 197.25 43.25 197.25 43.8
L 197.25 45.85 197.3 45.85
Q 197.3 46.4 197.5 46.85 197.7 47.25 198.1 47.6 198.55 47.95 199.05 48.2 199.55 48.45 200.15 48.65 200.75 48.8 201.4 48.95 202.05 49.05 202.8 49.15 203.45 49.2 204.1 49.25 204.7 49.3 205.25 49.3 206.1 49.3 206.85 49.25 207.65 49.2 208.35 49.1 209.1 49 209.75 48.9 210.4 48.8 211 48.7 212.1 48.45 212.8 48.35 213.1 48.25 213.3 48.2
L 213.45 48.15
Q 213.7 48.1 213.9 48 214.1 47.85 214.25 47.7 214.4 47.45 214.5 47.25 214.55 47.05 214.55 46.85 214.55 46.3 214.2 45.95 214.05 45.75 213.8 45.65 213.55 45.55 213.3 45.55 213.1 45.55 212.85 45.6 212.65 45.65 212.45 45.7
L 212.3 45.7
Q 212.15 45.75 211.9 45.85 211.6 45.9 211.25 45.95 210.9 46.05 210.45 46.15 209.95 46.25 209.4 46.3 208.85 46.4 208.25 46.5 207.6 46.55 206.95 46.6 206.3 46.6 205.6 46.6 205.05 46.6 204.45 46.6 203.9 46.55 203.3 46.5 202.7 46.45 202.1 46.3 201.55 46.15 201 45.95 201 45.85 201 45.8 201 45.7 201 45.65 200.95 45.5 200.9 45.4 200.9 45.3 200.9 45.2
L 200.9 45.05
Q 200.9 44.85 200.9 44.7 200.95 44.55 201 44.4
L 211.35 44.4
Q 211.9 44.4 212.4 44.3 212.85 44.15 213.3 43.95 213.7 43.7 213.95 43.25 214.15 42.85 214.15 42.15
L 214.15 40
Q 214.15 39.35 213.95 38.9 213.7 38.45 213.3 38.15 212.85 37.9 212.4 37.75 211.9 37.65 211.35 37.65
L 198.7 37.65
Q 197.95 37.65 197.55 38 197.2 38.35 197.2 39 197.2 39.35 197.3 39.55 197.4 39.8 197.65 39.95 198 40.2 198.7 40.2
L 210.5 40.2
Q 210.55 40.4 210.6 40.55 210.6 40.65 210.6 40.75 210.65 40.85 210.65 40.95
L 210.65 41.2
Q 210.65 41.35 210.6 41.4 210.6 41.5 210.6 41.6
M 218.8 33.35
Q 218.65 33.15 218.4 33.05 218.15 32.95 217.75 32.95
L 193.6 32.95
Q 192.9 32.95 192.6 33.35 192.45 33.55 192.4 33.8 192.35 34.05 192.35 34.4 192.35 35 192.6 35.45 192.9 35.9 193.6 35.9
L 217.75 35.9
Q 218.15 35.9 218.4 35.8 218.65 35.7 218.8 35.45 218.9 35.25 219 34.95 219.05 34.7 219.05 34.4 219.05 34.05 219 33.8 218.9 33.55 218.8 33.35
M 212.2 22.5
Q 211.6 22.2 210.9 22 210.2 21.75 209.35 21.55 208.55 21.4 207.65 21.35 206.75 21.25 205.75 21.25 204.7 21.25 203.8 21.35 202.9 21.4 202.1 21.55 201.3 21.75 200.6 22 199.95 22.2 199.35 22.5 198.75 22.8 198.35 23.2 197.9 23.6 197.6 24.05 196.95 24.95 196.95 26.1 196.95 26.7 197.1 27.2 197.25 27.7 197.6 28.15 197.9 28.6 198.35 28.95 198.8 29.35 199.4 29.65 199.95 29.95 200.65 30.2 201.4 30.4 202.2 30.55 203 30.75 203.9 30.85 204.85 30.95 205.85 31 207.85 30.9 209.5 30.55 210.25 30.4 210.95 30.15 211.6 29.9 212.25 29.6 212.75 29.3 213.2 28.95 213.65 28.6 213.95 28.15 214.25 27.7 214.4 27.2 214.55 26.7 214.55 26.1 214.55 25.5 214.4 25 214.25 24.45 213.95 24.05 213.65 23.6 213.2 23.2 212.75 22.8 212.2 22.5
M 205.75 24.4
Q 206.95 24.4 207.9 24.55 208.9 24.65 209.6 24.85 210.25 25.05 210.6 25.4 210.95 25.7 210.95 26.1 210.95 26.5 210.6 26.8 210.25 27.1 209.6 27.3 208.9 27.5 207.9 27.6 206.95 27.75 205.75 27.75 204.55 27.75 203.6 27.6 202.65 27.5 202 27.3 201.25 27.1 200.9 26.8 200.55 26.5 200.55 26.1 200.55 25.7 200.9 25.4 201.25 25.05 202 24.85 202.65 24.65 203.6 24.55 204.55 24.4 205.75 24.4
M 250.15 36.5
Q 249.7 36.2 249.15 36 248.6 35.85 248 35.85
L 236.25 35.85
Q 235.55 35.85 235.2 36.3 234.95 36.55 234.85 36.8 234.75 37.1 234.75 37.4 234.75 37.75 234.85 38 234.95 38.3 235.2 38.5 235.55 38.95 236.25 38.95
L 247.25 38.95
Q 247.3 39.05 247.3 39.1 247.3 39.2 247.35 39.25 247.35 39.35 247.35 39.4 247.35 39.5 247.35 39.6
L 247.35 39.85
Q 247.35 40.05 247.3 40.2 247.3 40.35 247.25 40.55
L 237.8 40.55
Q 237.55 40.55 237.25 40.55 237 40.55 236.7 40.6 236.4 40.65 236.15 40.75 235.9 40.85 235.75 40.95 235.55 41.1 235.35 41.25 235.2 41.45 235.05 41.65 234.95 41.85 234.9 42.15 234.85 42.4 234.85 42.75 234.85 43.1 234.85 43.45 234.85 43.8 234.85 44.1 234.85 44.8 234.85 45.55 234.85 46.5 235.3 47.15 235.5 47.45 235.95 47.75 236.4 48.05 237.05 48.35 237.8 48.55 238.5 48.7 239.25 48.85 240 48.95 240.75 49.05 241.45 49.1 242.15 49.15 242.8 49.15 243.65 49.15 244.4 49.15 245.15 49.1 245.85 49 247.2 48.85 248.2 48.65 248.75 48.55 249.3 48.4 249.8 48.3 250.25 48.15 250.55 48.1 250.75 47.95 251 47.8 251.15 47.55 251.25 47.35 251.3 47.1 251.35 46.85 251.35 46.6 251.35 46.15 251.3 45.85 251.2 45.55 251.05 45.4 250.85 45.25 250.6 45.15 250.35 45.05 250.05 45.05 249.8 45.05 249.35 45.15
L 249.2 45.2
Q 249.1 45.25 248.85 45.25 248.6 45.35 248.25 45.4 247.9 45.5 247.45 45.55 247.05 45.6 246.5 45.7 246 45.75 245.45 45.8 244.85 45.85 244.2 45.9 243.55 45.95 242.8 45.95 242.3 45.95 241.8 45.9 241.25 45.85 240.7 45.8 240.15 45.7 239.6 45.55 239.1 45.45 238.6 45.25 238.55 45.2 238.55 45.1 238.5 45 238.5 44.9 238.45 44.8 238.45 44.7 238.45 44.6 238.45 44.45
L 238.45 44.15
Q 238.45 43.95 238.45 43.8 238.5 43.65 238.6 43.45
L 248 43.45
Q 248.65 43.45 249.15 43.3 249.7 43.15 250.15 42.8 250.55 42.5 250.8 42 251 41.5 251 40.8
L 251 38.6
Q 251 37.9 250.8 37.4 250.55 36.85 250.15 36.5
M 243.7 26.65
Q 243.55 26 243.35 25.4 243.05 24.85 242.7 24.35 242.4 23.8 241.95 23.4 241.5 22.95 240.95 22.65 240.4 22.35 239.75 22.15 239.1 21.95 238.35 21.8 237.6 21.7 236.8 21.7 235.95 21.7 235.2 21.8 234.45 21.95 233.85 22.15 233.2 22.35 232.65 22.65 232.1 22.95 231.65 23.4 231.2 23.8 230.85 24.35 230.55 24.85 230.3 25.4 230.05 26 229.9 26.65 229.8 27.3 229.8 28.05 229.8 28.75 229.9 29.45 230.05 30.05 230.3 30.65 230.75 31.85 231.65 32.65 232.1 33.05 232.65 33.4 233.2 33.7 233.85 33.9 235.1 34.35 236.8 34.35 237.6 34.35 238.35 34.25 239.1 34.15 239.75 33.9 240.4 33.7 240.95 33.4 241.5 33.05 241.95 32.65 242.8 31.85 243.35 30.65 243.55 30.05 243.7 29.45 243.8 28.75 243.8 28.05 243.8 27.3 243.7 26.65
M 240.35 26.7
Q 240.6 27.3 240.6 28.05 240.6 28.8 240.35 29.4 240.05 29.95 239.6 30.35 239.05 30.8 238.4 31 237.7 31.25 236.85 31.25 235.95 31.25 235.25 31 234.55 30.8 234.05 30.35 233.55 29.95 233.3 29.4 233.05 28.8 233.05 28.05 233.05 27.3 233.3 26.7 233.55 26.1 234.05 25.65 235.05 24.85 236.85 24.85 237.7 24.85 238.4 25.05 239.05 25.25 239.6 25.65 240.05 26.1 240.35 26.7
M 247.9 21.55
Q 247.75 21.85 247.75 22.2
L 247.75 33.3
Q 247.75 33.5 247.8 33.65 247.85 33.8 247.95 33.95 248.05 34.1 248.15 34.2 248.3 34.3 248.45 34.35 248.5 34.45 248.65 34.5 248.85 34.55 249.05 34.55 249.2 34.6 249.35 34.6 249.55 34.65 249.7 34.65 250.3 34.65 250.8 34.35 251.05 34.2 251.15 33.95 251.25 33.7 251.25 33.3
L 251.25 29.45 254.35 29.45
Q 254.75 29.45 255 29.35 255.25 29.2 255.35 29 255.5 28.75 255.55 28.5 255.6 28.2 255.6 27.9 255.6 27.6 255.55 27.3 255.5 27 255.35 26.75 255.1 26.3 254.35 26.3
L 251.25 26.3 251.25 22.2
Q 251.25 21.8 251.15 21.55 251.05 21.3 250.8 21.15 250.55 21.05 250.3 20.95 250 20.9 249.7 20.9 248.95 20.9 248.35 21.2 248.05 21.35 247.9 21.55
M 278.05 22.2
Q 278.05 21.8 277.9 21.55 277.75 21.3 277.5 21.15 277.2 21.05 276.9 20.95 276.6 20.9 276.35 20.9 275.95 20.9 275.65 20.95 275.3 21.05 275.05 21.15 274.75 21.3 274.6 21.55 274.45 21.8 274.45 22.2
L 274.45 48.05
Q 274.45 48.4 274.6 48.65 274.75 48.9 275.05 49 275.3 49.15 275.65 49.25 275.95 49.3 276.35 49.3 276.9 49.3 277.5 49 278.05 48.75 278.05 48.05
L 278.05 34.45 281.35 34.45
Q 281.7 34.45 281.95 34.35 282.2 34.25 282.35 34 282.45 33.75 282.5 33.5 282.55 33.2 282.55 32.9 282.55 32.55 282.5 32.3 282.45 32 282.35 31.75 282.05 31.3 281.35 31.3
L 278.05 31.3 278.05 22.2
M 264.9 23.3
Q 264.15 23.15 263.35 23.15 261.8 23.15 260.55 23.75 259.25 24.4 258.3 25.55 257.4 26.8 256.95 28.45 256.75 29.3 256.6 30.25 256.5 31.2 256.5 32.25 256.5 33.35 256.6 34.25 256.75 35.25 256.95 36.05 257.2 36.9 257.5 37.6 257.85 38.35 258.3 38.9 258.8 39.5 259.35 39.95 259.9 40.4 260.55 40.65 261.8 41.3 263.35 41.3 264.15 41.3 264.9 41.15 265.6 41 266.3 40.65 266.9 40.4 267.45 39.95 267.95 39.5 268.35 38.9 268.85 38.35 269.2 37.6 269.55 36.9 269.8 36.05 270.05 35.25 270.15 34.25 270.3 33.35 270.3 32.25 270.3 31.2 270.15 30.25 270.05 29.3 269.8 28.45 269.3 26.8 268.35 25.55 267.95 24.95 267.45 24.55 266.9 24.1 266.3 23.75 265.6 23.45 264.9 23.3
M 260.75 27.85
Q 261.2 27.05 261.9 26.65 262.55 26.3 263.35 26.3 264.25 26.3 264.9 26.65 265.55 27.05 266.05 27.85 266.5 28.65 266.75 29.75 266.95 30.85 266.95 32.25 266.95 33.65 266.75 34.75 266.5 35.85 266.05 36.6 265.55 37.4 264.9 37.75 264.25 38.15 263.35 38.15 262.55 38.15 261.9 37.75 261.2 37.4 260.75 36.6 260.2 35.85 259.95 34.75 259.7 33.65 259.7 32.25 259.7 30.85 259.95 29.75 260.2 28.65 260.75 27.85
M 290.2 41.6
Q 289.6 41.6 289.15 41.7 288.7 41.85 288.35 42.05 288 42.25 287.8 42.65 287.6 43.05 287.6 43.6
L 287.6 43.8
Q 287.6 44.1 287.6 44.35 287.6 44.6 287.65 44.8 287.65 45.05 287.65 45.3 287.65 45.55 287.65 45.8 287.65 46.35 287.85 46.8 288.1 47.25 288.5 47.6 288.9 47.95 289.4 48.2 289.9 48.45 290.55 48.65 291.15 48.8 291.8 48.95 292.45 49.05 293.2 49.15 293.9 49.2 294.55 49.25 295.2 49.3 295.8 49.3 297.4 49.3 298.85 49.1 299.55 49 300.2 48.9 300.8 48.8 301.4 48.7 302.65 48.45 303.8 48.15 304.3 48.05 304.6 47.65 304.75 47.4 304.85 47.2 304.9 46.95 304.9 46.75 304.9 46.2 304.55 45.85 304.4 45.7 304.15 45.6 303.9 45.55 303.6 45.55 303.4 45.55 303.25 45.55 303.05 45.55 302.8 45.6 302.35 45.75 301.85 45.85 301.3 45.95 300.8 46.1 300.3 46.15 299.75 46.25 299.25 46.35 298.6 46.4 298 46.5 297.3 46.5 296.65 46.55 295.9 46.55 295.35 46.55 294.75 46.5 294.2 46.5 293.6 46.45 292.35 46.25 291.35 45.9 291.3 45.75 291.25 45.55 291.25 45.35 291.25 45.1
L 291.25 44.95
Q 291.25 44.85 291.25 44.8 291.25 44.7 291.25 44.6 291.25 44.55 291.3 44.45 291.3 44.4 291.35 44.3
L 301.45 44.3
Q 301.8 44.3 302.1 44.3 302.35 44.25 302.65 44.2 302.85 44.15 303.1 44.05 303.35 43.95 303.6 43.8 303.75 43.7 303.9 43.5 304.05 43.35 304.2 43.1 304.3 42.85 304.35 42.55 304.4 42.25 304.4 41.9
L 304.5 41.9
Q 304.5 40.8 304.4 39.95 304.35 39.5 304.25 39.15 304.15 38.85 304 38.55 303.75 38.05 303.2 37.75 302.9 37.6 302.45 37.55 302.05 37.45 301.45 37.45
L 289.05 37.45
Q 288.7 37.45 288.4 37.6 288.15 37.7 288 37.9 287.75 38.1 287.65 38.4 287.55 38.65 287.55 39 287.55 39.65 287.9 39.95 288.3 40.25 289.05 40.25
L 300.85 40.25
Q 300.95 40.4 301 40.55 301 40.65 301 40.8
L 301 41.05
Q 301 41.25 301 41.4 300.95 41.5 300.85 41.6
L 290.2 41.6
M 312.65 23.55
Q 312.35 23.55 312.1 23.7 311.85 23.8 311.7 24.05 311.5 24.3 311.45 24.55 311.35 24.85 311.35 25.2 311.35 25.5 311.45 25.75 311.55 26 311.7 26.2 311.9 26.45 312.15 26.55 312.35 26.65 312.65 26.65
L 315.1 26.65
Q 315.1 26.75 315.1 26.85 315.1 26.9 315.15 26.95 315.15 27.05 315.15 27.15 315.15 27.2 315.15 27.25 315.15 27.4 315.15 27.5 315.15 27.55 315.15 27.65 315.1 27.75 315.1 27.9 315.1 28 315.1 28.1 315 28.75 314.95 29.35 314.85 30 314.75 30.6 314.65 31.25 314.5 31.85 314.35 32.45 314.15 33.05 313.95 33.55 313.65 34.1 313.4 34.6 313.1 35.05 312.8 35.55 312.45 36 312.1 36.45 311.7 36.8 311.25 37.25 311.25 37.8 311.25 38.1 311.35 38.35 311.45 38.6 311.7 38.8 311.8 39 311.95 39.1 312.1 39.25 312.2 39.3 312.35 39.35 312.5 39.35 312.7 39.4 312.85 39.4 313.05 39.4 313.25 39.35 313.4 39.35 313.55 39.25 314.25 38.75 314.85 38.15 315.45 37.45 315.95 36.65 316.45 35.8 316.8 34.95 317.2 34.05 317.45 33.1 317.75 32.15 318 31.2 318.2 30.25 318.35 29.3 318.4 28.35 318.5 27.5 318.55 26.65 318.55 25.85 318.55 25.3 318.45 24.85 318.35 24.45 318.1 24.15 317.9 24 317.7 23.9 317.5 23.8 317.2 23.7 316.9 23.65 316.55 23.6 316.2 23.55 315.75 23.55
L 312.65 23.55
M 304.3 22
Q 304.2 21.9 304.05 21.8 303.8 21.7 303.5 21.65 303.35 21.6 303.15 21.6 303 21.55 302.85 21.55 302.6 21.55 302.35 21.65 302.05 21.7 301.75 21.8 301.45 21.95 301.3 22.2 301.15 22.45 301.15 22.8
L 301.15 23.7 290.8 23.7 290.8 22.8
Q 290.8 22.65 290.75 22.5 290.7 22.35 290.6 22.2 290.5 22.1 290.4 22 290.3 21.9 290.15 21.8 289.95 21.7 289.6 21.65 289.45 21.6 289.3 21.6 289.1 21.55 289 21.55 288.7 21.55 288.45 21.65 288.15 21.7 287.85 21.8 287.55 21.95 287.4 22.2 287.25 22.45 287.25 22.8
L 287.25 27.5
Q 287.25 28.35 287.4 28.95 287.55 29.55 287.85 29.9 288.1 30.3 288.5 30.6 288.85 30.85 289.3 30.95 290.15 31.2 291 31.35 291.8 31.5 292.6 31.6 293.05 31.7 293.45 31.75 293.85 31.75 294.25 31.75
L 294.25 33.05 283.9 33.05
Q 283.6 33.05 283.35 33.2 283.1 33.3 282.95 33.5 282.8 33.75 282.75 34.05 282.65 34.35 282.65 34.65 282.65 34.95 282.75 35.25 282.8 35.5 282.95 35.7 283.1 35.95 283.35 36.1 283.6 36.2 283.9 36.2
L 308.1 36.2
Q 308.5 36.2 308.75 36.1 309 35.95 309.2 35.7 309.3 35.5 309.4 35.25 309.5 34.95 309.5 34.65 309.5 34.35 309.4 34.05 309.3 33.75 309.2 33.5 308.85 33.05 308.1 33.05
L 297.85 33.05 297.85 31.75
Q 298.25 31.75 298.65 31.7 299 31.65 299.45 31.55 300.3 31.45 301.1 31.3 301.95 31.15 302.7 30.95 303.15 30.9 303.55 30.65 303.95 30.4 304.2 30.05 304.75 29.3 304.75 27.85
L 304.75 22.8
Q 304.75 22.65 304.65 22.5 304.6 22.35 304.55 22.2 304.4 22.1 304.3 22
M 299.9 28.2
Q 299.55 28.3 299.1 28.35 298.7 28.45 298.25 28.45 297.75 28.55 297.15 28.55 296.5 28.6 295.8 28.6 295.2 28.6 294.65 28.55 294.05 28.55 293.4 28.45 292.75 28.35 292.15 28.25 291.5 28.15 290.9 27.95 290.85 27.85 290.85 27.8 290.85 27.7 290.85 27.6 290.85 27.5 290.8 27.45 290.8 27.35 290.8 27.25
L 290.8 26.55 301.15 26.55 301.15 27.75 301.05 27.85
Q 300.95 27.9 300.8 27.95 300.45 28.15 299.9 28.2
M 329.35 21.65
Q 329.25 21.9 329.25 22.3
L 329.25 48.05
Q 329.25 48.4 329.35 48.65 329.5 48.9 329.7 49.05 329.9 49.15 330.2 49.25 330.45 49.3 330.85 49.3 331.2 49.3 331.5 49.25 331.8 49.15 332.05 49.05 332.3 48.9 332.4 48.65 332.55 48.4 332.55 48.05
L 332.55 34.45 335.45 34.45
Q 335.8 34.45 336.1 34.3 336.35 34.2 336.55 33.95 336.7 33.7 336.8 33.4 336.9 33.15 336.9 32.8 336.9 32.5 336.8 32.2 336.7 31.95 336.55 31.7 336.2 31.25 335.45 31.25
L 332.55 31.25 332.55 22.3
Q 332.55 21.9 332.4 21.65 332.3 21.4 332.05 21.25 331.8 21.15 331.5 21.05 331.2 21 330.85 21 330.45 21 330.2 21.05 329.9 21.15 329.7 21.25 329.5 21.4 329.35 21.65
M 324.9 23.7
Q 324.6 23.65 324.2 23.6 323.85 23.55 323.35 23.55
L 320.65 23.55
Q 320.3 23.55 320.05 23.65 319.85 23.75 319.7 24 319.55 24.25 319.5 24.5 319.4 24.8 319.4 25.05 319.4 25.35 319.45 25.65 319.55 25.95 319.7 26.2 319.9 26.75 320.65 26.75
L 322.5 26.75
Q 322.55 27.2 322.55 27.6 322.55 27.75 322.55 27.8 322.55 27.85 322.55 27.95 322.55 28 322.55 28.1 322.55 28.15 322.55 28.2 322.45 28.95 322.35 29.75 322.3 30.5 322.15 31.25 322.05 32 321.85 32.7 321.7 33.45 321.5 34.1 321.2 34.85 320.9 35.5 320.6 36.2 320.3 36.8 319.95 37.4 319.55 37.95 319.15 38.5 318.7 39 318.6 39.2 318.55 39.35 318.5 39.5 318.5 39.7 318.5 40.1 318.65 40.45 318.8 40.75 319.1 41 319.45 41.25 319.75 41.35 320.1 41.45 320.45 41.45 320.7 41.45 320.9 41.35 321.1 41.3 321.25 41.05 321.9 40.4 322.45 39.6 323 38.85 323.5 37.95 323.95 37.1 324.35 36.2 324.75 35.3 325 34.3 325.35 33.3 325.6 32.3 325.8 31.25 325.95 30.2 326.05 29.2 326.1 28.15 326.2 27.1 326.2 26.05 326.2 25.75 326.15 25.5 326.15 25.25 326.1 25 326.05 24.75 325.95 24.55 325.85 24.35 325.75 24.2 325.6 24.05 325.4 23.9 325.15 23.8 324.9 23.7
M 346.45 23.2
Q 345.6 23.45 344.9 23.8 344.2 24.2 343.6 24.65 343 25.1 342.55 25.7 342.1 26.25 341.75 26.9 341.4 27.6 341.25 28.35 341.1 29.05 341.1 29.9 341.1 30.55 341.2 31.2 341.35 31.8 341.6 32.4 341.8 33 342.15 33.55 342.45 34.1 342.95 34.55 343.35 34.95 343.8 35.3 344.25 35.65 344.75 35.9 344.65 36.05 344.6 36.25 344.55 36.45 344.55 36.65
L 344.55 41.25 338.25 41.25
Q 337.85 41.25 337.55 41.35 337.3 41.5 337.15 41.7 337 41.95 336.95 42.25 336.85 42.55 336.85 42.85 336.85 43.2 336.95 43.45 337 43.7 337.15 43.95 337.3 44.2 337.55 44.3 337.85 44.4 338.25 44.4
L 361.8 44.4
Q 362.3 44.4 362.55 44.3 362.85 44.2 362.95 43.95 363.1 43.7 363.15 43.45 363.2 43.2 363.2 42.85 363.2 42.55 363.15 42.25 363.1 41.95 362.95 41.7 362.85 41.5 362.55 41.35 362.3 41.25 361.8 41.25
L 355.85 41.25 355.85 36.65
Q 355.85 36.35 355.75 36.1 355.7 35.9 355.55 35.75 355.8 35.6 356.05 35.45 356.35 35.3 356.6 35.1 357.85 34.15 358.45 32.85 359.1 31.55 359.1 29.9 359.1 28.25 358.45 26.9 358.15 26.25 357.65 25.7 357.2 25.1 356.6 24.65 356 24.2 355.25 23.8 354.5 23.45 353.7 23.2 352.85 22.95 351.95 22.8 351.05 22.7 350.1 22.7 349.05 22.7 348.15 22.8 347.25 22.95 346.45 23.2
M 355.15 28.25
Q 355.45 29 355.45 29.9 355.45 31.75 354.1 32.75 353.4 33.3 352.4 33.55 351.4 33.85 350.1 33.85 348.8 33.85 347.8 33.55 346.8 33.3 346.1 32.75 344.65 31.75 344.65 29.9 344.65 29 345 28.25 345.35 27.55 346.1 26.95 346.8 26.45 347.8 26.15 348.8 25.9 350.1 25.9 351.4 25.9 352.4 26.15 353.4 26.45 354.1 26.95 354.8 27.55 355.15 28.25
M 347.95 36.95
Q 348.5 37.05 349 37.05 349.25 37.05 349.55 37.05 349.8 37.1 350.15 37.1 350.65 37.05 351.15 37 351.65 36.95 352.1 36.9 352.2 36.9 352.3 36.9 352.4 36.85 352.55 36.85
L 352.55 41.25 347.95 41.25 347.95 36.95 Z"/>
</g>

<path id="Layer0_0_1_STROKES" stroke="#569ECC" stroke-width="5" stroke-linejoin="round" stroke-linecap="round" fill="none" d="
M 396.85 4.95
L 879 4.95
Q 889.35 4.95 896.65 12.25 904 19.6 904 29.95
L 904 422.1
Q 904 432.5 896.65 439.75 889.4 447.1 879 447.1
L 30 447.1
Q 19.65 447.1 12.3 439.75 5 432.45 5 422.1
L 5 29.95
Q 5 19.65 12.3 12.25 19.7 4.95 30 4.95
L 52.75 4.95 396.85 4.95 Z"/>
</defs>

<g transform="matrix( 1, 0, 0, 1, 0,0) ">
<use xlink:href="#Layer0_0_FILL"/>

<use xlink:href="#Layer0_0_1_STROKES"/>
</g>

<g transform="matrix( 1, 0, 0, 1, 0,0) ">
<use xlink:href="#Layer0_1_FILL"/>
</g>
</svg>
