<?xml version="1.0" encoding="utf-8"?>
<!-- Generator: Adobe Illustrator 23.0.0, SVG Export Plug-In . SVG Version: 6.00 Build 0)  -->
<svg version="1.1" id="레이어_1" xmlns="http://www.w3.org/2000/svg" xmlns:xlink="http://www.w3.org/1999/xlink" x="0px"
	 y="0px" width="1135.6px" height="340px" viewBox="0 0 1135.6 340" style="enable-background:new 0 0 1135.6 340;"
	 xml:space="preserve">
<title>3_2_12_01</title>
<g id="레이어_2_1_">
	<g id="활동3-4-3">
		<g>
			<g>
				<g>
					<g>
						<path style="fill:#81BAE4;" d="M91.7,214.6c-0.6-1.1-1.8-1.7-3-1.7H5.9c-2,0-3.6,1.6-3.6,3.6v0.1v41c0,0.8,0.3,1.6,0.8,2.3
							c0.7,0.8,1.7,1.4,2.8,1.4h82.8c2-0.1,3.6-1.7,3.6-3.7v-41C92.3,215.9,92.1,215.2,91.7,214.6"/>
						<path style="fill:#ACCFEC;" d="M87.7,217.1c0.7,0.6,1.2,1.4,1.2,2.3v35.5c-0.1,1.8-1.6,3.2-3.4,3.1H9.3
							c-0.6,0-1.3-0.2-1.8-0.5l-2.9,1.2c0.7,0.8,1.6,1.3,2.7,1.3h80.2c1.9,0,3.5-1.6,3.5-3.5l0,0v-38.6c0-0.7-0.2-1.3-0.5-1.9
							L87.7,217.1z"/>
						<path style="fill:#D1E4F4;" d="M87.7,217.1c-0.6-0.5-1.4-0.8-2.2-0.8H9.3c-1.8-0.1-3.3,1.3-3.4,3.1v35.5
							c0,1.1,0.6,2.1,1.6,2.6c0.5,0.3,1.2,0.5,1.8,0.5h76.2c1.8,0.1,3.3-1.3,3.4-3.1v-35.5C88.9,218.4,88.4,217.6,87.7,217.1"/>
						<path style="fill:#F8FAFD;" d="M5.9,254.9v-35.5c0.1-1.8,1.6-3.2,3.4-3.1h76.2c0.8,0,1.6,0.3,2.2,0.8l2.8-1.1
							c-0.6-1-1.8-1.7-3-1.7H7.3c-1.9,0.1-3.5,1.7-3.5,3.6v38.6c0,0.8,0.3,1.6,0.8,2.2l2.9-1.2C6.5,256.9,5.9,255.9,5.9,254.9"/>
						<path style="fill:#D5BF91;" d="M148.5,214.6c-0.7-1-1.8-1.7-3.1-1.7H95.8c-2,0-3.6,1.6-3.6,3.6v0.1v41c0,0.8,0.3,1.6,0.8,2.3
							c0.7,0.8,1.7,1.4,2.8,1.4h49.6c2-0.1,3.6-1.7,3.6-3.7v-41C149,216,148.8,215.3,148.5,214.6"/>
						<path style="fill:#E1D2B2;" d="M144.5,217.1c0.7,0.6,1.2,1.4,1.2,2.3v35.5c-0.1,1.8-1.6,3.2-3.4,3.1H99.2
							c-0.6,0-1.2-0.2-1.7-0.5l-3,1.2c0.7,0.9,1.7,1.3,2.8,1.3h46.9c1.9,0.1,3.5-1.5,3.6-3.4v-0.1v-38.6c0-0.7-0.2-1.3-0.6-1.9
							L144.5,217.1z"/>
						<path style="fill:#FFFFFF;" d="M144.5,217.1c-0.6-0.5-1.4-0.8-2.2-0.8H99.2c-1.8-0.1-3.2,1.3-3.3,3.1l0,0v35.5
							c0,1.1,0.6,2.1,1.6,2.6c0.5,0.3,1.1,0.5,1.7,0.5h43.1c1.8,0.1,3.3-1.3,3.4-3.1v-35.5C145.7,218.4,145.2,217.6,144.5,217.1"/>
						<path style="fill:#FCFBF8;" d="M95.9,254.9v-35.5c0.1-1.8,1.5-3.2,3.3-3.1l0,0h43.1c0.8,0,1.6,0.3,2.2,0.8l2.7-1.1
							c-0.6-1.1-1.8-1.7-3-1.7H97.3c-2,0-3.6,1.6-3.6,3.6l0,0v38.6c0,0.8,0.3,1.6,0.8,2.2l3-1.2C96.5,257,95.9,255.9,95.9,254.9"/>
						<path style="fill:#81BAE4;" d="M238.4,214.6c-0.6-1-1.8-1.7-3-1.7h-82.8c-2,0-3.6,1.6-3.6,3.6v0.1v41c0,0.8,0.3,1.6,0.8,2.3
							c0.7,0.9,1.7,1.4,2.8,1.4h82.8c2-0.1,3.6-1.7,3.6-3.7v-41C239,215.9,238.8,215.2,238.4,214.6"/>
						<path style="fill:#ACCFEC;" d="M234.4,217.1c0.7,0.6,1.2,1.4,1.2,2.3v35.5c-0.1,1.8-1.6,3.2-3.4,3.1H156
							c-0.6,0-1.3-0.2-1.8-0.5l-2.9,1.2c0.7,0.8,1.6,1.3,2.7,1.3h80.2c1.9,0,3.5-1.6,3.5-3.5l0,0v-38.6c0-0.7-0.2-1.3-0.5-1.9
							L234.4,217.1z"/>
						<path style="fill:#D1E4F4;" d="M234.4,217.1c-0.6-0.5-1.4-0.8-2.2-0.8H156c-1.8-0.1-3.3,1.3-3.4,3.1v35.5
							c0,1.1,0.6,2.1,1.6,2.6c0.5,0.3,1.2,0.5,1.8,0.5h76.2c1.8,0.1,3.3-1.3,3.4-3.1v-35.5C235.6,218.4,235.1,217.6,234.4,217.1"/>
						<path style="fill:#F8FAFD;" d="M152.6,254.9v-35.5c0.1-1.8,1.6-3.2,3.4-3.1h76.2c0.8,0,1.6,0.3,2.2,0.8l2.8-1.1
							c-0.6-1-1.8-1.7-3-1.7H154c-1.9,0.1-3.5,1.7-3.5,3.6v38.6c0,0.8,0.3,1.6,0.8,2.2l2.9-1.2C153.2,256.9,152.6,255.9,152.6,254.9
							"/>
					</g>
				</g>
			</g>
		</g>
	</g>
</g>
</svg>
