<?xml version="1.0" encoding="utf-8"?>
<!-- Generator: Adobe Illustrator 23.0.0, SVG Export Plug-In . SVG Version: 6.00 Build 0)  -->
<svg version="1.1" id="레이어_1" xmlns="http://www.w3.org/2000/svg" xmlns:xlink="http://www.w3.org/1999/xlink" x="0px"
	 y="0px" width="1135.6px" height="340px" viewBox="0 0 1135.6 340" style="enable-background:new 0 0 1135.6 340;"
	 xml:space="preserve">
<title>3_2_12_01</title>
<g id="레이어_2_1_">
	<g id="활동3-4-3">
		<g>
			<g>
				<g>
					<g>
						<path style="fill:#B7365C;" d="M91.9,176.2c-0.6-1.1-1.8-1.8-3.1-1.8H6.1c-2,0.1-3.6,1.7-3.6,3.7v41c0,0.8,0.3,1.6,0.8,2.3
							c0.7,0.9,1.7,1.4,2.8,1.4h82.7c2-0.1,3.6-1.7,3.7-3.7v-41C92.5,177.5,92.3,176.8,91.9,176.2"/>
						<path style="fill:#C87683;" d="M87.9,178.6c0.7,0.6,1.2,1.5,1.2,2.4v35.4c-0.1,1.8-1.6,3.2-3.4,3.1H9.5
							c-0.6,0-1.3-0.2-1.8-0.5l-3,1.2c0.7,0.8,1.7,1.4,2.8,1.4h80.2c1.9-0.1,3.5-1.7,3.5-3.6v-38.6c0-0.7-0.2-1.3-0.5-1.9
							L87.9,178.6z"/>
						<path style="fill:#DFB3B7;" d="M87.9,178.6c-0.6-0.5-1.4-0.7-2.2-0.7H9.5c-1.8-0.1-3.3,1.3-3.4,3.1v35.4
							c0,1.1,0.6,2.1,1.6,2.6c0.5,0.3,1.2,0.5,1.8,0.5h76.2c1.8,0.1,3.3-1.3,3.4-3.1V181C89.1,180,88.6,179.1,87.9,178.6"/>
						<path style="fill:#F9F2F3;" d="M6.1,216.4V181c0.1-1.8,1.6-3.2,3.4-3.1h76.2c0.8,0,1.6,0.2,2.2,0.7l2.8-1.1
							c-0.7-1-1.8-1.6-3-1.7H7.5c-1.9,0-3.5,1.6-3.5,3.5v0.1V218c0,0.8,0.2,1.6,0.7,2.2l3-1.2C6.7,218.5,6.1,217.4,6.1,216.4"/>
					</g>
				</g>
			</g>
		</g>
	</g>
</g>
</svg>
