
<svg xmlns="http://www.w3.org/2000/svg" version="1.1" xmlns:xlink="http://www.w3.org/1999/xlink" preserveAspectRatio="none" x="0px" y="0px" width="1280px" height="1050px" viewBox="0 0 1280 1050">
<defs>
<g id="fdbd454545xv_0_Layer0_0_FILL">
<path fill="#000000" stroke="none" d="
M 4.9 -28.3
Q 5.4 -28.3 5.4 -27.65
L 5.4 -16.35
Q 5.4 -15.45 6.2 -15.45
L 9.75 -15.45
Q 10.4 -15.45 10.4 -16.35
L 10.4 -30.05
Q 10.4 -31 10.3 -31.7 10.2 -32.35 9.9 -32.75 9.65 -33.15 9.15 -33.3 8.7 -33.45 7.9 -33.45
L -9 -33.45
Q -9.25 -33.45 -9.5 -33.35 -9.7 -33.25 -9.7 -32.6
L -9.7 -29.1
Q -9.7 -28.6 -9.5 -28.45 -9.25 -28.3 -9 -28.3
L 4.9 -28.3 Z"/>
</g>

<g id="fdbd454545xv_1_Layer0_0_FILL">
<path fill="#000000" stroke="none" d="
M 9.7 -15.9
Q 9.95 -15.9 10.2 -16 10.45 -16.1 10.45 -16.7
L 10.45 -20.25
Q 10.45 -20.7 10.2 -20.9 9.95 -21.05 9.7 -21.05
L -4.25 -21.05
Q -4.75 -21.05 -4.75 -21.7
L -4.75 -32.75
Q -4.75 -33.7 -5.55 -33.7
L -9.05 -33.7
Q -9.8 -33.7 -9.8 -32.75
L -9.8 -19.15
Q -9.8 -18.2 -9.7 -17.55 -9.55 -16.95 -9.3 -16.6 -9.05 -16.25 -8.55 -16.05 -8.05 -15.9 -7.3 -15.9
L 9.7 -15.9 Z"/>
</g>

<g id="fdbd454545xv_2_Layer0_0_FILL">
<path fill="#000000" stroke="none" d="
M 9.85 -15.4
Q 10.25 -15.4 10.35 -15.55 10.5 -15.7 10.5 -16.35
L 10.5 -19.7
Q 10.5 -20.55 9.7 -20.55
L -4.5 -20.55
Q -4.85 -20.55 -4.85 -21.1
L -4.85 -27.7
Q -4.85 -28.2 -4.45 -28.2
L 9.15 -28.2
Q 9.85 -28.2 9.85 -29.1
L 9.85 -32.4
Q 9.85 -33.3 9.15 -33.3
L -7.15 -33.3
Q -8.6 -33.3 -9.25 -32.75 -9.85 -32.25 -9.85 -30.25
L -9.85 -18.75
Q -9.85 -16.9 -9.3 -16.15 -8.8 -15.4 -7.15 -15.4
L 9.85 -15.4 Z"/>
</g>

<g id="fdbdfnd4647_1_Layer0_0_STROKES_1_FILL">
<path fill="#666666" stroke="none" d="
M -139.25 -191
Q -139.6607421875 -190.996484375 -139.95 -190.7 -140.246484375 -190.4107421875 -140.25 -190 -140.246484375 -189.5892578125 -139.95 -189.3 -139.6607421875 -189.003515625 -139.25 -189
L -136.25 -189
Q -135.8392578125 -189.003515625 -135.55 -189.3 -135.253515625 -189.5892578125 -135.25 -190 -135.253515625 -190.4107421875 -135.55 -190.7 -135.8392578125 -190.996484375 -136.25 -191
L -139.25 -191
M -125.95 -190.7
Q -126.246484375 -190.4107421875 -126.25 -190 -126.246484375 -189.5892578125 -125.95 -189.3 -125.6607421875 -189.003515625 -125.25 -189
L -122.25 -189
Q -121.8392578125 -189.003515625 -121.55 -189.3 -121.253515625 -189.5892578125 -121.25 -190 -121.253515625 -190.4107421875 -121.55 -190.7 -121.8392578125 -190.996484375 -122.25 -191
L -125.25 -191
Q -125.6607421875 -190.996484375 -125.95 -190.7
M -128.55 -190.7
Q -128.8392578125 -190.996484375 -129.25 -191
L -132.25 -191
Q -132.6607421875 -190.996484375 -132.95 -190.7 -133.246484375 -190.4107421875 -133.25 -190 -133.246484375 -189.5892578125 -132.95 -189.3 -132.6607421875 -189.003515625 -132.25 -189
L -129.25 -189
Q -128.8392578125 -189.003515625 -128.55 -189.3 -128.253515625 -189.5892578125 -128.25 -190 -128.253515625 -190.4107421875 -128.55 -190.7
M -118.25 -191
Q -118.6607421875 -190.996484375 -118.95 -190.7 -119.246484375 -190.4107421875 -119.25 -190 -119.246484375 -189.5892578125 -118.95 -189.3 -118.6607421875 -189.003515625 -118.25 -189
L -115.25 -189
Q -114.8392578125 -189.003515625 -114.55 -189.3 -114.253515625 -189.5892578125 -114.25 -190 -114.253515625 -190.4107421875 -114.55 -190.7 -114.8392578125 -190.996484375 -115.25 -191
L -118.25 -191
M -108.25 -191
L -111.25 -191
Q -111.6607421875 -190.996484375 -111.95 -190.7 -112.246484375 -190.4107421875 -112.25 -190 -112.246484375 -189.5892578125 -111.95 -189.3 -111.6607421875 -189.003515625 -111.25 -189
L -108.25 -189
Q -107.8392578125 -189.003515625 -107.55 -189.3 -107.253515625 -189.5892578125 -107.25 -190 -107.253515625 -190.4107421875 -107.55 -190.7 -107.8392578125 -190.996484375 -108.25 -191
M -100.25 -190
Q -100.253515625 -190.4107421875 -100.55 -190.7 -100.8392578125 -190.996484375 -101.25 -191
L -104.25 -191
Q -104.6607421875 -190.996484375 -104.95 -190.7 -105.246484375 -190.4107421875 -105.25 -190 -105.246484375 -189.5892578125 -104.95 -189.3 -104.6607421875 -189.003515625 -104.25 -189
L -101.25 -189
Q -100.8392578125 -189.003515625 -100.55 -189.3 -100.253515625 -189.5892578125 -100.25 -190
M -97.95 -189.3
Q -97.6607421875 -189.003515625 -97.25 -189
L -94.25 -189
Q -93.8392578125 -189.003515625 -93.55 -189.3 -93.253515625 -189.5892578125 -93.25 -190 -93.253515625 -190.4107421875 -93.55 -190.7 -93.8392578125 -190.996484375 -94.25 -191
L -97.25 -191
Q -97.6607421875 -190.996484375 -97.95 -190.7 -98.246484375 -190.4107421875 -98.25 -190 -98.246484375 -189.5892578125 -97.95 -189.3
M -86.55 -190.7
Q -86.8392578125 -190.996484375 -87.25 -191
L -90.25 -191
Q -90.6607421875 -190.996484375 -90.95 -190.7 -91.246484375 -190.4107421875 -91.25 -190 -91.246484375 -189.5892578125 -90.95 -189.3 -90.6607421875 -189.003515625 -90.25 -189
L -87.25 -189
Q -86.8392578125 -189.003515625 -86.55 -189.3 -86.253515625 -189.5892578125 -86.25 -190 -86.253515625 -190.4107421875 -86.55 -190.7
M -76.25 -191
Q -76.6607421875 -190.996484375 -76.95 -190.7 -77.246484375 -190.4107421875 -77.25 -190 -77.246484375 -189.5892578125 -76.95 -189.3 -76.6607421875 -189.003515625 -76.25 -189
L -73.25 -189
Q -72.8392578125 -189.003515625 -72.55 -189.3 -72.253515625 -189.5892578125 -72.25 -190 -72.253515625 -190.4107421875 -72.55 -190.7 -72.8392578125 -190.996484375 -73.25 -191
L -76.25 -191
M -79.55 -190.7
Q -79.8392578125 -190.996484375 -80.25 -191
L -83.25 -191
Q -83.6607421875 -190.996484375 -83.95 -190.7 -84.246484375 -190.4107421875 -84.25 -190 -84.246484375 -189.5892578125 -83.95 -189.3 -83.6607421875 -189.003515625 -83.25 -189
L -80.25 -189
Q -79.8392578125 -189.003515625 -79.55 -189.3 -79.253515625 -189.5892578125 -79.25 -190 -79.253515625 -190.4107421875 -79.55 -190.7
M -69.95 -189.3
Q -69.6607421875 -189.003515625 -69.25 -189
L -66.25 -189
Q -65.8392578125 -189.003515625 -65.55 -189.3 -65.253515625 -189.5892578125 -65.25 -190 -65.253515625 -190.4107421875 -65.55 -190.7 -65.8392578125 -190.996484375 -66.25 -191
L -69.25 -191
Q -69.6607421875 -190.996484375 -69.95 -190.7 -70.246484375 -190.4107421875 -70.25 -190 -70.246484375 -189.5892578125 -69.95 -189.3
M -58.25 -190
Q -58.253515625 -190.4107421875 -58.55 -190.7 -58.8392578125 -190.996484375 -59.25 -191
L -62.25 -191
Q -62.6607421875 -190.996484375 -62.95 -190.7 -63.246484375 -190.4107421875 -63.25 -190 -63.246484375 -189.5892578125 -62.95 -189.3 -62.6607421875 -189.003515625 -62.25 -189
L -59.25 -189
Q -58.8392578125 -189.003515625 -58.55 -189.3 -58.253515625 -189.5892578125 -58.25 -190
M -56.25 -190
Q -56.246484375 -189.5892578125 -55.95 -189.3 -55.6607421875 -189.003515625 -55.25 -189
L -52.25 -189
Q -51.8392578125 -189.003515625 -51.55 -189.3 -51.253515625 -189.5892578125 -51.25 -190 -51.253515625 -190.4107421875 -51.55 -190.7 -51.8392578125 -190.996484375 -52.25 -191
L -55.25 -191
Q -55.6607421875 -190.996484375 -55.95 -190.7 -56.246484375 -190.4107421875 -56.25 -190
M -48.25 -191
Q -48.6607421875 -190.996484375 -48.95 -190.7 -49.246484375 -190.4107421875 -49.25 -190 -49.246484375 -189.5892578125 -48.95 -189.3 -48.6607421875 -189.003515625 -48.25 -189
L -45.25 -189
Q -44.8392578125 -189.003515625 -44.55 -189.3 -44.253515625 -189.5892578125 -44.25 -190 -44.253515625 -190.4107421875 -44.55 -190.7 -44.8392578125 -190.996484375 -45.25 -191
L -48.25 -191
M -34.95 -190.7
Q -35.246484375 -190.4107421875 -35.25 -190 -35.246484375 -189.5892578125 -34.95 -189.3 -34.6607421875 -189.003515625 -34.25 -189
L -31.25 -189
Q -30.8392578125 -189.003515625 -30.55 -189.3 -30.253515625 -189.5892578125 -30.25 -190 -30.253515625 -190.4107421875 -30.55 -190.7 -30.8392578125 -190.996484375 -31.25 -191
L -34.25 -191
Q -34.6607421875 -190.996484375 -34.95 -190.7
M -37.55 -190.7
Q -37.8392578125 -190.996484375 -38.25 -191
L -41.25 -191
Q -41.6607421875 -190.996484375 -41.95 -190.7 -42.246484375 -190.4107421875 -42.25 -190 -42.246484375 -189.5892578125 -41.95 -189.3 -41.6607421875 -189.003515625 -41.25 -189
L -38.25 -189
Q -37.8392578125 -189.003515625 -37.55 -189.3 -37.253515625 -189.5892578125 -37.25 -190 -37.253515625 -190.4107421875 -37.55 -190.7
M -27.95 -189.3
Q -27.6607421875 -189.003515625 -27.25 -189
L -24.25 -189
Q -23.8392578125 -189.003515625 -23.55 -189.3 -23.253515625 -189.5892578125 -23.25 -190 -23.253515625 -190.4107421875 -23.55 -190.7 -23.8392578125 -190.996484375 -24.25 -191
L -27.25 -191
Q -27.6607421875 -190.996484375 -27.95 -190.7 -28.246484375 -190.4107421875 -28.25 -190 -28.246484375 -189.5892578125 -27.95 -189.3
M -16.25 -190
Q -16.253515625 -190.4107421875 -16.55 -190.7 -16.8392578125 -190.996484375 -17.25 -191
L -20.25 -191
Q -20.6607421875 -190.996484375 -20.95 -190.7 -21.246484375 -190.4107421875 -21.25 -190 -21.246484375 -189.5892578125 -20.95 -189.3 -20.6607421875 -189.003515625 -20.25 -189
L -17.25 -189
Q -16.8392578125 -189.003515625 -16.55 -189.3 -16.253515625 -189.5892578125 -16.25 -190
M -6.25 -191
Q -6.6607421875 -190.996484375 -6.95 -190.7 -7.246484375 -190.4107421875 -7.25 -190 -7.246484375 -189.5892578125 -6.95 -189.3 -6.6607421875 -189.003515625 -6.25 -189
L -3.25 -189
Q -2.8392578125 -189.003515625 -2.55 -189.3 -2.253515625 -189.5892578125 -2.25 -190 -2.253515625 -190.4107421875 -2.55 -190.7 -2.8392578125 -190.996484375 -3.25 -191
L -6.25 -191
M -9.55 -189.3
Q -9.253515625 -189.5892578125 -9.25 -190 -9.253515625 -190.4107421875 -9.55 -190.7 -9.8392578125 -190.996484375 -10.25 -191
L -13.25 -191
Q -13.6607421875 -190.996484375 -13.95 -190.7 -14.246484375 -190.4107421875 -14.25 -190 -14.246484375 -189.5892578125 -13.95 -189.3 -13.6607421875 -189.003515625 -13.25 -189
L -10.25 -189
Q -9.8392578125 -189.003515625 -9.55 -189.3
M 4.45 -190.7
Q 4.1607421875 -190.996484375 3.75 -191
L 0.75 -191
Q 0.3392578125 -190.996484375 0.05 -190.7 -0.246484375 -190.4107421875 -0.25 -190 -0.246484375 -189.5892578125 0.05 -189.3 0.3392578125 -189.003515625 0.75 -189
L 3.75 -189
Q 4.1607421875 -189.003515625 4.45 -189.3 4.746484375 -189.5892578125 4.75 -190 4.746484375 -190.4107421875 4.45 -190.7
M 10.75 -189
Q 11.1607421875 -189.003515625 11.45 -189.3 11.746484375 -189.5892578125 11.75 -190 11.746484375 -190.4107421875 11.45 -190.7 11.1607421875 -190.996484375 10.75 -191
L 7.75 -191
Q 7.3392578125 -190.996484375 7.05 -190.7 6.753515625 -190.4107421875 6.75 -190 6.753515625 -189.5892578125 7.05 -189.3 7.3392578125 -189.003515625 7.75 -189
L 10.75 -189
M 14.05 -189.3
Q 14.3392578125 -189.003515625 14.75 -189
L 17.75 -189
Q 18.1607421875 -189.003515625 18.45 -189.3 18.746484375 -189.5892578125 18.75 -190 18.746484375 -190.4107421875 18.45 -190.7 18.1607421875 -190.996484375 17.75 -191
L 14.75 -191
Q 14.3392578125 -190.996484375 14.05 -190.7 13.753515625 -190.4107421875 13.75 -190 13.753515625 -189.5892578125 14.05 -189.3
M 21.05 -189.3
Q 21.3392578125 -189.003515625 21.75 -189
L 24.75 -189
Q 25.1607421875 -189.003515625 25.45 -189.3 25.746484375 -189.5892578125 25.75 -190 25.746484375 -190.4107421875 25.45 -190.7 25.1607421875 -190.996484375 24.75 -191
L 21.75 -191
Q 21.3392578125 -190.996484375 21.05 -190.7 20.753515625 -190.4107421875 20.75 -190 20.753515625 -189.5892578125 21.05 -189.3
M 35.05 -190.7
Q 34.753515625 -190.4107421875 34.75 -190 34.753515625 -189.5892578125 35.05 -189.3 35.3392578125 -189.003515625 35.75 -189
L 38.75 -189
Q 39.1607421875 -189.003515625 39.45 -189.3 39.746484375 -189.5892578125 39.75 -190 39.746484375 -190.4107421875 39.45 -190.7 39.1607421875 -190.996484375 38.75 -191
L 35.75 -191
Q 35.3392578125 -190.996484375 35.05 -190.7
M 32.45 -190.7
Q 32.1607421875 -190.996484375 31.75 -191
L 28.75 -191
Q 28.3392578125 -190.996484375 28.05 -190.7 27.753515625 -190.4107421875 27.75 -190 27.753515625 -189.5892578125 28.05 -189.3 28.3392578125 -189.003515625 28.75 -189
L 31.75 -189
Q 32.1607421875 -189.003515625 32.45 -189.3 32.746484375 -189.5892578125 32.75 -190 32.746484375 -190.4107421875 32.45 -190.7
M 42.75 -191
Q 42.3392578125 -190.996484375 42.05 -190.7 41.753515625 -190.4107421875 41.75 -190 41.753515625 -189.5892578125 42.05 -189.3 42.3392578125 -189.003515625 42.75 -189
L 45.75 -189
Q 46.1607421875 -189.003515625 46.45 -189.3 46.746484375 -189.5892578125 46.75 -190 46.746484375 -190.4107421875 46.45 -190.7 46.1607421875 -190.996484375 45.75 -191
L 42.75 -191
M 56.05 -190.7
Q 55.753515625 -190.4107421875 55.75 -190 55.753515625 -189.5892578125 56.05 -189.3 56.3392578125 -189.003515625 56.75 -189
L 59.75 -189
Q 60.1607421875 -189.003515625 60.45 -189.3 60.746484375 -189.5892578125 60.75 -190 60.746484375 -190.4107421875 60.45 -190.7 60.1607421875 -190.996484375 59.75 -191
L 56.75 -191
Q 56.3392578125 -190.996484375 56.05 -190.7
M 52.75 -189
Q 53.1607421875 -189.003515625 53.45 -189.3 53.746484375 -189.5892578125 53.75 -190 53.746484375 -190.4107421875 53.45 -190.7 53.1607421875 -190.996484375 52.75 -191
L 49.75 -191
Q 49.3392578125 -190.996484375 49.05 -190.7 48.753515625 -190.4107421875 48.75 -190 48.753515625 -189.5892578125 49.05 -189.3 49.3392578125 -189.003515625 49.75 -189
L 52.75 -189
M 63.05 -189.3
Q 63.3392578125 -189.003515625 63.75 -189
L 66.75 -189
Q 67.1607421875 -189.003515625 67.45 -189.3 67.746484375 -189.5892578125 67.75 -190 67.746484375 -190.4107421875 67.45 -190.7 67.1607421875 -190.996484375 66.75 -191
L 63.75 -191
Q 63.3392578125 -190.996484375 63.05 -190.7 62.753515625 -190.4107421875 62.75 -190 62.753515625 -189.5892578125 63.05 -189.3
M 74.45 -190.7
Q 74.1607421875 -190.996484375 73.75 -191
L 70.75 -191
Q 70.3392578125 -190.996484375 70.05 -190.7 69.753515625 -190.4107421875 69.75 -190 69.753515625 -189.5892578125 70.05 -189.3 70.3392578125 -189.003515625 70.75 -189
L 73.75 -189
Q 74.1607421875 -189.003515625 74.45 -189.3 74.746484375 -189.5892578125 74.75 -190 74.746484375 -190.4107421875 74.45 -190.7
M 84.75 -191
Q 84.3392578125 -190.996484375 84.05 -190.7 83.753515625 -190.4107421875 83.75 -190 83.753515625 -189.5892578125 84.05 -189.3 84.3392578125 -189.003515625 84.75 -189
L 87.75 -189
Q 88.1607421875 -189.003515625 88.45 -189.3 88.746484375 -189.5892578125 88.75 -190 88.746484375 -190.4107421875 88.45 -190.7 88.1607421875 -190.996484375 87.75 -191
L 84.75 -191
M 81.75 -190
Q 81.746484375 -190.4107421875 81.45 -190.7 81.1607421875 -190.996484375 80.75 -191
L 77.75 -191
Q 77.3392578125 -190.996484375 77.05 -190.7 76.753515625 -190.4107421875 76.75 -190 76.753515625 -189.5892578125 77.05 -189.3 77.3392578125 -189.003515625 77.75 -189
L 80.75 -189
Q 81.1607421875 -189.003515625 81.45 -189.3 81.746484375 -189.5892578125 81.75 -190
M 94.75 -191
L 91.75 -191
Q 91.3392578125 -190.996484375 91.05 -190.7 90.753515625 -190.4107421875 90.75 -190 90.753515625 -189.5892578125 91.05 -189.3 91.3392578125 -189.003515625 91.75 -189
L 94.75 -189
Q 95.1607421875 -189.003515625 95.45 -189.3 95.746484375 -189.5892578125 95.75 -190 95.746484375 -190.4107421875 95.45 -190.7 95.1607421875 -190.996484375 94.75 -191
M 102.75 -190
Q 102.746484375 -190.4107421875 102.45 -190.7 102.1607421875 -190.996484375 101.75 -191
L 98.75 -191
Q 98.3392578125 -190.996484375 98.05 -190.7 97.753515625 -190.4107421875 97.75 -190 97.753515625 -189.5892578125 98.05 -189.3 98.3392578125 -189.003515625 98.75 -189
L 101.75 -189
Q 102.1607421875 -189.003515625 102.45 -189.3 102.746484375 -189.5892578125 102.75 -190
M 105.05 -189.3
Q 105.3392578125 -189.003515625 105.75 -189
L 108.75 -189
Q 109.1607421875 -189.003515625 109.45 -189.3 109.746484375 -189.5892578125 109.75 -190 109.746484375 -190.4107421875 109.45 -190.7 109.1607421875 -190.996484375 108.75 -191
L 105.75 -191
Q 105.3392578125 -190.996484375 105.05 -190.7 104.753515625 -190.4107421875 104.75 -190 104.753515625 -189.5892578125 105.05 -189.3
M 115.75 -191
L 112.75 -191
Q 112.3392578125 -190.996484375 112.05 -190.7 111.753515625 -190.4107421875 111.75 -190 111.753515625 -189.5892578125 112.05 -189.3 112.3392578125 -189.003515625 112.75 -189
L 115.75 -189
Q 116.1607421875 -189.003515625 116.45 -189.3 116.746484375 -189.5892578125 116.75 -190 116.746484375 -190.4107421875 116.45 -190.7 116.1607421875 -190.996484375 115.75 -191
M 126.05 -190.7
Q 125.753515625 -190.4107421875 125.75 -190 125.753515625 -189.5892578125 126.05 -189.3 126.3392578125 -189.003515625 126.75 -189
L 129.75 -189
Q 130.1607421875 -189.003515625 130.45 -189.3 130.746484375 -189.5892578125 130.75 -190 130.746484375 -190.4107421875 130.45 -190.7 130.1607421875 -190.996484375 129.75 -191
L 126.75 -191
Q 126.3392578125 -190.996484375 126.05 -190.7
M 123.45 -190.7
Q 123.1607421875 -190.996484375 122.75 -191
L 119.75 -191
Q 119.3392578125 -190.996484375 119.05 -190.7 118.753515625 -190.4107421875 118.75 -190 118.753515625 -189.5892578125 119.05 -189.3 119.3392578125 -189.003515625 119.75 -189
L 122.75 -189
Q 123.1607421875 -189.003515625 123.45 -189.3 123.746484375 -189.5892578125 123.75 -190 123.746484375 -190.4107421875 123.45 -190.7
M 133.75 -191
Q 133.3392578125 -190.996484375 133.05 -190.7 132.753515625 -190.4107421875 132.75 -190 132.753515625 -189.5892578125 133.05 -189.3 133.3392578125 -189.003515625 133.75 -189
L 136.75 -189
Q 137.1607421875 -189.003515625 137.45 -189.3 137.746484375 -189.5892578125 137.75 -190 137.746484375 -190.4107421875 137.45 -190.7 137.1607421875 -190.996484375 136.75 -191
L 133.75 -191 Z"/>
</g>

<g id="fgbgfnfmt58_0_Layer0_1_FILL">
<path fill="#E50182" stroke="none" d="
M -428 -60.65
L -431.15 -55.15 -424.8 -55.15 -428 -60.65 Z"/>
</g>

<g id="fdbdfnd4647_1_Layer0_2_STROKES_1_FILL">
<path fill="#666666" stroke="none" d="
M -139.25 -191
Q -139.6607421875 -190.996484375 -139.95 -190.7 -140.246484375 -190.4107421875 -140.25 -190 -140.246484375 -189.5892578125 -139.95 -189.3 -139.6607421875 -189.003515625 -139.25 -189
L -136.25 -189
Q -135.8392578125 -189.003515625 -135.55 -189.3 -135.253515625 -189.5892578125 -135.25 -190 -135.253515625 -190.4107421875 -135.55 -190.7 -135.8392578125 -190.996484375 -136.25 -191
L -139.25 -191
M -125.95 -190.7
Q -126.246484375 -190.4107421875 -126.25 -190 -126.246484375 -189.5892578125 -125.95 -189.3 -125.6607421875 -189.003515625 -125.25 -189
L -122.25 -189
Q -121.8392578125 -189.003515625 -121.55 -189.3 -121.253515625 -189.5892578125 -121.25 -190 -121.253515625 -190.4107421875 -121.55 -190.7 -121.8392578125 -190.996484375 -122.25 -191
L -125.25 -191
Q -125.6607421875 -190.996484375 -125.95 -190.7
M -128.55 -190.7
Q -128.8392578125 -190.996484375 -129.25 -191
L -132.25 -191
Q -132.6607421875 -190.996484375 -132.95 -190.7 -133.246484375 -190.4107421875 -133.25 -190 -133.246484375 -189.5892578125 -132.95 -189.3 -132.6607421875 -189.003515625 -132.25 -189
L -129.25 -189
Q -128.8392578125 -189.003515625 -128.55 -189.3 -128.253515625 -189.5892578125 -128.25 -190 -128.253515625 -190.4107421875 -128.55 -190.7
M -118.25 -191
Q -118.6607421875 -190.996484375 -118.95 -190.7 -119.246484375 -190.4107421875 -119.25 -190 -119.246484375 -189.5892578125 -118.95 -189.3 -118.6607421875 -189.003515625 -118.25 -189
L -115.25 -189
Q -114.8392578125 -189.003515625 -114.55 -189.3 -114.253515625 -189.5892578125 -114.25 -190 -114.253515625 -190.4107421875 -114.55 -190.7 -114.8392578125 -190.996484375 -115.25 -191
L -118.25 -191
M -108.25 -191
L -111.25 -191
Q -111.6607421875 -190.996484375 -111.95 -190.7 -112.246484375 -190.4107421875 -112.25 -190 -112.246484375 -189.5892578125 -111.95 -189.3 -111.6607421875 -189.003515625 -111.25 -189
L -108.25 -189
Q -107.8392578125 -189.003515625 -107.55 -189.3 -107.253515625 -189.5892578125 -107.25 -190 -107.253515625 -190.4107421875 -107.55 -190.7 -107.8392578125 -190.996484375 -108.25 -191
M -100.25 -190
Q -100.253515625 -190.4107421875 -100.55 -190.7 -100.8392578125 -190.996484375 -101.25 -191
L -104.25 -191
Q -104.6607421875 -190.996484375 -104.95 -190.7 -105.246484375 -190.4107421875 -105.25 -190 -105.246484375 -189.5892578125 -104.95 -189.3 -104.6607421875 -189.003515625 -104.25 -189
L -101.25 -189
Q -100.8392578125 -189.003515625 -100.55 -189.3 -100.253515625 -189.5892578125 -100.25 -190
M -97.95 -189.3
Q -97.6607421875 -189.003515625 -97.25 -189
L -94.25 -189
Q -93.8392578125 -189.003515625 -93.55 -189.3 -93.253515625 -189.5892578125 -93.25 -190 -93.253515625 -190.4107421875 -93.55 -190.7 -93.8392578125 -190.996484375 -94.25 -191
L -97.25 -191
Q -97.6607421875 -190.996484375 -97.95 -190.7 -98.246484375 -190.4107421875 -98.25 -190 -98.246484375 -189.5892578125 -97.95 -189.3
M -86.55 -190.7
Q -86.8392578125 -190.996484375 -87.25 -191
L -90.25 -191
Q -90.6607421875 -190.996484375 -90.95 -190.7 -91.246484375 -190.4107421875 -91.25 -190 -91.246484375 -189.5892578125 -90.95 -189.3 -90.6607421875 -189.003515625 -90.25 -189
L -87.25 -189
Q -86.8392578125 -189.003515625 -86.55 -189.3 -86.253515625 -189.5892578125 -86.25 -190 -86.253515625 -190.4107421875 -86.55 -190.7
M -76.25 -191
Q -76.6607421875 -190.996484375 -76.95 -190.7 -77.246484375 -190.4107421875 -77.25 -190 -77.246484375 -189.5892578125 -76.95 -189.3 -76.6607421875 -189.003515625 -76.25 -189
L -73.25 -189
Q -72.8392578125 -189.003515625 -72.55 -189.3 -72.253515625 -189.5892578125 -72.25 -190 -72.253515625 -190.4107421875 -72.55 -190.7 -72.8392578125 -190.996484375 -73.25 -191
L -76.25 -191
M -79.55 -190.7
Q -79.8392578125 -190.996484375 -80.25 -191
L -83.25 -191
Q -83.6607421875 -190.996484375 -83.95 -190.7 -84.246484375 -190.4107421875 -84.25 -190 -84.246484375 -189.5892578125 -83.95 -189.3 -83.6607421875 -189.003515625 -83.25 -189
L -80.25 -189
Q -79.8392578125 -189.003515625 -79.55 -189.3 -79.253515625 -189.5892578125 -79.25 -190 -79.253515625 -190.4107421875 -79.55 -190.7
M -69.95 -189.3
Q -69.6607421875 -189.003515625 -69.25 -189
L -66.25 -189
Q -65.8392578125 -189.003515625 -65.55 -189.3 -65.253515625 -189.5892578125 -65.25 -190 -65.253515625 -190.4107421875 -65.55 -190.7 -65.8392578125 -190.996484375 -66.25 -191
L -69.25 -191
Q -69.6607421875 -190.996484375 -69.95 -190.7 -70.246484375 -190.4107421875 -70.25 -190 -70.246484375 -189.5892578125 -69.95 -189.3
M -58.25 -190
Q -58.253515625 -190.4107421875 -58.55 -190.7 -58.8392578125 -190.996484375 -59.25 -191
L -62.25 -191
Q -62.6607421875 -190.996484375 -62.95 -190.7 -63.246484375 -190.4107421875 -63.25 -190 -63.246484375 -189.5892578125 -62.95 -189.3 -62.6607421875 -189.003515625 -62.25 -189
L -59.25 -189
Q -58.8392578125 -189.003515625 -58.55 -189.3 -58.253515625 -189.5892578125 -58.25 -190
M -56.25 -190
Q -56.246484375 -189.5892578125 -55.95 -189.3 -55.6607421875 -189.003515625 -55.25 -189
L -52.25 -189
Q -51.8392578125 -189.003515625 -51.55 -189.3 -51.253515625 -189.5892578125 -51.25 -190 -51.253515625 -190.4107421875 -51.55 -190.7 -51.8392578125 -190.996484375 -52.25 -191
L -55.25 -191
Q -55.6607421875 -190.996484375 -55.95 -190.7 -56.246484375 -190.4107421875 -56.25 -190
M -48.25 -191
Q -48.6607421875 -190.996484375 -48.95 -190.7 -49.246484375 -190.4107421875 -49.25 -190 -49.246484375 -189.5892578125 -48.95 -189.3 -48.6607421875 -189.003515625 -48.25 -189
L -45.25 -189
Q -44.8392578125 -189.003515625 -44.55 -189.3 -44.253515625 -189.5892578125 -44.25 -190 -44.253515625 -190.4107421875 -44.55 -190.7 -44.8392578125 -190.996484375 -45.25 -191
L -48.25 -191
M -34.95 -190.7
Q -35.246484375 -190.4107421875 -35.25 -190 -35.246484375 -189.5892578125 -34.95 -189.3 -34.6607421875 -189.003515625 -34.25 -189
L -31.25 -189
Q -30.8392578125 -189.003515625 -30.55 -189.3 -30.253515625 -189.5892578125 -30.25 -190 -30.253515625 -190.4107421875 -30.55 -190.7 -30.8392578125 -190.996484375 -31.25 -191
L -34.25 -191
Q -34.6607421875 -190.996484375 -34.95 -190.7
M -37.55 -190.7
Q -37.8392578125 -190.996484375 -38.25 -191
L -41.25 -191
Q -41.6607421875 -190.996484375 -41.95 -190.7 -42.246484375 -190.4107421875 -42.25 -190 -42.246484375 -189.5892578125 -41.95 -189.3 -41.6607421875 -189.003515625 -41.25 -189
L -38.25 -189
Q -37.8392578125 -189.003515625 -37.55 -189.3 -37.253515625 -189.5892578125 -37.25 -190 -37.253515625 -190.4107421875 -37.55 -190.7
M -27.95 -189.3
Q -27.6607421875 -189.003515625 -27.25 -189
L -24.25 -189
Q -23.8392578125 -189.003515625 -23.55 -189.3 -23.253515625 -189.5892578125 -23.25 -190 -23.253515625 -190.4107421875 -23.55 -190.7 -23.8392578125 -190.996484375 -24.25 -191
L -27.25 -191
Q -27.6607421875 -190.996484375 -27.95 -190.7 -28.246484375 -190.4107421875 -28.25 -190 -28.246484375 -189.5892578125 -27.95 -189.3
M -16.25 -190
Q -16.253515625 -190.4107421875 -16.55 -190.7 -16.8392578125 -190.996484375 -17.25 -191
L -20.25 -191
Q -20.6607421875 -190.996484375 -20.95 -190.7 -21.246484375 -190.4107421875 -21.25 -190 -21.246484375 -189.5892578125 -20.95 -189.3 -20.6607421875 -189.003515625 -20.25 -189
L -17.25 -189
Q -16.8392578125 -189.003515625 -16.55 -189.3 -16.253515625 -189.5892578125 -16.25 -190
M -6.25 -191
Q -6.6607421875 -190.996484375 -6.95 -190.7 -7.246484375 -190.4107421875 -7.25 -190 -7.246484375 -189.5892578125 -6.95 -189.3 -6.6607421875 -189.003515625 -6.25 -189
L -3.25 -189
Q -2.8392578125 -189.003515625 -2.55 -189.3 -2.253515625 -189.5892578125 -2.25 -190 -2.253515625 -190.4107421875 -2.55 -190.7 -2.8392578125 -190.996484375 -3.25 -191
L -6.25 -191
M -9.55 -189.3
Q -9.253515625 -189.5892578125 -9.25 -190 -9.253515625 -190.4107421875 -9.55 -190.7 -9.8392578125 -190.996484375 -10.25 -191
L -13.25 -191
Q -13.6607421875 -190.996484375 -13.95 -190.7 -14.246484375 -190.4107421875 -14.25 -190 -14.246484375 -189.5892578125 -13.95 -189.3 -13.6607421875 -189.003515625 -13.25 -189
L -10.25 -189
Q -9.8392578125 -189.003515625 -9.55 -189.3
M 4.45 -190.7
Q 4.1607421875 -190.996484375 3.75 -191
L 0.75 -191
Q 0.3392578125 -190.996484375 0.05 -190.7 -0.246484375 -190.4107421875 -0.25 -190 -0.246484375 -189.5892578125 0.05 -189.3 0.3392578125 -189.003515625 0.75 -189
L 3.75 -189
Q 4.1607421875 -189.003515625 4.45 -189.3 4.746484375 -189.5892578125 4.75 -190 4.746484375 -190.4107421875 4.45 -190.7
M 10.75 -189
Q 11.1607421875 -189.003515625 11.45 -189.3 11.746484375 -189.5892578125 11.75 -190 11.746484375 -190.4107421875 11.45 -190.7 11.1607421875 -190.996484375 10.75 -191
L 7.75 -191
Q 7.3392578125 -190.996484375 7.05 -190.7 6.753515625 -190.4107421875 6.75 -190 6.753515625 -189.5892578125 7.05 -189.3 7.3392578125 -189.003515625 7.75 -189
L 10.75 -189
M 14.05 -189.3
Q 14.3392578125 -189.003515625 14.75 -189
L 17.75 -189
Q 18.1607421875 -189.003515625 18.45 -189.3 18.746484375 -189.5892578125 18.75 -190 18.746484375 -190.4107421875 18.45 -190.7 18.1607421875 -190.996484375 17.75 -191
L 14.75 -191
Q 14.3392578125 -190.996484375 14.05 -190.7 13.753515625 -190.4107421875 13.75 -190 13.753515625 -189.5892578125 14.05 -189.3
M 21.05 -189.3
Q 21.3392578125 -189.003515625 21.75 -189
L 24.75 -189
Q 25.1607421875 -189.003515625 25.45 -189.3 25.746484375 -189.5892578125 25.75 -190 25.746484375 -190.4107421875 25.45 -190.7 25.1607421875 -190.996484375 24.75 -191
L 21.75 -191
Q 21.3392578125 -190.996484375 21.05 -190.7 20.753515625 -190.4107421875 20.75 -190 20.753515625 -189.5892578125 21.05 -189.3
M 35.05 -190.7
Q 34.753515625 -190.4107421875 34.75 -190 34.753515625 -189.5892578125 35.05 -189.3 35.3392578125 -189.003515625 35.75 -189
L 38.75 -189
Q 39.1607421875 -189.003515625 39.45 -189.3 39.746484375 -189.5892578125 39.75 -190 39.746484375 -190.4107421875 39.45 -190.7 39.1607421875 -190.996484375 38.75 -191
L 35.75 -191
Q 35.3392578125 -190.996484375 35.05 -190.7
M 32.45 -190.7
Q 32.1607421875 -190.996484375 31.75 -191
L 28.75 -191
Q 28.3392578125 -190.996484375 28.05 -190.7 27.753515625 -190.4107421875 27.75 -190 27.753515625 -189.5892578125 28.05 -189.3 28.3392578125 -189.003515625 28.75 -189
L 31.75 -189
Q 32.1607421875 -189.003515625 32.45 -189.3 32.746484375 -189.5892578125 32.75 -190 32.746484375 -190.4107421875 32.45 -190.7
M 42.75 -191
Q 42.3392578125 -190.996484375 42.05 -190.7 41.753515625 -190.4107421875 41.75 -190 41.753515625 -189.5892578125 42.05 -189.3 42.3392578125 -189.003515625 42.75 -189
L 45.75 -189
Q 46.1607421875 -189.003515625 46.45 -189.3 46.746484375 -189.5892578125 46.75 -190 46.746484375 -190.4107421875 46.45 -190.7 46.1607421875 -190.996484375 45.75 -191
L 42.75 -191
M 56.05 -190.7
Q 55.753515625 -190.4107421875 55.75 -190 55.753515625 -189.5892578125 56.05 -189.3 56.3392578125 -189.003515625 56.75 -189
L 59.75 -189
Q 60.1607421875 -189.003515625 60.45 -189.3 60.746484375 -189.5892578125 60.75 -190 60.746484375 -190.4107421875 60.45 -190.7 60.1607421875 -190.996484375 59.75 -191
L 56.75 -191
Q 56.3392578125 -190.996484375 56.05 -190.7
M 52.75 -189
Q 53.1607421875 -189.003515625 53.45 -189.3 53.746484375 -189.5892578125 53.75 -190 53.746484375 -190.4107421875 53.45 -190.7 53.1607421875 -190.996484375 52.75 -191
L 49.75 -191
Q 49.3392578125 -190.996484375 49.05 -190.7 48.753515625 -190.4107421875 48.75 -190 48.753515625 -189.5892578125 49.05 -189.3 49.3392578125 -189.003515625 49.75 -189
L 52.75 -189
M 63.05 -189.3
Q 63.3392578125 -189.003515625 63.75 -189
L 66.75 -189
Q 67.1607421875 -189.003515625 67.45 -189.3 67.746484375 -189.5892578125 67.75 -190 67.746484375 -190.4107421875 67.45 -190.7 67.1607421875 -190.996484375 66.75 -191
L 63.75 -191
Q 63.3392578125 -190.996484375 63.05 -190.7 62.753515625 -190.4107421875 62.75 -190 62.753515625 -189.5892578125 63.05 -189.3
M 74.45 -190.7
Q 74.1607421875 -190.996484375 73.75 -191
L 70.75 -191
Q 70.3392578125 -190.996484375 70.05 -190.7 69.753515625 -190.4107421875 69.75 -190 69.753515625 -189.5892578125 70.05 -189.3 70.3392578125 -189.003515625 70.75 -189
L 73.75 -189
Q 74.1607421875 -189.003515625 74.45 -189.3 74.746484375 -189.5892578125 74.75 -190 74.746484375 -190.4107421875 74.45 -190.7
M 84.75 -191
Q 84.3392578125 -190.996484375 84.05 -190.7 83.753515625 -190.4107421875 83.75 -190 83.753515625 -189.5892578125 84.05 -189.3 84.3392578125 -189.003515625 84.75 -189
L 87.75 -189
Q 88.1607421875 -189.003515625 88.45 -189.3 88.746484375 -189.5892578125 88.75 -190 88.746484375 -190.4107421875 88.45 -190.7 88.1607421875 -190.996484375 87.75 -191
L 84.75 -191
M 81.75 -190
Q 81.746484375 -190.4107421875 81.45 -190.7 81.1607421875 -190.996484375 80.75 -191
L 77.75 -191
Q 77.3392578125 -190.996484375 77.05 -190.7 76.753515625 -190.4107421875 76.75 -190 76.753515625 -189.5892578125 77.05 -189.3 77.3392578125 -189.003515625 77.75 -189
L 80.75 -189
Q 81.1607421875 -189.003515625 81.45 -189.3 81.746484375 -189.5892578125 81.75 -190
M 94.75 -191
L 91.75 -191
Q 91.3392578125 -190.996484375 91.05 -190.7 90.753515625 -190.4107421875 90.75 -190 90.753515625 -189.5892578125 91.05 -189.3 91.3392578125 -189.003515625 91.75 -189
L 94.75 -189
Q 95.1607421875 -189.003515625 95.45 -189.3 95.746484375 -189.5892578125 95.75 -190 95.746484375 -190.4107421875 95.45 -190.7 95.1607421875 -190.996484375 94.75 -191
M 102.75 -190
Q 102.746484375 -190.4107421875 102.45 -190.7 102.1607421875 -190.996484375 101.75 -191
L 98.75 -191
Q 98.3392578125 -190.996484375 98.05 -190.7 97.753515625 -190.4107421875 97.75 -190 97.753515625 -189.5892578125 98.05 -189.3 98.3392578125 -189.003515625 98.75 -189
L 101.75 -189
Q 102.1607421875 -189.003515625 102.45 -189.3 102.746484375 -189.5892578125 102.75 -190
M 105.05 -189.3
Q 105.3392578125 -189.003515625 105.75 -189
L 108.75 -189
Q 109.1607421875 -189.003515625 109.45 -189.3 109.746484375 -189.5892578125 109.75 -190 109.746484375 -190.4107421875 109.45 -190.7 109.1607421875 -190.996484375 108.75 -191
L 105.75 -191
Q 105.3392578125 -190.996484375 105.05 -190.7 104.753515625 -190.4107421875 104.75 -190 104.753515625 -189.5892578125 105.05 -189.3
M 115.75 -191
L 112.75 -191
Q 112.3392578125 -190.996484375 112.05 -190.7 111.753515625 -190.4107421875 111.75 -190 111.753515625 -189.5892578125 112.05 -189.3 112.3392578125 -189.003515625 112.75 -189
L 115.75 -189
Q 116.1607421875 -189.003515625 116.45 -189.3 116.746484375 -189.5892578125 116.75 -190 116.746484375 -190.4107421875 116.45 -190.7 116.1607421875 -190.996484375 115.75 -191
M 126.05 -190.7
Q 125.753515625 -190.4107421875 125.75 -190 125.753515625 -189.5892578125 126.05 -189.3 126.3392578125 -189.003515625 126.75 -189
L 129.75 -189
Q 130.1607421875 -189.003515625 130.45 -189.3 130.746484375 -189.5892578125 130.75 -190 130.746484375 -190.4107421875 130.45 -190.7 130.1607421875 -190.996484375 129.75 -191
L 126.75 -191
Q 126.3392578125 -190.996484375 126.05 -190.7
M 123.45 -190.7
Q 123.1607421875 -190.996484375 122.75 -191
L 119.75 -191
Q 119.3392578125 -190.996484375 119.05 -190.7 118.753515625 -190.4107421875 118.75 -190 118.753515625 -189.5892578125 119.05 -189.3 119.3392578125 -189.003515625 119.75 -189
L 122.75 -189
Q 123.1607421875 -189.003515625 123.45 -189.3 123.746484375 -189.5892578125 123.75 -190 123.746484375 -190.4107421875 123.45 -190.7
M 133.75 -191
Q 133.3392578125 -190.996484375 133.05 -190.7 132.753515625 -190.4107421875 132.75 -190 132.753515625 -189.5892578125 133.05 -189.3 133.3392578125 -189.003515625 133.75 -189
L 136.75 -189
Q 137.1607421875 -189.003515625 137.45 -189.3 137.746484375 -189.5892578125 137.75 -190 137.746484375 -190.4107421875 137.45 -190.7 137.1607421875 -190.996484375 136.75 -191
L 133.75 -191 Z"/>
</g>

<g id="fdbdfnd4647_1_Layer0_3_STROKES_1_FILL">
<path fill="#666666" stroke="none" d="
M -139.25 -191
Q -139.6607421875 -190.996484375 -139.95 -190.7 -140.246484375 -190.4107421875 -140.25 -190 -140.246484375 -189.5892578125 -139.95 -189.3 -139.6607421875 -189.003515625 -139.25 -189
L -136.25 -189
Q -135.8392578125 -189.003515625 -135.55 -189.3 -135.253515625 -189.5892578125 -135.25 -190 -135.253515625 -190.4107421875 -135.55 -190.7 -135.8392578125 -190.996484375 -136.25 -191
L -139.25 -191
M -125.95 -190.7
Q -126.246484375 -190.4107421875 -126.25 -190 -126.246484375 -189.5892578125 -125.95 -189.3 -125.6607421875 -189.003515625 -125.25 -189
L -122.25 -189
Q -121.8392578125 -189.003515625 -121.55 -189.3 -121.253515625 -189.5892578125 -121.25 -190 -121.253515625 -190.4107421875 -121.55 -190.7 -121.8392578125 -190.996484375 -122.25 -191
L -125.25 -191
Q -125.6607421875 -190.996484375 -125.95 -190.7
M -128.55 -190.7
Q -128.8392578125 -190.996484375 -129.25 -191
L -132.25 -191
Q -132.6607421875 -190.996484375 -132.95 -190.7 -133.246484375 -190.4107421875 -133.25 -190 -133.246484375 -189.5892578125 -132.95 -189.3 -132.6607421875 -189.003515625 -132.25 -189
L -129.25 -189
Q -128.8392578125 -189.003515625 -128.55 -189.3 -128.253515625 -189.5892578125 -128.25 -190 -128.253515625 -190.4107421875 -128.55 -190.7
M -118.25 -191
Q -118.6607421875 -190.996484375 -118.95 -190.7 -119.246484375 -190.4107421875 -119.25 -190 -119.246484375 -189.5892578125 -118.95 -189.3 -118.6607421875 -189.003515625 -118.25 -189
L -115.25 -189
Q -114.8392578125 -189.003515625 -114.55 -189.3 -114.253515625 -189.5892578125 -114.25 -190 -114.253515625 -190.4107421875 -114.55 -190.7 -114.8392578125 -190.996484375 -115.25 -191
L -118.25 -191
M -108.25 -191
L -111.25 -191
Q -111.6607421875 -190.996484375 -111.95 -190.7 -112.246484375 -190.4107421875 -112.25 -190 -112.246484375 -189.5892578125 -111.95 -189.3 -111.6607421875 -189.003515625 -111.25 -189
L -108.25 -189
Q -107.8392578125 -189.003515625 -107.55 -189.3 -107.253515625 -189.5892578125 -107.25 -190 -107.253515625 -190.4107421875 -107.55 -190.7 -107.8392578125 -190.996484375 -108.25 -191
M -100.25 -190
Q -100.253515625 -190.4107421875 -100.55 -190.7 -100.8392578125 -190.996484375 -101.25 -191
L -104.25 -191
Q -104.6607421875 -190.996484375 -104.95 -190.7 -105.246484375 -190.4107421875 -105.25 -190 -105.246484375 -189.5892578125 -104.95 -189.3 -104.6607421875 -189.003515625 -104.25 -189
L -101.25 -189
Q -100.8392578125 -189.003515625 -100.55 -189.3 -100.253515625 -189.5892578125 -100.25 -190
M -97.95 -189.3
Q -97.6607421875 -189.003515625 -97.25 -189
L -94.25 -189
Q -93.8392578125 -189.003515625 -93.55 -189.3 -93.253515625 -189.5892578125 -93.25 -190 -93.253515625 -190.4107421875 -93.55 -190.7 -93.8392578125 -190.996484375 -94.25 -191
L -97.25 -191
Q -97.6607421875 -190.996484375 -97.95 -190.7 -98.246484375 -190.4107421875 -98.25 -190 -98.246484375 -189.5892578125 -97.95 -189.3
M -86.55 -190.7
Q -86.8392578125 -190.996484375 -87.25 -191
L -90.25 -191
Q -90.6607421875 -190.996484375 -90.95 -190.7 -91.246484375 -190.4107421875 -91.25 -190 -91.246484375 -189.5892578125 -90.95 -189.3 -90.6607421875 -189.003515625 -90.25 -189
L -87.25 -189
Q -86.8392578125 -189.003515625 -86.55 -189.3 -86.253515625 -189.5892578125 -86.25 -190 -86.253515625 -190.4107421875 -86.55 -190.7
M -76.25 -191
Q -76.6607421875 -190.996484375 -76.95 -190.7 -77.246484375 -190.4107421875 -77.25 -190 -77.246484375 -189.5892578125 -76.95 -189.3 -76.6607421875 -189.003515625 -76.25 -189
L -73.25 -189
Q -72.8392578125 -189.003515625 -72.55 -189.3 -72.253515625 -189.5892578125 -72.25 -190 -72.253515625 -190.4107421875 -72.55 -190.7 -72.8392578125 -190.996484375 -73.25 -191
L -76.25 -191
M -79.55 -190.7
Q -79.8392578125 -190.996484375 -80.25 -191
L -83.25 -191
Q -83.6607421875 -190.996484375 -83.95 -190.7 -84.246484375 -190.4107421875 -84.25 -190 -84.246484375 -189.5892578125 -83.95 -189.3 -83.6607421875 -189.003515625 -83.25 -189
L -80.25 -189
Q -79.8392578125 -189.003515625 -79.55 -189.3 -79.253515625 -189.5892578125 -79.25 -190 -79.253515625 -190.4107421875 -79.55 -190.7
M -69.95 -189.3
Q -69.6607421875 -189.003515625 -69.25 -189
L -66.25 -189
Q -65.8392578125 -189.003515625 -65.55 -189.3 -65.253515625 -189.5892578125 -65.25 -190 -65.253515625 -190.4107421875 -65.55 -190.7 -65.8392578125 -190.996484375 -66.25 -191
L -69.25 -191
Q -69.6607421875 -190.996484375 -69.95 -190.7 -70.246484375 -190.4107421875 -70.25 -190 -70.246484375 -189.5892578125 -69.95 -189.3
M -58.25 -190
Q -58.253515625 -190.4107421875 -58.55 -190.7 -58.8392578125 -190.996484375 -59.25 -191
L -62.25 -191
Q -62.6607421875 -190.996484375 -62.95 -190.7 -63.246484375 -190.4107421875 -63.25 -190 -63.246484375 -189.5892578125 -62.95 -189.3 -62.6607421875 -189.003515625 -62.25 -189
L -59.25 -189
Q -58.8392578125 -189.003515625 -58.55 -189.3 -58.253515625 -189.5892578125 -58.25 -190
M -56.25 -190
Q -56.246484375 -189.5892578125 -55.95 -189.3 -55.6607421875 -189.003515625 -55.25 -189
L -52.25 -189
Q -51.8392578125 -189.003515625 -51.55 -189.3 -51.253515625 -189.5892578125 -51.25 -190 -51.253515625 -190.4107421875 -51.55 -190.7 -51.8392578125 -190.996484375 -52.25 -191
L -55.25 -191
Q -55.6607421875 -190.996484375 -55.95 -190.7 -56.246484375 -190.4107421875 -56.25 -190
M -48.25 -191
Q -48.6607421875 -190.996484375 -48.95 -190.7 -49.246484375 -190.4107421875 -49.25 -190 -49.246484375 -189.5892578125 -48.95 -189.3 -48.6607421875 -189.003515625 -48.25 -189
L -45.25 -189
Q -44.8392578125 -189.003515625 -44.55 -189.3 -44.253515625 -189.5892578125 -44.25 -190 -44.253515625 -190.4107421875 -44.55 -190.7 -44.8392578125 -190.996484375 -45.25 -191
L -48.25 -191
M -34.95 -190.7
Q -35.246484375 -190.4107421875 -35.25 -190 -35.246484375 -189.5892578125 -34.95 -189.3 -34.6607421875 -189.003515625 -34.25 -189
L -31.25 -189
Q -30.8392578125 -189.003515625 -30.55 -189.3 -30.253515625 -189.5892578125 -30.25 -190 -30.253515625 -190.4107421875 -30.55 -190.7 -30.8392578125 -190.996484375 -31.25 -191
L -34.25 -191
Q -34.6607421875 -190.996484375 -34.95 -190.7
M -37.55 -190.7
Q -37.8392578125 -190.996484375 -38.25 -191
L -41.25 -191
Q -41.6607421875 -190.996484375 -41.95 -190.7 -42.246484375 -190.4107421875 -42.25 -190 -42.246484375 -189.5892578125 -41.95 -189.3 -41.6607421875 -189.003515625 -41.25 -189
L -38.25 -189
Q -37.8392578125 -189.003515625 -37.55 -189.3 -37.253515625 -189.5892578125 -37.25 -190 -37.253515625 -190.4107421875 -37.55 -190.7
M -27.95 -189.3
Q -27.6607421875 -189.003515625 -27.25 -189
L -24.25 -189
Q -23.8392578125 -189.003515625 -23.55 -189.3 -23.253515625 -189.5892578125 -23.25 -190 -23.253515625 -190.4107421875 -23.55 -190.7 -23.8392578125 -190.996484375 -24.25 -191
L -27.25 -191
Q -27.6607421875 -190.996484375 -27.95 -190.7 -28.246484375 -190.4107421875 -28.25 -190 -28.246484375 -189.5892578125 -27.95 -189.3
M -16.25 -190
Q -16.253515625 -190.4107421875 -16.55 -190.7 -16.8392578125 -190.996484375 -17.25 -191
L -20.25 -191
Q -20.6607421875 -190.996484375 -20.95 -190.7 -21.246484375 -190.4107421875 -21.25 -190 -21.246484375 -189.5892578125 -20.95 -189.3 -20.6607421875 -189.003515625 -20.25 -189
L -17.25 -189
Q -16.8392578125 -189.003515625 -16.55 -189.3 -16.253515625 -189.5892578125 -16.25 -190
M -6.25 -191
Q -6.6607421875 -190.996484375 -6.95 -190.7 -7.246484375 -190.4107421875 -7.25 -190 -7.246484375 -189.5892578125 -6.95 -189.3 -6.6607421875 -189.003515625 -6.25 -189
L -3.25 -189
Q -2.8392578125 -189.003515625 -2.55 -189.3 -2.253515625 -189.5892578125 -2.25 -190 -2.253515625 -190.4107421875 -2.55 -190.7 -2.8392578125 -190.996484375 -3.25 -191
L -6.25 -191
M -9.55 -189.3
Q -9.253515625 -189.5892578125 -9.25 -190 -9.253515625 -190.4107421875 -9.55 -190.7 -9.8392578125 -190.996484375 -10.25 -191
L -13.25 -191
Q -13.6607421875 -190.996484375 -13.95 -190.7 -14.246484375 -190.4107421875 -14.25 -190 -14.246484375 -189.5892578125 -13.95 -189.3 -13.6607421875 -189.003515625 -13.25 -189
L -10.25 -189
Q -9.8392578125 -189.003515625 -9.55 -189.3
M 4.45 -190.7
Q 4.1607421875 -190.996484375 3.75 -191
L 0.75 -191
Q 0.3392578125 -190.996484375 0.05 -190.7 -0.246484375 -190.4107421875 -0.25 -190 -0.246484375 -189.5892578125 0.05 -189.3 0.3392578125 -189.003515625 0.75 -189
L 3.75 -189
Q 4.1607421875 -189.003515625 4.45 -189.3 4.746484375 -189.5892578125 4.75 -190 4.746484375 -190.4107421875 4.45 -190.7
M 10.75 -189
Q 11.1607421875 -189.003515625 11.45 -189.3 11.746484375 -189.5892578125 11.75 -190 11.746484375 -190.4107421875 11.45 -190.7 11.1607421875 -190.996484375 10.75 -191
L 7.75 -191
Q 7.3392578125 -190.996484375 7.05 -190.7 6.753515625 -190.4107421875 6.75 -190 6.753515625 -189.5892578125 7.05 -189.3 7.3392578125 -189.003515625 7.75 -189
L 10.75 -189
M 14.05 -189.3
Q 14.3392578125 -189.003515625 14.75 -189
L 17.75 -189
Q 18.1607421875 -189.003515625 18.45 -189.3 18.746484375 -189.5892578125 18.75 -190 18.746484375 -190.4107421875 18.45 -190.7 18.1607421875 -190.996484375 17.75 -191
L 14.75 -191
Q 14.3392578125 -190.996484375 14.05 -190.7 13.753515625 -190.4107421875 13.75 -190 13.753515625 -189.5892578125 14.05 -189.3
M 21.05 -189.3
Q 21.3392578125 -189.003515625 21.75 -189
L 24.75 -189
Q 25.1607421875 -189.003515625 25.45 -189.3 25.746484375 -189.5892578125 25.75 -190 25.746484375 -190.4107421875 25.45 -190.7 25.1607421875 -190.996484375 24.75 -191
L 21.75 -191
Q 21.3392578125 -190.996484375 21.05 -190.7 20.753515625 -190.4107421875 20.75 -190 20.753515625 -189.5892578125 21.05 -189.3
M 35.05 -190.7
Q 34.753515625 -190.4107421875 34.75 -190 34.753515625 -189.5892578125 35.05 -189.3 35.3392578125 -189.003515625 35.75 -189
L 38.75 -189
Q 39.1607421875 -189.003515625 39.45 -189.3 39.746484375 -189.5892578125 39.75 -190 39.746484375 -190.4107421875 39.45 -190.7 39.1607421875 -190.996484375 38.75 -191
L 35.75 -191
Q 35.3392578125 -190.996484375 35.05 -190.7
M 32.45 -190.7
Q 32.1607421875 -190.996484375 31.75 -191
L 28.75 -191
Q 28.3392578125 -190.996484375 28.05 -190.7 27.753515625 -190.4107421875 27.75 -190 27.753515625 -189.5892578125 28.05 -189.3 28.3392578125 -189.003515625 28.75 -189
L 31.75 -189
Q 32.1607421875 -189.003515625 32.45 -189.3 32.746484375 -189.5892578125 32.75 -190 32.746484375 -190.4107421875 32.45 -190.7
M 42.75 -191
Q 42.3392578125 -190.996484375 42.05 -190.7 41.753515625 -190.4107421875 41.75 -190 41.753515625 -189.5892578125 42.05 -189.3 42.3392578125 -189.003515625 42.75 -189
L 45.75 -189
Q 46.1607421875 -189.003515625 46.45 -189.3 46.746484375 -189.5892578125 46.75 -190 46.746484375 -190.4107421875 46.45 -190.7 46.1607421875 -190.996484375 45.75 -191
L 42.75 -191
M 56.05 -190.7
Q 55.753515625 -190.4107421875 55.75 -190 55.753515625 -189.5892578125 56.05 -189.3 56.3392578125 -189.003515625 56.75 -189
L 59.75 -189
Q 60.1607421875 -189.003515625 60.45 -189.3 60.746484375 -189.5892578125 60.75 -190 60.746484375 -190.4107421875 60.45 -190.7 60.1607421875 -190.996484375 59.75 -191
L 56.75 -191
Q 56.3392578125 -190.996484375 56.05 -190.7
M 52.75 -189
Q 53.1607421875 -189.003515625 53.45 -189.3 53.746484375 -189.5892578125 53.75 -190 53.746484375 -190.4107421875 53.45 -190.7 53.1607421875 -190.996484375 52.75 -191
L 49.75 -191
Q 49.3392578125 -190.996484375 49.05 -190.7 48.753515625 -190.4107421875 48.75 -190 48.753515625 -189.5892578125 49.05 -189.3 49.3392578125 -189.003515625 49.75 -189
L 52.75 -189
M 63.05 -189.3
Q 63.3392578125 -189.003515625 63.75 -189
L 66.75 -189
Q 67.1607421875 -189.003515625 67.45 -189.3 67.746484375 -189.5892578125 67.75 -190 67.746484375 -190.4107421875 67.45 -190.7 67.1607421875 -190.996484375 66.75 -191
L 63.75 -191
Q 63.3392578125 -190.996484375 63.05 -190.7 62.753515625 -190.4107421875 62.75 -190 62.753515625 -189.5892578125 63.05 -189.3
M 74.45 -190.7
Q 74.1607421875 -190.996484375 73.75 -191
L 70.75 -191
Q 70.3392578125 -190.996484375 70.05 -190.7 69.753515625 -190.4107421875 69.75 -190 69.753515625 -189.5892578125 70.05 -189.3 70.3392578125 -189.003515625 70.75 -189
L 73.75 -189
Q 74.1607421875 -189.003515625 74.45 -189.3 74.746484375 -189.5892578125 74.75 -190 74.746484375 -190.4107421875 74.45 -190.7
M 84.75 -191
Q 84.3392578125 -190.996484375 84.05 -190.7 83.753515625 -190.4107421875 83.75 -190 83.753515625 -189.5892578125 84.05 -189.3 84.3392578125 -189.003515625 84.75 -189
L 87.75 -189
Q 88.1607421875 -189.003515625 88.45 -189.3 88.746484375 -189.5892578125 88.75 -190 88.746484375 -190.4107421875 88.45 -190.7 88.1607421875 -190.996484375 87.75 -191
L 84.75 -191
M 81.75 -190
Q 81.746484375 -190.4107421875 81.45 -190.7 81.1607421875 -190.996484375 80.75 -191
L 77.75 -191
Q 77.3392578125 -190.996484375 77.05 -190.7 76.753515625 -190.4107421875 76.75 -190 76.753515625 -189.5892578125 77.05 -189.3 77.3392578125 -189.003515625 77.75 -189
L 80.75 -189
Q 81.1607421875 -189.003515625 81.45 -189.3 81.746484375 -189.5892578125 81.75 -190
M 94.75 -191
L 91.75 -191
Q 91.3392578125 -190.996484375 91.05 -190.7 90.753515625 -190.4107421875 90.75 -190 90.753515625 -189.5892578125 91.05 -189.3 91.3392578125 -189.003515625 91.75 -189
L 94.75 -189
Q 95.1607421875 -189.003515625 95.45 -189.3 95.746484375 -189.5892578125 95.75 -190 95.746484375 -190.4107421875 95.45 -190.7 95.1607421875 -190.996484375 94.75 -191
M 102.75 -190
Q 102.746484375 -190.4107421875 102.45 -190.7 102.1607421875 -190.996484375 101.75 -191
L 98.75 -191
Q 98.3392578125 -190.996484375 98.05 -190.7 97.753515625 -190.4107421875 97.75 -190 97.753515625 -189.5892578125 98.05 -189.3 98.3392578125 -189.003515625 98.75 -189
L 101.75 -189
Q 102.1607421875 -189.003515625 102.45 -189.3 102.746484375 -189.5892578125 102.75 -190
M 105.05 -189.3
Q 105.3392578125 -189.003515625 105.75 -189
L 108.75 -189
Q 109.1607421875 -189.003515625 109.45 -189.3 109.746484375 -189.5892578125 109.75 -190 109.746484375 -190.4107421875 109.45 -190.7 109.1607421875 -190.996484375 108.75 -191
L 105.75 -191
Q 105.3392578125 -190.996484375 105.05 -190.7 104.753515625 -190.4107421875 104.75 -190 104.753515625 -189.5892578125 105.05 -189.3
M 115.75 -191
L 112.75 -191
Q 112.3392578125 -190.996484375 112.05 -190.7 111.753515625 -190.4107421875 111.75 -190 111.753515625 -189.5892578125 112.05 -189.3 112.3392578125 -189.003515625 112.75 -189
L 115.75 -189
Q 116.1607421875 -189.003515625 116.45 -189.3 116.746484375 -189.5892578125 116.75 -190 116.746484375 -190.4107421875 116.45 -190.7 116.1607421875 -190.996484375 115.75 -191
M 126.05 -190.7
Q 125.753515625 -190.4107421875 125.75 -190 125.753515625 -189.5892578125 126.05 -189.3 126.3392578125 -189.003515625 126.75 -189
L 129.75 -189
Q 130.1607421875 -189.003515625 130.45 -189.3 130.746484375 -189.5892578125 130.75 -190 130.746484375 -190.4107421875 130.45 -190.7 130.1607421875 -190.996484375 129.75 -191
L 126.75 -191
Q 126.3392578125 -190.996484375 126.05 -190.7
M 123.45 -190.7
Q 123.1607421875 -190.996484375 122.75 -191
L 119.75 -191
Q 119.3392578125 -190.996484375 119.05 -190.7 118.753515625 -190.4107421875 118.75 -190 118.753515625 -189.5892578125 119.05 -189.3 119.3392578125 -189.003515625 119.75 -189
L 122.75 -189
Q 123.1607421875 -189.003515625 123.45 -189.3 123.746484375 -189.5892578125 123.75 -190 123.746484375 -190.4107421875 123.45 -190.7
M 133.75 -191
Q 133.3392578125 -190.996484375 133.05 -190.7 132.753515625 -190.4107421875 132.75 -190 132.753515625 -189.5892578125 133.05 -189.3 133.3392578125 -189.003515625 133.75 -189
L 136.75 -189
Q 137.1607421875 -189.003515625 137.45 -189.3 137.746484375 -189.5892578125 137.75 -190 137.746484375 -190.4107421875 137.45 -190.7 137.1607421875 -190.996484375 136.75 -191
L 133.75 -191 Z"/>
</g>

<g id="fdbdfnd4647_1_Layer0_5_STROKES_1_FILL">
<path fill="#666666" stroke="none" d="
M -139.25 -191
Q -139.6607421875 -190.996484375 -139.95 -190.7 -140.246484375 -190.4107421875 -140.25 -190 -140.246484375 -189.5892578125 -139.95 -189.3 -139.6607421875 -189.003515625 -139.25 -189
L -136.25 -189
Q -135.8392578125 -189.003515625 -135.55 -189.3 -135.253515625 -189.5892578125 -135.25 -190 -135.253515625 -190.4107421875 -135.55 -190.7 -135.8392578125 -190.996484375 -136.25 -191
L -139.25 -191
M -125.95 -190.7
Q -126.246484375 -190.4107421875 -126.25 -190 -126.246484375 -189.5892578125 -125.95 -189.3 -125.6607421875 -189.003515625 -125.25 -189
L -122.25 -189
Q -121.8392578125 -189.003515625 -121.55 -189.3 -121.253515625 -189.5892578125 -121.25 -190 -121.253515625 -190.4107421875 -121.55 -190.7 -121.8392578125 -190.996484375 -122.25 -191
L -125.25 -191
Q -125.6607421875 -190.996484375 -125.95 -190.7
M -128.55 -190.7
Q -128.8392578125 -190.996484375 -129.25 -191
L -132.25 -191
Q -132.6607421875 -190.996484375 -132.95 -190.7 -133.246484375 -190.4107421875 -133.25 -190 -133.246484375 -189.5892578125 -132.95 -189.3 -132.6607421875 -189.003515625 -132.25 -189
L -129.25 -189
Q -128.8392578125 -189.003515625 -128.55 -189.3 -128.253515625 -189.5892578125 -128.25 -190 -128.253515625 -190.4107421875 -128.55 -190.7
M -118.25 -191
Q -118.6607421875 -190.996484375 -118.95 -190.7 -119.246484375 -190.4107421875 -119.25 -190 -119.246484375 -189.5892578125 -118.95 -189.3 -118.6607421875 -189.003515625 -118.25 -189
L -115.25 -189
Q -114.8392578125 -189.003515625 -114.55 -189.3 -114.253515625 -189.5892578125 -114.25 -190 -114.253515625 -190.4107421875 -114.55 -190.7 -114.8392578125 -190.996484375 -115.25 -191
L -118.25 -191
M -108.25 -191
L -111.25 -191
Q -111.6607421875 -190.996484375 -111.95 -190.7 -112.246484375 -190.4107421875 -112.25 -190 -112.246484375 -189.5892578125 -111.95 -189.3 -111.6607421875 -189.003515625 -111.25 -189
L -108.25 -189
Q -107.8392578125 -189.003515625 -107.55 -189.3 -107.253515625 -189.5892578125 -107.25 -190 -107.253515625 -190.4107421875 -107.55 -190.7 -107.8392578125 -190.996484375 -108.25 -191
M -100.25 -190
Q -100.253515625 -190.4107421875 -100.55 -190.7 -100.8392578125 -190.996484375 -101.25 -191
L -104.25 -191
Q -104.6607421875 -190.996484375 -104.95 -190.7 -105.246484375 -190.4107421875 -105.25 -190 -105.246484375 -189.5892578125 -104.95 -189.3 -104.6607421875 -189.003515625 -104.25 -189
L -101.25 -189
Q -100.8392578125 -189.003515625 -100.55 -189.3 -100.253515625 -189.5892578125 -100.25 -190
M -97.95 -189.3
Q -97.6607421875 -189.003515625 -97.25 -189
L -94.25 -189
Q -93.8392578125 -189.003515625 -93.55 -189.3 -93.253515625 -189.5892578125 -93.25 -190 -93.253515625 -190.4107421875 -93.55 -190.7 -93.8392578125 -190.996484375 -94.25 -191
L -97.25 -191
Q -97.6607421875 -190.996484375 -97.95 -190.7 -98.246484375 -190.4107421875 -98.25 -190 -98.246484375 -189.5892578125 -97.95 -189.3
M -86.55 -190.7
Q -86.8392578125 -190.996484375 -87.25 -191
L -90.25 -191
Q -90.6607421875 -190.996484375 -90.95 -190.7 -91.246484375 -190.4107421875 -91.25 -190 -91.246484375 -189.5892578125 -90.95 -189.3 -90.6607421875 -189.003515625 -90.25 -189
L -87.25 -189
Q -86.8392578125 -189.003515625 -86.55 -189.3 -86.253515625 -189.5892578125 -86.25 -190 -86.253515625 -190.4107421875 -86.55 -190.7
M -76.25 -191
Q -76.6607421875 -190.996484375 -76.95 -190.7 -77.246484375 -190.4107421875 -77.25 -190 -77.246484375 -189.5892578125 -76.95 -189.3 -76.6607421875 -189.003515625 -76.25 -189
L -73.25 -189
Q -72.8392578125 -189.003515625 -72.55 -189.3 -72.253515625 -189.5892578125 -72.25 -190 -72.253515625 -190.4107421875 -72.55 -190.7 -72.8392578125 -190.996484375 -73.25 -191
L -76.25 -191
M -79.55 -190.7
Q -79.8392578125 -190.996484375 -80.25 -191
L -83.25 -191
Q -83.6607421875 -190.996484375 -83.95 -190.7 -84.246484375 -190.4107421875 -84.25 -190 -84.246484375 -189.5892578125 -83.95 -189.3 -83.6607421875 -189.003515625 -83.25 -189
L -80.25 -189
Q -79.8392578125 -189.003515625 -79.55 -189.3 -79.253515625 -189.5892578125 -79.25 -190 -79.253515625 -190.4107421875 -79.55 -190.7
M -69.95 -189.3
Q -69.6607421875 -189.003515625 -69.25 -189
L -66.25 -189
Q -65.8392578125 -189.003515625 -65.55 -189.3 -65.253515625 -189.5892578125 -65.25 -190 -65.253515625 -190.4107421875 -65.55 -190.7 -65.8392578125 -190.996484375 -66.25 -191
L -69.25 -191
Q -69.6607421875 -190.996484375 -69.95 -190.7 -70.246484375 -190.4107421875 -70.25 -190 -70.246484375 -189.5892578125 -69.95 -189.3
M -58.25 -190
Q -58.253515625 -190.4107421875 -58.55 -190.7 -58.8392578125 -190.996484375 -59.25 -191
L -62.25 -191
Q -62.6607421875 -190.996484375 -62.95 -190.7 -63.246484375 -190.4107421875 -63.25 -190 -63.246484375 -189.5892578125 -62.95 -189.3 -62.6607421875 -189.003515625 -62.25 -189
L -59.25 -189
Q -58.8392578125 -189.003515625 -58.55 -189.3 -58.253515625 -189.5892578125 -58.25 -190
M -56.25 -190
Q -56.246484375 -189.5892578125 -55.95 -189.3 -55.6607421875 -189.003515625 -55.25 -189
L -52.25 -189
Q -51.8392578125 -189.003515625 -51.55 -189.3 -51.253515625 -189.5892578125 -51.25 -190 -51.253515625 -190.4107421875 -51.55 -190.7 -51.8392578125 -190.996484375 -52.25 -191
L -55.25 -191
Q -55.6607421875 -190.996484375 -55.95 -190.7 -56.246484375 -190.4107421875 -56.25 -190
M -48.25 -191
Q -48.6607421875 -190.996484375 -48.95 -190.7 -49.246484375 -190.4107421875 -49.25 -190 -49.246484375 -189.5892578125 -48.95 -189.3 -48.6607421875 -189.003515625 -48.25 -189
L -45.25 -189
Q -44.8392578125 -189.003515625 -44.55 -189.3 -44.253515625 -189.5892578125 -44.25 -190 -44.253515625 -190.4107421875 -44.55 -190.7 -44.8392578125 -190.996484375 -45.25 -191
L -48.25 -191
M -34.95 -190.7
Q -35.246484375 -190.4107421875 -35.25 -190 -35.246484375 -189.5892578125 -34.95 -189.3 -34.6607421875 -189.003515625 -34.25 -189
L -31.25 -189
Q -30.8392578125 -189.003515625 -30.55 -189.3 -30.253515625 -189.5892578125 -30.25 -190 -30.253515625 -190.4107421875 -30.55 -190.7 -30.8392578125 -190.996484375 -31.25 -191
L -34.25 -191
Q -34.6607421875 -190.996484375 -34.95 -190.7
M -37.55 -190.7
Q -37.8392578125 -190.996484375 -38.25 -191
L -41.25 -191
Q -41.6607421875 -190.996484375 -41.95 -190.7 -42.246484375 -190.4107421875 -42.25 -190 -42.246484375 -189.5892578125 -41.95 -189.3 -41.6607421875 -189.003515625 -41.25 -189
L -38.25 -189
Q -37.8392578125 -189.003515625 -37.55 -189.3 -37.253515625 -189.5892578125 -37.25 -190 -37.253515625 -190.4107421875 -37.55 -190.7
M -27.95 -189.3
Q -27.6607421875 -189.003515625 -27.25 -189
L -24.25 -189
Q -23.8392578125 -189.003515625 -23.55 -189.3 -23.253515625 -189.5892578125 -23.25 -190 -23.253515625 -190.4107421875 -23.55 -190.7 -23.8392578125 -190.996484375 -24.25 -191
L -27.25 -191
Q -27.6607421875 -190.996484375 -27.95 -190.7 -28.246484375 -190.4107421875 -28.25 -190 -28.246484375 -189.5892578125 -27.95 -189.3
M -16.25 -190
Q -16.253515625 -190.4107421875 -16.55 -190.7 -16.8392578125 -190.996484375 -17.25 -191
L -20.25 -191
Q -20.6607421875 -190.996484375 -20.95 -190.7 -21.246484375 -190.4107421875 -21.25 -190 -21.246484375 -189.5892578125 -20.95 -189.3 -20.6607421875 -189.003515625 -20.25 -189
L -17.25 -189
Q -16.8392578125 -189.003515625 -16.55 -189.3 -16.253515625 -189.5892578125 -16.25 -190
M -6.25 -191
Q -6.6607421875 -190.996484375 -6.95 -190.7 -7.246484375 -190.4107421875 -7.25 -190 -7.246484375 -189.5892578125 -6.95 -189.3 -6.6607421875 -189.003515625 -6.25 -189
L -3.25 -189
Q -2.8392578125 -189.003515625 -2.55 -189.3 -2.253515625 -189.5892578125 -2.25 -190 -2.253515625 -190.4107421875 -2.55 -190.7 -2.8392578125 -190.996484375 -3.25 -191
L -6.25 -191
M -9.55 -189.3
Q -9.253515625 -189.5892578125 -9.25 -190 -9.253515625 -190.4107421875 -9.55 -190.7 -9.8392578125 -190.996484375 -10.25 -191
L -13.25 -191
Q -13.6607421875 -190.996484375 -13.95 -190.7 -14.246484375 -190.4107421875 -14.25 -190 -14.246484375 -189.5892578125 -13.95 -189.3 -13.6607421875 -189.003515625 -13.25 -189
L -10.25 -189
Q -9.8392578125 -189.003515625 -9.55 -189.3
M 4.45 -190.7
Q 4.1607421875 -190.996484375 3.75 -191
L 0.75 -191
Q 0.3392578125 -190.996484375 0.05 -190.7 -0.246484375 -190.4107421875 -0.25 -190 -0.246484375 -189.5892578125 0.05 -189.3 0.3392578125 -189.003515625 0.75 -189
L 3.75 -189
Q 4.1607421875 -189.003515625 4.45 -189.3 4.746484375 -189.5892578125 4.75 -190 4.746484375 -190.4107421875 4.45 -190.7
M 10.75 -189
Q 11.1607421875 -189.003515625 11.45 -189.3 11.746484375 -189.5892578125 11.75 -190 11.746484375 -190.4107421875 11.45 -190.7 11.1607421875 -190.996484375 10.75 -191
L 7.75 -191
Q 7.3392578125 -190.996484375 7.05 -190.7 6.753515625 -190.4107421875 6.75 -190 6.753515625 -189.5892578125 7.05 -189.3 7.3392578125 -189.003515625 7.75 -189
L 10.75 -189
M 14.05 -189.3
Q 14.3392578125 -189.003515625 14.75 -189
L 17.75 -189
Q 18.1607421875 -189.003515625 18.45 -189.3 18.746484375 -189.5892578125 18.75 -190 18.746484375 -190.4107421875 18.45 -190.7 18.1607421875 -190.996484375 17.75 -191
L 14.75 -191
Q 14.3392578125 -190.996484375 14.05 -190.7 13.753515625 -190.4107421875 13.75 -190 13.753515625 -189.5892578125 14.05 -189.3
M 21.05 -189.3
Q 21.3392578125 -189.003515625 21.75 -189
L 24.75 -189
Q 25.1607421875 -189.003515625 25.45 -189.3 25.746484375 -189.5892578125 25.75 -190 25.746484375 -190.4107421875 25.45 -190.7 25.1607421875 -190.996484375 24.75 -191
L 21.75 -191
Q 21.3392578125 -190.996484375 21.05 -190.7 20.753515625 -190.4107421875 20.75 -190 20.753515625 -189.5892578125 21.05 -189.3
M 35.05 -190.7
Q 34.753515625 -190.4107421875 34.75 -190 34.753515625 -189.5892578125 35.05 -189.3 35.3392578125 -189.003515625 35.75 -189
L 38.75 -189
Q 39.1607421875 -189.003515625 39.45 -189.3 39.746484375 -189.5892578125 39.75 -190 39.746484375 -190.4107421875 39.45 -190.7 39.1607421875 -190.996484375 38.75 -191
L 35.75 -191
Q 35.3392578125 -190.996484375 35.05 -190.7
M 32.45 -190.7
Q 32.1607421875 -190.996484375 31.75 -191
L 28.75 -191
Q 28.3392578125 -190.996484375 28.05 -190.7 27.753515625 -190.4107421875 27.75 -190 27.753515625 -189.5892578125 28.05 -189.3 28.3392578125 -189.003515625 28.75 -189
L 31.75 -189
Q 32.1607421875 -189.003515625 32.45 -189.3 32.746484375 -189.5892578125 32.75 -190 32.746484375 -190.4107421875 32.45 -190.7
M 42.75 -191
Q 42.3392578125 -190.996484375 42.05 -190.7 41.753515625 -190.4107421875 41.75 -190 41.753515625 -189.5892578125 42.05 -189.3 42.3392578125 -189.003515625 42.75 -189
L 45.75 -189
Q 46.1607421875 -189.003515625 46.45 -189.3 46.746484375 -189.5892578125 46.75 -190 46.746484375 -190.4107421875 46.45 -190.7 46.1607421875 -190.996484375 45.75 -191
L 42.75 -191
M 56.05 -190.7
Q 55.753515625 -190.4107421875 55.75 -190 55.753515625 -189.5892578125 56.05 -189.3 56.3392578125 -189.003515625 56.75 -189
L 59.75 -189
Q 60.1607421875 -189.003515625 60.45 -189.3 60.746484375 -189.5892578125 60.75 -190 60.746484375 -190.4107421875 60.45 -190.7 60.1607421875 -190.996484375 59.75 -191
L 56.75 -191
Q 56.3392578125 -190.996484375 56.05 -190.7
M 52.75 -189
Q 53.1607421875 -189.003515625 53.45 -189.3 53.746484375 -189.5892578125 53.75 -190 53.746484375 -190.4107421875 53.45 -190.7 53.1607421875 -190.996484375 52.75 -191
L 49.75 -191
Q 49.3392578125 -190.996484375 49.05 -190.7 48.753515625 -190.4107421875 48.75 -190 48.753515625 -189.5892578125 49.05 -189.3 49.3392578125 -189.003515625 49.75 -189
L 52.75 -189
M 63.05 -189.3
Q 63.3392578125 -189.003515625 63.75 -189
L 66.75 -189
Q 67.1607421875 -189.003515625 67.45 -189.3 67.746484375 -189.5892578125 67.75 -190 67.746484375 -190.4107421875 67.45 -190.7 67.1607421875 -190.996484375 66.75 -191
L 63.75 -191
Q 63.3392578125 -190.996484375 63.05 -190.7 62.753515625 -190.4107421875 62.75 -190 62.753515625 -189.5892578125 63.05 -189.3
M 74.45 -190.7
Q 74.1607421875 -190.996484375 73.75 -191
L 70.75 -191
Q 70.3392578125 -190.996484375 70.05 -190.7 69.753515625 -190.4107421875 69.75 -190 69.753515625 -189.5892578125 70.05 -189.3 70.3392578125 -189.003515625 70.75 -189
L 73.75 -189
Q 74.1607421875 -189.003515625 74.45 -189.3 74.746484375 -189.5892578125 74.75 -190 74.746484375 -190.4107421875 74.45 -190.7
M 84.75 -191
Q 84.3392578125 -190.996484375 84.05 -190.7 83.753515625 -190.4107421875 83.75 -190 83.753515625 -189.5892578125 84.05 -189.3 84.3392578125 -189.003515625 84.75 -189
L 87.75 -189
Q 88.1607421875 -189.003515625 88.45 -189.3 88.746484375 -189.5892578125 88.75 -190 88.746484375 -190.4107421875 88.45 -190.7 88.1607421875 -190.996484375 87.75 -191
L 84.75 -191
M 81.75 -190
Q 81.746484375 -190.4107421875 81.45 -190.7 81.1607421875 -190.996484375 80.75 -191
L 77.75 -191
Q 77.3392578125 -190.996484375 77.05 -190.7 76.753515625 -190.4107421875 76.75 -190 76.753515625 -189.5892578125 77.05 -189.3 77.3392578125 -189.003515625 77.75 -189
L 80.75 -189
Q 81.1607421875 -189.003515625 81.45 -189.3 81.746484375 -189.5892578125 81.75 -190
M 94.75 -191
L 91.75 -191
Q 91.3392578125 -190.996484375 91.05 -190.7 90.753515625 -190.4107421875 90.75 -190 90.753515625 -189.5892578125 91.05 -189.3 91.3392578125 -189.003515625 91.75 -189
L 94.75 -189
Q 95.1607421875 -189.003515625 95.45 -189.3 95.746484375 -189.5892578125 95.75 -190 95.746484375 -190.4107421875 95.45 -190.7 95.1607421875 -190.996484375 94.75 -191
M 102.75 -190
Q 102.746484375 -190.4107421875 102.45 -190.7 102.1607421875 -190.996484375 101.75 -191
L 98.75 -191
Q 98.3392578125 -190.996484375 98.05 -190.7 97.753515625 -190.4107421875 97.75 -190 97.753515625 -189.5892578125 98.05 -189.3 98.3392578125 -189.003515625 98.75 -189
L 101.75 -189
Q 102.1607421875 -189.003515625 102.45 -189.3 102.746484375 -189.5892578125 102.75 -190
M 105.05 -189.3
Q 105.3392578125 -189.003515625 105.75 -189
L 108.75 -189
Q 109.1607421875 -189.003515625 109.45 -189.3 109.746484375 -189.5892578125 109.75 -190 109.746484375 -190.4107421875 109.45 -190.7 109.1607421875 -190.996484375 108.75 -191
L 105.75 -191
Q 105.3392578125 -190.996484375 105.05 -190.7 104.753515625 -190.4107421875 104.75 -190 104.753515625 -189.5892578125 105.05 -189.3
M 115.75 -191
L 112.75 -191
Q 112.3392578125 -190.996484375 112.05 -190.7 111.753515625 -190.4107421875 111.75 -190 111.753515625 -189.5892578125 112.05 -189.3 112.3392578125 -189.003515625 112.75 -189
L 115.75 -189
Q 116.1607421875 -189.003515625 116.45 -189.3 116.746484375 -189.5892578125 116.75 -190 116.746484375 -190.4107421875 116.45 -190.7 116.1607421875 -190.996484375 115.75 -191
M 126.05 -190.7
Q 125.753515625 -190.4107421875 125.75 -190 125.753515625 -189.5892578125 126.05 -189.3 126.3392578125 -189.003515625 126.75 -189
L 129.75 -189
Q 130.1607421875 -189.003515625 130.45 -189.3 130.746484375 -189.5892578125 130.75 -190 130.746484375 -190.4107421875 130.45 -190.7 130.1607421875 -190.996484375 129.75 -191
L 126.75 -191
Q 126.3392578125 -190.996484375 126.05 -190.7
M 123.45 -190.7
Q 123.1607421875 -190.996484375 122.75 -191
L 119.75 -191
Q 119.3392578125 -190.996484375 119.05 -190.7 118.753515625 -190.4107421875 118.75 -190 118.753515625 -189.5892578125 119.05 -189.3 119.3392578125 -189.003515625 119.75 -189
L 122.75 -189
Q 123.1607421875 -189.003515625 123.45 -189.3 123.746484375 -189.5892578125 123.75 -190 123.746484375 -190.4107421875 123.45 -190.7
M 133.75 -191
Q 133.3392578125 -190.996484375 133.05 -190.7 132.753515625 -190.4107421875 132.75 -190 132.753515625 -189.5892578125 133.05 -189.3 133.3392578125 -189.003515625 133.75 -189
L 136.75 -189
Q 137.1607421875 -189.003515625 137.45 -189.3 137.746484375 -189.5892578125 137.75 -190 137.746484375 -190.4107421875 137.45 -190.7 137.1607421875 -190.996484375 136.75 -191
L 133.75 -191 Z"/>
</g>

<path id="dsbfsdbfdn44_0_Layer1_0_1_STROKES" stroke="#000000" stroke-width="3" stroke-linejoin="round" stroke-linecap="round" fill="none" d="
M -92.45 58.45
L 78.2 58.45 -92.45 -55.8"/>

<path id="dsbfsdbfdn44_0_Layer1_0_2_STROKES" stroke="#E50182" stroke-width="3" stroke-linejoin="round" stroke-linecap="round" fill="none" d="
M -92.45 -55.8
L -92.45 58.45"/>

<path id="dsbfsdbfdn44_2_Layer1_0_1_STROKES" stroke="#000000" stroke-width="3" stroke-linejoin="round" stroke-linecap="round" fill="none" d="
M 77.45 58.45
L -93.2 58.45 77.45 -55.8"/>

<path id="dsbfsdbfdn44_2_Layer1_0_2_STROKES" stroke="#E50182" stroke-width="3" stroke-linejoin="round" stroke-linecap="round" fill="none" d="
M 77.45 -55.8
L 77.45 58.45"/>

<path id="dsbfsdbfdn44_1_Layer1_0_1_STROKES" stroke="#000000" stroke-width="3" stroke-linejoin="round" stroke-linecap="round" fill="none" d="
M -92.45 -110.85
L 78.2 -110.85 -92.45 3.4"/>

<path id="dsbfsdbfdn44_1_Layer1_0_2_STROKES" stroke="#E50182" stroke-width="3" stroke-linejoin="round" stroke-linecap="round" fill="none" d="
M -92.45 3.4
L -92.45 4.4
M -92.45 3.4
L -92.45 -109.85"/>

<path id="fgbgfnfmt58_0_Layer0_0_1_STROKES" stroke="#E50182" stroke-width="2" stroke-linejoin="round" stroke-linecap="round" fill="none" d="
M 5.1 8.85
Q 4.75 9.55 4.45 10.2 2.35 14.5 -0.6 14.5 -3.5 14.5 -5.65 10.2 -7.75 5.95 -7.75 -0.1 -7.75 -6.1 -5.65 -10.35 -3.5 -14.55 -0.6 -14.55 0.65 -14.55 1.75 -13.75 3.25 -12.75 4.45 -10.35 4.8 -9.65 5.1 -8.9"/>
</defs>

<g transform="matrix( 1, 0, 0, 1, 640,525) ">
<g transform="matrix( 1, 0, 0, 1, 7.5,26.55) ">
<g transform="matrix( 1, 0, 0, 1, 0,0) ">
<use xlink:href="#dsbfsdbfdn44_0_Layer1_0_1_STROKES"/>

<use xlink:href="#dsbfsdbfdn44_0_Layer1_0_2_STROKES"/>
</g>

<g transform="matrix( 0.79998779296875, 0, 0, 0.79998779296875, -107.35,-51.55) ">
<g transform="matrix( 1, 0, 0, 1, 0,0) ">
</g>
</g>

<g transform="matrix( 0.79998779296875, 0, 0, 0.79998779296875, -107.35,94) ">
<g transform="matrix( 1, 0, 0, 1, 0,0) ">
</g>
</g>

<g transform="matrix( 0.79998779296875, 0, 0, 0.79998779296875, 93.35,94) ">
<g transform="matrix( 1, 0, 0, 1, 0,0) ">
</g>
</g>
</g>

<g transform="matrix( 1, 0, 0, 1, -372.5,26.55) ">
<g transform="matrix( 1, 0, 0, 1, 0,0) ">
<use xlink:href="#dsbfsdbfdn44_2_Layer1_0_1_STROKES"/>

<use xlink:href="#dsbfsdbfdn44_2_Layer1_0_2_STROKES"/>
</g>

<g transform="matrix( 0.79998779296875, 0, 0, 0.79998779296875, 92.35,-46.55) ">
<g transform="matrix( 1, 0, 0, 1, 0,0) ">
</g>
</g>

<g transform="matrix( 0.79998779296875, 0, 0, 0.79998779296875, 92.35,94) ">
<g transform="matrix( 1, 0, 0, 1, 0,0) ">
</g>
</g>

<g transform="matrix( 0.79998779296875, 0, 0, 0.79998779296875, -107.35,94) ">
<g transform="matrix( 1, 0, 0, 1, 0,0) ">
</g>
</g>
</g>

<g transform="matrix( 1, 0, 0, 1, 7.5,-353.45) ">
<g transform="matrix( 1, 0, 0, 1, 0,0) ">
<use xlink:href="#dsbfsdbfdn44_1_Layer1_0_1_STROKES"/>

<use xlink:href="#dsbfsdbfdn44_1_Layer1_0_2_STROKES"/>
</g>

<g transform="matrix( 0.79998779296875, 0, 0, 0.79998779296875, -105.35,39.15) ">
<g transform="matrix( 1, 0, 0, 1, 0,0) ">
</g>
</g>

<g transform="matrix( 0.79998779296875, 0, 0, 0.79998779296875, -105.35,-105.2) ">
<g transform="matrix( 1, 0, 0, 1, 0,0) ">
</g>
</g>

<g transform="matrix( 0.79998779296875, 0, 0, 0.79998779296875, 92.35,-105.2) ">
<g transform="matrix( 1, 0, 0, 1, 0,0) ">
</g>
</g>
</g>

<g transform="matrix( 1, 0, 0, 1, 0.05,0) ">
<use xlink:href="#fdbdfnd4647_1_Layer0_0_STROKES_1_FILL"/>
</g>

<g transform="matrix( 1, 0, 0, 1, 0.05,-190) ">
<g transform="matrix( 1, 0, 0, 1, 0,0) ">
<use xlink:href="#fgbgfnfmt58_0_Layer0_0_1_STROKES"/>
</g>

<g transform="matrix( 0.8411712646484375, 0.6676483154296875, -0.6676483154296875, 0.8411712646484375, 327.2,324.75) ">
<use xlink:href="#fgbgfnfmt58_0_Layer0_1_FILL"/>
</g>
</g>

<g transform="matrix( 1, 0, 0, 1, 0.05,380) ">
<use xlink:href="#fdbdfnd4647_1_Layer0_2_STROKES_1_FILL"/>
</g>

<g transform="matrix( 0, 1, -1, 0, -380,0.05) ">
<use xlink:href="#fdbdfnd4647_1_Layer0_3_STROKES_1_FILL"/>
</g>

<g transform="matrix( 0, 1, 1, 0, -189.9,0.05) ">
<g transform="matrix( 1, 0, 0, 1, 0,0) ">
<use xlink:href="#fgbgfnfmt58_0_Layer0_0_1_STROKES"/>
</g>

<g transform="matrix( 0.8411712646484375, 0.6676483154296875, -0.6676483154296875, 0.8411712646484375, 327.2,324.75) ">
<use xlink:href="#fgbgfnfmt58_0_Layer0_1_FILL"/>
</g>
</g>

<g transform="matrix( 0, 1, -1, 0, 0,0.05) ">
<use xlink:href="#fdbdfnd4647_1_Layer0_5_STROKES_1_FILL"/>
</g>

<g transform="matrix( 1, 0, 0, -1, 0.05,189.9) ">
<g transform="matrix( 1, 0, 0, 1, 0,0) ">
<use xlink:href="#fgbgfnfmt58_0_Layer0_0_1_STROKES"/>
</g>

<g transform="matrix( 0.8411712646484375, 0.6676483154296875, -0.6676483154296875, 0.8411712646484375, 327.2,324.75) ">
<use xlink:href="#fgbgfnfmt58_0_Layer0_1_FILL"/>
</g>
</g>

<g transform="matrix( 0, 1, -1, 0, 190,0.05) ">
<g transform="matrix( 1, 0, 0, 1, 0,0) ">
<use xlink:href="#fgbgfnfmt58_0_Layer0_0_1_STROKES"/>
</g>

<g transform="matrix( 0.8411712646484375, 0.6676483154296875, -0.6676483154296875, 0.8411712646484375, 327.2,324.75) ">
<use xlink:href="#fgbgfnfmt58_0_Layer0_1_FILL"/>
</g>
</g>
</g>
</svg>
