<?xml version="1.0" encoding="utf-8"?>
<!-- Generator: Adobe Illustrator 23.1.0, SVG Export Plug-In . SVG Version: 6.00 Build 0)  -->
<svg version="1.1" id="레이어_1" xmlns="http://www.w3.org/2000/svg" xmlns:xlink="http://www.w3.org/1999/xlink" x="0px"
	 y="0px" width="369px" height="160px" viewBox="0 0 369 160" style="enable-background:new 0 0 369 160;" xml:space="preserve">
<g>
	<line style="fill:none;stroke:#00ADEE;stroke-width:0.8;stroke-dasharray:1.5,1;" x1="2" y1="2" x2="367.1" y2="2"/>
	<path style="fill:none;stroke:#6DCEF5;stroke-width:0.8;stroke-dasharray:1.5,1;" d="M2,106.3h365.1 M2,132.4h365.1 M2,80.2h365.1
		 M2,54.2h365.1 M2,28.1h365.1"/>
	<path style="fill:none;stroke:#00ADEE;stroke-width:0.8;stroke-dasharray:1.5,1;" d="M367.1,2v156.5 M367.1,158.5H2"/>
	<path style="fill:none;stroke:#6DCEF5;stroke-width:0.8;stroke-dasharray:1.5,1;" d="M28.1,2v156.5 M54.2,2v156.5 M80.2,2v156.5
		 M132.4,2v156.5 M210.6,2v156.5 M158.5,2v156.5 M262.8,2v156.5 M314.9,2v156.5 M236.7,2v156.5 M106.3,2v156.5 M184.6,2v156.5
		 M288.9,2v156.5 M341,2v156.5"/>
	<line style="fill:none;stroke:#00ADEE;stroke-width:0.8;stroke-dasharray:1.5,1;" x1="2" y1="158.5" x2="2" y2="2"/>
</g>
<path style="fill:none;stroke:#00ADEE;stroke-width:2;" d="M340.9,80l-52.1,52.1L236.7,80L288.8,28L340.9,80z M210.6,54H106v78.5
	h104.6V54z M79.9,132.4H27.8V27.9h52.1V132.4z"/>
</svg>
