
<svg xmlns="http://www.w3.org/2000/svg" version="1.1" xmlns:xlink="http://www.w3.org/1999/xlink" preserveAspectRatio="none" x="0px" y="0px" width="1280px" height="720px" viewBox="0 0 1280 720">
<defs>
<g id="Layer0_0_FILL">
<path fill="#1E1E1E" stroke="none" d="
M 828 487.95
Q 828.6 487.7 829.4 487.45 830.2 487.2 831 487.05 831.8 486.85 832.55 486.75 833.25 486.65 833.8 486.65 834.65 486.65 835.6 486.85 836.55 487.05 837.4 487.55 838.2 488 838.75 488.8 839.25 489.55 839.25 490.55 839.25 491.9 838.45 492.8 837.65 493.75 836.45 494.35 835.3 494.95 834.05 495.2 832.8 495.45 831.95 495.45
L 830.05 495.45
Q 829.7 495.45 829.6 495.55 829.5 495.6 829.5 496
L 829.5 498.95
Q 829.5 499.25 829.6 499.35 829.7 499.45 830.05 499.45
L 832 499.45
Q 833.95 499.45 835.3 499.85 836.7 500.2 837.6 500.9 838.45 501.55 838.9 502.4 839.3 503.25 839.3 504.2 839.3 506.85 837.35 508.2 836.7 508.65 835.95 508.9 835.15 509.2 834.3 509.3 833.45 509.4 832.55 509.35 831.65 509.3 830.85 509.25 829.75 509.15 828.7 508.85 827.65 508.55 826.6 508.25 826.05 508 825.85 508.15 825.65 508.25 825.6 508.6
L 825.25 511.65
Q 825.2 512 825.4 512.15 825.55 512.35 825.95 512.45 827.4 513 829.15 513.3 830.9 513.6 832.65 513.6 834.95 513.6 837.1 513 839.25 512.45 840.75 511.2 842.25 509.95 843.1 508.2 843.9 506.4 843.9 504.3 843.9 502.1 842.55 500.3 841.2 498.55 838.55 497.4 839.65 496.9 840.6 496.15 841.55 495.4 842.25 494.4 842.95 493.45 843.35 492.4 843.7 491.3 843.7 490.2 843.7 488.2 842.85 486.7 842 485.2 840.65 484.3 839.35 483.4 837.6 482.95 835.85 482.5 834.05 482.5 832.35 482.5 830.7 482.85 829 483.25 827.25 483.85 826.85 484.05 826.7 484.25 826.55 484.4 826.65 484.65
L 827 487.6
Q 827.1 487.95 827.3 488.05 827.5 488.15 828 487.95
M 810.4 482.95
Q 810.2 483 810.15 483.1
L 804 488.75
Q 803.8 488.95 803.8 489.15 803.75 489.4 803.9 489.55
L 805.7 491.7
Q 805.85 491.85 806.1 491.8 806.35 491.8 806.6 491.65
L 809.55 489.05 809.55 512.75
Q 809.55 513.25 810.1 513.25
L 813.3 513.25
Q 813.8 513.25 813.8 512.75
L 813.8 483.95
Q 813.8 483.15 813.65 483 813.55 482.85 812.85 482.85
L 810.75 482.85
Q 810.6 482.85 810.4 482.95
M 367.75 529.25
Q 367.95 529.25 368.1 529.1 368.25 529 368.25 528.75
L 368.25 525.6
Q 368.25 525.4 368.1 525.25 367.95 525.15 367.75 525.15
L 346.65 525.15
Q 346.45 525.15 346.3 525.25 346.15 525.4 346.15 525.6
L 346.15 528.75
Q 346.15 529 346.3 529.1 346.45 529.25 346.65 529.25
L 367.75 529.25
M 368.1 516.95
Q 367.95 516.8 367.75 516.8
L 346.65 516.8
Q 346.45 516.8 346.3 516.95 346.15 517.1 346.15 517.3
L 346.15 520.45
Q 346.15 520.65 346.3 520.8 346.45 520.95 346.65 520.95
L 367.75 520.95
Q 367.95 520.95 368.1 520.8 368.25 520.65 368.25 520.45
L 368.25 517.3
Q 368.25 517.1 368.1 516.95
M 271.2 514.55
L 273 516.7
Q 273.15 516.85 273.4 516.8 273.65 516.8 273.9 516.65
L 276.85 514.05 276.85 537.75
Q 276.85 538.25 277.4 538.25
L 280.6 538.25
Q 281.1 538.25 281.1 537.75
L 281.1 508.95
Q 281.1 508.15 280.95 508 280.85 507.85 280.15 507.85
L 278.05 507.85
Q 277.9 507.85 277.7 507.95 277.5 508 277.45 508.1
L 271.3 513.75
Q 271.1 513.95 271.1 514.15 271.05 514.4 271.2 514.55
M 302.25 532.85
Q 301.55 532.85 301.55 533.5
L 301.55 536.3
Q 301.55 536.65 301.75 536.8 301.95 537 302.25 537
L 315 537 304.55 562.55
Q 304.4 563 304.55 563.1 304.7 563.25 305.3 563.25
L 308.55 563.25
Q 308.95 563.25 309.1 563.15 309.25 563 309.45 562.7
L 320 536.65
Q 320.25 536.35 320.25 536
L 320.25 533.6
Q 320.25 533.15 320.1 533 319.95 532.85 319.25 532.85
L 302.25 532.85
M 239.5 524.9
Q 239.6 525.05 239.8 525.05
L 260.95 525.05
Q 261.45 525.05 261.45 524.55
L 261.45 521.45
Q 261.45 520.95 260.95 520.95
L 239.8 520.95
Q 239.6 520.95 239.5 521.1 239.35 521.25 239.35 521.45
L 239.35 524.55
Q 239.35 524.75 239.5 524.9
M 224.3 515.55
Q 224.3 516.9 223.5 517.8 222.7 518.75 221.5 519.35 220.35 519.95 219.1 520.2 217.85 520.45 217 520.45
L 215.1 520.45
Q 214.75 520.45 214.65 520.55 214.55 520.6 214.55 521
L 214.55 523.95
Q 214.55 524.25 214.65 524.35 214.75 524.45 215.1 524.45
L 217.05 524.45
Q 219 524.45 220.35 524.85 221.75 525.2 222.65 525.9 223.5 526.55 223.95 527.4 224.35 528.25 224.35 529.2 224.35 531.85 222.4 533.2 221.75 533.65 221 533.9 220.2 534.2 219.35 534.3 218.5 534.4 217.6 534.35 216.7 534.3 215.9 534.25 214.8 534.15 213.75 533.85 212.7 533.55 211.65 533.25 211.1 533 210.9 533.15 210.7 533.25 210.65 533.6
L 210.3 536.65
Q 210.25 537 210.45 537.15 210.6 537.35 211 537.45 212.45 538 214.2 538.3 215.95 538.6 217.7 538.6 220 538.6 222.15 538 224.3 537.45 225.8 536.2 227.3 534.95 228.15 533.2 228.95 531.4 228.95 529.3 228.95 527.1 227.6 525.3 226.25 523.55 223.6 522.4 224.7 521.9 225.65 521.15 226.6 520.4 227.3 519.4 228 518.45 228.4 517.4 228.75 516.3 228.75 515.2 228.75 513.2 227.9 511.7 227.05 510.2 225.7 509.3 224.4 508.4 222.65 507.95 220.9 507.5 219.1 507.5 217.4 507.5 215.75 507.85 214.05 508.25 212.3 508.85 211.9 509.05 211.75 509.25 211.6 509.4 211.7 509.65
L 212.05 512.6
Q 212.15 512.95 212.35 513.05 212.55 513.15 213.05 512.95 213.65 512.7 214.45 512.45 215.25 512.2 216.05 512.05 216.85 511.85 217.6 511.75 218.3 511.65 218.85 511.65 219.7 511.65 220.65 511.85 221.6 512.05 222.45 512.55 223.25 513 223.8 513.8 224.3 514.55 224.3 515.55
M 302.8 488.45
Q 302.9 488.8 303.2 488.85 303.5 488.85 303.85 488.65 305.65 487.6 307.15 487.15 308.7 486.7 310.35 486.7 312.1 486.7 313.25 487.95 314.45 489.2 314.45 491.1 314.45 492.8 312.85 495.4 311.25 498.05 307.9 502
L 301.8 509.25
Q 301.6 509.55 301.4 509.85 301.25 510.2 301.25 510.5
L 301.25 512.8
Q 301.25 513.3 302 513.3
L 319.05 513.3
Q 319.6 513.3 319.6 512.6
L 319.6 509.8
Q 319.6 509.2 319.05 509.2
L 307.3 509.2
Q 308.3 508.05 309.3 506.9 310.3 505.7 311.15 504.6 312.25 503.3 313.65 501.7 315 500.05 316.2 498.3 317.4 496.5 318.2 494.65 319 492.8 319 491 319 488.9 318.3 487.3 317.6 485.7 316.45 484.65 315.3 483.6 313.65 483.05 312.05 482.5 310.1 482.5 308.25 482.5 306.25 483.15 304.3 483.8 302.8 484.6 302.4 484.8 302.25 485.05 302.15 485.2 302.25 485.4
L 302.8 488.45
M 221.45 293.05
Q 219.75 293.6 218.5 294.6 217.25 295.6 216.5 297 215.75 298.4 215.75 300.1 215.75 302.4 217.15 304.2 218.55 306 220.95 307.4 219.75 308 218.65 308.7 217.55 309.4 216.75 310.3 215.95 311.2 215.4 312.35 214.95 313.5 214.95 315 214.95 317.15 215.85 318.75 216.75 320.4 218.2 321.45 219.65 322.5 221.45 323.05 223.3 323.6 225.1 323.6 227.05 323.6 228.85 323.05 230.75 322.5 232.15 321.45 233.55 320.4 234.4 318.75 235.3 317.15 235.3 315 235.3 313.6 234.85 312.6 234.45 311.55 233.65 310.65 232.85 309.75 231.75 308.95 230.6 308.2 229.2 307.35 231.8 305.55 233.05 303.8 234.3 302 234.3 300 234.3 298.25 233.6 296.85 232.9 295.45 231.7 294.5 230.5 293.55 228.8 293 227.1 292.5 225.1 292.5 223.15 292.5 221.45 293.05
M 223.4 296.7
Q 224.25 296.4 225.1 296.4 226.05 296.4 226.9 296.75 227.75 297 228.4 297.55 229.05 298.1 229.4 298.8 229.8 299.5 229.8 300.3 229.8 301 229.3 301.8 228.8 302.6 228.05 303.35 227.3 304.05 226.5 304.6 225.75 305.15 225.1 305.4 224.6 305.2 223.8 304.7 223 304.25 222.2 303.55 221.45 302.85 220.9 302.05 220.3 301.25 220.3 300.4 220.3 299.45 220.75 298.7 221.2 298 221.9 297.5 222.55 297 223.4 296.7
M 230.25 313.4
Q 230.75 314.25 230.75 315 230.75 316.05 230.25 316.9 229.75 317.75 228.95 318.35 228.15 318.95 227.15 319.25 226.1 319.55 225.1 319.55 224.15 319.55 223.1 319.25 222.1 318.9 221.25 318.3 220.45 317.7 219.95 316.85 219.4 316 219.4 315 219.4 313.75 220 312.85 220.6 311.95 221.45 311.3 222.3 310.65 223.35 310.25 224.3 309.8 225.1 309.6 226.1 309.95 227.1 310.55 228.1 311.15 228.95 311.85 229.75 312.6 230.25 313.4
M 220.9 247.05
Q 221.7 246.85 222.45 246.75 223.15 246.65 223.7 246.65 224.55 246.65 225.5 246.85 226.45 247.05 227.3 247.55 228.1 248 228.65 248.8 229.15 249.55 229.15 250.55 229.15 251.9 228.35 252.8 227.55 253.75 226.35 254.35 225.2 254.95 223.95 255.2 222.7 255.45 221.85 255.45
L 219.95 255.45
Q 219.6 255.45 219.5 255.55 219.4 255.6 219.4 256
L 219.4 258.95
Q 219.4 259.25 219.5 259.35 219.6 259.45 219.95 259.45
L 221.9 259.45
Q 223.85 259.45 225.2 259.85 226.6 260.2 227.5 260.9 228.35 261.55 228.8 262.4 229.2 263.25 229.2 264.2 229.2 266.85 227.25 268.2 226.6 268.65 225.85 268.9 225.05 269.2 224.2 269.3 223.35 269.4 222.45 269.35 221.55 269.3 220.75 269.25 219.65 269.15 218.6 268.85 217.55 268.55 216.5 268.25 215.95 268 215.75 268.15 215.55 268.25 215.5 268.6
L 215.15 271.65
Q 215.1 272 215.3 272.15 215.45 272.35 215.85 272.45 217.3 273 219.05 273.3 220.8 273.6 222.55 273.6 224.85 273.6 227 273 229.15 272.45 230.65 271.2 232.15 269.95 233 268.2 233.8 266.4 233.8 264.3 233.8 262.1 232.45 260.3 231.1 258.55 228.45 257.4 229.55 256.9 230.5 256.15 231.45 255.4 232.15 254.4 232.85 253.45 233.25 252.4 233.6 251.3 233.6 250.2 233.6 248.2 232.75 246.7 231.9 245.2 230.55 244.3 229.25 243.4 227.5 242.95 225.75 242.5 223.95 242.5 222.25 242.5 220.6 242.85 218.9 243.25 217.15 243.85 216.75 244.05 216.6 244.25 216.45 244.4 216.55 244.65
L 216.9 247.6
Q 217 247.95 217.2 248.05 217.4 248.15 217.9 247.95 218.5 247.7 219.3 247.45 220.1 247.2 220.9 247.05
M 313.8 293
Q 312.1 292.5 310.1 292.5 308.15 292.5 306.45 293.05 304.75 293.6 303.5 294.6 302.25 295.6 301.5 297 300.75 298.4 300.75 300.1 300.75 302.4 302.15 304.2 303.55 306 305.95 307.4 304.75 308 303.65 308.7 302.55 309.4 301.75 310.3 300.95 311.2 300.4 312.35 299.95 313.5 299.95 315 299.95 317.15 300.85 318.75 301.75 320.4 303.2 321.45 304.65 322.5 306.45 323.05 308.3 323.6 310.1 323.6 312.05 323.6 313.85 323.05 315.75 322.5 317.15 321.45 318.55 320.4 319.4 318.75 320.3 317.15 320.3 315 320.3 313.6 319.85 312.6 319.45 311.55 318.65 310.65 317.85 309.75 316.75 308.95 315.6 308.2 314.2 307.35 316.8 305.55 318.05 303.8 319.3 302 319.3 300 319.3 298.25 318.6 296.85 317.9 295.45 316.7 294.5 315.5 293.55 313.8 293
M 310.1 296.4
Q 311.05 296.4 311.9 296.75 312.75 297 313.4 297.55 314.05 298.1 314.4 298.8 314.8 299.5 314.8 300.3 314.8 301 314.3 301.8 313.8 302.6 313.05 303.35 312.3 304.05 311.5 304.6 310.75 305.15 310.1 305.4 309.6 305.2 308.8 304.7 308 304.25 307.2 303.55 306.45 302.85 305.9 302.05 305.3 301.25 305.3 300.4 305.3 299.45 305.75 298.7 306.2 298 306.9 297.5 307.55 297 308.4 296.7 309.25 296.4 310.1 296.4
M 310.1 309.6
Q 311.1 309.95 312.1 310.55 313.1 311.15 313.95 311.85 314.75 312.6 315.25 313.4 315.75 314.25 315.75 315 315.75 316.05 315.25 316.9 314.75 317.75 313.95 318.35 313.15 318.95 312.15 319.25 311.1 319.55 310.1 319.55 309.15 319.55 308.1 319.25 307.1 318.9 306.25 318.3 305.45 317.7 304.95 316.85 304.4 316 304.4 315 304.4 313.75 305 312.85 305.6 311.95 306.45 311.3 307.3 310.65 308.35 310.25 309.3 309.8 310.1 309.6
M 270 272.2
Q 269.85 272.1 269.65 272.1
L 266.35 272.1
Q 266.2 272.1 266 272.2 265.9 272.4 265.9 272.55
L 265.9 280.95 257.4 280.95
Q 257.2 280.95 257.1 281.1 256.95 281.25 256.95 281.45
L 256.95 284.55
Q 256.95 284.75 257.1 284.9 257.2 285.05 257.4 285.05
L 265.9 285.05 265.9 293.5
Q 265.9 294 266.35 294
L 269.65 294
Q 270.1 294 270.1 293.5
L 270.1 285.05 278.55 285.05
Q 279.05 285.05 279.05 284.55
L 279.05 281.45
Q 279.05 280.95 278.55 280.95
L 270.1 280.95 270.1 272.55
Q 270.1 272.4 270 272.2
M 316.6 243.45
Q 316.6 243.1 316.55 243 316.5 242.85 316.2 242.85
L 312.55 242.85
Q 312.15 242.85 312.05 242.95 311.95 243.05 311.75 243.4
L 299.35 262
Q 299.2 262.15 299.05 262.45 298.85 262.75 298.85 263
L 298.85 266
Q 298.85 266.3 299 266.35 299.15 266.45 299.5 266.45
L 312.3 266.45 312.3 272.55
Q 312.3 272.95 312.45 273.1 312.6 273.25 313.05 273.25
L 315.95 273.25
Q 316.35 273.25 316.45 273.1 316.6 273 316.6 272.55
L 316.6 266.45 320.3 266.45
Q 320.65 266.45 320.8 266.35 320.95 266.25 320.95 265.85
L 320.95 262.95
Q 320.95 262.55 320.8 262.45 320.65 262.35 320.3 262.35
L 316.6 262.35 316.6 243.45
M 312.3 249.3
L 312.3 262.35 303.7 262.35 312.3 249.3
M 345.5 285.15
Q 345.3 285.15 345.15 285.25 345 285.4 345 285.6
L 345 288.75
Q 345 289 345.15 289.1 345.3 289.25 345.5 289.25
L 366.6 289.25
Q 366.8 289.25 366.95 289.1 367.1 289 367.1 288.75
L 367.1 285.6
Q 367.1 285.4 366.95 285.25 366.8 285.15 366.6 285.15
L 345.5 285.15
M 345.5 276.8
Q 345.3 276.8 345.15 276.95 345 277.1 345 277.3
L 345 280.45
Q 345 280.65 345.15 280.8 345.3 280.95 345.5 280.95
L 366.6 280.95
Q 366.8 280.95 366.95 280.8 367.1 280.65 367.1 280.45
L 367.1 277.3
Q 367.1 277.1 366.95 276.95 366.8 276.8 366.6 276.8
L 345.5 276.8
M 769.6 525.05
L 790.75 525.05
Q 791.25 525.05 791.25 524.55
L 791.25 521.45
Q 791.25 520.95 790.75 520.95
L 769.6 520.95
Q 769.4 520.95 769.3 521.1 769.15 521.25 769.15 521.45
L 769.15 524.55
Q 769.15 524.75 769.3 524.9 769.4 525.05 769.6 525.05
M 728.7 538.8
Q 728.05 540.7 728.05 542.9 728.05 545.2 728.75 547 729.4 548.8 730.7 550.1 732 551.4 733.8 552.1 735.55 552.8 737.7 552.8 738.45 552.8 739.25 552.6 740.05 552.4 740.8 552.05 741.55 551.7 742.2 551.25 742.8 550.8 743.15 550.3 742.9 552.2 742.3 553.9 741.7 555.55 740.7 556.8 739.7 558.05 738.25 558.75 736.8 559.45 734.7 559.45 733.3 559.45 732.15 559.35 730.95 559.25 729.9 558.8 729.35 558.6 729.25 559.15
L 729.15 562.35
Q 729.1 562.75 729.45 562.85 730.4 563.2 731.8 563.4 733.25 563.6 734.4 563.6 738.1 563.6 740.65 562.25 743.25 560.95 744.8 558.7 746.4 556.45 747.1 553.45 747.75 550.4 747.75 547.05 747.75 539.6 745.2 536.05 742.65 532.5 737.95 532.5 735.65 532.5 733.85 533.3 732 534.1 730.7 535.5 729.4 536.9 728.7 538.8
M 732.45 542.7
Q 732.45 539.8 733.95 538.15 735.5 536.45 737.9 536.45 739 536.45 739.95 537 740.9 537.5 741.6 538.4 742.3 539.3 742.7 540.5 743.1 541.7 743.1 543.05 743.1 545.5 741.65 547.1 740.15 548.65 737.55 548.65 735.1 548.65 733.8 547.05 732.45 545.45 732.45 542.7
M 713.2 519.4
Q 713.55 518.3 713.55 517.2 713.55 515.2 712.7 513.7 711.85 512.2 710.5 511.3 709.2 510.4 707.45 509.95 705.7 509.5 703.9 509.5 702.2 509.5 700.55 509.85 698.85 510.25 697.1 510.85 696.7 511.05 696.55 511.25 696.4 511.4 696.5 511.65
L 696.85 514.6
Q 696.95 514.95 697.15 515.05 697.35 515.15 697.85 514.95 698.45 514.7 699.25 514.45 700.05 514.2 700.85 514.05 701.65 513.85 702.4 513.75 703.1 513.65 703.65 513.65 704.5 513.65 705.45 513.85 706.4 514.05 707.25 514.55 708.05 515 708.6 515.8 709.1 516.55 709.1 517.55 709.1 518.9 708.3 519.8 707.5 520.75 706.3 521.35 705.15 521.95 703.9 522.2 702.65 522.45 701.8 522.45
L 699.9 522.45
Q 699.55 522.45 699.45 522.55 699.35 522.6 699.35 523
L 699.35 525.95
Q 699.35 526.25 699.45 526.35 699.55 526.45 699.9 526.45
L 701.85 526.45
Q 703.8 526.45 705.15 526.85 706.55 527.2 707.45 527.9 708.3 528.55 708.75 529.4 709.15 530.25 709.15 531.2 709.15 533.85 707.2 535.2 706.55 535.65 705.8 535.9 705 536.2 704.15 536.3 703.3 536.4 702.4 536.35 701.5 536.3 700.7 536.25 699.6 536.15 698.55 535.85 697.5 535.55 696.45 535.25 695.9 535 695.7 535.15 695.5 535.25 695.45 535.6
L 695.1 538.65
Q 695.05 539 695.25 539.15 695.4 539.35 695.8 539.45 697.25 540 699 540.3 700.75 540.6 702.5 540.6 704.8 540.6 706.95 540 709.1 539.45 710.6 538.2 712.1 536.95 712.95 535.2 713.75 533.4 713.75 531.3 713.75 529.1 712.4 527.3 711.05 525.55 708.4 524.4 709.5 523.9 710.45 523.15 711.4 522.4 712.1 521.4 712.8 520.45 713.2 519.4
M 733.05 483.15
Q 731.1 483.8 729.6 484.6 729.2 484.8 729.05 485.05 728.95 485.2 729.05 485.4
L 729.6 488.45
Q 729.7 488.8 730 488.85 730.3 488.85 730.65 488.65 732.45 487.6 733.95 487.15 735.5 486.7 737.15 486.7 738.9 486.7 740.05 487.95 741.25 489.2 741.25 491.1 741.25 492.8 739.65 495.4 738.05 498.05 734.7 502
L 728.6 509.25
Q 728.4 509.55 728.2 509.85 728.05 510.2 728.05 510.5
L 728.05 512.8
Q 728.05 513.3 728.8 513.3
L 745.85 513.3
Q 746.4 513.3 746.4 512.6
L 746.4 509.8
Q 746.4 509.2 745.85 509.2
L 734.1 509.2
Q 735.1 508.05 736.1 506.9 737.1 505.7 737.95 504.6 739.05 503.3 740.45 501.7 741.8 500.05 743 498.3 744.2 496.5 745 494.65 745.8 492.8 745.8 491 745.8 488.9 745.1 487.3 744.4 485.7 743.25 484.65 742.1 483.6 740.45 483.05 738.85 482.5 736.9 482.5 735.05 482.5 733.05 483.15
M 818.85 533.3
Q 817 534.1 815.7 535.5 814.4 536.9 813.7 538.8 813.05 540.7 813.05 542.9 813.05 545.2 813.75 547 814.4 548.8 815.7 550.1 817 551.4 818.8 552.1 820.55 552.8 822.7 552.8 823.45 552.8 824.25 552.6 825.05 552.4 825.8 552.05 826.55 551.7 827.2 551.25 827.8 550.8 828.15 550.3 827.9 552.2 827.3 553.9 826.7 555.55 825.7 556.8 824.7 558.05 823.25 558.75 821.8 559.45 819.7 559.45 818.3 559.45 817.15 559.35 815.95 559.25 814.9 558.8 814.35 558.6 814.25 559.15
L 814.15 562.35
Q 814.1 562.75 814.45 562.85 815.4 563.2 816.8 563.4 818.25 563.6 819.4 563.6 823.1 563.6 825.65 562.25 828.25 560.95 829.8 558.7 831.4 556.45 832.1 553.45 832.75 550.4 832.75 547.05 832.75 539.6 830.2 536.05 827.65 532.5 822.95 532.5 820.65 532.5 818.85 533.3
M 817.45 542.7
Q 817.45 539.8 818.95 538.15 820.5 536.45 822.9 536.45 824 536.45 824.95 537 825.9 537.5 826.6 538.4 827.3 539.3 827.7 540.5 828.1 541.7 828.1 543.05 828.1 545.5 826.65 547.1 825.15 548.65 822.55 548.65 820.1 548.65 818.8 547.05 817.45 545.45 817.45 542.7
M 858.45 525.15
Q 858.25 525.15 858.1 525.25 857.95 525.4 857.95 525.6
L 857.95 528.75
Q 857.95 529 858.1 529.1 858.25 529.25 858.45 529.25
L 879.55 529.25
Q 879.75 529.25 879.9 529.1 880.05 529 880.05 528.75
L 880.05 525.6
Q 880.05 525.4 879.9 525.25 879.75 525.15 879.55 525.15
L 858.45 525.15
M 879.9 516.95
Q 879.75 516.8 879.55 516.8
L 858.45 516.8
Q 858.25 516.8 858.1 516.95 857.95 517.1 857.95 517.3
L 857.95 520.45
Q 857.95 520.65 858.1 520.8 858.25 520.95 858.45 520.95
L 879.55 520.95
Q 879.75 520.95 879.9 520.8 880.05 520.65 880.05 520.45
L 880.05 517.3
Q 880.05 517.1 879.9 516.95
M 858.1 285.25
Q 857.95 285.4 857.95 285.6
L 857.95 288.75
Q 857.95 289 858.1 289.1 858.25 289.25 858.45 289.25
L 879.55 289.25
Q 879.75 289.25 879.9 289.1 880.05 289 880.05 288.75
L 880.05 285.6
Q 880.05 285.4 879.9 285.25 879.75 285.15 879.55 285.15
L 858.45 285.15
Q 858.25 285.15 858.1 285.25
M 858.1 280.8
Q 858.25 280.95 858.45 280.95
L 879.55 280.95
Q 879.75 280.95 879.9 280.8 880.05 280.65 880.05 280.45
L 880.05 277.3
Q 880.05 277.1 879.9 276.95 879.75 276.8 879.55 276.8
L 858.45 276.8
Q 858.25 276.8 858.1 276.95 857.95 277.1 857.95 277.3
L 857.95 280.45
Q 857.95 280.65 858.1 280.8
M 818.55 292.85
Q 816.85 293.25 815.1 293.85 814.7 294.05 814.55 294.25 814.4 294.4 814.5 294.65
L 814.85 297.6
Q 814.95 297.95 815.15 298.05 815.35 298.15 815.85 297.95 816.45 297.7 817.25 297.45 818.05 297.2 818.85 297.05 819.65 296.85 820.4 296.75 821.1 296.65 821.65 296.65 822.5 296.65 823.45 296.85 824.4 297.05 825.25 297.55 826.05 298 826.6 298.8 827.1 299.55 827.1 300.55 827.1 301.9 826.3 302.8 825.5 303.75 824.3 304.35 823.15 304.95 821.9 305.2 820.65 305.45 819.8 305.45
L 817.9 305.45
Q 817.55 305.45 817.45 305.55 817.35 305.6 817.35 306
L 817.35 308.95
Q 817.35 309.25 817.45 309.35 817.55 309.45 817.9 309.45
L 819.85 309.45
Q 821.8 309.45 823.15 309.85 824.55 310.2 825.45 310.9 826.3 311.55 826.75 312.4 827.15 313.25 827.15 314.2 827.15 316.85 825.2 318.2 824.55 318.65 823.8 318.9 823 319.2 822.15 319.3 821.3 319.4 820.4 319.35 819.5 319.3 818.7 319.25 817.6 319.15 816.55 318.85 815.5 318.55 814.45 318.25 813.9 318 813.7 318.15 813.5 318.25 813.45 318.6
L 813.1 321.65
Q 813.05 322 813.25 322.15 813.4 322.35 813.8 322.45 815.25 323 817 323.3 818.75 323.6 820.5 323.6 822.8 323.6 824.95 323 827.1 322.45 828.6 321.2 830.1 319.95 830.95 318.2 831.75 316.4 831.75 314.3 831.75 312.1 830.4 310.3 829.05 308.55 826.4 307.4 827.5 306.9 828.45 306.15 829.4 305.4 830.1 304.4 830.8 303.45 831.2 302.4 831.55 301.3 831.55 300.2 831.55 298.2 830.7 296.7 829.85 295.2 828.5 294.3 827.2 293.4 825.45 292.95 823.7 292.5 821.9 292.5 820.2 292.5 818.55 292.85
M 814.05 247
L 826.8 247 816.35 272.55
Q 816.2 273 816.35 273.1 816.5 273.25 817.1 273.25
L 820.35 273.25
Q 820.75 273.25 820.9 273.15 821.05 273 821.25 272.7
L 831.8 246.65
Q 832.05 246.35 832.05 246
L 832.05 243.6
Q 832.05 243.15 831.9 243 831.75 242.85 831.05 242.85
L 814.05 242.85
Q 813.35 242.85 813.35 243.5
L 813.35 246.3
Q 813.35 246.65 813.55 246.8 813.75 247 814.05 247
M 707.45 269.95
Q 705.7 269.5 703.9 269.5 702.2 269.5 700.55 269.85 698.85 270.25 697.1 270.85 696.7 271.05 696.55 271.25 696.4 271.4 696.5 271.65
L 696.85 274.6
Q 696.95 274.95 697.15 275.05 697.35 275.15 697.85 274.95 698.45 274.7 699.25 274.45 700.05 274.2 700.85 274.05 701.65 273.85 702.4 273.75 703.1 273.65 703.65 273.65 704.5 273.65 705.45 273.85 706.4 274.05 707.25 274.55 708.05 275 708.6 275.8 709.1 276.55 709.1 277.55 709.1 278.9 708.3 279.8 707.5 280.75 706.3 281.35 705.15 281.95 703.9 282.2 702.65 282.45 701.8 282.45
L 699.9 282.45
Q 699.55 282.45 699.45 282.55 699.35 282.6 699.35 283
L 699.35 285.95
Q 699.35 286.25 699.45 286.35 699.55 286.45 699.9 286.45
L 701.85 286.45
Q 703.8 286.45 705.15 286.85 706.55 287.2 707.45 287.9 708.3 288.55 708.75 289.4 709.15 290.25 709.15 291.2 709.15 293.85 707.2 295.2 706.55 295.65 705.8 295.9 705 296.2 704.15 296.3 703.3 296.4 702.4 296.35 701.5 296.3 700.7 296.25 699.6 296.15 698.55 295.85 697.5 295.55 696.45 295.25 695.9 295 695.7 295.15 695.5 295.25 695.45 295.6
L 695.1 298.65
Q 695.05 299 695.25 299.15 695.4 299.35 695.8 299.45 697.25 300 699 300.3 700.75 300.6 702.5 300.6 704.8 300.6 706.95 300 709.1 299.45 710.6 298.2 712.1 296.95 712.95 295.2 713.75 293.4 713.75 291.3 713.75 289.1 712.4 287.3 711.05 285.55 708.4 284.4 709.5 283.9 710.45 283.15 711.4 282.4 712.1 281.4 712.8 280.45 713.2 279.4 713.55 278.3 713.55 277.2 713.55 275.2 712.7 273.7 711.85 272.2 710.5 271.3 709.2 270.4 707.45 269.95
M 782.95 272.2
Q 782.8 272.1 782.6 272.1
L 779.3 272.1
Q 779.15 272.1 778.95 272.2 778.85 272.4 778.85 272.55
L 778.85 280.95 770.35 280.95
Q 770.15 280.95 770.05 281.1 769.9 281.25 769.9 281.45
L 769.9 284.55
Q 769.9 284.75 770.05 284.9 770.15 285.05 770.35 285.05
L 778.85 285.05 778.85 293.5
Q 778.85 294 779.3 294
L 782.6 294
Q 783.05 294 783.05 293.5
L 783.05 285.05 791.5 285.05
Q 792 285.05 792 284.55
L 792 281.45
Q 792 280.95 791.5 280.95
L 783.05 280.95 783.05 272.55
Q 783.05 272.4 782.95 272.2
M 736.9 292.5
Q 735.2 292.5 733.55 292.85 731.85 293.25 730.1 293.85 729.7 294.05 729.55 294.25 729.4 294.4 729.5 294.65
L 729.85 297.6
Q 729.95 297.95 730.15 298.05 730.35 298.15 730.85 297.95 731.45 297.7 732.25 297.45 733.05 297.2 733.85 297.05 734.65 296.85 735.4 296.75 736.1 296.65 736.65 296.65 737.5 296.65 738.45 296.85 739.4 297.05 740.25 297.55 741.05 298 741.6 298.8 742.1 299.55 742.1 300.55 742.1 301.9 741.3 302.8 740.5 303.75 739.3 304.35 738.15 304.95 736.9 305.2 735.65 305.45 734.8 305.45
L 732.9 305.45
Q 732.55 305.45 732.45 305.55 732.35 305.6 732.35 306
L 732.35 308.95
Q 732.35 309.25 732.45 309.35 732.55 309.45 732.9 309.45
L 734.85 309.45
Q 736.8 309.45 738.15 309.85 739.55 310.2 740.45 310.9 741.3 311.55 741.75 312.4 742.15 313.25 742.15 314.2 742.15 316.85 740.2 318.2 739.55 318.65 738.8 318.9 738 319.2 737.15 319.3 736.3 319.4 735.4 319.35 734.5 319.3 733.7 319.25 732.6 319.15 731.55 318.85 730.5 318.55 729.45 318.25 728.9 318 728.7 318.15 728.5 318.25 728.45 318.6
L 728.1 321.65
Q 728.05 322 728.25 322.15 728.4 322.35 728.8 322.45 730.25 323 732 323.3 733.75 323.6 735.5 323.6 737.8 323.6 739.95 323 742.1 322.45 743.6 321.2 745.1 319.95 745.95 318.2 746.75 316.4 746.75 314.3 746.75 312.1 745.4 310.3 744.05 308.55 741.4 307.4 742.5 306.9 743.45 306.15 744.4 305.4 745.1 304.4 745.8 303.45 746.2 302.4 746.55 301.3 746.55 300.2 746.55 298.2 745.7 296.7 744.85 295.2 743.5 294.3 742.2 293.4 740.45 292.95 738.7 292.5 736.9 292.5
M 745.1 247.3
Q 744.4 245.7 743.25 244.65 742.1 243.6 740.45 243.05 738.85 242.5 736.9 242.5 735.05 242.5 733.05 243.15 731.1 243.8 729.6 244.6 729.2 244.8 729.05 245.05 728.95 245.2 729.05 245.4
L 729.6 248.45
Q 729.7 248.8 730 248.85 730.3 248.85 730.65 248.65 732.45 247.6 733.95 247.15 735.5 246.7 737.15 246.7 738.9 246.7 740.05 247.95 741.25 249.2 741.25 251.1 741.25 252.8 739.65 255.4 738.05 258.05 734.7 262
L 728.6 269.25
Q 728.4 269.55 728.2 269.85 728.05 270.2 728.05 270.5
L 728.05 272.8
Q 728.05 273.3 728.8 273.3
L 745.85 273.3
Q 746.4 273.3 746.4 272.6
L 746.4 269.8
Q 746.4 269.2 745.85 269.2
L 734.1 269.2
Q 735.1 268.05 736.1 266.9 737.1 265.7 737.95 264.6 739.05 263.3 740.45 261.7 741.8 260.05 743 258.3 744.2 256.5 745 254.65 745.8 252.8 745.8 251 745.8 248.9 745.1 247.3 Z"/>

<path fill="#FFFFFF" stroke="none" d="
M 384.2 508.35
L 384.2 538.4
Q 384.2 553.4 399.2 553.4
L 429.2 553.4
Q 444.2 553.4 444.2 538.4
L 444.2 508.35
Q 444.2 493.35 429.2 493.35
L 399.2 493.35
Q 384.2 493.35 384.2 508.35
M 499.2 593.4
Q 514.2 593.4 514.2 578.4
L 514.2 548.35
Q 514.2 533.35 499.2 533.35
L 469.2 533.35
Q 454.2 533.35 454.2 548.35
L 454.2 578.4
Q 454.2 593.4 469.2 593.4
L 499.2 593.4
M 514.2 468.35
Q 514.2 453.35 499.2 453.35
L 469.2 453.35
Q 454.2 453.35 454.2 468.35
L 454.2 498.4
Q 454.2 513.4 469.2 513.4
L 499.2 513.4
Q 514.2 513.4 514.2 498.4
L 514.2 468.35
M 383.05 308.35
L 383.05 338.4
Q 383.05 353.4 398.05 353.4
L 428.05 353.4
Q 443.05 353.4 443.05 338.4
L 443.05 308.35
Q 443.05 293.35 428.05 293.35
L 398.05 293.35
Q 383.05 293.35 383.05 308.35
M 443.05 228.35
Q 443.05 213.35 428.05 213.35
L 398.05 213.35
Q 383.05 213.35 383.05 228.35
L 383.05 258.4
Q 383.05 273.4 398.05 273.4
L 428.05 273.4
Q 443.05 273.4 443.05 258.4
L 443.05 228.35
M 966 468.35
L 966 498.4
Q 966 513.4 981 513.4
L 1011 513.4
Q 1026 513.4 1026 498.4
L 1026 468.35
Q 1026 453.35 1011 453.35
L 981 453.35
Q 966 453.35 966 468.35
M 966 548.35
L 966 578.4
Q 966 593.4 981 593.4
L 1011 593.4
Q 1026 593.4 1026 578.4
L 1026 548.35
Q 1026 533.35 1011 533.35
L 981 533.35
Q 966 533.35 966 548.35
M 941 493.35
L 911 493.35
Q 896 493.35 896 508.35
L 896 538.4
Q 896 553.4 911 553.4
L 941 553.4
Q 956 553.4 956 538.4
L 956 508.35
Q 956 493.35 941 493.35
M 909.15 254.25
Q 894.15 254.25 894.15 269.25
L 894.15 299.3
Q 894.15 314.3 909.15 314.3
L 939.15 314.3
Q 954.15 314.3 954.15 299.3
L 954.15 269.25
Q 954.15 254.25 939.15 254.25
L 909.15 254.25 Z"/>
</g>

<path id="Layer0_0_1_STROKES" stroke="#DBDBDB" stroke-width="3" stroke-linejoin="round" stroke-linecap="round" fill="none" d="
M 909.15 254.25
L 939.15 254.25
Q 954.15 254.25 954.15 269.25
L 954.15 299.3
Q 954.15 314.3 939.15 314.3
L 909.15 314.3
Q 894.15 314.3 894.15 299.3
L 894.15 269.25
Q 894.15 254.25 909.15 254.25 Z
M 911 493.35
L 941 493.35
Q 956 493.35 956 508.35
L 956 538.4
Q 956 553.4 941 553.4
L 911 553.4
Q 896 553.4 896 538.4
L 896 508.35
Q 896 493.35 911 493.35 Z
M 981 533.35
L 1011 533.35
Q 1026 533.35 1026 548.35
L 1026 578.4
Q 1026 593.4 1011 593.4
L 981 593.4
Q 966 593.4 966 578.4
L 966 548.35
Q 966 533.35 981 533.35 Z
M 981 453.35
L 1011 453.35
Q 1026 453.35 1026 468.35
L 1026 498.4
Q 1026 513.4 1011 513.4
L 981 513.4
Q 966 513.4 966 498.4
L 966 468.35
Q 966 453.35 981 453.35 Z
M 398.05 213.35
L 428.05 213.35
Q 443.05 213.35 443.05 228.35
L 443.05 258.4
Q 443.05 273.4 428.05 273.4
L 398.05 273.4
Q 383.05 273.4 383.05 258.4
L 383.05 228.35
Q 383.05 213.35 398.05 213.35 Z
M 398.05 293.35
L 428.05 293.35
Q 443.05 293.35 443.05 308.35
L 443.05 338.4
Q 443.05 353.4 428.05 353.4
L 398.05 353.4
Q 383.05 353.4 383.05 338.4
L 383.05 308.35
Q 383.05 293.35 398.05 293.35 Z
M 469.2 453.35
L 499.2 453.35
Q 514.2 453.35 514.2 468.35
L 514.2 498.4
Q 514.2 513.4 499.2 513.4
L 469.2 513.4
Q 454.2 513.4 454.2 498.4
L 454.2 468.35
Q 454.2 453.35 469.2 453.35 Z
M 469.2 533.35
L 499.2 533.35
Q 514.2 533.35 514.2 548.35
L 514.2 578.4
Q 514.2 593.4 499.2 593.4
L 469.2 593.4
Q 454.2 593.4 454.2 578.4
L 454.2 548.35
Q 454.2 533.35 469.2 533.35 Z
M 399.2 493.35
L 429.2 493.35
Q 444.2 493.35 444.2 508.35
L 444.2 538.4
Q 444.2 553.4 429.2 553.4
L 399.2 553.4
Q 384.2 553.4 384.2 538.4
L 384.2 508.35
Q 384.2 493.35 399.2 493.35 Z"/>

<path id="Layer0_0_2_STROKES" stroke="#1E1E1E" stroke-width="3" stroke-linejoin="miter" stroke-linecap="butt" stroke-miterlimit="3" fill="none" d="
M 718.85 282.8
L 757.05 282.8
M 803.85 282.8
L 842.05 282.8
M 718.85 522.8
L 757.05 522.8
M 803.85 522.8
L 842.05 522.8
M 963.65 522.85
L 1026.4 522.85
M 380.7 282.85
L 443.45 282.85
M 205.9 282.8
L 244.1 282.8
M 451.85 522.85
L 514.6 522.85
M 292.05 522.8
L 330.25 522.8
M 290.9 282.8
L 329.1 282.8"/>
</defs>

<g transform="matrix( 1, 0, 0, 1, 0,0) ">
<use xlink:href="#Layer0_0_FILL"/>

<use xlink:href="#Layer0_0_1_STROKES"/>

<use xlink:href="#Layer0_0_2_STROKES"/>
</g>
</svg>
