
<svg xmlns="http://www.w3.org/2000/svg" version="1.1" xmlns:xlink="http://www.w3.org/1999/xlink" preserveAspectRatio="none" x="0px" y="0px" width="1280px" height="720px" viewBox="0 0 1280 720">
<defs>
<g id="Layer0_0_FILL">
<path fill="#000000" stroke="none" d="
M 897.15 392.25
Q 899.2 392.25 900.65 390.75 902.0203125 389.425390625 902.15 387.6 902.15 387.42734375 902.15 387.25 902.15 385.2 900.65 383.7 899.2 382.25 897.15 382.25 895.1 382.25 893.6 383.7 892.15 385.2 892.15 387.25 892.15 389.3 893.6 390.75 895.1 392.25 897.15 392.25
M 1112.15 387.6
Q 1112.275390625 389.425390625 1113.6 390.75 1115.1 392.25 1117.15 392.25 1119.2 392.25 1120.65 390.75 1122.15 389.3 1122.15 387.25 1122.15 385.2 1120.65 383.7 1119.2 382.25 1117.15 382.25 1115.1 382.25 1113.6 383.7 1112.15 385.2 1112.15 387.25 1112.15 387.42734375 1112.15 387.6
M 888.8 371.15
Q 889.35 371.25 890.25 371.25
L 904.9 371.25
Q 905.65 371.25 906.15 371.15 906.65 371 906.95 370.65 907.25 370.25 907.4 369.65 907.5 369 907.5 368
L 907.5 357.2
Q 907.5 356.25 907.4 355.55 907.3 354.9 907 354.55 906.7 354.15 906.15 354 905.6 353.85 904.7 353.85
L 890 353.85
Q 888.5 353.85 887.95 354.5 887.4 355.2 887.4 357.2
L 887.4 367.95
Q 887.4 368.95 887.55 369.6 887.65 370.25 887.95 370.6 888.25 371 888.8 371.15
M 892.8 366.15
Q 892.35 366.15 892.35 365.65
L 892.35 359.5
Q 892.35 358.95 892.8 358.95
L 902.1 358.95
Q 902.5 358.95 902.5 359.45
L 902.5 365.6
Q 902.5 366.05 902.4 366.1 902.35 366.15 902.1 366.15
L 892.8 366.15
M 1127.35 353.85
Q 1127.35 353.35 1127.2 353.15 1127.05 353 1126.7 353
L 1123.1 353
Q 1122.75 353 1122.55 353.15 1122.35 353.35 1122.35 353.85
L 1122.35 358 1112.45 358 1112.45 354
Q 1112.45 353.55 1112.3 353.4 1112.15 353.2 1111.75 353.2
L 1108.2 353.2
Q 1107.5 353.2 1107.5 354
L 1107.5 368.7
Q 1107.5 369.7 1107.6 370.35 1107.75 371 1108.05 371.35 1108.35 371.65 1108.9 371.8 1109.45 371.9 1110.3 371.9
L 1124.65 371.9
Q 1126.3 371.9 1126.85 371.25 1127.35 370.6 1127.35 368.8
L 1127.35 353.85
M 1122.35 363
L 1122.35 366.45
Q 1122.35 366.85 1122.05 366.85
L 1112.8 366.85
Q 1112.45 366.85 1112.45 366.45
L 1112.45 363 1122.35 363
M 556.95 358.15
L 556.95 354.85
Q 556.95 353.95 556.25 353.95
L 539.95 353.95
Q 538.5 353.95 537.85 354.5 537.25 355 537.25 357
L 537.25 368.5
Q 537.25 370.35 537.8 371.1 538.3 371.85 539.95 371.85
L 556.95 371.85
Q 557.35 371.85 557.45 371.7 557.6 371.55 557.6 370.9
L 557.6 367.55
Q 557.6 366.7 556.8 366.7
L 542.6 366.7
Q 542.25 366.7 542.25 366.15
L 542.25 359.55
Q 542.25 359.05 542.65 359.05
L 556.25 359.05
Q 556.95 359.05 556.95 358.15
M 542.15 387.6
Q 542.275390625 389.425390625 543.6 390.75 545.1 392.25 547.15 392.25 549.2 392.25 550.65 390.75 552.0203125 389.425390625 552.1 387.6 552.15 387.42734375 552.15 387.25 552.15 385.2 550.65 383.7 549.2 382.25 547.15 382.25 545.1 382.25 543.6 383.7 542.15 385.2 542.15 387.25 542.15 387.42734375 542.15 387.6
M 722.15 387.6
Q 722.275390625 389.425390625 723.6 390.75 725.1 392.25 727.15 392.25 729.2 392.25 730.65 390.75 732.0203125 389.425390625 732.15 387.6 732.15 387.42734375 732.15 387.25 732.15 385.2 730.65 383.7 729.2 382.25 727.15 382.25 725.1 382.25 723.6 383.7 722.15 385.2 722.15 387.25 722.15 387.42734375 722.15 387.6
M 717.25 358.1
Q 717.4 358.3 717.8 358.3
L 731.55 358.3
Q 731.95 358.3 731.95 358.85
L 731.95 361.05
Q 731.95 361.55 731.6 361.55
L 719.6 361.55
Q 718.8 361.55 718.3 361.65 717.85 361.8 717.6 362.15 717.3 362.45 717.25 363 717.15 363.55 717.15 364.4
L 717.15 370.85
Q 717.15 371.65 717.25 372.25 717.3 372.8 717.6 373.15 717.85 373.45 718.35 373.6 718.85 373.75 719.6 373.75
L 737.05 373.75
Q 737.75 373.75 737.75 372.85
L 737.75 369.85
Q 737.75 369.3 737.6 369.15 737.4 369 737 369
L 722.45 369
Q 722.05 369 722.05 368.5
L 722.05 366.55
Q 722.05 366.1 722.45 366.1
L 734.35 366.1
Q 735.15 366.1 735.65 365.95 736.15 365.85 736.4 365.55 736.65 365.2 736.75 364.65 736.85 364.1 736.85 363.2
L 736.85 356.45
Q 736.85 354.85 736.35 354.15 735.9 353.55 734.3 353.55
L 717.8 353.55
Q 717.05 353.55 717.05 354.4
L 717.05 357.4
Q 717.05 357.9 717.25 358.1
M 121.1 353.8
Q 120.85 353.8 120.6 353.9 120.4 354 120.4 354.65
L 120.4 358.15
Q 120.4 358.65 120.6 358.8 120.85 358.95 121.1 358.95
L 135 358.95
Q 135.5 358.95 135.5 359.6
L 135.5 370.9
Q 135.5 371.8 136.3 371.8
L 139.85 371.8
Q 140.5 371.8 140.5 370.9
L 140.5 357.2
Q 140.5 356.25 140.4 355.55 140.3 354.9 140 354.5 139.75 354.1 139.25 353.95 138.8 353.8 138 353.8
L 121.1 353.8
M 126.6 390.75
Q 128.1 392.25 130.15 392.25 132.2 392.25 133.65 390.75 135.0203125 389.425390625 135.15 387.6 135.15 387.42734375 135.15 387.25 135.15 385.2 133.65 383.7 132.2 382.25 130.15 382.25 128.1 382.25 126.6 383.7 125.15 385.2 125.15 387.25 125.15 389.3 126.6 390.75
M 330.65 383.7
Q 329.2 382.25 327.15 382.25 325.1 382.25 323.6 383.7 322.15 385.2 322.15 387.25 322.15 387.42734375 322.15 387.6 322.275390625 389.425390625 323.6 390.75 325.1 392.25 327.15 392.25 329.2 392.25 330.65 390.75 332.0203125 389.425390625 332.1 387.6 332.15 387.42734375 332.15 387.25 332.15 385.2 330.65 383.7
M 337.3 366.35
Q 337.05 366.2 336.8 366.2
L 322.85 366.2
Q 322.35 366.2 322.35 365.55
L 322.35 354.5
Q 322.35 353.55 321.55 353.55
L 318.05 353.55
Q 317.3 353.55 317.3 354.5
L 317.3 368.1
Q 317.3 369.05 317.4 369.7 317.55 370.3 317.8 370.65 318.05 371 318.55 371.2 319.05 371.35 319.8 371.35
L 336.8 371.35
Q 337.05 371.35 337.3 371.25 337.55 371.15 337.55 370.55
L 337.55 367
Q 337.55 366.55 337.3 366.35 Z"/>
</g>

<g id="Duplicate_Items_Folder_fnfmf343434_copy_22_0_Layer1_0_FILL">
<path fill="#FFFFFF" stroke="none" d="
M 150 -45
Q 150 -60 135 -60
L -135 -60
Q -150 -60 -150 -45
L -150 50.05
Q -150 65.05 -135 65.05
L 135 65.05
Q 150 65.05 150 50.05
L 150 -45 Z"/>
</g>

<g id="Duplicate_Items_Folder_fnfmf343434_copy_21_0_Layer1_0_FILL">
<path fill="#FFFFFF" stroke="none" d="
M 150 -45
Q 150 -60 135 -60
L -135 -60
Q -150 -60 -150 -45
L -150 50.05
Q -150 65.05 -135 65.05
L 135 65.05
Q 150 65.05 150 50.05
L 150 -45 Z"/>
</g>

<g id="Duplicate_Items_Folder_fnfmf343434_copy_23_0_Layer1_0_FILL">
<path fill="#FFFFFF" stroke="none" d="
M 150 -45
Q 150 -60 135 -60
L -135 -60
Q -150 -60 -150 -45
L -150 50.05
Q -150 65.05 -135 65.05
L 135 65.05
Q 150 65.05 150 50.05
L 150 -45 Z"/>
</g>

<path id="Layer0_0_1_STROKES" stroke="#1E1E1E" stroke-width="2" stroke-linejoin="round" stroke-linecap="round" fill="none" d="
M 902.15 387.6
L 1112.15 387.6
M 552.125 387.6
L 722.15 387.6
M 500.6 387.6
L 542.15 387.6
M 732.15 387.6
L 773.7 387.6
M 332.125 387.6
L 403.7 387.6
M 135.15 387.6
L 322.15 387.6"/>

<path id="Duplicate_Items_Folder_fnfmf343434_copy_22_0_Layer1_0_1_STROKES" stroke="#DBDBDB" stroke-width="3" stroke-linejoin="round" stroke-linecap="round" fill="none" d="
M -135 -60
L 135 -60
Q 150 -60 150 -45
L 150 50.05
Q 150 65.05 135 65.05
L -135 65.05
Q -150 65.05 -150 50.05
L -150 -45
Q -150 -60 -135 -60 Z"/>

<path id="Duplicate_Items_Folder_fnfmf343434_copy_21_0_Layer1_0_1_STROKES" stroke="#DBDBDB" stroke-width="3" stroke-linejoin="round" stroke-linecap="round" fill="none" d="
M -135 -60
L 135 -60
Q 150 -60 150 -45
L 150 50.05
Q 150 65.05 135 65.05
L -135 65.05
Q -150 65.05 -150 50.05
L -150 -45
Q -150 -60 -135 -60 Z"/>

<path id="Duplicate_Items_Folder_fnfmf343434_copy_23_0_Layer1_0_1_STROKES" stroke="#DBDBDB" stroke-width="3" stroke-linejoin="round" stroke-linecap="round" fill="none" d="
M -135 -60
L 135 -60
Q 150 -60 150 -45
L 150 50.05
Q 150 65.05 135 65.05
L -135 65.05
Q -150 65.05 -150 50.05
L -150 -45
Q -150 -60 -135 -60 Z"/>
</defs>

<g transform="matrix( 1, 0, 0, 1, 0,0) ">
<use xlink:href="#Layer0_0_FILL"/>

<use xlink:href="#Layer0_0_1_STROKES"/>
</g>

<g transform="matrix( 1, 0, 0, 1, 635.55,547.5) ">
<g transform="matrix( 1, 0, 0, 1, 0,0) ">
<use xlink:href="#Duplicate_Items_Folder_fnfmf343434_copy_22_0_Layer1_0_FILL"/>

<use xlink:href="#Duplicate_Items_Folder_fnfmf343434_copy_22_0_Layer1_0_1_STROKES"/>
</g>
</g>

<g transform="matrix( 1, 0, 0, 1, 265.55,547.5) ">
<g transform="matrix( 1, 0, 0, 1, 0,0) ">
<use xlink:href="#Duplicate_Items_Folder_fnfmf343434_copy_21_0_Layer1_0_FILL"/>

<use xlink:href="#Duplicate_Items_Folder_fnfmf343434_copy_21_0_Layer1_0_1_STROKES"/>
</g>
</g>

<g transform="matrix( 1, 0, 0, 1, 1005.55,547.5) ">
<g transform="matrix( 1, 0, 0, 1, 0,0) ">
<use xlink:href="#Duplicate_Items_Folder_fnfmf343434_copy_23_0_Layer1_0_FILL"/>

<use xlink:href="#Duplicate_Items_Folder_fnfmf343434_copy_23_0_Layer1_0_1_STROKES"/>
</g>
</g>
</svg>
