
<svg xmlns="http://www.w3.org/2000/svg" version="1.1" xmlns:xlink="http://www.w3.org/1999/xlink" preserveAspectRatio="none" x="0px" y="0px" width="1280px" height="720px" viewBox="0 0 1280 720">
<defs>
<g id="__________fdnd454535_1_Layer4_0_FILL">
<path fill="#FFFFFF" stroke="none" d="
M 74.5 -27.5
L 1.5 -27.5
Q -9.9 -27.5 -17.95 -19.45 -26 -11.4 -26 0 -26 11.4 -17.95 19.45 -9.9 27.5 1.5 27.5
L 74.5 27.5
Q 85.9 27.5 93.95 19.45 96.95 16.45 98.9 12.85 102 7.1 102 0 102 -11.4 93.95 -19.45 85.9 -27.5 74.5 -27.5 Z"/>
</g>

<g id="Mask___________fdnd454535_1_3_MASK_0_FILL">
<path fill="#FFFFFF" stroke="none" d="
M 74.5 -27.5
L 1.5 -27.5
Q -9.9 -27.5 -17.95 -19.45 -26 -11.4 -26 0 -26 11.4 -17.95 19.45 -9.9 27.5 1.5 27.5
L 74.5 27.5
Q 85.9 27.5 93.95 19.45 96.95 16.45 98.9 12.85 102 7.1 102 0 102 -11.4 93.95 -19.45 85.9 -27.5 74.5 -27.5 Z"/>
</g>

<g id="__________fdnd454535_1_Layer3_0_FILL">
<path fill="#9875B1" stroke="none" d="
M 21.95 -19.45
Q 13.9 -27.5 2.5 -27.5
L -43.5 -27.5
Q -54.9 -27.5 -62.95 -19.45 -71 -11.4 -71 0 -71 11.4 -62.95 19.45 -54.9 27.5 -43.5 27.5
L 2.5 27.5
Q 13.9 27.5 21.95 19.45 30 11.4 30 0 30 -11.4 21.95 -19.45 Z"/>
</g>

<g id="__________bs232323_3_Layer4_0_FILL">
<path fill="#FFFFFF" stroke="none" d="
M 12.1 -22.45
Q 12.1 -23.25 11.5 -23.85
L 9.55 -25.8 3.7 -19.95 5.65 -18
Q 6.25 -17.4 7.1 -17.45 7.95 -17.4 8.55 -18
L 11.55 -21
Q 12.15 -21.6 12.1 -22.45
M 8.5 -26.85
L 6.15 -36.3
Q 5.9 -37.45 5.05 -37.7 4.35 -37.9 3.5 -37.05
L -7.55 -26
Q -8.35 -25.2 -8.2 -24.45 -7.95 -23.6 -6.8 -23.35
L 2.65 -21 8.5 -26.85 Z"/>
</g>

<g id="__________fdnd454535_1_Layer0_0_FILL">
<path fill="#9875B1" stroke="none" d="
M 74.5 -29.5
L 1.5 -29.5
Q -10.75 -29.5 -19.35 -20.85 -28 -12.25 -28 0 -28 12.25 -19.35 20.9 -10.75 29.5 1.5 29.5
L 74.5 29.5
Q 86.75 29.5 95.4 20.9 98.55 17.65 100.65 13.8 104 7.6 104 0 104 -12.25 95.4 -20.85 86.75 -29.5 74.5 -29.5
M 1.5 -25.5
L 74.5 -25.5
Q 85.05 -25.5 92.55 -18 100 -10.55 100 0 100 6.6 97.15 11.9 95.35 15.25 92.55 18.05 85.05 25.5 74.5 25.5
L 1.5 25.5
Q -9.05 25.5 -16.5 18.05 -24 10.55 -24 0 -24 -10.55 -16.5 -18 -9.05 -25.5 1.5 -25.5 Z"/>
</g>

<g id="Layer0_0_FILL">
<path fill="#684880" stroke="none" d="
M 912.3 303.15
Q 912.3 302.9 912.25 302.75 912.15 302.55 912.1 302.35 912 302.2 911.9 302 911.75 301.85 911.65 301.7 911.55 301.55 911.4 301.5 911.25 301.4 911.1 301.3 910.9 301.2 910.7 301.15 910.5 301.15 910.3 301.15
L 907.15 301.15
Q 906.9 301.15 906.7 301.2 906.5 301.3 906.4 301.45 906.25 301.65 906.2 301.9 906.15 302.1 906.15 302.35 906.15 302.65 906.2 302.8 906.25 303 906.4 303.15 906.5 303.3 906.7 303.4 906.9 303.45 907.15 303.45
L 909.9 303.45 909.9 304.45 908.15 304.45
Q 907.7 304.45 907.35 304.6 907 304.7 906.75 305 906.45 305.25 906.35 305.6 906.2 305.95 906.2 306.35
L 906.2 308.45
Q 906.2 308.9 906.35 309.2 906.5 309.55 906.75 309.75 907.05 309.95 907.4 310.05 907.7 310.15 908.15 310.15 908.5 310.1 908.75 310.1 909.05 310.1 909.3 310.1 909.55 310.1 909.75 310.05 910 310.05 910.15 310.05 910.4 310 910.65 310 910.9 309.95 911.1 309.95 911.55 309.9 912.05 309.85
L 911.95 309.85
Q 912.2 309.8 912.4 309.7 912.65 309.6 912.75 309.45 912.85 309.25 912.9 309.05 912.9 308.8 912.8 308.55 912.8 308.3 912.7 308.15 912.65 307.95 912.5 307.8 912.35 307.65 912.15 307.6 911.95 307.55 911.65 307.55 911.2 307.65 910.8 307.7 910.4 307.75 910 307.75 909.65 307.8 909.25 307.85 908.85 307.85 908.4 307.85
L 908.4 306.75 910.3 306.75
Q 910.5 306.75 910.7 306.75 910.9 306.7 911.1 306.6 911.45 306.45 911.65 306.15 911.75 306 911.9 305.85 912 305.7 912.1 305.5 912.15 305.3 912.25 305.1 912.3 304.9 912.3 304.7
L 912.3 303.15
M 918.45 303.15
Q 918.4 302.7 918.3 302.35 918.15 302 917.9 301.7 917.65 301.4 917.3 301.25 916.95 301.15 916.55 301.15
L 914.2 301.15
Q 913.9 301.15 913.7 301.2 913.5 301.3 913.4 301.45 913.3 301.65 913.25 301.9 913.2 302.1 913.2 302.35 913.2 302.65 913.25 302.85 913.3 303.05 913.4 303.2 913.5 303.4 913.7 303.5 913.9 303.55 914.2 303.55
L 915.8 303.55 915.8 309.1
Q 915.8 309.35 915.9 309.55 916 309.7 916.2 309.85 916.45 310 916.6 310.05 916.85 310.15 917.05 310.15 917.3 310.15 917.55 310.05 917.8 310 918 309.85 918.2 309.7 918.3 309.55 918.45 309.35 918.45 309.1
L 918.45 303.15
M 935.35 291.35
Q 935.25 291.55 935.25 291.85
L 935.25 309.6
Q 935.25 309.9 935.35 310.05 935.45 310.3 935.7 310.35 936.05 310.55 936.7 310.55 937.15 310.55 937.6 310.35 937.8 310.3 937.9 310.05 938 309.9 938 309.6
L 938 291.85
Q 938 291.55 937.9 291.35 937.8 291.15 937.6 291.05 937.15 290.85 936.7 290.85 936.05 290.85 935.7 291.05 935.45 291.15 935.35 291.35
M 924.5 292.55
Q 924.2 292.55 924 292.65 923.8 292.75 923.65 292.95 923.4 293.3 923.4 293.8 923.4 294.05 923.45 294.25 923.55 294.5 923.65 294.65 923.8 294.85 924 294.95 924.2 295.05 924.5 295.05
L 928.75 295.05
Q 928.7 295.55 928.65 296 928.6 296.45 928.55 296.85 928.45 297.25 928.35 297.55 928.25 297.9 928.15 298.2 928.05 298.5 927.9 298.75 927.75 299 927.6 299.2 927.45 299.45 927.25 299.65 927.1 299.9 927 300.1 926.75 300.35 926.55 300.5 926.4 300.7 926.3 300.85 926.15 301 926 301.15 925.85 301.3 925.65 301.4 925.5 301.55 925.35 301.65 925.2 301.8 925 301.9 924.75 302.05 924.45 302.2 924.2 302.35 923.8 302.5 923.55 302.65 923.45 302.8 923.3 302.95 923.25 303.15 923.2 303.35 923.2 303.55 923.25 303.8 923.35 304.05 923.45 304.3 923.6 304.5 923.7 304.7 923.9 304.8 924.05 304.95 924.25 305 924.45 305 924.7 304.9 925.15 304.7 925.55 304.5 925.95 304.3 926.25 304.1 926.6 303.95 926.8 303.8 927.1 303.6 927.3 303.4 927.55 303.25 927.75 303.05 928 302.8 928.2 302.6 928.4 302.4 928.6 302.1 928.8 301.85 929.05 301.55 929.4 301.25 929.65 300.85 929.95 300.5 930.15 300.1 930.4 299.7 930.55 299.3 930.75 298.85 930.85 298.4 931.05 297.9 931.2 297.45 931.35 297 931.45 296.5 931.5 296 931.55 295.55 931.55 295.05 931.55 294.6 931.55 294.4 931.55 294.15 931.55 293.95 931.55 293.75 931.55 293.55 931.5 293.4 931.45 293.25 931.35 293.15 931.25 293 931.1 292.9 930.95 292.8 930.75 292.7 930.55 292.65 930.3 292.6 930 292.55 929.65 292.55
L 924.5 292.55
M 915.7 291.45
Q 915.6 291.65 915.6 291.95
L 915.6 299.65
Q 915.6 299.95 915.7 300.15 915.8 300.35 915.95 300.5 916.15 300.6 916.4 300.65 916.6 300.7 916.9 300.7 917.2 300.7 917.45 300.65 917.75 300.6 917.95 300.5 918.2 300.35 918.3 300.15 918.4 299.95 918.45 299.65
L 918.45 291.95
Q 918.45 291.8 918.4 291.7 918.35 291.55 918.3 291.45 918.25 291.35 918.15 291.25 918.05 291.2 917.9 291.15 917.8 291.1 917.7 291.05 917.6 291 917.45 291 917.3 291 917.15 291 917 290.95 916.9 290.95 916.6 290.95 916.4 291 916.15 291.05 915.95 291.15 915.8 291.25 915.7 291.45
M 905.6 291.55
Q 904.65 291.85 904.05 292.45 903.75 292.75 903.5 293.1 903.25 293.45 903.1 293.85 902.95 294.3 902.85 294.8 902.75 295.25 902.75 295.8 902.75 296.3 902.85 296.75 902.95 297.25 903.1 297.65 903.25 298.05 903.5 298.4 903.75 298.75 904.05 299.05 904.65 299.65 905.6 299.95 906.05 300.1 906.6 300.2 907.15 300.25 907.75 300.25 908.3 300.25 908.8 300.2 909.3 300.1 909.8 299.95 910.7 299.65 911.35 299.05 911.65 298.75 911.9 298.4 912.1 298.05 912.3 297.65 912.45 297.25 912.55 296.75 912.65 296.3 912.65 295.8 912.65 295.25 912.55 294.8 912.45 294.3 912.3 293.85 912.1 293.45 911.9 293.1 911.65 292.75 911.35 292.45 910.7 291.85 909.8 291.55 909.3 291.4 908.8 291.3 908.3 291.25 907.75 291.25 907.15 291.25 906.6 291.3 906.05 291.4 905.6 291.55
M 905.5 296.65
Q 905.35 296.25 905.35 295.8 905.35 295.3 905.5 294.9 905.65 294.55 905.95 294.25 906.25 294 906.7 293.9 907.15 293.75 907.75 293.75 908.3 293.75 908.75 293.9 909.15 294 909.5 294.25 909.75 294.55 909.95 294.9 910.1 295.3 910.1 295.8 910.1 296.25 909.95 296.65 909.75 297 909.5 297.25 909.15 297.5 908.75 297.65 908.3 297.8 907.75 297.8 907.15 297.8 906.7 297.65 906.25 297.5 905.95 297.25 905.65 297 905.5 296.65 Z"/>
</g>

<path id="Layer1_1_1_STROKES" stroke="#CCCCCC" stroke-width="3" stroke-linejoin="round" stroke-linecap="round" fill="none" d="
M 952.85 323.85
L 1176.95 323.85"/>
</defs>

<g transform="matrix( 0.7999725341796875, 0, 0, 0.79998779296875, 872,300.25) ">
<g transform="matrix( 1, 0, 0, 1, 0,0) ">
<use xlink:href="#__________fdnd454535_1_Layer4_0_FILL"/>
</g>

<mask id="Mask_Mask_1">
<g transform="matrix( 1, 0, 0, 1, 0,0) ">
<use xlink:href="#Mask___________fdnd454535_1_3_MASK_0_FILL"/>
</g>
</mask>

<g mask="url(#Mask_Mask_1)">
<g transform="matrix( 1, 0, 0, 1, 0,0) ">
<use xlink:href="#__________fdnd454535_1_Layer3_0_FILL"/>
</g>
</g>

<g mask="url(#Mask_Mask_1)">
<g transform="matrix( -0.56134033203125, 0.56134033203125, -0.56134033203125, -0.56134033203125, -0.05,0) ">
<g transform="matrix( 1.67486572265625, 0, 0, 1.67486572265625, -5.95,43.5) ">
<use xlink:href="#__________bs232323_3_Layer4_0_FILL"/>
</g>
</g>
</g>

<g transform="matrix( 1, 0, 0, 1, 0,0) ">
<use xlink:href="#__________fdnd454535_1_Layer0_0_FILL"/>
</g>
</g>

<g transform="matrix( 1, 0, 0, 1, 10,0) ">
<use xlink:href="#Layer1_1_1_STROKES"/>
</g>

<g transform="matrix( 1, 0, 0, 1, 0,0) ">
<use xlink:href="#Layer0_0_FILL"/>
</g>
</svg>
