
<svg xmlns="http://www.w3.org/2000/svg" version="1.1" xmlns:xlink="http://www.w3.org/1999/xlink" preserveAspectRatio="none" x="0px" y="0px" width="1280px" height="720px" viewBox="0 0 1280 720">
<defs>
<g id="Layer1_0_FILL">
<path fill="#FFFFFF" stroke="none" d="
M 1213 579.9
Q 1213 564.9 1198 564.9
L 1068 564.9
Q 1053 564.9 1053 579.9
L 1053 609.95
Q 1053 624.95 1068 624.95
L 1198 624.95
Q 1213 624.95 1213 609.95
L 1213 579.9
M 1213 483.2
Q 1213 468.2 1198 468.2
L 1068 468.2
Q 1053 468.2 1053 483.2
L 1053 513.25
Q 1053 528.25 1068 528.25
L 1198 528.25
Q 1213 528.25 1213 513.25
L 1213 483.2
M 1068 371.5
Q 1053 371.5 1053 386.5
L 1053 416.55
Q 1053 431.55 1068 431.55
L 1198 431.55
Q 1213 431.55 1213 416.55
L 1213 386.5
Q 1213 371.5 1198 371.5
L 1068 371.5
M 102.5 385.65
Q 96.4 379.55 87.8 379.55 79.2 379.55 73.1 385.65 67 391.75 67 400.35 67 409 73.1 415.05 79.2 421.15 87.8 421.15 96.4 421.15 102.5 415.05 108.6 409 108.6 400.35 108.6 391.75 102.5 385.65
M 86.35 392.75
L 84.15 394.85
Q 83.55 395.4 83.25 394.95
L 81.1 392.55
Q 80.9 392.3 81 392.1 81.05 391.9 81.4 391.6
L 86.95 386.4
Q 87.35 386.1 87.8 386.1
L 90.15 386.1
Q 90.95 386.1 91.1 386.25 91.25 386.45 91.25 387.35
L 91.25 413.25
Q 91.25 413.65 91.1 413.85 90.95 414.05 90.6 414.05
L 87 414.05
Q 86.6 414.05 86.45 413.85 86.35 413.7 86.35 413.25
L 86.35 392.75
M 102.5 484.35
Q 96.4 478.25 87.8 478.25 79.2 478.25 73.1 484.35 67 490.45 67 499.05 67 507.7 73.1 513.75 79.2 519.85 87.8 519.85 96.4 519.85 102.5 513.75 108.6 507.7 108.6 499.05 108.6 490.45 102.5 484.35
M 86.45 484.7
Q 87.35 484.55 88.1 484.55 89.85 484.55 91.35 485.1 92.9 485.6 94 486.55 95.1 487.55 95.75 489.05 96.4 490.5 96.4 492.45 96.4 494.15 95.7 495.85 95 497.55 93.9 499.15 92.9 500.75 91.65 502.2 90.5 503.65 89.5 504.85 88.9 505.65 88.05 506.55 87.2 507.5 86.5 508.3
L 96 508.3
Q 96.55 508.3 96.7 508.45 96.8 508.65 96.8 509.15
L 96.8 511.85
Q 96.8 512.4 96.65 512.55 96.5 512.75 96 512.75
L 80.85 512.75
Q 80.35 512.75 80.15 512.6 79.95 512.5 79.95 512
L 79.95 509.45
Q 79.95 509.05 80.1 508.8 80.3 508.5 80.55 508.25
L 85.8 501.9
Q 88.7 498.35 90 496.15 91.3 493.9 91.3 492.55 91.3 491.1 90.55 490.25 89.75 489.35 88.3 489.2 86.95 489.05 85.55 489.5 84.15 489.95 82.4 490.9 81.9 491.2 81.7 491.1 81.5 491 81.45 490.7
L 80.8 487.5
Q 80.7 487.25 80.8 487.05 80.9 486.85 81.3 486.6 82 486.1 82.85 485.75 83.75 485.35 84.65 485.1 85.55 484.85 86.45 484.7
M 102.5 581.05
Q 96.4 574.95 87.8 574.95 79.2 574.95 73.1 581.05 67 587.15 67 595.75 67 604.4 73.1 610.45 79.2 616.55 87.8 616.55 96.4 616.55 102.5 610.45 108.6 604.4 108.6 595.75 108.6 587.15 102.5 581.05
M 84.8 581.6
Q 86.45 581.15 88 581.15 89.55 581.15 91.15 581.6 92.75 582 94 582.9 95.25 583.8 96.05 585.2 96.8 586.55 96.8 588.45 96.8 589.5 96.45 590.45 96.05 591.45 95.4 592.25 94.7 593.1 93.8 593.8 92.9 594.45 91.8 594.85 94.55 595.95 95.95 597.7 97.3 599.55 97.3 601.35 97.3 603.2 96.65 604.8 96 606.35 94.65 607.55 93.35 608.7 91.45 609.35 89.5 610 87 610 85.45 610 83.75 609.75 82 609.45 80.7 608.95 80.2 608.8 80.1 608.55 80 608.25 80.05 607.9
L 80.4 605
Q 80.5 604.5 80.7 604.4 80.9 604.3 81.5 604.45 82.35 604.75 83.45 605.05 84.55 605.3 85.45 605.4 86.65 605.5 87.9 605.35 89.1 605.2 90.05 604.75 91.05 604.25 91.65 603.4 92.25 602.5 92.25 601.2 92.25 600.45 91.85 599.7 91.5 599 90.8 598.4 90.05 597.85 88.95 597.45 87.85 597.1 86.35 597.1
L 84.45 597.1
Q 83.95 597.1 83.85 596.95 83.7 596.8 83.7 596.4
L 83.7 593.45
Q 83.7 592.95 83.85 592.8 83.95 592.7 84.45 592.7
L 86.3 592.7
Q 87.05 592.7 87.95 592.45 88.9 592.25 89.7 591.8 90.5 591.3 91.05 590.6 91.6 589.9 91.6 588.95 91.6 587.6 90.65 586.65 89.7 585.7 87.75 585.7 86.5 585.7 85.05 586.05 83.6 586.4 82.5 586.95 81.95 587.15 81.7 587.1 81.4 587.05 81.3 586.5
L 80.95 583.55
Q 80.9 583.2 81 583 81.15 582.8 81.7 582.6 83.2 582 84.8 581.6 Z"/>

<path fill="#1E1E1E" stroke="none" d="
M 482.45 381.65
Q 481.9 381.65 481.9 382.2
L 481.9 419.1
Q 481.9 419.65 482.45 419.65
L 486 419.65
Q 486.5 419.65 486.5 419.1
L 486.5 401.25 491.75 401.25
Q 491.95 401.25 492.15 401.05 492.3 400.9 492.3 400.7
L 492.3 397.9
Q 492.3 397.7 492.15 397.55 491.95 397.4 491.75 397.4
L 486.5 397.4 486.5 382.2
Q 486.5 381.65 486 381.65
L 482.45 381.65
M 464.7 392.85
Q 463.1 393.4 461.9 394.25 460.7 395.15 460 396.4 459.3 397.65 459.3 399.15 459.3 400.45 459.75 401.5 460.25 402.55 461.1 403.4 461.95 404.2 463.15 404.8 464.3 405.4 465.7 405.65
L 465.7 409.25
Q 461.05 409.35 456.5 409.25 455.95 409.25 455.95 409.85
L 455.95 412.45
Q 455.95 412.7 456.1 412.9 456.3 413.05 456.5 413.05 462.3 413.15 468.3 412.85 474.3 412.6 479.9 411.65 480.1 411.6 480.25 411.45 480.4 411.3 480.35 411
L 480.1 408.5
Q 480.1 408.2 479.85 408.1 479.6 408.05 479.4 408.1 474.85 408.85 470.15 409.05
L 470.15 405.7
Q 471.6 405.45 472.85 404.9 474.1 404.3 475 403.45 475.9 402.6 476.4 401.5 476.9 400.45 476.9 399.15 476.9 397.65 476.2 396.4 475.55 395.15 474.3 394.25 473.15 393.4 471.5 392.85 469.9 392.4 468.1 392.4 466.3 392.4 464.7 392.85
M 471.3 401.45
Q 470.05 402.4 468.1 402.4 466.1 402.4 464.85 401.45 463.6 400.55 463.6 399.15 463.6 397.75 464.9 396.85 466.15 395.95 468.1 395.95 470.05 395.95 471.3 396.85 472.55 397.75 472.55 399.15 472.55 400.55 471.3 401.45
M 456.8 390.8
Q 457.05 391 457.25 391
L 478.35 391
Q 478.6 391 478.8 390.85 478.95 390.65 478.95 390.45
L 478.95 388.15
Q 478.95 387.9 478.8 387.7 478.6 387.55 478.35 387.55
L 457.3 387.55
Q 457.1 387.55 456.85 387.75 456.6 387.95 456.6 388.15
L 456.6 390.4
Q 456.6 390.6 456.8 390.8
M 462.5 382.35
Q 462.35 382.35 462.15 382.5 461.9 382.65 461.9 382.95
L 461.9 385.25
Q 461.9 385.6 462.15 385.75 462.35 385.9 462.5 385.9
L 473.25 385.9
Q 473.5 385.9 473.7 385.7 473.9 385.5 473.9 385.2
L 473.9 383
Q 473.9 382.75 473.65 382.55 473.5 382.35 473.25 382.35
L 462.5 382.35
M 451.55 418.45
L 451.55 415.6
Q 451.55 415.45 451.4 415.25 451.2 415.1 451 415.1
L 432.5 415.1
Q 432.1 415.1 431.9 415 431.75 414.85 431.75 414.45
L 431.75 407.85
Q 431.75 407.65 431.6 407.45 431.4 407.25 431.1 407.25
L 427.7 407.25
Q 427.5 407.25 427.3 407.45 427.15 407.65 427.15 407.85
L 427.15 416.1
Q 427.15 417.65 427.75 418.3 428.4 418.95 430.2 418.95
L 451 418.95
Q 451.2 418.95 451.4 418.85 451.55 418.7 451.55 418.45
M 421.55 383.6
Q 421.4 383.75 421.4 383.95
L 421.4 400.25
Q 421.4 401.85 422.05 402.45 422.65 403.05 424.45 403.05
L 436 403.05
Q 437.7 403.05 438.35 402.4 439 401.75 439 400.4
L 439 399.4 445.8 399.4 445.8 408.4
Q 445.8 408.9 446.35 408.9
L 449.9 408.9
Q 450.4 408.9 450.4 408.4
L 450.4 382.2
Q 450.4 381.65 449.9 381.65
L 446.35 381.65
Q 445.8 381.65 445.8 382.2
L 445.8 387.75 439 387.75 439 383.9
Q 439 383.7 438.85 383.55 438.7 383.4 438.45 383.4
L 434.95 383.4
Q 434.75 383.4 434.6 383.55 434.45 383.7 434.45 383.9
L 434.45 390.2 425.95 390.2 425.95 383.95
Q 425.95 383.75 425.8 383.6 425.6 383.45 425.4 383.45
L 421.9 383.45
Q 421.7 383.45 421.55 383.6
M 425.95 393.9
L 434.45 393.9 434.45 398.5
Q 434.45 399.2 433.75 399.2
L 426.7 399.2
Q 425.95 399.2 425.95 398.5
L 425.95 393.9
M 439 395.8
L 439 391.35 445.8 391.35 445.8 395.8 439 395.8
M 401.6 382.2
Q 401.6 381.95 401.4 381.8 401.25 381.65 401.05 381.65
L 397.55 381.65
Q 396.95 381.65 396.95 382.2
L 396.95 419.1
Q 396.95 419.65 397.55 419.65
L 401.05 419.65
Q 401.25 419.65 401.4 419.45 401.6 419.35 401.6 419.1
L 401.6 382.2
M 373.05 384.65
Q 372.5 384.65 372.5 385.15
L 372.5 387.95
Q 372.5 388.5 373.05 388.5
L 384.5 388.5
Q 385.25 388.5 385.45 388.75 385.7 389 385.55 389.8 385.25 391.7 384.6 393.6 383.35 393.75 381.8 393.85 380.3 393.9 378.65 394 377.05 394.05 375.4 394.1 373.8 394.2 372.3 394.2 372.2 394.2 372 394.35 371.8 394.5 371.8 394.75
L 371.8 397.35
Q 371.8 397.65 372 397.8 372.2 398 372.35 398 374.75 397.95 377.5 397.8 380.25 397.7 382.7 397.45 380.8 400.7 377.9 403.4 374.95 406.15 371.2 408.2 370.9 408.35 370.8 408.65 370.75 409 370.95 409.3
L 372.55 411.55
Q 372.7 411.85 373.05 411.9 373.4 411.95 373.7 411.75 377.45 409.7 380.45 407.05 383.45 404.35 385.55 401.3 387.7 398.2 388.95 394.75 390.25 391.3 390.5 387.65 390.6 386.15 390.05 385.4 389.5 384.65 387.7 384.65
L 373.05 384.65
M 321.7 407.6
Q 321.45 407.6 321.3 407.75 321.15 407.95 321.15 408.2
L 321.15 410.9
Q 321.15 411.15 321.3 411.35 321.45 411.5 321.7 411.5 324.55 411.55 327.9 411.45 331.2 411.35 334.5 411.15 337.8 410.95 340.8 410.65 343.8 410.4 346.05 410.05 346.25 410 346.4 409.85 346.6 409.65 346.55 409.35
L 346.3 406.75
Q 346.3 406.45 346 406.35 345.75 406.3 345.55 406.35 343.1 406.65 340.1 406.9 337.15 407.2 334 407.35 330.85 407.5 327.75 407.6 324.55 407.65 321.7 407.6
M 348.35 381.8
Q 348.15 381.95 348.15 382.2
L 348.15 419.1
Q 348.15 419.35 348.35 419.45 348.5 419.65 348.75 419.65
L 352.25 419.65
Q 352.8 419.65 352.8 419.1
L 352.8 382.2
Q 352.8 381.65 352.25 381.65
L 348.75 381.65
Q 348.5 381.65 348.35 381.8
M 333.2 384
Q 331.15 384 329.35 384.65 327.6 385.3 326.3 386.5 325 387.75 324.25 389.45 323.45 391.15 323.45 393.25 323.45 395.4 324.25 397.1 325 398.8 326.3 399.95 327.6 401.15 329.35 401.8 331.15 402.4 333.15 402.4 335.25 402.4 337.05 401.8 338.8 401.15 340.1 399.95 341.45 398.8 342.2 397.1 342.95 395.4 342.95 393.25 342.95 391.15 342.2 389.45 341.45 387.75 340.1 386.5 338.8 385.3 337.05 384.65 335.25 384 333.2 384
M 327.95 393.25
Q 327.95 390.75 329.45 389.25 330.9 387.75 333.2 387.75 335.55 387.75 337.05 389.25 338.5 390.75 338.5 393.25 338.5 395.8 337.05 397.3 335.55 398.8 333.2 398.8 330.9 398.8 329.45 397.3 327.95 395.8 327.95 393.25
M 313.55 382.2
Q 313.55 381.65 313 381.65
L 309.45 381.65
Q 308.9 381.65 308.9 382.2
L 308.9 419.1
Q 308.9 419.65 309.45 419.65
L 313 419.65
Q 313.55 419.65 313.55 419.1
L 313.55 400.2 318.95 400.2
Q 319.15 400.2 319.35 400 319.5 399.85 319.5 399.65
L 319.5 396.8
Q 319.5 396.6 319.35 396.5 319.15 396.35 318.95 396.35
L 313.55 396.35 313.55 382.2
M 286.15 384.65
Q 285.9 384.65 285.75 384.8 285.55 385 285.55 385.2
L 285.55 387.9
Q 285.55 388.15 285.7 388.3 285.85 388.5 286.15 388.5
L 296.45 388.5
Q 297.1 388.5 297.25 388.7 297.35 388.9 297.2 389.6 296.65 391.75 295.35 394.1 294.1 396.45 292.25 398.65 290.4 400.95 288.1 403 285.85 405 283.3 406.6 283.1 406.75 282.9 407.05 282.75 407.4 283 407.75
L 284.55 409.8
Q 284.75 410.1 285.1 410.15 285.45 410.2 285.75 410 291.85 406.1 295.9 401 296.7 402.05 297.75 403.2 298.75 404.35 299.8 405.4 300.8 406.45 301.75 407.25 302.75 408.1 303.45 408.55 304.25 409.1 304.75 408.5
L 306.5 406.55
Q 306.7 406.25 306.6 405.9 306.5 405.6 306.25 405.4 305.4 404.8 304.35 403.9 303.3 403 302.3 401.9 301.25 400.85 300.25 399.75 299.25 398.55 298.5 397.55 299.85 395.4 300.75 393.2 301.65 391 302.25 388.85 302.35 388.4 302.45 387.85 302.5 387.35 302.5 386.8 302.5 385.85 301.65 385.25 300.75 384.65 299.2 384.65
L 286.15 384.65
M 275.95 407.8
Q 275.95 406.25 275.3 405.55 274.7 404.9 272.9 404.9
L 255.3 404.9
Q 253.75 404.9 253.1 405.6 252.4 406.25 252.4 407.75
L 252.4 416.15
Q 252.4 417.75 253 418.4 253.65 419 255.5 419
L 273.1 419
Q 274.6 419 275.3 418.4 275.95 417.75 275.95 416.25
L 275.95 407.8
M 270.85 408.55
Q 271.15 408.55 271.25 408.65 271.35 408.8 271.35 409.1
L 271.35 414.8
Q 271.35 415.2 271.25 415.25 271.15 415.35 270.85 415.35
L 257.55 415.35
Q 257.15 415.35 257.05 415.25 256.95 415.2 256.95 414.8
L 256.95 409.05
Q 256.95 408.75 257.05 408.65 257.15 408.55 257.55 408.55
L 270.85 408.55
M 275.95 382.2
Q 275.95 381.65 275.35 381.65
L 271.85 381.65
Q 271.65 381.65 271.45 381.8 271.3 381.95 271.3 382.2
L 271.3 402.35
Q 271.3 402.6 271.45 402.75 271.65 402.9 271.85 402.9
L 275.35 402.9
Q 275.95 402.9 275.95 402.4
L 275.95 394.85 281.3 394.85
Q 281.5 394.85 281.75 394.7 281.9 394.55 281.9 394.35
L 281.9 391.55
Q 281.9 391.35 281.75 391.15 281.5 391 281.3 391
L 275.95 391 275.95 382.2
M 248.15 386.95
Q 248.25 387.2 248.55 387.2
L 259.4 387.2
Q 260 387.2 260.1 387.4 260.15 387.65 259.95 388.3 258.85 391.95 255.5 394.9 252.2 397.9 247.3 400 246.85 400.2 246.8 400.55 246.75 400.85 246.9 401.15
L 247.9 403.25
Q 248.25 404 249.2 403.6 255.5 401 259.45 397.15 263.4 393.25 264.9 387.75 264.95 387.65 265.05 387.4 265.1 387.15 265.15 386.8 265.2 386.5 265.25 386.2 265.3 385.9 265.3 385.75 265.3 384.45 264.6 383.9 263.9 383.35 262.1 383.35
L 248.55 383.35
Q 248 383.35 248 383.9
L 248 386.55
Q 248 386.8 248.15 386.95
M 228.75 406
Q 228.75 404.6 228.2 404.05 227.65 403.5 225.95 403.5
L 205.5 403.5
Q 205.25 403.5 205.1 403.65 204.9 403.85 204.9 404.05
L 204.9 406.7
Q 204.9 406.9 205.1 407.05 205.25 407.2 205.5 407.2
L 223.65 407.2
Q 224.1 407.2 224.15 407.3 224.25 407.4 224.25 407.8
L 224.25 409.2
Q 224.25 409.6 224.15 409.7 224.1 409.8 223.75 409.8
L 207.7 409.8
Q 206.05 409.8 205.55 410.4 205 410.95 205 412.25
L 205 417.05
Q 205 418.35 205.6 418.95 206.15 419.55 207.7 419.55
L 229.2 419.55
Q 229.35 419.55 229.55 419.35 229.75 419.2 229.75 419
L 229.75 416.45
Q 229.75 416.15 229.55 416 229.35 415.85 229.15 415.85
L 210.1 415.85
Q 209.7 415.85 209.6 415.8 209.5 415.75 209.5 415.4
L 209.5 413.75
Q 209.5 413.4 209.6 413.3 209.7 413.2 210.05 413.2
L 225.95 413.2
Q 227.65 413.2 228.2 412.7 228.75 412.2 228.75 410.8
L 228.75 406
M 200.3 382.4
Q 200.1 382.4 199.95 382.55 199.8 382.7 199.8 382.9
L 199.8 397.45
Q 199.8 399.1 200.45 399.7 201.05 400.3 202.85 400.3
L 214.4 400.3
Q 216.1 400.3 216.75 399.65 217.4 398.95 217.4 397.6
L 217.4 397.1 224.2 397.1 224.2 401.15
Q 224.2 401.7 224.75 401.7
L 228.3 401.7
Q 228.8 401.7 228.8 401.15
L 228.8 382.2
Q 228.8 381.65 228.3 381.65
L 224.75 381.65
Q 224.2 381.65 224.2 382.2
L 224.2 386 217.4 386 217.4 382.85
Q 217.4 382.65 217.25 382.5 217.1 382.35 216.85 382.35
L 213.4 382.35
Q 213.2 382.35 213.05 382.5 212.9 382.65 212.9 382.85
L 212.9 388.15 204.3 388.15 204.3 382.9
Q 204.3 382.7 204.15 382.55 203.95 382.4 203.75 382.4
L 200.3 382.4
M 204.3 395.85
L 204.3 391.85 212.9 391.85 212.9 395.85
Q 212.9 396.55 212.15 396.55
L 205.05 396.55
Q 204.3 396.55 204.3 395.85
M 217.4 393.4
L 217.4 389.7 224.2 389.7 224.2 393.4 217.4 393.4
M 190.35 382.2
Q 190.35 381.95 190.15 381.8 189.95 381.65 189.75 381.65
L 186.4 381.65
Q 186.2 381.65 186 381.8 185.85 381.95 185.85 382.2
L 185.85 419.1
Q 185.85 419.35 186 419.45 186.2 419.65 186.4 419.65
L 189.75 419.65
Q 189.95 419.65 190.15 419.45 190.35 419.35 190.35 419.1
L 190.35 400.3 195.35 400.3
Q 195.55 400.3 195.75 400.15 195.9 400 195.9 399.8
L 195.9 396.95
Q 195.9 396.75 195.75 396.6 195.55 396.45 195.35 396.45
L 190.35 396.45 190.35 382.2
M 161.35 384.75
Q 160.75 384.75 160.75 385.4
L 160.75 387.65
Q 160.75 387.9 160.9 388.1 161.05 388.3 161.35 388.3
L 165.5 388.3
Q 166.3 388.3 166.35 388.5 166.35 388.65 166.3 389.3 166.15 391.25 165.45 393.3 164.75 395.4 163.7 397.45 162.6 399.55 161.15 401.5 159.7 403.4 158.05 405.05 157.85 405.25 157.9 405.55 157.95 405.8 158.1 406
L 159.95 407.65
Q 160.15 407.85 160.45 407.75 160.75 407.65 161.05 407.4 162.75 405.8 164.2 403.95 165.6 402.05 166.75 400.1 167.45 401.15 168.4 402.3 169.35 403.4 170.3 404.35 169.35 405.55 168.4 406.7 167.45 407.8 166.4 408.9 165.95 409.35 166.6 410
L 168.45 411.55
Q 168.8 411.85 169.05 411.75 169.25 411.6 169.55 411.35 171.85 409.1 173.65 406.7 175.4 404.35 176.8 401.8 177.3 402.65 177.95 403.55 178.6 404.4 179.25 405.2 179.9 406 180.5 406.6 181.15 407.25 181.7 407.6 182.1 407.9 182.45 407.95 182.85 408 183.1 407.65
L 184.4 406.1
Q 184.9 405.35 184.25 404.8 183.55 404.2 182.85 403.35 182.1 402.55 181.35 401.6 180.65 400.6 180 399.6 179.3 398.55 178.85 397.55 179.75 395.45 180.35 393.3 180.95 391.15 181.4 388.95 181.5 388.4 181.55 387.95 181.6 387.45 181.6 386.9 181.6 385.9 180.8 385.3 179.95 384.7 178.35 384.7
L 172.5 384.7
Q 171.85 384.7 171.85 385.3
L 171.85 387.6
Q 171.85 387.85 172.05 388.05 172.15 388.25 172.45 388.25
L 176.3 388.25
Q 176.9 388.25 177 388.45 177.1 388.6 177 389.25 176.6 392 175.45 395 174.25 398.05 172.5 401 171.45 400 170.5 398.65 169.55 397.4 168.8 396 169.55 394.2 169.95 392.45 170.4 390.75 170.6 389.1 170.7 388.6 170.7 388.05 170.75 387.45 170.75 386.95 170.75 385.95 169.85 385.35 168.95 384.75 167.4 384.75
L 161.35 384.75
M 151.35 403.95
Q 150.8 403.4 149.15 403.4
L 128.95 403.4
Q 128.75 403.4 128.6 403.55 128.4 403.75 128.4 403.95
L 128.4 406.6
Q 128.4 406.8 128.6 406.9 128.75 407.05 128.95 407.05
L 146.9 407.05
Q 147.25 407.05 147.3 407.15 147.4 407.25 147.4 407.65
L 147.4 409.15
Q 147.4 409.5 147.3 409.6 147.25 409.7 146.95 409.7
L 131.15 409.7
Q 129.55 409.7 129 410.25 128.45 410.85 128.45 412.15
L 128.45 417.05
Q 128.45 418.35 129.05 418.95 129.6 419.55 131.15 419.55
L 152.35 419.55
Q 152.55 419.55 152.75 419.35 152.9 419.2 152.9 419
L 152.9 416.45
Q 152.9 416.15 152.75 416 152.55 415.85 152.3 415.85
L 133.55 415.85
Q 133.15 415.85 133.1 415.8 133 415.75 133 415.4
L 133 413.65
Q 133 413.35 133.1 413.25 133.15 413.15 133.45 413.15
L 149.15 413.15
Q 150.8 413.15 151.35 412.6 151.9 412.1 151.9 410.7
L 151.9 405.85
Q 151.9 404.5 151.35 403.95
M 151.35 381.65
L 147.8 381.65
Q 147.3 381.65 147.3 382.2
L 147.3 401
Q 147.3 401.55 147.8 401.55
L 151.35 401.55
Q 151.9 401.55 151.9 401
L 151.9 393.9 157.3 393.9
Q 157.5 393.9 157.7 393.75 157.9 393.55 157.9 393.35
L 157.9 390.55
Q 157.9 390.35 157.7 390.2 157.5 390.05 157.3 390.05
L 151.9 390.05 151.9 382.2
Q 151.9 381.65 151.35 381.65
M 140.45 395.55
Q 138.55 395.8 136.65 395.95 134.8 396.1 133.1 396.15 131.45 396.15 130.15 396.1 129.7 396.05 129.55 395.95 129.4 395.85 129.4 395.45
L 129.4 383.4
Q 129.4 383.15 129.2 382.95 129.05 382.75 128.8 382.75
L 125.35 382.75
Q 125.15 382.75 125 383 124.8 383.2 124.8 383.4
L 124.8 397.05
Q 124.8 398.45 125.4 399.2 125.95 399.9 127.7 400 129.45 400.05 131.65 400 133.9 399.95 136.25 399.75 138.6 399.6 140.85 399.25 143.15 398.95 144.95 398.45 145.15 398.4 145.3 398.3 145.45 398.15 145.4 397.9
L 145 395.25
Q 144.95 395.05 144.7 394.95 144.5 394.85 144.25 394.9 142.4 395.3 140.45 395.55
M 84.15 394.85
L 86.35 392.75 86.35 413.25
Q 86.35 413.7 86.45 413.85 86.6 414.05 87 414.05
L 90.6 414.05
Q 90.95 414.05 91.1 413.85 91.25 413.65 91.25 413.25
L 91.25 387.35
Q 91.25 386.45 91.1 386.25 90.95 386.1 90.15 386.1
L 87.8 386.1
Q 87.35 386.1 86.95 386.4
L 81.4 391.6
Q 81.05 391.9 81 392.1 80.9 392.3 81.1 392.55
L 83.25 394.95
Q 83.55 395.4 84.15 394.85
M 454.15 503.75
L 454.15 501.15
Q 454.15 500.95 453.95 500.75 453.75 500.55 453.55 500.55
L 418.75 500.55
Q 418.45 500.55 418.3 500.75 418.15 500.95 418.15 501.15
L 418.15 503.75
Q 418.15 503.95 418.3 504.2 418.45 504.4 418.75 504.4
L 433.8 504.4 433.8 517.5
Q 433.8 518.05 434.35 518.05
L 437.85 518.05
Q 438.4 518.05 438.4 517.5
L 438.4 504.4 453.55 504.4
Q 453.75 504.4 453.95 504.2 454.15 503.95 454.15 503.75
M 420.75 493.6
Q 420.65 493.9 420.75 494.15
L 422.15 496.75
Q 422.25 496.9 422.5 496.95 422.8 496.95 423.1 496.9 427.65 495.7 431.1 493.55 434.55 491.35 436.45 488.3 437.3 489.7 438.75 490.95 440.2 492.25 441.95 493.35 443.75 494.4 445.7 495.2 447.65 495.95 449.6 496.3 450.25 496.45 450.45 495.95
L 451.65 493.3
Q 451.75 493 451.6 492.8 451.45 492.6 451.15 492.55 449 492 446.95 491.1 444.9 490.2 443.2 488.95 441.5 487.75 440.2 486.3 438.95 484.85 438.4 483.2 438.55 482.2 438.65 481 438.65 480.35 438.1 480.35
L 434.7 480.25
Q 434.4 480.25 434.2 480.45 434.05 480.65 434 480.95 433.75 483.45 432.8 485.4 431.85 487.3 430.2 488.8 428.55 490.3 426.3 491.4 424.05 492.5 421.2 493.3 420.9 493.35 420.75 493.6
M 399.65 505.3
Q 397.9 504.3 395.5 503.8 393.15 503.25 390.6 503.25 387.85 503.25 385.5 503.8 383.15 504.3 381.4 505.3 379.65 506.3 378.7 507.7 377.7 509.1 377.7 510.75 377.7 512.5 378.7 513.9 379.65 515.3 381.4 516.25 383.15 517.25 385.5 517.8 387.85 518.35 390.6 518.35 393.15 518.35 395.5 517.8 397.9 517.25 399.65 516.25 401.45 515.25 402.55 513.85 403.6 512.45 403.6 510.75 403.6 509.05 402.55 507.65 401.45 506.3 399.65 505.3
M 390.6 506.9
Q 392.1 506.9 393.55 507.15 395.05 507.4 396.2 507.9 397.4 508.4 398.15 509.15 398.85 509.85 398.85 510.9 398.85 511.85 398.15 512.55 397.4 513.25 396.2 513.7 395.05 514.2 393.55 514.45 392.1 514.7 390.6 514.7 389.05 514.7 387.55 514.45 386.1 514.2 384.95 513.7 383.8 513.25 383.1 512.55 382.45 511.85 382.45 510.9 382.45 509.85 383.1 509.15 383.8 508.4 384.95 507.9 386.1 507.4 387.55 507.15 389 506.9 390.6 506.9
M 403.3 480.9
Q 403.3 480.35 402.75 480.35
L 399.3 480.35
Q 398.75 480.35 398.75 480.9
L 398.75 490.1 395.15 490.1 395.15 481.5
Q 395.15 481 394.65 481
L 391.35 481
Q 390.8 481 390.8 481.5
L 390.8 501.2
Q 390.8 501.75 391.35 501.75
L 394.65 501.75
Q 395.15 501.75 395.15 501.2
L 395.15 493.9 398.75 493.9 398.75 502.25
Q 398.75 502.85 399.3 502.85
L 402.75 502.85
Q 403.3 502.85 403.3 502.25
L 403.3 480.9
M 378.4 481.7
Q 378.2 481.9 378.2 482.2 378.2 484.55 377.85 486.75 377.5 488.9 376.6 490.85 375.7 492.8 374.15 494.6 372.65 496.4 370.3 498.05 369.55 498.7 370.15 499.3
L 371.65 501.05
Q 371.9 501.35 372.25 501.35 372.65 501.3 372.95 501.1 375.35 499.55 377.15 497.65 378.9 495.75 380.15 493.4 381.25 495.3 382.9 496.95 384.6 498.6 386.3 499.65 386.95 500.1 387.45 499.5
L 388.95 497.45
Q 389.15 497.15 389.2 496.95 389.2 496.75 388.85 496.5 386.6 495 384.7 492.85 382.85 490.65 382.05 488.35 382.65 485.55 382.65 482.3 382.65 481.7 382.1 481.7
L 378.75 481.5
Q 378.55 481.5 378.4 481.7
M 361.7 507
Q 361.1 506.35 359.6 506.35
L 338.85 506.35
Q 338.65 506.35 338.45 506.5 338.3 506.65 338.3 506.9
L 338.3 509.65
Q 338.3 509.85 338.45 510 338.65 510.15 338.85 510.15
L 356.9 510.15
Q 357.35 510.15 357.5 510.25 357.7 510.35 357.7 510.8
L 357.7 517.7
Q 357.7 517.9 357.85 518.05 358.05 518.25 358.3 518.25
L 361.7 518.25
Q 361.9 518.25 362.1 518.05 362.3 517.9 362.3 517.7
L 362.3 509.15
Q 362.3 507.65 361.7 507
M 362.35 480.9
Q 362.35 480.35 361.8 480.35
L 358.25 480.35
Q 357.7 480.35 357.7 480.9
L 357.7 504.15
Q 357.7 504.75 358.25 504.75
L 361.8 504.75
Q 362.35 504.75 362.35 504.2
L 362.35 495.5 367.7 495.5
Q 367.95 495.5 368.15 495.3 368.3 495.15 368.3 494.95
L 368.3 492.1
Q 368.3 491.9 368.15 491.8 367.95 491.65 367.7 491.65
L 362.35 491.65 362.35 480.9
M 340.85 491.05
Q 339.3 491.55 338.15 492.45 336.95 493.35 336.25 494.55 335.6 495.75 335.6 497.25 335.6 498.7 336.25 499.95 336.95 501.2 338.15 502.1 339.3 503 340.85 503.5 342.4 504 344.2 504 346.05 504 347.6 503.5 349.2 503 350.4 502.1 351.55 501.2 352.25 499.95 352.9 498.7 352.9 497.25 352.9 495.75 352.25 494.55 351.55 493.35 350.4 492.45 349.25 491.55 347.65 491.05 346.05 490.55 344.25 490.55 342.45 490.55 340.85 491.05
M 344.25 494.05
Q 346.15 494.05 347.35 494.95 348.55 495.85 348.55 497.25 348.55 498.65 347.35 499.6 346.1 500.55 344.25 500.55 343.3 500.55 342.5 500.3 341.7 500.05 341.15 499.6 340.55 499.15 340.25 498.55 339.95 497.95 339.95 497.25 339.95 495.85 341.15 494.95 342.35 494.05 344.25 494.05
M 332.9 489.05
Q 333.1 489.3 333.3 489.3
L 354.5 489.3
Q 354.75 489.3 354.95 489.1 355.1 488.9 355.1 488.7
L 355.1 486.4
Q 355.1 486.15 354.95 485.95 354.75 485.75 354.5 485.75
L 333.35 485.75
Q 333.15 485.75 332.9 486 332.7 486.2 332.7 486.4
L 332.7 488.65
Q 332.7 488.9 332.9 489.05
M 338.85 480.75
Q 338.7 480.75 338.45 480.95 338.25 481.1 338.25 481.35
L 338.25 483.65
Q 338.25 483.95 338.45 484.15 338.7 484.3 338.85 484.3
L 349.3 484.3
Q 349.6 484.3 349.8 484.05 349.95 483.85 349.95 483.6
L 349.95 481.4
Q 349.95 481.15 349.75 480.95 349.55 480.75 349.3 480.75
L 338.85 480.75
M 315.15 504.7
Q 315.15 503.3 314.6 502.75 314.05 502.2 312.35 502.2
L 291.9 502.2
Q 291.65 502.2 291.5 502.35 291.3 502.55 291.3 502.75
L 291.3 505.4
Q 291.3 505.6 291.5 505.75 291.65 505.9 291.9 505.9
L 310.05 505.9
Q 310.5 505.9 310.55 506 310.65 506.1 310.65 506.5
L 310.65 507.9
Q 310.65 508.3 310.55 508.4 310.5 508.5 310.15 508.5
L 294.1 508.5
Q 292.45 508.5 291.95 509.1 291.4 509.65 291.4 510.95
L 291.4 515.75
Q 291.4 517.05 292 517.65 292.55 518.25 294.1 518.25
L 315.6 518.25
Q 315.75 518.25 315.95 518.05 316.15 517.9 316.15 517.7
L 316.15 515.15
Q 316.15 514.85 315.95 514.7 315.75 514.55 315.55 514.55
L 296.5 514.55
Q 296.1 514.55 296 514.5 295.9 514.45 295.9 514.1
L 295.9 512.45
Q 295.9 512.1 296 512 296.1 511.9 296.45 511.9
L 312.35 511.9
Q 314.05 511.9 314.6 511.4 315.15 510.9 315.15 509.5
L 315.15 504.7
M 303.65 481.2
Q 303.5 481.05 303.25 481.05
L 299.8 481.05
Q 299.6 481.05 299.45 481.2 299.3 481.35 299.3 481.55
L 299.3 486.85 290.7 486.85 290.7 481.6
Q 290.7 481.4 290.55 481.25 290.35 481.1 290.15 481.1
L 286.7 481.1
Q 286.5 481.1 286.35 481.25 286.2 481.4 286.2 481.6
L 286.2 496.15
Q 286.2 497.8 286.85 498.4 287.45 499 289.25 499
L 300.8 499
Q 302.5 499 303.15 498.35 303.8 497.65 303.8 496.3
L 303.8 495.8 310.6 495.8 310.6 499.85
Q 310.6 500.4 311.15 500.4
L 314.7 500.4
Q 315.2 500.4 315.2 499.85
L 315.2 480.9
Q 315.2 480.35 314.7 480.35
L 311.15 480.35
Q 310.6 480.35 310.6 480.9
L 310.6 484.7 303.8 484.7 303.8 481.55
Q 303.8 481.35 303.65 481.2
M 290.7 494.55
L 290.7 490.55 299.3 490.55 299.3 494.55
Q 299.3 495.25 298.55 495.25
L 291.45 495.25
Q 290.7 495.25 290.7 494.55
M 303.8 488.4
L 310.6 488.4 310.6 492.1 303.8 492.1 303.8 488.4
M 272.85 505.15
Q 271.3 504.15 269.05 503.6 266.9 503.05 264.35 503.05 261.55 503.05 259.4 503.65 257.2 504.2 255.65 505.2 254.1 506.2 253.3 507.6 252.45 509 252.45 510.65 252.45 512.4 253.3 513.8 254.1 515.2 255.65 516.2 257.2 517.2 259.4 517.75 261.55 518.35 264.35 518.35 266.9 518.35 269.05 517.75 271.3 517.2 272.85 516.2 274.45 515.2 275.35 513.8 276.25 512.35 276.25 510.65 276.25 508.95 275.35 507.55 274.45 506.15 272.85 505.15
M 264.35 506.75
Q 265.75 506.75 267.1 507 268.4 507.25 269.4 507.75 270.35 508.3 270.95 509.05 271.5 509.8 271.5 510.8 271.5 511.75 270.95 512.5 270.35 513.2 269.4 513.7 268.4 514.15 267.1 514.4 265.75 514.7 264.35 514.7 262.75 514.7 261.45 514.4 260.15 514.15 259.2 513.7 258.25 513.2 257.75 512.5 257.2 511.75 257.2 510.8 257.2 508.8 259.15 507.75 261.1 506.75 264.35 506.75
M 275.9 480.9
Q 275.9 480.35 275.35 480.35
L 271.8 480.35
Q 271.3 480.35 271.3 480.9
L 271.3 501.9
Q 271.3 502.1 271.45 502.3 271.6 502.5 271.8 502.5
L 275.35 502.5
Q 275.55 502.5 275.7 502.3 275.9 502.1 275.9 501.9
L 275.9 493.8 281.3 493.8
Q 281.5 493.8 281.7 493.65 281.9 493.5 281.9 493.3
L 281.9 490.5
Q 281.9 490.3 281.7 490.15 281.5 489.95 281.3 489.95
L 275.9 489.95 275.9 480.9
M 249.1 482.65
Q 248.5 483.25 248.5 484.75
L 248.5 496.9
Q 248.5 498.5 249.1 499.1 249.75 499.7 251.45 499.7
L 263.2 499.7
Q 264.7 499.7 265.35 499.1 265.95 498.5 265.95 496.9
L 265.95 484.75
Q 265.95 483.15 265.35 482.65 264.7 482.1 263.2 482.1
L 251.25 482.1
Q 249.7 482.1 249.1 482.65
M 253 486.25
Q 253 485.9 253.1 485.8 253.2 485.7 253.55 485.7
L 260.95 485.7
Q 261.25 485.7 261.35 485.85 261.45 485.95 261.45 486.3
L 261.45 495.5
Q 261.45 495.85 261.35 495.95 261.25 496 260.95 496
L 253.55 496
Q 253.2 496 253.1 495.95 253 495.85 253 495.5
L 253 486.25
M 233.45 507.1
Q 233.15 507.05 232.95 507.1 230.5 507.4 227.5 507.65 224.5 507.9 221.3 508.05 218.1 508.2 214.95 508.25 211.75 508.35 208.9 508.25 208.35 508.25 208.35 508.85
L 208.35 511.45
Q 208.35 511.75 208.5 511.9 208.65 512.1 208.9 512.1 211.75 512.1 215.15 512.05 218.5 511.95 221.8 511.8 225.15 511.6 228.2 511.3 231.25 511.05 233.5 510.7 233.7 510.65 233.85 510.5 234 510.3 233.95 510
L 233.7 507.5
Q 233.7 507.15 233.45 507.1
M 240 480.9
Q 240 480.35 239.45 480.35
L 235.95 480.35
Q 235.7 480.35 235.55 480.5 235.35 480.65 235.35 480.9
L 235.35 517.8
Q 235.35 518.05 235.55 518.15 235.7 518.35 235.95 518.35
L 239.45 518.35
Q 240 518.35 240 517.8
L 240 480.9
M 221.1 492
Q 219.3 492 217.7 492.5 216.1 493 214.85 493.9 213.7 494.8 213 496.05 212.25 497.3 212.25 498.8 212.25 500.3 212.95 501.55 213.6 502.75 214.75 503.65 215.95 504.55 217.5 505.05 219.05 505.5 220.85 505.5 222.7 505.5 224.35 505.05 226 504.55 227.25 503.65 228.5 502.75 229.2 501.55 229.95 500.3 229.95 498.8 229.95 497.3 229.25 496.05 228.55 494.8 227.35 493.9 226.15 493 224.55 492.5 222.9 492 221.1 492
M 225.6 498.8
Q 225.6 500.2 224.35 501.1 223.05 502 221.1 502 219.15 502 217.85 501.1 216.6 500.2 216.6 498.8 216.6 497.4 217.9 496.45 219.15 495.55 221.1 495.55 223.05 495.55 224.35 496.45 225.6 497.4 225.6 498.8
M 209.85 490.25
Q 210.05 490.5 210.25 490.5
L 231.4 490.5
Q 231.65 490.5 231.8 490.3 232 490.15 232 489.85
L 232 487.55
Q 232 487.3 231.8 487.15 231.65 486.95 231.4 486.95
L 210.3 486.95
Q 210.1 486.95 209.85 487.15 209.65 487.35 209.65 487.55
L 209.65 489.8
Q 209.65 490.05 209.85 490.25
M 215.6 481.7
Q 215.45 481.7 215.2 481.85 214.95 482 214.95 482.3
L 214.95 484.65
Q 214.95 484.95 215.2 485.1 215.45 485.25 215.6 485.25
L 226.2 485.25
Q 226.45 485.25 226.65 485.05 226.85 484.85 226.85 484.6
L 226.85 482.35
Q 226.85 482.1 226.65 481.9 226.45 481.7 226.2 481.7
L 215.6 481.7
M 170.85 487.25
Q 171.25 487.25 171.35 487.4 171.4 487.55 171.4 487.85
L 171.4 493.35
Q 171.4 493.7 171.3 493.8 171.15 493.9 170.85 493.9
L 163.65 493.9
Q 162.25 493.9 161.5 494.55 160.8 495.15 160.8 496.6
L 160.8 505.8
Q 160.8 507.3 161.45 507.9 162.1 508.5 163.9 508.7 165.45 508.75 167.45 508.7 169.45 508.6 171.45 508.4 173.45 508.15 175.35 507.9 177.2 507.6 178.45 507.25 178.75 507.2 178.95 507 179.1 506.85 179.05 506.55
L 178.6 504.25
Q 178.45 503.6 177.95 503.7 176.2 504.05 174.65 504.3 173.1 504.5 171.7 504.65 170.25 504.8 168.85 504.85 167.45 504.95 166 504.85 165.55 504.8 165.4 504.7 165.25 504.55 165.25 504.15
L 165.25 498.1
Q 165.25 497.55 165.85 497.55
L 173 497.55
Q 174.55 497.55 175.15 497 175.8 496.45 175.8 494.95
L 175.8 486.35
Q 175.8 484.85 175.3 484.25 174.8 483.6 173.1 483.6
L 161.5 483.6
Q 161.35 483.6 161.15 483.75 160.95 483.9 160.95 484.15
L 160.95 486.75
Q 160.95 486.95 161.15 487.1 161.35 487.25 161.5 487.25
L 170.85 487.25
M 181.15 481.1
Q 180.55 481.1 180.55 481.6
L 180.55 516.3
Q 180.55 516.85 181.15 516.85
L 184.4 516.85
Q 184.9 516.85 184.9 516.3
L 184.9 498.9 188.35 498.9 188.35 517.8
Q 188.35 518.35 188.9 518.35
L 192.35 518.35
Q 192.9 518.35 192.9 517.8
L 192.9 480.9
Q 192.9 480.35 192.35 480.35
L 188.9 480.35
Q 188.35 480.35 188.35 480.9
L 188.35 495.05 184.9 495.05 184.9 481.6
Q 184.9 481.1 184.4 481.1
L 181.15 481.1
M 148.9 505.2
Q 147.3 504.2 145.05 503.65 142.85 503.05 140.3 503.05 137.5 503.05 135.35 503.65 133.1 504.2 131.6 505.2 130.05 506.25 129.2 507.65 128.35 509.05 128.35 510.7 128.35 512.45 129.2 513.85 130.05 515.25 131.6 516.25 133.1 517.25 135.35 517.85 137.5 518.4 140.3 518.4 142.85 518.4 145.05 517.85 147.3 517.25 148.9 516.25 150.5 515.25 151.4 513.8 152.3 512.4 152.3 510.7 152.3 509 151.4 507.6 150.5 506.2 148.9 505.2
M 147.6 510.85
Q 147.6 511.8 147 512.55 146.4 513.25 145.4 513.75 144.4 514.25 143.1 514.5 141.75 514.75 140.3 514.75 138.75 514.75 137.4 514.5 136.1 514.25 135.15 513.75 134.2 513.25 133.65 512.55 133.1 511.8 133.1 510.85 133.1 508.85 135.1 507.8 137.1 506.75 140.3 506.75 141.75 506.75 143.1 507 144.4 507.25 145.4 507.8 146.4 508.35 147 509.05 147.6 509.85 147.6 510.85
M 147.85 480.35
Q 147.3 480.35 147.3 480.9
L 147.3 501.95
Q 147.3 502.2 147.5 502.35 147.65 502.55 147.85 502.55
L 151.4 502.55
Q 151.6 502.55 151.75 502.35 151.95 502.2 151.95 502
L 151.95 493.85 157.3 493.85
Q 157.55 493.85 157.75 493.7 157.9 493.5 157.9 493.35
L 157.9 490.5
Q 157.9 490.3 157.75 490.15 157.55 490 157.3 490
L 151.95 490 151.95 480.9
Q 151.95 480.35 151.4 480.35
L 147.85 480.35
M 124.55 482.9
L 124.55 485.5
Q 124.55 485.75 124.65 485.95 124.8 486.15 125.05 486.15
L 135.1 486.15
Q 135.75 486.15 135.8 486.45 135.85 486.75 135.65 487.1 134.05 490.4 130.75 493.35 127.45 496.3 123 498.35 122.6 498.5 122.5 498.9 122.4 499.25 122.6 499.55
L 123.85 501.55
Q 124.1 502 124.45 502 124.85 502 125.1 501.9 127.9 500.55 130.45 498.75 133 496.95 135.1 494.85 135.95 495.7 136.95 496.55 137.95 497.35 138.95 498.1 139.95 498.85 140.9 499.4 141.85 500 142.55 500.3 143.3 500.75 143.75 500.05
L 145.05 497.8
Q 145.35 497.4 145.25 497.2 145.1 496.95 144.7 496.75 143.9 496.35 143 495.85 142.1 495.3 141.15 494.65 140.25 494 139.35 493.3 138.45 492.55 137.75 491.85 138.75 490.55 139.5 489.25 140.3 487.95 140.75 486.7 140.9 486.3 141.05 485.85 141.15 485.35 141.25 484.95 141.45 483.6 140.6 482.95 139.7 482.3 137.95 482.3
L 125.1 482.3
Q 124.55 482.3 124.55 482.9
M 88.1 484.55
Q 87.35 484.55 86.45 484.7 85.55 484.85 84.65 485.1 83.75 485.35 82.85 485.75 82 486.1 81.3 486.6 80.9 486.85 80.8 487.05 80.7 487.25 80.8 487.5
L 81.45 490.7
Q 81.5 491 81.7 491.1 81.9 491.2 82.4 490.9 84.15 489.95 85.55 489.5 86.95 489.05 88.3 489.2 89.75 489.35 90.55 490.25 91.3 491.1 91.3 492.55 91.3 493.9 90 496.15 88.7 498.35 85.8 501.9
L 80.55 508.25
Q 80.3 508.5 80.1 508.8 79.95 509.05 79.95 509.45
L 79.95 512
Q 79.95 512.5 80.15 512.6 80.35 512.75 80.85 512.75
L 96 512.75
Q 96.5 512.75 96.65 512.55 96.8 512.4 96.8 511.85
L 96.8 509.15
Q 96.8 508.65 96.7 508.45 96.55 508.3 96 508.3
L 86.5 508.3
Q 87.2 507.5 88.05 506.55 88.9 505.65 89.5 504.85 90.5 503.65 91.65 502.2 92.9 500.75 93.9 499.15 95 497.55 95.7 495.85 96.4 494.15 96.4 492.45 96.4 490.5 95.75 489.05 95.1 487.55 94 486.55 92.9 485.6 91.35 485.1 89.85 484.55 88.1 484.55
M 606.45 577.05
Q 605.9 577.05 605.9 577.6
L 605.9 614.5
Q 605.9 615.05 606.45 615.05
L 610 615.05
Q 610.5 615.05 610.5 614.5
L 610.5 596.65 615.75 596.65
Q 615.95 596.65 616.15 596.45 616.3 596.3 616.3 596.1
L 616.3 593.3
Q 616.3 593.1 616.15 592.95 615.95 592.8 615.75 592.8
L 610.5 592.8 610.5 577.6
Q 610.5 577.05 610 577.05
L 606.45 577.05
M 580.8 586.2
Q 581.05 586.4 581.25 586.4
L 602.35 586.4
Q 602.6 586.4 602.8 586.25 602.95 586.05 602.95 585.85
L 602.95 583.55
Q 602.95 583.3 602.8 583.1 602.6 582.95 602.35 582.95
L 581.3 582.95
Q 581.1 582.95 580.85 583.15 580.6 583.35 580.6 583.55
L 580.6 585.8
Q 580.6 586 580.8 586.2
M 585.9 589.65
Q 584.7 590.55 584 591.8 583.3 593.05 583.3 594.55 583.3 595.85 583.75 596.9 584.25 597.95 585.1 598.8 585.95 599.6 587.15 600.2 588.3 600.8 589.7 601.05
L 589.7 604.65
Q 585.05 604.75 580.5 604.65 579.95 604.65 579.95 605.25
L 579.95 607.85
Q 579.95 608.1 580.1 608.3 580.3 608.45 580.5 608.45 586.3 608.55 592.3 608.25 598.3 608 603.9 607.05 604.1 607 604.25 606.85 604.4 606.7 604.35 606.4
L 604.1 603.9
Q 604.1 603.6 603.85 603.5 603.6 603.45 603.4 603.5 598.85 604.25 594.15 604.45
L 594.15 601.1
Q 595.6 600.85 596.85 600.3 598.1 599.7 599 598.85 599.9 598 600.4 596.9 600.9 595.85 600.9 594.55 600.9 593.05 600.2 591.8 599.55 590.55 598.3 589.65 597.15 588.8 595.5 588.25 593.9 587.8 592.1 587.8 590.3 587.8 588.7 588.25 587.1 588.8 585.9 589.65
M 592.1 591.35
Q 594.05 591.35 595.3 592.25 596.55 593.15 596.55 594.55 596.55 595.95 595.3 596.85 594.05 597.8 592.1 597.8 590.1 597.8 588.85 596.85 587.6 595.95 587.6 594.55 587.6 593.15 588.9 592.25 590.15 591.35 592.1 591.35
M 586.5 577.75
Q 586.35 577.75 586.15 577.9 585.9 578.05 585.9 578.35
L 585.9 580.65
Q 585.9 581 586.15 581.15 586.35 581.3 586.5 581.3
L 597.25 581.3
Q 597.5 581.3 597.7 581.1 597.9 580.9 597.9 580.6
L 597.9 578.4
Q 597.9 578.15 597.65 577.95 597.5 577.75 597.25 577.75
L 586.5 577.75
M 575.55 613.85
L 575.55 611
Q 575.55 610.85 575.4 610.65 575.2 610.5 575 610.5
L 556.5 610.5
Q 556.1 610.5 555.9 610.4 555.75 610.25 555.75 609.85
L 555.75 603.25
Q 555.75 603.05 555.6 602.85 555.4 602.65 555.1 602.65
L 551.7 602.65
Q 551.5 602.65 551.3 602.85 551.15 603.05 551.15 603.25
L 551.15 611.5
Q 551.15 613.05 551.75 613.7 552.4 614.35 554.2 614.35
L 575 614.35
Q 575.2 614.35 575.4 614.25 575.55 614.1 575.55 613.85
M 545.55 579
Q 545.4 579.15 545.4 579.35
L 545.4 595.65
Q 545.4 597.25 546.05 597.85 546.65 598.45 548.45 598.45
L 560 598.45
Q 561.7 598.45 562.35 597.8 563 597.15 563 595.8
L 563 594.8 569.8 594.8 569.8 603.8
Q 569.8 604.3 570.35 604.3
L 573.9 604.3
Q 574.4 604.3 574.4 603.8
L 574.4 577.6
Q 574.4 577.05 573.9 577.05
L 570.35 577.05
Q 569.8 577.05 569.8 577.6
L 569.8 583.15 563 583.15 563 579.3
Q 563 579.1 562.85 578.95 562.7 578.8 562.45 578.8
L 558.95 578.8
Q 558.75 578.8 558.6 578.95 558.45 579.1 558.45 579.3
L 558.45 585.6 549.95 585.6 549.95 579.35
Q 549.95 579.15 549.8 579 549.6 578.85 549.4 578.85
L 545.9 578.85
Q 545.7 578.85 545.55 579
M 549.95 593.9
L 549.95 589.3 558.45 589.3 558.45 593.9
Q 558.45 594.6 557.75 594.6
L 550.7 594.6
Q 549.95 594.6 549.95 593.9
M 563 591.2
L 563 586.75 569.8 586.75 569.8 591.2 563 591.2
M 519.2 605.25
Q 519.4 605.05 519.35 604.75
L 519.1 602.15
Q 519.1 601.85 518.8 601.75 518.55 601.7 518.35 601.75 515.9 602.05 512.9 602.3 509.95 602.6 506.8 602.75 503.65 602.9 500.55 603 497.35 603.05 494.5 603 494.25 603 494.1 603.15 493.95 603.35 493.95 603.6
L 493.95 606.3
Q 493.95 606.55 494.1 606.75 494.25 606.9 494.5 606.9 497.35 606.95 500.7 606.85 504 606.75 507.3 606.55 510.6 606.35 513.6 606.05 516.6 605.8 518.85 605.45 519.05 605.4 519.2 605.25
M 525.6 577.6
Q 525.6 577.05 525.05 577.05
L 521.55 577.05
Q 521.3 577.05 521.15 577.2 520.95 577.35 520.95 577.6
L 520.95 614.5
Q 520.95 614.75 521.15 614.85 521.3 615.05 521.55 615.05
L 525.05 615.05
Q 525.6 615.05 525.6 614.5
L 525.6 577.6
M 506 579.4
Q 503.95 579.4 502.15 580.05 500.4 580.7 499.1 581.9 497.8 583.15 497.05 584.85 496.25 586.55 496.25 588.65 496.25 590.8 497.05 592.5 497.8 594.2 499.1 595.35 500.4 596.55 502.15 597.2 503.95 597.8 505.95 597.8 508.05 597.8 509.85 597.2 511.6 596.55 512.9 595.35 514.25 594.2 515 592.5 515.75 590.8 515.75 588.65 515.75 586.55 515 584.85 514.25 583.15 512.9 581.9 511.6 580.7 509.85 580.05 508.05 579.4 506 579.4
M 502.25 592.7
Q 500.75 591.2 500.75 588.65 500.75 586.15 502.25 584.65 503.7 583.15 506 583.15 508.35 583.15 509.85 584.65 511.3 586.15 511.3 588.65 511.3 591.2 509.85 592.7 508.35 594.2 506 594.2 503.7 594.2 502.25 592.7
M 476 614.2
L 476 601.1 491.15 601.1
Q 491.35 601.1 491.55 600.9 491.75 600.65 491.75 600.45
L 491.75 597.85
Q 491.75 597.65 491.55 597.45 491.35 597.25 491.15 597.25
L 456.35 597.25
Q 456.05 597.25 455.9 597.45 455.75 597.65 455.75 597.85
L 455.75 600.45
Q 455.75 600.65 455.9 600.9 456.05 601.1 456.35 601.1
L 471.4 601.1 471.4 614.2
Q 471.4 614.75 471.95 614.75
L 475.45 614.75
Q 476 614.75 476 614.2
M 487.2 593
Q 487.85 593.15 488.05 592.65
L 489.25 590
Q 489.35 589.7 489.2 589.5 489.05 589.3 488.75 589.25 486.6 588.7 484.55 587.8 482.5 586.9 480.8 585.65 479.1 584.45 477.8 583 476.55 581.55 476 579.9 476.15 578.9 476.25 577.7 476.25 577.05 475.7 577.05
L 472.3 576.95
Q 472 576.95 471.8 577.15 471.65 577.35 471.6 577.65 471.35 580.15 470.4 582.1 469.45 584 467.8 585.5 466.15 587 463.9 588.1 461.65 589.2 458.8 590 458.5 590.05 458.35 590.3 458.25 590.6 458.35 590.85
L 459.75 593.45
Q 459.85 593.6 460.1 593.65 460.4 593.65 460.7 593.6 465.25 592.4 468.7 590.25 472.15 588.05 474.05 585 474.9 586.4 476.35 587.65 477.8 588.95 479.55 590.05 481.35 591.1 483.3 591.9 485.25 592.65 487.2 593
M 440.15 604.35
Q 439.05 603 437.25 602 435.5 601 433.1 600.5 430.75 599.95 428.2 599.95 425.45 599.95 423.1 600.5 420.75 601 419 602 417.25 603 416.3 604.4 415.3 605.8 415.3 607.45 415.3 609.2 416.3 610.6 417.25 612 419 612.95 420.75 613.95 423.1 614.5 425.45 615.05 428.2 615.05 430.75 615.05 433.1 614.5 435.5 613.95 437.25 612.95 439.05 611.95 440.15 610.55 441.2 609.15 441.2 607.45 441.2 605.75 440.15 604.35
M 428.2 603.6
Q 429.7 603.6 431.15 603.85 432.65 604.1 433.8 604.6 435 605.1 435.75 605.85 436.45 606.55 436.45 607.6 436.45 608.55 435.75 609.25 435 609.95 433.8 610.4 432.65 610.9 431.15 611.15 429.7 611.4 428.2 611.4 426.65 611.4 425.15 611.15 423.7 610.9 422.55 610.4 421.4 609.95 420.7 609.25 420.05 608.55 420.05 607.6 420.05 606.55 420.7 605.85 421.4 605.1 422.55 604.6 423.7 604.1 425.15 603.85 426.6 603.6 428.2 603.6
M 440.9 577.6
Q 440.9 577.05 440.35 577.05
L 436.9 577.05
Q 436.35 577.05 436.35 577.6
L 436.35 586.8 432.75 586.8 432.75 578.2
Q 432.75 577.7 432.25 577.7
L 428.95 577.7
Q 428.4 577.7 428.4 578.2
L 428.4 597.9
Q 428.4 598.45 428.95 598.45
L 432.25 598.45
Q 432.75 598.45 432.75 597.9
L 432.75 590.6 436.35 590.6 436.35 598.95
Q 436.35 599.55 436.9 599.55
L 440.35 599.55
Q 440.9 599.55 440.9 598.95
L 440.9 577.6
M 416 578.4
Q 415.8 578.6 415.8 578.9 415.8 581.25 415.45 583.45 415.1 585.6 414.2 587.55 413.3 589.5 411.75 591.3 410.25 593.1 407.9 594.75 407.15 595.4 407.75 596
L 409.25 597.75
Q 409.5 598.05 409.85 598.05 410.25 598 410.55 597.8 412.95 596.25 414.75 594.35 416.5 592.45 417.75 590.1 418.85 592 420.5 593.65 422.2 595.3 423.9 596.35 424.55 596.8 425.05 596.2
L 426.55 594.15
Q 426.75 593.85 426.8 593.65 426.8 593.45 426.45 593.2 424.2 591.7 422.3 589.55 420.45 587.35 419.65 585.05 420.25 582.25 420.25 579 420.25 578.4 419.7 578.4
L 416.35 578.2
Q 416.15 578.2 416 578.4
M 399.9 605.85
Q 399.9 604.35 399.3 603.7 398.7 603.05 397.2 603.05
L 376.45 603.05
Q 376.25 603.05 376.05 603.2 375.9 603.35 375.9 603.6
L 375.9 606.35
Q 375.9 606.55 376.05 606.7 376.25 606.85 376.45 606.85
L 394.5 606.85
Q 394.95 606.85 395.1 606.95 395.3 607.05 395.3 607.5
L 395.3 614.4
Q 395.3 614.6 395.45 614.75 395.65 614.95 395.9 614.95
L 399.3 614.95
Q 399.5 614.95 399.7 614.75 399.9 614.6 399.9 614.4
L 399.9 605.85
M 399.95 577.6
Q 399.95 577.05 399.4 577.05
L 395.85 577.05
Q 395.3 577.05 395.3 577.6
L 395.3 600.85
Q 395.3 601.45 395.85 601.45
L 399.4 601.45
Q 399.95 601.45 399.95 600.9
L 399.95 592.2 405.3 592.2
Q 405.55 592.2 405.75 592 405.9 591.85 405.9 591.65
L 405.9 588.8
Q 405.9 588.6 405.75 588.5 405.55 588.35 405.3 588.35
L 399.95 588.35 399.95 577.6
M 373.85 591.25
Q 373.2 592.45 373.2 593.95 373.2 595.4 373.85 596.65 374.55 597.9 375.75 598.8 376.9 599.7 378.45 600.2 380 600.7 381.8 600.7 383.65 600.7 385.2 600.2 386.8 599.7 388 598.8 389.15 597.9 389.85 596.65 390.5 595.4 390.5 593.95 390.5 592.45 389.85 591.25 389.15 590.05 388 589.15 386.85 588.25 385.25 587.75 383.65 587.25 381.85 587.25 380.05 587.25 378.45 587.75 376.9 588.25 375.75 589.15 374.55 590.05 373.85 591.25
M 377.55 593.95
Q 377.55 592.55 378.75 591.65 379.95 590.75 381.85 590.75 383.75 590.75 384.95 591.65 386.15 592.55 386.15 593.95 386.15 595.35 384.95 596.3 383.7 597.25 381.85 597.25 380.9 597.25 380.1 597 379.3 596.75 378.75 596.3 378.15 595.85 377.85 595.25 377.55 594.65 377.55 593.95
M 370.95 582.45
Q 370.75 582.45 370.5 582.7 370.3 582.9 370.3 583.1
L 370.3 585.35
Q 370.3 585.6 370.5 585.75 370.7 586 370.9 586
L 392.1 586
Q 392.35 586 392.55 585.8 392.7 585.6 392.7 585.4
L 392.7 583.1
Q 392.7 582.85 392.55 582.65 392.35 582.45 392.1 582.45
L 370.95 582.45
M 376.45 577.45
Q 376.3 577.45 376.05 577.65 375.85 577.8 375.85 578.05
L 375.85 580.35
Q 375.85 580.65 376.05 580.85 376.3 581 376.45 581
L 386.9 581
Q 387.2 581 387.4 580.75 387.55 580.55 387.55 580.3
L 387.55 578.1
Q 387.55 577.85 387.35 577.65 387.15 577.45 386.9 577.45
L 376.45 577.45
M 348.05 601.85
Q 346.5 600.85 344.25 600.3 342.1 599.75 339.55 599.75 336.75 599.75 334.6 600.35 332.4 600.9 330.85 601.9 329.3 602.9 328.5 604.3 327.65 605.7 327.65 607.35 327.65 609.1 328.5 610.5 329.3 611.9 330.85 612.9 332.4 613.9 334.6 614.45 336.75 615.05 339.55 615.05 342.1 615.05 344.25 614.45 346.5 613.9 348.05 612.9 349.65 611.9 350.55 610.5 351.45 609.05 351.45 607.35 351.45 605.65 350.55 604.25 349.65 602.85 348.05 601.85
M 344.6 604.45
Q 345.55 605 346.15 605.75 346.7 606.5 346.7 607.5 346.7 608.45 346.15 609.2 345.55 609.9 344.6 610.4 343.6 610.85 342.3 611.1 340.95 611.4 339.55 611.4 337.95 611.4 336.65 611.1 335.35 610.85 334.4 610.4 333.45 609.9 332.95 609.2 332.4 608.45 332.4 607.5 332.4 605.5 334.35 604.45 336.3 603.45 339.55 603.45 340.95 603.45 342.3 603.7 343.6 603.95 344.6 604.45
M 351.1 577.6
Q 351.1 577.05 350.55 577.05
L 347 577.05
Q 346.5 577.05 346.5 577.6
L 346.5 598.6
Q 346.5 598.8 346.65 599 346.8 599.2 347 599.2
L 350.55 599.2
Q 350.75 599.2 350.9 599 351.1 598.8 351.1 598.6
L 351.1 590.5 356.5 590.5
Q 356.7 590.5 356.9 590.35 357.1 590.2 357.1 590
L 357.1 587.2
Q 357.1 587 356.9 586.85 356.7 586.65 356.5 586.65
L 351.1 586.65 351.1 577.6
M 323.65 581.35
L 323.65 593.85
Q 323.65 595.25 324.45 595.85 325.2 596.45 326.5 596.55 328.45 596.65 330.85 596.55 333.2 596.5 335.6 596.3 337.95 596.15 340.15 595.85 342.35 595.6 343.9 595.2 344.1 595.15 344.35 594.95 344.55 594.75 344.5 594.35
L 344.05 592.05
Q 343.95 591.75 343.75 591.65 343.45 591.55 343.15 591.65 341.5 592 339.65 592.2 337.8 592.4 335.95 592.55 334.1 592.65 332.4 592.7 330.7 592.75 329.45 592.65 328.7 592.65 328.45 592.4 328.25 592.2 328.25 591.55
L 328.25 583.35
Q 328.25 582.65 328.95 582.65
L 340.4 582.65
Q 340.95 582.65 340.95 582.1
L 340.95 579.35
Q 340.95 578.8 340.4 578.8
L 326.3 578.8
Q 324.8 578.8 324.2 579.4 323.65 579.95 323.65 581.35
M 308.6 598.9
L 308.6 603.15 293.25 603.15 293.25 598.9
Q 293.25 598.7 293.05 598.55 292.9 598.45 292.7 598.45
L 289.15 598.45
Q 288.95 598.45 288.8 598.55 288.65 598.7 288.65 598.9
L 288.65 611.2
Q 288.65 612.8 289.3 613.45 289.9 614 291.65 614
L 310.2 614
Q 311.95 614 312.55 613.35 313.2 612.65 313.2 611.35
L 313.2 598.9
Q 313.2 598.7 313.05 598.55 312.9 598.4 312.7 598.4
L 309.1 598.4
Q 308.9 598.4 308.75 598.55 308.6 598.7 308.6 598.9
M 308.6 606.85
L 308.6 609.6
Q 308.6 610.3 307.85 610.3
L 294 610.3
Q 293.25 610.3 293.25 609.6
L 293.25 606.85 308.6 606.85
M 283.1 591.4
Q 282.95 591.55 282.95 591.85
L 282.95 594.4
Q 282.95 594.6 283.1 594.85 283.25 595.05 283.55 595.05
L 318.35 595.05
Q 318.55 595.05 318.75 594.85 318.95 594.6 318.95 594.4
L 318.95 591.85
Q 318.95 591.65 318.75 591.4 318.55 591.2 318.35 591.2
L 312.55 591.2
Q 312.85 589.85 313 588.4 313.2 586.9 313.3 585.5 313.45 584.15 313.5 582.9 313.55 581.65 313.55 580.75 313.55 579.25 312.9 578.6 312.2 577.9 310.9 577.9
L 289.35 577.9
Q 289.1 577.9 288.9 578 288.7 578.15 288.7 578.4
L 288.7 581.2
Q 288.7 581.4 288.9 581.5 289.1 581.65 289.35 581.65
L 307.95 581.65
Q 308.55 581.65 308.8 581.8 309.1 581.95 309.1 582.5 309.1 585 308.85 587.1 308.65 589.25 308.25 591.2
L 283.55 591.2
Q 283.25 591.2 283.1 591.4
M 275.9 605.85
Q 275.9 604.35 275.3 603.7 274.7 603.05 273.2 603.05
L 252.45 603.05
Q 252.25 603.05 252.05 603.2 251.9 603.35 251.9 603.6
L 251.9 606.35
Q 251.9 606.55 252.05 606.7 252.25 606.85 252.45 606.85
L 270.5 606.85
Q 270.95 606.85 271.1 606.95 271.3 607.05 271.3 607.5
L 271.3 614.4
Q 271.3 614.6 271.45 614.75 271.65 614.95 271.9 614.95
L 275.3 614.95
Q 275.5 614.95 275.7 614.75 275.9 614.6 275.9 614.4
L 275.9 605.85
M 275.95 577.6
Q 275.95 577.05 275.4 577.05
L 271.85 577.05
Q 271.3 577.05 271.3 577.6
L 271.3 600.85
Q 271.3 601.45 271.85 601.45
L 275.4 601.45
Q 275.95 601.45 275.95 600.9
L 275.95 592.2 281.3 592.2
Q 281.55 592.2 281.75 592 281.9 591.85 281.9 591.65
L 281.9 588.8
Q 281.9 588.6 281.75 588.5 281.55 588.35 281.3 588.35
L 275.95 588.35 275.95 577.6
M 249.85 591.25
Q 249.2 592.45 249.2 593.95 249.2 595.4 249.85 596.65 250.55 597.9 251.75 598.8 252.9 599.7 254.45 600.2 256 600.7 257.8 600.7 259.65 600.7 261.2 600.2 262.8 599.7 264 598.8 265.15 597.9 265.85 596.65 266.5 595.4 266.5 593.95 266.5 592.45 265.85 591.25 265.15 590.05 264 589.15 262.85 588.25 261.25 587.75 259.65 587.25 257.85 587.25 256.05 587.25 254.45 587.75 252.9 588.25 251.75 589.15 250.55 590.05 249.85 591.25
M 257.85 590.75
Q 259.75 590.75 260.95 591.65 262.15 592.55 262.15 593.95 262.15 595.35 260.95 596.3 259.7 597.25 257.85 597.25 256.9 597.25 256.1 597 255.3 596.75 254.75 596.3 254.15 595.85 253.85 595.25 253.55 594.65 253.55 593.95 253.55 592.55 254.75 591.65 255.95 590.75 257.85 590.75
M 246.95 582.45
Q 246.75 582.45 246.5 582.7 246.3 582.9 246.3 583.1
L 246.3 585.35
Q 246.3 585.6 246.5 585.75 246.7 586 246.9 586
L 268.1 586
Q 268.35 586 268.55 585.8 268.7 585.6 268.7 585.4
L 268.7 583.1
Q 268.7 582.85 268.55 582.65 268.35 582.45 268.1 582.45
L 246.95 582.45
M 252.45 577.45
Q 252.3 577.45 252.05 577.65 251.85 577.8 251.85 578.05
L 251.85 580.35
Q 251.85 580.65 252.05 580.85 252.3 581 252.45 581
L 262.9 581
Q 263.2 581 263.4 580.75 263.55 580.55 263.55 580.3
L 263.55 578.1
Q 263.55 577.85 263.35 577.65 263.15 577.45 262.9 577.45
L 252.45 577.45
M 224.15 602.7
Q 224.25 602.8 224.25 603.2
L 224.25 604.6
Q 224.25 605 224.15 605.1 224.1 605.2 223.75 605.2
L 207.7 605.2
Q 206.05 605.2 205.55 605.8 205 606.35 205 607.65
L 205 612.45
Q 205 613.75 205.6 614.35 206.15 614.95 207.7 614.95
L 229.2 614.95
Q 229.35 614.95 229.55 614.75 229.75 614.6 229.75 614.4
L 229.75 611.85
Q 229.75 611.55 229.55 611.4 229.35 611.25 229.15 611.25
L 210.1 611.25
Q 209.7 611.25 209.6 611.2 209.5 611.15 209.5 610.8
L 209.5 609.15
Q 209.5 608.8 209.6 608.7 209.7 608.6 210.05 608.6
L 225.95 608.6
Q 227.65 608.6 228.2 608.1 228.75 607.6 228.75 606.2
L 228.75 601.4
Q 228.75 600 228.2 599.45 227.65 598.9 225.95 598.9
L 205.5 598.9
Q 205.25 598.9 205.1 599.05 204.9 599.25 204.9 599.45
L 204.9 602.1
Q 204.9 602.3 205.1 602.45 205.25 602.6 205.5 602.6
L 223.65 602.6
Q 224.1 602.6 224.15 602.7
M 200.3 577.8
Q 200.1 577.8 199.95 577.95 199.8 578.1 199.8 578.3
L 199.8 592.85
Q 199.8 594.5 200.45 595.1 201.05 595.7 202.85 595.7
L 214.4 595.7
Q 216.1 595.7 216.75 595.05 217.4 594.35 217.4 593
L 217.4 592.5 224.2 592.5 224.2 596.55
Q 224.2 597.1 224.75 597.1
L 228.3 597.1
Q 228.8 597.1 228.8 596.55
L 228.8 577.6
Q 228.8 577.05 228.3 577.05
L 224.75 577.05
Q 224.2 577.05 224.2 577.6
L 224.2 581.4 217.4 581.4 217.4 578.25
Q 217.4 578.05 217.25 577.9 217.1 577.75 216.85 577.75
L 213.4 577.75
Q 213.2 577.75 213.05 577.9 212.9 578.05 212.9 578.25
L 212.9 583.55 204.3 583.55 204.3 578.3
Q 204.3 578.1 204.15 577.95 203.95 577.8 203.75 577.8
L 200.3 577.8
M 212.15 591.95
L 205.05 591.95
Q 204.3 591.95 204.3 591.25
L 204.3 587.25 212.9 587.25 212.9 591.25
Q 212.9 591.95 212.15 591.95
M 217.4 588.8
L 217.4 585.1 224.2 585.1 224.2 588.8 217.4 588.8
M 169.55 593.15
Q 169.1 593.15 168.95 593 168.8 592.8 168.8 592.45
L 168.8 584.25
Q 168.8 583.55 169.55 583.55
L 189.05 583.55
Q 189.6 583.55 189.6 583
L 189.6 580.2
Q 189.6 579.7 189.05 579.7
L 167.1 579.7
Q 165.55 579.7 164.9 580.25 164.2 580.8 164.2 582.3
L 164.2 593.95
Q 164.2 595.4 164.9 596.2 165.65 597 167.25 597
L 174.7 597 174.7 604.7 159.55 604.7
Q 159.25 604.7 159.1 604.85 158.95 605.05 158.95 605.3
L 158.95 607.95
Q 158.95 608.15 159.1 608.35 159.25 608.55 159.55 608.55
L 194.35 608.55
Q 194.55 608.55 194.75 608.35 194.95 608.15 194.95 607.95
L 194.95 605.3
Q 194.95 605.1 194.75 604.9 194.55 604.7 194.35 604.7
L 179.25 604.7 179.25 597 189.4 597
Q 189.6 597 189.75 596.85 189.9 596.7 189.9 596.4
L 189.9 593.65
Q 189.9 593.35 189.7 593.25 189.55 593.15 189.25 593.15
L 169.55 593.15
M 154.6 614.25
Q 154.8 614.1 154.8 613.85
L 154.8 611
Q 154.8 610.85 154.6 610.65 154.4 610.5 154.2 610.5
L 135.6 610.5
Q 135.2 610.5 135.05 610.4 134.9 610.25 134.9 609.85
L 134.9 602.85
Q 134.9 602.65 134.7 602.45 134.55 602.25 134.25 602.25
L 130.85 602.25
Q 130.65 602.25 130.45 602.45 130.3 602.65 130.3 602.85
L 130.3 611.5
Q 130.3 613.05 130.9 613.7 131.5 614.35 133.3 614.35
L 154.2 614.35
Q 154.4 614.35 154.6 614.25
M 138 579.85
Q 135.95 578.75 133.3 578.75 131.15 578.75 129.4 579.5 127.65 580.3 126.35 581.65 125.05 582.95 124.4 584.7 123.7 586.4 123.7 588.35 123.7 590.35 124.4 592.1 125.05 593.85 126.35 595.15 127.65 596.45 129.4 597.2 131.15 597.95 133.3 597.95 135.6 597.95 137.4 597.15 139.25 596.4 140.55 595
L 149 595 149 603.55
Q 149 604.05 149.55 604.05
L 153.1 604.05
Q 153.6 604.05 153.6 603.55
L 153.6 577.6
Q 153.6 577.05 153.1 577.05
L 149.55 577.05
Q 149 577.05 149 577.6
L 149 582.8 141.3 582.8
Q 140.05 580.95 138 579.85
M 129.55 584.45
Q 130.25 583.7 131.2 583.25 132.15 582.8 133.3 582.8 134.55 582.8 135.5 583.25 136.45 583.7 137.15 584.45 137.85 585.2 138.2 586.2 138.6 587.2 138.6 588.45 138.6 589.6 138.2 590.65 137.85 591.7 137.15 592.45 136.45 593.2 135.5 593.65 134.55 594.1 133.3 594.1 132.15 594.1 131.2 593.65 130.25 593.2 129.55 592.45 128.9 591.7 128.5 590.65 128.1 589.6 128.1 588.45 128.1 587.2 128.5 586.2 128.9 585.2 129.55 584.45
M 143.1 588.35
Q 143.1 587.85 143.05 587.35 143 586.9 142.9 586.4
L 149 586.4 149 591.3 142.7 591.3
Q 143.1 589.85 143.1 588.35
M 88 581.15
Q 86.45 581.15 84.8 581.6 83.2 582 81.7 582.6 81.15 582.8 81 583 80.9 583.2 80.95 583.55
L 81.3 586.5
Q 81.4 587.05 81.7 587.1 81.95 587.15 82.5 586.95 83.6 586.4 85.05 586.05 86.5 585.7 87.75 585.7 89.7 585.7 90.65 586.65 91.6 587.6 91.6 588.95 91.6 589.9 91.05 590.6 90.5 591.3 89.7 591.8 88.9 592.25 87.95 592.45 87.05 592.7 86.3 592.7
L 84.45 592.7
Q 83.95 592.7 83.85 592.8 83.7 592.95 83.7 593.45
L 83.7 596.4
Q 83.7 596.8 83.85 596.95 83.95 597.1 84.45 597.1
L 86.35 597.1
Q 87.85 597.1 88.95 597.45 90.05 597.85 90.8 598.4 91.5 599 91.85 599.7 92.25 600.45 92.25 601.2 92.25 602.5 91.65 603.4 91.05 604.25 90.05 604.75 89.1 605.2 87.9 605.35 86.65 605.5 85.45 605.4 84.55 605.3 83.45 605.05 82.35 604.75 81.5 604.45 80.9 604.3 80.7 604.4 80.5 604.5 80.4 605
L 80.05 607.9
Q 80 608.25 80.1 608.55 80.2 608.8 80.7 608.95 82 609.45 83.75 609.75 85.45 610 87 610 89.5 610 91.45 609.35 93.35 608.7 94.65 607.55 96 606.35 96.65 604.8 97.3 603.2 97.3 601.35 97.3 599.55 95.95 597.7 94.55 595.95 91.8 594.85 92.9 594.45 93.8 593.8 94.7 593.1 95.4 592.25 96.05 591.45 96.45 590.45 96.8 589.5 96.8 588.45 96.8 586.55 96.05 585.2 95.25 583.8 94 582.9 92.75 582 91.15 581.6 89.55 581.15 88 581.15 Z"/>
</g>

<path id="Layer1_0_1_STROKES" stroke="#1E1E1E" stroke-width="3" stroke-linejoin="round" stroke-linecap="round" fill="none" d="
M 108.6 400.35
Q 108.6 409 102.5 415.05 96.4 421.15 87.8 421.15 79.2 421.15 73.1 415.05 67 409 67 400.35 67 391.75 73.1 385.65 79.2 379.55 87.8 379.55 96.4 379.55 102.5 385.65 108.6 391.75 108.6 400.35 Z
M 108.6 499.05
Q 108.6 507.7 102.5 513.75 96.4 519.85 87.8 519.85 79.2 519.85 73.1 513.75 67 507.7 67 499.05 67 490.45 73.1 484.35 79.2 478.25 87.8 478.25 96.4 478.25 102.5 484.35 108.6 490.45 108.6 499.05 Z
M 108.6 595.75
Q 108.6 604.4 102.5 610.45 96.4 616.55 87.8 616.55 79.2 616.55 73.1 610.45 67 604.4 67 595.75 67 587.15 73.1 581.05 79.2 574.95 87.8 574.95 96.4 574.95 102.5 581.05 108.6 587.15 108.6 595.75 Z"/>

<path id="Layer1_0_2_STROKES" stroke="#DBDBDB" stroke-width="3" stroke-linejoin="round" stroke-linecap="round" fill="none" d="
M 1068 371.5
L 1198 371.5
Q 1213 371.5 1213 386.5
L 1213 416.55
Q 1213 431.55 1198 431.55
L 1068 431.55
Q 1053 431.55 1053 416.55
L 1053 386.5
Q 1053 371.5 1068 371.5 Z
M 1068 468.2
L 1198 468.2
Q 1213 468.2 1213 483.2
L 1213 513.25
Q 1213 528.25 1198 528.25
L 1068 528.25
Q 1053 528.25 1053 513.25
L 1053 483.2
Q 1053 468.2 1068 468.2 Z
M 1068 564.9
L 1198 564.9
Q 1213 564.9 1213 579.9
L 1213 609.95
Q 1213 624.95 1198 624.95
L 1068 624.95
Q 1053 624.95 1053 609.95
L 1053 579.9
Q 1053 564.9 1068 564.9 Z"/>
</defs>

<g transform="matrix( 1, 0, 0, 1, 0,0) ">
<use xlink:href="#Layer1_0_FILL"/>

<use xlink:href="#Layer1_0_1_STROKES"/>

<use xlink:href="#Layer1_0_2_STROKES"/>
</g>
</svg>
