
<svg xmlns="http://www.w3.org/2000/svg" version="1.1" xmlns:xlink="http://www.w3.org/1999/xlink" preserveAspectRatio="none" x="0px" y="0px" width="1280px" height="720px" viewBox="0 0 1280 720">
<defs>
<filter id="Filter_1" x="-20%" y="-20%" width="140%" height="140%" color-interpolation-filters="sRGB">
<feColorMatrix in="SourceGraphic" type="matrix" values="0 0 0 0 0.9411764705882353 0 0 0 0 0.3843137254901961 0 0 0 0 0.5725490196078431 0 0 0 1 0" result="result1"/>
</filter>

<g id="Layer0_0_FILL">
<path fill="#1E1E1E" stroke="none" d="
M 449.15 434.5
Q 449.7 434.5 449.7 433.95
L 449.7 430.4
Q 449.7 429.9 449.15 429.9
L 444 429.9 441.6 429.9 427.8 429.9
Q 427.55 429.9 427.4 430.05 427.25 430.2 427.25 430.4
L 427.25 433.95
Q 427.25 434.15 427.4 434.35 427.55 434.5 427.8 434.5
L 441.6 434.5 444 434.5 449.15 434.5
M 129.9 444.5
Q 130.45 444.5 130.45 443.95
L 130.45 440.4
Q 130.45 439.9 129.9 439.9
L 124.75 439.9 122.35 439.9 108.55 439.9
Q 108.3 439.9 108.15 440.05 108 440.2 108 440.4
L 108 443.95
Q 108 444.15 108.15 444.35 108.3 444.5 108.55 444.5
L 122.35 444.5 124.75 444.5 129.9 444.5
M 1028.05 439.9
Q 1027.8 439.9 1027.65 440.05 1027.5 440.2 1027.5 440.4
L 1027.5 443.95
Q 1027.5 444.15 1027.65 444.35 1027.8 444.5 1028.05 444.5
L 1041.85 444.5 1044.25 444.5 1049.4 444.5
Q 1049.95 444.5 1049.95 443.95
L 1049.95 440.4
Q 1049.95 439.9 1049.4 439.9
L 1044.25 439.9 1041.85 439.9 1028.05 439.9
M 240.95 429.95
Q 238.4 426.4 233.7 426.4 231.4 426.4 229.6 427.2 227.75 428 226.45 429.4 225.15 430.8 224.45 432.7 223.8 434.6 223.8 436.8 223.8 439.1 224.5 440.9 225.15 442.7 226.45 444 227.75 445.3 229.55 446 231.3 446.7 233.45 446.7 234.2 446.7 235 446.5 235.8 446.3 236.55 445.95 237.3 445.6 237.95 445.15 238.55 444.7 238.9 444.2 238.65 446.1 238.05 447.8 237.45 449.45 236.45 450.7 235.45 451.95 234 452.65 232.55 453.35 230.45 453.35 229.05 453.35 227.9 453.25 226.7 453.15 225.65 452.7 225.1 452.5 225 453.05
L 224.9 456.25
Q 224.85 456.65 225.2 456.75 226.15 457.1 227.55 457.3 229 457.5 230.15 457.5 233.85 457.5 236.4 456.15 239 454.85 240.55 452.6 242.15 450.35 242.85 447.35 243.5 444.3 243.5 440.95 243.5 433.5 240.95 429.95
M 233.65 430.35
Q 234.75 430.35 235.7 430.9 236.65 431.4 237.35 432.3 238.05 433.2 238.45 434.4 238.85 435.6 238.85 436.95 238.85 439.4 237.4 441 235.9 442.55 233.3 442.55 230.85 442.55 229.55 440.95 228.2 439.35 228.2 436.6 228.2 433.7 229.7 432.05 231.25 430.35 233.65 430.35
M 202.35 454.4
Q 201.45 455.25 201.45 456.55 201.45 457.85 202.35 458.75 203.25 459.65 204.55 459.65 205.8 459.65 206.7 458.75 207.55 457.85 207.55 456.55 207.55 455.25 206.7 454.4 205.8 453.5 204.55 453.5 203.25 453.5 202.35 454.4
M 177 426.85
Q 176.9 426.95 176.7 427.3
L 164.3 445.9
Q 164.15 446.05 164 446.35 163.8 446.65 163.8 446.9
L 163.8 449.9
Q 163.8 450.2 163.95 450.25 164.1 450.35 164.45 450.35
L 177.25 450.35 177.25 456.45
Q 177.25 456.85 177.4 457 177.55 457.15 178 457.15
L 180.9 457.15
Q 181.3 457.15 181.4 457 181.55 456.9 181.55 456.45
L 181.55 450.35 185.25 450.35
Q 185.6 450.35 185.75 450.25 185.9 450.15 185.9 449.75
L 185.9 446.85
Q 185.9 446.45 185.75 446.35 185.6 446.25 185.25 446.25
L 181.55 446.25 181.55 427.35
Q 181.55 427 181.5 426.9 181.45 426.75 181.15 426.75
L 177.5 426.75
Q 177.1 426.75 177 426.85
M 177.25 446.25
L 168.65 446.25 177.25 433.2 177.25 446.25
M 236.65 366.8
Q 236.65 366 236.5 365.85 236.4 365.7 235.7 365.7
L 233.6 365.7
Q 233.45 365.7 233.25 365.8 233.05 365.85 233 365.95
L 226.85 371.6
Q 226.65 371.8 226.65 372 226.6 372.25 226.75 372.4
L 228.55 374.55
Q 228.7 374.7 228.95 374.65 229.2 374.65 229.45 374.5
L 232.4 371.9 232.4 395.6
Q 232.4 396.1 232.95 396.1
L 236.15 396.1
Q 236.65 396.1 236.65 395.6
L 236.65 366.8
M 202.35 393.35
Q 201.45 394.2 201.45 395.5 201.45 396.8 202.35 397.7 203.25 398.6 204.55 398.6 205.8 398.6 206.7 397.7 207.55 396.8 207.55 395.5 207.55 394.2 206.7 393.35 205.8 392.45 204.55 392.45 203.25 392.45 202.35 393.35
M 182.2 368.9
Q 179.65 365.35 174.95 365.35 172.65 365.35 170.85 366.15 169 366.95 167.7 368.35 166.4 369.75 165.7 371.65 165.05 373.55 165.05 375.75 165.05 378.05 165.75 379.85 166.4 381.65 167.7 382.95 169 384.25 170.8 384.95 172.55 385.65 174.7 385.65 175.45 385.65 176.25 385.45 177.05 385.25 177.8 384.9 178.55 384.55 179.2 384.1 179.8 383.65 180.15 383.15 179.9 385.05 179.3 386.75 178.7 388.4 177.7 389.65 176.7 390.9 175.25 391.6 173.8 392.3 171.7 392.3 170.3 392.3 169.15 392.2 167.95 392.1 166.9 391.65 166.35 391.45 166.25 392
L 166.15 395.2
Q 166.1 395.6 166.45 395.7 167.4 396.05 168.8 396.25 170.25 396.45 171.4 396.45 175.1 396.45 177.65 395.1 180.25 393.8 181.8 391.55 183.4 389.3 184.1 386.3 184.75 383.25 184.75 379.9 184.75 372.45 182.2 368.9
M 174.9 369.3
Q 176 369.3 176.95 369.85 177.9 370.35 178.6 371.25 179.3 372.15 179.7 373.35 180.1 374.55 180.1 375.9 180.1 378.35 178.65 379.95 177.15 381.5 174.55 381.5 172.1 381.5 170.8 379.9 169.45 378.3 169.45 375.55 169.45 372.65 170.95 371 172.5 369.3 174.9 369.3
M 677.9 506.5
Q 677.25 504.05 676 502.35 674.7 500.65 672.9 499.7 671.1 498.75 668.75 498.75 666.45 498.75 664.65 499.7 662.8 500.65 661.55 502.35 660.3 504.05 659.6 506.5 658.9 508.9 658.9 511.95 658.9 514.85 659.6 517.3 660.3 519.7 661.55 521.45 662.8 523.2 664.65 524.15 666.45 525.15 668.75 525.15 671.1 525.15 672.9 524.15 674.7 523.25 676 521.5 677.25 519.8 677.9 517.35 678.6 514.9 678.6 511.95 678.6 508.9 677.9 506.5
M 668.75 502.85
Q 670 502.85 671 503.55 672 504.3 672.7 505.5 673.35 506.75 673.7 508.45 674.05 510.1 674.05 511.95 674.05 513.7 673.7 515.4 673.35 517.05 672.7 518.3 672 519.55 671 520.3 670 521.05 668.75 521.05 667.45 521.05 666.5 520.3 665.5 519.55 664.85 518.3 664.15 517.05 663.8 515.4 663.4 513.7 663.4 511.95 663.4 510.1 663.8 508.45 664.15 506.75 664.85 505.5 665.5 504.3 666.5 503.55 667.45 502.85 668.75 502.85
M 688.5 533.8
L 688.5 496.9
Q 688.5 496.35 688 496.35
L 684.45 496.35
Q 683.9 496.35 683.9 496.9
L 683.9 533.8
Q 683.9 534.35 684.45 534.35
L 688 534.35
Q 688.5 534.35 688.5 533.8
M 622.45 529.55
Q 622.45 530.85 623.35 531.75 624.25 532.65 625.55 532.65 626.8 532.65 627.7 531.75 628.55 530.85 628.55 529.55 628.55 528.25 627.7 527.4 626.8 526.5 625.55 526.5 624.25 526.5 623.35 527.4 622.45 528.25 622.45 529.55
M 643.4 499.75
Q 643.25 499.75 643.05 499.85 642.85 499.9 642.8 500
L 636.65 505.65
Q 636.45 505.85 636.45 506.05 636.4 506.3 636.55 506.45
L 638.35 508.6
Q 638.5 508.75 638.75 508.7 639 508.7 639.25 508.55
L 642.2 505.95 642.2 529.65
Q 642.2 530.15 642.75 530.15
L 645.95 530.15
Q 646.45 530.15 646.45 529.65
L 646.45 500.85
Q 646.45 500.05 646.3 499.9 646.2 499.75 645.5 499.75
L 643.4 499.75
M 613.5 502
Q 612.45 500.85 610.85 500.15 609.3 499.5 607.25 499.5 604.05 499.5 602.1 500.95 600.15 502.45 599.05 504.7 597.95 507 597.55 509.7 597.2 512.45 597.2 514.9 597.2 522.25 599.65 526.3 602.1 530.35 607.25 530.35 609.8 530.35 611.65 529.35 613.5 528.25 614.75 526.3 616 524.35 616.6 521.45 617.2 518.55 617.2 514.9 617.2 513.25 617 511.5 616.85 509.7 616.45 508 616.05 506.3 615.35 504.75 614.65 503.2 613.5 502
M 609.5 504.45
Q 610.5 505 611.25 506.3 611.95 507.65 612.35 509.75 612.7 511.9 612.7 514.9 612.7 518 612.35 520.15 611.95 522.25 611.25 523.55 610.5 524.9 609.5 525.45 608.45 526.05 607.25 526.05 605.95 526.05 604.95 525.45 603.95 524.9 603.25 523.55 602.5 522.25 602.15 520.15 601.75 518 601.75 514.9 601.75 511.9 602.15 509.75 602.5 507.65 603.25 506.3 603.95 505 604.95 504.45 605.95 503.85 607.25 503.85 608.45 503.85 609.5 504.45
M 684.45 413.35
Q 683.9 413.35 683.9 413.9
L 683.9 450.8
Q 683.9 451.35 684.45 451.35
L 688 451.35
Q 688.5 451.35 688.5 450.8
L 688.5 413.9
Q 688.5 413.35 688 413.35
L 684.45 413.35
M 676 419.35
Q 674.7 417.65 672.9 416.7 671.1 415.75 668.75 415.75 666.45 415.75 664.65 416.7 662.8 417.65 661.55 419.35 660.3 421.05 659.6 423.5 658.9 425.9 658.9 428.95 658.9 431.85 659.6 434.3 660.3 436.7 661.55 438.45 662.8 440.2 664.65 441.15 666.45 442.15 668.75 442.15 671.1 442.15 672.9 441.15 674.7 440.25 676 438.5 677.25 436.8 677.9 434.35 678.6 431.9 678.6 428.95 678.6 425.9 677.9 423.5 677.25 421.05 676 419.35
M 668.75 419.85
Q 670 419.85 671 420.55 672 421.3 672.7 422.5 673.35 423.75 673.7 425.45 674.05 427.1 674.05 428.95 674.05 430.7 673.7 432.4 673.35 434.05 672.7 435.3 672 436.55 671 437.3 670 438.05 668.75 438.05 667.45 438.05 666.5 437.3 665.5 436.55 664.85 435.3 664.15 434.05 663.8 432.4 663.4 430.7 663.4 428.95 663.4 427.1 663.8 425.45 664.15 423.75 664.85 422.5 665.5 421.3 666.5 420.55 667.45 419.85 668.75 419.85
M 627.7 444.4
Q 626.8 443.5 625.55 443.5 624.25 443.5 623.35 444.4 622.45 445.25 622.45 446.55 622.45 447.85 623.35 448.75 624.25 449.65 625.55 449.65 626.8 449.65 627.7 448.75 628.55 447.85 628.55 446.55 628.55 445.25 627.7 444.4
M 643.4 416.75
Q 643.25 416.75 643.05 416.85 642.85 416.9 642.8 417
L 636.65 422.65
Q 636.45 422.85 636.45 423.05 636.4 423.3 636.55 423.45
L 638.35 425.6
Q 638.5 425.75 638.75 425.7 639 425.7 639.25 425.55
L 642.2 422.95 642.2 446.65
Q 642.2 447.15 642.75 447.15
L 645.95 447.15
Q 646.45 447.15 646.45 446.65
L 646.45 417.85
Q 646.45 417.05 646.3 416.9 646.2 416.75 645.5 416.75
L 643.4 416.75
M 613.5 419
Q 612.45 417.85 610.85 417.15 609.3 416.5 607.25 416.5 604.05 416.5 602.1 417.95 600.15 419.45 599.05 421.7 597.95 424 597.55 426.7 597.2 429.45 597.2 431.9 597.2 439.25 599.65 443.3 602.1 447.35 607.25 447.35 609.8 447.35 611.65 446.35 613.5 445.25 614.75 443.3 616 441.35 616.6 438.45 617.2 435.55 617.2 431.9 617.2 430.25 617 428.5 616.85 426.7 616.45 425 616.05 423.3 615.35 421.75 614.65 420.2 613.5 419
M 609.5 421.45
Q 610.5 422 611.25 423.3 611.95 424.65 612.35 426.75 612.7 428.9 612.7 431.9 612.7 435 612.35 437.15 611.95 439.25 611.25 440.55 610.5 441.9 609.5 442.45 608.45 443.05 607.25 443.05 605.95 443.05 604.95 442.45 603.95 441.9 603.25 440.55 602.5 439.25 602.15 437.15 601.75 435 601.75 431.9 601.75 428.9 602.15 426.75 602.5 424.65 603.25 423.3 603.95 422 604.95 421.45 605.95 420.85 607.25 420.85 608.45 420.85 609.5 421.45
M 578.4 449.9
L 578.4 447.05
Q 578.4 446.85 578.2 446.7 578 446.55 577.8 446.55
L 558.05 446.55
Q 557.65 446.55 557.5 446.45 557.3 446.35 557.3 445.9
L 557.3 438.9
Q 557.3 438.65 557.15 438.5 556.95 438.3 556.7 438.3
L 553.3 438.3
Q 553.05 438.3 552.9 438.5 552.7 438.65 552.7 438.9
L 552.7 447.55
Q 552.7 449.1 553.35 449.75 553.95 450.4 555.8 450.4
L 577.8 450.4
Q 578 450.4 578.2 450.25 578.4 450.15 578.4 449.9
M 577.9 427.05
L 577.9 424.2
Q 577.9 424 577.75 423.85 577.55 423.7 577.35 423.7
L 558.25 423.7
Q 557.8 423.7 557.65 423.6 557.5 423.5 557.5 423.1
L 557.5 414.65
Q 557.5 414.45 557.3 414.25 557.1 414.1 556.85 414.1
L 553.4 414.1
Q 553.2 414.1 553 414.25 552.85 414.45 552.85 414.65
L 552.85 424.7
Q 552.85 426.25 553.45 426.9 554.1 427.55 555.9 427.55
L 577.35 427.55
Q 577.55 427.55 577.75 427.45 577.9 427.3 577.9 427.05
M 582.85 432.25
Q 582.85 432.05 582.65 431.85 582.5 431.7 582.25 431.7
L 547.5 431.7
Q 546.9 431.7 546.9 432.25
L 546.9 434.9
Q 546.9 435.1 547.05 435.3 547.2 435.55 547.5 435.55
L 582.25 435.55
Q 582.5 435.55 582.65 435.3 582.85 435.1 582.85 434.9
L 582.85 432.25
M 541.35 419.95
Q 538.8 416.4 534.1 416.4 531.8 416.4 530 417.2 528.15 418 526.85 419.4 525.55 420.8 524.85 422.7 524.2 424.6 524.2 426.8 524.2 429.1 524.9 430.9 525.55 432.7 526.85 434 528.15 435.3 529.95 436 531.7 436.7 533.85 436.7 534.6 436.7 535.4 436.5 536.2 436.3 536.95 435.95 537.7 435.6 538.35 435.15 538.95 434.7 539.3 434.2 539.05 436.1 538.45 437.8 537.85 439.45 536.85 440.7 535.85 441.95 534.4 442.65 532.95 443.35 530.85 443.35 529.45 443.35 528.3 443.25 527.1 443.15 526.05 442.7 525.5 442.5 525.4 443.05
L 525.3 446.25
Q 525.25 446.65 525.6 446.75 526.55 447.1 527.95 447.3 529.4 447.5 530.55 447.5 534.25 447.5 536.8 446.15 539.4 444.85 540.95 442.6 542.55 440.35 543.25 437.35 543.9 434.3 543.9 430.95 543.9 423.5 541.35 419.95
M 537.75 422.3
Q 538.45 423.2 538.85 424.4 539.25 425.6 539.25 426.95 539.25 429.4 537.8 431 536.3 432.55 533.7 432.55 531.25 432.55 529.95 430.95 528.6 429.35 528.6 426.6 528.6 423.7 530.1 422.05 531.65 420.35 534.05 420.35 535.15 420.35 536.1 420.9 537.05 421.4 537.75 422.3
M 516.15 443.5
Q 514.85 443.5 513.95 444.4 513.05 445.25 513.05 446.55 513.05 447.85 513.95 448.75 514.85 449.65 516.15 449.65 517.4 449.65 518.3 448.75 519.15 447.85 519.15 446.55 519.15 445.25 518.3 444.4 517.4 443.5 516.15 443.5
M 504.35 417.35
Q 504.35 417 504.3 416.9 504.25 416.75 503.95 416.75
L 500.3 416.75
Q 499.9 416.75 499.8 416.85 499.7 416.95 499.5 417.3
L 487.1 435.9
Q 486.95 436.05 486.8 436.35 486.6 436.65 486.6 436.9
L 486.6 439.9
Q 486.6 440.2 486.75 440.25 486.9 440.35 487.25 440.35
L 500.05 440.35 500.05 446.45
Q 500.05 446.85 500.2 447 500.35 447.15 500.8 447.15
L 503.7 447.15
Q 504.1 447.15 504.2 447 504.35 446.9 504.35 446.45
L 504.35 440.35 508.05 440.35
Q 508.4 440.35 508.55 440.25 508.7 440.15 508.7 439.75
L 508.7 436.85
Q 508.7 436.45 508.55 436.35 508.4 436.25 508.05 436.25
L 504.35 436.25 504.35 417.35
M 500.05 436.25
L 491.45 436.25 500.05 423.2 500.05 436.25
M 688 342.3
L 684.45 342.3
Q 683.9 342.3 683.9 342.85
L 683.9 379.75
Q 683.9 380.3 684.45 380.3
L 688 380.3
Q 688.5 380.3 688.5 379.75
L 688.5 342.85
Q 688.5 342.3 688 342.3
M 672.9 345.65
Q 671.1 344.7 668.75 344.7 666.45 344.7 664.65 345.65 662.8 346.6 661.55 348.3 660.3 350 659.6 352.45 658.9 354.85 658.9 357.9 658.9 360.8 659.6 363.25 660.3 365.65 661.55 367.4 662.8 369.15 664.65 370.1 666.45 371.1 668.75 371.1 671.1 371.1 672.9 370.1 674.7 369.2 676 367.45 677.25 365.75 677.9 363.3 678.6 360.85 678.6 357.9 678.6 354.85 677.9 352.45 677.25 350 676 348.3 674.7 346.6 672.9 345.65
M 668.75 348.8
Q 670 348.8 671 349.5 672 350.25 672.7 351.45 673.35 352.7 673.7 354.4 674.05 356.05 674.05 357.9 674.05 359.65 673.7 361.35 673.35 363 672.7 364.25 672 365.5 671 366.25 670 367 668.75 367 667.45 367 666.5 366.25 665.5 365.5 664.85 364.25 664.15 363 663.8 361.35 663.4 359.65 663.4 357.9 663.4 356.05 663.8 354.4 664.15 352.7 664.85 351.45 665.5 350.25 666.5 349.5 667.45 348.8 668.75 348.8
M 625.55 378.6
Q 626.8 378.6 627.7 377.7 628.55 376.8 628.55 375.5 628.55 374.2 627.7 373.35 626.8 372.45 625.55 372.45 624.25 372.45 623.35 373.35 622.45 374.2 622.45 375.5 622.45 376.8 623.35 377.7 624.25 378.6 625.55 378.6
M 643.05 345.8
Q 642.85 345.85 642.8 345.95
L 636.65 351.6
Q 636.45 351.8 636.45 352 636.4 352.25 636.55 352.4
L 638.35 354.55
Q 638.5 354.7 638.75 354.65 639 354.65 639.25 354.5
L 642.2 351.9 642.2 375.6
Q 642.2 376.1 642.75 376.1
L 645.95 376.1
Q 646.45 376.1 646.45 375.6
L 646.45 346.8
Q 646.45 346 646.3 345.85 646.2 345.7 645.5 345.7
L 643.4 345.7
Q 643.25 345.7 643.05 345.8
M 599.05 350.65
Q 597.95 352.95 597.55 355.65 597.2 358.4 597.2 360.85 597.2 368.2 599.65 372.25 602.1 376.3 607.25 376.3 609.8 376.3 611.65 375.3 613.5 374.2 614.75 372.25 616 370.3 616.6 367.4 617.2 364.5 617.2 360.85 617.2 359.2 617 357.45 616.85 355.65 616.45 353.95 616.05 352.25 615.35 350.7 614.65 349.15 613.5 347.95 612.45 346.8 610.85 346.1 609.3 345.45 607.25 345.45 604.05 345.45 602.1 346.9 600.15 348.4 599.05 350.65
M 604.95 350.4
Q 605.95 349.8 607.25 349.8 608.45 349.8 609.5 350.4 610.5 350.95 611.25 352.25 611.95 353.6 612.35 355.7 612.7 357.85 612.7 360.85 612.7 363.95 612.35 366.1 611.95 368.2 611.25 369.5 610.5 370.85 609.5 371.4 608.45 372 607.25 372 605.95 372 604.95 371.4 603.95 370.85 603.25 369.5 602.5 368.2 602.15 366.1 601.75 363.95 601.75 360.85 601.75 357.85 602.15 355.7 602.5 353.6 603.25 352.25 603.95 350.95 604.95 350.4
M 547.5 360.65
Q 547.2 360.65 547.05 360.85 546.9 361.05 546.9 361.25
L 546.9 363.85
Q 546.9 364.1 547.05 364.3 547.2 364.5 547.5 364.5
L 582.3 364.5
Q 582.5 364.5 582.7 364.3 582.9 364.05 582.9 363.85
L 582.9 361.25
Q 582.9 361.1 582.7 360.85 582.5 360.65 582.3 360.65
L 547.5 360.65
M 556.65 367.05
L 553.2 367.05
Q 553 367.05 552.8 367.2 552.65 367.4 552.65 367.6
L 552.65 376.25
Q 552.65 377.9 553.25 378.5 553.85 379.15 555.65 379.15
L 577.95 379.15
Q 578.2 379.15 578.4 379.05 578.55 378.9 578.55 378.7
L 578.55 375.8
Q 578.55 375.6 578.35 375.45 578.15 375.3 577.95 375.3
L 558 375.3
Q 557.55 375.3 557.4 375.2 557.2 375.05 557.2 374.65
L 557.2 367.6
Q 557.2 367.4 557.05 367.2 556.85 367.05 556.65 367.05
M 565 342.9
Q 562.2 342.9 559.85 343.35 557.5 343.85 555.85 344.8 554.15 345.7 553.2 347.1 552.25 348.45 552.25 350.2 552.25 351.9 553.2 353.25 554.15 354.65 555.85 355.55 557.5 356.45 559.85 357 562.2 357.45 565 357.45 567.8 357.45 570.1 357 572.45 356.45 574.1 355.55 575.8 354.65 576.75 353.25 577.65 351.9 577.65 350.2 577.65 348.45 576.75 347.1 575.8 345.7 574.1 344.8 572.45 343.85 570.1 343.35 567.8 342.9 565 342.9
M 557.65 351.65
Q 557.05 351 557.05 350.2 557.05 349.4 557.65 348.7 558.25 348.05 559.3 347.55 560.35 347.1 561.8 346.8 563.25 346.55 565 346.55 566.7 346.55 568.15 346.8 569.6 347.1 570.65 347.55 571.7 348.05 572.3 348.7 572.85 349.4 572.85 350.2 572.85 351 572.3 351.65 571.7 352.3 570.65 352.8 569.6 353.25 568.15 353.55 566.7 353.8 565 353.8 563.25 353.8 561.8 353.55 560.35 353.25 559.3 352.8 558.25 352.3 557.65 351.65
M 513.95 377.7
Q 514.85 378.6 516.15 378.6 517.4 378.6 518.3 377.7 519.15 376.8 519.15 375.5 519.15 374.2 518.3 373.35 517.4 372.45 516.15 372.45 514.85 372.45 513.95 373.35 513.05 374.2 513.05 375.5 513.05 376.8 513.95 377.7
M 533.65 345.8
Q 533.45 345.85 533.4 345.95
L 527.25 351.6
Q 527.05 351.8 527.05 352 527 352.25 527.15 352.4
L 528.95 354.55
Q 529.1 354.7 529.35 354.65 529.6 354.65 529.85 354.5
L 532.8 351.9 532.8 375.6
Q 532.8 376.1 533.35 376.1
L 536.55 376.1
Q 537.05 376.1 537.05 375.6
L 537.05 346.8
Q 537.05 346 536.9 345.85 536.8 345.7 536.1 345.7
L 534 345.7
Q 533.85 345.7 533.65 345.8
M 497.75 345.35
Q 495.45 345.35 493.65 346.15 491.8 346.95 490.5 348.35 489.2 349.75 488.5 351.65 487.85 353.55 487.85 355.75 487.85 358.05 488.55 359.85 489.2 361.65 490.5 362.95 491.8 364.25 493.6 364.95 495.35 365.65 497.5 365.65 498.25 365.65 499.05 365.45 499.85 365.25 500.6 364.9 501.35 364.55 502 364.1 502.6 363.65 502.95 363.15 502.7 365.05 502.1 366.75 501.5 368.4 500.5 369.65 499.5 370.9 498.05 371.6 496.6 372.3 494.5 372.3 493.1 372.3 491.95 372.2 490.75 372.1 489.7 371.65 489.15 371.45 489.05 372
L 488.95 375.2
Q 488.9 375.6 489.25 375.7 490.2 376.05 491.6 376.25 493.05 376.45 494.2 376.45 497.9 376.45 500.45 375.1 503.05 373.8 504.6 371.55 506.2 369.3 506.9 366.3 507.55 363.25 507.55 359.9 507.55 352.45 505 348.9 502.45 345.35 497.75 345.35
M 497.7 349.3
Q 498.8 349.3 499.75 349.85 500.7 350.35 501.4 351.25 502.1 352.15 502.5 353.35 502.9 354.55 502.9 355.9 502.9 358.35 501.45 359.95 499.95 361.5 497.35 361.5 494.9 361.5 493.6 359.9 492.25 358.3 492.25 355.55 492.25 352.65 493.75 351 495.3 349.3 497.7 349.3
M 1125.95 532.95
Q 1127.2 532.95 1128.1 532.05 1128.95 531.15 1128.95 529.85 1128.95 528.55 1128.1 527.7 1127.2 526.8 1125.95 526.8 1124.65 526.8 1123.75 527.7 1122.85 528.55 1122.85 529.85 1122.85 531.15 1123.75 532.05 1124.65 532.95 1125.95 532.95
M 1125.5 459.65
Q 1126.75 459.65 1127.65 458.75 1128.5 457.85 1128.5 456.55 1128.5 455.25 1127.65 454.4 1126.75 453.5 1125.5 453.5 1124.2 453.5 1123.3 454.4 1122.4 455.25 1122.4 456.55 1122.4 457.85 1123.3 458.75 1124.2 459.65 1125.5 459.65
M 1096.45 426.9
Q 1096.4 426.75 1096.1 426.75
L 1092.45 426.75
Q 1092.05 426.75 1091.95 426.85 1091.85 426.95 1091.65 427.3
L 1079.25 445.9
Q 1079.1 446.05 1078.95 446.35 1078.75 446.65 1078.75 446.9
L 1078.75 449.9
Q 1078.75 450.2 1078.9 450.25 1079.05 450.35 1079.4 450.35
L 1092.2 450.35 1092.2 456.45
Q 1092.2 456.85 1092.35 457 1092.5 457.15 1092.95 457.15
L 1095.85 457.15
Q 1096.25 457.15 1096.35 457 1096.5 456.9 1096.5 456.45
L 1096.5 450.35 1100.2 450.35
Q 1100.55 450.35 1100.7 450.25 1100.85 450.15 1100.85 449.75
L 1100.85 446.85
Q 1100.85 446.45 1100.7 446.35 1100.55 446.25 1100.2 446.25
L 1096.5 446.25 1096.5 427.35
Q 1096.5 427 1096.45 426.9
M 1092.2 446.25
L 1083.6 446.25 1092.2 433.2 1092.2 446.25
M 1149.45 440.9
Q 1150.1 442.7 1151.4 444 1152.7 445.3 1154.5 446 1156.25 446.7 1158.4 446.7 1159.15 446.7 1159.95 446.5 1160.75 446.3 1161.5 445.95 1162.25 445.6 1162.9 445.15 1163.5 444.7 1163.85 444.2 1163.6 446.1 1163 447.8 1162.4 449.45 1161.4 450.7 1160.4 451.95 1158.95 452.65 1157.5 453.35 1155.4 453.35 1154 453.35 1152.85 453.25 1151.65 453.15 1150.6 452.7 1150.05 452.5 1149.95 453.05
L 1149.85 456.25
Q 1149.8 456.65 1150.15 456.75 1151.1 457.1 1152.5 457.3 1153.95 457.5 1155.1 457.5 1158.8 457.5 1161.35 456.15 1163.95 454.85 1165.5 452.6 1167.1 450.35 1167.8 447.35 1168.45 444.3 1168.45 440.95 1168.45 433.5 1165.9 429.95 1163.35 426.4 1158.65 426.4 1156.35 426.4 1154.55 427.2 1152.7 428 1151.4 429.4 1150.1 430.8 1149.4 432.7 1148.75 434.6 1148.75 436.8 1148.75 439.1 1149.45 440.9
M 1158.6 430.35
Q 1159.7 430.35 1160.65 430.9 1161.6 431.4 1162.3 432.3 1163 433.2 1163.4 434.4 1163.8 435.6 1163.8 436.95 1163.8 439.4 1162.35 441 1160.85 442.55 1158.25 442.55 1155.8 442.55 1154.5 440.95 1153.15 439.35 1153.15 436.6 1153.15 433.7 1154.65 432.05 1156.2 430.35 1158.6 430.35
M 849.25 502.35
Q 849.3 500.8 848.7 500.15 848.05 499.5 846.3 499.5
L 834.7 499.5
Q 834.5 499.5 834.3 499.65 834.1 499.8 834.1 500
L 834.1 502.75
Q 834.1 503.25 834.7 503.25
L 843.55 503.25
Q 844.35 503.25 844.55 503.55 844.75 503.85 844.7 504.7 844.65 506.65 843.8 509 842.95 511.3 841.4 513.6 839.9 515.85 837.7 518 835.5 520.15 832.8 521.8 832.6 521.95 832.45 522.25 832.3 522.55 832.55 522.9
L 834.15 525.15
Q 834.35 525.4 834.7 525.35 835 525.3 835.35 525.15 838.45 523.1 841.05 520.6 843.6 518.1 845.4 515.2 847.2 512.3 848.2 509.05 849.2 505.85 849.25 502.35
M 865.35 496.9
Q 865.35 496.35 864.8 496.35
L 861.35 496.35
Q 860.8 496.35 860.8 496.9
L 860.8 511.05 857.1 511.05 857.1 497.6
Q 857.1 497.1 856.55 497.1
L 853.3 497.1
Q 852.75 497.1 852.75 497.6
L 852.75 532.3
Q 852.75 532.85 853.3 532.85
L 856.55 532.85
Q 857.1 532.85 857.1 532.3
L 857.1 514.9 860.8 514.9 860.8 533.8
Q 860.8 534.35 861.3 534.35
L 864.8 534.35
Q 865.35 534.35 865.35 533.8
L 865.35 496.9
M 834.1 419.75
Q 834.1 420.25 834.7 420.25
L 843.55 420.25
Q 844.35 420.25 844.55 420.55 844.75 420.85 844.7 421.7 844.65 423.65 843.8 426 842.95 428.3 841.4 430.6 839.9 432.85 837.7 435 835.5 437.15 832.8 438.8 832.6 438.95 832.45 439.25 832.3 439.55 832.55 439.9
L 834.15 442.15
Q 834.35 442.4 834.7 442.35 835 442.3 835.35 442.15 838.45 440.1 841.05 437.6 843.6 435.1 845.4 432.2 847.2 429.3 848.2 426.05 849.2 422.85 849.25 419.35 849.3 417.8 848.7 417.15 848.05 416.5 846.3 416.5
L 834.7 416.5
Q 834.5 416.5 834.3 416.65 834.1 416.8 834.1 417
L 834.1 419.75
M 861.35 413.35
Q 860.8 413.35 860.8 413.9
L 860.8 428.05 857.1 428.05 857.1 414.6
Q 857.1 414.1 856.55 414.1
L 853.3 414.1
Q 852.75 414.1 852.75 414.6
L 852.75 449.3
Q 852.75 449.85 853.3 449.85
L 856.55 449.85
Q 857.1 449.85 857.1 449.3
L 857.1 431.9 860.8 431.9 860.8 450.8
Q 860.8 451.35 861.3 451.35
L 864.8 451.35
Q 865.35 451.35 865.35 450.8
L 865.35 413.9
Q 865.35 413.35 864.8 413.35
L 861.35 413.35
M 848.7 346.1
Q 848.05 345.45 846.3 345.45
L 834.7 345.45
Q 834.5 345.45 834.3 345.6 834.1 345.75 834.1 345.95
L 834.1 348.7
Q 834.1 349.2 834.7 349.2
L 843.55 349.2
Q 844.35 349.2 844.55 349.5 844.75 349.8 844.7 350.65 844.65 352.6 843.8 354.95 842.95 357.25 841.4 359.55 839.9 361.8 837.7 363.95 835.5 366.1 832.8 367.75 832.6 367.9 832.45 368.2 832.3 368.5 832.55 368.85
L 834.15 371.1
Q 834.35 371.35 834.7 371.3 835 371.25 835.35 371.1 838.45 369.05 841.05 366.55 843.6 364.05 845.4 361.15 847.2 358.25 848.2 355 849.2 351.8 849.25 348.3 849.3 346.75 848.7 346.1
M 857.1 343.55
Q 857.1 343.05 856.55 343.05
L 853.3 343.05
Q 852.75 343.05 852.75 343.55
L 852.75 378.25
Q 852.75 378.8 853.3 378.8
L 856.55 378.8
Q 857.1 378.8 857.1 378.25
L 857.1 360.85 860.8 360.85 860.8 379.75
Q 860.8 380.3 861.3 380.3
L 864.8 380.3
Q 865.35 380.3 865.35 379.75
L 865.35 342.85
Q 865.35 342.3 864.8 342.3
L 861.35 342.3
Q 860.8 342.3 860.8 342.85
L 860.8 357 857.1 357 857.1 343.55
M 1161.6 366.8
Q 1161.6 366 1161.45 365.85 1161.35 365.7 1160.65 365.7
L 1158.55 365.7
Q 1158.4 365.7 1158.2 365.8 1158 365.85 1157.95 365.95
L 1151.8 371.6
Q 1151.6 371.8 1151.6 372 1151.55 372.25 1151.7 372.4
L 1153.5 374.55
Q 1153.65 374.7 1153.9 374.65 1154.15 374.65 1154.4 374.5
L 1157.35 371.9 1157.35 395.6
Q 1157.35 396.1 1157.9 396.1
L 1161.1 396.1
Q 1161.6 396.1 1161.6 395.6
L 1161.6 366.8
M 1125.5 392.45
Q 1124.2 392.45 1123.3 393.35 1122.4 394.2 1122.4 395.5 1122.4 396.8 1123.3 397.7 1124.2 398.6 1125.5 398.6 1126.75 398.6 1127.65 397.7 1128.5 396.8 1128.5 395.5 1128.5 394.2 1127.65 393.35 1126.75 392.45 1125.5 392.45
M 1089.9 365.35
Q 1087.6 365.35 1085.8 366.15 1083.95 366.95 1082.65 368.35 1081.35 369.75 1080.65 371.65 1080 373.55 1080 375.75 1080 378.05 1080.7 379.85 1081.35 381.65 1082.65 382.95 1083.95 384.25 1085.75 384.95 1087.5 385.65 1089.65 385.65 1090.4 385.65 1091.2 385.45 1092 385.25 1092.75 384.9 1093.5 384.55 1094.15 384.1 1094.75 383.65 1095.1 383.15 1094.85 385.05 1094.25 386.75 1093.65 388.4 1092.65 389.65 1091.65 390.9 1090.2 391.6 1088.75 392.3 1086.65 392.3 1085.25 392.3 1084.1 392.2 1082.9 392.1 1081.85 391.65 1081.3 391.45 1081.2 392
L 1081.1 395.2
Q 1081.05 395.6 1081.4 395.7 1082.35 396.05 1083.75 396.25 1085.2 396.45 1086.35 396.45 1090.05 396.45 1092.6 395.1 1095.2 393.8 1096.75 391.55 1098.35 389.3 1099.05 386.3 1099.7 383.25 1099.7 379.9 1099.7 372.45 1097.15 368.9 1094.6 365.35 1089.9 365.35
M 1089.85 369.3
Q 1090.95 369.3 1091.9 369.85 1092.85 370.35 1093.55 371.25 1094.25 372.15 1094.65 373.35 1095.05 374.55 1095.05 375.9 1095.05 378.35 1093.6 379.95 1092.1 381.5 1089.5 381.5 1087.05 381.5 1085.75 379.9 1084.4 378.3 1084.4 375.55 1084.4 372.65 1085.9 371 1087.45 369.3 1089.85 369.3 Z"/>

<path fill="#FFFFFF" stroke="none" d="
M 823.2 529.25
L 823.2 499.2
Q 823.2 484.2 808.2 484.2
L 734.2 484.2
Q 719.2 484.2 719.2 499.2
L 719.2 529.25
Q 719.2 544.25 734.2 544.25
L 808.2 544.25
Q 823.2 544.25 823.2 529.25
M 823.2 446.2
L 823.2 416.15
Q 823.2 401.15 808.2 401.15
L 734.2 401.15
Q 719.2 401.15 719.2 416.15
L 719.2 446.2
Q 719.2 461.2 734.2 461.2
L 808.2 461.2
Q 823.2 461.2 823.2 446.2
M 719.2 345.15
L 719.2 375.2
Q 719.2 390.2 734.2 390.2
L 808.2 390.2
Q 823.2 390.2 823.2 375.2
L 823.2 345.15
Q 823.2 330.15 808.2 330.15
L 734.2 330.15
Q 719.2 330.15 719.2 345.15
M 1100.75 484.2
L 1080.75 484.2
Q 1065.75 484.2 1065.75 499.2
L 1065.75 529.25
Q 1065.75 544.25 1080.75 544.25
L 1100.75 544.25
Q 1115.75 544.25 1115.75 529.25
L 1115.75 499.2
Q 1115.75 484.2 1100.75 484.2
M 1170.75 484.2
L 1150.75 484.2
Q 1135.75 484.2 1135.75 499.2
L 1135.75 529.25
Q 1135.75 544.25 1150.75 544.25
L 1170.75 544.25
Q 1185.75 544.25 1185.75 529.25
L 1185.75 499.2
Q 1185.75 484.2 1170.75 484.2 Z"/>
</g>

<g id="vsdvs434_0_Layer1_0_FILL">
<path fill="#000000" stroke="none" d="
M 7.5 -19.9
Q 5.25 -19.9 3.75 -18.3
L -11.15 -3.5
Q -12.75 -1.95 -12.75 0.25 -12.75 2.5 -11.15 4.1 -11.07734375 4.175 -11 4.25
L 3.35 18.55
Q 4.95 20.05 7.2 20.05 9.35 20.05 10.95 18.55 12.45 16.9 12.45 14.75 12.45 12.5 10.95 11
L 0.25 0.25 11.25 -10.8
Q 12.8 -12.4 12.8 -14.55 12.8 -16.8 11.25 -18.4 9.75 -19.9 7.5 -19.9 Z"/>
</g>

<g id="vsdvs434_0_Layer0_0_FILL">
<path fill="#000000" stroke="none" d="
M 34.95 -4.35
Q 33.2 -6.1 30.65 -6.1
L 24.25 -6.1 23.1 -6.1 18.5 -6.1 17.35 -6.1 0.6 -6.1
Q -1.95 -6.1 -3.75 -4.35 -5.5 -2.55 -5.5 0
L -5.5 0.05
Q -5.5 2.6 -3.75 4.35 -1.95 6.15 0.6 6.15
L 17.35 6.15 18.5 6.15 23.1 6.15 24.25 6.15 30.65 6.15
Q 33.25 6.15 34.95 4.35 36.75 2.65 36.75 0.05
L 36.75 0
Q 36.75 -2.55 34.95 -4.35 Z"/>
</g>

<path id="Layer0_0_1_STROKES" stroke="#DBDBDB" stroke-width="3" stroke-linejoin="round" stroke-linecap="round" fill="none" d="
M 808.2 330.15
Q 823.2 330.15 823.2 345.15
L 823.2 375.2
Q 823.2 390.2 808.2 390.2
L 734.2 390.2
Q 719.2 390.2 719.2 375.2
L 719.2 345.15
Q 719.2 330.15 734.2 330.15
L 808.2 330.15 Z
M 808.2 401.15
Q 823.2 401.15 823.2 416.15
L 823.2 446.2
Q 823.2 461.2 808.2 461.2
L 734.2 461.2
Q 719.2 461.2 719.2 446.2
L 719.2 416.15
Q 719.2 401.15 734.2 401.15
L 808.2 401.15 Z
M 808.2 484.2
Q 823.2 484.2 823.2 499.2
L 823.2 529.25
Q 823.2 544.25 808.2 544.25
L 734.2 544.25
Q 719.2 544.25 719.2 529.25
L 719.2 499.2
Q 719.2 484.2 734.2 484.2
L 808.2 484.2 Z
M 1150.75 484.2
L 1170.75 484.2
Q 1185.75 484.2 1185.75 499.2
L 1185.75 529.25
Q 1185.75 544.25 1170.75 544.25
L 1150.75 544.25
Q 1135.75 544.25 1135.75 529.25
L 1135.75 499.2
Q 1135.75 484.2 1150.75 484.2 Z
M 1080.75 484.2
L 1100.75 484.2
Q 1115.75 484.2 1115.75 499.2
L 1115.75 529.25
Q 1115.75 544.25 1100.75 544.25
L 1080.75 544.25
Q 1065.75 544.25 1065.75 529.25
L 1065.75 499.2
Q 1065.75 484.2 1080.75 484.2 Z"/>

<path id="Layer0_0_2_STROKES" stroke="#000000" stroke-width="3" stroke-linejoin="round" stroke-linecap="round" fill="none" d="
M 398.55 474
L 883.05 474"/>

<path id="Layer0_0_3_STROKES" stroke="#1E1E1E" stroke-width="3" stroke-linejoin="round" stroke-linecap="butt" fill="none" d="
M 1015.2 474
L 1185.75 474
M 94.25 474
L 264.8 474"/>
</defs>

<g transform="matrix( 1, 0, 0, 1, 0,0) ">
<use xlink:href="#Layer0_0_FILL"/>

<use xlink:href="#Layer0_0_1_STROKES"/>

<use xlink:href="#Layer0_0_2_STROKES"/>

<use xlink:href="#Layer0_0_3_STROKES"/>
</g>

<g transform="matrix( -0.7999725341796875, 0, 0, -0.7999725341796875, 341.35,437.3) ">
<g transform="matrix( 1, 0, 0, 1, 0,0) ">
<use filter="url(#Filter_1)" xlink:href="#vsdvs434_0_Layer1_0_FILL"/>
</g>

<g transform="matrix( 1, 0, 0, 1, 0,0) ">
<use filter="url(#Filter_1)" xlink:href="#vsdvs434_0_Layer0_0_FILL"/>
</g>
</g>

<g transform="matrix( -0.7999725341796875, 0, 0, -0.7999725341796875, 960.3,437.3) ">
<g transform="matrix( 1, 0, 0, 1, 0,0) ">
<use filter="url(#Filter_1)" xlink:href="#vsdvs434_0_Layer1_0_FILL"/>
</g>

<g transform="matrix( 1, 0, 0, 1, 0,0) ">
<use filter="url(#Filter_1)" xlink:href="#vsdvs434_0_Layer0_0_FILL"/>
</g>
</g>
</svg>
