<?xml version="1.0" encoding="utf-8"?>
<!-- Generator: Adobe Illustrator 23.1.0, SVG Export Plug-In . SVG Version: 6.00 Build 0)  -->
<svg version="1.1" id="레이어_1" xmlns="http://www.w3.org/2000/svg" xmlns:xlink="http://www.w3.org/1999/xlink" x="0px"
	 y="0px" width="124px" height="130px" viewBox="0 0 124 130" style="enable-background:new 0 0 124 130;" xml:space="preserve">
<g>
	<g>
		<path style="fill:#303E70;" d="M51.6,39.5c10.2,1.3,19.5,6.4,28.8,10c18.3,7,42.4,14.8,41.1,40c-0.6,12.2-7.9,23.5-17.5,31.2
			c0,0,0,0,0,0c-10.1,8.1-21.9,9.3-32.9,6.3c-13.1-3.5-25.1-11-36.4-18.1c-7.4-4.7-14.8-10.5-17.6-19.5c-5.3-16.4-1.3-38.1,16.7-47
			c4.6-2.2,9.5-3.3,14.3-3.2C49.3,39.2,50.5,39.3,51.6,39.5"/>
	</g>
	<g>
		<path style="fill:#FFFFFF;" d="M53.1,78.6c-1.4-0.3-2.9-0.6-4.6-0.9c-1.7-0.4-3.4-0.8-5.3-1.2c-1.8-0.4-3.7-0.9-5.6-1.4
			s-3.9-1-5.8-1.5c-0.7-0.2-1.1-0.5-1.3-1.1s-0.2-1.1,0-1.8c0.2-0.6,0.5-1.1,0.9-1.5c0.4-0.4,1-0.5,1.6-0.3c1.3,0.4,2.6,0.7,3.9,1.1
			c1.3,0.4,2.6,0.7,4,1l1.8-6.7l5.4,1.5l-1.8,6.5c1.3,0.3,2.5,0.6,3.8,0.8s2.5,0.5,3.8,0.7c0.7,0.1,1.1,0.4,1.3,0.9
			c0.2,0.5,0.3,1.1,0.2,1.7c-0.1,0.6-0.3,1.1-0.7,1.5C54.3,78.5,53.8,78.7,53.1,78.6z M58.1,91c0.7,0.2,1.1,0.5,1.3,1.1
			c0.2,0.5,0.2,1.1,0,1.8c-0.2,0.6-0.5,1.1-0.9,1.5c-0.4,0.4-1,0.5-1.6,0.3l-21.6-5.8c-1.4-0.4-2.2-0.9-2.6-1.5
			c-0.4-0.7-0.4-1.7,0-3l1.8-6.5c0.2-0.8,0.7-1.3,1.3-1.5c0.7-0.2,1.4-0.2,2.1,0c0.7,0.2,1.3,0.6,1.8,1.1c0.5,0.5,0.6,1.2,0.4,2
			l-1.2,4.5c-0.2,0.7,0.1,1.1,0.7,1.2L58.1,91z M44.6,68.3c-3.4-0.9-5.7-2.3-7.1-4.3c-1.3-1.9-1.6-4.1-1-6.4c0.6-2.4,2-4,4.1-5.1
			s4.9-1,8.2-0.1c3.4,0.9,5.7,2.3,7.1,4.3c1.3,1.9,1.6,4.1,1,6.4c-0.6,2.4-2,4-4.1,5.1C50.7,69.2,48,69.2,44.6,68.3z M45.8,63.9
			c1.8,0.5,3.1,0.5,4.1,0.1c1-0.4,1.6-1.2,1.9-2.2c0.3-1.1,0.1-2-0.5-2.9c-0.6-0.8-1.8-1.5-3.6-2s-3.1-0.5-4.1-0.1
			c-1,0.4-1.6,1.2-1.9,2.2c-0.3,1.1-0.1,2,0.5,2.9C42.8,62.7,44,63.4,45.8,63.9z M65.3,68.2l3.5,0.9c0.7,0.2,1.1,0.5,1.3,1.1
			c0.2,0.5,0.2,1.1,0,1.8s-0.5,1.2-0.9,1.6c-0.4,0.4-1,0.5-1.7,0.3L64,73l-3,11.2c-0.2,0.8-0.6,1.3-1.3,1.5s-1.3,0.2-2,0
			c-0.7-0.2-1.3-0.5-1.7-1.1c-0.4-0.5-0.6-1.2-0.3-1.9l6.9-25.5c0.2-0.8,0.6-1.3,1.3-1.5c0.6-0.2,1.3-0.2,2,0s1.3,0.5,1.7,1.1
			c0.4,0.5,0.6,1.2,0.3,1.9L65.3,68.2z"/>
	</g>
	<g>
		<path style="fill:#FFFFFF;" d="M86.7,105.9c0.4-0.5,0.3-1-0.2-1.4L71.4,93.3c-0.5-0.4-0.8-0.9-0.8-1.5c0-0.6,0.2-1.1,0.6-1.6
			c0.4-0.5,0.8-0.9,1.4-1.1c0.5-0.2,1.1-0.1,1.6,0.3l17.5,13c1.1,0.8,1.8,1.6,1.9,2.4c0.1,0.8-0.2,1.7-1.1,2.8l-5.6,7.6
			c-0.5,0.7-1.1,1-1.8,0.9c-0.7,0-1.3-0.3-1.9-0.7c-0.6-0.4-1-1-1.2-1.6c-0.2-0.7-0.1-1.3,0.4-2L86.7,105.9z M88.9,90.5
			c-0.8,1.1-1.6,1.7-2.4,1.8c-0.8,0.1-1.7-0.3-2.8-1.1l-9.3-6.9c-1.1-0.8-1.8-1.6-1.9-2.4s0.2-1.7,1.1-2.8l8.4-11.4
			c0.5-0.6,1-0.9,1.7-0.9c0.7,0,1.3,0.3,1.9,0.7c0.6,0.4,1,1,1.2,1.6c0.2,0.7,0.1,1.3-0.3,1.9l-2.5,3.4l6.5,4.8l2.5-3.4
			c0.5-0.6,1-0.9,1.7-0.9c0.7,0,1.3,0.3,1.9,0.7c0.6,0.4,1,1,1.2,1.6c0.2,0.7,0.1,1.3-0.3,1.9L88.9,90.5z M84.2,85.8
			c0.5,0.4,1,0.3,1.4-0.2l2-2.7l-6.5-4.8l-2,2.7c-0.4,0.5-0.3,1,0.2,1.4L84.2,85.8z M97.2,101.4c-0.5,0.7-1.1,1-1.8,0.9
			c-0.7,0-1.3-0.3-1.9-0.7c-0.6-0.4-1-1-1.2-1.6c-0.2-0.7-0.1-1.3,0.4-2l2.1-2.9l-3.1-2.3c-0.5-0.4-0.8-0.9-0.8-1.5
			c0-0.6,0.3-1.1,0.7-1.7c0.4-0.5,0.8-0.9,1.4-1.1c0.5-0.2,1.1-0.1,1.6,0.3l3.1,2.3l1.9-2.5l-3.1-2.3c-0.5-0.4-0.8-0.9-0.8-1.5
			c0-0.6,0.3-1.1,0.7-1.7c0.4-0.5,0.8-0.9,1.4-1.1c0.5-0.2,1.1-0.1,1.6,0.3l3.1,2.3l2-2.7c0.5-0.7,1.1-1,1.8-0.9
			c0.7,0,1.3,0.3,1.9,0.7c0.6,0.4,1,1,1.2,1.6c0.2,0.7,0.1,1.3-0.4,2L97.2,101.4z"/>
	</g>
	<g>
		<g>
			<path style="fill:#FFF362;" d="M12.5,18.8c0,0,6,14.7,15.9,13.5c0,0-12.5,5-11.6,14.2c0,0-5-12.5-13.2-11.3
				C3.7,35.3,16.5,32.8,12.5,18.8"/>
		</g>
		<g>
			<path style="fill:#231815;" d="M16.9,48.1c-0.6,0-1.2-0.4-1.4-0.9c0-0.1-4.7-11.4-11.6-10.4c-0.8,0.1-1.6-0.4-1.7-1.2
				c-0.1-0.8,0.4-1.6,1.2-1.7c0,0,4.7-1,7-4.8c1.5-2.5,1.8-5.8,0.7-9.7c-0.2-0.8,0.2-1.6,1-1.8c0.7-0.3,1.6,0.1,1.9,0.8
				c0.1,0.1,5.7,13.6,14.4,12.6c0.7-0.1,1.4,0.4,1.6,1.1c0.2,0.7-0.2,1.5-0.9,1.8c-0.1,0-11.4,4.7-10.7,12.7
				c0.1,0.7-0.4,1.4-1.1,1.6C17.1,48.1,17,48.1,16.9,48.1z M8.9,34.6c3.1,1.5,5.5,4.5,7.1,7.1c1.4-3.9,4.8-6.7,7.5-8.5
				c-3.8-1.4-6.8-4.6-8.9-7.6c-0.2,1.8-0.8,3.4-1.7,4.9C11.8,32.4,10.4,33.7,8.9,34.6z"/>
		</g>
	</g>
	<g>
		<path style="fill:#FFFFFF;" d="M32.7,18.8c-0.5,0-0.8-0.2-1.1-0.5s-0.3-0.7-0.3-1.2c0-0.5,0.1-0.8,0.3-1.2s0.6-0.5,1.1-0.5
			l23.5,0.1c0.5,0,0.8,0.2,1.1,0.5c0.2,0.3,0.3,0.7,0.3,1.2c0,0.4-0.1,0.8-0.3,1.1c-0.2,0.3-0.6,0.5-1.1,0.5l-9.4,0l0,3.7
			c0,0.5-0.2,0.9-0.6,1.2c-0.4,0.2-0.9,0.4-1.4,0.4c-0.5,0-1-0.1-1.4-0.4c-0.4-0.2-0.6-0.6-0.6-1.2l0-3.7L32.7,18.8z M53.3,26.6
			c0.5,0,0.8,0.2,1.1,0.5s0.3,0.7,0.3,1.2s-0.1,0.8-0.3,1.2S53.8,30,53.3,30l-16,0c-1,0-1.7-0.2-2.1-0.6s-0.6-1-0.6-2l0-4.8
			c0-0.6,0.2-1,0.6-1.3c0.4-0.3,0.9-0.4,1.4-0.4c0.5,0,1,0.1,1.4,0.4s0.6,0.7,0.6,1.3l0,3.3c0,0.5,0.2,0.7,0.7,0.7L53.3,26.6z
			 M37.4,13.2c-1,0-1.7-0.2-2.1-0.6s-0.6-1-0.6-2l0-5.7c0-1,0.2-1.6,0.6-2c0.4-0.4,1.1-0.6,2.1-0.6l14.2,0c1,0,1.7,0.2,2.1,0.6
			c0.4,0.4,0.6,1,0.6,2l0,5.7c0,1-0.2,1.6-0.6,2s-1.1,0.6-2.1,0.6L37.4,13.2z M49.5,9.9c0.5,0,0.7-0.2,0.7-0.7l0-2.8
			c0-0.5-0.2-0.7-0.7-0.7l-10.1,0c-0.5,0-0.7,0.2-0.7,0.7l0,2.8c0,0.5,0.2,0.7,0.7,0.7L49.5,9.9z"/>
	</g>
	<g>
		<path style="fill:#FFFFFF;" d="M68.4,8.9l-0.5,2.5c-0.1,0.6-0.2,1.1-0.3,1.6c0,0.5,0,1,0,1.4c0,0.5,0.1,0.9,0.3,1.3
			c0.1,0.4,0.3,0.9,0.6,1.3c0.4,0.7,0.7,1.3,1.1,1.9c0.4,0.6,0.7,1.1,0.9,1.5c0.3,0.4,0.3,0.9,0.2,1.4c-0.1,0.5-0.4,0.8-0.8,1.1
			c-0.4,0.3-0.9,0.4-1.3,0.3c-0.5-0.1-0.8-0.3-1.1-0.7c-0.2-0.3-0.4-0.6-0.7-1.1c-0.3-0.5-0.6-1-0.9-1.5c-0.5-0.8-0.8-1.5-0.9-1.9
			c-0.1-0.4-0.2-0.8-0.2-1.1l0,0c-0.1,0.3-0.3,0.7-0.6,1.1c-0.3,0.4-0.9,0.9-1.6,1.4c-0.5,0.4-1,0.7-1.5,1.1c-0.5,0.3-1,0.7-1.6,1.1
			c-0.4,0.3-0.9,0.3-1.3,0.2c-0.5-0.2-0.8-0.4-1.1-0.8c-0.3-0.4-0.4-0.9-0.3-1.4c0-0.5,0.3-0.9,0.7-1.2c0.7-0.5,1.4-0.9,2-1.3
			c0.6-0.4,1.3-0.9,1.9-1.4c0.4-0.3,0.8-0.6,1.1-1c0.3-0.3,0.6-0.7,0.8-1.1c0.2-0.4,0.4-0.8,0.6-1.3c0.2-0.5,0.3-1,0.4-1.6l0.5-2.5
			L61,7.4c-0.5-0.1-0.8-0.3-0.9-0.7c-0.2-0.4-0.2-0.8-0.1-1.2c0.1-0.5,0.3-0.8,0.6-1.1c0.3-0.3,0.7-0.4,1.1-0.3l10.6,2.2
			c0.5,0.1,0.8,0.3,0.9,0.7c0.2,0.4,0.2,0.8,0.1,1.3c-0.1,0.4-0.3,0.8-0.6,1.1c-0.3,0.3-0.7,0.4-1.1,0.3L68.4,8.9z M73.1,16.6
			l-2.2-0.5c-0.5-0.1-0.8-0.3-0.9-0.7c-0.2-0.4-0.2-0.8-0.1-1.3c0.1-0.5,0.3-0.8,0.6-1.1s0.7-0.4,1.1-0.3l2.2,0.5l1.4-6.8
			c0.1-0.5,0.4-0.9,0.8-1c0.4-0.2,0.9-0.2,1.3-0.1c0.4,0.1,0.8,0.3,1.1,0.6c0.3,0.3,0.4,0.7,0.3,1.3l-4.7,22c-0.1,0.5-0.4,0.9-0.8,1
			c-0.4,0.2-0.8,0.2-1.3,0.1c-0.5-0.1-0.9-0.3-1.2-0.6c-0.3-0.3-0.4-0.7-0.3-1.3L73.1,16.6z M80.9,7.3c0.1-0.5,0.4-0.9,0.8-1
			c0.4-0.2,0.9-0.2,1.3-0.1c0.5,0.1,0.9,0.3,1.2,0.6c0.3,0.3,0.4,0.7,0.3,1.3l-5,23.5c-0.1,0.5-0.4,0.9-0.8,1
			c-0.4,0.2-0.9,0.2-1.3,0.1c-0.5-0.1-0.9-0.3-1.2-0.6c-0.3-0.3-0.4-0.7-0.3-1.3L80.9,7.3z"/>
	</g>
	<g>
		<path style="fill:#FFFFFF;" d="M79.7,30.8c-0.3-0.2-0.5-0.4-0.6-0.7c0-0.3,0-0.6,0.2-0.9c0.2-0.3,0.4-0.5,0.6-0.7s0.6-0.1,0.9,0
			l6.6,3.3l2.3-4.7l2.7,1.3l-2.3,4.7l6.6,3.3c0.3,0.2,0.5,0.4,0.6,0.7c0,0.3,0,0.6-0.2,0.9c-0.2,0.3-0.4,0.5-0.6,0.7
			c-0.3,0.1-0.6,0.1-0.9,0L79.7,30.8z M90.8,19.7c-0.3-0.2-0.6-0.1-0.7,0.2l-2,4c-0.2,0.3-0.1,0.6,0.2,0.7l9.3,4.6
			c0.3,0.2,0.5,0.4,0.6,0.7c0,0.3,0,0.6-0.2,0.9s-0.4,0.5-0.6,0.7c-0.3,0.1-0.6,0.1-0.9,0l-10.7-5.3c-0.7-0.3-1.1-0.7-1.2-1.1
			c-0.1-0.4,0-0.9,0.3-1.6l3-6c0.3-0.7,0.7-1.1,1.1-1.2c0.4-0.1,0.9,0,1.6,0.3l10.5,5.2c0.3,0.2,0.5,0.4,0.6,0.7
			c0,0.3,0,0.6-0.2,0.9c-0.2,0.3-0.4,0.5-0.6,0.7c-0.3,0.1-0.6,0.1-0.9,0L90.8,19.7z"/>
	</g>
</g>
</svg>
