
<svg xmlns="http://www.w3.org/2000/svg" version="1.1" xmlns:xlink="http://www.w3.org/1999/xlink" preserveAspectRatio="none" x="0px" y="0px" width="1280px" height="390px" viewBox="0 0 1280 390">
<defs>
<g id="Layer0_0_FILL">
<path fill="#1E1E1E" stroke="none" d="
M 378.6 166.65
Q 379.5 167.55 380.8 167.55 382.05 167.55 382.95 166.65 383.8 165.75 383.8 164.45 383.8 163.15 382.95 162.3 382.05 161.4 380.8 161.4 379.5 161.4 378.6 162.3 377.7 163.15 377.7 164.45 377.7 165.75 378.6 166.65
M 342.9 134.25
Q 341.4 134.25 340.85 134.8 340.25 135.4 340.25 136.8
L 340.25 155.75
Q 340.25 157.2 340.95 157.75 341.65 158.35 343.15 158.45 344.8 158.55 347.2 158.45 349.6 158.4 352.15 158.15 354.7 157.95 357.05 157.6 359.45 157.2 361.05 156.75 361.25 156.65 361.45 156.5 361.6 156.4 361.55 155.95
L 361.1 153.6
Q 360.95 153 360.35 153.15 358.55 153.45 356.6 153.75 354.55 154 352.65 154.2 350.75 154.4 349 154.45 347.3 154.55 346.05 154.4 345.3 154.35 345.05 154.15 344.85 153.95 344.85 153.35
L 344.85 138.8
Q 344.85 138.1 345.55 138.1
L 357.45 138.1
Q 358 138.1 358 137.6
L 358 134.8
Q 358 134.25 357.45 134.25
L 342.9 134.25
M 374.15 146.4
Q 374.15 146.2 373.95 146.05 373.75 145.9 373.55 145.9
L 368.15 145.9 368.15 131.8
Q 368.15 131.25 367.6 131.25
L 364.05 131.25
Q 363.55 131.25 363.55 131.8
L 363.55 168.7
Q 363.55 169.25 364.05 169.25
L 367.6 169.25
Q 368.15 169.25 368.15 168.7
L 368.15 149.75 373.55 149.75
Q 373.75 149.75 373.95 149.6 374.15 149.4 374.15 149.2
L 374.15 146.4
M 325.05 155.7
L 324.55 153.5
Q 324.5 153.2 324.3 153 324.15 152.8 323.7 152.85 319.6 153.7 315.85 154 312.1 154.3 308.9 154.1 308.45 154.05 308.3 153.95 308.15 153.85 308.15 153.45
L 308.15 134.15
Q 308.15 133.95 307.95 133.75 307.75 133.6 307.55 133.6
L 304.1 133.6
Q 303.9 133.6 303.7 133.75 303.55 133.95 303.55 134.15
L 303.55 155
Q 303.55 156.35 304.2 157.15 304.9 157.95 306.45 158 308.65 158.15 311.05 158.1 313.5 158 315.85 157.85 318.2 157.65 320.4 157.35 322.6 157 324.35 156.55 324.7 156.45 324.9 156.2 325.15 156 325.05 155.7
M 332.2 131.8
Q 332.2 131.25 331.7 131.25
L 328.15 131.25
Q 327.6 131.25 327.6 131.8
L 327.6 168.7
Q 327.6 169.25 328.15 169.25
L 331.7 169.25
Q 332.2 169.25 332.2 168.7
L 332.2 131.8
M 268.3 154.15
Q 268.15 154.3 268.15 154.5
L 268.15 165.85
Q 268.15 167.4 268.8 168 269.4 168.6 271.15 168.6
L 289.7 168.6
Q 291.4 168.6 292.05 167.95 292.7 167.3 292.7 165.95
L 292.7 154.5
Q 292.7 154.3 292.55 154.15 292.35 153.95 292.2 153.95
L 288.6 153.95
Q 288.4 153.95 288.25 154.15 288.1 154.3 288.1 154.5
L 288.1 158.15 272.7 158.15 272.7 154.5
Q 272.7 154.3 272.55 154.15 272.35 154 272.2 154
L 268.65 154
Q 268.45 154 268.3 154.15
M 272.7 164.2
L 272.7 161.85 288.1 161.85 288.1 164.2
Q 288.1 164.85 287.35 164.85
L 273.5 164.85
Q 272.7 164.85 272.7 164.2
M 298.35 148.1
Q 298.35 147.9 298.15 147.7 298 147.55 297.75 147.55
L 263 147.55
Q 262.4 147.55 262.4 148.1
L 262.4 150.65
Q 262.4 151.3 263 151.3
L 297.75 151.3
Q 298 151.3 298.15 151.1 298.35 150.85 298.35 150.65
L 298.35 148.1
M 287.15 138.5
Q 285.45 137.5 284.2 136.2 282.95 134.95 282.35 133.45 282.4 133.1 282.45 132.75 282.45 132.35 282.5 132 282.5 131.45 281.9 131.45
L 278.85 131.35
Q 278.15 131.35 278.1 132 277.95 133.95 277 135.5 276.05 137.05 274.45 138.25 272.9 139.4 270.75 140.3 268.55 141.15 266 141.7 265.75 141.8 265.65 142 265.6 142.25 265.65 142.45
L 266.75 145
Q 266.9 145.4 267.8 145.2 272.05 144.4 275.3 142.55 278.6 140.7 280.5 138 281.4 139.3 282.9 140.5 284.35 141.65 286.1 142.6 287.8 143.55 289.65 144.15 291.45 144.75 293.1 144.95 293.5 145.05 293.7 144.85 293.95 144.7 294 144.5
L 295.2 142.15
Q 295.3 141.95 295.2 141.75 295.1 141.5 294.85 141.4 292.8 140.95 290.8 140.2 288.8 139.5 287.15 138.5
M 254.75 131.25
Q 254.15 131.25 254.15 131.8
L 254.15 141.7 250.75 141.7 250.75 132.4
Q 250.75 131.9 250.2 131.9
L 246.9 131.9
Q 246.35 131.9 246.35 132.4
L 246.35 153.15
Q 246.35 153.7 246.9 153.7
L 250.2 153.7
Q 250.75 153.7 250.75 153.15
L 250.75 145.55 254.15 145.55 254.15 153.85
Q 254.15 154.4 254.7 154.4
L 258.15 154.4
Q 258.7 154.4 258.7 153.85
L 258.7 131.8
Q 258.7 131.25 258.15 131.25
L 254.75 131.25
M 236.25 156.8
Q 236.25 158.55 235.85 159.8 235.5 161.1 234.7 162.15 233.85 163.2 232.6 164.15 231.35 165.05 229.65 166.05 229.2 166.25 229.2 166.55 229.2 166.85 229.35 167
L 230.8 169.1
Q 231.05 169.4 231.35 169.4 231.7 169.4 232 169.2 234.15 168.15 235.8 166.8 237.45 165.45 238.5 163.75 239.55 165.45 241.15 166.85 242.75 168.15 244.45 168.85 244.9 169.05 245.25 169.05 245.6 169.05 246.05 168.85 248.15 167.9 249.75 166.55 251.35 165.25 252.45 163.5 253.55 165.35 255.25 166.75 256.9 168.15 258.5 168.8 259.3 169.2 259.6 168.75
L 261.1 166.6
Q 261.3 166.4 261.25 166.1 261.2 165.85 260.85 165.65 259.8 165.15 258.8 164.45 257.75 163.8 256.9 162.9 256 162 255.35 160.9 254.65 159.8 254.3 158.45 254.45 157.65 254.45 156.65 254.45 156.4 254.25 156.3 254.1 156.2 253.85 156.2
L 250.75 156.2
Q 250.2 156.2 250.2 156.8 250.2 159.6 249.05 161.4 247.9 163.2 245.85 164.4 245.5 164.65 245.25 164.65 245.1 164.6 245 164.55 244.85 164.5 244.75 164.4 244.15 164.1 243.45 163.5 242.8 162.9 242.2 162.1 241.6 161.3 241.1 160.35 240.6 159.4 240.4 158.35 240.5 157.6 240.5 156.65 240.5 156.2 239.95 156.2
L 236.8 156.2
Q 236.25 156.2 236.25 156.8
M 229.8 143.8
Q 228.8 144.7 228.2 145.85 227.65 147 227.65 148.25 227.65 149.55 228.2 150.7 228.8 151.85 229.75 152.7 230.75 153.6 232.2 154.1 233.6 154.6 235.4 154.6 237.15 154.6 238.55 154.1 240 153.6 241 152.7 242.05 151.8 242.6 150.6 243.15 149.45 243.15 148.15 243.15 146.95 242.6 145.8 242.05 144.65 241 143.8 240 142.9 238.6 142.4 237.2 141.9 235.4 141.9 233.65 141.9 232.25 142.4 230.8 142.95 229.8 143.8
M 231.85 148.25
Q 231.85 147.1 232.8 146.2 233.75 145.35 235.4 145.35 237.1 145.35 238.05 146.2 238.95 147.1 238.95 148.25 238.95 149.4 238.05 150.3 237.1 151.2 235.4 151.2 233.75 151.2 232.8 150.3 231.85 149.4 231.85 148.25
M 226.25 140.4
Q 226.45 140.6 226.65 140.6
L 243.8 140.6
Q 244 140.6 244.2 140.45 244.35 140.25 244.35 140.05
L 244.35 137.8
Q 244.35 137.55 244.2 137.35 244 137.2 243.8 137.2
L 226.7 137.2
Q 226.5 137.2 226.25 137.35 226 137.6 226 137.8
L 226 140
Q 226 140.2 226.25 140.4
M 240.4 132.7
Q 240.4 132.45 240.15 132.25 239.95 132.05 239.75 132.05
L 231.15 132.05
Q 230.95 132.05 230.75 132.2 230.55 132.35 230.55 132.65
L 230.55 134.9
Q 230.55 135.2 230.75 135.4 230.95 135.55 231.15 135.55
L 239.75 135.55
Q 240 135.55 240.2 135.35 240.4 135.15 240.4 134.85
L 240.4 132.7
M 1170.2 98.05
Q 1170 98.05 1169.8 98.25 1169.65 98.4 1169.65 98.6
L 1169.65 101.15
Q 1169.65 101.35 1169.8 101.45 1170 101.65 1170.2 101.65
L 1189.1 101.65
Q 1189.5 101.65 1189.55 101.7 1189.65 101.8 1189.65 102.2
L 1189.65 103.35
Q 1189.65 103.7 1189.55 103.75 1189.5 103.8 1189.15 103.8
L 1172.35 103.8
Q 1170.8 103.8 1170.25 104.4 1169.7 104.95 1169.7 106.2
L 1169.7 110.5
Q 1169.7 111.8 1170.3 112.35 1170.85 112.9 1172.4 112.9
L 1194.45 112.9
Q 1194.6 112.9 1194.75 112.7 1194.95 112.55 1194.95 112.35
L 1194.95 109.9
Q 1194.95 109.65 1194.75 109.5 1194.6 109.4 1194.4 109.4
L 1174.8 109.4
Q 1174.4 109.4 1174.3 109.3 1174.2 109.25 1174.2 108.85
L 1174.2 107.65
Q 1174.2 107.3 1174.3 107.2 1174.4 107.1 1174.7 107.1
L 1191.4 107.1
Q 1193.05 107.1 1193.6 106.65 1194.1 106.15 1194.1 104.75
L 1194.1 100.4
Q 1194.1 99.05 1193.6 98.55 1193.05 98.05 1191.4 98.05
L 1170.2 98.05
M 1163.9 92.7
L 1163.9 95.15
Q 1163.9 95.4 1164.05 95.55 1164.2 95.75 1164.5 95.75
L 1199.25 95.75
Q 1199.5 95.75 1199.65 95.55 1199.85 95.35 1199.85 95.15
L 1199.85 92.7
Q 1199.85 92.5 1199.65 92.35 1199.5 92.15 1199.25 92.15
L 1164.5 92.15
Q 1163.9 92.15 1163.9 92.7
M 1170.55 75.05
Q 1170.35 75.05 1170.15 75.2 1170 75.4 1170 75.55
L 1170 78.1
Q 1170 78.3 1170.15 78.45 1170.35 78.6 1170.55 78.6
L 1189.05 78.6
Q 1189.45 78.6 1189.5 78.65 1189.6 78.7 1189.6 79.05
L 1189.6 80.25
Q 1189.6 80.65 1189.5 80.75 1189.45 80.85 1189.1 80.85
L 1172.45 80.85
Q 1170.9 80.85 1170.4 81.4 1169.85 82 1169.85 83.25
L 1169.85 87.4
Q 1169.85 88.65 1170.4 89.2 1170.95 89.75 1172.5 89.75
L 1194.2 89.75
Q 1194.35 89.75 1194.55 89.6 1194.7 89.4 1194.7 89.2
L 1194.7 86.75
Q 1194.7 86.5 1194.55 86.35 1194.35 86.2 1194.15 86.2
L 1174.9 86.2
Q 1174.5 86.2 1174.45 86.15 1174.35 86.1 1174.35 85.75
L 1174.35 84.65
Q 1174.35 84.35 1174.45 84.25 1174.5 84.15 1174.85 84.15
L 1191.35 84.15
Q 1193 84.15 1193.5 83.65 1194.05 83.2 1194.05 81.8
L 1194.05 77.45
Q 1194.05 76.05 1193.5 75.55 1193 75.05 1191.35 75.05
L 1170.55 75.05
M 1158 75.25
L 1154.45 75.25
Q 1153.9 75.25 1153.9 75.8
L 1153.9 112.7
Q 1153.9 113.25 1154.45 113.25
L 1158 113.25
Q 1158.5 113.25 1158.5 112.7
L 1158.5 75.8
Q 1158.5 75.25 1158 75.25
M 1147.7 81.25
Q 1147.85 79.75 1147.25 79 1146.7 78.25 1144.9 78.25
L 1130.6 78.25
Q 1130 78.25 1130 78.75
L 1130 81.55
Q 1130 82.1 1130.6 82.1
L 1141.9 82.1
Q 1142.65 82.1 1142.85 82.35 1143.1 82.6 1142.95 83.4 1141.9 88.9 1138.3 93.5 1134.7 98.1 1128.75 101.65 1128.5 101.8 1128.4 102.1 1128.3 102.4 1128.5 102.7
L 1129.85 104.85
Q 1130.05 105.15 1130.45 105.2 1130.8 105.25 1131.15 105.05 1134.65 102.95 1137.6 100.45 1140.5 97.95 1142.65 95 1144.8 92 1146.1 88.6 1147.4 85.15 1147.7 81.25
M 1120.55 75.8
Q 1120.55 75.25 1120.05 75.25
L 1116.45 75.25
Q 1115.95 75.25 1115.95 75.8
L 1115.95 94.85
Q 1115.95 95.45 1116.45 95.45
L 1120.05 95.45
Q 1120.55 95.45 1120.55 94.9
L 1120.55 75.8
M 1101.8 97.95
Q 1101.8 97.8 1101.6 97.65 1101.45 97.5 1101.25 97.5
L 1097.7 97.5
Q 1097.5 97.5 1097.35 97.65 1097.2 97.8 1097.2 97.95
L 1097.2 109.85
Q 1097.2 111.4 1097.85 112 1098.5 112.6 1100.25 112.6
L 1117.55 112.6
Q 1119.3 112.6 1119.9 111.95 1120.55 111.3 1120.55 109.95
L 1120.55 97.8
Q 1120.55 97.6 1120.4 97.45 1120.25 97.3 1120.05 97.3
L 1116.45 97.3
Q 1116.25 97.3 1116.1 97.45 1115.95 97.6 1115.95 97.8
L 1115.95 101.65 1101.8 101.65 1101.8 97.95
M 1115.95 105.4
L 1115.95 108.2
Q 1115.95 108.85 1115.25 108.85
L 1102.55 108.85
Q 1101.8 108.85 1101.8 108.2
L 1101.8 105.4 1115.95 105.4
M 1092.95 76.95
Q 1092.4 76.95 1092.4 77.45
L 1092.4 80.05
Q 1092.4 80.3 1092.5 80.5 1092.7 80.7 1092.9 80.7
L 1102.8 80.7
Q 1103.45 80.7 1103.5 81 1103.5 81.25 1103.3 81.65 1102.55 83.15 1101.3 84.6 1100.05 86 1098.45 87.4 1096.85 88.75 1094.9 89.95 1093 91.2 1090.9 92.2 1090.55 92.45 1090.45 92.8 1090.35 93.15 1090.55 93.45
L 1091.7 95.4
Q 1091.95 95.85 1092.35 95.85 1092.75 95.85 1093 95.7 1095.65 94.45 1098.2 92.75 1100.8 91 1102.95 89 1103.8 89.75 1104.8 90.55 1105.8 91.35 1106.8 92.1 1107.8 92.8 1108.7 93.35 1109.65 93.9 1110.3 94.2 1110.75 94.4 1111 94.35 1111.25 94.3 1111.45 94.05
L 1112.85 91.85
Q 1113.25 91.15 1112.4 90.7 1111.65 90.35 1110.8 89.85 1109.9 89.3 1109 88.7 1108.1 88.1 1107.25 87.45 1106.4 86.75 1105.65 86.05 1106.6 84.9 1107.35 83.7 1108.05 82.55 1108.6 81.3 1108.75 80.95 1108.85 80.45 1109 80 1109.05 79.55 1109.3 78.25 1108.4 77.6 1107.55 76.95 1105.8 76.95
L 1092.95 76.95
M 1078.9 75.4
Q 1078.7 75.55 1078.7 75.8
L 1078.7 112.7
Q 1078.7 112.95 1078.9 113.05 1079.05 113.25 1079.3 113.25
L 1082.8 113.25
Q 1083.35 113.25 1083.35 112.7
L 1083.35 75.8
Q 1083.35 75.25 1082.8 75.25
L 1079.3 75.25
Q 1079.05 75.25 1078.9 75.4
M 1070.65 95.9
Q 1067.7 96.15 1064.55 96.25 1061.4 96.35 1058.3 96.4 1055.1 96.4 1052.25 96.35 1051.7 96.35 1051.7 96.9
L 1051.7 99.65
Q 1051.7 99.9 1051.85 100.1 1052 100.25 1052.25 100.25 1054.5 100.3 1057.05 100.25 1059.55 100.2 1062.15 100.15
L 1062.15 111.35
Q 1062.15 111.65 1062.35 111.8 1062.55 112 1062.8 112
L 1066.05 112
Q 1066.3 112 1066.5 111.8 1066.7 111.65 1066.7 111.35
L 1066.7 99.95
Q 1069.5 99.75 1072.05 99.55 1074.65 99.35 1076.6 99.05 1076.8 99 1076.95 98.8 1077.15 98.65 1077.1 98.35
L 1076.85 95.8
Q 1076.85 95.45 1076.55 95.4 1076.3 95.35 1076.1 95.4 1073.65 95.7 1070.65 95.9
M 1072.1 81.7
Q 1072.35 81.7 1072.55 81.55 1072.7 81.35 1072.7 81.2
L 1072.7 78.4
Q 1072.7 78.25 1072.55 78.05 1072.35 77.9 1072.1 77.9
L 1057.5 77.9
Q 1056 77.9 1055.3 78.45 1054.65 79 1054.65 80.5
L 1054.65 89.85
Q 1054.65 91.25 1055.25 92 1055.9 92.7 1057.5 92.7
L 1072.5 92.7
Q 1073.05 92.7 1073.05 92.1
L 1073.05 89.4
Q 1073.05 89.1 1072.85 89 1072.65 88.9 1072.35 88.9
L 1060 88.9
Q 1059.55 88.9 1059.4 88.7 1059.3 88.55 1059.3 88.25
L 1059.3 82.4
Q 1059.3 81.7 1060 81.7
L 1072.1 81.7
M 1007.9 77.2
Q 1007.65 77.2 1007.5 77.4 1007.35 77.55 1007.35 77.75
L 1007.35 80.4
Q 1007.35 80.6 1007.5 80.8 1007.65 81 1007.9 81
L 1026.7 81
Q 1027.1 81 1027.2 81.05 1027.3 81.1 1027.3 81.55
L 1027.3 84.65
Q 1027.3 85.1 1027.2 85.2 1027.1 85.3 1026.7 85.3
L 1010.05 85.3
Q 1009.2 85.3 1008.6 85.4 1008.05 85.5 1007.75 85.8 1007.45 86.1 1007.3 86.6 1007.2 87.1 1007.2 87.9
L 1007.2 94.35
Q 1007.2 95.15 1007.3 95.65 1007.45 96.15 1007.75 96.45 1008.05 96.8 1008.6 96.9 1009.2 97 1010.05 97
L 1017.25 97 1017.25 102.95 1002.1 102.95
Q 1001.8 102.95 1001.65 103.2 1001.5 103.4 1001.5 103.6
L 1001.5 106.15
Q 1001.5 106.35 1001.65 106.55 1001.8 106.75 1002.1 106.75
L 1036.9 106.75
Q 1037.1 106.75 1037.3 106.55 1037.5 106.35 1037.5 106.15
L 1037.5 103.6
Q 1037.5 103.4 1037.3 103.2 1037.1 102.95 1036.9 102.95
L 1021.8 102.95 1021.8 97 1032.1 97
Q 1032.25 97 1032.45 96.85 1032.65 96.7 1032.65 96.5
L 1032.65 93.8
Q 1032.65 93.6 1032.45 93.5 1032.3 93.35 1032.1 93.35
L 1012.25 93.35
Q 1011.85 93.35 1011.75 93.25 1011.65 93.15 1011.65 92.7
L 1011.65 89.55
Q 1011.65 89.15 1011.75 89.05 1011.8 89 1012.25 89
L 1028.9 89
Q 1030.6 89 1031.2 88.45 1031.8 87.9 1031.8 86.35
L 1031.8 79.85
Q 1031.8 78.3 1031.2 77.75 1030.6 77.2 1028.9 77.2
L 1007.9 77.2
M 999.9 105.85
L 999.9 103.25
Q 999.9 103 999.7 102.8 999.5 102.6 999.3 102.6
L 964.5 102.6
Q 964.2 102.6 964.05 102.8 963.9 102.95 963.9 103.25
L 963.9 105.85
Q 963.9 106.05 964.05 106.25 964.2 106.45 964.5 106.45
L 999.3 106.45
Q 999.5 106.45 999.7 106.25 999.9 106.05 999.9 105.85
M 991.3 80.25
Q 989.5 79.05 987.1 78.4 984.7 77.8 981.9 77.8 979.1 77.8 976.7 78.4 974.3 79.05 972.55 80.25 970.8 81.45 969.8 83.15 968.8 84.85 968.8 86.9 968.8 89 969.8 90.65 970.8 92.35 972.55 93.55 974.3 94.75 976.7 95.4 979.1 96 981.9 96 984.7 96 987.1 95.4 989.5 94.75 991.3 93.55 993.05 92.35 994 90.65 995 89 995 86.9 995 84.85 994 83.15 993.05 81.45 991.3 80.25
M 985.1 81.95
Q 986.65 82.35 987.8 83.05 988.9 83.75 989.6 84.7 990.25 85.7 990.25 86.9 990.25 88.1 989.6 89.1 988.9 90.1 987.8 90.8 986.65 91.5 985.1 91.9 983.6 92.25 981.9 92.25 980.25 92.25 978.7 91.9 977.2 91.5 976.05 90.8 974.9 90.1 974.2 89.1 973.55 88.1 973.55 86.9 973.55 85.7 974.2 84.7 974.9 83.75 976.05 83.05 977.2 82.35 978.7 81.95 980.25 81.6 981.9 81.6 983.6 81.6 985.1 81.95
M 952 104.7
Q 952.15 104.85 952.15 105.2
L 952.15 112.7
Q 952.15 112.9 952.35 113.05 952.5 113.25 952.75 113.25
L 956.2 113.25
Q 956.4 113.25 956.55 113.05 956.75 112.9 956.75 112.7
L 956.75 103.5
Q 956.75 102 956.2 101.35 955.65 100.75 954.1 100.75
L 931.6 100.75
Q 931.4 100.75 931.2 100.85 931 101 931 101.2
L 931 104.1
Q 931 104.3 931.2 104.45 931.4 104.6 931.6 104.6
L 951.4 104.6
Q 951.85 104.6 952 104.7
M 926.9 94.1
Q 926.6 94.1 926.45 94.3 926.3 94.45 926.3 94.7
L 926.3 97.2
Q 926.3 97.45 926.45 97.65 926.6 97.85 926.9 97.85
L 961.65 97.85
Q 961.9 97.85 962.05 97.65 962.25 97.45 962.25 97.2
L 962.25 94.7
Q 962.25 94.5 962.05 94.3 961.9 94.1 961.65 94.1
L 946.55 94.1 946.55 91.15
Q 946.55 90.55 946 90.55
L 942.55 90.55
Q 942 90.55 942 91.15
L 942 94.1 926.9 94.1
M 931.2 76.35
Q 931 76.5 931 76.75
L 931 79.05
Q 931 79.25 931.2 79.45 931.35 79.6 931.6 79.6
L 937.3 79.6
Q 937.8 79.6 937.85 79.75 937.85 79.9 937.7 80.2 937.2 80.95 936.25 81.7 935.3 82.5 934.1 83.3 932.9 84.05 931.5 84.75 930.1 85.45 928.75 86 928.5 86.1 928.3 86.3 928.15 86.55 928.3 86.8
L 929.55 88.85
Q 929.75 89.15 930 89.15 930.3 89.15 930.65 89.05 933.05 88.1 935.3 86.8 937.5 85.5 939.3 84 940.05 84.65 941 85.3 941.9 85.9 942.85 86.4 942.6 86.55 942.35 86.65 942.05 86.75 941.85 86.85 941.25 87.15 941.6 87.8
L 942.9 89.65
Q 943.1 89.9 943.4 89.85 943.75 89.85 944.05 89.7 946.25 88.8 948.2 87.55 950.2 86.25 951.8 84.85 952.45 85.4 953.4 86 954.3 86.65 955.3 87.1 956.25 87.6 957.15 88 958.1 88.4 958.85 88.6 959.6 88.8 959.8 88.4
L 960.85 86.1
Q 961.05 85.7 960.65 85.4 959.95 85.2 959.05 84.85 958.2 84.5 957.3 84.1 956.45 83.65 955.65 83.2 954.85 82.7 954.2 82.25 954.8 81.5 955.2 80.8 955.65 80.1 955.9 79.4 956.05 79.05 956.15 78.7 956.25 78.35 956.25 77.95 956.25 77.15 955.55 76.7 954.8 76.2 953.25 76.2
L 945.05 76.2
Q 944.85 76.2 944.65 76.35 944.5 76.5 944.5 76.75
L 944.5 79.05
Q 944.5 79.25 944.65 79.45 944.8 79.6 945 79.6
L 950.45 79.6
Q 950.8 79.6 950.85 79.7 950.9 79.75 950.7 80.15 950.25 81.1 949.1 82.2 947.95 83.3 946.45 84.35 945.35 83.8 944 83 942.7 82.15 941.75 81.35 942.5 80.35 942.85 79.4 942.95 79.05 943.05 78.7 943.15 78.35 943.15 77.95 943.15 77.15 942.45 76.7 941.7 76.2 940.2 76.2
L 931.6 76.2
Q 931.4 76.2 931.2 76.35
M 802.9 106.35
Q 802.9 106.1 802.4 106.1
L 798.5 106.1
Q 798.05 106.1 797.9 106.3 797.75 106.55 797.65 106.75
L 795.7 114.05
Q 795.6 114.25 795.75 114.4 795.85 114.55 796.05 114.55
L 799.25 114.55
Q 799.5 114.55 799.8 114.45 800 114.35 800.15 114.05
L 802.9 106.85
Q 802.95 106.65 802.9 106.35
M 775.2 91.5
Q 775.2 90.9 774.65 90.9
L 771.15 90.9
Q 770.6 90.9 770.6 91.5
L 770.6 102.6 757.2 102.6
Q 756.9 102.6 756.75 102.8 756.6 102.95 756.6 103.25
L 756.6 105.85
Q 756.6 106.05 756.75 106.25 756.9 106.45 757.2 106.45
L 792 106.45
Q 792.2 106.45 792.4 106.25 792.6 106.05 792.6 105.85
L 792.6 103.25
Q 792.6 103 792.4 102.8 792.2 102.6 792 102.6
L 775.2 102.6 775.2 91.5
M 762.65 78
Q 762.45 78 762.25 78.15 762.05 78.25 762.05 78.5
L 762.05 81.35
Q 762.05 81.6 762.25 81.7 762.45 81.85 762.65 81.85
L 782.35 81.85
Q 782.9 81.85 783.15 82 783.4 82.15 783.4 82.7 783.4 84.35 783.35 86.35 783.25 88.35 783.1 90.4 783 92.45 782.75 94.4 782.55 96.35 782.25 97.8 782.2 98.15 782.3 98.4 782.4 98.6 782.75 98.65
L 785.9 98.95
Q 786.2 99 786.4 98.75 786.55 98.5 786.65 98.2 787.25 95.2 787.65 90.75 788 86.25 788 80.85 788 79.4 787.3 78.7 786.6 78 785.3 78
L 762.65 78
M 739.85 80.9
Q 739.85 79.45 739.35 78.8 738.85 78.2 737.15 78.2
L 723.2 78.2
Q 723 78.2 722.85 78.35 722.65 78.45 722.65 78.65
L 722.65 81.4
Q 722.65 81.65 722.85 81.8 723 81.95 723.2 81.95
L 734.75 81.95
Q 735.15 81.95 735.2 82.05 735.3 82.15 735.3 82.5
L 735.3 88.1
Q 735.3 88.5 735.15 88.6 735.05 88.7 734.75 88.7
L 725.2 88.7
Q 723.8 88.7 723.1 89.35 722.4 90 722.4 91.4
L 722.4 101
Q 722.4 102.55 723.05 103.15 723.75 103.75 725.5 103.9 726.4 104 727.7 104 729.05 104 730.65 103.95 732.25 103.9 733.95 103.8 735.7 103.65 737.35 103.5 739.05 103.35 740.55 103.1 742.05 102.9 743.2 102.6 743.5 102.55 743.8 102.35 744 102.15 743.95 101.85
L 743.55 99.45
Q 743.5 99.1 743.25 98.95 743 98.8 742.7 98.9 741.05 99.2 739.2 99.45 737.35 99.7 735.4 99.85 733.4 100 731.45 100.05 729.55 100.1 727.75 100.05 727.35 100.05 727.2 99.9 727 99.75 727 99.3
L 727 92.95
Q 727 92.45 727.55 92.45
L 737.05 92.45
Q 738.6 92.45 739.25 91.85 739.85 91.3 739.85 89.75
L 739.85 80.9
M 747.15 75.25
Q 746.6 75.25 746.6 75.8
L 746.6 112.7
Q 746.6 113.25 747.15 113.25
L 750.7 113.25
Q 751.2 113.25 751.2 112.7
L 751.2 75.8
Q 751.2 75.25 750.7 75.25
L 747.15 75.25
M 687.2 97.4
Q 687 97.55 687 97.75
L 687 100.4
Q 687 100.6 687.2 100.75 687.35 100.9 687.55 100.9
L 706.65 100.9
Q 707 100.9 707.1 101 707.15 101.1 707.15 101.55
L 707.15 102.75
Q 707.15 103.1 707.1 103.15 707 103.25 706.7 103.25
L 689.75 103.25
Q 688.15 103.25 687.6 103.8 687.1 104.4 687.1 105.65
L 687.1 110.35
Q 687.1 111.65 687.65 112.15 688.2 112.75 689.75 112.75
L 712.1 112.75
Q 712.25 112.75 712.45 112.55 712.6 112.4 712.6 112.15
L 712.6 109.6
Q 712.6 109.3 712.45 109.15 712.25 109.05 712.05 109.05
L 692.15 109.05
Q 691.75 109.05 691.7 108.95 691.6 108.9 691.6 108.55
L 691.6 107.15
Q 691.6 106.8 691.7 106.7 691.75 106.65 692.1 106.65
L 708.95 106.65
Q 710.6 106.65 711.15 106.15 711.7 105.65 711.7 104.25
L 711.7 99.6
Q 711.7 98.25 711.15 97.7 710.6 97.2 708.95 97.2
L 687.55 97.2
Q 687.35 97.2 687.2 97.4
M 687.2 78.15
L 687.2 84.55
Q 687.2 85.95 687.85 86.7 688.5 87.45 690.1 87.45
L 697.1 87.45 697.1 91 682 91
Q 681.7 91 681.55 91.15 681.4 91.35 681.4 91.6
L 681.4 94.15
Q 681.4 94.4 681.55 94.55 681.7 94.75 682 94.75
L 716.75 94.75
Q 717 94.75 717.15 94.55 717.35 94.35 717.35 94.15
L 717.35 91.6
Q 717.35 91.35 717.15 91.2 717 91 716.75 91
L 701.7 91 701.7 87.45 711.5 87.45
Q 711.7 87.45 711.8 87.25 712 87.15 712 86.8
L 712 84.2
Q 712 83.85 711.8 83.8 711.65 83.7 711.35 83.7
L 692.6 83.7
Q 692.15 83.7 692 83.5 691.85 83.35 691.85 83
L 691.85 79.95
Q 691.85 79.25 692.6 79.25
L 711.15 79.25
Q 711.7 79.25 711.7 78.7
L 711.7 76.05
Q 711.7 75.55 711.15 75.55
L 690.1 75.55
Q 688.6 75.55 687.9 76.1 687.2 76.65 687.2 78.15
M 662.05 109.75
L 662.05 102
Q 662.05 100.4 661.4 99.75 660.8 99.15 659 99.15
L 640.5 99.15
Q 639 99.15 638.25 99.8 637.5 100.45 637.5 102
L 637.5 109.75
Q 637.5 111.3 638.1 111.9 638.75 112.55 640.5 112.55
L 659 112.55
Q 660.5 112.55 661.25 111.9 662.05 111.25 662.05 109.75
M 657.45 103.65
L 657.45 108.2
Q 657.45 108.55 657.35 108.6 657.25 108.7 656.9 108.7
L 642.6 108.7
Q 642.3 108.7 642.2 108.6 642.1 108.55 642.1 108.2
L 642.1 103.6
Q 642.1 103.25 642.2 103.1 642.3 102.95 642.6 102.95
L 656.9 102.95
Q 657.45 102.95 657.45 103.65
M 662.8 78.9
Q 662.8 77.45 662.1 76.75 661.45 76.1 660.15 76.1
L 638.2 76.1
Q 637.95 76.1 637.75 76.2 637.55 76.35 637.55 76.6
L 637.55 79.3
Q 637.55 79.5 637.75 79.65 637.95 79.75 638.2 79.75
L 657.25 79.75
Q 657.8 79.75 658.05 79.95 658.35 80.05 658.35 80.6 658.35 81.3 658.3 81.95 658.3 82.6 658.25 83.4 656.4 83.5 654 83.55 651.6 83.6 649 83.6 646.3 83.6 643.55 83.65 640.8 83.65 638.25 83.65 637.75 83.65 637.75 84.2
L 637.75 86.7
Q 637.75 86.95 637.9 87.15 638.05 87.35 638.25 87.35 640.75 87.35 643.3 87.35 645.9 87.3 648.45 87.25 650.95 87.2 653.4 87.15 655.85 87.05 658 86.95 657.9 88.25 657.75 89.35 657.6 90.5 657.4 91.4
L 632.4 91.4
Q 632.1 91.4 631.95 91.6 631.8 91.8 631.8 92
L 631.8 94.6
Q 631.8 94.85 631.95 95.05 632.1 95.2 632.4 95.2
L 667.2 95.2
Q 667.4 95.2 667.6 95.05 667.8 94.85 667.8 94.6
L 667.8 92
Q 667.8 91.8 667.6 91.65 667.4 91.4 667.2 91.4
L 661.65 91.4
Q 661.95 89.95 662.15 88.2 662.4 86.4 662.55 84.65 662.7 82.95 662.75 81.4 662.8 79.85 662.8 78.9
M 626.3 112.05
L 626.3 109.2
Q 626.3 109.05 626.1 108.85 625.95 108.7 625.75 108.7
L 606.85 108.7
Q 606.45 108.7 606.3 108.6 606.15 108.45 606.15 108.05
L 606.15 100.9
Q 606.15 100.7 605.95 100.5 605.75 100.35 605.55 100.35
L 602.1 100.35
Q 601.9 100.35 601.7 100.5 601.55 100.7 601.55 100.9
L 601.55 109.7
Q 601.55 111.25 602.15 111.9 602.75 112.55 604.55 112.55
L 625.75 112.55
Q 625.95 112.55 626.1 112.45 626.3 112.3 626.3 112.05
M 624.75 75.8
Q 624.75 75.25 624.2 75.25
L 620.65 75.25
Q 620.15 75.25 620.15 75.8
L 620.15 101.7
Q 620.15 102.2 620.65 102.2
L 624.2 102.2
Q 624.75 102.2 624.75 101.7
L 624.75 91.15 630.15 91.15
Q 630.35 91.15 630.55 91 630.75 90.85 630.75 90.6
L 630.75 87.8
Q 630.75 87.6 630.55 87.45 630.35 87.3 630.15 87.3
L 624.75 87.3 624.75 75.8
M 600.1 77.3
Q 598.55 77.3 597.95 77.9 597.35 78.45 597.35 80
L 597.35 93.2
Q 597.35 94.7 598 95.3 598.7 95.9 600.1 95.9
L 612.1 95.9
Q 613.6 95.9 614.25 95.3 614.85 94.7 614.85 93.2
L 614.85 80.05
Q 614.85 78.5 614.25 77.9 613.6 77.3 612.1 77.3
L 600.1 77.3
M 601.9 81.55
Q 601.9 81.2 602 81.15 602.1 81.05 602.4 81.05
L 609.8 81.05
Q 610.1 81.05 610.2 81.15 610.3 81.25 610.3 81.6
L 610.3 91.65
Q 610.3 92 610.2 92.05 610.1 92.15 609.8 92.15
L 602.4 92.15
Q 602.1 92.15 602 92.05 601.9 92 601.9 91.65
L 601.9 81.55
M 586.15 77.75
Q 585.3 78.15 584.65 78.8 584 79.4 583.6 80.3 583.25 81.2 583.25 82.15 583.25 83.2 583.6 84.05 584 84.95 584.65 85.55 585.3 86.2 586.15 86.6 587.05 87 588.05 87 589.05 87 589.95 86.6 590.8 86.2 591.45 85.55 592.1 84.95 592.45 84.05 592.85 83.2 592.85 82.15 592.85 81.2 592.45 80.3 592.1 79.4 591.45 78.8 590.8 78.15 589.95 77.75 589.05 77.4 588.05 77.4 587.05 77.4 586.15 77.75
M 585.95 82.15
Q 585.95 81.35 586.6 80.7 587.2 80.05 588.05 80.05 588.9 80.05 589.5 80.7 590.15 81.35 590.15 82.15 590.15 83 589.5 83.65 588.9 84.3 588.05 84.3 587.2 84.3 586.6 83.65 585.95 83 585.95 82.15
M 431.05 85.8
Q 430.75 86.1 430.6 86.6 430.5 87.1 430.5 87.9
L 430.5 94.35
Q 430.5 95.15 430.6 95.65 430.75 96.15 431.05 96.45 431.35 96.8 431.9 96.9 432.5 97 433.35 97
L 440.55 97 440.55 102.95 425.4 102.95
Q 425.1 102.95 424.95 103.2 424.8 103.4 424.8 103.6
L 424.8 106.15
Q 424.8 106.35 424.95 106.55 425.1 106.75 425.4 106.75
L 460.2 106.75
Q 460.4 106.75 460.6 106.55 460.8 106.35 460.8 106.15
L 460.8 103.6
Q 460.8 103.4 460.6 103.2 460.4 102.95 460.2 102.95
L 445.1 102.95 445.1 97 455.4 97
Q 455.55 97 455.75 96.85 455.95 96.7 455.95 96.5
L 455.95 93.8
Q 455.95 93.6 455.75 93.5 455.6 93.35 455.4 93.35
L 435.55 93.35
Q 435.15 93.35 435.05 93.25 434.95 93.15 434.95 92.7
L 434.95 89.55
Q 434.95 89.15 435.05 89.05 435.1 89 435.55 89
L 452.2 89
Q 453.9 89 454.5 88.45 455.1 87.9 455.1 86.35
L 455.1 79.85
Q 455.1 78.3 454.5 77.75 453.9 77.2 452.2 77.2
L 431.2 77.2
Q 430.95 77.2 430.8 77.4 430.65 77.55 430.65 77.75
L 430.65 80.4
Q 430.65 80.6 430.8 80.8 430.95 81 431.2 81
L 450 81
Q 450.4 81 450.5 81.05 450.6 81.1 450.6 81.55
L 450.6 84.65
Q 450.6 85.1 450.5 85.2 450.4 85.3 450 85.3
L 433.35 85.3
Q 432.5 85.3 431.9 85.4 431.35 85.5 431.05 85.8
M 387.8 102.6
Q 387.5 102.6 387.35 102.8 387.2 102.95 387.2 103.25
L 387.2 105.85
Q 387.2 106.05 387.35 106.25 387.5 106.45 387.8 106.45
L 422.6 106.45
Q 422.8 106.45 423 106.25 423.2 106.05 423.2 105.85
L 423.2 103.25
Q 423.2 103 423 102.8 422.8 102.6 422.6 102.6
L 387.8 102.6
M 414.6 80.25
Q 412.8 79.05 410.4 78.4 408 77.8 405.2 77.8 402.4 77.8 400 78.4 397.6 79.05 395.85 80.25 394.1 81.45 393.1 83.15 392.1 84.85 392.1 86.9 392.1 89 393.1 90.65 394.1 92.35 395.85 93.55 397.6 94.75 400 95.4 402.4 96 405.2 96 408 96 410.4 95.4 412.8 94.75 414.6 93.55 416.35 92.35 417.3 90.65 418.3 89 418.3 86.9 418.3 84.85 417.3 83.15 416.35 81.45 414.6 80.25
M 405.2 81.6
Q 406.9 81.6 408.4 81.95 409.95 82.35 411.1 83.05 412.2 83.75 412.9 84.7 413.55 85.7 413.55 86.9 413.55 88.1 412.9 89.1 412.2 90.1 411.1 90.8 409.95 91.5 408.4 91.9 406.9 92.25 405.2 92.25 403.55 92.25 402 91.9 400.5 91.5 399.35 90.8 398.2 90.1 397.5 89.1 396.85 88.1 396.85 86.9 396.85 85.7 397.5 84.7 398.2 83.75 399.35 83.05 400.5 82.35 402 81.95 403.55 81.6 405.2 81.6
M 380.55 106.4
Q 380.55 104.95 379.65 103.75 378.75 102.55 377.15 101.65 375.55 100.8 373.35 100.3 371.15 99.85 368.6 99.85 365.85 99.85 363.65 100.3 361.45 100.8 359.9 101.65 358.35 102.55 357.55 103.75 356.7 104.95 356.7 106.4 356.7 107.9 357.55 109.15 358.35 110.4 359.9 111.25 361.45 112.15 363.65 112.6 365.85 113.1 368.6 113.1 371.15 113.1 373.35 112.6 375.55 112.15 377.15 111.25 378.75 110.4 379.65 109.15 380.55 107.9 380.55 106.4
M 375.8 106.55
Q 375.8 107.35 375.25 107.9 374.65 108.45 373.65 108.85 372.65 109.25 371.35 109.45 370.05 109.6 368.6 109.6 365.45 109.6 363.5 108.85 361.5 108.1 361.5 106.55 361.5 104.9 363.45 104.1 365.35 103.25 368.6 103.25 370.05 103.25 371.35 103.45 372.65 103.65 373.65 104.1 374.65 104.5 375.25 105.1 375.8 105.75 375.8 106.55
M 380.2 83
L 380.2 75.8
Q 380.2 75.25 379.65 75.25
L 376.1 75.25
Q 375.55 75.25 375.55 75.8
L 375.55 98.6
Q 375.55 99.2 376.1 99.2
L 379.65 99.2
Q 380.2 99.2 380.2 98.65
L 380.2 94.2 385.55 94.2
Q 385.8 94.2 386 94.05 386.15 93.85 386.15 93.65
L 386.15 90.85
Q 386.15 90.6 386 90.45 385.8 90.35 385.55 90.35
L 380.2 90.35 380.2 86.8 385.55 86.8
Q 385.8 86.8 386 86.65 386.15 86.5 386.15 86.3
L 386.15 83.5
Q 386.15 83.3 386 83.15 385.8 83 385.55 83
L 380.2 83
M 351.1 80.6
Q 350.85 80.6 350.65 80.85 350.4 81.05 350.4 81.25
L 350.4 83.5
Q 350.4 83.75 350.6 83.95 350.8 84.15 351.05 84.15
L 372.5 84.15
Q 372.75 84.15 372.9 83.95 373.1 83.8 373.1 83.55
L 373.1 81.25
Q 373.1 81 372.9 80.85 372.75 80.6 372.5 80.6
L 351.1 80.6
M 362.1 85.3
Q 360.3 85.3 358.7 85.8 357.15 86.25 356 87.1 354.8 87.95 354.15 89.2 353.5 90.45 353.5 91.95 353.5 93.45 354.15 94.7 354.8 95.95 356 96.8 357.15 97.65 358.7 98.15 360.25 98.6 362.05 98.6 363.9 98.6 365.45 98.15 367.05 97.65 368.25 96.8 369.4 95.95 370.05 94.7 370.75 93.45 370.75 91.95 370.75 90.45 370.05 89.2 369.4 87.95 368.25 87.1 367.1 86.25 365.5 85.8 363.95 85.3 362.1 85.3
M 362.1 95.15
Q 360.3 95.15 359.05 94.3 357.8 93.4 357.8 91.95 357.8 90.5 359.05 89.65 360.3 88.8 362.1 88.8 363.95 88.8 365.15 89.65 366.35 90.5 366.35 91.95 366.35 93.4 365.15 94.3 363.95 95.15 362.1 95.15
M 356.55 75.65
Q 356.35 75.65 356.15 75.85 355.95 76 355.95 76.25
L 355.95 78.55
Q 355.95 78.85 356.15 79.05 356.35 79.2 356.55 79.2
L 367.2 79.2
Q 367.5 79.2 367.7 78.95 367.9 78.75 367.9 78.5
L 367.9 76.3
Q 367.9 76.05 367.7 75.85 367.5 75.65 367.2 75.65
L 356.55 75.65
M 331 98.05
Q 328.2 98.05 326.05 98.6 323.85 99.2 322.3 100.15 320.75 101.15 319.95 102.55 319.1 103.95 319.1 105.6 319.1 107.35 319.95 108.75 320.75 110.15 322.3 111.15 323.85 112.15 326.05 112.7 328.2 113.25 331 113.25 333.55 113.25 335.7 112.65 337.95 112.1 339.5 111.1 341.1 110.1 342 108.7 342.9 107.3 342.9 105.6 342.9 103.9 342 102.55 341.1 101.15 339.5 100.15 337.95 99.15 335.7 98.6 333.55 98.05 331 98.05
M 338.15 105.75
Q 338.15 106.7 337.6 107.45 337 108.15 336.05 108.6 335.05 109.1 333.75 109.35 332.45 109.6 331 109.6 327.85 109.6 325.85 108.6 323.85 107.6 323.85 105.75 323.85 103.75 325.8 102.7 327.75 101.7 331 101.7 332.45 101.7 333.75 101.95 335.05 102.2 336.05 102.75 337 103.25 337.6 104 338.15 104.75 338.15 105.75
M 332.6 77
Q 332.6 76.8 332.45 76.65 332.3 76.45 332.1 76.45
L 328.55 76.45
Q 328.4 76.45 328.2 76.65 328.05 76.8 328.05 77
L 328.05 82.5 319.55 82.5 319.55 77.05
Q 319.55 76.85 319.4 76.7 319.2 76.55 319 76.55
L 315.55 76.55
Q 315 76.55 315 77.05
L 315 91.9
Q 315 93.5 315.65 94.1 316.3 94.7 318.05 94.7
L 329.6 94.7
Q 331.35 94.7 331.95 94.05 332.6 93.4 332.6 92
L 332.6 77
M 328.05 90.25
Q 328.05 90.95 327.3 90.95
L 320.3 90.95
Q 319.55 90.95 319.55 90.25
L 319.55 86.2 328.05 86.2 328.05 90.25
M 342.55 85.1
L 342.55 75.8
Q 342.55 75.25 342 75.25
L 338.45 75.25
Q 337.95 75.25 337.95 75.8
L 337.95 96.9
Q 337.95 97.15 338.1 97.35 338.25 97.5 338.45 97.5
L 342 97.5
Q 342.2 97.5 342.35 97.35 342.55 97.15 342.55 96.95
L 342.55 88.9 347.95 88.9
Q 348.15 88.9 348.35 88.75 348.55 88.6 348.55 88.4
L 348.55 85.55
Q 348.55 85.4 348.35 85.25 348.15 85.1 347.95 85.1
L 342.55 85.1
M 296.35 75.8
Q 296.35 75.25 295.8 75.25
L 292.35 75.25
Q 291.8 75.25 291.8 75.8
L 291.8 112.8
Q 291.8 113.3 292.35 113.3
L 295.8 113.3
Q 296.35 113.3 296.35 112.8
L 296.35 75.8
M 280.2 82.8
Q 280.3 82 280.3 81.2 280.35 79.6 279.75 78.95 279.1 78.3 277.35 78.3
L 265.75 78.3
Q 265.55 78.3 265.35 78.45 265.15 78.6 265.15 78.8
L 265.15 81.55
Q 265.15 82.05 265.75 82.05
L 274.6 82.05
Q 275.4 82.05 275.6 82.35 275.8 82.65 275.75 83.5 275.7 85.5 274.85 87.8 274 90.15 272.45 92.45 270.95 94.75 268.75 96.9 266.55 99.05 263.85 100.7 263.65 100.85 263.5 101.15 263.35 101.45 263.6 101.8
L 265.2 104.05
Q 265.4 104.3 265.75 104.25 266.05 104.2 266.4 104.05 271.1 101 274.4 96.95 277.7 92.85 279.25 88
L 284.35 88 284.35 93.3 278.6 93.3
Q 278.4 93.3 278.25 93.45 278.05 93.6 278.05 93.8
L 278.05 96.4
Q 278.05 96.65 278.25 96.8 278.4 96.95 278.6 96.95
L 284.35 96.95 284.35 111.35
Q 284.35 111.95 284.9 111.95
L 288.15 111.95
Q 288.7 111.95 288.7 111.35
L 288.7 76.45
Q 288.7 75.95 288.15 75.95
L 284.9 75.95
Q 284.35 75.95 284.35 76.45
L 284.35 84.35 280.05 84.35
Q 280.15 83.6 280.2 82.8
M 239.85 77.55
Q 239.7 77.35 239.5 77.35
L 235.95 77.2
Q 235.75 77.2 235.55 77.4 235.4 77.6 235.4 77.8 235.4 79.6 235.35 81.15 235.25 82.75 235.05 84.2 234.8 85.65 234.5 87.1 234.15 88.5 233.65 89.95 232.55 93.25 230.65 96.1 228.8 99 226.25 101.35 225.5 102 226.15 102.6
L 228 104.35
Q 228.65 105 229.35 104.4 230.45 103.5 231.55 102.25 232.7 101.05 233.75 99.6 234.8 98.2 235.75 96.6 236.65 95 237.35 93.3 237.9 94.6 238.75 95.95 239.6 97.35 240.6 98.65 241.6 100 242.7 101.1 243.8 102.2 244.75 102.95 245.1 103.25 245.5 103.25 245.8 103.2 246 102.9
L 247.7 100.85
Q 248.25 100.1 247.6 99.6 246.35 98.6 245 97.1 243.7 95.6 242.55 93.85 241.4 92.15 240.55 90.2 239.7 88.3 239.3 86.4 239.65 84.5 239.85 82.45 240 80.35 240 77.95 240 77.7 239.85 77.55
M 257.05 75.8
Q 257.05 75.25 256.5 75.25
L 253 75.25
Q 252.75 75.25 252.6 75.4 252.4 75.55 252.4 75.8
L 252.4 112.7
Q 252.4 112.95 252.6 113.05 252.75 113.25 253 113.25
L 256.5 113.25
Q 257.05 113.25 257.05 112.7
L 257.05 75.8 Z"/>

<path fill="#FFFFFF" stroke="none" d="
M 561.15 65.6
L 491.15 65.6
Q 476.15 65.6 476.15 80.6
L 476.15 110.65
Q 476.15 125.65 491.15 125.65
L 561.15 125.65
Q 576.15 125.65 576.15 110.65
L 576.15 80.6
Q 576.15 65.6 561.15 65.6
M 920.3 80.6
Q 920.3 65.6 905.3 65.6
L 835.3 65.6
Q 820.3 65.6 820.3 80.6
L 820.3 110.65
Q 820.3 125.65 835.3 125.65
L 905.3 125.65
Q 920.3 125.65 920.3 110.65
L 920.3 80.6 Z"/>
</g>

<g id="dfndnfd7_0_Layer1_0_FILL">
<path fill="#C49A6C" stroke="none" d="
M 37.55 -9.5
Q 37.55 -19.5 27.55 -19.5
L -27.5 -19.5
Q -37.5 -19.5 -37.5 -9.5
L -37.5 9.55
Q -37.5 19.55 -27.5 19.55
L 27.55 19.55
Q 37.55 19.55 37.55 9.55
L 37.55 -9.5 Z"/>
</g>

<g id="dfndnfd7_0_Layer0_0_FILL">
<path fill="#FFFFFF" stroke="none" d="
M -9.25 5.1
Q -9.25 4 -9.7 3.2 -10.1 2.35 -10.95 1.75 -11.8 1.15 -12.9 0.85 -14 0.55 -15.35 0.55 -18.15 0.55 -19.8 1.75 -20.6 2.35 -21.05 3.2 -21.45 4 -21.45 5.1 -21.45 6.15 -21.05 6.95 -20.6 7.75 -19.8 8.35 -18.15 9.55 -15.35 9.55 -14 9.55 -12.9 9.25 -11.8 8.95 -10.95 8.35 -10.1 7.75 -9.7 6.95 -9.25 6.15 -9.25 5.1
M -14 3.2
Q -13.4 3.35 -13 3.6 -12.55 3.85 -12.3 4.25 -12.1 4.6 -12.1 5.1 -12.1 6.05 -13 6.55 -13.4 6.8 -14 6.95 -14.6 7.1 -15.35 7.1 -16.15 7.1 -16.75 6.95 -17.35 6.8 -17.8 6.55 -18.65 6.05 -18.65 5.1 -18.65 4.6 -18.45 4.25 -18.25 3.85 -17.8 3.6 -17.35 3.35 -16.75 3.2 -16.15 3.05 -15.35 3.05 -14.6 3.05 -14 3.2
M -10.65 -10.25
Q -10.75 -10.25 -10.9 -10.25 -11.05 -10.2 -11.15 -10.2 -11.3 -10.15 -11.4 -10.15 -11.55 -10.1 -11.65 -10.05 -11.75 -10 -11.8 -9.9 -11.85 -9.85 -11.95 -9.75 -12 -9.65 -12.05 -9.5 -12.1 -9.4 -12.1 -9.25
L -12.1 -0.7
Q -12.1 -0.55 -12.05 -0.4 -12 -0.25 -11.95 -0.15 -11.85 -0.05 -11.8 0.05 -11.75 0.1 -11.65 0.15 -11.55 0.2 -11.45 0.25 -11.3 0.3 -11.15 0.3 -11.05 0.35 -10.9 0.35 -10.8 0.35 -10.7 0.35 -10.55 0.35 -10.4 0.35 -10.3 0.35 -10.2 0.3 -10.1 0.3 -10 0.25 -9.9 0.2 -9.75 0.15 -9.65 0.1 -9.55 0.05 -9.45 -0.05 -9.4 -0.15 -9.3 -0.25 -9.3 -0.4 -9.25 -0.55 -9.25 -0.7
L -9.25 -3.7 -7.35 -3.7
Q -6.7 -3.7 -6.55 -4.05 -6.5 -4.25 -6.45 -4.45 -6.45 -4.65 -6.45 -4.9 -6.45 -5.15 -6.45 -5.4 -6.5 -5.6 -6.55 -5.8 -6.65 -6 -6.85 -6.05 -7.05 -6.15 -7.35 -6.15
L -9.25 -6.15 -9.25 -9.25
Q -9.25 -9.85 -9.65 -10.05 -9.85 -10.15 -10.1 -10.2 -10.35 -10.25 -10.65 -10.25
M -21.85 -9.65
Q -22.15 -9.7 -22.3 -9.7 -22.55 -9.7 -22.8 -9.65 -23.05 -9.55 -23.25 -9.45 -23.5 -9.35 -23.6 -9.1 -23.7 -8.9 -23.7 -8.65
L -23.7 -2.9
Q -23.7 -2.3 -23.55 -1.85 -23.35 -1.4 -23 -1.1 -22.65 -0.8 -22.15 -0.65 -21.7 -0.5 -21.15 -0.5
L -16.95 -0.5
Q -16.35 -0.5 -15.9 -0.65 -15.45 -0.75 -15.15 -1.1 -14.8 -1.4 -14.65 -1.85 -14.5 -2.3 -14.5 -2.9
L -14.5 -8.65
Q -14.5 -8.9 -14.65 -9.15 -14.7 -9.2 -14.85 -9.3 -14.95 -9.4 -15.05 -9.45 -15.25 -9.55 -15.5 -9.65 -15.65 -9.65 -15.75 -9.7 -15.9 -9.7 -16 -9.7 -16.15 -9.7 -16.45 -9.65 -16.6 -9.6 -16.7 -9.55 -16.8 -9.5 -16.9 -9.45 -17 -9.4 -17.05 -9.3 -17.1 -9.2 -17.2 -9.15 -17.3 -8.9 -17.3 -8.65
L -17.3 -7.15 -20.9 -7.15 -20.9 -8.65
Q -20.9 -8.75 -20.9 -8.9 -20.95 -9 -21.05 -9.15 -21.15 -9.2 -21.2 -9.3 -21.3 -9.4 -21.4 -9.45 -21.45 -9.5 -21.6 -9.55 -21.7 -9.6 -21.85 -9.65
M -20.8 -3.05
L -20.8 -4.75 -17.35 -4.75 -17.35 -3.05 -20.8 -3.05
M 12.15 1.35
Q 12.05 1.25 11.95 1.2 11.85 1.1 11.8 1.05 11.7 1 11.55 0.95 11.45 0.9 11.3 0.85 11.1 0.8 11 0.8 10.9 0.75 10.85 0.75 10.55 0.75 10.3 0.85 10.1 0.9 9.85 1.05 9.65 1.2 9.5 1.35 9.4 1.55 9.4 1.8
L 9.4 2.85 3.7 2.85 3.7 1.8
Q 3.7 1.7 3.65 1.55 3.6 1.45 3.55 1.35 3.45 1.25 3.35 1.2 3.25 1.1 3.15 1.05 3.05 1 2.95 0.95 2.85 0.9 2.7 0.85 2.55 0.8 2.45 0.8 2.3 0.75 2.2 0.75 2.1 0.75 2 0.8 1.9 0.8 1.75 0.85 1.6 0.9 1.5 0.95 1.4 1 1.35 1.05 1.2 1.1 1.15 1.2 1.05 1.25 0.95 1.35 0.9 1.45 0.85 1.55 0.8 1.7 0.8 1.8
L 0.8 7.35
Q 0.8 7.75 0.9 8.1 1 8.4 1.25 8.65 1.45 8.9 1.75 9 2.05 9.15 2.5 9.15
L 10.45 9.15
Q 10.8 9.15 11.15 9 11.5 8.9 11.75 8.65 12.05 8.4 12.2 8.1 12.3 7.75 12.3 7.35
L 12.3 1.8
Q 12.3 1.7 12.25 1.55 12.2 1.45 12.15 1.35
M 8.95 5.15
Q 9.1 5.15 9.15 5.2 9.25 5.25 9.3 5.25 9.35 5.3 9.4 5.4 9.4 5.45 9.4 5.6
L 9.4 6.5
Q 9.4 6.65 9.4 6.7 9.35 6.8 9.3 6.8 9.25 6.85 9.15 6.85 9.1 6.85 8.95 6.85
L 4.15 6.85
Q 4.05 6.85 3.95 6.85 3.85 6.85 3.85 6.8 3.75 6.8 3.75 6.7 3.7 6.65 3.7 6.5
L 3.7 5.6
Q 3.7 5.45 3.75 5.4 3.75 5.3 3.85 5.25
L 3.95 5.2
Q 4.05 5.15 4.15 5.15
L 8.95 5.15
M 20.2 -6.55
Q 20.1 -6.55 20 -6.5 19.9 -6.45 19.8 -6.45 19.75 -6.45 19.65 -6.45 19.55 -6.45 19.45 -6.45 19.35 -6.4 19.25 -6.4 19.1 -6.4 18.95 -6.4 18.7 -6.4 18.5 -6.3 18.25 -6.2 18.1 -6 17.9 -5.8 17.85 -5.55 17.75 -5.35 17.75 -5.15 17.75 -4.9 17.8 -4.65 17.9 -4.45 18.05 -4.25 18.4 -3.8 18.8 -3.8
L 20.65 -3.8 20.65 5.15
Q 20.65 5.4 20.75 5.65 20.9 5.85 21.1 6 21.35 6.2 21.6 6.3 21.85 6.35 22.15 6.35 22.2 6.35 22.3 6.35 22.4 6.35 22.55 6.3 22.7 6.25 22.8 6.2 22.9 6.15 23 6.05 23.1 5.95 23.15 5.85 23.25 5.75 23.3 5.65 23.4 5.5 23.4 5.4 23.45 5.3 23.45 5.15 23.45 3.5 23.45 1.85 23.45 0.25 23.45 -1.4 23.4 -3 23.4 -4.6 23.4 -6.2 23.4 -7.85 23.4 -7.95 23.4 -8.05 23.35 -8.2 23.3 -8.3 23.25 -8.4 23.2 -8.45 23.15 -8.55 23.1 -8.65 23 -8.7 22.9 -8.75 22.75 -8.8 22.65 -8.85 22.55 -8.9 22.45 -8.95 22.3 -8.95 22.25 -8.95 22.15 -8.95 22.05 -8.95 21.9 -8.9 21.8 -8.85 21.65 -8.8 21.55 -8.75 21.45 -8.7 21.4 -8.65 21.3 -8.55 21.25 -8.45 21.15 -8.35 21.1 -8.25 21.05 -8.15 21.05 -8.05 21 -7.95 21 -7.8 21 -7.7 20.95 -7.55 20.9 -7.4 20.85 -7.25 20.75 -7.1 20.7 -6.95 20.6 -6.85 20.5 -6.75 20.45 -6.7 20.35 -6.65 20.3 -6.6 20.2 -6.55
M 10.05 -9.85
Q 10 -9.75 9.95 -9.65 9.8 -9.45 9.8 -9.15
L 9.8 -6.65 7.15 -6.65
Q 7.05 -6.65 6.95 -6.6 6.85 -6.6 6.8 -6.6
L 6.8 -8.5
Q 6.8 -8.65 6.75 -8.75 6.75 -8.9 6.7 -9.05 6.55 -9.2 6.4 -9.4 6.25 -9.45 6.15 -9.5 6.05 -9.55 5.9 -9.6 5.8 -9.65 5.65 -9.65 5.55 -9.7 5.45 -9.7 5.3 -9.7 5.15 -9.65 5.05 -9.65 4.95 -9.6 4.8 -9.55 4.7 -9.5 4.6 -9.45 4.5 -9.4 4.4 -9.3 4.3 -9.2 4.2 -9.1 4.1 -9.05 4 -8.75 4 -8.5
L 4 -7.45 0.45 -7.45 0.45 -8.5
Q 0.45 -8.65 0.4 -8.75 0.4 -8.9 0.35 -9.05 0.3 -9.1 0.15 -9.2 0.05 -9.3 -0.05 -9.4 -0.15 -9.45 -0.25 -9.5 -0.4 -9.55 -0.45 -9.6 -0.6 -9.65 -0.75 -9.65 -0.85 -9.7 -1 -9.7 -1.2 -9.7 -1.4 -9.6 -1.6 -9.55 -1.85 -9.4 -2.3 -9.1 -2.3 -8.5
L -2.3 -3.3
Q -2.3 -2.7 -2.1 -2.3 -1.95 -1.85 -1.6 -1.6 -1 -1 0.3 -1
L 4.5 -1
Q 5.65 -1 6.2 -1.55 6.8 -2.15 6.8 -3.3
L 6.8 -4.2
Q 6.85 -4.15 6.95 -4.15 7.05 -4.15 7.15 -4.15
L 9.8 -4.15 9.8 -1.7
Q 9.8 -1.55 9.85 -1.4 9.9 -1.3 9.95 -1.2 10 -1.1 10.05 -1.05 10.15 -0.95 10.25 -0.9 10.35 -0.85 10.45 -0.8 10.6 -0.75 10.7 -0.75 10.85 -0.7 10.95 -0.7 11.1 -0.7 11.25 -0.7 11.5 -0.7 11.75 -0.75 12 -0.8 12.2 -0.9 12.4 -1 12.5 -1.2 12.6 -1.4 12.6 -1.7
L 12.6 -9.15
Q 12.6 -9.75 12.2 -9.95 12 -10.05 11.75 -10.1 11.5 -10.15 11.25 -10.15 11.1 -10.15 10.95 -10.15 10.85 -10.15 10.7 -10.1 10.6 -10.1 10.45 -10.05 10.35 -10 10.25 -9.95 10.15 -9.9 10.05 -9.85
M 4 -3.4
L 0.5 -3.4 0.5 -5 4 -5 4 -3.4 Z"/>
</g>

<g id="dfndnfd7_1_Layer1_0_FILL">
<path fill="#C49A6C" stroke="none" d="
M 37.55 -9.5
Q 37.55 -19.5 27.55 -19.5
L -27.5 -19.5
Q -37.5 -19.5 -37.5 -9.5
L -37.5 9.55
Q -37.5 19.55 -27.5 19.55
L 27.55 19.55
Q 37.55 19.55 37.55 9.55
L 37.55 -9.5 Z"/>
</g>

<g id="dfndnfd7_1_Layer0_0_FILL">
<path fill="#FFFFFF" stroke="none" d="
M -10.3 5.1
Q -10.3 4 -10.75 3.2 -11.15 2.35 -12 1.75 -12.85 1.15 -13.95 0.85 -15.05 0.55 -16.4 0.55 -19.2 0.55 -20.85 1.75 -21.65 2.35 -22.1 3.2 -22.5 4 -22.5 5.1 -22.5 6.15 -22.1 6.95 -21.65 7.75 -20.85 8.35 -19.2 9.55 -16.4 9.55 -15.05 9.55 -13.95 9.25 -12.85 8.95 -12 8.35 -11.15 7.75 -10.75 6.95 -10.3 6.15 -10.3 5.1
M -15.05 3.2
Q -14.45 3.35 -14.05 3.6 -13.6 3.85 -13.35 4.25 -13.15 4.6 -13.15 5.1 -13.15 6.05 -14.05 6.55 -14.45 6.8 -15.05 6.95 -15.65 7.1 -16.4 7.1 -17.2 7.1 -17.8 6.95 -18.4 6.8 -18.85 6.55 -19.7 6.05 -19.7 5.1 -19.7 4.6 -19.5 4.25 -19.3 3.85 -18.85 3.6 -18.4 3.35 -17.8 3.2 -17.2 3.05 -16.4 3.05 -15.65 3.05 -15.05 3.2
M -10.7 -10.05
Q -10.9 -10.15 -11.15 -10.2 -11.4 -10.25 -11.7 -10.25 -11.8 -10.25 -11.95 -10.25 -12.1 -10.2 -12.2 -10.2 -12.35 -10.15 -12.45 -10.15 -12.6 -10.1 -12.7 -10.05 -12.8 -10 -12.85 -9.9 -12.9 -9.85 -13 -9.75 -13.05 -9.65 -13.1 -9.5 -13.15 -9.4 -13.15 -9.25
L -13.15 -0.7
Q -13.15 -0.55 -13.1 -0.4 -13.05 -0.25 -13 -0.15 -12.9 -0.05 -12.85 0.05 -12.8 0.1 -12.7 0.15 -12.6 0.2 -12.5 0.25 -12.35 0.3 -12.2 0.3 -12.1 0.35 -11.95 0.35 -11.85 0.35 -11.75 0.35 -11.6 0.35 -11.45 0.35 -11.35 0.35 -11.25 0.3 -11.15 0.3 -11.05 0.25 -10.95 0.2 -10.8 0.15 -10.7 0.1 -10.6 0.05 -10.5 -0.05 -10.45 -0.15 -10.35 -0.25 -10.35 -0.4 -10.3 -0.55 -10.3 -0.7
L -10.3 -3.7 -8.4 -3.7
Q -7.75 -3.7 -7.6 -4.05 -7.55 -4.25 -7.5 -4.45 -7.5 -4.65 -7.5 -4.9 -7.5 -5.15 -7.5 -5.4 -7.55 -5.6 -7.6 -5.8 -7.7 -6 -7.9 -6.05 -8.1 -6.15 -8.4 -6.15
L -10.3 -6.15 -10.3 -9.25
Q -10.3 -9.85 -10.7 -10.05
M -22.45 -9.45
Q -22.5 -9.5 -22.65 -9.55 -22.75 -9.6 -22.9 -9.65 -23.2 -9.7 -23.35 -9.7 -23.6 -9.7 -23.85 -9.65 -24.1 -9.55 -24.3 -9.45 -24.55 -9.35 -24.65 -9.1 -24.75 -8.9 -24.75 -8.65
L -24.75 -2.9
Q -24.75 -2.3 -24.6 -1.85 -24.4 -1.4 -24.05 -1.1 -23.7 -0.8 -23.2 -0.65 -22.75 -0.5 -22.2 -0.5
L -18 -0.5
Q -17.4 -0.5 -16.95 -0.65 -16.5 -0.75 -16.2 -1.1 -15.85 -1.4 -15.7 -1.85 -15.55 -2.3 -15.55 -2.9
L -15.55 -8.65
Q -15.55 -8.9 -15.7 -9.15 -15.75 -9.2 -15.9 -9.3 -16 -9.4 -16.1 -9.45 -16.3 -9.55 -16.55 -9.65 -16.7 -9.65 -16.8 -9.7 -16.95 -9.7 -17.05 -9.7 -17.2 -9.7 -17.5 -9.65 -17.65 -9.6 -17.75 -9.55 -17.85 -9.5 -17.95 -9.45 -18.05 -9.4 -18.1 -9.3 -18.15 -9.2 -18.25 -9.15 -18.35 -8.9 -18.35 -8.65
L -18.35 -7.15 -21.95 -7.15 -21.95 -8.65
Q -21.95 -8.75 -21.95 -8.9 -22 -9 -22.1 -9.15 -22.2 -9.2 -22.25 -9.3 -22.35 -9.4 -22.45 -9.45
M -21.85 -3.05
L -21.85 -4.75 -18.4 -4.75 -18.4 -3.05 -21.85 -3.05
M 11.25 1.8
Q 11.25 1.7 11.2 1.55 11.15 1.45 11.1 1.35 11 1.25 10.9 1.2 10.8 1.1 10.75 1.05 10.65 1 10.5 0.95 10.4 0.9 10.25 0.85 10.05 0.8 9.95 0.8 9.85 0.75 9.8 0.75 9.5 0.75 9.25 0.85 9.05 0.9 8.8 1.05 8.6 1.2 8.45 1.35 8.35 1.55 8.35 1.8
L 8.35 2.85 2.65 2.85 2.65 1.8
Q 2.65 1.7 2.6 1.55 2.55 1.45 2.5 1.35 2.4 1.25 2.3 1.2 2.2 1.1 2.1 1.05 2 1 1.9 0.95 1.8 0.9 1.65 0.85 1.5 0.8 1.4 0.8 1.25 0.75 1.15 0.75 1.05 0.75 0.95 0.8 0.85 0.8 0.7 0.85 0.55 0.9 0.45 0.95 0.35 1 0.3 1.05 0.15 1.1 0.1 1.2 0 1.25 -0.1 1.35 -0.15 1.45 -0.2 1.55 -0.25 1.7 -0.25 1.8
L -0.25 7.35
Q -0.25 7.75 -0.15 8.1 -0.05 8.4 0.2 8.65 0.4 8.9 0.7 9 1 9.15 1.45 9.15
L 9.4 9.15
Q 9.75 9.15 10.1 9 10.45 8.9 10.7 8.65 11 8.4 11.15 8.1 11.25 7.75 11.25 7.35
L 11.25 1.8
M 7.9 5.15
Q 8.05 5.15 8.1 5.2 8.2 5.25 8.25 5.25 8.3 5.3 8.35 5.4 8.35 5.45 8.35 5.6
L 8.35 6.5
Q 8.35 6.65 8.35 6.7 8.3 6.8 8.25 6.8 8.2 6.85 8.1 6.85 8.05 6.85 7.9 6.85
L 3.1 6.85
Q 3 6.85 2.9 6.85 2.8 6.85 2.8 6.8 2.7 6.8 2.7 6.7 2.65 6.65 2.65 6.5
L 2.65 5.6
Q 2.65 5.45 2.7 5.4 2.7 5.3 2.8 5.25
L 2.9 5.2
Q 3 5.15 3.1 5.15
L 7.9 5.15
M 19.35 -8.75
Q 18.95 -8.5 18.55 -8.2 18.15 -7.9 17.8 -7.5 17.7 -7.25 17.6 -7.1 17.5 -6.9 17.4 -6.75 17.3 -6.6 17.2 -6.45 17.15 -6.35 17.1 -6.25 17.05 -6.1 17 -5.95 16.95 -5.85 16.9 -5.7 16.85 -5.55 16.85 -5.35 16.8 -5.2 16.8 -4.95 16.75 -4.7 16.8 -4.45 16.9 -4.2 17.1 -4 17.25 -3.8 17.5 -3.75 17.7 -3.6 18 -3.6 18.3 -3.6 18.55 -3.75 18.8 -3.8 19.05 -4 19.25 -4.2 19.35 -4.45 19.45 -4.7 19.45 -5 19.45 -5.1 19.5 -5.2 19.55 -5.3 19.65 -5.45 19.7 -5.6 19.8 -5.7 19.9 -5.85 20 -6 20.25 -6.3 20.6 -6.4 21 -6.55 21.45 -6.55 21.75 -6.55 22 -6.5 22.25 -6.45 22.4 -6.4 22.55 -6.3 22.7 -6.15 22.85 -6.05 23 -5.85 23.3 -5.55 23.45 -5.2 23.6 -4.85 23.6 -4.5 23.55 -4.15 23.45 -3.8 23.3 -3.45 23.05 -3.1 22.95 -2.95 22.85 -2.8 22.75 -2.65 22.65 -2.55 22.5 -2.4 22.4 -2.25 22.25 -2.15 22.1 -2.05 21.8 -1.85 21.55 -1.6 21.25 -1.4 21.05 -1.2 20.75 -1 20.5 -0.8 20.25 -0.6 20 -0.4 19.15 0.25 18.6 0.75 18 1.3 17.75 1.8 17.4 2.3 17.15 2.9 17.05 3.15 16.95 3.5 16.85 3.85 16.8 4.25
L 16.8 4.3
Q 16.8 4.35 16.8 4.4
L 16.75 4.45 16.75 4.55
Q 16.75 4.6 16.75 4.65 16.7 4.65 16.7 4.7 16.7 4.75 16.7 4.8 16.65 4.85 16.65 4.9 16.65 4.95 16.7 4.95
L 16.7 5.15
Q 16.65 5.5 16.75 5.8 16.85 6.05 17.1 6.2 17.3 6.35 17.55 6.45 17.8 6.55 18.05 6.55
L 25 6.55
Q 25.7 6.55 26.05 6.2 26.4 5.85 26.4 5.15 26.4 4.85 26.3 4.65 26.2 4.45 26.05 4.3 25.85 4.2 25.6 4.15 25.35 4.1 25 4.1
L 19.75 4.1
Q 19.75 4.05 19.75 3.95 19.8 3.85 19.8 3.75 19.8 3.65 19.85 3.6 19.9 3.5 19.95 3.45 20.05 3.3 20.15 3.1 20.25 2.95 20.4 2.75 20.5 2.55 20.7 2.4 20.85 2.2 21.15 2.05 21.35 1.85 21.6 1.65 21.9 1.45 22.2 1.3 22.45 1.1 22.7 0.95 22.95 0.75 23.2 0.55 23.5 0.35 23.8 0.1 24.1 -0.1 24.35 -0.35 24.8 -0.8 25.3 -1.4 25.45 -1.7 25.6 -2 25.75 -2.3 25.9 -2.65 26 -3 26.1 -3.35 26.15 -3.75 26.2 -4.15 26.3 -5.1 25.95 -6 25.6 -6.9 24.8 -7.7 24.45 -8.05 24.05 -8.35 23.65 -8.65 23.25 -8.8 22.85 -9 22.35 -9.1 21.9 -9.15 21.3 -9.15 20.75 -9.15 20.25 -9.05 19.8 -8.95 19.35 -8.75
M 9.9 -10.15
Q 9.8 -10.15 9.65 -10.1 9.55 -10.1 9.4 -10.05 9.3 -10 9.2 -9.95 9.1 -9.9 9 -9.85 8.95 -9.75 8.9 -9.65 8.75 -9.45 8.75 -9.15
L 8.75 -6.65 6.1 -6.65
Q 6 -6.65 5.9 -6.6 5.8 -6.6 5.75 -6.6
L 5.75 -8.5
Q 5.75 -8.65 5.7 -8.75 5.7 -8.9 5.65 -9.05 5.5 -9.2 5.35 -9.4 5.2 -9.45 5.1 -9.5 5 -9.55 4.85 -9.6 4.75 -9.65 4.6 -9.65 4.5 -9.7 4.4 -9.7 4.25 -9.7 4.1 -9.65 4 -9.65 3.9 -9.6 3.75 -9.55 3.65 -9.5 3.55 -9.45 3.45 -9.4 3.35 -9.3 3.25 -9.2 3.15 -9.1 3.05 -9.05 2.95 -8.75 2.95 -8.5
L 2.95 -7.45 -0.6 -7.45 -0.6 -8.5
Q -0.6 -8.65 -0.65 -8.75 -0.65 -8.9 -0.7 -9.05 -0.75 -9.1 -0.9 -9.2 -1 -9.3 -1.1 -9.4 -1.2 -9.45 -1.3 -9.5 -1.45 -9.55 -1.5 -9.6 -1.65 -9.65 -1.8 -9.65 -1.9 -9.7 -2.05 -9.7 -2.25 -9.7 -2.45 -9.6 -2.65 -9.55 -2.9 -9.4 -3.35 -9.1 -3.35 -8.5
L -3.35 -3.3
Q -3.35 -2.7 -3.15 -2.3 -3 -1.85 -2.65 -1.6 -2.05 -1 -0.75 -1
L 3.45 -1
Q 4.6 -1 5.15 -1.55 5.75 -2.15 5.75 -3.3
L 5.75 -4.2
Q 5.8 -4.15 5.9 -4.15 6 -4.15 6.1 -4.15
L 8.75 -4.15 8.75 -1.7
Q 8.75 -1.55 8.8 -1.4 8.85 -1.3 8.9 -1.2 8.95 -1.1 9 -1.05 9.1 -0.95 9.2 -0.9 9.3 -0.85 9.4 -0.8 9.55 -0.75 9.65 -0.75 9.8 -0.7 9.9 -0.7 10.05 -0.7 10.2 -0.7 10.45 -0.7 10.7 -0.75 10.95 -0.8 11.15 -0.9 11.35 -1 11.45 -1.2 11.55 -1.4 11.55 -1.7
L 11.55 -9.15
Q 11.55 -9.75 11.15 -9.95 10.95 -10.05 10.7 -10.1 10.45 -10.15 10.2 -10.15 10.05 -10.15 9.9 -10.15
M 2.95 -5
L 2.95 -3.4 -0.55 -3.4 -0.55 -5 2.95 -5 Z"/>
</g>

<path id="Layer0_0_1_STROKES" stroke="#BBDECB" stroke-width="5" stroke-linejoin="round" stroke-linecap="round" fill="none" d="
M 109.05 4.9
L 1224 4.9
Q 1239 4.9 1239 19.9
L 1239 370.1
Q 1239 385.1 1224 385.1
L 921.25 385.1 109.05 385.1
Q 94.05 385.1 94.05 370.1
L 94.05 128.1 94.05 19.9
Q 94.05 4.9 109.05 4.9 Z"/>

<path id="Layer0_0_2_STROKES" stroke="#DBDBDB" stroke-width="3" stroke-linejoin="round" stroke-linecap="round" fill="none" d="
M 835.3 65.6
L 905.3 65.6
Q 920.3 65.6 920.3 80.6
L 920.3 110.65
Q 920.3 125.65 905.3 125.65
L 835.3 125.65
Q 820.3 125.65 820.3 110.65
L 820.3 80.6
Q 820.3 65.6 835.3 65.6 Z
M 491.15 65.6
L 561.15 65.6
Q 576.15 65.6 576.15 80.6
L 576.15 110.65
Q 576.15 125.65 561.15 125.65
L 491.15 125.65
Q 476.15 125.65 476.15 110.65
L 476.15 80.6
Q 476.15 65.6 491.15 65.6 Z"/>

<path id="Layer0_0_3_STROKES" stroke="#CCCCCC" stroke-width="3" stroke-linejoin="round" stroke-linecap="round" fill="none" d="
M 222.05 321.6
L 1177.05 321.6
M 222.05 261.6
L 1177.05 261.6"/>
</defs>

<g transform="matrix( 1, 0, 0, 1, 0,0) ">
<use xlink:href="#Layer0_0_FILL"/>

<use xlink:href="#Layer0_0_1_STROKES"/>

<use xlink:href="#Layer0_0_2_STROKES"/>

<use xlink:href="#Layer0_0_3_STROKES"/>
</g>

<g transform="matrix( 1, 0, 0, 1, 168.05,93.55) ">
<g transform="matrix( 1, 0, 0, 1, 0,0) ">
<use xlink:href="#dfndnfd7_0_Layer1_0_FILL"/>
</g>

<g transform="matrix( 1, 0, 0, 1, 0,0) ">
<use xlink:href="#dfndnfd7_0_Layer0_0_FILL"/>
</g>
</g>

<g transform="matrix( 1, 0, 0, 1, 168.05,233.55) ">
<g transform="matrix( 1, 0, 0, 1, 0,0) ">
<use xlink:href="#dfndnfd7_1_Layer1_0_FILL"/>
</g>

<g transform="matrix( 1, 0, 0, 1, 0,0) ">
<use xlink:href="#dfndnfd7_1_Layer0_0_FILL"/>
</g>
</g>
</svg>
