
<svg xmlns="http://www.w3.org/2000/svg" version="1.1" xmlns:xlink="http://www.w3.org/1999/xlink" preserveAspectRatio="none" x="0px" y="0px" width="1280px" height="720px" viewBox="0 0 1280 720">
<defs>
<g id="Layer0_0_FILL">
<path fill="#1E1E1E" stroke="none" d="
M 789 385.95
L 776.1 385.95
Q 775.85 385.95 775.7 386.1 775.55 386.25 775.55 386.45
L 775.55 389.55
Q 775.55 389.75 775.7 389.95 775.85 390.1 776.1 390.1
L 789 390.1 791.6 390.1 797.25 390.1
Q 797.8 390.1 797.8 389.55
L 797.8 386.45
Q 797.8 385.95 797.25 385.95
L 791.6 385.95 789 385.95
M 824.85 373.55
Q 823.15 373.95 821.4 374.55 821 374.75 820.85 374.95 820.7 375.1 820.8 375.35
L 821.15 378.3
Q 821.25 378.65 821.45 378.75 821.65 378.85 822.15 378.65 822.75 378.4 823.55 378.15 824.35 377.9 825.15 377.75 825.95 377.55 826.7 377.45 827.4 377.35 827.95 377.35 828.8 377.35 829.75 377.55 830.7 377.75 831.55 378.25 832.35 378.7 832.9 379.5 833.4 380.25 833.4 381.25 833.4 382.6 832.6 383.5 831.8 384.45 830.6 385.05 829.45 385.65 828.2 385.9 826.95 386.15 826.1 386.15
L 824.2 386.15
Q 823.85 386.15 823.75 386.25 823.65 386.3 823.65 386.7
L 823.65 389.65
Q 823.65 389.95 823.75 390.05 823.85 390.15 824.2 390.15
L 826.15 390.15
Q 828.1 390.15 829.45 390.55 830.85 390.9 831.75 391.6 832.6 392.25 833.05 393.1 833.45 393.95 833.45 394.9 833.45 397.55 831.5 398.9 830.85 399.35 830.1 399.6 829.3 399.9 828.45 400 827.6 400.1 826.7 400.05 825.8 400 825 399.95 823.9 399.85 822.85 399.55 821.8 399.25 820.75 398.95 820.2 398.7 820 398.85 819.8 398.95 819.75 399.3
L 819.4 402.35
Q 819.35 402.7 819.55 402.85 819.7 403.05 820.1 403.15 821.55 403.7 823.3 404 825.05 404.3 826.8 404.3 829.1 404.3 831.25 403.7 833.4 403.15 834.9 401.9 836.4 400.65 837.25 398.9 838.05 397.1 838.05 395 838.05 392.8 836.7 391 835.35 389.25 832.7 388.1 833.8 387.6 834.75 386.85 835.7 386.1 836.4 385.1 837.1 384.15 837.5 383.1 837.85 382 837.85 380.9 837.85 378.9 837 377.4 836.15 375.9 834.8 375 833.5 374.1 831.75 373.65 830 373.2 828.2 373.2 826.5 373.2 824.85 373.55
M 242.1 373.65
Q 241.9 373.7 241.85 373.8
L 235.7 379.45
Q 235.5 379.65 235.5 379.85 235.45 380.1 235.6 380.25
L 237.4 382.4
Q 237.55 382.55 237.8 382.5 238.05 382.5 238.3 382.35
L 241.25 379.75 241.25 403.45
Q 241.25 403.95 241.8 403.95
L 245 403.95
Q 245.5 403.95 245.5 403.45
L 245.5 374.65
Q 245.5 373.85 245.35 373.7 245.25 373.55 244.55 373.55
L 242.45 373.55
Q 242.3 373.55 242.1 373.65
M 750.2 418.65
Q 750.2 418.25 750.05 418.15 749.9 418.05 749.55 418.05
L 745.85 418.05 745.85 399.15
Q 745.85 398.8 745.8 398.7 745.75 398.55 745.45 398.55
L 741.8 398.55
Q 741.4 398.55 741.3 398.65 741.2 398.75 741 399.1
L 728.6 417.7
Q 728.45 417.85 728.3 418.15 728.1 418.45 728.1 418.7
L 728.1 421.7
Q 728.1 422 728.25 422.05 728.4 422.15 728.75 422.15
L 741.55 422.15 741.55 428.25
Q 741.55 428.65 741.7 428.8 741.85 428.95 742.3 428.95
L 745.2 428.95
Q 745.6 428.95 745.7 428.8 745.85 428.7 745.85 428.25
L 745.85 422.15 749.55 422.15
Q 749.9 422.15 750.05 422.05 750.2 421.95 750.2 421.55
L 750.2 418.65
M 741.55 418.05
L 732.95 418.05 741.55 405 741.55 418.05
M 874.2 418.65
Q 874.2 418.25 874.05 418.15 873.9 418.05 873.55 418.05
L 869.85 418.05 869.85 399.15
Q 869.85 398.8 869.8 398.7 869.75 398.55 869.45 398.55
L 865.8 398.55
Q 865.4 398.55 865.3 398.65 865.2 398.75 865 399.1
L 852.6 417.7
Q 852.45 417.85 852.3 418.15 852.1 418.45 852.1 418.7
L 852.1 421.7
Q 852.1 422 852.25 422.05 852.4 422.15 852.75 422.15
L 865.55 422.15 865.55 428.25
Q 865.55 428.65 865.7 428.8 865.85 428.95 866.3 428.95
L 869.2 428.95
Q 869.6 428.95 869.7 428.8 869.85 428.7 869.85 428.25
L 869.85 422.15 873.55 422.15
Q 873.9 422.15 874.05 422.05 874.2 421.95 874.2 421.55
L 874.2 418.65
M 865.55 418.05
L 856.95 418.05 865.55 405 865.55 418.05
M 863.15 348.55
Q 863 348.55 862.8 348.65 862.6 348.7 862.55 348.8
L 856.4 354.45
Q 856.2 354.65 856.2 354.85 856.15 355.1 856.3 355.25
L 858.1 357.4
Q 858.25 357.55 858.5 357.5 858.75 357.5 859 357.35
L 861.95 354.75 861.95 378.45
Q 861.95 378.95 862.5 378.95
L 865.7 378.95
Q 866.2 378.95 866.2 378.45
L 866.2 349.65
Q 866.2 348.85 866.05 348.7 865.95 348.55 865.25 348.55
L 863.15 348.55
M 741.35 353.65
Q 742.55 354.9 742.55 356.8 742.55 358.5 740.95 361.1 739.35 363.75 736 367.7
L 729.9 374.95
Q 729.7 375.25 729.5 375.55 729.35 375.9 729.35 376.2
L 729.35 378.5
Q 729.35 379 730.1 379
L 747.15 379
Q 747.7 379 747.7 378.3
L 747.7 375.5
Q 747.7 374.9 747.15 374.9
L 735.4 374.9
Q 736.4 373.75 737.4 372.6 738.4 371.4 739.25 370.3 740.35 369 741.75 367.4 743.1 365.75 744.3 364 745.5 362.2 746.3 360.35 747.1 358.5 747.1 356.7 747.1 354.6 746.4 353 745.7 351.4 744.55 350.35 743.4 349.3 741.75 348.75 740.15 348.2 738.2 348.2 736.35 348.2 734.35 348.85 732.4 349.5 730.9 350.3 730.5 350.5 730.35 350.75 730.25 350.9 730.35 351.1
L 730.9 354.15
Q 731 354.5 731.3 354.55 731.6 354.55 731.95 354.35 733.75 353.3 735.25 352.85 736.8 352.4 738.45 352.4 740.2 352.4 741.35 353.65
M 694.3 393.15
Q 694.1 393.45 694.1 393.7
L 694.1 396.7
Q 694.1 397 694.25 397.05 694.4 397.15 694.75 397.15
L 707.55 397.15 707.55 403.25
Q 707.55 403.65 707.7 403.8 707.85 403.95 708.3 403.95
L 711.2 403.95
Q 711.6 403.95 711.7 403.8 711.85 403.7 711.85 403.25
L 711.85 397.15 715.55 397.15
Q 715.9 397.15 716.05 397.05 716.2 396.95 716.2 396.55
L 716.2 393.65
Q 716.2 393.25 716.05 393.15 715.9 393.05 715.55 393.05
L 711.85 393.05 711.85 374.15
Q 711.85 373.8 711.8 373.7 711.75 373.55 711.45 373.55
L 707.8 373.55
Q 707.4 373.55 707.3 373.65 707.2 373.75 707 374.1
L 694.6 392.7
Q 694.45 392.85 694.3 393.15
M 698.95 393.05
L 707.55 380 707.55 393.05 698.95 393.05
M 282.1 350
Q 280.8 349.1 279.05 348.65 277.3 348.2 275.5 348.2 273.8 348.2 272.15 348.55 270.45 348.95 268.7 349.55 268.3 349.75 268.15 349.95 268 350.1 268.1 350.35
L 268.45 353.3
Q 268.55 353.65 268.75 353.75 268.95 353.85 269.45 353.65 270.05 353.4 270.85 353.15 271.65 352.9 272.45 352.75 273.25 352.55 274 352.45 274.7 352.35 275.25 352.35 276.1 352.35 277.05 352.55 278 352.75 278.85 353.25 279.65 353.7 280.2 354.5 280.7 355.25 280.7 356.25 280.7 357.6 279.9 358.5 279.1 359.45 277.9 360.05 276.75 360.65 275.5 360.9 274.25 361.15 273.4 361.15
L 271.5 361.15
Q 271.15 361.15 271.05 361.25 270.95 361.3 270.95 361.7
L 270.95 364.65
Q 270.95 364.95 271.05 365.05 271.15 365.15 271.5 365.15
L 273.45 365.15
Q 275.4 365.15 276.75 365.55 278.15 365.9 279.05 366.6 279.9 367.25 280.35 368.1 280.75 368.95 280.75 369.9 280.75 372.55 278.8 373.9 278.15 374.35 277.4 374.6 276.6 374.9 275.75 375 274.9 375.1 274 375.05 273.1 375 272.3 374.95 271.2 374.85 270.15 374.55 269.1 374.25 268.05 373.95 267.5 373.7 267.3 373.85 267.1 373.95 267.05 374.3
L 266.7 377.35
Q 266.65 377.7 266.85 377.85 267 378.05 267.4 378.15 268.85 378.7 270.6 379 272.35 379.3 274.1 379.3 276.4 379.3 278.55 378.7 280.7 378.15 282.2 376.9 283.7 375.65 284.55 373.9 285.35 372.1 285.35 370 285.35 367.8 284 366 282.65 364.25 280 363.1 281.1 362.6 282.05 361.85 283 361.1 283.7 360.1 284.4 359.15 284.8 358.1 285.15 357 285.15 355.9 285.15 353.9 284.3 352.4 283.45 350.9 282.1 350
M 283.95 426.25
Q 285.25 424.9 285.9 422.95 286.6 421.1 286.6 418.9 286.6 416.6 285.9 414.8 285.2 412.95 283.9 411.65 282.65 410.35 280.85 409.65 279.1 408.95 276.9 408.95 276.15 408.95 275.35 409.2 274.55 409.4 273.8 409.75 273.05 410.1 272.45 410.55 271.85 411 271.5 411.5 271.75 409.55 272.35 407.85 272.9 406.2 273.9 404.95 274.9 403.7 276.35 403 277.85 402.35 279.9 402.35 281.3 402.35 282.5 402.45 283.65 402.55 284.7 402.95 285.25 403.2 285.35 402.65
L 285.45 399.45
Q 285.5 399.05 285.15 398.95 284.25 398.6 282.8 398.4 281.4 398.2 280.25 398.2 276.5 398.2 273.95 399.5 271.4 400.85 269.8 403.1 268.25 405.3 267.55 408.35 266.85 411.35 266.85 414.75 266.85 422.2 269.4 425.75 271.95 429.3 276.65 429.3 278.95 429.3 280.8 428.5 282.65 427.7 283.95 426.25
M 271.5 418.7
Q 271.5 416.25 273 414.7 274.45 413.15 277.05 413.15 279.5 413.15 280.85 414.75 282.2 416.3 282.2 419.1 282.2 421.95 280.7 423.65 279.15 425.3 276.75 425.3 275.65 425.3 274.65 424.8 273.7 424.3 273 423.4 272.3 422.5 271.9 421.25 271.5 420.1 271.5 418.7
M 121.05 373.65
Q 119.3 373.2 117.5 373.2 115.8 373.2 114.15 373.55 112.45 373.95 110.7 374.55 110.3 374.75 110.15 374.95 110 375.1 110.1 375.35
L 110.45 378.3
Q 110.55 378.65 110.75 378.75 110.95 378.85 111.45 378.65 112.05 378.4 112.85 378.15 113.65 377.9 114.45 377.75 115.25 377.55 116 377.45 116.7 377.35 117.25 377.35 118.1 377.35 119.05 377.55 120 377.75 120.85 378.25 121.65 378.7 122.2 379.5 122.7 380.25 122.7 381.25 122.7 382.6 121.9 383.5 121.1 384.45 119.9 385.05 118.75 385.65 117.5 385.9 116.25 386.15 115.4 386.15
L 113.5 386.15
Q 113.15 386.15 113.05 386.25 112.95 386.3 112.95 386.7
L 112.95 389.65
Q 112.95 389.95 113.05 390.05 113.15 390.15 113.5 390.15
L 115.45 390.15
Q 117.4 390.15 118.75 390.55 120.15 390.9 121.05 391.6 121.9 392.25 122.35 393.1 122.75 393.95 122.75 394.9 122.75 397.55 120.8 398.9 120.15 399.35 119.4 399.6 118.6 399.9 117.75 400 116.9 400.1 116 400.05 115.1 400 114.3 399.95 113.2 399.85 112.15 399.55 111.1 399.25 110.05 398.95 109.5 398.7 109.3 398.85 109.1 398.95 109.05 399.3
L 108.7 402.35
Q 108.65 402.7 108.85 402.85 109 403.05 109.4 403.15 110.85 403.7 112.6 404 114.35 404.3 116.1 404.3 118.4 404.3 120.55 403.7 122.7 403.15 124.2 401.9 125.7 400.65 126.55 398.9 127.35 397.1 127.35 395 127.35 392.8 126 391 124.65 389.25 122 388.1 123.1 387.6 124.05 386.85 125 386.1 125.7 385.1 126.4 384.15 126.8 383.1 127.15 382 127.15 380.9 127.15 378.9 126.3 377.4 125.45 375.9 124.1 375 122.8 374.1 121.05 373.65
M 154.6 348.65
Q 154.5 348.75 154.3 349.1
L 141.9 367.7
Q 141.75 367.85 141.6 368.15 141.4 368.45 141.4 368.7
L 141.4 371.7
Q 141.4 372 141.55 372.05 141.7 372.15 142.05 372.15
L 154.85 372.15 154.85 378.25
Q 154.85 378.65 155 378.8 155.15 378.95 155.6 378.95
L 158.5 378.95
Q 158.9 378.95 159 378.8 159.15 378.7 159.15 378.25
L 159.15 372.15 162.85 372.15
Q 163.2 372.15 163.35 372.05 163.5 371.95 163.5 371.55
L 163.5 368.65
Q 163.5 368.25 163.35 368.15 163.2 368.05 162.85 368.05
L 159.15 368.05 159.15 349.15
Q 159.15 348.8 159.1 348.7 159.05 348.55 158.75 348.55
L 155.1 348.55
Q 154.7 348.55 154.6 348.65
M 146.25 368.05
L 154.85 355 154.85 368.05 146.25 368.05
M 152.35 403
Q 153.85 402.35 155.9 402.35 157.3 402.35 158.5 402.45 159.65 402.55 160.7 402.95 161.25 403.2 161.35 402.65
L 161.45 399.45
Q 161.5 399.05 161.15 398.95 160.25 398.6 158.8 398.4 157.4 398.2 156.25 398.2 152.5 398.2 149.95 399.5 147.4 400.85 145.8 403.1 144.25 405.3 143.55 408.35 142.85 411.35 142.85 414.75 142.85 422.2 145.4 425.75 147.95 429.3 152.65 429.3 154.95 429.3 156.8 428.5 158.65 427.7 159.95 426.25 161.25 424.9 161.9 422.95 162.6 421.1 162.6 418.9 162.6 416.6 161.9 414.8 161.2 412.95 159.9 411.65 158.65 410.35 156.85 409.65 155.1 408.95 152.9 408.95 152.15 408.95 151.35 409.2 150.55 409.4 149.8 409.75 149.05 410.1 148.45 410.55 147.85 411 147.5 411.5 147.75 409.55 148.35 407.85 148.9 406.2 149.9 404.95 150.9 403.7 152.35 403
M 147.5 418.7
Q 147.5 416.25 149 414.7 150.45 413.15 153.05 413.15 155.5 413.15 156.85 414.75 158.2 416.3 158.2 419.1 158.2 421.95 156.7 423.65 155.15 425.3 152.75 425.3 151.65 425.3 150.65 424.8 149.7 424.3 149 423.4 148.3 422.5 147.9 421.25 147.5 420.1 147.5 418.7
M 189 389.95
Q 189.15 390.1 189.4 390.1
L 202.3 390.1 204.9 390.1 210.55 390.1
Q 211.1 390.1 211.1 389.55
L 211.1 386.45
Q 211.1 385.95 210.55 385.95
L 204.9 385.95 202.3 385.95 189.4 385.95
Q 189.15 385.95 189 386.1 188.85 386.25 188.85 386.45
L 188.85 389.55
Q 188.85 389.75 189 389.95
M 538 378.65
Q 539.2 379.9 539.2 381.8 539.2 383.5 537.6 386.1 536 388.75 532.65 392.7
L 526.55 399.95
Q 526.35 400.25 526.15 400.55 526 400.9 526 401.2
L 526 403.5
Q 526 404 526.75 404
L 543.8 404
Q 544.35 404 544.35 403.3
L 544.35 400.5
Q 544.35 399.9 543.8 399.9
L 532.05 399.9
Q 533.05 398.75 534.05 397.6 535.05 396.4 535.9 395.3 537 394 538.4 392.4 539.75 390.75 540.95 389 542.15 387.2 542.95 385.35 543.75 383.5 543.75 381.7 543.75 379.6 543.05 378 542.35 376.4 541.2 375.35 540.05 374.3 538.4 373.75 536.8 373.2 534.85 373.2 533 373.2 531 373.85 529.05 374.5 527.55 375.3 527.15 375.5 527 375.75 526.9 375.9 527 376.1
L 527.55 379.15
Q 527.65 379.5 527.95 379.55 528.25 379.55 528.6 379.35 530.4 378.3 531.9 377.85 533.45 377.4 535.1 377.4 536.85 377.4 538 378.65
M 565.15 357.5
Q 565.4 357.5 565.65 357.35
L 568.6 354.75 568.6 378.45
Q 568.6 378.95 569.15 378.95
L 572.35 378.95
Q 572.85 378.95 572.85 378.45
L 572.85 349.65
Q 572.85 348.85 572.7 348.7 572.6 348.55 571.9 348.55
L 569.8 348.55
Q 569.65 348.55 569.45 348.65 569.25 348.7 569.2 348.8
L 563.05 354.45
Q 562.85 354.65 562.85 354.85 562.8 355.1 562.95 355.25
L 564.75 357.4
Q 564.9 357.55 565.15 357.5
M 482.35 389.95
Q 482.5 390.1 482.75 390.1
L 495.65 390.1 498.25 390.1 503.9 390.1
Q 504.45 390.1 504.45 389.55
L 504.45 386.45
Q 504.45 385.95 503.9 385.95
L 498.25 385.95 495.65 385.95 482.75 385.95
Q 482.5 385.95 482.35 386.1 482.2 386.25 482.2 386.45
L 482.2 389.55
Q 482.2 389.75 482.35 389.95
M 577.9 398.7
Q 577.75 398.5 577.5 398.5
L 562.85 398.5
Q 562.25 398.5 562.15 398.65 562 398.75 562 399.2
L 561.8 413.95
Q 561.8 415.3 563.35 414.65 564.6 414.2 566 413.95 567.4 413.65 568.7 413.65 572 413.65 573.4 415.2 574.85 416.7 574.85 419.3 574.85 422 573.05 423.5 571.35 425.05 568.65 425.05 567.95 425.05 567.1 424.95 566.3 424.9 565.45 424.75 564.6 424.55 563.8 424.35 563 424.1 562.45 423.8 561.6 423.4 561.6 424.1
L 561.6 427.35
Q 561.6 427.65 561.6 427.8 561.65 427.9 561.9 428.1 562.55 428.4 563.5 428.6 564.4 428.85 565.35 429 566.3 429.1 567.1 429.2 567.95 429.25 568.35 429.25 570.65 429.25 572.7 428.6 574.8 427.95 576.2 426.65 579.35 423.85 579.35 418.8 579.35 416.7 578.6 415.05 577.85 413.35 576.55 412.15 575.25 411 573.5 410.35 571.75 409.75 569.75 409.75 567.8 409.75 566.2 410.1
L 566.35 402.7 577.5 402.7
Q 577.75 402.7 577.9 402.5 578 402.35 578 402.1
L 578 399.05
Q 578 398.85 577.9 398.7
M 404.05 374.55
Q 403.65 374.75 403.5 374.95 403.35 375.1 403.45 375.35
L 403.8 378.3
Q 403.9 378.65 404.1 378.75 404.3 378.85 404.8 378.65 405.4 378.4 406.2 378.15 407 377.9 407.8 377.75 408.6 377.55 409.35 377.45 410.05 377.35 410.6 377.35 411.45 377.35 412.4 377.55 413.35 377.75 414.2 378.25 415 378.7 415.55 379.5 416.05 380.25 416.05 381.25 416.05 382.6 415.25 383.5 414.45 384.45 413.25 385.05 412.1 385.65 410.85 385.9 409.6 386.15 408.75 386.15
L 406.85 386.15
Q 406.5 386.15 406.4 386.25 406.3 386.3 406.3 386.7
L 406.3 389.65
Q 406.3 389.95 406.4 390.05 406.5 390.15 406.85 390.15
L 408.8 390.15
Q 410.75 390.15 412.1 390.55 413.5 390.9 414.4 391.6 415.25 392.25 415.7 393.1 416.1 393.95 416.1 394.9 416.1 397.55 414.15 398.9 413.5 399.35 412.75 399.6 411.95 399.9 411.1 400 410.25 400.1 409.35 400.05 408.45 400 407.65 399.95 406.55 399.85 405.5 399.55 404.45 399.25 403.4 398.95 402.85 398.7 402.65 398.85 402.45 398.95 402.4 399.3
L 402.05 402.35
Q 402 402.7 402.2 402.85 402.35 403.05 402.75 403.15 404.2 403.7 405.95 404 407.7 404.3 409.45 404.3 411.75 404.3 413.9 403.7 416.05 403.15 417.55 401.9 419.05 400.65 419.9 398.9 420.7 397.1 420.7 395 420.7 392.8 419.35 391 418 389.25 415.35 388.1 416.45 387.6 417.4 386.85 418.35 386.1 419.05 385.1 419.75 384.15 420.15 383.1 420.5 382 420.5 380.9 420.5 378.9 419.65 377.4 418.8 375.9 417.45 375 416.15 374.1 414.4 373.65 412.65 373.2 410.85 373.2 409.15 373.2 407.5 373.55 405.8 373.95 404.05 374.55
M 444.85 348.2
Q 443.15 348.2 441.5 348.55 439.8 348.95 438.05 349.55 437.65 349.75 437.5 349.95 437.35 350.1 437.45 350.35
L 437.8 353.3
Q 437.9 353.65 438.1 353.75 438.3 353.85 438.8 353.65 439.4 353.4 440.2 353.15 441 352.9 441.8 352.75 442.6 352.55 443.35 352.45 444.05 352.35 444.6 352.35 445.45 352.35 446.4 352.55 447.35 352.75 448.2 353.25 449 353.7 449.55 354.5 450.05 355.25 450.05 356.25 450.05 357.6 449.25 358.5 448.45 359.45 447.25 360.05 446.1 360.65 444.85 360.9 443.6 361.15 442.75 361.15
L 440.85 361.15
Q 440.5 361.15 440.4 361.25 440.3 361.3 440.3 361.7
L 440.3 364.65
Q 440.3 364.95 440.4 365.05 440.5 365.15 440.85 365.15
L 442.8 365.15
Q 444.75 365.15 446.1 365.55 447.5 365.9 448.4 366.6 449.25 367.25 449.7 368.1 450.1 368.95 450.1 369.9 450.1 372.55 448.15 373.9 447.5 374.35 446.75 374.6 445.95 374.9 445.1 375 444.25 375.1 443.35 375.05 442.45 375 441.65 374.95 440.55 374.85 439.5 374.55 438.45 374.25 437.4 373.95 436.85 373.7 436.65 373.85 436.45 373.95 436.4 374.3
L 436.05 377.35
Q 436 377.7 436.2 377.85 436.35 378.05 436.75 378.15 438.2 378.7 439.95 379 441.7 379.3 443.45 379.3 445.75 379.3 447.9 378.7 450.05 378.15 451.55 376.9 453.05 375.65 453.9 373.9 454.7 372.1 454.7 370 454.7 367.8 453.35 366 452 364.25 449.35 363.1 450.45 362.6 451.4 361.85 452.35 361.1 453.05 360.1 453.75 359.15 454.15 358.1 454.5 357 454.5 355.9 454.5 353.9 453.65 352.4 452.8 350.9 451.45 350 450.15 349.1 448.4 348.65 446.65 348.2 444.85 348.2
M 453.5 402.7
Q 453.75 402.7 453.9 402.5 454 402.35 454 402.1
L 454 399.05
Q 454 398.85 453.9 398.7 453.75 398.5 453.5 398.5
L 438.85 398.5
Q 438.25 398.5 438.15 398.65 438 398.75 438 399.2
L 437.8 413.95
Q 437.8 415.3 439.35 414.65 440.6 414.2 442 413.95 443.4 413.65 444.7 413.65 448 413.65 449.4 415.2 450.85 416.7 450.85 419.3 450.85 422 449.05 423.5 447.35 425.05 444.65 425.05 443.95 425.05 443.1 424.95 442.3 424.9 441.45 424.75 440.6 424.55 439.8 424.35 439 424.1 438.45 423.8 437.6 423.4 437.6 424.1
L 437.6 427.35
Q 437.6 427.65 437.6 427.8 437.65 427.9 437.9 428.1 438.55 428.4 439.5 428.6 440.4 428.85 441.35 429 442.3 429.1 443.1 429.2 443.95 429.25 444.35 429.25 446.65 429.25 448.7 428.6 450.8 427.95 452.2 426.65 455.35 423.85 455.35 418.8 455.35 416.7 454.6 415.05 453.85 413.35 452.55 412.15 451.25 411 449.5 410.35 447.75 409.75 445.75 409.75 443.8 409.75 442.2 410.1
L 442.35 402.7 453.5 402.7
M 990.55 388.95
Q 990.55 390.3 992.1 389.65 993.35 389.2 994.75 388.95 996.15 388.65 997.45 388.65 1000.75 388.65 1002.15 390.2 1003.6 391.7 1003.6 394.3 1003.6 397 1001.8 398.5 1000.1 400.05 997.4 400.05 996.7 400.05 995.85 399.95 995.05 399.9 994.2 399.75 993.35 399.55 992.55 399.35 991.75 399.1 991.2 398.8 990.35 398.4 990.35 399.1
L 990.35 402.35
Q 990.35 402.65 990.35 402.8 990.4 402.9 990.65 403.1 991.3 403.4 992.25 403.6 993.15 403.85 994.1 404 995.05 404.1 995.85 404.2 996.7 404.25 997.1 404.25 999.4 404.25 1001.45 403.6 1003.55 402.95 1004.95 401.65 1008.1 398.85 1008.1 393.8 1008.1 391.7 1007.35 390.05 1006.6 388.35 1005.3 387.15 1004 386 1002.25 385.35 1000.5 384.75 998.5 384.75 996.55 384.75 994.95 385.1
L 995.1 377.7 1006.25 377.7
Q 1006.5 377.7 1006.65 377.5 1006.75 377.35 1006.75 377.1
L 1006.75 374.05
Q 1006.75 373.85 1006.65 373.7 1006.5 373.5 1006.25 373.5
L 991.6 373.5
Q 991 373.5 990.9 373.65 990.75 373.75 990.75 374.2
L 990.55 388.95
M 1040.65 348.7
Q 1040.5 348.5 1040.25 348.5
L 1025.6 348.5
Q 1025 348.5 1024.9 348.65 1024.75 348.75 1024.75 349.2
L 1024.55 363.95
Q 1024.55 365.3 1026.1 364.65 1027.35 364.2 1028.75 363.95 1030.15 363.65 1031.45 363.65 1034.75 363.65 1036.15 365.2 1037.6 366.7 1037.6 369.3 1037.6 372 1035.8 373.5 1034.1 375.05 1031.4 375.05 1030.7 375.05 1029.85 374.95 1029.05 374.9 1028.2 374.75 1027.35 374.55 1026.55 374.35 1025.75 374.1 1025.2 373.8 1024.35 373.4 1024.35 374.1
L 1024.35 377.35
Q 1024.35 377.65 1024.35 377.8 1024.4 377.9 1024.65 378.1 1025.3 378.4 1026.25 378.6 1027.15 378.85 1028.1 379 1029.05 379.1 1029.85 379.2 1030.7 379.25 1031.1 379.25 1033.4 379.25 1035.45 378.6 1037.55 377.95 1038.95 376.65 1042.1 373.85 1042.1 368.8 1042.1 366.7 1041.35 365.05 1040.6 363.35 1039.3 362.15 1038 361 1036.25 360.35 1034.5 359.75 1032.5 359.75 1030.55 359.75 1028.95 360.1
L 1029.1 352.7 1040.25 352.7
Q 1040.5 352.7 1040.65 352.5 1040.75 352.35 1040.75 352.1
L 1040.75 349.05
Q 1040.75 348.85 1040.65 348.7
M 1041.5 402.35
Q 1041.75 402.05 1041.75 401.7
L 1041.75 399.3
Q 1041.75 398.85 1041.6 398.7 1041.45 398.55 1040.75 398.55
L 1023.75 398.55
Q 1023.05 398.55 1023.05 399.2
L 1023.05 402
Q 1023.05 402.35 1023.25 402.5 1023.45 402.7 1023.75 402.7
L 1036.5 402.7 1026.05 428.25
Q 1025.9 428.7 1026.05 428.8 1026.2 428.95 1026.8 428.95
L 1030.05 428.95
Q 1030.45 428.95 1030.6 428.85 1030.75 428.7 1030.95 428.4
L 1041.5 402.35
M 1130.5 381.7
Q 1130.5 379.6 1129.8 378 1129.1 376.4 1127.95 375.35 1126.8 374.3 1125.15 373.75 1123.55 373.2 1121.6 373.2 1119.75 373.2 1117.75 373.85 1115.8 374.5 1114.3 375.3 1113.9 375.5 1113.75 375.75 1113.65 375.9 1113.75 376.1
L 1114.3 379.15
Q 1114.4 379.5 1114.7 379.55 1115 379.55 1115.35 379.35 1117.15 378.3 1118.65 377.85 1120.2 377.4 1121.85 377.4 1123.6 377.4 1124.75 378.65 1125.95 379.9 1125.95 381.8 1125.95 383.5 1124.35 386.1 1122.75 388.75 1119.4 392.7
L 1113.3 399.95
Q 1113.1 400.25 1112.9 400.55 1112.75 400.9 1112.75 401.2
L 1112.75 403.5
Q 1112.75 404 1113.5 404
L 1130.55 404
Q 1131.1 404 1131.1 403.3
L 1131.1 400.5
Q 1131.1 399.9 1130.55 399.9
L 1118.8 399.9
Q 1119.8 398.75 1120.8 397.6 1121.8 396.4 1122.65 395.3 1123.75 394 1125.15 392.4 1126.5 390.75 1127.7 389 1128.9 387.2 1129.7 385.35 1130.5 383.5 1130.5 381.7
M 1164.9 358.1
Q 1165.25 357 1165.25 355.9 1165.25 353.9 1164.4 352.4 1163.55 350.9 1162.2 350 1160.9 349.1 1159.15 348.65 1157.4 348.2 1155.6 348.2 1153.9 348.2 1152.25 348.55 1150.55 348.95 1148.8 349.55 1148.4 349.75 1148.25 349.95 1148.1 350.1 1148.2 350.35
L 1148.55 353.3
Q 1148.65 353.65 1148.85 353.75 1149.05 353.85 1149.55 353.65 1150.15 353.4 1150.95 353.15 1151.75 352.9 1152.55 352.75 1153.35 352.55 1154.1 352.45 1154.8 352.35 1155.35 352.35 1156.2 352.35 1157.15 352.55 1158.1 352.75 1158.95 353.25 1159.75 353.7 1160.3 354.5 1160.8 355.25 1160.8 356.25 1160.8 357.6 1160 358.5 1159.2 359.45 1158 360.05 1156.85 360.65 1155.6 360.9 1154.35 361.15 1153.5 361.15
L 1151.6 361.15
Q 1151.25 361.15 1151.15 361.25 1151.05 361.3 1151.05 361.7
L 1151.05 364.65
Q 1151.05 364.95 1151.15 365.05 1151.25 365.15 1151.6 365.15
L 1153.55 365.15
Q 1155.5 365.15 1156.85 365.55 1158.25 365.9 1159.15 366.6 1160 367.25 1160.45 368.1 1160.85 368.95 1160.85 369.9 1160.85 372.55 1158.9 373.9 1158.25 374.35 1157.5 374.6 1156.7 374.9 1155.85 375 1155 375.1 1154.1 375.05 1153.2 375 1152.4 374.95 1151.3 374.85 1150.25 374.55 1149.2 374.25 1148.15 373.95 1147.6 373.7 1147.4 373.85 1147.2 373.95 1147.15 374.3
L 1146.8 377.35
Q 1146.75 377.7 1146.95 377.85 1147.1 378.05 1147.5 378.15 1148.95 378.7 1150.7 379 1152.45 379.3 1154.2 379.3 1156.5 379.3 1158.65 378.7 1160.8 378.15 1162.3 376.9 1163.8 375.65 1164.65 373.9 1165.45 372.1 1165.45 370 1165.45 367.8 1164.1 366 1162.75 364.25 1160.1 363.1 1161.2 362.6 1162.15 361.85 1163.1 361.1 1163.8 360.1 1164.5 359.15 1164.9 358.1
M 1165.5 402.35
Q 1165.75 402.05 1165.75 401.7
L 1165.75 399.3
Q 1165.75 398.85 1165.6 398.7 1165.45 398.55 1164.75 398.55
L 1147.75 398.55
Q 1147.05 398.55 1147.05 399.2
L 1147.05 402
Q 1147.05 402.35 1147.25 402.5 1147.45 402.7 1147.75 402.7
L 1160.5 402.7 1150.05 428.25
Q 1149.9 428.7 1150.05 428.8 1150.2 428.95 1150.8 428.95
L 1154.05 428.95
Q 1154.45 428.95 1154.6 428.85 1154.75 428.7 1154.95 428.4
L 1165.5 402.35
M 1069.5 385.95
Q 1069.25 385.95 1069.1 386.1 1068.95 386.25 1068.95 386.45
L 1068.95 389.55
Q 1068.95 389.75 1069.1 389.95 1069.25 390.1 1069.5 390.1
L 1082.4 390.1 1085 390.1 1090.65 390.1
Q 1091.2 390.1 1091.2 389.55
L 1091.2 386.45
Q 1091.2 385.95 1090.65 385.95
L 1085 385.95 1082.4 385.95 1069.5 385.95 Z"/>
</g>

<path id="Layer0_0_1_STROKES" stroke="#1E1E1E" stroke-width="3" stroke-linejoin="miter" stroke-linecap="butt" stroke-miterlimit="3" fill="none" d="
M 1013.55 388.5
L 1051.75 388.5
M 1137.55 388.5
L 1175.75 388.5
M 720.15 388.5
L 758.35 388.5
M 844.15 388.5
L 882.35 388.5
M 426.8 388.5
L 465 388.5
M 550.8 388.5
L 589 388.5
M 257.45 388.5
L 295.65 388.5
M 133.45 388.5
L 171.65 388.5"/>

<path id="Layer0_0_2_STROKES" stroke="#BBDECB" stroke-width="5" stroke-linejoin="miter" stroke-linecap="butt" stroke-miterlimit="3" fill="none" d="
M 55.5 277.05
L 1224.5 277.05
Q 1239.5 277.05 1239.5 292.05
L 1239.5 484
Q 1239.5 499 1224.5 499
L 55.5 499
Q 40.5 499 40.5 484
L 40.5 292.05
Q 40.5 277.05 55.5 277.05 Z"/>
</defs>

<g transform="matrix( 1, 0, 0, 1, 0,0) ">
<use xlink:href="#Layer0_0_FILL"/>

<use xlink:href="#Layer0_0_1_STROKES"/>

<use xlink:href="#Layer0_0_2_STROKES"/>
</g>
</svg>
