
<svg xmlns="http://www.w3.org/2000/svg" version="1.1" xmlns:xlink="http://www.w3.org/1999/xlink" preserveAspectRatio="none" x="0px" y="0px" width="1200px" height="1260px" viewBox="0 0 1200 1260">
<defs>
<path id="Layer0_0_1_STROKES" stroke="#FF7031" stroke-width="8" stroke-linejoin="miter" stroke-linecap="round" stroke-miterlimit="10" fill="none" d="
M 993.2 384.95
Q 993.45 397.1 990.9 411.7 984.75 447.6 963.65 465.9 939.6 486.75 913.65 492.8 891.5 497.95 850.9 495.15 811.65 492.4 787.1 484.55 760.3 476 718.5 451.7 688.2 433.15 670.75 423.4 639.85 406.05 614.85 397.8 544.8 374.7 487.55 411.35 455.65 431.75 443.55 466.35 432.4 498.35 441.15 532.45 449.85 566.55 475.05 588.95 502.35 613.25 540.3 615.3 566.7 616.75 618.65 618.65 662.85 621 690.25 626.95 725.75 634.5 747.75 650.35 772.95 668.45 783.65 699.1 794.35 729.7 791.1 755.2 788.3 777.7 775.2 794.25 763.65 808.9 746.35 816.4 730.4 823.3 715.25 821.9 703.95 820.85 682 821.25 646.9 822 642.65 821.9 591.7 821.85 562.9 810.35 547.4 804.15 526.75 785.25 522.55 781.4 489.25 748.05 465.7 724.35 449.4 712.65 426.6 696.3 406 693.3 348.65 684.95 312.5 696.05 262 711.55 240.2 765.6
L 236.5 777.7
Q 232.05 793.25 227.9 811.15 214.8 868.05 210.95 925.2"/>
</defs>

<g transform="matrix( 1, 0, 0, 1, 0,0) ">
<use xlink:href="#Layer0_0_1_STROKES"/>
</g>
</svg>
