
<svg xmlns="http://www.w3.org/2000/svg" version="1.1" xmlns:xlink="http://www.w3.org/1999/xlink" preserveAspectRatio="none" x="0px" y="0px" width="1280px" height="720px" viewBox="0 0 1280 720">
<defs>
<g id="Layer0_0_FILL">
<path fill="#1E1E1E" stroke="none" d="
M 501.95 428.95
L 499.35 428.95 486.45 428.95
Q 486.2 428.95 486.05 429.1 485.9 429.25 485.9 429.45
L 485.9 432.55
Q 485.9 432.75 486.05 432.95 486.2 433.1 486.45 433.1
L 499.35 433.1 501.95 433.1 507.6 433.1
Q 508.15 433.1 508.15 432.55
L 508.15 429.45
Q 508.15 428.95 507.6 428.95
L 501.95 428.95
M 211.6 433.1
Q 212.15 433.1 212.15 432.55
L 212.15 429.45
Q 212.15 428.95 211.6 428.95
L 205.95 428.95 203.35 428.95 190.45 428.95
Q 190.2 428.95 190.05 429.1 189.9 429.25 189.9 429.45
L 189.9 432.55
Q 189.9 432.75 190.05 432.95 190.2 433.1 190.45 433.1
L 203.35 433.1 205.95 433.1 211.6 433.1
M 1071.45 428.95
Q 1071.2 428.95 1071.05 429.1 1070.9 429.25 1070.9 429.45
L 1070.9 432.55
Q 1070.9 432.75 1071.05 432.95 1071.2 433.1 1071.45 433.1
L 1084.35 433.1 1086.95 433.1 1092.6 433.1
Q 1093.15 433.1 1093.15 432.55
L 1093.15 429.45
Q 1093.15 428.95 1092.6 428.95
L 1086.95 428.95 1084.35 428.95 1071.45 428.95
M 778.45 428.95
Q 778.2 428.95 778.05 429.1 777.9 429.25 777.9 429.45
L 777.9 432.55
Q 777.9 432.75 778.05 432.95 778.2 433.1 778.45 433.1
L 791.35 433.1 793.95 433.1 799.6 433.1
Q 800.15 433.1 800.15 432.55
L 800.15 429.45
Q 800.15 428.95 799.6 428.95
L 793.95 428.95 791.35 428.95 778.45 428.95
M 420.85 415.7
Q 420.7 415.55 420 415.55
L 403 415.55
Q 402.3 415.55 402.3 416.2
L 402.3 419
Q 402.3 419.35 402.5 419.5 402.7 419.7 403 419.7
L 415.75 419.7 405.3 445.25
Q 405.15 445.7 405.3 445.8 405.45 445.95 406.05 445.95
L 409.3 445.95
Q 409.7 445.95 409.85 445.85 410 445.7 410.2 445.4
L 420.75 419.35
Q 421 419.05 421 418.7
L 421 416.3
Q 421 415.85 420.85 415.7
M 453.15 443.75
Q 450.6 440.2 445.9 440.2 443.6 440.2 441.8 441 439.95 441.8 438.65 443.2 437.35 444.6 436.65 446.5 436 448.4 436 450.6 436 452.9 436.7 454.7 437.35 456.5 438.65 457.8 439.95 459.1 441.75 459.8 443.5 460.5 445.65 460.5 446.4 460.5 447.2 460.3 448 460.1 448.75 459.75 449.5 459.4 450.15 458.95 450.75 458.5 451.1 458 450.85 459.9 450.25 461.6 449.65 463.25 448.65 464.5 447.65 465.75 446.2 466.45 444.75 467.15 442.65 467.15 441.25 467.15 440.1 467.05 438.9 466.95 437.85 466.5 437.3 466.3 437.2 466.85
L 437.1 470.05
Q 437.05 470.45 437.4 470.55 438.35 470.9 439.75 471.1 441.2 471.3 442.35 471.3 446.05 471.3 448.6 469.95 451.2 468.65 452.75 466.4 454.35 464.15 455.05 461.15 455.7 458.1 455.7 454.75 455.7 447.3 453.15 443.75
M 445.85 444.15
Q 446.95 444.15 447.9 444.7 448.85 445.2 449.55 446.1 450.25 447 450.65 448.2 451.05 449.4 451.05 450.75 451.05 453.2 449.6 454.8 448.1 456.35 445.5 456.35 443.05 456.35 441.75 454.75 440.4 453.15 440.4 450.4 440.4 447.5 441.9 445.85 443.45 444.15 445.85 444.15
M 537.95 415.65
Q 537.85 415.75 537.65 416.1
L 525.25 434.7
Q 525.1 434.85 524.95 435.15 524.75 435.45 524.75 435.7
L 524.75 438.7
Q 524.75 439 524.9 439.05 525.05 439.15 525.4 439.15
L 538.2 439.15 538.2 445.25
Q 538.2 445.65 538.35 445.8 538.5 445.95 538.95 445.95
L 541.85 445.95
Q 542.25 445.95 542.35 445.8 542.5 445.7 542.5 445.25
L 542.5 439.15 546.2 439.15
Q 546.55 439.15 546.7 439.05 546.85 438.95 546.85 438.55
L 546.85 435.65
Q 546.85 435.25 546.7 435.15 546.55 435.05 546.2 435.05
L 542.5 435.05 542.5 416.15
Q 542.5 415.8 542.45 415.7 542.4 415.55 542.1 415.55
L 538.45 415.55
Q 538.05 415.55 537.95 415.65
M 538.2 435.05
L 529.6 435.05 538.2 422 538.2 435.05
M 577.15 443.75
Q 574.6 440.2 569.9 440.2 567.6 440.2 565.8 441 563.95 441.8 562.65 443.2 561.35 444.6 560.65 446.5 560 448.4 560 450.6 560 452.9 560.7 454.7 561.35 456.5 562.65 457.8 563.95 459.1 565.75 459.8 567.5 460.5 569.65 460.5 570.4 460.5 571.2 460.3 572 460.1 572.75 459.75 573.5 459.4 574.15 458.95 574.75 458.5 575.1 458 574.85 459.9 574.25 461.6 573.65 463.25 572.65 464.5 571.65 465.75 570.2 466.45 568.75 467.15 566.65 467.15 565.25 467.15 564.1 467.05 562.9 466.95 561.85 466.5 561.3 466.3 561.2 466.85
L 561.1 470.05
Q 561.05 470.45 561.4 470.55 562.35 470.9 563.75 471.1 565.2 471.3 566.35 471.3 570.05 471.3 572.6 469.95 575.2 468.65 576.75 466.4 578.35 464.15 579.05 461.15 579.7 458.1 579.7 454.75 579.7 447.3 577.15 443.75
M 569.85 444.15
Q 570.95 444.15 571.9 444.7 572.85 445.2 573.55 446.1 574.25 447 574.65 448.2 575.05 449.4 575.05 450.75 575.05 453.2 573.6 454.8 572.1 456.35 569.5 456.35 567.05 456.35 565.75 454.75 564.4 453.15 564.4 450.4 564.4 447.5 565.9 445.85 567.45 444.15 569.85 444.15
M 143.65 440.55
Q 142.95 440.55 142.95 441.2
L 142.95 444
Q 142.95 444.35 143.15 444.5 143.35 444.7 143.65 444.7
L 156.4 444.7 145.95 470.25
Q 145.8 470.7 145.95 470.8 146.1 470.95 146.7 470.95
L 149.95 470.95
Q 150.35 470.95 150.5 470.85 150.65 470.7 150.85 470.4
L 161.4 444.35
Q 161.65 444.05 161.65 443.7
L 161.65 441.3
Q 161.65 440.85 161.5 440.7 161.35 440.55 160.65 440.55
L 143.65 440.55
M 121.9 419.35
Q 123.3 419.35 124.5 419.45 125.65 419.55 126.7 419.95 127.25 420.2 127.35 419.65
L 127.45 416.45
Q 127.5 416.05 127.15 415.95 126.25 415.6 124.8 415.4 123.4 415.2 122.25 415.2 118.5 415.2 115.95 416.5 113.4 417.85 111.8 420.1 110.25 422.3 109.55 425.35 108.85 428.35 108.85 431.75 108.85 439.2 111.4 442.75 113.95 446.3 118.65 446.3 120.95 446.3 122.8 445.5 124.65 444.7 125.95 443.25 127.25 441.9 127.9 439.95 128.6 438.1 128.6 435.9 128.6 433.6 127.9 431.8 127.2 429.95 125.9 428.65 124.65 427.35 122.85 426.65 121.1 425.95 118.9 425.95 118.15 425.95 117.35 426.2 116.55 426.4 115.8 426.75 115.05 427.1 114.45 427.55 113.85 428 113.5 428.5 113.75 426.55 114.35 424.85 114.9 423.2 115.9 421.95 116.9 420.7 118.35 420 119.85 419.35 121.9 419.35
M 124.2 436.1
Q 124.2 438.95 122.7 440.65 121.15 442.3 118.75 442.3 117.65 442.3 116.65 441.8 115.7 441.3 115 440.4 114.3 439.5 113.9 438.25 113.5 437.1 113.5 435.7 113.5 433.25 115 431.7 116.45 430.15 119.05 430.15 121.5 430.15 122.85 431.75 124.2 433.3 124.2 436.1
M 247.85 417.35
Q 246.7 416.3 245.05 415.75 243.45 415.2 241.5 415.2 239.65 415.2 237.65 415.85 235.7 416.5 234.2 417.3 233.8 417.5 233.65 417.75 233.55 417.9 233.65 418.1
L 234.2 421.15
Q 234.3 421.5 234.6 421.55 234.9 421.55 235.25 421.35 237.05 420.3 238.55 419.85 240.1 419.4 241.75 419.4 243.5 419.4 244.65 420.65 245.85 421.9 245.85 423.8 245.85 425.5 244.25 428.1 242.65 430.75 239.3 434.7
L 233.2 441.95
Q 233 442.25 232.8 442.55 232.65 442.9 232.65 443.2
L 232.65 445.5
Q 232.65 446 233.4 446
L 250.45 446
Q 251 446 251 445.3
L 251 442.5
Q 251 441.9 250.45 441.9
L 238.7 441.9
Q 239.7 440.75 240.7 439.6 241.7 438.4 242.55 437.3 243.65 436 245.05 434.4 246.4 432.75 247.6 431 248.8 429.2 249.6 427.35 250.4 425.5 250.4 423.7 250.4 421.6 249.7 420 249 418.4 247.85 417.35
M 285.5 440.7
Q 285.35 440.55 284.65 440.55
L 267.65 440.55
Q 266.95 440.55 266.95 441.2
L 266.95 444
Q 266.95 444.35 267.15 444.5 267.35 444.7 267.65 444.7
L 280.4 444.7 269.95 470.25
Q 269.8 470.7 269.95 470.8 270.1 470.95 270.7 470.95
L 273.95 470.95
Q 274.35 470.95 274.5 470.85 274.65 470.7 274.85 470.4
L 285.4 444.35
Q 285.65 444.05 285.65 443.7
L 285.65 441.3
Q 285.65 440.85 285.5 440.7
M 278.6 390.65
Q 278.5 390.75 278.3 391.1
L 265.9 409.7
Q 265.75 409.85 265.6 410.15 265.4 410.45 265.4 410.7
L 265.4 413.7
Q 265.4 414 265.55 414.05 265.7 414.15 266.05 414.15
L 278.85 414.15 278.85 420.25
Q 278.85 420.65 279 420.8 279.15 420.95 279.6 420.95
L 282.5 420.95
Q 282.9 420.95 283 420.8 283.15 420.7 283.15 420.25
L 283.15 414.15 286.85 414.15
Q 287.2 414.15 287.35 414.05 287.5 413.95 287.5 413.55
L 287.5 410.65
Q 287.5 410.25 287.35 410.15 287.2 410.05 286.85 410.05
L 283.15 410.05 283.15 391.15
Q 283.15 390.8 283.1 390.7 283.05 390.55 282.75 390.55
L 279.1 390.55
Q 278.7 390.55 278.6 390.65
M 278.85 410.05
L 270.25 410.05 278.85 397 278.85 410.05
M 148.55 394.85
Q 150.1 394.4 151.75 394.4 153.5 394.4 154.65 395.65 155.85 396.9 155.85 398.8 155.85 400.5 154.25 403.1 152.65 405.75 149.3 409.7
L 143.2 416.95
Q 143 417.25 142.8 417.55 142.65 417.9 142.65 418.2
L 142.65 420.5
Q 142.65 421 143.4 421
L 160.45 421
Q 161 421 161 420.3
L 161 417.5
Q 161 416.9 160.45 416.9
L 148.7 416.9
Q 149.7 415.75 150.7 414.6 151.7 413.4 152.55 412.3 153.65 411 155.05 409.4 156.4 407.75 157.6 406 158.8 404.2 159.6 402.35 160.4 400.5 160.4 398.7 160.4 396.6 159.7 395 159 393.4 157.85 392.35 156.7 391.3 155.05 390.75 153.45 390.2 151.5 390.2 149.65 390.2 147.65 390.85 145.7 391.5 144.2 392.3 143.8 392.5 143.65 392.75 143.55 392.9 143.65 393.1
L 144.2 396.15
Q 144.3 396.5 144.6 396.55 144.9 396.55 145.25 396.35 147.05 395.3 148.55 394.85
M 560.5 394.5
Q 560.7 394.7 561 394.7
L 573.75 394.7 563.3 420.25
Q 563.15 420.7 563.3 420.8 563.45 420.95 564.05 420.95
L 567.3 420.95
Q 567.7 420.95 567.85 420.85 568 420.7 568.2 420.4
L 578.75 394.35
Q 579 394.05 579 393.7
L 579 391.3
Q 579 390.85 578.85 390.7 578.7 390.55 578 390.55
L 561 390.55
Q 560.3 390.55 560.3 391.2
L 560.3 394
Q 560.3 394.35 560.5 394.5
M 452.5 391.15
Q 452.5 390.8 452.45 390.7 452.4 390.55 452.1 390.55
L 448.45 390.55
Q 448.05 390.55 447.95 390.65 447.85 390.75 447.65 391.1
L 435.25 409.7
Q 435.1 409.85 434.95 410.15 434.75 410.45 434.75 410.7
L 434.75 413.7
Q 434.75 414 434.9 414.05 435.05 414.15 435.4 414.15
L 448.2 414.15 448.2 420.25
Q 448.2 420.65 448.35 420.8 448.5 420.95 448.95 420.95
L 451.85 420.95
Q 452.25 420.95 452.35 420.8 452.5 420.7 452.5 420.25
L 452.5 414.15 456.2 414.15
Q 456.55 414.15 456.7 414.05 456.85 413.95 456.85 413.55
L 456.85 410.65
Q 456.85 410.25 456.7 410.15 456.55 410.05 456.2 410.05
L 452.5 410.05 452.5 391.15
M 448.2 397
L 448.2 410.05 439.6 410.05 448.2 397
M 1007.25 419.55
Q 1006.55 418.15 1005.35 417.2 1004.15 416.25 1002.45 415.7 1000.75 415.2 998.75 415.2 996.8 415.2 995.1 415.75 993.4 416.3 992.15 417.3 990.9 418.3 990.15 419.7 989.4 421.1 989.4 422.8 989.4 425.1 990.8 426.9 992.2 428.7 994.6 430.1 993.4 430.7 992.3 431.4 991.2 432.1 990.4 433 989.6 433.9 989.05 435.05 988.6 436.2 988.6 437.7 988.6 439.85 989.5 441.45 990.4 443.1 991.85 444.15 993.3 445.2 995.1 445.75 996.95 446.3 998.75 446.3 1000.7 446.3 1002.5 445.75 1004.4 445.2 1005.8 444.15 1007.2 443.1 1008.05 441.45 1008.95 439.85 1008.95 437.7 1008.95 436.3 1008.5 435.3 1008.1 434.25 1007.3 433.35 1006.5 432.45 1005.4 431.65 1004.25 430.9 1002.85 430.05 1005.45 428.25 1006.7 426.5 1007.95 424.7 1007.95 422.7 1007.95 420.95 1007.25 419.55
M 998.75 419.1
Q 999.7 419.1 1000.55 419.45 1001.4 419.7 1002.05 420.25 1002.7 420.8 1003.05 421.5 1003.45 422.2 1003.45 423 1003.45 423.7 1002.95 424.5 1002.45 425.3 1001.7 426.05 1000.95 426.75 1000.15 427.3 999.4 427.85 998.75 428.1 998.25 427.9 997.45 427.4 996.65 426.95 995.85 426.25 995.1 425.55 994.55 424.75 993.95 423.95 993.95 423.1 993.95 422.15 994.4 421.4 994.85 420.7 995.55 420.2 996.2 419.7 997.05 419.4 997.9 419.1 998.75 419.1
M 997 432.95
Q 997.95 432.5 998.75 432.3 999.75 432.65 1000.75 433.25 1001.75 433.85 1002.6 434.55 1003.4 435.3 1003.9 436.1 1004.4 436.95 1004.4 437.7 1004.4 438.75 1003.9 439.6 1003.4 440.45 1002.6 441.05 1001.8 441.65 1000.8 441.95 999.75 442.25 998.75 442.25 997.8 442.25 996.75 441.95 995.75 441.6 994.9 441 994.1 440.4 993.6 439.55 993.05 438.7 993.05 437.7 993.05 436.45 993.65 435.55 994.25 434.65 995.1 434 995.95 433.35 997 432.95
M 1024.9 440.65
Q 1024.75 440.75 1024.75 441.2
L 1024.55 455.95
Q 1024.55 457.3 1026.1 456.65 1027.35 456.2 1028.75 455.95 1030.15 455.65 1031.45 455.65 1034.75 455.65 1036.15 457.2 1037.6 458.7 1037.6 461.3 1037.6 464 1035.8 465.5 1034.1 467.05 1031.4 467.05 1030.7 467.05 1029.85 466.95 1029.05 466.9 1028.2 466.75 1027.35 466.55 1026.55 466.35 1025.75 466.1 1025.2 465.8 1024.35 465.4 1024.35 466.1
L 1024.35 469.35
Q 1024.35 469.65 1024.35 469.8 1024.4 469.9 1024.65 470.1 1025.3 470.4 1026.25 470.6 1027.15 470.85 1028.1 471 1029.05 471.1 1029.85 471.2 1030.7 471.25 1031.1 471.25 1033.4 471.25 1035.45 470.6 1037.55 469.95 1038.95 468.65 1042.1 465.85 1042.1 460.8 1042.1 458.7 1041.35 457.05 1040.6 455.35 1039.3 454.15 1038 453 1036.25 452.35 1034.5 451.75 1032.5 451.75 1030.55 451.75 1028.95 452.1
L 1029.1 444.7 1040.25 444.7
Q 1040.5 444.7 1040.65 444.5 1040.75 444.35 1040.75 444.1
L 1040.75 441.05
Q 1040.75 440.85 1040.65 440.7 1040.5 440.5 1040.25 440.5
L 1025.6 440.5
Q 1025 440.5 1024.9 440.65
M 1129.25 416.15
Q 1129.25 415.8 1129.2 415.7 1129.15 415.55 1128.85 415.55
L 1125.2 415.55
Q 1124.8 415.55 1124.7 415.65 1124.6 415.75 1124.4 416.1
L 1112 434.7
Q 1111.85 434.85 1111.7 435.15 1111.5 435.45 1111.5 435.7
L 1111.5 438.7
Q 1111.5 439 1111.65 439.05 1111.8 439.15 1112.15 439.15
L 1124.95 439.15 1124.95 445.25
Q 1124.95 445.65 1125.1 445.8 1125.25 445.95 1125.7 445.95
L 1128.6 445.95
Q 1129 445.95 1129.1 445.8 1129.25 445.7 1129.25 445.25
L 1129.25 439.15 1132.95 439.15
Q 1133.3 439.15 1133.45 439.05 1133.6 438.95 1133.6 438.55
L 1133.6 435.65
Q 1133.6 435.25 1133.45 435.15 1133.3 435.05 1132.95 435.05
L 1129.25 435.05 1129.25 416.15
M 1116.35 435.05
L 1124.95 422 1124.95 435.05 1116.35 435.05
M 1148.9 440.65
Q 1148.75 440.75 1148.75 441.2
L 1148.55 455.95
Q 1148.55 457.3 1150.1 456.65 1151.35 456.2 1152.75 455.95 1154.15 455.65 1155.45 455.65 1158.75 455.65 1160.15 457.2 1161.6 458.7 1161.6 461.3 1161.6 464 1159.8 465.5 1158.1 467.05 1155.4 467.05 1154.7 467.05 1153.85 466.95 1153.05 466.9 1152.2 466.75 1151.35 466.55 1150.55 466.35 1149.75 466.1 1149.2 465.8 1148.35 465.4 1148.35 466.1
L 1148.35 469.35
Q 1148.35 469.65 1148.35 469.8 1148.4 469.9 1148.65 470.1 1149.3 470.4 1150.25 470.6 1151.15 470.85 1152.1 471 1153.05 471.1 1153.85 471.2 1154.7 471.25 1155.1 471.25 1157.4 471.25 1159.45 470.6 1161.55 469.95 1162.95 468.65 1166.1 465.85 1166.1 460.8 1166.1 458.7 1165.35 457.05 1164.6 455.35 1163.3 454.15 1162 453 1160.25 452.35 1158.5 451.75 1156.5 451.75 1154.55 451.75 1152.95 452.1
L 1153.1 444.7 1164.25 444.7
Q 1164.5 444.7 1164.65 444.5 1164.75 444.35 1164.75 444.1
L 1164.75 441.05
Q 1164.75 440.85 1164.65 440.7 1164.5 440.5 1164.25 440.5
L 1149.6 440.5
Q 1149 440.5 1148.9 440.65
M 712.85 419.7
Q 713.1 419.7 713.25 419.5 713.35 419.35 713.35 419.1
L 713.35 416.05
Q 713.35 415.85 713.25 415.7 713.1 415.5 712.85 415.5
L 698.2 415.5
Q 697.6 415.5 697.5 415.65 697.35 415.75 697.35 416.2
L 697.15 430.95
Q 697.15 432.3 698.7 431.65 699.95 431.2 701.35 430.95 702.75 430.65 704.05 430.65 707.35 430.65 708.75 432.2 710.2 433.7 710.2 436.3 710.2 439 708.4 440.5 706.7 442.05 704 442.05 703.3 442.05 702.45 441.95 701.65 441.9 700.8 441.75 699.95 441.55 699.15 441.35 698.35 441.1 697.8 440.8 696.95 440.4 696.95 441.1
L 696.95 444.35
Q 696.95 444.65 696.95 444.8 697 444.9 697.25 445.1 697.9 445.4 698.85 445.6 699.75 445.85 700.7 446 701.65 446.1 702.45 446.2 703.3 446.25 703.7 446.25 706 446.25 708.05 445.6 710.15 444.95 711.55 443.65 714.7 440.85 714.7 435.8 714.7 433.7 713.95 432.05 713.2 430.35 711.9 429.15 710.6 428 708.85 427.35 707.1 426.75 705.1 426.75 703.15 426.75 701.55 427.1
L 701.7 419.7 712.85 419.7
M 729.65 441.2
L 729.65 444
Q 729.65 444.35 729.85 444.5 730.05 444.7 730.35 444.7
L 743.1 444.7 732.65 470.25
Q 732.5 470.7 732.65 470.8 732.8 470.95 733.4 470.95
L 736.65 470.95
Q 737.05 470.95 737.2 470.85 737.35 470.7 737.55 470.4
L 748.1 444.35
Q 748.35 444.05 748.35 443.7
L 748.35 441.3
Q 748.35 440.85 748.2 440.7 748.05 440.55 747.35 440.55
L 730.35 440.55
Q 729.65 440.55 729.65 441.2
M 837 419.4
Q 836.15 417.9 834.8 417 833.5 416.1 831.75 415.65 830 415.2 828.2 415.2 826.5 415.2 824.85 415.55 823.15 415.95 821.4 416.55 821 416.75 820.85 416.95 820.7 417.1 820.8 417.35
L 821.15 420.3
Q 821.25 420.65 821.45 420.75 821.65 420.85 822.15 420.65 822.75 420.4 823.55 420.15 824.35 419.9 825.15 419.75 825.95 419.55 826.7 419.45 827.4 419.35 827.95 419.35 828.8 419.35 829.75 419.55 830.7 419.75 831.55 420.25 832.35 420.7 832.9 421.5 833.4 422.25 833.4 423.25 833.4 424.6 832.6 425.5 831.8 426.45 830.6 427.05 829.45 427.65 828.2 427.9 826.95 428.15 826.1 428.15
L 824.2 428.15
Q 823.85 428.15 823.75 428.25 823.65 428.3 823.65 428.7
L 823.65 431.65
Q 823.65 431.95 823.75 432.05 823.85 432.15 824.2 432.15
L 826.15 432.15
Q 828.1 432.15 829.45 432.55 830.85 432.9 831.75 433.6 832.6 434.25 833.05 435.1 833.45 435.95 833.45 436.9 833.45 439.55 831.5 440.9 830.85 441.35 830.1 441.6 829.3 441.9 828.45 442 827.6 442.1 826.7 442.05 825.8 442 825 441.95 823.9 441.85 822.85 441.55 821.8 441.25 820.75 440.95 820.2 440.7 820 440.85 819.8 440.95 819.75 441.3
L 819.4 444.35
Q 819.35 444.7 819.55 444.85 819.7 445.05 820.1 445.15 821.55 445.7 823.3 446 825.05 446.3 826.8 446.3 829.1 446.3 831.25 445.7 833.4 445.15 834.9 443.9 836.4 442.65 837.25 440.9 838.05 439.1 838.05 437 838.05 434.8 836.7 433 835.35 431.25 832.7 430.1 833.8 429.6 834.75 428.85 835.7 428.1 836.4 427.1 837.1 426.15 837.5 425.1 837.85 424 837.85 422.9 837.85 420.9 837 419.4
M 854.35 440.55
Q 853.65 440.55 853.65 441.2
L 853.65 444
Q 853.65 444.35 853.85 444.5 854.05 444.7 854.35 444.7
L 867.1 444.7 856.65 470.25
Q 856.5 470.7 856.65 470.8 856.8 470.95 857.4 470.95
L 860.65 470.95
Q 861.05 470.95 861.2 470.85 861.35 470.7 861.55 470.4
L 872.1 444.35
Q 872.35 444.05 872.35 443.7
L 872.35 441.3
Q 872.35 440.85 872.2 440.7 872.05 440.55 871.35 440.55
L 854.35 440.55
M 854.35 392.75
Q 854.25 392.9 854.35 393.1
L 854.9 396.15
Q 855 396.5 855.3 396.55 855.6 396.55 855.95 396.35 857.75 395.3 859.25 394.85 860.8 394.4 862.45 394.4 864.2 394.4 865.35 395.65 866.55 396.9 866.55 398.8 866.55 400.5 864.95 403.1 863.35 405.75 860 409.7
L 853.9 416.95
Q 853.7 417.25 853.5 417.55 853.35 417.9 853.35 418.2
L 853.35 420.5
Q 853.35 421 854.1 421
L 871.15 421
Q 871.7 421 871.7 420.3
L 871.7 417.5
Q 871.7 416.9 871.15 416.9
L 859.4 416.9
Q 860.4 415.75 861.4 414.6 862.4 413.4 863.25 412.3 864.35 411 865.75 409.4 867.1 407.75 868.3 406 869.5 404.2 870.3 402.35 871.1 400.5 871.1 398.7 871.1 396.6 870.4 395 869.7 393.4 868.55 392.35 867.4 391.3 865.75 390.75 864.15 390.2 862.2 390.2 860.35 390.2 858.35 390.85 856.4 391.5 854.9 392.3 854.5 392.5 854.35 392.75
M 738.8 390.65
Q 738.6 390.7 738.55 390.8
L 732.4 396.45
Q 732.2 396.65 732.2 396.85 732.15 397.1 732.3 397.25
L 734.1 399.4
Q 734.25 399.55 734.5 399.5 734.75 399.5 735 399.35
L 737.95 396.75 737.95 420.45
Q 737.95 420.95 738.5 420.95
L 741.7 420.95
Q 742.2 420.95 742.2 420.45
L 742.2 391.65
Q 742.2 390.85 742.05 390.7 741.95 390.55 741.25 390.55
L 739.15 390.55
Q 739 390.55 738.8 390.65
M 1163.25 391.15
Q 1163.25 390.8 1163.2 390.7 1163.15 390.55 1162.85 390.55
L 1159.2 390.55
Q 1158.8 390.55 1158.7 390.65 1158.6 390.75 1158.4 391.1
L 1146 409.7
Q 1145.85 409.85 1145.7 410.15 1145.5 410.45 1145.5 410.7
L 1145.5 413.7
Q 1145.5 414 1145.65 414.05 1145.8 414.15 1146.15 414.15
L 1158.95 414.15 1158.95 420.25
Q 1158.95 420.65 1159.1 420.8 1159.25 420.95 1159.7 420.95
L 1162.6 420.95
Q 1163 420.95 1163.1 420.8 1163.25 420.7 1163.25 420.25
L 1163.25 414.15 1166.95 414.15
Q 1167.3 414.15 1167.45 414.05 1167.6 413.95 1167.6 413.55
L 1167.6 410.65
Q 1167.6 410.25 1167.45 410.15 1167.3 410.05 1166.95 410.05
L 1163.25 410.05 1163.25 391.15
M 1158.95 397
L 1158.95 410.05 1150.35 410.05 1158.95 397
M 1028.65 394.85
Q 1030.2 394.4 1031.85 394.4 1033.6 394.4 1034.75 395.65 1035.95 396.9 1035.95 398.8 1035.95 400.5 1034.35 403.1 1032.75 405.75 1029.4 409.7
L 1023.3 416.95
Q 1023.1 417.25 1022.9 417.55 1022.75 417.9 1022.75 418.2
L 1022.75 420.5
Q 1022.75 421 1023.5 421
L 1040.55 421
Q 1041.1 421 1041.1 420.3
L 1041.1 417.5
Q 1041.1 416.9 1040.55 416.9
L 1028.8 416.9
Q 1029.8 415.75 1030.8 414.6 1031.8 413.4 1032.65 412.3 1033.75 411 1035.15 409.4 1036.5 407.75 1037.7 406 1038.9 404.2 1039.7 402.35 1040.5 400.5 1040.5 398.7 1040.5 396.6 1039.8 395 1039.1 393.4 1037.95 392.35 1036.8 391.3 1035.15 390.75 1033.55 390.2 1031.6 390.2 1029.75 390.2 1027.75 390.85 1025.8 391.5 1024.3 392.3 1023.9 392.5 1023.75 392.75 1023.65 392.9 1023.75 393.1
L 1024.3 396.15
Q 1024.4 396.5 1024.7 396.55 1025 396.55 1025.35 396.35 1027.15 395.3 1028.65 394.85 Z"/>
</g>

<path id="Layer0_0_1_STROKES" stroke="#1E1E1E" stroke-width="3" stroke-linejoin="miter" stroke-linecap="butt" stroke-miterlimit="3" fill="none" d="
M 844.15 430.5
L 882.35 430.5
M 720.15 430.5
L 758.35 430.5
M 1137.55 430.5
L 1175.75 430.5
M 1013.55 430.5
L 1051.75 430.5
M 257.45 430.5
L 295.65 430.5
M 133.45 430.5
L 171.65 430.5
M 550.8 430.5
L 589 430.5
M 426.8 430.5
L 465 430.5"/>

<path id="Layer0_0_2_STROKES" stroke="#BBDECB" stroke-width="5" stroke-linejoin="miter" stroke-linecap="butt" stroke-miterlimit="3" fill="none" d="
M 55.5 319.05
L 1224.5 319.05
Q 1239.5 319.05 1239.5 334.05
L 1239.5 526
Q 1239.5 541 1224.5 541
L 55.5 541
Q 40.5 541 40.5 526
L 40.5 334.05
Q 40.5 319.05 55.5 319.05 Z"/>
</defs>

<g transform="matrix( 1, 0, 0, 1, 0,0) ">
<use xlink:href="#Layer0_0_FILL"/>

<use xlink:href="#Layer0_0_1_STROKES"/>

<use xlink:href="#Layer0_0_2_STROKES"/>
</g>
</svg>
