<svg xmlns="http://www.w3.org/2000/svg" xmlns:xlink="http://www.w3.org/1999/xlink" viewBox="0 0 186.83 96.09"><defs><style>.cls-1,.cls-12,.cls-13,.cls-14,.cls-15,.cls-17,.cls-4,.cls-5,.cls-6,.cls-7,.cls-8,.cls-9{fill:none;}.cls-2{clip-path:url(#clip-path);}.cls-3{fill:#d7e7af;}.cls-17,.cls-4,.cls-7,.cls-8,.cls-9{stroke:#231815;}.cls-4{stroke-width:0.25px;}.cls-4,.cls-6{stroke-dasharray:1.5 1;}.cls-5,.cls-6{stroke:#007e35;}.cls-5,.cls-7{stroke-linejoin:bevel;}.cls-5{stroke-width:0.8px;}.cls-6,.cls-8{stroke-width:0.5px;}.cls-9{stroke-width:0.3px;}.cls-10{fill:#231815;}.cls-11{fill:#e4007f;}.cls-12,.cls-14{stroke:#f19ec2;}.cls-12,.cls-13{stroke-width:0px;}.cls-13,.cls-15{stroke:#e4007f;}.cls-14,.cls-15{stroke-width:0px;}.cls-16{fill:#fff;}.cls-17{stroke-width:0.4px;}</style><clipPath id="clip-path" transform="translate(-0.59 -3.18)"><rect class="cls-1" width="187.42" height="100.98"/></clipPath></defs><title>자산 3</title><g id="레이어_2" data-name="레이어 2"><g id="레이어_1-2" data-name="레이어 1"><g class="cls-2"><rect class="cls-3" x="2.76" y="29.82" width="170.08" height="22.68"/><path class="cls-4" d="M3.81,55.9c23.67,38.35,78.77,37.38,105.25,0" transform="translate(-0.59 -3.18)"/><rect class="cls-5" x="2.76" y="29.82" width="170.08" height="22.68"/><path class="cls-6" d="M24.61,33V55.68M67.13,33V55.68m85-22.68V55.68M130.91,33V55.68M109.65,33V55.68M88.39,33V55.68M45.87,33V55.68M3.35,33V55.68m170.08,0V33" transform="translate(-0.59 -3.18)"/><line class="cls-7" x1="2.77" y1="20.48" x2="172.84" y2="20.48"/><path class="cls-8" d="M3.35,15.48v8.18m170.08,0V15.48" transform="translate(-0.59 -3.18)"/><path class="cls-9" d="M24.61,18.37v5.29m42.52-5.29v5.29M45.87,18.37v5.29m106.3-5.29v5.29m-21.26-5.29v5.29m-21.26-5.29v5.29M88.39,18.37v5.29" transform="translate(-0.59 -3.18)"/><path class="cls-10" d="M174.32,3.25a.75.75,0,0,1,.45.12.44.44,0,0,1,.18.4V11.4a.42.42,0,0,1-.18.38.8.8,0,0,1-.84,0,.42.42,0,0,1-.18-.38V4.67L172,5.77a.45.45,0,0,1-.43.05.66.66,0,0,1-.33-.29.69.69,0,0,1-.06-.4.44.44,0,0,1,.24-.33l2.15-1.28a2.29,2.29,0,0,1,.43-.2A1,1,0,0,1,174.32,3.25Z" transform="translate(-0.59 -3.18)"/><path class="cls-10" d="M3.66,3.18A2.65,2.65,0,0,1,6,4.24a5.38,5.38,0,0,1,.72,3v.59A5.39,5.39,0,0,1,6,10.92,2.67,2.67,0,0,1,3.66,12a2.67,2.67,0,0,1-2.35-1.06,5.39,5.39,0,0,1-.72-3V7.28a5.38,5.38,0,0,1,.72-3A2.65,2.65,0,0,1,3.66,3.18Zm0,1.13a2,2,0,0,0-.89.18,1.28,1.28,0,0,0-.57.56,2.65,2.65,0,0,0-.31,1A9,9,0,0,0,1.8,7.38v.4a9.2,9.2,0,0,0,.09,1.38,2.65,2.65,0,0,0,.31.95,1.34,1.34,0,0,0,.57.56,2,2,0,0,0,.89.18,2,2,0,0,0,.89-.18,1.34,1.34,0,0,0,.57-.56,2.65,2.65,0,0,0,.31-.95,9.2,9.2,0,0,0,.09-1.38v-.4A9,9,0,0,0,5.43,6a2.65,2.65,0,0,0-.31-1,1.28,1.28,0,0,0-.57-.56A2,2,0,0,0,3.66,4.31Z" transform="translate(-0.59 -3.18)"/><path class="cls-11" d="M158.62,69.92s.06-.28.21.09l.19.26.27.14.05.23c0-.59-.41,1.87-6,0a16.31,16.31,0,0,1-4-3.39c.47,0-2.06-.87-.55-3.78.51-.59,2.21-2.16,3.79-.82,1.47.7,1.37,3.67-.35,4.23-3.36,1.7-6-1.56-7-3.32a16,16,0,0,1-1.66-4,16.43,16.43,0,0,0,3.25,6.07c1.19,1.35,3.35,2.17,4.91,1.45a2.8,2.8,0,0,0,1.86-2.4,2.58,2.58,0,0,1-1.29,2,4.09,4.09,0,0,1-4.74-.49,13.23,13.23,0,0,1-3.7-6.31A15.64,15.64,0,0,0,147,65.48c2.5,3.31,7,.58,6.36-.52.6.05-2.23,3.62-5.24,1.25-2.55-1.89-3.44-5.15-3.67-5.74a16,16,0,0,0,1.13,2.5l-.43-.91a13.07,13.07,0,0,0,.78,1.42l.49.79a10.85,10.85,0,0,1-1.22-2.41c.13-.08-.85-.83,1.76,2.89a5.82,5.82,0,0,0,1.41,1.3c.82.71,3.5,1.36,4.6-1a1.86,1.86,0,0,0-2.23-2.21c-1.33.51-2.49,2.12-1.07,3.43,2.06,2.26,5.35,5.55,9,3.63" transform="translate(-0.59 -3.18)"/><path class="cls-12" d="M159.55,70.65a6.77,6.77,0,0,1-4.26.73,12,12,0,0,1-7.08-6c-.15.28-.28-1.8,1.07-2.55.9-1.55,4.91-.83,4.39,2.26-.82,2.57-3.89,2.67-5.31,1.81a7.23,7.23,0,0,1-2.42-2.21c-.18.09-2.24-3.6-2.71-6" transform="translate(-0.59 -3.18)"/><path class="cls-13" d="M153.23,65.41c.39,0-2.17,3-5,1-2.51-1.62-3.5-4.72-3.94-5.66m9.38,4.43c.27-.27,0-1.75-.76-2.42-.8-1.22-3.16-.75-3.79.24-1.31.71-1,3.14-.35,3.54a10.38,10.38,0,0,0,.9,1.12c1.23,1.12,3.08,3.36,5.68,3.77a6.89,6.89,0,0,0,4.22-.78" transform="translate(-0.59 -3.18)"/><path class="cls-12" d="M151.89,63a2.8,2.8,0,0,1,1,1.34c.22,1-1,2.3-2.47,2.26-3-.16-4.48-3.53-4.65-3.79" transform="translate(-0.59 -3.18)"/><path class="cls-11" d="M154.73,74.45s0,.24-.14-.11l-.17-.27-.17-.18-.09-.21a18.36,18.36,0,0,1,2-1.24,13.71,13.71,0,0,1,1.7-1l1.15-.59c.21.23,1.09-1.28.88.3l-.94-1.24c-1.29-1.71-2.62-3.49-2.75-3.78,0,0,3,4.2,3.27,4.42,0,0-2.91-4-3-4.38,0,0,2.81,3.9,3.2,4.13,0,0-2.58-3.58-2.78-4.1,0,0,.47.7.62.87l-.2-.34.38.5.2.32a9,9,0,0,1-.52-1s-.33-.31.79,1.09c0,0,.58.9,1.73,2.35,1.31.84-.49,1.39-1.43,2-1.1.68-2.33,1.48-3.63,2.41" transform="translate(-0.59 -3.18)"/><path class="cls-12" d="M154.06,73.62s2.19-1.35,4.35-2.59l.77-.39.79-.4c-.35,1.88-.46.05-.71.25-.87-1.13-1.78-2.32-1.94-2.56,0,0-1-1.25-1.45-2.05" transform="translate(-0.59 -3.18)"/><path class="cls-13" d="M159.44,70.19s-2.31-3.11-2.78-3.82m2.59,4.1c.06.1.23.33.46.62.69-1.82-.45-.18-.61-.42l-1.5.79c-1.17.59-3.54,2.16-3.54,2.16" transform="translate(-0.59 -3.18)"/><path class="cls-12" d="M160.39,70.9c.15-.26-2.59-3.67-2.74-4.06" transform="translate(-0.59 -3.18)"/><path class="cls-11" d="M110.58,53.78s.36,1-.24.92l-.48.39-.35,1-.35-.28s0-.64-.08-4.85c0-2.11,0-5.1-.09-9.36,0-2.13,0-4.57-.06-7.37l0-2.17V30.9c1.76-1.53,1.16-.43,1.86-.77l5,0s11.42-.2,26.83-.2l17.58,0h15.1c.5.43-.69-1,1.2,1v2.8c0,6.69,0,13.87,0,21.11v2.72c-2.31,2.13-2.2.58-3.42,1.06h-5.42l-10.65,0-19.37,0c-11.65,0-20.21-.09-22.31-.14,0,0,17.51.08,35.57.14l13.38,0,6.27,0h5c1.77-1.93.49-.92.89-1.53,0-7.18,0-12.39,0-13.49,0,0,0,4.18,0,10.54v2.48c-.44.71,1,.24-1,1.94h-1.35l-5.77,0-12.67-.06c-17.39-.09-35.41-.19-38-.29,0,0,16.24.07,33.2.11l24,0c2.52-6.61.67-12,1.17-13.35,0,0,0,3.74-.05,9.46V56.6c-.21.53.48.46-.48,1.5h-1.22l-5.21,0L157.58,58c-15.86-.1-32.61-.22-36.23-.35,0,0,11.47.1,14.54.07l-5.35-.07h8.61l5,.06s-13.47-.17-14.41-.26c0,0-6.15.11,18.17.07l10.33.07c5.39-1.4,21.94,5.49,17.33-11.7q0-4.71,0-9.92a42.51,42.51,0,0,0-.13-5l-5.56,0c-7.56,0-15.74.08-24.48.15s-18,.16-27.82.28l-7.44.09c.34.34.15,4.45.26,6.53q.11,7.71.23,15.77" transform="translate(-0.59 -3.18)"/><path class="cls-14" d="M109,56.63s-.07-8.68-.16-21.58l0-2.46V31c.37-.41-.82.68.83-.95h.81l5.36,0,11.56-.07,24.92-.14h23.28c-.22-.23,2,2,1,1.05v.32c0,4.43,0,9.2,0,14V57.68l-1,1h-1.9l-13.14,0-16,0s-21.25,0-33.86-.17" transform="translate(-0.59 -3.18)"/><path class="cls-15" d="M176.13,46.93s0,3.28,0,8.37v2c-.91,1.81-1.47.5-2.26.9h-4.68l-10.46,0c-14.54,0-30.52-.1-36.26-.15m54.17-12.53c0-1.48,0-5.37,0-10.37V30.86c-2.11-2.12-.59-.59-1.07-1.06H139.82c-4.43,0-10.15,0-16.23.06l-9.28.07-4.62,0c-1.86,3.17-.5,3.49-.9,5.32.11,11.78.22,21.33.22,21.33" transform="translate(-0.59 -3.18)"/><path class="cls-14" d="M175.44,32.15s0,3.77,0,9.51c0,2.87,0,6.23,0,9.85,0,1.82,0,3.69,0,5.61-.3.67-3.42.17-5,.32-15.72-.06-32.08-.14-34.62-.18" transform="translate(-0.59 -3.18)"/><rect class="cls-16" x="42.35" y="66.52" width="26.74" height="22.2"/></g><path class="cls-10" d="M57,86a3.3,3.3,0,0,1,1.13.19,2.32,2.32,0,0,1,.84.5,2.17,2.17,0,0,1,.53.72,2.21,2.21,0,0,1,.18.89v.1a2,2,0,0,1-.32,1,2.34,2.34,0,0,1-1,.84,2.17,2.17,0,0,1,1.1.73,2,2,0,0,1,.43,1.26v.14a2.32,2.32,0,0,1-.2,1,2.08,2.08,0,0,1-.57.75,2.73,2.73,0,0,1-.91.49,3.76,3.76,0,0,1-1.21.18,4,4,0,0,1-1.25-.18,2.78,2.78,0,0,1-.92-.49,2.23,2.23,0,0,1-.58-.75,2.32,2.32,0,0,1-.19-1v-.14a1.91,1.91,0,0,1,.12-.68A2.19,2.19,0,0,1,54.5,91a2,2,0,0,1,.48-.45,2.06,2.06,0,0,1,.6-.28,2.26,2.26,0,0,1-.95-.82,2,2,0,0,1-.33-1.07v-.1a2.21,2.21,0,0,1,.17-.89,2.25,2.25,0,0,1,.51-.72,2.36,2.36,0,0,1,.83-.5A3.42,3.42,0,0,1,57,86Zm0,4.84a2.27,2.27,0,0,0-.65.09,1.71,1.71,0,0,0-.54.27,1.2,1.2,0,0,0-.37.46,1.39,1.39,0,0,0-.14.63v.07a1.24,1.24,0,0,0,.46,1,2.21,2.21,0,0,0,2.48,0,1.25,1.25,0,0,0,.44-1v-.07a1.39,1.39,0,0,0-.13-.63,1.3,1.3,0,0,0-.35-.45,1.56,1.56,0,0,0-.53-.27A2,2,0,0,0,57,90.81ZM57,87a1.57,1.57,0,0,0-1.06.35,1.19,1.19,0,0,0-.4,1v.07a1.26,1.26,0,0,0,.12.57,1.3,1.3,0,0,0,.32.42,1.23,1.23,0,0,0,.46.26,1.79,1.79,0,0,0,.57.09,1.59,1.59,0,0,0,1-.34,1.24,1.24,0,0,0,.42-1v-.07a1.22,1.22,0,0,0-.4-1A1.57,1.57,0,0,0,57,87Z" transform="translate(-0.59 -3.18)"/><g class="cls-2"><line class="cls-17" x1="43.55" y1="79.99" x2="68.33" y2="79.99"/><path class="cls-10" d="M175.46,90.47a3.3,3.3,0,0,1,1.13.19,2.32,2.32,0,0,1,.84.5,2.17,2.17,0,0,1,.53.72,2.21,2.21,0,0,1,.18.89v.1a2,2,0,0,1-.32,1,2.34,2.34,0,0,1-1,.84,2.17,2.17,0,0,1,1.1.73,2,2,0,0,1,.43,1.26v.14a2.32,2.32,0,0,1-.2,1,2.08,2.08,0,0,1-.57.75,2.73,2.73,0,0,1-.91.49,3.76,3.76,0,0,1-1.21.18,4,4,0,0,1-1.25-.18,2.78,2.78,0,0,1-.92-.49,2.23,2.23,0,0,1-.58-.75,2.32,2.32,0,0,1-.19-1v-.14a1.91,1.91,0,0,1,.12-.68,2.19,2.19,0,0,1,.32-.58,2,2,0,0,1,.48-.45,2.06,2.06,0,0,1,.6-.28,2.26,2.26,0,0,1-1-.82,2,2,0,0,1-.33-1.07v-.1a2.21,2.21,0,0,1,.17-.89,2.25,2.25,0,0,1,.51-.72,2.36,2.36,0,0,1,.83-.5A3.42,3.42,0,0,1,175.46,90.47Zm0,4.84a2.27,2.27,0,0,0-.65.09,1.71,1.71,0,0,0-.54.27,1.2,1.2,0,0,0-.37.46,1.39,1.39,0,0,0-.14.63v.07a1.24,1.24,0,0,0,.46,1,2.21,2.21,0,0,0,2.48,0,1.25,1.25,0,0,0,.44-1v-.07a1.39,1.39,0,0,0-.13-.63,1.3,1.3,0,0,0-.35-.45,1.56,1.56,0,0,0-.53-.27A2,2,0,0,0,175.48,95.31Zm0-3.78a1.57,1.57,0,0,0-1.06.35,1.19,1.19,0,0,0-.4,1v.07a1.26,1.26,0,0,0,.12.57,1.3,1.3,0,0,0,.32.42,1.23,1.23,0,0,0,.46.26,1.79,1.79,0,0,0,.57.09,1.59,1.59,0,0,0,1-.34,1.24,1.24,0,0,0,.42-1v-.07a1.22,1.22,0,0,0-.4-1A1.57,1.57,0,0,0,175.47,91.53Z" transform="translate(-0.59 -3.18)"/><line class="cls-17" x1="162.05" y1="84.49" x2="186.83" y2="84.49"/></g></g></g></svg>