<?xml version="1.0" encoding="utf-8"?>
<!-- Generator: Adobe Illustrator 23.0.0, SVG Export Plug-In . SVG Version: 6.00 Build 0)  -->
<svg version="1.1" id="Layer_1" xmlns="http://www.w3.org/2000/svg" xmlns:xlink="http://www.w3.org/1999/xlink" x="0px" y="0px"
	 width="174.4px" height="96.1px" viewBox="0 0 174.4 96.1" style="enable-background:new 0 0 174.4 96.1;" xml:space="preserve">
<title>자산 2</title>
<g id="레이어_2">
	<g id="레이어_1-2">
		<g>
			<defs>
				<rect id="SVGID_1_" x="-0.6" y="-3.2" width="175.9" height="101"/>
			</defs>
			<clipPath id="SVGID_2_">
				<use xlink:href="#SVGID_1_"  style="overflow:visible;"/>
			</clipPath>
			<g style="clip-path:url(#SVGID_2_);">
				<path style="fill:none;stroke:#231815;stroke-width:0.25;stroke-dasharray:1.5,1;" d="M3.2,53.1c-6.5,48.3,41,45.2,33.8-0.3"/>
				<rect x="2.6" y="29.8" style="fill:#FAD09E;" width="136" height="22.7"/>
				
					<rect x="2.6" y="29.8" style="fill:none;stroke:#D98700;stroke-width:0.8;stroke-linejoin:bevel;" width="170.1" height="22.7"/>
				<path style="fill:none;stroke:#D98700;stroke-width:0.5;stroke-dasharray:1.5,1;" d="M36.6,29.8v22.7 M104.6,29.8v22.7
					 M70.6,29.8v22.7 M2.6,29.8v22.7 M172.7,52.5V29.8"/>
				<line style="fill:none;stroke:#231815;stroke-linejoin:bevel;" x1="2.6" y1="20.5" x2="172.7" y2="20.5"/>
				<path style="fill:none;stroke:#231815;stroke-width:0.5;" d="M2.6,12.3v8.2 M172.7,20.5v-8.2"/>
				<path style="fill:none;stroke:#231815;stroke-width:0.3;" d="M36.6,15.2v5.3 M104.6,15.2v5.3 M70.6,15.2v5.3 M138.6,15.2v5.3"/>
				<path style="fill:#231815;" d="M173.7,0.1c0.2,0,0.3,0,0.4,0.1c0.1,0.1,0.2,0.2,0.2,0.4v7.6c0,0.1-0.1,0.3-0.2,0.4
					c-0.3,0.2-0.6,0.2-0.8,0c-0.1-0.1-0.2-0.2-0.2-0.4V1.5l-1.8,1.1c-0.1,0.1-0.3,0.1-0.4,0.1c-0.1-0.1-0.3-0.2-0.3-0.3
					c-0.1-0.1-0.1-0.3-0.1-0.4c0-0.1,0.1-0.3,0.2-0.3l2.1-1.3c0.1-0.1,0.3-0.1,0.4-0.2C173.5,0.1,173.6,0.1,173.7,0.1z"/>
				<path style="fill:#231815;" d="M3.1,0C4-0.1,4.9,0.3,5.4,1.1c0.5,0.9,0.8,2,0.7,3v0.6C6.2,5.7,6,6.8,5.4,7.7
					C4.9,8.5,4,8.9,3.1,8.8C2.2,8.9,1.3,8.5,0.7,7.8c-0.5-0.9-0.8-2-0.7-3V4.1c-0.1-1,0.2-2.1,0.7-3C1.3,0.3,2.1-0.1,3.1,0z
					 M3.1,1.1c-0.3,0-0.6,0.1-0.9,0.2C1.9,1.4,1.7,1.6,1.6,1.9c-0.2,0.3-0.3,0.6-0.3,1C1.2,3.3,1.2,3.8,1.2,4.2v0.4
					c0,0.5,0,0.9,0.1,1.4c0,0.3,0.1,0.7,0.3,0.9c0.1,0.2,0.3,0.4,0.6,0.6c0.3,0.1,0.6,0.2,0.9,0.2c0.3,0,0.6-0.1,0.9-0.2
					c0.2-0.1,0.4-0.3,0.6-0.6C4.7,6.6,4.8,6.3,4.8,6c0.1-0.5,0.1-0.9,0.1-1.4V4.2c0-0.5,0-0.9-0.1-1.4c0-0.4-0.1-0.7-0.3-1
					C4.4,1.6,4.2,1.4,4,1.3C3.7,1.1,3.4,1.1,3.1,1.1z"/>
				<path style="fill:#E4007F;" d="M98.5,66.9c0,0,0.1-0.3,0.2,0.1l0.2,0.3l0.3,0.1v0.2c0-0.6-0.4,1.9-6,0c-1.5-0.9-2.9-2.1-4-3.4
					c0.5,0-2.1-0.9-0.5-3.8c0.5-0.6,2.2-2.2,3.8-0.8c1.5,0.7,1.4,3.7-0.3,4.2c-3.3,1.7-6-1.6-6.9-3.3c-0.7-1.3-1.3-2.6-1.7-4
					c0.7,2.2,1.8,4.3,3.3,6.1c1.2,1.3,3.3,2.2,4.9,1.4c1-0.4,1.8-1.3,1.9-2.4c-0.1,0.9-0.5,1.6-1.3,2.1c-1.5,0.9-3.4,0.7-4.7-0.5
					c-1.8-1.7-3.1-3.9-3.7-6.3c0.6,2,1.7,3.9,3.1,5.6c2.5,3.3,7.1,0.6,6.4-0.5c0.6,0-2.2,3.6-5.2,1.2c-2.6-1.9-3.4-5.1-3.7-5.7
					c0.3,0.9,0.7,1.7,1.1,2.5L85,59c0.2,0.5,0.5,1,0.8,1.4l0.5,0.8c-0.5-0.8-0.9-1.6-1.2-2.4c0.1-0.1-0.8-0.8,1.8,2.9
					c0.4,0.5,0.9,0.9,1.4,1.3c0.8,0.7,3.5,1.4,4.6-1c0.2-1-0.4-2-1.5-2.2c-0.3-0.1-0.5,0-0.8,0c-1.3,0.5-2.5,2.1-1.1,3.4
					C91.6,65.5,94.9,68.8,98.5,66.9"/>
				<path style="fill:none;" d="M99.5,67.6c-1.3,0.7-2.8,1-4.3,0.7c-3.1-1-5.6-3.1-7.1-6c-0.2,0.3-0.3-1.8,1.1-2.5
					c0.9-1.5,4.9-0.8,4.4,2.3c-0.8,2.6-3.9,2.7-5.3,1.8c-1-0.5-1.8-1.3-2.4-2.2c-0.2,0.1-2.2-3.6-2.7-6"/>
				<path style="fill:none;" d="M93.1,62.4c0.4,0-2.2,3-5,1c-2.5-1.6-3.5-4.7-4-5.7 M93.5,62.2c0.3-0.3,0-1.8-0.8-2.4
					C92,58.5,89.6,59,89,60c-1.3,0.7-1,3.1-0.3,3.5c0.3,0.4,0.6,0.8,0.9,1.1c1.2,1.1,3.1,3.4,5.7,3.8c1.5,0.2,2.9-0.1,4.2-0.8"/>
				<path style="fill:none;" d="M91.8,60c0.5,0.3,0.8,0.8,1,1.3c0.2,1-1,2.3-2.5,2.3c-3-0.2-4.5-3.5-4.7-3.8"/>
				<path style="fill:#E4007F;" d="M94.6,71.4c0,0,0,0.2-0.1-0.1L94.3,71l-0.2-0.2l-0.1-0.2c0.6-0.4,1.3-0.9,2-1.2
					c0.5-0.4,1.1-0.7,1.7-1l1.1-0.6c0.2,0.2,1.1-1.3,0.9,0.3l-0.9-1.3c-1.3-1.7-2.6-3.5-2.8-3.8c0,0,3,4.2,3.3,4.4
					c0,0-2.9-4-3.1-4.4c0,0,2.8,3.9,3.2,4.1c0,0-2.6-3.6-2.8-4.1c0,0,0.5,0.7,0.6,0.9l-0.2-0.3l0.4,0.5l0.2,0.3
					c-0.2-0.3-0.4-0.6-0.5-0.9c0,0-0.3-0.3,0.8,1.1c0,0,0.6,0.9,1.7,2.3c1.3,0.8-0.5,1.4-1.4,2C97.2,69.6,95.9,70.4,94.6,71.4"/>
				<path style="fill:none;" d="M94,70.6c0,0,2.2-1.3,4.4-2.6l0.8-0.4l0.8-0.4c-0.3,1.9-0.5,0.1-0.7,0.3c-0.9-1.1-1.8-2.3-1.9-2.6
					c0,0-0.9-1.2-1.4-2"/>
				<path style="fill:none;" d="M99.4,67.2c0,0-2.3-3.1-2.8-3.8 M99.2,67.4l0.5,0.6c0.7-1.8-0.4-0.2-0.6-0.4l-1.5,0.8
					C96.3,69,94,70.6,94,70.6"/>
				<path style="fill:none;" d="M100.3,67.9c0.2-0.3-2.6-3.7-2.8-4.1"/>
				<path style="fill:#E4007F;" d="M38,50c0,0,0.4,1.4-0.2,1.3l-0.5,0.5l-0.3,1.4l-0.3-0.4c0,0,0-0.9-0.1-6.8c0-2.9,0-7.1-0.1-13.1
					c0-1.5,0-3.1,0-4.8c1.9-2.5,3.6-0.7,5.6-1.3l13.3,0c0,0,16-0.2,37.5-0.2h24.6h21.1c0.5,0.4-0.6-1,1.3,1v3.9c0,4.7,0,9.5,0,14.5
					v7.5c-0.5,0.9,1.2,0.7-1.2,2.5h-5.7c-40.5-0.1-82.5-0.1-88.4-0.3c0,0,24.5,0.1,49.7,0.1l35.5,0.1h8.5c0.6-0.5-0.2,1,1.5-1v-3.4
					c0-3.3,0-5.5,0-6.3c0,0,0,1.5,0,4c0,1.3,0,2.8,0,4.7c-0.5,0.7,1.1,0.4-1.2,1.9h-4.7l-33-0.1c-24.3-0.1-49.5-0.2-53.1-0.3
					c0,0,22.7,0.1,46.4,0.1c11.9,0,24,0,33.6,0h11c1.1-1.5,0.3-1.2,0.5-1.8c0-3.3,0-5.6-0.1-6.6c0,0,0,1.3,0,3.6c0,1.2,0,2.6,0,4.2
					c-2.4,1-3.6,0.3-5.8,0.5l-29.8-0.1C81.5,55.2,58,55.1,53,55c0,0,16,0.1,20.3,0.1L65.8,55h12l7,0c0,0-18.8-0.1-20.1-0.2
					c0,0-8.6,0.1,25.4,0.1l14.4,0.1h17.3h17c0-2.1,0-4.2,0-6.4c0-4.4,0-9,0-13.9c-0.1-2.3,0.2-5.3-0.2-7.1h-7.8
					c-10.6,0-22,0.1-34.2,0.1S71.5,27.9,57.8,28c-6.3-0.1-15,0.5-20-0.1C37.9,35.1,38,42.4,38,50"/>
				<path style="fill:none;" d="M36.4,54c0,0,0-3,0-8.3c0-2.7,0-5.9,0-9.5c0-1.8,0-3.8,0-5.9c0.5-1.2-1.2-1.8,1.2-3.5h3.3
					c18-0.1,42-0.2,65.6-0.3H139c-0.2-0.2,2,2,1.1,1.1V28c0,6.2,0,12.9,0,19.6V55c-2,2-0.6,0.6-1.1,1h-12.8h-18.4H85.5
					c0,0-29.7,0-47.4-0.2"/>
				<path style="fill:none;" d="M139.4,50c0,0,0,1.2,0,3.2v1.7c-1.4,1.3-1.5,0.4-2.4,0.7h-4.8l-27-0.1c-20.3,0-42.7-0.1-50.7-0.2
					 M139.9,48c0-2.1,0-7.5,0-14.5v-5.9c-2.1-2.1-0.6-0.6-1.1-1.1h-50c-12.4,0-32,0.1-48.5,0.2h-3c-2.3,1.9-0.6,2.3-1.2,3.4
					c0,1.9,0,3.8,0,5.6c0,3.6,0,6.8,0.1,9.5c0,5.4,0.1,8.7,0.1,8.7"/>
				<rect x="6" y="67.7" style="fill:#FFFFFF;" width="26.7" height="22.2"/>
			</g>
		</g>
		<path style="fill:#231815;" d="M22.5,84.3c0.1,0.1,0.1,0.2,0.1,0.3c0,0.1,0,0.3-0.1,0.4c-0.1,0.1-0.2,0.2-0.3,0.2h-3.3l-0.1,2.6
			c0.2-0.2,0.5-0.3,0.7-0.4c0.3-0.1,0.7-0.2,1-0.2c0.4,0,0.8,0.1,1.1,0.2c0.3,0.1,0.6,0.3,0.8,0.6c0.2,0.2,0.4,0.5,0.5,0.8
			c0.1,0.3,0.2,0.7,0.2,1V90c0,0.3-0.1,0.7-0.2,1c-0.1,0.3-0.3,0.6-0.5,0.9c-0.3,0.3-0.6,0.5-0.9,0.6c-0.4,0.2-0.9,0.3-1.4,0.2
			c-0.5,0-1-0.1-1.5-0.2c-0.4-0.1-0.8-0.3-1.1-0.5c-0.1-0.1-0.2-0.2-0.3-0.4c0-0.1,0-0.3,0.1-0.4c0.1-0.2,0.4-0.4,0.6-0.2
			c0,0,0.1,0,0.1,0.1c0.3,0.2,0.6,0.3,0.9,0.4c0.4,0.1,0.7,0.2,1.1,0.2c0.3,0,0.6,0,0.8-0.1c0.2-0.1,0.4-0.2,0.6-0.4
			c0.1-0.2,0.3-0.3,0.3-0.5c0.1-0.2,0.1-0.4,0.1-0.7v-0.1c0-0.5-0.1-0.9-0.5-1.2c-0.4-0.3-0.8-0.5-1.3-0.4c-0.3,0-0.6,0-0.9,0.2
			c-0.2,0.1-0.5,0.2-0.7,0.4c-0.1,0.1-0.2,0.1-0.3,0.2c-0.1,0-0.2,0-0.3,0c-0.1,0-0.3,0-0.4-0.1c-0.1-0.1-0.1-0.2-0.1-0.3l0.2-3.6
			c0-0.2,0-0.3,0.1-0.4c0-0.1,0.1-0.2,0.2-0.3c0.1-0.1,0.2-0.1,0.3-0.2c0.1,0,0.3,0,0.4,0h3.5C22.3,84.1,22.4,84.2,22.5,84.3z"/>
		<g>
			<defs>
				<rect id="SVGID_3_" x="-0.6" y="-3.2" width="175.9" height="101"/>
			</defs>
			<clipPath id="SVGID_4_">
				<use xlink:href="#SVGID_3_"  style="overflow:visible;"/>
			</clipPath>
			<g style="clip-path:url(#SVGID_4_);">
				<line style="fill:none;stroke:#231815;stroke-width:0.4;" x1="7.2" y1="81.2" x2="32" y2="81.2"/>
				<path style="fill:#231815;" d="M120.5,87.6c0.1,0.2,0.1,0.5,0,0.7c-0.1,0.1-0.2,0.2-0.3,0.2h-3.3l-0.2,2.7
					c0.2-0.2,0.5-0.3,0.7-0.4c0.3-0.1,0.7-0.2,1-0.2c0.4,0,0.8,0.1,1.1,0.2c0.3,0.1,0.6,0.3,0.8,0.6c0.2,0.2,0.4,0.5,0.5,0.8
					c0.1,0.3,0.2,0.7,0.2,1v0.1c0,0.3-0.1,0.7-0.2,1c-0.1,0.3-0.3,0.6-0.5,0.9c-0.3,0.3-0.6,0.5-0.9,0.6c-0.4,0.2-0.9,0.3-1.4,0.3
					c-0.5,0-1-0.1-1.5-0.2c-0.4-0.1-0.8-0.3-1.1-0.5c-0.1-0.1-0.2-0.2-0.3-0.4c0-0.1,0-0.3,0.1-0.4c0.1-0.2,0.4-0.3,0.6-0.2
					c0,0,0.1,0,0.1,0.1c0.3,0.2,0.6,0.3,0.9,0.4c0.4,0.1,0.7,0.2,1.1,0.2c0.3,0,0.6,0,0.8-0.1c0.2-0.1,0.4-0.2,0.6-0.4
					c0.1-0.2,0.3-0.3,0.3-0.5c0.1-0.2,0.1-0.4,0.1-0.7v-0.1c0-0.5-0.1-0.9-0.4-1.3c-0.4-0.3-0.8-0.4-1.3-0.4c-0.3,0-0.6,0-0.8,0.2
					c-0.2,0.1-0.5,0.2-0.7,0.4c-0.1,0.1-0.2,0.1-0.3,0.2c-0.1,0-0.2,0-0.3,0c-0.1,0-0.3,0-0.4-0.1c-0.1-0.1-0.1-0.2-0.1-0.3l0.2-3.6
					c0-0.2,0-0.3,0.1-0.5c0-0.1,0.1-0.2,0.2-0.3c0.1-0.1,0.2-0.1,0.3-0.2c0.1,0,0.3,0,0.4,0h3.5C120.3,87.4,120.4,87.5,120.5,87.6z"
					/>
				<line style="fill:none;stroke:#231815;stroke-width:0.4;" x1="105.2" y1="84.5" x2="130" y2="84.5"/>
			</g>
		</g>
	</g>
</g>
</svg>
