
<svg xmlns="http://www.w3.org/2000/svg" version="1.1" xmlns:xlink="http://www.w3.org/1999/xlink" preserveAspectRatio="none" x="0px" y="0px" width="1280px" height="720px" viewBox="0 0 1280 720">
<defs>
<g id="Layer0_0_FILL">
<path fill="#FFFFFF" stroke="none" d="
M 1187.85 578.2
Q 1188.6 575.5 1188.6 572.25
L 1188.6 542.2
Q 1188.6 527.2 1173.6 527.2
L 1103.6 527.2
Q 1088.6 527.2 1088.6 542.2
L 1088.6 572.25
Q 1088.6 575.9 1089.35 578.2 1092.1 587.25 1103.6 587.25
L 1173.6 587.25
Q 1185.3 587.25 1187.85 578.2 Z"/>

<path fill="#000000" stroke="none" d="
M 888.45 333.4
Q 888.45 333 888.35 332.85 888.2 332.7 887.8 332.7
L 884.15 332.7
Q 883.8 332.7 883.6 332.85 883.45 333 883.45 333.4
L 883.45 366.55
Q 883.45 366.95 883.6 367.1 883.8 367.2 884.15 367.2
L 887.8 367.2
Q 888.2 367.2 888.35 367.1 888.45 366.95 888.45 366.55
L 888.45 349.75 892.9 349.75
Q 893.25 349.75 893.45 349.65 893.65 349.5 893.65 349.1
L 893.65 346.35
Q 893.65 345.85 893.45 345.75 893.25 345.65 892.9 345.65
L 888.45 345.65 888.45 333.4
M 868 340
Q 868 339.8 868.1 339.65 868.15 339.5 868.5 339.5
L 878.45 339.5
Q 878.85 339.5 879 339.4 879.15 339.3 879.15 338.9
L 879.15 336.05
Q 879.15 335.65 879 335.55 878.85 335.4 878.45 335.4
L 865.45 335.4
Q 863.95 335.4 863.5 335.85 863 336.25 863 337.7
L 863 355.05
Q 863 356.55 863.65 357 864.25 357.45 865.55 357.45 867.1 357.55 869.15 357.5 871.2 357.45 873.3 357.3 875.45 357.15 877.45 356.85 879.5 356.6 881 356.25 881.4 356.15 881.55 356 881.7 355.85 881.6 355.45
L 881.2 352.8
Q 881.1 352.55 880.95 352.4 880.85 352.3 880.4 352.35 879 352.6 877.45 352.8 875.9 353 874.35 353.1 872.85 353.25 871.35 353.3 869.9 353.3 868.55 353.3 868 353.3 868 352.7
L 868 340
M 605.15 335.6
Q 605.15 334.85 604.4 334.85
L 600.85 334.85
Q 600.15 334.85 600.15 335.6
L 600.15 354.6
Q 600.15 356 600.8 356.55 601.4 357.15 602.9 357.25 604.3 357.35 606.25 357.3 608.15 357.3 610.25 357.1 612.4 356.9 614.45 356.6 616.6 356.3 618.4 355.9 619 355.75 618.95 355.2
L 618.45 352.2
Q 618.35 352.05 618.2 351.9 618.1 351.75 617.65 351.85 616.35 352.15 614.85 352.35 613.35 352.6 611.8 352.75 610.2 352.95 608.7 353 607.25 353.05 606 353 605.15 352.95 605.15 352.15
L 605.15 335.6
M 620.55 332.85
Q 620.4 333 620.4 333.4
L 620.4 366.55
Q 620.4 366.95 620.55 367.1 620.75 367.2 621.1 367.2
L 624.75 367.2
Q 625.15 367.2 625.3 367.1 625.4 366.95 625.4 366.55
L 625.4 349.8 629.85 349.8
Q 630.2 349.8 630.4 349.65 630.6 349.55 630.6 349.1
L 630.6 346.35
Q 630.6 345.85 630.4 345.8 630.2 345.7 629.85 345.7
L 625.4 345.7 625.4 333.4
Q 625.4 333 625.3 332.85 625.15 332.7 624.75 332.7
L 621.1 332.7
Q 620.75 332.7 620.55 332.85
M 378.5 361.85
Q 378.35 362 378.35 362.4
L 378.35 395.55
Q 378.35 395.95 378.5 396.1 378.7 396.2 379.05 396.2
L 382.7 396.2
Q 383.1 396.2 383.25 396.1 383.35 395.95 383.35 395.55
L 383.35 378.75 387.8 378.75
Q 388.15 378.75 388.35 378.65 388.55 378.5 388.55 378.1
L 388.55 375.35
Q 388.55 374.85 388.35 374.75 388.15 374.65 387.8 374.65
L 383.35 374.65 383.35 362.4
Q 383.35 362 383.25 361.85 383.1 361.7 382.7 361.7
L 379.05 361.7
Q 378.7 361.7 378.5 361.85
M 358.45 364.35
Q 358.05 364.35 357.9 364.5 357.75 364.6 357.75 365.05
L 357.75 367.75
Q 357.75 368.15 357.85 368.3 357.95 368.45 358.45 368.45
L 368.5 368.45
Q 369.15 368.45 369.05 369.2 368.4 373.95 365.25 377.9 362.1 381.95 356.65 385 356.35 385.15 356.25 385.5 356.2 385.8 356.45 386.15
L 358.1 388.7
Q 358.4 389.1 358.7 389.1 358.95 389.1 359.45 388.8 362.8 386.95 365.45 384.6 368.15 382.25 370.05 379.5 372 376.8 373.05 373.7 374.2 370.65 374.4 367.4 374.5 365.85 373.9 365.1 373.35 364.35 371.55 364.35
L 358.45 364.35 Z"/>
</g>

<path id="Layer0_0_1_STROKES" stroke="#DBDBDB" stroke-width="3" stroke-linejoin="round" stroke-linecap="round" fill="none" d="
M 1103.6 527.2
L 1173.6 527.2
Q 1188.6 527.2 1188.6 542.2
L 1188.6 572.25
Q 1188.6 575.5 1187.85 578.2 1185.3 587.25 1173.6 587.25
L 1103.6 587.25
Q 1092.1 587.25 1089.35 578.2 1088.6 575.9 1088.6 572.25
L 1088.6 542.2
Q 1088.6 527.2 1103.6 527.2 Z"/>

<path id="Layer0_0_2_STROKES" stroke="#BBDECB" stroke-width="5" stroke-linejoin="round" stroke-linecap="butt" fill="none" d="
M 212.9 239.95
L 1067.15 239.95
Q 1082.15 239.95 1082.15 254.95
L 1082.15 455.05
Q 1082.15 470.05 1067.15 470.05
L 458 470.05 326.95 470.05 212.9 470.05
Q 197.9 470.05 197.9 455.05
L 197.9 254.95
Q 197.9 239.95 212.9 239.95 Z"/>

<path id="Layer0_0_3_STROKES" stroke="#000000" stroke-width="3" stroke-linejoin="round" stroke-linecap="butt" fill="none" d="
M 983.1 350.55
L 983.1 418.55 800.05 418.55 776.55 395.05 776.55 290 925.1 290
M 524 283.5
L 702.55 283.5 702.55 424.55 524 424.55 524 283.5 Z
M 450 354.05
Q 450 385.75 427.55 408.15 405.15 430.6 373.45 430.6 341.75 430.6 319.3 408.15 296.9 385.75 296.9 354.05 296.9 322.35 319.3 299.9 341.75 277.5 373.45 277.5 373.7 277.5 373.95 277.5
L 373.95 353.6 450 353.6
Q 450 353.85 450 354.05 Z"/>
</defs>

<g transform="matrix( 1, 0, 0, 1, 0,0) ">
<use xlink:href="#Layer0_0_FILL"/>

<use xlink:href="#Layer0_0_1_STROKES"/>

<use xlink:href="#Layer0_0_2_STROKES"/>

<use xlink:href="#Layer0_0_3_STROKES"/>
</g>
</svg>
