
<svg xmlns="http://www.w3.org/2000/svg" version="1.1" xmlns:xlink="http://www.w3.org/1999/xlink" preserveAspectRatio="none" x="0px" y="0px" width="1280px" height="720px" viewBox="0 0 1280 720">
<defs>
<g id="Layer0_0_FILL">
<path fill="#1E1E1E" stroke="none" d="
M 722.45 358.15
Q 722.45 354.5 720.35 352.5 718.3 350.45 714.9 350.45 712.85 350.45 711.05 351.4 709.25 352.35 708.35 354.25 707.6 352.4 705.85 351.4 704.15 350.45 702.05 350.45 700.5 350.45 699.1 351.1 697.7 351.75 696.9 352.65
L 696.95 351.25
Q 696.95 350.95 696.6 350.95
L 693.2 350.95
Q 692.55 350.95 692.6 351.45 692.7 352.25 692.75 353.65 692.8 355.05 692.8 356.6
L 692.8 372.5
Q 692.8 372.7 692.9 372.9 693.05 373.05 693.25 373.05
L 696.6 373.05
Q 697.05 373.05 697.05 372.55
L 697.05 359.55
Q 697.05 357.15 698.3 355.8 699.55 354.4 701.8 354.4 705.35 354.4 705.35 358.65
L 705.35 372.5
Q 705.35 372.7 705.5 372.9 705.65 373.05 705.85 373.05
L 709.2 373.05
Q 709.65 373.05 709.65 372.55
L 709.65 360.95
Q 709.65 359.55 710 358.35 710.35 357.15 711 356.3 711.6 355.4 712.55 354.95 713.5 354.4 714.7 354.4 716.4 354.4 717.25 355.6 718.15 356.8 718.15 358.65
L 718.15 372.5
Q 718.15 372.7 718.3 372.9 718.45 373.05 718.65 373.05
L 722 373.05
Q 722.15 373.05 722.35 372.9 722.45 372.75 722.45 372.55
L 722.45 358.15
M 688.25 351.3
Q 688.15 351.2 688 351.15 686.8 350.75 685.55 350.6 684.25 350.45 683.05 350.45 680.5 350.45 678.45 351.3 676.45 352.15 674.95 353.7 673.5 355.2 672.7 357.35 671.9 359.45 671.9 362 671.9 364.4 672.55 366.45 673.25 368.5 674.55 370.05 675.85 371.55 677.8 372.5 679.75 373.4 682.25 373.6 683.05 373.6 683.85 373.6 684.7 373.6 685.4 373.5 686.15 373.4 686.8 373.3 687.45 373.2 687.9 373 688.2 372.95 688.25 372.8 688.3 372.65 688.25 372.35
L 688.1 369.6
Q 688.05 369.35 687.95 369.25 687.8 369.1 687.45 369.25 685.25 369.95 682.5 369.6 679.5 369.25 677.95 367.25 676.35 365.25 676.35 362 676.35 358.6 678.05 356.5 679.7 354.4 682.95 354.4 684 354.4 685.15 354.55 686.35 354.65 687.25 355 687.6 355.05 687.7 354.95 687.9 354.8 687.9 354.55
L 688.25 351.8
Q 688.3 351.4 688.25 351.3
M 816.5 536.5
Q 814.7 537.45 813.8 539.35 813.05 537.5 811.3 536.5 809.6 535.55 807.5 535.55 805.95 535.55 804.55 536.2 803.15 536.85 802.35 537.75
L 802.4 536.35
Q 802.4 536.05 802.05 536.05
L 798.65 536.05
Q 798 536.05 798.05 536.55 798.15 537.35 798.2 538.75 798.25 540.15 798.25 541.7
L 798.25 557.6
Q 798.25 557.8 798.35 558 798.5 558.15 798.7 558.15
L 802.05 558.15
Q 802.5 558.15 802.5 557.65
L 802.5 544.65
Q 802.5 542.25 803.75 540.9 805 539.5 807.25 539.5 810.8 539.5 810.8 543.75
L 810.8 557.6
Q 810.8 557.8 810.95 558 811.1 558.15 811.3 558.15
L 814.65 558.15
Q 815.1 558.15 815.1 557.65
L 815.1 546.05
Q 815.1 544.65 815.45 543.45 815.8 542.25 816.45 541.4 817.05 540.5 818 540.05 818.95 539.5 820.15 539.5 821.85 539.5 822.7 540.7 823.6 541.9 823.6 543.75
L 823.6 557.6
Q 823.6 557.8 823.75 558 823.9 558.15 824.1 558.15
L 827.45 558.15
Q 827.6 558.15 827.8 558 827.9 557.85 827.9 557.65
L 827.9 543.25
Q 827.9 539.6 825.8 537.6 823.75 535.55 820.35 535.55 818.3 535.55 816.5 536.5
M 783.5 541.6
Q 785.15 539.5 788.4 539.5 789.45 539.5 790.6 539.65 791.8 539.75 792.7 540.1 793.05 540.15 793.15 540.05 793.35 539.9 793.35 539.65
L 793.7 536.9
Q 793.75 536.5 793.7 536.4 793.6 536.3 793.45 536.25 792.25 535.85 791 535.7 789.7 535.55 788.5 535.55 785.95 535.55 783.9 536.4 781.9 537.25 780.4 538.8 778.95 540.3 778.15 542.45 777.35 544.55 777.35 547.1 777.35 549.5 778 551.55 778.7 553.6 780 555.15 781.3 556.65 783.25 557.6 785.2 558.5 787.7 558.7 788.5 558.7 789.3 558.7 790.15 558.7 790.85 558.6 791.6 558.5 792.25 558.4 792.9 558.3 793.35 558.1 793.65 558.05 793.7 557.9 793.75 557.75 793.7 557.45
L 793.55 554.7
Q 793.5 554.45 793.4 554.35 793.25 554.2 792.9 554.35 790.7 555.05 787.95 554.7 784.95 554.35 783.4 552.35 781.8 550.35 781.8 547.1 781.8 543.7 783.5 541.6
M 548.2 538.75
Q 548.25 540.15 548.25 541.7
L 548.25 557.6
Q 548.25 557.8 548.35 558 548.5 558.15 548.7 558.15
L 552.05 558.15
Q 552.5 558.15 552.5 557.65
L 552.5 544.65
Q 552.5 542.25 553.75 540.9 555 539.5 557.25 539.5 560.8 539.5 560.8 543.75
L 560.8 557.6
Q 560.8 557.8 560.95 558 561.1 558.15 561.3 558.15
L 564.65 558.15
Q 565.1 558.15 565.1 557.65
L 565.1 546.05
Q 565.1 544.65 565.45 543.45 565.8 542.25 566.45 541.4 567.05 540.5 568 540.05 568.95 539.5 570.15 539.5 571.85 539.5 572.7 540.7 573.6 541.9 573.6 543.75
L 573.6 557.6
Q 573.6 557.8 573.75 558 573.9 558.15 574.1 558.15
L 577.45 558.15
Q 577.6 558.15 577.8 558 577.9 557.85 577.9 557.65
L 577.9 543.25
Q 577.9 539.6 575.8 537.6 573.75 535.55 570.35 535.55 568.3 535.55 566.5 536.5 564.7 537.45 563.8 539.35 563.05 537.5 561.3 536.5 559.6 535.55 557.5 535.55 555.95 535.55 554.55 536.2 553.15 536.85 552.35 537.75
L 552.4 536.35
Q 552.4 536.05 552.05 536.05
L 548.65 536.05
Q 548 536.05 548.05 536.55 548.15 537.35 548.2 538.75
M 533.9 536.4
Q 531.9 537.25 530.4 538.8 528.95 540.3 528.15 542.45 527.35 544.55 527.35 547.1 527.35 549.5 528 551.55 528.7 553.6 530 555.15 531.3 556.65 533.25 557.6 535.2 558.5 537.7 558.7 538.5 558.7 539.3 558.7 540.15 558.7 540.85 558.6 541.6 558.5 542.25 558.4 542.9 558.3 543.35 558.1 543.65 558.05 543.7 557.9 543.75 557.75 543.7 557.45
L 543.55 554.7
Q 543.5 554.45 543.4 554.35 543.25 554.2 542.9 554.35 540.7 555.05 537.95 554.7 534.95 554.35 533.4 552.35 531.8 550.35 531.8 547.1 531.8 543.7 533.5 541.6 535.15 539.5 538.4 539.5 539.45 539.5 540.6 539.65 541.8 539.75 542.7 540.1 543.05 540.15 543.15 540.05 543.35 539.9 543.35 539.65
L 543.7 536.9
Q 543.75 536.5 543.7 536.4 543.6 536.3 543.45 536.25 542.25 535.85 541 535.7 539.7 535.55 538.5 535.55 535.95 535.55 533.9 536.4
M 463.6 528.05
Q 461.85 527.6 460.05 527.6 458.35 527.6 456.7 527.95 455 528.35 453.25 528.95 452.85 529.15 452.7 529.35 452.55 529.5 452.65 529.75
L 453 532.7
Q 453.1 533.05 453.3 533.15 453.5 533.25 454 533.05 454.6 532.8 455.4 532.55 456.2 532.3 457 532.15 457.8 531.95 458.55 531.85 459.25 531.75 459.8 531.75 460.65 531.75 461.6 531.95 462.55 532.15 463.4 532.65 464.2 533.1 464.75 533.9 465.25 534.65 465.25 535.65 465.25 537 464.45 537.9 463.65 538.85 462.45 539.45 461.3 540.05 460.05 540.3 458.8 540.55 457.95 540.55
L 456.05 540.55
Q 455.7 540.55 455.6 540.65 455.5 540.7 455.5 541.1
L 455.5 544.05
Q 455.5 544.35 455.6 544.45 455.7 544.55 456.05 544.55
L 458 544.55
Q 459.95 544.55 461.3 544.95 462.7 545.3 463.6 546 464.45 546.65 464.9 547.5 465.3 548.35 465.3 549.3 465.3 551.95 463.35 553.3 462.7 553.75 461.95 554 461.15 554.3 460.3 554.4 459.45 554.5 458.55 554.45 457.65 554.4 456.85 554.35 455.75 554.25 454.7 553.95 453.65 553.65 452.6 553.35 452.05 553.1 451.85 553.25 451.65 553.35 451.6 553.7
L 451.25 556.75
Q 451.2 557.1 451.4 557.25 451.55 557.45 451.95 557.55 453.4 558.1 455.15 558.4 456.9 558.7 458.65 558.7 460.95 558.7 463.1 558.1 465.25 557.55 466.75 556.3 468.25 555.05 469.1 553.3 469.9 551.5 469.9 549.4 469.9 547.2 468.55 545.4 467.2 543.65 464.55 542.5 465.65 542 466.6 541.25 467.55 540.5 468.25 539.5 468.95 538.55 469.35 537.5 469.7 536.4 469.7 535.3 469.7 533.3 468.85 531.8 468 530.3 466.65 529.4 465.35 528.5 463.6 528.05
M 503.95 556.75
Q 504.2 556.45 504.2 556.1
L 504.2 553.7
Q 504.2 553.25 504.05 553.1 503.9 552.95 503.2 552.95
L 486.2 552.95
Q 485.5 552.95 485.5 553.6
L 485.5 556.4
Q 485.5 556.75 485.7 556.9 485.9 557.1 486.2 557.1
L 498.95 557.1 488.5 582.65
Q 488.35 583.1 488.5 583.2 488.65 583.35 489.25 583.35
L 492.5 583.35
Q 492.9 583.35 493.05 583.25 493.2 583.1 493.4 582.8
L 503.95 556.75
M 500.4 504.75
Q 499.25 503.7 497.6 503.15 496 502.6 494.05 502.6 492.2 502.6 490.2 503.25 488.25 503.9 486.75 504.7 486.35 504.9 486.2 505.15 486.1 505.3 486.2 505.5
L 486.75 508.55
Q 486.85 508.9 487.15 508.95 487.45 508.95 487.8 508.75 489.6 507.7 491.1 507.25 492.65 506.8 494.3 506.8 496.05 506.8 497.2 508.05 498.4 509.3 498.4 511.2 498.4 512.9 496.8 515.5 495.2 518.15 491.85 522.1
L 485.75 529.35
Q 485.55 529.65 485.35 529.95 485.2 530.3 485.2 530.6
L 485.2 532.9
Q 485.2 533.4 485.95 533.4
L 503 533.4
Q 503.55 533.4 503.55 532.7
L 503.55 529.9
Q 503.55 529.3 503 529.3
L 491.25 529.3
Q 492.25 528.15 493.25 527 494.25 525.8 495.1 524.7 496.2 523.4 497.6 521.8 498.95 520.15 500.15 518.4 501.35 516.6 502.15 514.75 502.95 512.9 502.95 511.1 502.95 509 502.25 507.4 501.55 505.8 500.4 504.75
M 1140.05 562.6
Q 1138.05 563.45 1136.55 565 1135.1 566.5 1134.3 568.65 1133.5 570.75 1133.5 573.3 1133.5 575.7 1134.15 577.75 1134.85 579.8 1136.15 581.35 1137.45 582.85 1139.4 583.8 1141.35 584.7 1143.85 584.9 1144.65 584.9 1145.45 584.9 1146.3 584.9 1147 584.8 1147.75 584.7 1148.4 584.6 1149.05 584.5 1149.5 584.3 1149.8 584.25 1149.85 584.1 1149.9 583.95 1149.85 583.65
L 1149.7 580.9
Q 1149.65 580.65 1149.55 580.55 1149.4 580.4 1149.05 580.55 1146.85 581.25 1144.1 580.9 1141.1 580.55 1139.55 578.55 1137.95 576.55 1137.95 573.3 1137.95 569.9 1139.65 567.8 1141.3 565.7 1144.55 565.7 1145.6 565.7 1146.75 565.85 1147.95 565.95 1148.85 566.3 1149.2 566.35 1149.3 566.25 1149.5 566.1 1149.5 565.85
L 1149.85 563.1
Q 1149.9 562.7 1149.85 562.6 1149.75 562.5 1149.6 562.45 1148.4 562.05 1147.15 561.9 1145.85 561.75 1144.65 561.75 1142.1 561.75 1140.05 562.6
M 1163.65 561.75
Q 1162.1 561.75 1160.7 562.4 1159.3 563.05 1158.5 563.95
L 1158.55 562.55
Q 1158.55 562.25 1158.2 562.25
L 1154.8 562.25
Q 1154.15 562.25 1154.2 562.75 1154.3 563.55 1154.35 564.95 1154.4 566.35 1154.4 567.9
L 1154.4 583.8
Q 1154.4 584 1154.5 584.2 1154.65 584.35 1154.85 584.35
L 1158.2 584.35
Q 1158.65 584.35 1158.65 583.85
L 1158.65 570.85
Q 1158.65 568.45 1159.9 567.1 1161.15 565.7 1163.4 565.7 1166.95 565.7 1166.95 569.95
L 1166.95 583.8
Q 1166.95 584 1167.1 584.2 1167.25 584.35 1167.45 584.35
L 1170.8 584.35
Q 1171.25 584.35 1171.25 583.85
L 1171.25 572.25
Q 1171.25 570.85 1171.6 569.65 1171.95 568.45 1172.6 567.6 1173.2 566.7 1174.15 566.25 1175.1 565.7 1176.3 565.7 1178 565.7 1178.85 566.9 1179.75 568.1 1179.75 569.95
L 1179.75 583.8
Q 1179.75 584 1179.9 584.2 1180.05 584.35 1180.25 584.35
L 1183.6 584.35
Q 1183.75 584.35 1183.95 584.2 1184.05 584.05 1184.05 583.85
L 1184.05 569.45
Q 1184.05 565.8 1181.95 563.8 1179.9 561.75 1176.5 561.75 1174.45 561.75 1172.65 562.7 1170.85 563.65 1169.95 565.55 1169.2 563.7 1167.45 562.7 1165.75 561.75 1163.65 561.75
M 753.95 556.75
Q 754.2 556.45 754.2 556.1
L 754.2 553.7
Q 754.2 553.25 754.05 553.1 753.9 552.95 753.2 552.95
L 736.2 552.95
Q 735.5 552.95 735.5 553.6
L 735.5 556.4
Q 735.5 556.75 735.7 556.9 735.9 557.1 736.2 557.1
L 748.95 557.1 738.5 582.65
Q 738.35 583.1 738.5 583.2 738.65 583.35 739.25 583.35
L 742.5 583.35
Q 742.9 583.35 743.05 583.25 743.2 583.1 743.4 582.8
L 753.95 556.75
M 750.15 518.4
Q 751.35 516.6 752.15 514.75 752.95 512.9 752.95 511.1 752.95 509 752.25 507.4 751.55 505.8 750.4 504.75 749.25 503.7 747.6 503.15 746 502.6 744.05 502.6 742.2 502.6 740.2 503.25 738.25 503.9 736.75 504.7 736.35 504.9 736.2 505.15 736.1 505.3 736.2 505.5
L 736.75 508.55
Q 736.85 508.9 737.15 508.95 737.45 508.95 737.8 508.75 739.6 507.7 741.1 507.25 742.65 506.8 744.3 506.8 746.05 506.8 747.2 508.05 748.4 509.3 748.4 511.2 748.4 512.9 746.8 515.5 745.2 518.15 741.85 522.1
L 735.75 529.35
Q 735.55 529.65 735.35 529.95 735.2 530.3 735.2 530.6
L 735.2 532.9
Q 735.2 533.4 735.95 533.4
L 753 533.4
Q 753.55 533.4 753.55 532.7
L 753.55 529.9
Q 753.55 529.3 753 529.3
L 741.25 529.3
Q 742.25 528.15 743.25 527 744.25 525.8 745.1 524.7 746.2 523.4 747.6 521.8 748.95 520.15 750.15 518.4
M 706.7 527.95
Q 705 528.35 703.25 528.95 702.85 529.15 702.7 529.35 702.55 529.5 702.65 529.75
L 703 532.7
Q 703.1 533.05 703.3 533.15 703.5 533.25 704 533.05 704.6 532.8 705.4 532.55 706.2 532.3 707 532.15 707.8 531.95 708.55 531.85 709.25 531.75 709.8 531.75 710.65 531.75 711.6 531.95 712.55 532.15 713.4 532.65 714.2 533.1 714.75 533.9 715.25 534.65 715.25 535.65 715.25 537 714.45 537.9 713.65 538.85 712.45 539.45 711.3 540.05 710.05 540.3 708.8 540.55 707.95 540.55
L 706.05 540.55
Q 705.7 540.55 705.6 540.65 705.5 540.7 705.5 541.1
L 705.5 544.05
Q 705.5 544.35 705.6 544.45 705.7 544.55 706.05 544.55
L 708 544.55
Q 709.95 544.55 711.3 544.95 712.7 545.3 713.6 546 714.45 546.65 714.9 547.5 715.3 548.35 715.3 549.3 715.3 551.95 713.35 553.3 712.7 553.75 711.95 554 711.15 554.3 710.3 554.4 709.45 554.5 708.55 554.45 707.65 554.4 706.85 554.35 705.75 554.25 704.7 553.95 703.65 553.65 702.6 553.35 702.05 553.1 701.85 553.25 701.65 553.35 701.6 553.7
L 701.25 556.75
Q 701.2 557.1 701.4 557.25 701.55 557.45 701.95 557.55 703.4 558.1 705.15 558.4 706.9 558.7 708.65 558.7 710.95 558.7 713.1 558.1 715.25 557.55 716.75 556.3 718.25 555.05 719.1 553.3 719.9 551.5 719.9 549.4 719.9 547.2 718.55 545.4 717.2 543.65 714.55 542.5 715.65 542 716.6 541.25 717.55 540.5 718.25 539.5 718.95 538.55 719.35 537.5 719.7 536.4 719.7 535.3 719.7 533.3 718.85 531.8 718 530.3 716.65 529.4 715.35 528.5 713.6 528.05 711.85 527.6 710.05 527.6 708.35 527.6 706.7 527.95
M 648.75 368.6
Q 648.75 368.15 648.6 368 648.45 367.85 647.75 367.85
L 630.75 367.85
Q 630.05 367.85 630.05 368.5
L 630.05 371.3
Q 630.05 371.65 630.25 371.8 630.45 372 630.75 372
L 643.5 372 633.05 397.55
Q 632.9 398 633.05 398.1 633.2 398.25 633.8 398.25
L 637.05 398.25
Q 637.45 398.25 637.6 398.15 637.75 398 637.95 397.7
L 648.5 371.65
Q 648.75 371.35 648.75 371
L 648.75 368.6
M 649 342.25
Q 649.7 340.4 649.7 338.2 649.7 335.9 649 334.1 648.3 332.25 647 330.95 645.75 329.65 643.95 328.95 642.2 328.25 640 328.25 639.25 328.25 638.45 328.5 637.65 328.7 636.9 329.05 636.15 329.4 635.55 329.85 634.95 330.3 634.6 330.8 634.85 328.85 635.45 327.15 636 325.5 637 324.25 638 323 639.45 322.3 640.95 321.65 643 321.65 644.4 321.65 645.6 321.75 646.75 321.85 647.8 322.25 648.35 322.5 648.45 321.95
L 648.55 318.75
Q 648.6 318.35 648.25 318.25 647.35 317.9 645.9 317.7 644.5 317.5 643.35 317.5 639.6 317.5 637.05 318.8 634.5 320.15 632.9 322.4 631.35 324.6 630.65 327.65 629.95 330.65 629.95 334.05 629.95 341.5 632.5 345.05 635.05 348.6 639.75 348.6 642.05 348.6 643.9 347.8 645.75 347 647.05 345.55 648.35 344.2 649 342.25
M 640.15 332.45
Q 642.6 332.45 643.95 334.05 645.3 335.6 645.3 338.4 645.3 341.25 643.8 342.95 642.25 344.6 639.85 344.6 638.75 344.6 637.75 344.1 636.8 343.6 636.1 342.7 635.4 341.8 635 340.55 634.6 339.4 634.6 338 634.6 335.55 636.1 334 637.55 332.45 640.15 332.45 Z"/>

<path fill="#FFFFFF" stroke="none" d="
M 1093.3 578.6
L 1063.3 578.6
Q 1048.3 578.6 1048.3 593.6
L 1048.3 623.65
Q 1048.3 638.65 1063.3 638.65
L 1093.3 638.65
Q 1108.3 638.65 1108.3 623.65
L 1108.3 593.6
Q 1108.3 578.6 1093.3 578.6
M 1048.3 513.6
L 1048.3 543.65
Q 1048.3 558.65 1063.3 558.65
L 1093.3 558.65
Q 1108.3 558.65 1108.3 543.65
L 1108.3 513.6
Q 1108.3 498.6 1093.3 498.6
L 1063.3 498.6
Q 1048.3 498.6 1048.3 513.6
M 965.4 553.15
L 965.4 583.2
Q 965.4 598.2 980.4 598.2
L 1010.4 598.2
Q 1025.4 598.2 1025.4 583.2
L 1025.4 553.15
Q 1025.4 538.15 1010.4 538.15
L 980.4 538.15
Q 965.4 538.15 965.4 553.15 Z"/>

<path fill="#E8E3F1" stroke="none" d="
M 616.45 489.9
L 616.45 426.55 367.5 426.55 367.5 489.9 616.45 489.9
M 911.65 489.9
L 911.65 426.55 662.55 426.55 662.55 489.9 911.65 489.9 Z"/>

<path fill="#D8CFE7" stroke="none" d="
M 662.55 489.9
L 662.55 426.55 616.45 426.55 616.45 489.9 662.55 489.9 Z"/>
</g>

<g id="Layer0_0_STROKES_1_FILL">
<path fill="#B2A0CC" stroke="none" d="
M 663.55 486.9
Q 663.546484375 486.4892578125 663.25 486.2 662.9607421875 485.903515625 662.55 485.9 662.1392578125 485.903515625 661.85 486.2 661.553515625 486.4892578125 661.55 486.9
L 661.55 489.9
Q 661.553515625 490.3107421875 661.85 490.6 662.1392578125 490.896484375 662.55 490.9 662.9607421875 490.896484375 663.25 490.6 663.546484375 490.3107421875 663.55 489.9
L 663.55 486.9
M 662.55 478.9
Q 662.1392578125 478.903515625 661.85 479.2 661.553515625 479.4892578125 661.55 479.9
L 661.55 482.9
Q 661.553515625 483.3107421875 661.85 483.6 662.1392578125 483.896484375 662.55 483.9 662.9607421875 483.896484375 663.25 483.6 663.546484375 483.3107421875 663.55 482.9
L 663.55 479.9
Q 663.546484375 479.4892578125 663.25 479.2 662.9607421875 478.903515625 662.55 478.9
M 663.55 472.9
Q 663.546484375 472.4892578125 663.25 472.2 662.9607421875 471.903515625 662.55 471.9 662.1392578125 471.903515625 661.85 472.2 661.553515625 472.4892578125 661.55 472.9
L 661.55 475.9
Q 661.553515625 476.3107421875 661.85 476.6 662.1392578125 476.896484375 662.55 476.9 662.9607421875 476.896484375 663.25 476.6 663.546484375 476.3107421875 663.55 475.9
L 663.55 472.9
M 661.85 465.2
Q 661.553515625 465.4892578125 661.55 465.9
L 661.55 468.9
Q 661.553515625 469.3107421875 661.85 469.6 662.1392578125 469.896484375 662.55 469.9 662.9607421875 469.896484375 663.25 469.6 663.546484375 469.3107421875 663.55 468.9
L 663.55 465.9
Q 663.546484375 465.4892578125 663.25 465.2 662.9607421875 464.903515625 662.55 464.9 662.1392578125 464.903515625 661.85 465.2
M 663.55 458.9
Q 663.546484375 458.4892578125 663.25 458.2 662.9607421875 457.903515625 662.55 457.9 662.1392578125 457.903515625 661.85 458.2 661.553515625 458.4892578125 661.55 458.9
L 661.55 461.9
Q 661.553515625 462.3107421875 661.85 462.6 662.1392578125 462.896484375 662.55 462.9 662.9607421875 462.896484375 663.25 462.6 663.546484375 462.3107421875 663.55 461.9
L 663.55 458.9
M 662.55 450.9
Q 662.1392578125 450.903515625 661.85 451.2 661.553515625 451.4892578125 661.55 451.9
L 661.55 454.9
Q 661.553515625 455.3107421875 661.85 455.6 662.1392578125 455.896484375 662.55 455.9 662.9607421875 455.896484375 663.25 455.6 663.546484375 455.3107421875 663.55 454.9
L 663.55 451.9
Q 663.546484375 451.4892578125 663.25 451.2 662.9607421875 450.903515625 662.55 450.9
M 661.85 444.2
Q 661.553515625 444.4892578125 661.55 444.9
L 661.55 447.9
Q 661.553515625 448.3107421875 661.85 448.6 662.1392578125 448.896484375 662.55 448.9 662.9607421875 448.896484375 663.25 448.6 663.546484375 448.3107421875 663.55 447.9
L 663.55 444.9
Q 663.546484375 444.4892578125 663.25 444.2 662.9607421875 443.903515625 662.55 443.9 662.1392578125 443.903515625 661.85 444.2
M 663.55 437.9
Q 663.546484375 437.4892578125 663.25 437.2 662.9607421875 436.903515625 662.55 436.9 662.1392578125 436.903515625 661.85 437.2 661.553515625 437.4892578125 661.55 437.9
L 661.55 440.9
Q 661.553515625 441.3107421875 661.85 441.6 662.1392578125 441.896484375 662.55 441.9 662.9607421875 441.896484375 663.25 441.6 663.546484375 441.3107421875 663.55 440.9
L 663.55 437.9
M 661.85 430.2
Q 661.553515625 430.4892578125 661.55 430.9
L 661.55 433.9
Q 661.553515625 434.3107421875 661.85 434.6 662.1392578125 434.896484375 662.55 434.9 662.9607421875 434.896484375 663.25 434.6 663.546484375 434.3107421875 663.55 433.9
L 663.55 430.9
Q 663.546484375 430.4892578125 663.25 430.2 662.9607421875 429.903515625 662.55 429.9 662.1392578125 429.903515625 661.85 430.2
M 663.55 426.9
L 663.55 426.55
Q 663.546484375 426.1392578125 663.25 425.85 662.9607421875 425.553515625 662.55 425.55 662.1392578125 425.553515625 661.85 425.85 661.553515625 426.1392578125 661.55 426.55
L 661.55 426.9
Q 661.553515625 427.3107421875 661.85 427.6 662.1392578125 427.896484375 662.55 427.9 662.9607421875 427.896484375 663.25 427.6 663.546484375 427.3107421875 663.55 426.9 Z"/>
</g>

<g id="Layer0_0_STROKES_2_FILL">
<path fill="#00A3E9" stroke="none" d="
M 426.85 529.9
Q 428.2994140625 530.4876953125 429.75 531 430.1578125 531.1333984375 430.5 530.95 430.905859375 530.766796875 431.05 530.35 431.1837890625 529.99140625 431 529.6 430.8173828125 529.24453125 430.4 529.1 429.0001953125 528.612109375 427.6 528.05 427.2349609375 527.916015625 426.85 528.05 426.4734375 528.2412109375 426.3 528.6 426.1658203125 529.0146484375 426.3 529.4 426.49140625 529.7763671875 426.85 529.9
M 437.65 531.95
Q 437.4673828125 531.59453125 437.05 531.45 435.625 530.95 434.15 530.45 433.7921875 530.3166015625 433.4 530.5 433.044140625 530.6833984375 432.9 531.05 432.7662109375 531.45859375 432.95 531.8 433.1326171875 532.2052734375 433.5 532.35 434.975 532.85 436.4 533.35 436.8078125 533.4833984375 437.15 533.3 437.555859375 533.116796875 437.7 532.7 437.8337890625 532.34140625 437.65 531.95
M 417.95 525.15
Q 418.1341796875 524.7634765625 417.95 524.35 417.8244140625 523.9904296875 417.45 523.8 416.0625 523.2373046875 414.65 522.6 414.2921875 522.4162109375 413.9 522.55 413.51875 522.69609375 413.35 523.05 413.166015625 523.4568359375 413.3 523.85 413.446875 524.2310546875 413.8 524.4 415.2373046875 525.0626953125 416.65 525.65 417.037890625 525.833984375 417.4 525.65 417.809765625 525.5255859375 417.95 525.15
M 421.1 525.4
Q 420.712109375 525.2658203125 420.3 525.4 419.940234375 525.5744140625 419.75 525.95 419.6158203125 526.33671875 419.75 526.7 419.9255859375 527.1095703125 420.3 527.25 421.7125 527.8751953125 423.1 528.4 423.5150390625 528.583984375 423.9 528.4 424.2765625 528.2587890625 424.4 527.85 424.5841796875 527.4853515625 424.4 527.1 424.25859375 526.7236328125 423.85 526.55 422.4875 526.024609375 421.1 525.4
M 408.4 519.5
Q 408.03671875 519.316796875 407.65 519.45 407.2615234375 519.57890625 407.05 519.95 406.8791015625 520.3125 407 520.7 407.1298828125 521.10078125 407.5 521.3 408.8625 522.0001953125 410.2 522.65 410.593359375 522.8337890625 410.95 522.7 411.3671875 522.55546875 411.55 522.15 411.7337890625 521.8078125 411.6 521.4 411.454296875 521.0328125 411.05 520.85 409.7375 520.1998046875 408.4 519.5
M 375.2 499.9
Q 375.610546875 499.852734375 375.85 499.5 376.1392578125 499.2080078125 376.1 498.8 376.05234375 498.390234375 375.7 498.1 374.575 497.175 373.4 496.2 373.1078125 495.961328125 372.7 496 372.289453125 496.047265625 372 496.35 371.760546875 496.691796875 371.8 497.1 371.8474609375 497.509765625 372.15 497.75 373.325 498.725 374.45 499.65 374.7921875 499.9384765625 375.2 499.9
M 378.1 500.4
Q 377.723828125 500.448828125 377.45 500.75 377.209765625 501.1076171875 377.25 501.5 377.2994140625 501.9255859375 377.6 502.15 378.8375 503.1376953125 380.05 504.05 380.3873046875 504.3033203125 380.8 504.25 381.2046875 504.1865234375 381.45 503.85 381.70390625 503.51328125 381.65 503.1 381.5857421875 502.6958984375 381.25 502.45 380.0625 501.5623046875 378.85 500.6 378.541796875 500.36015625 378.1 500.4
M 400.75 517.35
Q 400.88828125 517.7580078125 401.25 517.95 402.574609375 518.737890625 403.95 519.45 404.31328125 519.633203125 404.7 519.5 405.088671875 519.37109375 405.25 519 405.47109375 518.6376953125 405.35 518.25 405.2201171875 517.84921875 404.85 517.65 403.525390625 516.962109375 402.25 516.2 401.8931640625 516.0171875 401.5 516.1 401.0919921875 516.2369140625 400.85 516.6 400.6671875 516.95546875 400.75 517.35
M 394.8 512.95
Q 394.5806640625 513.32578125 394.65 513.7 394.7720703125 514.12890625 395.1 514.35 396.425 515.15 397.7 515.95 398.0763671875 516.1689453125 398.45 516.05 398.879296875 515.978515625 399.1 515.6 399.31953125 515.2740234375 399.2 514.85 399.1279296875 514.47109375 398.75 514.25 397.475 513.45 396.15 512.65 395.8234375 512.4310546875 395.4 512.5 395.020703125 512.621484375 394.8 512.95
M 393.1 511.85
Q 393.31953125 511.5240234375 393.2 511.1 393.1279296875 510.72109375 392.75 510.5 391.487890625 509.712109375 390.25 508.85 389.9048828125 508.6443359375 389.5 508.7 389.1015625 508.805078125 388.85 509.15 388.6443359375 509.4939453125 388.7 509.9 388.80625 510.2984375 389.15 510.5 390.412109375 511.387890625 391.7 512.2 392.0763671875 512.4189453125 392.45 512.3 392.879296875 512.228515625 393.1 511.85
M 387.35 507.25
Q 387.29375 506.8515625 386.95 506.6 385.7251953125 505.787109375 384.55 504.9 384.2126953125 504.646484375 383.8 504.7 383.3953125 504.7634765625 383.15 505.1 382.89609375 505.43671875 382.95 505.85 383.0140625 506.2541015625 383.35 506.5 384.5744140625 507.412890625 385.85 508.25 386.1951171875 508.50546875 386.6 508.4 386.9986328125 508.344921875 387.2 508 387.4556640625 507.6560546875 387.35 507.25
M 370.75 494.3
Q 370.7169921875 493.919140625 370.4 493.65 369.2626953125 492.65 368.15 491.65 367.8650390625 491.3765625 367.45 491.4 367.0337890625 491.41875 366.75 491.7 366.4755859375 492.034765625 366.5 492.45 366.5189453125 492.865234375 366.8 493.15 367.9373046875 494.1501953125 369.1 495.15 369.4130859375 495.4244140625 369.8 495.4 370.2318359375 495.3671875 370.5 495.05 370.7755859375 494.737109375 370.75 494.3
M 595.05 530.95
Q 594.701953125 530.779296875 594.3 530.9 592.85 531.35 591.4 531.8 591.0130859375 531.915625 590.8 532.25 590.6291015625 532.6486328125 590.75 533.05 590.8654296875 533.4376953125 591.2 533.6 591.598046875 533.820703125 592 533.7 593.45 533.25 594.9 532.8 595.2869140625 532.684375 595.45 532.3 595.6708984375 531.9513671875 595.55 531.55 595.434375 531.1625 595.05 530.95
M 601.65 528.7
Q 601.30703125 528.5162109375 600.9 528.65 599.5248046875 529.15 598.05 529.65 597.6826171875 529.79453125 597.5 530.15 597.3162109375 530.54140625 597.45 530.9 597.594140625 531.316796875 597.95 531.5 598.3421875 531.6833984375 598.7 531.55 600.175 531.05 601.55 530.55 601.967578125 530.4046875 602.15 530 602.333984375 529.65703125 602.2 529.25 602.0548828125 528.8822265625 601.65 528.7
M 608.2 528.05
Q 608.60859375 527.9263671875 608.75 527.55 608.9341796875 527.1646484375 608.75 526.75 608.6265625 526.3912109375 608.25 526.2 607.8650390625 526.066015625 607.45 526.2 606.0875 526.775 604.65 527.3 604.26640625 527.4728515625 604.1 527.85 603.928515625 528.2212890625 604.05 528.6 604.2224609375 528.9828125 604.6 529.15 604.9720703125 529.3208984375 605.35 529.15 606.8125 528.625 608.2 528.05
M 614.65 523.6
Q 614.2732421875 523.466015625 613.9 523.6 612.5619140625 524.2248046875 611.15 524.75 610.79140625 524.9236328125 610.6 525.3 610.4658203125 525.6853515625 610.6 526.05 610.7734375 526.4587890625 611.15 526.6 611.5349609375 526.783984375 611.9 526.6 613.3376953125 526.075390625 614.7 525.45 615.0759765625 525.295703125 615.2 524.9 615.383984375 524.5220703125 615.2 524.15 615.045703125 523.7728515625 614.65 523.6
M 618.35 523.8
Q 619.725 523.15 621.05 522.5 621.454296875 522.3169921875 621.6 521.9 621.7337890625 521.5421875 621.55 521.15 621.3671875 520.79453125 620.95 520.65 620.593359375 520.5162109375 620.2 520.7 618.875 521.35 617.5 522 617.145703125 522.1828125 617 522.55 616.8662109375 522.9578125 617.05 523.3 617.2328125 523.70546875 617.6 523.85 618.0064453125 523.9837890625 618.35 523.8
M 625.9 499.55
Q 626.1892578125 499.2580078125 626.15 498.85 626.10234375 498.440234375 625.75 498.15 624.625 497.225 623.45 496.25 623.1578125 496.011328125 622.75 496.05 622.339453125 496.097265625 622.05 496.4 621.810546875 496.741796875 621.85 497.15 621.8974609375 497.559765625 622.2 497.8 623.375 498.775 624.5 499.7 624.8421875 499.9884765625 625.25 499.95 625.660546875 499.902734375 625.9 499.55
M 630.1 517.45
Q 630.4931640625 517.5826171875 630.85 517.35 632.15 516.625 633.45 515.85 633.8115234375 515.6580078125 633.9 515.25 634.0328125 514.85546875 633.8 514.5 633.608203125 514.1369140625 633.2 514 632.8068359375 513.9171875 632.45 514.1 631.15 514.875 629.85 515.6 629.48828125 515.8419921875 629.35 516.25 629.2671875 516.64453125 629.45 517 629.6919921875 517.362890625 630.1 517.45
M 627.85 518.7
Q 627.970703125 518.334765625 627.75 517.95 627.5740234375 517.6146484375 627.15 517.5 626.78515625 517.3798828125 626.4 517.55 625.1373046875 518.2623046875 623.8 518.95 623.4298828125 519.14921875 623.3 519.55 623.1791015625 519.9376953125 623.35 520.3 623.5615234375 520.67109375 623.95 520.8 624.33671875 520.933203125 624.7 520.75 626.0626953125 520.0375 627.35 519.3 627.7349609375 519.1232421875 627.85 518.7
M 635.75 512.15
Q 635.4220703125 512.37109375 635.3 512.75 635.2306640625 513.1740234375 635.45 513.5 635.670703125 513.878515625 636.05 513.95 636.4734375 514.0689453125 636.8 513.85 638.137890625 513.037890625 639.4 512.15 639.74375 511.9484375 639.8 511.55 639.8935546875 511.205078125 639.7 510.9 639.855859375 510.98984375 639.95 511.05 640.0427734375 511.1205078125 640.1 511.15 641.3064453125 511.9744140625 642.5 512.75 642.861328125 512.9685546875 643.25 512.85 643.676953125 512.792578125 643.9 512.45 644.119140625 512.0892578125 644 511.65 643.941796875 511.2734375 643.6 511.05 642.96484375 510.6498046875 642.3 510.2 642.9642578125 509.8072265625 643.6 509.35 643.94375 509.1484375 644 508.75 644.1056640625 508.3439453125 643.85 508 643.6486328125 507.655078125 643.25 507.55 642.8451171875 507.4943359375 642.5 507.7 641.5380859375 508.3791015625 640.55 509 640.5005859375 508.9791015625 640.4 508.9 640.084765625 508.6958984375 639.65 508.75 639.2798828125 508.8404296875 639.05 509.15 638.8076171875 509.5150390625 638.85 509.9 638.9171875 510.1861328125 639.05 510.35
L 639.05 510.35
Q 638.6451171875 510.2943359375 638.3 510.5 637.062109375 511.362109375 635.75 512.15
M 632.95 505.85
Q 633.0400390625 506.25625 633.35 506.5 634.625 507.4 635.85 508.3 636.201953125 508.5412109375 636.6 508.45 637.0072265625 508.41015625 637.25 508.05 637.4921875 507.748046875 637.4 507.35 637.3599609375 506.94375 637 506.7 635.775 505.8 634.5 504.9 634.198046875 504.6587890625 633.8 504.7 633.39296875 504.7900390625 633.15 505.1 632.9080078125 505.451953125 632.95 505.85
M 628.95 500.7
Q 628.6126953125 500.446484375 628.2 500.5 627.7953125 500.5634765625 627.55 500.9 627.29609375 501.23671875 627.35 501.65 627.4140625 502.0541015625 627.75 502.3 628.95 503.2 630.15 504.1 630.4873046875 504.3533203125 630.9 504.3 631.3046875 504.2365234375 631.55 503.9 631.80390625 503.56328125 631.75 503.15 631.6857421875 502.7458984375 631.35 502.5 630.15 501.6 628.95 500.7
M 620.8 494.3
Q 620.7669921875 493.919140625 620.45 493.65 619.3 492.65 618.15 491.65 617.8369140625 491.375390625 617.4 491.4 617.0181640625 491.4328125 616.75 491.75 616.4744140625 492.0630859375 616.5 492.45 616.5328125 492.880859375 616.85 493.15 618 494.15 619.15 495.15 619.4630859375 495.4244140625 619.85 495.4 620.2818359375 495.3671875 620.55 495.05 620.8255859375 494.737109375 620.8 494.3
M 622.1 414.55
Q 621.786328125 414.27421875 621.35 414.3 620.9681640625 414.3333984375 620.7 414.65 619.7103515625 415.7970703125 618.8 417.1 618.5943359375 417.4451171875 618.65 417.85 618.755078125 418.2486328125 619.1 418.45 619.4439453125 418.7056640625 619.85 418.6 620.2484375 418.54375 620.45 418.2 621.289453125 417.0029296875 622.2 415.95 622.475 415.6359375 622.45 415.2 622.4169921875 414.8173828125 622.1 414.55
M 627.1 409.8
Q 626.7068359375 409.7171875 626.35 409.9 624.9849609375 410.7201171875 623.7 411.7 623.3994140625 411.9744140625 623.35 412.35 623.309765625 412.7923828125 623.55 413.1 623.823828125 413.451171875 624.2 413.5 624.641796875 413.53984375 624.95 413.25 626.11484375 412.3796875 627.35 411.65 627.7115234375 411.4580078125 627.8 411.05 627.9328125 410.65546875 627.7 410.3 627.508203125 409.9369140625 627.1 409.8
M 617.4 420.15
Q 617.0193359375 420.2962890625 616.85 420.65 616.2232421875 422.022265625 615.7 423.5 615.5666015625 423.9078125 615.75 424.25 615.9333984375 424.655859375 616.3 424.8 616.70859375 424.9337890625 617.05 424.75 617.4552734375 424.5673828125 617.6 424.15 618.0765625 422.7775390625 618.65 421.5 618.8333984375 421.1427734375 618.7 420.75 618.55390625 420.36875 618.15 420.2 617.79296875 420.016015625 617.4 420.15
M 633.35 407.4
Q 631.73515625 407.7328125 630.2 408.25 629.8326171875 408.39453125 629.65 408.75 629.4662109375 409.14140625 629.6 409.5 629.744140625 409.916796875 630.1 410.1 630.4921875 410.2833984375 630.85 410.15 632.26484375 409.6669921875 633.75 409.35 634.1482421875 409.29453125 634.35 408.95 634.6056640625 408.605859375 634.5 408.2 634.444921875 407.8013671875 634.1 407.55 633.75625 407.34453125 633.35 407.4
M 641.05 407.1
Q 640.7607421875 406.803515625 640.35 406.8 639.85 406.8 639.35 406.8 638.4240234375 406.7990234375 637.55 406.85 637.1318359375 406.8701171875 636.85 407.15 636.575 407.48671875 636.6 407.9 636.6197265625 408.3181640625 636.9 408.6 637.23671875 408.8748046875 637.65 408.85 638.47578125 408.80078125 639.35 408.8 639.85 408.8 640.35 408.8 640.7607421875 408.796484375 641.05 408.5 641.346484375 408.2107421875 641.35 407.8 641.346484375 407.3892578125 641.05 407.1
M 672.05 525.8
Q 671.662109375 525.6658203125 671.25 525.8 670.890234375 525.9744140625 670.7 526.35 670.5658203125 526.73671875 670.7 527.1 670.8755859375 527.5095703125 671.25 527.65 672.6625 528.2751953125 674.05 528.8 674.4650390625 528.983984375 674.85 528.8 675.2265625 528.6587890625 675.35 528.25 675.5341796875 527.8853515625 675.35 527.5 675.20859375 527.1236328125 674.8 526.95 673.4375 526.424609375 672.05 525.8
M 681.35 529.5
Q 680 529.012109375 678.6 528.45 678.2349609375 528.316015625 677.85 528.45 677.4734375 528.6412109375 677.3 529 677.1658203125 529.4146484375 677.3 529.8 677.49140625 530.1763671875 677.85 530.3 679.3 530.8875 680.7 531.4 681.10703125 531.53359375 681.45 531.35 681.8548828125 531.1677734375 682 530.75 682.133984375 530.39296875 681.95 530 681.767578125 529.6453125 681.35 529.5
M 662.5 521.85
Q 662.354296875 521.4828125 661.95 521.3 660.6375 520.6498046875 659.3 519.95 658.93671875 519.766796875 658.55 519.9 658.1615234375 520.02890625 657.95 520.4 657.7791015625 520.7625 657.9 521.15 658.0298828125 521.55078125 658.4 521.75 659.7625 522.4501953125 661.1 523.1 661.493359375 523.2837890625 661.85 523.15 662.2671875 523.00546875 662.45 522.6 662.6337890625 522.2578125 662.5 521.85
M 665.6 523
Q 665.2267578125 522.866015625 664.85 523 664.4541015625 523.1728515625 664.25 523.55 664.116015625 523.9220703125 664.25 524.3 664.4240234375 524.695703125 664.8 524.85 666.15 525.475 667.5 526.05 667.8732421875 526.233984375 668.25 526.05 668.645703125 525.9271484375 668.8 525.55 668.983984375 525.1779296875 668.8 524.8 668.6759765625 524.404296875 668.3 524.2 666.95 523.625 665.6 523
M 650.05 515.35
Q 649.9615234375 514.9419921875 649.6 514.7 648.3125 513.9873046875 647 513.2 646.6734375 512.9810546875 646.25 513.05 645.870703125 513.171484375 645.65 513.5 645.4306640625 513.87578125 645.5 514.25 645.6220703125 514.67890625 645.95 514.9 647.2875 515.7125 648.6 516.45 648.9568359375 516.6826171875 649.35 516.55 649.758203125 516.462890625 649.95 516.1 650.1828125 515.74453125 650.05 515.35
M 651.6 517.8
Q 651.73828125 518.2080078125 652.1 518.4 653.424609375 519.187890625 654.8 519.9 655.16328125 520.083203125 655.55 519.95 655.938671875 519.82109375 656.1 519.45 656.32109375 519.0876953125 656.2 518.7 656.0701171875 518.29921875 655.7 518.1 654.375390625 517.412109375 653.1 516.65 652.7431640625 516.4671875 652.35 516.55 651.9419921875 516.6869140625 651.7 517.05 651.5171875 517.40546875 651.6 517.8
M 649.3 505.2
Q 649.6357421875 504.9541015625 649.7 504.55 649.75390625 504.13671875 649.5 503.8 649.2546875 503.4634765625 648.85 503.4 648.4373046875 503.346484375 648.1 503.6 646.9 504.5 645.7 505.4 645.3640625 505.6458984375 645.3 506.05 645.24609375 506.46328125 645.5 506.8 645.7453125 507.1365234375 646.15 507.2 646.5626953125 507.2533203125 646.9 507 648.1 506.1 649.3 505.2
M 654.25 499.05
Q 653.8421875 499.011328125 653.5 499.25 652.375 500.225 651.2 501.15 650.8974609375 501.440234375 650.85 501.85 650.810546875 502.2580078125 651.05 502.55 651.339453125 502.902734375 651.75 502.95 652.1578125 502.9884765625 652.45 502.7 653.625 501.775 654.75 500.8 655.10234375 500.559765625 655.15 500.15 655.1892578125 499.741796875 654.9 499.4 654.660546875 499.097265625 654.25 499.05
M 688.8 533.1
Q 688.93359375 532.7271484375 688.75 532.35 688.56484375 531.9802734375 688.15 531.85 686.675 531.35 685.15 530.85 684.7767578125 530.71640625 684.4 530.9 684.0302734375 531.084765625 683.9 531.45 683.76640625 531.8728515625 683.95 532.25 684.1349609375 532.61953125 684.5 532.75 686.025 533.25 687.5 533.75 687.923046875 533.8833984375 688.3 533.7 688.6697265625 533.515234375 688.8 533.1
M 662.55 491.4
Q 662.1392578125 491.403515625 661.85 491.7 661.7 491.85 661.55 492 661.253515625 492.2892578125 661.25 492.7 661.253515625 493.1107421875 661.55 493.4 661.8392578125 493.696484375 662.25 493.7 662.6607421875 493.696484375 662.95 493.4 663.1 493.25 663.25 493.1 663.546484375 492.8107421875 663.55 492.4 663.546484375 491.9892578125 663.25 491.7 662.9607421875 491.403515625 662.55 491.4
M 659.5 494.35
Q 659.0853515625 494.3259765625 658.75 494.6 657.6375 495.6498046875 656.5 496.65 656.1828125 496.919140625 656.15 497.3 656.1244140625 497.737109375 656.4 498.05 656.6681640625 498.3671875 657.05 498.4 657.4869140625 498.4244140625 657.8 498.15 658.9625 497.15 660.1 496.1 660.43046875 495.815625 660.45 495.4 660.4744140625 494.9845703125 660.2 494.65 659.9162109375 494.36875 659.5 494.35
M 648.15 409.05
Q 648.2705078125 408.6826171875 648.05 408.3 647.8720703125 407.9634765625 647.45 407.85 646.0267578125 407.4345703125 644.45 407.15 644.0646484375 407.1078125 643.7 407.35 643.3904296875 407.5798828125 643.3 407.95 643.2576171875 408.3849609375 643.5 408.7 643.7302734375 409.059375 644.1 409.1 645.573046875 409.365234375 646.9 409.75 647.3177734375 409.8703125 647.65 409.65 648.03671875 409.4724609375 648.15 409.05
M 661.35 419.8
Q 661.1810546875 419.446875 660.8 419.3 660.4068359375 419.166015625 660 419.35 659.64609375 419.51875 659.5 419.9 659.3662109375 420.2921875 659.55 420.65 660.1734375 422.038671875 660.7 423.5 660.8462890625 423.88125 661.2 424.05 661.6068359375 424.233984375 662 424.1 662.38125 423.95390625 662.55 423.55 662.73359375 423.1931640625 662.6 422.8 662.026171875 421.2609375 661.35 419.8
M 654.45 411.55
Q 654.408984375 411.1673828125 654.05 410.9 652.816015625 410.0337890625 651.4 409.3 651.03671875 409.116796875 650.65 409.25 650.2615234375 409.37890625 650.05 409.75 649.8791015625 410.1125 650 410.5 650.1298828125 410.90078125 650.5 411.1 651.783984375 411.766015625 652.9 412.55 653.266015625 412.804296875 653.65 412.7 654.083203125 412.659375 654.3 412.3 654.5548828125 411.9841796875 654.45 411.55
M 657.3 413.7
Q 657.015234375 413.4189453125 656.6 413.4 656.184765625 413.3755859375 655.85 413.65 655.56875 413.9337890625 655.55 414.35 655.5265625 414.7650390625 655.8 415.05 656.758984375 416.116015625 657.55 417.3 657.8015625 417.64375 658.2 417.7 658.6060546875 417.8056640625 658.95 417.55 659.294921875 417.3486328125 659.35 416.95 659.45546875 416.5451171875 659.2 416.2 658.341015625 414.8837890625 657.3 413.7
M 894.9 506.4
Q 894.4951171875 506.3443359375 894.15 506.55 892.9 507.425 891.65 508.25 891.30625 508.5015625 891.2 508.9 891.1443359375 509.3060546875 891.35 509.65 891.6015625 509.994921875 892 510.05 892.4048828125 510.15546875 892.75 509.9 894 509.075 895.25 508.2 895.59375 507.9984375 895.65 507.6 895.7556640625 507.1939453125 895.5 506.85 895.2986328125 506.505078125 894.9 506.4
M 901.35 503.25
Q 901.390234375 502.8576171875 901.1 502.5 900.876171875 502.198828125 900.45 502.15 900.058203125 502.11015625 899.7 502.35 898.5375 503.3123046875 897.35 504.2 897.0140625 504.4458984375 896.95 504.85 896.89609375 505.26328125 897.15 505.6 897.3953125 505.9365234375 897.8 506 898.2126953125 506.0533203125 898.55 505.8 899.7625 504.8876953125 900.95 503.9 901.3005859375 503.6755859375 901.35 503.25
M 906.3 499.55
Q 906.6166015625 499.281640625 906.65 498.85 906.67578125 498.463671875 906.4 498.15 906.132421875 497.833203125 905.7 497.8 905.3138671875 497.775 905 498.05 903.9123046875 498.9875 902.75 499.9 902.4474609375 500.190234375 902.4 500.6 902.360546875 501.0080078125 902.6 501.3 902.889453125 501.652734375 903.3 501.7 903.7078125 501.7384765625 904 501.45 905.1876953125 500.5125 906.3 499.55
M 845 530.95
Q 844.636328125 530.766796875 844.25 530.9 842.8498046875 531.35 841.4 531.8 841.0130859375 531.915625 840.8 532.25 840.6291015625 532.6486328125 840.75 533.05 840.8654296875 533.4376953125 841.2 533.6 841.598046875 533.820703125 842 533.7 843.45 533.25 844.85 532.8 845.251953125 532.6703125 845.45 532.3 845.63359375 531.9369140625 845.5 531.55 845.370703125 531.1484375 845 530.95
M 854.55 527.3
Q 854.19140625 527.4736328125 854 527.85 853.8658203125 528.2353515625 854 528.6 854.1734375 529.0087890625 854.55 529.15 854.9349609375 529.333984375 855.3 529.15 856.725 528.625 858.1 528.05 858.50859375 527.9263671875 858.65 527.55 858.8341796875 527.1646484375 858.65 526.75 858.5265625 526.3912109375 858.15 526.2 857.7650390625 526.066015625 857.35 526.2 855.975 526.775 854.55 527.3
M 851.6 528.7
Q 851.25703125 528.5162109375 850.85 528.65 849.4748046875 529.15 848 529.65 847.6326171875 529.79453125 847.45 530.15 847.2662109375 530.54140625 847.4 530.9 847.544140625 531.316796875 847.9 531.5 848.2921875 531.6833984375 848.65 531.55 850.125 531.05 851.5 530.55 851.917578125 530.4046875 852.1 530 852.283984375 529.65703125 852.15 529.25 852.0048828125 528.8822265625 851.6 528.7
M 863.8 523.5
Q 862.45 524.1248046875 861.05 524.7 860.6755859375 524.8904296875 860.5 525.25 860.3658203125 525.6634765625 860.5 526.05 860.690234375 526.4255859375 861.05 526.55 861.462109375 526.733984375 861.85 526.55 863.2501953125 525.9748046875 864.6 525.35 864.9759765625 525.195703125 865.1 524.8 865.283984375 524.4220703125 865.1 524.05 864.945703125 523.6728515625 864.55 523.5 864.1732421875 523.366015625 863.8 523.5
M 867.45 521.85
Q 867.0740234375 522.054296875 866.9 522.45 866.766015625 522.8279296875 866.9 523.2 867.1041015625 523.5771484375 867.5 523.7 867.8767578125 523.883984375 868.25 523.7 869.6125 523.1126953125 870.95 522.45 871.354296875 522.2669921875 871.5 521.85 871.6337890625 521.4921875 871.45 521.1 871.2671875 520.74453125 870.85 520.6 870.493359375 520.4662109375 870.1 520.65 868.7875 521.2873046875 867.45 521.85
M 889.05 510.3
Q 888.661328125 510.2314453125 888.3 510.45 887.05 511.25 885.8 512.05 885.458203125 512.2734375 885.35 512.65 885.2810546875 513.0892578125 885.5 513.45 885.723046875 513.792578125 886.1 513.85 886.538671875 513.9685546875 886.9 513.75 888.15 512.95 889.4 512.15 889.741796875 511.9265625 889.8 511.5 889.919140625 511.110546875 889.7 510.75 889.476953125 510.407421875 889.05 510.3
M 879.8 515.55
Q 879.43828125 515.7919921875 879.3 516.2 879.2171875 516.59453125 879.4 516.95 879.6419921875 517.312890625 880.05 517.4 880.4431640625 517.5326171875 880.8 517.3 882.1 516.575 883.4 515.8 883.7615234375 515.6080078125 883.85 515.2 883.9828125 514.80546875 883.75 514.45 883.558203125 514.0869140625 883.15 513.95 882.7568359375 513.8671875 882.4 514.05 881.1 514.825 879.8 515.55
M 873.7 518.9
Q 873.3298828125 519.09921875 873.2 519.5 873.0791015625 519.8876953125 873.25 520.25 873.4615234375 520.62109375 873.85 520.75 874.23671875 520.883203125 874.6 520.7 875.9626953125 519.9875 877.25 519.25 877.6349609375 519.0732421875 877.75 518.65 877.870703125 518.284765625 877.65 517.9 877.4740234375 517.5646484375 877.05 517.45 876.68515625 517.3298828125 876.3 517.5 875.0373046875 518.2123046875 873.7 518.9
M 910.85 493.05
Q 910.4392578125 493.053515625 910.15 493.35 909.11171875 494.3748046875 907.95 495.4 907.66953125 495.6841796875 907.65 496.1 907.6255859375 496.515234375 907.9 496.8 908.1837890625 497.13125 908.6 497.15 909.0146484375 497.1740234375 909.3 496.9 910.48828125 495.825 911.55 494.75 911.846484375 494.4607421875 911.85 494.05 911.846484375 493.6392578125 911.55 493.35 911.2607421875 493.053515625 910.85 493.05 Z"/>
</g>

<path id="Layer0_0_1_STROKES" stroke="#DBDBDB" stroke-width="3" stroke-linejoin="round" stroke-linecap="round" fill="none" d="
M 980.4 538.15
L 1010.4 538.15
Q 1025.4 538.15 1025.4 553.15
L 1025.4 583.2
Q 1025.4 598.2 1010.4 598.2
L 980.4 598.2
Q 965.4 598.2 965.4 583.2
L 965.4 553.15
Q 965.4 538.15 980.4 538.15 Z
M 1063.3 498.6
L 1093.3 498.6
Q 1108.3 498.6 1108.3 513.6
L 1108.3 543.65
Q 1108.3 558.65 1093.3 558.65
L 1063.3 558.65
Q 1048.3 558.65 1048.3 543.65
L 1048.3 513.6
Q 1048.3 498.6 1063.3 498.6 Z
M 1063.3 578.6
L 1093.3 578.6
Q 1108.3 578.6 1108.3 593.6
L 1108.3 623.65
Q 1108.3 638.65 1093.3 638.65
L 1063.3 638.65
Q 1048.3 638.65 1048.3 623.65
L 1048.3 593.6
Q 1048.3 578.6 1063.3 578.6 Z"/>

<path id="Layer0_0_2_STROKES" stroke="#1E1E1E" stroke-width="3" stroke-linejoin="miter" stroke-linecap="butt" stroke-miterlimit="3" fill="none" d="
M 726 542.9
L 764.2 542.9
M 1040.15 568.1
L 1116.5 568.1
M 476 542.9
L 514.2 542.9
M 620.55 357.8
L 658.75 357.8"/>

<path id="Layer0_0_3_STROKES" stroke="#B2A0CC" stroke-width="3" stroke-linejoin="round" stroke-linecap="butt" fill="none" d="
M 662.55 489.9
L 911.65 489.9 911.65 426.55 662.55 426.55
M 662.55 489.9
L 616.45 489.9 367.5 489.9 367.5 426.55 616.45 426.55 662.55 426.55"/>

<path id="Layer0_0_4_STROKES" stroke="#B2A0CC" stroke-width="2" stroke-linejoin="round" stroke-linecap="butt" fill="none" d="
M 616.45 426.55
L 616.45 489.9"/>
</defs>

<g transform="matrix( 1, 0, 0, 1, 0,0) ">
<use xlink:href="#Layer0_0_FILL"/>

<use xlink:href="#Layer0_0_1_STROKES"/>

<use xlink:href="#Layer0_0_2_STROKES"/>

<use xlink:href="#Layer0_0_3_STROKES"/>

<use xlink:href="#Layer0_0_4_STROKES"/>

<use xlink:href="#Layer0_0_STROKES_1_FILL"/>

<use xlink:href="#Layer0_0_STROKES_2_FILL"/>
</g>
</svg>
