<?xml version="1.0" encoding="utf-8"?>
<!-- Generator: Adobe Illustrator 23.0.0, SVG Export Plug-In . SVG Version: 6.00 Build 0)  -->
<svg version="1.1" id="레이어_1" xmlns="http://www.w3.org/2000/svg" xmlns:xlink="http://www.w3.org/1999/xlink" x="0px"
	 y="0px" viewBox="0 0 193.6 74.5" style="enable-background:new 0 0 193.6 74.5;" xml:space="preserve">
<style type="text/css">
	.st0{fill:none;stroke:#CCBDDC;stroke-width:2;}
	.st1{fill:#FFFFFF;}
	.st2{fill:none;stroke:#CCBDDC;stroke-width:1.5;stroke-linecap:round;stroke-linejoin:round;}
	.st3{fill:#231815;}
	.st4{fill:#CCBDDC;}
</style>
<title>자산 4</title>
<g>
	<g id="레이어_1-2">
		<line class="st0" x1="97.1" y1="30.5" x2="97.1" y2="44.1"/>
		<path class="st1" d="M6.4,0.8c0,0-5.7,0-5.7,5.7V27c0,0,0,5.7,5.7,5.7h180.7c0,0,5.7,0,5.7-5.7V6.4c0,0,0-5.7-5.7-5.7H6.4z"/>
		<path class="st2" d="M6.4,0.8c0,0-5.7,0-5.7,5.7V27c0,0,0,5.7,5.7,5.7h180.7c0,0,5.7,0,5.7-5.7V6.4c0,0,0-5.7-5.7-5.7H6.4z"/>
		<path class="st1" d="M6.4,41.8c0,0-5.7,0-5.7,5.7v20.6c0,0,0,5.7,5.7,5.7h180.7c0,0,5.7,0,5.7-5.7V47.5c0,0,0-5.7-5.7-5.7H6.4z"/>
		<path class="st2" d="M6.4,41.8c0,0-5.7,0-5.7,5.7v20.6c0,0,0,5.7,5.7,5.7h180.7c0,0,5.7,0,5.7-5.7V47.5c0,0,0-5.7-5.7-5.7H6.4z"/>
		<path class="st3" d="M23.6,17.2c0.1,2.8-2,5.1-4.8,5.2c-0.1,0-0.3,0-0.4,0c-2.8,0.1-5.1-2-5.2-4.8c0-0.1,0-0.3,0-0.4
			c-0.1-2.8,2.1-5.1,4.8-5.2c0.1,0,0.2,0,0.4,0c2.8-0.1,5.1,2,5.2,4.8C23.6,16.9,23.6,17,23.6,17.2z M14,17.2
			c-0.1,2.4,1.8,4.4,4.1,4.4c0.1,0,0.2,0,0.3,0c2.4,0.1,4.3-1.8,4.4-4.1c0-0.1,0-0.2,0-0.3c0.1-2.4-1.8-4.3-4.1-4.4
			c-0.1,0-0.2,0-0.3,0c-2.4-0.1-4.3,1.8-4.4,4.2C14,17,14,17.1,14,17.2L14,17.2z M20.7,15.9V19c0,0.3-0.2,0.4-0.5,0.4
			s-0.4-0.1-0.4-0.4v-2.9c0-0.1,0-0.1-0.1-0.1h-3.6c-0.2,0-0.3-0.2-0.3-0.4s0.1-0.4,0.3-0.4h3.9C20.6,15.2,20.7,15.4,20.7,15.9z"/>
		<path class="st3" d="M35.3,16v0.6c0,2.9-1,4.4-3.3,4.4s-3.3-1.6-3.3-4.4V16c0-2.9,1-4.4,3.3-4.4S35.3,13.1,35.3,16z M30,16.1v0.4
			c0,2.3,0.5,3.3,2,3.3s2-1,2-3.3v-0.4c0-2.3-0.5-3.3-2-3.3S30,13.8,30,16.1L30,16.1z"/>
		<path class="st3" d="M38.5,20.5c0,0.5-0.4,0.9-0.9,0.9c-0.5,0-0.9-0.4-0.9-0.9c0-0.5,0.4-0.9,0.9-0.9c0,0,0,0,0,0
			C38.1,19.6,38.4,20,38.5,20.5C38.5,20.5,38.5,20.5,38.5,20.5z"/>
		<path class="st3" d="M46.5,16v0.6c0,2.9-1,4.4-3.3,4.4s-3.3-1.6-3.3-4.4V16c0-2.9,1-4.4,3.3-4.4S46.5,13.1,46.5,16z M41.2,16.1
			v0.4c0,2.3,0.5,3.3,2,3.3s2-1,2-3.3v-0.4c0-2.3-0.5-3.3-2-3.3S41.2,13.8,41.2,16.1L41.2,16.1z"/>
		<path class="st3" d="M52.6,12.1v8.3c0,0.4-0.3,0.5-0.7,0.5s-0.7-0.2-0.7-0.5v-7.3l-2,1.2c-0.3,0.2-0.6,0.1-0.8-0.2c0,0,0,0,0-0.1
			c-0.2-0.3-0.1-0.6,0.2-0.8c0,0,0,0,0,0l2.3-1.4c0.3-0.2,0.6-0.3,0.9-0.3C52.3,11.6,52.6,11.8,52.6,12.1z"/>
		<path class="st3" d="M60.6,15.6c0,2.4-1,3.7-2.9,3.7s-2.9-1.3-2.9-3.7s1-3.7,2.9-3.7S60.6,13.2,60.6,15.6z M56,15.6
			c0,1.7,0.5,2.6,1.7,2.6s1.7-0.9,1.7-2.6S58.9,13,57.7,13S56,13.9,56,15.6z M63.6,11.8v9.8c0,0.4-0.3,0.5-0.6,0.5
			c-0.3,0-0.6-0.2-0.6-0.5c0,0,0,0,0,0v-9.8c0-0.3,0.3-0.5,0.6-0.5c0,0,0,0,0.1,0C63.3,11.2,63.6,11.4,63.6,11.8L63.6,11.8z"/>
		<path class="st3" d="M73.1,12c0.3,0.1,0.4,0.5,0.2,0.8c0,0,0,0,0,0c-0.1,0.3-0.4,0.4-0.7,0.3c0,0-0.1,0-0.1,0
			c-0.5-0.2-1-0.3-1.5-0.4c-1.4,0-2.1,1.1-2.3,3.2c0.5-0.7,1.4-1.1,2.3-1.1c1.5-0.1,2.8,1,2.9,2.6c0,0.1,0,0.3,0,0.4V18
			c0,1.6-1.2,3-2.9,3c-0.1,0-0.2,0-0.3,0c-2.1,0-3.3-1.4-3.3-3.9v-0.4c0-4,1.5-5.2,3.6-5.2C71.8,11.5,72.4,11.7,73.1,12z M68.7,17.8
			v0.1c-0.1,1,0.6,1.9,1.6,1.9c0.1,0,0.2,0,0.3,0c1,0.1,1.8-0.6,1.9-1.5c0-0.1,0-0.2,0-0.3v-0.1c0.1-0.9-0.5-1.8-1.4-1.9
			c-0.2,0-0.3,0-0.5,0c-1-0.1-1.8,0.6-1.9,1.6C68.7,17.7,68.7,17.7,68.7,17.8z"/>
		<path class="st3" d="M81.7,12.4c0,0.4-0.2,0.7-0.3,1l-3.3,7.2c-0.1,0.3-0.5,0.4-0.8,0.3c0,0,0,0-0.1,0c-0.3-0.1-0.4-0.4-0.3-0.7
			c0,0,0-0.1,0-0.1l3.4-7.3h-4.7c-0.3,0-0.5-0.3-0.5-0.6s0.2-0.6,0.5-0.6h5.2C81.5,11.7,81.7,11.9,81.7,12.4z"/>
		<path class="st3" d="M85.6,12.2c0.7,0,0.9,0.2,0.9,0.9v1.3c0,2.3-0.3,2.6-3.6,5c-0.3,0.2-0.6,0.1-0.8-0.2C82,19,82,18.7,82.2,18.5
			c2.9-2.1,3.1-2.3,3.1-4.1v-0.9c0-0.2-0.1-0.3-0.3-0.3h-2.5c-0.3,0-0.4-0.3-0.4-0.5s0.1-0.6,0.4-0.6H85.6z M91.4,11.7v9.8
			c-0.1,0.3-0.4,0.5-0.7,0.5c-0.2,0-0.4-0.2-0.5-0.5v-5.4h-1.4V21c0,0.3-0.3,0.5-0.6,0.5c-0.3,0-0.5-0.2-0.6-0.4c0,0,0,0,0-0.1v-9.2
			c0-0.3,0.2-0.5,0.5-0.5c0,0,0,0,0.1,0c0.3,0,0.6,0.1,0.6,0.5v3.2h1.4v-3.3c0.1-0.3,0.4-0.5,0.7-0.5C91.2,11.3,91.4,11.5,91.4,11.7
			z"/>
		<path class="st3" d="M98.8,14.7c0.1,1.6-1.1,2.9-2.7,3s-2.9-1.1-3-2.7c0-0.1,0-0.2,0-0.3c-0.1-1.6,1.1-2.9,2.7-3s2.9,1.1,3,2.7
			C98.8,14.5,98.8,14.6,98.8,14.7z M94.3,14.7c-0.1,0.9,0.5,1.7,1.4,1.8c0.1,0,0.2,0,0.3,0c1.2,0,1.7-0.9,1.7-1.9s-0.5-1.8-1.7-1.8
			c-0.9,0-1.6,0.6-1.7,1.5C94.2,14.5,94.2,14.6,94.3,14.7z M96,19.1v2.1c0,0.2,0.1,0.3,0.3,0.3h5.5c0.3,0,0.4,0.3,0.4,0.5
			s-0.1,0.5-0.4,0.5h-6.1c-0.7,0-1-0.2-1-0.9v-2.5c0-0.4,0.3-0.5,0.6-0.5c0.3-0.1,0.6,0.1,0.7,0.4C96,19,96,19.1,96,19.1z
			 M101.9,11.8v7.4c0,0.3-0.4,0.6-0.7,0.5c-0.3,0-0.5-0.3-0.5-0.5v-7.4c0-0.3,0.3-0.5,0.6-0.5c0,0,0,0,0.1,0
			C101.6,11.2,101.9,11.4,101.9,11.8L101.9,11.8z"/>
		<path class="st3" d="M116.4,18.3c0,0.3-0.1,0.5-0.4,0.5h-4.1v3.5c0,0.4-0.3,0.5-0.6,0.5s-0.6-0.2-0.6-0.5v-3.5h-4.1
			c-0.3,0-0.4-0.2-0.4-0.5s0.1-0.5,0.4-0.5h9.4C116.3,17.8,116.4,18,116.4,18.3z M111.9,12.1v0.6c0,0.8,0.5,1.5,1.2,1.8
			c0.8,0.4,1.6,0.8,2.3,1.1c0.3,0.1,0.3,0.5,0.2,0.7c-0.1,0.3-0.4,0.4-0.7,0.3c0,0,0,0,0,0c-0.8-0.4-1.5-0.8-2.3-1.1
			s-1.2-0.9-1.3-1.2l0,0c-0.1,0.3-0.4,0.7-1.3,1.2s-1.5,0.8-2.3,1.1c-0.3,0.1-0.6,0-0.7-0.3c0,0,0,0,0,0c-0.2-0.3-0.1-0.6,0.2-0.7
			c0,0,0,0,0,0c0.7-0.3,1.4-0.7,2.2-1.1c0.7-0.3,1.2-1,1.2-1.8v-0.6c0-0.4,0.3-0.5,0.6-0.5S111.9,11.7,111.9,12.1z"/>
		<path class="st3" d="M17.1,54.8v2.8c0,0.1,0,0.1,0.1,0.1h3.5c0.2,0,0.3,0.2,0.3,0.4s-0.1,0.4-0.3,0.4h-3.9c-0.5,0-0.7-0.2-0.7-0.6
			v-3.1c0-0.3,0.2-0.4,0.5-0.4S17.1,54.5,17.1,54.8L17.1,54.8z"/>
		<path class="st3" d="M35.3,56.6v0.6c0,2.9-1,4.4-3.3,4.4s-3.3-1.6-3.3-4.4v-0.6c0-2.9,1-4.5,3.3-4.5S35.3,53.8,35.3,56.6z
			 M30,56.7v0.4c0,2.3,0.5,3.3,2,3.3s2-1,2-3.3v-0.4c0-2.3-0.5-3.3-2-3.3S30,54.4,30,56.7L30,56.7z"/>
		<path class="st3" d="M38.5,61.2c0,0.5-0.4,0.9-0.9,0.9c-0.5,0-0.9-0.4-0.9-0.9c0-0.5,0.4-0.9,0.9-0.9
			C38.1,60.3,38.4,60.7,38.5,61.2C38.5,61.2,38.5,61.2,38.5,61.2z"/>
		<path class="st3" d="M44.7,52.8v8.3c0,0.4-0.3,0.5-0.7,0.5s-0.7-0.2-0.7-0.5v-7.3L41.5,55c-0.3,0.2-0.6,0.1-0.8-0.2c0,0,0,0,0-0.1
			c-0.2-0.3-0.1-0.6,0.2-0.8c0,0,0,0,0,0l2.3-1.4c0.3-0.2,0.6-0.3,0.9-0.3C44.4,52.3,44.7,52.4,44.7,52.8z"/>
		<path class="st3" d="M51.7,56.3c0,2.4-1,3.7-2.9,3.7s-2.9-1.3-2.9-3.7s1-3.7,2.9-3.7S51.7,53.9,51.7,56.3z M47.1,56.3
			c0,1.7,0.5,2.6,1.7,2.6s1.7-0.9,1.7-2.6s-0.5-2.6-1.7-2.6S47.1,54.6,47.1,56.3z M54.7,52.4v9.8c0,0.4-0.3,0.5-0.6,0.5
			c-0.3,0-0.6-0.2-0.6-0.5c0,0,0,0,0,0v-9.8c0-0.3,0.3-0.5,0.6-0.5c0,0,0,0,0.1,0C54.4,51.9,54.7,52.1,54.7,52.4z"/>
		<path class="st3" d="M66.6,54.5v0.1c0,1-0.5,2-1.3,2.7l-3,3.2h4.2c0.3,0,0.5,0.2,0.5,0.5s-0.2,0.5-0.5,0.5h-5c-0.7,0-1-0.2-1-0.7
			c0-0.2,0.1-0.4,0.4-0.7l3.2-3.4c0.9-1,1.1-1.5,1.1-2.1v-0.1c0-0.8-0.5-1.3-1.6-1.3c-0.8,0-1.5,0.4-1.9,1c-0.2,0.2-0.5,0.3-0.7,0.2
			c0,0,0,0,0,0c-0.3-0.2-0.4-0.5-0.2-0.8c0,0,0,0,0,0c0.6-1,1.7-1.5,2.8-1.5C65.7,52.2,66.6,53.3,66.6,54.5z"/>
		<path class="st3" d="M71.6,52.8c0.7,0,0.9,0.2,0.9,0.9v1.3c0,2.3-0.3,2.7-3.6,5c-0.3,0.2-0.6,0.1-0.8-0.2
			c-0.2-0.2-0.2-0.6,0.1-0.8c2.9-2.1,3.1-2.3,3.1-4.1v-0.9c0-0.2-0.1-0.3-0.3-0.3h-2.5c-0.3,0-0.4-0.3-0.4-0.5s0.1-0.5,0.4-0.5
			L71.6,52.8z M77.5,52.4v9.8c-0.1,0.3-0.4,0.5-0.7,0.5c-0.2,0-0.4-0.2-0.5-0.5v-5.4H75v4.9c0,0.3-0.3,0.5-0.6,0.5
			c-0.3,0-0.5-0.2-0.6-0.4c0,0,0,0,0-0.1v-9.2c0-0.3,0.2-0.5,0.5-0.5c0,0,0,0,0.1,0c0.3,0,0.6,0.2,0.6,0.5v3.2h1.4v-3.3
			c0.1-0.3,0.4-0.5,0.7-0.5C77.3,52,77.5,52.2,77.5,52.4L77.5,52.4z"/>
		<path class="st3" d="M80.5,61.2l-0.6,1.9c-0.1,0.3-0.3,0.4-0.6,0.4c0,0,0,0,0,0c-0.2,0-0.4-0.2-0.4-0.4c0,0,0,0,0-0.1l0.3-2
			c0.1-0.3,0.4-0.6,0.7-0.5c0,0,0.1,0,0.1,0c0.3,0,0.5,0.3,0.5,0.6C80.5,61.1,80.5,61.1,80.5,61.2z"/>
		<path class="st3" d="M92.1,56.6v0.6c0,2.9-1,4.4-3.3,4.4s-3.3-1.6-3.3-4.4v-0.6c0-2.9,1-4.5,3.3-4.5S92.1,53.8,92.1,56.6z
			 M86.8,56.7v0.4c0,2.3,0.5,3.3,2,3.3s2-1,2-3.3v-0.4c0-2.3-0.5-3.3-2-3.3S86.8,54.4,86.8,56.7z"/>
		<path class="st3" d="M95.2,61.2c0,0.5-0.4,0.9-0.9,0.9c-0.5,0-0.9-0.4-0.9-0.9c0-0.5,0.4-0.9,0.9-0.9l0,0
			C94.8,60.3,95.2,60.7,95.2,61.2C95.2,61.2,95.2,61.2,95.2,61.2z"/>
		<path class="st3" d="M103.3,56.6v0.6c0,2.9-1,4.4-3.3,4.4s-3.3-1.6-3.3-4.4v-0.6c0-2.9,1-4.5,3.3-4.5S103.3,53.8,103.3,56.6z
			 M97.9,56.7v0.4c0,2.3,0.5,3.3,2,3.3s2-1,2-3.3v-0.4c0-2.3-0.5-3.3-2-3.3S97.9,54.4,97.9,56.7z"/>
		<path class="st3" d="M109.4,52.8v8.3c0,0.4-0.3,0.5-0.7,0.5s-0.7-0.2-0.7-0.5v-7.3l-2,1.2c-0.3,0.2-0.6,0.1-0.8-0.2c0,0,0,0,0-0.1
			c-0.2-0.3-0.1-0.6,0.2-0.8c0,0,0,0,0,0l2.3-1.4c0.3-0.2,0.6-0.3,0.9-0.3C109.1,52.3,109.4,52.4,109.4,52.8z"/>
		<path class="st3" d="M116.2,56.3c0,2.4-1,3.7-2.9,3.7s-2.9-1.3-2.9-3.7s1-3.7,2.9-3.7S116.2,53.9,116.2,56.3z M111.7,56.3
			c0,1.7,0.5,2.6,1.7,2.6s1.7-0.9,1.7-2.6s-0.5-2.6-1.7-2.6S111.7,54.6,111.7,56.3z M119.3,52.4v9.8c0,0.4-0.3,0.5-0.6,0.5
			c-0.3,0-0.6-0.2-0.6-0.5c0,0,0,0,0,0v-9.8c0-0.4,0.3-0.5,0.6-0.5S119.3,52.1,119.3,52.4z"/>
		<path class="st3" d="M130.2,54.7v0.1c0,0.9-0.6,1.6-1.4,2c1,0.3,1.7,1.2,1.7,2.2v0.2c0,1.5-1.2,2.6-3.1,2.6s-3.2-1.1-3.2-2.6V59
			c0-1,0.7-1.9,1.7-2.2c-0.8-0.4-1.3-1.1-1.4-2v-0.1c0-1.3,1-2.5,2.9-2.5c1.4-0.2,2.7,0.8,2.9,2.3C130.2,54.6,130.2,54.6,130.2,54.7
			z M125.5,59L125.5,59c0,1,0.7,1.6,1.8,1.6c1.1,0,1.8-0.6,1.8-1.5V59c0-0.9-0.7-1.6-1.6-1.6c-0.1,0-0.1,0-0.2,0
			C126.3,57.4,125.5,58,125.5,59z M125.7,54.7L125.7,54.7c0,0.9,0.7,1.5,1.5,1.5c0,0,0.1,0,0.1,0c0.8,0.1,1.5-0.5,1.6-1.3
			c0-0.1,0-0.1,0-0.2v-0.1c-0.1-0.9-0.9-1.5-1.8-1.4C126.4,53.5,125.8,54,125.7,54.7z"/>
		<path class="st3" d="M134.4,52.8c0.7,0,0.9,0.2,0.9,0.9v1.3c0,2.3-0.3,2.7-3.6,5c-0.3,0.2-0.6,0.1-0.8-0.1c0,0,0,0,0,0
			c-0.2-0.2-0.2-0.6,0.1-0.8c2.9-2.1,3.1-2.3,3.1-4.1v-0.9c0-0.2-0.1-0.3-0.3-0.3h-2.5c-0.3,0-0.4-0.3-0.4-0.5s0.1-0.5,0.4-0.5
			L134.4,52.8z M140.3,52.4v9.8c0,0.3-0.3,0.5-0.6,0.5c-0.3,0-0.5-0.2-0.6-0.4c0,0,0,0,0-0.1v-5.4h-1.4v4.9
			c-0.1,0.3-0.4,0.5-0.7,0.5c-0.2,0-0.4-0.2-0.5-0.5v-9.2c0.1-0.3,0.4-0.5,0.7-0.5c0.2,0,0.4,0.2,0.5,0.5v3.2h1.4v-3.3
			c0-0.3,0.2-0.5,0.5-0.5c0,0,0,0,0.1,0C140.1,51.9,140.3,52.1,140.3,52.4z"/>
		<path class="st3" d="M147.7,55.4c0,1.6-1.3,2.8-2.9,2.8s-2.8-1.3-2.8-2.9c0-1.6,1.3-2.8,2.9-2.8c1.5-0.1,2.7,1,2.9,2.5
			C147.7,55.1,147.7,55.2,147.7,55.4z M143.1,55.4c0.1,0.9,0.9,1.6,1.8,1.5c0.9-0.1,1.6-0.9,1.5-1.8c-0.1-0.9-0.8-1.5-1.7-1.5
			c-0.9,0-1.7,0.6-1.7,1.5C143.1,55.2,143.1,55.3,143.1,55.4z M144.9,59.8v2.1c0,0.2,0.1,0.3,0.3,0.3h5.5c0.3,0,0.4,0.3,0.4,0.5
			s-0.1,0.5-0.4,0.5h-6.1c-0.7,0-0.9-0.2-0.9-0.9v-2.5c0-0.4,0.3-0.5,0.6-0.5S144.9,59.5,144.9,59.8z M150.8,52.4v7.4
			c-0.1,0.3-0.4,0.6-0.7,0.5c-0.3,0-0.5-0.2-0.5-0.5v-7.4c0-0.4,0.3-0.5,0.6-0.5S150.8,52.1,150.8,52.4z"/>
		<path class="st3" d="M165.3,59c0,0.3-0.1,0.5-0.4,0.5h-4.1V63c0,0.4-0.3,0.5-0.6,0.5s-0.6-0.2-0.6-0.5v-3.5h-4.1
			c-0.3,0-0.4-0.2-0.4-0.5s0.1-0.5,0.4-0.5h9.4C165.2,58.5,165.3,58.7,165.3,59z M160.8,52.7v0.6c0,0.8,0.5,1.5,1.2,1.8
			c0.8,0.5,1.6,0.8,2.2,1.1c0.3,0.2,0.3,0.5,0.2,0.7c-0.1,0.3-0.4,0.4-0.7,0.3c0,0,0,0,0,0c-0.8-0.4-1.6-0.8-2.3-1.1
			s-1.2-0.9-1.3-1.2l0,0c-0.1,0.3-0.4,0.7-1.3,1.2s-1.5,0.8-2.3,1.1c-0.3,0.1-0.6,0-0.7-0.3c0,0,0,0,0,0c-0.2-0.3-0.1-0.6,0.2-0.8
			c0.7-0.3,1.4-0.7,2.2-1.1c0.7-0.3,1.2-1,1.2-1.8v-0.6c0-0.4,0.3-0.5,0.6-0.5S160.8,52.4,160.8,52.7L160.8,52.7z"/>
		<path class="st4" d="M0.8,20.9c2.3,0.1,4.3-1.7,4.4-4c0.1-2.3-1.7-4.3-4-4.4c-0.1,0-0.3,0-0.4,0V20.9z"/>
		<path class="st4" d="M0.8,62C3.1,62,5,60.2,5,57.8c0,0,0,0,0,0c0-2.3-1.9-4.2-4.2-4.2c0,0,0,0,0,0V62z"/>
		<path class="st3" d="M23.6,56.8c0.1,2.8-2,5.1-4.8,5.2c-0.1,0-0.3,0-0.4,0c-2.8,0.1-5.1-2-5.2-4.8c0-0.1,0-0.3,0-0.4
			c-0.1-2.8,2.1-5.1,4.8-5.2c0.1,0,0.2,0,0.4,0c2.8-0.1,5.1,2,5.2,4.8C23.6,56.6,23.6,56.7,23.6,56.8z M14,56.8
			c-0.1,2.4,1.8,4.4,4.1,4.4c0.1,0,0.2,0,0.3,0c2.4,0.1,4.3-1.8,4.4-4.1c0-0.1,0-0.2,0-0.3c0.1-2.4-1.8-4.3-4.1-4.4
			c-0.1,0-0.2,0-0.3,0c-2.4-0.1-4.3,1.8-4.4,4.2C14,56.7,14,56.7,14,56.8L14,56.8z"/>
	</g>
</g>
</svg>
