
<svg xmlns="http://www.w3.org/2000/svg" version="1.1" xmlns:xlink="http://www.w3.org/1999/xlink" preserveAspectRatio="none" x="0px" y="0px" width="1200px" height="1243px" viewBox="0 0 1200 1243">
<defs>
<path id="Layer0_0_1_STROKES" stroke="#F3426B" stroke-width="8" stroke-linejoin="round" stroke-linecap="round" fill="none" d="
M -133.6 48.75
L -133.6 144.5
Q -136.4283203125 182.7888671875 -108.15 200.975 -79.8751953125 219.15859375 -54.05 232.45 -28.23046875 245.73359375 -8.4 256.25 11.4439453125 266.7748046875 25.4 286.4 39.3490234375 306.0333984375 42.475 323.475 45.6025390625 340.907421875 49.6 357.775 53.600390625 374.6515625 62.2 389.775 70.79296875 404.8919921875 91.55 421.4 107.949609375 434.439453125 138.05 441.3 155.973828125 444.6759765625 155 466.95
L 155 566.45
Q 153.491796875 606.4138671875 125.8 621.75 118.3953125 625.8697265625 111.95 629.9 91.25 642.8 60.25 668.5 29.25 694.15 27.9 695.05 6.1 709.95 -15.25 713.95 -36.65 717.9 -64.8 718.55 -77.608984375 718.8560546875 -93.15 714.65 -133.8875 703.3515625 -133.1 747.45
L -133.1 817.9"/>
</defs>

<g transform="matrix( 1, 0, 0, 1, 600,216) ">
<use xlink:href="#Layer0_0_1_STROKES"/>
</g>
</svg>
