
<svg xmlns="http://www.w3.org/2000/svg" version="1.1" xmlns:xlink="http://www.w3.org/1999/xlink" preserveAspectRatio="none" x="0px" y="0px" width="1200px" height="1243px" viewBox="0 0 1200 1243">
<defs>
<path id="Layer0_0_1_STROKES" stroke="#0096DA" stroke-width="8" stroke-linejoin="round" stroke-linecap="round" fill="none" d="
M -421.15 52.5
L -421.15 178.5
Q -419.3703125 250.8279296875 -313.375 259.575 -207.3705078125 268.334375 -200.15 332.15 -192.9369140625 395.9619140625 -249.35 416.075 -305.756640625 436.1712890625 -322.95 445.225 -340.1568359375 454.290234375 -346.575 468.85 -352.9837890625 483.4111328125 -348.35 498.375 -343.7232421875 513.326953125 -329.35 523.6 -314.9759765625 533.8869140625 -308.25 536.425 -301.51640625 538.9498046875 -289.375 541.525 -277.246484375 544.1033203125 -245.875 544.95 -214.487109375 545.794140625 -175.2 538.5 -135.921875 531.212109375 -136.1 565.45
L -136.1 649.45
Q -138.6443359375 674.3830078125 -117.45 686.05 -91.565625 700.20390625 -59.825 700.75 -28.09609375 701.297265625 -4.5 691.975 19.1056640625 682.655078125 31.725 674.825 44.3423828125 666.9953125 70.95 644.1 97.560546875 621.199609375 114.325 613.3 123.2802734375 609.078125 134.65 607.15 156.072265625 601.78046875 156.25 623.45
L 156.25 691.95
Q 153.3798828125 734.7853515625 178.475 742.825 203.5646484375 750.86171875 224.85 751.1 246.137890625 751.3369140625 264.55 742.8 282.9556640625 734.2728515625 302.95 712.875 322.9494140625 691.478515625 337.975 676.2 353.000390625 660.921875 376.875 647.5 400.7431640625 634.07265625 423.2 631.525 445.523828125 631.0232421875 443.55 655.95
L 443.55 806.05"/>
</defs>

<g transform="matrix( 1, 0, 0, 1, 600,216) ">
<use xlink:href="#Layer0_0_1_STROKES"/>
</g>
</svg>
