
<svg xmlns="http://www.w3.org/2000/svg" version="1.1" xmlns:xlink="http://www.w3.org/1999/xlink" preserveAspectRatio="none" x="0px" y="0px" width="1280px" height="720px" viewBox="0 0 1280 720">
<defs>
<linearGradient id="Gradient_1" gradientUnits="userSpaceOnUse" x1="606.5250000000001" y1="496.625" x2="603.375" y2="513.375" spreadMethod="pad">
<stop  offset="0%" stop-color="#B4E0F8"/>

<stop  offset="0%" stop-color="#B4E0F8"/>

<stop  offset="18.823529411764707%" stop-color="#CDEAFB"/>

<stop  offset="38.8235294117647%" stop-color="#E0F2FC"/>

<stop  offset="52.15686274509804%" stop-color="#E6F5FD"/>

<stop  offset="60.78431372549019%" stop-color="#DEF1FC"/>

<stop  offset="74.90196078431373%" stop-color="#C6E8FA"/>

<stop  offset="92.94117647058823%" stop-color="#9BD7F6"/>

<stop  offset="100%" stop-color="#85D0F4"/>
</linearGradient>

<linearGradient id="Gradient_2" gradientUnits="userSpaceOnUse" x1="639.15" y1="354.59999999999997" x2="639.15" y2="369.8" spreadMethod="pad">
<stop  offset="0%" stop-color="#B4E0F8"/>

<stop  offset="0%" stop-color="#B4E0F8"/>

<stop  offset="18.823529411764707%" stop-color="#CDEAFB"/>

<stop  offset="38.8235294117647%" stop-color="#E0F2FC"/>

<stop  offset="52.15686274509804%" stop-color="#E6F5FD"/>

<stop  offset="60.78431372549019%" stop-color="#DEF1FC"/>

<stop  offset="74.90196078431373%" stop-color="#C6E8FA"/>

<stop  offset="92.94117647058823%" stop-color="#9BD7F6"/>

<stop  offset="100%" stop-color="#85D0F4"/>
</linearGradient>

<linearGradient id="Gradient_3" gradientUnits="userSpaceOnUse" x1="504.75" y1="434.45" x2="489.54999999999995" y2="434.45" spreadMethod="pad">
<stop  offset="0%" stop-color="#B4E0F8"/>

<stop  offset="0%" stop-color="#B4E0F8"/>

<stop  offset="18.823529411764707%" stop-color="#CDEAFB"/>

<stop  offset="38.8235294117647%" stop-color="#E0F2FC"/>

<stop  offset="52.15686274509804%" stop-color="#E6F5FD"/>

<stop  offset="60.78431372549019%" stop-color="#DEF1FC"/>

<stop  offset="74.90196078431373%" stop-color="#C6E8FA"/>

<stop  offset="92.94117647058823%" stop-color="#9BD7F6"/>

<stop  offset="100%" stop-color="#85D0F4"/>
</linearGradient>

<linearGradient id="Gradient_4" gradientUnits="userSpaceOnUse" x1="787.45" y1="434.45" x2="772.25" y2="434.45" spreadMethod="pad">
<stop  offset="0%" stop-color="#B4E0F8"/>

<stop  offset="0%" stop-color="#B4E0F8"/>

<stop  offset="18.823529411764707%" stop-color="#CDEAFB"/>

<stop  offset="38.8235294117647%" stop-color="#E0F2FC"/>

<stop  offset="52.15686274509804%" stop-color="#E6F5FD"/>

<stop  offset="60.78431372549019%" stop-color="#DEF1FC"/>

<stop  offset="74.90196078431373%" stop-color="#C6E8FA"/>

<stop  offset="92.94117647058823%" stop-color="#9BD7F6"/>

<stop  offset="100%" stop-color="#85D0F4"/>
</linearGradient>

<g id="Layer0_0_FILL">
<path fill="url(#Gradient_1)" stroke="none" d="
M 277.05 432.8
Q 280.75 433.6 279.35 442.1 277.66328125 450.6328125 273.95 450.05
L 487.4 490.3 487.4 472.45 277.05 432.8
M 770.1 543.65
L 770.1 525.75 505.05 475.75 505.05 493.65 770.1 543.65
M 279.35 442.1
Q 280.75 433.6 277.05 432.8
L 276.95 432.75
Q 273.5 431.75 271.4 440.7 270.05 449.35 273.85 450.05
L 273.95 450.05
Q 277.66328125 450.6328125 279.35 442.1
M 787.75 529.05
L 787.75 546.95 1003.05 587.6
Q 1007.2 588.3 1008.9 579.65 1010.3 571 1006.5 570.3
L 787.75 529.05 Z"/>

<path fill="url(#Gradient_2)" stroke="none" d="
M 487.4 371.95
L 487.4 354.3 274.6 354.3
Q 278.65 354.4 278.65 362.95 278.65 371.85 274.6 371.95
L 487.4 371.95
M 770.1 371.95
L 770.1 354.3 505.05 354.3 505.05 371.95 770.1 371.95
M 270.7 362.95
Q 270.7 371.95 274.5 371.95
L 274.6 371.95
Q 278.65 371.85 278.65 362.95 278.65 354.4 274.6 354.3
L 274.5 354.3
Q 270.7 354.3 270.7 362.95
M 999.7 371.95
Q 1003.5 371.85 1003.75 364.1
L 1003.75 362.15
Q 1003.55 354.45 999.7 354.3
L 787.75 354.3 787.75 371.95 999.7 371.95 Z"/>

<path fill="url(#Gradient_3)" stroke="none" d="
M 492.7 262.9
Q 492.5970703125 262.9080078125 492.5 262.9 492.3 262.9 492.15 262.85 491.55 262.75 491.05 262.65 487.45 261.8 487.4 259.35
L 487.4 354.3 487.4 371.95 487.4 472.45 487.4 490.3 487.4 606
Q 487.45 609.7 496.05 609.7 504.95 609.7 505.05 606
L 505.05 493.65 505.05 475.75 505.05 371.95 505.05 354.3 505.05 259.4
Q 504.9962890625 261.0833984375 503.1 262 502.170703125 262.4529296875 500.8 262.7
L 500.7 262.75
Q 500.6072265625 262.7603515625 500.5 262.75 500.19140625 262.8287109375 499.85 262.85 499.7765625 262.8861328125 499.7 262.9 499.5517578125 262.91484375 499.4 262.9 499.374609375 262.9376953125 499.35 262.95
L 499.15 262.95
Q 499.057421875 262.959765625 498.95 262.95 498.9033203125 262.9822265625 498.85 263
L 498.35 263
Q 497.4490234375 263.0876953125 496.4 263.1 496.35625 263.1 496.3 263.1
L 495.85 263.1
Q 495.75 263.1 495.7 263.1 494.9 263.1 494.2 263.05
L 494.15 263.05
Q 493.91875 263.05 493.7 263.05 493.3099609375 262.9849609375 492.9 262.95
L 492.7 262.9
M 500.5 262.75
Q 500.6072265625 262.7603515625 500.7 262.75
L 500.8 262.7
Q 500.6501953125 262.748828125 500.5 262.75
M 499.4 262.9
Q 499.276171875 262.9396484375 499.15 262.95
L 499.35 262.95
Q 499.374609375 262.9376953125 499.4 262.9
M 499.7 262.9
Q 499.65 262.9 499.55 262.9 499.474609375 262.9 499.4 262.9 499.5517578125 262.91484375 499.7 262.9
M 503.85 261.5
Q 503.75 261.6 503.65 261.65 503.4 261.8 503.1 262 504.9962890625 261.0833984375 505.05 259.4 504.9779296875 260.66640625 503.85 261.5
M 494.15 263.05
Q 493.86875 263.0447265625 493.6 263 493.2603515625 262.969140625 492.9 262.95 493.3099609375 262.9849609375 493.7 263.05 493.91875 263.05 494.15 263.05
M 505.05 259.4
L 505.05 259.25
Q 505 255.15 496.05 255.15 487.45 255.15 487.4 259.25
L 487.4 259.35
Q 487.45 261.8 491.05 262.65 491.55 262.75 492.15 262.85 492.3 262.9 492.5 262.9 492.5970703125 262.9080078125 492.7 262.9
L 492.9 262.95
Q 493.2603515625 262.969140625 493.6 263
L 496.6 263 499.15 262.95
Q 499.276171875 262.9396484375 499.4 262.9 499.474609375 262.9 499.55 262.9 499.65 262.9 499.7 262.9 499.7765625 262.8861328125 499.85 262.85 500.19140625 262.8287109375 500.5 262.75 500.6501953125 262.748828125 500.8 262.7 502.170703125 262.4529296875 503.1 262 503.4 261.8 503.65 261.65 503.75 261.6 503.85 261.5 504.9779296875 260.66640625 505.05 259.4 Z"/>

<path fill="url(#Gradient_4)" stroke="none" d="
M 787.75 259.4
Q 787.6328125 263.1 779.1 263.1 770.219921875 263.1 770.1 259.4
L 770.1 354.3 770.1 371.95 770.1 525.75 770.1 543.65 770.1 606
Q 770.15 607.3 771.25 608.15 773.35 609.7 779.1 609.7 784.65 609.7 786.6 608.15 787.7 607.3 787.75 606
L 787.75 546.95 787.75 529.05 787.75 371.95 787.75 354.3 787.75 259.4
M 787.75 259.25
Q 787.7 255.15 779.15 255.15
L 779.1 255.15
Q 773.1 255.15 771.1 257 770.1 257.9 770.1 259.25
L 770.1 259.4
Q 770.219921875 263.1 779.1 263.1 787.6328125 263.1 787.75 259.4
L 787.75 259.25 Z"/>
</g>

<path id="Layer1_0_1_STROKES" stroke="#3567D7" stroke-width="3" stroke-linejoin="round" stroke-linecap="butt" fill="none" d="
M 770.1 395.45
L 746.6 395.45 746.6 371.95
M 770.1 330.8
L 746.6 330.8 746.6 354.3
M 787.75 395.45
L 811.25 395.45 811.25 371.95
M 787.75 330.8
L 811.25 330.8 811.25 354.3
M 487.4 395.45
L 463.9 395.45 463.9 371.95
M 487.4 330.8
L 463.9 330.8 463.9 354.3
M 505.05 395.45
L 528.55 395.45 528.55 371.95
M 505.05 330.8
L 528.55 330.8 528.55 354.3"/>

<path id="Layer0_0_1_STROKES" stroke="#0088CB" stroke-width="2" stroke-linejoin="round" stroke-linecap="butt" fill="none" d="
M 787.75 354.3
L 999.7 354.3
Q 1003.55 354.45 1003.75 362.15
L 1003.75 364.1
Q 1003.5 371.85 999.7 371.95
L 787.75 371.95
M 787.75 529.075
L 1006.5 570.3
Q 1010.3 571 1008.9 579.65 1007.2 588.3 1003.05 587.6
L 787.75 546.975
M 770.1 543.65
L 505.05 493.65 505.05 606
Q 504.95 609.7 496.05 609.7 487.45 609.7 487.4 606
L 487.4 490.325 273.95 450.05 273.85 450.05
Q 270.05 449.35 271.4 440.7 273.5 431.75 276.95 432.75
L 277.05 432.8 487.4 472.45 487.4 371.95 274.6 371.95 274.5 371.95
Q 270.7 371.95 270.7 362.95 270.7 354.3 274.5 354.3
L 274.6 354.3 487.4 354.3 487.4 259.35 487.4 259.25
Q 487.45 255.15 496.05 255.15 505 255.15 505.05 259.25
L 505.05 259.4 505.05 354.3 770.1 354.3
M 770.1 525.75
L 505.05 475.775 505.05 493.65
M 770.1 371.95
L 505.05 371.95 505.05 475.775
M 487.4 259.35
Q 487.45 261.8 491.05 262.65 491.55 262.75 492.15 262.85 492.3 262.9 492.5 262.9 492.5970703125 262.9080078125 492.7 262.925
L 492.925 262.95
Q 493.2603515625 262.969140625 493.6 263
L 496.6 263 499.15 262.95
Q 499.276171875 262.9396484375 499.4 262.925 499.474609375 262.9 499.55 262.9 499.65 262.9 499.7 262.9 499.7765625 262.8861328125 499.85 262.875 500.19140625 262.8287109375 500.5 262.775 500.6501953125 262.748828125 500.8 262.725 502.170703125 262.4529296875 503.1 262 503.4 261.8 503.65 261.65 503.75 261.6 503.85 261.5 504.9779296875 260.66640625 505.05 259.4 504.9962890625 261.0833984375 503.1 262
M 493.6 263
Q 493.86875 263.0447265625 494.15 263.05
L 494.2 263.05
Q 494.9 263.1 495.7 263.1 495.75 263.1 495.85 263.1
L 496.325 263.1
Q 496.45625 263.0958984375 496.6 263
M 492.925 262.95
Q 493.3099609375 262.9849609375 493.7 263.05 493.91875 263.05 494.15 263.05
M 499.4 262.925
Q 499.5517578125 262.91484375 499.7 262.9
M 499.15 262.95
L 499.35 262.95
Q 499.374609375 262.9376953125 499.4 262.925
M 500.5 262.775
Q 500.6072265625 262.7603515625 500.7 262.75
L 500.8 262.725
M 496.325 263.1
Q 496.35625 263.1 496.4 263.1 497.4490234375 263.0876953125 498.375 263.025 498.670703125 262.99921875 498.975 262.975 499.057421875 262.959765625 499.15 262.95
M 498.375 263.025
L 498.85 263
Q 498.9033203125 262.9822265625 498.975 262.975
M 487.4 371.95
L 487.4 354.3
M 505.05 354.3
L 505.05 371.95
M 274.6 371.95
Q 278.65 371.85 278.65 362.95 278.65 354.4 274.6 354.3
M 273.95 450.05
Q 277.66328125 450.6328125 279.35 442.1 280.75 433.6 277.05 432.8
M 487.4 490.325
L 487.4 472.45"/>

<path id="Layer0_0_2_STROKES" stroke="#0088CB" stroke-width="2" stroke-linejoin="miter" stroke-linecap="butt" stroke-miterlimit="4" fill="none" d="
M 787.75 371.95
L 787.75 529.075
M 787.75 546.975
L 787.75 606
Q 787.7 607.3 786.6 608.15 784.65 609.7 779.1 609.7 773.35 609.7 771.25 608.15 770.15 607.3 770.1 606
L 770.1 543.65
M 770.1 354.3
L 770.1 259.4 770.1 259.25
Q 770.1 257.9 771.1 257 773.1 255.15 779.1 255.15
L 779.15 255.15
Q 787.7 255.15 787.75 259.25
L 787.75 259.4 787.75 354.3 787.75 371.95
M 770.1 259.4
Q 770.219921875 263.1 779.1 263.1 787.6328125 263.1 787.75 259.4
M 770.1 371.95
L 770.1 354.3
M 770.1 543.65
L 770.1 525.75
M 787.75 529.075
L 787.75 546.975
M 770.1 525.75
L 770.1 371.95"/>
</defs>

<g transform="matrix( 1, 0, 0, 1, 0,0) ">
<use xlink:href="#Layer1_0_1_STROKES"/>
</g>

<g transform="matrix( 1, 0, 0, 1, 0,0) ">
<use xlink:href="#Layer0_0_FILL"/>

<use xlink:href="#Layer0_0_1_STROKES"/>

<use xlink:href="#Layer0_0_2_STROKES"/>
</g>
</svg>
