
<svg xmlns="http://www.w3.org/2000/svg" version="1.1" xmlns:xlink="http://www.w3.org/1999/xlink" preserveAspectRatio="none" x="0px" y="0px" width="850px" height="120px" viewBox="0 0 850 120">
<defs>
<g id="Layer0_0_MEMBER_0_FILL">
<path fill="#1E1E1E" stroke="none" d="
M 305.6 160
L 304.25 160
Q 303.7 160 303.35 160.1 302.95 160.2 302.75 160.4 302.55 160.6 302.4 160.95 302.3 161.35 302.3 161.85
L 302.3 163.35
Q 302.3 163.85 302.4 164.2 302.55 164.55 302.75 164.75 302.95 164.95 303.35 165 303.7 165.15 304.25 165.15
L 305.7 165.15
Q 306.6 165.15 307.1 164.7 307.55 164.25 307.55 163.35
L 307.55 161.85
Q 307.55 161.35 307.45 161 307.3 160.7 307.05 160.45 306.8 160.2 306.45 160.1 306.1 160 305.6 160
M 257.9 159
Q 257.7 159.25 257.55 159.6 257.45 159.95 257.45 160.4
L 257.45 162
Q 257.45 162.5 257.55 162.8 257.7 163.15 257.9 163.3 258.1 163.4 258.45 163.5 258.8 163.55 259.35 163.55
L 260.05 163.55
Q 259.95 163.75 259.65 164.3 259.45 164.5 259.25 164.7 259 164.9 258.65 165.1 258.5 165.2 258.35 165.35 258.15 165.45 258.05 165.6 257.9 165.7 257.85 165.8 257.75 165.9 257.75 166.1 257.75 166.3 257.85 166.55 257.9 166.75 258.05 166.9 258.15 167.05 258.25 167.2 258.4 167.25 258.55 167.25 258.65 167.25 258.85 167.25 259.05 167.2 259.25 167.15 259.5 167 259.6 166.95 259.75 166.9 259.8 166.85 260.05 166.75 260.25 166.6 260.5 166.45 260.75 166.25 261 166.05 261.25 165.8 261.45 165.55 261.7 165.25 262.15 164.6 262.45 163.9 262.55 163.45 262.6 163.05 262.65 162.65 262.65 162.2
L 262.65 160.4
Q 262.65 159.95 262.5 159.6 262.4 159.3 262.1 159.05 261.8 158.8 261.45 158.7 261.1 158.6 260.7 158.6
L 259.35 158.6
Q 258.8 158.6 258.45 158.7 258.1 158.8 257.9 159
M 291.25 141.25
Q 291.45 141.5 291.6 141.85 291.8 142.15 291.95 142.45 292.1 142.8 292.2 143.1 292.25 143.45 292.25 143.75 292.25 144.05 292.2 144.35 292.15 144.65 292 145 291.85 145.3 291.65 145.6 291.5 145.9 291.35 146.2 291.15 146.55 291 146.8 290.8 147.1 290.5 147.3 290.25 147.55 290 147.75 289.75 147.95 289.6 148.05 289.15 148.4 288.7 148.75 288.2 149.1 287.75 149.45 287.3 149.8 286.85 150.15 286.4 150.5 285.95 150.8 285.3 151.35 284.8 151.8 284.25 152.25 283.75 152.65 283.3 153.1 282.95 153.55 282.6 154 282.35 154.45 281.95 154.85 281.7 155.35 281.5 155.8 281.3 156.25 281.15 156.8 281.05 157.4 280.9 157.95 280.85 158.6 280.85 158.65 280.85 158.75 280.8 158.85 280.8 158.95 280.75 159.05 280.75 159.2 280.7 159.3 280.75 159.35
L 280.75 159.5
Q 280.7 159.6 280.7 159.75 280.7 159.85 280.7 159.95 280.7 160.5 280.85 160.85 281 161.2 281.4 161.4 281.7 161.65 282.1 161.75 282.5 161.9 282.95 161.9
L 294.55 161.9
Q 296.65 161.9 296.65 160 296.65 159.5 296.5 159.15 296.35 158.8 296.1 158.6 295.8 158.45 295.35 158.35 294.9 158.25 294.35 158.25
L 285.35 158.25
Q 285.35 157.75 285.5 157.2 285.65 156.7 286 156.2 286.3 155.75 286.75 155.3 287.15 154.85 287.65 154.45 288.1 154.1 288.55 153.75 289.05 153.35 289.6 153.05 290.1 152.7 290.55 152.4 291 152.1 291.3 151.85 291.8 151.5 292.3 151.15 292.8 150.75 293.25 150.35 293.65 149.9 294.05 149.45 294.4 149 294.7 148.5 295.05 148.05 295.35 147.5 295.6 147 295.75 146.4 295.9 145.8 296 145.1 296.1 144.45 296.1 143.7 296.1 143 295.95 142.35 295.8 141.65 295.55 141 295.3 140.3 294.9 139.7 294.5 139.1 294.05 138.55 293.45 138.05 292.8 137.6 292.15 137.2 291.45 136.85 290.75 136.55 289.95 136.4 289.2 136.2 288.35 136.2
L 288.3 136.2
Q 287.45 136.2 286.7 136.35 285.95 136.55 285.3 136.85 284.55 137.2 283.95 137.65 283.3 138.05 282.8 138.6 281.85 139.65 281.3 140.9 281.05 141.55 280.9 142.2 280.75 142.8 280.75 143.45 280.75 143.8 280.9 144.1 281.05 144.4 281.3 144.6 281.6 144.8 281.9 144.95 282.15 145.05 282.5 145.05 282.95 145.05 283.35 144.85 283.8 144.7 284.15 144.4 284.45 144.05 284.65 143.65 284.8 143.25 284.8 142.75 284.8 142.6 284.9 142.4 284.95 142.15 285.15 141.9 285.25 141.65 285.4 141.4 285.6 141.2 285.8 141 286.1 140.8 286.4 140.65 286.7 140.45 287.05 140.3 287.4 140.2 287.7 140.15 288 140.05 288.35 140.05 288.85 140.05 289.25 140.15 289.7 140.25 290.05 140.4 290.4 140.55 290.7 140.8 291 141 291.25 141.25
M 188.45 103.85
Q 188.9 103.4 188.9 102.5
L 188.9 101
Q 188.9 100.5 188.8 100.15 188.65 99.85 188.4 99.6 188.15 99.35 187.8 99.25 187.45 99.15 186.95 99.15
L 185.6 99.15
Q 185.05 99.15 184.7 99.25 184.3 99.35 184.1 99.55 183.9 99.75 183.75 100.1 183.65 100.5 183.65 101
L 183.65 102.5
Q 183.65 103 183.75 103.35 183.9 103.7 184.1 103.9 184.3 104.1 184.7 104.15 185.05 104.3 185.6 104.3
L 187.05 104.3
Q 187.95 104.3 188.45 103.85
M 236.35 141.05
Q 236.7 141.2 237.2 141.2
L 247.5 141.2
Q 247.05 141.85 246.55 142.65 246.05 143.45 245.55 144.4 245 145.3 244.45 146.35 243.85 147.35 243.25 148.45 242.7 149.55 242.25 150.65 241.75 151.75 241.3 152.85 240.35 155.2 240 157.2 239.9 157.7 239.8 158.2 239.65 158.65 239.55 159.1 239.4 159.5 239.3 159.9 239.25 160.3 239.2 160.6 239.2 161.05 239.4 161.35 239.6 161.65 239.9 161.85 240.25 162.05 240.6 162.15 241.05 162.2 241.55 162.2 242.05 162.2 242.4 162.1 242.8 162 243.05 161.8 243.25 161.6 243.4 161.35 243.55 161.05 243.7 160.6 243.85 160.25 243.95 159.8 244.05 159.35 244.15 158.75 244.2 158.2 244.3 157.6 244.4 157 244.55 156.3 244.7 155.5 244.95 154.7 245.15 153.9 245.5 153.05 245.75 152.15 246.1 151.35 246.45 150.5 246.85 149.75 247.15 148.95 247.5 148.2 247.8 147.45 248.2 146.75 248.5 146.1 248.75 145.55 249.05 145 249.3 144.55 249.65 144 250 143.6 250.4 143.15 250.7 142.75 251 142.45 251.25 142.1 251.5 141.8 251.75 141.45 251.9 141.25 252.05 141 252.25 140.7 252.4 140.4 252.7 139.9 252.7 139.15
L 252.7 138.75
Q 252.7 138.45 252.65 138.1 252.6 137.85 252.45 137.55 252.3 137.3 252.05 137.15 251.85 137 251.6 137 249.75 137 247.9 137 246.1 137 244.35 137 242.5 137 240.7 137 238.95 137.05 237.2 137.05 236.65 137.1 236.35 137.25 236 137.4 235.85 137.75 235.65 138.05 235.6 138.4 235.5 138.75 235.5 139.15 235.5 139.6 235.6 139.95 235.65 140.3 235.85 140.6 236 140.9 236.35 141.05
M 221.95 140.65
Q 222.25 140.45 222.6 140.3 222.95 140.2 223.25 140.15 223.55 140.05 223.9 140.05 224.4 140.05 224.8 140.15 225.25 140.25 225.6 140.4 225.95 140.55 226.25 140.8 226.55 141 226.8 141.25 227 141.5 227.15 141.85 227.35 142.15 227.5 142.45 227.65 142.8 227.75 143.1 227.8 143.45 227.8 143.75 227.8 144.05 227.75 144.35 227.7 144.65 227.55 145 227.4 145.3 227.2 145.6 227.05 145.9 226.9 146.2 226.7 146.55 226.55 146.8 226.35 147.1 226.05 147.3 225.8 147.55 225.55 147.75 225.3 147.95 225.15 148.05 224.7 148.4 224.25 148.75 223.75 149.1 223.3 149.45 222.85 149.8 222.4 150.15 221.95 150.5 221.5 150.8 220.85 151.35 220.35 151.8 219.8 152.25 219.3 152.65 218.85 153.1 218.5 153.55 218.15 154 217.9 154.45 217.5 154.85 217.25 155.35 217.05 155.8 216.85 156.25 216.7 156.8 216.6 157.4 216.45 157.95 216.4 158.6 216.4 158.65 216.4 158.75 216.35 158.85 216.35 158.95 216.3 159.05 216.3 159.2 216.25 159.3 216.3 159.35
L 216.3 159.5
Q 216.25 159.6 216.25 159.75 216.25 159.85 216.25 159.95 216.25 160.5 216.4 160.85 216.55 161.2 216.95 161.4 217.25 161.65 217.65 161.75 218.05 161.9 218.5 161.9
L 230.1 161.9
Q 232.2 161.9 232.2 160 232.2 159.5 232.05 159.15 231.9 158.8 231.65 158.6 231.35 158.45 230.9 158.35 230.45 158.25 229.9 158.25
L 220.9 158.25
Q 220.9 157.75 221.05 157.2 221.2 156.7 221.55 156.2 221.85 155.75 222.3 155.3 222.7 154.85 223.2 154.45 223.65 154.1 224.1 153.75 224.6 153.35 225.15 153.05 225.65 152.7 226.1 152.4 226.55 152.1 226.85 151.85 227.35 151.5 227.85 151.15 228.35 150.75 228.8 150.35 229.2 149.9 229.6 149.45 229.95 149 230.25 148.5 230.6 148.05 230.9 147.5 231.15 147 231.3 146.4 231.45 145.8 231.55 145.1 231.65 144.45 231.65 143.7 231.65 143 231.5 142.35 231.35 141.65 231.1 141 230.85 140.3 230.45 139.7 230.05 139.1 229.6 138.55 229 138.05 228.35 137.6 227.7 137.2 227 136.85 226.3 136.55 225.5 136.4 224.75 136.2 223.9 136.2
L 223.85 136.2
Q 223 136.2 222.25 136.35 221.5 136.55 220.85 136.85 220.1 137.2 219.5 137.65 218.85 138.05 218.35 138.6 217.4 139.65 216.85 140.9 216.6 141.55 216.45 142.2 216.3 142.8 216.3 143.45 216.3 143.8 216.45 144.1 216.6 144.4 216.85 144.6 217.15 144.8 217.45 144.95 217.7 145.05 218.05 145.05 218.5 145.05 218.9 144.85 219.35 144.7 219.7 144.4 220 144.05 220.2 143.65 220.35 143.25 220.35 142.75 220.35 142.6 220.45 142.4 220.5 142.15 220.7 141.9 220.8 141.65 220.95 141.4 221.15 141.2 221.35 141 221.65 140.8 221.95 140.65
M 215.45 97.75
Q 215.7 97.9 216.1 97.95
L 219.35 97.95
Q 220.45 97.95 221.45 97.95 222.45 97.9 223.35 97.85 224.25 97.85 225.2 97.85 226.15 97.8 227.05 97.75 228.8 97.65 230.55 97.4 231.35 97.35 232.25 97.25 233.1 97.1 234.05 96.95 234.55 96.9 234.9 96.7 235.3 96.5 235.55 96.15 235.75 95.85 235.85 95.55 236 95.2 236 94.8
L 236.05 94.85
Q 236 94.5 235.8 94.2 235.65 93.85 235.4 93.6 235.1 93.3 234.75 93.25 234.4 93.2 233.95 93.3 233 93.4 232.1 93.5 231.25 93.6 230.4 93.7 229.55 93.8 228.7 93.85 227.85 93.9 227 93.95 226.05 94.05 225.15 94.1 224.25 94.1 223.4 94.1 222.55 94.2 221.6 94.2 220.7 94.2 219.75 94.2
L 216.1 94.2
Q 215.7 94.25 215.45 94.4 215.2 94.55 215.05 94.8 214.75 95.3 214.75 96.15 214.75 96.8 215.05 97.3 215.2 97.6 215.45 97.75
M 221.85 76.1
Q 220.45 76.55 219.4 77.6 218.35 78.55 217.8 79.95 217.25 81.35 217.25 83.15 217.25 84.9 217.8 86.25 218.35 87.65 219.4 88.6 220.45 89.6 221.85 90.1 223.25 90.6 225.05 90.6 226.95 90.6 228.4 90.05 229.1 89.85 229.7 89.45 230.3 89.1 230.75 88.6 231.35 88.15 231.75 87.55 232.15 86.95 232.45 86.25 232.7 85.6 232.85 84.8 233 84 233 83.15 233 82.25 232.85 81.45 232.7 80.65 232.45 79.95 232.15 79.25 231.75 78.7 231.35 78.1 230.75 77.6 230.3 77.1 229.7 76.75 229.1 76.35 228.4 76.1 226.95 75.6 225.05 75.6 223.25 75.6 221.85 76.1
M 222.2 86.05
Q 221.7 85.55 221.45 84.85 221.2 84.1 221.2 83.15 221.2 82.15 221.45 81.4 221.7 80.65 222.2 80.1 222.7 79.55 223.4 79.3 224.15 79 225.1 79 226 79 226.75 79.3 227.5 79.55 228 80.1 228.5 80.65 228.75 81.4 229.05 82.15 229.05 83.15 229.05 84.1 228.75 84.85 228.5 85.55 228 86.05 227.5 86.6 226.75 86.9 226 87.15 225.1 87.15 224.15 87.15 223.4 86.9 222.7 86.6 222.2 86.05
M 240.4 73.15
Q 240.25 73.15 240.05 73.15 239.85 73.15 239.6 73.15 239.25 73.15 238.95 73.2 238.6 73.25 238.35 73.4 238.05 73.5 237.9 73.8 237.8 74.15 237.8 74.6
L 237.8 104.3
Q 237.8 104.75 237.9 105.1 238.05 105.45 238.4 105.65 238.65 105.8 238.95 105.9 239.25 106 239.65 106 240.1 106 240.45 105.9 240.8 105.8 241.15 105.65 241.45 105.45 241.55 105.1 241.75 104.75 241.75 104.3
L 241.75 74.6
Q 241.75 74.35 241.7 74.2 241.65 74 241.5 73.85 241.4 73.7 241.25 73.6 241.15 73.5 241 73.4 240.85 73.35 240.7 73.25 240.55 73.2 240.4 73.15
M 196.25 76.2
Q 195.7 76.25 195.4 76.4 195.05 76.55 194.9 76.9 194.7 77.2 194.65 77.55 194.55 77.9 194.55 78.3 194.55 78.75 194.65 79.1 194.7 79.45 194.9 79.75 195.05 80.05 195.4 80.2 195.75 80.35 196.25 80.35
L 206.55 80.35
Q 206.1 81 205.6 81.8 205.1 82.6 204.6 83.55 204.05 84.45 203.5 85.5 202.9 86.5 202.3 87.6 201.75 88.7 201.3 89.8 200.8 90.9 200.35 92 199.4 94.35 199.05 96.35 198.95 96.85 198.85 97.35 198.7 97.8 198.6 98.25 198.45 98.65 198.35 99.05 198.3 99.45 198.25 99.75 198.25 100.2 198.45 100.5 198.65 100.8 198.95 101 199.3 101.2 199.65 101.3 200.1 101.35 200.6 101.35 201.1 101.35 201.45 101.25 201.85 101.15 202.1 100.95 202.3 100.75 202.45 100.5 202.6 100.2 202.75 99.75 202.9 99.4 203 98.95 203.1 98.5 203.2 97.9 203.25 97.35 203.35 96.75 203.45 96.15 203.6 95.45 203.75 94.65 204 93.85 204.2 93.05 204.55 92.2 204.8 91.3 205.15 90.5 205.5 89.65 205.9 88.9 206.2 88.1 206.55 87.35 206.85 86.6 207.25 85.9 207.55 85.25 207.8 84.7 208.1 84.15 208.35 83.7 208.7 83.15 209.05 82.75 209.45 82.3 209.75 81.9 210.05 81.6 210.3 81.25 210.55 80.95 210.8 80.6 210.95 80.4 211.1 80.15 211.3 79.85 211.45 79.55 211.75 79.05 211.75 78.3
L 211.75 77.9
Q 211.75 77.6 211.7 77.25 211.65 77 211.5 76.7 211.35 76.45 211.1 76.3 210.9 76.15 210.65 76.15 208.8 76.15 206.95 76.15 205.15 76.15 203.4 76.15 201.55 76.15 199.75 76.15 198 76.2 196.25 76.2
M 176.9 80.15
Q 176.65 79.45 176.25 78.85 175.85 78.25 175.4 77.7 174.8 77.2 174.15 76.75 173.5 76.35 172.8 76 172.1 75.7 171.3 75.55 170.55 75.35 169.7 75.35
L 169.65 75.35
Q 168.8 75.35 168.05 75.5 167.3 75.7 166.65 76 165.9 76.35 165.3 76.8 164.65 77.2 164.15 77.75 163.2 78.8 162.65 80.05 162.4 80.7 162.25 81.35 162.1 81.95 162.1 82.6 162.1 82.95 162.25 83.25 162.4 83.55 162.65 83.75 162.95 83.95 163.25 84.1 163.5 84.2 163.85 84.2 164.3 84.2 164.7 84 165.15 83.85 165.5 83.55 165.8 83.2 166 82.8 166.15 82.4 166.15 81.9 166.15 81.75 166.25 81.55 166.3 81.3 166.5 81.05 166.6 80.8 166.75 80.55 166.95 80.35 167.15 80.15 167.45 79.95 167.75 79.8 168.05 79.6 168.4 79.45 168.75 79.35 169.05 79.3 169.35 79.2 169.7 79.2 170.2 79.2 170.6 79.3 171.05 79.4 171.4 79.55 171.75 79.7 172.05 79.95 172.35 80.15 172.6 80.4 172.8 80.65 172.95 81 173.15 81.3 173.3 81.6 173.45 81.95 173.55 82.25 173.6 82.6 173.6 82.9 173.6 83.2 173.55 83.5 173.5 83.8 173.35 84.15 173.2 84.45 173 84.75 172.85 85.05 172.7 85.35 172.5 85.7 172.35 85.95 172.15 86.25 171.85 86.45 171.6 86.7 171.35 86.9 171.1 87.1 170.95 87.2 170.5 87.55 170.05 87.9 169.55 88.25 169.1 88.6 168.65 88.95 168.2 89.3 167.75 89.65 167.3 89.95 166.65 90.5 166.15 90.95 165.6 91.4 165.1 91.8 164.65 92.25 164.3 92.7 163.95 93.15 163.7 93.6 163.3 94 163.05 94.5 162.85 94.95 162.65 95.4 162.5 95.95 162.4 96.55 162.25 97.1 162.2 97.75 162.2 97.8 162.2 97.9 162.15 98 162.15 98.1 162.1 98.2 162.1 98.35 162.05 98.45 162.1 98.5
L 162.1 98.65
Q 162.05 98.75 162.05 98.9 162.05 99 162.05 99.1 162.05 99.65 162.2 100 162.35 100.35 162.75 100.55 163.05 100.8 163.45 100.9 163.85 101.05 164.3 101.05
L 175.9 101.05
Q 178 101.05 178 99.15 178 98.65 177.85 98.3 177.7 97.95 177.45 97.75 177.15 97.6 176.7 97.5 176.25 97.4 175.7 97.4
L 166.7 97.4
Q 166.7 96.9 166.85 96.35 167 95.85 167.35 95.35 167.65 94.9 168.1 94.45 168.5 94 169 93.6 169.45 93.25 169.9 92.9 170.4 92.5 170.95 92.2 171.45 91.85 171.9 91.55 172.35 91.25 172.65 91 173.15 90.65 173.65 90.3 174.15 89.9 174.6 89.5 175 89.05 175.4 88.6 175.75 88.15 176.05 87.65 176.4 87.2 176.7 86.65 176.95 86.15 177.1 85.55 177.25 84.95 177.35 84.25 177.45 83.6 177.45 82.85 177.45 82.15 177.3 81.5 177.15 80.8 176.9 80.15
M 302.1 75.6
Q 301.7 75.6 301.35 75.7 301 75.8 300.7 75.95 300.05 76.35 300.05 77.2
L 300.05 92.4
Q 300.05 94.35 301.05 95.3 302.05 96.25 304.05 96.25
L 309.7 96.25
Q 311.3 96.25 312.05 95.2 312.35 94.7 312.55 94 312.75 93.3 312.75 92.4
L 312.75 77.2
Q 312.75 76.8 312.55 76.45 312.35 76.15 312.05 75.95 311.65 75.8 311.35 75.7 311 75.6 310.75 75.6 310.3 75.6 309.95 75.7 309.6 75.8 309.35 75.95 308.7 76.35 308.7 77.2
L 308.7 82.8 304 82.8 304 77.2
Q 304 76.8 303.8 76.45 303.65 76.15 303.3 75.95 302.95 75.8 302.7 75.7 302.4 75.6 302.1 75.6
M 304 86.55
L 308.65 86.55 308.65 90.7
Q 308.65 90.95 308.65 91.15 308.65 91.35 308.65 91.6 308.65 91.8 308.65 92 308.6 92.25 308.6 92.45 308.45 92.5 308.25 92.5 308.05 92.5 307.8 92.5 307.55 92.5 307.3 92.5 307.1 92.5 306.9 92.5
L 304.2 92.5
Q 304.1 92.2 304.05 91.75 304 91.25 304 90.7
L 304 86.55
M 283.2 75.5
Q 282.25 75.75 281.45 76.2 280.65 76.7 279.95 77.35 279.25 78.05 278.7 78.85 278.15 79.7 277.8 80.75 277.4 81.8 277.1 83 276.8 84.2 276.7 85.55 276.55 86.9 276.55 88.35 276.55 89.75 276.65 91.1 276.8 92.4 277.05 93.6 277.3 94.75 277.65 95.8 278.1 96.9 278.65 97.75 279.25 98.65 279.95 99.3 280.65 100 281.4 100.45 282.2 100.95 283.15 101.2 284.1 101.45 285.25 101.45 286.25 101.45 287.15 101.2 288.05 100.95 288.9 100.45 289.7 100 290.4 99.3 291.1 98.65 291.65 97.75 292.25 96.9 292.7 95.8 293.15 94.75 293.45 93.6 293.7 92.4 293.85 91.1 294 89.75 294 88.35 294 86.95 293.85 85.65 293.7 84.3 293.45 83.1 293.1 81.9 292.65 80.85 292.2 79.85 291.6 78.95 291 78.1 290.35 77.45 289.65 76.75 288.85 76.25 288.05 75.75 287.15 75.5 286.25 75.2 285.25 75.2 284.15 75.25 283.2 75.5
M 281.35 83.2
Q 281.55 82.45 281.8 81.85 282.1 81.25 282.5 80.75 282.9 80.3 283.3 79.9 283.7 79.6 284.2 79.45 284.7 79.25 285.25 79.25 285.7 79.25 286.2 79.45 286.65 79.6 287.15 79.95 287.55 80.3 287.95 80.8 288.3 81.3 288.6 81.9 288.8 82.55 289 83.25 289.2 83.95 289.4 84.8 289.55 85.65 289.65 86.5 289.75 87.4 289.75 88.35 289.75 89.3 289.65 90.2 289.6 91.1 289.45 91.9 289.05 93.6 288.6 94.8 288.35 95.45 287.95 95.95 287.6 96.45 287.15 96.8 286.7 97.2 286.2 97.35 285.75 97.55 285.25 97.55 284.65 97.55 284.15 97.35 283.65 97.2 283.25 96.8 282.4 96.05 281.8 94.8 281.5 94.15 281.35 93.4 281.15 92.65 281.05 91.8 280.9 91 280.8 90.15 280.75 89.25 280.75 88.35 280.75 87.4 280.8 86.5 280.9 85.6 281.05 84.75 281.15 83.95 281.35 83.2
M 263.05 79.8
Q 262.65 79.85 262.3 79.9 261.9 79.9 261.55 79.9 261.1 79.95 260.75 80.1 260.45 80.25 260.25 80.5 259.95 80.8 259.85 81.1 259.75 81.45 259.75 81.8 259.75 82.2 259.85 82.5 259.95 82.8 260.15 83.1 260.35 83.45 260.65 83.6 260.95 83.75 261.4 83.75
L 264.55 83.75
Q 264.55 85.7 264.55 87.6 264.55 89.55 264.55 91.45 264.55 95.3 264.55 99.2 264.55 99.6 264.75 99.85 264.9 100.15 265.25 100.4 265.55 100.65 265.95 100.8 266.3 100.95 266.75 100.95 266.85 100.95 267.05 100.9 267.2 100.85 267.35 100.75 267.45 100.7 267.65 100.65 267.8 100.55 267.95 100.45 268.15 100.35 268.3 100.15 268.45 100 268.55 99.85 268.65 99.7 268.7 99.55 268.75 99.4 268.75 99.2
L 268.75 97.75
Q 268.75 95.1 268.75 92.55 268.75 89.95 268.75 87.45 268.7 84.95 268.7 82.4 268.7 79.85 268.7 77.25 268.7 76.6 268.05 76.1 267.75 75.85 267.45 75.75 267.15 75.6 266.9 75.6 266.45 75.6 266.15 75.7 265.8 75.8 265.7 76.05 265.5 76.25 265.4 76.5 265.3 76.8 265.2 77.05 265.05 77.35 264.95 77.65 264.85 77.95 264.75 78.3 264.65 78.6 264.55 78.85 264.4 79.1 264.25 79.25 264 79.45 263.7 79.6 263.35 79.75 263.05 79.8
M 385 169.35
Q 384.95 166.85 384.95 164.3 384.95 161.75 384.95 159.15 384.95 158.5 384.3 158 384 157.75 383.7 157.65 383.4 157.5 383.15 157.5 382.7 157.5 382.4 157.6 382.05 157.7 381.95 157.95 381.75 158.15 381.65 158.4 381.55 158.7 381.45 158.95 381.3 159.25 381.2 159.55 381.1 159.85 381 160.2 380.9 160.5 380.8 160.75 380.65 161 380.5 161.15 380.25 161.35 379.95 161.5 379.6 161.65 379.3 161.7 378.9 161.75 378.55 161.8 378.15 161.8 377.8 161.8 377.35 161.85 377 162 376.7 162.15 376.5 162.4 376.2 162.7 376.1 163 376 163.35 376 163.7 376 164.1 376.1 164.4 376.2 164.7 376.4 165 376.6 165.35 376.9 165.5 377.2 165.65 377.65 165.65
L 380.8 165.65
Q 380.8 167.6 380.8 169.5 380.8 171.45 380.8 173.35 380.8 177.2 380.8 181.1 380.8 181.5 381 181.75 381.15 182.05 381.5 182.3 381.8 182.55 382.2 182.7 382.55 182.85 383 182.85 383.1 182.85 383.3 182.8 383.45 182.75 383.6 182.65 383.7 182.6 383.9 182.55 384.05 182.45 384.2 182.35 384.4 182.25 384.55 182.05 384.7 181.9 384.8 181.75 384.9 181.6 384.95 181.45 385 181.3 385 181.1
L 385 179.65
Q 385 177 385 174.45 385 171.85 385 169.35
M 399.45 157.4
Q 398.5 157.65 397.7 158.1 396.9 158.6 396.2 159.25 395.5 159.95 394.95 160.75 394.4 161.6 394.05 162.65 393.65 163.7 393.35 164.9 393.05 166.1 392.95 167.45 392.8 168.8 392.8 170.25 392.8 171.65 392.9 173 393.05 174.3 393.3 175.5 393.55 176.65 393.9 177.7 394.35 178.8 394.9 179.65 395.5 180.55 396.2 181.2 396.9 181.9 397.65 182.35 398.45 182.85 399.4 183.1 400.35 183.35 401.5 183.35 402.5 183.35 403.4 183.1 404.3 182.85 405.15 182.35 405.95 181.9 406.65 181.2 407.35 180.55 407.9 179.65 408.5 178.8 408.95 177.7 409.4 176.65 409.7 175.5 409.95 174.3 410.1 173 410.25 171.65 410.25 170.25 410.25 168.85 410.1 167.55 409.95 166.2 409.7 165 409.35 163.8 408.9 162.75 408.45 161.75 407.85 160.85 407.25 160 406.6 159.35 405.9 158.65 405.1 158.15 404.3 157.65 403.4 157.4 402.5 157.1 401.5 157.1 400.4 157.15 399.45 157.4
M 404.2 162.7
Q 404.55 163.2 404.85 163.8 405.05 164.45 405.25 165.15 405.45 165.85 405.65 166.7 405.8 167.55 405.9 168.4 406 169.3 406 170.25 406 171.2 405.9 172.1 405.85 173 405.7 173.8 405.3 175.5 404.85 176.7 404.6 177.35 404.2 177.85 403.85 178.35 403.4 178.7 402.95 179.1 402.45 179.25 402 179.45 401.5 179.45 400.9 179.45 400.4 179.25 399.9 179.1 399.5 178.7 398.65 177.95 398.05 176.7 397.75 176.05 397.6 175.3 397.4 174.55 397.3 173.7 397.15 172.9 397.05 172.05 397 171.15 397 170.25 397 169.3 397.05 168.4 397.15 167.5 397.3 166.65 397.4 165.85 397.6 165.1 397.8 164.35 398.05 163.75 398.35 163.15 398.75 162.65 399.15 162.2 399.55 161.8 399.95 161.5 400.45 161.35 400.95 161.15 401.5 161.15 401.95 161.15 402.45 161.35 402.9 161.5 403.4 161.85 403.8 162.2 404.2 162.7
M 354.7 155.7
Q 354.65 155.35 354.45 155.05 354.3 154.7 354.05 154.45 353.75 154.15 353.4 154.1 353.05 154.05 352.6 154.15 351.65 154.25 350.75 154.35 349.9 154.45 349.05 154.55 348.2 154.65 347.35 154.7 346.5 154.75 345.65 154.8 344.7 154.9 343.8 154.95 342.9 154.95 342.05 154.95 341.2 155.05 340.25 155.05 339.35 155.05 338.4 155.05
L 334.75 155.05
Q 334.35 155.1 334.1 155.25 333.85 155.4 333.7 155.65 333.4 156.15 333.4 157 333.4 157.65 333.7 158.15 333.85 158.45 334.1 158.6 334.35 158.75 334.75 158.8
L 338 158.8
Q 339.1 158.8 340.1 158.8 341.1 158.75 342 158.7 342.9 158.7 343.85 158.7 344.8 158.65 345.7 158.6 347.45 158.5 349.2 158.25 350 158.2 350.9 158.1 351.75 157.95 352.7 157.8 353.2 157.75 353.55 157.55 353.95 157.35 354.2 157 354.4 156.7 354.5 156.4 354.65 156.05 354.65 155.65
L 354.7 155.7
M 359.35 134.1
Q 359.2 134.05 359.05 134 358.9 134 358.7 134 358.5 134 358.25 134 357.9 134 357.6 134.05 357.25 134.1 357 134.25 356.7 134.35 356.55 134.65 356.45 135 356.45 135.45
L 356.45 165.15
Q 356.45 165.6 356.55 165.95 356.7 166.3 357.05 166.5 357.3 166.65 357.6 166.75 357.9 166.85 358.3 166.85 358.75 166.85 359.1 166.75 359.45 166.65 359.8 166.5 360.1 166.3 360.2 165.95 360.4 165.6 360.4 165.15
L 360.4 135.45
Q 360.4 135.2 360.35 135.05 360.3 134.85 360.15 134.7 360.05 134.55 359.9 134.45 359.8 134.35 359.65 134.25 359.5 134.2 359.35 134.1
M 343.7 136.45
Q 341.9 136.45 340.5 136.95 339.1 137.4 338.05 138.45 337 139.4 336.45 140.8 335.9 142.2 335.9 144 335.9 145.75 336.45 147.1 337 148.5 338.05 149.45 339.1 150.45 340.5 150.95 341.9 151.45 343.7 151.45 345.6 151.45 347.05 150.9 347.75 150.7 348.35 150.3 348.95 149.95 349.4 149.45 350 149 350.4 148.4 350.8 147.8 351.1 147.1 351.35 146.45 351.5 145.65 351.65 144.85 351.65 144 351.65 143.1 351.5 142.3 351.35 141.5 351.1 140.8 350.8 140.1 350.4 139.55 350 138.95 349.4 138.45 348.95 137.95 348.35 137.6 347.75 137.2 347.05 136.95 345.6 136.45 343.7 136.45
M 342.05 140.15
Q 342.8 139.85 343.75 139.85 344.65 139.85 345.4 140.15 346.15 140.4 346.65 140.95 347.15 141.5 347.4 142.25 347.7 143 347.7 144 347.7 144.95 347.4 145.7 347.15 146.4 346.65 146.9 346.15 147.45 345.4 147.75 344.65 148 343.75 148 342.8 148 342.05 147.75 341.35 147.45 340.85 146.9 340.35 146.4 340.1 145.7 339.85 144.95 339.85 144 339.85 143 340.1 142.25 340.35 141.5 340.85 140.95 341.35 140.4 342.05 140.15
M 329.75 137.15
Q 329.55 137 329.3 137 327.45 137 325.6 137 323.8 137 322.05 137 320.2 137 318.4 137 316.65 137.05 314.9 137.05 314.35 137.1 314.05 137.25 313.7 137.4 313.55 137.75 313.35 138.05 313.3 138.4 313.2 138.75 313.2 139.15 313.2 139.6 313.3 139.95 313.35 140.3 313.55 140.6 313.7 140.9 314.05 141.05 314.4 141.2 314.9 141.2
L 325.2 141.2
Q 324.75 141.85 324.25 142.65 323.75 143.45 323.25 144.4 322.7 145.3 322.15 146.35 321.55 147.35 320.95 148.45 320.4 149.55 319.95 150.65 319.45 151.75 319 152.85 318.05 155.2 317.7 157.2 317.6 157.7 317.5 158.2 317.35 158.65 317.25 159.1 317.1 159.5 317 159.9 316.95 160.3 316.9 160.6 316.9 161.05 317.1 161.35 317.3 161.65 317.6 161.85 317.95 162.05 318.3 162.15 318.75 162.2 319.25 162.2 319.75 162.2 320.1 162.1 320.5 162 320.75 161.8 320.95 161.6 321.1 161.35 321.25 161.05 321.4 160.6 321.55 160.25 321.65 159.8 321.75 159.35 321.85 158.75 321.9 158.2 322 157.6 322.1 157 322.25 156.3 322.4 155.5 322.65 154.7 322.85 153.9 323.2 153.05 323.45 152.15 323.8 151.35 324.15 150.5 324.55 149.75 324.85 148.95 325.2 148.2 325.5 147.45 325.9 146.75 326.2 146.1 326.45 145.55 326.75 145 327 144.55 327.35 144 327.7 143.6 328.1 143.15 328.4 142.75 328.7 142.45 328.95 142.1 329.2 141.8 329.45 141.45 329.6 141.25 329.75 141 329.95 140.7 330.1 140.4 330.4 139.9 330.4 139.15
L 330.4 138.75
Q 330.4 138.45 330.35 138.1 330.3 137.85 330.15 137.55 330 137.3 329.75 137.15
M 394.5 114.5
Q 394.05 114.5 393.75 114.6 393.4 114.7 393.3 114.95 393.1 115.15 393 115.4 392.9 115.7 392.8 115.95 392.65 116.25 392.55 116.55 392.45 116.85 392.35 117.2 392.25 117.5 392.15 117.75 392 118 391.85 118.15 391.6 118.35 391.3 118.5 390.95 118.65 390.65 118.7 390.25 118.75 389.9 118.8 389.5 118.8 389.15 118.8 388.7 118.85 388.35 119 388.05 119.15 387.85 119.4 387.55 119.7 387.45 120 387.35 120.35 387.35 120.7 387.35 121.1 387.45 121.4 387.55 121.7 387.75 122 387.95 122.35 388.25 122.5 388.55 122.65 389 122.65
L 392.15 122.65
Q 392.15 124.6 392.15 126.5 392.15 128.45 392.15 130.35 392.15 134.2 392.15 138.1 392.15 138.5 392.35 138.75 392.5 139.05 392.85 139.3 393.15 139.55 393.55 139.7 393.9 139.85 394.35 139.85 394.45 139.85 394.65 139.8 394.8 139.75 394.95 139.65 395.05 139.6 395.25 139.55 395.4 139.45 395.55 139.35 395.75 139.25 395.9 139.05 396.05 138.9 396.15 138.75 396.25 138.6 396.3 138.45 396.35 138.3 396.35 138.1
L 396.35 136.65
Q 396.35 134 396.35 131.45 396.35 128.85 396.35 126.35 396.3 123.85 396.3 121.3 396.3 118.75 396.3 116.15 396.3 115.5 395.65 115 395.35 114.75 395.05 114.65 394.75 114.5 394.5 114.5
M 326.3 74.7
Q 326.25 74.25 326.15 73.95 325.95 73.65 325.7 73.5 325.45 73.35 325.1 73.25 324.75 73.2 324.35 73.2 323.85 73.2 323.55 73.25 323.15 73.35 322.9 73.5 322.65 73.65 322.5 73.95 322.35 74.25 322.35 74.7
L 322.35 85.15 319.65 85.15 319.65 75.3
Q 319.65 74.85 319.55 74.55 319.4 74.25 319.15 74.1 318.85 74 318.45 73.9 318.1 73.85 317.65 73.85 317.3 73.85 316.95 73.9 316.6 74 316.3 74.1 315.95 74.25 315.8 74.55 315.65 74.9 315.65 75.3
L 315.65 103.7
Q 315.65 104.15 315.8 104.45 315.95 104.75 316.3 104.9 316.6 105.05 316.95 105.1 317.3 105.2 317.65 105.2 318.1 105.2 318.45 105.1 318.85 105.05 319.15 104.9 319.4 104.75 319.55 104.45 319.65 104.15 319.65 103.7
L 319.65 88.9 322.35 88.9 322.35 104.65
Q 322.35 105.1 322.5 105.4 322.65 105.7 322.9 105.85 323.15 106 323.55 106.05 323.85 106.15 324.35 106.15 324.75 106.15 325.1 106.05 325.45 106 325.7 105.85 325.95 105.7 326.15 105.4 326.25 105.1 326.3 104.65
L 326.3 74.7
M 465.45 77.35
Q 464.75 78.05 464.2 78.85 463.65 79.7 463.3 80.75 462.9 81.8 462.6 83 462.3 84.2 462.2 85.55 462.05 86.9 462.05 88.35 462.05 89.75 462.15 91.1 462.3 92.4 462.55 93.6 462.8 94.75 463.15 95.8 463.6 96.9 464.15 97.75 464.75 98.65 465.45 99.3 466.15 100 466.9 100.45 467.7 100.95 468.65 101.2 469.6 101.45 470.75 101.45 471.75 101.45 472.65 101.2 473.55 100.95 474.4 100.45 475.2 100 475.9 99.3 476.6 98.65 477.15 97.75 477.75 96.9 478.2 95.8 478.65 94.75 478.95 93.6 479.2 92.4 479.35 91.1 479.5 89.75 479.5 88.35 479.5 86.95 479.35 85.65 479.2 84.3 478.95 83.1 478.6 81.9 478.15 80.85 477.7 79.85 477.1 78.95 476.5 78.1 475.85 77.45 475.15 76.75 474.35 76.25 473.55 75.75 472.65 75.5 471.75 75.2 470.75 75.2 469.65 75.25 468.7 75.5 467.75 75.75 466.95 76.2 466.15 76.7 465.45 77.35
M 471.7 79.45
Q 472.15 79.6 472.65 79.95 473.05 80.3 473.45 80.8 473.8 81.3 474.1 81.9 474.3 82.55 474.5 83.25 474.7 83.95 474.9 84.8 475.05 85.65 475.15 86.5 475.25 87.4 475.25 88.35 475.25 89.3 475.15 90.2 475.1 91.1 474.95 91.9 474.55 93.6 474.1 94.8 473.85 95.45 473.45 95.95 473.1 96.45 472.65 96.8 472.2 97.2 471.7 97.35 471.25 97.55 470.75 97.55 470.15 97.55 469.65 97.35 469.15 97.2 468.75 96.8 467.9 96.05 467.3 94.8 467 94.15 466.85 93.4 466.65 92.65 466.55 91.8 466.4 91 466.3 90.15 466.25 89.25 466.25 88.35 466.25 87.4 466.3 86.5 466.4 85.6 466.55 84.75 466.65 83.95 466.85 83.2 467.05 82.45 467.3 81.85 467.6 81.25 468 80.75 468.4 80.3 468.8 79.9 469.2 79.6 469.7 79.45 470.2 79.25 470.75 79.25 471.2 79.25 471.7 79.45
M 439.3 98.15
Q 439.1 98.4 438.95 98.75 438.85 99.1 438.85 99.55
L 438.85 101.15
Q 438.85 101.65 438.95 101.95 439.1 102.3 439.3 102.45 439.5 102.55 439.85 102.65 440.2 102.7 440.75 102.7
L 441.45 102.7
Q 441.35 102.9 441.05 103.45 440.85 103.65 440.65 103.85 440.4 104.05 440.05 104.25 439.9 104.35 439.75 104.5 439.55 104.6 439.45 104.75 439.3 104.85 439.25 104.95 439.15 105.05 439.15 105.25 439.15 105.45 439.25 105.7 439.3 105.9 439.45 106.05 439.55 106.2 439.65 106.35 439.8 106.4 439.95 106.4 440.05 106.4 440.25 106.4 440.45 106.35 440.65 106.3 440.9 106.15 441 106.1 441.15 106.05 441.2 106 441.45 105.9 441.65 105.75 441.9 105.6 442.15 105.4 442.4 105.2 442.65 104.95 442.85 104.7 443.1 104.4 443.55 103.75 443.85 103.05 443.95 102.6 444 102.2 444.05 101.8 444.05 101.35
L 444.05 99.55
Q 444.05 99.1 443.9 98.75 443.8 98.45 443.5 98.2 443.2 97.95 442.85 97.85 442.5 97.75 442.1 97.75
L 440.75 97.75
Q 440.2 97.75 439.85 97.85 439.5 97.95 439.3 98.15
M 412.5 80.15
Q 412.25 79.45 411.85 78.85 411.45 78.25 411 77.7 410.4 77.2 409.75 76.75 409.1 76.35 408.4 76 407.7 75.7 406.9 75.55 406.15 75.35 405.3 75.35
L 405.25 75.35
Q 404.4 75.35 403.65 75.5 402.9 75.7 402.25 76 401.5 76.35 400.9 76.8 400.25 77.2 399.75 77.75 398.8 78.8 398.25 80.05 398 80.7 397.85 81.35 397.7 81.95 397.7 82.6 397.7 82.95 397.85 83.25 398 83.55 398.25 83.75 398.55 83.95 398.85 84.1 399.1 84.2 399.45 84.2 399.9 84.2 400.3 84 400.75 83.85 401.1 83.55 401.4 83.2 401.6 82.8 401.75 82.4 401.75 81.9 401.75 81.75 401.85 81.55 401.9 81.3 402.1 81.05 402.2 80.8 402.35 80.55 402.55 80.35 402.75 80.15 403.05 79.95 403.35 79.8 403.65 79.6 404 79.45 404.35 79.35 404.65 79.3 404.95 79.2 405.3 79.2 405.8 79.2 406.2 79.3 406.65 79.4 407 79.55 407.35 79.7 407.65 79.95 407.95 80.15 408.2 80.4 408.4 80.65 408.55 81 408.75 81.3 408.9 81.6 409.05 81.95 409.15 82.25 409.2 82.6 409.2 82.9 409.2 83.2 409.15 83.5 409.1 83.8 408.95 84.15 408.8 84.45 408.6 84.75 408.45 85.05 408.3 85.35 408.1 85.7 407.95 85.95 407.75 86.25 407.45 86.45 407.2 86.7 406.95 86.9 406.7 87.1 406.55 87.2 406.1 87.55 405.65 87.9 405.15 88.25 404.7 88.6 404.25 88.95 403.8 89.3 403.35 89.65 402.9 89.95 402.25 90.5 401.75 90.95 401.2 91.4 400.7 91.8 400.25 92.25 399.9 92.7 399.55 93.15 399.3 93.6 398.9 94 398.65 94.5 398.45 94.95 398.25 95.4 398.1 95.95 398 96.55 397.85 97.1 397.8 97.75 397.8 97.8 397.8 97.9 397.75 98 397.75 98.1 397.7 98.2 397.7 98.35 397.65 98.45 397.7 98.5
L 397.7 98.65
Q 397.65 98.75 397.65 98.9 397.65 99 397.65 99.1 397.65 99.65 397.8 100 397.95 100.35 398.35 100.55 398.65 100.8 399.05 100.9 399.45 101.05 399.9 101.05
L 411.5 101.05
Q 413.6 101.05 413.6 99.15 413.6 98.65 413.45 98.3 413.3 97.95 413.05 97.75 412.75 97.6 412.3 97.5 411.85 97.4 411.3 97.4
L 402.3 97.4
Q 402.3 96.9 402.45 96.35 402.6 95.85 402.95 95.35 403.25 94.9 403.7 94.45 404.1 94 404.6 93.6 405.05 93.25 405.5 92.9 406 92.5 406.55 92.2 407.05 91.85 407.5 91.55 407.95 91.25 408.25 91 408.75 90.65 409.25 90.3 409.75 89.9 410.2 89.5 410.6 89.05 411 88.6 411.35 88.15 411.65 87.65 412 87.2 412.3 86.65 412.55 86.15 412.7 85.55 412.85 84.95 412.95 84.25 413.05 83.6 413.05 82.85 413.05 82.15 412.9 81.5 412.75 80.8 412.5 80.15
M 417 79.1
Q 417.05 79.45 417.25 79.75 417.4 80.05 417.75 80.2 418.1 80.35 418.6 80.35
L 428.9 80.35
Q 428.45 81 427.95 81.8 427.45 82.6 426.95 83.55 426.4 84.45 425.85 85.5 425.25 86.5 424.65 87.6 424.1 88.7 423.65 89.8 423.15 90.9 422.7 92 421.75 94.35 421.4 96.35 421.3 96.85 421.2 97.35 421.05 97.8 420.95 98.25 420.8 98.65 420.7 99.05 420.65 99.45 420.6 99.75 420.6 100.2 420.8 100.5 421 100.8 421.3 101 421.65 101.2 422 101.3 422.45 101.35 422.95 101.35 423.45 101.35 423.8 101.25 424.2 101.15 424.45 100.95 424.65 100.75 424.8 100.5 424.95 100.2 425.1 99.75 425.25 99.4 425.35 98.95 425.45 98.5 425.55 97.9 425.6 97.35 425.7 96.75 425.8 96.15 425.95 95.45 426.1 94.65 426.35 93.85 426.55 93.05 426.9 92.2 427.15 91.3 427.5 90.5 427.85 89.65 428.25 88.9 428.55 88.1 428.9 87.35 429.2 86.6 429.6 85.9 429.9 85.25 430.15 84.7 430.45 84.15 430.7 83.7 431.05 83.15 431.4 82.75 431.8 82.3 432.1 81.9 432.4 81.6 432.65 81.25 432.9 80.95 433.15 80.6 433.3 80.4 433.45 80.15 433.65 79.85 433.8 79.55 434.1 79.05 434.1 78.3
L 434.1 77.9
Q 434.1 77.6 434.05 77.25 434 77 433.85 76.7 433.7 76.45 433.45 76.3 433.25 76.15 433 76.15 431.15 76.15 429.3 76.15 427.5 76.15 425.75 76.15 423.9 76.15 422.1 76.15 420.35 76.2 418.6 76.2 418.05 76.25 417.75 76.4 417.4 76.55 417.25 76.9 417.05 77.2 417 77.55 416.9 77.9 416.9 78.3 416.9 78.75 417 79.1
M 511.45 160.1
Q 511.05 160.2 510.85 160.4 510.65 160.6 510.5 160.95 510.4 161.35 510.4 161.85
L 510.4 163.35
Q 510.4 163.85 510.5 164.2 510.65 164.55 510.85 164.75 511.05 164.95 511.45 165 511.8 165.15 512.35 165.15
L 513.8 165.15
Q 514.7 165.15 515.2 164.7 515.65 164.25 515.65 163.35
L 515.65 161.85
Q 515.65 161.35 515.55 161 515.4 160.7 515.15 160.45 514.9 160.2 514.55 160.1 514.2 160 513.7 160
L 512.35 160
Q 511.8 160 511.45 160.1
M 493.4 136.35
Q 492.45 136.6 491.65 137.05 490.85 137.55 490.15 138.2 489.45 138.9 488.9 139.7 488.35 140.55 488 141.6 487.6 142.65 487.3 143.85 487 145.05 486.9 146.4 486.75 147.75 486.75 149.2 486.75 150.6 486.85 151.95 487 153.25 487.25 154.45 487.5 155.6 487.85 156.65 488.3 157.75 488.85 158.6 489.45 159.5 490.15 160.15 490.85 160.85 491.6 161.3 492.4 161.8 493.35 162.05 494.3 162.3 495.45 162.3 496.45 162.3 497.35 162.05 498.25 161.8 499.1 161.3 499.9 160.85 500.6 160.15 501.3 159.5 501.85 158.6 502.45 157.75 502.9 156.65 503.35 155.6 503.65 154.45 503.9 153.25 504.05 151.95 504.2 150.6 504.2 149.2 504.2 147.8 504.05 146.5 503.9 145.15 503.65 143.95 503.3 142.75 502.85 141.7 502.4 140.7 501.8 139.8 501.2 138.95 500.55 138.3 499.85 137.6 499.05 137.1 498.25 136.6 497.35 136.35 496.45 136.05 495.45 136.05 494.35 136.1 493.4 136.35
M 492.7 141.6
Q 493.1 141.15 493.5 140.75 493.9 140.45 494.4 140.3 494.9 140.1 495.45 140.1 495.9 140.1 496.4 140.3 496.85 140.45 497.35 140.8 497.75 141.15 498.15 141.65 498.5 142.15 498.8 142.75 499 143.4 499.2 144.1 499.4 144.8 499.6 145.65 499.75 146.5 499.85 147.35 499.95 148.25 499.95 149.2 499.95 150.15 499.85 151.05 499.8 151.95 499.65 152.75 499.25 154.45 498.8 155.65 498.55 156.3 498.15 156.8 497.8 157.3 497.35 157.65 496.9 158.05 496.4 158.2 495.95 158.4 495.45 158.4 494.85 158.4 494.35 158.2 493.85 158.05 493.45 157.65 492.6 156.9 492 155.65 491.7 155 491.55 154.25 491.35 153.5 491.25 152.65 491.1 151.85 491 151 490.95 150.1 490.95 149.2 490.95 148.25 491 147.35 491.1 146.45 491.25 145.6 491.35 144.8 491.55 144.05 491.75 143.3 492 142.7 492.3 142.1 492.7 141.6
M 490.95 101
Q 490.95 100.5 490.85 100.15 490.7 99.85 490.45 99.6 490.2 99.35 489.85 99.25 489.5 99.15 489 99.15
L 487.65 99.15
Q 487.1 99.15 486.75 99.25 486.35 99.35 486.15 99.55 485.95 99.75 485.8 100.1 485.7 100.5 485.7 101
L 485.7 102.5
Q 485.7 103 485.8 103.35 485.95 103.7 486.15 103.9 486.35 104.1 486.75 104.15 487.1 104.3 487.65 104.3
L 489.1 104.3
Q 490 104.3 490.5 103.85 490.95 103.4 490.95 102.5
L 490.95 101
M 543.7 137.05
Q 543.15 137.1 542.85 137.25 542.5 137.4 542.35 137.75 542.15 138.05 542.1 138.4 542 138.75 542 139.15 542 139.6 542.1 139.95 542.15 140.3 542.35 140.6 542.5 140.9 542.85 141.05 543.2 141.2 543.7 141.2
L 554 141.2
Q 553.55 141.85 553.05 142.65 552.55 143.45 552.05 144.4 551.5 145.3 550.95 146.35 550.35 147.35 549.75 148.45 549.2 149.55 548.75 150.65 548.25 151.75 547.8 152.85 546.85 155.2 546.5 157.2 546.4 157.7 546.3 158.2 546.15 158.65 546.05 159.1 545.9 159.5 545.8 159.9 545.75 160.3 545.7 160.6 545.7 161.05 545.9 161.35 546.1 161.65 546.4 161.85 546.75 162.05 547.1 162.15 547.55 162.2 548.05 162.2 548.55 162.2 548.9 162.1 549.3 162 549.55 161.8 549.75 161.6 549.9 161.35 550.05 161.05 550.2 160.6 550.35 160.25 550.45 159.8 550.55 159.35 550.65 158.75 550.7 158.2 550.8 157.6 550.9 157 551.05 156.3 551.2 155.5 551.45 154.7 551.65 153.9 552 153.05 552.25 152.15 552.6 151.35 552.95 150.5 553.35 149.75 553.65 148.95 554 148.2 554.3 147.45 554.7 146.75 555 146.1 555.25 145.55 555.55 145 555.8 144.55 556.15 144 556.5 143.6 556.9 143.15 557.2 142.75 557.5 142.45 557.75 142.1 558 141.8 558.25 141.45 558.4 141.25 558.55 141 558.75 140.7 558.9 140.4 559.2 139.9 559.2 139.15
L 559.2 138.75
Q 559.2 138.45 559.15 138.1 559.1 137.85 558.95 137.55 558.8 137.3 558.55 137.15 558.35 137 558.1 137 556.25 137 554.4 137 552.6 137 550.85 137 549 137 547.2 137 545.45 137.05 543.7 137.05
M 533.3 141.25
Q 533.5 141.5 533.65 141.85 533.85 142.15 534 142.45 534.15 142.8 534.25 143.1 534.3 143.45 534.3 143.75 534.3 144.05 534.25 144.35 534.2 144.65 534.05 145 533.9 145.3 533.7 145.6 533.55 145.9 533.4 146.2 533.2 146.55 533.05 146.8 532.85 147.1 532.55 147.3 532.3 147.55 532.05 147.75 531.8 147.95 531.65 148.05 531.2 148.4 530.75 148.75 530.25 149.1 529.8 149.45 529.35 149.8 528.9 150.15 528.45 150.5 528 150.8 527.35 151.35 526.85 151.8 526.3 152.25 525.8 152.65 525.35 153.1 525 153.55 524.65 154 524.4 154.45 524 154.85 523.75 155.35 523.55 155.8 523.35 156.25 523.2 156.8 523.1 157.4 522.95 157.95 522.9 158.6 522.9 158.65 522.9 158.75 522.85 158.85 522.85 158.95 522.8 159.05 522.8 159.2 522.75 159.3 522.8 159.35
L 522.8 159.5
Q 522.75 159.6 522.75 159.75 522.75 159.85 522.75 159.95 522.75 160.5 522.9 160.85 523.05 161.2 523.45 161.4 523.75 161.65 524.15 161.75 524.55 161.9 525 161.9
L 536.6 161.9
Q 538.7 161.9 538.7 160 538.7 159.5 538.55 159.15 538.4 158.8 538.15 158.6 537.85 158.45 537.4 158.35 536.95 158.25 536.4 158.25
L 527.4 158.25
Q 527.4 157.75 527.55 157.2 527.7 156.7 528.05 156.2 528.35 155.75 528.8 155.3 529.2 154.85 529.7 154.45 530.15 154.1 530.6 153.75 531.1 153.35 531.65 153.05 532.15 152.7 532.6 152.4 533.05 152.1 533.35 151.85 533.85 151.5 534.35 151.15 534.85 150.75 535.3 150.35 535.7 149.9 536.1 149.45 536.45 149 536.75 148.5 537.1 148.05 537.4 147.5 537.65 147 537.8 146.4 537.95 145.8 538.05 145.1 538.15 144.45 538.15 143.7 538.15 143 538 142.35 537.85 141.65 537.6 141 537.35 140.3 536.95 139.7 536.55 139.1 536.1 138.55 535.5 138.05 534.85 137.6 534.2 137.2 533.5 136.85 532.8 136.55 532 136.4 531.25 136.2 530.4 136.2
L 530.35 136.2
Q 529.5 136.2 528.75 136.35 528 136.55 527.35 136.85 526.6 137.2 526 137.65 525.35 138.05 524.85 138.6 523.9 139.65 523.35 140.9 523.1 141.55 522.95 142.2 522.8 142.8 522.8 143.45 522.8 143.8 522.95 144.1 523.1 144.4 523.35 144.6 523.65 144.8 523.95 144.95 524.2 145.05 524.55 145.05 525 145.05 525.4 144.85 525.85 144.7 526.2 144.4 526.5 144.05 526.7 143.65 526.85 143.25 526.85 142.75 526.85 142.6 526.95 142.4 527 142.15 527.2 141.9 527.3 141.65 527.45 141.4 527.65 141.2 527.85 141 528.15 140.8 528.45 140.65 528.75 140.45 529.1 140.3 529.45 140.2 529.75 140.15 530.05 140.05 530.4 140.05 530.9 140.05 531.3 140.15 531.75 140.25 532.1 140.4 532.45 140.55 532.75 140.8 533.05 141 533.3 141.25
M 538.85 94.2
Q 538.45 94.25 538.2 94.4 537.95 94.55 537.8 94.8 537.5 95.3 537.5 96.15 537.5 96.8 537.8 97.3 537.95 97.6 538.2 97.75 538.45 97.9 538.85 97.95
L 542.1 97.95
Q 543.2 97.95 544.2 97.95 545.2 97.9 546.1 97.85 547 97.85 547.95 97.85 548.9 97.8 549.8 97.75 551.55 97.65 553.3 97.4 554.1 97.35 555 97.25 555.85 97.1 556.8 96.95 557.3 96.9 557.65 96.7 558.05 96.5 558.3 96.15 558.5 95.85 558.6 95.55 558.75 95.2 558.75 94.8
L 558.8 94.85
Q 558.75 94.5 558.55 94.2 558.4 93.85 558.15 93.6 557.85 93.3 557.5 93.25 557.15 93.2 556.7 93.3 555.75 93.4 554.85 93.5 554 93.6 553.15 93.7 552.3 93.8 551.45 93.85 550.6 93.9 549.75 93.95 548.8 94.05 547.9 94.1 547 94.1 546.15 94.1 545.3 94.2 544.35 94.2 543.45 94.2 542.5 94.2
L 538.85 94.2
M 544.6 76.1
Q 543.2 76.55 542.15 77.6 541.1 78.55 540.55 79.95 540 81.35 540 83.15 540 84.9 540.55 86.25 541.1 87.65 542.15 88.6 543.2 89.6 544.6 90.1 546 90.6 547.8 90.6 549.7 90.6 551.15 90.05 551.85 89.85 552.45 89.45 553.05 89.1 553.5 88.6 554.1 88.15 554.5 87.55 554.9 86.95 555.2 86.25 555.45 85.6 555.6 84.8 555.75 84 555.75 83.15 555.75 82.25 555.6 81.45 555.45 80.65 555.2 79.95 554.9 79.25 554.5 78.7 554.1 78.1 553.5 77.6 553.05 77.1 552.45 76.75 551.85 76.35 551.15 76.1 549.7 75.6 547.8 75.6 546 75.6 544.6 76.1
M 544.95 80.1
Q 545.45 79.55 546.15 79.3 546.9 79 547.85 79 548.75 79 549.5 79.3 550.25 79.55 550.75 80.1 551.25 80.65 551.5 81.4 551.8 82.15 551.8 83.15 551.8 84.1 551.5 84.85 551.25 85.55 550.75 86.05 550.25 86.6 549.5 86.9 548.75 87.15 547.85 87.15 546.9 87.15 546.15 86.9 545.45 86.6 544.95 86.05 544.45 85.55 544.2 84.85 543.95 84.1 543.95 83.15 543.95 82.15 544.2 81.4 544.45 80.65 544.95 80.1
M 561.7 73.2
Q 561.35 73.25 561.1 73.4 560.8 73.5 560.65 73.8 560.55 74.15 560.55 74.6
L 560.55 104.3
Q 560.55 104.75 560.65 105.1 560.8 105.45 561.15 105.65 561.4 105.8 561.7 105.9 562 106 562.4 106 562.85 106 563.2 105.9 563.55 105.8 563.9 105.65 564.2 105.45 564.3 105.1 564.5 104.75 564.5 104.3
L 564.5 74.6
Q 564.5 74.35 564.45 74.2 564.4 74 564.25 73.85 564.15 73.7 564 73.6 563.9 73.5 563.75 73.4 563.6 73.35 563.45 73.25 563.3 73.2 563.15 73.15 563 73.15 562.8 73.15 562.6 73.15 562.35 73.15 562 73.15 561.7 73.2
M 526.15 76.15
Q 524.3 76.15 522.5 76.15 520.75 76.2 519 76.2 518.45 76.25 518.15 76.4 517.8 76.55 517.65 76.9 517.45 77.2 517.4 77.55 517.3 77.9 517.3 78.3 517.3 78.75 517.4 79.1 517.45 79.45 517.65 79.75 517.8 80.05 518.15 80.2 518.5 80.35 519 80.35
L 529.3 80.35
Q 528.85 81 528.35 81.8 527.85 82.6 527.35 83.55 526.8 84.45 526.25 85.5 525.65 86.5 525.05 87.6 524.5 88.7 524.05 89.8 523.55 90.9 523.1 92 522.15 94.35 521.8 96.35 521.7 96.85 521.6 97.35 521.45 97.8 521.35 98.25 521.2 98.65 521.1 99.05 521.05 99.45 521 99.75 521 100.2 521.2 100.5 521.4 100.8 521.7 101 522.05 101.2 522.4 101.3 522.85 101.35 523.35 101.35 523.85 101.35 524.2 101.25 524.6 101.15 524.85 100.95 525.05 100.75 525.2 100.5 525.35 100.2 525.5 99.75 525.65 99.4 525.75 98.95 525.85 98.5 525.95 97.9 526 97.35 526.1 96.75 526.2 96.15 526.35 95.45 526.5 94.65 526.75 93.85 526.95 93.05 527.3 92.2 527.55 91.3 527.9 90.5 528.25 89.65 528.65 88.9 528.95 88.1 529.3 87.35 529.6 86.6 530 85.9 530.3 85.25 530.55 84.7 530.85 84.15 531.1 83.7 531.45 83.15 531.8 82.75 532.2 82.3 532.5 81.9 532.8 81.6 533.05 81.25 533.3 80.95 533.55 80.6 533.7 80.4 533.85 80.15 534.05 79.85 534.2 79.55 534.5 79.05 534.5 78.3
L 534.5 77.9
Q 534.5 77.6 534.45 77.25 534.4 77 534.25 76.7 534.1 76.45 533.85 76.3 533.65 76.15 533.4 76.15 531.55 76.15 529.7 76.15 527.9 76.15 526.15 76.15
M 505.7 75.35
L 505.65 75.35
Q 504.8 75.35 504.05 75.5 503.3 75.7 502.65 76 501.9 76.35 501.3 76.8 500.65 77.2 500.15 77.75 499.2 78.8 498.65 80.05 498.4 80.7 498.25 81.35 498.1 81.95 498.1 82.6 498.1 82.95 498.25 83.25 498.4 83.55 498.65 83.75 498.95 83.95 499.25 84.1 499.5 84.2 499.85 84.2 500.3 84.2 500.7 84 501.15 83.85 501.5 83.55 501.8 83.2 502 82.8 502.15 82.4 502.15 81.9 502.15 81.75 502.25 81.55 502.3 81.3 502.5 81.05 502.6 80.8 502.75 80.55 502.95 80.35 503.15 80.15 503.45 79.95 503.75 79.8 504.05 79.6 504.4 79.45 504.75 79.35 505.05 79.3 505.35 79.2 505.7 79.2 506.2 79.2 506.6 79.3 507.05 79.4 507.4 79.55 507.75 79.7 508.05 79.95 508.35 80.15 508.6 80.4 508.8 80.65 508.95 81 509.15 81.3 509.3 81.6 509.45 81.95 509.55 82.25 509.6 82.6 509.6 82.9 509.6 83.2 509.55 83.5 509.5 83.8 509.35 84.15 509.2 84.45 509 84.75 508.85 85.05 508.7 85.35 508.5 85.7 508.35 85.95 508.15 86.25 507.85 86.45 507.6 86.7 507.35 86.9 507.1 87.1 506.95 87.2 506.5 87.55 506.05 87.9 505.55 88.25 505.1 88.6 504.65 88.95 504.2 89.3 503.75 89.65 503.3 89.95 502.65 90.5 502.15 90.95 501.6 91.4 501.1 91.8 500.65 92.25 500.3 92.7 499.95 93.15 499.7 93.6 499.3 94 499.05 94.5 498.85 94.95 498.65 95.4 498.5 95.95 498.4 96.55 498.25 97.1 498.2 97.75 498.2 97.8 498.2 97.9 498.15 98 498.15 98.1 498.1 98.2 498.1 98.35 498.05 98.45 498.1 98.5
L 498.1 98.65
Q 498.05 98.75 498.05 98.9 498.05 99 498.05 99.1 498.05 99.65 498.2 100 498.35 100.35 498.75 100.55 499.05 100.8 499.45 100.9 499.85 101.05 500.3 101.05
L 511.9 101.05
Q 514 101.05 514 99.15 514 98.65 513.85 98.3 513.7 97.95 513.45 97.75 513.15 97.6 512.7 97.5 512.25 97.4 511.7 97.4
L 502.7 97.4
Q 502.7 96.9 502.85 96.35 503 95.85 503.35 95.35 503.65 94.9 504.1 94.45 504.5 94 505 93.6 505.45 93.25 505.9 92.9 506.4 92.5 506.95 92.2 507.45 91.85 507.9 91.55 508.35 91.25 508.65 91 509.15 90.65 509.65 90.3 510.15 89.9 510.6 89.5 511 89.05 511.4 88.6 511.75 88.15 512.05 87.65 512.4 87.2 512.7 86.65 512.95 86.15 513.1 85.55 513.25 84.95 513.35 84.25 513.45 83.6 513.45 82.85 513.45 82.15 513.3 81.5 513.15 80.8 512.9 80.15 512.65 79.45 512.25 78.85 511.85 78.25 511.4 77.7 510.8 77.2 510.15 76.75 509.5 76.35 508.8 76 508.1 75.7 507.3 75.55 506.55 75.35 505.7 75.35
M 626.75 82.8
L 626.75 77.2
Q 626.75 76.8 626.55 76.45 626.4 76.15 626.05 75.95 625.7 75.8 625.45 75.7 625.15 75.6 624.85 75.6 624.45 75.6 624.1 75.7 623.75 75.8 623.45 75.95 622.8 76.35 622.8 77.2
L 622.8 92.4
Q 622.8 94.35 623.8 95.3 624.8 96.25 626.8 96.25
L 632.45 96.25
Q 634.05 96.25 634.8 95.2 635.1 94.7 635.3 94 635.5 93.3 635.5 92.4
L 635.5 77.2
Q 635.5 76.8 635.3 76.45 635.1 76.15 634.8 75.95 634.4 75.8 634.1 75.7 633.75 75.6 633.5 75.6 633.05 75.6 632.7 75.7 632.35 75.8 632.1 75.95 631.45 76.35 631.45 77.2
L 631.45 82.8 626.75 82.8
M 626.8 91.75
Q 626.75 91.25 626.75 90.7
L 626.75 86.55 631.4 86.55 631.4 90.7
Q 631.4 90.95 631.4 91.15 631.4 91.35 631.4 91.6 631.4 91.8 631.4 92 631.35 92.25 631.35 92.45 631.2 92.5 631 92.5 630.8 92.5 630.55 92.5 630.3 92.5 630.05 92.5 629.85 92.5 629.65 92.5
L 626.95 92.5
Q 626.85 92.2 626.8 91.75
M 605.95 75.5
Q 605 75.75 604.2 76.2 603.4 76.7 602.7 77.35 602 78.05 601.45 78.85 600.9 79.7 600.55 80.75 600.15 81.8 599.85 83 599.55 84.2 599.45 85.55 599.3 86.9 599.3 88.35 599.3 89.75 599.4 91.1 599.55 92.4 599.8 93.6 600.05 94.75 600.4 95.8 600.85 96.9 601.4 97.75 602 98.65 602.7 99.3 603.4 100 604.15 100.45 604.95 100.95 605.9 101.2 606.85 101.45 608 101.45 609 101.45 609.9 101.2 610.8 100.95 611.65 100.45 612.45 100 613.15 99.3 613.85 98.65 614.4 97.75 615 96.9 615.45 95.8 615.9 94.75 616.2 93.6 616.45 92.4 616.6 91.1 616.75 89.75 616.75 88.35 616.75 86.95 616.6 85.65 616.45 84.3 616.2 83.1 615.85 81.9 615.4 80.85 614.95 79.85 614.35 78.95 613.75 78.1 613.1 77.45 612.4 76.75 611.6 76.25 610.8 75.75 609.9 75.5 609 75.2 608 75.2 606.9 75.25 605.95 75.5
M 606.05 79.9
Q 606.45 79.6 606.95 79.45 607.45 79.25 608 79.25 608.45 79.25 608.95 79.45 609.4 79.6 609.9 79.95 610.3 80.3 610.7 80.8 611.05 81.3 611.35 81.9 611.55 82.55 611.75 83.25 611.95 83.95 612.15 84.8 612.3 85.65 612.4 86.5 612.5 87.4 612.5 88.35 612.5 89.3 612.4 90.2 612.35 91.1 612.2 91.9 611.8 93.6 611.35 94.8 611.1 95.45 610.7 95.95 610.35 96.45 609.9 96.8 609.45 97.2 608.95 97.35 608.5 97.55 608 97.55 607.4 97.55 606.9 97.35 606.4 97.2 606 96.8 605.15 96.05 604.55 94.8 604.25 94.15 604.1 93.4 603.9 92.65 603.8 91.8 603.65 91 603.55 90.15 603.5 89.25 603.5 88.35 603.5 87.4 603.55 86.5 603.65 85.6 603.8 84.75 603.9 83.95 604.1 83.2 604.3 82.45 604.55 81.85 604.85 81.25 605.25 80.75 605.65 80.3 606.05 79.9
M 587 79.25
Q 586.75 79.45 586.45 79.6 586.1 79.75 585.8 79.8 585.4 79.85 585.05 79.9 584.65 79.9 584.3 79.9 583.85 79.95 583.5 80.1 583.2 80.25 583 80.5 582.7 80.8 582.6 81.1 582.5 81.45 582.5 81.8 582.5 82.2 582.6 82.5 582.7 82.8 582.9 83.1 583.1 83.45 583.4 83.6 583.7 83.75 584.15 83.75
L 587.3 83.75
Q 587.3 85.7 587.3 87.6 587.3 89.55 587.3 91.45 587.3 95.3 587.3 99.2 587.3 99.6 587.5 99.85 587.65 100.15 588 100.4 588.3 100.65 588.7 100.8 589.05 100.95 589.5 100.95 589.6 100.95 589.8 100.9 589.95 100.85 590.1 100.75 590.2 100.7 590.4 100.65 590.55 100.55 590.7 100.45 590.9 100.35 591.05 100.15 591.2 100 591.3 99.85 591.4 99.7 591.45 99.55 591.5 99.4 591.5 99.2
L 591.5 97.75
Q 591.5 95.1 591.5 92.55 591.5 89.95 591.5 87.45 591.45 84.95 591.45 82.4 591.45 79.85 591.45 77.25 591.45 76.6 590.8 76.1 590.5 75.85 590.2 75.75 589.9 75.6 589.65 75.6 589.2 75.6 588.9 75.7 588.55 75.8 588.45 76.05 588.25 76.25 588.15 76.5 588.05 76.8 587.95 77.05 587.8 77.35 587.7 77.65 587.6 77.95 587.5 78.3 587.4 78.6 587.3 78.85 587.15 79.1 587 79.25
M 746.15 99.25
Q 745.8 99.15 745.3 99.15
L 743.95 99.15
Q 743.4 99.15 743.05 99.25 742.65 99.35 742.45 99.55 742.25 99.75 742.1 100.1 742 100.5 742 101
L 742 102.5
Q 742 103 742.1 103.35 742.25 103.7 742.45 103.9 742.65 104.1 743.05 104.15 743.4 104.3 743.95 104.3
L 745.4 104.3
Q 746.3 104.3 746.8 103.85 747.25 103.4 747.25 102.5
L 747.25 101
Q 747.25 100.5 747.15 100.15 747 99.85 746.75 99.6 746.5 99.35 746.15 99.25
M 649.05 74.7
Q 649 74.25 648.9 73.95 648.7 73.65 648.45 73.5 648.2 73.35 647.85 73.25 647.5 73.2 647.1 73.2 646.6 73.2 646.3 73.25 645.9 73.35 645.65 73.5 645.4 73.65 645.25 73.95 645.1 74.25 645.1 74.7
L 645.1 85.15 642.4 85.15 642.4 75.3
Q 642.4 74.85 642.3 74.55 642.15 74.25 641.9 74.1 641.6 74 641.2 73.9 640.85 73.85 640.4 73.85 640.05 73.85 639.7 73.9 639.35 74 639.05 74.1 638.7 74.25 638.55 74.55 638.4 74.9 638.4 75.3
L 638.4 103.7
Q 638.4 104.15 638.55 104.45 638.7 104.75 639.05 104.9 639.35 105.05 639.7 105.1 640.05 105.2 640.4 105.2 640.85 105.2 641.2 105.1 641.6 105.05 641.9 104.9 642.15 104.75 642.3 104.45 642.4 104.15 642.4 103.7
L 642.4 88.9 645.1 88.9 645.1 104.65
Q 645.1 105.1 645.25 105.4 645.4 105.7 645.65 105.85 645.9 106 646.3 106.05 646.6 106.15 647.1 106.15 647.5 106.15 647.85 106.05 648.2 106 648.45 105.85 648.7 105.7 648.9 105.4 649 105.1 649.05 104.65
L 649.05 74.7
M 778.85 97.85
Q 778.5 97.75 778.1 97.75
L 776.75 97.75
Q 776.2 97.75 775.85 97.85 775.5 97.95 775.3 98.15 775.1 98.4 774.95 98.75 774.85 99.1 774.85 99.55
L 774.85 101.15
Q 774.85 101.65 774.95 101.95 775.1 102.3 775.3 102.45 775.5 102.55 775.85 102.65 776.2 102.7 776.75 102.7
L 777.45 102.7
Q 777.35 102.9 777.05 103.45 776.85 103.65 776.65 103.85 776.4 104.05 776.05 104.25 775.9 104.35 775.75 104.5 775.55 104.6 775.45 104.75 775.3 104.85 775.25 104.95 775.15 105.05 775.15 105.25 775.15 105.45 775.25 105.7 775.3 105.9 775.45 106.05 775.55 106.2 775.65 106.35 775.8 106.4 775.95 106.4 776.05 106.4 776.25 106.4 776.45 106.35 776.65 106.3 776.9 106.15 777 106.1 777.15 106.05 777.2 106 777.45 105.9 777.65 105.75 777.9 105.6 778.15 105.4 778.4 105.2 778.65 104.95 778.85 104.7 779.1 104.4 779.55 103.75 779.85 103.05 779.95 102.6 780 102.2 780.05 101.8 780.05 101.35
L 780.05 99.55
Q 780.05 99.1 779.9 98.75 779.8 98.45 779.5 98.2 779.2 97.95 778.85 97.85
M 769 76.15
Q 767.15 76.15 765.3 76.15 763.5 76.15 761.75 76.15 759.9 76.15 758.1 76.15 756.35 76.2 754.6 76.2 754.05 76.25 753.75 76.4 753.4 76.55 753.25 76.9 753.05 77.2 753 77.55 752.9 77.9 752.9 78.3 752.9 78.75 753 79.1 753.05 79.45 753.25 79.75 753.4 80.05 753.75 80.2 754.1 80.35 754.6 80.35
L 764.9 80.35
Q 764.45 81 763.95 81.8 763.45 82.6 762.95 83.55 762.4 84.45 761.85 85.5 761.25 86.5 760.65 87.6 760.1 88.7 759.65 89.8 759.15 90.9 758.7 92 757.75 94.35 757.4 96.35 757.3 96.85 757.2 97.35 757.05 97.8 756.95 98.25 756.8 98.65 756.7 99.05 756.65 99.45 756.6 99.75 756.6 100.2 756.8 100.5 757 100.8 757.3 101 757.65 101.2 758 101.3 758.45 101.35 758.95 101.35 759.45 101.35 759.8 101.25 760.2 101.15 760.45 100.95 760.65 100.75 760.8 100.5 760.95 100.2 761.1 99.75 761.25 99.4 761.35 98.95 761.45 98.5 761.55 97.9 761.6 97.35 761.7 96.75 761.8 96.15 761.95 95.45 762.1 94.65 762.35 93.85 762.55 93.05 762.9 92.2 763.15 91.3 763.5 90.5 763.85 89.65 764.25 88.9 764.55 88.1 764.9 87.35 765.2 86.6 765.6 85.9 765.9 85.25 766.15 84.7 766.45 84.15 766.7 83.7 767.05 83.15 767.4 82.75 767.8 82.3 768.1 81.9 768.4 81.6 768.65 81.25 768.9 80.95 769.15 80.6 769.3 80.4 769.45 80.15 769.65 79.85 769.8 79.55 770.1 79.05 770.1 78.3
L 770.1 77.9
Q 770.1 77.6 770.05 77.25 770 77 769.85 76.7 769.7 76.45 769.45 76.3 769.25 76.15 769 76.15
M 735.25 80.15
Q 735 79.45 734.6 78.85 734.2 78.25 733.75 77.7 733.15 77.2 732.5 76.75 731.85 76.35 731.15 76 730.45 75.7 729.65 75.55 728.9 75.35 728.05 75.35
L 728 75.35
Q 727.15 75.35 726.4 75.5 725.65 75.7 725 76 724.25 76.35 723.65 76.8 723 77.2 722.5 77.75 721.55 78.8 721 80.05 720.75 80.7 720.6 81.35 720.45 81.95 720.45 82.6 720.45 82.95 720.6 83.25 720.75 83.55 721 83.75 721.3 83.95 721.6 84.1 721.85 84.2 722.2 84.2 722.65 84.2 723.05 84 723.5 83.85 723.85 83.55 724.15 83.2 724.35 82.8 724.5 82.4 724.5 81.9 724.5 81.75 724.6 81.55 724.65 81.3 724.85 81.05 724.95 80.8 725.1 80.55 725.3 80.35 725.5 80.15 725.8 79.95 726.1 79.8 726.4 79.6 726.75 79.45 727.1 79.35 727.4 79.3 727.7 79.2 728.05 79.2 728.55 79.2 728.95 79.3 729.4 79.4 729.75 79.55 730.1 79.7 730.4 79.95 730.7 80.15 730.95 80.4 731.15 80.65 731.3 81 731.5 81.3 731.65 81.6 731.8 81.95 731.9 82.25 731.95 82.6 731.95 82.9 731.95 83.2 731.9 83.5 731.85 83.8 731.7 84.15 731.55 84.45 731.35 84.75 731.2 85.05 731.05 85.35 730.85 85.7 730.7 85.95 730.5 86.25 730.2 86.45 729.95 86.7 729.7 86.9 729.45 87.1 729.3 87.2 728.85 87.55 728.4 87.9 727.9 88.25 727.45 88.6 727 88.95 726.55 89.3 726.1 89.65 725.65 89.95 725 90.5 724.5 90.95 723.95 91.4 723.45 91.8 723 92.25 722.65 92.7 722.3 93.15 722.05 93.6 721.65 94 721.4 94.5 721.2 94.95 721 95.4 720.85 95.95 720.75 96.55 720.6 97.1 720.55 97.75 720.55 97.8 720.55 97.9 720.5 98 720.5 98.1 720.45 98.2 720.45 98.35 720.4 98.45 720.45 98.5
L 720.45 98.65
Q 720.4 98.75 720.4 98.9 720.4 99 720.4 99.1 720.4 99.65 720.55 100 720.7 100.35 721.1 100.55 721.4 100.8 721.8 100.9 722.2 101.05 722.65 101.05
L 734.25 101.05
Q 736.35 101.05 736.35 99.15 736.35 98.65 736.2 98.3 736.05 97.95 735.8 97.75 735.5 97.6 735.05 97.5 734.6 97.4 734.05 97.4
L 725.05 97.4
Q 725.05 96.9 725.2 96.35 725.35 95.85 725.7 95.35 726 94.9 726.45 94.45 726.85 94 727.35 93.6 727.8 93.25 728.25 92.9 728.75 92.5 729.3 92.2 729.8 91.85 730.25 91.55 730.7 91.25 731 91 731.5 90.65 732 90.3 732.5 89.9 732.95 89.5 733.35 89.05 733.75 88.6 734.1 88.15 734.4 87.65 734.75 87.2 735.05 86.65 735.3 86.15 735.45 85.55 735.6 84.95 735.7 84.25 735.8 83.6 735.8 82.85 735.8 82.15 735.65 81.5 735.5 80.8 735.25 80.15
M 826.45 99.6
Q 826.2 99.35 825.85 99.25 825.5 99.15 825 99.15
L 823.65 99.15
Q 823.1 99.15 822.75 99.25 822.35 99.35 822.15 99.55 821.95 99.75 821.8 100.1 821.7 100.5 821.7 101
L 821.7 102.5
Q 821.7 103 821.8 103.35 821.95 103.7 822.15 103.9 822.35 104.1 822.75 104.15 823.1 104.3 823.65 104.3
L 825.1 104.3
Q 826 104.3 826.5 103.85 826.95 103.4 826.95 102.5
L 826.95 101
Q 826.95 100.5 826.85 100.15 826.7 99.85 826.45 99.6
M 870.5 78.3
L 870.5 77.9
Q 870.5 77.6 870.45 77.25 870.4 77 870.25 76.7 870.1 76.45 869.85 76.3 869.65 76.15 869.4 76.15 867.55 76.15 865.7 76.15 863.9 76.15 862.15 76.15 860.3 76.15 858.5 76.15 856.75 76.2 855 76.2 854.45 76.25 854.15 76.4 853.8 76.55 853.65 76.9 853.45 77.2 853.4 77.55 853.3 77.9 853.3 78.3 853.3 78.75 853.4 79.1 853.45 79.45 853.65 79.75 853.8 80.05 854.15 80.2 854.5 80.35 855 80.35
L 865.3 80.35
Q 864.85 81 864.35 81.8 863.85 82.6 863.35 83.55 862.8 84.45 862.25 85.5 861.65 86.5 861.05 87.6 860.5 88.7 860.05 89.8 859.55 90.9 859.1 92 858.15 94.35 857.8 96.35 857.7 96.85 857.6 97.35 857.45 97.8 857.35 98.25 857.2 98.65 857.1 99.05 857.05 99.45 857 99.75 857 100.2 857.2 100.5 857.4 100.8 857.7 101 858.05 101.2 858.4 101.3 858.85 101.35 859.35 101.35 859.85 101.35 860.2 101.25 860.6 101.15 860.85 100.95 861.05 100.75 861.2 100.5 861.35 100.2 861.5 99.75 861.65 99.4 861.75 98.95 861.85 98.5 861.95 97.9 862 97.35 862.1 96.75 862.2 96.15 862.35 95.45 862.5 94.65 862.75 93.85 862.95 93.05 863.3 92.2 863.55 91.3 863.9 90.5 864.25 89.65 864.65 88.9 864.95 88.1 865.3 87.35 865.6 86.6 866 85.9 866.3 85.25 866.55 84.7 866.85 84.15 867.1 83.7 867.45 83.15 867.8 82.75 868.2 82.3 868.5 81.9 868.8 81.6 869.05 81.25 869.3 80.95 869.55 80.6 869.7 80.4 869.85 80.15 870.05 79.85 870.2 79.55 870.5 79.05 870.5 78.3
M 847.4 77.7
Q 846.8 77.2 846.15 76.75 845.5 76.35 844.8 76 844.1 75.7 843.3 75.55 842.55 75.35 841.7 75.35
L 841.65 75.35
Q 840.8 75.35 840.05 75.5 839.3 75.7 838.65 76 837.9 76.35 837.3 76.8 836.65 77.2 836.15 77.75 835.2 78.8 834.65 80.05 834.4 80.7 834.25 81.35 834.1 81.95 834.1 82.6 834.1 82.95 834.25 83.25 834.4 83.55 834.65 83.75 834.95 83.95 835.25 84.1 835.5 84.2 835.85 84.2 836.3 84.2 836.7 84 837.15 83.85 837.5 83.55 837.8 83.2 838 82.8 838.15 82.4 838.15 81.9 838.15 81.75 838.25 81.55 838.3 81.3 838.5 81.05 838.6 80.8 838.75 80.55 838.95 80.35 839.15 80.15 839.45 79.95 839.75 79.8 840.05 79.6 840.4 79.45 840.75 79.35 841.05 79.3 841.35 79.2 841.7 79.2 842.2 79.2 842.6 79.3 843.05 79.4 843.4 79.55 843.75 79.7 844.05 79.95 844.35 80.15 844.6 80.4 844.8 80.65 844.95 81 845.15 81.3 845.3 81.6 845.45 81.95 845.55 82.25 845.6 82.6 845.6 82.9 845.6 83.2 845.55 83.5 845.5 83.8 845.35 84.15 845.2 84.45 845 84.75 844.85 85.05 844.7 85.35 844.5 85.7 844.35 85.95 844.15 86.25 843.85 86.45 843.6 86.7 843.35 86.9 843.1 87.1 842.95 87.2 842.5 87.55 842.05 87.9 841.55 88.25 841.1 88.6 840.65 88.95 840.2 89.3 839.75 89.65 839.3 89.95 838.65 90.5 838.15 90.95 837.6 91.4 837.1 91.8 836.65 92.25 836.3 92.7 835.95 93.15 835.7 93.6 835.3 94 835.05 94.5 834.85 94.95 834.65 95.4 834.5 95.95 834.4 96.55 834.25 97.1 834.2 97.75 834.2 97.8 834.2 97.9 834.15 98 834.15 98.1 834.1 98.2 834.1 98.35 834.05 98.45 834.1 98.5
L 834.1 98.65
Q 834.05 98.75 834.05 98.9 834.05 99 834.05 99.1 834.05 99.65 834.2 100 834.35 100.35 834.75 100.55 835.05 100.8 835.45 100.9 835.85 101.05 836.3 101.05
L 847.9 101.05
Q 850 101.05 850 99.15 850 98.65 849.85 98.3 849.7 97.95 849.45 97.75 849.15 97.6 848.7 97.5 848.25 97.4 847.7 97.4
L 838.7 97.4
Q 838.7 96.9 838.85 96.35 839 95.85 839.35 95.35 839.65 94.9 840.1 94.45 840.5 94 841 93.6 841.45 93.25 841.9 92.9 842.4 92.5 842.95 92.2 843.45 91.85 843.9 91.55 844.35 91.25 844.65 91 845.15 90.65 845.65 90.3 846.15 89.9 846.6 89.5 847 89.05 847.4 88.6 847.75 88.15 848.05 87.65 848.4 87.2 848.7 86.65 848.95 86.15 849.1 85.55 849.25 84.95 849.35 84.25 849.45 83.6 849.45 82.85 849.45 82.15 849.3 81.5 849.15 80.8 848.9 80.15 848.65 79.45 848.25 78.85 847.85 78.25 847.4 77.7
M 813.1 78.95
Q 812.5 78.1 811.85 77.45 811.15 76.75 810.35 76.25 809.55 75.75 808.65 75.5 807.75 75.2 806.75 75.2 805.65 75.25 804.7 75.5 803.75 75.75 802.95 76.2 802.15 76.7 801.45 77.35 800.75 78.05 800.2 78.85 799.65 79.7 799.3 80.75 798.9 81.8 798.6 83 798.3 84.2 798.2 85.55 798.05 86.9 798.05 88.35 798.05 89.75 798.15 91.1 798.3 92.4 798.55 93.6 798.8 94.75 799.15 95.8 799.6 96.9 800.15 97.75 800.75 98.65 801.45 99.3 802.15 100 802.9 100.45 803.7 100.95 804.65 101.2 805.6 101.45 806.75 101.45 807.75 101.45 808.65 101.2 809.55 100.95 810.4 100.45 811.2 100 811.9 99.3 812.6 98.65 813.15 97.75 813.75 96.9 814.2 95.8 814.65 94.75 814.95 93.6 815.2 92.4 815.35 91.1 815.5 89.75 815.5 88.35 815.5 86.95 815.35 85.65 815.2 84.3 814.95 83.1 814.6 81.9 814.15 80.85 813.7 79.85 813.1 78.95
M 810.1 81.9
Q 810.3 82.55 810.5 83.25 810.7 83.95 810.9 84.8 811.05 85.65 811.15 86.5 811.25 87.4 811.25 88.35 811.25 89.3 811.15 90.2 811.1 91.1 810.95 91.9 810.55 93.6 810.1 94.8 809.85 95.45 809.45 95.95 809.1 96.45 808.65 96.8 808.2 97.2 807.7 97.35 807.25 97.55 806.75 97.55 806.15 97.55 805.65 97.35 805.15 97.2 804.75 96.8 803.9 96.05 803.3 94.8 803 94.15 802.85 93.4 802.65 92.65 802.55 91.8 802.4 91 802.3 90.15 802.25 89.25 802.25 88.35 802.25 87.4 802.3 86.5 802.4 85.6 802.55 84.75 802.65 83.95 802.85 83.2 803.05 82.45 803.3 81.85 803.6 81.25 804 80.75 804.4 80.3 804.8 79.9 805.2 79.6 805.7 79.45 806.2 79.25 806.75 79.25 807.2 79.25 807.7 79.45 808.15 79.6 808.65 79.95 809.05 80.3 809.45 80.8 809.8 81.3 810.1 81.9
M 950.35 78.95
Q 949.75 78.1 949.1 77.45 948.4 76.75 947.6 76.25 946.8 75.75 945.9 75.5 945 75.2 944 75.2 942.9 75.25 941.95 75.5 941 75.75 940.2 76.2 939.4 76.7 938.7 77.35 938 78.05 937.45 78.85 936.9 79.7 936.55 80.75 936.15 81.8 935.85 83 935.55 84.2 935.45 85.55 935.3 86.9 935.3 88.35 935.3 89.75 935.4 91.1 935.55 92.4 935.8 93.6 936.05 94.75 936.4 95.8 936.85 96.9 937.4 97.75 938 98.65 938.7 99.3 939.4 100 940.15 100.45 940.95 100.95 941.9 101.2 942.85 101.45 944 101.45 945 101.45 945.9 101.2 946.8 100.95 947.65 100.45 948.45 100 949.15 99.3 949.85 98.65 950.4 97.75 951 96.9 951.45 95.8 951.9 94.75 952.2 93.6 952.45 92.4 952.6 91.1 952.75 89.75 952.75 88.35 952.75 86.95 952.6 85.65 952.45 84.3 952.2 83.1 951.85 81.9 951.4 80.85 950.95 79.85 950.35 78.95
M 942.05 79.9
Q 942.45 79.6 942.95 79.45 943.45 79.25 944 79.25 944.45 79.25 944.95 79.45 945.4 79.6 945.9 79.95 946.3 80.3 946.7 80.8 947.05 81.3 947.35 81.9 947.55 82.55 947.75 83.25 947.95 83.95 948.15 84.8 948.3 85.65 948.4 86.5 948.5 87.4 948.5 88.35 948.5 89.3 948.4 90.2 948.35 91.1 948.2 91.9 947.8 93.6 947.35 94.8 947.1 95.45 946.7 95.95 946.35 96.45 945.9 96.8 945.45 97.2 944.95 97.35 944.5 97.55 944 97.55 943.4 97.55 942.9 97.35 942.4 97.2 942 96.8 941.15 96.05 940.55 94.8 940.25 94.15 940.1 93.4 939.9 92.65 939.8 91.8 939.65 91 939.55 90.15 939.5 89.25 939.5 88.35 939.5 87.4 939.55 86.5 939.65 85.6 939.8 84.75 939.9 83.95 940.1 83.2 940.3 82.45 940.55 81.85 940.85 81.25 941.25 80.75 941.65 80.3 942.05 79.9
M 927.45 77.25
Q 927.45 76.6 926.8 76.1 926.5 75.85 926.2 75.75 925.9 75.6 925.65 75.6 925.2 75.6 924.9 75.7 924.55 75.8 924.45 76.05 924.25 76.25 924.15 76.5 924.05 76.8 923.95 77.05 923.8 77.35 923.7 77.65 923.6 77.95 923.5 78.3 923.4 78.6 923.3 78.85 923.15 79.1 923 79.25 922.75 79.45 922.45 79.6 922.1 79.75 921.8 79.8 921.4 79.85 921.05 79.9 920.65 79.9 920.3 79.9 919.85 79.95 919.5 80.1 919.2 80.25 919 80.5 918.7 80.8 918.6 81.1 918.5 81.45 918.5 81.8 918.5 82.2 918.6 82.5 918.7 82.8 918.9 83.1 919.1 83.45 919.4 83.6 919.7 83.75 920.15 83.75
L 923.3 83.75
Q 923.3 85.7 923.3 87.6 923.3 89.55 923.3 91.45 923.3 95.3 923.3 99.2 923.3 99.6 923.5 99.85 923.65 100.15 924 100.4 924.3 100.65 924.7 100.8 925.05 100.95 925.5 100.95 925.6 100.95 925.8 100.9 925.95 100.85 926.1 100.75 926.2 100.7 926.4 100.65 926.55 100.55 926.7 100.45 926.9 100.35 927.05 100.15 927.2 100 927.3 99.85 927.4 99.7 927.45 99.55 927.5 99.4 927.5 99.2
L 927.5 97.75
Q 927.5 95.1 927.5 92.55 927.5 89.95 927.5 87.45 927.45 84.95 927.45 82.4 927.45 79.85 927.45 77.25
M 894.6 95.55
Q 894.75 95.2 894.75 94.8
L 894.8 94.85
Q 894.75 94.5 894.55 94.2 894.4 93.85 894.15 93.6 893.85 93.3 893.5 93.25 893.15 93.2 892.7 93.3 891.75 93.4 890.85 93.5 890 93.6 889.15 93.7 888.3 93.8 887.45 93.85 886.6 93.9 885.75 93.95 884.8 94.05 883.9 94.1 883 94.1 882.15 94.1 881.3 94.2 880.35 94.2 879.45 94.2 878.5 94.2
L 874.85 94.2
Q 874.45 94.25 874.2 94.4 873.95 94.55 873.8 94.8 873.5 95.3 873.5 96.15 873.5 96.8 873.8 97.3 873.95 97.6 874.2 97.75 874.45 97.9 874.85 97.95
L 878.1 97.95
Q 879.2 97.95 880.2 97.95 881.2 97.9 882.1 97.85 883 97.85 883.95 97.85 884.9 97.8 885.8 97.75 887.55 97.65 889.3 97.4 890.1 97.35 891 97.25 891.85 97.1 892.8 96.95 893.3 96.9 893.65 96.7 894.05 96.5 894.3 96.15 894.5 95.85 894.6 95.55
M 891.6 84.8
Q 891.75 84 891.75 83.15 891.75 82.25 891.6 81.45 891.45 80.65 891.2 79.95 890.9 79.25 890.5 78.7 890.1 78.1 889.5 77.6 889.05 77.1 888.45 76.75 887.85 76.35 887.15 76.1 885.7 75.6 883.8 75.6 882 75.6 880.6 76.1 879.2 76.55 878.15 77.6 877.1 78.55 876.55 79.95 876 81.35 876 83.15 876 84.9 876.55 86.25 877.1 87.65 878.15 88.6 879.2 89.6 880.6 90.1 882 90.6 883.8 90.6 885.7 90.6 887.15 90.05 887.85 89.85 888.45 89.45 889.05 89.1 889.5 88.6 890.1 88.15 890.5 87.55 890.9 86.95 891.2 86.25 891.45 85.6 891.6 84.8
M 882.15 79.3
Q 882.9 79 883.85 79 884.75 79 885.5 79.3 886.25 79.55 886.75 80.1 887.25 80.65 887.5 81.4 887.8 82.15 887.8 83.15 887.8 84.1 887.5 84.85 887.25 85.55 886.75 86.05 886.25 86.6 885.5 86.9 884.75 87.15 883.85 87.15 882.9 87.15 882.15 86.9 881.45 86.6 880.95 86.05 880.45 85.55 880.2 84.85 879.95 84.1 879.95 83.15 879.95 82.15 880.2 81.4 880.45 80.65 880.95 80.1 881.45 79.55 882.15 79.3
M 898.35 73.15
Q 898 73.15 897.7 73.2 897.35 73.25 897.1 73.4 896.8 73.5 896.65 73.8 896.55 74.15 896.55 74.6
L 896.55 104.3
Q 896.55 104.75 896.65 105.1 896.8 105.45 897.15 105.65 897.4 105.8 897.7 105.9 898 106 898.4 106 898.85 106 899.2 105.9 899.55 105.8 899.9 105.65 900.2 105.45 900.3 105.1 900.5 104.75 900.5 104.3
L 900.5 74.6
Q 900.5 74.35 900.45 74.2 900.4 74 900.25 73.85 900.15 73.7 900 73.6 899.9 73.5 899.75 73.4 899.6 73.35 899.45 73.25 899.3 73.2 899.15 73.15 899 73.15 898.8 73.15 898.6 73.15 898.35 73.15
M 974.1 80.85
Q 973.65 79.85 973.05 78.95 972.45 78.1 971.8 77.45 971.1 76.75 970.3 76.25 969.5 75.75 968.6 75.5 967.7 75.2 966.7 75.2 965.6 75.25 964.65 75.5 963.7 75.75 962.9 76.2 962.1 76.7 961.4 77.35 960.7 78.05 960.15 78.85 959.6 79.7 959.25 80.75 958.85 81.8 958.55 83 958.25 84.2 958.15 85.55 958 86.9 958 88.35 958 89.75 958.1 91.1 958.25 92.4 958.5 93.6 958.75 94.75 959.1 95.8 959.55 96.9 960.1 97.75 960.7 98.65 961.4 99.3 962.1 100 962.85 100.45 963.65 100.95 964.6 101.2 965.55 101.45 966.7 101.45 967.7 101.45 968.6 101.2 969.5 100.95 970.35 100.45 971.15 100 971.85 99.3 972.55 98.65 973.1 97.75 973.7 96.9 974.15 95.8 974.6 94.75 974.9 93.6 975.15 92.4 975.3 91.1 975.45 89.75 975.45 88.35 975.45 86.95 975.3 85.65 975.15 84.3 974.9 83.1 974.55 81.9 974.1 80.85
M 967.65 79.45
Q 968.1 79.6 968.6 79.95 969 80.3 969.4 80.8 969.75 81.3 970.05 81.9 970.25 82.55 970.45 83.25 970.65 83.95 970.85 84.8 971 85.65 971.1 86.5 971.2 87.4 971.2 88.35 971.2 89.3 971.1 90.2 971.05 91.1 970.9 91.9 970.5 93.6 970.05 94.8 969.8 95.45 969.4 95.95 969.05 96.45 968.6 96.8 968.15 97.2 967.65 97.35 967.2 97.55 966.7 97.55 966.1 97.55 965.6 97.35 965.1 97.2 964.7 96.8 963.85 96.05 963.25 94.8 962.95 94.15 962.8 93.4 962.6 92.65 962.5 91.8 962.35 91 962.25 90.15 962.2 89.25 962.2 88.35 962.2 87.4 962.25 86.5 962.35 85.6 962.5 84.75 962.6 83.95 962.8 83.2 963 82.45 963.25 81.85 963.55 81.25 963.95 80.75 964.35 80.3 964.75 79.9 965.15 79.6 965.65 79.45 966.15 79.25 966.7 79.25 967.15 79.25 967.65 79.45
M 990.8 75.95
Q 990.15 76.35 990.15 77.2
L 990.15 82.8 985.45 82.8 985.45 77.2
Q 985.45 76.8 985.25 76.45 985.1 76.15 984.75 75.95 984.4 75.8 984.15 75.7 983.85 75.6 983.55 75.6 983.15 75.6 982.8 75.7 982.45 75.8 982.15 75.95 981.5 76.35 981.5 77.2
L 981.5 92.4
Q 981.5 94.35 982.5 95.3 983.5 96.25 985.5 96.25
L 991.15 96.25
Q 992.75 96.25 993.5 95.2 993.8 94.7 994 94 994.2 93.3 994.2 92.4
L 994.2 77.2
Q 994.2 76.8 994 76.45 993.8 76.15 993.5 75.95 993.1 75.8 992.8 75.7 992.45 75.6 992.2 75.6 991.75 75.6 991.4 75.7 991.05 75.8 990.8 75.95
M 985.45 86.55
L 990.1 86.55 990.1 90.7
Q 990.1 90.95 990.1 91.15 990.1 91.35 990.1 91.6 990.1 91.8 990.1 92 990.05 92.25 990.05 92.45 989.9 92.5 989.7 92.5 989.5 92.5 989.25 92.5 989 92.5 988.75 92.5 988.55 92.5 988.35 92.5
L 985.65 92.5
Q 985.55 92.2 985.5 91.75 985.45 91.25 985.45 90.7
L 985.45 86.55
M 1000.6 74.1
Q 1000.3 74 999.9 73.9 999.55 73.85 999.1 73.85 998.75 73.85 998.4 73.9 998.05 74 997.75 74.1 997.4 74.25 997.25 74.55 997.1 74.9 997.1 75.3
L 997.1 103.7
Q 997.1 104.15 997.25 104.45 997.4 104.75 997.75 104.9 998.05 105.05 998.4 105.1 998.75 105.2 999.1 105.2 999.55 105.2 999.9 105.1 1000.3 105.05 1000.6 104.9 1000.85 104.75 1001 104.45 1001.1 104.15 1001.1 103.7
L 1001.1 88.9 1003.8 88.9 1003.8 104.65
Q 1003.8 105.1 1003.95 105.4 1004.1 105.7 1004.35 105.85 1004.6 106 1005 106.05 1005.3 106.15 1005.8 106.15 1006.2 106.15 1006.55 106.05 1006.9 106 1007.15 105.85 1007.4 105.7 1007.6 105.4 1007.7 105.1 1007.75 104.65
L 1007.75 74.7
Q 1007.7 74.25 1007.6 73.95 1007.4 73.65 1007.15 73.5 1006.9 73.35 1006.55 73.25 1006.2 73.2 1005.8 73.2 1005.3 73.2 1005 73.25 1004.6 73.35 1004.35 73.5 1004.1 73.65 1003.95 73.95 1003.8 74.25 1003.8 74.7
L 1003.8 85.15 1001.1 85.15 1001.1 75.3
Q 1001.1 74.85 1001 74.55 1000.85 74.25 1000.6 74.1 Z"/>
</g>

<g id="Layer0_0_MEMBER_1_FILL">
<path fill="#FF6666" stroke="none" d="
M 163.6 148.3
L 163.6 148.35
Q 163.6 150.4 165.05 151.85 166.45 153.25 168.5 153.25
L 173.6 153.25 174.5 153.25 178.2 153.25 179.1 153.25 187.7 153.25 184 157
Q 182.75 158.25 182.75 160 182.75 161.8 184 163.05 185.2 164.25 187 164.25 188.8 164.25 190 163
L 201.9 151.15
Q 203.2 149.9 203.2 148.15 203.2 146.35 201.9 145.05 201.9 145 201.8 144.95
L 190.3 133.5
Q 189.05 132.3 187.25 132.3 185.5 132.3 184.25 133.5 183.05 134.85 183.05 136.55 183.05 138.35 184.25 139.55
L 188.1 143.45 179.1 143.45 178.2 143.45 174.5 143.45 173.6 143.45 168.5 143.45
Q 166.4 143.45 165.05 144.85 163.6 146.25 163.6 148.3
M 448.25 139.55
L 452.1 143.45 443.1 143.45 442.2 143.45 438.5 143.45 437.6 143.45 432.5 143.45
Q 430.4 143.45 429.05 144.85 427.6 146.25 427.6 148.3
L 427.6 148.35
Q 427.6 150.4 429.05 151.85 430.45 153.25 432.5 153.25
L 437.6 153.25 438.5 153.25 442.2 153.25 443.1 153.25 451.7 153.25 448 157
Q 446.75 158.25 446.75 160 446.75 161.8 448 163.05 449.2 164.25 451 164.25 452.8 164.25 454 163
L 465.9 151.15
Q 467.2 149.9 467.2 148.15 467.2 146.35 465.9 145.05 465.9 145 465.8 144.95
L 454.3 133.5
Q 453.05 132.3 451.25 132.3 449.5 132.3 448.25 133.5 447.05 134.85 447.05 136.55 447.05 138.35 448.25 139.55
M 363.25 72.3
Q 361.5 72.3 360.25 73.5 359.05 74.85 359.05 76.55 359.05 78.35 360.25 79.55
L 364.1 83.45 355.1 83.45 354.2 83.45 350.5 83.45 349.6 83.45 344.5 83.45
Q 342.4 83.45 341.05 84.85 339.6 86.25 339.6 88.3
L 339.6 88.35
Q 339.6 90.4 341.05 91.85 342.45 93.25 344.5 93.25
L 349.6 93.25 350.5 93.25 354.2 93.25 355.1 93.25 363.7 93.25 360 97
Q 358.75 98.25 358.75 100 358.75 101.8 360 103.05 361.2 104.25 363 104.25 364.8 104.25 366 103
L 377.9 91.15
Q 379.2 89.9 379.2 88.15 379.2 86.35 377.9 85.05 377.9 85 377.8 84.95
L 366.3 73.5
Q 365.05 72.3 363.25 72.3
M 687.25 72.3
Q 685.5 72.3 684.25 73.5 683.05 74.85 683.05 76.55 683.05 78.35 684.25 79.55
L 688.1 83.45 679.1 83.45 678.2 83.45 674.5 83.45 673.6 83.45 668.5 83.45
Q 666.4 83.45 665.05 84.85 663.6 86.25 663.6 88.3
L 663.6 88.35
Q 663.6 90.4 665.05 91.85 666.45 93.25 668.5 93.25
L 673.6 93.25 674.5 93.25 678.2 93.25 679.1 93.25 687.7 93.25 684 97
Q 682.75 98.25 682.75 100 682.75 101.8 684 103.05 685.2 104.25 687 104.25 688.8 104.25 690 103
L 701.9 91.15
Q 703.2 89.9 703.2 88.15 703.2 86.35 701.9 85.05 701.9 85 701.8 84.95
L 690.3 73.5
Q 689.05 72.3 687.25 72.3 Z"/>
</g>

<path id="Layer0_0_MEMBER_0_1_STROKES" stroke="#1E1E1E" stroke-width="3" stroke-linejoin="miter" stroke-linecap="butt" stroke-miterlimit="3" fill="none" d="
M 372.3 149.4
L 413.65 149.4"/>
</defs>

<g transform="matrix( 1, 0, 0, 1, -159.9,-67.8) ">
<use xlink:href="#Layer0_0_MEMBER_0_FILL"/>

<use xlink:href="#Layer0_0_MEMBER_0_1_STROKES"/>
</g>

<g transform="matrix( 1, 0, 0, 1, -159.9,-67.8) ">
<use xlink:href="#Layer0_0_MEMBER_1_FILL"/>
</g>
</svg>
