<?xml version="1.0" encoding="utf-8"?>
<!-- Generator: Adobe Illustrator 23.0.0, SVG Export Plug-In . SVG Version: 6.00 Build 0)  -->
<svg version="1.1" id="레이어_1" xmlns="http://www.w3.org/2000/svg" xmlns:xlink="http://www.w3.org/1999/xlink" x="0px"
	 y="0px" width="352.3px" height="136.1px" viewBox="0 0 352.3 136.1" style="enable-background:new 0 0 352.3 136.1;"
	 xml:space="preserve">
<title>3_4_8_02</title>
<g>
	<g id="배운내용-1">
		<g>
			<path style="fill:#FFFFFF;" d="M101.9,8.4l15.7-0.8c26.9-1.1,53.9-0.9,80.9-0.4l8.8,0.2c23.3,0.6,46.4,2,69,5.4
				c26.4,4.1,59.3,12.4,70.5,36.3c18.1,38.9-17.7,65.6-56,75.2c-34.9,8.8-72.2,10.8-108.4,11.1c-8.7,0.1-17.4,0-26.1-0.3
				c-122.4-0.3-155-24.3-155.6-69C0.4,48.5,11.8,31.2,36.6,20.8c11.8-4.9,25-7.9,38.7-9.9C93.6,8.6,101.9,8.4,101.9,8.4"/>
			<g>
				<path style="fill:#111111;" d="M122.4,52.9H121c-0.1,1.7-0.9,3.3-2.2,4.5c-1.4,1.1-3.1,1.6-4.8,1.6c-1.9,0.2-3.9-0.4-5.3-1.8
					c-1.3-1.6-2-3.6-1.9-5.7c0-1,0.2-2,0.5-2.9c0.3-0.9,0.7-1.7,1.3-2.4c0.6-0.7,1.4-1.3,2.3-1.7c1-0.5,2-0.7,3.1-0.7
					c1-0.1,1.9,0.1,2.8,0.4c0.8,0.3,1.5,0.7,2.1,1.3c0.6,0.5,1.1,1.2,1.4,2c0.4,0.9,0.7,1.8,0.8,2.7h2.5v-7c0-0.3,0.2-0.7,0.4-0.9
					c0.3-0.2,0.8-0.4,1.2-0.3c0.4,0,0.8,0.1,1.1,0.3c0.3,0.1,0.4,0.4,0.4,0.8v10c-0.1,1.6-0.1,3.2-0.1,4.9s-0.1,3.4-0.2,5.2
					c0.1,0.4-0.1,0.8-0.4,1.1c-0.3,0.2-0.6,0.3-1,0.3c-0.9,0-1.3-0.5-1.3-1.4s-0.1-3.5-0.1-5.2v-5.2L122.4,52.9z M115.7,55.9
					c0.5-0.3,1-0.6,1.4-1.1c0.3-0.5,0.6-1,0.8-1.5c0.1-0.6,0.2-1.3,0.2-1.9c0.1-1.3-0.3-2.6-1.1-3.6c-0.7-0.9-1.8-1.4-3-1.3
					c-0.7,0-1.3,0.2-1.9,0.5c-0.5,0.3-0.9,0.6-1.2,1.1c-0.4,0.4-0.7,0.9-0.8,1.5c-0.1,0.6-0.2,1.3-0.2,1.9c-0.1,1.3,0.2,2.5,0.9,3.6
					c0.8,0.8,1.9,1.3,3.1,1.2C114.5,56.3,115.1,56.2,115.7,55.9z M131.4,63.8c0.1,0.6-0.3,1.2-0.9,1.2c-0.2,0-0.3,0-0.5,0
					c-0.8,0-1.2-0.5-1.2-1.4v-5.4c0-1.7,0.1-3.4,0.1-5.1s0.1-3.3,0.1-5s0.1-3.5,0.2-5.3c0-0.3,0.1-0.7,0.3-0.9l1.2-0.2
					c0.4,0,0.8,0.1,1.2,0.3c0.2,0.2,0.3,0.5,0.3,0.8v5.4c-0.1,1.7-0.1,3.4-0.2,5s-0.1,3.4-0.2,5.1S131.6,61.8,131.4,63.8L131.4,63.8
					z"/>
				<path style="fill:#111111;" d="M143.6,50.4v2.1l3.3,2.8l3,2.4c0.2,0.2,0.4,0.5,0.5,0.8c0.1,0.3,0,0.7-0.3,0.9
					c-0.2,0.3-0.4,0.6-0.7,0.8c-0.3,0.2-0.5,0.1-0.9-0.1l-1.4-1l-1.7-1.2l-1.7-1.4c-0.5-0.4-1-0.9-1.5-1.4l-3.3,3.7
					c-0.8,0.9-1.6,1.8-2.5,2.6c-0.3,0.2-0.7,0.3-1,0.2c-0.4,0-0.8-0.2-1-0.6c-0.2-0.2-0.3-0.5-0.2-0.8c0.1-0.3,0.2-0.6,0.4-0.8
					l1.3-1.5c0.5-0.6,1.1-1.1,1.6-1.8l1.5-1.7l1.3-1.6c0-0.6-0.1-1.3-0.1-2.1c0-0.8,0-1.7-0.1-2.5c0-0.9,0-1.7-0.1-2.6v-2.2
					c-0.1-0.4,0-0.8,0.3-1.1c0.4-0.2,0.8-0.4,1.3-0.4l1.5,0.2c0.2,0.3,0.3,0.7,0.3,1.1c0,0.7,0.1,1.5,0.1,2.3v2.4
					C143.6,48.7,143.6,49.6,143.6,50.4z M152.1,48.9h1.7V46c0.1-0.9,0.1-1.8,0.1-2.7c0-0.4,0.2-0.8,0.4-1.2c0.4-0.2,0.8-0.3,1.3-0.3
					c1.1,0,1.6,0.5,1.6,1.5s-0.1,3.4-0.1,5.1s-0.1,3.5-0.2,5.2s-0.1,3.5-0.2,5.1s-0.2,3.3-0.3,4.8c0,0.5-0.1,0.9-0.5,1.2
					c-0.3,0.2-0.6,0.4-1,0.3c-0.4,0-0.8-0.2-1-0.5c-0.3-0.4-0.4-0.9-0.3-1.4v-5.7c0-2,0.1-3.9,0.1-5.8h-5.3c-0.3,0-0.7-0.1-0.9-0.3
					c-0.1-0.3-0.2-0.7-0.2-1c0-0.9,0.3-1.4,1-1.4H152.1L152.1,48.9z"/>
				<path style="fill:#111111;" d="M171.9,53.5h3.6v-4.6c0-0.4,0.2-0.8,0.4-1.1c0.8-0.5,1.7-0.5,2.5,0c0.3,0.3,0.4,0.8,0.4,1.2v4.3
					l5-0.2h4.5c0.3,0,0.6,0.1,0.8,0.3c0.2,0.2,0.2,0.5,0.2,0.9c0,0.4-0.1,0.7-0.3,1c-0.2,0.2-0.5,0.3-0.8,0.3l-4.6,0.3l-5.1,0.2h-10
					c-0.8,0.1-1.1-0.4-1.1-1.3c-0.1-0.3,0-0.7,0.2-1c0.2-0.2,0.6-0.3,0.9-0.3L171.9,53.5z M187.1,50.8c0,0.4-0.2,0.8-0.5,1
					c-0.3,0.2-0.7,0.3-1.1,0.2c-0.8,0-1.3-0.4-1.3-1.2v-1.4c0.1-0.6,0.1-1.2,0.1-1.8c0-0.6,0-1.3,0.1-1.9v-1.6h-14.8
					c-0.7,0-1.1-0.4-1.1-1.3c0-0.3,0.1-0.7,0.3-0.9c0.2-0.2,0.5-0.3,0.8-0.3h17c0.4,0,0.7,0.1,0.8,0.3s0.2,0.5,0.2,0.9v1.9
					c-0.1,0.8-0.1,1.5-0.2,2.2s-0.1,1.5-0.1,2.2S187.2,50.2,187.1,50.8L187.1,50.8z M181.3,60.2h2.5v-1.4c-0.1-0.4,0.1-0.8,0.4-1
					c0.3-0.2,0.8-0.4,1.2-0.3c0.4,0,0.8,0.1,1.1,0.3c0.2,0.2,0.4,0.5,0.4,0.8c0,0.6-0.1,1.2-0.1,1.9c0,0.7,0,1.3-0.1,2
					c0,0.7,0,1.3-0.1,2v1.9c-0.1,0.3-0.2,0.6-0.4,0.9l-1,0.3h-12.9c-0.6,0-1.2-0.1-1.7-0.5c-0.5-0.5-0.7-1.1-0.7-1.8
					c0-0.4,0-0.9-0.1-1.3c0-0.5,0-1.1-0.1-1.6c0-0.6,0-1.1-0.1-1.7v-1.5c0-0.4,0.1-0.7,0.3-1c0.4-0.2,0.8-0.4,1.2-0.4
					c0.6,0,1.1,0.1,1.2,0.3c0.2,0.2,0.3,0.6,0.3,0.9c0.1,0.3,0.1,0.5,0.1,0.8v0.7h2.6l3-0.2L181.3,60.2z M172.8,64.2
					c0.1,0.3,0.1,0.7,0.1,1h10.7c0.1-0.1,0.1-0.3,0.1-0.5v-1c0-0.3,0-0.5,0.1-0.8h-5.6l-3,0.2h-2.4L172.8,64.2z"/>
				<path style="fill:#111111;" d="M193.8,44.4h3.6c-0.1-0.6-0.1-1.1-0.1-1.7v-1.3c-0.1-0.4,0-0.8,0.2-1.1c0.4-0.3,0.8-0.4,1.3-0.4
					c0.7,0,1.2,0,1.4,0.2c0.2,0.3,0.4,0.7,0.4,1.1v2.9h5.6c0.3,0,0.7,0.1,0.9,0.3c0.2,0.3,0.3,0.6,0.3,1c0.1,0.7-0.3,1.3-1,1.4
					c-0.1,0-0.1,0-0.2,0h-7.4l-2.9,0.2h-4.5c-0.3,0-0.6-0.1-0.8-0.3c-0.2-0.3-0.3-0.6-0.4-1c0-0.4,0.1-0.8,0.3-1.1
					c0.2-0.2,0.4-0.4,0.7-0.4L193.8,44.4z M205.9,58c-0.3,0.9-0.8,1.6-1.5,2.2c-0.7,0.6-1.4,1.1-2.3,1.5c-1,0.3-2,0.5-3.1,0.6
					c-1,0-2.1-0.1-3.1-0.4c-0.8-0.3-1.6-0.7-2.3-1.3c-0.6-0.6-1.1-1.3-1.4-2.1c-0.3-0.9-0.5-1.8-0.5-2.7c0-0.9,0.2-1.8,0.5-2.6
					c0.3-0.8,0.7-1.6,1.3-2.2c0.7-0.6,1.4-1.1,2.2-1.5c1-0.4,2.1-0.6,3.2-0.7c1,0,2,0.1,3,0.4c0.9,0.2,1.7,0.7,2.3,1.3
					c0.7,0.5,1.2,1.3,1.5,2.1c0.4,0.8,0.6,1.8,0.6,2.7C206.3,56.2,206.2,57.1,205.9,58z M200.7,59.5c0.5-0.2,1-0.5,1.4-0.9
					c0.4-0.4,0.7-0.9,0.9-1.5c0.2-0.6,0.3-1.2,0.3-1.8c-0.1-0.6-0.2-1.2-0.4-1.8c-0.2-0.5-0.5-0.9-0.9-1.3l-1.4-0.8l-1.7-0.2
					l-1.7,0.4c-0.5,0.2-0.9,0.6-1.3,1c-0.4,0.4-0.7,0.9-0.8,1.4c-0.2,0.5-0.3,1.1-0.3,1.7c-0.1,1.2,0.4,2.3,1.2,3.1
					c0.8,0.8,1.8,1.2,2.9,1.1C199.5,59.9,200.1,59.7,200.7,59.5z M212.5,47.2c0,1.3,0,2.7-0.1,4h2.7c0.3,0,0.7,0.1,0.9,0.3
					c0.3,0.6,0.3,1.4,0,2c-0.1,0.2-0.4,0.4-0.7,0.4h-3c-0.1,1.7-0.1,3.3-0.2,4.9s-0.2,3.2-0.3,4.6c-0.1,1.4-0.2,1-0.5,1.2
					c-0.3,0.2-0.6,0.4-1,0.3c-0.4,0-0.8-0.2-1-0.5c-0.3-0.4-0.4-0.9-0.3-1.4c0-6.6,0.1-13.3,0.3-19.8c0-0.4,0.1-0.9,0.4-1.2
					c0.4-0.2,0.8-0.3,1.3-0.3c0.8-0.1,1.5,0.4,1.6,1.2c0,0.1,0,0.2,0,0.3C212.5,44.6,212.5,45.9,212.5,47.2z"/>
				<path style="fill:#111111;" d="M222.4,58.1h-4.8c-0.8,0.1-1.2-0.4-1.2-1.3c0-0.3,0.1-0.7,0.3-0.9c0.2-0.3,0.6-0.4,0.9-0.4l5-0.2
					h5.2l5.1-0.2h4.5c0.3,0,0.6,0.1,0.8,0.3c0.1,0.3,0.2,0.6,0.2,0.9c0,0.4-0.1,0.7-0.3,1c-0.2,0.2-0.5,0.3-0.8,0.3l-4.6,0.3
					l-5.1,0.2L222.4,58.1z M218.7,41.8h0.9c0.4-0.1,0.9,0,1.3,0.2c0.2,0.3,0.4,0.6,0.4,1v1.8c0,0.7,0,1.3,0.1,2v3.1
					c0,0.2,0.1,0.3,0.3,0.3l0,0h4.3l2.6-0.2h7c0.3,0,0.6,0,0.8,0.2c0.2,0.1,0.3,0.5,0.3,1c0.1,0.3,0,0.7-0.2,0.9l-0.7,0.4l-1.9,0.2
					l-2.5,0.2h-3l-2.9,0.2h-4.9c-0.6,0-1.1-0.2-1.6-0.5c-0.4-0.4-0.7-0.9-0.7-1.5c-0.1-1.1-0.1-2.4-0.2-3.7s-0.1-2.6-0.1-4.1v-0.6
					c0-0.1,0.1-0.3,0.2-0.4L218.7,41.8z M235.9,65.9c0,0.3-0.1,0.7-0.3,0.9c-0.2,0.2-0.5,0.3-0.8,0.3l-3.2,0.2l-3.6,0.2h-6.7
					c-0.5,0.1-0.9-0.1-1.2-0.5c-0.3-0.3-0.5-0.8-0.5-1.2c0-0.9-0.1-1.8-0.1-2.7c-0.1-0.7-0.1-1.4-0.1-2.1c0-0.4,0.1-0.8,0.3-0.9
					c0.4-0.2,0.8-0.3,1.2-0.3c0.4-0.1,0.9,0,1.3,0.2c0.3,0.1,0.5,0.4,0.5,0.9v3.6c0,0.2,0.1,0.4,0.3,0.4h11.8c0.3,0,0.7,0.1,0.9,0.3
					C235.8,65.4,235.9,65.7,235.9,65.9z"/>
				<path style="fill:#111111;" d="M257.9,42.6v4.8l2.3,1.1l2.6,1.3l2.6,1.2l2,1c0.3,0,0.5,0.3,0.5,0.6c0.1,0.4,0,0.8-0.2,1.1
					c-0.2,0.3-0.5,0.6-0.9,0.8c-0.3,0-0.7,0-1-0.2l-2-0.8l-2.5-1.2l-2.7-1.2l-2.1-1.1l-1.8,1.5l-2,1.5l-2,1.4l-1.7,1.2
					c-0.6,0.4-1.4,0.3-1.9-0.3c-0.3-0.2-0.4-0.6-0.4-0.9c0-0.3,0.1-0.6,0.4-0.8l1.8-1.4l2-1.5l2-1.7l1.7-1.5c0-0.7-0.1-1.6-0.1-2.4
					c0-0.8,0-1.5-0.1-2.3c0-0.4,0.1-0.8,0.3-1.1c0.4-0.2,0.8-0.4,1.3-0.4c0.5,0,1,0,1.5,0.2C257.8,41.8,257.9,42.2,257.9,42.6z
					 M266.7,59.6l-7.8,0.5v3c0,0.9,0,1.9-0.1,2.8c0,0.5-0.1,0.9-0.5,1.2c-0.3,0.2-0.7,0.3-1.1,0.3c-0.4,0-0.7-0.1-1-0.4
					c-0.2-0.3-0.4-0.8-0.3-1.2c-0.1-0.9-0.1-1.7-0.1-2.6v-2.9h-7c-0.8,0-1.1-0.5-1.1-1.4c0-0.3,0.1-0.7,0.2-1
					c0.2-0.2,0.6-0.3,0.9-0.3l9.3-0.4l8.6-0.4c0.3,0,0.7,0.1,0.9,0.3c0.1,0.3,0.2,0.6,0.2,0.9c0,0.4-0.1,0.7-0.3,1
					C267.3,59.3,267,59.5,266.7,59.6L266.7,59.6z"/>
				<path style="fill:#111111;" d="M279.9,52.3c0.3-0.3,0.6-0.6,1-0.8l1.3-0.6l1.4-0.4h1.6c0.8,0,1.6,0.2,2.4,0.5
					c0.7,0.3,1.4,0.8,1.9,1.4c0.6,0.6,1,1.4,1.3,2.2c0.3,0.9,0.4,1.9,0.4,2.9c0,1-0.2,1.9-0.6,2.8c-0.4,0.8-0.9,1.6-1.5,2.2
					c-0.6,0.6-1.4,1.1-2.2,1.4c-0.9,0.4-1.9,0.5-2.9,0.5c-0.7,0-1.5,0-2.2-0.2l-2-0.7c-0.6-0.3-1.1-0.7-1.5-1.1
					c-0.4-0.3-0.8-0.8-1-1.3c-0.2-0.4-0.3-0.9-0.2-1.4c0.1-0.4,0.4-0.8,0.8-1c0.4-0.2,0.7-0.3,0.9-0.2s0.6,0.3,0.8,0.7
					c0.1,0.3,0.3,0.6,0.6,0.9l1.1,0.8c0.4,0.3,0.8,0.5,1.3,0.6c0.5,0.2,1.1,0.2,1.6,0.2c0.6,0,1.2-0.1,1.7-0.4
					c0.5-0.2,0.9-0.6,1.3-1c0.3-0.4,0.6-1,0.7-1.5c0.2-0.6,0.3-1.2,0.3-1.8c0-1-0.3-2-1-2.8c-0.7-0.8-1.7-1.2-2.7-1.1
					c-0.6,0-1.2,0.1-1.8,0.3l-1.4,0.5l-1,0.6l-0.4,0.3l-1,0.5H278l-0.7-0.4c-0.2-0.2-0.3-0.6-0.3-0.9v-7.7c-0.1-0.9-0.1-1.8-0.1-2.7
					c0-0.5,0.3-0.8,0.9-0.8h12.5c0.3,0,0.5,0.1,0.7,0.3c0.2,0.2,0.3,0.6,0.3,0.9c0.1,0.4,0,0.8-0.3,1.1c-0.2,0.2-0.6,0.3-0.9,0.3
					l-2.4,0.2h-7.8L279.9,52.3z"/>
				<path style="fill:#111111;" d="M304.4,62.1c-0.7,0-1.3-0.6-1.3-1.3v-11c0.1-1.1,0.1-2,0.1-2.8v-1.7h-9.5c-0.8,0-1.2-0.5-1.2-1.4
					c0-0.3,0.1-0.7,0.4-0.9c0.2-0.2,0.4-0.3,0.7-0.3l6-0.2h5.8c0.3,0,0.6,0,0.8,0.2c0.1,0.3,0.2,0.6,0.2,0.9v5
					c-0.1,1.2-0.1,2.4-0.1,3.6s0,2.5-0.1,3.6c0,1,0,2.1-0.1,3.1c0,0.6,0,1.3-0.1,1.9c0,0.4-0.2,0.8-0.5,1
					C305.2,62,304.8,62.1,304.4,62.1z M314.4,53.5h-0.9c-0.1,1.8-0.2,3.5-0.2,5.2s-0.2,3.3-0.3,4.8s-0.2,1-0.5,1.2s-0.6,0.3-1.1,0.3
					c-0.4,0-0.7-0.2-0.9-0.5c-0.3-0.4-0.4-0.9-0.3-1.4c0-6.6,0.1-13.3,0.3-19.8c0-0.4,0.1-0.9,0.4-1.2c0.4-0.2,0.8-0.3,1.3-0.3
					c0.8-0.1,1.5,0.4,1.6,1.2c0,0.1,0,0.2,0,0.3c-0.1,1.2-0.1,2.5-0.1,3.7s-0.1,2.5-0.1,3.8h2.9c0.5,0,0.8,0,0.9,0.2
					c0.2,0.3,0.3,0.6,0.3,1c0,0.3-0.1,0.7-0.2,1c-0.1,0.3-0.4,0.4-0.7,0.5H314.4L314.4,53.5z"/>
				<path style="fill:#111111;" d="M56,79.2c0.3,0.1,0.4,0.5,0.5,1s0.1,2.3,0.2,3.5s0.1,2.4,0.1,3.6s0.1,2.3,0.1,3.4s0.1,2.1,0.2,3
					c0,0.2,0.1,0.3,0.3,0.3c0,0,0,0,0,0l4.6-0.2l4.6-0.3c0.3-0.1,0.7,0,0.9,0.2c0.2,0.1,0.3,0.5,0.3,1c0,0.3-0.1,0.7-0.3,0.9
					c-0.1,0.2-0.4,0.3-0.7,0.4l-2.3,0.3l-2.7,0.3L59,96.8h-2.8c-0.6,0.1-1.1-0.1-1.6-0.4c-0.4-0.4-0.7-0.9-0.7-1.4
					c0-0.7,0-1.3-0.1-2c0-0.8-0.1-1.6-0.1-2.5c-0.1-0.9-0.2-1.9-0.2-2.8c-0.1-1-0.1-1.9-0.2-2.8c0-0.9,0-1.7-0.1-2.6
					c0-0.8-0.1-1.4-0.1-2c0-0.2,0-0.4,0.1-0.6c0-0.2,0-0.3,0.2-0.4l0.4-0.3h0.9C55.4,78.9,55.8,79,56,79.2z M74.2,89.5h-1
					c-0.1,1.8-0.1,3.5-0.2,5.2s-0.2,3.3-0.3,4.8s-0.2,1-0.5,1.2c-0.3,0.2-0.6,0.4-1,0.3c-0.4,0-0.8-0.2-1-0.5
					c-0.3-0.4-0.4-0.9-0.3-1.4c0-6.6,0.1-13.3,0.3-19.8c0-0.4,0.1-0.9,0.4-1.2c0.4-0.2,0.8-0.3,1.3-0.3c0.8-0.1,1.5,0.4,1.6,1.2
					c0,0.1,0,0.2,0,0.3c-0.1,1.2-0.1,2.5-0.1,3.7s0,2.5-0.1,3.8h3.4c0.4,0,0.7,0,0.9,0.2c0.2,0.3,0.3,0.6,0.3,1c0,0.3-0.1,0.7-0.2,1
					c-0.1,0.3-0.4,0.4-0.8,0.5H74.2z"/>
				<path style="fill:#111111;" d="M91,101.4l-1.9-0.7l-1.7,0.8l-1.8,0.8l-1.9,0.7l-1.6,0.7l-1.1,0.2c-0.3-0.1-0.6-0.3-0.8-0.6
					c-0.3-0.3-0.4-0.5-0.3-0.8c0-0.3,0.2-0.5,0.4-0.7l3.5-1.6l3.4-1.6v-0.8c0-0.3-0.1-0.5-0.1-0.7c0-0.3,0.1-0.6,0.3-0.8
					c0.1-0.2,0.4-0.3,0.8-0.4c-0.5-0.1-0.9-0.7-0.8-1.2v-2.5h-8.2c-0.7,0-1.1-0.4-1.1-1.4c0-0.3,0.1-0.7,0.3-0.9
					c0.1-0.2,0.4-0.3,0.9-0.4h4.9l5.3-0.2H99c0.4-0.1,0.7,0,0.8,0.3c0.2,0.2,0.3,0.5,0.3,0.8c0,0.4-0.1,0.7-0.3,1
					c-0.2,0.2-0.5,0.4-0.8,0.4L95,92l-4.4,0.2c0,0.5,0,0.9-0.1,1.4c0,0.4,0,0.9-0.1,1.3c0,0.2-0.1,0.4-0.2,0.6l-0.4,0.4l0.7,0.3
					c0.1,0.2,0.2,0.5,0.2,0.8v0.6c0,0.2-0.1,0.5-0.1,1l4,1.3l3.6,1.3c0.3,0.1,0.5,0.3,0.6,0.6c0,0.4-0.1,0.7-0.3,1
					c-0.1,0.3-0.4,0.6-0.7,0.7h-0.9l-1.7-0.5l-2.1-0.7L91,101.4z M80.3,77.8h0.9c0.6,0,1.1,0,1.3,0.2c0.3,0.2,0.5,0.6,0.4,1
					c0,0.5,0.1,1,0.1,1.6v1.6c0,0.5,0,0.9,0.1,1.4v1c0,0.2,0.1,0.3,0.3,0.3h0h4.2l2.7-0.2h6.9c0.3,0,0.6,0,0.9,0.2
					c0.2,0.1,0.3,0.4,0.3,1c0,0.3-0.1,0.7-0.3,0.9c-0.2,0.2-0.4,0.3-0.7,0.3l-1.8,0.2L93,87l-2.9,0.2h-3l-2.7,0.2h-2.2
					c-0.6,0.1-1.2-0.1-1.6-0.5C80.2,86.6,80,86,80,85.5c-0.1-0.5-0.1-1.1-0.1-1.6c-0.1-0.5-0.1-0.9-0.1-1.4c0-0.5-0.1-1-0.1-1.6
					s-0.1-1.2-0.1-1.9v-0.6c0.1-0.1,0.1-0.3,0.2-0.4L80.3,77.8z"/>
				<path style="fill:#111111;" d="M109,81.2c0.1,1,0.1,2.1,0.1,3.1l2.5,2.4l2.3,2.2c0.3,0.2,0.4,0.5,0.5,0.8c0.1,0.3,0,0.7-0.3,0.9
					c-0.2,0.3-0.4,0.6-0.8,0.7c-0.3,0.1-0.7,0-0.9-0.2l-2.3-2l-2.3-2.2c-0.7,1.2-1.5,2.2-2.1,3.1l-2.1,2.5c-0.2,0.3-0.6,0.5-1,0.4
					c-0.4-0.1-0.7-0.3-1-0.6c-0.2-0.2-0.3-0.6-0.2-0.9c0.1-0.3,0.2-0.6,0.4-0.8l0.9-1.3l1.1-1.5l1.2-1.7c0.4-0.5,0.7-1.1,1-1.5
					s0-2.1-0.1-3.2s-0.1-2-0.2-3c0-0.4,0.1-0.7,0.3-1c0.2-0.3,0.6-0.4,1.3-0.5s1.2,0.1,1.3,0.3c0.2,0.3,0.4,0.6,0.4,1L109,81.2z
					 M124.5,98.4c0,1.3,0,2.5-0.1,3.7c0,0.4-0.1,0.7-0.3,1c-0.1,0.2-0.4,0.3-0.8,0.3h-12.4c-1.1,0-1.7-0.6-1.8-1.8
					c0-0.4-0.1-0.9-0.1-1.5s-0.1-1.3-0.1-1.9s-0.1-1.3-0.1-2s-0.1-1.2-0.1-1.6c-0.1-0.7,0.3-1.3,1-1.4c0.1,0,0.1,0,0.2,0h13.9
					c0.2,0,0.5,0.1,0.6,0.3c0.2,0.2,0.2,0.4,0.2,0.7C124.6,95.7,124.6,97.1,124.5,98.4z M117.8,92.1c-0.7,0.1-1.3-0.5-1.4-1.2
					c0-0.1,0-0.1,0-0.2c0-0.9-0.1-1.9-0.1-2.9s0-2-0.1-3h-3.5c-0.4,0-0.7-0.1-0.8-0.3c-0.2-0.3-0.3-0.6-0.3-1c0-0.9,0.3-1.3,1-1.4
					h3.6V79c0-0.3,0.1-0.6,0.3-0.8c0.3-0.2,0.8-0.4,1.2-0.3c0.4,0,0.8,0.1,1.2,0.3c0.2,0.2,0.3,0.5,0.3,0.8c0.1,2.2,0.1,4.3,0.1,6.1
					s-0.1,3.8-0.1,5.7S118.7,92.1,117.8,92.1z M121.2,101c0.2,0,0.4-0.2,0.4-0.4l0,0v-4.8l-9.8,0.4c0,0.4,0,0.9,0.1,1.3v1.4
					c0,0.4,0,0.9,0.1,1.3v1L121.2,101z M125,91c-0.1,1-0.6,1.4-1.5,1.3s-1.3-0.5-1.3-1.4v-2.8c0.1-1,0.1-2,0.1-3.1s0.1-2,0.1-3.1
					s0-2.1,0.1-3.1c0-0.3,0.1-0.7,0.3-0.9l1.2-0.2c0.4,0,0.8,0.1,1.1,0.3c0.3,0.2,0.4,0.5,0.4,0.8c-0.1,2.2-0.1,4.3-0.2,6.3
					S125.1,89.2,125,91z"/>
				<path style="fill:#111111;" d="M145.4,97.9l-0.8,0.4c-2.4,0.2-4.9,0.5-7.5,0.6l-7.8,0.6c-0.7,0-1.1-0.5-1.1-1.4
					c0-0.4,0.1-0.7,0.3-1c0.1-0.2,0.4-0.3,0.9-0.4l4.2-0.3l3.7-0.3l3.5-0.2l3.9-0.2c0.3,0,0.6,0.1,0.8,0.3c0.1,0.3,0.2,0.6,0.2,0.9
					C145.7,97.3,145.6,97.6,145.4,97.9z M144,88.8c-0.4,0.9-1,1.7-1.7,2.3c-0.8,0.6-1.7,1.1-2.6,1.4c-1,0.3-2.1,0.5-3.2,0.6
					c-1.1,0-2.2-0.1-3.2-0.4c-1-0.3-1.8-0.8-2.6-1.4c-0.7-0.6-1.3-1.4-1.6-2.3c-0.4-1-0.6-2.1-0.6-3.2c0-1,0.1-2,0.5-2.9
					c0.4-0.9,1-1.7,1.7-2.4c0.7-0.7,1.6-1.2,2.5-1.6c2.1-0.7,4.4-0.8,6.6-0.2c0.9,0.4,1.8,0.9,2.6,1.5c1.4,1.5,2.2,3.4,2.2,5.5
					C144.6,86.8,144.4,87.8,144,88.8z M140,89c0.5-0.4,0.9-0.9,1.1-1.5c0.2-0.6,0.4-1.2,0.4-1.9c0-0.7-0.2-1.4-0.4-2
					c-0.3-0.6-0.7-1.1-1.1-1.5c-0.5-0.4-1-0.7-1.6-0.9c-0.6-0.2-1.3-0.3-1.9-0.3l-2,0.4c-0.6,0.2-1.1,0.6-1.5,1.1
					c-0.5,0.4-0.8,0.9-1,1.5c-0.3,0.6-0.4,1.2-0.4,1.9c0,0.7,0.1,1.4,0.4,2c0.2,0.6,0.5,1,1,1.4c0.4,0.4,0.9,0.7,1.5,0.9
					c0.6,0.2,1.3,0.3,1.9,0.3c0.7,0,1.4-0.2,2-0.4C139,89.8,139.5,89.4,140,89z M150,98c-0.1,0.6-0.2,1-0.5,1.2s-0.6,0.3-1.1,0.3
					c-0.4,0-0.7-0.2-0.9-0.5c-0.3-0.4-0.4-0.9-0.4-1.4c0-1.6,0.1-3.2,0.1-4.6v-4.2c0.1-1.4,0.1-2.8,0.1-4.2s0.1-2.9,0.2-4.6
					c0-0.4,0.1-0.8,0.4-1.1c0.4-0.3,0.8-0.5,1.3-0.4c1,0,1.5,0.5,1.5,1.6v4.7c-0.1,1.5-0.1,3-0.2,4.5s-0.1,2.9-0.2,4.3L150,98z"/>
				<path style="fill:#111111;" d="M173.1,90.9h8.5c0.3,0,0.6,0.1,0.8,0.3c0.1,0.3,0.2,0.6,0.2,0.9c0,0.4-0.1,0.7-0.3,1
					c-0.2,0.2-0.5,0.3-0.8,0.3l-4.6,0.2l-5.1,0.2l-5.2,0.2h-4.8c-0.8,0-1.2-0.4-1.2-1.3c0-0.4,0.1-0.7,0.3-1
					c0.2-0.2,0.6-0.3,0.9-0.3l3.9-0.2h4.2v-2.5h-5.8c-0.9,0.1-1.8-0.5-1.9-1.5c0-0.1,0-0.3,0-0.4c0-0.5-0.1-1.1-0.1-1.8v-1.9
					c-0.1-0.7-0.1-1.4-0.1-2.1v-2c0-0.8,0.4-1.3,1.2-1.3h16.7c0.5-0.1,1,0.3,1.1,0.9c0,0,0,0.1,0,0.1v4.4c-0.1,1.4-0.1,2.8-0.1,4.2
					s-0.1,0.9-0.3,1s-0.4,0.3-0.8,0.4h-6.7L173.1,90.9z M170.9,102.9c0,0.7-0.6,1.3-1.4,1.2c-0.1,0-0.2,0-0.2,0
					c-0.3,0-0.6-0.1-0.8-0.4c-0.2-0.2-0.2-0.5-0.3-0.9v-4.6h-4.9c-0.3,0-0.7-0.1-0.9-0.3c-0.1-0.3-0.2-0.6-0.2-0.9
					c0-0.4,0.1-0.7,0.3-1c0.2-0.2,0.5-0.3,0.8-0.3l3.2-0.2l3.7-0.2c0.4,0,0.7,0,0.8,0.2c0.1,0.3,0.2,0.6,0.2,0.9
					c0,1.1,0,2.1-0.1,3.1S171,101.8,170.9,102.9L170.9,102.9z M177.4,85.9c0.3,0,0.4-0.2,0.4-0.5v-5.3l-12.6,0.2v3.1
					c0,0.9,0,1.9,0.1,2.8L177.4,85.9z M174.5,99.1v-1.3c0-0.3-0.1-0.5-0.1-0.7v-0.6c0-0.4,0.1-0.8,0.3-1.1c0.2-0.3,0.6-0.4,1.2-0.4
					c0.5-0.1,1-0.1,1.4,0.2c0.2,0.3,0.3,0.7,0.3,1.1v2.4l2,1.3l1.7,1.2l0.6,0.6c0.1,0.3,0,0.7-0.2,1c-0.2,0.3-0.4,0.5-0.7,0.7
					c-0.2,0.1-0.5,0-0.9-0.2l-1.9-1.1l-2-1.2c-0.3,0.2-0.6,0.5-0.8,0.8c-0.3,0.2-0.5,0.4-0.7,0.7l-0.7,0.6l-0.8,0.6
					c-0.5,0.4-1.1,0.4-1.6-0.1c-0.1-0.1-0.1-0.1-0.1-0.2c-0.3-0.3-0.4-0.5-0.4-0.7s0.2-0.4,0.4-0.7L174.5,99.1z"/>
				<path style="fill:#111111;" d="M199.3,91.1c-0.4,0.9-0.9,1.7-1.6,2.4c-0.8,0.7-1.6,1.2-2.6,1.6c-1,0.3-2.1,0.5-3.2,0.5
					c-1.1,0.1-2.2-0.1-3.3-0.4c-2-0.5-3.6-2-4.2-3.9c-0.4-1.1-0.6-2.3-0.6-3.5c0-1,0.2-2.1,0.6-3c0.4-1,0.9-1.8,1.6-2.6
					c1.6-1.6,3.7-2.4,5.9-2.4c1.1-0.1,2.3,0.1,3.3,0.5c1,0.3,1.9,0.9,2.6,1.6c0.7,0.7,1.2,1.6,1.6,2.5c0.4,1.1,0.5,2.2,0.5,3.4
					C199.9,88.9,199.7,90,199.3,91.1z M193.8,92.5c0.6-0.2,1.2-0.6,1.6-1.1c0.5-0.4,0.8-1,1-1.6c0.3-0.7,0.4-1.4,0.4-2.1
					c0-0.8-0.1-1.5-0.4-2.2c-0.2-0.6-0.6-1.2-1-1.7l-1.6-1c-0.6-0.2-1.3-0.3-1.9-0.3c-0.7,0-1.4,0.2-2.1,0.5
					c-0.6,0.2-1.1,0.6-1.5,1.1c-0.4,0.5-0.7,1.1-1,1.7c-0.2,0.6-0.3,1.3-0.3,2c-0.1,1.4,0.3,2.8,1.3,3.8c0.9,0.9,2.2,1.4,3.5,1.3
					C192.5,92.9,193.2,92.8,193.8,92.5z M205.9,99.5c0,0.4-0.1,0.9-0.4,1.2c-0.3,0.3-0.7,0.4-1.1,0.3c-0.4,0-0.8-0.2-1-0.5
					c-0.3-0.4-0.4-0.9-0.3-1.4c0-6.6,0.1-13.3,0.4-19.8c0-0.6,0.1-1,0.4-1.2c0.4-0.2,0.8-0.3,1.3-0.3c0.7-0.1,1.4,0.4,1.5,1.1
					c0,0.1,0,0.3,0,0.4c0,1.7,0,3.4-0.1,5.1s-0.1,3.5-0.1,5.2s-0.1,3.5-0.2,5.1S206.1,98,205.9,99.5L205.9,99.5z"/>
				<path style="fill:#111111;" d="M227.3,90.3l3.1-0.2l3.4-0.2c0.3,0,0.6,0.1,0.8,0.3c0.2,0.2,0.2,0.5,0.2,0.9
					c0.1,0.7-0.3,1.3-1,1.4c0,0-0.1,0-0.1,0l-7.4,0.5l-7.8,0.5c-0.8,0-1.2-0.5-1.2-1.4c0-0.4,0.1-0.7,0.3-1c0.2-0.2,0.6-0.3,0.9-0.3
					l3-0.2h2.6v-2.5h-3.8c-0.5,0-1-0.2-1.4-0.5c-0.4-0.4-0.6-0.9-0.7-1.5v-1.6c-0.1-0.7-0.1-1.3-0.1-2v-2c-0.1-0.6-0.1-1.1-0.1-1.7
					c0-0.3,0.1-0.6,0.2-0.9l0.9-0.3h13.2c0.6,0,0.9,0.4,0.9,1.3c0,0.3,0,0.6-0.1,0.9l-0.8,0.4h-2.7l-2.9,0.2h-5.5v5
					c0,0.2,0.1,0.3,0.3,0.3l0,0h5.4l2.8-0.2h2.5c0.3-0.1,0.6,0,0.9,0.1c0.1,0.3,0.2,0.6,0.3,0.9c0,0.5-0.1,0.9-0.3,1
					c-0.2,0.2-0.5,0.4-0.8,0.4l-2.5,0.3h-2.5L227.3,90.3z M233.5,96.5h2.3v-0.6c0.1-0.2,0.1-0.4,0.1-0.6c0-0.4,0.1-0.7,0.3-1
					c0.3-0.3,0.8-0.4,1.2-0.4c0.4-0.1,0.9,0.1,1.2,0.3c0.2,0.2,0.3,0.6,0.3,0.9c0,1.1,0,2.4-0.1,3.7s-0.1,2.5-0.2,3.7
					c0,0.3-0.1,0.7-0.3,0.9l-1,0.3h-12.2c-0.6,0-1.2-0.1-1.7-0.5c-0.5-0.5-0.7-1.1-0.7-1.8c0-0.9,0-1.7-0.1-2.6c0-1.1,0-2.1-0.1-3.2
					c0-0.3,0.1-0.7,0.4-0.9c0.3-0.3,0.7-0.5,1.1-0.4c0.4,0,0.9,0,1.3,0.2c0.2,0.3,0.3,0.6,0.3,0.9v0.7c0,0.2,0,0.4,0.1,0.6h7.8
					L233.5,96.5z M225.7,100.3v1h9.9l0.2-0.4V99h-10.1V100.3z M239.1,91.5c-0.1,0.4-0.2,0.8-0.5,1.1c-0.3,0.2-0.7,0.3-1.1,0.2
					c-0.4,0-0.7-0.1-1-0.3c-0.2-0.1-0.4-0.5-0.4-1.1v-5.1c0-1.1,0.1-2.3,0.1-3.5v-3.5c0-0.6,0.1-1,0.4-1.2c0.3-0.2,0.8-0.4,1.2-0.3
					c1.1,0,1.6,0.5,1.6,1.5v3.3c-0.1,1.1-0.1,2.3-0.1,3.4s0,2.2-0.1,3.2S239.1,90.9,239.1,91.5L239.1,91.5z"/>
				<path style="fill:#111111;" d="M246.1,79.2c0.4,0.2,0.6,0.6,0.5,1c0.1,1.1,0.1,2.3,0.2,3.5s0.1,2.4,0.1,3.6s0.1,2.3,0.1,3.4
					s0.1,2.1,0.2,3c0,0.2,0.1,0.3,0.3,0.3l0,0h5.1l2.6-0.2h2.4c0.3-0.1,0.7,0,0.9,0.2c0.2,0.1,0.3,0.5,0.3,1c0,0.3-0.1,0.6-0.2,0.9
					l-0.8,0.4l-2.5,0.3l-3,0.3l-3.1,0.2h-2.9c-0.6,0.1-1.1-0.1-1.6-0.4c-0.4-0.4-0.7-0.9-0.7-1.4c0-0.7,0-1.3-0.1-2
					c0-0.8-0.1-1.6-0.1-2.5s-0.1-1.9-0.2-2.8s-0.1-1.9-0.2-2.8c0-0.9,0-1.7-0.1-2.6c0-0.7,0-1.3-0.1-2c0-0.2,0-0.4,0.1-0.6
					c0-0.2,0.1-0.3,0.2-0.4l0.5-0.3h0.8C245.5,78.9,245.9,79,246.1,79.2z M263.7,99.5c0,0.5-0.1,0.9-0.5,1.2c-0.3,0.2-0.6,0.4-1,0.3
					c-0.4,0-0.8-0.2-1-0.5c-0.3-0.4-0.4-0.9-0.3-1.4c0-6.6,0.1-13.3,0.3-19.8c0-0.4,0.2-0.8,0.4-1.2c0.4-0.2,0.8-0.3,1.3-0.3
					c1.1,0,1.6,0.5,1.6,1.5s-0.1,3.4-0.1,5.1s-0.1,3.5-0.2,5.2s-0.1,3.5-0.2,5.1S263.8,98,263.7,99.5z"/>
				<path style="fill:#111111;" d="M271.6,94.3c0,0.3,0.1,0.4,0.3,0.4l2.4-0.2l2.6-0.2l2.6-0.2h2.4c0.4-0.1,0.7,0,0.8,0.2
					s0.3,0.4,0.3,0.9c0.1,0.3,0,0.7-0.2,1c-0.2,0.2-0.5,0.4-0.8,0.4l-5.8,0.6l-5.6,0.3c-0.5,0-1.1-0.1-1.5-0.5
					c-0.4-0.4-0.6-0.9-0.6-1.5c-0.1-0.6-0.1-1.2-0.1-1.8v-2.8c0-1-0.1-2.1-0.1-3.2V80c0-0.3,0.1-0.6,0.2-0.9l0.8-0.3l5.9-0.2
					l6.1-0.2c0.7,0,1,0.5,1,1.3c0,0.3-0.1,0.7-0.2,1c-0.1,0.2-0.4,0.3-0.8,0.4h-2.4l-2.6,0.2h-4.8v11.8
					C271.6,93.5,271.6,93.9,271.6,94.3z M289.6,89.5h-0.9l-0.3,5.2c-0.1,1.7-0.2,3.3-0.3,4.8c0,0.4-0.1,0.9-0.4,1.2
					c-0.3,0.3-0.7,0.4-1.1,0.3c-0.4,0-0.8-0.2-1-0.5c-0.3-0.4-0.4-0.9-0.3-1.4c0-6.6,0.1-13.3,0.4-19.8c0-0.6,0.1-1,0.4-1.2
					c0.4-0.2,0.8-0.3,1.3-0.3c0.7-0.1,1.4,0.4,1.5,1.1c0,0.1,0,0.3,0,0.4V83c-0.1,1.3-0.1,2.5-0.1,3.8h2.9c0.4,0,0.7,0,0.9,0.2
					c0.2,0.3,0.3,0.6,0.3,1c0,0.3-0.1,0.7-0.2,1c-0.1,0.3-0.4,0.4-0.8,0.5H289.6z"/>
				<path style="fill:#111111;" d="M297.8,99.4c0,0.5-0.2,1-0.6,1.4c-0.4,0.4-0.9,0.6-1.5,0.6c-1.1-0.1-1.9-0.9-2-2
					c0-0.6,0.2-1.1,0.6-1.5c0.4-0.4,0.9-0.6,1.4-0.6C296.9,97.3,297.8,98.2,297.8,99.4C297.8,99.4,297.8,99.4,297.8,99.4z"/>
			</g>
			<path style="fill:none;stroke:#211815;stroke-width:1.3;stroke-linecap:round;stroke-miterlimit:10;" d="M101.9,8.4l15.7-0.8
				c26.9-1.1,53.9-0.9,80.9-0.4l8.8,0.2c23.3,0.6,46.4,2,69,5.4c26.4,4.1,59.3,12.4,70.5,36.3c18.1,38.9-17.7,65.6-56,75.2
				c-34.9,8.8-72.2,10.8-108.4,11.1c-8.7,0.1-17.4,0-26.1-0.3c-122.4-0.3-155-24.3-155.6-69C0.4,48.5,11.8,31.2,36.6,20.8
				c11.8-4.9,25-7.9,38.7-9.9C93.6,8.6,101.9,8.4,101.9,8.4z"/>
			<g>
				<path style="fill:#FFFFFF;" d="M270.4,17.9c1.6-4.3,0.9-8.9-0.2-13.3c-0.7-2.5-0.8-5.6,2.5-2.9s6.5,6.2,10.8,15.1"/>
				<path style="fill:none;stroke:#211815;stroke-width:1.3;stroke-linecap:round;stroke-miterlimit:10;" d="M270.4,17.9
					c1.6-4.3,0.9-8.9-0.2-13.3c-0.7-2.5-0.8-5.6,2.5-2.9s6.5,6.2,10.8,15.1"/>
			</g>
		</g>
	</g>
</g>
<g>
	<rect x="119" y="-133" style="fill:none;" width="0" height="3"/>
</g>
<g>
	<path d="M36.1,53.4c1.2,0,2.4-0.1,3.6-0.1c0-0.8,0-1.5,0-2.3s0-1.5,0-2.1c0-0.5,0.2-0.9,0.4-1.2c0.3-0.2,0.7-0.3,1.3-0.3
		c0.5,0,0.9,0.1,1.2,0.4c0.2,0.3,0.4,0.7,0.4,1.2c0,0.6,0,1.3,0,2c0,0.7,0,1.5,0,2.2c1.7,0,3.4-0.1,5-0.1c1.6,0,3.1-0.1,4.5-0.1
		c0.4,0,0.6,0.1,0.8,0.3c0.2,0.2,0.2,0.5,0.2,0.9c0,0.5-0.1,0.8-0.3,1c-0.2,0.2-0.5,0.3-0.8,0.3c-1.4,0.1-3,0.2-4.6,0.2
		c-1.7,0.1-3.4,0.1-5.1,0.2C41,55.9,39.2,56,37.5,56c-1.7,0-3.3,0.1-4.9,0.1c-0.8,0-1.1-0.4-1.1-1.3c0-0.4,0.1-0.8,0.3-1
		c0.2-0.2,0.5-0.3,0.9-0.3C33.8,53.5,34.9,53.4,36.1,53.4z M51.3,50.8c0,0.5-0.2,0.8-0.5,1c-0.3,0.2-0.6,0.3-1.1,0.2
		c-0.9-0.1-1.3-0.5-1.3-1.3c0-0.4,0-0.8,0-1.4c0-0.6,0-1.2,0.1-1.8c0-0.6,0-1.3,0.1-1.9c0-0.6,0-1.1,0-1.6c-0.5,0-1.1,0-1.9,0.1
		c-0.8,0-1.6,0-2.5,0s-1.9,0-2.9,0c-1,0-2,0-2.9,0c-0.9,0-1.8,0-2.6,0c-0.8,0-1.4,0-2,0c-0.8,0-1.1-0.4-1.1-1.3
		c0-0.4,0.1-0.7,0.3-0.9c0.2-0.2,0.5-0.3,0.8-0.3c0.7,0,1.5-0.1,2.4-0.1c0.9,0,1.9-0.1,3-0.1c1.1,0,2.1,0,3.3-0.1c1.1,0,2.2,0,3.2,0
		c1,0,2,0,2.9,0c0.9,0,1.7,0,2.3,0c0.4,0,0.7,0.1,0.8,0.3c0.1,0.2,0.2,0.5,0.2,0.9c0,0.6,0,1.3-0.1,2c0,0.7-0.1,1.5-0.1,2.2
		c0,0.7-0.1,1.5-0.2,2.2C51.4,49.5,51.3,50.2,51.3,50.8z M45.4,60.1c1,0,1.8-0.1,2.5-0.1c0-0.2,0-0.4,0-0.6c0-0.2,0-0.4,0-0.7
		c0-0.5,0.1-0.8,0.3-1s0.6-0.3,1.2-0.3s0.9,0.1,1.2,0.3c0.2,0.2,0.3,0.5,0.3,0.9c0,0.6,0,1.2,0,1.8c0,0.6,0,1.3-0.1,2
		c0,0.7-0.1,1.4-0.1,2c0,0.7-0.1,1.3-0.1,1.9c0,0.4-0.1,0.7-0.4,0.9c-0.2,0.2-0.5,0.3-1,0.3c-0.4,0-1,0-1.8,0.1s-1.5,0-2.4,0
		c-0.9,0-1.8,0-2.7,0c-0.9,0-1.8,0-2.6,0c-0.8,0-1.5,0-2.2,0c-0.6,0-1.1,0-1.3,0c-0.8,0-1.3-0.2-1.7-0.5s-0.6-0.9-0.6-1.8
		c0-0.4-0.1-0.8-0.1-1.3c0-0.5-0.1-1.1-0.1-1.6c0-0.6-0.1-1.1-0.1-1.7c0-0.6,0-1.2,0-1.7c0-0.4,0.1-0.7,0.3-0.9s0.6-0.4,1.2-0.4
		c0.6,0,1.1,0.1,1.2,0.3c0.2,0.2,0.3,0.5,0.3,0.9c0,0.3,0,0.5,0,0.8c0,0.3,0,0.5,0,0.7c0.7,0,1.6,0,2.6-0.1c1,0,2-0.1,3-0.1
		C43.5,60.2,44.5,60.2,45.4,60.1z M37,64.1c0,0.3,0,0.7,0.1,1c0.2,0,0.5,0,1.1,0c0.5,0,1.1,0,1.8,0c0.7,0,1.4,0,2.2,0
		c0.8,0,1.5,0,2.2,0c0.7,0,1.3,0,1.8,0c0.5,0,0.9,0,1.1,0c0.2,0,0.3,0,0.4-0.1c0.1-0.1,0.2-0.2,0.2-0.5c0-0.4,0-0.8,0-1
		c0-0.3,0-0.5,0-0.7c-0.7,0-1.5,0.1-2.5,0.1c-1,0-2,0.1-3,0.1c-1,0-2,0.1-3,0.1c-1,0-1.8,0.1-2.4,0.1C37,63.4,37,63.8,37,64.1z"/>
	<path d="M63.2,45.1c0,1,0.1,2,0.1,3.1c0.8,0.9,1.7,1.7,2.5,2.5c0.8,0.8,1.6,1.5,2.3,2.1c0.3,0.3,0.5,0.6,0.5,0.8
		c0.1,0.3,0,0.6-0.3,0.9c-0.3,0.4-0.5,0.6-0.8,0.7c-0.3,0.1-0.6,0-0.9-0.2c-0.8-0.7-1.6-1.3-2.3-2s-1.5-1.4-2.3-2.2
		c-0.8,1.2-1.5,2.2-2.2,3.1c-0.7,0.9-1.4,1.7-2.1,2.5c-0.3,0.3-0.6,0.4-1,0.3c-0.4-0.1-0.7-0.3-1-0.6c-0.2-0.3-0.3-0.6-0.3-0.8
		c0.1-0.3,0.2-0.5,0.4-0.8c0.3-0.4,0.6-0.8,0.9-1.3s0.8-1,1.1-1.6c0.4-0.5,0.8-1.1,1.2-1.6c0.4-0.5,0.7-1.1,1-1.5
		c0-1.1-0.1-2.1-0.1-3.2c-0.1-1-0.1-2-0.2-3c0-0.5,0.1-0.8,0.3-1.1c0.2-0.2,0.6-0.4,1.3-0.4c0.7,0,1.2,0,1.4,0.2
		c0.2,0.2,0.3,0.6,0.3,1.1C63.2,43.1,63.2,44.1,63.2,45.1z M78.7,62.3c0,1.3-0.1,2.5-0.1,3.7c0,0.5-0.1,0.8-0.3,1
		c-0.1,0.2-0.4,0.3-0.8,0.4c-0.3,0-0.8,0-1.5,0.1c-0.7,0-1.4,0.1-2.2,0.1c-0.8,0-1.7,0-2.6,0.1c-0.9,0-1.7,0-2.6,0.1
		c-0.8,0-1.6,0-2.2,0c-0.6,0-1.1,0-1.4,0c-1.1,0-1.7-0.6-1.8-1.8c0-0.4-0.1-0.9-0.1-1.5c0-0.6-0.1-1.2-0.1-1.9c0-0.7-0.1-1.3-0.1-2
		c0-0.6,0-1.2,0-1.6c0-0.9,0.4-1.3,1.2-1.4c0.4,0,0.9,0,1.6-0.1c0.7,0,1.5,0,2.4-0.1s1.8-0.1,2.8-0.1c1,0,1.9-0.1,2.8-0.1
		s1.7,0,2.5,0c0.7,0,1.3,0,1.7,0c0.3,0,0.5,0.1,0.6,0.3c0.1,0.2,0.2,0.4,0.2,0.7C78.8,59.6,78.8,61,78.7,62.3z M72,56
		c-0.9,0-1.4-0.5-1.4-1.4c0-0.9-0.1-1.9-0.1-2.9c0-1,0-2-0.1-3c-0.4,0-0.7,0-1.1,0c-0.4,0-0.7,0-1.1,0c-0.3,0-0.6,0-0.9,0
		c-0.2,0-0.4,0-0.5,0c-0.4,0-0.7-0.1-0.9-0.3c-0.1-0.2-0.2-0.6-0.3-1c0-0.9,0.3-1.3,1-1.4c0.1,0,0.3,0,0.6,0c0.2,0,0.5,0,0.9,0
		c0.3,0,0.7,0,1.1,0c0.4,0,0.8,0,1.1-0.1c0-1,0-2,0-3c0-0.4,0.1-0.7,0.3-0.8s0.6-0.3,1.2-0.3c0.6,0,1,0.1,1.2,0.3
		c0.2,0.2,0.4,0.5,0.4,0.8c0,2.2,0.1,4.2,0,6.1c0,1.9,0,3.8-0.1,5.7C73.4,55.6,72.9,56,72,56z M75.4,64.9c0.3,0,0.4-0.1,0.4-0.4
		c0-0.3,0-0.6,0-1c0-0.4,0-0.8,0-1.2c0-0.4,0-0.9,0-1.3c0-0.4,0-0.8,0-1.2L66,60.1c0,0.4,0,0.8,0.1,1.3c0,0.5,0,0.9,0,1.4
		c0,0.5,0,0.9,0,1.3c0,0.4,0,0.7,0.1,1L75.4,64.9z M79.2,55c-0.1,0.9-0.6,1.3-1.5,1.3c-0.9,0-1.3-0.5-1.3-1.4c0-0.9,0-1.8,0-2.8
		s0-2,0.1-3.1s0-2.1,0.1-3.2c0-1.1,0.1-2.1,0.1-3.1c0-0.4,0.1-0.7,0.3-0.8c0.2-0.2,0.6-0.3,1.2-0.3c0.6,0,1,0.1,1.2,0.3
		s0.3,0.5,0.3,0.8c0,2.2-0.1,4.3-0.2,6.4C79.4,51.1,79.3,53.1,79.2,55z"/>
	<path d="M91.7,47.2c0,0.6,0,1.1,0,1.6c1.1,0.9,2.3,1.7,3.3,2.3s2.1,1.3,3,2c0.3,0.2,0.5,0.5,0.5,0.8c0.1,0.3,0,0.6-0.3,1
		c-0.2,0.4-0.5,0.6-0.7,0.8c-0.3,0.1-0.5,0.1-0.9-0.1c-0.4-0.3-0.9-0.5-1.4-0.9s-1.1-0.7-1.7-1c-0.6-0.4-1.1-0.8-1.7-1.1
		c-0.6-0.4-1.1-0.8-1.5-1.2c-1.2,1.3-2.3,2.4-3.3,3.3c-1,0.9-1.9,1.7-2.6,2.3c-0.3,0.3-0.6,0.4-1,0.3s-0.7-0.3-0.9-0.6
		c-0.2-0.3-0.3-0.6-0.3-0.9c0-0.3,0.2-0.5,0.4-0.8c0.4-0.4,0.8-0.9,1.3-1.4c0.5-0.5,1-1.1,1.6-1.6c0.5-0.5,1-1.1,1.5-1.6
		c0.5-0.5,0.9-1,1.3-1.4c0-1.1-0.1-2.2-0.1-3.4s-0.1-2.3-0.1-3.2c0-0.5,0.1-0.8,0.3-1.1c0.2-0.2,0.7-0.4,1.3-0.4
		c0.7,0,1.2,0,1.4,0.2c0.2,0.2,0.4,0.6,0.4,1.1c0,0.4,0,0.9,0,1.4c0,0.5,0,1.1,0.1,1.7C91.7,46,91.7,46.6,91.7,47.2z M104.2,66.8
		c-0.1,0.5-0.2,0.8-0.5,1c-0.3,0.2-0.6,0.3-1.1,0.2c-0.4,0-0.7-0.2-0.9-0.4c-0.2-0.2-0.3-0.5-0.3-0.9c0-0.4,0-0.8,0-1.3
		c0-0.5,0-1,0-1.6c0-0.6,0-1.1,0-1.7c0-0.6,0-1.1,0-1.5c-0.7,0-1.6,0.1-2.7,0.1s-2.2,0.1-3.4,0.1c-1.2,0-2.3,0.1-3.4,0.1
		c-1.1,0-2,0-2.8,0c-0.8,0-1.1-0.4-1.1-1.3c0-0.4,0.1-0.7,0.3-0.9c0.2-0.2,0.5-0.3,0.8-0.3c1-0.1,2.1-0.1,3.4-0.2
		c1.3-0.1,2.6-0.1,3.9-0.2c1.3,0,2.6-0.1,3.9-0.1c1.2,0,2.3,0,3.3,0c0.4,0,0.7,0.1,0.8,0.3c0.1,0.2,0.2,0.5,0.2,0.9
		c0,1.2,0,2.5-0.1,3.9C104.5,64.4,104.4,65.6,104.2,66.8z M104.9,55.7c-0.1,0.6-0.2,1-0.5,1.1c-0.3,0.2-0.6,0.3-1,0.2
		c-0.4,0-0.8-0.1-1-0.3c-0.2-0.2-0.4-0.6-0.4-1.2c0-0.5,0-1.2,0-2.1c0-0.9,0-2,0-3.1c0-1.2,0-2.4,0-3.6c0-1.2,0-2.4,0-3.6
		c0-0.5,0.1-0.9,0.4-1.2c0.2-0.2,0.7-0.3,1.3-0.3c1.1,0,1.6,0.5,1.6,1.6c0,1,0,2,0,3.3c0,1.2,0,2.4,0,3.6c0,1.2-0.1,2.3-0.1,3.3
		C105,54.4,104.9,55.1,104.9,55.7z"/>
</g>
</svg>
