<?xml version="1.0" encoding="utf-8"?>
<!-- Generator: Adobe Illustrator 23.0.0, SVG Export Plug-In . SVG Version: 6.00 Build 0)  -->
<svg version="1.1" id="레이어_1" xmlns="http://www.w3.org/2000/svg" xmlns:xlink="http://www.w3.org/1999/xlink" x="0px"
	 y="0px" width="1083.7px" height="156.8px" viewBox="0 0 1083.7 156.8" style="enable-background:new 0 0 1083.7 156.8;"
	 xml:space="preserve">
<style type="text/css">
	.st0{fill:#E9DEED;}
	.st1{fill:#111111;}
	.st2{fill:#000111;}
	.st3{fill:#FFFFFF;}
	.st4{fill:none;stroke:#DBC6E0;stroke-width:5;stroke-linecap:round;stroke-linejoin:round;}
	.st5{fill:none;stroke:#DBC6E0;stroke-width:3;stroke-linecap:round;stroke-linejoin:round;}
	.st6{fill:none;stroke:#C7A4CB;stroke-width:5;stroke-linejoin:round;}
	.st7{fill:none;stroke:#FFFFFF;stroke-width:2;stroke-linecap:round;stroke-linejoin:round;stroke-dasharray:0.3,5;}
	.st8{fill:#CEB0D2;}
	.st9{fill:none;stroke:#CEB0D2;stroke-linecap:round;stroke-linejoin:round;}
	.st10{display:none;}
	.st11{display:inline;}
	.st12{fill:none;stroke:#CBE097;stroke-width:1.5;stroke-linecap:round;stroke-linejoin:round;}
	.st13{fill:none;stroke:#CBE097;stroke-width:1.1;stroke-linecap:round;stroke-linejoin:round;}
	.st14{fill:#E1EDC4;}
	.st15{fill:none;stroke:#FFFFFF;stroke-width:1.5;stroke-linecap:round;stroke-linejoin:round;stroke-dasharray:0,4.5;}
	.st16{fill:none;stroke:#FFFFFF;stroke-width:1.5;stroke-linecap:round;stroke-linejoin:round;stroke-dasharray:0,4.72;}
	.st17{fill:#B5D469;}
	.st18{fill:none;stroke:#B5D469;stroke-linecap:round;stroke-linejoin:round;}
	.st19{fill:none;stroke:#B5D469;stroke-width:5;stroke-miterlimit:10;}
</style>
<title>3_4_2_01</title>
<g>
	<g id="활동3-1-1">
		<g>
			<polygon class="st0" points="851.9,126.2 798.1,126.2 851.9,148.5 			"/>
			<polygon class="st0" points="851.9,30.3 798.1,30.3 851.9,8 			"/>
			<path class="st0" d="M866.9,108.4V48.2c0-13.5-13.1-14.2-13.1-14.2H741.7c-21.3,0-69.4,22.7-69.4,44.3s48.1,44.3,69.4,44.3h112.1
				C866.9,120.8,866.9,108.4,866.9,108.4"/>
			<g>
				<path class="st1" d="M721.6,61.6c1.7,0,3.4,0.2,5,0.7c1.3,0.4,2.6,1.1,3.6,2c1,0.8,1.7,1.8,2.2,2.9c0.5,1.1,0.7,2.3,0.7,3.5v0.2
					c0,0.9-0.1,1.8-0.4,2.6c-0.2,0.8-0.6,1.6-1.1,2.3c-0.5,0.8-1.1,1.5-1.9,2c-0.8,0.6-1.8,1.1-2.8,1.4c1,0.2,2,0.5,3,0.9
					c1.8,0.8,3.2,2.2,4,4c0.4,1.1,0.6,2.2,0.6,3.3v0.5c0,1.3-0.2,2.7-0.7,3.9c-0.5,1.3-1.3,2.4-2.4,3.3c-1.1,1-2.4,1.8-3.9,2.3
					c-1.8,0.6-3.7,0.9-5.6,0.9c-3.6,0.1-7.2-0.9-10.2-2.9c-0.6-0.4-1-0.9-1.1-1.6c-0.1-0.6,0-1.2,0.4-1.7c0.3-0.6,0.8-1,1.4-1.1
					c0.6-0.2,1.2-0.1,1.7,0.3c1.1,0.8,2.3,1.4,3.6,1.9c1.3,0.4,2.6,0.6,4,0.6c1.2,0,2.4-0.2,3.6-0.5c0.9-0.3,1.7-0.8,2.4-1.4
					c0.6-0.5,1.1-1.2,1.4-1.9c0.3-0.7,0.4-1.5,0.4-2.3v-0.4c0-0.9-0.2-1.9-0.6-2.7c-0.4-0.8-1-1.4-1.7-1.8c-0.8-0.5-1.6-0.9-2.5-1
					c-1-0.2-2.1-0.3-3.1-0.3h-2.9c-0.5,0-1-0.2-1.3-0.6c-0.3-0.5-0.5-1-0.5-1.6c0-0.5,0.2-1.1,0.5-1.5c0.3-0.4,0.8-0.6,1.3-0.6h2.5
					c1.8,0.1,3.5-0.4,5-1.4c1.4-1.1,2.1-2.8,2-4.5v-0.2c0.1-1.4-0.5-2.8-1.6-3.7c-1.5-1-3.2-1.5-5-1.4c-1.2,0-2.5,0.3-3.6,0.8
					c-1.1,0.5-2,1.3-2.8,2.2c-0.4,0.4-1,0.6-1.6,0.6c-0.6-0.1-1.1-0.3-1.5-0.8c-0.4-0.4-0.6-0.9-0.6-1.5c0.1-0.5,0.3-1.1,0.6-1.5
					c1.1-1.3,2.4-2.3,3.9-3C717.7,62,719.7,61.6,721.6,61.6z"/>
				<path class="st1" d="M761.9,62.8c0.5,0.9,0.5,2.1,0,3c-0.3,0.5-0.8,0.7-1.3,0.7H747l-0.6,11c1-0.7,2-1.2,3.1-1.6
					c1.3-0.5,2.7-0.7,4.1-0.7c1.6,0,3.2,0.3,4.6,0.9c1.3,0.5,2.5,1.3,3.4,2.3c0.9,1,1.6,2.1,2.1,3.4c0.5,1.4,0.7,2.8,0.7,4.3v0.6
					c0,1.4-0.2,2.8-0.6,4.1c-0.9,3-3.2,5.3-6.1,6.4c-1.8,0.8-3.8,1.1-5.8,1.1c-2.1,0-4.1-0.3-6.1-0.8c-1.7-0.5-3.3-1.2-4.7-2.1
					c-0.6-0.3-1-0.9-1.1-1.5c-0.1-0.6,0.1-1.3,0.4-1.8c0.5-1,1.6-1.4,2.7-1c0.2,0.1,0.3,0.2,0.4,0.3c1.2,0.7,2.4,1.3,3.7,1.7
					c1.5,0.4,3,0.6,4.6,0.6c1.2,0,2.4-0.2,3.5-0.6c0.9-0.4,1.7-0.9,2.4-1.5c0.6-0.7,1-1.5,1.3-2.3c0.3-0.9,0.4-1.8,0.4-2.7v-0.3
					c0-2.3-0.6-4.1-1.9-5.2c-1.5-1.3-3.4-1.9-5.3-1.8c-1.2,0-2.5,0.2-3.6,0.7c-1,0.4-2,1-2.8,1.7l-1.1,0.7l-1.2,0.2
					c-0.5,0-1.1-0.1-1.5-0.4c-0.4-0.3-0.6-0.8-0.6-1.3l0.9-14.9c0-0.6,0.1-1.3,0.3-1.9c0.1-0.5,0.3-0.9,0.6-1.2
					c0.3-0.3,0.7-0.5,1.1-0.6h16.3C761.1,62.2,761.6,62.4,761.9,62.8z"/>
			</g>
			<g>
				<path class="st2" d="M802.6,81.9h-23c-1.4,0-2.5-1.1-2.5-2.5l0,0c0-1.4,1.1-2.5,2.5-2.5h23c1.4,0,2.5,1.1,2.5,2.5l0,0
					C805.1,80.8,804,81.9,802.6,81.9z"/>
				<circle class="st2" cx="791.1" cy="69.4" r="3.5"/>
				<circle class="st2" cx="791.1" cy="89.4" r="3.5"/>
			</g>
			<path class="st1" d="M901.8,72.6c0.5,0,1,0.2,1.3,0.6c0.5,0.9,0.5,2.1,0,3c-0.3,0.4-0.8,0.6-1.3,0.6h-20.1
				c-0.5,0-1.1-0.2-1.4-0.6c-0.5-0.9-0.5-2.1,0-3c0.3-0.4,0.9-0.6,1.4-0.6H901.8z M901.8,83.2c0.5,0,1,0.2,1.3,0.6
				c0.3,0.4,0.4,1,0.4,1.5c0,0.5-0.1,1-0.4,1.4c-0.3,0.4-0.8,0.6-1.3,0.6h-20.1c-0.5,0-1.1-0.2-1.4-0.6c-0.3-0.4-0.4-0.9-0.4-1.4
				c0-0.5,0.1-1,0.4-1.5c0.3-0.4,0.9-0.6,1.4-0.6H901.8z"/>
			<path class="st3" d="M1077.9,79.8c0-12.5-10.2-22.7-22.7-22.7c-1.4,0-2.8,0.2-4.2,0.4c-8.4-18-29.7-25.7-47.7-17.4
				c-1.3,0.6-2.6,1.3-3.8,2.1c-6.5-11.2-20.9-15-32.1-8.4c-5.9,3.5-10,9.3-11.3,16c-1.7-0.3-3.4-0.5-5.1-0.5
				c-15.5-0.9-28.9,10.9-29.8,26.5c-0.9,15.5,10.9,28.9,26.5,29.8c1.1,0.1,2.2,0.1,3.4,0c1.6,0,3.3-0.2,4.9-0.4
				c1.5,12.9,13.2,22.1,26.1,20.5c7.3-0.9,13.8-5.1,17.5-11.4c16.8,10.5,38.9,5.3,49.3-11.5c0.2-0.4,0.5-0.8,0.7-1.1
				c1.9,0.5,3.8,0.8,5.7,0.8C1067.7,102.5,1077.9,92.3,1077.9,79.8"/>
			<g>
				<path class="st4" d="M1077.9,79.8c0-12.5-10.2-22.7-22.7-22.7c-1.4,0-2.8,0.2-4.2,0.4c-8.4-18-29.7-25.7-47.7-17.4
					c-1.3,0.6-2.6,1.3-3.8,2.1c-6.5-11.2-20.9-15-32.1-8.4c-5.9,3.5-10,9.3-11.3,16c-1.7-0.3-3.4-0.5-5.1-0.5
					c-15.5-0.9-28.9,10.9-29.8,26.5c-0.9,15.5,10.9,28.9,26.5,29.8c1.1,0.1,2.2,0.1,3.4,0c1.6,0,3.3-0.2,4.9-0.4
					c1.5,12.9,13.2,22.1,26.1,20.5c7.3-0.9,13.8-5.1,17.5-11.4c16.8,10.5,38.9,5.3,49.3-11.5c0.2-0.4,0.5-0.8,0.7-1.1
					c1.9,0.5,3.8,0.8,5.7,0.8C1067.7,102.5,1077.9,92.3,1077.9,79.8z"/>
				<path class="st5" d="M950.3,43.3c0,0-17.9-2.2-26.5,11.8"/>
				<path class="st5" d="M1065.8,107.3c0,0,12.5-3.8,16.4-15.1"/>
			</g>
			<path class="st6" d="M17.5,33.4h60c8.3,0,15,6.7,15,15v60c0,8.3-6.7,15-15,15h-60c-8.3,0-15-6.7-15-15v-60
				C2.5,40.1,9.2,33.4,17.5,33.4z"/>
			<path class="st7" d="M17.5,33.4h60c8.3,0,15,6.7,15,15v60c0,8.3-6.7,15-15,15h-60c-8.3,0-15-6.7-15-15v-60
				C2.5,40.1,9.2,33.4,17.5,33.4z"/>
			<g>
				<path class="st1" d="M33.5,61.6c1.7,0,3.4,0.2,5,0.7c1.3,0.4,2.5,1.1,3.5,1.9c0.9,0.8,1.7,1.8,2.2,2.9c0.5,1.1,0.7,2.3,0.7,3.5
					v0.3c0,0.9-0.1,1.7-0.4,2.5c-0.2,0.9-0.6,1.7-1.1,2.4c-0.5,0.8-1.1,1.5-1.9,2c-0.8,0.6-1.8,1.1-2.8,1.4c1,0.2,2,0.5,3,0.9
					c0.9,0.4,1.7,0.9,2.4,1.6c0.7,0.7,1.3,1.5,1.7,2.4c0.4,1,0.6,2.1,0.6,3.2v0.5c0,1.4-0.3,2.7-0.8,4c-0.5,1.3-1.3,2.4-2.4,3.3
					c-1.1,1-2.4,1.8-3.9,2.3c-1.8,0.6-3.6,0.9-5.5,0.8c-3.7,0.1-7.3-0.9-10.3-2.9c-0.6-0.3-1-0.9-1.1-1.5c-0.1-0.6,0-1.3,0.4-1.8
					c0.3-0.5,0.8-0.9,1.4-1.1c0.6-0.1,1.2,0,1.7,0.4c1.1,0.8,2.4,1.4,3.7,1.8c1.3,0.4,2.6,0.6,3.9,0.6c1.2,0.1,2.4-0.1,3.6-0.5
					c0.9-0.2,1.7-0.7,2.4-1.3c0.6-0.5,1.1-1.1,1.4-1.9c0.3-0.7,0.4-1.5,0.4-2.3v-0.4c0-1-0.2-1.9-0.6-2.8c-0.4-0.7-0.9-1.3-1.6-1.7
					c-0.8-0.5-1.6-0.8-2.5-1c-1.1-0.2-2.1-0.3-3.2-0.3h-2.8c-0.6,0.1-1.1-0.2-1.4-0.7c-0.5-0.9-0.5-2.1,0-3c0.3-0.5,0.8-0.7,1.4-0.7
					H33c1.8,0.1,3.5-0.4,5-1.4c1.4-0.9,2-2.4,2-4.5l0,0c0.1-1.4-0.5-2.8-1.6-3.7c-1.4-1.1-3.1-1.6-4.9-1.5c-1.3,0-2.5,0.2-3.7,0.7
					c-1,0.6-2,1.3-2.8,2.2c-0.4,0.5-1,0.7-1.6,0.7c-0.5-0.1-1-0.4-1.4-0.8c-0.4-0.4-0.7-0.9-0.6-1.5c0-0.6,0.2-1.2,0.6-1.6
					c1-1.2,2.3-2.2,3.8-2.9C29.6,62,31.5,61.6,33.5,61.6z"/>
				<path class="st1" d="M73.8,62.8c0.5,0.9,0.5,2.1,0,3c-0.3,0.4-0.9,0.6-1.4,0.6H58.9l-0.6,11.1c0.9-0.7,1.9-1.2,3-1.6
					c1.3-0.5,2.8-0.7,4.2-0.7c1.6,0,3.1,0.3,4.6,0.8c1.3,0.6,2.4,1.4,3.3,2.4c1,0.9,1.7,2.1,2.1,3.4c0.5,1.4,0.8,2.8,0.8,4.3v0.5
					c0,1.4-0.3,2.8-0.7,4.2c-0.5,1.4-1.2,2.6-2.2,3.7c-1.1,1.2-2.4,2.1-3.9,2.7c-1.8,0.7-3.8,1.1-5.8,1c-2.1,0-4.1-0.2-6.1-0.7
					c-1.7-0.5-3.2-1.2-4.7-2.2c-0.5-0.3-0.9-0.9-1-1.5c-0.1-0.6,0-1.2,0.4-1.7c0.5-1,1.6-1.5,2.6-1c0.1,0.1,0.2,0.1,0.4,0.2
					c1.2,0.8,2.4,1.4,3.8,1.8c1.5,0.4,3,0.6,4.6,0.6c1.2,0,2.3-0.2,3.4-0.6c0.9-0.3,1.7-0.8,2.4-1.5c0.6-0.6,1.1-1.4,1.3-2.3
					c0.3-0.9,0.5-1.8,0.5-2.7v-0.4c0.1-1.9-0.6-3.8-1.9-5.2c-1.5-1.2-3.5-1.8-5.4-1.7c-1.2,0-2.4,0.2-3.5,0.6c-1,0.4-2,1-2.8,1.7
					c-0.3,0.3-0.7,0.6-1.2,0.8l-1.1,0.2c-0.6,0-1.1-0.2-1.6-0.5c-0.4-0.3-0.6-0.8-0.5-1.3L54.1,66c0-0.6,0.1-1.3,0.3-1.9
					c0.1-0.4,0.3-0.8,0.6-1.2c0.3-0.3,0.7-0.5,1.2-0.6l1.8-0.2h14.4C73,62.1,73.5,62.4,73.8,62.8z"/>
			</g>
			<path class="st1" d="M844.4,62.8c0.6,0.5,0.9,1.2,0.8,2v0.7c0,0.3-0.1,0.5-0.2,0.8l-0.4,1l-0.7,1.5l-12.6,27.8
				c-0.3,0.7-0.7,1.2-1.3,1.3c-0.6,0.1-1.2,0-1.8-0.3c-0.6-0.2-1-0.6-1.3-1.1c-0.3-0.6-0.2-1.3,0.1-1.9l12.9-28.2h-18.2
				c-0.5,0-1-0.2-1.3-0.6c-0.7-0.9-0.7-2.1,0-3c0.3-0.4,0.8-0.7,1.3-0.7h20C842.7,62,843.6,62.3,844.4,62.8z"/>
			<path class="st8" d="M138.6,73.2l-4.4-4.5c-0.7-0.8-1.9-0.8-2.7-0.1c-0.4,0.4-0.7,0.9-0.6,1.5v5.3c0,0.4-0.4,0.8-0.8,0.8l0,0
				h-14.3c-2.7,0.4-4.6,2.9-4.2,5.7c0.3,2.2,2,3.9,4.2,4.2h14.3c0.4,0,0.8,0.4,0.8,0.8v5.4c0,1,0.8,1.9,1.9,1.9
				c0.5,0,1.1-0.2,1.4-0.6l4.4-4.5l6.2-6.4c0.8-0.7,0.9-2,0.2-2.8c-0.1-0.1-0.1-0.1-0.2-0.2L138.6,73.2z"/>
			<path class="st9" d="M140.2,93.6l4.3-4.5l5.8-6.4c0.8-0.8,0.8-2.2,0-3l-5.8-6.5l-4.3-4.5"/>
			<path class="st1" d="M219.9,62.8c0.6,0.5,0.8,1.2,0.8,2v0.7c-0.1,0.2-0.1,0.5-0.2,0.8c-0.2,0.3-0.3,0.7-0.4,1l-0.7,1.5
				l-12.6,27.8c-0.2,0.6-0.7,1.1-1.4,1.3c-0.6,0.1-1.2,0-1.7-0.3c-0.6-0.2-1-0.6-1.3-1.1c-0.3-0.6-0.3-1.3,0.1-1.9l12.9-28.2h-18.2
				c-0.5,0-1.1-0.2-1.4-0.6c-0.5-0.9-0.5-2.1,0-3c0.3-0.4,0.8-0.7,1.4-0.7h20C218.2,62,219.1,62.3,219.9,62.8z"/>
			<path class="st6" d="M188.5,33.4h40c8.3,0,15,6.7,15,15v60c0,8.3-6.7,15-15,15h-40c-8.3,0-15-6.7-15-15v-60
				C173.5,40.1,180.2,33.4,188.5,33.4z"/>
			<path class="st7" d="M188.5,33.9h40c8.3,0,15,6.7,15,15v60c0,8.3-6.7,15-15,15h-40c-8.3,0-15-6.7-15-15v-60
				C173.5,40.6,180.2,33.9,188.5,33.9z"/>
			<path class="st1" d="M313.3,62.8c0.6,0.5,0.8,1.2,0.8,2c0,0.2,0,0.5-0.1,0.7c0,0.3-0.1,0.5-0.2,0.8c-0.1,0.3-0.2,0.7-0.4,1
				c-0.1,0.5-0.3,1-0.6,1.5l-12.6,27.8c-0.2,0.6-0.7,1.1-1.4,1.3c-0.6,0.1-1.2,0-1.8-0.3c-0.5-0.2-1-0.6-1.2-1.1
				c-0.3-0.6-0.3-1.3,0-1.9l13-28.2h-18.3c-0.5,0-1-0.2-1.3-0.6c-0.5-0.9-0.5-2.1,0-3c0.3-0.4,0.8-0.7,1.3-0.7h20.1
				C311.6,62,312.5,62.3,313.3,62.8z"/>
			<path class="st6" d="M281,34.4h40c8.3,0,15,6.7,15,15v60c0,8.3-6.7,15-15,15h-40c-8.3,0-15-6.7-15-15v-60
				C266,41.1,272.7,34.4,281,34.4z"/>
			<path class="st1" d="M404.9,62.8c0.6,0.5,0.8,1.2,0.8,2v0.7c-0.1,0.2-0.1,0.5-0.2,0.8c-0.2,0.3-0.3,0.7-0.4,1l-0.7,1.5
				l-12.6,27.8c-0.2,0.6-0.7,1.1-1.4,1.3c-0.6,0.1-1.2,0-1.7-0.3c-0.6-0.2-1-0.6-1.3-1.1c-0.3-0.6-0.3-1.3,0.1-1.9l12.9-28.2h-18.2
				c-0.5,0-1.1-0.2-1.4-0.6c-0.5-0.9-0.5-2.1,0-3c0.3-0.4,0.8-0.7,1.4-0.7h20C403.2,62,404.1,62.3,404.9,62.8z"/>
			<path class="st6" d="M373.5,33.4h40c8.3,0,15,6.7,15,15v60c0,8.3-6.7,15-15,15h-40c-8.3,0-15-6.7-15-15v-60
				C358.5,40.1,365.2,33.4,373.5,33.4z"/>
			<path class="st1" d="M498.3,62.8c0.6,0.5,0.8,1.2,0.8,2c0,0.2,0,0.5-0.1,0.7c0,0.3-0.1,0.5-0.2,0.8c-0.1,0.3-0.2,0.7-0.4,1
				c-0.1,0.5-0.3,1-0.6,1.5l-12.6,27.8c-0.2,0.6-0.7,1.1-1.4,1.3c-0.6,0.1-1.2,0-1.8-0.3c-0.5-0.2-1-0.6-1.2-1.1
				c-0.3-0.6-0.3-1.3,0-1.9l13-28.2h-18.3c-0.5,0-1-0.2-1.3-0.6c-0.5-0.9-0.5-2.1,0-3c0.3-0.4,0.8-0.7,1.3-0.7h20.1
				C496.6,62,497.5,62.3,498.3,62.8z"/>
			<path class="st6" d="M466,34.4h40c8.3,0,15,6.7,15,15v60c0,8.3-6.7,15-15,15h-40c-8.3,0-15-6.7-15-15v-60
				C451,41.1,457.7,34.4,466,34.4z"/>
			<path class="st1" d="M590.8,62.8c0.6,0.5,0.8,1.2,0.8,2c0,0.2,0,0.5-0.1,0.7c0,0.3-0.1,0.5-0.2,0.8c-0.1,0.3-0.2,0.7-0.4,1
				c-0.1,0.5-0.3,1-0.6,1.5l-12.6,27.8c-0.2,0.6-0.7,1.1-1.4,1.3c-0.6,0.1-1.2,0-1.8-0.3c-0.5-0.2-1-0.6-1.2-1.1
				c-0.3-0.6-0.3-1.3,0-1.9l13-28.2H568c-0.5,0-1-0.2-1.3-0.6c-0.5-0.9-0.5-2.1,0-3c0.3-0.4,0.8-0.7,1.3-0.7h20.1
				C589.1,62,590,62.3,590.8,62.8z"/>
			<path class="st6" d="M558.5,34.4h40c8.3,0,15,6.7,15,15v60c0,8.3-6.7,15-15,15h-40c-8.3,0-15-6.7-15-15v-60
				C543.5,41.1,550.2,34.4,558.5,34.4z"/>
			<path class="st7" d="M281,33.9h40c8.3,0,15,6.7,15,15v60c0,8.3-6.7,15-15,15h-40c-8.3,0-15-6.7-15-15v-60
				C266,40.6,272.7,33.9,281,33.9z"/>
			<path class="st7" d="M374,33.9h40c8.3,0,15,6.7,15,15v60c0,8.3-6.7,15-15,15h-40c-8.3,0-15-6.7-15-15v-60
				C359,40.6,365.7,33.9,374,33.9z"/>
			<path class="st7" d="M466,33.9h40c8.3,0,15,6.7,15,15v60c0,8.3-6.7,15-15,15h-40c-8.3,0-15-6.7-15-15v-60
				C451,40.6,457.7,33.9,466,33.9z"/>
			<path class="st7" d="M559,33.9h40c8.3,0,15,6.7,15,15v60c0,8.3-6.7,15-15,15h-40c-8.3,0-15-6.7-15-15v-60
				C544,40.6,550.7,33.9,559,33.9z"/>
		</g>
	</g>
</g>
<g class="st10">
	<g id="활동3-1-2" class="st11">
		<g>
			<path class="st3" d="M1076,80c0.1-12.5-10-22.6-22.5-22.7c-0.1,0-0.1,0-0.2,0c-1.4,0-2.8,0.2-4.2,0.4
				c-5.9-12.7-18.6-20.8-32.6-20.8c-6.7,0-13.2,1.9-18.9,5.5c-6.5-11.2-20.9-15-32.1-8.5c-5.9,3.4-10,9.3-11.3,16
				c-1.7-0.3-3.4-0.4-5.1-0.4c-15.5-0.9-28.9,10.9-29.8,26.5c-0.9,15.5,10.9,28.9,26.5,29.8c1.1,0.1,2.2,0.1,3.4,0
				c1.6,0,3.3-0.2,4.9-0.5c1.5,12.9,13.2,22.1,26.1,20.6c7.3-0.9,13.8-5.1,17.5-11.4c16.8,10.5,38.9,5.3,49.3-11.5
				c0.2-0.4,0.5-0.8,0.7-1.1c1.9,0.5,3.8,0.7,5.7,0.7c12.5,0.1,22.6-10,22.7-22.5C1076,80.1,1076,80,1076,80"/>
			<path class="st12" d="M1076,80c0.1-12.5-10-22.6-22.5-22.7c-0.1,0-0.1,0-0.2,0c-1.4,0-2.8,0.2-4.2,0.4
				c-5.9-12.7-18.6-20.8-32.6-20.8c-6.7,0-13.2,1.9-18.9,5.5c-6.5-11.2-20.9-15-32.1-8.5c-5.9,3.4-10,9.3-11.3,16
				c-1.7-0.3-3.4-0.4-5.1-0.4c-15.5-0.9-28.9,10.9-29.8,26.5c-0.9,15.5,10.9,28.9,26.5,29.8c1.1,0.1,2.2,0.1,3.4,0
				c1.6,0,3.3-0.2,4.9-0.5c1.5,12.9,13.2,22.1,26.1,20.6c7.3-0.9,13.8-5.1,17.5-11.4c16.8,10.5,38.9,5.3,49.3-11.5
				c0.2-0.4,0.5-0.8,0.7-1.1c1.9,0.5,3.8,0.7,5.7,0.7c12.5,0.1,22.6-10,22.7-22.5C1076,80.1,1076,80,1076,80z"/>
			<path class="st13" d="M948.4,43.5c0,0-17.9-2.2-26.5,11.8"/>
			<path class="st13" d="M1063.9,107.4c0,0,12.5-3.8,16.4-15"/>
			<g>
				<polygon class="st14" points="835.9,131.9 775.9,131.9 835.9,156.8 				"/>
				<polygon class="st14" points="835.9,24.9 775.9,24.9 835.9,0 				"/>
				<path class="st14" d="M852.6,112.1V44.9C852.6,29.8,838,29,838,29H712.8c-23.7,0-77.4,25.4-77.4,49.5s53.7,49.4,77.4,49.4H838
					C852.6,125.9,852.6,112.1,852.6,112.1"/>
			</g>
			<path class="st1" d="M699.7,62.4c0.6,0.6,0.9,1.3,0.8,2.1c0,0.2,0,0.5-0.1,0.7c0,0.2-0.1,0.5-0.2,0.7l-0.4,1
				c-0.2,0.5-0.4,1.1-0.6,1.6l-12.6,27.8c-0.2,0.6-0.8,1.1-1.4,1.2c-0.6,0.1-1.2,0-1.8-0.2c-0.5-0.3-0.9-0.7-1.2-1.2
				c-0.3-0.6-0.3-1.3,0-1.9l13-28.1h-18.3c-0.5,0-1-0.2-1.3-0.7c-0.3-0.4-0.4-1-0.4-1.5c0-0.5,0.1-1,0.4-1.5
				c0.3-0.4,0.8-0.6,1.3-0.6H697C697.9,61.7,698.9,61.9,699.7,62.4z"/>
			<path class="st2" d="M727.1,78.3l7.1-7.1c1-0.9,1-2.4,0.1-3.4c0,0-0.1-0.1-0.1-0.1c-1-1-2.5-1-3.5,0l-7.1,7.1l-7.1-7.1
				c-0.9-1-2.4-1-3.4-0.1c0,0-0.1,0.1-0.1,0.1c-1,1-1,2.5,0,3.5l7.1,7.1l-7.1,7.1c-1,0.9-1,2.4-0.1,3.4c0,0,0.1,0.1,0.1,0.1
				c1,1,2.5,1,3.5,0l7.1-7.1l7.1,7.1c0.9,1,2.4,1,3.4,0.1c0,0,0.1-0.1,0.1-0.1c1-1,1-2.5,0-3.5L727.1,78.3z"/>
			<path class="st1" d="M894.9,72.3c0.5,0,1,0.2,1.3,0.6c0.3,0.4,0.4,0.9,0.4,1.4c0,0.5-0.1,1.1-0.4,1.5c-0.3,0.4-0.8,0.6-1.3,0.6
				h-20.1c-0.5,0-1.1-0.2-1.4-0.6c-0.3-0.5-0.4-1-0.4-1.5c0-0.5,0.2-1,0.4-1.4c0.3-0.4,0.9-0.6,1.4-0.6H894.9z M894.9,82.8
				c0.5,0,1,0.2,1.3,0.7c0.3,0.4,0.4,0.9,0.4,1.4c0,0.5-0.1,1.1-0.4,1.5c-0.3,0.4-0.8,0.6-1.3,0.6h-20.1c-0.5,0-1.1-0.2-1.4-0.6
				c-0.3-0.5-0.4-1-0.4-1.5c0-0.5,0.2-1,0.4-1.4c0.3-0.5,0.8-0.7,1.4-0.7H894.9z"/>
			<g>
				<path class="st1" d="M979.5,61.2c1.7,0,3.4,0.2,5,0.7c1.3,0.4,2.5,1.1,3.5,2c1,0.8,1.7,1.8,2.2,2.9c0.5,1.1,0.7,2.3,0.7,3.5v0.2
					c0,0.9-0.1,1.8-0.4,2.6c-0.2,0.9-0.6,1.7-1.1,2.4c-0.5,0.8-1.2,1.4-1.9,2c-0.9,0.6-1.8,1-2.8,1.3c1,0.2,2,0.5,3,0.9
					c0.9,0.4,1.7,0.9,2.4,1.6c0.7,0.7,1.3,1.6,1.7,2.5c0.4,1,0.6,2.1,0.6,3.2v0.5c0,1.3-0.3,2.7-0.8,3.9c-0.5,1.3-1.3,2.5-2.4,3.4
					c-1.1,1-2.5,1.8-3.9,2.2c-1.8,0.6-3.6,0.9-5.5,0.9c-3.6,0.1-7.2-0.9-10.3-2.9c-0.6-0.3-1-0.9-1.1-1.5c-0.1-0.6,0.1-1.3,0.4-1.8
					c0.3-0.6,0.8-1,1.4-1.1c0.6-0.1,1.2,0,1.7,0.3c1.1,0.8,2.4,1.4,3.7,1.9c1.3,0.4,2.6,0.6,3.9,0.6c1.2,0,2.4-0.2,3.6-0.5
					c0.9-0.3,1.7-0.7,2.4-1.3c0.6-0.5,1.1-1.2,1.4-2c0.3-0.7,0.4-1.5,0.4-2.3v-0.4c0-0.9-0.2-1.9-0.6-2.7c-0.4-0.7-0.9-1.4-1.6-1.8
					c-0.8-0.5-1.6-0.8-2.5-1c-1.1-0.2-2.1-0.3-3.2-0.3h-2.8c-0.5,0-1.1-0.2-1.4-0.6c-0.3-0.5-0.4-1-0.4-1.6c0-0.5,0.1-1.1,0.4-1.5
					c0.3-0.4,0.9-0.6,1.4-0.6h2.4c1.8,0.1,3.5-0.4,5-1.4c1.4-1.1,2.1-2.8,2-4.5v-0.2c0-1.4-0.5-2.8-1.6-3.7c-1.4-1-3.2-1.5-4.9-1.4
					c-1.3,0-2.5,0.3-3.7,0.8c-1.1,0.5-2,1.3-2.8,2.2c-0.4,0.4-1,0.7-1.6,0.6c-0.6,0-1.1-0.3-1.4-0.8c-0.5-0.3-0.7-0.9-0.6-1.5
					c0-0.6,0.2-1.1,0.6-1.5c1-1.3,2.3-2.3,3.8-3C975.6,61.6,977.5,61.2,979.5,61.2z"/>
				<path class="st1" d="M1019.8,62.4c0.5,1,0.5,2.1,0,3.1c-0.3,0.4-0.9,0.6-1.4,0.6h-13.5l-0.6,11c0.9-0.6,1.9-1.2,3-1.6
					c1.4-0.5,2.8-0.7,4.2-0.7c1.6,0,3.1,0.3,4.6,0.9c1.3,0.5,2.4,1.3,3.3,2.3c1,1,1.7,2.2,2.1,3.5c0.5,1.3,0.8,2.8,0.8,4.2v0.6
					c0,1.4-0.3,2.8-0.7,4.2c-0.5,1.4-1.2,2.6-2.2,3.7c-1.1,1.2-2.4,2.1-3.9,2.7c-1.9,0.7-3.8,1-5.8,1c-2.1,0-4.1-0.3-6.1-0.8
					c-1.7-0.5-3.2-1.2-4.7-2.1c-0.5-0.3-0.9-0.9-1-1.5c-0.1-0.6,0-1.3,0.4-1.8c0.4-1,1.5-1.4,2.5-1c0.2,0.1,0.4,0.2,0.5,0.3
					c1.2,0.7,2.5,1.3,3.8,1.7c1.5,0.4,3,0.6,4.6,0.6c1.2,0,2.3-0.2,3.4-0.5c0.9-0.3,1.7-0.9,2.4-1.6c0.6-0.6,1.1-1.4,1.3-2.2
					c0.3-0.9,0.5-1.8,0.5-2.8v-0.3c0.1-1.9-0.6-3.8-1.9-5.2c-1.5-1.3-3.4-1.9-5.4-1.8c-1.2,0-2.4,0.2-3.5,0.7c-1,0.4-2,1-2.8,1.7
					c-0.4,0.3-0.8,0.5-1.2,0.7c-0.3,0.2-0.7,0.2-1.1,0.2c-0.6,0.1-1.1-0.1-1.6-0.4c-0.4-0.3-0.6-0.8-0.5-1.3l0.8-14.9
					c0-0.6,0.1-1.3,0.3-1.9c0.2-0.9,0.9-1.6,1.8-1.7c0.6-0.2,1.2-0.3,1.8-0.2h14.4C1018.9,61.8,1019.5,62,1019.8,62.4z"/>
			</g>
			<path class="st15" d="M519.9,43.9c0-2.6,1.7-6.8,8.7-7.8"/>
			<line class="st16" x1="519.5" y1="56.4" x2="519.5" y2="112.5"/>
			<path class="st15" d="M609,118.8c0.1,2-0.6,3.9-2,5.3"/>
			<line class="st16" x1="442" y1="106.3" x2="442" y2="50.2"/>
			<path class="st17" d="M487.6,73.4l-4.4-4.5c-0.7-0.8-1.9-0.8-2.7-0.1c-0.4,0.4-0.7,0.9-0.6,1.5v5.3c0,0.4-0.4,0.8-0.8,0.8h-14.3
				c-2.7,0.4-4.6,2.9-4.2,5.7c0.3,2.2,2,3.9,4.2,4.2h14.3c0.4,0,0.8,0.4,0.8,0.8v5.3c-0.1,1,0.7,1.9,1.8,2c0.6,0,1.1-0.2,1.5-0.6
				l4.4-4.5l6.2-6.4c0.8-0.9,0.8-2.2,0-3.1L487.6,73.4z"/>
			<path class="st18" d="M489.1,93.8l4.4-4.5l5.8-6.4c0.8-0.9,0.8-2.2,0-3.1l-5.8-6.4l-4.4-4.5"/>
			<path class="st19" d="M534.1,35.3h60c8.3,0,15,6.7,15,15v60c0,8.3-6.7,15-15,15h-60c-8.3,0-15-6.7-15-15v-60
				C519.1,42,525.8,35.3,534.1,35.3z"/>
			<g>
				<path class="st1" d="M550.1,64.8c1.7,0,3.4,0.2,5,0.7c1.3,0.4,2.5,1,3.6,1.9c0.9,0.8,1.6,1.8,2.1,2.9c0.5,1.1,0.7,2.3,0.7,3.5
					v0.3c0,0.8-0.1,1.7-0.3,2.5c-0.3,0.8-0.7,1.6-1.2,2.4c-0.5,0.8-1.2,1.4-1.9,2c-0.9,0.6-1.8,1.1-2.8,1.4c1,0.1,2.1,0.4,3,0.8
					c0.9,0.4,1.8,1,2.5,1.7c0.7,0.7,1.2,1.5,1.6,2.4c0.4,1,0.6,2.1,0.6,3.2V91c0,1.4-0.3,2.7-0.8,4c-0.5,1.2-1.3,2.4-2.3,3.3
					c-1.2,1-2.5,1.8-4,2.3c-5.3,1.6-11.1,0.8-15.8-2.1c-0.6-0.3-1-0.9-1.1-1.5c-0.1-0.6,0.1-1.3,0.4-1.8c0.3-0.5,0.8-0.9,1.4-1.1
					c0.6-0.1,1.2,0,1.7,0.4c1.2,0.7,2.4,1.3,3.7,1.8c1.3,0.4,2.6,0.6,3.9,0.6c1.2,0,2.4-0.2,3.6-0.5c0.9-0.3,1.7-0.7,2.5-1.3
					c0.6-0.5,1-1.2,1.3-1.9c0.3-0.7,0.4-1.5,0.4-2.3v-0.4c0-1-0.2-1.9-0.6-2.8c-0.4-0.7-0.9-1.3-1.6-1.8c-0.8-0.4-1.6-0.7-2.5-0.9
					c-1.1-0.2-2.1-0.3-3.2-0.3h-2.8c-0.6,0-1.1-0.3-1.4-0.7c-0.3-0.4-0.4-1-0.4-1.5c0-0.6,0.1-1.1,0.4-1.6c0.3-0.4,0.9-0.6,1.4-0.6
					h2.4c1.8,0.1,3.6-0.4,5.1-1.4c1.3-0.9,1.9-2.4,1.9-4.5l0,0c0.1-1.4-0.5-2.8-1.6-3.7c-1.1-1-2.7-1.4-4.9-1.4
					c-1.2,0-2.5,0.2-3.6,0.7c-1.1,0.5-2.1,1.3-2.9,2.2c-0.4,0.5-0.9,0.7-1.5,0.6c-0.6,0-1.1-0.3-1.5-0.7c-0.4-0.4-0.6-1-0.6-1.6
					c0-0.6,0.2-1.1,0.6-1.5c1.1-1.3,2.4-2.3,3.9-3C546.3,65.2,548.2,64.8,550.1,64.8z"/>
				<path class="st1" d="M590.4,66c0.5,0.9,0.5,2.1,0,3c-0.3,0.4-0.9,0.6-1.4,0.6h-13.5l-0.6,11.1c0.9-0.7,1.9-1.3,3-1.7
					c1.4-0.4,2.8-0.6,4.2-0.6c1.6-0.1,3.1,0.2,4.6,0.8c1.2,0.6,2.4,1.4,3.4,2.3c0.9,1,1.6,2.2,2.1,3.5c0.5,1.4,0.7,2.8,0.7,4.3v0.5
					c0,1.4-0.2,2.9-0.7,4.2c-0.4,1.4-1.2,2.7-2.2,3.7c-1.1,1.2-2.4,2.1-3.9,2.7c-1.8,0.7-3.8,1.1-5.8,1c-2,0.1-4.1-0.2-6-0.8
					c-1.7-0.5-3.3-1.2-4.8-2.1c-0.5-0.3-0.9-0.9-1-1.5c-0.1-0.6,0-1.2,0.4-1.7c0.8-1.3,1.8-1.6,3-0.8c1.2,0.7,2.5,1.3,3.8,1.7
					c1.5,0.5,3,0.7,4.6,0.7c1.2,0,2.3-0.2,3.4-0.6c0.9-0.3,1.7-0.9,2.4-1.6c0.6-0.6,1.1-1.4,1.4-2.2c0.2-0.9,0.4-1.8,0.4-2.7v-0.4
					c0.1-1.9-0.5-3.8-1.9-5.2c-1.5-1.2-3.4-1.8-5.4-1.7c-1.2,0-2.4,0.2-3.5,0.6c-1,0.4-2,1-2.8,1.7c-0.3,0.3-0.7,0.6-1.1,0.8
					l-1.2,0.2c-0.6,0-1.1-0.2-1.6-0.5c-0.4-0.3-0.6-0.8-0.5-1.3l0.8-14.8c0.1-0.8,0.2-1.4,0.3-1.9c0.2-0.4,0.4-0.9,0.7-1.2
					c0.3-0.3,0.7-0.5,1.1-0.6l1.8-0.2H589C589.6,65.2,590.1,65.5,590.4,66z"/>
			</g>
			<path class="st1" d="M49.9,63.9c0.6,0.5,0.8,1.2,0.8,2v0.7c-0.1,0.2-0.1,0.5-0.2,0.7c-0.1,0.3-0.3,0.7-0.4,1.1l-0.7,1.5
				L36.8,97.7c-0.2,0.6-0.8,1.1-1.4,1.2c-0.6,0.1-1.2,0.1-1.7-0.2c-0.5-0.2-1-0.6-1.3-1.1c-0.3-0.6-0.3-1.3,0.1-1.9l12.9-28.2H27.2
				c-0.5,0-1.1-0.2-1.4-0.6c-0.3-0.5-0.4-1-0.4-1.5c0-0.5,0.1-1.1,0.4-1.5c0.3-0.5,0.8-0.7,1.4-0.7h20
				C48.2,63.1,49.1,63.3,49.9,63.9z"/>
			<path class="st19" d="M18.5,35.7h40c8.3,0,15,6.7,15,15v60c0,8.3-6.7,15-15,15h-40c-8.3,0-15-6.7-15-15v-60
				C3.5,42.4,10.2,35.7,18.5,35.7z"/>
			<path class="st7" d="M18.5,35.7h40c8.3,0,15,6.7,15,15v60c0,8.3-6.7,15-15,15h-40c-8.3,0-15-6.7-15-15v-60
				C3.5,42.4,10.2,35.7,18.5,35.7z"/>
			<path class="st1" d="M143.3,63.9c0.6,0.5,0.8,1.2,0.8,2c0,0.2,0,0.5-0.1,0.7c0,0.2-0.1,0.5-0.2,0.7c-0.1,0.4-0.2,0.7-0.4,1.1
				c-0.1,0.5-0.3,1-0.6,1.5l-12.6,27.8c-0.2,0.6-0.8,1.1-1.4,1.2c-0.6,0.1-1.2,0.1-1.8-0.2c-0.5-0.2-0.9-0.6-1.2-1.1
				c-0.3-0.6-0.3-1.3,0-1.9l13-28.2h-18.3c-0.5,0-1-0.2-1.3-0.6c-0.3-0.5-0.4-1-0.4-1.5c0-0.5,0.1-1.1,0.4-1.5
				c0.3-0.5,0.8-0.7,1.3-0.7h20.1C141.6,63.1,142.5,63.3,143.3,63.9z"/>
			<path class="st19" d="M111,35.3h40c8.3,0,15,6.7,15,15v60c0,8.3-6.7,15-15,15h-40c-8.3,0-15-6.7-15-15v-60
				C96,42,102.7,35.3,111,35.3z"/>
			<path class="st19" d="M203.7,35.3h40c8.3,0,15,6.7,15,15v60c0,8.3-6.7,15-15,15h-40c-8.3,0-15-6.7-15-15v-60
				C188.7,42,195.4,35.3,203.7,35.3z"/>
			<path class="st1" d="M328.3,63.9c0.6,0.5,0.8,1.2,0.8,2c0,0.2,0,0.5-0.1,0.7c0,0.2-0.1,0.5-0.2,0.7c-0.1,0.4-0.2,0.7-0.4,1.1
				c-0.1,0.5-0.3,1-0.6,1.5l-12.6,27.8c-0.2,0.6-0.8,1.1-1.4,1.2c-0.6,0.1-1.2,0.1-1.8-0.2c-0.5-0.2-0.9-0.6-1.2-1.1
				c-0.3-0.6-0.3-1.3,0-1.9l13-28.2h-18.3c-0.5,0-1-0.2-1.3-0.6c-0.3-0.5-0.4-1-0.4-1.5c0-0.5,0.1-1.1,0.4-1.5
				c0.3-0.5,0.8-0.7,1.3-0.7h20.1C326.6,63.1,327.5,63.3,328.3,63.9z"/>
			<path class="st1" d="M236.1,63.9c0.6,0.5,0.8,1.2,0.8,2v0.7c-0.1,0.2-0.1,0.5-0.2,0.7c-0.1,0.3-0.3,0.7-0.4,1.1l-0.7,1.5
				L223,97.7c-0.2,0.6-0.8,1.1-1.4,1.2c-0.6,0.1-1.2,0.1-1.7-0.2c-0.5-0.2-1-0.6-1.3-1.1c-0.3-0.6-0.3-1.3,0.1-1.9l12.9-28.2h-18.2
				c-0.5,0-1.1-0.2-1.4-0.6c-0.3-0.5-0.4-1-0.4-1.5c0-0.5,0.1-1.1,0.4-1.5c0.3-0.5,0.8-0.7,1.4-0.7h20
				C234.4,63.1,235.3,63.3,236.1,63.9z"/>
			<path class="st19" d="M296,35.3h40c8.3,0,15,6.7,15,15v60c0,8.3-6.7,15-15,15h-40c-8.3,0-15-6.7-15-15v-60
				C281,42,287.7,35.3,296,35.3z"/>
			<path class="st1" d="M420.8,63.9c0.6,0.5,0.8,1.2,0.8,2c0,0.2,0,0.5-0.1,0.7c0,0.2-0.1,0.5-0.2,0.7c-0.1,0.4-0.2,0.7-0.4,1.1
				c-0.1,0.5-0.3,1-0.6,1.5l-12.6,27.8c-0.2,0.6-0.8,1.1-1.4,1.2c-0.6,0.1-1.2,0.1-1.8-0.2c-0.5-0.2-0.9-0.6-1.2-1.1
				c-0.3-0.6-0.3-1.3,0-1.9l13-28.2H398c-0.5,0-1-0.2-1.3-0.6c-0.3-0.5-0.4-1-0.4-1.5c0-0.5,0.1-1.1,0.4-1.5
				c0.3-0.5,0.8-0.7,1.3-0.7h20.1C419.1,63.1,420,63.3,420.8,63.9z"/>
			<path class="st19" d="M388.5,35.3h40c8.3,0,15,6.7,15,15v60c0,8.3-6.7,15-15,15h-40c-8.3,0-15-6.7-15-15v-60
				C373.5,42,380.2,35.3,388.5,35.3z"/>
			<path class="st7" d="M110.6,36.1h40c8.3,0,15,6.7,15,15v60c0,8.3-6.7,15-15,15h-40c-8.3,0-15-6.7-15-15v-60
				C95.6,42.8,102.3,36.1,110.6,36.1z"/>
			<path class="st7" d="M203.5,35.7h40c8.3,0,15,6.7,15,15v60c0,8.3-6.7,15-15,15h-40c-8.3,0-15-6.7-15-15v-60
				C188.5,42.4,195.2,35.7,203.5,35.7z"/>
			<path class="st7" d="M295.6,36.1h40c8.3,0,15,6.7,15,15v60c0,8.3-6.7,15-15,15h-40c-8.3,0-15-6.7-15-15v-60
				C280.6,42.8,287.3,36.1,295.6,36.1z"/>
			<path class="st7" d="M388.6,36.1h40c8.3,0,15,6.7,15,15v60c0,8.3-6.7,15-15,15h-40c-8.3,0-15-6.7-15-15v-60
				C373.6,42.8,380.3,36.1,388.6,36.1z"/>
			<path class="st7" d="M534.6,36.1h60c8.3,0,15,6.7,15,15v60c0,8.3-6.7,15-15,15h-60c-8.3,0-15-6.7-15-15v-60
				C519.6,42.8,526.3,36.1,534.6,36.1z"/>
		</g>
	</g>
</g>
</svg>
