<?xml version="1.0" encoding="utf-8"?>
<!-- Generator: Adobe Illustrator 23.1.0, SVG Export Plug-In . SVG Version: 6.00 Build 0)  -->
<svg version="1.1" id="레이어_1" xmlns="http://www.w3.org/2000/svg" xmlns:xlink="http://www.w3.org/1999/xlink" x="0px"
	 y="0px" width="518px" height="227px" viewBox="0 0 518 227" style="enable-background:new 0 0 518 227;" xml:space="preserve">
<title>6_3_8_01</title>
<g>
	<g>
		<polygon style="fill:#E0D7EA;" points="131.2,2.5 259.5,224.5 2.5,224.5 		"/>
	</g>
	<g>
		<path style="fill:#796BAF;" d="M259.5,226H2.5c-0.5,0-1-0.3-1.3-0.7c-0.3-0.5-0.3-1,0-1.5l128.7-222c0.3-0.5,0.8-0.7,1.3-0.7l0,0
			c0.5,0,1,0.3,1.3,0.7l128.3,222c0.3,0.5,0.3,1,0,1.5C260.5,225.7,260,226,259.5,226z M5.1,223H257L131.2,5.4L5.1,223z"/>
	</g>
	<g>
		<g>
			<path style="fill:#111111;" d="M134.3,96.2c0.7,0,1.3,0.2,1.9,0.5c0.5,0.4,0.8,1.1,0.7,1.7v31.8c0.1,0.6-0.2,1.2-0.7,1.6
				c-0.5,0.3-1.2,0.5-1.8,0.5s-1.2-0.2-1.7-0.5c-0.5-0.4-0.8-1-0.8-1.6v-28.1l-7.5,4.6c-0.5,0.4-1.2,0.5-1.8,0.2
				c-0.6-0.2-1.1-0.6-1.3-1.2c-0.3-0.5-0.4-1-0.3-1.6s0.5-1.1,1-1.4l9-5.4l1.8-0.8C133.3,96.3,133.8,96.2,134.3,96.2z"/>
		</g>
		<g>
			<path style="fill:#111111;" d="M130.1,152.8c1.7,0,3.4,0.2,5,0.7c1.3,0.4,2.5,1,3.6,1.9c0.9,0.8,1.6,1.8,2.1,2.9
				c0.5,1.1,0.8,2.3,0.8,3.5v0.3c0,0.8-0.2,1.7-0.4,2.5c-0.3,0.8-0.7,1.6-1.1,2.4c-0.6,0.8-1.2,1.4-2,2s-1.7,1.1-2.7,1.4
				c1,0.1,2,0.4,3,0.8c0.9,0.5,1.7,1,2.4,1.7s1.3,1.5,1.6,2.4c0.4,1,0.6,2.1,0.6,3.2v0.5c0,1.4-0.2,2.7-0.8,4
				c-0.5,1.2-1.3,2.4-2.3,3.3c-1.2,1-2.5,1.8-4,2.3c-5.3,1.6-11,0.8-15.7-2.1c-0.6-0.3-1-0.8-1.1-1.5c-0.1-0.6,0-1.3,0.4-1.8
				c0.2-0.5,0.7-0.9,1.3-1.1c0.6-0.1,1.3,0,1.8,0.4c1.1,0.8,2.3,1.4,3.6,1.8c2.5,0.8,5.1,0.8,7.6,0.1c0.9-0.3,1.7-0.7,2.4-1.3
				c0.6-0.5,1-1.2,1.3-1.9s0.5-1.5,0.5-2.3v-0.4c0.1-1.8-0.7-3.6-2.3-4.6c-0.8-0.4-1.6-0.7-2.5-0.9c-1-0.2-2.1-0.3-3.1-0.3h-2.9
				c-0.6,0-1.1-0.3-1.4-0.7c-0.3-0.5-0.4-1-0.4-1.5c0-0.6,0.2-1.1,0.4-1.6c0.3-0.4,0.9-0.6,1.4-0.6h2.5c1.8,0.1,3.5-0.4,5-1.4
				c1.4-1.1,2.1-2.8,2-4.5l0,0c0.1-1.4-0.6-2.8-1.7-3.7c-1-1-2.7-1.4-4.9-1.4c-1.2,0-2.5,0.2-3.6,0.7s-2,1.3-2.8,2.2
				c-0.4,0.5-1,0.7-1.6,0.6c-0.6,0-1.1-0.3-1.5-0.7s-0.6-1-0.6-1.6s0.2-1.1,0.6-1.5c1.1-1.3,2.4-2.3,3.9-3
				C126.3,153.2,128.2,152.8,130.1,152.8z"/>
		</g>
		<g>
			<path style="fill:#111111;" d="M148.2,143.8h-34.4c-0.8,0-1.5-0.7-1.5-1.5s0.7-1.5,1.5-1.5h34.4c0.8,0,1.5,0.7,1.5,1.5
				S149,143.8,148.2,143.8z"/>
		</g>
	</g>
</g>
<g>
	<g>
		<polygon style="fill:#E0D7EA;" points="259.1,224.6 130.8,2.6 387.8,2.6 		"/>
	</g>
	<g>
		<path style="fill:#796BAF;" d="M130.8,1.1h257c0.5,0,1,0.3,1.3,0.7c0.3,0.5,0.3,1,0,1.5l-128.7,222c-0.3,0.5-0.8,0.7-1.3,0.7l0,0
			c-0.5,0-1-0.3-1.3-0.7L129.5,3.3c-0.3-0.5-0.3-1,0-1.5C129.8,1.4,130.3,1.1,130.8,1.1z M385.2,4.1H133.3l125.8,217.6L385.2,4.1z"
			/>
	</g>
</g>
<g>
	<g>
		<polygon style="fill:#E0D7EA;" points="387.6,2.5 515.9,224.5 258.9,224.5 		"/>
	</g>
	<g>
		<path style="fill:#796BAF;" d="M515.9,226h-257c-0.5,0-1-0.3-1.3-0.7c-0.3-0.5-0.3-1,0-1.5l128.7-222c0.3-0.5,0.8-0.7,1.3-0.7l0,0
			c0.5,0,1,0.3,1.3,0.7l128.3,222c0.3,0.5,0.3,1,0,1.5C516.9,225.7,516.4,226,515.9,226z M261.5,223h251.9L387.6,5.4L261.5,223z"/>
	</g>
</g>
</svg>
