<?xml version="1.0" encoding="utf-8"?>
<!-- Generator: Adobe Illustrator 23.1.0, SVG Export Plug-In . SVG Version: 6.00 Build 0)  -->
<svg version="1.1" id="레이어_1" xmlns="http://www.w3.org/2000/svg" xmlns:xlink="http://www.w3.org/1999/xlink" x="0px"
	 y="0px" width="124px" height="64px" viewBox="0 0 124 64" style="enable-background:new 0 0 124 64;" xml:space="preserve">
<g>
	<path style="fill:#EDC6C9;stroke:#000000;stroke-miterlimit:10;" d="M62,32V2H2v60h30C32,45.4,45.4,32,62,32z"/>
	<path style="fill:#F2E19D;stroke:#000000;stroke-miterlimit:10;" d="M62,32c-16.6,0-30,13.4-30,30h30V32z"/>
	<rect x="2" y="2" style="fill:none;stroke:#000000;stroke-width:2;stroke-miterlimit:10;" width="60" height="60"/>
</g>
<g>
	<path style="fill:#EDC6C9;stroke:#000000;stroke-miterlimit:10;" d="M92,62h30V2H62v30C78.6,32,92,45.4,92,62z"/>
	<path style="fill:#F2E19D;stroke:#000000;stroke-miterlimit:10;" d="M92,62c0-16.6-13.4-30-30-30v30H92z"/>
	
		<rect x="62" y="2" transform="matrix(-1.836970e-16 1 -1 -1.836970e-16 124 -60)" style="fill:none;stroke:#000000;stroke-width:2;stroke-miterlimit:10;" width="60" height="60"/>
</g>
</svg>
