<?xml version="1.0" encoding="utf-8"?>
<!-- Generator: Adobe Illustrator 23.1.0, SVG Export Plug-In . SVG Version: 6.00 Build 0)  -->
<svg version="1.1" id="레이어_1" xmlns="http://www.w3.org/2000/svg" xmlns:xlink="http://www.w3.org/1999/xlink" x="0px"
	 y="0px" width="64px" height="30px" viewBox="0 0 64 30" style="enable-background:new 0 0 64 30;" xml:space="preserve">
<path style="fill:#BF7AB1;" d="M62.8,19.1v-0.4c0-2.6-0.9-5-2.6-6.8c-0.6-0.6-1.3-1.2-2-1.6c-0.7-0.4-1.4-0.7-2.2-0.9
	c-1.5-0.4-3.2-0.3-4.8-0.3h-4.6h-1.7c0-0.2,0-0.4,0-0.6l0-0.2c0-0.8,0-2.1-0.6-3.4c-1-2.5-3-4-5.6-4c-0.8,0-1.5,0.1-2.1,0.3
	C35.5,1,34.2,1,32.9,1.4c-0.5,0.2-1,0.4-1.4,0.6c-0.6-0.2-1.1-0.4-1.7-0.5c-0.9-0.2-1.9-0.2-3.1-0.1c-1.9,0.3-3.7,1.2-5,2.7
	C21,4.8,20.4,5.7,20,6.7c0,0.1-0.1,0.2-0.1,0.2c-0.3,0.9-0.5,1.6-0.6,2.1h-0.2H9.9c-2.4,0-4.6,1-6.3,2.8C1.9,13.7,1,16.2,1,18.7v0.4
	c0,2.6,0.9,5,2.6,6.8c1.7,1.8,3.9,2.8,6.3,2.8h43.9c2.4,0,4.6-1,6.3-2.8C61.9,24.2,62.8,21.7,62.8,19.1"/>
<path style="fill:#FFFFFF;" d="M28,6.4c-0.2,0-0.4,0-0.5,0c-0.8,0.1-1.5,0.5-2.1,1.1c-0.3,0.4-0.6,0.8-0.8,1.3
	c-0.2,0.5-0.3,0.9-0.4,1.5c-0.1,0.7-0.2,1.3-0.2,2c-0.1,0.8-0.1,1.6-0.1,2.5c0,1.2,0,2,0.1,3.3c0.1,0.8,0.2,1.5,0.5,2.2
	c0.4,0.9,0.8,1.6,1.5,2.1c0.8,0.5,1.7,0.6,2.6,0.4c1.8-0.4,2.8-2,3.2-3.7l1.9,0V21c0,0.4,0,1.8,0.6,2.2c0.2,0.1,0.4,0.2,0.6,0.2
	c0.6,0,1-0.3,1.1-0.8c0.2-0.7,0.2-1,0.2-1.7c0,0,0-1.9,0-12.6c0-0.1,0-1.2-0.2-1.5c-0.2-0.4-0.6-0.7-1.1-0.7c-0.1,0-0.3,0-0.4,0.1
	c-0.3,0.1-0.5,0.3-0.6,0.6c-0.1,0.1-0.1,0.3-0.2,0.4c-0.1,0.4-0.1,0.8-0.1,1.2v1.6h-1.6h-0.5c-0.2-0.9-0.5-1.8-1.3-2.6
	C30,6.8,29.5,6.5,29,6.5C28.6,6.4,28.3,6.4,28,6.4 M39.9,8.7c0-0.7,0-1.3-0.3-1.9C39.5,6.3,39.3,6,38.8,6c-0.4,0-0.8,0-1.1,0.3
	c-0.4,0.4-0.4,1.5-0.4,2.2v12.9c0,0.7,0.2,1.7,1.1,1.9c0.4,0.1,0.6,0,0.9-0.2c0.2-0.1,0.3-0.3,0.4-0.5c0.3-0.6,0.3-1.3,0.3-2.1v-5.3
	C39.9,13.3,40,10.9,39.9,8.7 M27.9,19.7c-1.6,0-1.4-3.7-1.4-5.1c0-1.5,0-3.1,0.5-4.4c0.2-0.6,0.6-0.9,1-0.9c0.4,0,0.7,0.2,1,0.7
	c0.4,0.9,0.4,2.9,0.5,4c0,1.4,0.1,2.6-0.2,3.9c-0.1,0.7-0.2,1.3-0.6,1.6C28.4,19.7,28.1,19.7,27.9,19.7 M33.6,12.5v4h-1.5H32
	c0-1.3,0-2.8,0-4L33.6,12.5z"/>
<path style="fill:#FFFFFF;" d="M10.3,23.2C8,23.2,6,21.3,6,18.9c0-2.4,1.9-4.3,4.3-4.3c2.4,0,4.3,1.9,4.3,4.3
	C14.6,21.3,12.7,23.2,10.3,23.2"/>
<path style="fill:#FFFFFF;" d="M53.2,23.2c-2.4,0-4.3-1.9-4.3-4.3c0-2.4,1.9-4.3,4.3-4.3c2.4,0,4.3,1.9,4.3,4.3
	C57.5,21.3,55.6,23.2,53.2,23.2"/>
</svg>
