
<svg xmlns="http://www.w3.org/2000/svg" version="1.1" xmlns:xlink="http://www.w3.org/1999/xlink" preserveAspectRatio="none" x="0px" y="0px" width="1045px" height="324px" viewBox="0 0 1045 324">
<defs>
<g id="Layer0_0_FILL">
<path fill="#000000" fill-opacity="0.09803921568627451" stroke="none" d="
M 726.35 290.75
L 726.35 280.85 634.15 280.85 545.15 280.85 456.15 280.85 367.15 280.85 278.15 280.85 189.15 280.85 99.5 280.85 99.5 290.75 726.35 290.75
M 726.35 110.75
L 726.35 100.75 569.6 100.75 412.9 100.75 256.2 100.75 99.5 100.75 99.5 110.75 726.35 110.75 Z"/>

<path fill="#1E1E1E" stroke="none" d="
M 103.85 115.5
Q 103.15 115.1 102.35 114.85 101.6 114.65 100.7 114.65 99.8 114.65 99 114.85 98.15 115.05 97.5 115.5 96.8 115.9 96.2 116.45 95.6 117.05 95.1 117.7 94.65 118.5 94.35 119.4 94 120.25 93.75 121.3 93.5 122.35 93.4 123.5 93.3 124.6 93.3 125.9 93.3 127.1 93.4 128.25 93.5 129.35 93.7 130.35 93.9 131.4 94.25 132.3 94.6 133.2 95.1 133.95 95.6 134.7 96.2 135.25 96.8 135.85 97.45 136.25 98.1 136.7 98.9 136.9 99.75 137.1 100.7 137.1 101.6 137.1 102.4 136.9 103.15 136.7 103.85 136.25 104.6 135.85 105.15 135.25 105.75 134.7 106.25 133.95 106.75 133.2 107.15 132.3 107.5 131.4 107.75 130.35 108 129.35 108.1 128.25 108.2 127.1 108.2 125.9 108.2 124.65 108.1 123.55 108 122.45 107.75 121.4 107.5 120.35 107.1 119.45 106.7 118.6 106.2 117.85 105.7 117.1 105.1 116.5 104.5 115.95 103.85 115.5
M 101.55 118.25
Q 101.95 118.4 102.35 118.7 102.75 119 103.05 119.4 103.35 119.85 103.6 120.4 103.8 120.9 103.95 121.5 104.15 122.15 104.3 122.85 104.45 123.55 104.5 124.3 104.6 125.1 104.6 125.9 104.6 126.7 104.55 127.45 104.45 128.25 104.35 128.9 104 130.35 103.6 131.45 103.4 132 103.05 132.4 102.75 132.85 102.4 133.15 101.95 133.45 101.55 133.6 101.15 133.8 100.7 133.8 100.25 133.8 99.8 133.6 99.4 133.45 99 133.1 98.3 132.5 97.75 131.4 97.55 130.85 97.4 130.2 97.2 129.6 97.15 128.85 97 128.15 96.95 127.4 96.9 126.65 96.9 125.9 96.9 125.05 96.95 124.3 97 123.55 97.15 122.8 97.2 122.1 97.4 121.45 97.55 120.85 97.8 120.3 98.05 119.8 98.4 119.4 98.7 118.95 99.1 118.65 99.45 118.4 99.85 118.25 100.25 118.1 100.7 118.1 101.15 118.1 101.55 118.25
M 727.05 115.75
Q 726.9 115.95 726.85 116.2 726.7 116.45 726.65 116.75 726.55 117 726.5 117.25 726.4 117.5 726.3 117.75 726.2 117.95 726.05 118.1 725.8 118.25 725.55 118.4 725.3 118.5 725 118.55 724.65 118.6 724.35 118.65 724 118.65 723.7 118.65 723.35 118.7 723.05 118.8 722.8 118.95 722.6 119.15 722.35 119.4 722.25 119.7 722.15 119.95 722.2 120.25 722.2 120.6 722.25 120.85 722.35 121.15 722.55 121.4 722.7 121.65 722.95 121.8 723.2 121.95 723.6 121.95
L 726.3 121.95
Q 726.3 123.6 726.3 125.25 726.3 126.9 726.3 128.55 726.3 131.85 726.3 135.2 726.3 135.5 726.45 135.75 726.6 136 726.9 136.2 727.15 136.45 727.5 136.55 727.8 136.65 728.15 136.65 728.3 136.65 728.4 136.65 728.55 136.6 728.7 136.55 728.8 136.5 728.95 136.45 729.05 136.35 729.2 136.25 729.35 136.15 729.5 136 729.65 135.9 729.75 135.75 729.8 135.65 729.85 135.5 729.9 135.35 729.9 135.2
L 729.9 133.95
Q 729.9 131.7 729.9 129.45 729.9 127.3 729.9 125.1 729.85 122.95 729.85 120.75 729.85 118.6 729.85 116.4 729.85 115.85 729.3 115.4 729 115.2 728.75 115.05 728.5 114.95 728.3 114.95 727.9 114.95 727.65 115.05 727.4 115.15 727.25 115.35 727.15 115.55 727.05 115.75
M 100.7 294.65
Q 99.8 294.65 99 294.85 98.15 295.05 97.5 295.5 96.8 295.9 96.2 296.45 95.6 297.05 95.1 297.7 94.65 298.5 94.35 299.4 94 300.25 93.75 301.3 93.5 302.35 93.4 303.5 93.3 304.6 93.3 305.9 93.3 307.1 93.4 308.25 93.5 309.35 93.7 310.35 93.9 311.4 94.25 312.3 94.6 313.2 95.1 313.95 95.6 314.7 96.2 315.25 96.8 315.85 97.45 316.25 98.1 316.7 98.9 316.9 99.75 317.1 100.7 317.1 101.6 317.1 102.4 316.9 103.15 316.7 103.85 316.25 104.6 315.85 105.15 315.25 105.75 314.7 106.25 313.95 106.75 313.2 107.15 312.3 107.5 311.4 107.75 310.35 108 309.35 108.1 308.25 108.2 307.1 108.2 305.9 108.2 304.65 108.1 303.55 108 302.45 107.75 301.4 107.5 300.35 107.1 299.45 106.7 298.6 106.2 297.85 105.7 297.1 105.1 296.5 104.5 295.95 103.85 295.5 103.15 295.1 102.35 294.85 101.6 294.65 100.7 294.65
M 101.55 298.25
Q 101.95 298.4 102.35 298.7 102.75 299 103.05 299.4 103.35 299.85 103.6 300.4 103.8 300.9 103.95 301.5 104.15 302.15 104.3 302.85 104.45 303.55 104.5 304.3 104.6 305.1 104.6 305.9 104.6 306.7 104.55 307.45 104.45 308.25 104.35 308.9 104 310.35 103.6 311.45 103.4 312 103.05 312.4 102.75 312.85 102.4 313.15 101.95 313.45 101.55 313.6 101.15 313.8 100.7 313.8 100.25 313.8 99.8 313.6 99.4 313.45 99 313.1 98.3 312.5 97.75 311.4 97.55 310.85 97.4 310.2 97.2 309.6 97.15 308.85 97 308.15 96.95 307.4 96.9 306.65 96.9 305.9 96.9 305.05 96.95 304.3 97 303.55 97.15 302.8 97.2 302.1 97.4 301.45 97.55 300.85 97.8 300.3 98.05 299.8 98.4 299.4 98.7 298.95 99.1 298.65 99.45 298.4 99.85 298.25 100.25 298.1 100.7 298.1 101.15 298.1 101.55 298.25
M 729.85 296.4
Q 729.85 295.85 729.3 295.4 729 295.2 728.75 295.05 728.5 294.95 728.3 294.95 727.9 294.95 727.65 295.05 727.4 295.15 727.25 295.35 727.15 295.55 727.05 295.75 726.9 295.95 726.85 296.2 726.7 296.45 726.65 296.75 726.55 297 726.5 297.25 726.4 297.5 726.3 297.75 726.2 297.95 726.05 298.1 725.8 298.25 725.55 298.4 725.3 298.5 725 298.55 724.65 298.6 724.35 298.65 724 298.65 723.7 298.65 723.35 298.7 723.05 298.8 722.8 298.95 722.6 299.15 722.35 299.4 722.25 299.7 722.15 299.95 722.2 300.25 722.2 300.6 722.25 300.85 722.35 301.15 722.55 301.4 722.7 301.65 722.95 301.8 723.2 301.95 723.6 301.95
L 726.3 301.95
Q 726.3 303.6 726.3 305.25 726.3 306.9 726.3 308.55 726.3 311.85 726.3 315.2 726.3 315.5 726.45 315.75 726.6 316 726.9 316.2 727.15 316.45 727.5 316.55 727.8 316.65 728.15 316.65 728.3 316.65 728.4 316.65 728.55 316.6 728.7 316.55 728.8 316.5 728.95 316.45 729.05 316.35 729.2 316.25 729.35 316.15 729.5 316 729.65 315.9 729.75 315.75 729.8 315.65 729.85 315.5 729.9 315.35 729.9 315.2
L 729.9 313.95
Q 729.9 311.7 729.9 309.45 729.9 307.3 729.9 305.1 729.85 302.95 729.85 300.75 729.85 298.6 729.85 296.4
M 44.15 245.8
Q 44.15 245.35 44 245.2 43.85 245.05 43.15 245.05
L 26.15 245.05
Q 25.45 245.05 25.45 245.7
L 25.45 248.5
Q 25.45 248.85 25.65 249 25.85 249.2 26.15 249.2
L 38.9 249.2 28.45 274.75
Q 28.3 275.2 28.45 275.3 28.6 275.45 29.2 275.45
L 32.45 275.45
Q 32.85 275.45 33 275.35 33.15 275.2 33.35 274.9
L 43.9 248.85
Q 44.15 248.55 44.15 248.2
L 44.15 245.8
M 38 196.15
Q 38 195.35 37.85 195.2 37.75 195.05 37.05 195.05
L 34.95 195.05
Q 34.8 195.05 34.6 195.15 34.4 195.2 34.35 195.3
L 28.2 200.95
Q 28 201.15 28 201.35 27.95 201.6 28.1 201.75
L 29.9 203.9
Q 30.05 204.05 30.3 204 30.55 204 30.8 203.85
L 33.75 201.25 33.75 224.95
Q 33.75 225.45 34.3 225.45
L 37.5 225.45
Q 38 225.45 38 224.95
L 38 196.15
M 29.9 23.9
Q 30.05 24.05 30.3 24 30.55 24 30.8 23.85
L 33.75 21.25 33.75 44.95
Q 33.75 45.45 34.3 45.45
L 37.5 45.45
Q 38 45.45 38 44.95
L 38 16.15
Q 38 15.35 37.85 15.2 37.75 15.05 37.05 15.05
L 34.95 15.05
Q 34.8 15.05 34.6 15.15 34.4 15.2 34.35 15.3
L 28.2 20.95
Q 28 21.15 28 21.35 27.95 21.6 28.1 21.75
L 29.9 23.9
M 37.6 65.05
Q 37.2 65.05 37.1 65.15 37 65.25 36.8 65.6
L 24.4 84.2
Q 24.25 84.35 24.1 84.65 23.9 84.95 23.9 85.2
L 23.9 88.2
Q 23.9 88.5 24.05 88.55 24.2 88.65 24.55 88.65
L 37.35 88.65 37.35 94.75
Q 37.35 95.15 37.5 95.3 37.65 95.45 38.1 95.45
L 41 95.45
Q 41.4 95.45 41.5 95.3 41.65 95.2 41.65 94.75
L 41.65 88.65 45.35 88.65
Q 45.7 88.65 45.85 88.55 46 88.45 46 88.05
L 46 85.15
Q 46 84.75 45.85 84.65 45.7 84.55 45.35 84.55
L 41.65 84.55 41.65 65.65
Q 41.65 65.3 41.6 65.2 41.55 65.05 41.25 65.05
L 37.6 65.05
M 37.35 84.55
L 28.75 84.55 37.35 71.5 37.35 84.55
M 867.15 145.65
Q 866.75 145.65 866.65 145.75 866.55 145.85 866.35 146.2
L 853.95 164.8
Q 853.8 164.95 853.65 165.25 853.45 165.55 853.45 165.8
L 853.45 168.8
Q 853.45 169.1 853.6 169.15 853.75 169.25 854.1 169.25
L 866.9 169.25 866.9 175.35
Q 866.9 175.75 867.05 175.9 867.2 176.05 867.65 176.05
L 870.55 176.05
Q 870.95 176.05 871.05 175.9 871.2 175.8 871.2 175.35
L 871.2 169.25 874.9 169.25
Q 875.25 169.25 875.4 169.15 875.55 169.05 875.55 168.65
L 875.55 165.75
Q 875.55 165.35 875.4 165.25 875.25 165.15 874.9 165.15
L 871.2 165.15 871.2 146.25
Q 871.2 145.9 871.15 145.8 871.1 145.65 870.8 145.65
L 867.15 145.65
M 866.9 165.15
L 858.3 165.15 866.9 152.1 866.9 165.15
M 867.55 96.75
Q 867.55 95.95 867.4 95.8 867.3 95.65 866.6 95.65
L 864.5 95.65
Q 864.35 95.65 864.15 95.75 863.95 95.8 863.9 95.9
L 857.75 101.55
Q 857.55 101.75 857.55 101.95 857.5 102.2 857.65 102.35
L 859.45 104.5
Q 859.6 104.65 859.85 104.6 860.1 104.6 860.35 104.45
L 863.3 101.85 863.3 125.55
Q 863.3 126.05 863.85 126.05
L 867.05 126.05
Q 867.55 126.05 867.55 125.55
L 867.55 96.75
M 1014.7 145.65
Q 1014 145.65 1014 146.3
L 1014 149.1
Q 1014 149.45 1014.2 149.6 1014.4 149.8 1014.7 149.8
L 1027.45 149.8 1017 175.35
Q 1016.85 175.8 1017 175.9 1017.15 176.05 1017.75 176.05
L 1021 176.05
Q 1021.4 176.05 1021.55 175.95 1021.7 175.8 1021.9 175.5
L 1032.45 149.45
Q 1032.7 149.15 1032.7 148.8
L 1032.7 146.4
Q 1032.7 145.95 1032.55 145.8 1032.4 145.65 1031.7 145.65
L 1014.7 145.65
M 1026.55 96.75
Q 1026.55 95.95 1026.4 95.8 1026.3 95.65 1025.6 95.65
L 1023.5 95.65
Q 1023.35 95.65 1023.15 95.75 1022.95 95.8 1022.9 95.9
L 1016.75 101.55
Q 1016.55 101.75 1016.55 101.95 1016.5 102.2 1016.65 102.35
L 1018.45 104.5
Q 1018.6 104.65 1018.85 104.6 1019.1 104.6 1019.35 104.45
L 1022.3 101.85 1022.3 125.55
Q 1022.3 126.05 1022.85 126.05
L 1026.05 126.05
Q 1026.55 126.05 1026.55 125.55
L 1026.55 96.75 Z"/>

<path fill="#E4E7D8" stroke="none" d="
M 15 180
Q 13.25 180 11.7 180.2 6.95 180.85 4.1 183.45 0 187.15 0 195
L 0 275.05
Q 0 282.9 4.1 286.65 6.95 289.2 11.7 289.85 13.25 290.05 15 290.05
L 55 290.05
Q 70 290.05 70 275.05
L 70 195
Q 70 180 55 180
L 15 180
M 37.85 195.2
Q 38 195.35 38 196.15
L 38 224.95
Q 38 225.45 37.5 225.45
L 34.3 225.45
Q 33.75 225.45 33.75 224.95
L 33.75 201.25 30.8 203.85
Q 30.55 204 30.3 204 30.05 204.05 29.9 203.9
L 28.1 201.75
Q 27.95 201.6 28 201.35 28 201.15 28.2 200.95
L 34.35 195.3
Q 34.4 195.2 34.6 195.15 34.8 195.05 34.95 195.05
L 37.05 195.05
Q 37.75 195.05 37.85 195.2
M 44 245.2
Q 44.15 245.35 44.15 245.8
L 44.15 248.2
Q 44.15 248.55 43.9 248.85
L 33.35 274.9
Q 33.15 275.2 33 275.35 32.85 275.45 32.45 275.45
L 29.2 275.45
Q 28.6 275.45 28.45 275.3 28.3 275.2 28.45 274.75
L 38.9 249.2 26.15 249.2
Q 25.85 249.2 25.65 249 25.45 248.85 25.45 248.5
L 25.45 245.7
Q 25.45 245.05 26.15 245.05
L 43.15 245.05
Q 43.85 245.05 44 245.2
M 15.95 235
L 54.15 235 15.95 235
M 70 15
Q 70 0 55 0
L 15 0
Q 13.25 0 11.7 0.2 0 1.75 0 15
L 0 95.05
Q 0 108.3 11.7 109.85 13.25 110.05 15 110.05
L 55 110.05
Q 70 110.05 70 95.05
L 70 15
M 15.95 55
L 54.15 55 15.95 55
M 37.1 65.15
Q 37.2 65.05 37.6 65.05
L 41.25 65.05
Q 41.55 65.05 41.6 65.2 41.65 65.3 41.65 65.65
L 41.65 84.55 45.35 84.55
Q 45.7 84.55 45.85 84.65 46 84.75 46 85.15
L 46 88.05
Q 46 88.45 45.85 88.55 45.7 88.65 45.35 88.65
L 41.65 88.65 41.65 94.75
Q 41.65 95.2 41.5 95.3 41.4 95.45 41 95.45
L 38.1 95.45
Q 37.65 95.45 37.5 95.3 37.35 95.15 37.35 94.75
L 37.35 88.65 24.55 88.65
Q 24.2 88.65 24.05 88.55 23.9 88.5 23.9 88.2
L 23.9 85.2
Q 23.9 84.95 24.1 84.65 24.25 84.35 24.4 84.2
L 36.8 65.6
Q 37 65.25 37.1 65.15
M 30.3 24
Q 30.05 24.05 29.9 23.9
L 28.1 21.75
Q 27.95 21.6 28 21.35 28 21.15 28.2 20.95
L 34.35 15.3
Q 34.4 15.2 34.6 15.15 34.8 15.05 34.95 15.05
L 37.05 15.05
Q 37.75 15.05 37.85 15.2 38 15.35 38 16.15
L 38 44.95
Q 38 45.45 37.5 45.45
L 34.3 45.45
Q 33.75 45.45 33.75 44.95
L 33.75 21.25 30.8 23.85
Q 30.55 24 30.3 24
M 28.75 84.55
L 37.35 84.55 37.35 71.5 28.75 84.55 Z"/>
</g>

<g id="Layer0_0_STROKES_1_FILL">
<path fill="#0183BD" stroke="none" d="
M 190.15 278.15
L 190.15 275.15
Q 190.146484375 274.7392578125 189.85 274.45 189.5607421875 274.153515625 189.15 274.15 188.7392578125 274.153515625 188.45 274.45 188.153515625 274.7392578125 188.15 275.15
L 188.15 278.15
Q 188.153515625 278.5607421875 188.45 278.85 188.7392578125 279.146484375 189.15 279.15 189.5607421875 279.146484375 189.85 278.85 190.146484375 278.5607421875 190.15 278.15
M 190.15 268.15
Q 190.146484375 267.7392578125 189.85 267.45 189.5607421875 267.153515625 189.15 267.15 188.7392578125 267.153515625 188.45 267.45 188.153515625 267.7392578125 188.15 268.15
L 188.15 271.15
Q 188.153515625 271.5607421875 188.45 271.85 188.7392578125 272.146484375 189.15 272.15 189.5607421875 272.146484375 189.85 271.85 190.146484375 271.5607421875 190.15 271.15
L 190.15 268.15
M 190.15 261.15
Q 190.146484375 260.7392578125 189.85 260.45 189.5607421875 260.153515625 189.15 260.15 188.7392578125 260.153515625 188.45 260.45 188.153515625 260.7392578125 188.15 261.15
L 188.15 264.15
Q 188.153515625 264.5607421875 188.45 264.85 188.7392578125 265.146484375 189.15 265.15 189.5607421875 265.146484375 189.85 264.85 190.146484375 264.5607421875 190.15 264.15
L 190.15 261.15
M 189.85 253.45
Q 189.5607421875 253.153515625 189.15 253.15 188.7392578125 253.153515625 188.45 253.45 188.153515625 253.7392578125 188.15 254.15
L 188.15 257.15
Q 188.153515625 257.5607421875 188.45 257.85 188.7392578125 258.146484375 189.15 258.15 189.5607421875 258.146484375 189.85 257.85 190.146484375 257.5607421875 190.15 257.15
L 190.15 254.15
Q 190.146484375 253.7392578125 189.85 253.45
M 188.45 246.45
Q 188.153515625 246.7392578125 188.15 247.15
L 188.15 250.15
Q 188.153515625 250.5607421875 188.45 250.85 188.7392578125 251.146484375 189.15 251.15 189.5607421875 251.146484375 189.85 250.85 190.146484375 250.5607421875 190.15 250.15
L 190.15 247.15
Q 190.146484375 246.7392578125 189.85 246.45 189.5607421875 246.153515625 189.15 246.15 188.7392578125 246.153515625 188.45 246.45
M 190.15 240.15
Q 190.146484375 239.7392578125 189.85 239.45 189.5607421875 239.153515625 189.15 239.15 188.7392578125 239.153515625 188.45 239.45 188.153515625 239.7392578125 188.15 240.15
L 188.15 243.15
Q 188.153515625 243.5607421875 188.45 243.85 188.7392578125 244.146484375 189.15 244.15 189.5607421875 244.146484375 189.85 243.85 190.146484375 243.5607421875 190.15 243.15
L 190.15 240.15
M 188.45 232.45
Q 188.153515625 232.7392578125 188.15 233.15
L 188.15 236.15
Q 188.153515625 236.5607421875 188.45 236.85 188.7392578125 237.146484375 189.15 237.15 189.5607421875 237.146484375 189.85 236.85 190.146484375 236.5607421875 190.15 236.15
L 190.15 233.15
Q 190.146484375 232.7392578125 189.85 232.45 189.5607421875 232.153515625 189.15 232.15 188.7392578125 232.153515625 188.45 232.45
M 190.15 226.15
Q 190.146484375 225.7392578125 189.85 225.45 189.5607421875 225.153515625 189.15 225.15 188.7392578125 225.153515625 188.45 225.45 188.153515625 225.7392578125 188.15 226.15
L 188.15 229.15
Q 188.153515625 229.5607421875 188.45 229.85 188.7392578125 230.146484375 189.15 230.15 189.5607421875 230.146484375 189.85 229.85 190.146484375 229.5607421875 190.15 229.15
L 190.15 226.15
M 190.15 222.15
L 190.15 219.15
Q 190.146484375 218.7392578125 189.85 218.45 189.5607421875 218.153515625 189.15 218.15 188.7392578125 218.153515625 188.45 218.45 188.153515625 218.7392578125 188.15 219.15
L 188.15 222.15
Q 188.153515625 222.5607421875 188.45 222.85 188.7392578125 223.146484375 189.15 223.15 189.5607421875 223.146484375 189.85 222.85 190.146484375 222.5607421875 190.15 222.15
M 190.15 212.15
Q 190.146484375 211.7392578125 189.85 211.45 189.5607421875 211.153515625 189.15 211.15 188.7392578125 211.153515625 188.45 211.45 188.153515625 211.7392578125 188.15 212.15
L 188.15 215.15
Q 188.153515625 215.5607421875 188.45 215.85 188.7392578125 216.146484375 189.15 216.15 189.5607421875 216.146484375 189.85 215.85 190.146484375 215.5607421875 190.15 215.15
L 190.15 212.15
M 188.15 205.15
L 188.15 208.15
Q 188.153515625 208.5607421875 188.45 208.85 188.7392578125 209.146484375 189.15 209.15 189.5607421875 209.146484375 189.85 208.85 190.146484375 208.5607421875 190.15 208.15
L 190.15 205.15
Q 190.146484375 204.7392578125 189.85 204.45 189.5607421875 204.153515625 189.15 204.15 188.7392578125 204.153515625 188.45 204.45 188.153515625 204.7392578125 188.15 205.15
M 279.15 278.15
L 279.15 275.15
Q 279.146484375 274.7392578125 278.85 274.45 278.5607421875 274.153515625 278.15 274.15 277.7392578125 274.153515625 277.45 274.45 277.153515625 274.7392578125 277.15 275.15
L 277.15 278.15
Q 277.153515625 278.5607421875 277.45 278.85 277.7392578125 279.146484375 278.15 279.15 278.5607421875 279.146484375 278.85 278.85 279.146484375 278.5607421875 279.15 278.15
M 277.15 268.15
L 277.15 271.15
Q 277.153515625 271.5607421875 277.45 271.85 277.7392578125 272.146484375 278.15 272.15 278.5607421875 272.146484375 278.85 271.85 279.146484375 271.5607421875 279.15 271.15
L 279.15 268.15
Q 279.146484375 267.7392578125 278.85 267.45 278.5607421875 267.153515625 278.15 267.15 277.7392578125 267.153515625 277.45 267.45 277.153515625 267.7392578125 277.15 268.15
M 278.85 264.85
Q 279.146484375 264.5607421875 279.15 264.15
L 279.15 261.15
Q 279.146484375 260.7392578125 278.85 260.45 278.5607421875 260.153515625 278.15 260.15 277.7392578125 260.153515625 277.45 260.45 277.153515625 260.7392578125 277.15 261.15
L 277.15 264.15
Q 277.153515625 264.5607421875 277.45 264.85 277.7392578125 265.146484375 278.15 265.15 278.5607421875 265.146484375 278.85 264.85
M 278.15 253.15
Q 277.7392578125 253.153515625 277.45 253.45 277.153515625 253.7392578125 277.15 254.15
L 277.15 257.15
Q 277.153515625 257.5607421875 277.45 257.85 277.7392578125 258.146484375 278.15 258.15 278.5607421875 258.146484375 278.85 257.85 279.146484375 257.5607421875 279.15 257.15
L 279.15 254.15
Q 279.146484375 253.7392578125 278.85 253.45 278.5607421875 253.153515625 278.15 253.15
M 278.15 246.15
Q 277.7392578125 246.153515625 277.45 246.45 277.153515625 246.7392578125 277.15 247.15
L 277.15 250.15
Q 277.153515625 250.5607421875 277.45 250.85 277.7392578125 251.146484375 278.15 251.15 278.5607421875 251.146484375 278.85 250.85 279.146484375 250.5607421875 279.15 250.15
L 279.15 247.15
Q 279.146484375 246.7392578125 278.85 246.45 278.5607421875 246.153515625 278.15 246.15
M 279.15 240.15
Q 279.146484375 239.7392578125 278.85 239.45 278.5607421875 239.153515625 278.15 239.15 277.7392578125 239.153515625 277.45 239.45 277.153515625 239.7392578125 277.15 240.15
L 277.15 243.15
Q 277.153515625 243.5607421875 277.45 243.85 277.7392578125 244.146484375 278.15 244.15 278.5607421875 244.146484375 278.85 243.85 279.146484375 243.5607421875 279.15 243.15
L 279.15 240.15
M 277.45 232.45
Q 277.153515625 232.7392578125 277.15 233.15
L 277.15 236.15
Q 277.153515625 236.5607421875 277.45 236.85 277.7392578125 237.146484375 278.15 237.15 278.5607421875 237.146484375 278.85 236.85 279.146484375 236.5607421875 279.15 236.15
L 279.15 233.15
Q 279.146484375 232.7392578125 278.85 232.45 278.5607421875 232.153515625 278.15 232.15 277.7392578125 232.153515625 277.45 232.45
M 279.15 226.15
Q 279.146484375 225.7392578125 278.85 225.45 278.5607421875 225.153515625 278.15 225.15 277.7392578125 225.153515625 277.45 225.45 277.153515625 225.7392578125 277.15 226.15
L 277.15 229.15
Q 277.153515625 229.5607421875 277.45 229.85 277.7392578125 230.146484375 278.15 230.15 278.5607421875 230.146484375 278.85 229.85 279.146484375 229.5607421875 279.15 229.15
L 279.15 226.15
M 277.15 219.15
L 277.15 222.15
Q 277.153515625 222.5607421875 277.45 222.85 277.7392578125 223.146484375 278.15 223.15 278.5607421875 223.146484375 278.85 222.85 279.146484375 222.5607421875 279.15 222.15
L 279.15 219.15
Q 279.146484375 218.7392578125 278.85 218.45 278.5607421875 218.153515625 278.15 218.15 277.7392578125 218.153515625 277.45 218.45 277.153515625 218.7392578125 277.15 219.15
M 278.85 215.85
Q 279.146484375 215.5607421875 279.15 215.15
L 279.15 212.15
Q 279.146484375 211.7392578125 278.85 211.45 278.5607421875 211.153515625 278.15 211.15 277.7392578125 211.153515625 277.45 211.45 277.153515625 211.7392578125 277.15 212.15
L 277.15 215.15
Q 277.153515625 215.5607421875 277.45 215.85 277.7392578125 216.146484375 278.15 216.15 278.5607421875 216.146484375 278.85 215.85
M 277.45 208.85
Q 277.7392578125 209.146484375 278.15 209.15 278.5607421875 209.146484375 278.85 208.85 279.146484375 208.5607421875 279.15 208.15
L 279.15 205.15
Q 279.146484375 204.7392578125 278.85 204.45 278.5607421875 204.153515625 278.15 204.15 277.7392578125 204.153515625 277.45 204.45 277.153515625 204.7392578125 277.15 205.15
L 277.15 208.15
Q 277.153515625 208.5607421875 277.45 208.85
M 278.15 197.15
Q 277.7392578125 197.153515625 277.45 197.45 277.153515625 197.7392578125 277.15 198.15
L 277.15 201.15
Q 277.153515625 201.5607421875 277.45 201.85 277.7392578125 202.146484375 278.15 202.15 278.5607421875 202.146484375 278.85 201.85 279.146484375 201.5607421875 279.15 201.15
L 279.15 198.15
Q 279.146484375 197.7392578125 278.85 197.45 278.5607421875 197.153515625 278.15 197.15
M 279.15 191.15
Q 279.146484375 190.7392578125 278.85 190.45 278.5607421875 190.153515625 278.15 190.15 277.7392578125 190.153515625 277.45 190.45 277.153515625 190.7392578125 277.15 191.15
L 277.15 194.15
Q 277.153515625 194.5607421875 277.45 194.85 277.7392578125 195.146484375 278.15 195.15 278.5607421875 195.146484375 278.85 194.85 279.146484375 194.5607421875 279.15 194.15
L 279.15 191.15
M 189.85 197.45
Q 189.5607421875 197.153515625 189.15 197.15 188.7392578125 197.153515625 188.45 197.45 188.153515625 197.7392578125 188.15 198.15
L 188.15 201.15
Q 188.153515625 201.5607421875 188.45 201.85 188.7392578125 202.146484375 189.15 202.15 189.5607421875 202.146484375 189.85 201.85 190.146484375 201.5607421875 190.15 201.15
L 190.15 198.15
Q 190.146484375 197.7392578125 189.85 197.45
M 190.15 191.15
Q 190.146484375 190.7392578125 189.85 190.45 189.5607421875 190.153515625 189.15 190.15 188.7392578125 190.153515625 188.45 190.45 188.153515625 190.7392578125 188.15 191.15
L 188.15 194.15
Q 188.153515625 194.5607421875 188.45 194.85 188.7392578125 195.146484375 189.15 195.15 189.5607421875 195.146484375 189.85 194.85 190.146484375 194.5607421875 190.15 194.15
L 190.15 191.15
M 256.9 98.95
Q 257.196484375 98.6607421875 257.2 98.25
L 257.2 95.25
Q 257.196484375 94.8392578125 256.9 94.55 256.6107421875 94.253515625 256.2 94.25 255.7892578125 94.253515625 255.5 94.55 255.203515625 94.8392578125 255.2 95.25
L 255.2 98.25
Q 255.203515625 98.6607421875 255.5 98.95 255.7892578125 99.246484375 256.2 99.25 256.6107421875 99.246484375 256.9 98.95
M 256.9 87.55
Q 256.6107421875 87.253515625 256.2 87.25 255.7892578125 87.253515625 255.5 87.55 255.203515625 87.8392578125 255.2 88.25
L 255.2 91.25
Q 255.203515625 91.6607421875 255.5 91.95 255.7892578125 92.246484375 256.2 92.25 256.6107421875 92.246484375 256.9 91.95 257.196484375 91.6607421875 257.2 91.25
L 257.2 88.25
Q 257.196484375 87.8392578125 256.9 87.55
M 256.9 84.95
Q 257.196484375 84.6607421875 257.2 84.25
L 257.2 81.25
Q 257.196484375 80.8392578125 256.9 80.55 256.6107421875 80.253515625 256.2 80.25 255.7892578125 80.253515625 255.5 80.55 255.203515625 80.8392578125 255.2 81.25
L 255.2 84.25
Q 255.203515625 84.6607421875 255.5 84.95 255.7892578125 85.246484375 256.2 85.25 256.6107421875 85.246484375 256.9 84.95
M 256.9 73.55
Q 256.6107421875 73.253515625 256.2 73.25 255.7892578125 73.253515625 255.5 73.55 255.203515625 73.8392578125 255.2 74.25
L 255.2 77.25
Q 255.203515625 77.6607421875 255.5 77.95 255.7892578125 78.246484375 256.2 78.25 256.6107421875 78.246484375 256.9 77.95 257.196484375 77.6607421875 257.2 77.25
L 257.2 74.25
Q 257.196484375 73.8392578125 256.9 73.55
M 257.2 67.25
Q 257.196484375 66.8392578125 256.9 66.55 256.6107421875 66.253515625 256.2 66.25 255.7892578125 66.253515625 255.5 66.55 255.203515625 66.8392578125 255.2 67.25
L 255.2 70.25
Q 255.203515625 70.6607421875 255.5 70.95 255.7892578125 71.246484375 256.2 71.25 256.6107421875 71.246484375 256.9 70.95 257.196484375 70.6607421875 257.2 70.25
L 257.2 67.25
M 255.5 59.55
Q 255.203515625 59.8392578125 255.2 60.25
L 255.2 63.25
Q 255.203515625 63.6607421875 255.5 63.95 255.7892578125 64.246484375 256.2 64.25 256.6107421875 64.246484375 256.9 63.95 257.196484375 63.6607421875 257.2 63.25
L 257.2 60.25
Q 257.196484375 59.8392578125 256.9 59.55 256.6107421875 59.253515625 256.2 59.25 255.7892578125 59.253515625 255.5 59.55
M 257.2 53.25
Q 257.196484375 52.8392578125 256.9 52.55 256.6107421875 52.253515625 256.2 52.25 255.7892578125 52.253515625 255.5 52.55 255.203515625 52.8392578125 255.2 53.25
L 255.2 56.25
Q 255.203515625 56.6607421875 255.5 56.95 255.7892578125 57.246484375 256.2 57.25 256.6107421875 57.246484375 256.9 56.95 257.196484375 56.6607421875 257.2 56.25
L 257.2 53.25
M 255.5 45.55
Q 255.203515625 45.8392578125 255.2 46.25
L 255.2 49.25
Q 255.203515625 49.6607421875 255.5 49.95 255.7892578125 50.246484375 256.2 50.25 256.6107421875 50.246484375 256.9 49.95 257.196484375 49.6607421875 257.2 49.25
L 257.2 46.25
Q 257.196484375 45.8392578125 256.9 45.55 256.6107421875 45.253515625 256.2 45.25 255.7892578125 45.253515625 255.5 45.55
M 256.9 38.55
Q 256.6107421875 38.253515625 256.2 38.25 255.7892578125 38.253515625 255.5 38.55 255.203515625 38.8392578125 255.2 39.25
L 255.2 42.25
Q 255.203515625 42.6607421875 255.5 42.95 255.7892578125 43.246484375 256.2 43.25 256.6107421875 43.246484375 256.9 42.95 257.196484375 42.6607421875 257.2 42.25
L 257.2 39.25
Q 257.196484375 38.8392578125 256.9 38.55
M 256.9 31.55
Q 256.6107421875 31.253515625 256.2 31.25 255.7892578125 31.253515625 255.5 31.55 255.203515625 31.8392578125 255.2 32.25
L 255.2 35.25
Q 255.203515625 35.6607421875 255.5 35.95 255.7892578125 36.246484375 256.2 36.25 256.6107421875 36.246484375 256.9 35.95 257.196484375 35.6607421875 257.2 35.25
L 257.2 32.25
Q 257.196484375 31.8392578125 256.9 31.55
M 256.9 24.55
Q 256.6107421875 24.253515625 256.2 24.25 255.7892578125 24.253515625 255.5 24.55 255.203515625 24.8392578125 255.2 25.25
L 255.2 28.25
Q 255.203515625 28.6607421875 255.5 28.95 255.7892578125 29.246484375 256.2 29.25 256.6107421875 29.246484375 256.9 28.95 257.196484375 28.6607421875 257.2 28.25
L 257.2 25.25
Q 257.196484375 24.8392578125 256.9 24.55
M 257.2 18.25
Q 257.196484375 17.8392578125 256.9 17.55 256.6107421875 17.253515625 256.2 17.25 255.7892578125 17.253515625 255.5 17.55 255.203515625 17.8392578125 255.2 18.25
L 255.2 21.25
Q 255.203515625 21.6607421875 255.5 21.95 255.7892578125 22.246484375 256.2 22.25 256.6107421875 22.246484375 256.9 21.95 257.196484375 21.6607421875 257.2 21.25
L 257.2 18.25
M 255.5 10.55
Q 255.203515625 10.8392578125 255.2 11.25
L 255.2 14.25
Q 255.203515625 14.6607421875 255.5 14.95 255.7892578125 15.246484375 256.2 15.25 256.6107421875 15.246484375 256.9 14.95 257.196484375 14.6607421875 257.2 14.25
L 257.2 11.25
Q 257.196484375 10.8392578125 256.9 10.55 256.6107421875 10.253515625 256.2 10.25 255.7892578125 10.253515625 255.5 10.55
M 546.15 278.15
L 546.15 275.15
Q 546.146484375 274.7392578125 545.85 274.45 545.5607421875 274.153515625 545.15 274.15 544.7392578125 274.153515625 544.45 274.45 544.153515625 274.7392578125 544.15 275.15
L 544.15 278.15
Q 544.153515625 278.5607421875 544.45 278.85 544.7392578125 279.146484375 545.15 279.15 545.5607421875 279.146484375 545.85 278.85 546.146484375 278.5607421875 546.15 278.15
M 545.15 267.15
Q 544.7392578125 267.153515625 544.45 267.45 544.153515625 267.7392578125 544.15 268.15
L 544.15 271.15
Q 544.153515625 271.5607421875 544.45 271.85 544.7392578125 272.146484375 545.15 272.15 545.5607421875 272.146484375 545.85 271.85 546.146484375 271.5607421875 546.15 271.15
L 546.15 268.15
Q 546.146484375 267.7392578125 545.85 267.45 545.5607421875 267.153515625 545.15 267.15
M 545.15 260.15
Q 544.7392578125 260.153515625 544.45 260.45 544.153515625 260.7392578125 544.15 261.15
L 544.15 264.15
Q 544.153515625 264.5607421875 544.45 264.85 544.7392578125 265.146484375 545.15 265.15 545.5607421875 265.146484375 545.85 264.85 546.146484375 264.5607421875 546.15 264.15
L 546.15 261.15
Q 546.146484375 260.7392578125 545.85 260.45 545.5607421875 260.153515625 545.15 260.15
M 545.85 253.45
Q 545.5607421875 253.153515625 545.15 253.15 544.7392578125 253.153515625 544.45 253.45 544.153515625 253.7392578125 544.15 254.15
L 544.15 257.15
Q 544.153515625 257.5607421875 544.45 257.85 544.7392578125 258.146484375 545.15 258.15 545.5607421875 258.146484375 545.85 257.85 546.146484375 257.5607421875 546.15 257.15
L 546.15 254.15
Q 546.146484375 253.7392578125 545.85 253.45
M 544.45 246.45
Q 544.153515625 246.7392578125 544.15 247.15
L 544.15 250.15
Q 544.153515625 250.5607421875 544.45 250.85 544.7392578125 251.146484375 545.15 251.15 545.5607421875 251.146484375 545.85 250.85 546.146484375 250.5607421875 546.15 250.15
L 546.15 247.15
Q 546.146484375 246.7392578125 545.85 246.45 545.5607421875 246.153515625 545.15 246.15 544.7392578125 246.153515625 544.45 246.45
M 546.15 240.15
Q 546.146484375 239.7392578125 545.85 239.45 545.5607421875 239.153515625 545.15 239.15 544.7392578125 239.153515625 544.45 239.45 544.153515625 239.7392578125 544.15 240.15
L 544.15 243.15
Q 544.153515625 243.5607421875 544.45 243.85 544.7392578125 244.146484375 545.15 244.15 545.5607421875 244.146484375 545.85 243.85 546.146484375 243.5607421875 546.15 243.15
L 546.15 240.15
M 544.45 232.45
Q 544.153515625 232.7392578125 544.15 233.15
L 544.15 236.15
Q 544.153515625 236.5607421875 544.45 236.85 544.7392578125 237.146484375 545.15 237.15 545.5607421875 237.146484375 545.85 236.85 546.146484375 236.5607421875 546.15 236.15
L 546.15 233.15
Q 546.146484375 232.7392578125 545.85 232.45 545.5607421875 232.153515625 545.15 232.15 544.7392578125 232.153515625 544.45 232.45
M 546.15 226.15
Q 546.146484375 225.7392578125 545.85 225.45 545.5607421875 225.153515625 545.15 225.15 544.7392578125 225.153515625 544.45 225.45 544.153515625 225.7392578125 544.15 226.15
L 544.15 229.15
Q 544.153515625 229.5607421875 544.45 229.85 544.7392578125 230.146484375 545.15 230.15 545.5607421875 230.146484375 545.85 229.85 546.146484375 229.5607421875 546.15 229.15
L 546.15 226.15
M 546.15 222.15
L 546.15 219.15
Q 546.146484375 218.7392578125 545.85 218.45 545.5607421875 218.153515625 545.15 218.15 544.7392578125 218.153515625 544.45 218.45 544.153515625 218.7392578125 544.15 219.15
L 544.15 222.15
Q 544.153515625 222.5607421875 544.45 222.85 544.7392578125 223.146484375 545.15 223.15 545.5607421875 223.146484375 545.85 222.85 546.146484375 222.5607421875 546.15 222.15
M 545.15 211.15
Q 544.7392578125 211.153515625 544.45 211.45 544.153515625 211.7392578125 544.15 212.15
L 544.15 215.15
Q 544.153515625 215.5607421875 544.45 215.85 544.7392578125 216.146484375 545.15 216.15 545.5607421875 216.146484375 545.85 215.85 546.146484375 215.5607421875 546.15 215.15
L 546.15 212.15
Q 546.146484375 211.7392578125 545.85 211.45 545.5607421875 211.153515625 545.15 211.15
M 544.15 205.15
L 544.15 208.15
Q 544.153515625 208.5607421875 544.45 208.85 544.7392578125 209.146484375 545.15 209.15 545.5607421875 209.146484375 545.85 208.85 546.146484375 208.5607421875 546.15 208.15
L 546.15 205.15
Q 546.146484375 204.7392578125 545.85 204.45 545.5607421875 204.153515625 545.15 204.15 544.7392578125 204.153515625 544.45 204.45 544.153515625 204.7392578125 544.15 205.15
M 635.15 278.15
L 635.15 275.15
Q 635.146484375 274.7392578125 634.85 274.45 634.5607421875 274.153515625 634.15 274.15 633.7392578125 274.153515625 633.45 274.45 633.153515625 274.7392578125 633.15 275.15
L 633.15 278.15
Q 633.153515625 278.5607421875 633.45 278.85 633.7392578125 279.146484375 634.15 279.15 634.5607421875 279.146484375 634.85 278.85 635.146484375 278.5607421875 635.15 278.15
M 633.45 267.45
Q 633.153515625 267.7392578125 633.15 268.15
L 633.15 271.15
Q 633.153515625 271.5607421875 633.45 271.85 633.7392578125 272.146484375 634.15 272.15 634.5607421875 272.146484375 634.85 271.85 635.146484375 271.5607421875 635.15 271.15
L 635.15 268.15
Q 635.146484375 267.7392578125 634.85 267.45 634.5607421875 267.153515625 634.15 267.15 633.7392578125 267.153515625 633.45 267.45
M 633.45 260.45
Q 633.153515625 260.7392578125 633.15 261.15
L 633.15 264.15
Q 633.153515625 264.5607421875 633.45 264.85 633.7392578125 265.146484375 634.15 265.15 634.5607421875 265.146484375 634.85 264.85 635.146484375 264.5607421875 635.15 264.15
L 635.15 261.15
Q 635.146484375 260.7392578125 634.85 260.45 634.5607421875 260.153515625 634.15 260.15 633.7392578125 260.153515625 633.45 260.45
M 634.85 253.45
Q 634.5607421875 253.153515625 634.15 253.15 633.7392578125 253.153515625 633.45 253.45 633.153515625 253.7392578125 633.15 254.15
L 633.15 257.15
Q 633.153515625 257.5607421875 633.45 257.85 633.7392578125 258.146484375 634.15 258.15 634.5607421875 258.146484375 634.85 257.85 635.146484375 257.5607421875 635.15 257.15
L 635.15 254.15
Q 635.146484375 253.7392578125 634.85 253.45
M 633.45 246.45
Q 633.153515625 246.7392578125 633.15 247.15
L 633.15 250.15
Q 633.153515625 250.5607421875 633.45 250.85 633.7392578125 251.146484375 634.15 251.15 634.5607421875 251.146484375 634.85 250.85 635.146484375 250.5607421875 635.15 250.15
L 635.15 247.15
Q 635.146484375 246.7392578125 634.85 246.45 634.5607421875 246.153515625 634.15 246.15 633.7392578125 246.153515625 633.45 246.45
M 635.15 240.15
Q 635.146484375 239.7392578125 634.85 239.45 634.5607421875 239.153515625 634.15 239.15 633.7392578125 239.153515625 633.45 239.45 633.153515625 239.7392578125 633.15 240.15
L 633.15 243.15
Q 633.153515625 243.5607421875 633.45 243.85 633.7392578125 244.146484375 634.15 244.15 634.5607421875 244.146484375 634.85 243.85 635.146484375 243.5607421875 635.15 243.15
L 635.15 240.15
M 633.45 232.45
Q 633.153515625 232.7392578125 633.15 233.15
L 633.15 236.15
Q 633.153515625 236.5607421875 633.45 236.85 633.7392578125 237.146484375 634.15 237.15 634.5607421875 237.146484375 634.85 236.85 635.146484375 236.5607421875 635.15 236.15
L 635.15 233.15
Q 635.146484375 232.7392578125 634.85 232.45 634.5607421875 232.153515625 634.15 232.15 633.7392578125 232.153515625 633.45 232.45
M 635.15 226.15
Q 635.146484375 225.7392578125 634.85 225.45 634.5607421875 225.153515625 634.15 225.15 633.7392578125 225.153515625 633.45 225.45 633.153515625 225.7392578125 633.15 226.15
L 633.15 229.15
Q 633.153515625 229.5607421875 633.45 229.85 633.7392578125 230.146484375 634.15 230.15 634.5607421875 230.146484375 634.85 229.85 635.146484375 229.5607421875 635.15 229.15
L 635.15 226.15
M 635.15 222.15
L 635.15 219.15
Q 635.146484375 218.7392578125 634.85 218.45 634.5607421875 218.153515625 634.15 218.15 633.7392578125 218.153515625 633.45 218.45 633.153515625 218.7392578125 633.15 219.15
L 633.15 222.15
Q 633.153515625 222.5607421875 633.45 222.85 633.7392578125 223.146484375 634.15 223.15 634.5607421875 223.146484375 634.85 222.85 635.146484375 222.5607421875 635.15 222.15
M 633.45 211.45
Q 633.153515625 211.7392578125 633.15 212.15
L 633.15 215.15
Q 633.153515625 215.5607421875 633.45 215.85 633.7392578125 216.146484375 634.15 216.15 634.5607421875 216.146484375 634.85 215.85 635.146484375 215.5607421875 635.15 215.15
L 635.15 212.15
Q 635.146484375 211.7392578125 634.85 211.45 634.5607421875 211.153515625 634.15 211.15 633.7392578125 211.153515625 633.45 211.45
M 633.15 205.15
L 633.15 208.15
Q 633.153515625 208.5607421875 633.45 208.85 633.7392578125 209.146484375 634.15 209.15 634.5607421875 209.146484375 634.85 208.85 635.146484375 208.5607421875 635.15 208.15
L 635.15 205.15
Q 635.146484375 204.7392578125 634.85 204.45 634.5607421875 204.153515625 634.15 204.15 633.7392578125 204.153515625 633.45 204.45 633.153515625 204.7392578125 633.15 205.15
M 368.15 278.15
L 368.15 275.15
Q 368.146484375 274.7392578125 367.85 274.45 367.5607421875 274.153515625 367.15 274.15 366.7392578125 274.153515625 366.45 274.45 366.153515625 274.7392578125 366.15 275.15
L 366.15 278.15
Q 366.153515625 278.5607421875 366.45 278.85 366.7392578125 279.146484375 367.15 279.15 367.5607421875 279.146484375 367.85 278.85 368.146484375 278.5607421875 368.15 278.15
M 367.85 267.45
Q 367.5607421875 267.153515625 367.15 267.15 366.7392578125 267.153515625 366.45 267.45 366.153515625 267.7392578125 366.15 268.15
L 366.15 271.15
Q 366.153515625 271.5607421875 366.45 271.85 366.7392578125 272.146484375 367.15 272.15 367.5607421875 272.146484375 367.85 271.85 368.146484375 271.5607421875 368.15 271.15
L 368.15 268.15
Q 368.146484375 267.7392578125 367.85 267.45
M 367.85 260.45
Q 367.5607421875 260.153515625 367.15 260.15 366.7392578125 260.153515625 366.45 260.45 366.153515625 260.7392578125 366.15 261.15
L 366.15 264.15
Q 366.153515625 264.5607421875 366.45 264.85 366.7392578125 265.146484375 367.15 265.15 367.5607421875 265.146484375 367.85 264.85 368.146484375 264.5607421875 368.15 264.15
L 368.15 261.15
Q 368.146484375 260.7392578125 367.85 260.45
M 367.85 253.45
Q 367.5607421875 253.153515625 367.15 253.15 366.7392578125 253.153515625 366.45 253.45 366.153515625 253.7392578125 366.15 254.15
L 366.15 257.15
Q 366.153515625 257.5607421875 366.45 257.85 366.7392578125 258.146484375 367.15 258.15 367.5607421875 258.146484375 367.85 257.85 368.146484375 257.5607421875 368.15 257.15
L 368.15 254.15
Q 368.146484375 253.7392578125 367.85 253.45
M 366.45 246.45
Q 366.153515625 246.7392578125 366.15 247.15
L 366.15 250.15
Q 366.153515625 250.5607421875 366.45 250.85 366.7392578125 251.146484375 367.15 251.15 367.5607421875 251.146484375 367.85 250.85 368.146484375 250.5607421875 368.15 250.15
L 368.15 247.15
Q 368.146484375 246.7392578125 367.85 246.45 367.5607421875 246.153515625 367.15 246.15 366.7392578125 246.153515625 366.45 246.45
M 368.15 240.15
Q 368.146484375 239.7392578125 367.85 239.45 367.5607421875 239.153515625 367.15 239.15 366.7392578125 239.153515625 366.45 239.45 366.153515625 239.7392578125 366.15 240.15
L 366.15 243.15
Q 366.153515625 243.5607421875 366.45 243.85 366.7392578125 244.146484375 367.15 244.15 367.5607421875 244.146484375 367.85 243.85 368.146484375 243.5607421875 368.15 243.15
L 368.15 240.15
M 366.45 232.45
Q 366.153515625 232.7392578125 366.15 233.15
L 366.15 236.15
Q 366.153515625 236.5607421875 366.45 236.85 366.7392578125 237.146484375 367.15 237.15 367.5607421875 237.146484375 367.85 236.85 368.146484375 236.5607421875 368.15 236.15
L 368.15 233.15
Q 368.146484375 232.7392578125 367.85 232.45 367.5607421875 232.153515625 367.15 232.15 366.7392578125 232.153515625 366.45 232.45
M 368.15 226.15
Q 368.146484375 225.7392578125 367.85 225.45 367.5607421875 225.153515625 367.15 225.15 366.7392578125 225.153515625 366.45 225.45 366.153515625 225.7392578125 366.15 226.15
L 366.15 229.15
Q 366.153515625 229.5607421875 366.45 229.85 366.7392578125 230.146484375 367.15 230.15 367.5607421875 230.146484375 367.85 229.85 368.146484375 229.5607421875 368.15 229.15
L 368.15 226.15
M 368.15 222.15
L 368.15 219.15
Q 368.146484375 218.7392578125 367.85 218.45 367.5607421875 218.153515625 367.15 218.15 366.7392578125 218.153515625 366.45 218.45 366.153515625 218.7392578125 366.15 219.15
L 366.15 222.15
Q 366.153515625 222.5607421875 366.45 222.85 366.7392578125 223.146484375 367.15 223.15 367.5607421875 223.146484375 367.85 222.85 368.146484375 222.5607421875 368.15 222.15
M 367.85 211.45
Q 367.5607421875 211.153515625 367.15 211.15 366.7392578125 211.153515625 366.45 211.45 366.153515625 211.7392578125 366.15 212.15
L 366.15 215.15
Q 366.153515625 215.5607421875 366.45 215.85 366.7392578125 216.146484375 367.15 216.15 367.5607421875 216.146484375 367.85 215.85 368.146484375 215.5607421875 368.15 215.15
L 368.15 212.15
Q 368.146484375 211.7392578125 367.85 211.45
M 366.15 205.15
L 366.15 208.15
Q 366.153515625 208.5607421875 366.45 208.85 366.7392578125 209.146484375 367.15 209.15 367.5607421875 209.146484375 367.85 208.85 368.146484375 208.5607421875 368.15 208.15
L 368.15 205.15
Q 368.146484375 204.7392578125 367.85 204.45 367.5607421875 204.153515625 367.15 204.15 366.7392578125 204.153515625 366.45 204.45 366.153515625 204.7392578125 366.15 205.15
M 456.85 278.85
Q 457.146484375 278.5607421875 457.15 278.15
L 457.15 275.15
Q 457.146484375 274.7392578125 456.85 274.45 456.5607421875 274.153515625 456.15 274.15 455.7392578125 274.153515625 455.45 274.45 455.153515625 274.7392578125 455.15 275.15
L 455.15 278.15
Q 455.153515625 278.5607421875 455.45 278.85 455.7392578125 279.146484375 456.15 279.15 456.5607421875 279.146484375 456.85 278.85
M 455.15 271.15
Q 455.153515625 271.5607421875 455.45 271.85 455.7392578125 272.146484375 456.15 272.15 456.5607421875 272.146484375 456.85 271.85 457.146484375 271.5607421875 457.15 271.15
L 457.15 268.15
Q 457.146484375 267.7392578125 456.85 267.45 456.5607421875 267.153515625 456.15 267.15 455.7392578125 267.153515625 455.45 267.45 455.153515625 267.7392578125 455.15 268.15
L 455.15 271.15
M 455.15 264.15
Q 455.153515625 264.5607421875 455.45 264.85 455.7392578125 265.146484375 456.15 265.15 456.5607421875 265.146484375 456.85 264.85 457.146484375 264.5607421875 457.15 264.15
L 457.15 261.15
Q 457.146484375 260.7392578125 456.85 260.45 456.5607421875 260.153515625 456.15 260.15 455.7392578125 260.153515625 455.45 260.45 455.153515625 260.7392578125 455.15 261.15
L 455.15 264.15
M 456.85 257.85
Q 457.146484375 257.5607421875 457.15 257.15
L 457.15 254.15
Q 457.146484375 253.7392578125 456.85 253.45 456.5607421875 253.153515625 456.15 253.15 455.7392578125 253.153515625 455.45 253.45 455.153515625 253.7392578125 455.15 254.15
L 455.15 257.15
Q 455.153515625 257.5607421875 455.45 257.85 455.7392578125 258.146484375 456.15 258.15 456.5607421875 258.146484375 456.85 257.85
M 455.45 246.45
Q 455.153515625 246.7392578125 455.15 247.15
L 455.15 250.15
Q 455.153515625 250.5607421875 455.45 250.85 455.7392578125 251.146484375 456.15 251.15 456.5607421875 251.146484375 456.85 250.85 457.146484375 250.5607421875 457.15 250.15
L 457.15 247.15
Q 457.146484375 246.7392578125 456.85 246.45 456.5607421875 246.153515625 456.15 246.15 455.7392578125 246.153515625 455.45 246.45
M 455.15 243.15
Q 455.153515625 243.5607421875 455.45 243.85 455.7392578125 244.146484375 456.15 244.15 456.5607421875 244.146484375 456.85 243.85 457.146484375 243.5607421875 457.15 243.15
L 457.15 240.15
Q 457.146484375 239.7392578125 456.85 239.45 456.5607421875 239.153515625 456.15 239.15 455.7392578125 239.153515625 455.45 239.45 455.153515625 239.7392578125 455.15 240.15
L 455.15 243.15
M 456.85 229.85
Q 457.146484375 229.5607421875 457.15 229.15
L 457.15 226.15
Q 457.146484375 225.7392578125 456.85 225.45 456.5607421875 225.153515625 456.15 225.15 455.7392578125 225.153515625 455.45 225.45 455.153515625 225.7392578125 455.15 226.15
L 455.15 229.15
Q 455.153515625 229.5607421875 455.45 229.85 455.7392578125 230.146484375 456.15 230.15 456.5607421875 230.146484375 456.85 229.85
M 457.15 233.15
Q 457.146484375 232.7392578125 456.85 232.45 456.5607421875 232.153515625 456.15 232.15 455.7392578125 232.153515625 455.45 232.45 455.153515625 232.7392578125 455.15 233.15
L 455.15 236.15
Q 455.153515625 236.5607421875 455.45 236.85 455.7392578125 237.146484375 456.15 237.15 456.5607421875 237.146484375 456.85 236.85 457.146484375 236.5607421875 457.15 236.15
L 457.15 233.15
M 455.15 219.15
L 455.15 222.15
Q 455.153515625 222.5607421875 455.45 222.85 455.7392578125 223.146484375 456.15 223.15 456.5607421875 223.146484375 456.85 222.85 457.146484375 222.5607421875 457.15 222.15
L 457.15 219.15
Q 457.146484375 218.7392578125 456.85 218.45 456.5607421875 218.153515625 456.15 218.15 455.7392578125 218.153515625 455.45 218.45 455.153515625 218.7392578125 455.15 219.15
M 455.15 215.15
Q 455.153515625 215.5607421875 455.45 215.85 455.7392578125 216.146484375 456.15 216.15 456.5607421875 216.146484375 456.85 215.85 457.146484375 215.5607421875 457.15 215.15
L 457.15 212.15
Q 457.146484375 211.7392578125 456.85 211.45 456.5607421875 211.153515625 456.15 211.15 455.7392578125 211.153515625 455.45 211.45 455.153515625 211.7392578125 455.15 212.15
L 455.15 215.15
M 456.85 208.85
Q 457.146484375 208.5607421875 457.15 208.15
L 457.15 205.15
Q 457.146484375 204.7392578125 456.85 204.45 456.5607421875 204.153515625 456.15 204.15 455.7392578125 204.153515625 455.45 204.45 455.153515625 204.7392578125 455.15 205.15
L 455.15 208.15
Q 455.153515625 208.5607421875 455.45 208.85 455.7392578125 209.146484375 456.15 209.15 456.5607421875 209.146484375 456.85 208.85
M 456.85 197.45
Q 456.5607421875 197.153515625 456.15 197.15 455.7392578125 197.153515625 455.45 197.45 455.153515625 197.7392578125 455.15 198.15
L 455.15 201.15
Q 455.153515625 201.5607421875 455.45 201.85 455.7392578125 202.146484375 456.15 202.15 456.5607421875 202.146484375 456.85 201.85 457.146484375 201.5607421875 457.15 201.15
L 457.15 198.15
Q 457.146484375 197.7392578125 456.85 197.45
M 455.15 194.15
Q 455.153515625 194.5607421875 455.45 194.85 455.7392578125 195.146484375 456.15 195.15 456.5607421875 195.146484375 456.85 194.85 457.146484375 194.5607421875 457.15 194.15
L 457.15 191.15
Q 457.146484375 190.7392578125 456.85 190.45 456.5607421875 190.153515625 456.15 190.15 455.7392578125 190.153515625 455.45 190.45 455.153515625 190.7392578125 455.15 191.15
L 455.15 194.15
M 367.85 197.45
Q 367.5607421875 197.153515625 367.15 197.15 366.7392578125 197.153515625 366.45 197.45 366.153515625 197.7392578125 366.15 198.15
L 366.15 201.15
Q 366.153515625 201.5607421875 366.45 201.85 366.7392578125 202.146484375 367.15 202.15 367.5607421875 202.146484375 367.85 201.85 368.146484375 201.5607421875 368.15 201.15
L 368.15 198.15
Q 368.146484375 197.7392578125 367.85 197.45
M 368.15 191.15
Q 368.146484375 190.7392578125 367.85 190.45 367.5607421875 190.153515625 367.15 190.15 366.7392578125 190.153515625 366.45 190.45 366.153515625 190.7392578125 366.15 191.15
L 366.15 194.15
Q 366.153515625 194.5607421875 366.45 194.85 366.7392578125 195.146484375 367.15 195.15 367.5607421875 195.146484375 367.85 194.85 368.146484375 194.5607421875 368.15 194.15
L 368.15 191.15
M 413.6 98.95
Q 413.896484375 98.6607421875 413.9 98.25
L 413.9 95.25
Q 413.896484375 94.8392578125 413.6 94.55 413.3107421875 94.253515625 412.9 94.25 412.4892578125 94.253515625 412.2 94.55 411.903515625 94.8392578125 411.9 95.25
L 411.9 98.25
Q 411.903515625 98.6607421875 412.2 98.95 412.4892578125 99.246484375 412.9 99.25 413.3107421875 99.246484375 413.6 98.95
M 413.6 87.55
Q 413.3107421875 87.253515625 412.9 87.25 412.4892578125 87.253515625 412.2 87.55 411.903515625 87.8392578125 411.9 88.25
L 411.9 91.25
Q 411.903515625 91.6607421875 412.2 91.95 412.4892578125 92.246484375 412.9 92.25 413.3107421875 92.246484375 413.6 91.95 413.896484375 91.6607421875 413.9 91.25
L 413.9 88.25
Q 413.896484375 87.8392578125 413.6 87.55
M 413.6 84.95
Q 413.896484375 84.6607421875 413.9 84.25
L 413.9 81.25
Q 413.896484375 80.8392578125 413.6 80.55 413.3107421875 80.253515625 412.9 80.25 412.4892578125 80.253515625 412.2 80.55 411.903515625 80.8392578125 411.9 81.25
L 411.9 84.25
Q 411.903515625 84.6607421875 412.2 84.95 412.4892578125 85.246484375 412.9 85.25 413.3107421875 85.246484375 413.6 84.95
M 413.6 73.55
Q 413.3107421875 73.253515625 412.9 73.25 412.4892578125 73.253515625 412.2 73.55 411.903515625 73.8392578125 411.9 74.25
L 411.9 77.25
Q 411.903515625 77.6607421875 412.2 77.95 412.4892578125 78.246484375 412.9 78.25 413.3107421875 78.246484375 413.6 77.95 413.896484375 77.6607421875 413.9 77.25
L 413.9 74.25
Q 413.896484375 73.8392578125 413.6 73.55
M 413.9 67.25
Q 413.896484375 66.8392578125 413.6 66.55 413.3107421875 66.253515625 412.9 66.25 412.4892578125 66.253515625 412.2 66.55 411.903515625 66.8392578125 411.9 67.25
L 411.9 70.25
Q 411.903515625 70.6607421875 412.2 70.95 412.4892578125 71.246484375 412.9 71.25 413.3107421875 71.246484375 413.6 70.95 413.896484375 70.6607421875 413.9 70.25
L 413.9 67.25
M 412.2 59.55
Q 411.903515625 59.8392578125 411.9 60.25
L 411.9 63.25
Q 411.903515625 63.6607421875 412.2 63.95 412.4892578125 64.246484375 412.9 64.25 413.3107421875 64.246484375 413.6 63.95 413.896484375 63.6607421875 413.9 63.25
L 413.9 60.25
Q 413.896484375 59.8392578125 413.6 59.55 413.3107421875 59.253515625 412.9 59.25 412.4892578125 59.253515625 412.2 59.55
M 413.9 53.25
Q 413.896484375 52.8392578125 413.6 52.55 413.3107421875 52.253515625 412.9 52.25 412.4892578125 52.253515625 412.2 52.55 411.903515625 52.8392578125 411.9 53.25
L 411.9 56.25
Q 411.903515625 56.6607421875 412.2 56.95 412.4892578125 57.246484375 412.9 57.25 413.3107421875 57.246484375 413.6 56.95 413.896484375 56.6607421875 413.9 56.25
L 413.9 53.25
M 412.2 45.55
Q 411.903515625 45.8392578125 411.9 46.25
L 411.9 49.25
Q 411.903515625 49.6607421875 412.2 49.95 412.4892578125 50.246484375 412.9 50.25 413.3107421875 50.246484375 413.6 49.95 413.896484375 49.6607421875 413.9 49.25
L 413.9 46.25
Q 413.896484375 45.8392578125 413.6 45.55 413.3107421875 45.253515625 412.9 45.25 412.4892578125 45.253515625 412.2 45.55
M 413.6 38.55
Q 413.3107421875 38.253515625 412.9 38.25 412.4892578125 38.253515625 412.2 38.55 411.903515625 38.8392578125 411.9 39.25
L 411.9 42.25
Q 411.903515625 42.6607421875 412.2 42.95 412.4892578125 43.246484375 412.9 43.25 413.3107421875 43.246484375 413.6 42.95 413.896484375 42.6607421875 413.9 42.25
L 413.9 39.25
Q 413.896484375 38.8392578125 413.6 38.55
M 413.6 31.55
Q 413.3107421875 31.253515625 412.9 31.25 412.4892578125 31.253515625 412.2 31.55 411.903515625 31.8392578125 411.9 32.25
L 411.9 35.25
Q 411.903515625 35.6607421875 412.2 35.95 412.4892578125 36.246484375 412.9 36.25 413.3107421875 36.246484375 413.6 35.95 413.896484375 35.6607421875 413.9 35.25
L 413.9 32.25
Q 413.896484375 31.8392578125 413.6 31.55
M 413.6 24.55
Q 413.3107421875 24.253515625 412.9 24.25 412.4892578125 24.253515625 412.2 24.55 411.903515625 24.8392578125 411.9 25.25
L 411.9 28.25
Q 411.903515625 28.6607421875 412.2 28.95 412.4892578125 29.246484375 412.9 29.25 413.3107421875 29.246484375 413.6 28.95 413.896484375 28.6607421875 413.9 28.25
L 413.9 25.25
Q 413.896484375 24.8392578125 413.6 24.55
M 413.9 18.25
Q 413.896484375 17.8392578125 413.6 17.55 413.3107421875 17.253515625 412.9 17.25 412.4892578125 17.253515625 412.2 17.55 411.903515625 17.8392578125 411.9 18.25
L 411.9 21.25
Q 411.903515625 21.6607421875 412.2 21.95 412.4892578125 22.246484375 412.9 22.25 413.3107421875 22.246484375 413.6 21.95 413.896484375 21.6607421875 413.9 21.25
L 413.9 18.25
M 412.2 10.55
Q 411.903515625 10.8392578125 411.9 11.25
L 411.9 14.25
Q 411.903515625 14.6607421875 412.2 14.95 412.4892578125 15.246484375 412.9 15.25 413.3107421875 15.246484375 413.6 14.95 413.896484375 14.6607421875 413.9 14.25
L 413.9 11.25
Q 413.896484375 10.8392578125 413.6 10.55 413.3107421875 10.253515625 412.9 10.25 412.4892578125 10.253515625 412.2 10.55
M 634.85 197.45
Q 634.5607421875 197.153515625 634.15 197.15 633.7392578125 197.153515625 633.45 197.45 633.153515625 197.7392578125 633.15 198.15
L 633.15 201.15
Q 633.153515625 201.5607421875 633.45 201.85 633.7392578125 202.146484375 634.15 202.15 634.5607421875 202.146484375 634.85 201.85 635.146484375 201.5607421875 635.15 201.15
L 635.15 198.15
Q 635.146484375 197.7392578125 634.85 197.45
M 635.15 191.15
Q 635.146484375 190.7392578125 634.85 190.45 634.5607421875 190.153515625 634.15 190.15 633.7392578125 190.153515625 633.45 190.45 633.153515625 190.7392578125 633.15 191.15
L 633.15 194.15
Q 633.153515625 194.5607421875 633.45 194.85 633.7392578125 195.146484375 634.15 195.15 634.5607421875 195.146484375 634.85 194.85 635.146484375 194.5607421875 635.15 194.15
L 635.15 191.15
M 545.85 197.45
Q 545.5607421875 197.153515625 545.15 197.15 544.7392578125 197.153515625 544.45 197.45 544.153515625 197.7392578125 544.15 198.15
L 544.15 201.15
Q 544.153515625 201.5607421875 544.45 201.85 544.7392578125 202.146484375 545.15 202.15 545.5607421875 202.146484375 545.85 201.85 546.146484375 201.5607421875 546.15 201.15
L 546.15 198.15
Q 546.146484375 197.7392578125 545.85 197.45
M 546.15 191.15
Q 546.146484375 190.7392578125 545.85 190.45 545.5607421875 190.153515625 545.15 190.15 544.7392578125 190.153515625 544.45 190.45 544.153515625 190.7392578125 544.15 191.15
L 544.15 194.15
Q 544.153515625 194.5607421875 544.45 194.85 544.7392578125 195.146484375 545.15 195.15 545.5607421875 195.146484375 545.85 194.85 546.146484375 194.5607421875 546.15 194.15
L 546.15 191.15
M 570.3 98.95
Q 570.596484375 98.6607421875 570.6 98.25
L 570.6 95.25
Q 570.596484375 94.8392578125 570.3 94.55 570.0107421875 94.253515625 569.6 94.25 569.1892578125 94.253515625 568.9 94.55 568.603515625 94.8392578125 568.6 95.25
L 568.6 98.25
Q 568.603515625 98.6607421875 568.9 98.95 569.1892578125 99.246484375 569.6 99.25 570.0107421875 99.246484375 570.3 98.95
M 570.3 87.55
Q 570.0107421875 87.253515625 569.6 87.25 569.1892578125 87.253515625 568.9 87.55 568.603515625 87.8392578125 568.6 88.25
L 568.6 91.25
Q 568.603515625 91.6607421875 568.9 91.95 569.1892578125 92.246484375 569.6 92.25 570.0107421875 92.246484375 570.3 91.95 570.596484375 91.6607421875 570.6 91.25
L 570.6 88.25
Q 570.596484375 87.8392578125 570.3 87.55
M 570.3 84.95
Q 570.596484375 84.6607421875 570.6 84.25
L 570.6 81.25
Q 570.596484375 80.8392578125 570.3 80.55 570.0107421875 80.253515625 569.6 80.25 569.1892578125 80.253515625 568.9 80.55 568.603515625 80.8392578125 568.6 81.25
L 568.6 84.25
Q 568.603515625 84.6607421875 568.9 84.95 569.1892578125 85.246484375 569.6 85.25 570.0107421875 85.246484375 570.3 84.95
M 570.3 73.55
Q 570.0107421875 73.253515625 569.6 73.25 569.1892578125 73.253515625 568.9 73.55 568.603515625 73.8392578125 568.6 74.25
L 568.6 77.25
Q 568.603515625 77.6607421875 568.9 77.95 569.1892578125 78.246484375 569.6 78.25 570.0107421875 78.246484375 570.3 77.95 570.596484375 77.6607421875 570.6 77.25
L 570.6 74.25
Q 570.596484375 73.8392578125 570.3 73.55
M 570.6 67.25
Q 570.596484375 66.8392578125 570.3 66.55 570.0107421875 66.253515625 569.6 66.25 569.1892578125 66.253515625 568.9 66.55 568.603515625 66.8392578125 568.6 67.25
L 568.6 70.25
Q 568.603515625 70.6607421875 568.9 70.95 569.1892578125 71.246484375 569.6 71.25 570.0107421875 71.246484375 570.3 70.95 570.596484375 70.6607421875 570.6 70.25
L 570.6 67.25
M 568.9 59.55
Q 568.603515625 59.8392578125 568.6 60.25
L 568.6 63.25
Q 568.603515625 63.6607421875 568.9 63.95 569.1892578125 64.246484375 569.6 64.25 570.0107421875 64.246484375 570.3 63.95 570.596484375 63.6607421875 570.6 63.25
L 570.6 60.25
Q 570.596484375 59.8392578125 570.3 59.55 570.0107421875 59.253515625 569.6 59.25 569.1892578125 59.253515625 568.9 59.55
M 570.6 53.25
Q 570.596484375 52.8392578125 570.3 52.55 570.0107421875 52.253515625 569.6 52.25 569.1892578125 52.253515625 568.9 52.55 568.603515625 52.8392578125 568.6 53.25
L 568.6 56.25
Q 568.603515625 56.6607421875 568.9 56.95 569.1892578125 57.246484375 569.6 57.25 570.0107421875 57.246484375 570.3 56.95 570.596484375 56.6607421875 570.6 56.25
L 570.6 53.25
M 568.9 45.55
Q 568.603515625 45.8392578125 568.6 46.25
L 568.6 49.25
Q 568.603515625 49.6607421875 568.9 49.95 569.1892578125 50.246484375 569.6 50.25 570.0107421875 50.246484375 570.3 49.95 570.596484375 49.6607421875 570.6 49.25
L 570.6 46.25
Q 570.596484375 45.8392578125 570.3 45.55 570.0107421875 45.253515625 569.6 45.25 569.1892578125 45.253515625 568.9 45.55
M 570.3 38.55
Q 570.0107421875 38.253515625 569.6 38.25 569.1892578125 38.253515625 568.9 38.55 568.603515625 38.8392578125 568.6 39.25
L 568.6 42.25
Q 568.603515625 42.6607421875 568.9 42.95 569.1892578125 43.246484375 569.6 43.25 570.0107421875 43.246484375 570.3 42.95 570.596484375 42.6607421875 570.6 42.25
L 570.6 39.25
Q 570.596484375 38.8392578125 570.3 38.55
M 570.3 31.55
Q 570.0107421875 31.253515625 569.6 31.25 569.1892578125 31.253515625 568.9 31.55 568.603515625 31.8392578125 568.6 32.25
L 568.6 35.25
Q 568.603515625 35.6607421875 568.9 35.95 569.1892578125 36.246484375 569.6 36.25 570.0107421875 36.246484375 570.3 35.95 570.596484375 35.6607421875 570.6 35.25
L 570.6 32.25
Q 570.596484375 31.8392578125 570.3 31.55
M 570.3 24.55
Q 570.0107421875 24.253515625 569.6 24.25 569.1892578125 24.253515625 568.9 24.55 568.603515625 24.8392578125 568.6 25.25
L 568.6 28.25
Q 568.603515625 28.6607421875 568.9 28.95 569.1892578125 29.246484375 569.6 29.25 570.0107421875 29.246484375 570.3 28.95 570.596484375 28.6607421875 570.6 28.25
L 570.6 25.25
Q 570.596484375 24.8392578125 570.3 24.55
M 570.6 18.25
Q 570.596484375 17.8392578125 570.3 17.55 570.0107421875 17.253515625 569.6 17.25 569.1892578125 17.253515625 568.9 17.55 568.603515625 17.8392578125 568.6 18.25
L 568.6 21.25
Q 568.603515625 21.6607421875 568.9 21.95 569.1892578125 22.246484375 569.6 22.25 570.0107421875 22.246484375 570.3 21.95 570.596484375 21.6607421875 570.6 21.25
L 570.6 18.25
M 568.9 10.55
Q 568.603515625 10.8392578125 568.6 11.25
L 568.6 14.25
Q 568.603515625 14.6607421875 568.9 14.95 569.1892578125 15.246484375 569.6 15.25 570.0107421875 15.246484375 570.3 14.95 570.596484375 14.6607421875 570.6 14.25
L 570.6 11.25
Q 570.596484375 10.8392578125 570.3 10.55 570.0107421875 10.253515625 569.6 10.25 569.1892578125 10.253515625 568.9 10.55 Z"/>
</g>

<path id="Layer0_0_1_STROKES" stroke="#1E1E1E" stroke-width="3" stroke-linejoin="miter" stroke-linecap="butt" stroke-miterlimit="3" fill="none" d="
M 1004.5 135.6
L 1042.7 135.6
M 845.5 135.6
L 883.7 135.6
M 15.95 55
L 54.15 55
M 15.95 235
L 54.15 235"/>

<path id="Layer0_0_2_STROKES" stroke="#0183BD" stroke-width="3" stroke-linejoin="miter" stroke-linecap="butt" stroke-miterlimit="10" fill="none" d="
M 99.5 100.75
L 99.5 11.25 256.2 11.25 412.9 11.25 569.6 11.25 726.35 11.25 726.35 100.75 569.6 100.75 412.9 100.75 256.2 100.75 99.5 100.75 Z
M 99.5 280.85
L 99.5 191.15 189.15 191.15 278.15 191.15 367.15 191.15 456.15 191.15 545.15 191.15 634.15 191.15 726.35 191.15 726.35 280.85 634.15 280.85 545.15 280.85 456.15 280.85 367.15 280.85 278.15 280.85 189.15 280.85 99.5 280.85 Z"/>
</defs>

<g transform="matrix( 1, 0, 0, 1, 0,0) ">
<use xlink:href="#Layer0_0_FILL"/>

<use xlink:href="#Layer0_0_1_STROKES"/>

<use xlink:href="#Layer0_0_2_STROKES"/>

<use xlink:href="#Layer0_0_STROKES_1_FILL"/>
</g>
</svg>
