<svg xmlns="http://www.w3.org/2000/svg" xmlns:xlink="http://www.w3.org/1999/xlink" viewBox="0 0 274.44 71.65"><defs><style>.cls-1,.cls-3,.cls-4,.cls-8{fill:none;}.cls-2{clip-path:url(#clip-path);}.cls-3,.cls-8{stroke:#231815;stroke-width:0.8px;}.cls-3{stroke-linejoin:round;}.cls-4{stroke:#e4007f;stroke-width:0.3px;}.cls-5{font-size:12px;fill:#231815;font-family:NanumSquareRoundB, NanumSquareRound;font-weight:700;}.cls-6{fill:#e4007f;}.cls-7{clip-path:url(#clip-path-3);}.cls-8{stroke-linejoin:bevel;}</style><clipPath id="clip-path" transform="translate(0)"><rect class="cls-1" width="105.76" height="71.65"/></clipPath><clipPath id="clip-path-3" transform="translate(0)"><rect class="cls-1" x="162" width="114.01" height="65.43"/></clipPath></defs><title>자산 1</title><g id="레이어_2" data-name="레이어 2"><g id="레이어_1-2" data-name="레이어 1"><g class="cls-2"><polygon class="cls-3" points="0.4 71.25 52.27 71.25 71.25 0.4 0.4 71.25"/><path class="cls-4" d="M67.55,13.87a7.05,7.05,0,0,1-6.18-3.67M8.75,62.88a7.66,7.66,0,0,1,3.8,6.62A7.19,7.19,0,0,1,12.39,71m31.38.06a8.11,8.11,0,0,1-.05-.86,7.66,7.66,0,0,1,7.67-7.67,7.54,7.54,0,0,1,2.9.57" transform="translate(0)"/></g><text class="cls-5" transform="translate(14.32 66.56)">45˚</text><text class="cls-5" transform="translate(37.32 13.81)">30˚</text><g class="cls-2"><path class="cls-4" d="M47.89,15.77c7.17,3.33,12,1.34,13.61-1.32" transform="translate(0)"/><path class="cls-6" d="M61,15l.36,1.33h0l.77-1.91c.36-.59.72-1.17,1.07-1.76-.57.38-1.14.76-1.7,1.15l-1.88.86,0,0Z" transform="translate(0)"/><path class="cls-4" d="M64.22,50.77c-13,.66-17.1,7-15.91,9.87" transform="translate(0)"/><path class="cls-6" d="M48.11,59.92l-1.29-.49,0,0,1.1,1.75.8,1.89c0-.68,0-1.37.07-2l.4-2,0,0Z" transform="translate(0)"/></g><g class="cls-7"><polygon class="cls-8" points="162.4 0.4 162.4 65.08 274.44 0.4 162.4 0.4"/><path class="cls-4" d="M260.33,8.56a8.2,8.2,0,0,1-2.66-6.05A7.88,7.88,0,0,1,258,.27M162.37,54.08a8.1,8.1,0,0,1,1.65-.17,8.21,8.21,0,0,1,7.81,5.67M170,.17V7.58H162.6" transform="translate(0)"/></g><text class="cls-5" transform="translate(165.97 51.59)">60˚</text><g class="cls-7"><path class="cls-4" d="M251.13,21.14c-2.62-8.38,1.36-14.15,4.38-14.95" transform="translate(0)"/><path class="cls-6" d="M254.82,6.47l-1.17-.73,0,0,2.06-.19,2-.51-1.59,1.3-1.37,1.54h0Z" transform="translate(0)"/></g></g></g></svg>