<?xml version="1.0" encoding="utf-8"?>
<!-- Generator: Adobe Illustrator 24.2.3, SVG Export Plug-In . SVG Version: 6.00 Build 0)  -->
<svg version="1.1" id="Layer_1" xmlns="http://www.w3.org/2000/svg" xmlns:xlink="http://www.w3.org/1999/xlink" x="0px" y="0px"
	 width="485px" height="385px" viewBox="0 0 485 385" enable-background="new 0 0 485 385" xml:space="preserve">
<g id="Layer_2_1_">
	<g id="Layer_8">
		<g enable-background="new    ">
			<path fill="#111111" d="M94.4,74.9c0.3,0.2,0.4,0.6,0.3,1c-0.7,6.1-1.4,11.9-2.1,17.2c-0.8,5.3-1.6,10.3-2.4,14.8
				c-0.2,1.3-0.6,2.1-1,2.5c-0.5,0.4-1.2,0.6-2.2,0.4c-0.5-0.1-0.9-0.2-1.1-0.3c-0.3-0.1-0.5-0.3-0.6-0.6c-0.1-0.3-0.2-0.6-0.2-1
				c0-0.4,0.1-0.9,0.1-1.6c0.2-1.2,0.4-2.6,0.6-4.1c0.2-1.5,0.4-3.2,0.7-4.9c0.2-1.7,0.5-3.5,0.7-5.3s0.5-3.5,0.7-5.2
				c0.2-1.7,0.4-3.2,0.6-4.7c0.2-1.5,0.3-2.7,0.4-3.8c-0.3,0-0.9,0-1.7,0c-0.8,0-1.8,0-2.9,0c-1.1,0-2.2,0-3.5,0.1
				c-1.2,0-2.4,0.1-3.4,0.1c-1,0-2,0.1-2.7,0.1c-0.8,0-1.3,0-1.4,0c-1.3,0-1.9-0.9-1.8-2.7c0-1.3,0.7-2,2-2c2.2-0.1,4-0.2,5.6-0.3
				c1.6-0.1,3.1-0.1,4.5-0.2c1.4,0,2.9-0.1,4.3-0.1c1.5,0,3.2,0,5.2,0C93.8,74.5,94.2,74.7,94.4,74.9z"/>
		</g>
		<g enable-background="new    ">
			<path fill="#111111" d="M122.9,106.1c-1.3,1.5-2.9,2.7-4.7,3.5c-1.8,0.8-3.7,1.3-5.7,1.3c-2,0.1-3.9-0.3-5.7-1s-3.4-1.8-4.7-3.3
				c-1.4-1.5-2.5-3.4-3.3-5.6c-0.8-2.3-1.2-4.9-1.2-7.8c0-2.7,0.3-5.1,1-7.3c0.7-2.2,1.7-4.1,3-5.7c1.3-1.6,2.8-2.9,4.7-3.8
				c1.8-1,3.9-1.5,6.2-1.7c2.2-0.2,4.3,0.1,6.1,0.9c1.8,0.8,3.4,2,4.7,3.6c1.3,1.6,2.3,3.6,3,6c0.7,2.4,1.1,5,1.1,8
				c0,2.8-0.4,5.3-1.2,7.5C125.3,102.7,124.3,104.6,122.9,106.1z M116.1,105.4c1.2-0.6,2.2-1.5,3.1-2.6c0.9-1.1,1.6-2.5,2.1-4.2
				c0.5-1.7,0.8-3.6,0.8-5.9c0-2.3-0.3-4.4-0.8-6.1c-0.5-1.8-1.2-3.2-2.1-4.3c-0.9-1.1-1.9-1.9-3.1-2.5c-1.2-0.5-2.4-0.7-3.7-0.6
				c-2.9,0.2-5.2,1.5-7,3.8c-1.8,2.3-2.6,5.7-2.6,10c0,2.3,0.3,4.3,0.8,6c0.5,1.7,1.2,3.1,2.1,4.2c0.9,1.1,1.9,1.9,3,2.4
				c1.1,0.5,2.3,0.7,3.5,0.7C113.6,106.2,114.9,105.9,116.1,105.4z"/>
			<path fill="#111111" d="M157.2,73.8c0,1.4-0.5,2.6-1.6,3.6c-1.1,1-2.3,1.5-3.8,1.5c-0.7,0-1.4-0.1-2-0.4
				c-0.6-0.3-1.2-0.6-1.7-1.1c-0.5-0.5-0.9-1-1.1-1.6c-0.3-0.6-0.4-1.3-0.4-2s0.1-1.4,0.4-2c0.3-0.6,0.6-1.1,1.1-1.6
				c0.5-0.5,1-0.8,1.7-1.1c0.6-0.3,1.3-0.4,2-0.4c0.7,0,1.4,0.1,2.1,0.4c0.6,0.3,1.2,0.6,1.7,1.1c0.5,0.5,0.9,1,1.1,1.6
				C157.1,72.4,157.2,73.1,157.2,73.8z M153.9,75.7c0.6-0.5,0.9-1.2,0.9-1.9c0-0.7-0.3-1.3-0.8-1.9c-0.6-0.5-1.2-0.8-2-0.8
				c-0.8,0-1.4,0.3-1.9,0.8c-0.5,0.5-0.8,1.2-0.8,1.9c0,0.7,0.3,1.4,0.8,1.9c0.5,0.5,1.2,0.8,1.9,0.8
				C152.7,76.5,153.4,76.2,153.9,75.7z"/>
		</g>
		<g enable-background="new    ">
			<path fill="#111111" d="M241.2,219c1.1,0.2,1.7,0.8,1.8,1.7c0.1,2,0.1,4.3,0.1,6.8c0,2.6,0.1,5.2,0.1,7.9c0,2.7,0,5.4,0,8
				c0,2.7-0.1,5.1-0.1,7.3c0,0.7,0,1.4,0,1.9s-0.1,1-0.2,1.4c-0.1,0.4-0.4,0.7-0.8,0.9c-0.4,0.2-0.9,0.3-1.7,0.4
				c-0.8,0-1.4,0-1.7-0.2c-0.3-0.2-0.5-0.5-0.6-0.9c-0.1-0.4-0.1-0.9-0.1-1.5c0-0.6,0-1.3,0-2c-0.1-1.8-0.1-3.8-0.1-6.1
				c0-2.2-0.1-4.5-0.1-6.8c0-2.3,0-4.6-0.1-6.8c0-2.2-0.1-4.3-0.1-6.1c-0.4,0.3-1,0.6-1.7,1.1c-0.8,0.5-1.5,0.9-2.4,1.4
				s-1.7,1-2.5,1.4c-0.8,0.5-1.5,0.8-2.1,1.1c-0.6,0.3-1.1,0.4-1.6,0.3c-0.5-0.1-0.9-0.4-1.3-1c-0.3-0.5-0.4-1-0.4-1.6
				c0-0.6,0.2-1.1,0.5-1.3c0.6-0.4,1.4-0.9,2.3-1.5c0.9-0.6,1.9-1.2,2.9-1.9c1-0.7,2-1.3,2.9-1.9c0.9-0.6,1.7-1.1,2.3-1.5
				c0.7-0.4,1.4-0.7,2.1-0.8C239.2,218.8,240.1,218.8,241.2,219z"/>
			<path fill="#111111" d="M272.5,244.7c-1.2,0-2.3,0.1-3.5,0.1c-0.1,0.7-0.1,1.4-0.2,2.1s-0.1,1.5-0.1,2.2c0,0.7,0,1.4,0,2
				s0,1.2-0.1,1.6c-0.1,1.2-0.3,1.9-0.6,2.3c-0.4,0.3-1,0.5-2,0.5c-0.9,0-1.4-0.2-1.7-0.6c-0.3-0.4-0.4-1.2-0.4-2.3c0-0.5,0-1,0-1.7
				c0-0.6,0-1.3,0-2s0-1.4,0-2.1c0-0.7,0-1.3,0-1.9c-1.1,0.1-2.2,0.1-3.3,0.2c-1.1,0-2.1,0.1-3.1,0.1s-1.8,0.1-2.5,0.1s-1.3,0-1.8,0
				c-1.6,0-2.9-0.5-3.8-1.3c-1-0.9-1.4-2.2-1.4-3.8c0-1.1,0-2.5,0.1-4c0.1-1.5,0.2-3.1,0.3-4.8c0.1-1.7,0.2-3.3,0.4-5
				c0.1-1.7,0.3-3.2,0.4-4.7c0.2-1.6,1-2.5,2.5-2.5c1.1,0,1.9,0.2,2.2,0.5c0.3,0.4,0.5,1,0.4,2c0,0.1,0,0.6-0.1,1.5
				c-0.1,0.9-0.1,1.9-0.2,3.2c-0.1,1.3-0.2,2.6-0.3,4c-0.1,1.4-0.2,2.8-0.3,4c-0.1,1.3-0.2,2.3-0.2,3.3c0,0.9-0.1,1.4-0.1,1.6
				c0,0.6,0.1,0.9,0.3,1.1c0.2,0.2,0.6,0.2,1.1,0.2c0.3,0,0.9,0,1.7,0c0.8,0,1.7,0,2.7-0.1c1,0,1.9,0,2.9,0c1,0,1.7,0,2.3-0.1
				c0.1-3,0.3-6.2,0.3-9.5c0.1-3.3,0.3-6.4,0.5-9.2c0.1-0.9,0.3-1.5,0.5-1.9s1-0.7,2.2-0.7c0.6,0,1.1,0.1,1.4,0.2
				c0.3,0.1,0.6,0.3,0.7,0.5s0.2,0.5,0.3,0.9c0,0.3,0,0.8,0,1.2c0,0.6,0,1.5-0.1,2.8s-0.1,2.8-0.2,4.4c-0.1,1.7-0.2,3.5-0.3,5.4
				c-0.1,1.9-0.2,3.8-0.3,5.6c1.2,0,2.3-0.1,3.5-0.1c1.1,0,2-0.1,2.6-0.1c0.6,0,1.1,0.1,1.4,0.2c0.3,0.1,0.5,0.7,0.5,1.5
				c0,1.1-0.2,1.8-0.5,2.1c-0.3,0.3-0.8,0.5-1.4,0.5C274.7,244.5,273.7,244.6,272.5,244.7z"/>
			<path fill="#111111" d="M286.1,235.1c0.5-0.4,1-0.8,1.7-1.2c0.7-0.4,1.4-0.7,2.2-1c0.8-0.3,1.6-0.5,2.4-0.7
				c0.8-0.2,1.7-0.2,2.6-0.2c1.5,0,2.8,0.3,4.1,0.9s2.3,1.3,3.2,2.3c0.9,1,1.6,2.2,2.1,3.7s0.7,3,0.7,4.8c-0.1,1.7-0.4,3.3-1,4.7
				c-0.6,1.4-1.4,2.7-2.5,3.7s-2.3,1.8-3.7,2.4c-1.5,0.6-3,0.8-4.8,0.8c-1.3,0-2.5-0.1-3.7-0.4s-2.3-0.7-3.3-1.2s-1.9-1.1-2.6-1.8
				s-1.2-1.4-1.6-2.2c-0.4-0.9-0.5-1.7-0.4-2.3c0.1-0.6,0.5-1.2,1.3-1.7c0.6-0.4,1.1-0.5,1.6-0.5c0.5,0.1,0.9,0.5,1.2,1.2
				c0.2,0.5,0.6,1,1.1,1.5s1.1,1,1.7,1.4c0.7,0.4,1.4,0.8,2.3,1c0.8,0.3,1.7,0.4,2.6,0.3c1.1,0,2-0.3,2.9-0.7c0.8-0.4,1.5-1,2.1-1.7
				c0.6-0.7,1-1.5,1.3-2.5c0.3-1,0.4-2,0.4-3c0-1.9-0.6-3.5-1.6-4.7s-2.5-1.8-4.5-1.8c-1.1,0-2.1,0.1-3,0.4
				c-0.9,0.3-1.7,0.6-2.3,0.9c-0.7,0.3-1.2,0.6-1.6,0.9c-0.4,0.3-0.6,0.5-0.8,0.6c-0.5,0.4-1.1,0.6-1.6,0.8c-0.5,0.1-1.1,0.1-1.5,0
				c-0.5-0.1-0.9-0.4-1.2-0.7c-0.3-0.4-0.5-0.8-0.5-1.4c0-0.7,0-1.7,0-3.1c0-1.4,0-2.9,0-4.6c0-1.7,0-3.3-0.1-5c0-1.7,0-3.2,0-4.4
				c0-0.9,0.5-1.3,1.5-1.3c2-0.1,3.8-0.1,5.3-0.2c1.6,0,3.2-0.1,4.7-0.1c1.6,0,3.2-0.1,4.9-0.1c1.7,0,3.6,0,5.8,0
				c0.5,0,0.9,0.1,1.3,0.4c0.3,0.3,0.5,0.8,0.4,1.6c0,0.9-0.2,1.5-0.5,1.8c-0.3,0.3-0.8,0.5-1.4,0.5c-1.2,0.1-2.5,0.2-4,0.3
				c-1.5,0.1-3,0.1-4.6,0.2c-1.5,0.1-3,0.1-4.5,0.2s-2.8,0.1-3.9,0.2L286.1,235.1z"/>
			<path fill="#111111" d="M335.1,218.2c0,1.4-0.5,2.6-1.6,3.6c-1.1,1-2.3,1.5-3.8,1.5c-0.7,0-1.4-0.1-2-0.4
				c-0.6-0.3-1.2-0.6-1.7-1.1c-0.5-0.5-0.9-1-1.1-1.6c-0.3-0.6-0.4-1.3-0.4-2s0.1-1.4,0.4-2c0.3-0.6,0.6-1.1,1.1-1.6
				c0.5-0.5,1-0.8,1.7-1.1c0.6-0.3,1.3-0.4,2-0.4s1.4,0.1,2.1,0.4c0.7,0.3,1.2,0.6,1.7,1.1c0.5,0.5,0.9,1,1.2,1.6
				C335,216.8,335.1,217.5,335.1,218.2z M331.8,220.1c0.6-0.5,0.9-1.2,0.9-1.9c0-0.7-0.3-1.3-0.8-1.9c-0.5-0.5-1.2-0.8-2-0.8
				c-0.8,0-1.4,0.3-1.9,0.8c-0.5,0.5-0.8,1.2-0.8,1.9c0,0.7,0.3,1.4,0.8,1.9c0.5,0.5,1.2,0.8,1.9,0.8
				C330.6,220.9,331.3,220.6,331.8,220.1z"/>
		</g>
		<g enable-background="new    ">
			<path fill="#111111" d="M375,361.4c-0.8,1.4-1.8,2.6-3,3.6c-1.3,1-2.7,1.7-4.3,2.2c-1.6,0.5-3.3,0.7-5.1,0.6
				c-1.9-0.1-3.7-0.4-5.3-1.1c-1.6-0.7-2.9-1.6-4-2.9s-1.9-2.8-2.5-4.5c-0.6-1.8-0.8-3.8-0.6-6.1c0.1-1.7,0.4-3.6,0.9-5.5
				s1.2-3.9,1.9-5.7c0.8-1.8,1.6-3.6,2.4-5.1c0.9-1.6,1.7-2.8,2.5-3.8c0.5-0.6,1-1.1,1.6-1.3c0.6-0.2,1.4-0.2,2.3,0.3
				c0.7,0.3,1.1,0.7,1.3,1.2c0.2,0.5,0,1.2-0.6,2c-0.4,0.6-0.9,1.5-1.5,2.6c-0.6,1.1-1.3,2.3-1.9,3.5c-0.6,1.2-1.2,2.4-1.8,3.5
				c-0.5,1.1-0.9,2-1.2,2.7c1-1.3,2.4-2.2,4.1-2.8c1.8-0.6,3.6-0.9,5.5-0.8c1.7,0.1,3.2,0.4,4.6,1c1.4,0.6,2.5,1.4,3.5,2.5
				s1.7,2.3,2.1,3.9s0.6,3.2,0.5,5.2C376.3,358.3,375.8,360,375,361.4z M368.6,361.3c0.8-0.6,1.5-1.4,2-2.4c0.5-1,0.8-2,0.9-3.2
				c0.1-1.3,0-2.4-0.4-3.3c-0.4-0.9-0.9-1.7-1.7-2.3c-0.7-0.6-1.6-1.1-2.6-1.4s-2.2-0.4-3.4-0.4c-1,0-2,0.2-3,0.5
				c-1,0.3-1.8,0.8-2.6,1.4s-1.4,1.3-1.9,2.2c-0.5,0.9-0.8,1.8-0.8,2.8c-0.1,1.2,0.1,2.3,0.5,3.2c0.4,0.9,0.9,1.8,1.5,2.4
				s1.5,1.2,2.4,1.6c0.9,0.4,1.9,0.6,2.9,0.7c1.2,0.1,2.3-0.1,3.4-0.4C366.8,362.4,367.8,362,368.6,361.3z"/>
			<path fill="#111111" d="M385.7,347.8c0.5-0.4,1-0.8,1.7-1.2c0.7-0.4,1.4-0.7,2.2-1c0.8-0.3,1.6-0.5,2.4-0.7
				c0.8-0.2,1.7-0.2,2.6-0.2c1.5,0,2.8,0.3,4.1,0.9s2.3,1.3,3.2,2.3c0.9,1,1.6,2.2,2.1,3.7s0.7,3,0.7,4.8c-0.1,1.7-0.4,3.3-1,4.7
				c-0.6,1.4-1.4,2.7-2.5,3.7s-2.3,1.8-3.7,2.4c-1.5,0.6-3,0.8-4.8,0.8c-1.3,0-2.5-0.1-3.7-0.4s-2.3-0.7-3.3-1.2s-1.9-1.1-2.6-1.8
				s-1.2-1.4-1.6-2.2c-0.4-0.9-0.5-1.7-0.4-2.3c0.1-0.6,0.5-1.2,1.3-1.7c0.6-0.4,1.1-0.5,1.6-0.5c0.5,0.1,0.9,0.5,1.2,1.2
				c0.2,0.5,0.6,1,1.1,1.5s1.1,1,1.7,1.4c0.7,0.4,1.4,0.8,2.3,1c0.8,0.3,1.7,0.4,2.6,0.3c1.1,0,2-0.3,2.9-0.7c0.8-0.4,1.5-1,2.1-1.7
				c0.6-0.7,1-1.5,1.3-2.5c0.3-1,0.4-2,0.4-3c0-1.9-0.6-3.5-1.6-4.7s-2.5-1.8-4.5-1.8c-1.1,0-2.1,0.1-3,0.4
				c-0.9,0.3-1.7,0.6-2.3,0.9c-0.7,0.3-1.2,0.6-1.6,0.9c-0.4,0.3-0.6,0.5-0.8,0.6c-0.5,0.4-1.1,0.6-1.6,0.8c-0.5,0.1-1.1,0.1-1.5,0
				c-0.5-0.1-0.9-0.4-1.2-0.7c-0.3-0.4-0.5-0.8-0.5-1.4c0-0.7,0-1.7,0-3.1c0-1.4,0-2.9,0-4.6c0-1.7,0-3.3-0.1-5c0-1.7,0-3.2,0-4.4
				c0-0.9,0.5-1.3,1.5-1.3c2-0.1,3.8-0.1,5.3-0.2c1.6,0,3.2-0.1,4.7-0.1c1.6,0,3.2-0.1,4.9-0.1c1.7,0,3.6,0,5.8,0
				c0.5,0,0.9,0.1,1.3,0.4c0.3,0.3,0.5,0.8,0.4,1.6c0,0.9-0.2,1.5-0.5,1.8c-0.3,0.3-0.8,0.5-1.4,0.5c-1.2,0.1-2.5,0.2-4,0.3
				c-1.5,0.1-3,0.1-4.6,0.2c-1.5,0.1-3,0.1-4.5,0.2s-2.8,0.1-3.9,0.2L385.7,347.8z"/>
			<path fill="#111111" d="M434.7,330.9c0,1.4-0.5,2.6-1.6,3.6c-1.1,1-2.3,1.5-3.8,1.5c-0.7,0-1.4-0.1-2-0.4
				c-0.6-0.3-1.2-0.6-1.7-1.1c-0.5-0.5-0.9-1-1.1-1.6c-0.3-0.6-0.4-1.3-0.4-2s0.1-1.4,0.4-2c0.3-0.6,0.6-1.1,1.1-1.6
				c0.5-0.5,1-0.8,1.7-1.1c0.6-0.3,1.3-0.4,2-0.4c0.7,0,1.4,0.1,2.1,0.4c0.6,0.3,1.2,0.6,1.7,1.1c0.5,0.5,0.9,1,1.1,1.6
				C434.6,329.5,434.7,330.2,434.7,330.9z M431.4,332.8c0.6-0.5,0.8-1.2,0.8-1.9c0-0.7-0.3-1.3-0.8-1.9c-0.6-0.5-1.2-0.8-2-0.8
				c-0.8,0-1.4,0.3-2,0.8c-0.5,0.5-0.8,1.2-0.8,1.9c0,0.7,0.3,1.4,0.8,1.9c0.5,0.5,1.2,0.8,2,0.8
				C430.2,333.6,430.8,333.3,431.4,332.8z"/>
		</g>
		<path fill="none" stroke="#E4007F" stroke-width="3" d="M13.8,341.2c0.8,0,1.6-0.1,2.4-0.1c18.8,0,34,15.2,34,34l0,0
			c0,1.9-0.1,3.7-0.5,5.6 M432.2,380.4c-3.6-17.6,7.3-35,24.8-39.3 M398.9,214.3c-14.4,10.4-34.4,7.2-44.8-7.2
			c-8.5-11.8-8.1-27.8,1.1-39 M112.2,28.8c-6.8,17.6-26.5,26.3-44.1,19.5c-0.9-0.4-1.9-0.8-2.8-1.2"/>
		<polygon fill="none" stroke="#000000" stroke-width="3" stroke-linejoin="round" points="385.8,184.1 73.9,4.1 7.5,380.9 
			477.5,380.9 		"/>
	</g>
</g>
</svg>
