<?xml version="1.0" encoding="utf-8"?>
<!-- Generator: Adobe Illustrator 24.2.3, SVG Export Plug-In . SVG Version: 6.00 Build 0)  -->
<svg version="1.1" id="Layer_1" xmlns="http://www.w3.org/2000/svg" xmlns:xlink="http://www.w3.org/1999/xlink" x="0px" y="0px"
	 width="660px" height="400px" viewBox="0 0 660 400" enable-background="new 0 0 660 400" xml:space="preserve">
<g id="Layer_2_1_">
	<g id="Layer_9">
		<path fill="#FFFFFF" d="M369.7,58.4C212.6,58.4,85.1,185.9,85.1,343v14.3h569.2V343C654.3,185.8,526.9,58.4,369.7,58.4"/>
		<path fill="none" stroke="#00A0E9" stroke-width="2" d="M369.7,58.4C212.6,58.4,85.1,185.9,85.1,343v14.3h569.2V343
			C654.3,185.9,526.9,58.4,369.7,58.4z"/>
		<line fill="none" stroke="#00A0E9" stroke-width="2" x1="557.1" y1="274.9" x2="423.7" y2="323.4"/>
		<line fill="none" stroke="#00A0E9" stroke-width="2" x1="542.4" y1="243.4" x2="419.7" y2="314.2"/>
		<line fill="none" stroke="#00A0E9" stroke-width="2" x1="522.5" y1="214.9" x2="413.8" y2="306.1"/>
		<line fill="none" stroke="#00A0E9" stroke-width="2" x1="497.9" y1="190.3" x2="406.7" y2="299"/>
		<line fill="none" stroke="#00A0E9" stroke-width="2" x1="469.4" y1="170.4" x2="398.6" y2="293.1"/>
		<line fill="none" stroke="#00A0E9" stroke-width="2" x1="437.9" y1="155.6" x2="389.4" y2="288.9"/>
		<line fill="none" stroke="#00A0E9" stroke-width="2" x1="404.3" y1="146.6" x2="379.7" y2="286.2"/>
		<line fill="none" stroke="#00A0E9" stroke-width="2" x1="369.7" y1="143.6" x2="369.7" y2="343.1"/>
		<line fill="none" stroke="#00A0E9" stroke-width="2" x1="335.1" y1="146.6" x2="359.6" y2="285.9"/>
		<line fill="none" stroke="#00A0E9" stroke-width="2" x1="301.5" y1="155.6" x2="349.9" y2="288.7"/>
		<line fill="none" stroke="#00A0E9" stroke-width="2" x1="269.9" y1="170.4" x2="340.8" y2="293.1"/>
		<line fill="none" stroke="#00A0E9" stroke-width="2" x1="241.5" y1="190.3" x2="332.6" y2="298.9"/>
		<line fill="none" stroke="#00A0E9" stroke-width="2" x1="216.9" y1="214.9" x2="325.4" y2="305.9"/>
		<line fill="none" stroke="#00A0E9" stroke-width="2" x1="197" y1="243.4" x2="319.6" y2="314.2"/>
		<line fill="none" stroke="#00A0E9" stroke-width="2" x1="182.2" y1="274.9" x2="315.4" y2="323.4"/>
		<line fill="none" stroke="#00A0E9" stroke-width="2" x1="173.2" y1="308.5" x2="312.8" y2="333"/>
		<line fill="none" stroke="#00A0E9" stroke-width="2" x1="170.2" y1="343.1" x2="369.7" y2="343.1"/>
		<line fill="none" stroke="#00A0E9" stroke-width="2" x1="654.4" y1="343" x2="617.7" y2="343"/>
		<line fill="none" stroke="#00A0E9" x1="654.3" y1="338.1" x2="628.6" y2="338.5"/>
		<line fill="none" stroke="#00A0E9" x1="654.2" y1="333.1" x2="628.5" y2="334"/>
		<line fill="none" stroke="#00A0E9" x1="654" y1="328.2" x2="628.3" y2="329.5"/>
		<line fill="none" stroke="#00A0E9" x1="653.7" y1="323.2" x2="628" y2="325"/>
		<line fill="none" stroke="#00A0E9" stroke-width="2" x1="653.3" y1="318.3" x2="620.8" y2="321.1"/>
		<line fill="none" stroke="#00A0E9" x1="652.8" y1="313.3" x2="627.2" y2="316"/>
		<line fill="none" stroke="#00A0E9" x1="652.2" y1="308.4" x2="626.7" y2="311.5"/>
		<line fill="none" stroke="#00A0E9" x1="651.6" y1="303.4" x2="626.1" y2="307"/>
		<line fill="none" stroke="#00A0E9" x1="650.8" y1="298.5" x2="625.5" y2="302.5"/>
		<line fill="none" stroke="#00A0E9" stroke-width="2" x1="650" y1="293.6" x2="613.9" y2="300"/>
		<line fill="none" stroke="#00A0E9" x1="649.1" y1="288.8" x2="623.9" y2="293.7"/>
		<line fill="none" stroke="#00A0E9" x1="648.1" y1="283.9" x2="623" y2="289.2"/>
		<line fill="none" stroke="#00A0E9" x1="647.1" y1="279" x2="622" y2="284.8"/>
		<line fill="none" stroke="#00A0E9" x1="645.9" y1="274.2" x2="621" y2="280.4"/>
		<line fill="none" stroke="#00A0E9" stroke-width="2" x1="644.7" y1="269.4" x2="613.1" y2="277.8"/>
		<line fill="none" stroke="#00A0E9" x1="643.3" y1="264.6" x2="618.6" y2="271.7"/>
		<line fill="none" stroke="#00A0E9" x1="641.9" y1="259.8" x2="617.4" y2="267.4"/>
		<line fill="none" stroke="#00A0E9" x1="640.4" y1="255.1" x2="616" y2="263"/>
		<line fill="none" stroke="#00A0E9" x1="638.8" y1="250.4" x2="614.5" y2="258.7"/>
		<line fill="none" stroke="#00A0E9" stroke-width="2" x1="637.2" y1="245.7" x2="602.7" y2="258.2"/>
		<line fill="none" stroke="#00A0E9" x1="635.5" y1="241.1" x2="611.5" y2="250.3"/>
		<line fill="none" stroke="#00A0E9" x1="633.6" y1="236.4" x2="609.8" y2="246.1"/>
		<line fill="none" stroke="#00A0E9" x1="631.7" y1="231.9" x2="608.1" y2="241.9"/>
		<line fill="none" stroke="#00A0E9" x1="629.8" y1="227.3" x2="606.3" y2="237.7"/>
		<line fill="none" stroke="#00A0E9" stroke-width="2" x1="627.7" y1="222.8" x2="598.1" y2="236.6"/>
		<line fill="none" stroke="#00A0E9" x1="625.5" y1="218.3" x2="602.5" y2="229.6"/>
		<line fill="none" stroke="#00A0E9" x1="623.3" y1="213.8" x2="600.4" y2="225.5"/>
		<line fill="none" stroke="#00A0E9" x1="621.1" y1="209.4" x2="598.3" y2="221.5"/>
		<line fill="none" stroke="#00A0E9" x1="618.7" y1="205.1" x2="596.2" y2="217.5"/>
		<line fill="none" stroke="#00A0E9" stroke-width="2" x1="616.2" y1="200.7" x2="584.5" y2="219.1"/>
		<line fill="none" stroke="#00A0E9" x1="613.7" y1="196.5" x2="591.7" y2="209.7"/>
		<line fill="none" stroke="#00A0E9" x1="611.1" y1="192.2" x2="589.3" y2="205.9"/>
		<line fill="none" stroke="#00A0E9" x1="608.4" y1="188.1" x2="586.9" y2="202"/>
		<line fill="none" stroke="#00A0E9" x1="605.7" y1="183.9" x2="584.4" y2="198.3"/>
		<line fill="none" stroke="#00A0E9" stroke-width="2" x1="602.9" y1="179.8" x2="576.1" y2="198.5"/>
		<line fill="none" stroke="#00A0E9" x1="600" y1="175.8" x2="579.2" y2="190.9"/>
		<line fill="none" stroke="#00A0E9" x1="597" y1="171.8" x2="576.5" y2="187.2"/>
		<line fill="none" stroke="#00A0E9" x1="594" y1="167.8" x2="573.8" y2="183.6"/>
		<line fill="none" stroke="#00A0E9" x1="590.9" y1="163.9" x2="570.9" y2="180.1"/>
		<line fill="none" stroke="#00A0E9" stroke-width="2" x1="587.8" y1="160.1" x2="559.7" y2="183.7"/>
		<line fill="none" stroke="#00A0E9" x1="584.6" y1="156.3" x2="565.1" y2="173.2"/>
		<line fill="none" stroke="#00A0E9" x1="581.3" y1="152.6" x2="562.1" y2="169.8"/>
		<line fill="none" stroke="#00A0E9" x1="577.9" y1="148.9" x2="559.1" y2="166.5"/>
		<line fill="none" stroke="#00A0E9" x1="574.5" y1="145.4" x2="556" y2="163.2"/>
		<line fill="none" stroke="#00A0E9" stroke-width="2" x1="571" y1="141.8" x2="547.9" y2="164.9"/>
		<line fill="none" stroke="#00A0E9" x1="567.5" y1="138.3" x2="549.6" y2="156.8"/>
		<line fill="none" stroke="#00A0E9" x1="563.9" y1="134.9" x2="546.3" y2="153.7"/>
		<line fill="none" stroke="#00A0E9" x1="560.2" y1="131.6" x2="543" y2="150.6"/>
		<line fill="none" stroke="#00A0E9" x1="556.5" y1="128.3" x2="539.6" y2="147.6"/>
		<line fill="none" stroke="#00A0E9" stroke-width="2" x1="552.7" y1="125" x2="529.1" y2="153.1"/>
		<line fill="none" stroke="#00A0E9" x1="548.9" y1="121.9" x2="532.7" y2="141.9"/>
		<line fill="none" stroke="#00A0E9" x1="545" y1="118.8" x2="529.2" y2="139"/>
		<line fill="none" stroke="#00A0E9" x1="541" y1="115.8" x2="525.6" y2="136.3"/>
		<line fill="none" stroke="#00A0E9" x1="537" y1="112.8" x2="521.9" y2="133.6"/>
		<line fill="none" stroke="#00A0E9" stroke-width="2" x1="533" y1="109.9" x2="514.3" y2="136.6"/>
		<line fill="none" stroke="#00A0E9" x1="528.9" y1="107.1" x2="514.5" y2="128.4"/>
		<line fill="none" stroke="#00A0E9" x1="524.8" y1="104.4" x2="510.8" y2="125.9"/>
		<line fill="none" stroke="#00A0E9" x1="520.6" y1="101.7" x2="506.9" y2="123.5"/>
		<line fill="none" stroke="#00A0E9" x1="516.3" y1="99.1" x2="503.1" y2="121.1"/>
		<line fill="none" stroke="#00A0E9" stroke-width="2" x1="512.1" y1="96.6" x2="493.7" y2="128.3"/>
		<line fill="none" stroke="#00A0E9" x1="507.8" y1="94.1" x2="495.3" y2="116.6"/>
		<line fill="none" stroke="#00A0E9" x1="503.4" y1="91.8" x2="491.3" y2="114.4"/>
		<line fill="none" stroke="#00A0E9" x1="499" y1="89.5" x2="487.3" y2="112.4"/>
		<line fill="none" stroke="#00A0E9" x1="494.5" y1="87.2" x2="483.2" y2="110.3"/>
		<line fill="none" stroke="#00A0E9" stroke-width="2" x1="490.1" y1="85.1" x2="476.2" y2="114.7"/>
		<line fill="none" stroke="#00A0E9" x1="485.5" y1="83.1" x2="475.1" y2="106.5"/>
		<line fill="none" stroke="#00A0E9" x1="481" y1="81.1" x2="470.9" y2="104.7"/>
		<line fill="none" stroke="#00A0E9" x1="476.4" y1="79.2" x2="466.7" y2="103"/>
		<line fill="none" stroke="#00A0E9" x1="471.7" y1="77.3" x2="462.5" y2="101.3"/>
		<line fill="none" stroke="#00A0E9" stroke-width="2" x1="467.1" y1="75.6" x2="454.5" y2="110"/>
		<line fill="none" stroke="#00A0E9" x1="462.4" y1="73.9" x2="454" y2="98.3"/>
		<line fill="none" stroke="#00A0E9" x1="457.7" y1="72.4" x2="449.8" y2="96.8"/>
		<line fill="none" stroke="#00A0E9" x1="453" y1="70.9" x2="445.4" y2="95.4"/>
		<line fill="none" stroke="#00A0E9" x1="448.2" y1="69.5" x2="441.1" y2="94.2"/>
		<line fill="none" stroke="#00A0E9" stroke-width="2" x1="443.4" y1="68.1" x2="435" y2="99.7"/>
		<line fill="none" stroke="#00A0E9" x1="438.6" y1="66.9" x2="432.4" y2="91.8"/>
		<line fill="none" stroke="#00A0E9" x1="433.8" y1="65.7" x2="428" y2="90.8"/>
		<line fill="none" stroke="#00A0E9" x1="428.9" y1="64.6" x2="423.6" y2="89.8"/>
		<line fill="none" stroke="#00A0E9" x1="424" y1="63.7" x2="419.1" y2="88.9"/>
		<line fill="none" stroke="#00A0E9" stroke-width="2" x1="419.2" y1="62.8" x2="412.8" y2="98.8"/>
		<line fill="none" stroke="#00A0E9" x1="414.3" y1="61.9" x2="410.3" y2="87.3"/>
		<line fill="none" stroke="#00A0E9" x1="409.4" y1="61.2" x2="405.8" y2="86.7"/>
		<line fill="none" stroke="#00A0E9" x1="404.5" y1="60.6" x2="401.3" y2="86.1"/>
		<line fill="none" stroke="#00A0E9" x1="399.5" y1="60" x2="396.8" y2="85.5"/>
		<line fill="none" stroke="#00A0E9" stroke-width="2" x1="394.6" y1="59.5" x2="391.7" y2="92"/>
		<line fill="none" stroke="#00A0E9" x1="389.6" y1="59.1" x2="387.8" y2="84.8"/>
		<line fill="none" stroke="#00A0E9" x1="384.7" y1="58.8" x2="383.3" y2="84.5"/>
		<line fill="none" stroke="#00A0E9" x1="379.7" y1="58.6" x2="378.8" y2="84.3"/>
		<line fill="none" stroke="#00A0E9" x1="374.7" y1="58.5" x2="374.3" y2="84.2"/>
		<line fill="none" stroke="#00A0E9" stroke-width="2" x1="369.7" y1="58.4" x2="369.7" y2="95.1"/>
		<line fill="none" stroke="#00A0E9" x1="364.8" y1="58.5" x2="365.2" y2="84.2"/>
		<line fill="none" stroke="#00A0E9" x1="359.8" y1="58.6" x2="360.7" y2="84.3"/>
		<line fill="none" stroke="#00A0E9" x1="354.9" y1="58.8" x2="356.2" y2="84.5"/>
		<line fill="none" stroke="#00A0E9" x1="349.9" y1="59.1" x2="351.7" y2="84.8"/>
		<line fill="none" stroke="#00A0E9" stroke-width="2" x1="345" y1="59.5" x2="347.8" y2="92"/>
		<line fill="none" stroke="#00A0E9" x1="340" y1="60" x2="342.7" y2="85.5"/>
		<line fill="none" stroke="#00A0E9" x1="335.1" y1="60.6" x2="338.2" y2="86.1"/>
		<line fill="none" stroke="#00A0E9" x1="330.1" y1="61.2" x2="333.7" y2="86.7"/>
		<line fill="none" stroke="#00A0E9" x1="325.2" y1="62" x2="329.2" y2="87.3"/>
		<line fill="none" stroke="#00A0E9" stroke-width="2" x1="320.3" y1="62.8" x2="326.7" y2="98.8"/>
		<line fill="none" stroke="#00A0E9" x1="315.5" y1="63.6" x2="320.4" y2="88.9"/>
		<line fill="none" stroke="#00A0E9" x1="310.6" y1="64.6" x2="315.9" y2="89.8"/>
		<line fill="none" stroke="#00A0E9" x1="305.7" y1="65.7" x2="311.5" y2="90.8"/>
		<line fill="none" stroke="#00A0E9" x1="300.9" y1="66.9" x2="307.1" y2="91.8"/>
		<line fill="none" stroke="#00A0E9" stroke-width="2" x1="296.1" y1="68.1" x2="304.5" y2="99.7"/>
		<line fill="none" stroke="#00A0E9" x1="291.3" y1="69.5" x2="298.4" y2="94.2"/>
		<line fill="none" stroke="#00A0E9" x1="286.5" y1="70.9" x2="294.1" y2="95.4"/>
		<line fill="none" stroke="#00A0E9" x1="281.8" y1="72.4" x2="289.7" y2="96.8"/>
		<line fill="none" stroke="#00A0E9" x1="277.1" y1="73.9" x2="285.5" y2="98.3"/>
		<line fill="none" stroke="#00A0E9" stroke-width="2" x1="272.4" y1="75.6" x2="284.9" y2="110"/>
		<line fill="none" stroke="#00A0E9" x1="267.8" y1="77.3" x2="277" y2="101.3"/>
		<line fill="none" stroke="#00A0E9" x1="263.1" y1="79.2" x2="272.8" y2="103"/>
		<line fill="none" stroke="#00A0E9" x1="258.6" y1="81" x2="268.6" y2="104.7"/>
		<line fill="none" stroke="#00A0E9" x1="254" y1="83" x2="264.4" y2="106.5"/>
		<line fill="none" stroke="#00A0E9" stroke-width="2" x1="249.5" y1="85.1" x2="263.3" y2="114.7"/>
		<line fill="none" stroke="#00A0E9" x1="245" y1="87.2" x2="256.2" y2="110.3"/>
		<line fill="none" stroke="#00A0E9" x1="240.5" y1="89.5" x2="252.2" y2="112.3"/>
		<line fill="none" stroke="#00A0E9" x1="236.1" y1="91.7" x2="248.2" y2="114.4"/>
		<line fill="none" stroke="#00A0E9" x1="231.8" y1="94.1" x2="244.2" y2="116.6"/>
		<line fill="none" stroke="#00A0E9" stroke-width="2" x1="227.4" y1="96.6" x2="245.8" y2="128.3"/>
		<line fill="none" stroke="#00A0E9" x1="223.2" y1="99.1" x2="236.4" y2="121.1"/>
		<line fill="none" stroke="#00A0E9" x1="218.9" y1="101.7" x2="232.5" y2="123.5"/>
		<line fill="none" stroke="#00A0E9" x1="214.7" y1="104.3" x2="228.7" y2="125.9"/>
		<line fill="none" stroke="#00A0E9" x1="210.6" y1="107.1" x2="225" y2="128.4"/>
		<line fill="none" stroke="#00A0E9" stroke-width="2" x1="206.5" y1="109.9" x2="225.2" y2="136.6"/>
		<line fill="none" stroke="#00A0E9" x1="202.5" y1="112.8" x2="217.6" y2="133.6"/>
		<line fill="none" stroke="#00A0E9" x1="198.5" y1="115.7" x2="213.9" y2="136.3"/>
		<line fill="none" stroke="#00A0E9" x1="194.5" y1="118.8" x2="210.4" y2="139"/>
		<line fill="none" stroke="#00A0E9" x1="190.6" y1="121.9" x2="206.8" y2="141.9"/>
		<line fill="none" stroke="#00A0E9" stroke-width="2" x1="186.8" y1="125" x2="210.4" y2="153.1"/>
		<line fill="none" stroke="#00A0E9" x1="183" y1="128.2" x2="199.9" y2="147.6"/>
		<line fill="none" stroke="#00A0E9" x1="179.3" y1="131.5" x2="196.5" y2="150.6"/>
		<line fill="none" stroke="#00A0E9" x1="175.6" y1="134.9" x2="193.2" y2="153.7"/>
		<line fill="none" stroke="#00A0E9" x1="172.1" y1="138.3" x2="189.9" y2="156.8"/>
		<line fill="none" stroke="#00A0E9" stroke-width="2" x1="168.5" y1="141.8" x2="191.6" y2="164.9"/>
		<line fill="none" stroke="#00A0E9" x1="165" y1="145.3" x2="183.5" y2="163.2"/>
		<line fill="none" stroke="#00A0E9" x1="161.6" y1="148.9" x2="180.4" y2="166.5"/>
		<line fill="none" stroke="#00A0E9" x1="158.2" y1="152.6" x2="177.3" y2="169.8"/>
		<line fill="none" stroke="#00A0E9" x1="155" y1="156.3" x2="174.3" y2="173.2"/>
		<line fill="none" stroke="#00A0E9" stroke-width="2" x1="151.7" y1="160.1" x2="179.8" y2="183.7"/>
		<line fill="none" stroke="#00A0E9" x1="148.6" y1="163.9" x2="168.5" y2="180.1"/>
		<line fill="none" stroke="#00A0E9" x1="145.5" y1="167.8" x2="165.7" y2="183.6"/>
		<line fill="none" stroke="#00A0E9" x1="142.5" y1="171.8" x2="163" y2="187.2"/>
		<line fill="none" stroke="#00A0E9" x1="139.5" y1="175.7" x2="160.3" y2="190.9"/>
		<line fill="none" stroke="#00A0E9" stroke-width="2" x1="136.6" y1="179.8" x2="163.3" y2="198.5"/>
		<line fill="none" stroke="#00A0E9" x1="133.8" y1="183.9" x2="155.1" y2="198.3"/>
		<line fill="none" stroke="#00A0E9" x1="131.1" y1="188" x2="152.6" y2="202"/>
		<line fill="none" stroke="#00A0E9" x1="128.4" y1="192.2" x2="150.2" y2="205.8"/>
		<line fill="none" stroke="#00A0E9" x1="125.8" y1="196.5" x2="147.8" y2="209.7"/>
		<line fill="none" stroke="#00A0E9" stroke-width="2" x1="123.3" y1="200.7" x2="155" y2="219.1"/>
		<line fill="none" stroke="#00A0E9" x1="120.8" y1="205" x2="143.3" y2="217.5"/>
		<line fill="none" stroke="#00A0E9" x1="118.5" y1="209.4" x2="141.1" y2="221.5"/>
		<line fill="none" stroke="#00A0E9" x1="116.2" y1="213.8" x2="139" y2="225.5"/>
		<line fill="none" stroke="#00A0E9" x1="113.9" y1="218.3" x2="137" y2="229.5"/>
		<line fill="none" stroke="#00A0E9" stroke-width="2" x1="111.8" y1="222.7" x2="141.4" y2="236.6"/>
		<line fill="none" stroke="#00A0E9" x1="109.7" y1="227.3" x2="133.2" y2="237.7"/>
		<line fill="none" stroke="#00A0E9" x1="107.8" y1="231.8" x2="131.4" y2="241.9"/>
		<line fill="none" stroke="#00A0E9" x1="105.9" y1="236.4" x2="129.7" y2="246.1"/>
		<line fill="none" stroke="#00A0E9" x1="104" y1="241" x2="128" y2="250.3"/>
		<line fill="none" stroke="#00A0E9" stroke-width="2" x1="102.3" y1="245.7" x2="136.7" y2="258.2"/>
		<line fill="none" stroke="#00A0E9" x1="100.7" y1="250.4" x2="124.9" y2="258.7"/>
		<line fill="none" stroke="#00A0E9" x1="99.1" y1="255.1" x2="123.5" y2="263"/>
		<line fill="none" stroke="#00A0E9" x1="97.6" y1="259.8" x2="122.1" y2="267.3"/>
		<line fill="none" stroke="#00A0E9" x1="96.2" y1="264.6" x2="120.9" y2="271.7"/>
		<line fill="none" stroke="#00A0E9" stroke-width="2" x1="94.8" y1="269.4" x2="126.4" y2="277.8"/>
		<line fill="none" stroke="#00A0E9" x1="93.6" y1="274.2" x2="118.5" y2="280.4"/>
		<line fill="none" stroke="#00A0E9" x1="92.4" y1="279" x2="117.5" y2="284.8"/>
		<line fill="none" stroke="#00A0E9" x1="91.4" y1="283.9" x2="116.5" y2="289.2"/>
		<line fill="none" stroke="#00A0E9" x1="90.4" y1="288.7" x2="115.6" y2="293.6"/>
		<line fill="none" stroke="#00A0E9" stroke-width="2" x1="89.5" y1="293.6" x2="125.6" y2="300"/>
		<line fill="none" stroke="#00A0E9" x1="88.6" y1="298.5" x2="114" y2="302.5"/>
		<line fill="none" stroke="#00A0E9" x1="87.9" y1="303.4" x2="113.4" y2="307"/>
		<line fill="none" stroke="#00A0E9" x1="87.3" y1="308.3" x2="112.8" y2="311.5"/>
		<line fill="none" stroke="#00A0E9" x1="86.7" y1="313.3" x2="112.3" y2="316"/>
		<line fill="none" stroke="#00A0E9" stroke-width="2" x1="86.2" y1="318.2" x2="118.8" y2="321.1"/>
		<line fill="none" stroke="#00A0E9" x1="85.8" y1="323.2" x2="111.5" y2="325"/>
		<line fill="none" stroke="#00A0E9" x1="85.5" y1="328.1" x2="111.2" y2="329.5"/>
		<line fill="none" stroke="#00A0E9" x1="85.3" y1="333.1" x2="111" y2="334"/>
		<line fill="none" stroke="#00A0E9" x1="85.2" y1="338.1" x2="110.9" y2="338.5"/>
		<line fill="none" stroke="#00A0E9" stroke-width="2" x1="85.1" y1="343" x2="121.8" y2="343"/>
		<path fill="none" stroke="#00A0E9" stroke-width="2" d="M117.8,343c0-139.2,112.8-251.9,252-251.9S621.7,203.9,621.7,343"/>
		<path fill="none" stroke="#00A0E9" d="M111,343c0-142.9,115.8-258.7,258.7-258.7S628.4,200.1,628.4,343"/>
		<path fill="none" stroke="#00A0E9" stroke-width="2" d="M175.3,343.1c0-107.4,87-194.4,194.4-194.4s194.4,87,194.4,194.4H175.3z"
			/>
		<path fill="none" stroke="#00A0E9" d="M312,343.1c0.4-31.9,26.6-57.4,58.5-57c31.3,0.4,56.6,25.7,57,57"/>
		<line fill="none" stroke="#00A0E9" x1="563.1" y1="326.2" x2="427.1" y2="338"/>
		<line fill="none" stroke="#00A0E9" x1="557.4" y1="292.8" x2="425.5" y2="328.1"/>
		<line fill="none" stroke="#00A0E9" x1="545.9" y1="260.9" x2="421.8" y2="318.8"/>
		<line fill="none" stroke="#00A0E9" x1="528.9" y1="231.6" x2="417" y2="310"/>
		<line fill="none" stroke="#00A0E9" x1="507.1" y1="205.7" x2="410.4" y2="302.4"/>
		<line fill="none" stroke="#00A0E9" x1="481.1" y1="184" x2="402.7" y2="296"/>
		<line fill="none" stroke="#00A0E9" x1="451.8" y1="167" x2="394.1" y2="290.7"/>
		<path fill="none" stroke="#00A0E9" d="M420,155.4l-35.3,132"/>
		<line fill="none" stroke="#00A0E9" x1="386.6" y1="149.4" x2="374.7" y2="285.5"/>
		<line fill="none" stroke="#00A0E9" x1="352.7" y1="149.2" x2="364.7" y2="285.4"/>
		<line fill="none" stroke="#00A0E9" x1="319.3" y1="155.1" x2="354.7" y2="287"/>
		<line fill="none" stroke="#00A0E9" x1="287.5" y1="166.8" x2="345.2" y2="290.6"/>
		<line fill="none" stroke="#00A0E9" x1="258.3" y1="183.9" x2="336.6" y2="295.8"/>
		<line fill="none" stroke="#00A0E9" x1="232.4" y1="205.8" x2="328.9" y2="302.3"/>
		<line fill="none" stroke="#00A0E9" x1="210.5" y1="231.6" x2="322.3" y2="309.9"/>
		<line fill="none" stroke="#00A0E9" x1="193.5" y1="260.9" x2="317.3" y2="318.6"/>
		<line fill="none" stroke="#00A0E9" x1="181.9" y1="292.8" x2="313.9" y2="328.1"/>
		<path fill="none" stroke="#00A0E9" d="M176.1,326.1l136,11.9"/>
		<line fill="none" stroke="#00A0E9" stroke-width="2" x1="569.2" y1="343.1" x2="369.7" y2="343.1"/>
		<line fill="none" stroke="#00A0E9" stroke-width="2" x1="566.1" y1="308.5" x2="426.6" y2="333"/>
		<path d="M365.8,114.2c0.5-0.7,0.8-1.5,0.7-2.3c0-0.8-0.2-1.6-0.7-2.3c-0.5-0.6-1.2-0.9-1.9-0.9c-0.7,0-1.4,0.3-1.9,0.9
			c-0.5,0.7-0.8,1.5-0.8,2.3c0,0.8,0.2,1.7,0.8,2.3c0.4,0.6,1.2,0.9,1.9,0.9C364.6,115.1,365.3,114.8,365.8,114.2 M366.2,108.5
			c0.7,0.6,1.1,1.4,1.4,2.3c0.3,1.1,0.4,2.2,0.3,3.3c0,1.2-0.1,2.4-0.5,3.6c-0.3,0.9-0.8,1.7-1.4,2.3c-0.6,0.6-1.4,0.9-2.2,0.8
			c-1,0-1.9-0.4-2.5-1.1c-0.6-0.7-1-1.5-1.1-2.4h1.1c0.1,0.6,0.4,1.2,0.8,1.7c0.4,0.5,1.1,0.8,1.8,0.7c0.6,0,1.2-0.2,1.6-0.6
			c0.4-0.5,0.7-1,0.9-1.6c0.2-0.6,0.4-1.2,0.4-1.8c0-0.6,0-1,0-1.3c-0.3,0.5-0.8,1-1.3,1.3c-0.6,0.4-1.3,0.5-1.9,0.5
			c-1-0.1-1.9-0.6-2.5-1.4c-0.6-0.9-1-1.9-0.9-3c0-1.1,0.4-2.2,1.1-3c0.7-0.8,1.6-1.2,2.6-1.2C364.7,107.6,365.5,107.9,366.2,108.5"
			/>
		<path d="M375.7,110.3c-0.4-1.2-1.6-1.8-2.7-1.5c-0.7,0.2-1.3,0.8-1.5,1.5c-1,2.5-1,5.3,0,7.8c0.4,1.2,1.6,1.8,2.7,1.5
			c0.7-0.2,1.3-0.8,1.5-1.5C376.6,115.6,376.6,112.9,375.7,110.3 M370.5,109.5c0.9-1.7,2.9-2.3,4.6-1.4c0.6,0.3,1.1,0.8,1.4,1.4
			c1.4,3,1.4,6.4,0,9.4c-0.9,1.7-2.9,2.3-4.6,1.4c-0.6-0.3-1.1-0.8-1.4-1.4C369.2,116,369.2,112.5,370.5,109.5"/>
		<path d="M128.2,339.6c-0.9,0.3-1.5,1.2-1.6,2.1c0,1,0.6,1.8,1.6,2.1c2.5,1,5.3,1,7.8,0c0.9-0.3,1.5-1.1,1.6-2.1
			c0-1-0.6-1.8-1.6-2.1C133.4,338.7,130.7,338.7,128.2,339.6 M127.3,344.8c-1.7-0.9-2.3-2.9-1.4-4.6c0.3-0.6,0.8-1.1,1.4-1.4
			c3-1.4,6.4-1.4,9.4,0c1.7,0.9,2.3,2.9,1.4,4.6c-0.3,0.6-0.8,1.1-1.4,1.4C133.8,346.1,130.3,346.1,127.3,344.8"/>
		<path d="M168,351.2h-9.4v2.3h-1c0-0.3,0-0.6-0.1-0.9c-0.1-0.3-0.3-0.6-0.5-0.8c-0.2-0.2-0.4-0.4-0.7-0.5c-0.3-0.2-0.7-0.2-1-0.2
			v-0.9H168L168,351.2z"/>
		<path d="M162.7,341.2c-0.5,0.6-0.8,1.4-0.8,2.2c0,0.8,0.2,1.6,0.8,2.2c1,1,2.7,1,3.8,0c0.5-0.6,0.8-1.4,0.8-2.2
			c0-0.8-0.2-1.6-0.8-2.2C165.4,340.2,163.8,340.2,162.7,341.2C162.7,341.2,162.7,341.2,162.7,341.2 M160,341.5
			c-0.4-0.4-1-0.7-1.6-0.6c-0.6,0-1.2,0.2-1.6,0.6c-0.9,1.1-0.9,2.7,0,3.9c0.4,0.4,1,0.6,1.6,0.6c0.6,0,1.2-0.2,1.6-0.6
			C160.9,344.2,160.9,342.6,160,341.5 M162.7,339.9c0.6-0.4,1.3-0.6,2-0.6c1,0,2,0.4,2.7,1.2c1.5,1.7,1.5,4.2,0,5.9
			c-0.7,0.8-1.6,1.2-2.7,1.2c-0.7,0-1.4-0.2-2-0.6c-0.6-0.4-1-0.9-1.3-1.4c-0.3,0.5-0.7,0.9-1.2,1.1c-0.5,0.3-1.1,0.5-1.7,0.5
			c-0.9,0-1.8-0.3-2.4-1c-1.3-1.5-1.3-3.8,0-5.3c0.6-0.7,1.5-1,2.4-1c0.6,0,1.2,0.2,1.7,0.5c0.5,0.3,0.9,0.7,1.1,1.2
			C161.6,340.8,162.1,340.3,162.7,339.9"/>
		<path d="M157.8,331.8c-0.9,0.3-1.5,1.2-1.6,2.1c0,1,0.6,1.8,1.6,2.1c2.5,1,5.3,1,7.8,0c0.9-0.3,1.5-1.1,1.6-2.1
			c0-1-0.6-1.8-1.6-2.1C163.1,330.8,160.3,330.8,157.8,331.8 M157,336.9c-1.7-0.9-2.3-2.9-1.4-4.6c0.3-0.6,0.8-1.1,1.4-1.4
			c3-1.4,6.4-1.4,9.4,0c1.7,0.9,2.3,2.9,1.4,4.6c-0.3,0.6-0.8,1.1-1.4,1.4C163.4,338.3,160,338.3,157,336.9"/>
		<path d="M140.7,307.7l-9.3-1.6l-0.4,2.3l-1-0.2c0-0.3,0-0.6,0-0.9c0-0.3-0.1-0.6-0.3-0.9c-0.1-0.3-0.3-0.5-0.6-0.6
			c-0.3-0.2-0.6-0.3-0.9-0.4l0.2-0.8l12.5,2.2L140.7,307.7z"/>
		<path d="M132.3,296c-1,0.1-1.7,0.9-1.9,1.8c-0.1,0.9,0.3,1.9,1.2,2.3c2.3,1.4,5,1.9,7.7,1.4c1.2-0.2,2.1-1.3,1.9-2.5
			c-0.1-0.7-0.5-1.4-1.2-1.7c-1.1-0.7-2.4-1.2-3.7-1.4C135,295.6,133.6,295.6,132.3,296 M130.7,300.9c-1.5-1.1-1.8-3.2-0.7-4.7
			c0.4-0.6,1-1,1.7-1.2c3.2-0.9,6.6-0.3,9.3,1.6c1.5,1.1,1.8,3.2,0.7,4.7c-0.4,0.6-1,1-1.7,1.2C136.8,303.4,133.4,302.8,130.7,300.9
			"/>
		<path d="M169.1,316.8l-9.3-1.6l-0.4,2.3l-1-0.2c0-0.3,0-0.6,0-0.9c0-0.3-0.1-0.6-0.3-0.9c-0.1-0.3-0.3-0.5-0.6-0.6
			c-0.3-0.2-0.6-0.3-0.9-0.4l0.1-0.8l12.5,2.2L169.1,316.8z"/>
		<path d="M159.8,304c0.3,0.3,0.9,0.9,1.9,1.7c0.9,0.7,1.9,1.4,2.9,2.1c1,0.6,2.1,1.2,3.2,1.7c0.8,0.4,1.7,0.7,2.6,0.9l-0.2,1.3
			c-0.8-0.2-1.6-0.5-2.4-0.8c-1.1-0.5-2.2-1.1-3.2-1.7c-1-0.6-2-1.4-3-2.2s-1.7-1.4-2-1.7l-1.1,6.3l-1.1-0.2l1.3-7.5L159.8,304z"/>
		<path d="M162.2,297.1c-1,0.1-1.7,0.9-1.9,1.8c-0.1,0.9,0.3,1.9,1.2,2.3c2.3,1.4,5,1.9,7.7,1.4c1.2-0.2,2.1-1.3,1.9-2.5
			c-0.1-0.7-0.5-1.3-1.2-1.7c-1.1-0.7-2.4-1.2-3.7-1.4C164.9,296.8,163.5,296.8,162.2,297.1 M160.5,302c-1-0.7-1.5-2-1.3-3.3
			c0.2-1.3,1.1-2.3,2.4-2.7c1.6-0.5,3.2-0.5,4.8-0.2c1.6,0.2,3.2,0.9,4.5,1.9c1.5,1.1,1.8,3.2,0.7,4.7c-0.4,0.6-1,1-1.7,1.2
			C166.6,304.5,163.2,303.9,160.5,302"/>
		<path d="M149.2,271.8c-0.8-0.3-1.5-0.7-2.1-1.2c-0.8-0.7-1.4-1.7-1.6-2.8l-0.7-2.3c-0.2-0.5-0.4-1-0.7-1.5c-0.3-0.5-0.8-0.8-1.3-1
			c-0.6-0.3-1.4-0.3-2,0c-0.7,0.3-1.2,0.8-1.4,1.5c-0.3,0.7-0.2,1.4,0.2,2c0.4,0.6,0.9,1,1.6,1.2l-0.4,1c-0.9-0.3-1.7-1-2.2-1.8
			c-0.6-0.9-0.6-2-0.2-2.9c0.3-1,1-1.8,2-2.2c0.9-0.3,1.9-0.3,2.8,0.1c0.8,0.3,1.5,0.8,1.9,1.5c0.3,0.6,0.6,1.3,0.9,2l0.7,2.2
			c0.2,0.6,0.5,1.1,0.8,1.5c0.4,0.4,0.8,0.8,1.3,1.1l2.1-5.8l0.9,0.3L149.2,271.8z"/>
		<path d="M144.8,254.3c-1,0-1.8,0.6-2.2,1.5c-0.3,0.9,0,1.9,0.8,2.5c1,0.9,2.1,1.6,3.4,2c1.2,0.5,2.6,0.7,3.9,0.6
			c1.2,0.1,2.2-0.9,2.3-2.1c0-0.7-0.3-1.4-0.9-1.9C150.1,255.2,147.5,254.2,144.8,254.3 M142.3,258.8c-1.3-1.4-1.2-3.5,0.2-4.8
			c0.5-0.5,1.2-0.8,1.9-0.9c3.3-0.3,6.5,0.9,8.9,3.2c1.3,1.4,1.2,3.5-0.2,4.8c-0.5,0.5-1.2,0.8-1.9,0.9
			C147.8,262.3,144.6,261.1,142.3,258.8"/>
		<path d="M176.8,282.9l-8.8-3.2l-0.8,2.2l-0.9-0.3c0.1-0.3,0.2-0.6,0.2-0.9c0-0.3,0-0.7-0.1-1c-0.1-0.3-0.3-0.5-0.5-0.7
			c-0.2-0.2-0.5-0.4-0.8-0.5l0.3-0.8l11.9,4.3L176.8,282.9z"/>
		<path d="M174.3,271.5c-1.3,0.5-2,1.9-1.5,3.1c0.1,0.2,0.1,0.3,0.2,0.4c0.4,0.7,1.1,1.2,1.9,1.5c0.8,0.3,1.6,0.4,2.4,0.1
			c0.7-0.2,1.2-0.8,1.5-1.5c0.3-0.7,0.2-1.5-0.2-2.1C177.7,271.7,175.9,271,174.3,271.5 M174,270.4c1-0.3,2.1-0.2,3.1,0.2
			c1.1,0.4,1.9,1.1,2.5,2.1c0.5,0.9,0.6,2,0.2,2.9c-0.3,0.8-0.9,1.5-1.7,1.9c-0.8,0.4-1.8,0.5-2.7,0.5c-1.1-0.1-2.2-0.4-3.2-0.8
			c-1.1-0.4-2.2-1-3.2-1.7c-0.7-0.5-1.3-1.3-1.7-2.1c-0.3-0.8-0.3-1.6,0-2.4c0.3-0.9,1-1.7,1.9-2c0.8-0.3,1.8-0.4,2.6-0.2l-0.4,1
			c-0.6-0.1-1.3,0-1.9,0.2c-0.6,0.2-1.1,0.7-1.3,1.4c-0.2,0.6-0.2,1.2,0.1,1.7c0.3,0.5,0.7,1,1.2,1.4c0.5,0.4,1,0.8,1.5,1
			c0.4,0.2,0.8,0.4,1.2,0.5c-0.4-0.5-0.7-1-0.8-1.7c-0.1-0.7,0-1.3,0.3-1.9C172.2,271.4,173,270.7,174,270.4"/>
		<path d="M173.8,261.2c-1.2-0.1-2.2,0.9-2.3,2.1c0,0.7,0.3,1.4,0.9,1.9c2,1.8,4.6,2.7,7.3,2.7c1,0,1.8-0.5,2.2-1.4
			c0.3-0.9,0-1.9-0.7-2.5c-1-0.9-2.2-1.6-3.4-2C176.5,261.4,175.2,261.2,173.8,261.2 M171.3,265.8c-1.3-1.4-1.2-3.5,0.2-4.8
			c0.5-0.5,1.2-0.8,1.9-0.9c3.3-0.3,6.5,0.9,8.9,3.2c0.9,0.9,1.2,2.3,0.7,3.5c-0.4,1.2-1.5,2.1-2.8,2.2
			C176.9,269.3,173.6,268.1,171.3,265.8"/>
		<path d="M163.5,225.9c0.7-0.1,1.4,0.1,2,0.5c0.9,0.5,1.5,1.3,1.8,2.3c0.3,1,0.1,2.1-0.5,3c-0.5,0.9-1.4,1.6-2.4,1.8
			c-1,0.2-2.1,0.1-3-0.5l0.6-0.9c0.6,0.4,1.3,0.5,2,0.4c0.8-0.1,1.5-0.7,1.9-1.4c0.4-0.6,0.5-1.4,0.3-2.1c-0.2-0.7-0.7-1.3-1.3-1.6
			c-0.5-0.3-1.1-0.4-1.7-0.3c-0.5,0.1-0.9,0.4-1.3,0.7c-0.2,0.2-0.3,0.4-0.5,0.6c-0.2,0.3-0.3,0.5-0.4,0.7l-1-0.6
			c0.1-0.2,0.3-0.4,0.4-0.7c0.1-0.2,0.2-0.5,0.3-0.8c0.1-0.5,0-0.9-0.2-1.4c-0.2-0.5-0.6-0.8-1-1.1c-0.5-0.3-1.1-0.4-1.7-0.3
			c-0.6,0.2-1.2,0.6-1.5,1.2c-0.4,0.6-0.5,1.3-0.2,2c0.2,0.6,0.7,1,1.2,1.3l-0.5,0.9c-0.8-0.4-1.5-1.2-1.7-2.1
			c-0.5-1.9,0.6-3.8,2.5-4.4c0.9-0.3,1.8-0.1,2.6,0.3c0.6,0.3,1.1,0.8,1.4,1.4c0.2,0.4,0.3,0.9,0.3,1.4
			C162.2,226.2,162.9,226,163.5,225.9"/>
		<path d="M163.5,216.3c-0.9-0.2-1.9,0.2-2.4,1.1c-0.5,0.8-0.3,1.9,0.3,2.6c1.7,2.1,4.1,3.5,6.8,3.9c1.2,0.3,2.4-0.5,2.6-1.7
			c0.2-0.7,0-1.4-0.5-2c-0.8-1.1-1.8-1.9-3-2.6C166.1,217,164.8,216.5,163.5,216.3 M160.2,220.3c-1-1.6-0.6-3.7,1-4.7
			c0.6-0.4,1.3-0.6,2-0.5c1.6,0.1,3.2,0.6,4.6,1.5c1.4,0.8,2.7,1.9,3.6,3.3c1,1.6,0.6,3.7-1,4.7c-0.6,0.4-1.3,0.6-2,0.5
			C165.1,224.8,162.1,223,160.2,220.3"/>
		<path d="M190,250.1l-8.1-4.7l-1.2,2l-0.9-0.5c0.2-0.3,0.3-0.6,0.4-0.9c0.1-0.3,0.1-0.7,0-1c-0.1-0.3-0.2-0.6-0.3-0.8
			c-0.2-0.3-0.4-0.5-0.7-0.7l0.4-0.8l11,6.3L190,250.1z"/>
		<path d="M189,237.6c1.1-0.2,2.3,0,3.3,0.7c1,0.6,1.8,1.5,2.1,2.6c0.3,0.9,0.2,1.9-0.3,2.8c-0.5,0.9-1.3,1.5-2.3,1.8
			c-0.9,0.2-1.9,0.2-2.7-0.2l0.6-1c0.6,0.2,1.2,0.3,1.8,0.2c1.4-0.3,2.2-1.7,1.9-3c0-0.1-0.1-0.2-0.1-0.3c-0.3-0.7-0.9-1.3-1.5-1.8
			c-0.7-0.5-1.6-0.7-2.4-0.6c-0.7,0.1-1.4,0.5-1.8,1.1c-0.3,0.5-0.5,1.1-0.5,1.7c0,0.4,0.2,0.9,0.4,1.3l-0.5,0.9l-5.3-4l3-5.2
			l0.9,0.5l-2.5,4.4l3.1,2.4c-0.1-0.5-0.1-0.9,0-1.4c0.1-0.5,0.3-0.9,0.6-1.3C187.4,238.2,188.2,237.7,189,237.6"/>
		<path d="M190.8,228.4c-1.2-0.3-2.4,0.5-2.6,1.7c-0.2,0.7,0,1.4,0.5,2c0.8,1.1,1.8,1.9,3,2.6c1.1,0.7,2.4,1.2,3.7,1.3
			c0.9,0.2,1.9-0.2,2.4-1c0.5-0.8,0.4-1.9-0.3-2.6c-0.8-1.1-1.8-1.9-3-2.6C193.4,229,192.1,228.6,190.8,228.4 M187.5,232.4
			c-1-1.6-0.6-3.7,1-4.7c0.6-0.4,1.3-0.6,2-0.5c3.3,0.3,6.3,2,8.2,4.7c1,1.6,0.6,3.7-1,4.7c-0.6,0.4-1.3,0.6-2,0.5
			C192.4,236.8,189.4,235.1,187.5,232.4"/>
		<path d="M181.2,190.6l2.8,8.1l2.8-3.4L181.2,190.6z M188.2,195.2l1.9,1.6l-0.7,0.8l-1.9-1.6l-3.5,4.2l-1-0.9l-3.4-9.9l0.7-0.8
			l7.1,5.9l1.2-1.4l0.8,0.6L188.2,195.2z"/>
		<path d="M188.1,183.3c-0.9-0.4-1.9-0.1-2.6,0.6c-0.6,0.7-0.6,1.8-0.1,2.6c1.3,2.4,3.4,4.1,6,5c1.1,0.5,2.4-0.1,2.9-1.2
			c0.3-0.7,0.2-1.4-0.2-2C192.8,185.9,190.6,184.1,188.1,183.3 M184.2,186.6c-0.7-1.7,0.1-3.7,1.8-4.4c0.7-0.3,1.4-0.3,2.1-0.2
			c3.2,0.9,5.8,3.1,7.2,6.1c0.7,1.7-0.1,3.7-1.8,4.4c-0.7,0.3-1.4,0.3-2.1,0.2C188.2,191.8,185.6,189.6,184.2,186.6"/>
		<path d="M208.4,221.1l-7.2-6.1l-1.5,1.8l-0.8-0.6c0.2-0.2,0.4-0.5,0.5-0.8c0.1-0.3,0.2-0.6,0.2-0.9c0-0.3-0.1-0.6-0.2-0.9
			c-0.1-0.3-0.3-0.6-0.6-0.8l0.6-0.7l9.7,8.1L208.4,221.1z"/>
		<path d="M205.9,207.3l2.8,8l2.8-3.4L205.9,207.3z M212.9,211.8l1.9,1.6l-0.7,0.8l-1.9-1.6l-3.5,4.2l-1-0.9l-3.3-9.9l0.7-0.8
			l7.1,5.9l1.2-1.4l0.8,0.6L212.9,211.8z"/>
		<path d="M212.9,199.9c-1.1-0.5-2.4,0.1-2.9,1.2c-0.3,0.7-0.2,1.4,0.2,2c1.3,2.4,3.4,4.1,6,5c0.9,0.4,1.9,0.1,2.5-0.6
			c0.6-0.8,0.7-1.8,0.2-2.6C217.5,202.5,215.4,200.8,212.9,199.9 M208.9,203.3c-0.7-1.7,0.1-3.7,1.8-4.4c0.7-0.3,1.4-0.3,2.1-0.2
			c3.2,0.9,5.8,3.1,7.2,6.1c0.7,1.7-0.1,3.7-1.8,4.4c-0.7,0.3-1.4,0.3-2.1,0.2C213,208.5,210.3,206.3,208.9,203.3"/>
		<path d="M213.7,161.7c1.1,0.2,2.2,0.8,2.8,1.8c0.8,0.9,1.2,2,1.1,3.2c-0.1,1-0.5,1.9-1.3,2.5c-0.7,0.7-1.7,1-2.7,0.9
			c-0.9-0.1-1.8-0.5-2.5-1.1l0.9-0.7c0.4,0.4,1,0.7,1.6,0.8c1.4,0.2,2.6-0.8,2.8-2.2c0-0.1,0-0.2,0-0.3c-0.1-0.8-0.3-1.6-0.9-2.2
			c-0.5-0.7-1.2-1.2-2-1.4c-0.7-0.2-1.4,0-2,0.4c-0.5,0.3-0.8,0.8-1,1.4c-0.1,0.4-0.1,0.9-0.1,1.3l-0.8,0.6l-3.6-5.6l4.6-3.9
			l0.7,0.8l-3.9,3.3l2.1,3.3c0-0.5,0.2-0.9,0.5-1.3c0.3-0.4,0.6-0.7,1-1c0.8-0.5,1.7-0.7,2.6-0.6"/>
		<path d="M218.4,153.7c-0.8-0.5-1.9-0.4-2.6,0.2c-0.7,0.6-1,1.6-0.6,2.5c0.4,1.3,1,2.5,1.9,3.4c0.8,1.1,1.9,1.9,3.1,2.5
			c1,0.7,2.4,0.4,3-0.7c0.4-0.6,0.5-1.4,0.2-2C222.5,157.1,220.7,155,218.4,153.7 M213.9,156.3c-0.3-1.2,0.1-2.5,1.1-3.4
			c1-0.8,2.3-1,3.5-0.5c3,1.4,5.2,4.1,6.1,7.2c0.4,1.8-0.7,3.6-2.6,4.1c-0.7,0.2-1.4,0.1-2.1-0.2C217,162.2,214.8,159.5,213.9,156.3
			"/>
		<path d="M231.8,194.5l-6.1-7.2l-1.8,1.5l-0.6-0.8c0.2-0.2,0.4-0.4,0.6-0.7c0.2-0.3,0.3-0.6,0.4-0.9c0.1-0.3,0.1-0.6,0-0.9
			c-0.1-0.3-0.2-0.6-0.4-0.9l0.7-0.6l8.2,9.7L231.8,194.5z"/>
		<path d="M236.7,183.4c0.7,0.2,1.3,0.6,1.7,1.1c0.7,0.8,1,1.8,0.9,2.8c-0.3,2.2-2.2,3.7-4.4,3.6c-1-0.1-2-0.7-2.6-1.5l0.8-0.7
			c0.5,0.6,1.1,0.9,1.8,1.1c0.8,0.1,1.6-0.1,2.2-0.7c0.6-0.4,0.9-1.1,1-1.8c0.1-0.7-0.2-1.5-0.7-2c-0.4-0.5-0.9-0.8-1.5-0.9
			c-0.5-0.1-1,0-1.5,0.2c-0.2,0.1-0.5,0.3-0.7,0.4c-0.2,0.2-0.4,0.3-0.6,0.5l-0.7-0.9c0.2-0.1,0.4-0.3,0.6-0.5
			c0.2-0.2,0.4-0.4,0.5-0.6c0.5-0.9,0.4-1.9-0.3-2.7c-0.4-0.5-0.9-0.8-1.5-0.9c-0.6-0.1-1.3,0.2-1.8,0.6c-0.6,0.4-0.9,1.1-0.9,1.8
			c0,0.6,0.2,1.2,0.6,1.6l-0.8,0.7c-0.6-0.7-1-1.6-0.9-2.5c0.1-1,0.5-1.8,1.3-2.4c0.7-0.6,1.6-0.9,2.5-0.8c0.9,0,1.7,0.5,2.3,1.2
			c0.5,0.5,0.8,1.2,0.8,1.9c0,0.5-0.1,0.9-0.2,1.4C235.4,183.1,236.1,183.1,236.7,183.4"/>
		<path d="M239.9,174.4c-1-0.7-2.4-0.4-3,0.7c-0.4,0.6-0.5,1.4-0.2,2c0.9,2.6,2.6,4.7,5,6c0.8,0.5,1.8,0.5,2.6-0.1
			c0.7-0.6,1-1.7,0.6-2.6c-0.4-1.3-1.1-2.4-2-3.4C242.1,175.9,241,175,239.9,174.4 M235.4,177.1c-0.4-1.8,0.7-3.6,2.5-4.1
			c0.7-0.2,1.4-0.1,2.1,0.2c1.5,0.6,2.8,1.7,3.8,3c1.1,1.2,1.9,2.7,2.2,4.3c0.4,1.8-0.7,3.6-2.5,4.1c-0.7,0.2-1.4,0.1-2.1-0.2
			c-1.5-0.7-2.8-1.7-3.8-3C236.5,180.1,235.7,178.7,235.4,177.1"/>
		<path d="M247.6,138.6c-0.7-0.3-1.5-0.2-2.1,0.2c-0.6,0.4-1.1,1-1.2,1.7c-0.2,1.7,0.8,3.3,2.3,4c0.7,0.3,1.5,0.2,2.1-0.2
			c0.7-0.4,1.1-1,1.2-1.8c0.1-0.8,0-1.7-0.5-2.4C249,139.5,248.4,138.9,247.6,138.6 M248.1,137.6c1,0.4,1.8,1.2,2.3,2.1
			c0.6,1,0.8,2.1,0.5,3.2c-0.2,1-0.8,1.9-1.7,2.4c-0.8,0.5-1.7,0.6-2.5,0.4c-0.9-0.2-1.7-0.7-2.3-1.4c-0.8-0.8-1.4-1.7-1.9-2.7
			c-0.6-1-1.1-2.2-1.3-3.4c-0.2-0.9-0.2-1.8,0-2.7c0.3-0.8,0.8-1.5,1.5-1.9c0.8-0.5,1.8-0.6,2.7-0.3c0.9,0.3,1.6,0.8,2.2,1.6
			l-0.9,0.6c-0.4-0.5-0.9-0.8-1.5-1.1c-0.6-0.2-1.3-0.1-1.9,0.2c-0.6,0.3-0.9,0.8-1.1,1.4c-0.1,0.6-0.1,1.2,0,1.8
			c0.1,0.6,0.3,1.2,0.6,1.7c0.2,0.4,0.4,0.8,0.6,1.1c0-0.6,0.2-1.2,0.5-1.8c0.3-0.6,0.8-1,1.5-1.3
			C246.1,137.2,247.2,137.2,248.1,137.6"/>
		<path d="M253.9,130.4c-0.7-0.6-1.8-0.8-2.6-0.3c-0.8,0.5-1.2,1.5-1,2.4c0.2,1.3,0.6,2.6,1.3,3.7c0.6,1.2,1.5,2.2,2.6,3
			c0.7,0.6,1.7,0.8,2.6,0.3c0.8-0.5,1.3-1.5,1.1-2.4c-0.2-1.3-0.6-2.6-1.3-3.7C255.8,132.3,254.9,131.2,253.9,130.4 M249,132.3
			c-0.1-1.9,1.3-3.5,3.2-3.5c0.7,0,1.4,0.2,2,0.5c2.7,1.9,4.4,4.9,4.7,8.2c0.1,1.9-1.3,3.5-3.2,3.5c-0.7,0-1.4-0.2-2-0.5
			C251.1,138.6,249.3,135.6,249,132.3"/>
		<path d="M260,172.9l-4.7-8.1l-2,1.2l-0.5-0.9c0.3-0.2,0.5-0.3,0.7-0.6c0.2-0.2,0.4-0.5,0.5-0.8c0.1-0.3,0.1-0.6,0.1-0.9
			c0-0.3-0.1-0.7-0.3-1l0.8-0.4l6.3,11L260,172.9z"/>
		<path d="M263.3,170.9c-0.4-0.7-0.7-1.5-0.8-2.3c-0.2-1.1,0-2.2,0.5-3.2l0.9-2.2c0.2-0.5,0.3-1.1,0.4-1.6c0.1-0.6,0-1.1-0.3-1.6
			c-0.3-0.6-0.8-1.1-1.5-1.3c-0.7-0.2-1.4-0.1-2,0.3c-0.7,0.3-1.1,0.9-1.2,1.7c-0.1,0.7,0.1,1.4,0.4,2l-0.9,0.5
			c-0.5-0.8-0.7-1.8-0.5-2.8c0.1-1,0.8-1.9,1.7-2.4c0.9-0.6,1.9-0.7,2.9-0.4c0.9,0.3,1.6,1,2.1,1.8c0.4,0.7,0.6,1.6,0.5,2.4
			c-0.1,0.7-0.4,1.4-0.6,2.1L264,166c-0.2,0.6-0.3,1.1-0.3,1.7c0,0.6,0.1,1.1,0.3,1.6l5.3-3.1l0.5,0.9L263.3,170.9z"/>
		<path d="M271.2,154.6c-0.9-0.8-2.3-0.8-3.1,0.1c-0.5,0.5-0.7,1.3-0.5,2c0.4,2.7,1.8,5.1,3.9,6.8c0.7,0.6,1.7,0.8,2.6,0.3
			c0.8-0.5,1.3-1.5,1.1-2.4c-0.2-1.3-0.6-2.6-1.3-3.7C273.2,156.5,272.3,155.5,271.2,154.6 M266.4,156.5c-0.1-1.9,1.3-3.5,3.2-3.5
			c0.7,0,1.4,0.2,2,0.5c2.7,1.9,4.4,4.9,4.7,8.2c0.1,1.9-1.3,3.5-3.2,3.5c-0.7,0-1.4-0.2-2-0.5C268.4,162.8,266.7,159.8,266.4,156.5
			"/>
		<path d="M285.7,115.2c-0.1,0.4-0.3,1.2-0.5,2.5c-0.2,1.2-0.3,2.3-0.4,3.5c-0.1,1.2,0,2.4,0.1,3.6c0.1,0.9,0.3,1.8,0.5,2.7
			l-1.3,0.4c-0.2-0.8-0.3-1.7-0.4-2.5c-0.1-1.2-0.2-2.4-0.1-3.7c0.1-1.2,0.2-2.4,0.5-3.6s0.4-2.1,0.5-2.6l-6,2.1l-0.4-1l7.2-2.5
			L285.7,115.2z"/>
		<path d="M292.9,113.9c-0.7-1-2-1.3-3-0.6c-0.7,0.4-1,1.2-1,2c-0.1,2.7,0.8,5.3,2.6,7.4c0.7,1,2.1,1.2,3.1,0.5
			c0.6-0.4,1-1.2,0.9-1.9c0.1-1.3-0.1-2.7-0.6-3.9C294.5,116.1,293.8,114.9,292.9,113.9 M287.8,114.8c0.2-1.9,1.9-3.2,3.8-2.9
			c0.7,0.1,1.4,0.4,1.9,0.9c1.2,1.1,2.1,2.5,2.5,4.1c0.6,1.5,0.8,3.2,0.6,4.8c-0.2,1.9-1.9,3.2-3.8,2.9c-0.7-0.1-1.4-0.4-1.9-0.9
			C288.6,121.3,287.5,118.1,287.8,114.8"/>
		<path d="M292.8,156.2l-3.1-8.9l-2.2,0.8l-0.3-0.9c0.3-0.1,0.6-0.2,0.8-0.4c0.3-0.2,0.5-0.4,0.6-0.7c0.2-0.3,0.3-0.5,0.3-0.8
			c0-0.3,0-0.7-0.1-1l0.8-0.3l4.2,12L292.8,156.2z"/>
		<path d="M298.8,154.1l-3.1-8.9l-2.2,0.8l-0.3-1c0.3-0.1,0.6-0.3,0.8-0.4c0.3-0.2,0.5-0.4,0.7-0.7c0.1-0.3,0.2-0.5,0.3-0.8
			c0-0.3,0-0.7-0.1-1l0.8-0.3l4.2,12L298.8,154.1z"/>
		<path d="M304.9,141.1c-0.6-0.8-1.6-1.1-2.5-0.8c-0.9,0.3-1.5,1.2-1.4,2.1c-0.1,2.7,0.8,5.3,2.6,7.4c0.7,1,2,1.3,3,0.6
			c0.7-0.4,1-1.2,1-2C307.6,145.8,306.7,143.2,304.9,141.1 M299.9,142.1c0.2-1.9,2-3.2,3.8-2.9c0.7,0.1,1.4,0.4,1.9,0.9
			c1.2,1.1,2.1,2.5,2.5,4.1c0.6,1.5,0.8,3.2,0.6,4.8c-0.3,1.9-2,3.2-3.8,2.9c-0.7-0.1-1.4-0.4-1.9-0.9
			C300.7,148.6,299.6,145.3,299.9,142.1"/>
		<path d="M326.1,109.7c-0.7-0.4-1.5-0.6-2.3-0.4c-0.8,0.1-1.5,0.5-2,1.1c-0.4,0.6-0.6,1.3-0.5,2c0.1,0.7,0.5,1.3,1.1,1.7
			c1.4,0.8,3.2,0.5,4.3-0.7C327.7,112.2,327.4,110.5,326.1,109.7C326.2,109.7,326.2,109.7,326.1,109.7 M325.5,107.1
			c0.7-1,0.5-2.4-0.5-3.2c-1.3-0.7-2.8-0.5-3.8,0.6c-0.7,1-0.4,2.4,0.5,3.1c0.6,0.4,1.3,0.5,2,0.3C324.4,108,325,107.6,325.5,107.1
			 M327.5,109.3c0.5,0.5,0.8,1.1,0.9,1.8c0.2,1-0.1,2-0.7,2.8c-1.4,1.8-3.9,2.2-5.8,1c-0.9-0.5-1.4-1.4-1.6-2.4
			c-0.1-0.7,0-1.4,0.3-2c0.3-0.6,0.7-1.1,1.2-1.6c-0.5-0.2-1-0.6-1.3-1c-0.4-0.4-0.7-1-0.8-1.6c-0.2-0.9,0.1-1.8,0.6-2.6
			c0.6-0.8,1.5-1.3,2.5-1.4c1-0.2,2,0,2.8,0.6c0.8,0.5,1.3,1.3,1.4,2.2c0.1,0.6,0,1.2-0.2,1.7c-0.2,0.5-0.6,1-1,1.3
			C326.4,108.5,327,108.9,327.5,109.3"/>
		<path d="M334.7,103.3c-0.5-0.9-1.4-1.3-2.4-1.2c-0.9,0.2-1.7,0.9-1.8,1.9c-0.3,1.3-0.3,2.7-0.1,4c0.2,1.3,0.6,2.6,1.4,3.7
			c0.5,1.1,1.9,1.5,3,1c0.7-0.3,1.1-1,1.2-1.7c0.3-1.3,0.3-2.7,0.1-4C335.8,105.7,335.4,104.4,334.7,103.3 M329.5,103.3
			c0.6-1.8,2.4-2.8,4.2-2.2c0.7,0.2,1.3,0.6,1.7,1.2c1.9,2.7,2.4,6.1,1.5,9.3c-0.6,1.8-2.5,2.8-4.3,2.2c-0.7-0.2-1.3-0.6-1.7-1.2
			C329.2,109.9,328.6,106.5,329.5,103.3"/>
		<path d="M324.9,145.3l-1.5-9.3l-2.3,0.4l-0.2-1c0.3,0,0.6-0.1,0.9-0.3c0.3-0.2,0.5-0.4,0.8-0.6c0.2-0.2,0.3-0.5,0.4-0.8
			c0.1-0.3,0.1-0.7,0.1-1l0.9-0.1l2.1,12.5L324.9,145.3z"/>
		<path d="M333.2,133.6c-0.4-0.9-1.4-1.3-2.3-1.2c-0.9,0.2-1.7,0.9-1.8,1.9c-0.6,2.6-0.1,5.4,1.3,7.7c0.4,0.8,1.4,1.3,2.3,1.2
			c0.9-0.2,1.7-0.9,1.8-1.9c0.3-1.3,0.3-2.7,0.1-4C334.4,136,333.9,134.7,333.2,133.6 M328,133.6c0.5-1.8,2.4-2.8,4.2-2.3
			c0.7,0.2,1.3,0.7,1.8,1.3c1.9,2.7,2.4,6.1,1.5,9.3c-0.6,1.8-2.4,2.8-4.2,2.2c-0.7-0.2-1.3-0.6-1.7-1.2c-1-1.3-1.6-2.9-1.8-4.5
			C327.4,136.8,327.5,135.1,328,133.6"/>
		<path d="M342.9,132c-0.6-1.1-1.9-1.5-3-1c-0.6,0.3-1.1,0.9-1.2,1.7c-0.6,2.6-0.1,5.4,1.3,7.7c0.5,1.1,1.9,1.5,3,1
			c0.7-0.3,1.1-1,1.2-1.7c0.3-1.3,0.3-2.7,0.1-4C344.1,134.4,343.6,133.1,342.9,132 M337.7,132c0.5-1.8,2.4-2.8,4.2-2.3
			c0.7,0.2,1.3,0.7,1.8,1.3c1.8,2.7,2.4,6.1,1.5,9.3c-0.5,1.8-2.4,2.8-4.2,2.3c-0.7-0.2-1.3-0.7-1.8-1.3
			C337.4,138.6,336.9,135.1,337.7,132"/>
		<path d="M401.2,112.8l1.8-9.2l-2.3-0.4l0.2-1c0.3,0,0.6,0,0.9,0c0.3,0,0.6-0.1,0.9-0.3c0.3-0.1,0.5-0.3,0.7-0.6
			c0.2-0.3,0.3-0.6,0.4-0.9l0.9,0.2l-2.4,12.5L401.2,112.8z"/>
		<path d="M413.1,104.7c-0.1-1.2-1.2-2.1-2.4-1.9c-0.7,0.1-1.4,0.5-1.7,1.2c-0.7,1.1-1.2,2.4-1.5,3.7c-0.3,1.3-0.3,2.7,0,4
			c0.1,0.9,0.8,1.7,1.8,1.9c1,0.2,1.9-0.3,2.4-1.1C413,110.1,413.5,107.4,413.1,104.7 M408.2,102.9c1.1-1.5,3.3-1.7,4.7-0.6
			c0.6,0.4,1,1,1.2,1.7c0.8,3.2,0.2,6.6-1.8,9.3c-1.1,1.5-3.3,1.7-4.7,0.6c-0.6-0.4-1-1-1.2-1.7C405.6,109,406.3,105.6,408.2,102.9"
			/>
		<path d="M422.8,106.5c-0.1-1-0.9-1.7-1.8-1.9c-0.9-0.2-1.9,0.3-2.3,1.1c-0.8,1.1-1.2,2.4-1.5,3.7c-0.3,1.3-0.3,2.7,0,4
			c0.1,1.2,1.2,2.1,2.4,1.9c0.7-0.1,1.4-0.5,1.7-1.2c0.7-1.1,1.2-2.4,1.4-3.7C423,109.2,423,107.8,422.8,106.5 M417.9,104.8
			c1.1-1.5,3.3-1.7,4.7-0.6c0.6,0.4,1,1,1.2,1.7c0.8,3.2,0.2,6.6-1.8,9.3c-1.1,1.5-3.3,1.7-4.8,0.6c-0.6-0.4-1-1-1.2-1.7
			c-0.5-1.6-0.5-3.2-0.1-4.8C416.2,107.6,416.9,106,417.9,104.8"/>
		<path d="M403.6,138c-0.5-0.6-1.2-1.1-2-1.2c-0.8-0.2-1.6-0.1-2.3,0.4c-0.6,0.4-1,1-1.1,1.7c-0.1,0.7,0,1.4,0.4,2
			c1,1.3,2.8,1.6,4.3,0.8C404.1,141,404.4,139.3,403.6,138C403.6,138.1,403.6,138.1,403.6,138 M403.8,135.4c1-0.7,1.3-2.1,0.6-3.1
			c-0.4-0.6-1-0.9-1.7-1c-0.7-0.2-1.4-0.1-2,0.3c-0.5,0.3-0.8,0.9-0.9,1.5c-0.1,0.6,0,1.2,0.3,1.7
			C401,135.8,402.6,136.1,403.8,135.4 M404.9,138.3c0.3,0.6,0.4,1.3,0.2,2c-0.2,1-0.8,1.9-1.6,2.4c-1.9,1.2-4.4,0.7-5.8-1.1
			c-0.6-0.8-0.8-1.8-0.6-2.8c0.1-0.7,0.5-1.3,1-1.8c0.5-0.5,1-0.8,1.7-1c-0.4-0.4-0.7-0.8-0.9-1.4c-0.2-0.5-0.3-1.1-0.2-1.7
			c0.2-0.9,0.7-1.7,1.5-2.2c1.8-1,4-0.6,5.3,1c0.5,0.7,0.7,1.7,0.6,2.6c-0.1,0.6-0.4,1.1-0.8,1.6c-0.4,0.4-0.8,0.7-1.4,0.9
			C404.3,137.1,404.7,137.7,404.9,138.3"/>
		<path d="M413.8,135c-0.1-1.2-1.2-2.1-2.4-1.9c-0.7,0.1-1.4,0.5-1.7,1.2c-0.7,1.1-1.2,2.4-1.4,3.7c-0.3,1.3-0.3,2.7,0,4
			c0.1,0.9,0.8,1.7,1.8,1.9c1,0.2,1.9-0.3,2.4-1.1C413.8,140.4,414.3,137.7,413.8,135 M408.9,133.3c1.1-1.5,3.3-1.8,4.7-0.6
			c0.6,0.4,1,1.1,1.2,1.8c0.8,3.2,0.1,6.6-1.8,9.3c-0.8,1-2.1,1.5-3.3,1.3c-1.3-0.2-2.3-1.1-2.6-2.4c-0.5-1.6-0.5-3.2-0.1-4.8
			C407.3,136.1,407.9,134.6,408.9,133.3"/>
		<path d="M441.2,122.7l3.1-8.9l-2.2-0.8l0.3-1c0.3,0.1,0.6,0.2,0.9,0.2c0.3,0,0.7,0,1-0.2c0.3-0.1,0.5-0.3,0.7-0.5
			c0.2-0.2,0.4-0.5,0.5-0.8l0.8,0.3l-4.2,12L441.2,122.7z"/>
		<path d="M447.2,124.8l3.1-8.9l-2.2-0.8l0.3-1c0.3,0.1,0.6,0.2,0.9,0.2c0.3,0,0.7,0,1-0.2c0.3-0.1,0.5-0.3,0.7-0.5
			c0.2-0.2,0.4-0.5,0.5-0.8l0.8,0.3l-4.2,12L447.2,124.8z"/>
		<path d="M460.1,118.5c0-1-0.6-1.8-1.5-2.2c-0.9-0.3-1.9,0-2.5,0.8c-0.9,1-1.6,2.1-2,3.4c-0.5,1.2-0.7,2.6-0.6,3.9
			c0,1,0.6,1.8,1.5,2.2c0.9,0.3,1.9,0,2.5-0.8C459.3,123.8,460.2,121.2,460.1,118.5 M455.5,116c1.4-1.3,3.5-1.2,4.8,0.1
			c0.5,0.5,0.8,1.2,0.9,1.9c0.3,3.3-0.8,6.5-3.1,8.9c-1.4,1.3-3.5,1.2-4.8-0.1c-0.5-0.5-0.8-1.2-0.9-1.9
			C452.1,121.7,453.2,118.4,455.5,116"/>
		<path d="M441.7,142.2c-0.4,0.3-1,0.8-2,1.6c-0.9,0.8-1.7,1.6-2.5,2.5c-0.8,0.9-1.5,1.8-2.2,2.8c-0.5,0.8-0.9,1.6-1.3,2.5l-1.3-0.5
			c0.4-0.8,0.8-1.5,1.2-2.2c0.7-1,1.4-2,2.2-2.9c0.8-0.9,1.7-1.7,2.6-2.6s1.6-1.4,2-1.7l-6-2.1l0.4-1l7.2,2.5L441.7,142.2z"/>
		<path d="M448.1,145.7c0-1-0.6-1.8-1.5-2.2c-0.9-0.3-1.9,0-2.5,0.8c-1.7,2-2.7,4.7-2.6,7.4c-0.1,1.2,0.9,2.3,2.1,2.3
			c0.8,0,1.5-0.3,1.9-0.9c0.9-1,1.6-2.2,2-3.4C448.1,148.4,448.3,147.1,448.1,145.7 M443.6,143.3c1.3-1.3,3.5-1.2,4.8,0.1
			c0.5,0.5,0.8,1.2,0.9,1.9c0.3,3.3-0.8,6.5-3.1,8.9c-1.3,1.3-3.5,1.2-4.8-0.1c-0.5-0.5-0.8-1.2-0.9-1.9c-0.2-1.6,0-3.3,0.6-4.8
			C441.6,145.8,442.5,144.4,443.6,143.3"/>
		<path d="M478.4,138l4.8-8.1l-2-1.2l0.5-0.9c0.3,0.2,0.6,0.3,0.9,0.4c0.3,0.1,0.7,0.1,1,0c0.3,0,0.6-0.2,0.8-0.3
			c0.3-0.2,0.5-0.4,0.7-0.7l0.7,0.4l-6.5,10.9L478.4,138z"/>
		<path d="M481.7,139.9c0.4-0.7,1-1.3,1.6-1.8c0.9-0.7,1.9-1,3-1.1l2.4-0.3c0.5-0.1,1.1-0.2,1.6-0.4c0.5-0.2,1-0.6,1.3-1.1
			c0.4-0.6,0.5-1.3,0.4-1.9c-0.1-0.7-0.6-1.3-1.2-1.6c-0.6-0.4-1.3-0.5-2-0.2c-0.6,0.3-1.2,0.7-1.5,1.3l-0.9-0.5
			c0.5-0.8,1.2-1.5,2.1-1.8c1-0.4,2.1-0.3,2.9,0.3c0.9,0.5,1.6,1.3,1.8,2.3c0.2,0.9,0,1.9-0.6,2.7c-0.4,0.7-1.1,1.3-1.9,1.6
			c-0.7,0.2-1.4,0.4-2.1,0.5l-2.3,0.3c-0.6,0.1-1.1,0.3-1.7,0.6c-0.5,0.3-0.9,0.6-1.3,1.1l5.3,3.2l-0.5,0.9L481.7,139.9z"/>
		<path d="M499.8,138.9c0.2-0.9-0.2-1.9-1-2.4c-0.8-0.5-1.9-0.4-2.6,0.3c-2.1,1.7-3.5,4-4,6.7c-0.3,1.2,0.4,2.4,1.6,2.7
			c0.7,0.2,1.5,0,2-0.5c1.1-0.8,2-1.8,2.6-3C499.1,141.5,499.6,140.2,499.8,138.9 M495.8,135.6c1.6-1,3.7-0.5,4.7,1
			c0.4,0.6,0.6,1.3,0.5,2c-0.1,1.6-0.6,3.2-1.5,4.6c-0.8,1.4-1.9,2.7-3.3,3.5c-1.1,0.7-2.5,0.7-3.5,0c-1.1-0.6-1.8-1.8-1.6-3.1
			c0.1-1.6,0.6-3.2,1.5-4.6C493.3,137.6,494.4,136.4,495.8,135.6"/>
		<path d="M471.9,161.4c-0.1-0.7-0.5-1.4-1.2-1.8c-0.6-0.4-1.4-0.5-2.1-0.2c-0.8,0.3-1.4,0.9-1.8,1.6c-0.4,0.7-0.6,1.5-0.5,2.4
			c0.2,1.3,1.4,2.3,2.8,2.1c0.2,0,0.4-0.1,0.5-0.1C471.1,164.7,472.1,163.1,471.9,161.4 M473.1,161.4c0.1,1.1-0.2,2.1-0.8,3
			c-0.6,1-1.4,1.7-2.5,2c-1,0.3-2,0.2-2.9-0.3c-0.8-0.4-1.3-1.1-1.6-2c-0.2-0.9-0.2-1.8,0-2.7c0.3-1.1,0.8-2.1,1.4-3
			c0.6-1,1.4-2,2.3-2.8c0.7-0.6,1.5-1.1,2.4-1.3c0.8-0.1,1.7,0,2.4,0.4c0.8,0.4,1.4,1.3,1.6,2.2c0.2,0.9,0.1,1.8-0.3,2.6l-1-0.6
			c0.2-0.6,0.3-1.2,0.2-1.8c-0.1-0.7-0.5-1.2-1.1-1.5c-0.5-0.3-1.1-0.5-1.7-0.3c-0.6,0.2-1.1,0.5-1.6,0.9c-0.5,0.4-0.9,0.8-1.2,1.3
			c-0.2,0.4-0.5,0.7-0.7,1.1c0.5-0.3,1.1-0.5,1.8-0.5c0.7,0,1.4,0.2,1.9,0.7C472.5,159.5,473,160.4,473.1,161.4"/>
		<path d="M482.1,162.9c0.3-1.2-0.4-2.4-1.6-2.7c-0.7-0.2-1.5,0-2,0.5c-2.1,1.7-3.5,4-4,6.7c-0.2,0.9,0.2,1.9,1,2.4
			c0.8,0.5,1.9,0.4,2.6-0.3c1.1-0.8,2-1.8,2.6-3C481.4,165.5,481.9,164.2,482.1,162.9 M478.1,159.6c1.6-1,3.7-0.5,4.7,1.1
			c0.4,0.6,0.6,1.3,0.5,2c-0.3,3.3-2.1,6.2-4.8,8.1c-1.6,1-3.7,0.5-4.7-1c-0.4-0.6-0.6-1.3-0.5-2.1
			C473.6,164.4,475.4,161.4,478.1,159.6"/>
		<path d="M512.2,159.3l6.2-7.1l-1.8-1.5l0.7-0.8c0.2,0.2,0.5,0.4,0.8,0.5c0.3,0.1,0.6,0.2,0.9,0.2c0.3,0,0.6-0.1,0.9-0.2
			c0.3-0.1,0.6-0.3,0.8-0.6l0.7,0.6L513,160L512.2,159.3z"/>
		<path d="M523.9,162.3c-0.1,0.7-0.4,1.3-0.8,1.9c-0.6,0.8-1.6,1.3-2.6,1.3c-2.2,0.1-4-1.6-4.2-3.8c-0.1-1.1,0.3-2.1,1.1-2.9
			l0.8,0.7c-0.5,0.5-0.8,1.2-0.8,1.9c0,0.8,0.3,1.6,1,2.1c0.5,0.5,1.3,0.8,2,0.7c0.7-0.1,1.4-0.4,1.8-1c0.4-0.4,0.6-1,0.6-1.6
			c0-0.5-0.2-1-0.5-1.4c-0.2-0.2-0.3-0.4-0.5-0.6c-0.2-0.2-0.4-0.4-0.6-0.5l0.7-0.8c0.2,0.1,0.4,0.3,0.6,0.5
			c0.2,0.2,0.4,0.3,0.7,0.4c0.4,0.2,0.9,0.2,1.4,0.1c0.5-0.1,0.9-0.4,1.3-0.8c0.4-0.4,0.6-1,0.6-1.7c0-0.6-0.4-1.3-0.9-1.6
			c-0.5-0.5-1.2-0.7-1.9-0.6c-0.6,0.1-1.1,0.4-1.5,0.9l-0.8-0.7c0.6-0.7,1.4-1.2,2.4-1.3c1-0.1,1.9,0.3,2.6,0.9
			c0.7,0.6,1.1,1.5,1.2,2.4c0.1,0.9-0.2,1.8-0.8,2.5c-0.4,0.6-1,0.9-1.7,1.1c-0.5,0.1-0.9,0.1-1.4,0
			C523.9,161,524,161.6,523.9,162.3"/>
		<path d="M533.3,164.1c0.5-1.1,0-2.4-1.1-2.9c-0.7-0.3-1.4-0.2-2.1,0.1c-2.4,1.3-4.2,3.4-5.1,5.9c-0.4,0.9-0.1,1.9,0.5,2.5
			c0.7,0.6,1.8,0.7,2.6,0.2c1.2-0.6,2.2-1.4,3.1-2.5C532.2,166.6,532.9,165.4,533.3,164.1 M530,160.1c1.7-0.7,3.7,0.1,4.4,1.9
			c0.3,0.7,0.3,1.4,0.1,2.1c-0.4,1.6-1.2,3.1-2.3,4.2c-1,1.3-2.4,2.3-3.9,2.9c-1.7,0.7-3.7-0.1-4.4-1.9c-0.3-0.7-0.3-1.4-0.1-2.1
			C524.7,164.1,527,161.5,530,160.1"/>
		<path d="M502.8,181c0,1.2-0.5,2.3-1.3,3.1c-0.7,0.9-1.8,1.5-3,1.6c-1,0.1-1.9-0.2-2.6-0.8c-0.8-0.6-1.3-1.6-1.3-2.6
			c0-0.9,0.2-1.8,0.7-2.6l0.8,0.7c-0.3,0.5-0.5,1.1-0.5,1.7c0.1,1.4,1.3,2.5,2.7,2.4c0.1,0,0.2,0,0.3,0c0.8-0.2,1.5-0.6,2-1.2
			c0.6-0.6,1-1.4,1.1-2.2c0.1-0.7-0.2-1.4-0.7-1.9c-0.4-0.4-1-0.7-1.5-0.8c-0.4,0-0.9,0-1.3,0.1l-0.7-0.7l4.9-4.4l4.5,3.9l-0.7,0.8
			l-3.8-3.3l-2.9,2.6c0.5,0,0.9,0.1,1.4,0.3c0.4,0.2,0.8,0.5,1.2,0.8C502.5,179.2,502.8,180.1,502.8,181"/>
		<path d="M511.5,184.4c0.5-1.1,0-2.4-1.1-2.9c-0.7-0.3-1.4-0.2-2.1,0.1c-2.4,1.3-4.2,3.4-5.1,5.9c-0.4,0.9-0.1,1.9,0.5,2.5
			c0.7,0.6,1.8,0.7,2.6,0.2C508.7,189,510.5,186.9,511.5,184.4 M508.1,180.4c1.7-0.7,3.7,0.1,4.4,1.9c0.3,0.7,0.3,1.4,0.1,2.1
			c-0.9,3.2-3.2,5.8-6.2,7.1c-1.7,0.7-3.7-0.1-4.4-1.9c-0.3-0.7-0.3-1.4-0.1-2.1C502.9,184.4,505.1,181.8,508.1,180.4"/>
		<path d="M540.9,186.3l7.3-6l-1.5-1.8l0.8-0.6c0.2,0.2,0.4,0.5,0.7,0.6c0.3,0.2,0.6,0.3,0.9,0.4c0.3,0.1,0.6,0.1,0.9,0
			c0.3-0.1,0.6-0.2,0.9-0.4l0.5,0.7l-9.8,8L540.9,186.3z"/>
		<path d="M555,186.5l-8.4,1.2l2.8,3.4L555,186.5z M549.2,192.5l-1.9,1.6l-0.7-0.8l1.9-1.6l-3.5-4.2l1-0.8l10.3-1.4l0.7,0.8
			l-7.1,5.8l1.1,1.4l-0.8,0.6L549.2,192.5z"/>
		<path d="M560.9,194.6c0.7-1,0.4-2.4-0.6-3c-0.6-0.4-1.4-0.5-2-0.2c-1.3,0.4-2.5,1-3.5,1.9c-1.1,0.8-1.9,1.8-2.6,3
			c-0.7,1-0.4,2.4,0.6,3.1c0.6,0.4,1.4,0.5,2.1,0.2c1.3-0.4,2.5-1,3.5-1.9C559.4,196.8,560.3,195.8,560.9,194.6 M558.3,190.1
			c1.2-0.3,2.6,0.2,3.4,1.2c0.8,1,1,2.4,0.5,3.5c-1.4,3-4.1,5.2-7.3,6c-1.8,0.4-3.6-0.8-4-2.6c-0.1-0.7-0.1-1.4,0.2-2.1
			c0.7-1.5,1.7-2.8,3-3.8C555.3,191.3,556.7,190.5,558.3,190.1"/>
		<path d="M530,202.7l-8.4,1.2l2.8,3.4L530,202.7z M524.2,208.8l-1.9,1.5l-0.7-0.8l1.9-1.5l-3.5-4.2l1-0.8l10.3-1.4l0.7,0.8
			l-7.1,5.8l1.2,1.4l-0.8,0.6L524.2,208.8z"/>
		<path d="M536,210.9c0.7-1,0.4-2.4-0.6-3c-0.6-0.4-1.4-0.5-2-0.2c-1.3,0.4-2.5,1-3.5,1.9c-1.1,0.8-1.9,1.8-2.6,3
			c-0.7,1-0.4,2.4,0.6,3.1c0.6,0.4,1.4,0.5,2,0.2C532.5,214.9,534.6,213.2,536,210.9 M533.3,206.4c1.8-0.4,3.6,0.8,4,2.6
			c0.1,0.7,0.1,1.4-0.2,2.1c-1.4,3-4.1,5.2-7.3,6c-1.8,0.4-3.6-0.7-4-2.6c-0.2-0.7-0.1-1.4,0.2-2.1
			C527.4,209.4,530.1,207.2,533.3,206.4"/>
		<path d="M566.2,219l8.2-4.6l-1.1-2l0.9-0.5c0.1,0.3,0.3,0.5,0.6,0.7c0.2,0.2,0.5,0.4,0.8,0.5c0.3,0.1,0.6,0.2,0.9,0.1
			c0.3,0,0.7-0.1,1-0.3l0.4,0.8l-11.1,6.2L566.2,219z"/>
		<path d="M577.5,224.5c-0.4,1.1-1.2,2-2.3,2.4c-1,0.6-2.2,0.8-3.4,0.5c-0.9-0.2-1.7-0.9-2.2-1.7c-0.5-0.8-0.7-1.9-0.4-2.8
			c0.3-0.9,0.8-1.7,1.6-2.2l0.5,1c-0.5,0.4-0.8,0.9-1,1.4c-0.4,1.3,0.3,2.8,1.6,3.2c0.1,0,0.2,0.1,0.4,0.1c0.8,0.1,1.6-0.1,2.3-0.4
			c0.8-0.3,1.4-1,1.8-1.8c0.3-0.7,0.3-1.4,0-2.1c-0.2-0.5-0.7-1-1.2-1.2c-0.4-0.2-0.9-0.3-1.3-0.3l-0.5-0.9l6.1-2.5l3,5.2l-0.9,0.5
			l-2.5-4.4l-3.7,1.5c0.5,0.1,0.9,0.4,1.2,0.7c1.1,1,1.4,2.5,0.9,3.8"/>
		<path d="M584.5,230.7c0.6-0.7,0.8-1.8,0.3-2.6c-0.5-0.8-1.4-1.2-2.4-1c-1.3,0.1-2.6,0.6-3.8,1.3c-1.2,0.6-2.2,1.5-3,2.5
			c-0.6,0.7-0.8,1.7-0.3,2.6c0.5,0.8,1.4,1.3,2.4,1.1C580.4,234.1,582.8,232.8,584.5,230.7 M582.7,225.8c1.9-0.1,3.5,1.3,3.6,3.2
			c0,0.7-0.2,1.5-0.6,2.1c-1.9,2.7-4.9,4.4-8.2,4.6c-1.9,0.1-3.5-1.3-3.6-3.2c0-0.7,0.2-1.4,0.6-2c0.9-1.4,2.2-2.5,3.6-3.2
			C579.5,226.3,581,225.9,582.7,225.8"/>
		<path d="M548.8,237.6c-0.3,0.6-0.8,1.1-1.4,1.5c-1.9,1-4.3,0.3-5.3-1.7c-0.5-0.9-0.6-1.9-0.3-2.9c0.3-1,1-1.9,2-2.3l0.5,1
			c-0.6,0.3-1.1,0.9-1.4,1.6c-0.3,0.8-0.2,1.6,0.3,2.3c0.3,0.6,0.9,1.1,1.6,1.3c0.7,0.2,1.4,0.1,2-0.3c0.6-0.3,1-0.7,1.1-1.3
			c0.2-0.5,0.2-1,0.1-1.5c-0.1-0.3-0.2-0.5-0.3-0.8c-0.1-0.3-0.3-0.5-0.4-0.7l1-0.5c0.1,0.2,0.3,0.5,0.4,0.7
			c0.1,0.2,0.3,0.4,0.5,0.6c0.4,0.3,0.8,0.5,1.3,0.5c0.5,0,1-0.1,1.4-0.3c0.5-0.3,1-0.8,1.1-1.4c0.2-0.6,0.1-1.3-0.3-1.9
			c-0.3-0.6-0.9-1.1-1.6-1.2c-0.6-0.1-1.2,0-1.7,0.3l-0.5-0.9c0.8-0.5,1.8-0.7,2.7-0.4c0.9,0.3,1.7,0.9,2.1,1.7
			c0.5,0.8,0.6,1.8,0.3,2.6c-0.2,0.9-0.8,1.6-1.6,2.1c-0.6,0.4-1.3,0.5-2,0.5c-0.5-0.1-0.9-0.2-1.3-0.5
			C549.3,236.4,549.1,237,548.8,237.6"/>
		<path d="M557.1,242.4c0.6-0.7,0.8-1.8,0.3-2.6c-0.5-0.8-1.4-1.2-2.4-1c-2.7,0.4-5.1,1.8-6.8,3.8c-0.8,0.9-0.8,2.3,0.1,3.1
			c0.5,0.5,1.3,0.7,2,0.6C552.9,245.9,555.3,244.5,557.1,242.4 M555.3,237.6c1.9-0.1,3.4,1.4,3.5,3.2c0,0.7-0.2,1.4-0.6,2
			c-1.9,2.7-4.9,4.4-8.2,4.6c-1.9,0.1-3.5-1.3-3.6-3.2c0-0.7,0.2-1.5,0.6-2.1C548.9,239.6,551.9,237.9,555.3,237.6"/>
		<path d="M584.8,254.1l8.9-3.1l-0.8-2.2l1-0.3c0.1,0.3,0.2,0.6,0.4,0.8c0.2,0.3,0.4,0.5,0.7,0.6c0.3,0.1,0.5,0.2,0.8,0.3
			c0.3,0,0.7,0,1-0.1l0.3,0.8l-12,4.2L584.8,254.1z"/>
		<path d="M593.9,261.3c0.4-0.6,0.5-1.4,0.2-2.1c-0.2-0.7-0.8-1.3-1.5-1.5c-1.6-0.5-3.4,0.1-4.4,1.5c-0.7,1.1-0.4,2.6,0.8,3.4
			c0.2,0.1,0.3,0.2,0.5,0.2c0.8,0.3,1.7,0.3,2.4,0C592.8,262.5,593.5,262,593.9,261.3 M594.9,262c-0.6,0.9-1.5,1.5-2.5,1.8
			c-1,0.4-2.2,0.4-3.2,0c-0.9-0.4-1.7-1.2-2-2.1c-0.3-0.8-0.3-1.7,0.1-2.5c0.4-0.8,1-1.5,1.8-2.1c2-1.2,4.2-1.9,6.5-2.1
			c0.9,0,1.8,0.1,2.6,0.6c0.7,0.4,1.3,1.1,1.5,1.8c0.4,0.9,0.3,1.9-0.2,2.7c-0.4,0.8-1.1,1.4-1.9,1.8l-0.4-1c0.5-0.3,1-0.8,1.3-1.3
			c0.3-0.6,0.4-1.3,0.1-1.9c-0.2-0.6-0.6-1.1-1.1-1.3c-0.6-0.2-1.2-0.3-1.8-0.3c-0.6,0-1.2,0.1-1.8,0.2c-0.4,0.1-0.8,0.2-1.2,0.4
			c0.6,0.1,1.2,0.4,1.6,0.8c0.5,0.4,0.9,1,1,1.7C595.6,260.2,595.4,261.2,594.9,262"/>
		<path d="M600.8,269c0.8-0.6,1.1-1.6,0.8-2.5c-0.3-0.9-1.2-1.5-2.2-1.5c-2.7-0.1-5.3,0.8-7.3,2.6c-1,0.7-1.3,2-0.6,3
			c0.4,0.6,1.2,1,2,1c1.3,0.1,2.7-0.1,3.9-0.6C598.7,270.6,599.8,269.9,600.8,269 M599.9,263.9c1.3,0.1,2.3,1,2.7,2.2
			c0.4,1.2,0.2,2.6-0.7,3.5c-2.4,2.3-5.6,3.4-8.9,3.1c-1.9-0.3-3.2-2-2.9-3.8c0.1-0.7,0.4-1.4,0.9-1.9c1.1-1.2,2.5-2.1,4.1-2.5
			C596.6,263.8,598.3,263.6,599.9,263.9"/>
		<path d="M557.2,264.8c0.8-0.2,1.6-0.4,2.4-0.4c1.1,0.1,2.1,0.5,3,1.1l2,1.3c0.5,0.3,1,0.5,1.5,0.7c1.2,0.4,2.5-0.1,3.2-1.2
			c0.3-0.6,0.4-1.4,0.1-2c-0.2-0.7-0.7-1.2-1.4-1.5c-0.7-0.2-1.4-0.2-2,0.1l-0.3-1c0.9-0.3,1.9-0.3,2.8,0c1,0.3,1.7,1.1,2,2.1
			c0.4,0.9,0.3,2-0.2,2.9c-0.5,0.8-1.3,1.4-2.2,1.7c-0.8,0.3-1.7,0.3-2.5,0c-0.7-0.3-1.3-0.6-1.9-1l-2-1.3c-0.5-0.3-1.1-0.5-1.6-0.7
			c-0.6-0.1-1.1-0.1-1.7,0l2,5.8l-1,0.3L557.2,264.8z"/>
		<path d="M571.7,275.5c0.8-0.6,1.1-1.6,0.8-2.5c-0.3-0.9-1.2-1.5-2.2-1.5c-2.7-0.1-5.3,0.8-7.3,2.6c-0.8,0.6-1.1,1.6-0.8,2.5
			c0.3,0.9,1.2,1.5,2.2,1.5c1.3,0.1,2.7-0.1,3.9-0.6C569.5,277.1,570.7,276.4,571.7,275.5 M570.8,270.4c1.9,0.2,3.2,2,2.9,3.8
			c-0.1,0.7-0.4,1.4-0.9,1.9c-1.1,1.2-2.5,2.1-4.1,2.5c-1.5,0.6-3.2,0.8-4.8,0.6c-1.3-0.1-2.3-1-2.7-2.3c-0.5-1.2-0.2-2.5,0.8-3.4
			C564.2,271.2,567.5,270.1,570.8,270.4"/>
		<path d="M596.9,294.1l9.3-1.5l-0.4-2.3l1-0.2c0,0.3,0.1,0.6,0.3,0.9c0.1,0.3,0.3,0.6,0.6,0.8c0.2,0.2,0.5,0.3,0.8,0.4
			c0.3,0.1,0.7,0.1,1,0.1l0.1,0.8l-12.5,2L596.9,294.1z"/>
		<path d="M609.9,303.1c-0.4-0.2-1.2-0.5-2.3-1c-1.1-0.4-2.2-0.7-3.4-1c-1.2-0.3-2.3-0.5-3.5-0.5c-0.9-0.1-1.8-0.1-2.8,0l-0.2-1.3
			c0.8-0.1,1.7-0.1,2.5,0c1.2,0.1,2.4,0.3,3.6,0.6c1.1,0.3,2.3,0.7,3.5,1.1s2,0.8,2.4,0.9l-1-6.3l1.1-0.2l1.2,7.5L609.9,303.1z"/>
		<path d="M609.9,310.4c0.9-0.5,1.3-1.4,1.2-2.3c-0.2-0.9-0.9-1.7-1.9-1.8c-2.6-0.6-5.4-0.1-7.7,1.3c-1.1,0.5-1.5,1.9-1,2.9
			c0.3,0.7,1,1.1,1.7,1.2C604.9,312.2,607.6,311.8,609.9,310.4 M609.9,305.2c1.8,0.5,2.8,2.4,2.3,4.2c-0.2,0.7-0.7,1.3-1.3,1.8
			c-2.7,1.8-6.1,2.4-9.3,1.5c-1.8-0.5-2.8-2.4-2.3-4.2c0.2-0.7,0.7-1.3,1.3-1.8c1.3-1,2.9-1.6,4.5-1.8
			C606.7,304.6,608.4,304.7,609.9,305.2"/>
		<path d="M568.3,302.9l9.3-1.5l-0.4-2.3l1-0.2c0,0.3,0.1,0.6,0.3,0.9c0.2,0.3,0.4,0.5,0.6,0.8c0.2,0.2,0.5,0.3,0.8,0.4
			c0.3,0.1,0.7,0.1,1,0.1l0.1,0.9l-12.5,2L568.3,302.9z"/>
		<path d="M580,311.2c0.9-0.4,1.3-1.4,1.2-2.3c-0.2-0.9-0.9-1.7-1.9-1.8c-1.3-0.3-2.7-0.4-4-0.1c-1.3,0.2-2.6,0.6-3.7,1.3
			c-1.1,0.5-1.5,1.9-1,2.9c0.3,0.7,1,1.1,1.7,1.2c1.3,0.3,2.7,0.3,4,0.1C577.6,312.3,578.9,311.9,580,311.2 M580,306
			c1.8,0.5,2.8,2.4,2.3,4.2c-0.2,0.7-0.7,1.3-1.3,1.8c-2.7,1.8-6.1,2.4-9.3,1.5c-1.8-0.5-2.8-2.4-2.3-4.2c0.2-0.7,0.7-1.3,1.3-1.8
			c1.3-1,2.9-1.6,4.5-1.8C576.8,305.4,578.5,305.5,580,306"/>
		<path d="M601.8,332.4l9.4,0.1v-2.3h1c0,0.3,0,0.6,0.1,0.9c0.1,0.3,0.3,0.6,0.5,0.9c0.2,0.2,0.4,0.4,0.7,0.5c0.3,0.2,0.7,0.2,1,0.3
			v0.9l-12.7-0.1L601.8,332.4z"/>
		<path d="M607,342.4c0.5-0.6,0.8-1.3,0.8-2.1c0.1-0.8-0.2-1.6-0.8-2.2c-1-1-2.7-1-3.8,0c-0.6,0.6-0.9,1.4-0.8,2.2
			c0,0.8,0.2,1.6,0.8,2.2c0.5,0.5,1.2,0.8,1.9,0.8C605.8,343.3,606.5,343,607,342.4 M609.7,342.3c0.9,0.9,2.3,0.9,3.2,0
			c0.5-0.5,0.7-1.2,0.7-1.9c0.1-0.7-0.2-1.5-0.7-2c-0.9-0.8-2.3-0.8-3.2,0c-0.5,0.5-0.7,1.2-0.7,1.9
			C609,341,609.2,341.7,609.7,342.3 M607.1,343.8c-0.6,0.4-1.3,0.6-2,0.6c-1,0-2-0.4-2.7-1.2c-1.5-1.7-1.4-4.2,0.1-5.9
			c0.7-0.7,1.7-1.2,2.7-1.1c0.7,0,1.4,0.2,2,0.6c0.5,0.4,1,0.9,1.3,1.5c0.3-0.5,0.7-0.8,1.2-1.1c0.5-0.3,1.1-0.5,1.7-0.5
			c0.9,0,1.8,0.3,2.4,1c0.7,0.7,1,1.7,1,2.7c0,1-0.3,1.9-1,2.7c-0.6,0.7-1.5,1-2.5,1c-0.6,0-1.2-0.2-1.7-0.5
			c-0.5-0.3-0.8-0.7-1.1-1.2C608.2,342.9,607.7,343.4,607.1,343.8"/>
		<path d="M611.8,352c1.2-0.4,1.8-1.6,1.4-2.8c-0.2-0.7-0.8-1.2-1.4-1.4c-1.2-0.5-2.6-0.8-3.9-0.8c-1.3-0.1-2.7,0.2-3.9,0.7
			c-1.2,0.4-1.8,1.6-1.4,2.8c0.2,0.7,0.8,1.2,1.4,1.4c1.2,0.5,2.6,0.8,3.9,0.8C609.2,352.7,610.6,352.4,611.8,352 M612.7,346.8
			c1.6,0.9,2.3,2.9,1.4,4.6c-0.3,0.6-0.8,1.1-1.5,1.4c-1.5,0.7-3.1,1.1-4.7,1c-1.6,0-3.3-0.3-4.7-1.1c-1.6-0.9-2.3-2.9-1.4-4.6
			c0.3-0.6,0.8-1.1,1.5-1.4c1.5-0.7,3.1-1.1,4.7-1C609.6,345.7,611.2,346.1,612.7,346.8"/>
		<path d="M582.2,343.8c1.2-0.4,1.8-1.6,1.5-2.7c-0.2-0.7-0.8-1.3-1.5-1.5c-2.5-1-5.3-1-7.8-0.1c-0.9,0.3-1.5,1.1-1.6,2.1
			c0,1,0.6,1.8,1.5,2.1c1.2,0.5,2.6,0.8,3.9,0.8C579.6,344.5,581,344.3,582.2,343.8 M583.1,338.7c1.6,0.9,2.3,2.9,1.4,4.6
			c-0.3,0.6-0.8,1.1-1.5,1.4c-3,1.4-6.5,1.3-9.4-0.1c-1.6-0.9-2.3-2.9-1.4-4.6c0.3-0.6,0.8-1.1,1.4-1.4
			C576.7,337.2,580.1,337.3,583.1,338.7"/>
		<polyline fill="none" stroke="#E4007F" stroke-width="2" stroke-linecap="round" stroke-linejoin="round" points="54.4,342.9 
			369,342.9 210.9,67.8 		"/>
		
			<line fill="none" stroke="#E4007F" stroke-width="2" stroke-linecap="round" stroke-linejoin="round" x1="368.9" y1="343.1" x2="478.4" y2="45.5"/>
		<path fill="none" stroke="#E4007F" stroke-width="2" stroke-linecap="round" stroke-linejoin="round" d="M353.1,313.4
			c0.8-0.5,1.5-0.9,2.4-1.3c7.6-3.8,16.4-4.2,24.2-1"/>
		<g enable-background="new    ">
			<path d="M201.1,48.7c0,0.8-0.1,1.7-0.2,2.6c-0.1,0.9-0.3,1.6-0.4,2.2c-0.4,1.2-0.9,1.8-1.4,1.9s-1-0.6-1.3-2.1
				c-0.1-0.2-0.1-0.5-0.1-0.9c0-0.4-0.1-0.8-0.1-1.2c0-0.4,0-0.9,0-1.3s0-0.8,0-1V37.1L185,37.5c-0.3,0-0.6,0.1-0.9,0.2
				c-0.3,0.1-0.6,0.3-0.9,0.4c-0.3,0.1-0.5,0.3-0.8,0.4c-0.3,0.1-0.4,0.1-0.5,0.1c-0.4-0.1-0.8-0.2-1.2-0.4
				c-0.4-0.2-0.9-0.4-1.3-0.7c-0.4-0.3-0.9-0.5-1.3-0.8s-0.8-0.5-1.1-0.7c-0.4-0.3-0.6-0.6-0.5-1.1c0.1-0.5,0.4-0.7,0.9-0.7
				c0.4,0.1,0.8,0.1,1.3,0.2c0.5,0.1,1.1,0.2,1.7,0.3c0.6,0.1,1.3,0.2,2,0.3c0.7,0.1,1.5,0.1,2.2,0.1c0.3,0,0.8,0,1.5,0
				c0.8,0,1.6,0,2.4,0c0.9,0,1.7,0,2.4,0c0.7,0,1.2-0.1,1.4-0.1c0.9,0,1.7,0,2.5-0.1c0.7-0.1,1.3-0.1,1.7-0.2l1-0.7
				c0.2,0,0.6,0,1.1,0.1c0.5,0.1,0.9,0.1,1.3,0.2c0.1,0.1,0.3,0.1,0.4,0.1s0.2,0.1,0.3,0.1c0.1,0,0.2,0.1,0.2,0.1c0.1,0,0.1,0,0.2,0
				c0.3,0.2,0.4,0.4,0.5,0.6c0.1,0.2,0.1,0.5,0,0.7c0,0.1,0,0.2-0.1,0.2c0,0.1,0,0.1,0,0.2c0,0.1,0,0.2-0.1,0.3c0,0.1,0,0.2-0.1,0.2
				c-0.1,0.1-0.1,0.3-0.1,0.4c0,0.2,0,0.3,0,0.4V48.7z"/>
		</g>
		<g enable-background="new    ">
			<path d="M503.9,32.9c0.2,0,0.3-0.1,0.5-0.2c0.2-0.1,0.4-0.2,0.6-0.4c0.2-0.1,0.4-0.2,0.6-0.3c0.2-0.1,0.4-0.1,0.5-0.1
				c1.2,0,2.2,0,3,0c0.8,0.1,1.4,0.2,1.9,0.3c0.4,0.2,0.6,0.4,0.8,0.6c0.2,0.3,0.3,0.5,0.3,0.8c0,0.4-0.1,0.7-0.3,1
				c-0.2,0.3-0.6,0.5-1.1,0.5c-0.4,0.1-0.9,0.1-1.4,0.1c-0.5,0-0.9,0-1.2,0l-18.2,0c-0.6,0-1.2,0-1.8-0.1c-0.6-0.1-1.1-0.2-1.6-0.5
				c-0.4-0.2-0.8-0.6-1.1-1c-0.3-0.4-0.4-1-0.4-1.8V21.5c0-0.5-0.1-0.9-0.2-1.3c-0.1-0.4-0.3-0.7-0.6-1c-0.1-0.1-0.2-0.2-0.4-0.3
				c-0.2-0.1-0.3-0.2-0.5-0.3s-0.3-0.2-0.5-0.2s-0.3-0.1-0.4-0.2c-0.4-0.3-0.6-0.6-0.5-1c0.1-0.4,0.3-0.7,0.7-0.7c1,0,2,0.1,3.1,0.3
				c1,0.2,2.1,0.3,3.2,0.5c0.1,0,0.4,0,0.8,0c0.4,0,1,0,1.6,0c0.6,0,1.3,0,2.1,0c0.8,0,1.6,0,2.4,0c0.8,0,1.6,0,2.4,0
				c0.8,0,1.5,0,2.1,0c0.6,0,1.2,0,1.6,0s0.7,0,0.8,0c0.2,0,0.3-0.1,0.5-0.2c0.2-0.1,0.4-0.2,0.5-0.3c0.2-0.1,0.4-0.3,0.6-0.4
				c0.2-0.1,0.4-0.1,0.5-0.1c1.3,0,2.3,0,3,0c0.7,0.1,1.4,0.2,2,0.3c0.3,0.2,0.6,0.4,0.8,0.6c0.2,0.3,0.3,0.5,0.3,0.8
				c0,0.4-0.1,0.7-0.3,1c-0.2,0.3-0.6,0.5-1.1,0.5c-0.4,0.1-0.8,0.1-1.1,0.1c-0.3,0-0.7,0-1.1,0h-18.6v12c0,0.4,0.2,0.7,0.5,0.9
				c0.3,0.2,0.7,0.3,1,0.3H503.9z"/>
		</g>
		<g enable-background="new    ">
			<path d="M29,342c0.4,0,0.8,0.1,1,0.3c0.3,0.2,0.4,0.4,0.4,0.9c0,0.3-0.1,0.5-0.4,0.8c-0.2,0.3-0.8,0.4-1.6,0.4
				c-0.6,0-1.7,0-3.4,0c-1.7,0-3.5,0-5.4,0c-1.9,0-3.7,0-5.4,0.1c-1.7,0-2.8,0-3.4,0v5.3c0,0.4,0.2,0.7,0.5,0.9
				c0.3,0.2,0.7,0.3,1.1,0.3c0.2,0,0.9,0,2,0c1.2,0,2.4,0,3.8,0c1.4,0,2.7,0,3.8,0c1.2,0,1.9,0,2.1,0c0.2,0,0.4-0.1,0.6-0.2
				c0.2-0.1,0.4-0.2,0.6-0.4c0.2-0.1,0.4-0.2,0.6-0.3c0.2-0.1,0.4-0.1,0.5-0.1c1.2,0,2.2,0,3,0c0.8,0.1,1.4,0.2,2,0.3
				c0.3,0.2,0.6,0.4,0.8,0.6c0.2,0.3,0.3,0.5,0.3,0.8c0,0.4-0.1,0.7-0.4,1c-0.2,0.3-0.6,0.5-1.2,0.5c-0.4,0.1-0.9,0.1-1.3,0.1
				s-0.9,0-1.3,0l-16.4,0c-0.6,0-1.2,0-1.8-0.1c-0.6,0-1.1-0.2-1.6-0.4c-0.5-0.2-0.9-0.5-1.1-0.9c-0.3-0.4-0.4-0.9-0.4-1.6v-4.3
				c0-0.6,0-1.1-0.1-1.4c-0.1-0.3-0.2-0.6-0.4-0.8c-0.1-0.1-0.3-0.2-0.4-0.4c-0.2-0.1-0.4-0.2-0.6-0.3c-0.2-0.1-0.4-0.2-0.6-0.3
				c-0.2-0.1-0.4-0.1-0.5-0.2c-0.4-0.3-0.6-0.6-0.5-0.9c0.1-0.4,0.3-0.6,0.7-0.6c0.5,0,1.1,0.1,1.7,0.1c0.6,0.1,1.2,0.1,1.7,0.2
				c0.6,0.1,1.1,0.2,1.6,0.3c0.5,0.1,0.9,0.1,1.2,0.2c0.2,0,0.9,0,2.3,0c1.4,0,2.9,0,4.6,0c1.7,0,3.3,0,4.9-0.1c1.6,0,2.6,0,3.2-0.1
				l0.2-6.6c-0.5,0-1.5,0-2.9,0c-1.4,0-2.8,0-4.3,0.1c-1.5,0-2.9,0-4.2,0.1c-1.3,0-2,0-2.3,0.1c-0.3,0.1-0.6,0.1-0.9,0.3
				c-0.3,0.1-0.6,0.2-0.8,0.3c-0.3,0.1-0.5,0.2-0.7,0.3c-0.2,0.1-0.3,0.1-0.4,0c-0.8-0.2-1.7-0.5-2.7-1c-1-0.5-1.8-0.9-2.5-1.3
				c-0.4-0.3-0.5-0.6-0.4-1c0.1-0.4,0.4-0.6,0.8-0.6c0.4,0,0.7,0.1,1.1,0.1s0.8,0.1,1.3,0.1c0.4,0.1,1,0.1,1.6,0.2
				c0.6,0.1,1.3,0.1,2.1,0.1c0.2,0,0.4,0,0.8,0c0.4,0,0.8,0,1.2,0c0.5,0,1,0,1.5,0c0.5,0,1.1,0,1.6,0c0.6,0,1.4,0,2.4,0c1,0,2,0,3,0
				c1,0,1.8,0,2.6,0c0.8,0,1.2-0.1,1.3-0.1l0.8-0.7c0.2,0,0.5,0,0.9,0.1c0.4,0,0.8,0.1,1.2,0.1c0.4,0.1,0.8,0.1,1.1,0.2
				c0.3,0.1,0.6,0.1,0.7,0.1c0.2,0.1,0.3,0.3,0.3,0.5c0,0.2,0,0.4,0,0.7c0,0.1-0.1,0.2-0.1,0.3c0,0.1-0.1,0.2-0.1,0.3
				c-0.1,0.1-0.1,0.2-0.1,0.3c0,0.1-0.1,0.2-0.1,0.3L29,342z"/>
		</g>
		<g enable-background="new    ">
			<path d="M360.1,383.7c0,0.4,0.2,0.7,0.5,0.9c0.3,0.2,0.7,0.3,1,0.3c0.3,0,1,0,2,0s2.2,0,3.4,0c1.2,0,2.3,0,3.3,0c1,0,1.6,0,1.8,0
				c0.3,0,0.7,0,1.2-0.1c0.5,0,0.9-0.1,1.2-0.1c0.1,0,0.2,0,0.4-0.1c0.2-0.1,0.3-0.2,0.5-0.4c0.2-0.1,0.4-0.2,0.6-0.3
				c0.2-0.1,0.4-0.2,0.6-0.2c0.5,0,1.2,0,2.1,0c0.9,0,1.6,0.1,2.2,0.2c0.6,0.1,1.1,0.4,1.3,0.6c0.3,0.3,0.4,0.6,0.4,1
				s-0.1,0.8-0.4,1.1c-0.3,0.3-0.7,0.5-1.3,0.5c-0.7,0-1.9,0-3.7,0c-1.8,0-3.7,0-5.8,0c-2.1,0-4.1,0-6.2,0c-2,0-3.6,0-4.8,0
				c-1.2,0-2.2-0.2-3-0.6c-0.8-0.4-1.2-1.3-1.2-2.7v-9.7c0-0.2,0-0.5,0-0.8c0-0.3,0-0.6,0-0.9c0-0.3-0.1-0.5-0.1-0.8
				s-0.2-0.4-0.4-0.6c-0.3-0.2-0.5-0.3-0.7-0.5c-0.2-0.1-0.5-0.3-0.7-0.3c-0.2-0.1-0.4-0.2-0.6-0.3s-0.4-0.1-0.5-0.2
				c-0.4-0.3-0.6-0.6-0.5-1c0.1-0.4,0.3-0.6,0.7-0.6c1,0.1,2.1,0.1,3.4,0.3c1.3,0.1,2.3,0.2,3.1,0.3c0.2,0.1,0.4,0.2,0.4,0.3
				c0,0.1,0.1,0.3,0.1,0.5c0,0.1-0.1,0.3-0.1,0.5c0,0.2,0,0.3,0,0.5c0,0.1,0,0.3-0.1,0.4c0,0.1,0,0.3,0,0.3V383.7z"/>
		</g>
	</g>
</g>
</svg>
