
<svg xmlns="http://www.w3.org/2000/svg" version="1.1" xmlns:xlink="http://www.w3.org/1999/xlink" preserveAspectRatio="none" x="0px" y="0px" width="60px" height="60px" viewBox="0 0 60 60">
<defs>
<g id="gfcnf43545_4_Layer1_0_FILL">
<path fill="#FAFDFF" stroke="none" d="
M 518.15 366.15
Q 512 372.3 512 381 512 389.7 518.15 395.85 524.3 402 533 402 541.7 402 547.85 395.85 554 389.7 554 381 554 372.3 547.85 366.15 541.7 360 533 360 524.3 360 518.15 366.15 Z"/>
</g>

<g id="gfcnf43545_4_Layer0_0_FILL">
<path fill="#1E1E1E" stroke="none" d="
M 10.4 -5.05
Q 10.4 -6 10.3 -6.7 10.2 -7.35 9.9 -7.7 9.6 -8.1 9.05 -8.25 8.5 -8.4 7.6 -8.4
L -7.1 -8.4
Q -8.6 -8.4 -9.15 -7.75 -9.7 -7.05 -9.7 -5.05
L -9.7 5.7
Q -9.7 6.7 -9.55 7.35 -9.45 8 -9.15 8.35 -8.85 8.75 -8.3 8.9 -7.75 9 -6.85 9
L 7.8 9
Q 8.55 9 9.05 8.9 9.55 8.75 9.85 8.4 10.15 8 10.3 7.4 10.4 6.75 10.4 5.75
L 10.4 -5.05
M 5 -3.3
Q 5.4 -3.3 5.4 -2.8
L 5.4 3.35
Q 5.4 3.8 5.3 3.85 5.25 3.9 5 3.9
L -4.3 3.9
Q -4.75 3.9 -4.75 3.4
L -4.75 -2.75
Q -4.75 -3.3 -4.3 -3.3
L 5 -3.3 Z"/>
</g>

<path id="gfcnf43545_4_Layer1_0_1_STROKES" stroke="#1E1E1E" stroke-width="3" stroke-linejoin="round" stroke-linecap="round" fill="none" d="
M 23.186474609374955 0.079071044921875
Q 23.186474609374955 9.648593139648426 16.421624755859398 16.413255310058616 9.656774902343727 23.17791748046875 0.08698730468745453 23.17791748046875 -9.482800292968818 23.17791748046875 -16.24765014648449 16.413255310058616 -23.012500000000045 9.648593139648426 -23.012500000000045 0.079071044921875 -23.012500000000045 -9.490451049804676 -16.24765014648449 -16.255113220214866 -9.482800292968818 -23.019775390625 0.08698730468745453 -23.019775390625 9.656774902343727 -23.019775390625 16.421624755859398 -16.255113220214866 23.186474609374955 -9.490451049804676 23.186474609374955 0.079071044921875 Z"/>
</defs>

<g transform="matrix( 1, 0, 0, 1, 29.9,29.9) ">
<g transform="matrix( 1.0999755859375, 0, 0, 1.099945068359375, -586.2,-419) ">
<use xlink:href="#gfcnf43545_4_Layer1_0_FILL"/>

<use xlink:href="#gfcnf43545_4_Layer1_0_1_STROKES" transform="matrix( 0.9091033935546875, 0, 0, 0.9091339111328125, 532.9,380.9) "/>
</g>

<g transform="matrix( 1, 0, 0, 1, 0,0) ">
<use xlink:href="#gfcnf43545_4_Layer0_0_FILL"/>
</g>
</g>
</svg>
