<svg xmlns="http://www.w3.org/2000/svg" viewBox="0 0 431.07 106.81"><defs><style>.cls-1,.cls-13,.cls-14,.cls-2,.cls-3,.cls-4,.cls-5,.cls-6{fill:none;stroke-linecap:round;stroke-linejoin:round;}.cls-1,.cls-2,.cls-3,.cls-4,.cls-5,.cls-6{stroke:#e0d3e8;stroke-width:2px;}.cls-1{stroke-dasharray:2.96 2.96;}.cls-2{stroke-dasharray:3.09 3.09;}.cls-3{stroke-dasharray:2.86 2.86;}.cls-4{stroke-dasharray:2.71 2.71;}.cls-5{stroke-dasharray:3.13 3.13;}.cls-7{fill:#cbb4d6;}.cls-8{fill:#eae2f0;}.cls-9{fill:#231815;}.cls-10{fill:#ae86bb;}.cls-11{fill:#fff;}.cls-12{fill:#dcdddd;}.cls-13{stroke:#dcdddd;}.cls-13,.cls-14{stroke-width:1.2px;}.cls-14{stroke:#d0c395;}</style></defs><title>자산 2</title><g id="레이어_2" data-name="레이어 2"><g id="레이어_1-2" data-name="레이어 1"><line class="cls-1" x1="76.99" y1="70.1" x2="92.4" y2="86.05"/><line class="cls-2" x1="99.1" y1="88.17" x2="159.4" y2="88.17"/><line class="cls-3" x1="165.47" y1="85.09" x2="180.35" y2="69.67"/><line class="cls-2" x1="186.97" y1="67.62" x2="247.27" y2="67.62"/><line class="cls-4" x1="253.23" y1="70.49" x2="267.58" y2="84.84"/><line class="cls-5" x1="274.18" y1="86.75" x2="335.11" y2="86.75"/><line class="cls-3" x1="341.32" y1="83.78" x2="356.73" y2="68.9"/><path class="cls-6" d="M357.76,67.9l1-1M336.67,86.75h1.57l1-1m-70.72,0,1,1h1.56M248.82,67.62h1.54l1,1m-70,.07,1-1h1.55M160.94,88.17h1.55l1-1m-70,0,1,1.06H96M73.91,66.91l1,1.06"/><path class="cls-7" d="M47.78,87H65.36A5.63,5.63,0,0,0,71,81.35V76a8.93,8.93,0,0,0,3.57-17V39.2a.64.64,0,0,0-.64-.64h-.14a.64.64,0,0,0-.64.64V58.51A9,9,0,0,0,71,58.17V56.71a5.63,5.63,0,0,0-5.63-5.63H14.24a5.62,5.62,0,0,0-5.63,5.63v1.46a9,9,0,0,0-2.16.34V39.2a.64.64,0,0,0-.64-.64H5.67A.64.64,0,0,0,5,39.2V59.06A8.93,8.93,0,0,0,8.61,76v5.34A5.61,5.61,0,0,0,14.24,87H26.85"/><path class="cls-8" d="M17.78,54.48s-5.67,0-5.67,5.67v18s0,5.67,5.67,5.67h44s5.67,0,5.67-5.67v-18s0-5.67-5.67-5.67Z"/><path class="cls-9" d="M27.6,65.31v8c0,.36-.29.52-.63.52s-.62-.16-.62-.52v-7L24.47,67.4a.56.56,0,0,1-.78-.25.55.55,0,0,1,.18-.77l2.24-1.33a1.72,1.72,0,0,1,.84-.28C27.32,64.77,27.6,64.94,27.6,65.31Z"/><path class="cls-9" d="M35.22,65.31v8c0,.36-.28.52-.62.52s-.63-.16-.63-.52v-7L32.1,67.4a.57.57,0,0,1-.79-.25.55.55,0,0,1,.19-.77l2.24-1.33a1.66,1.66,0,0,1,.83-.28C35,64.77,35.22,64.94,35.22,65.31Z"/><path class="cls-9" d="M44.57,69v.61c0,2.77-1,4.28-3.2,4.28s-3.2-1.51-3.2-4.28V69c0-2.76.95-4.27,3.2-4.27S44.57,66.21,44.57,69Zm-5.13.1v.41c0,2.23.46,3.2,1.93,3.2s1.94-1,1.94-3.2v-.41c0-2.22-.46-3.2-1.94-3.2S39.44,66.85,39.44,69.07Z"/><path class="cls-9" d="M50.75,70.53v1.86h3.94c.29,0,.41.23.41.51s-.12.51-.41.51H45.63c-.28,0-.41-.24-.41-.51s.13-.51.41-.51h3.95V70.53a.52.52,0,0,1,.58-.5C50.47,70,50.75,70.19,50.75,70.53Zm3.17-5.2c0,.26-.13.5-.43.5H50.76v.31a2,2,0,0,0,1.13,2c.74.46,1.34.81,2.12,1.23a.49.49,0,0,1,.13.7.51.51,0,0,1-.68.26c-.74-.4-1.39-.78-2.1-1.2s-1.11-.87-1.18-1.15h0c-.08.31-.41.68-1.2,1.17s-1.34.8-2.09,1.2a.51.51,0,0,1-.68-.26c-.13-.24-.14-.58.11-.71.79-.43,1.39-.78,2.13-1.24a2,2,0,0,0,1.13-2v-.31H46.83c-.29,0-.42-.24-.42-.5s.13-.52.42-.52h6.66C53.79,64.81,53.92,65,53.92,65.33Z"/><path class="cls-10" d="M8,68.53a2.07,2.07,0,1,0-2.93,0,2.06,2.06,0,0,0,2.93,0"/><path class="cls-10" d="M74.89,68.53a2.07,2.07,0,1,0-2.93,0,2.06,2.06,0,0,0,2.93,0"/><path class="cls-7" d="M135.86,106.81h17.58a5.63,5.63,0,0,0,5.63-5.62V95.85a8.93,8.93,0,0,0,3.57-16.95V59a.64.64,0,0,0-.64-.63h-.14a.64.64,0,0,0-.64.63V78.36a9,9,0,0,0-2.15-.35V76.55a5.63,5.63,0,0,0-5.63-5.63H102.32a5.62,5.62,0,0,0-5.63,5.63V78a9,9,0,0,0-2.16.35V59a.64.64,0,0,0-.64-.63h-.14a.64.64,0,0,0-.64.63V78.9a8.93,8.93,0,0,0,3.58,16.95v5.34a5.61,5.61,0,0,0,5.63,5.62h12.61"/><path class="cls-11" d="M105.86,74.32s-5.67,0-5.67,5.67V98s0,5.67,5.67,5.67h44s5.67,0,5.67-5.67V80s0-5.67-5.67-5.67Z"/><path class="cls-10" d="M96.07,88.38a2.07,2.07,0,1,0-2.93,0,2.07,2.07,0,0,0,2.93,0"/><path class="cls-10" d="M163,88.38a2.07,2.07,0,1,0-2.93,0,2.07,2.07,0,0,0,2.93,0"/><path class="cls-7" d="M223.94,87h17.58a5.63,5.63,0,0,0,5.63-5.62V76a8.93,8.93,0,0,0,3.57-17V39.2a.64.64,0,0,0-.64-.64h-.14a.64.64,0,0,0-.64.64V58.51a9,9,0,0,0-2.15-.34V56.71a5.63,5.63,0,0,0-5.63-5.63H190.4a5.62,5.62,0,0,0-5.63,5.63v1.46a9,9,0,0,0-2.16.34V39.2a.64.64,0,0,0-.64-.64h-.14a.64.64,0,0,0-.64.64V59.06a8.93,8.93,0,0,0,3.58,17v5.34A5.61,5.61,0,0,0,190.4,87H203"/><path class="cls-11" d="M193.94,54.48s-5.67,0-5.67,5.67v18s0,5.67,5.67,5.67h44s5.67,0,5.67-5.67v-18s0-5.67-5.67-5.67Z"/><path class="cls-10" d="M184.15,68.53a2.07,2.07,0,1,0-2.93,0,2.06,2.06,0,0,0,2.93,0"/><path class="cls-10" d="M251.05,68.53a2.07,2.07,0,1,0-2.93,0,2.06,2.06,0,0,0,2.93,0"/><path class="cls-7" d="M312,106.81H329.6a5.63,5.63,0,0,0,5.63-5.62V95.85A8.93,8.93,0,0,0,338.8,78.9V59a.64.64,0,0,0-.64-.63H338a.64.64,0,0,0-.64.63V78.36a9,9,0,0,0-2.15-.35V76.55a5.63,5.63,0,0,0-5.63-5.63H278.48a5.62,5.62,0,0,0-5.63,5.63V78a9,9,0,0,0-2.16.35V59a.64.64,0,0,0-.64-.63h-.14a.64.64,0,0,0-.64.63V78.9a8.93,8.93,0,0,0,3.58,16.95v5.34a5.61,5.61,0,0,0,5.63,5.62h12.61"/><path class="cls-11" d="M282,74.32s-5.67,0-5.67,5.67V98s0,5.67,5.67,5.67h44s5.67,0,5.67-5.67V80s0-5.67-5.67-5.67Z"/><path class="cls-10" d="M272.23,88.38a2.07,2.07,0,1,0-2.93,0,2.07,2.07,0,0,0,2.93,0"/><path class="cls-10" d="M339.13,88.38a2.07,2.07,0,1,0-2.93,0,2.07,2.07,0,0,0,2.93,0"/><path class="cls-7" d="M399.26,87h17.58a5.63,5.63,0,0,0,5.63-5.62V76a8.93,8.93,0,0,0,3.57-17V39.2a.64.64,0,0,0-.64-.64h-.14a.64.64,0,0,0-.64.64V58.51a8.94,8.94,0,0,0-2.15-.34V56.71a5.63,5.63,0,0,0-5.63-5.63H365.72a5.62,5.62,0,0,0-5.63,5.63v1.46a9,9,0,0,0-2.16.34V39.2a.64.64,0,0,0-.64-.64h-.14a.64.64,0,0,0-.64.64V59.06a8.93,8.93,0,0,0,3.58,17v5.34A5.61,5.61,0,0,0,365.72,87h12.61"/><path class="cls-11" d="M369.26,54.48s-5.67,0-5.67,5.67v18s0,5.67,5.67,5.67h44s5.67,0,5.67-5.67v-18s0-5.67-5.67-5.67Z"/><path class="cls-10" d="M359.47,68.53a2.06,2.06,0,1,0-2.92,0,2.06,2.06,0,0,0,2.92,0"/><path class="cls-10" d="M426.37,68.53a2.07,2.07,0,1,0-2.93,0,2.06,2.06,0,0,0,2.93,0"/><path class="cls-12" d="M133.34,13.91V10.37c0-8.11-8.11-8.11-8.11-8.11H11.15S3,2.26,3,10.37v3.54S3,22,11.15,22H55.26v0c.27,0,.54,0,.82,0,6.36,0,9.14,2.09,10.91,7.87v.28c0-.05,0-.09.05-.14a.78.78,0,0,1,0,.14v-.28c1.77-5.78,5-7.87,11.35-7.87l2,0-1.15,0h46c8.11,0,8.11-8.11,8.11-8.11"/><path class="cls-13" d="M133.34,13.91V10.37c0-8.11-8.11-8.11-8.11-8.11H11.15S3,2.26,3,10.37v3.54S3,22,11.15,22H55.26v0c.27,0,.54,0,.82,0,6.36,0,9.14,2.09,10.91,7.87v.28c0-.05,0-.09.05-.14a.78.78,0,0,1,0,.14v-.28c1.77-5.78,5-7.87,11.35-7.87l2,0-1.15,0h46C133.34,22,133.34,13.91,133.34,13.91Z"/><path class="cls-11" d="M131.1,12.25V8.71C131.1.6,123,.6,123,.6H8.92S.81.6.81,8.71v3.54s0,8.11,8.11,8.11H53v0c.27,0,.54,0,.82,0,6.36,0,10.29,2.09,12.05,7.87v.27l.06-.13a.69.69,0,0,0,.05.13v-.27c1.76-5.78,5-7.87,11.34-7.87.28,0,.55,0,.83,0v0H123c8.11,0,8.11-8.11,8.11-8.11"/><path class="cls-14" d="M131.1,12.25V8.71C131.1.6,123,.6,123,.6H8.92S.81.6.81,8.71v3.54s0,8.11,8.11,8.11H53v0c.27,0,.54,0,.82,0,6.36,0,10.29,2.09,12.05,7.87v.27l.06-.13a.69.69,0,0,0,.05.13v-.27c1.76-5.78,5-7.87,11.34-7.87.28,0,.55,0,.83,0v0H123C131.1,20.36,131.1,12.25,131.1,12.25Z"/><path class="cls-9" d="M33.18,5.82c0,.3-.12.54-.44.54H29.36l-.15,2.76A2.9,2.9,0,0,1,31,8.54a2.57,2.57,0,0,1,2.7,2.73v.13a2.83,2.83,0,0,1-3.14,2.9,4.82,4.82,0,0,1-2.7-.72.56.56,0,0,1-.16-.81.5.5,0,0,1,.76-.19,3.79,3.79,0,0,0,2.09.59,1.7,1.7,0,0,0,1.9-1.78V11.3a1.59,1.59,0,0,0-1.81-1.73,2.38,2.38,0,0,0-1.59.58.77.77,0,0,1-.58.24c-.31,0-.53-.16-.52-.44l.21-3.71c0-.76.24-1,1-1h3.61C33.06,5.28,33.18,5.53,33.18,5.82Z"/><path class="cls-9" d="M40.17,11v1.86h3.95c.28,0,.41.23.41.5s-.13.52-.41.52H35.06c-.29,0-.41-.24-.41-.52s.12-.5.41-.5H39V11c0-.35.28-.5.59-.5S40.17,10.63,40.17,11Zm3.17-5.21c0,.27-.13.51-.42.51H40.19v.31a2,2,0,0,0,1.13,2c.74.45,1.34.8,2.11,1.22a.5.5,0,0,1,.13.71.51.51,0,0,1-.68.25c-.74-.39-1.39-.78-2.09-1.2S39.67,8.69,39.6,8.4h0c-.09.31-.42.68-1.2,1.18s-1.34.8-2.1,1.2a.51.51,0,0,1-.68-.27.51.51,0,0,1,.12-.71c.79-.43,1.39-.78,2.13-1.23a2,2,0,0,0,1.13-2V6.28H36.26c-.3,0-.43-.24-.43-.51s.13-.51.43-.51h6.66C43.21,5.26,43.34,5.49,43.34,5.77Z"/><path class="cls-9" d="M47.78,5.44v1a3.38,3.38,0,0,0,.31,1.72,7,7,0,0,0,.44.73c.16.2.25.2.42,0s.28-.44.44-.73a3.4,3.4,0,0,0,.3-1.72v-1a.56.56,0,0,1,1.1,0v1a2.89,2.89,0,0,0,.59,2c.27.33.52.62.86,1a.53.53,0,0,1,0,.73.48.48,0,0,1-.72,0,11.53,11.53,0,0,1-.77-.88,2.43,2.43,0,0,1-.48-.88h0a2.61,2.61,0,0,1-.44.91,9.65,9.65,0,0,1-.67.85.47.47,0,0,1-.77,0c-.23-.27-.44-.54-.66-.85a2.68,2.68,0,0,1-.45-.91h0a2.23,2.23,0,0,1-.48.91c-.27.32-.52.6-.83.91a.48.48,0,0,1-.71,0,.52.52,0,0,1,0-.73c.37-.38.64-.7.92-1a2.82,2.82,0,0,0,.59-2v-1A.5.5,0,0,1,47.24,5,.49.49,0,0,1,47.78,5.44Zm6.38,7v2.75c0,.35-.28.5-.59.5s-.59-.15-.59-.5V12.81c0-.18-.07-.23-.24-.23H47.17c-.29,0-.42-.25-.42-.52s.13-.52.42-.52h6.08C53.93,11.54,54.16,11.76,54.16,12.44Zm0-7.42v5.52a.51.51,0,0,1-.57.49.49.49,0,0,1-.54-.49V5a.49.49,0,0,1,.54-.48C53.89,4.54,54.16,4.7,54.16,5Z"/><path class="cls-9" d="M65.41,10.7c0,.28-.08.52-.35.54-.85.09-1.77.15-2.73.2v2.84c0,.35-.28.5-.58.5a.52.52,0,0,1-.58-.5V11.47c-.86,0-1.75,0-2.65,0-.28,0-.41-.24-.41-.51s.13-.5.41-.5c2.19,0,4.28,0,6.46-.24C65.25,10.24,65.4,10.43,65.41,10.7Zm-4-5c0,.28-.13.51-.4.51H60c-.17,0-.24.07-.24.25V8c0,.19.07.25.24.25a5.74,5.74,0,0,0,1.19-.1.42.42,0,0,1,.46.42c0,.29-.07.52-.33.57a10.45,10.45,0,0,1-1.78.13c-.68,0-.9-.22-.9-.9V6.11c0-.68.22-.9.9-.9H61C61.24,5.21,61.37,5.44,61.37,5.71Zm3.34,0c0,.28-.13.51-.4.51h-1c-.19,0-.25.07-.25.25V8c0,.19.06.25.25.25h1.15c.27,0,.4.24.4.5s-.13.52-.4.52H62.84c-.69,0-.9-.22-.9-.9V6.11c0-.68.21-.9.9-.9h1.47C64.58,5.21,64.71,5.44,64.71,5.71ZM67.17,5v9.38a.51.51,0,0,1-.58.49c-.3,0-.57-.15-.57-.49V5a.51.51,0,0,1,.57-.49A.52.52,0,0,1,67.17,5Z"/><path class="cls-9" d="M77.27,5V14.4c0,.35-.29.5-.59.5s-.58-.15-.58-.5V9.24h-2c-.13,2-1,3.07-2.71,3.07s-2.71-1.25-2.71-3.57.91-3.58,2.71-3.58S74,6.23,74.09,8.22h2V5a.52.52,0,0,1,.58-.5A.52.52,0,0,1,77.27,5Zm-7.46,3.7c0,1.63.45,2.52,1.57,2.52S73,10.37,73,8.74s-.44-2.52-1.59-2.52S69.81,7.11,69.81,8.74Z"/><path class="cls-9" d="M84.56,5.68V7.51a3.14,3.14,0,0,0,.72,2.27c.4.5.83,1,1.15,1.32a.55.55,0,0,1-.06.76.52.52,0,0,1-.73,0c-.24-.25-.6-.66-1-1.09A2.7,2.7,0,0,1,84,9.56h0a2.67,2.67,0,0,1-.71,1.24c-.35.42-.73.85-1.1,1.25a.53.53,0,0,1-.75,0,.54.54,0,0,1,0-.78c.44-.49.88-1,1.29-1.49a3.19,3.19,0,0,0,.72-2.27V5.68a.6.6,0,0,1,1.18,0Zm3.82-.55v8.8a.49.49,0,0,1-.54.47.5.5,0,0,1-.56-.47V8.79H86.11c-.28,0-.41-.23-.41-.52s.13-.52.41-.52h1.17V5.13c0-.33.28-.47.56-.47A.48.48,0,0,1,88.38,5.13ZM90.5,5v9.42c0,.33-.27.47-.56.47a.48.48,0,0,1-.54-.47V5a.48.48,0,0,1,.54-.47C90.23,4.54,90.5,4.68,90.5,5Z"/><path class="cls-9" d="M97.17,6.25V7.61c0,2-.57,2.66-4.18,4.92a.55.55,0,0,1-.72-.21.54.54,0,0,1,.09-.75C95.69,9.5,96,9.11,96,7.56V6.64c0-.18-.06-.24-.25-.24H92.69c-.29,0-.42-.24-.42-.52s.13-.53.42-.53h3.58C97,5.35,97.17,5.57,97.17,6.25ZM100.52,5V14.4c0,.35-.29.5-.6.5s-.59-.15-.59-.5V5a.52.52,0,0,1,.59-.5C100.23,4.54,100.52,4.7,100.52,5Z"/></g></g></svg>