
<svg xmlns="http://www.w3.org/2000/svg" version="1.1" xmlns:xlink="http://www.w3.org/1999/xlink" preserveAspectRatio="none" x="0px" y="0px" width="1280px" height="70px" viewBox="0 0 1280 70">
<defs>
<g id="Layer0_0_FILL">
<path fill="#FFFFFF" stroke="none" d="
M 1121.75 20
Q 1121.75 5 1106.75 5
L 976.75 5
Q 961.75 5 961.75 20
L 961.75 50.05
Q 961.75 65.05 976.75 65.05
L 1106.75 65.05
Q 1121.75 65.05 1121.75 50.05
L 1121.75 20 Z"/>

<path fill="#1E1E1E" stroke="none" d="
M 1143.55 43.2
Q 1143.55 42.95 1143.4 42.8 1143.2 42.6 1142.95 42.6
L 1139.5 42.6
Q 1139.3 42.6 1139.15 42.8 1138.95 43 1138.95 43.2
L 1138.95 51.6
Q 1138.95 53.15 1139.55 53.8 1140.2 54.45 1142.05 54.45
L 1163.2 54.45
Q 1163.7 54.45 1163.7 53.95
L 1163.7 51.1
Q 1163.7 50.95 1163.55 50.75 1163.35 50.6 1163.15 50.6
L 1144.3 50.6
Q 1143.9 50.6 1143.75 50.5 1143.55 50.35 1143.55 49.95
L 1143.55 43.2
M 1138.6 19.5
Q 1138.6 19.35 1138.4 19.15 1138.2 18.95 1138 18.95
L 1134.55 18.95
Q 1134.35 18.95 1134.2 19.15 1134 19.35 1134 19.5
L 1134 36.1
Q 1134 37.3 1134.6 38.15 1135.25 38.95 1136.85 39.05 1138.6 39.1 1140.7 39.1 1142.85 39.05 1145.1 39 1147.3 38.9 1149.4 38.65 1151.5 38.45 1153.15 38.1 1153.35 38.05 1153.5 37.9 1153.65 37.75 1153.65 37.45
L 1153.25 35.15
Q 1153.2 34.9 1153.05 34.75 1152.85 34.6 1152.55 34.7 1151.05 34.9 1149.3 35.05 1147.55 35.2 1145.75 35.3 1144 35.35 1142.3 35.4 1140.6 35.4 1139.3 35.35 1138.9 35.35 1138.75 35.25 1138.6 35.15 1138.6 34.7
L 1138.6 19.5
M 1157.9 17.7
L 1157.9 21.6 1148.8 21.6
Q 1148.6 21.6 1148.4 21.75 1148.2 21.9 1148.2 22.1
L 1148.2 24.7
Q 1148.2 24.9 1148.4 25.05 1148.6 25.2 1148.8 25.2
L 1157.9 25.2 1157.9 28.45 1148.8 28.45
Q 1148.6 28.45 1148.4 28.6 1148.2 28.75 1148.2 28.95
L 1148.2 31.55
Q 1148.2 31.75 1148.4 31.9 1148.6 32.05 1148.8 32.05
L 1157.9 32.05 1157.9 43.6
Q 1157.9 43.8 1158.1 43.95 1158.25 44.1 1158.5 44.1
L 1162 44.1
Q 1162.55 44.1 1162.55 43.6
L 1162.55 17.7
Q 1162.55 17.15 1162 17.15
L 1158.5 17.15
Q 1158.25 17.15 1158.1 17.3 1157.9 17.45 1157.9 17.7 Z"/>
</g>

<path id="Layer0_0_1_STROKES" stroke="#DBDBDB" stroke-width="3" stroke-linejoin="round" stroke-linecap="round" fill="none" d="
M 976.75 5
L 1106.75 5
Q 1121.75 5 1121.75 20
L 1121.75 50.05
Q 1121.75 65.05 1106.75 65.05
L 976.75 65.05
Q 961.75 65.05 961.75 50.05
L 961.75 20
Q 961.75 5 976.75 5 Z"/>
</defs>

<g transform="matrix( 1, 0, 0, 1, 0,0) ">
<use xlink:href="#Layer0_0_FILL"/>

<use xlink:href="#Layer0_0_1_STROKES"/>
</g>
</svg>
