<?xml version="1.0" encoding="utf-8"?>
<!-- Generator: Adobe Illustrator 23.0.0, SVG Export Plug-In . SVG Version: 6.00 Build 0)  -->
<svg version="1.1" id="Layer_1" xmlns="http://www.w3.org/2000/svg" xmlns:xlink="http://www.w3.org/1999/xlink" x="0px" y="0px"
	 width="229.4px" height="117.8px" viewBox="0 0 229.4 117.8" style="enable-background:new 0 0 229.4 117.8;" xml:space="preserve"
	>
<g>
	<title>자산 1</title>
	<path style="fill:none;stroke:#000000;stroke-width:0.6504;stroke-dasharray:3.9032,2.6022;" d="M0.3,117.1
		c0,0,141.6,13.1,228.8-116.9"/>
	<rect x="117.9" y="70.4" style="fill:#FFFFFF;" width="64" height="27.4"/>
	<line style="fill:none;stroke:#EE5367;stroke-width:1.5263;" x1="0.3" y1="115" x2="228.5" y2="1.4"/>
	<g>
		<path d="M126.7,67.6c1.2,0,2.2,0.1,3.1,0.4c0.9,0.3,1.6,0.7,2.2,1.2c0.6,0.5,1,1.1,1.3,1.8c0.3,0.7,0.4,1.4,0.4,2.1v0.2
			c0,0.5-0.1,1.1-0.2,1.6s-0.4,1-0.7,1.5c-0.3,0.5-0.7,0.9-1.2,1.2c-0.5,0.4-1,0.6-1.7,0.8c0.7,0.1,1.3,0.3,1.8,0.5s1.1,0.6,1.5,1
			c0.4,0.4,0.8,0.9,1,1.5c0.2,0.6,0.4,1.2,0.4,2v0.3c0,0.8-0.2,1.6-0.5,2.4c-0.3,0.8-0.8,1.5-1.4,2c-0.6,0.6-1.5,1-2.4,1.4
			c-1,0.3-2.1,0.5-3.4,0.5c-2.5,0-4.6-0.6-6.3-1.8c-0.4-0.2-0.6-0.6-0.7-0.9s0-0.7,0.2-1.1c0.2-0.4,0.5-0.6,0.8-0.7s0.7,0,1.1,0.2
			c0.8,0.5,1.5,0.9,2.2,1.1c0.7,0.2,1.5,0.4,2.4,0.4c0.9,0,1.6-0.1,2.2-0.3c0.6-0.2,1.1-0.5,1.5-0.8c0.4-0.3,0.7-0.7,0.8-1.2
			c0.2-0.5,0.3-0.9,0.3-1.4v-0.2c0-0.7-0.1-1.2-0.4-1.7c-0.2-0.5-0.6-0.8-1-1.1s-0.9-0.5-1.5-0.6s-1.2-0.2-1.9-0.2h-1.8
			c-0.4,0-0.7-0.1-0.8-0.4c-0.2-0.3-0.3-0.6-0.3-1s0.1-0.7,0.3-0.9s0.5-0.4,0.8-0.4h1.5c1.2,0,2.3-0.3,3.1-0.9
			c0.8-0.6,1.2-1.5,1.2-2.8v-0.1c0-0.9-0.3-1.7-1-2.3c-0.7-0.6-1.7-0.9-3-0.9c-0.9,0-1.6,0.2-2.2,0.5s-1.2,0.8-1.7,1.4
			c-0.3,0.3-0.6,0.4-1,0.4c-0.4,0-0.7-0.2-0.9-0.5c-0.3-0.3-0.4-0.6-0.4-0.9c0-0.3,0.1-0.6,0.4-0.9c0.6-0.7,1.4-1.3,2.4-1.8
			C124.2,67.9,125.4,67.6,126.7,67.6z"/>
		<path d="M153.2,73.3c1.2,0,2.2,0.1,3,0.4c0.8,0.3,1.5,0.6,2.1,1c0.3,0.2,0.5,0.5,0.6,0.9c0.1,0.3,0,0.7-0.3,1
			c-0.2,0.3-0.5,0.5-0.8,0.6c-0.3,0.1-0.6,0-0.9-0.2c-0.5-0.3-1.1-0.5-1.7-0.7c-0.6-0.2-1.3-0.2-2-0.2c-1.4,0-2.4,0.4-3.1,1.3
			c-0.7,0.8-1.1,2.2-1.1,4v0.9c0,1.8,0.4,3.1,1.2,3.9c0.8,0.9,1.8,1.3,3.2,1.3c1.6,0,2.9-0.3,4-1c0.3-0.2,0.7-0.3,1-0.2
			c0.3,0.1,0.6,0.3,0.7,0.6c0.2,0.3,0.3,0.7,0.2,1c0,0.3-0.2,0.6-0.6,0.9c-0.6,0.4-1.4,0.7-2.3,1c-0.9,0.3-2,0.4-3.1,0.4
			c-2.3,0-4.1-0.6-5.4-2c-1.3-1.3-2-3.3-2-5.9v-1c0-2.6,0.6-4.6,1.9-5.9C149.1,74,150.9,73.3,153.2,73.3z"/>
		<path d="M170.4,73.3c1.2,0,2.2,0.3,3,0.8c0.8,0.5,1.4,1.2,1.6,2c0.5-0.9,1.2-1.5,2.1-2c0.8-0.5,1.9-0.8,3.2-0.8
			c1.7,0,3.1,0.5,4.1,1.6c1,1.1,1.5,2.6,1.5,4.5v9.3c0,0.4-0.2,0.7-0.5,1c-0.3,0.2-0.7,0.3-1,0.3c-0.4,0-0.7-0.1-1-0.3
			c-0.3-0.2-0.5-0.5-0.5-1V80c0-1.5-0.3-2.5-0.9-3.1c-0.6-0.6-1.4-0.9-2.5-0.9c-1.1,0-1.9,0.3-2.6,1c-0.7,0.7-1,1.6-1,2.8v8.8
			c0,0.4-0.1,0.7-0.4,1c-0.3,0.2-0.6,0.3-1.1,0.3c-0.4,0-0.7-0.1-1-0.3c-0.3-0.2-0.5-0.5-0.5-1V80c0-1.4-0.3-2.4-0.9-3.1
			c-0.6-0.6-1.4-0.9-2.5-0.9c-0.6,0-1.1,0.1-1.6,0.3c-0.5,0.2-0.8,0.5-1.1,0.8c-0.3,0.3-0.5,0.7-0.7,1.2s-0.2,0.9-0.2,1.5v8.9
			c0,0.4-0.2,0.7-0.5,1c-0.3,0.2-0.7,0.3-1.1,0.3c-0.4,0-0.7-0.1-1-0.3c-0.3-0.2-0.5-0.5-0.5-1V74.7c0-0.4,0.1-0.7,0.4-0.9
			c0.3-0.2,0.6-0.3,1-0.3c0.4,0,0.7,0.1,1,0.3s0.4,0.5,0.4,0.9V76c0.4-0.8,1-1.4,1.8-1.9C168.3,73.6,169.2,73.3,170.4,73.3z"/>
	</g>
</g>
</svg>
