<?xml version="1.0" encoding="utf-8"?>
<!-- Generator: Adobe Illustrator 23.0.0, SVG Export Plug-In . SVG Version: 6.00 Build 0)  -->
<svg version="1.1" id="Layer_1" xmlns="http://www.w3.org/2000/svg" xmlns:xlink="http://www.w3.org/1999/xlink" x="0px" y="0px"
	 width="162.5px" height="124.1px" viewBox="0 0 162.5 124.1" style="enable-background:new 0 0 162.5 124.1;" xml:space="preserve"
	>
<title>자산 2</title>
<g>
	<g>
		<line style="fill:none;stroke:#231815;stroke-width:0.8;stroke-linejoin:round;" x1="0.4" y1="124" x2="36.9" y2="0.1"/>
	</g>
	<g>
		<line style="fill:none;stroke:#E4007F;stroke-width:0.8832;" x1="23.8" y1="43.7" x2="139.2" y2="77.7"/>
	</g>
	<g>
		<line style="fill:none;stroke:#00A0E9;stroke-width:0.8;stroke-linejoin:round;" x1="125.5" y1="124" x2="162.1" y2="0.1"/>
	</g>
	<path style="fill:none;stroke:#000000;stroke-width:0.2588;stroke-dasharray:1.5527,1.0351;" d="M23.8,43.7c0,0,46.2,39.3,115.3,34
		"/>
	<rect x="64.7" y="66.5" style="fill:#FFFFFF;" width="21.5" height="9.2"/>
	<g>
		<path d="M69.5,67.2c0.1,0.1,0.2,0.1,0.2,0.2s0,0.2-0.1,0.3l-2.5,3.7h2.2v-1.6c0-0.1,0-0.2,0.1-0.3s0.2-0.1,0.3-0.1s0.2,0,0.3,0.1
			s0.1,0.2,0.1,0.3v1.6h0.7c0.1,0,0.2,0,0.2,0.1s0.1,0.2,0.1,0.3s0,0.2-0.1,0.3c0,0.1-0.1,0.1-0.2,0.1h-0.7v1c0,0.1,0,0.2-0.1,0.3
			s-0.2,0.1-0.3,0.1s-0.2,0-0.3-0.1s-0.1-0.2-0.1-0.3v-1h-2.7c-0.2,0-0.4,0-0.5-0.1S66,71.9,66,71.8s0-0.1,0-0.2s0.1-0.2,0.2-0.3
			l2.7-3.9c0.1-0.1,0.2-0.2,0.3-0.2C69.3,67.1,69.4,67.1,69.5,67.2z"/>
		<path d="M76.1,68.7c0.3,0,0.6,0,0.9,0.1c0.2,0.1,0.5,0.2,0.6,0.3s0.2,0.1,0.2,0.3c0,0.1,0,0.2-0.1,0.3s-0.1,0.1-0.2,0.2
			c-0.1,0-0.2,0-0.3,0c-0.2-0.1-0.3-0.2-0.5-0.2s-0.4-0.1-0.6-0.1c-0.4,0-0.7,0.1-0.9,0.4c-0.2,0.3-0.3,0.6-0.3,1.2v0.3
			c0,0.5,0.1,0.9,0.3,1.2c0.2,0.3,0.5,0.4,0.9,0.4c0.5,0,0.9-0.1,1.2-0.3c0.1-0.1,0.2-0.1,0.3-0.1s0.2,0.1,0.2,0.2
			c0.1,0.1,0.1,0.2,0.1,0.3s-0.1,0.2-0.2,0.3c-0.2,0.1-0.4,0.2-0.7,0.3c-0.3,0.1-0.6,0.1-0.9,0.1c-0.7,0-1.2-0.2-1.6-0.6
			s-0.6-1-0.6-1.7v-0.3c0-0.8,0.2-1.4,0.6-1.7C74.9,68.9,75.4,68.7,76.1,68.7z"/>
		<path d="M81.1,68.7c0.3,0,0.6,0.1,0.9,0.2c0.2,0.2,0.4,0.3,0.5,0.6c0.2-0.3,0.4-0.5,0.6-0.6s0.6-0.2,0.9-0.2
			c0.5,0,0.9,0.2,1.2,0.5c0.3,0.3,0.4,0.8,0.4,1.3v2.7c0,0.1,0,0.2-0.1,0.3s-0.2,0.1-0.3,0.1s-0.2,0-0.3-0.1
			c-0.1-0.1-0.1-0.2-0.1-0.3v-2.5c0-0.4-0.1-0.7-0.3-0.9c-0.2-0.2-0.4-0.3-0.7-0.3c-0.3,0-0.6,0.1-0.8,0.3c-0.2,0.2-0.3,0.5-0.3,0.8
			v2.6c0,0.1,0,0.2-0.1,0.3s-0.2,0.1-0.3,0.1c-0.1,0-0.2,0-0.3-0.1c-0.1-0.1-0.1-0.2-0.1-0.3v-2.5c0-0.4-0.1-0.7-0.3-0.9
			c-0.2-0.2-0.4-0.3-0.7-0.3c-0.2,0-0.3,0-0.5,0.1c-0.1,0.1-0.2,0.1-0.3,0.2c-0.2,0.1-0.2,0.2-0.3,0.4c-0.1,0.2-0.1,0.3-0.1,0.4v2.6
			c0,0.1,0,0.2-0.1,0.3s-0.2,0.1-0.3,0.1c-0.1,0-0.2,0-0.3-0.1c-0.1-0.1-0.1-0.2-0.1-0.3v-4.1c0-0.1,0-0.2,0.1-0.3s0.2-0.1,0.3-0.1
			c0.1,0,0.2,0,0.3,0.1c0.1,0.1,0.1,0.1,0.1,0.3v0.4c0.1-0.2,0.3-0.4,0.5-0.6C80.5,68.8,80.8,68.7,81.1,68.7z"/>
	</g>
</g>
</svg>
