
<svg xmlns="http://www.w3.org/2000/svg" version="1.1" xmlns:xlink="http://www.w3.org/1999/xlink" preserveAspectRatio="none" x="0px" y="0px" width="1280px" height="720px" viewBox="0 0 1280 720">
<defs>
<g id="Layer0_0_FILL">
<path fill="#FFFFFF" stroke="none" d="
M 687 374.45
Q 672 374.45 672 389.45
L 672 419.5
Q 672 434.5 687 434.5
L 857 434.5
Q 872 434.5 872 419.5
L 872 389.45
Q 872 374.45 857 374.45
L 687 374.45 Z"/>

<path fill="#1E1E1E" stroke="none" d="
M 992.75 418.2
Q 992.75 419.5 993.65 420.4 994.55 421.3 995.85 421.3 997.1 421.3 998 420.4 998.85 419.5 998.85 418.2 998.85 416.9 998 416.05 997.1 415.15 995.85 415.15 994.55 415.15 993.65 416.05 992.75 416.9 992.75 418.2
M 984.2 385.55
Q 984.2 385 983.65 385
L 980.1 385
Q 979.6 385 979.6 385.55
L 979.6 422.45
Q 979.6 423 980.1 423
L 983.65 423
Q 984.2 423 984.2 422.45
L 984.2 403.5 989.6 403.5
Q 989.8 403.5 990 403.35 990.2 403.15 990.2 402.95
L 990.2 400.15
Q 990.2 399.95 990 399.8 989.8 399.65 989.6 399.65
L 984.2 399.65 984.2 385.55
M 973.5 391.85
Q 974.05 391.85 974.05 391.35
L 974.05 388.55
Q 974.05 388 973.5 388
L 958.95 388
Q 957.45 388 956.9 388.55 956.3 389.15 956.3 390.55
L 956.3 409.5
Q 956.3 410.95 957 411.5 957.7 412.1 959.2 412.2 960.85 412.3 963.25 412.2 965.65 412.15 968.2 411.9 970.75 411.7 973.1 411.35 975.5 410.95 977.1 410.5 977.3 410.4 977.5 410.25 977.65 410.15 977.6 409.7
L 977.15 407.35
Q 977 406.75 976.4 406.9 974.6 407.2 972.65 407.5 970.6 407.75 968.7 407.95 966.8 408.15 965.05 408.2 963.35 408.3 962.1 408.15 961.35 408.1 961.1 407.9 960.9 407.7 960.9 407.1
L 960.9 392.55
Q 960.9 391.85 961.6 391.85
L 973.5 391.85
M 949.25 385.55
Q 949.25 385 948.75 385
L 945.2 385
Q 944.65 385 944.65 385.55
L 944.65 422.45
Q 944.65 423 945.2 423
L 948.75 423
Q 949.25 423 949.25 422.45
L 949.25 385.55
M 925.2 387.9
Q 925.2 387.7 925 387.5 924.8 387.35 924.6 387.35
L 921.15 387.35
Q 920.95 387.35 920.75 387.5 920.6 387.7 920.6 387.9
L 920.6 408.75
Q 920.6 410.1 921.25 410.9 921.95 411.7 923.5 411.75 925.7 411.9 928.1 411.85 930.55 411.75 932.9 411.6 935.25 411.4 937.45 411.1 939.65 410.75 941.4 410.3 941.75 410.2 941.95 409.95 942.2 409.75 942.1 409.45
L 941.6 407.25
Q 941.55 406.95 941.35 406.75 941.2 406.55 940.75 406.6 936.65 407.45 932.9 407.75 929.15 408.05 925.95 407.85 925.5 407.8 925.35 407.7 925.2 407.6 925.2 407.2
L 925.2 387.9
M 912.3 419.7
L 912.3 407.55
Q 912.3 407.35 912.15 407.2 912 407.05 911.8 407.05
L 908.2 407.05
Q 908 407.05 907.85 407.2 907.7 407.35 907.7 407.55
L 907.7 411.4 893.6 411.4 893.6 407.7
Q 893.6 407.55 893.4 407.4 893.2 407.25 893 407.25
L 889.5 407.25
Q 889.3 407.25 889.15 407.4 889 407.55 889 407.7
L 889 419.6
Q 889 421.15 889.6 421.75 890.25 422.35 892 422.35
L 909.3 422.35
Q 911.05 422.35 911.65 421.7 912.3 421.05 912.3 419.7
M 894.3 418.6
Q 893.6 418.6 893.6 417.95
L 893.6 415.15 907.7 415.15 907.7 417.95
Q 907.7 418.6 907 418.6
L 894.3 418.6
M 908.2 385
Q 907.7 385 907.7 385.55
L 907.7 404.65
Q 907.7 405.2 908.2 405.2
L 911.8 405.2
Q 912.3 405.2 912.3 404.65
L 912.3 385.55
Q 912.3 385 911.8 385
L 908.2 385
M 888.45 386.85
Q 886.65 387.55 885.4 388.8 884.15 390.05 883.45 391.7 882.8 393.35 882.8 395.15 882.8 396.9 883.45 398.5 884.15 400.15 885.4 401.4 886.65 402.6 888.45 403.35 890.25 404.1 892.4 404.1 894.55 404.1 896.3 403.35 898.1 402.6 899.35 401.4 900.6 400.15 901.3 398.5 902 396.9 902 395.15 902 393.35 901.3 391.7 900.6 390.05 899.35 388.8 898.1 387.55 896.3 386.85 894.55 386.1 892.4 386.1 890.25 386.1 888.45 386.85
M 887.2 395.15
Q 887.2 394.1 887.55 393.15 887.95 392.2 888.65 391.45 889.3 390.75 890.25 390.3 891.2 389.85 892.4 389.85 893.55 389.85 894.5 390.3 895.45 390.75 896.15 391.45 896.85 392.2 897.25 393.15 897.65 394.1 897.65 395.15 897.65 396.15 897.25 397.1 896.85 398.05 896.15 398.8 895.45 399.5 894.5 399.9 893.55 400.3 892.4 400.3 891.2 400.3 890.25 399.9 889.3 399.5 888.65 398.8 887.95 398.05 887.55 397.1 887.2 396.15 887.2 395.15
M 655.3 418.6
Q 655.1 418.45 654.9 418.45
L 636.4 418.45
Q 636 418.45 635.8 418.35 635.65 418.2 635.65 417.8
L 635.65 411.2
Q 635.65 411 635.5 410.8 635.3 410.6 635 410.6
L 631.6 410.6
Q 631.4 410.6 631.2 410.8 631.05 411 631.05 411.2
L 631.05 419.45
Q 631.05 421 631.65 421.65 632.3 422.3 634.1 422.3
L 654.9 422.3
Q 655.1 422.3 655.3 422.2 655.45 422.05 655.45 421.8
L 655.45 418.95
Q 655.45 418.8 655.3 418.6
M 654.3 385.55
Q 654.3 385 653.8 385
L 650.25 385
Q 649.7 385 649.7 385.55
L 649.7 391.4 642.9 391.4 642.9 389.85
Q 642.9 388.25 642.3 387.7 641.65 387.2 640.15 387.2
L 628.05 387.2
Q 626.55 387.2 625.95 387.75 625.3 388.35 625.3 389.85
L 625.3 403.65
Q 625.3 405.2 625.95 405.8 626.55 406.4 628.25 406.4
L 640.15 406.4
Q 641.65 406.4 642.3 405.8 642.9 405.2 642.9 403.65
L 642.9 402.9 649.7 402.9 649.7 411.85
Q 649.7 412.35 650.25 412.35
L 653.8 412.35
Q 654.3 412.35 654.3 411.85
L 654.3 385.55
M 649.7 395.05
L 649.7 399.2 642.9 399.2 642.9 395.05 649.7 395.05
M 630.35 390.85
L 637.85 390.85
Q 638.2 390.85 638.25 390.95 638.4 391.05 638.4 391.4
L 638.4 402.2
Q 638.4 402.6 638.25 402.7 638.2 402.75 637.85 402.75
L 630.35 402.75
Q 630 402.75 629.9 402.7 629.8 402.6 629.8 402.2
L 629.8 391.35
Q 629.8 391 629.9 390.95 630 390.85 630.35 390.85
M 617.65 385.55
Q 617.65 385 617.15 385
L 613.6 385
Q 613.05 385 613.05 385.55
L 613.05 422.45
Q 613.05 423 613.6 423
L 617.15 423
Q 617.65 423 617.65 422.45
L 617.65 385.55
M 593.8 388.35
Q 591.95 389.3 590.7 391 589.45 392.7 588.75 395.15 588.05 397.55 588.05 400.6 588.05 403.5 588.75 405.95 589.45 408.35 590.7 410.1 591.95 411.85 593.8 412.8 595.6 413.8 597.9 413.8 600.25 413.8 602.05 412.8 603.85 411.9 605.15 410.15 606.4 408.45 607.05 406 607.75 403.55 607.75 400.6 607.75 397.55 607.05 395.15 606.4 392.7 605.15 391 603.85 389.3 602.05 388.35 600.25 387.4 597.9 387.4 595.6 387.4 593.8 388.35
M 594 394.15
Q 594.65 392.95 595.65 392.2 596.6 391.5 597.9 391.5 599.15 391.5 600.15 392.2 601.15 392.95 601.85 394.15 602.5 395.4 602.85 397.1 603.2 398.75 603.2 400.6 603.2 402.35 602.85 404.05 602.5 405.7 601.85 406.95 601.15 408.2 600.15 408.95 599.15 409.7 597.9 409.7 596.6 409.7 595.65 408.95 594.65 408.2 594 406.95 593.3 405.7 592.95 404.05 592.55 402.35 592.55 400.6 592.55 398.75 592.95 397.1 593.3 395.4 594 394.15
M 478.65 551.9
Q 479.45 551.9 479.65 552.2 479.85 552.5 479.8 553.35 479.75 555.3 478.9 557.65 478.05 559.95 476.5 562.25 475 564.5 472.8 566.65 470.6 568.8 467.9 570.45 467.7 570.6 467.55 570.9 467.4 571.2 467.65 571.55
L 469.25 573.8
Q 469.45 574.05 469.8 574 470.1 573.95 470.45 573.8 473.55 571.75 476.15 569.25 478.7 566.75 480.5 563.85 482.3 560.95 483.3 557.7 484.3 554.5 484.35 551 484.4 549.45 483.8 548.8 483.15 548.15 481.4 548.15
L 469.8 548.15
Q 469.6 548.15 469.4 548.3 469.2 548.45 469.2 548.65
L 469.2 551.4
Q 469.2 551.9 469.8 551.9
L 478.65 551.9
M 500.45 545.55
Q 500.45 545 499.9 545
L 496.45 545
Q 495.9 545 495.9 545.55
L 495.9 559.7 492.2 559.7 492.2 546.25
Q 492.2 545.75 491.65 545.75
L 488.4 545.75
Q 487.85 545.75 487.85 546.25
L 487.85 580.95
Q 487.85 581.5 488.4 581.5
L 491.65 581.5
Q 492.2 581.5 492.2 580.95
L 492.2 563.55 495.9 563.55 495.9 582.45
Q 495.9 583 496.4 583
L 499.9 583
Q 500.45 583 500.45 582.45
L 500.45 545.55
M 444 567.55
Q 443.85 567.7 443.7 568 443.5 568.3 443.5 568.55
L 443.5 571.55
Q 443.5 571.85 443.65 571.9 443.8 572 444.15 572
L 456.95 572 456.95 578.1
Q 456.95 578.5 457.1 578.65 457.25 578.8 457.7 578.8
L 460.6 578.8
Q 461 578.8 461.1 578.65 461.25 578.55 461.25 578.1
L 461.25 572 464.95 572
Q 465.3 572 465.45 571.9 465.6 571.8 465.6 571.4
L 465.6 568.5
Q 465.6 568.1 465.45 568 465.3 567.9 464.95 567.9
L 461.25 567.9 461.25 549
Q 461.25 548.65 461.2 548.55 461.15 548.4 460.85 548.4
L 457.2 548.4
Q 456.8 548.4 456.7 548.5 456.6 548.6 456.4 548.95
L 444 567.55
M 448.35 567.9
L 456.95 554.85 456.95 567.9 448.35 567.9
M 428.6 545.55
Q 428.6 545 428.1 545
L 424.55 545
Q 424 545 424 545.55
L 424 582.45
Q 424 583 424.55 583
L 428.1 583
Q 428.6 583 428.6 582.45
L 428.6 545.55
M 401.65 551
Q 400.4 552.7 399.7 555.15 399 557.55 399 560.6 399 563.5 399.7 565.95 400.4 568.35 401.65 570.1 402.9 571.85 404.75 572.8 406.55 573.8 408.85 573.8 411.2 573.8 413 572.8 414.8 571.9 416.1 570.15 417.35 568.45 418 566 418.7 563.55 418.7 560.6 418.7 557.55 418 555.15 417.35 552.7 416.1 551 414.8 549.3 413 548.35 411.2 547.4 408.85 547.4 406.55 547.4 404.75 548.35 402.9 549.3 401.65 551
M 403.5 560.6
Q 403.5 558.75 403.9 557.1 404.25 555.4 404.95 554.15 405.6 552.95 406.6 552.2 407.55 551.5 408.85 551.5 410.1 551.5 411.1 552.2 412.1 552.95 412.8 554.15 413.45 555.4 413.8 557.1 414.15 558.75 414.15 560.6 414.15 562.35 413.8 564.05 413.45 565.7 412.8 566.95 412.1 568.2 411.1 568.95 410.1 569.7 408.85 569.7 407.55 569.7 406.6 568.95 405.6 568.2 404.95 566.95 404.25 565.7 403.9 564.05 403.5 562.35 403.5 560.6
M 387.55 549.5
Q 387.55 548.7 387.4 548.55 387.3 548.4 386.6 548.4
L 384.5 548.4
Q 384.35 548.4 384.15 548.5 383.95 548.55 383.9 548.65
L 377.75 554.3
Q 377.55 554.5 377.55 554.7 377.5 554.95 377.65 555.1
L 379.45 557.25
Q 379.6 557.4 379.85 557.35 380.1 557.35 380.35 557.2
L 383.3 554.6 383.3 578.3
Q 383.3 578.8 383.85 578.8
L 387.05 578.8
Q 387.55 578.8 387.55 578.3
L 387.55 549.5
M 469.4 468.3
Q 469.2 468.45 469.2 468.65
L 469.2 471.4
Q 469.2 471.9 469.8 471.9
L 478.65 471.9
Q 479.45 471.9 479.65 472.2 479.85 472.5 479.8 473.35 479.75 475.3 478.9 477.65 478.05 479.95 476.5 482.25 475 484.5 472.8 486.65 470.6 488.8 467.9 490.45 467.7 490.6 467.55 490.9 467.4 491.2 467.65 491.55
L 469.25 493.8
Q 469.45 494.05 469.8 494 470.1 493.95 470.45 493.8 473.55 491.75 476.15 489.25 478.7 486.75 480.5 483.85 482.3 480.95 483.3 477.7 484.3 474.5 484.35 471 484.4 469.45 483.8 468.8 483.15 468.15 481.4 468.15
L 469.8 468.15
Q 469.6 468.15 469.4 468.3
M 496.45 465
Q 495.9 465 495.9 465.55
L 495.9 479.7 492.2 479.7 492.2 466.25
Q 492.2 465.75 491.65 465.75
L 488.4 465.75
Q 487.85 465.75 487.85 466.25
L 487.85 500.95
Q 487.85 501.5 488.4 501.5
L 491.65 501.5
Q 492.2 501.5 492.2 500.95
L 492.2 483.55 495.9 483.55 495.9 502.45
Q 495.9 503 496.4 503
L 499.9 503
Q 500.45 503 500.45 502.45
L 500.45 465.55
Q 500.45 465 499.9 465
L 496.45 465
M 445.05 487.9
Q 444.6 489.05 444.6 490.55 444.6 492.7 445.5 494.3 446.4 495.95 447.85 497 449.3 498.05 451.1 498.6 452.95 499.15 454.75 499.15 456.7 499.15 458.5 498.6 460.4 498.05 461.8 497 463.2 495.95 464.05 494.3 464.95 492.7 464.95 490.55 464.95 489.15 464.5 488.15 464.1 487.1 463.3 486.2 462.5 485.3 461.4 484.5 460.25 483.75 458.85 482.9 461.45 481.1 462.7 479.35 463.95 477.55 463.95 475.55 463.95 473.8 463.25 472.4 462.55 471 461.35 470.05 460.15 469.1 458.45 468.55 456.75 468.05 454.75 468.05 452.8 468.05 451.1 468.6 449.4 469.15 448.15 470.15 446.9 471.15 446.15 472.55 445.4 473.95 445.4 475.65 445.4 477.95 446.8 479.75 448.2 481.55 450.6 482.95 449.4 483.55 448.3 484.25 447.2 484.95 446.4 485.85 445.6 486.75 445.05 487.9
M 456.55 472.3
Q 457.4 472.55 458.05 473.1 458.7 473.65 459.05 474.35 459.45 475.05 459.45 475.85 459.45 476.55 458.95 477.35 458.45 478.15 457.7 478.9 456.95 479.6 456.15 480.15 455.4 480.7 454.75 480.95 454.25 480.75 453.45 480.25 452.65 479.8 451.85 479.1 451.1 478.4 450.55 477.6 449.95 476.8 449.95 475.95 449.95 475 450.4 474.25 450.85 473.55 451.55 473.05 452.2 472.55 453.05 472.25 453.9 471.95 454.75 471.95 455.7 471.95 456.55 472.3
M 453 485.8
Q 453.95 485.35 454.75 485.15 455.75 485.5 456.75 486.1 457.75 486.7 458.6 487.4 459.4 488.15 459.9 488.95 460.4 489.8 460.4 490.55 460.4 491.6 459.9 492.45 459.4 493.3 458.6 493.9 457.8 494.5 456.8 494.8 455.75 495.1 454.75 495.1 453.8 495.1 452.75 494.8 451.75 494.45 450.9 493.85 450.1 493.25 449.6 492.4 449.05 491.55 449.05 490.55 449.05 489.3 449.65 488.4 450.25 487.5 451.1 486.85 451.95 486.2 453 485.8
M 413 468.35
Q 411.2 467.4 408.85 467.4 406.55 467.4 404.75 468.35 402.9 469.3 401.65 471 400.4 472.7 399.7 475.15 399 477.55 399 480.6 399 483.5 399.7 485.95 400.4 488.35 401.65 490.1 402.9 491.85 404.75 492.8 406.55 493.8 408.85 493.8 411.2 493.8 413 492.8 414.8 491.9 416.1 490.15 417.35 488.45 418 486 418.7 483.55 418.7 480.6 418.7 477.55 418 475.15 417.35 472.7 416.1 471 414.8 469.3 413 468.35
M 406.6 472.2
Q 407.55 471.5 408.85 471.5 410.1 471.5 411.1 472.2 412.1 472.95 412.8 474.15 413.45 475.4 413.8 477.1 414.15 478.75 414.15 480.6 414.15 482.35 413.8 484.05 413.45 485.7 412.8 486.95 412.1 488.2 411.1 488.95 410.1 489.7 408.85 489.7 407.55 489.7 406.6 488.95 405.6 488.2 404.95 486.95 404.25 485.7 403.9 484.05 403.5 482.35 403.5 480.6 403.5 478.75 403.9 477.1 404.25 475.4 404.95 474.15 405.6 472.95 406.6 472.2
M 428.6 465.55
Q 428.6 465 428.1 465
L 424.55 465
Q 424 465 424 465.55
L 424 502.45
Q 424 503 424.55 503
L 428.1 503
Q 428.6 503 428.6 502.45
L 428.6 465.55
M 384.7 468.15
Q 381.5 468.15 379.55 469.6 377.6 471.1 376.5 473.35 375.4 475.65 375 478.35 374.65 481.1 374.65 483.55 374.65 490.9 377.1 494.95 379.55 499 384.7 499 387.25 499 389.1 498 390.95 496.9 392.2 494.95 393.45 493 394.05 490.1 394.65 487.2 394.65 483.55 394.65 481.9 394.45 480.15 394.3 478.35 393.9 476.65 393.5 474.95 392.8 473.4 392.1 471.85 390.95 470.65 389.9 469.5 388.3 468.8 386.75 468.15 384.7 468.15
M 379.6 478.4
Q 379.95 476.3 380.7 474.95 381.4 473.65 382.4 473.1 383.4 472.5 384.7 472.5 385.9 472.5 386.95 473.1 387.95 473.65 388.7 474.95 389.4 476.3 389.8 478.4 390.15 480.55 390.15 483.55 390.15 486.65 389.8 488.8 389.4 490.9 388.7 492.2 387.95 493.55 386.95 494.1 385.9 494.7 384.7 494.7 383.4 494.7 382.4 494.1 381.4 493.55 380.7 492.2 379.95 490.9 379.6 488.8 379.2 486.65 379.2 483.55 379.2 480.55 379.6 478.4
M 364.3 469.5
Q 364.3 468.7 364.15 468.55 364.05 468.4 363.35 468.4
L 361.25 468.4
Q 361.1 468.4 360.9 468.5 360.7 468.55 360.65 468.65
L 354.5 474.3
Q 354.3 474.5 354.3 474.7 354.25 474.95 354.4 475.1
L 356.2 477.25
Q 356.35 477.4 356.6 477.35 356.85 477.35 357.1 477.2
L 360.05 474.6 360.05 498.3
Q 360.05 498.8 360.6 498.8
L 363.8 498.8
Q 364.3 498.8 364.3 498.3
L 364.3 469.5
M 492.2 386.25
Q 492.2 385.75 491.65 385.75
L 488.4 385.75
Q 487.85 385.75 487.85 386.25
L 487.85 420.95
Q 487.85 421.5 488.4 421.5
L 491.65 421.5
Q 492.2 421.5 492.2 420.95
L 492.2 403.55 495.9 403.55 495.9 422.45
Q 495.9 423 496.4 423
L 499.9 423
Q 500.45 423 500.45 422.45
L 500.45 385.55
Q 500.45 385 499.9 385
L 496.45 385
Q 495.9 385 495.9 385.55
L 495.9 399.7 492.2 399.7 492.2 386.25
M 469.2 391.4
Q 469.2 391.9 469.8 391.9
L 478.65 391.9
Q 479.45 391.9 479.65 392.2 479.85 392.5 479.8 393.35 479.75 395.3 478.9 397.65 478.05 399.95 476.5 402.25 475 404.5 472.8 406.65 470.6 408.8 467.9 410.45 467.7 410.6 467.55 410.9 467.4 411.2 467.65 411.55
L 469.25 413.8
Q 469.45 414.05 469.8 414 470.1 413.95 470.45 413.8 473.55 411.75 476.15 409.25 478.7 406.75 480.5 403.85 482.3 400.95 483.3 397.7 484.3 394.5 484.35 391 484.4 389.45 483.8 388.8 483.15 388.15 481.4 388.15
L 469.8 388.15
Q 469.6 388.15 469.4 388.3 469.2 388.45 469.2 388.65
L 469.2 391.4
M 450.25 388.4
Q 448.55 388.8 446.8 389.4 446.4 389.6 446.25 389.8 446.1 389.95 446.2 390.2
L 446.55 393.15
Q 446.65 393.5 446.85 393.6 447.05 393.7 447.55 393.5 448.15 393.25 448.95 393 449.75 392.75 450.55 392.6 451.35 392.4 452.1 392.3 452.8 392.2 453.35 392.2 454.2 392.2 455.15 392.4 456.1 392.6 456.95 393.1 457.75 393.55 458.3 394.35 458.8 395.1 458.8 396.1 458.8 397.45 458 398.35 457.2 399.3 456 399.9 454.85 400.5 453.6 400.75 452.35 401 451.5 401
L 449.6 401
Q 449.25 401 449.15 401.1 449.05 401.15 449.05 401.55
L 449.05 404.5
Q 449.05 404.8 449.15 404.9 449.25 405 449.6 405
L 451.55 405
Q 453.5 405 454.85 405.4 456.25 405.75 457.15 406.45 458 407.1 458.45 407.95 458.85 408.8 458.85 409.75 458.85 412.4 456.9 413.75 456.25 414.2 455.5 414.45 454.7 414.75 453.85 414.85 453 414.95 452.1 414.9 451.2 414.85 450.4 414.8 449.3 414.7 448.25 414.4 447.2 414.1 446.15 413.8 445.6 413.55 445.4 413.7 445.2 413.8 445.15 414.15
L 444.8 417.2
Q 444.75 417.55 444.95 417.7 445.1 417.9 445.5 418 446.95 418.55 448.7 418.85 450.45 419.15 452.2 419.15 454.5 419.15 456.65 418.55 458.8 418 460.3 416.75 461.8 415.5 462.65 413.75 463.45 411.95 463.45 409.85 463.45 407.65 462.1 405.85 460.75 404.1 458.1 402.95 459.2 402.45 460.15 401.7 461.1 400.95 461.8 399.95 462.5 399 462.9 397.95 463.25 396.85 463.25 395.75 463.25 393.75 462.4 392.25 461.55 390.75 460.2 389.85 458.9 388.95 457.15 388.5 455.4 388.05 453.6 388.05 451.9 388.05 450.25 388.4
M 424.55 385
Q 424 385 424 385.55
L 424 422.45
Q 424 423 424.55 423
L 428.1 423
Q 428.6 423 428.6 422.45
L 428.6 385.55
Q 428.6 385 428.1 385
L 424.55 385
M 404.75 388.35
Q 402.9 389.3 401.65 391 400.4 392.7 399.7 395.15 399 397.55 399 400.6 399 403.5 399.7 405.95 400.4 408.35 401.65 410.1 402.9 411.85 404.75 412.8 406.55 413.8 408.85 413.8 411.2 413.8 413 412.8 414.8 411.9 416.1 410.15 417.35 408.45 418 406 418.7 403.55 418.7 400.6 418.7 397.55 418 395.15 417.35 392.7 416.1 391 414.8 389.3 413 388.35 411.2 387.4 408.85 387.4 406.55 387.4 404.75 388.35
M 411.1 392.2
Q 412.1 392.95 412.8 394.15 413.45 395.4 413.8 397.1 414.15 398.75 414.15 400.6 414.15 402.35 413.8 404.05 413.45 405.7 412.8 406.95 412.1 408.2 411.1 408.95 410.1 409.7 408.85 409.7 407.55 409.7 406.6 408.95 405.6 408.2 404.95 406.95 404.25 405.7 403.9 404.05 403.5 402.35 403.5 400.6 403.5 398.75 403.9 397.1 404.25 395.4 404.95 394.15 405.6 392.95 406.6 392.2 407.55 391.5 408.85 391.5 410.1 391.5 411.1 392.2
M 379.55 389.6
Q 377.6 391.1 376.5 393.35 375.4 395.65 375 398.35 374.65 401.1 374.65 403.55 374.65 410.9 377.1 414.95 379.55 419 384.7 419 387.25 419 389.1 418 390.95 416.9 392.2 414.95 393.45 413 394.05 410.1 394.65 407.2 394.65 403.55 394.65 401.9 394.45 400.15 394.3 398.35 393.9 396.65 393.5 394.95 392.8 393.4 392.1 391.85 390.95 390.65 389.9 389.5 388.3 388.8 386.75 388.15 384.7 388.15 381.5 388.15 379.55 389.6
M 382.4 393.1
Q 383.4 392.5 384.7 392.5 385.9 392.5 386.95 393.1 387.95 393.65 388.7 394.95 389.4 396.3 389.8 398.4 390.15 400.55 390.15 403.55 390.15 406.65 389.8 408.8 389.4 410.9 388.7 412.2 387.95 413.55 386.95 414.1 385.9 414.7 384.7 414.7 383.4 414.7 382.4 414.1 381.4 413.55 380.7 412.2 379.95 410.9 379.6 408.8 379.2 406.65 379.2 403.55 379.2 400.55 379.6 398.4 379.95 396.3 380.7 394.95 381.4 393.65 382.4 393.1
M 356.3 389.6
Q 354.35 391.1 353.25 393.35 352.15 395.65 351.75 398.35 351.4 401.1 351.4 403.55 351.4 410.9 353.85 414.95 356.3 419 361.45 419 364 419 365.85 418 367.7 416.9 368.95 414.95 370.2 413 370.8 410.1 371.4 407.2 371.4 403.55 371.4 401.9 371.2 400.15 371.05 398.35 370.65 396.65 370.25 394.95 369.55 393.4 368.85 391.85 367.7 390.65 366.65 389.5 365.05 388.8 363.5 388.15 361.45 388.15 358.25 388.15 356.3 389.6
M 359.15 393.1
Q 360.15 392.5 361.45 392.5 362.65 392.5 363.7 393.1 364.7 393.65 365.45 394.95 366.15 396.3 366.55 398.4 366.9 400.55 366.9 403.55 366.9 406.65 366.55 408.8 366.15 410.9 365.45 412.2 364.7 413.55 363.7 414.1 362.65 414.7 361.45 414.7 360.15 414.7 359.15 414.1 358.15 413.55 357.45 412.2 356.7 410.9 356.35 408.8 355.95 406.65 355.95 403.55 355.95 400.55 356.35 398.4 356.7 396.3 357.45 394.95 358.15 393.65 359.15 393.1
M 331.05 394.7
Q 331 394.95 331.15 395.1
L 332.95 397.25
Q 333.1 397.4 333.35 397.35 333.6 397.35 333.85 397.2
L 336.8 394.6 336.8 418.3
Q 336.8 418.8 337.35 418.8
L 340.55 418.8
Q 341.05 418.8 341.05 418.3
L 341.05 389.5
Q 341.05 388.7 340.9 388.55 340.8 388.4 340.1 388.4
L 338 388.4
Q 337.85 388.4 337.65 388.5 337.45 388.55 337.4 388.65
L 331.25 394.3
Q 331.05 394.5 331.05 394.7
M 500.45 305.55
Q 500.45 305 499.9 305
L 496.45 305
Q 495.9 305 495.9 305.55
L 495.9 319.7 492.2 319.7 492.2 306.25
Q 492.2 305.75 491.65 305.75
L 488.4 305.75
Q 487.85 305.75 487.85 306.25
L 487.85 340.95
Q 487.85 341.5 488.4 341.5
L 491.65 341.5
Q 492.2 341.5 492.2 340.95
L 492.2 323.55 495.9 323.55 495.9 342.45
Q 495.9 343 496.4 343
L 499.9 343
Q 500.45 343 500.45 342.45
L 500.45 305.55
M 483.8 308.8
Q 483.15 308.15 481.4 308.15
L 469.8 308.15
Q 469.6 308.15 469.4 308.3 469.2 308.45 469.2 308.65
L 469.2 311.4
Q 469.2 311.9 469.8 311.9
L 478.65 311.9
Q 479.45 311.9 479.65 312.2 479.85 312.5 479.8 313.35 479.75 315.3 478.9 317.65 478.05 319.95 476.5 322.25 475 324.5 472.8 326.65 470.6 328.8 467.9 330.45 467.7 330.6 467.55 330.9 467.4 331.2 467.65 331.55
L 469.25 333.8
Q 469.45 334.05 469.8 334 470.1 333.95 470.45 333.8 473.55 331.75 476.15 329.25 478.7 326.75 480.5 323.85 482.3 320.95 483.3 317.7 484.3 314.5 484.35 311 484.4 309.45 483.8 308.8
M 462.65 308.55
Q 462.5 308.35 462.25 308.35
L 447.6 308.35
Q 447 308.35 446.9 308.5 446.75 308.6 446.75 309.05
L 446.55 323.8
Q 446.55 325.15 448.1 324.5 449.35 324.05 450.75 323.8 452.15 323.5 453.45 323.5 456.75 323.5 458.15 325.05 459.6 326.55 459.6 329.15 459.6 331.85 457.8 333.35 456.1 334.9 453.4 334.9 452.7 334.9 451.85 334.8 451.05 334.75 450.2 334.6 449.35 334.4 448.55 334.2 447.75 333.95 447.2 333.65 446.35 333.25 446.35 333.95
L 446.35 337.2
Q 446.35 337.5 446.35 337.65 446.4 337.75 446.65 337.95 447.3 338.25 448.25 338.45 449.15 338.7 450.1 338.85 451.05 338.95 451.85 339.05 452.7 339.1 453.1 339.1 455.4 339.1 457.45 338.45 459.55 337.8 460.95 336.5 464.1 333.7 464.1 328.65 464.1 326.55 463.35 324.9 462.6 323.2 461.3 322 460 320.85 458.25 320.2 456.5 319.6 454.5 319.6 452.55 319.6 450.95 319.95
L 451.1 312.55 462.25 312.55
Q 462.5 312.55 462.65 312.35 462.75 312.2 462.75 311.95
L 462.75 308.9
Q 462.75 308.7 462.65 308.55
M 428.6 305.55
Q 428.6 305 428.1 305
L 424.55 305
Q 424 305 424 305.55
L 424 342.45
Q 424 343 424.55 343
L 428.1 343
Q 428.6 343 428.6 342.45
L 428.6 305.55
M 401.65 311
Q 400.4 312.7 399.7 315.15 399 317.55 399 320.6 399 323.5 399.7 325.95 400.4 328.35 401.65 330.1 402.9 331.85 404.75 332.8 406.55 333.8 408.85 333.8 411.2 333.8 413 332.8 414.8 331.9 416.1 330.15 417.35 328.45 418 326 418.7 323.55 418.7 320.6 418.7 317.55 418 315.15 417.35 312.7 416.1 311 414.8 309.3 413 308.35 411.2 307.4 408.85 307.4 406.55 307.4 404.75 308.35 402.9 309.3 401.65 311
M 403.9 317.1
Q 404.25 315.4 404.95 314.15 405.6 312.95 406.6 312.2 407.55 311.5 408.85 311.5 410.1 311.5 411.1 312.2 412.1 312.95 412.8 314.15 413.45 315.4 413.8 317.1 414.15 318.75 414.15 320.6 414.15 322.35 413.8 324.05 413.45 325.7 412.8 326.95 412.1 328.2 411.1 328.95 410.1 329.7 408.85 329.7 407.55 329.7 406.6 328.95 405.6 328.2 404.95 326.95 404.25 325.7 403.9 324.05 403.5 322.35 403.5 320.6 403.5 318.75 403.9 317.1
M 314.75 308.4
Q 314.6 308.4 314.4 308.5 314.2 308.55 314.15 308.65
L 308 314.3
Q 307.8 314.5 307.8 314.7 307.75 314.95 307.9 315.1
L 309.7 317.25
Q 309.85 317.4 310.1 317.35 310.35 317.35 310.6 317.2
L 313.55 314.6 313.55 338.3
Q 313.55 338.8 314.1 338.8
L 317.3 338.8
Q 317.8 338.8 317.8 338.3
L 317.8 309.5
Q 317.8 308.7 317.65 308.55 317.55 308.4 316.85 308.4
L 314.75 308.4
M 347.95 320.15
Q 347.8 318.35 347.4 316.65 347 314.95 346.3 313.4 345.6 311.85 344.45 310.65 343.4 309.5 341.8 308.8 340.25 308.15 338.2 308.15 335 308.15 333.05 309.6 331.1 311.1 330 313.35 328.9 315.65 328.5 318.35 328.15 321.1 328.15 323.55 328.15 330.9 330.6 334.95 333.05 339 338.2 339 340.75 339 342.6 338 344.45 336.9 345.7 334.95 346.95 333 347.55 330.1 348.15 327.2 348.15 323.55 348.15 321.9 347.95 320.15
M 338.2 312.5
Q 339.4 312.5 340.45 313.1 341.45 313.65 342.2 314.95 342.9 316.3 343.3 318.4 343.65 320.55 343.65 323.55 343.65 326.65 343.3 328.8 342.9 330.9 342.2 332.2 341.45 333.55 340.45 334.1 339.4 334.7 338.2 334.7 336.9 334.7 335.9 334.1 334.9 333.55 334.2 332.2 333.45 330.9 333.1 328.8 332.7 326.65 332.7 323.55 332.7 320.55 333.1 318.4 333.45 316.3 334.2 314.95 334.9 313.65 335.9 313.1 336.9 312.5 338.2 312.5
M 369.55 313.4
Q 368.85 311.85 367.7 310.65 366.65 309.5 365.05 308.8 363.5 308.15 361.45 308.15 358.25 308.15 356.3 309.6 354.35 311.1 353.25 313.35 352.15 315.65 351.75 318.35 351.4 321.1 351.4 323.55 351.4 330.9 353.85 334.95 356.3 339 361.45 339 364 339 365.85 338 367.7 336.9 368.95 334.95 370.2 333 370.8 330.1 371.4 327.2 371.4 323.55 371.4 321.9 371.2 320.15 371.05 318.35 370.65 316.65 370.25 314.95 369.55 313.4
M 365.45 314.95
Q 366.15 316.3 366.55 318.4 366.9 320.55 366.9 323.55 366.9 326.65 366.55 328.8 366.15 330.9 365.45 332.2 364.7 333.55 363.7 334.1 362.65 334.7 361.45 334.7 360.15 334.7 359.15 334.1 358.15 333.55 357.45 332.2 356.7 330.9 356.35 328.8 355.95 326.65 355.95 323.55 355.95 320.55 356.35 318.4 356.7 316.3 357.45 314.95 358.15 313.65 359.15 313.1 360.15 312.5 361.45 312.5 362.65 312.5 363.7 313.1 364.7 313.65 365.45 314.95
M 392.8 313.4
Q 392.1 311.85 390.95 310.65 389.9 309.5 388.3 308.8 386.75 308.15 384.7 308.15 381.5 308.15 379.55 309.6 377.6 311.1 376.5 313.35 375.4 315.65 375 318.35 374.65 321.1 374.65 323.55 374.65 330.9 377.1 334.95 379.55 339 384.7 339 387.25 339 389.1 338 390.95 336.9 392.2 334.95 393.45 333 394.05 330.1 394.65 327.2 394.65 323.55 394.65 321.9 394.45 320.15 394.3 318.35 393.9 316.65 393.5 314.95 392.8 313.4
M 388.7 314.95
Q 389.4 316.3 389.8 318.4 390.15 320.55 390.15 323.55 390.15 326.65 389.8 328.8 389.4 330.9 388.7 332.2 387.95 333.55 386.95 334.1 385.9 334.7 384.7 334.7 383.4 334.7 382.4 334.1 381.4 333.55 380.7 332.2 379.95 330.9 379.6 328.8 379.2 326.65 379.2 323.55 379.2 320.55 379.6 318.4 379.95 316.3 380.7 314.95 381.4 313.65 382.4 313.1 383.4 312.5 384.7 312.5 385.9 312.5 386.95 313.1 387.95 313.65 388.7 314.95
M 500.45 225.55
Q 500.45 225 499.9 225
L 496.45 225
Q 495.9 225 495.9 225.55
L 495.9 239.7 492.2 239.7 492.2 226.25
Q 492.2 225.75 491.65 225.75
L 488.4 225.75
Q 487.85 225.75 487.85 226.25
L 487.85 260.95
Q 487.85 261.5 488.4 261.5
L 491.65 261.5
Q 492.2 261.5 492.2 260.95
L 492.2 243.55 495.9 243.55 495.9 262.45
Q 495.9 263 496.4 263
L 499.9 263
Q 500.45 263 500.45 262.45
L 500.45 225.55
M 479.65 232.2
Q 479.85 232.5 479.8 233.35 479.75 235.3 478.9 237.65 478.05 239.95 476.5 242.25 475 244.5 472.8 246.65 470.6 248.8 467.9 250.45 467.7 250.6 467.55 250.9 467.4 251.2 467.65 251.55
L 469.25 253.8
Q 469.45 254.05 469.8 254 470.1 253.95 470.45 253.8 473.55 251.75 476.15 249.25 478.7 246.75 480.5 243.85 482.3 240.95 483.3 237.7 484.3 234.5 484.35 231 484.4 229.45 483.8 228.8 483.15 228.15 481.4 228.15
L 469.8 228.15
Q 469.6 228.15 469.4 228.3 469.2 228.45 469.2 228.65
L 469.2 231.4
Q 469.2 231.9 469.8 231.9
L 478.65 231.9
Q 479.45 231.9 479.65 232.2
M 454.65 228.05
Q 452.35 228.05 450.55 228.85 448.7 229.65 447.4 231.05 446.1 232.45 445.4 234.35 444.75 236.25 444.75 238.45 444.75 240.75 445.45 242.55 446.1 244.35 447.4 245.65 448.7 246.95 450.5 247.65 452.25 248.35 454.4 248.35 455.15 248.35 455.95 248.15 456.75 247.95 457.5 247.6 458.25 247.25 458.9 246.8 459.5 246.35 459.85 245.85 459.6 247.75 459 249.45 458.4 251.1 457.4 252.35 456.4 253.6 454.95 254.3 453.5 255 451.4 255 450 255 448.85 254.9 447.65 254.8 446.6 254.35 446.05 254.15 445.95 254.7
L 445.85 257.9
Q 445.8 258.3 446.15 258.4 447.1 258.75 448.5 258.95 449.95 259.15 451.1 259.15 454.8 259.15 457.35 257.8 459.95 256.5 461.5 254.25 463.1 252 463.8 249 464.45 245.95 464.45 242.6 464.45 235.15 461.9 231.6 459.35 228.05 454.65 228.05
M 456.65 232.55
Q 457.6 233.05 458.3 233.95 459 234.85 459.4 236.05 459.8 237.25 459.8 238.6 459.8 241.05 458.35 242.65 456.85 244.2 454.25 244.2 451.8 244.2 450.5 242.6 449.15 241 449.15 238.25 449.15 235.35 450.65 233.7 452.2 232 454.6 232 455.7 232 456.65 232.55
M 413 228.35
Q 411.2 227.4 408.85 227.4 406.55 227.4 404.75 228.35 402.9 229.3 401.65 231 400.4 232.7 399.7 235.15 399 237.55 399 240.6 399 243.5 399.7 245.95 400.4 248.35 401.65 250.1 402.9 251.85 404.75 252.8 406.55 253.8 408.85 253.8 411.2 253.8 413 252.8 414.8 251.9 416.1 250.15 417.35 248.45 418 246 418.7 243.55 418.7 240.6 418.7 237.55 418 235.15 417.35 232.7 416.1 231 414.8 229.3 413 228.35
M 406.6 232.2
Q 407.55 231.5 408.85 231.5 410.1 231.5 411.1 232.2 412.1 232.95 412.8 234.15 413.45 235.4 413.8 237.1 414.15 238.75 414.15 240.6 414.15 242.35 413.8 244.05 413.45 245.7 412.8 246.95 412.1 248.2 411.1 248.95 410.1 249.7 408.85 249.7 407.55 249.7 406.6 248.95 405.6 248.2 404.95 246.95 404.25 245.7 403.9 244.05 403.5 242.35 403.5 240.6 403.5 238.75 403.9 237.1 404.25 235.4 404.95 234.15 405.6 232.95 406.6 232.2
M 424.55 225
Q 424 225 424 225.55
L 424 262.45
Q 424 263 424.55 263
L 428.1 263
Q 428.6 263 428.6 262.45
L 428.6 225.55
Q 428.6 225 428.1 225
L 424.55 225
M 384.7 228.15
Q 381.5 228.15 379.55 229.6 377.6 231.1 376.5 233.35 375.4 235.65 375 238.35 374.65 241.1 374.65 243.55 374.65 250.9 377.1 254.95 379.55 259 384.7 259 387.25 259 389.1 258 390.95 256.9 392.2 254.95 393.45 253 394.05 250.1 394.65 247.2 394.65 243.55 394.65 241.9 394.45 240.15 394.3 238.35 393.9 236.65 393.5 234.95 392.8 233.4 392.1 231.85 390.95 230.65 389.9 229.5 388.3 228.8 386.75 228.15 384.7 228.15
M 382.4 233.1
Q 383.4 232.5 384.7 232.5 385.9 232.5 386.95 233.1 387.95 233.65 388.7 234.95 389.4 236.3 389.8 238.4 390.15 240.55 390.15 243.55 390.15 246.65 389.8 248.8 389.4 250.9 388.7 252.2 387.95 253.55 386.95 254.1 385.9 254.7 384.7 254.7 383.4 254.7 382.4 254.1 381.4 253.55 380.7 252.2 379.95 250.9 379.6 248.8 379.2 246.65 379.2 243.55 379.2 240.55 379.6 238.4 379.95 236.3 380.7 234.95 381.4 233.65 382.4 233.1
M 371.4 243.55
Q 371.4 241.9 371.2 240.15 371.05 238.35 370.65 236.65 370.25 234.95 369.55 233.4 368.85 231.85 367.7 230.65 366.65 229.5 365.05 228.8 363.5 228.15 361.45 228.15 358.25 228.15 356.3 229.6 354.35 231.1 353.25 233.35 352.15 235.65 351.75 238.35 351.4 241.1 351.4 243.55 351.4 250.9 353.85 254.95 356.3 259 361.45 259 364 259 365.85 258 367.7 256.9 368.95 254.95 370.2 253 370.8 250.1 371.4 247.2 371.4 243.55
M 365.45 234.95
Q 366.15 236.3 366.55 238.4 366.9 240.55 366.9 243.55 366.9 246.65 366.55 248.8 366.15 250.9 365.45 252.2 364.7 253.55 363.7 254.1 362.65 254.7 361.45 254.7 360.15 254.7 359.15 254.1 358.15 253.55 357.45 252.2 356.7 250.9 356.35 248.8 355.95 246.65 355.95 243.55 355.95 240.55 356.35 238.4 356.7 236.3 357.45 234.95 358.15 233.65 359.15 233.1 360.15 232.5 361.45 232.5 362.65 232.5 363.7 233.1 364.7 233.65 365.45 234.95
M 341.8 228.8
Q 340.25 228.15 338.2 228.15 335 228.15 333.05 229.6 331.1 231.1 330 233.35 328.9 235.65 328.5 238.35 328.15 241.1 328.15 243.55 328.15 250.9 330.6 254.95 333.05 259 338.2 259 340.75 259 342.6 258 344.45 256.9 345.7 254.95 346.95 253 347.55 250.1 348.15 247.2 348.15 243.55 348.15 241.9 347.95 240.15 347.8 238.35 347.4 236.65 347 234.95 346.3 233.4 345.6 231.85 344.45 230.65 343.4 229.5 341.8 228.8
M 338.2 232.5
Q 339.4 232.5 340.45 233.1 341.45 233.65 342.2 234.95 342.9 236.3 343.3 238.4 343.65 240.55 343.65 243.55 343.65 246.65 343.3 248.8 342.9 250.9 342.2 252.2 341.45 253.55 340.45 254.1 339.4 254.7 338.2 254.7 336.9 254.7 335.9 254.1 334.9 253.55 334.2 252.2 333.45 250.9 333.1 248.8 332.7 246.65 332.7 243.55 332.7 240.55 333.1 238.4 333.45 236.3 334.2 234.95 334.9 233.65 335.9 233.1 336.9 232.5 338.2 232.5
M 324.9 243.55
Q 324.9 241.9 324.7 240.15 324.55 238.35 324.15 236.65 323.75 234.95 323.05 233.4 322.35 231.85 321.2 230.65 320.15 229.5 318.55 228.8 317 228.15 314.95 228.15 311.75 228.15 309.8 229.6 307.85 231.1 306.75 233.35 305.65 235.65 305.25 238.35 304.9 241.1 304.9 243.55 304.9 250.9 307.35 254.95 309.8 259 314.95 259 317.5 259 319.35 258 321.2 256.9 322.45 254.95 323.7 253 324.3 250.1 324.9 247.2 324.9 243.55
M 317.2 233.1
Q 318.2 233.65 318.95 234.95 319.65 236.3 320.05 238.4 320.4 240.55 320.4 243.55 320.4 246.65 320.05 248.8 319.65 250.9 318.95 252.2 318.2 253.55 317.2 254.1 316.15 254.7 314.95 254.7 313.65 254.7 312.65 254.1 311.65 253.55 310.95 252.2 310.2 250.9 309.85 248.8 309.45 246.65 309.45 243.55 309.45 240.55 309.85 238.4 310.2 236.3 310.95 234.95 311.65 233.65 312.65 233.1 313.65 232.5 314.95 232.5 316.15 232.5 317.2 233.1
M 294.55 229.5
Q 294.55 228.7 294.4 228.55 294.3 228.4 293.6 228.4
L 291.5 228.4
Q 291.35 228.4 291.15 228.5 290.95 228.55 290.9 228.65
L 284.75 234.3
Q 284.55 234.5 284.55 234.7 284.5 234.95 284.65 235.1
L 286.45 237.25
Q 286.6 237.4 286.85 237.35 287.1 237.35 287.35 237.2
L 290.3 234.6 290.3 258.3
Q 290.3 258.8 290.85 258.8
L 294.05 258.8
Q 294.55 258.8 294.55 258.3
L 294.55 229.5 Z"/>
</g>

<g id="fdbdbd3423434_0_Layer0_1_FILL">
<path fill="#FF7786" stroke="none" d="
M 10.75 -118.75
Q 10.75 -120.8 9.25 -122.25 7.85 -123.7 5.8 -123.7 3.75 -123.7 2.3 -122.25 0.85 -120.8 0.85 -118.75 0.85 -116.7 2.3 -115.3 3.75 -113.8 5.8 -113.8 7.85 -113.8 9.25 -115.3 10.75 -116.7 10.75 -118.75 Z"/>
</g>

<g id="fdbdbd3423434_0_Layer0_2_FILL">
<path fill="#FF7786" stroke="none" d="
M 10.75 -118.75
Q 10.75 -120.8 9.25 -122.25 7.85 -123.7 5.8 -123.7 3.75 -123.7 2.3 -122.25 0.85 -120.8 0.85 -118.75 0.85 -116.7 2.3 -115.3 3.75 -113.8 5.8 -113.8 7.85 -113.8 9.25 -115.3 10.75 -116.7 10.75 -118.75 Z"/>
</g>

<g id="fdbdbd3423434_0_Layer0_3_FILL">
<path fill="#FF7786" stroke="none" d="
M 10.75 -118.75
Q 10.75 -120.8 9.25 -122.25 7.85 -123.7 5.8 -123.7 3.75 -123.7 2.3 -122.25 0.85 -120.8 0.85 -118.75 0.85 -116.7 2.3 -115.3 3.75 -113.8 5.8 -113.8 7.85 -113.8 9.25 -115.3 10.75 -116.7 10.75 -118.75 Z"/>
</g>

<g id="fdbdbd3423434_0_Layer0_4_FILL">
<path fill="#FF7786" stroke="none" d="
M 10.75 -118.75
Q 10.75 -120.8 9.25 -122.25 7.85 -123.7 5.8 -123.7 3.75 -123.7 2.3 -122.25 0.85 -120.8 0.85 -118.75 0.85 -116.7 2.3 -115.3 3.75 -113.8 5.8 -113.8 7.85 -113.8 9.25 -115.3 10.75 -116.7 10.75 -118.75 Z"/>
</g>

<g id="fdbdbd3423434_0_Layer0_5_FILL">
<path fill="#FF7786" stroke="none" d="
M 10.75 -118.75
Q 10.75 -120.8 9.25 -122.25 7.85 -123.7 5.8 -123.7 3.75 -123.7 2.3 -122.25 0.85 -120.8 0.85 -118.75 0.85 -116.7 2.3 -115.3 3.75 -113.8 5.8 -113.8 7.85 -113.8 9.25 -115.3 10.75 -116.7 10.75 -118.75 Z"/>
</g>

<path id="Layer0_0_1_STROKES" stroke="#DBDBDB" stroke-width="3" stroke-linejoin="round" stroke-linecap="round" fill="none" d="
M 687 374.45
L 857 374.45
Q 872 374.45 872 389.45
L 872 419.5
Q 872 434.5 857 434.5
L 687 434.5
Q 672 434.5 672 419.5
L 672 389.45
Q 672 374.45 687 374.45 Z"/>

<path id="fdbdbd3423434_0_Layer0_0_1_STROKES" stroke="#FF7786" stroke-width="3" stroke-linejoin="round" stroke-linecap="round" fill="none" d="
M -11 -54.75
L 18.3 -54.75 18.3 -134.75 -11 -134.75
M 18.3 -54.75
L 18.3 25.25 18.3 105.25 18.3 185.25 -11 185.25
M 18.3 105.25
L -11 105.25
M 18.3 25.25
L -11 25.25"/>
</defs>

<g transform="matrix( 1, 0, 0, 1, 0,0) ">
<use xlink:href="#Layer0_0_FILL"/>

<use xlink:href="#Layer0_0_1_STROKES"/>
</g>

<g transform="matrix( 1, 0, 0, 1, 544.2,374.9) ">
<g transform="matrix( 1, 0, 0, 1, 0,0) ">
<use xlink:href="#fdbdbd3423434_0_Layer0_0_1_STROKES"/>
</g>

<g transform="matrix( -1, 0, 0, 1, -7.5,-16.25) ">
<use xlink:href="#fdbdbd3423434_0_Layer0_1_FILL"/>
</g>

<g transform="matrix( -1, 0, 0, 1, -7.5,63.75) ">
<use xlink:href="#fdbdbd3423434_0_Layer0_2_FILL"/>
</g>

<g transform="matrix( -1, 0, 0, 1, -7.5,143.75) ">
<use xlink:href="#fdbdbd3423434_0_Layer0_3_FILL"/>
</g>

<g transform="matrix( -1, 0, 0, 1, -7.5,223.75) ">
<use xlink:href="#fdbdbd3423434_0_Layer0_4_FILL"/>
</g>

<g transform="matrix( -1, 0, 0, 1, -7.5,303.75) ">
<use xlink:href="#fdbdbd3423434_0_Layer0_5_FILL"/>
</g>
</g>
</svg>
