<?xml version="1.0" encoding="utf-8"?>
<!-- Generator: Adobe Illustrator 23.0.0, SVG Export Plug-In . SVG Version: 6.00 Build 0)  -->
<svg version="1.1" id="레이어_1" xmlns="http://www.w3.org/2000/svg" xmlns:xlink="http://www.w3.org/1999/xlink" x="0px"
	 y="0px" width="699px" height="247px" viewBox="0 0 699 247" style="enable-background:new 0 0 699 247;" xml:space="preserve">
<title>1_5_8_01</title>
<g id="레이어_2_1_">
	<g id="활동2-2">
		<g>
			<g>
				<rect x="9.7" y="76.2" style="fill:#D9E6B4;" width="679.1" height="60.6"/>
				<path style="fill:#367C3E;" d="M689.8,137.8H8.7l-1.1-1V76.2l1.1-1h681.1l1.1,1v60.6L689.8,137.8z M9.7,135.7h679.1V77.3H9.7
					V135.7z"/>
				<rect x="234.8" y="76.2" style="fill:#367C3E;" width="1.3" height="60.6"/>
				<path style="fill:#367C3E;" d="M463,136.8h-1.3V76.2h1.3V136.8z"/>
				<rect x="8.7" y="54.4" width="681.2" height="2.7"/>
				
					<line style="fill:none;stroke:#367C3E;stroke-width:2;stroke-miterlimit:10;stroke-dasharray:5,5;" x1="82.7" y1="77.3" x2="82.7" y2="136.8"/>
				
					<line style="fill:none;stroke:#367C3E;stroke-width:2;stroke-miterlimit:10;stroke-dasharray:5,5;" x1="159.9" y1="77.3" x2="159.9" y2="136.8"/>
				
					<line style="fill:none;stroke:#367C3E;stroke-width:2;stroke-miterlimit:10;stroke-dasharray:5,5;" x1="311.1" y1="77.3" x2="311.1" y2="136.8"/>
				
					<line style="fill:none;stroke:#367C3E;stroke-width:2;stroke-miterlimit:10;stroke-dasharray:5,5;" x1="388.3" y1="77.3" x2="388.3" y2="136.8"/>
				
					<line style="fill:none;stroke:#367C3E;stroke-width:2;stroke-miterlimit:10;stroke-dasharray:5,5;" x1="538.7" y1="77.3" x2="538.7" y2="136.8"/>
				
					<line style="fill:none;stroke:#367C3E;stroke-width:2;stroke-miterlimit:10;stroke-dasharray:5,5;" x1="615.9" y1="77.3" x2="615.9" y2="136.8"/>
				<path style="fill:none;stroke:#000000;stroke-miterlimit:10;stroke-dasharray:3,3;" d="M7.6,140.9c0,0,186.4,158.5,380.7,0"/>
			</g>
			<g style="display:none;">
				<path style="display:inline;fill:#D02E7D;" d="M493.5,188c0,0,0.2-0.8,0.6,0.3l0.5,0.8l0.8,0.5v0.7c0.2-1.8-1.5,5.6-18.2-1
					c-0.2,0-5.8-3.6-11.6-10.8c1.4-0.1-6.1-2.9-1.1-11.5c1.6-1.8,7-6.3,11.6-2c4.3,2.4,3.6,11.3-1.7,12.8
					c-10.4,4.6-18-5.6-20.5-11.1c-2.1-3.8-3.6-7.9-4.5-12.2c0.2-0.2,1.9,10.2,8.9,18.8c3.5,4.3,9.9,7.1,14.7,5.1s6.2-6.2,6-7
					c-0.3,2.6-1.9,4.8-4.2,6c-3.8,2.6-10.3,1.6-14.3-2.2c-7.9-7.5-10-18.2-10.3-19.6s2,9.5,8.5,17.3c7.1,10.4,21.3,2.8,19.3-0.6
					c1.8,0.2-7.2,10.6-16,3c-7.5-6.1-9.7-16.1-10.3-17.9c0,0,2.1,6.3,3.1,7.7l-1.2-2.8c0.6,1.5,1.3,3,2.1,4.4l1.4,2.5
					c-0.2,0.1-3.5-6.8-3.3-7.5s-2.5-2.6,4.9,9c1.1,1.6,2.5,3,4.1,4.1c2.4,2.3,10.4,4.7,14-2.3c1.4-3.1-2.4-8.2-6.4-7
					s-7.8,6.1-3.7,10.2c5.9,7.2,15.4,17.6,26.7,12.3"/>
				<path style="display:inline;fill:#E4A1C0;" d="M487.4,192.4c-1.4,0-2.8-0.2-4.2-0.4c-4.2-1.4-8.1-3.7-11.4-6.8
					c-2.1-1.9-3.9-4-5.5-6.3c-1.3-0.2-2.5-0.7-3.5-1.4c-2.6-1.6-4.8-3.8-6.5-6.4l-0.5-0.6l0,0c-0.9-0.5-6.2-11.4-7.3-18.5
					c1.1,7.1,6.4,18,7.3,18.5l0,0l0.5,0.6c1.7,2.6,4,4.8,6.6,6.4c1,0.7,2.1,1.2,3.3,1.4c-1.4-1.9-2.6-3.9-3.6-6h-0.1
					c-0.1-0.1-0.1-0.2-0.1-0.3c-0.2-1.2,0.4-5.7,3.8-7.4c1.4-2.2,5.1-2.8,8.4-1.4c0.7,0.3,1.3,0.7,1.9,1.1c-0.6-0.4-1.2-0.8-1.9-1.1
					c-3.3-1.4-7-0.7-8.4,1.4c-3.4,1.7-3.9,6.2-3.8,7.4v0.3h0.1c1,2.1,2.3,4.1,3.7,6c2.2,0.5,4.5,0.5,6.7-0.2
					c2.9-0.9,5.2-3.1,6.2-5.9c0.4-1.8,0.2-3.7-0.6-5.4c0.8,1.7,1,3.6,0.6,5.4c-1,2.8-3.3,5-6.2,5.9c-2.2,0.7-4.5,0.8-6.7,0.2
					c1.6,2.3,3.4,4.4,5.5,6.3c3.3,3.1,7.2,5.4,11.4,6.8c4.3,0.8,8.7,0.3,12.6-1.5l0,0C493.1,191.7,490.3,192.4,487.4,192.4z"/>
				<path style="display:inline;fill:#D02E7D;" d="M487.1,192.5c-1.3,0-2.6-0.1-3.8-0.4c-6.6-1.3-11.3-6.5-14.8-10.2l-1.9-2l0,0
					c-0.7-0.8-1.3-1.7-1.9-2.6c-0.8-0.4-1.5-0.8-2.2-1.4c-6.4-4.5-9.1-12-10.6-16.1c-0.2-0.5-0.4-1.1-0.6-1.6
					c0.2,0.5,0.4,1.1,0.6,1.6c1.5,4.1,4.2,11.6,10.6,16.1c0.7,0.6,1.4,1,2.2,1.4l-0.6-0.9c-1-0.6-1.7-2.8-1.6-5.1s0.6-4.3,3.1-5.6
					s3.7-2.6,6.4-2.6h0.3c2.3,0.1,4,1,4.8,2.4c1.6,1.6,2.4,3.7,2.4,5.9c0,0.6-0.1,1.1-0.4,1.6l0,0c0.3-0.5,0.4-1,0.4-1.6
					c0-2.2-0.9-4.3-2.4-5.9c-1.1-1.5-2.9-2.4-4.8-2.4H472c-2.7,0-5.3,1.1-6.4,2.6s-3,4.4-3,5.6s0.5,4.4,1.5,5.1l0.6,0.9
					c3.5,1.6,7.7,1.2,10.8-1.1c1.5-1.1,2.5-2.2,2.4-2.5l0,0c0.1,0.3-0.8,1.4-2.4,2.5c-3.1,2.3-7.3,2.7-10.8,1.1c0.5,1,1.2,1.8,2,2.6
					l1.8,2c3.5,3.7,8.2,8.9,14.8,10.2c4.3,0.8,8.7,0.2,12.6-1.6l0,0C493.2,191.8,490.1,192.5,487.1,192.5z"/>
				<path style="display:inline;fill:#E4A1C0;" d="M469.7,176.8h-0.5c-3.7-0.5-7.1-2.4-9.4-5.3c-1.6-1.9-2.9-4.1-3.9-6.4l-0.3-0.5
					l0.3,0.5c1,2.3,2.3,4.5,3.9,6.4c2.3,2.9,5.7,4.8,9.4,5.2h0.5c2.2,0,4.3-1,5.8-2.6c1.1-1,1.6-2.4,1.5-3.9
					c-0.5-1.6-1.5-3.1-2.8-4.2l0,0c1.3,1.1,2.3,2.6,2.8,4.2c0.1,1.5-0.4,2.9-1.5,3.9C474,175.8,471.9,176.7,469.7,176.8z"/>
				<path style="display:inline;fill:#D02E7D;" d="M481,201.2c0,0,0.1,0.7-0.4-0.4l-0.4-0.8l-0.5-0.6l-0.3-0.6c0,0,0.5-0.5,6.1-3.5
					c1.7-1.1,3.5-2.1,5.3-2.9l3.6-1.6c0.5,0.7,3.4-3.7,2.6,1l-2.7-3.9c-3.7-5.3-7.4-10.9-7.8-11.8c-0.4-0.9,8.6,13.2,9.3,13.9
					s-8.3-12.6-8.6-13.7c-0.3-1.1,7.9,12.2,9.1,12.9s-7.3-11.2-7.9-12.8l1.8,2.7l-0.6-1l1.1,1.6l0.6,0.9c-0.6-0.9-1.1-1.9-1.5-2.9
					c0,0-0.9-1,2.3,3.4c0,0,1.6,2.8,4.9,7.4c3.8,2.7-1.7,4.1-4.6,5.9C489.5,196.2,485.1,198.5,481,201.2"/>
				<path style="display:inline;fill:#E4A1C0;" d="M479.1,198.6L479.1,198.6c0.1-0.1,6.9-3.8,13.6-7.2l2.3-1.1l0.6-0.3v-0.2h-0.2
					l-5.5-8c0,0-2.7-3.9-4.1-6.4c1.4,2.5,4.1,6.4,4.1,6.4l5.5,8h0.2l0.2,0.2l1.8-0.8c-0.4,1.7-0.7,2.5-1,2.6l0,0
					c-0.2,0-0.4-0.5-0.5-1l-0.3-0.8l-0.7,0.3l-2.3,1.1C486,194.8,479.2,198.5,479.1,198.6z M495.7,190l0.3,0.8
					c0.1,0.5,0.3,0.9,0.5,0.9l0,0c0.3,0,0.6-0.8,1-2.5L495.7,190z"/>
				<path style="display:inline;fill:#D02E7D;" d="M479.1,198.6c0.1-0.1,7.4-4.5,11-6.1l4.7-2.1h0.1c0.2,0,0.4-0.2,0.6-0.3l-0.2-0.4
					l0,0l0.2,0.4l0.6-0.4c0.5-0.4,1-0.8,1.2-0.7s0,1-0.7,2.6l-1.1-1.5l-0.6,0.3h-0.1l-4.7,2.1C486.6,194.2,479.2,198.5,479.1,198.6z
					 M495.5,190.2c0.4,0.5,0.8,1,1.1,1.5c0.6-1.5,0.9-2.4,0.7-2.5s-0.7,0.2-1.2,0.6L495.5,190.2z M495.9,189
					c-0.1-0.1-6.6-9.8-7.9-12C489.3,179.2,495.8,188.9,495.9,189z"/>
				<path style="display:inline;fill:#E4A1C0;" d="M498.7,191.3L498.7,191.3c0.3-0.5-2.6-4.8-4.9-8.3s-2.7-4-2.9-4.4
					s1.4,2.3,2.9,4.4S499,190.8,498.7,191.3z"/>
				<g style="display:inline;">
					<path style="fill:#D02E7D;" d="M389.6,124.1c0,0,0.7,4.6-0.5,4.3l-1,1.9l-0.8,4.6l-0.7-1.4c0,0-0.1-3-0.2-22.8
						c0-5,0-11-0.1-18.2V73.9c3-4.9,4.3-1.4,6.7-2.5l62.4-0.3c0,0,45.5-0.5,107-0.5h125.3c1.2,1.1-1-2.5,3,2.5V140
						c-3.8,4.6-1.2,1.3-2.2,2.3h-33.3c-115.5-0.1-235.3-0.3-252-0.6l141.9,0.3l101.2,0.2h31c5.5-1.1,6.9,2.2,13.3-2.4V136
						c-0.9,2,2,0.8-2.1,6.1h-30.4l-94.1-0.3c-69.3-0.2-141.2-0.4-151.5-0.7c0-0.9,254,2.9,277.3-2.1c-0.2,4.4-233.6,0.6-262.5,1
						c0,0,45.8,0.2,58,0.1h32.9c0,0-53.8-0.4-57.5-0.6c0,0-24.6,0.3,72.5,0.2c0,0,52.3,0.3,152.5,0.3c4.6,1.6,2.5-4.1,3-7.5V97.1
						c-0.3-7.6,0.5-17.6-0.7-23.9h-17.2l-97.6,0.3l-111,0.7l-60.1,0.5h-14.3c2.9-2.9,0.8,1.8,1.5,2.4v9.2
						c0.1,12.4,0.2,24.9,0.3,37.5"/>
					<path style="fill:#E4A1C0;" d="M688.6,143L688.6,143c-0.1-0.1-0.1-0.1,0.1-0.3l0.2-0.2c0,0-0.1,0-0.2,0.2h-0.2l-168.6-0.2
						c-0.9,0-85.4,0-135.1-0.4c49.7,0.4,134.2,0.4,135.1,0.4l168.6,0.2h0.2l0.2-0.2l-0.2,0.2L688.6,143c0.8-1,1.6-1.9,2.4-2.8V73.1
						c0.4,0.4,0.4,0.5,0.5,0.5s-2.5-2.9-2.7-3.2h-87.9l-187,0.7h-26.1c-2.2,3-2,3.8-1.7,4.6c0.2,0.6,0.2,1.1,0,1.7
						c0,12.3,0.1,23.1,0.1,32c0,17.8,0.1,28,0.1,28l0,0c0,0-0.1-10.2-0.1-28c-0.1-8.9-0.1-19.7-0.1-32c0.2-0.6,0.2-1.1,0-1.7
						c-0.3-0.8-0.5-1.6,1.7-4.6h26.1l187-0.7h87.8c0.1,0,2.4,2.8,2.7,3.1h0.1c-0.1,0-0.1,0-0.5-0.5v67.1L688.6,143z"/>
					<path style="fill:#D02E7D;" d="M688.8,142.8L688.8,142.8c-0.1,0-0.1,0,0-0.1l0,0V142.8z M688.8,142.7l2.2-2.5v-1.5
						c0.1-1.2,0.1-2.6,0.1-4.2V73l-2.4-2.8l0.2,0.2l0.2,0.2l0,0l-0.3-0.2H546.5c-36.9,0-92.5,0.3-133.5,0.5h-25.3
						c-1.4,1.5-1.9,2.2-1.9,2.4h0.3c0.1,0.1,0,0.2-0.1,0.4v7.4c0.1,10,0.1,19,0.1,26.7c0.1,18.2,0.2,29.4,0.2,29.4
						s-0.1-11.2-0.2-29.4c0-7.7-0.1-16.7-0.1-26.7V74c0.1-0.1,0.1-0.3,0.1-0.4h-0.3c0-0.1,0.2-0.5,1.9-2.4H413
						c41-0.2,96.6-0.5,133.5-0.5h142.2l0.2,0.2c0-0.1-0.1-0.1-0.1-0.2l-0.2-0.2l0,0l2.4,2.8v67l0.3-0.4l0,0L688.8,142.7z
						 M681.6,141.5c-2.1,0-204.7-0.3-249.9-0.6C476.9,141.2,679.5,141.5,681.6,141.5z"/>
					<path style="fill:#E4A1C0;" d="M688.4,139.9c-0.2-0.2-0.8-0.2-1.5-0.2h-64.2l-138.1-0.4l138.1,0.4h63.2
						C687,139.7,688.1,139.6,688.4,139.9v-16.1c0.1-27,0.1-44.7,0.1-44.7l0,0c0,0,0,17.7-0.1,44.7V139.9z"/>
				</g>
			</g>
			<line style="fill:none;stroke:#111111;stroke-width:2;stroke-miterlimit:10;" x1="462.3" y1="57.1" x2="462.3" y2="33.9"/>
			<line style="fill:none;stroke:#111111;stroke-width:2;stroke-miterlimit:10;" x1="235.5" y1="57.1" x2="235.5" y2="33.9"/>
			<line style="fill:none;stroke:#000000;stroke-miterlimit:10;" x1="159.9" y1="42.8" x2="159.9" y2="55.5"/>
			<line style="fill:none;stroke:#000000;stroke-miterlimit:10;" x1="84.3" y1="42.8" x2="84.3" y2="55.5"/>
			<line style="fill:none;stroke:#111111;stroke-width:2;stroke-miterlimit:10;" x1="8.7" y1="57.1" x2="8.7" y2="33.9"/>
			<line style="fill:none;stroke:#111111;stroke-width:2;stroke-miterlimit:10;" x1="689.2" y1="57.1" x2="689.2" y2="33.9"/>
			<line style="fill:none;stroke:#000000;stroke-miterlimit:10;" x1="386.7" y1="42.8" x2="386.7" y2="55.5"/>
			<line style="fill:none;stroke:#000000;stroke-miterlimit:10;" x1="311.1" y1="42.8" x2="311.1" y2="55.5"/>
			<line style="fill:none;stroke:#000000;stroke-miterlimit:10;" x1="613.6" y1="42.8" x2="613.6" y2="55.5"/>
			<line style="fill:none;stroke:#000000;stroke-miterlimit:10;" x1="537.9" y1="42.8" x2="537.9" y2="55.5"/>
		</g>
	</g>
</g>
<path d="M11.2,1.5c3.7,0,6.4,1.2,8,3.6c1.7,2.4,2.5,5.9,2.5,10.4v2c0,4.5-0.8,8-2.5,10.4s-4.3,3.6-8,3.6s-6.4-1.2-8-3.6
	S0.7,22,0.7,17.5v-2c0-4.5,0.8-8,2.5-10.4C4.8,2.7,7.5,1.5,11.2,1.5z M11.2,5.3c-1.2,0-2.2,0.2-3,0.6s-1.5,1-2,1.9s-0.8,1.9-1,3.3
	S4.8,14,4.8,15.8v1.4c0,1.8,0.1,3.4,0.3,4.7s0.6,2.4,1,3.3c0.5,0.9,1.1,1.5,2,1.9c0.8,0.4,1.8,0.6,3,0.6s2.2-0.2,3-0.6s1.5-1,2-1.9
	s0.8-1.9,1-3.3c0.2-1.3,0.3-2.9,0.3-4.7v-1.4c0-1.8-0.1-3.4-0.3-4.7c-0.2-1.3-0.6-2.4-1-3.3C15.7,7,15,6.4,14.2,6
	C13.4,5.5,12.4,5.3,11.2,5.3z"/>
<path d="M235.1,1.7c0.6,0,1.1,0.1,1.5,0.4s0.6,0.7,0.6,1.4v26.1c0,0.6-0.2,1-0.6,1.3c-0.4,0.3-0.9,0.4-1.4,0.4s-1-0.1-1.4-0.4
	s-0.6-0.7-0.6-1.3v-23l-6.2,3.8c-0.5,0.3-1,0.4-1.5,0.2s-0.8-0.5-1.1-1c-0.2-0.4-0.3-0.9-0.2-1.4s0.3-0.9,0.8-1.1l7.3-4.4
	c0.5-0.3,1-0.5,1.5-0.7C234.3,1.8,234.7,1.7,235.1,1.7z"/>
<path d="M461.2,1.5c1.6,0,2.9,0.2,4,0.6s2.1,0.9,2.8,1.6c0.8,0.7,1.3,1.5,1.7,2.4c0.4,0.9,0.6,1.9,0.6,2.9v0.4c0,1.6-0.3,3-1,4.3
	s-1.7,2.7-3.1,4.1l-9.4,9.9h13.4c0.5,0,0.9,0.2,1.1,0.5s0.3,0.7,0.3,1.2s-0.1,0.9-0.3,1.2c-0.2,0.3-0.6,0.5-1.1,0.5h-15.8
	c-1.1,0-1.8-0.2-2.3-0.5c-0.5-0.4-0.7-0.9-0.7-1.7c0-0.4,0.1-0.7,0.3-1c0.2-0.3,0.5-0.7,0.9-1.2l10-10.6c0.7-0.8,1.3-1.4,1.8-2
	s0.8-1.1,1.1-1.7c0.3-0.5,0.5-1,0.6-1.5s0.1-1,0.1-1.6V9.1c0-1.2-0.4-2.2-1.3-2.9c-0.8-0.7-2.1-1.1-3.7-1.1c-1.4,0-2.5,0.3-3.4,0.8
	c-0.9,0.6-1.8,1.4-2.5,2.4c-0.3,0.4-0.7,0.6-1.1,0.7c-0.5,0.1-0.9,0-1.3-0.3s-0.7-0.7-0.8-1.1c-0.1-0.5,0-0.9,0.3-1.4
	c0.9-1.4,2-2.5,3.5-3.4C457.2,1.9,459,1.5,461.2,1.5z"/>
<path d="M688,1.5c1.6,0,2.9,0.2,4.1,0.6c1.2,0.4,2.2,0.9,2.9,1.6c0.8,0.7,1.4,1.5,1.8,2.4c0.4,0.9,0.6,1.9,0.6,2.9v0.2
	c0,0.7-0.1,1.4-0.3,2.1s-0.5,1.3-0.9,1.9c-0.4,0.6-0.9,1.2-1.6,1.6c-0.6,0.5-1.4,0.9-2.3,1.1c0.9,0.1,1.7,0.4,2.5,0.7
	c0.8,0.3,1.4,0.8,2,1.3s1,1.2,1.3,2s0.5,1.7,0.5,2.6V23c0,1.1-0.2,2.2-0.6,3.2c-0.4,1-1.1,1.9-1.9,2.7c-0.9,0.8-1.9,1.4-3.2,1.9
	s-2.8,0.7-4.5,0.7c-3.3,0-6.1-0.8-8.4-2.4c-0.5-0.3-0.8-0.7-0.9-1.3s0-1,0.3-1.5s0.7-0.8,1.1-0.9c0.5-0.1,0.9,0,1.4,0.3
	c1,0.7,2,1.2,3,1.5s2.1,0.5,3.2,0.5c1.1,0,2.1-0.1,3-0.4c0.8-0.3,1.5-0.6,2-1.1s0.9-1,1.1-1.6c0.2-0.6,0.3-1.2,0.3-1.9v-0.3
	c0-0.9-0.2-1.7-0.5-2.3c-0.3-0.6-0.8-1.1-1.4-1.5c-0.6-0.4-1.3-0.6-2-0.8c-0.8-0.2-1.7-0.2-2.6-0.2h-2.3c-0.5,0-0.9-0.2-1.1-0.5
	c-0.2-0.4-0.3-0.8-0.3-1.3s0.1-0.9,0.3-1.3c0.2-0.3,0.6-0.5,1.1-0.5h2c1.7,0,3-0.4,4.1-1.1c1.1-0.8,1.6-2,1.6-3.7v0.1
	c0-1.3-0.4-2.3-1.3-3c-0.9-0.8-2.2-1.1-4-1.1c-1.1,0-2.1,0.2-3,0.6c-0.8,0.4-1.6,1-2.3,1.8c-0.4,0.4-0.8,0.6-1.3,0.5
	c-0.5,0-0.9-0.3-1.2-0.6c-0.4-0.4-0.5-0.8-0.5-1.3s0.2-0.9,0.5-1.3c0.8-1,1.9-1.8,3.2-2.4C684.8,1.8,686.3,1.5,688,1.5z"/>
<g>
	
		<line style="fill:none;stroke:#007E35;stroke-width:1.2997;stroke-dasharray:3.899,2.5993;" x1="387.1" y1="76.6" x2="387.1" y2="135.6"/>
	<path style="fill:#E4007F;" d="M497.1,168.5c0,0,0.2-0.7,0.5,0.3l0.5,0.7l0.7,0.4l0.1,0.6c0.1-1.5-1.3,4.8-15.6-0.9
		c-0.2,0-5-3.1-10-9.3c1.2,0-5.2-2.5-1-9.9c1.4-1.5,6-5.3,9.9-1.7c3.7,2,3.1,9.7-1.4,10.9c-8.9,4-15.5-4.8-17.6-9.5
		c-2.7-5.3-3.6-9.5-3.8-10.5c0.2-0.1,1.6,8.8,7.7,16.2c2.9,3.7,8.4,6,12.6,4.4c4.1-1.5,5.3-5.3,5.1-6c0.1-0.1-0.3,3.3-3.6,5.2
		c-3.2,2.2-8.8,1.3-12.2-1.9c-6.8-6.4-8.6-15.7-8.8-16.8c0.1-0.1,1.7,8.1,7.3,14.8c6.1,8.9,18.2,2.3,16.6-0.6
		c1.5,0.2-6.2,9.1-13.8,2.6c-6.4-5.2-8.3-13.8-8.8-15.3c-0.1,0,1.7,5.4,2.6,6.6l-1-2.4c0.4,1.3,1.2,2.5,1.8,3.8l1.2,2.1
		c-0.2,0.1-3-5.9-2.9-6.4c0.3-0.2-2.1-2.3,4.2,7.7c0,0,0.9,1.5,3.5,3.5c2,1.9,8.9,4,12.1-2c1.2-2.7-2.1-7.1-5.5-6
		c-3.5,1.2-6.7,5.2-3.2,8.8C479.3,164.1,487.4,173.1,497.1,168.5"/>
	<path style="fill:none;stroke:#F19EC2;stroke-width:7.798041e-03;" d="M499.5,170.5c0-0.1-4.2,2.7-11.1,1.4
		c-6.9-2.3-13.2-7.7-17.6-16.4c-0.4,0.7-0.5-4.7,3.1-6.5c2.5-3.9,12.9-1.6,11.1,6.4c-2.4,6.6-10.4,6.5-14,4.1c-3.9-2.4-5.4-5.3-6-6
		c-0.5,0.2-5.4-9.6-6.3-15.9"/>
	<path style="fill:none;stroke:#E4007F;stroke-width:7.798041e-03;" d="M483.7,156.2c1,0-6,7.5-13.1,2c-6.3-4.5-8.5-12.7-9.6-15.2
		 M484.8,155.6c0.7-0.7,0.4-4.5-1.7-6.4c-1.9-3.3-8.1-2.3-9.9,0.2c-3.5,1.7-3.1,8-1.3,9.1c1.3,2,2.2,3,2.2,3
		c3,3.1,7.6,9.1,14.3,10.5c6.4,1.2,11-1.6,11-1.5"/>
	<path style="fill:none;stroke:#F19EC2;stroke-width:7.798041e-03;" d="M480.5,149.7c-0.1,0,1.7,1.1,2.5,3.6c0.4,2.7-3,5.9-6.7,5.6
		c-7.8-0.8-11.2-9.7-11.6-10.4"/>
	<path style="fill:#E4007F;" d="M486.5,179.8c0,0,0.1,0.6-0.3-0.3l-0.4-0.7l-0.4-0.5l-0.2-0.6c0,0,0.4-0.4,5.2-3
		c0,0,1.8-1.2,4.5-2.5c0,0,1.2-0.5,3.1-1.4c0.5,0.6,3-3.2,2.2,0.9l-2.3-3.3c-3.1-4.6-6.4-9.4-6.7-10.1c0,0,7.3,11.3,8,11.9
		c0,0-7.1-10.7-7.4-11.7c0,0,6.8,10.5,7.8,11.1c0,0-6.3-9.6-6.7-11c0,0,1.1,1.9,1.5,2.3l-0.5-0.9l0.9,1.4l0.5,0.8
		c0,0-1.3-2.3-1.2-2.5c0,0-0.8-0.9,1.9,2.9c0,0,1.4,2.4,4.2,6.3c3.3,2.4-1.5,3.5-4,5.1C493.2,175.6,490,177.6,486.5,179.8"/>
	<path style="fill:none;stroke:#F19EC2;stroke-width:7.798041e-03;" d="M484.8,177.6c0,0,5.9-3.2,11.6-6.2c0,0,0.8-0.4,2-0.9l2.1-1
		c-1.1,4.9-1.2,0.1-1.9,0.6c-2.1-3-4.3-6.2-4.7-6.9c0,0-2.3-3.4-3.5-5.5"/>
	<path style="fill:none;stroke:#E4007F;stroke-width:7.798041e-03;" d="M499.2,169.3c0,0-5.6-8.4-6.8-10.3 M498.7,170.1
		c0.1,0.2,0.6,0.9,1.1,1.7c2-4.6-1.1-0.5-1.5-1.2c-2.1,1-4,1.9-4,1.9c-3.1,1.4-9.5,5.2-9.5,5.2"/>
	<path style="fill:none;stroke:#F19EC2;stroke-width:7.798041e-03;" d="M501.6,171.3c0.4-0.7-6.3-9.9-6.6-10.9"/>
	<path style="fill:#E4007F;" d="M389.8,127.6c0,0,0.9,3.9-0.6,3.7l-1.2,1.6l-0.9,3.9l-0.9-1.1c0,0-0.1-2.6-0.2-19.5
		c-0.1-8.5-0.1-20.5-0.2-37.6l0-6.7c4.3-4.7,5.2-1.3,8.2-2.4c4.9,0,10.2-0.1,15.8-0.1c11.3-0.1,24-0.1,38.3-0.2
		c0,0,45.9-0.5,107.8-0.5c0,0,28.1,0,70.7,0c10.7,0,22.2,0,34.5,0c6.1,0,12.4,0,18.9,0l4.9,0l2.5,0c1.4,1.1-1.4-2.6,3.5,2.6l0,1.2
		l0,10c0,13.4,0,27.4,0,41.6l0,10.7l0,5.4v1.3c-4.7,5.1-2.1,1.4-3.5,2.6l-2.7,0l-21.8,0c-116.5-0.1-237.1-0.3-254-0.6
		c0,0,70.4,0.2,143,0.4c36.3,0.1,73.2,0.2,102,0.2c7.2,0,13.9,0,20,0c3,0,5.9,0,8.7,0h3.9h1.9c4.7-5,1.3-2.4,2.4-4
		c0-9.4,0-15.7,0-18c0,0,0,4.2,0,11.6c0,1.8,0,3.9,0,6.1l0,1.7c-4.5,4.8-2.3,1.3-3.7,2.4l-3.8,0c-5.2,0-11,0-17.4,0
		c-25.6-0.1-59.9-0.2-94.8-0.3c-69.9-0.2-142.4-0.5-152.7-0.8c0,0,65.3,0.2,133.5,0.3c34.1,0.1,68.9,0.1,96.7,0.1
		c13.9,0,26,0,35.3-0.1l3.4,0c1-0.7,0,1.6,2.7-1.6l0-1.5c0-2,0-3.8,0-5.4c0-3.2-0.1-5.6-0.1-7c0,0,0,3.8,0,10.4l0,2.6
		c-0.6,0.9,1.4,0-1.4,2.3l-1.5,0c-2,0-4.2,0-6.5,0c-4.6,0-9.9,0-15.6,0c-23-0.1-53.9-0.2-85.8-0.3c-63.7-0.2-131.1-0.6-145.6-0.9
		c0,0,46.1,0.3,58.4,0.2l-21.5-0.2l34.6,0l20,0.1c0,0-54.2-0.4-57.9-0.7c0,0-24.7,0.3,73.1,0.2c0,0,14.5,0.1,41.5,0.2
		c13.5,0,30.2,0.1,49.9,0.1c9.8,0,20.4,0,31.6,0c5.6,0,11.4,0,17.4,0c2.6-0.3,7,0.7,8.1-0.7l0-9.3c0-12.6,0-25.9,0-39.9
		c-0.3-6.5,0.5-15.1-0.6-20.4c-7.3,0-14.7,0-22.3,0.1c-30.4,0.1-63.3,0.2-98.4,0.4c-35.1,0.2-72.5,0.4-111.8,0.7
		c-19.7,0.2-39.9,0.3-60.5,0.5c-1.4-0.5-7.9,1.2-5-1.1l0.1,7.8l0.2,15.8C389.6,106.2,389.7,116.9,389.8,127.6"/>
	<path style="fill:none;stroke:#F19EC2;stroke-width:1.039739e-02;" d="M385.7,139.1c0,0,0-8.7-0.1-23.9c0-7.6-0.1-16.8-0.1-27.4
		c1-6-2.2-9.2,2.1-18.5c5.9,0,12.1-0.1,18.6-0.1c51.8-0.2,120.6-0.5,188.4-0.7c0,0,18.4,0,46.5,0c7,0,14.7,0,22.8,0
		c4.1,0,8.2,0,12.5,0l6.5,0h3.3l1.7,0h0.2h0.1c-0.5-0.6,5.1,5.1,2.7,2.8v0.4v0.8c0,17.8,0,37,0,56.4l0,7.3l0,3.6l0,1.8v0.1
		c2.4-2.3-3.2,3.3-2.7,2.7h-0.2h-0.5h-0.9l-14.6,0c-9.7,0-19.3,0-28.7,0c-18.8,0-36.8,0-52.8,0c-32.1,0-56.4-0.1-64.3-0.1
		c0,0-85.4-0.1-136.1-0.4"/>
	<path style="fill:none;stroke:#E4007F;stroke-width:1.039739e-02;" d="M689.6,135.9c0,0,0,0.8,0,2.4c0,0.8,0,1.7,0,2.9
		c-2.3,4.3-2.8,1.2-4.5,2.2c-5.9,0-14.3,0-24.5,0c-20.5,0-48.3-0.1-77.5-0.2c-58.5-0.1-122.7-0.3-145.8-0.4 M690.9,130
		c0-6,0.1-21.6,0.1-41.7c0-5,0-10.3,0-15.8v-1v-0.1v-0.1c-5.5-5.5-1.6-1.5-2.8-2.8h-0.3h-0.5h-2.1H681l-8.6,0c-11.6,0-23.7,0-35.6,0
		c-47.7,0-92.3,0-92.3,0c-35.7,0-91.9,0.3-139.3,0.5c-5.9,0-11.7,0.1-17.3,0.1c-5.3,8.5-1.4,11.8-2.6,17.6
		c0.1,10.3,0.1,19.5,0.2,27.3c0.1,15.5,0.2,25.1,0.2,25.1"/>
	<path style="fill:none;stroke:#F19EC2;stroke-width:1.039739e-02;" d="M687.8,76.4c0,0,0,15.2-0.1,38.2c0,5.8,0,12,0,18.7
		c-0.5,2.3,1.1,8.9-1.2,8l-10.7,0c-14.6,0-30.2-0.1-46-0.1c-63.2-0.2-129-0.4-139.2-0.5"/>
</g>
</svg>
