
<svg xmlns="http://www.w3.org/2000/svg" version="1.1" xmlns:xlink="http://www.w3.org/1999/xlink" preserveAspectRatio="none" x="0px" y="0px" width="1280px" height="720px" viewBox="0 0 1280 720">
<defs>
<g id="Layer1_0_FILL">
<path fill="#1E1E1E" stroke="none" d="
M 938.85 575.8
Q 938.25 575.8 938.15 575.95 938 576.05 938 576.5
L 937.8 591.25
Q 937.8 592.6 939.35 591.95 940.6 591.5 942 591.25 943.4 590.95 944.7 590.95 948 590.95 949.4 592.5 950.85 594 950.85 596.6 950.85 599.3 949.05 600.8 947.35 602.35 944.65 602.35 943.95 602.35 943.1 602.25 942.3 602.2 941.45 602.05 940.6 601.85 939.8 601.65 939 601.4 938.45 601.1 937.6 600.7 937.6 601.4
L 937.6 604.65
Q 937.6 604.95 937.6 605.1 937.65 605.2 937.9 605.4 938.55 605.7 939.5 605.9 940.4 606.15 941.35 606.3 942.3 606.4 943.1 606.5 943.95 606.55 944.35 606.55 946.65 606.55 948.7 605.9 950.8 605.25 952.2 603.95 955.35 601.15 955.35 596.1 955.35 594 954.6 592.35 953.85 590.65 952.55 589.45 951.25 588.3 949.5 587.65 947.75 587.05 945.75 587.05 943.8 587.05 942.2 587.4
L 942.35 580 953.5 580
Q 953.75 580 953.9 579.8 954 579.65 954 579.4
L 954 576.35
Q 954 576.15 953.9 576 953.75 575.8 953.5 575.8
L 938.85 575.8
M 824.6 568.3
Q 824.45 568.2 824.25 568.2
L 803.15 568.2
Q 802.95 568.2 802.8 568.3 802.65 568.45 802.65 568.65
L 802.65 571.8
Q 802.65 572.05 802.8 572.15 802.95 572.3 803.15 572.3
L 824.25 572.3
Q 824.45 572.3 824.6 572.15 824.75 572.05 824.75 571.8
L 824.75 568.65
Q 824.75 568.45 824.6 568.3
M 824.6 560
Q 824.45 559.85 824.25 559.85
L 803.15 559.85
Q 802.95 559.85 802.8 560 802.65 560.15 802.65 560.35
L 802.65 563.5
Q 802.65 563.7 802.8 563.85 802.95 564 803.15 564
L 824.25 564
Q 824.45 564 824.6 563.85 824.75 563.7 824.75 563.5
L 824.75 560.35
Q 824.75 560.15 824.6 560
M 745.15 591.25
Q 745.15 592.6 746.7 591.95 747.95 591.5 749.35 591.25 750.75 590.95 752.05 590.95 755.35 590.95 756.75 592.5 758.2 594 758.2 596.6 758.2 599.3 756.4 600.8 754.7 602.35 752 602.35 751.3 602.35 750.45 602.25 749.65 602.2 748.8 602.05 747.95 601.85 747.15 601.65 746.35 601.4 745.8 601.1 744.95 600.7 744.95 601.4
L 744.95 604.65
Q 744.95 604.95 744.95 605.1 745 605.2 745.25 605.4 745.9 605.7 746.85 605.9 747.75 606.15 748.7 606.3 749.65 606.4 750.45 606.5 751.3 606.55 751.7 606.55 754 606.55 756.05 605.9 758.15 605.25 759.55 603.95 762.7 601.15 762.7 596.1 762.7 594 761.95 592.35 761.2 590.65 759.9 589.45 758.6 588.3 756.85 587.65 755.1 587.05 753.1 587.05 751.15 587.05 749.55 587.4
L 749.7 580 760.85 580
Q 761.1 580 761.25 579.8 761.35 579.65 761.35 579.4
L 761.35 576.35
Q 761.35 576.15 761.25 576 761.1 575.8 760.85 575.8
L 746.2 575.8
Q 745.6 575.8 745.5 575.95 745.35 576.05 745.35 576.5
L 745.15 591.25
M 682.1 563.85
Q 682.25 564 682.45 564
L 703.55 564
Q 703.75 564 703.9 563.85 704.05 563.7 704.05 563.5
L 704.05 560.35
Q 704.05 560.15 703.9 560 703.75 559.85 703.55 559.85
L 682.45 559.85
Q 682.25 559.85 682.1 560 681.95 560.15 681.95 560.35
L 681.95 563.5
Q 681.95 563.7 682.1 563.85
M 682.45 568.2
Q 682.25 568.2 682.1 568.3 681.95 568.45 681.95 568.65
L 681.95 571.8
Q 681.95 572.05 682.1 572.15 682.25 572.3 682.45 572.3
L 703.55 572.3
Q 703.75 572.3 703.9 572.15 704.05 572.05 704.05 571.8
L 704.05 568.65
Q 704.05 568.45 703.9 568.3 703.75 568.2 703.55 568.2
L 682.45 568.2
M 566.65 575.95
Q 566.5 576.05 566.5 576.5
L 566.3 591.25
Q 566.3 592.6 567.85 591.95 569.1 591.5 570.5 591.25 571.9 590.95 573.2 590.95 576.5 590.95 577.9 592.5 579.35 594 579.35 596.6 579.35 599.3 577.55 600.8 575.85 602.35 573.15 602.35 572.45 602.35 571.6 602.25 570.8 602.2 569.95 602.05 569.1 601.85 568.3 601.65 567.5 601.4 566.95 601.1 566.1 600.7 566.1 601.4
L 566.1 604.65
Q 566.1 604.95 566.1 605.1 566.15 605.2 566.4 605.4 567.05 605.7 568 605.9 568.9 606.15 569.85 606.3 570.8 606.4 571.6 606.5 572.45 606.55 572.85 606.55 575.15 606.55 577.2 605.9 579.3 605.25 580.7 603.95 583.85 601.15 583.85 596.1 583.85 594 583.1 592.35 582.35 590.65 581.05 589.45 579.75 588.3 578 587.65 576.25 587.05 574.25 587.05 572.3 587.05 570.7 587.4
L 570.85 580 582 580
Q 582.25 580 582.4 579.8 582.5 579.65 582.5 579.4
L 582.5 576.35
Q 582.5 576.15 582.4 576 582.25 575.8 582 575.8
L 567.35 575.8
Q 566.75 575.8 566.65 575.95
M 563.5 527.95
Q 563.6 528.1 563.8 528.1
L 572.3 528.1 572.3 536.55
Q 572.3 537.05 572.75 537.05
L 576.05 537.05
Q 576.5 537.05 576.5 536.55
L 576.5 528.1 584.95 528.1
Q 585.45 528.1 585.45 527.6
L 585.45 524.5
Q 585.45 524 584.95 524
L 576.5 524 576.5 515.6
Q 576.5 515.45 576.4 515.25 576.25 515.15 576.05 515.15
L 572.75 515.15
Q 572.6 515.15 572.4 515.25 572.3 515.45 572.3 515.6
L 572.3 524 563.8 524
Q 563.6 524 563.5 524.15 563.35 524.3 563.35 524.5
L 563.35 527.6
Q 563.35 527.8 563.5 527.95
M 322.55 529.7
Q 321.7 528.2 320.35 527.3 319.05 526.4 317.3 525.95 315.55 525.5 313.75 525.5 312.05 525.5 310.4 525.85 308.7 526.25 306.95 526.85 306.55 527.05 306.4 527.25 306.25 527.4 306.35 527.65
L 306.7 530.6
Q 306.8 530.95 307 531.05 307.2 531.15 307.7 530.95 308.3 530.7 309.1 530.45 309.9 530.2 310.7 530.05 311.5 529.85 312.25 529.75 312.95 529.65 313.5 529.65 314.35 529.65 315.3 529.85 316.25 530.05 317.1 530.55 317.9 531 318.45 531.8 318.95 532.55 318.95 533.55 318.95 534.9 318.15 535.8 317.35 536.75 316.15 537.35 315 537.95 313.75 538.2 312.5 538.45 311.65 538.45
L 309.75 538.45
Q 309.4 538.45 309.3 538.55 309.2 538.6 309.2 539
L 309.2 541.95
Q 309.2 542.25 309.3 542.35 309.4 542.45 309.75 542.45
L 311.7 542.45
Q 313.65 542.45 315 542.85 316.4 543.2 317.3 543.9 318.15 544.55 318.6 545.4 319 546.25 319 547.2 319 549.85 317.05 551.2 316.4 551.65 315.65 551.9 314.85 552.2 314 552.3 313.15 552.4 312.25 552.35 311.35 552.3 310.55 552.25 309.45 552.15 308.4 551.85 307.35 551.55 306.3 551.25 305.75 551 305.55 551.15 305.35 551.25 305.3 551.6
L 304.95 554.65
Q 304.9 555 305.1 555.15 305.25 555.35 305.65 555.45 307.1 556 308.85 556.3 310.6 556.6 312.35 556.6 314.65 556.6 316.8 556 318.95 555.45 320.45 554.2 321.95 552.95 322.8 551.2 323.6 549.4 323.6 547.3 323.6 545.1 322.25 543.3 320.9 541.55 318.25 540.4 319.35 539.9 320.3 539.15 321.25 538.4 321.95 537.4 322.65 536.45 323.05 535.4 323.4 534.3 323.4 533.2 323.4 531.2 322.55 529.7
M 322.4 580
Q 322.65 580 322.8 579.8 322.9 579.65 322.9 579.4
L 322.9 576.35
Q 322.9 576.15 322.8 576 322.65 575.8 322.4 575.8
L 307.75 575.8
Q 307.15 575.8 307.05 575.95 306.9 576.05 306.9 576.5
L 306.7 591.25
Q 306.7 592.6 308.25 591.95 309.5 591.5 310.9 591.25 312.3 590.95 313.6 590.95 316.9 590.95 318.3 592.5 319.75 594 319.75 596.6 319.75 599.3 317.95 600.8 316.25 602.35 313.55 602.35 312.85 602.35 312 602.25 311.2 602.2 310.35 602.05 309.5 601.85 308.7 601.65 307.9 601.4 307.35 601.1 306.5 600.7 306.5 601.4
L 306.5 604.65
Q 306.5 604.95 306.5 605.1 306.55 605.2 306.8 605.4 307.45 605.7 308.4 605.9 309.3 606.15 310.25 606.3 311.2 606.4 312 606.5 312.85 606.55 313.25 606.55 315.55 606.55 317.6 605.9 319.7 605.25 321.1 603.95 324.25 601.15 324.25 596.1 324.25 594 323.5 592.35 322.75 590.65 321.45 589.45 320.15 588.3 318.4 587.65 316.65 587.05 314.65 587.05 312.7 587.05 311.1 587.4
L 311.25 580 322.4 580
M 398.15 545
Q 398 545.15 397.85 545.45 397.65 545.75 397.65 546
L 397.65 549
Q 397.65 549.3 397.8 549.35 397.95 549.45 398.3 549.45
L 411.1 549.45 411.1 555.55
Q 411.1 555.95 411.25 556.1 411.4 556.25 411.85 556.25
L 414.75 556.25
Q 415.15 556.25 415.25 556.1 415.4 556 415.4 555.55
L 415.4 549.45 419.1 549.45
Q 419.45 549.45 419.6 549.35 419.75 549.25 419.75 548.85
L 419.75 545.95
Q 419.75 545.55 419.6 545.45 419.45 545.35 419.1 545.35
L 415.4 545.35 415.4 526.45
Q 415.4 526.1 415.35 526 415.3 525.85 415 525.85
L 411.35 525.85
Q 410.95 525.85 410.85 525.95 410.75 526.05 410.55 526.4
L 398.15 545
M 411.1 532.3
L 411.1 545.35 402.5 545.35 411.1 532.3
M 401.75 575.8
Q 401.15 575.8 401.05 575.95 400.9 576.05 400.9 576.5
L 400.7 591.25
Q 400.7 592.6 402.25 591.95 403.5 591.5 404.9 591.25 406.3 590.95 407.6 590.95 410.9 590.95 412.3 592.5 413.75 594 413.75 596.6 413.75 599.3 411.95 600.8 410.25 602.35 407.55 602.35 406.85 602.35 406 602.25 405.2 602.2 404.35 602.05 403.5 601.85 402.7 601.65 401.9 601.4 401.35 601.1 400.5 600.7 400.5 601.4
L 400.5 604.65
Q 400.5 604.95 400.5 605.1 400.55 605.2 400.8 605.4 401.45 605.7 402.4 605.9 403.3 606.15 404.25 606.3 405.2 606.4 406 606.5 406.85 606.55 407.25 606.55 409.55 606.55 411.6 605.9 413.7 605.25 415.1 603.95 418.25 601.15 418.25 596.1 418.25 594 417.5 592.35 416.75 590.65 415.45 589.45 414.15 588.3 412.4 587.65 410.65 587.05 408.65 587.05 406.7 587.05 405.1 587.4
L 405.25 580 416.4 580
Q 416.65 580 416.8 579.8 416.9 579.65 416.9 579.4
L 416.9 576.35
Q 416.9 576.15 416.8 576 416.65 575.8 416.4 575.8
L 401.75 575.8
M 363.95 555.6
Q 363.95 555.45 363.85 555.25 363.7 555.15 363.5 555.15
L 360.2 555.15
Q 360.05 555.15 359.85 555.25 359.75 555.45 359.75 555.6
L 359.75 564 351.25 564
Q 351.05 564 350.95 564.15 350.8 564.3 350.8 564.5
L 350.8 567.6
Q 350.8 567.8 350.95 567.95 351.05 568.1 351.25 568.1
L 359.75 568.1 359.75 576.55
Q 359.75 577.05 360.2 577.05
L 363.5 577.05
Q 363.95 577.05 363.95 576.55
L 363.95 568.1 372.4 568.1
Q 372.9 568.1 372.9 567.6
L 372.9 564.5
Q 372.9 564 372.4 564
L 363.95 564 363.95 555.6
M 467.1 564
Q 467.3 564 467.45 563.85 467.6 563.7 467.6 563.5
L 467.6 560.35
Q 467.6 560.15 467.45 560 467.3 559.85 467.1 559.85
L 446 559.85
Q 445.8 559.85 445.65 560 445.5 560.15 445.5 560.35
L 445.5 563.5
Q 445.5 563.7 445.65 563.85 445.8 564 446 564
L 467.1 564
M 467.6 568.65
Q 467.6 568.45 467.45 568.3 467.3 568.2 467.1 568.2
L 446 568.2
Q 445.8 568.2 445.65 568.3 445.5 568.45 445.5 568.65
L 445.5 571.8
Q 445.5 572.05 445.65 572.15 445.8 572.3 446 572.3
L 467.1 572.3
Q 467.3 572.3 467.45 572.15 467.6 572.05 467.6 571.8
L 467.6 568.65 Z"/>

<path fill="#FFFFFF" stroke="none" d="
M 961.8 495.3
L 931.8 495.3
Q 925.5 495.3 921.85 497.95 916.8 501.6 916.8 510.3
L 916.8 540.35
Q 916.8 555.35 931.8 555.35
L 961.8 555.35
Q 976.8 555.35 976.8 540.35
L 976.8 526.3 976.8 510.3
Q 976.8 495.3 961.8 495.3
M 888.9 534.85
L 858.9 534.85
Q 843.9 534.85 843.9 549.85
L 843.9 579.9
Q 843.9 594.9 858.9 594.9
L 888.9 594.9
Q 903.9 594.9 903.9 579.9
L 903.9 549.85
Q 903.9 534.85 888.9 534.85
M 723.2 510.3
L 723.2 540.35
Q 723.2 555.35 738.2 555.35
L 768.2 555.35
Q 783.2 555.35 783.2 540.35
L 783.2 510.3
Q 783.2 495.3 768.2 495.3
L 738.2 495.3
Q 723.2 495.3 723.2 510.3
M 548.1 510.3
Q 548.1 495.3 533.1 495.3
L 503.1 495.3
Q 488.1 495.3 488.1 510.3
L 488.1 540.35
Q 488.1 555.35 503.1 555.35
L 533.1 555.35
Q 548.1 555.35 548.1 540.35
L 548.1 510.3
M 660.6 540.35
L 660.6 510.3
Q 660.6 495.3 645.6 495.3
L 615.6 495.3
Q 600.6 495.3 600.6 510.3
L 600.6 540.35
Q 600.6 555.35 615.6 555.35
L 645.6 555.35
Q 660.6 555.35 660.6 540.35 Z"/>
</g>

<path id="Layer1_0_1_STROKES" stroke="#1E1E1E" stroke-width="3" stroke-linejoin="miter" stroke-linecap="butt" stroke-miterlimit="3" fill="none" d="
M 721.85 564.8
L 784.6 564.8
M 914.45 564.8
L 977.2 564.8
M 389.7 565.8
L 427.9 565.8
M 295.7 565.8
L 333.9 565.8
M 485 564.8
L 663.75 564.8"/>

<path id="Layer1_0_2_STROKES" stroke="#DBDBDB" stroke-width="3" stroke-linejoin="round" stroke-linecap="round" fill="none" d="
M 858.9 534.85
L 888.9 534.85
Q 903.9 534.85 903.9 549.85
L 903.9 579.9
Q 903.9 594.9 888.9 594.9
L 858.9 594.9
Q 843.9 594.9 843.9 579.9
L 843.9 549.85
Q 843.9 534.85 858.9 534.85 Z
M 931.8 495.3
L 961.8 495.3
Q 976.8 495.3 976.8 510.3
L 976.8 526.3 976.8 540.35
Q 976.8 555.35 961.8 555.35
L 931.8 555.35
Q 916.8 555.35 916.8 540.35
L 916.8 510.3
Q 916.8 501.6 921.85 497.95 925.5 495.3 931.8 495.3 Z
M 738.2 495.3
L 768.2 495.3
Q 783.2 495.3 783.2 510.3
L 783.2 540.35
Q 783.2 555.35 768.2 555.35
L 738.2 555.35
Q 723.2 555.35 723.2 540.35
L 723.2 510.3
Q 723.2 495.3 738.2 495.3 Z
M 615.6 495.3
L 645.6 495.3
Q 660.6 495.3 660.6 510.3
L 660.6 540.35
Q 660.6 555.35 645.6 555.35
L 615.6 555.35
Q 600.6 555.35 600.6 540.35
L 600.6 510.3
Q 600.6 495.3 615.6 495.3 Z
M 503.1 495.3
L 533.1 495.3
Q 548.1 495.3 548.1 510.3
L 548.1 540.35
Q 548.1 555.35 533.1 555.35
L 503.1 555.35
Q 488.1 555.35 488.1 540.35
L 488.1 510.3
Q 488.1 495.3 503.1 495.3 Z"/>
</defs>

<g transform="matrix( 1, 0, 0, 1, 0,0) ">
<use xlink:href="#Layer1_0_FILL"/>

<use xlink:href="#Layer1_0_1_STROKES"/>

<use xlink:href="#Layer1_0_2_STROKES"/>
</g>
</svg>
