<?xml version="1.0" encoding="utf-8"?>
<!-- Generator: Adobe Illustrator 16.0.0, SVG Export Plug-In . SVG Version: 6.00 Build 0)  -->
<!DOCTYPE svg PUBLIC "-//W3C//DTD SVG 1.1//EN" "http://www.w3.org/Graphics/SVG/1.1/DTD/svg11.dtd" [
	<!ENTITY ns_extend "http://ns.adobe.com/Extensibility/1.0/">
	<!ENTITY ns_ai "http://ns.adobe.com/AdobeIllustrator/10.0/">
	<!ENTITY ns_graphs "http://ns.adobe.com/Graphs/1.0/">
	<!ENTITY ns_vars "http://ns.adobe.com/Variables/1.0/">
	<!ENTITY ns_imrep "http://ns.adobe.com/ImageReplacement/1.0/">
	<!ENTITY ns_sfw "http://ns.adobe.com/SaveForWeb/1.0/">
	<!ENTITY ns_custom "http://ns.adobe.com/GenericCustomNamespace/1.0/">
	<!ENTITY ns_adobe_xpath "http://ns.adobe.com/XPath/1.0/">
]>
<svg version="1.1" id="Layer_1" xmlns:x="&ns_extend;" xmlns:i="&ns_ai;" xmlns:graph="&ns_graphs;"
	 xmlns="http://www.w3.org/2000/svg" xmlns:xlink="http://www.w3.org/1999/xlink" x="0px" y="0px" width="470px" height="310px"
	 viewBox="0 0 470 310" enable-background="new 0 0 470 310" xml:space="preserve">
<metadata>
	<sfw  xmlns="&ns_sfw;">
		<slices></slices>
		<sliceSourceBounds  height="303" width="354.875" y="146" x="243.063" bottomLeftOrigin="true"></sliceSourceBounds>
	</sfw>
</metadata>
<polygon fill="none" stroke="#040000" stroke-width="3" stroke-linejoin="round" points="59.063,63.118 235.01,5 410.938,63.118 
	410.938,246.891 235.01,305 59.063,246.891 "/>
<g>
	<path fill="#040000" d="M235.736,127.641c0.704,0.683,1.056,1.942,1.056,3.776v11.84c0,1.835-0.352,3.094-1.056,3.776
		c-0.704,0.683-1.995,1.024-3.872,1.024h-13.696c-0.512,0-0.864,0.096-1.056,0.288c-0.192,0.192-0.288,0.523-0.288,0.992v8.448
		c0,0.471,0.096,0.801,0.288,0.992c0.192,0.192,0.544,0.288,1.056,0.288c4.266,0,8.213-0.106,11.84-0.32
		c3.626-0.213,7.168-0.554,10.624-1.023c0.725-0.085,1.313,0.096,1.76,0.544c0.449,0.448,0.715,1.035,0.801,1.76
		c0.084,0.768-0.012,1.462-0.289,2.08c-0.277,0.619-0.777,0.971-1.504,1.056c-1.492,0.214-3.104,0.406-4.831,0.576
		c-1.728,0.171-3.638,0.32-5.728,0.448c-2.091,0.128-4.406,0.224-6.944,0.288c-2.539,0.063-5.366,0.096-8.48,0.096
		c-1.878,0-3.168-0.341-3.872-1.023s-1.056-1.941-1.056-3.776v-12.224c0-1.834,0.352-3.082,1.056-3.744
		c0.704-0.661,1.994-0.992,3.872-0.992h13.76c0.896,0,1.344-0.448,1.344-1.344V133.4c0-0.853-0.448-1.28-1.344-1.28h-16.448
		c-0.811,0-1.387-0.277-1.728-0.832c-0.342-0.554-0.512-1.194-0.512-1.92c0-0.725,0.17-1.365,0.512-1.92
		c0.341-0.554,0.917-0.832,1.728-0.832h19.136C233.741,126.617,235.032,126.958,235.736,127.641z M250.425,122.648
		c0.852,0,1.6,0.214,2.24,0.64c0.639,0.427,0.959,1.11,0.959,2.048v16.64h7.041c0.852,0,1.461,0.267,1.822,0.8
		c0.363,0.534,0.545,1.184,0.545,1.952s-0.182,1.43-0.545,1.984c-0.361,0.555-0.971,0.832-1.822,0.832h-7.041v27.712
		c0,0.938-0.32,1.62-0.959,2.048c-0.641,0.426-1.389,0.64-2.24,0.64c-0.855,0-1.6-0.214-2.24-0.64
		c-0.641-0.428-0.961-1.11-0.961-2.048v-49.92c0-0.938,0.32-1.621,0.961-2.048C248.825,122.863,249.569,122.648,250.425,122.648z"/>
</g>
</svg>
