<?xml version="1.0" encoding="utf-8"?>
<!-- Generator: Adobe Illustrator 16.0.0, SVG Export Plug-In . SVG Version: 6.00 Build 0)  -->
<!DOCTYPE svg PUBLIC "-//W3C//DTD SVG 1.1//EN" "http://www.w3.org/Graphics/SVG/1.1/DTD/svg11.dtd" [
	<!ENTITY ns_extend "http://ns.adobe.com/Extensibility/1.0/">
	<!ENTITY ns_ai "http://ns.adobe.com/AdobeIllustrator/10.0/">
	<!ENTITY ns_graphs "http://ns.adobe.com/Graphs/1.0/">
	<!ENTITY ns_vars "http://ns.adobe.com/Variables/1.0/">
	<!ENTITY ns_imrep "http://ns.adobe.com/ImageReplacement/1.0/">
	<!ENTITY ns_sfw "http://ns.adobe.com/SaveForWeb/1.0/">
	<!ENTITY ns_custom "http://ns.adobe.com/GenericCustomNamespace/1.0/">
	<!ENTITY ns_adobe_xpath "http://ns.adobe.com/XPath/1.0/">
]>
<svg version="1.1" id="Layer_1" xmlns:x="&ns_extend;" xmlns:i="&ns_ai;" xmlns:graph="&ns_graphs;"
	 xmlns="http://www.w3.org/2000/svg" xmlns:xlink="http://www.w3.org/1999/xlink" x="0px" y="0px" width="470px" height="310px"
	 viewBox="0 0 470 310" enable-background="new 0 0 470 310" xml:space="preserve">
<metadata>
	<sfw  xmlns="&ns_sfw;">
		<slices></slices>
		<sliceSourceBounds  height="303" width="465.848" y="-449.141" x="188.021" bottomLeftOrigin="true"></sliceSourceBounds>
	</sfw>
</metadata>
<polygon fill="none" stroke="#040000" stroke-width="3" stroke-linejoin="round" points="466.424,154.998 234.994,305 
	3.576,154.998 235,5 "/>
<g>
	<path fill="#040000" d="M231.863,127.063c1.877,0,3.168,0.342,3.872,1.024c0.704,0.683,1.056,1.942,1.056,3.776v7.104
		c0,1.792-0.107,3.403-0.32,4.832c-0.213,1.43-0.619,2.784-1.215,4.064c-0.598,1.28-1.419,2.528-2.464,3.744
		c-1.046,1.216-2.411,2.496-4.096,3.84c-1.686,1.344-3.723,2.807-6.112,4.383c-2.39,1.58-5.206,3.371-8.448,5.377
		c-0.726,0.428-1.451,0.502-2.176,0.225c-0.726-0.277-1.302-0.715-1.728-1.313c-0.427-0.598-0.63-1.301-0.608-2.111
		c0.021-0.811,0.394-1.451,1.12-1.92c2.986-1.834,5.546-3.445,7.68-4.833c2.133-1.386,3.936-2.645,5.408-3.776
		c1.472-1.13,2.634-2.176,3.488-3.136c0.853-0.96,1.514-1.92,1.984-2.88c0.469-0.96,0.768-1.984,0.896-3.072s0.192-2.314,0.192-3.68
		v-4.8c0-0.469-0.096-0.8-0.288-0.992c-0.192-0.192-0.544-0.288-1.056-0.288h-16.512c-0.811,0-1.398-0.277-1.76-0.832
		c-0.363-0.554-0.544-1.194-0.544-1.92c0-0.768,0.181-1.429,0.544-1.984c0.362-0.554,0.949-0.832,1.76-0.832H231.863z
		 M250.424,122.647c0.852,0,1.6,0.214,2.24,0.64c0.639,0.427,0.959,1.11,0.959,2.048v16.64h7.041c0.852,0,1.461,0.267,1.822,0.8
		c0.363,0.534,0.545,1.184,0.545,1.952s-0.182,1.43-0.545,1.984c-0.361,0.555-0.971,0.832-1.822,0.832h-7.041v27.713
		c0,0.938-0.32,1.619-0.959,2.047c-0.641,0.426-1.389,0.641-2.24,0.641c-0.855,0-1.6-0.215-2.24-0.641
		c-0.641-0.428-0.961-1.109-0.961-2.047v-49.921c0-0.938,0.32-1.621,0.961-2.048C248.824,122.861,249.568,122.647,250.424,122.647z"
		/>
</g>
<g>
</g>
<g>
</g>
<g>
</g>
<g>
</g>
<g>
</g>
<g>
</g>
</svg>
