
<svg xmlns="http://www.w3.org/2000/svg" version="1.1" xmlns:xlink="http://www.w3.org/1999/xlink" preserveAspectRatio="none" x="0px" y="0px" width="1280px" height="720px" viewBox="0 0 1280 720">
<defs>
<g id="Layer0_2_FILL">
<path fill="#1E1E1E" stroke="none" d="
M 460.65 587.4
Q 460.65 587.65 460.8 587.85 460.95 588 461.2 588 464.05 588.05 467.4 587.95 470.7 587.85 474 587.65 477.3 587.45 480.3 587.15 483.3 586.9 485.55 586.55 485.75 586.5 485.9 586.35 486.1 586.15 486.05 585.85
L 485.8 583.25
Q 485.8 582.95 485.5 582.85 485.25 582.8 485.05 582.85 482.6 583.15 479.6 583.4 476.65 583.7 473.5 583.85 470.35 584 467.25 584.1 464.05 584.15 461.2 584.1 460.95 584.1 460.8 584.25 460.65 584.45 460.65 584.7
L 460.65 587.4
M 458.85 567.95
Q 458.65 567.75 458.4 567.75
L 453.05 567.75 453.05 558.7
Q 453.05 558.15 452.45 558.15
L 448.95 558.15
Q 448.75 558.15 448.55 558.3 448.4 558.45 448.4 558.7
L 448.4 579.3
Q 448.4 579.55 448.55 579.7 448.75 579.9 448.95 579.9
L 452.45 579.9
Q 453.05 579.9 453.05 579.35
L 453.05 571.6 458.4 571.6
Q 458.65 571.6 458.85 571.45 459 571.3 459 571.1
L 459 568.3
Q 459 568.1 458.85 567.95
M 476.55 561.15
Q 474.75 560.5 472.7 560.5 470.65 560.5 468.85 561.15 467.1 561.8 465.8 563 464.5 564.25 463.75 565.95 462.95 567.65 462.95 569.75 462.95 571.9 463.75 573.6 464.5 575.3 465.8 576.45 467.1 577.65 468.85 578.3 470.65 578.9 472.65 578.9 474.75 578.9 476.55 578.3 478.3 577.65 479.6 576.45 480.95 575.3 481.7 573.6 482.45 571.9 482.45 569.75 482.45 567.65 481.7 565.95 480.95 564.25 479.6 563 478.3 561.8 476.55 561.15
M 472.7 564.25
Q 475.05 564.25 476.55 565.75 478 567.25 478 569.75 478 572.3 476.55 573.8 475.05 575.3 472.7 575.3 470.4 575.3 468.95 573.8 467.45 572.3 467.45 569.75 467.45 567.25 468.95 565.75 470.4 564.25 472.7 564.25
M 429.15 585.6
Q 429.35 585.7 429.55 585.7
L 447.6 585.7
Q 448.05 585.7 448.2 585.85 448.35 585.95 448.35 586.4
L 448.35 595.5
Q 448.35 595.7 448.55 595.85 448.75 596.05 449 596.05
L 452.4 596.05
Q 452.6 596.05 452.8 595.85 453 595.7 453 595.5
L 453 584.7
Q 453 583.15 452.4 582.5 451.8 581.9 450.3 581.9
L 429.55 581.9
Q 429.35 581.9 429.15 582 429 582.1 429 582.4
L 429 585.25
Q 429 585.45 429.15 585.6
M 425.25 563.6
Q 425.35 563.75 425.65 563.75
L 436.5 563.75
Q 437.25 563.75 437.25 564 437.25 564.25 437.05 564.9 435.95 568.55 432.6 571.55 429.2 574.55 424.3 576.7 423.85 576.9 423.8 577.2 423.75 577.5 423.9 577.85
L 424.95 579.9
Q 425.25 580.7 426.2 580.3 432.55 577.65 436.5 573.8 440.5 569.9 442 564.4 442.05 564.25 442.15 564 442.2 563.75 442.25 563.45 442.3 563.1 442.35 562.85 442.4 562.5 442.4 562.35 442.4 561.1 441.7 560.5 441 559.95 439.2 559.95
L 425.65 559.95
Q 425.1 559.95 425.1 560.5
L 425.1 563.15
Q 425.1 563.4 425.25 563.6
M 399.8 559.3
Q 399.8 558.8 399.3 558.8
L 396.05 558.8
Q 395.4 558.8 395.4 559.3
L 395.4 570.75 389.4 570.75
Q 389.25 570.75 389.05 570.9 388.85 571.05 388.85 571.25
L 388.85 573.95
Q 388.85 574.2 389.05 574.35 389.25 574.55 389.4 574.55
L 395.4 574.55 395.4 594.25
Q 395.4 594.85 396.05 594.85
L 399.3 594.85
Q 399.8 594.85 399.8 594.25
L 399.8 559.3
M 386.2 566.6
Q 386.4 564.1 386.4 561.1 386.4 560.85 386.2 560.65 386 560.5 385.75 560.5
L 382.45 560.35
Q 381.95 560.35 381.95 560.95 381.95 564.75 381.55 568.1 381.2 571.4 380.3 574.25 379.4 577.15 378 579.6 376.55 582.05 374.4 584.1 373.75 584.7 374.35 585.3
L 376.15 587.05
Q 376.8 587.65 377.4 587.05 379.55 584.9 381.1 582.75 382.65 580.5 383.75 577.95 384.25 579.15 384.9 580.4 385.6 581.6 386.45 582.65 387.25 583.75 388.1 584.7 388.95 585.6 389.8 586.2 390.45 586.8 391.05 586.15
L 392.85 584.25
Q 393.35 583.75 392.75 583.25 391.75 582.4 390.65 581.1 389.6 579.75 388.6 578.2 387.6 576.6 386.8 574.85 386 573.1 385.6 571.4 386.05 569.15 386.2 566.6
M 403.6 558.15
Q 403.05 558.15 403.05 558.7
L 403.05 595.7
Q 403.05 596.2 403.6 596.2
L 407.05 596.2
Q 407.6 596.2 407.6 595.7
L 407.6 558.7
Q 407.6 558.15 407.05 558.15
L 403.6 558.15
M 330.6 583.45
L 330.6 592.1
Q 330.6 593.75 331.2 594.35 331.8 595 333.6 595
L 355.9 595
Q 356.15 595 356.35 594.9 356.5 594.75 356.5 594.55
L 356.5 591.65
Q 356.5 591.45 356.3 591.3 356.1 591.15 355.9 591.15
L 335.95 591.15
Q 335.5 591.15 335.35 591.05 335.15 590.9 335.15 590.5
L 335.15 583.45
Q 335.15 583.25 335 583.05 334.8 582.9 334.6 582.9
L 331.15 582.9
Q 330.95 582.9 330.75 583.05 330.6 583.25 330.6 583.45
M 325 580.15
Q 325.15 580.35 325.45 580.35
L 360.25 580.35
Q 360.45 580.35 360.65 580.15 360.85 579.9 360.85 579.7
L 360.85 577.1
Q 360.85 576.95 360.65 576.7 360.45 576.5 360.25 576.5
L 325.45 576.5
Q 325.15 576.5 325 576.7 324.85 576.9 324.85 577.1
L 324.85 579.7
Q 324.85 579.95 325 580.15
M 352.05 560.65
Q 350.4 559.7 348.05 559.2 345.75 558.75 342.95 558.75 340.15 558.75 337.8 559.2 335.45 559.7 333.8 560.65 332.1 561.55 331.15 562.95 330.2 564.3 330.2 566.05 330.2 567.75 331.15 569.1 332.1 570.5 333.8 571.4 335.45 572.3 337.8 572.85 340.15 573.3 342.95 573.3 345.75 573.3 348.05 572.85 350.4 572.3 352.05 571.4 353.75 570.5 354.7 569.1 355.6 567.75 355.6 566.05 355.6 564.3 354.7 562.95 353.75 561.55 352.05 560.65
M 350.25 567.5
Q 349.65 568.15 348.6 568.65 347.55 569.1 346.1 569.4 344.65 569.65 342.95 569.65 341.2 569.65 339.75 569.4 338.3 569.1 337.25 568.65 336.2 568.15 335.6 567.5 335 566.85 335 566.05 335 565.25 335.6 564.55 336.2 563.9 337.25 563.4 338.3 562.95 339.75 562.65 341.2 562.4 342.95 562.4 344.65 562.4 346.1 562.65 347.55 562.95 348.6 563.4 349.65 563.9 350.25 564.55 350.8 565.25 350.8 566.05 350.8 566.85 350.25 567.5
M 610.55 558.15
Q 610 558.15 610 558.7
L 610 595.6
Q 610 596.15 610.55 596.15
L 614.1 596.15
Q 614.65 596.15 614.65 595.6
L 614.65 576.6 620 576.6
Q 620.25 576.6 620.45 576.45 620.6 576.3 620.6 576.05
L 620.6 573.25
Q 620.6 573.05 620.45 572.9 620.25 572.75 620 572.75
L 614.65 572.75 614.65 558.7
Q 614.65 558.15 614.1 558.15
L 610.55 558.15
M 578.65 558.7
Q 578.65 558.15 578.15 558.15
L 574.6 558.15
Q 574.05 558.15 574.05 558.7
L 574.05 595.6
Q 574.05 596.15 574.6 596.15
L 578.15 596.15
Q 578.65 596.15 578.65 595.6
L 578.65 558.7
M 604.4 564.15
Q 604.55 562.65 603.95 561.9 603.4 561.15 601.6 561.15
L 587.15 561.15
Q 586.6 561.15 586.6 561.65
L 586.6 564.45
Q 586.6 565 587.15 565
L 598.4 565
Q 599.15 565 599.35 565.25 599.6 565.5 599.45 566.3 598.65 571.75 595 576.4 591.3 581.05 585.35 584.2 585.05 584.4 585 584.7 584.9 585.05 585.1 585.35
L 586.7 587.6
Q 586.9 587.95 587.25 587.95 587.6 587.95 587.9 587.8 591.6 585.75 594.6 583.15 597.55 580.55 599.65 577.55 601.75 574.55 602.95 571.2 604.15 567.8 604.4 564.15
M 563 565.25
Q 563.25 565.5 563.1 566.3 562.05 571.8 558.45 576.4 554.85 581 548.9 584.55 548.65 584.7 548.55 585 548.45 585.3 548.65 585.6
L 550 587.75
Q 550.2 588.05 550.6 588.1 550.95 588.15 551.3 587.95 554.8 585.85 557.75 583.35 560.65 580.85 562.8 577.9 564.95 574.9 566.25 571.5 567.55 568.05 567.85 564.15 568 562.65 567.4 561.9 566.85 561.15 565.05 561.15
L 550.75 561.15
Q 550.15 561.15 550.15 561.65
L 550.15 564.45
Q 550.15 565 550.75 565
L 562.05 565
Q 562.8 565 563 565.25
M 487.85 558.3
Q 487.65 558.45 487.65 558.7
L 487.65 595.6
Q 487.65 595.85 487.85 595.95 488 596.15 488.25 596.15
L 491.75 596.15
Q 492.3 596.15 492.3 595.6
L 492.3 558.7
Q 492.3 558.15 491.75 558.15
L 488.25 558.15
Q 488 558.15 487.85 558.3
M 514.3 564.45
Q 514.45 564.65 514.65 564.65
L 534.45 564.65
Q 535.1 564.65 535.25 564.95 535.4 565.25 535.4 565.85 535.4 567.1 535.4 568.7 535.35 570.25 535.25 572 533.35 572.1 530.95 572.2 528.6 572.25 525.9 572.25 523.25 572.3 520.45 572.3 517.65 572.3 515 572.3 514.45 572.3 514.45 572.9
L 514.45 575.5
Q 514.45 575.75 514.6 575.95 514.8 576.15 515 576.15 520.95 576.15 525.85 576.05 530.8 575.95 535 575.75 534.8 578.65 534.55 581.25 534.3 583.9 534 585.55
L 509.45 585.55
Q 509.15 585.55 509 585.75 508.85 585.9 508.85 586.15
L 508.85 588.8
Q 508.85 589 509 589.2 509.15 589.4 509.45 589.4
L 544.25 589.4
Q 544.45 589.4 544.65 589.2 544.85 589 544.85 588.8
L 544.85 586.15
Q 544.85 585.95 544.65 585.75 544.45 585.55 544.25 585.55
L 538.55 585.55
Q 539.45 579.05 539.85 573.45 540.3 567.95 540.2 564.15 540.15 563.45 540.05 562.85 539.95 562.2 539.65 561.75 539.35 561.35 538.8 561.15 538.25 560.85 537.4 560.85
L 514.65 560.85
Q 514.45 560.85 514.3 561.05 514.15 561.25 514.15 561.45
L 514.15 564.1
Q 514.15 564.25 514.3 564.45
M 302.6 583.2
Q 300.45 583.7 298.85 584.55 297.3 585.45 296.45 586.65 295.6 587.85 295.6 589.3 295.6 590.8 296.45 592.05 297.3 593.3 298.85 594.15 300.45 595.05 302.6 595.5 304.8 596 307.55 596 310.15 596 312.35 595.5 314.6 595.05 316.2 594.15 317.85 593.3 318.75 592.05 319.65 590.8 319.65 589.3 319.65 587.85 318.75 586.65 317.85 585.45 316.2 584.55 314.6 583.7 312.35 583.2 310.15 582.75 307.55 582.75 304.8 582.75 302.6 583.2
M 302.4 591.75
Q 301.4 591.35 300.9 590.8 300.35 590.25 300.35 589.45 300.35 588.65 300.9 588 301.4 587.4 302.4 587 303.35 586.55 304.65 586.35 305.95 586.15 307.55 586.15 309.05 586.15 310.4 586.35 311.7 586.55 312.7 587 313.7 587.4 314.3 588 314.9 588.65 314.9 589.45 314.9 590.25 314.3 590.8 313.7 591.35 312.7 591.75 311.7 592.15 310.4 592.35 309.05 592.5 307.55 592.5 306 592.5 304.7 592.35 303.4 592.15 302.4 591.75
M 303.3 568.95
Q 301.7 568.45 299.9 568.45 298.1 568.45 296.55 568.9 295 569.35 293.85 570.15 292.7 571 292.05 572.15 291.4 573.3 291.4 574.8 291.4 576.3 292.05 577.55 292.7 578.8 293.85 579.7 295 580.6 296.5 581.1 298.05 581.6 299.85 581.6 301.7 581.6 303.25 581.15 304.8 580.65 305.95 579.8 307.15 578.9 307.8 577.7 308.45 576.5 308.45 575 308.45 573.5 307.8 572.3 307.15 571.15 306 570.25 304.85 569.4 303.3 568.95
M 299.9 572
Q 301.8 572 302.95 572.8 304.1 573.6 304.1 575 304.1 576.4 302.95 577.3 301.8 578.15 299.9 578.15 298 578.15 296.85 577.3 295.7 576.4 295.7 575 295.7 573.6 296.85 572.8 298 572 299.9 572
M 310.15 568.9
Q 310 568.9 309.8 569 309.65 569.15 309.65 569.35
L 309.65 572.1
Q 309.65 572.3 309.8 572.4 310 572.55 310.15 572.55
L 314.9 572.55 314.9 575.25 310.15 575.25
Q 310 575.25 309.8 575.4 309.65 575.5 309.65 575.7
L 309.65 578.45
Q 309.65 578.65 309.8 578.8 310 578.9 310.15 578.9
L 314.9 578.9 314.9 581.7
Q 314.9 581.95 315.05 582.1 315.2 582.3 315.45 582.3
L 319 582.3
Q 319.2 582.3 319.35 582.1 319.55 581.95 319.55 581.7
L 319.55 558.65
Q 319.55 558.45 319.35 558.3 319.2 558.1 319 558.1
L 315.45 558.1
Q 314.9 558.1 314.9 558.65
L 314.9 568.9 310.15 568.9
M 310.15 567.15
Q 310.4 567.15 310.55 567 310.75 566.8 310.75 566.55
L 310.75 564.25
Q 310.75 564.05 310.55 563.85 310.4 563.65 310.15 563.65
L 289.3 563.65
Q 289.1 563.65 288.85 563.85 288.65 564.1 288.65 564.25
L 288.65 566.5
Q 288.65 566.75 288.85 566.95 289.05 567.15 289.25 567.15
L 310.15 567.15
M 305.45 558.75
Q 305.2 558.5 304.95 558.5
L 294.75 558.5
Q 294.6 558.5 294.35 558.7 294.15 558.85 294.15 559.1
L 294.15 561.4
Q 294.15 561.7 294.35 561.85 294.6 562.05 294.75 562.05
L 304.95 562.05
Q 305.25 562.05 305.45 561.8 305.6 561.6 305.6 561.35
L 305.6 559.15
Q 305.6 558.9 305.45 558.75
M 256.2 582.4
L 256.2 585.25
Q 256.2 585.45 256.35 585.6 256.55 585.7 256.75 585.7
L 274.8 585.7
Q 275.25 585.7 275.4 585.85 275.55 585.95 275.55 586.4
L 275.55 595.5
Q 275.55 595.7 275.75 595.85 275.95 596.05 276.2 596.05
L 279.6 596.05
Q 279.8 596.05 280 595.85 280.2 595.7 280.2 595.5
L 280.2 584.7
Q 280.2 583.15 279.6 582.5 279 581.9 277.5 581.9
L 256.75 581.9
Q 256.55 581.9 256.35 582 256.2 582.1 256.2 582.4
M 275.75 558.3
Q 275.6 558.45 275.6 558.7
L 275.6 579.3
Q 275.6 579.55 275.75 579.7 275.95 579.9 276.15 579.9
L 279.65 579.9
Q 280.25 579.9 280.25 579.35
L 280.25 571.6 285.6 571.6
Q 285.85 571.6 286.05 571.45 286.2 571.3 286.2 571.1
L 286.2 568.3
Q 286.2 568.1 286.05 567.95 285.85 567.75 285.6 567.75
L 280.25 567.75 280.25 558.7
Q 280.25 558.15 279.65 558.15
L 276.15 558.15
Q 275.95 558.15 275.75 558.3
M 264.45 564
Q 264.45 564.25 264.25 564.9 263.15 568.55 259.8 571.55 256.4 574.55 251.5 576.7 251.05 576.9 251 577.2 250.95 577.5 251.1 577.85
L 252.15 579.9
Q 252.45 580.7 253.4 580.3 259.75 577.65 263.7 573.8 267.7 569.9 269.2 564.4 269.25 564.25 269.35 564 269.4 563.75 269.45 563.45 269.5 563.1 269.55 562.85 269.6 562.5 269.6 562.35 269.6 561.1 268.9 560.5 268.2 559.95 266.4 559.95
L 252.85 559.95
Q 252.3 559.95 252.3 560.5
L 252.3 563.15
Q 252.3 563.4 252.45 563.6 252.55 563.75 252.85 563.75
L 263.7 563.75
Q 264.45 563.75 264.45 564
M 219.1 584.7
L 219.1 592.65
Q 219.1 594.25 219.75 594.9 220.4 595.5 222.2 595.5
L 239.8 595.5
Q 241.35 595.5 242 594.9 242.65 594.25 242.65 592.75
L 242.65 584.7
Q 242.65 583.1 242.05 582.45 241.4 581.8 239.6 581.8
L 222 581.8
Q 220.45 581.8 219.8 582.5 219.1 583.15 219.1 584.7
M 224.25 591.85
Q 223.9 591.85 223.8 591.75 223.7 591.7 223.7 591.3
L 223.7 585.95
Q 223.7 585.65 223.8 585.55 223.9 585.5 224.25 585.5
L 237.6 585.5
Q 237.9 585.5 238 585.6 238.1 585.7 238.1 586.05
L 238.1 591.3
Q 238.1 591.7 238 591.75 237.9 591.85 237.6 591.85
L 224.25 591.85
M 238.55 558.15
Q 238 558.15 238 558.7
L 238 579.25
Q 238 579.8 238.55 579.8
L 242.1 579.8
Q 242.65 579.8 242.65 579.25
L 242.65 571.75 248.05 571.75
Q 248.25 571.75 248.45 571.6 248.6 571.4 248.6 571.2
L 248.6 568.4
Q 248.6 568.2 248.45 568.05 248.25 567.95 248.05 567.95
L 242.65 567.95 242.65 558.7
Q 242.65 558.15 242.1 558.15
L 238.55 558.15
M 226.4 559.55
Q 226.4 558.9 225.9 558.9
L 222.35 558.75
Q 222.2 558.75 222 558.95 221.8 559.15 221.8 559.45 221.8 562.65 221.2 565.1 220.65 567.55 219.55 569.55 218.45 571.5 216.8 573.1 215.1 574.7 212.85 576.25 212.5 576.5 212.4 576.75 212.3 577.05 212.7 577.5
L 214.35 579.35
Q 214.6 579.65 214.85 579.75 215.15 579.85 215.65 579.5 218.5 577.55 220.6 575.5 222.65 573.4 224 570.85 225.5 573.15 227.6 575 229.7 576.85 232.15 577.95 232.85 578.3 233.2 577.6
L 234.6 575.4
Q 235.05 574.7 234.4 574.45 233.3 573.95 232.1 573.1 230.85 572.25 229.7 571.15 228.5 570 227.45 568.65 226.45 567.3 225.8 565.75 226.4 563 226.4 559.55
M 199.75 581.6
Q 197.55 581.05 195 581.05 192.2 581.05 190.05 581.6 187.8 582.1 186.3 583.1 184.75 584.1 183.9 585.5 183.1 586.9 183.1 588.55 183.1 590.3 183.9 591.7 184.75 593.1 186.3 594.05 187.8 595.05 190.05 595.6 192.2 596.15 195 596.15 197.55 596.15 199.75 595.6 201.95 595.05 203.55 594.05 205.2 593.05 206.1 591.65 207 590.25 207 588.55 207 586.85 206.1 585.45 205.2 584.1 203.55 583.1 201.95 582.1 199.75 581.6
M 192.1 592.25
Q 190.8 592 189.85 591.5 188.9 591.05 188.35 590.35 187.8 589.65 187.8 588.7 187.8 586.7 189.8 585.7 191.8 584.7 195 584.7 196.45 584.7 197.75 584.95 199.05 585.2 200.05 585.7 201.05 586.2 201.65 586.95 202.2 587.65 202.2 588.7 202.2 589.65 201.65 590.35 201.05 591.05 200.05 591.5 199.05 592 197.75 592.25 196.45 592.5 195 592.5 193.45 592.5 192.1 592.25
M 202.1 558.7
L 202.1 567.15 195.85 567.15
Q 195.6 567.15 195.45 567.3 195.25 567.45 195.25 567.65
L 195.25 570.45
Q 195.25 570.65 195.45 570.8 195.6 570.9 195.85 570.9
L 202.1 570.9 202.1 579.9
Q 202.1 580.5 202.65 580.5
L 206.2 580.5
Q 206.7 580.5 206.7 579.9
L 206.7 558.7
Q 206.7 558.15 206.2 558.15
L 202.65 558.15
Q 202.1 558.15 202.1 558.7
M 189 565.05
Q 188.4 566.7 187.2 568.35 186 570 184.35 571.5 182.75 573.05 180.75 574.4 178.75 575.7 176.5 576.7 176.1 576.9 176 577.25 175.9 577.6 176.1 577.95
L 177.3 579.9
Q 177.55 580.35 177.95 580.35 178.35 580.35 178.6 580.25 181.5 578.85 184 577.05 186.55 575.25 188.6 573.15 189.45 574.05 190.45 574.85 191.4 575.7 192.4 576.4 193.4 577.1 194.3 577.75 195.2 578.3 196 578.7 196.8 579.1 197.2 578.4
L 198.45 576.25
Q 198.9 575.5 198.1 575.1 197.3 574.75 196.4 574.2 195.45 573.7 194.55 573 193.6 572.35 192.75 571.65 191.85 570.9 191.15 570.2 192.05 568.9 192.8 567.5 193.55 566.15 194.05 564.7 194.2 564.3 194.35 563.85 194.45 563.35 194.55 562.95 194.75 561.6 193.9 560.95 193 560.35 191.25 560.35
L 178.6 560.35
Q 178.4 560.35 178.2 560.5 178 560.65 178 560.85
L 178 563.5
Q 178 563.75 178.15 563.95 178.35 564.15 178.6 564.15
L 188.5 564.15
Q 189.15 564.15 189.15 564.45 189.2 564.7 189 565.05
M 1097.25 591.35
Q 1097.25 592.65 1098.15 593.55 1099.05 594.45 1100.35 594.45 1101.6 594.45 1102.5 593.55 1103.35 592.65 1103.35 591.35 1103.35 590.05 1102.5 589.2 1101.6 588.3 1100.35 588.3 1099.05 588.3 1098.15 589.2 1097.25 590.05 1097.25 591.35
M 1057.9 558.15
Q 1057.4 558.15 1057.4 558.7
L 1057.4 595.6
Q 1057.4 596.15 1057.9 596.15
L 1061.45 596.15
Q 1062 596.15 1062 595.6
L 1062 576.65 1067.4 576.65
Q 1067.6 576.65 1067.8 576.5 1068 576.3 1068 576.1
L 1068 573.3
Q 1068 573.1 1067.8 572.95 1067.6 572.8 1067.4 572.8
L 1062 572.8 1062 558.7
Q 1062 558.15 1061.45 558.15
L 1057.9 558.15
M 1089.5 567.95
Q 1087.8 563.2 1084 558.5 1083.8 558.15 1083.45 558.15
L 1080.5 558.15
Q 1080 558.15 1080.25 558.6 1083.45 563.65 1085 568.35 1086.5 573.05 1086.5 577.75 1086.5 582.45 1085 587.1 1083.5 591.8 1080.25 596.85 1080.15 597 1080.2 597.15 1080.2 597.3 1080.5 597.3
L 1083.45 597.3
Q 1083.8 597.3 1084 596.95 1087.8 592.3 1089.5 587.55 1091.2 582.8 1091.2 577.75 1091.2 572.65 1089.5 567.95
M 1022 558.15
Q 1021.45 558.15 1021.45 558.7
L 1021.45 595.6
Q 1021.45 596.15 1022 596.15
L 1025.55 596.15
Q 1026.05 596.15 1026.05 595.6
L 1026.05 558.7
Q 1026.05 558.15 1025.55 558.15
L 1022 558.15
M 1051.3 561.15
L 1036.75 561.15
Q 1035.25 561.15 1034.7 561.7 1034.1 562.3 1034.1 563.7
L 1034.1 582.65
Q 1034.1 584.1 1034.8 584.65 1035.5 585.25 1037 585.35 1038.65 585.45 1041.05 585.35 1043.45 585.3 1046 585.05 1048.55 584.85 1050.9 584.5 1053.3 584.1 1054.9 583.65 1055.1 583.55 1055.3 583.4 1055.45 583.3 1055.4 582.85
L 1054.95 580.5
Q 1054.8 579.9 1054.2 580.05 1052.4 580.35 1050.45 580.65 1048.4 580.9 1046.5 581.1 1044.6 581.3 1042.85 581.35 1041.15 581.45 1039.9 581.3 1039.15 581.25 1038.9 581.05 1038.7 580.85 1038.7 580.25
L 1038.7 565.7
Q 1038.7 565 1039.4 565
L 1051.3 565
Q 1051.85 565 1051.85 564.5
L 1051.85 561.7
Q 1051.85 561.15 1051.3 561.15
M 1001.8 560.65
Q 1001.6 560.5 1001.4 560.5
L 997.95 560.5
Q 997.75 560.5 997.55 560.65 997.4 560.85 997.4 561.05
L 997.4 581.9
Q 997.4 583.25 998.05 584.05 998.75 584.85 1000.3 584.9 1002.5 585.05 1004.9 585 1007.35 584.9 1009.7 584.75 1012.05 584.55 1014.25 584.25 1016.45 583.9 1018.2 583.45 1018.55 583.35 1018.75 583.1 1019 582.9 1018.9 582.6
L 1018.4 580.4
Q 1018.35 580.1 1018.15 579.9 1018 579.7 1017.55 579.75 1013.45 580.6 1009.7 580.9 1005.95 581.2 1002.75 581 1002.3 580.95 1002.15 580.85 1002 580.75 1002 580.35
L 1002 561.05
Q 1002 560.85 1001.8 560.65
M 771.05 558.3
Q 770.9 558.45 770.9 558.7
L 770.9 577.8
Q 770.9 578.1 771.05 578.25 771.25 578.4 771.45 578.4
L 774.95 578.4
Q 775.55 578.4 775.55 577.85
L 775.55 570.45 780.9 570.45
Q 781.15 570.45 781.35 570.3 781.5 570.1 781.5 569.9
L 781.5 567.1
Q 781.5 566.9 781.35 566.75 781.15 566.6 780.9 566.6
L 775.55 566.6 775.55 558.7
Q 775.55 558.15 774.95 558.15
L 771.45 558.15
Q 771.25 558.15 771.05 558.3
M 755.15 580.25
Q 753.65 580.25 752.95 580.85 752.3 581.45 752.3 582.95
L 752.3 593.2
Q 752.3 594.7 752.9 595.3 753.55 595.85 755.15 595.85
L 775.5 595.85
Q 776.15 595.85 776.15 595.25
L 776.15 592.95
Q 776.15 592.4 775.5 592.4
L 757.5 592.4
Q 757.05 592.4 756.95 592.3 756.9 592.25 756.9 591.8
L 756.9 589.7 774.75 589.7
Q 774.9 589.7 775.1 589.55 775.3 589.4 775.3 589.15
L 775.3 586.8
Q 775.3 586.6 775.1 586.45 774.9 586.3 774.75 586.3
L 756.9 586.3 756.9 584.25
Q 756.9 583.85 757 583.8 757.05 583.75 757.45 583.75
L 774.9 583.75
Q 775.5 583.75 775.5 583.2
L 775.5 580.75
Q 775.5 580.25 774.9 580.25
L 755.15 580.25
M 759.75 563.55
Q 759.75 563.8 759.6 564.5 759.15 566.15 758.05 567.65 756.9 569.25 755.25 570.7 753.6 572.15 751.45 573.45 749.3 574.75 746.8 575.85 746.35 576.05 746.3 576.4 746.25 576.75 746.4 577.1
L 747.45 579.05
Q 747.8 579.75 748.7 579.4 755.1 576.8 759 573.15 762.85 569.55 764.4 564.4 764.45 564.25 764.5 563.95 764.6 563.65 764.65 563.3 764.75 562.95 764.8 562.55 764.85 562.25 764.85 562.05 764.85 560.75 764.1 560.15 763.35 559.6 761.6 559.6
L 748.15 559.6
Q 747.9 559.6 747.75 559.8 747.6 559.95 747.6 560.2
L 747.6 562.75
Q 747.6 562.95 747.75 563.15 747.85 563.3 748.15 563.3
L 759.1 563.3
Q 759.75 563.3 759.75 563.55
M 728.7 558.5
Q 724.95 563.2 723.25 567.95 721.55 572.65 721.55 577.75 721.55 582.8 723.25 587.55 724.95 592.3 728.7 596.95 728.95 597.3 729.25 597.3
L 732.2 597.3
Q 732.5 597.3 732.55 597.15 732.6 597 732.45 596.85 729.2 591.8 727.7 587.1 726.2 582.45 726.2 577.75 726.2 573.05 727.75 568.35 729.25 563.65 732.45 558.6 732.75 558.15 732.2 558.15
L 729.25 558.15
Q 728.95 558.15 728.7 558.5
M 670.6 578.95
Q 670.45 579.1 670.45 579.35
L 670.45 581.95
Q 670.45 582.15 670.6 582.4 670.75 582.6 671.05 582.6
L 686.2 582.6 686.2 595.3
Q 686.2 595.85 686.8 595.85
L 690.25 595.85
Q 690.8 595.85 690.8 595.3
L 690.8 582.6 705.85 582.6
Q 706.05 582.6 706.25 582.4 706.45 582.15 706.45 581.95
L 706.45 579.35
Q 706.45 579.15 706.25 578.95 706.05 578.75 705.85 578.75
L 671.05 578.75
Q 670.75 578.75 670.6 578.95
M 663.45 563.5
Q 663.45 561.95 662.85 561.3 662.2 560.7 660.4 560.7
L 641 560.7
Q 639.45 560.7 638.8 561.35 638.15 561.95 638.15 563.45
L 638.15 575.4
Q 638.15 576.95 638.75 577.55 639.4 578.2 641.2 578.2
L 648.6 578.2 648.6 585.8 633.45 585.8
Q 632.85 585.8 632.85 586.45
L 632.85 589.05
Q 632.85 589.25 633 589.45 633.15 589.65 633.45 589.65
L 668.25 589.65
Q 668.45 589.65 668.65 589.45 668.85 589.25 668.85 589.05
L 668.85 586.45
Q 668.85 586.2 668.65 586 668.45 585.8 668.25 585.8
L 653.15 585.8 653.15 578.2 660.6 578.2
Q 662.15 578.2 662.8 577.55 663.45 576.95 663.45 575.45
L 663.45 563.5
M 658.35 564.55
Q 658.65 564.55 658.75 564.65 658.85 564.75 658.85 565.05
L 658.85 573.85
Q 658.85 574.25 658.75 574.3 658.65 574.4 658.35 574.4
L 643.3 574.4
Q 643 574.4 642.9 574.3 642.8 574.25 642.8 573.85
L 642.8 565.05
Q 642.8 564.7 642.9 564.65 643 564.55 643.3 564.55
L 658.35 564.55
M 676.45 559.55
Q 675.75 560.05 675.75 561.6
L 675.75 571.8
Q 675.75 573.2 676.4 573.95 677.05 574.7 678.65 574.7
L 700.8 574.7
Q 701.05 574.7 701.15 574.55 701.3 574.4 701.3 574.05
L 701.3 571.3
Q 701.3 571 701.15 570.9 701 570.85 700.65 570.85
L 681.1 570.85
Q 680.4 570.85 680.4 570.1
L 680.4 563.5
Q 680.4 562.85 681.1 562.85
L 700.45 562.85
Q 701.05 562.85 701.05 562.3
L 701.05 559.55
Q 701.05 559 700.45 559
L 678.65 559
Q 677.15 559 676.45 559.55
M 966.55 582.3
Q 966.55 582.1 966.4 581.95 966.2 581.75 966.05 581.75
L 962.5 581.75
Q 962 581.75 962 582.3
L 962 592.95
Q 962 594.55 962.65 595.1 963.25 595.7 965 595.7
L 983.55 595.7
Q 985.25 595.7 985.9 595.05 986.55 594.4 986.55 593.05
L 986.55 582.3
Q 986.55 582.05 986.4 581.85 986.2 581.7 986.05 581.7
L 982.45 581.7
Q 982.25 581.7 982.1 581.85 981.95 582.05 981.95 582.3
L 981.95 585.6 966.55 585.6 966.55 582.3
M 967.35 592.1
Q 966.55 592.1 966.55 591.45
L 966.55 589.15 981.95 589.15 981.95 591.45
Q 981.95 592.1 981.2 592.1
L 967.35 592.1
M 956.25 576.5
L 956.25 579
Q 956.25 579.25 956.4 579.45 956.55 579.6 956.85 579.6
L 991.6 579.6
Q 991.85 579.6 992 579.4 992.2 579.2 992.2 579
L 992.2 576.5
Q 992.2 576.3 992 576.15 991.85 575.95 991.6 575.95
L 956.85 575.95
Q 956.25 575.95 956.25 576.5
M 945.1 558.15
Q 944.6 558.15 944.6 558.7
L 944.6 595.6
Q 944.6 596.15 945.1 596.15
L 948.65 596.15
Q 949.2 596.15 949.2 595.6
L 949.2 576.65 954.6 576.65
Q 954.8 576.65 955 576.5 955.2 576.3 955.2 576.1
L 955.2 573.3
Q 955.2 573.1 955 572.95 954.8 572.8 954.6 572.8
L 949.2 572.8 949.2 558.7
Q 949.2 558.15 948.65 558.15
L 945.1 558.15
M 962.45 561.55
Q 962.65 561.7 962.8 561.7
L 981.5 561.7
Q 981.85 561.7 981.95 561.75 982 561.85 982 562.15
L 982 563.45
Q 982 563.9 981.95 564 981.85 564.1 981.55 564.1
L 964.75 564.1
Q 963.2 564.1 962.65 564.65 962.1 565.2 962.1 566.5
L 962.1 570.8
Q 962.1 572.1 962.65 572.65 963.2 573.2 964.8 573.2
L 986.6 573.2
Q 986.8 573.2 986.95 573 987.15 572.85 987.15 572.65
L 987.15 570.2
Q 987.15 569.95 986.95 569.8 986.8 569.65 986.55 569.65
L 967.2 569.65
Q 966.8 569.65 966.7 569.6 966.6 569.55 966.6 569.15
L 966.6 567.95
Q 966.6 567.55 966.7 567.45 966.8 567.35 967.15 567.35
L 983.8 567.35
Q 985.4 567.35 985.95 566.9 986.5 566.4 986.5 565
L 986.5 560.5
Q 986.5 559.15 985.95 558.65 985.4 558.15 983.8 558.15
L 962.8 558.15
Q 962.65 558.15 962.45 558.3 962.25 558.45 962.25 558.7
L 962.25 561.2
Q 962.25 561.4 962.45 561.55
M 899.05 589.2
Q 898.9 589.45 898.8 589.65
L 896.85 596.95
Q 896.75 597.15 896.9 597.3 897 597.45 897.2 597.45
L 900.4 597.45
Q 900.65 597.45 900.95 597.35 901.15 597.25 901.3 596.95
L 904.05 589.75
Q 904.1 589.55 904.05 589.25 904.05 589 903.55 589
L 899.65 589
Q 899.2 589 899.05 589.2
M 925.9 565.7
Q 925.9 565 926.6 565
L 938.5 565
Q 939.05 565 939.05 564.5
L 939.05 561.7
Q 939.05 561.15 938.5 561.15
L 923.95 561.15
Q 922.45 561.15 921.9 561.7 921.3 562.3 921.3 563.7
L 921.3 582.65
Q 921.3 584.1 922 584.65 922.7 585.25 924.2 585.35 925.85 585.45 928.25 585.35 930.65 585.3 933.2 585.05 935.75 584.85 938.1 584.5 940.5 584.1 942.1 583.65 942.3 583.55 942.5 583.4 942.65 583.3 942.6 582.85
L 942.15 580.5
Q 942 579.9 941.4 580.05 939.6 580.35 937.65 580.65 935.6 580.9 933.7 581.1 931.8 581.3 930.05 581.35 928.35 581.45 927.1 581.3 926.35 581.25 926.1 581.05 925.9 580.85 925.9 580.25
L 925.9 565.7
M 884.2 558.15
Q 883.7 558.15 883.7 558.7
L 883.7 595.6
Q 883.7 596.15 884.2 596.15
L 887.75 596.15
Q 888.3 596.15 888.3 595.6
L 888.3 576.65 893.7 576.65
Q 893.9 576.65 894.1 576.5 894.3 576.3 894.3 576.1
L 894.3 573.3
Q 894.3 573.1 894.1 572.95 893.9 572.8 893.7 572.8
L 888.3 572.8 888.3 558.7
Q 888.3 558.15 887.75 558.15
L 884.2 558.15
M 877.6 565
Q 878.15 565 878.15 564.5
L 878.15 561.7
Q 878.15 561.15 877.6 561.15
L 863.05 561.15
Q 861.55 561.15 861 561.7 860.4 562.3 860.4 563.7
L 860.4 582.65
Q 860.4 584.1 861.1 584.65 861.8 585.25 863.3 585.35 864.95 585.45 867.35 585.35 869.75 585.3 872.3 585.05 874.85 584.85 877.2 584.5 879.6 584.1 881.2 583.65 881.4 583.55 881.6 583.4 881.75 583.3 881.7 582.85
L 881.25 580.5
Q 881.1 579.9 880.5 580.05 878.7 580.35 876.75 580.65 874.7 580.9 872.8 581.1 870.9 581.3 869.15 581.35 867.45 581.45 866.2 581.3 865.45 581.25 865.2 581.05 865 580.85 865 580.25
L 865 565.7
Q 865 565 865.7 565
L 877.6 565
M 812.7 581.05
Q 812.5 580.85 812.35 580.85
L 808.75 580.85
Q 808.55 580.85 808.4 581.05 808.25 581.2 808.25 581.4
L 808.25 585.05 792.85 585.05 792.85 581.4
Q 792.85 581.2 792.7 581.05 792.5 580.9 792.35 580.9
L 788.8 580.9
Q 788.6 580.9 788.45 581.05 788.3 581.2 788.3 581.4
L 788.3 592.75
Q 788.3 594.3 788.95 594.9 789.55 595.5 791.3 595.5
L 809.85 595.5
Q 811.55 595.5 812.2 594.85 812.85 594.2 812.85 592.85
L 812.85 581.4
Q 812.85 581.2 812.7 581.05
M 793.65 591.75
Q 792.85 591.75 792.85 591.1
L 792.85 588.75 808.25 588.75 808.25 591.1
Q 808.25 591.75 807.5 591.75
L 793.65 591.75
M 818.5 575
Q 818.5 574.8 818.3 574.6 818.15 574.45 817.9 574.45
L 783.15 574.45
Q 782.55 574.45 782.55 575
L 782.55 577.55
Q 782.55 578.2 783.15 578.2
L 817.9 578.2
Q 818.15 578.2 818.3 578 818.5 577.75 818.5 577.55
L 818.5 575
M 815 568.3
Q 812.95 567.85 810.95 567.1 808.95 566.4 807.3 565.4 805.6 564.4 804.35 563.1 803.1 561.85 802.5 560.35 802.55 560 802.6 559.65 802.6 559.25 802.65 558.9 802.65 558.35 802.05 558.35
L 799 558.25
Q 798.3 558.25 798.25 558.9 798.1 560.85 797.15 562.4 796.2 563.95 794.6 565.15 793.05 566.3 790.9 567.2 788.7 568.05 786.15 568.6 785.9 568.7 785.8 568.9 785.75 569.15 785.8 569.35
L 786.9 571.9
Q 787.05 572.3 787.95 572.1 792.2 571.3 795.45 569.45 798.75 567.6 800.65 564.9 801.55 566.2 803.05 567.4 804.5 568.55 806.25 569.5 807.95 570.45 809.8 571.05 811.6 571.65 813.25 571.85 813.65 571.95 813.85 571.75 814.1 571.6 814.15 571.4
L 815.35 569.05
Q 815.45 568.85 815.35 568.65 815.25 568.4 815 568.3
M 823.85 560.65
Q 823.7 560.85 823.7 561.05
L 823.7 581.9
Q 823.7 583.25 824.35 584.05 825.05 584.85 826.6 584.9 828.8 585.05 831.2 585 833.65 584.9 836 584.75 838.35 584.55 840.55 584.25 842.75 583.9 844.5 583.45 844.85 583.35 845.05 583.1 845.3 582.9 845.2 582.6
L 844.7 580.4
Q 844.65 580.1 844.45 579.9 844.3 579.7 843.85 579.75 839.75 580.6 836 580.9 832.25 581.2 829.05 581 828.6 580.95 828.45 580.85 828.3 580.75 828.3 580.35
L 828.3 561.05
Q 828.3 560.85 828.1 560.65 827.9 560.5 827.7 560.5
L 824.25 560.5
Q 824.05 560.5 823.85 560.65
M 848.3 558.15
Q 847.75 558.15 847.75 558.7
L 847.75 595.6
Q 847.75 596.15 848.3 596.15
L 851.85 596.15
Q 852.35 596.15 852.35 595.6
L 852.35 558.7
Q 852.35 558.15 851.85 558.15
L 848.3 558.15 Z"/>
</g>

<path id="Layer0_0_1_STROKES" stroke="#BBDECB" stroke-width="5" stroke-linejoin="round" stroke-linecap="round" fill="none" d="
M 588.25 317.5
L 1575.5 317.5
Q 1590.5 317.5 1590.5 332.5
L 1590.5 423.05
Q 1590.5 424.05 1590.4 425 1589.1 437.35 1575.5 437.35
L 588.25 437.35
Q 574.626953125 437.35 573.375 425 573.273828125 424.0427734375 573.25 423.025
L 573.25 332.5
Q 573.25 317.5 588.25 317.5 Z"/>

<path id="Layer0_1_MEMBER_0_1_STROKES" stroke="#1E1E1E" stroke-width="3" stroke-linejoin="round" stroke-linecap="butt" fill="none" d="
M 378.0996353149414 442.52947387695315
L 521.0192718505859 442.52947387695315"/>

<path id="Layer0_1_MEMBER_1_1_STROKES" stroke="#1E1E1E" stroke-width="3" stroke-linejoin="round" stroke-linecap="butt" fill="none" d="
M 711.4587875366211 442.52947387695315
L 806.7385452270507 277.52989349365237"/>
</defs>

<g transform="matrix( 1, 0, 0, 1, -441.85,198.6) ">
<use xlink:href="#Layer0_0_1_STROKES"/>
</g>

<g transform="matrix( 2.399993896484375, 0, 0, 2.399993896484375, 234.7,235.65) ">
<use xlink:href="#Layer0_1_MEMBER_0_1_STROKES" transform="matrix( 0.416656494140625, 0, 0, 0.416656494140625, -97.75,-98.15) "/>
</g>

<g transform="matrix( 2.399993896484375, 0, 0, 2.399993896484375, 234.7,235.65) ">
<use xlink:href="#Layer0_1_MEMBER_1_1_STROKES" transform="matrix( 0.416656494140625, 0, 0, 0.416656494140625, -97.75,-98.15) "/>
</g>

<g transform="matrix( 1, 0, 0, 1, 0,0) ">
<use xlink:href="#Layer0_2_FILL"/>
</g>
</svg>
