
<svg xmlns="http://www.w3.org/2000/svg" version="1.1" xmlns:xlink="http://www.w3.org/1999/xlink" preserveAspectRatio="none" x="0px" y="0px" width="1280px" height="720px" viewBox="0 0 1280 720">
<defs>
<g id="Layer0_0_FILL">
<path fill="#4BAEF3" stroke="none" d="
M 271.25 258
Q 260.75 258 260.75 268.5
L 260.75 288.5
Q 260.75 299 271.25 299
L 295.05 299
Q 305.55 299 305.55 288.5
L 305.55 268.5
Q 305.55 258 295.05 258
L 271.25 258
M 276.6 269.8
Q 277.05 269.6 277.55 269.45 278 269.35 278.5 269.35 279.6 269.35 280.45 269.8 280.85 270.05 281.25 270.4 281.65 270.75 281.95 271.15 282.1 271.35 282.2 271.6 282.35 271.85 282.45 272.1
L 284.7 272.1 284.7 269.4
Q 284.7 268.75 285.1 268.55 285.3 268.45 285.55 268.4 285.75 268.3 286 268.3 286.3 268.3 286.55 268.4 286.85 268.45 287.05 268.55 287.45 268.75 287.45 269.4
L 287.45 286.4
Q 287.45 286.65 287.35 286.9 287.25 287.1 287.05 287.25 286.85 287.35 286.55 287.45 286.3 287.5 286 287.5 285.75 287.5 285.55 287.45 285.3 287.35 285.1 287.25 284.9 287.1 284.8 286.9 284.7 286.65 284.7 286.4
L 284.7 279.85 282.55 279.85
Q 282.4 280.15 282.25 280.45 282.1 280.7 281.95 280.95 281.3 281.8 280.45 282.25 279.6 282.75 278.5 282.75 278 282.75 277.55 282.6 277.05 282.5 276.6 282.25 276.2 282.05 275.85 281.7 275.5 281.4 275.2 280.95 274.9 280.5 274.65 280 274.4 279.5 274.25 278.85 274.05 278.25 274 277.55 273.9 276.85 273.9 276.05 273.9 275.25 274 274.55 274.05 273.85 274.25 273.2 274.4 272.6 274.65 272.1 274.9 271.6 275.2 271.15 275.5 270.75 275.85 270.4 276.2 270.05 276.6 269.8
M 288.25 269
Q 288.25 268.7 288.35 268.5 288.45 268.3 288.65 268.15 288.8 268.05 289.05 268 289.25 267.9 289.5 267.9 289.8 267.9 290.1 268 290.35 268.05 290.55 268.15 290.75 268.3 290.85 268.5 290.95 268.7 290.95 269
L 290.95 287
Q 290.95 287.6 290.55 287.85 290.35 287.95 290.1 288 289.8 288.05 289.5 288.05 289.25 288.05 289.05 288 288.8 287.95 288.65 287.85 288.25 287.6 288.25 287
L 288.25 269
M 283.15 276.05
Q 283.15 276.35 283.15 276.65 283.15 276.95 283.1 277.25
L 284.7 277.25 284.7 274.65 283.1 274.65
Q 283.1 275 283.15 275.35 283.15 275.7 283.15 276.05
M 279.3 272.2
Q 278.95 271.95 278.55 271.95 278.1 271.95 277.7 272.2 277.35 272.5 277.1 273 276.6 274.1 276.6 276.05 276.6 277 276.7 277.75 276.85 278.5 277.1 279.05 277.35 279.6 277.7 279.85 278.1 280.15 278.55 280.15 278.95 280.15 279.3 279.85 279.65 279.6 279.95 279.05 280.2 278.5 280.3 277.75 280.45 277 280.45 276.05 280.45 275.1 280.3 274.3 280.2 273.55 279.95 273 279.65 272.5 279.3 272.2 Z"/>

<path fill="#FFFFFF" stroke="none" d="
M 288.35 268.5
Q 288.25 268.7 288.25 269
L 288.25 287
Q 288.25 287.6 288.65 287.85 288.8 287.95 289.05 288 289.25 288.05 289.5 288.05 289.8 288.05 290.1 288 290.35 287.95 290.55 287.85 290.95 287.6 290.95 287
L 290.95 269
Q 290.95 268.7 290.85 268.5 290.75 268.3 290.55 268.15 290.35 268.05 290.1 268 289.8 267.9 289.5 267.9 289.25 267.9 289.05 268 288.8 268.05 288.65 268.15 288.45 268.3 288.35 268.5
M 277.55 269.45
Q 277.05 269.6 276.6 269.8 276.2 270.05 275.85 270.4 275.5 270.75 275.2 271.15 274.9 271.6 274.65 272.1 274.4 272.6 274.25 273.2 274.05 273.85 274 274.55 273.9 275.25 273.9 276.05 273.9 276.85 274 277.55 274.05 278.25 274.25 278.85 274.4 279.5 274.65 280 274.9 280.5 275.2 280.95 275.5 281.4 275.85 281.7 276.2 282.05 276.6 282.25 277.05 282.5 277.55 282.6 278 282.75 278.5 282.75 279.6 282.75 280.45 282.25 281.3 281.8 281.95 280.95 282.1 280.7 282.25 280.45 282.4 280.15 282.55 279.85
L 284.7 279.85 284.7 286.4
Q 284.7 286.65 284.8 286.9 284.9 287.1 285.1 287.25 285.3 287.35 285.55 287.45 285.75 287.5 286 287.5 286.3 287.5 286.55 287.45 286.85 287.35 287.05 287.25 287.25 287.1 287.35 286.9 287.45 286.65 287.45 286.4
L 287.45 269.4
Q 287.45 268.75 287.05 268.55 286.85 268.45 286.55 268.4 286.3 268.3 286 268.3 285.75 268.3 285.55 268.4 285.3 268.45 285.1 268.55 284.7 268.75 284.7 269.4
L 284.7 272.1 282.45 272.1
Q 282.35 271.85 282.2 271.6 282.1 271.35 281.95 271.15 281.65 270.75 281.25 270.4 280.85 270.05 280.45 269.8 279.6 269.35 278.5 269.35 278 269.35 277.55 269.45
M 278.55 271.95
Q 278.95 271.95 279.3 272.2 279.65 272.5 279.95 273 280.2 273.55 280.3 274.3 280.45 275.1 280.45 276.05 280.45 277 280.3 277.75 280.2 278.5 279.95 279.05 279.65 279.6 279.3 279.85 278.95 280.15 278.55 280.15 278.1 280.15 277.7 279.85 277.35 279.6 277.1 279.05 276.85 278.5 276.7 277.75 276.6 277 276.6 276.05 276.6 274.1 277.1 273 277.35 272.5 277.7 272.2 278.1 271.95 278.55 271.95
M 283.15 276.65
Q 283.15 276.35 283.15 276.05 283.15 275.7 283.15 275.35 283.1 275 283.1 274.65
L 284.7 274.65 284.7 277.25 283.1 277.25
Q 283.15 276.95 283.15 276.65 Z"/>
</g>

<path id="Layer0_0_1_STROKES" stroke="#3567D7" stroke-width="3" stroke-linejoin="round" stroke-linecap="round" fill="none" d="
M 711.45 442.55
L 901.4 442.55 806.75 277.55
M 378.1 442.55
L 449.5 318.45 521 442.55"/>
</defs>

<g transform="matrix( 1, 0, 0, 1, 0,0) ">
<use xlink:href="#Layer0_0_FILL"/>

<use xlink:href="#Layer0_0_1_STROKES"/>
</g>
</svg>
