
<svg xmlns="http://www.w3.org/2000/svg" version="1.1" xmlns:xlink="http://www.w3.org/1999/xlink" preserveAspectRatio="none" x="0px" y="0px" width="1280px" height="720px" viewBox="0 0 1280 720">
<defs>
<g id="Layer0_0_FILL">
<path fill="#7A94C2" stroke="none" d="
M 782.95 654.5
Q 772.95 654.5 772.95 664.5
L 772.95 683.55
Q 772.95 693.55 782.95 693.55
L 828 693.55
Q 838 693.55 838 683.55
L 838 664.5
Q 838 654.5 828 654.5
L 782.95 654.5
M 809.8 664.25
Q 809.85 664.15 809.9 664.1 810 664 810.1 663.95 810.2 663.9 810.3 663.85 810.45 663.85 810.55 663.8 810.7 663.8 810.8 663.75 810.95 663.75 811.1 663.75 811.35 663.75 811.6 663.8 811.85 663.85 812.05 663.95 812.45 664.15 812.45 664.75
L 812.45 667.4 814.35 667.4
Q 814.65 667.4 814.85 667.5 815.05 667.6 815.15 667.75 815.25 668.15 815.25 668.65 815.25 668.9 815.25 669.1 815.2 669.3 815.15 669.5 815 669.9 814.35 669.9
L 812.45 669.9 812.45 672.35
Q 812.45 672.65 812.35 672.85 812.25 673.05 812.05 673.15 811.85 673.25 811.6 673.3 811.35 673.35 811.1 673.35 810.95 673.35 810.8 673.35 810.7 673.3 810.55 673.3 810.45 673.3 810.3 673.25 810.2 673.2 810.1 673.15 810 673.1 809.9 673 809.85 672.9 809.8 672.8 809.7 672.7 809.7 672.6 809.65 672.5 809.65 672.35
L 809.65 664.75
Q 809.65 664.6 809.7 664.5 809.7 664.35 809.8 664.25
M 803.6 675.8
L 803.6 676.85 809.35 676.85 809.35 675.8
Q 809.35 675.55 809.45 675.35 809.55 675.2 809.75 675.05 810 674.9 810.25 674.85 810.45 674.75 810.75 674.75 810.8 674.75 810.95 674.8 811.05 674.8 811.2 674.85 811.45 674.95 811.7 675.05 811.8 675.1 811.85 675.2 811.95 675.25 812.05 675.35 812.15 675.45 812.2 675.55 812.2 675.7 812.2 675.8
L 812.2 681.35
Q 812.2 681.75 812.1 682.1 811.95 682.4 811.7 682.65 811.4 682.9 811.05 683 810.75 683.15 810.4 683.15
L 802.4 683.15
Q 801.95 683.15 801.65 683 801.35 682.9 801.2 682.65 800.95 682.4 800.9 682.1 800.8 681.75 800.8 681.35
L 800.8 675.8
Q 800.8 675.7 800.8 675.55 800.85 675.45 800.9 675.35 800.95 675.25 801.05 675.2 801.1 675.1 801.2 675.05 801.3 675 801.4 674.95 801.5 674.9 801.65 674.85 801.8 674.8 801.9 674.8 802.05 674.75 802.1 674.75 802.2 674.75 802.35 674.8 802.45 674.8 802.65 674.85 802.75 674.9 802.85 674.95 802.95 675 803.05 675.05 803.15 675.1 803.25 675.2 803.35 675.25 803.45 675.35 803.55 675.45 803.55 675.55 803.6 675.7 803.6 675.8
M 798.35 666.95
Q 798.35 666.55 798.4 666.25 798.45 665.95 798.5 665.7 798.55 665.45 798.7 665.3 798.8 665.1 799.05 664.95 799.2 664.85 799.4 664.8 799.65 664.7 799.9 664.7 800.15 664.65 800.45 664.65 800.8 664.65 801.2 664.65
L 806.35 664.65
Q 806.65 664.65 806.85 664.7 807.05 664.75 807.15 664.85 807.25 664.95 807.3 665.2 807.35 665.5 807.35 665.9 807.35 666.2 807.3 666.45 807.25 666.7 807.15 666.85 807.05 667 806.85 667.05 806.65 667.1 806.35 667.1
L 801.2 667.1 801.2 670
Q 801.2 670.32265625 801.2 670.45 801.95 670.45 802.7 670.4 803.5 670.4 804.3 670.3 805.1 670.25 805.85 670.15 806.6 670.1 807.35 669.95 807.45 669.95 807.55 669.95 807.7 669.95 807.8 669.95 807.95 669.95 808 669.95 808.1 670 808.2 670 808.2 670.05 808.3 670.15 808.3 670.2 808.4 670.3 808.45 670.4 808.45 670.55 808.5 670.7 808.55 670.9 808.65 671.25 808.65 671.5 808.65 671.75 808.55 671.95 808.3 672.3 807.65 672.35 806.85 672.5 806.05 672.6 805.25 672.7 804.45 672.75 803.65 672.85 802.85 672.9 802.05 672.95 801.2 673 800.8 673 800.45 672.95 800.15 672.95 799.9 672.95 799.65 672.9 799.4 672.85 799.2 672.8 799.05 672.65 798.8 672.55 798.7 672.4 798.55 672.25 798.5 672 798.35 671.55 798.35 670.75
L 798.35 666.95
M 803.6 679.6
L 803.6 680.5
Q 803.6 680.65 803.65 680.7 803.65 680.8 803.7 680.8 803.75 680.85 803.85 680.85 803.95 680.85 804.05 680.85
L 808.9 680.85
Q 809 680.85 809.05 680.85 809.15 680.85 809.2 680.8 809.25 680.8 809.3 680.7 809.35 680.65 809.35 680.5
L 809.35 679.6
Q 809.35 679.45 809.3 679.4 809.25 679.3 809.2 679.25 809.15 679.25 809.05 679.2 809 679.15 808.9 679.15
L 804.05 679.15
Q 803.95 679.15 803.85 679.2 803.75 679.25 803.7 679.25 803.65 679.3 803.65 679.4 803.6 679.45 803.6 679.6
M 278 664.5
Q 278 654.5 268 654.5
L 222.95 654.5
Q 212.95 654.5 212.95 664.5
L 212.95 683.55
Q 212.95 693.55 222.95 693.55
L 268 693.55
Q 278 693.55 278 683.55
L 278 664.5
M 243 664.55
Q 243.25 664.6 243.45 664.7 243.65 664.8 243.75 664.95 243.85 665.15 243.85 665.45
L 243.9 666.3
Q 243.9 666.7 244 667.05 244.1 667.4 244.3 667.75 244.45 668.1 244.65 668.45 244.8 668.8 245 669.1 245.25 669.4 245.55 669.7 245.8 670 246.1 670.25 246.35 670.55 246.65 670.75 246.95 671 247.25 671.2 247.45 671.35 247.55 671.5 247.65 671.65 247.65 671.8 247.65 672 247.6 672.2 247.55 672.4 247.45 672.6 247.35 672.85 247.2 673 247.05 673.2 246.85 673.35 246.65 673.45 246.45 673.5 246.25 673.5 246.05 673.4 245.45 673.15 244.95 672.8 244.4 672.45 244 672 243.6 671.55 243.25 671.15 242.9 670.65 242.55 670.2 242.4 670.45 242.2 670.65 242 670.9 241.85 671.15 241.65 671.4 241.45 671.6 241.3 671.85 241.15 672.05 240.9 672.3 240.7 672.5 240.45 672.7 240.25 672.9 240.05 673.1 239.8 673.25 239.6 673.45 239.4 673.55 239.15 673.7 238.85 673.7 238.65 673.7 238.4 673.6 238.15 673.5 237.95 673.35 237.8 673.15 237.7 672.85 237.65 672.75 237.6 672.65 237.55 672.6 237.55 672.5 237.5 672.4 237.45 672.35 237.45 672.25 237.45 672.15 237.45 672.05 237.45 672 237.5 671.9 237.55 671.8 237.6 671.7 237.7 671.65 237.75 671.55 237.85 671.5 238.2 671.3 238.55 671 238.85 670.8 239.15 670.45 239.45 670.15 239.7 669.85 240 669.5 240.25 669.15 240.4 668.8 240.55 668.45 240.7 668.1 240.8 667.7 240.95 667.35 241 667 241.1 666.6 241.1 666.3
L 241.1 665.45
Q 241.1 665.3 241.1 665.2 241.15 665.1 241.2 664.95 241.25 664.9 241.35 664.8 241.4 664.75 241.55 664.65 241.65 664.6 241.8 664.6 241.9 664.55 242 664.5 242.1 664.5 242.25 664.5 242.35 664.5 242.5 664.5 242.75 664.5 243 664.55
M 252.3 664
Q 252.45 664 252.55 664.05 252.65 664.1 252.75 664.15 252.9 664.2 253 664.25 253.1 664.35 253.15 664.45 253.2 664.5 253.25 664.65 253.3 664.8 253.3 664.95
L 253.3 673.2
Q 253.25 673.5 253.15 673.7 253.05 673.9 252.8 674 252.6 674.1 252.3 674.15 252.05 674.2 251.75 674.2 251.45 674.2 251.25 674.15 251 674.1 250.8 674 250.65 673.9 250.55 673.7 250.45 673.5 250.45 673.2
L 250.45 664.95
Q 250.45 664.35 250.8 664.15 251 664.05 251.25 664 251.45 663.95 251.75 663.95 251.85 663.95 252 664 252.15 664 252.3 664
M 252.75 675.95
Q 253 676.25 253.1 676.6 253.25 676.95 253.25 677.35
L 253.25 682.7
Q 253.25 682.8 253.2 682.9 253.15 683.05 253.05 683.1 252.95 683.2 252.85 683.3 252.75 683.35 252.65 683.45 252.55 683.5 252.45 683.55 252.35 683.6 252.2 683.65 252.05 683.7 251.95 683.7 251.8 683.75 251.7 683.75 251.45 683.75 251.25 683.65 251 683.6 250.8 683.45 250.45 683.15 250.45 682.7
L 250.45 677.85 243 677.85
Q 242.75 677.85 242.6 677.8 242.4 677.7 242.3 677.5 242.05 677.1 242.05 676.65 242.05 676.4 242.1 676.15 242.15 675.95 242.3 675.75 242.4 675.6 242.6 675.5 242.75 675.4 243 675.4
L 251.45 675.4
Q 252.25 675.4 252.75 675.95 Z"/>

<path fill="#FFFFFF" stroke="none" d="
M 798.4 666.25
Q 798.35 666.55 798.35 666.95
L 798.35 670.75
Q 798.35 671.55 798.5 672 798.55 672.25 798.7 672.4 798.8 672.55 799.05 672.65 799.2 672.8 799.4 672.85 799.65 672.9 799.9 672.95 800.15 672.95 800.45 672.95 800.8 673 801.2 673 802.05 672.95 802.85 672.9 803.65 672.85 804.45 672.75 805.25 672.7 806.05 672.6 806.85 672.5 807.65 672.35 808.3 672.3 808.55 671.95 808.65 671.75 808.65 671.5 808.65 671.25 808.55 670.9 808.5 670.7 808.45 670.55 808.45 670.4 808.4 670.3 808.3 670.2 808.3 670.15 808.2 670.05 808.2 670 808.1 670 808 669.95 807.95 669.95 807.8 669.95 807.7 669.95 807.55 669.95 807.45 669.95 807.35 669.95 806.6 670.1 805.85 670.15 805.1 670.25 804.3 670.3 803.5 670.4 802.7 670.4 801.95 670.45 801.2 670.45 801.2 670.32265625 801.2 670
L 801.2 667.1 806.35 667.1
Q 806.65 667.1 806.85 667.05 807.05 667 807.15 666.85 807.25 666.7 807.3 666.45 807.35 666.2 807.35 665.9 807.35 665.5 807.3 665.2 807.25 664.95 807.15 664.85 807.05 664.75 806.85 664.7 806.65 664.65 806.35 664.65
L 801.2 664.65
Q 800.8 664.65 800.45 664.65 800.15 664.65 799.9 664.7 799.65 664.7 799.4 664.8 799.2 664.85 799.05 664.95 798.8 665.1 798.7 665.3 798.55 665.45 798.5 665.7 798.45 665.95 798.4 666.25
M 803.6 676.85
L 803.6 675.8
Q 803.6 675.7 803.55 675.55 803.55 675.45 803.45 675.35 803.35 675.25 803.25 675.2 803.15 675.1 803.05 675.05 802.95 675 802.85 674.95 802.75 674.9 802.65 674.85 802.45 674.8 802.35 674.8 802.2 674.75 802.1 674.75 802.05 674.75 801.9 674.8 801.8 674.8 801.65 674.85 801.5 674.9 801.4 674.95 801.3 675 801.2 675.05 801.1 675.1 801.05 675.2 800.95 675.25 800.9 675.35 800.85 675.45 800.8 675.55 800.8 675.7 800.8 675.8
L 800.8 681.35
Q 800.8 681.75 800.9 682.1 800.95 682.4 801.2 682.65 801.35 682.9 801.65 683 801.95 683.15 802.4 683.15
L 810.4 683.15
Q 810.75 683.15 811.05 683 811.4 682.9 811.7 682.65 811.95 682.4 812.1 682.1 812.2 681.75 812.2 681.35
L 812.2 675.8
Q 812.2 675.7 812.2 675.55 812.15 675.45 812.05 675.35 811.95 675.25 811.85 675.2 811.8 675.1 811.7 675.05 811.45 674.95 811.2 674.85 811.05 674.8 810.95 674.8 810.8 674.75 810.75 674.75 810.45 674.75 810.25 674.85 810 674.9 809.75 675.05 809.55 675.2 809.45 675.35 809.35 675.55 809.35 675.8
L 809.35 676.85 803.6 676.85
M 803.6 680.5
L 803.6 679.6
Q 803.6 679.45 803.65 679.4 803.65 679.3 803.7 679.25 803.75 679.25 803.85 679.2 803.95 679.15 804.05 679.15
L 808.9 679.15
Q 809 679.15 809.05 679.2 809.15 679.25 809.2 679.25 809.25 679.3 809.3 679.4 809.35 679.45 809.35 679.6
L 809.35 680.5
Q 809.35 680.65 809.3 680.7 809.25 680.8 809.2 680.8 809.15 680.85 809.05 680.85 809 680.85 808.9 680.85
L 804.05 680.85
Q 803.95 680.85 803.85 680.85 803.75 680.85 803.7 680.8 803.65 680.8 803.65 680.7 803.6 680.65 803.6 680.5
M 809.9 664.1
Q 809.85 664.15 809.8 664.25 809.7 664.35 809.7 664.5 809.65 664.6 809.65 664.75
L 809.65 672.35
Q 809.65 672.5 809.7 672.6 809.7 672.7 809.8 672.8 809.85 672.9 809.9 673 810 673.1 810.1 673.15 810.2 673.2 810.3 673.25 810.45 673.3 810.55 673.3 810.7 673.3 810.8 673.35 810.95 673.35 811.1 673.35 811.35 673.35 811.6 673.3 811.85 673.25 812.05 673.15 812.25 673.05 812.35 672.85 812.45 672.65 812.45 672.35
L 812.45 669.9 814.35 669.9
Q 815 669.9 815.15 669.5 815.2 669.3 815.25 669.1 815.25 668.9 815.25 668.65 815.25 668.15 815.15 667.75 815.05 667.6 814.85 667.5 814.65 667.4 814.35 667.4
L 812.45 667.4 812.45 664.75
Q 812.45 664.15 812.05 663.95 811.85 663.85 811.6 663.8 811.35 663.75 811.1 663.75 810.95 663.75 810.8 663.75 810.7 663.8 810.55 663.8 810.45 663.85 810.3 663.85 810.2 663.9 810.1 663.95 810 664 809.9 664.1
M 253.1 676.6
Q 253 676.25 252.75 675.95 252.25 675.4 251.45 675.4
L 243 675.4
Q 242.75 675.4 242.6 675.5 242.4 675.6 242.3 675.75 242.15 675.95 242.1 676.15 242.05 676.4 242.05 676.65 242.05 677.1 242.3 677.5 242.4 677.7 242.6 677.8 242.75 677.85 243 677.85
L 250.45 677.85 250.45 682.7
Q 250.45 683.15 250.8 683.45 251 683.6 251.25 683.65 251.45 683.75 251.7 683.75 251.8 683.75 251.95 683.7 252.05 683.7 252.2 683.65 252.35 683.6 252.45 683.55 252.55 683.5 252.65 683.45 252.75 683.35 252.85 683.3 252.95 683.2 253.05 683.1 253.15 683.05 253.2 682.9 253.25 682.8 253.25 682.7
L 253.25 677.35
Q 253.25 676.95 253.1 676.6
M 252.55 664.05
Q 252.45 664 252.3 664 252.15 664 252 664 251.85 663.95 251.75 663.95 251.45 663.95 251.25 664 251 664.05 250.8 664.15 250.45 664.35 250.45 664.95
L 250.45 673.2
Q 250.45 673.5 250.55 673.7 250.65 673.9 250.8 674 251 674.1 251.25 674.15 251.45 674.2 251.75 674.2 252.05 674.2 252.3 674.15 252.6 674.1 252.8 674 253.05 673.9 253.15 673.7 253.25 673.5 253.3 673.2
L 253.3 664.95
Q 253.3 664.8 253.25 664.65 253.2 664.5 253.15 664.45 253.1 664.35 253 664.25 252.9 664.2 252.75 664.15 252.65 664.1 252.55 664.05
M 243.45 664.7
Q 243.25 664.6 243 664.55 242.75 664.5 242.5 664.5 242.35 664.5 242.25 664.5 242.1 664.5 242 664.5 241.9 664.55 241.8 664.6 241.65 664.6 241.55 664.65 241.4 664.75 241.35 664.8 241.25 664.9 241.2 664.95 241.15 665.1 241.1 665.2 241.1 665.3 241.1 665.45
L 241.1 666.3
Q 241.1 666.6 241 667 240.95 667.35 240.8 667.7 240.7 668.1 240.55 668.45 240.4 668.8 240.25 669.15 240 669.5 239.7 669.85 239.45 670.15 239.15 670.45 238.85 670.8 238.55 671 238.2 671.3 237.85 671.5 237.75 671.55 237.7 671.65 237.6 671.7 237.55 671.8 237.5 671.9 237.45 672 237.45 672.05 237.45 672.15 237.45 672.25 237.45 672.35 237.5 672.4 237.55 672.5 237.55 672.6 237.6 672.65 237.65 672.75 237.7 672.85 237.8 673.15 237.95 673.35 238.15 673.5 238.4 673.6 238.65 673.7 238.85 673.7 239.15 673.7 239.4 673.55 239.6 673.45 239.8 673.25 240.05 673.1 240.25 672.9 240.45 672.7 240.7 672.5 240.9 672.3 241.15 672.05 241.3 671.85 241.45 671.6 241.65 671.4 241.85 671.15 242 670.9 242.2 670.65 242.4 670.45 242.55 670.2 242.9 670.65 243.25 671.15 243.6 671.55 244 672 244.4 672.45 244.95 672.8 245.45 673.15 246.05 673.4 246.25 673.5 246.45 673.5 246.65 673.45 246.85 673.35 247.05 673.2 247.2 673 247.35 672.85 247.45 672.6 247.55 672.4 247.6 672.2 247.65 672 247.65 671.8 247.65 671.65 247.55 671.5 247.45 671.35 247.25 671.2 246.95 671 246.65 670.75 246.35 670.55 246.1 670.25 245.8 670 245.55 669.7 245.25 669.4 245 669.1 244.8 668.8 244.65 668.45 244.45 668.1 244.3 667.75 244.1 667.4 244 667.05 243.9 666.7 243.9 666.3
L 243.85 665.45
Q 243.85 665.15 243.75 664.95 243.65 664.8 243.45 664.7 Z"/>

<path fill="#1E1E1E" stroke="none" d="
M 579.3 643.25
Q 580.7 643.25 581.9 643.35 583.05 643.45 584.1 643.85 584.65 644.1 584.75 643.55
L 584.85 640.35
Q 584.9 639.95 584.55 639.85 583.65 639.5 582.2 639.3 580.8 639.1 579.65 639.1 575.9 639.1 573.35 640.4 570.8 641.75 569.2 644 567.65 646.2 566.95 649.25 566.25 652.25 566.25 655.65 566.25 663.1 568.8 666.65 571.35 670.2 576.05 670.2 578.35 670.2 580.2 669.4 582.05 668.6 583.35 667.15 584.65 665.8 585.3 663.85 586 662 586 659.8 586 657.5 585.3 655.7 584.6 653.85 583.3 652.55 582.05 651.25 580.25 650.55 578.5 649.85 576.3 649.85 575.55 649.85 574.75 650.1 573.95 650.3 573.2 650.65 572.45 651 571.85 651.45 571.25 651.9 570.9 652.4 571.15 650.45 571.75 648.75 572.3 647.1 573.3 645.85 574.3 644.6 575.75 643.9 577.25 643.25 579.3 643.25
M 572.4 655.6
Q 573.85 654.05 576.45 654.05 578.9 654.05 580.25 655.65 581.6 657.2 581.6 660 581.6 662.85 580.1 664.55 578.55 666.2 576.15 666.2 575.05 666.2 574.05 665.7 573.1 665.2 572.4 664.3 571.7 663.4 571.3 662.15 570.9 661 570.9 659.6 570.9 657.15 572.4 655.6
M 526.55 616.05
Q 526.55 615.7 526.5 615.6 526.45 615.45 526.15 615.45
L 522.5 615.45
Q 522.1 615.45 522 615.55 521.9 615.65 521.7 616
L 509.3 634.6
Q 509.15 634.75 509 635.05 508.8 635.35 508.8 635.6
L 508.8 638.6
Q 508.8 638.9 508.95 638.95 509.1 639.05 509.45 639.05
L 522.25 639.05 522.25 645.15
Q 522.25 645.55 522.4 645.7 522.55 645.85 523 645.85
L 525.9 645.85
Q 526.3 645.85 526.4 645.7 526.55 645.6 526.55 645.15
L 526.55 639.05 530.25 639.05
Q 530.6 639.05 530.75 638.95 530.9 638.85 530.9 638.45
L 530.9 635.55
Q 530.9 635.15 530.75 635.05 530.6 634.95 530.25 634.95
L 526.55 634.95 526.55 616.05
M 522.25 634.95
L 513.65 634.95 522.25 621.9 522.25 634.95
M 442.9 589.1
Q 441.05 589.1 439.05 589.75 437.1 590.4 435.6 591.2 435.2 591.4 435.05 591.65 434.95 591.8 435.05 592
L 435.6 595.05
Q 435.7 595.4 436 595.45 436.3 595.45 436.65 595.25 438.45 594.2 439.95 593.75 441.5 593.3 443.15 593.3 444.9 593.3 446.05 594.55 447.25 595.8 447.25 597.7 447.25 599.4 445.65 602 444.05 604.65 440.7 608.6
L 434.6 615.85
Q 434.4 616.15 434.2 616.45 434.05 616.8 434.05 617.1
L 434.05 619.4
Q 434.05 619.9 434.8 619.9
L 451.85 619.9
Q 452.4 619.9 452.4 619.2
L 452.4 616.4
Q 452.4 615.8 451.85 615.8
L 440.1 615.8
Q 441.1 614.65 442.1 613.5 443.1 612.3 443.95 611.2 445.05 609.9 446.45 608.3 447.8 606.65 449 604.9 450.2 603.1 451 601.25 451.8 599.4 451.8 597.6 451.8 595.5 451.1 593.9 450.4 592.3 449.25 591.25 448.1 590.2 446.45 589.65 444.85 589.1 442.9 589.1
M 447.3 643.25
Q 448.7 643.25 449.9 643.35 451.05 643.45 452.1 643.85 452.65 644.1 452.75 643.55
L 452.85 640.35
Q 452.9 639.95 452.55 639.85 451.65 639.5 450.2 639.3 448.8 639.1 447.65 639.1 443.9 639.1 441.35 640.4 438.8 641.75 437.2 644 435.65 646.2 434.95 649.25 434.25 652.25 434.25 655.65 434.25 663.1 436.8 666.65 439.35 670.2 444.05 670.2 446.35 670.2 448.2 669.4 450.05 668.6 451.35 667.15 452.65 665.8 453.3 663.85 454 662 454 659.8 454 657.5 453.3 655.7 452.6 653.85 451.3 652.55 450.05 651.25 448.25 650.55 446.5 649.85 444.3 649.85 443.55 649.85 442.75 650.1 441.95 650.3 441.2 650.65 440.45 651 439.85 651.45 439.25 651.9 438.9 652.4 439.15 650.45 439.75 648.75 440.3 647.1 441.3 645.85 442.3 644.6 443.75 643.9 445.25 643.25 447.3 643.25
M 440.4 655.6
Q 441.85 654.05 444.45 654.05 446.9 654.05 448.25 655.65 449.6 657.2 449.6 660 449.6 662.85 448.1 664.55 446.55 666.2 444.15 666.2 443.05 666.2 442.05 665.7 441.1 665.2 440.4 664.3 439.7 663.4 439.3 662.15 438.9 661 438.9 659.6 438.9 657.15 440.4 655.6
M 484.65 617.4
Q 484.5 617.4 484.3 617.5 484.2 617.7 484.2 617.85
L 484.2 626.25 475.7 626.25
Q 475.5 626.25 475.4 626.4 475.25 626.55 475.25 626.75
L 475.25 629.85
Q 475.25 630.05 475.4 630.2 475.5 630.35 475.7 630.35
L 484.2 630.35 484.2 638.8
Q 484.2 639.3 484.65 639.3
L 487.95 639.3
Q 488.4 639.3 488.4 638.8
L 488.4 630.35 496.85 630.35
Q 497.35 630.35 497.35 629.85
L 497.35 626.75
Q 497.35 626.25 496.85 626.25
L 488.4 626.25 488.4 617.85
Q 488.4 617.7 488.3 617.5 488.15 617.4 487.95 617.4
L 484.65 617.4 Z"/>
</g>

<g id="__________dd535_____3_2_Layer4_0_FILL">
<path fill="#D7EDE8" stroke="none" d="
M 474 259.05
L 343 259.05
Q 323 259.05 323 279.05
L 323 441
Q 323 461 343 461
L 474 461
Q 494 461 494 441
L 494 279.05
Q 494 259.05 474 259.05 Z"/>
</g>

<g id="__________dd535_____3_2_Layer4_1_FILL">
<path fill="#ECFAF7" stroke="none" d="
M 715.5 309.05
Q 715.5 289.05 695.5 289.05
L 584.5 289.05
Q 564.5 289.05 564.5 309.05
L 564.5 451
Q 564.5 471 584.5 471
L 695.5 471
Q 715.5 471 715.5 451
L 715.5 309.05 Z"/>
</g>

<g id="__________dd535_____3_2_Layer3_0_FILL">
<path fill="#D7EDE8" stroke="none" d="
M -72.1 96
L -52.05 96
Q -52.05 84.2 -60.4 75.9 -68.7 67.55 -80.5 67.55
L -80.5 86.95 -72.1 86.95 -72.1 96
M -52.05 -95.95
L -72.1 -95.95 -72.1 -86.9 -80.5 -86.9 -80.5 -67.5
Q -68.7 -67.5 -60.4 -75.85 -52.05 -84.15 -52.05 -95.95
M 52.05 96
L 72.1 96 72.1 86.95 80.5 86.95 80.5 67.55
Q 68.7 67.55 60.4 75.9 52.05 84.2 52.05 96
M 72.1 -95.95
L 52.05 -95.95
Q 52.05 -84.15 60.4 -75.85 68.7 -67.5 80.5 -67.5
L 80.5 -86.9 72.1 -86.9 72.1 -95.95 Z"/>
</g>

<g id="__________dd535_____3_2_Layer0_0_FILL">
<path fill="#1E1E1E" stroke="none" d="
M 3.2 -26.9
Q 5.1 -26.5 6.75 -25.5 8.4 -24.55 9.45 -23.05 10.5 -21.5 10.5 -19.45 10.5 -16.8 8.85 -14.95 7.2 -13.15 4.85 -11.9 2.55 -10.7 0.05 -10.2 -2.4 -9.7 -4.15 -9.7
L -8 -9.7
Q -8.65 -9.7 -8.85 -9.55 -9.05 -9.4 -9.05 -8.65
L -9.05 -2.75
Q -9.05 -2.05 -8.85 -1.9 -8.65 -1.7 -8 -1.7
L -4 -1.7
Q -0.2 -1.7 2.6 -0.95 5.35 -0.15 7.15 1.15 8.9 2.5 9.7 4.2 10.55 5.95 10.55 7.75 10.55 13.1 6.7 15.8 5.35 16.7 3.8 17.25 2.25 17.75 0.5 17.95 -1.2 18.15 -2.95 18.1 -4.7 18 -6.4 17.85 -8.6 17.7 -10.65 17.05 -12.7 16.5 -14.85 15.85 -15.9 15.45 -16.3 15.65 -16.75 15.95 -16.8 16.65
L -17.5 22.65
Q -17.6 23.35 -17.3 23.7 -17 24.05 -16.15 24.35 -13.25 25.35 -9.7 26 -6.25 26.55 -2.8 26.55 1.8 26.55 6.1 25.4 10.4 24.25 13.4 21.75 16.45 19.3 18.1 15.8 19.75 12.25 19.75 8 19.75 3.6 17.05 0.05 14.3 -3.5 9.05 -5.8 11.25 -6.8 13.2 -8.3 15.1 -9.85 16.45 -11.75 17.85 -13.65 18.6 -15.8 19.35 -18 19.35 -20.15 19.35 -24.2 17.65 -27.2 16 -30.15 13.3 -32 10.65 -33.85 7.15 -34.75 3.7 -35.6 0.05 -35.6 -3.3 -35.6 -6.65 -34.9 -10 -34.15 -13.55 -32.9 -14.4 -32.55 -14.65 -32.15 -14.9 -31.75 -14.7 -31.3
L -14 -25.45
Q -13.85 -24.75 -13.45 -24.55 -13.05 -24.35 -12.1 -24.75 -10.8 -25.2 -9.2 -25.65 -7.6 -26.15 -6.05 -26.5 -4.5 -26.9 -3 -27.1 -1.55 -27.35 -0.4 -27.35 1.25 -27.35 3.2 -26.9 Z"/>
</g>

<g id="__________dd535_____3_4_Layer4_0_FILL">
<path fill="#FEE4D1" stroke="none" d="
M 474 259.05
L 343 259.05
Q 323 259.05 323 279.05
L 323 441
Q 323 461 343 461
L 474 461
Q 494 461 494 441
L 494 279.05
Q 494 259.05 474 259.05 Z"/>
</g>

<g id="__________dd535_____3_4_Layer4_1_FILL">
<path fill="#FFF6F0" stroke="none" d="
M 75.5 -70.95
Q 75.5 -90.95 55.5 -90.95
L -55.5 -90.95
Q -75.5 -90.95 -75.5 -70.95
L -75.5 71
Q -75.5 91 -55.5 91
L 55.5 91
Q 75.5 91 75.5 71
L 75.5 -70.95 Z"/>
</g>

<g id="__________dd535_____3_4_Layer3_0_FILL">
<path fill="#FEE4D1" stroke="none" d="
M -72.1 96
L -52.05 96
Q -52.05 84.2 -60.4 75.9 -68.7 67.55 -80.5 67.55
L -80.5 86.95 -72.1 86.95 -72.1 96
M -52.05 -95.95
L -72.1 -95.95 -72.1 -86.9 -80.5 -86.9 -80.5 -67.5
Q -68.7 -67.5 -60.4 -75.85 -52.05 -84.15 -52.05 -95.95
M 52.05 96
L 72.1 96 72.1 86.95 80.5 86.95 80.5 67.55
Q 68.7 67.55 60.4 75.9 52.05 84.2 52.05 96
M 72.1 -95.95
L 52.05 -95.95
Q 52.05 -84.15 60.4 -75.85 68.7 -67.5 80.5 -67.5
L 80.5 -86.9 72.1 -86.9 72.1 -95.95 Z"/>
</g>

<g id="__________dd535_____3_4_Layer0_0_FILL">
<path fill="#1E1E1E" stroke="none" d="
M 19.55 -1.9
Q 18.05 -5.25 15.5 -7.65 12.85 -10 9.35 -11.25 5.85 -12.45 1.8 -12.45 -2.1 -12.45 -5.2 -11.75
L -4.9 -26.65 17.35 -26.65
Q 17.85 -26.65 18.1 -27 18.4 -27.35 18.4 -27.75
L 18.4 -33.9
Q 18.4 -34.35 18.1 -34.65 17.85 -34.95 17.35 -34.95
L -11.95 -34.95
Q -13.15 -34.95 -13.4 -34.75 -13.6 -34.5 -13.7 -33.6
L -14.1 -4.05
Q -14.1 -1.35 -10.95 -2.65 -8.4 -3.6 -5.65 -4.15 -2.85 -4.75 -0.25 -4.75 6.3 -4.75 9.15 -1.65 12 1.45 12 6.65 12 12 8.5 15.05 5 18.1 -0.35 18.1 -1.8 18.1 -3.4 17.95 -5.05 17.75 -6.75 17.45 -8.4 17.1 -10 16.7 -11.6 16.25 -12.8 15.6 -14.5 14.8 -14.5 16.25
L -14.5 22.75
Q -14.5 23.3 -14.45 23.55 -14.4 23.85 -13.85 24.2 -12.55 24.8 -10.7 25.25 -8.8 25.65 -6.95 26 -5.05 26.25 -3.4 26.35 -1.8 26.5 -0.95 26.5 3.6 26.5 7.75 25.2 11.95 23.9 14.8 21.3 21.05 15.65 21.05 5.6 21.05 1.45 19.55 -1.9 Z"/>
</g>

<g id="__________fnfmf343434_copy_76_0_Layer1_0_FILL">
<path fill="#FFFFFF" stroke="none" d="
M 30 -15
Q 30 -30 15 -30
L -15 -30
Q -30 -30 -30 -15
L -30 15.05
Q -30 30.05 -15 30.05
L 15 30.05
Q 30 30.05 30 15.05
L 30 -15 Z"/>
</g>

<g id="__________fnfmf343434_copy_77_0_Layer1_0_FILL">
<path fill="#FFFFFF" stroke="none" d="
M 30 -15
Q 30 -30 15 -30
L -15 -30
Q -30 -30 -30 -15
L -30 15.05
Q -30 30.05 -15 30.05
L 15 30.05
Q 30 30.05 30 15.05
L 30 -15 Z"/>
</g>

<g id="__________fnfmf343434_copy_78_0_Layer1_0_FILL">
<path fill="#FFFFFF" stroke="none" d="
M 30 -15
Q 30 -30 15 -30
L -15 -30
Q -30 -30 -30 -15
L -30 15.05
Q -30 30.05 -15 30.05
L 15 30.05
Q 30 30.05 30 15.05
L 30 -15 Z"/>
</g>

<g id="__________fnfmf343434_copy_72_0_Layer1_0_FILL">
<path fill="#FFFFFF" stroke="none" d="
M 30 -15
Q 30 -30 15 -30
L -15 -30
Q -30 -30 -30 -15
L -30 15.05
Q -30 30.05 -15 30.05
L 15 30.05
Q 30 30.05 30 15.05
L 30 -15 Z"/>
</g>

<g id="__________fnfmf343434_copy_74_0_Layer1_0_FILL">
<path fill="#FFFFFF" stroke="none" d="
M 30 -15
Q 30 -30 15 -30
L -15 -30
Q -30 -30 -30 -15
L -30 15.05
Q -30 30.05 -15 30.05
L 15 30.05
Q 30 30.05 30 15.05
L 30 -15 Z"/>
</g>

<path id="Layer0_0_1_STROKES" stroke="#1E1E1E" stroke-width="3" stroke-linejoin="miter" stroke-linecap="butt" stroke-miterlimit="3" fill="none" d="
M 424.85 629.4
L 463.05 629.4"/>

<path id="__________fnfmf343434_copy_76_0_Layer1_0_1_STROKES" stroke="#DBDBDB" stroke-width="3" stroke-linejoin="round" stroke-linecap="round" fill="none" d="
M -15 -30
L 15 -30
Q 30 -30 30 -15
L 30 15.05
Q 30 30.05 15 30.05
L -15 30.05
Q -30 30.05 -30 15.05
L -30 -15
Q -30 -30 -15 -30 Z"/>

<path id="Layer0_4_1_STROKES" stroke="#1E1E1E" stroke-width="3" stroke-linejoin="miter" stroke-linecap="butt" stroke-miterlimit="3" fill="none" d="
M 953.6010498046874 618.1
L 1016.3705718994142 618.1"/>

<path id="__________fnfmf343434_copy_77_0_Layer1_0_1_STROKES" stroke="#DBDBDB" stroke-width="3" stroke-linejoin="round" stroke-linecap="round" fill="none" d="
M -15 -30
L 15 -30
Q 30 -30 30 -15
L 30 15.05
Q 30 30.05 15 30.05
L -15 30.05
Q -30 30.05 -30 15.05
L -30 -15
Q -30 -30 -15 -30 Z"/>

<path id="__________fnfmf343434_copy_78_0_Layer1_0_1_STROKES" stroke="#DBDBDB" stroke-width="3" stroke-linejoin="round" stroke-linecap="round" fill="none" d="
M -15 -30
L 15 -30
Q 30 -30 30 -15
L 30 15.05
Q 30 30.05 15 30.05
L -15 30.05
Q -30 30.05 -30 15.05
L -30 -15
Q -30 -30 -15 -30 Z"/>

<path id="__________fnfmf343434_copy_72_0_Layer1_0_1_STROKES" stroke="#DBDBDB" stroke-width="3" stroke-linejoin="round" stroke-linecap="round" fill="none" d="
M -15 -30
L 15 -30
Q 30 -30 30 -15
L 30 15.05
Q 30 30.05 15 30.05
L -15 30.05
Q -30 30.05 -30 15.05
L -30 -15
Q -30 -30 -15 -30 Z"/>

<path id="Layer0_8_1_STROKES" stroke="#1E1E1E" stroke-width="3" stroke-linejoin="miter" stroke-linecap="butt" stroke-miterlimit="3" fill="none" d="
M 544.5510498046874 629.1
L 607.3205718994143 629.1"/>

<path id="__________fnfmf343434_copy_74_0_Layer1_0_1_STROKES" stroke="#DBDBDB" stroke-width="3" stroke-linejoin="round" stroke-linecap="round" fill="none" d="
M -15 -30
L 15 -30
Q 30 -30 30 -15
L 30 15.05
Q 30 30.05 15 30.05
L -15 30.05
Q -30 30.05 -30 15.05
L -30 -15
Q -30 -30 -15 -30 Z"/>

<path id="Layer0_10_1_STROKES" stroke="#CCCCCC" stroke-width="3" stroke-linejoin="round" stroke-linecap="round" fill="none" d="
M 846.8 628.6
L 1069.3 628.6"/>

<path id="Layer0_11_1_STROKES" stroke="#CCCCCC" stroke-width="3" stroke-linejoin="round" stroke-linecap="round" fill="none" d="
M 286.8 628.6
L 317 628.6 669.3 628.6"/>
</defs>

<g transform="matrix( 1, 0, 0, 1, 0,0) ">
<use xlink:href="#Layer0_0_FILL"/>

<use xlink:href="#Layer0_0_1_STROKES"/>
</g>

<g transform="matrix( 0.699981689453125, 0, 0, 0.699981689453125, 570,403.6) ">
<g transform="matrix( 1, 0, 0, 1, -408.5,-360) ">
<use xlink:href="#__________dd535_____3_2_Layer4_0_FILL"/>
</g>

<g transform="matrix( 1, 0, 0, 1, -640,-380) ">
<use xlink:href="#__________dd535_____3_2_Layer4_1_FILL"/>
</g>

<g transform="matrix( 1, 0, 0, 1, 0,0) ">
<use xlink:href="#__________dd535_____3_2_Layer3_0_FILL"/>
</g>

<g transform="matrix( 1, 0, 0, 1, 0,0) ">
<use xlink:href="#__________dd535_____3_2_Layer0_0_FILL"/>
</g>
</g>

<g transform="matrix( 0.699981689453125, 0, 0, 0.699981689453125, 710,403.6) ">
<g transform="matrix( 1, 0, 0, 1, -408.5,-360) ">
<use xlink:href="#__________dd535_____3_4_Layer4_0_FILL"/>
</g>

<g transform="matrix( 1, 0, 0, 1, 0,0) ">
<use xlink:href="#__________dd535_____3_4_Layer4_1_FILL"/>
</g>

<g transform="matrix( 1, 0, 0, 1, 0,0) ">
<use xlink:href="#__________dd535_____3_4_Layer3_0_FILL"/>
</g>

<g transform="matrix( 1, 0, 0, 1, 0,0) ">
<use xlink:href="#__________dd535_____3_4_Layer0_0_FILL"/>
</g>
</g>

<g transform="matrix( 1, 0, 0, 1, 915.95,618.6) ">
<g transform="matrix( 1, 0, 0, 1, 0,0) ">
<use xlink:href="#__________fnfmf343434_copy_76_0_Layer1_0_FILL"/>

<use xlink:href="#__________fnfmf343434_copy_76_0_Layer1_0_1_STROKES"/>
</g>
</g>

<g transform="matrix( 1.51800537109375, 0, 0, 1, -812.75,246.6) ">
<use xlink:href="#Layer0_4_1_STROKES" transform="matrix( 0.65875244140625, 0, 0, 0.9999847412109375, 535.4,-246.6) "/>
</g>

<g transform="matrix( 1, 0, 0, 1, 985.95,658.6) ">
<g transform="matrix( 1, 0, 0, 1, 0,0) ">
<use xlink:href="#__________fnfmf343434_copy_77_0_Layer1_0_FILL"/>

<use xlink:href="#__________fnfmf343434_copy_77_0_Layer1_0_1_STROKES"/>
</g>
</g>

<g transform="matrix( 1, 0, 0, 1, 985.95,578.6) ">
<g transform="matrix( 1, 0, 0, 1, 0,0) ">
<use xlink:href="#__________fnfmf343434_copy_78_0_Layer1_0_FILL"/>

<use xlink:href="#__________fnfmf343434_copy_78_0_Layer1_0_1_STROKES"/>
</g>
</g>

<g transform="matrix( 1, 0, 0, 1, 385.7,628.5) ">
<g transform="matrix( 1, 0, 0, 1, 0,0) ">
<use xlink:href="#__________fnfmf343434_copy_72_0_Layer1_0_FILL"/>

<use xlink:href="#__________fnfmf343434_copy_72_0_Layer1_0_1_STROKES"/>
</g>
</g>

<g transform="matrix( 1.51800537109375, 0, 0, 1, -1221.8,257.6) ">
<use xlink:href="#Layer0_8_1_STROKES" transform="matrix( 0.65875244140625, 0, 0, 0.9999847412109375, 804.85,-257.6) "/>
</g>

<g transform="matrix( 1, 0, 0, 1, 576.9,589.6) ">
<g transform="matrix( 1, 0, 0, 1, 0,0) ">
<use xlink:href="#__________fnfmf343434_copy_74_0_Layer1_0_FILL"/>

<use xlink:href="#__________fnfmf343434_copy_74_0_Layer1_0_1_STROKES"/>
</g>
</g>

<g transform="matrix( 1, 0, 0, 1, 0,70) ">
<use xlink:href="#Layer0_10_1_STROKES"/>
</g>

<g transform="matrix( 1, 0, 0, 1, 0,70) ">
<use xlink:href="#Layer0_11_1_STROKES"/>
</g>
</svg>
