<?xml version="1.0" encoding="utf-8"?>
<!-- Generator: Adobe Illustrator 25.2.1, SVG Export Plug-In . SVG Version: 6.00 Build 0)  -->
<svg version="1.1" id="레이어_1" xmlns="http://www.w3.org/2000/svg" xmlns:xlink="http://www.w3.org/1999/xlink" x="0px"
	 y="0px" width="402px" height="305.8px" viewBox="0 0 402 305.8" style="enable-background:new 0 0 402 305.8;"
	 xml:space="preserve">
<g id="레이어_2_1_">
	<g id="레이어_1-2">
		<polygon style="fill:none;stroke:#000000;stroke-width:2.2451;stroke-linejoin:round;" points="200.8,28.3 34.2,153.3 
			200.8,278.3 367.5,153.3 		"/>
		<g>
			<defs>
				<rect id="SVGID_1_" x="1" y="0.8" width="400" height="304.3"/>
			</defs>
			<clipPath id="SVGID_2_">
				<use xlink:href="#SVGID_1_"  style="overflow:visible;"/>
			</clipPath>
			<g style="clip-path:url(#SVGID_2_);">
				<path d="M197.8,5.8c-1,0-1.9,0.2-2.8,0.7c-0.8,0.4-2.2,0-4.2-1.1c-0.3-0.1-0.5-0.4-0.6-0.7c0-0.3,0.6-0.3,2-0.3
					c2.8,0.3,5.6,0.3,8.4,0.2c2.4,0,4.8-0.1,7.2-0.3c0.4-0.1,0.7-0.2,1.1-0.4c0.3-0.1,0.7-0.1,1,0c0.9,0.2,1.2,0.4,1,0.8
					c-0.2,0.4-0.4,0.8-0.3,1.3v8.4c0,1.4-0.1,2.8-0.3,4.2c-0.3,1-0.6,1.5-1,1.5s-0.4-0.4-0.5-1.2c-0.1-1.1-0.1-2.2,0-3.3V5.5
					L197.8,5.8z"/>
				<path d="M10.1,151.7c0.1-0.5-0.1-1.1-0.4-1.5c-0.5-0.4-1.1-0.6-1.7-0.6c-0.3,0-0.6-0.2-0.9-0.5c-0.2-0.3,0.3-0.4,1.4-0.6H10
					l1.4,0.2c0.8,0.1,1.2,0.3,1.1,0.7c-0.1,0.5-0.2,1-0.2,1.5v10.7c0,0.4,0.1,0.7,0.4,1c0.3,0.2,0.6,0.3,0.9,0.3H22
					c0.5,0,1,0,1.4-0.2c0.4-0.1,0.7-0.3,1.1-0.5c0.5-0.3,1-0.5,1.6-0.4c0.7,0,1.3,0,2,0.2c1.1,0.2,1.5,0.6,1.4,1.2
					c-0.1,0.6-0.7,0.9-1.7,0.9H13.6c-0.8,0.1-1.6,0-2.4-0.3c-0.8-0.4-1.2-1.3-1.1-2.1V151.7z"/>
				<path d="M196.1,303c-0.8,0-1.6-0.1-2.4-0.4c-0.7-0.3-1.1-1-1.1-2.1v-9.3c0.1-0.7-0.3-1.3-0.8-1.6c-0.5-0.2-1-0.3-1.5-0.5
					c-0.3,0-0.5-0.2-0.7-0.4c0-0.2,0.4-0.4,1.4-0.5c0.7-0.2,1.4-0.2,2.1,0c0.5,0.2,1,0.4,1.6,0.4c1.5,0.1,3.1,0.1,4.6,0
					c2.1,0,3.3,0,3.5,0c0.5,0,1,0,1.5-0.2c0.4-0.1,0.7-0.3,1-0.5c0.5-0.3,1.2-0.4,1.8-0.4c0.7,0,1.4,0,2,0.1
					c1.1,0.3,1.5,0.6,1.4,1.2s-0.7,0.8-1.7,0.8h-14.2v10.9c0,0.4,0.1,0.7,0.4,1c0.3,0.2,0.6,0.3,0.9,0.3h8.2c0.4,0,0.8,0,1.2-0.2
					c0.3-0.1,0.6-0.3,0.9-0.5c0.5-0.3,1.1-0.5,1.7-0.4c0.7,0,1.4,0,2,0.2c1.1,0.2,1.5,0.6,1.4,1.2s-0.7,0.9-1.7,0.9L196.1,303z"/>
				<path d="M378.7,155.1c0.1-0.4-0.1-0.7-0.4-1c-0.3-0.2-0.7-0.4-1.1-0.4c-0.7-0.2-1-0.4-0.9-0.6c0.1-0.2,0.4-0.3,1.2-0.4
					c0.5-0.1,1.1-0.1,1.6,0l1.7,0.3h12.1v-6h-9.3c-0.4,0-0.8,0.1-1.2,0.2h-0.6c-0.4,0.1-0.9,0.2-1.3,0.4c-0.6,0.2-1.8-0.2-3.5-1.1
					c-0.4-0.2-0.5-0.4-0.3-0.6c0.2-0.2,0.7-0.3,1.4-0.2l1.9,0.2c0.6,0,1.2,0,2,0h5.1c1.8,0.1,3.6,0,5.3-0.3c0.3-0.2,0.7-0.3,1.1-0.4
					c0.4-0.1,0.9,0,1.3,0.2c0.7,0.2,0.9,0.5,0.6,0.8c-0.3,0.3-0.4,0.6-0.5,1l-0.6,5.6h0.6c0.4,0,0.6,0,0.6,0.5
					c0,0.2-0.2,0.4-0.4,0.4c-0.4,0.1-0.8,0.1-1.2,0h-13.3v5c0,0.4,0.2,0.7,0.4,1c0.3,0.2,0.6,0.3,0.9,0.3h8.1c0.4,0,0.8,0,1.2-0.2
					c0.4-0.1,0.8-0.3,1.2-0.5c0.5-0.2,1-0.4,1.5-0.4c0.6,0,1.3,0,1.9,0.2c1,0.2,1.5,0.6,1.4,1.1c-0.1,0.5-0.7,0.8-1.7,0.8h-13.5
					c-0.8,0-1.6-0.1-2.3-0.3c-0.8-0.2-1.1-0.9-1.1-2V155.1z"/>
				<path style="fill:none;stroke:#000000;stroke-width:1.4032;stroke-linejoin:round;" d="M367.5,153.3H34.2 M200.8,28.4v250"/>
				<path style="fill:none;stroke:#000000;stroke-width:0.7016;stroke-dasharray:4.2096,2.8064;" d="M201.3,28.4
					c0,0-45.4,53.3-1,124.8c0,0,73.2,47.7,166.3,0"/>
				<rect x="242.4" y="158.8" style="fill:#FFFFFF;" width="79.7" height="19"/>
			</g>
		</g>
		<path style="fill:#231815;" d="M262.3,160l-9.5,13.8h8.2v-6.2c0-1,0.8-1.4,1.6-1.4s1.7,0.4,1.7,1.4v6.2h2.5c0.8,0,1.2,0.6,1.2,1.4
			s-0.3,1.4-1.2,1.4h-2.5v3.9c0,1-0.8,1.4-1.7,1.4c-0.9,0-1.6-0.4-1.6-1.4v-3.9h-10.1c-1.5,0-2.2-0.5-2.2-1.7c0-0.4,0-0.7,0.9-2
			l10.2-14.6c0.4-0.7,1.3-1,2-0.6c0.1,0.1,0.2,0.2,0.3,0.3C262.6,158.4,262.8,159.2,262.3,160C262.3,159.9,262.3,159.9,262.3,160z"
			/>
		<path style="fill:#231815;" d="M286.7,165c0.7,0.5,0.8,1.4,0.3,2c0,0,0,0,0,0c-0.4,0.6-1.2,0.8-1.8,0.5c0,0,0,0,0,0
			c-1.3-0.7-2.7-1.1-4.1-1c-2.9,0-4.7,1.8-4.7,5.6v1c0,3.8,1.8,5.6,4.7,5.6c1.5,0,3.1-0.4,4.4-1.2c0.6-0.4,1.4-0.3,1.8,0.3
			c0,0.1,0.1,0.1,0.1,0.2c0.5,0.6,0.3,1.5-0.3,2c0,0,0,0-0.1,0c-1.8,1.1-3.9,1.6-6,1.5c-5,0-8.1-2.8-8.1-8.6v-1.1c0-5.6,3-8.4,8-8.4
			C283,163.5,285,164,286.7,165z"/>
		<path style="fill:#231815;" d="M305,166.6c1.2-2,3.4-3.2,5.8-3.1c3.3-0.1,6.1,2.5,6.2,5.8c0,0.3,0,0.6,0,0.9v10.2
			c0,1-0.8,1.4-1.7,1.4s-1.7-0.4-1.7-1.4v-9.4c0-3.2-1.4-4.4-3.8-4.4c-2.2-0.1-4,1.6-4,3.8c0,0.2,0,0.3,0,0.5v9.6
			c0,1-0.8,1.4-1.7,1.4c-0.9,0-1.6-0.4-1.6-1.4v-9.5c0-3.1-1.3-4.4-3.8-4.4c-2.1-0.1-3.9,1.6-4,3.7c0,0.1,0,0.3,0,0.4v9.7
			c0,1-0.8,1.4-1.7,1.4c-0.9,0-1.7-0.4-1.7-1.4v-15.2c0-1,0.8-1.3,1.6-1.3c0.8,0,1.6,0.4,1.6,1.3v1.4c1-1.9,3-3.1,5.2-3
			C302.1,163.4,304.2,164.6,305,166.6z"/>
		<g>
			<defs>
				<rect id="SVGID_3_" x="1" y="0.8" width="400" height="304.3"/>
			</defs>
			<clipPath id="SVGID_4_">
				<use xlink:href="#SVGID_3_"  style="overflow:visible;"/>
			</clipPath>
			<g style="clip-path:url(#SVGID_4_);">
				<rect x="162" y="87.7" style="fill:#FFFFFF;" width="35.2" height="32.1"/>
			</g>
		</g>
		<path style="fill:#231815;" d="M140.9,94.2v0.2c0.1,2.6-1.6,4.9-4.2,5.6c3,0.2,5.2,2.7,5.1,5.6v0.3c0,3.7-2.8,7-8.4,7
			c-2.4,0.1-4.9-0.6-6.9-2c-0.7-0.4-1-1.4-0.5-2.1c0,0,0-0.1,0.1-0.1c0.3-0.7,1.2-1,1.9-0.6c0.1,0,0.2,0.1,0.2,0.1
			c1.5,1.1,3.3,1.7,5.1,1.7c3.8,0,5.2-1.9,5.2-4.1v-0.3c0-2.8-2.3-3.9-5.3-3.9h-2c-0.8,0-1.2-0.7-1.2-1.5c0-0.8,0.4-1.4,1.2-1.4h1.7
			c2.8,0,4.7-1.2,4.7-4l0,0c0-2-1.5-3.5-4.4-3.5c-1.7,0-3.3,0.7-4.3,2c-0.5,0.6-1.3,0.6-1.9,0.1c-0.1,0-0.1-0.1-0.1-0.1
			c-0.5-0.6-0.5-1.5,0-2c1.6-1.9,4-2.9,6.4-2.8C138.3,88.1,140.9,90.8,140.9,94.2z"/>
		<path style="fill:#231815;" d="M162.5,95.8c0.7,0.5,0.8,1.4,0.4,2c0,0,0,0,0,0c-0.4,0.6-1.1,0.8-1.8,0.5c0,0-0.1,0-0.1-0.1
			c-1.2-0.7-2.7-1.1-4.1-1c-3,0-4.7,1.8-4.7,5.6v1c0,3.8,1.8,5.6,4.7,5.6c1.5,0.1,3.1-0.3,4.4-1.2c0.6-0.4,1.4-0.3,1.8,0.4
			c0,0,0.1,0.1,0.1,0.1c0.5,0.6,0.4,1.5-0.3,2c0,0-0.1,0.1-0.1,0.1c-1.8,1.1-3.9,1.6-6,1.5c-5,0-8.1-2.8-8.1-8.6v-1.1
			c0-5.8,3-8.6,8-8.6C158.9,94.1,160.9,94.7,162.5,95.8z"/>
		<path style="fill:#231815;" d="M180.9,97.4c1.2-2,3.4-3.2,5.8-3.1c3.3-0.1,6.1,2.5,6.2,5.8c0,0.3,0,0.6,0,0.9v10.2
			c0,0.9-0.8,1.4-1.7,1.4s-1.7-0.4-1.7-1.4v-9.4c0-3.2-1.4-4.4-3.8-4.4c-2.2-0.1-4,1.6-4,3.8c0,0.2,0,0.3,0,0.5v9.7
			c0,0.9-0.8,1.4-1.7,1.4c-0.8,0.1-1.5-0.4-1.6-1.2c0-0.1,0-0.1,0-0.2v-9.5c0-3.1-1.3-4.4-3.8-4.4c-2.1-0.1-3.9,1.6-4,3.7
			c0,0.1,0,0.3,0,0.4v9.8c0,0.9-0.8,1.4-1.7,1.4c-0.9,0-1.7-0.4-1.7-1.4V95.9c0-1,0.8-1.3,1.6-1.3c0.8,0,1.6,0.4,1.6,1.3v1.4
			c1.1-1.9,3.1-2.9,5.2-2.8C177.9,94.3,180,95.5,180.9,97.4z"/>
	</g>
</g>
</svg>
