
<svg xmlns="http://www.w3.org/2000/svg" version="1.1" xmlns:xlink="http://www.w3.org/1999/xlink" preserveAspectRatio="none" x="0px" y="0px" width="1280px" height="720px" viewBox="0 0 1280 720">
<defs>
<g id="Layer0_0_FILL">
<path fill="#1E1E1E" stroke="none" d="
M 320.8 313.35
Q 321.35 313.35 321.35 312.8
L 321.35 309.25
Q 321.35 308.75 320.8 308.75
L 315.65 308.75 313.25 308.75 299.45 308.75
Q 299.2 308.75 299.05 308.9 298.9 309.05 298.9 309.25
L 298.9 312.8
Q 298.9 313 299.05 313.2 299.2 313.35 299.45 313.35
L 313.25 313.35 315.65 313.35 320.8 313.35
M 836.6 309.25
Q 836.6 308.75 836.05 308.75
L 830.9 308.75 828.5 308.75 814.7 308.75
Q 814.45 308.75 814.3 308.9 814.15 309.05 814.15 309.25
L 814.15 312.8
Q 814.15 313 814.3 313.2 814.45 313.35 814.7 313.35
L 828.5 313.35 830.9 313.35 836.05 313.35
Q 836.6 313.35 836.6 312.8
L 836.6 309.25
M 388.75 317.9
Q 388.9 318.05 389.1 318.05
L 410.2 318.05
Q 410.4 318.05 410.55 317.9 410.7 317.8 410.7 317.55
L 410.7 314.4
Q 410.7 314.2 410.55 314.05 410.4 313.95 410.2 313.95
L 389.1 313.95
Q 388.9 313.95 388.75 314.05 388.6 314.2 388.6 314.4
L 388.6 317.55
Q 388.6 317.8 388.75 317.9
M 388.6 306.1
L 388.6 309.25
Q 388.6 309.45 388.75 309.6 388.9 309.75 389.1 309.75
L 410.2 309.75
Q 410.4 309.75 410.55 309.6 410.7 309.45 410.7 309.25
L 410.7 306.1
Q 410.7 305.9 410.55 305.75 410.4 305.6 410.2 305.6
L 389.1 305.6
Q 388.9 305.6 388.75 305.75 388.6 305.9 388.6 306.1
M 382.4 296.75
Q 382.25 296.55 382 296.55
L 367.35 296.55
Q 366.75 296.55 366.65 296.7 366.5 296.8 366.5 297.25
L 366.3 312
Q 366.3 313.35 367.85 312.7 369.1 312.25 370.5 312 371.9 311.7 373.2 311.7 376.5 311.7 377.9 313.25 379.35 314.75 379.35 317.35 379.35 320.05 377.55 321.55 375.85 323.1 373.15 323.1 372.45 323.1 371.6 323 370.8 322.95 369.95 322.8 369.1 322.6 368.3 322.4 367.5 322.15 366.95 321.85 366.1 321.45 366.1 322.15
L 366.1 325.4
Q 366.1 325.7 366.1 325.85 366.15 325.95 366.4 326.15 367.05 326.45 368 326.65 368.9 326.9 369.85 327.05 370.8 327.15 371.6 327.25 372.45 327.3 372.85 327.3 375.15 327.3 377.2 326.65 379.3 326 380.7 324.7 383.85 321.9 383.85 316.85 383.85 314.75 383.1 313.1 382.35 311.4 381.05 310.2 379.75 309.05 378 308.4 376.25 307.8 374.25 307.8 372.3 307.8 370.7 308.15
L 370.85 300.75 382 300.75
Q 382.25 300.75 382.4 300.55 382.5 300.4 382.5 300.15
L 382.5 297.1
Q 382.5 296.9 382.4 296.75
M 354.25 328.6
Q 355.15 329.5 356.45 329.5 357.7 329.5 358.6 328.6 359.45 327.7 359.45 326.4 359.45 325.1 358.6 324.25 357.7 323.35 356.45 323.35 355.15 323.35 354.25 324.25 353.35 325.1 353.35 326.4 353.35 327.7 354.25 328.6
M 347.5 318.3
Q 348.1 315.4 348.1 311.75 348.1 310.1 347.9 308.35 347.75 306.55 347.35 304.85 346.95 303.15 346.25 301.6 345.55 300.05 344.4 298.85 343.35 297.7 341.75 297 340.2 296.35 338.15 296.35 334.95 296.35 333 297.8 331.05 299.3 329.95 301.55 328.85 303.85 328.45 306.55 328.1 309.3 328.1 311.75 328.1 319.1 330.55 323.15 333 327.2 338.15 327.2 340.7 327.2 342.55 326.2 344.4 325.1 345.65 323.15 346.9 321.2 347.5 318.3
M 338.15 300.7
Q 339.35 300.7 340.4 301.3 341.4 301.85 342.15 303.15 342.85 304.5 343.25 306.6 343.6 308.75 343.6 311.75 343.6 314.85 343.25 317 342.85 319.1 342.15 320.4 341.4 321.75 340.4 322.3 339.35 322.9 338.15 322.9 336.85 322.9 335.85 322.3 334.85 321.75 334.15 320.4 333.4 319.1 333.05 317 332.65 314.85 332.65 311.75 332.65 308.75 333.05 306.6 333.4 304.5 334.15 303.15 334.85 301.85 335.85 301.3 336.85 300.7 338.15 300.7
M 286.45 296.45
Q 285.05 296.25 283.9 296.25 280.15 296.25 277.6 297.55 275.05 298.9 273.45 301.15 271.9 303.35 271.2 306.4 270.5 309.4 270.5 312.8 270.5 320.25 273.05 323.8 275.6 327.35 280.3 327.35 282.6 327.35 284.45 326.55 286.3 325.75 287.6 324.3 288.9 322.95 289.55 321 290.25 319.15 290.25 316.95 290.25 314.65 289.55 312.85 288.85 311 287.55 309.7 286.3 308.4 284.5 307.7 282.75 307 280.55 307 279.8 307 279 307.25 278.2 307.45 277.45 307.8 276.7 308.15 276.1 308.6 275.5 309.05 275.15 309.55 275.4 307.6 276 305.9 276.55 304.25 277.55 303 278.55 301.75 280 301.05 281.5 300.4 283.55 300.4 284.95 300.4 286.15 300.5 287.3 300.6 288.35 301 288.9 301.25 289 300.7
L 289.1 297.5
Q 289.15 297.1 288.8 297 287.9 296.65 286.45 296.45
M 284.5 312.8
Q 285.85 314.35 285.85 317.15 285.85 320 284.35 321.7 282.8 323.35 280.4 323.35 279.3 323.35 278.3 322.85 277.35 322.35 276.65 321.45 275.95 320.55 275.55 319.3 275.15 318.15 275.15 316.75 275.15 314.3 276.65 312.75 278.1 311.2 280.7 311.2 283.15 311.2 284.5 312.8
M 260.05 328.6
Q 260.95 329.5 262.25 329.5 263.5 329.5 264.4 328.6 265.25 327.7 265.25 326.4 265.25 325.1 264.4 324.25 263.5 323.35 262.25 323.35 260.95 323.35 260.05 324.25 259.15 325.1 259.15 326.4 259.15 327.7 260.05 328.6
M 234.25 306.55
Q 233.9 309.3 233.9 311.75 233.9 319.1 236.35 323.15 238.8 327.2 243.95 327.2 246.5 327.2 248.35 326.2 250.2 325.1 251.45 323.15 252.7 321.2 253.3 318.3 253.9 315.4 253.9 311.75 253.9 310.1 253.7 308.35 253.55 306.55 253.15 304.85 252.75 303.15 252.05 301.6 251.35 300.05 250.2 298.85 249.15 297.7 247.55 297 246 296.35 243.95 296.35 240.75 296.35 238.8 297.8 236.85 299.3 235.75 301.55 234.65 303.85 234.25 306.55
M 239.95 303.15
Q 240.65 301.85 241.65 301.3 242.65 300.7 243.95 300.7 245.15 300.7 246.2 301.3 247.2 301.85 247.95 303.15 248.65 304.5 249.05 306.6 249.4 308.75 249.4 311.75 249.4 314.85 249.05 317 248.65 319.1 247.95 320.4 247.2 321.75 246.2 322.3 245.15 322.9 243.95 322.9 242.65 322.9 241.65 322.3 240.65 321.75 239.95 320.4 239.2 319.1 238.85 317 238.45 314.85 238.45 311.75 238.45 308.75 238.85 306.6 239.2 304.5 239.95 303.15
M 926.1 318.05
Q 926.3 318.05 926.45 317.9 926.6 317.8 926.6 317.55
L 926.6 314.4
Q 926.6 314.2 926.45 314.05 926.3 313.95 926.1 313.95
L 905 313.95
Q 904.8 313.95 904.65 314.05 904.5 314.2 904.5 314.4
L 904.5 317.55
Q 904.5 317.8 904.65 317.9 904.8 318.05 905 318.05
L 926.1 318.05
M 926.45 305.75
Q 926.3 305.6 926.1 305.6
L 905 305.6
Q 904.8 305.6 904.65 305.75 904.5 305.9 904.5 306.1
L 904.5 309.25
Q 904.5 309.45 904.65 309.6 904.8 309.75 905 309.75
L 926.1 309.75
Q 926.3 309.75 926.45 309.6 926.6 309.45 926.6 309.25
L 926.6 306.1
Q 926.6 305.9 926.45 305.75
M 870.15 324.25
Q 869.25 325.1 869.25 326.4 869.25 327.7 870.15 328.6 871.05 329.5 872.35 329.5 873.6 329.5 874.5 328.6 875.35 327.7 875.35 326.4 875.35 325.1 874.5 324.25 873.6 323.35 872.35 323.35 871.05 323.35 870.15 324.25
M 899.25 296.75
Q 899.1 296.6 898.4 296.6
L 881.4 296.6
Q 880.7 296.6 880.7 297.25
L 880.7 300.05
Q 880.7 300.4 880.9 300.55 881.1 300.75 881.4 300.75
L 894.15 300.75 883.7 326.3
Q 883.55 326.75 883.7 326.85 883.85 327 884.45 327
L 887.7 327
Q 888.1 327 888.25 326.9 888.4 326.75 888.6 326.45
L 899.15 300.4
Q 899.4 300.1 899.4 299.75
L 899.4 297.35
Q 899.4 296.9 899.25 296.75
M 863.8 308.35
Q 863.65 306.55 863.25 304.85 862.85 303.15 862.15 301.6 861.45 300.05 860.3 298.85 859.25 297.7 857.65 297 856.1 296.35 854.05 296.35 850.85 296.35 848.9 297.8 846.95 299.3 845.85 301.55 844.75 303.85 844.35 306.55 844 309.3 844 311.75 844 319.1 846.45 323.15 848.9 327.2 854.05 327.2 856.6 327.2 858.45 326.2 860.3 325.1 861.55 323.15 862.8 321.2 863.4 318.3 864 315.4 864 311.75 864 310.1 863.8 308.35
M 854.05 300.7
Q 855.25 300.7 856.3 301.3 857.3 301.85 858.05 303.15 858.75 304.5 859.15 306.6 859.5 308.75 859.5 311.75 859.5 314.85 859.15 317 858.75 319.1 858.05 320.4 857.3 321.75 856.3 322.3 855.25 322.9 854.05 322.9 852.75 322.9 851.75 322.3 850.75 321.75 850.05 320.4 849.3 319.1 848.95 317 848.55 314.85 848.55 311.75 848.55 308.75 848.95 306.6 849.3 304.5 850.05 303.15 850.75 301.85 851.75 301.3 852.75 300.7 854.05 300.7
M 798.6 296.7
Q 796.85 296.25 795.05 296.25 793.35 296.25 791.7 296.6 790 297 788.25 297.6 787.85 297.8 787.7 298 787.55 298.15 787.65 298.4
L 788 301.35
Q 788.1 301.7 788.3 301.8 788.5 301.9 789 301.7 789.6 301.45 790.4 301.2 791.2 300.95 792 300.8 792.8 300.6 793.55 300.5 794.25 300.4 794.8 300.4 795.65 300.4 796.6 300.6 797.55 300.8 798.4 301.3 799.2 301.75 799.75 302.55 800.25 303.3 800.25 304.3 800.25 305.65 799.45 306.55 798.65 307.5 797.45 308.1 796.3 308.7 795.05 308.95 793.8 309.2 792.95 309.2
L 791.05 309.2
Q 790.7 309.2 790.6 309.3 790.5 309.35 790.5 309.75
L 790.5 312.7
Q 790.5 313 790.6 313.1 790.7 313.2 791.05 313.2
L 793 313.2
Q 794.95 313.2 796.3 313.6 797.7 313.95 798.6 314.65 799.45 315.3 799.9 316.15 800.3 317 800.3 317.95 800.3 320.6 798.35 321.95 797.7 322.4 796.95 322.65 796.15 322.95 795.3 323.05 794.45 323.15 793.55 323.1 792.65 323.05 791.85 323 790.75 322.9 789.7 322.6 788.65 322.3 787.6 322 787.05 321.75 786.85 321.9 786.65 322 786.6 322.35
L 786.25 325.4
Q 786.2 325.75 786.4 325.9 786.55 326.1 786.95 326.2 788.4 326.75 790.15 327.05 791.9 327.35 793.65 327.35 795.95 327.35 798.1 326.75 800.25 326.2 801.75 324.95 803.25 323.7 804.1 321.95 804.9 320.15 804.9 318.05 804.9 315.85 803.55 314.05 802.2 312.3 799.55 311.15 800.65 310.65 801.6 309.9 802.55 309.15 803.25 308.15 803.95 307.2 804.35 306.15 804.7 305.05 804.7 303.95 804.7 301.95 803.85 300.45 803 298.95 801.65 298.05 800.35 297.15 798.6 296.7
M 309.3 481.9
Q 309.05 481.9 308.9 482.05 308.75 482.2 308.75 482.4
L 308.75 485.95
Q 308.75 486.15 308.9 486.35 309.05 486.5 309.3 486.5
L 323.1 486.5 325.5 486.5 330.65 486.5
Q 331.2 486.5 331.2 485.95
L 331.2 482.4
Q 331.2 481.9 330.65 481.9
L 325.5 481.9 323.1 481.9 309.3 481.9
M 824 481.9
Q 823.75 481.9 823.6 482.05 823.45 482.2 823.45 482.4
L 823.45 485.95
Q 823.45 486.15 823.6 486.35 823.75 486.5 824 486.5
L 837.8 486.5 840.2 486.5 845.35 486.5
Q 845.9 486.5 845.9 485.95
L 845.9 482.4
Q 845.9 481.9 845.35 481.9
L 840.2 481.9 837.8 481.9 824 481.9
M 408.35 575.05
Q 409.25 575.95 410.55 575.95 411.8 575.95 412.7 575.05 413.55 574.15 413.55 572.85 413.55 571.55 412.7 570.7 411.8 569.8 410.55 569.8 409.25 569.8 408.35 570.7 407.45 571.55 407.45 572.85 407.45 574.15 408.35 575.05
M 407.9 501.75
Q 408.8 502.65 410.1 502.65 411.35 502.65 412.25 501.75 413.1 500.85 413.1 499.55 413.1 498.25 412.25 497.4 411.35 496.5 410.1 496.5 408.8 496.5 407.9 497.4 407 498.25 407 499.55 407 500.85 407.9 501.75
M 377.3 469.9
Q 377.2 469.75 376.5 469.75
L 374.4 469.75
Q 374.25 469.75 374.05 469.85 373.85 469.9 373.8 470
L 367.65 475.65
Q 367.45 475.85 367.45 476.05 367.4 476.3 367.55 476.45
L 369.35 478.6
Q 369.5 478.75 369.75 478.7 370 478.7 370.25 478.55
L 373.2 475.95 373.2 499.65
Q 373.2 500.15 373.75 500.15
L 376.95 500.15
Q 377.45 500.15 377.45 499.65
L 377.45 470.85
Q 377.45 470.05 377.3 469.9
M 374.35 419.9
Q 372.4 419.9 370.8 420.25
L 370.95 412.85 382.1 412.85
Q 382.35 412.85 382.5 412.65 382.6 412.5 382.6 412.25
L 382.6 409.2
Q 382.6 409 382.5 408.85 382.35 408.65 382.1 408.65
L 367.45 408.65
Q 366.85 408.65 366.75 408.8 366.6 408.9 366.6 409.35
L 366.4 424.1
Q 366.4 425.45 367.95 424.8 369.2 424.35 370.6 424.1 372 423.8 373.3 423.8 376.6 423.8 378 425.35 379.45 426.85 379.45 429.45 379.45 432.15 377.65 433.65 375.95 435.2 373.25 435.2 372.55 435.2 371.7 435.1 370.9 435.05 370.05 434.9 369.2 434.7 368.4 434.5 367.6 434.25 367.05 433.95 366.2 433.55 366.2 434.25
L 366.2 437.5
Q 366.2 437.8 366.2 437.95 366.25 438.05 366.5 438.25 367.15 438.55 368.1 438.75 369 439 369.95 439.15 370.9 439.25 371.7 439.35 372.55 439.4 372.95 439.4 375.25 439.4 377.3 438.75 379.4 438.1 380.8 436.8 383.95 434 383.95 428.95 383.95 426.85 383.2 425.2 382.45 423.5 381.15 422.3 379.85 421.15 378.1 420.5 376.35 419.9 374.35 419.9
M 445.3 469.85
Q 445.2 469.95 445 470.3
L 432.6 488.9
Q 432.45 489.05 432.3 489.35 432.1 489.65 432.1 489.9
L 432.1 492.9
Q 432.1 493.2 432.25 493.25 432.4 493.35 432.75 493.35
L 445.55 493.35 445.55 499.45
Q 445.55 499.85 445.7 500 445.85 500.15 446.3 500.15
L 449.2 500.15
Q 449.6 500.15 449.7 500 449.85 499.9 449.85 499.45
L 449.85 493.35 453.55 493.35
Q 453.9 493.35 454.05 493.25 454.2 493.15 454.2 492.75
L 454.2 489.85
Q 454.2 489.45 454.05 489.35 453.9 489.25 453.55 489.25
L 449.85 489.25 449.85 470.35
Q 449.85 470 449.8 469.9 449.75 469.75 449.45 469.75
L 445.8 469.75
Q 445.4 469.75 445.3 469.85
M 445.55 476.2
L 445.55 489.25 436.95 489.25 445.55 476.2
M 407.9 440.7
Q 408.8 441.6 410.1 441.6 411.35 441.6 412.25 440.7 413.1 439.8 413.1 438.5 413.1 437.2 412.25 436.35 411.35 435.45 410.1 435.45 408.8 435.45 407.9 436.35 407 437.2 407 438.5 407 439.8 407.9 440.7
M 445.7 439.1
Q 446.2 439.1 446.2 438.6
L 446.2 409.8
Q 446.2 409 446.05 408.85 445.95 408.7 445.25 408.7
L 443.15 408.7
Q 443 408.7 442.8 408.8 442.6 408.85 442.55 408.95
L 436.4 414.6
Q 436.2 414.8 436.2 415 436.15 415.25 436.3 415.4
L 438.1 417.55
Q 438.25 417.7 438.5 417.65 438.75 417.65 439 417.5
L 441.95 414.9 441.95 438.6
Q 441.95 439.1 442.5 439.1
L 445.7 439.1
M 919.25 575.05
Q 920.15 575.95 921.45 575.95 922.7 575.95 923.6 575.05 924.45 574.15 924.45 572.85 924.45 571.55 923.6 570.7 922.7 569.8 921.45 569.8 920.15 569.8 919.25 570.7 918.35 571.55 918.35 572.85 918.35 574.15 919.25 575.05
M 921 502.65
Q 922.25 502.65 923.15 501.75 924 500.85 924 499.55 924 498.25 923.15 497.4 922.25 496.5 921 496.5 919.7 496.5 918.8 497.4 917.9 498.25 917.9 499.55 917.9 500.85 918.8 501.75 919.7 502.65 921 502.65
M 960.4 469.6
Q 959 469.4 957.85 469.4 954.1 469.4 951.55 470.7 949 472.05 947.4 474.3 945.85 476.5 945.15 479.55 944.45 482.55 944.45 485.95 944.45 493.4 947 496.95 949.55 500.5 954.25 500.5 956.55 500.5 958.4 499.7 960.25 498.9 961.55 497.45 962.85 496.1 963.5 494.15 964.2 492.3 964.2 490.1 964.2 487.8 963.5 486 962.8 484.15 961.5 482.85 960.25 481.55 958.45 480.85 956.7 480.15 954.5 480.15 953.75 480.15 952.95 480.4 952.15 480.6 951.4 480.95 950.65 481.3 950.05 481.75 949.45 482.2 949.1 482.7 949.35 480.75 949.95 479.05 950.5 477.4 951.5 476.15 952.5 474.9 953.95 474.2 955.45 473.55 957.5 473.55 958.9 473.55 960.1 473.65 961.25 473.75 962.3 474.15 962.85 474.4 962.95 473.85
L 963.05 470.65
Q 963.1 470.25 962.75 470.15 961.85 469.8 960.4 469.6
M 950.6 494.6
Q 949.9 493.7 949.5 492.45 949.1 491.3 949.1 489.9 949.1 487.45 950.6 485.9 952.05 484.35 954.65 484.35 957.1 484.35 958.45 485.95 959.8 487.5 959.8 490.3 959.8 493.15 958.3 494.85 956.75 496.5 954.35 496.5 953.25 496.5 952.25 496 951.3 495.5 950.6 494.6
M 894.35 469.9
Q 894.2 469.75 893.5 469.75
L 876.5 469.75
Q 875.8 469.75 875.8 470.4
L 875.8 473.2
Q 875.8 473.55 876 473.7 876.2 473.9 876.5 473.9
L 889.25 473.9 878.8 499.45
Q 878.65 499.9 878.8 500 878.95 500.15 879.55 500.15
L 882.8 500.15
Q 883.2 500.15 883.35 500.05 883.5 499.9 883.7 499.6
L 894.25 473.55
Q 894.5 473.25 894.5 472.9
L 894.5 470.5
Q 894.5 470.05 894.35 469.9
M 921 435.45
Q 919.7 435.45 918.8 436.35 917.9 437.2 917.9 438.5 917.9 439.8 918.8 440.7 919.7 441.6 921 441.6 922.25 441.6 923.15 440.7 924 439.8 924 438.5 924 437.2 923.15 436.35 922.25 435.45 921 435.45
M 894.55 429.3
Q 895.2 426.25 895.2 422.9 895.2 415.45 892.65 411.9 890.1 408.35 885.4 408.35 883.1 408.35 881.3 409.15 879.45 409.95 878.15 411.35 876.85 412.75 876.15 414.65 875.5 416.55 875.5 418.75 875.5 421.05 876.2 422.85 876.85 424.65 878.15 425.95 879.45 427.25 881.25 427.95 883 428.65 885.15 428.65 885.9 428.65 886.7 428.45 887.5 428.25 888.25 427.9 889 427.55 889.65 427.1 890.25 426.65 890.6 426.15 890.35 428.05 889.75 429.75 889.15 431.4 888.15 432.65 887.15 433.9 885.7 434.6 884.25 435.3 882.15 435.3 880.75 435.3 879.6 435.2 878.4 435.1 877.35 434.65 876.8 434.45 876.7 435
L 876.6 438.2
Q 876.55 438.6 876.9 438.7 877.85 439.05 879.25 439.25 880.7 439.45 881.85 439.45 885.55 439.45 888.1 438.1 890.7 436.8 892.25 434.55 893.85 432.3 894.55 429.3
M 885.35 412.3
Q 886.45 412.3 887.4 412.85 888.35 413.35 889.05 414.25 889.75 415.15 890.15 416.35 890.55 417.55 890.55 418.9 890.55 421.35 889.1 422.95 887.6 424.5 885 424.5 882.55 424.5 881.25 422.9 879.9 421.3 879.9 418.55 879.9 415.65 881.4 414 882.95 412.3 885.35 412.3
M 961.2 420.5
Q 962 418.65 962 416.85 962 414.75 961.3 413.15 960.6 411.55 959.45 410.5 958.3 409.45 956.65 408.9 955.05 408.35 953.1 408.35 951.25 408.35 949.25 409 947.3 409.65 945.8 410.45 945.4 410.65 945.25 410.9 945.15 411.05 945.25 411.25
L 945.8 414.3
Q 945.9 414.65 946.2 414.7 946.5 414.7 946.85 414.5 948.65 413.45 950.15 413 951.7 412.55 953.35 412.55 955.1 412.55 956.25 413.8 957.45 415.05 957.45 416.95 957.45 418.65 955.85 421.25 954.25 423.9 950.9 427.85
L 944.8 435.1
Q 944.6 435.4 944.4 435.7 944.25 436.05 944.25 436.35
L 944.25 438.65
Q 944.25 439.15 945 439.15
L 962.05 439.15
Q 962.6 439.15 962.6 438.45
L 962.6 435.65
Q 962.6 435.05 962.05 435.05
L 950.3 435.05
Q 951.3 433.9 952.3 432.75 953.3 431.55 954.15 430.45 955.25 429.15 956.65 427.55 958 425.9 959.2 424.15 960.4 422.35 961.2 420.5 Z"/>

<path fill="#FFFFFF" stroke="none" d="
M 434.45 281.05
Q 419.45 281.05 419.45 296.05
L 419.45 326.1
Q 419.45 341.1 434.45 341.1
L 519.45 341.1
Q 534.45 341.1 534.45 326.1
L 534.45 296.05
Q 534.45 281.05 519.45 281.05
L 434.45 281.05
M 1050.35 296.05
Q 1050.35 281.05 1035.35 281.05
L 950.35 281.05
Q 935.35 281.05 935.35 296.05
L 935.35 326.1
Q 935.35 341.1 950.35 341.1
L 1035.35 341.1
Q 1050.35 341.1 1050.35 326.1
L 1050.35 296.05
M 470.35 542.2
Q 470.35 527.2 455.35 527.2
L 435.35 527.2
Q 420.35 527.2 420.35 542.2
L 420.35 572.25
Q 420.35 587.25 435.35 587.25
L 455.35 587.25
Q 470.35 587.25 470.35 572.25
L 470.35 542.2
M 400.35 542.2
Q 400.35 527.2 385.35 527.2
L 365.35 527.2
Q 350.35 527.2 350.35 542.2
L 350.35 572.25
Q 350.35 587.25 365.35 587.25
L 385.35 587.25
Q 400.35 587.25 400.35 572.25
L 400.35 542.2
M 966.25 527.2
L 946.25 527.2
Q 931.25 527.2 931.25 542.2
L 931.25 572.25
Q 931.25 587.25 946.25 587.25
L 966.25 587.25
Q 981.25 587.25 981.25 572.25
L 981.25 542.2
Q 981.25 527.2 966.25 527.2
M 876.25 527.2
Q 861.25 527.2 861.25 542.2
L 861.25 572.25
Q 861.25 587.25 876.25 587.25
L 896.25 587.25
Q 911.25 587.25 911.25 572.25
L 911.25 542.2
Q 911.25 527.2 896.25 527.2
L 876.25 527.2 Z"/>
</g>

<path id="Layer0_0_1_STROKES" stroke="#DBDBDB" stroke-width="3" stroke-linejoin="round" stroke-linecap="round" fill="none" d="
M 1035.35 281.05
Q 1050.35 281.05 1050.35 296.05
L 1050.35 326.1
Q 1050.35 341.1 1035.35 341.1
L 950.35 341.1
Q 935.35 341.1 935.35 326.1
L 935.35 296.05
Q 935.35 281.05 950.35 281.05
L 1035.35 281.05 Z
M 876.25 527.2
L 896.25 527.2
Q 911.25 527.2 911.25 542.2
L 911.25 572.25
Q 911.25 587.25 896.25 587.25
L 876.25 587.25
Q 861.25 587.25 861.25 572.25
L 861.25 542.2
Q 861.25 527.2 876.25 527.2 Z
M 946.25 527.2
L 966.25 527.2
Q 981.25 527.2 981.25 542.2
L 981.25 572.25
Q 981.25 587.25 966.25 587.25
L 946.25 587.25
Q 931.25 587.25 931.25 572.25
L 931.25 542.2
Q 931.25 527.2 946.25 527.2 Z
M 519.45 281.05
Q 534.45 281.05 534.45 296.05
L 534.45 326.1
Q 534.45 341.1 519.45 341.1
L 434.45 341.1
Q 419.45 341.1 419.45 326.1
L 419.45 296.05
Q 419.45 281.05 434.45 281.05
L 519.45 281.05 Z
M 365.35 527.2
L 385.35 527.2
Q 400.35 527.2 400.35 542.2
L 400.35 572.25
Q 400.35 587.25 385.35 587.25
L 365.35 587.25
Q 350.35 587.25 350.35 572.25
L 350.35 542.2
Q 350.35 527.2 365.35 527.2 Z
M 435.35 527.2
L 455.35 527.2
Q 470.35 527.2 470.35 542.2
L 470.35 572.25
Q 470.35 587.25 455.35 587.25
L 435.35 587.25
Q 420.35 587.25 420.35 572.25
L 420.35 542.2
Q 420.35 527.2 435.35 527.2 Z"/>

<path id="Layer0_0_2_STROKES" stroke="#1E1E1E" stroke-width="3" stroke-linejoin="round" stroke-linecap="butt" fill="none" d="
M 812.7 517
L 983.25 517
M 296.8 517
L 467.35 517"/>
</defs>

<g transform="matrix( 1, 0, 0, 1, 0,0) ">
<use xlink:href="#Layer0_0_FILL"/>

<use xlink:href="#Layer0_0_1_STROKES"/>

<use xlink:href="#Layer0_0_2_STROKES"/>
</g>
</svg>
