<svg xmlns="http://www.w3.org/2000/svg" xmlns:xlink="http://www.w3.org/1999/xlink" viewBox="0 0 173.79 66.86"><defs><style>.cls-1,.cls-18,.cls-19{fill:none;}.cls-2{clip-path:url(#clip-path);}.cls-3{fill:#a4d1f0;}.cls-4{fill:#aed5f2;}.cls-5{fill:#b7daf3;}.cls-6{fill:#c0def5;}.cls-7{fill:#c8e2f6;}.cls-8{fill:#d1e7f8;}.cls-9{fill:#d9ebf9;}.cls-10{fill:#e1effa;}.cls-11{fill:#e9f4fc;}.cls-12{fill:#f1f8fd;}.cls-13{fill:#f8fcfe;}.cls-14{fill:#fff;}.cls-15{fill:#e8f3fb;}.cls-16{clip-path:url(#clip-path-2);}.cls-17{fill:#f7ecc0;}.cls-18{stroke:#000;}.cls-18,.cls-19{stroke-width:0.5px;}.cls-19{stroke:#329ad7;}</style><clipPath id="clip-path"><rect class="cls-1" y="11.43" width="169.86" height="57.1"/></clipPath><clipPath id="clip-path-2"><rect class="cls-1" y="11.43" width="181.34" height="57.1"/></clipPath></defs><title>자산 3</title><g id="레이어_2" data-name="레이어 2"><g id="레이어_1-2" data-name="레이어 1"><path d="M51.51,1.83a.46.46,0,0,1,.21,0,.23.23,0,0,1,.09.2V2.5h2a.16.16,0,0,1,.15.07.29.29,0,0,1,.05.17.35.35,0,0,1-.05.18.16.16,0,0,1-.15.07H49.21a.16.16,0,0,1-.15-.07A.27.27,0,0,1,49,2.74a.23.23,0,0,1,.05-.17.16.16,0,0,1,.15-.07h2V2.08a.23.23,0,0,1,.09-.2A.46.46,0,0,1,51.51,1.83ZM53.36.24a.34.34,0,0,1,0,.17.35.35,0,0,1,0,.18.19.19,0,0,1-.16.07H51.82V.75a.38.38,0,0,0,.11.28,1.31,1.31,0,0,0,.41.23l1.08.38a.18.18,0,0,1,.13.12.34.34,0,0,1,0,.2.23.23,0,0,1-.12.15.27.27,0,0,1-.2,0L52.75,2l-.53-.19c-.13,0-.23-.09-.31-.12a1.3,1.3,0,0,1-.21-.12.43.43,0,0,1-.12-.11.24.24,0,0,1-.06-.11h0a.42.42,0,0,1-.18.23,2.37,2.37,0,0,1-.52.24l-.52.2-.49.16a.27.27,0,0,1-.2,0A.23.23,0,0,1,49.48,2a.35.35,0,0,1,0-.2.19.19,0,0,1,.14-.13c.32-.11.68-.23,1.07-.38A1.27,1.27,0,0,0,51.1,1a.38.38,0,0,0,.11-.28V.66H49.83a.19.19,0,0,1-.16-.07.35.35,0,0,1-.05-.18.34.34,0,0,1,.05-.17.19.19,0,0,1,.16-.08H53.2A.19.19,0,0,1,53.36.24Zm-1.85,3a.37.37,0,0,1,.21.06.2.2,0,0,1,.09.18v.26h1.45a.14.14,0,0,1,.14.07.3.3,0,0,1,.05.16.28.28,0,0,1-.05.16.14.14,0,0,1-.14.07H49.74a.14.14,0,0,1-.14-.07.27.27,0,0,1,0-.16.29.29,0,0,1,0-.16.14.14,0,0,1,.14-.07h1.48V3.43a.2.2,0,0,1,.09-.18A.34.34,0,0,1,51.51,3.19Zm0,1.22a2.83,2.83,0,0,1,1.08.17.56.56,0,0,1,0,1.06,3.3,3.3,0,0,1-2.15,0,.56.56,0,0,1,0-1.06A2.81,2.81,0,0,1,51.51,4.41Zm0,.43a2.26,2.26,0,0,0-.68.07c-.14,0-.21.11-.21.2s.07.15.21.2a2.65,2.65,0,0,0,.68.07,2.68,2.68,0,0,0,.69-.07c.14,0,.21-.12.21-.2s-.07-.15-.21-.2A2.29,2.29,0,0,0,51.51,4.84Z"/><path d="M55.81.34a1.24,1.24,0,0,1,1,.46,2.25,2.25,0,0,1,.35,1.36,2.24,2.24,0,0,1-.35,1.35,1.21,1.21,0,0,1-1,.46,1.23,1.23,0,0,1-1.05-.46,2.24,2.24,0,0,1-.34-1.35A2.26,2.26,0,0,1,54.76.8,1.26,1.26,0,0,1,55.81.34Zm0,.54a.68.68,0,0,0-.63.32,2,2,0,0,0-.19,1,2,2,0,0,0,.19.95.66.66,0,0,0,.63.32.64.64,0,0,0,.62-.32,1.9,1.9,0,0,0,.19-.95,1.92,1.92,0,0,0-.19-1A.66.66,0,0,0,55.81.88ZM58.27,0a.37.37,0,0,1,.21.06.24.24,0,0,1,.09.2V1.86h.65a.19.19,0,0,1,.17.08.29.29,0,0,1,.06.19.28.28,0,0,1-.06.18.17.17,0,0,1-.17.08h-.65V5a.24.24,0,0,1-.09.2.4.4,0,0,1-.42,0A.24.24,0,0,1,58,5V.28a.24.24,0,0,1,.09-.2A.37.37,0,0,1,58.27,0Z"/><path d="M61.27,0a.37.37,0,0,1,.21.06.23.23,0,0,1,.09.2V.79h1.07a.17.17,0,0,1,.16.08.27.27,0,0,1,.05.18.27.27,0,0,1-.05.18.17.17,0,0,1-.16.08H59.83a.16.16,0,0,1-.15-.08.27.27,0,0,1,0-.18.27.27,0,0,1,0-.18.16.16,0,0,1,.15-.08H61V.27a.21.21,0,0,1,.1-.2A.36.36,0,0,1,61.27,0Zm0,1.7a1.53,1.53,0,0,1,.54.08,1.09,1.09,0,0,1,.4.25,1.12,1.12,0,0,1,.26.38,1.24,1.24,0,0,1,.08.48,1.26,1.26,0,0,1-.08.49,1.12,1.12,0,0,1-.26.38,1.09,1.09,0,0,1-.4.25,1.86,1.86,0,0,1-1.08,0,1.18,1.18,0,0,1-.4-.25,1,1,0,0,1-.25-.38A1.26,1.26,0,0,1,60,2.9a1.24,1.24,0,0,1,.09-.48A1,1,0,0,1,60.33,2a1.18,1.18,0,0,1,.4-.25A1.53,1.53,0,0,1,61.27,1.71Zm0,.49a.76.76,0,0,0-.54.19.69.69,0,0,0-.2.51.7.7,0,0,0,.2.52.76.76,0,0,0,.54.19.73.73,0,0,0,.54-.19A.66.66,0,0,0,62,2.9a.66.66,0,0,0-.2-.51A.73.73,0,0,0,61.27,2.2ZM63.59,0a.37.37,0,0,1,.21.06.24.24,0,0,1,.09.2V1.92h.65a.19.19,0,0,1,.17.08.29.29,0,0,1,.05.19.32.32,0,0,1-.05.19.18.18,0,0,1-.17.07h-.65V5a.24.24,0,0,1-.09.2.4.4,0,0,1-.42,0A.26.26,0,0,1,63.3,5V.28a.26.26,0,0,1,.08-.2A.37.37,0,0,1,63.59,0Z"/><path d="M69.92,3a.27.27,0,0,1,0,.18.27.27,0,0,1,0,.18.17.17,0,0,1-.16.08H65.17A.18.18,0,0,1,65,3.32.35.35,0,0,1,65,3a.18.18,0,0,1,.16-.08h4.59A.17.17,0,0,1,69.92,3Zm-4,.9a.37.37,0,0,1,.21.06.23.23,0,0,1,.09.2v.82c0,.09,0,.13.12.13h2.83a.16.16,0,0,1,.15.08.35.35,0,0,1,0,.36.16.16,0,0,1-.15.08h-3.1a.46.46,0,0,1-.35-.1.47.47,0,0,1-.1-.36v-1a.23.23,0,0,1,.09-.2A.37.37,0,0,1,65.94,3.86Zm0-3.7a.31.31,0,0,1,.21.07.22.22,0,0,1,.09.2V1.6a.11.11,0,0,0,.12.12h2.8a.17.17,0,0,1,.16.08.32.32,0,0,1,0,.19.31.31,0,0,1,0,.18.17.17,0,0,1-.16.07H66.11a.47.47,0,0,1-.36-.1.47.47,0,0,1-.1-.36V.43a.22.22,0,0,1,.09-.2A.31.31,0,0,1,66,.16Z"/><path d="M73.05,0a.36.36,0,0,1,.2.06.21.21,0,0,1,.09.19V.71h.77a.17.17,0,0,1,.16.08.35.35,0,0,1,0,.36.19.19,0,0,1-.16.07h-.77v.23a1.93,1.93,0,0,0,0,.25.66.66,0,0,0,.06.2.54.54,0,0,0,.1.18,2.31,2.31,0,0,0,.16.19l.31.28.25.21a.23.23,0,0,1,.09.18.24.24,0,0,1-.07.18.25.25,0,0,1-.16.11.25.25,0,0,1-.2-.06L73.69,3a2.4,2.4,0,0,1-.24-.22,2.88,2.88,0,0,1-.3-.29.58.58,0,0,1-.1-.19h0a.47.47,0,0,1-.1.22,4.12,4.12,0,0,1-.3.3l-.27.23a3.48,3.48,0,0,1-.28.24.22.22,0,0,1-.19,0,.27.27,0,0,1-.17-.11A.32.32,0,0,1,71.67,3a.19.19,0,0,1,.08-.17l.34-.28.33-.31a1.41,1.41,0,0,0,.17-.18.81.81,0,0,0,.1-.18,1.17,1.17,0,0,0,0-.2,2,2,0,0,0,0-.25V1.22h-.84a.18.18,0,0,1-.16-.07.27.27,0,0,1,0-.18.27.27,0,0,1,0-.18.16.16,0,0,1,.16-.08h.84V.25a.21.21,0,0,1,.09-.19A.37.37,0,0,1,73.05,0Zm3.18,3.8a.48.48,0,0,1,.1.36V5.43a.23.23,0,0,1-.09.2.4.4,0,0,1-.42,0,.23.23,0,0,1-.09-.2V4.35a.11.11,0,0,0-.12-.12H72.8a.18.18,0,0,1-.16-.08.32.32,0,0,1,0-.19.29.29,0,0,1,0-.18.18.18,0,0,1,.16-.08h3.07A.51.51,0,0,1,76.23,3.8ZM76.05,0a.33.33,0,0,1,.19.06.2.2,0,0,1,.09.18V3.2a.2.2,0,0,1-.09.18.33.33,0,0,1-.38,0,.2.2,0,0,1-.09-.18V2h-.63V3.17a.2.2,0,0,1-.09.18.33.33,0,0,1-.19.06.31.31,0,0,1-.19-.06.2.2,0,0,1-.09-.18V.29a.2.2,0,0,1,.09-.18.31.31,0,0,1,.19-.06.33.33,0,0,1,.19.06.2.2,0,0,1,.09.18V1.44h.63V.26a.2.2,0,0,1,.09-.18A.33.33,0,0,1,76.05,0Z"/><path d="M80.45,3.69a.16.16,0,0,1,.16.06.24.24,0,0,1,.06.17.31.31,0,0,1,0,.19.19.19,0,0,1-.14.09c-.49,0-1,.08-1.54.1s-1.12,0-1.71,0a.16.16,0,0,1-.15-.08.27.27,0,0,1,0-.18.27.27,0,0,1,0-.18.15.15,0,0,1,.15-.08l1.59,0C79.36,3.78,79.9,3.74,80.45,3.69ZM78.81.34a1.74,1.74,0,0,1,.63.1,1.28,1.28,0,0,1,.45.28,1.12,1.12,0,0,1,.27.43,1.27,1.27,0,0,1,.1.52,1.32,1.32,0,0,1-.1.53,1.17,1.17,0,0,1-.27.42,1.28,1.28,0,0,1-.45.28,2,2,0,0,1-1.26,0,1.28,1.28,0,0,1-.45-.28,1.17,1.17,0,0,1-.27-.42,1.51,1.51,0,0,1-.09-.53,1.46,1.46,0,0,1,.09-.52,1.12,1.12,0,0,1,.27-.43,1.28,1.28,0,0,1,.45-.28A1.74,1.74,0,0,1,78.81.34Zm0,.51a.83.83,0,0,0-.66.24.83.83,0,0,0-.22.58.85.85,0,0,0,.22.58,1,1,0,0,0,1.32,0,.81.81,0,0,0,.22-.58.79.79,0,0,0-.22-.58A.83.83,0,0,0,78.81.85ZM81.28,0a.37.37,0,0,1,.21.06.24.24,0,0,1,.09.2V5a.24.24,0,0,1-.09.2.37.37,0,0,1-.21.06.36.36,0,0,1-.2-.06A.24.24,0,0,1,81,5V.28a.24.24,0,0,1,.09-.2A.36.36,0,0,1,81.28,0Z"/><path d="M86.18,2a.36.36,0,0,1,.2.06.21.21,0,0,1,.09.19v.48h2a.16.16,0,0,1,.15.08.27.27,0,0,1,.05.18.27.27,0,0,1-.05.18.16.16,0,0,1-.15.07H83.87a.16.16,0,0,1-.15-.07.35.35,0,0,1,0-.36.16.16,0,0,1,.15-.08h2V2.27A.21.21,0,0,1,86,2.08.37.37,0,0,1,86.18,2ZM88,.3a.35.35,0,0,1,0,.36.19.19,0,0,1-.16.08H86.48V.83a.52.52,0,0,0,.11.32,1.12,1.12,0,0,0,.42.26l1.07.4a.17.17,0,0,1,.13.13.23.23,0,0,1,0,.2.31.31,0,0,1-.12.15.27.27,0,0,1-.2,0l-.48-.17-.52-.21a2,2,0,0,1-.32-.15,1,1,0,0,1-.21-.13.44.44,0,0,1-.12-.11.34.34,0,0,1-.06-.12h0l-.06.12a.51.51,0,0,1-.13.12,1.15,1.15,0,0,1-.2.14l-.32.14-.53.21-.47.17a.27.27,0,0,1-.2,0,.34.34,0,0,1-.13-.16.31.31,0,0,1,0-.19.17.17,0,0,1,.13-.14l1.07-.4a1.12,1.12,0,0,0,.42-.26.52.52,0,0,0,.11-.32V.74H84.49a.16.16,0,0,1-.15-.08.28.28,0,0,1-.06-.18A.28.28,0,0,1,84.34.3a.16.16,0,0,1,.15-.07h3.37A.19.19,0,0,1,88,.3ZM86.18,3.65a2.91,2.91,0,0,1,1.34.25.85.85,0,0,1,.48.8.84.84,0,0,1-.48.79,3.74,3.74,0,0,1-2.69,0,.84.84,0,0,1-.48-.79.85.85,0,0,1,.48-.8A2.93,2.93,0,0,1,86.18,3.65Zm0,.48a2.22,2.22,0,0,0-1,.15.44.44,0,0,0,0,.83,3.05,3.05,0,0,0,1.89,0,.44.44,0,0,0,0-.83A2.2,2.2,0,0,0,86.18,4.13Z"/><path d="M94,3.44a.35.35,0,0,1,0,.36.18.18,0,0,1-.16.07H92.63V5.43a.21.21,0,0,1-.08.19.36.36,0,0,1-.4,0,.2.2,0,0,1-.09-.19V3.87H90.93V5.43a.2.2,0,0,1-.09.19.36.36,0,0,1-.2.06.34.34,0,0,1-.2-.06.2.2,0,0,1-.09-.19V3.87H89.2A.17.17,0,0,1,89,3.8.27.27,0,0,1,89,3.62.27.27,0,0,1,89,3.44a.17.17,0,0,1,.16-.08h4.59A.18.18,0,0,1,94,3.44ZM93.19.35a.47.47,0,0,1,.1.36v.62a.5.5,0,0,1-.1.36.52.52,0,0,1-.36.09H90.4c-.08,0-.12,0-.12.13v.3a.11.11,0,0,0,.12.12h2.81a.19.19,0,0,1,.16.08.34.34,0,0,1,0,.17.35.35,0,0,1,0,.18.19.19,0,0,1-.16.07H90.15a.56.56,0,0,1-.36-.09.48.48,0,0,1-.1-.36V1.75a.5.5,0,0,1,.1-.36.56.56,0,0,1,.36-.09h2.43c.08,0,.13,0,.13-.12V.88a.12.12,0,0,0-.13-.13H89.89a.18.18,0,0,1-.16-.07.34.34,0,0,1,0-.17.35.35,0,0,1,0-.18.16.16,0,0,1,.16-.08h2.94A.47.47,0,0,1,93.19.35Z"/><g class="cls-2"><rect class="cls-3" y="11.44" width="139.86" height="54.45" rx="1.44"/><path class="cls-4" d="M1.48,11.52a1.39,1.39,0,0,0-1.39,1.4V64.5a1.4,1.4,0,0,0,1.39,1.29h137a1.4,1.4,0,0,0,1.3-1.39V12.92a.45.45,0,0,0,0-.11,1.39,1.39,0,0,0-1.39-1.29Z"/><path class="cls-5" d="M1.52,11.6A1.36,1.36,0,0,0,.17,13V64.44A1.35,1.35,0,0,0,1.52,65.7H138.43a1.35,1.35,0,0,0,1.26-1.35V12.87a1.36,1.36,0,0,0-1.35-1.27Z"/><path class="cls-6" d="M1.57,11.69A1.31,1.31,0,0,0,.26,13V64.39a1.31,1.31,0,0,0,1.31,1.23H138.38a1.3,1.3,0,0,0,1.22-1.3V12.92a1.31,1.31,0,0,0-1.31-1.23Z"/><path class="cls-7" d="M1.61,11.77A1.27,1.27,0,0,0,.34,13v51.2a.38.38,0,0,0,0,.1,1.25,1.25,0,0,0,1.26,1.19H138.32a1.27,1.27,0,0,0,1.2-1.26V13.06a.28.28,0,0,0,0-.09,1.26,1.26,0,0,0-1.26-1.2Z"/><path class="cls-8" d="M1.65,11.86A1.22,1.22,0,0,0,.43,13.08v51.2a1.22,1.22,0,0,0,1.22,1.16H138.27a1.21,1.21,0,0,0,1.16-1.22V13a1.22,1.22,0,0,0-1.22-1.16Z"/><path class="cls-9" d="M1.69,11.94A1.17,1.17,0,0,0,.52,13.12V64.23a1.17,1.17,0,0,0,1.17,1.13H138.22a1.17,1.17,0,0,0,1.12-1.17V13.07a1.17,1.17,0,0,0-1.17-1.13Z"/><path class="cls-10" d="M1.74,12A1.14,1.14,0,0,0,.6,13.16v51a1.14,1.14,0,0,0,1.14,1.1H138.17a1.14,1.14,0,0,0,1.09-1.14v-51A1.13,1.13,0,0,0,138.13,12Z"/><path class="cls-11" d="M1.78,12.11A1.09,1.09,0,0,0,.69,13.2V64.12a1.09,1.09,0,0,0,1.09,1.06H138.11a1.09,1.09,0,0,0,1.06-1.09V13.17a1.09,1.09,0,0,0-1.09-1.06Z"/><path class="cls-12" d="M1.82,12.2a1,1,0,0,0-1,1V64.07a1,1,0,0,0,1.05,1H138.06a1,1,0,0,0,1-1V13.22a1,1,0,0,0-1.05-1Z"/><path class="cls-13" d="M1.86,12.28a1,1,0,0,0-1,1V64a1,1,0,0,0,1,1H138a1,1,0,0,0,1-1V13.27a1,1,0,0,0-1-1Z"/><rect class="cls-14" x="0.95" y="12.37" width="137.97" height="52.55" rx="0.96"/><path class="cls-15" d="M29.7,23.73V12.37H138a1,1,0,0,1,1,1v10.4Z"/><path class="cls-15" d="M29.7,64.92H1.91a1,1,0,0,1-1-1V23.73H29.7Z"/><path class="cls-15" d="M1.91,12.37a1,1,0,0,0-1,1v10.4H29.7V12.37Z"/><path class="cls-14" d="M138.92,23.73V64a1,1,0,0,1-1,1H29.7V23.73Z"/></g><path d="M11.08,16.47a.43.43,0,0,1,.27.08.29.29,0,0,1,.12.26v.67h2.7a.21.21,0,0,1,.2.1.43.43,0,0,1,.07.25.41.41,0,0,1-.07.25.21.21,0,0,1-.2.1H8a.22.22,0,0,1-.2-.1.49.49,0,0,1-.07-.25.52.52,0,0,1,.07-.25.22.22,0,0,1,.2-.1h2.7v-.67a.29.29,0,0,1,.12-.26A.43.43,0,0,1,11.08,16.47Zm2.47-2.38a.41.41,0,0,1,.07.25.4.4,0,0,1-.07.24.24.24,0,0,1-.21.11H11.49v.13a.71.71,0,0,0,.15.44,1.58,1.58,0,0,0,.56.36l1.43.55a.25.25,0,0,1,.18.19.42.42,0,0,1,0,.27.38.38,0,0,1-.17.2.29.29,0,0,1-.26,0l-.65-.24-.7-.29a2.85,2.85,0,0,1-.42-.19,1.91,1.91,0,0,1-.28-.19.48.48,0,0,1-.16-.16.6.6,0,0,1-.08-.16h0a.4.4,0,0,1-.08.16.86.86,0,0,1-.16.18,1.7,1.7,0,0,1-.28.18,3.54,3.54,0,0,1-.43.2l-.7.29-.64.23a.32.32,0,0,1-.27,0,.48.48,0,0,1-.17-.22.42.42,0,0,1,0-.27.23.23,0,0,1,.18-.19L10,15.62a1.58,1.58,0,0,0,.56-.36.71.71,0,0,0,.15-.44v-.13H8.83a.25.25,0,0,1-.22-.11.48.48,0,0,1-.06-.24.49.49,0,0,1,.06-.25A.25.25,0,0,1,8.83,14h4.51A.24.24,0,0,1,13.55,14.09Zm-2.47,4.62a3.74,3.74,0,0,1,1.81.36,1.26,1.26,0,0,1,0,2.19,3.75,3.75,0,0,1-1.81.35,3.74,3.74,0,0,1-1.8-.35,1.25,1.25,0,0,1,0-2.19A3.73,3.73,0,0,1,11.08,18.71Zm0,.68a2.83,2.83,0,0,0-1.26.2.62.62,0,0,0,0,1.15,3,3,0,0,0,1.26.2,3,3,0,0,0,1.27-.2.62.62,0,0,0,0-1.15A2.88,2.88,0,0,0,11.08,19.39Z"/><path d="M21.26,18.42a.43.43,0,0,1,.07.25.41.41,0,0,1-.07.25.22.22,0,0,1-.21.11H19.5v2.15a.3.3,0,0,1-.12.27.47.47,0,0,1-.26.08.5.5,0,0,1-.27-.08.3.3,0,0,1-.12-.27V19H17.21v2.15a.3.3,0,0,1-.12.27.5.5,0,0,1-.26.08.48.48,0,0,1-.27-.08.3.3,0,0,1-.12-.27V19H14.89a.22.22,0,0,1-.21-.11.41.41,0,0,1-.07-.25.43.43,0,0,1,.07-.25.22.22,0,0,1,.21-.1h6.16A.22.22,0,0,1,21.26,18.42Zm-1-4.27a.77.77,0,0,1,.13.5v.86a.74.74,0,0,1-.13.49.68.68,0,0,1-.49.14H16.51c-.12,0-.17.05-.17.17v.42a.15.15,0,0,0,.17.17h3.76a.24.24,0,0,1,.21.1.48.48,0,0,1,.07.24.49.49,0,0,1-.07.25.27.27,0,0,1-.21.1h-4.1a.51.51,0,0,1-.62-.63V16.1a.69.69,0,0,1,.14-.5.65.65,0,0,1,.48-.14h3.26a.14.14,0,0,0,.16-.16v-.42c0-.11-.05-.17-.16-.17H15.82a.22.22,0,0,1-.21-.1.4.4,0,0,1-.07-.24.41.41,0,0,1,.07-.25.22.22,0,0,1,.21-.1h3.94A.69.69,0,0,1,20.25,14.15Z"/><path d="M6.37,28.23a2.1,2.1,0,0,1,.79.14,1.58,1.58,0,0,1,.57.4,1.66,1.66,0,0,1,.34.59,2.25,2.25,0,0,1,.11.74,2.17,2.17,0,0,1-.11.74,1.62,1.62,0,0,1-.34.6,1.45,1.45,0,0,1-.57.39,1.92,1.92,0,0,1-.79.15,2,2,0,0,1-.8-.15A1.61,1.61,0,0,1,5,31.44a1.77,1.77,0,0,1-.34-.6,2.45,2.45,0,0,1-.11-.74,2.55,2.55,0,0,1,.11-.74A1.82,1.82,0,0,1,5,28.77a1.78,1.78,0,0,1,.57-.4A2.16,2.16,0,0,1,6.37,28.23Zm0,.71a1.19,1.19,0,0,0-.49.09.87.87,0,0,0-.32.25.8.8,0,0,0-.18.37,1.72,1.72,0,0,0,0,.9.8.8,0,0,0,.18.37.9.9,0,0,0,.32.26,1.19,1.19,0,0,0,.49.09,1.14,1.14,0,0,0,.48-.09.93.93,0,0,0,.33-.26,1.06,1.06,0,0,0,.18-.37,1.72,1.72,0,0,0,0-.9,1.06,1.06,0,0,0-.18-.37A.9.9,0,0,0,6.85,29,1.14,1.14,0,0,0,6.37,28.94Zm3.41,3.9a.69.69,0,0,1,.49.13.71.71,0,0,1,.13.5V35.4a.32.32,0,0,1-.12.27.53.53,0,0,1-.56,0,.32.32,0,0,1-.12-.27V33.73a.15.15,0,0,0-.17-.17H5.84a.25.25,0,0,1-.22-.11.43.43,0,0,1-.07-.25A.41.41,0,0,1,5.62,33a.23.23,0,0,1,.22-.11ZM10,27.92a.5.5,0,0,1,.27.08.32.32,0,0,1,.12.27v3.85a.32.32,0,0,1-.12.27.43.43,0,0,1-.27.08.46.46,0,0,1-.28-.08.32.32,0,0,1-.12-.27v-.88H8.68a.22.22,0,0,1-.21-.11.55.55,0,0,1-.06-.26.51.51,0,0,1,.06-.25.22.22,0,0,1,.21-.11h.93v-.78H8.68a.22.22,0,0,1-.21-.11.55.55,0,0,1,0-.5A.22.22,0,0,1,8.68,29h.93v-.74A.32.32,0,0,1,9.73,28,.54.54,0,0,1,10,27.92Z"/><path d="M13.39,28.31a.5.5,0,0,1,.29.09.29.29,0,0,1,.12.27v1.25a3.68,3.68,0,0,0,0,.49,1.91,1.91,0,0,0,.11.41,2.24,2.24,0,0,0,.2.37,2.55,2.55,0,0,0,.3.39l.48.52c.15.17.3.32.44.45a.29.29,0,0,1,.1.26.42.42,0,0,1-.12.26.35.35,0,0,1-.23.13.26.26,0,0,1-.26-.09c-.25-.24-.52-.53-.83-.86l-.28-.33-.19-.25c-.05-.07-.08-.13-.11-.18a1,1,0,0,1,0-.14h0a.44.44,0,0,1-.05.15.7.7,0,0,1-.1.19l-.18.25-.29.32-.46.49-.48.48a.26.26,0,0,1-.27.08.39.39,0,0,1-.23-.14.46.46,0,0,1-.11-.27.36.36,0,0,1,.11-.26l.53-.53c.17-.17.33-.35.49-.53a2.55,2.55,0,0,0,.3-.39,2.16,2.16,0,0,0,.19-.37,1.91,1.91,0,0,0,.11-.41,3.68,3.68,0,0,0,0-.49V28.67a.3.3,0,0,1,.13-.27A.47.47,0,0,1,13.39,28.31Zm3.11-.39a.54.54,0,0,1,.28.08.32.32,0,0,1,.12.27v2.19h.88a.24.24,0,0,1,.22.11.41.41,0,0,1,.07.25.44.44,0,0,1-.07.26.22.22,0,0,1-.22.11H16.9v3.65a.32.32,0,0,1-.12.27.46.46,0,0,1-.28.08.44.44,0,0,1-.28-.08.32.32,0,0,1-.12-.27V28.27a.32.32,0,0,1,.12-.27A.51.51,0,0,1,16.5,27.92Z"/><path d="M20,27.88a.44.44,0,0,1,.27.09.3.3,0,0,1,.12.26v.63h1a.25.25,0,0,1,.22.11.51.51,0,0,1,.06.25.49.49,0,0,1-.06.25.25.25,0,0,1-.22.11h-1v.31a3.28,3.28,0,0,0,0,.34,1,1,0,0,0,.07.28.89.89,0,0,0,.14.25,1.6,1.6,0,0,0,.22.26l.42.39.33.29a.31.31,0,0,1,.11.25.47.47,0,0,1-.08.26.43.43,0,0,1-.23.14.3.3,0,0,1-.25-.08,3,3,0,0,1-.28-.24,2.86,2.86,0,0,1-.32-.3,3.67,3.67,0,0,1-.4-.4.69.69,0,0,1-.13-.26h0a.67.67,0,0,1-.13.29,4.45,4.45,0,0,1-.4.42l-.36.33-.37.32a.29.29,0,0,1-.26.07.43.43,0,0,1-.23-.14.52.52,0,0,1-.1-.26.28.28,0,0,1,.11-.24l.45-.4.45-.42a1.57,1.57,0,0,0,.22-.25,1.28,1.28,0,0,0,.14-.25,2.29,2.29,0,0,0,.07-.28,3.49,3.49,0,0,0,0-.35v-.33H18.43a.24.24,0,0,1-.21-.11.41.41,0,0,1-.07-.25.43.43,0,0,1,.07-.25.24.24,0,0,1,.21-.11h1.14v-.63a.3.3,0,0,1,.12-.26A.44.44,0,0,1,20,27.88Zm4.27,5.26a.71.71,0,0,1,.13.5V35.4a.32.32,0,0,1-.12.27.53.53,0,0,1-.56,0,.32.32,0,0,1-.12-.27V33.9a.15.15,0,0,0-.17-.17H19.63a.25.25,0,0,1-.22-.11.52.52,0,0,1-.07-.25.56.56,0,0,1,.07-.26.25.25,0,0,1,.22-.11h4.11A.68.68,0,0,1,24.23,33.14ZM24,27.92a.45.45,0,0,1,.26.08.27.27,0,0,1,.12.25v4.06a.27.27,0,0,1-.12.25.38.38,0,0,1-.26.08.39.39,0,0,1-.25-.08.26.26,0,0,1-.11-.25V30.59h-.86v1.68a.28.28,0,0,1-.12.25.45.45,0,0,1-.26.08.46.46,0,0,1-.25-.08.27.27,0,0,1-.11-.25v-4a.27.27,0,0,1,.11-.25.46.46,0,0,1,.25-.08.45.45,0,0,1,.26.08.28.28,0,0,1,.12.25v1.59h.86V28.25a.26.26,0,0,1,.11-.25A.46.46,0,0,1,24,27.92Z"/><path d="M8.07,45.3h2.7a.21.21,0,0,1,.2.1.48.48,0,0,1,0,.5.21.21,0,0,1-.2.1H4.59a.21.21,0,0,1-.2-.1.48.48,0,0,1,0-.5.21.21,0,0,1,.2-.1h2.7V44.11h.78Zm-.39,1.23a3.73,3.73,0,0,1,1.8.36,1.25,1.25,0,0,1,0,2.19,3.86,3.86,0,0,1-1.8.35,3.86,3.86,0,0,1-1.8-.35,1.25,1.25,0,0,1,0-2.19A3.73,3.73,0,0,1,7.68,46.53ZM10,41.89a.41.41,0,0,1,.07.25.4.4,0,0,1-.07.24.22.22,0,0,1-.2.1H6.22c-.12,0-.17.06-.17.18v.92c0,.12,0,.17.17.17H9.9a.23.23,0,0,1,.2.11.36.36,0,0,1,.07.24.43.43,0,0,1-.07.25.22.22,0,0,1-.2.1h-4a.64.64,0,0,1-.48-.13.71.71,0,0,1-.13-.5v-1.4a.7.7,0,0,1,.13-.5.64.64,0,0,1,.48-.14h4A.23.23,0,0,1,10,41.89ZM7.68,47.21a2.83,2.83,0,0,0-1.26.2A.61.61,0,0,0,6,48a.62.62,0,0,0,.4.58,3,3,0,0,0,1.26.2,3,3,0,0,0,1.26-.2.62.62,0,0,0,.4-.58.61.61,0,0,0-.4-.57A2.83,2.83,0,0,0,7.68,47.21Z"/><path d="M15.54,46.79a.23.23,0,0,1,.21.08.43.43,0,0,1,.09.24.42.42,0,0,1,0,.25.29.29,0,0,1-.2.13c-.61.06-1.27.1-2,.12s-1.42,0-2.17,0a.23.23,0,0,1-.21-.1.46.46,0,0,1-.07-.26.4.4,0,0,1,.07-.24.23.23,0,0,1,.21-.1h1.65V45.78h.78V46.9l.82,0Zm-2-5.24a.51.51,0,0,1,.28.08.32.32,0,0,1,.12.27v.49h1.44a.22.22,0,0,1,.21.11.43.43,0,0,1,.07.25.41.41,0,0,1-.07.25.22.22,0,0,1-.21.11H11.6a.22.22,0,0,1-.21-.11.41.41,0,0,1-.07-.25.43.43,0,0,1,.07-.25.22.22,0,0,1,.21-.11h1.51V41.9a.3.3,0,0,1,.13-.27A.5.5,0,0,1,13.51,41.55Zm0,2a2,2,0,0,1,1.26.34,1.15,1.15,0,0,1,.45.95,1.14,1.14,0,0,1-.45,1,2,2,0,0,1-1.26.35,2,2,0,0,1-1.26-.35,1.14,1.14,0,0,1-.45-1,1.15,1.15,0,0,1,.45-.95A2,2,0,0,1,13.51,43.54Zm0,.64a1.24,1.24,0,0,0-.74.18.58.58,0,0,0,0,.94,1.24,1.24,0,0,0,.74.18,1.26,1.26,0,0,0,.75-.18.58.58,0,0,0,0-.94A1.26,1.26,0,0,0,13.51,44.18Zm3.12-2.66a.45.45,0,0,1,.28.09.29.29,0,0,1,.12.26v2.45h.78a.26.26,0,0,1,.23.1.59.59,0,0,1,0,.52.27.27,0,0,1-.23.11H17v3.4a.29.29,0,0,1-.12.26.45.45,0,0,1-.28.09.44.44,0,0,1-.27-.09.29.29,0,0,1-.12-.26V41.87a.29.29,0,0,1,.12-.26A.44.44,0,0,1,16.63,41.52Z"/><path d="M20,41.49a.5.5,0,0,1,.27.08.31.31,0,0,1,.12.26v.64h1a.23.23,0,0,1,.22.11.49.49,0,0,1,.06.25.51.51,0,0,1-.06.25.25.25,0,0,1-.22.1h-1v.31a3.49,3.49,0,0,0,0,.35,1.28,1.28,0,0,0,.07.28,1,1,0,0,0,.14.24,1.27,1.27,0,0,0,.22.26q.22.23.42.39a3.59,3.59,0,0,0,.33.29.31.31,0,0,1,.11.25.45.45,0,0,1-.08.26.37.37,0,0,1-.23.14.3.3,0,0,1-.25-.07l-.28-.24-.32-.3a3.57,3.57,0,0,1-.4-.41.63.63,0,0,1-.13-.26h0a.66.66,0,0,1-.13.3,4.45,4.45,0,0,1-.4.42l-.36.32L18.7,46a.32.32,0,0,1-.26.07.39.39,0,0,1-.23-.15.52.52,0,0,1-.1-.26.29.29,0,0,1,.11-.24l.45-.39.45-.42a1.6,1.6,0,0,0,.22-.26.89.89,0,0,0,.14-.25,1.91,1.91,0,0,0,.07-.28,3.28,3.28,0,0,0,0-.34v-.34H18.43a.23.23,0,0,1-.21-.1.43.43,0,0,1-.07-.25.41.41,0,0,1,.07-.25.22.22,0,0,1,.21-.11h1.14v-.64a.31.31,0,0,1,.12-.26A.5.5,0,0,1,20,41.49Zm4.27,5.25a.71.71,0,0,1,.13.5V49a.32.32,0,0,1-.12.27.53.53,0,0,1-.56,0,.32.32,0,0,1-.12-.27V47.5a.15.15,0,0,0-.17-.17H19.63a.23.23,0,0,1-.22-.11.49.49,0,0,1-.07-.25.52.52,0,0,1,.07-.25.25.25,0,0,1,.22-.11h4.11A.69.69,0,0,1,24.23,46.74ZM24,41.52a.45.45,0,0,1,.26.08.29.29,0,0,1,.12.25v4.07a.29.29,0,0,1-.12.25.45.45,0,0,1-.26.08.46.46,0,0,1-.25-.08.28.28,0,0,1-.11-.25V44.19h-.86v1.69a.26.26,0,0,1-.12.24.38.38,0,0,1-.26.08.39.39,0,0,1-.25-.08.26.26,0,0,1-.11-.24v-4a.28.28,0,0,1,.11-.25.45.45,0,0,1,.25-.07.44.44,0,0,1,.26.07.29.29,0,0,1,.12.25v1.6h.86V41.85a.28.28,0,0,1,.11-.25A.46.46,0,0,1,24,41.52Z"/><path d="M7.68,59.48a.44.44,0,0,1,.28.08.32.32,0,0,1,.12.27v1.3h2.68a.22.22,0,0,1,.21.11.41.41,0,0,1,.07.25.43.43,0,0,1-.07.25.22.22,0,0,1-.21.11H4.6a.22.22,0,0,1-.21-.11.43.43,0,0,1-.07-.25.41.41,0,0,1,.07-.25.22.22,0,0,1,.21-.11H7.28v-1.3a.32.32,0,0,1,.12-.27A.44.44,0,0,1,7.68,59.48Zm0-3.85a.51.51,0,0,1,.28.08.31.31,0,0,1,.13.28v.46a2.33,2.33,0,0,0,0,.48,1.28,1.28,0,0,0,.13.39,1.31,1.31,0,0,0,.24.34,2.42,2.42,0,0,0,.37.31l.74.47c.25.16.5.31.77.46a.26.26,0,0,1,.12.23.5.5,0,0,1-.05.28.52.52,0,0,1-.21.18.27.27,0,0,1-.26,0l-.76-.46C9,59,8.73,58.8,8.5,58.65a2.66,2.66,0,0,1-.59-.49.9.9,0,0,1-.22-.38h0a.9.9,0,0,1-.23.39,2.66,2.66,0,0,1-.59.5l-.72.46c-.25.16-.5.31-.76.45a.27.27,0,0,1-.26,0,.47.47,0,0,1-.27-.48A.29.29,0,0,1,5,58.9c.27-.15.52-.3.77-.46L6.49,58a2.42,2.42,0,0,0,.37-.31,1.31,1.31,0,0,0,.24-.34,1.28,1.28,0,0,0,.13-.39,2.33,2.33,0,0,0,0-.48V56a.31.31,0,0,1,.13-.28A.51.51,0,0,1,7.68,55.63Z"/><path d="M13.48,55.48a.44.44,0,0,1,.28.08.3.3,0,0,1,.13.27v.73a1.6,1.6,0,0,0,.12.65,1.39,1.39,0,0,0,.41.48q.27.23.51.39l.44.31a.28.28,0,0,1,.14.24.35.35,0,0,1-.08.27.37.37,0,0,1-.2.17A.3.3,0,0,1,15,59l-.4-.28-.5-.38a2.72,2.72,0,0,1-.41-.37,1,1,0,0,1-.15-.27h0a.85.85,0,0,1-.16.29,2.16,2.16,0,0,1-.43.4l-.52.38-.51.37a.27.27,0,0,1-.27,0,.46.46,0,0,1-.21-.18.5.5,0,0,1-.07-.27.3.3,0,0,1,.14-.24l.55-.38.54-.41a1.43,1.43,0,0,0,.41-.49,1.52,1.52,0,0,0,.12-.64v-.75a.32.32,0,0,1,.12-.27A.44.44,0,0,1,13.48,55.48Zm3.19,4.16a.68.68,0,0,1,.49.14.75.75,0,0,1,.13.5v.77a.77.77,0,0,1-.13.5.69.69,0,0,1-.49.13H13.54a.15.15,0,0,0-.12,0,.18.18,0,0,0,0,.14v.36c0,.12,0,.18.16.18H17.2a.21.21,0,0,1,.2.1.48.48,0,0,1,.06.24.46.46,0,0,1-.06.23.21.21,0,0,1-.2.1h-4a.69.69,0,0,1-.49-.13.71.71,0,0,1-.13-.5v-.77a.7.7,0,0,1,.13-.5.68.68,0,0,1,.49-.14h3.12a.23.23,0,0,0,.13,0,.26.26,0,0,0,0-.14V60.5a.24.24,0,0,0,0-.14.23.23,0,0,0-.13,0H12.85a.23.23,0,0,1-.2-.1.49.49,0,0,1-.07-.25.42.42,0,0,1,.07-.23.22.22,0,0,1,.2-.11Zm.23-4.33a.43.43,0,0,1,.27.08.32.32,0,0,1,.12.27v3.27a.32.32,0,0,1-.12.27.5.5,0,0,1-.27.08.51.51,0,0,1-.28-.08.32.32,0,0,1-.12-.27V57.35H15.28a.23.23,0,0,1-.22-.11.48.48,0,0,1,0-.5.25.25,0,0,1,.22-.11H16.5v-1a.32.32,0,0,1,.12-.27A.44.44,0,0,1,16.9,55.31Z"/><path d="M20,55.27a.44.44,0,0,1,.27.09.29.29,0,0,1,.12.26v.63h1a.25.25,0,0,1,.22.11.51.51,0,0,1,.06.25.49.49,0,0,1-.06.25.25.25,0,0,1-.22.11h-1v.31a3.28,3.28,0,0,0,0,.34,1.15,1.15,0,0,0,.07.28.89.89,0,0,0,.14.25,1.6,1.6,0,0,0,.22.26l.42.39.33.29a.31.31,0,0,1,.11.25.44.44,0,0,1-.08.25.39.39,0,0,1-.23.15.3.3,0,0,1-.25-.08,3,3,0,0,1-.28-.24l-.32-.3a3.67,3.67,0,0,1-.4-.4.69.69,0,0,1-.13-.26h0a.67.67,0,0,1-.13.29,4.45,4.45,0,0,1-.4.42l-.36.33-.37.32a.29.29,0,0,1-.26.07.43.43,0,0,1-.23-.14.52.52,0,0,1-.1-.27.27.27,0,0,1,.11-.23l.45-.4.45-.42a1.27,1.27,0,0,0,.22-.26,1,1,0,0,0,.14-.24,2.29,2.29,0,0,0,.07-.28,3.49,3.49,0,0,0,0-.35V57H18.43a.24.24,0,0,1-.21-.11.41.41,0,0,1-.07-.25.43.43,0,0,1,.07-.25.24.24,0,0,1,.21-.11h1.14v-.63a.29.29,0,0,1,.12-.26A.44.44,0,0,1,20,55.27Zm4.27,5.26a.7.7,0,0,1,.13.5v1.76a.29.29,0,0,1-.12.26.48.48,0,0,1-.56,0,.29.29,0,0,1-.12-.26v-1.5a.15.15,0,0,0-.17-.17H19.63a.25.25,0,0,1-.22-.11.52.52,0,0,1-.07-.25.56.56,0,0,1,.07-.26.25.25,0,0,1,.22-.11h4.11A.68.68,0,0,1,24.23,60.53ZM24,55.31a.38.38,0,0,1,.26.08.27.27,0,0,1,.12.25V59.7a.27.27,0,0,1-.12.25A.45.45,0,0,1,24,60a.46.46,0,0,1-.25-.08.26.26,0,0,1-.11-.25V58h-.86v1.68a.28.28,0,0,1-.12.25.45.45,0,0,1-.26.08.46.46,0,0,1-.25-.08.27.27,0,0,1-.11-.25v-4a.27.27,0,0,1,.11-.25.46.46,0,0,1,.25-.08.45.45,0,0,1,.26.08.28.28,0,0,1,.12.25v1.59h.86V55.64a.26.26,0,0,1,.11-.25A.39.39,0,0,1,24,55.31Z"/><path d="M71.27,13.63a.51.51,0,0,1,.28.08.32.32,0,0,1,.12.27v.53H73.1a.22.22,0,0,1,.21.11.46.46,0,0,1,.07.26.4.4,0,0,1-.07.24.22.22,0,0,1-.21.11H69.36a.22.22,0,0,1-.21-.11.4.4,0,0,1-.07-.24.46.46,0,0,1,.07-.26.22.22,0,0,1,.21-.11h1.51V14a.32.32,0,0,1,.12-.27A.57.57,0,0,1,71.27,13.63Zm0,2a2,2,0,0,1,1.25.36,1.3,1.3,0,0,1,0,2A2.35,2.35,0,0,1,70,18a1.3,1.3,0,0,1,0-2A2,2,0,0,1,71.27,15.66Zm3.39,3.42a.69.69,0,0,1,.13.49v1.62a.32.32,0,0,1-.12.27.44.44,0,0,1-.28.08.43.43,0,0,1-.27-.08.32.32,0,0,1-.12-.27V19.83a.15.15,0,0,0-.17-.17H70.34a.25.25,0,0,1-.22-.11.48.48,0,0,1-.07-.24.56.56,0,0,1,.07-.26.25.25,0,0,1,.22-.11h3.83A.68.68,0,0,1,74.66,19.08Zm-3.39-2.76a1.18,1.18,0,0,0-.73.19.62.62,0,0,0,0,1,1.18,1.18,0,0,0,.73.2,1.21,1.21,0,0,0,.74-.2.63.63,0,0,0,0-1A1.21,1.21,0,0,0,71.27,16.32Zm3.12-2.61a.45.45,0,0,1,.28.09.29.29,0,0,1,.12.27v1.62h.89a.25.25,0,0,1,.22.11.54.54,0,0,1,.06.25.57.57,0,0,1-.06.27.25.25,0,0,1-.22.11h-.89v1.8a.3.3,0,0,1-.12.26.51.51,0,0,1-.28.08.5.5,0,0,1-.27-.08.3.3,0,0,1-.12-.26V14.07a.29.29,0,0,1,.12-.27A.44.44,0,0,1,74.39,13.71Z"/><path d="M77.82,14a.44.44,0,0,1,.28.08.32.32,0,0,1,.12.27v.77a2.73,2.73,0,0,0,.08.69,1.46,1.46,0,0,0,.34.56l.42.43.39.37a.34.34,0,0,1,.11.25.39.39,0,0,1-.1.27.31.31,0,0,1-.23.14.32.32,0,0,1-.27-.1l-.32-.29-.32-.33a3.61,3.61,0,0,1-.36-.41.79.79,0,0,1-.13-.29h0a1.1,1.1,0,0,1-.12.31,2.68,2.68,0,0,1-.37.43q-.21.22-.39.39l-.38.36a.35.35,0,0,1-.26.08.43.43,0,0,1-.24-.14.45.45,0,0,1-.1-.27.32.32,0,0,1,.1-.26c.15-.13.31-.28.47-.44l.47-.47a1.57,1.57,0,0,0,.34-.57,2.87,2.87,0,0,0,.08-.7v-.78a.32.32,0,0,1,.12-.27A.44.44,0,0,1,77.82,14Zm2,4.38a3.41,3.41,0,0,1,1.79.4,1.44,1.44,0,0,1,0,2.39,4.18,4.18,0,0,1-3.57,0,1.44,1.44,0,0,1,0-2.39A3.4,3.4,0,0,1,79.81,18.4Zm0,.69a2.44,2.44,0,0,0-1.24.24.76.76,0,0,0,0,1.33,2.42,2.42,0,0,0,1.24.25,2.47,2.47,0,0,0,1.25-.25.76.76,0,0,0,0-1.33A2.48,2.48,0,0,0,79.81,19.09Zm2.07-5.38a.5.5,0,0,1,.26.08.31.31,0,0,1,.11.25v4a.31.31,0,0,1-.11.25.5.5,0,0,1-.26.08.44.44,0,0,1-.25-.08.29.29,0,0,1-.12-.25V16.3h-.86v1.41a.28.28,0,0,1-.11.25.42.42,0,0,1-.26.08A.38.38,0,0,1,80,18a.27.27,0,0,1-.12-.25V14.08a.26.26,0,0,1,.12-.24.38.38,0,0,1,.25-.08.42.42,0,0,1,.26.08.28.28,0,0,1,.11.24v1.51h.86V14a.29.29,0,0,1,.12-.25A.44.44,0,0,1,81.88,13.71Z"/><path d="M91.13,18.25a.56.56,0,0,1,.07.26.48.48,0,0,1-.07.24.25.25,0,0,1-.21.11H88.24v2.37a.29.29,0,0,1-.12.26.47.47,0,0,1-.28.09.45.45,0,0,1-.28-.09.29.29,0,0,1-.12-.26V18.86H84.76a.22.22,0,0,1-.21-.11.4.4,0,0,1-.07-.24.46.46,0,0,1,.07-.26.22.22,0,0,1,.21-.11h6.16A.25.25,0,0,1,91.13,18.25Zm-3.29-4.34a.54.54,0,0,1,.28.08.33.33,0,0,1,.13.28v.42a1.19,1.19,0,0,0,.19.69,1.79,1.79,0,0,0,.57.51l.77.41.7.35a.27.27,0,0,1,.15.23.48.48,0,0,1,0,.27.44.44,0,0,1-.19.19.29.29,0,0,1-.27,0c-.52-.25-1-.5-1.48-.76a2.32,2.32,0,0,1-.6-.44.79.79,0,0,1-.21-.35h0a.91.91,0,0,1-.23.37,2.33,2.33,0,0,1-.6.43c-.47.26-1,.52-1.48.77a.27.27,0,0,1-.26,0,.37.37,0,0,1-.19-.2.39.39,0,0,1,0-.28.28.28,0,0,1,.16-.23l.69-.35.77-.41a1.73,1.73,0,0,0,.58-.51,1.19,1.19,0,0,0,.19-.69v-.42a.32.32,0,0,1,.12-.28A.57.57,0,0,1,87.84,13.91Z"/><path d="M157.39,47.27a.59.59,0,0,1,.34.09.32.32,0,0,1,.13.29v5.73a.33.33,0,0,1-.14.29.54.54,0,0,1-.31.09.57.57,0,0,1-.32-.09.32.32,0,0,1-.13-.29V48.33l-1.35.83a.34.34,0,0,1-.32,0A.47.47,0,0,1,155,49a.53.53,0,0,1,0-.3.34.34,0,0,1,.19-.25l1.61-1,.32-.14A.72.72,0,0,1,157.39,47.27Z"/><path d="M162.29,47.21a2,2,0,0,1,1.76.79,4.06,4.06,0,0,1,.54,2.29v.44a4.06,4.06,0,0,1-.54,2.29,2.36,2.36,0,0,1-3.52,0,4,4,0,0,1-.55-2.29v-.44a4,4,0,0,1,.55-2.29A2,2,0,0,1,162.29,47.21Zm0,.85a1.48,1.48,0,0,0-.67.13,1,1,0,0,0-.43.42,2.18,2.18,0,0,0-.23.72,6.17,6.17,0,0,0-.07,1v.3a6.3,6.3,0,0,0,.07,1,2.2,2.2,0,0,0,.23.71,1,1,0,0,0,.43.42,1.48,1.48,0,0,0,.67.13,1.47,1.47,0,0,0,.66-.13,1,1,0,0,0,.43-.42,2,2,0,0,0,.23-.71,6.3,6.3,0,0,0,.07-1v-.3a6.17,6.17,0,0,0-.07-1,2,2,0,0,0-.23-.72,1,1,0,0,0-.43-.42A1.47,1.47,0,0,0,162.29,48.06Z"/><g class="cls-16"><path d="M170.16,47.23a.87.87,0,0,1,.59.15.8.8,0,0,1,.16.56V50.5a.83.83,0,0,1-.16.57.87.87,0,0,1-.59.15h-2.55a.84.84,0,0,1-.58-.15.78.78,0,0,1-.16-.57V47.94a.75.75,0,0,1,.16-.56.84.84,0,0,1,.58-.15ZM168,48a.18.18,0,0,0-.2.2v2a.18.18,0,0,0,.2.2h1.75a.18.18,0,0,0,.2-.2v-2a.17.17,0,0,0-.05-.15.21.21,0,0,0-.15,0Zm3,4a4,4,0,0,1,2.09.45,1.49,1.49,0,0,1,.74,1.35,1.48,1.48,0,0,1-.74,1.34,5.06,5.06,0,0,1-4.17,0,1.48,1.48,0,0,1-.74-1.34,1.49,1.49,0,0,1,.74-1.35A4,4,0,0,1,171,52.05Zm0,.77a2.81,2.81,0,0,0-1.42.28.86.86,0,0,0-.45.75.84.84,0,0,0,.45.75,2.81,2.81,0,0,0,1.42.28,2.85,2.85,0,0,0,1.43-.28.86.86,0,0,0,0-1.5A2.85,2.85,0,0,0,171,52.82Zm2.31-6.06a.51.51,0,0,1,.32.1.32.32,0,0,1,.15.3v4.42a.32.32,0,0,1-.15.29.51.51,0,0,1-.32.1.57.57,0,0,1-.34-.1.32.32,0,0,1-.15-.29V50.5h-1.11a.27.27,0,0,1-.25-.12.46.46,0,0,1-.08-.28.47.47,0,0,1,.08-.29.27.27,0,0,1,.25-.12h1.11V48.8h-1.11a.28.28,0,0,1-.25-.11.47.47,0,0,1-.08-.29.42.42,0,0,1,.08-.28.27.27,0,0,1,.25-.12h1.11v-.84a.32.32,0,0,1,.15-.3A.57.57,0,0,1,173.27,46.76Z"/><path d="M156.43,58.76a.79.79,0,0,1,.4.1.38.38,0,0,1,.16.33v6.36a.35.35,0,0,1-.16.32.7.7,0,0,1-.38.1.66.66,0,0,1-.37-.1.33.33,0,0,1-.16-.32V59.94l-1.6.92a.42.42,0,0,1-.39,0,.52.52,0,0,1-.29-.24.54.54,0,0,1,0-.33.37.37,0,0,1,.21-.28L155.71,59a2.69,2.69,0,0,1,.39-.16A1,1,0,0,1,156.43,58.76Z"/></g><path d="M162.88,58.44a.74.74,0,0,1,.54.15.83.83,0,0,1,.15.57v2.56a.8.8,0,0,1-.15.56.74.74,0,0,1-.54.15h-2.39a.77.77,0,0,1-.55-.15.8.8,0,0,1-.15-.56V59.16a.83.83,0,0,1,.15-.57.77.77,0,0,1,.55-.15Zm-2,.81a.21.21,0,0,0-.15,0,.22.22,0,0,0,0,.16v2c0,.13.06.2.19.2h1.63c.13,0,.19-.07.19-.2v-2a.22.22,0,0,0-.05-.16.18.18,0,0,0-.14,0Zm2.76,4a3.56,3.56,0,0,1,2,.45,1.66,1.66,0,0,1,0,2.69,3.56,3.56,0,0,1-2,.45,3.6,3.6,0,0,1-2-.45,1.66,1.66,0,0,1,0-2.69A3.6,3.6,0,0,1,163.63,63.27Zm0,.77a2.43,2.43,0,0,0-1.34.28.84.84,0,0,0-.41.74.86.86,0,0,0,.41.76,2.54,2.54,0,0,0,1.34.27,2.5,2.5,0,0,0,1.33-.27.89.89,0,0,0,0-1.51A2.5,2.5,0,0,0,163.63,64ZM165.78,58a.54.54,0,0,1,.31.09.37.37,0,0,1,.14.31v4.41a.34.34,0,0,1-.14.3.54.54,0,0,1-.31.09.59.59,0,0,1-.31-.09.34.34,0,0,1-.14-.3V61.72h-1a.26.26,0,0,1-.24-.12.57.57,0,0,1-.07-.29.51.51,0,0,1,.07-.28.25.25,0,0,1,.24-.13h1V60h-1a.26.26,0,0,1-.24-.12.52.52,0,0,1-.07-.29.51.51,0,0,1,.07-.28.26.26,0,0,1,.24-.12h1v-.83a.37.37,0,0,1,.14-.31A.59.59,0,0,1,165.78,58Z"/><g class="cls-2"><path class="cls-17" d="M151.86,51.29a4.13,4.13,0,1,1-4.13-4.13,4.13,4.13,0,0,1,4.13,4.13"/><path class="cls-18" d="M148.25,50.23a1.06,1.06,0,0,1,2,.05m-5.19-.06a1.07,1.07,0,0,1,1-.67,1.05,1.05,0,0,1,1,.73m3.21,1.89a2.79,2.79,0,0,1-5,0m6.63-.91a4.13,4.13,0,1,1-4.13-4.13A4.13,4.13,0,0,1,151.86,51.29Z"/><path class="cls-17" d="M150.21,62.32a2.48,2.48,0,1,1-2.48-2.47,2.48,2.48,0,0,1,2.48,2.47"/><path class="cls-18" d="M148.05,61.69a.62.62,0,0,1,.59-.4.64.64,0,0,1,.6.43m-3.11,0a.63.63,0,0,1,.59-.41.65.65,0,0,1,.6.44m1.92,1.14a1.67,1.67,0,0,1-3,0m4-.55a2.48,2.48,0,1,1-2.48-2.47A2.48,2.48,0,0,1,150.21,62.32Z"/><path class="cls-17" d="M41.55,44.27a4.12,4.12,0,1,1-4.12-4.12,4.12,4.12,0,0,1,4.12,4.12"/><path class="cls-18" d="M38,43.21a1.06,1.06,0,0,1,1-.67,1,1,0,0,1,1,.72m-5.18,0a1.05,1.05,0,0,1,2,0m3.21,1.9a2.78,2.78,0,0,1-5,0m6.62-.91a4.12,4.12,0,1,1-4.12-4.12A4.12,4.12,0,0,1,41.55,44.27Z"/><path class="cls-17" d="M52.22,44.27a4.12,4.12,0,1,1-4.12-4.12,4.13,4.13,0,0,1,4.12,4.12"/><path class="cls-18" d="M48.62,43.21a1.05,1.05,0,0,1,2,0m-5.18,0a1.05,1.05,0,0,1,2,0m3.21,1.9a2.78,2.78,0,0,1-5,0m6.62-.91a4.12,4.12,0,1,1-4.12-4.12A4.13,4.13,0,0,1,52.22,44.27Z"/><path class="cls-17" d="M62.89,44.27a4.13,4.13,0,1,1-4.12-4.12,4.13,4.13,0,0,1,4.12,4.12"/><path class="cls-18" d="M59.29,43.21a1.05,1.05,0,0,1,2,0m-5.18,0a1.05,1.05,0,0,1,2,0m3.21,1.9a2.78,2.78,0,0,1-5,0m6.62-.91a4.13,4.13,0,1,1-4.12-4.12A4.13,4.13,0,0,1,62.89,44.27Z"/><path class="cls-17" d="M73.47,44.27a4.13,4.13,0,1,1-4.13-4.12,4.13,4.13,0,0,1,4.13,4.12"/><path class="cls-18" d="M69.86,43.21a1.07,1.07,0,0,1,1-.67,1,1,0,0,1,1,.72m-5.19,0a1.07,1.07,0,0,1,1-.67,1.06,1.06,0,0,1,1,.72m3.21,1.9a2.78,2.78,0,0,1-5,0m6.63-.91a4.13,4.13,0,1,1-4.13-4.12A4.13,4.13,0,0,1,73.47,44.27Z"/><path class="cls-17" d="M84,44.27a4.12,4.12,0,1,1-4.12-4.12A4.12,4.12,0,0,1,84,44.27"/><path class="cls-18" d="M80.44,43.21a1.07,1.07,0,0,1,1-.67,1.06,1.06,0,0,1,1,.72m-5.19,0a1.06,1.06,0,0,1,2,0m3.2,1.9a2.78,2.78,0,0,1-5,0M84,44.27a4.12,4.12,0,1,1-4.12-4.12A4.12,4.12,0,0,1,84,44.27Z"/><path class="cls-17" d="M91.26,44.57a2.47,2.47,0,1,1-2.47-2.47,2.47,2.47,0,0,1,2.47,2.47"/></g><path class="cls-18" d="M89.1,43.94a.63.63,0,0,1,1.19,0m-3.11,0a.63.63,0,0,1,1.19,0M90.3,45.1a1.67,1.67,0,0,1-3,0m4-.55a2.47,2.47,0,1,1-2.47-2.47A2.47,2.47,0,0,1,91.26,44.57Z"/><path class="cls-19" d="M29.7,64.92V12.23M138.92,51.35H.68m138.24,0H.68m138.24-27.6H.68M138.92,37.54H.68"/></g></g></svg>