
<svg xmlns="http://www.w3.org/2000/svg" version="1.1" xmlns:xlink="http://www.w3.org/1999/xlink" preserveAspectRatio="none" x="0px" y="0px" width="1280px" height="720px" viewBox="0 0 1280 720">
<defs>
<g id="Layer7_0_FILL">
<path fill="#1E1E1E" stroke="none" d="
M 934.4 521.4
L 934.4 518.8
Q 934.4 518.6 934.2 518.4 934 518.2 933.8 518.2
L 899 518.2
Q 898.7 518.2 898.55 518.4 898.4 518.6 898.4 518.8
L 898.4 521.4
Q 898.4 521.6 898.55 521.85 898.7 522.05 899 522.05
L 914.05 522.05 914.05 535.15
Q 914.05 535.7 914.6 535.7
L 918.1 535.7
Q 918.65 535.7 918.65 535.15
L 918.65 522.05 933.8 522.05
Q 934 522.05 934.2 521.85 934.4 521.6 934.4 521.4
M 931.9 510.95
Q 932 510.65 931.85 510.45 931.7 510.25 931.4 510.2 929.25 509.65 927.2 508.75 925.15 507.85 923.45 506.6 921.75 505.4 920.45 503.95 919.2 502.5 918.65 500.85 918.8 499.85 918.9 498.65 918.9 498 918.35 498
L 914.95 497.9
Q 914.65 497.9 914.45 498.1 914.3 498.3 914.25 498.6 914 501.1 913.05 503.05 912.1 504.95 910.45 506.45 908.8 507.95 906.55 509.05 904.3 510.15 901.45 510.95 901.15 511 901 511.25 900.9 511.55 901 511.8
L 902.4 514.4
Q 902.5 514.55 902.75 514.6 903.05 514.6 903.35 514.55 907.9 513.35 911.35 511.2 914.8 509 916.7 505.95 917.55 507.35 919 508.6 920.45 509.9 922.2 511 924 512.05 925.95 512.85 927.9 513.6 929.85 513.95 930.5 514.1 930.7 513.6
L 931.9 510.95
M 862.55 531.25
Q 862.1 531.25 861.9 531.15 861.75 531 861.75 530.6
L 861.75 523.5
Q 861.75 523.3 861.6 523.1 861.4 522.95 861.15 522.95
L 857.75 522.95
Q 857.55 522.95 857.35 523.1 857.2 523.3 857.2 523.5
L 857.2 532.2
Q 857.2 533.75 857.8 534.45 858.4 535.1 860.2 535.1
L 882.65 535.1
Q 882.9 535.1 883.1 534.95 883.25 534.85 883.25 534.6
L 883.25 531.75
Q 883.25 531.55 883.05 531.4 882.85 531.25 882.65 531.25
L 862.55 531.25
M 882.6 501.8
Q 882.6 500.3 881.9 499.6 881.25 498.95 879.95 498.95
L 857.85 498.95
Q 857.65 498.95 857.45 499.05 857.25 499.15 857.25 499.4
L 857.25 502.2
Q 857.25 502.4 857.45 502.55 857.65 502.7 857.85 502.7
L 877.05 502.7
Q 877.6 502.7 877.85 502.85 878.15 502.95 878.15 503.55 878.15 504.75 878 506.95 876.15 507.05 873.8 507.1 871.4 507.15 868.7 507.15 866.05 507.15 863.25 507.2 860.5 507.2 857.95 507.2 857.4 507.2 857.4 507.8
L 857.4 510.45
Q 857.4 510.7 857.55 510.85 857.75 511.05 857.95 511.05 860.35 511.05 863 511.05 865.6 511 868.1 511 870.65 510.95 873.1 510.85 875.6 510.8 877.75 510.7 877.6 512.2 877.45 513.6 877.35 515 877.15 515.85
L 852.2 515.85
Q 851.9 515.85 851.75 516.05 851.6 516.25 851.6 516.5
L 851.6 519.1
Q 851.6 519.3 851.75 519.5 851.9 519.7 852.2 519.7
L 887 519.7
Q 887.2 519.7 887.4 519.5 887.6 519.3 887.6 519.1
L 887.6 516.5
Q 887.6 516.3 887.4 516.1 887.2 515.85 887 515.85
L 881.4 515.85
Q 881.7 514.4 881.9 512.4 882.15 510.35 882.3 508.3 882.45 506.3 882.55 504.5 882.6 502.75 882.6 501.8
M 641.6 501.55
Q 641.6 501 641.05 501
L 626.5 501
Q 625 501 624.45 501.55 623.85 502.15 623.85 503.55
L 623.85 522.5
Q 623.85 523.95 624.55 524.5 625.25 525.1 626.75 525.2 628.4 525.3 630.8 525.2 633.2 525.15 635.75 524.9 638.3 524.7 640.65 524.35 643.05 523.95 644.65 523.5 644.85 523.4 645.05 523.25 645.2 523.15 645.15 522.7
L 644.7 520.35
Q 644.55 519.75 643.95 519.9 642.15 520.2 640.2 520.5 638.15 520.75 636.25 520.95 634.35 521.15 632.6 521.2 630.9 521.3 629.65 521.15 628.9 521.1 628.65 520.9 628.45 520.7 628.45 520.1
L 628.45 505.55
Q 628.45 504.85 629.15 504.85
L 641.05 504.85
Q 641.6 504.85 641.6 504.35
L 641.6 501.55
M 651.75 498.55
Q 651.75 498 651.2 498
L 647.65 498
Q 647.15 498 647.15 498.55
L 647.15 535.45
Q 647.15 536 647.65 536
L 651.2 536
Q 651.75 536 651.75 535.45
L 651.75 516.5 657.15 516.5
Q 657.35 516.5 657.55 516.35 657.75 516.15 657.75 515.95
L 657.75 513.15
Q 657.75 512.95 657.55 512.8 657.35 512.65 657.15 512.65
L 651.75 512.65 651.75 498.55
M 615.2 500.2
Q 615.2 499.95 615.05 499.8 614.9 499.65 614.7 499.65
L 611.15 499.65
Q 610.95 499.65 610.75 499.8 610.6 499.95 610.6 500.2
L 610.6 505.85 594.55 505.85 594.55 500.2
Q 594.55 500 594.35 499.85 594.15 499.75 593.95 499.75
L 590.45 499.75
Q 590.25 499.75 590.1 499.85 589.9 500 589.9 500.2
L 589.9 515.5
Q 589.9 517.15 590.55 517.75 591.2 518.3 592.95 518.3
L 600.3 518.3 600.3 525.65 585.2 525.65
Q 584.9 525.65 584.75 525.85 584.6 526.05 584.6 526.3
L 584.6 528.9
Q 584.6 529.1 584.75 529.3 584.9 529.5 585.2 529.5
L 620 529.5
Q 620.2 529.5 620.4 529.3 620.6 529.1 620.6 528.9
L 620.6 526.3
Q 620.6 526.1 620.4 525.85 620.2 525.65 620 525.65
L 604.9 525.65 604.9 518.3 612.2 518.3
Q 613.95 518.3 614.55 517.65 615.2 516.95 615.2 515.65
L 615.2 500.2
M 610.6 509.55
L 610.6 513.9
Q 610.6 514.55 609.9 514.55
L 595.25 514.55
Q 594.55 514.55 594.55 513.9
L 594.55 509.55 610.6 509.55
M 563.2 511.35
Q 562.85 514.1 562.85 516.55 562.85 523.9 565.3 527.95 567.75 532 572.9 532 575.45 532 577.3 531 579.15 529.9 580.4 527.95 581.65 526 582.25 523.1 582.85 520.2 582.85 516.55 582.85 514.9 582.65 513.15 582.5 511.35 582.1 509.65 581.7 507.95 581 506.4 580.3 504.85 579.15 503.65 578.1 502.5 576.5 501.8 574.95 501.15 572.9 501.15 569.7 501.15 567.75 502.6 565.8 504.1 564.7 506.35 563.6 508.65 563.2 511.35
M 572.9 505.5
Q 574.1 505.5 575.15 506.1 576.15 506.65 576.9 507.95 577.6 509.3 578 511.4 578.35 513.55 578.35 516.55 578.35 519.65 578 521.8 577.6 523.9 576.9 525.2 576.15 526.55 575.15 527.1 574.1 527.7 572.9 527.7 571.6 527.7 570.6 527.1 569.6 526.55 568.9 525.2 568.15 523.9 567.8 521.8 567.4 519.65 567.4 516.55 567.4 513.55 567.8 511.4 568.15 509.3 568.9 507.95 569.6 506.65 570.6 506.1 571.6 505.5 572.9 505.5
M 553.25 501.8
Q 551.7 501.15 549.65 501.15 546.45 501.15 544.5 502.6 542.55 504.1 541.45 506.35 540.35 508.65 539.95 511.35 539.6 514.1 539.6 516.55 539.6 523.9 542.05 527.95 544.5 532 549.65 532 552.2 532 554.05 531 555.9 529.9 557.15 527.95 558.4 526 559 523.1 559.6 520.2 559.6 516.55 559.6 514.9 559.4 513.15 559.25 511.35 558.85 509.65 558.45 507.95 557.75 506.4 557.05 504.85 555.9 503.65 554.85 502.5 553.25 501.8
M 547.35 506.1
Q 548.35 505.5 549.65 505.5 550.85 505.5 551.9 506.1 552.9 506.65 553.65 507.95 554.35 509.3 554.75 511.4 555.1 513.55 555.1 516.55 555.1 519.65 554.75 521.8 554.35 523.9 553.65 525.2 552.9 526.55 551.9 527.1 550.85 527.7 549.65 527.7 548.35 527.7 547.35 527.1 546.35 526.55 545.65 525.2 544.9 523.9 544.55 521.8 544.15 519.65 544.15 516.55 544.15 513.55 544.55 511.4 544.9 509.3 545.65 507.95 546.35 506.65 547.35 506.1
M 532.65 503.65
Q 531.6 502.5 530 501.8 528.45 501.15 526.4 501.15 523.2 501.15 521.25 502.6 519.3 504.1 518.2 506.35 517.1 508.65 516.7 511.35 516.35 514.1 516.35 516.55 516.35 523.9 518.8 527.95 521.25 532 526.4 532 528.95 532 530.8 531 532.65 529.9 533.9 527.95 535.15 526 535.75 523.1 536.35 520.2 536.35 516.55 536.35 514.9 536.15 513.15 536 511.35 535.6 509.65 535.2 507.95 534.5 506.4 533.8 504.85 532.65 503.65
M 528.65 506.1
Q 529.65 506.65 530.4 507.95 531.1 509.3 531.5 511.4 531.85 513.55 531.85 516.55 531.85 519.65 531.5 521.8 531.1 523.9 530.4 525.2 529.65 526.55 528.65 527.1 527.6 527.7 526.4 527.7 525.1 527.7 524.1 527.1 523.1 526.55 522.4 525.2 521.65 523.9 521.3 521.8 520.9 519.65 520.9 516.55 520.9 513.55 521.3 511.4 521.65 509.3 522.4 507.95 523.1 506.65 524.1 506.1 525.1 505.5 526.4 505.5 527.6 505.5 528.65 506.1
M 512.85 515.6
Q 512.85 508.15 510.3 504.6 507.75 501.05 503.05 501.05 500.75 501.05 498.95 501.85 497.1 502.65 495.8 504.05 494.5 505.45 493.8 507.35 493.15 509.25 493.15 511.45 493.15 513.75 493.85 515.55 494.5 517.35 495.8 518.65 497.1 519.95 498.9 520.65 500.65 521.35 502.8 521.35 503.55 521.35 504.35 521.15 505.15 520.95 505.9 520.6 506.65 520.25 507.3 519.8 507.9 519.35 508.25 518.85 508 520.75 507.4 522.45 506.8 524.1 505.8 525.35 504.8 526.6 503.35 527.3 501.9 528 499.8 528 498.4 528 497.25 527.9 496.05 527.8 495 527.35 494.45 527.15 494.35 527.7
L 494.25 530.9
Q 494.2 531.3 494.55 531.4 495.5 531.75 496.9 531.95 498.35 532.15 499.5 532.15 503.2 532.15 505.75 530.8 508.35 529.5 509.9 527.25 511.5 525 512.2 522 512.85 518.95 512.85 515.6
M 506.7 506.95
Q 507.4 507.85 507.8 509.05 508.2 510.25 508.2 511.6 508.2 514.05 506.75 515.65 505.25 517.2 502.65 517.2 500.2 517.2 498.9 515.6 497.55 514 497.55 511.25 497.55 508.35 499.05 506.7 500.6 505 503 505 504.1 505 505.05 505.55 506 506.05 506.7 506.95
M 934.4 416.4
L 934.4 413.8
Q 934.4 413.6 934.2 413.4 934 413.2 933.8 413.2
L 899 413.2
Q 898.7 413.2 898.55 413.4 898.4 413.6 898.4 413.8
L 898.4 416.4
Q 898.4 416.6 898.55 416.85 898.7 417.05 899 417.05
L 914.05 417.05 914.05 430.15
Q 914.05 430.7 914.6 430.7
L 918.1 430.7
Q 918.65 430.7 918.65 430.15
L 918.65 417.05 933.8 417.05
Q 934 417.05 934.2 416.85 934.4 416.6 934.4 416.4
M 918.65 395.85
Q 918.8 394.85 918.9 393.65 918.9 393 918.35 393
L 914.95 392.9
Q 914.65 392.9 914.45 393.1 914.3 393.3 914.25 393.6 914 396.1 913.05 398.05 912.1 399.95 910.45 401.45 908.8 402.95 906.55 404.05 904.3 405.15 901.45 405.95 901.15 406 901 406.25 900.9 406.55 901 406.8
L 902.4 409.4
Q 902.5 409.55 902.75 409.6 903.05 409.6 903.35 409.55 907.9 408.35 911.35 406.2 914.8 404 916.7 400.95 917.55 402.35 919 403.6 920.45 404.9 922.2 406 924 407.05 925.95 407.85 927.9 408.6 929.85 408.95 930.5 409.1 930.7 408.6
L 931.9 405.95
Q 932 405.65 931.85 405.45 931.7 405.25 931.4 405.2 929.25 404.65 927.2 403.75 925.15 402.85 923.45 401.6 921.75 400.4 920.45 398.95 919.2 397.5 918.65 395.85
M 857.75 417.95
Q 857.55 417.95 857.35 418.1 857.2 418.3 857.2 418.5
L 857.2 427.2
Q 857.2 428.75 857.8 429.45 858.4 430.1 860.2 430.1
L 882.65 430.1
Q 882.9 430.1 883.1 429.95 883.25 429.85 883.25 429.6
L 883.25 426.75
Q 883.25 426.55 883.05 426.4 882.85 426.25 882.65 426.25
L 862.55 426.25
Q 862.1 426.25 861.9 426.15 861.75 426 861.75 425.6
L 861.75 418.5
Q 861.75 418.3 861.6 418.1 861.4 417.95 861.15 417.95
L 857.75 417.95
M 881.9 394.6
Q 881.25 393.95 879.95 393.95
L 857.85 393.95
Q 857.65 393.95 857.45 394.05 857.25 394.15 857.25 394.4
L 857.25 397.2
Q 857.25 397.4 857.45 397.55 857.65 397.7 857.85 397.7
L 877.05 397.7
Q 877.6 397.7 877.85 397.85 878.15 397.95 878.15 398.55 878.15 399.75 878 401.95 876.15 402.05 873.8 402.1 871.4 402.15 868.7 402.15 866.05 402.15 863.25 402.2 860.5 402.2 857.95 402.2 857.4 402.2 857.4 402.8
L 857.4 405.45
Q 857.4 405.7 857.55 405.85 857.75 406.05 857.95 406.05 860.35 406.05 863 406.05 865.6 406 868.1 406 870.65 405.95 873.1 405.85 875.6 405.8 877.75 405.7 877.6 407.2 877.45 408.6 877.35 410 877.15 410.85
L 852.2 410.85
Q 851.9 410.85 851.75 411.05 851.6 411.25 851.6 411.5
L 851.6 414.1
Q 851.6 414.3 851.75 414.5 851.9 414.7 852.2 414.7
L 887 414.7
Q 887.2 414.7 887.4 414.5 887.6 414.3 887.6 414.1
L 887.6 411.5
Q 887.6 411.3 887.4 411.1 887.2 410.85 887 410.85
L 881.4 410.85
Q 881.7 409.4 881.9 407.4 882.15 405.35 882.3 403.3 882.45 401.3 882.55 399.5 882.6 397.75 882.6 396.8 882.6 395.3 881.9 394.6
M 641.05 399.85
Q 641.6 399.85 641.6 399.35
L 641.6 396.55
Q 641.6 396 641.05 396
L 626.5 396
Q 625 396 624.45 396.55 623.85 397.15 623.85 398.55
L 623.85 417.5
Q 623.85 418.95 624.55 419.5 625.25 420.1 626.75 420.2 628.4 420.3 630.8 420.2 633.2 420.15 635.75 419.9 638.3 419.7 640.65 419.35 643.05 418.95 644.65 418.5 644.85 418.4 645.05 418.25 645.2 418.15 645.15 417.7
L 644.7 415.35
Q 644.55 414.75 643.95 414.9 642.15 415.2 640.2 415.5 638.15 415.75 636.25 415.95 634.35 416.15 632.6 416.2 630.9 416.3 629.65 416.15 628.9 416.1 628.65 415.9 628.45 415.7 628.45 415.1
L 628.45 400.55
Q 628.45 399.85 629.15 399.85
L 641.05 399.85
M 651.75 393.55
Q 651.75 393 651.2 393
L 647.65 393
Q 647.15 393 647.15 393.55
L 647.15 430.45
Q 647.15 431 647.65 431
L 651.2 431
Q 651.75 431 651.75 430.45
L 651.75 411.5 657.15 411.5
Q 657.35 411.5 657.55 411.35 657.75 411.15 657.75 410.95
L 657.75 408.15
Q 657.75 407.95 657.55 407.8 657.35 407.65 657.15 407.65
L 651.75 407.65 651.75 393.55
M 594.55 395.2
Q 594.55 395 594.35 394.85 594.15 394.75 593.95 394.75
L 590.45 394.75
Q 590.25 394.75 590.1 394.85 589.9 395 589.9 395.2
L 589.9 410.5
Q 589.9 412.15 590.55 412.75 591.2 413.3 592.95 413.3
L 600.3 413.3 600.3 420.65 585.2 420.65
Q 584.9 420.65 584.75 420.85 584.6 421.05 584.6 421.3
L 584.6 423.9
Q 584.6 424.1 584.75 424.3 584.9 424.5 585.2 424.5
L 620 424.5
Q 620.2 424.5 620.4 424.3 620.6 424.1 620.6 423.9
L 620.6 421.3
Q 620.6 421.1 620.4 420.85 620.2 420.65 620 420.65
L 604.9 420.65 604.9 413.3 612.2 413.3
Q 613.95 413.3 614.55 412.65 615.2 411.95 615.2 410.65
L 615.2 395.2
Q 615.2 394.95 615.05 394.8 614.9 394.65 614.7 394.65
L 611.15 394.65
Q 610.95 394.65 610.75 394.8 610.6 394.95 610.6 395.2
L 610.6 400.85 594.55 400.85 594.55 395.2
M 610.6 408.9
Q 610.6 409.55 609.9 409.55
L 595.25 409.55
Q 594.55 409.55 594.55 408.9
L 594.55 404.55 610.6 404.55 610.6 408.9
M 582.65 408.15
Q 582.5 406.35 582.1 404.65 581.7 402.95 581 401.4 580.3 399.85 579.15 398.65 578.1 397.5 576.5 396.8 574.95 396.15 572.9 396.15 569.7 396.15 567.75 397.6 565.8 399.1 564.7 401.35 563.6 403.65 563.2 406.35 562.85 409.1 562.85 411.55 562.85 418.9 565.3 422.95 567.75 427 572.9 427 575.45 427 577.3 426 579.15 424.9 580.4 422.95 581.65 421 582.25 418.1 582.85 415.2 582.85 411.55 582.85 409.9 582.65 408.15
M 572.9 400.5
Q 574.1 400.5 575.15 401.1 576.15 401.65 576.9 402.95 577.6 404.3 578 406.4 578.35 408.55 578.35 411.55 578.35 414.65 578 416.8 577.6 418.9 576.9 420.2 576.15 421.55 575.15 422.1 574.1 422.7 572.9 422.7 571.6 422.7 570.6 422.1 569.6 421.55 568.9 420.2 568.15 418.9 567.8 416.8 567.4 414.65 567.4 411.55 567.4 408.55 567.8 406.4 568.15 404.3 568.9 402.95 569.6 401.65 570.6 401.1 571.6 400.5 572.9 400.5
M 559.4 408.15
Q 559.25 406.35 558.85 404.65 558.45 402.95 557.75 401.4 557.05 399.85 555.9 398.65 554.85 397.5 553.25 396.8 551.7 396.15 549.65 396.15 546.45 396.15 544.5 397.6 542.55 399.1 541.45 401.35 540.35 403.65 539.95 406.35 539.6 409.1 539.6 411.55 539.6 418.9 542.05 422.95 544.5 427 549.65 427 552.2 427 554.05 426 555.9 424.9 557.15 422.95 558.4 421 559 418.1 559.6 415.2 559.6 411.55 559.6 409.9 559.4 408.15
M 547.35 401.1
Q 548.35 400.5 549.65 400.5 550.85 400.5 551.9 401.1 552.9 401.65 553.65 402.95 554.35 404.3 554.75 406.4 555.1 408.55 555.1 411.55 555.1 414.65 554.75 416.8 554.35 418.9 553.65 420.2 552.9 421.55 551.9 422.1 550.85 422.7 549.65 422.7 548.35 422.7 547.35 422.1 546.35 421.55 545.65 420.2 544.9 418.9 544.55 416.8 544.15 414.65 544.15 411.55 544.15 408.55 544.55 406.4 544.9 404.3 545.65 402.95 546.35 401.65 547.35 401.1
M 535.45 417
Q 536.1 413.95 536.1 410.6 536.1 403.15 533.55 399.6 531 396.05 526.3 396.05 524 396.05 522.2 396.85 520.35 397.65 519.05 399.05 517.75 400.45 517.05 402.35 516.4 404.25 516.4 406.45 516.4 408.75 517.1 410.55 517.75 412.35 519.05 413.65 520.35 414.95 522.15 415.65 523.9 416.35 526.05 416.35 526.8 416.35 527.6 416.15 528.4 415.95 529.15 415.6 529.9 415.25 530.55 414.8 531.15 414.35 531.5 413.85 531.25 415.75 530.65 417.45 530.05 419.1 529.05 420.35 528.05 421.6 526.6 422.3 525.15 423 523.05 423 521.65 423 520.5 422.9 519.3 422.8 518.25 422.35 517.7 422.15 517.6 422.7
L 517.5 425.9
Q 517.45 426.3 517.8 426.4 518.75 426.75 520.15 426.95 521.6 427.15 522.75 427.15 526.45 427.15 529 425.8 531.6 424.5 533.15 422.25 534.75 420 535.45 417
M 528.3 400.55
Q 529.25 401.05 529.95 401.95 530.65 402.85 531.05 404.05 531.45 405.25 531.45 406.6 531.45 409.05 530 410.65 528.5 412.2 525.9 412.2 523.45 412.2 522.15 410.6 520.8 409 520.8 406.25 520.8 403.35 522.3 401.7 523.85 400 526.25 400 527.35 400 528.3 400.55
M 512.2 417
Q 512.85 413.95 512.85 410.6 512.85 403.15 510.3 399.6 507.75 396.05 503.05 396.05 500.75 396.05 498.95 396.85 497.1 397.65 495.8 399.05 494.5 400.45 493.8 402.35 493.15 404.25 493.15 406.45 493.15 408.75 493.85 410.55 494.5 412.35 495.8 413.65 497.1 414.95 498.9 415.65 500.65 416.35 502.8 416.35 503.55 416.35 504.35 416.15 505.15 415.95 505.9 415.6 506.65 415.25 507.3 414.8 507.9 414.35 508.25 413.85 508 415.75 507.4 417.45 506.8 419.1 505.8 420.35 504.8 421.6 503.35 422.3 501.9 423 499.8 423 498.4 423 497.25 422.9 496.05 422.8 495 422.35 494.45 422.15 494.35 422.7
L 494.25 425.9
Q 494.2 426.3 494.55 426.4 495.5 426.75 496.9 426.95 498.35 427.15 499.5 427.15 503.2 427.15 505.75 425.8 508.35 424.5 509.9 422.25 511.5 420 512.2 417
M 506.7 401.95
Q 507.4 402.85 507.8 404.05 508.2 405.25 508.2 406.6 508.2 409.05 506.75 410.65 505.25 412.2 502.65 412.2 500.2 412.2 498.9 410.6 497.55 409 497.55 406.25 497.55 403.35 499.05 401.7 500.6 400 503 400 504.1 400 505.05 400.55 506 401.05 506.7 401.95
M 934.4 311.4
L 934.4 308.8
Q 934.4 308.6 934.2 308.4 934 308.2 933.8 308.2
L 899 308.2
Q 898.7 308.2 898.55 308.4 898.4 308.6 898.4 308.8
L 898.4 311.4
Q 898.4 311.6 898.55 311.85 898.7 312.05 899 312.05
L 914.05 312.05 914.05 325.15
Q 914.05 325.7 914.6 325.7
L 918.1 325.7
Q 918.65 325.7 918.65 325.15
L 918.65 312.05 933.8 312.05
Q 934 312.05 934.2 311.85 934.4 311.6 934.4 311.4
M 914.25 288.6
Q 914 291.1 913.05 293.05 912.1 294.95 910.45 296.45 908.8 297.95 906.55 299.05 904.3 300.15 901.45 300.95 901.15 301 901 301.25 900.9 301.55 901 301.8
L 902.4 304.4
Q 902.5 304.55 902.75 304.6 903.05 304.6 903.35 304.55 907.9 303.35 911.35 301.2 914.8 299 916.7 295.95 917.55 297.35 919 298.6 920.45 299.9 922.2 301 924 302.05 925.95 302.85 927.9 303.6 929.85 303.95 930.5 304.1 930.7 303.6
L 931.9 300.95
Q 932 300.65 931.85 300.45 931.7 300.25 931.4 300.2 929.25 299.65 927.2 298.75 925.15 297.85 923.45 296.6 921.75 295.4 920.45 293.95 919.2 292.5 918.65 290.85 918.8 289.85 918.9 288.65 918.9 288 918.35 288
L 914.95 287.9
Q 914.65 287.9 914.45 288.1 914.3 288.3 914.25 288.6
M 883.05 321.4
Q 882.85 321.25 882.65 321.25
L 862.55 321.25
Q 862.1 321.25 861.9 321.15 861.75 321 861.75 320.6
L 861.75 313.5
Q 861.75 313.3 861.6 313.1 861.4 312.95 861.15 312.95
L 857.75 312.95
Q 857.55 312.95 857.35 313.1 857.2 313.3 857.2 313.5
L 857.2 322.2
Q 857.2 323.75 857.8 324.45 858.4 325.1 860.2 325.1
L 882.65 325.1
Q 882.9 325.1 883.1 324.95 883.25 324.85 883.25 324.6
L 883.25 321.75
Q 883.25 321.55 883.05 321.4
M 857.45 292.55
Q 857.65 292.7 857.85 292.7
L 877.05 292.7
Q 877.6 292.7 877.85 292.85 878.15 292.95 878.15 293.55 878.15 294.75 878 296.95 876.15 297.05 873.8 297.1 871.4 297.15 868.7 297.15 866.05 297.15 863.25 297.2 860.5 297.2 857.95 297.2 857.4 297.2 857.4 297.8
L 857.4 300.45
Q 857.4 300.7 857.55 300.85 857.75 301.05 857.95 301.05 860.35 301.05 863 301.05 865.6 301 868.1 301 870.65 300.95 873.1 300.85 875.6 300.8 877.75 300.7 877.6 302.2 877.45 303.6 877.35 305 877.15 305.85
L 852.2 305.85
Q 851.9 305.85 851.75 306.05 851.6 306.25 851.6 306.5
L 851.6 309.1
Q 851.6 309.3 851.75 309.5 851.9 309.7 852.2 309.7
L 887 309.7
Q 887.2 309.7 887.4 309.5 887.6 309.3 887.6 309.1
L 887.6 306.5
Q 887.6 306.3 887.4 306.1 887.2 305.85 887 305.85
L 881.4 305.85
Q 881.7 304.4 881.9 302.4 882.15 300.35 882.3 298.3 882.45 296.3 882.55 294.5 882.6 292.75 882.6 291.8 882.6 290.3 881.9 289.6 881.25 288.95 879.95 288.95
L 857.85 288.95
Q 857.65 288.95 857.45 289.05 857.25 289.15 857.25 289.4
L 857.25 292.2
Q 857.25 292.4 857.45 292.55
M 624.45 291.55
Q 623.85 292.15 623.85 293.55
L 623.85 312.5
Q 623.85 313.95 624.55 314.5 625.25 315.1 626.75 315.2 628.4 315.3 630.8 315.2 633.2 315.15 635.75 314.9 638.3 314.7 640.65 314.35 643.05 313.95 644.65 313.5 644.85 313.4 645.05 313.25 645.2 313.15 645.15 312.7
L 644.7 310.35
Q 644.55 309.75 643.95 309.9 642.15 310.2 640.2 310.5 638.15 310.75 636.25 310.95 634.35 311.15 632.6 311.2 630.9 311.3 629.65 311.15 628.9 311.1 628.65 310.9 628.45 310.7 628.45 310.1
L 628.45 295.55
Q 628.45 294.85 629.15 294.85
L 641.05 294.85
Q 641.6 294.85 641.6 294.35
L 641.6 291.55
Q 641.6 291 641.05 291
L 626.5 291
Q 625 291 624.45 291.55
M 651.75 288.55
Q 651.75 288 651.2 288
L 647.65 288
Q 647.15 288 647.15 288.55
L 647.15 325.45
Q 647.15 326 647.65 326
L 651.2 326
Q 651.75 326 651.75 325.45
L 651.75 306.5 657.15 306.5
Q 657.35 306.5 657.55 306.35 657.75 306.15 657.75 305.95
L 657.75 303.15
Q 657.75 302.95 657.55 302.8 657.35 302.65 657.15 302.65
L 651.75 302.65 651.75 288.55
M 594.55 295.85
L 594.55 290.2
Q 594.55 290 594.35 289.85 594.15 289.75 593.95 289.75
L 590.45 289.75
Q 590.25 289.75 590.1 289.85 589.9 290 589.9 290.2
L 589.9 305.5
Q 589.9 307.15 590.55 307.75 591.2 308.3 592.95 308.3
L 600.3 308.3 600.3 315.65 585.2 315.65
Q 584.9 315.65 584.75 315.85 584.6 316.05 584.6 316.3
L 584.6 318.9
Q 584.6 319.1 584.75 319.3 584.9 319.5 585.2 319.5
L 620 319.5
Q 620.2 319.5 620.4 319.3 620.6 319.1 620.6 318.9
L 620.6 316.3
Q 620.6 316.1 620.4 315.85 620.2 315.65 620 315.65
L 604.9 315.65 604.9 308.3 612.2 308.3
Q 613.95 308.3 614.55 307.65 615.2 306.95 615.2 305.65
L 615.2 290.2
Q 615.2 289.95 615.05 289.8 614.9 289.65 614.7 289.65
L 611.15 289.65
Q 610.95 289.65 610.75 289.8 610.6 289.95 610.6 290.2
L 610.6 295.85 594.55 295.85
M 610.6 299.55
L 610.6 303.9
Q 610.6 304.55 609.9 304.55
L 595.25 304.55
Q 594.55 304.55 594.55 303.9
L 594.55 299.55 610.6 299.55
M 580.05 294.6
Q 577.5 291.05 572.8 291.05 570.5 291.05 568.7 291.85 566.85 292.65 565.55 294.05 564.25 295.45 563.55 297.35 562.9 299.25 562.9 301.45 562.9 303.75 563.6 305.55 564.25 307.35 565.55 308.65 566.85 309.95 568.65 310.65 570.4 311.35 572.55 311.35 573.3 311.35 574.1 311.15 574.9 310.95 575.65 310.6 576.4 310.25 577.05 309.8 577.65 309.35 578 308.85 577.75 310.75 577.15 312.45 576.55 314.1 575.55 315.35 574.55 316.6 573.1 317.3 571.65 318 569.55 318 568.15 318 567 317.9 565.8 317.8 564.75 317.35 564.2 317.15 564.1 317.7
L 564 320.9
Q 563.95 321.3 564.3 321.4 565.25 321.75 566.65 321.95 568.1 322.15 569.25 322.15 572.95 322.15 575.5 320.8 578.1 319.5 579.65 317.25 581.25 315 581.95 312 582.6 308.95 582.6 305.6 582.6 298.15 580.05 294.6
M 572.75 295
Q 573.85 295 574.8 295.55 575.75 296.05 576.45 296.95 577.15 297.85 577.55 299.05 577.95 300.25 577.95 301.6 577.95 304.05 576.5 305.65 575 307.2 572.4 307.2 569.95 307.2 568.65 305.6 567.3 304 567.3 301.25 567.3 298.35 568.8 296.7 570.35 295 572.75 295
M 556.8 294.6
Q 554.25 291.05 549.55 291.05 547.25 291.05 545.45 291.85 543.6 292.65 542.3 294.05 541 295.45 540.3 297.35 539.65 299.25 539.65 301.45 539.65 303.75 540.35 305.55 541 307.35 542.3 308.65 543.6 309.95 545.4 310.65 547.15 311.35 549.3 311.35 550.05 311.35 550.85 311.15 551.65 310.95 552.4 310.6 553.15 310.25 553.8 309.8 554.4 309.35 554.75 308.85 554.5 310.75 553.9 312.45 553.3 314.1 552.3 315.35 551.3 316.6 549.85 317.3 548.4 318 546.3 318 544.9 318 543.75 317.9 542.55 317.8 541.5 317.35 540.95 317.15 540.85 317.7
L 540.75 320.9
Q 540.7 321.3 541.05 321.4 542 321.75 543.4 321.95 544.85 322.15 546 322.15 549.7 322.15 552.25 320.8 554.85 319.5 556.4 317.25 558 315 558.7 312 559.35 308.95 559.35 305.6 559.35 298.15 556.8 294.6
M 549.5 295
Q 550.6 295 551.55 295.55 552.5 296.05 553.2 296.95 553.9 297.85 554.3 299.05 554.7 300.25 554.7 301.6 554.7 304.05 553.25 305.65 551.75 307.2 549.15 307.2 546.7 307.2 545.4 305.6 544.05 304 544.05 301.25 544.05 298.35 545.55 296.7 547.1 295 549.5 295
M 522.2 291.85
Q 520.35 292.65 519.05 294.05 517.75 295.45 517.05 297.35 516.4 299.25 516.4 301.45 516.4 303.75 517.1 305.55 517.75 307.35 519.05 308.65 520.35 309.95 522.15 310.65 523.9 311.35 526.05 311.35 526.8 311.35 527.6 311.15 528.4 310.95 529.15 310.6 529.9 310.25 530.55 309.8 531.15 309.35 531.5 308.85 531.25 310.75 530.65 312.45 530.05 314.1 529.05 315.35 528.05 316.6 526.6 317.3 525.15 318 523.05 318 521.65 318 520.5 317.9 519.3 317.8 518.25 317.35 517.7 317.15 517.6 317.7
L 517.5 320.9
Q 517.45 321.3 517.8 321.4 518.75 321.75 520.15 321.95 521.6 322.15 522.75 322.15 526.45 322.15 529 320.8 531.6 319.5 533.15 317.25 534.75 315 535.45 312 536.1 308.95 536.1 305.6 536.1 298.15 533.55 294.6 531 291.05 526.3 291.05 524 291.05 522.2 291.85
M 522.3 296.7
Q 523.85 295 526.25 295 527.35 295 528.3 295.55 529.25 296.05 529.95 296.95 530.65 297.85 531.05 299.05 531.45 300.25 531.45 301.6 531.45 304.05 530 305.65 528.5 307.2 525.9 307.2 523.45 307.2 522.15 305.6 520.8 304 520.8 301.25 520.8 298.35 522.3 296.7
M 510.3 294.6
Q 507.75 291.05 503.05 291.05 500.75 291.05 498.95 291.85 497.1 292.65 495.8 294.05 494.5 295.45 493.8 297.35 493.15 299.25 493.15 301.45 493.15 303.75 493.85 305.55 494.5 307.35 495.8 308.65 497.1 309.95 498.9 310.65 500.65 311.35 502.8 311.35 503.55 311.35 504.35 311.15 505.15 310.95 505.9 310.6 506.65 310.25 507.3 309.8 507.9 309.35 508.25 308.85 508 310.75 507.4 312.45 506.8 314.1 505.8 315.35 504.8 316.6 503.35 317.3 501.9 318 499.8 318 498.4 318 497.25 317.9 496.05 317.8 495 317.35 494.45 317.15 494.35 317.7
L 494.25 320.9
Q 494.2 321.3 494.55 321.4 495.5 321.75 496.9 321.95 498.35 322.15 499.5 322.15 503.2 322.15 505.75 320.8 508.35 319.5 509.9 317.25 511.5 315 512.2 312 512.85 308.95 512.85 305.6 512.85 298.15 510.3 294.6
M 503 295
Q 504.1 295 505.05 295.55 506 296.05 506.7 296.95 507.4 297.85 507.8 299.05 508.2 300.25 508.2 301.6 508.2 304.05 506.75 305.65 505.25 307.2 502.65 307.2 500.2 307.2 498.9 305.6 497.55 304 497.55 301.25 497.55 298.35 499.05 296.7 500.6 295 503 295
M 414.25 437.4
L 414.25 434.5
Q 414.25 434.3 414.05 434.15 413.85 434 413.65 434
L 393.7 434
Q 393.25 434 393.1 433.9 392.9 433.75 392.9 433.35
L 392.9 426.3
Q 392.9 426.1 392.75 425.9 392.55 425.75 392.35 425.75
L 388.9 425.75
Q 388.7 425.75 388.5 425.9 388.35 426.1 388.35 426.3
L 388.35 434.95
Q 388.35 436.6 388.95 437.2 389.55 437.85 391.35 437.85
L 413.65 437.85
Q 413.9 437.85 414.1 437.75 414.25 437.6 414.25 437.4
M 418.6 419.95
Q 418.6 419.8 418.4 419.55 418.2 419.35 418 419.35
L 383.2 419.35
Q 382.9 419.35 382.75 419.55 382.6 419.75 382.6 419.95
L 382.6 422.55
Q 382.6 422.8 382.75 423 382.9 423.2 383.2 423.2
L 418 423.2
Q 418.2 423.2 418.4 423 418.6 422.75 418.6 422.55
L 418.6 419.95
M 412.45 405.8
Q 411.5 404.4 409.8 403.5 408.15 402.55 405.8 402.05 403.5 401.6 400.7 401.6 397.9 401.6 395.55 402.05 393.2 402.55 391.55 403.5 389.85 404.4 388.9 405.8 387.95 407.15 387.95 408.9 387.95 410.6 388.9 411.95 389.85 413.35 391.55 414.25 393.2 415.15 395.55 415.7 397.9 416.15 400.7 416.15 403.5 416.15 405.8 415.7 408.15 415.15 409.8 414.25 411.5 413.35 412.45 411.95 413.35 410.6 413.35 408.9 413.35 407.15 412.45 405.8
M 406.35 406.25
Q 407.4 406.75 408 407.4 408.55 408.1 408.55 408.9 408.55 409.7 408 410.35 407.4 411 406.35 411.5 405.3 411.95 403.85 412.25 402.4 412.5 400.7 412.5 398.95 412.5 397.5 412.25 396.05 411.95 395 411.5 393.95 411 393.35 410.35 392.75 409.7 392.75 408.9 392.75 408.1 393.35 407.4 393.95 406.75 395 406.25 396.05 405.8 397.5 405.5 398.95 405.25 400.7 405.25 402.4 405.25 403.85 405.5 405.3 405.8 406.35 406.25
M 374.5 404.8
Q 372.95 404.15 370.9 404.15 367.7 404.15 365.75 405.6 363.8 407.1 362.7 409.35 361.6 411.65 361.2 414.35 360.85 417.1 360.85 419.55 360.85 426.9 363.3 430.95 365.75 435 370.9 435 373.45 435 375.3 434 377.15 432.9 378.4 430.95 379.65 429 380.25 426.1 380.85 423.2 380.85 419.55 380.85 417.9 380.65 416.15 380.5 414.35 380.1 412.65 379.7 410.95 379 409.4 378.3 407.85 377.15 406.65 376.1 405.5 374.5 404.8
M 370.9 408.5
Q 372.1 408.5 373.15 409.1 374.15 409.65 374.9 410.95 375.6 412.3 376 414.4 376.35 416.55 376.35 419.55 376.35 422.65 376 424.8 375.6 426.9 374.9 428.2 374.15 429.55 373.15 430.1 372.1 430.7 370.9 430.7 369.6 430.7 368.6 430.1 367.6 429.55 366.9 428.2 366.15 426.9 365.8 424.8 365.4 422.65 365.4 419.55 365.4 416.55 365.8 414.4 366.15 412.3 366.9 410.95 367.6 409.65 368.6 409.1 369.6 408.5 370.9 408.5
M 351.25 404.8
Q 349.7 404.15 347.65 404.15 344.45 404.15 342.5 405.6 340.55 407.1 339.45 409.35 338.35 411.65 337.95 414.35 337.6 417.1 337.6 419.55 337.6 426.9 340.05 430.95 342.5 435 347.65 435 350.2 435 352.05 434 353.9 432.9 355.15 430.95 356.4 429 357 426.1 357.6 423.2 357.6 419.55 357.6 417.9 357.4 416.15 357.25 414.35 356.85 412.65 356.45 410.95 355.75 409.4 355.05 407.85 353.9 406.65 352.85 405.5 351.25 404.8
M 351.65 410.95
Q 352.35 412.3 352.75 414.4 353.1 416.55 353.1 419.55 353.1 422.65 352.75 424.8 352.35 426.9 351.65 428.2 350.9 429.55 349.9 430.1 348.85 430.7 347.65 430.7 346.35 430.7 345.35 430.1 344.35 429.55 343.65 428.2 342.9 426.9 342.55 424.8 342.15 422.65 342.15 419.55 342.15 416.55 342.55 414.4 342.9 412.3 343.65 410.95 344.35 409.65 345.35 409.1 346.35 408.5 347.65 408.5 348.85 408.5 349.9 409.1 350.9 409.65 351.65 410.95
M 314.7 414.35
Q 314.35 417.1 314.35 419.55 314.35 426.9 316.8 430.95 319.25 435 324.4 435 326.95 435 328.8 434 330.65 432.9 331.9 430.95 333.15 429 333.75 426.1 334.35 423.2 334.35 419.55 334.35 417.9 334.15 416.15 334 414.35 333.6 412.65 333.2 410.95 332.5 409.4 331.8 407.85 330.65 406.65 329.6 405.5 328 404.8 326.45 404.15 324.4 404.15 321.2 404.15 319.25 405.6 317.3 407.1 316.2 409.35 315.1 411.65 314.7 414.35
M 318.9 419.55
Q 318.9 416.55 319.3 414.4 319.65 412.3 320.4 410.95 321.1 409.65 322.1 409.1 323.1 408.5 324.4 408.5 325.6 408.5 326.65 409.1 327.65 409.65 328.4 410.95 329.1 412.3 329.5 414.4 329.85 416.55 329.85 419.55 329.85 422.65 329.5 424.8 329.1 426.9 328.4 428.2 327.65 429.55 326.65 430.1 325.6 430.7 324.4 430.7 323.1 430.7 322.1 430.1 321.1 429.55 320.4 428.2 319.65 426.9 319.3 424.8 318.9 422.65 318.9 419.55
M 311.1 419.55
Q 311.1 417.9 310.9 416.15 310.75 414.35 310.35 412.65 309.95 410.95 309.25 409.4 308.55 407.85 307.4 406.65 306.35 405.5 304.75 404.8 303.2 404.15 301.15 404.15 297.95 404.15 296 405.6 294.05 407.1 292.95 409.35 291.85 411.65 291.45 414.35 291.1 417.1 291.1 419.55 291.1 426.9 293.55 430.95 296 435 301.15 435 303.7 435 305.55 434 307.4 432.9 308.65 430.95 309.9 429 310.5 426.1 311.1 423.2 311.1 419.55
M 305.15 410.95
Q 305.85 412.3 306.25 414.4 306.6 416.55 306.6 419.55 306.6 422.65 306.25 424.8 305.85 426.9 305.15 428.2 304.4 429.55 303.4 430.1 302.35 430.7 301.15 430.7 299.85 430.7 298.85 430.1 297.85 429.55 297.15 428.2 296.4 426.9 296.05 424.8 295.65 422.65 295.65 419.55 295.65 416.55 296.05 414.4 296.4 412.3 297.15 410.95 297.85 409.65 298.85 409.1 299.85 408.5 301.15 408.5 302.35 408.5 303.4 409.1 304.4 409.65 305.15 410.95
M 280.75 405.5
Q 280.75 404.7 280.6 404.55 280.5 404.4 279.8 404.4
L 277.7 404.4
Q 277.55 404.4 277.35 404.5 277.15 404.55 277.1 404.65
L 270.95 410.3
Q 270.75 410.5 270.75 410.7 270.7 410.95 270.85 411.1
L 272.65 413.25
Q 272.8 413.4 273.05 413.35 273.3 413.35 273.55 413.2
L 276.5 410.6 276.5 434.3
Q 276.5 434.8 277.05 434.8
L 280.25 434.8
Q 280.75 434.8 280.75 434.3
L 280.75 405.5 Z"/>
</g>

<g id="fnfmf343434_copy_11_0_Layer1_0_FILL">
<path fill="#FFFFFF" stroke="none" d="
M 680 178.45
Q 680 163.45 665 163.45
L 535 163.45
Q 520 163.45 520 178.45
L 520 208.5
Q 520 223.5 535 223.5
L 665 223.5
Q 680 223.5 680 208.5
L 680 178.45 Z"/>
</g>

<g id="dvs434_0_Layer0_1_FILL">
<path fill="#FF7786" stroke="none" d="
M 10.75 -118.75
Q 10.75 -120.8 9.25 -122.25 7.85 -123.7 5.8 -123.7 3.75 -123.7 2.3 -122.25 0.85 -120.8 0.85 -118.75 0.85 -116.7 2.3 -115.3 3.75 -113.8 5.8 -113.8 7.85 -113.8 9.25 -115.3 10.75 -116.7 10.75 -118.75 Z"/>
</g>

<g id="dvs434_0_Layer0_2_FILL">
<path fill="#FF7786" stroke="none" d="
M 10.75 -118.75
Q 10.75 -120.8 9.25 -122.25 7.85 -123.7 5.8 -123.7 3.75 -123.7 2.3 -122.25 0.85 -120.8 0.85 -118.75 0.85 -116.7 2.3 -115.3 3.75 -113.8 5.8 -113.8 7.85 -113.8 9.25 -115.3 10.75 -116.7 10.75 -118.75 Z"/>
</g>

<g id="dvs434_0_Layer0_3_FILL">
<path fill="#FF7786" stroke="none" d="
M 10.75 -118.75
Q 10.75 -120.8 9.25 -122.25 7.85 -123.7 5.8 -123.7 3.75 -123.7 2.3 -122.25 0.85 -120.8 0.85 -118.75 0.85 -116.7 2.3 -115.3 3.75 -113.8 5.8 -113.8 7.85 -113.8 9.25 -115.3 10.75 -116.7 10.75 -118.75 Z"/>
</g>

<path id="fnfmf343434_copy_11_0_Layer1_0_1_STROKES" stroke="#DBDBDB" stroke-width="3" stroke-linejoin="round" stroke-linecap="round" fill="none" d="
M 535 163.45
L 665 163.45
Q 680 163.45 680 178.45
L 680 208.5
Q 680 223.5 665 223.5
L 535 223.5
Q 520 223.5 520 208.5
L 520 178.45
Q 520 163.45 535 163.45 Z"/>

<path id="dvs434_0_Layer0_0_1_STROKES" stroke="#FF7786" stroke-width="3" stroke-linejoin="round" stroke-linecap="round" fill="none" d="
M 11.05 105.25
L -18.25 105.25 -18.25 0.25 -18.25 -104.75 11.05 -104.75
M -18.25 0.25
L 11.05 0.25"/>
</defs>

<g transform="matrix( 1, 0, 0, 1, 0,0) ">
<use xlink:href="#Layer7_0_FILL"/>
</g>

<g transform="matrix( 1, 0, 0, 1, 753.15,305.8) ">
<g transform="matrix( 1, 0, 0, 1, -600,-193.45) ">
<use xlink:href="#fnfmf343434_copy_11_0_Layer1_0_FILL"/>

<use xlink:href="#fnfmf343434_copy_11_0_Layer1_0_1_STROKES"/>
</g>
</g>

<g transform="matrix( 1, 0, 0, 1, 753.15,410.8) ">
<g transform="matrix( 1, 0, 0, 1, -600,-193.45) ">
<use xlink:href="#fnfmf343434_copy_11_0_Layer1_0_FILL"/>

<use xlink:href="#fnfmf343434_copy_11_0_Layer1_0_1_STROKES"/>
</g>
</g>

<g transform="matrix( 1, 0, 0, 1, 753.15,515.8) ">
<g transform="matrix( 1, 0, 0, 1, -600,-193.45) ">
<use xlink:href="#fnfmf343434_copy_11_0_Layer1_0_FILL"/>

<use xlink:href="#fnfmf343434_copy_11_0_Layer1_0_1_STROKES"/>
</g>
</g>

<g transform="matrix( 1, 0, 0, 1, 458.8,409.9) ">
<g transform="matrix( 1, 0, 0, 1, 0,0) ">
<use xlink:href="#dvs434_0_Layer0_0_1_STROKES"/>
</g>

<g transform="matrix( 1, 0, 0, 1, 7.55,118.75) ">
<use xlink:href="#dvs434_0_Layer0_1_FILL"/>
</g>

<g transform="matrix( 1, 0, 0, 1, 7.55,13.75) ">
<use xlink:href="#dvs434_0_Layer0_2_FILL"/>
</g>

<g transform="matrix( 1, 0, 0, 1, 7.55,223.75) ">
<use xlink:href="#dvs434_0_Layer0_3_FILL"/>
</g>
</g>
</svg>
