<?xml version="1.0" encoding="utf-8"?>
<!-- Generator: Adobe Illustrator 23.1.0, SVG Export Plug-In . SVG Version: 6.00 Build 0)  -->
<svg version="1.1" id="레이어_1" xmlns="http://www.w3.org/2000/svg" xmlns:xlink="http://www.w3.org/1999/xlink" x="0px"
	 y="0px" width="1100px" height="263px" viewBox="0 0 1100 263" style="enable-background:new 0 0 1100 263;" xml:space="preserve">
<g>
	<g>
		<path style="fill:#C9C8BD;" d="M769.1,211.1L725,176.6c0,0-0.9,8.1,5.4,13.8s33.4,31.4,33.4,31.4s7.5-2.7,15.4,1.2
			c0.4-1.1,1.4-2.9,2.8-4.3L769.1,211.1z"/>
		<path style="fill:#E6E5DF;" d="M769.1,211.1L725,176.6c0,0,0,0.5,0,1.2l38.1,33.8C766.1,210.5,769.1,211.1,769.1,211.1"/>
		<path style="fill-rule:evenodd;clip-rule:evenodd;fill:#E60012;" d="M802,237.2c-3.6,2.3-8.4,1.2-10.7-2.4
			c-2.3-3.6-1.2-8.4,2.4-10.7c3.6-2.3,8.4-1.2,10.7,2.4S805.6,234.9,802,237.2 M793.6,218.4L793.6,218.4L793.6,218.4
			c-0.6,0.2-1.1,0.4-1.5,0.6c-5.3,1.8-9.3-1.2-9.3-1.2c-0.3,0.2-0.6,0.5-0.8,0.7c-1.5,1.4-2.4,3.3-2.8,4.3c-0.2,0.5-0.3,0.8-0.3,0.8
			c3.6,2.3,4.6,5.3,5.1,6.2c0.4,0.7,0.9,2.3,1.2,3.4c0.3,1.5,0.9,2.9,1.7,4.3c3.9,6,11.9,7.8,17.9,4c6-3.9,7.8-11.9,4-17.9
			C805.5,218.5,799.2,216.5,793.6,218.4"/>
		<rect x="684.9" y="1" style="fill:#F0DE91;" width="101.2" height="202.4"/>
		<rect x="720.6" y="22" transform="matrix(0.9225 -0.3861 0.3861 0.9225 11.0039 287.5045)" width="1.4" height="188.7"/>
	</g>
	<g>
		<path style="fill:#DBDAD1;" d="M761.4,216l-12.7-54.5c0,0,7.8,2.6,10.3,10.7c2.5,8.1,14.4,43.5,14.4,43.5s-5.6,5.7-5.4,14.5
			c-1.1,0-3.2,0-5.1,0.7L761.4,216z"/>
		<path style="fill:#EEEEE9;" d="M761.4,216l-12.7-54.5c0,0,0.4,0.2,1.1,0.5l14.6,48.8C762.2,213,761.4,216,761.4,216"/>
		<path style="fill-rule:evenodd;clip-rule:evenodd;fill:#E60012;" d="M760.5,254.5c-2.3-3.6-1.2-8.4,2.4-10.7s8.4-1.2,10.7,2.4
			c2.3,3.6,1.2,8.4-2.4,10.7C767.6,259.1,762.9,258.1,760.5,254.5 M756.2,257.3c3.8,6,11.9,7.8,17.9,4s7.8-11.9,4-17.9
			c-0.9-1.4-1.9-2.5-3.2-3.4c-0.8-0.7-2-1.9-2.5-2.5c-0.6-0.8-3-3-3.5-7.2c0,0-0.3,0-0.9-0.1c-1.1,0-3.2,0-5.1,0.7
			c-0.3,0.1-0.7,0.3-1,0.4c0,0,1,4.9-2.9,8.9c-0.4,0.3-0.8,0.7-1.2,1.1c0,0,0,0-0.1,0.1l0,0C753.7,245.5,752.9,252.1,756.2,257.3"/>
		<path style="fill:#EEEEE9;" d="M764.6,216.8c0.7,1.2,2.3,1.5,3.4,0.8c1.1-0.7,1.5-2.3,0.8-3.4c-0.7-1.2-2.3-1.5-3.4-0.8
			C764.2,214.2,763.8,215.7,764.6,216.8"/>
		<path style="fill:#DBDAD1;" d="M766.2,215.4c-0.2,1,0,1.9,0,1.9s0.6-0.7,0.8-1.7c0.2-1,0-1.9,0-1.9S766.5,214.4,766.2,215.4"/>
	</g>
</g>
</svg>
