<?xml version="1.0" encoding="utf-8"?>
<!-- Generator: Adobe Illustrator 23.1.0, SVG Export Plug-In . SVG Version: 6.00 Build 0)  -->
<svg version="1.1" id="Layer_1" xmlns="http://www.w3.org/2000/svg" xmlns:xlink="http://www.w3.org/1999/xlink" x="0px" y="0px"
	 width="300px" height="235px" viewBox="0 0 300 235" style="enable-background:new 0 0 300 235;" xml:space="preserve">
<g>
	<g>
		<path style="fill:#F1DECA;" d="M236.7,71.4l-30.2-58.8c0,0-4.1-10.6-15.5-10.6h-85.2C94.4,2,90.3,12.6,90.3,12.6L60.1,71.4H236.7z
			"/>
	</g>
	<g>
		<path d="M153.7,12.9c0.5,0,0.9,0.1,1.3,0.3s0.7,0.4,1,0.7s0.5,0.6,0.6,1s0.2,0.8,0.2,1.2c0,0.4-0.1,0.8-0.2,1.2s-0.4,0.7-0.6,1
			c-0.3,0.3-0.6,0.5-1,0.7s-0.8,0.3-1.3,0.3s-0.9-0.1-1.3-0.3c-0.4-0.2-0.7-0.4-1-0.7c-0.3-0.3-0.5-0.6-0.6-1s-0.2-0.8-0.2-1.2
			c0-0.4,0.1-0.8,0.2-1.2c0.1-0.4,0.4-0.7,0.6-1c0.3-0.3,0.6-0.5,1-0.7C152.8,13,153.3,12.9,153.7,12.9z M153.7,14.3
			c-0.5,0-0.9,0.2-1.1,0.5c-0.3,0.3-0.4,0.7-0.4,1.2c0,0.4,0.1,0.8,0.4,1.1c0.3,0.3,0.7,0.5,1.1,0.5s0.9-0.2,1.1-0.5
			c0.3-0.3,0.4-0.7,0.4-1.1c0-0.5-0.1-0.8-0.4-1.2C154.6,14.5,154.2,14.3,153.7,14.3z"/>
		<g>
			<path d="M126.2,13.1c1,0,1.8,0.1,2.6,0.4s1.3,0.6,1.8,1c0.5,0.4,0.9,0.9,1.1,1.5s0.4,1.2,0.4,1.8v0.1c0,0.4-0.1,0.9-0.2,1.3
				c-0.1,0.4-0.3,0.8-0.6,1.2c-0.3,0.4-0.6,0.7-1,1c-0.4,0.3-0.9,0.5-1.4,0.7c0.5,0.1,1.1,0.2,1.5,0.4c0.5,0.2,0.9,0.5,1.2,0.8
				c0.4,0.3,0.6,0.8,0.8,1.2c0.2,0.5,0.3,1,0.3,1.7v0.3c0,0.7-0.1,1.4-0.4,2c-0.3,0.7-0.7,1.2-1.2,1.7c-0.5,0.5-1.2,0.9-2,1.2
				c-0.8,0.3-1.8,0.4-2.8,0.4c-2.1,0-3.8-0.5-5.3-1.5c-0.3-0.2-0.5-0.5-0.6-0.8c-0.1-0.3,0-0.6,0.2-0.9c0.2-0.3,0.4-0.5,0.7-0.6
				c0.3-0.1,0.6,0,0.9,0.2c0.6,0.4,1.3,0.7,1.9,0.9c0.6,0.2,1.3,0.3,2,0.3c0.7,0,1.3-0.1,1.8-0.3s0.9-0.4,1.2-0.7s0.5-0.6,0.7-1
				c0.1-0.4,0.2-0.8,0.2-1.2v-0.2c0-0.6-0.1-1-0.3-1.4c-0.2-0.4-0.5-0.7-0.8-0.9s-0.8-0.4-1.3-0.5c-0.5-0.1-1-0.2-1.6-0.2h-1.5
				c-0.3,0-0.6-0.1-0.7-0.3c-0.1-0.2-0.2-0.5-0.2-0.8s0.1-0.6,0.2-0.8c0.1-0.2,0.4-0.3,0.7-0.3h1.3c1,0,1.9-0.2,2.6-0.7
				c0.7-0.5,1-1.2,1-2.3v-0.1c0-0.8-0.3-1.4-0.8-1.9c-0.6-0.5-1.4-0.7-2.5-0.7c-0.7,0-1.3,0.1-1.9,0.4c-0.5,0.3-1,0.6-1.4,1.1
				c-0.2,0.2-0.5,0.3-0.8,0.3c-0.3,0-0.6-0.2-0.8-0.4c-0.2-0.2-0.3-0.5-0.3-0.8c0-0.3,0.1-0.5,0.3-0.8c0.5-0.6,1.2-1.1,2-1.5
				C124.2,13.3,125.1,13.1,126.2,13.1z"/>
			<path d="M142.3,13.1c2.3,0,4,0.8,5,2.3c1,1.5,1.6,3.7,1.6,6.5v1.3c0,2.8-0.5,5-1.6,6.5c-1,1.5-2.7,2.3-5,2.3c-2.3,0-4-0.8-5-2.3
				c-1-1.5-1.6-3.7-1.6-6.5v-1.3c0-2.8,0.5-5,1.6-6.5C138.4,13.8,140,13.1,142.3,13.1z M142.3,15.5c-0.8,0-1.4,0.1-1.9,0.4
				c-0.5,0.3-0.9,0.7-1.2,1.2c-0.3,0.5-0.5,1.2-0.7,2c-0.1,0.8-0.2,1.8-0.2,3v0.8c0,1.1,0.1,2.1,0.2,3c0.1,0.8,0.3,1.5,0.7,2
				c0.3,0.5,0.7,0.9,1.2,1.2c0.5,0.3,1.1,0.4,1.9,0.4c0.8,0,1.4-0.1,1.9-0.4c0.5-0.3,0.9-0.7,1.2-1.2c0.3-0.5,0.5-1.2,0.7-2
				c0.1-0.8,0.2-1.8,0.2-3v-0.8c0-1.1-0.1-2.1-0.2-3c-0.1-0.8-0.3-1.5-0.7-2c-0.3-0.5-0.7-0.9-1.2-1.2
				C143.7,15.6,143.1,15.5,142.3,15.5z"/>
		</g>
	</g>
	<path style="fill:#FFFFFF;" d="M162.7,32.9l3.6,2.1 M168.9,16.3l8.6,5 M171.3,32.6l7.3-12.6c0.9-1.6,0.4-3.6-1.2-4.5l-2.9-1.7
		c-1.6-0.9-3.6-0.4-4.5,1.2l-7.3,12.6c-0.2,0.4-0.1,0.9,0.3,1.1l7.2,4.2C170.5,33.1,171,33,171.3,32.6 M170,32.7l-5.2,3.3
		c-1,0.5-2.2-0.2-2.2-1.3l0.2-6.1"/>
	<path style="fill:#F8B500;" d="M177.6,21.5l0.9-1.5c0.9-1.6,0.4-3.6-1.2-4.5l-2.9-1.7c-1.6-0.9-3.6-0.4-4.5,1.2l-0.9,1.5
		L177.6,21.5z"/>
	<path style="fill:#F8B500;" d="M162.6,33l-0.1,1.6c0.1,1.1,1.2,1.8,2.2,1.3l1.7-1L162.6,33z"/>
	<path style="fill:none;stroke:#000000;stroke-miterlimit:10;" d="M162.7,32.9l3.6,2.1 M168.9,16.3l8.6,5 M171.3,32.6l7.3-12.6
		c0.9-1.6,0.4-3.6-1.2-4.5l-2.9-1.7c-1.6-0.9-3.6-0.4-4.5,1.2l-7.3,12.6c-0.2,0.4-0.1,0.9,0.3,1.1l7.2,4.2
		C170.5,33.1,171,33,171.3,32.6z M170,32.7l-5.2,3.3c-1,0.5-2.2-0.2-2.2-1.3l0.2-6.1"/>
	<path style="fill:#FFFFFF;" d="M6.6,127.9v95.9c0,0,0,7.4,7.2,7.4h274.6c0,0,7.2,0,7.2-7.4V52.9c0,0,0-7.4-7.2-7.4H13.9
		c0,0-7.2,0-7.2,7.4v8.5 M6.7,78.8V87 M6.7,102.5v8.5"/>
	<path style="fill:none;stroke:#F1DECA;stroke-width:3;stroke-linecap:round;stroke-linejoin:round;" d="M6.6,127.9v95.9
		c0,0,0,7.4,7.2,7.4h274.6c0,0,7.2,0,7.2-7.4V52.9c0,0,0-7.4-7.2-7.4H13.9c0,0-7.2,0-7.2,7.4v8.5 M6.7,78.8V87 M6.7,102.5v8.5"/>
	<path style="fill:none;stroke:#F1DECA;stroke-width:2.803;stroke-linecap:round;stroke-linejoin:round;" d="M2,69.9h9.5 M2,94.9
		h9.5 M2,119.3h9.5"/>
</g>
</svg>
