
<svg xmlns="http://www.w3.org/2000/svg" version="1.1" xmlns:xlink="http://www.w3.org/1999/xlink" preserveAspectRatio="none" x="0px" y="0px" width="1280px" height="720px" viewBox="0 0 1280 720">
<defs>
<g id="Layer1_0_FILL">
<path fill="#000000" stroke="none" d="
M 524.85 474.2
Q 524.5 474.2 524.3 474.35 524.15 474.5 524.15 474.9
L 524.15 508.05
Q 524.15 508.45 524.3 508.6 524.5 508.7 524.85 508.7
L 528.5 508.7
Q 528.9 508.7 529.05 508.6 529.15 508.45 529.15 508.05
L 529.15 491.25 533.6 491.25
Q 533.95 491.25 534.15 491.15 534.35 491 534.35 490.6
L 534.35 487.85
Q 534.35 487.35 534.15 487.25 533.95 487.15 533.6 487.15
L 529.15 487.15 529.15 474.9
Q 529.15 474.5 529.05 474.35 528.9 474.2 528.5 474.2
L 524.85 474.2
M 504.25 476.85
Q 503.85 476.85 503.7 477 503.55 477.1 503.55 477.55
L 503.55 480.25
Q 503.55 480.65 503.65 480.8 503.75 480.95 504.25 480.95
L 514.3 480.95
Q 514.95 480.95 514.85 481.7 514.2 486.45 511.05 490.4 507.9 494.45 502.45 497.5 502.15 497.65 502.05 498 502 498.3 502.25 498.65
L 503.9 501.2
Q 504.2 501.6 504.5 501.6 504.75 501.6 505.25 501.3 508.6 499.45 511.25 497.1 513.95 494.75 515.85 492 517.8 489.3 518.85 486.2 520 483.15 520.2 479.9 520.3 478.35 519.7 477.6 519.15 476.85 517.35 476.85
L 504.25 476.85 Z"/>

<path fill="#1E1E1E" stroke="none" d="
M 311.85 558.75
Q 311.5 558.75 311.2 558.9 310.95 559 310.95 559.8
L 310.95 564.1
Q 310.95 564.7 311.2 564.85 311.5 565.05 311.85 565.05
L 328.85 565.05
Q 329.45 565.05 329.45 565.85
L 329.45 579.65
Q 329.45 580.75 330.4 580.75
L 334.7 580.75
Q 335.55 580.75 335.55 579.65
L 335.55 562.9
Q 335.55 561.75 335.45 560.95 335.3 560.1 334.95 559.65 334.65 559.15 334.05 558.95 333.45 558.75 332.5 558.75
L 311.85 558.75 Z"/>

<path fill="#4BAEF3" stroke="none" d="
M 235.35 321.55
L 211.55 321.55
Q 201.05 321.55 201.05 332.05
L 201.05 352.05
Q 201.05 362.55 211.55 362.55
L 235.35 362.55
Q 245.85 362.55 245.85 352.05
L 245.85 332.05
Q 245.85 321.55 235.35 321.55
M 220.75 333.35
Q 221.15 333.6 221.55 333.95 221.95 334.3 222.25 334.7 222.4 334.9 222.5 335.15 222.65 335.4 222.75 335.65
L 225 335.65 225 332.95
Q 225 332.3 225.4 332.1 225.6 332 225.85 331.95 226.05 331.85 226.3 331.85 226.6 331.85 226.85 331.95 227.15 332 227.35 332.1 227.75 332.3 227.75 332.95
L 227.75 349.95
Q 227.75 350.2 227.65 350.45 227.55 350.65 227.35 350.8 227.15 350.9 226.85 351 226.6 351.05 226.3 351.05 226.05 351.05 225.85 351 225.6 350.9 225.4 350.8 225.2 350.65 225.1 350.45 225 350.2 225 349.95
L 225 343.4 222.85 343.4
Q 222.7 343.7 222.55 344 222.4 344.25 222.25 344.5 221.6 345.35 220.75 345.8 219.9 346.3 218.8 346.3 218.3 346.3 217.85 346.15 217.35 346.05 216.9 345.8 216.5 345.6 216.15 345.25 215.8 344.95 215.5 344.5 215.2 344.05 214.95 343.55 214.7 343.05 214.55 342.4 214.35 341.8 214.3 341.1 214.2 340.4 214.2 339.6 214.2 338.8 214.3 338.1 214.35 337.4 214.55 336.75 214.7 336.15 214.95 335.65 215.2 335.15 215.5 334.7 215.8 334.3 216.15 333.95 216.5 333.6 216.9 333.35 217.35 333.15 217.85 333 218.3 332.9 218.8 332.9 219.9 332.9 220.75 333.35
M 231.15 332.05
Q 231.25 332.25 231.25 332.55
L 231.25 350.55
Q 231.25 351.15 230.85 351.4 230.65 351.5 230.4 351.55 230.1 351.6 229.8 351.6 229.55 351.6 229.35 351.55 229.1 351.5 228.95 351.4 228.55 351.15 228.55 350.55
L 228.55 332.55
Q 228.55 332.25 228.65 332.05 228.75 331.85 228.95 331.7 229.1 331.6 229.35 331.55 229.55 331.45 229.8 331.45 230.1 331.45 230.4 331.55 230.65 331.6 230.85 331.7 231.05 331.85 231.15 332.05
M 223.45 339.6
Q 223.45 339.9 223.45 340.2 223.45 340.5 223.4 340.8
L 225 340.8 225 338.2 223.4 338.2
Q 223.4 338.55 223.45 338.9 223.45 339.25 223.45 339.6
M 220.6 337.85
Q 220.5 337.1 220.25 336.55 219.95 336.05 219.6 335.75 219.25 335.5 218.85 335.5 218.4 335.5 218 335.75 217.65 336.05 217.4 336.55 216.9 337.65 216.9 339.6 216.9 340.55 217 341.3 217.15 342.05 217.4 342.6 217.65 343.15 218 343.4 218.4 343.7 218.85 343.7 219.25 343.7 219.6 343.4 219.95 343.15 220.25 342.6 220.5 342.05 220.6 341.3 220.75 340.55 220.75 339.6 220.75 338.65 220.6 337.85 Z"/>

<path fill="#FFFFFF" stroke="none" d="
M 231.25 332.55
Q 231.25 332.25 231.15 332.05 231.05 331.85 230.85 331.7 230.65 331.6 230.4 331.55 230.1 331.45 229.8 331.45 229.55 331.45 229.35 331.55 229.1 331.6 228.95 331.7 228.75 331.85 228.65 332.05 228.55 332.25 228.55 332.55
L 228.55 350.55
Q 228.55 351.15 228.95 351.4 229.1 351.5 229.35 351.55 229.55 351.6 229.8 351.6 230.1 351.6 230.4 351.55 230.65 351.5 230.85 351.4 231.25 351.15 231.25 350.55
L 231.25 332.55
M 221.55 333.95
Q 221.15 333.6 220.75 333.35 219.9 332.9 218.8 332.9 218.3 332.9 217.85 333 217.35 333.15 216.9 333.35 216.5 333.6 216.15 333.95 215.8 334.3 215.5 334.7 215.2 335.15 214.95 335.65 214.7 336.15 214.55 336.75 214.35 337.4 214.3 338.1 214.2 338.8 214.2 339.6 214.2 340.4 214.3 341.1 214.35 341.8 214.55 342.4 214.7 343.05 214.95 343.55 215.2 344.05 215.5 344.5 215.8 344.95 216.15 345.25 216.5 345.6 216.9 345.8 217.35 346.05 217.85 346.15 218.3 346.3 218.8 346.3 219.9 346.3 220.75 345.8 221.6 345.35 222.25 344.5 222.4 344.25 222.55 344 222.7 343.7 222.85 343.4
L 225 343.4 225 349.95
Q 225 350.2 225.1 350.45 225.2 350.65 225.4 350.8 225.6 350.9 225.85 351 226.05 351.05 226.3 351.05 226.6 351.05 226.85 351 227.15 350.9 227.35 350.8 227.55 350.65 227.65 350.45 227.75 350.2 227.75 349.95
L 227.75 332.95
Q 227.75 332.3 227.35 332.1 227.15 332 226.85 331.95 226.6 331.85 226.3 331.85 226.05 331.85 225.85 331.95 225.6 332 225.4 332.1 225 332.3 225 332.95
L 225 335.65 222.75 335.65
Q 222.65 335.4 222.5 335.15 222.4 334.9 222.25 334.7 221.95 334.3 221.55 333.95
M 220.25 336.55
Q 220.5 337.1 220.6 337.85 220.75 338.65 220.75 339.6 220.75 340.55 220.6 341.3 220.5 342.05 220.25 342.6 219.95 343.15 219.6 343.4 219.25 343.7 218.85 343.7 218.4 343.7 218 343.4 217.65 343.15 217.4 342.6 217.15 342.05 217 341.3 216.9 340.55 216.9 339.6 216.9 337.65 217.4 336.55 217.65 336.05 218 335.75 218.4 335.5 218.85 335.5 219.25 335.5 219.6 335.75 219.95 336.05 220.25 336.55
M 223.45 340.2
Q 223.45 339.9 223.45 339.6 223.45 339.25 223.45 338.9 223.4 338.55 223.4 338.2
L 225 338.2 225 340.8 223.4 340.8
Q 223.45 340.5 223.45 340.2 Z"/>
</g>

<g id="Layer1_4_FILL">
<path fill="#1E1E1E" stroke="none" d="
M 622.2 389.1
Q 622.2 385.8 619.85 383.45 617.5 381.1 614.2 381.1 610.9 381.1 608.55 383.45 606.2 385.8 606.2 389.1 606.2 392.4 608.55 394.75 610.9 397.1 614.2 397.1 617.5 397.1 619.85 394.75 622.2 392.4 622.2 389.1 Z"/>
</g>

<path id="Layer1_1_1_STROKES" stroke="#3567D7" stroke-width="3" stroke-linejoin="round" stroke-linecap="butt" fill="none" d="
M 197.70456237792968 490.01319580078126
L 448.9587463378907 592.8404525756836"/>

<path id="Layer1_2_1_STROKES" stroke="#BBDECB" stroke-width="5" stroke-linejoin="round" stroke-linecap="butt" fill="none" d="
M 740.85 297.6
L 1086.85 297.6
Q 1090.25 297.6 1092.85 298.35 1101.55 300.9 1101.85 311.9
L 1101.85 608.6
Q 1101.85 623.6 1086.85 623.6
L 740.85 623.6
Q 725.85 623.6 725.85 608.6
L 725.85 312.6
Q 725.85 297.6 740.85 297.6 Z"/>

<path id="Layer1_3_1_STROKES" stroke="#332D2B" stroke-width="3" stroke-linejoin="round" stroke-linecap="butt" fill="none" d="
M 241.93624267578127 382.3979736328125
L 492.96242828369145 485.22523040771483"/>
</defs>

<g transform="matrix( 1, 0, 0, 1, 0,0) ">
<use xlink:href="#Layer1_0_FILL"/>
</g>

<g transform="matrix( 4.559967041015625, 0, 0, 4.559967041015625, -277.9,378.75) ">
<use xlink:href="#Layer1_1_1_STROKES" transform="matrix( 0.21929931640625, 0, 0, 0.21929931640625, 60.9,-83.05) "/>
</g>

<g transform="matrix( 1, 0, 0, 1, -547.65,3) ">
<use xlink:href="#Layer1_2_1_STROKES"/>
</g>

<g transform="matrix( 4.559967041015625, 0, 0, 4.559967041015625, -277.9,378.75) ">
<use xlink:href="#Layer1_3_1_STROKES" transform="matrix( 0.21929931640625, 0, 0, 0.21929931640625, 60.9,-83.05) "/>
</g>

<g transform="matrix( 0.7999725341796875, 0, 0, 0.79998779296875, -168.1,231) ">
<use xlink:href="#Layer1_4_FILL"/>
</g>
</svg>
