
<svg xmlns="http://www.w3.org/2000/svg" version="1.1" xmlns:xlink="http://www.w3.org/1999/xlink" preserveAspectRatio="none" x="0px" y="0px" width="319px" height="141px" viewBox="0 0 319 141">
<defs>
<filter id="Filter_1" x="-20%" y="-20%" width="140%" height="140%" color-interpolation-filters="sRGB">
<feColorMatrix in="SourceGraphic" type="matrix" values="1 0 0 0 0 0 1 0 0 0 0 0 1 0 0 0 0 0 0.7 0" result="result1"/>
</filter>

<g id="Duplicate_Items_Folder_bs43434_0_Layer4_0_FILL">
<path fill="#569ECC" fill-opacity="0.14901960784313725" stroke="none" d="
M 141.6 -23.65
Q 126.4 -38.85 104.95 -38.85
L -104.95 -38.85
Q -126.4 -38.85 -141.6 -23.65 -156.8 -8.5 -156.8 13
L -156.8 13.05
Q -156.8 34.5 -141.6 49.7 -126.4 64.9 -104.95 64.9
L 104.95 64.9
Q 126.4 64.9 141.6 49.7 156.8 34.5 156.8 13.05
L 156.8 13
Q 156.8 -8.5 141.6 -23.65 Z"/>
</g>

<g id="Duplicate_Items_Folder_bs43434_0_Layer3_0_FILL">
<path fill="#FFFFFF" stroke="none" d="
M 141.6 -36.65
Q 126.4 -51.85 104.95 -51.85
L -104.95 -51.85
Q -126.4 -51.85 -141.6 -36.65 -156.8 -21.5 -156.8 0
L -156.8 0.05
Q -156.8 21.5 -141.6 36.7 -126.4 51.9 -104.95 51.9
L 104.95 51.9
Q 126.4 51.9 141.6 36.7 156.8 21.5 156.8 0.05
L 156.8 0
Q 156.8 -21.5 141.6 -36.65 Z"/>
</g>

<g id="Mask_Duplicate_Items_Folder_bs43434_0_2_MASK_0_FILL">
<path fill="#FFFFFF" stroke="none" d="
M 141.6 -36.65
Q 126.4 -51.85 104.95 -51.85
L -104.95 -51.85
Q -126.4 -51.85 -141.6 -36.65 -156.8 -21.5 -156.8 0
L -156.8 0.05
Q -156.8 21.5 -141.6 36.7 -126.4 51.9 -104.95 51.9
L 104.95 51.9
Q 126.4 51.9 141.6 36.7 156.8 21.5 156.8 0.05
L 156.8 0
Q 156.8 -21.5 141.6 -36.65 Z"/>
</g>

<g id="Duplicate_Items_Folder_fbd33535_0_Layer0_0_FILL">
<path fill="#D2E4F0" stroke="none" d="
M 410.75 133.75
Q 411.5 136.45 413.95 137.8 416.4 139.3 419.15 138.6 421.85 137.9 423.25 135.35 424.65 132.9 423.9 130.2 423.2 127.4 420.8 126.05 418.35 124.7 415.6 125.35 412.9 126.1 411.45 128.5 410.05 130.95 410.75 133.75
M 388.25 112.6
Q 387.85 113.35 388.1 114.25
L 390.5 123.3
Q 390.75 124.2 391.5 124.7 392.2 125.05 393.1 124.85
L 434.8 113.65
Q 435.7 113.4 436.15 112.7 436.55 111.95 436.35 111.05
L 433.9 102
Q 433.65 101.1 432.95 100.65 432.2 100.25 431.3 100.5
L 389.6 111.7
Q 388.7 111.95 388.25 112.6
M 413.05 97.25
Q 414.45 94.8 413.75 92.1 413 89.35 410.55 87.95 408.15 86.55 405.4 87.25 402.7 88 401.25 90.45 399.85 92.9 400.6 95.6 401.3 98.3 403.75 99.75 406.25 101.25 408.95 100.55 411.7 99.85 413.05 97.25 Z"/>
</g>

<g id="Duplicate_Items_Folder_fbd33535_0_Layer0_1_FILL">
<path fill="#D2E4F0" stroke="none" d="
M 116.85 -32.35
L 111 -38.25
Q 110.55 -38.65 109.9 -38.65 109.2 -38.65 108.7 -38.25
L 105.35 -34.8
Q 104.95 -34.3 104.95 -33.65 104.95 -33.05 105.35 -32.6
L 111.2 -26.75 105.35 -20.8
Q 104.95 -20.3 104.95 -19.65 104.95 -19 105.35 -18.5
L 108.7 -15.25
Q 109.2 -14.75 109.9 -14.75 110.55 -14.75 111 -15.25
L 116.85 -21.1 122.7 -15.25
Q 123.3 -14.75 123.85 -14.75 124.55 -14.75 125 -15.25
L 128.3 -18.5
Q 128.85 -19 128.85 -19.65 128.85 -20.3 128.3 -20.8
L 122.5 -26.75 128.3 -32.6
Q 128.85 -33.05 128.85 -33.65 128.85 -34.3 128.3 -34.8
L 125 -38.25
Q 124.55 -38.65 123.85 -38.65 123.3 -38.65 122.7 -38.25
L 116.85 -32.35 Z"/>
</g>

<g id="Duplicate_Items_Folder_fbd33535_0_Layer0_2_FILL">
<path fill="#D2E4F0" stroke="none" d="
M -211.85 69.05
L -211.85 57
Q -211.85 56 -212.45 55.45 -213 54.85 -213.8 54.75 -213.95 54.75 -214.05 54.75
L -220.85 54.75
Q -221.7 54.75 -222.4 55.45 -223.1 56.15 -223.1 57
L -223.1 69.05 -235.2 69.05
Q -236 69.05 -236.7 69.75 -237.4 70.45 -237.4 71.3
L -237.4 78.1
Q -237.4 79.15 -236.7 79.75 -236.1 80.35 -235.2 80.35
L -223.1 80.35 -223.1 92.4
Q -223.1 93.5 -222.4 94.05 -221.7 94.65 -220.85 94.65
L -214.05 94.65
Q -213.95 94.65 -213.8 94.65 -213 94.5 -212.45 94.05 -211.85 93.5 -211.85 92.4
L -211.85 80.35 -199.75 80.35
Q -198.8 80.35 -198.1 79.75 -197.5 79.15 -197.5 78.1
L -197.5 71.3
Q -197.5 70.35 -198.1 69.75 -198.8 69.05 -199.75 69.05
L -211.85 69.05 Z"/>
</g>

<g id="Duplicate_Items_Folder_fbd33535_0_Layer0_3_FILL">
<path fill="#D2E4F0" stroke="none" d="
M -102.2 -27
Q -100.1 -29.1 -100.1 -32.05 -100.1 -34.95 -102.2 -37.05 -104.3 -39.2 -107.25 -39.2 -110.2 -39.2 -112.3 -37.05 -114.4 -34.95 -114.4 -32.05 -114.4 -29.1 -112.3 -27 -110.2 -24.9 -107.25 -24.9 -104.3 -24.9 -102.2 -27 Z"/>
</g>

<g id="Duplicate_Items_Folder_fbd33535_0_Layer0_4_FILL">
<path fill="#D2E4F0" stroke="none" d="
M -102.2 -27
Q -100.1 -29.1 -100.1 -32.05 -100.1 -34.95 -102.2 -37.05 -104.3 -39.2 -107.25 -39.2 -110.2 -39.2 -112.3 -37.05 -114.4 -34.95 -114.4 -32.05 -114.4 -29.1 -112.3 -27 -110.2 -24.9 -107.25 -24.9 -104.3 -24.9 -102.2 -27 Z"/>
</g>

<g id="Duplicate_Items_Folder_fbd33535_0_Layer0_5_FILL">
<path fill="#D2E4F0" stroke="none" d="
M -102.2 -27
Q -100.1 -29.1 -100.1 -32.05 -100.1 -34.95 -102.2 -37.05 -104.3 -39.2 -107.25 -39.2 -110.2 -39.2 -112.3 -37.05 -114.4 -34.95 -114.4 -32.05 -114.4 -29.1 -112.3 -27 -110.2 -24.9 -107.25 -24.9 -104.3 -24.9 -102.2 -27 Z"/>
</g>

<g id="Duplicate_Items_Folder_fbd343434_0_Layer0_0_FILL">
<path fill="#234F6B" stroke="none" d="
M 59.25 27.65
Q 56.85 27.65 54.95 28.1 53 28.5 51.6 29.3 50.2 30.1 49.45 31.2 48.7 32.25 48.7 33.55 48.7 34.95 49.45 36.05 50.2 37.15 51.6 37.95 53 38.75 54.95 39.15 56.85 39.6 59.25 39.6 61.5 39.6 63.45 39.15 65.45 38.7 66.9 37.9 68.3 37.15 69.15 36 70 34.95 70 33.55 70 32.25 69.15 31.1 68.3 30.05 66.9 29.25 65.45 28.5 63.45 28.05 61.5 27.65 59.25 27.65
M 59.25 36
Q 56.55 36 55.1 35.3 53.65 34.65 53.65 33.65 53.65 32.65 55.1 31.95 56.55 31.2 59.25 31.2 61.8 31.2 63.4 31.95 65 32.65 65 33.65 65 34.65 63.45 35.3 61.9 36 59.25 36
M 44.45 20.8
Q 44.45 22.1 45.05 23.15 45.7 24.2 46.7 25 47.75 25.75 49.15 26.15 50.5 26.55 52.05 26.55 53.6 26.55 55 26.15 56.45 25.75 57.5 25 58.55 24.2 59.15 23.15 59.75 22.1 59.75 20.8 59.75 19.5 59.15 18.45 58.55 17.4 57.45 16.65 56.45 15.9 55 15.5 53.6 15.05 52.1 15.05 50.55 15.05 49.15 15.5 47.8 15.9 46.7 16.65 45.7 17.4 45.05 18.45 44.45 19.5 44.45 20.8
M 49.8 22.3
Q 48.95 21.6 48.95 20.8 48.95 20 49.8 19.35 50.6 18.7 52.1 18.7 53.6 18.7 54.4 19.35 55.2 20 55.2 20.8 55.2 21.65 54.35 22.3 53.55 23 52.1 23 50.6 23 49.8 22.3
M 56.55 9.4
Q 57 9.4 57.15 9.2 57.3 9 57.3 8.6
L 57.3 6.65
Q 57.3 5.9 56.55 5.9
L 47.8 5.9
Q 47.5 5.9 47.25 6.05 47.05 6.15 47.05 6.6
L 47.05 8.65
Q 47.05 9.1 47.25 9.25 47.5 9.4 47.8 9.4
L 56.55 9.4
M 69.6 6.5
Q 69.6 6.2 69.55 6.05 69.45 5.85 69 5.85
L 65.5 5.85
Q 65.2 5.85 65 5.95 64.8 6.05 64.8 6.5
L 64.8 15.35 61.5 15.35
Q 61.2 15.35 61 15.45 60.8 15.55 60.8 16
L 60.8 18.35
Q 60.8 19.05 61.5 19.05
L 64.8 19.05 64.8 20.95 61.5 20.95
Q 61.2 20.95 61 21.05 60.8 21.15 60.8 21.6
L 60.8 24
Q 60.8 24.4 60.95 24.5 61.15 24.7 61.5 24.7
L 64.8 24.7 64.8 26.1
Q 64.8 26.75 65.45 26.75
L 68.95 26.75
Q 69.6 26.75 69.6 26.05
L 69.6 6.5
M 61.75 11.45
Q 61.75 10.7 61.05 10.7
L 43.05 10.7
Q 42.25 10.7 42.25 11.45
L 42.25 13.45
Q 42.25 14.15 43 14.15
L 61.05 14.15
Q 61.75 14.15 61.75 13.45
L 61.75 11.45
M 14.05 30.6
Q 14.25 30.7 14.5 30.7
L 29.9 30.7
Q 30.4 30.7 30.4 31.2
L 30.4 38.65
Q 30.4 39.35 31.2 39.35
L 34.6 39.35
Q 35.3 39.35 35.3 38.65
L 35.3 29.35
Q 35.3 28.6 35.2 28.1 35.1 27.6 34.8 27.25 34.55 26.95 34.05 26.85 33.6 26.7 32.8 26.7
L 14.5 26.7
Q 14.25 26.7 14.05 26.8 13.85 26.9 13.85 27.35
L 13.85 30.1
Q 13.85 30.5 14.05 30.6
M 20.65 11.55
Q 20.7 11.7 20.6 12.1 19.65 15.1 17 17.45 14.3 19.8 9.75 21.75 9.25 21.95 9.2 22.1 9.15 22.25 9.3 22.65
L 10.55 25.4
Q 10.75 25.75 11 25.7 11.25 25.65 11.65 25.5 15 24.25 17.65 22.45 20.3 20.6 22.15 18.5 23.95 16.4 24.95 14.15 25.95 11.95 25.95 9.8 25.95 8.45 25.35 7.95 24.75 7.4 23.2 7.4
L 11.2 7.4
Q 10.8 7.4 10.65 7.55 10.5 7.7 10.5 8.1
L 10.5 10.6
Q 10.5 10.9 10.6 11.1 10.7 11.35 11.15 11.35
L 20 11.35
Q 20.6 11.35 20.65 11.55
M 35.3 6.5
Q 35.3 6.1 35.2 6 35.1 5.85 34.7 5.85
L 31.15 5.85
Q 30.75 5.85 30.6 6 30.45 6.1 30.45 6.5
L 30.45 24.1
Q 30.45 24.8 31.15 24.8
L 34.7 24.8
Q 35.1 24.8 35.2 24.7 35.3 24.5 35.3 24.15
L 35.3 17.9 39.65 17.9
Q 39.95 17.9 40.15 17.75 40.35 17.65 40.35 17.2
L 40.35 14.55
Q 40.35 14.1 40.15 14 39.95 13.95 39.65 13.95
L 35.3 13.95 35.3 6.5
M -6.8 8.6
Q -6.95 8.45 -7.3 8.45
L -19.95 8.45
Q -21.4 8.45 -21.85 8.9 -22.35 9.3 -22.35 10.7
L -22.35 27.6
Q -22.35 29.05 -21.7 29.45 -21.1 29.9 -19.85 29.9 -18.35 30 -16.35 29.95 -14.4 29.9 -12.3 29.75 -10.2 29.6 -8.25 29.35 -6.3 29.1 -4.85 28.75 -4.45 28.6 -4.3 28.5 -4.15 28.35 -4.25 27.95
L -4.65 25.4
Q -4.75 25.1 -4.85 25 -5 24.9 -5.4 24.95 -6.75 25.2 -8.25 25.4 -9.75 25.6 -11.25 25.7 -12.8 25.8 -14.2 25.85 -15.65 25.9 -16.9 25.85 -17.45 25.85 -17.45 25.3
L -17.45 12.95
Q -17.45 12.75 -17.4 12.6 -17.3 12.45 -17 12.45
L -7.3 12.45
Q -6.95 12.45 -6.8 12.35 -6.6 12.25 -6.6 11.85
L -6.6 9.1
Q -6.6 8.7 -6.8 8.6
M 2.4 6.5
Q 2.4 6.1 2.3 6 2.2 5.85 1.8 5.85
L -1.75 5.85
Q -2.15 5.85 -2.3 6 -2.45 6.1 -2.45 6.5
L -2.45 38.75
Q -2.45 39.15 -2.3 39.3 -2.15 39.4 -1.75 39.4
L 1.8 39.4
Q 2.2 39.4 2.3 39.3 2.4 39.15 2.4 38.75
L 2.4 22.45 6.75 22.45
Q 7.05 22.45 7.25 22.3 7.45 22.2 7.45 21.75
L 7.45 19.1
Q 7.45 18.6 7.25 18.5 7.05 18.45 6.75 18.45
L 2.4 18.45 2.4 6.5 Z"/>

<path fill="#FF6989" stroke="none" d="
M -34.15 39.9
Q -39.15 35.9 -40.15 30.05 -40.5 27.95 -40.55 25.15 -40.6 24.8 -40.6 24.45
L -40.6 18.3
Q -40.6 11.05 -45.75 5.85 -50.85 0.75 -58.15 0.75 -65.4 0.75 -70.55 5.85 -75.7 11.05 -75.7 18.3
L -75.7 25.15
Q -75.7 32.45 -70.55 37.6 -65.4 42.7 -58.15 42.7
L -29.2 42.7
Q -31.55 41.85 -34.15 39.9
M -52.7 10.65
Q -52.2 10.75 -51.8 10.8 -51.35 10.9 -51.05 11 -50.75 11.1 -50.7 11.25 -50.65 11.4 -50.65 11.6
L -50.8 14.2
Q -50.8 14.45 -50.95 14.5 -51.1 14.55 -51.5 14.4 -51.95 14.3 -52.3 14.2 -52.7 14.15 -53.05 14.05 -53.35 14 -53.75 14 -54.1 14 -54.6 14 -56.85 14 -58.15 15.45 -59.4 16.9 -59.65 19.3 -59.1 18.65 -58.1 18.25 -57.15 17.8 -56.3 17.8 -55 17.8 -53.85 18.3 -52.65 18.8 -51.8 19.65 -50.95 20.55 -50.45 21.85 -49.95 23.1 -49.95 24.7 -49.95 26.25 -50.4 27.6 -50.9 28.95 -51.8 29.9 -52.7 30.9 -53.95 31.45 -55.25 32.05 -56.8 32.05 -60.15 32.05 -61.9 29.5 -63.6 27 -63.6 21.95 -63.6 19.65 -63.15 17.6 -62.7 15.5 -61.6 13.95 -60.55 12.35 -58.8 11.45 -57.05 10.55 -54.5 10.55 -54.1 10.55 -53.65 10.55 -53.15 10.6 -52.7 10.65
M -58.95 22.1
Q -59.8 23.05 -59.8 24.65 -59.8 25.5 -59.55 26.25 -59.35 27 -58.9 27.5 -58.5 28.05 -57.95 28.35 -57.4 28.65 -56.75 28.65 -55.4 28.65 -54.45 27.65 -53.55 26.65 -53.55 24.85 -53.55 23.1 -54.35 22.15 -55.15 21.2 -56.55 21.2 -58.05 21.2 -58.95 22.1 Z"/>

<path fill="#FFFFFF" stroke="none" d="
M -51.8 10.8
Q -52.2 10.75 -52.7 10.65 -53.15 10.6 -53.65 10.55 -54.1 10.55 -54.5 10.55 -57.05 10.55 -58.8 11.45 -60.55 12.35 -61.6 13.95 -62.7 15.5 -63.15 17.6 -63.6 19.65 -63.6 21.95 -63.6 27 -61.9 29.5 -60.15 32.05 -56.8 32.05 -55.25 32.05 -53.95 31.45 -52.7 30.9 -51.8 29.9 -50.9 28.95 -50.4 27.6 -49.95 26.25 -49.95 24.7 -49.95 23.1 -50.45 21.85 -50.95 20.55 -51.8 19.65 -52.65 18.8 -53.85 18.3 -55 17.8 -56.3 17.8 -57.15 17.8 -58.1 18.25 -59.1 18.65 -59.65 19.3 -59.4 16.9 -58.15 15.45 -56.85 14 -54.6 14 -54.1 14 -53.75 14 -53.35 14 -53.05 14.05 -52.7 14.15 -52.3 14.2 -51.95 14.3 -51.5 14.4 -51.1 14.55 -50.95 14.5 -50.8 14.45 -50.8 14.2
L -50.65 11.6
Q -50.65 11.4 -50.7 11.25 -50.75 11.1 -51.05 11 -51.35 10.9 -51.8 10.8
M -59.8 24.65
Q -59.8 23.05 -58.95 22.1 -58.05 21.2 -56.55 21.2 -55.15 21.2 -54.35 22.15 -53.55 23.1 -53.55 24.85 -53.55 26.65 -54.45 27.65 -55.4 28.65 -56.75 28.65 -57.4 28.65 -57.95 28.35 -58.5 28.05 -58.9 27.5 -59.35 27 -59.55 26.25 -59.8 25.5 -59.8 24.65 Z"/>
</g>

<path id="Duplicate_Items_Folder_bs43434_0_Layer0_0_1_STROKES" stroke="#569ECC" stroke-width="6" stroke-linejoin="round" stroke-linecap="round" fill="none" d="
M -104.95 -51.85
L 104.95 -51.85
Q 126.4 -51.85 141.6 -36.65 156.8 -21.5 156.8 0
L 156.8 0.05
Q 156.8 21.5 141.6 36.7 126.4 51.9 104.95 51.9
L -104.95 51.9
Q -126.4 51.9 -141.6 36.7 -156.8 21.5 -156.8 0.05
L -156.8 0
Q -156.8 -21.5 -141.6 -36.65 -126.4 -51.85 -104.95 -51.85 Z"/>
</defs>

<g transform="matrix( 1, 0, 0, 1, 159.8,32) ">
<g transform="matrix( 1, 0, 0, 1, 0,22.85) ">
<g transform="matrix( 1, 0, 0, 1, 0,0) ">
<use xlink:href="#Duplicate_Items_Folder_bs43434_0_Layer4_0_FILL"/>
</g>

<g transform="matrix( 1, 0, 0, 1, 0,0) ">
<use xlink:href="#Duplicate_Items_Folder_bs43434_0_Layer3_0_FILL"/>
</g>

<mask id="Mask_Mask_1">
<g transform="matrix( 1, 0, 0, 1, 0,0) ">
<use xlink:href="#Mask_Duplicate_Items_Folder_bs43434_0_2_MASK_0_FILL"/>
</g>
</mask>

<g mask="url(#Mask_Mask_1)">
<g transform="matrix( 1, 0, 0, 1, -3.25,24.2) ">
<g transform="matrix( 0.7107391357421875, 0, 0, 0.7107391357421875, -334.95,-70.95) ">
<use filter="url(#Filter_1)" xlink:href="#Duplicate_Items_Folder_fbd33535_0_Layer0_0_FILL"/>
</g>

<g transform="matrix( 1, 0, 0, 1, 3.25,-24.2) ">
<use filter="url(#Filter_1)" xlink:href="#Duplicate_Items_Folder_fbd33535_0_Layer0_1_FILL"/>
</g>

<g transform="matrix( 0.0501251220703125, 0, 0, 0.0501251220703125, -68.3,58.1) ">
<use filter="url(#Filter_1)" xlink:href="#Duplicate_Items_Folder_fbd33535_0_Layer0_2_FILL"/>
</g>

<g transform="matrix( 1, 0, 0, 1, -17.75,-17.9) ">
<use filter="url(#Filter_1)" xlink:href="#Duplicate_Items_Folder_fbd33535_0_Layer0_3_FILL"/>
</g>

<g transform="matrix( 0.7902069091796875, 0, 0, 0.7902069091796875, 113.7,-29.1) ">
<use filter="url(#Filter_1)" xlink:href="#Duplicate_Items_Folder_fbd33535_0_Layer0_4_FILL"/>
</g>

<g transform="matrix( 0.7902069091796875, 0, 0, 0.7902069091796875, 189.7,32.9) ">
<use filter="url(#Filter_1)" xlink:href="#Duplicate_Items_Folder_fbd33535_0_Layer0_5_FILL"/>
</g>
</g>
</g>

<g transform="matrix( 1, 0, 0, 1, 0,0) ">
<use xlink:href="#Duplicate_Items_Folder_bs43434_0_Layer0_0_1_STROKES"/>
</g>
</g>

<g transform="matrix( 1, 0, 0, 1, 0,0) ">
<use xlink:href="#Duplicate_Items_Folder_fbd343434_0_Layer0_0_FILL"/>
</g>
</g>
</svg>
