<?xml version="1.0" encoding="utf-8"?>
<!-- Generator: Adobe Illustrator 25.2.1, SVG Export Plug-In . SVG Version: 6.00 Build 0)  -->
<svg version="1.1" id="Layer_1" xmlns="http://www.w3.org/2000/svg" xmlns:xlink="http://www.w3.org/1999/xlink" x="0px" y="0px"
	 width="279.9px" height="180px" viewBox="0 0 279.9 180" style="enable-background:new 0 0 279.9 180;" xml:space="preserve">
<path style="fill:#FFFFFF;" d="M32.3,0.3c0,0-5.7,0-5.7,5.7v11.3c0,0,0,5.7,5.7,5.7h215.4c0,0,5.7,0,5.7-5.7V5.9c0,0,0-5.7-5.7-5.7
	L32.3,0.3L32.3,0.3z"/>
<path style="fill:none;stroke:#00A0E9;stroke-width:0.5;" d="M32.3,0.3c0,0-5.7,0-5.7,5.7v11.3c0,0,0,5.7,5.7,5.7h215.4
	c0,0,5.7,0,5.7-5.7V5.9c0,0,0-5.7-5.7-5.7L32.3,0.3L32.3,0.3z"/>
<g>
	<g>
		<defs>
			<rect id="SVGID_1_" y="34.3" width="279.9" height="145.7"/>
		</defs>
		<clipPath id="SVGID_2_">
			<use xlink:href="#SVGID_1_"  style="overflow:visible;"/>
		</clipPath>
		<g style="clip-path:url(#SVGID_2_);">
			<path style="fill:#C9B7D9;" d="M3.5,34.3c-2,0-3.5,1.6-3.5,3.5v138.6c0,2,1.6,3.6,3.5,3.6l0,0h272.8c2,0,3.5-1.6,3.5-3.5l0,0
				V37.8c0-2-1.6-3.5-3.5-3.5H3.5z"/>
			<path style="fill:#CEBEDD;" d="M0.2,176.3c0,1.9,1.5,3.4,3.4,3.4l272.6-0.1h0.3c1.8-0.1,3.2-1.6,3.2-3.4V37.9c0-0.1,0-0.2,0-0.3
				c-0.1-1.8-1.6-3.2-3.4-3.2H3.4c-1.8,0.1-3.2,1.6-3.2,3.4C0.2,37.8,0.2,176.3,0.2,176.3z"/>
			<path style="fill:#D2C5E0;" d="M0.4,176.2c0,1.8,1.5,3.3,3.3,3.3l0,0l272.4-0.1h0.3c1.8-0.1,3.1-1.6,3.1-3.3V37.8
				c-0.1-1.8-1.6-3.1-3.3-3.1H3.5c-1.7,0.1-3.1,1.6-3.1,3.3C0.4,38,0.4,176.2,0.4,176.2z"/>
			<path style="fill:#D7CBE4;" d="M0.6,176.1c0,1.8,1.4,3.2,3.2,3.2l272.1-0.1h0.2c1.7-0.1,3-1.5,3-3.2V38.2c0-0.1,0-0.2,0-0.3
				c-0.1-1.7-1.5-3-3.2-3H3.7c-1.7,0.1-3,1.5-3,3.2L0.6,176.1z"/>
			<path style="fill:#DDD2E8;" d="M0.8,176c0,1.7,1.4,3.1,3.1,3.1c0,0,0,0,0.1,0l271.9-0.1h0.2c1.7-0.1,2.9-1.5,2.9-3.1V38.1
				c-0.1-1.7-1.5-2.9-3.1-2.9H3.8c-1.6,0.1-2.9,1.5-2.9,3.1L0.8,176z"/>
			<path style="fill:#E1D9EB;" d="M1,175.9c0,1.7,1.3,3,3,3l271.7-0.1h0.3c1.6-0.1,2.9-1.4,2.9-3V38.4c0-0.1,0-0.1,0-0.2
				c-0.1-1.6-1.4-2.9-3-2.9H3.9c-1.6,0.1-2.9,1.4-2.9,3V175.9z"/>
			<path style="fill:#E6DFEF;" d="M1.3,175.8c0,1.6,1.3,2.9,2.9,2.9l271.5-0.1h0.2c1.6-0.1,2.8-1.3,2.8-2.9V38.5c0-0.1,0-0.1,0-0.2
				c-0.1-1.5-1.3-2.8-2.9-2.8H4c-1.6,0.1-2.8,1.3-2.8,2.9L1.3,175.8z"/>
			<path style="fill:#EBE6F2;" d="M1.5,175.7c0,1.5,1.2,2.8,2.8,2.8l271.3-0.1h0.2c1.5,0,2.7-1.3,2.7-2.8v-137c0-0.1,0-0.1,0-0.2
				c-0.1-1.5-1.3-2.7-2.8-2.7H4.2c-1.5,0-2.7,1.3-2.7,2.8C1.5,38.5,1.5,175.7,1.5,175.7z"/>
			<path style="fill:#F1EDF6;" d="M1.7,175.6c0,1.5,1.2,2.7,2.7,2.7l0,0h271h0.2c1.5,0,2.6-1.2,2.6-2.7v-137c0-1.4-1.2-2.6-2.6-2.6
				H4.3c-1.5,0-2.6,1.2-2.6,2.7L1.7,175.6z"/>
			<path style="fill:#F6F3F9;" d="M1.9,175.5c0,1.4,1.2,2.6,2.6,2.6l0,0l270.8-0.1h0.2c1.4,0,2.5-1.2,2.5-2.6V38.7
				c0-1.4-1.2-2.5-2.6-2.5H4.4c-1.4,0-2.5,1.2-2.5,2.6L1.9,175.5z"/>
			<path style="fill:#FBFAFC;" d="M2.1,175.4c0,1.4,1.1,2.5,2.5,2.5l270.6-0.1h0.2c1.4,0,2.4-1.1,2.4-2.5V38.8
				c0-1.4-1.1-2.4-2.5-2.4H4.5c-1.4,0-2.5,1.1-2.5,2.5L2.1,175.4z"/>
			<path style="fill:#FFFFFF;" d="M4.7,36.6c-1.3,0-2.4,1.1-2.4,2.4l0,0v136.3c0,1.3,1.1,2.4,2.4,2.4l0,0l270.5-0.1
				c1.3,0,2.4-1.1,2.4-2.4V39c0-1.3-1.1-2.4-2.4-2.4H4.7z"/>
			<path style="fill:#ECE6F3;" d="M101.7,149.2H2.3V39c0-1.3,1.1-2.4,2.4-2.4l0,0l97.1,0.1L101.7,149.2z"/>
			<path style="fill:#ECE6F3;" d="M2.6,176.5c-0.2-0.4-0.3-0.8-0.3-1.2v-26.1h99.4L2.6,176.5z"/>
			<path style="fill:#F4F1F8;" d="M277.9,149.2v26c0,1.3-1.1,2.4-2.4,2.4l-173.8,0.1v-28.4h176.2V149.2z"/>
			<path style="fill:#F4F1F8;" d="M101.7,177.7h-97c-0.8,0-1.6-0.5-2-1.2l99.1-27.3L101.7,177.7z"/>
			<path style="fill:#FFFFFF;" d="M101.7,36.7l173.5-0.1c1.3,0,2.4,1.1,2.4,2.4v110.3H101.7V36.7z"/>
		</g>
	</g>
</g>
<path style="fill:#231815;" d="M245.8,165.7c-0.8,1.5-1.3,3.2-1.2,4.9v0.4c0,1.7,0.4,3.4,1.2,4.9c0.1,0.2,0.1,0.5-0.1,0.6l0,0
	c-0.2,0.1-0.5,0.1-0.7-0.2l0,0c-1.1-1.6-1.7-3.5-1.6-5.4v-0.3c-0.1-1.9,0.5-3.8,1.6-5.4c0.1-0.2,0.4-0.3,0.7-0.2l0,0
	C245.9,165.1,246,165.4,245.8,165.7C245.8,165.6,245.8,165.6,245.8,165.7z"/>
<path style="fill:#231815;" d="M274.3,165.2c1.1,1.6,1.7,3.5,1.6,5.4v0.3c0.1,1.9-0.5,3.8-1.6,5.4c-0.1,0.2-0.4,0.3-0.7,0.2
	c-0.2-0.1-0.3-0.4-0.2-0.6l0,0c0.8-1.5,1.3-3.2,1.2-4.9v-0.4c0-1.7-0.4-3.4-1.2-4.9c-0.1-0.2-0.1-0.5,0.1-0.6l0,0
	C273.9,164.9,274.2,164.9,274.3,165.2L274.3,165.2z"/>
<g>
	<g>
		<defs>
			<rect id="SVGID_3_" y="34.3" width="279.9" height="145.7"/>
		</defs>
		<clipPath id="SVGID_4_">
			<use xlink:href="#SVGID_3_"  style="overflow:visible;"/>
		</clipPath>
		<g style="clip-path:url(#SVGID_4_);">
			<path style="fill:none;stroke:#B5B5B6;stroke-width:0.3;" d="M204.9,149.2V36.3 M234.4,149.2V36.3 M263.3,149.2V36.3"/>
			<line style="fill:none;stroke:#B5B5B6;stroke-width:0.7;" x1="249.1" y1="149.2" x2="249.1" y2="36.3"/>
			<path style="fill:none;stroke:#B5B5B6;stroke-width:0.3;" d="M190.2,149.2V36.3 M219.6,149.2V36.3"/>
			<line style="fill:none;stroke:#B5B5B6;stroke-width:0.7;" x1="175.4" y1="149.2" x2="175.4" y2="36.3"/>
			<path style="fill:none;stroke:#B5B5B6;stroke-width:0.3;" d="M101.7,149.2V36.3 M116.5,149.2V36.3 M131.2,149.2V36.3
				 M160.7,149.2V36.3 M145.9,149.2V36.3"/>
			<path style="fill:none;stroke:#9387BF;stroke-width:0.8;" d="M278.9,149.2H0.7 M101.7,36.7v141.7"/>
			<line style="fill:none;stroke:#9387BF;stroke-width:0.4;" x1="101.7" y1="149.2" x2="2.6" y2="176.5"/>
			<path style="fill:none;stroke:#9387BF;stroke-width:0.8;" d="M278.9,64.1H1.2 M278.9,92.5H1.2 M278.9,121H1.2"/>
		</g>
	</g>
</g>
</svg>
