
<svg xmlns="http://www.w3.org/2000/svg" version="1.1" xmlns:xlink="http://www.w3.org/1999/xlink" preserveAspectRatio="none" x="0px" y="0px" width="415px" height="328px" viewBox="0 0 415 328">
<defs>
<g id="Layer0_0_FILL">
<path fill="#EC008C" stroke="none" d="
M 262.25 245.85
L 262.25 242.3 235.8 242.25 235.8 238.3 225.8 244.05 235.8 249.8 235.8 245.8 262.25 245.85
M 235.8 188.3
L 225.8 194.05 235.8 199.8 235.8 195.8 262.25 195.85 262.25 192.3 235.8 192.25 235.8 188.3
M 235.8 121.3
L 225.8 127.05 235.8 132.8 235.8 128.8 262.25 128.85 262.25 125.3 235.8 125.25 235.8 121.3 Z"/>

<path fill="#1E1E1E" stroke="none" d="
M 187.05 293.85
Q 185.65 293.25 183.85 293.25 181.1 293.25 179.35 294.55 177.65 295.85 176.7 297.85 175.75 299.85 175.4 302.2 175.05 304.6 175.05 306.75 175.05 313.15 177.2 316.7 179.35 320.25 183.85 320.25 186.1 320.25 187.7 319.35 189.35 318.45 190.45 316.7 191.5 315 192.05 312.45 192.55 309.95 192.55 306.75 192.55 305.3 192.4 303.75 192.25 302.2 191.95 300.7 191.55 299.2 190.95 297.85 190.35 296.5 189.35 295.45 188.4 294.45 187.05 293.85
M 188.3 302.25
Q 188.65 304.1 188.65 306.75 188.65 309.45 188.3 311.3 187.95 313.15 187.35 314.3 186.7 315.45 185.8 316 184.95 316.5 183.85 316.5 182.7 316.5 181.85 316 181 315.45 180.35 314.3 179.7 313.15 179.4 311.3 179.05 309.45 179.05 306.75 179.05 304.1 179.4 302.25 179.7 300.4 180.35 299.25 181 298.05 181.85 297.55 182.7 297.05 183.85 297.05 184.95 297.05 185.8 297.55 186.7 298.05 187.35 299.25 187.95 300.4 188.3 302.25
M 177.6 231.45
Q 177.1 231.45 177 231.55 176.9 231.65 176.85 232.05
L 176.65 244.95
Q 176.65 246.15 178.05 245.6 179.15 245.2 180.35 244.95 181.6 244.7 182.7 244.7 185.6 244.7 186.85 246.05 188.1 247.4 188.1 249.65 188.1 252 186.55 253.35 185.05 254.65 182.7 254.65 182.05 254.65 181.35 254.6 180.6 254.55 179.9 254.4 179.15 254.25 178.45 254.05 177.75 253.85 177.25 253.55 176.5 253.25 176.5 253.85
L 176.5 256.7
Q 176.5 256.95 176.5 257.05 176.55 257.15 176.75 257.35 177.35 257.6 178.15 257.8 179 258 179.8 258.1 180.6 258.25 181.35 258.3 182.05 258.35 182.4 258.35 184.4 258.35 186.25 257.75 188.05 257.2 189.3 256.05 192.05 253.6 192.05 249.2 192.05 247.4 191.4 245.9 190.75 244.45 189.6 243.4 188.45 242.35 186.95 241.85 185.4 241.3 183.65 241.3 181.9 241.3 180.55 241.6
L 180.7 235.1 190.45 235.1
Q 190.65 235.1 190.75 234.95 190.85 234.8 190.85 234.6
L 190.85 231.9
Q 190.85 231.75 190.75 231.6 190.65 231.45 190.45 231.45
L 177.6 231.45
M 288.7 233.05
Q 287.7 232.1 286.25 231.65 284.85 231.2 283.15 231.2 281.5 231.2 279.8 231.75 278.1 232.3 276.75 233 276.4 233.2 276.3 233.4 276.2 233.55 276.25 233.75
L 276.75 236.4
Q 276.85 236.7 277.1 236.7 277.4 236.75 277.65 236.55 279.25 235.65 280.6 235.25 281.95 234.85 283.4 234.85 284.9 234.85 285.9 235.95 286.95 237.05 286.95 238.7 286.95 240.15 285.55 242.5 284.15 244.8 281.25 248.25
L 275.9 254.55
Q 275.7 254.85 275.55 255.1 275.4 255.4 275.4 255.65
L 275.4 257.65
Q 275.4 258.15 276.05 258.15
L 290.95 258.15
Q 291.45 258.15 291.45 257.55
L 291.45 255.05
Q 291.45 254.55 290.95 254.55
L 280.7 254.55
Q 281.6 253.55 282.45 252.5 283.3 251.5 284.1 250.55 285.05 249.4 286.25 247.95 287.45 246.55 288.5 245 289.55 243.4 290.25 241.8 290.95 240.15 290.95 238.6 290.95 236.75 290.35 235.35 289.75 234 288.7 233.05
M 297.4 231.5
Q 296.8 231.5 296.8 232.05
L 296.8 234.5
Q 296.8 234.8 297 234.95 297.2 235.1 297.4 235.1
L 308.6 235.1 299.45 257.45
Q 299.3 257.85 299.45 257.95 299.6 258.1 300.1 258.1
L 302.95 258.1
Q 303.3 258.1 303.45 258 303.55 257.85 303.75 257.6
L 313 234.8
Q 313.2 234.55 313.2 234.25
L 313.2 232.1
Q 313.2 231.75 313.05 231.6 312.9 231.5 312.3 231.5
L 297.4 231.5
M 133.4 293.55
Q 133.2 293.6 133.15 293.7
L 127.8 298.65
Q 127.6 298.8 127.6 299 127.6 299.2 127.7 299.35
L 129.25 301.25
Q 129.4 301.35 129.65 301.35 129.85 301.3 130.05 301.15
L 132.6 298.9 132.6 319.65
Q 132.6 320.1 133.1 320.1
L 135.9 320.1
Q 136.35 320.1 136.35 319.65
L 136.35 294.45
Q 136.35 293.75 136.25 293.6 136.1 293.5 135.5 293.5
L 133.7 293.5
Q 133.55 293.5 133.4 293.55
M 81.95 231.55
Q 81.75 231.6 81.7 231.7
L 76.35 236.65
Q 76.15 236.8 76.15 237 76.15 237.2 76.25 237.35
L 77.8 239.25
Q 77.95 239.35 78.2 239.35 78.4 239.3 78.6 239.15
L 81.15 236.9 81.15 257.65
Q 81.15 258.1 81.65 258.1
L 84.45 258.1
Q 84.9 258.1 84.9 257.65
L 84.9 232.45
Q 84.9 231.75 84.8 231.6 84.65 231.5 84.05 231.5
L 82.25 231.5
Q 82.1 231.5 81.95 231.55
M 132.65 234.8
Q 133.4 234.8 134.25 234.95 135.05 235.15 135.8 235.6 136.5 236 136.95 236.65 137.4 237.35 137.4 238.25 137.4 239.4 136.7 240.2 136 241 134.95 241.55 133.95 242.05 132.85 242.3 131.8 242.5 131 242.5
L 129.35 242.5
Q 129.05 242.5 128.95 242.6 128.9 242.65 128.9 242.95
L 128.9 245.55
Q 128.9 245.85 128.95 245.95 129.05 246 129.35 246
L 131.1 246
Q 132.75 246 133.95 246.35 135.2 246.7 135.95 247.25 136.7 247.85 137.1 248.6 137.45 249.35 137.45 250.15 137.45 252.5 135.75 253.65 135.2 254.05 134.5 254.3 133.8 254.55 133.05 254.6 132.3 254.7 131.55 254.65 130.75 254.65 130.05 254.55 129.1 254.5 128.2 254.2 127.25 253.95 126.35 253.7 125.85 253.5 125.7 253.6 125.5 253.7 125.5 254.05
L 125.15 256.65
Q 125.15 256.95 125.25 257.1 125.4 257.3 125.75 257.4 127.05 257.85 128.6 258.1 130.1 258.35 131.6 258.35 133.65 258.35 135.5 257.85 137.4 257.35 138.7 256.25 140.05 255.2 140.75 253.65 141.45 252.1 141.45 250.25 141.45 248.3 140.3 246.75 139.1 245.2 136.8 244.2 137.75 243.8 138.6 243.1 139.45 242.45 140.05 241.6 140.65 240.75 141 239.85 141.3 238.85 141.3 237.95 141.3 236.15 140.55 234.85 139.85 233.55 138.65 232.75 137.5 231.95 135.95 231.55 134.45 231.2 132.85 231.2 131.4 231.2 129.9 231.5 128.45 231.8 126.9 232.35 126.55 232.5 126.45 232.7 126.3 232.85 126.4 233.05
L 126.7 235.6
Q 126.75 235.95 126.95 236 127.15 236.1 127.55 235.95 128.1 235.75 128.8 235.5 129.5 235.3 130.2 235.15 130.9 235 131.55 234.9 132.15 234.8 132.65 234.8
M 139.55 182
Q 139.55 181.7 139.5 181.6 139.45 181.5 139.2 181.5
L 136 181.5
Q 135.65 181.5 135.6 181.55 135.5 181.65 135.3 181.95
L 124.45 198.2
Q 124.35 198.4 124.2 198.65 124.05 198.9 124.05 199.1
L 124.05 201.7
Q 124.05 202 124.15 202.05 124.25 202.15 124.6 202.15
L 135.8 202.15 135.8 207.45
Q 135.8 207.8 135.95 207.95 136.05 208.1 136.45 208.1
L 138.95 208.1
Q 139.35 208.1 139.45 207.95 139.55 207.85 139.55 207.45
L 139.55 202.15 142.8 202.15
Q 143.1 202.15 143.25 202.05 143.35 201.95 143.35 201.6
L 143.35 199.05
Q 143.35 198.7 143.25 198.65 143.1 198.55 142.8 198.55
L 139.55 198.55 139.55 182
M 135.8 198.55
L 128.3 198.55 135.8 187.15 135.8 198.55
M 139.55 115
Q 139.55 114.7 139.5 114.6 139.45 114.5 139.2 114.5
L 136 114.5
Q 135.65 114.5 135.6 114.55 135.5 114.65 135.3 114.95
L 124.45 131.2
Q 124.35 131.4 124.2 131.65 124.05 131.9 124.05 132.1
L 124.05 134.7
Q 124.05 135 124.15 135.05 124.25 135.15 124.6 135.15
L 135.8 135.15 135.8 140.45
Q 135.8 140.8 135.95 140.95 136.05 141.1 136.45 141.1
L 138.95 141.1
Q 139.35 141.1 139.45 140.95 139.55 140.85 139.55 140.45
L 139.55 135.15 142.8 135.15
Q 143.1 135.15 143.25 135.05 143.35 134.95 143.35 134.6
L 143.35 132.05
Q 143.35 131.7 143.25 131.65 143.1 131.55 142.8 131.55
L 139.55 131.55 139.55 115
M 135.8 131.55
L 128.3 131.55 135.8 120.15 135.8 131.55
M 78.2 189.35
Q 78.4 189.3 78.6 189.15
L 81.15 186.9 81.15 207.65
Q 81.15 208.1 81.65 208.1
L 84.45 208.1
Q 84.9 208.1 84.9 207.65
L 84.9 182.45
Q 84.9 181.75 84.8 181.6 84.65 181.5 84.05 181.5
L 82.25 181.5
Q 82.1 181.5 81.95 181.55 81.75 181.6 81.7 181.7
L 76.35 186.65
Q 76.15 186.8 76.15 187 76.15 187.2 76.25 187.35
L 77.8 189.25
Q 77.95 189.35 78.2 189.35
M 76.15 114.45
Q 75.65 114.45 75.55 114.55 75.45 114.65 75.4 115.05
L 75.2 127.95
Q 75.2 129.15 76.6 128.6 77.7 128.2 78.9 127.95 80.15 127.7 81.25 127.7 84.15 127.7 85.4 129.05 86.65 130.4 86.65 132.65 86.65 135 85.1 136.35 83.6 137.65 81.25 137.65 80.6 137.65 79.9 137.6 79.15 137.55 78.45 137.4 77.7 137.25 77 137.05 76.3 136.85 75.8 136.55 75.05 136.25 75.05 136.85
L 75.05 139.7
Q 75.05 139.95 75.05 140.05 75.1 140.15 75.3 140.35 75.9 140.6 76.7 140.8 77.55 141 78.35 141.1 79.15 141.25 79.9 141.3 80.6 141.35 80.95 141.35 82.95 141.35 84.8 140.75 86.6 140.2 87.85 139.05 90.6 136.6 90.6 132.2 90.6 130.4 89.95 128.9 89.3 127.45 88.15 126.4 87 125.35 85.5 124.85 83.95 124.3 82.2 124.3 80.45 124.3 79.1 124.6
L 79.25 118.1 89 118.1
Q 89.2 118.1 89.3 117.95 89.4 117.8 89.4 117.6
L 89.4 114.9
Q 89.4 114.75 89.3 114.6 89.2 114.45 89 114.45
L 76.15 114.45
M 8.4 64.75
Q 6.7 65.3 5.35 66 5 66.2 4.9 66.4 4.8 66.55 4.85 66.75
L 5.35 69.4
Q 5.45 69.7 5.7 69.7 6 69.75 6.25 69.55 7.85 68.65 9.2 68.25 10.55 67.85 12 67.85 13.5 67.85 14.5 68.95 15.55 70.05 15.55 71.7 15.55 73.15 14.15 75.5 12.75 77.8 9.85 81.25
L 4.5 87.55
Q 4.3 87.85 4.15 88.1 4 88.4 4 88.65
L 4 90.65
Q 4 91.15 4.65 91.15
L 19.55 91.15
Q 20.05 91.15 20.05 90.55
L 20.05 88.05
Q 20.05 87.55 19.55 87.55
L 9.3 87.55
Q 10.2 86.55 11.05 85.5 11.9 84.5 12.7 83.55 13.65 82.4 14.85 80.95 16.05 79.55 17.1 78 18.15 76.4 18.85 74.8 19.55 73.15 19.55 71.6 19.55 69.75 18.95 68.35 18.35 67 17.3 66.05 16.3 65.1 14.85 64.65 13.45 64.2 11.75 64.2 10.1 64.2 8.4 64.75
M 24.6 67.5
Q 24.6 67.8 24.8 67.95 25 68.1 25.2 68.1
L 36.4 68.1 27.25 90.45
Q 27.1 90.85 27.25 90.95 27.4 91.1 27.9 91.1
L 30.75 91.1
Q 31.1 91.1 31.25 91 31.35 90.85 31.55 90.6
L 40.8 67.8
Q 41 67.55 41 67.25
L 41 65.1
Q 41 64.75 40.85 64.6 40.7 64.5 40.1 64.5
L 25.2 64.5
Q 24.6 64.5 24.6 65.05
L 24.6 67.5
M 126.35 68.15
Q 125.7 69.35 125.7 70.85 125.7 72.85 126.9 74.4 128.15 76 130.25 77.2 129.2 77.7 128.25 78.35 127.25 79 126.55 79.75 125.85 80.55 125.4 81.55 124.95 82.55 124.95 83.85 124.95 85.75 125.75 87.15 126.55 88.55 127.8 89.5 129.1 90.45 130.65 90.9 132.3 91.35 133.85 91.35 135.55 91.35 137.15 90.9 138.8 90.45 140 89.5 141.25 88.55 142 87.15 142.75 85.75 142.75 83.85 142.75 82.65 142.4 81.75 142.05 80.85 141.35 80.05 140.65 79.25 139.65 78.55 138.65 77.9 137.45 77.15 139.75 75.6 140.8 74.05 141.95 72.5 141.95 70.75 141.95 69.2 141.3 67.95 140.7 66.75 139.65 65.9 138.55 65.1 137.1 64.6 135.6 64.2 133.85 64.2 132.15 64.2 130.65 64.65 129.2 65.15 128.1 66.05 127 66.9 126.35 68.15
M 131.35 73.85
Q 130.65 73.25 130.2 72.55 129.7 71.85 129.7 71.1 129.7 70.25 130.05 69.6 130.45 68.95 131.05 68.55 131.65 68.1 132.4 67.85 133.1 67.6 133.85 67.6 134.7 67.6 135.45 67.85 136.2 68.15 136.75 68.6 137.3 69.05 137.65 69.7 137.95 70.3 137.95 71 137.95 71.65 137.55 72.35 137.1 73.05 136.45 73.65 135.8 74.3 135.1 74.75 134.4 75.25 133.9 75.45 133.4 75.25 132.7 74.85 132 74.45 131.35 73.85
M 133.9 79.1
Q 134.75 79.45 135.65 79.95 136.5 80.5 137.2 81.1 137.95 81.75 138.4 82.45 138.8 83.2 138.8 83.85 138.8 84.8 138.4 85.55 137.95 86.25 137.25 86.8 136.55 87.3 135.65 87.6 134.75 87.85 133.85 87.85 133 87.85 132.1 87.55 131.2 87.25 130.5 86.75 129.8 86.25 129.35 85.5 128.9 84.75 128.9 83.85 128.9 82.75 129.4 81.95 129.9 81.2 130.65 80.6 131.4 80.05 132.3 79.7 133.2 79.3 133.9 79.1
M 89.85 64.8
Q 89.05 64.5 87.8 64.35 86.55 64.2 85.55 64.2 82.3 64.2 80.05 65.35 77.8 66.5 76.45 68.45 75.05 70.4 74.45 73.05 73.85 75.7 73.85 78.65 73.85 85.15 76.1 88.3 78.3 91.35 82.45 91.35 84.45 91.35 86.05 90.65 87.65 89.95 88.8 88.75 89.9 87.55 90.5 85.85 91.1 84.2 91.1 82.3 91.1 80.3 90.5 78.7 89.9 77.1 88.75 75.95 87.65 74.8 86.1 74.2 84.55 73.6 82.65 73.6 81.95 73.6 81.25 73.8 80.55 73.95 79.9 74.3 79.25 74.55 78.75 74.95 78.2 75.35 77.9 75.8 78.15 74.1 78.65 72.65 79.15 71.15 80 70.1 80.9 69 82.15 68.4 83.45 67.8 85.25 67.8 86.5 67.8 87.55 67.9 88.55 68 89.45 68.35 89.95 68.55 90 68.05
L 90.1 65.25
Q 90.15 64.9 89.85 64.8
M 82.8 77.25
Q 84.9 77.25 86.1 78.65 87.25 80 87.25 82.45 87.25 84.95 85.95 86.45 84.6 87.9 82.5 87.9 81.55 87.9 80.65 87.45 79.85 87 79.2 86.2 78.6 85.4 78.25 84.35 77.9 83.3 77.9 82.1 77.9 80 79.2 78.6 80.5 77.25 82.8 77.25
M 138.4 11.05
Q 137.4 10.1 135.95 9.65 134.55 9.2 132.85 9.2 131.2 9.2 129.5 9.75 127.8 10.3 126.45 11 126.1 11.2 126 11.4 125.9 11.55 125.95 11.75
L 126.45 14.4
Q 126.55 14.7 126.8 14.7 127.1 14.75 127.35 14.55 128.95 13.65 130.3 13.25 131.65 12.85 133.1 12.85 134.6 12.85 135.6 13.95 136.65 15.05 136.65 16.7 136.65 18.15 135.25 20.5 133.85 22.8 130.95 26.25
L 125.6 32.55
Q 125.4 32.85 125.25 33.1 125.1 33.4 125.1 33.65
L 125.1 35.65
Q 125.1 36.15 125.75 36.15
L 140.65 36.15
Q 141.15 36.15 141.15 35.55
L 141.15 33.05
Q 141.15 32.55 140.65 32.55
L 130.4 32.55
Q 131.3 31.55 132.15 30.5 133 29.5 133.8 28.55 134.75 27.4 135.95 25.95 137.15 24.55 138.2 23 139.25 21.4 139.95 19.8 140.65 18.15 140.65 16.6 140.65 14.75 140.05 13.35 139.45 12 138.4 11.05
M 302.1 181.65
Q 300.65 182.15 299.55 183.05 298.45 183.9 297.8 185.15 297.15 186.35 297.15 187.85 297.15 189.85 298.35 191.4 299.6 193 301.7 194.2 300.65 194.7 299.7 195.35 298.7 196 298 196.75 297.3 197.55 296.85 198.55 296.4 199.55 296.4 200.85 296.4 202.75 297.2 204.15 298 205.55 299.25 206.5 300.55 207.45 302.1 207.9 303.75 208.35 305.3 208.35 307 208.35 308.6 207.9 310.25 207.45 311.45 206.5 312.7 205.55 313.45 204.15 314.2 202.75 314.2 200.85 314.2 199.65 313.85 198.75 313.5 197.85 312.8 197.05 312.1 196.25 311.1 195.55 310.1 194.9 308.9 194.15 311.2 192.6 312.25 191.05 313.4 189.5 313.4 187.75 313.4 186.2 312.75 184.95 312.15 183.75 311.1 182.9 310 182.1 308.55 181.6 307.05 181.2 305.3 181.2 303.6 181.2 302.1 181.65
M 302.8 190.85
Q 302.1 190.25 301.65 189.55 301.15 188.85 301.15 188.1 301.15 187.25 301.5 186.6 301.9 185.95 302.5 185.55 303.1 185.1 303.85 184.85 304.55 184.6 305.3 184.6 306.15 184.6 306.9 184.85 307.65 185.15 308.2 185.6 308.75 186.05 309.1 186.7 309.4 187.3 309.4 188 309.4 188.65 309 189.35 308.55 190.05 307.9 190.65 307.25 191.3 306.55 191.75 305.85 192.25 305.35 192.45 304.85 192.25 304.15 191.85 303.45 191.45 302.8 190.85
M 305.35 196.1
Q 306.2 196.45 307.1 196.95 307.95 197.5 308.65 198.1 309.4 198.75 309.85 199.45 310.25 200.2 310.25 200.85 310.25 201.8 309.85 202.55 309.4 203.25 308.7 203.8 308 204.3 307.1 204.6 306.2 204.85 305.3 204.85 304.45 204.85 303.55 204.55 302.65 204.25 301.95 203.75 301.25 203.25 300.8 202.5 300.35 201.75 300.35 200.85 300.35 199.75 300.85 198.95 301.35 198.2 302.1 197.6 302.85 197.05 303.75 196.7 304.65 196.3 305.35 196.1
M 283 190.8
Q 282.3 190.95 281.65 191.3 281 191.55 280.5 191.95 279.95 192.35 279.65 192.8 279.9 191.1 280.4 189.65 280.9 188.15 281.75 187.1 282.65 186 283.9 185.4 285.2 184.8 287 184.8 288.25 184.8 289.3 184.9 290.3 185 291.2 185.35 291.7 185.55 291.75 185.05
L 291.85 182.25
Q 291.9 181.9 291.6 181.8 290.8 181.5 289.55 181.35 288.3 181.2 287.3 181.2 284.05 181.2 281.8 182.35 279.55 183.5 278.2 185.45 276.8 187.4 276.2 190.05 275.6 192.7 275.6 195.65 275.6 202.15 277.85 205.3 280.05 208.35 284.2 208.35 286.2 208.35 287.8 207.65 289.4 206.95 290.55 205.75 291.65 204.55 292.25 202.85 292.85 201.2 292.85 199.3 292.85 197.3 292.25 195.7 291.65 194.1 290.5 192.95 289.4 191.8 287.85 191.2 286.3 190.6 284.4 190.6 283.7 190.6 283 190.8
M 284.55 194.25
Q 286.65 194.25 287.85 195.65 289 197 289 199.45 289 201.95 287.7 203.45 286.35 204.9 284.25 204.9 283.3 204.9 282.4 204.45 281.6 204 280.95 203.2 280.35 202.4 280 201.35 279.65 200.3 279.65 199.1 279.65 197 280.95 195.6 282.25 194.25 284.55 194.25
M 290.95 121.6
Q 290.95 119.75 290.35 118.35 289.75 117 288.7 116.05 287.7 115.1 286.25 114.65 284.85 114.2 283.15 114.2 281.5 114.2 279.8 114.75 278.1 115.3 276.75 116 276.4 116.2 276.3 116.4 276.2 116.55 276.25 116.75
L 276.75 119.4
Q 276.85 119.7 277.1 119.7 277.4 119.75 277.65 119.55 279.25 118.65 280.6 118.25 281.95 117.85 283.4 117.85 284.9 117.85 285.9 118.95 286.95 120.05 286.95 121.7 286.95 123.15 285.55 125.5 284.15 127.8 281.25 131.25
L 275.9 137.55
Q 275.7 137.85 275.55 138.1 275.4 138.4 275.4 138.65
L 275.4 140.65
Q 275.4 141.15 276.05 141.15
L 290.95 141.15
Q 291.45 141.15 291.45 140.55
L 291.45 138.05
Q 291.45 137.55 290.95 137.55
L 280.7 137.55
Q 281.6 136.55 282.45 135.5 283.3 134.5 284.1 133.55 285.05 132.4 286.25 130.95 287.45 129.55 288.5 128 289.55 126.4 290.25 124.8 290.95 123.15 290.95 121.6
M 313.05 114.6
Q 312.9 114.5 312.3 114.5
L 297.4 114.5
Q 296.8 114.5 296.8 115.05
L 296.8 117.5
Q 296.8 117.8 297 117.95 297.2 118.1 297.4 118.1
L 308.6 118.1 299.45 140.45
Q 299.3 140.85 299.45 140.95 299.6 141.1 300.1 141.1
L 302.95 141.1
Q 303.3 141.1 303.45 141 303.55 140.85 303.75 140.6
L 313 117.8
Q 313.2 117.55 313.2 117.25
L 313.2 115.1
Q 313.2 114.75 313.05 114.6
M 180.55 191.6
L 180.7 185.1 190.45 185.1
Q 190.65 185.1 190.75 184.95 190.85 184.8 190.85 184.6
L 190.85 181.9
Q 190.85 181.75 190.75 181.6 190.65 181.45 190.45 181.45
L 177.6 181.45
Q 177.1 181.45 177 181.55 176.9 181.65 176.85 182.05
L 176.65 194.95
Q 176.65 196.15 178.05 195.6 179.15 195.2 180.35 194.95 181.6 194.7 182.7 194.7 185.6 194.7 186.85 196.05 188.1 197.4 188.1 199.65 188.1 202 186.55 203.35 185.05 204.65 182.7 204.65 182.05 204.65 181.35 204.6 180.6 204.55 179.9 204.4 179.15 204.25 178.45 204.05 177.75 203.85 177.25 203.55 176.5 203.25 176.5 203.85
L 176.5 206.7
Q 176.5 206.95 176.5 207.05 176.55 207.15 176.75 207.35 177.35 207.6 178.15 207.8 179 208 179.8 208.1 180.6 208.25 181.35 208.3 182.05 208.35 182.4 208.35 184.4 208.35 186.25 207.75 188.05 207.2 189.3 206.05 192.05 203.6 192.05 199.2 192.05 197.4 191.4 195.9 190.75 194.45 189.6 193.4 188.45 192.35 186.95 191.85 185.4 191.3 183.65 191.3 181.9 191.3 180.55 191.6
M 191.95 121.7
Q 191.55 120.2 190.95 118.85 190.35 117.5 189.35 116.45 188.4 115.45 187.05 114.85 185.65 114.25 183.85 114.25 181.1 114.25 179.35 115.55 177.65 116.85 176.7 118.85 175.75 120.85 175.4 123.2 175.05 125.6 175.05 127.75 175.05 134.15 177.2 137.7 179.35 141.25 183.85 141.25 186.1 141.25 187.7 140.35 189.35 139.45 190.45 137.7 191.5 136 192.05 133.45 192.55 130.95 192.55 127.75 192.55 126.3 192.4 124.75 192.25 123.2 191.95 121.7
M 183.85 118.05
Q 184.95 118.05 185.8 118.55 186.7 119.05 187.35 120.25 187.95 121.4 188.3 123.25 188.65 125.1 188.65 127.75 188.65 130.45 188.3 132.3 187.95 134.15 187.35 135.3 186.7 136.45 185.8 137 184.95 137.5 183.85 137.5 182.7 137.5 181.85 137 181 136.45 180.35 135.3 179.7 134.15 179.4 132.3 179.05 130.45 179.05 127.75 179.05 125.1 179.4 123.25 179.7 121.4 180.35 120.25 181 119.05 181.85 118.55 182.7 118.05 183.85 118.05
M 190.45 68.1
Q 190.65 68.1 190.75 67.95 190.85 67.8 190.85 67.6
L 190.85 64.9
Q 190.85 64.75 190.75 64.6 190.65 64.45 190.45 64.45
L 177.6 64.45
Q 177.1 64.45 177 64.55 176.9 64.65 176.85 65.05
L 176.65 77.95
Q 176.65 79.15 178.05 78.6 179.15 78.2 180.35 77.95 181.6 77.7 182.7 77.7 185.6 77.7 186.85 79.05 188.1 80.4 188.1 82.65 188.1 85 186.55 86.35 185.05 87.65 182.7 87.65 182.05 87.65 181.35 87.6 180.6 87.55 179.9 87.4 179.15 87.25 178.45 87.05 177.75 86.85 177.25 86.55 176.5 86.25 176.5 86.85
L 176.5 89.7
Q 176.5 89.95 176.5 90.05 176.55 90.15 176.75 90.35 177.35 90.6 178.15 90.8 179 91 179.8 91.1 180.6 91.25 181.35 91.3 182.05 91.35 182.4 91.35 184.4 91.35 186.25 90.75 188.05 90.2 189.3 89.05 192.05 86.6 192.05 82.2 192.05 80.4 191.4 78.9 190.75 77.45 189.6 76.4 188.45 75.35 186.95 74.85 185.4 74.3 183.65 74.3 181.9 74.3 180.55 74.6
L 180.7 68.1 190.45 68.1
M 190.75 9.6
Q 190.65 9.45 190.45 9.45
L 177.6 9.45
Q 177.1 9.45 177 9.55 176.9 9.65 176.85 10.05
L 176.65 22.95
Q 176.65 24.15 178.05 23.6 179.15 23.2 180.35 22.95 181.6 22.7 182.7 22.7 185.6 22.7 186.85 24.05 188.1 25.4 188.1 27.65 188.1 30 186.55 31.35 185.05 32.65 182.7 32.65 182.05 32.65 181.35 32.6 180.6 32.55 179.9 32.4 179.15 32.25 178.45 32.05 177.75 31.85 177.25 31.55 176.5 31.25 176.5 31.85
L 176.5 34.7
Q 176.5 34.95 176.5 35.05 176.55 35.15 176.75 35.35 177.35 35.6 178.15 35.8 179 36 179.8 36.1 180.6 36.25 181.35 36.3 182.05 36.35 182.4 36.35 184.4 36.35 186.25 35.75 188.05 35.2 189.3 34.05 192.05 31.6 192.05 27.2 192.05 25.4 191.4 23.9 190.75 22.45 189.6 21.4 188.45 20.35 186.95 19.85 185.4 19.3 183.65 19.3 181.9 19.3 180.55 19.6
L 180.7 13.1 190.45 13.1
Q 190.65 13.1 190.75 12.95 190.85 12.8 190.85 12.6
L 190.85 9.9
Q 190.85 9.75 190.75 9.6
M 333.3 236.6
Q 333.15 236.45 332.9 236.45 332.65 236.45 332.5 236.6
L 326.1 242.95 319.75 236.7
Q 319.35 236.3 318.95 236.7
L 317.45 238.25
Q 317.25 238.45 317.25 238.65 317.25 238.85 317.45 239
L 323.8 245.3 317.2 251.85
Q 317.05 252.05 317.05 252.3 317.05 252.55 317.2 252.7
L 318.65 254.2
Q 318.95 254.65 319.45 254.2
L 326.05 247.6 332.6 254.15
Q 332.75 254.35 333 254.35 333.25 254.35 333.4 254.15
L 334.85 252.65
Q 335.05 252.45 335.05 252.25 335.05 252.05 334.85 251.85
L 328.35 245.3 334.7 238.95
Q 334.85 238.75 334.85 238.55 334.85 238.25 334.7 238.1
L 333.3 236.6
M 340.9 231.45
Q 340.4 231.45 340.3 231.55 340.2 231.65 340.15 232.05
L 339.95 244.95
Q 339.95 246.15 341.35 245.6 342.45 245.2 343.65 244.95 344.9 244.7 346 244.7 348.9 244.7 350.15 246.05 351.4 247.4 351.4 249.65 351.4 252 349.85 253.35 348.35 254.65 346 254.65 345.35 254.65 344.65 254.6 343.9 254.55 343.2 254.4 342.45 254.25 341.75 254.05 341.05 253.85 340.55 253.55 339.8 253.25 339.8 253.85
L 339.8 256.7
Q 339.8 256.95 339.8 257.05 339.85 257.15 340.05 257.35 340.65 257.6 341.45 257.8 342.3 258 343.1 258.1 343.9 258.25 344.65 258.3 345.35 258.35 345.7 258.35 347.7 258.35 349.55 257.75 351.35 257.2 352.6 256.05 355.35 253.6 355.35 249.2 355.35 247.4 354.7 245.9 354.05 244.45 352.9 243.4 351.75 242.35 350.25 241.85 348.7 241.3 346.95 241.3 345.2 241.3 343.85 241.6
L 344 235.1 353.75 235.1
Q 353.95 235.1 354.05 234.95 354.15 234.8 354.15 234.6
L 354.15 231.9
Q 354.15 231.75 354.05 231.6 353.95 231.45 353.75 231.45
L 340.9 231.45
M 402.6 181.25
Q 399.85 181.25 398.1 182.55 396.4 183.85 395.45 185.85 394.5 187.85 394.15 190.2 393.8 192.6 393.8 194.75 393.8 201.15 395.95 204.7 398.1 208.25 402.6 208.25 404.85 208.25 406.45 207.35 408.1 206.45 409.2 204.7 410.25 203 410.8 200.45 411.3 197.95 411.3 194.75 411.3 193.3 411.15 191.75 411 190.2 410.7 188.7 410.3 187.2 409.7 185.85 409.1 184.5 408.1 183.45 407.15 182.45 405.8 181.85 404.4 181.25 402.6 181.25
M 400.6 185.55
Q 401.45 185.05 402.6 185.05 403.7 185.05 404.55 185.55 405.45 186.05 406.1 187.25 406.7 188.4 407.05 190.25 407.4 192.1 407.4 194.75 407.4 197.45 407.05 199.3 406.7 201.15 406.1 202.3 405.45 203.45 404.55 204 403.7 204.5 402.6 204.5 401.45 204.5 400.6 204 399.75 203.45 399.1 202.3 398.45 201.15 398.15 199.3 397.8 197.45 397.8 194.75 397.8 192.1 398.15 190.25 398.45 188.4 399.1 187.25 399.75 186.05 400.6 185.55
M 383.2 181.55
Q 383.1 181.65 382.9 181.95
L 372.05 198.2
Q 371.95 198.4 371.8 198.65 371.65 198.9 371.65 199.1
L 371.65 201.7
Q 371.65 202 371.75 202.05 371.85 202.15 372.2 202.15
L 383.4 202.15 383.4 207.45
Q 383.4 207.8 383.55 207.95 383.65 208.1 384.05 208.1
L 386.55 208.1
Q 386.95 208.1 387.05 207.95 387.15 207.85 387.15 207.45
L 387.15 202.15 390.4 202.15
Q 390.7 202.15 390.85 202.05 390.95 201.95 390.95 201.6
L 390.95 199.05
Q 390.95 198.7 390.85 198.65 390.7 198.55 390.4 198.55
L 387.15 198.55 387.15 182
Q 387.15 181.7 387.1 181.6 387.05 181.5 386.8 181.5
L 383.6 181.5
Q 383.25 181.5 383.2 181.55
M 383.4 198.55
L 375.9 198.55 383.4 187.15 383.4 198.55
M 353.45 181.55
Q 353.35 181.65 353.3 182.05
L 353.1 194.95
Q 353.1 196.15 354.5 195.6 355.6 195.2 356.8 194.95 358.05 194.7 359.15 194.7 362.05 194.7 363.3 196.05 364.55 197.4 364.55 199.65 364.55 202 363 203.35 361.5 204.65 359.15 204.65 358.5 204.65 357.8 204.6 357.05 204.55 356.35 204.4 355.6 204.25 354.9 204.05 354.2 203.85 353.7 203.55 352.95 203.25 352.95 203.85
L 352.95 206.7
Q 352.95 206.95 352.95 207.05 353 207.15 353.2 207.35 353.8 207.6 354.6 207.8 355.45 208 356.25 208.1 357.05 208.25 357.8 208.3 358.5 208.35 358.85 208.35 360.85 208.35 362.7 207.75 364.5 207.2 365.75 206.05 368.5 203.6 368.5 199.2 368.5 197.4 367.85 195.9 367.2 194.45 366.05 193.4 364.9 192.35 363.4 191.85 361.85 191.3 360.1 191.3 358.35 191.3 357 191.6
L 357.15 185.1 366.9 185.1
Q 367.1 185.1 367.2 184.95 367.3 184.8 367.3 184.6
L 367.3 181.9
Q 367.3 181.75 367.2 181.6 367.1 181.45 366.9 181.45
L 354.05 181.45
Q 353.55 181.45 353.45 181.55
M 339.15 192.5
Q 339 192.5 338.85 192.6 338.7 192.75 338.7 192.9
L 338.7 195.7
Q 338.7 195.9 338.85 196 339 196.1 339.15 196.1
L 347.65 196.1
Q 347.85 196.1 347.95 196 348.1 195.9 348.1 195.7
L 348.1 192.9
Q 348.1 192.75 347.95 192.6 347.85 192.5 347.65 192.5
L 339.15 192.5
M 333.05 185.1
Q 333.25 185.1 333.35 184.95 333.45 184.8 333.45 184.6
L 333.45 181.9
Q 333.45 181.75 333.35 181.6 333.25 181.45 333.05 181.45
L 320.2 181.45
Q 319.7 181.45 319.6 181.55 319.5 181.65 319.45 182.05
L 319.25 194.95
Q 319.25 196.15 320.65 195.6 321.75 195.2 322.95 194.95 324.2 194.7 325.3 194.7 328.2 194.7 329.45 196.05 330.7 197.4 330.7 199.65 330.7 202 329.15 203.35 327.65 204.65 325.3 204.65 324.65 204.65 323.95 204.6 323.2 204.55 322.5 204.4 321.75 204.25 321.05 204.05 320.35 203.85 319.85 203.55 319.1 203.25 319.1 203.85
L 319.1 206.7
Q 319.1 206.95 319.1 207.05 319.15 207.15 319.35 207.35 319.95 207.6 320.75 207.8 321.6 208 322.4 208.1 323.2 208.25 323.95 208.3 324.65 208.35 325 208.35 327 208.35 328.85 207.75 330.65 207.2 331.9 206.05 334.65 203.6 334.65 199.2 334.65 197.4 334 195.9 333.35 194.45 332.2 193.4 331.05 192.35 329.55 191.85 328 191.3 326.25 191.3 324.5 191.3 323.15 191.6
L 323.3 185.1 333.05 185.1
M 333.3 119.6
Q 333.15 119.45 332.9 119.45 332.65 119.45 332.5 119.6
L 326.1 125.95 319.75 119.7
Q 319.35 119.3 318.95 119.7
L 317.45 121.25
Q 317.25 121.45 317.25 121.65 317.25 121.85 317.45 122
L 323.8 128.3 317.2 134.85
Q 317.05 135.05 317.05 135.3 317.05 135.55 317.2 135.7
L 318.65 137.2
Q 318.95 137.65 319.45 137.2
L 326.05 130.6 332.6 137.15
Q 332.75 137.35 333 137.35 333.25 137.35 333.4 137.15
L 334.85 135.65
Q 335.05 135.45 335.05 135.25 335.05 135.05 334.85 134.85
L 328.35 128.3 334.7 121.95
Q 334.85 121.75 334.85 121.55 334.85 121.25 334.7 121.1
L 333.3 119.6
M 346.4 117.85
Q 347.9 117.85 348.9 118.95 349.95 120.05 349.95 121.7 349.95 123.15 348.55 125.5 347.15 127.8 344.25 131.25
L 338.9 137.55
Q 338.7 137.85 338.55 138.1 338.4 138.4 338.4 138.65
L 338.4 140.65
Q 338.4 141.15 339.05 141.15
L 353.95 141.15
Q 354.45 141.15 354.45 140.55
L 354.45 138.05
Q 354.45 137.55 353.95 137.55
L 343.7 137.55
Q 344.6 136.55 345.45 135.5 346.3 134.5 347.1 133.55 348.05 132.4 349.25 130.95 350.45 129.55 351.5 128 352.55 126.4 353.25 124.8 353.95 123.15 353.95 121.6 353.95 119.75 353.35 118.35 352.75 117 351.7 116.05 350.7 115.1 349.25 114.65 347.85 114.2 346.15 114.2 344.5 114.2 342.8 114.75 341.1 115.3 339.75 116 339.4 116.2 339.3 116.4 339.2 116.55 339.25 116.75
L 339.75 119.4
Q 339.85 119.7 340.1 119.7 340.4 119.75 340.65 119.55 342.25 118.65 343.6 118.25 344.95 117.85 346.4 117.85
M 371.5 114.85
Q 370.1 114.25 368.3 114.25 365.55 114.25 363.8 115.55 362.1 116.85 361.15 118.85 360.2 120.85 359.85 123.2 359.5 125.6 359.5 127.75 359.5 134.15 361.65 137.7 363.8 141.25 368.3 141.25 370.55 141.25 372.15 140.35 373.8 139.45 374.9 137.7 375.95 136 376.5 133.45 377 130.95 377 127.75 377 126.3 376.85 124.75 376.7 123.2 376.4 121.7 376 120.2 375.4 118.85 374.8 117.5 373.8 116.45 372.85 115.45 371.5 114.85
M 368.3 118.05
Q 369.4 118.05 370.25 118.55 371.15 119.05 371.8 120.25 372.4 121.4 372.75 123.25 373.1 125.1 373.1 127.75 373.1 130.45 372.75 132.3 372.4 134.15 371.8 135.3 371.15 136.45 370.25 137 369.4 137.5 368.3 137.5 367.15 137.5 366.3 137 365.45 136.45 364.8 135.3 364.15 134.15 363.85 132.3 363.5 130.45 363.5 127.75 363.5 125.1 363.85 123.25 364.15 121.4 364.8 120.25 365.45 119.05 366.3 118.55 367.15 118.05 368.3 118.05 Z"/>
</g>

<path id="Layer0_0_1_STROKES" stroke="#1E1E1E" stroke-width="3" stroke-linejoin="round" stroke-linecap="butt" fill="none" d="
M 46.1 158.35
L 207.1 158.35
M 46.1 275.35
L 207.1 275.35"/>

<path id="Layer0_0_2_STROKES" stroke="#000000" stroke-width="3" stroke-linejoin="round" stroke-linecap="butt" fill="none" d="
M 219.85 158.35
L 207.1 158.35
M 219.85 49.85
L 50.1 49.85
Q 50.8 50.95 51.55 52.2 57.15 61.95 57.15 75.65 57.15 89.4 51.55 99.15 51 100.1 50.45 100.9
M 219.85 275.35
L 207.1 275.35"/>
</defs>

<g transform="matrix( 1, 0, 0, 1, 0,0) ">
<use xlink:href="#Layer0_0_FILL"/>

<use xlink:href="#Layer0_0_1_STROKES"/>

<use xlink:href="#Layer0_0_2_STROKES"/>
</g>
</svg>
