
<svg xmlns="http://www.w3.org/2000/svg" version="1.1" xmlns:xlink="http://www.w3.org/1999/xlink" preserveAspectRatio="none" x="0px" y="0px" width="115px" height="171px" viewBox="0 0 115 171">
<defs>
<g id="Symbol_5_0_Layer0_0_FILL">
<path fill="#F4BA86" stroke="none" d="
M 0 113.2
L 0 169.8 56.65 169.8 56.65 113.2 0 113.2
M 56.65 0
L 0 0 0 113.15 113.25 113.15 113.25 56.55 56.65 56.55 56.65 0 Z"/>
</g>

<g id="gfcnf43545_0_Layer0_0_FILL">
<path fill="#1E1E1E" stroke="none" d="
M 10.4 -3.55
Q 10.4 -4.5 10.3 -5.2 10.2 -5.85 9.9 -6.25 9.65 -6.65 9.15 -6.8 8.7 -6.95 7.9 -6.95
L -9 -6.95
Q -9.25 -6.95 -9.5 -6.85 -9.7 -6.75 -9.7 -6.1
L -9.7 -2.6
Q -9.7 -2.1 -9.5 -1.95 -9.25 -1.8 -9 -1.8
L 4.9 -1.8
Q 5.4 -1.8 5.4 -1.15
L 5.4 10.15
Q 5.4 11.05 6.2 11.05
L 9.75 11.05
Q 10.4 11.05 10.4 10.15
L 10.4 -3.55 Z"/>
</g>

<g id="Symbol_5_0_Layer0_2_STROKES_1_FILL">
<path fill="#00BDF2" stroke="none" d="
M 283.65 455.85
Q 283.653515625 456.2607421875 283.95 456.55 284.2392578125 456.846484375 284.65 456.85
L 287.65 456.85
Q 288.0607421875 456.846484375 288.35 456.55 288.646484375 456.2607421875 288.65 455.85 288.646484375 455.4392578125 288.35 455.15 288.0607421875 454.853515625 287.65 454.85
L 284.65 454.85
Q 284.2392578125 454.853515625 283.95 455.15 283.653515625 455.4392578125 283.65 455.85
M 295.35 455.15
Q 295.0607421875 454.853515625 294.65 454.85
L 291.65 454.85
Q 291.2392578125 454.853515625 290.95 455.15 290.653515625 455.4392578125 290.65 455.85 290.653515625 456.2607421875 290.95 456.55 291.2392578125 456.846484375 291.65 456.85
L 294.65 456.85
Q 295.0607421875 456.846484375 295.35 456.55 295.646484375 456.2607421875 295.65 455.85 295.646484375 455.4392578125 295.35 455.15
M 297.95 456.55
Q 298.2392578125 456.846484375 298.65 456.85
L 300.35 456.85
Q 300.7607421875 456.846484375 301.05 456.55 301.346484375 456.2607421875 301.35 455.85
L 301.35 454.55
Q 301.346484375 454.1392578125 301.05 453.85 300.7607421875 453.553515625 300.35 453.55 299.9392578125 453.553515625 299.65 453.85 299.353515625 454.1392578125 299.35 454.55
L 299.35 454.85 298.65 454.85
Q 298.2392578125 454.853515625 297.95 455.15 297.653515625 455.4392578125 297.65 455.85 297.653515625 456.2607421875 297.95 456.55
M 299.65 446.85
Q 299.353515625 447.1392578125 299.35 447.55
L 299.35 450.55
Q 299.353515625 450.9607421875 299.65 451.25 299.9392578125 451.546484375 300.35 451.55 300.7607421875 451.546484375 301.05 451.25 301.346484375 450.9607421875 301.35 450.55
L 301.35 447.55
Q 301.346484375 447.1392578125 301.05 446.85 300.7607421875 446.553515625 300.35 446.55 299.9392578125 446.553515625 299.65 446.85
M 243.7 456.85
L 245.65 456.85
Q 246.0607421875 456.846484375 246.35 456.55 246.646484375 456.2607421875 246.65 455.85 246.646484375 455.4392578125 246.35 455.15 246.0607421875 454.853515625 245.65 454.85
L 243.7 454.85
Q 243.2892578125 454.853515625 243 455.15 242.703515625 455.4392578125 242.7 455.85 242.703515625 456.2607421875 243 456.55 243.2892578125 456.846484375 243.7 456.85
M 253.65 455.85
Q 253.646484375 455.4392578125 253.35 455.15 253.0607421875 454.853515625 252.65 454.85
L 249.65 454.85
Q 249.2392578125 454.853515625 248.95 455.15 248.653515625 455.4392578125 248.65 455.85 248.653515625 456.2607421875 248.95 456.55 249.2392578125 456.846484375 249.65 456.85
L 252.65 456.85
Q 253.0607421875 456.846484375 253.35 456.55 253.646484375 456.2607421875 253.65 455.85
M 255.95 456.55
Q 256.2392578125 456.846484375 256.65 456.85
L 259.65 456.85
Q 260.0607421875 456.846484375 260.35 456.55 260.646484375 456.2607421875 260.65 455.85 260.646484375 455.4392578125 260.35 455.15 260.0607421875 454.853515625 259.65 454.85
L 256.65 454.85
Q 256.2392578125 454.853515625 255.95 455.15 255.653515625 455.4392578125 255.65 455.85 255.653515625 456.2607421875 255.95 456.55
M 267.35 455.15
Q 267.0607421875 454.853515625 266.65 454.85
L 263.65 454.85
Q 263.2392578125 454.853515625 262.95 455.15 262.653515625 455.4392578125 262.65 455.85 262.653515625 456.2607421875 262.95 456.55 263.2392578125 456.846484375 263.65 456.85
L 266.65 456.85
Q 267.0607421875 456.846484375 267.35 456.55 267.646484375 456.2607421875 267.65 455.85 267.646484375 455.4392578125 267.35 455.15
M 276.95 456.55
Q 277.2392578125 456.846484375 277.65 456.85
L 280.65 456.85
Q 281.0607421875 456.846484375 281.35 456.55 281.646484375 456.2607421875 281.65 455.85 281.646484375 455.4392578125 281.35 455.15 281.0607421875 454.853515625 280.65 454.85
L 277.65 454.85
Q 277.2392578125 454.853515625 276.95 455.15 276.653515625 455.4392578125 276.65 455.85 276.653515625 456.2607421875 276.95 456.55
M 273.65 456.85
Q 274.0607421875 456.846484375 274.35 456.55 274.646484375 456.2607421875 274.65 455.85 274.646484375 455.4392578125 274.35 455.15 274.0607421875 454.853515625 273.65 454.85
L 270.65 454.85
Q 270.2392578125 454.853515625 269.95 455.15 269.653515625 455.4392578125 269.65 455.85 269.653515625 456.2607421875 269.95 456.55 270.2392578125 456.846484375 270.65 456.85
L 273.65 456.85
M 246.7 398.2
L 243.7 398.2
Q 243.2892578125 398.203515625 243 398.5 242.703515625 398.7892578125 242.7 399.2 242.703515625 399.6107421875 243 399.9 243.2892578125 400.196484375 243.7 400.2
L 246.7 400.2
Q 247.1107421875 400.196484375 247.4 399.9 247.696484375 399.6107421875 247.7 399.2 247.696484375 398.7892578125 247.4 398.5 247.1107421875 398.203515625 246.7 398.2
M 253.7 400.2
Q 254.1107421875 400.196484375 254.4 399.9 254.696484375 399.6107421875 254.7 399.2 254.696484375 398.7892578125 254.4 398.5 254.1107421875 398.203515625 253.7 398.2
L 250.7 398.2
Q 250.2892578125 398.203515625 250 398.5 249.703515625 398.7892578125 249.7 399.2 249.703515625 399.6107421875 250 399.9 250.2892578125 400.196484375 250.7 400.2
L 253.7 400.2
M 261.7 399.2
Q 261.696484375 398.7892578125 261.4 398.5 261.1107421875 398.203515625 260.7 398.2
L 257.7 398.2
Q 257.2892578125 398.203515625 257 398.5 256.703515625 398.7892578125 256.7 399.2 256.703515625 399.6107421875 257 399.9 257.2892578125 400.196484375 257.7 400.2
L 260.7 400.2
Q 261.1107421875 400.196484375 261.4 399.9 261.696484375 399.6107421875 261.7 399.2
M 268.7 399.2
Q 268.696484375 398.7892578125 268.4 398.5 268.1107421875 398.203515625 267.7 398.2
L 264.7 398.2
Q 264.2892578125 398.203515625 264 398.5 263.703515625 398.7892578125 263.7 399.2 263.703515625 399.6107421875 264 399.9 264.2892578125 400.196484375 264.7 400.2
L 267.7 400.2
Q 268.1107421875 400.196484375 268.4 399.9 268.696484375 399.6107421875 268.7 399.2
M 274.7 400.2
Q 275.1107421875 400.196484375 275.4 399.9 275.696484375 399.6107421875 275.7 399.2 275.696484375 398.7892578125 275.4 398.5 275.1107421875 398.203515625 274.7 398.2
L 271.7 398.2
Q 271.2892578125 398.203515625 271 398.5 270.703515625 398.7892578125 270.7 399.2 270.703515625 399.6107421875 271 399.9 271.2892578125 400.196484375 271.7 400.2
L 274.7 400.2
M 282.7 399.2
Q 282.696484375 398.7892578125 282.4 398.5 282.1107421875 398.203515625 281.7 398.2
L 278.7 398.2
Q 278.2892578125 398.203515625 278 398.5 277.703515625 398.7892578125 277.7 399.2 277.703515625 399.6107421875 278 399.9 278.2892578125 400.196484375 278.7 400.2
L 281.7 400.2
Q 282.1107421875 400.196484375 282.4 399.9 282.696484375 399.6107421875 282.7 399.2
M 299.65 439.85
Q 299.353515625 440.1392578125 299.35 440.55
L 299.35 443.55
Q 299.353515625 443.9607421875 299.65 444.25 299.9392578125 444.546484375 300.35 444.55 300.7607421875 444.546484375 301.05 444.25 301.346484375 443.9607421875 301.35 443.55
L 301.35 440.55
Q 301.346484375 440.1392578125 301.05 439.85 300.7607421875 439.553515625 300.35 439.55 299.9392578125 439.553515625 299.65 439.85
M 300.35 432.55
Q 299.9392578125 432.553515625 299.65 432.85 299.353515625 433.1392578125 299.35 433.55
L 299.35 436.55
Q 299.353515625 436.9607421875 299.65 437.25 299.9392578125 437.546484375 300.35 437.55 300.7607421875 437.546484375 301.05 437.25 301.346484375 436.9607421875 301.35 436.55
L 301.35 433.55
Q 301.346484375 433.1392578125 301.05 432.85 300.7607421875 432.553515625 300.35 432.55
M 301.35 426.55
Q 301.346484375 426.1392578125 301.05 425.85 300.7607421875 425.553515625 300.35 425.55 299.9392578125 425.553515625 299.65 425.85 299.353515625 426.1392578125 299.35 426.55
L 299.35 429.55
Q 299.353515625 429.9607421875 299.65 430.25 299.9392578125 430.546484375 300.35 430.55 300.7607421875 430.546484375 301.05 430.25 301.346484375 429.9607421875 301.35 429.55
L 301.35 426.55
M 301.35 419.55
Q 301.346484375 419.1392578125 301.05 418.85 300.7607421875 418.553515625 300.35 418.55 299.9392578125 418.553515625 299.65 418.85 299.353515625 419.1392578125 299.35 419.55
L 299.35 422.55
Q 299.353515625 422.9607421875 299.65 423.25 299.9392578125 423.546484375 300.35 423.55 300.7607421875 423.546484375 301.05 423.25 301.346484375 422.9607421875 301.35 422.55
L 301.35 419.55
M 301.35 412.55
Q 301.346484375 412.1392578125 301.05 411.85 300.7607421875 411.553515625 300.35 411.55 299.9392578125 411.553515625 299.65 411.85 299.353515625 412.1392578125 299.35 412.55
L 299.35 415.55
Q 299.353515625 415.9607421875 299.65 416.25 299.9392578125 416.546484375 300.35 416.55 300.7607421875 416.546484375 301.05 416.25 301.346484375 415.9607421875 301.35 415.55
L 301.35 412.55
M 289.4 398.5
Q 289.1107421875 398.203515625 288.7 398.2
L 285.7 398.2
Q 285.2892578125 398.203515625 285 398.5 284.703515625 398.7892578125 284.7 399.2 284.703515625 399.6107421875 285 399.9 285.2892578125 400.196484375 285.7 400.2
L 288.7 400.2
Q 289.1107421875 400.196484375 289.4 399.9 289.696484375 399.6107421875 289.7 399.2 289.696484375 398.7892578125 289.4 398.5
M 299.65 404.85
Q 299.353515625 405.1392578125 299.35 405.55
L 299.35 408.55
Q 299.353515625 408.9607421875 299.65 409.25 299.9392578125 409.546484375 300.35 409.55 300.7607421875 409.546484375 301.05 409.25 301.346484375 408.9607421875 301.35 408.55
L 301.35 405.55
Q 301.346484375 405.1392578125 301.05 404.85 300.7607421875 404.553515625 300.35 404.55 299.9392578125 404.553515625 299.65 404.85
M 295.7 400.2
Q 296.1107421875 400.196484375 296.4 399.9 296.696484375 399.6107421875 296.7 399.2 296.696484375 398.7892578125 296.4 398.5 296.1107421875 398.203515625 295.7 398.2
L 292.7 398.2
Q 292.2892578125 398.203515625 292 398.5 291.703515625 398.7892578125 291.7 399.2 291.703515625 399.6107421875 292 399.9 292.2892578125 400.196484375 292.7 400.2
L 295.7 400.2
M 299.7 398.2
Q 299.2892578125 398.203515625 299 398.5 298.703515625 398.7892578125 298.7 399.2 298.703515625 399.6107421875 299 399.9 299.15703125 400.0609375 299.35 400.1
L 299.35 401.55
Q 299.353515625 401.9607421875 299.65 402.25 299.9392578125 402.546484375 300.35 402.55 300.7607421875 402.546484375 301.05 402.25 301.346484375 401.9607421875 301.35 401.55
L 301.35 399.2
Q 301.346484375 398.7892578125 301.05 398.5 300.7607421875 398.203515625 300.35 398.2
L 299.7 398.2 Z"/>
</g>

<path id="gfcnf43545_0_Layer1_0_1_STROKES" stroke="#1E1E1E" stroke-width="3" stroke-linejoin="round" stroke-linecap="round" fill="none" d="
M 23.2 0.1
Q 23.2 9.65 16.4 16.4 9.65 23.2 0.1 23.2 -9.5 23.2 -16.25 16.4 -23 9.65 -23 0.1 -23 -9.5 -16.25 -16.25 -9.5 -23 0.1 -23 9.65 -23 16.4 -16.25 23.2 -9.5 23.2 0.1 Z"/>

<path id="Symbol_5_0_Layer0_3_1_STROKES" stroke="#E98120" stroke-width="2" stroke-linejoin="round" stroke-linecap="round" fill="none" d="
M 356.95 455.8
L 356.95 399.2 300.35 399.2 300.35 342.65 243.7 342.65 243.7 512.45 300.35 512.45 300.35 455.85 356.95 455.8 Z"/>
</defs>

<g transform="matrix( 1, 0, 0, 1, 1,1) ">
<g transform="matrix( 1, 0, 0, 1, 0,0) ">
<use xlink:href="#Symbol_5_0_Layer0_0_FILL"/>
</g>

<g transform="matrix( 0.699981689453125, 0, 0, 0.699981689453125, 28.55,84.25) ">
<g transform="matrix( 1, 0, 0, 1, 0,0) ">
<use xlink:href="#gfcnf43545_0_Layer1_0_1_STROKES"/>
</g>

<g transform="matrix( 1, 0, 0, 1, 0,0) ">
<use xlink:href="#gfcnf43545_0_Layer0_0_FILL"/>
</g>
</g>

<g transform="matrix( 1, 0, 0, 1, -243.7,-342.65) ">
<use xlink:href="#Symbol_5_0_Layer0_2_STROKES_1_FILL"/>
</g>

<g transform="matrix( 1, 0, 0, 1, -243.7,-342.65) ">
<use xlink:href="#Symbol_5_0_Layer0_3_1_STROKES"/>
</g>
</g>
</svg>
