
<svg xmlns="http://www.w3.org/2000/svg" version="1.1" xmlns:xlink="http://www.w3.org/1999/xlink" preserveAspectRatio="none" x="0px" y="0px" width="1200px" height="410px" viewBox="0 0 1200 410">
<defs>
<g id="Layer0_0_FILL">
<path fill="#1E1E1E" stroke="none" d="
M 274.15 224.9
Q 273.95 224.95 273.9 225.05
L 267.75 230.7
Q 267.55 230.9 267.55 231.1 267.5 231.35 267.65 231.5
L 269.45 233.65
Q 269.6 233.8 269.85 233.75 270.1 233.75 270.35 233.6
L 273.3 231 273.3 254.7
Q 273.3 255.2 273.85 255.2
L 277.05 255.2
Q 277.55 255.2 277.55 254.7
L 277.55 225.9
Q 277.55 225.1 277.4 224.95 277.3 224.8 276.6 224.8
L 274.5 224.8
Q 274.35 224.8 274.15 224.9
M 302.65 224.95
Q 300.95 224.45 298.95 224.45 297 224.45 295.3 225 293.6 225.55 292.35 226.55 291.1 227.55 290.35 228.95 289.6 230.35 289.6 232.05 289.6 234.35 291 236.15 292.4 237.95 294.8 239.35 293.6 239.95 292.5 240.65 291.4 241.35 290.6 242.25 289.8 243.15 289.25 244.3 288.8 245.45 288.8 246.95 288.8 249.1 289.7 250.7 290.6 252.35 292.05 253.4 293.5 254.45 295.3 255 297.15 255.55 298.95 255.55 300.9 255.55 302.7 255 304.6 254.45 306 253.4 307.4 252.35 308.25 250.7 309.15 249.1 309.15 246.95 309.15 245.55 308.7 244.55 308.3 243.5 307.5 242.6 306.7 241.7 305.6 240.9 304.45 240.15 303.05 239.3 305.65 237.5 306.9 235.75 308.15 233.95 308.15 231.95 308.15 230.2 307.45 228.8 306.75 227.4 305.55 226.45 304.35 225.5 302.65 224.95
M 298.95 228.35
Q 299.9 228.35 300.75 228.7 301.6 228.95 302.25 229.5 302.9 230.05 303.25 230.75 303.65 231.45 303.65 232.25 303.65 232.95 303.15 233.75 302.65 234.55 301.9 235.3 301.15 236 300.35 236.55 299.6 237.1 298.95 237.35 298.45 237.15 297.65 236.65 296.85 236.2 296.05 235.5 295.3 234.8 294.75 234 294.15 233.2 294.15 232.35 294.15 231.4 294.6 230.65 295.05 229.95 295.75 229.45 296.4 228.95 297.25 228.65 298.1 228.35 298.95 228.35
M 295.3 243.25
Q 296.15 242.6 297.2 242.2 298.15 241.75 298.95 241.55 299.95 241.9 300.95 242.5 301.95 243.1 302.8 243.8 303.6 244.55 304.1 245.35 304.6 246.2 304.6 246.95 304.6 248 304.1 248.85 303.6 249.7 302.8 250.3 302 250.9 301 251.2 299.95 251.5 298.95 251.5 298 251.5 296.95 251.2 295.95 250.85 295.1 250.25 294.3 249.65 293.8 248.8 293.25 247.95 293.25 246.95 293.25 245.7 293.85 244.8 294.45 243.9 295.3 243.25
M 534.3 327.95
Q 534.5 327.95 534.65 327.8 534.8 327.65 534.8 327.45
L 534.8 324.3
Q 534.8 324.1 534.65 323.95 534.5 323.8 534.3 323.8
L 513.2 323.8
Q 513 323.8 512.85 323.95 512.7 324.1 512.7 324.3
L 512.7 327.45
Q 512.7 327.65 512.85 327.8 513 327.95 513.2 327.95
L 534.3 327.95
M 534.8 332.6
Q 534.8 332.4 534.65 332.25 534.5 332.15 534.3 332.15
L 513.2 332.15
Q 513 332.15 512.85 332.25 512.7 332.4 512.7 332.6
L 512.7 335.75
Q 512.7 336 512.85 336.1 513 336.25 513.2 336.25
L 534.3 336.25
Q 534.5 336.25 534.65 336.1 534.8 336 534.8 335.75
L 534.8 332.6
M 498.75 237.15
Q 498.55 237.15 498.45 237.3 498.3 237.45 498.3 237.65
L 498.3 240.75
Q 498.3 240.95 498.45 241.1 498.55 241.25 498.75 241.25
L 519.9 241.25
Q 520.4 241.25 520.4 240.75
L 520.4 237.65
Q 520.4 237.15 519.9 237.15
L 498.75 237.15
M 618.75 237.15
Q 618.55 237.15 618.45 237.3 618.3 237.45 618.3 237.65
L 618.3 240.75
Q 618.3 240.95 618.45 241.1 618.55 241.25 618.75 241.25
L 639.9 241.25
Q 640.4 241.25 640.4 240.75
L 640.4 237.65
Q 640.4 237.15 639.9 237.15
L 618.75 237.15
M 375.8 336.7
Q 375 337.5 375 338.75 375 340.05 375.8 340.85 376.65 341.7 377.9 341.7 379.15 341.7 380 340.85 380.85 340.05 380.85 338.75 380.85 337.5 380 336.7 379.15 335.9 377.9 335.9 376.6 335.9 375.8 336.7
M 367.05 328.75
Q 366.45 328.75 366.45 329.3
L 366.45 331.85
Q 366.45 332.35 367.05 332.35
L 388.9 332.35
Q 389.4 332.35 389.4 331.85
L 389.4 329.3
Q 389.4 328.75 388.9 328.75
L 367.05 328.75
M 377.9 319.45
Q 376.6 319.45 375.8 320.3 375 321.1 375 322.35 375 323.6 375.8 324.45 376.65 325.25 377.9 325.25 379.15 325.25 380 324.45 380.85 323.6 380.85 322.35 380.85 321.1 380 320.3 379.15 319.45 377.9 319.45
M 340.4 240.75
L 340.4 237.65
Q 340.4 237.15 339.9 237.15
L 318.75 237.15
Q 318.55 237.15 318.45 237.3 318.3 237.45 318.3 237.65
L 318.3 240.75
Q 318.3 240.95 318.45 241.1 318.55 241.25 318.75 241.25
L 324.3 241.25 334.9 241.25 339.9 241.25
Q 340.4 241.25 340.4 240.75
M 378.75 237.15
Q 378.55 237.15 378.45 237.3 378.3 237.45 378.3 237.65
L 378.3 240.75
Q 378.3 240.95 378.45 241.1 378.55 241.25 378.75 241.25
L 385.45 241.25 396.05 241.25 399.9 241.25
Q 400.4 241.25 400.4 240.75
L 400.4 237.65
Q 400.4 237.15 399.9 237.15
L 378.75 237.15
M 368.25 234.35
Q 368.6 233.25 368.6 232.15 368.6 230.15 367.75 228.65 366.9 227.15 365.55 226.25 364.25 225.35 362.5 224.9 360.75 224.45 358.95 224.45 357.25 224.45 355.6 224.8 353.9 225.2 352.15 225.8 351.75 226 351.6 226.2 351.45 226.35 351.55 226.6
L 351.9 229.55
Q 352 229.9 352.2 230 352.4 230.1 352.9 229.9 353.5 229.65 354.3 229.4 355.1 229.15 355.9 229 356.7 228.8 357.45 228.7 358.15 228.6 358.7 228.6 359.55 228.6 360.5 228.8 361.45 229 362.3 229.5 363.1 229.95 363.65 230.75 364.15 231.5 364.15 232.5 364.15 233.85 363.35 234.75 362.55 235.7 361.35 236.3 360.2 236.9 358.95 237.15 357.7 237.4 356.85 237.4
L 354.95 237.4
Q 354.6 237.4 354.5 237.5 354.4 237.55 354.4 237.95
L 354.4 240.9
Q 354.4 241.2 354.5 241.3 354.6 241.4 354.95 241.4
L 356.9 241.4
Q 358.85 241.4 360.2 241.8 361.6 242.15 362.5 242.85 363.35 243.5 363.8 244.35 364.2 245.2 364.2 246.15 364.2 248.8 362.25 250.15 361.6 250.6 360.85 250.85 360.05 251.15 359.2 251.25 358.35 251.35 357.45 251.3 356.55 251.25 355.75 251.2 354.65 251.1 353.6 250.8 352.55 250.5 351.5 250.2 350.95 249.95 350.75 250.1 350.55 250.2 350.5 250.55
L 350.15 253.6
Q 350.1 253.95 350.3 254.1 350.45 254.3 350.85 254.4 352.3 254.95 354.05 255.25 355.8 255.55 357.55 255.55 359.85 255.55 362 254.95 364.15 254.4 365.65 253.15 367.15 251.9 368 250.15 368.8 248.35 368.8 246.25 368.8 244.05 367.45 242.25 366.1 240.5 363.45 239.35 364.55 238.85 365.5 238.1 366.45 237.35 367.15 236.35 367.85 235.4 368.25 234.35
M 858.75 237.15
Q 858.55 237.15 858.45 237.3 858.3 237.45 858.3 237.65
L 858.3 240.75
Q 858.3 240.95 858.45 241.1 858.55 241.25 858.75 241.25
L 879.9 241.25
Q 880.4 241.25 880.4 240.75
L 880.4 237.65
Q 880.4 237.15 879.9 237.15
L 858.75 237.15
M 738.75 237.15
Q 738.55 237.15 738.45 237.3 738.3 237.45 738.3 237.65
L 738.3 240.75
Q 738.3 240.95 738.45 241.1 738.55 241.25 738.75 241.25
L 759.9 241.25
Q 760.4 241.25 760.4 240.75
L 760.4 237.65
Q 760.4 237.15 759.9 237.15
L 738.75 237.15
M 1154.15 351.4
L 1150.7 351.4
Q 1150.15 351.4 1150.15 351.95
L 1150.15 366.1 1146.45 366.1 1146.45 352.65
Q 1146.45 352.15 1145.9 352.15
L 1142.65 352.15
Q 1142.1 352.15 1142.1 352.65
L 1142.1 387.35
Q 1142.1 387.9 1142.65 387.9
L 1145.9 387.9
Q 1146.45 387.9 1146.45 387.35
L 1146.45 369.95 1150.15 369.95 1150.15 388.85
Q 1150.15 389.4 1150.65 389.4
L 1154.15 389.4
Q 1154.7 389.4 1154.7 388.85
L 1154.7 351.95
Q 1154.7 351.4 1154.15 351.4
M 1124.05 354.55
Q 1123.85 354.55 1123.65 354.7 1123.45 354.85 1123.45 355.05
L 1123.45 357.8
Q 1123.45 358.3 1124.05 358.3
L 1132.9 358.3
Q 1133.7 358.3 1133.9 358.6 1134.1 358.9 1134.05 359.75 1134 361.7 1133.15 364.05 1132.3 366.35 1130.75 368.65 1129.25 370.9 1127.05 373.05 1124.85 375.2 1122.15 376.85 1121.95 377 1121.8 377.3 1121.65 377.6 1121.9 377.95
L 1123.5 380.2
Q 1123.7 380.45 1124.05 380.4 1124.35 380.35 1124.7 380.2 1127.8 378.15 1130.4 375.65 1132.95 373.15 1134.75 370.25 1136.55 367.35 1137.55 364.1 1138.55 360.9 1138.6 357.4 1138.65 355.85 1138.05 355.2 1137.4 354.55 1135.65 354.55
L 1124.05 354.55
M 985.7 242.15
Q 985.5 242.15 985.35 242.25 985.2 242.4 985.2 242.6
L 985.2 245.75
Q 985.2 246 985.35 246.1 985.5 246.25 985.7 246.25
L 1006.8 246.25
Q 1007 246.25 1007.15 246.1 1007.3 246 1007.3 245.75
L 1007.3 242.6
Q 1007.3 242.4 1007.15 242.25 1007 242.15 1006.8 242.15
L 985.7 242.15
M 985.7 233.8
Q 985.5 233.8 985.35 233.95 985.2 234.1 985.2 234.3
L 985.2 237.45
Q 985.2 237.65 985.35 237.8 985.5 237.95 985.7 237.95
L 1006.8 237.95
Q 1007 237.95 1007.15 237.8 1007.3 237.65 1007.3 237.45
L 1007.3 234.3
Q 1007.3 234.1 1007.15 233.95 1007 233.8 1006.8 233.8
L 985.7 233.8
M 1024.65 234.75
Q 1024.3 237.5 1024.3 239.95 1024.3 247.3 1026.75 251.35 1029.2 255.4 1034.35 255.4 1036.9 255.4 1038.75 254.4 1040.6 253.3 1041.85 251.35 1043.1 249.4 1043.7 246.5 1044.3 243.6 1044.3 239.95 1044.3 238.3 1044.1 236.55 1043.95 234.75 1043.55 233.05 1043.15 231.35 1042.45 229.8 1041.75 228.25 1040.6 227.05 1039.55 225.9 1037.95 225.2 1036.4 224.55 1034.35 224.55 1031.15 224.55 1029.2 226 1027.25 227.5 1026.15 229.75 1025.05 232.05 1024.65 234.75
M 1029.25 245.2
Q 1028.85 243.05 1028.85 239.95 1028.85 236.95 1029.25 234.8 1029.6 232.7 1030.35 231.35 1031.05 230.05 1032.05 229.5 1033.05 228.9 1034.35 228.9 1035.55 228.9 1036.6 229.5 1037.6 230.05 1038.35 231.35 1039.05 232.7 1039.45 234.8 1039.8 236.95 1039.8 239.95 1039.8 243.05 1039.45 245.2 1039.05 247.3 1038.35 248.6 1037.6 249.95 1036.6 250.5 1035.55 251.1 1034.35 251.1 1033.05 251.1 1032.05 250.5 1031.05 249.95 1030.35 248.6 1029.6 247.3 1029.25 245.2 Z"/>

<path fill="#7A94C2" stroke="none" d="
M 154.6 321.7
L 154.6 340.75
Q 154.6 350.75 164.6 350.75
L 239.65 350.75
Q 249.65 350.75 249.65 340.75
L 249.65 321.7
Q 249.65 311.7 239.65 311.7
L 164.6 311.7
Q 154.6 311.7 154.6 321.7
M 176.55 321.1
Q 176.8 321.2 177 321.35 177.25 321.5 177.35 321.75 177.45 322 177.45 322.25
L 177.45 328.1 179.35 328.1
Q 179.65 328.1 179.85 328.2 180.05 328.3 180.2 328.5 180.3 328.65 180.4 328.9 180.45 329.1 180.45 329.35 180.45 329.6 180.4 329.8 180.3 330.05 180.2 330.2 180.05 330.4 179.85 330.5 179.65 330.6 179.35 330.6
L 177.45 330.6 177.45 339.55
Q 177.45 339.85 177.35 340.1 177.25 340.3 177 340.45 176.8 340.6 176.55 340.7 176.3 340.75 176.05 340.75 175.7 340.75 175.45 340.7 175.2 340.6 175 340.45 174.8 340.3 174.65 340.1 174.55 339.85 174.6 339.55
L 174.6 322.25
Q 174.55 322 174.65 321.75 174.8 321.5 175 321.35 175.2 321.2 175.45 321.1 175.7 321.05 176.05 321.05 176.3 321.05 176.55 321.1
M 173.7 331.6
Q 173.85 331.75 173.95 331.95 174.05 332.15 174.05 332.45 174.1 332.65 174.05 332.9 174.05 333.1 173.95 333.3 173.85 333.5 173.65 333.65 173.45 333.75 173.2 333.85 172.8 333.9 172.4 333.95 172 333.95 171.6 334 171.15 334.05 170.7 334.1 170.25 334.1 169.75 334.15 169.3 334.2 168.8 334.2 168.3 334.25 167.8 334.25 167.3 334.3 166.85 334.3 166.437890625 334.341015625 165.9 334.35
L 165.9 334.35
Q 165.725 334.35 165.55 334.35 165.35 334.3 165.15 334.3 164.9 334.25 164.7 334.2 164.45 334.1 164.25 334 164.05 333.85 163.85 333.7 163.65 333.5 163.55 333.25 163.35 333.05 163.3 332.7 163.25 332.4 163.25 332
L 163.25 323.8
Q 163.25 323.2 163.7 322.95 163.9 322.8 164.1 322.75 164.35 322.65 164.6 322.65 164.7 322.65 164.8 322.7 164.9 322.7 165.05 322.75 165.3 322.8 165.55 322.9 165.65 322.95 165.7 323.05 165.8 323.15 165.95 323.25 166 323.35 166.05 323.5 166.1 323.6 166.15 323.7
L 166.15 331.85
Q 166.55 331.85 166.95 331.85 167.4 331.85 167.85 331.8 168.3 331.8 168.7 331.8 169.15 331.75 169.6 331.75 170 331.7 170.4 331.65 170.8 331.65 171.2 331.6 171.6 331.55 171.95 331.5 172.35 331.45 172.7 331.4
L 172.65 331.4
Q 173 331.35 173.3 331.4 173.55 331.45 173.7 331.6
M 187.05 321.3
Q 187.2 321.3 187.3 321.3 187.4 321.25 187.5 321.25 187.6 321.25 187.75 321.3 187.85 321.3 188 321.3 188.15 321.3 188.25 321.35 188.35 321.4 188.45 321.45 188.55 321.5 188.65 321.55 188.7 321.65 188.8 321.75 188.9 321.85 188.95 321.95 189 322.1 189 322.2
L 189 325.15 197.35 325.15
Q 197.65 325.15 197.85 325.25 198.05 325.3 198.2 325.5 198.25 325.7 198.3 325.9 198.35 326.1 198.35 326.35 198.35 326.6 198.3 326.85 198.25 327.05 198.2 327.25 198.05 327.4 197.85 327.5 197.65 327.6 197.35 327.6
L 188.45 327.6
Q 187.3 327.6 186.7 327 186.15 326.45 186.15 325.25
L 186.15 322.2
Q 186.15 322.1 186.15 321.95 186.2 321.85 186.3 321.75 186.35 321.65 186.4 321.55 186.5 321.5 186.55 321.45 186.65 321.4 186.8 321.35 186.9 321.3 187.05 321.3
M 192.8 332.1
Q 192.7 332.15 192.6 332.15 192.5 332.2 192.35 332.2 192.2 332.2 192.05 332.2 191.8 332.2 191.55 332.15 191.35 332.1 191.15 332 190.9 331.9 190.8 331.7 190.7 331.5 190.7 331.25
L 190.7 331.1 183.65 331.1
Q 183.4 331.1 183.2 331 183 330.9 182.95 330.75 182.85 330.6 182.8 330.4 182.8 330.2 182.8 329.95 182.8 329.7 182.8 329.5 182.85 329.35 182.95 329.15 183 329.05 183.2 328.95 183.4 328.9 183.65 328.9
L 200.55 328.9
Q 200.8 328.9 200.95 328.95 201.15 329.05 201.25 329.15 201.3 329.35 201.35 329.5 201.4 329.7 201.4 329.95 201.4 330.2 201.35 330.4 201.3 330.6 201.25 330.75 201.15 330.9 200.95 331 200.8 331.1 200.55 331.1
L 193.55 331.1 193.55 331.25
Q 193.55 331.4 193.5 331.5 193.45 331.6 193.45 331.65 193.35 331.75 193.3 331.85 193.2 331.9 193.1 331.95 192.95 332.05 192.8 332.1
M 193.15 333.45
Q 193.3 333.6 193.4 333.75 193.45 333.9 193.5 334.15 193.55 334.35 193.55 334.65 193.55 335 193.65 335.3 193.75 335.6 194 335.85 194.25 336.1 194.55 336.3 194.85 336.55 195.3 336.75 195.65 336.95 196.05 337.15 196.45 337.35 196.9 337.5 197.75 337.8 198.45 338.05 198.6 338.1 198.65 338.15 198.75 338.2 198.8 338.25 198.8 338.3 198.85 338.4 198.85 338.5 198.85 338.6 198.85 338.65 198.85 338.75 198.85 338.9 198.85 339 198.8 339.1 198.8 339.2 198.8 339.3 198.8 339.4 198.7 339.6 198.65 339.7 198.6 339.85 198.55 339.95 198.45 340.05 198.35 340.1 198.25 340.15 198.15 340.2 198.05 340.2 197.95 340.2 197.85 340.2 197.75 340.2 197.6 340.15 197.45 340.1 197.3 340.05 197.1 340.05 196.7 339.85 196.35 339.7 195.95 339.55 195.6 339.45 195.25 339.3 194.95 339.15 194.6 339.05 194.3 338.9 193.9 338.75 193.6 338.6 193.3 338.45 193.05 338.3 192.5 338 191.95 337.5 191.75 337.75 191.5 337.95 191.25 338.2 191 338.4 190.75 338.55 190.45 338.75 190.15 338.9 189.85 339.1 189.5 339.2 189.1 339.35 188.75 339.5 188.35 339.65 187.95 339.75 187.5 339.9 187 340.05 186.5 340.25 186.25 340.3 186.05 340.25 185.85 340.25 185.75 340.15 185.6 340.05 185.5 339.9 185.35 339.7 185.3 339.5 185.15 339.25 185.15 339 185.1 338.8 185.15 338.65 185.3 338.25 185.75 338.1 186.15 337.95 186.55 337.8 187 337.65 187.4 337.5 188.2 337.25 188.85 336.8 189.4 336.45 189.9 335.95 190.15 335.7 190.35 335.35 190.55 335.05 190.7 334.65 190.7 334.4 190.7 334.2 190.75 334 190.8 333.85 190.85 333.7 190.9 333.55 191 333.4 191.05 333.35 191.25 333.15 191.5 333.05 191.65 333.05 191.75 333.05 191.85 333 191.9 333 192 333 192.15 333 192.3 333.05 192.4 333.05 192.55 333.05 192.65 333.1 192.8 333.15 192.95 333.25 193.05 333.35 193.15 333.45
M 216.6 321.6
Q 216.8 321.65 216.95 321.7 217 321.8 217.1 321.85 217.15 321.95 217.15 322.05 217.2 322.15 217.2 322.35 217.2 322.5 217.2 322.7
L 217.2 329.95
Q 217.2 330.25 217.15 330.45 217.05 330.65 216.95 330.75 216.8 330.85 216.6 330.9 216.4 330.95 216.15 330.95 215.85 330.95 215.6 330.9 215.35 330.85 215.2 330.75 215 330.65 214.9 330.45 214.8 330.25 214.8 329.95
L 214.8 327.1 213.2 327.1
Q 212.9 327.1 212.7 327 212.5 326.9 212.4 326.7 212.25 326.55 212.2 326.35 212.15 326.1 212.15 325.85 212.15 325.6 212.2 325.4 212.25 325.15 212.4 324.95 212.5 324.8 212.7 324.7 212.9 324.6 213.2 324.6
L 214.8 324.6 214.8 322.7
Q 214.8 322.3 214.95 322.05 215 321.95 215.1 321.85 215.15 321.8 215.25 321.7 215.35 321.65 215.6 321.6 215.75 321.55 215.85 321.55 216 321.55 216.15 321.55 216.25 321.55 216.35 321.55 216.45 321.55 216.6 321.6
M 219.75 321.15
Q 220 321.15 220.2 321.2 220.45 321.25 220.6 321.35 220.75 321.45 220.8 321.65 220.9 321.85 220.9 322.15
L 220.9 330.15
Q 220.9 330.45 220.8 330.65 220.75 330.85 220.6 330.95 220.45 331.05 220.2 331.05 220 331.1 219.75 331.1 219.15 331.1 218.85 330.95 218.7 330.85 218.6 330.65 218.55 330.45 218.55 330.15
L 218.55 322.15
Q 218.55 321.55 218.85 321.35 219 321.25 219.2 321.2 219.45 321.15 219.75 321.15
M 213.05 328.4
Q 213.15 328.5 213.25 328.6 213.35 328.7 213.45 328.75 213.5 328.85 213.55 328.95 213.65 329 213.65 329.1 213.7 329.2 213.7 329.25 213.7 329.35 213.7 329.45 213.7 329.55 213.7 329.65 213.65 329.8 213.6 329.9 213.55 330.05 213.45 330.15 213.35 330.2 213.25 330.3 213.1 330.4 213 330.45 212.85 330.5 212.75 330.55 212.65 330.6 212.55 330.65 212.4 330.65 212.3 330.65 212.1 330.65 212 330.6 211.9 330.55 211.8 330.45 210.8 329.8 210.05 329 209.65 328.6 209.4 328.25 209.1 327.85 208.95 327.5 208.85 327.7 208.7 327.95 208.55 328.15 208.35 328.4 208 328.95 207.55 329.4 207.35 329.7 207.15 329.9 206.95 330.1 206.7 330.3 206.45 330.5 206.2 330.65 206 330.8 205.75 330.85 205.55 330.95 205.35 330.95 205.15 330.95 204.95 330.85 204.8 330.7 204.6 330.55 204.45 330.35 204.35 330.1 204.1 329.75 204.1 329.35 204.05 329.15 204.15 329 204.3 328.85 204.55 328.7 204.85 328.45 205.15 328.15 205.45 327.85 205.8 327.55 206.1 327.2 206.3 326.85 206.55 326.55 206.75 326.15 206.95 325.8 207.1 325.5 207.3 325.15 207.4 324.8 207.45 324.45 207.5 324.15 207.55 323.9 207.55 323.6
L 207.55 322.7
Q 207.55 322.45 207.65 322.25 207.75 322.05 207.95 321.95 208.2 321.8 208.4 321.75 208.65 321.7 208.9 321.7 209.15 321.7 209.35 321.75 209.55 321.8 209.75 321.95 209.9 322.05 210 322.25 210.1 322.45 210.1 322.7
L 210.1 323.7
Q 210.1 323.95 210.2 324.25 210.25 324.55 210.35 324.85 210.5 325.15 210.65 325.5 210.8 325.8 211 326.1 211.2 326.45 211.45 326.75 211.65 327.1 211.95 327.35 212.2 327.7 212.45 327.95 212.75 328.2 213.05 328.4
M 218.95 332.4
Q 219.35 332.4 219.7 332.5 220.05 332.65 220.3 332.9 220.55 333.15 220.65 333.5 220.8 333.8 220.8 334.25
L 220.8 338.6
Q 220.8 339.05 220.65 339.35 220.55 339.7 220.3 339.9 220.05 340.15 219.7 340.25 219.35 340.35 218.95 340.35
L 210.85 340.35
Q 210.4 340.35 210.05 340.25 209.75 340.15 209.5 339.9 209.25 339.7 209.1 339.35 209 339.05 209 338.6
L 209 334.25
Q 209 333.8 209.1 333.5 209.25 333.15 209.5 332.9 209.75 332.65 210.05 332.5 210.4 332.4 210.85 332.4
L 218.95 332.4
M 230.35 321.7
Q 230.45 321.7 230.6 321.7 230.85 321.7 231.1 321.75 231.35 321.8 231.55 321.9 231.75 322 231.85 322.15 231.95 322.35 231.95 322.65
L 232 323.5
Q 232 323.9 232.1 324.25 232.2 324.6 232.4 324.95 232.55 325.3 232.75 325.65 232.9 326 233.1 326.3 233.35 326.6 233.65 326.9 233.9 327.2 234.2 327.45 234.45 327.75 234.75 327.95 235.05 328.2 235.35 328.4 235.55 328.55 235.65 328.7 235.75 328.85 235.75 329 235.75 329.2 235.7 329.4 235.65 329.6 235.55 329.8 235.45 330.05 235.3 330.2 235.15 330.4 234.95 330.55 234.75 330.65 234.55 330.7 234.35 330.7 234.15 330.6 233.55 330.35 233.05 330 232.5 329.65 232.1 329.2 231.7 328.75 231.35 328.35 231 327.85 230.65 327.4 230.5 327.65 230.3 327.85 230.1 328.1 229.95 328.35 229.75 328.6 229.55 328.8 229.4 329.05 229.25 329.25 229 329.5 228.8 329.7 228.55 329.9 228.35 330.1 228.15 330.3 227.9 330.45 227.7 330.65 227.5 330.75 227.25 330.9 226.95 330.9 226.75 330.9 226.5 330.8 226.25 330.7 226.05 330.55 225.9 330.35 225.8 330.05 225.75 329.95 225.7 329.85 225.65 329.8 225.65 329.7 225.6 329.6 225.55 329.55 225.55 329.45 225.55 329.35 225.55 329.25 225.55 329.2 225.6 329.1 225.65 329 225.7 328.9 225.8 328.85 225.85 328.75 225.95 328.7 226.3 328.5 226.65 328.2 226.95 328 227.25 327.65 227.55 327.35 227.8 327.05 228.1 326.7 228.35 326.35 228.5 326 228.65 325.65 228.8 325.3 228.9 324.9 229.05 324.55 229.1 324.2 229.2 323.8 229.2 323.5
L 229.2 322.65
Q 229.2 322.5 229.2 322.4 229.25 322.3 229.3 322.15 229.35 322.1 229.45 322 229.5 321.95 229.65 321.85 229.75 321.8 229.9 321.8 230 321.75 230.1 321.7 230.2 321.7 230.35 321.7
M 241.1 321.45
Q 241.2 321.55 241.25 321.65 241.3 321.7 241.35 321.85 241.4 322 241.4 322.15
L 241.4 330.4
Q 241.35 330.7 241.25 330.9 241.15 331.1 240.9 331.2 240.7 331.3 240.4 331.35 240.15 331.4 239.85 331.4 239.55 331.4 239.35 331.35 239.1 331.3 238.9 331.2 238.75 331.1 238.65 330.9 238.55 330.7 238.55 330.4
L 238.55 322.15
Q 238.55 321.55 238.9 321.35 239.1 321.25 239.35 321.2 239.55 321.15 239.85 321.15 239.95 321.15 240.1 321.2 240.25 321.2 240.4 321.2 240.55 321.2 240.65 321.25 240.75 321.3 240.85 321.35 241 321.4 241.1 321.45
M 240.85 333.15
Q 241.1 333.45 241.2 333.8 241.35 334.15 241.35 334.55
L 241.35 339.9
Q 241.35 340 241.3 340.1 241.25 340.25 241.15 340.3 241.05 340.4 240.95 340.5 240.85 340.55 240.75 340.65 240.65 340.7 240.55 340.75 240.45 340.8 240.3 340.85 240.15 340.9 240.05 340.9 239.9 340.95 239.8 340.95 239.55 340.95 239.35 340.85 239.1 340.8 238.9 340.65 238.55 340.35 238.55 339.9
L 238.55 335.05 231.1 335.05
Q 230.85 335.05 230.7 335 230.5 334.9 230.4 334.7 230.15 334.3 230.15 333.85 230.15 333.6 230.2 333.35 230.25 333.15 230.4 332.95 230.5 332.8 230.7 332.7 230.85 332.6 231.1 332.6
L 239.55 332.6
Q 240.35 332.6 240.85 333.15
M 211.85 335.3
Q 211.8 335.4 211.8 335.55
L 211.8 337.25
Q 211.8 337.4 211.85 337.5 211.9 337.65 211.95 337.7 212 337.75 212.15 337.8 212.25 337.85 212.4 337.85
L 217.35 337.85
Q 217.5 337.85 217.6 337.8 217.75 337.75 217.8 337.7 217.9 337.65 217.95 337.5 217.95 337.4 217.95 337.25
L 217.95 335.55
Q 217.95 335.4 217.95 335.3 217.9 335.15 217.8 335.05 217.75 335 217.6 334.95 217.5 334.9 217.35 334.9
L 212.4 334.9
Q 212.25 334.9 212.15 334.95 212 335 211.95 335.05 211.9 335.15 211.85 335.3
M 154.6 231.7
L 154.6 250.75
Q 154.6 260.75 164.6 260.75
L 239.65 260.75
Q 249.65 260.75 249.65 250.75
L 249.65 231.7
Q 249.65 221.7 239.65 221.7
L 164.6 221.7
Q 154.6 221.7 154.6 231.7
M 176.6 231.65
Q 176.75 231.6 176.95 231.6 177.2 231.6 177.4 231.65 177.6 231.7 177.7 231.75 177.8 231.9 177.85 232.05 177.9 232.25 177.9 232.55
L 177.9 238.1
Q 177.9 238.4 177.9 238.65 177.9 238.9 177.95 239.15 177.95 239.35 177.9 239.55 177.9 239.7 177.85 239.85 177.8 240 177.7 240.1 177.65 240.2 177.45 240.25 177.3 240.3 177.05 240.35 176.85 240.4 176.55 240.4
L 175.35 240.4
Q 175.05 240.4 174.85 240.35 174.6 240.3 174.4 240.25 174.2 240.2 174.05 240.05 173.9 239.95 173.75 239.8 173.7 239.7 173.6 239.55 173.55 239.35 173.55 239.15 173.5 238.9 173.5 238.65 173.5 238.4 173.5 238.1
L 173.5 232.55
Q 173.5 232.25 173.55 232.05 173.65 231.9 173.8 231.75 174.1 231.6 174.55 231.6 174.8 231.6 175 231.65 175.15 231.7 175.25 231.75 175.35 231.9 175.4 232.05 175.45 232.25 175.45 232.55
L 175.45 233.8 176 233.8 176 232.55
Q 176 232.25 176.1 232.05 176.15 231.9 176.3 231.75 176.4 231.7 176.6 231.65
M 181.85 231.65
Q 182 231.6 182.2 231.6 182.7 231.6 182.95 231.75 183.05 231.9 183.1 232.05 183.2 232.25 183.2 232.55
L 183.2 238.1
Q 183.2 238.4 183.15 238.65 183.15 238.9 183.15 239.15 183.1 239.35 183.05 239.55 183.05 239.7 182.95 239.85 182.9 240 182.75 240.1 182.6 240.2 182.45 240.25 182.25 240.3 181.95 240.35 181.7 240.4 181.35 240.4
L 180.4 240.4
Q 180.05 240.4 179.8 240.35 179.55 240.3 179.35 240.25 179.15 240.2 179 240.05 178.9 239.95 178.8 239.8 178.65 239.55 178.6 239.15 178.55 238.9 178.55 238.65 178.55 238.4 178.55 238.1
L 178.55 232.55
Q 178.55 232.25 178.6 232.05 178.7 231.9 178.85 231.75 179.1 231.6 179.55 231.6 179.8 231.6 180 231.65 180.2 231.7 180.35 231.75 180.45 231.9 180.55 232.05 180.6 232.25 180.6 232.55
L 180.6 233.8 181.25 233.8 181.25 232.55
Q 181.25 232.25 181.35 232.05 181.4 231.9 181.55 231.75 181.65 231.7 181.85 231.65
M 177.75 241.45
Q 177.95 241.35 178.25 241.35
L 187.3 241.35
Q 187.65 241.35 188.05 241.45 188.2 241.45 188.4 241.5 188.6 241.6 188.75 241.65 188.9 241.75 189 241.85 189.1 241.95 189.2 242.05 189.25 242.2 189.3 242.4 189.35 242.55 189.35 242.75
L 189.35 245.5
Q 189.35 245.75 189.3 245.9 189.25 246.1 189.2 246.2 189.1 246.4 189 246.5 188.9 246.6 188.75 246.65 188.6 246.75 188.4 246.8 188.2 246.85 188.05 246.9 187.8 246.95 187.65 246.95 187.45 247 187.3 247
L 180.3 247 180.3 248.05 188.6 248.05
Q 188.95 248.05 189.15 248.1 189.35 248.2 189.45 248.35 189.65 248.7 189.65 249.25 189.65 249.5 189.6 249.7 189.55 249.9 189.45 250.05 189.35 250.2 189.15 250.25 188.95 250.3 188.6 250.3
L 179.35 250.3
Q 178.95 250.3 178.6 250.25 178.25 250.2 177.95 250.05 177.65 249.9 177.5 249.6 177.35 249.35 177.35 248.95
L 177.35 246.1
Q 177.35 245.65 177.5 245.35 177.65 245.05 177.95 244.9 178.25 244.75 178.6 244.65 178.95 244.55 179.35 244.55
L 186.6 244.55 186.6 243.65 178.25 243.65
Q 177.95 243.65 177.75 243.6 177.55 243.5 177.45 243.35 177.35 243.2 177.3 242.95 177.25 242.75 177.25 242.5 177.25 242.25 177.3 242.05 177.35 241.8 177.45 241.65 177.55 241.5 177.75 241.45
M 187.2 232
Q 187.2 231.65 187.25 231.45 187.3 231.25 187.45 231.15 187.7 231.05 188.3 231.05 188.9 231.05 189.15 231.15 189.3 231.25 189.35 231.45 189.45 231.65 189.45 232
L 189.45 239.7
Q 189.45 240.05 189.35 240.25 189.3 240.45 189.15 240.5 188.9 240.7 188.3 240.7 187.7 240.7 187.45 240.5 187.3 240.45 187.25 240.25 187.2 240.05 187.2 239.7
L 187.2 236.9 186.35 236.9 186.35 239.5
Q 186.35 239.8 186.25 240 186.15 240.2 186 240.3 185.65 240.5 185.15 240.5 184.65 240.5 184.3 240.3 184.15 240.2 184.05 240 184 239.8 184 239.5
L 184 232.45
Q 184 232.1 184.05 231.9 184.15 231.65 184.3 231.6 184.65 231.45 185.15 231.45 185.65 231.45 186 231.6 186.15 231.65 186.25 231.9 186.35 232.1 186.35 232.45
L 186.35 234.4 187.2 234.4 187.2 232
M 206.45 231.7
Q 206.5 231.8 206.6 231.85 206.65 231.95 206.65 232.05 206.7 232.15 206.7 232.35 206.7 232.5 206.7 232.7
L 206.7 239.95
Q 206.7 240.25 206.65 240.45 206.55 240.65 206.45 240.75 206.3 240.85 206.1 240.9 205.9 240.95 205.65 240.95 205.35 240.95 205.1 240.9 204.85 240.85 204.7 240.75 204.5 240.65 204.4 240.45 204.3 240.25 204.3 239.95
L 204.3 237.1 202.7 237.1
Q 202.4 237.1 202.2 237 202 236.9 201.9 236.7 201.75 236.55 201.7 236.35 201.65 236.1 201.65 235.85 201.65 235.6 201.7 235.4 201.75 235.15 201.9 234.95 202 234.8 202.2 234.7 202.4 234.6 202.7 234.6
L 204.3 234.6 204.3 232.7
Q 204.3 232.3 204.45 232.05 204.5 231.95 204.6 231.85 204.65 231.8 204.75 231.7 204.85 231.65 205.1 231.6 205.25 231.55 205.35 231.55 205.5 231.55 205.65 231.55 205.75 231.55 205.85 231.55 205.95 231.55 206.1 231.6 206.3 231.65 206.45 231.7
M 210.3 231.65
Q 210.4 231.85 210.4 232.15
L 210.4 240.15
Q 210.4 240.45 210.3 240.65 210.25 240.85 210.1 240.95 209.95 241.05 209.7 241.05 209.5 241.1 209.25 241.1 208.65 241.1 208.35 240.95 208.2 240.85 208.1 240.65 208.05 240.45 208.05 240.15
L 208.05 232.15
Q 208.05 231.55 208.35 231.35 208.5 231.25 208.7 231.2 208.95 231.15 209.25 231.15 209.5 231.15 209.7 231.2 209.95 231.25 210.1 231.35 210.25 231.45 210.3 231.65
M 202.55 238.4
Q 202.65 238.5 202.75 238.6 202.85 238.7 202.95 238.75 203 238.85 203.05 238.95 203.15 239 203.15 239.1 203.2 239.2 203.2 239.25 203.2 239.35 203.2 239.45 203.2 239.55 203.2 239.65 203.15 239.8 203.1 239.9 203.05 240.05 202.95 240.15 202.85 240.2 202.75 240.3 202.6 240.4 202.5 240.45 202.35 240.5 202.25 240.55 202.15 240.6 202.05 240.65 201.9 240.65 201.8 240.65 201.6 240.65 201.5 240.6 201.4 240.55 201.3 240.45 200.3 239.8 199.55 239 199.15 238.6 198.9 238.25 198.6 237.85 198.45 237.5 198.35 237.7 198.2 237.95 198.05 238.15 197.85 238.4 197.5 238.95 197.05 239.4 196.85 239.7 196.65 239.9 196.45 240.1 196.2 240.3 195.95 240.5 195.7 240.65 195.5 240.8 195.25 240.85 195.05 240.95 194.85 240.95 194.65 240.95 194.45 240.85 194.3 240.7 194.1 240.55 193.95 240.35 193.85 240.1 193.6 239.75 193.6 239.35 193.55 239.15 193.65 239 193.8 238.85 194.05 238.7 194.35 238.45 194.65 238.15 194.95 237.85 195.3 237.55 195.6 237.2 195.8 236.85 196.05 236.55 196.25 236.15 196.45 235.8 196.6 235.5 196.8 235.15 196.9 234.8 196.95 234.45 197 234.15 197.05 233.9 197.05 233.6
L 197.05 232.7
Q 197.05 232.45 197.15 232.25 197.25 232.05 197.45 231.95 197.7 231.8 197.9 231.75 198.15 231.7 198.4 231.7 198.65 231.7 198.85 231.75 199.05 231.8 199.25 231.95 199.4 232.05 199.5 232.25 199.6 232.45 199.6 232.7
L 199.6 233.7
Q 199.6 233.95 199.7 234.25 199.75 234.55 199.85 234.85 200 235.15 200.15 235.5 200.3 235.8 200.5 236.1 200.7 236.45 200.95 236.75 201.15 237.1 201.45 237.35 201.7 237.7 201.95 237.95 202.25 238.2 202.55 238.4
M 210.15 243.5
Q 210.3 243.8 210.3 244.25
L 210.3 248.6
Q 210.3 249.05 210.15 249.35 210.05 249.7 209.8 249.9 209.55 250.15 209.2 250.25 208.85 250.35 208.45 250.35
L 200.35 250.35
Q 199.9 250.35 199.55 250.25 199.25 250.15 199 249.9 198.75 249.7 198.6 249.35 198.5 249.05 198.5 248.6
L 198.5 244.25
Q 198.5 243.8 198.6 243.5 198.75 243.15 199 242.9 199.25 242.65 199.55 242.5 199.9 242.4 200.35 242.4
L 208.45 242.4
Q 208.85 242.4 209.2 242.5 209.55 242.65 209.8 242.9 210.05 243.15 210.15 243.5
M 220.6 231.75
Q 220.85 231.8 221.05 231.9 221.25 232 221.35 232.15 221.45 232.35 221.45 232.65
L 221.5 233.5
Q 221.5 233.9 221.6 234.25 221.7 234.6 221.9 234.95 222.05 235.3 222.25 235.65 222.4 236 222.6 236.3 222.85 236.6 223.15 236.9 223.4 237.2 223.7 237.45 223.95 237.75 224.25 237.95 224.55 238.2 224.85 238.4 225.05 238.55 225.15 238.7 225.25 238.85 225.25 239 225.25 239.2 225.2 239.4 225.15 239.6 225.05 239.8 224.95 240.05 224.8 240.2 224.65 240.4 224.45 240.55 224.25 240.65 224.05 240.7 223.85 240.7 223.65 240.6 223.05 240.35 222.55 240 222 239.65 221.6 239.2 221.2 238.75 220.85 238.35 220.5 237.85 220.15 237.4 220 237.65 219.8 237.85 219.6 238.1 219.45 238.35 219.25 238.6 219.05 238.8 218.9 239.05 218.75 239.25 218.5 239.5 218.3 239.7 218.05 239.9 217.85 240.1 217.65 240.3 217.4 240.45 217.2 240.65 217 240.75 216.75 240.9 216.45 240.9 216.25 240.9 216 240.8 215.75 240.7 215.55 240.55 215.4 240.35 215.3 240.05 215.25 239.95 215.2 239.85 215.15 239.8 215.15 239.7 215.1 239.6 215.05 239.55 215.05 239.45 215.05 239.35 215.05 239.25 215.05 239.2 215.1 239.1 215.15 239 215.2 238.9 215.3 238.85 215.35 238.75 215.45 238.7 215.8 238.5 216.15 238.2 216.45 238 216.75 237.65 217.05 237.35 217.3 237.05 217.6 236.7 217.85 236.35 218 236 218.15 235.65 218.3 235.3 218.4 234.9 218.55 234.55 218.6 234.2 218.7 233.8 218.7 233.5
L 218.7 232.65
Q 218.7 232.5 218.7 232.4 218.75 232.3 218.8 232.15 218.85 232.1 218.95 232 219 231.95 219.15 231.85 219.25 231.8 219.4 231.8 219.5 231.75 219.6 231.7 219.7 231.7 219.85 231.7 219.95 231.7 220.1 231.7 220.35 231.7 220.6 231.75
M 220.2 242.7
Q 220.35 242.6 220.6 242.6
L 229.05 242.6
Q 229.85 242.6 230.35 243.15 230.6 243.45 230.7 243.8 230.85 244.15 230.85 244.55
L 230.85 249.9
Q 230.85 250 230.8 250.1 230.75 250.25 230.65 250.3 230.55 250.4 230.45 250.5 230.35 250.55 230.25 250.65 230.15 250.7 230.05 250.75 229.95 250.8 229.8 250.85 229.65 250.9 229.55 250.9 229.4 250.95 229.3 250.95 229.05 250.95 228.85 250.85 228.6 250.8 228.4 250.65 228.05 250.35 228.05 249.9
L 228.05 245.05 220.6 245.05
Q 220.35 245.05 220.2 245 220 244.9 219.9 244.7 219.65 244.3 219.65 243.85 219.65 243.6 219.7 243.35 219.75 243.15 219.9 242.95 220 242.8 220.2 242.7
M 230.75 231.65
Q 230.8 231.7 230.85 231.85 230.9 232 230.9 232.15
L 230.9 240.4
Q 230.85 240.7 230.75 240.9 230.65 241.1 230.4 241.2 230.2 241.3 229.9 241.35 229.65 241.4 229.35 241.4 229.05 241.4 228.85 241.35 228.6 241.3 228.4 241.2 228.25 241.1 228.15 240.9 228.05 240.7 228.05 240.4
L 228.05 232.15
Q 228.05 231.55 228.4 231.35 228.6 231.25 228.85 231.2 229.05 231.15 229.35 231.15 229.45 231.15 229.6 231.2 229.75 231.2 229.9 231.2 230.05 231.2 230.15 231.25 230.25 231.3 230.35 231.35 230.5 231.4 230.6 231.45 230.7 231.55 230.75 231.65
M 207.1 244.95
Q 207 244.9 206.85 244.9
L 201.9 244.9
Q 201.75 244.9 201.65 244.95 201.5 245 201.45 245.05 201.4 245.15 201.35 245.3 201.3 245.4 201.3 245.55
L 201.3 247.25
Q 201.3 247.4 201.35 247.5 201.4 247.65 201.45 247.7 201.5 247.75 201.65 247.8 201.75 247.85 201.9 247.85
L 206.85 247.85
Q 207 247.85 207.1 247.8 207.25 247.75 207.3 247.7 207.4 247.65 207.45 247.5 207.45 247.4 207.45 247.25
L 207.45 245.55
Q 207.45 245.4 207.45 245.3 207.4 245.15 207.3 245.05 207.25 245 207.1 244.95
M 180.6 236.3
L 180.6 237.95 181.25 237.95 181.25 236.3 180.6 236.3
M 175.45 236.3
L 175.45 237.95 176 237.95 176 236.3 175.45 236.3 Z"/>

<path fill="#FFFFFF" stroke="none" d="
M 241.2 333.8
Q 241.1 333.45 240.85 333.15 240.35 332.6 239.55 332.6
L 231.1 332.6
Q 230.85 332.6 230.7 332.7 230.5 332.8 230.4 332.95 230.25 333.15 230.2 333.35 230.15 333.6 230.15 333.85 230.15 334.3 230.4 334.7 230.5 334.9 230.7 335 230.85 335.05 231.1 335.05
L 238.55 335.05 238.55 339.9
Q 238.55 340.35 238.9 340.65 239.1 340.8 239.35 340.85 239.55 340.95 239.8 340.95 239.9 340.95 240.05 340.9 240.15 340.9 240.3 340.85 240.45 340.8 240.55 340.75 240.65 340.7 240.75 340.65 240.85 340.55 240.95 340.5 241.05 340.4 241.15 340.3 241.25 340.25 241.3 340.1 241.35 340 241.35 339.9
L 241.35 334.55
Q 241.35 334.15 241.2 333.8
M 241.25 321.65
Q 241.2 321.55 241.1 321.45 241 321.4 240.85 321.35 240.75 321.3 240.65 321.25 240.55 321.2 240.4 321.2 240.25 321.2 240.1 321.2 239.95 321.15 239.85 321.15 239.55 321.15 239.35 321.2 239.1 321.25 238.9 321.35 238.55 321.55 238.55 322.15
L 238.55 330.4
Q 238.55 330.7 238.65 330.9 238.75 331.1 238.9 331.2 239.1 331.3 239.35 331.35 239.55 331.4 239.85 331.4 240.15 331.4 240.4 331.35 240.7 331.3 240.9 331.2 241.15 331.1 241.25 330.9 241.35 330.7 241.4 330.4
L 241.4 322.15
Q 241.4 322 241.35 321.85 241.3 321.7 241.25 321.65
M 230.6 321.7
Q 230.45 321.7 230.35 321.7 230.2 321.7 230.1 321.7 230 321.75 229.9 321.8 229.75 321.8 229.65 321.85 229.5 321.95 229.45 322 229.35 322.1 229.3 322.15 229.25 322.3 229.2 322.4 229.2 322.5 229.2 322.65
L 229.2 323.5
Q 229.2 323.8 229.1 324.2 229.05 324.55 228.9 324.9 228.8 325.3 228.65 325.65 228.5 326 228.35 326.35 228.1 326.7 227.8 327.05 227.55 327.35 227.25 327.65 226.95 328 226.65 328.2 226.3 328.5 225.95 328.7 225.85 328.75 225.8 328.85 225.7 328.9 225.65 329 225.6 329.1 225.55 329.2 225.55 329.25 225.55 329.35 225.55 329.45 225.55 329.55 225.6 329.6 225.65 329.7 225.65 329.8 225.7 329.85 225.75 329.95 225.8 330.05 225.9 330.35 226.05 330.55 226.25 330.7 226.5 330.8 226.75 330.9 226.95 330.9 227.25 330.9 227.5 330.75 227.7 330.65 227.9 330.45 228.15 330.3 228.35 330.1 228.55 329.9 228.8 329.7 229 329.5 229.25 329.25 229.4 329.05 229.55 328.8 229.75 328.6 229.95 328.35 230.1 328.1 230.3 327.85 230.5 327.65 230.65 327.4 231 327.85 231.35 328.35 231.7 328.75 232.1 329.2 232.5 329.65 233.05 330 233.55 330.35 234.15 330.6 234.35 330.7 234.55 330.7 234.75 330.65 234.95 330.55 235.15 330.4 235.3 330.2 235.45 330.05 235.55 329.8 235.65 329.6 235.7 329.4 235.75 329.2 235.75 329 235.75 328.85 235.65 328.7 235.55 328.55 235.35 328.4 235.05 328.2 234.75 327.95 234.45 327.75 234.2 327.45 233.9 327.2 233.65 326.9 233.35 326.6 233.1 326.3 232.9 326 232.75 325.65 232.55 325.3 232.4 324.95 232.2 324.6 232.1 324.25 232 323.9 232 323.5
L 231.95 322.65
Q 231.95 322.35 231.85 322.15 231.75 322 231.55 321.9 231.35 321.8 231.1 321.75 230.85 321.7 230.6 321.7
M 219.7 332.5
Q 219.35 332.4 218.95 332.4
L 210.85 332.4
Q 210.4 332.4 210.05 332.5 209.75 332.65 209.5 332.9 209.25 333.15 209.1 333.5 209 333.8 209 334.25
L 209 338.6
Q 209 339.05 209.1 339.35 209.25 339.7 209.5 339.9 209.75 340.15 210.05 340.25 210.4 340.35 210.85 340.35
L 218.95 340.35
Q 219.35 340.35 219.7 340.25 220.05 340.15 220.3 339.9 220.55 339.7 220.65 339.35 220.8 339.05 220.8 338.6
L 220.8 334.25
Q 220.8 333.8 220.65 333.5 220.55 333.15 220.3 332.9 220.05 332.65 219.7 332.5
M 211.8 335.55
Q 211.8 335.4 211.85 335.3 211.9 335.15 211.95 335.05 212 335 212.15 334.95 212.25 334.9 212.4 334.9
L 217.35 334.9
Q 217.5 334.9 217.6 334.95 217.75 335 217.8 335.05 217.9 335.15 217.95 335.3 217.95 335.4 217.95 335.55
L 217.95 337.25
Q 217.95 337.4 217.95 337.5 217.9 337.65 217.8 337.7 217.75 337.75 217.6 337.8 217.5 337.85 217.35 337.85
L 212.4 337.85
Q 212.25 337.85 212.15 337.8 212 337.75 211.95 337.7 211.9 337.65 211.85 337.5 211.8 337.4 211.8 337.25
L 211.8 335.55
M 213.25 328.6
Q 213.15 328.5 213.05 328.4 212.75 328.2 212.45 327.95 212.2 327.7 211.95 327.35 211.65 327.1 211.45 326.75 211.2 326.45 211 326.1 210.8 325.8 210.65 325.5 210.5 325.15 210.35 324.85 210.25 324.55 210.2 324.25 210.1 323.95 210.1 323.7
L 210.1 322.7
Q 210.1 322.45 210 322.25 209.9 322.05 209.75 321.95 209.55 321.8 209.35 321.75 209.15 321.7 208.9 321.7 208.65 321.7 208.4 321.75 208.2 321.8 207.95 321.95 207.75 322.05 207.65 322.25 207.55 322.45 207.55 322.7
L 207.55 323.6
Q 207.55 323.9 207.5 324.15 207.45 324.45 207.4 324.8 207.3 325.15 207.1 325.5 206.95 325.8 206.75 326.15 206.55 326.55 206.3 326.85 206.1 327.2 205.8 327.55 205.45 327.85 205.15 328.15 204.85 328.45 204.55 328.7 204.3 328.85 204.15 329 204.05 329.15 204.1 329.35 204.1 329.75 204.35 330.1 204.45 330.35 204.6 330.55 204.8 330.7 204.95 330.85 205.15 330.95 205.35 330.95 205.55 330.95 205.75 330.85 206 330.8 206.2 330.65 206.45 330.5 206.7 330.3 206.95 330.1 207.15 329.9 207.35 329.7 207.55 329.4 208 328.95 208.35 328.4 208.55 328.15 208.7 327.95 208.85 327.7 208.95 327.5 209.1 327.85 209.4 328.25 209.65 328.6 210.05 329 210.8 329.8 211.8 330.45 211.9 330.55 212 330.6 212.1 330.65 212.3 330.65 212.4 330.65 212.55 330.65 212.65 330.6 212.75 330.55 212.85 330.5 213 330.45 213.1 330.4 213.25 330.3 213.35 330.2 213.45 330.15 213.55 330.05 213.6 329.9 213.65 329.8 213.7 329.65 213.7 329.55 213.7 329.45 213.7 329.35 213.7 329.25 213.7 329.2 213.65 329.1 213.65 329 213.55 328.95 213.5 328.85 213.45 328.75 213.35 328.7 213.25 328.6
M 220.2 321.2
Q 220 321.15 219.75 321.15 219.45 321.15 219.2 321.2 219 321.25 218.85 321.35 218.55 321.55 218.55 322.15
L 218.55 330.15
Q 218.55 330.45 218.6 330.65 218.7 330.85 218.85 330.95 219.15 331.1 219.75 331.1 220 331.1 220.2 331.05 220.45 331.05 220.6 330.95 220.75 330.85 220.8 330.65 220.9 330.45 220.9 330.15
L 220.9 322.15
Q 220.9 321.85 220.8 321.65 220.75 321.45 220.6 321.35 220.45 321.25 220.2 321.2
M 216.95 321.7
Q 216.8 321.65 216.6 321.6 216.45 321.55 216.35 321.55 216.25 321.55 216.15 321.55 216 321.55 215.85 321.55 215.75 321.55 215.6 321.6 215.35 321.65 215.25 321.7 215.15 321.8 215.1 321.85 215 321.95 214.95 322.05 214.8 322.3 214.8 322.7
L 214.8 324.6 213.2 324.6
Q 212.9 324.6 212.7 324.7 212.5 324.8 212.4 324.95 212.25 325.15 212.2 325.4 212.15 325.6 212.15 325.85 212.15 326.1 212.2 326.35 212.25 326.55 212.4 326.7 212.5 326.9 212.7 327 212.9 327.1 213.2 327.1
L 214.8 327.1 214.8 329.95
Q 214.8 330.25 214.9 330.45 215 330.65 215.2 330.75 215.35 330.85 215.6 330.9 215.85 330.95 216.15 330.95 216.4 330.95 216.6 330.9 216.8 330.85 216.95 330.75 217.05 330.65 217.15 330.45 217.2 330.25 217.2 329.95
L 217.2 322.7
Q 217.2 322.5 217.2 322.35 217.2 322.15 217.15 322.05 217.15 321.95 217.1 321.85 217 321.8 216.95 321.7
M 193.4 333.75
Q 193.3 333.6 193.15 333.45 193.05 333.35 192.95 333.25 192.8 333.15 192.65 333.1 192.55 333.05 192.4 333.05 192.3 333.05 192.15 333 192 333 191.9 333 191.85 333 191.75 333.05 191.65 333.05 191.5 333.05 191.25 333.15 191.05 333.35 191 333.4 190.9 333.55 190.85 333.7 190.8 333.85 190.75 334 190.7 334.2 190.7 334.4 190.7 334.65 190.55 335.05 190.35 335.35 190.15 335.7 189.9 335.95 189.4 336.45 188.85 336.8 188.2 337.25 187.4 337.5 187 337.65 186.55 337.8 186.15 337.95 185.75 338.1 185.3 338.25 185.15 338.65 185.1 338.8 185.15 339 185.15 339.25 185.3 339.5 185.35 339.7 185.5 339.9 185.6 340.05 185.75 340.15 185.85 340.25 186.05 340.25 186.25 340.3 186.5 340.25 187 340.05 187.5 339.9 187.95 339.75 188.35 339.65 188.75 339.5 189.1 339.35 189.5 339.2 189.85 339.1 190.15 338.9 190.45 338.75 190.75 338.55 191 338.4 191.25 338.2 191.5 337.95 191.75 337.75 191.95 337.5 192.5 338 193.05 338.3 193.3 338.45 193.6 338.6 193.9 338.75 194.3 338.9 194.6 339.05 194.95 339.15 195.25 339.3 195.6 339.45 195.95 339.55 196.35 339.7 196.7 339.85 197.1 340.05 197.3 340.05 197.45 340.1 197.6 340.15 197.75 340.2 197.85 340.2 197.95 340.2 198.05 340.2 198.15 340.2 198.25 340.15 198.35 340.1 198.45 340.05 198.55 339.95 198.6 339.85 198.65 339.7 198.7 339.6 198.8 339.4 198.8 339.3 198.8 339.2 198.8 339.1 198.85 339 198.85 338.9 198.85 338.75 198.85 338.65 198.85 338.6 198.85 338.5 198.85 338.4 198.8 338.3 198.8 338.25 198.75 338.2 198.65 338.15 198.6 338.1 198.45 338.05 197.75 337.8 196.9 337.5 196.45 337.35 196.05 337.15 195.65 336.95 195.3 336.75 194.85 336.55 194.55 336.3 194.25 336.1 194 335.85 193.75 335.6 193.65 335.3 193.55 335 193.55 334.65 193.55 334.35 193.5 334.15 193.45 333.9 193.4 333.75
M 192.6 332.15
Q 192.7 332.15 192.8 332.1 192.95 332.05 193.1 331.95 193.2 331.9 193.3 331.85 193.35 331.75 193.45 331.65 193.45 331.6 193.5 331.5 193.55 331.4 193.55 331.25
L 193.55 331.1 200.55 331.1
Q 200.8 331.1 200.95 331 201.15 330.9 201.25 330.75 201.3 330.6 201.35 330.4 201.4 330.2 201.4 329.95 201.4 329.7 201.35 329.5 201.3 329.35 201.25 329.15 201.15 329.05 200.95 328.95 200.8 328.9 200.55 328.9
L 183.65 328.9
Q 183.4 328.9 183.2 328.95 183 329.05 182.95 329.15 182.85 329.35 182.8 329.5 182.8 329.7 182.8 329.95 182.8 330.2 182.8 330.4 182.85 330.6 182.95 330.75 183 330.9 183.2 331 183.4 331.1 183.65 331.1
L 190.7 331.1 190.7 331.25
Q 190.7 331.5 190.8 331.7 190.9 331.9 191.15 332 191.35 332.1 191.55 332.15 191.8 332.2 192.05 332.2 192.2 332.2 192.35 332.2 192.5 332.2 192.6 332.15
M 187.3 321.3
Q 187.2 321.3 187.05 321.3 186.9 321.3 186.8 321.35 186.65 321.4 186.55 321.45 186.5 321.5 186.4 321.55 186.35 321.65 186.3 321.75 186.2 321.85 186.15 321.95 186.15 322.1 186.15 322.2
L 186.15 325.25
Q 186.15 326.45 186.7 327 187.3 327.6 188.45 327.6
L 197.35 327.6
Q 197.65 327.6 197.85 327.5 198.05 327.4 198.2 327.25 198.25 327.05 198.3 326.85 198.35 326.6 198.35 326.35 198.35 326.1 198.3 325.9 198.25 325.7 198.2 325.5 198.05 325.3 197.85 325.25 197.65 325.15 197.35 325.15
L 189 325.15 189 322.2
Q 189 322.1 188.95 321.95 188.9 321.85 188.8 321.75 188.7 321.65 188.65 321.55 188.55 321.5 188.45 321.45 188.35 321.4 188.25 321.35 188.15 321.3 188 321.3 187.85 321.3 187.75 321.3 187.6 321.25 187.5 321.25 187.4 321.25 187.3 321.3
M 173.95 331.95
Q 173.85 331.75 173.7 331.6 173.55 331.45 173.3 331.4 173 331.35 172.65 331.4
L 172.7 331.4
Q 172.35 331.45 171.95 331.5 171.6 331.55 171.2 331.6 170.8 331.65 170.4 331.65 170 331.7 169.6 331.75 169.15 331.75 168.7 331.8 168.3 331.8 167.85 331.8 167.4 331.85 166.95 331.85 166.55 331.85 166.15 331.85
L 166.15 323.7
Q 166.1 323.6 166.05 323.5 166 323.35 165.95 323.25 165.8 323.15 165.7 323.05 165.65 322.95 165.55 322.9 165.3 322.8 165.05 322.75 164.9 322.7 164.8 322.7 164.7 322.65 164.6 322.65 164.35 322.65 164.1 322.75 163.9 322.8 163.7 322.95 163.25 323.2 163.25 323.8
L 163.25 332
Q 163.25 332.4 163.3 332.7 163.35 333.05 163.55 333.25 163.65 333.5 163.85 333.7 164.05 333.85 164.25 334 164.45 334.1 164.7 334.2 164.9 334.25 165.15 334.3 165.35 334.3 165.55 334.35 165.725 334.35 165.9 334.35
L 165.9 334.35
Q 166.437890625 334.341015625 166.85 334.3 167.3 334.3 167.8 334.25 168.3 334.25 168.8 334.2 169.3 334.2 169.75 334.15 170.25 334.1 170.7 334.1 171.15 334.05 171.6 334 172 333.95 172.4 333.95 172.8 333.9 173.2 333.85 173.45 333.75 173.65 333.65 173.85 333.5 173.95 333.3 174.05 333.1 174.05 332.9 174.1 332.65 174.05 332.45 174.05 332.15 173.95 331.95
M 177 321.35
Q 176.8 321.2 176.55 321.1 176.3 321.05 176.05 321.05 175.7 321.05 175.45 321.1 175.2 321.2 175 321.35 174.8 321.5 174.65 321.75 174.55 322 174.6 322.25
L 174.6 339.55
Q 174.55 339.85 174.65 340.1 174.8 340.3 175 340.45 175.2 340.6 175.45 340.7 175.7 340.75 176.05 340.75 176.3 340.75 176.55 340.7 176.8 340.6 177 340.45 177.25 340.3 177.35 340.1 177.45 339.85 177.45 339.55
L 177.45 330.6 179.35 330.6
Q 179.65 330.6 179.85 330.5 180.05 330.4 180.2 330.2 180.3 330.05 180.4 329.8 180.45 329.6 180.45 329.35 180.45 329.1 180.4 328.9 180.3 328.65 180.2 328.5 180.05 328.3 179.85 328.2 179.65 328.1 179.35 328.1
L 177.45 328.1 177.45 322.25
Q 177.45 322 177.35 321.75 177.25 321.5 177 321.35
M 230.85 231.85
Q 230.8 231.7 230.75 231.65 230.7 231.55 230.6 231.45 230.5 231.4 230.35 231.35 230.25 231.3 230.15 231.25 230.05 231.2 229.9 231.2 229.75 231.2 229.6 231.2 229.45 231.15 229.35 231.15 229.05 231.15 228.85 231.2 228.6 231.25 228.4 231.35 228.05 231.55 228.05 232.15
L 228.05 240.4
Q 228.05 240.7 228.15 240.9 228.25 241.1 228.4 241.2 228.6 241.3 228.85 241.35 229.05 241.4 229.35 241.4 229.65 241.4 229.9 241.35 230.2 241.3 230.4 241.2 230.65 241.1 230.75 240.9 230.85 240.7 230.9 240.4
L 230.9 232.15
Q 230.9 232 230.85 231.85
M 220.6 242.6
Q 220.35 242.6 220.2 242.7 220 242.8 219.9 242.95 219.75 243.15 219.7 243.35 219.65 243.6 219.65 243.85 219.65 244.3 219.9 244.7 220 244.9 220.2 245 220.35 245.05 220.6 245.05
L 228.05 245.05 228.05 249.9
Q 228.05 250.35 228.4 250.65 228.6 250.8 228.85 250.85 229.05 250.95 229.3 250.95 229.4 250.95 229.55 250.9 229.65 250.9 229.8 250.85 229.95 250.8 230.05 250.75 230.15 250.7 230.25 250.65 230.35 250.55 230.45 250.5 230.55 250.4 230.65 250.3 230.75 250.25 230.8 250.1 230.85 250 230.85 249.9
L 230.85 244.55
Q 230.85 244.15 230.7 243.8 230.6 243.45 230.35 243.15 229.85 242.6 229.05 242.6
L 220.6 242.6
M 221.05 231.9
Q 220.85 231.8 220.6 231.75 220.35 231.7 220.1 231.7 219.95 231.7 219.85 231.7 219.7 231.7 219.6 231.7 219.5 231.75 219.4 231.8 219.25 231.8 219.15 231.85 219 231.95 218.95 232 218.85 232.1 218.8 232.15 218.75 232.3 218.7 232.4 218.7 232.5 218.7 232.65
L 218.7 233.5
Q 218.7 233.8 218.6 234.2 218.55 234.55 218.4 234.9 218.3 235.3 218.15 235.65 218 236 217.85 236.35 217.6 236.7 217.3 237.05 217.05 237.35 216.75 237.65 216.45 238 216.15 238.2 215.8 238.5 215.45 238.7 215.35 238.75 215.3 238.85 215.2 238.9 215.15 239 215.1 239.1 215.05 239.2 215.05 239.25 215.05 239.35 215.05 239.45 215.05 239.55 215.1 239.6 215.15 239.7 215.15 239.8 215.2 239.85 215.25 239.95 215.3 240.05 215.4 240.35 215.55 240.55 215.75 240.7 216 240.8 216.25 240.9 216.45 240.9 216.75 240.9 217 240.75 217.2 240.65 217.4 240.45 217.65 240.3 217.85 240.1 218.05 239.9 218.3 239.7 218.5 239.5 218.75 239.25 218.9 239.05 219.05 238.8 219.25 238.6 219.45 238.35 219.6 238.1 219.8 237.85 220 237.65 220.15 237.4 220.5 237.85 220.85 238.35 221.2 238.75 221.6 239.2 222 239.65 222.55 240 223.05 240.35 223.65 240.6 223.85 240.7 224.05 240.7 224.25 240.65 224.45 240.55 224.65 240.4 224.8 240.2 224.95 240.05 225.05 239.8 225.15 239.6 225.2 239.4 225.25 239.2 225.25 239 225.25 238.85 225.15 238.7 225.05 238.55 224.85 238.4 224.55 238.2 224.25 237.95 223.95 237.75 223.7 237.45 223.4 237.2 223.15 236.9 222.85 236.6 222.6 236.3 222.4 236 222.25 235.65 222.05 235.3 221.9 234.95 221.7 234.6 221.6 234.25 221.5 233.9 221.5 233.5
L 221.45 232.65
Q 221.45 232.35 221.35 232.15 221.25 232 221.05 231.9
M 210.3 244.25
Q 210.3 243.8 210.15 243.5 210.05 243.15 209.8 242.9 209.55 242.65 209.2 242.5 208.85 242.4 208.45 242.4
L 200.35 242.4
Q 199.9 242.4 199.55 242.5 199.25 242.65 199 242.9 198.75 243.15 198.6 243.5 198.5 243.8 198.5 244.25
L 198.5 248.6
Q 198.5 249.05 198.6 249.35 198.75 249.7 199 249.9 199.25 250.15 199.55 250.25 199.9 250.35 200.35 250.35
L 208.45 250.35
Q 208.85 250.35 209.2 250.25 209.55 250.15 209.8 249.9 210.05 249.7 210.15 249.35 210.3 249.05 210.3 248.6
L 210.3 244.25
M 206.85 244.9
Q 207 244.9 207.1 244.95 207.25 245 207.3 245.05 207.4 245.15 207.45 245.3 207.45 245.4 207.45 245.55
L 207.45 247.25
Q 207.45 247.4 207.45 247.5 207.4 247.65 207.3 247.7 207.25 247.75 207.1 247.8 207 247.85 206.85 247.85
L 201.9 247.85
Q 201.75 247.85 201.65 247.8 201.5 247.75 201.45 247.7 201.4 247.65 201.35 247.5 201.3 247.4 201.3 247.25
L 201.3 245.55
Q 201.3 245.4 201.35 245.3 201.4 245.15 201.45 245.05 201.5 245 201.65 244.95 201.75 244.9 201.9 244.9
L 206.85 244.9
M 202.75 238.6
Q 202.65 238.5 202.55 238.4 202.25 238.2 201.95 237.95 201.7 237.7 201.45 237.35 201.15 237.1 200.95 236.75 200.7 236.45 200.5 236.1 200.3 235.8 200.15 235.5 200 235.15 199.85 234.85 199.75 234.55 199.7 234.25 199.6 233.95 199.6 233.7
L 199.6 232.7
Q 199.6 232.45 199.5 232.25 199.4 232.05 199.25 231.95 199.05 231.8 198.85 231.75 198.65 231.7 198.4 231.7 198.15 231.7 197.9 231.75 197.7 231.8 197.45 231.95 197.25 232.05 197.15 232.25 197.05 232.45 197.05 232.7
L 197.05 233.6
Q 197.05 233.9 197 234.15 196.95 234.45 196.9 234.8 196.8 235.15 196.6 235.5 196.45 235.8 196.25 236.15 196.05 236.55 195.8 236.85 195.6 237.2 195.3 237.55 194.95 237.85 194.65 238.15 194.35 238.45 194.05 238.7 193.8 238.85 193.65 239 193.55 239.15 193.6 239.35 193.6 239.75 193.85 240.1 193.95 240.35 194.1 240.55 194.3 240.7 194.45 240.85 194.65 240.95 194.85 240.95 195.05 240.95 195.25 240.85 195.5 240.8 195.7 240.65 195.95 240.5 196.2 240.3 196.45 240.1 196.65 239.9 196.85 239.7 197.05 239.4 197.5 238.95 197.85 238.4 198.05 238.15 198.2 237.95 198.35 237.7 198.45 237.5 198.6 237.85 198.9 238.25 199.15 238.6 199.55 239 200.3 239.8 201.3 240.45 201.4 240.55 201.5 240.6 201.6 240.65 201.8 240.65 201.9 240.65 202.05 240.65 202.15 240.6 202.25 240.55 202.35 240.5 202.5 240.45 202.6 240.4 202.75 240.3 202.85 240.2 202.95 240.15 203.05 240.05 203.1 239.9 203.15 239.8 203.2 239.65 203.2 239.55 203.2 239.45 203.2 239.35 203.2 239.25 203.2 239.2 203.15 239.1 203.15 239 203.05 238.95 203 238.85 202.95 238.75 202.85 238.7 202.75 238.6
M 210.4 232.15
Q 210.4 231.85 210.3 231.65 210.25 231.45 210.1 231.35 209.95 231.25 209.7 231.2 209.5 231.15 209.25 231.15 208.95 231.15 208.7 231.2 208.5 231.25 208.35 231.35 208.05 231.55 208.05 232.15
L 208.05 240.15
Q 208.05 240.45 208.1 240.65 208.2 240.85 208.35 240.95 208.65 241.1 209.25 241.1 209.5 241.1 209.7 241.05 209.95 241.05 210.1 240.95 210.25 240.85 210.3 240.65 210.4 240.45 210.4 240.15
L 210.4 232.15
M 206.6 231.85
Q 206.5 231.8 206.45 231.7 206.3 231.65 206.1 231.6 205.95 231.55 205.85 231.55 205.75 231.55 205.65 231.55 205.5 231.55 205.35 231.55 205.25 231.55 205.1 231.6 204.85 231.65 204.75 231.7 204.65 231.8 204.6 231.85 204.5 231.95 204.45 232.05 204.3 232.3 204.3 232.7
L 204.3 234.6 202.7 234.6
Q 202.4 234.6 202.2 234.7 202 234.8 201.9 234.95 201.75 235.15 201.7 235.4 201.65 235.6 201.65 235.85 201.65 236.1 201.7 236.35 201.75 236.55 201.9 236.7 202 236.9 202.2 237 202.4 237.1 202.7 237.1
L 204.3 237.1 204.3 239.95
Q 204.3 240.25 204.4 240.45 204.5 240.65 204.7 240.75 204.85 240.85 205.1 240.9 205.35 240.95 205.65 240.95 205.9 240.95 206.1 240.9 206.3 240.85 206.45 240.75 206.55 240.65 206.65 240.45 206.7 240.25 206.7 239.95
L 206.7 232.7
Q 206.7 232.5 206.7 232.35 206.7 232.15 206.65 232.05 206.65 231.95 206.6 231.85
M 187.25 231.45
Q 187.2 231.65 187.2 232
L 187.2 234.4 186.35 234.4 186.35 232.45
Q 186.35 232.1 186.25 231.9 186.15 231.65 186 231.6 185.65 231.45 185.15 231.45 184.65 231.45 184.3 231.6 184.15 231.65 184.05 231.9 184 232.1 184 232.45
L 184 239.5
Q 184 239.8 184.05 240 184.15 240.2 184.3 240.3 184.65 240.5 185.15 240.5 185.65 240.5 186 240.3 186.15 240.2 186.25 240 186.35 239.8 186.35 239.5
L 186.35 236.9 187.2 236.9 187.2 239.7
Q 187.2 240.05 187.25 240.25 187.3 240.45 187.45 240.5 187.7 240.7 188.3 240.7 188.9 240.7 189.15 240.5 189.3 240.45 189.35 240.25 189.45 240.05 189.45 239.7
L 189.45 232
Q 189.45 231.65 189.35 231.45 189.3 231.25 189.15 231.15 188.9 231.05 188.3 231.05 187.7 231.05 187.45 231.15 187.3 231.25 187.25 231.45
M 178.25 241.35
Q 177.95 241.35 177.75 241.45 177.55 241.5 177.45 241.65 177.35 241.8 177.3 242.05 177.25 242.25 177.25 242.5 177.25 242.75 177.3 242.95 177.35 243.2 177.45 243.35 177.55 243.5 177.75 243.6 177.95 243.65 178.25 243.65
L 186.6 243.65 186.6 244.55 179.35 244.55
Q 178.95 244.55 178.6 244.65 178.25 244.75 177.95 244.9 177.65 245.05 177.5 245.35 177.35 245.65 177.35 246.1
L 177.35 248.95
Q 177.35 249.35 177.5 249.6 177.65 249.9 177.95 250.05 178.25 250.2 178.6 250.25 178.95 250.3 179.35 250.3
L 188.6 250.3
Q 188.95 250.3 189.15 250.25 189.35 250.2 189.45 250.05 189.55 249.9 189.6 249.7 189.65 249.5 189.65 249.25 189.65 248.7 189.45 248.35 189.35 248.2 189.15 248.1 188.95 248.05 188.6 248.05
L 180.3 248.05 180.3 247 187.3 247
Q 187.45 247 187.65 246.95 187.8 246.95 188.05 246.9 188.2 246.85 188.4 246.8 188.6 246.75 188.75 246.65 188.9 246.6 189 246.5 189.1 246.4 189.2 246.2 189.25 246.1 189.3 245.9 189.35 245.75 189.35 245.5
L 189.35 242.75
Q 189.35 242.55 189.3 242.4 189.25 242.2 189.2 242.05 189.1 241.95 189 241.85 188.9 241.75 188.75 241.65 188.6 241.6 188.4 241.5 188.2 241.45 188.05 241.45 187.65 241.35 187.3 241.35
L 178.25 241.35
M 182.2 231.6
Q 182 231.6 181.85 231.65 181.65 231.7 181.55 231.75 181.4 231.9 181.35 232.05 181.25 232.25 181.25 232.55
L 181.25 233.8 180.6 233.8 180.6 232.55
Q 180.6 232.25 180.55 232.05 180.45 231.9 180.35 231.75 180.2 231.7 180 231.65 179.8 231.6 179.55 231.6 179.1 231.6 178.85 231.75 178.7 231.9 178.6 232.05 178.55 232.25 178.55 232.55
L 178.55 238.1
Q 178.55 238.4 178.55 238.65 178.55 238.9 178.6 239.15 178.65 239.55 178.8 239.8 178.9 239.95 179 240.05 179.15 240.2 179.35 240.25 179.55 240.3 179.8 240.35 180.05 240.4 180.4 240.4
L 181.35 240.4
Q 181.7 240.4 181.95 240.35 182.25 240.3 182.45 240.25 182.6 240.2 182.75 240.1 182.9 240 182.95 239.85 183.05 239.7 183.05 239.55 183.1 239.35 183.15 239.15 183.15 238.9 183.15 238.65 183.2 238.4 183.2 238.1
L 183.2 232.55
Q 183.2 232.25 183.1 232.05 183.05 231.9 182.95 231.75 182.7 231.6 182.2 231.6
M 180.6 237.95
L 180.6 236.3 181.25 236.3 181.25 237.95 180.6 237.95
M 176.95 231.6
Q 176.75 231.6 176.6 231.65 176.4 231.7 176.3 231.75 176.15 231.9 176.1 232.05 176 232.25 176 232.55
L 176 233.8 175.45 233.8 175.45 232.55
Q 175.45 232.25 175.4 232.05 175.35 231.9 175.25 231.75 175.15 231.7 175 231.65 174.8 231.6 174.55 231.6 174.1 231.6 173.8 231.75 173.65 231.9 173.55 232.05 173.5 232.25 173.5 232.55
L 173.5 238.1
Q 173.5 238.4 173.5 238.65 173.5 238.9 173.55 239.15 173.55 239.35 173.6 239.55 173.7 239.7 173.75 239.8 173.9 239.95 174.05 240.05 174.2 240.2 174.4 240.25 174.6 240.3 174.85 240.35 175.05 240.4 175.35 240.4
L 176.55 240.4
Q 176.85 240.4 177.05 240.35 177.3 240.3 177.45 240.25 177.65 240.2 177.7 240.1 177.8 240 177.85 239.85 177.9 239.7 177.9 239.55 177.95 239.35 177.95 239.15 177.9 238.9 177.9 238.65 177.9 238.4 177.9 238.1
L 177.9 232.55
Q 177.9 232.25 177.85 232.05 177.8 231.9 177.7 231.75 177.6 231.7 177.4 231.65 177.2 231.6 176.95 231.6
M 175.45 237.95
L 175.45 236.3 176 236.3 176 237.95 175.45 237.95
M 560.4 316.25
L 560.4 346.3
Q 560.4 361.3 575.4 361.3
L 625.4 361.3
Q 640.4 361.3 640.4 346.3
L 640.4 316.25
Q 640.4 301.25 625.4 301.25
L 575.4 301.25
Q 560.4 301.25 560.4 316.25
M 608.6 226.25
Q 608.6 211.25 593.6 211.25
L 543.6 211.25
Q 528.6 211.25 528.6 226.25
L 528.6 256.3
Q 528.6 271.3 543.6 271.3
L 593.6 271.3
Q 608.6 271.3 608.6 256.3
L 608.6 226.25
M 409.2 316.25
L 409.2 346.3
Q 409.2 361.3 424.2 361.3
L 474.2 361.3
Q 489.2 361.3 489.2 346.3
L 489.2 316.25
Q 489.2 301.25 474.2 301.25
L 424.2 301.25
Q 409.2 301.25 409.2 316.25
M 344.2 316.25
Q 344.2 301.25 329.2 301.25
L 279.2 301.25
Q 264.2 301.25 264.2 316.25
L 264.2 346.3
Q 264.2 361.3 279.2 361.3
L 329.2 361.3
Q 344.2 361.3 344.2 346.3
L 344.2 316.25
M 324.3 241.25
Q 324.33046875 241.33046875 324.4 241.4 324.55 241.55 324.75 241.55
L 334.4 241.55
Q 334.65 241.55 334.8 241.4 334.86953125 241.33046875 334.9 241.25
L 324.3 241.25
M 385.45 241.25
Q 385.48046875 241.33046875 385.55 241.4 385.7 241.55 385.9 241.55
L 395.55 241.55
Q 395.8 241.55 395.95 241.4 396.01953125 241.33046875 396.05 241.25
L 385.45 241.25
M 425.6 211.25
Q 410.6 211.25 410.6 226.25
L 410.6 256.3
Q 410.6 271.3 425.6 271.3
L 475.6 271.3
Q 490.6 271.3 490.6 256.3
L 490.6 226.25
Q 490.6 211.25 475.6 211.25
L 425.6 211.25
M 968.6 226.25
Q 968.6 211.25 953.6 211.25
L 903.6 211.25
Q 888.6 211.25 888.6 226.25
L 888.6 256.3
Q 888.6 271.3 903.6 271.3
L 953.6 271.3
Q 968.6 271.3 968.6 256.3
L 968.6 226.25
M 728.6 226.25
Q 728.6 211.25 713.6 211.25
L 663.6 211.25
Q 648.6 211.25 648.6 226.25
L 648.6 256.3
Q 648.6 271.3 663.6 271.3
L 713.6 271.3
Q 728.6 271.3 728.6 256.3
L 728.6 226.25
M 783.6 211.25
Q 768.6 211.25 768.6 226.25
L 768.6 256.3
Q 768.6 271.3 783.6 271.3
L 833.6 271.3
Q 848.6 271.3 848.6 256.3
L 848.6 226.25
Q 848.6 211.25 833.6 211.25
L 783.6 211.25
M 986.6 356.25
L 986.6 386.3
Q 986.6 401.3 1001.6 401.3
L 1091.6 401.3
Q 1106.6 401.3 1106.6 386.3
L 1106.6 356.25
Q 1106.6 341.25 1091.6 341.25
L 1001.6 341.25
Q 986.6 341.25 986.6 356.25 Z"/>
</g>

<path id="Layer0_0_1_STROKES" stroke="#BBDECB" stroke-width="5" stroke-linejoin="round" stroke-linecap="round" fill="none" d="
M 38.9 8.75
L 1160.85 8.75
Q 1175.85 8.75 1175.85 23.75
L 1175.85 132.7
Q 1175.85 147.7 1160.85 147.7
L 38.9 147.7
Q 23.9 147.7 23.9 132.7
L 23.9 23.75
Q 23.9 8.75 38.9 8.75 Z"/>

<path id="Layer0_0_2_STROKES" stroke="#DBDBDB" stroke-width="3" stroke-linejoin="round" stroke-linecap="round" fill="none" d="
M 1001.6 341.25
L 1091.6 341.25
Q 1106.6 341.25 1106.6 356.25
L 1106.6 386.3
Q 1106.6 401.3 1091.6 401.3
L 1001.6 401.3
Q 986.6 401.3 986.6 386.3
L 986.6 356.25
Q 986.6 341.25 1001.6 341.25 Z
M 783.6 211.25
L 833.6 211.25
Q 848.6 211.25 848.6 226.25
L 848.6 256.3
Q 848.6 271.3 833.6 271.3
L 783.6 271.3
Q 768.6 271.3 768.6 256.3
L 768.6 226.25
Q 768.6 211.25 783.6 211.25 Z
M 663.6 211.25
L 713.6 211.25
Q 728.6 211.25 728.6 226.25
L 728.6 256.3
Q 728.6 271.3 713.6 271.3
L 663.6 271.3
Q 648.6 271.3 648.6 256.3
L 648.6 226.25
Q 648.6 211.25 663.6 211.25 Z
M 903.6 211.25
L 953.6 211.25
Q 968.6 211.25 968.6 226.25
L 968.6 256.3
Q 968.6 271.3 953.6 271.3
L 903.6 271.3
Q 888.6 271.3 888.6 256.3
L 888.6 226.25
Q 888.6 211.25 903.6 211.25 Z
M 425.6 211.25
L 475.6 211.25
Q 490.6 211.25 490.6 226.25
L 490.6 256.3
Q 490.6 271.3 475.6 271.3
L 425.6 271.3
Q 410.6 271.3 410.6 256.3
L 410.6 226.25
Q 410.6 211.25 425.6 211.25 Z
M 279.2 301.25
L 329.2 301.25
Q 344.2 301.25 344.2 316.25
L 344.2 346.3
Q 344.2 361.3 329.2 361.3
L 279.2 361.3
Q 264.2 361.3 264.2 346.3
L 264.2 316.25
Q 264.2 301.25 279.2 301.25 Z
M 424.2 301.25
L 474.2 301.25
Q 489.2 301.25 489.2 316.25
L 489.2 346.3
Q 489.2 361.3 474.2 361.3
L 424.2 361.3
Q 409.2 361.3 409.2 346.3
L 409.2 316.25
Q 409.2 301.25 424.2 301.25 Z
M 543.6 211.25
L 593.6 211.25
Q 608.6 211.25 608.6 226.25
L 608.6 256.3
Q 608.6 271.3 593.6 271.3
L 543.6 271.3
Q 528.6 271.3 528.6 256.3
L 528.6 226.25
Q 528.6 211.25 543.6 211.25 Z
M 575.4 301.25
L 625.4 301.25
Q 640.4 301.25 640.4 316.25
L 640.4 346.3
Q 640.4 361.3 625.4 361.3
L 575.4 361.3
Q 560.4 361.3 560.4 346.3
L 560.4 316.25
Q 560.4 301.25 575.4 301.25 Z"/>
</defs>

<g transform="matrix( 1, 0, 0, 1, 0,0) ">
<use xlink:href="#Layer0_0_FILL"/>

<use xlink:href="#Layer0_0_1_STROKES"/>

<use xlink:href="#Layer0_0_2_STROKES"/>
</g>
</svg>
