<?xml version="1.0" encoding="utf-8"?>
<!-- Generator: Adobe Illustrator 23.1.0, SVG Export Plug-In . SVG Version: 6.00 Build 0)  -->
<svg version="1.1" id="레이어_1" xmlns="http://www.w3.org/2000/svg" xmlns:xlink="http://www.w3.org/1999/xlink" x="0px"
	 y="0px" width="1167px" height="174px" viewBox="0 0 1167 174" style="enable-background:new 0 0 1167 174;" xml:space="preserve">
<g>
	<path style="fill:#C58BBB;" d="M38.8,148.6C24,133.8,15.7,113.7,15.7,92.8v-6.4c0-20.9,8.3-40.9,23.1-55.7c13-13,30.2-21,48.4-22.7
		v12.5C72,22.1,58,28.8,47.1,39.7C34.4,52.3,27.5,69.2,27.5,87.1v5.2c0,17.9,7,34.7,19.6,47.4c10.9,10.9,24.9,17.6,40,19.2v12.5
		C68.9,169.6,51.8,161.6,38.8,148.6"/>
	<path style="fill:none;stroke:#C58BBB;stroke-width:2;stroke-linecap:round;stroke-linejoin:round;" d="M1155.7,171
		c0,0,9.6,0,9.6-4.6V12.9c0,0,0-4.6-9.6-4.6H121.8c0,0-9.6,0-9.6,4.6v153.6c0,0,0,4.6,9.6,4.6H1155.7z"/>
	<rect x="95.9" y="7" style="fill:#C58BBB;" width="21.8" height="164.3"/>
	<rect x="103.3" y="154.2" style="fill:#FFFFFF;" width="6.8" height="6.8"/>
	<rect x="103.3" y="126.8" style="fill:#FFFFFF;" width="6.8" height="6.8"/>
	<rect x="103.3" y="99.4" style="fill:#FFFFFF;" width="6.8" height="6.8"/>
	<rect x="103.3" y="72" style="fill:#FFFFFF;" width="6.8" height="6.8"/>
	<rect x="103.3" y="44.6" style="fill:#FFFFFF;" width="6.8" height="6.8"/>
	<rect x="103.3" y="17.3" style="fill:#FFFFFF;" width="6.8" height="6.8"/>
	<path style="fill:#C58BBB;" d="M34.5,18.9l5.8,5.8c-4.2,2.2-8.1,5.1-11.6,8.6c-2,2-3.8,4.2-5.4,6.5l-4.8-4.8L34.5,18.9z"/>
	
		<rect x="0.7" y="12.7" transform="matrix(0.7071 -0.7071 0.7071 0.7071 -7.4744 18.0463)" style="fill:#C58BBB;" width="34.7" height="10.7"/>
</g>
<g>
	<path style="fill:#8C3A82;" d="M51.9,61.8c0.3,0.3,0.5,0.8,0.5,1.6v3.1c0,0.8,0,1.5-0.1,2.1s-0.3,1.2-0.5,1.8
		c-0.3,0.6-0.6,1.1-1.1,1.6c-0.5,0.5-1.1,1.1-1.8,1.7c-0.7,0.6-1.6,1.2-2.6,1.9c-1,0.7-2.3,1.5-3.7,2.3c-0.3,0.2-0.6,0.2-0.9,0.1
		c-0.3-0.1-0.6-0.3-0.7-0.6c-0.2-0.3-0.3-0.6-0.3-0.9c0-0.4,0.2-0.6,0.5-0.8c1.3-0.8,2.4-1.5,3.4-2.1c0.9-0.6,1.7-1.1,2.3-1.6
		c0.6-0.5,1.1-0.9,1.5-1.4s0.7-0.8,0.9-1.2s0.3-0.9,0.4-1.3c0.1-0.5,0.1-1,0.1-1.6v-2.1c0-0.2,0-0.3-0.1-0.4
		c-0.1-0.1-0.2-0.1-0.5-0.1h-7.2c-0.4,0-0.6-0.1-0.8-0.4c-0.2-0.2-0.2-0.5-0.2-0.8c0-0.3,0.1-0.6,0.2-0.9c0.2-0.2,0.4-0.4,0.8-0.4
		h8.4C51.1,61.3,51.6,61.5,51.9,61.8z M58.8,59.4c0.4,0,0.7,0.1,1,0.3c0.3,0.2,0.4,0.5,0.4,0.9v21.6c0,0.4-0.1,0.7-0.4,0.9
		c-0.3,0.2-0.6,0.3-1,0.3c-0.4,0-0.7-0.1-1-0.3c-0.3-0.2-0.4-0.5-0.4-0.9V60.6c0-0.4,0.1-0.7,0.4-0.9C58.2,59.5,58.5,59.4,58.8,59.4
		z"/>
	<path style="fill:#8C3A82;" d="M76.2,73.2h9.3c0.3,0,0.6,0.1,0.7,0.3c0.2,0.2,0.2,0.5,0.2,0.8s-0.1,0.6-0.2,0.8
		c-0.2,0.2-0.4,0.3-0.7,0.3H64.2c-0.3,0-0.6-0.1-0.7-0.3c-0.2-0.2-0.2-0.5-0.2-0.8s0.1-0.6,0.2-0.8c0.2-0.2,0.4-0.3,0.7-0.3h9.3v-4
		h2.7V73.2z M67.7,77.1c0.4,0,0.7,0.1,1,0.3c0.3,0.2,0.4,0.5,0.4,0.9v3.5c0,0.4,0.2,0.6,0.6,0.6h13.1c0.3,0,0.6,0.1,0.7,0.3
		c0.2,0.2,0.2,0.5,0.2,0.8c0,0.3-0.1,0.6-0.2,0.8c-0.2,0.2-0.4,0.4-0.7,0.4H68.5c-0.8,0-1.4-0.1-1.7-0.4c-0.3-0.3-0.4-0.8-0.4-1.6
		v-4.4c0-0.4,0.1-0.7,0.4-0.9C67,77.2,67.4,77.1,67.7,77.1z M67.7,60c0.4,0,0.7,0.1,0.9,0.3c0.3,0.2,0.4,0.5,0.4,0.9v2h11.5v-2
		c0-0.4,0.1-0.7,0.4-0.9c0.3-0.2,0.6-0.3,0.9-0.3c0.4,0,0.7,0.1,1,0.3c0.3,0.2,0.4,0.5,0.4,0.9v7c0,0.8-0.2,1.3-0.5,1.6
		c-0.3,0.3-0.9,0.4-1.7,0.4H68.5c-0.8,0-1.4-0.1-1.7-0.4c-0.3-0.3-0.4-0.8-0.4-1.6v-7c0-0.4,0.1-0.7,0.4-0.9
		C67.1,60.1,67.4,60,67.7,60z M69.1,67.5c0,0.3,0.1,0.4,0.4,0.4h10.6c0.3,0,0.4-0.1,0.4-0.4v-2H69.1V67.5z"/>
	<path style="fill:#8C3A82;" d="M52.4,111.8h9.3c0.3,0,0.6,0.1,0.7,0.3c0.2,0.2,0.2,0.5,0.2,0.8s-0.1,0.6-0.2,0.8
		c-0.2,0.2-0.4,0.4-0.7,0.4H40.3c-0.3,0-0.6-0.1-0.7-0.4c-0.2-0.2-0.2-0.5-0.2-0.8s0.1-0.6,0.2-0.8c0.2-0.2,0.4-0.3,0.7-0.3h9.3
		v-6.5h2.8V111.8z M57.4,94.2c0.8,0,1.4,0.1,1.7,0.4c0.3,0.3,0.5,0.8,0.5,1.6v8.2c0,0.8-0.2,1.3-0.5,1.6c-0.3,0.3-0.9,0.4-1.7,0.4
		H44.6c-0.8,0-1.4-0.1-1.7-0.4c-0.3-0.3-0.4-0.8-0.4-1.6v-8.2c0-0.8,0.1-1.3,0.4-1.6c0.3-0.3,0.8-0.4,1.7-0.4H57.4z M45.9,96.6
		c-0.4,0-0.6,0.2-0.6,0.6v6.5c0,0.4,0.2,0.6,0.6,0.6h10.2c0.4,0,0.6-0.2,0.6-0.6v-6.5c0-0.4-0.2-0.6-0.6-0.6H45.9z"/>
	<path style="fill:#8C3A82;" d="M70,93.7c1.1,0,2,0.2,2.8,0.5c0.8,0.3,1.5,0.7,2,1.3c0.5,0.6,0.9,1.2,1.2,2c0.3,0.7,0.4,1.6,0.4,2.4
		c0,0.9-0.1,1.7-0.4,2.5c-0.3,0.7-0.7,1.4-1.2,2s-1.2,1-2,1.3c-0.8,0.3-1.7,0.5-2.8,0.5c-1.1,0-2-0.2-2.8-0.5
		c-0.8-0.3-1.5-0.7-2-1.3c-0.5-0.6-0.9-1.2-1.2-2c-0.3-0.7-0.4-1.6-0.4-2.5c0-0.9,0.1-1.7,0.4-2.4c0.3-0.7,0.7-1.4,1.2-2
		c0.5-0.6,1.2-1,2-1.3C68,93.8,69,93.7,70,93.7z M70,96c-0.7,0-1.3,0.1-1.7,0.3c-0.5,0.2-0.9,0.5-1.2,0.8s-0.5,0.7-0.7,1.2
		c-0.1,0.5-0.2,1-0.2,1.5c0,0.5,0.1,1,0.2,1.5c0.1,0.5,0.4,0.9,0.7,1.2s0.7,0.6,1.2,0.8c0.5,0.2,1,0.3,1.7,0.3
		c0.7,0,1.3-0.1,1.7-0.3c0.5-0.2,0.9-0.5,1.2-0.8s0.5-0.8,0.7-1.2c0.1-0.5,0.2-1,0.2-1.5c0-0.5-0.1-1-0.2-1.5
		c-0.1-0.5-0.4-0.9-0.7-1.2s-0.7-0.6-1.2-0.8C71.3,96.1,70.7,96,70,96z M75.1,108.1c2.5,0,4.5,0.4,5.9,1.3c1.4,0.9,2.1,2.2,2.1,3.9
		c0,1.7-0.7,3-2.1,3.9c-1.4,0.9-3.3,1.3-5.9,1.3c-2.5,0-4.5-0.4-5.9-1.3c-1.4-0.9-2.1-2.2-2.1-3.9c0-1.7,0.7-3,2.1-3.9
		C70.6,108.5,72.6,108.1,75.1,108.1z M75.1,110.3c-1.8,0-3.1,0.3-4,0.8c-0.8,0.5-1.2,1.3-1.2,2.2c0,0.9,0.4,1.7,1.2,2.2
		s2.1,0.8,4,0.8c1.8,0,3.1-0.3,4-0.8c0.8-0.5,1.2-1.3,1.2-2.2c0-0.9-0.4-1.7-1.2-2.2C78.3,110.6,76.9,110.3,75.1,110.3z M81.5,92.7
		c0.4,0,0.7,0.1,1,0.3c0.3,0.2,0.4,0.5,0.4,0.9v2.6h2.9c0.3,0,0.5,0.1,0.7,0.4c0.2,0.2,0.2,0.5,0.2,0.8s-0.1,0.6-0.2,0.8
		c-0.2,0.2-0.4,0.4-0.7,0.4h-2.9v2.4h2.9c0.3,0,0.5,0.1,0.7,0.4c0.2,0.2,0.2,0.5,0.2,0.8s-0.1,0.6-0.2,0.8s-0.4,0.4-0.7,0.4h-2.9
		v3.2c0,0.4-0.1,0.7-0.4,0.9s-0.6,0.3-1,0.3c-0.4,0-0.7-0.1-1-0.3c-0.3-0.2-0.4-0.5-0.4-0.9V93.8c0-0.4,0.1-0.7,0.4-0.9
		C80.8,92.8,81.1,92.7,81.5,92.7z"/>
</g>
</svg>
