<?xml version="1.0" encoding="utf-8"?>
<!-- Generator: Adobe Illustrator 24.1.1, SVG Export Plug-In . SVG Version: 6.00 Build 0)  -->
<svg version="1.1" id="레이어_1" xmlns="http://www.w3.org/2000/svg" xmlns:xlink="http://www.w3.org/1999/xlink" x="0px"
	 y="0px" width="1280px" height="700px" viewBox="0 0 1280 700" style="enable-background:new 0 0 1280 700;" xml:space="preserve">
<style type="text/css">
	.st0{fill:url(#SVGID_1_);}
	.st1{fill:url(#SVGID_2_);}
	.st2{fill:url(#SVGID_3_);}
	.st3{fill:url(#SVGID_4_);}
	.st4{fill:url(#SVGID_5_);}
	.st5{fill:url(#SVGID_6_);}
	.st6{fill:url(#SVGID_7_);}
</style>
<g>
	
		<linearGradient id="SVGID_1_" gradientUnits="userSpaceOnUse" x1="541.9431" y1="988.3542" x2="640.8864" y2="619.0919" gradientTransform="matrix(1 0 0 1 0 -596)">
		<stop  offset="5.025126e-03" style="stop-color:#FFC86A"/>
		<stop  offset="1" style="stop-color:#F79536"/>
	</linearGradient>
	<path class="st0" d="M0,0v52.8c42,0.5,65,3.1,89.1,5.8c28.1,3.2,57.1,6.4,114.8,6.4s86.7-3.3,114.8-6.4c26.7-3,52-5.9,103.3-5.9
		c51.4,0,76.6,2.8,103.3,5.9c28.1,3.2,57.1,6.4,114.8,6.4s86.7-3.3,114.8-6.4c26.7-3,52-5.9,103.3-5.9c51.4,0,76.6,2.8,103.3,5.9
		c28.1,3.2,57.1,6.4,114.8,6.4c57.7,0,86.7-3.3,114.8-6.4c24.1-2.7,47-5.3,88.9-5.8V0H0z"/>
</g>
<g>
	
		<linearGradient id="SVGID_2_" gradientUnits="userSpaceOnUse" x1="541.9431" y1="-374.3542" x2="640.8865" y2="-5.0917" gradientTransform="matrix(1 0 0 -1 0 518)">
		<stop  offset="0" style="stop-color:#FFB885"/>
		<stop  offset="1" style="stop-color:#F27B5C"/>
	</linearGradient>
	<path class="st1" d="M0,500v52.8c42,0.5,65,3.1,89.1,5.8c28.1,3.2,57.1,6.4,114.8,6.4s86.7-3.3,114.8-6.4c26.7-3,52-5.9,103.3-5.9
		c51.4,0,76.6,2.8,103.3,5.9c28.1,3.2,57.1,6.4,114.8,6.4s86.7-3.3,114.8-6.4c26.7-3,52-5.9,103.3-5.9c51.4,0,76.6,2.8,103.3,5.9
		c28.1,3.2,57.1,6.4,114.8,6.4c57.7,0,86.7-3.3,114.8-6.4c24.1-2.7,47-5.3,88.9-5.8V500H0z"/>
</g>
<g>
	
		<linearGradient id="SVGID_3_" gradientUnits="userSpaceOnUse" x1="541.9431" y1="-474.3542" x2="640.8865" y2="-105.0917" gradientTransform="matrix(1 0 0 -1 0 518)">
		<stop  offset="0" style="stop-color:#8CEEFF"/>
		<stop  offset="1" style="stop-color:#52AFD9"/>
	</linearGradient>
	<path class="st2" d="M0,600v52.8c42,0.5,65,3.1,89.1,5.8c28.1,3.2,57.1,6.4,114.8,6.4s86.7-3.3,114.8-6.4c26.7-3,52-5.9,103.3-5.9
		c51.4,0,76.6,2.8,103.3,5.9c28.1,3.2,57.1,6.4,114.8,6.4s86.7-3.3,114.8-6.4c26.7-3,52-5.9,103.3-5.9c51.4,0,76.6,2.8,103.3,5.9
		c28.1,3.2,57.1,6.4,114.8,6.4c57.7,0,86.7-3.3,114.8-6.4c24.1-2.7,47-5.3,88.9-5.8V600H0z"/>
</g>
<g>
	
		<linearGradient id="SVGID_4_" gradientUnits="userSpaceOnUse" x1="541.9431" y1="-274.3542" x2="640.8865" y2="94.9084" gradientTransform="matrix(1 0 0 -1 0 518)">
		<stop  offset="0" style="stop-color:#95F295"/>
		<stop  offset="0.9849" style="stop-color:#68B368"/>
	</linearGradient>
	<path class="st3" d="M0,400v52.8c42,0.5,65,3.1,89.1,5.8c28.1,3.2,57.1,6.4,114.8,6.4s86.7-3.3,114.8-6.4c26.7-3,52-5.9,103.3-5.9
		c51.4,0,76.6,2.8,103.3,5.9c28.1,3.2,57.1,6.4,114.8,6.4s86.7-3.3,114.8-6.4c26.7-3,52-5.9,103.3-5.9c51.4,0,76.6,2.8,103.3,5.9
		c28.1,3.2,57.1,6.4,114.8,6.4c57.7,0,86.7-3.3,114.8-6.4c24.1-2.7,47-5.3,88.9-5.8V400H0z"/>
</g>
<g>
	
		<linearGradient id="SVGID_5_" gradientUnits="userSpaceOnUse" x1="541.9431" y1="-174.3542" x2="640.8865" y2="194.9084" gradientTransform="matrix(1 0 0 -1 0 518)">
		<stop  offset="0" style="stop-color:#FFC7FD"/>
		<stop  offset="0.9899" style="stop-color:#D17DCE"/>
	</linearGradient>
	<path class="st4" d="M0,300v52.8c42,0.5,65,3.1,89.1,5.8c28.1,3.2,57.1,6.4,114.8,6.4s86.7-3.3,114.8-6.4c26.7-3,52-5.9,103.3-5.9
		c51.4,0,76.6,2.8,103.3,5.9c28.1,3.2,57.1,6.4,114.8,6.4s86.7-3.3,114.8-6.4c26.7-3,52-5.9,103.3-5.9c51.4,0,76.6,2.8,103.3,5.9
		c28.1,3.2,57.1,6.4,114.8,6.4c57.7,0,86.7-3.3,114.8-6.4c24.1-2.7,47-5.3,88.9-5.8V300H0z"/>
</g>
<g>
	
		<linearGradient id="SVGID_6_" gradientUnits="userSpaceOnUse" x1="541.9431" y1="-74.3542" x2="640.8865" y2="294.9084" gradientTransform="matrix(1 0 0 -1 0 518)">
		<stop  offset="0" style="stop-color:#91F2EA"/>
		<stop  offset="0.9899" style="stop-color:#34BABA"/>
	</linearGradient>
	<path class="st5" d="M0,200v52.8c42,0.5,65,3.1,89.1,5.8c28.1,3.2,57.1,6.4,114.8,6.4s86.7-3.3,114.8-6.4c26.7-3,52-5.9,103.3-5.9
		c51.4,0,76.6,2.8,103.3,5.9c28.1,3.2,57.1,6.4,114.8,6.4s86.7-3.3,114.8-6.4c26.7-3,52-5.9,103.3-5.9c51.4,0,76.6,2.8,103.3,5.9
		c28.1,3.2,57.1,6.4,114.8,6.4c57.7,0,86.7-3.3,114.8-6.4c24.1-2.7,47-5.3,88.9-5.8V200H0z"/>
</g>
<g>
	
		<linearGradient id="SVGID_7_" gradientUnits="userSpaceOnUse" x1="541.943" y1="456.3542" x2="640.8865" y2="87.0914" gradientTransform="matrix(1 0 0 1 0 36)">
		<stop  offset="0" style="stop-color:#BDD2FF"/>
		<stop  offset="1" style="stop-color:#7F9DD0"/>
	</linearGradient>
	<path class="st6" d="M0,100v52.8c42,0.5,65,3.1,89.1,5.8c28.1,3.2,57.1,6.4,114.8,6.4s86.7-3.3,114.8-6.4c26.7-3,52-5.9,103.3-5.9
		c51.4,0,76.6,2.8,103.3,5.9c28.1,3.2,57.1,6.4,114.8,6.4s86.7-3.3,114.8-6.4c26.7-3,52-5.9,103.3-5.9c51.4,0,76.6,2.8,103.3,5.9
		c28.1,3.2,57.1,6.4,114.8,6.4c57.7,0,86.7-3.3,114.8-6.4c24.1-2.7,47-5.3,88.9-5.8V100H0z"/>
</g>
</svg>
