<?xml version="1.0" encoding="utf-8"?>
<!-- Generator: Adobe Illustrator 23.0.0, SVG Export Plug-In . SVG Version: 6.00 Build 0)  -->
<svg version="1.1" id="레이어_1" xmlns="http://www.w3.org/2000/svg" xmlns:xlink="http://www.w3.org/1999/xlink" x="0px"
	 y="0px" width="304px" height="42.2px" viewBox="0 0 304 42.2" style="enable-background:new 0 0 304 42.2;" xml:space="preserve">
<path style="fill:#F7ECC0;" d="M42.3,21.1c0,11.3-9.2,20.5-20.5,20.5c-11.3,0-20.5-9.2-20.5-20.5c0-11.3,9.2-20.5,20.5-20.5
	C33.1,0.6,42.3,9.8,42.3,21.1"/>
<path d="M21.8,42.1c-11.6,0-21-9.4-21-21c0-11.6,9.4-21,21-21c11.6,0,21,9.4,21,21C42.8,32.7,33.4,42.1,21.8,42.1z M21.8,1.1
	c-11,0-20,9-20,20c0,11,9,20,20,20s20-9,20-20C41.8,10.1,32.8,1.1,21.8,1.1z M21.8,33.9c-5.5,0-10.5-3.2-12.9-8.1l0.9-0.4
	c2.2,4.6,6.9,7.5,12,7.5c5.1,0,9.8-3,12-7.6l0.9,0.4C32.4,30.7,27.3,33.9,21.8,33.9z M33.8,16.3c-0.6-1.9-2.5-3.2-4.5-3.2
	c-2,0-3.7,1.2-4.4,3l-0.9-0.4c0.9-2.2,3-3.7,5.4-3.7c2.5,0,4.7,1.6,5.5,3.9L33.8,16.3z M17.8,16.2c-0.6-1.9-2.5-3.2-4.5-3.2
	c-1.9,0-3.7,1.2-4.4,3L8,15.7c0.9-2.2,3-3.7,5.4-3.7c2.5,0,4.7,1.6,5.5,3.9L17.8,16.2z"/>
<path style="fill:#F7ECC0;" d="M97.8,21.1c0,11.3-9.2,20.5-20.5,20.5c-11.3,0-20.5-9.2-20.5-20.5C56.8,9.8,66,0.6,77.3,0.6
	C88.6,0.6,97.8,9.8,97.8,21.1"/>
<path d="M77.3,42.1c-11.6,0-21-9.4-21-21c0-11.6,9.4-21,21-21c11.6,0,21,9.4,21,21C98.3,32.7,88.9,42.1,77.3,42.1z M77.3,1.1
	c-11,0-20,9-20,20c0,11,9,20,20,20s20-9,20-20C97.3,10.1,88.3,1.1,77.3,1.1z M77.3,33.9c-5.5,0-10.5-3.2-12.9-8.1l0.9-0.4
	c2.2,4.6,6.9,7.5,12,7.5c5.1,0,9.8-3,12-7.6l0.9,0.4C87.9,30.7,82.8,33.9,77.3,33.9z M89.3,16.3c-0.6-1.9-2.5-3.2-4.5-3.2
	c-2,0-3.7,1.2-4.4,3l-0.9-0.4c0.9-2.2,3-3.7,5.4-3.7c2.5,0,4.7,1.6,5.5,3.9L89.3,16.3z M73.4,16.2c-0.6-1.9-2.5-3.2-4.5-3.2
	c-1.9,0-3.7,1.2-4.4,3l-0.9-0.4c0.9-2.2,3-3.7,5.4-3.7c2.5,0,4.7,1.6,5.5,3.9L73.4,16.2z"/>
<path style="fill:#F7ECC0;" d="M153.3,21.1c0,11.3-9.2,20.5-20.5,20.5c-11.3,0-20.5-9.2-20.5-20.5c0-11.3,9.2-20.5,20.5-20.5
	C144.1,0.6,153.3,9.8,153.3,21.1"/>
<path d="M132.8,42.1c-11.6,0-21-9.4-21-21c0-11.6,9.4-21,21-21c11.6,0,21,9.4,21,21C153.8,32.7,144.4,42.1,132.8,42.1z M132.8,1.1
	c-11,0-20,9-20,20c0,11,9,20,20,20c11,0,20-9,20-20C152.8,10.1,143.8,1.1,132.8,1.1z M132.8,33.9c-5.5,0-10.5-3.2-12.9-8.1l0.9-0.4
	c2.2,4.6,6.9,7.5,12,7.5c5.1,0,9.8-3,12-7.6l0.9,0.4C143.4,30.7,138.3,33.9,132.8,33.9z M144.8,16.3c-0.6-1.9-2.5-3.2-4.5-3.2
	c-2,0-3.7,1.2-4.4,3l-0.9-0.4c0.9-2.2,3-3.7,5.4-3.7c2.5,0,4.7,1.6,5.5,3.9L144.8,16.3z M128.9,16.2c-0.6-1.9-2.5-3.2-4.5-3.2
	c-1.9,0-3.7,1.2-4.4,3l-0.9-0.4c0.9-2.2,3-3.7,5.4-3.7c2.5,0,4.7,1.6,5.5,3.9L128.9,16.2z"/>
<path style="fill:#F7ECC0;" d="M208.8,21.1c0,11.3-9.2,20.5-20.5,20.5c-11.3,0-20.5-9.2-20.5-20.5c0-11.3,9.2-20.5,20.5-20.5
	C199.6,0.6,208.8,9.8,208.8,21.1"/>
<path d="M188.3,42.1c-11.6,0-21-9.4-21-21c0-11.6,9.4-21,21-21c11.6,0,21,9.4,21,21C209.3,32.7,199.9,42.1,188.3,42.1z M188.3,1.1
	c-11,0-20,9-20,20c0,11,9,20,20,20c11,0,20-9,20-20C208.3,10.1,199.3,1.1,188.3,1.1z M188.3,33.9c-5.5,0-10.5-3.2-12.9-8.1l0.9-0.4
	c2.2,4.6,6.9,7.5,12,7.5c5.1,0,9.8-3,12-7.6l0.9,0.4C198.9,30.7,193.8,33.9,188.3,33.9z M200.3,16.3c-0.6-1.9-2.5-3.2-4.5-3.2
	c-2,0-3.7,1.2-4.4,3l-0.9-0.4c0.9-2.2,3-3.7,5.4-3.7c2.5,0,4.7,1.6,5.5,3.9L200.3,16.3z M184.4,16.2c-0.6-1.9-2.5-3.2-4.5-3.2
	c-1.9,0-3.7,1.2-4.4,3l-0.9-0.4c0.9-2.2,3-3.7,5.4-3.7c2.5,0,4.7,1.6,5.5,3.9L184.4,16.2z"/>
<path style="fill:#F7ECC0;" d="M264.3,21.1c0,11.3-9.2,20.5-20.5,20.5c-11.3,0-20.5-9.2-20.5-20.5c0-11.3,9.2-20.5,20.5-20.5
	C255.2,0.6,264.3,9.8,264.3,21.1"/>
<path d="M243.8,42.1c-11.6,0-21-9.4-21-21c0-11.6,9.4-21,21-21c11.6,0,21,9.4,21,21C264.8,32.7,255.4,42.1,243.8,42.1z M243.8,1.1
	c-11,0-20,9-20,20c0,11,9,20,20,20c11,0,20-9,20-20C263.8,10.1,254.9,1.1,243.8,1.1z M243.8,33.9c-5.5,0-10.5-3.2-12.9-8.1l0.9-0.4
	c2.2,4.6,6.9,7.5,12,7.5c5.1,0,9.8-3,12-7.6l0.9,0.4C254.4,30.7,249.3,33.9,243.8,33.9z M255.8,16.3c-0.6-1.9-2.5-3.2-4.5-3.2
	c-2,0-3.7,1.2-4.4,3l-0.9-0.4c0.9-2.2,3-3.7,5.4-3.7c2.5,0,4.7,1.6,5.5,3.9L255.8,16.3z M239.9,16.2c-0.6-1.9-2.5-3.2-4.5-3.2
	c-1.9,0-3.7,1.2-4.4,3l-0.9-0.4c0.9-2.2,3-3.7,5.4-3.7c2.5,0,4.7,1.6,5.5,3.9L239.9,16.2z"/>
<path style="fill:#F7ECC0;" d="M302.7,21.1c0,6.8-5.5,12.3-12.3,12.3c-6.8,0-12.3-5.5-12.3-12.3c0-6.8,5.5-12.3,12.3-12.3
	C297.2,8.8,302.7,14.3,302.7,21.1"/>
<path d="M290.4,33.9c-7.1,0-12.8-5.7-12.8-12.8c0-7.1,5.7-12.8,12.8-12.8s12.8,5.7,12.8,12.8C303.2,28.2,297.5,33.9,290.4,33.9z
	 M290.4,9.3c-6.5,0-11.8,5.3-11.8,11.8c0,6.5,5.3,11.8,11.8,11.8c6.5,0,11.8-5.3,11.8-11.8C302.2,14.6,296.9,9.3,290.4,9.3z
	 M290.4,29c-3.3,0-6.5-1.9-7.9-5l0.9-0.4c1.3,2.7,4,4.4,7,4.4c3,0,5.8-1.7,7-4.5l0.9,0.4C296.9,27,293.8,29,290.4,29z M297.4,18.3
	c-0.4-1.1-1.4-1.8-2.5-1.8c-1.1,0-2.1,0.7-2.5,1.7l-0.9-0.4c0.5-1.4,1.9-2.3,3.4-2.3c1.6,0,3,1,3.5,2.5L297.4,18.3z M287.9,18.3
	c-0.4-1.1-1.4-1.8-2.5-1.8c-1.1,0-2.1,0.7-2.5,1.7l-0.9-0.4c0.6-1.4,1.9-2.3,3.4-2.3c1.6,0,3,1,3.5,2.5L287.9,18.3z"/>
<g>
</g>
<g>
</g>
<g>
</g>
<g>
</g>
<g>
</g>
<g>
</g>
<g>
</g>
<g>
</g>
<g>
</g>
<g>
</g>
<g>
</g>
<g>
</g>
<g>
</g>
<g>
</g>
<g>
</g>
</svg>
