
<svg xmlns="http://www.w3.org/2000/svg" version="1.1" xmlns:xlink="http://www.w3.org/1999/xlink" preserveAspectRatio="none" x="0px" y="0px" width="1280px" height="720px" viewBox="0 0 1280 720">
<defs>
<g id="Layer0_0_FILL">
<path fill="#1E1E1E" stroke="none" d="
M 829.55 452.45
Q 829.4 452.3 829.15 452.3
L 807.2 452.3
Q 805.65 452.3 805 452.85 804.3 453.4 804.3 454.9
L 804.3 466.55
Q 804.3 468 805 468.8 805.75 469.55 807.35 469.6
L 814.8 469.6 814.8 477.3 799.65 477.3
Q 799.35 477.3 799.2 477.45 799.05 477.65 799.05 477.9
L 799.05 480.55
Q 799.05 480.75 799.2 480.95 799.35 481.1 799.65 481.15
L 834.45 481.15
Q 834.7 481.1 834.85 480.95 835.05 480.75 835.05 480.55
L 835.05 477.9
Q 835.05 477.7 834.85 477.5 834.7 477.3 834.45 477.3
L 819.35 477.3 819.35 469.6 829.5 469.6
Q 829.7 469.6 829.85 469.45 830 469.3 830 469
L 830 466.25
Q 830 465.95 829.8 465.85 829.65 465.75 829.35 465.75
L 809.65 465.75
Q 809.2 465.75 809.05 465.6 808.9 465.4 808.9 465.05
L 808.9 456.85
Q 808.9 456.5 809.1 456.3 809.25 456.15 809.65 456.15
L 829.15 456.15
Q 829.4 456.15 829.55 456 829.7 455.9 829.7 455.6
L 829.7 452.8
Q 829.7 452.55 829.55 452.45
M 793.05 450.2
Q 793.05 449.9 792.85 449.8 792.75 449.65 792.45 449.65
L 788.95 449.65
Q 788.7 449.65 788.55 449.8 788.4 449.95 788.4 450.2
L 788.4 470.8
Q 788.4 471.05 788.55 471.2 788.7 471.4 788.95 471.4
L 792.45 471.4
Q 792.75 471.4 792.85 471.25 793.05 471.1 793.05 470.85
L 793.05 463.1 798.4 463.1
Q 798.65 463.1 798.85 462.95 799 462.8 799 462.6
L 799 459.8
Q 799 459.55 798.85 459.4 798.65 459.25 798.4 459.25
L 793.05 459.25 793.05 450.2
M 769 476.75
Q 769 476.95 769.15 477.1 769.3 477.2 769.55 477.2
L 787.6 477.2
Q 788 477.2 788.2 477.35 788.35 477.45 788.35 477.9
L 788.35 487
Q 788.35 487.2 788.55 487.35 788.75 487.55 789 487.55
L 792.4 487.55
Q 792.6 487.55 792.8 487.35 792.95 487.2 793 487
L 793 476.2
Q 793 474.65 792.4 474 791.8 473.35 790.3 473.35
L 769.55 473.35
Q 769.3 473.35 769.15 473.5 769 473.6 769 473.9
L 769 476.75
M 764.3 468.2
Q 763.85 468.4 763.8 468.7 763.75 469 763.9 469.35
L 764.95 471.4
Q 765.1 471.8 765.4 471.9 765.75 472 766.2 471.8 772.55 469.2 776.5 465.3 780.5 461.4 782 455.9 782.05 455.75 782.15 455.35 782.25 454.95 782.35 454.5 782.4 454.1 782.4 453.85 782.45 452.6 781.7 452 781 451.45 779.2 451.45
L 765.65 451.45
Q 765.4 451.45 765.25 451.6 765.1 451.75 765.1 452
L 765.1 454.65
Q 765.1 454.9 765.25 455.1 765.35 455.25 765.65 455.25
L 776.5 455.25
Q 777.2 455.25 777.25 455.5 777.3 455.8 777.05 456.4 775.9 460.05 772.6 463.05 769.25 466.05 764.3 468.2
M 729.2 482.45
L 729.2 475.85
Q 729.2 475.65 729 475.45 728.85 475.25 728.55 475.25
L 725.15 475.25
Q 724.9 475.25 724.75 475.45 724.6 475.65 724.6 475.85
L 724.6 484.1
Q 724.55 485.65 725.2 486.3 725.85 486.95 727.6 486.95
L 750 486.95
Q 750.2 486.95 750.35 486.85 750.55 486.7 750.55 486.45
L 750.55 483.6
Q 750.55 483.4 750.35 483.25 750.2 483.1 750 483.1
L 729.9 483.1
Q 729.5 483.1 729.35 483 729.2 482.85 729.2 482.45
M 732.45 455.8
Q 732.55 455.45 732.65 455 732.75 454.5 732.75 454.15 732.75 453.1 731.9 452.55 731.05 452 729.4 452
L 719.05 452
Q 718.85 452 718.7 452.15 718.55 452.3 718.55 452.6
L 718.55 455.1
Q 718.55 455.35 718.7 455.5 718.8 455.7 719 455.7
L 727.2 455.7
Q 727.65 455.7 727.8 455.85 727.95 456.05 727.75 456.55 727 458.75 725.5 461.2 724 463.65 721.8 465.95 719.65 468.25 716.75 470 716.4 470.25 716.35 470.55 716.35 470.9 716.55 471.15
L 717.95 473
Q 718.2 473.35 718.55 473.3 718.9 473.25 719.2 473.1 721.35 471.75 723.3 469.95 725.3 468.15 726.95 466.1 727.75 467.2 728.8 468.25 729.8 469.35 730.9 470.25 731.95 471.15 732.75 471.7 733.15 471.95 733.5 471.9 733.85 471.85 734.1 471.55
L 735.45 469.75
Q 735.75 469.35 735.7 469.05 735.65 468.75 735.25 468.55 734.3 467.95 733.2 467 732.1 466.1 731.05 464.95 730.05 463.9 729.35 462.8 730.5 460.95 731.3 459.2 732.05 457.4 732.45 455.8
M 749.6 450.2
Q 749.6 449.9 749.45 449.8 749.35 449.65 749.05 449.65
L 745.6 449.65
Q 745.35 449.65 745.2 449.8 745.05 449.9 745.05 450.2
L 745.05 460.75 741.65 460.75 741.65 450.8
Q 741.65 450.55 741.55 450.4 741.4 450.3 741.15 450.3
L 737.85 450.3
Q 737.6 450.3 737.45 450.4 737.3 450.55 737.3 450.8
L 737.3 475.15
Q 737.3 475.4 737.45 475.55 737.6 475.7 737.85 475.7
L 741.15 475.7
Q 741.4 475.7 741.55 475.55 741.65 475.4 741.65 475.15
L 741.65 464.6 745.05 464.6 745.05 476.05
Q 745.05 476.3 745.2 476.45 745.3 476.55 745.6 476.55
L 749.05 476.55
Q 749.35 476.55 749.45 476.45 749.6 476.3 749.6 476.05
L 749.6 450.2
M 845.5 376.85
Q 845.5 376.5 845.7 376.3 845.85 376.15 846.25 376.15
L 865.75 376.15
Q 866 376.15 866.15 376 866.3 375.9 866.3 375.6
L 866.3 372.8
Q 866.3 372.55 866.15 372.45 866 372.3 865.75 372.3
L 843.8 372.3
Q 842.25 372.3 841.6 372.85 840.9 373.4 840.9 374.9
L 840.9 386.55
Q 840.9 388 841.6 388.8 842.35 389.55 843.95 389.6
L 851.4 389.6 851.4 397.3 836.25 397.3
Q 835.95 397.3 835.8 397.45 835.65 397.65 835.65 397.9
L 835.65 400.55
Q 835.65 400.75 835.8 400.95 835.95 401.1 836.25 401.15
L 871.05 401.15
Q 871.3 401.1 871.45 400.95 871.65 400.75 871.65 400.55
L 871.65 397.9
Q 871.65 397.7 871.45 397.5 871.3 397.3 871.05 397.3
L 855.95 397.3 855.95 389.6 866.1 389.6
Q 866.3 389.6 866.45 389.45 866.6 389.3 866.6 389
L 866.6 386.25
Q 866.6 385.95 866.4 385.85 866.25 385.75 865.95 385.75
L 846.25 385.75
Q 845.8 385.75 845.65 385.6 845.5 385.4 845.5 385.05
L 845.5 376.85
M 825.15 369.8
Q 825 369.95 825 370.2
L 825 390.8
Q 825 391.05 825.15 391.2 825.3 391.4 825.55 391.4
L 829.05 391.4
Q 829.35 391.4 829.45 391.25 829.65 391.1 829.65 390.85
L 829.65 383.1 835 383.1
Q 835.25 383.1 835.45 382.95 835.6 382.8 835.6 382.6
L 835.6 379.8
Q 835.6 379.55 835.45 379.4 835.25 379.25 835 379.25
L 829.65 379.25 829.65 370.2
Q 829.65 369.9 829.45 369.8 829.35 369.65 829.05 369.65
L 825.55 369.65
Q 825.3 369.65 825.15 369.8
M 806.15 393.35
Q 805.9 393.35 805.75 393.5 805.6 393.6 805.6 393.9
L 805.6 396.75
Q 805.6 396.95 805.75 397.1 805.9 397.2 806.15 397.2
L 824.2 397.2
Q 824.6 397.2 824.8 397.35 824.95 397.45 824.95 397.9
L 824.95 407
Q 824.95 407.2 825.15 407.35 825.35 407.55 825.6 407.55
L 829 407.55
Q 829.2 407.55 829.4 407.35 829.55 407.2 829.6 407
L 829.6 396.2
Q 829.6 394.65 829 394 828.4 393.35 826.9 393.35
L 806.15 393.35
M 802.25 371.45
Q 802 371.45 801.85 371.6 801.7 371.75 801.7 372
L 801.7 374.65
Q 801.7 374.9 801.85 375.1 801.95 375.25 802.25 375.25
L 813.1 375.25
Q 813.8 375.25 813.85 375.5 813.9 375.8 813.65 376.4 812.5 380.05 809.2 383.05 805.85 386.05 800.9 388.2 800.45 388.4 800.4 388.7 800.35 389 800.5 389.35
L 801.55 391.4
Q 801.7 391.8 802 391.9 802.35 392 802.8 391.8 809.15 389.2 813.1 385.3 817.1 381.4 818.6 375.9 818.65 375.75 818.75 375.35 818.85 374.95 818.95 374.5 819 374.1 819 373.85 819.05 372.6 818.3 372 817.6 371.45 815.8 371.45
L 802.25 371.45
M 784.2 403.35
Q 784 403.2 783.8 403.2
L 764.95 403.2
Q 764.55 403.2 764.4 403.05 764.2 402.9 764.2 402.55
L 764.2 398
Q 764.2 397.75 764.05 397.55 763.85 397.4 763.55 397.35
L 760.15 397.35
Q 759.95 397.4 759.8 397.55 759.6 397.75 759.6 398
L 759.6 404.15
Q 759.55 405.7 760.2 406.4 760.9 407.05 762.65 407
L 783.8 407
Q 784 407 784.2 406.9 784.35 406.8 784.35 406.55
L 784.35 403.7
Q 784.35 403.5 784.2 403.35
M 778.35 369.8
Q 778.2 369.9 778.2 370.2
L 778.2 398.45
Q 778.2 398.7 778.35 398.8 778.45 398.95 778.75 398.95
L 782.3 398.95
Q 782.55 398.95 782.7 398.8 782.85 398.7 782.85 398.45
L 782.85 386.9 788.2 386.9
Q 788.45 386.9 788.65 386.75 788.8 386.65 788.8 386.4
L 788.8 383.6
Q 788.8 383.35 788.65 383.2 788.45 383.05 788.2 383.05
L 782.85 383.05 782.85 370.2
Q 782.85 369.9 782.7 369.8 782.55 369.65 782.3 369.65
L 778.75 369.65
Q 778.45 369.65 778.35 369.8
M 753.2 376.45
L 753.2 378.8
Q 753.2 379.1 753.4 379.3 753.55 379.5 753.8 379.5
L 775 379.5
Q 775.25 379.5 775.45 379.3 775.6 379.15 775.6 378.85
L 775.6 376.45
Q 775.6 376.2 775.45 376.05 775.25 375.85 775 375.85
L 753.85 375.85
Q 753.6 375.85 753.4 376.05 753.2 376.25 753.2 376.45
M 764.75 380.9
Q 762.3 380.95 760.35 381.85 758.4 382.8 757.25 384.4 756.1 386.05 756.05 388 756.1 390.05 757.25 391.65 758.4 393.25 760.35 394.2 762.3 395.15 764.7 395.2 767.2 395.15 769.15 394.2 771.15 393.25 772.3 391.65 773.45 390.05 773.45 388 773.45 386.05 772.3 384.4 771.1 382.8 769.15 381.85 767.2 380.95 764.75 380.9
M 764.75 384.45
Q 766.7 384.5 767.9 385.5 769.05 386.5 769.1 388 769.05 389.6 767.9 390.6 766.7 391.65 764.75 391.7 762.8 391.65 761.6 390.6 760.45 389.6 760.4 388 760.45 386.5 761.6 385.5 762.8 384.5 764.75 384.45
M 759.35 370.55
Q 759.2 370.55 758.95 370.7 758.75 370.85 758.75 371.2
L 758.75 373.55
Q 758.75 373.8 758.95 374 759.2 374.15 759.35 374.15
L 769.8 374.15
Q 770.1 374.15 770.3 373.95 770.45 373.75 770.45 373.5
L 770.45 371.2
Q 770.45 370.95 770.25 370.75 770.05 370.55 769.8 370.55
L 759.35 370.55
M 743.05 369.8
Q 742.9 369.9 742.9 370.2
L 742.9 391.55
Q 742.9 391.8 743.05 391.95 743.15 392.1 743.4 392.1
L 746.95 392.1
Q 747.25 392.1 747.4 392 747.5 391.85 747.5 391.55
L 747.5 370.2
Q 747.5 369.9 747.4 369.8 747.25 369.65 746.95 369.65
L 743.4 369.65
Q 743.15 369.65 743.05 369.8
M 727.05 394.1
Q 725.5 394.1 724.85 394.75 724.15 395.4 724.2 396.95
L 724.2 404.1
Q 724.15 405.65 724.8 406.3 725.45 406.95 727.2 406.95
L 744.65 406.95
Q 746.15 406.95 746.85 406.3 747.5 405.65 747.5 404.15
L 747.5 397
Q 747.55 395.4 746.85 394.75 746.2 394.05 744.4 394.1
L 727.05 394.1
M 742.95 398.3
L 742.95 402.75
Q 742.95 403.1 742.85 403.2 742.75 403.25 742.4 403.25
L 729.25 403.25
Q 728.95 403.25 728.85 403.2 728.75 403.1 728.75 402.75
L 728.75 398.25
Q 728.75 397.95 728.85 397.85 728.95 397.75 729.25 397.8
L 742.4 397.8
Q 742.7 397.75 742.85 397.9 742.95 398 742.95 398.3
M 719.1 374.25
Q 719.1 374.45 719.3 374.6 719.45 374.75 719.65 374.75
L 730.8 374.75
Q 731.15 374.7 731.25 374.8 731.35 374.9 731.35 375.35
L 731.35 378.35
Q 731.35 378.8 731.25 378.9 731.15 379 730.8 379
L 721.3 379
Q 720 379 719.45 379.5 718.9 380.05 718.95 381.25
L 718.95 387.95
Q 718.9 389.2 719.5 389.8 720.1 390.35 721.6 390.4 724.5 390.5 727.7 390.4 730.95 390.25 734.1 389.95 737.2 389.6 739.7 389.15 739.9 389.1 740.05 388.95 740.2 388.75 740.15 388.55
L 739.8 386.1
Q 739.75 385.85 739.55 385.8 739.3 385.75 739.1 385.75 736.9 386.15 734.4 386.4 731.85 386.65 729.3 386.75 726.7 386.85 724.25 386.8 723.85 386.8 723.7 386.6 723.5 386.45 723.5 386.1
L 723.5 382.95
Q 723.5 382.6 723.6 382.45 723.75 382.35 724.1 382.35
L 733.4 382.35
Q 734.65 382.4 735.3 381.8 735.9 381.2 735.9 379.8
L 735.9 373.8
Q 735.95 372.35 735.35 371.75 734.75 371.1 733.2 371.15
L 719.65 371.15
Q 719.45 371.15 719.3 371.3 719.1 371.4 719.1 371.6
L 719.1 374.25
M 681.4 385.25
Q 681.4 389.15 682.6 392.1 683.75 395.1 685.95 396.75 688.1 398.45 691.15 398.45 694 398.45 696.1 397.05 698.2 395.65 699.45 393.1 700.7 390.6 701 387.1
L 706.95 387.1 706.95 407.1
Q 706.95 407.35 707.05 407.5 707.2 407.65 707.45 407.65
L 711 407.65
Q 711.3 407.65 711.4 407.5 711.55 407.35 711.55 407.1
L 711.55 370.2
Q 711.55 369.9 711.4 369.8 711.3 369.65 711 369.65
L 707.45 369.65
Q 707.2 369.65 707.05 369.8 706.95 369.9 706.95 370.2
L 706.95 383.25 701 383.25
Q 700.7 379.8 699.45 377.3 698.2 374.8 696.1 373.4 694 372.05 691.15 372 688.1 372.05 685.95 373.65 683.75 375.3 682.6 378.25 681.4 381.2 681.4 385.25
M 686.5 380.7
Q 687.15 378.6 688.35 377.35 689.5 376.1 691.15 376.1 692.9 376.1 694.1 377.35 695.25 378.6 695.9 380.7 696.55 382.75 696.55 385.25 696.55 387.65 695.9 389.75 695.25 391.8 694.1 393.1 692.9 394.35 691.15 394.4 689.5 394.35 688.35 393.1 687.15 391.8 686.5 389.75 685.9 387.65 685.9 385.25 685.9 382.75 686.5 380.7
M 1114.8 458.15
Q 1116.15 456.8 1116.2 454.7 1116.15 452.65 1114.8 451.35 1113.45 450 1111.4 449.95 1109.35 450 1108 451.35 1106.65 452.65 1106.6 454.7 1106.65 456.8 1108 458.15 1109.35 459.5 1111.4 459.55 1113.45 459.5 1114.8 458.15
M 1109.95 456.2
Q 1109.35 455.6 1109.3 454.7 1109.35 453.85 1109.95 453.25 1110.55 452.65 1111.4 452.6 1112.25 452.65 1112.85 453.25 1113.45 453.85 1113.5 454.7 1113.45 455.6 1112.85 456.2 1112.25 456.8 1111.4 456.85 1110.55 456.8 1109.95 456.2
M 933.4 369.8
Q 933.3 369.9 933.3 370.2
L 933.3 390.8
Q 933.3 391.1 933.4 391.25 933.55 391.4 933.8 391.4
L 937.35 391.4
Q 937.65 391.4 937.75 391.25 937.9 391.1 937.9 390.85
L 937.9 387.15 943.3 387.15
Q 943.55 387.15 943.7 387 943.85 386.85 943.9 386.6
L 943.9 383.8
Q 943.85 383.6 943.7 383.45 943.55 383.3 943.3 383.3
L 937.9 383.3 937.9 379.35 943.3 379.35
Q 943.55 379.35 943.7 379.2 943.85 379.05 943.9 378.8
L 943.9 376.05
Q 943.85 375.8 943.7 375.7 943.55 375.55 943.3 375.55
L 937.9 375.55 937.9 370.2
Q 937.9 369.9 937.75 369.8 937.65 369.65 937.35 369.65
L 933.8 369.65
Q 933.55 369.65 933.4 369.8
M 914.45 393.35
Q 914.2 393.35 914.05 393.5 913.9 393.6 913.9 393.9
L 913.9 396.75
Q 913.9 396.95 914.05 397.1 914.2 397.2 914.45 397.2
L 932.5 397.2
Q 932.9 397.2 933.1 397.35 933.25 397.45 933.25 397.9
L 933.25 407
Q 933.25 407.2 933.4 407.35 933.6 407.55 933.9 407.55
L 937.3 407.55
Q 937.5 407.55 937.65 407.35 937.85 407.2 937.85 407
L 937.85 396.2
Q 937.85 394.65 937.3 394 936.7 393.35 935.2 393.35
L 914.45 393.35
M 910.7 375.6
Q 909.5 377.7 909.45 380.3 909.5 383 910.7 385.05 911.9 387.15 914.05 388.3 916.2 389.5 919.1 389.5 922 389.5 924.2 388.3 926.4 387.15 927.6 385.05 928.85 383 928.9 380.3 928.85 377.7 927.6 375.6 926.4 373.5 924.2 372.3 922 371.05 919.1 371.05 916.2 371.05 914.05 372.3 911.9 373.5 910.7 375.6
M 922.9 376.55
Q 924.3 377.95 924.3 380.4 924.3 382.8 922.9 384.25 921.5 385.65 919.1 385.65 916.75 385.65 915.35 384.25 913.95 382.8 913.9 380.4 913.95 377.95 915.35 376.55 916.75 375.15 919.1 375.15 921.5 375.15 922.9 376.55
M 1108 371.35
Q 1106.65 372.65 1106.6 374.7 1106.65 376.8 1108 378.15 1109.35 379.5 1111.4 379.55 1113.45 379.5 1114.8 378.15 1116.15 376.8 1116.2 374.7 1116.15 372.65 1114.8 371.35 1113.45 370 1111.4 369.95 1109.35 370 1108 371.35
M 1113.5 374.7
Q 1113.45 375.6 1112.85 376.2 1112.25 376.8 1111.4 376.85 1110.55 376.8 1109.95 376.2 1109.35 375.6 1109.3 374.7 1109.35 373.85 1109.95 373.25 1110.55 372.65 1111.4 372.6 1112.25 372.65 1112.85 373.25 1113.45 373.85 1113.5 374.7 Z"/>

<path fill="#FFFFFF" stroke="none" d="
M 957.35 456.15
L 957.35 486.2
Q 957.35 501.2 972.35 501.2
L 1082.35 501.2
Q 1097.35 501.2 1097.35 486.2
L 1097.35 456.15
Q 1097.35 441.15 1082.35 441.15
L 972.35 441.15
Q 957.35 441.15 957.35 456.15
M 1097.35 376.15
Q 1097.35 361.15 1082.35 361.15
L 972.35 361.15
Q 957.35 361.15 957.35 376.15
L 957.35 406.2
Q 957.35 421.2 972.35 421.2
L 1082.35 421.2
Q 1097.35 421.2 1097.35 406.2
L 1097.35 376.15 Z"/>
</g>

<path id="Layer0_0_1_STROKES" stroke="#DBDBDB" stroke-width="3" stroke-linejoin="round" stroke-linecap="round" fill="none" d="
M 972.35 361.15
L 1082.35 361.15
Q 1097.35 361.15 1097.35 376.15
L 1097.35 406.2
Q 1097.35 421.2 1082.35 421.2
L 972.35 421.2
Q 957.35 421.2 957.35 406.2
L 957.35 376.15
Q 957.35 361.15 972.35 361.15 Z
M 972.35 441.15
L 1082.35 441.15
Q 1097.35 441.15 1097.35 456.15
L 1097.35 486.2
Q 1097.35 501.2 1082.35 501.2
L 972.35 501.2
Q 957.35 501.2 957.35 486.2
L 957.35 456.15
Q 957.35 441.15 972.35 441.15 Z"/>

</defs>

<g transform="matrix( 1, 0, 0, 1, 0,0) ">
<use xlink:href="#Layer0_0_FILL"/>

<use xlink:href="#Layer0_0_1_STROKES"/>

<use xlink:href="#Layer0_0_2_STROKES"/>
</g>
</svg>
