<?xml version="1.0" encoding="utf-8"?>
<!-- Generator: Adobe Illustrator 24.1.1, SVG Export Plug-In . SVG Version: 6.00 Build 0)  -->
<svg version="1.1" id="레이어_1" xmlns="http://www.w3.org/2000/svg" xmlns:xlink="http://www.w3.org/1999/xlink" x="0px"
	 y="0px" width="270px" height="70px" viewBox="0 0 270 70" style="enable-background:new 0 0 270 70;" xml:space="preserve">
<g>
	<path style="fill:#E77D9D;" d="M254,69H16C7.7,69,1,62.3,1,54V16C1,7.7,7.7,1,16,1h238c8.3,0,15,6.7,15,15v38
		C269,62.3,262.3,69,254,69z"/>
	<g>
		<g>
			<path style="fill:#FFFFFF;" d="M48.2,28.5c0,0.8,0.1,1.4,0.2,2.1c0.1,0.6,0.3,1.2,0.5,1.8c0.2,0.6,0.5,1.1,0.9,1.7
				c0.4,0.5,0.8,1.1,1.3,1.7c0.7,0.7,1.4,1.4,2.1,2.1c0.7,0.7,1.3,1.3,1.9,1.8c0.5,0.4,0.7,0.9,0.6,1.5c-0.1,0.6-0.3,1.1-0.7,1.5
				c-0.2,0.2-0.4,0.3-0.6,0.5c-0.3,0.1-0.5,0.2-0.8,0.2c-0.3,0-0.5,0-0.8-0.1c-0.3-0.1-0.5-0.2-0.7-0.4c-0.5-0.5-1-1-1.6-1.6
				c-0.6-0.6-1.2-1.2-1.8-1.9c-1-1.1-1.7-1.8-2.1-2.4c-0.4-0.5-0.6-1-0.7-1.4h0c-0.1,0.2-0.1,0.5-0.2,0.7c-0.1,0.2-0.3,0.5-0.5,0.8
				c-0.2,0.3-0.5,0.6-0.8,1c-0.3,0.4-0.8,0.8-1.3,1.4c-0.6,0.7-1.2,1.3-1.9,1.9s-1.3,1.3-2.1,2c-0.5,0.4-1,0.6-1.6,0.4
				c-0.6-0.2-1.1-0.4-1.4-0.8c-0.4-0.4-0.6-0.9-0.6-1.5s0.2-1.1,0.6-1.5c1.6-1.4,3-2.9,4.4-4.4c0.5-0.6,1-1.1,1.3-1.7
				c0.4-0.5,0.7-1.1,0.9-1.7c0.2-0.6,0.4-1.2,0.5-1.8c0.1-0.6,0.2-1.3,0.2-2.1v-5.3c0-0.7,0.2-1.3,0.7-1.6c0.5-0.3,1.1-0.5,1.7-0.5
				s1.2,0.2,1.7,0.5c0.5,0.3,0.7,0.9,0.7,1.6V28.5z M63.5,50.3c0,0.7-0.2,1.2-0.7,1.5c-0.5,0.3-1.1,0.5-1.7,0.5
				c-0.6,0-1.2-0.2-1.7-0.5c-0.5-0.3-0.7-0.8-0.7-1.5V21.5c0-0.7,0.2-1.2,0.7-1.5c0.5-0.3,1-0.5,1.7-0.5c0.7,0,1.2,0.2,1.7,0.5
				c0.5,0.3,0.7,0.8,0.7,1.5V50.3z"/>
			<path style="fill:#FFFFFF;" d="M79.8,25.4v0.9c0,1.2,0.2,2.1,0.5,2.9c0.4,0.8,0.9,1.5,1.7,2.2c0.8,0.7,1.6,1.3,2.3,1.8
				s1.3,1,1.9,1.4c0.5,0.4,0.8,0.8,0.8,1.4c0,0.5-0.1,1-0.5,1.5c-0.2,0.2-0.3,0.4-0.5,0.5c-0.2,0.2-0.4,0.3-0.7,0.4
				c-0.3,0.1-0.5,0.1-0.8,0.1c-0.3,0-0.6-0.2-0.9-0.4c-0.4-0.3-1-0.7-1.6-1.2s-1.3-1-2.1-1.6c-0.9-0.7-1.5-1.3-1.9-1.7
				c-0.3-0.4-0.6-0.8-0.7-1.1h0c-0.1,0.4-0.3,0.9-0.7,1.3s-1,1-1.9,1.8c-1.5,1.2-2.9,2.2-4.4,3.3c-0.6,0.4-1.1,0.5-1.7,0.3
				c-0.6-0.2-1-0.5-1.2-0.9c-0.3-0.5-0.5-1-0.5-1.5c0-0.6,0.3-1.1,0.9-1.5c0.9-0.6,1.7-1.2,2.4-1.8s1.6-1.2,2.4-1.9
				c0.8-0.7,1.4-1.4,1.7-2.2c0.4-0.8,0.5-1.7,0.5-2.9v-1.1h-5.6c-0.6,0-1-0.2-1.3-0.6c-0.3-0.4-0.4-0.9-0.4-1.4s0.1-1,0.4-1.4
				c0.3-0.4,0.7-0.6,1.3-0.6H85c0.6,0,1,0.2,1.3,0.6c0.3,0.4,0.4,0.9,0.4,1.4s-0.1,1-0.4,1.4c-0.3,0.4-0.7,0.6-1.3,0.6H79.8z
				 M89.4,46.4c0-0.6-0.3-0.9-0.9-0.9H73c-0.6,0-1-0.2-1.3-0.6c-0.3-0.4-0.4-0.9-0.4-1.4s0.1-1,0.4-1.4c0.3-0.4,0.7-0.6,1.3-0.6h18
				c1.2,0,2,0.2,2.5,0.7c0.5,0.5,0.7,1.3,0.7,2.4v8.2c0,0.7-0.2,1.2-0.7,1.5c-0.5,0.3-1,0.5-1.7,0.5c-0.6,0-1.2-0.2-1.7-0.5
				c-0.5-0.3-0.7-0.8-0.7-1.5V46.4z M97.7,27.4c0.6,0,1,0.2,1.3,0.6c0.3,0.4,0.4,0.9,0.4,1.5s-0.1,1.1-0.4,1.5
				c-0.3,0.4-0.7,0.6-1.3,0.6h-3.5V38c0,0.7-0.2,1.2-0.7,1.5c-0.5,0.3-1,0.5-1.7,0.5c-0.6,0-1.2-0.2-1.7-0.5
				c-0.5-0.3-0.7-0.8-0.7-1.5V21.5c0-0.7,0.2-1.2,0.7-1.5s1-0.5,1.7-0.5c0.6,0,1.2,0.2,1.7,0.5c0.5,0.3,0.7,0.8,0.7,1.5v5.9H97.7z"
				/>
			<path style="fill:#FFFFFF;" d="M107.2,24v-2.6c0-0.7,0.2-1.2,0.7-1.5c0.5-0.3,1-0.5,1.7-0.5c0.6,0,1.2,0.2,1.7,0.5
				s0.7,0.8,0.7,1.5V24h5.9c0.6,0,1,0.2,1.3,0.6c0.3,0.4,0.4,0.9,0.4,1.4s-0.1,1-0.4,1.4c-0.3,0.4-0.7,0.6-1.3,0.6h-17.1
				c-0.6,0-1-0.2-1.3-0.6c-0.3-0.4-0.4-0.9-0.4-1.4s0.1-1,0.4-1.4s0.7-0.6,1.3-0.6H107.2z M109.6,30c1.3,0,2.4,0.2,3.5,0.5
				c1,0.4,1.9,0.9,2.6,1.5s1.3,1.4,1.7,2.4c0.4,0.9,0.6,2,0.6,3.1s-0.2,2.2-0.6,3.1c-0.4,0.9-0.9,1.7-1.7,2.4
				c-0.7,0.7-1.6,1.2-2.6,1.5c-1,0.4-2.2,0.5-3.5,0.5s-2.4-0.2-3.5-0.5c-1-0.4-1.9-0.9-2.6-1.5c-0.7-0.7-1.3-1.4-1.7-2.4
				c-0.4-0.9-0.6-2-0.6-3.1s0.2-2.2,0.6-3.1c0.4-0.9,0.9-1.7,1.7-2.4s1.6-1.2,2.6-1.5C107.2,30.1,108.4,30,109.6,30z M109.6,41.2
				c1.2,0,2.2-0.3,2.9-1c0.7-0.7,1.1-1.6,1.1-2.7c0-1.2-0.4-2.1-1.1-2.7c-0.7-0.7-1.7-1-2.9-1s-2.2,0.3-2.9,1
				c-0.7,0.7-1.1,1.6-1.1,2.7c0,1.2,0.4,2.1,1.1,2.7C107.5,40.9,108.4,41.2,109.6,41.2z M126.6,30.9h3.5c0.6,0,1,0.2,1.3,0.6
				c0.3,0.4,0.4,0.9,0.4,1.5s-0.1,1.1-0.4,1.5c-0.3,0.4-0.7,0.6-1.3,0.6h-3.5v15.2c0,0.7-0.2,1.2-0.7,1.5c-0.5,0.3-1,0.5-1.6,0.5
				c-0.6,0-1.2-0.2-1.7-0.5c-0.5-0.3-0.7-0.8-0.7-1.5V21.5c0-0.7,0.2-1.2,0.7-1.5s1-0.5,1.7-0.5c0.6,0,1.1,0.2,1.6,0.5
				c0.5,0.3,0.7,0.8,0.7,1.5V30.9z"/>
			<path style="fill:#FFFFFF;" d="M135.2,26.1c-0.6,0-1-0.2-1.3-0.6s-0.4-0.9-0.4-1.4c0-0.6,0.1-1.1,0.4-1.5s0.7-0.6,1.3-0.6h11.3
				c1.2,0,2,0.2,2.5,0.7c0.5,0.5,0.7,1.3,0.7,2.4v4.2c0,1.1-0.1,2-0.2,2.9c-0.1,0.9-0.4,1.7-0.7,2.4c-0.3,0.8-0.8,1.5-1.4,2.2
				c-0.6,0.7-1.4,1.5-2.4,2.3s-2.2,1.7-3.6,2.6c-1.4,0.9-3,2-4.9,3.1c-0.5,0.3-1.1,0.4-1.6,0.2s-1-0.5-1.3-1c-0.3-0.5-0.5-1-0.5-1.6
				c0-0.6,0.3-1.1,0.8-1.4c1.7-1,3.2-1.9,4.4-2.7c1.2-0.8,2.2-1.5,3-2.1c0.8-0.6,1.5-1.2,1.9-1.7c0.5-0.5,0.8-1.1,1.1-1.6
				c0.2-0.5,0.4-1.1,0.5-1.7s0.1-1.2,0.1-2V27c0-0.6-0.3-0.9-0.9-0.9H135.2z M160.6,50.3c0,0.7-0.2,1.2-0.7,1.5
				c-0.5,0.3-1.1,0.5-1.7,0.5c-0.6,0-1.2-0.2-1.7-0.5c-0.5-0.3-0.7-0.8-0.7-1.5V21.5c0-0.7,0.2-1.2,0.7-1.5s1-0.5,1.7-0.5
				c0.7,0,1.2,0.2,1.7,0.5s0.7,0.8,0.7,1.5V50.3z"/>
		</g>
		<g>
			<path style="fill:#FFFFFF;" d="M235.6,37.3h-40.8c-0.6,0-1-0.4-1-1v-1.7c0-0.6,0.4-1,1-1h40.8c0.6,0,1,0.4,1,1v1.7
				C236.6,36.9,236.1,37.3,235.6,37.3z"/>
			<g>
				<path style="fill:#FFFFFF;" d="M234.4,37.2l-13.7-14c-0.5-0.5-0.5-1.3,0-1.7l0.9-0.9c0.5-0.5,1.3-0.5,1.7,0l13.7,14
					c0.5,0.5,0.5,1.3,0,1.7l-0.9,0.9C235.6,37.7,234.9,37.7,234.4,37.2z"/>
			</g>
			<g>
				<path style="fill:#FFFFFF;" d="M234.4,33.8l-13.7,14c-0.5,0.5-0.5,1.3,0,1.7l0.9,0.9c0.5,0.5,1.3,0.5,1.7,0l13.7-14
					c0.5-0.5,0.5-1.3,0-1.7l-0.9-0.9C235.6,33.3,234.9,33.3,234.4,33.8z"/>
			</g>
		</g>
	</g>
</g>
<g>
</g>
<g>
</g>
<g>
</g>
<g>
</g>
<g>
</g>
<g>
</g>
<g>
</g>
<g>
</g>
<g>
</g>
<g>
</g>
<g>
</g>
<g>
</g>
<g>
</g>
<g>
</g>
<g>
</g>
</svg>
