
<svg xmlns="http://www.w3.org/2000/svg" version="1.1" xmlns:xlink="http://www.w3.org/1999/xlink" preserveAspectRatio="none" x="0px" y="0px" width="1200px" height="470px" viewBox="0 0 1200 470">
<defs>
<g id="FDBDFBD456_1_Layer2_0_FILL">
<path fill="#FFFFFF" stroke="none" d="
M -304.2 59.55
L 135.1 59.55 135.1 -10.45 -304.2 -10.45 -304.2 59.55
M -304.2 129.55
L -304.2 199.55 135.1 199.55 135.1 129.55 -304.2 129.55
M -304.2 199.55
L -304.2 200.05 -304.2 270.05 115.1 270.05
Q 127.75 270.05 132.4 262.05 135.1 257.4 135.1 250.05
L 135.1 242 135.1 237.1 135.1 199.55 -304.2 199.55
M -304.2 59.55
L -304.2 129.55 135.1 129.55 135.1 59.55 -304.2 59.55
M 135.1 -70.45
L 135.1 -130.45 -304.2 -130.45 -304.2 -70.45 135.1 -70.45
M 135.1 -10.45
L 135.1 -70.45 -304.2 -70.45 -304.2 -10.45 135.1 -10.45 Z"/>

<path fill="#E2F3F2" stroke="none" d="
M -304.2 199.55
L -304.2 129.55 -445.05 129.55 -445.05 199.55 -430.9 199.55 -304.2 199.55
M -304.2 200.05
L -304.2 199.55 -430.9 199.55 -445.05 199.55 -445.05 250.05
Q -445.05 270.05 -425.05 270.05
L -304.2 270.05 -304.2 200.05
M -304.2 129.55
L -304.2 59.55 -445.05 59.55 -445.05 129.55 -304.2 129.55
M -304.2 -10.45
L -445.05 -10.45 -445.05 59.55 -304.2 59.55 -304.2 -10.45
M -445.05 -130.45
L -445.05 -70.45 -304.2 -70.45 -304.2 -130.45 -445.05 -130.45
M -445.05 -70.45
L -445.05 -10.45 -304.2 -10.45 -304.2 -70.45 -445.05 -70.45
M -425.05 -190.05
Q -437.7 -190.05 -442.35 -182.05 -445.05 -177.4 -445.05 -170.05
L -445.05 -152.95 -445.05 -150 -445.05 -130.45 -304.2 -130.45 -304.2 -190.05 -305 -190.05 -425.05 -190.05
M 135.1 -152.95
L 135.1 -170.05
Q 135.1 -190.05 115.1 -190.05
L -232.95 -190.05 -255.95 -190.05 -304.2 -190.05 -304.2 -130.45 135.1 -130.45 135.1 -152.95 Z"/>
</g>

<g id="FDBDFBD456_1_Layer1_0_FILL">
<path fill="#1E1E1E" stroke="none" d="
M -369.45 240.2
Q -369.4 240 -369.45 239.75 -369.55 239.55 -370 239.5
L -372.75 239.35
Q -373.05 239.3 -373.2 239.5 -373.35 239.7 -373.35 240 -373.75 243.35 -376.35 245.55 -379 247.7 -383.95 249.2 -384.2 249.3 -384.3 249.55 -384.4 249.75 -384.3 250
L -383.4 252
Q -383.15 252.55 -382.5 252.45 -378.95 251.5 -376.05 249.75 -373.2 248.05 -371.45 245.5 -370.55 246.8 -369.3 247.9 -368.05 249 -366.6 249.85 -365.15 250.75 -363.65 251.35 -362.1 252 -360.7 252.2 -360 252.3 -359.75 251.8
L -358.9 249.75
Q -358.8 249.45 -358.95 249.25 -359.1 249.05 -359.3 248.95 -360.9 248.65 -362.5 247.95 -364.2 247.2 -365.65 246.25 -367.1 245.25 -368.15 244.1 -369.25 242.9 -369.7 241.65 -369.65 241.3 -369.55 240.95 -369.5 240.6 -369.45 240.2
M -397.3 219.2
Q -397.75 219.2 -397.75 219.7
L -397.75 225.7 -404.6 225.7
Q -405.65 223.6 -407.45 222.45 -409.25 221.3 -411.65 221.3 -413.65 221.3 -415.25 222.1 -416.85 222.9 -417.95 224.45 -419 225.95 -419.6 228.05 -420.15 230.2 -420.15 232.85 -420.15 235.4 -419.6 237.5 -419 239.65 -417.95 241.15 -416.85 242.7 -415.25 243.55 -413.65 244.4 -411.65 244.4 -409.15 244.4 -407.3 243.15 -405.45 241.95 -404.45 239.65
L -397.75 239.65 -397.75 252
Q -397.75 252.45 -397.3 252.45
L -394.15 252.45
Q -393.7 252.45 -393.7 252
L -393.7 219.7
Q -393.7 219.2 -394.15 219.2
L -397.3 219.2
M -403.1 232.85
Q -403.1 230.85 -403.45 228.95
L -397.75 228.95 -397.75 236.35 -403.4 236.35
Q -403.1 234.8 -403.1 232.85
M -415.05 227.25
Q -414.5 226.15 -413.6 225.5 -412.75 224.85 -411.65 224.85 -410.55 224.85 -409.65 225.5 -408.8 226.15 -408.2 227.25 -407.65 228.3 -407.35 229.8 -407.05 231.25 -407.05 232.85 -407.05 234.4 -407.35 235.85 -407.65 237.3 -408.2 238.4 -408.8 239.5 -409.65 240.2 -410.55 240.85 -411.65 240.85 -412.75 240.85 -413.6 240.2 -414.5 239.5 -415.05 238.4 -415.6 237.3 -415.95 235.85 -416.2 234.4 -416.2 232.85 -416.2 231.25 -415.95 229.8 -415.6 228.3 -415.05 227.25
M -379.85 220.5
Q -380 220.7 -380 220.95 -380 223.75 -380.5 225.9 -381 228.05 -381.95 229.85 -382.95 231.6 -384.4 233.05 -385.85 234.5 -387.8 235.8 -388.1 236 -388.2 236.25 -388.3 236.5 -387.95 236.9
L -386.5 238.6
Q -386.3 238.8 -386.05 238.9 -385.8 238.95 -385.4 238.7 -383 237 -381.25 235.25 -379.5 233.55 -378.3 231.35 -377 233.35 -375.15 234.9 -373.3 236.5 -371.25 237.45 -370.55 237.7 -370.25 237.2
L -369.05 235.25
Q -368.65 234.6 -369.3 234.35 -370.2 233.95 -371.25 233.25 -372.3 232.55 -373.3 231.6 -374.3 230.65 -375.15 229.5 -376.05 228.35 -376.65 227.1 -375.95 224.35 -375.95 221.05 -375.95 220.5 -376.45 220.5
L -379.5 220.35
Q -379.65 220.35 -379.85 220.5
M -361 219.7
Q -361 219.2 -361.5 219.2
L -364.6 219.2
Q -365.05 219.2 -365.05 219.7
L -365.05 227.05 -371.25 227.05
Q -371.45 227.05 -371.6 227.2 -371.75 227.3 -371.75 227.45
L -371.75 230
Q -371.75 230.15 -371.6 230.3 -371.45 230.4 -371.25 230.4
L -365.05 230.4 -365.05 239.7
Q -365.05 240.2 -364.6 240.2
L -361.5 240.2
Q -361 240.2 -361 239.7
L -361 219.7
M -339.7 222.6
Q -340.15 222.05 -341.55 222.05
L -345.9 222.05
Q -346.4 222.05 -346.4 222.6
L -346.4 224.55
Q -346.4 224.8 -346.25 224.95 -346.15 225.1 -345.9 225.1
L -343.55 225.1
Q -343.05 225.1 -342.9 225.25 -342.7 225.45 -342.8 226.05 -343.2 230.65 -345.4 235.15 -346.2 234.35 -346.95 233.3 -347.75 232.25 -348.35 231.2 -347.9 229.85 -347.65 228.55 -347.4 227.2 -347.35 225.95 -347.35 225.55 -347.35 225.05 -347.3 224.5 -347.3 224.05 -347.4 223.2 -347.85 222.7 -348.35 222.15 -349.7 222.15
L -354.45 222.15
Q -354.9 222.15 -354.9 222.7
L -354.9 224.7
Q -354.9 224.9 -354.75 225.05 -354.6 225.2 -354.4 225.2
L -351.6 225.2
Q -351.05 225.2 -350.95 225.35 -350.8 225.55 -350.85 226.15 -351 229.25 -352.4 232.5 -353.85 235.7 -356.7 238.7 -356.9 238.85 -357 239.1 -357.05 239.4 -356.75 239.65
L -355.35 241
Q -355.05 241.2 -354.8 241.1 -354.5 241 -354.3 240.8 -352.9 239.4 -351.8 237.9 -350.7 236.4 -349.9 234.8 -349.3 235.75 -348.5 236.6 -347.75 237.45 -347.05 238.1 -347.8 239.2 -348.6 240.3 -349.45 241.45 -350.4 242.45 -350.6 242.65 -350.6 242.85 -350.65 243.1 -350.4 243.3
L -348.8 244.7
Q -348.55 244.85 -348.35 244.8 -348.15 244.7 -347.9 244.5 -346.2 242.9 -344.9 241.05 -343.65 239.25 -342.65 237.3 -342.25 237.9 -341.75 238.55 -341.25 239.1 -340.75 239.65 -340.25 240.2 -339.75 240.65 -339.35 241.05 -339 241.25 -338.75 241.45 -338.5 241.4 -338.25 241.35 -338.15 241.2
L -336.9 239.8
Q -336.7 239.55 -336.65 239.35 -336.65 239.1 -336.9 238.85 -337.35 238.4 -337.9 237.85 -338.45 237.3 -339 236.6 -339.55 235.9 -340.1 235.1 -340.65 234.35 -341.05 233.6 -340.25 231.5 -339.85 229.5 -339.45 227.5 -339.25 225.75 -339.2 225.35 -339.2 224.85 -339.15 224.4 -339.2 223.95 -339.25 223.1 -339.7 222.6
M -332.4 220.3
Q -332.4 219.85 -332.85 219.85
L -335.5 219.85
Q -336 219.85 -336 220.3
L -336 250.65
Q -336 251.15 -335.5 251.15
L -332.85 251.15
Q -332.4 251.15 -332.4 250.65
L -332.4 235.35 -329.65 235.35 -329.65 252
Q -329.65 252.45 -329.2 252.45
L -326.45 252.45
Q -325.95 252.45 -325.95 252
L -325.95 219.7
Q -325.95 219.2 -326.45 219.2
L -329.2 219.2
Q -329.65 219.2 -329.65 219.7
L -329.65 232.05 -332.4 232.05 -332.4 220.3
M -343.55 154.15
Q -343.05 154.15 -342.9 154.3 -342.7 154.5 -342.8 155.1 -343.2 159.7 -345.4 164.2 -346.2 163.4 -346.95 162.35 -347.75 161.3 -348.35 160.25 -347.9 158.9 -347.65 157.6 -347.4 156.25 -347.35 155 -347.35 154.6 -347.35 154.1 -347.3 153.55 -347.3 153.1 -347.4 152.25 -347.85 151.75 -348.35 151.2 -349.7 151.2
L -354.45 151.2
Q -354.9 151.2 -354.9 151.75
L -354.9 153.75
Q -354.9 153.95 -354.75 154.1 -354.6 154.25 -354.4 154.25
L -351.6 154.25
Q -351.05 154.25 -350.95 154.4 -350.8 154.6 -350.85 155.2 -351 158.3 -352.4 161.55 -353.85 164.75 -356.7 167.75 -356.9 167.9 -357 168.15 -357.05 168.45 -356.75 168.7
L -355.35 170.05
Q -355.05 170.25 -354.8 170.15 -354.5 170.05 -354.3 169.85 -352.9 168.45 -351.8 166.95 -350.7 165.45 -349.9 163.85 -349.3 164.8 -348.5 165.65 -347.75 166.5 -347.05 167.15 -347.8 168.25 -348.6 169.35 -349.45 170.5 -350.4 171.5 -350.6 171.7 -350.6 171.9 -350.65 172.15 -350.4 172.35
L -348.8 173.75
Q -348.55 173.9 -348.35 173.85 -348.15 173.75 -347.9 173.55 -346.2 171.95 -344.9 170.1 -343.65 168.3 -342.65 166.35 -342.25 166.95 -341.75 167.6 -341.25 168.15 -340.75 168.7 -340.25 169.25 -339.75 169.7 -339.35 170.1 -339 170.3 -338.75 170.5 -338.5 170.45 -338.25 170.4 -338.15 170.25
L -336.9 168.85
Q -336.7 168.6 -336.65 168.4 -336.65 168.15 -336.9 167.9 -337.35 167.45 -337.9 166.9 -338.45 166.35 -339 165.65 -339.55 164.95 -340.1 164.15 -340.65 163.4 -341.05 162.65 -340.25 160.55 -339.85 158.55 -339.45 156.55 -339.25 154.8 -339.2 154.4 -339.2 153.9 -339.15 153.45 -339.2 153 -339.25 152.15 -339.7 151.65 -340.15 151.1 -341.55 151.1
L -345.9 151.1
Q -346.4 151.1 -346.4 151.65
L -346.4 153.6
Q -346.4 153.85 -346.25 154 -346.15 154.15 -345.9 154.15
L -343.55 154.15
M -373.2 168.55
Q -373.35 168.75 -373.35 169.05 -373.75 172.4 -376.35 174.6 -379 176.75 -383.95 178.25 -384.2 178.35 -384.3 178.6 -384.4 178.8 -384.3 179.05
L -383.4 181.05
Q -383.15 181.6 -382.5 181.5 -378.95 180.55 -376.05 178.8 -373.2 177.1 -371.45 174.55 -370.55 175.85 -369.3 176.95 -368.05 178.05 -366.6 178.9 -365.15 179.8 -363.65 180.4 -362.1 181.05 -360.7 181.25 -360 181.35 -359.75 180.85
L -358.9 178.8
Q -358.8 178.5 -358.95 178.3 -359.1 178.1 -359.3 178 -360.9 177.7 -362.5 177 -364.2 176.25 -365.65 175.3 -367.1 174.3 -368.15 173.15 -369.25 171.95 -369.7 170.7 -369.65 170.35 -369.55 170 -369.5 169.65 -369.45 169.25 -369.4 169.05 -369.45 168.8 -369.55 168.6 -370 168.55
L -372.75 168.4
Q -373.05 168.35 -373.2 168.55
M -380 150
Q -380 152.8 -380.5 154.95 -381 157.1 -381.95 158.9 -382.95 160.65 -384.4 162.1 -385.85 163.55 -387.8 164.85 -388.1 165.05 -388.2 165.3 -388.3 165.55 -387.95 165.95
L -386.5 167.65
Q -386.3 167.85 -386.05 167.95 -385.8 168 -385.4 167.75 -383 166.05 -381.25 164.3 -379.5 162.6 -378.3 160.4 -377 162.4 -375.15 163.95 -373.3 165.55 -371.25 166.5 -370.55 166.75 -370.25 166.25
L -369.05 164.3
Q -368.65 163.65 -369.3 163.4 -370.2 163 -371.25 162.3 -372.3 161.6 -373.3 160.65 -374.3 159.7 -375.15 158.55 -376.05 157.4 -376.65 156.15 -375.95 153.4 -375.95 150.1 -375.95 149.55 -376.45 149.55
L -379.5 149.4
Q -379.65 149.4 -379.85 149.55 -380 149.75 -380 150
M -371.25 159.45
L -365.05 159.45 -365.05 168.75
Q -365.05 169.25 -364.6 169.25
L -361.5 169.25
Q -361 169.25 -361 168.75
L -361 148.75
Q -361 148.25 -361.5 148.25
L -364.6 148.25
Q -365.05 148.25 -365.05 148.75
L -365.05 156.1 -371.25 156.1
Q -371.45 156.1 -371.6 156.25 -371.75 156.35 -371.75 156.5
L -371.75 159.05
Q -371.75 159.2 -371.6 159.35 -371.45 159.45 -371.25 159.45
M -395.9 148.25
L -399 148.25
Q -399.45 148.25 -399.45 148.75
L -399.45 181.05
Q -399.45 181.5 -399 181.5
L -395.9 181.5
Q -395.4 181.5 -395.4 181.05
L -395.4 164.45 -390.65 164.45
Q -390.5 164.45 -390.35 164.3 -390.2 164.15 -390.2 163.95
L -390.2 161.5
Q -390.2 161.3 -390.35 161.2 -390.5 161.1 -390.65 161.1
L -395.4 161.1 -395.4 148.75
Q -395.4 148.25 -395.9 148.25
M -326.45 148.25
L -329.2 148.25
Q -329.65 148.25 -329.65 148.75
L -329.65 161.1 -332.4 161.1 -332.4 149.35
Q -332.4 148.9 -332.85 148.9
L -335.5 148.9
Q -336 148.9 -336 149.35
L -336 179.7
Q -336 180.2 -335.5 180.2
L -332.85 180.2
Q -332.4 180.2 -332.4 179.7
L -332.4 164.4 -329.65 164.4 -329.65 181.05
Q -329.65 181.5 -329.2 181.5
L -326.45 181.5
Q -325.95 181.5 -325.95 181.05
L -325.95 148.75
Q -325.95 148.25 -326.45 148.25
M -415.8 154.85
Q -415.8 154.25 -415.2 154.25
L -404.75 154.25
Q -404.3 154.25 -404.3 153.8
L -404.3 151.35
Q -404.3 150.9 -404.75 150.9
L -417.5 150.9
Q -418.8 150.9 -419.3 151.35 -419.85 151.85 -419.85 153.1
L -419.85 169.7
Q -419.85 170.95 -419.2 171.45 -418.6 171.95 -417.3 172.05 -415.85 172.15 -413.75 172.05 -411.65 172 -409.4 171.8 -407.2 171.6 -405.1 171.3 -403.05 171 -401.65 170.55 -401.45 170.5 -401.3 170.35 -401.15 170.25 -401.2 169.85
L -401.6 167.85
Q -401.7 167.3 -402.2 167.4 -403.8 167.7 -405.55 167.95 -407.3 168.15 -408.95 168.35 -410.65 168.5 -412.15 168.55 -413.65 168.65 -414.75 168.55 -415.4 168.45 -415.6 168.3 -415.8 168.15 -415.8 167.6
L -415.8 154.85
M -348.85 79.35
Q -348.85 78.9 -349.3 78.9
L -351.95 78.9
Q -352.45 78.9 -352.45 79.35
L -352.45 109.7
Q -352.45 110.2 -351.95 110.2
L -349.3 110.2
Q -348.85 110.2 -348.85 109.7
L -348.85 94.4 -346.1 94.4 -346.1 111.05
Q -346.1 111.5 -345.65 111.5
L -342.9 111.5
Q -342.4 111.5 -342.4 111.05
L -342.4 78.75
Q -342.4 78.25 -342.9 78.25
L -345.65 78.25
Q -346.1 78.25 -346.1 78.75
L -346.1 91.1 -348.85 91.1 -348.85 79.35
M -379.5 78.25
Q -380 78.25 -380 78.75
L -380 98.85
Q -380 99.35 -379.55 99.35
L -376.5 99.35
Q -376.05 99.35 -376.05 98.85
L -376.05 78.75
Q -376.05 78.25 -376.5 78.25
L -379.5 78.25
M -366.15 81.2
L -370.9 81.2
Q -371.35 81.2 -371.35 81.75
L -371.35 83.75
Q -371.35 83.95 -371.2 84.1 -371.05 84.25 -370.85 84.25
L -368.05 84.25
Q -367.5 84.25 -367.4 84.4 -367.25 84.6 -367.3 85.2 -367.45 88.3 -368.85 91.55 -370.3 94.75 -373.15 97.75 -373.35 97.9 -373.45 98.15 -373.5 98.45 -373.2 98.7
L -371.8 100.05
Q -371.5 100.25 -371.25 100.15 -370.95 100.05 -370.75 99.85 -369.35 98.45 -368.25 96.95 -367.15 95.45 -366.35 93.85 -365.75 94.8 -364.95 95.65 -364.2 96.5 -363.5 97.15 -364.25 98.25 -365.05 99.35 -365.9 100.5 -366.85 101.5 -367.05 101.7 -367.05 101.9 -367.1 102.15 -366.85 102.35
L -365.25 103.75
Q -365 103.9 -364.8 103.85 -364.6 103.75 -364.35 103.55 -362.65 101.95 -361.35 100.1 -360.1 98.3 -359.1 96.35 -358.7 96.95 -358.2 97.6 -357.7 98.15 -357.2 98.7 -356.7 99.25 -356.2 99.7 -355.8 100.1 -355.45 100.3 -355.2 100.5 -354.95 100.45 -354.7 100.4 -354.6 100.25
L -353.35 98.85
Q -353.15 98.6 -353.1 98.4 -353.1 98.15 -353.35 97.9 -353.8 97.45 -354.35 96.9 -354.9 96.35 -355.45 95.65 -356 94.95 -356.55 94.15 -357.1 93.4 -357.5 92.65 -356.7 90.55 -356.3 88.55 -355.9 86.55 -355.7 84.8 -355.65 84.4 -355.65 83.9 -355.6 83.45 -355.65 83 -355.7 82.15 -356.15 81.65 -356.6 81.1 -358 81.1
L -362.35 81.1
Q -362.85 81.1 -362.85 81.65
L -362.85 83.6
Q -362.85 83.85 -362.7 84 -362.6 84.15 -362.35 84.15
L -360 84.15
Q -359.5 84.15 -359.35 84.3 -359.15 84.5 -359.25 85.1 -359.65 89.7 -361.85 94.2 -362.65 93.4 -363.4 92.35 -364.2 91.3 -364.8 90.25 -364.35 88.9 -364.1 87.6 -363.85 86.25 -363.8 85 -363.8 84.6 -363.8 84.1 -363.75 83.55 -363.75 83.1 -363.85 82.25 -364.3 81.75 -364.8 81.2 -366.15 81.2
M -389.3 98.35
Q -389.6 98.35 -389.75 98.55 -389.95 98.75 -390 99 -390.35 102.4 -393.05 104.55 -395.75 106.75 -400.8 108.25 -401.05 108.35 -401.15 108.6 -401.25 108.8 -401.15 109.05
L -400.25 111.05
Q -400 111.6 -399.35 111.5 -395.75 110.55 -392.8 108.8 -389.85 107 -388.05 104.5 -387.2 105.8 -385.85 106.9 -384.55 108 -383.05 108.9 -381.55 109.8 -380 110.4 -378.45 111.05 -377 111.25 -376.35 111.35 -376.1 110.85
L -375.2 108.8
Q -375.1 108.5 -375.25 108.3 -375.4 108.1 -375.65 108 -377.25 107.7 -378.9 107 -380.6 106.25 -382.1 105.25 -383.55 104.3 -384.7 103.1 -385.8 101.9 -386.25 100.65 -386.15 100.3 -386.1 99.95 -386.05 99.6 -386 99.25 -385.95 99 -386 98.75 -386.1 98.55 -386.6 98.55
L -389.3 98.35
M -398.95 80.75
Q -398.95 80.55 -399.1 80.4 -399.25 80.25 -399.5 80.25
L -402.5 80.25
Q -402.7 80.25 -402.85 80.4 -403 80.55 -403 80.75
L -403 93.9
Q -403 95.15 -402.5 95.75 -401.95 96.4 -400.45 96.45 -399.25 96.55 -397.75 96.55 -396.3 96.55 -394.75 96.45 -393.2 96.35 -391.7 96.2 -390.2 96 -388.9 95.75 -388.75 95.7 -388.6 95.5 -388.4 95.3 -388.45 95.1
L -388.8 92.95
Q -388.85 92.75 -389.05 92.65 -389.25 92.6 -389.4 92.6 -390.4 92.75 -391.6 92.9 -392.75 93 -394 93.05 -395.2 93.15 -396.3 93.15 -397.45 93.15 -398.3 93.1 -398.65 93.05 -398.8 93 -398.95 92.9 -398.95 92.55
L -398.95 80.75
M -386.6 79.25
L -386.6 85.6 -393.55 85.6
Q -393.75 85.6 -393.9 85.75 -394.05 85.85 -394.05 86.05
L -394.05 88.4
Q -394.05 88.6 -393.9 88.75 -393.75 88.9 -393.55 88.9
L -386.6 88.9 -386.6 97.2
Q -386.6 97.7 -386.1 97.7
L -383.25 97.7
Q -382.8 97.7 -382.8 97.2
L -382.8 79.25
Q -382.8 78.85 -383.25 78.85
L -386.1 78.85
Q -386.6 78.85 -386.6 79.25
M -389.3 28.35
Q -389.6 28.35 -389.75 28.55 -389.9 28.75 -389.95 29 -390.3 32.4 -393.05 34.55 -395.75 36.75 -400.75 38.25 -401 38.35 -401.1 38.6 -401.2 38.8 -401.1 39.05
L -400.25 41.05
Q -399.95 41.6 -399.3 41.5 -395.75 40.55 -392.8 38.8 -389.8 37 -388.05 34.5 -387.2 35.8 -385.85 36.9 -384.55 38 -383.05 38.9 -381.55 39.8 -380 40.4 -378.45 41.05 -377 41.25 -376.3 41.35 -376.05 40.85
L -375.2 38.8
Q -375.05 38.5 -375.25 38.3 -375.4 38.1 -375.6 38 -377.2 37.7 -378.85 37 -380.55 36.25 -382.05 35.25 -383.55 34.3 -384.65 33.1 -385.8 31.9 -386.25 30.65 -386.15 30.3 -386.1 29.95 -386.05 29.6 -386 29.25 -385.95 29 -386 28.75 -386.1 28.55 -386.55 28.55
L -389.3 28.35
M -394.05 10.25
Q -394.05 9.7 -394.5 9.7
L -397.45 9.55
Q -397.65 9.55 -397.8 9.75 -397.95 9.9 -397.95 10.15 -397.95 15.15 -399.7 18.75 -401.5 22.35 -404.95 24.85 -405.25 25.1 -405.35 25.35 -405.4 25.65 -405.1 25.95
L -403.85 27.45
Q -403.55 27.75 -403.25 27.75 -402.9 27.75 -402.65 27.5 -398.55 24.85 -396.35 20.5 -395.85 21.35 -395.2 22.25 -394.55 23.1 -393.8 23.9 -393.1 24.7 -392.35 25.35 -391.6 26 -390.9 26.45 -390.3 26.85 -389.85 26.35
L -388.6 24.6
Q -388.4 24.35 -388.35 24.1 -388.35 23.85 -388.65 23.65 -389.5 23.1 -390.45 22.25 -391.35 21.35 -392.2 20.3 -393 19.25 -393.7 18.15 -394.35 17 -394.7 15.85 -394.05 13.25 -394.05 10.25
M -379.45 8.25
Q -379.95 8.25 -379.95 8.75
L -379.95 28.85
Q -379.95 29.35 -379.5 29.35
L -376.45 29.35
Q -376 29.35 -376 28.85
L -376 8.75
Q -376 8.25 -376.45 8.25
L -379.45 8.25
M -382.4 9.25
Q -382.4 8.85 -382.85 8.85
L -385.7 8.85
Q -386.2 8.85 -386.2 9.25
L -386.2 15.85 -390.5 15.85
Q -390.65 15.85 -390.85 16 -391 16.1 -391 16.3
L -391 18.7
Q -391 18.9 -390.85 19.05 -390.65 19.15 -390.5 19.15
L -386.2 19.15 -386.2 27.15
Q -386.2 27.65 -385.7 27.65
L -382.85 27.65
Q -382.4 27.65 -382.4 27.15
L -382.4 9.25
M -356.15 11.65
Q -356.6 11.1 -358 11.1
L -362.35 11.1
Q -362.85 11.1 -362.85 11.65
L -362.85 13.6
Q -362.85 13.85 -362.7 14 -362.6 14.15 -362.35 14.15
L -360 14.15
Q -359.5 14.15 -359.35 14.3 -359.15 14.5 -359.25 15.1 -359.65 19.7 -361.85 24.2 -362.65 23.4 -363.4 22.35 -364.2 21.3 -364.8 20.25 -364.35 18.9 -364.1 17.6 -363.85 16.25 -363.8 15 -363.8 14.6 -363.8 14.1 -363.75 13.55 -363.75 13.1 -363.85 12.25 -364.3 11.75 -364.8 11.2 -366.15 11.2
L -370.9 11.2
Q -371.35 11.2 -371.35 11.75
L -371.35 13.75
Q -371.35 13.95 -371.2 14.1 -371.05 14.25 -370.85 14.25
L -368.05 14.25
Q -367.5 14.25 -367.4 14.4 -367.25 14.6 -367.3 15.2 -367.45 18.3 -368.85 21.55 -370.3 24.75 -373.15 27.75 -373.35 27.9 -373.45 28.15 -373.5 28.45 -373.2 28.7
L -371.8 30.05
Q -371.5 30.25 -371.25 30.15 -370.95 30.05 -370.75 29.85 -369.35 28.45 -368.25 26.95 -367.15 25.45 -366.35 23.85 -365.75 24.8 -364.95 25.65 -364.2 26.5 -363.5 27.15 -364.25 28.25 -365.05 29.35 -365.9 30.5 -366.85 31.5 -367.05 31.7 -367.05 31.9 -367.1 32.15 -366.85 32.35
L -365.25 33.75
Q -365 33.9 -364.8 33.85 -364.6 33.75 -364.35 33.55 -362.65 31.95 -361.35 30.1 -360.1 28.3 -359.1 26.35 -358.7 26.95 -358.2 27.6 -357.7 28.15 -357.2 28.7 -356.7 29.25 -356.2 29.7 -355.8 30.1 -355.45 30.3 -355.2 30.5 -354.95 30.45 -354.7 30.4 -354.6 30.25
L -353.35 28.85
Q -353.15 28.6 -353.1 28.4 -353.1 28.15 -353.35 27.9 -353.8 27.45 -354.35 26.9 -354.9 26.35 -355.45 25.65 -356 24.95 -356.55 24.15 -357.1 23.4 -357.5 22.65 -356.7 20.55 -356.3 18.55 -355.9 16.55 -355.7 14.8 -355.65 14.4 -355.65 13.9 -355.6 13.45 -355.65 13 -355.7 12.15 -356.15 11.65
M -342.4 8.75
Q -342.4 8.25 -342.9 8.25
L -345.65 8.25
Q -346.1 8.25 -346.1 8.75
L -346.1 21.1 -348.85 21.1 -348.85 9.35
Q -348.85 8.9 -349.3 8.9
L -351.95 8.9
Q -352.45 8.9 -352.45 9.35
L -352.45 39.7
Q -352.45 40.2 -351.95 40.2
L -349.3 40.2
Q -348.85 40.2 -348.85 39.7
L -348.85 24.4 -346.1 24.4 -346.1 41.05
Q -346.1 41.5 -345.65 41.5
L -342.9 41.5
Q -342.4 41.5 -342.4 41.05
L -342.4 8.75
M -177.4 158.45
Q -177.8 156.95 -178.4 155.6 -179 154.25 -180 153.2 -180.95 152.2 -182.3 151.6 -183.7 151 -185.5 151 -188.25 151 -190 152.3 -191.7 153.6 -192.65 155.6 -193.6 157.6 -193.95 159.95 -194.3 162.35 -194.3 164.5 -194.3 170.9 -192.15 174.45 -190 178 -185.5 178 -183.25 178 -181.65 177.1 -180 176.2 -178.9 174.45 -177.85 172.75 -177.3 170.2 -176.8 167.7 -176.8 164.5 -176.8 163.05 -176.95 161.5 -177.1 159.95 -177.4 158.45
M -182 157
Q -181.4 158.15 -181.05 160 -180.7 161.85 -180.7 164.5 -180.7 167.2 -181.05 169.05 -181.4 170.9 -182 172.05 -182.65 173.2 -183.55 173.75 -184.4 174.25 -185.5 174.25 -186.65 174.25 -187.5 173.75 -188.35 173.2 -189 172.05 -189.65 170.9 -189.95 169.05 -190.3 167.2 -190.3 164.5 -190.3 161.85 -189.95 160 -189.65 158.15 -189 157 -188.35 155.8 -187.5 155.3 -186.65 154.8 -185.5 154.8 -184.4 154.8 -183.55 155.3 -182.65 155.8 -182 157
M -206.4 160.35
Q -207.1 160.35 -207.8 160.55 -208.5 160.7 -209.15 161.05 -209.8 161.3 -210.3 161.7 -210.85 162.1 -211.15 162.55 -210.9 160.85 -210.4 159.4 -209.9 157.9 -209.05 156.85 -208.15 155.75 -206.9 155.15 -205.6 154.55 -203.8 154.55 -202.55 154.55 -201.5 154.65 -200.5 154.75 -199.6 155.1 -199.1 155.3 -199.05 154.8
L -198.95 152
Q -198.9 151.65 -199.2 151.55 -200 151.25 -201.25 151.1 -202.5 150.95 -203.5 150.95 -206.75 150.95 -209 152.1 -211.25 153.25 -212.6 155.2 -214 157.15 -214.6 159.8 -215.2 162.45 -215.2 165.4 -215.2 171.9 -212.95 175.05 -210.75 178.1 -206.6 178.1 -204.6 178.1 -203 177.4 -201.4 176.7 -200.25 175.5 -199.15 174.3 -198.55 172.6 -197.95 170.95 -197.95 169.05 -197.95 167.05 -198.55 165.45 -199.15 163.85 -200.3 162.7 -201.4 161.55 -202.95 160.95 -204.5 160.35 -206.4 160.35
M -206.25 164
Q -204.15 164 -202.95 165.4 -201.8 166.75 -201.8 169.2 -201.8 171.7 -203.1 173.2 -204.45 174.65 -206.55 174.65 -207.5 174.65 -208.4 174.2 -209.2 173.75 -209.85 172.95 -210.45 172.15 -210.8 171.1 -211.15 170.05 -211.15 168.85 -211.15 166.75 -209.85 165.35 -208.55 164 -206.25 164
M -182.3 81.6
Q -183.7 81 -185.5 81 -188.25 81 -190 82.3 -191.7 83.6 -192.65 85.6 -193.6 87.6 -193.95 89.95 -194.3 92.35 -194.3 94.5 -194.3 100.9 -192.15 104.45 -190 108 -185.5 108 -183.25 108 -181.65 107.1 -180 106.2 -178.9 104.45 -177.85 102.75 -177.3 100.2 -176.8 97.7 -176.8 94.5 -176.8 93.05 -176.95 91.5 -177.1 89.95 -177.4 88.45 -177.8 86.95 -178.4 85.6 -179 84.25 -180 83.2 -180.95 82.2 -182.3 81.6
M -185.5 84.8
Q -184.4 84.8 -183.55 85.3 -182.65 85.8 -182 87 -181.4 88.15 -181.05 90 -180.7 91.85 -180.7 94.5 -180.7 97.2 -181.05 99.05 -181.4 100.9 -182 102.05 -182.65 103.2 -183.55 103.75 -184.4 104.25 -185.5 104.25 -186.65 104.25 -187.5 103.75 -188.35 103.2 -189 102.05 -189.65 100.9 -189.95 99.05 -190.3 97.2 -190.3 94.5 -190.3 91.85 -189.95 90 -189.65 88.15 -189 87 -188.35 85.8 -187.5 85.3 -186.65 84.8 -185.5 84.8
M -212.9 81.2
Q -213.4 81.2 -213.5 81.3 -213.6 81.4 -213.65 81.8
L -213.85 94.7
Q -213.85 95.9 -212.45 95.35 -211.35 94.95 -210.15 94.7 -208.9 94.45 -207.8 94.45 -204.9 94.45 -203.65 95.8 -202.4 97.15 -202.4 99.4 -202.4 101.75 -203.95 103.1 -205.45 104.4 -207.8 104.4 -208.45 104.4 -209.15 104.35 -209.9 104.3 -210.6 104.15 -211.35 104 -212.05 103.8 -212.75 103.6 -213.25 103.3 -214 103 -214 103.6
L -214 106.45
Q -214 106.7 -214 106.8 -213.95 106.9 -213.75 107.1 -213.15 107.35 -212.35 107.55 -211.5 107.75 -210.7 107.85 -209.9 108 -209.15 108.05 -208.45 108.1 -208.1 108.1 -206.1 108.1 -204.25 107.5 -202.45 106.95 -201.2 105.8 -198.45 103.35 -198.45 98.95 -198.45 97.15 -199.1 95.65 -199.75 94.2 -200.9 93.15 -202.05 92.1 -203.55 91.6 -205.1 91.05 -206.85 91.05 -208.6 91.05 -209.95 91.35
L -209.8 84.85 -200.05 84.85
Q -199.85 84.85 -199.75 84.7 -199.65 84.55 -199.65 84.35
L -199.65 81.65
Q -199.65 81.5 -199.75 81.35 -199.85 81.2 -200.05 81.2
L -212.9 81.2
M -200.95 11.75
Q -200.95 11.45 -201 11.35 -201.05 11.25 -201.3 11.25
L -204.5 11.25
Q -204.85 11.25 -204.9 11.3 -205 11.4 -205.2 11.7
L -216.05 27.95
Q -216.15 28.15 -216.3 28.4 -216.45 28.65 -216.45 28.85
L -216.45 31.45
Q -216.45 31.75 -216.35 31.8 -216.25 31.9 -215.9 31.9
L -204.7 31.9 -204.7 37.2
Q -204.7 37.55 -204.55 37.7 -204.45 37.85 -204.05 37.85
L -201.55 37.85
Q -201.15 37.85 -201.05 37.7 -200.95 37.6 -200.95 37.2
L -200.95 31.9 -197.7 31.9
Q -197.4 31.9 -197.25 31.8 -197.15 31.7 -197.15 31.35
L -197.15 28.8
Q -197.15 28.45 -197.25 28.4 -197.4 28.3 -197.7 28.3
L -200.95 28.3 -200.95 11.75
M -204.7 28.3
L -212.2 28.3 -204.7 16.9 -204.7 28.3
M -176.8 24.5
Q -176.8 23.05 -176.95 21.5 -177.1 19.95 -177.4 18.45 -177.8 16.95 -178.4 15.6 -179 14.25 -180 13.2 -180.95 12.2 -182.3 11.6 -183.7 11 -185.5 11 -188.25 11 -190 12.3 -191.7 13.6 -192.65 15.6 -193.6 17.6 -193.95 19.95 -194.3 22.35 -194.3 24.5 -194.3 30.9 -192.15 34.45 -190 38 -185.5 38 -183.25 38 -181.65 37.1 -180 36.2 -178.9 34.45 -177.85 32.75 -177.3 30.2 -176.8 27.7 -176.8 24.5
M -182 17
Q -181.4 18.15 -181.05 20 -180.7 21.85 -180.7 24.5 -180.7 27.2 -181.05 29.05 -181.4 30.9 -182 32.05 -182.65 33.2 -183.55 33.75 -184.4 34.25 -185.5 34.25 -186.65 34.25 -187.5 33.75 -188.35 33.2 -189 32.05 -189.65 30.9 -189.95 29.05 -190.3 27.2 -190.3 24.5 -190.3 21.85 -189.95 20 -189.65 18.15 -189 17 -188.35 15.8 -187.5 15.3 -186.65 14.8 -185.5 14.8 -184.4 14.8 -183.55 15.3 -182.65 15.8 -182 17
M -17.4 170
Q -17.25 170 -17.1 169.9 -17 169.75 -17 169.6
L -17 166.8
Q -17 166.65 -17.1 166.5 -17.25 166.4 -17.4 166.4
L -35.9 166.4
Q -36.05 166.4 -36.2 166.5 -36.3 166.65 -36.3 166.8
L -36.3 169.6
Q -36.3 169.75 -36.2 169.9 -36.05 170 -35.9 170
L -17.4 170
M -17 159.55
Q -17 159.35 -17.1 159.25 -17.25 159.1 -17.4 159.1
L -35.9 159.1
Q -36.05 159.1 -36.2 159.25 -36.3 159.35 -36.3 159.55
L -36.3 162.3
Q -36.3 162.5 -36.2 162.6 -36.05 162.7 -35.9 162.7
L -17.4 162.7
Q -17.25 162.7 -17.1 162.6 -17 162.5 -17 162.3
L -17 159.55
M -68.9 155.4
Q -68.9 155.25 -69 155.1 -69.1 155 -69.3 155
L -72.15 155
Q -72.35 155 -72.45 155.1 -72.6 155.25 -72.6 155.4
L -72.6 162.75 -80 162.75
Q -80.2 162.75 -80.3 162.9 -80.4 163 -80.4 163.15
L -80.4 165.9
Q -80.4 166.05 -80.3 166.2 -80.2 166.35 -80 166.35
L -72.6 166.35 -72.6 173.7
Q -72.6 174.15 -72.15 174.15
L -69.3 174.15
Q -68.9 174.15 -68.9 173.7
L -68.9 166.35 -61.5 166.35
Q -61.1 166.35 -61.1 165.9
L -61.1 163.15
Q -61.1 162.75 -61.5 162.75
L -68.9 162.75 -68.9 155.4
M -41.7 151.35
Q -41.8 151.2 -42 151.2
L -54.85 151.2
Q -55.35 151.2 -55.45 151.3 -55.55 151.4 -55.6 151.8
L -55.8 164.7
Q -55.8 165.9 -54.4 165.35 -53.3 164.95 -52.1 164.7 -50.85 164.45 -49.75 164.45 -46.85 164.45 -45.6 165.8 -44.35 167.15 -44.35 169.4 -44.35 171.75 -45.9 173.1 -47.4 174.4 -49.75 174.4 -50.4 174.4 -51.1 174.35 -51.85 174.3 -52.55 174.15 -53.3 174 -54 173.8 -54.7 173.6 -55.2 173.3 -55.95 173 -55.95 173.6
L -55.95 176.45
Q -55.95 176.7 -55.95 176.8 -55.9 176.9 -55.7 177.1 -55.1 177.35 -54.3 177.55 -53.45 177.75 -52.65 177.85 -51.85 178 -51.1 178.05 -50.4 178.1 -50.05 178.1 -48.05 178.1 -46.2 177.5 -44.4 176.95 -43.15 175.8 -40.4 173.35 -40.4 168.95 -40.4 167.15 -41.05 165.65 -41.7 164.2 -42.85 163.15 -44 162.1 -45.5 161.6 -47.05 161.05 -48.8 161.05 -50.55 161.05 -51.9 161.35
L -51.75 154.85 -42 154.85
Q -41.8 154.85 -41.7 154.7 -41.6 154.55 -41.6 154.35
L -41.6 151.65
Q -41.6 151.5 -41.7 151.35
M -107.2 154.85
Q -107 154.85 -106.9 154.7 -106.8 154.55 -106.8 154.35
L -106.8 151.65
Q -106.8 151.5 -106.9 151.35 -107 151.2 -107.2 151.2
L -120.05 151.2
Q -120.55 151.2 -120.65 151.3 -120.75 151.4 -120.8 151.8
L -121 164.7
Q -121 165.9 -119.6 165.35 -118.5 164.95 -117.3 164.7 -116.05 164.45 -114.95 164.45 -112.05 164.45 -110.8 165.8 -109.55 167.15 -109.55 169.4 -109.55 171.75 -111.1 173.1 -112.6 174.4 -114.95 174.4 -115.6 174.4 -116.3 174.35 -117.05 174.3 -117.75 174.15 -118.5 174 -119.2 173.8 -119.9 173.6 -120.4 173.3 -121.15 173 -121.15 173.6
L -121.15 176.45
Q -121.15 176.7 -121.15 176.8 -121.1 176.9 -120.9 177.1 -120.3 177.35 -119.5 177.55 -118.65 177.75 -117.85 177.85 -117.05 178 -116.3 178.05 -115.6 178.1 -115.25 178.1 -113.25 178.1 -111.4 177.5 -109.6 176.95 -108.35 175.8 -105.6 173.35 -105.6 168.95 -105.6 167.15 -106.25 165.65 -106.9 164.2 -108.05 163.15 -109.2 162.1 -110.7 161.6 -112.25 161.05 -114 161.05 -115.75 161.05 -117.1 161.35
L -116.95 154.85 -107.2 154.85
M -84.55 158.45
Q -84.95 156.95 -85.55 155.6 -86.15 154.25 -87.15 153.2 -88.1 152.2 -89.45 151.6 -90.85 151 -92.65 151 -95.4 151 -97.15 152.3 -98.85 153.6 -99.8 155.6 -100.75 157.6 -101.1 159.95 -101.45 162.35 -101.45 164.5 -101.45 170.9 -99.3 174.45 -97.15 178 -92.65 178 -90.4 178 -88.8 177.1 -87.15 176.2 -86.05 174.45 -85 172.75 -84.45 170.2 -83.95 167.7 -83.95 164.5 -83.95 163.05 -84.1 161.5 -84.25 159.95 -84.55 158.45
M -89.15 157
Q -88.55 158.15 -88.2 160 -87.85 161.85 -87.85 164.5 -87.85 167.2 -88.2 169.05 -88.55 170.9 -89.15 172.05 -89.8 173.2 -90.7 173.75 -91.55 174.25 -92.65 174.25 -93.8 174.25 -94.65 173.75 -95.5 173.2 -96.15 172.05 -96.8 170.9 -97.1 169.05 -97.45 167.2 -97.45 164.5 -97.45 161.85 -97.1 160 -96.8 158.15 -96.15 157 -95.5 155.8 -94.65 155.3 -93.8 154.8 -92.65 154.8 -91.55 154.8 -90.7 155.3 -89.8 155.8 -89.15 157
M -156.25 158.45
Q -156.65 156.95 -157.25 155.6 -157.85 154.25 -158.85 153.2 -159.8 152.2 -161.15 151.6 -162.55 151 -164.35 151 -167.1 151 -168.85 152.3 -170.55 153.6 -171.5 155.6 -172.45 157.6 -172.8 159.95 -173.15 162.35 -173.15 164.5 -173.15 170.9 -171 174.45 -168.85 178 -164.35 178 -162.1 178 -160.5 177.1 -158.85 176.2 -157.75 174.45 -156.7 172.75 -156.15 170.2 -155.65 167.7 -155.65 164.5 -155.65 163.05 -155.8 161.5 -155.95 159.95 -156.25 158.45
M -160.85 157
Q -160.25 158.15 -159.9 160 -159.55 161.85 -159.55 164.5 -159.55 167.2 -159.9 169.05 -160.25 170.9 -160.85 172.05 -161.5 173.2 -162.4 173.75 -163.25 174.25 -164.35 174.25 -165.5 174.25 -166.35 173.75 -167.2 173.2 -167.85 172.05 -168.5 170.9 -168.8 169.05 -169.15 167.2 -169.15 164.5 -169.15 161.85 -168.8 160 -168.5 158.15 -167.85 157 -167.2 155.8 -166.35 155.3 -165.5 154.8 -164.35 154.8 -163.25 154.8 -162.4 155.3 -161.5 155.8 -160.85 157
M -128.95 166
Q -128.5 166 -128.5 165.5
L -128.5 162.3
Q -128.5 161.85 -128.95 161.85
L -129.15 161.85 -147.2 161.85 -148.05 161.85
Q -148.25 161.85 -148.35 162 -148.5 162.15 -148.5 162.3
L -148.5 165.5
Q -148.5 165.7 -148.35 165.9 -148.25 166 -148.05 166
L -147.2 166 -129.15 166 -128.95 166
M -87.15 83.2
Q -88.1 82.2 -89.45 81.6 -90.85 81 -92.65 81 -95.4 81 -97.15 82.3 -98.85 83.6 -99.8 85.6 -100.75 87.6 -101.1 89.95 -101.45 92.35 -101.45 94.5 -101.45 100.9 -99.3 104.45 -97.15 108 -92.65 108 -90.4 108 -88.8 107.1 -87.15 106.2 -86.05 104.45 -85 102.75 -84.45 100.2 -83.95 97.7 -83.95 94.5 -83.95 93.05 -84.1 91.5 -84.25 89.95 -84.55 88.45 -84.95 86.95 -85.55 85.6 -86.15 84.25 -87.15 83.2
M -94.65 85.3
Q -93.8 84.8 -92.65 84.8 -91.55 84.8 -90.7 85.3 -89.8 85.8 -89.15 87 -88.55 88.15 -88.2 90 -87.85 91.85 -87.85 94.5 -87.85 97.2 -88.2 99.05 -88.55 100.9 -89.15 102.05 -89.8 103.2 -90.7 103.75 -91.55 104.25 -92.65 104.25 -93.8 104.25 -94.65 103.75 -95.5 103.2 -96.15 102.05 -96.8 100.9 -97.1 99.05 -97.45 97.2 -97.45 94.5 -97.45 91.85 -97.1 90 -96.8 88.15 -96.15 87 -95.5 85.8 -94.65 85.3
M -121.75 89.8
Q -122.35 92.45 -122.35 95.4 -122.35 101.9 -120.1 105.05 -117.9 108.1 -113.75 108.1 -111.75 108.1 -110.15 107.4 -108.55 106.7 -107.4 105.5 -106.3 104.3 -105.7 102.6 -105.1 100.95 -105.1 99.05 -105.1 97.05 -105.7 95.45 -106.3 93.85 -107.45 92.7 -108.55 91.55 -110.1 90.95 -111.65 90.35 -113.55 90.35 -114.25 90.35 -114.95 90.55 -115.65 90.7 -116.3 91.05 -116.95 91.3 -117.45 91.7 -118 92.1 -118.3 92.55 -118.05 90.85 -117.55 89.4 -117.05 87.9 -116.2 86.85 -115.3 85.75 -114.05 85.15 -112.75 84.55 -110.95 84.55 -109.7 84.55 -108.65 84.65 -107.65 84.75 -106.75 85.1 -106.25 85.3 -106.2 84.8
L -106.1 82
Q -106.05 81.65 -106.35 81.55 -107.15 81.25 -108.4 81.1 -109.65 80.95 -110.65 80.95 -113.9 80.95 -116.15 82.1 -118.4 83.25 -119.75 85.2 -121.15 87.15 -121.75 89.8
M -118.3 98.85
Q -118.3 96.75 -117 95.35 -115.7 94 -113.4 94 -111.3 94 -110.1 95.4 -108.95 96.75 -108.95 99.2 -108.95 101.7 -110.25 103.2 -111.6 104.65 -113.7 104.65 -114.65 104.65 -115.55 104.2 -116.35 103.75 -117 102.95 -117.6 102.15 -117.95 101.1 -118.3 100.05 -118.3 98.85
M -148.35 95.9
Q -148.25 96.05 -148.05 96.05
L -147.2 96.05 -129.15 96.05 -128.95 96.05
Q -128.5 96.05 -128.5 95.55
L -128.5 92.35
Q -128.5 91.9 -128.95 91.9
L -129.15 91.9 -147.2 91.9 -148.05 91.9
Q -148.25 91.9 -148.35 92.05 -148.5 92.15 -148.5 92.35
L -148.5 95.55
Q -148.5 95.7 -148.35 95.9
M -157.25 85.6
Q -157.85 84.25 -158.85 83.2 -159.8 82.2 -161.15 81.6 -162.55 81 -164.35 81 -167.1 81 -168.85 82.3 -170.55 83.6 -171.5 85.6 -172.45 87.6 -172.8 89.95 -173.15 92.35 -173.15 94.5 -173.15 100.9 -171 104.45 -168.85 108 -164.35 108 -162.1 108 -160.5 107.1 -158.85 106.2 -157.75 104.45 -156.7 102.75 -156.15 100.2 -155.65 97.7 -155.65 94.5 -155.65 93.05 -155.8 91.5 -155.95 89.95 -156.25 88.45 -156.65 86.95 -157.25 85.6
M -160.85 87
Q -160.25 88.15 -159.9 90 -159.55 91.85 -159.55 94.5 -159.55 97.2 -159.9 99.05 -160.25 100.9 -160.85 102.05 -161.5 103.2 -162.4 103.75 -163.25 104.25 -164.35 104.25 -165.5 104.25 -166.35 103.75 -167.2 103.2 -167.85 102.05 -168.5 100.9 -168.8 99.05 -169.15 97.2 -169.15 94.5 -169.15 91.85 -168.8 90 -168.5 88.15 -167.85 87 -167.2 85.8 -166.35 85.3 -165.5 84.8 -164.35 84.8 -163.25 84.8 -162.4 85.3 -161.5 85.8 -160.85 87
M -155.65 24.5
Q -155.65 23.05 -155.8 21.5 -155.95 19.95 -156.25 18.45 -156.65 16.95 -157.25 15.6 -157.85 14.25 -158.85 13.2 -159.8 12.2 -161.15 11.6 -162.55 11 -164.35 11 -167.1 11 -168.85 12.3 -170.55 13.6 -171.5 15.6 -172.45 17.6 -172.8 19.95 -173.15 22.35 -173.15 24.5 -173.15 30.9 -171 34.45 -168.85 38 -164.35 38 -162.1 38 -160.5 37.1 -158.85 36.2 -157.75 34.45 -156.7 32.75 -156.15 30.2 -155.65 27.7 -155.65 24.5
M -159.9 20
Q -159.55 21.85 -159.55 24.5 -159.55 27.2 -159.9 29.05 -160.25 30.9 -160.85 32.05 -161.5 33.2 -162.4 33.75 -163.25 34.25 -164.35 34.25 -165.5 34.25 -166.35 33.75 -167.2 33.2 -167.85 32.05 -168.5 30.9 -168.8 29.05 -169.15 27.2 -169.15 24.5 -169.15 21.85 -168.8 20 -168.5 18.15 -167.85 17 -167.2 15.8 -166.35 15.3 -165.5 14.8 -164.35 14.8 -163.25 14.8 -162.4 15.3 -161.5 15.8 -160.85 17 -160.25 18.15 -159.9 20
M -128.5 22.3
Q -128.5 21.85 -128.95 21.85
L -129.15 21.85 -147.2 21.85 -148.05 21.85
Q -148.25 21.85 -148.35 22 -148.5 22.15 -148.5 22.3
L -148.5 25.5
Q -148.5 25.7 -148.35 25.85 -148.25 26 -148.05 26
L -147.2 26 -129.15 26 -128.95 26
Q -128.5 26 -128.5 25.5
L -128.5 22.3
M -105.9 14
L -105.9 11.85
Q -105.9 11.5 -106.05 11.35 -106.2 11.25 -106.8 11.25
L -121.7 11.25
Q -122.3 11.25 -122.3 11.8
L -122.3 14.25
Q -122.3 14.55 -122.1 14.7 -121.9 14.85 -121.7 14.85
L -110.5 14.85 -119.65 37.2
Q -119.8 37.6 -119.65 37.7 -119.5 37.85 -119 37.85
L -116.15 37.85
Q -115.8 37.85 -115.65 37.75 -115.55 37.6 -115.35 37.35
L -106.1 14.55
Q -105.9 14.3 -105.9 14
M -92.65 11
Q -95.4 11 -97.15 12.3 -98.85 13.6 -99.8 15.6 -100.75 17.6 -101.1 19.95 -101.45 22.35 -101.45 24.5 -101.45 30.9 -99.3 34.45 -97.15 38 -92.65 38 -90.4 38 -88.8 37.1 -87.15 36.2 -86.05 34.45 -85 32.75 -84.45 30.2 -83.95 27.7 -83.95 24.5 -83.95 23.05 -84.1 21.5 -84.25 19.95 -84.55 18.45 -84.95 16.95 -85.55 15.6 -86.15 14.25 -87.15 13.2 -88.1 12.2 -89.45 11.6 -90.85 11 -92.65 11
M -97.45 24.5
Q -97.45 21.85 -97.1 20 -96.8 18.15 -96.15 17 -95.5 15.8 -94.65 15.3 -93.8 14.8 -92.65 14.8 -91.55 14.8 -90.7 15.3 -89.8 15.8 -89.15 17 -88.55 18.15 -88.2 20 -87.85 21.85 -87.85 24.5 -87.85 27.2 -88.2 29.05 -88.55 30.9 -89.15 32.05 -89.8 33.2 -90.7 33.75 -91.55 34.25 -92.65 34.25 -93.8 34.25 -94.65 33.75 -95.5 33.2 -96.15 32.05 -96.8 30.9 -97.1 29.05 -97.45 27.2 -97.45 24.5
M -35.9 96.4
Q -36.05 96.4 -36.2 96.5 -36.3 96.65 -36.3 96.8
L -36.3 99.6
Q -36.3 99.75 -36.2 99.9 -36.05 100 -35.9 100
L -17.4 100
Q -17.25 100 -17.1 99.9 -17 99.75 -17 99.6
L -17 96.8
Q -17 96.65 -17.1 96.5 -17.25 96.4 -17.4 96.4
L -35.9 96.4
M -36.2 92.6
Q -36.05 92.7 -35.9 92.7
L -17.4 92.7
Q -17.25 92.7 -17.1 92.6 -17 92.5 -17 92.3
L -17 89.55
Q -17 89.35 -17.1 89.25 -17.25 89.1 -17.4 89.1
L -35.9 89.1
Q -36.05 89.1 -36.2 89.25 -36.3 89.35 -36.3 89.55
L -36.3 92.3
Q -36.3 92.5 -36.2 92.6
M -46.85 81.3
Q -46.95 81.4 -47.15 81.7
L -58 97.95
Q -58.1 98.15 -58.25 98.4 -58.4 98.65 -58.4 98.85
L -58.4 101.45
Q -58.4 101.75 -58.3 101.8 -58.2 101.9 -57.85 101.9
L -46.65 101.9 -46.65 107.2
Q -46.65 107.55 -46.5 107.7 -46.4 107.85 -46 107.85
L -43.5 107.85
Q -43.1 107.85 -43 107.7 -42.9 107.6 -42.9 107.2
L -42.9 101.9 -39.65 101.9
Q -39.35 101.9 -39.2 101.8 -39.1 101.7 -39.1 101.35
L -39.1 98.8
Q -39.1 98.45 -39.2 98.4 -39.35 98.3 -39.65 98.3
L -42.9 98.3 -42.9 81.75
Q -42.9 81.45 -42.95 81.35 -43 81.25 -43.25 81.25
L -46.45 81.25
Q -46.8 81.25 -46.85 81.3
M -46.65 86.9
L -46.65 98.3 -54.15 98.3 -46.65 86.9
M -68.9 85.4
Q -68.9 85.25 -69 85.1 -69.1 85 -69.3 85
L -72.15 85
Q -72.35 85 -72.45 85.1 -72.6 85.25 -72.6 85.4
L -72.6 92.75 -80 92.75
Q -80.2 92.75 -80.3 92.9 -80.4 93 -80.4 93.15
L -80.4 95.9
Q -80.4 96.05 -80.3 96.2 -80.2 96.35 -80 96.35
L -72.6 96.35 -72.6 103.7
Q -72.6 104.15 -72.15 104.15
L -69.3 104.15
Q -68.9 104.15 -68.9 103.7
L -68.9 96.35 -61.5 96.35
Q -61.1 96.35 -61.1 95.9
L -61.1 93.15
Q -61.1 92.75 -61.5 92.75
L -68.9 92.75 -68.9 85.4
M -72.15 15
Q -72.35 15 -72.45 15.1 -72.6 15.25 -72.6 15.4
L -72.6 22.75 -80 22.75
Q -80.2 22.75 -80.3 22.9 -80.4 23 -80.4 23.15
L -80.4 25.9
Q -80.4 26.05 -80.3 26.2 -80.2 26.35 -80 26.35
L -72.6 26.35 -72.6 33.7
Q -72.6 34.15 -72.15 34.15
L -69.3 34.15
Q -68.9 34.15 -68.9 33.7
L -68.9 26.35 -61.5 26.35
Q -61.1 26.35 -61.1 25.9
L -61.1 23.15
Q -61.1 22.75 -61.5 22.75
L -68.9 22.75 -68.9 15.4
Q -68.9 15.25 -69 15.1 -69.1 15 -69.3 15
L -72.15 15
M -46.5 11.3
Q -48 10.95 -49.6 10.95 -51.05 10.95 -52.55 11.25 -54 11.55 -55.55 12.1 -55.9 12.25 -56 12.45 -56.15 12.6 -56.05 12.8
L -55.75 15.35
Q -55.7 15.7 -55.5 15.75 -55.3 15.85 -54.9 15.7 -54.35 15.5 -53.65 15.25 -52.95 15.05 -52.25 14.9 -51.55 14.75 -50.9 14.65 -50.3 14.55 -49.8 14.55 -49.05 14.55 -48.2 14.7 -47.4 14.9 -46.65 15.35 -45.95 15.75 -45.5 16.4 -45.05 17.1 -45.05 18 -45.05 19.15 -45.75 19.95 -46.45 20.75 -47.5 21.3 -48.5 21.8 -49.6 22.05 -50.65 22.25 -51.45 22.25
L -53.1 22.25
Q -53.4 22.25 -53.5 22.35 -53.55 22.4 -53.55 22.7
L -53.55 25.3
Q -53.55 25.6 -53.5 25.7 -53.4 25.75 -53.1 25.75
L -51.35 25.75
Q -49.7 25.75 -48.5 26.1 -47.25 26.45 -46.5 27 -45.75 27.6 -45.35 28.35 -45 29.1 -45 29.9 -45 32.25 -46.7 33.4 -47.25 33.8 -47.95 34.05 -48.65 34.3 -49.4 34.35 -50.15 34.45 -50.9 34.4 -51.7 34.4 -52.4 34.3 -53.35 34.25 -54.25 33.95 -55.2 33.7 -56.1 33.45 -56.6 33.25 -56.75 33.35 -56.95 33.45 -56.95 33.8
L -57.3 36.4
Q -57.3 36.7 -57.2 36.85 -57.05 37.05 -56.7 37.15 -55.4 37.6 -53.85 37.85 -52.35 38.1 -50.85 38.1 -48.8 38.1 -46.95 37.6 -45.05 37.1 -43.75 36 -42.4 34.95 -41.7 33.4 -41 31.85 -41 30 -41 28.05 -42.15 26.5 -43.35 24.95 -45.65 23.95 -44.7 23.55 -43.85 22.85 -43 22.2 -42.4 21.35 -41.8 20.5 -41.45 19.6 -41.15 18.6 -41.15 17.7 -41.15 15.9 -41.9 14.6 -42.6 13.3 -43.8 12.5 -44.95 11.7 -46.5 11.3
M -35.9 26.4
Q -36.05 26.4 -36.2 26.5 -36.3 26.65 -36.3 26.8
L -36.3 29.6
Q -36.3 29.75 -36.2 29.9 -36.05 30 -35.9 30
L -17.4 30
Q -17.25 30 -17.1 29.9 -17 29.75 -17 29.6
L -17 26.8
Q -17 26.65 -17.1 26.5 -17.25 26.4 -17.4 26.4
L -35.9 26.4
M -17.4 22.7
Q -17.25 22.7 -17.1 22.6 -17 22.5 -17 22.3
L -17 19.55
Q -17 19.35 -17.1 19.25 -17.25 19.1 -17.4 19.1
L -35.9 19.1
Q -36.05 19.1 -36.2 19.25 -36.3 19.35 -36.3 19.55
L -36.3 22.3
Q -36.3 22.5 -36.2 22.6 -36.05 22.7 -35.9 22.7
L -17.4 22.7
M -17 -38.2
Q -17 -38.35 -17.1 -38.5 -17.25 -38.6 -17.4 -38.6
L -35.9 -38.6
Q -36.05 -38.6 -36.2 -38.5 -36.3 -38.35 -36.3 -38.2
L -36.3 -35.4
Q -36.3 -35.25 -36.2 -35.1 -36.05 -35 -35.9 -35
L -17.4 -35
Q -17.25 -35 -17.1 -35.1 -17 -35.25 -17 -35.4
L -17 -38.2
M -17.1 -45.75
Q -17.25 -45.9 -17.4 -45.9
L -35.9 -45.9
Q -36.05 -45.9 -36.2 -45.75 -36.3 -45.65 -36.3 -45.45
L -36.3 -42.7
Q -36.3 -42.5 -36.2 -42.4 -36.05 -42.3 -35.9 -42.3
L -17.4 -42.3
Q -17.25 -42.3 -17.1 -42.4 -17 -42.5 -17 -42.7
L -17 -45.45
Q -17 -45.65 -17.1 -45.75
M -42.4 -49.9
Q -43 -51.25 -44.05 -52.2 -45.05 -53.15 -46.5 -53.6 -47.9 -54.05 -49.6 -54.05 -51.25 -54.05 -52.95 -53.5 -54.65 -52.95 -56 -52.25 -56.35 -52.05 -56.45 -51.85 -56.55 -51.7 -56.5 -51.5
L -56 -48.85
Q -55.9 -48.55 -55.65 -48.55 -55.35 -48.5 -55.1 -48.7 -53.5 -49.6 -52.15 -50 -50.8 -50.4 -49.35 -50.4 -47.85 -50.4 -46.85 -49.3 -45.8 -48.2 -45.8 -46.55 -45.8 -45.1 -47.2 -42.75 -48.6 -40.45 -51.5 -37
L -56.85 -30.7
Q -57.05 -30.4 -57.2 -30.15 -57.35 -29.85 -57.35 -29.6
L -57.35 -27.6
Q -57.35 -27.1 -56.7 -27.1
L -41.8 -27.1
Q -41.3 -27.1 -41.3 -27.7
L -41.3 -30.2
Q -41.3 -30.7 -41.8 -30.7
L -52.05 -30.7
Q -51.15 -31.7 -50.3 -32.75 -49.45 -33.75 -48.65 -34.7 -47.7 -35.85 -46.5 -37.3 -45.3 -38.7 -44.25 -40.25 -43.2 -41.85 -42.5 -43.45 -41.8 -45.1 -41.8 -46.65 -41.8 -48.5 -42.4 -49.9
M -72.45 -49.9
Q -72.6 -49.75 -72.6 -49.6
L -72.6 -42.25 -80 -42.25
Q -80.2 -42.25 -80.3 -42.1 -80.4 -42 -80.4 -41.85
L -80.4 -39.1
Q -80.4 -38.95 -80.3 -38.8 -80.2 -38.65 -80 -38.65
L -72.6 -38.65 -72.6 -31.3
Q -72.6 -30.85 -72.15 -30.85
L -69.3 -30.85
Q -68.9 -30.85 -68.9 -31.3
L -68.9 -38.65 -61.5 -38.65
Q -61.1 -38.65 -61.1 -39.1
L -61.1 -41.85
Q -61.1 -42.25 -61.5 -42.25
L -68.9 -42.25 -68.9 -49.6
Q -68.9 -49.75 -69 -49.9 -69.1 -50 -69.3 -50
L -72.15 -50
Q -72.35 -50 -72.45 -49.9
M -17 -95.4
L -17 -98.2
Q -17 -98.35 -17.1 -98.5 -17.25 -98.6 -17.4 -98.6
L -35.9 -98.6
Q -36.05 -98.6 -36.2 -98.5 -36.3 -98.35 -36.3 -98.2
L -36.3 -95.4
Q -36.3 -95.25 -36.2 -95.1 -36.05 -95 -35.9 -95
L -17.4 -95
Q -17.25 -95 -17.1 -95.1 -17 -95.25 -17 -95.4
M -128.95 -39
Q -128.5 -39 -128.5 -39.5
L -128.5 -42.7
Q -128.5 -43.15 -128.95 -43.15
L -129.15 -43.15 -147.2 -43.15 -148.05 -43.15
Q -148.25 -43.15 -148.35 -43 -148.45 -42.85 -148.45 -42.7
L -148.45 -39.5
Q -148.45 -39.3 -148.35 -39.15 -148.25 -39 -148.05 -39
L -147.2 -39 -129.15 -39 -128.95 -39
M -87.15 -51.8
Q -88.1 -52.8 -89.45 -53.4 -90.85 -54 -92.65 -54 -95.4 -54 -97.15 -52.7 -98.85 -51.4 -99.8 -49.4 -100.75 -47.4 -101.1 -45.05 -101.45 -42.65 -101.45 -40.5 -101.45 -34.1 -99.3 -30.55 -97.15 -27 -92.65 -27 -90.4 -27 -88.8 -27.9 -87.15 -28.8 -86.05 -30.55 -85 -32.25 -84.45 -34.8 -83.95 -37.3 -83.95 -40.5 -83.95 -41.95 -84.1 -43.5 -84.25 -45.05 -84.55 -46.55 -84.95 -48.05 -85.55 -49.4 -86.15 -50.75 -87.15 -51.8
M -92.65 -50.2
Q -91.55 -50.2 -90.7 -49.7 -89.8 -49.2 -89.15 -48 -88.55 -46.85 -88.2 -45 -87.85 -43.15 -87.85 -40.5 -87.85 -37.8 -88.2 -35.95 -88.55 -34.1 -89.15 -32.95 -89.8 -31.8 -90.7 -31.25 -91.55 -30.75 -92.65 -30.75 -93.8 -30.75 -94.65 -31.25 -95.5 -31.8 -96.15 -32.95 -96.8 -34.1 -97.1 -35.95 -97.45 -37.8 -97.45 -40.5 -97.45 -43.15 -97.1 -45 -96.8 -46.85 -96.15 -48 -95.5 -49.2 -94.65 -49.7 -93.8 -50.2 -92.65 -50.2
M -113.8 -54.05
Q -115.5 -54.05 -117 -53.6 -118.45 -53.1 -119.55 -52.2 -120.65 -51.35 -121.3 -50.1 -121.95 -48.9 -121.95 -47.4 -121.95 -45.4 -120.75 -43.85 -119.5 -42.25 -117.4 -41.05 -118.45 -40.55 -119.4 -39.9 -120.4 -39.25 -121.1 -38.5 -121.8 -37.7 -122.25 -36.7 -122.7 -35.7 -122.7 -34.4 -122.7 -32.5 -121.9 -31.1 -121.1 -29.7 -119.85 -28.75 -118.55 -27.8 -117 -27.35 -115.35 -26.9 -113.8 -26.9 -112.1 -26.9 -110.5 -27.35 -108.85 -27.8 -107.65 -28.75 -106.4 -29.7 -105.65 -31.1 -104.9 -32.5 -104.9 -34.4 -104.9 -35.6 -105.25 -36.5 -105.6 -37.4 -106.3 -38.2 -107 -39 -108 -39.7 -109 -40.35 -110.2 -41.1 -107.9 -42.65 -106.85 -44.2 -105.7 -45.75 -105.7 -47.5 -105.7 -49.05 -106.35 -50.3 -106.95 -51.5 -108 -52.35 -109.1 -53.15 -110.55 -53.65 -112.05 -54.05 -113.8 -54.05
M -113.8 -50.65
Q -112.95 -50.65 -112.2 -50.4 -111.45 -50.1 -110.9 -49.65 -110.35 -49.2 -110 -48.55 -109.7 -47.95 -109.7 -47.25 -109.7 -46.6 -110.1 -45.9 -110.55 -45.2 -111.2 -44.6 -111.85 -43.95 -112.55 -43.5 -113.25 -43 -113.75 -42.8 -114.25 -43 -114.95 -43.4 -115.65 -43.8 -116.3 -44.4 -117 -45 -117.45 -45.7 -117.95 -46.4 -117.95 -47.15 -117.95 -48 -117.6 -48.65 -117.2 -49.3 -116.6 -49.7 -116 -50.15 -115.25 -50.4 -114.55 -50.65 -113.8 -50.65
M -113.75 -39.15
Q -112.9 -38.8 -112 -38.3 -111.15 -37.75 -110.45 -37.15 -109.7 -36.5 -109.25 -35.8 -108.85 -35.05 -108.85 -34.4 -108.85 -33.45 -109.25 -32.7 -109.7 -32 -110.4 -31.45 -111.1 -30.95 -112 -30.65 -112.9 -30.4 -113.8 -30.4 -114.65 -30.4 -115.55 -30.7 -116.45 -31 -117.15 -31.5 -117.85 -32 -118.3 -32.75 -118.75 -33.5 -118.75 -34.4 -118.75 -35.5 -118.25 -36.3 -117.75 -37.05 -117 -37.65 -116.25 -38.2 -115.35 -38.55 -114.45 -38.95 -113.75 -39.15
M -87.15 -111.8
Q -88.1 -112.8 -89.45 -113.4 -90.85 -114 -92.65 -114 -95.4 -114 -97.15 -112.7 -98.85 -111.4 -99.8 -109.4 -100.75 -107.4 -101.1 -105.05 -101.45 -102.65 -101.45 -100.5 -101.45 -94.1 -99.3 -90.55 -97.15 -87 -92.65 -87 -90.4 -87 -88.8 -87.9 -87.15 -88.8 -86.05 -90.55 -85 -92.25 -84.45 -94.8 -83.95 -97.3 -83.95 -100.5 -83.95 -101.95 -84.1 -103.5 -84.25 -105.05 -84.55 -106.55 -84.95 -108.05 -85.55 -109.4 -86.15 -110.75 -87.15 -111.8
M -94.65 -109.7
Q -93.8 -110.2 -92.65 -110.2 -91.55 -110.2 -90.7 -109.7 -89.8 -109.2 -89.15 -108 -88.55 -106.85 -88.2 -105 -87.85 -103.15 -87.85 -100.5 -87.85 -97.8 -88.2 -95.95 -88.55 -94.1 -89.15 -92.95 -89.8 -91.8 -90.7 -91.25 -91.55 -90.75 -92.65 -90.75 -93.8 -90.75 -94.65 -91.25 -95.5 -91.8 -96.15 -92.95 -96.8 -94.1 -97.1 -95.95 -97.45 -97.8 -97.45 -100.5 -97.45 -103.15 -97.1 -105 -96.8 -106.85 -96.15 -108 -95.5 -109.2 -94.65 -109.7
M -122.55 -105
Q -122.55 -103 -121.95 -101.4 -121.35 -99.8 -120.2 -98.65 -119.1 -97.55 -117.55 -96.9 -115.95 -96.3 -114.1 -96.3 -113.4 -96.3 -112.7 -96.5 -112 -96.65 -111.35 -97 -110.7 -97.25 -110.2 -97.7 -109.65 -98.05 -109.3 -98.5 -109.55 -96.85 -110.05 -95.35 -110.6 -93.9 -111.45 -92.8 -112.35 -91.7 -113.6 -91.1 -114.9 -90.5 -116.7 -90.5 -117.95 -90.5 -118.95 -90.6 -120 -90.7 -120.9 -91.05 -121.4 -91.25 -121.45 -90.75
L -121.6 -87.95
Q -121.6 -87.6 -121.3 -87.5 -120.5 -87.2 -119.25 -87.05 -118 -86.9 -117 -86.9 -113.75 -86.9 -111.5 -88.05 -109.25 -89.2 -107.85 -91.15 -106.5 -93.1 -105.9 -95.75 -105.3 -98.4 -105.3 -101.35 -105.3 -107.9 -107.55 -111 -109.75 -114.05 -113.85 -114.05 -115.85 -114.05 -117.45 -113.35 -119.1 -112.65 -120.25 -111.45 -121.35 -110.2 -121.95 -108.55 -122.55 -106.9 -122.55 -105
M -117.35 -109.15
Q -116.05 -110.6 -113.95 -110.6 -112.95 -110.6 -112.15 -110.15 -111.3 -109.7 -110.65 -108.9 -110.05 -108.1 -109.7 -107.1 -109.35 -106 -109.35 -104.85 -109.35 -102.7 -110.65 -101.3 -111.95 -99.95 -114.25 -99.95 -116.35 -99.95 -117.55 -101.35 -118.7 -102.75 -118.7 -105.15 -118.7 -107.7 -117.35 -109.15
M -148.35 -99.2
Q -148.25 -99.1 -148.05 -99.1
L -147.2 -99.1 -129.15 -99.1 -128.95 -99.1
Q -128.5 -99.1 -128.5 -99.55
L -128.5 -102.75
Q -128.5 -103.2 -128.95 -103.2
L -129.15 -103.2 -147.2 -103.2 -148.05 -103.2
Q -148.25 -103.2 -148.35 -103.1 -148.45 -102.95 -148.45 -102.75
L -148.45 -99.55
Q -148.45 -99.4 -148.35 -99.2
M -103.6 -176.25
Q -103.6 -176.75 -104.05 -176.75
L -107.05 -176.75
Q -107.55 -176.75 -107.55 -176.25
L -107.55 -143.9
Q -107.55 -143.45 -107.1 -143.45
L -104.05 -143.45
Q -103.6 -143.45 -103.6 -143.9
L -103.6 -176.25
M -113.6 -176.15
Q -114.1 -176.15 -114.1 -175.7
L -114.1 -168.8 -117.85 -168.8
Q -117.75 -169.45 -117.7 -170.15 -117.65 -170.85 -117.6 -171.55 -117.6 -172.9 -118.1 -173.5 -118.7 -174.05 -120.2 -174.05
L -130.4 -174.05
Q -130.55 -174.05 -130.7 -173.95 -130.85 -173.8 -130.85 -173.65
L -130.85 -171.25
Q -130.85 -170.8 -130.4 -170.8
L -122.65 -170.8
Q -121.9 -170.8 -121.75 -170.5 -121.55 -170.25 -121.6 -169.5 -121.65 -167.8 -122.4 -165.75 -123.15 -163.7 -124.5 -161.7 -125.85 -159.7 -127.75 -157.8 -129.65 -155.95 -132 -154.45 -132.2 -154.35 -132.35 -154.05 -132.45 -153.8 -132.25 -153.5
L -130.85 -151.55
Q -130.65 -151.3 -130.4 -151.35 -130.1 -151.4 -129.8 -151.55 -125.7 -154.2 -122.8 -157.75 -119.9 -161.35 -118.55 -165.6
L -114.1 -165.6 -114.1 -160.95 -119.1 -160.95
Q -119.3 -160.95 -119.45 -160.8 -119.6 -160.7 -119.6 -160.55
L -119.6 -158.25
Q -119.6 -158.05 -119.45 -157.9 -119.3 -157.75 -119.1 -157.75
L -114.1 -157.75 -114.1 -145.15
Q -114.1 -144.65 -113.6 -144.65
L -110.75 -144.65
Q -110.3 -144.65 -110.3 -145.15
L -110.3 -175.7
Q -110.3 -176.15 -110.75 -176.15
L -113.6 -176.15
M -5 -113.7
Q -5.2 -113.65 -5.25 -113.55
L -10.6 -108.6
Q -10.8 -108.45 -10.8 -108.25 -10.8 -108.05 -10.7 -107.9
L -9.15 -106
Q -9 -105.9 -8.75 -105.9 -8.55 -105.95 -8.35 -106.1
L -5.8 -108.35 -5.8 -87.6
Q -5.8 -87.15 -5.3 -87.15
L -2.5 -87.15
Q -2.05 -87.15 -2.05 -87.6
L -2.05 -112.8
Q -2.05 -113.5 -2.15 -113.65 -2.3 -113.75 -2.9 -113.75
L -4.7 -113.75
Q -4.85 -113.75 -5 -113.7
M -36.2 -102.4
Q -36.05 -102.3 -35.9 -102.3
L -17.4 -102.3
Q -17.25 -102.3 -17.1 -102.4 -17 -102.5 -17 -102.7
L -17 -105.45
Q -17 -105.65 -17.1 -105.75 -17.25 -105.9 -17.4 -105.9
L -35.9 -105.9
Q -36.05 -105.9 -36.2 -105.75 -36.3 -105.65 -36.3 -105.45
L -36.3 -102.7
Q -36.3 -102.5 -36.2 -102.4
M -46.1 -112.8
Q -46.1 -113.5 -46.2 -113.65 -46.35 -113.75 -46.95 -113.75
L -48.75 -113.75
Q -48.9 -113.75 -49.05 -113.7 -49.25 -113.65 -49.3 -113.55
L -54.65 -108.6
Q -54.85 -108.45 -54.85 -108.25 -54.85 -108.05 -54.75 -107.9
L -53.2 -106
Q -53.05 -105.9 -52.8 -105.9 -52.6 -105.95 -52.4 -106.1
L -49.85 -108.35 -49.85 -87.6
Q -49.85 -87.15 -49.35 -87.15
L -46.55 -87.15
Q -46.1 -87.15 -46.1 -87.6
L -46.1 -112.8
M -80.3 -102.1
Q -80.4 -102 -80.4 -101.85
L -80.4 -99.1
Q -80.4 -98.95 -80.3 -98.8 -80.2 -98.65 -80 -98.65
L -72.6 -98.65 -72.6 -91.3
Q -72.6 -90.85 -72.15 -90.85
L -69.3 -90.85
Q -68.9 -90.85 -68.9 -91.3
L -68.9 -98.65 -61.5 -98.65
Q -61.1 -98.65 -61.1 -99.1
L -61.1 -101.85
Q -61.1 -102.25 -61.5 -102.25
L -68.9 -102.25 -68.9 -109.6
Q -68.9 -109.75 -69 -109.9 -69.1 -110 -69.3 -110
L -72.15 -110
Q -72.35 -110 -72.45 -109.9 -72.6 -109.75 -72.6 -109.6
L -72.6 -102.25 -80 -102.25
Q -80.2 -102.25 -80.3 -102.1
M -72.45 -144.2
Q -72.3 -144.35 -72.3 -144.55
L -72.3 -147
Q -72.3 -147.2 -72.45 -147.35 -72.65 -147.5 -72.8 -147.5
L -89.3 -147.5
Q -89.65 -147.5 -89.8 -147.6 -89.9 -147.7 -89.9 -148.05
L -89.9 -154.25
Q -89.9 -154.45 -90.1 -154.6 -90.25 -154.75 -90.45 -154.75
L -93.45 -154.75
Q -93.65 -154.75 -93.8 -154.6 -93.95 -154.45 -93.95 -154.25
L -93.95 -146.6
Q -93.95 -145.25 -93.4 -144.65 -92.85 -144.1 -91.3 -144.1
L -72.8 -144.1
Q -72.6 -144.1 -72.45 -144.2
M -80.75 -160.05
Q -80.35 -160.65 -80.9 -160.9 -81.9 -161.45 -83 -162.3 -84.15 -163.2 -85.15 -164.3 -86.2 -165.4 -87.05 -166.75 -87.9 -168.1 -88.3 -169.6 -88.05 -170.8 -87.95 -172.15 -87.8 -173.45 -87.8 -175 -87.8 -175.5 -88.25 -175.5
L -91.35 -175.7
Q -91.55 -175.7 -91.7 -175.5 -91.85 -175.3 -91.85 -175.05 -91.85 -172.25 -92.35 -170.05 -92.85 -167.8 -93.8 -166 -94.8 -164.15 -96.25 -162.7 -97.7 -161.2 -99.7 -159.85 -100 -159.65 -100.1 -159.4 -100.2 -159.15 -99.8 -158.75
L -98.4 -157.1
Q -98.2 -156.85 -97.95 -156.8 -97.7 -156.7 -97.25 -157 -94.8 -158.65 -93 -160.55 -91.15 -162.4 -90 -164.7 -88.8 -162.6 -87 -160.8 -85.15 -159.05 -83 -157.95 -82.7 -157.8 -82.5 -157.85 -82.25 -157.95 -82.1 -158.2
L -80.75 -160.05
M -73.65 -176.25
Q -73.65 -176.75 -74.1 -176.75
L -77.2 -176.75
Q -77.65 -176.75 -77.65 -176.25
L -77.65 -153.6
Q -77.65 -153.15 -77.2 -153.15
L -74.1 -153.15
Q -73.65 -153.15 -73.65 -153.6
L -73.65 -162.85 -68.9 -162.85
Q -68.7 -162.85 -68.55 -163 -68.4 -163.1 -68.4 -163.3
L -68.4 -165.8
Q -68.4 -165.95 -68.55 -166.05 -68.7 -166.2 -68.9 -166.2
L -73.65 -166.2 -73.65 -176.25
M -58.25 -175.85
Q -58.45 -175.7 -58.45 -175.45 -58.45 -172.65 -58.9 -170.5 -59.4 -168.35 -60.4 -166.6 -61.4 -164.9 -62.85 -163.5 -64.35 -162.05 -66.3 -160.75 -66.65 -160.55 -66.75 -160.3 -66.8 -160.05 -66.45 -159.65
L -65.05 -158
Q -64.8 -157.75 -64.55 -157.7 -64.3 -157.65 -63.9 -157.9 -61.45 -159.6 -59.65 -161.35 -57.85 -163.1 -56.6 -165.3 -55.3 -163.3 -53.5 -161.75 -51.75 -160.2 -49.65 -159.25 -49 -159 -48.65 -159.55
L -47.45 -161.45
Q -47.1 -162.05 -47.7 -162.3 -48.6 -162.75 -49.6 -163.45 -50.65 -164.15 -51.65 -165.05 -52.65 -166 -53.5 -167.1 -54.4 -168.2 -55 -169.5 -54.35 -172.05 -54.35 -175.35 -54.35 -175.9 -54.8 -175.9
L -57.9 -176.05
Q -58.05 -176.05 -58.25 -175.85
M -39.6 -153.65
Q -39.6 -154.95 -40.1 -155.55 -40.6 -156.1 -41.95 -156.1
L -60.35 -156.1
Q -60.55 -156.1 -60.7 -155.95 -60.85 -155.85 -60.85 -155.65
L -60.85 -153.15
Q -60.85 -152.95 -60.7 -152.85 -60.55 -152.7 -60.35 -152.7
L -44.3 -152.7
Q -43.95 -152.7 -43.8 -152.6 -43.65 -152.5 -43.65 -152.15
L -43.65 -144.1
Q -43.65 -143.9 -43.45 -143.75 -43.3 -143.6 -43.1 -143.6
L -40.1 -143.6
Q -39.9 -143.6 -39.75 -143.75 -39.6 -143.9 -39.6 -144.1
L -39.6 -153.65
M -39.6 -158.3
L -39.6 -176.25
Q -39.6 -176.75 -40.05 -176.75
L -43.15 -176.75
Q -43.35 -176.75 -43.5 -176.6 -43.65 -176.45 -43.65 -176.25
L -43.65 -158.35
Q -43.65 -158.1 -43.5 -157.95 -43.35 -157.85 -43.15 -157.85
L -40.05 -157.85
Q -39.6 -157.85 -39.6 -158.3
M -164.35 -54
Q -167.1 -54 -168.85 -52.7 -170.55 -51.4 -171.5 -49.4 -172.45 -47.4 -172.8 -45.05 -173.15 -42.65 -173.15 -40.5 -173.15 -34.1 -171 -30.55 -168.85 -27 -164.35 -27 -162.1 -27 -160.5 -27.9 -158.85 -28.8 -157.75 -30.55 -156.7 -32.25 -156.15 -34.8 -155.65 -37.3 -155.65 -40.5 -155.65 -41.95 -155.8 -43.5 -155.95 -45.05 -156.25 -46.55 -156.65 -48.05 -157.25 -49.4 -157.85 -50.75 -158.85 -51.8 -159.8 -52.8 -161.15 -53.4 -162.55 -54 -164.35 -54
M -166.35 -49.7
Q -165.5 -50.2 -164.35 -50.2 -163.25 -50.2 -162.4 -49.7 -161.5 -49.2 -160.85 -48 -160.25 -46.85 -159.9 -45 -159.55 -43.15 -159.55 -40.5 -159.55 -37.8 -159.9 -35.95 -160.25 -34.1 -160.85 -32.95 -161.5 -31.8 -162.4 -31.25 -163.25 -30.75 -164.35 -30.75 -165.5 -30.75 -166.35 -31.25 -167.2 -31.8 -167.85 -32.95 -168.5 -34.1 -168.8 -35.95 -169.15 -37.8 -169.15 -40.5 -169.15 -43.15 -168.8 -45 -168.5 -46.85 -167.85 -48 -167.2 -49.2 -166.35 -49.7
M -185.5 -54
Q -188.25 -54 -190 -52.7 -191.7 -51.4 -192.65 -49.4 -193.6 -47.4 -193.95 -45.05 -194.3 -42.65 -194.3 -40.5 -194.3 -34.1 -192.15 -30.55 -190 -27 -185.5 -27 -183.25 -27 -181.65 -27.9 -180 -28.8 -178.9 -30.55 -177.85 -32.25 -177.3 -34.8 -176.8 -37.3 -176.8 -40.5 -176.8 -41.95 -176.95 -43.5 -177.1 -45.05 -177.4 -46.55 -177.8 -48.05 -178.4 -49.4 -179 -50.75 -180 -51.8 -180.95 -52.8 -182.3 -53.4 -183.7 -54 -185.5 -54
M -187.5 -49.7
Q -186.65 -50.2 -185.5 -50.2 -184.4 -50.2 -183.55 -49.7 -182.65 -49.2 -182 -48 -181.4 -46.85 -181.05 -45 -180.7 -43.15 -180.7 -40.5 -180.7 -37.8 -181.05 -35.95 -181.4 -34.1 -182 -32.95 -182.65 -31.8 -183.55 -31.25 -184.4 -30.75 -185.5 -30.75 -186.65 -30.75 -187.5 -31.25 -188.35 -31.8 -189 -32.95 -189.65 -34.1 -189.95 -35.95 -190.3 -37.8 -190.3 -40.5 -190.3 -43.15 -189.95 -45 -189.65 -46.85 -189 -48 -188.35 -49.2 -187.5 -49.7
M -199.95 -50.4
Q -200.65 -51.7 -201.85 -52.5 -203 -53.3 -204.55 -53.7 -206.05 -54.05 -207.65 -54.05 -209.1 -54.05 -210.6 -53.75 -212.05 -53.45 -213.6 -52.9 -213.95 -52.75 -214.05 -52.55 -214.2 -52.4 -214.1 -52.2
L -213.8 -49.65
Q -213.75 -49.3 -213.55 -49.25 -213.35 -49.15 -212.95 -49.3 -212.4 -49.5 -211.7 -49.75 -211 -49.95 -210.3 -50.1 -209.6 -50.25 -208.95 -50.35 -208.35 -50.45 -207.85 -50.45 -207.1 -50.45 -206.25 -50.3 -205.45 -50.1 -204.7 -49.65 -204 -49.25 -203.55 -48.6 -203.1 -47.9 -203.1 -47 -203.1 -45.85 -203.8 -45.05 -204.5 -44.25 -205.55 -43.7 -206.55 -43.2 -207.65 -42.95 -208.7 -42.75 -209.5 -42.75
L -211.15 -42.75
Q -211.45 -42.75 -211.55 -42.65 -211.6 -42.6 -211.6 -42.3
L -211.6 -39.7
Q -211.6 -39.4 -211.55 -39.3 -211.45 -39.25 -211.15 -39.25
L -209.4 -39.25
Q -207.75 -39.25 -206.55 -38.9 -205.3 -38.55 -204.55 -38 -203.8 -37.4 -203.4 -36.65 -203.05 -35.9 -203.05 -35.1 -203.05 -32.75 -204.75 -31.6 -205.3 -31.2 -206 -30.95 -206.7 -30.7 -207.45 -30.65 -208.2 -30.55 -208.95 -30.6 -209.75 -30.6 -210.45 -30.7 -211.4 -30.75 -212.3 -31.05 -213.25 -31.3 -214.15 -31.55 -214.65 -31.75 -214.8 -31.65 -215 -31.55 -215 -31.2
L -215.35 -28.6
Q -215.35 -28.3 -215.25 -28.15 -215.1 -27.95 -214.75 -27.85 -213.45 -27.4 -211.9 -27.15 -210.4 -26.9 -208.9 -26.9 -206.85 -26.9 -205 -27.4 -203.1 -27.9 -201.8 -29 -200.45 -30.05 -199.75 -31.6 -199.05 -33.15 -199.05 -35 -199.05 -36.95 -200.2 -38.5 -201.4 -40.05 -203.7 -41.05 -202.75 -41.45 -201.9 -42.15 -201.05 -42.8 -200.45 -43.65 -199.85 -44.5 -199.5 -45.4 -199.2 -46.4 -199.2 -47.3 -199.2 -49.1 -199.95 -50.4
M -164.35 -114
Q -167.1 -114 -168.85 -112.7 -170.55 -111.4 -171.5 -109.4 -172.45 -107.4 -172.8 -105.05 -173.15 -102.65 -173.15 -100.5 -173.15 -94.1 -171 -90.55 -168.85 -87 -164.35 -87 -162.1 -87 -160.5 -87.9 -158.85 -88.8 -157.75 -90.55 -156.7 -92.25 -156.15 -94.8 -155.65 -97.3 -155.65 -100.5 -155.65 -101.95 -155.8 -103.5 -155.95 -105.05 -156.25 -106.55 -156.65 -108.05 -157.25 -109.4 -157.85 -110.75 -158.85 -111.8 -159.8 -112.8 -161.15 -113.4 -162.55 -114 -164.35 -114
M -169.15 -100.5
Q -169.15 -103.15 -168.8 -105 -168.5 -106.85 -167.85 -108 -167.2 -109.2 -166.35 -109.7 -165.5 -110.2 -164.35 -110.2 -163.25 -110.2 -162.4 -109.7 -161.5 -109.2 -160.85 -108 -160.25 -106.85 -159.9 -105 -159.55 -103.15 -159.55 -100.5 -159.55 -97.8 -159.9 -95.95 -160.25 -94.1 -160.85 -92.95 -161.5 -91.8 -162.4 -91.25 -163.25 -90.75 -164.35 -90.75 -165.5 -90.75 -166.35 -91.25 -167.2 -91.8 -167.85 -92.95 -168.5 -94.1 -168.8 -95.95 -169.15 -97.8 -169.15 -100.5
M -182.3 -113.4
Q -183.7 -114 -185.5 -114 -188.25 -114 -190 -112.7 -191.7 -111.4 -192.65 -109.4 -193.6 -107.4 -193.95 -105.05 -194.3 -102.65 -194.3 -100.5 -194.3 -94.1 -192.15 -90.55 -190 -87 -185.5 -87 -183.25 -87 -181.65 -87.9 -180 -88.8 -178.9 -90.55 -177.85 -92.25 -177.3 -94.8 -176.8 -97.3 -176.8 -100.5 -176.8 -101.95 -176.95 -103.5 -177.1 -105.05 -177.4 -106.55 -177.8 -108.05 -178.4 -109.4 -179 -110.75 -180 -111.8 -180.95 -112.8 -182.3 -113.4
M -185.5 -110.2
Q -184.4 -110.2 -183.55 -109.7 -182.65 -109.2 -182 -108 -181.4 -106.85 -181.05 -105 -180.7 -103.15 -180.7 -100.5 -180.7 -97.8 -181.05 -95.95 -181.4 -94.1 -182 -92.95 -182.65 -91.8 -183.55 -91.25 -184.4 -90.75 -185.5 -90.75 -186.65 -90.75 -187.5 -91.25 -188.35 -91.8 -189 -92.95 -189.65 -94.1 -189.95 -95.95 -190.3 -97.8 -190.3 -100.5 -190.3 -103.15 -189.95 -105 -189.65 -106.85 -189 -108 -188.35 -109.2 -187.5 -109.7 -186.65 -110.2 -185.5 -110.2
M -204.55 -113.6
Q -205.95 -114.05 -207.65 -114.05 -209.3 -114.05 -211 -113.5 -212.7 -112.95 -214.05 -112.25 -214.4 -112.05 -214.5 -111.85 -214.6 -111.7 -214.55 -111.5
L -214.05 -108.85
Q -213.95 -108.55 -213.7 -108.55 -213.4 -108.5 -213.15 -108.7 -211.55 -109.6 -210.2 -110 -208.85 -110.4 -207.4 -110.4 -205.9 -110.4 -204.9 -109.3 -203.85 -108.2 -203.85 -106.55 -203.85 -105.1 -205.25 -102.75 -206.65 -100.45 -209.55 -97
L -214.9 -90.7
Q -215.1 -90.4 -215.25 -90.15 -215.4 -89.85 -215.4 -89.6
L -215.4 -87.6
Q -215.4 -87.1 -214.75 -87.1
L -199.85 -87.1
Q -199.35 -87.1 -199.35 -87.7
L -199.35 -90.2
Q -199.35 -90.7 -199.85 -90.7
L -210.1 -90.7
Q -209.2 -91.7 -208.35 -92.75 -207.5 -93.75 -206.7 -94.7 -205.75 -95.85 -204.55 -97.3 -203.35 -98.7 -202.3 -100.25 -201.25 -101.85 -200.55 -103.45 -199.85 -105.1 -199.85 -106.65 -199.85 -108.5 -200.45 -109.9 -201.05 -111.25 -202.1 -112.2 -203.1 -113.15 -204.55 -113.6
M -396.55 -49.6
L -396.55 -52.65
Q -396.55 -53.25 -395.9 -53.25
L -379.65 -53.25
Q -379.2 -53.25 -379.2 -53.75
L -379.2 -56.05
Q -379.2 -56.5 -379.65 -56.5
L -398.1 -56.5
Q -399.4 -56.5 -400 -56 -400.6 -55.55 -400.6 -54.2
L -400.6 -48.2
Q -400.6 -47 -400.05 -46.4 -399.5 -45.75 -398.1 -45.75
L -379.35 -45.75
Q -379.2 -45.75 -379.05 -45.85 -378.95 -46 -378.95 -46.3
L -378.95 -48.6
Q -378.95 -48.85 -379.1 -48.95 -379.25 -49 -379.5 -49
L -395.9 -49
Q -396.25 -49 -396.4 -49.15 -396.55 -49.3 -396.55 -49.6
M -382.2 -89.15
Q -383.65 -89.95 -384.75 -91.05 -385.9 -92.1 -386.45 -93.3 -386.35 -93.65 -386.3 -93.95 -386.25 -94.25 -386.2 -94.6 -386.15 -94.85 -386.25 -95.05 -386.35 -95.25 -386.75 -95.3
L -389.45 -95.45
Q -389.7 -95.5 -389.9 -95.3 -390.05 -95.15 -390.1 -94.9 -390.55 -91.75 -393.3 -89.7 -396.05 -87.7 -400.7 -86.75 -400.95 -86.65 -401.05 -86.45 -401.15 -86.2 -401.05 -85.95
L -400.15 -83.95
Q -400 -83.65 -399.75 -83.55 -399.45 -83.45 -399.1 -83.5 -397.5 -83.8 -395.95 -84.35 -394.4 -84.9 -392.95 -85.65 -391.55 -86.45 -390.35 -87.45 -389.15 -88.45 -388.25 -89.6 -387.5 -88.55 -386.2 -87.55 -384.95 -86.55 -383.5 -85.8 -382 -85 -380.4 -84.45 -378.85 -83.85 -377.45 -83.75 -376.75 -83.65 -376.55 -84.15
L -375.6 -86.2
Q -375.5 -86.5 -375.65 -86.75 -375.85 -86.95 -376.05 -87 -377.5 -87.2 -379.15 -87.75 -380.75 -88.3 -382.2 -89.15
M -348.85 -55.65
Q -348.85 -56.1 -349.3 -56.1
L -351.95 -56.1
Q -352.45 -56.1 -352.45 -55.65
L -352.45 -25.3
Q -352.45 -24.8 -351.95 -24.8
L -349.3 -24.8
Q -348.85 -24.8 -348.85 -25.3
L -348.85 -40.6 -346.1 -40.6 -346.1 -23.95
Q -346.1 -23.5 -345.65 -23.5
L -342.9 -23.5
Q -342.4 -23.5 -342.4 -23.95
L -342.4 -56.25
Q -342.4 -56.75 -342.9 -56.75
L -345.65 -56.75
Q -346.1 -56.75 -346.1 -56.25
L -346.1 -43.9 -348.85 -43.9 -348.85 -55.65
M -362.85 -53.35
L -362.85 -51.4
Q -362.85 -51.15 -362.7 -51 -362.6 -50.85 -362.35 -50.85
L -360 -50.85
Q -359.5 -50.85 -359.35 -50.7 -359.15 -50.5 -359.25 -49.9 -359.65 -45.3 -361.85 -40.8 -362.65 -41.6 -363.4 -42.65 -364.2 -43.7 -364.8 -44.75 -364.35 -46.1 -364.1 -47.4 -363.85 -48.75 -363.8 -50 -363.8 -50.4 -363.8 -50.9 -363.75 -51.45 -363.75 -51.9 -363.85 -52.75 -364.3 -53.25 -364.8 -53.8 -366.15 -53.8
L -370.9 -53.8
Q -371.35 -53.8 -371.35 -53.25
L -371.35 -51.25
Q -371.35 -51.05 -371.2 -50.9 -371.05 -50.75 -370.85 -50.75
L -368.05 -50.75
Q -367.5 -50.75 -367.4 -50.6 -367.25 -50.4 -367.3 -49.8 -367.45 -46.7 -368.85 -43.45 -370.3 -40.25 -373.15 -37.25 -373.35 -37.1 -373.45 -36.85 -373.5 -36.55 -373.2 -36.3
L -371.8 -34.95
Q -371.5 -34.75 -371.25 -34.85 -370.95 -34.95 -370.75 -35.15 -369.35 -36.55 -368.25 -38.05 -367.15 -39.55 -366.35 -41.15 -365.75 -40.2 -364.95 -39.35 -364.2 -38.5 -363.5 -37.85 -364.25 -36.75 -365.05 -35.65 -365.9 -34.5 -366.85 -33.5 -367.05 -33.3 -367.05 -33.1 -367.1 -32.85 -366.85 -32.65
L -365.25 -31.25
Q -365 -31.1 -364.8 -31.15 -364.6 -31.25 -364.35 -31.45 -362.65 -33.05 -361.35 -34.9 -360.1 -36.7 -359.1 -38.65 -358.7 -38.05 -358.2 -37.4 -357.7 -36.85 -357.2 -36.3 -356.7 -35.75 -356.2 -35.3 -355.8 -34.9 -355.45 -34.7 -355.2 -34.5 -354.95 -34.55 -354.7 -34.6 -354.6 -34.75
L -353.35 -36.15
Q -353.15 -36.4 -353.1 -36.6 -353.1 -36.85 -353.35 -37.1 -353.8 -37.55 -354.35 -38.1 -354.9 -38.65 -355.45 -39.35 -356 -40.05 -356.55 -40.85 -357.1 -41.6 -357.5 -42.35 -356.7 -44.45 -356.3 -46.45 -355.9 -48.45 -355.7 -50.2 -355.65 -50.6 -355.65 -51.1 -355.6 -51.55 -355.65 -52 -355.7 -52.85 -356.15 -53.35 -356.6 -53.9 -358 -53.9
L -362.35 -53.9
Q -362.85 -53.9 -362.85 -53.35
M -405.2 -43.25
Q -405.7 -43.25 -405.7 -42.7
L -405.7 -40.55
Q -405.7 -40.05 -405.2 -40.05
L -391.95 -40.05 -391.95 -37.35 -400.25 -37.35
Q -400.4 -37.35 -400.55 -37.2 -400.7 -37.05 -400.7 -36.9
L -400.7 -34.55
Q -400.7 -34.35 -400.55 -34.25 -400.4 -34.15 -400.25 -34.15
L -383.5 -34.15
Q -383.2 -34.15 -383.1 -34.05 -383.05 -33.95 -383.05 -33.55
L -383.05 -32.6
Q -383.05 -32.25 -383.1 -32.2 -383.2 -32.15 -383.45 -32.15
L -398.3 -32.15
Q -399.65 -32.15 -400.15 -31.65 -400.6 -31.15 -400.6 -30
L -400.6 -26.05
Q -400.6 -24.9 -400.1 -24.45 -399.65 -23.95 -398.25 -23.95
L -378.75 -23.95
Q -378.65 -23.95 -378.45 -24.1 -378.25 -24.25 -378.25 -24.45
L -378.25 -26.7
Q -378.25 -26.95 -378.45 -27.05 -378.65 -27.2 -378.8 -27.2
L -396.2 -27.2
Q -396.5 -27.2 -396.6 -27.25 -396.65 -27.3 -396.65 -27.6
L -396.65 -28.75
Q -396.65 -29 -396.6 -29.1 -396.5 -29.2 -396.25 -29.2
L -381.5 -29.2
Q -380.05 -29.2 -379.6 -29.6 -379.15 -30 -379.15 -31.25
L -379.15 -35.3
Q -379.15 -36.45 -379.6 -36.9 -380.05 -37.35 -381.5 -37.35
L -387.95 -37.35 -387.95 -40.05 -374.7 -40.05
Q -374.55 -40.05 -374.35 -40.2 -374.2 -40.35 -374.2 -40.55
L -374.2 -42.7
Q -374.2 -42.9 -374.35 -43.1 -374.55 -43.25 -374.7 -43.25
L -405.2 -43.25
M -348.85 -115.65
Q -348.85 -116.1 -349.3 -116.1
L -351.95 -116.1
Q -352.45 -116.1 -352.45 -115.65
L -352.45 -85.3
Q -352.45 -84.8 -351.95 -84.8
L -349.3 -84.8
Q -348.85 -84.8 -348.85 -85.3
L -348.85 -100.6 -346.1 -100.6 -346.1 -83.95
Q -346.1 -83.5 -345.65 -83.5
L -342.9 -83.5
Q -342.4 -83.5 -342.4 -83.95
L -342.4 -116.25
Q -342.4 -116.75 -342.9 -116.75
L -345.65 -116.75
Q -346.1 -116.75 -346.1 -116.25
L -346.1 -103.9 -348.85 -103.9 -348.85 -115.65
M -370.9 -113.8
Q -371.35 -113.8 -371.35 -113.25
L -371.35 -111.25
Q -371.35 -111.05 -371.2 -110.9 -371.05 -110.75 -370.85 -110.75
L -368.05 -110.75
Q -367.5 -110.75 -367.4 -110.6 -367.25 -110.4 -367.3 -109.8 -367.45 -106.7 -368.85 -103.45 -370.3 -100.25 -373.15 -97.25 -373.35 -97.1 -373.45 -96.85 -373.5 -96.55 -373.2 -96.3
L -371.8 -94.95
Q -371.5 -94.75 -371.25 -94.85 -370.95 -94.95 -370.75 -95.15 -369.35 -96.55 -368.25 -98.05 -367.15 -99.55 -366.35 -101.15 -365.75 -100.2 -364.95 -99.35 -364.2 -98.5 -363.5 -97.85 -364.25 -96.75 -365.05 -95.65 -365.9 -94.5 -366.85 -93.5 -367.05 -93.3 -367.05 -93.1 -367.1 -92.85 -366.85 -92.65
L -365.25 -91.25
Q -365 -91.1 -364.8 -91.15 -364.6 -91.25 -364.35 -91.45 -362.65 -93.05 -361.35 -94.9 -360.1 -96.7 -359.1 -98.65 -358.7 -98.05 -358.2 -97.4 -357.7 -96.85 -357.2 -96.3 -356.7 -95.75 -356.2 -95.3 -355.8 -94.9 -355.45 -94.7 -355.2 -94.5 -354.95 -94.55 -354.7 -94.6 -354.6 -94.75
L -353.35 -96.15
Q -353.15 -96.4 -353.1 -96.6 -353.1 -96.85 -353.35 -97.1 -353.8 -97.55 -354.35 -98.1 -354.9 -98.65 -355.45 -99.35 -356 -100.05 -356.55 -100.85 -357.1 -101.6 -357.5 -102.35 -356.7 -104.45 -356.3 -106.45 -355.9 -108.45 -355.7 -110.2 -355.65 -110.6 -355.65 -111.1 -355.6 -111.55 -355.65 -112 -355.7 -112.85 -356.15 -113.35 -356.6 -113.9 -358 -113.9
L -362.35 -113.9
Q -362.85 -113.9 -362.85 -113.35
L -362.85 -111.4
Q -362.85 -111.15 -362.7 -111 -362.6 -110.85 -362.35 -110.85
L -360 -110.85
Q -359.5 -110.85 -359.35 -110.7 -359.15 -110.5 -359.25 -109.9 -359.65 -105.3 -361.85 -100.8 -362.65 -101.6 -363.4 -102.65 -364.2 -103.7 -364.8 -104.75 -364.35 -106.1 -364.1 -107.4 -363.85 -108.75 -363.8 -110 -363.8 -110.4 -363.8 -110.9 -363.75 -111.45 -363.75 -111.9 -363.85 -112.75 -364.3 -113.25 -364.8 -113.8 -366.15 -113.8
L -370.9 -113.8
M -386.3 -105.6
Q -386.45 -105.6 -386.65 -105.5 -386.8 -105.35 -386.8 -105.2
L -386.8 -102.8
Q -386.8 -102.6 -386.65 -102.45 -386.45 -102.3 -386.3 -102.3
L -381.5 -102.3 -381.5 -94.95
Q -381.5 -94.5 -381.05 -94.5
L -377.95 -94.5
Q -377.45 -94.5 -377.45 -95
L -377.45 -116.25
Q -377.45 -116.75 -377.95 -116.75
L -381.05 -116.75
Q -381.5 -116.75 -381.5 -116.25
L -381.5 -105.6 -386.3 -105.6
M -401.9 -111.05
Q -402.4 -111.05 -402.4 -110.65
L -402.4 -108.35
Q -402.4 -107.8 -401.95 -107.8
L -392.9 -107.8
Q -392.3 -107.8 -392.35 -107.7 -392.4 -107.5 -392.5 -107.3 -393.05 -106.15 -394.1 -105 -395.2 -103.8 -396.65 -102.65 -398.15 -101.5 -399.9 -100.5 -401.65 -99.45 -403.55 -98.6 -403.8 -98.5 -403.95 -98.25 -404.1 -98 -403.9 -97.75
L -402.9 -95.9
Q -402.75 -95.55 -402.45 -95.55 -402.1 -95.5 -401.95 -95.55 -399.3 -96.55 -397.1 -97.9 -394.95 -99.25 -393.15 -100.85 -392.5 -100.25 -391.65 -99.65 -390.8 -99.05 -389.9 -98.45 -389 -97.85 -388.15 -97.4 -387.3 -96.95 -386.7 -96.65 -386 -96.35 -385.65 -96.95
L -384.6 -98.65
Q -384.45 -98.95 -384.5 -99.25 -384.55 -99.5 -384.95 -99.65 -385.55 -99.9 -386.35 -100.3 -387.1 -100.65 -387.9 -101.15 -388.7 -101.6 -389.45 -102.15 -390.2 -102.7 -390.8 -103.2 -388.85 -105.4 -387.8 -107.5 -387.6 -107.9 -387.45 -108.45 -387.3 -108.95 -387.3 -109.3 -387.3 -110.25 -388 -110.65 -388.75 -111.05 -390.15 -111.05
L -401.9 -111.05
M -390.35 -113.1
Q -390.2 -113.25 -390.2 -113.5
L -390.2 -115.45
Q -390.2 -115.65 -390.4 -115.85 -390.55 -116 -390.8 -116
L -398.95 -116
Q -399.1 -116 -399.3 -115.85 -399.5 -115.75 -399.5 -115.45
L -399.5 -113.45
Q -399.5 -113.2 -399.3 -113.05 -399.1 -112.9 -398.95 -112.9
L -390.8 -112.9
Q -390.5 -112.9 -390.35 -113.1
M -391.7 -157.55
L -391.7 -151.1
Q -391.7 -150.6 -391.2 -150.6
L -388.15 -150.6
Q -387.65 -150.6 -387.65 -151.1
L -387.65 -157.55 -374.7 -157.55
Q -374.55 -157.55 -374.35 -157.75 -374.2 -157.95 -374.2 -158.1
L -374.2 -160.4
Q -374.2 -160.55 -374.35 -160.75 -374.55 -160.9 -374.7 -160.9
L -405.2 -160.9
Q -405.4 -160.9 -405.55 -160.75 -405.7 -160.6 -405.7 -160.4
L -405.7 -158.1
Q -405.7 -157.95 -405.55 -157.75 -405.4 -157.55 -405.2 -157.55
L -391.7 -157.55
M -396.95 -154.3
Q -396.95 -154.45 -397.1 -154.65 -397.3 -154.8 -397.5 -154.8
L -400.5 -154.8
Q -400.7 -154.8 -400.85 -154.65 -401 -154.45 -401 -154.3
L -401 -146.85
Q -401 -145.5 -400.45 -144.9 -399.9 -144.35 -398.35 -144.35
L -378.55 -144.35
Q -378.3 -144.35 -378.15 -144.45 -378 -144.55 -378 -144.8
L -378 -147.3
Q -378 -147.5 -378.15 -147.6 -378.35 -147.7 -378.55 -147.7
L -396.35 -147.7
Q -396.7 -147.7 -396.85 -147.8 -396.95 -147.9 -396.95 -148.3
L -396.95 -154.3
M -388.2 -174.45
Q -388.15 -174.75 -388.15 -175.1 -388.1 -175.4 -388.1 -175.8 -388.1 -176.25 -388.6 -176.25
L -391.35 -176.4
Q -391.95 -176.4 -392 -175.85 -392.4 -172.2 -394.95 -169.85 -397.55 -167.5 -402.55 -166.15 -402.8 -166.1 -402.85 -165.9 -402.9 -165.7 -402.85 -165.5
L -401.9 -163.3
Q -401.75 -162.85 -400.95 -163.1 -397.2 -163.95 -394.35 -165.85 -391.45 -167.75 -389.8 -170.35 -388.95 -169.05 -387.65 -167.9 -386.4 -166.75 -384.9 -165.8 -383.45 -164.9 -381.85 -164.25 -380.25 -163.6 -378.85 -163.35 -378.2 -163.2 -378.05 -163.7
L -377 -165.8
Q -376.9 -166 -377 -166.15 -377.1 -166.4 -377.3 -166.45 -379.05 -166.85 -380.75 -167.65 -382.5 -168.45 -383.95 -169.5 -385.4 -170.55 -386.55 -171.8 -387.7 -173.05 -388.2 -174.45
M -344.45 -176.75
L -347.6 -176.75
Q -348.05 -176.75 -348.05 -176.25
L -348.05 -165.85 -355.25 -165.85
Q -355.4 -165.85 -355.55 -165.75 -355.75 -165.6 -355.75 -165.4
L -355.75 -162.95
Q -355.75 -162.75 -355.55 -162.65 -355.4 -162.5 -355.25 -162.5
L -348.05 -162.5 -348.05 -143.95
Q -348.05 -143.5 -347.6 -143.5
L -344.45 -143.5
Q -344 -143.5 -344 -143.95
L -344 -176.25
Q -344 -176.75 -344.45 -176.75
M -359.85 -174.4
Q -359.85 -174.6 -360 -174.75 -360.1 -174.9 -360.3 -174.9
L -363.4 -175.05
Q -363.55 -175.05 -363.75 -174.85 -363.9 -174.7 -363.9 -174.5 -363.85 -171.4 -364.15 -168.75 -364.5 -166.1 -365.35 -163.55 -366.35 -160.65 -367.95 -158.15 -369.55 -155.65 -371.85 -153.55 -372.45 -152.95 -371.95 -152.5
L -370.3 -150.95
Q -369.75 -150.4 -369.05 -150.9 -368.15 -151.7 -367.15 -152.7 -366.2 -153.75 -365.3 -155 -364.45 -156.25 -363.6 -157.6 -362.8 -158.95 -362.2 -160.45 -361.75 -159.25 -361.05 -158 -360.3 -156.8 -359.4 -155.6 -358.55 -154.45 -357.55 -153.4 -356.6 -152.4 -355.75 -151.75 -355.4 -151.5 -355.1 -151.55 -354.8 -151.55 -354.6 -151.8
L -353.15 -153.6
Q -352.65 -154.3 -353.2 -154.7 -354.4 -155.65 -355.5 -156.95 -356.7 -158.3 -357.7 -159.85 -358.7 -161.4 -359.4 -163.1 -360.15 -164.8 -360.45 -166.5 -359.85 -170.1 -359.85 -174.4
M 2.05 154.85
Q 2.25 154.85 2.35 154.7 2.45 154.55 2.45 154.35
L 2.45 151.65
Q 2.45 151.5 2.35 151.35 2.25 151.2 2.05 151.2
L -10.8 151.2
Q -11.3 151.2 -11.4 151.3 -11.5 151.4 -11.55 151.8
L -11.75 164.7
Q -11.75 165.9 -10.35 165.35 -9.25 164.95 -8.05 164.7 -6.8 164.45 -5.7 164.45 -2.8 164.45 -1.55 165.8 -0.3 167.15 -0.3 169.4 -0.3 171.75 -1.85 173.1 -3.35 174.4 -5.7 174.4 -6.35 174.4 -7.05 174.35 -7.8 174.3 -8.5 174.15 -9.25 174 -9.95 173.8 -10.65 173.6 -11.15 173.3 -11.9 173 -11.9 173.6
L -11.9 176.45
Q -11.9 176.7 -11.9 176.8 -11.85 176.9 -11.65 177.1 -11.05 177.35 -10.25 177.55 -9.4 177.75 -8.6 177.85 -7.8 178 -7.05 178.05 -6.35 178.1 -6 178.1 -4 178.1 -2.15 177.5 -0.35 176.95 0.9 175.8 3.65 173.35 3.65 168.95 3.65 167.15 3 165.65 2.35 164.2 1.2 163.15 0.05 162.1 -1.45 161.6 -3 161.05 -4.75 161.05 -6.5 161.05 -7.85 161.35
L -7.7 154.85 2.05 154.85
M 23.2 154.85
Q 23.4 154.85 23.5 154.7 23.6 154.55 23.6 154.35
L 23.6 151.65
Q 23.6 151.5 23.5 151.35 23.4 151.2 23.2 151.2
L 10.35 151.2
Q 9.85 151.2 9.75 151.3 9.65 151.4 9.6 151.8
L 9.4 164.7
Q 9.4 165.9 10.8 165.35 11.9 164.95 13.1 164.7 14.35 164.45 15.45 164.45 18.35 164.45 19.6 165.8 20.85 167.15 20.85 169.4 20.85 171.75 19.3 173.1 17.8 174.4 15.45 174.4 14.8 174.4 14.1 174.35 13.35 174.3 12.65 174.15 11.9 174 11.2 173.8 10.5 173.6 10 173.3 9.25 173 9.25 173.6
L 9.25 176.45
Q 9.25 176.7 9.25 176.8 9.3 176.9 9.5 177.1 10.1 177.35 10.9 177.55 11.75 177.75 12.55 177.85 13.35 178 14.1 178.05 14.8 178.1 15.15 178.1 17.15 178.1 19 177.5 20.8 176.95 22.05 175.8 24.8 173.35 24.8 168.95 24.8 167.15 24.15 165.65 23.5 164.2 22.35 163.15 21.2 162.1 19.7 161.6 18.15 161.05 16.4 161.05 14.65 161.05 13.3 161.35
L 13.45 154.85 23.2 154.85
M 30.9 151.3
Q 30.8 151.4 30.75 151.8
L 30.55 164.7
Q 30.55 165.9 31.95 165.35 33.05 164.95 34.25 164.7 35.5 164.45 36.6 164.45 39.5 164.45 40.75 165.8 42 167.15 42 169.4 42 171.75 40.45 173.1 38.95 174.4 36.6 174.4 35.95 174.4 35.25 174.35 34.5 174.3 33.8 174.15 33.05 174 32.35 173.8 31.65 173.6 31.15 173.3 30.4 173 30.4 173.6
L 30.4 176.45
Q 30.4 176.7 30.4 176.8 30.45 176.9 30.65 177.1 31.25 177.35 32.05 177.55 32.9 177.75 33.7 177.85 34.5 178 35.25 178.05 35.95 178.1 36.3 178.1 38.3 178.1 40.15 177.5 41.95 176.95 43.2 175.8 45.95 173.35 45.95 168.95 45.95 167.15 45.3 165.65 44.65 164.2 43.5 163.15 42.35 162.1 40.85 161.6 39.3 161.05 37.55 161.05 35.8 161.05 34.45 161.35
L 34.6 154.85 44.35 154.85
Q 44.55 154.85 44.65 154.7 44.75 154.55 44.75 154.35
L 44.75 151.65
Q 44.75 151.5 44.65 151.35 44.55 151.2 44.35 151.2
L 31.5 151.2
Q 31 151.2 30.9 151.3
M 39.9 81.25
Q 39.55 81.25 39.5 81.3 39.4 81.4 39.2 81.7
L 28.35 97.95
Q 28.25 98.15 28.1 98.4 27.95 98.65 27.95 98.85
L 27.95 101.45
Q 27.95 101.75 28.05 101.8 28.15 101.9 28.5 101.9
L 39.7 101.9 39.7 107.2
Q 39.7 107.55 39.85 107.7 39.95 107.85 40.35 107.85
L 42.85 107.85
Q 43.25 107.85 43.35 107.7 43.45 107.6 43.45 107.2
L 43.45 101.9 46.7 101.9
Q 47 101.9 47.15 101.8 47.25 101.7 47.25 101.35
L 47.25 98.8
Q 47.25 98.45 47.15 98.4 47 98.3 46.7 98.3
L 43.45 98.3 43.45 81.75
Q 43.45 81.45 43.4 81.35 43.35 81.25 43.1 81.25
L 39.9 81.25
M 32.2 98.3
L 39.7 86.9 39.7 98.3 32.2 98.3
M 1.15 81.75
Q 1.15 81.45 1.1 81.35 1.05 81.25 0.8 81.25
L -2.4 81.25
Q -2.75 81.25 -2.8 81.3 -2.9 81.4 -3.1 81.7
L -13.95 97.95
Q -14.05 98.15 -14.2 98.4 -14.35 98.65 -14.35 98.85
L -14.35 101.45
Q -14.35 101.75 -14.25 101.8 -14.15 101.9 -13.8 101.9
L -2.6 101.9 -2.6 107.2
Q -2.6 107.55 -2.45 107.7 -2.35 107.85 -1.95 107.85
L 0.55 107.85
Q 0.95 107.85 1.05 107.7 1.15 107.6 1.15 107.2
L 1.15 101.9 4.4 101.9
Q 4.7 101.9 4.85 101.8 4.95 101.7 4.95 101.35
L 4.95 98.8
Q 4.95 98.45 4.85 98.4 4.7 98.3 4.4 98.3
L 1.15 98.3 1.15 81.75
M -10.1 98.3
L -2.6 86.9 -2.6 98.3 -10.1 98.3
M 18.75 81.25
Q 18.4 81.25 18.35 81.3 18.25 81.4 18.05 81.7
L 7.2 97.95
Q 7.1 98.15 6.95 98.4 6.8 98.65 6.8 98.85
L 6.8 101.45
Q 6.8 101.75 6.9 101.8 7 101.9 7.35 101.9
L 18.55 101.9 18.55 107.2
Q 18.55 107.55 18.7 107.7 18.8 107.85 19.2 107.85
L 21.7 107.85
Q 22.1 107.85 22.2 107.7 22.3 107.6 22.3 107.2
L 22.3 101.9 25.55 101.9
Q 25.85 101.9 26 101.8 26.1 101.7 26.1 101.35
L 26.1 98.8
Q 26.1 98.45 26 98.4 25.85 98.3 25.55 98.3
L 22.3 98.3 22.3 81.75
Q 22.3 81.45 22.25 81.35 22.2 81.25 21.95 81.25
L 18.75 81.25
M 18.55 98.3
L 11.05 98.3 18.55 86.9 18.55 98.3
M 0.2 22.85
Q 1.05 22.2 1.65 21.35 2.25 20.5 2.6 19.6 2.9 18.6 2.9 17.7 2.9 15.9 2.15 14.6 1.45 13.3 0.25 12.5 -0.9 11.7 -2.45 11.3 -3.95 10.95 -5.55 10.95 -7 10.95 -8.5 11.25 -9.95 11.55 -11.5 12.1 -11.85 12.25 -11.95 12.45 -12.1 12.6 -12 12.8
L -11.7 15.35
Q -11.65 15.7 -11.45 15.75 -11.25 15.85 -10.85 15.7 -10.3 15.5 -9.6 15.25 -8.9 15.05 -8.2 14.9 -7.5 14.75 -6.85 14.65 -6.25 14.55 -5.75 14.55 -5 14.55 -4.15 14.7 -3.35 14.9 -2.6 15.35 -1.9 15.75 -1.45 16.4 -1 17.1 -1 18 -1 19.15 -1.7 19.95 -2.4 20.75 -3.45 21.3 -4.45 21.8 -5.55 22.05 -6.6 22.25 -7.4 22.25
L -9.05 22.25
Q -9.35 22.25 -9.45 22.35 -9.5 22.4 -9.5 22.7
L -9.5 25.3
Q -9.5 25.6 -9.45 25.7 -9.35 25.75 -9.05 25.75
L -7.3 25.75
Q -5.65 25.75 -4.45 26.1 -3.2 26.45 -2.45 27 -1.7 27.6 -1.3 28.35 -0.95 29.1 -0.95 29.9 -0.95 32.25 -2.65 33.4 -3.2 33.8 -3.9 34.05 -4.6 34.3 -5.35 34.35 -6.1 34.45 -6.85 34.4 -7.65 34.4 -8.35 34.3 -9.3 34.25 -10.2 33.95 -11.15 33.7 -12.05 33.45 -12.55 33.25 -12.7 33.35 -12.9 33.45 -12.9 33.8
L -13.25 36.4
Q -13.25 36.7 -13.15 36.85 -13 37.05 -12.65 37.15 -11.35 37.6 -9.8 37.85 -8.3 38.1 -6.8 38.1 -4.75 38.1 -2.9 37.6 -1 37.1 0.3 36 1.65 34.95 2.35 33.4 3.05 31.85 3.05 30 3.05 28.05 1.9 26.5 0.7 24.95 -1.6 23.95 -0.65 23.55 0.2 22.85
M 21.35 22.85
Q 22.2 22.2 22.8 21.35 23.4 20.5 23.75 19.6 24.05 18.6 24.05 17.7 24.05 15.9 23.3 14.6 22.6 13.3 21.4 12.5 20.25 11.7 18.7 11.3 17.2 10.95 15.6 10.95 14.15 10.95 12.65 11.25 11.2 11.55 9.65 12.1 9.3 12.25 9.2 12.45 9.05 12.6 9.15 12.8
L 9.45 15.35
Q 9.5 15.7 9.7 15.75 9.9 15.85 10.3 15.7 10.85 15.5 11.55 15.25 12.25 15.05 12.95 14.9 13.65 14.75 14.3 14.65 14.9 14.55 15.4 14.55 16.15 14.55 17 14.7 17.8 14.9 18.55 15.35 19.25 15.75 19.7 16.4 20.15 17.1 20.15 18 20.15 19.15 19.45 19.95 18.75 20.75 17.7 21.3 16.7 21.8 15.6 22.05 14.55 22.25 13.75 22.25
L 12.1 22.25
Q 11.8 22.25 11.7 22.35 11.65 22.4 11.65 22.7
L 11.65 25.3
Q 11.65 25.6 11.7 25.7 11.8 25.75 12.1 25.75
L 13.85 25.75
Q 15.5 25.75 16.7 26.1 17.95 26.45 18.7 27 19.45 27.6 19.85 28.35 20.2 29.1 20.2 29.9 20.2 32.25 18.5 33.4 17.95 33.8 17.25 34.05 16.55 34.3 15.8 34.35 15.05 34.45 14.3 34.4 13.5 34.4 12.8 34.3 11.85 34.25 10.95 33.95 10 33.7 9.1 33.45 8.6 33.25 8.45 33.35 8.25 33.45 8.25 33.8
L 7.9 36.4
Q 7.9 36.7 8 36.85 8.15 37.05 8.5 37.15 9.8 37.6 11.35 37.85 12.85 38.1 14.35 38.1 16.4 38.1 18.25 37.6 20.15 37.1 21.45 36 22.8 34.95 23.5 33.4 24.2 31.85 24.2 30 24.2 28.05 23.05 26.5 21.85 24.95 19.55 23.95 20.5 23.55 21.35 22.85
M 41.3 18
Q 41.3 19.15 40.6 19.95 39.9 20.75 38.85 21.3 37.85 21.8 36.75 22.05 35.7 22.25 34.9 22.25
L 33.25 22.25
Q 32.95 22.25 32.85 22.35 32.8 22.4 32.8 22.7
L 32.8 25.3
Q 32.8 25.6 32.85 25.7 32.95 25.75 33.25 25.75
L 35 25.75
Q 36.65 25.75 37.85 26.1 39.1 26.45 39.85 27 40.6 27.6 41 28.35 41.35 29.1 41.35 29.9 41.35 32.25 39.65 33.4 39.1 33.8 38.4 34.05 37.7 34.3 36.95 34.35 36.2 34.45 35.45 34.4 34.65 34.4 33.95 34.3 33 34.25 32.1 33.95 31.15 33.7 30.25 33.45 29.75 33.25 29.6 33.35 29.4 33.45 29.4 33.8
L 29.05 36.4
Q 29.05 36.7 29.15 36.85 29.3 37.05 29.65 37.15 30.95 37.6 32.5 37.85 34 38.1 35.5 38.1 37.55 38.1 39.4 37.6 41.3 37.1 42.6 36 43.95 34.95 44.65 33.4 45.35 31.85 45.35 30 45.35 28.05 44.2 26.5 43 24.95 40.7 23.95 41.65 23.55 42.5 22.85 43.35 22.2 43.95 21.35 44.55 20.5 44.9 19.6 45.2 18.6 45.2 17.7 45.2 15.9 44.45 14.6 43.75 13.3 42.55 12.5 41.4 11.7 39.85 11.3 38.35 10.95 36.75 10.95 35.3 10.95 33.8 11.25 32.35 11.55 30.8 12.1 30.45 12.25 30.35 12.45 30.2 12.6 30.3 12.8
L 30.6 15.35
Q 30.65 15.7 30.85 15.75 31.05 15.85 31.45 15.7 32 15.5 32.7 15.25 33.4 15.05 34.1 14.9 34.8 14.75 35.45 14.65 36.05 14.55 36.55 14.55 37.3 14.55 38.15 14.7 38.95 14.9 39.7 15.35 40.4 15.75 40.85 16.4 41.3 17.1 41.3 18
M 1.65 -49.9
Q 1.05 -51.25 0 -52.2 -1 -53.15 -2.45 -53.6 -3.85 -54.05 -5.55 -54.05 -7.2 -54.05 -8.9 -53.5 -10.6 -52.95 -11.95 -52.25 -12.3 -52.05 -12.4 -51.85 -12.5 -51.7 -12.45 -51.5
L -11.95 -48.85
Q -11.85 -48.55 -11.6 -48.55 -11.3 -48.5 -11.05 -48.7 -9.45 -49.6 -8.1 -50 -6.75 -50.4 -5.3 -50.4 -3.8 -50.4 -2.8 -49.3 -1.75 -48.2 -1.75 -46.55 -1.75 -45.1 -3.15 -42.75 -4.55 -40.45 -7.45 -37
L -12.8 -30.7
Q -13 -30.4 -13.15 -30.15 -13.3 -29.85 -13.3 -29.6
L -13.3 -27.6
Q -13.3 -27.1 -12.65 -27.1
L 2.25 -27.1
Q 2.75 -27.1 2.75 -27.7
L 2.75 -30.2
Q 2.75 -30.7 2.25 -30.7
L -8 -30.7
Q -7.1 -31.7 -6.25 -32.75 -5.4 -33.75 -4.6 -34.7 -3.65 -35.85 -2.45 -37.3 -1.25 -38.7 -0.2 -40.25 0.85 -41.85 1.55 -43.45 2.25 -45.1 2.25 -46.65 2.25 -48.5 1.65 -49.9
M 8.75 -51.85
Q 8.65 -51.7 8.7 -51.5
L 9.2 -48.85
Q 9.3 -48.55 9.55 -48.55 9.85 -48.5 10.1 -48.7 11.7 -49.6 13.05 -50 14.4 -50.4 15.85 -50.4 17.35 -50.4 18.35 -49.3 19.4 -48.2 19.4 -46.55 19.4 -45.1 18 -42.75 16.6 -40.45 13.7 -37
L 8.35 -30.7
Q 8.15 -30.4 8 -30.15 7.85 -29.85 7.85 -29.6
L 7.85 -27.6
Q 7.85 -27.1 8.5 -27.1
L 23.4 -27.1
Q 23.9 -27.1 23.9 -27.7
L 23.9 -30.2
Q 23.9 -30.7 23.4 -30.7
L 13.15 -30.7
Q 14.05 -31.7 14.9 -32.75 15.75 -33.75 16.55 -34.7 17.5 -35.85 18.7 -37.3 19.9 -38.7 20.95 -40.25 22 -41.85 22.7 -43.45 23.4 -45.1 23.4 -46.65 23.4 -48.5 22.8 -49.9 22.2 -51.25 21.15 -52.2 20.15 -53.15 18.7 -53.6 17.3 -54.05 15.6 -54.05 13.95 -54.05 12.25 -53.5 10.55 -52.95 9.2 -52.25 8.85 -52.05 8.75 -51.85
M 43.95 -49.9
Q 43.35 -51.25 42.3 -52.2 41.3 -53.15 39.85 -53.6 38.45 -54.05 36.75 -54.05 35.1 -54.05 33.4 -53.5 31.7 -52.95 30.35 -52.25 30 -52.05 29.9 -51.85 29.8 -51.7 29.85 -51.5
L 30.35 -48.85
Q 30.45 -48.55 30.7 -48.55 31 -48.5 31.25 -48.7 32.85 -49.6 34.2 -50 35.55 -50.4 37 -50.4 38.5 -50.4 39.5 -49.3 40.55 -48.2 40.55 -46.55 40.55 -45.1 39.15 -42.75 37.75 -40.45 34.85 -37
L 29.5 -30.7
Q 29.3 -30.4 29.15 -30.15 29 -29.85 29 -29.6
L 29 -27.6
Q 29 -27.1 29.65 -27.1
L 44.55 -27.1
Q 45.05 -27.1 45.05 -27.7
L 45.05 -30.2
Q 45.05 -30.7 44.55 -30.7
L 34.3 -30.7
Q 35.2 -31.7 36.05 -32.75 36.9 -33.75 37.7 -34.7 38.65 -35.85 39.85 -37.3 41.05 -38.7 42.1 -40.25 43.15 -41.85 43.85 -43.45 44.55 -45.1 44.55 -46.65 44.55 -48.5 43.95 -49.9
M 37.3 -113.7
Q 37.1 -113.65 37.05 -113.55
L 31.7 -108.6
Q 31.5 -108.45 31.5 -108.25 31.5 -108.05 31.6 -107.9
L 33.15 -106
Q 33.3 -105.9 33.55 -105.9 33.75 -105.95 33.95 -106.1
L 36.5 -108.35 36.5 -87.6
Q 36.5 -87.15 37 -87.15
L 39.8 -87.15
Q 40.25 -87.15 40.25 -87.6
L 40.25 -112.8
Q 40.25 -113.5 40.15 -113.65 40 -113.75 39.4 -113.75
L 37.6 -113.75
Q 37.45 -113.75 37.3 -113.7
M 16.15 -113.7
Q 15.95 -113.65 15.9 -113.55
L 10.55 -108.6
Q 10.35 -108.45 10.35 -108.25 10.35 -108.05 10.45 -107.9
L 12 -106
Q 12.15 -105.9 12.4 -105.9 12.6 -105.95 12.8 -106.1
L 15.35 -108.35 15.35 -87.6
Q 15.35 -87.15 15.85 -87.15
L 18.65 -87.15
Q 19.1 -87.15 19.1 -87.6
L 19.1 -112.8
Q 19.1 -113.5 19 -113.65 18.85 -113.75 18.25 -113.75
L 16.45 -113.75
Q 16.3 -113.75 16.15 -113.7 Z"/>
</g>

<g id="FDBDFBD456_1_Layer0_0_FILL">
<path fill="#3567D7" stroke="none" d="
M -148.35 232.85
Q -148.5 233 -148.5 233.2
L -148.5 236.4
Q -148.5 236.55 -148.35 236.75 -148.25 236.85 -148.05 236.85
L -147.2 236.85 -129.15 236.85 -128.95 236.85
Q -128.5 236.85 -128.5 236.4
L -128.5 233.2
Q -128.5 232.75 -128.95 232.75
L -129.15 232.75 -147.2 232.75 -148.05 232.75
Q -148.25 232.75 -148.35 232.85
M -112.05 222.25
Q -112.15 222.35 -112.35 222.65
L -123.2 238.9
Q -123.3 239.1 -123.45 239.35 -123.6 239.6 -123.6 239.8
L -123.6 242.4
Q -123.6 242.7 -123.5 242.75 -123.4 242.85 -123.05 242.85
L -111.85 242.85 -111.85 248.15
Q -111.85 248.5 -111.7 248.65 -111.6 248.8 -111.2 248.8
L -108.7 248.8
Q -108.3 248.8 -108.2 248.65 -108.1 248.55 -108.1 248.15
L -108.1 242.85 -104.85 242.85
Q -104.55 242.85 -104.4 242.75 -104.3 242.65 -104.3 242.3
L -104.3 239.75
Q -104.3 239.4 -104.4 239.35 -104.55 239.25 -104.85 239.25
L -108.1 239.25 -108.1 222.7
Q -108.1 222.4 -108.15 222.3 -108.2 222.2 -108.45 222.2
L -111.65 222.2
Q -112 222.2 -112.05 222.25
M -111.85 239.25
L -119.35 239.25 -111.85 227.85 -111.85 239.25
M -89.45 222.55
Q -90.85 221.95 -92.65 221.95 -95.4 221.95 -97.15 223.25 -98.85 224.55 -99.8 226.55 -100.75 228.55 -101.1 230.9 -101.45 233.3 -101.45 235.45 -101.45 241.85 -99.3 245.4 -97.15 248.95 -92.65 248.95 -90.4 248.95 -88.8 248.05 -87.15 247.15 -86.05 245.4 -85 243.7 -84.45 241.15 -83.95 238.65 -83.95 235.45 -83.95 234 -84.1 232.45 -84.25 230.9 -84.55 229.4 -84.95 227.9 -85.55 226.55 -86.15 225.2 -87.15 224.15 -88.1 223.15 -89.45 222.55
M -89.15 227.95
Q -88.55 229.1 -88.2 230.95 -87.85 232.8 -87.85 235.45 -87.85 238.15 -88.2 240 -88.55 241.85 -89.15 243 -89.8 244.15 -90.7 244.7 -91.55 245.2 -92.65 245.2 -93.8 245.2 -94.65 244.7 -95.5 244.15 -96.15 243 -96.8 241.85 -97.1 240 -97.45 238.15 -97.45 235.45 -97.45 232.8 -97.1 230.95 -96.8 229.1 -96.15 227.95 -95.5 226.75 -94.65 226.25 -93.8 225.75 -92.65 225.75 -91.55 225.75 -90.7 226.25 -89.8 226.75 -89.15 227.95
M -61.1 234.1
Q -61.1 233.7 -61.5 233.7
L -68.9 233.7 -68.9 226.35
Q -68.9 226.2 -69 226.05 -69.1 225.95 -69.3 225.95
L -72.15 225.95
Q -72.35 225.95 -72.45 226.05 -72.6 226.2 -72.6 226.35
L -72.6 233.7 -80 233.7
Q -80.2 233.7 -80.3 233.85 -80.4 233.95 -80.4 234.1
L -80.4 236.85
Q -80.4 237 -80.3 237.15 -80.2 237.3 -80 237.3
L -72.6 237.3 -72.6 244.65
Q -72.6 245.1 -72.15 245.1
L -69.3 245.1
Q -68.9 245.1 -68.9 244.65
L -68.9 237.3 -61.5 237.3
Q -61.1 237.3 -61.1 236.85
L -61.1 234.1
M -40.5 243.55
Q -39.9 241.9 -39.9 240 -39.9 238 -40.5 236.4 -41.1 234.8 -42.25 233.65 -43.35 232.5 -44.9 231.9 -46.45 231.3 -48.35 231.3 -49.05 231.3 -49.75 231.5 -50.45 231.65 -51.1 232 -51.75 232.25 -52.25 232.65 -52.8 233.05 -53.1 233.5 -52.85 231.8 -52.35 230.35 -51.85 228.85 -51 227.8 -50.1 226.7 -48.85 226.1 -47.55 225.5 -45.75 225.5 -44.5 225.5 -43.45 225.6 -42.45 225.7 -41.55 226.05 -41.05 226.25 -41 225.75
L -40.9 222.95
Q -40.85 222.6 -41.15 222.5 -41.95 222.2 -43.2 222.05 -44.45 221.9 -45.45 221.9 -48.7 221.9 -50.95 223.05 -53.2 224.2 -54.55 226.15 -55.95 228.1 -56.55 230.75 -57.15 233.4 -57.15 236.35 -57.15 242.85 -54.9 246 -52.7 249.05 -48.55 249.05 -46.55 249.05 -44.95 248.35 -43.35 247.65 -42.2 246.45 -41.1 245.25 -40.5 243.55
M -51.8 243.9
Q -52.4 243.1 -52.75 242.05 -53.1 241 -53.1 239.8 -53.1 237.7 -51.8 236.3 -50.5 234.95 -48.2 234.95 -46.1 234.95 -44.9 236.35 -43.75 237.7 -43.75 240.15 -43.75 242.65 -45.05 244.15 -46.4 245.6 -48.5 245.6 -49.45 245.6 -50.35 245.15 -51.15 244.7 -51.8 243.9
M -35.9 237.35
Q -36.05 237.35 -36.2 237.45 -36.3 237.6 -36.3 237.75
L -36.3 240.55
Q -36.3 240.7 -36.2 240.85 -36.05 240.95 -35.9 240.95
L -17.4 240.95
Q -17.25 240.95 -17.1 240.85 -17 240.7 -17 240.55
L -17 237.75
Q -17 237.6 -17.1 237.45 -17.25 237.35 -17.4 237.35
L -35.9 237.35
M -35.9 230.05
Q -36.05 230.05 -36.2 230.2 -36.3 230.3 -36.3 230.5
L -36.3 233.25
Q -36.3 233.45 -36.2 233.55 -36.05 233.65 -35.9 233.65
L -17.4 233.65
Q -17.25 233.65 -17.1 233.55 -17 233.45 -17 233.25
L -17 230.5
Q -17 230.3 -17.1 230.2 -17.25 230.05 -17.4 230.05
L -35.9 230.05
M -168.85 223.25
Q -170.55 224.55 -171.5 226.55 -172.45 228.55 -172.8 230.9 -173.15 233.3 -173.15 235.45 -173.15 241.85 -171 245.4 -168.85 248.95 -164.35 248.95 -162.1 248.95 -160.5 248.05 -158.85 247.15 -157.75 245.4 -156.7 243.7 -156.15 241.15 -155.65 238.65 -155.65 235.45 -155.65 234 -155.8 232.45 -155.95 230.9 -156.25 229.4 -156.65 227.9 -157.25 226.55 -157.85 225.2 -158.85 224.15 -159.8 223.15 -161.15 222.55 -162.55 221.95 -164.35 221.95 -167.1 221.95 -168.85 223.25
M -164.35 225.75
Q -163.25 225.75 -162.4 226.25 -161.5 226.75 -160.85 227.95 -160.25 229.1 -159.9 230.95 -159.55 232.8 -159.55 235.45 -159.55 238.15 -159.9 240 -160.25 241.85 -160.85 243 -161.5 244.15 -162.4 244.7 -163.25 245.2 -164.35 245.2 -165.5 245.2 -166.35 244.7 -167.2 244.15 -167.85 243 -168.5 241.85 -168.8 240 -169.15 238.15 -169.15 235.45 -169.15 232.8 -168.8 230.95 -168.5 229.1 -167.85 227.95 -167.2 226.75 -166.35 226.25 -165.5 225.75 -164.35 225.75
M -182.3 222.55
Q -183.7 221.95 -185.5 221.95 -188.25 221.95 -190 223.25 -191.7 224.55 -192.65 226.55 -193.6 228.55 -193.95 230.9 -194.3 233.3 -194.3 235.45 -194.3 241.85 -192.15 245.4 -190 248.95 -185.5 248.95 -183.25 248.95 -181.65 248.05 -180 247.15 -178.9 245.4 -177.85 243.7 -177.3 241.15 -176.8 238.65 -176.8 235.45 -176.8 234 -176.95 232.45 -177.1 230.9 -177.4 229.4 -177.8 227.9 -178.4 226.55 -179 225.2 -180 224.15 -180.95 223.15 -182.3 222.55
M -185.5 225.75
Q -184.4 225.75 -183.55 226.25 -182.65 226.75 -182 227.95 -181.4 229.1 -181.05 230.95 -180.7 232.8 -180.7 235.45 -180.7 238.15 -181.05 240 -181.4 241.85 -182 243 -182.65 244.15 -183.55 244.7 -184.4 245.2 -185.5 245.2 -186.65 245.2 -187.5 244.7 -188.35 244.15 -189 243 -189.65 241.85 -189.95 240 -190.3 238.15 -190.3 235.45 -190.3 232.8 -189.95 230.95 -189.65 229.1 -189 227.95 -188.35 226.75 -187.5 226.25 -186.65 225.75 -185.5 225.75
M -198.9 222.3
Q -199.05 222.2 -199.65 222.2
L -214.55 222.2
Q -215.15 222.2 -215.15 222.75
L -215.15 225.2
Q -215.15 225.5 -214.95 225.65 -214.75 225.8 -214.55 225.8
L -203.35 225.8 -212.5 248.15
Q -212.65 248.55 -212.5 248.65 -212.35 248.8 -211.85 248.8
L -209 248.8
Q -208.65 248.8 -208.5 248.7 -208.4 248.55 -208.2 248.3
L -198.95 225.5
Q -198.75 225.25 -198.75 224.95
L -198.75 222.8
Q -198.75 222.45 -198.9 222.3
M 2.9 222.5
Q 2.1 222.2 0.85 222.05 -0.4 221.9 -1.4 221.9 -4.65 221.9 -6.9 223.05 -9.15 224.2 -10.5 226.15 -11.9 228.1 -12.5 230.75 -13.1 233.4 -13.1 236.35 -13.1 242.85 -10.85 246 -8.65 249.05 -4.5 249.05 -2.5 249.05 -0.9 248.35 0.7 247.65 1.85 246.45 2.95 245.25 3.55 243.55 4.15 241.9 4.15 240 4.15 238 3.55 236.4 2.95 234.8 1.8 233.65 0.7 232.5 -0.85 231.9 -2.4 231.3 -4.3 231.3 -5 231.3 -5.7 231.5 -6.4 231.65 -7.05 232 -7.7 232.25 -8.2 232.65 -8.75 233.05 -9.05 233.5 -8.8 231.8 -8.3 230.35 -7.8 228.85 -6.95 227.8 -6.05 226.7 -4.8 226.1 -3.5 225.5 -1.7 225.5 -0.45 225.5 0.6 225.6 1.6 225.7 2.5 226.05 3 226.25 3.05 225.75
L 3.15 222.95
Q 3.2 222.6 2.9 222.5
M -1 244.15
Q -2.35 245.6 -4.45 245.6 -5.4 245.6 -6.3 245.15 -7.1 244.7 -7.75 243.9 -8.35 243.1 -8.7 242.05 -9.05 241 -9.05 239.8 -9.05 237.7 -7.75 236.3 -6.45 234.95 -4.15 234.95 -2.05 234.95 -0.85 236.35 0.3 237.7 0.3 240.15 0.3 242.65 -1 244.15
M 24.05 222.5
Q 23.25 222.2 22 222.05 20.75 221.9 19.75 221.9 16.5 221.9 14.25 223.05 12 224.2 10.65 226.15 9.25 228.1 8.65 230.75 8.05 233.4 8.05 236.35 8.05 242.85 10.3 246 12.5 249.05 16.65 249.05 18.65 249.05 20.25 248.35 21.85 247.65 23 246.45 24.1 245.25 24.7 243.55 25.3 241.9 25.3 240 25.3 238 24.7 236.4 24.1 234.8 22.95 233.65 21.85 232.5 20.3 231.9 18.75 231.3 16.85 231.3 16.15 231.3 15.45 231.5 14.75 231.65 14.1 232 13.45 232.25 12.95 232.65 12.4 233.05 12.1 233.5 12.35 231.8 12.85 230.35 13.35 228.85 14.2 227.8 15.1 226.7 16.35 226.1 17.65 225.5 19.45 225.5 20.7 225.5 21.75 225.6 22.75 225.7 23.65 226.05 24.15 226.25 24.2 225.75
L 24.3 222.95
Q 24.35 222.6 24.05 222.5
M 20.15 244.15
Q 18.8 245.6 16.7 245.6 15.75 245.6 14.85 245.15 14.05 244.7 13.4 243.9 12.8 243.1 12.45 242.05 12.1 241 12.1 239.8 12.1 237.7 13.4 236.3 14.7 234.95 17 234.95 19.1 234.95 20.3 236.35 21.45 237.7 21.45 240.15 21.45 242.65 20.15 244.15
M 43.15 222.05
Q 41.9 221.9 40.9 221.9 37.65 221.9 35.4 223.05 33.15 224.2 31.8 226.15 30.4 228.1 29.8 230.75 29.2 233.4 29.2 236.35 29.2 242.85 31.45 246 33.65 249.05 37.8 249.05 39.8 249.05 41.4 248.35 43 247.65 44.15 246.45 45.25 245.25 45.85 243.55 46.45 241.9 46.45 240 46.45 238 45.85 236.4 45.25 234.8 44.1 233.65 43 232.5 41.45 231.9 39.9 231.3 38 231.3 37.3 231.3 36.6 231.5 35.9 231.65 35.25 232 34.6 232.25 34.1 232.65 33.55 233.05 33.25 233.5 33.5 231.8 34 230.35 34.5 228.85 35.35 227.8 36.25 226.7 37.5 226.1 38.8 225.5 40.6 225.5 41.85 225.5 42.9 225.6 43.9 225.7 44.8 226.05 45.3 226.25 45.35 225.75
L 45.45 222.95
Q 45.5 222.6 45.2 222.5 44.4 222.2 43.15 222.05
M 41.45 236.35
Q 42.6 237.7 42.6 240.15 42.6 242.65 41.3 244.15 39.95 245.6 37.85 245.6 36.9 245.6 36 245.15 35.2 244.7 34.55 243.9 33.95 243.1 33.6 242.05 33.25 241 33.25 239.8 33.25 237.7 34.55 236.3 35.85 234.95 38.15 234.95 40.25 234.95 41.45 236.35 Z"/>
</g>

<path id="FDBDFBD456_1_Layer2_0_1_STROKES" stroke="#86BA9E" stroke-width="3" stroke-linejoin="round" stroke-linecap="round" fill="none" d="
M -304.2 270.05
L -425.05 270.05
Q -445.05 270.05 -445.05 250.05
L -445.05 199.55 -445.05 129.55 -445.05 59.55 -445.05 -10.45 -445.05 -70.45 -445.05 -130.45 -445.05 -150 -445.05 -152.95 -445.05 -170.05
Q -445.05 -177.4 -442.35 -182.05 -437.7 -190.05 -425.05 -190.05
L -305 -190.05 -304.2 -190.05 -255.95 -190.05 -232.95 -190.05 115.1 -190.05
Q 135.1 -190.05 135.1 -170.05
L 135.1 -152.95 135.1 -130.45 135.1 -70.45 135.1 -10.45 135.1 59.55 135.1 129.55 135.1 199.55 135.1 237.1 135.1 242 135.1 250.05
Q 135.1 257.4 132.4 262.05 127.75 270.05 115.1 270.05
L -304.2 270.05 Z"/>

<path id="FDBDFBD456_1_Layer2_0_2_STROKES" stroke="#86BA9E" stroke-width="2" stroke-linejoin="round" stroke-linecap="round" fill="none" d="
M -304.2 270.05
L -304.2 200.05
M -304.2 -190.05
L -304.2 -130.45
M -304.2 -10.45
L -304.2 -70.45 -304.2 -130.45
M -304.2 -10.45
L -304.2 59.55 -304.2 129.55 -304.2 199.55"/>

<path id="FDBDFBD456_1_Layer2_0_3_STROKES" stroke="#86BA9E" stroke-width="1.5" stroke-linejoin="round" stroke-linecap="round" fill="none" d="
M -304.2 199.55
L -304.2 200.05
M -304.2 199.55
L -430.875 199.55 -445.05 199.55
M -304.2 -130.45
L 135.1 -130.45
M -304.2 -10.45
L 135.1 -10.45
M 135.1 -70.45
L -304.2 -70.45 -445.05 -70.45
M -445.05 -10.45
L -304.2 -10.45
M -304.2 59.55
L 135.1 59.55
M -445.05 -130.45
L -304.2 -130.45
M -304.2 129.55
L 135.1 129.55
M -304.2 199.55
L 135.1 199.55
M -445.05 59.55
L -304.2 59.55
M -445.05 129.55
L -304.2 129.55"/>
</defs>

<g transform="matrix( 1, 0, 0, 1, 755,195) ">
<g transform="matrix( 1, 0, 0, 1, 0,0) ">
<use xlink:href="#FDBDFBD456_1_Layer2_0_FILL"/>

<use xlink:href="#FDBDFBD456_1_Layer2_0_1_STROKES"/>

<use xlink:href="#FDBDFBD456_1_Layer2_0_2_STROKES"/>

<use xlink:href="#FDBDFBD456_1_Layer2_0_3_STROKES"/>
</g>

<g transform="matrix( 1, 0, 0, 1, 0,0) ">
<use xlink:href="#FDBDFBD456_1_Layer1_0_FILL"/>
</g>

<g transform="matrix( 1, 0, 0, 1, 0,0) ">
<use xlink:href="#FDBDFBD456_1_Layer0_0_FILL"/>
</g>
</g>
</svg>
