<?xml version="1.0" encoding="utf-8"?>
<!-- Generator: Adobe Illustrator 23.1.0, SVG Export Plug-In . SVG Version: 6.00 Build 0)  -->
<svg version="1.1" id="레이어_1" xmlns="http://www.w3.org/2000/svg" xmlns:xlink="http://www.w3.org/1999/xlink" x="0px"
	 y="0px" width="212px" height="116px" viewBox="0 0 212 116" style="enable-background:new 0 0 212 116;" xml:space="preserve">
<g>
	<g>
		<path style="fill:#E3BEA2;" d="M206.4,114.9H8.4c-3.5,0-4.5-2.9-4.5-4.5V41.1c0-0.5,0.4-0.9,0.9-0.9s0.9,0.4,0.9,0.9v69.3
			c0,0.4,0.2,2.6,2.6,2.6h197.9c0.4,0,2.6-0.2,2.6-2.6V5.6c0-0.4-0.2-2.6-2.6-2.6H8.4C8,3,5.8,3.1,5.8,5.6v4c0,0.5-0.4,0.9-0.9,0.9
			S4,10.1,4,9.6v-4C4,2,6.9,1.1,8.4,1.1h197.9c3.5,0,4.5,2.9,4.5,4.5v104.9C210.8,114,207.9,114.9,206.4,114.9z M4.9,34
			C4.4,34,4,33.6,4,33.1v-4c0-0.5,0.4-0.9,0.9-0.9s0.9,0.4,0.9,0.9v4C5.9,33.6,5.5,34,4.9,34z M4.9,22.6c-0.5,0-0.9-0.4-0.9-0.9
			v-3.9c0-0.5,0.4-0.9,0.9-0.9s0.9,0.4,0.9,0.9v3.9C5.9,22.2,5.5,22.6,4.9,22.6z"/>
	</g>
	<g>
		<path style="fill:#E3BEA2;" d="M7.3,38.2H2.6c-0.8,0-1.4-0.6-1.4-1.4s0.6-1.4,1.4-1.4h4.7c0.8,0,1.4,0.6,1.4,1.4
			S8.1,38.2,7.3,38.2z M7.3,26.7H2.6c-0.8,0-1.4-0.6-1.4-1.4s0.6-1.4,1.4-1.4h4.7c0.8,0,1.4,0.6,1.4,1.4S8.1,26.7,7.3,26.7z
			 M7.3,15.7H2.6c-0.8,0-1.4-0.6-1.4-1.4s0.6-1.4,1.4-1.4h4.7c0.8,0,1.4,0.6,1.4,1.4S8.1,15.7,7.3,15.7z"/>
	</g>
</g>
<g>
</g>
<g>
</g>
<g>
</g>
<g>
</g>
<g>
</g>
<g>
</g>
<g>
</g>
<g>
</g>
<g>
</g>
<g>
</g>
<g>
</g>
<g>
</g>
<g>
</g>
<g>
</g>
<g>
</g>
</svg>
