<?xml version="1.0" encoding="utf-8"?>
<!-- Generator: Adobe Illustrator 23.1.0, SVG Export Plug-In . SVG Version: 6.00 Build 0)  -->
<svg version="1.1" id="레이어_1" xmlns="http://www.w3.org/2000/svg" xmlns:xlink="http://www.w3.org/1999/xlink" x="0px"
	 y="0px" width="170px" height="90px" viewBox="0 0 170 90" style="enable-background:new 0 0 170 90;" xml:space="preserve">
<g>
	<path style="fill:#231F20;" d="M61.1,12.5c0,0.8-0.6,1.4-1.4,1.4c-0.8,0-1.4-0.6-1.4-1.4c0-0.8,0.6-1.4,1.4-1.4
		C60.5,11.1,61.1,11.7,61.1,12.5"/>
	<path style="fill:#231F20;" d="M142.8,26.5c0,0.8-0.6,1.4-1.4,1.4c-0.8,0-1.4-0.6-1.4-1.4c0-0.8,0.6-1.4,1.4-1.4
		C142.2,25.1,142.8,25.7,142.8,26.5"/>
	<path style="fill:#231F20;" d="M8.5,77.7c0,0.8-0.6,1.4-1.4,1.4c-0.8,0-1.4-0.6-1.4-1.4c0-0.8,0.6-1.4,1.4-1.4
		C7.8,76.3,8.5,76.9,8.5,77.7"/>
	<path style="fill:#231F20;" d="M61.1,62.2c0,0.8-0.6,1.4-1.4,1.4c-0.8,0-1.4-0.6-1.4-1.4c0-0.8,0.6-1.4,1.4-1.4
		C60.5,60.8,61.1,61.4,61.1,62.2"/>
	<path style="fill:#231F20;" d="M113.8,70.7c0,0.8-0.6,1.4-1.4,1.4c-0.8,0-1.4-0.6-1.4-1.4c0-0.8,0.6-1.4,1.4-1.4
		C113.2,69.3,113.8,69.9,113.8,70.7"/>
	<path style="fill:#231F20;" d="M166.5,77.7c0,0.8-0.6,1.4-1.4,1.4s-1.4-0.6-1.4-1.4c0-0.8,0.6-1.4,1.4-1.4S166.5,76.9,166.5,77.7"
		/>
	<path style="fill:#231F20;" d="M57.9,1.5c-0.4,0-0.7,0.1-1,0.3c-0.3,0.2-0.8,0-1.5-0.4c-0.1-0.1-0.2-0.1-0.2-0.2
		c0-0.1,0.2-0.1,0.7-0.1c0.5,0.1,1.5,0.1,3,0.1c1.5,0,2.4-0.1,2.6-0.1c0.2-0.1,0.3-0.1,0.4-0.1c0.1,0,0.2,0,0.4,0
		c0.3,0.1,0.4,0.2,0.3,0.3c-0.1,0.1-0.1,0.3-0.1,0.5l0,3c0,0.6,0,1.1-0.1,1.5c-0.1,0.4-0.2,0.5-0.4,0.5c-0.1,0-0.2-0.1-0.2-0.4
		c0-0.3-0.1-0.7-0.1-1.2V1.5L57.9,1.5z"/>
	<path style="fill:#231F20;" d="M138.2,15.9c0-0.3,0-0.5-0.2-0.5c-0.1-0.1-0.3-0.2-0.6-0.2c-0.1,0-0.2-0.1-0.3-0.2
		c-0.1-0.1,0.1-0.2,0.5-0.2c0.2,0,0.4,0,0.5,0c0.2,0,0.3,0,0.5,0.1c0.3,0,0.4,0.1,0.4,0.2c0,0.1-0.1,0.3-0.1,0.5v3.8
		c0,0.2,0,0.3,0.2,0.3c0.1,0.1,0.2,0.1,0.3,0.1h3c0.2,0,0.4,0,0.5-0.1c0.1,0,0.3-0.1,0.4-0.2c0.1-0.1,0.3-0.1,0.6-0.2
		c0.3,0,0.5,0,0.7,0.1c0.4,0.1,0.5,0.2,0.5,0.4c0,0.2-0.2,0.3-0.6,0.3h-5c-0.3,0-0.6,0-0.9-0.2c-0.3-0.1-0.4-0.4-0.4-0.8V15.9z"/>
	<path style="fill:#231F20;" d="M4.7,88.8c-0.3,0-0.6,0-0.9-0.2c-0.3-0.1-0.4-0.4-0.4-0.7v-3.3c0-0.3-0.1-0.5-0.3-0.6
		c-0.2-0.1-0.4-0.1-0.5-0.2c-0.1,0-0.2-0.1-0.2-0.1c0-0.1,0.1-0.1,0.5-0.2c0.3,0,0.6,0,0.8,0c0.2,0.1,0.4,0.1,0.6,0.1
		c0.3,0,0.9,0,1.6,0c0.8,0,1.2,0,1.2,0c0.2,0,0.4,0,0.5-0.1c0.1,0,0.2-0.1,0.4-0.2c0.1-0.1,0.3-0.1,0.6-0.1c0.3,0,0.5,0,0.7,0
		c0.4,0.1,0.5,0.2,0.5,0.4c-0.1,0.2-0.3,0.3-0.6,0.3h-5V88c0,0.2,0,0.3,0.1,0.3c0.1,0.1,0.2,0.1,0.3,0.1h2.9c0.2,0,0.3,0,0.4-0.1
		c0.1,0,0.2-0.1,0.3-0.2C8.4,88,8.6,88,8.9,88c0.3,0,0.5,0,0.7,0.1c0.4,0.1,0.5,0.2,0.5,0.4c0,0.2-0.2,0.3-0.6,0.3H4.7z"/>
	<path style="fill:#231F20;" d="M56.5,71.1c0-0.2,0-0.3-0.1-0.3c-0.1-0.1-0.2-0.1-0.4-0.2c-0.2-0.1-0.3-0.1-0.3-0.2
		c0-0.1,0.2-0.1,0.4-0.1c0.2,0,0.4,0,0.6,0c0.2,0,0.4,0.1,0.6,0.1h4.3v-2.1l-3.3,0c-0.2,0-0.3,0-0.4,0.1c-0.1,0-0.2,0-0.2,0
		c-0.1,0-0.2,0.1-0.5,0.1c-0.2,0.1-0.6-0.1-1.2-0.4c-0.1-0.1-0.2-0.2-0.1-0.2c0.1-0.1,0.2-0.1,0.5-0.1c0.3,0,0.5,0,0.7,0.1
		c0.2,0,0.4,0,0.7,0h1.8c1.1,0,1.8,0,1.9-0.1c0.1-0.1,0.2-0.1,0.4-0.1c0.1,0,0.3,0,0.5,0.1c0.2,0.1,0.3,0.2,0.2,0.3
		c-0.1,0.1-0.2,0.2-0.2,0.3l-0.2,2c0,0,0.1,0,0.2,0c0.1,0,0.2,0,0.2,0.2c0,0.1,0,0.1-0.1,0.2c-0.1,0-0.2,0-0.4,0h-4.7v1.8
		c0,0.1,0.1,0.3,0.1,0.3c0.1,0.1,0.2,0.1,0.3,0.1h2.9c0.1,0,0.3,0,0.4-0.1c0.1,0,0.3-0.1,0.4-0.2c0.1-0.1,0.3-0.1,0.5-0.1
		c0.3,0,0.5,0,0.7,0.1c0.4,0.1,0.5,0.2,0.5,0.4c-0.1,0.2-0.3,0.3-0.6,0.3h-4.8c-0.3,0-0.6,0-0.8-0.1c-0.3-0.1-0.4-0.3-0.4-0.7V71.1z
		"/>
	<path style="fill:#231F20;" d="M112,76.6c1.3,0,2,0,2.1-0.1c0.1-0.1,0.3-0.2,0.5-0.2c0.2,0,0.3,0,0.5,0.1c0.3,0.1,0.3,0.2,0.2,0.3
		S115,77,115,77.2l-0.2,3.9c0,0,0.1,0,0.3,0c0.2,0,0.2,0.1,0.2,0.2c0,0.1-0.1,0.2-0.2,0.2c-0.1,0-0.2,0-0.4,0l-5,0
		c0,0.2-0.1,0.3-0.1,0.4c-0.1,0.1-0.2,0.1-0.2,0.1c-0.1,0-0.2,0-0.2-0.2c0-0.1-0.1-0.3-0.1-0.5l-0.1-4.2c0-0.2-0.1-0.3-0.2-0.4
		c-0.1-0.1-0.3-0.1-0.5-0.2c-0.1,0-0.2-0.1-0.1-0.2c0.1-0.1,0.3-0.1,0.5-0.1c0.3,0,0.5,0,0.7,0.1c0.2,0.1,0.3,0.1,0.5,0.1
		C110,76.6,110.7,76.6,112,76.6 M109.8,81.2h4.4V77h-4.4V81.2z"/>
	<path style="fill:#231F20;" d="M162.7,88.9c0,0.2-0.2,0.3-0.3,0.3c-0.1,0-0.2-0.1-0.3-0.3c0-0.2-0.1-0.5-0.1-0.8v-3.5
		c0-0.2,0-0.4-0.2-0.4c-0.1-0.1-0.3-0.1-0.6-0.2c-0.1,0-0.1-0.1-0.1-0.1c0-0.1,0.1-0.1,0.5-0.1c0.1,0,0.3,0,0.4,0.1
		c0.1,0,0.3,0.1,0.5,0.1c0.2,0.1,0.3,0.1,0.3,0.3c0,0.1,0,0.2,0,0.4v1h4.1v-1.3c0-0.2-0.1-0.3-0.2-0.4c-0.1-0.1-0.3-0.2-0.5-0.2
		c-0.1,0-0.2-0.1-0.2-0.2c0-0.1,0.2-0.1,0.5-0.1c0.1,0,0.2,0,0.4,0c0.1,0,0.3,0.1,0.5,0.1c0.2,0.1,0.3,0.2,0.3,0.3
		c0,0.1-0.1,0.3-0.1,0.5v3.7c0,0.4,0,0.7-0.1,0.9c-0.1,0.2-0.2,0.3-0.3,0.3s-0.3-0.1-0.3-0.2c0-0.1,0-0.2,0-0.2h-4.2
		C162.7,88.6,162.7,88.7,162.7,88.9 M166.9,85.8h-4.1v2.4h4.1V85.8z"/>
</g>
<g>
</g>
<g>
</g>
<g>
</g>
<g>
</g>
<g>
</g>
<g>
</g>
<g>
</g>
<g>
</g>
<g>
</g>
<g>
</g>
<g>
</g>
<g>
</g>
<g>
</g>
<g>
</g>
<g>
</g>
</svg>
