
<svg xmlns="http://www.w3.org/2000/svg" version="1.1" xmlns:xlink="http://www.w3.org/1999/xlink" preserveAspectRatio="none" x="0px" y="0px" width="1280px" height="70px" viewBox="0 0 1280 70">
<defs>
<g id="Layer0_0_FILL">
<path fill="#FFFFFF" stroke="none" d="
M 1124 20
Q 1124 5 1109 5
L 979 5
Q 964 5 964 20
L 964 50.05
Q 964 65.05 979 65.05
L 1109 65.05
Q 1124 65.05 1124 50.05
L 1124 20 Z"/>

<path fill="#1E1E1E" stroke="none" d="
M 1143.15 19.7
Q 1143.15 21.5 1143.1 23.05 1143 24.65 1142.8 26.1 1142.55 27.55 1142.25 29 1141.9 30.4 1141.4 31.85 1140.3 35.15 1138.4 38 1136.55 40.9 1134 43.25 1133.25 43.9 1133.9 44.5
L 1135.75 46.25
Q 1136.4 46.9 1137.1 46.3 1138.2 45.4 1139.3 44.15 1140.45 42.95 1141.5 41.5 1142.55 40.1 1143.5 38.5 1144.4 36.9 1145.1 35.2 1145.65 36.5 1146.5 37.85 1147.35 39.25 1148.35 40.55 1149.35 41.9 1150.45 43 1151.55 44.1 1152.5 44.85 1152.85 45.15 1153.25 45.15 1153.55 45.1 1153.75 44.8
L 1155.45 42.75
Q 1156 42 1155.35 41.5 1154.1 40.5 1152.75 39 1151.45 37.5 1150.3 35.75 1149.15 34.05 1148.3 32.1 1147.45 30.2 1147.05 28.3 1147.4 26.4 1147.6 24.35 1147.75 22.25 1147.75 19.85 1147.75 19.6 1147.6 19.45 1147.45 19.25 1147.25 19.25
L 1143.7 19.1
Q 1143.5 19.1 1143.3 19.3 1143.15 19.5 1143.15 19.7
M 1160.75 17.15
Q 1160.5 17.15 1160.35 17.3 1160.15 17.45 1160.15 17.7
L 1160.15 54.6
Q 1160.15 54.85 1160.35 54.95 1160.5 55.15 1160.75 55.15
L 1164.25 55.15
Q 1164.8 55.15 1164.8 54.6
L 1164.8 17.7
Q 1164.8 17.15 1164.25 17.15
L 1160.75 17.15 Z"/>
</g>

<path id="Layer0_0_1_STROKES" stroke="#DBDBDB" stroke-width="3" stroke-linejoin="round" stroke-linecap="round" fill="none" d="
M 979 5
L 1109 5
Q 1124 5 1124 20
L 1124 50.05
Q 1124 65.05 1109 65.05
L 979 65.05
Q 964 65.05 964 50.05
L 964 20
Q 964 5 979 5 Z"/>
</defs>

<g transform="matrix( 1, 0, 0, 1, 0,0) ">
<use xlink:href="#Layer0_0_FILL"/>

<use xlink:href="#Layer0_0_1_STROKES"/>
</g>
</svg>
