<?xml version="1.0" encoding="utf-8"?>
<!-- Generator: Adobe Illustrator 24.2.3, SVG Export Plug-In . SVG Version: 6.00 Build 0)  -->
<svg version="1.1" id="Layer_1" xmlns="http://www.w3.org/2000/svg" xmlns:xlink="http://www.w3.org/1999/xlink" x="0px" y="0px"
	 width="630px" height="650px" viewBox="0 0 630 650" style="enable-background:new 0 0 630 650;" xml:space="preserve">
<line style="fill:none;stroke:#FFBBDF;stroke-width:5;" x1="329.9" y1="366.9" x2="329.9" y2="619.7"/>
<line style="fill:none;stroke:#FFBD7B;stroke-width:5;stroke-linecap:round;stroke-linejoin:round;" x1="329.9" y1="29.2" x2="329.9" y2="310.3"/>
<g>
	<polygon style="fill:#FFBBDF;" points="329.9,611.9 348,605.1 329.9,642.5 311.6,605.5 	"/>
	<polygon style="fill:#FFBD7B;" points="329.9,37 311.6,43.4 329.9,6.4 348.3,43.4 	"/>
	
		<line style="fill:none;stroke:#D9BBFF;stroke-width:5;stroke-linecap:round;stroke-linejoin:round;" x1="297.9" y1="351" x2="27.3" y2="351"/>
	<line style="fill:none;stroke:#D2EA88;stroke-width:5;" x1="601.7" y1="351" x2="341.5" y2="351"/>
	<polygon style="fill:#D9BBFF;" points="35.1,351 41.5,369.3 4.5,351 41.5,332.7 	"/>
	<polygon style="fill:#D2EA88;" points="593.9,351 587.5,332.7 624.5,351 587.1,369.1 	"/>
	<path style="fill:none;stroke:#17A6E5;stroke-width:5;" d="M350.2,351.2c4.3,15.1-3.9,28.5-20.5,32.4
		c-27.3,6.3-44.6-13.1-47.9-32.4c-4.7-27.8,11.8-60.5,47.9-65.3c37.2-4.9,78.5,22.8,82.5,65.3c4.1,43.4-27,90.8-82.5,97.5
		c-48.3,5.8-104-31.3-113-97.5c-8.9-65.7,41.8-122.8,113-128.5c72-5.8,146.7,45.4,147.9,128.5c1.4,98.9-61.6,159-147.9,162.7
		c-103.4,4.4-177.2-80.5-179.6-162.7c-3.5-119.2,81.2-191.4,179.6-193.1c113.6-1.9,212.2,78.3,213,193.1
		c1,149.1-108.7,223.9-213,227.8c-134.6,5-238.2-95.4-241.5-227.8c-3.7-151,103.7-252.9,241.5-257.3"/>
</g>
</svg>
