<svg xmlns="http://www.w3.org/2000/svg" xmlns:xlink="http://www.w3.org/1999/xlink" viewBox="0 0 403.23 146.61"><defs><style>.cls-1,.cls-4,.cls-7{fill:none;}.cls-2{fill:#e6e6e6;}.cls-3{fill:#fff;}.cls-4{stroke:#b0a7d1;stroke-linecap:round;}.cls-4,.cls-7{stroke-linejoin:round;}.cls-5{fill:#b0a7d1;}.cls-6{clip-path:url(#clip-path);}.cls-7{stroke:#231815;stroke-width:0.8px;}.cls-8{clip-path:url(#clip-path-2);}</style><clipPath id="clip-path" transform="translate(-0.71 -0.27)"><path class="cls-1" d="M5.67,0S0,0,0,5.67V136.06s0,5.67,5.67,5.67H178.58s5.67,0,5.67-5.67V5.67s0-5.67-5.67-5.67Z"/></clipPath><clipPath id="clip-path-2" transform="translate(-0.71 -0.27)"><path class="cls-1" d="M220.82,0s-5.67,0-5.67,5.67V136.06s0,5.67,5.67,5.67H393.73s5.67,0,5.67-5.67V5.67S399.4,0,393.73,0Z"/></clipPath></defs><title>자산 2</title><g id="레이어_2" data-name="레이어 2"><g id="레이어_1-2" data-name="레이어 1"><polygon class="cls-2" points="89.29 141.65 14.17 136.69 9.92 8.42 181.42 2.04 188.5 146.61 89.29 141.65"/><path class="cls-3" d="M2.09,1.33l180.74-.25s.62,122.74.47,129-.44,11.1-.44,11.1-161.42.34-167.31-.47-14-7.8-14-7.8Z" transform="translate(-0.71 -0.27)"/><path class="cls-3" d="M182.87,141.45h0c-1.93,0-161.51.45-167.35-.36s-13.74-7.61-14.18-8a.3.3,0,0,1-.12-.25L1.77,1.33A.31.31,0,0,1,2.08,1L182.83.77a.32.32,0,0,1,.32.31c0,.53.61,122.1.47,128.26s-.44,11.08-.44,11.13-.15,1-.31,1" transform="translate(-0.71 -0.27)"/><path class="cls-4" d="M182.87,141.45h0c-1.93,0-161.51.45-167.35-.36s-13.74-7.61-14.18-8a.3.3,0,0,1-.12-.25L1.77,1.33A.31.31,0,0,1,2.08,1L182.83.77a.32.32,0,0,1,.32.31c0,.53.61,122.1.47,128.26s-.44,11.08-.44,11.13S183,141.45,182.87,141.45Z" transform="translate(-0.71 -0.27)"/><path class="cls-3" d="M15,141.07c-5.07-.72-13.7-8-13.7-8l5.94-3s4.63,7.86,7.76,11" transform="translate(-0.71 -0.27)"/><path class="cls-5" d="M1.61,133.18c1.58,1.24,8,6.19,12.43,7.33-2.78-3-6-8.86-6.77-10.11Zm13.57,8.17h0c-5-.69-13.91-7.88-14.28-8.18a.28.28,0,0,1-.1-.24.27.27,0,0,1,.15-.21l6.36-3.1a.27.27,0,0,1,.35.11c0,.08,4.73,8.24,7.74,11.16a.26.26,0,0,1,.06.31.26.26,0,0,1-.24.15" transform="translate(-0.71 -0.27)"/><polygon class="cls-5" points="1.64 133.55 1.4 133.32 3.52 131.14 4.3 130.77 1.64 133.55"/><rect class="cls-5" x="2.38" y="132.19" width="5.95" height="0.34" transform="translate(-93.87 43.53) rotate(-45.73)"/><polygon class="cls-5" points="3.75 135.11 3.51 134.87 7.29 131 7.53 131.24 3.75 135.11"/><rect class="cls-5" x="4.69" y="134.11" width="4.86" height="0.34" transform="translate(-94.7 45.37) rotate(-45.73)"/><rect class="cls-5" x="5.87" y="135.04" width="4.31" height="0.34" transform="translate(-95.1 46.3) rotate(-45.73)"/><rect class="cls-5" x="7.07" y="135.96" width="3.74" height="0.34" transform="translate(-95.48 47.24) rotate(-45.73)"/><rect class="cls-5" x="8.31" y="136.86" width="3.16" height="0.34" transform="translate(-95.65 47.96) rotate(-45.61)"/><rect class="cls-5" x="9.57" y="137.73" width="2.56" height="0.34" transform="translate(-96.17 49.14) rotate(-45.73)"/><rect class="cls-5" x="10.88" y="138.58" width="1.93" height="0.34" transform="translate(-96.48 50.1) rotate(-45.73)"/><rect class="cls-5" x="12.25" y="139.37" width="1.27" height="0.34" transform="translate(-96.74 51.09) rotate(-45.73)"/><rect class="cls-5" x="13.73" y="140.1" width="0.52" height="0.34" transform="translate(-96.73 51.86) rotate(-45.6)"/><polygon class="cls-2" points="304.02 141.65 228.9 136.69 224.65 8.42 396.14 2.04 403.23 146.61 304.02 141.65"/><path class="cls-3" d="M216.81,1.33l180.75-.25s.61,122.74.47,129-.44,11.1-.44,11.1-161.43.34-167.32-.47-14-7.8-14-7.8Z" transform="translate(-0.71 -0.27)"/><path class="cls-3" d="M397.59,141.45h0c-1.94,0-161.51.45-167.36-.36s-13.73-7.61-14.18-8a.33.33,0,0,1-.12-.25L216.5,1.33a.31.31,0,0,1,.31-.31L397.55.77a.31.31,0,0,1,.32.31c0,.53.62,122.1.47,128.26s-.43,11.08-.44,11.13-.15,1-.31,1" transform="translate(-0.71 -0.27)"/><path class="cls-4" d="M397.59,141.45h0c-1.94,0-161.51.45-167.36-.36s-13.73-7.61-14.18-8a.33.33,0,0,1-.12-.25L216.5,1.33a.31.31,0,0,1,.31-.31L397.55.77a.31.31,0,0,1,.32.31c0,.53.62,122.1.47,128.26s-.43,11.08-.44,11.13S397.75,141.45,397.59,141.45Z" transform="translate(-0.71 -0.27)"/><path class="cls-3" d="M229.75,141.07c-5.06-.72-13.7-8-13.7-8l5.94-3s4.64,7.86,7.76,11" transform="translate(-0.71 -0.27)"/><path class="cls-5" d="M216.33,133.18c1.59,1.24,8,6.19,12.43,7.33-2.77-3-6-8.86-6.77-10.11Zm13.58,8.17h0c-5-.69-13.91-7.88-14.29-8.18a.28.28,0,0,1-.1-.24.27.27,0,0,1,.15-.21l6.37-3.1a.26.26,0,0,1,.34.11c0,.08,4.74,8.24,7.75,11.16a.28.28,0,0,1,0,.31.24.24,0,0,1-.23.15" transform="translate(-0.71 -0.27)"/><polygon class="cls-5" points="216.36 133.55 216.12 133.32 218.25 131.14 219.02 130.77 216.36 133.55"/><rect class="cls-5" x="217.1" y="132.19" width="5.95" height="0.34" transform="translate(-29.03 197.29) rotate(-45.73)"/><polygon class="cls-5" points="218.48 135.11 218.24 134.87 222.02 131 222.26 131.24 218.48 135.11"/><rect class="cls-5" x="219.41" y="134.11" width="4.86" height="0.34" transform="translate(-29.87 199.13) rotate(-45.73)"/><rect class="cls-5" x="220.59" y="135.04" width="4.31" height="0.34" transform="translate(-30.26 200.06) rotate(-45.73)"/><rect class="cls-5" x="221.8" y="135.96" width="3.74" height="0.34" transform="translate(-30.64 201) rotate(-45.73)"/><rect class="cls-5" x="223.03" y="136.86" width="3.16" height="0.34" transform="translate(-31.14 201.4) rotate(-45.61)"/><rect class="cls-5" x="224.29" y="137.73" width="2.56" height="0.34" transform="translate(-31.34 202.9) rotate(-45.73)"/><rect class="cls-5" x="225.6" y="138.58" width="1.93" height="0.34" transform="translate(-31.64 203.86) rotate(-45.73)"/><rect class="cls-5" x="226.98" y="139.37" width="1.27" height="0.34" transform="translate(-31.9 204.85) rotate(-45.73)"/><rect class="cls-5" x="228.45" y="140.1" width="0.52" height="0.34" transform="translate(-32.09 205.83) rotate(-45.72)"/><g class="cls-6"><line class="cls-7" x1="21.69" y1="124.82" x2="161.14" y2="100.23"/></g><g class="cls-8"><line class="cls-7" x1="290.94" y1="125.99" x2="226.98" y2="15.2"/></g></g></g></svg>