
<svg xmlns="http://www.w3.org/2000/svg" version="1.1" xmlns:xlink="http://www.w3.org/1999/xlink" preserveAspectRatio="none" x="0px" y="0px" width="1280px" height="720px" viewBox="0 0 1280 720">
<defs>
<g id="Layer0_0_FILL">
<path fill="#3567D7" stroke="none" d="
M -13.15 82.5
Q -12.25 83.4 -10.95 83.4 -9.7 83.4 -8.8 82.5 -7.95 81.6 -7.95 80.3 -7.95 79 -8.8 78.15 -9.7 77.25 -10.95 77.25 -12.25 77.25 -13.15 78.15 -14.05 79 -14.05 80.3 -14.05 81.6 -13.15 82.5
M -45.35 54.3
Q -45.1 54 -45.1 53.65
L -45.1 51.25
Q -45.1 50.8 -45.25 50.65 -45.4 50.5 -46.1 50.5
L -63.1 50.5
Q -63.8 50.5 -63.8 51.15
L -63.8 53.95
Q -63.8 54.3 -63.6 54.45 -63.4 54.65 -63.1 54.65
L -50.35 54.65 -60.8 80.2
Q -60.95 80.65 -60.8 80.75 -60.65 80.9 -60.05 80.9
L -56.8 80.9
Q -56.4 80.9 -56.25 80.8 -56.1 80.65 -55.9 80.35
L -45.35 54.3
M -13.15 17.5
Q -12.25 18.4 -10.95 18.4 -9.7 18.4 -8.8 17.5 -7.95 16.6 -7.95 15.3 -7.95 14 -8.8 13.15 -9.7 12.25 -10.95 12.25 -12.25 12.25 -13.15 13.15 -14.05 14 -14.05 15.3 -14.05 16.6 -13.15 17.5
M -62.55 -12.75
Q -62.95 -12.55 -63.1 -12.3 -63.2 -12.15 -63.1 -11.95
L -62.55 -8.9
Q -62.45 -8.55 -62.15 -8.5 -61.85 -8.5 -61.5 -8.7 -59.7 -9.75 -58.2 -10.2 -56.65 -10.65 -55 -10.65 -53.25 -10.65 -52.1 -9.4 -50.9 -8.15 -50.9 -6.25 -50.9 -4.55 -52.5 -1.95 -54.1 0.7 -57.45 4.65
L -63.55 11.9
Q -63.75 12.2 -63.95 12.5 -64.1 12.85 -64.1 13.15
L -64.1 15.45
Q -64.1 15.95 -63.35 15.95
L -46.3 15.95
Q -45.75 15.95 -45.75 15.25
L -45.75 12.45
Q -45.75 11.85 -46.3 11.85
L -58.05 11.85
Q -57.05 10.7 -56.05 9.55 -55.05 8.35 -54.2 7.25 -53.1 5.95 -51.7 4.35 -50.35 2.7 -49.15 0.95 -47.95 -0.85 -47.15 -2.7 -46.35 -4.55 -46.35 -6.35 -46.35 -8.45 -47.05 -10.05 -47.75 -11.65 -48.9 -12.7 -50.05 -13.75 -51.7 -14.3 -53.3 -14.85 -55.25 -14.85 -57.1 -14.85 -59.1 -14.2 -61.05 -13.55 -62.55 -12.75
M -47.6 -78.85
Q -47.6 -79.2 -47.65 -79.3 -47.7 -79.45 -48 -79.45
L -51.65 -79.45
Q -52.05 -79.45 -52.15 -79.35 -52.25 -79.25 -52.45 -78.9
L -64.85 -60.3
Q -65 -60.15 -65.15 -59.85 -65.35 -59.55 -65.35 -59.3
L -65.35 -56.3
Q -65.35 -56 -65.2 -55.95 -65.05 -55.85 -64.7 -55.85
L -51.9 -55.85 -51.9 -49.75
Q -51.9 -49.35 -51.75 -49.2 -51.6 -49.05 -51.15 -49.05
L -48.25 -49.05
Q -47.85 -49.05 -47.75 -49.2 -47.6 -49.3 -47.6 -49.75
L -47.6 -55.85 -43.9 -55.85
Q -43.55 -55.85 -43.4 -55.95 -43.25 -56.05 -43.25 -56.45
L -43.25 -59.35
Q -43.25 -59.75 -43.4 -59.85 -43.55 -59.95 -43.9 -59.95
L -47.6 -59.95 -47.6 -78.85
M -51.9 -59.95
L -60.5 -59.95 -51.9 -73 -51.9 -59.95
M -13.15 -51.8
Q -14.05 -50.95 -14.05 -49.65 -14.05 -48.35 -13.15 -47.45 -12.25 -46.55 -10.95 -46.55 -9.7 -46.55 -8.8 -47.45 -7.95 -48.35 -7.95 -49.65 -7.95 -50.95 -8.8 -51.8 -9.7 -52.7 -10.95 -52.7 -12.25 -52.7 -13.15 -51.8
M -139.4 -1.2
Q -139.55 -1.05 -139.55 -0.85
L -139.55 2.25
Q -139.55 2.45 -139.4 2.6 -139.3 2.75 -139.1 2.75
L -130.6 2.75 -130.6 11.2
Q -130.6 11.7 -130.15 11.7
L -126.85 11.7
Q -126.4 11.7 -126.4 11.2
L -126.4 2.75 -117.95 2.75
Q -117.45 2.75 -117.45 2.25
L -117.45 -0.85
Q -117.45 -1.35 -117.95 -1.35
L -126.4 -1.35 -126.4 -9.75
Q -126.4 -9.9 -126.5 -10.1 -126.65 -10.2 -126.85 -10.2
L -130.15 -10.2
Q -130.3 -10.2 -130.5 -10.1 -130.6 -9.9 -130.6 -9.75
L -130.6 -1.35 -139.1 -1.35
Q -139.3 -1.35 -139.4 -1.2
M 40.05 58.75
Q 39.65 57.05 38.95 55.5 38.25 53.95 37.1 52.75 36.05 51.6 34.45 50.9 32.9 50.25 30.85 50.25 27.65 50.25 25.7 51.7 23.75 53.2 22.65 55.45 21.55 57.75 21.15 60.45 20.8 63.2 20.8 65.65 20.8 73 23.25 77.05 25.7 81.1 30.85 81.1 33.4 81.1 35.25 80.1 37.1 79 38.35 77.05 39.6 75.1 40.2 72.2 40.8 69.3 40.8 65.65 40.8 64 40.6 62.25 40.45 60.45 40.05 58.75
M 34.85 57.05
Q 35.55 58.4 35.95 60.5 36.3 62.65 36.3 65.65 36.3 68.75 35.95 70.9 35.55 73 34.85 74.3 34.1 75.65 33.1 76.2 32.05 76.8 30.85 76.8 29.55 76.8 28.55 76.2 27.55 75.65 26.85 74.3 26.1 73 25.75 70.9 25.35 68.75 25.35 65.65 25.35 62.65 25.75 60.5 26.1 58.4 26.85 57.05 27.55 55.75 28.55 55.2 29.55 54.6 30.85 54.6 32.05 54.6 33.1 55.2 34.1 55.75 34.85 57.05
M 115.8 50.15
Q 113.85 50.15 112.15 50.7 110.45 51.25 109.2 52.25 107.95 53.25 107.2 54.65 106.45 56.05 106.45 57.75 106.45 60.05 107.85 61.85 109.25 63.65 111.65 65.05 110.45 65.65 109.35 66.35 108.25 67.05 107.45 67.95 106.65 68.85 106.1 70 105.65 71.15 105.65 72.65 105.65 74.8 106.55 76.4 107.45 78.05 108.9 79.1 110.35 80.15 112.15 80.7 114 81.25 115.8 81.25 117.75 81.25 119.55 80.7 121.45 80.15 122.85 79.1 124.25 78.05 125.1 76.4 126 74.8 126 72.65 126 71.25 125.55 70.25 125.15 69.2 124.35 68.3 123.55 67.4 122.45 66.6 121.3 65.85 119.9 65 122.5 63.2 123.75 61.45 125 59.65 125 57.65 125 55.9 124.3 54.5 123.6 53.1 122.4 52.15 121.2 51.2 119.5 50.65 117.8 50.15 115.8 50.15
M 117.6 54.4
Q 118.45 54.65 119.1 55.2 119.75 55.75 120.1 56.45 120.5 57.15 120.5 57.95 120.5 58.65 120 59.45 119.5 60.25 118.75 61 118 61.7 117.2 62.25 116.45 62.8 115.8 63.05 115.3 62.85 114.5 62.35 113.7 61.9 112.9 61.2 112.15 60.5 111.6 59.7 111 58.9 111 58.05 111 57.1 111.45 56.35 111.9 55.65 112.6 55.15 113.25 54.65 114.1 54.35 114.95 54.05 115.8 54.05 116.75 54.05 117.6 54.4
M 110.1 72.65
Q 110.1 71.4 110.7 70.5 111.3 69.6 112.15 68.95 113 68.3 114.05 67.9 115 67.45 115.8 67.25 116.8 67.6 117.8 68.2 118.8 68.8 119.65 69.5 120.45 70.25 120.95 71.05 121.45 71.9 121.45 72.65 121.45 73.7 120.95 74.55 120.45 75.4 119.65 76 118.85 76.6 117.85 76.9 116.8 77.2 115.8 77.2 114.85 77.2 113.8 76.9 112.8 76.55 111.95 75.95 111.15 75.35 110.65 74.5 110.1 73.65 110.1 72.65
M 124.3 -75.45
Q 123.6 -76.85 122.4 -77.8 121.2 -78.75 119.5 -79.3 117.8 -79.8 115.8 -79.8 113.85 -79.8 112.15 -79.25 110.45 -78.7 109.2 -77.7 107.95 -76.7 107.2 -75.3 106.45 -73.9 106.45 -72.2 106.45 -69.9 107.85 -68.1 109.25 -66.3 111.65 -64.9 110.45 -64.3 109.35 -63.6 108.25 -62.9 107.45 -62 106.65 -61.1 106.1 -59.95 105.65 -58.8 105.65 -57.3 105.65 -55.15 106.55 -53.55 107.45 -51.9 108.9 -50.85 110.35 -49.8 112.15 -49.25 114 -48.7 115.8 -48.7 117.75 -48.7 119.55 -49.25 121.45 -49.8 122.85 -50.85 124.25 -51.9 125.1 -53.55 126 -55.15 126 -57.3 126 -58.7 125.55 -59.7 125.15 -60.75 124.35 -61.65 123.55 -62.55 122.45 -63.35 121.3 -64.1 119.9 -64.95 122.5 -66.75 123.75 -68.5 125 -70.3 125 -72.3 125 -74.05 124.3 -75.45
M 115.8 -75.9
Q 116.75 -75.9 117.6 -75.55 118.45 -75.3 119.1 -74.75 119.75 -74.2 120.1 -73.5 120.5 -72.8 120.5 -72 120.5 -71.3 120 -70.5 119.5 -69.7 118.75 -68.95 118 -68.25 117.2 -67.7 116.45 -67.15 115.8 -66.9 115.3 -67.1 114.5 -67.6 113.7 -68.05 112.9 -68.75 112.15 -69.45 111.6 -70.25 111 -71.05 111 -71.9 111 -72.85 111.45 -73.6 111.9 -74.3 112.6 -74.8 113.25 -75.3 114.1 -75.6 114.95 -75.9 115.8 -75.9
M 114.05 -62.05
Q 115 -62.5 115.8 -62.7 116.8 -62.35 117.8 -61.75 118.8 -61.15 119.65 -60.45 120.45 -59.7 120.95 -58.9 121.45 -58.05 121.45 -57.3 121.45 -56.25 120.95 -55.4 120.45 -54.55 119.65 -53.95 118.85 -53.35 117.85 -53.05 116.8 -52.75 115.8 -52.75 114.85 -52.75 113.8 -53.05 112.8 -53.4 111.95 -54 111.15 -54.6 110.65 -55.45 110.1 -56.3 110.1 -57.3 110.1 -58.55 110.7 -59.45 111.3 -60.35 112.15 -61 113 -61.65 114.05 -62.05
M 20.85 -4.45
Q 20.85 -2.15 21.55 -0.35 22.2 1.45 23.5 2.75 24.8 4.05 26.6 4.75 28.35 5.45 30.5 5.45 31.25 5.45 32.05 5.25 32.85 5.05 33.6 4.7 34.35 4.35 35 3.9 35.6 3.45 35.95 2.95 35.7 4.85 35.1 6.55 34.5 8.2 33.5 9.45 32.5 10.7 31.05 11.4 29.6 12.1 27.5 12.1 26.1 12.1 24.95 12 23.75 11.9 22.7 11.45 22.15 11.25 22.05 11.8
L 21.95 15
Q 21.9 15.4 22.25 15.5 23.2 15.85 24.6 16.05 26.05 16.25 27.2 16.25 30.9 16.25 33.45 14.9 36.05 13.6 37.6 11.35 39.2 9.1 39.9 6.1 40.55 3.05 40.55 -0.3 40.55 -7.75 38 -11.3 35.45 -14.85 30.75 -14.85 28.45 -14.85 26.65 -14.05 24.8 -13.25 23.5 -11.85 22.2 -10.45 21.5 -8.55 20.85 -6.65 20.85 -4.45
M 26.6 -0.3
Q 25.25 -1.9 25.25 -4.65 25.25 -7.55 26.75 -9.2 28.3 -10.9 30.7 -10.9 31.8 -10.9 32.75 -10.35 33.7 -9.85 34.4 -8.95 35.1 -8.05 35.5 -6.85 35.9 -5.65 35.9 -4.3 35.9 -1.85 34.45 -0.25 32.95 1.3 30.35 1.3 27.9 1.3 26.6 -0.3
M 33.7 -78.35
Q 33.7 -79.15 33.55 -79.3 33.45 -79.45 32.75 -79.45
L 30.65 -79.45
Q 30.5 -79.45 30.3 -79.35 30.1 -79.3 30.05 -79.2
L 23.9 -73.55
Q 23.7 -73.35 23.7 -73.15 23.65 -72.9 23.8 -72.75
L 25.6 -70.6
Q 25.75 -70.45 26 -70.5 26.25 -70.5 26.5 -70.65
L 29.45 -73.25 29.45 -49.55
Q 29.45 -49.05 30 -49.05
L 33.2 -49.05
Q 33.7 -49.05 33.7 -49.55
L 33.7 -78.35 Z"/>
</g>
</defs>

<g transform="matrix( 1, 0, 0, 1, 875,382.5) ">
<use xlink:href="#Layer0_0_FILL"/>
</g>
</svg>
