
<svg xmlns="http://www.w3.org/2000/svg" version="1.1" xmlns:xlink="http://www.w3.org/1999/xlink" preserveAspectRatio="none" x="0px" y="0px" width="1280px" height="380px" viewBox="0 0 1280 380">
<defs>
<g id="Layer0_0_FILL">
<path fill="#3567D7" stroke="none" d="
M 1032.3 272
Q 1031.4 271.1 1030.15 271.1 1028.85 271.1 1027.95 272 1027.05 272.85 1027.05 274.15 1027.05 275.45 1027.95 276.35 1028.85 277.25 1030.15 277.25 1031.4 277.25 1032.3 276.35 1033.15 275.45 1033.15 274.15 1033.15 272.85 1032.3 272
M 1006.5 246.15
Q 1005.35 245.1 1003.7 244.55 1002.1 244 1000.15 244 998.3 244 996.3 244.65 994.35 245.3 992.85 246.1 992.45 246.3 992.3 246.55 992.2 246.7 992.3 246.9
L 992.85 249.95
Q 992.95 250.3 993.25 250.35 993.55 250.35 993.9 250.15 995.7 249.1 997.2 248.65 998.75 248.2 1000.4 248.2 1002.15 248.2 1003.3 249.45 1004.5 250.7 1004.5 252.6 1004.5 254.3 1002.9 256.9 1001.3 259.55 997.95 263.5
L 991.85 270.75
Q 991.65 271.05 991.45 271.35 991.3 271.7 991.3 272
L 991.3 274.3
Q 991.3 274.8 992.05 274.8
L 1009.1 274.8
Q 1009.65 274.8 1009.65 274.1
L 1009.65 271.3
Q 1009.65 270.7 1009.1 270.7
L 997.35 270.7
Q 998.35 269.55 999.35 268.4 1000.35 267.2 1001.2 266.1 1002.3 264.8 1003.7 263.2 1005.05 261.55 1006.25 259.8 1007.45 258 1008.25 256.15 1009.05 254.3 1009.05 252.5 1009.05 250.4 1008.35 248.8 1007.65 247.2 1006.5 246.15
M 1069.9 245.25
Q 1069.95 244.85 1069.6 244.75 1068.7 244.4 1067.25 244.2 1065.85 244 1064.7 244 1060.95 244 1058.4 245.3 1055.85 246.65 1054.25 248.9 1052.7 251.1 1052 254.15 1051.3 257.15 1051.3 260.55 1051.3 268 1053.85 271.55 1056.4 275.1 1061.1 275.1 1063.4 275.1 1065.25 274.3 1067.1 273.5 1068.4 272.05 1069.7 270.7 1070.35 268.75 1071.05 266.9 1071.05 264.7 1071.05 262.4 1070.35 260.6 1069.65 258.75 1068.35 257.45 1067.1 256.15 1065.3 255.45 1063.55 254.75 1061.35 254.75 1060.6 254.75 1059.8 255 1059 255.2 1058.25 255.55 1057.5 255.9 1056.9 256.35 1056.3 256.8 1055.95 257.3 1056.2 255.35 1056.8 253.65 1057.35 252 1058.35 250.75 1059.35 249.5 1060.8 248.8 1062.3 248.15 1064.35 248.15 1065.75 248.15 1066.95 248.25 1068.1 248.35 1069.15 248.75 1069.7 249 1069.8 248.45
L 1069.9 245.25
M 1061.2 271.1
Q 1060.1 271.1 1059.1 270.6 1058.15 270.1 1057.45 269.2 1056.75 268.3 1056.35 267.05 1055.95 265.9 1055.95 264.5 1055.95 262.05 1057.45 260.5 1058.9 258.95 1061.5 258.95 1063.95 258.95 1065.3 260.55 1066.65 262.1 1066.65 264.9 1066.65 267.75 1065.15 269.45 1063.6 271.1 1061.2 271.1
M 1004.15 175.45
Q 1004.15 174.65 1004 174.5 1003.9 174.35 1003.2 174.35
L 1001.1 174.35
Q 1000.95 174.35 1000.75 174.45 1000.55 174.5 1000.5 174.6
L 994.35 180.25
Q 994.15 180.45 994.15 180.65 994.1 180.9 994.25 181.05
L 996.05 183.2
Q 996.2 183.35 996.45 183.3 996.7 183.3 996.95 183.15
L 999.9 180.55 999.9 204.25
Q 999.9 204.75 1000.45 204.75
L 1003.65 204.75
Q 1004.15 204.75 1004.15 204.25
L 1004.15 175.45
M 1030.15 207.25
Q 1031.4 207.25 1032.3 206.35 1033.15 205.45 1033.15 204.15 1033.15 202.85 1032.3 202 1031.4 201.1 1030.15 201.1 1028.85 201.1 1027.95 202 1027.05 202.85 1027.05 204.15 1027.05 205.45 1027.95 206.35 1028.85 207.25 1030.15 207.25
M 1030.15 147.25
Q 1031.4 147.25 1032.3 146.35 1033.15 145.45 1033.15 144.15 1033.15 142.85 1032.3 142 1031.4 141.1 1030.15 141.1 1028.85 141.1 1027.95 142 1027.05 142.85 1027.05 144.15 1027.05 145.45 1027.95 146.35 1028.85 147.25 1030.15 147.25
M 1001.1 114.35
Q 1000.95 114.35 1000.75 114.45 1000.55 114.5 1000.5 114.6
L 994.35 120.25
Q 994.15 120.45 994.15 120.65 994.1 120.9 994.25 121.05
L 996.05 123.2
Q 996.2 123.35 996.45 123.3 996.7 123.3 996.95 123.15
L 999.9 120.55 999.9 144.25
Q 999.9 144.75 1000.45 144.75
L 1003.65 144.75
Q 1004.15 144.75 1004.15 144.25
L 1004.15 115.45
Q 1004.15 114.65 1004 114.5 1003.9 114.35 1003.2 114.35
L 1001.1 114.35
M 931.4 187.5
Q 931.2 187.5 931.1 187.65 930.95 187.8 930.95 188
L 930.95 191.1
Q 930.95 191.3 931.1 191.45 931.2 191.6 931.4 191.6
L 939.9 191.6 939.9 200.05
Q 939.9 200.55 940.35 200.55
L 943.65 200.55
Q 944.1 200.55 944.1 200.05
L 944.1 191.6 952.55 191.6
Q 953.05 191.6 953.05 191.1
L 953.05 188
Q 953.05 187.5 952.55 187.5
L 944.1 187.5 944.1 179.1
Q 944.1 178.95 944 178.75 943.85 178.65 943.65 178.65
L 940.35 178.65
Q 940.2 178.65 940 178.75 939.9 178.95 939.9 179.1
L 939.9 187.5 931.4 187.5
M 1052.65 176.1
Q 1052.25 176.3 1052.1 176.55 1052 176.7 1052.1 176.9
L 1052.65 179.95
Q 1052.75 180.3 1053.05 180.35 1053.35 180.35 1053.7 180.15 1055.5 179.1 1057 178.65 1058.55 178.2 1060.2 178.2 1061.95 178.2 1063.1 179.45 1064.3 180.7 1064.3 182.6 1064.3 184.3 1062.7 186.9 1061.1 189.55 1057.75 193.5
L 1051.65 200.75
Q 1051.45 201.05 1051.25 201.35 1051.1 201.7 1051.1 202
L 1051.1 204.3
Q 1051.1 204.8 1051.85 204.8
L 1068.9 204.8
Q 1069.45 204.8 1069.45 204.1
L 1069.45 201.3
Q 1069.45 200.7 1068.9 200.7
L 1057.15 200.7
Q 1058.15 199.55 1059.15 198.4 1060.15 197.2 1061 196.1 1062.1 194.8 1063.5 193.2 1064.85 191.55 1066.05 189.8 1067.25 188 1068.05 186.15 1068.85 184.3 1068.85 182.5 1068.85 180.4 1068.15 178.8 1067.45 177.2 1066.3 176.15 1065.15 175.1 1063.5 174.55 1061.9 174 1059.95 174 1058.1 174 1056.1 174.65 1054.15 175.3 1052.65 176.1
M 1050.35 133.5
Q 1050.2 133.65 1050.05 133.95 1049.85 134.25 1049.85 134.5
L 1049.85 137.5
Q 1049.85 137.8 1050 137.85 1050.15 137.95 1050.5 137.95
L 1063.3 137.95 1063.3 144.05
Q 1063.3 144.45 1063.45 144.6 1063.6 144.75 1064.05 144.75
L 1066.95 144.75
Q 1067.35 144.75 1067.45 144.6 1067.6 144.5 1067.6 144.05
L 1067.6 137.95 1071.3 137.95
Q 1071.65 137.95 1071.8 137.85 1071.95 137.75 1071.95 137.35
L 1071.95 134.45
Q 1071.95 134.05 1071.8 133.95 1071.65 133.85 1071.3 133.85
L 1067.6 133.85 1067.6 114.95
Q 1067.6 114.6 1067.55 114.5 1067.5 114.35 1067.2 114.35
L 1063.55 114.35
Q 1063.15 114.35 1063.05 114.45 1062.95 114.55 1062.75 114.9
L 1050.35 133.5
M 1063.3 133.85
L 1054.7 133.85 1063.3 120.8 1063.3 133.85 Z"/>
</g>

<path id="Layer0_0_1_STROKES" stroke="#3567D7" stroke-width="3" stroke-linejoin="round" stroke-linecap="butt" fill="none" d="
M 910.35 227.15
L 912.1 227.15 917.95 227.15 1075.95 227.15 1081.95 227.15 1083.95 227.15"/>
</defs>

<g transform="matrix( 1, 0, 0, 1, 0,0) ">
<use xlink:href="#Layer0_0_FILL"/>

<use xlink:href="#Layer0_0_1_STROKES"/>
</g>
</svg>
