<?xml version="1.0" encoding="utf-8"?>
<!-- Generator: Adobe Illustrator 23.0.0, SVG Export Plug-In . SVG Version: 6.00 Build 0)  -->
<svg version="1.1" id="Layer_1" xmlns="http://www.w3.org/2000/svg" xmlns:xlink="http://www.w3.org/1999/xlink" x="0px" y="0px"
	 width="384.8px" height="158.6px" viewBox="0 0 384.8 158.6" style="enable-background:new 0 0 384.8 158.6;" xml:space="preserve"
	>
<title>자산 1</title>
<g>
	<path style="fill:#E8C8A7;" d="M8.6,109.7c0,0-6.7,0.2-6.5,6.5l2.7,36.1c0,0,0.2,6.4,6.9,6.2l96.5-2.5c0,0,6.7-0.2,6.5-6.5
		l-2.7-36.1c0,0-0.2-6.4-6.9-6.2L8.6,109.7z"/>
	<path style="fill:#FFFFFF;" d="M9,100.6c0,0-8.5,0-8.5,8.5v37.6c0,0,0,8.5,8.5,8.5h94.7c0,0,8.5,0,8.5-8.5v-37.6c0,0,0-8.5-8.5-8.5
		H9z"/>
	<path style="fill:none;stroke:#E8C8A7;stroke-linecap:round;stroke-linejoin:round;" d="M9,100.6c0,0-8.5,0-8.5,8.5v37.6
		c0,0,0,8.5,8.5,8.5h94.7c0,0,8.5,0,8.5-8.5v-37.6c0,0,0-8.5-8.5-8.5H9z"/>
	<path style="fill:#E8C8A7;" d="M143.2,109.7c0,0-6.7,0.2-6.5,6.5l2.7,36.1c0,0,0.2,6.4,6.9,6.2l96.5-2.5c0,0,6.7-0.2,6.5-6.5
		l-2.7-36.1c0,0-0.2-6.4-6.9-6.2L143.2,109.7z"/>
	<path style="fill:#FFFFFF;" d="M143.6,100.6c0,0-8.5,0-8.5,8.5v37.6c0,0,0,8.5,8.5,8.5h94.7c0,0,8.5,0,8.5-8.5v-37.6
		c0,0,0-8.5-8.5-8.5H143.6z"/>
	<path style="fill:none;stroke:#E8C8A7;stroke-linecap:round;stroke-linejoin:round;" d="M143.6,100.6c0,0-8.5,0-8.5,8.5v37.6
		c0,0,0,8.5,8.5,8.5h94.7c0,0,8.5,0,8.5-8.5v-37.6c0,0,0-8.5-8.5-8.5H143.6z"/>
	<path style="fill:#E8C8A7;" d="M278.6,109.7c0,0-6.7,0.2-6.5,6.5l2.7,36.1c0,0,0.2,6.4,6.9,6.2l96.5-2.5c0,0,6.7-0.2,6.5-6.5
		l-2.7-36.1c0,0-0.2-6.4-6.9-6.2L278.6,109.7z"/>
	<path style="fill:#FFFFFF;" d="M279,100.6c0,0-8.5,0-8.5,8.5v37.6c0,0,0,8.5,8.5,8.5h94.7c0,0,8.5,0,8.5-8.5v-37.6
		c0,0,0-8.5-8.5-8.5H279z"/>
	<path style="fill:none;stroke:#E8C8A7;stroke-linecap:round;stroke-linejoin:round;" d="M279,100.6c0,0-8.5,0-8.5,8.5v37.6
		c0,0,0,8.5,8.5,8.5h94.7c0,0,8.5,0,8.5-8.5v-37.6c0,0,0-8.5-8.5-8.5H279z"/>
	<path style="fill:#E8C8A7;" d="M6.3,8.3c0,0-5,0.2-4.8,7.1l2.1,66.4c0,0,0.1,6.9,5.1,6.8L110,86c0,0,5-0.2,4.8-7.1l-2.1-66.4
		c0,0-0.1-6.9-5.1-6.8L6.3,8.3z"/>
	<path style="fill:#E8C8A7;" d="M140.9,8.3c0,0-5,0.2-4.8,7.1l2.1,66.4c0,0,0.1,6.9,5.1,6.8L244.6,86c0,0,5-0.2,4.9-7.1l-2.1-66.4
		c0,0-0.1-6.9-5.1-6.8L140.9,8.3z"/>
	<path style="fill:#E8C8A7;" d="M276.3,8.3c0,0-5,0.2-4.8,7.1l2.1,66.4c0,0,0.1,6.9,5.1,6.8L380,86c0,0,5-0.2,4.8-7.1l-2.1-66.4
		c0,0-0.1-6.9-5.1-6.8L276.3,8.3z"/>
	<path style="fill:#FFF9EB;" d="M9,0.5c0,0-8.5,0-8.5,8.5v67.6c0,0,0,8.5,8.5,8.5h95.4c0,0,8.5,0,8.5-8.5V9c0,0,0-8.5-8.5-8.5H9z"/>
	<path style="fill:none;stroke:#E8C8A7;stroke-linecap:round;stroke-linejoin:round;" d="M9,0.5c0,0-8.5,0-8.5,8.5v67.6
		c0,0,0,8.5,8.5,8.5h95.4c0,0,8.5,0,8.5-8.5V9c0,0,0-8.5-8.5-8.5H9z"/>
	<path style="fill:#FFF9EB;" d="M143.6,0.5c0,0-8.5,0-8.5,8.5v67.6c0,0,0,8.5,8.5,8.5H239c0,0,8.5,0,8.5-8.5V9c0,0,0-8.5-8.5-8.5
		H143.6z"/>
	<path style="fill:none;stroke:#E8C8A7;stroke-linecap:round;stroke-linejoin:round;" d="M143.6,0.5c0,0-8.5,0-8.5,8.5v67.6
		c0,0,0,8.5,8.5,8.5H239c0,0,8.5,0,8.5-8.5V9c0,0,0-8.5-8.5-8.5H143.6z"/>
	<path style="fill:#FFF9EB;" d="M279,0.5c0,0-8.5,0-8.5,8.5v67.6c0,0,0,8.5,8.5,8.5h95.4c0,0,8.5,0,8.5-8.5V9c0,0,0-8.5-8.5-8.5H279
		z"/>
	<path style="fill:none;stroke:#E8C8A7;stroke-linecap:round;stroke-linejoin:round;" d="M279,0.5c0,0-8.5,0-8.5,8.5v67.6
		c0,0,0,8.5,8.5,8.5h95.4c0,0,8.5,0,8.5-8.5V9c0,0,0-8.5-8.5-8.5H279z"/>
	
		<line style="fill:none;stroke:#E8C8A7;stroke-width:1.7;stroke-linecap:round;stroke-linejoin:round;" x1="55.3" y1="87" x2="55.3" y2="101.1"/>
	<path style="fill:#FFFFFF;" d="M55.2,88.5c-1.3-0.1-2.4-1.2-2.3-2.6c0.1-1.3,1.2-2.4,2.6-2.3c1.3,0.1,2.4,1.2,2.3,2.6c0,0,0,0,0,0
		C57.6,87.5,56.5,88.5,55.2,88.5"/>
	<path style="fill:none;stroke:#E8C8A7;stroke-width:1.7;stroke-linecap:round;stroke-linejoin:round;" d="M55.2,88.5
		c-1.3-0.1-2.4-1.2-2.3-2.6c0.1-1.3,1.2-2.4,2.6-2.3c1.3,0.1,2.4,1.2,2.3,2.6c0,0,0,0,0,0C57.6,87.5,56.5,88.5,55.2,88.5z"/>
	<path style="fill:#FFFFFF;" d="M55.2,103.2c-1.3-0.1-2.4-1.2-2.3-2.6c0.1-1.3,1.2-2.4,2.6-2.3c1.3,0.1,2.4,1.2,2.3,2.6c0,0,0,0,0,0
		C57.6,102.2,56.5,103.2,55.2,103.2"/>
	<path style="fill:none;stroke:#E8C8A7;stroke-width:1.7;stroke-linecap:round;stroke-linejoin:round;" d="M55.2,103.2
		c-1.3-0.1-2.4-1.2-2.3-2.6c0.1-1.3,1.2-2.4,2.6-2.3c1.3,0.1,2.4,1.2,2.3,2.6c0,0,0,0,0,0C57.6,102.2,56.5,103.2,55.2,103.2z"/>
	
		<line style="fill:none;stroke:#E8C8A7;stroke-width:1.7;stroke-linecap:round;stroke-linejoin:round;" x1="189.9" y1="87" x2="189.9" y2="101.1"/>
	<path style="fill:#FFFFFF;" d="M189.8,88.5c-1.3-0.1-2.4-1.2-2.3-2.6c0.1-1.3,1.2-2.4,2.6-2.3c1.3,0.1,2.4,1.2,2.3,2.6c0,0,0,0,0,0
		C192.3,87.5,191.1,88.5,189.8,88.5"/>
	<path style="fill:none;stroke:#E8C8A7;stroke-width:1.7;stroke-linecap:round;stroke-linejoin:round;" d="M189.8,88.5
		c-1.3-0.1-2.4-1.2-2.3-2.6c0.1-1.3,1.2-2.4,2.6-2.3c1.3,0.1,2.4,1.2,2.3,2.6c0,0,0,0,0,0C192.3,87.5,191.1,88.5,189.8,88.5z"/>
	<path style="fill:#FFFFFF;" d="M189.8,103.2c-1.3-0.1-2.4-1.2-2.3-2.6c0.1-1.3,1.2-2.4,2.6-2.3c1.3,0.1,2.4,1.2,2.3,2.6
		c0,0,0,0,0,0C192.3,102.2,191.1,103.2,189.8,103.2"/>
	<path style="fill:none;stroke:#E8C8A7;stroke-width:1.7;stroke-linecap:round;stroke-linejoin:round;" d="M189.8,103.2
		c-1.3-0.1-2.4-1.2-2.3-2.6c0.1-1.3,1.2-2.4,2.6-2.3c1.3,0.1,2.4,1.2,2.3,2.6c0,0,0,0,0,0C192.3,102.2,191.1,103.2,189.8,103.2z"/>
	
		<line style="fill:none;stroke:#E8C8A7;stroke-width:1.7;stroke-linecap:round;stroke-linejoin:round;" x1="325.3" y1="87" x2="325.3" y2="101.1"/>
	<path style="fill:#FFFFFF;" d="M325.2,88.5c-1.3-0.1-2.4-1.2-2.3-2.6c0.1-1.3,1.2-2.4,2.6-2.3c1.3,0.1,2.4,1.2,2.3,2.6c0,0,0,0,0,0
		C327.6,87.5,326.5,88.5,325.2,88.5"/>
	<path style="fill:none;stroke:#E8C8A7;stroke-width:1.7;stroke-linecap:round;stroke-linejoin:round;" d="M325.2,88.5
		c-1.3-0.1-2.4-1.2-2.3-2.6c0.1-1.3,1.2-2.4,2.6-2.3c1.3,0.1,2.4,1.2,2.3,2.6c0,0,0,0,0,0C327.6,87.5,326.5,88.5,325.2,88.5z"/>
	<path style="fill:#FFFFFF;" d="M325.2,103.2c-1.3-0.1-2.4-1.2-2.3-2.6c0.1-1.3,1.2-2.4,2.6-2.3c1.3,0.1,2.4,1.2,2.3,2.6
		c0,0,0,0,0,0C327.6,102.2,326.5,103.2,325.2,103.2"/>
	<path style="fill:none;stroke:#E8C8A7;stroke-width:1.7;stroke-linecap:round;stroke-linejoin:round;" d="M325.2,103.2
		c-1.3-0.1-2.4-1.2-2.3-2.6c0.1-1.3,1.2-2.4,2.6-2.3c1.3,0.1,2.4,1.2,2.3,2.6c0,0,0,0,0,0C327.6,102.2,326.5,103.2,325.2,103.2z"/>
	<g>
		<defs>
			<rect id="SVGID_1_" x="38.2" y="12.4" width="36.9" height="60.8"/>
		</defs>
		<clipPath id="SVGID_2_">
			<use xlink:href="#SVGID_1_"  style="overflow:visible;"/>
		</clipPath>
		<g style="clip-path:url(#SVGID_2_);">
			<polygon style="fill:none;stroke:#231815;stroke-width:0.8;stroke-linejoin:bevel;" points="56.7,12.5 74.8,72.7 38.6,72.7 			
				"/>
		</g>
	</g>
	<g>
		<defs>
			<rect id="SVGID_3_" x="290.9" y="17.5" width="71.6" height="50.5"/>
		</defs>
		<clipPath id="SVGID_4_">
			<use xlink:href="#SVGID_3_"  style="overflow:visible;"/>
		</clipPath>
		<g style="clip-path:url(#SVGID_4_);">
			<polygon style="fill:none;stroke:#231815;stroke-width:0.8;stroke-linejoin:bevel;" points="291.1,17.9 344,17.9 362.1,67.7 			
				"/>
		</g>
	</g>
	<g>
		<defs>
			<rect id="SVGID_5_" x="161.1" y="5.7" width="70.5" height="64.9"/>
		</defs>
		<clipPath id="SVGID_6_">
			<use xlink:href="#SVGID_5_"  style="overflow:visible;"/>
		</clipPath>
		<g style="clip-path:url(#SVGID_6_);">
			<polygon style="fill:none;stroke:#231815;stroke-width:0.9259;stroke-linejoin:bevel;" points="216,70.1 161.5,70.1 177.4,13.9 
							"/>
		</g>
	</g>
</g>
</svg>
