<?xml version="1.0" encoding="utf-8"?>
<!-- Generator: Adobe Illustrator 24.2.3, SVG Export Plug-In . SVG Version: 6.00 Build 0)  -->
<svg version="1.1" id="Layer_1" xmlns="http://www.w3.org/2000/svg" xmlns:xlink="http://www.w3.org/1999/xlink" x="0px" y="0px"
	 width="55px" height="55px" viewBox="0 0 55 55" style="enable-background:new 0 0 55 55;" xml:space="preserve">
<g id="Layer_2_1_">
	<g id="Layer_1-2">
		<circle style="fill:#F453A4;" cx="27.5" cy="27.5" r="25"/>
		<path style="fill:#FFFFFF;" d="M25.5,39.2l-7-6.4c-0.3-0.3-0.6-0.4-1-0.4h-4.8c-0.8,0-1.4-0.6-1.4-1.4v-7.4c0-0.8,0.6-1.4,1.4-1.4
			c0,0,0,0,0,0h5c0.3,0,0.7-0.1,0.9-0.4l7-6.1c0.3-0.3,0.8-0.2,1,0.1c0.1,0.1,0.2,0.3,0.2,0.5v22.4c0.1,0.4-0.2,0.8-0.6,0.8
			C25.9,39.6,25.7,39.5,25.5,39.2z"/>
		<path style="fill:#FFFFFF;" d="M31,35.3c-0.7,0-1.3-0.5-1.3-1.3c0-0.6,0.4-1.2,1.1-1.3c2.9-0.6,4.8-3.5,4.2-6.4
			c-0.4-2-2-3.7-4-4.2c-0.7-0.2-1.1-0.9-0.9-1.6c0.2-0.7,0.9-1.1,1.6-1l0,0c4.3,1,6.9,5.4,5.9,9.7c-0.7,3-3.1,5.3-6.2,5.9L31,35.3z"
			/>
		<path style="fill:#FFFFFF;" d="M31.7,41.9c-0.7,0-1.3-0.6-1.2-1.3c0-0.6,0.4-1.1,1-1.2C38.1,38,42.3,31.6,41,25
			c-0.9-4.6-4.5-8.3-9-9.4c-0.7-0.2-1.1-0.9-0.9-1.6c0.2-0.6,0.8-1,1.5-0.9C40.4,15.1,45.2,23,43.3,31C42,36.5,37.6,40.7,32,41.9
			L31.7,41.9z"/>
	</g>
</g>
</svg>
