<?xml version="1.0" encoding="utf-8"?>
<!-- Generator: Adobe Illustrator 23.1.0, SVG Export Plug-In . SVG Version: 6.00 Build 0)  -->
<svg version="1.1" id="레이어_2" xmlns="http://www.w3.org/2000/svg" xmlns:xlink="http://www.w3.org/1999/xlink" x="0px"
	 y="0px" width="88px" height="88px" viewBox="0 0 88 88" style="enable-background:new 0 0 88 88;" xml:space="preserve">
<g>
	<g>
		<g>
			<polyline style="fill:none;stroke:#6DCEF5;stroke-width:0.6;stroke-miterlimit:10;" points="86.5,85.5 86.5,86.5 85.5,86.5 			
				"/>
			
				<line style="fill:none;stroke:#6DCEF5;stroke-width:0.6;stroke-miterlimit:10;stroke-dasharray:2.0244,1.0122;" x1="84.5" y1="86.5" x2="3" y2="86.5"/>
			<polyline style="fill:none;stroke:#6DCEF5;stroke-width:0.6;stroke-miterlimit:10;" points="2.5,86.5 1.5,86.5 1.5,85.5 			"/>
			
				<line style="fill:none;stroke:#6DCEF5;stroke-width:0.6;stroke-miterlimit:10;stroke-dasharray:2.0244,1.0122;" x1="1.5" y1="84.5" x2="1.5" y2="3"/>
			<polyline style="fill:none;stroke:#6DCEF5;stroke-width:0.6;stroke-miterlimit:10;" points="1.5,2.5 1.5,1.5 2.5,1.5 			"/>
			
				<line style="fill:none;stroke:#6DCEF5;stroke-width:0.6;stroke-miterlimit:10;stroke-dasharray:2.0244,1.0122;" x1="3.5" y1="1.5" x2="85" y2="1.5"/>
			<polyline style="fill:none;stroke:#6DCEF5;stroke-width:0.6;stroke-miterlimit:10;" points="85.5,1.5 86.5,1.5 86.5,2.5 			"/>
			
				<line style="fill:none;stroke:#6DCEF5;stroke-width:0.6;stroke-miterlimit:10;stroke-dasharray:2.0244,1.0122;" x1="86.5" y1="3.5" x2="86.5" y2="85"/>
		</g>
	</g>
	<g>
		<g>
			<line style="fill:none;stroke:#6DCEF5;stroke-width:0.6;stroke-miterlimit:10;" x1="72.3" y1="1.5" x2="72.3" y2="2.5"/>
			
				<line style="fill:none;stroke:#6DCEF5;stroke-width:0.6;stroke-miterlimit:10;stroke-dasharray:2.0244,1.0122;" x1="72.3" y1="3.5" x2="72.3" y2="85"/>
			<line style="fill:none;stroke:#6DCEF5;stroke-width:0.6;stroke-miterlimit:10;" x1="72.3" y1="85.5" x2="72.3" y2="86.5"/>
		</g>
	</g>
	<g>
		<g>
			<line style="fill:none;stroke:#6DCEF5;stroke-width:0.6;stroke-miterlimit:10;" x1="58.2" y1="1.5" x2="58.2" y2="2.5"/>
			
				<line style="fill:none;stroke:#6DCEF5;stroke-width:0.6;stroke-miterlimit:10;stroke-dasharray:2.0244,1.0122;" x1="58.2" y1="3.5" x2="58.2" y2="85"/>
			<line style="fill:none;stroke:#6DCEF5;stroke-width:0.6;stroke-miterlimit:10;" x1="58.2" y1="85.5" x2="58.2" y2="86.5"/>
		</g>
	</g>
	<g>
		<g>
			<line style="fill:none;stroke:#6DCEF5;stroke-width:0.6;stroke-miterlimit:10;" x1="44" y1="1.5" x2="44" y2="2.5"/>
			
				<line style="fill:none;stroke:#6DCEF5;stroke-width:0.6;stroke-miterlimit:10;stroke-dasharray:2.0244,1.0122;" x1="44" y1="3.5" x2="44" y2="85"/>
			<line style="fill:none;stroke:#6DCEF5;stroke-width:0.6;stroke-miterlimit:10;" x1="44" y1="85.5" x2="44" y2="86.5"/>
		</g>
	</g>
	<g>
		<g>
			<line style="fill:none;stroke:#6DCEF5;stroke-width:0.6;stroke-miterlimit:10;" x1="29.8" y1="1.5" x2="29.8" y2="2.5"/>
			
				<line style="fill:none;stroke:#6DCEF5;stroke-width:0.6;stroke-miterlimit:10;stroke-dasharray:2.0244,1.0122;" x1="29.8" y1="3.5" x2="29.8" y2="85"/>
			<line style="fill:none;stroke:#6DCEF5;stroke-width:0.6;stroke-miterlimit:10;" x1="29.8" y1="85.5" x2="29.8" y2="86.5"/>
		</g>
	</g>
	<g>
		<g>
			<line style="fill:none;stroke:#6DCEF5;stroke-width:0.6;stroke-miterlimit:10;" x1="15.7" y1="1.5" x2="15.7" y2="2.5"/>
			
				<line style="fill:none;stroke:#6DCEF5;stroke-width:0.6;stroke-miterlimit:10;stroke-dasharray:2.0244,1.0122;" x1="15.7" y1="3.5" x2="15.7" y2="85"/>
			<line style="fill:none;stroke:#6DCEF5;stroke-width:0.6;stroke-miterlimit:10;" x1="15.7" y1="85.5" x2="15.7" y2="86.5"/>
		</g>
	</g>
	<g>
		<g>
			<line style="fill:none;stroke:#6DCEF5;stroke-width:0.6;stroke-miterlimit:10;" x1="1.5" y1="15.7" x2="2.5" y2="15.7"/>
			
				<line style="fill:none;stroke:#6DCEF5;stroke-width:0.6;stroke-miterlimit:10;stroke-dasharray:2.0244,1.0122;" x1="3.5" y1="15.7" x2="85" y2="15.7"/>
			<line style="fill:none;stroke:#6DCEF5;stroke-width:0.6;stroke-miterlimit:10;" x1="85.5" y1="15.7" x2="86.5" y2="15.7"/>
		</g>
	</g>
	<g>
		<g>
			<line style="fill:none;stroke:#6DCEF5;stroke-width:0.6;stroke-miterlimit:10;" x1="1.5" y1="29.8" x2="2.5" y2="29.8"/>
			
				<line style="fill:none;stroke:#6DCEF5;stroke-width:0.6;stroke-miterlimit:10;stroke-dasharray:2.0244,1.0122;" x1="3.5" y1="29.8" x2="85" y2="29.8"/>
			<line style="fill:none;stroke:#6DCEF5;stroke-width:0.6;stroke-miterlimit:10;" x1="85.5" y1="29.8" x2="86.5" y2="29.8"/>
		</g>
	</g>
	<g>
		<g>
			<line style="fill:none;stroke:#6DCEF5;stroke-width:0.6;stroke-miterlimit:10;" x1="1.5" y1="44" x2="2.5" y2="44"/>
			
				<line style="fill:none;stroke:#6DCEF5;stroke-width:0.6;stroke-miterlimit:10;stroke-dasharray:2.0244,1.0122;" x1="3.5" y1="44" x2="85" y2="44"/>
			<line style="fill:none;stroke:#6DCEF5;stroke-width:0.6;stroke-miterlimit:10;" x1="85.5" y1="44" x2="86.5" y2="44"/>
		</g>
	</g>
	<g>
		<g>
			<line style="fill:none;stroke:#6DCEF5;stroke-width:0.6;stroke-miterlimit:10;" x1="1.5" y1="58.2" x2="2.5" y2="58.2"/>
			
				<line style="fill:none;stroke:#6DCEF5;stroke-width:0.6;stroke-miterlimit:10;stroke-dasharray:2.0244,1.0122;" x1="3.5" y1="58.2" x2="85" y2="58.2"/>
			<line style="fill:none;stroke:#6DCEF5;stroke-width:0.6;stroke-miterlimit:10;" x1="85.5" y1="58.2" x2="86.5" y2="58.2"/>
		</g>
	</g>
	<g>
		<g>
			<line style="fill:none;stroke:#6DCEF5;stroke-width:0.6;stroke-miterlimit:10;" x1="1.5" y1="72.3" x2="2.5" y2="72.3"/>
			
				<line style="fill:none;stroke:#6DCEF5;stroke-width:0.6;stroke-miterlimit:10;stroke-dasharray:2.0244,1.0122;" x1="3.5" y1="72.3" x2="85" y2="72.3"/>
			<line style="fill:none;stroke:#6DCEF5;stroke-width:0.6;stroke-miterlimit:10;" x1="85.5" y1="72.3" x2="86.5" y2="72.3"/>
		</g>
	</g>
</g>
<line style="fill:none;stroke:#000000;stroke-miterlimit:10;" x1="1.5" y1="1.5" x2="86.5" y2="86.5"/>
<line style="fill:none;stroke:#000000;stroke-miterlimit:10;" x1="44" y1="44" x2="1.5" y2="86.5"/>
<line style="fill:none;stroke:#000000;stroke-miterlimit:10;" x1="44" y1="44" x2="86.3" y2="30"/>
<line style="fill:none;stroke:#000000;stroke-miterlimit:10;" x1="44" y1="1.8" x2="44" y2="43.8"/>
<line style="fill:none;stroke:#000000;stroke-miterlimit:10;" x1="43.9" y1="44" x2="86.7" y2="44"/>
</svg>
