<?xml version="1.0" encoding="utf-8"?>
<!-- Generator: Adobe Illustrator 23.1.0, SVG Export Plug-In . SVG Version: 6.00 Build 0)  -->
<svg version="1.0" id="레이어_1" xmlns="http://www.w3.org/2000/svg" xmlns:xlink="http://www.w3.org/1999/xlink" x="0px"
	 y="0px" width="460px" height="102px" viewBox="0 0 460 102" style="enable-background:new 0 0 460 102;" xml:space="preserve">
<g>
	<g>
		<path d="M378.8,45.6c0.1,0.2,0.2,0.4,0.2,0.6c0,0.1,0,0.2-0.1,0.4c-0.1,0.1-0.2,0.2-0.4,0.2s-0.4-0.1-0.6-0.2s-0.5-0.4-0.9-0.6
			c-0.4-0.2-0.9-0.6-1.2-0.9c-0.5-0.4-0.9-0.6-1.4-1s-0.9-0.6-1.2-0.7c-0.6,0.7-1.4,1.4-2.2,2c-0.9,0.6-1.6,1.1-2.5,1.5
			c-0.2,0.1-0.5,0.1-0.6,0.1s-0.2,0-0.2-0.1c-0.1-0.1,0-0.2,0-0.4c0.1-0.1,0.1-0.1,0.4-0.2c0.5-0.2,1-0.6,1.5-1.1
			c0.5-0.5,1-1,1.5-1.5c0.5-0.5,0.9-1.1,1.4-1.6c0.4-0.6,0.7-1.1,1-1.7c0.1-0.1,0.1-0.1,0.1-0.2s0-0.1-0.1-0.2
			c-0.1-0.1-0.1-0.1-0.2-0.2s-0.2-0.1-0.5-0.2c-0.1-0.1-0.1-0.2-0.1-0.4c0-0.1,0.1-0.2,0.2-0.2s0.4,0,0.5,0.1c0.2,0,0.4,0.1,0.6,0.1
			c0.2,0.1,0.4,0.1,0.6,0.2c0.1,0.1,0.4,0.1,0.5,0.1c0.2,0.1,0.4,0.2,0.4,0.4c0,0.1,0,0.4-0.1,0.7c-0.1,0.1-0.1,0.2-0.2,0.4
			c-0.1,0.1-0.2,0.4-0.4,0.5c-0.1,0.2-0.2,0.4-0.4,0.6s-0.2,0.4-0.4,0.5c0.1,0.1,0.4,0.2,0.6,0.4c0.2,0.1,0.5,0.2,0.7,0.5
			c0.2,0.1,0.5,0.2,0.7,0.4c0.2,0.1,0.4,0.2,0.6,0.4c0,0,0.1,0,0.2,0.1c0.1,0,0.2,0.1,0.4,0.1c0.1,0,0.2,0.1,0.4,0.1
			c0.1,0,0.1,0,0.2,0.1c0.2,0.1,0.4,0.4,0.7,0.6C378.4,45.2,378.6,45.4,378.8,45.6z"/>
	</g>
	<g>
		<path d="M454.1,62c0.6,0,1.1,0.1,1.6,0.2c0.5,0.1,0.9,0.4,1.2,0.7c0.4,0.4,0.6,0.7,0.9,1.1c0.2,0.5,0.2,1,0.2,1.5
			c0,0.5-0.1,1-0.2,1.5c-0.2,0.5-0.5,0.9-0.9,1.1c-0.4,0.4-0.7,0.6-1.2,0.7s-1,0.2-1.6,0.2s-1.1-0.1-1.6-0.2s-1-0.4-1.2-0.7
			c-0.4-0.4-0.6-0.7-0.9-1.1c-0.2-0.5-0.2-1-0.2-1.5c0-0.5,0.1-1,0.2-1.5c0.2-0.5,0.5-0.9,0.9-1.1s0.7-0.5,1.2-0.7
			C453,62,453.6,62,454.1,62z M454.1,63c-0.7,0-1.4,0.2-1.9,0.7c-0.5,0.5-0.6,1.1-0.6,1.9s0.2,1.4,0.6,1.9c0.5,0.5,1.1,0.7,1.9,0.7
			s1.4-0.2,1.9-0.7c0.5-0.5,0.6-1.1,0.6-1.9s-0.2-1.4-0.7-1.9C455.6,63.2,455,63,454.1,63z"/>
	</g>
	<g>
		<g>
			<circle cx="374.7" cy="34.6" r="1.7"/>
		</g>
	</g>
	<g>
		<g>
			<circle cx="455.2" cy="56.2" r="1.7"/>
		</g>
	</g>
	<g>
		<rect x="414.3" y="3.7" transform="matrix(0.2584 -0.966 0.966 0.2584 263.8712 434.5364)" width="1.2" height="83.4"/>
	</g>
</g>
<g>
	<g>
		<path d="M146.5,57.4c0.1,0.1,0.2,0.1,0.4,0.2c0.1,0.1,0.1,0.2,0.1,0.2c0,0.1,0,0.2-0.1,0.4c-0.1,0.1-0.2,0.2-0.4,0.2
			c-0.1,0-0.4,0-0.5,0s-0.4,0-0.5,0h-6.9c-0.2,0-0.5,0-0.7,0s-0.4-0.1-0.6-0.1c-0.1-0.1-0.4-0.2-0.4-0.4c-0.1-0.1-0.1-0.4-0.1-0.6
			v-4.1c0-0.2,0-0.4-0.1-0.5c0-0.1-0.1-0.2-0.2-0.4l-0.1-0.1l-0.1-0.1c0,0-0.1,0-0.2-0.1c-0.1,0-0.1,0-0.1-0.1
			c-0.1-0.1-0.2-0.2-0.2-0.4s0.1-0.2,0.2-0.2c0.4,0,0.7,0,1.1,0.1c0.4,0,0.9,0.1,1.2,0.2c0,0,0.1,0,0.2,0s0.4,0,0.6,0s0.5,0,0.9,0
			s0.6,0,0.9,0s0.6,0,0.9,0s0.6,0,0.9,0s0.5,0,0.6,0s0.2,0,0.4,0c0.1,0,0.1,0,0.2-0.1s0.1-0.1,0.2-0.1s0.1-0.1,0.2-0.1s0.1,0,0.2,0
			c0.5,0,0.9,0,1.1,0c0.2,0,0.5,0.1,0.7,0.1c0.1,0.1,0.2,0.1,0.2,0.2c0,0.1,0.1,0.2,0.1,0.2c0,0.1,0,0.2-0.1,0.4s-0.2,0.2-0.4,0.2
			c-0.1,0-0.4,0-0.4,0c-0.1,0-0.2,0-0.4,0h-7v4.7c0,0.1,0,0.2,0.1,0.4s0.2,0.1,0.4,0.1h5.2c0.1,0,0.1,0,0.2-0.1
			c0.1,0,0.1-0.1,0.2-0.1s0.1-0.1,0.2-0.1s0.1,0,0.2,0c0.5,0,0.9,0,1.1,0C146,57.2,146.3,57.4,146.5,57.4z"/>
	</g>
	<g>
		<path d="M229.8,57.4c0.1,0.1,0.2,0.1,0.2,0.2c0,0.1,0.1,0.2,0.1,0.2c0,0.1,0,0.2-0.1,0.4c-0.1,0.1-0.2,0.2-0.5,0.2
			c-0.1,0-0.4,0-0.5,0c-0.1,0-0.4,0-0.5,0h-6.3c-0.2,0-0.5,0-0.7,0c-0.2,0-0.4,0-0.6-0.1c-0.1-0.1-0.4-0.2-0.5-0.4s-0.1-0.4-0.1-0.6
			v-1.6c0-0.2,0-0.4,0-0.5s-0.1-0.2-0.1-0.2l-0.1-0.1c-0.1,0-0.1-0.1-0.2-0.1s-0.1-0.1-0.2-0.1s-0.1,0-0.1-0.1
			c-0.1-0.1-0.2-0.2-0.2-0.4c0-0.1,0.1-0.2,0.2-0.2c0.2,0,0.4,0,0.6,0c0.2,0,0.5,0,0.6,0.1c0.2,0,0.4,0.1,0.6,0.1s0.4,0,0.5,0.1
			c0.1,0,0.4,0,0.9,0c0.5,0,1.1,0,1.7,0s1.2,0,1.9,0s1,0,1.2,0l0.1-2.6c-0.2,0-0.6,0-1.1,0s-1.1,0-1.6,0c-0.6,0-1.1,0-1.6,0
			c-0.5,0-0.7,0-0.9,0s-0.2,0-0.4,0.1c-0.1,0-0.2,0.1-0.4,0.1c-0.1,0-0.1,0.1-0.2,0.1c-0.1,0-0.1,0-0.1,0c-0.2-0.1-0.6-0.2-1-0.4
			c-0.4-0.1-0.7-0.4-1-0.5c-0.1-0.1-0.2-0.2-0.1-0.4c0-0.1,0.1-0.2,0.2-0.2c0.1,0,0.2,0,0.4,0s0.2,0,0.5,0c0.1,0,0.4,0,0.6,0.1
			c0.2,0,0.5,0,0.9,0c0.1,0,0.1,0,0.2,0c0.1,0,0.2,0,0.5,0c0.1,0,0.4,0,0.6,0s0.4,0,0.6,0s0.5,0,0.9,0s0.7,0,1.1,0c0.4,0,0.7,0,1,0
			s0.5,0,0.5,0l0.4-0.2c0.1,0,0.2,0,0.4,0c0.1,0,0.2,0,0.5,0c0.1,0,0.2,0,0.4,0.1c0.1,0,0.2,0,0.2,0c0.1,0,0.1,0.1,0.1,0.1
			s0,0.1,0,0.2v0.1v0.1v0.1v0.1l-0.4,2.6c0.1,0,0.2,0,0.4,0.1c0.1,0,0.1,0.1,0.1,0.4c0,0.1,0,0.2-0.1,0.2c-0.1,0.1-0.2,0.1-0.6,0.1
			c-0.2,0-0.6,0-1.2,0c-0.6,0-1.4,0-2.1,0c-0.7,0-1.4,0-2.1,0s-1.1,0-1.4,0v2.3c0,0.1,0.1,0.2,0.2,0.4s0.2,0.1,0.5,0.1
			c0.1,0,0.4,0,0.7,0c0.4,0,1,0,1.5,0c0.5,0,1,0,1.5,0s0.7,0,0.9,0c0.1,0,0.1,0,0.2-0.1c0.1,0,0.1-0.1,0.2-0.1
			c0.1,0,0.1-0.1,0.2-0.1s0.1,0,0.2,0c0.5,0,0.9,0,1.1,0C229.3,57.2,229.5,57.4,229.8,57.4z"/>
	</g>
	<g>
		<g>
			<circle cx="141.7" cy="45.3" r="1.7"/>
		</g>
	</g>
	<g>
		<g>
			<circle cx="224.8" cy="45.3" r="1.7"/>
		</g>
	</g>
	<g>
		<rect x="141.7" y="44.8" transform="matrix(1 -1.953117e-03 1.953117e-03 1 -8.826979e-02 0.3725)" width="97.9" height="1.2"/>
	</g>
</g>
<g>
	<g>
		<path d="M272.7,23.5c0.1,0.1,0.2,0.1,0.2,0.2c0,0.1,0,0.2,0,0.2s0,0.1-0.1,0.1c0,0,0,0.1-0.1,0.1c0,0,0,0.1-0.1,0.1s0,0.1,0,0.1
			l-0.4,4.8c0.1,0,0.2,0,0.4,0.1c0.1,0.1,0.1,0.1,0.1,0.2c0,0.1,0,0.2-0.1,0.4c-0.1,0.1-0.2,0.1-0.5,0.1c-0.5,0-1,0-1.7,0
			c-0.6,0-1.4,0-2,0c-0.6,0-1.2,0-1.9,0c-0.5,0-0.9,0-1.1,0c0,0.2-0.1,0.4-0.2,0.5c-0.1,0.1-0.2,0.2-0.4,0.2c-0.2,0-0.4-0.1-0.5-0.2
			c-0.1-0.1-0.1-0.4-0.1-0.7l-0.2-4.7c0-0.2,0-0.4-0.1-0.6c-0.1-0.2-0.1-0.2-0.1-0.4c-0.1-0.1-0.1-0.2-0.2-0.2
			c-0.1-0.1-0.2-0.1-0.5-0.2c-0.1-0.1-0.2-0.2-0.2-0.4c0-0.1,0.1-0.2,0.4-0.2s0.5,0,0.7,0c0.2,0,0.5,0,0.7,0.1
			c0.2,0,0.4,0.1,0.6,0.1c0.1,0,0.4,0.1,0.5,0.1c0,0,0.1,0,0.2,0s0.4,0,0.6,0c0.2,0,0.5,0,0.9,0c0.2,0,0.6,0,1,0c0.4,0,0.6,0,0.9,0
			s0.6,0,0.9,0s0.5,0,0.6,0s0.2,0,0.2,0l0.4-0.2c0.1,0,0.4,0,0.6,0C272.2,23.4,272.5,23.4,272.7,23.5z M271.3,24.5h-5.7l0.1,4.9h5.4
			L271.3,24.5z"/>
	</g>
	<g>
		<path d="M332.1,82.7c0.1,0,0.2,0.1,0.2,0.1s0,0.1,0,0.2s0,0.1,0,0.2s0,0.1,0,0.2s0,0.1,0,0.2s0,0.2,0,0.2v4.8
			c0,0.5-0.1,0.9-0.2,1.2c-0.1,0.2-0.4,0.5-0.5,0.5s-0.2,0-0.4-0.1c-0.1-0.1-0.1-0.2-0.1-0.4h-5.3c0,0.1-0.1,0.2-0.2,0.4
			s-0.2,0.2-0.5,0.2c-0.1,0-0.2-0.1-0.4-0.2c-0.1-0.1-0.1-0.6-0.1-1.1v-4.9c0-0.2-0.1-0.4-0.2-0.5c-0.1-0.1-0.5-0.2-0.7-0.4
			c-0.5-0.2-0.5-0.4-0.5-0.6s0.1-0.2,0.2-0.2c0.2,0,0.6,0,1,0.1c0.4,0.1,0.7,0.1,1.1,0.2c0.1,0,0.1,0.1,0.1,0.1s0.1,0,0.1,0.1v0.1
			v0.1c0,0.1,0,0.1,0,0.2v0.1V84v0.1v1.5h5.2V84c0-0.1,0-0.2-0.1-0.4c0-0.1-0.1-0.1-0.2-0.2s-0.2-0.1-0.4-0.1
			c-0.1,0-0.2-0.1-0.4-0.1c-0.2-0.1-0.2-0.2-0.2-0.4s0.1-0.2,0.4-0.2c0.4,0,0.7,0.1,1.2,0.1C331.6,82.6,332,82.6,332.1,82.7z
			 M331,89v-2.6h-5.2V89H331z"/>
	</g>
	<g>
		<g>
			<circle cx="276.3" cy="20.7" r="1.7"/>
		</g>
	</g>
	<g>
		<g>
			<circle cx="335.2" cy="80.1" r="1.7"/>
		</g>
	</g>
	<g>
		<polygon points="343.6,89 267.2,12.3 268,11.3 344.5,88.1 		"/>
	</g>
</g>
<g>
	<g>
		<path d="M10.3,60.3c0.1,0.1,0.1,0.1,0.2,0.2c0,0.1,0,0.1,0,0.2c0,0,0,0,0,0.1c0,0,0,0,0,0.1v0.1c0,0,0,0,0,0.1v0.1v0.1v4.2
			c0,0.4,0,0.6-0.1,1c-0.1,0.4-0.1,0.6-0.1,0.9c-0.1,0.5-0.4,0.7-0.5,0.7c-0.2,0-0.4-0.2-0.5-0.7c0-0.1,0-0.2,0-0.4s0-0.4,0-0.5
			c0-0.1,0-0.4,0-0.5c0-0.1,0-0.2,0-0.4v-4.4l-4.8,0.1c-0.1,0-0.2,0-0.4,0.1c-0.5,0-0.5,0-0.6,0.1c-0.1,0-0.2,0.1-0.2,0.1
			s-0.1,0-0.2,0c-0.1,0-0.2-0.1-0.5-0.1S2.1,61.6,2,61.5c-0.1-0.1-0.4-0.2-0.5-0.2c-0.1-0.1-0.2-0.1-0.4-0.2
			c-0.1-0.1-0.2-0.2-0.2-0.4c0-0.2,0.1-0.2,0.4-0.2c0.1,0,0.2,0,0.5,0.1c0.2,0,0.4,0.1,0.6,0.1s0.5,0.1,0.7,0.1s0.6,0,0.9,0
			c0.1,0,0.2,0,0.6,0s0.6,0,0.9,0c0.4,0,0.6,0,0.9,0s0.5,0,0.5,0c0.4,0,0.6,0,1,0c0.4-0.4,0.6-0.4,0.7-0.4l0.4-0.2
			c0.1,0,0.2,0,0.4,0c0.2,0,0.4,0,0.5,0.1h0.1H10C10,60.3,10.2,60.3,10.3,60.3C10.2,60.3,10.3,60.3,10.3,60.3z"/>
	</g>
	<g>
		<path d="M111.8,39.8c0.2,0,0.4,0.1,0.5,0.2c0.1,0.1,0.1,0.2,0.1,0.4c0,0.1,0,0.2-0.1,0.4c-0.1,0.1-0.2,0.1-0.5,0.1
			c-0.2,0-0.7,0-1.4,0c-0.6,0-1.4,0-2.2,0c-0.7,0-1.6,0-2.3,0s-1.4,0-1.9,0c-0.5,0-0.9-0.1-1.1-0.2c-0.2-0.1-0.5-0.5-0.5-1v-3.7
			c0-0.1,0-0.2,0-0.2s0-0.2,0-0.4c0-0.1,0-0.2,0-0.2c0-0.1-0.1-0.1-0.1-0.2c-0.1-0.1-0.2-0.1-0.2-0.1s-0.1-0.1-0.2-0.1
			s-0.1-0.1-0.2-0.1s-0.2,0-0.2,0c-0.2-0.1-0.2-0.2-0.2-0.5c0-0.1,0.1-0.2,0.2-0.2c0.4,0,0.9,0,1.2,0.1c0.4,0.1,0.9,0.1,1.2,0.1
			c0.1,0,0.1,0.1,0.1,0.1s0,0.1,0,0.2v0.1c0,0.1,0,0.1,0,0.1v0.1v0.1v4.8c0,0.1,0,0.2,0.1,0.4c0.1,0.1,0.2,0.1,0.4,0.1
			c0.1,0,0.4,0,0.7,0c0.4,0,0.9,0,1.4,0c0.5,0,0.9,0,1.2,0c0.4,0,0.6,0,0.7,0s0.2,0,0.5,0s0.4,0,0.5,0h0.1l0.1-0.1
			c0.1,0,0.1-0.1,0.2-0.1c0.1,0,0.1,0,0.2-0.1c0.2,0,0.5,0,0.7,0C111.3,39.8,111.7,39.8,111.8,39.8z"/>
	</g>
	<g>
		<g>
			<circle cx="16.2" cy="62.1" r="1.7"/>
		</g>
	</g>
	<g>
		<g>
			<circle cx="96.4" cy="40.5" r="1.7"/>
		</g>
	</g>
	<g>
		<rect x="14.8" y="50.6" transform="matrix(0.9657 -0.2597 0.2597 0.9657 -11.3762 16.3904)" width="83" height="1.2"/>
	</g>
</g>
</svg>
