<?xml version="1.0" encoding="utf-8"?>
<!-- Generator: Adobe Illustrator 23.1.0, SVG Export Plug-In . SVG Version: 6.00 Build 0)  -->
<svg version="1.1" id="레이어_1" xmlns="http://www.w3.org/2000/svg" xmlns:xlink="http://www.w3.org/1999/xlink" x="0px"
	 y="0px" width="173px" height="70px" viewBox="0 0 173 70" style="enable-background:new 0 0 173 70;" xml:space="preserve">
<g>
	<path style="fill:#00ADEE;" d="M171.5,0.8L171.5,0.8l0.1,0.4h-0.1V0.8z M169,0.8h1.5v0.4H169V0.8z M166.5,0.8h1.5v0.4h-1.5V0.8z
		 M164,0.8h1.5v0.4H164V0.8z M161.5,0.8h1.5v0.4h-1.5V0.8z M159,0.8h1.5v0.4H159V0.8z M156.5,0.8h1.5v0.4h-1.5V0.8z M154,0.8h1.5
		v0.4H154V0.8z M151.5,0.8h1.5v0.4h-1.5V0.8z M149,0.8h1.5v0.4H149V0.8z M146.5,0.8h1.5v0.4h-1.5V0.8z M144,0.8h1.5v0.4H144V0.8z
		 M141.5,0.8h1.5v0.4h-1.5V0.8z M139,0.8h1.5v0.4H139V0.8z M136.5,0.8h1.5v0.4h-1.5V0.8z M134,0.8h1.5v0.4H134V0.8z M131.5,0.8h1.5
		v0.4h-1.5V0.8z M129,0.8h1.5v0.4H129V0.8z M126.5,0.8h1.5v0.4h-1.5V0.8z M124,0.8h1.5v0.4H124V0.8z M121.5,0.8h1.5v0.4h-1.5V0.8z
		 M119,0.8h1.5v0.4H119V0.8z M116.5,0.8h1.5v0.4h-1.5V0.8z M114,0.8h1.5v0.4H114V0.8z M111.5,0.8h1.5v0.4h-1.5V0.8z M109,0.8h1.5
		v0.4H109V0.8z M106.5,0.8h1.5v0.4h-1.5V0.8z M104,0.8h1.5v0.4H104V0.8z M101.5,0.8h1.5v0.4h-1.5V0.8z M99,0.8h1.5v0.4H99V0.8z
		 M96.5,0.8H98v0.4h-1.5V0.8z M94,0.8h1.5v0.4H94V0.8z M91.5,0.8H93v0.4h-1.5V0.8z M89,0.8h1.5v0.4H89V0.8z M86.5,0.8H88v0.4h-1.5
		V0.8z M84,0.8h1.5v0.4H84V0.8z M81.5,0.8H83v0.4h-1.5V0.8z M79,0.8h1.5v0.4H79V0.8z M76.5,0.8H78v0.4h-1.5V0.8z M74,0.8h1.5v0.4H74
		V0.8z M71.5,0.8H73v0.4h-1.5V0.8z M69,0.8h1.5v0.4H69V0.8z M66.5,0.8H68v0.4h-1.5V0.8z M64,0.8h1.5v0.4H64V0.8z M61.5,0.8H63v0.4
		h-1.5V0.8z M59,0.8h1.5v0.4H59V0.8z M56.5,0.8H58v0.4h-1.5V0.8z M54,0.8h1.5v0.4H54V0.8z M51.5,0.8H53v0.4h-1.5V0.8z M49,0.8h1.5
		v0.4H49V0.8z M46.5,0.8H48v0.4h-1.5V0.8z M44,0.8h1.5v0.4H44V0.8z M41.5,0.8H43v0.4h-1.5V0.8z M39,0.8h1.5v0.4H39V0.8z M36.5,0.8
		H38v0.4h-1.5V0.8z M34,0.8h1.5v0.4H34V0.8z M31.5,0.8H33v0.4h-1.5V0.8z M29,0.8h1.5v0.4H29V0.8z M26.5,0.8H28v0.4h-1.5V0.8z
		 M24,0.8h1.5v0.4H24V0.8z M21.5,0.8H23v0.4h-1.5V0.8z M19,0.8h1.5v0.4H19V0.8z M16.5,0.8H18v0.4h-1.5V0.8z M14,0.8h1.5v0.4H14V0.8z
		 M11.5,0.8H13v0.4h-1.5V0.8z M9,0.8h1.5v0.4H9V0.8z M6.5,0.8H8v0.4H6.5V0.8z M4,0.8h1.5v0.4H4V0.8z M1.5,0.8H3v0.4H1.5V0.8z"/>
	<path style="fill:#6DCEF5;" d="M160.5,57.9L160.5,57.9L160.5,57.9L160.5,57.9 M3,57.5H1.5v0.4H3V57.5 M5.5,57.5H4v0.4h1.5V57.5
		 M8,57.5H6.5v0.4H8V57.5 M10.5,57.5H9v0.4h1.5V57.5 M12.4,57.5h-0.9v0.4h1.1l-0.1-0.1V57.5 M60.5,57.5H59v0.4h1.5V57.5 M63,57.5
		h-1.5v0.4H63V57.5 M65.5,57.5H64v0.4h1.5V57.5 M68,57.5h-1.5v0.4H68V57.5 M70.5,57.5h-0.8v0h-0.4v0H69v0.4h1.5V57.5 M73,57.5h-1.5
		v0.4H73V57.5 M75.5,57.5H74v0.4h1.5V57.5 M78,57.5h-1.5v0.4H78V57.5 M80.4,57.5H79v0.4h1.5v-0.1l-0.1-0.1V57.5 M163,57.5h-1.5v0.4
		h1.5V57.5 M165.5,57.5H164v0.4h1.5V57.5 M168,57.5h-1.5v0.4h1.5V57.5 M170.5,57.5H169v0.4h1.5V57.5 M171.5,57.5L171.5,57.5
		l-0.1,0.4h0.1V57.5 M3,46.1H1.5v0.4H3V46.1 M5.5,46.1H4v0.4h1.5V46.1 M8,46.1H6.5v0.4H8V46.1 M10.5,46.1H9v0.4h1.5V46.1 M12.4,46.1
		h-0.9v0.4h0.9V46.1 M15.5,46.1H14v0.4h1.5V46.1 M18,46.1h-1.5v0.4H18V46.1 M20.5,46.1H19v0.4h1.5V46.1 M23,46.1h-1.5v0.4H23V46.1
		 M25.5,46.1h-1.1v0.4h1.1V46.1 M28,46.1h-1.5v0.4H28V46.1 M30.5,46.1H29v0.4h1.5V46.1 M33,46.1h-1.5v0.4H33V46.1 M35.3,46.1H34v0.4
		h1.3V46.1 M38,46.1h-1.5v0.4H38V46.1 M40.5,46.1H39v0.4h1.5V46.1 M43,46.1h-1.5v0.4H43V46.1 M45.5,46.1H44v0.4h1.5V46.1 M46.6,46.1
		h-0.2v0.4h0.2V46.1 M48,46.1H47v0.4H48V46.1 M50.5,46.1H49v0.4h1.5V46.1 M53,46.1h-1.5v0.4H53V46.1 M55.5,46.1H54v0.4h1.5V46.1
		 M57.6,46.1h-1.2v0.4h1.2V46.1 M60.5,46.1H59v0.4h1.5V46.1 M63,46.1h-1.5v0.4H63V46.1 M65.5,46.1H64v0.4h1.5V46.1 M68,46.1h-1.5
		v0.4H68V46.1 M69.3,46.1H69v0.4h0.3V46.1 M70.5,46.1h-0.8v0.4h0.8V46.1 M73,46.1h-1.5v0.4H73V46.1 M75.5,46.1H74v0.4h1.5V46.1
		 M78,46.1h-1.5v0.4H78V46.1 M80.4,46.1H79v0.4h1.4V46.1 M83,46.1h-1.5v0.4H83V46.1 M85.5,46.1H84v0.4h1.5V46.1 M88,46.1h-1.5v0.4
		H88V46.1 M90.5,46.1H89v0.4h1.5V46.1 M92,46.1h-0.5v0.4H92V46.1 M93,46.1h-0.6v0.4H93V46.1 M95.5,46.1H94v0.4h1.5V46.1 M98,46.1
		h-1.5v0.4H98V46.1 M100.5,46.1H99v0.4h1.5V46.1 M103,46.1h-1.5v0.4h1.5V46.1 M105.5,46.1H104v0.4h1.5V46.1 M108,46.1h-1.5v0.4h1.5
		V46.1 M110.5,46.1H109v0.4h1.5V46.1 M113,46.1h-1.5v0.4h1.5V46.1 M114.6,46.1H114v0.4h0.7V46.1 M115.5,46.1H115v0.4h0.4V46.1
		 M118,46.1h-1.5v0.4h1.5V46.1 M120.5,46.1H119v0.4h1.5V46.1 M123,46.1h-1.5v0.4h1.5V46.1 M125.5,46.1H124v0.4h1.5V46.1 M128,46.1
		h-1.5v0.4h1.5V46.1 M130.5,46.1H129v0.4h1.5V46.1 M133,46.1h-1.5v0.4h1.5V46.1 M135.5,46.1H134v0.4h1.5V46.1 M137.3,46.1h-0.9v0.4
		h0.9V46.1 M138,46.1h-0.2v0.4h0.2V46.1 M140.5,46.1H139v0.4h1.5V46.1 M143,46.1h-1.5v0.4h1.5V46.1 M145.5,46.1H144v0.4h1.5V46.1
		 M148,46.1h-1.5v0.4h1.5V46.1 M150.5,46.1h-1.4v0.4h1.4V46.1 M153,46.1h-1.5v0.4h1.5V46.1 M155.5,46.1H154v0.4h1.5V46.1 M158,46.1
		h-1.5v0.4h1.5V46.1 M159.8,46.1H159v0.4h0.8V46.1 M163,46.1h-1.5v0.4h1.5V46.1 M165.5,46.1H164v0.4h1.5V46.1 M168,46.1h-1.5v0.4
		h1.5V46.1 M170.5,46.1H169v0.4h1.5V46.1 M171.5,46.1L171.5,46.1l-0.1,0.4h0.1V46.1 M3,34.8H1.5v0.4H3V34.8 M5.5,34.8H4v0.4h1.5
		V34.8 M8,34.8H6.5v0.4H8V34.8 M10.5,34.8H9v0.4h1.5V34.8 M12.4,34.8h-0.9v0.4h0.9V34.8 M15.5,34.8H14v0.4h1.5V34.8 M18,34.8h-1.5
		v0.4H18V34.8 M20.5,34.8H19v0.4h1.5V34.8 M23,34.8h-1.5v0.4H23V34.8 M25.5,34.8h-1.1V35H24v0.2h1.5V34.8 M28,34.8h-1.5v0.4H28V34.8
		 M30.5,34.8H29v0.4h1.5V34.8 M33,34.8h-1.5v0.4H33V34.8 M35.3,34.8H34v0.4h1.5V35h-0.2V34.8 M38,34.8h-1.5v0.4H38V34.8 M40.5,34.8
		H39v0.4h1.5V34.8 M43,34.8h-1.5v0.4H43V34.8 M45.5,34.8H44v0.4h1.5V34.8 M48,34.8H47V35h-0.4v-0.2h-0.2v0.4H48V34.8 M50.5,34.8H49
		v0.4h1.5V34.8 M53,34.8h-1.5v0.4H53V34.8 M55.5,34.8H54v0.4h1.5V34.8 M57.6,34.8h-1.2v0.4h1.2V34.8 M60.5,34.8H59v0.4h1.5V34.8
		 M63,34.8h-1.5v0.4H63V34.8 M65.5,34.8H64v0.4h1.5V34.8 M68,34.8h-1.5v0.4H68V34.8 M70.5,34.8h-0.8V35h-0.4v-0.2H69v0.4h1.5V34.8
		 M73,34.8h-1.5v0.4H73V34.8 M75.5,34.8H74v0.4h1.5V34.8 M78,34.8h-1.5v0.4H78V34.8 M80.4,34.8H79v0.4h1.4V34.8 M83,34.8h-1.5v0.4
		H83V34.8 M85.5,34.8H84v0.4h1.5V34.8 M88,34.8h-1.5v0.4H88V34.8 M90.5,34.8H89v0.4h1.5V34.8 M93,34.8h-0.6V35H92v-0.2h-0.5v0.4H93
		V34.8 M95.5,34.8H94v0.4h1.5V34.8 M98,34.8h-1.5v0.4H98V34.8 M100.5,34.8H99v0.4h1.5V34.8 M103,34.8h-1.5v0.4h1.5V34.8 M105.5,34.8
		H104v0.4h1.5V34.8 M108,34.8h-1.5v0.4h1.5V34.8 M110.5,34.8H109v0.4h1.5V34.8 M113,34.8h-1.5v0.4h1.5V34.8 M115.5,34.8H115V35h-0.4
		v-0.2H114v0.4h1.5V34.8 M118,34.8h-1.5v0.4h1.5V34.8 M120.5,34.8H119v0.4h1.5V34.8 M123,34.8h-1.5v0.4h1.5V34.8 M125.5,34.8H124
		v0.4h1.5V34.8 M128,34.8h-1.5v0.4h1.5V34.8 M130.5,34.8H129v0.4h1.5V34.8 M133,34.8h-1.5v0.4h1.5V34.8 M135.5,34.8H134v0.4h1.5
		V34.8 M138,34.8h-0.2V35h-0.4v-0.2h-0.9v0.4h1.5V34.8 M140.5,34.8H139v0.4h1.5V34.8 M143,34.8h-1.5v0.4h1.5V34.8 M145.5,34.8H144
		v0.4h1.5V34.8 M148,34.8h-1.5v0.4h1.5V34.8 M150.5,34.8h-1.4V35H149v0.2h1.5V34.8 M153,34.8h-1.5v0.4h1.5V34.8 M155.5,34.8H154v0.4
		h1.5V34.8 M158,34.8h-1.5v0.4h1.5V34.8 M159.8,34.8H159v0.4h0.8V34.8 M163,34.8h-1.5v0.4h1.5V34.8 M165.5,34.8H164v0.4h1.5V34.8
		 M168,34.8h-1.5v0.4h1.5V34.8 M170.5,34.8H169v0.4h1.5V34.8 M171.5,34.8L171.5,34.8l-0.1,0.4h0.1V34.8 M3,23.5H1.5v0.4H3V23.5
		 M5.5,23.5H4v0.4h1.5V23.5 M8,23.5H6.5v0.4H8V23.5 M10.5,23.5H9v0.4h1.5V23.5 M12.4,23.5h-0.9v0.4h0.9V23.5 M15.5,23.5H14v0.4h1.5
		V23.5 M18,23.5h-1.5v0.4H18V23.5 M20.5,23.5H19v0.4h1.5V23.5 M23,23.5h-1.5v0.4H23V23.5 M25.5,23.5H24v0h0.4v0.4h1.1V23.5 M28,23.5
		h-1.5v0.4H28V23.5 M30.5,23.5H29v0.4h1.5V23.5 M33,23.5h-1.5v0.4H33V23.5 M35.5,23.5H34v0.4h1.3v-0.4L35.5,23.5L35.5,23.5 M38,23.5
		h-1.5v0.4H38V23.5 M40.5,23.5H39v0.4h1.5V23.5 M43,23.5h-1.5v0.4H43V23.5 M45.5,23.5H44v0.4h1.5V23.5 M48,23.5h-1.5v0.4h0.2v-0.4
		H47v0.4H48V23.5 M50.5,23.5H49v0.4h1.5V23.5 M53,23.5h-1.5v0.4H53V23.5 M55.5,23.5H54v0.4h1.5V23.5 M57.6,23.5h-1.2v0.4h1.2V23.5
		 M60.5,23.5H59v0.4h1.5V23.5 M63,23.5h-1.5v0.4H63V23.5 M65.5,23.5H64v0.4h1.5V23.5 M68,23.5h-1.5v0.4H68V23.5 M70.5,23.5H69v0.4
		h0.3v-0.4h0.4v0.4h0.8V23.5 M73,23.5h-1.5v0.4H73V23.5 M75.5,23.5H74v0.4h1.5V23.5 M78,23.5h-1.5v0.4H78V23.5 M80.4,23.5H79v0.4
		h1.4V23.5 M83,23.5h-1.5v0.4H83V23.5 M85.5,23.5H84v0.4h1.5V23.5 M88,23.5h-1.5v0.4H88V23.5 M90.5,23.5H89v0.4h1.5V23.5 M93,23.5
		h-1.5v0.4H92v-0.4h0.4v0.4H93V23.5 M95.5,23.5H94v0.4h1.5V23.5 M98,23.5h-1.5v0.4H98V23.5 M100.5,23.5H99v0.4h1.5V23.5 M103,23.5
		h-1.5v0.4h1.5V23.5 M105.5,23.5H104v0.4h1.5V23.5 M108,23.5h-1.5v0.4h1.5V23.5 M110.5,23.5H109v0.4h1.5V23.5 M113,23.5h-1.5v0.4
		h1.5V23.5 M115.5,23.5H114v0.4h0.7v-0.4h0.4v0.4h0.4V23.5 M118,23.5h-1.5v0.4h1.5V23.5 M120.5,23.5H119v0.4h1.5V23.5 M123,23.5
		h-1.5v0.4h1.5V23.5 M125.5,23.5H124v0.4h1.5V23.5 M128,23.5h-1.5v0.4h1.5V23.5 M130.5,23.5H129v0.4h1.5V23.5 M133,23.5h-1.5v0.4
		h1.5V23.5 M135.5,23.5H134v0.4h1.5V23.5 M138,23.5h-1.5v0.4h0.9v-0.4h0.4v0.4h0.2V23.5 M140.5,23.5H139v0.4h1.5V23.5 M143,23.5
		h-1.5v0.4h1.5V23.5 M145.5,23.5H144v0.4h1.5V23.5 M148,23.5h-1.5v0.4h1.5V23.5 M150.5,23.5H149v0h0.1v0.4h1.4V23.5 M153,23.5h-1.5
		v0.4h1.5V23.5 M155.5,23.5H154v0.4h1.5V23.5 M158,23.5h-1.5v0.4h1.5V23.5 M159.8,23.5H159v0.4h0.8V23.5 M163,23.5h-1.5v0.4h1.5
		V23.5 M165.5,23.5H164v0.4h1.5V23.5 M168,23.5h-1.5v0.4h1.5V23.5 M170.5,23.5H169v0.4h1.5V23.5 M171.5,23.5L171.5,23.5l-0.1,0.4
		h0.1V23.5 M3,12.1H1.5v0.4H3V12.1 M5.5,12.1H4v0.4h1.5V12.1 M8,12.1H6.5v0.4H8V12.1 M10.5,12.1H9v0.4h1.5V12.1 M12.6,12.1h-1.1v0.4
		h0.9v-0.2L12.6,12.1L12.6,12.1 M60.5,12.1H59v0.4h1.5V12.1 M63,12.1h-1.5v0.4H63V12.1 M65.5,12.1H64v0.4h1.5V12.1 M68,12.1h-1.5
		v0.4H68V12.1 M70.5,12.1h-0.8v0.4h-0.4v-0.4H69v0.4h1.5V12.1 M73,12.1h-1.5v0.4H73V12.1 M75.5,12.1H74v0.4h1.5V12.1 M78,12.1h-1.5
		v0.4H78V12.1 M80.5,12.1H79v0.4h1.4v-0.2l0.1-0.1V12.1 M160.5,12.1L160.5,12.1L160.5,12.1L160.5,12.1L160.5,12.1 M163,12.1h-1.5
		v0.4h1.5V12.1 M165.5,12.1H164v0.4h1.5V12.1 M168,12.1h-1.5v0.4h1.5V12.1 M170.5,12.1H169v0.4h1.5V12.1 M171.5,12.1L171.5,12.1
		l-0.1,0.4h0.1V12.1"/>
	<path style="fill:#00ADEE;" d="M171.7,68.5V69h-0.4v-0.5H171.7z M171.7,66v1.5h-0.4V66H171.7z M171.7,63.5V65h-0.4v-1.5H171.7z
		 M171.7,61v1.5h-0.4V61H171.7z M171.7,58.5V60h-0.4v-1.5H171.7z M171.7,56v1.5h-0.4V56H171.7z M171.7,53.5V55h-0.4v-1.5H171.7z
		 M171.7,51v1.5h-0.4V51H171.7z M171.7,48.5V50h-0.4v-1.5H171.7z M171.7,46v1.5h-0.4V46H171.7z M171.7,43.5V45h-0.4v-1.5H171.7z
		 M171.7,41v1.5h-0.4V41H171.7z M171.7,38.5V40h-0.4v-1.5H171.7z M171.7,36v1.5h-0.4V36H171.7z M171.7,33.5V35h-0.4v-1.5H171.7z
		 M171.7,31v1.5h-0.4V31H171.7z M171.7,28.5V30h-0.4v-1.5H171.7z M171.7,26v1.5h-0.4V26H171.7z M171.7,23.5V25h-0.4v-1.5H171.7z
		 M171.7,21v1.5h-0.4V21H171.7z M171.7,18.5V20h-0.4v-1.5H171.7z M171.7,16v1.5h-0.4V16H171.7z M171.7,13.5V15h-0.4v-1.5H171.7z
		 M171.7,11v1.5h-0.4V11H171.7z M171.7,8.5V10h-0.4V8.5H171.7z M171.7,6v1.5h-0.4V6H171.7z M171.7,3.5V5h-0.4V3.5H171.7z M171.7,1
		v1.5h-0.4V1H171.7z M1.5,69.2L1.5,69.2l-0.1-0.4h0.1V69.2z M4,69.2H2.5v-0.4H4V69.2z M6.5,69.2H5v-0.4h1.5V69.2z M9,69.2H7.5v-0.4
		H9V69.2z M11.5,69.2H10v-0.4h1.5V69.2z M14,69.2h-1.5v-0.4H14V69.2z M16.5,69.2H15v-0.4h1.5V69.2z M19,69.2h-1.5v-0.4H19V69.2z
		 M21.5,69.2H20v-0.4h1.5V69.2z M24,69.2h-1.5v-0.4H24V69.2z M26.5,69.2H25v-0.4h1.5V69.2z M29,69.2h-1.5v-0.4H29V69.2z M31.5,69.2
		H30v-0.4h1.5V69.2z M34,69.2h-1.5v-0.4H34V69.2z M36.5,69.2H35v-0.4h1.5V69.2z M39,69.2h-1.5v-0.4H39V69.2z M41.5,69.2H40v-0.4h1.5
		V69.2z M44,69.2h-1.5v-0.4H44V69.2z M46.5,69.2H45v-0.4h1.5V69.2z M49,69.2h-1.5v-0.4H49V69.2z M51.5,69.2H50v-0.4h1.5V69.2z
		 M54,69.2h-1.5v-0.4H54V69.2z M56.5,69.2H55v-0.4h1.5V69.2z M59,69.2h-1.5v-0.4H59V69.2z M61.5,69.2H60v-0.4h1.5V69.2z M64,69.2
		h-1.5v-0.4H64V69.2z M66.5,69.2H65v-0.4h1.5V69.2z M69,69.2h-1.5v-0.4H69V69.2z M71.5,69.2H70v-0.4h1.5V69.2z M74,69.2h-1.5v-0.4
		H74V69.2z M76.5,69.2H75v-0.4h1.5V69.2z M79,69.2h-1.5v-0.4H79V69.2z M81.5,69.2H80v-0.4h1.5V69.2z M84,69.2h-1.5v-0.4H84V69.2z
		 M86.5,69.2H85v-0.4h1.5V69.2z M89,69.2h-1.5v-0.4H89V69.2z M91.5,69.2H90v-0.4h1.5V69.2z M94,69.2h-1.5v-0.4H94V69.2z M96.5,69.2
		H95v-0.4h1.5V69.2z M99,69.2h-1.5v-0.4H99V69.2z M101.5,69.2H100v-0.4h1.5V69.2z M104,69.2h-1.5v-0.4h1.5V69.2z M106.5,69.2H105
		v-0.4h1.5V69.2z M109,69.2h-1.5v-0.4h1.5V69.2z M111.5,69.2H110v-0.4h1.5V69.2z M114,69.2h-1.5v-0.4h1.5V69.2z M116.5,69.2H115
		v-0.4h1.5V69.2z M119,69.2h-1.5v-0.4h1.5V69.2z M121.5,69.2H120v-0.4h1.5V69.2z M124,69.2h-1.5v-0.4h1.5V69.2z M126.5,69.2H125
		v-0.4h1.5V69.2z M129,69.2h-1.5v-0.4h1.5V69.2z M131.5,69.2H130v-0.4h1.5V69.2z M134,69.2h-1.5v-0.4h1.5V69.2z M136.5,69.2H135
		v-0.4h1.5V69.2z M139,69.2h-1.5v-0.4h1.5V69.2z M141.5,69.2H140v-0.4h1.5V69.2z M144,69.2h-1.5v-0.4h1.5V69.2z M146.5,69.2H145
		v-0.4h1.5V69.2z M149,69.2h-1.5v-0.4h1.5V69.2z M151.5,69.2H150v-0.4h1.5V69.2z M154,69.2h-1.5v-0.4h1.5V69.2z M156.5,69.2H155
		v-0.4h1.5V69.2z M159,69.2h-1.5v-0.4h1.5V69.2z M161.5,69.2H160v-0.4h1.5V69.2z M164,69.2h-1.5v-0.4h1.5V69.2z M166.5,69.2H165
		v-0.4h1.5V69.2z M169,69.2h-1.5v-0.4h1.5V69.2z M171.5,69.2H170v-0.4h1.5V69.2z"/>
	<path style="fill:#6DCEF5;" d="M13,68.5h-0.4V69H13V68.5 M24.3,68.5h-0.4V69h0.4V68.5 M35.7,68.5h-0.4V69h0.4V68.5 M47,68.5h-0.4
		V69H47V68.5 M58.4,68.5H58V69h0.4V68.5 M69.7,68.5h-0.4V69h0.4V68.5 M81,68.5h-0.4V69H81V68.5 M92.4,68.5H92V69h0.4V68.5
		 M103.7,68.5h-0.4V69h0.4V68.5 M115,68.5h-0.4V69h0.4V68.5 M126.4,68.5H126V69h0.4V68.5 M137.7,68.5h-0.4V69h0.4V68.5 M149.1,68.5
		h-0.4V69h0.4V68.5 M160.4,68.5H160V69h0.4V68.5 M13,66h-0.4v1.5H13V66 M24.3,66h-0.4v1.5h0.4V66 M35.7,66h-0.4v1.5h0.4V66 M47,66
		h-0.4v1.5H47V66 M58.4,66H58v1.5h0.4V66 M69.7,66h-0.4v1.5h0.4V66 M81,66h-0.4v1.5H81V66 M92.4,66H92v1.5h0.4V66 M103.7,66h-0.4
		v1.5h0.4V66 M115,66h-0.4v1.5h0.4V66 M126.4,66H126v1.5h0.4V66 M137.7,66h-0.4v1.5h0.4V66 M149.1,66h-0.4v1.5h0.4V66 M160.4,66H160
		v1.5h0.4V66 M13,63.5h-0.4V65H13V63.5 M24.3,63.5h-0.4V65h0.4V63.5 M35.7,63.5h-0.4V65h0.4V63.5 M47,63.5h-0.4V65H47V63.5
		 M58.4,63.5H58V65h0.4V63.5 M69.7,63.5h-0.4V65h0.4V63.5 M81,63.5h-0.4V65H81V63.5 M92.4,63.5H92V65h0.4V63.5 M103.7,63.5h-0.4V65
		h0.4V63.5 M115,63.5h-0.4V65h0.4V63.5 M126.4,63.5H126V65h0.4V63.5 M137.7,63.5h-0.4V65h0.4V63.5 M149.1,63.5h-0.4V65h0.4V63.5
		 M160.4,63.5H160V65h0.4V63.5 M13,61h-0.4v1.5H13V61 M24.3,61h-0.4v1.5h0.4V61 M35.7,61h-0.4v1.5h0.4V61 M47,61h-0.4v1.5H47V61
		 M58.4,61H58v1.5h0.4V61 M69.7,61h-0.4v1.5h0.4V61 M81,61h-0.4v1.5H81V61 M92.4,61H92v1.5h0.4V61 M103.7,61h-0.4v1.5h0.4V61
		 M115,61h-0.4v1.5h0.4V61 M126.4,61H126v1.5h0.4V61 M137.7,61h-0.4v1.5h0.4V61 M149.1,61h-0.4v1.5h0.4V61 M160.4,61H160v1.5h0.4V61
		 M13,58.5h-0.4V60H13V58.5 M24.3,58.5h-0.4V60h0.4V58.5 M35.7,58.5h-0.4V60h0.4V58.5 M47,58.5h-0.4V60H47V58.5 M58.4,58.5H58V60
		h0.4V58.5 M69.7,58.5h-0.4V60h0.4V58.5 M81,58.5h-0.4V60H81V58.5 M92.4,58.5H92V60h0.4V58.5 M103.7,58.5h-0.4V60h0.4V58.5
		 M115,58.5h-0.4V60h0.4V58.5 M126.4,58.5H126V60h0.4V58.5 M137.7,58.5h-0.4V60h0.4V58.5 M149.1,58.5h-0.4V60h0.4V58.5 M160.4,58.5
		H160V60h0.4V58.5 M24.3,56h-0.4v1.4h0.4V56 M35.7,56h-0.4v1.4h0.4V56 M47,56h-0.4v1.4H47V56 M69.7,56h-0.4v1.5v0h0.4v0V56 M92.4,56
		H92v1.4h0.4V56 M103.7,56h-0.4v1.4h0.4V56 M115,56h-0.4v1.4h0.4V56 M126.4,56H126v1.4h0.4V56 M137.7,56h-0.4v1.4h0.4V56 M149.1,56
		h-0.4v1.4h0.4V56 M24.3,53.5h-0.4V55h0.4V53.5 M35.7,53.5h-0.4V55h0.4V53.5 M47,53.5h-0.4V55H47V53.5 M69.7,53.5h-0.4V55h0.4V53.5
		 M92.4,53.5H92V55h0.4V53.5 M103.7,53.5h-0.4V55h0.4V53.5 M115,53.5h-0.4V55h0.4V53.5 M126.4,53.5H126V55h0.4V53.5 M137.7,53.5
		h-0.4V55h0.4V53.5 M149.1,53.5h-0.4V55h0.4V53.5 M24.3,51h-0.4v1.5h0.4V51 M35.7,51h-0.4v1.5h0.4V51 M47,51h-0.4v1.5H47V51
		 M69.7,51h-0.4v1.5h0.4V51 M92.4,51H92v1.5h0.4V51 M103.7,51h-0.4v1.5h0.4V51 M115,51h-0.4v1.5h0.4V51 M126.4,51H126v1.5h0.4V51
		 M137.7,51h-0.4v1.5h0.4V51 M149.1,51h-0.4v1.5h0.4V51 M24.3,48.5h-0.4V50h0.4V48.5 M35.7,48.5h-0.4V50h0.4V48.5 M47,48.5h-0.4V50
		H47V48.5 M69.7,48.5h-0.4V50h0.4V48.5 M92.4,48.5H92V50h0.4V48.5 M103.7,48.5h-0.4V50h0.4V48.5 M115,48.5h-0.4V50h0.4V48.5
		 M126.4,48.5H126V50h0.4V48.5 M137.7,48.5h-0.4V50h0.4V48.5 M149.1,48.5h-0.4V50h0.4V48.5 M24.3,46h-0.4v1.5h0.4v-0.9v-0.4V46
		 M35.7,46h-0.4v0.2v0.4v0.9h0.4V46 M47,46h-0.4v0.2v0.4v0.9H47v-0.9v-0.4V46 M69.7,46h-0.4v0.2v0.4v0.9h0.4v-0.9v-0.4V46 M92.4,46
		H92v0.2v0.4v0.9h0.4v-0.9v-0.4V46 M103.7,46h-0.4v1.5h0.4V46 M115,46h-0.4v0.2v0.4v0.9h0.4v-0.9v-0.4V46 M126.4,46H126v1.5h0.4V46
		 M137.7,46h-0.4v0.2v0.4v0.9h0.4v-0.9v-0.4V46 M149.1,46h-0.4v1.5h0.4v-0.9v-0.4V46 M24.3,43.5h-0.4V45h0.4V43.5 M35.7,43.5h-0.4
		V45h0.4V43.5 M47,43.5h-0.4V45H47V43.5 M69.7,43.5h-0.4V45h0.4V43.5 M92.4,43.5H92V45h0.4V43.5 M103.7,43.5h-0.4V45h0.4V43.5
		 M115,43.5h-0.4V45h0.4V43.5 M126.4,43.5H126V45h0.4V43.5 M137.7,43.5h-0.4V45h0.4V43.5 M149.1,43.5h-0.4V45h0.4V43.5 M24.3,41
		h-0.4v1.5h0.4V41 M35.7,41h-0.4v1.5h0.4V41 M47,41h-0.4v1.5H47V41 M69.7,41h-0.4v1.5h0.4V41 M92.4,41H92v1.5h0.4V41 M103.7,41h-0.4
		v1.5h0.4V41 M115,41h-0.4v1.5h0.4V41 M126.4,41H126v1.5h0.4V41 M137.7,41h-0.4v1.5h0.4V41 M149.1,41h-0.4v1.5h0.4V41 M24.3,38.5
		h-0.4V40h0.4V38.5 M35.7,38.5h-0.4V40h0.4V38.5 M47,38.5h-0.4V40H47V38.5 M69.7,38.5h-0.4V40h0.4V38.5 M92.4,38.5H92V40h0.4V38.5
		 M103.7,38.5h-0.4V40h0.4V38.5 M115,38.5h-0.4V40h0.4V38.5 M126.4,38.5H126V40h0.4V38.5 M137.7,38.5h-0.4V40h0.4V38.5 M149.1,38.5
		h-0.4V40h0.4V38.5 M24.3,36h-0.4v1.5h0.4V36 M35.7,36h-0.4v1.5h0.4V36 M47,36h-0.4v1.5H47V36 M69.7,36h-0.4v1.5h0.4V36 M92.4,36H92
		v1.5h0.4V36 M103.7,36h-0.4v1.5h0.4V36 M115,36h-0.4v1.5h0.4V36 M126.4,36H126v1.5h0.4V36 M137.7,36h-0.4v1.5h0.4V36 M149.1,36
		h-0.4v1.5h0.4V36 M24.3,33.5h-0.4V35h0h0.4v-0.2V33.5 M35.7,33.5h-0.4v1.3V35h0.2h0.2V33.5 M47,33.5h-0.4v1.3V35H47v-0.2V33.5
		 M69.7,33.5h-0.4v1.3V35h0.4v-0.2V33.5 M92.4,33.5H92v1.3V35h0.4v-0.2V33.5 M103.7,33.5h-0.4V35h0.4V33.5 M115,33.5h-0.4v1.3V35
		h0.4v-0.2V33.5 M126.4,33.5H126V35h0.4V33.5 M137.7,33.5h-0.4v1.3V35h0.4v-0.2V33.5 M149.1,33.5h-0.4V35h0.3h0.1v-0.2V33.5
		 M24.3,31h-0.4v1.5h0.4V31 M35.7,31h-0.4v1.5h0.4V31 M47,31h-0.4v1.5H47V31 M69.7,31h-0.4v1.5h0.4V31 M92.4,31H92v1.5h0.4V31
		 M103.7,31h-0.4v1.5h0.4V31 M115,31h-0.4v1.5h0.4V31 M126.4,31H126v1.5h0.4V31 M137.7,31h-0.4v1.5h0.4V31 M149.1,31h-0.4v1.5h0.4
		V31 M24.3,28.5h-0.4V30h0.4V28.5 M35.7,28.5h-0.4V30h0.4V28.5 M47,28.5h-0.4V30H47V28.5 M69.7,28.5h-0.4V30h0.4V28.5 M92.4,28.5H92
		V30h0.4V28.5 M103.7,28.5h-0.4V30h0.4V28.5 M115,28.5h-0.4V30h0.4V28.5 M126.4,28.5H126V30h0.4V28.5 M137.7,28.5h-0.4V30h0.4V28.5
		 M149.1,28.5h-0.4V30h0.4V28.5 M24.3,26h-0.4v1.5h0.4V26 M35.7,26h-0.4v1.5h0.4V26 M47,26h-0.4v1.5H47V26 M69.7,26h-0.4v1.5h0.4V26
		 M92.4,26H92v1.5h0.4V26 M103.7,26h-0.4v1.5h0.4V26 M115,26h-0.4v1.5h0.4V26 M126.4,26H126v1.5h0.4V26 M137.7,26h-0.4v1.5h0.4V26
		 M149.1,26h-0.4v1.5h0.4V26 M24.3,23.5H24h0V25h0.4v-1.1V23.5 M35.7,23.5h-0.2h-0.2v0.4V25h0.4V23.5 M47,23.5h-0.4v0.4V25H47v-1.1
		V23.5 M69.7,23.5h-0.4v0.4V25h0.4v-1.1V23.5 M92.4,23.5H92v0.4V25h0.4v-1.1V23.5 M103.7,23.5h-0.4V25h0.4V23.5 M115,23.5h-0.4v0.4
		V25h0.4v-1.1V23.5 M126.4,23.5H126V25h0.4V23.5 M137.7,23.5h-0.4v0.4V25h0.4v-1.1V23.5 M149.1,23.5H149h-0.3V25h0.4v-1.1V23.5
		 M24.3,21h-0.4v1.5h0.4V21 M35.7,21h-0.4v1.5h0.4V21 M47,21h-0.4v1.5H47V21 M69.7,21h-0.4v1.5h0.4V21 M92.4,21H92v1.5h0.4V21
		 M103.7,21h-0.4v1.5h0.4V21 M115,21h-0.4v1.5h0.4V21 M126.4,21H126v1.5h0.4V21 M137.7,21h-0.4v1.5h0.4V21 M149.1,21h-0.4v1.5h0.4
		V21 M24.3,18.5h-0.4V20h0.4V18.5 M35.7,18.5h-0.4V20h0.4V18.5 M47,18.5h-0.4V20H47V18.5 M69.7,18.5h-0.4V20h0.4V18.5 M92.4,18.5H92
		V20h0.4V18.5 M103.7,18.5h-0.4V20h0.4V18.5 M115,18.5h-0.4V20h0.4V18.5 M126.4,18.5H126V20h0.4V18.5 M137.7,18.5h-0.4V20h0.4V18.5
		 M149.1,18.5h-0.4V20h0.4V18.5 M24.3,16h-0.4v1.5h0.4V16 M35.7,16h-0.4v1.5h0.4V16 M47,16h-0.4v1.5H47V16 M69.7,16h-0.4v1.5h0.4V16
		 M92.4,16H92v1.5h0.4V16 M103.7,16h-0.4v1.5h0.4V16 M115,16h-0.4v1.5h0.4V16 M126.4,16H126v1.5h0.4V16 M137.7,16h-0.4v1.5h0.4V16
		 M149.1,16h-0.4v1.5h0.4V16 M24.3,13.5h-0.4V15h0.4V13.5 M35.7,13.5h-0.4V15h0.4V13.5 M47,13.5h-0.4V15H47V13.5 M69.7,13.5h-0.4V15
		h0.4V13.5 M92.4,13.5H92V15h0.4V13.5 M103.7,13.5h-0.4V15h0.4V13.5 M115,13.5h-0.4V15h0.4V13.5 M126.4,13.5H126V15h0.4V13.5
		 M137.7,13.5h-0.4V15h0.4V13.5 M149.1,13.5h-0.4V15h0.4V13.5 M13,11h-0.4v1.1v0l0.2-0.2H13V11 M24.3,11h-0.4v1h0.4V11 M35.7,11
		h-0.4v1h0.4V11 M47,11h-0.4v1H47V11 M58.4,11H58v1H58l0.3,0.3V11 M69.7,11h-0.4v1.1v0.4h0.4v-0.4V11 M81,11h-0.4v1.1l0.2-0.2H81V11
		 M92.4,11H92v1h0.4V11 M103.7,11h-0.4v1h0.4V11 M115,11h-0.4v1h0.4V11 M126.4,11H126v1h0.4V11 M137.7,11h-0.4v1h0.4V11 M149.1,11
		h-0.4v1h0.4V11 M160.4,11H160v1h0.2l0.2,0.2v0V11 M13,8.5h-0.4V10H13V8.5 M24.3,8.5h-0.4V10h0.4V8.5 M35.7,8.5h-0.4V10h0.4V8.5
		 M47,8.5h-0.4V10H47V8.5 M58.4,8.5H58V10h0.4V8.5 M69.7,8.5h-0.4V10h0.4V8.5 M81,8.5h-0.4V10H81V8.5 M92.4,8.5H92V10h0.4V8.5
		 M103.7,8.5h-0.4V10h0.4V8.5 M115,8.5h-0.4V10h0.4V8.5 M126.4,8.5H126V10h0.4V8.5 M137.7,8.5h-0.4V10h0.4V8.5 M149.1,8.5h-0.4V10
		h0.4V8.5 M160.4,8.5H160V10h0.4V8.5 M13,6h-0.4v1.5H13V6 M24.3,6h-0.4v1.5h0.4V6 M35.7,6h-0.4v1.5h0.4V6 M47,6h-0.4v1.5H47V6
		 M58.4,6H58v1.5h0.4V6 M69.7,6h-0.4v1.5h0.4V6 M81,6h-0.4v1.5H81V6 M92.4,6H92v1.5h0.4V6 M103.7,6h-0.4v1.5h0.4V6 M115,6h-0.4v1.5
		h0.4V6 M126.4,6H126v1.5h0.4V6 M137.7,6h-0.4v1.5h0.4V6 M149.1,6h-0.4v1.5h0.4V6 M160.4,6H160v1.5h0.4V6 M13,3.5h-0.4V5H13V3.5
		 M24.3,3.5h-0.4V5h0.4V3.5 M35.7,3.5h-0.4V5h0.4V3.5 M47,3.5h-0.4V5H47V3.5 M58.4,3.5H58V5h0.4V3.5 M69.7,3.5h-0.4V5h0.4V3.5
		 M81,3.5h-0.4V5H81V3.5 M92.4,3.5H92V5h0.4V3.5 M103.7,3.5h-0.4V5h0.4V3.5 M115,3.5h-0.4V5h0.4V3.5 M126.4,3.5H126V5h0.4V3.5
		 M137.7,3.5h-0.4V5h0.4V3.5 M149.1,3.5h-0.4V5h0.4V3.5 M160.4,3.5H160V5h0.4V3.5 M13,1h-0.4v1.5H13V1 M24.3,1h-0.4v1.5h0.4V1
		 M35.7,1h-0.4v1.5h0.4V1 M47,1h-0.4v1.5H47V1 M58.4,1H58v1.5h0.4V1 M69.7,1h-0.4v1.5h0.4V1 M81,1h-0.4v1.5H81V1 M92.4,1H92v1.5h0.4
		V1 M103.7,1h-0.4v1.5h0.4V1 M115,1h-0.4v1.5h0.4V1 M126.4,1H126v1.5h0.4V1 M137.7,1h-0.4v1.5h0.4V1 M149.1,1h-0.4v1.5h0.4V1
		 M160.4,1H160v1.5h0.4V1"/>
	<path style="fill:#00ADEE;" d="M1.3,1.5V1h0.4v0.5H1.3z M1.3,4V2.5h0.4V4H1.3z M1.3,6.5V5h0.4v1.5H1.3z M1.3,9V7.5h0.4V9H1.3z
		 M1.3,11.5V10h0.4v1.5H1.3z M1.3,14v-1.5h0.4V14H1.3z M1.3,16.5V15h0.4v1.5H1.3z M1.3,19v-1.5h0.4V19H1.3z M1.3,21.5V20h0.4v1.5
		H1.3z M1.3,24v-1.5h0.4V24H1.3z M1.3,26.5V25h0.4v1.5H1.3z M1.3,29v-1.5h0.4V29H1.3z M1.3,31.5V30h0.4v1.5H1.3z M1.3,34v-1.5h0.4
		V34H1.3z M1.3,36.5V35h0.4v1.5H1.3z M1.3,39v-1.5h0.4V39H1.3z M1.3,41.5V40h0.4v1.5H1.3z M1.3,44v-1.5h0.4V44H1.3z M1.3,46.5V45
		h0.4v1.5H1.3z M1.3,49v-1.5h0.4V49H1.3z M1.3,51.5V50h0.4v1.5H1.3z M1.3,54v-1.5h0.4V54H1.3z M1.3,56.5V55h0.4v1.5H1.3z M1.3,59
		v-1.5h0.4V59H1.3z M1.3,61.5V60h0.4v1.5H1.3z M1.3,64v-1.5h0.4V64H1.3z M1.3,66.5V65h0.4v1.5H1.3z M1.3,69v-1.5h0.4V69H1.3z"/>
	<path style="fill:#231F20;" d="M160.5,57.9h-0.3v0.3L160.5,57.9 M81.5,57.9v-0.4H83v0.4H81.5 M84,57.9v-0.4h1.5v0.4H84 M86.5,57.9
		v-0.4H88v0.4H86.5 M89,57.9v-0.4h1.5v0.4H89 M94,57.9v-0.4h1.5v0.4H94 M96.5,57.9v-0.4H98v0.4H96.5 M99,57.9v-0.4h1.5v0.4H99
		 M101.5,57.9v-0.4h1.5v0.4H101.5 M104,57.9v-0.4h1.5v0.4H104 M106.5,57.9v-0.4h1.5v0.4H106.5 M109,57.9v-0.4h1.5v0.4H109
		 M111.5,57.9v-0.4h1.5v0.4H111.5 M116.5,57.9v-0.4h1.5v0.4H116.5 M119,57.9v-0.4h1.5v0.4H119 M121.5,57.9v-0.4h1.5v0.4H121.5
		 M124,57.9v-0.4h1.5v0.4H124 M126.5,57.9v-0.4h1.5v0.4H126.5 M129,57.9v-0.4h1.5v0.4H129 M131.5,57.9v-0.4h1.5v0.4H131.5 M134,57.9
		v-0.4h1.5v0.4H134 M139,57.9v-0.4h1.5v0.4H139 M141.5,57.9v-0.4h1.5v0.4H141.5 M144,57.9v-0.4h1.5v0.4H144 M146.5,57.9v-0.4h1.5
		v0.4H146.5 M151.5,57.9v-0.4h1.5v0.4H151.5 M154,57.9v-0.4h1.5v0.4H154 M156.5,57.9v-0.4h1.5v0.4H156.5 M80.6,57.5V56H81v1.5H80.6
		 M80.6,55v-1.5H81V55H80.6 M160,55v-1.5h0.4V55H160 M80.6,52.5V51H81v1.5H80.6 M160,52.5V51h0.4v1.5H160 M80.6,50v-1.5H81V50H80.6
		 M160,50v-1.5h0.4V50H160 M80.6,47.5V46H81v1.5H80.6 M80.6,45v-1.5H81V45H80.6 M160,45v-1.5h0.4V45H160 M80.6,42.5V41H81v1.5H80.6
		 M160,42.5V41h0.4v1.5H160 M80.6,40v-1.5H81V40H80.6 M160,40v-1.5h0.4V40H160 M80.6,37.5V36H81v1.5H80.6 M160,37.5V36h0.4v1.5H160
		 M80.6,35v-1.5H81V35H80.6 M80.6,32.5V31H81v1.5H80.6 M160,32.5V31h0.4v1.5H160 M80.6,30v-1.5H81V30H80.6 M160,30v-1.5h0.4V30H160
		 M80.6,27.5V26H81v1.5H80.6 M160,27.5V26h0.4v1.5H160 M80.6,25v-1.5H81V25H80.6 M80.6,22.5V21H81v1.5H80.6 M160,22.5V21h0.4v1.5
		H160 M80.6,20v-1.5H81V20H80.6 M160,20v-1.5h0.4V20H160 M80.6,17.5V16H81v1.5H80.6 M160,17.5V16h0.4v1.5H160 M80.6,15v-1.5H81V15
		H80.6 M160,15v-1.5h0.4V15H160 M81.2,57.3V12.7h78.6v10.7h0.7v0.4h-0.1V25H160v-1.1h-0.2v10.9h0.2v-1.3h0.4v1.3h0.1v0.4h-0.7v10.9
		h0.2V46h0.4v0.2h0.1v0.4h-0.1v0.9H160v-0.9h-0.2v10.8h-10.7v0.1h1.4v0.4H149v-0.4h-0.3v-0.1h-10.9v0.1h0.2v0.4h-1.5v-0.4h0.9v-0.1
		h-10.9v0.1H126v-0.1H115v0.1h0.4v0.4H114v-0.4h0.7v-0.1h-10.9v0.1h-0.4v-0.1H92.4v0.1H93v0.4h-1.5v-0.4H92v-0.1H81.2 M81.5,12.5
		v-0.4H83v0.4H81.5 M84,12.5v-0.4h1.5v0.4H84 M86.5,12.5v-0.4H88v0.4H86.5 M89,12.5v-0.4h1.5v0.4H89 M94,12.5v-0.4h1.5v0.4H94
		 M96.5,12.5v-0.4H98v0.4H96.5 M99,12.5v-0.4h1.5v0.4H99 M101.5,12.5v-0.4h1.5v0.4H101.5 M104,12.5v-0.4h1.5v0.4H104 M106.5,12.5
		v-0.4h1.5v0.4H106.5 M109,12.5v-0.4h1.5v0.4H109 M111.5,12.5v-0.4h1.5v0.4H111.5 M116.5,12.5v-0.4h1.5v0.4H116.5 M119,12.5v-0.4
		h1.5v0.4H119 M121.5,12.5v-0.4h1.5v0.4H121.5 M124,12.5v-0.4h1.5v0.4H124 M126.5,12.5v-0.4h1.5v0.4H126.5 M129,12.5v-0.4h1.5v0.4
		H129 M131.5,12.5v-0.4h1.5v0.4H131.5 M134,12.5v-0.4h1.5v0.4H134 M139,12.5v-0.4h1.5v0.4H139 M141.5,12.5v-0.4h1.5v0.4H141.5
		 M144,12.5v-0.4h1.5v0.4H144 M146.5,12.5v-0.4h1.5v0.4H146.5 M151.5,12.5v-0.4h1.5v0.4H151.5 M154,12.5v-0.4h1.5v0.4H154
		 M156.5,12.5v-0.4h1.5v0.4H156.5 M160,11.9h-10.9v0.2h1.4v0.4H149v0h-0.3v-0.5h-10.9v0.2h0.2v0.4h-1.5v-0.4h0.9v-0.2h-10.9v0.5H126
		v-0.5H115v0.2h0.4v0.4H114v-0.4h0.7v-0.2h-10.9v0.5h-0.4v-0.5H92.4v0.2H93v0.4h-1.5v-0.4H92v-0.2H81v0.5h-0.4v-0.4l-0.2,0.2v0.2
		h-0.1v10.9h0.1v0.4h-0.1v10.9h0.1v0.4h-0.1v10.9h0.1v0.4h-0.1v10.9h0.1v0.3l0.3,0.3h79.4v-0.3H159v-0.4h1V56h0.4v1.5h0.1v0.4
		l0.1-0.1V12.3l-0.1-0.1v0.3H159v-0.4h1V11.9"/>
	<path style="fill:#001522;" d="M80.5,57.5L80.5,57.5l-0.1,0.3l0.1,0.1V57.5 M83,57.5h-1.5v0.4H83V57.5 M85.5,57.5H84v0.4h1.5V57.5
		 M88,57.5h-1.5v0.4H88V57.5 M90.5,57.5H89v0.4h1.5V57.5 M93,57.5h-0.6v0H92v0h-0.5v0.4H93V57.5 M95.5,57.5H94v0.4h1.5V57.5
		 M98,57.5h-1.5v0.4H98V57.5 M100.5,57.5H99v0.4h1.5V57.5 M103,57.5h-1.5v0.4h1.5V57.5 M105.5,57.5H104v0.4h1.5V57.5 M108,57.5h-1.5
		v0.4h1.5V57.5 M110.5,57.5H109v0.4h1.5V57.5 M113,57.5h-1.5v0.4h1.5V57.5 M115.5,57.5H115v0h-0.4v0H114v0.4h1.5V57.5 M118,57.5
		h-1.5v0.4h1.5V57.5 M120.5,57.5H119v0.4h1.5V57.5 M123,57.5h-1.5v0.4h1.5V57.5 M125.5,57.5H124v0.4h1.5V57.5 M128,57.5h-1.5v0.4
		h1.5V57.5 M130.5,57.5H129v0.4h1.5V57.5 M133,57.5h-1.5v0.4h1.5V57.5 M135.5,57.5H134v0.4h1.5V57.5 M138,57.5h-0.2v0h-0.4v0h-0.9
		v0.4h1.5V57.5 M140.5,57.5H139v0.4h1.5V57.5 M143,57.5h-1.5v0.4h1.5V57.5 M145.5,57.5H144v0.4h1.5V57.5 M148,57.5h-1.5v0.4h1.5
		V57.5 M150.5,57.5h-1.4v0H149v0.4h1.5V57.5 M153,57.5h-1.5v0.4h1.5V57.5 M155.5,57.5H154v0.4h1.5V57.5 M158,57.5h-1.5v0.4h1.5V57.5
		 M160.5,57.5L160.5,57.5L160.5,57.5l-0.5,0v0h-1v0.4h1.2v-0.1v0.1h0.3l0,0V57.5 M80.5,46.1L80.5,46.1l-0.1,0.4h0.1V46.1 M160,46.1
		h-0.2v0.4h0.2V46.1 M160.5,46.1L160.5,46.1l-0.1,0.4h0.1V46.1 M80.5,34.8L80.5,34.8l-0.1,0.4h0.1V34.8 M160.5,34.8L160.5,34.8
		l-0.1,0.2H160v-0.2h-0.2v0.4h0.7V34.8 M80.5,23.5L80.5,23.5l-0.1,0.4h0.1V23.5 M160.5,23.5h-0.7v0.4h0.2v-0.4L160.5,23.5l-0.1,0.4
		h0.1V23.5 M80.5,12.3L80.5,12.3l-0.1,0.2h0.1V12.3 M83,12.1h-1.5v0.4H83V12.1 M85.5,12.1H84v0.4h1.5V12.1 M88,12.1h-1.5v0.4H88
		V12.1 M90.5,12.1H89v0.4h1.5V12.1 M93,12.1h-0.6v0.4H92v-0.4h-0.5v0.4H93V12.1 M95.5,12.1H94v0.4h1.5V12.1 M98,12.1h-1.5v0.4H98
		V12.1 M100.5,12.1H99v0.4h1.5V12.1 M103,12.1h-1.5v0.4h1.5V12.1 M105.5,12.1H104v0.4h1.5V12.1 M108,12.1h-1.5v0.4h1.5V12.1
		 M110.5,12.1H109v0.4h1.5V12.1 M113,12.1h-1.5v0.4h1.5V12.1 M115.5,12.1H115v0.4h-0.4v-0.4H114v0.4h1.5V12.1 M118,12.1h-1.5v0.4
		h1.5V12.1 M120.5,12.1H119v0.4h1.5V12.1 M123,12.1h-1.5v0.4h1.5V12.1 M125.5,12.1H124v0.4h1.5V12.1 M128,12.1h-1.5v0.4h1.5V12.1
		 M130.5,12.1H129v0.4h1.5V12.1 M133,12.1h-1.5v0.4h1.5V12.1 M135.5,12.1H134v0.4h1.5V12.1 M138,12.1h-0.2v0.4h-0.4v-0.4h-0.9v0.4
		h1.5V12.1 M140.5,12.1H139v0.4h1.5V12.1 M143,12.1h-1.5v0.4h1.5V12.1 M145.5,12.1H144v0.4h1.5V12.1 M148,12.1h-1.5v0.4h1.5V12.1
		 M150.5,12.1h-1.4v0.4H149v0h1.5V12.1 M153,12.1h-1.5v0.4h1.5V12.1 M155.5,12.1H154v0.4h1.5V12.1 M158,12.1h-1.5v0.4h1.5V12.1
		 M160,12.1h-1v0.4h1.5v-0.3l-0.1-0.1v0.3H160V12.1"/>
	<path style="fill:#001522;" d="M92.4,57.3H92v0.1v0h0.4v0V57.3 M103.7,57.3h-0.4v0.1h0.4V57.3 M115,57.3h-0.4v0.1v0h0.4v0V57.3
		 M126.4,57.3H126v0.1h0.4V57.3 M137.7,57.3h-0.4v0.1v0h0.4v0V57.3 M149.1,57.3h-0.4v0.1h0.3h0.1v0V57.3 M81,56h-0.4v1.5H81V56
		 M160.4,56H160v1.5v0h0.4v0V56 M81,53.5h-0.4V55H81V53.5 M160.4,53.5H160V55h0.4V53.5 M81,51h-0.4v1.5H81V51 M160.4,51H160v1.5h0.4
		V51 M81,48.5h-0.4V50H81V48.5 M160.4,48.5H160V50h0.4V48.5 M81,46h-0.4v1.5H81V46 M160.4,46H160v0.2v0.4v0.9h0.4v-0.9v-0.4V46
		 M81,43.5h-0.4V45H81V43.5 M160.4,43.5H160V45h0.4V43.5 M81,41h-0.4v1.5H81V41 M160.4,41H160v1.5h0.4V41 M81,38.5h-0.4V40H81V38.5
		 M160.4,38.5H160V40h0.4V38.5 M81,36h-0.4v1.5H81V36 M160.4,36H160v1.5h0.4V36 M81,33.5h-0.4V35H81V33.5 M160.4,33.5H160v1.3V35
		h0.4v-0.2V33.5 M81,31h-0.4v1.5H81V31 M160.4,31H160v1.5h0.4V31 M81,28.5h-0.4V30H81V28.5 M160.4,28.5H160V30h0.4V28.5 M81,26h-0.4
		v1.5H81V26 M160.4,26H160v1.5h0.4V26 M81,23.5h-0.4V25H81V23.5 M160.4,23.5H160v0.4V25h0.4v-1.1V23.5 M81,21h-0.4v1.5H81V21
		 M160.4,21H160v1.5h0.4V21 M81,18.5h-0.4V20H81V18.5 M160.4,18.5H160V20h0.4V18.5 M81,16h-0.4v1.5H81V16 M160.4,16H160v1.5h0.4V16
		 M81,13.5h-0.4V15H81V13.5 M160.4,13.5H160V15h0.4V13.5 M81,11.9h-0.2l-0.2,0.2v0.4H81V11.9 M92.4,11.9H92v0.2v0.4h0.4v-0.4V11.9
		 M103.7,11.9h-0.4v0.5h0.4V11.9 M115,11.9h-0.4v0.2v0.4h0.4v-0.4V11.9 M126.4,11.9H126v0.5h0.4V11.9 M137.7,11.9h-0.4v0.2v0.4h0.4
		v-0.4V11.9 M149.1,11.9h-0.4v0.5h0.3h0.1v-0.4V11.9 M160.2,11.9H160v0.2v0.4h0.4v-0.3L160.2,11.9"/>
	<path style="fill:#231F20;" d="M14,57.9v-0.4h1.5v0.4H14 M16.5,57.9v-0.4H18v0.4H16.5 M19,57.9v-0.4h1.5v0.4H19 M21.5,57.9v-0.4H23
		v0.4H21.5 M26.5,57.9v-0.4H28v0.4H26.5 M29,57.9v-0.4h1.5v0.4H29 M31.5,57.9v-0.4H33v0.4H31.5 M36.5,57.9v-0.4H38v0.4H36.5
		 M39,57.9v-0.4h1.5v0.4H39 M41.5,57.9v-0.4H43v0.4H41.5 M44,57.9v-0.4h1.5v0.4H44 M49,57.9v-0.4h1.5v0.4H49 M51.5,57.9v-0.4H53v0.4
		H51.5 M54,57.9v-0.4h1.5v0.4H54 M58,57.5V56h0.4v1.5L58,57.5l0,0.4h-1.5v-0.4H58 M12.6,55v-1.5H13V55H12.6 M58,55v-1.5h0.4V55H58
		 M12.6,52.5V51H13v1.5H12.6 M58,52.5V51h0.4v1.5H58 M12.6,50v-1.5H13V50H12.6 M58,50v-1.5h0.4V50H58 M12.6,45v-1.5H13V45H12.6
		 M58,45v-1.5h0.4V45H58 M12.6,42.5V41H13v1.5H12.6 M58,42.5V41h0.4v1.5H58 M12.6,40v-1.5H13V40H12.6 M58,40v-1.5h0.4V40H58
		 M12.6,37.5V36H13v1.5H12.6 M58,37.5V36h0.4v1.5H58 M12.6,32.5V31H13v1.5H12.6 M58,32.5V31h0.4v1.5H58 M12.6,30v-1.5H13V30H12.6
		 M58,30v-1.5h0.4V30H58 M12.6,27.5V26H13v1.5H12.6 M58,27.5V26h0.4v1.5H58 M12.6,22.5V21H13v1.5H12.6 M58,22.5V21h0.4v1.5H58
		 M12.6,20v-1.5H13V20H12.6 M58,20v-1.5h0.4V20H58 M12.6,17.5V16H13v1.5H12.6 M58,17.5V16h0.4v1.5H58 M12.6,15v-1.5H13V15H12.6
		 M58,15v-1.5h0.4V15H58 M13.2,57.3V12.7h44.4v10.7H58v0h0.4V25H58v-1.1h-0.3v10.9H58v-1.3h0.4V35H58v0.2h-0.3v10.9H58V46h0.4v1.5
		H58v-0.9h-0.3v10.8H47v0.1H48v0.4h-1.5v-0.4h0.2v-0.1H35.7v0.1h-0.2v0.4H34v-0.4h1.3v-0.1H24.3v0.1h1.1v0.4H24v-0.4h0v-0.1H13.2
		 M14,12.5v-0.4h1.5v0.4H14 M16.5,12.5v-0.4H18v0.4H16.5 M19,12.5v-0.4h1.5v0.4H19 M21.5,12.5v-0.4H23v0.4H21.5 M26.5,12.5v-0.4H28
		v0.4H26.5 M29,12.5v-0.4h1.5v0.4H29 M31.5,12.5v-0.4H33v0.4H31.5 M36.5,12.5v-0.4H38v0.4H36.5 M39,12.5v-0.4h1.5v0.4H39 M41.5,12.5
		v-0.4H43v0.4H41.5 M44,12.5v-0.4h1.5v0.4H44 M49,12.5v-0.4h1.5v0.4H49 M51.5,12.5v-0.4H53v0.4H51.5 M54,12.5v-0.4h1.5v0.4H54
		 M58,11.9H47v0.2H48v0.4h-1.5v-0.4h0.2v-0.2H35.7v0.5h-0.2v0H34v-0.4h1.3v-0.2H24.3v0.2h1.1v0.4H24v0h0v-0.5H13v0.5h0v0h-0.6v10.9
		H13v0h0V25h-0.4v-1.1h-0.2v10.9h0.2v-1.3H13V35h0v0.2h-0.6v10.9h0.2V46H13v1.5h-0.4v-0.9h-0.2v10.9h0.2V56H13v1.5h0v0.4h-0.4
		l0.3,0.3H58v-0.4v0.4l0.4-0.4V12.3l-0.1-0.1v0.2H58v0h-1.5v-0.4H58V11.9"/>
	<path style="fill:#001522;" d="M12.6,57.5h-0.2v0.3l0.1,0.1H13v-0.4L12.6,57.5L12.6,57.5 M15.5,57.5H14v0.4h1.5V57.5 M18,57.5h-1.5
		v0.4H18V57.5 M20.5,57.5H19v0.4h1.5V57.5 M23,57.5h-1.5v0.4H23V57.5 M25.5,57.5h-1.1v0H24v0.4h1.5V57.5 M28,57.5h-1.5v0.4H28V57.5
		 M30.5,57.5H29v0.4h1.5V57.5 M33,57.5h-1.5v0.4H33V57.5 M35.3,57.5H34v0.4h1.5v-0.4L35.3,57.5L35.3,57.5 M38,57.5h-1.5v0.4H38V57.5
		 M40.5,57.5H39v0.4h1.5V57.5 M43,57.5h-1.5v0.4H43V57.5 M45.5,57.5H44v0.4h1.5V57.5 M48,57.5H47v0h-0.4v0h-0.2v0.4H48V57.5
		 M50.5,57.5H49v0.4h1.5V57.5 M53,57.5h-1.5v0.4H53V57.5 M55.5,57.5H54v0.4h1.5V57.5 M58,57.5h-1.5v0.4H58L58,57.5L58,57.5L58,57.5
		 M12.6,46.1h-0.2v0.4h0.2V46.1 M58,46.1h-0.3v0.4H58V46.1 M12.6,34.8h-0.2v0.4H13V35h-0.4V34.8 M58,34.8h-0.3v0.4H58V35h0V34.8
		 M13,23.5h-0.6v0.4h0.2v-0.4L13,23.5L13,23.5 M58,23.5h-0.3v0.4H58L58,23.5L58,23.5L58,23.5 M12.6,12.1l-0.2,0.2v0.2H13v0h-0.4
		V12.1 M15.5,12.1H14v0.4h1.5V12.1 M18,12.1h-1.5v0.4H18V12.1 M20.5,12.1H19v0.4h1.5V12.1 M23,12.1h-1.5v0.4H23V12.1 M25.5,12.1
		h-1.1v0.4H24v0h1.5V12.1 M28,12.1h-1.5v0.4H28V12.1 M30.5,12.1H29v0.4h1.5V12.1 M33,12.1h-1.5v0.4H33V12.1 M35.3,12.1H34v0.4h1.5v0
		h-0.2V12.1 M38,12.1h-1.5v0.4H38V12.1 M40.5,12.1H39v0.4h1.5V12.1 M43,12.1h-1.5v0.4H43V12.1 M45.5,12.1H44v0.4h1.5V12.1 M48,12.1
		H47v0.4h-0.4v-0.4h-0.2v0.4H48V12.1 M50.5,12.1H49v0.4h1.5V12.1 M53,12.1h-1.5v0.4H53V12.1 M55.5,12.1H54v0.4h1.5V12.1 M58,12.1
		h-1.5v0.4H58v0h0V12.1"/>
	<path style="fill:#001522;" d="M24.3,57.3h-0.4v0.1h0h0.4v0V57.3 M35.7,57.3h-0.4v0.1v0h0.2h0.2V57.3 M47,57.3h-0.4v0.1v0H47v0
		V57.3 M13,56h-0.4v1.5v0H13h0V56 M58.4,56H58v1.5v0h0h0.4V56 M13,53.5h-0.4V55H13V53.5 M58.4,53.5H58V55h0.4V53.5 M13,51h-0.4v1.5
		H13V51 M58.4,51H58v1.5h0.4V51 M13,48.5h-0.4V50H13V48.5 M58.4,48.5H58V50h0.4V48.5 M13,46h-0.4v0.2v0.4v0.9H13V46 M58.4,46H58v0.2
		v0.4v0.9h0.4V46 M13,43.5h-0.4V45H13V43.5 M58.4,43.5H58V45h0.4V43.5 M13,41h-0.4v1.5H13V41 M58.4,41H58v1.5h0.4V41 M13,38.5h-0.4
		V40H13V38.5 M58.4,38.5H58V40h0.4V38.5 M13,36h-0.4v1.5H13V36 M58.4,36H58v1.5h0.4V36 M13,33.5h-0.4v1.3V35H13h0V33.5 M58.4,33.5
		H58v1.3V35h0h0.4V33.5 M13,31h-0.4v1.5H13V31 M58.4,31H58v1.5h0.4V31 M13,28.5h-0.4V30H13V28.5 M58.4,28.5H58V30h0.4V28.5 M13,26
		h-0.4v1.5H13V26 M58.4,26H58v1.5h0.4V26 M13,23.5L13,23.5h-0.4v0.4V25H13V23.5 M58.4,23.5H58h0v0.4V25h0.4V23.5 M13,21h-0.4v1.5H13
		V21 M58.4,21H58v1.5h0.4V21 M13,18.5h-0.4V20H13V18.5 M58.4,18.5H58V20h0.4V18.5 M13,16h-0.4v1.5H13V16 M58.4,16H58v1.5h0.4V16
		 M13,13.5h-0.4V15H13V13.5 M58.4,13.5H58V15h0.4V13.5 M13,11.9h-0.2l-0.2,0.2v0.3H13h0V11.9 M24.3,11.9h-0.4v0.5h0h0.4v-0.4V11.9
		 M35.7,11.9h-0.4v0.2v0.4h0.2h0.2V11.9 M47,11.9h-0.4v0.2v0.4H47v-0.4V11.9 M58,11.9L58,11.9L58,12.1v0.4h0h0.4v-0.2L58,11.9"/>
</g>
<g>
</g>
<g>
</g>
<g>
</g>
<g>
</g>
<g>
</g>
<g>
</g>
<g>
</g>
<g>
</g>
<g>
</g>
<g>
</g>
<g>
</g>
<g>
</g>
<g>
</g>
<g>
</g>
<g>
</g>
</svg>
