<?xml version="1.0" encoding="utf-8"?>
<!-- Generator: Adobe Illustrator 23.1.0, SVG Export Plug-In . SVG Version: 6.00 Build 0)  -->
<svg version="1.1" id="레이어_1" xmlns="http://www.w3.org/2000/svg" xmlns:xlink="http://www.w3.org/1999/xlink" x="0px"
	 y="0px" width="147px" height="130px" viewBox="0 0 147 130" style="enable-background:new 0 0 147 130;" xml:space="preserve">
<style type="text/css">
	.st0{fill:#B06C4F;}
	.st1{fill:#FFFFFF;}
	.st2{fill:#FFF362;}
	.st3{fill:#231F20;}
</style>
<g>
	<g>
		<g>
			<path class="st0" d="M47.7,40.7C58.1,42,67.9,47,77.6,50.6c19,7,44,14.6,44.6,39.4c0.3,12-6.2,23-15.3,30.5c0,0,0,0,0,0
				c-9.5,7.9-21.5,9-32.8,6.1c-13.5-3.5-26.2-10.9-38.1-17.9c-7.9-4.6-15.7-10.4-19.3-19.2c-6.6-16.1-4.2-37.4,13.2-46
				c4.4-2.2,9.4-3.2,14.2-3.1C45.3,40.5,46.5,40.6,47.7,40.7"/>
		</g>
	</g>
	<g>
		<path class="st1" d="M29.9,21.2c-0.1,0.6-0.2,1.2-0.2,1.8c0,0.3-0.1,0.6,0.1,0.9c0.2,0.3,0.6,0.3,1,0.3c0.5,0.1,1,0.2,1.5,0.2
			c1.1,0.1,3.2,0.4,4.3,0.6c0.7,0.2,1.5,0.4,2.1,0.9c0.3,0.3,0.4,0.7,0.4,1c0,0.2,0,0.4,0,0.6c-0.1,0.5-0.3,0.9-0.7,1.2
			s-0.8,0.5-1.3,0.5c-0.6,0-1.2,0.1-1.8,0c-0.4,0-2.2-0.3-2.5-0.3l-2.9-0.4c-0.8-0.1-1.6-0.3-2.4-0.5c-0.6-0.1-1.3-0.4-1.8-0.9
			c-0.4-0.5-0.5-1.1-0.6-1.7c-0.1-1.4,0.2-2.9,0.4-4.3l0.9-7.8c0.1-0.7,0.2-1.5,0.3-2.3c0-0.1,0.3-2.8,0.5-4.2
			C27.3,6,27.6,5,28.8,4.6c0.5-0.1,1-0.2,1.5,0c0.5,0.2,0.9,0.6,1.1,1.1c0.2,0.6,0.2,1.3,0.1,2c-0.1,0.5-0.1,0.9-0.1,1.4L29.9,21.2z
			 M47.8,16c0.2,0,0.4,0.1,0.6,0.1c0.2,0.1,0.5,0.1,0.7,0.2c0.5,0.2,1,0.4,1.1,0.9c0.1,0.3,0.2,0.6,0.1,0.9c0,0.3-0.1,0.6-0.2,0.9
			c-0.1,0.3-0.3,0.7-0.6,0.9c-0.3,0.2-0.6,0.3-0.9,0.3c-0.7,0-1.8-0.2-2.5-0.3c-0.1,0-0.1,0-0.1,0s0,0,0,0.1c-0.2,1-0.4,3-0.5,4
			c-0.1,1.1-0.2,2.2-0.4,3.3l-0.1,0.4c-0.1,1.1-0.3,2.7-1.2,3.4c-0.3,0.3-0.7,0.4-1.1,0.3c0,0,0,0-0.1,0c-2.1-0.3-2-2.8-1.8-4.2
			l2.3-18.9c0-0.1,0.2-1.7,1-2.3c0.3-0.3,1-0.3,1.5-0.3s0.9,0.3,1.1,0.6c0.5,0.7,0.5,1.3,0.4,2.1c0,0.1,0,0.3,0,0.4
			c0,0.7-0.1,1.5-0.1,2.3C47,11.8,47,12.2,47,12.7c-0.1,0.3-0.1,0.5-0.1,0.7l-0.2,1.8c0,0.2-0.1,0.5,0,0.7c0,0,0.6,0.1,0.7,0.1
			C47.5,16,47.6,16,47.8,16L47.8,16z"/>
	</g>
	<g>
		<path class="st1" d="M55.2,21.7L55.2,21.7c-1.5-0.4-3.1-0.7-3.5-1.8C51.2,18.6,52,16.1,52,16c0,0,0.2-1,0.6-2.4
			c0.4-1.5,0.8-3.1,0.8-3.1c0.1-0.3,0.3-1.5,0.8-1.9C54.7,8.1,55.1,8,55.7,8c0.5,0,1.8,0.3,1.8,0.3l7.1,1.7c0.9,0.2,2,0.6,2.7,1.3
			c1,1.1,0.3,2.7,0.1,3.8c-0.2,0.7-0.3,1.3-0.5,2l-0.4,1.7c-0.1,0.2-0.1,0.5-0.2,0.7c-0.2,0.5-0.2,1.1-0.4,1.6
			c-0.2,0.9-0.8,2.2-1.8,2.4c-1.2,0.2-2.4-0.2-3.5-0.5C59.9,22.9,55.9,21.8,55.2,21.7z M52,31.1l1.1-4.5c0.1-0.5,0.2-0.9,0.3-1.4
			c0.3-0.9,1.1-1.3,2-1.1c0.2,0.1,0.9,0.2,1.1,0.4c1,0.6,0.8,1.7,0.7,2.6c0,0.4-0.6,2.8-0.6,3.1c0.1,0.1,0.5,0.3,2.1,0.6
			c1.3,0.3,1.5,0.3,1.5,0.3l10.2,2.4c0,0,1.2,0.6,1.1,1.5c-0.1,0.8-0.4,1.4-0.8,1.7c-0.6,0.5-1.4,0.3-1.4,0.3l-14.9-3.5
			C52.7,33.2,51.8,32,52,31.1z M58.7,12.7c-0.4-0.1-0.7-0.2-1-0.2c-0.4,0-0.5,0-0.8,0.2c-0.2,0.2-0.3,0.7-0.4,0.8l-0.3,1.3
			C56.1,15.5,56,16,56,16c0,0-0.3,1.1-0.1,1.6c0.2,0.5,1.1,0.7,1.8,0.9l0,0c1.1,0.2,1.6,0.4,2.7,0.6c0.3,0.1,0.7,0.2,1,0.2
			c0.4,0.1,0.5-0.1,0.6-0.4c0.1-0.1,0.1-0.2,0.2-0.4c0.2-0.4,0.3-0.8,0.4-1.3c0.2-0.7,0.3-1.3,0.5-2c0-0.3,0.2-0.7,0.2-1
			c-0.1-0.5-0.5-0.6-0.9-0.7L58.7,12.7z M73.8,22.2l-0.8,3.3c-0.1,0.4-0.3,0.9-0.7,1.3c-0.2,0.2-0.4,0.4-0.7,0.5
			c-0.4,0.1-0.8,0.2-1.1,0.1c-0.3-0.1-0.6-0.2-0.8-0.5C69,26.2,69.2,25,69.2,25l2.6-11c0-0.2,0.3-1.1,0.7-1.6
			c0.3-0.4,0.8-0.5,1.5-0.4c0.7,0.1,1.4,0.4,1.6,0.9c0.2,0.4,0.2,0.7,0.2,1.1c0,0.4-0.1,0.9-0.2,1.4l-0.8,3.4
			c0.3,0.1,1.7,0.5,2.1,0.7c0.8,0.3,1,0.7,1,1.2c0,0.5-0.1,1.2-0.5,1.5c-0.7,0.7-1.8,0.4-3,0.2L73.8,22.2z"/>
	</g>
	<g>
		<path class="st1" d="M86.1,37.4c0.2,0.4,0.2,0.7,0.1,1.1c-0.1,0.2-0.3,0.4-0.5,0.6c-0.2,0.1-0.4,0.2-0.6,0.2c-0.2,0-0.3,0-0.5-0.1
			c-0.2,0-0.3-0.1-0.5-0.1l-2.1-0.8c-0.5-0.2-1-0.4-1.6-0.6L79,37c-0.5-0.2-0.9-0.4-1.3-0.6l-2.3-0.9c-0.3-0.1-0.5-0.3-0.8-0.4
			c-0.1-0.1-0.2-0.2-0.4-0.3c-0.1-0.1-0.2-0.2-0.3-0.3c-0.1-0.3-0.1-0.5,0-0.9c0.1-0.3,0.3-0.5,0.6-0.6c0.1-0.1,0.3-0.1,0.5-0.1
			c0.2,0,0.4,0,0.6,0c0.2,0,0.3,0.1,0.4,0.1l8.2,3.2c0.3,0.1,0.6,0.2,0.8,0.4c0.2,0.1,0.4,0.2,0.6,0.3C85.9,37.1,86,37.2,86.1,37.4z
			 M77.3,27.5c0-0.9,0.2-1.6,0.5-2.3c0.3-0.8,0.7-1.3,1.2-1.9c0.5-0.5,1.1-0.9,1.7-1.1c0.6-0.3,1.3-0.4,2-0.4
			c0.7-0.1,1.4,0.1,2.2,0.4c0.3,0.1,0.5,0.2,0.8,0.3c0.2,0.1,0.5,0.2,0.7,0.4c0.1,0.1,0.2,0.1,0.4,0.2c0.2,0.1,0.3,0.2,0.3,0.3
			c0.3,0.2,0.5,0.4,0.7,0.7c0.2,0.2,0.4,0.5,0.6,0.7c0.1,0.2,0.3,0.4,0.4,0.7c0.2,0.4,0.3,0.7,0.3,1.1c0.1,0.4,0.1,0.7,0,1.1
			c0,0.4-0.1,0.7-0.2,1.1c-0.1,0.3-0.2,0.7-0.3,1c-0.1,0.2-0.2,0.4-0.3,0.6c-0.2,0.2-0.3,0.5-0.4,0.6c-0.3,0.5-0.7,1-1.2,1.4
			c-0.5,0.4-1,0.6-1.7,0.7c-0.5,0.1-0.9,0.1-1.3,0c-0.4,0-0.9-0.1-1.3-0.2c-0.2,0-0.3-0.1-0.5-0.1c-0.1,0-0.2-0.1-0.4-0.1l-0.4-0.2
			c-0.1,0-0.2-0.1-0.4-0.2c-0.2-0.1-0.4-0.1-0.5-0.3c-0.2-0.1-0.4-0.2-0.6-0.3c-0.4-0.2-0.7-0.5-1-0.8c-0.3-0.3-0.6-0.7-0.8-1.1
			C77.4,29.1,77.2,28.4,77.3,27.5z M80.5,26.9c-0.1,0.4-0.1,0.7,0,1c0.1,0.6,0.4,1.1,0.9,1.5c0.4,0.3,0.7,0.5,1.2,0.7
			c0.3,0.1,0.4,0.1,0.7,0.2c0.2,0.1,0.4,0,0.7,0c0.3,0,0.7-0.2,1-0.4c0.3-0.2,0.5-0.5,0.7-0.8c0.3-0.5,0.4-0.9,0.5-1.4
			c0-0.2,0-0.5,0-0.6c-0.1-0.1,0-0.3-0.1-0.4c0-0.1-0.1-0.2-0.1-0.4c-0.1-0.1-0.2-0.2-0.3-0.3c-0.1-0.1-0.2-0.2-0.3-0.3
			c-0.3-0.2-0.7-0.4-1.1-0.6c-0.4-0.1-0.8-0.2-1.1-0.2c-0.4,0-0.7,0.1-1.1,0.3c-0.3,0.2-0.6,0.5-0.9,0.9
			C80.7,26.3,80.5,26.5,80.5,26.9z M93.9,30.2c-0.2,0.6-0.4,1.2-0.7,1.9l-1.4,3.5c-0.3,0.7-0.5,1.2-0.7,1.8l-1,2.5
			c-0.2,0.4-0.4,0.9-0.5,1.3c-0.1,0.3-0.2,0.6-0.4,0.8c-0.1,0.2-0.2,0.4-0.4,0.5c-0.1,0.1-0.2,0.2-0.3,0.3c-0.1,0-0.3,0.1-0.6,0.1
			c-0.3,0.1-0.7,0-1.1-0.2c-0.2-0.2-0.4-0.3-0.4-0.5c-0.1-0.1-0.1-0.4-0.1-0.6c0-0.2,0-0.4,0.1-0.6c0-0.1,0-0.3,0.1-0.4l0.1-0.2
			l5-12.9c0.1-0.4,0.3-0.7,0.6-1.2c0.2-0.4,0.5-0.7,0.8-0.8c0.2-0.1,0.4-0.1,0.6-0.1c0.2,0,0.4,0.1,0.6,0.2c0.2,0.1,0.4,0.2,0.6,0.5
			c0.1,0.2,0.2,0.5,0.2,0.7c0,0.4,0,0.7-0.1,1.1c-0.1,0.3-0.3,0.7-0.4,1L93.9,30.2z"/>
	</g>
	<g>
	</g>
	<g>
		<path class="st1" d="M97.7,41.1c0-0.8,0.5-1.6,1.4-1.8c0.9-0.2,2.2,0.7,2.3,0.7l14.8,9.9c1.2,0.7,2.9,1.9,1.8,3.5
			c-1.2,1.8-3.9-0.2-5-1l-1-0.7c-0.7-0.4-1.4-0.9-2.1-1.4l-1-0.7c-0.6,1-1.4,2.3-2.1,3c-0.5,0.6-1.2,1.1-2.1,1.1
			c-0.8,0-1.6-0.5-1.9-1.2c-0.3-0.6-0.1-1.4,0.2-1.9c0.2-0.5,0.6-0.9,0.8-1.3c0.4-0.7,0.9-1.5,1.4-2.2l-0.7-0.4
			c-2-1.3-3.4-2.1-5.3-3.5C98.4,42.7,97.7,42.1,97.7,41.1z M113.8,38.1l-2.4,0.5c-1.3,0.2-2.5,0.4-3.8,0.6c-0.1,0-0.2,0-0.3,0
			c-1.1,0.2-2.2,0.6-3.3,0.2c-0.7-0.3-1.5-1.1-1.5-1.9c0-1.2,1.3-1.7,2.2-2c1.9-0.5,3.8-0.9,5.7-1.1c1.2-0.2,3.8-1,3.8-1
			s1.2-2.3,2.5-2.6c0.7-0.1,1.9,0.5,2.3,1c0.7,0.8,0.5,1.6,0.1,2.5c-0.4,0.7-0.8,1-0.8,1.9c0,0.6,0.1,1.3,0.2,1.9
			c0.3,2.2,0.6,4.2,1,6.4c0.2,1.4,0,3.9-2,3.6c-1.4-0.2-1.8-1.7-2-2.8L113.8,38.1z"/>
	</g>
	<g>
		<path class="st1" d="M131.6,72.1l-1.4,1.1c-0.2,0.2-1.3,1-1.4,1.2c-0.4,0.3-0.7,0.6-1.1,0.9c-0.7,0.5-1.7,0.3-2.3-0.4
			c-0.1-0.2-0.5-0.7-0.6-0.9c-0.4-1.1,0.3-1.8,1.1-2.5c0.3-0.2,1.4-1.2,1.6-1.5c-0.1-0.1-0.3-0.5-1.3-1.7c-0.8-1.1-1-1.2-1-1.2
			l-7.2-9.1c0-0.1-0.6-1.2,0-1.9c0.6-0.6,1.2-0.9,1.7-0.9c0.8,0,1.3,0.6,1.3,0.6l10.4,13.1C132.5,70.3,132.4,71.5,131.6,72.1z
			 M129.3,60.8c-5.3-1.4-7.7-8.9-3.3-12.4c1.3-1.1,2.8-1.5,4.1-1.5l-0.4-0.5c-0.7-0.8-0.6-2,0.1-2.5c0.8-0.6,1.9-0.4,2.5,0.4
			l2.6,3.3l0.8-0.6c0.7-0.5,1.7-0.3,2.3,0.5s0.6,1.9,0,2.4l-0.8,0.6l2.8,3.5c0.7,0.8,0.6,2-0.2,2.6c-0.7,0.6-1.9,0.4-2.5-0.4
			l-0.2-0.3c-0.3,1.4-1,2.7-2.3,3.7C133.4,60.9,131.3,61.3,129.3,60.8z M132.4,56.5c3-2.4-0.8-7.5-4-5c-1.8,1.4-1.2,3.6,0.1,4.8
			C129.6,57.2,131.1,57.5,132.4,56.5z M139,66.2l-2.3,1.8c-0.4,0.3-0.8,0.5-1.4,0.6c-0.3,0.1-0.6,0-0.8,0c-0.4-0.1-0.7-0.4-0.9-0.6
			c-0.2-0.3-0.3-0.5-0.4-0.8c-0.1-1,0.7-1.8,0.7-1.9l8.3-6.6c0.1-0.1,0.9-0.7,1.5-0.8c0.4-0.1,1,0.1,1.4,0.5
			c0.5,0.5,0.8,1.2,0.7,1.7c-0.1,0.4-0.3,0.7-0.5,0.9c-0.2,0.4-0.6,0.7-1,0.9l-1.7,1.4c0,0-0.3,0.2-0.8,0.6c0.2,0.3,1.3,1.7,1.4,2
			c0.4,0.8,0.3,1.2,0,1.6c-0.3,0.4-0.8,0.9-1.3,0.9c-1,0.1-1.6-0.8-2.4-1.7L139,66.2z"/>
	</g>
	<g>
		<g>
			<g>
				<path class="st2" d="M8.8,27.5c0,0,5.6,12.3,14,11c0,0-10.4,4.6-9.4,12.4c0,0-4.7-10.5-11.5-9.2C1.9,41.8,12.6,39.2,8.8,27.5"/>
			</g>
		</g>
		<g>
			<g>
				<path class="st3" d="M13.4,52.1c-0.5,0-0.9-0.3-1.1-0.7c0-0.1-4.4-9.6-10.3-8.5C1.5,43,0.9,42.6,0.7,42
					c-0.1-0.6,0.3-1.2,0.9-1.4c0,0,4-1,5.9-4.3c1.3-2.2,1.3-5,0.3-8.4c-0.2-0.6,0.1-1.2,0.7-1.4c0.6-0.2,1.2,0,1.5,0.6
					c0.1,0.1,5.3,11.5,12.7,10.3c0.6-0.1,1.1,0.3,1.3,0.8c0.2,0.6-0.1,1.2-0.6,1.4c-0.1,0-9.6,4.4-8.7,11.2c0.1,0.6-0.3,1.1-0.8,1.3
					C13.6,52.1,13.5,52.1,13.4,52.1z M6,41.1c2.8,1.2,5.1,3.8,6.5,6c1.1-3.5,4-6.1,6.4-7.7c-3.5-1-6.2-3.8-8.1-6.4
					c-0.1,1.6-0.5,3.1-1.3,4.4C8.6,39.1,7.3,40.3,6,41.1z"/>
			</g>
		</g>
	</g>
	<g>
		<path class="st1" d="M27.8,70.3L27.8,70.3c-1.8-0.4-3.8-0.8-4.4-2.2c-0.6-1.5,0.3-4.6,0.3-4.7c0,0,0.3-1.3,0.7-3
			c0.5-1.8,0.9-3.8,0.9-3.8c0.1-0.3,0.4-1.8,0.9-2.3c0.6-0.6,1.1-0.8,1.9-0.8c0.6,0.1,2.2,0.3,2.2,0.3l8.7,2
			c1.1,0.3,2.5,0.7,3.3,1.5c1.3,1.3,0.4,3.3,0.1,4.7c-0.2,0.8-0.4,1.6-0.5,2.4l-0.5,2.1c-0.1,0.3-0.1,0.6-0.2,0.9
			c-0.2,0.6-0.3,1.3-0.5,2c-0.2,1.1-0.9,2.7-2.2,2.9c-1.5,0.2-2.9-0.3-4.3-0.6C33.6,71.7,28.6,70.4,27.8,70.3z M23.9,81.9l1.2-5.5
			c0.1-0.6,0.2-1.2,0.4-1.7c0.4-1.1,1.3-1.6,2.5-1.3c0.3,0.1,1.1,0.3,1.4,0.4c1.3,0.7,1,2.1,0.8,3.2c-0.1,0.4-0.7,3.4-0.7,3.8
			c0.1,0.1,0.7,0.3,2.5,0.7c1.7,0.4,1.8,0.3,1.9,0.3l12.6,2.8c0,0,1.5,0.7,1.4,1.9c-0.1,1-0.4,1.7-1,2.2c-0.8,0.6-1.7,0.4-1.8,0.4
			l-18.3-4.1C24.8,84.4,23.6,83,23.9,81.9z M32,59.2c-0.5-0.1-0.8-0.2-1.2-0.2c-0.4-0.1-0.6,0-1,0.3c-0.3,0.2-0.4,0.9-0.4,1L29,61.9
			c-0.2,0.7-0.4,1.5-0.4,1.5c0,0-0.4,1.3,0,2c0.3,0.6,1.3,0.8,2.3,1l0,0c1.4,0.3,2,0.4,3.3,0.8c0.4,0.1,0.8,0.2,1.3,0.2
			c0.4,0.1,0.6-0.1,0.7-0.4c0.1-0.1,0.1-0.3,0.2-0.5c0.2-0.5,0.4-1,0.5-1.6c0.2-0.8,0.4-1.6,0.6-2.5c0-0.4,0.2-0.8,0.2-1.2
			c-0.1-0.6-0.6-0.7-1.1-0.8L32,59.2z M50.6,70.7l-0.9,4c-0.2,0.5-0.4,1.1-0.8,1.6c-0.2,0.3-0.5,0.5-0.8,0.6
			c-0.4,0.2-0.9,0.2-1.4,0.1c-0.4-0.1-0.7-0.3-1-0.5c-0.9-0.8-0.7-2.3-0.7-2.3l3-13.5c0.1-0.2,0.4-1.4,0.8-1.9
			c0.3-0.4,1-0.7,1.8-0.6c0.9,0.1,1.7,0.5,2,1.1c0.2,0.5,0.2,0.9,0.2,1.3c0,0.5-0.1,1.1-0.3,1.7l-0.9,4.2c0.4,0.1,2.1,0.6,2.5,0.8
			c1,0.4,1.2,0.9,1.2,1.5c0,0.6-0.2,1.5-0.6,1.9c-0.8,0.9-2.1,0.6-3.6,0.2L50.6,70.7z"/>
	</g>
	<g>
		<path class="st1" d="M77.9,96c-0.1,1-0.7,1.5-1.7,1.4c-0.7,0-1.3-0.3-1.8-0.5l-16.8-7.4c-1-0.4-2-0.9-3-1.4c-1-0.5-1.4-1.6-1-2.7
			l1-2.6c0.2-0.5,0.5-1.4,1.2-1.7c1-0.4,2.3,0,3.4,0.5c1.4,0.6,5.9,2.7,16.9,7.5l0.6-1.3L58.8,80c-0.5-0.2-0.9-0.4-1.2-0.6
			c-0.4-0.3-0.7-0.5-0.8-0.9c-0.1-0.6,0-1.2,0.4-1.7c0.6-0.6,1.7-0.3,2.3-0.1c0.4,0.1,0.8,0.2,1.2,0.4c2.2,1,4.7,2.1,17.6,7.8
			c2.4,1.1,3.5,2.4,2.7,4l-1.1,2.6c-0.3,0.6-0.9,1.2-1.8,1.3c-0.8,0.1-1.4-0.2-2-0.5l-17.1-7.5l-0.6,1.3l18.4,8.1
			C77.4,94.6,78,95.1,77.9,96z M64,71.5L72,75c0,0,6.7,2.9,9.9,4.4l0.2,0.1c1,0.5,2,0.8,2.7,1.6c0.6,0.6,0.7,1.4,0.4,2.1
			c-0.3,0.6-0.7,1-1.4,1.2c-1.1,0.4-2.3-0.2-3.2-0.7l-20.7-9.1c-0.1,0-1.8-0.7-2.1-1.8c-0.2-0.4-0.1-0.9,0.1-1.4
			c0.2-0.5,0.6-0.9,1-1c0.9-0.3,1.6-0.1,2.3,0.2c0.1,0.1,0.3,0.1,0.4,0.2C62.5,70.8,64,71.5,64,71.5z M65.1,59.9
			c1.1-1.1,2.6-0.7,3.8-0.2l16.8,7.4c1,0.4,1.8,0.8,2.6,1.6c0.6,0.7,0.8,1.6,0.4,2.4c-0.4,0.8-1.2,1.2-2.1,1.1
			c-0.5-0.1-1.2-0.3-2-0.7c-0.6-0.3-1-0.5-1.1-0.5L73,66.4c-0.7-0.3-1.5-0.6-2.2-1c-0.6-0.3-1.1-0.7-1.7-0.8c-0.6-0.1-0.8,0.5-1,1.2
			c0.6,0.4,1.3,0.7,2,1l6.9,3c0.4,0.2,3.3,1.5,3.6,1.6c0.3,0.1,2.3,1,2.6,1.1c1.1,0.5,2,1.1,2.6,1.8c0.4,0.5,0.6,0.8,0.5,1.4
			c-0.1,0.6-0.5,1.2-1,1.5c-1.1,0.6-2,0.3-3-0.2c-1-0.4-6.3-2.7-7.8-3.3c-1.5-0.7-4.6-2-6-2.7c-1.6-0.7-3.1-1.5-4.7-2.2
			c-2.3-1-1.6-2.6-0.8-4.6c0.1-0.3,0.3-0.7,0.4-1C63.9,62.1,64.3,60.8,65.1,59.9z"/>
	</g>
	<g>
		<path class="st1" d="M86.7,101l8.7-9.1c0.6-0.6,1.2-1.2,1.7-1.9c0.2-0.2,0.5-0.7,0.4-1c-0.1-0.3-0.4-0.5-0.6-0.7
			c-0.2-0.3-0.5-0.5-0.8-0.7l-1.3-1.3c-0.7-0.6-1.3-1.3-1.9-1.9c-0.3-0.2-0.5-0.5-0.8-0.8c-0.4-0.4-0.9-0.9-1-1.5
			c-0.2-0.9,0.3-1.7,0.8-2.2c0.3-0.4,0.8-0.7,1.3-0.9c0.3-0.1,0.6-0.2,0.8-0.1c0.4,0,1,0.3,1.3,0.4c1,0.6,1.9,1.5,2.7,2.3l5,4.7
			c0.4,0.5,1,1.1,1.3,1.8c0.2,0.4,0.3,0.9,0.3,1.3c-0.2,0.9-0.7,1.4-1.2,2.1c-0.9,1.1-2,2.2-3,3.2l-8.9,9.3
			c-0.1,0.1-2.3,2.5-3.5,3.6c-0.8,0.7-1.9,1.5-3.2,0.9c-0.5-0.2-0.9-0.5-1.2-0.7c-0.5-0.5-0.9-1.2-0.7-1.8c0.3-0.8,0.8-1.7,1.5-2.5
			l1.2-1.3C85.8,101.9,86.2,101.5,86.7,101z M94.7,119.2c-0.2,0.1-0.4,0.1-0.6,0.2c-0.3,0.1-0.7,0.2-1.1,0.1
			c-0.7-0.2-1.3-0.6-1.6-1.2c-0.2-0.3-0.4-0.7-0.4-1c-0.1-1.3,1.4-2.7,1.4-2.8l16.8-17.6c0.8-0.9,2.2-2.3,3.2-2.3
			c0.8,0,1.3,0.4,1.8,0.9c0.7,0.6,0.9,1.6,0.5,2.4c-0.4,1.1-1.3,2-2.1,2.9l-0.1,0.1c-2.7,3-5.9,6.1-8.5,8.9l-6.9,7.2
			c-0.3,0.3-0.6,0.7-1,1C95.7,118.5,95.2,118.9,94.7,119.2z"/>
	</g>
</g>
</svg>
