
<svg xmlns="http://www.w3.org/2000/svg" version="1.1" xmlns:xlink="http://www.w3.org/1999/xlink" preserveAspectRatio="none" x="0px" y="0px" width="1280px" height="70px" viewBox="0 0 1280 70">
<defs>
<g id="Layer0_0_FILL">
<path fill="#FFFFFF" stroke="none" d="
M 1124.15 20
Q 1124.15 5 1109.15 5
L 979.15 5
Q 964.15 5 964.15 20
L 964.15 50.05
Q 964.15 65.05 979.15 65.05
L 1109.15 65.05
Q 1124.15 65.05 1124.15 50.05
L 1124.15 20 Z"/>

<path fill="#1E1E1E" stroke="none" d="
M 1142.2 44.5
Q 1141.35 45.9 1141.35 47.55 1141.35 49.3 1142.2 50.7 1143 52.1 1144.55 53.05 1146.1 54.05 1148.3 54.6 1150.5 55.15 1153.25 55.15 1155.85 55.15 1158 54.6 1160.25 54.05 1161.85 53.05 1163.45 52.05 1164.35 50.65 1165.25 49.25 1165.25 47.55 1165.25 45.85 1164.35 44.45 1163.45 43.1 1161.85 42.1 1160.25 41.1 1158 40.6 1155.85 40.05 1153.25 40.05 1150.5 40.05 1148.3 40.6 1146.1 41.1 1144.55 42.1 1143 43.1 1142.2 44.5
M 1146.1 47.7
Q 1146.1 45.7 1148.05 44.7 1150.05 43.7 1153.25 43.7 1154.7 43.7 1156.05 43.95 1157.35 44.2 1158.35 44.7 1159.35 45.2 1159.95 45.95 1160.5 46.65 1160.5 47.7 1160.5 48.65 1159.95 49.35 1159.35 50.05 1158.35 50.5 1157.35 51 1156.05 51.25 1154.7 51.5 1153.25 51.5 1150.1 51.5 1148.1 50.5 1146.1 49.55 1146.1 47.7
M 1164.95 17.7
Q 1164.95 17.15 1164.45 17.15
L 1160.9 17.15
Q 1160.35 17.15 1160.35 17.7
L 1160.35 22.6 1153.55 22.6 1153.55 21.5
Q 1153.55 19.9 1152.95 19.4 1152.3 18.85 1150.8 18.85
L 1138.7 18.85
Q 1137.2 18.85 1136.6 19.45 1135.95 20 1135.95 21.5
L 1135.95 34.65
Q 1135.95 36.2 1136.6 36.85 1137.2 37.45 1138.9 37.45
L 1150.8 37.45
Q 1152.3 37.45 1152.95 36.85 1153.55 36.2 1153.55 34.65
L 1153.55 34 1160.35 34 1160.35 39
Q 1160.35 39.55 1160.9 39.55
L 1164.45 39.55
Q 1164.95 39.55 1164.95 39
L 1164.95 17.7
M 1140.45 23
Q 1140.45 22.65 1140.5 22.55 1140.6 22.45 1140.95 22.45
L 1148.55 22.45
Q 1148.85 22.45 1148.95 22.6 1149.1 22.7 1149.1 23.05
L 1149.1 33.25
Q 1149.1 33.6 1148.95 33.7 1148.85 33.75 1148.55 33.75
L 1140.95 33.75
Q 1140.6 33.75 1140.5 33.7 1140.45 33.6 1140.45 33.25
L 1140.45 23
M 1153.55 30.4
L 1153.55 26.2 1160.35 26.2 1160.35 30.4 1153.55 30.4 Z"/>
</g>

<path id="Layer0_0_1_STROKES" stroke="#DBDBDB" stroke-width="3" stroke-linejoin="round" stroke-linecap="round" fill="none" d="
M 979.15 5
L 1109.15 5
Q 1124.15 5 1124.15 20
L 1124.15 50.05
Q 1124.15 65.05 1109.15 65.05
L 979.15 65.05
Q 964.15 65.05 964.15 50.05
L 964.15 20
Q 964.15 5 979.15 5 Z"/>
</defs>

<g transform="matrix( 1, 0, 0, 1, 0,0) ">
<use xlink:href="#Layer0_0_FILL"/>

<use xlink:href="#Layer0_0_1_STROKES"/>
</g>
</svg>
