
<svg xmlns="http://www.w3.org/2000/svg" version="1.1" xmlns:xlink="http://www.w3.org/1999/xlink" preserveAspectRatio="none" x="0px" y="0px" width="40px" height="40px" viewBox="0 0 40 40">
<defs>
<g id="Layer0_0_FILL">
<path fill="#CCCCCC" stroke="none" d="
M 8.45 31.6
Q 13.25 36.35 20.05 36.35 26.85 36.35 31.55 31.6 36.4 26.8 36.4 20 36.4 13.25 31.55 8.4 26.85 3.65 20.05 3.65 13.25 3.65 8.45 8.4 3.65 13.25 3.65 20 3.65 26.8 8.45 31.6
M 18.05 24.35
L 12.95 19.3 18.05 24.35 26.85 15.55 18.05 24.35 Z"/>
</g>

<path id="Layer0_0_1_STROKES" stroke="#999999" stroke-width="4" stroke-linejoin="round" stroke-linecap="round" fill="none" d="
M 26.85 15.55
L 18.05 24.35 12.95 19.3"/>
</defs>

<g transform="matrix( 1, 0, 0, 1, 0,0) ">
<use xlink:href="#Layer0_0_FILL"/>

<use xlink:href="#Layer0_0_1_STROKES"/>
</g>
</svg>
