
<svg xmlns="http://www.w3.org/2000/svg" version="1.1" xmlns:xlink="http://www.w3.org/1999/xlink" preserveAspectRatio="none" x="0px" y="0px" width="1280px" height="230px" viewBox="0 0 1280 230">
<defs>
<filter id="Filter_1" x="-20%" y="-20%" width="140%" height="140%" color-interpolation-filters="sRGB">
<feColorMatrix in="SourceGraphic" type="matrix" values="0 0 0 0 1 0 0 0 0 0.4 0 0 0 0 0.4 0 0 0 1 0" result="result1"/>
</filter>

<g id="dfbd4546_0_Layer0_0_FILL">
<path fill="#06ABDB" stroke="none" d="
M 174.4 10.95
Q 174.4 10.55 174.35 10.2 174.25 9.85 174.15 9.5 174.05 9.2 173.9 8.9 173.75 8.55 173.6 8.3 173.35 8 173.1 7.8 172.8 7.55 172.55 7.4 172.25 7.25 171.9 7.15 171.55 7.1 171.1 7.1
L 157.4 7.1
Q 157 7.1 156.6 7.15 156.25 7.25 155.95 7.4 155.65 7.55 155.4 7.8 155.15 8 155 8.3 154.8 8.55 154.6 8.9 154.45 9.2 154.3 9.5 154.15 9.85 154.1 10.2 154.05 10.55 154.05 10.95
L 154.05 18.55
Q 154.05 18.9 154.1 19.2 154.2 19.55 154.35 19.8 154.5 20.1 154.65 20.35 154.85 20.6 155 20.8 155.2 21.05 155.5 21.2 155.7 21.4 156 21.5 156.3 21.65 156.65 21.75 157 21.8 157.4 21.8
L 162.5 21.8
Q 162.45 21.9 162.45 22 162.45 22.15 162.45 22.3
L 162.45 28.45 150.4 28.45
Q 149.9 28.45 149.6 28.55 149.3 28.7 149.2 28.95 149.05 29.25 149 29.6 148.95 29.95 148.95 30.35 148.95 30.7 149 31 149.05 31.3 149.2 31.55 149.3 31.85 149.6 32 149.9 32.1 150.4 32.1
L 178.2 32.1
Q 178.65 32.1 178.95 32 179.25 31.85 179.4 31.55 179.55 31.3 179.6 31 179.7 30.7 179.7 30.35 179.7 29.95 179.6 29.6 179.55 29.25 179.4 28.95 179.25 28.7 178.95 28.55 178.65 28.45 178.2 28.45
L 166.65 28.45 166.65 22.3
Q 166.65 22.15 166.65 22 166.65 21.9 166.65 21.8
L 171.1 21.8
Q 171.5 21.8 171.8 21.75 172.15 21.65 172.45 21.5 172.7 21.4 173 21.2 173.25 21.05 173.5 20.8 173.75 20.6 173.9 20.35 174.05 20.1 174.15 19.8 174.25 19.55 174.35 19.2 174.4 18.9 174.4 18.55
L 174.4 10.95
M 166.85 10.8
Q 167.35 10.8 167.8 10.8 168.25 10.85 168.65 10.85 169.05 10.85 169.45 10.9 169.8 10.9 170.15 10.95
L 170.15 15.1
Q 170.15 15.55 170.15 15.9 170.15 16.25 170.15 16.6 170.15 17 170.15 17.35 170.15 17.7 170.15 18 169.75 18.05 169.4 18.05 169.05 18.05 168.65 18.05 168.2 18.1 167.75 18.1 167.3 18.1 166.85 18.1
L 161.65 18.1
Q 161.2 18.1 160.8 18.1 160.4 18.05 160 18 159.55 18 159.1 18 158.7 17.95 158.25 17.9
L 158.25 13.75
Q 158.25 13.4 158.25 13 158.25 12.65 158.25 12.25 158.25 11.9 158.25 11.55 158.25 11.2 158.25 10.85 158.7 10.85 159.15 10.8 159.6 10.8 160 10.8 160.4 10.8 160.8 10.8 161.2 10.8 161.65 10.8
L 166.85 10.8
M 139.65 36.4
Q 140.05 36.4 140.4 36.3 140.7 36.15 140.85 35.9 141 35.65 141.1 35.3 141.15 35 141.15 34.6 141.15 34.25 141.1 33.9 141 33.6 140.85 33.3 140.7 33 140.4 32.85 140.05 32.7 139.65 32.7
L 127.6 32.7
Q 127.4 32.7 127.2 32.7 127 32.7 126.75 32.65 126.5 32.65 126.3 32.6 126.1 32.6 125.95 32.55
L 125.95 27.45
Q 125.95 27.25 125.9 27.1 125.85 26.9 125.7 26.75 125.6 26.6 125.45 26.5 125.3 26.4 125.1 26.25 124.95 26.2 124.75 26.15 124.6 26.05 124.45 26 124.3 25.95 124.1 25.95 123.9 25.9 123.7 25.9 123.35 25.9 123.05 26 122.75 26.1 122.45 26.3 122.05 26.5 121.9 26.8 121.75 27.1 121.75 27.45
L 121.75 33.65
Q 121.75 34.3 121.9 34.8 122.1 35.3 122.5 35.7 122.9 36.05 123.4 36.25 123.95 36.4 124.65 36.4
L 139.65 36.4
M 138.75 5
Q 138.35 5 138 5.1 137.65 5.2 137.35 5.35 137 5.5 136.85 5.8 136.65 6.05 136.65 6.45
L 136.65 7.6 125.25 7.6 125.25 6.45
Q 125.25 6.25 125.2 6.1 125.15 5.9 125 5.75 124.9 5.65 124.75 5.55 124.65 5.4 124.55 5.3 124.25 5.2 123.85 5.1 123.65 5.05 123.45 5.05 123.3 5 123.2 5 122.45 5 121.85 5.35 121.45 5.5 121.3 5.8 121.15 6.05 121.15 6.45
L 121.15 13.75
Q 121.15 14.75 121.4 15.35 121.65 15.95 122.15 16.25 122.6 16.55 123.3 16.7 124 16.85 124.9 16.85
L 136.45 16.85
Q 137.5 16.85 138.3 16.75 138.7 16.7 139.05 16.6 139.35 16.5 139.6 16.3 140.25 15.95 140.55 15.35 140.7 15.05 140.75 14.65 140.85 14.3 140.85 13.75
L 140.85 6.45
Q 140.85 6.25 140.8 6.1 140.75 5.9 140.7 5.75 140.6 5.65 140.5 5.55 140.35 5.4 140.2 5.3 140 5.25 139.8 5.2 139.6 5.15 139.45 5.1 139.25 5.05 139.1 5.05 138.95 5 138.75 5
M 136.65 11
L 136.65 12.35
Q 136.65 12.65 136.65 12.85 136.65 13 136.65 13.15 136.6 13.25 136.6 13.35 136.25 13.4 135.9 13.4 135.55 13.4 135.15 13.4 134.75 13.4 134.35 13.45 133.9 13.45 133.45 13.45
L 125.6 13.45
Q 125.4 13.25 125.3 13 125.25 12.7 125.25 12.35
L 125.25 11 136.65 11
M 145.7 19.4
Q 145.4 19.25 144.95 19.25
L 117.2 19.25
Q 116.75 19.25 116.4 19.4 116.05 19.55 115.9 19.8 115.7 20.1 115.6 20.4 115.5 20.7 115.5 21.1 115.5 21.5 115.6 21.8 115.7 22.15 115.9 22.4 116.05 22.65 116.4 22.8 116.75 22.9 117.2 22.9
L 129.65 22.9 129.65 27.7
Q 129.65 28.2 129.8 28.5 129.95 28.85 130.3 29.05 130.6 29.25 131.05 29.4 131.45 29.5 131.9 29.5 132.2 29.5 132.55 29.4 132.85 29.25 133.2 29.05 133.5 28.85 133.7 28.5 133.9 28.2 133.9 27.7
L 133.9 22.9 144.95 22.9
Q 145.4 22.9 145.7 22.8 146.05 22.65 146.25 22.4 146.4 22.15 146.45 21.8 146.55 21.5 146.55 21.1 146.55 20.7 146.45 20.4 146.4 20.1 146.25 19.8 146.05 19.55 145.7 19.4
M 49.95 11.35
Q 49.25 9.75 48.1 8.7 46.95 7.65 45.3 7.1 43.7 6.55 41.75 6.55 39.9 6.55 37.9 7.2 35.95 7.85 34.45 8.65 34.05 8.85 33.9 9.1 33.8 9.25 33.9 9.45
L 34.45 12.5
Q 34.55 12.85 34.85 12.9 35.15 12.9 35.5 12.7 37.3 11.65 38.8 11.2 40.35 10.75 42 10.75 43.75 10.75 44.9 12 46.1 13.25 46.1 15.15 46.1 16.85 44.5 19.45 42.9 22.1 39.55 26.05
L 33.45 33.3
Q 33.25 33.6 33.05 33.9 32.9 34.25 32.9 34.55
L 32.9 36.85
Q 32.9 37.35 33.65 37.35
L 50.7 37.35
Q 51.25 37.35 51.25 36.65
L 51.25 33.85
Q 51.25 33.25 50.7 33.25
L 38.95 33.25
Q 39.95 32.1 40.95 30.95 41.95 29.75 42.8 28.65 43.9 27.35 45.3 25.75 46.65 24.1 47.85 22.35 49.05 20.55 49.85 18.7 50.65 16.85 50.65 15.05 50.65 12.95 49.95 11.35 Z"/>

<path fill="#EF59A1" stroke="none" d="
M 152.1 -38.05
L 156.45 -38.05 156.45 -35.8
Q 156.45 -32.4 155 -29.8 154.25 -28.5 153.2 -27.3 152.2 -26.15 150.85 -25.15
L 150.8 -25.1 150.8 -25.1
Q 150.624609375 -24.930859375 150.45 -24.8 150.25 -24.6 150.1 -24.5 149.95 -24.3 149.85 -24.15 149.75 -23.95 149.75 -23.8 149.75 -23.6 149.8 -23.45 149.9 -23.25 150 -23.1 150.2 -22.65 150.55 -22.35 150.65 -22.15 150.8 -22.05 150.95 -21.9 151.2 -21.8 151.4 -21.65 151.65 -21.6 151.85 -21.55 152.1 -21.55 152.25 -21.55 152.45 -21.6 152.65 -21.65 152.9 -21.8 152.9 -21.75 152.85 -21.75
L 152.85 -21.7
Q 153.85 -22.5 154.7 -23.3 155.6 -24.1 156.3 -25 157 -25.85 157.6 -26.8 158.2 -27.8 158.7 -28.85 159.2 -27.85 159.8 -26.9 160.4 -25.95 161.1 -25.05 161.8 -24.1 162.7 -23.35 163.55 -22.6 164.6 -22.05
L 164.65 -22.05 164.7 -22
Q 164.9 -21.85 165.1 -21.75 165.3 -21.7 165.5 -21.7 165.75 -21.7 165.95 -21.75 166.15 -21.8 166.35 -21.9 166.5 -22 166.6 -22.15 166.75 -22.25 166.85 -22.45 167.1 -22.75 167.35 -23.2 167.45 -23.35 167.55 -23.55 167.6 -23.75 167.6 -23.95 167.6 -24.2 167.45 -24.5 167.25 -24.75 166.9 -24.95 165.45 -26.05 164.3 -27.25 163.2 -28.45 162.4 -29.85 160.85 -32.5 160.85 -35.7
L 160.85 -38.05 165.2 -38.05
Q 165.65 -38.05 165.9 -38.15 166.2 -38.3 166.35 -38.65 166.5 -38.9 166.6 -39.2 166.65 -39.55 166.65 -39.9 166.65 -40.25 166.6 -40.55 166.5 -40.9 166.4 -41.15 166.25 -41.45 165.9 -41.6 165.65 -41.7 165.2 -41.7
L 152.1 -41.7
Q 151.6 -41.7 151.3 -41.6 151 -41.45 150.85 -41.15 150.7 -40.9 150.65 -40.55 150.55 -40.25 150.55 -39.9 150.55 -39.5 150.65 -39.15 150.7 -38.85 150.85 -38.6 151 -38.3 151.3 -38.15 151.6 -38.05 152.1 -38.05
M 174.1 -44.4
Q 173.35 -44.8 172.5 -44.8 172.15 -44.8 171.85 -44.7 171.5 -44.6 171.2 -44.4 170.55 -43.9 170.55 -43.05
L 170.55 -13.7
Q 170.55 -13.25 170.7 -12.9 170.85 -12.6 171.2 -12.4 171.5 -12.15 171.85 -12.05 172.15 -11.95 172.5 -11.95 173.35 -11.95 174.1 -12.4 174.4 -12.6 174.6 -12.9 174.75 -13.25 174.75 -13.7
L 174.75 -29.05 178.2 -29.05
Q 178.7 -29.05 179 -29.2 179.35 -29.35 179.5 -29.65 179.7 -29.95 179.75 -30.25 179.85 -30.6 179.85 -30.95 179.85 -31.35 179.75 -31.65 179.7 -32 179.5 -32.25 179.35 -32.5 179 -32.65 178.7 -32.8 178.2 -32.8
L 174.75 -32.8 174.75 -43.05
Q 174.75 -43.5 174.6 -43.8 174.4 -44.15 174.1 -44.4
M 139.65 -12.85
Q 140.05 -12.85 140.4 -12.95 140.7 -13.1 140.85 -13.35 141 -13.6 141.1 -13.95 141.15 -14.25 141.15 -14.65 141.15 -15 141.1 -15.35 141 -15.65 140.85 -15.95 140.7 -16.25 140.4 -16.4 140.05 -16.55 139.65 -16.55
L 127.6 -16.55
Q 127.4 -16.55 127.2 -16.55 127 -16.55 126.75 -16.6 126.5 -16.6 126.3 -16.65 126.1 -16.65 125.95 -16.7
L 125.95 -21.8
Q 125.95 -22 125.9 -22.15 125.85 -22.35 125.7 -22.5 125.6 -22.65 125.45 -22.75 125.3 -22.85 125.1 -23 124.95 -23.05 124.75 -23.1 124.6 -23.2 124.45 -23.25 124.3 -23.3 124.1 -23.3 123.9 -23.35 123.7 -23.35 123.35 -23.35 123.05 -23.25 122.75 -23.15 122.45 -22.95 122.05 -22.75 121.9 -22.45 121.75 -22.15 121.75 -21.8
L 121.75 -15.6
Q 121.75 -14.95 121.9 -14.45 122.1 -13.95 122.5 -13.55 122.9 -13.2 123.4 -13 123.95 -12.85 124.65 -12.85
L 139.65 -12.85
M 115.6 -28.85
Q 115.5 -28.55 115.5 -28.15 115.5 -27.75 115.6 -27.45 115.7 -27.1 115.9 -26.85 116.05 -26.6 116.4 -26.45 116.75 -26.35 117.2 -26.35
L 129.65 -26.35 129.65 -21.55
Q 129.65 -21.05 129.8 -20.75 129.95 -20.4 130.3 -20.2 130.6 -20 131.05 -19.85 131.45 -19.75 131.9 -19.75 132.2 -19.75 132.55 -19.85 132.85 -20 133.2 -20.2 133.5 -20.4 133.7 -20.75 133.9 -21.05 133.9 -21.55
L 133.9 -26.35 144.95 -26.35
Q 145.4 -26.35 145.7 -26.45 146.05 -26.6 146.25 -26.85 146.4 -27.1 146.45 -27.45 146.55 -27.75 146.55 -28.15 146.55 -28.55 146.45 -28.85 146.4 -29.15 146.25 -29.45 146.05 -29.7 145.7 -29.85 145.4 -30 144.95 -30
L 117.2 -30
Q 116.75 -30 116.4 -29.85 116.05 -29.7 115.9 -29.45 115.7 -29.15 115.6 -28.85
M 121.3 -43.45
Q 121.15 -43.2 121.15 -42.8
L 121.15 -35.5
Q 121.15 -34.5 121.4 -33.9 121.65 -33.3 122.15 -33 122.6 -32.7 123.3 -32.55 124 -32.4 124.9 -32.4
L 136.45 -32.4
Q 137.5 -32.4 138.3 -32.5 138.7 -32.55 139.05 -32.65 139.35 -32.75 139.6 -32.95 140.25 -33.3 140.55 -33.9 140.7 -34.2 140.75 -34.6 140.85 -34.95 140.85 -35.5
L 140.85 -42.8
Q 140.85 -43 140.8 -43.15 140.75 -43.35 140.7 -43.5 140.6 -43.6 140.5 -43.7 140.35 -43.85 140.2 -43.95 140 -44 139.8 -44.05 139.6 -44.1 139.45 -44.15 139.25 -44.2 139.1 -44.2 138.95 -44.25 138.75 -44.25 138.35 -44.25 138 -44.15 137.65 -44.05 137.35 -43.9 137 -43.75 136.85 -43.45 136.65 -43.2 136.65 -42.8
L 136.65 -41.65 125.25 -41.65 125.25 -42.8
Q 125.25 -43 125.2 -43.15 125.15 -43.35 125 -43.5 124.9 -43.6 124.75 -43.7 124.65 -43.85 124.55 -43.95 124.25 -44.05 123.85 -44.15 123.65 -44.2 123.45 -44.2 123.3 -44.25 123.2 -44.25 122.45 -44.25 121.85 -43.9 121.45 -43.75 121.3 -43.45
M 125.6 -35.8
Q 125.4 -36 125.3 -36.25 125.25 -36.55 125.25 -36.9
L 125.25 -38.25 136.65 -38.25 136.65 -36.9
Q 136.65 -36.6 136.65 -36.4 136.65 -36.25 136.65 -36.1 136.6 -36 136.6 -35.9 136.25 -35.85 135.9 -35.85 135.55 -35.85 135.15 -35.85 134.75 -35.85 134.35 -35.8 133.9 -35.8 133.45 -35.8
L 125.6 -35.8
M 35.95 -37.2
Q 35.75 -37 35.75 -36.8 35.7 -36.55 35.85 -36.4
L 37.65 -34.25
Q 37.8 -34.1 38.05 -34.15 38.3 -34.15 38.55 -34.3
L 41.5 -36.9 41.5 -13.2
Q 41.5 -12.7 42.05 -12.7
L 45.25 -12.7
Q 45.75 -12.7 45.75 -13.2
L 45.75 -42
Q 45.75 -42.8 45.6 -42.95 45.5 -43.1 44.8 -43.1
L 42.7 -43.1
Q 42.55 -43.1 42.35 -43 42.15 -42.95 42.1 -42.85
L 35.95 -37.2 Z"/>
</g>

<g id="dfbd4546_0_Layer0_0_STROKES_1_FILL">
<path fill="#EF59A1" stroke="none" d="
M 100.15 -29.1
Q 99.8607421875 -29.396484375 99.45 -29.4
L 97.45 -29.4
Q 97.0392578125 -29.396484375 96.75 -29.1 96.453515625 -28.8107421875 96.45 -28.4 96.453515625 -27.9892578125 96.75 -27.7 97.0392578125 -27.403515625 97.45 -27.4
L 99.45 -27.4
Q 99.8607421875 -27.403515625 100.15 -27.7 100.446484375 -27.9892578125 100.45 -28.4 100.446484375 -28.8107421875 100.15 -29.1
M 95.45 -28.4
Q 95.446484375 -28.8107421875 95.15 -29.1 94.8607421875 -29.396484375 94.45 -29.4
L 92.45 -29.4
Q 92.0392578125 -29.396484375 91.75 -29.1 91.453515625 -28.8107421875 91.45 -28.4 91.453515625 -27.9892578125 91.75 -27.7 92.0392578125 -27.403515625 92.45 -27.4
L 94.45 -27.4
Q 94.8607421875 -27.403515625 95.15 -27.7 95.446484375 -27.9892578125 95.45 -28.4
M 90.45 -28.4
Q 90.446484375 -28.8107421875 90.15 -29.1 89.8607421875 -29.396484375 89.45 -29.4
L 87.45 -29.4
Q 87.0392578125 -29.396484375 86.75 -29.1 86.453515625 -28.8107421875 86.45 -28.4 86.453515625 -27.9892578125 86.75 -27.7 87.0392578125 -27.403515625 87.45 -27.4
L 89.45 -27.4
Q 89.8607421875 -27.403515625 90.15 -27.7 90.446484375 -27.9892578125 90.45 -28.4
M 85.15 -29.1
Q 84.8607421875 -29.396484375 84.45 -29.4
L 82.45 -29.4
Q 82.0392578125 -29.396484375 81.75 -29.1 81.453515625 -28.8107421875 81.45 -28.4 81.453515625 -27.9892578125 81.75 -27.7 82.0392578125 -27.403515625 82.45 -27.4
L 84.45 -27.4
Q 84.8607421875 -27.403515625 85.15 -27.7 85.446484375 -27.9892578125 85.45 -28.4 85.446484375 -28.8107421875 85.15 -29.1
M 105.15 -29.1
Q 104.8607421875 -29.396484375 104.45 -29.4
L 102.45 -29.4
Q 102.0392578125 -29.396484375 101.75 -29.1 101.453515625 -28.8107421875 101.45 -28.4 101.453515625 -27.9892578125 101.75 -27.7 102.0392578125 -27.403515625 102.45 -27.4
L 104.45 -27.4
Q 104.8607421875 -27.403515625 105.15 -27.7 105.446484375 -27.9892578125 105.45 -28.4 105.446484375 -28.8107421875 105.15 -29.1
M 66.4 -12.55
Q 66.753515625 -12.3306640625 67.15 -12.45 68.2125 -12.6951171875 69.25 -13.15 69.66015625 -13.2748046875 69.8 -13.65 69.9841796875 -14.0365234375 69.8 -14.45 69.6755859375 -14.809765625 69.3 -15 68.912890625 -15.1337890625 68.5 -15 67.5875 -14.605078125 66.65 -14.4 66.255859375 -14.264453125 66.05 -13.9 65.8302734375 -13.5470703125 65.9 -13.15 66.03515625 -12.756640625 66.4 -12.55
M 71.35 -14.55
Q 71.7822265625 -14.4455078125 72.1 -14.7 72.976953125 -15.2693359375 73.75 -16.05 74.08203125 -16.31171875 74.1 -16.75 74.1111328125 -17.1296875 73.8 -17.45 73.539453125 -17.73203125 73.1 -17.75 72.7203125 -17.76015625 72.4 -17.5 71.723046875 -16.8306640625 70.95 -16.35 70.6419921875 -16.0841796875 70.55 -15.7 70.49453125 -15.2677734375 70.7 -14.95 70.96484375 -14.591796875 71.35 -14.55
M 77.25 -20.15
Q 77.469921875 -20.5052734375 77.35 -20.9 77.2638671875 -21.29453125 76.9 -21.5 76.5458984375 -21.719921875 76.15 -21.65 75.75546875 -21.5126953125 75.55 -21.15 75.081640625 -20.364453125 74.45 -19.65 74.2109375 -19.30625 74.25 -18.9 74.298046875 -18.48828125 74.6 -18.25 74.9431640625 -17.96015625 75.35 -18 75.7609375 -18.0484375 76 -18.4 76.7181640625 -19.235546875 77.25 -20.15
M 77.6 -26.2
Q 77.25546875 -25.93671875 77.15 -25.55 76.9822265625 -24.5517578125 76.65 -23.65 76.5166015625 -23.24296875 76.7 -22.9 76.8828125 -22.49453125 77.25 -22.35 77.6578125 -22.2162109375 78 -22.4 78.4048828125 -22.5822265625 78.55 -23 78.917578125 -24.0484375 79.1 -25.2 79.2052734375 -25.56796875 78.95 -25.9 78.7486328125 -26.244921875 78.35 -26.35 77.9439453125 -26.4056640625 77.6 -26.2
M 78.95 -31
Q 78.6421875 -31.2404296875 78.2 -31.2 77.823828125 -31.1509765625 77.55 -30.85 77.309765625 -30.4927734375 77.35 -30.1 77.446484375 -29.2857421875 77.45 -28.45 77.45 -28.4 77.45 -28.35 77.453515625 -27.9392578125 77.75 -27.65 78.0392578125 -27.353515625 78.45 -27.35 78.8607421875 -27.353515625 79.15 -27.65 79.446484375 -27.9392578125 79.45 -28.35 79.45 -28.4 79.45 -28.45 79.4533203125 -29.4142578125 79.35 -30.35 79.30078125 -30.7255859375 78.95 -31
M 76.1 -35.35
Q 75.966015625 -34.9732421875 76.1 -34.6 76.5099609375 -33.7375 76.8 -32.9 76.9302734375 -32.48515625 77.3 -32.3 77.6771484375 -32.11640625 78.05 -32.25 78.465234375 -32.3802734375 78.65 -32.75 78.8333984375 -33.126953125 78.7 -33.55 78.3900390625 -34.4625 77.95 -35.4 77.795703125 -35.7759765625 77.4 -35.95 77.0220703125 -36.083984375 76.65 -35.95 76.2728515625 -35.7458984375 76.1 -35.35
M 68.35 -43.8
Q 68.1736328125 -44.13515625 67.75 -44.25 66.7142578125 -44.5802734375 65.6 -44.75 65.18671875 -44.803515625 64.85 -44.55 64.5134765625 -44.3046875 64.45 -43.9 64.39609375 -43.48671875 64.65 -43.15 64.8953125 -42.8138671875 65.3 -42.75 66.285546875 -42.619921875 67.2 -42.35 67.615625 -42.2294921875 67.95 -42.45 68.3353515625 -42.6259765625 68.45 -43.05 68.570703125 -43.415234375 68.35 -43.8
M 73.2 -39.15
Q 73.18984375 -38.7205078125 73.45 -38.45 74.134765625 -37.7111328125 74.7 -36.95 74.9458984375 -36.6142578125 75.35 -36.55 75.76328125 -36.49609375 76.1 -36.75 76.4365234375 -36.9953125 76.5 -37.4 76.5533203125 -37.8126953125 76.3 -38.15 75.6650390625 -38.9888671875 74.9 -39.8 74.63828125 -40.08203125 74.2 -40.1 73.8203125 -40.1111328125 73.5 -39.85 73.21796875 -39.539453125 73.2 -39.15
M 73 -41.15
Q 72.9357421875 -41.5541015625 72.6 -41.8 71.7513671875 -42.4279296875 70.85 -42.95 70.4947265625 -43.169921875 70.1 -43.1 69.70546875 -42.9638671875 69.5 -42.6 69.280078125 -42.2458984375 69.35 -41.85 69.4873046875 -41.45546875 69.85 -41.25 70.6486328125 -40.772265625 71.4 -40.2 71.7373046875 -39.9466796875 72.15 -40 72.5546875 -40.0634765625 72.8 -40.4 73.05390625 -40.73671875 73 -41.15 Z"/>
</g>

<g id="dfbd4546_0_Layer0_0_STROKES_2_FILL">
<path fill="#06ABDB" stroke="none" d="
M 66.05 36.1
Q 65.8302734375 36.4529296875 65.9 36.85 66.03515625 37.243359375 66.4 37.45 66.753515625 37.6693359375 67.15 37.55 68.2125 37.3048828125 69.25 36.85 69.66015625 36.7251953125 69.8 36.35 69.9841796875 35.9634765625 69.8 35.55 69.6755859375 35.190234375 69.3 35 68.912890625 34.8662109375 68.5 35 67.5875 35.394921875 66.65 35.6 66.255859375 35.735546875 66.05 36.1
M 74.1 33.25
Q 74.1111328125 32.8703125 73.8 32.55 73.539453125 32.26796875 73.1 32.25 72.7203125 32.23984375 72.4 32.5 71.723046875 33.1693359375 70.95 33.65 70.6419921875 33.9158203125 70.55 34.3 70.49453125 34.7322265625 70.7 35.05 70.96484375 35.408203125 71.35 35.45 71.7822265625 35.5544921875 72.1 35.3 72.976953125 34.7306640625 73.75 33.95 74.08203125 33.68828125 74.1 33.25
M 77.25 29.85
Q 77.469921875 29.4947265625 77.35 29.1 77.2638671875 28.70546875 76.9 28.5 76.5458984375 28.280078125 76.15 28.35 75.75546875 28.4873046875 75.55 28.85 75.081640625 29.635546875 74.45 30.35 74.2109375 30.69375 74.25 31.1 74.298046875 31.51171875 74.6 31.75 74.9431640625 32.03984375 75.35 32 75.7609375 31.9515625 76 31.6 76.7181640625 30.764453125 77.25 29.85
M 77.6 23.8
Q 77.25546875 24.06328125 77.15 24.45 76.9822265625 25.4482421875 76.65 26.35 76.5166015625 26.75703125 76.7 27.1 76.8828125 27.50546875 77.25 27.65 77.6578125 27.7837890625 78 27.6 78.4048828125 27.4177734375 78.55 27 78.917578125 25.9515625 79.1 24.8 79.2052734375 24.43203125 78.95 24.1 78.7486328125 23.755078125 78.35 23.65 77.9439453125 23.5943359375 77.6 23.8
M 79.35 19.65
Q 79.30078125 19.2744140625 78.95 19 78.6421875 18.7595703125 78.2 18.8 77.823828125 18.8490234375 77.55 19.15 77.309765625 19.5072265625 77.35 19.9 77.446484375 20.7142578125 77.45 21.55 77.45 21.6 77.45 21.65 77.453515625 22.0607421875 77.75 22.35 78.0392578125 22.646484375 78.45 22.65 78.8607421875 22.646484375 79.15 22.35 79.446484375 22.0607421875 79.45 21.65 79.45 21.6 79.45 21.55 79.4533203125 20.5857421875 79.35 19.65
M 76.1 14.65
Q 75.966015625 15.0267578125 76.1 15.4 76.5099609375 16.2625 76.8 17.1 76.9302734375 17.51484375 77.3 17.7 77.6771484375 17.88359375 78.05 17.75 78.465234375 17.6197265625 78.65 17.25 78.8333984375 16.873046875 78.7 16.45 78.3900390625 15.5375 77.95 14.6 77.795703125 14.2240234375 77.4 14.05 77.0220703125 13.916015625 76.65 14.05 76.2728515625 14.2541015625 76.1 14.65
M 65.6 5.25
Q 65.18671875 5.196484375 64.85 5.45 64.5134765625 5.6953125 64.45 6.1 64.39609375 6.51328125 64.65 6.85 64.8953125 7.1861328125 65.3 7.25 66.285546875 7.380078125 67.2 7.65 67.615625 7.7705078125 67.95 7.55 68.3353515625 7.3740234375 68.45 6.95 68.570703125 6.584765625 68.35 6.2 68.1736328125 5.86484375 67.75 5.75 66.7142578125 5.4197265625 65.6 5.25
M 73.2 10.85
Q 73.18984375 11.2794921875 73.45 11.55 74.134765625 12.2888671875 74.7 13.05 74.9458984375 13.3857421875 75.35 13.45 75.76328125 13.50390625 76.1 13.25 76.4365234375 13.0046875 76.5 12.6 76.5533203125 12.1873046875 76.3 11.85 75.6650390625 11.0111328125 74.9 10.2 74.63828125 9.91796875 74.2 9.9 73.8203125 9.8888671875 73.5 10.15 73.21796875 10.460546875 73.2 10.85
M 73 8.85
Q 72.9357421875 8.4458984375 72.6 8.2 71.7513671875 7.5720703125 70.85 7.05 70.4947265625 6.830078125 70.1 6.9 69.70546875 7.0361328125 69.5 7.4 69.280078125 7.7541015625 69.35 8.15 69.4873046875 8.54453125 69.85 8.75 70.6486328125 9.227734375 71.4 9.8 71.7373046875 10.0533203125 72.15 10 72.5546875 9.9365234375 72.8 9.6 73.05390625 9.26328125 73 8.85
M 100.15 20.85
Q 99.8607421875 20.553515625 99.45 20.55
L 97.45 20.55
Q 97.0392578125 20.553515625 96.75 20.85 96.453515625 21.1392578125 96.45 21.55 96.453515625 21.9607421875 96.75 22.25 97.0392578125 22.546484375 97.45 22.55
L 99.45 22.55
Q 99.8607421875 22.546484375 100.15 22.25 100.446484375 21.9607421875 100.45 21.55 100.446484375 21.1392578125 100.15 20.85
M 95.45 21.55
Q 95.446484375 21.1392578125 95.15 20.85 94.8607421875 20.553515625 94.45 20.55
L 92.45 20.55
Q 92.0392578125 20.553515625 91.75 20.85 91.453515625 21.1392578125 91.45 21.55 91.453515625 21.9607421875 91.75 22.25 92.0392578125 22.546484375 92.45 22.55
L 94.45 22.55
Q 94.8607421875 22.546484375 95.15 22.25 95.446484375 21.9607421875 95.45 21.55
M 90.45 21.55
Q 90.446484375 21.1392578125 90.15 20.85 89.8607421875 20.553515625 89.45 20.55
L 87.45 20.55
Q 87.0392578125 20.553515625 86.75 20.85 86.453515625 21.1392578125 86.45 21.55 86.453515625 21.9607421875 86.75 22.25 87.0392578125 22.546484375 87.45 22.55
L 89.45 22.55
Q 89.8607421875 22.546484375 90.15 22.25 90.446484375 21.9607421875 90.45 21.55
M 85.15 20.85
Q 84.8607421875 20.553515625 84.45 20.55
L 82.45 20.55
Q 82.0392578125 20.553515625 81.75 20.85 81.453515625 21.1392578125 81.45 21.55 81.453515625 21.9607421875 81.75 22.25 82.0392578125 22.546484375 82.45 22.55
L 84.45 22.55
Q 84.8607421875 22.546484375 85.15 22.25 85.446484375 21.9607421875 85.45 21.55 85.446484375 21.1392578125 85.15 20.85
M 105.15 20.85
Q 104.8607421875 20.553515625 104.45 20.55
L 102.45 20.55
Q 102.0392578125 20.553515625 101.75 20.85 101.453515625 21.1392578125 101.45 21.55 101.453515625 21.9607421875 101.75 22.25 102.0392578125 22.546484375 102.45 22.55
L 104.45 22.55
Q 104.8607421875 22.546484375 105.15 22.25 105.446484375 21.9607421875 105.45 21.55 105.446484375 21.1392578125 105.15 20.85 Z"/>
</g>

<g id="vsdvs434_0_Layer1_0_FILL">
<path fill="#000000" stroke="none" d="
M 7.5 -19.9
Q 5.25 -19.9 3.75 -18.3
L -11.15 -3.5
Q -12.75 -1.95 -12.75 0.25 -12.75 2.5 -11.15 4.1 -11.07734375 4.175 -11 4.25
L 3.35 18.55
Q 4.95 20.05 7.2 20.05 9.35 20.05 10.95 18.55 12.45 16.9 12.45 14.75 12.45 12.5 10.95 11
L 0.25 0.25 11.25 -10.8
Q 12.8 -12.4 12.8 -14.55 12.8 -16.8 11.25 -18.4 9.75 -19.9 7.5 -19.9 Z"/>
</g>

<g id="vsdvs434_0_Layer0_0_FILL">
<path fill="#000000" stroke="none" d="
M 34.95 -4.35
Q 33.2 -6.1 30.65 -6.1
L 24.25 -6.1 23.1 -6.1 18.5 -6.1 17.35 -6.1 0.6 -6.1
Q -1.95 -6.1 -3.75 -4.35 -5.5 -2.55 -5.5 0
L -5.5 0.05
Q -5.5 2.6 -3.75 4.35 -1.95 6.15 0.6 6.15
L 17.35 6.15 18.5 6.15 23.1 6.15 24.25 6.15 30.65 6.15
Q 33.25 6.15 34.95 4.35 36.75 2.65 36.75 0.05
L 36.75 0
Q 36.75 -2.55 34.95 -4.35 Z"/>
</g>

<g id="gfbdbfdbdfm_0_Layer2_0_MEMBER_0_MEMBER_0_FILL">
<path fill="#3B9E89" stroke="none" d="
M 57.05 0.35
L 0.4 0.35 57.05 57.05 57.05 0.35 Z"/>
</g>

<g id="gfbdbfdbdfm_0_Layer2_0_MEMBER_0_MEMBER_1_FILL">
<path fill="#FFFFFF" stroke="none" d="
M 57.05 57.05
L 0.4 0.35 0.4 57.05 57.05 57.05 Z"/>
</g>

<g id="gfbdbfdbdfm_0_Layer2_0_MEMBER_0_MEMBER_2_STROKES_1_FILL">
<path fill="#FFFFFF" stroke="none" d="
M -165.25 52.55
Q -165.253515625 52.1392578125 -165.55 51.85
L -167.65 49.75
Q -167.9392578125 49.453515625 -168.35 49.45 -168.7607421875 49.453515625 -169.05 49.75 -169.346484375 50.0392578125 -169.35 50.45 -169.346484375 50.8607421875 -169.05 51.15
L -166.95 53.25
Q -166.6607421875 53.546484375 -166.25 53.55 -165.8392578125 53.546484375 -165.55 53.25 -165.253515625 52.9607421875 -165.25 52.55
M -214.25 3.55
Q -214.253515625 3.1392578125 -214.55 2.85
L -216.65 0.75
Q -216.9392578125 0.453515625 -217.35 0.45 -217.7607421875 0.453515625 -218.05 0.75 -218.346484375 1.0392578125 -218.35 1.45 -218.346484375 1.8607421875 -218.05 2.15
L -215.95 4.25
Q -215.6607421875 4.546484375 -215.25 4.55 -214.8392578125 4.546484375 -214.55 4.25 -214.253515625 3.9607421875 -214.25 3.55
M -208.55 11.25
Q -208.546484375 11.6607421875 -208.25 11.95
L -206.15 14.05
Q -205.8607421875 14.346484375 -205.45 14.35 -205.0392578125 14.346484375 -204.75 14.05 -204.453515625 13.7607421875 -204.45 13.35 -204.453515625 12.9392578125 -204.75 12.65
L -206.85 10.55
Q -207.1392578125 10.253515625 -207.55 10.25 -207.9607421875 10.253515625 -208.25 10.55 -208.546484375 10.8392578125 -208.55 11.25
M -211.75 5.65
Q -212.0392578125 5.353515625 -212.45 5.35 -212.8607421875 5.353515625 -213.15 5.65 -213.446484375 5.9392578125 -213.45 6.35 -213.446484375 6.7607421875 -213.15 7.05
L -211.05 9.15
Q -210.7607421875 9.446484375 -210.35 9.45 -209.9392578125 9.446484375 -209.65 9.15 -209.353515625 8.8607421875 -209.35 8.45 -209.353515625 8.0392578125 -209.65 7.75
L -211.75 5.65
M -174.25 45.55
Q -174.246484375 45.9607421875 -173.95 46.25
L -171.85 48.35
Q -171.5607421875 48.646484375 -171.15 48.65 -170.7392578125 48.646484375 -170.45 48.35 -170.153515625 48.0607421875 -170.15 47.65 -170.153515625 47.2392578125 -170.45 46.95
L -172.55 44.85
Q -172.8392578125 44.553515625 -173.25 44.55 -173.6607421875 44.553515625 -173.95 44.85 -174.246484375 45.1392578125 -174.25 45.55
M -175.05 42.75
Q -175.053515625 42.3392578125 -175.35 42.05
L -177.45 39.95
Q -177.7392578125 39.653515625 -178.15 39.65 -178.5607421875 39.653515625 -178.85 39.95 -179.146484375 40.2392578125 -179.15 40.65 -179.146484375 41.0607421875 -178.85 41.35
L -176.75 43.45
Q -176.4607421875 43.746484375 -176.05 43.75 -175.6392578125 43.746484375 -175.35 43.45 -175.053515625 43.1607421875 -175.05 42.75
M -182.35 35.05
Q -182.6392578125 34.753515625 -183.05 34.75 -183.4607421875 34.753515625 -183.75 35.05 -184.046484375 35.3392578125 -184.05 35.75 -184.046484375 36.1607421875 -183.75 36.45
L -181.65 38.55
Q -181.3607421875 38.846484375 -180.95 38.85 -180.5392578125 38.846484375 -180.25 38.55 -179.953515625 38.2607421875 -179.95 37.85 -179.953515625 37.4392578125 -180.25 37.15
L -182.35 35.05
M -189.75 28.05
Q -189.753515625 27.6392578125 -190.05 27.35
L -192.15 25.25
Q -192.4392578125 24.953515625 -192.85 24.95 -193.2607421875 24.953515625 -193.55 25.25 -193.846484375 25.5392578125 -193.85 25.95 -193.846484375 26.3607421875 -193.55 26.65
L -191.45 28.75
Q -191.1607421875 29.046484375 -190.75 29.05 -190.3392578125 29.046484375 -190.05 28.75 -189.753515625 28.4607421875 -189.75 28.05
M -188.65 30.15
Q -188.946484375 30.4392578125 -188.95 30.85 -188.946484375 31.2607421875 -188.65 31.55
L -186.55 33.65
Q -186.2607421875 33.946484375 -185.85 33.95 -185.4392578125 33.946484375 -185.15 33.65 -184.853515625 33.3607421875 -184.85 32.95 -184.853515625 32.5392578125 -185.15 32.25
L -187.25 30.15
Q -187.5392578125 29.853515625 -187.95 29.85 -188.3607421875 29.853515625 -188.65 30.15
M -197.75 20.05
Q -198.1607421875 20.053515625 -198.45 20.35 -198.746484375 20.6392578125 -198.75 21.05 -198.746484375 21.4607421875 -198.45 21.75
L -196.35 23.85
Q -196.0607421875 24.146484375 -195.65 24.15 -195.2392578125 24.146484375 -194.95 23.85 -194.653515625 23.5607421875 -194.65 23.15 -194.653515625 22.7392578125 -194.95 22.45
L -197.05 20.35
Q -197.3392578125 20.053515625 -197.75 20.05
M -199.55 18.25
Q -199.553515625 17.8392578125 -199.85 17.55
L -201.95 15.45
Q -202.2392578125 15.153515625 -202.65 15.15 -203.0607421875 15.153515625 -203.35 15.45 -203.646484375 15.7392578125 -203.65 16.15 -203.646484375 16.5607421875 -203.35 16.85
L -201.25 18.95
Q -200.9607421875 19.246484375 -200.55 19.25 -200.1392578125 19.246484375 -199.85 18.95 -199.553515625 18.6607421875 -199.55 18.25
M -138.25 79.15
Q -138.5392578125 78.853515625 -138.95 78.85 -139.3607421875 78.853515625 -139.65 79.15 -139.946484375 79.4392578125 -139.95 79.85 -139.946484375 80.2607421875 -139.65 80.55
L -137.55 82.65
Q -137.2607421875 82.946484375 -136.85 82.95 -136.4392578125 82.946484375 -136.15 82.65 -135.853515625 82.3607421875 -135.85 81.95 -135.853515625 81.5392578125 -136.15 81.25
L -138.25 79.15
M -144.55 75.65
L -142.45 77.75
Q -142.1607421875 78.046484375 -141.75 78.05 -141.3392578125 78.046484375 -141.05 77.75 -140.753515625 77.4607421875 -140.75 77.05 -140.753515625 76.6392578125 -141.05 76.35
L -143.15 74.25
Q -143.4392578125 73.953515625 -143.85 73.95 -144.2607421875 73.953515625 -144.55 74.25 -144.846484375 74.5392578125 -144.85 74.95 -144.846484375 75.3607421875 -144.55 75.65
M -149.45 70.75
L -147.35 72.85
Q -147.0607421875 73.146484375 -146.65 73.15 -146.2392578125 73.146484375 -145.95 72.85 -145.653515625 72.5607421875 -145.65 72.15 -145.653515625 71.7392578125 -145.95 71.45
L -148.05 69.35
Q -148.3392578125 69.053515625 -148.75 69.05 -149.1607421875 69.053515625 -149.45 69.35 -149.746484375 69.6392578125 -149.75 70.05 -149.746484375 70.4607421875 -149.45 70.75
M -154.65 65.15
Q -154.646484375 65.5607421875 -154.35 65.85
L -152.25 67.95
Q -151.9607421875 68.246484375 -151.55 68.25 -151.1392578125 68.246484375 -150.85 67.95 -150.553515625 67.6607421875 -150.55 67.25 -150.553515625 66.8392578125 -150.85 66.55
L -152.95 64.45
Q -153.2392578125 64.153515625 -153.65 64.15 -154.0607421875 64.153515625 -154.35 64.45 -154.646484375 64.7392578125 -154.65 65.15
M -159.55 60.25
Q -159.546484375 60.6607421875 -159.25 60.95
L -157.15 63.05
Q -156.8607421875 63.346484375 -156.45 63.35 -156.0392578125 63.346484375 -155.75 63.05 -155.453515625 62.7607421875 -155.45 62.35 -155.453515625 61.9392578125 -155.75 61.65
L -157.85 59.55
Q -158.1392578125 59.253515625 -158.55 59.25 -158.9607421875 59.253515625 -159.25 59.55 -159.546484375 59.8392578125 -159.55 60.25
M -160.35 57.45
Q -160.353515625 57.0392578125 -160.65 56.75
L -162.75 54.65
Q -163.0392578125 54.353515625 -163.45 54.35 -163.8607421875 54.353515625 -164.15 54.65 -164.446484375 54.9392578125 -164.45 55.35 -164.446484375 55.7607421875 -164.15 56.05
L -162.05 58.15
Q -161.7607421875 58.446484375 -161.35 58.45 -160.9392578125 58.446484375 -160.65 58.15 -160.353515625 57.8607421875 -160.35 57.45
M -222.95 -4.15
Q -223.246484375 -3.8607421875 -223.25 -3.45 -223.246484375 -3.0392578125 -222.95 -2.75
L -220.85 -0.65
Q -220.5607421875 -0.353515625 -220.15 -0.35 -219.7392578125 -0.353515625 -219.45 -0.65 -219.153515625 -0.9392578125 -219.15 -1.35 -219.153515625 -1.7607421875 -219.45 -2.05
L -221.55 -4.15
Q -221.8392578125 -4.446484375 -222.25 -4.45 -222.6607421875 -4.446484375 -222.95 -4.15
M -224.05 -6.25
Q -224.053515625 -6.6607421875 -224.35 -6.95
L -226.45 -9.05
Q -226.7392578125 -9.346484375 -227.15 -9.35 -227.5607421875 -9.346484375 -227.85 -9.05 -228.146484375 -8.7607421875 -228.15 -8.35 -228.146484375 -7.9392578125 -227.85 -7.65
L -225.75 -5.55
Q -225.4607421875 -5.253515625 -225.05 -5.25 -224.6392578125 -5.253515625 -224.35 -5.55 -224.053515625 -5.8392578125 -224.05 -6.25
M -242.85 -23.05
Q -242.846484375 -22.6392578125 -242.55 -22.35
L -240.45 -20.25
Q -240.1607421875 -19.953515625 -239.75 -19.95 -239.3392578125 -19.953515625 -239.05 -20.25 -238.753515625 -20.5392578125 -238.75 -20.95 -238.753515625 -21.3607421875 -239.05 -21.65
L -241.15 -23.75
Q -241.4392578125 -24.046484375 -241.85 -24.05 -242.2607421875 -24.046484375 -242.55 -23.75 -242.846484375 -23.4607421875 -242.85 -23.05
M -236.95 -19.15
Q -237.3607421875 -19.146484375 -237.65 -18.85 -237.946484375 -18.5607421875 -237.95 -18.15 -237.946484375 -17.7392578125 -237.65 -17.45
L -235.55 -15.35
Q -235.2607421875 -15.053515625 -234.85 -15.05 -234.4392578125 -15.053515625 -234.15 -15.35 -233.853515625 -15.6392578125 -233.85 -16.05 -233.853515625 -16.4607421875 -234.15 -16.75
L -236.25 -18.85
Q -236.5392578125 -19.146484375 -236.95 -19.15
M -232.05 -14.25
Q -232.4607421875 -14.246484375 -232.75 -13.95 -233.046484375 -13.6607421875 -233.05 -13.25 -233.046484375 -12.8392578125 -232.75 -12.55
L -230.65 -10.45
Q -230.3607421875 -10.153515625 -229.95 -10.15 -229.5392578125 -10.153515625 -229.25 -10.45 -228.953515625 -10.7392578125 -228.95 -11.15 -228.953515625 -11.5607421875 -229.25 -11.85
L -231.35 -13.95
Q -231.6392578125 -14.246484375 -232.05 -14.25
M -264.25 -44.45
Q -263.8392578125 -44.453515625 -263.55 -44.75 -263.253515625 -45.0392578125 -263.25 -45.45 -263.253515625 -45.8607421875 -263.55 -46.15
L -265.65 -48.25
Q -265.9392578125 -48.546484375 -266.35 -48.55 -266.7607421875 -48.546484375 -267.05 -48.25 -267.346484375 -47.9607421875 -267.35 -47.55 -267.346484375 -47.1392578125 -267.05 -46.85
L -264.95 -44.75
Q -264.6607421875 -44.453515625 -264.25 -44.45
M -247.45 -28.65
Q -247.746484375 -28.3607421875 -247.75 -27.95 -247.746484375 -27.5392578125 -247.45 -27.25
L -245.35 -25.15
Q -245.0607421875 -24.853515625 -244.65 -24.85 -244.2392578125 -24.853515625 -243.95 -25.15 -243.653515625 -25.4392578125 -243.65 -25.85 -243.653515625 -26.2607421875 -243.95 -26.55
L -246.05 -28.65
Q -246.3392578125 -28.946484375 -246.75 -28.95 -247.1607421875 -28.946484375 -247.45 -28.65
M -248.85 -31.45
L -250.95 -33.55
Q -251.2392578125 -33.846484375 -251.65 -33.85 -252.0607421875 -33.846484375 -252.35 -33.55 -252.646484375 -33.2607421875 -252.65 -32.85 -252.646484375 -32.4392578125 -252.35 -32.15
L -250.25 -30.05
Q -249.9607421875 -29.753515625 -249.55 -29.75 -249.1392578125 -29.753515625 -248.85 -30.05 -248.553515625 -30.3392578125 -248.55 -30.75 -248.553515625 -31.1607421875 -248.85 -31.45
M -257.25 -38.45
Q -257.546484375 -38.1607421875 -257.55 -37.75 -257.546484375 -37.3392578125 -257.25 -37.05
L -255.15 -34.95
Q -254.8607421875 -34.653515625 -254.45 -34.65 -254.0392578125 -34.653515625 -253.75 -34.95 -253.453515625 -35.2392578125 -253.45 -35.65 -253.453515625 -36.0607421875 -253.75 -36.35
L -255.85 -38.45
Q -256.1392578125 -38.746484375 -256.55 -38.75 -256.9607421875 -38.746484375 -257.25 -38.45
M -261.45 -43.65
Q -261.8607421875 -43.646484375 -262.15 -43.35 -262.446484375 -43.0607421875 -262.45 -42.65 -262.446484375 -42.2392578125 -262.15 -41.95
L -260.05 -39.85
Q -259.7607421875 -39.553515625 -259.35 -39.55 -258.9392578125 -39.553515625 -258.65 -39.85 -258.353515625 -40.1392578125 -258.35 -40.55 -258.353515625 -40.9607421875 -258.65 -41.25
L -260.75 -43.35
Q -261.0392578125 -43.646484375 -261.45 -43.65
M -287.75 -69.95
Q -287.753515625 -70.3607421875 -288.05 -70.65
L -290.15 -72.75
Q -290.4392578125 -73.046484375 -290.85 -73.05 -291.2607421875 -73.046484375 -291.55 -72.75 -291.846484375 -72.4607421875 -291.85 -72.05 -291.846484375 -71.6392578125 -291.55 -71.35
L -289.45 -69.25
Q -289.1607421875 -68.953515625 -288.75 -68.95 -288.3392578125 -68.953515625 -288.05 -69.25 -287.753515625 -69.5392578125 -287.75 -69.95
M -295.05 -77.65
Q -295.3392578125 -77.946484375 -295.75 -77.95 -296.1607421875 -77.946484375 -296.45 -77.65 -296.746484375 -77.3607421875 -296.75 -76.95 -296.746484375 -76.5392578125 -296.45 -76.25
L -294.35 -74.15
Q -294.0607421875 -73.853515625 -293.65 -73.85 -293.2392578125 -73.853515625 -292.95 -74.15 -292.653515625 -74.4392578125 -292.65 -74.85 -292.653515625 -75.2607421875 -292.95 -75.55
L -295.05 -77.65
M -302.45 -84.65
Q -302.453515625 -85.0607421875 -302.75 -85.35
L -304.85 -87.45
Q -305.1392578125 -87.746484375 -305.55 -87.75 -305.9607421875 -87.746484375 -306.25 -87.45 -306.546484375 -87.1607421875 -306.55 -86.75 -306.546484375 -86.3392578125 -306.25 -86.05
L -304.15 -83.95
Q -303.8607421875 -83.653515625 -303.45 -83.65 -303.0392578125 -83.653515625 -302.75 -83.95 -302.453515625 -84.2392578125 -302.45 -84.65
M -301.65 -81.85
Q -301.646484375 -81.4392578125 -301.35 -81.15
L -299.25 -79.05
Q -298.9607421875 -78.753515625 -298.55 -78.75 -298.1392578125 -78.753515625 -297.85 -79.05 -297.553515625 -79.3392578125 -297.55 -79.75 -297.553515625 -80.1607421875 -297.85 -80.45
L -299.95 -82.55
Q -300.2392578125 -82.846484375 -300.65 -82.85 -301.0607421875 -82.846484375 -301.35 -82.55 -301.646484375 -82.2607421875 -301.65 -81.85
M -268.45 -51.05
L -270.55 -53.15
Q -270.8392578125 -53.446484375 -271.25 -53.45 -271.6607421875 -53.446484375 -271.95 -53.15 -272.246484375 -52.8607421875 -272.25 -52.45 -272.246484375 -52.0392578125 -271.95 -51.75
L -269.85 -49.65
Q -269.5607421875 -49.353515625 -269.15 -49.35 -268.7392578125 -49.353515625 -268.45 -49.65 -268.153515625 -49.9392578125 -268.15 -50.35 -268.153515625 -50.7607421875 -268.45 -51.05
M -275.45 -58.05
Q -275.7392578125 -58.346484375 -276.15 -58.35 -276.5607421875 -58.346484375 -276.85 -58.05 -277.146484375 -57.7607421875 -277.15 -57.35 -277.146484375 -56.9392578125 -276.85 -56.65
L -274.75 -54.55
Q -274.4607421875 -54.253515625 -274.05 -54.25 -273.6392578125 -54.253515625 -273.35 -54.55 -273.053515625 -54.8392578125 -273.05 -55.25 -273.053515625 -55.6607421875 -273.35 -55.95
L -275.45 -58.05
M -281.75 -62.95
Q -282.046484375 -62.6607421875 -282.05 -62.25 -282.046484375 -61.8392578125 -281.75 -61.55
L -279.65 -59.45
Q -279.3607421875 -59.153515625 -278.95 -59.15 -278.5392578125 -59.153515625 -278.25 -59.45 -277.953515625 -59.7392578125 -277.95 -60.15 -277.953515625 -60.5607421875 -278.25 -60.85
L -280.35 -62.95
Q -280.6392578125 -63.246484375 -281.05 -63.25 -281.4607421875 -63.246484375 -281.75 -62.95
M -282.85 -65.05
Q -282.853515625 -65.4607421875 -283.15 -65.75
L -285.25 -67.85
Q -285.5392578125 -68.146484375 -285.95 -68.15 -286.3607421875 -68.146484375 -286.65 -67.85 -286.946484375 -67.5607421875 -286.95 -67.15 -286.946484375 -66.7392578125 -286.65 -66.45
L -284.55 -64.35
Q -284.2607421875 -64.053515625 -283.85 -64.05 -283.4392578125 -64.053515625 -283.15 -64.35 -282.853515625 -64.6392578125 -282.85 -65.05 Z"/>
</g>

<path id="dfbd4546_0_Layer1_0_1_STROKES" stroke="#BBDECB" stroke-width="5" stroke-linejoin="miter" stroke-linecap="butt" stroke-miterlimit="3" fill="none" d="
M -478.6 -110
L 58.65 -110
Q 73.65 -110 73.65 -95
L 73.65 95.05
Q 73.65 110.05 58.65 110.05
L -478.6 110.05
Q -493.6 110.05 -493.6 95.05
L -493.6 -95
Q -493.6 -110 -478.6 -110 Z"/>

<path id="dfbd4546_0_Layer0_1_1_STROKES" stroke="#1E1E1E" stroke-width="3" stroke-linejoin="miter" stroke-linecap="butt" stroke-miterlimit="3" fill="none" d="
M 23.688906860351565 -3.1500000000000004
L 61.911074829101565 -3.1500000000000004"/>

<path id="gfbdbfdbdfm_0_Layer2_0_MEMBER_0_MEMBER_3_1_STROKES" stroke="#006872" stroke-width="3" stroke-linejoin="miter" stroke-linecap="butt" stroke-miterlimit="10" fill="none" d="
M -132.4 86.55
L -305.55 86.55 -305.55 -86.75 -132.4 -86.75 -132.4 86.55 Z"/>
</defs>

<g transform="matrix( 1, 0, 0, 1, 232.15,5) ">
<g transform="matrix( 1, 0, 0, 1, 283.65,110) ">
<g transform="matrix( 1, 0, 0, 1, 209.95,0) ">
<use xlink:href="#dfbd4546_0_Layer1_0_1_STROKES"/>
</g>

<g transform="matrix( 1, 0, 0, 1, 0,0) ">
<use xlink:href="#dfbd4546_0_Layer0_0_FILL"/>

<use xlink:href="#dfbd4546_0_Layer0_0_STROKES_1_FILL"/>

<use xlink:href="#dfbd4546_0_Layer0_0_STROKES_2_FILL"/>
</g>

<g transform="matrix( 1.59259033203125, 0, 0, 1, 36.35,-0.2) ">
<use xlink:href="#dfbd4546_0_Layer0_1_1_STROKES" transform="matrix( 0.627899169921875, 0, 0, 1, -22.8,0.2) "/>
</g>

<g transform="matrix( -0.7999725341796875, 0, 0, -0.7999725341796875, -6.85,-2.9) ">
<g transform="matrix( 1, 0, 0, 1, 0,0) ">
<use filter="url(#Filter_1)" xlink:href="#vsdvs434_0_Layer1_0_FILL"/>
</g>

<g transform="matrix( 1, 0, 0, 1, 0,0) ">
<use filter="url(#Filter_1)" xlink:href="#vsdvs434_0_Layer0_0_FILL"/>
</g>
</g>

<g transform="matrix( 0.6999969482421875, 0, 0, 0.6999969482421875, -122.6,-3.2) ">
<g transform="matrix( 3.05621337890625, 0, 0, 3.05621337890625, -87.8,-87.7) ">
<use xlink:href="#gfbdbfdbdfm_0_Layer2_0_MEMBER_0_MEMBER_0_FILL"/>
</g>

<g transform="matrix( 3.05621337890625, 0, 0, 3.05621337890625, -87.8,-87.7) ">
<use xlink:href="#gfbdbfdbdfm_0_Layer2_0_MEMBER_0_MEMBER_1_FILL"/>
</g>

<g transform="matrix( 1, 0, 0, 1, 218.95,0.1) ">
<use xlink:href="#gfbdbfdbdfm_0_Layer2_0_MEMBER_0_MEMBER_2_STROKES_1_FILL"/>
</g>

<g transform="matrix( 1, 0, 0, 1, 218.95,0.1) ">
<use xlink:href="#gfbdbfdbdfm_0_Layer2_0_MEMBER_0_MEMBER_3_1_STROKES"/>
</g>
</g>
</g>
</g>
</svg>
