
<svg xmlns="http://www.w3.org/2000/svg" version="1.1" xmlns:xlink="http://www.w3.org/1999/xlink" preserveAspectRatio="none" x="0px" y="0px" width="1280px" height="440px" viewBox="0 0 1280 440">
<defs>
<g id="Symbol_3_0_Layer2_0_FILL">
<path fill="#FFFFFF" stroke="none" d="
M 290.3 215
L 290.3 128.65 148.65 128.65 148.65 215 290.3 215
M 432 215
L 432 128.65 290.3 128.65 290.3 215 432 215
M -276.3 215
L -276.3 128.65 -417.95 128.65 -417.95 215 -276.3 215
M -134.65 215
L -134.65 128.65 -276.3 128.65 -276.3 215 -134.65 215
M -134.65 128.65
L -134.65 215 7 215 7 128.65 -134.65 128.65 Z"/>

<path fill="#FF95A6" fill-opacity="0.4980392156862745" stroke="none" d="
M 148.65 128.65
L 7 128.65 7 215 148.65 215 148.65 128.65
M 148.65 128.65
L 148.65 42.5 7 42.5 7 128.65 148.65 128.65
M 148.65 -43.65
L 7 -43.65 7 42.5 148.65 42.5 148.65 -43.65
M 148.65 -43.65
L 148.65 -129.8 7 -129.8 7 -43.65 148.65 -43.65
M 148.65 -215.95
L 7 -215.95 7 -129.8 148.65 -129.8 148.65 -215.95 Z"/>
</g>

<g id="Symbol_3_0_Layer0_0_FILL">
<path fill="#1E1E1E" stroke="none" d="
M -337.6 157.4
Q -337.75 157.25 -338.45 157.25
L -355.45 157.25
Q -356.15 157.25 -356.15 157.9
L -356.15 160.7
Q -356.15 161.05 -355.95 161.2 -355.75 161.4 -355.45 161.4
L -342.7 161.4 -353.15 186.95
Q -353.3 187.4 -353.15 187.5 -353 187.65 -352.4 187.65
L -349.15 187.65
Q -348.75 187.65 -348.6 187.55 -348.45 187.4 -348.25 187.1
L -337.7 161.05
Q -337.45 160.75 -337.45 160.4
L -337.45 158
Q -337.45 157.55 -337.6 157.4
M -369.9 157.25
Q -370.05 157.25 -370.25 157.35 -370.45 157.4 -370.5 157.5
L -376.65 163.15
Q -376.85 163.35 -376.85 163.55 -376.9 163.8 -376.75 163.95
L -374.95 166.1
Q -374.8 166.25 -374.55 166.2 -374.3 166.2 -374.05 166.05
L -371.1 163.45 -371.1 187.15
Q -371.1 187.65 -370.55 187.65
L -367.35 187.65
Q -366.85 187.65 -366.85 187.15
L -366.85 158.35
Q -366.85 157.55 -367 157.4 -367.1 157.25 -367.8 157.25
L -369.9 157.25
M -340.3 72.1
Q -341.7 71.9 -342.85 71.9 -346.6 71.9 -349.15 73.2 -351.7 74.55 -353.3 76.8 -354.85 79 -355.55 82.05 -356.25 85.05 -356.25 88.45 -356.25 95.9 -353.7 99.45 -351.15 103 -346.45 103 -344.15 103 -342.3 102.2 -340.45 101.4 -339.15 99.95 -337.85 98.6 -337.2 96.65 -336.5 94.8 -336.5 92.6 -336.5 90.3 -337.2 88.5 -337.9 86.65 -339.2 85.35 -340.45 84.05 -342.25 83.35 -344 82.65 -346.2 82.65 -346.95 82.65 -347.75 82.9 -348.55 83.1 -349.3 83.45 -350.05 83.8 -350.65 84.25 -351.25 84.7 -351.6 85.2 -351.35 83.25 -350.75 81.55 -350.2 79.9 -349.2 78.65 -348.2 77.4 -346.75 76.7 -345.25 76.05 -343.2 76.05 -341.8 76.05 -340.6 76.15 -339.45 76.25 -338.4 76.65 -337.85 76.9 -337.75 76.35
L -337.65 73.15
Q -337.6 72.75 -337.95 72.65 -338.85 72.3 -340.3 72.1
M -348.45 98.5
Q -349.4 98 -350.1 97.1 -350.8 96.2 -351.2 94.95 -351.6 93.8 -351.6 92.4 -351.6 89.95 -350.1 88.4 -348.65 86.85 -346.05 86.85 -343.6 86.85 -342.25 88.45 -340.9 90 -340.9 92.8 -340.9 95.65 -342.4 97.35 -343.95 99 -346.35 99 -347.45 99 -348.45 98.5
M -366.85 73.35
Q -366.85 72.55 -367 72.4 -367.1 72.25 -367.8 72.25
L -369.9 72.25
Q -370.05 72.25 -370.25 72.35 -370.45 72.4 -370.5 72.5
L -376.65 78.15
Q -376.85 78.35 -376.85 78.55 -376.9 78.8 -376.75 78.95
L -374.95 81.1
Q -374.8 81.25 -374.55 81.2 -374.3 81.2 -374.05 81.05
L -371.1 78.45 -371.1 102.15
Q -371.1 102.65 -370.55 102.65
L -367.35 102.65
Q -366.85 102.65 -366.85 102.15
L -366.85 73.35
M -181.75 157.25
Q -181.9 157.25 -182.1 157.35 -182.3 157.4 -182.35 157.5
L -188.5 163.15
Q -188.7 163.35 -188.7 163.55 -188.75 163.8 -188.6 163.95
L -186.8 166.1
Q -186.65 166.25 -186.4 166.2 -186.15 166.2 -185.9 166.05
L -182.95 163.45 -182.95 187.15
Q -182.95 187.65 -182.4 187.65
L -179.2 187.65
Q -178.7 187.65 -178.7 187.15
L -178.7 158.35
Q -178.7 157.55 -178.85 157.4 -178.95 157.25 -179.65 157.25
L -181.75 157.25
M -228.25 157.25
Q -228.4 157.25 -228.6 157.35 -228.8 157.4 -228.85 157.5
L -235 163.15
Q -235.2 163.35 -235.2 163.55 -235.25 163.8 -235.1 163.95
L -233.3 166.1
Q -233.15 166.25 -232.9 166.2 -232.65 166.2 -232.4 166.05
L -229.45 163.45 -229.45 187.15
Q -229.45 187.65 -228.9 187.65
L -225.7 187.65
Q -225.2 187.65 -225.2 187.15
L -225.2 158.35
Q -225.2 157.55 -225.35 157.4 -225.45 157.25 -226.15 157.25
L -228.25 157.25
M -204.8 156.9
Q -206.75 156.9 -208.45 157.45 -210.15 158 -211.4 159 -212.65 160 -213.4 161.4 -214.15 162.8 -214.15 164.5 -214.15 166.8 -212.75 168.6 -211.35 170.4 -208.95 171.8 -210.15 172.4 -211.25 173.1 -212.35 173.8 -213.15 174.7 -213.95 175.6 -214.5 176.75 -214.95 177.9 -214.95 179.4 -214.95 181.55 -214.05 183.15 -213.15 184.8 -211.7 185.85 -210.25 186.9 -208.45 187.45 -206.6 188 -204.8 188 -202.85 188 -201.05 187.45 -199.15 186.9 -197.75 185.85 -196.35 184.8 -195.5 183.15 -194.6 181.55 -194.6 179.4 -194.6 178 -195.05 177 -195.45 175.95 -196.25 175.05 -197.05 174.15 -198.15 173.35 -199.3 172.6 -200.7 171.75 -198.1 169.95 -196.85 168.2 -195.6 166.4 -195.6 164.4 -195.6 162.65 -196.3 161.25 -197 159.85 -198.2 158.9 -199.4 157.95 -201.1 157.4 -202.8 156.9 -204.8 156.9
M -209 166.45
Q -209.6 165.65 -209.6 164.8 -209.6 163.85 -209.15 163.1 -208.7 162.4 -208 161.9 -207.35 161.4 -206.5 161.1 -205.65 160.8 -204.8 160.8 -203.85 160.8 -203 161.15 -202.15 161.4 -201.5 161.95 -200.85 162.5 -200.5 163.2 -200.1 163.9 -200.1 164.7 -200.1 165.4 -200.6 166.2 -201.1 167 -201.85 167.75 -202.6 168.45 -203.4 169 -204.15 169.55 -204.8 169.8 -205.3 169.6 -206.1 169.1 -206.9 168.65 -207.7 167.95 -208.45 167.25 -209 166.45
M -204.8 174
Q -203.8 174.35 -202.8 174.95 -201.8 175.55 -200.95 176.25 -200.15 177 -199.65 177.8 -199.15 178.65 -199.15 179.4 -199.15 180.45 -199.65 181.3 -200.15 182.15 -200.95 182.75 -201.75 183.35 -202.75 183.65 -203.8 183.95 -204.8 183.95 -205.75 183.95 -206.8 183.65 -207.8 183.3 -208.65 182.7 -209.45 182.1 -209.95 181.25 -210.5 180.4 -210.5 179.4 -210.5 178.15 -209.9 177.25 -209.3 176.35 -208.45 175.7 -207.6 175.05 -206.55 174.65 -205.6 174.2 -204.8 174
M -316.05 160.45
Q -318.6 156.9 -323.3 156.9 -325.6 156.9 -327.4 157.7 -329.25 158.5 -330.55 159.9 -331.85 161.3 -332.55 163.2 -333.2 165.1 -333.2 167.3 -333.2 169.6 -332.5 171.4 -331.85 173.2 -330.55 174.5 -329.25 175.8 -327.45 176.5 -325.7 177.2 -323.55 177.2 -322.8 177.2 -322 177 -321.2 176.8 -320.45 176.45 -319.7 176.1 -319.05 175.65 -318.45 175.2 -318.1 174.7 -318.35 176.6 -318.95 178.3 -319.55 179.95 -320.55 181.2 -321.55 182.45 -323 183.15 -324.45 183.85 -326.55 183.85 -327.95 183.85 -329.1 183.75 -330.3 183.65 -331.35 183.2 -331.9 183 -332 183.55
L -332.1 186.75
Q -332.15 187.15 -331.8 187.25 -330.85 187.6 -329.45 187.8 -328 188 -326.85 188 -323.15 188 -320.6 186.65 -318 185.35 -316.45 183.1 -314.85 180.85 -314.15 177.85 -313.5 174.8 -313.5 171.45 -313.5 164 -316.05 160.45
M -323.35 160.85
Q -322.25 160.85 -321.3 161.4 -320.35 161.9 -319.65 162.8 -318.95 163.7 -318.55 164.9 -318.15 166.1 -318.15 167.45 -318.15 169.9 -319.6 171.5 -321.1 173.05 -323.7 173.05 -326.15 173.05 -327.45 171.45 -328.8 169.85 -328.8 167.1 -328.8 164.2 -327.3 162.55 -325.75 160.85 -323.35 160.85
M -314.35 72.4
Q -314.5 72.25 -315.2 72.25
L -332.2 72.25
Q -332.9 72.25 -332.9 72.9
L -332.9 75.7
Q -332.9 76.05 -332.7 76.2 -332.5 76.4 -332.2 76.4
L -319.45 76.4 -329.9 101.95
Q -330.05 102.4 -329.9 102.5 -329.75 102.65 -329.15 102.65
L -325.9 102.65
Q -325.5 102.65 -325.35 102.55 -325.2 102.4 -325 102.1
L -314.45 76.05
Q -314.2 75.75 -314.2 75.4
L -314.2 73
Q -314.2 72.55 -314.35 72.4
M -191.55 82.3
Q -191.55 84.6 -190.85 86.4 -190.2 88.2 -188.9 89.5 -187.6 90.8 -185.8 91.5 -184.05 92.2 -181.9 92.2 -181.15 92.2 -180.35 92 -179.55 91.8 -178.8 91.45 -178.05 91.1 -177.4 90.65 -176.8 90.2 -176.45 89.7 -176.7 91.6 -177.3 93.3 -177.9 94.95 -178.9 96.2 -179.9 97.45 -181.35 98.15 -182.8 98.85 -184.9 98.85 -186.3 98.85 -187.45 98.75 -188.65 98.65 -189.7 98.2 -190.25 98 -190.35 98.55
L -190.45 101.75
Q -190.5 102.15 -190.15 102.25 -189.2 102.6 -187.8 102.8 -186.35 103 -185.2 103 -181.5 103 -178.95 101.65 -176.35 100.35 -174.8 98.1 -173.2 95.85 -172.5 92.85 -171.85 89.8 -171.85 86.45 -171.85 79 -174.4 75.45 -176.95 71.9 -181.65 71.9 -183.95 71.9 -185.75 72.7 -187.6 73.5 -188.9 74.9 -190.2 76.3 -190.9 78.2 -191.55 80.1 -191.55 82.3
M -185.8 86.45
Q -187.15 84.85 -187.15 82.1 -187.15 79.2 -185.65 77.55 -184.1 75.85 -181.7 75.85 -180.6 75.85 -179.65 76.4 -178.7 76.9 -178 77.8 -177.3 78.7 -176.9 79.9 -176.5 81.1 -176.5 82.45 -176.5 84.9 -177.95 86.5 -179.45 88.05 -182.05 88.05 -184.5 88.05 -185.8 86.45
M -204.55 82.65
Q -205.3 82.65 -206.1 82.9 -206.9 83.1 -207.65 83.45 -208.4 83.8 -209 84.25 -209.6 84.7 -209.95 85.2 -209.7 83.25 -209.1 81.55 -208.55 79.9 -207.55 78.65 -206.55 77.4 -205.1 76.7 -203.6 76.05 -201.55 76.05 -200.15 76.05 -198.95 76.15 -197.8 76.25 -196.75 76.65 -196.2 76.9 -196.1 76.35
L -196 73.15
Q -195.95 72.75 -196.3 72.65 -197.2 72.3 -198.65 72.1 -200.05 71.9 -201.2 71.9 -204.95 71.9 -207.5 73.2 -210.05 74.55 -211.65 76.8 -213.2 79 -213.9 82.05 -214.6 85.05 -214.6 88.45 -214.6 95.9 -212.05 99.45 -209.5 103 -204.8 103 -202.5 103 -200.65 102.2 -198.8 101.4 -197.5 99.95 -196.2 98.6 -195.55 96.65 -194.85 94.8 -194.85 92.6 -194.85 90.3 -195.55 88.5 -196.25 86.65 -197.55 85.35 -198.8 84.05 -200.6 83.35 -202.35 82.65 -204.55 82.65
M -208.45 97.1
Q -209.15 96.2 -209.55 94.95 -209.95 93.8 -209.95 92.4 -209.95 89.95 -208.45 88.4 -207 86.85 -204.4 86.85 -201.95 86.85 -200.6 88.45 -199.25 90 -199.25 92.8 -199.25 95.65 -200.75 97.35 -202.3 99 -204.7 99 -205.8 99 -206.8 98.5 -207.75 98 -208.45 97.1
M -225.2 73.35
Q -225.2 72.55 -225.35 72.4 -225.45 72.25 -226.15 72.25
L -228.25 72.25
Q -228.4 72.25 -228.6 72.35 -228.8 72.4 -228.85 72.5
L -235 78.15
Q -235.2 78.35 -235.2 78.55 -235.25 78.8 -235.1 78.95
L -233.3 81.1
Q -233.15 81.25 -232.9 81.2 -232.65 81.2 -232.4 81.05
L -229.45 78.45 -229.45 102.15
Q -229.45 102.65 -228.9 102.65
L -225.7 102.65
Q -225.2 102.65 -225.2 102.15
L -225.2 73.35
M -56.55 158.9
Q -57.75 157.95 -59.45 157.4 -61.15 156.9 -63.15 156.9 -65.1 156.9 -66.8 157.45 -68.5 158 -69.75 159 -71 160 -71.75 161.4 -72.5 162.8 -72.5 164.5 -72.5 166.8 -71.1 168.6 -69.7 170.4 -67.3 171.8 -68.5 172.4 -69.6 173.1 -70.7 173.8 -71.5 174.7 -72.3 175.6 -72.85 176.75 -73.3 177.9 -73.3 179.4 -73.3 181.55 -72.4 183.15 -71.5 184.8 -70.05 185.85 -68.6 186.9 -66.8 187.45 -64.95 188 -63.15 188 -61.2 188 -59.4 187.45 -57.5 186.9 -56.1 185.85 -54.7 184.8 -53.85 183.15 -52.95 181.55 -52.95 179.4 -52.95 178 -53.4 177 -53.8 175.95 -54.6 175.05 -55.4 174.15 -56.5 173.35 -57.65 172.6 -59.05 171.75 -56.45 169.95 -55.2 168.2 -53.95 166.4 -53.95 164.4 -53.95 162.65 -54.65 161.25 -55.35 159.85 -56.55 158.9
M -58.95 166.2
Q -59.45 167 -60.2 167.75 -60.95 168.45 -61.75 169 -62.5 169.55 -63.15 169.8 -63.65 169.6 -64.45 169.1 -65.25 168.65 -66.05 167.95 -66.8 167.25 -67.35 166.45 -67.95 165.65 -67.95 164.8 -67.95 163.85 -67.5 163.1 -67.05 162.4 -66.35 161.9 -65.7 161.4 -64.85 161.1 -64 160.8 -63.15 160.8 -62.2 160.8 -61.35 161.15 -60.5 161.4 -59.85 161.95 -59.2 162.5 -58.85 163.2 -58.45 163.9 -58.45 164.7 -58.45 165.4 -58.95 166.2
M -63.15 174
Q -62.15 174.35 -61.15 174.95 -60.15 175.55 -59.3 176.25 -58.5 177 -58 177.8 -57.5 178.65 -57.5 179.4 -57.5 180.45 -58 181.3 -58.5 182.15 -59.3 182.75 -60.1 183.35 -61.1 183.65 -62.15 183.95 -63.15 183.95 -64.1 183.95 -65.15 183.65 -66.15 183.3 -67 182.7 -67.8 182.1 -68.3 181.25 -68.85 180.4 -68.85 179.4 -68.85 178.15 -68.25 177.25 -67.65 176.35 -66.8 175.7 -65.95 175.05 -64.9 174.65 -63.95 174.2 -63.15 174
M -41.05 156.9
Q -42.75 156.9 -44.4 157.25 -46.1 157.65 -47.85 158.25 -48.25 158.45 -48.4 158.65 -48.55 158.8 -48.45 159.05
L -48.1 162
Q -48 162.35 -47.8 162.45 -47.6 162.55 -47.1 162.35 -46.5 162.1 -45.7 161.85 -44.9 161.6 -44.1 161.45 -43.3 161.25 -42.55 161.15 -41.85 161.05 -41.3 161.05 -40.45 161.05 -39.5 161.25 -38.55 161.45 -37.7 161.95 -36.9 162.4 -36.35 163.2 -35.85 163.95 -35.85 164.95 -35.85 166.3 -36.65 167.2 -37.45 168.15 -38.65 168.75 -39.8 169.35 -41.05 169.6 -42.3 169.85 -43.15 169.85
L -45.05 169.85
Q -45.4 169.85 -45.5 169.95 -45.6 170 -45.6 170.4
L -45.6 173.35
Q -45.6 173.65 -45.5 173.75 -45.4 173.85 -45.05 173.85
L -43.1 173.85
Q -41.15 173.85 -39.8 174.25 -38.4 174.6 -37.5 175.3 -36.65 175.95 -36.2 176.8 -35.8 177.65 -35.8 178.6 -35.8 181.25 -37.75 182.6 -38.4 183.05 -39.15 183.3 -39.95 183.6 -40.8 183.7 -41.65 183.8 -42.55 183.75 -43.45 183.7 -44.25 183.65 -45.35 183.55 -46.4 183.25 -47.45 182.95 -48.5 182.65 -49.05 182.4 -49.25 182.55 -49.45 182.65 -49.5 183
L -49.85 186.05
Q -49.9 186.4 -49.7 186.55 -49.55 186.75 -49.15 186.85 -47.7 187.4 -45.95 187.7 -44.2 188 -42.45 188 -40.15 188 -38 187.4 -35.85 186.85 -34.35 185.6 -32.85 184.35 -32 182.6 -31.2 180.8 -31.2 178.7 -31.2 176.5 -32.55 174.7 -33.9 172.95 -36.55 171.8 -35.45 171.3 -34.5 170.55 -33.55 169.8 -32.85 168.8 -32.15 167.85 -31.75 166.8 -31.4 165.7 -31.4 164.6 -31.4 162.6 -32.25 161.1 -33.1 159.6 -34.45 158.7 -35.75 157.8 -37.5 157.35 -39.25 156.9 -41.05 156.9
M -86.6 157.25
Q -86.75 157.25 -86.95 157.35 -87.15 157.4 -87.2 157.5
L -93.35 163.15
Q -93.55 163.35 -93.55 163.55 -93.6 163.8 -93.45 163.95
L -91.65 166.1
Q -91.5 166.25 -91.25 166.2 -91 166.2 -90.75 166.05
L -87.8 163.45 -87.8 187.15
Q -87.8 187.65 -87.25 187.65
L -84.05 187.65
Q -83.55 187.65 -83.55 187.15
L -83.55 158.35
Q -83.55 157.55 -83.7 157.4 -83.8 157.25 -84.5 157.25
L -86.6 157.25
M -83.55 73.35
Q -83.55 72.55 -83.7 72.4 -83.8 72.25 -84.5 72.25
L -86.6 72.25
Q -86.75 72.25 -86.95 72.35 -87.15 72.4 -87.2 72.5
L -93.35 78.15
Q -93.55 78.35 -93.55 78.55 -93.6 78.8 -93.45 78.95
L -91.65 81.1
Q -91.5 81.25 -91.25 81.2 -91 81.2 -90.75 81.05
L -87.8 78.45 -87.8 102.15
Q -87.8 102.65 -87.25 102.65
L -84.05 102.65
Q -83.55 102.65 -83.55 102.15
L -83.55 73.35
M -46.85 78.15
Q -47.05 78.35 -47.05 78.55 -47.1 78.8 -46.95 78.95
L -45.15 81.1
Q -45 81.25 -44.75 81.2 -44.5 81.2 -44.25 81.05
L -41.3 78.45 -41.3 102.15
Q -41.3 102.65 -40.75 102.65
L -37.55 102.65
Q -37.05 102.65 -37.05 102.15
L -37.05 73.35
Q -37.05 72.55 -37.2 72.4 -37.3 72.25 -38 72.25
L -40.1 72.25
Q -40.25 72.25 -40.45 72.35 -40.65 72.4 -40.7 72.5
L -46.85 78.15
M -54.3 72.4
Q -54.45 72.25 -55.15 72.25
L -72.15 72.25
Q -72.85 72.25 -72.85 72.9
L -72.85 75.7
Q -72.85 76.05 -72.65 76.2 -72.45 76.4 -72.15 76.4
L -59.4 76.4 -69.85 101.95
Q -70 102.4 -69.85 102.5 -69.7 102.65 -69.1 102.65
L -65.85 102.65
Q -65.45 102.65 -65.3 102.55 -65.15 102.4 -64.95 102.1
L -54.4 76.05
Q -54.15 75.75 -54.15 75.4
L -54.15 73
Q -54.15 72.55 -54.3 72.4
M -49.25 -8.8
Q -49.9 -6.9 -49.9 -4.7 -49.9 -2.4 -49.2 -0.6 -48.55 1.2 -47.25 2.5 -45.95 3.8 -44.15 4.5 -42.4 5.2 -40.25 5.2 -39.5 5.2 -38.7 5 -37.9 4.8 -37.15 4.45 -36.4 4.1 -35.75 3.65 -35.15 3.2 -34.8 2.7 -35.05 4.6 -35.65 6.3 -36.25 7.95 -37.25 9.2 -38.25 10.45 -39.7 11.15 -41.15 11.85 -43.25 11.85 -44.65 11.85 -45.8 11.75 -47 11.65 -48.05 11.2 -48.6 11 -48.7 11.55
L -48.8 14.75
Q -48.85 15.15 -48.5 15.25 -47.55 15.6 -46.15 15.8 -44.7 16 -43.55 16 -39.85 16 -37.3 14.65 -34.7 13.35 -33.15 11.1 -31.55 8.85 -30.85 5.85 -30.2 2.8 -30.2 -0.55 -30.2 -8 -32.75 -11.55 -35.3 -15.1 -40 -15.1 -42.3 -15.1 -44.1 -14.3 -45.95 -13.5 -47.25 -12.1 -48.55 -10.7 -49.25 -8.8
M -44.15 -0.55
Q -45.5 -2.15 -45.5 -4.9 -45.5 -7.8 -44 -9.45 -42.45 -11.15 -40.05 -11.15 -38.95 -11.15 -38 -10.6 -37.05 -10.1 -36.35 -9.2 -35.65 -8.3 -35.25 -7.1 -34.85 -5.9 -34.85 -4.55 -34.85 -2.1 -36.3 -0.5 -37.8 1.05 -40.4 1.05 -42.85 1.05 -44.15 -0.55
M -63.4 -3.55
Q -65.35 -3.55 -66.95 -3.2
L -66.8 -10.6 -55.65 -10.6
Q -55.4 -10.6 -55.25 -10.8 -55.15 -10.95 -55.15 -11.2
L -55.15 -14.25
Q -55.15 -14.45 -55.25 -14.6 -55.4 -14.8 -55.65 -14.8
L -70.3 -14.8
Q -70.9 -14.8 -71 -14.65 -71.15 -14.55 -71.15 -14.1
L -71.35 0.65
Q -71.35 2 -69.8 1.35 -68.55 0.9 -67.15 0.65 -65.75 0.35 -64.45 0.35 -61.15 0.35 -59.75 1.9 -58.3 3.4 -58.3 6 -58.3 8.7 -60.1 10.2 -61.8 11.75 -64.5 11.75 -65.2 11.75 -66.05 11.65 -66.85 11.6 -67.7 11.45 -68.55 11.25 -69.35 11.05 -70.15 10.8 -70.7 10.5 -71.55 10.1 -71.55 10.8
L -71.55 14.05
Q -71.55 14.35 -71.55 14.5 -71.5 14.6 -71.25 14.8 -70.6 15.1 -69.65 15.3 -68.75 15.55 -67.8 15.7 -66.85 15.8 -66.05 15.9 -65.2 15.95 -64.8 15.95 -62.5 15.95 -60.45 15.3 -58.35 14.65 -56.95 13.35 -53.8 10.55 -53.8 5.5 -53.8 3.4 -54.55 1.75 -55.3 0.05 -56.6 -1.15 -57.9 -2.3 -59.65 -2.95 -61.4 -3.55 -63.4 -3.55
M -86.95 -14.65
Q -87.15 -14.6 -87.2 -14.5
L -93.35 -8.85
Q -93.55 -8.65 -93.55 -8.45 -93.6 -8.2 -93.45 -8.05
L -91.65 -5.9
Q -91.5 -5.75 -91.25 -5.8 -91 -5.8 -90.75 -5.95
L -87.8 -8.55 -87.8 15.15
Q -87.8 15.65 -87.25 15.65
L -84.05 15.65
Q -83.55 15.65 -83.55 15.15
L -83.55 -13.65
Q -83.55 -14.45 -83.7 -14.6 -83.8 -14.75 -84.5 -14.75
L -86.6 -14.75
Q -86.75 -14.75 -86.95 -14.65
M -86.95 -101.65
Q -87.15 -101.6 -87.2 -101.5
L -93.35 -95.85
Q -93.55 -95.65 -93.55 -95.45 -93.6 -95.2 -93.45 -95.05
L -91.65 -92.9
Q -91.5 -92.75 -91.25 -92.8 -91 -92.8 -90.75 -92.95
L -87.8 -95.55 -87.8 -71.85
Q -87.8 -71.35 -87.25 -71.35
L -84.05 -71.35
Q -83.55 -71.35 -83.55 -71.85
L -83.55 -100.65
Q -83.55 -101.45 -83.7 -101.6 -83.8 -101.75 -84.5 -101.75
L -86.6 -101.75
Q -86.75 -101.75 -86.95 -101.65
M -86.6 -187.75
Q -86.75 -187.75 -86.95 -187.65 -87.15 -187.6 -87.2 -187.5
L -93.35 -181.85
Q -93.55 -181.65 -93.55 -181.45 -93.6 -181.2 -93.45 -181.05
L -91.65 -178.9
Q -91.5 -178.75 -91.25 -178.8 -91 -178.8 -90.75 -178.95
L -87.8 -181.55 -87.8 -157.85
Q -87.8 -157.35 -87.25 -157.35
L -84.05 -157.35
Q -83.55 -157.35 -83.55 -157.85
L -83.55 -186.65
Q -83.55 -187.45 -83.7 -187.6 -83.8 -187.75 -84.5 -187.75
L -86.6 -187.75
M -48.9 -101.75
Q -49.6 -101.75 -49.6 -101.1
L -49.6 -98.3
Q -49.6 -97.95 -49.4 -97.8 -49.2 -97.6 -48.9 -97.6
L -36.15 -97.6 -46.6 -72.05
Q -46.75 -71.6 -46.6 -71.5 -46.45 -71.35 -45.85 -71.35
L -42.6 -71.35
Q -42.2 -71.35 -42.05 -71.45 -41.9 -71.6 -41.7 -71.9
L -31.15 -97.95
Q -30.9 -98.25 -30.9 -98.6
L -30.9 -101
Q -30.9 -101.45 -31.05 -101.6 -31.2 -101.75 -31.9 -101.75
L -48.9 -101.75
M -61.2 -101.65
Q -61.3 -101.55 -61.5 -101.2
L -73.9 -82.6
Q -74.05 -82.45 -74.2 -82.15 -74.4 -81.85 -74.4 -81.6
L -74.4 -78.6
Q -74.4 -78.3 -74.25 -78.25 -74.1 -78.15 -73.75 -78.15
L -60.95 -78.15 -60.95 -72.05
Q -60.95 -71.65 -60.8 -71.5 -60.65 -71.35 -60.2 -71.35
L -57.3 -71.35
Q -56.9 -71.35 -56.8 -71.5 -56.65 -71.6 -56.65 -72.05
L -56.65 -78.15 -52.95 -78.15
Q -52.6 -78.15 -52.45 -78.25 -52.3 -78.35 -52.3 -78.75
L -52.3 -81.65
Q -52.3 -82.05 -52.45 -82.15 -52.6 -82.25 -52.95 -82.25
L -56.65 -82.25 -56.65 -101.15
Q -56.65 -101.5 -56.7 -101.6 -56.75 -101.75 -57.05 -101.75
L -60.7 -101.75
Q -61.1 -101.75 -61.2 -101.65
M -60.95 -82.25
L -69.55 -82.25 -60.95 -95.3 -60.95 -82.25
M -57.7 -186.3
Q -59 -187.2 -60.75 -187.65 -62.5 -188.1 -64.3 -188.1 -66 -188.1 -67.65 -187.75 -69.35 -187.35 -71.1 -186.75 -71.5 -186.55 -71.65 -186.35 -71.8 -186.2 -71.7 -185.95
L -71.35 -183
Q -71.25 -182.65 -71.05 -182.55 -70.85 -182.45 -70.35 -182.65 -69.75 -182.9 -68.95 -183.15 -68.15 -183.4 -67.35 -183.55 -66.55 -183.75 -65.8 -183.85 -65.1 -183.95 -64.55 -183.95 -63.7 -183.95 -62.75 -183.75 -61.8 -183.55 -60.95 -183.05 -60.15 -182.6 -59.6 -181.8 -59.1 -181.05 -59.1 -180.05 -59.1 -178.7 -59.9 -177.8 -60.7 -176.85 -61.9 -176.25 -63.05 -175.65 -64.3 -175.4 -65.55 -175.15 -66.4 -175.15
L -68.3 -175.15
Q -68.65 -175.15 -68.75 -175.05 -68.85 -175 -68.85 -174.6
L -68.85 -171.65
Q -68.85 -171.35 -68.75 -171.25 -68.65 -171.15 -68.3 -171.15
L -66.35 -171.15
Q -64.4 -171.15 -63.05 -170.75 -61.65 -170.4 -60.75 -169.7 -59.9 -169.05 -59.45 -168.2 -59.05 -167.35 -59.05 -166.4 -59.05 -163.75 -61 -162.4 -61.65 -161.95 -62.4 -161.7 -63.2 -161.4 -64.05 -161.3 -64.9 -161.2 -65.8 -161.25 -66.7 -161.3 -67.5 -161.35 -68.6 -161.45 -69.65 -161.75 -70.7 -162.05 -71.75 -162.35 -72.3 -162.6 -72.5 -162.45 -72.7 -162.35 -72.75 -162
L -73.1 -158.95
Q -73.15 -158.6 -72.95 -158.45 -72.8 -158.25 -72.4 -158.15 -70.95 -157.6 -69.2 -157.3 -67.45 -157 -65.7 -157 -63.4 -157 -61.25 -157.6 -59.1 -158.15 -57.6 -159.4 -56.1 -160.65 -55.25 -162.4 -54.45 -164.2 -54.45 -166.3 -54.45 -168.5 -55.8 -170.3 -57.15 -172.05 -59.8 -173.2 -58.7 -173.7 -57.75 -174.45 -56.8 -175.2 -56.1 -176.2 -55.4 -177.15 -55 -178.2 -54.65 -179.3 -54.65 -180.4 -54.65 -182.4 -55.5 -183.9 -56.35 -185.4 -57.7 -186.3
M -33.35 -174.15
Q -34.65 -175.3 -36.4 -175.95 -38.15 -176.55 -40.15 -176.55 -42.1 -176.55 -43.7 -176.2
L -43.55 -183.6 -32.4 -183.6
Q -32.15 -183.6 -32 -183.8 -31.9 -183.95 -31.9 -184.2
L -31.9 -187.25
Q -31.9 -187.45 -32 -187.6 -32.15 -187.8 -32.4 -187.8
L -47.05 -187.8
Q -47.65 -187.8 -47.75 -187.65 -47.9 -187.55 -47.9 -187.1
L -48.1 -172.35
Q -48.1 -171 -46.55 -171.65 -45.3 -172.1 -43.9 -172.35 -42.5 -172.65 -41.2 -172.65 -37.9 -172.65 -36.5 -171.1 -35.05 -169.6 -35.05 -167 -35.05 -164.3 -36.85 -162.8 -38.55 -161.25 -41.25 -161.25 -41.95 -161.25 -42.8 -161.35 -43.6 -161.4 -44.45 -161.55 -45.3 -161.75 -46.1 -161.95 -46.9 -162.2 -47.45 -162.5 -48.3 -162.9 -48.3 -162.2
L -48.3 -158.95
Q -48.3 -158.65 -48.3 -158.5 -48.25 -158.4 -48 -158.2 -47.35 -157.9 -46.4 -157.7 -45.5 -157.45 -44.55 -157.3 -43.6 -157.2 -42.8 -157.1 -41.95 -157.05 -41.55 -157.05 -39.25 -157.05 -37.2 -157.7 -35.1 -158.35 -33.7 -159.65 -30.55 -162.45 -30.55 -167.5 -30.55 -169.6 -31.3 -171.25 -32.05 -172.95 -33.35 -174.15
M -190.55 -14.75
Q -191.25 -14.75 -191.25 -14.1
L -191.25 -11.3
Q -191.25 -10.95 -191.05 -10.8 -190.85 -10.6 -190.55 -10.6
L -177.8 -10.6 -188.25 14.95
Q -188.4 15.4 -188.25 15.5 -188.1 15.65 -187.5 15.65
L -184.25 15.65
Q -183.85 15.65 -183.7 15.55 -183.55 15.4 -183.35 15.1
L -172.8 -10.95
Q -172.55 -11.25 -172.55 -11.6
L -172.55 -14
Q -172.55 -14.45 -172.7 -14.6 -172.85 -14.75 -173.55 -14.75
L -190.55 -14.75
M -205.05 -3.55
Q -207 -3.55 -208.6 -3.2
L -208.45 -10.6 -197.3 -10.6
Q -197.05 -10.6 -196.9 -10.8 -196.8 -10.95 -196.8 -11.2
L -196.8 -14.25
Q -196.8 -14.45 -196.9 -14.6 -197.05 -14.8 -197.3 -14.8
L -211.95 -14.8
Q -212.55 -14.8 -212.65 -14.65 -212.8 -14.55 -212.8 -14.1
L -213 0.65
Q -213 2 -211.45 1.35 -210.2 0.9 -208.8 0.65 -207.4 0.35 -206.1 0.35 -202.8 0.35 -201.4 1.9 -199.95 3.4 -199.95 6 -199.95 8.7 -201.75 10.2 -203.45 11.75 -206.15 11.75 -206.85 11.75 -207.7 11.65 -208.5 11.6 -209.35 11.45 -210.2 11.25 -211 11.05 -211.8 10.8 -212.35 10.5 -213.2 10.1 -213.2 10.8
L -213.2 14.05
Q -213.2 14.35 -213.2 14.5 -213.15 14.6 -212.9 14.8 -212.25 15.1 -211.3 15.3 -210.4 15.55 -209.45 15.7 -208.5 15.8 -207.7 15.9 -206.85 15.95 -206.45 15.95 -204.15 15.95 -202.1 15.3 -200 14.65 -198.6 13.35 -195.45 10.55 -195.45 5.5 -195.45 3.4 -196.2 1.75 -196.95 0.05 -198.25 -1.15 -199.55 -2.3 -201.3 -2.95 -203.05 -3.55 -205.05 -3.55
M -228.6 -14.65
Q -228.8 -14.6 -228.85 -14.5
L -235 -8.85
Q -235.2 -8.65 -235.2 -8.45 -235.25 -8.2 -235.1 -8.05
L -233.3 -5.9
Q -233.15 -5.75 -232.9 -5.8 -232.65 -5.8 -232.4 -5.95
L -229.45 -8.55 -229.45 15.15
Q -229.45 15.65 -228.9 15.65
L -225.7 15.65
Q -225.2 15.65 -225.2 15.15
L -225.2 -13.65
Q -225.2 -14.45 -225.35 -14.6 -225.45 -14.75 -226.15 -14.75
L -228.25 -14.75
Q -228.4 -14.75 -228.6 -14.65
M -173.55 -101.25
Q -173.55 -101.45 -173.65 -101.6 -173.8 -101.8 -174.05 -101.8
L -188.7 -101.8
Q -189.3 -101.8 -189.4 -101.65 -189.55 -101.55 -189.55 -101.1
L -189.75 -86.35
Q -189.75 -85 -188.2 -85.65 -186.95 -86.1 -185.55 -86.35 -184.15 -86.65 -182.85 -86.65 -179.55 -86.65 -178.15 -85.1 -176.7 -83.6 -176.7 -81 -176.7 -78.3 -178.5 -76.8 -180.2 -75.25 -182.9 -75.25 -183.6 -75.25 -184.45 -75.35 -185.25 -75.4 -186.1 -75.55 -186.95 -75.75 -187.75 -75.95 -188.55 -76.2 -189.1 -76.5 -189.95 -76.9 -189.95 -76.2
L -189.95 -72.95
Q -189.95 -72.65 -189.95 -72.5 -189.9 -72.4 -189.65 -72.2 -189 -71.9 -188.05 -71.7 -187.15 -71.45 -186.2 -71.3 -185.25 -71.2 -184.45 -71.1 -183.6 -71.05 -183.2 -71.05 -180.9 -71.05 -178.85 -71.7 -176.75 -72.35 -175.35 -73.65 -172.2 -76.45 -172.2 -81.5 -172.2 -83.6 -172.95 -85.25 -173.7 -86.95 -175 -88.15 -176.3 -89.3 -178.05 -89.95 -179.8 -90.55 -181.8 -90.55 -183.75 -90.55 -185.35 -90.2
L -185.2 -97.6 -174.05 -97.6
Q -173.8 -97.6 -173.65 -97.8 -173.55 -97.95 -173.55 -98.2
L -173.55 -101.25
M -202.85 -101.65
Q -202.95 -101.55 -203.15 -101.2
L -215.55 -82.6
Q -215.7 -82.45 -215.85 -82.15 -216.05 -81.85 -216.05 -81.6
L -216.05 -78.6
Q -216.05 -78.3 -215.9 -78.25 -215.75 -78.15 -215.4 -78.15
L -202.6 -78.15 -202.6 -72.05
Q -202.6 -71.65 -202.45 -71.5 -202.3 -71.35 -201.85 -71.35
L -198.95 -71.35
Q -198.55 -71.35 -198.45 -71.5 -198.3 -71.6 -198.3 -72.05
L -198.3 -78.15 -194.6 -78.15
Q -194.25 -78.15 -194.1 -78.25 -193.95 -78.35 -193.95 -78.75
L -193.95 -81.65
Q -193.95 -82.05 -194.1 -82.15 -194.25 -82.25 -194.6 -82.25
L -198.3 -82.25 -198.3 -101.15
Q -198.3 -101.5 -198.35 -101.6 -198.4 -101.75 -198.7 -101.75
L -202.35 -101.75
Q -202.75 -101.75 -202.85 -101.65
M -202.6 -82.25
L -211.2 -82.25 -202.6 -95.3 -202.6 -82.25
M -228.6 -101.65
Q -228.8 -101.6 -228.85 -101.5
L -235 -95.85
Q -235.2 -95.65 -235.2 -95.45 -235.25 -95.2 -235.1 -95.05
L -233.3 -92.9
Q -233.15 -92.75 -232.9 -92.8 -232.65 -92.8 -232.4 -92.95
L -229.45 -95.55 -229.45 -71.85
Q -229.45 -71.35 -228.9 -71.35
L -225.7 -71.35
Q -225.2 -71.35 -225.2 -71.85
L -225.2 -100.65
Q -225.2 -101.45 -225.35 -101.6 -225.45 -101.75 -226.15 -101.75
L -228.25 -101.75
Q -228.4 -101.75 -228.6 -101.65
M -225.2 -186.65
Q -225.2 -187.45 -225.35 -187.6 -225.45 -187.75 -226.15 -187.75
L -228.25 -187.75
Q -228.4 -187.75 -228.6 -187.65 -228.8 -187.6 -228.85 -187.5
L -235 -181.85
Q -235.2 -181.65 -235.2 -181.45 -235.25 -181.2 -235.1 -181.05
L -233.3 -178.9
Q -233.15 -178.75 -232.9 -178.8 -232.65 -178.8 -232.4 -178.95
L -229.45 -181.55 -229.45 -157.85
Q -229.45 -157.35 -228.9 -157.35
L -225.7 -157.35
Q -225.2 -157.35 -225.2 -157.85
L -225.2 -186.65
M -199.35 -186.3
Q -200.65 -187.2 -202.4 -187.65 -204.15 -188.1 -205.95 -188.1 -207.65 -188.1 -209.3 -187.75 -211 -187.35 -212.75 -186.75 -213.15 -186.55 -213.3 -186.35 -213.45 -186.2 -213.35 -185.95
L -213 -183
Q -212.9 -182.65 -212.7 -182.55 -212.5 -182.45 -212 -182.65 -211.4 -182.9 -210.6 -183.15 -209.8 -183.4 -209 -183.55 -208.2 -183.75 -207.45 -183.85 -206.75 -183.95 -206.2 -183.95 -205.35 -183.95 -204.4 -183.75 -203.45 -183.55 -202.6 -183.05 -201.8 -182.6 -201.25 -181.8 -200.75 -181.05 -200.75 -180.05 -200.75 -178.7 -201.55 -177.8 -202.35 -176.85 -203.55 -176.25 -204.7 -175.65 -205.95 -175.4 -207.2 -175.15 -208.05 -175.15
L -209.95 -175.15
Q -210.3 -175.15 -210.4 -175.05 -210.5 -175 -210.5 -174.6
L -210.5 -171.65
Q -210.5 -171.35 -210.4 -171.25 -210.3 -171.15 -209.95 -171.15
L -208 -171.15
Q -206.05 -171.15 -204.7 -170.75 -203.3 -170.4 -202.4 -169.7 -201.55 -169.05 -201.1 -168.2 -200.7 -167.35 -200.7 -166.4 -200.7 -163.75 -202.65 -162.4 -203.3 -161.95 -204.05 -161.7 -204.85 -161.4 -205.7 -161.3 -206.55 -161.2 -207.45 -161.25 -208.35 -161.3 -209.15 -161.35 -210.25 -161.45 -211.3 -161.75 -212.35 -162.05 -213.4 -162.35 -213.95 -162.6 -214.15 -162.45 -214.35 -162.35 -214.4 -162
L -214.75 -158.95
Q -214.8 -158.6 -214.6 -158.45 -214.45 -158.25 -214.05 -158.15 -212.6 -157.6 -210.85 -157.3 -209.1 -157 -207.35 -157 -205.05 -157 -202.9 -157.6 -200.75 -158.15 -199.25 -159.4 -197.75 -160.65 -196.9 -162.4 -196.1 -164.2 -196.1 -166.3 -196.1 -168.5 -197.45 -170.3 -198.8 -172.05 -201.45 -173.2 -200.35 -173.7 -199.4 -174.45 -198.45 -175.2 -197.75 -176.2 -197.05 -177.15 -196.65 -178.2 -196.3 -179.3 -196.3 -180.4 -196.3 -182.4 -197.15 -183.9 -198 -185.4 -199.35 -186.3
M -176.1 -186.3
Q -177.4 -187.2 -179.15 -187.65 -180.9 -188.1 -182.7 -188.1 -184.4 -188.1 -186.05 -187.75 -187.75 -187.35 -189.5 -186.75 -189.9 -186.55 -190.05 -186.35 -190.2 -186.2 -190.1 -185.95
L -189.75 -183
Q -189.65 -182.65 -189.45 -182.55 -189.25 -182.45 -188.75 -182.65 -188.15 -182.9 -187.35 -183.15 -186.55 -183.4 -185.75 -183.55 -184.95 -183.75 -184.2 -183.85 -183.5 -183.95 -182.95 -183.95 -182.1 -183.95 -181.15 -183.75 -180.2 -183.55 -179.35 -183.05 -178.55 -182.6 -178 -181.8 -177.5 -181.05 -177.5 -180.05 -177.5 -178.7 -178.3 -177.8 -179.1 -176.85 -180.3 -176.25 -181.45 -175.65 -182.7 -175.4 -183.95 -175.15 -184.8 -175.15
L -186.7 -175.15
Q -187.05 -175.15 -187.15 -175.05 -187.25 -175 -187.25 -174.6
L -187.25 -171.65
Q -187.25 -171.35 -187.15 -171.25 -187.05 -171.15 -186.7 -171.15
L -184.75 -171.15
Q -182.8 -171.15 -181.45 -170.75 -180.05 -170.4 -179.15 -169.7 -178.3 -169.05 -177.85 -168.2 -177.45 -167.35 -177.45 -166.4 -177.45 -163.75 -179.4 -162.4 -180.05 -161.95 -180.8 -161.7 -181.6 -161.4 -182.45 -161.3 -183.3 -161.2 -184.2 -161.25 -185.1 -161.3 -185.9 -161.35 -187 -161.45 -188.05 -161.75 -189.1 -162.05 -190.15 -162.35 -190.7 -162.6 -190.9 -162.45 -191.1 -162.35 -191.15 -162
L -191.5 -158.95
Q -191.55 -158.6 -191.35 -158.45 -191.2 -158.25 -190.8 -158.15 -189.35 -157.6 -187.6 -157.3 -185.85 -157 -184.1 -157 -181.8 -157 -179.65 -157.6 -177.5 -158.15 -176 -159.4 -174.5 -160.65 -173.65 -162.4 -172.85 -164.2 -172.85 -166.3 -172.85 -168.5 -174.2 -170.3 -175.55 -172.05 -178.2 -173.2 -177.1 -173.7 -176.15 -174.45 -175.2 -175.2 -174.5 -176.2 -173.8 -177.15 -173.4 -178.2 -173.05 -179.3 -173.05 -180.4 -173.05 -182.4 -173.9 -183.9 -174.75 -185.4 -176.1 -186.3
M -331.05 -14.65
Q -331.2 -14.55 -331.2 -14.1
L -331.4 0.65
Q -331.4 2 -329.85 1.35 -328.6 0.9 -327.2 0.65 -325.8 0.35 -324.5 0.35 -321.2 0.35 -319.8 1.9 -318.35 3.4 -318.35 6 -318.35 8.7 -320.15 10.2 -321.85 11.75 -324.55 11.75 -325.25 11.75 -326.1 11.65 -326.9 11.6 -327.75 11.45 -328.6 11.25 -329.4 11.05 -330.2 10.8 -330.75 10.5 -331.6 10.1 -331.6 10.8
L -331.6 14.05
Q -331.6 14.35 -331.6 14.5 -331.55 14.6 -331.3 14.8 -330.65 15.1 -329.7 15.3 -328.8 15.55 -327.85 15.7 -326.9 15.8 -326.1 15.9 -325.25 15.95 -324.85 15.95 -322.55 15.95 -320.5 15.3 -318.4 14.65 -317 13.35 -313.85 10.55 -313.85 5.5 -313.85 3.4 -314.6 1.75 -315.35 0.05 -316.65 -1.15 -317.95 -2.3 -319.7 -2.95 -321.45 -3.55 -323.45 -3.55 -325.4 -3.55 -327 -3.2
L -326.85 -10.6 -315.7 -10.6
Q -315.45 -10.6 -315.3 -10.8 -315.2 -10.95 -315.2 -11.2
L -315.2 -14.25
Q -315.2 -14.45 -315.3 -14.6 -315.45 -14.8 -315.7 -14.8
L -330.35 -14.8
Q -330.95 -14.8 -331.05 -14.65
M -346.7 -3.55
Q -348.65 -3.55 -350.25 -3.2
L -350.1 -10.6 -338.95 -10.6
Q -338.7 -10.6 -338.55 -10.8 -338.45 -10.95 -338.45 -11.2
L -338.45 -14.25
Q -338.45 -14.45 -338.55 -14.6 -338.7 -14.8 -338.95 -14.8
L -353.6 -14.8
Q -354.2 -14.8 -354.3 -14.65 -354.45 -14.55 -354.45 -14.1
L -354.65 0.65
Q -354.65 2 -353.1 1.35 -351.85 0.9 -350.45 0.65 -349.05 0.35 -347.75 0.35 -344.45 0.35 -343.05 1.9 -341.6 3.4 -341.6 6 -341.6 8.7 -343.4 10.2 -345.1 11.75 -347.8 11.75 -348.5 11.75 -349.35 11.65 -350.15 11.6 -351 11.45 -351.85 11.25 -352.65 11.05 -353.45 10.8 -354 10.5 -354.85 10.1 -354.85 10.8
L -354.85 14.05
Q -354.85 14.35 -354.85 14.5 -354.8 14.6 -354.55 14.8 -353.9 15.1 -352.95 15.3 -352.05 15.55 -351.1 15.7 -350.15 15.8 -349.35 15.9 -348.5 15.95 -348.1 15.95 -345.8 15.95 -343.75 15.3 -341.65 14.65 -340.25 13.35 -337.1 10.55 -337.1 5.5 -337.1 3.4 -337.85 1.75 -338.6 0.05 -339.9 -1.15 -341.2 -2.3 -342.95 -2.95 -344.7 -3.55 -346.7 -3.55
M -370.25 -14.65
Q -370.45 -14.6 -370.5 -14.5
L -376.65 -8.85
Q -376.85 -8.65 -376.85 -8.45 -376.9 -8.2 -376.75 -8.05
L -374.95 -5.9
Q -374.8 -5.75 -374.55 -5.8 -374.3 -5.8 -374.05 -5.95
L -371.1 -8.55 -371.1 15.15
Q -371.1 15.65 -370.55 15.65
L -367.35 15.65
Q -366.85 15.65 -366.85 15.15
L -366.85 -13.65
Q -366.85 -14.45 -367 -14.6 -367.1 -14.75 -367.8 -14.75
L -369.9 -14.75
Q -370.05 -14.75 -370.25 -14.65
M -331.7 -100.35
Q -331.85 -100.2 -331.75 -99.95
L -331.4 -97
Q -331.3 -96.65 -331.1 -96.55 -330.9 -96.45 -330.4 -96.65 -329.8 -96.9 -329 -97.15 -328.2 -97.4 -327.4 -97.55 -326.6 -97.75 -325.85 -97.85 -325.15 -97.95 -324.6 -97.95 -323.75 -97.95 -322.8 -97.75 -321.85 -97.55 -321 -97.05 -320.2 -96.6 -319.65 -95.8 -319.15 -95.05 -319.15 -94.05 -319.15 -92.7 -319.95 -91.8 -320.75 -90.85 -321.95 -90.25 -323.1 -89.65 -324.35 -89.4 -325.6 -89.15 -326.45 -89.15
L -328.35 -89.15
Q -328.7 -89.15 -328.8 -89.05 -328.9 -89 -328.9 -88.6
L -328.9 -85.65
Q -328.9 -85.35 -328.8 -85.25 -328.7 -85.15 -328.35 -85.15
L -326.4 -85.15
Q -324.45 -85.15 -323.1 -84.75 -321.7 -84.4 -320.8 -83.7 -319.95 -83.05 -319.5 -82.2 -319.1 -81.35 -319.1 -80.4 -319.1 -77.75 -321.05 -76.4 -321.7 -75.95 -322.45 -75.7 -323.25 -75.4 -324.1 -75.3 -324.95 -75.2 -325.85 -75.25 -326.75 -75.3 -327.55 -75.35 -328.65 -75.45 -329.7 -75.75 -330.75 -76.05 -331.8 -76.35 -332.35 -76.6 -332.55 -76.45 -332.75 -76.35 -332.8 -76
L -333.15 -72.95
Q -333.2 -72.6 -333 -72.45 -332.85 -72.25 -332.45 -72.15 -331 -71.6 -329.25 -71.3 -327.5 -71 -325.75 -71 -323.45 -71 -321.3 -71.6 -319.15 -72.15 -317.65 -73.4 -316.15 -74.65 -315.3 -76.4 -314.5 -78.2 -314.5 -80.3 -314.5 -82.5 -315.85 -84.3 -317.2 -86.05 -319.85 -87.2 -318.75 -87.7 -317.8 -88.45 -316.85 -89.2 -316.15 -90.2 -315.45 -91.15 -315.05 -92.2 -314.7 -93.3 -314.7 -94.4 -314.7 -96.4 -315.55 -97.9 -316.4 -99.4 -317.75 -100.3 -319.05 -101.2 -320.8 -101.65 -322.55 -102.1 -324.35 -102.1 -326.05 -102.1 -327.7 -101.75 -329.4 -101.35 -331.15 -100.75 -331.55 -100.55 -331.7 -100.35
M -344.5 -101.65
Q -344.6 -101.55 -344.8 -101.2
L -357.2 -82.6
Q -357.35 -82.45 -357.5 -82.15 -357.7 -81.85 -357.7 -81.6
L -357.7 -78.6
Q -357.7 -78.3 -357.55 -78.25 -357.4 -78.15 -357.05 -78.15
L -344.25 -78.15 -344.25 -72.05
Q -344.25 -71.65 -344.1 -71.5 -343.95 -71.35 -343.5 -71.35
L -340.6 -71.35
Q -340.2 -71.35 -340.1 -71.5 -339.95 -71.6 -339.95 -72.05
L -339.95 -78.15 -336.25 -78.15
Q -335.9 -78.15 -335.75 -78.25 -335.6 -78.35 -335.6 -78.75
L -335.6 -81.65
Q -335.6 -82.05 -335.75 -82.15 -335.9 -82.25 -336.25 -82.25
L -339.95 -82.25 -339.95 -101.15
Q -339.95 -101.5 -340 -101.6 -340.05 -101.75 -340.35 -101.75
L -344 -101.75
Q -344.4 -101.75 -344.5 -101.65
M -344.25 -95.3
L -344.25 -82.25 -352.85 -82.25 -344.25 -95.3
M -370.25 -101.65
Q -370.45 -101.6 -370.5 -101.5
L -376.65 -95.85
Q -376.85 -95.65 -376.85 -95.45 -376.9 -95.2 -376.75 -95.05
L -374.95 -92.9
Q -374.8 -92.75 -374.55 -92.8 -374.3 -92.8 -374.05 -92.95
L -371.1 -95.55 -371.1 -71.85
Q -371.1 -71.35 -370.55 -71.35
L -367.35 -71.35
Q -366.85 -71.35 -366.85 -71.85
L -366.85 -100.65
Q -366.85 -101.45 -367 -101.6 -367.1 -101.75 -367.8 -101.75
L -369.9 -101.75
Q -370.05 -101.75 -370.25 -101.65
M -366.85 -186.65
Q -366.85 -187.45 -367 -187.6 -367.1 -187.75 -367.8 -187.75
L -369.9 -187.75
Q -370.05 -187.75 -370.25 -187.65 -370.45 -187.6 -370.5 -187.5
L -376.65 -181.85
Q -376.85 -181.65 -376.85 -181.45 -376.9 -181.2 -376.75 -181.05
L -374.95 -178.9
Q -374.8 -178.75 -374.55 -178.8 -374.3 -178.8 -374.05 -178.95
L -371.1 -181.55 -371.1 -157.85
Q -371.1 -157.35 -370.55 -157.35
L -367.35 -157.35
Q -366.85 -157.35 -366.85 -157.85
L -366.85 -186.65
M -330.15 -181.85
Q -330.35 -181.65 -330.35 -181.45 -330.4 -181.2 -330.25 -181.05
L -328.45 -178.9
Q -328.3 -178.75 -328.05 -178.8 -327.8 -178.8 -327.55 -178.95
L -324.6 -181.55 -324.6 -157.85
Q -324.6 -157.35 -324.05 -157.35
L -320.85 -157.35
Q -320.35 -157.35 -320.35 -157.85
L -320.35 -186.65
Q -320.35 -187.45 -320.5 -187.6 -320.6 -187.75 -321.3 -187.75
L -323.4 -187.75
Q -323.55 -187.75 -323.75 -187.65 -323.95 -187.6 -324 -187.5
L -330.15 -181.85
M -341 -186.3
Q -342.3 -187.2 -344.05 -187.65 -345.8 -188.1 -347.6 -188.1 -349.3 -188.1 -350.95 -187.75 -352.65 -187.35 -354.4 -186.75 -354.8 -186.55 -354.95 -186.35 -355.1 -186.2 -355 -185.95
L -354.65 -183
Q -354.55 -182.65 -354.35 -182.55 -354.15 -182.45 -353.65 -182.65 -353.05 -182.9 -352.25 -183.15 -351.45 -183.4 -350.65 -183.55 -349.85 -183.75 -349.1 -183.85 -348.4 -183.95 -347.85 -183.95 -347 -183.95 -346.05 -183.75 -345.1 -183.55 -344.25 -183.05 -343.45 -182.6 -342.9 -181.8 -342.4 -181.05 -342.4 -180.05 -342.4 -178.7 -343.2 -177.8 -344 -176.85 -345.2 -176.25 -346.35 -175.65 -347.6 -175.4 -348.85 -175.15 -349.7 -175.15
L -351.6 -175.15
Q -351.95 -175.15 -352.05 -175.05 -352.15 -175 -352.15 -174.6
L -352.15 -171.65
Q -352.15 -171.35 -352.05 -171.25 -351.95 -171.15 -351.6 -171.15
L -349.65 -171.15
Q -347.7 -171.15 -346.35 -170.75 -344.95 -170.4 -344.05 -169.7 -343.2 -169.05 -342.75 -168.2 -342.35 -167.35 -342.35 -166.4 -342.35 -163.75 -344.3 -162.4 -344.95 -161.95 -345.7 -161.7 -346.5 -161.4 -347.35 -161.3 -348.2 -161.2 -349.1 -161.25 -350 -161.3 -350.8 -161.35 -351.9 -161.45 -352.95 -161.75 -354 -162.05 -355.05 -162.35 -355.6 -162.6 -355.8 -162.45 -356 -162.35 -356.05 -162
L -356.4 -158.95
Q -356.45 -158.6 -356.25 -158.45 -356.1 -158.25 -355.7 -158.15 -354.25 -157.6 -352.5 -157.3 -350.75 -157 -349 -157 -346.7 -157 -344.55 -157.6 -342.4 -158.15 -340.9 -159.4 -339.4 -160.65 -338.55 -162.4 -337.75 -164.2 -337.75 -166.3 -337.75 -168.5 -339.1 -170.3 -340.45 -172.05 -343.1 -173.2 -342 -173.7 -341.05 -174.45 -340.1 -175.2 -339.4 -176.2 -338.7 -177.15 -338.3 -178.2 -337.95 -179.3 -337.95 -180.4 -337.95 -182.4 -338.8 -183.9 -339.65 -185.4 -341 -186.3
M 109.6 157.4
Q 109.45 157.2 109.2 157.2
L 94.55 157.2
Q 93.95 157.2 93.85 157.35 93.7 157.45 93.7 157.9
L 93.5 172.65
Q 93.5 174 95.05 173.35 96.3 172.9 97.7 172.65 99.1 172.35 100.4 172.35 103.7 172.35 105.1 173.9 106.55 175.4 106.55 178 106.55 180.7 104.75 182.2 103.05 183.75 100.35 183.75 99.65 183.75 98.8 183.65 98 183.6 97.15 183.45 96.3 183.25 95.5 183.05 94.7 182.8 94.15 182.5 93.3 182.1 93.3 182.8
L 93.3 186.05
Q 93.3 186.35 93.3 186.5 93.35 186.6 93.6 186.8 94.25 187.1 95.2 187.3 96.1 187.55 97.05 187.7 98 187.8 98.8 187.9 99.65 187.95 100.05 187.95 102.35 187.95 104.4 187.3 106.5 186.65 107.9 185.35 111.05 182.55 111.05 177.5 111.05 175.4 110.3 173.75 109.55 172.05 108.25 170.85 106.95 169.7 105.2 169.05 103.45 168.45 101.45 168.45 99.5 168.45 97.9 168.8
L 98.05 161.4 109.2 161.4
Q 109.45 161.4 109.6 161.2 109.7 161.05 109.7 160.8
L 109.7 157.75
Q 109.7 157.55 109.6 157.4
M 55 157.25
Q 54.85 157.25 54.65 157.35 54.45 157.4 54.4 157.5
L 48.25 163.15
Q 48.05 163.35 48.05 163.55 48 163.8 48.15 163.95
L 49.95 166.1
Q 50.1 166.25 50.35 166.2 50.6 166.2 50.85 166.05
L 53.8 163.45 53.8 187.15
Q 53.8 187.65 54.35 187.65
L 57.55 187.65
Q 58.05 187.65 58.05 187.15
L 58.05 158.35
Q 58.05 157.55 57.9 157.4 57.8 157.25 57.1 157.25
L 55 157.25
M 78.45 156.9
Q 76.5 156.9 74.8 157.45 73.1 158 71.85 159 70.6 160 69.85 161.4 69.1 162.8 69.1 164.5 69.1 166.8 70.5 168.6 71.9 170.4 74.3 171.8 73.1 172.4 72 173.1 70.9 173.8 70.1 174.7 69.3 175.6 68.75 176.75 68.3 177.9 68.3 179.4 68.3 181.55 69.2 183.15 70.1 184.8 71.55 185.85 73 186.9 74.8 187.45 76.65 188 78.45 188 80.4 188 82.2 187.45 84.1 186.9 85.5 185.85 86.9 184.8 87.75 183.15 88.65 181.55 88.65 179.4 88.65 178 88.2 177 87.8 175.95 87 175.05 86.2 174.15 85.1 173.35 83.95 172.6 82.55 171.75 85.15 169.95 86.4 168.2 87.65 166.4 87.65 164.4 87.65 162.65 86.95 161.25 86.25 159.85 85.05 158.9 83.85 157.95 82.15 157.4 80.45 156.9 78.45 156.9
M 74.25 166.45
Q 73.65 165.65 73.65 164.8 73.65 163.85 74.1 163.1 74.55 162.4 75.25 161.9 75.9 161.4 76.75 161.1 77.6 160.8 78.45 160.8 79.4 160.8 80.25 161.15 81.1 161.4 81.75 161.95 82.4 162.5 82.75 163.2 83.15 163.9 83.15 164.7 83.15 165.4 82.65 166.2 82.15 167 81.4 167.75 80.65 168.45 79.85 169 79.1 169.55 78.45 169.8 77.95 169.6 77.15 169.1 76.35 168.65 75.55 167.95 74.8 167.25 74.25 166.45
M 78.45 174
Q 79.45 174.35 80.45 174.95 81.45 175.55 82.3 176.25 83.1 177 83.6 177.8 84.1 178.65 84.1 179.4 84.1 180.45 83.6 181.3 83.1 182.15 82.3 182.75 81.5 183.35 80.5 183.65 79.45 183.95 78.45 183.95 77.5 183.95 76.45 183.65 75.45 183.3 74.6 182.7 73.8 182.1 73.3 181.25 72.75 180.4 72.75 179.4 72.75 178.15 73.35 177.25 73.95 176.35 74.8 175.7 75.65 175.05 76.7 174.65 77.65 174.2 78.45 174
M 58.05 73.35
Q 58.05 72.55 57.9 72.4 57.8 72.25 57.1 72.25
L 55 72.25
Q 54.85 72.25 54.65 72.35 54.45 72.4 54.4 72.5
L 48.25 78.15
Q 48.05 78.35 48.05 78.55 48 78.8 48.15 78.95
L 49.95 81.1
Q 50.1 81.25 50.35 81.2 50.6 81.2 50.85 81.05
L 53.8 78.45 53.8 102.15
Q 53.8 102.65 54.35 102.65
L 57.55 102.65
Q 58.05 102.65 58.05 102.15
L 58.05 73.35
M 87.45 73
Q 87.45 72.55 87.3 72.4 87.15 72.25 86.45 72.25
L 69.45 72.25
Q 68.75 72.25 68.75 72.9
L 68.75 75.7
Q 68.75 76.05 68.95 76.2 69.15 76.4 69.45 76.4
L 82.2 76.4 71.75 101.95
Q 71.6 102.4 71.75 102.5 71.9 102.65 72.5 102.65
L 75.75 102.65
Q 76.15 102.65 76.3 102.55 76.45 102.4 76.65 102.1
L 87.2 76.05
Q 87.45 75.75 87.45 75.4
L 87.45 73
M 107.15 73.7
Q 105.85 72.8 104.1 72.35 102.35 71.9 100.55 71.9 98.85 71.9 97.2 72.25 95.5 72.65 93.75 73.25 93.35 73.45 93.2 73.65 93.05 73.8 93.15 74.05
L 93.5 77
Q 93.6 77.35 93.8 77.45 94 77.55 94.5 77.35 95.1 77.1 95.9 76.85 96.7 76.6 97.5 76.45 98.3 76.25 99.05 76.15 99.75 76.05 100.3 76.05 101.15 76.05 102.1 76.25 103.05 76.45 103.9 76.95 104.7 77.4 105.25 78.2 105.75 78.95 105.75 79.95 105.75 81.3 104.95 82.2 104.15 83.15 102.95 83.75 101.8 84.35 100.55 84.6 99.3 84.85 98.45 84.85
L 96.55 84.85
Q 96.2 84.85 96.1 84.95 96 85 96 85.4
L 96 88.35
Q 96 88.65 96.1 88.75 96.2 88.85 96.55 88.85
L 98.5 88.85
Q 100.45 88.85 101.8 89.25 103.2 89.6 104.1 90.3 104.95 90.95 105.4 91.8 105.8 92.65 105.8 93.6 105.8 96.25 103.85 97.6 103.2 98.05 102.45 98.3 101.65 98.6 100.8 98.7 99.95 98.8 99.05 98.75 98.15 98.7 97.35 98.65 96.25 98.55 95.2 98.25 94.15 97.95 93.1 97.65 92.55 97.4 92.35 97.55 92.15 97.65 92.1 98
L 91.75 101.05
Q 91.7 101.4 91.9 101.55 92.05 101.75 92.45 101.85 93.9 102.4 95.65 102.7 97.4 103 99.15 103 101.45 103 103.6 102.4 105.75 101.85 107.25 100.6 108.75 99.35 109.6 97.6 110.4 95.8 110.4 93.7 110.4 91.5 109.05 89.7 107.7 87.95 105.05 86.8 106.15 86.3 107.1 85.55 108.05 84.8 108.75 83.8 109.45 82.85 109.85 81.8 110.2 80.7 110.2 79.6 110.2 77.6 109.35 76.1 108.5 74.6 107.15 73.7
M 392.1 -100.3
Q 390.8 -101.2 389.05 -101.65 387.3 -102.1 385.5 -102.1 383.8 -102.1 382.15 -101.75 380.45 -101.35 378.7 -100.75 378.3 -100.55 378.15 -100.35 378 -100.2 378.1 -99.95
L 378.45 -97
Q 378.55 -96.65 378.75 -96.55 378.95 -96.45 379.45 -96.65 380.05 -96.9 380.85 -97.15 381.65 -97.4 382.45 -97.55 383.25 -97.75 384 -97.85 384.7 -97.95 385.25 -97.95 386.1 -97.95 387.05 -97.75 388 -97.55 388.85 -97.05 389.65 -96.6 390.2 -95.8 390.7 -95.05 390.7 -94.05 390.7 -92.7 389.9 -91.8 389.1 -90.85 387.9 -90.25 386.75 -89.65 385.5 -89.4 384.25 -89.15 383.4 -89.15
L 381.5 -89.15
Q 381.15 -89.15 381.05 -89.05 380.95 -89 380.95 -88.6
L 380.95 -85.65
Q 380.95 -85.35 381.05 -85.25 381.15 -85.15 381.5 -85.15
L 383.45 -85.15
Q 385.4 -85.15 386.75 -84.75 388.15 -84.4 389.05 -83.7 389.9 -83.05 390.35 -82.2 390.75 -81.35 390.75 -80.4 390.75 -77.75 388.8 -76.4 388.15 -75.95 387.4 -75.7 386.6 -75.4 385.75 -75.3 384.9 -75.2 384 -75.25 383.1 -75.3 382.3 -75.35 381.2 -75.45 380.15 -75.75 379.1 -76.05 378.05 -76.35 377.5 -76.6 377.3 -76.45 377.1 -76.35 377.05 -76
L 376.7 -72.95
Q 376.65 -72.6 376.85 -72.45 377 -72.25 377.4 -72.15 378.85 -71.6 380.6 -71.3 382.35 -71 384.1 -71 386.4 -71 388.55 -71.6 390.7 -72.15 392.2 -73.4 393.7 -74.65 394.55 -76.4 395.35 -78.2 395.35 -80.3 395.35 -82.5 394 -84.3 392.65 -86.05 390 -87.2 391.1 -87.7 392.05 -88.45 393 -89.2 393.7 -90.2 394.4 -91.15 394.8 -92.2 395.15 -93.3 395.15 -94.4 395.15 -96.4 394.3 -97.9 393.45 -99.4 392.1 -100.3
M 339.6 -101.65
Q 339.4 -101.6 339.35 -101.5
L 333.2 -95.85
Q 333 -95.65 333 -95.45 332.95 -95.2 333.1 -95.05
L 334.9 -92.9
Q 335.05 -92.75 335.3 -92.8 335.55 -92.8 335.8 -92.95
L 338.75 -95.55 338.75 -71.85
Q 338.75 -71.35 339.3 -71.35
L 342.5 -71.35
Q 343 -71.35 343 -71.85
L 343 -100.65
Q 343 -101.45 342.85 -101.6 342.75 -101.75 342.05 -101.75
L 339.95 -101.75
Q 339.8 -101.75 339.6 -101.65
M 356.25 -101.8
Q 355.65 -101.8 355.55 -101.65 355.4 -101.55 355.4 -101.1
L 355.2 -86.35
Q 355.2 -85 356.75 -85.65 358 -86.1 359.4 -86.35 360.8 -86.65 362.1 -86.65 365.4 -86.65 366.8 -85.1 368.25 -83.6 368.25 -81 368.25 -78.3 366.45 -76.8 364.75 -75.25 362.05 -75.25 361.35 -75.25 360.5 -75.35 359.7 -75.4 358.85 -75.55 358 -75.75 357.2 -75.95 356.4 -76.2 355.85 -76.5 355 -76.9 355 -76.2
L 355 -72.95
Q 355 -72.65 355 -72.5 355.05 -72.4 355.3 -72.2 355.95 -71.9 356.9 -71.7 357.8 -71.45 358.75 -71.3 359.7 -71.2 360.5 -71.1 361.35 -71.05 361.75 -71.05 364.05 -71.05 366.1 -71.7 368.2 -72.35 369.6 -73.65 372.75 -76.45 372.75 -81.5 372.75 -83.6 372 -85.25 371.25 -86.95 369.95 -88.15 368.65 -89.3 366.9 -89.95 365.15 -90.55 363.15 -90.55 361.2 -90.55 359.6 -90.2
L 359.75 -97.6 370.9 -97.6
Q 371.15 -97.6 371.3 -97.8 371.4 -97.95 371.4 -98.2
L 371.4 -101.25
Q 371.4 -101.45 371.3 -101.6 371.15 -101.8 370.9 -101.8
L 356.25 -101.8
M 339.95 -187.75
Q 339.8 -187.75 339.6 -187.65 339.4 -187.6 339.35 -187.5
L 333.2 -181.85
Q 333 -181.65 333 -181.45 332.95 -181.2 333.1 -181.05
L 334.9 -178.9
Q 335.05 -178.75 335.3 -178.8 335.55 -178.8 335.8 -178.95
L 338.75 -181.55 338.75 -157.85
Q 338.75 -157.35 339.3 -157.35
L 342.5 -157.35
Q 343 -157.35 343 -157.85
L 343 -186.65
Q 343 -187.45 342.85 -187.6 342.75 -187.75 342.05 -187.75
L 339.95 -187.75
M 369.85 -187.6
Q 369.8 -187.75 369.5 -187.75
L 365.85 -187.75
Q 365.45 -187.75 365.35 -187.65 365.25 -187.55 365.05 -187.2
L 352.65 -168.6
Q 352.5 -168.45 352.35 -168.15 352.15 -167.85 352.15 -167.6
L 352.15 -164.6
Q 352.15 -164.3 352.3 -164.25 352.45 -164.15 352.8 -164.15
L 365.6 -164.15 365.6 -158.05
Q 365.6 -157.65 365.75 -157.5 365.9 -157.35 366.35 -157.35
L 369.25 -157.35
Q 369.65 -157.35 369.75 -157.5 369.9 -157.6 369.9 -158.05
L 369.9 -164.15 373.6 -164.15
Q 373.95 -164.15 374.1 -164.25 374.25 -164.35 374.25 -164.75
L 374.25 -167.65
Q 374.25 -168.05 374.1 -168.15 373.95 -168.25 373.6 -168.25
L 369.9 -168.25 369.9 -187.15
Q 369.9 -187.5 369.85 -187.6
M 365.6 -181.3
L 365.6 -168.25 357 -168.25 365.6 -181.3
M 386.1 -187.65
Q 385.9 -187.6 385.85 -187.5
L 379.7 -181.85
Q 379.5 -181.65 379.5 -181.45 379.45 -181.2 379.6 -181.05
L 381.4 -178.9
Q 381.55 -178.75 381.8 -178.8 382.05 -178.8 382.3 -178.95
L 385.25 -181.55 385.25 -157.85
Q 385.25 -157.35 385.8 -157.35
L 389 -157.35
Q 389.5 -157.35 389.5 -157.85
L 389.5 -186.65
Q 389.5 -187.45 389.35 -187.6 389.25 -187.75 388.55 -187.75
L 386.45 -187.75
Q 386.3 -187.75 386.1 -187.65
M 240.15 -14.75
Q 238.45 -14.35 236.7 -13.75 236.3 -13.55 236.15 -13.35 236 -13.2 236.1 -12.95
L 236.45 -10
Q 236.55 -9.65 236.75 -9.55 236.95 -9.45 237.45 -9.65 238.05 -9.9 238.85 -10.15 239.65 -10.4 240.45 -10.55 241.25 -10.75 242 -10.85 242.7 -10.95 243.25 -10.95 244.1 -10.95 245.05 -10.75 246 -10.55 246.85 -10.05 247.65 -9.6 248.2 -8.8 248.7 -8.05 248.7 -7.05 248.7 -5.7 247.9 -4.8 247.1 -3.85 245.9 -3.25 244.75 -2.65 243.5 -2.4 242.25 -2.15 241.4 -2.15
L 239.5 -2.15
Q 239.15 -2.15 239.05 -2.05 238.95 -2 238.95 -1.6
L 238.95 1.35
Q 238.95 1.65 239.05 1.75 239.15 1.85 239.5 1.85
L 241.45 1.85
Q 243.4 1.85 244.75 2.25 246.15 2.6 247.05 3.3 247.9 3.95 248.35 4.8 248.75 5.65 248.75 6.6 248.75 9.25 246.8 10.6 246.15 11.05 245.4 11.3 244.6 11.6 243.75 11.7 242.9 11.8 242 11.75 241.1 11.7 240.3 11.65 239.2 11.55 238.15 11.25 237.1 10.95 236.05 10.65 235.5 10.4 235.3 10.55 235.1 10.65 235.05 11
L 234.7 14.05
Q 234.65 14.4 234.85 14.55 235 14.75 235.4 14.85 236.85 15.4 238.6 15.7 240.35 16 242.1 16 244.4 16 246.55 15.4 248.7 14.85 250.2 13.6 251.7 12.35 252.55 10.6 253.35 8.8 253.35 6.7 253.35 4.5 252 2.7 250.65 0.95 248 -0.2 249.1 -0.7 250.05 -1.45 251 -2.2 251.7 -3.2 252.4 -4.15 252.8 -5.2 253.15 -6.3 253.15 -7.4 253.15 -9.4 252.3 -10.9 251.45 -12.4 250.1 -13.3 248.8 -14.2 247.05 -14.65 245.3 -15.1 243.5 -15.1 241.8 -15.1 240.15 -14.75
M 218.65 -8.35
Q 219.65 -9.6 221.1 -10.3 222.6 -10.95 224.65 -10.95 226.05 -10.95 227.25 -10.85 228.4 -10.75 229.45 -10.35 230 -10.1 230.1 -10.65
L 230.2 -13.85
Q 230.25 -14.25 229.9 -14.35 229 -14.7 227.55 -14.9 226.15 -15.1 225 -15.1 221.25 -15.1 218.7 -13.8 216.15 -12.45 214.55 -10.2 213 -8 212.3 -4.95 211.6 -1.95 211.6 1.45 211.6 8.9 214.15 12.45 216.7 16 221.4 16 223.7 16 225.55 15.2 227.4 14.4 228.7 12.95 230 11.6 230.65 9.65 231.35 7.8 231.35 5.6 231.35 3.3 230.65 1.5 229.95 -0.35 228.65 -1.65 227.4 -2.95 225.6 -3.65 223.85 -4.35 221.65 -4.35 220.9 -4.35 220.1 -4.1 219.3 -3.9 218.55 -3.55 217.8 -3.2 217.2 -2.75 216.6 -2.3 216.25 -1.8 216.5 -3.75 217.1 -5.45 217.65 -7.1 218.65 -8.35
M 226.95 5.8
Q 226.95 8.65 225.45 10.35 223.9 12 221.5 12 220.4 12 219.4 11.5 218.45 11 217.75 10.1 217.05 9.2 216.65 7.95 216.25 6.8 216.25 5.4 216.25 2.95 217.75 1.4 219.2 -0.15 221.8 -0.15 224.25 -0.15 225.6 1.45 226.95 3 226.95 5.8
M 197.6 -14.65
Q 197.4 -14.6 197.35 -14.5
L 191.2 -8.85
Q 191 -8.65 191 -8.45 190.95 -8.2 191.1 -8.05
L 192.9 -5.9
Q 193.05 -5.75 193.3 -5.8 193.55 -5.8 193.8 -5.95
L 196.75 -8.55 196.75 15.15
Q 196.75 15.65 197.3 15.65
L 200.5 15.65
Q 201 15.65 201 15.15
L 201 -13.65
Q 201 -14.45 200.85 -14.6 200.75 -14.75 200.05 -14.75
L 197.95 -14.75
Q 197.8 -14.75 197.6 -14.65
M 229.4 -101.25
Q 229.4 -101.45 229.3 -101.6 229.15 -101.8 228.9 -101.8
L 214.25 -101.8
Q 213.65 -101.8 213.55 -101.65 213.4 -101.55 213.4 -101.1
L 213.2 -86.35
Q 213.2 -85 214.75 -85.65 216 -86.1 217.4 -86.35 218.8 -86.65 220.1 -86.65 223.4 -86.65 224.8 -85.1 226.25 -83.6 226.25 -81 226.25 -78.3 224.45 -76.8 222.75 -75.25 220.05 -75.25 219.35 -75.25 218.5 -75.35 217.7 -75.4 216.85 -75.55 216 -75.75 215.2 -75.95 214.4 -76.2 213.85 -76.5 213 -76.9 213 -76.2
L 213 -72.95
Q 213 -72.65 213 -72.5 213.05 -72.4 213.3 -72.2 213.95 -71.9 214.9 -71.7 215.8 -71.45 216.75 -71.3 217.7 -71.2 218.5 -71.1 219.35 -71.05 219.75 -71.05 222.05 -71.05 224.1 -71.7 226.2 -72.35 227.6 -73.65 230.75 -76.45 230.75 -81.5 230.75 -83.6 230 -85.25 229.25 -86.95 227.95 -88.15 226.65 -89.3 224.9 -89.95 223.15 -90.55 221.15 -90.55 219.2 -90.55 217.6 -90.2
L 217.75 -97.6 228.9 -97.6
Q 229.15 -97.6 229.3 -97.8 229.4 -97.95 229.4 -98.2
L 229.4 -101.25
M 197.6 -101.65
Q 197.4 -101.6 197.35 -101.5
L 191.2 -95.85
Q 191 -95.65 191 -95.45 190.95 -95.2 191.1 -95.05
L 192.9 -92.9
Q 193.05 -92.75 193.3 -92.8 193.55 -92.8 193.8 -92.95
L 196.75 -95.55 196.75 -71.85
Q 196.75 -71.35 197.3 -71.35
L 200.5 -71.35
Q 201 -71.35 201 -71.85
L 201 -100.65
Q 201 -101.45 200.85 -101.6 200.75 -101.75 200.05 -101.75
L 197.95 -101.75
Q 197.8 -101.75 197.6 -101.65
M 197.95 -187.75
Q 197.8 -187.75 197.6 -187.65 197.4 -187.6 197.35 -187.5
L 191.2 -181.85
Q 191 -181.65 191 -181.45 190.95 -181.2 191.1 -181.05
L 192.9 -178.9
Q 193.05 -178.75 193.3 -178.8 193.55 -178.8 193.8 -178.95
L 196.75 -181.55 196.75 -157.85
Q 196.75 -157.35 197.3 -157.35
L 200.5 -157.35
Q 201 -157.35 201 -157.85
L 201 -186.65
Q 201 -187.45 200.85 -187.6 200.75 -187.75 200.05 -187.75
L 197.95 -187.75
M 226.85 -186.3
Q 225.55 -187.2 223.8 -187.65 222.05 -188.1 220.25 -188.1 218.55 -188.1 216.9 -187.75 215.2 -187.35 213.45 -186.75 213.05 -186.55 212.9 -186.35 212.75 -186.2 212.85 -185.95
L 213.2 -183
Q 213.3 -182.65 213.5 -182.55 213.7 -182.45 214.2 -182.65 214.8 -182.9 215.6 -183.15 216.4 -183.4 217.2 -183.55 218 -183.75 218.75 -183.85 219.45 -183.95 220 -183.95 220.85 -183.95 221.8 -183.75 222.75 -183.55 223.6 -183.05 224.4 -182.6 224.95 -181.8 225.45 -181.05 225.45 -180.05 225.45 -178.7 224.65 -177.8 223.85 -176.85 222.65 -176.25 221.5 -175.65 220.25 -175.4 219 -175.15 218.15 -175.15
L 216.25 -175.15
Q 215.9 -175.15 215.8 -175.05 215.7 -175 215.7 -174.6
L 215.7 -171.65
Q 215.7 -171.35 215.8 -171.25 215.9 -171.15 216.25 -171.15
L 218.2 -171.15
Q 220.15 -171.15 221.5 -170.75 222.9 -170.4 223.8 -169.7 224.65 -169.05 225.1 -168.2 225.5 -167.35 225.5 -166.4 225.5 -163.75 223.55 -162.4 222.9 -161.95 222.15 -161.7 221.35 -161.4 220.5 -161.3 219.65 -161.2 218.75 -161.25 217.85 -161.3 217.05 -161.35 215.95 -161.45 214.9 -161.75 213.85 -162.05 212.8 -162.35 212.25 -162.6 212.05 -162.45 211.85 -162.35 211.8 -162
L 211.45 -158.95
Q 211.4 -158.6 211.6 -158.45 211.75 -158.25 212.15 -158.15 213.6 -157.6 215.35 -157.3 217.1 -157 218.85 -157 221.15 -157 223.3 -157.6 225.45 -158.15 226.95 -159.4 228.45 -160.65 229.3 -162.4 230.1 -164.2 230.1 -166.3 230.1 -168.5 228.75 -170.3 227.4 -172.05 224.75 -173.2 225.85 -173.7 226.8 -174.45 227.75 -175.2 228.45 -176.2 229.15 -177.15 229.55 -178.2 229.9 -179.3 229.9 -180.4 229.9 -182.4 229.05 -183.9 228.2 -185.4 226.85 -186.3
M 244.1 -101.65
Q 243.9 -101.6 243.85 -101.5
L 237.7 -95.85
Q 237.5 -95.65 237.5 -95.45 237.45 -95.2 237.6 -95.05
L 239.4 -92.9
Q 239.55 -92.75 239.8 -92.8 240.05 -92.8 240.3 -92.95
L 243.25 -95.55 243.25 -71.85
Q 243.25 -71.35 243.8 -71.35
L 247 -71.35
Q 247.5 -71.35 247.5 -71.85
L 247.5 -100.65
Q 247.5 -101.45 247.35 -101.6 247.25 -101.75 246.55 -101.75
L 244.45 -101.75
Q 244.3 -101.75 244.1 -101.65
M 251.8 -184.55
Q 249.25 -188.1 244.55 -188.1 242.25 -188.1 240.45 -187.3 238.6 -186.5 237.3 -185.1 236 -183.7 235.3 -181.8 234.65 -179.9 234.65 -177.7 234.65 -175.4 235.35 -173.6 236 -171.8 237.3 -170.5 238.6 -169.2 240.4 -168.5 242.15 -167.8 244.3 -167.8 245.05 -167.8 245.85 -168 246.65 -168.2 247.4 -168.55 248.15 -168.9 248.8 -169.35 249.4 -169.8 249.75 -170.3 249.5 -168.4 248.9 -166.7 248.3 -165.05 247.3 -163.8 246.3 -162.55 244.85 -161.85 243.4 -161.15 241.3 -161.15 239.9 -161.15 238.75 -161.25 237.55 -161.35 236.5 -161.8 235.95 -162 235.85 -161.45
L 235.75 -158.25
Q 235.7 -157.85 236.05 -157.75 237 -157.4 238.4 -157.2 239.85 -157 241 -157 244.7 -157 247.25 -158.35 249.85 -159.65 251.4 -161.9 253 -164.15 253.7 -167.15 254.35 -170.2 254.35 -173.55 254.35 -181 251.8 -184.55
M 244.5 -184.15
Q 245.6 -184.15 246.55 -183.6 247.5 -183.1 248.2 -182.2 248.9 -181.3 249.3 -180.1 249.7 -178.9 249.7 -177.55 249.7 -175.1 248.25 -173.5 246.75 -171.95 244.15 -171.95 241.7 -171.95 240.4 -173.55 239.05 -175.15 239.05 -177.9 239.05 -180.8 240.55 -182.45 242.1 -184.15 244.5 -184.15
M 101.15 -14.65
Q 100.95 -14.6 100.9 -14.5
L 94.75 -8.85
Q 94.55 -8.65 94.55 -8.45 94.5 -8.2 94.65 -8.05
L 96.45 -5.9
Q 96.6 -5.75 96.85 -5.8 97.1 -5.8 97.35 -5.95
L 100.3 -8.55 100.3 15.15
Q 100.3 15.65 100.85 15.65
L 104.05 15.65
Q 104.55 15.65 104.55 15.15
L 104.55 -13.65
Q 104.55 -14.45 104.4 -14.6 104.3 -14.75 103.6 -14.75
L 101.5 -14.75
Q 101.35 -14.75 101.15 -14.65
M 75.7 -8.35
Q 76.7 -9.6 78.15 -10.3 79.65 -10.95 81.7 -10.95 83.1 -10.95 84.3 -10.85 85.45 -10.75 86.5 -10.35 87.05 -10.1 87.15 -10.65
L 87.25 -13.85
Q 87.3 -14.25 86.95 -14.35 86.05 -14.7 84.6 -14.9 83.2 -15.1 82.05 -15.1 78.3 -15.1 75.75 -13.8 73.2 -12.45 71.6 -10.2 70.05 -8 69.35 -4.95 68.65 -1.95 68.65 1.45 68.65 8.9 71.2 12.45 73.75 16 78.45 16 80.75 16 82.6 15.2 84.45 14.4 85.75 12.95 87.05 11.6 87.7 9.65 88.4 7.8 88.4 5.6 88.4 3.3 87.7 1.5 87 -0.35 85.7 -1.65 84.45 -2.95 82.65 -3.65 80.9 -4.35 78.7 -4.35 77.95 -4.35 77.15 -4.1 76.35 -3.9 75.6 -3.55 74.85 -3.2 74.25 -2.75 73.65 -2.3 73.3 -1.8 73.55 -3.75 74.15 -5.45 74.7 -7.1 75.7 -8.35
M 84 5.8
Q 84 8.65 82.5 10.35 80.95 12 78.55 12 77.45 12 76.45 11.5 75.5 11 74.8 10.1 74.1 9.2 73.7 7.95 73.3 6.8 73.3 5.4 73.3 2.95 74.8 1.4 76.25 -0.15 78.85 -0.15 81.3 -0.15 82.65 1.45 84 3 84 5.8
M 54.65 -14.65
Q 54.45 -14.6 54.4 -14.5
L 48.25 -8.85
Q 48.05 -8.65 48.05 -8.45 48 -8.2 48.15 -8.05
L 49.95 -5.9
Q 50.1 -5.75 50.35 -5.8 50.6 -5.8 50.85 -5.95
L 53.8 -8.55 53.8 15.15
Q 53.8 15.65 54.35 15.65
L 57.55 15.65
Q 58.05 15.65 58.05 15.15
L 58.05 -13.65
Q 58.05 -14.45 57.9 -14.6 57.8 -14.75 57.1 -14.75
L 55 -14.75
Q 54.85 -14.75 54.65 -14.65
M 54.65 -101.65
Q 54.45 -101.6 54.4 -101.5
L 48.25 -95.85
Q 48.05 -95.65 48.05 -95.45 48 -95.2 48.15 -95.05
L 49.95 -92.9
Q 50.1 -92.75 50.35 -92.8 50.6 -92.8 50.85 -92.95
L 53.8 -95.55 53.8 -71.85
Q 53.8 -71.35 54.35 -71.35
L 57.55 -71.35
Q 58.05 -71.35 58.05 -71.85
L 58.05 -100.65
Q 58.05 -101.45 57.9 -101.6 57.8 -101.75 57.1 -101.75
L 55 -101.75
Q 54.85 -101.75 54.65 -101.65
M 55 -187.75
Q 54.85 -187.75 54.65 -187.65 54.45 -187.6 54.4 -187.5
L 48.25 -181.85
Q 48.05 -181.65 48.05 -181.45 48 -181.2 48.15 -181.05
L 49.95 -178.9
Q 50.1 -178.75 50.35 -178.8 50.6 -178.8 50.85 -178.95
L 53.8 -181.55 53.8 -157.85
Q 53.8 -157.35 54.35 -157.35
L 57.55 -157.35
Q 58.05 -157.35 58.05 -157.85
L 58.05 -186.65
Q 58.05 -187.45 57.9 -187.6 57.8 -187.75 57.1 -187.75
L 55 -187.75
M 84.9 -101.6
Q 84.85 -101.75 84.55 -101.75
L 80.9 -101.75
Q 80.5 -101.75 80.4 -101.65 80.3 -101.55 80.1 -101.2
L 67.7 -82.6
Q 67.55 -82.45 67.4 -82.15 67.2 -81.85 67.2 -81.6
L 67.2 -78.6
Q 67.2 -78.3 67.35 -78.25 67.5 -78.15 67.85 -78.15
L 80.65 -78.15 80.65 -72.05
Q 80.65 -71.65 80.8 -71.5 80.95 -71.35 81.4 -71.35
L 84.3 -71.35
Q 84.7 -71.35 84.8 -71.5 84.95 -71.6 84.95 -72.05
L 84.95 -78.15 88.65 -78.15
Q 89 -78.15 89.15 -78.25 89.3 -78.35 89.3 -78.75
L 89.3 -81.65
Q 89.3 -82.05 89.15 -82.15 89 -82.25 88.65 -82.25
L 84.95 -82.25 84.95 -101.15
Q 84.95 -101.5 84.9 -101.6
M 80.65 -82.25
L 72.05 -82.25 80.65 -95.3 80.65 -82.25
M 101.6 -102.1
Q 99.3 -102.1 97.5 -101.3 95.65 -100.5 94.35 -99.1 93.05 -97.7 92.35 -95.8 91.7 -93.9 91.7 -91.7 91.7 -89.4 92.4 -87.6 93.05 -85.8 94.35 -84.5 95.65 -83.2 97.45 -82.5 99.2 -81.8 101.35 -81.8 102.1 -81.8 102.9 -82 103.7 -82.2 104.45 -82.55 105.2 -82.9 105.85 -83.35 106.45 -83.8 106.8 -84.3 106.55 -82.4 105.95 -80.7 105.35 -79.05 104.35 -77.8 103.35 -76.55 101.9 -75.85 100.45 -75.15 98.35 -75.15 96.95 -75.15 95.8 -75.25 94.6 -75.35 93.55 -75.8 93 -76 92.9 -75.45
L 92.8 -72.25
Q 92.75 -71.85 93.1 -71.75 94.05 -71.4 95.45 -71.2 96.9 -71 98.05 -71 101.75 -71 104.3 -72.35 106.9 -73.65 108.45 -75.9 110.05 -78.15 110.75 -81.15 111.4 -84.2 111.4 -87.55 111.4 -95 108.85 -98.55 106.3 -102.1 101.6 -102.1
M 106.75 -91.55
Q 106.75 -89.1 105.3 -87.5 103.8 -85.95 101.2 -85.95 98.75 -85.95 97.45 -87.55 96.1 -89.15 96.1 -91.9 96.1 -94.8 97.6 -96.45 99.15 -98.15 101.55 -98.15 102.65 -98.15 103.6 -97.6 104.55 -97.1 105.25 -96.2 105.95 -95.3 106.35 -94.1 106.75 -92.9 106.75 -91.55
M 83.85 -174.45
Q 84.8 -175.2 85.5 -176.2 86.2 -177.15 86.6 -178.2 86.95 -179.3 86.95 -180.4 86.95 -182.4 86.1 -183.9 85.25 -185.4 83.9 -186.3 82.6 -187.2 80.85 -187.65 79.1 -188.1 77.3 -188.1 75.6 -188.1 73.95 -187.75 72.25 -187.35 70.5 -186.75 70.1 -186.55 69.95 -186.35 69.8 -186.2 69.9 -185.95
L 70.25 -183
Q 70.35 -182.65 70.55 -182.55 70.75 -182.45 71.25 -182.65 71.85 -182.9 72.65 -183.15 73.45 -183.4 74.25 -183.55 75.05 -183.75 75.8 -183.85 76.5 -183.95 77.05 -183.95 77.9 -183.95 78.85 -183.75 79.8 -183.55 80.65 -183.05 81.45 -182.6 82 -181.8 82.5 -181.05 82.5 -180.05 82.5 -178.7 81.7 -177.8 80.9 -176.85 79.7 -176.25 78.55 -175.65 77.3 -175.4 76.05 -175.15 75.2 -175.15
L 73.3 -175.15
Q 72.95 -175.15 72.85 -175.05 72.75 -175 72.75 -174.6
L 72.75 -171.65
Q 72.75 -171.35 72.85 -171.25 72.95 -171.15 73.3 -171.15
L 75.25 -171.15
Q 77.2 -171.15 78.55 -170.75 79.95 -170.4 80.85 -169.7 81.7 -169.05 82.15 -168.2 82.55 -167.35 82.55 -166.4 82.55 -163.75 80.6 -162.4 79.95 -161.95 79.2 -161.7 78.4 -161.4 77.55 -161.3 76.7 -161.2 75.8 -161.25 74.9 -161.3 74.1 -161.35 73 -161.45 71.95 -161.75 70.9 -162.05 69.85 -162.35 69.3 -162.6 69.1 -162.45 68.9 -162.35 68.85 -162
L 68.5 -158.95
Q 68.45 -158.6 68.65 -158.45 68.8 -158.25 69.2 -158.15 70.65 -157.6 72.4 -157.3 74.15 -157 75.9 -157 78.2 -157 80.35 -157.6 82.5 -158.15 84 -159.4 85.5 -160.65 86.35 -162.4 87.15 -164.2 87.15 -166.3 87.15 -168.5 85.8 -170.3 84.45 -172.05 81.8 -173.2 82.9 -173.7 83.85 -174.45
M 110.55 -187.6
Q 110.4 -187.75 109.7 -187.75
L 92.7 -187.75
Q 92 -187.75 92 -187.1
L 92 -184.3
Q 92 -183.95 92.2 -183.8 92.4 -183.6 92.7 -183.6
L 105.45 -183.6 95 -158.05
Q 94.85 -157.6 95 -157.5 95.15 -157.35 95.75 -157.35
L 99 -157.35
Q 99.4 -157.35 99.55 -157.45 99.7 -157.6 99.9 -157.9
L 110.45 -183.95
Q 110.7 -184.25 110.7 -184.6
L 110.7 -187
Q 110.7 -187.45 110.55 -187.6 Z"/>

<path fill="#17BBFD" stroke="none" d="
M 344.1 154.75
L 344.1 188.75 378.1 188.75 378.1 154.75 344.1 154.75 Z"/>
</g>

<path id="Symbol_3_0_Layer2_0_1_STROKES" stroke="#86BA9E" stroke-width="3" stroke-linejoin="round" stroke-linecap="round" fill="none" d="
M 7 -215.95
L 148.65 -215.95 290.3 -215.95 432 -215.95 432 -129.8 432 -43.65 432 42.5 432 128.65 432 215 290.3 215 148.65 215 7 215 -134.65 215 -276.3 215 -417.95 215 -417.95 128.65 -417.95 42.5 -417.95 -43.65 -417.95 -129.8 -417.95 -215.95 -276.3 -215.95 -134.65 -215.95 7 -215.95 Z"/>

<path id="Symbol_3_0_Layer2_0_2_STROKES" stroke="#86BA9E" stroke-width="2" stroke-linejoin="round" stroke-linecap="round" fill="none" d="
M 7 -215.95
L 7 -129.8 148.65 -129.8 148.65 -215.95
M 148.65 -129.8
L 148.65 -43.65 290.3 -43.65 290.3 -129.8 148.65 -129.8 Z
M 7 -43.65
L 148.65 -43.65 148.65 42.5 290.3 42.5 290.3 -43.65 432 -43.65
M 7 -129.8
L 7 -43.65 7 42.5 148.65 42.5 148.65 128.65 290.3 128.65 290.3 42.5 432 42.5
M 290.3 -215.95
L 290.3 -129.8 432 -129.8
M -276.3 -129.8
L -276.3 -43.65 -134.65 -43.65 -134.65 -129.8 -276.3 -129.8 -276.3 -215.95
M -134.65 -215.95
L -134.65 -129.8 7 -129.8
M -417.95 -43.65
L -276.3 -43.65 -276.3 42.5 -134.65 42.5 -134.65 -43.65 7 -43.65
M -417.95 -129.8
L -276.3 -129.8
M 7 42.5
L -134.65 42.5 -134.65 128.65 7 128.65 7 42.5 Z
M -276.3 42.5
L -276.3 128.65 -134.65 128.65 -134.65 215
M -276.3 215
L -276.3 128.65 -417.95 128.65
M -417.95 42.5
L -276.3 42.5
M 7 128.65
L 148.65 128.65 148.65 215
M 290.3 128.65
L 290.3 215
M 7 128.65
L 7 215
M 290.3 128.65
L 432 128.65"/>
</defs>

<g transform="matrix( 1, 0, 0, 1, 633,220.5) ">
<g transform="matrix( 1, 0, 0, 1, 0,0) ">
<use xlink:href="#Symbol_3_0_Layer2_0_FILL"/>

<use xlink:href="#Symbol_3_0_Layer2_0_1_STROKES"/>

<use xlink:href="#Symbol_3_0_Layer2_0_2_STROKES"/>
</g>

<g transform="matrix( 1, 0, 0, 1, 0,0) ">
<use xlink:href="#Symbol_3_0_Layer0_0_FILL"/>
</g>
</g>
</svg>
