<?xml version="1.0" encoding="utf-8"?>
<!-- Generator: Adobe Illustrator 23.0.0, SVG Export Plug-In . SVG Version: 6.00 Build 0)  -->
<svg version="1.1" id="레이어_1" xmlns="http://www.w3.org/2000/svg" xmlns:xlink="http://www.w3.org/1999/xlink" x="0px"
	 y="0px" width="112px" height="112px" viewBox="0 0 112 112" enable-background="new 0 0 112 112" xml:space="preserve">
<g>
	<path fill="#7DBA96" d="M23.8,100.4C33.2,107.3,44.4,111,56,111s23-3.7,32.3-10.6L56,56L23.8,100.4z"/>
	<path display="none" fill="none" stroke="#007E35" stroke-width="2.1756" stroke-linejoin="bevel" d="M111,56
		C111,86.4,86.4,111,56,111S1.1,86.4,1.1,56S25.7,1.1,56,1.1S111,25.7,111,56L111,56z"/>
	<path display="none" fill="none" stroke="#007E35" stroke-width="2.1756" stroke-dasharray="5.4391,5.4391" d="M88.3,100.4L56,56
		 M56,56l-32.2,44.4 M108.2,38.9L56,55.9 M3.8,38.9l52.2,17 M56,55.9V1.1"/>
</g>
<g>
</g>
<g>
</g>
<g>
</g>
<g>
</g>
<g>
</g>
</svg>
