
<svg xmlns="http://www.w3.org/2000/svg" version="1.1" xmlns:xlink="http://www.w3.org/1999/xlink" preserveAspectRatio="none" x="0px" y="0px" width="1280px" height="720px" viewBox="0 0 1280 720">
<defs>
<g id="Layer0_0_FILL">
<path fill="#1E1E1E" stroke="none" d="
M 754 565.7
Q 752.2 566.65 751.3 568.55 750.55 566.7 748.8 565.7 747.1 564.75 745 564.75 743.45 564.75 742.05 565.4 740.65 566.05 739.85 566.95
L 739.9 565.55
Q 739.9 565.25 739.55 565.25
L 736.15 565.25
Q 735.5 565.25 735.55 565.75 735.65 566.55 735.7 567.95 735.75 569.35 735.75 570.9
L 735.75 586.8
Q 735.75 587 735.85 587.2 736 587.35 736.2 587.35
L 739.55 587.35
Q 740 587.35 740 586.85
L 740 573.85
Q 740 571.45 741.25 570.1 742.5 568.7 744.75 568.7 748.3 568.7 748.3 572.95
L 748.3 586.8
Q 748.3 587 748.45 587.2 748.6 587.35 748.8 587.35
L 752.15 587.35
Q 752.6 587.35 752.6 586.85
L 752.6 575.25
Q 752.6 573.85 752.95 572.65 753.3 571.45 753.95 570.6 754.55 569.7 755.5 569.25 756.45 568.7 757.65 568.7 759.35 568.7 760.2 569.9 761.1 571.1 761.1 572.95
L 761.1 586.8
Q 761.1 587 761.25 587.2 761.4 587.35 761.6 587.35
L 764.95 587.35
Q 765.1 587.35 765.3 587.2 765.4 587.05 765.4 586.85
L 765.4 572.45
Q 765.4 568.8 763.3 566.8 761.25 564.75 757.85 564.75 755.8 564.75 754 565.7
M 726.7 568.7
Q 727.75 568.7 728.9 568.85 730.1 568.95 731 569.3 731.35 569.35 731.45 569.25 731.65 569.1 731.65 568.85
L 732 566.1
Q 732.05 565.7 732 565.6 731.9 565.5 731.75 565.45 730.55 565.05 729.3 564.9 728 564.75 726.8 564.75 724.25 564.75 722.2 565.6 720.2 566.45 718.7 568 717.25 569.5 716.45 571.65 715.65 573.75 715.65 576.3 715.65 578.7 716.3 580.75 717 582.8 718.3 584.35 719.6 585.85 721.55 586.8 723.5 587.7 726 587.9 726.8 587.9 727.6 587.9 728.45 587.9 729.15 587.8 729.9 587.7 730.55 587.6 731.2 587.5 731.65 587.3 731.95 587.25 732 587.1 732.05 586.95 732 586.65
L 731.85 583.9
Q 731.8 583.65 731.7 583.55 731.55 583.4 731.2 583.55 729 584.25 726.25 583.9 723.25 583.55 721.7 581.55 720.1 579.55 720.1 576.3 720.1 572.9 721.8 570.8 723.45 568.7 726.7 568.7
M 539.25 578.45
Q 539.4 578.6 539.6 578.6
L 560.7 578.6
Q 560.9 578.6 561.05 578.45 561.2 578.35 561.2 578.1
L 561.2 574.95
Q 561.2 574.75 561.05 574.6 560.9 574.5 560.7 574.5
L 539.6 574.5
Q 539.4 574.5 539.25 574.6 539.1 574.75 539.1 574.95
L 539.1 578.1
Q 539.1 578.35 539.25 578.45
M 561.05 566.3
Q 560.9 566.15 560.7 566.15
L 539.6 566.15
Q 539.4 566.15 539.25 566.3 539.1 566.45 539.1 566.65
L 539.1 569.8
Q 539.1 570 539.25 570.15 539.4 570.3 539.6 570.3
L 560.7 570.3
Q 560.9 570.3 561.05 570.15 561.2 570 561.2 569.8
L 561.2 566.65
Q 561.2 566.45 561.05 566.3
M 522.1 566.8
Q 520.05 564.75 516.65 564.75 514.6 564.75 512.8 565.7 511 566.65 510.1 568.55 509.35 566.7 507.6 565.7 505.9 564.75 503.8 564.75 502.25 564.75 500.85 565.4 499.45 566.05 498.65 566.95
L 498.7 565.55
Q 498.7 565.25 498.35 565.25
L 494.95 565.25
Q 494.3 565.25 494.35 565.75 494.45 566.55 494.5 567.95 494.55 569.35 494.55 570.9
L 494.55 586.8
Q 494.55 587 494.65 587.2 494.8 587.35 495 587.35
L 498.35 587.35
Q 498.8 587.35 498.8 586.85
L 498.8 573.85
Q 498.8 571.45 500.05 570.1 501.3 568.7 503.55 568.7 507.1 568.7 507.1 572.95
L 507.1 586.8
Q 507.1 587 507.25 587.2 507.4 587.35 507.6 587.35
L 510.95 587.35
Q 511.4 587.35 511.4 586.85
L 511.4 575.25
Q 511.4 573.85 511.75 572.65 512.1 571.45 512.75 570.6 513.35 569.7 514.3 569.25 515.25 568.7 516.45 568.7 518.15 568.7 519 569.9 519.9 571.1 519.9 572.95
L 519.9 586.8
Q 519.9 587 520.05 587.2 520.2 587.35 520.4 587.35
L 523.75 587.35
Q 523.9 587.35 524.1 587.2 524.2 587.05 524.2 586.85
L 524.2 572.45
Q 524.2 568.8 522.1 566.8
M 488.25 587.35
Q 488.4 587.35 488.6 587.2 488.7 587.05 488.7 586.85
L 488.7 572.45
Q 488.7 568.8 486.6 566.8 484.55 564.75 481.15 564.75 479.1 564.75 477.3 565.7 475.5 566.65 474.6 568.55 473.85 566.7 472.1 565.7 470.4 564.75 468.3 564.75 466.75 564.75 465.35 565.4 463.95 566.05 463.15 566.95
L 463.2 565.55
Q 463.2 565.25 462.85 565.25
L 459.45 565.25
Q 458.8 565.25 458.85 565.75 458.95 566.55 459 567.95 459.05 569.35 459.05 570.9
L 459.05 586.8
Q 459.05 587 459.15 587.2 459.3 587.35 459.5 587.35
L 462.85 587.35
Q 463.3 587.35 463.3 586.85
L 463.3 573.85
Q 463.3 571.45 464.55 570.1 465.8 568.7 468.05 568.7 471.6 568.7 471.6 572.95
L 471.6 586.8
Q 471.6 587 471.75 587.2 471.9 587.35 472.1 587.35
L 475.45 587.35
Q 475.9 587.35 475.9 586.85
L 475.9 575.25
Q 475.9 573.85 476.25 572.65 476.6 571.45 477.25 570.6 477.85 569.7 478.8 569.25 479.75 568.7 480.95 568.7 482.65 568.7 483.5 569.9 484.4 571.1 484.4 572.95
L 484.4 586.8
Q 484.4 587 484.55 587.2 484.7 587.35 484.9 587.35
L 488.25 587.35
M 428.85 558.35
Q 426.9 559.85 425.8 562.1 424.7 564.4 424.3 567.1 423.95 569.85 423.95 572.3 423.95 579.65 426.4 583.7 428.85 587.75 434 587.75 436.55 587.75 438.4 586.75 440.25 585.65 441.5 583.7 442.75 581.75 443.35 578.85 443.95 575.95 443.95 572.3 443.95 570.65 443.75 568.9 443.6 567.1 443.2 565.4 442.8 563.7 442.1 562.15 441.4 560.6 440.25 559.4 439.2 558.25 437.6 557.55 436.05 556.9 434 556.9 430.8 556.9 428.85 558.35
M 430 563.7
Q 430.7 562.4 431.7 561.85 432.7 561.25 434 561.25 435.2 561.25 436.25 561.85 437.25 562.4 438 563.7 438.7 565.05 439.1 567.15 439.45 569.3 439.45 572.3 439.45 575.4 439.1 577.55 438.7 579.65 438 580.95 437.25 582.3 436.25 582.85 435.2 583.45 434 583.45 432.7 583.45 431.7 582.85 430.7 582.3 430 580.95 429.25 579.65 428.9 577.55 428.5 575.4 428.5 572.3 428.5 569.3 428.9 567.15 429.25 565.05 430 563.7
M 403.95 558.9
Q 402.7 559.9 401.95 561.3 401.2 562.7 401.2 564.4 401.2 566.7 402.6 568.5 404 570.3 406.4 571.7 405.2 572.3 404.1 573 403 573.7 402.2 574.6 401.4 575.5 400.85 576.65 400.4 577.8 400.4 579.3 400.4 581.45 401.3 583.05 402.2 584.7 403.65 585.75 405.1 586.8 406.9 587.35 408.75 587.9 410.55 587.9 412.5 587.9 414.3 587.35 416.2 586.8 417.6 585.75 419 584.7 419.85 583.05 420.75 581.45 420.75 579.3 420.75 577.9 420.3 576.9 419.9 575.85 419.1 574.95 418.3 574.05 417.2 573.25 416.05 572.5 414.65 571.65 417.25 569.85 418.5 568.1 419.75 566.3 419.75 564.3 419.75 562.55 419.05 561.15 418.35 559.75 417.15 558.8 415.95 557.85 414.25 557.3 412.55 556.8 410.55 556.8 408.6 556.8 406.9 557.35 405.2 557.9 403.95 558.9
M 410.55 560.7
Q 411.5 560.7 412.35 561.05 413.2 561.3 413.85 561.85 414.5 562.4 414.85 563.1 415.25 563.8 415.25 564.6 415.25 565.3 414.75 566.1 414.25 566.9 413.5 567.65 412.75 568.35 411.95 568.9 411.2 569.45 410.55 569.7 410.05 569.5 409.25 569 408.45 568.55 407.65 567.85 406.9 567.15 406.35 566.35 405.75 565.55 405.75 564.7 405.75 563.75 406.2 563 406.65 562.3 407.35 561.8 408 561.3 408.85 561 409.7 560.7 410.55 560.7
M 415.7 577.7
Q 416.2 578.55 416.2 579.3 416.2 580.35 415.7 581.2 415.2 582.05 414.4 582.65 413.6 583.25 412.6 583.55 411.55 583.85 410.55 583.85 409.6 583.85 408.55 583.55 407.55 583.2 406.7 582.6 405.9 582 405.4 581.15 404.85 580.3 404.85 579.3 404.85 578.05 405.45 577.15 406.05 576.25 406.9 575.6 407.75 574.95 408.8 574.55 409.75 574.1 410.55 573.9 411.55 574.25 412.55 574.85 413.55 575.45 414.4 576.15 415.2 576.9 415.7 577.7
M 394.05 568.95
Q 394.85 567.1 394.85 565.3 394.85 563.2 394.15 561.6 393.45 560 392.3 558.95 391.15 557.9 389.5 557.35 387.9 556.8 385.95 556.8 384.1 556.8 382.1 557.45 380.15 558.1 378.65 558.9 378.25 559.1 378.1 559.35 378 559.5 378.1 559.7
L 378.65 562.75
Q 378.75 563.1 379.05 563.15 379.35 563.15 379.7 562.95 381.5 561.9 383 561.45 384.55 561 386.2 561 387.95 561 389.1 562.25 390.3 563.5 390.3 565.4 390.3 567.1 388.7 569.7 387.1 572.35 383.75 576.3
L 377.65 583.55
Q 377.45 583.85 377.25 584.15 377.1 584.5 377.1 584.8
L 377.1 587.1
Q 377.1 587.6 377.85 587.6
L 394.9 587.6
Q 395.45 587.6 395.45 586.9
L 395.45 584.1
Q 395.45 583.5 394.9 583.5
L 383.15 583.5
Q 384.15 582.35 385.15 581.2 386.15 580 387 578.9 388.1 577.6 389.5 576 390.85 574.35 392.05 572.6 393.25 570.8 394.05 568.95
M 958.8 454.75
Q 956.75 454.75 954.95 455.7 953.15 456.65 952.25 458.55 951.5 456.7 949.75 455.7 948.05 454.75 945.95 454.75 944.4 454.75 943 455.4 941.6 456.05 940.8 456.95
L 940.85 455.55
Q 940.85 455.25 940.5 455.25
L 937.1 455.25
Q 936.45 455.25 936.5 455.75 936.6 456.55 936.65 457.95 936.7 459.35 936.7 460.9
L 936.7 476.8
Q 936.7 477 936.8 477.2 936.95 477.35 937.15 477.35
L 940.5 477.35
Q 940.95 477.35 940.95 476.85
L 940.95 463.85
Q 940.95 461.45 942.2 460.1 943.45 458.7 945.7 458.7 949.25 458.7 949.25 462.95
L 949.25 476.8
Q 949.25 477 949.4 477.2 949.55 477.35 949.75 477.35
L 953.1 477.35
Q 953.55 477.35 953.55 476.85
L 953.55 465.25
Q 953.55 463.85 953.9 462.65 954.25 461.45 954.9 460.6 955.5 459.7 956.45 459.25 957.4 458.7 958.6 458.7 960.3 458.7 961.15 459.9 962.05 461.1 962.05 462.95
L 962.05 476.8
Q 962.05 477 962.2 477.2 962.35 477.35 962.55 477.35
L 965.9 477.35
Q 966.05 477.35 966.25 477.2 966.35 477.05 966.35 476.85
L 966.35 462.45
Q 966.35 458.8 964.25 456.8 962.2 454.75 958.8 454.75
M 928.75 456.8
Q 926.7 454.75 923.3 454.75 921.25 454.75 919.45 455.7 917.65 456.65 916.75 458.55 916 456.7 914.25 455.7 912.55 454.75 910.45 454.75 908.9 454.75 907.5 455.4 906.1 456.05 905.3 456.95
L 905.35 455.55
Q 905.35 455.25 905 455.25
L 901.6 455.25
Q 900.95 455.25 901 455.75 901.1 456.55 901.15 457.95 901.2 459.35 901.2 460.9
L 901.2 476.8
Q 901.2 477 901.3 477.2 901.45 477.35 901.65 477.35
L 905 477.35
Q 905.45 477.35 905.45 476.85
L 905.45 463.85
Q 905.45 461.45 906.7 460.1 907.95 458.7 910.2 458.7 913.75 458.7 913.75 462.95
L 913.75 476.8
Q 913.75 477 913.9 477.2 914.05 477.35 914.25 477.35
L 917.6 477.35
Q 918.05 477.35 918.05 476.85
L 918.05 465.25
Q 918.05 463.85 918.4 462.65 918.75 461.45 919.4 460.6 920 459.7 920.95 459.25 921.9 458.7 923.1 458.7 924.8 458.7 925.65 459.9 926.55 461.1 926.55 462.95
L 926.55 476.8
Q 926.55 477 926.7 477.2 926.85 477.35 927.05 477.35
L 930.4 477.35
Q 930.55 477.35 930.75 477.2 930.85 477.05 930.85 476.85
L 930.85 462.45
Q 930.85 458.8 928.75 456.8
M 515.8 468.45
Q 515.95 468.6 516.15 468.6
L 537.25 468.6
Q 537.45 468.6 537.6 468.45 537.75 468.35 537.75 468.1
L 537.75 464.95
Q 537.75 464.75 537.6 464.6 537.45 464.5 537.25 464.5
L 516.15 464.5
Q 515.95 464.5 515.8 464.6 515.65 464.75 515.65 464.95
L 515.65 468.1
Q 515.65 468.35 515.8 468.45
M 515.8 456.3
Q 515.65 456.45 515.65 456.65
L 515.65 459.8
Q 515.65 460 515.8 460.15 515.95 460.3 516.15 460.3
L 537.25 460.3
Q 537.45 460.3 537.6 460.15 537.75 460 537.75 459.8
L 537.75 456.65
Q 537.75 456.45 537.6 456.3 537.45 456.15 537.25 456.15
L 516.15 456.15
Q 515.95 456.15 515.8 456.3
M 493.2 454.75
Q 491.15 454.75 489.35 455.7 487.55 456.65 486.65 458.55 485.9 456.7 484.15 455.7 482.45 454.75 480.35 454.75 478.8 454.75 477.4 455.4 476 456.05 475.2 456.95
L 475.25 455.55
Q 475.25 455.25 474.9 455.25
L 471.5 455.25
Q 470.85 455.25 470.9 455.75 471 456.55 471.05 457.95 471.1 459.35 471.1 460.9
L 471.1 476.8
Q 471.1 477 471.2 477.2 471.35 477.35 471.55 477.35
L 474.9 477.35
Q 475.35 477.35 475.35 476.85
L 475.35 463.85
Q 475.35 461.45 476.6 460.1 477.85 458.7 480.1 458.7 483.65 458.7 483.65 462.95
L 483.65 476.8
Q 483.65 477 483.8 477.2 483.95 477.35 484.15 477.35
L 487.5 477.35
Q 487.95 477.35 487.95 476.85
L 487.95 465.25
Q 487.95 463.85 488.3 462.65 488.65 461.45 489.3 460.6 489.9 459.7 490.85 459.25 491.8 458.7 493 458.7 494.7 458.7 495.55 459.9 496.45 461.1 496.45 462.95
L 496.45 476.8
Q 496.45 477 496.6 477.2 496.75 477.35 496.95 477.35
L 500.3 477.35
Q 500.45 477.35 500.65 477.2 500.75 477.05 500.75 476.85
L 500.75 462.45
Q 500.75 458.8 498.65 456.8 496.6 454.75 493.2 454.75
M 441.9 455.4
Q 440.5 456.05 439.7 456.95
L 439.75 455.55
Q 439.75 455.25 439.4 455.25
L 436 455.25
Q 435.35 455.25 435.4 455.75 435.5 456.55 435.55 457.95 435.6 459.35 435.6 460.9
L 435.6 476.8
Q 435.6 477 435.7 477.2 435.85 477.35 436.05 477.35
L 439.4 477.35
Q 439.85 477.35 439.85 476.85
L 439.85 463.85
Q 439.85 461.45 441.1 460.1 442.35 458.7 444.6 458.7 448.15 458.7 448.15 462.95
L 448.15 476.8
Q 448.15 477 448.3 477.2 448.45 477.35 448.65 477.35
L 452 477.35
Q 452.45 477.35 452.45 476.85
L 452.45 465.25
Q 452.45 463.85 452.8 462.65 453.15 461.45 453.8 460.6 454.4 459.7 455.35 459.25 456.3 458.7 457.5 458.7 459.2 458.7 460.05 459.9 460.95 461.1 460.95 462.95
L 460.95 476.8
Q 460.95 477 461.1 477.2 461.25 477.35 461.45 477.35
L 464.8 477.35
Q 464.95 477.35 465.15 477.2 465.25 477.05 465.25 476.85
L 465.25 462.45
Q 465.25 458.8 463.15 456.8 461.1 454.75 457.7 454.75 455.65 454.75 453.85 455.7 452.05 456.65 451.15 458.55 450.4 456.7 448.65 455.7 446.95 454.75 444.85 454.75 443.3 454.75 441.9 455.4
M 418.45 447.3
Q 418.3 447.1 418.05 447.1
L 403.4 447.1
Q 402.8 447.1 402.7 447.25 402.55 447.35 402.55 447.8
L 402.35 462.55
Q 402.35 463.9 403.9 463.25 405.15 462.8 406.55 462.55 407.95 462.25 409.25 462.25 412.55 462.25 413.95 463.8 415.4 465.3 415.4 467.9 415.4 470.6 413.6 472.1 411.9 473.65 409.2 473.65 408.5 473.65 407.65 473.55 406.85 473.5 406 473.35 405.15 473.15 404.35 472.95 403.55 472.7 403 472.4 402.15 472 402.15 472.7
L 402.15 475.95
Q 402.15 476.25 402.15 476.4 402.2 476.5 402.45 476.7 403.1 477 404.05 477.2 404.95 477.45 405.9 477.6 406.85 477.7 407.65 477.8 408.5 477.85 408.9 477.85 411.2 477.85 413.25 477.2 415.35 476.55 416.75 475.25 419.9 472.45 419.9 467.4 419.9 465.3 419.15 463.65 418.4 461.95 417.1 460.75 415.8 459.6 414.05 458.95 412.3 458.35 410.3 458.35 408.35 458.35 406.75 458.7
L 406.9 451.3 418.05 451.3
Q 418.3 451.3 418.45 451.1 418.55 450.95 418.55 450.7
L 418.55 447.65
Q 418.55 447.45 418.45 447.3
M 395.85 450.95
Q 396.1 450.65 396.1 450.3
L 396.1 447.9
Q 396.1 447.45 395.95 447.3 395.8 447.15 395.1 447.15
L 378.1 447.15
Q 377.4 447.15 377.4 447.8
L 377.4 450.6
Q 377.4 450.95 377.6 451.1 377.8 451.3 378.1 451.3
L 390.85 451.3 380.4 476.85
Q 380.25 477.3 380.4 477.4 380.55 477.55 381.15 477.55
L 384.4 477.55
Q 384.8 477.55 384.95 477.45 385.1 477.3 385.3 477
L 395.85 450.95
M 808.85 345.55
Q 808.85 345.25 808.5 345.25
L 805.1 345.25
Q 804.45 345.25 804.5 345.75 804.6 346.55 804.65 347.95 804.7 349.35 804.7 350.9
L 804.7 366.8
Q 804.7 367 804.8 367.2 804.95 367.35 805.15 367.35
L 808.5 367.35
Q 808.95 367.35 808.95 366.85
L 808.95 353.85
Q 808.95 351.45 810.2 350.1 811.45 348.7 813.7 348.7 817.25 348.7 817.25 352.95
L 817.25 366.8
Q 817.25 367 817.4 367.2 817.55 367.35 817.75 367.35
L 821.1 367.35
Q 821.55 367.35 821.55 366.85
L 821.55 355.25
Q 821.55 353.85 821.9 352.65 822.25 351.45 822.9 350.6 823.5 349.7 824.45 349.25 825.4 348.7 826.6 348.7 828.3 348.7 829.15 349.9 830.05 351.1 830.05 352.95
L 830.05 366.8
Q 830.05 367 830.2 367.2 830.35 367.35 830.55 367.35
L 833.9 367.35
Q 834.05 367.35 834.25 367.2 834.35 367.05 834.35 366.85
L 834.35 352.45
Q 834.35 348.8 832.25 346.8 830.2 344.75 826.8 344.75 824.75 344.75 822.95 345.7 821.15 346.65 820.25 348.55 819.5 346.7 817.75 345.7 816.05 344.75 813.95 344.75 812.4 344.75 811 345.4 809.6 346.05 808.8 346.95
L 808.85 345.55
M 791.3 344.75
Q 789.25 344.75 787.45 345.7 785.65 346.65 784.75 348.55 784 346.7 782.25 345.7 780.55 344.75 778.45 344.75 776.9 344.75 775.5 345.4 774.1 346.05 773.3 346.95
L 773.35 345.55
Q 773.35 345.25 773 345.25
L 769.6 345.25
Q 768.95 345.25 769 345.75 769.1 346.55 769.15 347.95 769.2 349.35 769.2 350.9
L 769.2 366.8
Q 769.2 367 769.3 367.2 769.45 367.35 769.65 367.35
L 773 367.35
Q 773.45 367.35 773.45 366.85
L 773.45 353.85
Q 773.45 351.45 774.7 350.1 775.95 348.7 778.2 348.7 781.75 348.7 781.75 352.95
L 781.75 366.8
Q 781.75 367 781.9 367.2 782.05 367.35 782.25 367.35
L 785.6 367.35
Q 786.05 367.35 786.05 366.85
L 786.05 355.25
Q 786.05 353.85 786.4 352.65 786.75 351.45 787.4 350.6 788 349.7 788.95 349.25 789.9 348.7 791.1 348.7 792.8 348.7 793.65 349.9 794.55 351.1 794.55 352.95
L 794.55 366.8
Q 794.55 367 794.7 367.2 794.85 367.35 795.05 367.35
L 798.4 367.35
Q 798.55 367.35 798.75 367.2 798.85 367.05 798.85 366.85
L 798.85 352.45
Q 798.85 348.8 796.75 346.8 794.7 344.75 791.3 344.75
M 734.2 459.9
Q 735.1 461.1 735.1 462.95
L 735.1 476.8
Q 735.1 477 735.25 477.2 735.4 477.35 735.6 477.35
L 738.95 477.35
Q 739.1 477.35 739.3 477.2 739.4 477.05 739.4 476.85
L 739.4 462.45
Q 739.4 458.8 737.3 456.8 735.25 454.75 731.85 454.75 729.8 454.75 728 455.7 726.2 456.65 725.3 458.55 724.55 456.7 722.8 455.7 721.1 454.75 719 454.75 717.45 454.75 716.05 455.4 714.65 456.05 713.85 456.95
L 713.9 455.55
Q 713.9 455.25 713.55 455.25
L 710.15 455.25
Q 709.5 455.25 709.55 455.75 709.65 456.55 709.7 457.95 709.75 459.35 709.75 460.9
L 709.75 476.8
Q 709.75 477 709.85 477.2 710 477.35 710.2 477.35
L 713.55 477.35
Q 714 477.35 714 476.85
L 714 463.85
Q 714 461.45 715.25 460.1 716.5 458.7 718.75 458.7 722.3 458.7 722.3 462.95
L 722.3 476.8
Q 722.3 477 722.45 477.2 722.6 477.35 722.8 477.35
L 726.15 477.35
Q 726.6 477.35 726.6 476.85
L 726.6 465.25
Q 726.6 463.85 726.95 462.65 727.3 461.45 727.95 460.6 728.55 459.7 729.5 459.25 730.45 458.7 731.65 458.7 733.35 458.7 734.2 459.9
M 703.3 454.9
Q 702 454.75 700.8 454.75 698.25 454.75 696.2 455.6 694.2 456.45 692.7 458 691.25 459.5 690.45 461.65 689.65 463.75 689.65 466.3 689.65 468.7 690.3 470.75 691 472.8 692.3 474.35 693.6 475.85 695.55 476.8 697.5 477.7 700 477.9 700.8 477.9 701.6 477.9 702.45 477.9 703.15 477.8 703.9 477.7 704.55 477.6 705.2 477.5 705.65 477.3 705.95 477.25 706 477.1 706.05 476.95 706 476.65
L 705.85 473.9
Q 705.8 473.65 705.7 473.55 705.55 473.4 705.2 473.55 703 474.25 700.25 473.9 697.25 473.55 695.7 471.55 694.1 469.55 694.1 466.3 694.1 462.9 695.8 460.8 697.45 458.7 700.7 458.7 701.75 458.7 702.9 458.85 704.1 458.95 705 459.3 705.35 459.35 705.45 459.25 705.65 459.1 705.65 458.85
L 706 456.1
Q 706.05 455.7 706 455.6 705.9 455.5 705.75 455.45 704.55 455.05 703.3 454.9
M 591 354.5
Q 590.8 354.5 590.65 354.6 590.5 354.75 590.5 354.95
L 590.5 358.1
Q 590.5 358.35 590.65 358.45 590.8 358.6 591 358.6
L 612.1 358.6
Q 612.3 358.6 612.45 358.45 612.6 358.35 612.6 358.1
L 612.6 354.95
Q 612.6 354.75 612.45 354.6 612.3 354.5 612.1 354.5
L 591 354.5
M 612.45 346.3
Q 612.3 346.15 612.1 346.15
L 591 346.15
Q 590.8 346.15 590.65 346.3 590.5 346.45 590.5 346.65
L 590.5 349.8
Q 590.5 350 590.65 350.15 590.8 350.3 591 350.3
L 612.1 350.3
Q 612.3 350.3 612.45 350.15 612.6 350 612.6 349.8
L 612.6 346.65
Q 612.6 346.45 612.45 346.3
M 559 345.7
Q 557.3 344.75 555.2 344.75 553.65 344.75 552.25 345.4 550.85 346.05 550.05 346.95
L 550.1 345.55
Q 550.1 345.25 549.75 345.25
L 546.35 345.25
Q 545.7 345.25 545.75 345.75 545.85 346.55 545.9 347.95 545.95 349.35 545.95 350.9
L 545.95 366.8
Q 545.95 367 546.05 367.2 546.2 367.35 546.4 367.35
L 549.75 367.35
Q 550.2 367.35 550.2 366.85
L 550.2 353.85
Q 550.2 351.45 551.45 350.1 552.7 348.7 554.95 348.7 558.5 348.7 558.5 352.95
L 558.5 366.8
Q 558.5 367 558.65 367.2 558.8 367.35 559 367.35
L 562.35 367.35
Q 562.8 367.35 562.8 366.85
L 562.8 355.25
Q 562.8 353.85 563.15 352.65 563.5 351.45 564.15 350.6 564.75 349.7 565.7 349.25 566.65 348.7 567.85 348.7 569.55 348.7 570.4 349.9 571.3 351.1 571.3 352.95
L 571.3 366.8
Q 571.3 367 571.45 367.2 571.6 367.35 571.8 367.35
L 575.15 367.35
Q 575.3 367.35 575.5 367.2 575.6 367.05 575.6 366.85
L 575.6 352.45
Q 575.6 348.8 573.5 346.8 571.45 344.75 568.05 344.75 566 344.75 564.2 345.7 562.4 346.65 561.5 348.55 560.75 346.7 559 345.7
M 532.55 344.75
Q 530.5 344.75 528.7 345.7 526.9 346.65 526 348.55 525.25 346.7 523.5 345.7 521.8 344.75 519.7 344.75 518.15 344.75 516.75 345.4 515.35 346.05 514.55 346.95
L 514.6 345.55
Q 514.6 345.25 514.25 345.25
L 510.85 345.25
Q 510.2 345.25 510.25 345.75 510.35 346.55 510.4 347.95 510.45 349.35 510.45 350.9
L 510.45 366.8
Q 510.45 367 510.55 367.2 510.7 367.35 510.9 367.35
L 514.25 367.35
Q 514.7 367.35 514.7 366.85
L 514.7 353.85
Q 514.7 351.45 515.95 350.1 517.2 348.7 519.45 348.7 523 348.7 523 352.95
L 523 366.8
Q 523 367 523.15 367.2 523.3 367.35 523.5 367.35
L 526.85 367.35
Q 527.3 367.35 527.3 366.85
L 527.3 355.25
Q 527.3 353.85 527.65 352.65 528 351.45 528.65 350.6 529.25 349.7 530.2 349.25 531.15 348.7 532.35 348.7 534.05 348.7 534.9 349.9 535.8 351.1 535.8 352.95
L 535.8 366.8
Q 535.8 367 535.95 367.2 536.1 367.35 536.3 367.35
L 539.65 367.35
Q 539.8 367.35 540 367.2 540.1 367.05 540.1 366.85
L 540.1 352.45
Q 540.1 348.8 538 346.8 535.95 344.75 532.55 344.75
M 478.25 337.1
Q 477.65 337.1 477.55 337.25 477.4 337.35 477.4 337.8
L 477.2 352.55
Q 477.2 353.9 478.75 353.25 480 352.8 481.4 352.55 482.8 352.25 484.1 352.25 487.4 352.25 488.8 353.8 490.25 355.3 490.25 357.9 490.25 360.6 488.45 362.1 486.75 363.65 484.05 363.65 483.35 363.65 482.5 363.55 481.7 363.5 480.85 363.35 480 363.15 479.2 362.95 478.4 362.7 477.85 362.4 477 362 477 362.7
L 477 365.95
Q 477 366.25 477 366.4 477.05 366.5 477.3 366.7 477.95 367 478.9 367.2 479.8 367.45 480.75 367.6 481.7 367.7 482.5 367.8 483.35 367.85 483.75 367.85 486.05 367.85 488.1 367.2 490.2 366.55 491.6 365.25 494.75 362.45 494.75 357.4 494.75 355.3 494 353.65 493.25 351.95 491.95 350.75 490.65 349.6 488.9 348.95 487.15 348.35 485.15 348.35 483.2 348.35 481.6 348.7
L 481.75 341.3 492.9 341.3
Q 493.15 341.3 493.3 341.1 493.4 340.95 493.4 340.7
L 493.4 337.65
Q 493.4 337.45 493.3 337.3 493.15 337.1 492.9 337.1
L 478.25 337.1
M 452.8 344.75
Q 450.75 344.75 448.95 345.7 447.15 346.65 446.25 348.55 445.5 346.7 443.75 345.7 442.05 344.75 439.95 344.75 438.4 344.75 437 345.4 435.6 346.05 434.8 346.95
L 434.85 345.55
Q 434.85 345.25 434.5 345.25
L 431.1 345.25
Q 430.45 345.25 430.5 345.75 430.6 346.55 430.65 347.95 430.7 349.35 430.7 350.9
L 430.7 366.8
Q 430.7 367 430.8 367.2 430.95 367.35 431.15 367.35
L 434.5 367.35
Q 434.95 367.35 434.95 366.85
L 434.95 353.85
Q 434.95 351.45 436.2 350.1 437.45 348.7 439.7 348.7 443.25 348.7 443.25 352.95
L 443.25 366.8
Q 443.25 367 443.4 367.2 443.55 367.35 443.75 367.35
L 447.1 367.35
Q 447.55 367.35 447.55 366.85
L 447.55 355.25
Q 447.55 353.85 447.9 352.65 448.25 351.45 448.9 350.6 449.5 349.7 450.45 349.25 451.4 348.7 452.6 348.7 454.3 348.7 455.15 349.9 456.05 351.1 456.05 352.95
L 456.05 366.8
Q 456.05 367 456.2 367.2 456.35 367.35 456.55 367.35
L 459.9 367.35
Q 460.05 367.35 460.25 367.2 460.35 367.05 460.35 366.85
L 460.35 352.45
Q 460.35 348.8 458.25 346.8 456.2 344.75 452.8 344.75
M 426.95 346.1
Q 427 345.7 426.95 345.6 426.85 345.5 426.7 345.45 425.5 345.05 424.25 344.9 422.95 344.75 421.75 344.75 419.2 344.75 417.15 345.6 415.15 346.45 413.65 348 412.2 349.5 411.4 351.65 410.6 353.75 410.6 356.3 410.6 358.7 411.25 360.75 411.95 362.8 413.25 364.35 414.55 365.85 416.5 366.8 418.45 367.7 420.95 367.9 421.75 367.9 422.55 367.9 423.4 367.9 424.1 367.8 424.85 367.7 425.5 367.6 426.15 367.5 426.6 367.3 426.9 367.25 426.95 367.1 427 366.95 426.95 366.65
L 426.8 363.9
Q 426.75 363.65 426.65 363.55 426.5 363.4 426.15 363.55 423.95 364.25 421.2 363.9 418.2 363.55 416.65 361.55 415.05 359.55 415.05 356.3 415.05 352.9 416.75 350.8 418.4 348.7 421.65 348.7 422.7 348.7 423.85 348.85 425.05 348.95 425.95 349.3 426.3 349.35 426.4 349.25 426.6 349.1 426.6 348.85
L 426.95 346.1
M 378.5 341.3
Q 377.75 342.7 377.75 344.4 377.75 346.7 379.15 348.5 380.55 350.3 382.95 351.7 381.75 352.3 380.65 353 379.55 353.7 378.75 354.6 377.95 355.5 377.4 356.65 376.95 357.8 376.95 359.3 376.95 361.45 377.85 363.05 378.75 364.7 380.2 365.75 381.65 366.8 383.45 367.35 385.3 367.9 387.1 367.9 389.05 367.9 390.85 367.35 392.75 366.8 394.15 365.75 395.55 364.7 396.4 363.05 397.3 361.45 397.3 359.3 397.3 357.9 396.85 356.9 396.45 355.85 395.65 354.95 394.85 354.05 393.75 353.25 392.6 352.5 391.2 351.65 393.8 349.85 395.05 348.1 396.3 346.3 396.3 344.3 396.3 342.55 395.6 341.15 394.9 339.75 393.7 338.8 392.5 337.85 390.8 337.3 389.1 336.8 387.1 336.8 385.15 336.8 383.45 337.35 381.75 337.9 380.5 338.9 379.25 339.9 378.5 341.3
M 382.9 346.35
Q 382.3 345.55 382.3 344.7 382.3 343.75 382.75 343 383.2 342.3 383.9 341.8 384.55 341.3 385.4 341 386.25 340.7 387.1 340.7 388.05 340.7 388.9 341.05 389.75 341.3 390.4 341.85 391.05 342.4 391.4 343.1 391.8 343.8 391.8 344.6 391.8 345.3 391.3 346.1 390.8 346.9 390.05 347.65 389.3 348.35 388.5 348.9 387.75 349.45 387.1 349.7 386.6 349.5 385.8 349 385 348.55 384.2 347.85 383.45 347.15 382.9 346.35
M 387.1 353.9
Q 388.1 354.25 389.1 354.85 390.1 355.45 390.95 356.15 391.75 356.9 392.25 357.7 392.75 358.55 392.75 359.3 392.75 360.35 392.25 361.2 391.75 362.05 390.95 362.65 390.15 363.25 389.15 363.55 388.1 363.85 387.1 363.85 386.15 363.85 385.1 363.55 384.1 363.2 383.25 362.6 382.45 362 381.95 361.15 381.4 360.3 381.4 359.3 381.4 358.05 382 357.15 382.6 356.25 383.45 355.6 384.3 354.95 385.35 354.55 386.3 354.1 387.1 353.9
M 695 235.4
Q 693.6 236.05 692.8 236.95
L 692.85 235.55
Q 692.85 235.25 692.5 235.25
L 689.1 235.25
Q 688.45 235.25 688.5 235.75 688.6 236.55 688.65 237.95 688.7 239.35 688.7 240.9
L 688.7 256.8
Q 688.7 257 688.8 257.2 688.95 257.35 689.15 257.35
L 692.5 257.35
Q 692.95 257.35 692.95 256.85
L 692.95 243.85
Q 692.95 241.45 694.2 240.1 695.45 238.7 697.7 238.7 701.25 238.7 701.25 242.95
L 701.25 256.8
Q 701.25 257 701.4 257.2 701.55 257.35 701.75 257.35
L 705.1 257.35
Q 705.55 257.35 705.55 256.85
L 705.55 245.25
Q 705.55 243.85 705.9 242.65 706.25 241.45 706.9 240.6 707.5 239.7 708.45 239.25 709.4 238.7 710.6 238.7 712.3 238.7 713.15 239.9 714.05 241.1 714.05 242.95
L 714.05 256.8
Q 714.05 257 714.2 257.2 714.35 257.35 714.55 257.35
L 717.9 257.35
Q 718.05 257.35 718.25 257.2 718.35 257.05 718.35 256.85
L 718.35 242.45
Q 718.35 238.8 716.25 236.8 714.2 234.75 710.8 234.75 708.75 234.75 706.95 235.7 705.15 236.65 704.25 238.55 703.5 236.7 701.75 235.7 700.05 234.75 697.95 234.75 696.4 234.75 695 235.4
M 653.15 237.95
Q 653.2 239.35 653.2 240.9
L 653.2 256.8
Q 653.2 257 653.3 257.2 653.45 257.35 653.65 257.35
L 657 257.35
Q 657.45 257.35 657.45 256.85
L 657.45 243.85
Q 657.45 241.45 658.7 240.1 659.95 238.7 662.2 238.7 665.75 238.7 665.75 242.95
L 665.75 256.8
Q 665.75 257 665.9 257.2 666.05 257.35 666.25 257.35
L 669.6 257.35
Q 670.05 257.35 670.05 256.85
L 670.05 245.25
Q 670.05 243.85 670.4 242.65 670.75 241.45 671.4 240.6 672 239.7 672.95 239.25 673.9 238.7 675.1 238.7 676.8 238.7 677.65 239.9 678.55 241.1 678.55 242.95
L 678.55 256.8
Q 678.55 257 678.7 257.2 678.85 257.35 679.05 257.35
L 682.4 257.35
Q 682.55 257.35 682.75 257.2 682.85 257.05 682.85 256.85
L 682.85 242.45
Q 682.85 238.8 680.75 236.8 678.7 234.75 675.3 234.75 673.25 234.75 671.45 235.7 669.65 236.65 668.75 238.55 668 236.7 666.25 235.7 664.55 234.75 662.45 234.75 660.9 234.75 659.5 235.4 658.1 236.05 657.3 236.95
L 657.35 235.55
Q 657.35 235.25 657 235.25
L 653.6 235.25
Q 652.95 235.25 653 235.75 653.1 236.55 653.15 237.95
M 475.75 236.15
Q 475.55 236.15 475.4 236.3 475.25 236.45 475.25 236.65
L 475.25 239.8
Q 475.25 240 475.4 240.15 475.55 240.3 475.75 240.3
L 496.85 240.3
Q 497.05 240.3 497.2 240.15 497.35 240 497.35 239.8
L 497.35 236.65
Q 497.35 236.45 497.2 236.3 497.05 236.15 496.85 236.15
L 475.75 236.15
M 475.75 244.5
Q 475.55 244.5 475.4 244.6 475.25 244.75 475.25 244.95
L 475.25 248.1
Q 475.25 248.35 475.4 248.45 475.55 248.6 475.75 248.6
L 496.85 248.6
Q 497.05 248.6 497.2 248.45 497.35 248.35 497.35 248.1
L 497.35 244.95
Q 497.35 244.75 497.2 244.6 497.05 244.5 496.85 244.5
L 475.75 244.5
M 448.95 235.7
Q 447.15 236.65 446.25 238.55 445.5 236.7 443.75 235.7 442.05 234.75 439.95 234.75 438.4 234.75 437 235.4 435.6 236.05 434.8 236.95
L 434.85 235.55
Q 434.85 235.25 434.5 235.25
L 431.1 235.25
Q 430.45 235.25 430.5 235.75 430.6 236.55 430.65 237.95 430.7 239.35 430.7 240.9
L 430.7 256.8
Q 430.7 257 430.8 257.2 430.95 257.35 431.15 257.35
L 434.5 257.35
Q 434.95 257.35 434.95 256.85
L 434.95 243.85
Q 434.95 241.45 436.2 240.1 437.45 238.7 439.7 238.7 443.25 238.7 443.25 242.95
L 443.25 256.8
Q 443.25 257 443.4 257.2 443.55 257.35 443.75 257.35
L 447.1 257.35
Q 447.55 257.35 447.55 256.85
L 447.55 245.25
Q 447.55 243.85 447.9 242.65 448.25 241.45 448.9 240.6 449.5 239.7 450.45 239.25 451.4 238.7 452.6 238.7 454.3 238.7 455.15 239.9 456.05 241.1 456.05 242.95
L 456.05 256.8
Q 456.05 257 456.2 257.2 456.35 257.35 456.55 257.35
L 459.9 257.35
Q 460.05 257.35 460.25 257.2 460.35 257.05 460.35 256.85
L 460.35 242.45
Q 460.35 238.8 458.25 236.8 456.2 234.75 452.8 234.75 450.75 234.75 448.95 235.7
M 415.05 246.3
Q 415.05 242.9 416.75 240.8 418.4 238.7 421.65 238.7 422.7 238.7 423.85 238.85 425.05 238.95 425.95 239.3 426.3 239.35 426.4 239.25 426.6 239.1 426.6 238.85
L 426.95 236.1
Q 427 235.7 426.95 235.6 426.85 235.5 426.7 235.45 425.5 235.05 424.25 234.9 422.95 234.75 421.75 234.75 419.2 234.75 417.15 235.6 415.15 236.45 413.65 238 412.2 239.5 411.4 241.65 410.6 243.75 410.6 246.3 410.6 248.7 411.25 250.75 411.95 252.8 413.25 254.35 414.55 255.85 416.5 256.8 418.45 257.7 420.95 257.9 421.75 257.9 422.55 257.9 423.4 257.9 424.1 257.8 424.85 257.7 425.5 257.6 426.15 257.5 426.6 257.3 426.9 257.25 426.95 257.1 427 256.95 426.95 256.65
L 426.8 253.9
Q 426.75 253.65 426.65 253.55 426.5 253.4 426.15 253.55 423.95 254.25 421.2 253.9 418.2 253.55 416.65 251.55 415.05 249.55 415.05 246.3
M 382.25 236.1
Q 382.5 236.1 382.75 235.95
L 385.7 233.35 385.7 257.05
Q 385.7 257.55 386.25 257.55
L 389.45 257.55
Q 389.95 257.55 389.95 257.05
L 389.95 228.25
Q 389.95 227.45 389.8 227.3 389.7 227.15 389 227.15
L 386.9 227.15
Q 386.75 227.15 386.55 227.25 386.35 227.3 386.3 227.4
L 380.15 233.05
Q 379.95 233.25 379.95 233.45 379.9 233.7 380.05 233.85
L 381.85 236
Q 382 236.15 382.25 236.1 Z"/>

<path fill="#C1EBFF" stroke="none" d="
M 357.45 564.4
L 357.5 564.4
Q 354.55 561.4 350.3 561.4 346.15 561.4 343.1 564.35 343.05 564.35 343.05 564.4 340.1 567.45 340.1 571.6 340.1 575.8 343.1 578.8
L 343.1 578.85
Q 346.15 581.75 350.3 581.75 354.5 581.75 357.4 578.85 357.45 578.8 357.5 578.75 360.45 575.8 360.45 571.6 360.45 567.4 357.45 564.4
M 350.3 565.65
Q 352.75 565.65 354.45 567.35 356.2 569.15 356.2 571.6 356.2 574.05 354.45 575.75 352.75 577.5 350.3 577.5 347.85 577.5 346.05 575.75 344.35 574.05 344.35 571.6 344.35 569.15 346.05 567.35 347.85 565.65 350.3 565.65
M 357.45 454.4
L 357.5 454.4
Q 354.55 451.4 350.3 451.4 346.15 451.4 343.1 454.35 343.05 454.35 343.05 454.4 340.1 457.45 340.1 461.6 340.1 465.8 343.1 468.8
L 343.1 468.85
Q 346.15 471.75 350.3 471.75 354.5 471.75 357.4 468.85 357.45 468.8 357.5 468.75 360.45 465.8 360.45 461.6 360.45 457.4 357.45 454.4
M 346.05 457.35
Q 347.85 455.65 350.3 455.65 352.75 455.65 354.45 457.35 356.2 459.15 356.2 461.6 356.2 464.05 354.45 465.75 352.75 467.5 350.3 467.5 347.85 467.5 346.05 465.75 344.35 464.05 344.35 461.6 344.35 459.15 346.05 457.35
M 350.3 341.4
Q 346.15 341.4 343.1 344.35 343.05 344.35 343.05 344.4 340.1 347.45 340.1 351.6 340.1 355.8 343.1 358.8
L 343.1 358.85
Q 346.15 361.75 350.3 361.75 354.5 361.75 357.4 358.85 357.45 358.8 357.5 358.75 360.45 355.8 360.45 351.6 360.45 347.4 357.45 344.4
L 357.5 344.4
Q 354.55 341.4 350.3 341.4
M 354.45 347.35
Q 356.2 349.15 356.2 351.6 356.2 354.05 354.45 355.75 352.75 357.5 350.3 357.5 347.85 357.5 346.05 355.75 344.35 354.05 344.35 351.6 344.35 349.15 346.05 347.35 347.85 345.65 350.3 345.65 352.75 345.65 354.45 347.35
M 343.1 234.35
Q 343.05 234.35 343.05 234.4 340.1 237.45 340.1 241.6 340.1 245.8 343.1 248.8
L 343.1 248.85
Q 346.15 251.75 350.3 251.75 354.5 251.75 357.4 248.85 357.45 248.8 357.5 248.75 360.45 245.8 360.45 241.6 360.45 237.4 357.45 234.4
L 357.5 234.4
Q 354.55 231.4 350.3 231.4 346.15 231.4 343.1 234.35
M 344.35 241.6
Q 344.35 239.15 346.05 237.35 347.85 235.65 350.3 235.65 352.75 235.65 354.45 237.35 356.2 239.15 356.2 241.6 356.2 244.05 354.45 245.75 352.75 247.5 350.3 247.5 347.85 247.5 346.05 245.75 344.35 244.05 344.35 241.6 Z"/>

<path fill="#4CB6E6" stroke="none" d="
M 354.45 567.35
Q 352.75 565.65 350.3 565.65 347.85 565.65 346.05 567.35 344.35 569.15 344.35 571.6 344.35 574.05 346.05 575.75 347.85 577.5 350.3 577.5 352.75 577.5 354.45 575.75 356.2 574.05 356.2 571.6 356.2 569.15 354.45 567.35
M 350.3 455.65
Q 347.85 455.65 346.05 457.35 344.35 459.15 344.35 461.6 344.35 464.05 346.05 465.75 347.85 467.5 350.3 467.5 352.75 467.5 354.45 465.75 356.2 464.05 356.2 461.6 356.2 459.15 354.45 457.35 352.75 455.65 350.3 455.65
M 356.2 351.6
Q 356.2 349.15 354.45 347.35 352.75 345.65 350.3 345.65 347.85 345.65 346.05 347.35 344.35 349.15 344.35 351.6 344.35 354.05 346.05 355.75 347.85 357.5 350.3 357.5 352.75 357.5 354.45 355.75 356.2 354.05 356.2 351.6
M 346.05 237.35
Q 344.35 239.15 344.35 241.6 344.35 244.05 346.05 245.75 347.85 247.5 350.3 247.5 352.75 247.5 354.45 245.75 356.2 244.05 356.2 241.6 356.2 239.15 354.45 237.35 352.75 235.65 350.3 235.65 347.85 235.65 346.05 237.35 Z"/>

<path fill="#FFFFFF" stroke="none" d="
M 634.9 226.5
Q 634.9 211.5 619.9 211.5
L 529.9 211.5
Q 514.9 211.5 514.9 226.5
L 514.9 256.55
Q 514.9 271.55 529.9 271.55
L 619.9 271.55
Q 634.9 271.55 634.9 256.55
L 634.9 226.5
M 698.9 586.55
L 698.9 556.5
Q 698.9 541.5 683.9 541.5
L 593.9 541.5
Q 578.9 541.5 578.9 556.5
L 578.9 586.55
Q 578.9 601.55 593.9 601.55
L 683.9 601.55
Q 698.9 601.55 698.9 586.55
M 672.9 476.55
L 672.9 446.5
Q 672.9 431.5 657.9 431.5
L 567.9 431.5
Q 552.9 431.5 552.9 446.5
L 552.9 476.55
Q 552.9 491.55 567.9 491.55
L 657.9 491.55
Q 672.9 491.55 672.9 476.55
M 882.9 476.55
L 882.9 446.5
Q 882.9 431.5 867.9 431.5
L 777.9 431.5
Q 762.9 431.5 762.9 446.5
L 762.9 476.55
Q 762.9 491.55 777.9 491.55
L 867.9 491.55
Q 882.9 491.55 882.9 476.55
M 750.9 336.5
Q 750.9 321.5 735.9 321.5
L 645.9 321.5
Q 630.9 321.5 630.9 336.5
L 630.9 366.55
Q 630.9 381.55 645.9 381.55
L 735.9 381.55
Q 750.9 381.55 750.9 366.55
L 750.9 336.5 Z"/>
</g>

<path id="Layer0_0_1_STROKES" stroke="#DBDBDB" stroke-width="3" stroke-linejoin="round" stroke-linecap="round" fill="none" d="
M 645.9 321.5
L 735.9 321.5
Q 750.9 321.5 750.9 336.5
L 750.9 366.55
Q 750.9 381.55 735.9 381.55
L 645.9 381.55
Q 630.9 381.55 630.9 366.55
L 630.9 336.5
Q 630.9 321.5 645.9 321.5 Z
M 777.9 431.5
L 867.9 431.5
Q 882.9 431.5 882.9 446.5
L 882.9 476.55
Q 882.9 491.55 867.9 491.55
L 777.9 491.55
Q 762.9 491.55 762.9 476.55
L 762.9 446.5
Q 762.9 431.5 777.9 431.5 Z
M 567.9 431.5
L 657.9 431.5
Q 672.9 431.5 672.9 446.5
L 672.9 476.55
Q 672.9 491.55 657.9 491.55
L 567.9 491.55
Q 552.9 491.55 552.9 476.55
L 552.9 446.5
Q 552.9 431.5 567.9 431.5 Z
M 593.9 541.5
L 683.9 541.5
Q 698.9 541.5 698.9 556.5
L 698.9 586.55
Q 698.9 601.55 683.9 601.55
L 593.9 601.55
Q 578.9 601.55 578.9 586.55
L 578.9 556.5
Q 578.9 541.5 593.9 541.5 Z
M 529.9 211.5
L 619.9 211.5
Q 634.9 211.5 634.9 226.5
L 634.9 256.55
Q 634.9 271.55 619.9 271.55
L 529.9 271.55
Q 514.9 271.55 514.9 256.55
L 514.9 226.5
Q 514.9 211.5 529.9 211.5 Z"/>
</defs>

<g transform="matrix( 1, 0, 0, 1, 0,0) ">
<use xlink:href="#Layer0_0_FILL"/>

<use xlink:href="#Layer0_0_1_STROKES"/>
</g>
</svg>
