
<svg xmlns="http://www.w3.org/2000/svg" version="1.1" xmlns:xlink="http://www.w3.org/1999/xlink" preserveAspectRatio="none" x="0px" y="0px" width="34px" height="33px" viewBox="0 0 34 33">
<defs>
<g id="bd43434_3_Layer1_0_FILL">
<path fill="#FFFFFF" stroke="none" d="
M -4.7 2.7
Q -4.9 2.65 -5.05 2.75
L -6.55 4.3 -7.45 3.4
Q -7.7 3.1 -7.95 3.2 -8.3 3.25 -8.35 3.65
L -9.55 8.7
Q -9.7 9.15 -9.5 9.35 -9.25 9.55 -8.8 9.45
L -3.8 8.25
Q -3.4 8.15 -3.3 7.85 -3.25 7.55 -3.55 7.25
L -4.45 6.35 -2.95 4.85
Q -2.8 4.75 -2.8 4.55 -2.8 4.35 -2.9 4.25
L -4.35 2.75
Q -4.5 2.65 -4.7 2.7
M -8.85 -6.05
Q -9.25 -6.15 -9.5 -5.95 -9.7 -5.7 -9.6 -5.3
L -8.35 -0.25
Q -8.25 0.1 -8 0.2 -7.7 0.3 -7.4 0
L -6.5 -0.9 -5 0.6
Q -4.85 0.75 -4.7 0.75 -4.5 0.7 -4.35 0.55
L -2.95 -0.85
Q -2.8 -1 -2.8 -1.15 -2.8 -1.35 -2.9 -1.5
L -4.4 -3 -3.5 -3.9
Q -3.25 -4.15 -3.3 -4.5 -3.4 -4.75 -3.8 -4.8
L -8.85 -6.05
M 4.7 3.65
Q 4.6 3.25 4.35 3.15 4.05 3.1 3.75 3.4
L 2.85 4.3 1.35 2.75
Q 1.2 2.65 1 2.7 0.8 2.65 0.7 2.75
L -0.75 4.2
Q -0.85 4.3 -0.85 4.55 -0.85 4.75 -0.75 4.85
L 0.75 6.35 -0.15 7.25
Q -0.4 7.55 -0.35 7.85 -0.25 8.1 0.1 8.25
L 5.15 9.45
Q 5.6 9.55 5.8 9.35 6 9.15 5.9 8.7
L 4.7 3.65
M 4.7 -0.25
L 5.9 -5.3
Q 6 -5.7 5.8 -5.95 5.6 -6.15 5.2 -6.05
L 0.1 -4.8
Q -0.3 -4.75 -0.35 -4.45 -0.4 -4.2 -0.15 -3.95
L 0.75 -3.05 -0.75 -1.5
Q -0.85 -1.4 -0.85 -1.15 -0.85 -1 -0.75 -0.85
L 0.75 0.6
Q 0.85 0.75 1 0.75 1.2 0.7 1.35 0.55
L 2.85 -0.95 3.75 -0.05
Q 4.05 0.25 4.35 0.2 4.6 0.15 4.7 -0.25 Z"/>
</g>
</defs>

<g transform="matrix( 1, 0, 0, 1, 17,16.5) ">
<g transform="matrix( 1, 0, 0, 1, 1.85,-1.7) ">
<use xlink:href="#bd43434_3_Layer1_0_FILL"/>
</g>
</g>
</svg>
