<?xml version="1.0" encoding="utf-8"?>
<!-- Generator: Adobe Illustrator 16.0.0, SVG Export Plug-In . SVG Version: 6.00 Build 0)  -->
<!DOCTYPE svg PUBLIC "-//W3C//DTD SVG 1.1//EN" "http://www.w3.org/Graphics/SVG/1.1/DTD/svg11.dtd" [
	<!ENTITY ns_extend "http://ns.adobe.com/Extensibility/1.0/">
	<!ENTITY ns_ai "http://ns.adobe.com/AdobeIllustrator/10.0/">
	<!ENTITY ns_graphs "http://ns.adobe.com/Graphs/1.0/">
	<!ENTITY ns_vars "http://ns.adobe.com/Variables/1.0/">
	<!ENTITY ns_imrep "http://ns.adobe.com/ImageReplacement/1.0/">
	<!ENTITY ns_sfw "http://ns.adobe.com/SaveForWeb/1.0/">
	<!ENTITY ns_custom "http://ns.adobe.com/GenericCustomNamespace/1.0/">
	<!ENTITY ns_adobe_xpath "http://ns.adobe.com/XPath/1.0/">
]>
<svg version="1.1" id="Layer_1" xmlns:x="&ns_extend;" xmlns:i="&ns_ai;" xmlns:graph="&ns_graphs;"
	 xmlns="http://www.w3.org/2000/svg" xmlns:xlink="http://www.w3.org/1999/xlink" x="0px" y="0px" width="140px" height="140px"
	 viewBox="0 0 140 140" enable-background="new 0 0 140 140" xml:space="preserve">
<metadata>
	<sfw  xmlns="&ns_sfw;">
		<slices></slices>
		<sliceSourceBounds  width="139.659" height="139.88" y="-380.041" x="363.716" bottomLeftOrigin="true"></sliceSourceBounds>
	</sfw>
</metadata>
<g>
	<rect x="1.17" y="1.06" fill="none" stroke="#000000" stroke-width="2" width="137.659" height="137.88"/>
	<g>
		<path fill="#040000" d="M70.271,51.28c0.449,0.435,0.674,1.223,0.674,2.362v4.995c0,1.26-0.074,2.385-0.225,3.375
			s-0.443,1.928-0.877,2.813c-0.436,0.885-1.028,1.748-1.777,2.588c-0.751,0.84-1.719,1.732-2.903,2.678
			c-1.185,0.944-2.632,1.973-4.343,3.082c-1.709,1.109-3.72,2.385-6.029,3.824c-0.331,0.211-0.683,0.256-1.058,0.136
			c-0.375-0.12-0.683-0.345-0.923-0.675s-0.345-0.705-0.314-1.125c0.029-0.42,0.225-0.75,0.585-0.99
			c2.16-1.32,4.027-2.49,5.603-3.51c1.574-1.02,2.902-1.942,3.982-2.768s1.949-1.59,2.609-2.295s1.17-1.425,1.53-2.16
			c0.36-0.734,0.601-1.508,0.72-2.318c0.12-0.809,0.181-1.738,0.181-2.789v-4.185c0-0.54-0.286-0.81-0.855-0.81H54.115
			c-0.421,0-0.72-0.142-0.9-0.428c-0.18-0.285-0.27-0.622-0.27-1.012c0-0.39,0.09-0.727,0.27-1.013
			c0.18-0.285,0.479-0.427,0.9-0.427H67.84C69.01,50.628,69.819,50.846,70.271,51.28z M81.024,47.433
			c0.42,0,0.803,0.105,1.148,0.315c0.344,0.21,0.518,0.556,0.518,1.035v12.555h5.715c0.42,0,0.72,0.143,0.899,0.427
			c0.181,0.286,0.271,0.623,0.271,1.014c0,0.42-0.09,0.771-0.271,1.057c-0.18,0.285-0.479,0.428-0.899,0.428H82.69v20.34
			c0,0.479-0.174,0.824-0.518,1.035c-0.346,0.209-0.729,0.314-1.148,0.314s-0.795-0.105-1.125-0.314
			c-0.33-0.211-0.494-0.556-0.494-1.035v-35.82c0-0.479,0.164-0.825,0.494-1.035C80.229,47.538,80.604,47.433,81.024,47.433z"/>
	</g>
</g>
<g>
</g>
<g>
</g>
<g>
</g>
<g>
</g>
<g>
</g>
<g>
</g>
</svg>
