
<svg xmlns="http://www.w3.org/2000/svg" version="1.1" xmlns:xlink="http://www.w3.org/1999/xlink" preserveAspectRatio="none" x="0px" y="0px" width="936px" height="495px" viewBox="0 0 936 495">
<defs>
<g id="Layer0_0_FILL">
<path fill="#1E1E1E" stroke="none" d="
M 165.4 414.45
Q 165.4 416.15 163.8 418.75 162.2 421.4 158.85 425.35
L 152.75 432.6
Q 152.55 432.9 152.35 433.2 152.2 433.55 152.2 433.85
L 152.2 436.15
Q 152.2 436.65 152.95 436.65
L 170 436.65
Q 170.55 436.65 170.55 435.95
L 170.55 433.15
Q 170.55 432.55 170 432.55
L 158.25 432.55
Q 159.25 431.4 160.25 430.25 161.25 429.05 162.1 427.95 163.2 426.65 164.6 425.05 165.95 423.4 167.15 421.65 168.35 419.85 169.15 418 169.95 416.15 169.95 414.35 169.95 412.25 169.25 410.65 168.55 409.05 167.4 408 166.25 406.95 164.6 406.4 163 405.85 161.05 405.85 159.2 405.85 157.2 406.5 155.25 407.15 153.75 407.95 153.35 408.15 153.2 408.4 153.1 408.55 153.2 408.75
L 153.75 411.8
Q 153.85 412.15 154.15 412.2 154.45 412.2 154.8 412 156.6 410.95 158.1 410.5 159.65 410.05 161.3 410.05 163.05 410.05 164.2 411.3 165.4 412.55 165.4 414.45
M 170.1 456.35
Q 169.95 456.15 169.7 456.15
L 155.05 456.15
Q 154.45 456.15 154.35 456.3 154.2 456.4 154.2 456.85
L 154 471.6
Q 154 472.95 155.55 472.3 156.8 471.85 158.2 471.6 159.6 471.3 160.9 471.3 164.2 471.3 165.6 472.85 167.05 474.35 167.05 476.95 167.05 479.65 165.25 481.15 163.55 482.7 160.85 482.7 160.15 482.7 159.3 482.6 158.5 482.55 157.65 482.4 156.8 482.2 156 482 155.2 481.75 154.65 481.45 153.8 481.05 153.8 481.75
L 153.8 485
Q 153.8 485.3 153.8 485.45 153.85 485.55 154.1 485.75 154.75 486.05 155.7 486.25 156.6 486.5 157.55 486.65 158.5 486.75 159.3 486.85 160.15 486.9 160.55 486.9 162.85 486.9 164.9 486.25 167 485.6 168.4 484.3 171.55 481.5 171.55 476.45 171.55 474.35 170.8 472.7 170.05 471 168.75 469.8 167.45 468.65 165.7 468 163.95 467.4 161.95 467.4 160 467.4 158.4 467.75
L 158.55 460.35 169.7 460.35
Q 169.95 460.35 170.1 460.15 170.2 460 170.2 459.75
L 170.2 456.7
Q 170.2 456.5 170.1 456.35
M 424.15 456.35
Q 424 456.15 423.75 456.15
L 409.1 456.15
Q 408.5 456.15 408.4 456.3 408.25 456.4 408.25 456.85
L 408.05 471.6
Q 408.05 472.95 409.6 472.3 410.85 471.85 412.25 471.6 413.65 471.3 414.95 471.3 418.25 471.3 419.65 472.85 421.1 474.35 421.1 476.95 421.1 479.65 419.3 481.15 417.6 482.7 414.9 482.7 414.2 482.7 413.35 482.6 412.55 482.55 411.7 482.4 410.85 482.2 410.05 482 409.25 481.75 408.7 481.45 407.85 481.05 407.85 481.75
L 407.85 485
Q 407.85 485.3 407.85 485.45 407.9 485.55 408.15 485.75 408.8 486.05 409.75 486.25 410.65 486.5 411.6 486.65 412.55 486.75 413.35 486.85 414.2 486.9 414.6 486.9 416.9 486.9 418.95 486.25 421.05 485.6 422.45 484.3 425.6 481.5 425.6 476.45 425.6 474.35 424.85 472.7 424.1 471 422.8 469.8 421.5 468.65 419.75 468 418 467.4 416 467.4 414.05 467.4 412.45 467.75
L 412.6 460.35 423.75 460.35
Q 424 460.35 424.15 460.15 424.25 460 424.25 459.75
L 424.25 456.7
Q 424.25 456.5 424.15 456.35
M 427 406.9
Q 427 406.4 426.5 406.4
L 418.05 406.4 418.05 398
Q 418.05 397.85 417.95 397.65 417.8 397.55 417.6 397.55
L 414.3 397.55
Q 414.15 397.55 413.95 397.65 413.85 397.85 413.85 398
L 413.85 406.4 405.35 406.4
Q 405.15 406.4 405.05 406.55 404.9 406.7 404.9 406.9
L 404.9 410
Q 404.9 410.2 405.05 410.35 405.15 410.5 405.35 410.5
L 413.85 410.5 413.85 418.95
Q 413.85 419.45 414.3 419.45
L 417.6 419.45
Q 418.05 419.45 418.05 418.95
L 418.05 410.5 426.5 410.5
Q 427 410.5 427 410
L 427 406.9
M 525.1 448.5
Q 524.9 448.5 524.75 448.6 524.6 448.75 524.6 448.95
L 524.6 452.1
Q 524.6 452.35 524.75 452.45 524.9 452.6 525.1 452.6
L 546.2 452.6
Q 546.4 452.6 546.55 452.45 546.7 452.35 546.7 452.1
L 546.7 448.95
Q 546.7 448.75 546.55 448.6 546.4 448.5 546.2 448.5
L 525.1 448.5
M 546.7 440.65
Q 546.7 440.45 546.55 440.3 546.4 440.15 546.2 440.15
L 525.1 440.15
Q 524.9 440.15 524.75 440.3 524.6 440.45 524.6 440.65
L 524.6 443.8
Q 524.6 444 524.75 444.15 524.9 444.3 525.1 444.3
L 546.2 444.3
Q 546.4 444.3 546.55 444.15 546.7 444 546.7 443.8
L 546.7 440.65
M 598.85 456.35
Q 598.7 456.15 598.45 456.15
L 583.8 456.15
Q 583.2 456.15 583.1 456.3 582.95 456.4 582.95 456.85
L 582.75 471.6
Q 582.75 472.95 584.3 472.3 585.55 471.85 586.95 471.6 588.35 471.3 589.65 471.3 592.95 471.3 594.35 472.85 595.8 474.35 595.8 476.95 595.8 479.65 594 481.15 592.3 482.7 589.6 482.7 588.9 482.7 588.05 482.6 587.25 482.55 586.4 482.4 585.55 482.2 584.75 482 583.95 481.75 583.4 481.45 582.55 481.05 582.55 481.75
L 582.55 485
Q 582.55 485.3 582.55 485.45 582.6 485.55 582.85 485.75 583.5 486.05 584.45 486.25 585.35 486.5 586.3 486.65 587.25 486.75 588.05 486.85 588.9 486.9 589.3 486.9 591.6 486.9 593.65 486.25 595.75 485.6 597.15 484.3 600.3 481.5 600.3 476.45 600.3 474.35 599.55 472.7 598.8 471 597.5 469.8 596.2 468.65 594.45 468 592.7 467.4 590.7 467.4 588.75 467.4 587.15 467.75
L 587.3 460.35 598.45 460.35
Q 598.7 460.35 598.85 460.15 598.95 460 598.95 459.75
L 598.95 456.7
Q 598.95 456.5 598.85 456.35
M 207.2 435.9
Q 207.2 435.75 207.1 435.55 206.95 435.45 206.75 435.45
L 203.45 435.45
Q 203.3 435.45 203.1 435.55 203 435.75 203 435.9
L 203 444.3 194.5 444.3
Q 194.3 444.3 194.2 444.45 194.05 444.6 194.05 444.8
L 194.05 447.9
Q 194.05 448.1 194.2 448.25 194.3 448.4 194.5 448.4
L 203 448.4 203 456.85
Q 203 457.35 203.45 457.35
L 206.75 457.35
Q 207.2 457.35 207.2 456.85
L 207.2 448.4 215.65 448.4
Q 216.15 448.4 216.15 447.9
L 216.15 444.8
Q 216.15 444.3 215.65 444.3
L 207.2 444.3 207.2 435.9
M 306.05 448.6
Q 305.9 448.5 305.7 448.5
L 284.6 448.5
Q 284.4 448.5 284.25 448.6 284.1 448.75 284.1 448.95
L 284.1 452.1
Q 284.1 452.35 284.25 452.45 284.4 452.6 284.6 452.6
L 305.7 452.6
Q 305.9 452.6 306.05 452.45 306.2 452.35 306.2 452.1
L 306.2 448.95
Q 306.2 448.75 306.05 448.6
M 257.1 456.35
Q 256.95 456.15 256.7 456.15
L 242.05 456.15
Q 241.45 456.15 241.35 456.3 241.2 456.4 241.2 456.85
L 241 471.6
Q 241 472.95 242.55 472.3 243.8 471.85 245.2 471.6 246.6 471.3 247.9 471.3 251.2 471.3 252.6 472.85 254.05 474.35 254.05 476.95 254.05 479.65 252.25 481.15 250.55 482.7 247.85 482.7 247.15 482.7 246.3 482.6 245.5 482.55 244.65 482.4 243.8 482.2 243 482 242.2 481.75 241.65 481.45 240.8 481.05 240.8 481.75
L 240.8 485
Q 240.8 485.3 240.8 485.45 240.85 485.55 241.1 485.75 241.75 486.05 242.7 486.25 243.6 486.5 244.55 486.65 245.5 486.75 246.3 486.85 247.15 486.9 247.55 486.9 249.85 486.9 251.9 486.25 254 485.6 255.4 484.3 258.55 481.5 258.55 476.45 258.55 474.35 257.8 472.7 257.05 471 255.75 469.8 254.45 468.65 252.7 468 250.95 467.4 248.95 467.4 247 467.4 245.4 467.75
L 245.55 460.35 256.7 460.35
Q 256.95 460.35 257.1 460.15 257.2 460 257.2 459.75
L 257.2 456.7
Q 257.2 456.5 257.1 456.35
M 255.65 406.35
Q 255.6 406.2 255.3 406.2
L 251.65 406.2
Q 251.25 406.2 251.15 406.3 251.05 406.4 250.85 406.75
L 238.45 425.35
Q 238.3 425.5 238.15 425.8 237.95 426.1 237.95 426.35
L 237.95 429.35
Q 237.95 429.65 238.1 429.7 238.25 429.8 238.6 429.8
L 251.4 429.8 251.4 435.9
Q 251.4 436.3 251.55 436.45 251.7 436.6 252.15 436.6
L 255.05 436.6
Q 255.45 436.6 255.55 436.45 255.7 436.35 255.7 435.9
L 255.7 429.8 259.4 429.8
Q 259.75 429.8 259.9 429.7 260.05 429.6 260.05 429.2
L 260.05 426.3
Q 260.05 425.9 259.9 425.8 259.75 425.7 259.4 425.7
L 255.7 425.7 255.7 406.8
Q 255.7 406.45 255.65 406.35
M 251.4 412.65
L 251.4 425.7 242.8 425.7 251.4 412.65
M 284.1 443.8
Q 284.1 444 284.25 444.15 284.4 444.3 284.6 444.3
L 305.7 444.3
Q 305.9 444.3 306.05 444.15 306.2 444 306.2 443.8
L 306.2 440.65
Q 306.2 440.45 306.05 440.3 305.9 440.15 305.7 440.15
L 284.6 440.15
Q 284.4 440.15 284.25 440.3 284.1 440.45 284.1 440.65
L 284.1 443.8
M 94.2 284.35
L 94.35 276.95 105.5 276.95
Q 105.75 276.95 105.9 276.75 106 276.6 106 276.35
L 106 273.3
Q 106 273.1 105.9 272.95 105.75 272.75 105.5 272.75
L 90.85 272.75
Q 90.25 272.75 90.15 272.9 90 273 90 273.45
L 89.8 288.2
Q 89.8 289.55 91.35 288.9 92.6 288.45 94 288.2 95.4 287.9 96.7 287.9 100 287.9 101.4 289.45 102.85 290.95 102.85 293.55 102.85 296.25 101.05 297.75 99.35 299.3 96.65 299.3 95.95 299.3 95.1 299.2 94.3 299.15 93.45 299 92.6 298.8 91.8 298.6 91 298.35 90.45 298.05 89.6 297.65 89.6 298.35
L 89.6 301.6
Q 89.6 301.9 89.6 302.05 89.65 302.15 89.9 302.35 90.55 302.65 91.5 302.85 92.4 303.1 93.35 303.25 94.3 303.35 95.1 303.45 95.95 303.5 96.35 303.5 98.65 303.5 100.7 302.85 102.8 302.2 104.2 300.9 107.35 298.1 107.35 293.05 107.35 290.95 106.6 289.3 105.85 287.6 104.55 286.4 103.25 285.25 101.5 284.6 99.75 284 97.75 284 95.8 284 94.2 284.35
M 7.2 189.55
Q 6.6 190.15 6.1 190.8 5.65 191.6 5.35 192.5 5 193.35 4.75 194.4 4.5 195.45 4.4 196.6 4.3 197.7 4.3 199 4.3 200.2 4.4 201.35 4.5 202.45 4.7 203.45 4.9 204.5 5.25 205.4 5.6 206.3 6.1 207.05 6.6 207.8 7.2 208.35 7.8 208.95 8.45 209.35 9.1 209.8 9.9 210 10.75 210.2 11.7 210.2 12.6 210.2 13.4 210 14.15 209.8 14.85 209.35 15.6 208.95 16.15 208.35 16.75 207.8 17.25 207.05 17.75 206.3 18.15 205.4 18.5 204.5 18.75 203.45 19 202.45 19.1 201.35 19.2 200.2 19.2 199 19.2 197.75 19.1 196.65 19 195.55 18.75 194.5 18.5 193.45 18.1 192.55 17.7 191.7 17.2 190.95 16.7 190.2 16.1 189.6 15.5 189.05 14.85 188.6 14.15 188.2 13.35 187.95 12.6 187.75 11.7 187.75 10.8 187.75 10 187.95 9.15 188.15 8.5 188.6 7.8 189 7.2 189.55
M 8.8 193.4
Q 9.05 192.9 9.4 192.5 9.7 192.05 10.1 191.75 10.45 191.5 10.85 191.35 11.25 191.2 11.7 191.2 12.15 191.2 12.55 191.35 12.95 191.5 13.35 191.8 13.75 192.1 14.05 192.5 14.35 192.95 14.6 193.5 14.8 194 14.95 194.6 15.15 195.25 15.3 195.95 15.45 196.65 15.5 197.4 15.6 198.2 15.6 199 15.6 199.8 15.55 200.55 15.45 201.35 15.35 202 15 203.45 14.6 204.55 14.4 205.1 14.05 205.5 13.75 205.95 13.4 206.25 12.95 206.55 12.55 206.7 12.15 206.9 11.7 206.9 11.25 206.9 10.8 206.7 10.4 206.55 10 206.2 9.3 205.6 8.75 204.5 8.55 203.95 8.4 203.3 8.2 202.7 8.15 201.95 8 201.25 7.95 200.5 7.9 199.75 7.9 199 7.9 198.15 7.95 197.4 8 196.65 8.15 195.9 8.2 195.2 8.4 194.55 8.55 193.95 8.8 193.4
M 268.15 81
Q 268 81.1 268 81.55
L 267.8 96.3
Q 267.8 97.65 269.35 97 270.6 96.55 272 96.3 273.4 96 274.7 96 278 96 279.4 97.55 280.85 99.05 280.85 101.65 280.85 104.35 279.05 105.85 277.35 107.4 274.65 107.4 273.95 107.4 273.1 107.3 272.3 107.25 271.45 107.1 270.6 106.9 269.8 106.7 269 106.45 268.45 106.15 267.6 105.75 267.6 106.45
L 267.6 109.7
Q 267.6 110 267.6 110.15 267.65 110.25 267.9 110.45 268.55 110.75 269.5 110.95 270.4 111.2 271.35 111.35 272.3 111.45 273.1 111.55 273.95 111.6 274.35 111.6 276.65 111.6 278.7 110.95 280.8 110.3 282.2 109 285.35 106.2 285.35 101.15 285.35 99.05 284.6 97.4 283.85 95.7 282.55 94.5 281.25 93.35 279.5 92.7 277.75 92.1 275.75 92.1 273.8 92.1 272.2 92.45
L 272.35 85.05 283.5 85.05
Q 283.75 85.05 283.9 84.85 284 84.7 284 84.45
L 284 81.4
Q 284 81.2 283.9 81.05 283.75 80.85 283.5 80.85
L 268.85 80.85
Q 268.25 80.85 268.15 81
M 361.2 284.35
L 361.35 276.95 372.5 276.95
Q 372.75 276.95 372.9 276.75 373 276.6 373 276.35
L 373 273.3
Q 373 273.1 372.9 272.95 372.75 272.75 372.5 272.75
L 357.85 272.75
Q 357.25 272.75 357.15 272.9 357 273 357 273.45
L 356.8 288.2
Q 356.8 289.55 358.35 288.9 359.6 288.45 361 288.2 362.4 287.9 363.7 287.9 367 287.9 368.4 289.45 369.85 290.95 369.85 293.55 369.85 296.25 368.05 297.75 366.35 299.3 363.65 299.3 362.95 299.3 362.1 299.2 361.3 299.15 360.45 299 359.6 298.8 358.8 298.6 358 298.35 357.45 298.05 356.6 297.65 356.6 298.35
L 356.6 301.6
Q 356.6 301.9 356.6 302.05 356.65 302.15 356.9 302.35 357.55 302.65 358.5 302.85 359.4 303.1 360.35 303.25 361.3 303.35 362.1 303.45 362.95 303.5 363.35 303.5 365.65 303.5 367.7 302.85 369.8 302.2 371.2 300.9 374.35 298.1 374.35 293.05 374.35 290.95 373.6 289.3 372.85 287.6 371.55 286.4 370.25 285.25 368.5 284.6 366.75 284 364.75 284 362.8 284 361.2 284.35
M 454.3 188.15
Q 454.05 188.25 453.9 188.45 453.8 188.65 453.7 188.85 453.55 189.05 453.5 189.3 453.35 189.55 453.3 189.85 453.2 190.1 453.15 190.35 453.05 190.6 452.95 190.85 452.85 191.05 452.7 191.2 452.45 191.35 452.2 191.5 451.95 191.6 451.65 191.65 451.3 191.7 451 191.75 450.65 191.75 450.35 191.75 450 191.8 449.7 191.9 449.45 192.05 449.25 192.25 449 192.5 448.9 192.8 448.8 193.05 448.85 193.35 448.85 193.7 448.9 193.95 449 194.25 449.2 194.5 449.35 194.75 449.6 194.9 449.85 195.05 450.25 195.05
L 452.95 195.05
Q 452.95 196.7 452.95 198.35 452.95 200 452.95 201.65 452.95 204.95 452.95 208.3 452.95 208.6 453.1 208.85 453.25 209.1 453.55 209.3 453.8 209.55 454.15 209.65 454.45 209.75 454.8 209.75 454.95 209.75 455.05 209.75 455.2 209.7 455.35 209.65 455.45 209.6 455.6 209.55 455.7 209.45 455.85 209.35 456 209.25 456.15 209.1 456.3 209 456.4 208.85 456.45 208.75 456.5 208.6 456.55 208.45 456.55 208.3
L 456.55 207.05
Q 456.55 204.8 456.55 202.55 456.55 200.4 456.55 198.2 456.5 196.05 456.5 193.85 456.5 191.7 456.5 189.5 456.5 188.95 455.95 188.5 455.65 188.3 455.4 188.15 455.15 188.05 454.95 188.05 454.55 188.05 454.3 188.15
M 658.55 448.6
Q 658.4 448.5 658.2 448.5
L 637.1 448.5
Q 636.9 448.5 636.75 448.6 636.6 448.75 636.6 448.95
L 636.6 452.1
Q 636.6 452.35 636.75 452.45 636.9 452.6 637.1 452.6
L 658.2 452.6
Q 658.4 452.6 658.55 452.45 658.7 452.35 658.7 452.1
L 658.7 448.95
Q 658.7 448.75 658.55 448.6
M 658.55 440.3
Q 658.4 440.15 658.2 440.15
L 637.1 440.15
Q 636.9 440.15 636.75 440.3 636.6 440.45 636.6 440.65
L 636.6 443.8
Q 636.6 444 636.75 444.15 636.9 444.3 637.1 444.3
L 658.2 444.3
Q 658.4 444.3 658.55 444.15 658.7 444 658.7 443.8
L 658.7 440.65
Q 658.7 440.45 658.55 440.3
M 768.15 467.75
L 768.3 460.35 779.45 460.35
Q 779.7 460.35 779.85 460.15 779.95 460 779.95 459.75
L 779.95 456.7
Q 779.95 456.5 779.85 456.35 779.7 456.15 779.45 456.15
L 764.8 456.15
Q 764.2 456.15 764.1 456.3 763.95 456.4 763.95 456.85
L 763.75 471.6
Q 763.75 472.95 765.3 472.3 766.55 471.85 767.95 471.6 769.35 471.3 770.65 471.3 773.95 471.3 775.35 472.85 776.8 474.35 776.8 476.95 776.8 479.65 775 481.15 773.3 482.7 770.6 482.7 769.9 482.7 769.05 482.6 768.25 482.55 767.4 482.4 766.55 482.2 765.75 482 764.95 481.75 764.4 481.45 763.55 481.05 763.55 481.75
L 763.55 485
Q 763.55 485.3 763.55 485.45 763.6 485.55 763.85 485.75 764.5 486.05 765.45 486.25 766.35 486.5 767.3 486.65 768.25 486.75 769.05 486.85 769.9 486.9 770.3 486.9 772.6 486.9 774.65 486.25 776.75 485.6 778.15 484.3 781.3 481.5 781.3 476.45 781.3 474.35 780.55 472.7 779.8 471 778.5 469.8 777.2 468.65 775.45 468 773.7 467.4 771.7 467.4 769.75 467.4 768.15 467.75
M 890 189.1
Q 889.45 189.45 889 189.9 888.2 190.8 887.75 191.9 887.5 192.45 887.4 193 887.3 193.5 887.3 194.05 887.3 194.35 887.4 194.6 887.5 194.85 887.75 195.05 888 195.25 888.25 195.3 888.5 195.4 888.75 195.4 889.15 195.4 889.5 195.3 889.9 195.15 890.2 194.85 890.45 194.55 890.6 194.25 890.75 193.9 890.75 193.5 890.75 193.35 890.85 193.15 890.9 192.95 891.05 192.7 891.1 192.5 891.25 192.3 891.4 192.15 891.6 191.95 891.85 191.8 892.1 191.65 892.4 191.5 892.7 191.35 892.95 191.3 893.2 191.2 893.5 191.15 893.8 191.15 894.2 191.15 894.55 191.25 894.95 191.3 895.25 191.45 895.55 191.6 895.8 191.8 896.05 191.95 896.25 192.2 896.45 192.4 896.6 192.65 896.75 192.95 896.9 193.2 897 193.5 897.1 193.75 897.15 194.05 897.15 194.3 897.15 194.55 897.1 194.85 897.05 195.1 896.9 195.35 896.8 195.65 896.65 195.9 896.45 196.15 896.35 196.4 896.2 196.7 896.05 196.95 895.85 197.2 895.65 197.35 895.4 197.6 895.2 197.75 895 197.9 894.85 198 894.45 198.3 894.05 198.6 893.65 198.9 893.3 199.2 892.9 199.5 892.5 199.8 892.1 200.1 891.7 200.4 891.2 200.8 890.75 201.2 890.25 201.6 889.85 201.95 889.45 202.35 889.15 202.7 888.85 203.1 888.65 203.45 888.3 203.85 888.1 204.25 887.9 204.65 887.75 205.05 887.6 205.5 887.5 206 887.4 206.5 887.35 207.05 887.35 207.1 887.35 207.15 887.35 207.25 887.3 207.35 887.25 207.45 887.25 207.55 887.25 207.65 887.25 207.7
L 887.25 207.8
Q 887.25 207.9 887.25 208 887.25 208.1 887.25 208.2 887.2 208.65 887.35 208.95 887.5 209.3 887.85 209.45 888.1 209.65 888.45 209.75 888.75 209.85 889.15 209.85
L 899.1 209.85
Q 900.9 209.85 900.9 208.25 900.9 207.8 900.8 207.5 900.65 207.2 900.4 207.05 900.2 206.9 899.8 206.85 899.4 206.75 898.9 206.75
L 891.2 206.75
Q 891.2 206.3 891.35 205.85 891.5 205.4 891.8 205 892.05 204.6 892.4 204.2 892.75 203.85 893.2 203.5 893.55 203.15 893.95 202.85 894.4 202.55 894.85 202.25 895.3 202 895.65 201.75 896.05 201.5 896.3 201.25 896.75 200.95 897.2 200.65 897.6 200.3 898 199.95 898.35 199.6 898.65 199.2 898.95 198.8 899.2 198.4 899.55 198 899.8 197.55 900 197.1 900.15 196.55 900.3 196.05 900.35 195.5 900.4 194.9 900.4 194.25 900.4 193.7 900.3 193.1 900.2 192.5 899.95 191.95 899.75 191.35 899.4 190.85 899.1 190.35 898.65 189.85 898.15 189.4 897.6 189.05 897.05 188.7 896.45 188.4 895.85 188.15 895.15 188 894.5 187.85 893.8 187.85
L 893.75 187.85
Q 893 187.85 892.35 188 891.75 188.15 891.15 188.4 890.55 188.7 890 189.1 Z"/>

<path fill="#FFFFFF" stroke="none" d="
M 112.85 192.75
L 82.85 192.75
Q 67.85 192.75 67.85 207.75
L 67.85 237.8
Q 67.85 252.8 82.85 252.8
L 112.85 252.8
Q 127.85 252.8 127.85 237.8
L 127.85 207.75
Q 127.85 192.75 112.85 192.75
M 305.85 46.55
L 305.85 16.5
Q 305.85 1.5 290.85 1.5
L 260.85 1.5
Q 245.85 1.5 245.85 16.5
L 245.85 46.55
Q 245.85 61.55 260.85 61.55
L 290.85 61.55
Q 305.85 61.55 305.85 46.55
M 606.65 376.7
L 576.65 376.7
Q 561.65 376.7 561.65 391.7
L 561.65 421.75
Q 561.65 436.75 576.65 436.75
L 606.65 436.75
Q 621.65 436.75 621.65 421.75
L 621.65 391.7
Q 621.65 376.7 606.65 376.7
M 482.6 377.7
L 452.6 377.7
Q 437.6 377.7 437.6 392.7
L 437.6 422.75
Q 437.6 437.75 452.6 437.75
L 482.6 437.75
Q 497.6 437.75 497.6 422.75
L 497.6 392.7
Q 497.6 377.7 482.6 377.7
M 349.6 377.7
Q 334.6 377.7 334.6 392.7
L 334.6 422.75
Q 334.6 437.75 349.6 437.75
L 379.6 437.75
Q 394.6 437.75 394.6 422.75
L 394.6 392.7
Q 394.6 377.7 379.6 377.7
L 349.6 377.7
M 379.85 192.75
L 349.85 192.75
Q 334.85 192.75 334.85 207.75
L 334.85 237.8
Q 334.85 252.8 349.85 252.8
L 379.85 252.8
Q 394.85 252.8 394.85 237.8
L 394.85 207.75
Q 394.85 192.75 379.85 192.75
M 732.65 461.75
L 732.65 431.7
Q 732.65 416.7 717.65 416.7
L 687.65 416.7
Q 672.65 416.7 672.65 431.7
L 672.65 461.75
Q 672.65 476.75 687.65 476.75
L 717.65 476.75
Q 732.65 476.75 732.65 461.75
M 757.65 376.7
Q 742.65 376.7 742.65 391.7
L 742.65 421.75
Q 742.65 436.75 757.65 436.75
L 787.65 436.75
Q 802.65 436.75 802.65 421.75
L 802.65 391.7
Q 802.65 376.7 787.65 376.7
L 757.65 376.7 Z"/>

<path fill="#0EA6E9" stroke="none" d="
M 183.6 165.15
L 176.9 172.05 181.85 173.3 186.15 174.4 183.6 165.15
M 527.05 170.95
L 531 172.8 535.7 175 534.85 165.5 527.05 170.95 Z"/>
</g>

<g id="Layer0_0_STROKES_1_FILL">
<path fill="#0EA6E9" stroke="none" d="
M 165.75 222.7
Q 166.4126953125 221.3625 167 220 167.183984375 219.6267578125 167 219.25 166.8771484375 218.8541015625 166.5 218.65 166.1279296875 218.516015625 165.75 218.65 165.354296875 218.8240234375 165.15 219.2 164.5873046875 220.5375 163.95 221.85 163.7662109375 222.243359375 163.9 222.6 164.04453125 223.0171875 164.4 223.2 164.7921875 223.3837890625 165.15 223.25 165.5669921875 223.104296875 165.75 222.7
M 168.6 216.35
Q 169.2248046875 215.0001953125 169.8 213.6 169.983984375 213.212109375 169.8 212.8 169.6755859375 212.440234375 169.3 212.25 168.9134765625 212.1158203125 168.5 212.25 168.1404296875 212.4255859375 167.95 212.8 167.3748046875 214.2 166.75 215.55 166.616015625 215.9232421875 166.75 216.3 166.9228515625 216.695703125 167.3 216.85 167.6720703125 217.033984375 168.05 216.85 168.445703125 216.7259765625 168.6 216.35
M 172.4 207.15
Q 172.583984375 206.7849609375 172.4 206.4 172.2587890625 206.0234375 171.85 205.85 171.4853515625 205.7158203125 171.1 205.85 170.7236328125 206.04140625 170.55 206.4 170.025 207.825 169.45 209.15 169.316015625 209.5501953125 169.45 209.9 169.63984375 210.3126953125 170 210.45 170.4001953125 210.6341796875 170.75 210.45 171.1623046875 210.31015625 171.3 209.9 171.8748046875 208.575 172.4 207.15
M 174.9 200.6
Q 175.0333984375 200.2267578125 174.85 199.85 174.665234375 199.4802734375 174.25 199.35 173.8771484375 199.21640625 173.5 199.4 173.1302734375 199.5849609375 173 199.95 172.6119140625 201.1625 172.15 202.35
L 172.2 202.25
Q 172.1 202.45 172 202.65 171.816796875 203.0275390625 171.95 203.4 172.0802734375 203.815234375 172.45 204 172.8271484375 204.18359375 173.2 204.05 173.6146484375 203.9193359375 173.8 203.55 173.9 203.35 174 203.15 174.0140625 203.100390625 174 203.05 174.487890625 201.8373046875 174.9 200.6
M 215.55 202.15
Q 215.525390625 202.5869140625 215.8 202.9 216.8 204.0626953125 217.8 205.15 218.0845703125 205.4810546875 218.5 205.5 218.915234375 205.5244140625 219.2 205.25 219.53125 204.9662109375 219.55 204.55 219.5734375 204.134765625 219.3 203.8 218.3001953125 202.7373046875 217.3 201.6 217.030859375 201.2828125 216.6 201.25 216.2130859375 201.2244140625 215.9 201.5 215.5828125 201.7681640625 215.55 202.15
M 239.4 222.65
Q 238.275 221.725 237.1 220.75 236.8078125 220.511328125 236.4 220.55 235.989453125 220.597265625 235.7 220.9 235.460546875 221.241796875 235.5 221.65 235.5474609375 222.059765625 235.85 222.3 237.025 223.275 238.15 224.2 238.4921875 224.4884765625 238.9 224.45 239.310546875 224.402734375 239.55 224.05 239.8392578125 223.7580078125 239.8 223.35 239.75234375 222.940234375 239.4 222.65
M 228.95 214.95
Q 229.260546875 214.6435546875 229.25 214.2 229.2443359375 213.8123046875 228.95 213.5 227.85 212.475 226.75 211.4 226.4427734375 211.1396484375 226 211.15 225.6119140625 211.1548828125 225.3 211.45 225.0392578125 211.75625 225.05 212.15 225.0556640625 212.5876953125 225.35 212.85 226.45 213.925 227.55 214.95 227.85703125 215.26015625 228.25 215.25 228.6880859375 215.2451171875 228.95 214.95
M 231.85 216.2
Q 231.5650390625 215.9265625 231.15 215.95 230.7337890625 215.96875 230.45 216.25 230.1755859375 216.584765625 230.2 217 230.2189453125 217.415234375 230.5 217.7 231.6373046875 218.7001953125 232.8 219.7 233.1130859375 219.9744140625 233.5 219.95 233.9318359375 219.9171875 234.2 219.6 234.4755859375 219.287109375 234.45 218.85 234.4169921875 218.469140625 234.1 218.2 232.9626953125 217.2 231.85 216.2
M 223.9 210
Q 224.196484375 209.7107421875 224.2 209.3 224.196484375 208.8892578125 223.9 208.6 222.8625 207.549609375 221.8 206.45 221.5376953125 206.1556640625 221.1 206.15 220.70625 206.1392578125 220.4 206.4 220.1048828125 206.7119140625 220.1 207.1 220.0896484375 207.5427734375 220.35 207.85 221.4375 208.9501953125 222.5 210 222.7892578125 210.296484375 223.2 210.3 223.6107421875 210.296484375 223.9 210
M 288.75 251.5
Q 288.921484375 251.1212890625 288.75 250.75 288.58359375 250.3728515625 288.2 250.2 286.7625 249.675 285.35 249.1 284.9849609375 248.966015625 284.6 249.1 284.2234375 249.2912109375 284.05 249.65 283.9158203125 250.0646484375 284.05 250.45 284.24140625 250.8263671875 284.6 250.95 286.0375 251.525 287.5 252.05 287.8779296875 252.2208984375 288.25 252.05 288.627734375 251.8828125 288.75 251.5
M 297.4 255.25
Q 297.6130859375 255.634375 298 255.75 299.4623046875 256.2 300.95 256.65 301.365625 256.7705078125 301.7 256.55 302.0853515625 256.3740234375 302.2 255.95 302.320703125 255.584765625 302.1 255.2 301.9236328125 254.86484375 301.5 254.75 300.0373046875 254.3 298.6 253.85 298.198046875 253.729296875 297.8 253.9 297.4654296875 254.1125 297.35 254.5 297.2291015625 254.9013671875 297.4 255.25
M 295.4 253.1
Q 295.2173828125 252.74453125 294.8 252.6 293.375 252.1 291.9 251.6 291.5421875 251.4666015625 291.15 251.65 290.794140625 251.8333984375 290.65 252.2 290.5162109375 252.60859375 290.7 252.95 290.8826171875 253.3552734375 291.25 253.5 292.725 254 294.15 254.5 294.5578125 254.6333984375 294.9 254.45 295.305859375 254.266796875 295.45 253.85 295.5837890625 253.49140625 295.4 253.1
M 307.75 258.6
Q 308.1814453125 258.732421875 308.55 258.5 308.9125 258.3212890625 309 257.9 309.1328125 257.5189453125 308.9 257.15 308.7208984375 256.7876953125 308.3 256.65 306.875 256.275 305.4 255.85 305.0185546875 255.7673828125 304.65 255.95 304.2875 256.1787109375 304.15 256.55 304.0671875 256.98125 304.25 257.35 304.47890625 257.7123046875 304.85 257.8 306.325 258.225 307.75 258.6
M 319.15 259.2
Q 318.7751953125 259.1310546875 318.4 259.35 318.0712890625 259.5712890625 317.95 259.95 317.8806640625 260.375 318.1 260.7 318.32109375 261.078515625 318.7 261.15 320.2375 261.5251953125 321.75 261.8 322.1541015625 261.90546875 322.5 261.65 322.844140625 261.449609375 322.9 261.05 323.0060546875 260.6453125 322.75 260.3 322.5501953125 259.95625 322.15 259.85 320.6625 259.5748046875 319.15 259.2
M 315.75 258.75
Q 315.52890625 258.421484375 315.1 258.3 313.625 257.975 312.15 257.6 311.776953125 257.530859375 311.4 257.75 311.071875 257.9701171875 310.95 258.35 310.88046875 258.7734375 311.1 259.1 311.3197265625 259.477734375 311.7 259.55 313.1748046875 259.9248046875 314.65 260.25 315.0748046875 260.3689453125 315.4 260.15 315.77890625 259.92890625 315.85 259.5 315.9693359375 259.1251953125 315.75 258.75
M 278.05 246.35
Q 277.690234375 246.5244140625 277.5 246.9 277.3658203125 247.28671875 277.5 247.65 277.6755859375 248.0595703125 278.05 248.2 279.45 248.825 280.85 249.4 281.237890625 249.583984375 281.6 249.4 282.009765625 249.2755859375 282.15 248.9 282.3341796875 248.5134765625 282.15 248.1 282.0244140625 247.7404296875 281.65 247.55 280.25 246.975 278.85 246.35 278.462109375 246.2158203125 278.05 246.35
M 271.05 244.65
Q 271.195703125 245.0669921875 271.55 245.25 272.9248046875 245.9 274.3 246.55 274.7078125 246.7337890625 275.1 246.6 275.48125 246.4541015625 275.65 246.05 275.833984375 245.6931640625 275.7 245.3 275.553125 244.9189453125 275.15 244.75 273.775 244.0998046875 272.4 243.45 272.0564453125 243.2662109375 271.65 243.4 271.2828125 243.54453125 271.1 243.9 270.9162109375 244.2921875 271.05 244.65
M 266.15 240.25
Q 265.78671875 240.066796875 265.4 240.2 265.0115234375 240.32890625 264.8 240.7 264.6291015625 241.0625 264.75 241.45 264.8798828125 241.85078125 265.25 242.05 266.6 242.75 267.95 243.45 268.31328125 243.633203125 268.7 243.5 269.088671875 243.37109375 269.25 243 269.47109375 242.6376953125 269.35 242.25 269.2201171875 241.84921875 268.85 241.65 267.5 240.95 266.15 240.25
M 258.6 237.2
Q 258.4171875 237.55546875 258.5 237.95 258.63828125 238.3580078125 259 238.55 260.3123046875 239.3248046875 261.65 240.05 262.0328125 240.2697265625 262.4 240.15 262.8224609375 240.03671875 263 239.65 263.2205078125 239.3173828125 263.1 238.9 262.986328125 238.528125 262.6 238.3 261.2875 237.575 260 236.8 259.6431640625 236.6171875 259.25 236.7 258.8419921875 236.8369140625 258.6 237.2
M 247.45 229.1
Q 247.0515625 229.205078125 246.8 229.55 246.5943359375 229.8939453125 246.65 230.3 246.75625 230.6984375 247.1 230.9 248.35 231.775 249.6 232.6 249.9451171875 232.85546875 250.35 232.75 250.7486328125 232.694921875 250.95 232.35 251.2056640625 232.0060546875 251.1 231.6 251.04375 231.2015625 250.7 230.95 249.45 230.125 248.2 229.25 247.8548828125 229.0443359375 247.45 229.1
M 245.4 227.6
Q 245.3357421875 227.1958984375 245 226.95 243.8 226.05 242.6 225.15 242.2626953125 224.896484375 241.85 224.95 241.4453125 225.0134765625 241.2 225.35 240.94609375 225.68671875 241 226.1 241.0640625 226.5041015625 241.4 226.75 242.6 227.65 243.8 228.55 244.1373046875 228.8033203125 244.55 228.75 244.9546875 228.6865234375 245.2 228.35 245.45390625 228.01328125 245.4 227.6
M 254.05 233.2
Q 253.688671875 232.9814453125 253.25 233.05 252.873046875 233.157421875 252.65 233.5 252.4310546875 233.860546875 252.5 234.25 252.608203125 234.6765625 252.95 234.9 254.2123046875 235.7 255.5 236.5 255.8763671875 236.7189453125 256.25 236.6 256.679296875 236.528515625 256.9 236.15 257.11953125 235.8240234375 257 235.4 256.9279296875 235.02109375 256.55 234.8 255.2875 234 254.05 233.2
M 55.4 255.5
Q 55.1521484375 255.2185546875 54.75 255.2 54.3341796875 255.18828125 54 255.45 53.7185546875 255.746875 53.7 256.15 53.689453125 256.5658203125 53.95 256.85 55.0869140625 258.1009765625 56.25 259.2 56.557421875 259.5103515625 56.95 259.5 57.3880859375 259.4951171875 57.65 259.2 57.960546875 258.8935546875 57.95 258.45 57.944140625 258.0619140625 57.65 257.75 56.512890625 256.6990234375 55.4 255.5
M 52.95 253.2
Q 52.9734375 252.784765625 52.7 252.45 51.712890625 251.399609375 50.75 250.25 50.509765625 249.9474609375 50.1 249.9 49.691796875 249.860546875 49.35 250.1 49.047265625 250.389453125 49 250.8 48.961328125 251.2078125 49.2 251.5 50.187109375 252.700390625 51.2 253.8 51.4845703125 254.1310546875 51.9 254.15 52.315234375 254.1744140625 52.6 253.9 52.93125 253.6162109375 52.95 253.2
M 35.1 226.45
Q 34.7125 226.3291015625 34.35 226.5 33.97890625 226.7115234375 33.85 227.1 33.716796875 227.48671875 33.9 227.85 34.6123046875 229.2126953125 35.3 230.5 35.5267578125 230.8849609375 35.9 231 36.315234375 231.120703125 36.65 230.9 37.0353515625 230.7240234375 37.15 230.3 37.2701171875 229.93515625 37.05 229.55 36.3875 228.2873046875 35.7 226.95 35.50078125 226.5798828125 35.1 226.45
M 32.55 220.65
Q 32.3669921875 220.295703125 31.95 220.15 31.5921875 220.0162109375 31.2 220.2 30.84453125 220.3828125 30.7 220.75 30.5662109375 221.1564453125 30.75 221.5 31.4 222.875 32.05 224.2 32.2328125 224.604296875 32.6 224.75 33.0078125 224.8837890625 33.35 224.7 33.75546875 224.5171875 33.9 224.1 34.0337890625 223.743359375 33.85 223.35 33.2 222.025 32.55 220.65
M 29.65 214.3
Q 29.5095703125 213.9255859375 29.1 213.75 28.73671875 213.6158203125 28.35 213.75 27.9744140625 213.940234375 27.8 214.3 27.6658203125 214.712109375 27.8 215.1 28.425 216.5001953125 29 217.85 29.204296875 218.2259765625 29.6 218.35 29.9779296875 218.533984375 30.35 218.35 30.7271484375 218.195703125 30.85 217.8 31.033984375 217.4232421875 30.85 217.05 30.275 215.7 29.65 214.3
M 25.15 207.75
Q 25.016015625 208.1349609375 25.15 208.5 25.725 209.925 26.25 211.3 26.4236328125 211.70859375 26.8 211.85 27.1853515625 212.0341796875 27.55 211.85 27.9587890625 211.7265625 28.1 211.35 28.283984375 210.9650390625 28.1 210.55 27.575 209.175 27 207.75 26.8763671875 207.39140625 26.5 207.2 26.1146484375 207.0658203125 25.7 207.2 25.3412109375 207.3734375 25.15 207.75
M 24.15 201
Q 23.779296875 200.828515625 23.4 200.95 23.0177734375 201.121875 22.85 201.5 22.67890625 201.87109375 22.8 202.25 22.975 202.65 23.1 203.05
L 23.1 203
Q 23.4 203.875 23.7 204.7 23.8447265625 205.1169921875 24.2 205.3 24.5923828125 205.4837890625 24.95 205.35 25.3673828125 205.2052734375 25.55 204.8 25.73359375 204.4578125 25.6 204.05 25.3 203.225 25 202.35
L 24.95 202.35
Q 24.825 201.95 24.65 201.55 24.5275390625 201.1671875 24.15 201
M 45.1 244.5
Q 44.7900390625 244.74296875 44.7 245.15 44.6587890625 245.548046875 44.9 245.85 45.7998046875 247.1376953125 46.7 248.35 46.9458984375 248.6857421875 47.35 248.75 47.76328125 248.80390625 48.1 248.55 48.4365234375 248.3046875 48.5 247.9 48.5533203125 247.4873046875 48.3 247.15 47.3998046875 245.9623046875 46.5 244.7 46.25625 244.3900390625 45.85 244.3 45.451953125 244.2580078125 45.1 244.5
M 42.6 238.9
Q 42.37890625 238.5720703125 41.95 238.45 41.57578125 238.3806640625 41.2 238.6 40.871484375 238.820703125 40.75 239.2 40.6810546875 239.6234375 40.9 239.95 41.712109375 241.287890625 42.55 242.55 42.8015625 242.89375 43.2 242.95 43.6060546875 243.0556640625 43.95 242.8 44.294921875 242.5986328125 44.35 242.2 44.45546875 241.7951171875 44.2 241.45 43.387890625 240.212109375 42.6 238.9
M 40.6 236.3
Q 40.7197265625 235.8916015625 40.5 235.5 39.7625 234.287109375 39 233 38.8080078125 232.63828125 38.4 232.5 38.00546875 232.4171875 37.65 232.6 37.2869140625 232.8419921875 37.15 233.25 37.0671875 233.6431640625 37.25 234 38.0373046875 235.3125 38.8 236.55 39.006640625 236.926171875 39.4 237 39.7970703125 237.1197265625 40.15 236.9 40.51484375 236.693359375 40.6 236.3
M 138.85 258.75
Q 138.4392578125 258.753515625 138.15 259.05 137.5125 259.6869140625 136.85 260.25 136.56953125 260.5470703125 136.55 260.95 136.5384765625 261.366015625 136.8 261.65 137.0970703125 261.981640625 137.5 262 137.9150390625 262.0115234375 138.2 261.7 138.8873046875 261.1130859375 139.55 260.45 139.846484375 260.1607421875 139.85 259.75 139.846484375 259.3392578125 139.55 259.05 139.2607421875 258.753515625 138.85 258.75
M 142.4 257.7
Q 143.487890625 256.575390625 144.5 255.4 144.7744140625 255.0869140625 144.75 254.65 144.7171875 254.2681640625 144.4 254 144.087109375 253.7244140625 143.65 253.75 143.269140625 253.7828125 143 254.1 142.012109375 255.2244140625 140.95 256.3 140.6896484375 256.60703125 140.7 257 140.7048828125 257.4380859375 141 257.7 141.30625 258.010546875 141.7 258 142.1376953125 257.9943359375 142.4 257.7
M 147.1 252.35
Q 148.0751953125 251.237890625 149 250.05 149.2521484375 249.74140625 149.2 249.3 149.15078125 248.9232421875 148.8 248.65 148.4916015625 248.4095703125 148.05 248.45 147.6740234375 248.4994140625 147.4 248.8 146.537109375 249.962109375 145.6 251.05 145.325 251.3638671875 145.35 251.75 145.383203125 252.182421875 145.7 252.45 146.013671875 252.72578125 146.4 252.7 146.831640625 252.6666015625 147.1 252.35
M 157.1 238.4
Q 157.3189453125 238.0734375 157.2 237.65 157.128515625 237.270703125 156.75 237.05 156.4240234375 236.8306640625 156 236.9 155.62109375 237.0220703125 155.4 237.35 154.6 238.6623046875 153.8 239.9 153.5814453125 240.261328125 153.65 240.65 153.757421875 241.076953125 154.1 241.3 154.460546875 241.519140625 154.85 241.4 155.2765625 241.341796875 155.5 241 156.3 239.7375 157.1 238.4
M 150.8 247.25
Q 151.2041015625 247.1857421875 151.45 246.85 152.362890625 245.625390625 153.2 244.35 153.45546875 244.0048828125 153.35 243.6 153.294921875 243.2015625 152.95 242.95 152.6060546875 242.7443359375 152.2 242.8 151.8015625 242.90625 151.55 243.25 150.737109375 244.474609375 149.85 245.65 149.596484375 245.9873046875 149.65 246.4 149.7134765625 246.8046875 150.05 247.05 150.38671875 247.30390625 150.8 247.25
M 159.15 235.05
Q 159.925 233.75 160.65 232.45 160.8826171875 232.0931640625 160.75 231.7 160.662890625 231.2919921875 160.3 231.05 159.94453125 230.8671875 159.55 230.95 159.1419921875 231.08828125 158.9 231.45 158.175 232.75 157.4 234.05 157.2171875 234.4068359375 157.3 234.8 157.4369140625 235.208203125 157.8 235.4 158.15546875 235.6328125 158.55 235.5 158.9580078125 235.4115234375 159.15 235.05
M 160.8 228
Q 160.6298828125 228.38515625 160.75 228.75 160.8646484375 229.1740234375 161.2 229.35 161.584765625 229.570703125 161.95 229.45 162.3732421875 229.3349609375 162.55 228.95 163.2875 227.6626953125 164 226.3 164.183203125 225.93671875 164.05 225.55 163.92109375 225.1615234375 163.55 224.95 163.1876953125 224.7791015625 162.8 224.9 162.39921875 225.0298828125 162.2 225.4 161.5123046875 226.7373046875 160.8 228
M 90.3 103.8
Q 89.943359375 103.6662109375 89.55 103.85 88.225 104.5 86.85 105.15 86.495703125 105.3328125 86.35 105.7 86.2162109375 106.1078125 86.4 106.45 86.5828125 106.85546875 86.95 107 87.3564453125 107.1337890625 87.7 106.95 89.075 106.3 90.4 105.65 90.804296875 105.4669921875 90.95 105.05 91.0837890625 104.6921875 90.9 104.3 90.7171875 103.94453125 90.3 103.8
M 96.8 102.8
Q 97.1744140625 102.6595703125 97.3 102.25 97.4841796875 101.88671875 97.3 101.5 97.159765625 101.1244140625 96.75 100.95 96.387890625 100.8158203125 96 100.95 94.5998046875 101.575 93.25 102.15 92.8740234375 102.354296875 92.7 102.75 92.566015625 103.1279296875 92.7 103.5 92.9041015625 103.8771484375 93.3 104 93.6767578125 104.183984375 94.05 104 95.4 103.425 96.8 102.8
M 20.45 194.45
Q 20.26640625 194.8267578125 20.4 195.2 20.9 196.725 21.4 198.2 21.5302734375 198.61484375 21.9 198.8 22.2771484375 198.98359375 22.65 198.85 23.065234375 198.7197265625 23.25 198.35 23.4333984375 197.973046875 23.3 197.55 22.8 196.075 22.3 194.55 22.16953125 194.1849609375 21.8 194 21.4228515625 193.81640625 21 193.95 20.634765625 194.0802734375 20.45 194.45
M 18.3 188.55
Q 18.699609375 189.987109375 19.15 191.45 19.265625 191.8369140625 19.6 192 19.9986328125 192.2208984375 20.4 192.1 20.7876953125 191.984375 20.95 191.6 21.170703125 191.251953125 21.05 190.85 20.6001953125 189.4126953125 20.2 188 20.0865234375 187.6279296875 19.7 187.4 19.3673828125 187.2294921875 18.95 187.35 18.5775390625 187.46328125 18.35 187.8 18.1796875 188.1822265625 18.3 188.55
M 18.25 181.2
Q 18.1623046875 180.82890625 17.8 180.6 17.43125 180.4171875 17 180.5 16.6287109375 180.6375 16.4 181 16.2173828125 181.3685546875 16.3 181.75 16.725 183.2125 17.1 184.7 17.23671875 185.107421875 17.6 185.3 17.955078125 185.5326171875 18.35 185.4 18.7576171875 185.3134765625 18.95 184.95 19.182421875 184.5953125 19.05 184.2 18.6748046875 182.6873046875 18.25 181.2
M 17.1 178.05
Q 17.3189453125 177.7248046875 17.2 177.3 16.8748046875 175.8248046875 16.5 174.35 16.427734375 173.9697265625 16.05 173.75 15.7234375 173.53046875 15.3 173.6 14.9201171875 173.721875 14.7 174.05 14.480859375 174.426953125 14.55 174.8 14.925 176.275 15.25 177.75 15.371484375 178.17890625 15.7 178.4 16.0751953125 178.6193359375 16.45 178.5 16.87890625 178.42890625 17.1 178.05
M 14.7 166.85
Q 14.3837890625 166.644921875 13.95 166.7 13.5662109375 166.791015625 13.3 167.1 13.0953125 167.466796875 13.15 167.85 13.424609375 169.3373046875 13.7 170.85 13.80625 171.2501953125 14.15 171.45 14.4953125 171.7060546875 14.9 171.6 15.299609375 171.544140625 15.5 171.2 15.75546875 170.8541015625 15.65 170.45 15.3751953125 168.9626953125 15.1 167.5 15.0583984375 167.115625 14.7 166.85
M 15.1 157.25
Q 14.187109375 158.5375 13.3 159.8 13.0943359375 160.1451171875 13.15 160.55 13.255078125 160.9486328125 13.6 161.15 13.9439453125 161.4056640625 14.35 161.3 14.7484375 161.24375 14.95 160.9 15.8125 159.6625 16.7 158.4 16.9412109375 158.098046875 16.85 157.7 16.81015625 157.29296875 16.45 157.05 16.148046875 156.8080078125 15.75 156.85 15.34375 156.9400390625 15.1 157.25
M 21.3 152.25
Q 21.2671875 151.8681640625 20.95 151.6 20.637109375 151.3244140625 20.2 151.35 19.819140625 151.3828125 19.55 151.7 18.537109375 152.8623046875 17.55 154 17.311328125 154.3421875 17.35 154.75 17.397265625 155.160546875 17.7 155.4 18.041796875 155.6892578125 18.45 155.65 18.859765625 155.60234375 19.1 155.25 20.0626953125 154.1373046875 21.05 153 21.3244140625 152.6869140625 21.3 152.25
M 36.3 138.7
Q 36.6505859375 138.4755859375 36.7 138.05 36.740234375 137.6576171875 36.45 137.3 36.226171875 136.998828125 35.8 136.95 35.408203125 136.91015625 35.05 137.15 33.8748046875 138.1248046875 32.7 139.05 32.3974609375 139.340234375 32.35 139.75 32.310546875 140.1580078125 32.55 140.45 32.839453125 140.802734375 33.25 140.85 33.6578125 140.8884765625 33.95 140.6 35.125 139.6748046875 36.3 138.7
M 28 145.45
Q 28.4150390625 145.4734375 28.7 145.2 29.8126953125 144.2001953125 30.95 143.2 31.2669921875 142.930859375 31.3 142.5 31.3255859375 142.1130859375 31.05 141.8 30.7818359375 141.4828125 30.35 141.45 29.9630859375 141.425390625 29.65 141.7 28.4873046875 142.7 27.35 143.7 27.0689453125 143.9845703125 27.05 144.4 27.0255859375 144.815234375 27.3 145.1 27.5837890625 145.43125 28 145.45
M 25.15 146.25
Q 24.75703125 146.2396484375 24.45 146.5 23.3365234375 147.5875 22.3 148.65 22.0400390625 148.95703125 22.05 149.35 22.0548828125 149.7880859375 22.35 150.05 22.6564453125 150.3607421875 23.05 150.35 23.4873046875 150.3447265625 23.75 150.05 24.7630859375 149.0125 25.85 147.95 26.1443359375 147.6876953125 26.15 147.25 26.160546875 146.85625 25.85 146.55 25.5880859375 146.2548828125 25.15 146.25
M 41.8 134.45
Q 42.1357421875 134.2041015625 42.2 133.8 42.25390625 133.38671875 42 133.05 41.7546875 132.7134765625 41.35 132.65 40.9373046875 132.596484375 40.6 132.85 39.387109375 133.7625 38.2 134.65 37.8994140625 134.9240234375 37.85 135.3 37.8095703125 135.7416015625 38.05 136.05 38.3232421875 136.40078125 38.7 136.45 39.14140625 136.5021484375 39.45 136.25 40.6126953125 135.35 41.8 134.45
M 47.05 128.55
Q 46.6451171875 128.4943359375 46.3 128.7 45.0373046875 129.575 43.8 130.4 43.491015625 130.6673828125 43.4 131.05 43.3451171875 131.4841796875 43.55 131.8 43.816796875 132.159375 44.2 132.2 44.633984375 132.304296875 44.95 132.05 46.1626953125 131.225 47.4 130.35 47.74375 130.1484375 47.8 129.75 47.9056640625 129.3439453125 47.65 129 47.4486328125 128.655078125 47.05 128.55
M 50.7 128.1
Q 51.95 127.2876953125 53.2 126.4 53.54375 126.1984375 53.6 125.8 53.7056640625 125.3939453125 53.45 125.05 53.2486328125 124.705078125 52.85 124.6 52.4451171875 124.5443359375 52.1 124.75 50.85 125.612109375 49.6 126.4 49.258203125 126.6234375 49.15 127 49.0810546875 127.4392578125 49.3 127.8 49.523046875 128.142578125 49.9 128.2 50.338671875 128.3185546875 50.7 128.1
M 58.8 120.8
Q 58.4263671875 120.7310546875 58.05 120.95 56.775 121.75 55.45 122.55 55.1220703125 122.77109375 55 123.15 54.9306640625 123.5740234375 55.15 123.9 55.370703125 124.278515625 55.75 124.35 56.1734375 124.4689453125 56.5 124.25 57.825 123.45 59.1 122.65 59.4779296875 122.42890625 59.55 122 59.66953125 121.62578125 59.45 121.25 59.229296875 120.921484375 58.8 120.8
M 65.5 116.85
Q 65.1068359375 116.7671875 64.75 116.95 63.4375 117.7373046875 62.1 118.55 61.7720703125 118.77109375 61.65 119.15 61.5806640625 119.5740234375 61.8 119.9 62.020703125 120.278515625 62.4 120.35 62.8234375 120.4689453125 63.15 120.25 64.4625 119.4625 65.75 118.7 66.1115234375 118.5080078125 66.2 118.1 66.3328125 117.70546875 66.1 117.35 65.908203125 116.9869140625 65.5 116.85
M 70.8 113.45
Q 69.5 114.225 68.2 114.95 67.83828125 115.1919921875 67.7 115.6 67.6171875 115.99453125 67.8 116.35 68.0419921875 116.712890625 68.45 116.8 68.8431640625 116.9326171875 69.2 116.7 70.5 115.975 71.8 115.2 72.1615234375 115.0080078125 72.25 114.6 72.3828125 114.20546875 72.15 113.85 71.958203125 113.4869140625 71.55 113.35 71.1568359375 113.2671875 70.8 113.45
M 80.1 109.6
Q 80.3115234375 109.97109375 80.7 110.1 81.08671875 110.233203125 81.45 110.05 82.7875 109.3501953125 84.1 108.7 84.504296875 108.5169921875 84.65 108.1 84.7837890625 107.7421875 84.6 107.35 84.4171875 106.99453125 84 106.85 83.643359375 106.7162109375 83.25 106.9 81.9125 107.5498046875 80.55 108.25 80.1798828125 108.44921875 80.05 108.85 79.9291015625 109.2376953125 80.1 109.6
M 77.75 110.05
Q 77.36328125 109.916796875 77 110.1 75.6373046875 110.8123046875 74.3 111.5 73.96484375 111.7267578125 73.85 112.1 73.729296875 112.515234375 73.9 112.85 74.126171875 113.2353515625 74.5 113.35 74.91484375 113.4701171875 75.25 113.25 76.5626953125 112.5875 77.9 111.9 78.2701171875 111.70078125 78.4 111.3 78.52109375 110.9125 78.3 110.55 78.138671875 110.17890625 77.75 110.05
M 145.7 84.95
Q 145.8375 85.3712890625 146.2 85.55 146.5685546875 85.782421875 146.95 85.65 148.4 85.2751953125 149.8 84.9 150.2302734375 84.827734375 150.45 84.45 150.66953125 84.1234375 150.55 83.7 150.478125 83.3201171875 150.1 83.1 149.773046875 82.880859375 149.35 82.95 147.8998046875 83.324609375 146.4 83.7 146.02890625 83.8376953125 145.8 84.2 145.6171875 84.5689453125 145.7 84.95
M 152.95 83.85
Q 153.326953125 84.069140625 153.7 83.95 155.175 83.625 156.6 83.25 157.0302734375 83.177734375 157.25 82.8 157.46953125 82.4734375 157.35 82.05 157.278125 81.6701171875 156.9 81.45 156.573046875 81.230859375 156.15 81.3 154.725 81.675 153.25 82 152.8697265625 82.122265625 152.65 82.45 152.43046875 82.8265625 152.5 83.2 152.621875 83.6298828125 152.95 83.85
M 136.9 88.1
Q 137.1328125 87.73125 137 87.3 136.9125 86.9287109375 136.55 86.7 136.1814453125 86.5173828125 135.75 86.6 134.3125 87.0373046875 132.85 87.5 132.4630859375 87.615625 132.25 87.95 132.0791015625 88.3486328125 132.2 88.75 132.3154296875 89.1376953125 132.65 89.3 133.048046875 89.520703125 133.45 89.4 134.8875 88.9626953125 136.3 88.55 136.7208984375 88.4623046875 136.9 88.1
M 129.75 88.75
Q 129.401953125 88.579296875 129 88.7 127.55 89.15 126.1 89.6 125.7130859375 89.715625 125.5 90.05 125.3291015625 90.4486328125 125.45 90.85 125.5654296875 91.2376953125 125.9 91.4 126.298046875 91.620703125 126.7 91.5 128.15 91.05 129.6 90.6 129.9869140625 90.484375 130.15 90.1 130.3708984375 89.7513671875 130.25 89.35 130.134375 88.9625 129.75 88.75
M 139.6 85.5
Q 139.22890625 85.6376953125 139 86 138.8171875 86.3689453125 138.9 86.75 139.0375 87.1712890625 139.4 87.35 139.7685546875 87.582421875 140.15 87.45 141.625 87.075 143.05 86.65 143.4708984375 86.5623046875 143.65 86.2 143.8828125 85.83125 143.75 85.4 143.6625 85.0287109375 143.3 84.8 142.9314453125 84.6173828125 142.5 84.7 141.075 85.125 139.6 85.5
M 116.35 93.25
Q 116.00703125 93.0662109375 115.6 93.2 114.225 93.7 112.8 94.2 112.4322265625 94.3453125 112.25 94.7 112.066015625 95.09296875 112.2 95.45 112.3451171875 95.8677734375 112.7 96.05 113.09296875 96.23359375 113.45 96.1 114.875 95.6 116.25 95.1 116.667578125 94.9546875 116.85 94.55 117.033984375 94.20703125 116.9 93.8 116.7548828125 93.4322265625 116.35 93.25
M 119.4 91.85
Q 119.0322265625 91.9953125 118.85 92.35 118.666015625 92.74296875 118.8 93.1 118.9451171875 93.5177734375 119.3 93.7 119.69296875 93.88359375 120.05 93.75 121.475 93.25 122.9 92.75 123.3173828125 92.6052734375 123.5 92.2 123.6837890625 91.85859375 123.55 91.45 123.405859375 91.0833984375 123 90.9 122.6578125 90.7166015625 122.25 90.85 120.8248046875 91.35 119.4 91.85
M 106.2 96.7
Q 105.84140625 96.8736328125 105.65 97.25 105.5158203125 97.6353515625 105.65 98 105.8234375 98.4087890625 106.2 98.55 106.5849609375 98.733984375 106.95 98.55 108.375 98.025 109.75 97.45 110.15859375 97.3263671875 110.3 96.95 110.4841796875 96.5646484375 110.3 96.15 110.1765625 95.7912109375 109.8 95.6 109.4150390625 95.466015625 109 95.6 107.625 96.175 106.2 96.7
M 103.3 98.2
Q 102.9150390625 98.066015625 102.5 98.2 101.1125 98.774609375 99.7 99.35 99.3255859375 99.5404296875 99.15 99.9 99.0158203125 100.3134765625 99.15 100.7 99.340234375 101.0755859375 99.7 101.2 100.112109375 101.383984375 100.5 101.2 101.8875 100.6251953125 103.25 100.05 103.65859375 99.9263671875 103.8 99.55 103.9841796875 99.1646484375 103.8 98.75 103.6765625 98.3912109375 103.3 98.2
M 210.95 196.7
Q 210.91015625 197.141796875 211.15 197.45 212.137109375 198.687890625 213.15 199.85 213.419140625 200.1669921875 213.8 200.2 214.237109375 200.2255859375 214.55 199.95 214.8671875 199.6818359375 214.9 199.25 214.9244140625 198.8630859375 214.65 198.55 213.662890625 197.412109375 212.7 196.2 212.4755859375 195.8994140625 212.05 195.85 211.6576171875 195.809765625 211.3 196.05 210.998828125 196.323828125 210.95 196.7
M 208.35 190.65
Q 208.1041015625 190.3140625 207.7 190.25 207.28671875 190.19609375 206.95 190.45 206.6134765625 190.6953125 206.55 191.1 206.496484375 191.5126953125 206.75 191.85 207.6623046875 193.0625 208.6 194.25 208.8744140625 194.6005859375 209.25 194.65 209.6923828125 194.690234375 210 194.4 210.351171875 194.176171875 210.4 193.75 210.43984375 193.358203125 210.15 193 209.2376953125 191.8375 208.35 190.65
M 203.65 184.45
Q 203.2439453125 184.3943359375 202.9 184.6 202.555078125 184.8515625 202.45 185.25 202.3943359375 185.6548828125 202.6 186 203.475 187.25 204.3 188.5 204.5515625 188.84375 204.95 188.9 205.3560546875 189.0056640625 205.7 188.75 206.044921875 188.5486328125 206.1 188.15 206.20546875 187.7451171875 205.95 187.4 205.125 186.15 204.25 184.9 204.0484375 184.55625 203.65 184.45
M 200.45 178.9
Q 200.22890625 178.5720703125 199.8 178.45 199.42578125 178.3806640625 199.05 178.6 198.721484375 178.820703125 198.6 179.2 198.5310546875 179.6234375 198.75 179.95 199.55 181.275 200.35 182.55 200.57109375 182.9279296875 200.95 183 201.3740234375 183.11953125 201.7 182.9 202.078515625 182.679296875 202.15 182.25 202.2689453125 181.8763671875 202.05 181.5 201.25 180.225 200.45 178.9
M 175.7 192.75
Q 175.3296875 192.948046875 175.2 193.35 174.75 194.7498046875 174.3 196.2 174.179296875 196.601953125 174.35 196.95 174.5625 197.334375 174.95 197.45 175.3513671875 197.5708984375 175.7 197.35 176.084375 197.1869140625 176.2 196.8 176.65 195.35 177.1 193.95 177.233203125 193.5634765625 177.05 193.2 176.8515625 192.829296875 176.45 192.7 176.0630859375 192.56640625 175.7 192.75
M 177.85 190.7
Q 178.234375 190.5369140625 178.35 190.15 178.8 188.7 179.25 187.25 179.370703125 186.848046875 179.15 186.45 178.9876953125 186.1154296875 178.6 186 178.1986328125 185.8791015625 177.8 186.05 177.465625 186.2630859375 177.35 186.65 176.9 188.1 176.45 189.55 176.329296875 189.951953125 176.5 190.3 176.7125 190.684375 177.1 190.8 177.5013671875 190.9208984375 177.85 190.7
M 180.5 179.15
Q 180.1189453125 179.0671875 179.75 179.25 179.3876953125 179.47890625 179.25 179.85 178.875 181.3373046875 178.45 182.85 178.367578125 183.2453125 178.55 183.6 178.7923828125 183.9634765625 179.2 184.05 179.5951171875 184.1826171875 179.95 183.95 180.31328125 183.757421875 180.4 183.35 180.8248046875 181.8625 181.2 180.4 181.332421875 180.0185546875 181.1 179.65 180.9212890625 179.2875 180.5 179.15
M 182.05 172.3
Q 181.64609375 172.2439453125 181.3 172.45 180.9564453125 172.6998046875 180.85 173.1 180.5748046875 174.5376953125 180.2 176 180.1310546875 176.4248046875 180.35 176.75 180.5712890625 177.12890625 180.95 177.2 181.375 177.3193359375 181.7 177.1 182.078515625 176.87890625 182.15 176.45 182.5251953125 174.9623046875 182.8 173.5 182.905859375 173.0958984375 182.65 172.75 182.450390625 172.40625 182.05 172.3
M 195.75 172.3
Q 195.4146484375 172.526171875 195.3 172.9 195.1798828125 173.31484375 195.35 173.65
L 196.75 176.25
Q 196.9767578125 176.6349609375 197.35 176.75 197.765234375 176.870703125 198.1 176.65 198.4853515625 176.4740234375 198.6 176.05 198.7201171875 175.68515625 198.5 175.3
L 197.1 172.7
Q 196.9232421875 172.36484375 196.5 172.25 196.134765625 172.129296875 195.75 172.3
M 192 166.8
Q 191.8798828125 167.21484375 192.05 167.55
L 193.45 170.15
Q 193.6767578125 170.5349609375 194.05 170.65 194.465234375 170.770703125 194.8 170.55 195.1853515625 170.3740234375 195.3 169.95 195.4201171875 169.58515625 195.2 169.2
L 193.8 166.6
Q 193.6232421875 166.26484375 193.2 166.15 192.834765625 166.029296875 192.45 166.2 192.1146484375 166.426171875 192 166.8
M 216.05 71.65
Q 215.6392578125 71.6978515625 215.35 72 215.110546875 72.342578125 215.15 72.75 215.19765625 73.1611328125 215.5 73.4 215.8419921875 73.6892578125 216.25 73.65 217.75 73.5 219.25 73.35 219.6607421875 73.301953125 219.9 72.95 220.1896484375 72.657421875 220.15 72.25 220.10234375 71.8388671875 219.75 71.55 219.4578125 71.3107421875 219.05 71.35 217.55 71.5 216.05 71.65
M 208.05 73.45
Q 208.09765625 73.8611328125 208.4 74.1 208.7419921875 74.3892578125 209.15 74.35 210.65 74.1998046875 212.2 74.05 212.61171875 74.001953125 212.85 73.65 213.139453125 73.357421875 213.1 72.95 213.05234375 72.5388671875 212.7 72.25 212.4068359375 72.0107421875 212 72.05 210.45 72.2 208.95 72.35 208.5392578125 72.3978515625 208.25 72.7 208.010546875 73.042578125 208.05 73.45
M 229.55 72
Q 229.86484375 72.2759765625 230.25 72.25 232.125 72.1 233.95 71.95 234.38359375 71.9158203125 234.65 71.6 234.926171875 71.28515625 234.9 70.85 234.8662109375 70.46640625 234.55 70.2 234.23515625 69.9240234375 233.8 69.95 231.975 70.1 230.1 70.25 229.71640625 70.283984375 229.45 70.6 229.173828125 70.91484375 229.2 71.3 229.2337890625 71.7337890625 229.55 72
M 227.2 71.55
Q 227.15234375 71.1388671875 226.8 70.85 226.5068359375 70.6107421875 226.1 70.65 224.55 70.8 223.05 70.95 222.6392578125 70.9978515625 222.35 71.3 222.110546875 71.642578125 222.15 72.05 222.19765625 72.4611328125 222.5 72.7 222.8419921875 72.9892578125 223.25 72.95 224.75 72.7998046875 226.3 72.65 226.71171875 72.601953125 226.95 72.25 227.239453125 71.957421875 227.2 71.55
M 192.05 75.6
Q 191.987109375 75.208984375 191.65 74.95 191.326953125 74.6966796875 190.9 74.75 189.4 74.962109375 187.85 75.2 187.4802734375 75.290625 187.25 75.6 187.0076171875 75.9650390625 187.05 76.35 187.1404296875 76.7701171875 187.45 77 187.8146484375 77.2421875 188.2 77.15 189.6998046875 76.9376953125 191.15 76.75 191.5912109375 76.68671875 191.85 76.35 192.1037109375 76.0271484375 192.05 75.6
M 163.85 79.9
Q 163.5041015625 79.6943359375 163.1 79.75 161.587109375 80.074609375 160.1 80.4 159.7197265625 80.522265625 159.5 80.85 159.28046875 81.2265625 159.35 81.6 159.471875 82.0298828125 159.8 82.25 160.176953125 82.469140625 160.55 82.35 162.0126953125 82.025390625 163.5 81.7 163.9001953125 81.64375 164.1 81.3 164.3560546875 80.9546875 164.25 80.55 164.194140625 80.1501953125 163.85 79.9
M 170.7 78.5
Q 170.3541015625 78.294140625 169.95 78.35 168.5 78.675 167.05 78.95 166.6498046875 79.0564453125 166.4 79.4 166.1939453125 79.74609375 166.25 80.15 166.35625 80.550390625 166.7 80.75 167.0458984375 81.005859375 167.45 80.9 168.9 80.625 170.35 80.3 170.75 80.2435546875 170.95 79.9 171.2060546875 79.55390625 171.1 79.15 171.04375 78.749609375 170.7 78.5
M 180.45 78.15
Q 180.8146484375 78.3921875 181.2 78.3 182.725 78.075 184.2 77.8 184.6197265625 77.759375 184.85 77.4 185.0923828125 77.0849609375 185 76.65 184.9595703125 76.2798828125 184.6 76.05 184.2853515625 75.8078125 183.85 75.85 182.375 76.125 180.85 76.35 180.4802734375 76.440625 180.25 76.75 180.0076171875 77.1150390625 180.05 77.5 180.1404296875 77.9201171875 180.45 78.15
M 178.05 77.85
Q 178.0095703125 77.4798828125 177.65 77.25 177.3353515625 77.0078125 176.9 77.05 175.4125 77.324609375 173.9 77.6 173.4998046875 77.70625 173.25 78.05 173.0439453125 78.3953125 173.1 78.8 173.205859375 79.199609375 173.55 79.4 173.8958984375 79.65546875 174.3 79.55 175.7875 79.2751953125 177.25 79 177.6697265625 78.959375 177.9 78.6 178.1423828125 78.2849609375 178.05 77.85
M 197.85 73.75
Q 196.375 73.95 194.85 74.15 194.4587890625 74.2130859375 194.2 74.55 193.946484375 74.87265625 194 75.25 194.062890625 75.691015625 194.4 75.95 194.7228515625 76.2033203125 195.1 76.15 196.625 75.95 198.1 75.75 198.5412109375 75.68671875 198.8 75.35 199.0537109375 75.0271484375 199 74.6 198.937109375 74.208984375 198.6 73.95 198.276953125 73.6966796875 197.85 73.75
M 201.9 73.25
Q 201.5087890625 73.3130859375 201.25 73.65 200.996484375 73.97265625 201.05 74.35 201.112890625 74.791015625 201.45 75.05 201.7728515625 75.3033203125 202.15 75.25 203.675 75.05 205.15 74.85 205.5912109375 74.78671875 205.85 74.45 206.1037109375 74.1271484375 206.05 73.7 205.987109375 73.308984375 205.65 73.05 205.326953125 72.7966796875 204.9 72.85 203.425 73.05 201.9 73.25
M 316.25 71.6
Q 316.553125 71.9154296875 316.95 71.95 319.325 72.15 321.65 72.35 322.084375 72.3884765625 322.4 72.1 322.7158203125 71.846875 322.75 71.4 322.7888671875 71.0154296875 322.5 70.7 322.246875 70.3845703125 321.8 70.35 319.475 70.15 317.1 69.95 316.715625 69.9115234375 316.4 70.15 316.0841796875 70.453125 316.05 70.85 316.0111328125 71.2845703125 316.25 71.6
M 502.4 211.8
Q 502.396484375 211.3892578125 502.1 211.1 501.8107421875 210.803515625 501.4 210.8 500.9892578125 210.803515625 500.7 211.1 499.649609375 212.1375 498.55 213.15 498.2556640625 213.4623046875 498.25 213.85 498.2392578125 214.2935546875 498.5 214.6 498.8119140625 214.8951171875 499.2 214.9 499.6427734375 214.91015625 499.95 214.6 501.0501953125 213.5625 502.1 212.5 502.396484375 212.2107421875 502.4 211.8
M 493.95 219.6
Q 494.3869140625 219.6244140625 494.7 219.35 495.8626953125 218.3501953125 496.95 217.35 497.2810546875 217.065234375 497.3 216.65 497.3244140625 216.234765625 497.05 215.9 496.7662109375 215.61875 496.35 215.6 495.934765625 215.5765625 495.6 215.85 494.5373046875 216.85 493.4 217.85 493.0828125 218.119140625 493.05 218.5 493.0244140625 218.937109375 493.3 219.25 493.5681640625 219.5671875 493.95 219.6
M 490.35 220.35
Q 489.225 221.325 488.05 222.25 487.7474609375 222.540234375 487.7 222.95 487.660546875 223.3580078125 487.9 223.65 488.189453125 224.002734375 488.6 224.05 489.0078125 224.0884765625 489.3 223.8 490.475 222.875 491.6 221.9 491.95234375 221.659765625 492 221.25 492.0392578125 220.841796875 491.75 220.5 491.510546875 220.197265625 491.1 220.15 490.6921875 220.111328125 490.35 220.35
M 506.75 207.75
Q 506.9 207.6 507.05 207.45 507.346484375 207.1607421875 507.35 206.75 507.346484375 206.3392578125 507.05 206.05 506.7607421875 205.753515625 506.35 205.75 505.9392578125 205.753515625 505.65 206.05 505.5 206.2 505.35 206.35
L 505.3 206.35
Q 504.425 207.3 503.5 208.25 503.239453125 208.5580078125 503.25 208.95 503.267578125 209.388671875 503.55 209.65 503.86953125 209.9609375 504.25 209.95 504.6884765625 209.9439453125 504.95 209.65 505.875 208.7 506.75 207.75
L 506.75 207.75
M 511.75 202.3
Q 512.0244140625 201.9869140625 512 201.55 511.9671875 201.1681640625 511.65 200.9 511.337109375 200.6244140625 510.9 200.65 510.519140625 200.6828125 510.25 201 509.2498046875 202.1375 508.2 203.25 507.9259765625 203.5853515625 507.95 204 507.96875 204.4162109375 508.25 204.7 508.5845703125 204.9744140625 509 204.95 509.415625 204.93046875 509.7 204.6 510.75 203.4625 511.75 202.3
M 410.25 259.05
Q 409.9248046875 258.8310546875 409.5 258.9 408.0373046875 259.2748046875 406.55 259.55 406.1498046875 259.65625 405.9 260 405.6939453125 260.3453125 405.75 260.75 405.855859375 261.149609375 406.2 261.35 406.5458984375 261.60546875 406.95 261.5 408.4623046875 261.2251953125 409.95 260.85 410.37890625 260.778515625 410.6 260.4 410.8193359375 260.075 410.7 259.65 410.62890625 259.2712890625 410.25 259.05
M 417.25 257.3
Q 416.8953125 257.117578125 416.5 257.2 415.0125 257.624609375 413.5 257.95 413.12109375 258.071484375 412.9 258.4 412.6806640625 258.7751953125 412.75 259.15 412.8712890625 259.57890625 413.2 259.8 413.5751953125 260.0189453125 413.95 259.9 415.4875 259.5751953125 417 259.15 417.407421875 259.06328125 417.6 258.7 417.8326171875 258.3451171875 417.7 257.95 417.6134765625 257.5423828125 417.25 257.3
M 419.65 256.7
Q 419.4671875 257.0689453125 419.55 257.45 419.6875 257.8712890625 420.05 258.05 420.4185546875 258.282421875 420.8 258.15 422.275 257.7625 423.65 257.35 424.0720703125 257.2365234375 424.25 256.85 424.4705078125 256.5173828125 424.35 256.1 424.23671875 255.7275390625 423.85 255.5 423.5177734375 255.3296875 423.1 255.45 421.7248046875 255.8373046875 420.25 256.2 419.87890625 256.3376953125 419.65 256.7
M 426.8 256.15
Q 427.1634765625 256.333203125 427.55 256.2 428.95 255.75 430.35 255.3 430.751953125 255.1703125 430.95 254.8 431.13359375 254.4369140625 431 254.05 430.870703125 253.6484375 430.5 253.45 430.136328125 253.266796875 429.75 253.4 428.35 253.85 426.95 254.3 426.548046875 254.4296875 426.35 254.8 426.16640625 255.1630859375 426.3 255.55 426.429296875 255.9515625 426.8 256.15
M 436.95 253.05
Q 437.367578125 252.9046875 437.55 252.5 437.733984375 252.15703125 437.6 251.75 437.4548828125 251.3822265625 437.05 251.2 436.70703125 251.0162109375 436.3 251.15 434.9248046875 251.65 433.45 252.15 433.0826171875 252.29453125 432.9 252.65 432.7162109375 253.04140625 432.85 253.4 432.994140625 253.816796875 433.35 254 433.7421875 254.1833984375 434.1 254.05 435.575 253.55 436.95 253.05
M 440.7 251.6
Q 442.125 251.075 443.5 250.5 443.90859375 250.3763671875 444.05 250 444.2341796875 249.6146484375 444.05 249.2 443.9265625 248.8412109375 443.55 248.65 443.1650390625 248.516015625 442.75 248.65 441.375 249.225 439.95 249.75 439.59140625 249.9236328125 439.4 250.3 439.2658203125 250.6853515625 439.4 251.05 439.5734375 251.4587890625 439.95 251.6 440.3349609375 251.783984375 440.7 251.6
M 471.05 234.3
Q 470.708203125 234.5234375 470.6 234.9 470.5310546875 235.3392578125 470.75 235.7 470.973046875 236.042578125 471.35 236.1 471.788671875 236.2185546875 472.15 236 473.4 235.2 474.65 234.4 474.991796875 234.1765625 475.05 233.75 475.169140625 233.360546875 474.95 233 474.726953125 232.657421875 474.3 232.55 473.911328125 232.4814453125 473.55 232.7 472.3 233.5 471.05 234.3
M 480.1 228.65
Q 479.6951171875 228.5943359375 479.35 228.8 478.1 229.675 476.85 230.5 476.50625 230.7515625 476.4 231.15 476.3443359375 231.5560546875 476.55 231.9 476.8015625 232.244921875 477.2 232.3 477.6048828125 232.40546875 477.95 232.15 479.2 231.325 480.45 230.45 480.79375 230.2484375 480.85 229.85 480.9556640625 229.4439453125 480.7 229.1 480.4986328125 228.755078125 480.1 228.65
M 484.95 224.7
Q 483.75 225.6 482.55 226.5 482.2140625 226.7458984375 482.15 227.15 482.09609375 227.56328125 482.35 227.9 482.5953125 228.2365234375 483 228.3 483.4126953125 228.3533203125 483.75 228.1 484.95 227.2 486.15 226.3 486.4857421875 226.0541015625 486.55 225.65 486.60390625 225.23671875 486.35 224.9 486.1046875 224.5634765625 485.7 224.5 485.2873046875 224.446484375 484.95 224.7
M 464.7 239.25
Q 464.9419921875 239.612890625 465.35 239.7 465.7431640625 239.8326171875 466.1 239.6 467.4 238.875 468.7 238.1 469.0615234375 237.9080078125 469.15 237.5 469.2828125 237.10546875 469.05 236.75 468.858203125 236.3869140625 468.45 236.25 468.0568359375 236.1671875 467.7 236.35 466.4 237.125 465.1 237.85 464.73828125 238.0919921875 464.6 238.5 464.5171875 238.89453125 464.7 239.25
M 462.35 239.75
Q 461.98515625 239.6298828125 461.6 239.8 460.3373046875 240.5123046875 459 241.2 458.6298828125 241.39921875 458.5 241.8 458.3791015625 242.1876953125 458.55 242.55 458.7615234375 242.92109375 459.15 243.05 459.53671875 243.183203125 459.9 243 461.2626953125 242.2875 462.55 241.55 462.9349609375 241.3732421875 463.05 240.95 463.170703125 240.584765625 462.95 240.2 462.7740234375 239.8646484375 462.35 239.75
M 452.85 246.15
Q 453.2564453125 246.2837890625 453.6 246.1 454.975 245.45 456.3 244.8 456.704296875 244.6169921875 456.85 244.2 456.9837890625 243.8421875 456.8 243.45 456.6171875 243.09453125 456.2 242.95 455.843359375 242.8162109375 455.45 243 454.125 243.65 452.75 244.3 452.395703125 244.4828125 452.25 244.85 452.1162109375 245.2578125 452.3 245.6 452.4828125 246.00546875 452.85 246.15
M 449.95 245.9
Q 449.5732421875 245.766015625 449.2 245.9 447.85 246.5248046875 446.45 247.1 446.0755859375 247.2904296875 445.9 247.65 445.7658203125 248.0634765625 445.9 248.45 446.090234375 248.8255859375 446.45 248.95 446.862109375 249.133984375 447.25 248.95 448.6501953125 248.3748046875 450 247.75 450.3759765625 247.595703125 450.5 247.2 450.683984375 246.8220703125 450.5 246.45 450.345703125 246.0728515625 449.95 245.9
M 458.15 102.8
Q 458.0259765625 102.404296875 457.65 102.2 456.3001953125 101.625 454.9 101 454.512109375 100.8658203125 454.1 101 453.740234375 101.1744140625 453.55 101.55 453.4158203125 101.93671875 453.55 102.3 453.7255859375 102.7095703125 454.1 102.85 455.5 103.475 456.85 104.05 457.2232421875 104.233984375 457.6 104.05 457.995703125 103.9271484375 458.15 103.55 458.333984375 103.1779296875 458.15 102.8
M 460.55 103.85
Q 460.1828125 103.99453125 460 104.35 459.8162109375 104.7421875 459.95 105.1 460.095703125 105.5169921875 460.45 105.7 461.825 106.35 463.15 107 463.543359375 107.1837890625 463.9 107.05 464.3171875 106.90546875 464.5 106.5 464.6837890625 106.1578125 464.55 105.75 464.404296875 105.3828125 464 105.2 462.675 104.55 461.3 103.9 460.9564453125 103.7162109375 460.55 103.85
M 481.7 116.6
Q 482.0568359375 116.8326171875 482.45 116.7 482.858203125 116.612890625 483.05 116.25 483.2828125 115.89453125 483.15 115.5 483.0615234375 115.0919921875 482.7 114.85 481.4 114.125 480.1 113.35 479.7431640625 113.1671875 479.35 113.25 478.9419921875 113.3869140625 478.7 113.75 478.5171875 114.10546875 478.6 114.5 478.73828125 114.9080078125 479.1 115.1 480.4 115.875 481.7 116.6
M 473.9 110.05
Q 473.53671875 109.866796875 473.15 110 472.7615234375 110.12890625 472.55 110.5 472.3791015625 110.8625 472.5 111.25 472.6298828125 111.65078125 473 111.85 474.3373046875 112.5375 475.6 113.2 475.98515625 113.4201171875 476.35 113.3 476.7740234375 113.1853515625 476.95 112.8 477.170703125 112.465234375 477.05 112.05 476.9349609375 111.6767578125 476.55 111.45 475.2626953125 110.7623046875 473.9 110.05
M 466.3 107.4
Q 466.1162109375 107.7921875 466.25 108.15 466.395703125 108.5669921875 466.75 108.75 468.125 109.4 469.45 110.05 469.843359375 110.2337890625 470.2 110.1 470.6171875 109.95546875 470.8 109.55 470.9837890625 109.2078125 470.85 108.8 470.704296875 108.4328125 470.3 108.25 468.975 107.6 467.6 106.95 467.2564453125 106.7662109375 466.85 106.9 466.4828125 107.04453125 466.3 107.4
M 388.1 79.85
Q 387.6958984375 79.794140625 387.35 80 387.00625 80.249609375 386.9 80.65 386.8439453125 81.05390625 387.05 81.4 387.2998046875 81.7435546875 387.7 81.8 389.15 82.125 390.6 82.4 391.0041015625 82.505859375 391.35 82.25 391.69375 82.050390625 391.75 81.65 391.8560546875 81.24609375 391.6 80.9 391.4 80.5564453125 391 80.45 389.55 80.175 388.1 79.85
M 398.55 83.25
Q 398.66953125 82.8765625 398.45 82.5 398.2302734375 82.172265625 397.8 82.05 396.375 81.725 394.9 81.35 394.526953125 81.280859375 394.15 81.5 393.821875 81.7201171875 393.7 82.1 393.63046875 82.5234375 393.85 82.85 394.0697265625 83.227734375 394.45 83.3 395.925 83.675 397.35 84 397.773046875 84.119140625 398.1 83.9 398.478125 83.6798828125 398.55 83.25
M 370.05 78.4
Q 370.4830078125 78.5046875 370.8 78.25 371.158984375 78.0337890625 371.2 77.6 371.305078125 77.2162109375 371.05 76.85 370.834375 76.54140625 370.4 76.45 368.975 76.225 367.5 75.95 367.116796875 75.8953125 366.75 76.1 366.441015625 76.3662109375 366.35 76.75 366.294921875 77.1837890625 366.5 77.5 366.765625 77.8583984375 367.15 77.9 368.625 78.175 370.05 78.4
M 377 79.65
Q 377.4041015625 79.75546875 377.75 79.5 378.094140625 79.299609375 378.15 78.9 378.2560546875 78.4953125 378 78.15 377.8001953125 77.80625 377.4 77.7 375.8875 77.424609375 374.35 77.15 373.9646484375 77.1078125 373.6 77.35 373.2904296875 77.5798828125 373.2 77.95 373.1576171875 78.3849609375 373.4 78.7 373.6302734375 79.059375 374 79.1 375.5125 79.3751953125 377 79.65
M 380.1 79.25
Q 380.0439453125 79.65390625 380.25 80 380.4998046875 80.3435546875 380.9 80.4 382.35 80.725 383.8 81 384.2041015625 81.105859375 384.55 80.85 384.89375 80.650390625 384.95 80.25 385.0560546875 79.84609375 384.8 79.5 384.6 79.1564453125 384.2 79.05 382.75 78.775 381.3 78.45 380.8958984375 78.394140625 380.55 78.6 380.20625 78.849609375 380.1 79.25
M 363.95 77.15
Q 364.308984375 76.9337890625 364.35 76.5 364.455078125 76.1162109375 364.2 75.75 363.984375 75.44140625 363.55 75.35 362.1 75.112109375 360.6 74.9 360.2236328125 74.846484375 359.9 75.1 359.5630859375 75.3583984375 359.5 75.75 359.4462890625 76.1765625 359.7 76.5 359.958203125 76.8365234375 360.35 76.9 361.8 77.087890625 363.2 77.3 363.6330078125 77.4046875 363.95 77.15
M 338.75 73.05
Q 338.710546875 73.457421875 338.95 73.75 339.2392578125 74.101953125 339.65 74.15 341.1375 74.3001953125 342.6 74.5 343.026953125 74.5533203125 343.35 74.3 343.687109375 74.041015625 343.75 73.6 343.8037109375 73.22265625 343.55 72.9 343.2912109375 72.5630859375 342.85 72.5 341.3625 72.2998046875 339.85 72.15 339.4419921875 72.1107421875 339.1 72.35 338.79765625 72.6388671875 338.75 73.05
M 332.85 71.45
Q 332.4419921875 71.4107421875 332.1 71.65 331.79765625 71.9388671875 331.75 72.35 331.710546875 72.757421875 331.95 73.05 332.2392578125 73.401953125 332.65 73.45 334.15 73.6 335.65 73.75 336.0578125 73.7892578125 336.35 73.5 336.70234375 73.2611328125 336.75 72.85 336.7896484375 72.442578125 336.5 72.1 336.2607421875 71.7978515625 335.85 71.75 334.35 71.6 332.85 71.45
M 325.1 70.95
Q 324.79765625 71.2388671875 324.75 71.65 324.710546875 72.057421875 324.95 72.35 325.2392578125 72.701953125 325.65 72.75 327.15 72.9 328.65 73.05 329.0578125 73.0892578125 329.35 72.8 329.70234375 72.5611328125 329.75 72.15 329.7896484375 71.742578125 329.5 71.4 329.2607421875 71.0978515625 328.85 71.05 327.35 70.9 325.85 70.75 325.4419921875 70.7107421875 325.1 70.95
M 353.8 73.9
Q 353.4236328125 73.846484375 353.1 74.1 352.7630859375 74.3583984375 352.7 74.75 352.6462890625 75.1765625 352.9 75.5 353.158203125 75.8365234375 353.55 75.9 355.025 76.1 356.45 76.3 356.8763671875 76.3533203125 357.2 76.1 357.5369140625 75.8416015625 357.6 75.4 357.6537109375 75.0234375 357.4 74.7 357.1416015625 74.3634765625 356.7 74.3 355.275 74.1 353.8 73.9
M 346.15 73.2
Q 345.812890625 73.458984375 345.75 73.85 345.696484375 74.2771484375 345.95 74.6 346.2087890625 74.93671875 346.6 75 348.125 75.2 349.6 75.4 350.026953125 75.4533203125 350.35 75.2 350.687109375 74.941015625 350.75 74.5 350.8037109375 74.12265625 350.55 73.8 350.2912109375 73.4630859375 349.85 73.4 348.375 73.2 346.85 73 346.4728515625 72.9466796875 346.15 73.2
M 447.6 98.25
Q 447.2234375 98.4412109375 447.05 98.8 446.9158203125 99.2146484375 447.05 99.6 447.24140625 99.9763671875 447.6 100.1 449.0123046875 100.6751953125 450.4 101.25 450.787890625 101.433984375 451.15 101.25 451.559765625 101.1255859375 451.7 100.75 451.8841796875 100.3634765625 451.7 99.95 451.5744140625 99.5904296875 451.2 99.4 449.7873046875 98.824609375 448.35 98.25 447.9849609375 98.116015625 447.6 98.25
M 441.85 95.65
Q 441.4849609375 95.516015625 441.1 95.65 440.7234375 95.8412109375 440.55 96.2 440.4158203125 96.6146484375 440.55 97 440.74140625 97.3763671875 441.1 97.5 442.525 98.075 443.9 98.6 444.3150390625 98.783984375 444.7 98.6 445.0765625 98.4587890625 445.2 98.05 445.3841796875 97.6853515625 445.2 97.3 445.05859375 96.9236328125 444.65 96.75 443.275 96.225 441.85 95.65
M 435.25 93.25
Q 434.89296875 93.1162109375 434.5 93.3 434.1451171875 93.4822265625 434 93.85 433.866015625 94.25703125 434.05 94.6 434.2322265625 95.0046875 434.6 95.15 436.025 95.65 437.4 96.15 437.80703125 96.28359375 438.15 96.1 438.5548828125 95.9177734375 438.7 95.5 438.833984375 95.14296875 438.65 94.75 438.467578125 94.3953125 438.05 94.25 436.675 93.75 435.25 93.25
M 432.05 92.4
Q 431.867578125 92.0453125 431.45 91.9 430.075 91.4 428.6 90.9 428.2421875 90.7666015625 427.85 90.95 427.494140625 91.1333984375 427.35 91.5 427.2162109375 91.90859375 427.4 92.25 427.5826171875 92.6552734375 427.95 92.8 429.4248046875 93.3 430.8 93.8 431.20703125 93.93359375 431.55 93.75 431.9548828125 93.5677734375 432.1 93.15 432.233984375 92.79296875 432.05 92.4
M 420.7 89.4
Q 420.5791015625 89.8013671875 420.75 90.15 420.9630859375 90.534375 421.35 90.65 422.7998046875 91.1 424.2 91.55 424.586328125 91.683203125 424.95 91.5 425.320703125 91.3015625 425.45 90.9 425.58359375 90.5130859375 425.4 90.15 425.201953125 89.7796875 424.8 89.65 423.4 89.2 421.95 88.75 421.548046875 88.629296875 421.15 88.8 420.8154296875 89.0125 420.7 89.4
M 413.95 87.35
Q 413.8671875 87.78125 414.05 88.15 414.27890625 88.5123046875 414.65 88.6 416.1125 89.0126953125 417.55 89.45 417.951953125 89.570703125 418.3 89.35 418.684375 89.1876953125 418.8 88.8 418.9208984375 88.3986328125 418.7 88 418.5369140625 87.665625 418.15 87.55 416.6875 87.0873046875 415.2 86.65 414.8185546875 86.5673828125 414.45 86.75 414.0875 86.9787109375 413.95 87.35
M 405.35 85
Q 405.4828125 84.6189453125 405.25 84.25 405.0708984375 83.8876953125 404.65 83.75 403.2 83.374609375 401.7 83 401.326953125 82.930859375 400.95 83.15 400.621875 83.3701171875 400.5 83.75 400.43046875 84.1734375 400.65 84.5 400.8697265625 84.877734375 401.25 84.95 402.6998046875 85.3251953125 404.1 85.7 404.5314453125 85.832421875 404.9 85.6 405.2625 85.4212890625 405.35 85
M 407.25 85.45
Q 407.1671875 85.88125 407.35 86.25 407.57890625 86.6123046875 407.95 86.7 409.425 87.125 410.85 87.5 411.2814453125 87.632421875 411.65 87.4 412.0125 87.2212890625 412.1 86.8 412.2328125 86.4189453125 412 86.05 411.8208984375 85.6876953125 411.4 85.55 409.975 85.175 408.5 84.75 408.1185546875 84.6673828125 407.75 84.85 407.3875 85.0787109375 407.25 85.45
M 532 172.55
Q 531.8853515625 172.176171875 531.5 171.95 531.165234375 171.779296875 530.75 171.9 530.3767578125 172.01484375 530.15 172.35
L 528.75 175
Q 528.5798828125 175.38515625 528.7 175.75 528.8146484375 176.1740234375 529.15 176.35 529.534765625 176.570703125 529.9 176.45 530.3232421875 176.3349609375 530.5 175.95
L 531.9 173.3
Q 532.1201171875 172.96484375 532 172.55
M 529.7 152.35
Q 529.675390625 152.7869140625 529.95 153.1 530.937109375 154.2373046875 531.85 155.35 532.140234375 155.70234375 532.55 155.75 532.9580078125 155.7892578125 533.25 155.5 533.602734375 155.260546875 533.65 154.85 533.6884765625 154.4421875 533.4 154.1 532.4626953125 152.9623046875 531.45 151.8 531.180859375 151.4828125 530.75 151.45 530.3630859375 151.4244140625 530.05 151.7 529.7328125 151.9681640625 529.7 152.35
M 537.75 160.55
Q 537.855859375 160.1462890625 537.6 159.8 537.525 159.65 537.4 159.5 536.713671875 158.4248046875 535.9 157.35 535.640234375 157.0130859375 535.2 156.95 534.8228515625 156.896484375 534.5 157.15 534.1626953125 157.408984375 534.1 157.8 534.047265625 158.2267578125 534.3 158.55 535.0861328125 159.575 535.75 160.6 535.875 160.75 535.95 160.9 536.200390625 161.2431640625 536.6 161.3 537.0046875 161.4060546875 537.35 161.15 537.694140625 160.949609375 537.75 160.55
M 520.65 191.3
Q 520.9033203125 190.9626953125 520.85 190.55 520.7865234375 190.1453125 520.45 189.9 520.11328125 189.64609375 519.7 189.7 519.2958984375 189.7640625 519.05 190.1 518.1623046875 191.2875 517.2 192.45 516.96015625 192.808203125 517 193.2 517.048828125 193.626171875 517.35 193.85 517.7076171875 194.140234375 518.1 194.1 518.5255859375 194.0505859375 518.75 193.7 519.7376953125 192.5125 520.65 191.3
M 515.45 195.25
Q 515.040234375 195.2974609375 514.75 195.6 513.825 196.775 512.85 197.9 512.611328125 198.2421875 512.65 198.65 512.697265625 199.060546875 513 199.3 513.341796875 199.5892578125 513.75 199.55 514.159765625 199.50234375 514.4 199.15 515.375 198.025 516.3 196.85 516.5884765625 196.5578125 516.55 196.15 516.502734375 195.739453125 516.15 195.45 515.8580078125 195.210546875 515.45 195.25
M 523.7 183.95
Q 523.3015625 184.05625 523.05 184.4 522.225 185.65 521.35 186.9 521.1443359375 187.2451171875 521.2 187.65 521.305078125 188.0486328125 521.65 188.25 521.9939453125 188.5056640625 522.4 188.4 522.7984375 188.34375 523 188 523.875 186.75 524.7 185.5 524.95546875 185.1548828125 524.85 184.75 524.794921875 184.3515625 524.45 184.1 524.1060546875 183.8943359375 523.7 183.95
M 525.55 182.35
Q 525.8953125 182.6060546875 526.3 182.5 526.6994140625 182.4431640625 526.9 182.1 527.737890625 180.887890625 528.5 179.6 528.6462890625 179.379296875 528.65 179.1
L 528.65 179
Q 528.646484375 178.5892578125 528.35 178.3 528.0607421875 178.003515625 527.65 178 527.2392578125 178.003515625 526.95 178.3 526.734375 178.5103515625 526.65 178.75 525.9951171875 179.91328125 525.25 181 525.044140625 181.3462890625 525.1 181.75 525.205859375 182.149609375 525.55 182.35
M 524.9 147.4
Q 524.9056640625 147.8376953125 525.2 148.1 526.28671875 149.1625 527.25 150.2 527.5626953125 150.4947265625 527.95 150.5 528.3935546875 150.5107421875 528.7 150.2 528.9951171875 149.9380859375 529 149.5 529.0099609375 149.10703125 528.7 148.8 527.71328125 147.7375 526.6 146.65 526.2927734375 146.3896484375 525.85 146.4 525.4619140625 146.4048828125 525.15 146.7 524.8892578125 147.00625 524.9 147.4
M 520.7 141.6
Q 520.3181640625 141.6328125 520.05 141.95 519.7744140625 142.2630859375 519.8 142.65 519.8328125 143.080859375 520.15 143.35 521.2740234375 144.3375 522.3 145.3 522.60703125 145.6099609375 523 145.6 523.4380859375 145.5951171875 523.7 145.3 524.0107421875 144.9935546875 524 144.55 523.9947265625 144.1626953125 523.7 143.85 522.6255859375 142.8625 521.45 141.85 521.1369140625 141.575390625 520.7 141.6
M 514.45 138.2
Q 514.4994140625 138.6255859375 514.8 138.85 516.0248046875 139.8248046875 517.15 140.75 517.4921875 141.0384765625 517.9 141 518.310546875 140.952734375 518.55 140.6 518.8392578125 140.3080078125 518.8 139.9 518.75234375 139.490234375 518.4 139.2 517.275 138.2748046875 516.05 137.3 515.741796875 137.06015625 515.3 137.1 514.923828125 137.148828125 514.65 137.45 514.409765625 137.8076171875 514.45 138.2
M 510.5 132.95
Q 510.175390625 132.6962890625 509.75 132.75 509.35859375 132.8130859375 509.1 133.15 508.8462890625 133.4734375 508.9 133.85 508.9642578125 134.29140625 509.3 134.55 510.55 135.5 511.75 136.4 512.0873046875 136.6533203125 512.5 136.6 512.9046875 136.5365234375 513.15 136.2 513.40390625 135.86328125 513.35 135.45 513.2857421875 135.0458984375 512.95 134.8 511.75 133.9 510.5 132.95
M 501.25 128.45
Q 501.649609375 128.394140625 501.85 128.05 502.1060546875 127.7046875 502 127.3 501.9431640625 126.900390625 501.6 126.65 500.4001953125 125.8625 499.15 125.05 498.788671875 124.8314453125 498.35 124.9 497.973046875 125.007421875 497.75 125.35 497.5310546875 125.710546875 497.6 126.1 497.708203125 126.5265625 498.05 126.75 499.2998046875 127.5375 500.5 128.3 500.8462890625 128.555859375 501.25 128.45
M 504.85 128.9
Q 504.548046875 128.6587890625 504.15 128.7 503.74296875 128.7900390625 503.5 129.1 503.2580078125 129.451953125 503.3 129.85 503.3900390625 130.25625 503.7 130.5 504.975 131.4125 506.15 132.25 506.516015625 132.504296875 506.9 132.4 507.333203125 132.359375 507.55 132 507.8048828125 131.6841796875 507.7 131.25 507.658984375 130.8673828125 507.3 130.6 506.1248046875 129.7873046875 504.85 128.9
M 491.9 121.55
Q 491.6810546875 121.910546875 491.75 122.3 491.858203125 122.7265625 492.2 122.95 493.45 123.75 494.7 124.55 495.061328125 124.7685546875 495.45 124.65 495.876953125 124.592578125 496.1 124.25 496.319140625 123.8892578125 496.2 123.45 496.141796875 123.0734375 495.8 122.85 494.55 122.05 493.3 121.25 492.938671875 121.0314453125 492.5 121.1 492.123046875 121.207421875 491.9 121.55
M 488.45 120.25
Q 488.879296875 120.178515625 489.1 119.8 489.31953125 119.4740234375 489.2 119.05 489.1279296875 118.67109375 488.75 118.45 487.4625 117.6373046875 486.15 116.85 485.7931640625 116.6671875 485.4 116.75 484.9919921875 116.8869140625 484.75 117.25 484.5671875 117.60546875 484.65 118 484.78828125 118.4080078125 485.15 118.6 486.4375 119.3625 487.7 120.15 488.0763671875 120.3689453125 488.45 120.25 Z"/>
</g>

<path id="Layer0_0_1_STROKES" stroke="#DBDBDB" stroke-width="3" stroke-linejoin="round" stroke-linecap="round" fill="none" d="
M 757.65 376.7
L 787.65 376.7
Q 802.65 376.7 802.65 391.7
L 802.65 421.75
Q 802.65 436.75 787.65 436.75
L 757.65 436.75
Q 742.65 436.75 742.65 421.75
L 742.65 391.7
Q 742.65 376.7 757.65 376.7 Z
M 687.65 416.7
L 717.65 416.7
Q 732.65 416.7 732.65 431.7
L 732.65 461.75
Q 732.65 476.75 717.65 476.75
L 687.65 476.75
Q 672.65 476.75 672.65 461.75
L 672.65 431.7
Q 672.65 416.7 687.65 416.7 Z
M 349.85 192.75
L 379.85 192.75
Q 394.85 192.75 394.85 207.75
L 394.85 237.8
Q 394.85 252.8 379.85 252.8
L 349.85 252.8
Q 334.85 252.8 334.85 237.8
L 334.85 207.75
Q 334.85 192.75 349.85 192.75 Z
M 349.6 377.7
L 379.6 377.7
Q 394.6 377.7 394.6 392.7
L 394.6 422.75
Q 394.6 437.75 379.6 437.75
L 349.6 437.75
Q 334.6 437.75 334.6 422.75
L 334.6 392.7
Q 334.6 377.7 349.6 377.7 Z
M 452.6 377.7
L 482.6 377.7
Q 497.6 377.7 497.6 392.7
L 497.6 422.75
Q 497.6 437.75 482.6 437.75
L 452.6 437.75
Q 437.6 437.75 437.6 422.75
L 437.6 392.7
Q 437.6 377.7 452.6 377.7 Z
M 576.65 376.7
L 606.65 376.7
Q 621.65 376.7 621.65 391.7
L 621.65 421.75
Q 621.65 436.75 606.65 436.75
L 576.65 436.75
Q 561.65 436.75 561.65 421.75
L 561.65 391.7
Q 561.65 376.7 576.65 376.7 Z
M 260.85 1.5
L 290.85 1.5
Q 305.85 1.5 305.85 16.5
L 305.85 46.55
Q 305.85 61.55 290.85 61.55
L 260.85 61.55
Q 245.85 61.55 245.85 46.55
L 245.85 16.5
Q 245.85 1.5 260.85 1.5 Z
M 82.85 192.75
L 112.85 192.75
Q 127.85 192.75 127.85 207.75
L 127.85 237.8
Q 127.85 252.8 112.85 252.8
L 82.85 252.8
Q 67.85 252.8 67.85 237.8
L 67.85 207.75
Q 67.85 192.75 82.85 192.75 Z"/>

<path id="Layer0_0_2_STROKES" stroke="#1E1E1E" stroke-width="3" stroke-linejoin="miter" stroke-linecap="butt" stroke-miterlimit="3" fill="none" d="
M 740.3 446.2
L 803.05 446.2
M 333.5 262.25
L 396.25 262.25
M 244.5 71
L 307.25 71
M 66.5 262.25
L 129.25 262.25
M 230 446.15
L 268.2 446.15
M 143 446.15
L 181.2 446.15
M 559.3 446.2
L 622.05 446.2
M 323.75 446.15
L 508.45 446.15"/>

<path id="Layer0_0_3_STROKES" stroke="#332D2B" stroke-width="2" stroke-linejoin="round" stroke-linecap="butt" fill="none" d="
M 717.05 152.75
L 717.05 163.4
M 805.25 152.75
L 805.25 163.4
M 717.05 163.4
L 717.05 174.05
M 805.25 163.4
L 805.25 174.05
M 540.5 152.75
L 540.5 163.4
M 628.85 152.75
L 628.85 163.4
M 540.5 163.4
L 540.5 174.05
M 628.85 163.4
L 628.85 174.05
M 364.1 152.75
L 364.1 163.4 364.1 174.05
M 187.7 152.75
L 187.7 163.4
M 275.9 152.75
L 275.9 163.4
M 187.7 163.4
L 187.7 174.05
M 275.9 163.4
L 275.9 174.05
M 99.5 152.75
L 99.5 163.4 99.5 174.05"/>

<path id="Layer0_0_4_STROKES" stroke="#332D2B" stroke-width="3" stroke-linejoin="round" stroke-linecap="butt" fill="none" d="
M 893.45 148.55
L 893.45 163.4 934.85 163.4
M 893.45 163.4
L 893.45 178.25
M 717.05 163.4
L 805.25 163.4 893.45 163.4
M 540.5 163.4
L 628.85 163.4
M 364.1 163.4
L 452.3 163.4 452.3 148.55
M 540.5 163.4
L 452.3 163.4 452.3 178.25
M 187.7 163.4
L 275.9 163.4
M 11.15 148.55
L 11.15 163.4 99.5 163.4
M 11.15 163.4
L 11.15 178.25
M 99.5 163.4
L 187.7 163.4
M 275.9 163.4
L 364.1 163.4
M 628.85 163.4
L 717.05 163.4"/>
</defs>

<g transform="matrix( 1, 0, 0, 1, 0,0) ">
<use xlink:href="#Layer0_0_FILL"/>

<use xlink:href="#Layer0_0_1_STROKES"/>

<use xlink:href="#Layer0_0_2_STROKES"/>

<use xlink:href="#Layer0_0_3_STROKES"/>

<use xlink:href="#Layer0_0_4_STROKES"/>

<use xlink:href="#Layer0_0_STROKES_1_FILL"/>
</g>
</svg>
