
<svg xmlns="http://www.w3.org/2000/svg" version="1.1" xmlns:xlink="http://www.w3.org/1999/xlink" preserveAspectRatio="none" x="0px" y="0px" width="1280px" height="720px" viewBox="0 0 1280 720">
<defs>
<g id="Layer0_0_FILL">
<path fill="#7A94C2" stroke="none" d="
M 74.65 535.5
L 74.65 554.55
Q 74.65 564.55 84.65 564.55
L 129.7 564.55
Q 139.7 564.55 139.7 554.55
L 139.7 535.5
Q 139.7 525.5 129.7 525.5
L 84.65 525.5
Q 74.65 525.5 74.65 535.5
M 89.5 536.65
Q 89.7 536.55 89.95 536.55
L 92.15 536.55
Q 92.45 536.55 92.75 536.6 93 536.65 93.2 536.7 93.35 536.8 93.55 536.9 93.7 537 93.85 537.15 94.05 537.4 94.1 537.75 94.1 537.95 94.1 538.15 94.15 538.4 94.15 538.6 94.15 539.15 94.1 539.75 94.05 540.3 93.95 540.95 93.85 541.6 93.7 542.25 93.55 542.9 93.35 543.5 93.2 544.15 92.95 544.75 92.7 545.35 92.35 545.9 92 546.45 91.6 546.9 91.25 547.3 90.75 547.65 90.65 547.7 90.5 547.75 90.35 547.8 90.1 547.75 89.9 547.75 89.7 547.65 89.45 547.5 89.25 547.3
L 89.3 547.3
Q 89.15 547.15 89.05 546.95 88.95 546.75 88.95 546.55 88.95 546.3 89.05 546.1 89.1 545.9 89.3 545.7 89.6 545.4 89.85 545.1 90.1 544.75 90.3 544.4 90.45 544 90.6 543.6 90.75 543.2 90.85 542.75 91 542.35 91.1 541.9 91.2 541.45 91.25 540.95 91.35 540.5 91.4 540 91.45 539.55 91.5 539.05
L 89.95 539.05
Q 89.7 539.05 89.5 538.95 89.35 538.85 89.2 538.65 89.1 538.5 89 538.25 88.95 538.05 88.95 537.8 88.95 537.55 89 537.35 89.1 537.1 89.2 536.95 89.35 536.75 89.5 536.65
M 99.4 537.8
Q 99.4 537.95 99.45 538.2 99.45 538.4 99.45 538.6 99.45 539.35 99.4 540.05 99.35 540.8 99.25 541.5 99.15 542.2 99 542.9 98.85 543.55 98.6 544.25 98.45 544.9 98.2 545.5 98 546.1 97.65 546.7 97.35 547.3 96.95 547.8 96.6 548.35 96.15 548.85 96.05 549 95.85 549.1 95.7 549.15 95.45 549.1 95.25 549.1 95 549 94.8 548.95 94.55 548.8 94.4 548.7 94.25 548.5 94.15 548.35 94.05 548.1 93.95 547.9 94 547.65 94.05 547.45 94.2 547.2 94.5 546.8 94.8 546.4 95.05 545.95 95.3 545.5 95.5 545.05 95.65 544.55 95.85 544.05 95.95 543.5 96.1 543 96.2 542.45 96.35 541.9 96.4 541.35 96.5 540.8 96.55 540.2 96.6 539.65 96.65 539.05
L 95.6 539.05
Q 95.3 539.05 95.1 538.95 94.9 538.9 94.8 538.7 94.6 538.5 94.55 538.3 94.5 538.1 94.5 537.85 94.5 537.55 94.55 537.35 94.6 537.1 94.8 536.95 94.9 536.75 95.1 536.65 95.3 536.55 95.6 536.55
L 97.55 536.55
Q 97.85 536.55 98.1 536.6 98.4 536.65 98.55 536.7 98.75 536.8 98.9 536.9 99.05 537 99.2 537.15 99.3 537.3 99.35 537.45 99.4 537.6 99.4 537.8
M 103.75 535.35
Q 103.85 535.55 103.85 535.85
L 103.85 541.85 105.6 541.85
Q 105.95 541.85 106.15 541.95 106.4 542.05 106.5 542.2 106.6 542.4 106.65 542.65 106.75 542.85 106.75 543.1 106.75 543.35 106.65 543.55 106.6 543.8 106.5 544 106.4 544.2 106.15 544.3 105.95 544.4 105.6 544.4
L 103.85 544.4 103.85 553.6
Q 103.85 553.9 103.75 554.05 103.6 554.3 103.4 554.35 102.95 554.55 102.55 554.55 102.25 554.55 102 554.5 101.8 554.45 101.6 554.35 101.4 554.3 101.3 554.05 101.2 553.9 101.2 553.6
L 101.2 535.85
Q 101.2 535.55 101.3 535.35 101.4 535.15 101.6 535.05 101.8 534.95 102 534.9 102.25 534.85 102.55 534.85 102.95 534.85 103.4 535.05 103.6 535.15 103.75 535.35
M 122.1 535.1
Q 122.2 535 122.3 534.95 122.4 534.9 122.5 534.85 122.65 534.85 122.75 534.8 122.9 534.8 123 534.75 123.15 534.75 123.3 534.75 123.55 534.75 123.8 534.8 124.05 534.85 124.25 534.95 124.65 535.15 124.65 535.75
L 124.65 538.4 126.55 538.4
Q 126.85 538.4 127.05 538.5 127.25 538.6 127.35 538.75 127.45 539.15 127.45 539.65 127.45 539.9 127.45 540.1 127.4 540.3 127.35 540.5 127.2 540.9 126.55 540.9
L 124.65 540.9 124.65 543.35
Q 124.65 543.65 124.55 543.85 124.45 544.05 124.25 544.15 124.05 544.25 123.8 544.3 123.55 544.35 123.3 544.35 123.15 544.35 123 544.35 122.9 544.3 122.75 544.3 122.65 544.3 122.5 544.25 122.4 544.2 122.3 544.15 122.2 544.1 122.1 544 122.05 543.9 122 543.8 121.9 543.7 121.9 543.6 121.85 543.5 121.85 543.35
L 121.85 535.75
Q 121.85 535.6 121.9 535.5 121.9 535.35 122 535.25 122.05 535.15 122.1 535.1
M 119.9 545.2
Q 120.1 545.15 120.4 545.15
L 122.95 545.15
Q 123.35 545.15 123.65 545.25 124 545.4 124.2 545.6 124.4 545.85 124.55 546.2 124.65 546.5 124.65 546.9
L 124.65 553.1
Q 124.65 553.35 124.55 553.55 124.4 553.7 124.25 553.85 124.05 554 123.8 554.05 123.55 554.15 123.3 554.15 123.1 554.15 122.85 554.05 122.65 554 122.45 553.85 122 553.6 122 553.1
L 122 547.55 120.4 547.55
Q 120.1 547.55 119.9 547.5 119.7 547.4 119.6 547.2 119.5 547.05 119.45 546.85 119.4 546.65 119.4 546.35 119.4 546.1 119.45 545.9 119.5 545.65 119.6 545.45 119.7 545.3 119.9 545.2
M 118.35 546
Q 118.5 546.3 118.5 546.7
L 118.5 549.1
Q 118.5 549.55 118.35 549.85 118.15 550.15 117.85 550.35 117.55 550.55 117.2 550.65 116.9 550.75 116.5 550.75
L 114.6 550.75 114.6 551.85
Q 115.05 551.85 115.45 551.85 115.85 551.8 116.25 551.75 116.6 551.75 117 551.7 117.4 551.65 117.85 551.55 118.15 551.55 118.35 551.6 118.55 551.65 118.7 551.8 118.85 551.95 118.95 552.15 119.05 552.3 119.1 552.55 119.15 552.8 119.1 553.05 119.05 553.25 118.95 553.45 118.85 553.6 118.65 553.7 118.4 553.8 118.15 553.85
L 118.25 553.85
Q 117.75 553.9 117.35 553.95 117.1 553.95 116.85 554 116.65 554 116.4 554.05 116.2 554.05 115.95 554.05 115.75 554.1 115.5 554.1 115.25 554.1 115 554.1 114.7 554.1 114.35 554.15 114.15 554.15 114 554.15 113.8 554.1 113.65 554.1 113.45 554.1 113.3 554.05 113.1 554 113 553.95 112.85 553.9 112.7 553.8 112.6 553.7 112.55 553.6 112.4 553.3 112.4 552.9
L 112.4 549.9
Q 112.4 549.5 112.55 549.2 112.65 548.95 112.95 548.75 113.5 548.45 114.35 548.45
L 116.1 548.45 116.1 547.45 113.4 547.45
Q 113.1 547.45 112.9 547.4 112.7 547.3 112.6 547.15 112.5 547 112.4 546.8 112.35 546.65 112.35 546.35 112.35 546.1 112.4 545.9 112.5 545.65 112.6 545.45 112.7 545.3 112.9 545.2 113.1 545.15 113.4 545.15
L 116.5 545.15
Q 116.9 545.15 117.2 545.25 117.55 545.3 117.85 545.5 118.15 545.7 118.35 546
M 110.9 536.3
Q 111 536.1 111.25 535.95 111.4 535.85 111.6 535.8 111.85 535.7 112.1 535.7 112.35 535.65 112.65 535.65 113 535.65 113.4 535.65
L 118.55 535.65
Q 118.85 535.65 119.05 535.7 119.25 535.75 119.35 535.85 119.45 535.95 119.5 536.2 119.55 536.5 119.55 536.9 119.55 537.2 119.5 537.45 119.45 537.7 119.35 537.85 119.25 538 119.05 538.05 118.85 538.1 118.55 538.1
L 113.4 538.1 113.4 541
Q 113.4 541.32265625 113.4 541.45 114.15 541.45 114.9 541.4 115.7 541.4 116.5 541.3 117.3 541.25 118.05 541.15 118.8 541.1 119.55 540.95 119.65 540.95 119.75 540.95 119.9 540.95 120 540.95 120.15 540.95 120.2 540.95 120.3 541 120.4 541 120.4 541.05 120.5 541.15 120.5 541.2 120.6 541.3 120.65 541.4 120.65 541.55 120.7 541.7 120.75 541.9 120.85 542.25 120.85 542.5 120.85 542.75 120.75 542.95 120.5 543.3 119.85 543.35 119.05 543.5 118.25 543.6 117.45 543.7 116.65 543.75 115.85 543.85 115.05 543.9 114.25 543.95 113.4 544 113 544 112.65 543.95 112.35 543.95 112.1 543.95 111.85 543.9 111.6 543.85 111.4 543.8 111.25 543.65 111 543.55 110.9 543.4 110.75 543.25 110.7 543 110.55 542.55 110.55 541.75
L 110.55 537.95
Q 110.55 537.55 110.6 537.25 110.65 536.95 110.7 536.7 110.75 536.45 110.9 536.3 Z"/>

<path fill="#FFFFFF" stroke="none" d="
M 111.25 535.95
Q 111 536.1 110.9 536.3 110.75 536.45 110.7 536.7 110.65 536.95 110.6 537.25 110.55 537.55 110.55 537.95
L 110.55 541.75
Q 110.55 542.55 110.7 543 110.75 543.25 110.9 543.4 111 543.55 111.25 543.65 111.4 543.8 111.6 543.85 111.85 543.9 112.1 543.95 112.35 543.95 112.65 543.95 113 544 113.4 544 114.25 543.95 115.05 543.9 115.85 543.85 116.65 543.75 117.45 543.7 118.25 543.6 119.05 543.5 119.85 543.35 120.5 543.3 120.75 542.95 120.85 542.75 120.85 542.5 120.85 542.25 120.75 541.9 120.7 541.7 120.65 541.55 120.65 541.4 120.6 541.3 120.5 541.2 120.5 541.15 120.4 541.05 120.4 541 120.3 541 120.2 540.95 120.15 540.95 120 540.95 119.9 540.95 119.75 540.95 119.65 540.95 119.55 540.95 118.8 541.1 118.05 541.15 117.3 541.25 116.5 541.3 115.7 541.4 114.9 541.4 114.15 541.45 113.4 541.45 113.4 541.32265625 113.4 541
L 113.4 538.1 118.55 538.1
Q 118.85 538.1 119.05 538.05 119.25 538 119.35 537.85 119.45 537.7 119.5 537.45 119.55 537.2 119.55 536.9 119.55 536.5 119.5 536.2 119.45 535.95 119.35 535.85 119.25 535.75 119.05 535.7 118.85 535.65 118.55 535.65
L 113.4 535.65
Q 113 535.65 112.65 535.65 112.35 535.65 112.1 535.7 111.85 535.7 111.6 535.8 111.4 535.85 111.25 535.95
M 118.5 546.7
Q 118.5 546.3 118.35 546 118.15 545.7 117.85 545.5 117.55 545.3 117.2 545.25 116.9 545.15 116.5 545.15
L 113.4 545.15
Q 113.1 545.15 112.9 545.2 112.7 545.3 112.6 545.45 112.5 545.65 112.4 545.9 112.35 546.1 112.35 546.35 112.35 546.65 112.4 546.8 112.5 547 112.6 547.15 112.7 547.3 112.9 547.4 113.1 547.45 113.4 547.45
L 116.1 547.45 116.1 548.45 114.35 548.45
Q 113.5 548.45 112.95 548.75 112.65 548.95 112.55 549.2 112.4 549.5 112.4 549.9
L 112.4 552.9
Q 112.4 553.3 112.55 553.6 112.6 553.7 112.7 553.8 112.85 553.9 113 553.95 113.1 554 113.3 554.05 113.45 554.1 113.65 554.1 113.8 554.1 114 554.15 114.15 554.15 114.35 554.15 114.7 554.1 115 554.1 115.25 554.1 115.5 554.1 115.75 554.1 115.95 554.05 116.2 554.05 116.4 554.05 116.65 554 116.85 554 117.1 553.95 117.35 553.95 117.75 553.9 118.25 553.85
L 118.15 553.85
Q 118.4 553.8 118.65 553.7 118.85 553.6 118.95 553.45 119.05 553.25 119.1 553.05 119.15 552.8 119.1 552.55 119.05 552.3 118.95 552.15 118.85 551.95 118.7 551.8 118.55 551.65 118.35 551.6 118.15 551.55 117.85 551.55 117.4 551.65 117 551.7 116.6 551.75 116.25 551.75 115.85 551.8 115.45 551.85 115.05 551.85 114.6 551.85
L 114.6 550.75 116.5 550.75
Q 116.9 550.75 117.2 550.65 117.55 550.55 117.85 550.35 118.15 550.15 118.35 549.85 118.5 549.55 118.5 549.1
L 118.5 546.7
M 120.4 545.15
Q 120.1 545.15 119.9 545.2 119.7 545.3 119.6 545.45 119.5 545.65 119.45 545.9 119.4 546.1 119.4 546.35 119.4 546.65 119.45 546.85 119.5 547.05 119.6 547.2 119.7 547.4 119.9 547.5 120.1 547.55 120.4 547.55
L 122 547.55 122 553.1
Q 122 553.6 122.45 553.85 122.65 554 122.85 554.05 123.1 554.15 123.3 554.15 123.55 554.15 123.8 554.05 124.05 554 124.25 553.85 124.4 553.7 124.55 553.55 124.65 553.35 124.65 553.1
L 124.65 546.9
Q 124.65 546.5 124.55 546.2 124.4 545.85 124.2 545.6 124 545.4 123.65 545.25 123.35 545.15 122.95 545.15
L 120.4 545.15
M 122.3 534.95
Q 122.2 535 122.1 535.1 122.05 535.15 122 535.25 121.9 535.35 121.9 535.5 121.85 535.6 121.85 535.75
L 121.85 543.35
Q 121.85 543.5 121.9 543.6 121.9 543.7 122 543.8 122.05 543.9 122.1 544 122.2 544.1 122.3 544.15 122.4 544.2 122.5 544.25 122.65 544.3 122.75 544.3 122.9 544.3 123 544.35 123.15 544.35 123.3 544.35 123.55 544.35 123.8 544.3 124.05 544.25 124.25 544.15 124.45 544.05 124.55 543.85 124.65 543.65 124.65 543.35
L 124.65 540.9 126.55 540.9
Q 127.2 540.9 127.35 540.5 127.4 540.3 127.45 540.1 127.45 539.9 127.45 539.65 127.45 539.15 127.35 538.75 127.25 538.6 127.05 538.5 126.85 538.4 126.55 538.4
L 124.65 538.4 124.65 535.75
Q 124.65 535.15 124.25 534.95 124.05 534.85 123.8 534.8 123.55 534.75 123.3 534.75 123.15 534.75 123 534.75 122.9 534.8 122.75 534.8 122.65 534.85 122.5 534.85 122.4 534.9 122.3 534.95
M 103.85 535.85
Q 103.85 535.55 103.75 535.35 103.6 535.15 103.4 535.05 102.95 534.85 102.55 534.85 102.25 534.85 102 534.9 101.8 534.95 101.6 535.05 101.4 535.15 101.3 535.35 101.2 535.55 101.2 535.85
L 101.2 553.6
Q 101.2 553.9 101.3 554.05 101.4 554.3 101.6 554.35 101.8 554.45 102 554.5 102.25 554.55 102.55 554.55 102.95 554.55 103.4 554.35 103.6 554.3 103.75 554.05 103.85 553.9 103.85 553.6
L 103.85 544.4 105.6 544.4
Q 105.95 544.4 106.15 544.3 106.4 544.2 106.5 544 106.6 543.8 106.65 543.55 106.75 543.35 106.75 543.1 106.75 542.85 106.65 542.65 106.6 542.4 106.5 542.2 106.4 542.05 106.15 541.95 105.95 541.85 105.6 541.85
L 103.85 541.85 103.85 535.85
M 99.45 538.2
Q 99.4 537.95 99.4 537.8 99.4 537.6 99.35 537.45 99.3 537.3 99.2 537.15 99.05 537 98.9 536.9 98.75 536.8 98.55 536.7 98.4 536.65 98.1 536.6 97.85 536.55 97.55 536.55
L 95.6 536.55
Q 95.3 536.55 95.1 536.65 94.9 536.75 94.8 536.95 94.6 537.1 94.55 537.35 94.5 537.55 94.5 537.85 94.5 538.1 94.55 538.3 94.6 538.5 94.8 538.7 94.9 538.9 95.1 538.95 95.3 539.05 95.6 539.05
L 96.65 539.05
Q 96.6 539.65 96.55 540.2 96.5 540.8 96.4 541.35 96.35 541.9 96.2 542.45 96.1 543 95.95 543.5 95.85 544.05 95.65 544.55 95.5 545.05 95.3 545.5 95.05 545.95 94.8 546.4 94.5 546.8 94.2 547.2 94.05 547.45 94 547.65 93.95 547.9 94.05 548.1 94.15 548.35 94.25 548.5 94.4 548.7 94.55 548.8 94.8 548.95 95 549 95.25 549.1 95.45 549.1 95.7 549.15 95.85 549.1 96.05 549 96.15 548.85 96.6 548.35 96.95 547.8 97.35 547.3 97.65 546.7 98 546.1 98.2 545.5 98.45 544.9 98.6 544.25 98.85 543.55 99 542.9 99.15 542.2 99.25 541.5 99.35 540.8 99.4 540.05 99.45 539.35 99.45 538.6 99.45 538.4 99.45 538.2
M 89.95 536.55
Q 89.7 536.55 89.5 536.65 89.35 536.75 89.2 536.95 89.1 537.1 89 537.35 88.95 537.55 88.95 537.8 88.95 538.05 89 538.25 89.1 538.5 89.2 538.65 89.35 538.85 89.5 538.95 89.7 539.05 89.95 539.05
L 91.5 539.05
Q 91.45 539.55 91.4 540 91.35 540.5 91.25 540.95 91.2 541.45 91.1 541.9 91 542.35 90.85 542.75 90.75 543.2 90.6 543.6 90.45 544 90.3 544.4 90.1 544.75 89.85 545.1 89.6 545.4 89.3 545.7 89.1 545.9 89.05 546.1 88.95 546.3 88.95 546.55 88.95 546.75 89.05 546.95 89.15 547.15 89.3 547.3
L 89.25 547.3
Q 89.45 547.5 89.7 547.65 89.9 547.75 90.1 547.75 90.35 547.8 90.5 547.75 90.65 547.7 90.75 547.65 91.25 547.3 91.6 546.9 92 546.45 92.35 545.9 92.7 545.35 92.95 544.75 93.2 544.15 93.35 543.5 93.55 542.9 93.7 542.25 93.85 541.6 93.95 540.95 94.05 540.3 94.1 539.75 94.15 539.15 94.15 538.6 94.15 538.4 94.1 538.15 94.1 537.95 94.1 537.75 94.05 537.4 93.85 537.15 93.7 537 93.55 536.9 93.35 536.8 93.2 536.7 93 536.65 92.75 536.6 92.45 536.55 92.15 536.55
L 89.95 536.55 Z"/>
</g>

<path id="Layer0_1_1_STROKES" stroke="#CCCCCC" stroke-width="3" stroke-linejoin="round" stroke-linecap="round" fill="none" d="
M 148.51716232299805 569.6
L 1187.4623939514158 569.6"/>

<path id="Layer0_2_1_STROKES" stroke="#CCCCCC" stroke-width="3" stroke-linejoin="round" stroke-linecap="round" fill="none" d="
M 148.51716232299805 629.6
L 1187.4623939514158 629.6"/>

<path id="gngfnfgnfm_0_Layer1_0_1_STROKES" stroke="#332D2B" stroke-width="3" stroke-linejoin="round" stroke-linecap="butt" fill="none" d="
M 148.85 99.15
L -148.8 99.15 -148.8 -99.1 148.85 -99.1 148.85 99.15 Z"/>

<path id="gngfnfgnfm_0_Layer0_0_1_STROKES" stroke="#EC3131" stroke-width="3" stroke-linejoin="round" stroke-linecap="round" fill="none" d="
M 147.55 -97.5
L -147.75 -1"/>

<path id="gngfnfgnfm_0_Layer0_1_1_STROKES" stroke="#EC3131" stroke-width="3" stroke-linejoin="round" stroke-linecap="round" fill="none" d="
M 147.55 97.25
L -147.5 -0.85"/>
</defs>

<g transform="matrix( 1, 0, 0, 1, 0,0) ">
<use xlink:href="#Layer0_0_FILL"/>
</g>

<g transform="matrix( 0.9332122802734375, 0, 0, 1, 49.55,-53.5) ">
<use xlink:href="#Layer0_1_1_STROKES" transform="matrix( 1.071563720703125, 0, 0, 1, -53.05,53.5) "/>
</g>

<g transform="matrix( 0.9332122802734375, 0, 0, 1, 49.55,6.5) ">
<use xlink:href="#Layer0_2_1_STROKES" transform="matrix( 1.071563720703125, 0, 0, 1, -53.05,-6.5) "/>
</g>

<g transform="matrix( 1, 0, 0, 1, 640,375.15) ">
<g transform="matrix( 1, 0, 0, 1, 0,0) ">
<use xlink:href="#gngfnfgnfm_0_Layer1_0_1_STROKES"/>
</g>

<g transform="matrix( 1, 0, 0, 1, 0,0) ">
<use xlink:href="#gngfnfgnfm_0_Layer0_0_1_STROKES"/>
</g>

<g transform="matrix( 1, 0, 0, 1, 0,0) ">
<use xlink:href="#gngfnfgnfm_0_Layer0_1_1_STROKES"/>
</g>
</g>
</svg>
