
<svg xmlns="http://www.w3.org/2000/svg" version="1.1" xmlns:xlink="http://www.w3.org/1999/xlink" preserveAspectRatio="none" x="0px" y="0px" width="1280px" height="720px" viewBox="0 0 1280 720">
<defs>
<g id="Layer0_0_FILL">
<path fill="#1E1E1E" stroke="none" d="
M 287.3 331
Q 286.7 331 286.7 331.55
L 286.7 334.2
Q 286.7 334.4 286.85 334.6 287 334.85 287.3 334.85
L 322.05 334.85
Q 322.3 334.85 322.45 334.6 322.65 334.4 322.65 334.2
L 322.65 331.55
Q 322.65 331.35 322.45 331.15 322.3 331 322.05 331
L 287.3 331
M 292.8 313.55
Q 292.65 313.75 292.65 313.95
L 292.65 324
Q 292.65 325.55 293.25 326.2 293.9 326.85 295.7 326.85
L 317.15 326.85
Q 317.35 326.85 317.55 326.75 317.7 326.6 317.7 326.35
L 317.7 323.5
Q 317.7 323.3 317.55 323.15 317.35 323 317.15 323
L 298.05 323
Q 297.6 323 297.45 322.9 297.3 322.8 297.3 322.4
L 297.3 313.95
Q 297.3 313.75 297.1 313.55 296.9 313.4 296.65 313.4
L 293.2 313.4
Q 293 313.4 292.8 313.55
M 292.7 337.8
Q 292.5 337.95 292.5 338.2
L 292.5 346.85
Q 292.5076171875 348.4076171875 293.15 349.05 293.75 349.7 295.6 349.7
L 317.6 349.7
Q 317.8 349.7 318 349.55 318.2 349.45 318.2 349.2
L 318.2 346.35
Q 318.2 346.2248046875 318.1 346.1 318.0748046875 346.0560546875 318 346 317.8 345.85 317.6 345.85
L 297.85 345.85
Q 297.45 345.85 297.3 345.75 297.2220703125 345.7111328125 297.15 345.6 297.1 345.4748046875 297.1 345.2
L 297.1 338.2
Q 297.1 337.95 296.95 337.8 296.75 337.6 296.5 337.6
L 293.1 337.6
Q 292.85 337.6 292.7 337.8
M 367.15 339.95
Q 366.25 338.6 364.65 337.6 364.2505859375 337.350390625 363.8 337.1 362.48828125 336.4751953125 360.8 336.1 360.3408203125 335.9826171875 359.85 335.9 358.1052734375 335.55 356.1 335.55 353.8208984375 335.55 351.95 335.9 351.509375 335.99765625 351.1 336.1 348.9 336.6 347.35 337.6 346.773046875 337.972265625 346.3 338.4 345.5021484375 339.12109375 345 340 344.2 341.4 344.2 343.05 344.2 344.8 345 346.2 345.014453125 346.2251953125 345 346.25 345.8279296875 347.6169921875 347.35 348.55 348.9 349.55 351.1 350.1 353.3 350.65 356.1 350.65 358.65 350.65 360.8 350.1 363.05 349.55 364.65 348.55 366.192578125 347.5859375 367.05 346.25 367.117578125 346.2001953125 367.15 346.15 368.05 344.75 368.05 343.05 368.05 341.35 367.15 339.95
M 350.85 340.2
Q 350.9248046875 340.1625 351 340.1 352.8130859375 339.2744140625 355.6 339.2 355.8482421875 339.2 356.1 339.2 357.5 339.2 358.85 339.45 360.15 339.7 361.15 340.2 361.961328125 340.6056640625 362.5 341.15 362.63671875 341.30859375 362.75 341.45 363.3 342.15 363.3 343.2 363.3 344.15 362.75 344.85 362.15 345.55 361.15 346 360.15 346.5 358.85 346.75 358.401171875 346.833203125 357.95 346.9 357.0345703125 347 356.1 347 354.5 347 353.2 346.75 351.9 346.5 350.9 346 349.95 345.55 349.45 344.85 348.9 344.15 348.9 343.2 348.9 341.2 350.85 340.2
M 367.75 313.2
Q 367.75 312.65 367.25 312.65
L 363.7 312.65
Q 363.15 312.65 363.15 313.2
L 363.15 317.75 355.45 317.75
Q 354.15 316.05 352.1 315.05 350.05 314.05 347.45 314.05 345.35 314.05 343.6 314.75 341.8 315.45 340.55 316.7 339.25 317.95 338.6 319.65 337.9 321.35 337.9 323.25 337.9 323.403515625 337.9 323.55 337.9537109375 325.38046875 338.6 326.95 338.724609375 327.2662109375 338.85 327.55 339.49921875 328.8396484375 340.55 329.85 341.137890625 330.4142578125 341.85 330.85 342.646484375 331.3791015625 343.6 331.75 344.859375 332.2537109375 346.3 332.4 346.861328125 332.45 347.45 332.45 349.75 332.45 351.6 331.7 353.4 331 354.7 329.65
L 363.15 329.65 363.15 331.8 363.15 334.4
Q 363.15 335 363.7 335
L 367.25 335
Q 367.75 335 367.75 334.4
L 367.75 328.5 367.75 313.2
M 347.45 318.1
Q 349.85 318.1 351.3 319.5 352.75 320.95 352.75 323.35 352.75 325.8 351.3 327.2 349.85 328.6 347.45 328.6 346.6322265625 328.6 345.9 328.4 344.634375 328.1021484375 343.7 327.2 342.5099609375 326.0509765625 342.3 324.2 342.25 323.7892578125 342.25 323.35 342.25 320.95 343.7 319.5 345.15 318.1 347.45 318.1
M 357.05 321.45
L 363.15 321.45 363.15 323.9 363.15 326 356.9 326
Q 357.05 325.35 357.15 324.65 357.2109375 324.2541015625 357.2 323.8 357.25 323.5431640625 357.25 323.25 357.25 322.45 357.05 321.45
M 749.45 588.05
Q 750.35 588.95 751.65 588.95 752.9 588.95 753.8 588.05 754.65 587.15 754.65 585.85 754.65 584.55 753.8 583.7 752.9 582.8 751.65 582.8 750.35 582.8 749.45 583.7 748.55 584.55 748.55 585.85 748.55 587.15 749.45 588.05
M 745 567.8
Q 745 567.6 744.8 567.45 744.6 567.3 744.4 567.3
L 739 567.3 739 553.2
Q 739 552.65 738.45 552.65
L 734.9 552.65
Q 734.4 552.65 734.4 553.2
L 734.4 590.1
Q 734.4 590.65 734.9 590.65
L 738.45 590.65
Q 739 590.65 739 590.1
L 739 571.15 744.4 571.15
Q 744.6 571.15 744.8 571 745 570.8 745 570.6
L 745 567.8
M 728.3 555.65
L 713.75 555.65
Q 712.25 555.65 711.7 556.2 711.1 556.8 711.1 558.2
L 711.1 577.15
Q 711.1 578.6 711.8 579.15 712.5 579.75 714 579.85 715.65 579.95 718.05 579.85 720.45 579.8 723 579.55 725.55 579.35 727.9 579 730.3 578.6 731.9 578.15 732.1 578.05 732.3 577.9 732.45 577.8 732.4 577.35
L 731.95 575
Q 731.8 574.4 731.2 574.55 729.4 574.85 727.45 575.15 725.4 575.4 723.5 575.6 721.6 575.8 719.85 575.85 718.15 575.95 716.9 575.8 716.15 575.75 715.9 575.55 715.7 575.35 715.7 574.75
L 715.7 560.2
Q 715.7 559.5 716.4 559.5
L 728.3 559.5
Q 728.85 559.5 728.85 559
L 728.85 556.2
Q 728.85 555.65 728.3 555.65
M 699 552.65
Q 698.45 552.65 698.45 553.2
L 698.45 590.1
Q 698.45 590.65 699 590.65
L 702.55 590.65
Q 703.05 590.65 703.05 590.1
L 703.05 553.2
Q 703.05 552.65 702.55 552.65
L 699 552.65
M 678.8 555.15
Q 678.6 555 678.4 555
L 674.95 555
Q 674.75 555 674.55 555.15 674.4 555.35 674.4 555.55
L 674.4 576.4
Q 674.4 577.75 675.05 578.55 675.75 579.35 677.3 579.4 679.5 579.55 681.9 579.5 684.35 579.4 686.7 579.25 689.05 579.05 691.25 578.75 693.45 578.4 695.2 577.95 695.55 577.85 695.75 577.6 696 577.4 695.9 577.1
L 695.4 574.9
Q 695.35 574.6 695.15 574.4 695 574.2 694.55 574.25 690.45 575.1 686.7 575.4 682.95 575.7 679.75 575.5 679.3 575.45 679.15 575.35 679 575.25 679 574.85
L 679 555.55
Q 679 555.35 678.8 555.15
M 664.95 574.85
Q 664.8 574.7 664.6 574.7
L 661 574.7
Q 660.8 574.7 660.65 574.85 660.5 575 660.5 575.2
L 660.5 579.05 646.4 579.05 646.4 575.35
Q 646.4 575.2 646.2 575.05 646 574.9 645.8 574.9
L 642.3 574.9
Q 642.1 574.9 641.95 575.05 641.8 575.2 641.8 575.35
L 641.8 587.25
Q 641.8 588.8 642.4 589.4 643.05 590 644.8 590
L 662.1 590
Q 663.85 590 664.45 589.35 665.1 588.7 665.1 587.35
L 665.1 575.2
Q 665.1 575 664.95 574.85
M 660.5 585.6
Q 660.5 586.25 659.8 586.25
L 647.1 586.25
Q 646.4 586.25 646.4 585.6
L 646.4 582.8 660.5 582.8 660.5 585.6
M 652.15 556.45
Q 650.9 555.2 649.1 554.5 647.35 553.75 645.2 553.75 643.05 553.75 641.25 554.5 639.45 555.2 638.2 556.45 636.95 557.7 636.25 559.35 635.6 561 635.6 562.8 635.6 564.55 636.25 566.15 636.95 567.8 638.2 569.05 639.45 570.25 641.25 571 643.05 571.75 645.2 571.75 647.35 571.75 649.1 571 650.9 570.25 652.15 569.05 653.4 567.8 654.1 566.15 654.8 564.55 654.8 562.8 654.8 561 654.1 559.35 653.4 557.7 652.15 556.45
M 650.45 562.8
Q 650.45 563.8 650.05 564.75 649.65 565.7 648.95 566.45 648.25 567.15 647.3 567.55 646.35 567.95 645.2 567.95 644 567.95 643.05 567.55 642.1 567.15 641.45 566.45 640.75 565.7 640.35 564.75 640 563.8 640 562.8 640 561.75 640.35 560.8 640.75 559.85 641.45 559.1 642.1 558.4 643.05 557.95 644 557.5 645.2 557.5 646.35 557.5 647.3 557.95 648.25 558.4 648.95 559.1 649.65 559.85 650.05 560.8 650.45 561.75 650.45 562.8
M 665.1 553.2
Q 665.1 552.65 664.6 552.65
L 661 552.65
Q 660.5 552.65 660.5 553.2
L 660.5 572.3
Q 660.5 572.85 661 572.85
L 664.6 572.85
Q 665.1 572.85 665.1 572.3
L 665.1 553.2
M 862.9 468.05
Q 863.8 468.95 865.1 468.95 866.35 468.95 867.25 468.05 868.1 467.15 868.1 465.85 868.1 464.55 867.25 463.7 866.35 462.8 865.1 462.8 863.8 462.8 862.9 463.7 862 464.55 862 465.85 862 467.15 862.9 468.05
M 825.15 436.2
Q 824.55 436.8 824.55 438.2
L 824.55 457.15
Q 824.55 458.6 825.25 459.15 825.95 459.75 827.45 459.85 829.1 459.95 831.5 459.85 833.9 459.8 836.45 459.55 839 459.35 841.35 459 843.75 458.6 845.35 458.15 845.55 458.05 845.75 457.9 845.9 457.8 845.85 457.35
L 845.4 455
Q 845.25 454.4 844.65 454.55 842.85 454.85 840.9 455.15 838.85 455.4 836.95 455.6 835.05 455.8 833.3 455.85 831.6 455.95 830.35 455.8 829.6 455.75 829.35 455.55 829.15 455.35 829.15 454.75
L 829.15 440.2
Q 829.15 439.5 829.85 439.5
L 841.75 439.5
Q 842.3 439.5 842.3 439
L 842.3 436.2
Q 842.3 435.65 841.75 435.65
L 827.2 435.65
Q 825.7 435.65 825.15 436.2
M 852.45 433.2
Q 852.45 432.65 851.9 432.65
L 848.35 432.65
Q 847.85 432.65 847.85 433.2
L 847.85 470.1
Q 847.85 470.65 848.35 470.65
L 851.9 470.65
Q 852.45 470.65 852.45 470.1
L 852.45 451.15 857.85 451.15
Q 858.05 451.15 858.25 451 858.45 450.8 858.45 450.6
L 858.45 447.8
Q 858.45 447.6 858.25 447.45 858.05 447.3 857.85 447.3
L 852.45 447.3 852.45 433.2
M 792.45 435.55
Q 792.45 435.35 792.25 435.15 792.05 435 791.85 435
L 788.4 435
Q 788.2 435 788 435.15 787.85 435.35 787.85 435.55
L 787.85 456.4
Q 787.85 457.75 788.5 458.55 789.2 459.35 790.75 459.4 792.95 459.55 795.35 459.5 797.8 459.4 800.15 459.25 802.5 459.05 804.7 458.75 806.9 458.4 808.65 457.95 809 457.85 809.2 457.6 809.45 457.4 809.35 457.1
L 808.85 454.9
Q 808.8 454.6 808.6 454.4 808.45 454.2 808 454.25 803.9 455.1 800.15 455.4 796.4 455.7 793.2 455.5 792.75 455.45 792.6 455.35 792.45 455.25 792.45 454.85
L 792.45 435.55
M 816.5 433.2
Q 816.5 432.65 816 432.65
L 812.45 432.65
Q 811.9 432.65 811.9 433.2
L 811.9 470.1
Q 811.9 470.65 812.45 470.65
L 816 470.65
Q 816.5 470.65 816.5 470.1
L 816.5 433.2
M 759.85 455.35
Q 759.85 455.2 759.65 455.05 759.45 454.9 759.25 454.9
L 755.75 454.9
Q 755.55 454.9 755.4 455.05 755.25 455.2 755.25 455.35
L 755.25 467.25
Q 755.25 468.8 755.85 469.4 756.5 470 758.25 470
L 775.55 470
Q 777.3 470 777.9 469.35 778.55 468.7 778.55 467.35
L 778.55 455.2
Q 778.55 455 778.4 454.85 778.25 454.7 778.05 454.7
L 774.45 454.7
Q 774.25 454.7 774.1 454.85 773.95 455 773.95 455.2
L 773.95 459.05 759.85 459.05 759.85 455.35
M 760.55 466.25
Q 759.85 466.25 759.85 465.6
L 759.85 462.8 773.95 462.8 773.95 465.6
Q 773.95 466.25 773.25 466.25
L 760.55 466.25
M 758.65 433.75
Q 756.5 433.75 754.7 434.5 752.9 435.2 751.65 436.45 750.4 437.7 749.7 439.35 749.05 441 749.05 442.8 749.05 444.55 749.7 446.15 750.4 447.8 751.65 449.05 752.9 450.25 754.7 451 756.5 451.75 758.65 451.75 760.8 451.75 762.55 451 764.35 450.25 765.6 449.05 766.85 447.8 767.55 446.15 768.25 444.55 768.25 442.8 768.25 441 767.55 439.35 766.85 437.7 765.6 436.45 764.35 435.2 762.55 434.5 760.8 433.75 758.65 433.75
M 753.8 444.75
Q 753.45 443.8 753.45 442.8 753.45 441.75 753.8 440.8 754.2 439.85 754.9 439.1 755.55 438.4 756.5 437.95 757.45 437.5 758.65 437.5 759.8 437.5 760.75 437.95 761.7 438.4 762.4 439.1 763.1 439.85 763.5 440.8 763.9 441.75 763.9 442.8 763.9 443.8 763.5 444.75 763.1 445.7 762.4 446.45 761.7 447.15 760.75 447.55 759.8 447.95 758.65 447.95 757.45 447.95 756.5 447.55 755.55 447.15 754.9 446.45 754.2 445.7 753.8 444.75
M 778.55 433.2
Q 778.55 432.65 778.05 432.65
L 774.45 432.65
Q 773.95 432.65 773.95 433.2
L 773.95 452.3
Q 773.95 452.85 774.45 452.85
L 778.05 452.85
Q 778.55 452.85 778.55 452.3
L 778.55 433.2
M 452.2 577.6
L 448.8 577.6
Q 448.55 577.6 448.4 577.8 448.2 577.95 448.2 578.2
L 448.2 586.85
Q 448.2 588.4 448.85 589.05 449.45 589.7 451.3 589.7
L 473.3 589.7
Q 473.5 589.7 473.7 589.55 473.9 589.45 473.9 589.2
L 473.9 586.35
Q 473.9 586.15 473.7 586 473.5 585.85 473.3 585.85
L 453.55 585.85
Q 453.15 585.85 453 585.75 452.8 585.65 452.8 585.2
L 452.8 578.2
Q 452.8 577.95 452.65 577.8 452.45 577.6 452.2 577.6
M 473.4 566.35
L 473.4 563.5
Q 473.4 563.3 473.25 563.15 473.05 563 472.85 563
L 453.75 563
Q 453.3 563 453.15 562.9 453 562.8 453 562.4
L 453 553.95
Q 453 553.75 452.8 553.55 452.6 553.4 452.35 553.4
L 448.9 553.4
Q 448.7 553.4 448.5 553.55 448.35 553.75 448.35 553.95
L 448.35 564
Q 448.35 565.55 448.95 566.2 449.6 566.85 451.4 566.85
L 472.85 566.85
Q 473.05 566.85 473.25 566.75 473.4 566.6 473.4 566.35
M 443 571
Q 442.4 571 442.4 571.55
L 442.4 574.2
Q 442.4 574.4 442.55 574.6 442.7 574.85 443 574.85
L 477.75 574.85
Q 478 574.85 478.15 574.6 478.35 574.4 478.35 574.2
L 478.35 571.55
Q 478.35 571.35 478.15 571.15 478 571 477.75 571
L 443 571
M 425.4 563.25
Q 426.85 564.55 428.6 565.65 430.4 566.7 432.35 567.5 434.3 568.25 436.25 568.6 436.9 568.75 437.1 568.25
L 438.3 565.6
Q 438.4 565.3 438.25 565.1 438.1 564.9 437.8 564.85 435.65 564.3 433.6 563.4 431.55 562.5 429.85 561.25 428.15 560.05 426.85 558.6 425.6 557.15 425.05 555.5 425.2 554.5 425.3 553.3 425.3 552.65 424.75 552.65
L 421.35 552.55
Q 421.05 552.55 420.85 552.75 420.7 552.95 420.65 553.25 420.4 555.75 419.45 557.7 418.5 559.6 416.85 561.1 415.2 562.6 412.95 563.7 410.7 564.8 407.85 565.6 407.55 565.65 407.4 565.9 407.3 566.2 407.4 566.45
L 408.8 569.05
Q 408.9 569.2 409.15 569.25 409.45 569.25 409.75 569.2 414.3 568 417.75 565.85 421.2 563.65 423.1 560.6 423.95 562 425.4 563.25
M 404.8 576.05
Q 404.8 576.25 404.95 576.5 405.1 576.7 405.4 576.7
L 420.45 576.7 420.45 589.8
Q 420.45 590.35 421 590.35
L 424.5 590.35
Q 425.05 590.35 425.05 589.8
L 425.05 576.7 440.2 576.7
Q 440.4 576.7 440.6 576.5 440.8 576.25 440.8 576.05
L 440.8 573.45
Q 440.8 573.25 440.6 573.05 440.4 572.85 440.2 572.85
L 405.4 572.85
Q 405.1 572.85 404.95 573.05 404.8 573.25 404.8 573.45
L 404.8 576.05
M 368.75 577.45
L 365.3 577.45
Q 365.1 577.45 364.9 577.6 364.7 577.8 364.7 577.95
L 364.7 587
Q 364.7 588.6 365.35 589.2 365.95 589.85 367.75 589.85
L 388.5 589.85
Q 388.7 589.85 388.9 589.75 389.1 589.6 389.1 589.4
L 389.1 586.5
Q 389.1 586.3 388.9 586.15 388.7 586 388.5 586
L 370.1 586
Q 369.7 586 369.55 585.9 369.35 585.8 369.35 585.35
L 369.35 577.95
Q 369.35 577.8 369.2 577.6 369 577.45 368.75 577.45
M 387.85 553.2
Q 387.85 552.65 387.35 552.65
L 383.75 552.65
Q 383.25 552.65 383.25 553.2
L 383.25 579.05
Q 383.25 579.6 383.75 579.6
L 387.35 579.6
Q 387.85 579.6 387.85 579.1
L 387.85 553.2
M 358.1 563.95
Q 358.1 565.95 358.8 567.7 359.55 569.45 360.8 570.75 362.1 572.05 363.85 572.8 365.6 573.6 367.75 573.6 369.95 573.6 371.75 572.8 373.55 572.05 374.85 570.75 376.15 569.45 376.85 567.7 377.55 565.95 377.55 563.95 377.55 562 376.85 560.3 376.15 558.55 374.85 557.2 373.55 555.85 371.75 555.1 369.95 554.3 367.75 554.3 365.6 554.3 363.85 555.1 362.1 555.85 360.8 557.2 359.55 558.55 358.8 560.3 358.1 562 358.1 563.95
M 363 566.25
Q 362.6 565.2 362.6 564.05 362.6 562.85 363 561.85 363.4 560.8 364.05 560.05 364.7 559.3 365.7 558.85 366.6 558.4 367.75 558.4 368.9 558.4 369.9 558.85 370.85 559.3 371.55 560.05 372.25 560.8 372.65 561.85 373 562.85 373 564.05 373 565.2 372.65 566.25 372.25 567.3 371.55 568.05 370.85 568.8 369.9 569.25 368.9 569.7 367.75 569.7 366.6 569.7 365.7 569.25 364.7 568.8 364.05 568.05 363.4 567.3 363 566.25
M 347.85 553.2
L 347.85 567.35 344.15 567.35 344.15 553.9
Q 344.15 553.4 343.6 553.4
L 340.35 553.4
Q 339.8 553.4 339.8 553.9
L 339.8 588.6
Q 339.8 589.15 340.35 589.15
L 343.6 589.15
Q 344.15 589.15 344.15 588.6
L 344.15 571.2 347.85 571.2 347.85 590.1
Q 347.85 590.65 348.35 590.65
L 351.85 590.65
Q 352.4 590.65 352.4 590.1
L 352.4 553.2
Q 352.4 552.65 351.85 552.65
L 348.4 552.65
Q 347.85 552.65 347.85 553.2
M 321.75 555.8
Q 321.55 555.8 321.35 555.95 321.15 556.1 321.15 556.3
L 321.15 559.05
Q 321.15 559.55 321.75 559.55
L 330.6 559.55
Q 331.4 559.55 331.6 559.85 331.8 560.15 331.75 561 331.7 562.95 330.85 565.3 330 567.6 328.45 569.9 326.95 572.15 324.75 574.3 322.55 576.45 319.85 578.1 319.65 578.25 319.5 578.55 319.35 578.85 319.6 579.2
L 321.2 581.45
Q 321.4 581.7 321.75 581.65 322.05 581.6 322.4 581.45 325.5 579.4 328.1 576.9 330.65 574.4 332.45 571.5 334.25 568.6 335.25 565.35 336.25 562.15 336.3 558.65 336.35 557.1 335.75 556.45 335.1 555.8 333.35 555.8
L 321.75 555.8
M 311.85 555.9
Q 310.45 555.7 309.3 555.7 305.55 555.7 303 557 300.45 558.35 298.85 560.6 297.3 562.8 296.6 565.85 295.9 568.85 295.9 572.25 295.9 579.7 298.45 583.25 301 586.8 305.7 586.8 308 586.8 309.85 586 311.7 585.2 313 583.75 314.3 582.4 314.95 580.45 315.65 578.6 315.65 576.4 315.65 574.1 314.95 572.3 314.25 570.45 312.95 569.15 311.7 567.85 309.9 567.15 308.15 566.45 305.95 566.45 305.2 566.45 304.4 566.7 303.6 566.9 302.85 567.25 302.1 567.6 301.5 568.05 300.9 568.5 300.55 569 300.8 567.05 301.4 565.35 301.95 563.7 302.95 562.45 303.95 561.2 305.4 560.5 306.9 559.85 308.95 559.85 310.35 559.85 311.55 559.95 312.7 560.05 313.75 560.45 314.3 560.7 314.4 560.15
L 314.5 556.95
Q 314.55 556.55 314.2 556.45 313.3 556.1 311.85 555.9
M 300.55 576.2
Q 300.55 573.75 302.05 572.2 303.5 570.65 306.1 570.65 308.55 570.65 309.9 572.25 311.25 573.8 311.25 576.6 311.25 579.45 309.75 581.15 308.2 582.8 305.8 582.8 304.7 582.8 303.7 582.3 302.75 581.8 302.05 580.9 301.35 580 300.95 578.75 300.55 577.6 300.55 576.2
M 280.3 555.7
Q 278.45 555.7 276.45 556.35 274.5 557 273 557.8 272.6 558 272.45 558.25 272.35 558.4 272.45 558.6
L 273 561.65
Q 273.1 562 273.4 562.05 273.7 562.05 274.05 561.85 275.85 560.8 277.35 560.35 278.9 559.9 280.55 559.9 282.3 559.9 283.45 561.15 284.65 562.4 284.65 564.3 284.65 566 283.05 568.6 281.45 571.25 278.1 575.2
L 272 582.45
Q 271.8 582.75 271.6 583.05 271.45 583.4 271.45 583.7
L 271.45 586
Q 271.45 586.5 272.2 586.5
L 289.25 586.5
Q 289.8 586.5 289.8 585.8
L 289.8 583
Q 289.8 582.4 289.25 582.4
L 277.5 582.4
Q 278.5 581.25 279.5 580.1 280.5 578.9 281.35 577.8 282.45 576.5 283.85 574.9 285.2 573.25 286.4 571.5 287.6 569.7 288.4 567.85 289.2 566 289.2 564.2 289.2 562.1 288.5 560.5 287.8 558.9 286.65 557.85 285.5 556.8 283.85 556.25 282.25 555.7 280.3 555.7
M 263.7 556.65
Q 263.7 556.3 263.65 556.2 263.6 556.05 263.3 556.05
L 259.65 556.05
Q 259.25 556.05 259.15 556.15 259.05 556.25 258.85 556.6
L 246.45 575.2
Q 246.3 575.35 246.15 575.65 245.95 575.95 245.95 576.2
L 245.95 579.2
Q 245.95 579.5 246.1 579.55 246.25 579.65 246.6 579.65
L 259.4 579.65 259.4 585.75
Q 259.4 586.15 259.55 586.3 259.7 586.45 260.15 586.45
L 263.05 586.45
Q 263.45 586.45 263.55 586.3 263.7 586.2 263.7 585.75
L 263.7 579.65 267.4 579.65
Q 267.75 579.65 267.9 579.55 268.05 579.45 268.05 579.05
L 268.05 576.15
Q 268.05 575.75 267.9 575.65 267.75 575.55 267.4 575.55
L 263.7 575.55 263.7 556.65
M 259.4 575.55
L 250.8 575.55 259.4 562.5 259.4 575.55
M 225 552.65
Q 224.45 552.65 224.45 553.2
L 224.45 590.1
Q 224.45 590.65 225 590.65
L 228.55 590.65
Q 229.05 590.65 229.05 590.1
L 229.05 553.2
Q 229.05 552.65 228.55 552.65
L 225 552.65
M 202.1 558.65
Q 200.85 560.35 200.15 562.8 199.45 565.2 199.45 568.25 199.45 571.15 200.15 573.6 200.85 576 202.1 577.75 203.35 579.5 205.2 580.45 207 581.45 209.3 581.45 211.65 581.45 213.45 580.45 215.25 579.55 216.55 577.8 217.8 576.1 218.45 573.65 219.15 571.2 219.15 568.25 219.15 565.2 218.45 562.8 217.8 560.35 216.55 558.65 215.25 556.95 213.45 556 211.65 555.05 209.3 555.05 207 555.05 205.2 556 203.35 556.95 202.1 558.65
M 209.3 559.15
Q 210.55 559.15 211.55 559.85 212.55 560.6 213.25 561.8 213.9 563.05 214.25 564.75 214.6 566.4 214.6 568.25 214.6 570 214.25 571.7 213.9 573.35 213.25 574.6 212.55 575.85 211.55 576.6 210.55 577.35 209.3 577.35 208 577.35 207.05 576.6 206.05 575.85 205.4 574.6 204.7 573.35 204.35 571.7 203.95 570 203.95 568.25 203.95 566.4 204.35 564.75 204.7 563.05 205.4 561.8 206.05 560.6 207.05 559.85 208 559.15 209.3 559.15
M 145.4 567.8
Q 145.25 566 144.85 564.3 144.45 562.6 143.75 561.05 143.05 559.5 141.9 558.3 140.85 557.15 139.25 556.45 137.7 555.8 135.65 555.8 132.45 555.8 130.5 557.25 128.55 558.75 127.45 561 126.35 563.3 125.95 566 125.6 568.75 125.6 571.2 125.6 578.55 128.05 582.6 130.5 586.65 135.65 586.65 138.2 586.65 140.05 585.65 141.9 584.55 143.15 582.6 144.4 580.65 145 577.75 145.6 574.85 145.6 571.2 145.6 569.55 145.4 567.8
M 135.65 560.15
Q 136.85 560.15 137.9 560.75 138.9 561.3 139.65 562.6 140.35 563.95 140.75 566.05 141.1 568.2 141.1 571.2 141.1 574.3 140.75 576.45 140.35 578.55 139.65 579.85 138.9 581.2 137.9 581.75 136.85 582.35 135.65 582.35 134.35 582.35 133.35 581.75 132.35 581.2 131.65 579.85 130.9 578.55 130.55 576.45 130.15 574.3 130.15 571.2 130.15 568.2 130.55 566.05 130.9 563.95 131.65 562.6 132.35 561.3 133.35 560.75 134.35 560.15 135.65 560.15
M 115.4 588.05
Q 116.3 588.95 117.6 588.95 118.85 588.95 119.75 588.05 120.6 587.15 120.6 585.85 120.6 584.55 119.75 583.7 118.85 582.8 117.6 582.8 116.3 582.8 115.4 583.7 114.5 584.55 114.5 585.85 114.5 587.15 115.4 588.05
M 168 561.05
Q 167.3 559.5 166.15 558.3 165.1 557.15 163.5 556.45 161.95 555.8 159.9 555.8 156.7 555.8 154.75 557.25 152.8 558.75 151.7 561 150.6 563.3 150.2 566 149.85 568.75 149.85 571.2 149.85 578.55 152.3 582.6 154.75 586.65 159.9 586.65 162.45 586.65 164.3 585.65 166.15 584.55 167.4 582.6 168.65 580.65 169.25 577.75 169.85 574.85 169.85 571.2 169.85 569.55 169.65 567.8 169.5 566 169.1 564.3 168.7 562.6 168 561.05
M 163.9 562.6
Q 164.6 563.95 165 566.05 165.35 568.2 165.35 571.2 165.35 574.3 165 576.45 164.6 578.55 163.9 579.85 163.15 581.2 162.15 581.75 161.1 582.35 159.9 582.35 158.6 582.35 157.6 581.75 156.6 581.2 155.9 579.85 155.15 578.55 154.8 576.45 154.4 574.3 154.4 571.2 154.4 568.2 154.8 566.05 155.15 563.95 155.9 562.6 156.6 561.3 157.6 560.75 158.6 560.15 159.9 560.15 161.1 560.15 162.15 560.75 163.15 561.3 163.9 562.6
M 183.6 556.15
Q 183.4 556.2 183.35 556.3
L 177.2 561.95
Q 177 562.15 177 562.35 176.95 562.6 177.1 562.75
L 178.9 564.9
Q 179.05 565.05 179.3 565 179.55 565 179.8 564.85
L 182.75 562.25 182.75 585.95
Q 182.75 586.45 183.3 586.45
L 186.5 586.45
Q 187 586.45 187 585.95
L 187 557.15
Q 187 556.35 186.85 556.2 186.75 556.05 186.05 556.05
L 183.95 556.05
Q 183.8 556.05 183.6 556.15
M 109.05 567.8
Q 108.9 566 108.5 564.3 108.1 562.6 107.4 561.05 106.7 559.5 105.55 558.3 104.5 557.15 102.9 556.45 101.35 555.8 99.3 555.8 96.1 555.8 94.15 557.25 92.2 558.75 91.1 561 90 563.3 89.6 566 89.25 568.75 89.25 571.2 89.25 578.55 91.7 582.6 94.15 586.65 99.3 586.65 101.85 586.65 103.7 585.65 105.55 584.55 106.8 582.6 108.05 580.65 108.65 577.75 109.25 574.85 109.25 571.2 109.25 569.55 109.05 567.8
M 101.55 560.75
Q 102.55 561.3 103.3 562.6 104 563.95 104.4 566.05 104.75 568.2 104.75 571.2 104.75 574.3 104.4 576.45 104 578.55 103.3 579.85 102.55 581.2 101.55 581.75 100.5 582.35 99.3 582.35 98 582.35 97 581.75 96 581.2 95.3 579.85 94.55 578.55 94.2 576.45 93.8 574.3 93.8 571.2 93.8 568.2 94.2 566.05 94.55 563.95 95.3 562.6 96 561.3 97 560.75 98 560.15 99.3 560.15 100.5 560.15 101.55 560.75
M 587 466.35
Q 587 466.15 586.8 466 586.6 465.85 586.4 465.85
L 566.65 465.85
Q 566.25 465.85 566.1 465.75 565.9 465.65 565.9 465.2
L 565.9 458.2
Q 565.9 457.95 565.75 457.8 565.55 457.6 565.3 457.6
L 561.9 457.6
Q 561.65 457.6 561.5 457.8 561.3 457.95 561.3 458.2
L 561.3 466.85
Q 561.3 468.4 561.95 469.05 562.55 469.7 564.4 469.7
L 586.4 469.7
Q 586.6 469.7 586.8 469.55 587 469.45 587 469.2
L 587 466.35
M 591.45 454.2
L 591.45 451.55
Q 591.45 451.35 591.25 451.15 591.1 451 590.85 451
L 556.1 451
Q 555.5 451 555.5 451.55
L 555.5 454.2
Q 555.5 454.4 555.65 454.6 555.8 454.85 556.1 454.85
L 590.85 454.85
Q 591.1 454.85 591.25 454.6 591.45 454.4 591.45 454.2
M 586.5 443.5
Q 586.5 443.3 586.35 443.15 586.15 443 585.95 443
L 566.85 443
Q 566.4 443 566.25 442.9 566.1 442.8 566.1 442.4
L 566.1 433.95
Q 566.1 433.75 565.9 433.55 565.7 433.4 565.45 433.4
L 562 433.4
Q 561.8 433.4 561.6 433.55 561.45 433.75 561.45 433.95
L 561.45 444
Q 561.45 445.55 562.05 446.2 562.7 446.85 564.5 446.85
L 585.95 446.85
Q 586.15 446.85 586.35 446.75 586.5 446.6 586.5 446.35
L 586.5 443.5
M 518.5 452.85
Q 518.2 452.85 518.05 453.05 517.9 453.25 517.9 453.45
L 517.9 456.05
Q 517.9 456.25 518.05 456.5 518.2 456.7 518.5 456.7
L 533.55 456.7 533.55 469.8
Q 533.55 470.35 534.1 470.35
L 537.6 470.35
Q 538.15 470.35 538.15 469.8
L 538.15 456.7 553.3 456.7
Q 553.5 456.7 553.7 456.5 553.9 456.25 553.9 456.05
L 553.9 453.45
Q 553.9 453.25 553.7 453.05 553.5 452.85 553.3 452.85
L 518.5 452.85
M 534.45 432.55
Q 534.15 432.55 533.95 432.75 533.8 432.95 533.75 433.25 533.5 435.75 532.55 437.7 531.6 439.6 529.95 441.1 528.3 442.6 526.05 443.7 523.8 444.8 520.95 445.6 520.65 445.65 520.5 445.9 520.4 446.2 520.5 446.45
L 521.9 449.05
Q 522 449.2 522.25 449.25 522.55 449.25 522.85 449.2 527.4 448 530.85 445.85 534.3 443.65 536.2 440.6 537.05 442 538.5 443.25 539.95 444.55 541.7 445.65 543.5 446.7 545.45 447.5 547.4 448.25 549.35 448.6 550 448.75 550.2 448.25
L 551.4 445.6
Q 551.5 445.3 551.35 445.1 551.2 444.9 550.9 444.85 548.75 444.3 546.7 443.4 544.65 442.5 542.95 441.25 541.25 440.05 539.95 438.6 538.7 437.15 538.15 435.5 538.3 434.5 538.4 433.3 538.4 432.65 537.85 432.65
L 534.45 432.55
M 500.6 469.2
L 500.6 466.35
Q 500.6 466.15 500.4 466 500.2 465.85 500 465.85
L 480.25 465.85
Q 479.85 465.85 479.7 465.75 479.5 465.65 479.5 465.2
L 479.5 458.2
Q 479.5 457.95 479.35 457.8 479.15 457.6 478.9 457.6
L 475.5 457.6
Q 475.25 457.6 475.1 457.8 474.9 457.95 474.9 458.2
L 474.9 466.85
Q 474.9 468.4 475.55 469.05 476.15 469.7 478 469.7
L 500 469.7
Q 500.2 469.7 500.4 469.55 500.6 469.45 500.6 469.2
M 505.05 454.2
L 505.05 451.55
Q 505.05 451.35 504.85 451.15 504.7 451 504.45 451
L 469.7 451
Q 469.1 451 469.1 451.55
L 469.1 454.2
Q 469.1 454.4 469.25 454.6 469.4 454.85 469.7 454.85
L 504.45 454.85
Q 504.7 454.85 504.85 454.6 505.05 454.4 505.05 454.2
M 500.1 443.5
Q 500.1 443.3 499.95 443.15 499.75 443 499.55 443
L 480.45 443
Q 480 443 479.85 442.9 479.7 442.8 479.7 442.4
L 479.7 433.95
Q 479.7 433.75 479.5 433.55 479.3 433.4 479.05 433.4
L 475.6 433.4
Q 475.4 433.4 475.2 433.55 475.05 433.75 475.05 433.95
L 475.05 444
Q 475.05 445.55 475.65 446.2 476.3 446.85 478.1 446.85
L 499.55 446.85
Q 499.75 446.85 499.95 446.75 500.1 446.6 500.1 446.35
L 500.1 443.5
M 438.75 435.95
Q 438.75 435.75 438.55 435.55 438.35 435.35 438.1 435.35
L 434.8 435.35
Q 434.55 435.35 434.35 435.55 434.2 435.75 434.2 435.95
L 434.2 456.55
Q 434.2 457.9 434.95 458.7 435.7 459.45 437.15 459.55 438.7 459.6 440.5 459.55 442.25 459.5 444.1 459.35 445.9 459.2 447.6 458.9 449.3 458.6 450.7 458.2 451 458.1 451.2 457.95 451.4 457.8 451.35 457.55
L 450.95 455
Q 450.9 454.7 450.65 454.6 450.35 454.55 450.15 454.55 448.85 454.9 447.35 455.15 445.9 455.35 444.5 455.55 443.05 455.7 441.75 455.75 440.5 455.8 439.45 455.65 438.75 455.65 438.75 455
L 438.75 435.95
M 464.85 432.65
L 461.45 432.65
Q 461.25 432.65 461.05 432.8 460.85 432.95 460.85 433.2
L 460.85 447.35 457.1 447.35 457.1 433.9
Q 457.1 433.7 456.9 433.55 456.7 433.4 456.5 433.4
L 453.25 433.4
Q 453.05 433.4 452.85 433.55 452.65 433.7 452.65 433.9
L 452.65 468.6
Q 452.65 468.8 452.85 469 453.05 469.15 453.25 469.15
L 456.5 469.15
Q 456.7 469.15 456.9 469 457.1 468.8 457.1 468.6
L 457.1 451.2 460.85 451.2 460.85 470.1
Q 460.85 470.3 461.05 470.45 461.25 470.65 461.45 470.65
L 464.85 470.65
Q 465.45 470.65 465.45 470.1
L 465.45 433.2
Q 465.45 432.65 464.85 432.65
M 413.75 439.5
Q 414.3 439.5 414.3 439
L 414.3 436.2
Q 414.3 435.65 413.75 435.65
L 399.2 435.65
Q 397.7 435.65 397.15 436.2 396.55 436.8 396.55 438.2
L 396.55 458.05
Q 396.55 459.35 397.25 460 397.95 460.65 399.45 460.75 401.1 460.9 403.55 460.85 406 460.8 408.55 460.6 411.1 460.35 413.35 460.05 415.65 459.75 416.95 459.3 417.15 459.2 417.35 459.05 417.5 458.9 417.45 458.45
L 417.05 456.2
Q 416.9 455.65 416.3 455.75 414.5 456.05 412.55 456.3 410.65 456.55 408.8 456.7 406.9 456.8 405.25 456.85 403.6 456.9 402.35 456.8 401.6 456.8 401.35 456.55 401.15 456.35 401.15 455.7
L 401.15 450.15
Q 402.6 450.15 404.25 450.15 405.9 450.15 407.55 450.1 409.15 450.05 410.7 450 412.25 449.95 413.6 449.85 414.05 449.85 414.05 449.2
L 414.05 446.45
Q 414.05 446.25 413.8 446.2 413.6 446.1 413.4 446.1 412.15 446.2 410.65 446.2 409.2 446.25 407.6 446.25 406 446.3 404.35 446.3 402.7 446.3 401.15 446.3
L 401.15 440.2
Q 401.15 439.5 401.85 439.5
L 413.75 439.5
M 424.45 433.2
Q 424.45 432.65 423.9 432.65
L 420.35 432.65
Q 419.85 432.65 419.85 433.2
L 419.85 470.1
Q 419.85 470.65 420.35 470.65
L 423.9 470.65
Q 424.45 470.65 424.45 470.1
L 424.45 451.15 429.85 451.15
Q 430.05 451.15 430.25 451 430.45 450.8 430.45 450.6
L 430.45 447.8
Q 430.45 447.6 430.25 447.45 430.05 447.3 429.85 447.3
L 424.45 447.3 424.45 433.2
M 364 435.55
Q 364 435.35 363.8 435.15 363.65 435 363.4 435
L 359.95 435
Q 359.75 435 359.55 435.15 359.4 435.35 359.4 435.55
L 359.4 456.35
Q 359.4 457.7 360.05 458.45 360.75 459.2 362.3 459.4 364 459.55 366.35 459.45 368.75 459.35 371.25 459.05 373.7 458.75 376 458.4 378.25 458 379.75 457.6 380.1 457.55 380.3 457.3 380.5 457.05 380.45 456.8
L 380 454.55
Q 379.9 454.3 379.75 454.1 379.55 453.85 379.1 453.95 377.45 454.35 375.55 454.65 373.7 455 371.7 455.25 369.8 455.45 367.95 455.5 366.15 455.6 364.7 455.45 364.3 455.4 364.15 455.3 364 455.2 364 454.85
L 364 435.55
M 386.85 433.2
Q 386.85 432.65 386.3 432.65
L 382.75 432.65
Q 382.25 432.65 382.25 433.2
L 382.25 470.1
Q 382.25 470.65 382.75 470.65
L 386.3 470.65
Q 386.85 470.65 386.85 470.1
L 386.85 451.15 392.25 451.15
Q 392.45 451.15 392.65 451 392.85 450.8 392.85 450.6
L 392.85 447.8
Q 392.85 447.6 392.65 447.45 392.45 447.3 392.25 447.3
L 386.85 447.3 386.85 433.2
M 339.7 433.2
Q 339.7 432.65 339.2 432.65
L 335.65 432.65
Q 335.1 432.65 335.1 433.2
L 335.1 470.1
Q 335.1 470.65 335.65 470.65
L 339.2 470.65
Q 339.7 470.65 339.7 470.1
L 339.7 433.2
M 319.95 435.05
Q 317.65 435.05 315.85 436 314 436.95 312.75 438.65 311.5 440.35 310.8 442.8 310.1 445.2 310.1 448.25 310.1 451.15 310.8 453.6 311.5 456 312.75 457.75 314 459.5 315.85 460.45 317.65 461.45 319.95 461.45 322.3 461.45 324.1 460.45 325.9 459.55 327.2 457.8 328.45 456.1 329.1 453.65 329.8 451.2 329.8 448.25 329.8 445.2 329.1 442.8 328.45 440.35 327.2 438.65 325.9 436.95 324.1 436 322.3 435.05 319.95 435.05
M 315 444.75
Q 315.35 443.05 316.05 441.8 316.7 440.6 317.7 439.85 318.65 439.15 319.95 439.15 321.2 439.15 322.2 439.85 323.2 440.6 323.9 441.8 324.55 443.05 324.9 444.75 325.25 446.4 325.25 448.25 325.25 450 324.9 451.7 324.55 453.35 323.9 454.6 323.2 455.85 322.2 456.6 321.2 457.35 319.95 457.35 318.65 457.35 317.7 456.6 316.7 455.85 316.05 454.6 315.35 453.35 315 451.7 314.6 450 314.6 448.25 314.6 446.4 315 444.75
M 291.15 436.25
Q 289.45 436.8 288.2 437.8 286.95 438.8 286.2 440.2 285.45 441.6 285.45 443.3 285.45 445.6 286.85 447.4 288.25 449.2 290.65 450.6 289.45 451.2 288.35 451.9 287.25 452.6 286.45 453.5 285.65 454.4 285.1 455.55 284.65 456.7 284.65 458.2 284.65 460.35 285.55 461.95 286.45 463.6 287.9 464.65 289.35 465.7 291.15 466.25 293 466.8 294.8 466.8 296.75 466.8 298.55 466.25 300.45 465.7 301.85 464.65 303.25 463.6 304.1 461.95 305 460.35 305 458.2 305 456.8 304.55 455.8 304.15 454.75 303.35 453.85 302.55 452.95 301.45 452.15 300.3 451.4 298.9 450.55 301.5 448.75 302.75 447 304 445.2 304 443.2 304 441.45 303.3 440.05 302.6 438.65 301.4 437.7 300.2 436.75 298.5 436.2 296.8 435.7 294.8 435.7 292.85 435.7 291.15 436.25
M 290.6 445.25
Q 290 444.45 290 443.6 290 442.65 290.45 441.9 290.9 441.2 291.6 440.7 292.25 440.2 293.1 439.9 293.95 439.6 294.8 439.6 295.75 439.6 296.6 439.95 297.45 440.2 298.1 440.75 298.75 441.3 299.1 442 299.5 442.7 299.5 443.5 299.5 444.2 299 445 298.5 445.8 297.75 446.55 297 447.25 296.2 447.8 295.45 448.35 294.8 448.6 294.3 448.4 293.5 447.9 292.7 447.45 291.9 446.75 291.15 446.05 290.6 445.25
M 294.8 452.8
Q 295.8 453.15 296.8 453.75 297.8 454.35 298.65 455.05 299.45 455.8 299.95 456.6 300.45 457.45 300.45 458.2 300.45 459.25 299.95 460.1 299.45 460.95 298.65 461.55 297.85 462.15 296.85 462.45 295.8 462.75 294.8 462.75 293.85 462.75 292.8 462.45 291.8 462.1 290.95 461.5 290.15 460.9 289.65 460.05 289.1 459.2 289.1 458.2 289.1 456.95 289.7 456.05 290.3 455.15 291.15 454.5 292 453.85 293.05 453.45 294 453 294.8 452.8
M 262.75 433.2
L 262.75 445.1 254.5 445.1
Q 254.3 445.1 254.15 445.25 253.95 445.35 253.95 445.6
L 253.95 448.4
Q 253.95 448.6 254.15 448.75 254.3 448.95 254.5 448.95
L 262.75 448.95 262.75 470.1
Q 262.75 470.65 263.25 470.65
L 266.85 470.65
Q 267.35 470.65 267.35 470.1
L 267.35 433.2
Q 267.35 432.65 266.85 432.65
L 263.25 432.65
Q 262.75 432.65 262.75 433.2
M 248.55 444.4
Q 249.25 440.25 249.25 435.35 249.25 435.1 249.1 434.95 248.95 434.75 248.75 434.75
L 245.2 434.6
Q 245 434.6 244.8 434.8 244.6 435 244.6 435.2 244.7 438.75 244.35 441.8 243.95 444.85 242.95 447.75 241.85 451 240 453.9 238.15 456.8 235.55 459.2 234.85 459.85 235.4 460.35
L 237.3 462.15
Q 237.95 462.8 238.7 462.15 239.75 461.3 240.9 460.1 242 458.95 243 457.5 244 456.1 244.95 454.55 245.85 452.95 246.55 451.3 247.05 452.6 247.9 454.05 248.75 455.45 249.75 456.8 250.75 458.15 251.85 459.3 252.95 460.45 253.95 461.2 254.35 461.5 254.7 461.45 255.05 461.45 255.2 461.15
L 256.9 459.1
Q 257.45 458.3 256.85 457.8 255.5 456.8 254.2 455.25 252.85 453.75 251.75 451.95 250.6 450.2 249.75 448.25 248.9 446.3 248.55 444.4
M 230.8 433.2
Q 230.8 432.65 230.25 432.65
L 226.8 432.65
Q 226.25 432.65 226.25 433.2
L 226.25 470.15
Q 226.25 470.65 226.8 470.65
L 230.25 470.65
Q 230.8 470.65 230.8 470.15
L 230.8 433.2
M 212.4 437.95
Q 211.2 436.6 209.7 435.95 208.2 435.3 206.4 435.3 204.6 435.3 203.05 436.05 201.5 436.8 200.4 438.4 199.25 439.95 198.6 442.3 198 444.65 198 447.8 198 450.75 198.6 453.05 199.2 455.35 200.3 457 201.35 458.6 202.95 459.5 204.5 460.35 206.4 460.35 208.15 460.35 209.6 459.65 211.1 458.95 212.25 457.6 213.4 456.25 214.15 454.35 214.85 452.45 215.05 450
L 218.7 450 218.7 468.75
Q 218.7 469.35 219.25 469.35
L 222.55 469.35
Q 223.05 469.35 223.05 468.75
L 223.05 433.85
Q 223.05 433.35 222.55 433.35
L 219.25 433.35
Q 218.7 433.35 218.7 433.85
L 218.7 446.15 215.15 446.15
Q 215 443.4 214.25 441.35 213.55 439.3 212.4 437.95
M 203.4 442.1
Q 203.9 440.85 204.65 440.1 205.4 439.3 206.45 439.3 207.6 439.3 208.4 440.05 209.25 440.8 209.75 442.05 210.25 443.3 210.5 444.85 210.75 446.35 210.75 447.85 210.75 449.35 210.5 450.85 210.2 452.4 209.7 453.6 209.2 454.85 208.4 455.65 207.6 456.45 206.45 456.45 205.4 456.45 204.65 455.65 203.9 454.85 203.4 453.6 202.95 452.35 202.7 450.8 202.45 449.3 202.45 447.85 202.45 446.4 202.7 444.85 202.95 443.35 203.4 442.1
M 176.3 436.15
Q 176.15 436.25 176.15 436.7
L 175.95 451.45
Q 175.95 452.8 177.5 452.15 178.75 451.7 180.15 451.45 181.55 451.15 182.85 451.15 186.15 451.15 187.55 452.7 189 454.2 189 456.8 189 459.5 187.2 461 185.5 462.55 182.8 462.55 182.1 462.55 181.25 462.45 180.45 462.4 179.6 462.25 178.75 462.05 177.95 461.85 177.15 461.6 176.6 461.3 175.75 460.9 175.75 461.6
L 175.75 464.85
Q 175.75 465.15 175.75 465.3 175.8 465.4 176.05 465.6 176.7 465.9 177.65 466.1 178.55 466.35 179.5 466.5 180.45 466.6 181.25 466.7 182.1 466.75 182.5 466.75 184.8 466.75 186.85 466.1 188.95 465.45 190.35 464.15 193.5 461.35 193.5 456.3 193.5 454.2 192.75 452.55 192 450.85 190.7 449.65 189.4 448.5 187.65 447.85 185.9 447.25 183.9 447.25 181.95 447.25 180.35 447.6
L 180.5 440.2 191.65 440.2
Q 191.9 440.2 192.05 440 192.15 439.85 192.15 439.6
L 192.15 436.55
Q 192.15 436.35 192.05 436.2 191.9 436 191.65 436
L 177 436
Q 176.4 436 176.3 436.15
M 168.4 443.4
Q 168.4 441.4 167.55 439.9 166.7 438.4 165.35 437.5 164.05 436.6 162.3 436.15 160.55 435.7 158.75 435.7 157.05 435.7 155.4 436.05 153.7 436.45 151.95 437.05 151.55 437.25 151.4 437.45 151.25 437.6 151.35 437.85
L 151.7 440.8
Q 151.8 441.15 152 441.25 152.2 441.35 152.7 441.15 153.3 440.9 154.1 440.65 154.9 440.4 155.7 440.25 156.5 440.05 157.25 439.95 157.95 439.85 158.5 439.85 159.35 439.85 160.3 440.05 161.25 440.25 162.1 440.75 162.9 441.2 163.45 442 163.95 442.75 163.95 443.75 163.95 445.1 163.15 446 162.35 446.95 161.15 447.55 160 448.15 158.75 448.4 157.5 448.65 156.65 448.65
L 154.75 448.65
Q 154.4 448.65 154.3 448.75 154.2 448.8 154.2 449.2
L 154.2 452.15
Q 154.2 452.45 154.3 452.55 154.4 452.65 154.75 452.65
L 156.7 452.65
Q 158.65 452.65 160 453.05 161.4 453.4 162.3 454.1 163.15 454.75 163.6 455.6 164 456.45 164 457.4 164 460.05 162.05 461.4 161.4 461.85 160.65 462.1 159.85 462.4 159 462.5 158.15 462.6 157.25 462.55 156.35 462.5 155.55 462.45 154.45 462.35 153.4 462.05 152.35 461.75 151.3 461.45 150.75 461.2 150.55 461.35 150.35 461.45 150.3 461.8
L 149.95 464.85
Q 149.9 465.2 150.1 465.35 150.25 465.55 150.65 465.65 152.1 466.2 153.85 466.5 155.6 466.8 157.35 466.8 159.65 466.8 161.8 466.2 163.95 465.65 165.45 464.4 166.95 463.15 167.8 461.4 168.6 459.6 168.6 457.5 168.6 455.3 167.25 453.5 165.9 451.75 163.25 450.6 164.35 450.1 165.3 449.35 166.25 448.6 166.95 447.6 167.65 446.65 168.05 445.6 168.4 444.5 168.4 443.4
M 129.05 437.8
Q 127.8 438.8 127.05 440.2 126.3 441.6 126.3 443.3 126.3 445.6 127.7 447.4 129.1 449.2 131.5 450.6 130.3 451.2 129.2 451.9 128.1 452.6 127.3 453.5 126.5 454.4 125.95 455.55 125.5 456.7 125.5 458.2 125.5 460.35 126.4 461.95 127.3 463.6 128.75 464.65 130.2 465.7 132 466.25 133.85 466.8 135.65 466.8 137.6 466.8 139.4 466.25 141.3 465.7 142.7 464.65 144.1 463.6 144.95 461.95 145.85 460.35 145.85 458.2 145.85 456.8 145.4 455.8 145 454.75 144.2 453.85 143.4 452.95 142.3 452.15 141.15 451.4 139.75 450.55 142.35 448.75 143.6 447 144.85 445.2 144.85 443.2 144.85 441.45 144.15 440.05 143.45 438.65 142.25 437.7 141.05 436.75 139.35 436.2 137.65 435.7 135.65 435.7 133.7 435.7 132 436.25 130.3 436.8 129.05 437.8
M 131.45 445.25
Q 130.85 444.45 130.85 443.6 130.85 442.65 131.3 441.9 131.75 441.2 132.45 440.7 133.1 440.2 133.95 439.9 134.8 439.6 135.65 439.6 136.6 439.6 137.45 439.95 138.3 440.2 138.95 440.75 139.6 441.3 139.95 442 140.35 442.7 140.35 443.5 140.35 444.2 139.85 445 139.35 445.8 138.6 446.55 137.85 447.25 137.05 447.8 136.3 448.35 135.65 448.6 135.15 448.4 134.35 447.9 133.55 447.45 132.75 446.75 132 446.05 131.45 445.25
M 133.9 453.45
Q 134.85 453 135.65 452.8 136.65 453.15 137.65 453.75 138.65 454.35 139.5 455.05 140.3 455.8 140.8 456.6 141.3 457.45 141.3 458.2 141.3 459.25 140.8 460.1 140.3 460.95 139.5 461.55 138.7 462.15 137.7 462.45 136.65 462.75 135.65 462.75 134.7 462.75 133.65 462.45 132.65 462.1 131.8 461.5 131 460.9 130.5 460.05 129.95 459.2 129.95 458.2 129.95 456.95 130.55 456.05 131.15 455.15 132 454.5 132.85 453.85 133.9 453.45
M 117.6 468.95
Q 118.85 468.95 119.75 468.05 120.6 467.15 120.6 465.85 120.6 464.55 119.75 463.7 118.85 462.8 117.6 462.8 116.3 462.8 115.4 463.7 114.5 464.55 114.5 465.85 114.5 467.15 115.4 468.05 116.3 468.95 117.6 468.95
M 101.2 436.05
L 99.1 436.05
Q 98.95 436.05 98.75 436.15 98.55 436.2 98.5 436.3
L 92.35 441.95
Q 92.15 442.15 92.15 442.35 92.1 442.6 92.25 442.75
L 94.05 444.9
Q 94.2 445.05 94.45 445 94.7 445 94.95 444.85
L 97.9 442.25 97.9 465.95
Q 97.9 466.45 98.45 466.45
L 101.65 466.45
Q 102.15 466.45 102.15 465.95
L 102.15 437.15
Q 102.15 436.35 102 436.2 101.9 436.05 101.2 436.05
M 748.5 343.7
Q 747.6 344.55 747.6 345.85 747.6 347.15 748.5 348.05 749.4 348.95 750.7 348.95 751.95 348.95 752.85 348.05 753.7 347.15 753.7 345.85 753.7 344.55 752.85 343.7 751.95 342.8 750.7 342.8 749.4 342.8 748.5 343.7
M 733.95 312.65
Q 733.45 312.65 733.45 313.2
L 733.45 350.1
Q 733.45 350.65 733.95 350.65
L 737.5 350.65
Q 738.05 350.65 738.05 350.1
L 738.05 331.15 743.45 331.15
Q 743.65 331.15 743.85 331 744.05 330.8 744.05 330.6
L 744.05 327.8
Q 744.05 327.6 743.85 327.45 743.65 327.3 743.45 327.3
L 738.05 327.3 738.05 313.2
Q 738.05 312.65 737.5 312.65
L 733.95 312.65
M 727.35 315.65
L 712.8 315.65
Q 711.3 315.65 710.75 316.2 710.15 316.8 710.15 318.2
L 710.15 337.15
Q 710.15 338.6 710.85 339.15 711.55 339.75 713.05 339.85 714.7 339.95 717.1 339.85 719.5 339.8 722.05 339.55 724.6 339.35 726.95 339 729.35 338.6 730.95 338.15 731.15 338.05 731.35 337.9 731.5 337.8 731.45 337.35
L 731 335
Q 730.85 334.4 730.25 334.55 728.45 334.85 726.5 335.15 724.45 335.4 722.55 335.6 720.65 335.8 718.9 335.85 717.2 335.95 715.95 335.8 715.2 335.75 714.95 335.55 714.75 335.35 714.75 334.75
L 714.75 320.2
Q 714.75 319.5 715.45 319.5
L 727.35 319.5
Q 727.9 319.5 727.9 319
L 727.9 316.2
Q 727.9 315.65 727.35 315.65
M 694.8 337.6
Q 695.05 337.4 694.95 337.1
L 694.45 334.9
Q 694.4 334.6 694.2 334.4 694.05 334.2 693.6 334.25 689.5 335.1 685.75 335.4 682 335.7 678.8 335.5 678.35 335.45 678.2 335.35 678.05 335.25 678.05 334.85
L 678.05 315.55
Q 678.05 315.35 677.85 315.15 677.65 315 677.45 315
L 674 315
Q 673.8 315 673.6 315.15 673.45 315.35 673.45 315.55
L 673.45 336.4
Q 673.45 337.75 674.1 338.55 674.8 339.35 676.35 339.4 678.55 339.55 680.95 339.5 683.4 339.4 685.75 339.25 688.1 339.05 690.3 338.75 692.5 338.4 694.25 337.95 694.6 337.85 694.8 337.6
M 698.05 312.65
Q 697.5 312.65 697.5 313.2
L 697.5 350.1
Q 697.5 350.65 698.05 350.65
L 701.6 350.65
Q 702.1 350.65 702.1 350.1
L 702.1 313.2
Q 702.1 312.65 701.6 312.65
L 698.05 312.65
M 658 335.9
L 658 339.55 642.6 339.55 642.6 335.9
Q 642.6 335.7 642.45 335.55 642.25 335.4 642.1 335.4
L 638.55 335.4
Q 638.35 335.4 638.2 335.55 638.05 335.7 638.05 335.9
L 638.05 347.25
Q 638.05 348.8 638.7 349.4 639.3 350 641.05 350
L 659.6 350
Q 661.3 350 661.95 349.35 662.6 348.7 662.6 347.35
L 662.6 335.9
Q 662.6 335.7 662.45 335.55 662.25 335.35 662.1 335.35
L 658.5 335.35
Q 658.3 335.35 658.15 335.55 658 335.7 658 335.9
M 658 343.25
L 658 345.6
Q 658 346.25 657.25 346.25
L 643.4 346.25
Q 642.6 346.25 642.6 345.6
L 642.6 343.25 658 343.25
M 668.05 329.1
Q 667.9 328.95 667.65 328.95
L 632.9 328.95
Q 632.3 328.95 632.3 329.5
L 632.3 332.05
Q 632.3 332.7 632.9 332.7
L 667.65 332.7
Q 667.9 332.7 668.05 332.5 668.25 332.25 668.25 332.05
L 668.25 329.5
Q 668.25 329.3 668.05 329.1
M 660.7 321.6
Q 658.7 320.9 657.05 319.9 655.35 318.9 654.1 317.6 652.85 316.35 652.25 314.85 652.3 314.5 652.35 314.15 652.35 313.75 652.4 313.4 652.4 312.85 651.8 312.85
L 648.75 312.75
Q 648.05 312.75 648 313.4 647.85 315.35 646.9 316.9 645.95 318.45 644.35 319.65 642.8 320.8 640.65 321.7 638.45 322.55 635.9 323.1 635.65 323.2 635.55 323.4 635.5 323.65 635.55 323.85
L 636.65 326.4
Q 636.8 326.8 637.7 326.6 641.95 325.8 645.2 323.95 648.5 322.1 650.4 319.4 651.3 320.7 652.8 321.9 654.25 323.05 656 324 657.7 324.95 659.55 325.55 661.35 326.15 663 326.35 663.4 326.45 663.6 326.25 663.85 326.1 663.9 325.9
L 665.1 323.55
Q 665.2 323.35 665.1 323.15 665 322.9 664.75 322.8 662.7 322.35 660.7 321.6
M 613.45 337
Q 613.45 335.7 612.95 335.15 612.45 334.6 610.85 334.6
L 601.55 334.6
Q 601.35 334.6 601.2 334.8 601 335 601 335.2
L 601 337.65
Q 601 337.85 601.2 338 601.35 338.15 601.55 338.15
L 608.55 338.15
Q 608.95 338.15 609.05 338.25 609.1 338.3 609.1 338.75
L 609.1 340.2
Q 609.1 340.6 609.05 340.7 608.95 340.8 608.6 340.8
L 603.6 340.8
Q 602.25 340.8 601.65 341.4 601.1 342 601.1 343.1
L 601.1 348.2
Q 601.1 349.35 601.7 349.9 602.35 350.4 603.65 350.55 604.65 350.65 606.05 350.65 607.45 350.65 608.85 350.55 610.3 350.45 611.65 350.3 613 350.15 614 349.9 614.2 349.85 614.5 349.6 614.75 349.4 614.65 349.05
L 614.3 347
Q 614.2 346.65 613.95 346.5 613.7 346.35 613.4 346.45 612.6 346.6 611.65 346.75 610.65 346.85 609.6 346.95 608.6 347 607.6 347.05 606.65 347.05 606 347 605.65 346.95 605.55 346.85 605.45 346.75 605.45 346.5
L 605.45 344.65
Q 605.45 344.35 605.55 344.25 605.65 344.15 605.95 344.15
L 610.85 344.15
Q 612.25 344.15 612.9 343.6 613.45 343.05 613.45 341.8
L 613.45 337
M 615.05 334.6
Q 614.85 334.6 614.65 334.75 614.5 334.9 614.5 335.15
L 614.5 337.8
Q 614.5 338 614.65 338.15 614.85 338.3 615.05 338.3
L 621.45 338.3
Q 621.9 338.3 622.05 338.4 622.2 338.55 622.2 339
L 622.2 350
Q 622.2 350.2 622.35 350.35 622.55 350.55 622.8 350.55
L 626 350.55
Q 626.2 350.55 626.35 350.35 626.55 350.2 626.55 350
L 626.55 337.45
Q 626.55 335.9 626 335.25 625.45 334.6 623.9 334.6
L 615.05 334.6
M 626.55 313.2
Q 626.55 312.65 626.05 312.65
L 622.45 312.65
Q 621.95 312.65 621.95 313.2
L 621.95 332.25
Q 621.95 332.8 622.45 332.8
L 626.05 332.8
Q 626.55 332.8 626.55 332.25
L 626.55 313.2
M 615.5 319.2
Q 614.8 317.6 613.55 316.35 612.25 315.1 610.5 314.4 608.7 313.65 606.55 313.65 604.4 313.65 602.6 314.4 600.85 315.1 599.6 316.35 598.3 317.6 597.6 319.2 596.95 320.8 596.95 322.6 596.95 324.4 597.6 326 598.3 327.6 599.6 328.85 600.85 330.05 602.6 330.8 604.4 331.5 606.55 331.5 608.7 331.5 610.5 330.8 612.25 330.05 613.55 328.85 614.8 327.6 615.5 326 616.2 324.4 616.2 322.6 616.2 320.8 615.5 319.2
M 608.7 317.85
Q 609.65 318.25 610.35 319 611.05 319.7 611.4 320.65 611.8 321.6 611.8 322.6 611.8 323.65 611.4 324.55 611.05 325.5 610.35 326.2 609.65 326.9 608.7 327.35 607.7 327.75 606.55 327.75 605.4 327.75 604.45 327.35 603.45 326.9 602.8 326.2 602.1 325.5 601.7 324.55 601.35 323.65 601.35 322.6 601.35 321.6 601.7 320.65 602.1 319.7 602.8 319 603.45 318.25 604.45 317.85 605.4 317.45 606.55 317.45 607.7 317.45 608.7 317.85
M 546.05 340.2
Q 545.9 340.35 545.9 340.65
L 545.9 343.25
Q 545.9 343.45 546.05 343.65 546.2 343.85 546.5 343.85
L 581.3 343.85
Q 581.5 343.85 581.7 343.65 581.9 343.45 581.9 343.25
L 581.9 340.65
Q 581.9 340.4 581.7 340.2 581.5 340 581.3 340
L 564.5 340 564.5 328.9
Q 564.5 328.3 563.95 328.3
L 560.45 328.3
Q 559.9 328.3 559.9 328.9
L 559.9 340 546.5 340
Q 546.2 340 546.05 340.2
M 551.55 319.1
Q 551.75 319.25 551.95 319.25
L 571.65 319.25
Q 572.2 319.25 572.45 319.4 572.7 319.55 572.7 320.1 572.7 321.75 572.65 323.75 572.55 325.75 572.4 327.8 572.3 329.85 572.05 331.8 571.85 333.75 571.55 335.2 571.5 335.55 571.6 335.8 571.7 336 572.05 336.05
L 575.2 336.35
Q 575.5 336.4 575.7 336.15 575.85 335.9 575.95 335.6 576.55 332.6 576.95 328.15 577.3 323.65 577.3 318.25 577.3 316.8 576.6 316.1 575.9 315.4 574.6 315.4
L 551.95 315.4
Q 551.75 315.4 551.55 315.55 551.35 315.65 551.35 315.9
L 551.35 318.75
Q 551.35 319 551.55 319.1
M 528.2 318.3
Q 528.2 316.85 527.7 316.2 527.2 315.6 525.5 315.6
L 511.55 315.6
Q 511.35 315.6 511.15 315.75 511 315.85 511 316.05
L 511 318.8
Q 511 319.05 511.15 319.2 511.35 319.35 511.55 319.35
L 523.1 319.35
Q 523.45 319.35 523.55 319.45 523.6 319.55 523.6 319.9
L 523.6 325.5
Q 523.6 325.9 523.5 326 523.4 326.1 523.1 326.1
L 513.55 326.1
Q 512.15 326.1 511.45 326.75 510.75 327.4 510.75 328.8
L 510.75 338.4
Q 510.75 339.95 511.4 340.55 512.05 341.15 513.85 341.3 515.15 341.45 517.4 341.4 519.7 341.35 522.2 341.2 524.7 341 527.15 340.75 529.6 340.4 531.35 340 531.65 339.95 531.9 339.75 532.1 339.55 532.05 339.25
L 531.7 336.85
Q 531.65 336.5 531.4 336.35 531.1 336.2 530.8 336.3 529.15 336.6 527.3 336.85 525.5 337.1 523.55 337.25 521.65 337.4 519.8 337.45 517.85 337.5 516.05 337.45 515.7 337.45 515.5 337.3 515.35 337.15 515.35 336.7
L 515.35 330.35
Q 515.35 329.85 515.9 329.85
L 525.4 329.85
Q 526.95 329.85 527.55 329.25 528.2 328.7 528.2 327.15
L 528.2 318.3
M 538.85 313.2
Q 538.85 312.65 538.3 312.65
L 534.75 312.65
Q 534.25 312.65 534.25 313.2
L 534.25 350.1
Q 534.25 350.65 534.75 350.65
L 538.3 350.65
Q 538.85 350.65 538.85 350.1
L 538.85 331.15 544.25 331.15
Q 544.45 331.15 544.65 331 544.85 330.8 544.85 330.6
L 544.85 327.8
Q 544.85 327.6 544.65 327.45 544.45 327.3 544.25 327.3
L 538.85 327.3 538.85 313.2
M 475.95 313.95
Q 475.75 314.05 475.75 314.3
L 475.75 317.15
Q 475.75 317.4 475.95 317.5 476.15 317.65 476.35 317.65
L 495.65 317.65
Q 496.2 317.65 496.45 317.8 496.75 317.95 496.75 318.5 496.75 321.6 496.35 324.75 495.95 327.9 495.4 330.35
L 471.3 330.35
Q 471 330.35 470.85 330.5 470.7 330.7 470.7 330.95
L 470.7 333.6
Q 470.7 333.75 470.85 334 471 334.2 471.3 334.2
L 486.05 334.2 486.05 349.8
Q 486.05 350.35 486.65 350.35
L 490.1 350.35
Q 490.65 350.35 490.65 349.8
L 490.65 334.2 506.1 334.2
Q 506.3 334.2 506.5 334 506.7 333.75 506.7 333.6
L 506.7 330.95
Q 506.7 330.75 506.5 330.55 506.3 330.35 506.1 330.35
L 499.8 330.35
Q 500.5 327.25 500.9 323.9 501.3 320.55 501.3 316.65 501.3 315.2 500.65 314.5 499.95 313.8 498.65 313.8
L 476.35 313.8
Q 476.15 313.8 475.95 313.95
M 453.7 335.55
Q 450.9 335.55 448.7 336.1 446.5 336.6 444.95 337.6 443.4 338.6 442.6 340 441.8 341.4 441.8 343.05 441.8 344.8 442.6 346.2 443.4 347.6 444.95 348.55 446.5 349.55 448.7 350.1 450.9 350.65 453.7 350.65 456.25 350.65 458.4 350.1 460.65 349.55 462.25 348.55 463.85 347.55 464.75 346.15 465.65 344.75 465.65 343.05 465.65 341.35 464.75 339.95 463.85 338.6 462.25 337.6 460.65 336.6 458.4 336.1 456.25 335.55 453.7 335.55
M 448.5 346
Q 447.55 345.55 447.05 344.85 446.5 344.15 446.5 343.2 446.5 341.2 448.45 340.2 450.45 339.2 453.7 339.2 455.1 339.2 456.45 339.45 457.75 339.7 458.75 340.2 459.75 340.7 460.35 341.45 460.9 342.15 460.9 343.2 460.9 344.15 460.35 344.85 459.75 345.55 458.75 346 457.75 346.5 456.45 346.75 455.1 347 453.7 347 452.1 347 450.8 346.75 449.5 346.5 448.5 346
M 465.35 313.2
Q 465.35 312.65 464.85 312.65
L 461.3 312.65
Q 460.75 312.65 460.75 313.2
L 460.75 317.75 453.05 317.75
Q 451.75 316.05 449.7 315.05 447.65 314.05 445.05 314.05 442.95 314.05 441.2 314.75 439.4 315.45 438.15 316.7 436.85 317.95 436.2 319.65 435.5 321.35 435.5 323.25 435.5 325.25 436.2 326.95 436.85 328.6 438.15 329.85 439.4 331.05 441.2 331.75 442.95 332.45 445.05 332.45 447.35 332.45 449.2 331.7 451 331 452.3 329.65
L 460.75 329.65 460.75 334.4
Q 460.75 335 461.3 335
L 464.85 335
Q 465.35 335 465.35 334.4
L 465.35 313.2
M 454.65 321.45
L 460.75 321.45 460.75 326 454.5 326
Q 454.65 325.35 454.75 324.65 454.85 324 454.85 323.25 454.85 322.45 454.65 321.45
M 450.35 323.35
Q 450.35 325.8 448.9 327.2 447.45 328.6 445.05 328.6 442.75 328.6 441.3 327.2 439.85 325.8 439.85 323.35 439.85 320.95 441.3 319.5 442.75 318.1 445.05 318.1 447.45 318.1 448.9 319.5 450.35 320.95 450.35 323.35
M 416.6 313.2
Q 416.6 312.95 416.4 312.8 416.25 312.65 416.05 312.65
L 412.5 312.65
Q 411.95 312.65 411.95 313.2
L 411.95 321.45 405.7 321.45
Q 405.45 321.45 405.3 321.6 405.1 321.75 405.1 321.95
L 405.1 324.75
Q 405.1 324.95 405.3 325.1 405.45 325.2 405.7 325.2
L 411.95 325.2 411.95 333.85
Q 411.95 334.05 412.1 334.25 412.25 334.4 412.5 334.4
L 416.05 334.4
Q 416.25 334.4 416.4 334.25 416.6 334.05 416.6 333.85
L 416.6 313.2
M 393.4 337.05
Q 392.75 337.75 392.75 339.25
L 392.75 347.15
Q 392.75 348.75 393.55 349.4 394.4 350 396.25 350
L 413.7 350
Q 415.25 350 415.9 349.4 416.6 348.75 416.6 347.25
L 416.6 339.3
Q 416.6 337.7 415.95 337.05 415.3 336.4 413.5 336.4
L 395.6 336.4
Q 394.1 336.4 393.4 337.05
M 397.85 346.35
Q 397.5 346.35 397.4 346.25 397.3 346.2 397.3 345.8
L 397.3 340.6
Q 397.3 340.2 397.4 340.15 397.5 340.05 397.85 340.05
L 411.5 340.05
Q 411.8 340.05 411.9 340.15 412 340.25 412 340.65
L 412 345.8
Q 412 346.2 411.9 346.25 411.8 346.35 411.5 346.35
L 397.85 346.35
M 388.45 314.6
Q 388.25 314.6 388.05 314.8 387.85 314.95 387.85 315.2
L 387.85 317.8
Q 387.85 318.45 388.45 318.45
L 398.35 318.45
Q 399 318.45 399 318.75 399.05 319.05 398.85 319.4 398.25 321 397.05 322.65 395.85 324.25 394.2 325.75 392.6 327.25 390.6 328.5 388.6 329.85 386.35 330.8 385.95 331 385.85 331.35 385.8 331.7 386 332
L 387.15 334
Q 387.4 334.4 387.8 334.45 388.2 334.45 388.45 334.3 391.3 332.95 393.8 331.25 396.25 329.55 398.3 327.55 399.15 328.4 400.15 329.2 401.15 330.05 402.15 330.8 403.2 331.6 404.15 332.15 405.1 332.75 405.85 333.1 406.25 333.3 406.55 333.25 406.85 333.15 407.05 332.8
L 408.3 330.7
Q 408.8 329.9 407.95 329.5 407.15 329.15 406.25 328.6 405.3 328 404.35 327.4 403.45 326.75 402.55 326 401.7 325.25 400.95 324.55 402.9 321.8 403.9 319 404.05 318.6 404.2 318.15 404.3 317.65 404.4 317.25 404.6 315.9 403.75 315.25 402.85 314.6 401.1 314.6
L 388.45 314.6
M 285.95 316.1
Q 286.2 315.3 285.25 315.3
L 282.1 315.3
Q 281.65 315.3 281.5 315.75
L 271.1 348.4
Q 270.95 348.9 271.15 349.1 271.4 349.25 271.85 349.25
L 274.7 349.25
Q 275.05 349.25 275.25 349.15 275.45 349.05 275.65 348.7
L 285.95 316.1
M 240.4 337.4
Q 240.2 337.4 240 337.55 239.85 337.75 239.85 337.95
L 239.85 346.6
Q 239.85 348.25 240.45 348.85 241.05 349.5 242.85 349.5
L 265.15 349.5
Q 265.4 349.5 265.6 349.4 265.75 349.25 265.75 349.05
L 265.75 346.15
Q 265.75 345.95 265.55 345.8 265.35 345.65 265.15 345.65
L 245.2 345.65
Q 244.75 345.65 244.6 345.55 244.4 345.4 244.4 345
L 244.4 337.95
Q 244.4 337.75 244.25 337.55 244.05 337.4 243.85 337.4
L 240.4 337.4
M 234.25 331.2
Q 234.1 331.4 234.1 331.6
L 234.1 334.2
Q 234.1 334.45 234.25 334.65 234.4 334.85 234.7 334.85
L 269.5 334.85
Q 269.7 334.85 269.9 334.65 270.1 334.4 270.1 334.2
L 270.1 331.6
Q 270.1 331.45 269.9 331.2 269.7 331 269.5 331
L 234.7 331
Q 234.4 331 234.25 331.2
M 240.4 317.45
Q 239.45 318.8 239.45 320.55 239.45 322.25 240.4 323.6 241.35 325 243.05 325.9 244.7 326.8 247.05 327.35 249.4 327.8 252.2 327.8 255 327.8 257.3 327.35 259.65 326.8 261.3 325.9 263 325 263.95 323.6 264.85 322.25 264.85 320.55 264.85 318.8 263.95 317.45 263 316.05 261.3 315.15 259.65 314.2 257.3 313.7 255 313.25 252.2 313.25 249.4 313.25 247.05 313.7 244.7 314.2 243.05 315.15 241.35 316.05 240.4 317.45
M 249 317.15
Q 250.45 316.9 252.2 316.9 253.9 316.9 255.35 317.15 256.8 317.45 257.85 317.9 258.9 318.4 259.5 319.05 260.05 319.75 260.05 320.55 260.05 321.35 259.5 322 258.9 322.65 257.85 323.15 256.8 323.6 255.35 323.9 253.9 324.15 252.2 324.15 250.45 324.15 249 323.9 247.55 323.6 246.5 323.15 245.45 322.65 244.85 322 244.25 321.35 244.25 320.55 244.25 319.75 244.85 319.05 245.45 318.4 246.5 317.9 247.55 317.45 249 317.15 Z"/>

<path fill="#FFFFFF" stroke="none" d="
M 351.55 342.95
Q 352.1 344.25 353.1 345.15 354.05 346 355.45 346.45 356.6275390625 346.828515625 357.95 346.9 358.401171875 346.833203125 358.85 346.75 360.15 346.5 361.15 346 362.15 345.55 362.75 344.85 363.3 344.15 363.3 343.2 363.3 342.15 362.75 341.45 362.63671875 341.30859375 362.5 341.15 362.480078125 341.2134765625 362.45 341.25 361.05 342.95 358.8 342.95 357.3 342.95 356.45 342.15 355.55 341.45 355.55 339.9 355.55 339.5380859375 355.6 339.2 352.8130859375 339.2744140625 351 340.1 351.0287109375 341.71796875 351.55 342.95
M 363.15 326
L 363.15 323.9
Q 361.8365234375 323.55 360.15 323.55 358.4814453125 323.55 357.2 323.8 357.2109375 324.2541015625 357.15 324.65 357.05 325.35 356.9 326
L 363.15 326
M 342.3 324.2
Q 342.5099609375 326.0509765625 343.7 327.2 344.634375 328.1021484375 345.9 328.4 345.4302734375 326.6021484375 344.3 325.5 343.492578125 324.6712890625 342.3 324.2
M 338.85 327.55
Q 338.724609375 327.2662109375 338.6 326.95 337.9537109375 325.38046875 337.9 323.55 336.0470703125 323.5974609375 334.75 324 333.35 324.4 332 325.1 331.5 325.35 331.4 325.55 331.3 325.65 331.35 325.85 331.35 326 331.35 326.2
L 331.35 329.2
Q 331.35 329.6 331.55 329.65 331.8 329.7 332.45 329.3 333.7 328.5 335.15 328 336.65 327.55 338.4 327.55 338.648046875 327.55 338.85 327.55
M 368.1 331.65
Q 368.1 329.893359375 367.75 328.5
L 367.75 334.4
Q 367.75 335 367.25 335
L 363.7 335
Q 363.15 335 363.15 334.4
L 363.15 331.8
Q 360.103515625 331.841015625 357.9 332.3 355.5 332.8 353.95 333.8 352.6728515625 334.694140625 351.95 335.9 353.8208984375 335.55 356.1 335.55 358.1052734375 335.55 359.85 335.9 361.511328125 335.6 363.85 335.6
L 363.85 336
Q 363.85 336.5919921875 363.8 337.1 364.2505859375 337.350390625 364.65 337.6 366.25 338.6 367.15 339.95 368.05 341.35 368.05 343.05 368.05 344.75 367.15 346.15 367.117578125 346.2001953125 367.05 346.25
L 367.8 346.25
Q 368.3 346.25 368.25 345.65 368.1 344.7 368.1 343.5 368.1 342.25 368.1 341.15
L 368.1 331.65
M 194.45 330.25
Q 194.6 331 194.6 331.8 191.2 331.8 188.8 332.3 186.4 332.8 184.85 333.8 183.35 334.85 182.6 336.35 181.9 337.9 181.9 339.95 181.9 341.65 182.45 342.95 183 344.25 184 345.15 184.95 346 186.35 346.45 187.75 346.9 189.35 346.9 190.95 346.9 192.45 346.2 194 345.5 195 344.1
L 195 345.9
Q 195 346.15 195.1 346.2 195.15 346.25 195.45 346.25
L 198.7 346.25
Q 199.2 346.25 199.15 345.65 199 344.7 199 343.5 199 342.25 199 341.15
L 199 331.65
Q 199 327.45 197 325.5 195.1 323.55 191.05 323.55 188.9 323.55 187.45 324 186.05 324.4 184.7 325.1 184.2 325.35 184.1 325.55 184 325.65 184.05 325.85 184.05 326 184.05 326.2
L 184.05 329.2
Q 184.05 329.6 184.25 329.65 184.5 329.7 185.15 329.3 186.4 328.5 187.85 328 189.35 327.55 191.1 327.55 192.2 327.55 192.85 327.9 193.55 328.3 193.9 328.9 194.3 329.5 194.45 330.25
M 189.7 342.95
Q 188.2 342.95 187.35 342.15 186.45 341.45 186.45 339.9 186.45 337.75 188.35 336.65 190.3 335.6 194.75 335.6
L 194.75 336
Q 194.75 339.55 193.35 341.25 191.95 342.95 189.7 342.95
M 220.8 331.65
Q 220.8 327.45 218.8 325.5 216.9 323.55 212.85 323.55 210.7 323.55 209.25 324 207.85 324.4 206.5 325.1 206 325.35 205.9 325.55 205.8 325.65 205.85 325.85 205.85 326 205.85 326.2
L 205.85 329.2
Q 205.85 329.6 206.05 329.65 206.3 329.7 206.95 329.3 208.2 328.5 209.65 328 211.15 327.55 212.9 327.55 214 327.55 214.65 327.9 215.35 328.3 215.7 328.9 216.1 329.5 216.25 330.25 216.4 331 216.4 331.8 213 331.8 210.6 332.3 208.2 332.8 206.65 333.8 205.15 334.85 204.4 336.35 203.7 337.9 203.7 339.95 203.7 341.65 204.25 342.95 204.8 344.25 205.8 345.15 206.75 346 208.15 346.45 209.55 346.9 211.15 346.9 212.75 346.9 214.25 346.2 215.8 345.5 216.8 344.1
L 216.8 345.9
Q 216.8 346.15 216.9 346.2 216.95 346.25 217.25 346.25
L 220.5 346.25
Q 221 346.25 220.95 345.65 220.8 344.7 220.8 343.5 220.8 342.25 220.8 341.15
L 220.8 331.65
M 211.5 342.95
Q 210 342.95 209.15 342.15 208.25 341.45 208.25 339.9 208.25 337.75 210.15 336.65 212.1 335.6 216.55 335.6
L 216.55 336
Q 216.55 339.55 215.15 341.25 213.75 342.95 211.5 342.95
M 160.8 336.35
Q 160.1 337.9 160.1 339.95 160.1 341.65 160.65 342.95 161.2 344.25 162.2 345.15 163.15 346 164.55 346.45 165.95 346.9 167.55 346.9 169.15 346.9 170.65 346.2 172.2 345.5 173.2 344.1
L 173.2 345.9
Q 173.2 346.15 173.3 346.2 173.35 346.25 173.65 346.25
L 176.9 346.25
Q 177.4 346.25 177.35 345.65 177.2 344.7 177.2 343.5 177.2 342.25 177.2 341.15
L 177.2 331.65
Q 177.2 327.45 175.2 325.5 173.3 323.55 169.25 323.55 167.1 323.55 165.65 324 164.25 324.4 162.9 325.1 162.4 325.35 162.3 325.55 162.2 325.65 162.25 325.85 162.25 326 162.25 326.2
L 162.25 329.2
Q 162.25 329.6 162.45 329.65 162.7 329.7 163.35 329.3 164.6 328.5 166.05 328 167.55 327.55 169.3 327.55 170.4 327.55 171.05 327.9 171.75 328.3 172.1 328.9 172.5 329.5 172.65 330.25 172.8 331 172.8 331.8 169.4 331.8 167 332.3 164.6 332.8 163.05 333.8 161.55 334.85 160.8 336.35
M 171.55 341.25
Q 170.15 342.95 167.9 342.95 166.4 342.95 165.55 342.15 164.65 341.45 164.65 339.9 164.65 337.75 166.55 336.65 168.5 335.6 172.95 335.6
L 172.95 336
Q 172.95 339.55 171.55 341.25 Z"/>

<path fill="#C1EBFF" stroke="none" d="
M 75 564.5
L 75.05 564.5
Q 72.1 561.5 67.85 561.5 63.7 561.5 60.65 564.45 60.6 564.45 60.6 564.5 57.65 567.55 57.65 571.7 57.65 575.9 60.65 578.9
L 60.65 578.95
Q 63.7 581.85 67.85 581.85 72.05 581.85 74.95 578.95 75 578.9 75.05 578.85 78 575.9 78 571.7 78 567.5 75 564.5
M 67.85 565.75
Q 70.3 565.75 72 567.45 73.75 569.25 73.75 571.7 73.75 574.15 72 575.85 70.3 577.6 67.85 577.6 65.4 577.6 63.6 575.85 61.9 574.15 61.9 571.7 61.9 569.25 63.6 567.45 65.4 565.75 67.85 565.75
M 75 444.5
L 75.05 444.5
Q 72.1 441.5 67.85 441.5 63.7 441.5 60.65 444.45 60.6 444.45 60.6 444.5 57.65 447.55 57.65 451.7 57.65 455.9 60.65 458.9
L 60.65 458.95
Q 63.7 461.85 67.85 461.85 72.05 461.85 74.95 458.95 75 458.9 75.05 458.85 78 455.9 78 451.7 78 447.5 75 444.5
M 73.75 451.7
Q 73.75 454.15 72 455.85 70.3 457.6 67.85 457.6 65.4 457.6 63.6 455.85 61.9 454.15 61.9 451.7 61.9 449.25 63.6 447.45 65.4 445.75 67.85 445.75 70.3 445.75 72 447.45 73.75 449.25 73.75 451.7
M 60.65 324.45
Q 60.6 324.45 60.6 324.5 57.65 327.55 57.65 331.7 57.65 335.9 60.65 338.9
L 60.65 338.95
Q 63.7 341.85 67.85 341.85 72.05 341.85 74.95 338.95 75 338.9 75.05 338.85 78 335.9 78 331.7 78 327.5 75 324.5
L 75.05 324.5
Q 72.1 321.5 67.85 321.5 63.7 321.5 60.65 324.45
M 72 327.45
Q 73.75 329.25 73.75 331.7 73.75 334.15 72 335.85 70.3 337.6 67.85 337.6 65.4 337.6 63.6 335.85 61.9 334.15 61.9 331.7 61.9 329.25 63.6 327.45 65.4 325.75 67.85 325.75 70.3 325.75 72 327.45 Z"/>

<path fill="#4CB6E6" stroke="none" d="
M 72 567.45
Q 70.3 565.75 67.85 565.75 65.4 565.75 63.6 567.45 61.9 569.25 61.9 571.7 61.9 574.15 63.6 575.85 65.4 577.6 67.85 577.6 70.3 577.6 72 575.85 73.75 574.15 73.75 571.7 73.75 569.25 72 567.45
M 72 455.85
Q 73.75 454.15 73.75 451.7 73.75 449.25 72 447.45 70.3 445.75 67.85 445.75 65.4 445.75 63.6 447.45 61.9 449.25 61.9 451.7 61.9 454.15 63.6 455.85 65.4 457.6 67.85 457.6 70.3 457.6 72 455.85
M 73.75 331.7
Q 73.75 329.25 72 327.45 70.3 325.75 67.85 325.75 65.4 325.75 63.6 327.45 61.9 329.25 61.9 331.7 61.9 334.15 63.6 335.85 65.4 337.6 67.85 337.6 70.3 337.6 72 335.85 73.75 334.15 73.75 331.7 Z"/>
</g>

<g id="Duplicate_Items_Folder_fnfmf343434_copy_22_0_Layer1_0_FILL">
<path fill="#FFFFFF" stroke="none" d="
M 70 -15
Q 70 -30 55 -30
L -55 -30
Q -70 -30 -70 -15
L -70 15.05
Q -70 30.05 -55 30.05
L 55 30.05
Q 70 30.05 70 15.05
L 70 -15 Z"/>
</g>

<g id="Duplicate_Items_Folder_fnfmf343434_copy_23_0_Layer1_0_FILL">
<path fill="#FFFFFF" stroke="none" d="
M 70 -15
Q 70 -30 55 -30
L -55 -30
Q -70 -30 -70 -15
L -70 15.05
Q -70 30.05 -55 30.05
L 55 30.05
Q 70 30.05 70 15.05
L 70 -15 Z"/>
</g>

<g id="Duplicate_Items_Folder_fnfmf343434_copy_24_0_Layer1_0_FILL">
<path fill="#FFFFFF" stroke="none" d="
M 70 -15
Q 70 -30 55 -30
L -55 -30
Q -70 -30 -70 -15
L -70 15.05
Q -70 30.05 -55 30.05
L 55 30.05
Q 70 30.05 70 15.05
L 70 -15 Z"/>
</g>

<path id="Duplicate_Items_Folder_fnfmf343434_copy_22_0_Layer1_0_1_STROKES" stroke="#DBDBDB" stroke-width="3" stroke-linejoin="round" stroke-linecap="round" fill="none" d="
M -55 -30
L 55 -30
Q 70 -30 70 -15
L 70 15.05
Q 70 30.05 55 30.05
L -55 30.05
Q -70 30.05 -70 15.05
L -70 -15
Q -70 -30 -55 -30 Z"/>

<path id="Duplicate_Items_Folder_fnfmf343434_copy_23_0_Layer1_0_1_STROKES" stroke="#DBDBDB" stroke-width="3" stroke-linejoin="round" stroke-linecap="round" fill="none" d="
M -55 -30
L 55 -30
Q 70 -30 70 -15
L 70 15.05
Q 70 30.05 55 30.05
L -55 30.05
Q -70 30.05 -70 15.05
L -70 -15
Q -70 -30 -55 -30 Z"/>

<path id="Duplicate_Items_Folder_fnfmf343434_copy_24_0_Layer1_0_1_STROKES" stroke="#DBDBDB" stroke-width="3" stroke-linejoin="round" stroke-linecap="round" fill="none" d="
M -55 -30
L 55 -30
Q 70 -30 70 -15
L 70 15.05
Q 70 30.05 55 30.05
L -55 30.05
Q -70 30.05 -70 15.05
L -70 -15
Q -70 -30 -55 -30 Z"/>
</defs>

<g transform="matrix( 1, 0, 0, 1, 0,0) ">
<use xlink:href="#Layer0_0_FILL"/>
</g>

<g transform="matrix( 1, 0, 0, 1, 155,332.55) ">
<g transform="matrix( 1, 0, 0, 1, 0,0) ">
<use xlink:href="#Duplicate_Items_Folder_fnfmf343434_copy_22_0_Layer1_0_FILL"/>

<use xlink:href="#Duplicate_Items_Folder_fnfmf343434_copy_22_0_Layer1_0_1_STROKES"/>
</g>
</g>

<g transform="matrix( 1, 0, 0, 1, 671.8,455.5) ">
<g transform="matrix( 1, 0, 0, 1, 0,0) ">
<use xlink:href="#Duplicate_Items_Folder_fnfmf343434_copy_23_0_Layer1_0_FILL"/>

<use xlink:href="#Duplicate_Items_Folder_fnfmf343434_copy_23_0_Layer1_0_1_STROKES"/>
</g>
</g>

<g transform="matrix( 1, 0, 0, 1, 556.5,572.55) ">
<g transform="matrix( 1, 0, 0, 1, 0,0) ">
<use xlink:href="#Duplicate_Items_Folder_fnfmf343434_copy_24_0_Layer1_0_FILL"/>

<use xlink:href="#Duplicate_Items_Folder_fnfmf343434_copy_24_0_Layer1_0_1_STROKES"/>
</g>
</g>
</svg>
