<?xml version="1.0" encoding="utf-8"?>
<!-- Generator: Adobe Illustrator 23.0.0, SVG Export Plug-In . SVG Version: 6.00 Build 0)  -->
<svg version="1.1" id="레이어_1" xmlns="http://www.w3.org/2000/svg" xmlns:xlink="http://www.w3.org/1999/xlink" x="0px"
	 y="0px" width="1100px" height="420px" viewBox="0 0 1100 420" style="enable-background:new 0 0 1100 420;" xml:space="preserve">
<g>
	<path style="fill:#D2C6A6;" d="M471.8,226.9c-11.1,4-20.2,11.7-24,24.4c-3.9,13-3.5,96.3-2.3,109.8c0.9,11,2.6,22.7,8.1,32.2
		c3.1,5.3,7.4,9.5,12.7,12c12.8,6.1,28.1,6.1,42.5,6c3.7,0,7.4,0,11,0.1c18.7,0.5,417.3,1.4,436,1.7c17.7,0.3,36.3-0.1,53.3-5.6
		c12.4-4,23.1-12.6,28.6-25.6c6.4-15.1,4.2-103.6,1.3-119.7c-2.9-16.3-10.6-28.6-25.2-34.4c-15.2-6-32.6-6.4-48.6-6.9
		c-19.2-0.7-415.4,0-434.6,0.3c-17.9,0.3-37.1-0.2-54.6,4.4C474.7,226,473.2,226.4,471.8,226.9"/>
	<path style="fill:#FFFFFF;" d="M468,222.9c-11,3.9-20.1,11.7-23.9,24.4c-3.9,13-3.5,95.7-2.3,109.2c0.9,10.9,2.6,22.7,8.1,32.1
		c3.1,5.3,7.4,9.5,12.7,12c12.8,6.1,28,6,42.4,6c3.7,0,7.4,0,11,0.1c18.7,0.5,416.2,1.4,434.9,1.7c17.6,0.3,36.2-0.1,53.2-5.6
		c12.4-4,23.1-12.5,28.6-25.5c6.4-15,4.2-103,1.3-119.1c-2.9-16.3-10.6-28.6-25.1-34.3c-15.2-6-32.6-6.4-48.5-6.9
		c-19.1-0.7-414.4,0-433.5,0.3c-17.8,0.3-37-0.2-54.4,4.4C470.8,221.9,469.4,222.4,468,222.9"/>
	<path style="fill:#D2C6A6;" d="M468,222.9l-0.4-1.1c-11.3,4-20.7,12-24.6,25.1c-0.6,2.1-1.1,5.7-1.5,10.3
		c-1.2,13.9-1.6,37.6-1.6,58.6c0,18.7,0.3,35.2,0.8,40.7c0.9,11,2.6,22.9,8.2,32.6c3.2,5.5,7.7,9.9,13.2,12.5
		c12.3,5.8,26.7,6.1,40.2,6.1c1.8,0,3.5,0,5.3,0c2.8,0,5.6,0,8.3,0.1c9.4,0.3,113.4,0.6,217.5,0.9s208.1,0.6,217.4,0.7
		c2.5,0,5.1,0.1,7.6,0.1c15.3,0,31.2-0.9,45.9-5.7c12.6-4.1,23.6-12.8,29.3-26.2c0.8-2,1.5-4.9,2-8.5c1.6-11,2.2-29,2.2-47.5
		c0-13.5-0.3-27.3-0.8-38.8s-1.2-20.6-2-24.9c-1.5-8.3-4.2-15.6-8.4-21.6c-4.2-6-10-10.7-17.4-13.6c-15.5-6.1-33-6.4-48.9-7
		c-6.3-0.2-51.6-0.3-111-0.3c-124.3,0-309.6,0.4-322.6,0.6c-17.8,0.3-37-0.2-54.7,4.5c-1.5,0.4-3,0.8-4.4,1.4L468,222.9l0.4,1.1
		c1.4-0.5,2.8-0.9,4.2-1.3c17.2-4.5,36.3-4.1,54.1-4.4c12.9-0.2,198.3-0.6,322.6-0.6c59.3,0,104.8,0.1,110.9,0.3
		c15.9,0.6,33.2,0.9,48.1,6.8c7.1,2.8,12.4,7.2,16.4,12.8c4,5.7,6.6,12.6,8,20.6c0.7,4.1,1.4,13.2,2,24.6
		c0.5,11.4,0.8,25.2,0.8,38.7c0,12.3-0.3,24.4-0.9,34.3c-0.3,4.9-0.7,9.3-1.3,12.9c-0.5,3.6-1.2,6.3-1.8,8
		c-5.4,12.7-15.7,20.9-27.8,24.9c-14.4,4.7-30,5.6-45.2,5.6c-2.5,0-5.1,0-7.6-0.1c-9.4-0.1-113.4-0.4-217.5-0.7
		c-104-0.3-208.1-0.7-217.4-0.9c-2.7-0.1-5.5-0.1-8.3-0.1c-1.8,0-3.5,0-5.3,0c-13.5,0-27.6-0.4-39.2-5.9c-5-2.4-9.2-6.4-12.2-11.5
		c-5.4-9.1-7-20.7-7.9-31.6c-0.5-5.3-0.8-21.8-0.8-40.5c0-14,0.2-29.2,0.7-41.8c0.2-6.3,0.6-12,1-16.6s0.9-8.1,1.4-9.8
		c3.7-12.3,12.4-19.7,23.2-23.6L468,222.9"/>
</g>
<g>
	<g>
		<path style="fill:#008CCF;" d="M479.9,260.7c0.8-0.2,2.2-0.2,2.7,0.7c0.4,1.1,0.2,2.9,0.2,4v19.9c0,1.1,0.3,2.6-0.8,3.4
			c-0.7,0.6-2.2,0.5-3,0.2c-0.9-0.3-1-1.4-1-2.2c-0.4-6.8-0.2-13.3-0.2-20.2c-0.2,0.5-2.8,0.9-3.3,0.9c-1.4,0.2-2.7-0.2-2.8-1.8
			c-0.2-1.6,0.9-2.5,2.4-3c1.6-0.5,3.2-1.2,4.9-1.7C479.3,260.8,479.6,260.7,479.9,260.7z"/>
	</g>
	<g>
		<path style="fill:#C83164;" d="M510.6,262.9c0.2,1.8,0.2,3.7,0.2,5.6c0,2.1,0,4.2,0,6.3v3.3h1.7c1.1,0,2.7,0.5,2.7,1.9
			c0,1.6-1.2,2.1-2.7,2.2c-0.2,0-1.7,0.1-1.8,0v2.7c0,1.1,0.1,3-1,3.8c-0.5,0.3-1.8,0.4-2.4,0.2c-0.9-0.3-1.1-1.6-1.2-2.4
			c0-0.4,0.1-4-0.2-4H499c-1.5,0-3.4,0.2-4.5-0.7c-1.8-1.4-0.3-3.5,0.7-4.8c2-2.7,3.8-5.5,5.7-8.2c1-1.4,2.2-2.7,3.2-4.1
			c0.7-1.1,1.5-2.4,2.8-3c1.2-0.6,2.5-0.7,3.1,0.2C510.4,262.1,510.5,262.5,510.6,262.9z M506.4,268.8l-6.5,9.1h6.5V268.8z"/>
	</g>
</g>
<g>
	<path style="fill:#231F20;" d="M562.3,268.3c0.2-1.7,1.6-4,2.9-5.1c2.5-2,6.6-2.9,9.7-2c4.1,1.3,6.6,4.1,6.6,8.5
		c0,4.2-1.4,6.5-6.2,10.3c-0.8,0.7-1.6,1.4-2.5,2c-0.5,0.4-3.5,1.8-1.6,2c1.1,0.1,1.6,0,2.7,0c1.3,0,2.7-0.1,3.9,0
		c1.1,0.1,2.6-0.2,3.4,0.5c0.8,0.7,0.9,2.8,0.2,3.5c-0.7,0.8-1.8,0.5-2.7,0.5h-14c-0.5,0-1.2,0.1-1.6,0c-0.9-0.2-0.7-1.1-0.7-1.9
		c0-2.7,2.8-4.4,4.7-5.9c1.4-1.2,3-2.4,4.4-3.6c3.7-3,5-4.8,5-7.1c0-2.6-1.8-4.1-4.3-4.1c-1.8,0-3.5,0.8-4.5,2.3
		c-0.3,0.5-0.6,1.2-0.9,1.7C565.3,272.5,562.1,270.8,562.3,268.3z"/>
</g>
<g>
	<g>
		<g>
			<path style="fill:#111111;" d="M615.6,271.8h-19c-1.4,0-2.5-1.1-2.5-2.5l0,0c0-1.4,1.1-2.5,2.5-2.5h19c1.4,0,2.5,1.1,2.5,2.5l0,0
				C618.1,270.7,617,271.8,615.6,271.8z"/>
		</g>
		<g>
			<path style="fill:#111111;" d="M615.6,283.8h-19c-1.4,0-2.5-1.1-2.5-2.5l0,0c0-1.4,1.1-2.5,2.5-2.5h19c1.4,0,2.5,1.1,2.5,2.5l0,0
				C618.1,282.7,617,283.8,615.6,283.8z"/>
		</g>
	</g>
</g>
<g>
	<g>
		<g>
			<path style="fill:#111111;" d="M880,271.8h-19c-1.4,0-2.5-1.1-2.5-2.5l0,0c0-1.4,1.1-2.5,2.5-2.5h19c1.4,0,2.5,1.1,2.5,2.5l0,0
				C882.5,270.7,881.4,271.8,880,271.8z"/>
		</g>
		<g>
			<path style="fill:#111111;" d="M880,283.8h-19c-1.4,0-2.5-1.1-2.5-2.5l0,0c0-1.4,1.1-2.5,2.5-2.5h19c1.4,0,2.5,1.1,2.5,2.5l0,0
				C882.5,282.7,881.4,283.8,880,283.8z"/>
		</g>
	</g>
</g>
<path style="fill:#111111;" d="M542.2,274.9l7.1-7.1c1-1,1-2.6,0-3.5s-2.6-1-3.5,0l-7.1,7.1l-7.1-7.1c-1-1-2.6-1-3.5,0s-1,2.6,0,3.5
	l7.1,7.1l-7.1,7.1c-1,1-1,2.6,0,3.5s2.6,1,3.5,0l7.1-7.1l7.1,7.1c1,1,2.6,1,3.5,0s1-2.6,0-3.5L542.2,274.9z"/>
<path style="fill:#6EAEDF;" d="M678.2,340.8v2.5c0,0.8,0.7,1.5,1.5,1.5s1.5-0.7,1.5-1.5v-2.5c0-0.8-0.7-1.5-1.5-1.5
	S678.2,340,678.2,340.8 M678.2,332.7v2.5c0,0.8,0.7,1.5,1.5,1.5s1.5-0.7,1.5-1.5v-2.5c0-0.8-0.7-1.5-1.5-1.5
	S678.2,331.9,678.2,332.7 M678.2,324.7v2.5c0,0.8,0.7,1.5,1.5,1.5s1.5-0.7,1.5-1.5v-2.5c0-0.8-0.7-1.5-1.5-1.5
	S678.2,323.8,678.2,324.7 M678.2,316.6v2.5c0,0.8,0.7,1.5,1.5,1.5s1.5-0.7,1.5-1.5v-2.5c0-0.8-0.7-1.5-1.5-1.5
	S678.2,315.8,678.2,316.6 M678.2,308.5v2.5c0,0.8,0.7,1.5,1.5,1.5s1.5-0.7,1.5-1.5v-2.5c0-0.8-0.7-1.5-1.5-1.5
	S678.2,307.7,678.2,308.5"/>
<path style="fill:#B2D7F2;" d="M637.9,308.2h83.6c5.1,0,9.2-4.1,9.2-9.2v-49.6c0-5.1-4.1-9.2-9.2-9.2h-83.6c-5.1,0-9.2,4.1-9.2,9.2
	V299C628.6,304.1,632.8,308.2,637.9,308.2z"/>
<g>
	<path style="fill:#FFFFFF;" d="M624.4,336.8c0,0-8.5,0-8.5,8.5v41c0,0,0,8.5,8.5,8.5h110.5c0,0,8.5,0,8.5-8.5v-41
		c0,0,0-8.5-8.5-8.5H624.4z"/>
	<g>
		<path style="fill:#008CCF;" d="M638.8,351.6c0.8-0.2,2.2-0.2,2.7,0.7c0.4,1.1,0.2,2.9,0.2,4v19.9c0,1.1,0.3,2.6-0.8,3.4
			c-0.7,0.6-2.2,0.5-3,0.2c-0.9-0.3-1-1.4-1-2.2c-0.4-6.8-0.2-13.3-0.2-20.2c-0.2,0.5-2.8,0.9-3.3,0.9c-1.4,0.2-2.7-0.2-2.8-1.8
			c-0.2-1.6,0.9-2.5,2.4-3c1.6-0.5,3.2-1.2,4.9-1.7C638.2,351.8,638.5,351.7,638.8,351.6z"/>
		<path style="fill:#008CCF;" d="M654.9,379.4c-1.4-0.5-2.7-1.6-3.7-2.8c-2.5-2.8-3.8-6.9-3.8-10.8c0-2.7,0.5-5.4,1.6-7.8
			c0.7-1.8,2.5-4.1,4.1-4.9c0.6-0.3,1.2-0.5,1.9-0.8c1.7-0.5,3.9-0.4,5.7,0c4.8,1.1,6.8,6.3,7.4,11.2c0.2,1.6,0.1,3.3-0.1,5
			c-0.4,3-1,6-3.2,8.2c-1.9,1.9-4.3,3-6.9,3.1C656.8,379.9,655.8,379.8,654.9,379.4z M655.6,357.7c-0.7,0.5-1.3,1.2-1.7,1.9
			c-1.1,1.9-1.4,4.1-1.4,6.2c0,2.2,0.4,4.8,1.7,6.7c0.6,0.9,1.5,1.7,2.6,2s2.1,0.2,3.1-0.4c3-1.8,3.4-6.7,3.2-9.8
			c-0.2-3.1-1.5-7.3-5.3-7.2C657,357.2,656.2,357.3,655.6,357.7z"/>
	</g>
	<g>
		<path style="fill:#231F20;" d="M711.8,359.3c0.2-1.7,1.6-4,2.9-5.1c2.5-2,6.6-2.9,9.7-2c4.1,1.3,6.6,4.1,6.6,8.5
			c0,4.2-1.4,6.5-6.2,10.3c-0.8,0.7-1.6,1.4-2.5,2c-0.5,0.4-3.5,1.8-1.6,2c1.1,0.1,1.6,0,2.7,0c1.3,0,2.7-0.1,3.9,0
			c1.1,0.1,2.6-0.2,3.4,0.5c0.8,0.7,0.9,2.8,0.2,3.5c-0.7,0.8-1.8,0.5-2.7,0.5h-14c-0.5,0-1.2,0.1-1.6,0c-0.9-0.2-0.7-1.1-0.7-1.9
			c0-2.7,2.8-4.4,4.7-5.9c1.4-1.2,3-2.4,4.4-3.6c3.7-3,5-4.8,5-7.1c0-2.6-1.8-4.1-4.3-4.1c-1.8,0-3.5,0.8-4.5,2.3
			c-0.3,0.5-0.6,1.2-0.9,1.7C714.8,363.5,711.6,361.8,711.8,359.3z"/>
	</g>
	<path style="fill:#008CCF;" d="M734.9,395.6H624.4c-9.1,0-9.3-9.2-9.3-9.3v-41c0-9.1,9.2-9.3,9.3-9.3H735c9.1,0,9.3,9.2,9.3,9.3v41
		C744.2,395.5,735,395.6,734.9,395.6z M624.4,337.5c-0.3,0-7.8,0.1-7.8,7.8v41c0,0.3,0.1,7.8,7.8,7.8H735c0.3,0,7.8-0.1,7.8-7.8v-41
		c0-0.3-0.1-7.8-7.8-7.8H624.4L624.4,337.5z"/>
	<path style="fill:#111111;" d="M692.3,366.2l7.1-7.1c1-1,1-2.6,0-3.5s-2.6-1-3.5,0l-7.1,7.1l-7.1-7.1c-1-1-2.6-1-3.5,0
		s-1,2.6,0,3.5l7.1,7.1l-7.1,7.1c-1,1-1,2.6,0,3.5s2.6,1,3.5,0l7.1-7.1l7.1,7.1c1,1,2.6,1,3.5,0s1-2.6,0-3.5L692.3,366.2z"/>
</g>
<path style="fill:#DA8593;" d="M813.9,344.9c-0.8,0-1.5-0.7-1.5-1.5v-2.5c0-0.8,0.7-1.5,1.5-1.5s1.5,0.7,1.5,1.5v2.5
	C815.4,344.2,814.7,344.9,813.9,344.9z M813.9,336.8c-0.8,0-1.5-0.7-1.5-1.5v-2.5c0-0.8,0.7-1.5,1.5-1.5s1.5,0.7,1.5,1.5v2.5
	C815.4,336.1,814.7,336.8,813.9,336.8z M813.9,328.7c-0.8,0-1.5-0.7-1.5-1.5v-2.5c0-0.8,0.7-1.5,1.5-1.5s1.5,0.7,1.5,1.5v2.5
	C815.4,328,814.7,328.7,813.9,328.7z M813.9,320.6c-0.8,0-1.5-0.7-1.5-1.5v-2.5c0-0.8,0.7-1.5,1.5-1.5s1.5,0.7,1.5,1.5v2.5
	C815.4,320,814.7,320.6,813.9,320.6z M813.9,312.5c-0.8,0-1.5-0.7-1.5-1.5v-2.5c0-0.8,0.7-1.5,1.5-1.5s1.5,0.7,1.5,1.5v2.5
	C815.4,311.9,814.7,312.5,813.9,312.5z"/>
<g>
	<path style="fill:#FFFFFF;" d="M767.1,336.8c0,0-8.5,0-8.5,8.5v41c0,0,0,8.5,8.5,8.5h93.5c0,0,8.5,0,8.5-8.5v-41c0,0,0-8.5-8.5-8.5
		H767.1z"/>
	<g>
		<path style="fill:#C83164;" d="M790.2,353.6c0.2,1.8,0.2,3.7,0.2,5.6c0,2.1,0,4.2,0,6.3v3.3h1.7c1.1,0,2.7,0.5,2.7,1.9
			c0,1.6-1.2,2.1-2.7,2.2c-0.2,0-1.7,0.1-1.8,0v2.7c0,1.1,0.1,3-1,3.8c-0.5,0.3-1.8,0.4-2.4,0.2c-0.9-0.3-1.1-1.6-1.2-2.4
			c0-0.4,0.1-4-0.2-4h-6.9c-1.5,0-3.4,0.2-4.5-0.7c-1.8-1.4-0.3-3.5,0.7-4.8c2-2.7,3.8-5.5,5.7-8.2c1-1.4,2.2-2.7,3.2-4.1
			c0.7-1.1,1.5-2.4,2.8-3c1.2-0.6,2.5-0.7,3.1,0.2C790,352.8,790.1,353.2,790.2,353.6z M786,359.6l-6.5,9.1h6.5V359.6z"/>
	</g>
	<g>
		<path style="fill:#231F20;" d="M832.9,359.1c0.2-1.7,1.6-4,2.9-5.1c2.5-2,6.6-2.9,9.7-2c4.1,1.3,6.6,4.1,6.6,8.5
			c0,4.2-1.4,6.5-6.2,10.3c-0.8,0.7-1.6,1.4-2.5,2c-0.5,0.4-3.5,1.8-1.6,2c1.1,0.1,1.6,0,2.7,0c1.3,0,2.7-0.1,3.9,0
			c1.1,0.1,2.6-0.2,3.4,0.5c0.8,0.7,0.9,2.8,0.2,3.5c-0.7,0.8-1.8,0.5-2.7,0.5h-14c-0.5,0-1.2,0.1-1.6,0c-0.9-0.2-0.7-1.1-0.7-1.9
			c0-2.7,2.8-4.4,4.7-5.9c1.4-1.2,3-2.4,4.4-3.6c3.7-3,5-4.8,5-7.1c0-2.6-1.8-4.1-4.3-4.1c-1.8,0-3.5,0.8-4.5,2.3
			c-0.3,0.5-0.6,1.2-0.9,1.7C835.9,363.2,832.7,361.6,832.9,359.1z"/>
	</g>
	<path style="fill:#C83164;" d="M860.6,395.6h-93.5c-9.1,0-9.3-9.2-9.3-9.3v-41c0-9.1,9.2-9.3,9.3-9.3h93.5c9.1,0,9.3,9.2,9.3,9.3
		v41C869.9,395.5,860.7,395.6,860.6,395.6z M767.1,337.5c-0.3,0-7.8,0.1-7.8,7.8v41c0,0.3,0.1,7.8,7.8,7.8h93.5
		c0.3,0,7.8-0.1,7.8-7.8v-41c0-0.3-0.1-7.8-7.8-7.8H767.1L767.1,337.5z"/>
	<path style="fill:#111111;" d="M816.1,366l7.1-7.1c1-1,1-2.6,0-3.5s-2.6-1-3.5,0l-7.1,7.1l-7.1-7.1c-1-1-2.6-1-3.5,0s-1,2.6,0,3.5
		l7.1,7.1l-7.1,7.1c-1,1-1,2.6,0,3.5s2.6,1,3.5,0l7.1-7.1l7.1,7.1c1,1,2.6,1,3.5,0s1-2.6,0-3.5L816.1,366z"/>
</g>
<path style="fill:#111111;" d="M766.8,272.3h-9v-9c0-1.4-1.1-2.5-2.5-2.5s-2.5,1.1-2.5,2.5v9h-9c-1.4,0-2.5,1.1-2.5,2.5
	s1.1,2.5,2.5,2.5h9v9c0,1.4,1.1,2.5,2.5,2.5s2.5-1.1,2.5-2.5v-9h9c1.4,0,2.5-1.1,2.5-2.5S768.2,272.3,766.8,272.3z"/>
<path style="fill:#E9BCC1;" d="M839.4,240.2h-51c0,0-8.5,0-8.5,8.5v51c0,0,0,8.5,8.5,8.5h51c0,0,8.5,0,8.5-8.5v-51
	C847.9,248.7,847.9,240.2,839.4,240.2"/>
</svg>
