<?xml version="1.0" encoding="utf-8"?>
<!-- Generator: Adobe Illustrator 23.0.0, SVG Export Plug-In . SVG Version: 6.00 Build 0)  -->
<svg version="1.1" id="Layer_1" xmlns="http://www.w3.org/2000/svg" xmlns:xlink="http://www.w3.org/1999/xlink" x="0px" y="0px"
	 width="1220px" height="450px" viewBox="0 0 1220 450" style="enable-background:new 0 0 1220 450;" xml:space="preserve">
<g>
	
		<line style="fill:none;stroke:#000000;stroke-width:2;stroke-linecap:round;stroke-linejoin:round;stroke-miterlimit:10;" x1="906" y1="148.4" x2="1100" y2="148.4"/>
	<path style="fill:#000111;" d="M941.8,117l-6.4-6.4l6.4-6.4c1-1,1-2.5,0-3.5s-2.5-1-3.5,0l-6.4,6.4l-6.4-6.4c-1-1-2.5-1-3.5,0
		s-1,2.5,0,3.5l6.4,6.4L922,117c-1,1-1,2.5,0,3.5s2.5,1,3.5,0l6.4-6.4l6.4,6.4c1,1,2.5,1,3.5,0C942.8,119.5,942.8,118,941.8,117z"/>
	<g>
		<g>
			
				<line style="fill:none;stroke:#000000;stroke-width:2;stroke-linecap:round;stroke-linejoin:round;" x1="1089.7" y1="5" x2="1089.7" y2="7.5"/>
			
				<line style="fill:none;stroke:#000000;stroke-width:2;stroke-linecap:round;stroke-linejoin:round;stroke-dasharray:5.0666,4.0533;" x1="1089.7" y1="11.6" x2="1089.7" y2="210.2"/>
			
				<line style="fill:none;stroke:#000000;stroke-width:2;stroke-linecap:round;stroke-linejoin:round;" x1="1089.7" y1="212.2" x2="1089.7" y2="214.7"/>
		</g>
	</g>
	<g>
		<g>
			
				<line style="fill:none;stroke:#000000;stroke-width:2;stroke-linecap:round;stroke-linejoin:round;" x1="1029.4" y1="5" x2="1029.4" y2="7.5"/>
			
				<line style="fill:none;stroke:#000000;stroke-width:2;stroke-linecap:round;stroke-linejoin:round;stroke-dasharray:5.0666,4.0533;" x1="1029.4" y1="11.6" x2="1029.4" y2="210.2"/>
			
				<line style="fill:none;stroke:#000000;stroke-width:2;stroke-linecap:round;stroke-linejoin:round;" x1="1029.4" y1="212.2" x2="1029.4" y2="214.7"/>
		</g>
	</g>
	<g>
		<g>
			
				<line style="fill:none;stroke:#000000;stroke-width:2;stroke-linecap:round;stroke-linejoin:round;" x1="969.2" y1="5" x2="969.2" y2="7.5"/>
			
				<line style="fill:none;stroke:#000000;stroke-width:2;stroke-linecap:round;stroke-linejoin:round;stroke-dasharray:5.0666,4.0533;" x1="969.2" y1="11.6" x2="969.2" y2="210.2"/>
			
				<line style="fill:none;stroke:#000000;stroke-width:2;stroke-linecap:round;stroke-linejoin:round;" x1="969.2" y1="212.2" x2="969.2" y2="214.7"/>
		</g>
	</g>
	<g>
		<g>
			<path style="fill:#008CCF;" d="M999.7,19.1c0.8,0,1.4,0.2,1.9,0.5s0.7,0.9,0.7,1.6v31.7c0,0.7-0.2,1.3-0.7,1.6s-1.1,0.5-1.7,0.5
				s-1.2-0.2-1.7-0.5s-0.7-0.9-0.7-1.6V25l-7.5,4.6c-0.6,0.4-1.2,0.4-1.8,0.2c-0.6-0.2-1-0.6-1.3-1.2c-0.3-0.5-0.4-1.1-0.3-1.7
				s0.4-1,1-1.4l8.9-5.3c0.7-0.4,1.3-0.6,1.8-0.8C998.7,19.2,999.2,19.1,999.7,19.1z"/>
		</g>
	</g>
	<g>
		<g>
			<path style="fill:#C83164;" d="M1060,18.8c1.9,0,3.5,0.2,4.9,0.7s2.5,1.1,3.5,1.9c0.9,0.8,1.6,1.8,2.1,2.9s0.7,2.3,0.7,3.5v0.5
				c0,1.9-0.4,3.6-1.2,5.2c-0.8,1.6-2,3.3-3.7,5l-11.5,12.1h16.2c0.6,0,1,0.2,1.3,0.6s0.4,0.9,0.4,1.5s-0.1,1.1-0.4,1.5
				s-0.7,0.6-1.3,0.6h-19.2c-1.3,0-2.2-0.2-2.8-0.6c-0.6-0.4-0.8-1.1-0.8-2c0-0.4,0.1-0.8,0.3-1.2c0.2-0.4,0.6-0.9,1.1-1.4
				l12.2-12.8c0.9-0.9,1.6-1.8,2.2-2.5c0.5-0.7,1-1.4,1.3-2c0.3-0.6,0.6-1.2,0.7-1.8c0.1-0.6,0.2-1.2,0.2-1.9v-0.2
				c0-1.5-0.5-2.6-1.5-3.5s-2.5-1.3-4.5-1.3c-1.7,0-3.1,0.3-4.2,1s-2.1,1.7-3,3c-0.4,0.5-0.8,0.8-1.4,0.9s-1.1-0.1-1.6-0.4
				c-0.5-0.4-0.9-0.8-1-1.4s0-1.1,0.3-1.7c1.1-1.7,2.5-3,4.3-4.2C1055.2,19.4,1057.4,18.8,1060,18.8z"/>
		</g>
	</g>
	<g>
		<g>
			<path d="M1059.3,92.8c1.9,0,3.6,0.2,5,0.7s2.6,1.1,3.6,1.9s1.7,1.8,2.1,2.9s0.7,2.3,0.7,3.5v0.2c0,0.9-0.1,1.7-0.4,2.5
				c-0.2,0.8-0.6,1.6-1.1,2.4c-0.5,0.7-1.1,1.4-1.9,2s-1.7,1-2.8,1.4c1.1,0.2,2.1,0.5,3,0.9s1.7,1,2.4,1.6s1.2,1.5,1.6,2.4
				s0.6,2,0.6,3.2v0.5c0,1.4-0.3,2.7-0.8,3.9c-0.5,1.3-1.3,2.4-2.3,3.3s-2.4,1.7-3.9,2.3c-1.6,0.6-3.4,0.8-5.5,0.8
				c-4,0-7.4-1-10.2-2.9c-0.6-0.4-1-0.9-1.1-1.5s0-1.2,0.4-1.8c0.4-0.6,0.8-1,1.4-1.1c0.5-0.1,1.1,0,1.7,0.3
				c1.2,0.8,2.4,1.4,3.6,1.8s2.5,0.6,3.9,0.6s2.6-0.2,3.6-0.5s1.8-0.8,2.4-1.3s1.1-1.2,1.3-1.9c0.3-0.7,0.4-1.5,0.4-2.3v-0.4
				c0-1.1-0.2-2-0.6-2.7s-0.9-1.3-1.6-1.8s-1.5-0.8-2.5-1s-2-0.3-3.1-0.3h-2.8c-0.6,0-1.1-0.2-1.4-0.6s-0.4-0.9-0.4-1.5
				s0.1-1.1,0.4-1.5s0.7-0.6,1.4-0.6h2.4c2,0,3.7-0.5,5-1.4s2-2.4,2-4.5v-0.1c0-1.5-0.5-2.8-1.6-3.7c-1.1-0.9-2.7-1.4-4.9-1.4
				c-1.4,0-2.6,0.2-3.6,0.7s-2,1.2-2.8,2.2c-0.5,0.5-1,0.7-1.6,0.6s-1.1-0.3-1.5-0.8s-0.6-1-0.6-1.5s0.2-1.1,0.6-1.5
				c1-1.2,2.2-2.2,3.9-3C1055.3,93.2,1057.2,92.8,1059.3,92.8z"/>
		</g>
	</g>
	<g>
		<path d="M995.5,163.8c1.9,0,3.6,0.2,5,0.7s2.6,1.1,3.6,1.9s1.7,1.8,2.1,2.9s0.7,2.3,0.7,3.5v0.2c0,0.9-0.1,1.7-0.4,2.5
			c-0.2,0.8-0.6,1.6-1.1,2.4c-0.5,0.7-1.1,1.4-1.9,2s-1.7,1-2.8,1.4c1.1,0.2,2.1,0.5,3,0.9s1.7,1,2.4,1.6s1.2,1.5,1.6,2.4
			s0.6,2,0.6,3.2v0.5c0,1.4-0.3,2.7-0.8,3.9c-0.5,1.3-1.3,2.4-2.3,3.3s-2.4,1.7-3.9,2.3c-1.6,0.6-3.4,0.8-5.5,0.8
			c-4,0-7.4-1-10.2-2.9c-0.6-0.4-1-0.9-1.1-1.5s0-1.2,0.4-1.8s0.8-1,1.4-1.1c0.5-0.1,1.1,0,1.7,0.3c1.2,0.8,2.4,1.4,3.6,1.8
			c1.2,0.4,2.5,0.6,3.9,0.6s2.6-0.2,3.6-0.5s1.8-0.8,2.4-1.3s1.1-1.2,1.3-1.9c0.3-0.7,0.4-1.5,0.4-2.3v-0.4c0-1.1-0.2-2-0.6-2.7
			s-0.9-1.3-1.6-1.8s-1.5-0.8-2.5-1s-2-0.3-3.1-0.3h-2.8c-0.6,0-1.1-0.2-1.4-0.6c-0.3-0.4-0.4-0.9-0.4-1.5s0.1-1.1,0.4-1.5
			s0.7-0.6,1.4-0.6h2.4c2,0,3.7-0.5,5-1.4s2-2.4,2-4.5v-0.1c0-1.5-0.5-2.8-1.6-3.7s-2.7-1.4-4.9-1.4c-1.4,0-2.6,0.2-3.6,0.7
			s-2,1.2-2.8,2.2c-0.5,0.5-1,0.7-1.6,0.6s-1.1-0.3-1.5-0.8s-0.6-1-0.6-1.5s0.2-1.1,0.6-1.5c1-1.2,2.2-2.2,3.9-3
			C991.5,164.2,993.4,163.8,995.5,163.8z"/>
	</g>
	<g>
		<path d="M1062,163.8c1.6,0,3.1,0.2,4.5,0.5s2.5,0.8,3.4,1.3c0.6,0.4,0.9,0.8,1.1,1.3c0.1,0.5,0.1,1.1-0.2,1.6
			c-0.3,0.6-0.7,1-1.2,1.2s-1.1,0.2-1.8-0.1c-0.9-0.4-1.8-0.8-2.8-1s-2.1-0.3-3.2-0.3c-5.3,0-8.2,4.1-8.7,12.4c0.8-1.3,2-2.3,3.6-3
			s3.3-1.1,5-1.1s3.3,0.3,4.7,0.8c1.4,0.5,2.5,1.3,3.5,2.3s1.7,2.2,2.2,3.6s0.8,3,0.8,4.7v0.8c0,1.7-0.3,3.3-0.9,4.7
			s-1.4,2.6-2.5,3.6s-2.4,1.8-3.9,2.4c-1.5,0.6-3.2,0.8-5,0.8c-4.1,0-7.2-1.3-9.3-3.9c-2.1-2.6-3.2-6.3-3.2-11.2v-1.4
			c0-3.9,0.3-7.1,1-9.7c0.7-2.6,1.7-4.6,2.9-6.2c1.2-1.5,2.7-2.6,4.4-3.3C1058.2,164.1,1060,163.8,1062,163.8z M1060.8,181
			c-1.2,0-2.3,0.2-3.2,0.5s-1.7,0.9-2.3,1.5c-0.6,0.6-1.1,1.4-1.4,2.2s-0.5,1.7-0.5,2.7v0.4c0,2.3,0.6,4.1,1.9,5.5
			c1.3,1.3,3.1,2,5.3,2c2.3,0,4.2-0.6,5.5-1.8s2-3,2-5.4v-0.3C1068.1,183.4,1065.6,181,1060.8,181z"/>
	</g>
</g>
</svg>
