
<svg xmlns="http://www.w3.org/2000/svg" version="1.1" xmlns:xlink="http://www.w3.org/1999/xlink" preserveAspectRatio="none" x="0px" y="0px" width="1280px" height="720px" viewBox="0 0 1280 720">
<defs>
<g id="Layer1_0_FILL">
<path fill="#FF8A9D" stroke="none" d="
M 389.15 471.15
L 403.85 487.85 418.45 471.15 403.75 471.15 389.15 471.15
M 725.7 218.2
L 725.7 232.8 742.4 218.1 725.7 203.5 725.7 218.2 Z"/>

<path fill="#FFFFFF" stroke="none" d="
M 439.65 574.45
Q 439.65 585.6 447.55 593.55 455.5 601.45 466.75 601.45
L 592.65 601.45 592.65 485.9 439.65 485.9 439.65 574.45
M 737.75 593.55
Q 745.65 585.6 745.65 574.45
L 745.65 485.9 592.65 485.9 592.65 601.45 718.7 601.45
Q 724.75 601.45 729.85 599.1 734.15 597.15 737.75 593.55
M 898.75 370.6
L 745.65 370.6 745.65 485.9 871.75 485.9
Q 882.85 485.9 890.8 477.95 898.75 470 898.75 458.9
L 898.75 370.6
M 745.65 254.25
L 745.65 370.6 898.75 370.6 898.75 281.25
Q 898.75 270.15 890.8 262.2 882.85 254.25 871.75 254.25
L 745.65 254.25 Z"/>

<path fill="#FFF4CE" stroke="none" d="
M 592.65 370.6
L 439.65 370.6 439.65 485.9 592.65 485.9 592.65 370.6
M 530.5 393.25
Q 529.05 393.95 528.05 395.2 527.05 396.45 526.5 398.1 525.9 399.8 525.65 401.75 526 401.25 526.6 400.8 527.2 400.35 527.95 400 528.7 399.65 529.5 399.45 530.3 399.2 531.05 399.2 533.25 399.2 535 399.9 536.8 400.6 538.05 401.9 539.35 403.2 540.05 405.05 540.75 406.85 540.75 409.15 540.75 411.35 540.05 413.2 539.4 415.15 538.1 416.5 536.8 417.95 534.95 418.75 533.1 419.55 530.8 419.55 526.1 419.55 523.55 416 521 412.45 521 405 521 401.6 521.7 398.6 522.4 395.55 523.95 393.35 525.55 391.1 528.1 389.75 530.65 388.45 534.4 388.45 535.55 388.45 536.95 388.65 538.4 388.85 539.3 389.2 539.65 389.3 539.6 389.7
L 539.5 392.9
Q 539.4 393.45 538.85 393.2 537.8 392.8 536.65 392.7 535.45 392.6 534.05 392.6 532 392.6 530.5 393.25
M 539.8 441.95
Q 539.8 442.3 539.55 442.6
L 529 468.65
Q 528.8 468.95 528.65 469.1 528.5 469.2 528.1 469.2
L 524.85 469.2
Q 524.25 469.2 524.1 469.05 523.95 468.95 524.1 468.5
L 534.55 442.95 521.8 442.95
Q 521.5 442.95 521.3 442.75 521.1 442.6 521.1 442.25
L 521.1 439.45
Q 521.1 438.8 521.8 438.8
L 538.8 438.8
Q 539.5 438.8 539.65 438.95 539.8 439.1 539.8 439.55
L 539.8 441.95
M 492.3 413.8
Q 493.95 413.45 495.65 413.45 497.45 413.45 499.2 413.9 500.95 414.35 502.25 415.25 503.6 416.15 504.45 417.65 505.3 419.15 505.3 421.15 505.3 422.25 504.95 423.35 504.55 424.4 503.85 425.35 503.15 426.35 502.2 427.1 501.25 427.85 500.15 428.35 502.8 429.5 504.15 431.25 505.5 433.05 505.5 435.25 505.5 437.35 504.7 439.15 503.85 440.9 502.35 442.15 500.85 443.4 498.7 443.95 496.55 444.55 494.25 444.55 492.5 444.55 490.75 444.25 489 443.95 487.55 443.4 487.15 443.3 487 443.1 486.8 442.95 486.85 442.6
L 487.2 439.55
Q 487.25 439.2 487.45 439.1 487.65 438.95 488.2 439.2 489.25 439.5 490.3 439.8 491.35 440.1 492.45 440.2 493.25 440.25 494.15 440.3 495.05 440.35 495.9 440.25 496.75 440.15 497.55 439.85 498.3 439.6 498.95 439.15 500.9 437.8 500.9 435.15 500.9 434.2 500.5 433.35 500.05 432.5 499.2 431.85 498.3 431.15 496.9 430.8 495.55 430.4 493.6 430.4
L 491.65 430.4
Q 491.3 430.4 491.2 430.3 491.1 430.2 491.1 429.9
L 491.1 426.95
Q 491.1 426.55 491.2 426.5 491.3 426.4 491.65 426.4
L 493.55 426.4
Q 494.4 426.4 495.65 426.15 496.9 425.9 498.05 425.3 499.25 424.7 500.05 423.75 500.85 422.85 500.85 421.5 500.85 420.5 500.35 419.75 499.8 418.95 499 418.5 498.15 418 497.2 417.8 496.25 417.6 495.4 417.6 494.85 417.6 494.15 417.7 493.4 417.8 492.6 418 491.8 418.15 491 418.4 490.2 418.65 489.6 418.9 489.1 419.1 488.9 419 488.7 418.9 488.6 418.55
L 488.25 415.6
Q 488.15 415.35 488.3 415.2 488.45 415 488.85 414.8 490.6 414.2 492.3 413.8
M 511.6 428.75
L 549.8 428.75 511.6 428.75
M 531.2 403.4
Q 528.6 403.4 527.15 404.95 525.65 406.5 525.65 408.95 525.65 410.35 526.05 411.5 526.45 412.75 527.15 413.65 527.85 414.55 528.8 415.05 529.8 415.55 530.9 415.55 533.3 415.55 534.85 413.9 536.35 412.2 536.35 409.35 536.35 406.55 535 405 533.65 403.4 531.2 403.4
M 466.75 254.25
Q 455.5 254.25 447.55 262.2 439.65 270.15 439.65 281.25
L 439.65 370.6 592.65 370.6 592.65 254.25 466.75 254.25
M 524.2 301.95
Q 524.05 302.15 523.8 302.15
L 512.65 302.15 512.5 309.55
Q 514.1 309.2 516.05 309.2 518.05 309.2 519.8 309.8 521.55 310.45 522.85 311.6 524.15 312.8 524.9 314.5 525.65 316.15 525.65 318.25 525.65 323.3 522.5 326.1 521.1 327.4 519 328.05 516.95 328.7 514.65 328.7 514.25 328.7 513.4 328.65 512.6 328.55 511.65 328.45 510.7 328.3 509.8 328.05 508.85 327.85 508.2 327.55 507.95 327.35 507.9 327.25 507.9 327.1 507.9 326.8
L 507.9 323.55
Q 507.9 322.85 508.75 323.25 509.3 323.55 510.1 323.8 510.9 324 511.75 324.2 512.6 324.35 513.4 324.4 514.25 324.5 514.95 324.5 517.65 324.5 519.35 322.95 521.15 321.45 521.15 318.75 521.15 316.15 519.7 314.65 518.3 313.1 515 313.1 513.7 313.1 512.3 313.4 510.9 313.65 509.65 314.1 508.1 314.75 508.1 313.4
L 508.3 298.65
Q 508.3 298.2 508.45 298.1 508.55 297.95 509.15 297.95
L 523.8 297.95
Q 524.05 297.95 524.2 298.15 524.3 298.3 524.3 298.5
L 524.3 301.55
Q 524.3 301.8 524.2 301.95
M 745.65 485.9
L 745.65 370.6 592.65 370.6 592.65 485.9 745.65 485.9
M 675.6 393.55
L 675.25 390.6
Q 675.15 390.35 675.3 390.2 675.45 390 675.85 389.8 677.6 389.2 679.3 388.8 680.95 388.45 682.65 388.45 684.45 388.45 686.2 388.9 687.95 389.35 689.25 390.25 690.6 391.15 691.45 392.65 692.3 394.15 692.3 396.15 692.3 397.25 691.95 398.35 691.55 399.4 690.85 400.35 690.15 401.35 689.2 402.1 688.25 402.85 687.15 403.35 689.8 404.5 691.15 406.25 692.5 408.05 692.5 410.25 692.5 412.35 691.7 414.15 690.85 415.9 689.35 417.15 687.85 418.4 685.7 418.95 683.55 419.55 681.25 419.55 679.5 419.55 677.75 419.25 676 418.95 674.55 418.4 674.15 418.3 674 418.1 673.8 417.95 673.85 417.6
L 674.2 414.55
Q 674.25 414.2 674.45 414.1 674.65 413.95 675.2 414.2 676.25 414.5 677.3 414.8 678.35 415.1 679.45 415.2 680.25 415.25 681.15 415.3 682.05 415.35 682.9 415.25 683.75 415.15 684.55 414.85 685.3 414.6 685.95 414.15 687.9 412.8 687.9 410.15 687.9 409.2 687.5 408.35 687.05 407.5 686.2 406.85 685.3 406.15 683.9 405.8 682.55 405.4 680.6 405.4
L 678.65 405.4
Q 678.3 405.4 678.2 405.3 678.1 405.2 678.1 404.9
L 678.1 401.95
Q 678.1 401.55 678.2 401.5 678.3 401.4 678.65 401.4
L 680.55 401.4
Q 681.4 401.4 682.65 401.15 683.9 400.9 685.05 400.3 686.25 399.7 687.05 398.75 687.85 397.85 687.85 396.5 687.85 395.5 687.35 394.75 686.8 393.95 686 393.5 685.15 393 684.2 392.8 683.25 392.6 682.4 392.6 681.85 392.6 681.15 392.7 680.4 392.8 679.6 393 678.8 393.15 678 393.4 677.2 393.65 676.6 393.9 676.1 394.1 675.9 394 675.7 393.9 675.6 393.55
M 691.8 438.8
Q 692.5 438.8 692.65 438.95 692.8 439.1 692.8 439.55
L 692.8 441.95
Q 692.8 442.3 692.55 442.6
L 682 468.65
Q 681.8 468.95 681.65 469.1 681.5 469.2 681.1 469.2
L 677.85 469.2
Q 677.25 469.2 677.1 469.05 676.95 468.95 677.1 468.5
L 687.55 442.95 674.8 442.95
Q 674.5 442.95 674.3 442.75 674.1 442.6 674.1 442.25
L 674.1 439.45
Q 674.1 438.8 674.8 438.8
L 691.8 438.8
M 655 415.6
Q 656.15 416.65 656.85 418.25 657.55 419.85 657.55 421.95 657.55 423.75 656.75 425.6 655.95 427.45 654.75 429.25 653.55 431 652.2 432.65 650.8 434.25 649.7 435.55 648.85 436.65 647.85 437.85 646.85 439 645.85 440.15
L 657.6 440.15
Q 658.15 440.15 658.15 440.75
L 658.15 443.55
Q 658.15 444.25 657.6 444.25
L 640.55 444.25
Q 639.8 444.25 639.8 443.75
L 639.8 441.45
Q 639.8 441.15 639.95 440.8 640.15 440.5 640.35 440.2
L 646.45 432.95
Q 649.8 429 651.4 426.35 653 423.75 653 422.05 653 420.15 651.8 418.9 650.65 417.65 648.9 417.65 647.25 417.65 645.7 418.1 644.2 418.55 642.4 419.6 642.05 419.8 641.75 419.8 641.45 419.75 641.35 419.4
L 640.8 416.35
Q 640.7 416.15 640.8 416 640.95 415.75 641.35 415.55 642.85 414.75 644.8 414.1 646.8 413.45 648.65 413.45 650.6 413.45 652.2 414 653.85 414.55 655 415.6
M 664.6 428.75
L 702.8 428.75 664.6 428.75
M 745.65 370.6
L 745.65 254.25 592.65 254.25 592.65 370.6 745.65 370.6
M 680 284.55
Q 681.6 284.2 683.55 284.2 685.55 284.2 687.3 284.8 689.05 285.45 690.35 286.6 691.65 287.8 692.4 289.5 693.15 291.15 693.15 293.25 693.15 298.3 690 301.1 688.6 302.4 686.5 303.05 684.45 303.7 682.15 303.7 681.75 303.7 680.9 303.65 680.1 303.55 679.15 303.45 678.2 303.3 677.3 303.05 676.35 302.85 675.7 302.55 675.45 302.35 675.4 302.25 675.4 302.1 675.4 301.8
L 675.4 298.55
Q 675.4 297.85 676.25 298.25 676.8 298.55 677.6 298.8 678.4 299 679.25 299.2 680.1 299.35 680.9 299.4 681.75 299.5 682.45 299.5 685.15 299.5 686.85 297.95 688.65 296.45 688.65 293.75 688.65 291.15 687.2 289.65 685.8 288.1 682.5 288.1 681.2 288.1 679.8 288.4 678.4 288.65 677.15 289.1 675.6 289.75 675.6 288.4
L 675.8 273.65
Q 675.8 273.2 675.95 273.1 676.05 272.95 676.65 272.95
L 691.3 272.95
Q 691.55 272.95 691.7 273.15 691.8 273.3 691.8 273.5
L 691.8 276.55
Q 691.8 276.8 691.7 276.95 691.55 277.15 691.3 277.15
L 680.15 277.15 680 284.55
M 692.8 326.15
Q 692.8 326.5 692.55 326.8
L 682 352.85
Q 681.8 353.15 681.65 353.3 681.5 353.4 681.1 353.4
L 677.85 353.4
Q 677.25 353.4 677.1 353.25 676.95 353.15 677.1 352.7
L 687.55 327.15 674.8 327.15
Q 674.5 327.15 674.3 326.95 674.1 326.8 674.1 326.45
L 674.1 323.65
Q 674.1 323 674.8 323
L 691.8 323
Q 692.5 323 692.65 323.15 692.8 323.3 692.8 323.75
L 692.8 326.15
M 656.25 298.15
Q 656.3 298.25 656.3 298.6
L 656.3 317.5 660 317.5
Q 660.35 317.5 660.5 317.6 660.65 317.7 660.65 318.1
L 660.65 321
Q 660.65 321.4 660.5 321.5 660.35 321.6 660 321.6
L 656.3 321.6 656.3 327.7
Q 656.3 328.15 656.15 328.25 656.05 328.4 655.65 328.4
L 652.75 328.4
Q 652.3 328.4 652.15 328.25 652 328.1 652 327.7
L 652 321.6 639.2 321.6
Q 638.85 321.6 638.7 321.5 638.55 321.45 638.55 321.15
L 638.55 318.15
Q 638.55 317.9 638.75 317.6 638.9 317.3 639.05 317.15
L 651.45 298.55
Q 651.65 298.2 651.75 298.1 651.85 298 652.25 298
L 655.9 298
Q 656.2 298 656.25 298.15
M 664.6 312.95
L 702.8 312.95 664.6 312.95
M 652 317.5
L 652 304.45 643.4 317.5 652 317.5 Z"/>

<path fill="#1E1E1E" stroke="none" d="
M 495.65 413.45
Q 493.95 413.45 492.3 413.8 490.6 414.2 488.85 414.8 488.45 415 488.3 415.2 488.15 415.35 488.25 415.6
L 488.6 418.55
Q 488.7 418.9 488.9 419 489.1 419.1 489.6 418.9 490.2 418.65 491 418.4 491.8 418.15 492.6 418 493.4 417.8 494.15 417.7 494.85 417.6 495.4 417.6 496.25 417.6 497.2 417.8 498.15 418 499 418.5 499.8 418.95 500.35 419.75 500.85 420.5 500.85 421.5 500.85 422.85 500.05 423.75 499.25 424.7 498.05 425.3 496.9 425.9 495.65 426.15 494.4 426.4 493.55 426.4
L 491.65 426.4
Q 491.3 426.4 491.2 426.5 491.1 426.55 491.1 426.95
L 491.1 429.9
Q 491.1 430.2 491.2 430.3 491.3 430.4 491.65 430.4
L 493.6 430.4
Q 495.55 430.4 496.9 430.8 498.3 431.15 499.2 431.85 500.05 432.5 500.5 433.35 500.9 434.2 500.9 435.15 500.9 437.8 498.95 439.15 498.3 439.6 497.55 439.85 496.75 440.15 495.9 440.25 495.05 440.35 494.15 440.3 493.25 440.25 492.45 440.2 491.35 440.1 490.3 439.8 489.25 439.5 488.2 439.2 487.65 438.95 487.45 439.1 487.25 439.2 487.2 439.55
L 486.85 442.6
Q 486.8 442.95 487 443.1 487.15 443.3 487.55 443.4 489 443.95 490.75 444.25 492.5 444.55 494.25 444.55 496.55 444.55 498.7 443.95 500.85 443.4 502.35 442.15 503.85 440.9 504.7 439.15 505.5 437.35 505.5 435.25 505.5 433.05 504.15 431.25 502.8 429.5 500.15 428.35 501.25 427.85 502.2 427.1 503.15 426.35 503.85 425.35 504.55 424.4 504.95 423.35 505.3 422.25 505.3 421.15 505.3 419.15 504.45 417.65 503.6 416.15 502.25 415.25 500.95 414.35 499.2 413.9 497.45 413.45 495.65 413.45
M 539.55 442.6
Q 539.8 442.3 539.8 441.95
L 539.8 439.55
Q 539.8 439.1 539.65 438.95 539.5 438.8 538.8 438.8
L 521.8 438.8
Q 521.1 438.8 521.1 439.45
L 521.1 442.25
Q 521.1 442.6 521.3 442.75 521.5 442.95 521.8 442.95
L 534.55 442.95 524.1 468.5
Q 523.95 468.95 524.1 469.05 524.25 469.2 524.85 469.2
L 528.1 469.2
Q 528.5 469.2 528.65 469.1 528.8 468.95 529 468.65
L 539.55 442.6
M 528.05 395.2
Q 529.05 393.95 530.5 393.25 532 392.6 534.05 392.6 535.45 392.6 536.65 392.7 537.8 392.8 538.85 393.2 539.4 393.45 539.5 392.9
L 539.6 389.7
Q 539.65 389.3 539.3 389.2 538.4 388.85 536.95 388.65 535.55 388.45 534.4 388.45 530.65 388.45 528.1 389.75 525.55 391.1 523.95 393.35 522.4 395.55 521.7 398.6 521 401.6 521 405 521 412.45 523.55 416 526.1 419.55 530.8 419.55 533.1 419.55 534.95 418.75 536.8 417.95 538.1 416.5 539.4 415.15 540.05 413.2 540.75 411.35 540.75 409.15 540.75 406.85 540.05 405.05 539.35 403.2 538.05 401.9 536.8 400.6 535 399.9 533.25 399.2 531.05 399.2 530.3 399.2 529.5 399.45 528.7 399.65 527.95 400 527.2 400.35 526.6 400.8 526 401.25 525.65 401.75 525.9 399.8 526.5 398.1 527.05 396.45 528.05 395.2
M 527.15 404.95
Q 528.6 403.4 531.2 403.4 533.65 403.4 535 405 536.35 406.55 536.35 409.35 536.35 412.2 534.85 413.9 533.3 415.55 530.9 415.55 529.8 415.55 528.8 415.05 527.85 414.55 527.15 413.65 526.45 412.75 526.05 411.5 525.65 410.35 525.65 408.95 525.65 406.5 527.15 404.95
M 523.8 302.15
Q 524.05 302.15 524.2 301.95 524.3 301.8 524.3 301.55
L 524.3 298.5
Q 524.3 298.3 524.2 298.15 524.05 297.95 523.8 297.95
L 509.15 297.95
Q 508.55 297.95 508.45 298.1 508.3 298.2 508.3 298.65
L 508.1 313.4
Q 508.1 314.75 509.65 314.1 510.9 313.65 512.3 313.4 513.7 313.1 515 313.1 518.3 313.1 519.7 314.65 521.15 316.15 521.15 318.75 521.15 321.45 519.35 322.95 517.65 324.5 514.95 324.5 514.25 324.5 513.4 324.4 512.6 324.35 511.75 324.2 510.9 324 510.1 323.8 509.3 323.55 508.75 323.25 507.9 322.85 507.9 323.55
L 507.9 326.8
Q 507.9 327.1 507.9 327.25 507.95 327.35 508.2 327.55 508.85 327.85 509.8 328.05 510.7 328.3 511.65 328.45 512.6 328.55 513.4 328.65 514.25 328.7 514.65 328.7 516.95 328.7 519 328.05 521.1 327.4 522.5 326.1 525.65 323.3 525.65 318.25 525.65 316.15 524.9 314.5 524.15 312.8 522.85 311.6 521.55 310.45 519.8 309.8 518.05 309.2 516.05 309.2 514.1 309.2 512.5 309.55
L 512.65 302.15 523.8 302.15
M 656.85 418.25
Q 656.15 416.65 655 415.6 653.85 414.55 652.2 414 650.6 413.45 648.65 413.45 646.8 413.45 644.8 414.1 642.85 414.75 641.35 415.55 640.95 415.75 640.8 416 640.7 416.15 640.8 416.35
L 641.35 419.4
Q 641.45 419.75 641.75 419.8 642.05 419.8 642.4 419.6 644.2 418.55 645.7 418.1 647.25 417.65 648.9 417.65 650.65 417.65 651.8 418.9 653 420.15 653 422.05 653 423.75 651.4 426.35 649.8 429 646.45 432.95
L 640.35 440.2
Q 640.15 440.5 639.95 440.8 639.8 441.15 639.8 441.45
L 639.8 443.75
Q 639.8 444.25 640.55 444.25
L 657.6 444.25
Q 658.15 444.25 658.15 443.55
L 658.15 440.75
Q 658.15 440.15 657.6 440.15
L 645.85 440.15
Q 646.85 439 647.85 437.85 648.85 436.65 649.7 435.55 650.8 434.25 652.2 432.65 653.55 431 654.75 429.25 655.95 427.45 656.75 425.6 657.55 423.75 657.55 421.95 657.55 419.85 656.85 418.25
M 692.65 438.95
Q 692.5 438.8 691.8 438.8
L 674.8 438.8
Q 674.1 438.8 674.1 439.45
L 674.1 442.25
Q 674.1 442.6 674.3 442.75 674.5 442.95 674.8 442.95
L 687.55 442.95 677.1 468.5
Q 676.95 468.95 677.1 469.05 677.25 469.2 677.85 469.2
L 681.1 469.2
Q 681.5 469.2 681.65 469.1 681.8 468.95 682 468.65
L 692.55 442.6
Q 692.8 442.3 692.8 441.95
L 692.8 439.55
Q 692.8 439.1 692.65 438.95
M 675.25 390.6
L 675.6 393.55
Q 675.7 393.9 675.9 394 676.1 394.1 676.6 393.9 677.2 393.65 678 393.4 678.8 393.15 679.6 393 680.4 392.8 681.15 392.7 681.85 392.6 682.4 392.6 683.25 392.6 684.2 392.8 685.15 393 686 393.5 686.8 393.95 687.35 394.75 687.85 395.5 687.85 396.5 687.85 397.85 687.05 398.75 686.25 399.7 685.05 400.3 683.9 400.9 682.65 401.15 681.4 401.4 680.55 401.4
L 678.65 401.4
Q 678.3 401.4 678.2 401.5 678.1 401.55 678.1 401.95
L 678.1 404.9
Q 678.1 405.2 678.2 405.3 678.3 405.4 678.65 405.4
L 680.6 405.4
Q 682.55 405.4 683.9 405.8 685.3 406.15 686.2 406.85 687.05 407.5 687.5 408.35 687.9 409.2 687.9 410.15 687.9 412.8 685.95 414.15 685.3 414.6 684.55 414.85 683.75 415.15 682.9 415.25 682.05 415.35 681.15 415.3 680.25 415.25 679.45 415.2 678.35 415.1 677.3 414.8 676.25 414.5 675.2 414.2 674.65 413.95 674.45 414.1 674.25 414.2 674.2 414.55
L 673.85 417.6
Q 673.8 417.95 674 418.1 674.15 418.3 674.55 418.4 676 418.95 677.75 419.25 679.5 419.55 681.25 419.55 683.55 419.55 685.7 418.95 687.85 418.4 689.35 417.15 690.85 415.9 691.7 414.15 692.5 412.35 692.5 410.25 692.5 408.05 691.15 406.25 689.8 404.5 687.15 403.35 688.25 402.85 689.2 402.1 690.15 401.35 690.85 400.35 691.55 399.4 691.95 398.35 692.3 397.25 692.3 396.15 692.3 394.15 691.45 392.65 690.6 391.15 689.25 390.25 687.95 389.35 686.2 388.9 684.45 388.45 682.65 388.45 680.95 388.45 679.3 388.8 677.6 389.2 675.85 389.8 675.45 390 675.3 390.2 675.15 390.35 675.25 390.6
M 656.3 298.6
Q 656.3 298.25 656.25 298.15 656.2 298 655.9 298
L 652.25 298
Q 651.85 298 651.75 298.1 651.65 298.2 651.45 298.55
L 639.05 317.15
Q 638.9 317.3 638.75 317.6 638.55 317.9 638.55 318.15
L 638.55 321.15
Q 638.55 321.45 638.7 321.5 638.85 321.6 639.2 321.6
L 652 321.6 652 327.7
Q 652 328.1 652.15 328.25 652.3 328.4 652.75 328.4
L 655.65 328.4
Q 656.05 328.4 656.15 328.25 656.3 328.15 656.3 327.7
L 656.3 321.6 660 321.6
Q 660.35 321.6 660.5 321.5 660.65 321.4 660.65 321
L 660.65 318.1
Q 660.65 317.7 660.5 317.6 660.35 317.5 660 317.5
L 656.3 317.5 656.3 298.6
M 652 304.45
L 652 317.5 643.4 317.5 652 304.45
M 692.55 326.8
Q 692.8 326.5 692.8 326.15
L 692.8 323.75
Q 692.8 323.3 692.65 323.15 692.5 323 691.8 323
L 674.8 323
Q 674.1 323 674.1 323.65
L 674.1 326.45
Q 674.1 326.8 674.3 326.95 674.5 327.15 674.8 327.15
L 687.55 327.15 677.1 352.7
Q 676.95 353.15 677.1 353.25 677.25 353.4 677.85 353.4
L 681.1 353.4
Q 681.5 353.4 681.65 353.3 681.8 353.15 682 352.85
L 692.55 326.8
M 683.55 284.2
Q 681.6 284.2 680 284.55
L 680.15 277.15 691.3 277.15
Q 691.55 277.15 691.7 276.95 691.8 276.8 691.8 276.55
L 691.8 273.5
Q 691.8 273.3 691.7 273.15 691.55 272.95 691.3 272.95
L 676.65 272.95
Q 676.05 272.95 675.95 273.1 675.8 273.2 675.8 273.65
L 675.6 288.4
Q 675.6 289.75 677.15 289.1 678.4 288.65 679.8 288.4 681.2 288.1 682.5 288.1 685.8 288.1 687.2 289.65 688.65 291.15 688.65 293.75 688.65 296.45 686.85 297.95 685.15 299.5 682.45 299.5 681.75 299.5 680.9 299.4 680.1 299.35 679.25 299.2 678.4 299 677.6 298.8 676.8 298.55 676.25 298.25 675.4 297.85 675.4 298.55
L 675.4 301.8
Q 675.4 302.1 675.4 302.25 675.45 302.35 675.7 302.55 676.35 302.85 677.3 303.05 678.2 303.3 679.15 303.45 680.1 303.55 680.9 303.65 681.75 303.7 682.15 303.7 684.45 303.7 686.5 303.05 688.6 302.4 690 301.1 693.15 298.3 693.15 293.25 693.15 291.15 692.4 289.5 691.65 287.8 690.35 286.6 689.05 285.45 687.3 284.8 685.55 284.2 683.55 284.2 Z"/>
</g>

<g id="Layer0_0_FILL">
<path fill="#FF8A9D" stroke="none" d="
M 387.95 378.65
Q 394.55 385.25 403.85 385.25 413.15 385.25 419.75 378.65 422.5 375.9 424.1 372.7 426.35 368.2 426.35 362.75 426.35 357.3 424.1 352.8 422.5 349.6 419.75 346.85 413.15 340.25 403.85 340.25 394.55 340.25 387.95 346.85 381.35 353.45 381.35 362.75 381.35 372.05 387.95 378.65
M 403.8 381.05
Q 396.25 381.05 390.85 375.6 385.45 370.25 385.45 362.7 385.45 355.1 390.85 349.75 396.25 344.35 403.8 344.35 411.35 344.35 416.75 349.75 419 351.95 420.3 354.6 422.15 358.25 422.15 362.7 422.15 367.1 420.3 370.75 419 373.4 416.75 375.6 411.35 381.05 403.8 381.05
M 582.7 240.8
Q 592 240.8 598.6 234.2 601.35 231.45 602.95 228.25 605.2 223.75 605.2 218.3 605.25 212.85 603 208.35 601.4 205.15 598.65 202.4 592.05 195.8 582.75 195.8 573.45 195.8 566.85 202.4 560.25 209 560.2 218.3 560.2 227.6 566.8 234.2 573.4 240.8 582.7 240.8
M 599.1 210.15
Q 600.95 213.8 600.95 218.25 600.95 222.65 599.1 226.3 597.8 228.95 595.55 231.15 590.15 236.6 582.6 236.6 575.05 236.6 569.65 231.15 564.25 225.8 564.25 218.25 564.25 210.65 569.65 205.3 575.05 199.9 582.6 199.9 590.15 199.9 595.55 205.3 597.8 207.5 599.1 210.15 Z"/>

<path fill="#FFFFFF" stroke="none" d="
M 390.85 375.6
Q 396.25 381.05 403.8 381.05 411.35 381.05 416.75 375.6 419 373.4 420.3 370.75 422.15 367.1 422.15 362.7 422.15 358.25 420.3 354.6 419 351.95 416.75 349.75 411.35 344.35 403.8 344.35 396.25 344.35 390.85 349.75 385.45 355.1 385.45 362.7 385.45 370.25 390.85 375.6
M 392.2 361.45
Q 392.2 360.5 393.15 360.5
L 414.35 360.5
Q 415.3 360.5 415.3 361.45
L 415.3 363.9
Q 415.3 364.8 414.35 364.8
L 393.15 364.8
Q 392.2 364.8 392.2 363.9
L 392.2 361.45
M 600.95 218.25
Q 600.95 213.8 599.1 210.15 597.8 207.5 595.55 205.3 590.15 199.9 582.6 199.9 575.05 199.9 569.65 205.3 564.25 210.65 564.25 218.25 564.25 225.8 569.65 231.15 575.05 236.6 582.6 236.6 590.15 236.6 595.55 231.15 597.8 228.95 599.1 226.3 600.95 222.65 600.95 218.25
M 594.15 217
L 594.15 219.45
Q 594.15 220.35 593.2 220.35
L 572 220.35
Q 571.05 220.35 571.05 219.45
L 571.05 217
Q 571.05 216.05 572 216.05
L 593.2 216.05
Q 594.15 216.05 594.15 217 Z"/>

<path fill="#F0566F" stroke="none" d="
M 393.15 360.5
Q 392.2 360.5 392.2 361.45
L 392.2 363.9
Q 392.2 364.8 393.15 364.8
L 414.35 364.8
Q 415.3 364.8 415.3 363.9
L 415.3 361.45
Q 415.3 360.5 414.35 360.5
L 393.15 360.5
M 594.15 219.45
L 594.15 217
Q 594.15 216.05 593.2 216.05
L 572 216.05
Q 571.05 216.05 571.05 217
L 571.05 219.45
Q 571.05 220.35 572 220.35
L 593.2 220.35
Q 594.15 220.35 594.15 219.45 Z"/>
</g>

<path id="Layer1_0_1_STROKES" stroke="#1E1E1E" stroke-width="3" stroke-linejoin="miter" stroke-linecap="butt" stroke-miterlimit="3" fill="none" d="
M 664.6 312.95
L 702.8 312.95
M 664.6 428.75
L 702.8 428.75
M 511.6 428.75
L 549.8 428.75"/>

<path id="Layer1_0_2_STROKES" stroke="#FFDE64" stroke-width="4" stroke-linejoin="miter" stroke-linecap="butt" stroke-miterlimit="10" fill="none" d="
M 898.75 370.6
L 898.75 281.25
Q 898.75 270.15 890.8 262.2 882.85 254.25 871.75 254.25
L 745.65 254.25 592.65 254.25
M 745.65 485.9
L 871.75 485.9
Q 882.85 485.9 890.8 477.95 898.75 470 898.75 458.9
L 898.75 370.6
M 745.65 485.9
L 745.65 574.45
Q 745.65 585.6 737.75 593.55 734.15 597.15 729.85 599.1 724.75 601.45 718.7 601.45
L 592.65 601.45
M 439.65 485.9
L 439.65 370.6 439.65 281.25
Q 439.65 270.15 447.55 262.2 455.5 254.25 466.75 254.25
L 592.65 254.25
M 592.65 601.45
L 466.75 601.45
Q 455.5 601.45 447.55 593.55 439.65 585.6 439.65 574.45
L 439.65 485.9"/>

<path id="Layer1_0_3_STROKES" stroke="#FFDE64" stroke-width="2" stroke-linejoin="miter" stroke-linecap="butt" stroke-miterlimit="10" fill="none" d="
M 745.65 254.25
L 745.65 370.6 898.75 370.6
M 592.65 254.25
L 592.65 370.6 745.65 370.6 745.65 485.9
M 592.65 485.9
L 592.65 370.6 439.65 370.6
M 439.65 485.9
L 592.65 485.9 745.65 485.9
M 592.65 485.9
L 592.65 601.45"/>

<path id="Layer1_0_4_STROKES" stroke="#FFDE64" stroke-width="1" stroke-linejoin="miter" stroke-linecap="butt" stroke-miterlimit="10" fill="none" d="
M 592.65 601.45
L 592.65 602.25"/>

<path id="Layer1_0_5_STROKES" stroke="#FF8A9D" stroke-width="15" stroke-linejoin="miter" stroke-linecap="butt" stroke-miterlimit="3" fill="none" d="
M 725.7 218.2
L 439.65 218.2
M 403.75 471.15
L 403.75 254.25"/>
</defs>

<g transform="matrix( 1, 0, 0, 1, 0,0) ">
<use xlink:href="#Layer1_0_FILL"/>

<use xlink:href="#Layer1_0_1_STROKES"/>

<use xlink:href="#Layer1_0_2_STROKES"/>

<use xlink:href="#Layer1_0_3_STROKES"/>

<use xlink:href="#Layer1_0_4_STROKES"/>

<use xlink:href="#Layer1_0_5_STROKES"/>
</g>

<g transform="matrix( 1, 0, 0, 1, 0,0) ">
<use xlink:href="#Layer0_0_FILL"/>
</g>
</svg>
