
<svg xmlns="http://www.w3.org/2000/svg" version="1.1" xmlns:xlink="http://www.w3.org/1999/xlink" preserveAspectRatio="none" x="0px" y="0px" width="897px" height="310px" viewBox="0 0 897 310">
<defs>
<g id="Layer0_0_FILL">
<path fill="#FAEDDA" stroke="none" d="
M 897.95 15
Q 897.95 11.1 896.95 8.2 894.05 0 882.95 0
L 15 0
Q 3.9 0 1.05 8.2 0 11.1 0 15
L 0 215.65 0 295.95
Q 0 310.95 15 310.95
L 882.95 310.95
Q 897.95 310.95 897.95 295.95
L 897.95 215.65 897.95 15
M 448.95 227.75
L 448.95 209.75 448.95 83.15 278.85 83.15 448.95 83.15 619.05 83.15 448.95 83.15 448.95 209.75 466.05 209.75 466.05 226.7 466.05 209.75 448.95 209.75 448.95 227.75 619 227.75 448.95 227.75 278.85 227.75 448.95 227.75 Z"/>
</g>

<path id="Layer0_0_1_STROKES" stroke="#332D2B" stroke-width="3" stroke-linejoin="round" stroke-linecap="butt" fill="none" d="
M 448.95 83.15
L 278.85 83.15
M 619 227.75
L 448.95 227.75 278.85 227.75
M 619.05 83.15
L 448.95 83.15"/>

<path id="Layer0_0_2_STROKES" stroke="#E50182" stroke-width="2" stroke-linejoin="round" stroke-linecap="butt" fill="none" d="
M 448.95 227.75
L 448.95 209.75 448.95 83.15
M 448.95 209.75
L 466.05 209.75 466.05 226.7"/>
</defs>

<g transform="matrix( 1, 0, 0, 1, 0,0) ">
<use xlink:href="#Layer0_0_FILL"/>

<use xlink:href="#Layer0_0_1_STROKES"/>

<use xlink:href="#Layer0_0_2_STROKES"/>
</g>
</svg>
