
<svg xmlns="http://www.w3.org/2000/svg" version="1.1" xmlns:xlink="http://www.w3.org/1999/xlink" preserveAspectRatio="none" x="0px" y="0px" width="29px" height="44px" viewBox="0 0 29 44">
<defs>
<g id="fgbgfnfmt58_1_Layer1_0_FILL">
<path fill="#FFE000" stroke="none" d="
M 10.3 -15.55
Q 6.05 -22 0.05 -22 -5.95 -22 -10.2 -15.55 -14.45 -9.1 -14.45 0 -14.45 9.1 -10.2 15.55 -5.95 22 0.05 22 6.05 22 10.3 15.55 14.55 9.1 14.55 0 14.55 -9.1 10.3 -15.55 Z"/>
</g>

<g id="fgbgfnfmt58_1_Layer0_1_FILL">
<path fill="#E50182" stroke="none" d="
M -428 -60.65
L -431.15 -55.15 -424.8 -55.15 -428 -60.65 Z"/>
</g>

<path id="fgbgfnfmt58_1_Layer0_0_1_STROKES" stroke="#E50182" stroke-width="2" stroke-linejoin="round" stroke-linecap="round" fill="none" d="
M 5.1 8.85
Q 4.75 9.55 4.45 10.2 2.35 14.5 -0.6 14.5 -3.5 14.5 -5.65 10.2 -7.75 5.95 -7.75 -0.1 -7.75 -6.1 -5.65 -10.35 -3.5 -14.55 -0.6 -14.55 0.65 -14.55 1.75 -13.75 3.25 -12.75 4.45 -10.35 4.8 -9.65 5.1 -8.9"/>
</defs>

<g transform="matrix( 1, 0, 0, 1, 14.45,22) ">
<g transform="matrix( 1, 0, 0, 1, 0,0) ">
<use xlink:href="#fgbgfnfmt58_1_Layer1_0_FILL"/>
</g>

<g transform="matrix( 1, 0, 0, 1, 0,0) ">
<use xlink:href="#fgbgfnfmt58_1_Layer0_0_1_STROKES"/>
</g>

<g transform="matrix( 0.8411712646484375, 0.6676483154296875, -0.6676483154296875, 0.8411712646484375, 327.2,324.75) ">
<use xlink:href="#fgbgfnfmt58_1_Layer0_1_FILL"/>
</g>
</g>
</svg>
