
<svg xmlns="http://www.w3.org/2000/svg" version="1.1" xmlns:xlink="http://www.w3.org/1999/xlink" preserveAspectRatio="none" x="0px" y="0px" width="130px" height="60px" viewBox="0 0 130 60">
<defs>
<g id="Layer0_0_MEMBER_0_FILL">
<path fill="#FFDA9C" stroke="none" d="
M 333.85 2.85
Q 333.85 1.7 333 0.85 332.15 0 331 0
L 180.75 0
Q 179.6 0 178.75 0.85 177.9 1.7 177.9 2.85
L 177.9 68.05
Q 177.9 69.2 178.75 70.05 179.6 70.85 180.75 70.85
L 331 70.85
Q 332.15 70.85 333 70.05 333.85 69.2 333.85 68.05
L 333.85 2.85 Z"/>
</g>

<g id="Layer0_0_MEMBER_1_FILL">
<path fill="#FFFFFF" stroke="none" d="
M 329 6.3
Q 329 5.15 328.15 4.3 327.3 3.5 326.15 3.5
L 185.6 3.5
Q 184.45 3.5 183.6 4.3 182.75 5.15 182.75 6.3
L 182.75 64.55
Q 182.75 65.7 183.6 66.55 184.45 67.4 185.6 67.4
L 326.15 67.4
Q 327.3 67.4 328.15 66.55 329 65.7 329 64.55
L 329 6.3 Z"/>
</g>

<g id="Layer0_0_MEMBER_2_MEMBER_0_FILL">
<path fill="#5F5E5E" stroke="none" d="
M 295.3 11.15
L 295.3 31.65 298.75 35.35 302.2 31.65 302.2 11.15 298.75 7.45 295.3 11.15 Z"/>
</g>

<g id="Layer0_0_MEMBER_2_MEMBER_1_FILL">
<path fill="#5F5E5E" stroke="none" d="
M 298.75 35.35
L 295.3 39.1 295.3 59.75 298.75 63.45 302.2 59.75 302.2 39.1 298.75 35.35 Z"/>
</g>

<g id="Layer0_0_MEMBER_2_MEMBER_2_FILL">
<path fill="#5F5E5E" stroke="none" d="
M 259.7 14.35
L 274.3 14.35 277.4 10.9 274.3 7.45 259.7 7.45 256.6 10.9 259.7 14.35 Z"/>
</g>

<g id="Layer0_0_MEMBER_2_MEMBER_3_FILL">
<path fill="#5F5E5E" stroke="none" d="
M 274.65 15.65
L 274.65 30.65 278.15 34.4 281.6 30.65 281.6 15.65 278.15 11.95 274.65 15.65 Z"/>
</g>

<g id="Layer0_0_MEMBER_2_MEMBER_4_FILL">
<path fill="#FFFFFF" stroke="none" d="
M 252.4 15.65
L 252.4 30.65 255.85 34.4 259.3 30.65 259.3 15.65 255.85 11.95 252.4 15.65 Z"/>
</g>

<g id="Layer0_0_MEMBER_2_MEMBER_5_FILL">
<path fill="#5F5E5E" stroke="none" d="
M 259.7 38.9
L 274.3 38.9 277.4 35.45 274.3 32 259.7 32 256.6 35.45 259.7 38.9 Z"/>
</g>

<g id="Layer0_0_MEMBER_2_MEMBER_6_FILL">
<path fill="#5F5E5E" stroke="none" d="
M 255.85 36.5
L 252.4 40.2 252.4 55.25 255.85 58.95 259.3 55.25 259.3 40.2 255.85 36.5 Z"/>
</g>

<g id="Layer0_0_MEMBER_2_MEMBER_7_FILL">
<path fill="#5F5E5E" stroke="none" d="
M 259.7 63.45
L 274.3 63.45 277.4 60 274.3 56.55 259.7 56.55 256.6 60 259.7 63.45 Z"/>
</g>

<g id="Layer0_0_MEMBER_2_MEMBER_8_FILL">
<path fill="#5F5E5E" stroke="none" d="
M 216.8 14.35
L 231.4 14.35 234.5 10.9 231.4 7.45 216.8 7.45 213.7 10.9 216.8 14.35 Z"/>
</g>

<g id="Layer0_0_MEMBER_2_MEMBER_9_FILL">
<path fill="#5F5E5E" stroke="none" d="
M 209.55 15.65
L 209.55 30.65 213 34.4 216.45 30.65 216.45 15.65 213 11.95 209.55 15.65 Z"/>
</g>

<g id="Layer0_0_MEMBER_2_MEMBER_10_FILL">
<path fill="#5F5E5E" stroke="none" d="
M 216.8 38.9
L 231.4 38.9 234.5 35.45 231.4 32 216.8 32 213.7 35.45 216.8 38.9 Z"/>
</g>

<g id="Layer0_0_MEMBER_2_MEMBER_11_FILL">
<path fill="#5F5E5E" stroke="none" d="
M 235.25 36.5
L 231.8 40.2 231.8 55.25 235.25 58.95 238.7 55.25 238.7 40.2 235.25 36.5 Z"/>
</g>

<g id="Layer0_0_MEMBER_2_MEMBER_12_FILL">
<path fill="#5F5E5E" stroke="none" d="
M 216.8 63.45
L 231.4 63.45 234.5 60 231.4 56.55 216.8 56.55 213.7 60 216.8 63.45 Z"/>
</g>
</defs>

<g transform="matrix( 0.8293304443359375, 0, 0, 0.8293304443359375, -147.55,0) ">
<use xlink:href="#Layer0_0_MEMBER_0_FILL"/>
</g>

<g transform="matrix( 0.8293304443359375, 0, 0, 0.8293304443359375, -147.55,0) ">
<use xlink:href="#Layer0_0_MEMBER_1_FILL"/>
</g>

<g transform="matrix( -0.8292694091796875, 0, 0, 0.8292694091796875, 276.85,-0.15) ">
<use xlink:href="#Layer0_0_MEMBER_2_MEMBER_0_FILL"/>
</g>

<g transform="matrix( -0.8292694091796875, 0, 0, 0.8292694091796875, 276.85,-0.15) ">
<use xlink:href="#Layer0_0_MEMBER_2_MEMBER_1_FILL"/>
</g>

<g transform="matrix( -0.8292694091796875, 0, 0, 0.8292694091796875, 276.85,-0.15) ">
<use xlink:href="#Layer0_0_MEMBER_2_MEMBER_2_FILL"/>
</g>

<g transform="matrix( -0.8292694091796875, 0, 0, 0.8292694091796875, 276.85,-0.15) ">
<use xlink:href="#Layer0_0_MEMBER_2_MEMBER_3_FILL"/>
</g>

<g transform="matrix( -0.8292694091796875, 0, 0, 0.8292694091796875, 276.85,-0.15) ">
<use xlink:href="#Layer0_0_MEMBER_2_MEMBER_4_FILL"/>
</g>

<g transform="matrix( -0.8292694091796875, 0, 0, 0.8292694091796875, 276.85,-0.15) ">
<use xlink:href="#Layer0_0_MEMBER_2_MEMBER_5_FILL"/>
</g>

<g transform="matrix( -0.8292694091796875, 0, 0, 0.8292694091796875, 276.85,-0.15) ">
<use xlink:href="#Layer0_0_MEMBER_2_MEMBER_6_FILL"/>
</g>

<g transform="matrix( -0.8292694091796875, 0, 0, 0.8292694091796875, 276.85,-0.15) ">
<use xlink:href="#Layer0_0_MEMBER_2_MEMBER_7_FILL"/>
</g>

<g transform="matrix( -0.8292694091796875, 0, 0, 0.8292694091796875, 276.85,-0.15) ">
<use xlink:href="#Layer0_0_MEMBER_2_MEMBER_8_FILL"/>
</g>

<g transform="matrix( -0.8292694091796875, 0, 0, 0.8292694091796875, 276.85,-0.15) ">
<use xlink:href="#Layer0_0_MEMBER_2_MEMBER_9_FILL"/>
</g>

<g transform="matrix( -0.8292694091796875, 0, 0, 0.8292694091796875, 276.85,-0.15) ">
<use xlink:href="#Layer0_0_MEMBER_2_MEMBER_10_FILL"/>
</g>

<g transform="matrix( -0.8292694091796875, 0, 0, 0.8292694091796875, 276.85,-0.15) ">
<use xlink:href="#Layer0_0_MEMBER_2_MEMBER_11_FILL"/>
</g>

<g transform="matrix( -0.8292694091796875, 0, 0, 0.8292694091796875, 276.85,-0.15) ">
<use xlink:href="#Layer0_0_MEMBER_2_MEMBER_12_FILL"/>
</g>
</svg>
