<?xml version="1.0" encoding="utf-8"?>
<!-- Generator: Adobe Illustrator 23.1.0, SVG Export Plug-In . SVG Version: 6.00 Build 0)  -->
<svg version="1.1" id="레이어_1" xmlns="http://www.w3.org/2000/svg" xmlns:xlink="http://www.w3.org/1999/xlink" x="0px"
	 y="0px" width="830px" height="274px" viewBox="0 0 830 274" style="enable-background:new 0 0 830 274;" xml:space="preserve">
<g>
	<g>
		<path style="fill:#FFFFFF;" d="M4.9,12.8l819.7-0.2c0,0,1.5,209,1,226.7c-0.5,17.8-2.3,31.7-2.3,31.7S59.8,271.7,43,269.3
			c-16.8-2.4-40-22.4-40-22.4L4.9,12.8z"/>
		<path style="fill:#8AB2DF;" d="M3.9,246.5c3.4,2.7,23.8,20.1,39.2,22.3c15.9,2.3,768.3,1.3,779.5,1.4c0.4-3.2,1.7-15.7,2.2-30.8
			c0.5-16.8-0.8-213.2-1-225.8l-818,0.2L3.9,246.5z M823.4,271.9C823.4,271.9,823.4,271.9,823.4,271.9c-5.5,0-763.9,1-780.6-1.4
			C26,268.1,3.7,248.6,2.4,247.6c-0.2-0.2-0.3-0.4-0.3-0.7L4,12.8c0-0.5,0.4-0.9,0.9-0.9l819.7-0.2c0.5,0,0.9,0.4,0.9,0.9
			c0,1.5,1.5,209.2,1,226.8c-0.5,17.6-2.2,31.7-2.3,31.8C824.3,271.6,823.9,271.9,823.4,271.9"/>
		<path style="fill:#FFFFFF;" d="M43.1,270.5C28.6,268.4,2,246.2,2,246.2l18.5-9.1C20.5,237,34.2,261.6,43.1,270.5"/>
		<path style="fill:#8AB2DF;" d="M4.2,246.7c4.5,3.6,24.1,18.7,36.7,22c-7.9-8.7-18.2-26.3-20.2-29.9L4.2,246.7z M43.1,270.7
			c0,0-0.1,0-0.1,0c-14.3-2-39.7-22.7-40.7-23.5C2.1,247,2,246.7,2,246.5c0-0.3,0.2-0.5,0.4-0.6l18.2-8.8c0.4-0.2,0.8,0,1,0.3
			c0.1,0.2,13.4,23.6,22,32c0.2,0.2,0.3,0.6,0.2,0.9C43.7,270.5,43.4,270.7,43.1,270.7"/>
	</g>
	
		<rect x="4.1" y="245" transform="matrix(0.7008 -0.7133 0.7133 0.7008 -172.5376 79.4859)" style="fill:#8AB2DF;" width="8.7" height="1"/>
	
		<rect x="5.9" y="244.2" transform="matrix(0.7008 -0.7133 0.7133 0.7008 -170.2654 83.4861)" style="fill:#8AB2DF;" width="17" height="1"/>
	
		<rect x="9.2" y="247" transform="matrix(0.7008 -0.7133 0.7133 0.7008 -171.4917 86.092)" style="fill:#8AB2DF;" width="15.5" height="1"/>
	
		<rect x="12.5" y="249.7" transform="matrix(0.7008 -0.7133 0.7133 0.7008 -172.6754 88.7137)" style="fill:#8AB2DF;" width="13.9" height="1"/>
	
		<rect x="15.8" y="252.4" transform="matrix(0.7008 -0.7133 0.7133 0.7008 -173.8168 91.3524)" style="fill:#8AB2DF;" width="12.3" height="1"/>
	
		<rect x="19.3" y="255" transform="matrix(0.7008 -0.7133 0.7133 0.7008 -174.9104 94.0113)" style="fill:#8AB2DF;" width="10.7" height="1"/>
	
		<rect x="22.8" y="257.6" transform="matrix(0.7008 -0.7133 0.7133 0.7008 -175.9475 96.6921)" style="fill:#8AB2DF;" width="9" height="1"/>
	
		<rect x="26.4" y="260.1" transform="matrix(0.7008 -0.7133 0.7133 0.7008 -176.9142 99.4008)" style="fill:#8AB2DF;" width="7.3" height="1"/>
	
		<rect x="30.1" y="262.5" transform="matrix(0.7008 -0.7133 0.7133 0.7008 -177.7912 102.1454)" style="fill:#8AB2DF;" width="5.5" height="1"/>
	
		<rect x="34" y="264.8" transform="matrix(0.7008 -0.7133 0.7133 0.7008 -178.5395 104.9417)" style="fill:#8AB2DF;" width="3.6" height="1"/>
	
		<rect x="38.2" y="266.9" transform="matrix(0.7019 -0.7123 0.7123 0.7019 -178.837 107.4836)" style="fill:#8AB2DF;" width="1.5" height="1"/>
	<g>
		<path style="fill:#FFFFFF;" d="M799.8,25.1l4,4 M814,5.3l9.7,9.7 M811.4,27.7l14.1-14.1c1.8-1.8,1.8-4.7,0-6.5l-3.2-3.2
			c-1.8-1.8-4.7-1.8-6.5,0L801.7,18c-0.4,0.4-0.4,1.2,0,1.6l8.1,8.1C810.2,28.1,810.9,28.1,811.4,27.7 M809.6,27.4l-8.1,2.5
			c-1.5,0.3-2.8-1-2.5-2.5l2.5-8.1"/>
		<path style="fill:#4694D1;" d="M823.8,15.3l1.7-1.7c1.8-1.8,1.8-4.7,0-6.5l-3.2-3.2c-1.8-1.8-4.7-1.8-6.5,0l-1.7,1.7L823.8,15.3z"
			/>
		<path style="fill:#4694D1;" d="M799.7,25.2l-0.7,2.2c-0.3,1.5,1,2.8,2.5,2.5l2.7-0.8L799.7,25.2z"/>
		<g>
			<path d="M801.2,30.5c-0.7,0-1.4-0.3-1.9-0.8c-0.6-0.6-0.9-1.5-0.7-2.4l2.4-7.8c-0.1-0.2-0.1-0.4-0.1-0.7c0-0.5,0.2-0.9,0.5-1.2
				l14.1-14.1c1.9-1.9,5.3-1.9,7.3,0l3.2,3.2c2,2,2,5.3,0,7.3l-14.1,14.1c-0.6,0.6-1.8,0.6-2.4,0l0,0l-7.6,2.3
				C801.6,30.5,801.4,30.5,801.2,30.5z M800.1,26.1l-0.5,1.5c-0.1,0.5,0.1,1,0.4,1.3c0.4,0.4,0.9,0.5,1.4,0.4l1.4-0.4L800.1,26.1z
				 M800.4,24.9l3.7,3.7l4.3-1.3l-6.6-6.6L800.4,24.9z M814.2,6.3l-12.1,12.1c-0.1,0.1-0.2,0.3-0.2,0.4c0,0.2,0.1,0.3,0.2,0.4
				l8.1,8.1c0.2,0.2,0.6,0.2,0.8,0l12.1-12.1L814.2,6.3z M815,5.5l8.9,8.9l1.2-1.2c1.6-1.6,1.6-4.1,0-5.7l-3.2-3.2
				c-1.5-1.5-4.1-1.5-5.7,0L815,5.5z"/>
		</g>
	</g>
</g>
</svg>
