<svg xmlns="http://www.w3.org/2000/svg" xmlns:xlink="http://www.w3.org/1999/xlink" viewBox="0 0 606.696 429.001"><defs><style>.cls-1,.cls-16,.cls-17,.cls-18,.cls-19{fill:none;}.cls-2{clip-path:url(#clip-path);}.cls-3{fill:#a4d1f0;}.cls-4{fill:#aed5f2;}.cls-5{fill:#b7daf3;}.cls-6{fill:#c0def5;}.cls-7{fill:#c8e2f6;}.cls-8{fill:#d1e7f8;}.cls-9{fill:#d9ebf9;}.cls-10{fill:#e1effa;}.cls-11{fill:#e9f4fc;}.cls-12{fill:#f1f8fd;}.cls-13{fill:#f8fcfe;}.cls-14{fill:#fff;}.cls-15{clip-path:url(#clip-path-2);}.cls-16,.cls-17{stroke:#b5b6b6;}.cls-16,.cls-18,.cls-19{stroke-width:2px;}.cls-18,.cls-19{stroke:#329ad7;}.cls-19{stroke-miterlimit:10;}</style><clipPath id="clip-path" transform="translate(0 -84.999)"><rect class="cls-1" y="85" width="606.696" height="438"/></clipPath><clipPath id="clip-path-2" transform="translate(0 -84.999)"><rect class="cls-1" x="0.304" width="606.696" height="508"/></clipPath></defs><g id="레이어_2" data-name="레이어 2"><g id="레이어_8" data-name="레이어 8"><g class="cls-2"><path class="cls-3" d="M606.592,505.645c0,4.615-2.879,8.35-6.433,8.35L6.443,514C2.888,514,0,510.26,0,505.645V93.359C0,88.744,2.888,85,6.443,85L600.261,85c3.554,0,6.435,3.745,6.435,8.36Z" transform="translate(0 -84.999)"/><path class="cls-4" d="M6.624,513.508c-3.442,0-6.236-3.625-6.239-8.1l0-411.761c0-.194,0-.434.015-.627.232-4.2,2.932-7.507,6.221-7.507H600.041a4.112,4.112,0,0,1,.483.024c3.238.3,5.792,3.8,5.792,8.076l-.1,411.764c0,.2,0,.422-.021.619-.231,4.2-2.928,7.51-6.23,7.51Z" transform="translate(0 -84.999)"/><path class="cls-5" d="M6.819,513.02c-3.338,0-6.047-3.514-6.05-7.853l0-411.229c0-.179,0-.424.011-.6.211-4.089,2.839-7.319,6.036-7.319h593c.149,0,.338,0,.473.012,3.153.283,5.64,3.682,5.64,7.837l-.1,411.229c0,.179-.007.426-.018.6-.206,4.082-2.828,7.321-6.027,7.321Z" transform="translate(0 -84.999)"/><path class="cls-6" d="M7.011,512.532c-3.239,0-5.852-3.4-5.86-7.6l.008-410.7c0-.16,0-.419.01-.579.186-3.977,2.73-7.124,5.842-7.126H599.605a3.627,3.627,0,0,1,.454.026c3.057.236,5.483,3.543,5.483,7.573l-.1,410.7c0,.153,0,.424-.015.585-.185,3.971-2.728,7.122-5.84,7.122Z" transform="translate(0 -84.999)"/><path class="cls-7" d="M7.2,512.035c-3.119,0-5.658-3.285-5.658-7.342V94.518c0-.139,0-.424.015-.556.158-3.866,2.632-6.93,5.643-6.93H599.386c.112,0,.329.005.428.014,2.981.207,5.346,3.408,5.346,7.326l-.1,410.183c0,.138,0,.419-.018.556-.156,3.851-2.628,6.924-5.643,6.924Z" transform="translate(0 -84.999)"/><path class="cls-8" d="M7.387,511.553c-3.015,0-5.464-3.185-5.464-7.1l0-409.655c0-.116,0-.41.007-.528.138-3.75,2.527-6.732,5.453-6.732H599.176c.084,0,.321.005.407.015,2.888.178,5.191,3.276,5.191,7.071l-.1,409.66c0,.115,0,.409-.008.525-.138,3.752-2.534,6.734-5.46,6.734Z" transform="translate(0 -84.999)"/><path class="cls-9" d="M7.578,511.051c-2.909,0-5.271-3.06-5.271-6.826V95.092c0-.1,0-.414.008-.511.116-3.634,2.428-6.536,5.263-6.536H598.955a2.841,2.841,0,0,1,.4.019c2.8.146,5.035,3.147,5.035,6.816L604.285,504c0,.1,0,.41,0,.516-.12,3.63-2.427,6.532-5.257,6.532Z" transform="translate(0 -84.999)"/><path class="cls-10" d="M7.767,510.564c-2.8,0-5.077-2.945-5.077-6.584V95.378c0-.073,0-.406.007-.478.1-3.529,2.327-6.344,5.073-6.344l590.968-.009c.06,0,.316.009.38.014,2.714.118,4.893,3.022,4.893,6.574l-.1,408.6c0,.077,0,.407-.015.492-.089,3.528-2.33,6.339-5.062,6.339Z" transform="translate(0 -84.999)"/><path class="cls-11" d="M7.958,510.076c-2.7,0-4.888-2.839-4.888-6.341V95.672c0-.064.005-.41.013-.464.069-3.413,2.228-6.15,4.875-6.15H598.519c.053,0,.313,0,.358,0,2.634.1,4.744,2.893,4.741,6.325l-.1,408.067v.462c-.074,3.409-2.227,6.15-4.873,6.15Z" transform="translate(0 -84.999)"/><path class="cls-12" d="M8.149,509.583c-2.593,0-4.689-2.727-4.686-6.077V95.521c.046-3.3,2.125-5.957,4.686-5.957H598.306c.029,0,.3,0,.334,0,2.539.062,4.59,2.756,4.59,6.075l-.1,407.547c0,.033,0,.4,0,.434-.038,3.3-2.125,5.961-4.665,5.961Z" transform="translate(0 -84.999)"/><path class="cls-13" d="M8.338,509.091c-2.483,0-4.5-2.607-4.5-5.83V96.251c0-.021,0-.4,0-.417.021-3.189,2.027-5.771,4.492-5.771H598.091c.01,0,.3,0,.323.01,2.45.028,4.434,2.629,4.434,5.82l-.1,407.02v.414c-.02,3.187-2.022,5.764-4.486,5.764Z" transform="translate(0 -84.999)"/><path class="cls-14" d="M602.36,503.028c0,3.072-1.918,5.562-4.292,5.562H8.53c-2.371,0-4.3-2.49-4.3-5.562V96.15c0-3.076,1.922-5.571,4.3-5.571H598.172c2.372,0,4.292,2.5,4.292,5.571Z" transform="translate(0 -84.999)"/><path class="cls-14" d="M132,405.052V508H597.708c2.374,0,4.292-3.828,4.292-8.55v-94.4Z" transform="translate(0 -84.999)"/><path class="cls-14" d="M132.334,89.289H8.528c-2.372,0-4.3,2.239-4.3,5V405.052h128.1Z" transform="translate(0 -84.999)"/><path class="cls-14" d="M602.36,405.052l.1-310.046c0-2.76-1.92-5-4.292-5H132.334V405.052Z" transform="translate(0 -84.999)"/><path class="cls-14" d="M6.045,506.827A2.9,2.9,0,0,0,8.2,508H132V405.052L113,456H29Z" transform="translate(0 -84.999)"/></g><g class="cls-15"><line class="cls-16" x1="132.638" y1="201.234" x2="603.342" y2="201.234"/><line class="cls-16" x1="132.638" y1="161.915" x2="603.342" y2="161.915"/><path class="cls-17" d="M132.638,317.69h470.7m-470.7-15.728h470.7m-470.7,7.864h470.7M132.638,294.1h470.7" transform="translate(0 -84.999)"/><path class="cls-17" d="M132.638,279.287h470.7m-470.7-15.728h470.7m-470.7,7.864h470.7m-470.7-15.729h470.7" transform="translate(0 -84.999)"/><line class="cls-16" x1="132.638" y1="122.22" x2="603.342" y2="122.22"/><path class="cls-17" d="M132.638,239.592h470.7m-470.7-15.729h470.7m-470.7,7.865h470.7M132.638,216h470.7" transform="translate(0 -84.999)"/><line class="cls-16" x1="132.638" y1="81.525" x2="603.342" y2="81.525"/><path class="cls-17" d="M132.638,198.9h470.7m-470.7-15.728h470.7m-470.7,7.864h470.7M132.638,175.3h470.7" transform="translate(0 -84.999)"/><line class="cls-16" x1="132.638" y1="41.012" x2="603.342" y2="41.012"/><path class="cls-17" d="M132.638,158.384h470.7m-470.7-15.728h470.7m-470.7,7.864h470.7m-470.7-15.729h470.7" transform="translate(0 -84.999)"/><path class="cls-17" d="M132.638,118.373h470.7m-470.7-15.728h470.7m-470.7,7.864h470.7M132.638,94.78h470.7" transform="translate(0 -84.999)"/><line class="cls-16" x1="132.638" y1="240.551" x2="603.342" y2="240.551"/><path class="cls-17" d="M132.638,357h470.7m-470.7-15.725h470.7m-470.7,7.864h470.7m-470.7-15.728h470.7" transform="translate(0 -84.999)"/><line class="cls-16" x1="132.638" y1="279.868" x2="603.342" y2="279.868"/><path class="cls-17" d="M132.638,396.321h470.7M132.638,380.6h470.7m-470.7,7.865h470.7m-470.7-15.729h470.7" transform="translate(0 -84.999)"/><line class="cls-16" x1="132.638" y1="319.923" x2="603.342" y2="319.923"/><path class="cls-18" d="M132.637,89.933V508M602.664,405.052H3.637" transform="translate(0 -84.999)"/></g><line class="cls-17" x1="229" y1="424.001" x2="229" y2="5.002"/><line class="cls-17" x1="323.5" y1="424.001" x2="323.5" y2="5.002"/><line class="cls-17" x1="419.5" y1="424.001" x2="419.5" y2="5.002"/><line class="cls-17" x1="514.5" y1="424.001" x2="514.5" y2="5.002"/><polyline class="cls-19" points="133 320.053 114.5 371.501 28.608 371.501 7.046 421.828"/><path d="M16.324,95.318a.741.741,0,0,1,.367.449.728.728,0,0,1-.1.592,15.069,15.069,0,0,0-2.1,8v.715a15.136,15.136,0,0,0,2.1,8,.7.7,0,0,1,.1.582.741.741,0,0,1-.367.459.849.849,0,0,1-.6.1.926.926,0,0,1-.562-.388,12.131,12.131,0,0,1-2.061-3.991,16.471,16.471,0,0,1-.7-4.869v-.511a16.471,16.471,0,0,1,.7-4.869A12.131,12.131,0,0,1,15.16,95.6a.926.926,0,0,1,.562-.388A.849.849,0,0,1,16.324,95.318Z" transform="translate(0 -84.999)"/><path d="M121.754,95.318a.9.9,0,0,1,.613-.1.922.922,0,0,1,.551.388A12.133,12.133,0,0,1,124.98,99.6a16.5,16.5,0,0,1,.694,4.869v.511a16.5,16.5,0,0,1-.694,4.869,12.133,12.133,0,0,1-2.062,3.991.922.922,0,0,1-.551.388.9.9,0,0,1-.613-.1.741.741,0,0,1-.367-.459.692.692,0,0,1,.1-.582,15.135,15.135,0,0,0,2.1-8v-.715a15.068,15.068,0,0,0-2.1-8,.725.725,0,0,1-.1-.592A.741.741,0,0,1,121.754,95.318Z" transform="translate(0 -84.999)"/></g></g></svg>