<?xml version="1.0" encoding="utf-8"?>
<!-- Generator: Adobe Illustrator 23.0.0, SVG Export Plug-In . SVG Version: 6.00 Build 0)  -->
<svg version="1.1" id="레이어_1" xmlns="http://www.w3.org/2000/svg" xmlns:xlink="http://www.w3.org/1999/xlink" x="0px"
	 y="0px" width="606.7px" height="429px" viewBox="0 0 606.7 429" style="enable-background:new 0 0 606.7 429;"
	 xml:space="preserve">
<g id="레이어_7">
	<g>
		<g>
			<g>
				<defs>
					<rect id="SVGID_1_" width="606.7" height="438"/>
				</defs>
				<clipPath id="SVGID_2_">
					<use xlink:href="#SVGID_1_"  style="overflow:visible;"/>
				</clipPath>
				<g style="clip-path:url(#SVGID_2_);">
					<path style="fill:#A4D1F0;" d="M606.6,420.6c0,4.6-2.9,8.4-6.4,8.4H6.4c-3.6,0-6.4-3.7-6.4-8.4V8.4C0,3.7,2.9,0,6.4,0h593.8
						c3.6,0,6.4,3.7,6.4,8.4L606.6,420.6z"/>
					<path style="fill:#AED5F2;" d="M6.6,428.5c-3.4,0-6.2-3.6-6.2-8.1V8.6c0-0.2,0-0.4,0-0.6c0.2-4.2,2.9-7.5,6.2-7.5H600
						c0.2,0,0.3,0,0.5,0c3.2,0.3,5.8,3.8,5.8,8.1l-0.1,411.8c0,0.2,0,0.4,0,0.6c-0.2,4.2-2.9,7.5-6.2,7.5H6.6z"/>
					<path style="fill:#B7DAF3;" d="M6.8,428c-3.3,0-6-3.5-6.1-7.9V8.9c0-0.2,0-0.4,0-0.6C1,4.3,3.6,1,6.8,1h593c0.1,0,0.3,0,0.5,0
						c3.2,0.3,5.6,3.7,5.6,7.8L605.8,420c0,0.2,0,0.4,0,0.6c-0.2,4.1-2.8,7.3-6,7.3L6.8,428z"/>
					<path style="fill:#C0DEF5;" d="M7,427.5c-3.2,0-5.9-3.4-5.9-7.6V9.2c0-0.2,0-0.4,0-0.6c0.2-4,2.7-7.1,5.8-7.1h592.6
						c0.2,0,0.3,0,0.5,0c3.1,0.2,5.5,3.5,5.5,7.6l-0.1,410.7c0,0.2,0,0.4,0,0.6c-0.2,4-2.7,7.1-5.8,7.1L7,427.5L7,427.5z"/>
					<path style="fill:#C8E2F6;" d="M7.2,427c-3.1,0-5.7-3.3-5.7-7.3V9.5c0-0.1,0-0.4,0-0.6C1.7,5.1,4.2,2,7.2,2h592.2
						c0.1,0,0.3,0,0.4,0c3,0.2,5.3,3.4,5.3,7.3L605,419.5c0,0.1,0,0.4,0,0.6c-0.2,3.9-2.6,6.9-5.6,6.9H7.2z"/>
					<path style="fill:#D1E7F8;" d="M7.4,426.6c-3,0-5.5-3.2-5.5-7.1V9.8c0-0.1,0-0.4,0-0.5C2,5.5,4.4,2.6,7.4,2.6h591.8
						c0.1,0,0.3,0,0.4,0c2.9,0.2,5.2,3.3,5.2,7.1l-0.1,409.7c0,0.1,0,0.4,0,0.5c-0.1,3.8-2.5,6.7-5.5,6.7L7.4,426.6L7.4,426.6z"/>
					<path style="fill:#D9EBF9;" d="M7.6,426.1c-2.9,0-5.3-3.1-5.3-6.8V10.1c0-0.1,0-0.4,0-0.5C2.4,5.9,4.7,3,7.6,3H599
						c0.1,0,0.3,0,0.4,0c2.8,0.1,5,3.1,5,6.8L604.3,419c0,0.1,0,0.4,0,0.5c-0.1,3.6-2.4,6.5-5.3,6.5L7.6,426.1z"/>
					<path style="fill:#E1EFFA;" d="M7.8,425.6c-2.8,0-5.1-2.9-5.1-6.6V10.4c0-0.1,0-0.4,0-0.5C2.8,6.4,5,3.6,7.8,3.6h591
						c0.1,0,0.3,0,0.4,0c2.7,0.1,4.9,3,4.9,6.6L604,418.8c0,0.1,0,0.4,0,0.5c-0.1,3.5-2.3,6.3-5.1,6.3L7.8,425.6L7.8,425.6z"/>
					<path style="fill:#E9F4FC;" d="M8,425.1c-2.7,0-4.9-2.8-4.9-6.3V10.7c0-0.1,0-0.4,0-0.5C3.2,6.8,5.3,4.1,8,4.1h590.6
						c0.1,0,0.3,0,0.4,0c2.6,0.1,4.7,2.9,4.7,6.3l-0.1,408.1v0.5c-0.1,3.4-2.2,6.1-4.9,6.1H8z"/>
					<path style="fill:#F1F8FD;" d="M8.1,424.6c-2.6,0-4.7-2.7-4.7-6.1v-408c0-3.3,2.1-6,4.7-6h590.2h0.3c2.5,0.1,4.6,2.8,4.6,6.1
						l-0.1,407.5v0.4c0,3.3-2.1,6-4.7,6L8.1,424.6z"/>
					<path style="fill:#F8FCFE;" d="M8.3,424.1c-2.5,0-4.5-2.6-4.5-5.8v-407v-0.4c0-3.2,2-5.8,4.5-5.8h589.8h0.3
						c2.5,0,4.4,2.6,4.4,5.8l-0.1,407v0.4c0,3.2-2,5.8-4.5,5.8H8.3z"/>
					<path style="fill:#FFFFFF;" d="M602.4,418c0,3.1-1.9,5.6-4.3,5.6H8.5c-2.4,0-4.3-2.5-4.3-5.6V11.2c0-3.1,1.9-5.6,4.3-5.6h589.6
						c2.4,0,4.3,2.5,4.3,5.6L602.4,418z"/>
					<path style="fill:#FFFFFF;" d="M132,320.1V423h465.7c2.4,0,4.3-3.8,4.3-8.5v-94.4H132z"/>
					<path style="fill:#FFFFFF;" d="M602.4,320.1l0.1-310c0-2.8-1.9-5-4.3-5H132.3v315H602.4z"/>
				</g>
			</g>
		</g>
	</g>
	<g>
		<g>
			<path style="fill:none;stroke:#329AD7;stroke-width:2;" d="M132.6,4.9V423 M602.7,320.1H3.6"/>
			<path style="fill:none;stroke:#329AD7;stroke-width:2;stroke-miterlimit:10;" d="M133,320.1C91,354,49,387.9,7,421.8"/>
		</g>
	</g>
	<line style="fill:none;stroke:#B5B6B6;stroke-width:0.8629;" x1="229" y1="319" x2="229" y2="7"/>
	<line style="fill:none;stroke:#B5B6B6;stroke-width:0.8629;" x1="322.5" y1="319" x2="322.5" y2="7"/>
	<line style="fill:none;stroke:#B5B6B6;stroke-width:0.8629;" x1="418.5" y1="319" x2="418.5" y2="7"/>
	<line style="fill:none;stroke:#B5B6B6;stroke-width:0.8629;" x1="513.5" y1="319" x2="513.5" y2="7"/>
	<path d="M11.3,10.3c0.2,0.1,0.3,0.3,0.4,0.4c0.1,0.2,0,0.4-0.1,0.6c-1.4,2.4-2.2,5.2-2.1,8V20c-0.1,2.8,0.7,5.6,2.1,8
		c0.1,0.2,0.2,0.4,0.1,0.6s-0.2,0.4-0.4,0.5c-0.2,0.1-0.4,0.1-0.6,0.1c-0.2-0.1-0.4-0.2-0.6-0.4c-0.9-1.2-1.6-2.5-2.1-4
		c-0.5-1.6-0.7-3.2-0.7-4.9v-0.5c0-1.6,0.2-3.3,0.7-4.9c0.4-1.4,1.1-2.8,2.1-4c0.1-0.2,0.3-0.3,0.6-0.4
		C10.9,10.2,11.1,10.2,11.3,10.3z"/>
	<path d="M68.8,10.3c0.2-0.1,0.4-0.1,0.6-0.1c0.2,0.1,0.4,0.2,0.6,0.4c0.9,1.2,1.6,2.5,2.1,4c0.5,1.6,0.7,3.2,0.7,4.9V20
		c0,1.6-0.2,3.3-0.7,4.9c-0.4,1.4-1.1,2.8-2.1,4c-0.1,0.2-0.3,0.3-0.6,0.4c-0.2,0-0.4,0-0.6-0.1s-0.3-0.3-0.4-0.5s0-0.4,0.1-0.6
		c1.4-2.4,2.2-5.2,2.1-8v-0.7c0.1-2.8-0.7-5.6-2.1-8c-0.1-0.2-0.2-0.4-0.1-0.6C68.4,10.6,68.6,10.4,68.8,10.3z"/>
	<path d="M114.6,291.7c2.6,0,4.5,0.9,5.7,2.6s1.8,4.2,1.8,7.4v1.4c0,3.2-0.6,5.7-1.8,7.4s-3.1,2.6-5.7,2.6s-4.5-0.9-5.7-2.6
		s-1.8-4.2-1.8-7.4v-1.4c0-3.2,0.6-5.7,1.8-7.4C110,292.6,111.9,291.7,114.6,291.7z M114.6,294.5c-0.7,0-1.5,0.1-2.2,0.4
		c-0.6,0.3-1.1,0.8-1.4,1.4c-0.4,0.7-0.6,1.5-0.7,2.3c-0.2,1.1-0.2,2.2-0.2,3.3v1c0,1.1,0.1,2.2,0.2,3.3c0.1,0.8,0.4,1.6,0.7,2.3
		c0.3,0.6,0.8,1.1,1.4,1.4c1.4,0.6,2.9,0.6,4.3,0c0.6-0.3,1.1-0.8,1.4-1.4c0.4-0.7,0.6-1.5,0.7-2.3c0.2-1.1,0.2-2.2,0.2-3.3v-1
		c0-1.1-0.1-2.2-0.2-3.3c-0.1-0.8-0.4-1.6-0.7-2.3c-0.3-0.6-0.8-1.1-1.4-1.4C116,294.6,115.3,294.4,114.6,294.5L114.6,294.5z"/>
</g>
<g>
	<line style="fill:none;stroke:#B5B6B6;stroke-width:2;" x1="132.6" y1="32.5" x2="603.3" y2="32.5"/>
	<path style="fill:none;stroke:#B5B6B6;" d="M132.6,90h470.7 M132.6,61.3h470.7 M132.6,75.7h470.7 M132.6,46.9h470.7"/>
	<line style="fill:none;stroke:#B5B6B6;stroke-width:2;" x1="132.6" y1="104.4" x2="603.3" y2="104.4"/>
	<path style="fill:none;stroke:#B5B6B6;" d="M132.6,161.9h470.7 M132.6,133.1h470.7 M132.6,147.5h470.7 M132.6,118.8h470.7"/>
	<line style="fill:none;stroke:#B5B6B6;stroke-width:2;" x1="132.6" y1="176.2" x2="603.3" y2="176.2"/>
	<path style="fill:none;stroke:#B5B6B6;" d="M132.6,233.7h470.7 M132.6,205h470.7 M132.6,219.3h470.7 M132.6,190.6h470.7"/>
	<line style="fill:none;stroke:#B5B6B6;stroke-width:2;" x1="132.6" y1="248.1" x2="603.3" y2="248.1"/>
	<path style="fill:none;stroke:#B5B6B6;" d="M132.6,18.2h470.7 M132.6,305.5h470.7 M132.6,276.8h470.7 M132.6,291.2h470.7
		 M132.6,262.4h470.7"/>
</g>
<g>
	<path style="fill:none;stroke:#0085CD;stroke-width:6.5007;stroke-linejoin:bevel;" d="M608.5,286.9c-6.8,0-11.7-6-18.4-6
		s-11.6,6-18.4,6c-6.8,0-11.7-6-18.4-6s-11.8,6-18.5,6c-6.8,0-11.8-6-18.5-6s-11.6,6-18.4,6s-11.7-6-18.4-6s-11.6,6-18.4,6
		s-11.8-6-18.5-6s-11.7,6-18.5,6s-11.7-6-18.4-6c-6.7,0-11.6,6-18.4,6s-11.7-6-18.4-6c-6.7,0-12,6-18.8,6s-12.1-6-18.8-6
		c-6.7,0-11.6,6-18.4,6s-11.7-6-18.4-6c-6.7,0-11.6,6-18.4,6s-11.8-6-18.4-6c-6.7,0-11.7,6-18.5,6s-11.7-6-18.4-6s-11.6,6-18.4,6
		c-6.8,0-11.7-6-18.4-6s-11.8,6-18.5,6c-6.8,0-11.8-6-18.5-6s-11.6,6-18.4,6c-6.8,0-11.7-6-18.4-6c-6.7,0-11.6,6-18.4,6
		s-11.8-6-18.5-6s-11.7,6-18.5,6s-11.7-6-18.4-6s-11.6,6-18.4,6s-11.7-6-18.4-6"/>
	<path style="fill:none;stroke:#FFFFFF;stroke-width:4.3338;stroke-linejoin:bevel;" d="M608.5,286.9c-6.8,0-11.7-6-18.4-6
		s-11.6,6-18.4,6c-6.8,0-11.7-6-18.4-6s-11.8,6-18.5,6c-6.8,0-11.8-6-18.5-6s-11.6,6-18.4,6s-11.7-6-18.4-6s-11.6,6-18.4,6
		s-11.8-6-18.5-6s-11.7,6-18.5,6s-11.7-6-18.4-6c-6.7,0-11.6,6-18.4,6s-11.7-6-18.4-6c-6.7,0-12,6-18.8,6s-12.1-6-18.8-6
		c-6.7,0-11.6,6-18.4,6s-11.7-6-18.4-6c-6.7,0-11.6,6-18.4,6s-11.8-6-18.4-6c-6.7,0-11.7,6-18.5,6s-11.7-6-18.4-6s-11.6,6-18.4,6
		c-6.8,0-11.7-6-18.4-6s-11.8,6-18.5,6c-6.8,0-11.8-6-18.5-6s-11.6,6-18.4,6c-6.8,0-11.7-6-18.4-6c-6.7,0-11.6,6-18.4,6
		s-11.8-6-18.5-6s-11.7,6-18.5,6s-11.7-6-18.4-6s-11.6,6-18.4,6s-11.7-6-18.4-6"/>
</g>
<g>
	<path d="M483,398.4c0.2,0.1,0.3,0.3,0.4,0.4c0.1,0.2,0,0.4-0.1,0.6c-1.4,2.4-2.2,5.2-2.1,8v0.7c-0.1,2.8,0.7,5.6,2.1,8
		c0.1,0.2,0.2,0.4,0.1,0.6s-0.2,0.4-0.4,0.5c-0.2,0.1-0.4,0.1-0.6,0.1c-0.2-0.1-0.4-0.2-0.6-0.4c-0.9-1.2-1.6-2.5-2.1-4
		c-0.5-1.6-0.7-3.2-0.7-4.9v-0.5c0-1.6,0.2-3.3,0.7-4.9c0.4-1.4,1.1-2.8,2.1-4c0.1-0.2,0.3-0.3,0.6-0.4
		C482.6,398.3,482.8,398.3,483,398.4z"/>
	<path d="M588.5,398.4c0.2-0.1,0.4-0.1,0.6-0.1c0.2,0.1,0.4,0.2,0.6,0.4c0.9,1.2,1.6,2.5,2.1,4c0.5,1.6,0.7,3.2,0.7,4.9v0.5
		c0,1.6-0.2,3.3-0.7,4.9c-0.4,1.4-1.1,2.8-2.1,4c-0.1,0.2-0.3,0.3-0.6,0.4c-0.2,0-0.4,0-0.6-0.1c-0.2-0.1-0.3-0.3-0.4-0.5
		c-0.1-0.2,0-0.4,0.1-0.6c1.4-2.4,2.2-5.2,2.1-8v-0.7c0.1-2.8-0.7-5.6-2.1-8c-0.1-0.2-0.2-0.4-0.1-0.6
		C588.1,398.7,588.3,398.5,588.5,398.4z"/>
</g>
</svg>
