<?xml version="1.0" encoding="utf-8"?>
<!-- Generator: Adobe Illustrator 25.2.0, SVG Export Plug-In . SVG Version: 6.00 Build 0)  -->
<svg version="1.1" id="레이어_1" xmlns="http://www.w3.org/2000/svg" xmlns:xlink="http://www.w3.org/1999/xlink" x="0px"
	 y="0px" viewBox="0 0 804 832.3" style="enable-background:new 0 0 804 832.3;" xml:space="preserve">
<path style="fill:#00A0E9;" d="M789.9,94.4H14.1C2.1,94.4,2,82.3,2,82.2V15.3C2,3.3,14,3.1,14.1,3.1h775.7c12,0,12.1,12,12.1,12.1
	v66.9C802,94.2,790,94.4,789.9,94.4z M14.1,5.1C13.7,5.1,4,5.3,4,15.3v66.9c0,0.4,0.2,10.2,10.2,10.2h775.7
	c0.4,0,10.2-0.2,10.2-10.2V15.3c0-0.4-0.2-10.2-10.2-10.2L14.1,5.1L14.1,5.1z"/>
<g>
	<g>
		<defs>
			<rect id="SVGID_1_" x="2.4" y="112.1" width="799.2" height="718.1"/>
		</defs>
		<clipPath id="SVGID_2_">
			<use xlink:href="#SVGID_1_"  style="overflow:visible;"/>
		</clipPath>
		<path style="clip-path:url(#SVGID_2_);fill:#A4D1F0;" d="M801.2,816.2c0,7.7-6.2,14-13.9,14H17.4c-7.7,0-14-6.2-14-14V126
			c0-7.7,6.3-14,14-14h770.1c7.7,0,13.9,6.3,13.9,14L801.2,816.2z"/>
	</g>
	<g>
		<defs>
			<rect id="SVGID_3_" x="2.4" y="112.1" width="799.2" height="718.1"/>
		</defs>
		<clipPath id="SVGID_4_">
			<use xlink:href="#SVGID_3_"  style="overflow:visible;"/>
		</clipPath>
		<path style="clip-path:url(#SVGID_4_);fill:#AED5F2;" d="M17.8,829.4c-7.5,0-13.5-6.1-13.5-13.5V126.6c0-0.3,0-0.7,0-1
			c0.5-7,6.4-12.5,13.5-12.5H787c0.3,0,0.7,0,1,0c7,0.5,12.6,6.4,12.6,13.5l-0.2,689.3c0,0.3,0,0.7,0,1c-0.5,7-6.3,12.5-13.5,12.5
			H17.8z"/>
	</g>
	<g>
		<defs>
			<rect id="SVGID_5_" x="2.4" y="112.1" width="799.2" height="718.1"/>
		</defs>
		<clipPath id="SVGID_6_">
			<use xlink:href="#SVGID_5_"  style="overflow:visible;"/>
		</clipPath>
		<path style="clip-path:url(#SVGID_6_);fill:#B7DAF3;" d="M18.2,828.6c-7.2,0-13.1-5.9-13.1-13.1V127.1c0-0.3,0-0.7,0-1
			c0.5-6.8,6.2-12.2,13.1-12.2h768.3c0.3,0,0.7,0,1,0c6.8,0.5,12.2,6.2,12.2,13.1l-0.2,688.4c0,0.3,0,0.7,0,1
			c-0.4,6.8-6.1,12.2-13.1,12.2L18.2,828.6L18.2,828.6z"/>
	</g>
	<g>
		<defs>
			<rect id="SVGID_7_" x="2.4" y="112.1" width="799.2" height="718.1"/>
		</defs>
		<clipPath id="SVGID_8_">
			<use xlink:href="#SVGID_7_"  style="overflow:visible;"/>
		</clipPath>
		<path style="clip-path:url(#SVGID_8_);fill:#C0DEF5;" d="M18.6,827.7c-7,0-12.7-5.7-12.7-12.7V127.4c0-0.3,0-0.7,0-1
			c0.4-6.6,5.9-11.9,12.7-11.9h767.5c0.3,0,0.7,0,1,0c6.6,0.4,11.9,5.9,11.9,12.7l-0.2,687.6c0,0.3,0,0.7,0,1
			c-0.4,6.6-5.9,11.9-12.7,11.9H18.6z"/>
	</g>
	<g>
		<defs>
			<rect id="SVGID_9_" x="2.4" y="112.1" width="799.2" height="718.1"/>
		</defs>
		<clipPath id="SVGID_10_">
			<use xlink:href="#SVGID_9_"  style="overflow:visible;"/>
		</clipPath>
		<path style="clip-path:url(#SVGID_10_);fill:#C8E2F6;" d="M19,826.9c-6.8,0-12.3-5.5-12.3-12.3V128c0-0.2,0-0.7,0-0.9
			c0.3-6.5,5.7-11.6,12.2-11.6h766.6c0.2,0,0.7,0,0.9,0c6.5,0.3,11.6,5.7,11.6,12.2l-0.2,686.7c0,0.2,0,0.7,0,0.9
			c-0.3,6.4-5.7,11.6-12.2,11.6H19z"/>
	</g>
	<g>
		<defs>
			<rect id="SVGID_11_" x="2.4" y="112.1" width="799.2" height="718.1"/>
		</defs>
		<clipPath id="SVGID_12_">
			<use xlink:href="#SVGID_11_"  style="overflow:visible;"/>
		</clipPath>
		<path style="clip-path:url(#SVGID_12_);fill:#D1E7F8;" d="M19.4,826.1c-6.5,0-11.8-5.3-11.8-11.9V128.4c0-0.2,0-0.7,0-0.9
			c0.3-6.3,5.5-11.2,11.8-11.2h765.7c0.2,0,0.7,0,0.9,0c6.3,0.3,11.2,5.5,11.2,11.8L797.1,814c0,0.2,0,0.7,0,0.9
			c-0.3,6.3-5.5,11.3-11.8,11.3L19.4,826.1z"/>
	</g>
	<g>
		<defs>
			<rect id="SVGID_13_" x="2.4" y="112.1" width="799.2" height="718.1"/>
		</defs>
		<clipPath id="SVGID_14_">
			<use xlink:href="#SVGID_13_"  style="overflow:visible;"/>
		</clipPath>
		<path style="clip-path:url(#SVGID_14_);fill:#D9EBF9;" d="M19.9,825.3c-6.3,0-11.4-5.1-11.4-11.4v-685c0-0.2,0-0.7,0-0.9
			c0.3-6.1,5.3-10.9,11.4-10.9h764.8c0.2,0,0.7,0,0.9,0c6.1,0.2,10.9,5.3,10.9,11.4l-0.2,684.9c0,0.2,0,0.7,0,0.9
			c-0.3,6.1-5.3,10.9-11.4,10.9L19.9,825.3L19.9,825.3z"/>
	</g>
	<g>
		<defs>
			<rect id="SVGID_15_" x="2.4" y="112.1" width="799.2" height="718.1"/>
		</defs>
		<clipPath id="SVGID_16_">
			<use xlink:href="#SVGID_15_"  style="overflow:visible;"/>
		</clipPath>
		<path style="clip-path:url(#SVGID_16_);fill:#E1EFFA;" d="M20.3,824.5c-6.1,0-11-4.9-11-11V129.4c0-0.1,0-0.7,0-0.8
			c0.2-5.9,5-10.6,11-10.6h764c0.1,0,0.7,0,0.8,0c5.9,0.2,10.6,5,10.6,11l-0.3,684c0,0.1,0,0.7,0,0.8c-0.2,5.9-5,10.6-11,10.6H20.3
			V824.5z"/>
	</g>
	<g>
		<defs>
			<rect id="SVGID_17_" x="2.4" y="112.1" width="799.2" height="718.1"/>
		</defs>
		<clipPath id="SVGID_18_">
			<use xlink:href="#SVGID_17_"  style="overflow:visible;"/>
		</clipPath>
		<path style="clip-path:url(#SVGID_18_);fill:#E9F4FC;" d="M20.7,823.6c-5.8,0-10.6-4.7-10.6-10.6V129.9c0-0.1,0-0.7,0-0.8
			c0.1-5.7,4.8-10.3,10.6-10.3h763.1c0.1,0,0.7,0,0.8,0c5.7,0.2,10.3,4.8,10.3,10.6l-0.2,683.2v0.8c-0.2,5.7-4.8,10.3-10.6,10.3
			L20.7,823.6z"/>
	</g>
	<g>
		<defs>
			<rect id="SVGID_19_" x="2.4" y="112.1" width="799.2" height="718.1"/>
		</defs>
		<clipPath id="SVGID_20_">
			<use xlink:href="#SVGID_19_"  style="overflow:visible;"/>
		</clipPath>
		<path style="clip-path:url(#SVGID_20_);fill:#F1F8FD;" d="M21.1,822.8c-5.6,0-10.2-4.6-10.2-10.2V130.4v-0.7
			c0.1-5.5,4.6-10,10.2-10h762.2c0.1,0,0.7,0,0.7,0c5.5,0.1,9.9,4.6,9.9,10.1l-0.2,682.3c0,0.1,0,0.7,0,0.7c-0.1,5.5-4.6,10-10.1,10
			H21.1z"/>
	</g>
	<g>
		<defs>
			<rect id="SVGID_21_" x="2.4" y="112.1" width="799.2" height="718.1"/>
		</defs>
		<clipPath id="SVGID_22_">
			<use xlink:href="#SVGID_21_"  style="overflow:visible;"/>
		</clipPath>
		<path style="clip-path:url(#SVGID_22_);fill:#F8FCFE;" d="M21.5,822c-5.4,0-9.7-4.4-9.7-9.7V130.9v-0.7c0-5.3,4.4-9.6,9.7-9.6
			h761.3h0.7c5.3,0,9.6,4.4,9.6,9.7l-0.2,681.4v0.7c0,5.3-4.4,9.6-9.7,9.6H21.5z"/>
	</g>
	<g>
		<defs>
			<rect id="SVGID_23_" x="2.4" y="112.1" width="799.2" height="718.1"/>
		</defs>
		<clipPath id="SVGID_24_">
			<use xlink:href="#SVGID_23_"  style="overflow:visible;"/>
		</clipPath>
		<path style="clip-path:url(#SVGID_24_);fill:#FFFFFF;" d="M792.1,811.9c0,5.1-4.2,9.3-9.3,9.3H21.9c-5.1,0-9.3-4.2-9.3-9.3V130.7
			c0-5.1,4.2-9.3,9.3-9.3H783c5.1,0,9.3,4.2,9.3,9.3L792.1,811.9z"/>
	</g>
	<g>
		<defs>
			<rect id="SVGID_25_" x="2.4" y="112.1" width="799.2" height="718.1"/>
		</defs>
		<clipPath id="SVGID_26_">
			<use xlink:href="#SVGID_25_"  style="overflow:visible;"/>
		</clipPath>
		<path style="clip-path:url(#SVGID_26_);fill:#FFFFFF;" d="M234.4,709.3v111.9h548.4c5.1,0,9.3-4.2,9.3-9.3V709.3H234.4z"/>
	</g>
	<g>
		<defs>
			<rect id="SVGID_27_" x="2.4" y="112.1" width="799.2" height="718.1"/>
		</defs>
		<clipPath id="SVGID_28_">
			<use xlink:href="#SVGID_27_"  style="overflow:visible;"/>
		</clipPath>
		<path style="clip-path:url(#SVGID_28_);fill:#FFFFFF;" d="M15.9,818.6c2.4,1.4,3.2,2.6,6,2.6h212.5V709.3L15.9,818.6"/>
	</g>
	<g>
		<defs>
			<rect id="SVGID_29_" x="2.4" y="112.1" width="799.2" height="718.1"/>
		</defs>
		<clipPath id="SVGID_30_">
			<use xlink:href="#SVGID_29_"  style="overflow:visible;"/>
		</clipPath>
		<path style="clip-path:url(#SVGID_30_);fill:#FFFFFF;" d="M234.4,120H21.9c-5.1,0-9.3,4.2-9.3,9.3v579.9h221.8L234.4,120
			L234.4,120z"/>
	</g>
	<g>
		<defs>
			<rect id="SVGID_31_" x="2.4" y="112.1" width="799.2" height="718.1"/>
		</defs>
		<clipPath id="SVGID_32_">
			<use xlink:href="#SVGID_31_"  style="overflow:visible;"/>
		</clipPath>
		<path style="clip-path:url(#SVGID_32_);fill:#FFFFFF;" d="M12.6,709.3v102.6c0,3.1,1.2,5.4,3.3,6.7l218.4-109.3H12.6z"/>
	</g>
	<g>
		<defs>
			<rect id="SVGID_33_" x="2.4" y="112.1" width="799.2" height="718.1"/>
		</defs>
		<clipPath id="SVGID_34_">
			<use xlink:href="#SVGID_33_"  style="overflow:visible;"/>
		</clipPath>
		<path style="clip-path:url(#SVGID_34_);fill:#FFFFFF;" d="M792.1,709.3l0.2-578.6c0-5.1-4.2-9.3-9.3-9.3H234.4v587.9L792.1,709.3
			L792.1,709.3z"/>
	</g>
	<g>
		<defs>
			<rect id="SVGID_35_" x="2.4" y="112.1" width="799.2" height="718.1"/>
		</defs>
		<clipPath id="SVGID_36_">
			<use xlink:href="#SVGID_35_"  style="overflow:visible;"/>
		</clipPath>
		<rect x="234.4" y="279.1" style="clip-path:url(#SVGID_36_);fill:#B5B6B6;" width="559.2" height="1.2"/>
	</g>
	<g>
		<defs>
			<rect id="SVGID_37_" x="2.4" y="112.1" width="799.2" height="718.1"/>
		</defs>
		<clipPath id="SVGID_38_">
			<use xlink:href="#SVGID_37_"  style="overflow:visible;"/>
		</clipPath>
		<rect x="234.4" y="305.2" style="clip-path:url(#SVGID_38_);fill:#B5B6B6;" width="559.2" height="2.8"/>
	</g>
	<g>
		<defs>
			<rect id="SVGID_39_" x="2.4" y="112.1" width="799.2" height="718.1"/>
		</defs>
		<clipPath id="SVGID_40_">
			<use xlink:href="#SVGID_39_"  style="overflow:visible;"/>
		</clipPath>
		<path style="clip-path:url(#SVGID_40_);fill:#B5B6B6;" d="M793.5,387.7H234.4v-1.2h559.2L793.5,387.7L793.5,387.7z M793.5,360.8
			H234.4v-1.2h559.2L793.5,360.8L793.5,360.8z M793.5,334H234.4v-1.2h559.2L793.5,334L793.5,334z M793.5,146.5H234.4v-1.2h559.2
			L793.5,146.5L793.5,146.5z"/>
	</g>
	<g>
		<defs>
			<rect id="SVGID_41_" x="2.4" y="112.1" width="799.2" height="718.1"/>
		</defs>
		<clipPath id="SVGID_42_">
			<use xlink:href="#SVGID_41_"  style="overflow:visible;"/>
		</clipPath>
		<rect x="234.4" y="171.4" style="clip-path:url(#SVGID_42_);fill:#B5B6B6;" width="559.2" height="2.8"/>
	</g>
	<g>
		<defs>
			<rect id="SVGID_43_" x="2.4" y="112.1" width="799.2" height="718.1"/>
		</defs>
		<clipPath id="SVGID_44_">
			<use xlink:href="#SVGID_43_"  style="overflow:visible;"/>
		</clipPath>
		<path style="clip-path:url(#SVGID_44_);fill:#B5B6B6;" d="M793.5,414.5H234.4v-1.2h559.2L793.5,414.5L793.5,414.5z M793.5,253.9
			H234.4v-1.2h559.2L793.5,253.9L793.5,253.9z M793.5,227H234.4v-1.2h559.2L793.5,227L793.5,227z M793.5,200.2H234.4V199h559.2
			L793.5,200.2L793.5,200.2z"/>
	</g>
	<g>
		<defs>
			<rect id="SVGID_45_" x="2.4" y="112.1" width="799.2" height="718.1"/>
		</defs>
		<clipPath id="SVGID_46_">
			<use xlink:href="#SVGID_45_"  style="overflow:visible;"/>
		</clipPath>
		<rect x="234.4" y="439.4" style="clip-path:url(#SVGID_46_);fill:#B5B6B6;" width="559.2" height="2.8"/>
	</g>
	<g>
		<defs>
			<rect id="SVGID_47_" x="2.4" y="112.1" width="799.2" height="718.1"/>
		</defs>
		<clipPath id="SVGID_48_">
			<use xlink:href="#SVGID_47_"  style="overflow:visible;"/>
		</clipPath>
		<path style="clip-path:url(#SVGID_48_);fill:#B5B6B6;" d="M793.5,548.8H234.4v-1.2h559.2L793.5,548.8L793.5,548.8z M793.5,521.9
			H234.4v-1.2h559.2L793.5,521.9L793.5,521.9z M793.5,495.1H234.4v-1.2h559.2L793.5,495.1L793.5,495.1z M793.5,468.2H234.4V467
			h559.2L793.5,468.2L793.5,468.2z"/>
	</g>
	<g>
		<defs>
			<rect id="SVGID_49_" x="2.4" y="112.1" width="799.2" height="718.1"/>
		</defs>
		<clipPath id="SVGID_50_">
			<use xlink:href="#SVGID_49_"  style="overflow:visible;"/>
		</clipPath>
		<rect x="234.4" y="573.6" style="clip-path:url(#SVGID_50_);fill:#B5B6B6;" width="559.2" height="2.8"/>
	</g>
	<g>
		<defs>
			<rect id="SVGID_51_" x="2.4" y="112.1" width="799.2" height="718.1"/>
		</defs>
		<clipPath id="SVGID_52_">
			<use xlink:href="#SVGID_51_"  style="overflow:visible;"/>
		</clipPath>
		<path style="clip-path:url(#SVGID_52_);fill:#B5B6B6;" d="M793.5,709.9H234.4v-1.2h559.2L793.5,709.9L793.5,709.9z M793.5,683
			H234.4v-1.2h559.2L793.5,683L793.5,683z M793.5,656.2H234.4V655h559.2L793.5,656.2L793.5,656.2z M793.5,629.3H234.4v-1.2h559.2
			L793.5,629.3L793.5,629.3z M793.5,602.5H234.4v-1.2h559.2L793.5,602.5L793.5,602.5z"/>
	</g>
	<g>
		<defs>
			<rect id="SVGID_53_" x="2.4" y="112.1" width="799.2" height="718.1"/>
		</defs>
		<clipPath id="SVGID_54_">
			<use xlink:href="#SVGID_53_"  style="overflow:visible;"/>
		</clipPath>
		<path style="clip-path:url(#SVGID_54_);fill:#B5B6B6;" d="M681.8,709h-2V121.2h2V709z M570.3,709h-2V121.2h2V709z M458.8,709h-2
			V121.2h2V709z M347.2,709h-2V121.2h2V709z"/>
	</g>
	<g>
		<defs>
			<rect id="SVGID_55_" x="2.4" y="112.1" width="799.2" height="718.1"/>
		</defs>
		<clipPath id="SVGID_56_">
			<use xlink:href="#SVGID_55_"  style="overflow:visible;"/>
		</clipPath>
		<polygon style="clip-path:url(#SVGID_56_);fill:#329AD7;" points="235.9,821.5 232.8,821.5 232.8,710.9 10.7,710.9 10.7,707.7 
			232.8,707.7 232.8,121.2 235.9,121.2 235.9,707.7 792.1,707.7 792.1,710.9 235.9,710.9 		"/>
	</g>
	<g>
		<defs>
			<rect id="SVGID_57_" x="2.4" y="112.1" width="799.2" height="718.1"/>
		</defs>
		<clipPath id="SVGID_58_">
			<use xlink:href="#SVGID_57_"  style="overflow:visible;"/>
		</clipPath>
		<path style="clip-path:url(#SVGID_58_);fill:#329AD7;" d="M16.3,819.3l-0.7-1.4l184.3-92.2c34.5-17.3,34.5-17.2,34.9-17l-0.1,1.4
			C234,710.3,18.5,818.2,16.3,819.3z"/>
	</g>
</g>
<g>
	<path d="M29.6,186.6c-0.2,0.3-0.5,0.6-0.9,0.9c-0.8,0.5-1.5,0.5-2.1,0.1c-0.5-0.4-1.1-0.9-1.7-1.6c-0.8-1-1.6-2.1-2.4-3.6
		c-0.8-1.4-1.4-3-2-4.8s-1.1-3.7-1.4-5.8c-0.4-2.1-0.5-4.3-0.5-6.5s0.2-4.4,0.6-6.5s0.9-4,1.5-5.8s1.3-3.4,2.1-4.8
		c0.8-1.4,1.6-2.6,2.4-3.6c0.6-0.7,1.2-1.2,1.8-1.6c0.5-0.3,1.2-0.3,2,0.1c0.5,0.3,0.9,0.5,1.1,0.9c0.2,0.3,0.3,0.6,0.2,1
		c0,0.3-0.2,0.7-0.4,1.1c-0.2,0.4-0.4,0.7-0.6,1.1c-0.8,1.3-1.6,2.7-2.4,4.1c-0.7,1.4-1.4,2.8-1.9,4.3s-1,3-1.3,4.7
		c-0.3,1.6-0.5,3.3-0.5,5.1c0,3.6,0.5,6.9,1.6,9.8c1.1,2.9,2.4,5.7,4.1,8.4c0.2,0.4,0.4,0.7,0.6,1.1c0.2,0.4,0.3,0.7,0.3,1.1
		C29.9,186,29.8,186.3,29.6,186.6z"/>
	<path d="M124.9,186c-0.3,0.4-0.6,0.7-0.9,1s-0.5,0.5-0.8,0.7s-0.6,0.2-0.9,0.2s-0.7-0.1-1.1-0.4c-0.5-0.3-0.8-0.5-1-0.9
		c-0.2-0.3-0.3-0.6-0.2-1c0-0.3,0.1-0.7,0.3-1.1c0.2-0.4,0.4-0.7,0.6-1.1c1.7-2.7,3.1-5.5,4.1-8.4c1.1-2.9,1.6-6.2,1.6-9.8
		c0-1.8-0.2-3.5-0.5-5.1s-0.7-3.2-1.3-4.7c-0.5-1.5-1.2-2.9-1.9-4.3c-0.7-1.4-1.5-2.7-2.4-4.1c-0.2-0.4-0.4-0.7-0.6-1.1
		c-0.2-0.4-0.3-0.7-0.4-1.1c0-0.3,0-0.7,0.2-1s0.5-0.6,1.1-0.9c0.8-0.4,1.4-0.4,2-0.1c0.5,0.3,1.1,0.9,1.8,1.6
		c0.8,1,1.6,2.1,2.4,3.6c0.8,1.4,1.5,3,2.1,4.8c0.6,1.8,1.1,3.7,1.5,5.8c0.4,2.1,0.6,4.2,0.6,6.5s-0.2,4.4-0.5,6.5
		c-0.4,2.1-0.8,4-1.4,5.8c-0.6,1.8-1.3,3.4-2,4.8C126.5,183.9,125.7,185,124.9,186z"/>
</g>
<g>
	<path d="M747.8,814.5c-0.1,0.3-0.4,0.5-0.7,0.7c-0.7,0.4-1.2,0.4-1.6,0.1c-0.4-0.3-0.9-0.7-1.3-1.3c-0.6-0.8-1.3-1.7-1.9-2.8
		c-0.6-1.1-1.1-2.4-1.6-3.8c-0.5-1.4-0.8-2.9-1.1-4.6c-0.3-1.6-0.4-3.4-0.4-5.2s0.2-3.5,0.5-5.1s0.7-3.2,1.2-4.6
		c0.5-1.4,1.1-2.7,1.7-3.8c0.6-1.1,1.3-2.1,1.9-2.8c0.5-0.6,1-1,1.4-1.2c0.4-0.3,1-0.2,1.6,0.1c0.4,0.2,0.7,0.4,0.9,0.7
		c0.1,0.2,0.2,0.5,0.2,0.8s-0.1,0.6-0.3,0.8c-0.1,0.3-0.3,0.6-0.5,0.9c-0.7,1.1-1.3,2.1-1.9,3.2c-0.6,1.1-1.1,2.2-1.5,3.4
		s-0.8,2.4-1,3.7s-0.4,2.6-0.4,4c0,2.9,0.4,5.4,1.3,7.8c0.8,2.3,1.9,4.5,3.3,6.6c0.2,0.3,0.3,0.6,0.5,0.9c0.1,0.3,0.2,0.6,0.2,0.8
		S747.9,814.2,747.8,814.5z"/>
	<path d="M751.2,782.6c0.3-0.1,0.6-0.1,1.1-0.2c0.8-0.1,1.3,0,1.7,0.3s0.5,0.7,0.5,1.3c0,1.1,0.1,2.3,0.1,3.6s0.1,2.5,0.1,3.7
		s0,2.4,0.1,3.5c0,1.1,0,2.1,0.1,2.9c0,0.3,0.1,0.4,0.4,0.4c0.9-0.1,1.9-0.1,2.9-0.2c1-0.1,2.1-0.1,3.1-0.2c1-0.1,2.1-0.1,3.1-0.2
		c1-0.1,2-0.1,2.9-0.2c0.4,0,0.8,0.1,1,0.3c0.3,0.2,0.4,0.7,0.4,1.4c0,0.5-0.1,0.9-0.3,1.2s-0.5,0.4-0.9,0.5c-0.9,0.1-1.9,0.3-3,0.4
		c-1.1,0.1-2.3,0.2-3.5,0.3s-2.4,0.2-3.7,0.2s-2.4,0.1-3.5,0.1c-0.8,0-1.5-0.1-2-0.5s-0.8-1-0.8-1.8c-0.1-1.1-0.1-2.3-0.2-3.6
		c-0.1-1.3-0.1-2.6-0.2-4c0-1.4-0.1-2.7-0.1-4s-0.1-2.5-0.1-3.7c0-0.3,0-0.5,0-0.7s0.1-0.4,0.2-0.5S750.9,782.7,751.2,782.6z
		 M776.3,813.4c0,0.5-0.1,0.9-0.4,1.2c-0.3,0.2-0.6,0.4-0.9,0.4c-1.2,0.1-2.5,0.2-3.9,0.3s-2.8,0.1-4.2,0.2
		c-1.4,0.1-2.8,0.1-4.2,0.1s-2.6,0.1-3.8,0.1c-0.6,0-1.1-0.2-1.4-0.6c-0.3-0.4-0.5-1-0.6-1.6c0-0.8-0.1-1.5-0.1-2.1
		s-0.1-1.2-0.1-1.7c0-0.6,0-1.1,0-1.7s0-1.2,0-2c0-0.6,0.1-1,0.4-1.2c0.3-0.2,0.7-0.3,1.5-0.4c0.7-0.1,1.2,0,1.6,0.2
		c0.3,0.2,0.5,0.6,0.6,1.2c0,0.4,0,0.9,0,1.5s0,1.1,0,1.6s0,1.1,0,1.6s0,0.9,0,1.3c0,0.3,0.1,0.5,0.4,0.5c0.9,0,2-0.1,3.2-0.1
		s2.5-0.1,3.7-0.1c1.3-0.1,2.5-0.1,3.7-0.1s2.3-0.1,3.2-0.1c0.5,0,0.9,0.1,1.1,0.4C776.2,812.3,776.3,812.8,776.3,813.4z
		 M770.1,791.2c0.8,0,1.5-0.1,2.2-0.1c0-0.4,0-0.9,0-1.3c0-0.4,0-0.9,0-1.3c-0.6,0-1.4,0.1-2.2,0.1s-1.6,0.1-2.3,0.1s-1.4,0-2,0.1
		c-0.6,0-0.9,0-1.1,0c-0.5,0-0.9-0.1-1.1-0.4c-0.2-0.3-0.3-0.7-0.3-1.3c0-1.1,0.4-1.7,1.3-1.7c0.2,0,0.6,0,1.1,0
		c0.6,0,1.3-0.1,2-0.1c0.8,0,1.5-0.1,2.3-0.1s1.5-0.1,2.2-0.1c0-0.2,0-0.3,0-0.5s0-0.3,0-0.5c0-0.7,0.1-1.2,0.4-1.5s0.8-0.4,1.6-0.4
		c1.3,0,1.9,0.7,1.9,2.1c0,0.8,0,1.8,0,2.9c0,1.1,0,2.3,0,3.5s0,2.5-0.1,3.8c0,1.3,0,2.5-0.1,3.6s-0.1,2.1-0.1,3s-0.1,1.6-0.1,2
		c-0.1,0.8-0.3,1.2-0.6,1.5s-0.8,0.3-1.3,0.3s-1-0.2-1.3-0.4s-0.5-0.7-0.5-1.5c0-0.3,0-0.7,0-1.3c0-0.5,0-1.2,0-1.9s0-1.5,0-2.4
		s0-1.8,0-2.7c-0.7,0-1.4,0.1-2.2,0.1s-1.6,0.1-2.3,0.1s-1.4,0-1.9,0.1c-0.5,0-0.9,0-1,0c-0.5,0-0.9-0.1-1.1-0.4
		c-0.2-0.3-0.3-0.7-0.3-1.3c0-1.1,0.4-1.7,1.3-1.7c0.2,0,0.5,0,1.1,0s1.2-0.1,2-0.1C768.6,791.2,769.3,791.2,770.1,791.2z"/>
	<path d="M783.5,814c-0.2,0.3-0.5,0.5-0.7,0.8s-0.4,0.4-0.6,0.5c-0.2,0.1-0.5,0.2-0.7,0.2c-0.3,0-0.6-0.1-0.9-0.3
		c-0.4-0.2-0.6-0.4-0.8-0.7c-0.1-0.2-0.2-0.5-0.2-0.8s0.1-0.6,0.2-0.8c0.1-0.3,0.3-0.6,0.5-0.9c1.3-2.1,2.4-4.3,3.3-6.6
		c0.8-2.3,1.3-4.9,1.3-7.8c0-1.4-0.1-2.7-0.4-4c-0.2-1.3-0.6-2.5-1-3.7s-0.9-2.3-1.5-3.4c-0.6-1.1-1.2-2.2-1.9-3.2
		c-0.2-0.3-0.3-0.6-0.5-0.9c-0.1-0.3-0.2-0.6-0.3-0.8c0-0.3,0-0.5,0.2-0.8c0.1-0.2,0.4-0.5,0.9-0.7c0.6-0.3,1.1-0.3,1.6-0.1
		c0.4,0.3,0.9,0.7,1.4,1.2c0.6,0.8,1.3,1.7,1.9,2.8c0.6,1.1,1.2,2.4,1.7,3.8c0.5,1.4,0.9,2.9,1.2,4.6c0.3,1.6,0.5,3.4,0.5,5.1
		c0,1.8-0.1,3.5-0.4,5.2c-0.3,1.6-0.7,3.2-1.1,4.6c-0.5,1.4-1,2.7-1.6,3.8C784.7,812.3,784.1,813.2,783.5,814z"/>
</g>
<g>
	<g>
		<defs>
			<rect id="SVGID_59_" x="2.4" y="112.1" width="799.2" height="718.1"/>
		</defs>
		<clipPath id="SVGID_60_">
			<use xlink:href="#SVGID_59_"  style="overflow:visible;"/>
		</clipPath>
		<path style="clip-path:url(#SVGID_60_);fill:#0086CD;" d="M769.6,653.1c-7.3,0-13.3-3.3-18.7-6.1c-4.6-2.5-8.9-4.8-13.3-4.8
			c-4.4,0-8.7,2.3-13.2,4.8c-5.3,2.9-11.4,6.1-18.6,6.1c-7.3,0-13.3-3.3-18.7-6.1c-4.5-2.5-8.8-4.8-13.2-4.8s-8.7,2.3-13.2,4.8
			c-5.3,2.9-11.4,6.1-18.7,6.1c-7.2,0-13.4-3.2-18.9-6.1c-4.7-2.5-9.2-4.8-13.6-4.8c-4.4,0-8.9,2.3-13.6,4.8
			c-5.5,2.9-11.7,6.1-18.9,6.1c-7.3,0-13.3-3.3-18.7-6.1c-4.5-2.5-8.8-4.8-13.2-4.8s-8.7,2.3-13.2,4.8c-5.3,2.9-11.4,6.1-18.6,6.1
			c-7.3,0-13.3-3.3-18.7-6.1c-4.5-2.5-8.8-4.8-13.2-4.8c-4.4,0-8.7,2.3-13.3,4.8c-5.3,2.9-11.4,6.1-18.7,6.1
			c-7.3,0-13.3-3.3-18.7-6.1c-4.6-2.5-8.9-4.8-13.3-4.8s-8.7,2.3-13.2,4.8c-5.3,2.9-11.4,6.1-18.7,6.1c-7.3,0-13.3-3.3-18.6-6.1
			c-4.5-2.5-8.8-4.8-13.2-4.8c-4.4,0-8.7,2.3-13.2,4.8c-5.3,2.9-11.4,6.1-18.7,6.1c-7.3,0-13.4-3.3-18.7-6.1
			c-4.6-2.5-8.9-4.8-13.3-4.8s-8.8,2.3-13.4,4.8c-5.4,2.9-11.5,6.1-18.7,6.1c-7.3,0-13.3-3.3-18.6-6.1c-4.6-2.5-8.9-4.8-13.3-4.8
			c-4.4,0-8.7,2.3-13.2,4.8c-5.3,2.9-11.4,6.1-18.7,6.1s-13.3-3.3-18.6-6.1c-4.5-2.5-8.8-4.8-13.2-4.8s-8.7,2.3-13.3,4.8
			c-5.4,2.9-11.4,6.1-18.7,6.1s-13.3-3.3-18.7-6.1c-4.6-2.5-8.9-4.8-13.3-4.8s-8.7,2.3-13.2,4.8c-5.3,2.9-11.4,6.1-18.6,6.1
			c-7.3,0-13.3-3.3-18.7-6.1c-4.5-2.4-8.8-4.8-13.2-4.8s-8.7,2.3-13.2,4.8c-5.3,2.9-11.4,6.1-18.6,6.1v-11.8c4.3,0,8.5-2.3,13-4.7
			c5.4-2.9,11.5-6.2,18.9-6.2c7.3,0,13.4,3.3,18.8,6.2c4.5,2.4,8.8,4.7,13.1,4.7s8.3-2.2,13-4.7c5.4-2.9,11.5-6.2,18.8-6.2
			c7.4,0,13.5,3.3,18.9,6.2c4.5,2.4,8.8,4.7,13.1,4.7c4.3,0,8.6-2.3,13.1-4.7c5.4-2.9,11.5-6.2,18.9-6.2s13.4,3.3,18.8,6.2
			c4.7,2.5,8.7,4.7,13,4.7s8.5-2.3,13.1-4.7c5.4-2.9,11.5-6.2,18.8-6.2c7.4,0,13.5,3.3,18.9,6.2c4.5,2.4,8.8,4.7,13,4.7
			c4.3,0,8.6-2.3,13.2-4.7c5.4-2.9,11.6-6.2,18.9-6.2s13.5,3.3,18.9,6.2c4.6,2.4,8.9,4.7,13.2,4.7c4.3,0,8.6-2.3,13.1-4.7
			c5.4-2.9,11.5-6.2,18.8-6.2c7.4,0,13.5,3.3,18.8,6.2c4.7,2.5,8.7,4.7,13,4.7s8.6-2.3,13.1-4.7c5.4-2.9,11.5-6.2,18.8-6.2
			c7.4,0,13.5,3.3,18.9,6.2c4.5,2.4,8.8,4.7,13.1,4.7c4.3,0,8.6-2.3,13.1-4.7c5.4-2.9,11.5-6.2,18.9-6.2s13.5,3.3,18.8,6.2
			c4.7,2.5,8.8,4.7,13,4.7c4.3,0,8.3-2.2,13-4.7c5.4-2.9,11.5-6.2,18.8-6.2c7.4,0,13.5,3.3,18.8,6.2c4.5,2.4,8.8,4.7,13.1,4.7
			s8.8-2.3,13.5-4.8c5.5-2.9,11.8-6.1,19.1-6.1s13.6,3.3,19.1,6.1c4.7,2.4,9.1,4.8,13.5,4.8c4.3,0,8.6-2.3,13.1-4.7
			c5.4-2.9,11.5-6.2,18.8-6.2s13.5,3.3,18.8,6.2c4.7,2.5,8.8,4.7,13,4.7c4.3,0,8.3-2.2,13-4.7c5.4-2.9,11.5-6.2,18.8-6.2
			s13.5,3.3,18.9,6.2c4.5,2.4,8.8,4.7,13.1,4.7s8.6-2.3,13.1-4.7c5.4-2.9,11.5-6.2,18.9-6.2v11.8c-4.4,0-8.7,2.3-13.3,4.8
			C782.9,649.8,776.9,653.1,769.6,653.1z"/>
	</g>
	<g>
		<defs>
			<rect id="SVGID_61_" x="2.4" y="112.1" width="799.2" height="718.1"/>
		</defs>
		<clipPath id="SVGID_62_">
			<use xlink:href="#SVGID_61_"  style="overflow:visible;"/>
		</clipPath>
		<path style="clip-path:url(#SVGID_62_);fill:#FFFFFF;" d="M769.6,651.1c-6.8,0-12.3-3-17.7-5.9c-4.8-2.6-9.3-5-14.2-5
			s-9.4,2.4-14.1,5c-5.4,2.9-10.9,5.9-17.7,5.9s-12.3-3-17.7-5.9c-4.8-2.6-9.3-5-14.1-5c-4.9,0-9.4,2.4-14.2,5
			c-5.4,2.9-11,5.9-17.7,5.9s-12.5-3-18-5.9c-5-2.6-9.6-5-14.5-5s-9.6,2.4-14.5,5c-5.5,2.9-11.3,5.9-18,5.9c-6.8,0-12.3-3-17.7-5.9
			c-4.8-2.6-9.3-5-14.2-5s-9.4,2.4-14.2,5c-5.4,2.9-10.9,5.9-17.7,5.9s-12.3-3-17.7-5.9c-4.8-2.6-9.3-5-14.2-5
			c-4.9,0-9.4,2.4-14.2,5c-5.4,2.9-11,5.9-17.7,5.9c-6.8,0-12.4-3-17.8-5.9c-4.8-2.6-9.3-5-14.2-5c-4.9,0-9.4,2.4-14.1,5
			c-5.4,2.9-10.9,5.9-17.7,5.9c-6.8,0-12.3-3-17.7-5.9c-4.8-2.6-9.3-5-14.2-5c-4.9,0-9.4,2.4-14.2,5c-5.4,2.9-11,5.9-17.7,5.9
			c-6.8,0-12.4-3-17.8-5.9c-4.8-2.6-9.4-5-14.3-5s-9.5,2.4-14.3,5c-5.4,2.9-11,5.9-17.8,5.9c-6.8,0-12.3-3-17.7-5.9
			c-4.8-2.6-9.3-5-14.2-5s-9.4,2.4-14.1,5c-5.4,2.9-10.9,5.9-17.7,5.9s-12.3-3-17.7-5.9c-4.8-2.6-9.3-5-14.1-5
			c-4.9,0-9.4,2.4-14.2,5c-5.4,2.9-11,5.9-17.7,5.9c-6.8,0-12.4-3-17.8-5.9c-4.8-2.6-9.3-5-14.2-5c-4.9,0-9.4,2.4-14.1,5
			c-5.4,2.9-10.9,5.9-17.7,5.9s-12.4-3-17.7-5.9c-4.8-2.6-9.3-5-14.1-5c-4.9,0-9.4,2.4-14.2,5c-5.4,2.9-10.9,5.9-17.7,5.9v-7.9
			c4.8,0,9.2-2.4,14-5c5.4-2.9,11-6,17.9-6c6.8,0,12.4,3,17.9,5.9c4.7,2.6,9.2,5,14,5s9.2-2.4,14-5c5.4-2.9,11-5.9,17.9-5.9
			s12.5,3,17.9,5.9c4.8,2.6,9.2,5,14,5c4.8,0,9.3-2.4,14-5c5.4-2.9,11.1-5.9,18-5.9s12.5,3,17.9,5.9c4.7,2.6,9.2,5,14,5
			s9.3-2.4,14-5c5.4-2.9,11-5.9,17.9-5.9s12.5,3,17.9,6c4.7,2.5,9.2,5,14,5c4.8,0,9.3-2.4,14.1-5c5.5-2.9,11.1-5.9,18-5.9
			s12.5,3,18,5.9c4.8,2.6,9.3,5,14.1,5c4.8,0,9.3-2.4,14-5c5.4-2.9,11-5.9,17.9-5.9s12.5,3,17.9,6c4.7,2.6,9.2,5,14,5s9.3-2.4,14-5
			c5.4-2.9,11-5.9,17.9-5.9s12.5,3,17.9,5.9c4.8,2.6,9.2,5,14,5s9.3-2.4,14-5c5.4-2.9,11.1-5.9,17.9-5.9c6.9,0,12.5,3,17.9,5.9
			c4.7,2.6,9.2,5,14,5s9.2-2.4,14-5c5.4-2.9,11-6,17.9-6s12.5,3,17.9,5.9c4.7,2.6,9.2,5,14,5s9.5-2.4,14.4-5
			c5.6-2.9,11.3-5.9,18.2-5.9c6.8,0,12.6,3,18.2,5.9c4.9,2.6,9.6,5,14.4,5c4.8,0,9.3-2.4,14-5c5.4-2.9,11-5.9,17.9-5.9
			s12.5,3,17.9,5.9c4.7,2.6,9.2,5,14,5s9.3-2.4,14-5c5.4-2.9,11-5.9,17.9-5.9s12.5,3,17.9,5.9c4.8,2.6,9.2,5,14,5s9.3-2.4,14-5
			c5.4-2.9,11.1-5.9,17.9-5.9v7.9c-4.9,0-9.4,2.4-14.2,5C782,648.1,776.4,651.1,769.6,651.1z"/>
	</g>
</g>
<g>
	<path d="M219.4,698.8c-1.3,1.4-2.7,2.5-4.5,3.3c-1.7,0.8-3.5,1.2-5.4,1.3s-3.7-0.3-5.4-0.9c-1.7-0.7-3.2-1.7-4.5-3.2
		c-1.3-1.4-2.3-3.2-3.1-5.3s-1.1-4.6-1.1-7.4c0-2.5,0.3-4.8,1-6.9c0.6-2.1,1.6-3.9,2.8-5.4s2.7-2.7,4.4-3.6c1.7-0.9,3.7-1.4,5.9-1.6
		c2.1-0.2,4,0.1,5.8,0.9c1.7,0.7,3.2,1.9,4.4,3.4s2.2,3.4,2.9,5.6c0.7,2.2,1,4.8,1,7.6c0,2.6-0.4,5-1.1,7.1
		C221.7,695.6,220.7,697.4,219.4,698.8z M213,698.1c1.1-0.6,2.1-1.4,3-2.5c0.8-1.1,1.5-2.4,2-4s0.7-3.4,0.7-5.6
		c0-2.2-0.2-4.1-0.7-5.8s-1.1-3-2-4.1c-0.8-1.1-1.8-1.8-2.9-2.3s-2.3-0.7-3.5-0.6c-2.7,0.2-4.9,1.4-6.6,3.6
		c-1.7,2.2-2.5,5.3-2.5,9.5c0,2.2,0.2,4.1,0.7,5.7c0.5,1.6,1.1,2.9,2,3.9c0.8,1,1.8,1.8,2.8,2.3c1.1,0.5,2.2,0.7,3.4,0.6
		C210.6,698.9,211.8,698.7,213,698.1z"/>
</g>
</svg>
