
<svg xmlns="http://www.w3.org/2000/svg" version="1.1" xmlns:xlink="http://www.w3.org/1999/xlink" preserveAspectRatio="none" x="0px" y="0px" width="1280px" height="720px" viewBox="0 0 1280 720">
<defs>
<g id="Layer0_0_FILL">
<path fill="#1E1E1E" stroke="none" d="
M 534.25 529.25
Q 534 529.25 533.85 529.4 533.7 529.55 533.7 529.75
L 533.7 532.85
Q 533.7 533.05 533.85 533.25 534 533.4 534.25 533.4
L 547.15 533.4 549.75 533.4 555.4 533.4
Q 555.95 533.4 555.95 532.85
L 555.95 529.75
Q 555.95 529.25 555.4 529.25
L 549.75 529.25 547.15 529.25 534.25 529.25
M 325.4 335.4
Q 325.95 335.4 325.95 334.85
L 325.95 331.75
Q 325.95 331.25 325.4 331.25
L 319.75 331.25 317.15 331.25 304.25 331.25
Q 304 331.25 303.85 331.4 303.7 331.55 303.7 331.75
L 303.7 334.85
Q 303.7 335.05 303.85 335.25 304 335.4 304.25 335.4
L 317.15 335.4 319.75 335.4 325.4 335.4
M 859.35 335.4
Q 859.9 335.4 859.9 334.85
L 859.9 331.75
Q 859.9 331.25 859.35 331.25
L 853.7 331.25 851.1 331.25 838.2 331.25
Q 837.95 331.25 837.8 331.4 837.65 331.55 837.65 331.75
L 837.65 334.85
Q 837.65 335.05 837.8 335.25 837.95 335.4 838.2 335.4
L 851.1 335.4 853.7 335.4 859.35 335.4
M 469.85 517.3
Q 469.85 517.1 469.75 516.95 469.6 516.75 469.35 516.75
L 454.7 516.75
Q 454.1 516.75 454 516.9 453.85 517 453.85 517.45
L 453.65 532.2
Q 453.65 533.55 455.2 532.9 456.45 532.45 457.85 532.2 459.25 531.9 460.55 531.9 463.85 531.9 465.25 533.45 466.7 534.95 466.7 537.55 466.7 540.25 464.9 541.75 463.2 543.3 460.5 543.3 459.8 543.3 458.95 543.2 458.15 543.15 457.3 543 456.45 542.8 455.65 542.6 454.85 542.35 454.3 542.05 453.45 541.65 453.45 542.35
L 453.45 545.6
Q 453.45 545.9 453.45 546.05 453.5 546.15 453.75 546.35 454.4 546.65 455.35 546.85 456.25 547.1 457.2 547.25 458.15 547.35 458.95 547.45 459.8 547.5 460.2 547.5 462.5 547.5 464.55 546.85 466.65 546.2 468.05 544.9 471.2 542.1 471.2 537.05 471.2 534.95 470.45 533.3 469.7 531.6 468.4 530.4 467.1 529.25 465.35 528.6 463.6 528 461.6 528 459.65 528 458.05 528.35
L 458.2 520.95 469.35 520.95
Q 469.6 520.95 469.75 520.75 469.85 520.6 469.85 520.35
L 469.85 517.3
M 591.05 518.6
Q 589.9 517.55 588.25 517 586.65 516.45 584.7 516.45 582.85 516.45 580.85 517.1 578.9 517.75 577.4 518.55 577 518.75 576.85 519 576.75 519.15 576.85 519.35
L 577.4 522.4
Q 577.5 522.75 577.8 522.8 578.1 522.8 578.45 522.6 580.25 521.55 581.75 521.1 583.3 520.65 584.95 520.65 586.7 520.65 587.85 521.9 589.05 523.15 589.05 525.05 589.05 526.75 587.45 529.35 585.85 532 582.5 535.95
L 576.4 543.2
Q 576.2 543.5 576 543.8 575.85 544.15 575.85 544.45
L 575.85 546.75
Q 575.85 547.25 576.6 547.25
L 593.65 547.25
Q 594.2 547.25 594.2 546.55
L 594.2 543.75
Q 594.2 543.15 593.65 543.15
L 581.9 543.15
Q 582.9 542 583.9 540.85 584.9 539.65 585.75 538.55 586.85 537.25 588.25 535.65 589.6 534 590.8 532.25 592 530.45 592.8 528.6 593.6 526.75 593.6 524.95 593.6 522.85 592.9 521.25 592.2 519.65 591.05 518.6
M 610.85 541.8
Q 610.15 541.8 610.15 542.45
L 610.15 545.25
Q 610.15 545.6 610.35 545.75 610.55 545.95 610.85 545.95
L 623.6 545.95 613.15 571.5
Q 613 571.95 613.15 572.05 613.3 572.2 613.9 572.2
L 617.15 572.2
Q 617.55 572.2 617.7 572.1 617.85 571.95 618.05 571.65
L 628.6 545.6
Q 628.85 545.3 628.85 544.95
L 628.85 542.55
Q 628.85 542.1 628.7 541.95 628.55 541.8 627.85 541.8
L 610.85 541.8
M 486.85 541.8
Q 486.15 541.8 486.15 542.45
L 486.15 545.25
Q 486.15 545.6 486.35 545.75 486.55 545.95 486.85 545.95
L 499.6 545.95 489.15 571.5
Q 489 571.95 489.15 572.05 489.3 572.2 489.9 572.2
L 493.15 572.2
Q 493.55 572.2 493.7 572.1 493.85 571.95 494.05 571.65
L 504.6 545.6
Q 504.85 545.3 504.85 544.95
L 504.85 542.55
Q 504.85 542.1 504.7 541.95 504.55 541.8 503.85 541.8
L 486.85 541.8
M 497.8 491.9
Q 497.7 492 497.5 492.35
L 485.1 510.95
Q 484.95 511.1 484.8 511.4 484.6 511.7 484.6 511.95
L 484.6 514.95
Q 484.6 515.25 484.75 515.3 484.9 515.4 485.25 515.4
L 498.05 515.4 498.05 521.5
Q 498.05 521.9 498.2 522.05 498.35 522.2 498.8 522.2
L 501.7 522.2
Q 502.1 522.2 502.2 522.05 502.35 521.95 502.35 521.5
L 502.35 515.4 506.05 515.4
Q 506.4 515.4 506.55 515.3 506.7 515.2 506.7 514.8
L 506.7 511.9
Q 506.7 511.5 506.55 511.4 506.4 511.3 506.05 511.3
L 502.35 511.3 502.35 492.4
Q 502.35 492.05 502.3 491.95 502.25 491.8 501.95 491.8
L 498.3 491.8
Q 497.9 491.8 497.8 491.9
M 498.05 511.3
L 489.45 511.3 498.05 498.25 498.05 511.3
M 628.65 492.7
Q 628.7 492.3 628.35 492.2 627.45 491.85 626 491.65 624.6 491.45 623.45 491.45 619.7 491.45 617.15 492.75 614.6 494.1 613 496.35 611.45 498.55 610.75 501.6 610.05 504.6 610.05 508 610.05 515.45 612.6 519 615.15 522.55 619.85 522.55 622.15 522.55 624 521.75 625.85 520.95 627.15 519.5 628.45 518.15 629.1 516.2 629.8 514.35 629.8 512.15 629.8 509.85 629.1 508.05 628.4 506.2 627.1 504.9 625.85 503.6 624.05 502.9 622.3 502.2 620.1 502.2 619.35 502.2 618.55 502.45 617.75 502.65 617 503 616.25 503.35 615.65 503.8 615.05 504.25 614.7 504.75 614.95 502.8 615.55 501.1 616.1 499.45 617.1 498.2 618.1 496.95 619.55 496.25 621.05 495.6 623.1 495.6 624.5 495.6 625.7 495.7 626.85 495.8 627.9 496.2 628.45 496.45 628.55 495.9
L 628.65 492.7
M 616.2 516.65
Q 615.5 515.75 615.1 514.5 614.7 513.35 614.7 511.95 614.7 509.5 616.2 507.95 617.65 506.4 620.25 506.4 622.7 506.4 624.05 508 625.4 509.55 625.4 512.35 625.4 515.2 623.9 516.9 622.35 518.55 619.95 518.55 618.85 518.55 617.85 518.05 616.9 517.55 616.2 516.65
M 256.6 344.05
Q 256.45 344.15 256.45 344.6
L 256.25 359.35
Q 256.25 360.7 257.8 360.05 259.05 359.6 260.45 359.35 261.85 359.05 263.15 359.05 266.45 359.05 267.85 360.6 269.3 362.1 269.3 364.7 269.3 367.4 267.5 368.9 265.8 370.45 263.1 370.45 262.4 370.45 261.55 370.35 260.75 370.3 259.9 370.15 259.05 369.95 258.25 369.75 257.45 369.5 256.9 369.2 256.05 368.8 256.05 369.5
L 256.05 372.75
Q 256.05 373.05 256.05 373.2 256.1 373.3 256.35 373.5 257 373.8 257.95 374 258.85 374.25 259.8 374.4 260.75 374.5 261.55 374.6 262.4 374.65 262.8 374.65 265.1 374.65 267.15 374 269.25 373.35 270.65 372.05 273.8 369.25 273.8 364.2 273.8 362.1 273.05 360.45 272.3 358.75 271 357.55 269.7 356.4 267.95 355.75 266.2 355.15 264.2 355.15 262.25 355.15 260.65 355.5
L 260.8 348.1 271.95 348.1
Q 272.2 348.1 272.35 347.9 272.45 347.75 272.45 347.5
L 272.45 344.45
Q 272.45 344.25 272.35 344.1 272.2 343.9 271.95 343.9
L 257.3 343.9
Q 256.7 343.9 256.6 344.05
M 234.05 318.6
Q 230.3 318.6 227.75 319.9 225.2 321.25 223.6 323.5 222.05 325.7 221.35 328.75 220.65 331.75 220.65 335.15 220.65 342.6 223.2 346.15 225.75 349.7 230.45 349.7 232.75 349.7 234.6 348.9 236.45 348.1 237.75 346.65 239.05 345.3 239.7 343.35 240.4 341.5 240.4 339.3 240.4 337 239.7 335.2 239 333.35 237.7 332.05 236.45 330.75 234.65 330.05 232.9 329.35 230.7 329.35 229.95 329.35 229.15 329.6 228.35 329.8 227.6 330.15 226.85 330.5 226.25 330.95 225.65 331.4 225.3 331.9 225.55 329.95 226.15 328.25 226.7 326.6 227.7 325.35 228.7 324.1 230.15 323.4 231.65 322.75 233.7 322.75 235.1 322.75 236.3 322.85 237.45 322.95 238.5 323.35 239.05 323.6 239.15 323.05
L 239.25 319.85
Q 239.3 319.45 238.95 319.35 238.05 319 236.6 318.8 235.2 318.6 234.05 318.6
M 230.55 345.7
Q 229.45 345.7 228.45 345.2 227.5 344.7 226.8 343.8 226.1 342.9 225.7 341.65 225.3 340.5 225.3 339.1 225.3 336.65 226.8 335.1 228.25 333.55 230.85 333.55 233.3 333.55 234.65 335.15 236 336.7 236 339.5 236 342.35 234.5 344.05 232.95 345.7 230.55 345.7
M 269.65 295.75
Q 268.5 294.7 266.85 294.15 265.25 293.6 263.3 293.6 261.45 293.6 259.45 294.25 257.5 294.9 256 295.7 255.6 295.9 255.45 296.15 255.35 296.3 255.45 296.5
L 256 299.55
Q 256.1 299.9 256.4 299.95 256.7 299.95 257.05 299.75 258.85 298.7 260.35 298.25 261.9 297.8 263.55 297.8 265.3 297.8 266.45 299.05 267.65 300.3 267.65 302.2 267.65 303.9 266.05 306.5 264.45 309.15 261.1 313.1
L 255 320.35
Q 254.8 320.65 254.6 320.95 254.45 321.3 254.45 321.6
L 254.45 323.9
Q 254.45 324.4 255.2 324.4
L 272.25 324.4
Q 272.8 324.4 272.8 323.7
L 272.8 320.9
Q 272.8 320.3 272.25 320.3
L 260.5 320.3
Q 261.5 319.15 262.5 318 263.5 316.8 264.35 315.7 265.45 314.4 266.85 312.8 268.2 311.15 269.4 309.4 270.6 307.6 271.4 305.75 272.2 303.9 272.2 302.1 272.2 300 271.5 298.4 270.8 296.8 269.65 295.75
M 447 340.25
Q 447.15 340.15 447.15 339.9
L 447.15 336.75
Q 447.15 336.55 447 336.4 446.85 336.3 446.65 336.3
L 425.55 336.3
Q 425.35 336.3 425.2 336.4 425.05 336.55 425.05 336.75
L 425.05 339.9
Q 425.05 340.15 425.2 340.25 425.35 340.4 425.55 340.4
L 446.65 340.4
Q 446.85 340.4 447 340.25
M 447 328.1
Q 446.85 327.95 446.65 327.95
L 425.55 327.95
Q 425.35 327.95 425.2 328.1 425.05 328.25 425.05 328.45
L 425.05 331.6
Q 425.05 331.8 425.2 331.95 425.35 332.1 425.55 332.1
L 446.65 332.1
Q 446.85 332.1 447 331.95 447.15 331.8 447.15 331.6
L 447.15 328.45
Q 447.15 328.25 447 328.1
M 381.3 343.9
Q 380.7 343.9 380.6 344.05 380.45 344.15 380.45 344.6
L 380.25 359.35
Q 380.25 360.7 381.8 360.05 383.05 359.6 384.45 359.35 385.85 359.05 387.15 359.05 390.45 359.05 391.85 360.6 393.3 362.1 393.3 364.7 393.3 367.4 391.5 368.9 389.8 370.45 387.1 370.45 386.4 370.45 385.55 370.35 384.75 370.3 383.9 370.15 383.05 369.95 382.25 369.75 381.45 369.5 380.9 369.2 380.05 368.8 380.05 369.5
L 380.05 372.75
Q 380.05 373.05 380.05 373.2 380.1 373.3 380.35 373.5 381 373.8 381.95 374 382.85 374.25 383.8 374.4 384.75 374.5 385.55 374.6 386.4 374.65 386.8 374.65 389.1 374.65 391.15 374 393.25 373.35 394.65 372.05 397.8 369.25 397.8 364.2 397.8 362.1 397.05 360.45 396.3 358.75 395 357.55 393.7 356.4 391.95 355.75 390.2 355.15 388.2 355.15 386.25 355.15 384.65 355.5
L 384.8 348.1 395.95 348.1
Q 396.2 348.1 396.35 347.9 396.45 347.75 396.45 347.5
L 396.45 344.45
Q 396.45 344.25 396.35 344.1 396.2 343.9 395.95 343.9
L 381.3 343.9
M 364.65 342.55
Q 365 342.55 365.15 342.45 365.3 342.35 365.3 341.95
L 365.3 339.05
Q 365.3 338.65 365.15 338.55 365 338.45 364.65 338.45
L 360.95 338.45 360.95 319.55
Q 360.95 319.2 360.9 319.1 360.85 318.95 360.55 318.95
L 356.9 318.95
Q 356.5 318.95 356.4 319.05 356.3 319.15 356.1 319.5
L 343.7 338.1
Q 343.55 338.25 343.4 338.55 343.2 338.85 343.2 339.1
L 343.2 342.1
Q 343.2 342.4 343.35 342.45 343.5 342.55 343.85 342.55
L 356.65 342.55 356.65 348.65
Q 356.65 349.05 356.8 349.2 356.95 349.35 357.4 349.35
L 360.3 349.35
Q 360.7 349.35 360.8 349.2 360.95 349.1 360.95 348.65
L 360.95 342.55 364.65 342.55
M 348.05 338.45
L 356.65 325.4 356.65 338.45 348.05 338.45
M 393.9 295.4
Q 392.6 294.5 390.85 294.05 389.1 293.6 387.3 293.6 385.6 293.6 383.95 293.95 382.25 294.35 380.5 294.95 380.1 295.15 379.95 295.35 379.8 295.5 379.9 295.75
L 380.25 298.7
Q 380.35 299.05 380.55 299.15 380.75 299.25 381.25 299.05 381.85 298.8 382.65 298.55 383.45 298.3 384.25 298.15 385.05 297.95 385.8 297.85 386.5 297.75 387.05 297.75 387.9 297.75 388.85 297.95 389.8 298.15 390.65 298.65 391.45 299.1 392 299.9 392.5 300.65 392.5 301.65 392.5 303 391.7 303.9 390.9 304.85 389.7 305.45 388.55 306.05 387.3 306.3 386.05 306.55 385.2 306.55
L 383.3 306.55
Q 382.95 306.55 382.85 306.65 382.75 306.7 382.75 307.1
L 382.75 310.05
Q 382.75 310.35 382.85 310.45 382.95 310.55 383.3 310.55
L 385.25 310.55
Q 387.2 310.55 388.55 310.95 389.95 311.3 390.85 312 391.7 312.65 392.15 313.5 392.55 314.35 392.55 315.3 392.55 317.95 390.6 319.3 389.95 319.75 389.2 320 388.4 320.3 387.55 320.4 386.7 320.5 385.8 320.45 384.9 320.4 384.1 320.35 383 320.25 381.95 319.95 380.9 319.65 379.85 319.35 379.3 319.1 379.1 319.25 378.9 319.35 378.85 319.7
L 378.5 322.75
Q 378.45 323.1 378.65 323.25 378.8 323.45 379.2 323.55 380.65 324.1 382.4 324.4 384.15 324.7 385.9 324.7 388.2 324.7 390.35 324.1 392.5 323.55 394 322.3 395.5 321.05 396.35 319.3 397.15 317.5 397.15 315.4 397.15 313.2 395.8 311.4 394.45 309.65 391.8 308.5 392.9 308 393.85 307.25 394.8 306.5 395.5 305.5 396.2 304.55 396.6 303.5 396.95 302.4 396.95 301.3 396.95 299.3 396.1 297.8 395.25 296.3 393.9 295.4
M 656.6 534.25
Q 656.45 534.4 656.45 534.6
L 656.45 537.75
Q 656.45 538 656.6 538.1 656.75 538.25 656.95 538.25
L 678.05 538.25
Q 678.25 538.25 678.4 538.1 678.55 538 678.55 537.75
L 678.55 534.6
Q 678.55 534.4 678.4 534.25 678.25 534.15 678.05 534.15
L 656.95 534.15
Q 656.75 534.15 656.6 534.25
M 656.6 529.8
Q 656.75 529.95 656.95 529.95
L 678.05 529.95
Q 678.25 529.95 678.4 529.8 678.55 529.65 678.55 529.45
L 678.55 526.3
Q 678.55 526.1 678.4 525.95 678.25 525.8 678.05 525.8
L 656.95 525.8
Q 656.75 525.8 656.6 525.95 656.45 526.1 656.45 526.3
L 656.45 529.45
Q 656.45 529.65 656.6 529.8
M 919.05 344.15
Q 917.35 344.7 916.1 345.7 914.85 346.7 914.1 348.1 913.35 349.5 913.35 351.2 913.35 353.5 914.75 355.3 916.15 357.1 918.55 358.5 917.35 359.1 916.25 359.8 915.15 360.5 914.35 361.4 913.55 362.3 913 363.45 912.55 364.6 912.55 366.1 912.55 368.25 913.45 369.85 914.35 371.5 915.8 372.55 917.25 373.6 919.05 374.15 920.9 374.7 922.7 374.7 924.65 374.7 926.45 374.15 928.35 373.6 929.75 372.55 931.15 371.5 932 369.85 932.9 368.25 932.9 366.1 932.9 364.7 932.45 363.7 932.05 362.65 931.25 361.75 930.45 360.85 929.35 360.05 928.2 359.3 926.8 358.45 929.4 356.65 930.65 354.9 931.9 353.1 931.9 351.1 931.9 349.35 931.2 347.95 930.5 346.55 929.3 345.6 928.1 344.65 926.4 344.1 924.7 343.6 922.7 343.6 920.75 343.6 919.05 344.15
M 927 349.9
Q 927.4 350.6 927.4 351.4 927.4 352.1 926.9 352.9 926.4 353.7 925.65 354.45 924.9 355.15 924.1 355.7 923.35 356.25 922.7 356.5 922.2 356.3 921.4 355.8 920.6 355.35 919.8 354.65 919.05 353.95 918.5 353.15 917.9 352.35 917.9 351.5 917.9 350.55 918.35 349.8 918.8 349.1 919.5 348.6 920.15 348.1 921 347.8 921.85 347.5 922.7 347.5 923.65 347.5 924.5 347.85 925.35 348.1 926 348.65 926.65 349.2 927 349.9
M 919.05 362.4
Q 919.9 361.75 920.95 361.35 921.9 360.9 922.7 360.7 923.7 361.05 924.7 361.65 925.7 362.25 926.55 362.95 927.35 363.7 927.85 364.5 928.35 365.35 928.35 366.1 928.35 367.15 927.85 368 927.35 368.85 926.55 369.45 925.75 370.05 924.75 370.35 923.7 370.65 922.7 370.65 921.75 370.65 920.7 370.35 919.7 370 918.85 369.4 918.05 368.8 917.55 367.95 917 367.1 917 366.1 917 364.85 917.6 363.95 918.2 363.05 919.05 362.4
M 890.6 318.95
L 888.5 318.95
Q 888.35 318.95 888.15 319.05 887.95 319.1 887.9 319.2
L 881.75 324.85
Q 881.55 325.05 881.55 325.25 881.5 325.5 881.65 325.65
L 883.45 327.8
Q 883.6 327.95 883.85 327.9 884.1 327.9 884.35 327.75
L 887.3 325.15 887.3 348.85
Q 887.3 349.35 887.85 349.35
L 891.05 349.35
Q 891.55 349.35 891.55 348.85
L 891.55 320.05
Q 891.55 319.25 891.4 319.1 891.3 318.95 890.6 318.95
M 930.7 294.45
Q 930.7 294.25 930.6 294.1 930.45 293.9 930.2 293.9
L 915.55 293.9
Q 914.95 293.9 914.85 294.05 914.7 294.15 914.7 294.6
L 914.5 309.35
Q 914.5 310.7 916.05 310.05 917.3 309.6 918.7 309.35 920.1 309.05 921.4 309.05 924.7 309.05 926.1 310.6 927.55 312.1 927.55 314.7 927.55 317.4 925.75 318.9 924.05 320.45 921.35 320.45 920.65 320.45 919.8 320.35 919 320.3 918.15 320.15 917.3 319.95 916.5 319.75 915.7 319.5 915.15 319.2 914.3 318.8 914.3 319.5
L 914.3 322.75
Q 914.3 323.05 914.3 323.2 914.35 323.3 914.6 323.5 915.25 323.8 916.2 324 917.1 324.25 918.05 324.4 919 324.5 919.8 324.6 920.65 324.65 921.05 324.65 923.35 324.65 925.4 324 927.5 323.35 928.9 322.05 932.05 319.25 932.05 314.2 932.05 312.1 931.3 310.45 930.55 308.75 929.25 307.55 927.95 306.4 926.2 305.75 924.45 305.15 922.45 305.15 920.5 305.15 918.9 305.5
L 919.05 298.1 930.2 298.1
Q 930.45 298.1 930.6 297.9 930.7 297.75 930.7 297.5
L 930.7 294.45
M 795.05 344.15
Q 793.35 344.7 792.1 345.7 790.85 346.7 790.1 348.1 789.35 349.5 789.35 351.2 789.35 353.5 790.75 355.3 792.15 357.1 794.55 358.5 793.35 359.1 792.25 359.8 791.15 360.5 790.35 361.4 789.55 362.3 789 363.45 788.55 364.6 788.55 366.1 788.55 368.25 789.45 369.85 790.35 371.5 791.8 372.55 793.25 373.6 795.05 374.15 796.9 374.7 798.7 374.7 800.65 374.7 802.45 374.15 804.35 373.6 805.75 372.55 807.15 371.5 808 369.85 808.9 368.25 808.9 366.1 808.9 364.7 808.45 363.7 808.05 362.65 807.25 361.75 806.45 360.85 805.35 360.05 804.2 359.3 802.8 358.45 805.4 356.65 806.65 354.9 807.9 353.1 807.9 351.1 807.9 349.35 807.2 347.95 806.5 346.55 805.3 345.6 804.1 344.65 802.4 344.1 800.7 343.6 798.7 343.6 796.75 343.6 795.05 344.15
M 803 349.9
Q 803.4 350.6 803.4 351.4 803.4 352.1 802.9 352.9 802.4 353.7 801.65 354.45 800.9 355.15 800.1 355.7 799.35 356.25 798.7 356.5 798.2 356.3 797.4 355.8 796.6 355.35 795.8 354.65 795.05 353.95 794.5 353.15 793.9 352.35 793.9 351.5 793.9 350.55 794.35 349.8 794.8 349.1 795.5 348.6 796.15 348.1 797 347.8 797.85 347.5 798.7 347.5 799.65 347.5 800.5 347.85 801.35 348.1 802 348.65 802.65 349.2 803 349.9
M 796.95 361.35
Q 797.9 360.9 798.7 360.7 799.7 361.05 800.7 361.65 801.7 362.25 802.55 362.95 803.35 363.7 803.85 364.5 804.35 365.35 804.35 366.1 804.35 367.15 803.85 368 803.35 368.85 802.55 369.45 801.75 370.05 800.75 370.35 799.7 370.65 798.7 370.65 797.75 370.65 796.7 370.35 795.7 370 794.85 369.4 794.05 368.8 793.55 367.95 793 367.1 793 366.1 793 364.85 793.6 363.95 794.2 363.05 795.05 362.4 795.9 361.75 796.95 361.35
M 773.05 345.9
Q 773.05 345.3 772.5 345.3
L 760.75 345.3
Q 761.75 344.15 762.75 343 763.75 341.8 764.6 340.7 765.7 339.4 767.1 337.8 768.45 336.15 769.65 334.4 770.85 332.6 771.65 330.75 772.45 328.9 772.45 327.1 772.45 325 771.75 323.4 771.05 321.8 769.9 320.75 768.75 319.7 767.1 319.15 765.5 318.6 763.55 318.6 761.7 318.6 759.7 319.25 757.75 319.9 756.25 320.7 755.85 320.9 755.7 321.15 755.6 321.3 755.7 321.5
L 756.25 324.55
Q 756.35 324.9 756.65 324.95 756.95 324.95 757.3 324.75 759.1 323.7 760.6 323.25 762.15 322.8 763.8 322.8 765.55 322.8 766.7 324.05 767.9 325.3 767.9 327.2 767.9 328.9 766.3 331.5 764.7 334.15 761.35 338.1
L 755.25 345.35
Q 755.05 345.65 754.85 345.95 754.7 346.3 754.7 346.6
L 754.7 348.9
Q 754.7 349.4 755.45 349.4
L 772.5 349.4
Q 773.05 349.4 773.05 348.7
L 773.05 345.9
M 804.15 295.4
Q 802.85 294.5 801.1 294.05 799.35 293.6 797.55 293.6 795.85 293.6 794.2 293.95 792.5 294.35 790.75 294.95 790.35 295.15 790.2 295.35 790.05 295.5 790.15 295.75
L 790.5 298.7
Q 790.6 299.05 790.8 299.15 791 299.25 791.5 299.05 792.1 298.8 792.9 298.55 793.7 298.3 794.5 298.15 795.3 297.95 796.05 297.85 796.75 297.75 797.3 297.75 798.15 297.75 799.1 297.95 800.05 298.15 800.9 298.65 801.7 299.1 802.25 299.9 802.75 300.65 802.75 301.65 802.75 303 801.95 303.9 801.15 304.85 799.95 305.45 798.8 306.05 797.55 306.3 796.3 306.55 795.45 306.55
L 793.55 306.55
Q 793.2 306.55 793.1 306.65 793 306.7 793 307.1
L 793 310.05
Q 793 310.35 793.1 310.45 793.2 310.55 793.55 310.55
L 795.5 310.55
Q 797.45 310.55 798.8 310.95 800.2 311.3 801.1 312 801.95 312.65 802.4 313.5 802.8 314.35 802.8 315.3 802.8 317.95 800.85 319.3 800.2 319.75 799.45 320 798.65 320.3 797.8 320.4 796.95 320.5 796.05 320.45 795.15 320.4 794.35 320.35 793.25 320.25 792.2 319.95 791.15 319.65 790.1 319.35 789.55 319.1 789.35 319.25 789.15 319.35 789.1 319.7
L 788.75 322.75
Q 788.7 323.1 788.9 323.25 789.05 323.45 789.45 323.55 790.9 324.1 792.65 324.4 794.4 324.7 796.15 324.7 798.45 324.7 800.6 324.1 802.75 323.55 804.25 322.3 805.75 321.05 806.6 319.3 807.4 317.5 807.4 315.4 807.4 313.2 806.05 311.4 804.7 309.65 802.05 308.5 803.15 308 804.1 307.25 805.05 306.5 805.75 305.5 806.45 304.55 806.85 303.5 807.2 302.4 807.2 301.3 807.2 299.3 806.35 297.8 805.5 296.3 804.15 295.4
M 980.9 340.4
Q 981.1 340.4 981.25 340.25 981.4 340.15 981.4 339.9
L 981.4 336.75
Q 981.4 336.55 981.25 336.4 981.1 336.3 980.9 336.3
L 959.8 336.3
Q 959.6 336.3 959.45 336.4 959.3 336.55 959.3 336.75
L 959.3 339.9
Q 959.3 340.15 959.45 340.25 959.6 340.4 959.8 340.4
L 980.9 340.4
M 980.9 332.1
Q 981.1 332.1 981.25 331.95 981.4 331.8 981.4 331.6
L 981.4 328.45
Q 981.4 328.25 981.25 328.1 981.1 327.95 980.9 327.95
L 959.8 327.95
Q 959.6 327.95 959.45 328.1 959.3 328.25 959.3 328.45
L 959.3 331.6
Q 959.3 331.8 959.45 331.95 959.6 332.1 959.8 332.1
L 980.9 332.1 Z"/>

<path fill="#FFFFFF" stroke="none" d="
M 539.85 358.4
L 539.85 388.45
Q 539.85 402.6 553.2 403.4 554 403.45 554.85 403.45
L 584.85 403.45
Q 585.7 403.45 586.55 403.4 599.85 402.6 599.85 388.45
L 599.85 358.4
Q 599.85 343.4 584.85 343.4
L 554.85 343.4
Q 539.85 343.4 539.85 358.4
M 599.85 278.4
Q 599.85 263.4 584.85 263.4
L 554.85 263.4
Q 539.85 263.4 539.85 278.4
L 539.85 308.45
Q 539.85 323.45 554.85 323.45
L 584.85 323.45
Q 599.85 323.45 599.85 308.45
L 599.85 278.4
M 481.95 302.95
Q 466.95 302.95 466.95 317.95
L 466.95 348
Q 466.95 363 481.95 363
L 511.95 363
Q 526.95 363 526.95 348
L 526.95 317.95
Q 526.95 302.95 511.95 302.95
L 481.95 302.95
M 714.25 500.8
Q 699.25 500.8 699.25 515.8
L 699.25 545.85
Q 699.25 560.85 714.25 560.85
L 744.25 560.85
Q 759.25 560.85 759.25 545.85
L 759.25 515.8
Q 759.25 500.8 744.25 500.8
L 714.25 500.8
M 832.15 586.3
L 832.15 556.25
Q 832.15 541.25 817.15 541.25
L 787.15 541.25
Q 772.15 541.25 772.15 556.25
L 772.15 586.3
Q 772.15 600.45 785.5 601.25 786.3 601.3 787.15 601.3
L 817.15 601.3
Q 818 601.3 818.85 601.25 832.15 600.45 832.15 586.3
M 832.15 476.25
Q 832.15 461.25 817.15 461.25
L 787.15 461.25
Q 772.15 461.25 772.15 476.25
L 772.15 506.3
Q 772.15 521.3 787.15 521.3
L 817.15 521.3
Q 832.15 521.3 832.15 506.3
L 832.15 476.25
M 1048.55 343.4
L 1018.55 343.4
Q 1003.55 343.4 1003.55 358.4
L 1003.55 388.45
Q 1003.55 402.6 1016.9 403.4 1017.7 403.45 1018.55 403.45
L 1048.55 403.45
Q 1049.4 403.45 1050.25 403.4 1063.55 402.6 1063.55 388.45
L 1063.55 358.4
Q 1063.55 343.4 1048.55 343.4
M 1048.55 263.4
L 1018.55 263.4
Q 1003.55 263.4 1003.55 278.4
L 1003.55 308.45
Q 1003.55 323.45 1018.55 323.45
L 1048.55 323.45
Q 1063.55 323.45 1063.55 308.45
L 1063.55 278.4
Q 1063.55 263.4 1048.55 263.4 Z"/>
</g>

<path id="Layer0_0_1_STROKES" stroke="#1E1E1E" stroke-width="3" stroke-linejoin="miter" stroke-linecap="butt" stroke-miterlimit="3" fill="none" d="
M 1001.2 332.9
L 1063.95 332.9
M 903.5 333.9
L 941.7 333.9
M 779.5 333.9
L 817.7 333.9
M 769.8 530.75
L 832.55 530.75
M 369.25 333.9
L 407.45 333.9
M 537.5 332.9
L 600.25 332.9
M 245.25 333.9
L 283.45 333.9
M 600.65 531.75
L 638.85 531.75
M 476.65 531.75
L 514.85 531.75"/>

<path id="Layer0_0_2_STROKES" stroke="#DBDBDB" stroke-width="3" stroke-linejoin="round" stroke-linecap="round" fill="none" d="
M 1018.55 263.4
L 1048.55 263.4
Q 1063.55 263.4 1063.55 278.4
L 1063.55 308.45
Q 1063.55 323.45 1048.55 323.45
L 1018.55 323.45
Q 1003.55 323.45 1003.55 308.45
L 1003.55 278.4
Q 1003.55 263.4 1018.55 263.4 Z
M 1018.55 343.4
L 1048.55 343.4
Q 1063.55 343.4 1063.55 358.4
L 1063.55 388.45
Q 1063.55 402.6 1050.25 403.4 1049.4 403.45 1048.55 403.45
L 1018.55 403.45
Q 1017.7 403.45 1016.9 403.4 1003.55 402.6 1003.55 388.45
L 1003.55 358.4
Q 1003.55 343.4 1018.55 343.4 Z
M 787.15 461.25
L 817.15 461.25
Q 832.15 461.25 832.15 476.25
L 832.15 506.3
Q 832.15 521.3 817.15 521.3
L 787.15 521.3
Q 772.15 521.3 772.15 506.3
L 772.15 476.25
Q 772.15 461.25 787.15 461.25 Z
M 787.15 541.25
L 817.15 541.25
Q 832.15 541.25 832.15 556.25
L 832.15 586.3
Q 832.15 600.45 818.85 601.25 818 601.3 817.15 601.3
L 787.15 601.3
Q 786.3 601.3 785.5 601.25 772.15 600.45 772.15 586.3
L 772.15 556.25
Q 772.15 541.25 787.15 541.25 Z
M 714.25 500.8
L 744.25 500.8
Q 759.25 500.8 759.25 515.8
L 759.25 545.85
Q 759.25 560.85 744.25 560.85
L 714.25 560.85
Q 699.25 560.85 699.25 545.85
L 699.25 515.8
Q 699.25 500.8 714.25 500.8 Z
M 481.95 302.95
L 511.95 302.95
Q 526.95 302.95 526.95 317.95
L 526.95 348
Q 526.95 363 511.95 363
L 481.95 363
Q 466.95 363 466.95 348
L 466.95 317.95
Q 466.95 302.95 481.95 302.95 Z
M 554.85 263.4
L 584.85 263.4
Q 599.85 263.4 599.85 278.4
L 599.85 308.45
Q 599.85 323.45 584.85 323.45
L 554.85 323.45
Q 539.85 323.45 539.85 308.45
L 539.85 278.4
Q 539.85 263.4 554.85 263.4 Z
M 554.85 343.4
L 584.85 343.4
Q 599.85 343.4 599.85 358.4
L 599.85 388.45
Q 599.85 402.6 586.55 403.4 585.7 403.45 584.85 403.45
L 554.85 403.45
Q 554 403.45 553.2 403.4 539.85 402.6 539.85 388.45
L 539.85 358.4
Q 539.85 343.4 554.85 343.4 Z"/>
</defs>

<g transform="matrix( 1, 0, 0, 1, 0,0) ">
<use xlink:href="#Layer0_0_FILL"/>

<use xlink:href="#Layer0_0_1_STROKES"/>

<use xlink:href="#Layer0_0_2_STROKES"/>
</g>
</svg>
