<svg xmlns="http://www.w3.org/2000/svg" xmlns:xlink="http://www.w3.org/1999/xlink" width="461.7" height="461.7" viewBox="0 0 461.7 461.7">
  <defs>
    <style>
      .cls-1, .cls-5, .cls-6 {
        fill: none;
      }

      .cls-2 {
        clip-path: url(#clip-path);
      }

      .cls-3 {
        fill: #fff;
      }

      .cls-4 {
        fill: #edc6c9;
      }

      .cls-5, .cls-6 {
        stroke: #c7235a;
        stroke-width: 3px;
      }

      .cls-6 {
        stroke-dasharray: 5 5;
      }
    </style>
    <clipPath id="clip-path" transform="translate(-1.3 -1.3)">
      <rect class="cls-1" width="464.4" height="464.34"/>
    </clipPath>
  </defs>
  <title>6_6_11_01</title>
  <g id="레이어_2" data-name="레이어 2">
    <g id="혼자서척척-1">
      <g class="cls-2">
        <path class="cls-3" d="M450.3,161.3A229.3,229.3,0,0,0,367,46.7L232.2,232.2Z" transform="translate(-1.3 -1.3)"/>
        <path class="cls-3" d="M232.2,232.2h0L367,46.7A228,228,0,0,0,232.2,2.8Z" transform="translate(-1.3 -1.3)"/>
        <path class="cls-4" d="M232.2,2.8A228.4,228.4,0,0,0,97.4,46.6L232.2,232.2Z" transform="translate(-1.3 -1.3)"/>
        <path class="cls-3" d="M367,417.7a229.7,229.7,0,0,0,83.3-114.6L232.2,232.2Z" transform="translate(-1.3 -1.3)"/>
        <path class="cls-3" d="M232.2,232.2h0V461.5A228.7,228.7,0,0,0,367,417.7Z" transform="translate(-1.3 -1.3)"/>
        <path class="cls-3" d="M450.3,161.3,232.2,232.2l218.1,70.9a230,230,0,0,0,0-141.8" transform="translate(-1.3 -1.3)"/>
        <path class="cls-3" d="M97.4,417.7a228.4,228.4,0,0,0,134.8,43.8V232.2Z" transform="translate(-1.3 -1.3)"/>
        <path class="cls-3" d="M232.2,232.2h0L14,303A229.7,229.7,0,0,0,97.4,417.7Z" transform="translate(-1.3 -1.3)"/>
        <path class="cls-4" d="M232.2,232.2h0L97.4,46.6A230.2,230.2,0,0,0,14,161.3Z" transform="translate(-1.3 -1.3)"/>
        <path class="cls-4" d="M14,161.3A229.7,229.7,0,0,0,14,303l218.2-70.8Z" transform="translate(-1.3 -1.3)"/>
        <path class="cls-5" d="M461.5,232.2c0,126.6-102.6,229.3-229.3,229.3S2.8,358.8,2.8,232.2,105.5,2.8,232.2,2.8,461.5,105.5,461.5,232.2Z" transform="translate(-1.3 -1.3)"/>
        <path class="cls-6" d="M367,46.6,97.4,417.7M450.3,161.3,14,303.1m436.3,0L14,161.3M367,417.7,97.4,46.6M232.2,461.5V2.8" transform="translate(-1.3 -1.3)"/>
      </g>
    </g>
  </g>
</svg>
