<svg xmlns="http://www.w3.org/2000/svg" viewBox="0 0 373.28 95.78"><defs><style>.cls-1{fill:#fff;}.cls-2,.cls-3,.cls-5,.cls-6{fill:none;}.cls-2,.cls-3{stroke:#00a0e9;}.cls-2{stroke-width:0.25px;}.cls-3{stroke-width:0.2px;}.cls-4{fill:#231815;}.cls-5,.cls-6{stroke:#e4007f;}.cls-5{stroke-linejoin:round;stroke-width:0.8px;}.cls-6{stroke-width:0.3px;}</style></defs><title>자산 2</title><g id="레이어_2" data-name="레이어 2"><g id="레이어_1-2" data-name="레이어 1"><path class="cls-1" d="M94.76,1.6A77.84,77.84,0,0,0,4.59,64.74L3.91,68.6l153.31,27,.68-3.86A77.84,77.84,0,0,0,94.76,1.6"/><path class="cls-2" d="M94.76,1.6A77.84,77.84,0,0,0,4.59,64.74L3.91,68.6l153.31,27,.68-3.86A77.84,77.84,0,0,0,94.76,1.6Z"/><path class="cls-3" d="M135,68.69,96.72,75.44M132.51,59.5,96.08,72.76m32.41-21.88L94.87,70.29M123,43.09l-29.74,25m23-31.68L91.39,66.07m17.12-35.16L89.12,64.5M99.9,26.89,86.63,63.32m4.08-38.89L81.23,78.16m0-54.56V62.29M71.76,24.43l6.72,38.14M62.57,26.89,75.83,63.34M54,30.91l19.39,33.6M46.16,36.37,71.06,66M39.44,43.1,69.11,68M34,50.88,67.56,70.27M30,59.5,66.38,72.75M27.5,68.69l53.73,9.47m76.68,13.61L148,90m10.1.41-6.94-1.1m7.14-.25-7-1m7.15-.36-7-.86m7.12-.49-7-.74m7.12-.62-8.89-.77m9-.58-7-.5m7.09-.86L152,82M159,81l-7-.25m7-1.12-7-.12m7-1.24h-10m10-1.34-7,.12m7-1.49-7,.25m7-1.6-7,.36m6.94-1.72-7,.49m6.9-1.84-8.89.77m8.76-2.13-7,.74m6.84-2.09-7,.86m6.8-2.21-7,1m6.75-2.32-6.94,1.1m6.72-2.44L148,66.48m9.63-3.07-6.9,1.34m6.63-2.67-6.88,1.45m6.58-2.78-6.85,1.58m6.53-2.9L150,61.12m6.47-3-8.61,2.3m8.25-3.61-6.75,1.93m6.37-3.24L149,57.56m6.31-3.35-6.69,2.16m6.25-3.46L148.2,55.2m6.19-3.57L145,55.06m8.94-4.69-6.57,2.51m6.06-3.78-6.51,2.63m6-3.88-6.47,2.74m5.93-4-6.42,2.85m5.86-4.09-8.1,3.78m7.51-5-6.32,3.08m5.71-4.3-6.26,3.19m5.64-4.4L143.77,45m5.56-4.49-6.15,3.4m5.48-4.58-8.68,5m8-6.18-6,3.62M147.26,37l-6,3.73m5.24-4.87-5.9,3.82m5.13-5L140,38.66m5.06-5-7.31,5.12m6.52-6.22-5.69,4.13m4.89-5.23-5.62,4.23m4.79-5.3-5.54,4.32m4.69-5.39-5.46,4.42m4.6-5.47-7.68,6.44m6.8-7.47-5.31,4.61m4.4-5.63-5.22,4.71m4.31-5.71L133,30m4.21-5.77-5.06,4.87m4.11-5.84L130,29.53m5.35-7.26-4.88,5.05m3.9-6-4.8,5.14m3.79-6.06-4.7,5.22m3.69-6.12-4.62,5.3m3.58-6.18-6.44,7.67m5.4-8.54-4.43,5.47m3.36-6.31-4.32,5.54m3.24-6.37-4.23,5.62M127,15.29,122.87,21m3-6.47-5.13,7.31m4-8.08-3.93,5.82M123.65,13l-3.83,5.89m2.68-6.62-3.73,5.95m2.57-6.67-3.63,6m2.45-6.71-5,8.67M119,10.18l-3.42,6.14m2.22-6.79-3.3,6.21m2.1-6.84-3.19,6.26m2-6.86-3.08,6.31m1.85-6.9-3.78,8.09m2.54-8.65-2.86,6.42m1.62-7-2.75,6.47m1.49-7-2.64,6.52m1.37-7-2.52,6.56m1.25-7-3.43,9.42m2.16-9.87-2.3,6.64m1-7.07-2.17,6.68M104,3.82,102,10.54m.76-7.11-1.95,6.76m.64-7.12-2.31,8.62m1-9-1.7,6.82m.38-7.14L97.18,9.26m.25-7.14L96,9m.13-7.14-1.34,6.9m0-7.15L93,11.47m.42-10.1-1.11,7m-.25-7.15-1,7M90.74,1l-.86,7M89.39.84l-.74,7M88,.71l-.79,8.9m-.57-9-.49,7M85.32.52l-.36,7M84,.47l-.24,7M82.61.43l-.13,7m-1.23-7v10M79.9.43l.11,7m-1.48-7,.25,7m-1.6-7,.37,7M75.83.6l.48,7M74.46.71l.78,8.9M73.12.84l.73,7M71.76,1l.86,7m-2.21-6.8,1,7M69.07,1.37l1.1,7M67.73,1.6l1.74,9.87M66.4,1.84l1.33,6.9M65.06,2.12,66.53,9M63.74,2.41l1.59,6.85M62.42,2.73l1.7,6.82m-3-6.49,2.3,8.63M59.8,3.43l1.93,6.76M58.49,3.82l2,6.72M57.19,4.22l2.18,6.69M55.9,4.66l2.3,6.64M54.63,5.11l3.42,9.42M53.36,5.58l2.51,6.57M52.09,6.08l2.63,6.52m-3.89-6,2.75,6.47m-4-5.93,2.86,6.43M48.36,7.71l3.76,8.09m-5-7.51,3.08,6.32M45.91,8.9l3.19,6.26M44.71,9.53l3.3,6.2m-4.5-5.55,3.41,6.15m-4.59-5.49,5,8.68m-6.18-8,3.62,6M40,12.24l3.73,6M38.86,13l3.82,5.89m-5-5.14,3.92,5.83m-5-5.06,5.12,7.32m-6.23-6.53L39.63,21m-5.22-4.88,4.22,5.61m-5.3-4.78,4.32,5.53m-5.38-4.69,4.41,5.46m-5.47-4.59,6.44,7.68M30.19,19.5l4.6,5.31M29.16,20.4l4.71,5.23m-5.71-4.31L33,26.46m-5.78-4.2,4.88,5.06m-5.85-4.11,6.31,6.32m-7.26-5.35,5,4.88m-6-3.89L29.46,30M23.4,26.17l5.23,4.7M22.5,27.19l5.3,4.61m-6.18-3.58,7.67,6.44m-8.53-5.4,5.46,4.43m-6.3-3.36,5.53,4.33m-6.36-3.25,5.6,4.23M18.28,32.5,24,36.63m-6.47-3,7.31,5.13m-8.08-4,5.82,3.93M16,35.86l5.89,3.83M15.24,37l6,3.72m-6.67-2.57,6,3.62m-6.71-2.44,8.68,5m-9.35-3.84,6.15,3.41m-6.8-2.21L18.73,45m-6.84-2.1,6.27,3.2m-6.87-2,6.31,3.08m-6.9-1.86,8.09,3.78m-8.65-2.54,6.42,2.86m-7-1.61,6.47,2.74m-7-1.49,6.51,2.64m-7-1.37,6.56,2.52m-7-1.25,9.42,3.43M7.65,52.9l6.65,2.3m-7.08-1,6.69,2.18m-7.1-.88,6.72,2.06m-7.1-.75,6.75,1.93m-7.12-.62,8.63,2.31m-9-1,6.82,1.7m-7.13-.38,6.84,1.59m-7.14-.26L12,63.53M4.84,63.4l6.9,1.34m-7.15,0,9.87,1.74m-1.08-.19A68.91,68.91,0,1,1,149.1,90.22M11.57,66A70.74,70.74,0,1,1,150.91,90.54"/><path class="cls-3" d="M28.87,68.93A53.17,53.17,0,0,1,133.59,87.39Zm36.81,6.49a15.79,15.79,0,0,1,31.1,5.48m37.36,1.89L96.93,79.53m37.26-6L97,76.78M132.61,64.4,96.43,74.09m33-18.39L95.56,71.49m29.21-23.82L94.13,69.13M118.8,40.6,92.36,67m19.35-32.4L90.3,65.22M103.7,30,87.9,63.86M95,26.8,85.32,62.9m.55-37.77L82.61,62.39m-6-37.27,3.25,37.23M67.46,26.77l9.67,36.09M58.77,30,74.56,63.86M50.76,34.65,72.19,65.24M43.65,40.58,70.05,67M37.68,47.67l30.6,21.42M33.05,55.69l33.87,15.8m-37-7.09L66,74.06m69,13.58L81.23,78.16m54.57,0H97.05"/><path class="cls-4" d="M91.05,16.43a1,1,0,0,0,.31-.59.93.93,0,0,0-.09-.65.65.65,0,0,0-.47-.33.64.64,0,0,0-.55.14,1,1,0,0,0-.31.59.9.9,0,0,0,.09.66.6.6,0,0,0,.47.33.61.61,0,0,0,.55-.15m.39-1.51a1.37,1.37,0,0,1,.26.68,3.58,3.58,0,0,1-.07.92,3.21,3.21,0,0,1-.31.95,1.39,1.39,0,0,1-.49.55.86.86,0,0,1-.64.12.84.84,0,0,1-.62-.41,1.2,1.2,0,0,1-.19-.72l.31.06a.86.86,0,0,0,.13.49.58.58,0,0,0,.43.28.51.51,0,0,0,.46-.09,1.32,1.32,0,0,0,.31-.38,1.26,1.26,0,0,0,.19-.47c0-.16.06-.28.08-.36a1.13,1.13,0,0,1-.41.29.82.82,0,0,1-.54,0,.89.89,0,0,1-.6-.49,1.32,1.32,0,0,1-.11-.86,1.26,1.26,0,0,1,.45-.75,1,1,0,0,1,1.36.16"/><path class="cls-4" d="M93.89,15.86a.64.64,0,0,0-.5-.52.61.61,0,0,0-.63.32,2.45,2.45,0,0,0-.39,1,2.41,2.41,0,0,0,0,1.08.62.62,0,0,0,.48.52.64.64,0,0,0,.65-.32,3,3,0,0,0,.37-2.1m-1.34-.47a.9.9,0,0,1,.89-.35.89.89,0,0,1,.73.64A2.6,2.6,0,0,1,94.23,17a2.54,2.54,0,0,1-.51,1.22.88.88,0,0,1-.9.36.89.89,0,0,1-.72-.64A2.6,2.6,0,0,1,92,16.62a2.57,2.57,0,0,1,.51-1.23"/><path class="cls-4" d="M16.34,65.86a.62.62,0,0,0-.52.5.62.62,0,0,0,.32.64,2.54,2.54,0,0,0,1,.38,2.64,2.64,0,0,0,1.09,0,.61.61,0,0,0,.51-.49.63.63,0,0,0-.31-.65,2.65,2.65,0,0,0-1-.37,2.6,2.6,0,0,0-1.08,0m-.47,1.35a.89.89,0,0,1-.35-.9.9.9,0,0,1,.64-.73,2.49,2.49,0,0,1,1.32,0,2.57,2.57,0,0,1,1.22.5.92.92,0,0,1-.28,1.62,2.63,2.63,0,0,1-1.33.06,2.68,2.68,0,0,1-1.22-.5"/><path class="cls-4" d="M26.52,70.88,24,70.43l-.11.63-.27,0a1.13,1.13,0,0,0,0-.26.66.66,0,0,0-.08-.25.51.51,0,0,0-.16-.17.57.57,0,0,0-.25-.11l0-.24,3.41.61Z"/><path class="cls-4" d="M25.56,67.94a.81.81,0,0,0-.31.54.83.83,0,0,0,.11.63.72.72,0,0,0,.47.3.71.71,0,0,0,.54-.13.91.91,0,0,0,.21-1.16.75.75,0,0,0-.47-.31.73.73,0,0,0-.55.13m-.73-.06a.57.57,0,0,0-.39-.25.6.6,0,0,0-.47.1.67.67,0,0,0-.27.48.69.69,0,0,0,.09.55.59.59,0,0,0,.4.25.58.58,0,0,0,.46-.1.67.67,0,0,0,.27-.49.69.69,0,0,0-.09-.54m.78-.31a.9.9,0,0,1,.56-.07,1,1,0,0,1,.66.44,1.13,1.13,0,0,1,.16.85,1.1,1.1,0,0,1-.44.74,1,1,0,0,1-.77.19.84.84,0,0,1-.5-.26A1.12,1.12,0,0,1,25,69a1.1,1.1,0,0,1-.37.25.76.76,0,0,1-.47.06.91.91,0,0,1-.61-.4,1,1,0,0,1-.15-.77,1,1,0,0,1,.4-.67,1,1,0,0,1,.71-.16.87.87,0,0,1,.43.21,1.07,1.07,0,0,1,.25.36,1.18,1.18,0,0,1,.43-.32"/><path class="cls-4" d="M24.7,65.16a.59.59,0,0,0-.52.49.62.62,0,0,0,.32.64,2.4,2.4,0,0,0,1,.38,2.64,2.64,0,0,0,1.09,0,.6.6,0,0,0,.2-1.13,2.5,2.5,0,0,0-1-.38,2.43,2.43,0,0,0-1.08,0m-.47,1.34a.88.88,0,0,1-.35-.9.9.9,0,0,1,.64-.73,3.12,3.12,0,0,1,2.54.45A.93.93,0,0,1,26.78,67a2.64,2.64,0,0,1-1.33,0,2.68,2.68,0,0,1-1.22-.5"/><path class="cls-4" d="M21.22,57.85,18.8,57l-.22.59-.25-.09a1.23,1.23,0,0,0,.05-.25.82.82,0,0,0,0-.26.8.8,0,0,0-.13-.21A.76.76,0,0,0,18,56.6l.08-.22,3.26,1.19Z"/><path class="cls-4" d="M19.54,54.3a.62.62,0,0,0-.6.4.63.63,0,0,0,.21.68,2.89,2.89,0,0,0,2,.72.62.62,0,0,0,.6-.38.64.64,0,0,0-.21-.7,2.43,2.43,0,0,0-.93-.54,2.43,2.43,0,0,0-1.07-.18m-.69,1.24A.93.93,0,0,1,19.41,54a2.56,2.56,0,0,1,1.32.17,2.54,2.54,0,0,1,1.11.71.93.93,0,0,1-.56,1.55A2.63,2.63,0,0,1,20,56.24a2.51,2.51,0,0,1-1.12-.7"/><path class="cls-4" d="M28.46,61.66,26,60.78l-.21.59-.26-.09a.79.79,0,0,0,.05-.25.61.61,0,0,0,0-.26.41.41,0,0,0-.13-.2.63.63,0,0,0-.23-.16l.09-.22,3.25,1.19Z"/><path class="cls-4" d="M26.56,57.77a7.7,7.7,0,0,0,1.87,1.84,4.18,4.18,0,0,0,.67.36l-.13.35a5.54,5.54,0,0,1-.6-.34,5.2,5.2,0,0,1-.79-.62,9.79,9.79,0,0,1-.69-.73q-.34-.39-.45-.54l-.6,1.64-.28-.1.71-2Z"/><path class="cls-4" d="M27.54,56a.62.62,0,0,0-.6.4.62.62,0,0,0,.21.68,2.57,2.57,0,0,0,.93.55,2.43,2.43,0,0,0,1.07.18.62.62,0,0,0,.59-.39.61.61,0,0,0-.2-.69,2.57,2.57,0,0,0-.93-.55A2.43,2.43,0,0,0,27.54,56m-.69,1.24a.88.88,0,0,1-.19-.94.89.89,0,0,1,.75-.61,2.52,2.52,0,0,1,1.31.17,2.61,2.61,0,0,1,1.12.71.93.93,0,0,1-.56,1.55A2.51,2.51,0,0,1,28,58a2.61,2.61,0,0,1-1.12-.71"/><path class="cls-4" d="M25.22,48.6a2.59,2.59,0,0,1-.51-.43,1.55,1.55,0,0,1-.31-.83l-.09-.65a2.55,2.55,0,0,0-.12-.44.75.75,0,0,0-.3-.34.74.74,0,0,0-.53-.11.65.65,0,0,0-.43.34.55.55,0,0,0-.06.55.88.88,0,0,0,.38.41l-.15.25a1.12,1.12,0,0,1-.51-.58.86.86,0,0,1,.08-.8,1,1,0,0,1,.63-.49,1.06,1.06,0,0,1,.75.15,1,1,0,0,1,.44.51,4,4,0,0,1,.14.57l.08.64a1.41,1.41,0,0,0,.15.45,1.14,1.14,0,0,0,.3.35L26,46.7l.24.14Z"/><path class="cls-4" d="M24.87,43.67a.6.6,0,0,0-.57,1,2.53,2.53,0,0,0,.82.7,2.33,2.33,0,0,0,1,.36.6.6,0,0,0,.65-.28.61.61,0,0,0-.07-.71,3,3,0,0,0-1.85-1.07M24,44.77a.88.88,0,0,1,0-1,.91.91,0,0,1,.85-.47,2.57,2.57,0,0,1,1.26.4,2.68,2.68,0,0,1,1,.89.9.9,0,0,1,0,1,.89.89,0,0,1-.85.46,2.49,2.49,0,0,1-1.26-.4,2.57,2.57,0,0,1-1-.89"/><path class="cls-4" d="M32.14,52.88l-2.23-1.29-.31.55L29.36,52a1.17,1.17,0,0,0,.09-.24.75.75,0,0,0,0-.26.55.55,0,0,0-.09-.23.91.91,0,0,0-.2-.19l.12-.2,3,1.73Z"/><path class="cls-4" d="M32,49.71a.66.66,0,0,0-.48.33.61.61,0,0,0,0,.57,1.07,1.07,0,0,0,1.09.63.61.61,0,0,0,.47-.32.66.66,0,0,0,.05-.58A1.07,1.07,0,0,0,32,49.71m0-.32a1.28,1.28,0,0,1,.84.2,1.23,1.23,0,0,1,.56.68,1,1,0,0,1-.08.79.88.88,0,0,1-.54.43,1.33,1.33,0,0,1-.74,0,3.68,3.68,0,0,1-1.6-1,1.43,1.43,0,0,1-.36-.64.94.94,0,0,1,.11-.65.85.85,0,0,1,.6-.45,1.36,1.36,0,0,1,.73.07l-.16.27a1,1,0,0,0-.5-.05.6.6,0,0,0-.41.31.55.55,0,0,0-.07.47,1.46,1.46,0,0,0,.25.43,1.91,1.91,0,0,0,.37.33,2,2,0,0,0,.3.19.91.91,0,0,1-.13-.48.85.85,0,0,1,.16-.51,1,1,0,0,1,.67-.4"/><path class="cls-4" d="M32.37,46.91a.61.61,0,0,0-.58,1,2.42,2.42,0,0,0,.82.7,2.32,2.32,0,0,0,1,.36.6.6,0,0,0,.57-1,2.42,2.42,0,0,0-.82-.7,2.54,2.54,0,0,0-1-.37m-.9,1.1a.88.88,0,0,1,0-1,.91.91,0,0,1,.85-.47,2.67,2.67,0,0,1,1.26.4,2.62,2.62,0,0,1,1,.9.92.92,0,0,1-.82,1.42A3,3,0,0,1,31.47,48"/><path class="cls-4" d="M31.26,36.91a.9.9,0,0,1,.51.22,1,1,0,0,1,.38.7,1.09,1.09,0,0,1-1,1.16,1.06,1.06,0,0,1-.79-.27l.19-.23a.85.85,0,0,0,.54.2.69.69,0,0,0,.57-.28.7.7,0,0,0,.17-.54.74.74,0,0,0-.27-.5.62.62,0,0,0-.46-.16.69.69,0,0,0-.38.13.75.75,0,0,0-.16.15l-.14.16-.24-.19c.05-.05.09-.11.14-.17a.77.77,0,0,0,.11-.19.71.71,0,0,0,0-.38.69.69,0,0,0-.22-.33.58.58,0,0,0-.46-.16.63.63,0,0,0-.45.24.57.57,0,0,0-.15.52.74.74,0,0,0,.24.41l-.18.23a.9.9,0,0,1-.36-.65.91.91,0,0,1,.23-.71.95.95,0,0,1,1.33-.13.82.82,0,0,1,.31.46,1,1,0,0,1,0,.38,1.09,1.09,0,0,1,.51-.07"/><path class="cls-4" d="M31.71,34.33a.61.61,0,0,0-.69.18.59.59,0,0,0,0,.7,2.45,2.45,0,0,0,.68.84,2.41,2.41,0,0,0,.95.53.6.6,0,0,0,.69-.16.64.64,0,0,0,.05-.72,2.69,2.69,0,0,0-.69-.83,2.58,2.58,0,0,0-.95-.54m-1.07.93a.88.88,0,0,1,.14-.95A.91.91,0,0,1,31.7,34a2.55,2.55,0,0,1,1.17.61,2.64,2.64,0,0,1,.81,1,.93.93,0,0,1-1.06,1.26,2.55,2.55,0,0,1-1.17-.61,2.62,2.62,0,0,1-.81-1.05"/><path class="cls-4" d="M37.26,44.68l-2-1.65-.41.49-.21-.18a.71.71,0,0,0,.13-.22.53.53,0,0,0,.05-.26.4.4,0,0,0-.05-.23.57.57,0,0,0-.16-.22l.15-.18,2.66,2.23Z"/><path class="cls-4" d="M37.58,41.26a1.15,1.15,0,0,1,.85.35,1.2,1.2,0,0,1,.45.81,1,1,0,0,1-.22.73.91.91,0,0,1-.69.36,1.14,1.14,0,0,1-.72-.18l.2-.24a.77.77,0,0,0,.47.13.62.62,0,0,0,.5-.25.65.65,0,0,0,.15-.56,1.13,1.13,0,0,0-.33-.55,1,1,0,0,0-.62-.28.71.71,0,0,0-.73.63.84.84,0,0,0,0,.37l-.18.2-1.24-1.32,1.06-1.26.22.19-.89,1.06.74.79a.71.71,0,0,1,.06-.38,1.1,1.1,0,0,1,.21-.33,1,1,0,0,1,.67-.27"/><path class="cls-4" d="M38.49,38.88a.64.64,0,0,0-.7.17.61.61,0,0,0,0,.71,2.46,2.46,0,0,0,.69.84,2.51,2.51,0,0,0,.94.53.6.6,0,0,0,.74-.88,2.56,2.56,0,0,0-.69-.83,2.48,2.48,0,0,0-.94-.54m-1.08.93a.92.92,0,0,1,.14-1,.91.91,0,0,1,.92-.31,2.66,2.66,0,0,1,1.18.62,2.59,2.59,0,0,1,.8,1,.93.93,0,0,1-1.06,1.27,2.65,2.65,0,0,1-1.17-.61,2.71,2.71,0,0,1-.81-1"/><path class="cls-4" d="M37.7,28.25l.36,2.3.92-.77Zm1.68,1.56.43.51-.22.19L39.16,30,38,31l-.23-.27-.43-2.83.23-.19,1.62,1.93.38-.32.18.22Z"/><path class="cls-4" d="M39.91,26.59a.64.64,0,0,0-.72.05.62.62,0,0,0-.16.69A2.86,2.86,0,0,0,40.4,29a.61.61,0,0,0,.71,0,.63.63,0,0,0,.17-.7,2.48,2.48,0,0,0-.54-.94,2.56,2.56,0,0,0-.83-.69m-1.22.73a.9.9,0,0,1,.3-.91.89.89,0,0,1,1-.15,2.49,2.49,0,0,1,1,.81,2.55,2.55,0,0,1,.61,1.17.92.92,0,0,1-1.26,1.06,2.71,2.71,0,0,1-1.05-.81,2.65,2.65,0,0,1-.61-1.17"/><path class="cls-4" d="M43.57,37.75l-1.65-2-.49.4L41.26,36a1,1,0,0,0,.17-.19.75.75,0,0,0,.09-.24.5.5,0,0,0,0-.24.64.64,0,0,0-.12-.25l.18-.15,2.23,2.66Z"/><path class="cls-4" d="M43.58,33.91l.36,2.3.92-.78Zm1.68,1.55.43.51-.22.19L45,35.65l-1.15,1-.23-.28-.43-2.83.23-.19,1.62,1.93.38-.31.18.21Z"/><path class="cls-4" d="M45.79,32.25a.6.6,0,0,0-.88.73,2.54,2.54,0,0,0,.53,1,2.46,2.46,0,0,0,.84.69.62.62,0,0,0,.71,0,.64.64,0,0,0,.17-.7,2.41,2.41,0,0,0-.54-.94,2.44,2.44,0,0,0-.83-.69M44.57,33a.93.93,0,0,1,1.26-1.06,2.58,2.58,0,0,1,1.05.81,2.55,2.55,0,0,1,.61,1.17A.92.92,0,0,1,46.23,35a2.59,2.59,0,0,1-1-.8A2.73,2.73,0,0,1,44.57,33"/><path class="cls-4" d="M47.81,22a1.14,1.14,0,0,1,.68.61,1.16,1.16,0,0,1,.14.92,1,1,0,0,1-.45.61.93.93,0,0,1-.77.11,1.23,1.23,0,0,1-.62-.42l.27-.16a.71.71,0,0,0,.4.28.68.68,0,0,0,.88-.54,1,1,0,0,0-.12-.62.92.92,0,0,0-.49-.48.63.63,0,0,0-.57,0,.66.66,0,0,0-.33.33,1.18,1.18,0,0,0-.09.36l-.23.13-.71-1.67,1.42-.82.14.25-1.2.7.43,1a.79.79,0,0,1,.19-.33,1.18,1.18,0,0,1,.31-.24,1,1,0,0,1,.72,0"/><path class="cls-4" d="M49.47,20.07a.6.6,0,0,0-1,.57,2.36,2.36,0,0,0,.36,1,2.42,2.42,0,0,0,.7.82.61.61,0,0,0,.71.08.62.62,0,0,0,.29-.66,2.67,2.67,0,0,0-.36-1,2.55,2.55,0,0,0-.71-.82m-1.32.5a.86.86,0,0,1,.45-.84.89.89,0,0,1,1,0,2.53,2.53,0,0,1,.89,1,2.67,2.67,0,0,1,.4,1.26.91.91,0,0,1-.47.85.88.88,0,0,1-1,0,2.56,2.56,0,0,1-.89-1,2.53,2.53,0,0,1-.4-1.27"/><path class="cls-4" d="M51.14,31.69l-1.28-2.23-.55.32-.14-.24a.78.78,0,0,0,.2-.16.6.6,0,0,0,.14-.22.88.88,0,0,0,0-.24.61.61,0,0,0-.08-.26l.21-.12,1.73,3Z"/><path class="cls-4" d="M53,28.92a.92.92,0,0,1,.4.38,1,1,0,0,1,.12.79,1.12,1.12,0,0,1-1.34.75,1.08,1.08,0,0,1-.65-.52l.26-.15a.85.85,0,0,0,.44.37.7.7,0,0,0,.63-.08.65.65,0,0,0,.34-.44.73.73,0,0,0-.08-.56.65.65,0,0,0-.37-.31.82.82,0,0,0-.41,0,.88.88,0,0,0-.2.09,1.09,1.09,0,0,0-.19.1l-.15-.26L52,29a.63.63,0,0,0,.17-.14.83.83,0,0,0,.15-.35.7.7,0,0,0-.09-.39.64.64,0,0,0-.38-.31.6.6,0,0,0-.5.08.56.56,0,0,0-.33.43.77.77,0,0,0,.09.48l-.25.14a.92.92,0,0,1,.35-1.32,1,1,0,0,1,1.29.33.83.83,0,0,1,.13.54.85.85,0,0,1-.12.37,1.16,1.16,0,0,1,.51.1"/><path class="cls-4" d="M54.28,26.66a.61.61,0,0,0-.71-.08.6.6,0,0,0-.28.65,2.29,2.29,0,0,0,.36,1,2.37,2.37,0,0,0,.7.83.61.61,0,0,0,1-.58,2.62,2.62,0,0,0-.36-1,2.55,2.55,0,0,0-.71-.82m-1.32.5a.89.89,0,0,1,.45-.85.92.92,0,0,1,1,0,2.57,2.57,0,0,1,.89,1,2.74,2.74,0,0,1,.4,1.26.92.92,0,0,1-.47.86.88.88,0,0,1-1,0,2.53,2.53,0,0,1-.89-1,2.47,2.47,0,0,1-.4-1.26"/><path class="cls-4" d="M58.05,17.39a.69.69,0,0,0-.58-.05.65.65,0,0,0-.4.41,1.08,1.08,0,0,0,0,.66,1.06,1.06,0,0,0,.41.53.64.64,0,0,0,.57,0,.63.63,0,0,0,.4-.41,1.08,1.08,0,0,0-.43-1.19m.2-.25a1.29,1.29,0,0,1,.51.69,1.21,1.21,0,0,1,0,.88,1,1,0,0,1-.58.55.91.91,0,0,1-.69,0,1.53,1.53,0,0,1-.57-.48,3.72,3.72,0,0,1-.39-.82,3.17,3.17,0,0,1-.2-1,1.49,1.49,0,0,1,.15-.73.89.89,0,0,1,.5-.43.84.84,0,0,1,.74.05,1.21,1.21,0,0,1,.51.52l-.28.1a1,1,0,0,0-.36-.35.57.57,0,0,0-.51,0,.55.55,0,0,0-.36.32,1.42,1.42,0,0,0-.08.48,1.53,1.53,0,0,0,.07.49c0,.15.07.26.1.34A.94.94,0,0,1,57,17.3a.8.8,0,0,1,.46-.28.88.88,0,0,1,.77.12"/><path class="cls-4" d="M60.13,15.49a.6.6,0,0,0-1.08.39A2.43,2.43,0,0,0,59.23,17a2.57,2.57,0,0,0,.55.93.62.62,0,0,0,.68.21.62.62,0,0,0,.4-.6,2.45,2.45,0,0,0-.18-1.07,2.57,2.57,0,0,0-.55-.93m-1.39.27a.93.93,0,0,1,1.55-.57A2.67,2.67,0,0,1,61,16.31a2.51,2.51,0,0,1,.17,1.31.9.9,0,0,1-.6.76.89.89,0,0,1-1-.2,2.63,2.63,0,0,1-.71-1.11,2.54,2.54,0,0,1-.17-1.31"/><path class="cls-4" d="M59.78,27.22,58.9,24.8l-.6.21-.09-.25a1.14,1.14,0,0,0,.22-.12.7.7,0,0,0,.18-.2.52.52,0,0,0,.07-.23.63.63,0,0,0,0-.27l.22-.08,1.19,3.26Z"/><path class="cls-4" d="M60.76,26.83a2.28,2.28,0,0,1-.11-.66,1.53,1.53,0,0,1,.29-.83l.35-.56a2.5,2.5,0,0,0,.19-.41.8.8,0,0,0-.34-.88.66.66,0,0,0-.55,0,.58.58,0,0,0-.4.39.9.9,0,0,0,0,.56l-.27.1a1.16,1.16,0,0,1,0-.78.86.86,0,0,1,.57-.56.92.92,0,0,1,.8,0,1,1,0,0,1,.48.59,1,1,0,0,1,0,.67,2.9,2.9,0,0,1-.26.53l-.35.54A1.49,1.49,0,0,0,61,26a1.19,1.19,0,0,0,0,.46l1.58-.57.09.26Z"/><path class="cls-4" d="M63.66,22.83a.6.6,0,0,0-1.08.4,2.45,2.45,0,0,0,.18,1.07,2.57,2.57,0,0,0,.55.93.61.61,0,0,0,.68.2.6.6,0,0,0,.4-.59,2.43,2.43,0,0,0-.18-1.07,2.71,2.71,0,0,0-.55-.94m-1.39.27a.88.88,0,0,1,.6-.75.89.89,0,0,1,1,.19A3,3,0,0,1,64.7,25a.88.88,0,0,1-.6.76.89.89,0,0,1-.95-.19,2.67,2.67,0,0,1-.71-1.12,2.52,2.52,0,0,1-.17-1.31"/><path class="cls-4" d="M69.44,12.9c-.06.11-.14.32-.27.64a8.62,8.62,0,0,0-.27.92,6.71,6.71,0,0,0-.15,1,3.44,3.44,0,0,0,0,.75l-.37.07a4,4,0,0,1,0-.7,5.32,5.32,0,0,1,.15-1,9.58,9.58,0,0,1,.3-1c.12-.33.2-.55.25-.66l-1.72.28,0-.3,2.06-.33Z"/><path class="cls-4" d="M71.44,12.9a.63.63,0,0,0-.64-.33.62.62,0,0,0-.5.52,2.57,2.57,0,0,0,0,1.08,2.5,2.5,0,0,0,.37,1,.6.6,0,0,0,.63.32.62.62,0,0,0,.5-.51,2.41,2.41,0,0,0,0-1.08,2.65,2.65,0,0,0-.36-1M70,12.9a.89.89,0,0,1,.73-.63.9.9,0,0,1,.9.37,2.63,2.63,0,0,1,.49,1.22,2.57,2.57,0,0,1-.08,1.32.92.92,0,0,1-1.62.27A2.47,2.47,0,0,1,70,14.22,2.48,2.48,0,0,1,70,12.9"/><path class="cls-4" d="M69.39,24.28,69,21.74l-.62.11,0-.28a.84.84,0,0,0,.24-.07.65.65,0,0,0,.21-.16.66.66,0,0,0,.12-.22.78.78,0,0,0,0-.27l.23,0,.56,3.42Z"/><path class="cls-4" d="M71.11,24l-.42-2.54-.62.1,0-.27a.62.62,0,0,0,.24-.08.54.54,0,0,0,.21-.16.53.53,0,0,0,.12-.21.82.82,0,0,0,0-.27l.23,0L71.4,24Z"/><path class="cls-4" d="M73.38,20.8a.62.62,0,0,0-.64-.33.62.62,0,0,0-.49.51,2.44,2.44,0,0,0,0,1.09,2.65,2.65,0,0,0,.37,1,.61.61,0,0,0,1.14-.19,2.57,2.57,0,0,0,0-1.08,2.45,2.45,0,0,0-.37-1M72,20.8a.9.9,0,0,1,.73-.63.92.92,0,0,1,.9.36,2.61,2.61,0,0,1,.49,1.23A2.58,2.58,0,0,1,74,23.08a.9.9,0,0,1-.74.64.92.92,0,0,1-.89-.37,2.67,2.67,0,0,1-.49-1.23A2.7,2.7,0,0,1,72,20.8"/><path class="cls-4" d="M80.59,13.33a.93.93,0,0,0-1.19,0,.67.67,0,0,0-.22.51.69.69,0,0,0,.21.52.81.81,0,0,0,.59.22.83.83,0,0,0,.6-.21.75.75,0,0,0,.22-.51.72.72,0,0,0-.21-.52m-.06-.73a.64.64,0,0,0,.18-.43.6.6,0,0,0-.18-.44.84.84,0,0,0-1,0,.61.61,0,0,0-.17.43.63.63,0,0,0,.16.44.71.71,0,0,0,.53.18.68.68,0,0,0,.53-.17m.43.72a1,1,0,0,1,.16.54,1,1,0,0,1-.33.72,1.16,1.16,0,0,1-.81.3,1.13,1.13,0,0,1-.8-.32,1,1,0,0,1-.32-.73A.88.88,0,0,1,79,13.3a1.16,1.16,0,0,1,.4-.37,1.06,1.06,0,0,1-.31-.32.87.87,0,0,1-.13-.45,1,1,0,0,1,.29-.67,1.09,1.09,0,0,1,1.46,0,.91.91,0,0,1,.28.67.85.85,0,0,1-.13.45.94.94,0,0,1-.32.31,1.28,1.28,0,0,1,.39.38"/><path class="cls-4" d="M83.19,12a.63.63,0,0,0-.58-.43A.62.62,0,0,0,82,12a2.35,2.35,0,0,0-.21,1.06A2.28,2.28,0,0,0,82,14.14a.59.59,0,0,0,.56.43.63.63,0,0,0,.59-.42,2.5,2.5,0,0,0,.2-1.06A2.45,2.45,0,0,0,83.19,12m-1.4-.24a.92.92,0,0,1,1.65,0,2.52,2.52,0,0,1,.27,1.29,2.56,2.56,0,0,1-.3,1.29.9.9,0,0,1-.83.5.91.91,0,0,1-.82-.52,2.62,2.62,0,0,1-.27-1.29,2.59,2.59,0,0,1,.3-1.29"/><path class="cls-4" d="M78.55,22.87l0-2.57H78V20a.66.66,0,0,0,.25,0,.68.68,0,0,0,.24-.12.59.59,0,0,0,.14-.19.48.48,0,0,0,.07-.26h.24l0,3.47Z"/><path class="cls-4" d="M81.35,20.11a.63.63,0,0,0-.58-.43.62.62,0,0,0-.57.42A2.35,2.35,0,0,0,80,21.16a2.42,2.42,0,0,0,.18,1.07.6.6,0,0,0,1.15,0,2.5,2.5,0,0,0,.21-1.06,2.78,2.78,0,0,0-.18-1.07M80,19.87a.91.91,0,0,1,.82-.5.92.92,0,0,1,.83.52,2.74,2.74,0,0,1,.27,1.29,2.67,2.67,0,0,1-.3,1.29.92.92,0,0,1-1.65,0,2.52,2.52,0,0,1-.27-1.29,2.49,2.49,0,0,1,.3-1.29"/><path class="cls-4" d="M84,20.14a.62.62,0,0,0-.57-.43.64.64,0,0,0-.58.42,2.66,2.66,0,0,0-.21,1.06,2.59,2.59,0,0,0,.19,1.07.6.6,0,0,0,1.15,0,2.66,2.66,0,0,0,.21-1.06A2.59,2.59,0,0,0,84,20.14m-1.4-.24a.92.92,0,0,1,.83-.5.9.9,0,0,1,.82.52,2.49,2.49,0,0,1,.27,1.29,2.59,2.59,0,0,1-.29,1.29.92.92,0,0,1-1.65,0,2.52,2.52,0,0,1-.27-1.29,2.57,2.57,0,0,1,.29-1.29"/><path class="cls-4" d="M100.66,17.74l.91-2.41-.59-.22.1-.26a.74.74,0,0,0,.25.05.6.6,0,0,0,.26,0,.49.49,0,0,0,.2-.13.69.69,0,0,0,.16-.22l.22.08-1.23,3.24Z"/><path class="cls-4" d="M104.23,16.11a.62.62,0,0,0-.39-.6.61.61,0,0,0-.68.19,2.59,2.59,0,0,0-.57.93,2.56,2.56,0,0,0-.19,1.06.61.61,0,0,0,.38.6.64.64,0,0,0,.7-.19,2.68,2.68,0,0,0,.56-.92,2.63,2.63,0,0,0,.19-1.07M103,15.4a.89.89,0,0,1,1-.18.92.92,0,0,1,.6.77,2.57,2.57,0,0,1-.2,1.31,2.57,2.57,0,0,1-.72,1.1.91.91,0,0,1-1,.18.89.89,0,0,1-.58-.77,2.51,2.51,0,0,1,.19-1.3A2.58,2.58,0,0,1,103,15.4"/><path class="cls-4" d="M106.75,17.07a.62.62,0,0,0-.39-.6.61.61,0,0,0-.68.19,2.51,2.51,0,0,0-.57.93,2.56,2.56,0,0,0-.19,1.06.62.62,0,0,0,.38.6.64.64,0,0,0,.7-.19,2.5,2.5,0,0,0,.56-.93,2.41,2.41,0,0,0,.19-1.06m-1.23-.71a.89.89,0,0,1,1-.18.92.92,0,0,1,.6.77,2.53,2.53,0,0,1-.2,1.3,2.55,2.55,0,0,1-.72,1.11.9.9,0,0,1-1,.18.89.89,0,0,1-.58-.77,2.51,2.51,0,0,1,.19-1.3,2.67,2.67,0,0,1,.72-1.11"/><path class="cls-4" d="M100.1,24.64A1,1,0,0,0,99,24.22a.69.69,0,0,0-.39.41.7.7,0,0,0,0,.55.78.78,0,0,0,.48.42.81.81,0,0,0,.63,0,.74.74,0,0,0,.37-1m.19-.7a.61.61,0,0,0,.32-.35.59.59,0,0,0,0-.47.67.67,0,0,0-.42-.36.68.68,0,0,0-.56,0,.61.61,0,0,0-.32.35.57.57,0,0,0,0,.46.67.67,0,0,0,.43.36.71.71,0,0,0,.55,0m.16.82a1,1,0,0,1-.6,1.13,1.16,1.16,0,0,1-.86,0,1.15,1.15,0,0,1-.64-.58,1,1,0,0,1,0-.79.84.84,0,0,1,.34-.44,1.19,1.19,0,0,1,.5-.21,1.13,1.13,0,0,1-.18-.4A.79.79,0,0,1,99,23a.88.88,0,0,1,.5-.52,1.09,1.09,0,0,1,1.36.52.86.86,0,0,1,0,.72.78.78,0,0,1-.28.38.88.88,0,0,1-.41.18,1.32,1.32,0,0,1,.24.49"/><path class="cls-4" d="M103,24.31a.6.6,0,0,0-1.07-.4,2.34,2.34,0,0,0-.57.92,2.43,2.43,0,0,0-.19,1.07.6.6,0,0,0,1.07.41,3.06,3.06,0,0,0,.76-2m-1.23-.7a.91.91,0,0,1,.95-.19.89.89,0,0,1,.59.77,2.55,2.55,0,0,1-.19,1.31,2.66,2.66,0,0,1-.73,1.11.88.88,0,0,1-.95.17.9.9,0,0,1-.59-.76,2.57,2.57,0,0,1,.2-1.31,2.46,2.46,0,0,1,.72-1.1"/><path class="cls-4" d="M111,22.3l1.26-2.24-.56-.31.14-.24a1.17,1.17,0,0,0,.24.09.75.75,0,0,0,.26,0,.51.51,0,0,0,.22-.09.61.61,0,0,0,.19-.2l.2.11-1.69,3Z"/><path class="cls-4" d="M112.48,23.15l1.26-2.24-.55-.31.13-.24.24.09a.57.57,0,0,0,.26,0,.51.51,0,0,0,.22-.09.61.61,0,0,0,.19-.2l.2.11-1.69,3Z"/><path class="cls-4" d="M116.25,22.07a.62.62,0,0,0-.3-.66.61.61,0,0,0-.7.1,2.35,2.35,0,0,0-.69.83,2.43,2.43,0,0,0-.35,1,.59.59,0,0,0,.29.64.61.61,0,0,0,.71-.08,2.61,2.61,0,0,0,.69-.84,2.43,2.43,0,0,0,.35-1m-1.11-.88a.88.88,0,0,1,1,0,.9.9,0,0,1,.48.84,3.06,3.06,0,0,1-1.26,2.26.9.9,0,0,1-1,0,.89.89,0,0,1-.47-.84,2.69,2.69,0,0,1,.38-1.27,2.59,2.59,0,0,1,.88-1"/><path class="cls-4" d="M110.17,27.58l-.6.34a6.87,6.87,0,0,0-.79.55,5.76,5.76,0,0,0-.72.66,3.44,3.44,0,0,0-.46.6l-.33-.18a6.52,6.52,0,0,1,.43-.54,4.9,4.9,0,0,1,.74-.67c.26-.19.53-.39.83-.57l.61-.36-1.52-.85.14-.26,1.82,1Z"/><path class="cls-4" d="M111.73,28.83a.6.6,0,0,0-.3-.65.62.62,0,0,0-.7.09,2.44,2.44,0,0,0-.69.83,2.52,2.52,0,0,0-.35,1,.61.61,0,0,0,.29.65.62.62,0,0,0,.71-.09,2.56,2.56,0,0,0,.69-.83,2.47,2.47,0,0,0,.35-1M110.62,28a.9.9,0,0,1,1,0,.91.91,0,0,1,.48.85,2.66,2.66,0,0,1-.38,1.26,2.62,2.62,0,0,1-.88,1,.88.88,0,0,1-1,0,.91.91,0,0,1-.47-.85,2.69,2.69,0,0,1,.38-1.26,2.62,2.62,0,0,1,.88-1"/><path class="cls-4" d="M120.24,28.2l1.68-2-.48-.41.18-.21a.85.85,0,0,0,.21.14.71.71,0,0,0,.26,0,.49.49,0,0,0,.23,0,.73.73,0,0,0,.23-.16l.18.15-2.26,2.63Z"/><path class="cls-4" d="M121.06,28.86a2.14,2.14,0,0,1,.52-.41,1.46,1.46,0,0,1,.87-.16l.66,0a2.15,2.15,0,0,0,.45,0,.73.73,0,0,0,.39-.23.75.75,0,0,0,.2-.49.61.61,0,0,0-.25-.49.59.59,0,0,0-.53-.16.92.92,0,0,0-.48.29l-.22-.19a1.17,1.17,0,0,1,.67-.39.86.86,0,0,1,.77.23.9.9,0,0,1,.36.71,1,1,0,0,1-.28.7,1,1,0,0,1-.58.34,3,3,0,0,1-.59,0l-.64,0a1.55,1.55,0,0,0-.48.07,1.09,1.09,0,0,0-.39.23L122.78,30l-.18.21Z"/><path class="cls-4" d="M126,29.43a.61.61,0,0,0-.88-.75,3,3,0,0,0-1.39,1.62.61.61,0,0,0,.88.75A3,3,0,0,0,126,29.43m-.92-1.08a.9.9,0,0,1,1,.15.89.89,0,0,1,.3.92,2.51,2.51,0,0,1-.63,1.17,2.55,2.55,0,0,1-1,.79.92.92,0,0,1-1.25-1.07,2.58,2.58,0,0,1,.62-1.17,2.67,2.67,0,0,1,1.06-.79"/><path class="cls-4" d="M117.39,34.18a.65.65,0,0,0-.24-.53.64.64,0,0,0-.55-.14,1.11,1.11,0,0,0-.82,1A.63.63,0,0,0,116,35a.63.63,0,0,0,.56.15,1,1,0,0,0,.57-.34,1,1,0,0,0,.25-.62m.32,0a1.27,1.27,0,0,1-.35.78,1.24,1.24,0,0,1-.77.43.91.91,0,0,1-.76-.23.87.87,0,0,1-.33-.61,1.38,1.38,0,0,1,.14-.73,3.17,3.17,0,0,1,.52-.74,3.21,3.21,0,0,1,.74-.64,1.5,1.5,0,0,1,.71-.24,1,1,0,0,1,.61.23.84.84,0,0,1,.33.67,1.23,1.23,0,0,1-.21.7l-.22-.19a1.15,1.15,0,0,0,.13-.49.59.59,0,0,0-.23-.46.54.54,0,0,0-.45-.16,1.43,1.43,0,0,0-.46.17,1.55,1.55,0,0,0-.4.3,2.41,2.41,0,0,0-.24.26,1,1,0,0,1,.5,0,.83.83,0,0,1,.47.26.89.89,0,0,1,.27.73"/><path class="cls-4" d="M120.07,35.06a.6.6,0,0,0-.87-.75,2.57,2.57,0,0,0-.85.68,2.48,2.48,0,0,0-.54.94.6.6,0,0,0,.87.75,2.57,2.57,0,0,0,.85-.68,2.48,2.48,0,0,0,.54-.94M119.16,34a.92.92,0,0,1,1.25,1.07,2.71,2.71,0,0,1-.63,1.17,2.51,2.51,0,0,1-1.06.79.88.88,0,0,1-1-.15.9.9,0,0,1-.3-.92,2.71,2.71,0,0,1,.63-1.17,2.6,2.6,0,0,1,1.06-.79"/><path class="cls-4" d="M128.34,35.53l2-1.62-.4-.5.21-.17a.75.75,0,0,0,.19.17.58.58,0,0,0,.24.1.49.49,0,0,0,.24,0,.64.64,0,0,0,.25-.12l.15.18-2.7,2.19Z"/><path class="cls-4" d="M131.36,36.9a.9.9,0,0,1-.31.46,1.06,1.06,0,0,1-1.71-1,1.09,1.09,0,0,1,.41-.72l.19.24a.86.86,0,0,0-.3.48.72.72,0,0,0,.17.62.7.7,0,0,0,.5.27.69.69,0,0,0,.54-.18.61.61,0,0,0,.24-.41.71.71,0,0,0-.05-.4,1,1,0,0,0-.12-.19l-.13-.17.24-.19a1.77,1.77,0,0,0,.14.17.67.67,0,0,0,.16.14.62.62,0,0,0,.37.09.65.65,0,0,0,.37-.15.61.61,0,0,0,.24-.42.59.59,0,0,0-.15-.48.58.58,0,0,0-.48-.26.74.74,0,0,0-.46.17l-.18-.23a.93.93,0,0,1,.7-.23.92.92,0,0,1,.66.36,1,1,0,0,1,.21.71.87.87,0,0,1-.34.62.84.84,0,0,1-.51.22.83.83,0,0,1-.38-.07,1,1,0,0,1,0,.52"/><path class="cls-4" d="M133.8,37.84a.61.61,0,0,0,0-.72.62.62,0,0,0-.68-.18,2.61,2.61,0,0,0-1,.52,2.5,2.5,0,0,0-.7.83.61.61,0,0,0,0,.71.62.62,0,0,0,.69.18,2.61,2.61,0,0,0,1-.52,2.58,2.58,0,0,0,.7-.82m-.71-1.23a.88.88,0,0,1,.91.32.9.9,0,0,1,.13,1,2.63,2.63,0,0,1-.82,1,2.57,2.57,0,0,1-1.18.59.92.92,0,0,1-1-1.28,2.54,2.54,0,0,1,.82-1,2.57,2.57,0,0,1,1.18-.59"/><path class="cls-4" d="M124.78,40.93a1.11,1.11,0,0,1-.5.76,1.16,1.16,0,0,1-.88.29,1,1,0,0,1-.67-.35,1,1,0,0,1-.23-.75,1.11,1.11,0,0,1,.32-.67l.19.23a.76.76,0,0,0-.21.44.69.69,0,0,0,.67.79,1.08,1.08,0,0,0,.6-.22.87.87,0,0,0,.39-.55.61.61,0,0,0-.1-.56.63.63,0,0,0-.38-.28,1.19,1.19,0,0,0-.36,0l-.17-.21,1.54-1,1,1.28-.22.18-.88-1.07-.91.57a.77.77,0,0,1,.36.14,1,1,0,0,1,.28.27,1,1,0,0,1,.13.71"/><path class="cls-4" d="M127,42.27a.63.63,0,0,0,0-.72.61.61,0,0,0-.69-.18,2.61,2.61,0,0,0-1,.52,2.58,2.58,0,0,0-.7.82.61.61,0,0,0,0,.71.62.62,0,0,0,.7.19,2.66,2.66,0,0,0,1-.52,2.58,2.58,0,0,0,.7-.82M126.24,41a.92.92,0,0,1,.91.32.9.9,0,0,1,.13,1,2.54,2.54,0,0,1-.82,1,2.57,2.57,0,0,1-1.18.59.92.92,0,0,1-1-1.28,2.63,2.63,0,0,1,.82-1,2.7,2.7,0,0,1,1.18-.6"/><path class="cls-4" d="M134.8,44.15l2.25-1.25-.31-.56.24-.13a.62.62,0,0,0,.15.2.83.83,0,0,0,.22.14.61.61,0,0,0,.24,0,.7.7,0,0,0,.27-.08l.11.21-3,1.69Z"/><path class="cls-4" d="M138.57,44.88l-2.32-.08.59,1.05Zm-1.84,1.36-.58.33-.14-.26.58-.32-.73-1.31.32-.17,2.85.11.15.26L137,46.11l.24.43-.24.14Z"/><path class="cls-4" d="M139.79,47.36a.62.62,0,0,0,.09-.71.61.61,0,0,0-.65-.29,2.49,2.49,0,0,0-1,.34,2.46,2.46,0,0,0-.83.7.62.62,0,0,0-.09.7.6.6,0,0,0,.65.3,2.52,2.52,0,0,0,1-.35,2.56,2.56,0,0,0,.83-.69M139.3,46a.92.92,0,0,1,.81,1.44,3.07,3.07,0,0,1-2.25,1.26.93.93,0,0,1-.81-1.44,2.62,2.62,0,0,1,1-.88A2.48,2.48,0,0,1,139.3,46"/><path class="cls-4" d="M131.07,48.08,128.75,48l.58,1Zm-1.84,1.36-.58.33-.14-.26.58-.32-.73-1.31.31-.17,2.86.11.15.26-2.2,1.23.24.43-.25.14Z"/><path class="cls-4" d="M132.29,50.56a.63.63,0,0,0,.09-.71.61.61,0,0,0-.65-.29,2.47,2.47,0,0,0-1,.35,2.34,2.34,0,0,0-.83.69.6.6,0,0,0,.56,1,2.52,2.52,0,0,0,1-.35,2.56,2.56,0,0,0,.83-.69m-.49-1.33a.89.89,0,0,1,.84.47.9.9,0,0,1,0,1,2.62,2.62,0,0,1-1,.88,2.69,2.69,0,0,1-1.27.38.9.9,0,0,1-.84-.48.86.86,0,0,1,0-1,2.62,2.62,0,0,1,1-.88,2.66,2.66,0,0,1,1.26-.38"/><path class="cls-4" d="M140,54.17l2.43-.85-.21-.6.26-.09a.78.78,0,0,0,.12.22.66.66,0,0,0,.19.18.56.56,0,0,0,.23.07.68.68,0,0,0,.28,0l.07.22-3.27,1.15Z"/><path class="cls-4" d="M142.82,56.19a1.16,1.16,0,0,1-.73.56,1.2,1.2,0,0,1-.92,0,1,1,0,0,1-.52-.56.92.92,0,0,1,0-.78,1.14,1.14,0,0,1,.52-.52l.11.28a.74.74,0,0,0-.35.35.59.59,0,0,0,0,.55.6.6,0,0,0,.41.41,1,1,0,0,0,.64,0,.88.88,0,0,0,.55-.39.71.71,0,0,0-.17-1A1,1,0,0,0,142,55l-.09-.26,1.77-.39.55,1.55L144,56l-.46-1.3-1.05.23a.76.76,0,0,1,.29.25,1,1,0,0,1,.17.35,1,1,0,0,1-.11.71"/><path class="cls-4" d="M144.41,58.18a.6.6,0,0,0,.21-.69.62.62,0,0,0-.59-.39,2.55,2.55,0,0,0-1.07.16,2.71,2.71,0,0,0-.94.55.61.61,0,0,0-.21.67.62.62,0,0,0,.59.41,2.56,2.56,0,0,0,1.07-.17,2.4,2.4,0,0,0,.94-.54m-.25-1.39a.89.89,0,0,1,.75.6.91.91,0,0,1-.2,1,2.55,2.55,0,0,1-1.13.7,2.6,2.6,0,0,1-1.31.16.89.89,0,0,1-.75-.61.9.9,0,0,1,.21-1,3.08,3.08,0,0,1,2.43-.85"/><path class="cls-4" d="M134.49,58.35a1,1,0,0,1-.45.33,1.05,1.05,0,0,1-.8,0,1,1,0,0,1-.53-.63,1,1,0,0,1,0-.83,1.11,1.11,0,0,1,.64-.54l.1.29a.86.86,0,0,0-.45.35.79.79,0,0,0,.33,1.06.75.75,0,0,0,.57,0,.61.61,0,0,0,.37-.31.68.68,0,0,0,.08-.4,1.91,1.91,0,0,0,0-.21c0-.08,0-.14-.07-.21l.29-.1.07.21a.68.68,0,0,0,.11.19.62.62,0,0,0,.31.2.69.69,0,0,0,.4,0,.58.58,0,0,0,.37-.31.6.6,0,0,0,0-.51.55.55,0,0,0-.36-.4.69.69,0,0,0-.49,0l-.09-.27a.88.88,0,0,1,.73,0,1,1,0,0,1,.46,1.3.93.93,0,0,1-.53.48.88.88,0,0,1-.55,0,.84.84,0,0,1-.33-.19,1.26,1.26,0,0,1-.2.48"/><path class="cls-4" d="M136.47,60.05a.61.61,0,0,0,.21-.69.62.62,0,0,0-.59-.39,2.4,2.4,0,0,0-1.07.16,2.56,2.56,0,0,0-.94.54.63.63,0,0,0-.21.68.62.62,0,0,0,.59.41,2.56,2.56,0,0,0,1.07-.17,2.4,2.4,0,0,0,.94-.54m-.25-1.4a.93.93,0,0,1,.55,1.56,2.64,2.64,0,0,1-1.13.7,2.6,2.6,0,0,1-1.31.16.9.9,0,0,1-.75-.62.89.89,0,0,1,.21-.94,2.6,2.6,0,0,1,1.12-.7,2.73,2.73,0,0,1,1.31-.16"/><path class="cls-4" d="M143.39,64.52l2.54-.41-.1-.63.27,0a.85.85,0,0,0,.08.24.73.73,0,0,0,.16.21.52.52,0,0,0,.21.11.62.62,0,0,0,.27,0l0,.24-3.42.56Z"/><path class="cls-4" d="M145.51,66.88a.61.61,0,0,0,.16-.55.6.6,0,0,0-.33-.47,1,1,0,0,0-.65-.1,1,1,0,0,0-.59.3.62.62,0,0,0-.16.55.64.64,0,0,0,.33.48.93.93,0,0,0,.65.1.9.9,0,0,0,.59-.31m.22.24a1.26,1.26,0,0,1-.78.38,1.19,1.19,0,0,1-.86-.17.94.94,0,0,1-.44-.66.88.88,0,0,1,.15-.68,1.39,1.39,0,0,1,.57-.47,4,4,0,0,1,1.86-.25,1.55,1.55,0,0,1,.69.28.91.91,0,0,1,.32.57.84.84,0,0,1-.18.72,1.19,1.19,0,0,1-.61.4l0-.29a1,1,0,0,0,.41-.29.63.63,0,0,0-.12-.9,1.34,1.34,0,0,0-.46-.18,1.71,1.71,0,0,0-.5,0l-.35,0a1,1,0,0,1,.41.29,1,1,0,0,1-.07,1.23"/><path class="cls-4" d="M147,69.28a.6.6,0,0,0-.19-1.13,2.55,2.55,0,0,0-1.08,0,2.65,2.65,0,0,0-1,.37.6.6,0,0,0,.19,1.14,2.57,2.57,0,0,0,1.08,0,2.5,2.5,0,0,0,1-.37m0-1.42a.93.93,0,0,1,.26,1.63A2.57,2.57,0,0,1,146,70a2.59,2.59,0,0,1-1.32-.07.9.9,0,0,1-.63-.74.88.88,0,0,1,.37-.89,2.67,2.67,0,0,1,1.23-.49,2.71,2.71,0,0,1,1.32.07"/><path class="cls-4" d="M135.46,66.07a2.46,2.46,0,0,1,.66,0,1.47,1.47,0,0,1,.77.44l.48.45a2.78,2.78,0,0,0,.37.26.74.74,0,0,0,.45.07.71.71,0,0,0,.48-.25.66.66,0,0,0,.12-.53.6.6,0,0,0-.31-.47.86.86,0,0,0-.55-.07l-.05-.29a1.23,1.23,0,0,1,.77.12.88.88,0,0,1,.44.67.94.94,0,0,1-.18.78,1,1,0,0,1-.67.36,1,1,0,0,1-.66-.11,2.91,2.91,0,0,1-.47-.36l-.47-.44a1.33,1.33,0,0,0-.41-.25,1.15,1.15,0,0,0-.44-.09l.27,1.66-.27,0Z"/><path class="cls-4" d="M138.85,69.67a.62.62,0,0,0,.32-.64.63.63,0,0,0-.51-.5,2.57,2.57,0,0,0-1.08,0,2.45,2.45,0,0,0-1,.37.6.6,0,0,0,.18,1.13,2.45,2.45,0,0,0,1.09,0,2.65,2.65,0,0,0,1-.36m0-1.42a.88.88,0,0,1,.63.73.9.9,0,0,1-.36.9,3.09,3.09,0,0,1-2.55.42.9.9,0,0,1-.63-.74.89.89,0,0,1,.36-.89,2.51,2.51,0,0,1,1.23-.49,2.58,2.58,0,0,1,1.32.07"/><path class="cls-4" d="M144.76,75.87l2.58,0v-.63h.27a.7.7,0,0,0,.16.49.71.71,0,0,0,.18.15.66.66,0,0,0,.27.06v.24l-3.47,0Z"/><path class="cls-4" d="M147.84,78.91a5.69,5.69,0,0,0-.58-.37,6.27,6.27,0,0,0-.86-.43,5.69,5.69,0,0,0-.93-.32,3.16,3.16,0,0,0-.75-.12V77.3a4.68,4.68,0,0,1,.68.12,6.15,6.15,0,0,1,.94.32c.29.14.59.29.89.46l.61.37,0-1.75h.29l0,2.08Z"/><path class="cls-4" d="M147.49,80.88a.64.64,0,0,0,.43-.58.62.62,0,0,0-.42-.57,2.49,2.49,0,0,0-1.06-.22,2.59,2.59,0,0,0-1.07.19.59.59,0,0,0-.43.56.62.62,0,0,0,.41.59,2.75,2.75,0,0,0,1.07.21,2.78,2.78,0,0,0,1.07-.18m.24-1.4a.89.89,0,0,1,.49.83.91.91,0,0,1-.51.82,2.64,2.64,0,0,1-1.3.26,2.45,2.45,0,0,1-1.28-.3.9.9,0,0,1-.5-.83.91.91,0,0,1,.52-.82,2.63,2.63,0,0,1,1.29-.26,2.46,2.46,0,0,1,1.29.3"/><path class="cls-4" d="M136.64,76.86l2.57,0v-.63h.28a1.09,1.09,0,0,0,0,.26,1,1,0,0,0,.12.23.58.58,0,0,0,.19.15.77.77,0,0,0,.27.07v.23l-3.46,0Z"/><path class="cls-4" d="M139.39,79.66a.62.62,0,0,0,.43-.58.6.6,0,0,0-.41-.57,2.43,2.43,0,0,0-1.07-.21,2.4,2.4,0,0,0-1.06.18.6.6,0,0,0,0,1.15,2.66,2.66,0,0,0,1.06.21,2.42,2.42,0,0,0,1.07-.18m.25-1.4a.93.93,0,0,1,0,1.65,3,3,0,0,1-2.58,0,.89.89,0,0,1-.49-.83.87.87,0,0,1,.51-.81,3.08,3.08,0,0,1,2.59,0"/><path class="cls-4" d="M144.26,86.41l2.53.47.11-.62.27,0a2.35,2.35,0,0,0,0,.26.69.69,0,0,0,.09.25.52.52,0,0,0,.16.18.64.64,0,0,0,.25.11l0,.23-3.41-.64Z"/><path class="cls-4" d="M145.18,89.36a.75.75,0,0,0,.32-.54.79.79,0,0,0-.1-.62.7.7,0,0,0-.47-.31.67.67,0,0,0-.54.12.78.78,0,0,0-.32.54.79.79,0,0,0,.1.62.73.73,0,0,0,.46.31.67.67,0,0,0,.55-.12m.74.07a.63.63,0,0,0,.85.16.67.67,0,0,0,.28-.48.68.68,0,0,0-.08-.56.62.62,0,0,0-.4-.24.57.57,0,0,0-.46.08.72.72,0,0,0-.28.49.7.7,0,0,0,.09.55m-.79.3a.86.86,0,0,1-.55.06,1,1,0,0,1-.66-.45,1.1,1.1,0,0,1-.15-.84,1.12,1.12,0,0,1,.45-.74,1,1,0,0,1,.77-.18.87.87,0,0,1,.5.26,1.09,1.09,0,0,1,.28.45,1.27,1.27,0,0,1,.37-.25.86.86,0,0,1,.48,0,.9.9,0,0,1,.6.39,1.09,1.09,0,0,1,.14.78,1,1,0,0,1-.41.66.86.86,0,0,1-.71.16.84.84,0,0,1-.42-.21,1,1,0,0,1-.25-.37,1.14,1.14,0,0,1-.44.32"/><path class="cls-4" d="M146,92.15a.6.6,0,0,0,.21-1.13,2.48,2.48,0,0,0-1-.39,2.44,2.44,0,0,0-1.08,0,.6.6,0,0,0-.21,1.13,2.54,2.54,0,0,0,1,.39,2.44,2.44,0,0,0,1.08,0m.48-1.34a.91.91,0,0,1,.35.9.93.93,0,0,1-.65.73,2.73,2.73,0,0,1-1.32,0,2.64,2.64,0,0,1-1.22-.52.93.93,0,0,1,.3-1.62,2.55,2.55,0,0,1,1.33,0,2.59,2.59,0,0,1,1.21.51"/><path class="cls-4" d="M138.45,88.55a.63.63,0,0,0,.52-.5.61.61,0,0,0-.31-.63,2.32,2.32,0,0,0-1-.39,2.49,2.49,0,0,0-1.09,0,.61.61,0,0,0-.52.48.63.63,0,0,0,.31.65,2.45,2.45,0,0,0,1,.38,2.67,2.67,0,0,0,1.09,0m.48-1.34a.93.93,0,0,1-.31,1.62,2.6,2.6,0,0,1-1.32,0,2.69,2.69,0,0,1-1.22-.52.89.89,0,0,1-.34-.91.88.88,0,0,1,.65-.71,2.6,2.6,0,0,1,1.32,0,2.69,2.69,0,0,1,1.22.52"/><polyline class="cls-5" points="0.07 63.87 81.18 78.17 6.92 43.35"/><path class="cls-6" d="M66.75,75.54A9.88,9.88,0,0,1,68,71.77"/><path class="cls-1" d="M277.21,1.32a77.84,77.84,0,0,0-63.14,90.17l.68,3.86,153.31-27-.68-3.86A77.84,77.84,0,0,0,277.21,1.32"/><path class="cls-2" d="M277.21,1.32a77.84,77.84,0,0,0-63.14,90.17l.68,3.86,153.31-27-.68-3.86A77.84,77.84,0,0,0,277.21,1.32Z"/><path class="cls-3" d="M337.94,50.61,304.31,70m28.17-27.21L302.79,67.74m23-31.65-25,29.75M318,30.64,298.55,64.27m10.8-37.65L296.09,63.05m4.07-38.89-6.74,38.19m-2.73-39V62.09m-9.47-37.93,9.47,53.73M272,26.62,285.25,63M263.41,30.64l19.35,33.54M255.61,36.1l24.93,29.71m-31.65-23L278.6,67.76M243.43,50.61,277,70M239.42,59.23l36.4,13.25M237,68.42l38.18,6.74m-39,2.74h38.75M237,87.37l53.73-9.48m76.71-13.43-9.87,1.74m9.63-3.07-6.91,1.34m6.63-2.67L360,63.26m6.59-2.79-6.85,1.58m6.53-2.9-6.82,1.69m6.48-3-8.62,2.31m8.25-3.62-6.75,1.94m6.37-3.24-6.72,2.05m6.31-3.34-6.68,2.16m6.24-3.46-6.64,2.29m6.19-3.57-9.41,3.43m8.94-4.69-6.56,2.51m6.07-3.78-6.53,2.63m6-3.88-6.47,2.74m5.93-4-6.42,2.85m5.86-4.08-8.09,3.76m7.5-5-6.31,3.09m5.71-4.3-6.27,3.19m5.64-4.4-6.21,3.3m5.55-4.49-6.14,3.4m5.48-4.59-8.68,5m8-6.18-6,3.62m5.31-4.78-6,3.72M356,35.58l-5.89,3.83m5.14-4.95-5.82,3.92m5.05-5.05-7.31,5.12m6.53-6.22L348,36.35m4.88-5.22-5.62,4.23m4.79-5.3-5.54,4.32M351.22,29l-5.46,4.42m4.6-5.47-7.68,6.44m6.8-7.47-5.31,4.61m4.4-5.62-5.22,4.7m4.31-5.71-5.14,4.8m4.21-5.78-5.06,4.87m4.1-5.84-6.31,6.31M344.8,22,339.92,27m3.9-6L339,26.19m3.8-6.06-4.71,5.22m3.69-6.12-4.62,5.3m3.59-6.19L334.32,26m5.4-8.55L335.29,23m3.37-6.31-4.33,5.54m3.25-6.37-4.23,5.61M336.48,15l-4.13,5.68m3-6.47-5.12,7.31m4-8.08-3.93,5.82m2.8-6.58-3.83,5.9M332,12l-3.73,6m2.57-6.67-3.62,6m2.45-6.72-5,8.68m3.83-9.34-3.41,6.15m2.22-6.8L324,15.46m2.09-6.84-3.19,6.26m2-6.87-3.09,6.32m1.86-6.9-3.78,8.09m2.54-8.65-2.86,6.42m1.62-7-2.75,6.47m1.49-7-2.64,6.52m1.38-7-2.52,6.56m1.24-7-3.42,9.42m2.15-9.87L313.78,11m1-7.07-2.17,6.68m.88-7.09-2.06,6.72m.76-7.11-1.94,6.76m.64-7.12-2.32,8.62m1-9-1.7,6.82m.38-7.14L306.66,9m.26-7.14-1.47,6.87m.13-7.15-1.34,6.91m0-7.15-1.74,9.87m.41-10.1L301.8,8M301.56.89l-1,7M300.22.72l-.86,7M298.87.56l-.73,7M297.52.43l-.78,8.9m-.58-9-.49,7M294.81.24l-.37,7m-1-7.08-.25,7M292.09.15l-.13,7m-1.23-7v10m-1.35-10,.11,7M288,.19l.25,7m-1.6-7,.36,7M285.3.32l.49,7M284,.43l.78,8.9M282.6.56l.72,7M281.25.72l.85,7M279.9.89l1,7m-2.32-6.76,1.1,7m-2.44-6.72L279,11.19m-3.06-9.63,1.33,6.9m-2.67-6.62L276,8.71m-2.79-6.58L274.8,9m-2.9-6.54,1.7,6.83m-3-6.48,2.3,8.62m-3.61-8.26,1.93,6.76M268,3.54,270,10.26M266.68,4l2.17,6.68m-3.46-6.25L267.68,11m-3.57-6.19,3.42,9.42M262.84,5.3l2.51,6.57M261.57,5.8l2.64,6.52m-3.89-6,2.75,6.47m-4-5.93,2.85,6.42m-4.1-5.85,3.78,8.09m-5-7.51,3.08,6.31m-4.3-5.7,3.19,6.26m-4.39-5.63,3.29,6.2M253,9.89,256.4,16m-4.59-5.47,5,8.67m-6.18-8,3.62,6M249.48,12l3.73,6m-4.87-5.23,3.83,5.89m-5-5.14,3.93,5.83m-5-5.06,5.12,7.32M245,15l4.13,5.69m-5.22-4.88,4.22,5.61m-5.3-4.78,4.33,5.54m-5.4-4.7,4.43,5.46m-5.47-4.59L247.14,26m-7.48-6.8,4.61,5.31m-5.62-4.4,4.7,5.22m-5.71-4.3,4.8,5.14M236.66,22,241.54,27m-5.85-4.11L242,29.25m-7.26-5.35,5,4.88m-6-3.89,5.14,4.79m-6.06-3.79,5.23,4.7M232,26.91l5.31,4.61m-6.19-3.58,7.68,6.44M230.24,29l5.46,4.43M229.39,30l5.54,4.34m-6.36-3.25,5.61,4.23m-6.42-3.15,5.68,4.14m-6.47-3,7.31,5.13m-8.09-4L232,38.37m-6.58-2.8,5.89,3.84m-6.62-2.69,6,3.73M224,37.88l6,3.62m-6.71-2.44,8.68,5m-9.35-3.84,6.15,3.41M222,41.43l6.21,3.3m-6.84-2.1,6.27,3.19m-6.87-2,6.32,3.08m-6.9-1.86,8.08,3.78m-8.65-2.54L226,49.17m-7-1.61,6.47,2.74m-7-1.49,6.51,2.64m-7-1.37,6.56,2.52m-7-1.25L227,54.78m-9.87-2.15,6.65,2.29m-7.08-1,6.68,2.18m-7.09-.88L223,57.27m-7.11-.76,6.76,1.94m-7.12-.63,8.63,2.32m-9-1,6.82,1.7m-7.14-.38L221.74,62m-7.15-.25,6.88,1.46m-7.15-.13,6.9,1.34m-7.15,0,9.87,1.74m-10.09-.41,6.94,1.1m-7.14.24,7,1m-7.14.36,7,.86m-7.13.49,7,.74m-7.12.61,8.89.79m-9,.57,7,.49M213,73.9l7,.37m-7.07,1,7,.24m-7.06,1.11,7,.13m-7,1.23h10m-10,1.35,7-.11m-7,1.47,7-.24M213,82l7-.36m-6.94,1.72,7-.49m-6.91,1.85,8.9-.78m-8.77,2.13,7-.74m-6.84,2.09,7-.86m-6.8,2.21,7-1m-6.76,2.32,6.94-1.1m-6.72,2.44,9.87-1.74m-1.08.19A68.91,68.91,0,1,1,358.58,66M221.05,90.26A70.75,70.75,0,1,1,360.4,65.69"/><path class="cls-3" d="M238.32,87.12A53.17,53.17,0,1,1,343,68.66Zm36.81-6.49a15.79,15.79,0,1,1,31.1-5.48m35.76-11L305.9,73.81m33-18.38L305,71.21m29.24-23.83L303.57,68.87m24.7-28.57L301.86,66.72m19.31-32.37L299.71,65m13.43-35.25-15.8,33.89m7.1-37.07-9.67,36.07m.54-37.7-3.25,37.24m-6-37.25,3.26,37.23m-12.4-35.68,9.68,36.13m-18.4-33L284,63.51m-23.8-29.2L281.6,64.92M253.11,40.31l26.41,26.42M247.17,47.42l30.59,21.42M242.52,55.43l33.83,15.78m-37-7.08,36.07,9.66m-37.68-.53L275,76.51m-37.23,6,37.2-3.26m69.49-10.84-53.74,9.47M342,59.23,305.54,72.48"/><path class="cls-4" d="M278.8,16.52a.93.93,0,0,0,.08-.65,1,1,0,0,0-.3-.59.68.68,0,0,0-1,.18,1,1,0,0,0-.09.66,1,1,0,0,0,.31.58.67.67,0,0,0,.56.16.66.66,0,0,0,.47-.34M278.64,15a1.36,1.36,0,0,1,.48.55,3.34,3.34,0,0,1,.25.89,3.14,3.14,0,0,1,0,1,1.67,1.67,0,0,1-.27.68.85.85,0,0,1-.57.33.84.84,0,0,1-.73-.17,1.13,1.13,0,0,1-.41-.61l.3-.05A.94.94,0,0,0,278,18a.6.6,0,0,0,.51.11.53.53,0,0,0,.4-.24,1.25,1.25,0,0,0,.16-.46,1.48,1.48,0,0,0,0-.51c0-.16,0-.28-.05-.36a1.11,1.11,0,0,1-.28.41.84.84,0,0,1-.5.21.91.91,0,0,1-.74-.26,1.27,1.27,0,0,1-.39-.76,1.18,1.18,0,0,1,.16-.86.92.92,0,0,1,.65-.45.93.93,0,0,1,.68.13"/><path class="cls-4" d="M281.27,15a.61.61,0,0,0-1.14.2,3,3,0,0,0,.37,2.1.62.62,0,0,0,.64.32.64.64,0,0,0,.5-.52,2.44,2.44,0,0,0,0-1.08,2.59,2.59,0,0,0-.37-1m-1.42,0a.89.89,0,0,1,.72-.64.91.91,0,0,1,.9.35A2.57,2.57,0,0,1,282,16a2.6,2.6,0,0,1-.06,1.32.89.89,0,0,1-.73.64.87.87,0,0,1-.89-.36,2.54,2.54,0,0,1-.51-1.22,2.6,2.6,0,0,1,.06-1.32"/><path class="cls-4" d="M225.5,88.53a.62.62,0,0,0-.32.65.6.6,0,0,0,.52.48,2.81,2.81,0,0,0,2.09-.37.59.59,0,0,0,.32-.63.62.62,0,0,0-.51-.5,2.64,2.64,0,0,0-1.09,0,2.54,2.54,0,0,0-1,.38m0,1.42a.89.89,0,0,1-.64-.72.87.87,0,0,1,.35-.9,3,3,0,0,1,2.54-.45.9.9,0,0,1,.65.73.89.89,0,0,1-.36.89,3,3,0,0,1-2.54.45"/><path class="cls-4" d="M236.78,89.76l-2.53.45.11.62-.27,0a1.35,1.35,0,0,0-.08-.24.83.83,0,0,0-.17-.21.52.52,0,0,0-.21-.11.62.62,0,0,0-.27,0l-.05-.23,3.42-.6Z"/><path class="cls-4" d="M234.88,87.32a.93.93,0,0,0,.2,1.17.67.67,0,0,0,.55.12.69.69,0,0,0,.47-.3.92.92,0,0,0-.21-1.17.75.75,0,0,0-.54-.12.72.72,0,0,0-.47.3m-.71.2a.59.59,0,0,0-.46-.1.59.59,0,0,0-.4.25.65.65,0,0,0-.09.54.7.7,0,0,0,.27.5.65.65,0,0,0,.86-.15.72.72,0,0,0,.09-.56.69.69,0,0,0-.27-.48m.62-.56a1,1,0,0,1,.5-.25,1,1,0,0,1,.78.19,1.15,1.15,0,0,1,.44.73,1.17,1.17,0,0,1-.16.85,1,1,0,0,1-.66.45,1,1,0,0,1-.56-.07,1.23,1.23,0,0,1-.43-.33,1,1,0,0,1-.26.36.78.78,0,0,1-.42.22.9.9,0,0,1-.71-.17,1.1,1.1,0,0,1-.25-1.44.85.85,0,0,1,.6-.39.86.86,0,0,1,.48,0,1.16,1.16,0,0,1,.36.25,1.24,1.24,0,0,1,.29-.45"/><path class="cls-4" d="M233.11,85a.62.62,0,0,0-.32.64.63.63,0,0,0,.52.49,2.58,2.58,0,0,0,1.08,0,2.45,2.45,0,0,0,1-.38.62.62,0,0,0,.32-.63.63.63,0,0,0-.52-.5,2.58,2.58,0,0,0-1.08,0,2.45,2.45,0,0,0-1,.38m0,1.42a.9.9,0,0,1-.64-.72.93.93,0,0,1,.35-.91,2.67,2.67,0,0,1,1.23-.5,2.61,2.61,0,0,1,1.32,0,.9.9,0,0,1,.64.73.89.89,0,0,1-.36.9,2.53,2.53,0,0,1-1.22.5,2.61,2.61,0,0,1-1.32,0"/><path class="cls-4" d="M227.34,79.33h-2.57V80h-.28a1,1,0,0,0,0-.25.76.76,0,0,0-.13-.23.58.58,0,0,0-.19-.15.77.77,0,0,0-.27-.07V79h3.47Z"/><path class="cls-4" d="M224.55,76.56a.63.63,0,0,0-.42.58.62.62,0,0,0,.42.57,2.94,2.94,0,0,0,2.13,0,.61.61,0,0,0,.43-.57.62.62,0,0,0-.43-.58,3.08,3.08,0,0,0-2.13,0M224.32,78a.91.91,0,0,1-.5-.83.89.89,0,0,1,.5-.82,3,3,0,0,1,2.59,0,.87.87,0,0,1,.5.82.9.9,0,0,1-.5.83,3.13,3.13,0,0,1-2.59,0"/><path class="cls-4" d="M235.45,80.43h-2.57v.63h-.28a1.07,1.07,0,0,0,0-.25,1.1,1.1,0,0,0-.13-.23.74.74,0,0,0-.19-.15.6.6,0,0,0-.27-.06v-.24h3.47Z"/><path class="cls-4" d="M232.34,77.43c.09.07.29.19.58.36a6.27,6.27,0,0,0,.87.42,6.76,6.76,0,0,0,.93.31,3.64,3.64,0,0,0,.75.11V79a6.05,6.05,0,0,1-.68-.11,5.06,5.06,0,0,1-.95-.32c-.29-.13-.6-.27-.9-.44s-.51-.29-.61-.36v1.75H232V77.43Z"/><path class="cls-4" d="M232.66,75.46a.6.6,0,0,0,0,1.15,2.94,2.94,0,0,0,2.13,0,.6.6,0,0,0,0-1.15,2.94,2.94,0,0,0-2.13,0m-.23,1.4a.93.93,0,0,1,0-1.65,3.13,3.13,0,0,1,2.59,0,.93.93,0,0,1,0,1.65,3.13,3.13,0,0,1-2.59,0"/><path class="cls-4" d="M227.94,69.27a2.52,2.52,0,0,1-.63-.23,1.62,1.62,0,0,1-.58-.68l-.3-.58a2.07,2.07,0,0,0-.27-.37.74.74,0,0,0-.39-.21.76.76,0,0,0-.54.07.68.68,0,0,0-.29.47.6.6,0,0,0,.14.54.89.89,0,0,0,.49.25l0,.29a1.15,1.15,0,0,1-.68-.37.84.84,0,0,1-.19-.78.9.9,0,0,1,.42-.67,1,1,0,0,1,.75-.12,1,1,0,0,1,.59.33,3,3,0,0,1,.33.49l.29.57a1.35,1.35,0,0,0,.3.37,1.16,1.16,0,0,0,.4.23l.29-1.65.27,0Z"/><path class="cls-4" d="M225.93,64.76a.6.6,0,0,0-.2,1.13,2.4,2.4,0,0,0,1,.38,2.48,2.48,0,0,0,1.09,0,.6.6,0,0,0,.2-1.13,2.5,2.5,0,0,0-1-.38,2.58,2.58,0,0,0-1.08,0m-.47,1.34a.9.9,0,0,1-.36-.9.93.93,0,0,1,.65-.73,2.6,2.6,0,0,1,1.32,0,2.68,2.68,0,0,1,1.22.5.93.93,0,0,1-.29,1.63,2.6,2.6,0,0,1-1.32,0,2.68,2.68,0,0,1-1.22-.5"/><path class="cls-4" d="M235.91,70.93l-2.54-.45-.11.62-.27,0a.77.77,0,0,0,0-.26.69.69,0,0,0-.09-.25.52.52,0,0,0-.16-.18.71.71,0,0,0-.25-.11l0-.23,3.42.6Z"/><path class="cls-4" d="M234.69,68a.64.64,0,0,0-.34.47.62.62,0,0,0,.16.55,1,1,0,0,0,.58.31,1,1,0,0,0,.66-.09.67.67,0,0,0,.18-1,1,1,0,0,0-.59-.32.93.93,0,0,0-.65.1m-.13-.3a1.38,1.38,0,0,1,1.62.34,1,1,0,0,1,.19.78.89.89,0,0,1-.36.59,1.37,1.37,0,0,1-.7.25,3,3,0,0,1-.9-.07,3.14,3.14,0,0,1-.94-.31,1.33,1.33,0,0,1-.55-.49.88.88,0,0,1-.12-.64.81.81,0,0,1,.41-.62,1.25,1.25,0,0,1,.71-.19l-.06.3a1,1,0,0,0-.48.13.57.57,0,0,0-.28.43.53.53,0,0,0,.09.47,1.29,1.29,0,0,0,.38.31,1.6,1.6,0,0,0,.46.19l.34.08a1,1,0,0,1-.28-.41.8.8,0,0,1,0-.53.91.91,0,0,1,.49-.61"/><path class="cls-4" d="M234.08,65.24a.62.62,0,0,0-.52.5.59.59,0,0,0,.32.63,2.4,2.4,0,0,0,1,.38,2.34,2.34,0,0,0,1.09,0,.61.61,0,0,0,.51-.48.62.62,0,0,0-.31-.65,2.65,2.65,0,0,0-1-.38,2.58,2.58,0,0,0-1.08,0m-.47,1.34a.89.89,0,0,1-.36-.89.92.92,0,0,1,.65-.73,3,3,0,0,1,2.54.45.87.87,0,0,1,.35.9.89.89,0,0,1-.64.72,2.59,2.59,0,0,1-1.32.06,2.68,2.68,0,0,1-1.22-.51"/><path class="cls-4" d="M229.62,56.22a.87.87,0,0,1,.55,0,1,1,0,0,1,.6.53,1.05,1.05,0,0,1,0,.82,1,1,0,0,1-.57.61,1,1,0,0,1-.83,0l.1-.28a1,1,0,0,0,.58,0,.72.72,0,0,0,.43-.47.71.71,0,0,0,0-.57.75.75,0,0,0-.43-.37.61.61,0,0,0-.48,0,.69.69,0,0,0-.32.25c0,.06-.07.12-.1.19s-.05.14-.07.21l-.29-.11c0-.06.05-.13.07-.21a.56.56,0,0,0,0-.21.66.66,0,0,0-.11-.36.73.73,0,0,0-.32-.24.61.61,0,0,0-.82.39.56.56,0,0,0,0,.54.74.74,0,0,0,.37.31l-.1.27a.93.93,0,0,1-.56-.48,1,1,0,0,1,0-.76.91.91,0,0,1,.49-.53.84.84,0,0,1,.71,0,.93.93,0,0,1,.45.32,1,1,0,0,1,.14.37,1.09,1.09,0,0,1,.46-.25"/><path class="cls-4" d="M229.16,53.64a.64.64,0,0,0-.6.4.61.61,0,0,0,.21.68,2.45,2.45,0,0,0,.93.56,2.56,2.56,0,0,0,1.07.17.59.59,0,0,0,.59-.39.61.61,0,0,0-.2-.69,2.57,2.57,0,0,0-.93-.55,2.76,2.76,0,0,0-1.07-.18m-.69,1.24a.87.87,0,0,1-.19-.94.9.9,0,0,1,.75-.61,2.64,2.64,0,0,1,1.31.18,2.52,2.52,0,0,1,1.12.71.87.87,0,0,1,.19,1,.89.89,0,0,1-.75.6,2.63,2.63,0,0,1-1.31-.18,2.52,2.52,0,0,1-1.12-.71"/><path class="cls-4" d="M237.91,61.47l-2.42-.88-.21.6-.26-.1a1,1,0,0,0,0-.24.93.93,0,0,0,0-.27.67.67,0,0,0-.13-.2.76.76,0,0,0-.23-.15l.08-.22L238,61.19Z"/><path class="cls-4" d="M237.05,58.15a1.12,1.12,0,0,1,.91,0,1.19,1.19,0,0,1,.7.61,1,1,0,0,1-.47,1.34,1.22,1.22,0,0,1-.75.07l.11-.29a.74.74,0,0,0,.48,0,.65.65,0,0,0,.39-.4.62.62,0,0,0-.06-.58,1,1,0,0,0-.49-.4.91.91,0,0,0-.68-.06.68.68,0,0,0-.43.38.66.66,0,0,0,0,.47.85.85,0,0,0,.16.33l-.1.25L235.17,59l.56-1.54.27.1-.47,1.3,1,.49a1,1,0,0,1-.07-.38,1.12,1.12,0,0,1,.09-.38,1,1,0,0,1,.54-.48"/><path class="cls-4" d="M237.08,55.6a.62.62,0,0,0-.6.4.62.62,0,0,0,.21.68,2.57,2.57,0,0,0,.93.55,2.43,2.43,0,0,0,1.07.18.62.62,0,0,0,.59-.39.61.61,0,0,0-.2-.69,2.57,2.57,0,0,0-.93-.55,2.43,2.43,0,0,0-1.07-.18m-.69,1.24a.92.92,0,0,1,.56-1.55,2.52,2.52,0,0,1,1.31.17,2.61,2.61,0,0,1,1.12.71.89.89,0,0,1,.19.95.88.88,0,0,1-.75.6,2.66,2.66,0,0,1-1.32-.17,2.63,2.63,0,0,1-1.11-.71"/><path class="cls-4" d="M232.7,45.88l1.13,2,.6-1Zm2.12.88.58.34-.15.25-.58-.33-.75,1.29-.31-.18-1.37-2.51.15-.26,2.19,1.26.24-.42.25.14Z"/><path class="cls-4" d="M234.22,43.57a.6.6,0,0,0-.58,1,2.55,2.55,0,0,0,.82.71,2.6,2.6,0,0,0,1,.36.6.6,0,0,0,.57-1,2.53,2.53,0,0,0-.82-.7,2.37,2.37,0,0,0-1-.36m-.9,1.1a.92.92,0,0,1,.82-1.43,2.57,2.57,0,0,1,1.26.4,2.53,2.53,0,0,1,1,.89.93.93,0,0,1-.82,1.43,2.74,2.74,0,0,1-1.27-.4,2.57,2.57,0,0,1-1-.89"/><path class="cls-4" d="M241.47,52.8l-2.23-1.29-.31.55-.24-.14a1.17,1.17,0,0,0,.09-.24.73.73,0,0,0,0-.26.51.51,0,0,0-.09-.22.61.61,0,0,0-.2-.19l.12-.21,3,1.74Z"/><path class="cls-4" d="M240.16,49.18l1.13,2,.6-1Zm2.12.89.58.33-.15.25-.58-.33-.75,1.29-.31-.18-1.37-2.51.15-.25L242,49.93l.25-.43.24.14Z"/><path class="cls-4" d="M241.67,46.87a.59.59,0,0,0-.65.29.6.6,0,0,0,.08.7,2.55,2.55,0,0,0,.82.71,2.62,2.62,0,0,0,1,.36.63.63,0,0,0,.66-.28.65.65,0,0,0-.08-.72,2.47,2.47,0,0,0-.83-.7,2.29,2.29,0,0,0-1-.36m-.89,1.1a.92.92,0,0,1,.82-1.43,2.57,2.57,0,0,1,1.26.4,2.53,2.53,0,0,1,1,.89.88.88,0,0,1,0,1,.89.89,0,0,1-.85.46,2.74,2.74,0,0,1-1.26-.4,2.57,2.57,0,0,1-1-.89"/><path class="cls-4" d="M240.07,36.55a1.14,1.14,0,0,1,.85.34,1.2,1.2,0,0,1,.45.81,1,1,0,0,1-.22.73,1,1,0,0,1-.69.37,1.18,1.18,0,0,1-.72-.19l.19-.23a.8.8,0,0,0,.48.13.67.67,0,0,0,.49-.25.63.63,0,0,0,.15-.57,1,1,0,0,0-.33-.54.86.86,0,0,0-.62-.28.67.67,0,0,0-.53.2.71.71,0,0,0-.2.43,1.28,1.28,0,0,0,0,.36l-.18.21L238,36.74l1.06-1.26.22.19-.89,1.06.74.79a.75.75,0,0,1,.07-.38,1,1,0,0,1,.21-.32,1,1,0,0,1,.67-.27"/><path class="cls-4" d="M241,34.16a.63.63,0,0,0-.7.18.61.61,0,0,0,0,.7,2.37,2.37,0,0,0,.69.84,2.45,2.45,0,0,0,.94.53.6.6,0,0,0,.69-.16.61.61,0,0,0,0-.72,2.44,2.44,0,0,0-.69-.83,2.63,2.63,0,0,0-.94-.54m-1.07.93a.88.88,0,0,1,.14-1,.9.9,0,0,1,.92-.31,2.55,2.55,0,0,1,1.17.61,2.64,2.64,0,0,1,.81,1.05.9.9,0,0,1-.15,1,.88.88,0,0,1-.91.3,2.53,2.53,0,0,1-1.18-.61,2.59,2.59,0,0,1-.8-1"/><path class="cls-4" d="M246.52,44.51l-2-1.65-.4.49-.21-.18a1,1,0,0,0,.13-.22.67.67,0,0,0,.05-.26.5.5,0,0,0-.05-.23.69.69,0,0,0-.16-.22l.15-.18,2.66,2.23Z"/><path class="cls-4" d="M247.29,41.28a.85.85,0,0,1,.51.23,1,1,0,0,1,.38.7,1,1,0,0,1-.26.78,1.05,1.05,0,0,1-.74.38,1.11,1.11,0,0,1-.79-.27l.19-.23a.91.91,0,0,0,.54.2.7.7,0,0,0,.57-.29.68.68,0,0,0,.17-.54.72.72,0,0,0-.27-.49.58.58,0,0,0-.46-.16.69.69,0,0,0-.38.12,1.21,1.21,0,0,0-.16.16,1,1,0,0,0-.14.16l-.24-.2a1.27,1.27,0,0,0,.14-.17.62.62,0,0,0,.11-.19.67.67,0,0,0,0-.37.71.71,0,0,0-.22-.34.62.62,0,0,0-.46-.16.61.61,0,0,0-.45.25.56.56,0,0,0-.15.52.74.74,0,0,0,.24.41l-.18.22a.88.88,0,0,1-.36-.64.94.94,0,0,1,.23-.72.92.92,0,0,1,.65-.33.85.85,0,0,1,.68.21.84.84,0,0,1,.31.45,1,1,0,0,1,0,.39,1.1,1.1,0,0,1,.51-.08"/><path class="cls-4" d="M247.74,38.71a.6.6,0,0,0-.74.88,2.59,2.59,0,0,0,.69.84,2.54,2.54,0,0,0,.95.53.62.62,0,0,0,.69-.16.64.64,0,0,0,0-.72,2.69,2.69,0,0,0-.69-.83,2.44,2.44,0,0,0-.95-.54m-1.07.93a.93.93,0,0,1,1.06-1.27,2.58,2.58,0,0,1,1.17.62,2.62,2.62,0,0,1,.81,1,.93.93,0,0,1-1.06,1.27,2.65,2.65,0,0,1-1.17-.61,2.53,2.53,0,0,1-.81-1"/><path class="cls-4" d="M248.12,28.72a.67.67,0,0,0-.8.67,1.08,1.08,0,0,0,.81,1,.63.63,0,0,0,.56-.14.66.66,0,0,0,.24-.53.91.91,0,0,0-.25-.61.92.92,0,0,0-.56-.35m.09-.31a1.36,1.36,0,0,1,.72.47,1.23,1.23,0,0,1,.3.83,1,1,0,0,1-.35.72.87.87,0,0,1-.66.22,1.41,1.41,0,0,1-.69-.25,3,3,0,0,1-.65-.64,3,3,0,0,1-.52-.84,1.48,1.48,0,0,1-.11-.73.92.92,0,0,1,.32-.57.81.81,0,0,1,.72-.21,1.2,1.2,0,0,1,.66.31l-.24.2a1,1,0,0,0-.45-.22.57.57,0,0,0-.49.15.56.56,0,0,0-.23.42,1.46,1.46,0,0,0,.09.49,1.67,1.67,0,0,0,.23.44l.21.27a.91.91,0,0,1,.05-.49.78.78,0,0,1,.33-.42.93.93,0,0,1,.76-.15"/><path class="cls-4" d="M249.42,26.21a.64.64,0,0,0-.72.05.62.62,0,0,0-.16.69,2.54,2.54,0,0,0,.53.95,2.59,2.59,0,0,0,.84.69.6.6,0,0,0,.88-.74,2.44,2.44,0,0,0-.54-1,2.69,2.69,0,0,0-.83-.69m-1.22.73a.89.89,0,0,1,.31-.91.9.9,0,0,1,1-.15,2.53,2.53,0,0,1,1,.81,2.68,2.68,0,0,1,.62,1.17.93.93,0,0,1-1.27,1.06,2.71,2.71,0,0,1-1.05-.81,2.65,2.65,0,0,1-.61-1.17"/><path class="cls-4" d="M253.1,37.36l-1.65-2-.49.41-.18-.21a.75.75,0,0,0,.17-.19.62.62,0,0,0,0-.73l.18-.15,2.23,2.65Z"/><path class="cls-4" d="M253.89,36.66a2.5,2.5,0,0,1-.33-.58,1.54,1.54,0,0,1,0-.89l.14-.64a1.76,1.76,0,0,0,0-.45.74.74,0,0,0-.16-.43.78.78,0,0,0-.46-.28.63.63,0,0,0-.52.17.56.56,0,0,0-.24.5.88.88,0,0,0,.21.52l-.22.18A1.14,1.14,0,0,1,252,34a.9.9,0,0,1,.35-.72.92.92,0,0,1,.76-.24,1,1,0,0,1,.65.39,1,1,0,0,1,.25.63,3.81,3.81,0,0,1-.07.59l-.14.62a1.55,1.55,0,0,0,0,.48,1.23,1.23,0,0,0,.16.43l1.28-1.08.18.21Z"/><path class="cls-4" d="M255.25,31.91a.61.61,0,0,0-.72.05.62.62,0,0,0-.16.69,2.59,2.59,0,0,0,.53.94,2.46,2.46,0,0,0,.84.69.61.61,0,0,0,.71,0,.64.64,0,0,0,.17-.7,2.48,2.48,0,0,0-.54-.94,2.44,2.44,0,0,0-.83-.69m-1.22.73a.92.92,0,0,1,1.26-1.06,2.46,2.46,0,0,1,1,.8,2.53,2.53,0,0,1,.61,1.18.89.89,0,0,1-.31.92.88.88,0,0,1-.95.14,2.71,2.71,0,0,1-1.05-.81,2.65,2.65,0,0,1-.61-1.17"/><path class="cls-4" d="M257.28,20.6a5.08,5.08,0,0,0,0,.69,7.5,7.5,0,0,0,.06,1,6,6,0,0,0,.19,1,3.81,3.81,0,0,0,.27.71l-.33.18c-.06-.14-.14-.36-.23-.65a5.32,5.32,0,0,1-.19-1c0-.32,0-.66,0-1v-.71l-1.52.85-.14-.26,1.82-1Z"/><path class="cls-4" d="M259.16,19.91a.63.63,0,0,0-.72-.08.64.64,0,0,0-.29.65,2.58,2.58,0,0,0,.35,1,2.51,2.51,0,0,0,.7.84.6.6,0,0,0,1-.57,2.43,2.43,0,0,0-.35-1,2.61,2.61,0,0,0-.69-.84m-1.34.49a.91.91,0,0,1,.47-.84.9.9,0,0,1,1,0,2.51,2.51,0,0,1,.88,1,2.61,2.61,0,0,1,.39,1.27.94.94,0,0,1-1.44.81,2.7,2.7,0,0,1-.88-1,2.61,2.61,0,0,1-.39-1.27"/><path class="cls-4" d="M261.13,31.31l-1.26-2.24-.56.31-.13-.24a1.08,1.08,0,0,0,.2-.16.6.6,0,0,0,.14-.22.47.47,0,0,0,0-.24.59.59,0,0,0-.07-.26l.21-.12,1.7,3Z"/><path class="cls-4" d="M262.65,30.46l-1.27-2.25-.55.31-.13-.24a1,1,0,0,0,.2-.15.93.93,0,0,0,.14-.22.47.47,0,0,0,0-.24.68.68,0,0,0-.07-.27l.2-.11,1.7,3Z"/><path class="cls-4" d="M263.69,26.67a.63.63,0,0,0-.72-.08.62.62,0,0,0-.29.64,2.57,2.57,0,0,0,.35,1,2.37,2.37,0,0,0,.7.83.59.59,0,0,0,.7.09.6.6,0,0,0,.3-.65,3,3,0,0,0-1-1.86m-1.34.49a.93.93,0,0,1,1.44-.81,2.54,2.54,0,0,1,.88,1,2.6,2.6,0,0,1,.39,1.26.9.9,0,0,1-.48.85.86.86,0,0,1-1,0,2.66,2.66,0,0,1-.88-1,2.61,2.61,0,0,1-.39-1.27"/><path class="cls-4" d="M267.9,17.19a.78.78,0,0,0-.62,0,.85.85,0,0,0-.5.39.75.75,0,0,0,0,.57.73.73,0,0,0,.38.41.94.94,0,0,0,1.12-.4.7.7,0,0,0,0-.55.69.69,0,0,0-.38-.42m-.3-.67a.57.57,0,0,0,0-.46.62.62,0,0,0-.31-.36.85.85,0,0,0-1,.35.64.64,0,0,0,0,.47.58.58,0,0,0,.3.35.84.84,0,0,0,1-.35m.65.53a.93.93,0,0,1,.33.45,1,1,0,0,1-.06.8,1.22,1.22,0,0,1-1.52.53,1,1,0,0,1-.57-1.14,1.37,1.37,0,0,1,.25-.48,1,1,0,0,1-.4-.19.77.77,0,0,1-.27-.39.87.87,0,0,1,0-.72,1.13,1.13,0,0,1,1.38-.49,1,1,0,0,1,.49.54,1,1,0,0,1,0,.47,1,1,0,0,1-.2.4,1.3,1.3,0,0,1,.5.22"/><path class="cls-4" d="M269.9,15.07a.64.64,0,0,0-.69-.21.62.62,0,0,0-.39.59,2.43,2.43,0,0,0,.16,1.08,2.43,2.43,0,0,0,.54.93.62.62,0,0,0,.68.22.65.65,0,0,0,.41-.6,3,3,0,0,0-.71-2m-1.4.25a.89.89,0,0,1,.61-.74.87.87,0,0,1,.95.2,2.66,2.66,0,0,1,.7,1.12,2.73,2.73,0,0,1,.16,1.31.93.93,0,0,1-.62.76.9.9,0,0,1-.94-.21,2.73,2.73,0,0,1-.7-1.12,2.66,2.66,0,0,1-.16-1.32"/><path class="cls-4" d="M269.26,26.85l-.86-2.43-.6.22-.09-.26a1.24,1.24,0,0,0,.23-.12,1.2,1.2,0,0,0,.18-.2.69.69,0,0,0,.07-.23.63.63,0,0,0,0-.27l.23-.08,1.15,3.27Z"/><path class="cls-4" d="M270.94,23.3a.62.62,0,0,0-.69-.2.6.6,0,0,0-.4.59,3,3,0,0,0,.71,2,.63.63,0,0,0,.68.21.61.61,0,0,0,.4-.6,2.43,2.43,0,0,0-.17-1.07,2.7,2.7,0,0,0-.53-.94m-1.4.26a.89.89,0,0,1,.61-.75.91.91,0,0,1,1,.2,3.09,3.09,0,0,1,.85,2.44.92.92,0,0,1-1.55.54,2.48,2.48,0,0,1-.7-1.12,2.62,2.62,0,0,1-.16-1.31"/><path class="cls-4" d="M273.48,22.41a.63.63,0,0,0-.69-.21.61.61,0,0,0-.39.59,2.92,2.92,0,0,0,.7,2,.6.6,0,0,0,.68.21.62.62,0,0,0,.41-.59,2.56,2.56,0,0,0-.17-1.07,2.48,2.48,0,0,0-.54-.94m-1.4.25a.93.93,0,0,1,1.56-.55,3.08,3.08,0,0,1,.86,2.44.9.9,0,0,1-.62.75.88.88,0,0,1-.94-.2,2.7,2.7,0,0,1-.7-1.13,2.61,2.61,0,0,1-.16-1.31"/><path class="cls-4" d="M288.27,14.47l0-2.58h-.64v-.27a.69.69,0,0,0,.25,0,.57.57,0,0,0,.23-.12.42.42,0,0,0,.15-.19.48.48,0,0,0,.07-.26h.24l-.05,3.47Z"/><path class="cls-4" d="M291.07,11.72a.62.62,0,0,0-.57-.44.64.64,0,0,0-.58.42,2.66,2.66,0,0,0-.21,1.06,2.45,2.45,0,0,0,.18,1.07.61.61,0,0,0,.57.43.6.6,0,0,0,.58-.41,2.43,2.43,0,0,0,.21-1.07,2.38,2.38,0,0,0-.18-1.06m-1.39-.25a.88.88,0,0,1,.82-.49.91.91,0,0,1,.83.51,2.64,2.64,0,0,1,.26,1.3,2.73,2.73,0,0,1-.3,1.29.91.91,0,0,1-.84.49.89.89,0,0,1-.81-.52,2.52,2.52,0,0,1-.27-1.29,2.56,2.56,0,0,1,.31-1.29"/><path class="cls-4" d="M293.77,11.75a.63.63,0,0,0-.57-.43.64.64,0,0,0-.58.42,2.35,2.35,0,0,0-.21,1.06,2.45,2.45,0,0,0,.18,1.07.6.6,0,0,0,1.15,0,2.43,2.43,0,0,0,.21-1.07,2.45,2.45,0,0,0-.18-1.07m-1.4-.24a.92.92,0,0,1,.83-.5.91.91,0,0,1,.82.52,2.53,2.53,0,0,1,.27,1.3,2.66,2.66,0,0,1-.3,1.28.91.91,0,0,1-.84.5.89.89,0,0,1-.81-.52,2.52,2.52,0,0,1-.27-1.29,2.67,2.67,0,0,1,.3-1.29"/><path class="cls-4" d="M290.11,21.15a.81.81,0,0,0-.59-.22.77.77,0,0,0-.6.2.69.69,0,0,0-.22.52.68.68,0,0,0,.2.51.82.82,0,0,0,.6.23.8.8,0,0,0,.59-.21.74.74,0,0,0,0-1m-.06-.73a.6.6,0,0,0,.18-.43.58.58,0,0,0-.17-.44.71.71,0,0,0-.52-.2.69.69,0,0,0-.53.18.59.59,0,0,0-.18.44.62.62,0,0,0,.16.43.67.67,0,0,0,.53.19.72.72,0,0,0,.53-.17m.43.72a.92.92,0,0,1,.15.54.94.94,0,0,1-.33.72,1.11,1.11,0,0,1-.81.29,1.13,1.13,0,0,1-.8-.31,1,1,0,0,1-.31-.74.93.93,0,0,1,.17-.53,1.23,1.23,0,0,1,.4-.36,1.35,1.35,0,0,1-.31-.32.81.81,0,0,1-.12-.46.88.88,0,0,1,.29-.66,1,1,0,0,1,.74-.27,1,1,0,0,1,.72.29.86.86,0,0,1,.27.67.77.77,0,0,1-.13.45.94.94,0,0,1-.32.31,1.28,1.28,0,0,1,.39.38"/><path class="cls-4" d="M292.71,19.85a.6.6,0,0,0-.57-.43.61.61,0,0,0-.58.41,2.43,2.43,0,0,0-.21,1.07,2.4,2.4,0,0,0,.18,1.06.6.6,0,0,0,1.15,0,2.35,2.35,0,0,0,.21-1.06,2.45,2.45,0,0,0-.18-1.07m-1.4-.25a.9.9,0,0,1,.83-.49.88.88,0,0,1,.82.52,2.49,2.49,0,0,1,.27,1.29,2.7,2.7,0,0,1-.3,1.29.88.88,0,0,1-.84.49.87.87,0,0,1-.81-.51,2.58,2.58,0,0,1-.27-1.3,2.7,2.7,0,0,1,.3-1.29"/><path class="cls-4" d="M299.51,15.23l.42-2.54-.63-.1.05-.27h.25a.69.69,0,0,0,.25-.09.51.51,0,0,0,.17-.16.57.57,0,0,0,.11-.25l.23,0-.55,3.42Z"/><path class="cls-4" d="M301.23,15.51l.42-2.54-.63-.1.05-.27h.25a.9.9,0,0,0,.25-.08.55.55,0,0,0,.17-.17.57.57,0,0,0,.11-.25l.23,0-.55,3.42Z"/><path class="cls-4" d="M304.41,13.2a.61.61,0,0,0-.51-.51.63.63,0,0,0-.63.33,2.45,2.45,0,0,0-.36,1,2.41,2.41,0,0,0,0,1.08.62.62,0,0,0,.49.51.63.63,0,0,0,.65-.32,2.65,2.65,0,0,0,.36-1,2.61,2.61,0,0,0,0-1.09m-1.35-.45a.89.89,0,0,1,.89-.36.9.9,0,0,1,.74.63,2.58,2.58,0,0,1,.07,1.32,2.47,2.47,0,0,1-.49,1.23.92.92,0,0,1-.9.37.89.89,0,0,1-.72-.64,2.57,2.57,0,0,1-.08-1.32,2.72,2.72,0,0,1,.49-1.23"/><path class="cls-4" d="M300.58,20.47a5.51,5.51,0,0,0-.45.52,5.72,5.72,0,0,0-.56.79,5.44,5.44,0,0,0-.45.86,3.65,3.65,0,0,0-.23.73l-.37-.06a5.37,5.37,0,0,1,.23-.66,4.67,4.67,0,0,1,.46-.88c.17-.27.37-.55.58-.82l.45-.55-1.72-.28.05-.29,2.06.33Z"/><path class="cls-4" d="M302.47,21.11a.6.6,0,0,0-1.13-.19,2.5,2.5,0,0,0-.37,1A2.4,2.4,0,0,0,301,23a.59.59,0,0,0,.49.51.6.6,0,0,0,.64-.32,2.5,2.5,0,0,0,.36-1,2.41,2.41,0,0,0,0-1.08m-1.34-.45a.92.92,0,0,1,1.62.26,2.58,2.58,0,0,1,.08,1.32,2.67,2.67,0,0,1-.49,1.23.89.89,0,0,1-.9.37.9.9,0,0,1-.73-.63,2.59,2.59,0,0,1-.07-1.32,2.47,2.47,0,0,1,.49-1.23"/><path class="cls-4" d="M310.25,17.6l.91-2.41-.59-.22.09-.26a.79.79,0,0,0,.25,0,.58.58,0,0,0,.47-.16.76.76,0,0,0,.15-.23l.22.09-1.22,3.24Z"/><path class="cls-4" d="M311.25,17.94a2.26,2.26,0,0,1,.34-.57,1.55,1.55,0,0,1,.77-.44l.63-.19a2.6,2.6,0,0,0,.41-.2.73.73,0,0,0,.29-.35.75.75,0,0,0,0-.53.65.65,0,0,0-.41-.38.56.56,0,0,0-.55,0,.86.86,0,0,0-.35.44l-.27-.11a1.22,1.22,0,0,1,.49-.59.86.86,0,0,1,.8-.06,1,1,0,0,1,.59.55,1,1,0,0,1,0,.76,1,1,0,0,1-.42.52,3.5,3.5,0,0,1-.55.22l-.61.19a1.59,1.59,0,0,0-.43.22,1.35,1.35,0,0,0-.29.35l1.57.59-.1.26Z"/><path class="cls-4" d="M316.05,16.8a.6.6,0,0,0-1.07-.4,2.41,2.41,0,0,0-.57.92,2.61,2.61,0,0,0-.19,1.07.63.63,0,0,0,.39.6.62.62,0,0,0,.69-.19,3,3,0,0,0,.75-2m-1.23-.7a.91.91,0,0,1,.95-.19.89.89,0,0,1,.59.77,2.55,2.55,0,0,1-.19,1.31,2.55,2.55,0,0,1-.72,1.11.92.92,0,0,1-1.54-.59,2.55,2.55,0,0,1,.19-1.31,2.46,2.46,0,0,1,.72-1.1"/><path class="cls-4" d="M309.62,24.2a.67.67,0,0,0-.4-.42.7.7,0,0,0-.58,0,1,1,0,0,0-.4.52,1,1,0,0,0,0,.66.68.68,0,0,0,.39.42.65.65,0,0,0,.58-.05,1,1,0,0,0,.42-.52,1,1,0,0,0,0-.66m.31-.07a1.28,1.28,0,0,1-.06.86,1.19,1.19,0,0,1-.58.66,1,1,0,0,1-1.31-.41,1.5,1.5,0,0,1-.12-.73,3.92,3.92,0,0,1,.72-1.74,1.53,1.53,0,0,1,.58-.46.94.94,0,0,1,.66,0,.85.85,0,0,1,.53.52,1.23,1.23,0,0,1,0,.73l-.28-.1a1,1,0,0,0,0-.51.59.59,0,0,0-.37-.35.57.57,0,0,0-.48,0,1.85,1.85,0,0,0-.38.32,2.07,2.07,0,0,0-.27.41,2.7,2.7,0,0,0-.13.33.94.94,0,0,1,.45-.21.86.86,0,0,1,.53.09.92.92,0,0,1,.5.59"/><path class="cls-4" d="M312.44,24.11a.61.61,0,0,0-1.08-.41,3,3,0,0,0-.75,2,.6.6,0,0,0,.38.59.63.63,0,0,0,.7-.19,3,3,0,0,0,.75-2m-1.23-.71a.87.87,0,0,1,.94-.18.89.89,0,0,1,.6.76,3.09,3.09,0,0,1-.91,2.42.89.89,0,0,1-.95.18.87.87,0,0,1-.59-.76,3.09,3.09,0,0,1,.91-2.42"/><path class="cls-4" d="M320.36,21.72l1.33-2.21-.54-.33.14-.23a.94.94,0,0,0,.23.1.8.8,0,0,0,.27,0A.57.57,0,0,0,322,19a.69.69,0,0,0,.19-.19l.2.12-1.78,3Z"/><path class="cls-4" d="M323.68,22a1,1,0,0,1-.14.54,1,1,0,0,1-1.45.34,1.05,1.05,0,0,1-.34-1.49l.25.16a.86.86,0,0,0-.11.56.67.67,0,0,0,.37.51.7.7,0,0,0,1-.26.58.58,0,0,0,.09-.47.68.68,0,0,0-.18-.36l-.18-.14-.18-.11L323,21l.19.11a1,1,0,0,0,.2.08.66.66,0,0,0,.37-.05.6.6,0,0,0,.3-.27.57.57,0,0,0,.09-.47.61.61,0,0,0-.31-.4.58.58,0,0,0-.54-.08.72.72,0,0,0-.37.31l-.25-.15a.92.92,0,0,1,.58-.46,1,1,0,0,1,.74.12.94.94,0,0,1,.44.59.9.9,0,0,1-.1.7.86.86,0,0,1-.41.38.83.83,0,0,1-.38.07,1.23,1.23,0,0,1,.16.5"/><path class="cls-4" d="M326.29,22a.61.61,0,0,0-.28-.66.6.6,0,0,0-.7.07,2.32,2.32,0,0,0-.72.81,2.35,2.35,0,0,0-.38,1,.6.6,0,0,0,.27.66.62.62,0,0,0,.71-.06,2.57,2.57,0,0,0,.72-.82,2.44,2.44,0,0,0,.38-1m-1.08-.92a.9.9,0,0,1,1,0,.91.91,0,0,1,.45.86,2.61,2.61,0,0,1-.42,1.26,2.57,2.57,0,0,1-.91,1,.9.9,0,0,1-1,0,.86.86,0,0,1-.44-.85,2.54,2.54,0,0,1,.42-1.25,2.6,2.6,0,0,1,.91-1"/><path class="cls-4" d="M318.87,28a1.13,1.13,0,0,1-.2.89,1.26,1.26,0,0,1-.74.57,1,1,0,0,1-.75-.1,1,1,0,0,1-.47-.63,1.17,1.17,0,0,1,.07-.74l.26.16a.83.83,0,0,0-.05.48.63.63,0,0,0,.32.46.67.67,0,0,0,.58.06,1,1,0,0,0,.49-.42.9.9,0,0,0,.18-.65.62.62,0,0,0-.29-.49.67.67,0,0,0-.45-.14,1,1,0,0,0-.35.1l-.23-.14L318.36,26l1.4.84-.15.25-1.19-.71-.66.85a.74.74,0,0,1,.39,0,.86.86,0,0,1,.35.16,1,1,0,0,1,.37.62"/><path class="cls-4" d="M321.37,28.52a.62.62,0,0,0-.28-.66.61.61,0,0,0-.71.07,2.63,2.63,0,0,0-.72.81,2.68,2.68,0,0,0-.38,1,.64.64,0,0,0,.27.66.63.63,0,0,0,.72-.07,2.52,2.52,0,0,0,.72-.81,2.68,2.68,0,0,0,.38-1m-1.09-.91a.9.9,0,0,1,1,0,.91.91,0,0,1,.45.86,2.61,2.61,0,0,1-.42,1.25,2.57,2.57,0,0,1-.91,1,.88.88,0,0,1-1,0,.9.9,0,0,1-.45-.86,2.58,2.58,0,0,1,.42-1.25,2.65,2.65,0,0,1,.91-1"/><path class="cls-4" d="M329.39,27.61l1.68-1.94-.48-.42.18-.21a.85.85,0,0,0,.21.14,1,1,0,0,0,.26.06.79.79,0,0,0,.24,0,.82.82,0,0,0,.22-.16l.18.15-2.27,2.63Z"/><path class="cls-4" d="M333.18,27l-2.21.73.91.78Zm-1.26,1.91-.43.51-.23-.19.44-.51-1.13-1,.23-.28,2.72-.87.23.19L332.1,28.7l.38.33-.18.21Z"/><path class="cls-4" d="M335.18,28.92a.63.63,0,0,0-.17-.7.61.61,0,0,0-.7,0,2.45,2.45,0,0,0-.85.68,2.55,2.55,0,0,0-.55.93.6.6,0,0,0,.88.75,2.52,2.52,0,0,0,.84-.68,2.55,2.55,0,0,0,.55-.93m-.92-1.09a.93.93,0,0,1,1.25,1.08,2.44,2.44,0,0,1-.63,1.16,2.68,2.68,0,0,1-1.05.8.93.93,0,0,1-1.25-1.08,2.5,2.5,0,0,1,.62-1.16,2.68,2.68,0,0,1,1.06-.8"/><path class="cls-4" d="M327.23,32.58,325,33.3l.91.78ZM326,34.49l-.44.5-.22-.19.44-.5-1.14-1,.24-.27,2.72-.88.23.2-1.65,1.91.38.32-.19.21Z"/><path class="cls-4" d="M329.22,34.49a.6.6,0,0,0-.87-.75,2.42,2.42,0,0,0-.84.68,2.38,2.38,0,0,0-.55.94.62.62,0,0,0,.15.69.63.63,0,0,0,.72.06,3,3,0,0,0,1.39-1.62m-.91-1.08a.92.92,0,0,1,1.25,1.07,2.71,2.71,0,0,1-.63,1.17,2.6,2.6,0,0,1-1.06.79.91.91,0,0,1-1-.16.89.89,0,0,1-.29-.92,2.68,2.68,0,0,1,.63-1.16,2.49,2.49,0,0,1,1.06-.79"/><path class="cls-4" d="M337.74,35.23l2-1.63-.4-.49.21-.18a.75.75,0,0,0,.19.17.63.63,0,0,0,.25.1.45.45,0,0,0,.23,0,.72.72,0,0,0,.25-.12l.15.18-2.68,2.2Z"/><path class="cls-4" d="M341.05,36.18a1.39,1.39,0,0,1-1.38,1.06,1,1,0,0,1-.68-.34,1,1,0,0,1-.23-.75,1.11,1.11,0,0,1,.32-.67l.19.23a.76.76,0,0,0-.21.44.62.62,0,0,0,.15.54.66.66,0,0,0,.53.25,1.12,1.12,0,0,0,.6-.23,1,1,0,0,0,.39-.55.64.64,0,0,0-.11-.56.65.65,0,0,0-.38-.28,1.23,1.23,0,0,0-.37,0l-.17-.21,1.54-1,1,1.27-.23.18-.88-1.07-.91.58a.78.78,0,0,1,.36.13,1,1,0,0,1,.43,1"/><path class="cls-4" d="M343.22,37.51a.6.6,0,0,0-.73-.89A3,3,0,0,0,340.84,38a.62.62,0,0,0,0,.71.61.61,0,0,0,.69.18,2.5,2.5,0,0,0,.95-.52,2.71,2.71,0,0,0,.7-.83m-.71-1.23a.93.93,0,0,1,1,1.28,2.59,2.59,0,0,1-.81,1,2.7,2.7,0,0,1-1.18.6.93.93,0,0,1-1.05-1.28,2.56,2.56,0,0,1,.82-1,2.65,2.65,0,0,1,1.18-.6"/><path class="cls-4" d="M334,41.06a.88.88,0,0,1-.31.46,1,1,0,0,1-.76.25,1,1,0,0,1-.71-.41,1,1,0,0,1-.24-.8,1.05,1.05,0,0,1,.41-.72l.19.23a.89.89,0,0,0-.3.49.67.67,0,0,0,.18.61.65.65,0,0,0,.49.27.69.69,0,0,0,.54-.18.59.59,0,0,0,.25-.41.81.81,0,0,0-.06-.4,1,1,0,0,0-.12-.19l-.13-.17.23-.19.15.17a.52.52,0,0,0,.16.14.69.69,0,0,0,.37.08.59.59,0,0,0,.37-.15.61.61,0,0,0,.24-.42.6.6,0,0,0-.16-.48.55.55,0,0,0-.48-.25.69.69,0,0,0-.45.16l-.19-.22a.93.93,0,0,1,.7-.24,1,1,0,0,1,.66.37.87.87,0,0,1,.21.69,1,1,0,0,1-.84.86,1,1,0,0,1-.38-.07,1,1,0,0,1,0,.52"/><path class="cls-4" d="M336.4,42a.6.6,0,0,0-.73-.89,2.58,2.58,0,0,0-.95.52,2.71,2.71,0,0,0-.7.83.62.62,0,0,0,0,.71.61.61,0,0,0,.69.18,2.5,2.5,0,0,0,.95-.52,2.6,2.6,0,0,0,.7-.83m-.71-1.23a.91.91,0,0,1,.91.32.9.9,0,0,1,.13,1,2.48,2.48,0,0,1-.82,1,2.62,2.62,0,0,1-1.17.6.93.93,0,0,1-1.05-1.28,3.08,3.08,0,0,1,2-1.64"/><path class="cls-4" d="M344.43,43.82l2.24-1.26-.31-.56.24-.13a1.08,1.08,0,0,0,.16.2.69.69,0,0,0,.22.14.47.47,0,0,0,.24,0,.59.59,0,0,0,.26-.07l.12.21-3,1.69Z"/><path class="cls-4" d="M347.23,45.31a.63.63,0,0,0,0-.58.65.65,0,0,0-.47-.33,1.11,1.11,0,0,0-1.1.62.63.63,0,0,0,0,.57.67.67,0,0,0,.48.34,1,1,0,0,0,.65-.13,1,1,0,0,0,.45-.49m.28.15a1.26,1.26,0,0,1-.59.62,1.3,1.3,0,0,1-.87.14,1,1,0,0,1-.64-.48.9.9,0,0,1-.1-.69,1.48,1.48,0,0,1,.38-.63,3,3,0,0,1,.74-.52,3,3,0,0,1,.92-.35,1.4,1.4,0,0,1,.74,0,1,1,0,0,1,.51.43.84.84,0,0,1,.07.74,1.17,1.17,0,0,1-.43.58l-.15-.26a.88.88,0,0,0,.29-.41.55.55,0,0,0-.05-.51.54.54,0,0,0-.37-.3,1.34,1.34,0,0,0-.49,0A1.79,1.79,0,0,0,347,44l-.31.16a1,1,0,0,1,.48.14.77.77,0,0,1,.35.4.89.89,0,0,1,0,.78"/><path class="cls-4" d="M349.45,47.05a.61.61,0,0,0,.08-.71.61.61,0,0,0-.64-.29,2.43,2.43,0,0,0-1,.35,2.46,2.46,0,0,0-.83.7.59.59,0,0,0-.09.7.63.63,0,0,0,.65.3,2.68,2.68,0,0,0,1-.35,2.56,2.56,0,0,0,.83-.7M349,45.72a.93.93,0,0,1,.81,1.44,2.62,2.62,0,0,1-1,.88,2.48,2.48,0,0,1-1.26.38.88.88,0,0,1-.85-.47.86.86,0,0,1,0-1,2.5,2.5,0,0,1,1-.88,2.61,2.61,0,0,1,1.27-.39"/><path class="cls-4" d="M337.5,48a2.61,2.61,0,0,1,.63-.22,1.62,1.62,0,0,1,.88.16l.6.25a1.93,1.93,0,0,0,.44.12.74.74,0,0,0,.45-.08.77.77,0,0,0,.36-.4.62.62,0,0,0-.07-.54.57.57,0,0,0-.45-.33.8.8,0,0,0-.54.11l-.15-.26a1.24,1.24,0,0,1,.76-.14.87.87,0,0,1,.65.48.94.94,0,0,1,.1.79,1.05,1.05,0,0,1-.51.57,1,1,0,0,1-.66.12,3.45,3.45,0,0,1-.57-.18l-.58-.25a1.58,1.58,0,0,0-.47-.1,1.12,1.12,0,0,0-.45.08l.82,1.46-.24.13Z"/><path class="cls-4" d="M341.92,50.21a.61.61,0,0,0-.57-1,2.58,2.58,0,0,0-1,.35,2.37,2.37,0,0,0-.83.7.6.6,0,0,0-.1.7.63.63,0,0,0,.66.3,2.58,2.58,0,0,0,1-.35,2.61,2.61,0,0,0,.84-.69m-.49-1.34a.93.93,0,0,1,.81,1.44,2.54,2.54,0,0,1-1,.88,2.61,2.61,0,0,1-1.27.39.9.9,0,0,1-.84-.48.86.86,0,0,1,0-1,2.58,2.58,0,0,1,1-.88,2.61,2.61,0,0,1,1.27-.39"/><path class="cls-4" d="M349.6,54l2.43-.84-.21-.6.26-.09a.78.78,0,0,0,.12.22.55.55,0,0,0,.19.18.52.52,0,0,0,.23.08.63.63,0,0,0,.27,0l.08.22-3.27,1.14Z"/><path class="cls-4" d="M353.53,55.81c-.12,0-.34-.08-.68-.15a8.4,8.4,0,0,0-1-.11,6.36,6.36,0,0,0-1,0,3.24,3.24,0,0,0-.74.14l-.13-.35a6,6,0,0,1,.68-.12,5.51,5.51,0,0,1,1,0,9.06,9.06,0,0,1,1,.12l.69.14-.57-1.65.28-.1.69,2Z"/><path class="cls-4" d="M353.87,57.78a.62.62,0,0,0,.21-.69.61.61,0,0,0-.59-.39,2.92,2.92,0,0,0-2,.7.58.58,0,0,0-.21.67.61.61,0,0,0,.59.41,2.92,2.92,0,0,0,2-.7m-.25-1.4a.9.9,0,0,1,.75.61.89.89,0,0,1-.21.95,2.66,2.66,0,0,1-1.12.7,2.6,2.6,0,0,1-1.31.15.88.88,0,0,1-.75-.61.89.89,0,0,1,.2-1,3.12,3.12,0,0,1,2.44-.85"/><path class="cls-4" d="M342.3,57.72l2.43-.85-.2-.6.26-.09a1,1,0,0,0,.11.23.85.85,0,0,0,.2.17.52.52,0,0,0,.23.08.63.63,0,0,0,.27,0l.08.23L342.4,58Z"/><path class="cls-4" d="M345.85,59.41a.64.64,0,0,0,.21-.69.61.61,0,0,0-.59-.4,2.53,2.53,0,0,0-1.07.16,2.4,2.4,0,0,0-.94.54.62.62,0,0,0-.22.68.63.63,0,0,0,.6.41,2.58,2.58,0,0,0,1.07-.17,2.7,2.7,0,0,0,.94-.53M345.6,58a.92.92,0,0,1,.54,1.56,2.56,2.56,0,0,1-1.12.69,2.65,2.65,0,0,1-1.32.16.93.93,0,0,1-.54-1.56,2.7,2.7,0,0,1,1.13-.7A2.59,2.59,0,0,1,345.6,58"/><path class="cls-4" d="M352.73,64.09l2.54-.42-.11-.63.28,0a.84.84,0,0,0,.07.24,1,1,0,0,0,.16.21.65.65,0,0,0,.22.11.6.6,0,0,0,.27,0l0,.23-3.42.57Z"/><path class="cls-4" d="M354.61,66.54a.81.81,0,0,0,.11-.61.83.83,0,0,0-.3-.56.74.74,0,0,0-1,.17.82.82,0,0,0-.12.63.79.79,0,0,0,.31.54.71.71,0,0,0,.54.13.67.67,0,0,0,.48-.3m.71-.18a.61.61,0,0,0,.46.1.59.59,0,0,0,.4-.25.72.72,0,0,0,.1-.54.67.67,0,0,0-.27-.49.58.58,0,0,0-.46-.1.59.59,0,0,0-.4.24.69.69,0,0,0-.09.55.67.67,0,0,0,.26.49m-.63.55a1,1,0,0,1-.51.25,1,1,0,0,1-.76-.2,1.12,1.12,0,0,1-.44-.74,1.17,1.17,0,0,1,.17-.85,1,1,0,0,1,.67-.44.94.94,0,0,1,.55.08,1.2,1.2,0,0,1,.43.33,1,1,0,0,1,.26-.36.83.83,0,0,1,.43-.21.89.89,0,0,1,.7.17,1,1,0,0,1,.39.68,1,1,0,0,1-.15.76.89.89,0,0,1-.61.39.82.82,0,0,1-.47,0,1.11,1.11,0,0,1-.36-.26,1.27,1.27,0,0,1-.3.45"/><path class="cls-4" d="M356.35,68.88a.61.61,0,0,0-.19-1.14,2.57,2.57,0,0,0-1.08,0,2.5,2.5,0,0,0-1,.37.6.6,0,0,0-.32.63.64.64,0,0,0,.51.51,2.58,2.58,0,0,0,1.08,0,2.65,2.65,0,0,0,1-.36m0-1.42a.9.9,0,0,1,.64.72.89.89,0,0,1-.37.9,2.53,2.53,0,0,1-1.22.5,2.69,2.69,0,0,1-1.32-.07.9.9,0,0,1-.64-.74.88.88,0,0,1,.37-.89,2.57,2.57,0,0,1,1.22-.49,2.47,2.47,0,0,1,1.32.07"/><path class="cls-4" d="M348,68.08a.6.6,0,0,0,.32-.64.62.62,0,0,0-.51-.49,2.41,2.41,0,0,0-1.08,0,2.5,2.5,0,0,0-1,.37.61.61,0,0,0-.33.63.64.64,0,0,0,.52.5,2.57,2.57,0,0,0,1.08,0,2.5,2.5,0,0,0,1-.37m0-1.42a.92.92,0,0,1,.64.73.9.9,0,0,1-.37.9,2.57,2.57,0,0,1-1.22.49,2.47,2.47,0,0,1-1.32-.07.89.89,0,0,1-.64-.73.88.88,0,0,1,.37-.89,2.57,2.57,0,0,1,1.22-.5,2.69,2.69,0,0,1,1.32.07"/><polyline class="cls-5" points="373.21 63.35 290.64 77.92 208.94 70.59"/><path class="cls-6" d="M281.84,77a8.94,8.94,0,0,1,17.73-.68"/></g></g></svg>