<svg xmlns="http://www.w3.org/2000/svg" viewBox="0 0 274.71 84.19"><defs><style>.cls-1,.cls-2{fill:none;}.cls-1{stroke:#000;stroke-linejoin:round;stroke-width:0.8px;}.cls-2{stroke:#e4007f;stroke-width:0.3px;}.cls-3{fill:#e4007f;}</style></defs><title>자산 1</title><g id="레이어_2" data-name="레이어 2"><g id="레이어_1-2" data-name="레이어 1"><polyline class="cls-1" points="15.19 84.12 0.4 0.4 85.44 0.4"/><path class="cls-2" d="M12.3.37c0,.35,0,.7,0,1A10.27,10.27,0,0,1,2.08,11.69"/><polyline class="cls-1" points="189.27 45.81 274.31 45.81 194.14 74.97"/><path class="cls-2" d="M242.37,66.54c-.87-9.75,7.86-16.15,10.94-16.65m4,2.3a9.45,9.45,0,0,1-1.17-6.77"/><path class="cls-3" d="M252.59,50.1l-1.09-.84,0,0,2.07,0,2-.31c-.57.38-1.14.76-1.72,1.13l-1.52,1.4h0Z"/></g></g></svg>