<?xml version="1.0" encoding="utf-8"?>
<!-- Generator: Adobe Illustrator 23.0.0, SVG Export Plug-In . SVG Version: 6.00 Build 0)  -->
<svg version="1.1" id="레이어_1" xmlns="http://www.w3.org/2000/svg" xmlns:xlink="http://www.w3.org/1999/xlink" x="0px"
	 y="0px" width="535px" height="340px" viewBox="0 0 535 340" style="enable-background:new 0 0 535 340;" xml:space="preserve">
<title>3_4_4_01</title>
<g id="레이어_2_1_">
	<g id="활동3-3-1">
		<g>
			<g>
				<g>
					<g>
						<g>
							<path style="fill:#367C3E;" d="M514,206.3H140.4c-10.5,0.1-19-8.4-19.1-18.9c0-0.1,0-0.1,0-0.2v-35.8
								c-0.1-10.5,8.5-19.1,19-19.2h0.1H514c10.6,0,19.2,8.6,19.2,19.2l0,0v35.8c0,10.5-8.6,19.1-19.1,19.1
								C514.1,206.3,514,206.3,514,206.3z M140.4,134.8c-9.2,0-16.6,7.4-16.6,16.6l0,0v35.8c0,9.2,7.4,16.6,16.6,16.6H514
								c9.2,0.1,16.6-7.3,16.7-16.5v-0.1v-35.8c0-9.2-7.4-16.6-16.6-16.6H514H140.4z"/>
							<path style="fill:#367C3E;" d="M430.4,205.1h-1.6v-0.6h1.6V205.1z M328,205.1h-1.6v-0.6h1.6V205.1z M225.7,205.1h-1.6v-0.6
								h1.6V205.1z M430.4,201.4h-1.6v-4.8h1.6V201.4z M328,201.4h-1.6v-4.8h1.6V201.4z M225.7,201.4h-1.6v-4.8h1.6V201.4z
								 M430.4,193.5h-1.6v-4.8h1.6V193.5z M328,193.5h-1.6v-4.8h1.6V193.5z M225.7,193.5h-1.6v-4.8h1.6V193.5z M430.4,185.6h-1.6
								v-4.7h1.6V185.6z M328,185.6h-1.6v-4.7h1.6V185.6z M225.7,185.6h-1.6v-4.7h1.6V185.6z M430.4,177.7h-1.6V173h1.6V177.7z
								 M328,177.7h-1.6V173h1.6V177.7z M225.7,177.7h-1.6V173h1.6V177.7z M430.4,169.8h-1.6v-4.7h1.6V169.8z M328,169.8h-1.6v-4.7
								h1.6V169.8z M225.7,169.8h-1.6v-4.7h1.6V169.8z M430.4,161.9h-1.6v-4.7h1.6V161.9z M328,161.9h-1.6v-4.7h1.6V161.9z
								 M225.7,161.9h-1.6v-4.7h1.6V161.9z M430.4,154h-1.6v-4.7h1.6V154z M328,154h-1.6v-4.7h1.6V154z M225.7,154h-1.6v-4.7h1.6
								V154z M430.4,146.1h-1.6v-4.7h1.6V146.1z M328,146.1h-1.6v-4.7h1.6V146.1z M225.7,146.1h-1.6v-4.7h1.6V146.1z M430.4,138.2
								h-1.6v-4.7h1.6V138.2z M328,138.2h-1.6v-4.7h1.6V138.2z M225.7,138.2h-1.6v-4.7h1.6V138.2z"/>
							<path style="fill:#367C3E;" d="M514,336.8H140.4c-10.5,0-19.1-8.6-19.1-19.1v-0.1v-35.7c-0.1-10.5,8.5-19.1,19-19.2h0.1H514
								c10.6,0,19.2,8.6,19.2,19.2l0,0v35.7C533.2,328.2,524.6,336.8,514,336.8z M140.4,265.2c-9.2,0-16.6,7.4-16.6,16.6v0.1v35.7
								c-0.1,9.2,7.3,16.6,16.5,16.7h0.1H514c9.2,0,16.7-7.5,16.7-16.7l0,0v-35.7c0-9.2-7.5-16.7-16.7-16.7l0,0H140.4L140.4,265.2z"
								/>
							<path style="fill:#367C3E;" d="M430.4,335.5h-1.6V335h1.6V335.5z M328,335.5h-1.6V335h1.6V335.5z M225.7,335.5h-1.6V335h1.6
								V335.5z M430.4,331.8h-1.6v-4.7h1.6V331.8z M328,331.8h-1.6v-4.7h1.6V331.8z M225.7,331.8h-1.6v-4.7h1.6V331.8z M430.4,323.9
								h-1.6v-4.7h1.6V323.9z M328,323.9h-1.6v-4.7h1.6V323.9z M225.7,323.9h-1.6v-4.7h1.6V323.9z M430.4,316h-1.6v-4.7h1.6V316z
								 M328,316h-1.6v-4.7h1.6V316z M225.7,316h-1.6v-4.7h1.6V316z M430.4,308.1h-1.6v-4.7h1.6V308.1z M328,308.1h-1.6v-4.7h1.6
								V308.1z M225.7,308.1h-1.6v-4.7h1.6V308.1z M430.4,300.3h-1.6v-4.8h1.6V300.3z M328,300.3h-1.6v-4.8h1.6V300.3z M225.7,300.3
								h-1.6v-4.8h1.6V300.3z M430.4,292.4h-1.6v-4.8h1.6V292.4z M328,292.4h-1.6v-4.8h1.6V292.4z M225.7,292.4h-1.6v-4.8h1.6V292.4
								z M430.4,284.5h-1.6v-4.8h1.6V284.5z M328,284.5h-1.6v-4.8h1.6V284.5z M225.7,284.5h-1.6v-4.8h1.6V284.5z M430.4,276.6h-1.6
								v-4.7h1.6V276.6z M328,276.6h-1.6v-4.7h1.6V276.6z M225.7,276.6h-1.6v-4.7h1.6V276.6z M430.4,268.7h-1.6V264h1.6V268.7z
								 M328,268.7h-1.6V264h1.6V268.7z M225.7,268.7h-1.6V264h1.6V268.7z"/>
							<path style="fill:#D02E7D;" d="M108.1,158.4c-20.8-16-31-41.3-27.3-67.5c3.4-23.7,17.6-43.7,36.1-50.9l0.9,2.3
								c-17.7,6.9-31.2,26.1-34.5,48.9c-3.7,25.8,5.9,49.5,26.4,65.2L108.1,158.4z"/>
							<polygon style="fill:#D02E7D;" points="117.1,164.3 101.6,159.2 108.3,156.8 109.6,149.8 							"/>
							<path style="fill:#D02E7D;" d="M108.5,300.8c-52.6-18.7-86.1-71.2-85.2-133.7c0.6-49.4,25.6-110,93.7-132.3l0.8,2.4
								c-66.9,21.8-91.4,81.5-92,130c-0.8,61.4,32,112.9,83.5,131.3L108.5,300.8z"/>
							<polygon style="fill:#D02E7D;" points="118.7,303.8 102.5,303.6 108.2,299.3 107.3,292.2 							"/>
							<rect x="76.9" y="58.6" style="fill:#FFFFFF;" width="26.5" height="79.2"/>
						</g>
					</g>
				</g>
			</g>
			<g>
				<path d="M83.8,128.8c0,0.9,0.2,1.4,0.6,1.5c0.7,0.2,1.5,0.4,2.2,0.4c0.5,0,0.8,0.1,0.8,0.8s-0.4,0.7-1,0.7h-9.3
					c-0.5,0-0.9,0-0.9-0.7s0.2-0.8,0.8-0.8c0.8,0,1.7-0.1,2.5-0.4c0.4-0.1,0.6-0.6,0.6-1.5v-16.9c0-0.8-0.2-1.3-0.5-1.4h-3
					c-0.5,0-1-0.2-1-0.8s0.2-0.8,0.8-0.9c2.1-0.5,4.2-1.4,6.1-2.5l0,0c0.7-0.5,1.5-0.3,1.4,0.6s-0.1,2.9-0.1,4.3V128.8z"/>
				<path d="M101.5,132.6c-5.5,0-8.9-4-8.9-13.2s3.4-13.1,8.9-13.1s8.8,4.1,8.8,13.1c0,4.6-0.9,7.9-2.4,10
					C106.5,131.5,104,132.7,101.5,132.6z M106.4,119.4c0-7.5-1.5-11.1-4.9-11.1s-4.9,3.7-4.9,11.1s1.5,11.2,4.9,11.2
					S106.4,127,106.4,119.4z"/>
			</g>
			<path d="M94.6,93.7c0,0.9,0.2,1.4,0.6,1.5c0.7,0.2,1.4,0.4,2.1,0.4c0.6,0,0.9,0.1,0.9,0.8c0,0.7-0.5,0.7-1,0.7h-9.3
				c-0.5,0-0.9,0-0.9-0.7s0.2-0.8,0.8-0.8c0.8,0,1.7-0.1,2.5-0.4c0.4-0.1,0.6-0.6,0.6-1.5V76.8c0-0.8-0.2-1.3-0.6-1.4h-2.9
				c-0.6,0-1-0.2-1-0.8s0.2-0.8,0.8-0.9c2.1-0.5,4.2-1.4,6.1-2.5l0,0c0.6-0.5,1.5-0.3,1.4,0.6s-0.1,2.9-0.1,4.3V93.7z"/>
			<g>
				<rect x="71.3" y="101.9" width="40.9" height="1.2"/>
				<path style="fill:#D02E7D;" d="M105.8,291.4c-19.2-14.6-28.9-38.6-25.3-62.5c3.1-21.9,16.2-40.4,33.4-47.1l0.8,2.2
					c-16.4,6.3-28.9,24.1-31.9,45.2c-3.4,23.9,5.5,45.8,24.4,60.3L105.8,291.4z"/>
				<polygon style="fill:#D02E7D;" points="114,296.9 99.7,292.1 105.9,290 107.1,283.5 				"/>
				<rect x="72" y="199" style="fill:#FFFFFF;" width="29.4" height="73.4"/>
			</g>
			<g>
				<path d="M83.8,261.6c0,0.9,0.2,1.4,0.6,1.5c0.7,0.2,1.5,0.4,2.2,0.4c0.5,0,0.8,0.1,0.8,0.8c0,0.7-0.4,0.7-1,0.7h-9.3
					c-0.5,0-0.9,0-0.9-0.7s0.2-0.8,0.8-0.8c0.8,0,1.7-0.1,2.5-0.4c0.4-0.1,0.6-0.6,0.6-1.5v-16.9c0-0.8-0.2-1.3-0.5-1.4h-3
					c-0.5,0-1-0.2-1-0.8s0.2-0.8,0.8-0.9c2.1-0.5,4.2-1.4,6.1-2.5l0,0c0.7-0.5,1.5-0.3,1.4,0.6s-0.1,2.9-0.1,4.3V261.6z"/>
				<path d="M101.5,265.4c-5.5,0-8.9-4-8.9-13.2s3.4-13.1,8.9-13.1s8.8,4.1,8.8,13.1c0,4.6-0.9,7.9-2.4,10
					C106.5,264.3,104,265.5,101.5,265.4z M106.4,252.2c0-7.5-1.5-11.1-4.9-11.1s-4.9,3.7-4.9,11.1s1.5,11.2,4.9,11.2
					S106.4,259.8,106.4,252.2L106.4,252.2z"/>
			</g>
			<path d="M94.6,226.5c0,0.9,0.2,1.4,0.6,1.5c0.7,0.2,1.4,0.4,2.1,0.4c0.6,0,0.9,0.1,0.9,0.8s-0.5,0.7-1,0.7h-9.3
				c-0.5,0-0.9,0-0.9-0.7s0.2-0.8,0.8-0.8c0.8,0,1.7-0.1,2.5-0.4c0.4-0.1,0.6-0.6,0.6-1.5v-16.9c0-0.8-0.2-1.3-0.6-1.4h-2.9
				c-0.6,0-1-0.2-1-0.8s0.2-0.8,0.8-0.9c2.1-0.5,4.2-1.4,6.1-2.5l0,0c0.6-0.5,1.5-0.3,1.4,0.6s-0.1,2.9-0.1,4.3V226.5z"/>
			<g>
				<rect x="71.3" y="234.7" width="40.9" height="1.2"/>
				<rect x="22.5" y="143.7" style="fill:#FFFFFF;" width="44.1" height="70.5"/>
			</g>
			<g>
				<path d="M12.3,205c0,0.9,0.2,1.4,0.6,1.5c0.7,0.3,1.4,0.4,2.1,0.4c0.6,0,0.8,0.2,0.8,0.8s-0.4,0.8-0.9,0.8H5.6
					c-0.5,0-1-0.1-1-0.8s0.3-0.8,0.9-0.8c0.9,0,1.7-0.1,2.5-0.4c0.4-0.1,0.6-0.6,0.6-1.5v-16.9c0-0.8-0.2-1.3-0.6-1.3
					c-1-0.2-1.9-0.2-2.9-0.2c-0.6,0-1-0.1-1-0.8s0.2-0.8,0.8-0.9c2.1-0.6,4.2-1.4,6.1-2.4h-0.1c0.7-0.6,1.6-0.4,1.5,0.5
					s-0.1,2.9-0.1,4.3C12.3,187.3,12.3,205,12.3,205z"/>
				<path d="M29.9,208.8c-5.4,0-8.8-4-8.8-13.1s3.4-13.2,8.8-13.2s8.8,4.1,8.8,13.2c0,4.5-0.8,7.8-2.4,10
					C34.8,207.8,32.4,208.9,29.9,208.8z M34.9,195.7c0-7.6-1.6-11.2-5-11.2s-4.9,3.7-4.9,11.2s1.5,11.1,4.9,11.1
					S34.9,203.3,34.9,195.7z"/>
				<path d="M50,208.8c-5.5,0-8.9-4-8.9-13.1s3.4-13.2,8.9-13.2s8.8,4.1,8.8,13.2c0,4.5-0.9,7.8-2.4,10
					C54.9,207.8,52.5,208.9,50,208.8z M54.9,195.7c0-7.6-1.5-11.2-4.9-11.2s-4.9,3.7-4.9,11.2s1.5,11.1,4.9,11.1
					S54.9,203.3,54.9,195.7z"/>
			</g>
			<path d="M32.8,169.9c0,0.9,0.2,1.4,0.6,1.5c0.7,0.3,1.4,0.4,2.1,0.4c0.6,0,0.9,0.2,0.9,0.8s-0.5,0.8-1,0.8h-9.3
				c-0.5,0-0.9-0.1-0.9-0.8s0.2-0.8,0.8-0.8c0.9,0,1.7-0.1,2.5-0.4c0.4-0.1,0.6-0.6,0.6-1.5V153c0-0.8-0.2-1.3-0.6-1.3
				c-1-0.2-1.9-0.2-2.9-0.2c-0.6,0-1-0.1-1-0.8s0.2-0.7,0.8-0.9c2.1-0.5,4.2-1.4,6.1-2.4l0,0c0.6-0.6,1.5-0.4,1.4,0.5
				s-0.1,2.9-0.1,4.3C32.8,152.2,32.8,169.9,32.8,169.9z"/>
			<rect x="2" y="177.1" width="55.8" height="1.2"/>
			<path d="M227.8,196.1c0,1.6-1.3,2.9-2.9,2.9s-2.9-1.3-2.9-2.9s1.3-2.9,2.9-2.9l0,0C226.5,193.2,227.8,194.5,227.8,196.1"/>
			<path style="fill:#367C3E;" d="M514,76.1H140.4c-10.5,0.1-19-8.4-19.1-18.9c0-0.1,0-0.1,0-0.2V21.2c-0.1-10.5,8.5-19.1,19-19.2
				h0.1H514c10.6,0,19.2,8.6,19.2,19.2l0,0V57c0,10.5-8.6,19.1-19.1,19.1C514.1,76.1,514,76.1,514,76.1z M140.4,4.6
				c-9.2,0-16.6,7.4-16.6,16.6l0,0V57c0,9.2,7.4,16.6,16.6,16.6H514c9.2,0.1,16.6-7.3,16.7-16.5V57V21.2c0-9.2-7.4-16.6-16.6-16.6
				H514C514,4.6,140.4,4.6,140.4,4.6z"/>
			<path style="fill:#367C3E;" d="M430.4,74.9h-1.6v-0.6h1.6V74.9z M328,74.9h-1.6v-0.6h1.6V74.9z M225.7,74.9h-1.6v-0.6h1.6V74.9z
				 M430.4,71.2h-1.6v-4.8h1.6V71.2z M328,71.2h-1.6v-4.8h1.6V71.2z M225.7,71.2h-1.6v-4.8h1.6V71.2z M430.4,63.3h-1.6v-4.8h1.6
				V63.3z M328,63.3h-1.6v-4.8h1.6V63.3z M225.7,63.3h-1.6v-4.8h1.6V63.3z M430.4,55.4h-1.6v-4.7h1.6V55.4z M328,55.4h-1.6v-4.7h1.6
				V55.4z M225.7,55.4h-1.6v-4.7h1.6V55.4z M430.4,47.5h-1.6v-4.7h1.6V47.5z M328,47.5h-1.6v-4.7h1.6V47.5z M225.7,47.5h-1.6v-4.7
				h1.6V47.5z M430.4,39.6h-1.6v-4.7h1.6V39.6z M328,39.6h-1.6v-4.7h1.6V39.6z M225.7,39.6h-1.6v-4.7h1.6V39.6z M430.4,31.7h-1.6V27
				h1.6V31.7z M328,31.7h-1.6V27h1.6V31.7z M225.7,31.7h-1.6V27h1.6V31.7z M430.4,23.8h-1.6v-4.7h1.6V23.8z M328,23.8h-1.6v-4.7h1.6
				V23.8z M225.7,23.8h-1.6v-4.7h1.6V23.8z M430.4,15.9h-1.6v-4.7h1.6V15.9z M328,15.9h-1.6v-4.7h1.6V15.9z M225.7,15.9h-1.6v-4.7
				h1.6V15.9z M430.4,8h-1.6V3.3h1.6V8z M328,8h-1.6V3.3h1.6V8z M225.7,8h-1.6V3.3h1.6V8z"/>
			<path d="M227.8,65.9c0,1.6-1.3,2.9-2.9,2.9s-2.9-1.3-2.9-2.9s1.3-2.9,2.9-2.9l0,0C226.5,63,227.8,64.3,227.8,65.9"/>
			<path d="M227.8,316.6c0,1.6-1.3,2.9-2.9,2.9c-1.6,0-2.9-1.3-2.9-2.9s1.3-2.9,2.9-2.9l0,0C226.5,313.7,227.8,315,227.8,316.6"/>
		</g>
	</g>
</g>
</svg>
