<svg xmlns="http://www.w3.org/2000/svg" xmlns:xlink="http://www.w3.org/1999/xlink" viewBox="0 0 177.81 68.51"><defs><style>.cls-1,.cls-5{fill:none;}.cls-2{font-size:12.74px;font-family:MaplestoryLight, Maplestory;}.cls-2,.cls-6{fill:#231815;}.cls-3{letter-spacing:0.63em;}.cls-4{clip-path:url(#clip-path);}.cls-5{stroke:#231815;stroke-linejoin:round;stroke-width:0.8px;}</style><clipPath id="clip-path" transform="translate(0 0)"><rect class="cls-1" x="62.43" width="117.69" height="72.79"/></clipPath></defs><title>자산 1</title><g id="레이어_2" data-name="레이어 2"><g id="레이어_1-2" data-name="레이어 1"><text class="cls-2" transform="translate(0 40.29) scale(1 1.02)"><tspan class="cls-3" xml:space="preserve">    </tspan><tspan x="45.61" y="0"> </tspan></text><g class="cls-4"><polyline class="cls-5" points="173.86 0.23 133.29 58.24 62.43 58.24"/><path class="cls-6" d="M77.11,58.14a1.42,1.42,0,1,1-1.42-1.42,1.43,1.43,0,0,1,1.42,1.42" transform="translate(0 0)"/><path class="cls-6" d="M134.94,58.14a1.42,1.42,0,1,1-1.42-1.42,1.42,1.42,0,0,1,1.42,1.42" transform="translate(0 0)"/><path class="cls-6" d="M168.28,10.47a1.42,1.42,0,1,1-1.42-1.41,1.42,1.42,0,0,1,1.42,1.41" transform="translate(0 0)"/><path class="cls-6" d="M73.18,65.91a.4.4,0,0,0-.13-.34,1.35,1.35,0,0,0-.39-.16c-.25-.06-.35-.12-.33-.19s.16-.11.43-.15a1.52,1.52,0,0,1,.57,0l.59.12h4.31V63.08l-3.3,0a2,2,0,0,0-.43.07l-.22,0a4.21,4.21,0,0,0-.46.13c-.24.08-.64-.06-1.23-.39-.14-.08-.18-.16-.11-.22a.69.69,0,0,1,.51-.07l.69.06.71,0h1.83a7.4,7.4,0,0,0,1.9-.11.9.9,0,0,1,.38-.12.91.91,0,0,1,.47.07q.34.13.21.27a.62.62,0,0,0-.18.35l-.19,2a.63.63,0,0,0,.2,0c.13,0,.2,0,.2.17a.17.17,0,0,1-.13.16,2,2,0,0,1-.43,0H73.92v1.79a.47.47,0,0,0,.15.34.59.59,0,0,0,.33.11h2.86a1.28,1.28,0,0,0,.43-.06,1.9,1.9,0,0,0,.42-.18,1.06,1.06,0,0,1,.54-.14,2.39,2.39,0,0,1,.68.06c.37.08.53.22.48.41s-.25.29-.6.29h-4.8a3.22,3.22,0,0,1-.84-.11c-.26-.07-.39-.32-.39-.72Z" transform="translate(0 0)"/><path class="cls-6" d="M134.64,63a10.87,10.87,0,0,0,2.08-.08.8.8,0,0,1,.45-.18,1,1,0,0,1,.54.13c.25.13.31.24.17.32a.44.44,0,0,0-.23.41l-.23,3.93.25,0c.15,0,.23.06.23.15a.18.18,0,0,1-.16.2,1.35,1.35,0,0,1-.37,0h-5a.93.93,0,0,1-.12.44.3.3,0,0,1-.24.15.24.24,0,0,1-.22-.16,2.07,2.07,0,0,1-.09-.53l-.11-4.19a.49.49,0,0,0-.21-.38,2.2,2.2,0,0,0-.53-.17c-.13-.05-.16-.11-.08-.18a1,1,0,0,1,.55-.13,1.55,1.55,0,0,1,.68.08,1.42,1.42,0,0,0,.5.11h2.11m-2.21,4.53h4.37V63.35h-4.37Z" transform="translate(0 0)"/><path class="cls-6" d="M172.79,13.71a.31.31,0,0,1-.33.28c-.12,0-.21-.1-.26-.28a4,4,0,0,1-.07-.82V9.39c0-.22,0-.36-.15-.43a2.89,2.89,0,0,0-.57-.24.27.27,0,0,1-.12-.15c0-.06.13-.11.47-.15.14,0,.28,0,.4.06l.46.13c.21.06.3.14.28.25a1.38,1.38,0,0,0,0,.38v1H177V8.92a.47.47,0,0,0-.16-.39,1.7,1.7,0,0,0-.49-.24c-.12,0-.18-.1-.19-.16s.16-.11.48-.12a1.37,1.37,0,0,1,.38.05,2,2,0,0,1,.47.14c.25.08.34.17.31.28a1.19,1.19,0,0,0-.07.47v3.67a3.61,3.61,0,0,1-.1.9c-.07.23-.17.34-.34.34s-.27-.08-.27-.22,0-.21,0-.22h-4.17a1.61,1.61,0,0,1-.06.29M177,10.63h-4.15V13H177Z" transform="translate(0 0)"/></g></g></g></svg>