<?xml version="1.0" encoding="utf-8"?>
<!-- Generator: Adobe Illustrator 23.0.0, SVG Export Plug-In . SVG Version: 6.00 Build 0)  -->
<svg version="1.1" id="Layer_1" xmlns="http://www.w3.org/2000/svg" xmlns:xlink="http://www.w3.org/1999/xlink" x="0px" y="0px"
	 width="1195.3px" height="332.3px" viewBox="0 0 1195.3 332.3" style="enable-background:new 0 0 1195.3 332.3;"
	 xml:space="preserve">
<g>
	
		<line style="fill:none;stroke:#000100;stroke-width:1.5;stroke-linecap:round;stroke-linejoin:round;stroke-miterlimit:10;stroke-dasharray:3,3;" x1="946.8" y1="3.7" x2="946.8" y2="328.2"/>
	
		<line style="fill:none;stroke:#000100;stroke-width:1.5;stroke-linecap:round;stroke-linejoin:round;stroke-miterlimit:10;stroke-dasharray:3,3;" x1="883.9" y1="3.7" x2="883.9" y2="328.2"/>
	
		<line style="fill:none;stroke:#000100;stroke-width:1.5;stroke-linecap:round;stroke-linejoin:round;stroke-miterlimit:10;stroke-dasharray:3,3;" x1="821" y1="3.7" x2="821" y2="328.2"/>
	
		<line style="fill:none;stroke:#000100;stroke-width:1.5;stroke-linecap:round;stroke-linejoin:round;stroke-miterlimit:10;" x1="719.1" y1="129.4" x2="955.5" y2="129.4"/>
	
		<line style="fill:none;stroke:#000100;stroke-width:1.5;stroke-linecap:round;stroke-linejoin:round;stroke-miterlimit:10;" x1="719.1" y1="274.9" x2="955.5" y2="274.9"/>
	<g>
		<g>
			<path style="fill:#2888BF;" d="M852.7,17.1c1.6,0,3,0.2,4.2,0.6s2.2,1,3,1.7s1.4,1.5,1.8,2.5c0.4,0.9,0.6,2,0.6,3v0.4
				c0,1.6-0.3,3.1-1,4.5s-1.8,2.8-3.2,4.3l-9.9,10.4h14c0.5,0,0.9,0.2,1.1,0.5s0.4,0.8,0.4,1.3s-0.1,0.9-0.4,1.3
				c-0.2,0.4-0.6,0.5-1.1,0.5h-16.6c-1.1,0-1.9-0.2-2.4-0.6c-0.5-0.4-0.7-1-0.7-1.8c0-0.4,0.1-0.7,0.3-1.1c0.2-0.3,0.5-0.8,1-1.2
				l10.5-11.1c0.8-0.8,1.4-1.5,1.9-2.1s0.9-1.2,1.1-1.7c0.3-0.5,0.5-1.1,0.6-1.6s0.2-1.1,0.2-1.6v-0.2c0-1.3-0.4-2.3-1.3-3
				c-0.9-0.7-2.2-1.1-3.9-1.1c-1.4,0-2.6,0.3-3.6,0.9s-1.8,1.4-2.6,2.6c-0.3,0.4-0.7,0.7-1.2,0.8s-0.9,0-1.4-0.4
				c-0.5-0.3-0.8-0.7-0.9-1.2c-0.1-0.5,0-1,0.3-1.5c0.9-1.4,2.1-2.6,3.7-3.6C848.6,17.6,850.5,17.1,852.7,17.1z"/>
		</g>
	</g>
	<g>
		<g>
			<path style="fill:#377F45;" d="M794.3,17.3c0.8,0,1.5,0.2,2.1,0.6c0.5,0.4,0.8,1,0.8,1.8v26.4c0,0.8-0.3,1.4-0.8,1.8
				c-0.5,0.4-1.2,0.6-1.9,0.6s-1.4-0.2-1.9-0.6c-0.5-0.4-0.8-1-0.8-1.8V23.8l-5.5,3.2c-0.7,0.4-1.4,0.5-2,0.2
				c-0.6-0.2-1.1-0.7-1.5-1.3c-0.3-0.6-0.4-1.2-0.3-1.8c0.1-0.7,0.5-1.2,1.2-1.5l7.3-4c0.7-0.4,1.4-0.7,1.9-0.9
				C793.3,17.4,793.8,17.3,794.3,17.3z"/>
		</g>
	</g>
	<g>
		<g>
			<path style="fill:#377F45;" d="M790.9,232.9c1.7,0,3.3,0.2,4.5,0.6c1.3,0.4,2.3,1,3.1,1.7s1.4,1.6,1.8,2.5c0.4,1,0.6,2,0.6,3v0.5
				c0,1.6-0.4,3.2-1.1,4.7c-0.8,1.5-1.9,3-3.3,4.5l-9.1,9h13c0.7,0,1.1,0.2,1.5,0.7c0.3,0.4,0.5,1,0.5,1.6s-0.2,1.2-0.5,1.6
				s-0.8,0.7-1.5,0.7H784c-1.4,0-2.4-0.2-3-0.7s-0.9-1.2-0.9-2.2c0-0.5,0.1-0.9,0.4-1.3c0.2-0.4,0.6-0.8,1.1-1.3l10-10.1
				c0.8-0.8,1.4-1.5,1.9-2.1s0.9-1.2,1.2-1.7s0.5-1.1,0.6-1.6s0.2-1,0.2-1.6v-0.2c0-0.9-0.4-1.7-1.1-2.3c-0.7-0.6-1.8-0.9-3.3-0.9
				c-1.3,0-2.4,0.2-3.2,0.7c-0.9,0.5-1.7,1.2-2.4,2.2c-0.4,0.5-0.9,0.9-1.5,0.9c-0.6,0.1-1.2-0.1-1.8-0.5s-0.9-0.9-1.1-1.5
				s0-1.2,0.4-1.9c0.9-1.4,2.2-2.6,3.8-3.5S788.7,232.9,790.9,232.9z"/>
		</g>
	</g>
	<g>
		<g>
			<path style="fill:#377F45;" d="M853.1,232.9c4,0,6.9,1.3,8.7,3.9s2.7,6.2,2.7,11v1.8c0,4.7-0.9,8.4-2.7,11s-4.7,3.9-8.7,3.9
				s-6.9-1.3-8.7-3.9s-2.7-6.2-2.7-11v-1.8c0-4.7,0.9-8.4,2.7-11S849.1,232.9,853.1,232.9z M853.1,238.1c-1.1,0-2.1,0.2-2.8,0.6
				c-0.8,0.4-1.4,1-1.8,1.8c-0.4,0.8-0.8,1.9-1,3.1c-0.2,1.3-0.3,2.8-0.3,4.6v1.1c0,1.8,0.1,3.3,0.3,4.6s0.5,2.3,1,3.1
				c0.4,0.8,1,1.4,1.8,1.8s1.7,0.6,2.8,0.6s2.1-0.2,2.8-0.6c0.8-0.4,1.4-1,1.8-1.8c0.4-0.8,0.8-1.9,1-3.1c0.2-1.3,0.3-2.8,0.3-4.6
				v-1.1c0-1.8-0.1-3.3-0.3-4.6s-0.5-2.3-1-3.1c-0.4-0.8-1-1.4-1.8-1.8S854.2,238.1,853.1,238.1z"/>
		</g>
	</g>
	<g>
		<g>
			<path style="fill:#377F45;" d="M916.9,232.9c4,0,6.9,1.3,8.7,3.9s2.7,6.2,2.7,11v1.8c0,4.7-0.9,8.4-2.7,11s-4.7,3.9-8.7,3.9
				s-6.9-1.3-8.7-3.9s-2.7-6.2-2.7-11v-1.8c0-4.7,0.9-8.4,2.7-11S912.9,232.9,916.9,232.9z M916.9,238.1c-1.1,0-2.1,0.2-2.8,0.6
				c-0.8,0.4-1.4,1-1.8,1.8c-0.4,0.8-0.8,1.9-1,3.1c-0.2,1.3-0.3,2.8-0.3,4.6v1.1c0,1.8,0.1,3.3,0.3,4.6s0.5,2.3,1,3.1
				c0.4,0.8,1,1.4,1.8,1.8s1.7,0.6,2.8,0.6s2.1-0.2,2.8-0.6c0.8-0.4,1.4-1,1.8-1.8c0.4-0.8,0.8-1.9,1-3.1c0.2-1.3,0.3-2.8,0.3-4.6
				v-1.1c0-1.8-0.1-3.3-0.3-4.6s-0.5-2.3-1-3.1c-0.4-0.8-1-1.4-1.8-1.8C918.9,238.3,918,238.1,916.9,238.1z"/>
		</g>
	</g>
	<g>
		<path style="fill:#BC3D69;" d="M917.2,17.1c1.4,0,2.7,0.1,3.9,0.4s2.2,0.7,3,1.1c0.5,0.3,0.8,0.7,0.9,1.1s0.1,0.9-0.2,1.4
			c-0.2,0.5-0.6,0.9-1,1c-0.4,0.2-1,0.1-1.5-0.1c-0.8-0.4-1.6-0.7-2.5-0.8C919,21.1,918,21,917,21c-4.6,0-7.1,3.6-7.5,10.7
			c0.7-1.1,1.8-2,3.1-2.6c1.4-0.6,2.8-0.9,4.3-0.9s2.8,0.2,4,0.7s2.2,1.1,3,2s1.5,1.9,1.9,3.1c0.4,1.2,0.7,2.6,0.7,4v0.7
			c0,1.5-0.3,2.8-0.8,4.1s-1.2,2.3-2.2,3.1c-0.9,0.9-2,1.6-3.4,2c-1.3,0.5-2.7,0.7-4.3,0.7c-3.5,0-6.2-1.1-8-3.4
			c-1.8-2.2-2.8-5.5-2.8-9.7v-1.2c0-3.4,0.3-6.1,0.9-8.3c0.6-2.2,1.4-4,2.5-5.3s2.3-2.3,3.8-2.8C913.9,17.4,915.5,17.1,917.2,17.1z
			 M916.1,32c-1.1,0-2,0.2-2.8,0.5s-1.5,0.7-2,1.3c-0.5,0.5-1,1.2-1.2,1.9c-0.3,0.7-0.4,1.5-0.4,2.3v0.3c0,2,0.6,3.5,1.7,4.7
			c1.1,1.2,2.7,1.7,4.6,1.7c2,0,3.6-0.5,4.7-1.6s1.7-2.6,1.7-4.6v-0.3C922.4,34,920.3,32,916.1,32z"/>
	</g>
	<g>
		<g>
			<path style="fill:#377F45;" d="M915.4,80.5c1.7,0,3.3,0.2,4.5,0.6c1.3,0.4,2.3,1,3.1,1.7s1.4,1.6,1.8,2.5c0.4,1,0.6,2,0.6,3v0.5
				c0,1.6-0.4,3.2-1.1,4.7c-0.8,1.5-1.9,3-3.3,4.5l-9.1,9h13c0.7,0,1.1,0.2,1.5,0.7c0.3,0.4,0.5,1,0.5,1.6s-0.2,1.2-0.5,1.6
				s-0.8,0.7-1.5,0.7h-16.4c-1.4,0-2.4-0.2-3-0.7s-0.9-1.2-0.9-2.2c0-0.5,0.1-0.9,0.4-1.3s0.6-0.8,1.1-1.3l10-10.1
				c0.8-0.8,1.4-1.5,1.9-2.1s0.9-1.2,1.2-1.7s0.5-1.1,0.6-1.6s0.2-1,0.2-1.6v-0.2c0-0.9-0.4-1.7-1.1-2.3c-0.7-0.6-1.8-0.9-3.3-0.9
				c-1.3,0-2.4,0.2-3.2,0.7s-1.7,1.2-2.4,2.2c-0.4,0.5-0.9,0.9-1.5,0.9c-0.6,0.1-1.2-0.1-1.8-0.5s-0.9-0.9-1.1-1.5
				c-0.2-0.6,0-1.2,0.4-1.9c0.9-1.4,2.2-2.6,3.8-3.5S913.1,80.5,915.4,80.5z"/>
		</g>
	</g>
	<g>
		<path style="fill:#BC3D69;" d="M915.4,142.6c1.6,0,3,0.2,4.2,0.6c1.2,0.4,2.2,1,3,1.7s1.4,1.5,1.8,2.5c0.4,0.9,0.6,2,0.6,3v0.4
			c0,1.6-0.3,3.1-1,4.5s-1.8,2.8-3.2,4.3l-9.9,10.4h14c0.5,0,0.9,0.2,1.1,0.5s0.4,0.8,0.4,1.3s-0.1,0.9-0.4,1.3
			c-0.2,0.4-0.6,0.5-1.1,0.5h-16.6c-1.1,0-1.9-0.2-2.4-0.6c-0.5-0.4-0.7-1-0.7-1.8c0-0.4,0.1-0.7,0.3-1.1c0.2-0.3,0.5-0.8,1-1.2
			l10.5-11.1c0.8-0.8,1.4-1.5,1.9-2.1s0.9-1.2,1.1-1.7c0.3-0.5,0.5-1.1,0.6-1.6s0.2-1.1,0.2-1.6v-0.2c0-1.3-0.4-2.3-1.3-3
			c-0.9-0.7-2.2-1.1-3.9-1.1c-1.4,0-2.6,0.3-3.6,0.9c-1,0.6-1.8,1.4-2.6,2.6c-0.3,0.4-0.7,0.7-1.2,0.8s-0.9,0-1.4-0.4
			c-0.5-0.3-0.8-0.7-0.9-1.2c-0.1-0.5,0-1,0.3-1.5c0.9-1.4,2.1-2.6,3.7-3.6C911.2,143.1,913.1,142.6,915.4,142.6z"/>
	</g>
	<g>
		<path style="fill:#BC3D69;" d="M856.1,142.8c0.7,0,1.2,0.1,1.6,0.4c0.4,0.3,0.6,0.8,0.6,1.4V172c0,0.6-0.2,1.1-0.6,1.4
			s-0.9,0.4-1.5,0.4s-1.1-0.1-1.5-0.4c-0.4-0.3-0.6-0.7-0.6-1.4v-24.1l-6.4,4c-0.5,0.3-1.1,0.4-1.5,0.2c-0.5-0.2-0.9-0.5-1.2-1
			c-0.2-0.5-0.3-0.9-0.2-1.4s0.4-0.9,0.9-1.2l7.7-4.6c0.6-0.3,1.1-0.6,1.5-0.7C855.2,142.9,855.7,142.8,856.1,142.8z"/>
	</g>
	<g>
		<path style="fill:#2888BF;" d="M857.9,187.4c0.5,0.3,0.8,0.7,0.9,1.2c0.1,0.5,0,1-0.4,1.6l-12.2,17.6h10.4v-7.9
			c0-0.6,0.2-1.1,0.6-1.4s0.9-0.4,1.5-0.4s1.1,0.1,1.5,0.4s0.6,0.7,0.6,1.4v7.9h3.1c0.5,0,0.9,0.2,1.1,0.5c0.2,0.3,0.3,0.8,0.3,1.2
			c0,0.5-0.1,0.9-0.3,1.2s-0.6,0.5-1.1,0.5h-3.1v5c0,0.6-0.2,1.1-0.6,1.4c-0.4,0.3-0.9,0.4-1.5,0.4c-0.5,0-1-0.1-1.5-0.4
			c-0.4-0.3-0.6-0.7-0.6-1.4v-5h-12.8c-1,0-1.7-0.2-2.2-0.5c-0.4-0.3-0.6-0.9-0.6-1.6c0-0.3,0.1-0.6,0.2-0.9c0.1-0.3,0.4-0.9,1-1.7
			l13-18.7c0.3-0.5,0.8-0.8,1.2-0.8C857,187.1,857.4,187.2,857.9,187.4z"/>
	</g>
	<g>
		<path style="fill:#2888BF;" d="M915.6,186.8c3.9,0,6.7,1.3,8.4,3.8s2.6,6.2,2.6,10.9v2.1c0,4.8-0.9,8.4-2.6,10.9
			c-1.7,2.5-4.5,3.8-8.4,3.8s-6.7-1.3-8.4-3.8s-2.6-6.2-2.6-10.9v-2.1c0-4.8,0.9-8.4,2.6-10.9C908.9,188.1,911.7,186.8,915.6,186.8z
			 M915.6,190.9c-1.3,0-2.3,0.2-3.2,0.6c-0.9,0.4-1.5,1.1-2.1,2s-0.9,2-1.1,3.4c-0.2,1.4-0.3,3-0.3,4.9v1.4c0,1.9,0.1,3.6,0.3,4.9
			c0.2,1.4,0.6,2.5,1.1,3.4s1.2,1.6,2.1,2c0.9,0.4,1.9,0.6,3.2,0.6s2.3-0.2,3.2-0.6c0.9-0.4,1.5-1.1,2.1-2s0.9-2,1.1-3.4
			c0.2-1.4,0.3-3,0.3-4.9v-1.4c0-1.9-0.1-3.6-0.3-4.9c-0.2-1.4-0.6-2.5-1.1-3.4s-1.2-1.6-2.1-2S916.8,190.9,915.6,190.9z"/>
	</g>
	
		<line style="fill:none;stroke:#000100;stroke-width:1.5;stroke-linecap:round;stroke-linejoin:round;stroke-miterlimit:10;stroke-dasharray:3,3;" x1="757" y1="3.7" x2="757" y2="328.2"/>
	<path style="fill:#121312;" d="M741.7,97.9l7.1-7.1c1-1,1-2.6,0-3.5s-2.6-1-3.5,0l-7.1,7.1l-7.1-7.1c-1-1-2.6-1-3.5,0s-1,2.6,0,3.5
		l7.1,7.1l-7.1,7.1c-1,1-1,2.6,0,3.5s2.6,1,3.5,0l7.1-7.1l7.1,7.1c1,1,2.6,1,3.5,0s1-2.6,0-3.5L741.7,97.9z"/>
	
		<line style="fill:none;stroke:#000100;stroke-width:1.5;stroke-linecap:round;stroke-linejoin:round;stroke-miterlimit:10;stroke-dasharray:3,3;" x1="1185.8" y1="3.7" x2="1185.8" y2="328.2"/>
	
		<line style="fill:none;stroke:#000100;stroke-width:1.5;stroke-linecap:round;stroke-linejoin:round;stroke-miterlimit:10;stroke-dasharray:3,3;" x1="1122.9" y1="3.7" x2="1122.9" y2="328.2"/>
	
		<line style="fill:none;stroke:#000100;stroke-width:1.5;stroke-linecap:round;stroke-linejoin:round;stroke-miterlimit:10;stroke-dasharray:3,3;" x1="1060" y1="3.7" x2="1060" y2="328.2"/>
	
		<line style="fill:none;stroke:#000100;stroke-width:1.5;stroke-linecap:round;stroke-linejoin:round;stroke-miterlimit:10;" x1="958.1" y1="129.4" x2="1194.5" y2="129.4"/>
	
		<line style="fill:none;stroke:#000100;stroke-width:1.5;stroke-linecap:round;stroke-linejoin:round;stroke-miterlimit:10;" x1="958.1" y1="274.9" x2="1194.5" y2="274.9"/>
	<g>
		<g>
			<path style="fill:#2888BF;" d="M1091.7,17.1c1.6,0,3,0.2,4.2,0.6s2.2,1,3,1.7s1.4,1.5,1.8,2.5c0.4,0.9,0.6,2,0.6,3v0.4
				c0,1.6-0.3,3.1-1,4.5c-0.7,1.4-1.8,2.8-3.2,4.3l-9.9,10.4h14c0.5,0,0.9,0.2,1.1,0.5s0.4,0.8,0.4,1.3s-0.1,0.9-0.4,1.3
				c-0.2,0.4-0.6,0.5-1.1,0.5h-16.6c-1.1,0-1.9-0.2-2.4-0.6c-0.5-0.4-0.7-1-0.7-1.8c0-0.4,0.1-0.7,0.3-1.1c0.2-0.3,0.5-0.8,1-1.2
				l10.5-11.1c0.8-0.8,1.4-1.5,1.9-2.1s0.9-1.2,1.1-1.7c0.3-0.5,0.5-1.1,0.6-1.6s0.2-1.1,0.2-1.6v-0.2c0-1.3-0.4-2.3-1.3-3
				s-2.2-1.1-3.9-1.1c-1.4,0-2.6,0.3-3.6,0.9s-1.8,1.4-2.6,2.6c-0.3,0.4-0.7,0.7-1.2,0.8s-0.9,0-1.4-0.4c-0.5-0.3-0.8-0.7-0.9-1.2
				c-0.1-0.5,0-1,0.3-1.5c0.9-1.4,2.1-2.6,3.7-3.6C1087.6,17.6,1089.5,17.1,1091.7,17.1z"/>
		</g>
	</g>
	<g>
		<g>
			<path style="fill:#377F45;" d="M1033.3,17.3c0.8,0,1.5,0.2,2.1,0.6c0.5,0.4,0.8,1,0.8,1.8v26.4c0,0.8-0.3,1.4-0.8,1.8
				c-0.5,0.4-1.2,0.6-1.9,0.6c-0.7,0-1.4-0.2-1.9-0.6c-0.5-0.4-0.8-1-0.8-1.8V23.8l-5.5,3.2c-0.7,0.4-1.4,0.5-2,0.2
				c-0.6-0.2-1.1-0.7-1.5-1.3c-0.3-0.6-0.4-1.2-0.3-1.8c0.1-0.7,0.5-1.2,1.2-1.5l7.3-4c0.7-0.4,1.4-0.7,1.9-0.9
				C1032.3,17.4,1032.8,17.3,1033.3,17.3z"/>
		</g>
	</g>
	<g>
		<g>
			<path style="fill:#377F45;" d="M1029.9,232.9c1.7,0,3.3,0.2,4.5,0.6c1.3,0.4,2.3,1,3.1,1.7s1.4,1.6,1.8,2.5c0.4,1,0.6,2,0.6,3
				v0.5c0,1.6-0.4,3.2-1.1,4.7c-0.8,1.5-1.9,3-3.3,4.5l-9.1,9h13c0.7,0,1.1,0.2,1.5,0.7c0.3,0.4,0.5,1,0.5,1.6s-0.2,1.2-0.5,1.6
				s-0.8,0.7-1.5,0.7H1023c-1.4,0-2.4-0.2-3-0.7s-0.9-1.2-0.9-2.2c0-0.5,0.1-0.9,0.4-1.3c0.2-0.4,0.6-0.8,1.1-1.3l10-10.1
				c0.8-0.8,1.4-1.5,1.9-2.1s0.9-1.2,1.2-1.7c0.3-0.5,0.5-1.1,0.6-1.6c0.1-0.5,0.2-1,0.2-1.6v-0.2c0-0.9-0.4-1.7-1.1-2.3
				c-0.7-0.6-1.8-0.9-3.3-0.9c-1.3,0-2.4,0.2-3.2,0.7c-0.9,0.5-1.7,1.2-2.4,2.2c-0.4,0.5-0.9,0.9-1.5,0.9c-0.6,0.1-1.2-0.1-1.8-0.5
				s-0.9-0.9-1.1-1.5s0-1.2,0.4-1.9c0.9-1.4,2.2-2.6,3.8-3.5S1027.7,232.9,1029.9,232.9z"/>
		</g>
	</g>
	<g>
		<g>
			<path style="fill:#377F45;" d="M1092.1,232.9c4,0,6.9,1.3,8.7,3.9c1.8,2.6,2.7,6.2,2.7,11v1.8c0,4.7-0.9,8.4-2.7,11
				c-1.8,2.6-4.7,3.9-8.7,3.9s-6.9-1.3-8.7-3.9c-1.8-2.6-2.7-6.2-2.7-11v-1.8c0-4.7,0.9-8.4,2.7-11
				C1085.2,234.2,1088.1,232.9,1092.1,232.9z M1092.1,238.1c-1.1,0-2.1,0.2-2.8,0.6c-0.8,0.4-1.4,1-1.8,1.8c-0.4,0.8-0.8,1.9-1,3.1
				c-0.2,1.3-0.3,2.8-0.3,4.6v1.1c0,1.8,0.1,3.3,0.3,4.6s0.5,2.3,1,3.1c0.4,0.8,1,1.4,1.8,1.8c0.8,0.4,1.7,0.6,2.8,0.6
				s2.1-0.2,2.8-0.6c0.8-0.4,1.4-1,1.8-1.8c0.4-0.8,0.8-1.9,1-3.1c0.2-1.3,0.3-2.8,0.3-4.6v-1.1c0-1.8-0.1-3.3-0.3-4.6
				s-0.5-2.3-1-3.1c-0.4-0.8-1-1.4-1.8-1.8C1094.1,238.3,1093.2,238.1,1092.1,238.1z"/>
		</g>
	</g>
	<g>
		<g>
			<path style="fill:#377F45;" d="M1155.9,232.9c4,0,6.9,1.3,8.7,3.9c1.8,2.6,2.7,6.2,2.7,11v1.8c0,4.7-0.9,8.4-2.7,11
				c-1.8,2.6-4.7,3.9-8.7,3.9s-6.9-1.3-8.7-3.9c-1.8-2.6-2.7-6.2-2.7-11v-1.8c0-4.7,0.9-8.4,2.7-11
				C1149,234.2,1151.9,232.9,1155.9,232.9z M1155.9,238.1c-1.1,0-2.1,0.2-2.8,0.6c-0.8,0.4-1.4,1-1.8,1.8c-0.4,0.8-0.8,1.9-1,3.1
				c-0.2,1.3-0.3,2.8-0.3,4.6v1.1c0,1.8,0.1,3.3,0.3,4.6s0.5,2.3,1,3.1c0.4,0.8,1,1.4,1.8,1.8c0.8,0.4,1.7,0.6,2.8,0.6
				s2.1-0.2,2.8-0.6c0.8-0.4,1.4-1,1.8-1.8c0.4-0.8,0.8-1.9,1-3.1c0.2-1.3,0.3-2.8,0.3-4.6v-1.1c0-1.8-0.1-3.3-0.3-4.6
				s-0.5-2.3-1-3.1c-0.4-0.8-1-1.4-1.8-1.8C1157.9,238.3,1157,238.1,1155.9,238.1z"/>
		</g>
	</g>
	<g>
		<path style="fill:#BC3D69;" d="M1156.2,17.1c1.4,0,2.7,0.1,3.9,0.4c1.2,0.3,2.2,0.7,3,1.1c0.5,0.3,0.8,0.7,0.9,1.1
			c0.1,0.4,0.1,0.9-0.2,1.4c-0.2,0.5-0.6,0.9-1,1c-0.4,0.2-1,0.1-1.5-0.1c-0.8-0.4-1.6-0.7-2.5-0.8c-0.8-0.1-1.8-0.2-2.8-0.2
			c-4.6,0-7.1,3.6-7.5,10.7c0.7-1.1,1.8-2,3.1-2.6c1.4-0.6,2.8-0.9,4.3-0.9s2.8,0.2,4,0.7c1.2,0.5,2.2,1.1,3,2
			c0.8,0.9,1.5,1.9,1.9,3.1c0.4,1.2,0.7,2.6,0.7,4v0.7c0,1.5-0.3,2.8-0.8,4.1s-1.2,2.3-2.2,3.1c-0.9,0.9-2,1.6-3.4,2
			c-1.3,0.5-2.7,0.7-4.3,0.7c-3.5,0-6.2-1.1-8-3.4c-1.8-2.2-2.8-5.5-2.8-9.7v-1.2c0-3.4,0.3-6.1,0.9-8.3s1.4-4,2.5-5.3
			s2.3-2.3,3.8-2.8C1152.9,17.4,1154.5,17.1,1156.2,17.1z M1155.1,32c-1.1,0-2,0.2-2.8,0.5c-0.8,0.3-1.5,0.7-2,1.3
			c-0.5,0.5-1,1.2-1.2,1.9c-0.3,0.7-0.4,1.5-0.4,2.3v0.3c0,2,0.6,3.5,1.7,4.7c1.1,1.2,2.7,1.7,4.6,1.7c2,0,3.6-0.5,4.7-1.6
			s1.7-2.6,1.7-4.6v-0.3C1161.4,34,1159.3,32,1155.1,32z"/>
	</g>
	<g>
		<g>
			<path style="fill:#377F45;" d="M1154.4,80.5c1.7,0,3.3,0.2,4.5,0.6c1.3,0.4,2.3,1,3.1,1.7s1.4,1.6,1.8,2.5c0.4,1,0.6,2,0.6,3v0.5
				c0,1.6-0.4,3.2-1.1,4.7c-0.8,1.5-1.9,3-3.3,4.5l-9.1,9h13c0.7,0,1.1,0.2,1.5,0.7c0.3,0.4,0.5,1,0.5,1.6s-0.2,1.2-0.5,1.6
				s-0.8,0.7-1.5,0.7h-16.4c-1.4,0-2.4-0.2-3-0.7s-0.9-1.2-0.9-2.2c0-0.5,0.1-0.9,0.4-1.3s0.6-0.8,1.1-1.3l10-10.1
				c0.8-0.8,1.4-1.5,1.9-2.1s0.9-1.2,1.2-1.7c0.3-0.5,0.5-1.1,0.6-1.6c0.1-0.5,0.2-1,0.2-1.6v-0.2c0-0.9-0.4-1.7-1.1-2.3
				c-0.7-0.6-1.8-0.9-3.3-0.9c-1.3,0-2.4,0.2-3.2,0.7s-1.7,1.2-2.4,2.2c-0.4,0.5-0.9,0.9-1.5,0.9c-0.6,0.1-1.2-0.1-1.8-0.5
				c-0.6-0.4-0.9-0.9-1.1-1.5c-0.2-0.6,0-1.2,0.4-1.9c0.9-1.4,2.2-2.6,3.8-3.5S1152.1,80.5,1154.4,80.5z"/>
		</g>
	</g>
	<g>
		<path style="fill:#BC3D69;" d="M1154.4,142.6c1.6,0,3,0.2,4.2,0.6c1.2,0.4,2.2,1,3,1.7c0.8,0.7,1.4,1.5,1.8,2.5
			c0.4,0.9,0.6,2,0.6,3v0.4c0,1.6-0.3,3.1-1,4.5s-1.8,2.8-3.2,4.3l-9.9,10.4h14c0.5,0,0.9,0.2,1.1,0.5s0.4,0.8,0.4,1.3
			s-0.1,0.9-0.4,1.3c-0.2,0.4-0.6,0.5-1.1,0.5h-16.6c-1.1,0-1.9-0.2-2.4-0.6c-0.5-0.4-0.7-1-0.7-1.8c0-0.4,0.1-0.7,0.3-1.1
			c0.2-0.3,0.5-0.8,1-1.2l10.5-11.1c0.8-0.8,1.4-1.5,1.9-2.1s0.9-1.2,1.1-1.7c0.3-0.5,0.5-1.1,0.6-1.6c0.1-0.5,0.2-1.1,0.2-1.6v-0.2
			c0-1.3-0.4-2.3-1.3-3c-0.9-0.7-2.2-1.1-3.9-1.1c-1.4,0-2.6,0.3-3.6,0.9c-1,0.6-1.8,1.4-2.6,2.6c-0.3,0.4-0.7,0.7-1.2,0.8
			s-0.9,0-1.4-0.4c-0.5-0.3-0.8-0.7-0.9-1.2c-0.1-0.5,0-1,0.3-1.5c0.9-1.4,2.1-2.6,3.7-3.6C1150.2,143.1,1152.1,142.6,1154.4,142.6z
			"/>
	</g>
	<g>
		<path style="fill:#BC3D69;" d="M1095.1,142.8c0.7,0,1.2,0.1,1.6,0.4c0.4,0.3,0.6,0.8,0.6,1.4V172c0,0.6-0.2,1.1-0.6,1.4
			s-0.9,0.4-1.5,0.4s-1.1-0.1-1.5-0.4c-0.4-0.3-0.6-0.7-0.6-1.4v-24.1l-6.4,4c-0.5,0.3-1.1,0.4-1.5,0.2c-0.5-0.2-0.9-0.5-1.2-1
			c-0.2-0.5-0.3-0.9-0.2-1.4s0.4-0.9,0.9-1.2l7.7-4.6c0.6-0.3,1.1-0.6,1.5-0.7C1094.2,142.9,1094.7,142.8,1095.1,142.8z"/>
	</g>
	<g>
		<path style="fill:#2888BF;" d="M1096.9,187.4c0.5,0.3,0.8,0.7,0.9,1.2c0.1,0.5,0,1-0.4,1.6l-12.2,17.6h10.4v-7.9
			c0-0.6,0.2-1.1,0.6-1.4c0.4-0.3,0.9-0.4,1.5-0.4c0.6,0,1.1,0.1,1.5,0.4c0.4,0.3,0.6,0.7,0.6,1.4v7.9h3.1c0.5,0,0.9,0.2,1.1,0.5
			s0.3,0.8,0.3,1.2c0,0.5-0.1,0.9-0.3,1.2c-0.2,0.3-0.6,0.5-1.1,0.5h-3.1v5c0,0.6-0.2,1.1-0.6,1.4c-0.4,0.3-0.9,0.4-1.5,0.4
			c-0.5,0-1-0.1-1.5-0.4c-0.4-0.3-0.6-0.7-0.6-1.4v-5h-12.8c-1,0-1.7-0.2-2.2-0.5c-0.4-0.3-0.6-0.9-0.6-1.6c0-0.3,0.1-0.6,0.2-0.9
			c0.1-0.3,0.4-0.9,1-1.7l13-18.7c0.3-0.5,0.8-0.8,1.2-0.8C1096,187.1,1096.4,187.2,1096.9,187.4z"/>
	</g>
	<g>
		<path style="fill:#2888BF;" d="M1154.6,186.8c3.9,0,6.7,1.3,8.4,3.8s2.6,6.2,2.6,10.9v2.1c0,4.8-0.9,8.4-2.6,10.9
			s-4.5,3.8-8.4,3.8s-6.7-1.3-8.4-3.8s-2.6-6.2-2.6-10.9v-2.1c0-4.8,0.9-8.4,2.6-10.9C1147.9,188.1,1150.7,186.8,1154.6,186.8z
			 M1154.6,190.9c-1.3,0-2.3,0.2-3.2,0.6c-0.9,0.4-1.5,1.1-2.1,2c-0.6,0.9-0.9,2-1.1,3.4s-0.3,3-0.3,4.9v1.4c0,1.9,0.1,3.6,0.3,4.9
			c0.2,1.4,0.6,2.5,1.1,3.4s1.2,1.6,2.1,2c0.9,0.4,1.9,0.6,3.2,0.6s2.3-0.2,3.2-0.6c0.9-0.4,1.5-1.1,2.1-2c0.6-0.9,0.9-2,1.1-3.4
			s0.3-3,0.3-4.9v-1.4c0-1.9-0.1-3.6-0.3-4.9c-0.2-1.4-0.6-2.5-1.1-3.4s-1.2-1.6-2.1-2C1156.9,191.1,1155.8,190.9,1154.6,190.9z"/>
	</g>
	
		<line style="fill:none;stroke:#000100;stroke-width:1.5;stroke-linecap:round;stroke-linejoin:round;stroke-miterlimit:10;stroke-dasharray:3,3;" x1="996" y1="3.7" x2="996" y2="328.2"/>
	<path style="fill:#121312;" d="M980.7,97.9l7.1-7.1c1-1,1-2.6,0-3.5s-2.6-1-3.5,0l-7.1,7.1l-7.1-7.1c-1-1-2.6-1-3.5,0s-1,2.6,0,3.5
		l7.1,7.1l-7.1,7.1c-1,1-1,2.6,0,3.5s2.6,1,3.5,0l7.1-7.1l7.1,7.1c1,1,2.6,1,3.5,0s1-2.6,0-3.5L980.7,97.9z"/>
</g>
<g>
	
		<line style="fill:none;stroke:#000100;stroke-width:1.5;stroke-linecap:round;stroke-linejoin:round;stroke-miterlimit:10;stroke-dasharray:3,3;" x1="708.4" y1="3.7" x2="708.4" y2="328.2"/>
	
		<line style="fill:none;stroke:#000100;stroke-width:1.5;stroke-linecap:round;stroke-linejoin:round;stroke-miterlimit:10;stroke-dasharray:3,3;" x1="645.5" y1="3.7" x2="645.5" y2="328.2"/>
	
		<line style="fill:none;stroke:#000100;stroke-width:1.5;stroke-linecap:round;stroke-linejoin:round;stroke-miterlimit:10;stroke-dasharray:3,3;" x1="582.6" y1="3.7" x2="582.6" y2="328.2"/>
	
		<line style="fill:none;stroke:#000100;stroke-width:1.5;stroke-linecap:round;stroke-linejoin:round;stroke-miterlimit:10;" x1="480.7" y1="129.4" x2="717.1" y2="129.4"/>
	
		<line style="fill:none;stroke:#000100;stroke-width:1.5;stroke-linecap:round;stroke-linejoin:round;stroke-miterlimit:10;" x1="480.7" y1="274.9" x2="717.1" y2="274.9"/>
	<g>
		<g>
			<path style="fill:#2888BF;" d="M614.3,17.1c1.7,0,3.3,0.2,4.5,0.6c1.3,0.4,2.3,1,3.1,1.7s1.4,1.6,1.8,2.5c0.4,1,0.6,2,0.6,3v0.5
				c0,1.6-0.4,3.2-1.1,4.7c-0.8,1.5-1.9,3-3.3,4.5l-9.1,9h13c0.7,0,1.1,0.2,1.5,0.7c0.3,0.4,0.5,1,0.5,1.6s-0.2,1.2-0.5,1.6
				c-0.3,0.4-0.8,0.7-1.5,0.7h-16.4c-1.4,0-2.4-0.2-3-0.7s-0.9-1.2-0.9-2.2c0-0.5,0.1-0.9,0.4-1.3c0.2-0.4,0.6-0.8,1.1-1.3l10-10.1
				c0.8-0.8,1.4-1.5,1.9-2.1s0.9-1.2,1.2-1.7s0.5-1.1,0.6-1.6s0.2-1,0.2-1.6v-0.2c0-0.9-0.4-1.7-1.1-2.3c-0.7-0.6-1.8-0.9-3.3-0.9
				c-1.3,0-2.4,0.2-3.2,0.7c-0.9,0.5-1.7,1.2-2.4,2.2c-0.4,0.5-0.9,0.9-1.5,0.9c-0.6,0.1-1.2-0.1-1.8-0.5s-0.9-0.9-1.1-1.5
				c-0.2-0.6,0-1.2,0.4-1.9c0.9-1.4,2.2-2.6,3.8-3.5S612,17.1,614.3,17.1z"/>
		</g>
	</g>
	<g>
		<g>
			<path style="fill:#121312;" d="M555.6,17.4c0.7,0,1.2,0.1,1.6,0.4c0.4,0.3,0.6,0.8,0.6,1.4v27.3c0,0.6-0.2,1.1-0.6,1.4
				s-0.9,0.4-1.5,0.4s-1.1-0.1-1.5-0.4c-0.4-0.3-0.6-0.7-0.6-1.4v-24l-6.4,4c-0.5,0.3-1.1,0.4-1.5,0.2c-0.5-0.2-0.9-0.5-1.2-1
				c-0.2-0.5-0.3-0.9-0.2-1.4s0.4-0.9,0.9-1.2l7.7-4.6c0.6-0.3,1.1-0.6,1.5-0.7C554.7,17.5,555.2,17.4,555.6,17.4z"/>
		</g>
	</g>
	<g>
		<path style="fill:#BC3D69;" d="M678.8,17.1c1.4,0,2.7,0.1,3.9,0.4s2.2,0.7,3,1.1c0.5,0.3,0.8,0.7,0.9,1.1s0.1,0.9-0.2,1.4
			c-0.2,0.5-0.6,0.9-1,1c-0.4,0.2-1,0.1-1.5-0.1c-0.8-0.4-1.6-0.7-2.5-0.8s-1.8-0.3-2.8-0.3c-4.6,0-7.1,3.6-7.5,10.7
			c0.7-1.1,1.8-2,3.1-2.6s2.8-0.9,4.3-0.9s2.8,0.2,4,0.7s2.2,1.1,3,2s1.5,1.9,1.9,3.1s0.7,2.6,0.7,4v0.7c0,1.5-0.3,2.8-0.8,4.1
			s-1.2,2.3-2.1,3.1c-0.9,0.9-2,1.6-3.4,2c-1.3,0.5-2.7,0.7-4.3,0.7c-3.5,0-6.2-1.1-8-3.4c-1.8-2.2-2.8-5.5-2.8-9.7v-1.2
			c0-3.4,0.3-6.1,0.9-8.3c0.6-2.2,1.4-4,2.5-5.3s2.3-2.3,3.8-2.8C675.5,17.4,677.1,17.1,678.8,17.1z M677.7,32c-1.1,0-2,0.2-2.8,0.5
			s-1.5,0.7-2,1.3c-0.5,0.5-1,1.2-1.2,1.9c-0.3,0.7-0.4,1.5-0.4,2.3v0.3c0,2,0.6,3.5,1.7,4.7c1.1,1.2,2.7,1.7,4.6,1.7
			c2,0,3.6-0.5,4.7-1.6c1.1-1.1,1.7-2.6,1.7-4.6v-0.3C684,34,681.9,32,677.7,32z"/>
	</g>
	<g>
		<g>
			<path style="fill:#2888BF;" d="M677,80.5c1.7,0,3.3,0.2,4.5,0.6c1.3,0.4,2.3,1,3.1,1.7s1.4,1.6,1.8,2.5c0.4,1,0.6,2,0.6,3v0.5
				c0,1.6-0.4,3.2-1.1,4.7c-0.8,1.5-1.9,3-3.3,4.5l-9.1,9h13c0.7,0,1.1,0.2,1.5,0.7c0.3,0.4,0.5,1,0.5,1.6s-0.2,1.2-0.5,1.6
				s-0.8,0.7-1.5,0.7h-16.4c-1.4,0-2.4-0.2-3-0.7s-0.9-1.2-0.9-2.2c0-0.5,0.1-0.9,0.4-1.3c0.2-0.4,0.6-0.8,1.1-1.3l10-10.1
				c0.8-0.8,1.4-1.5,1.9-2.1s0.9-1.2,1.2-1.7s0.5-1.1,0.6-1.6s0.2-1,0.2-1.6v-0.2c0-0.9-0.4-1.7-1.1-2.3c-0.7-0.6-1.8-0.9-3.3-0.9
				c-1.3,0-2.4,0.2-3.2,0.7c-0.9,0.5-1.7,1.2-2.4,2.2c-0.4,0.5-0.9,0.9-1.5,0.9c-0.6,0.1-1.2-0.1-1.8-0.5s-0.9-0.9-1.1-1.5
				c-0.2-0.6,0-1.2,0.4-1.9c0.9-1.4,2.2-2.6,3.8-3.5S674.7,80.5,677,80.5z"/>
		</g>
	</g>
	<g>
		<path style="fill:#BC3D69;" d="M677,142.6c1.6,0,3,0.2,4.2,0.6c1.2,0.4,2.2,1,3,1.7s1.4,1.5,1.8,2.5c0.4,0.9,0.6,2,0.6,3v0.4
			c0,1.6-0.3,3.1-1,4.5s-1.8,2.8-3.2,4.3l-9.9,10.4h14c0.5,0,0.9,0.2,1.1,0.5c0.2,0.4,0.4,0.8,0.4,1.3s-0.1,0.9-0.4,1.3
			c-0.2,0.4-0.6,0.5-1.1,0.5h-16.6c-1.1,0-1.9-0.2-2.4-0.6c-0.5-0.4-0.7-1-0.7-1.8c0-0.4,0.1-0.7,0.3-1.1c0.2-0.3,0.5-0.8,1-1.2
			l10.5-11.1c0.8-0.8,1.4-1.5,1.9-2.1s0.9-1.2,1.1-1.7c0.3-0.5,0.5-1.1,0.6-1.6s0.2-1.1,0.2-1.6v-0.2c0-1.3-0.4-2.3-1.3-3
			c-0.9-0.7-2.2-1.1-3.9-1.1c-1.4,0-2.6,0.3-3.6,0.9c-1,0.6-1.8,1.4-2.6,2.6c-0.3,0.4-0.7,0.7-1.2,0.8s-0.9,0-1.4-0.4
			c-0.5-0.3-0.8-0.7-0.9-1.2c-0.1-0.5,0-1,0.3-1.5c0.9-1.4,2.1-2.6,3.7-3.6C672.8,143.1,674.7,142.6,677,142.6z"/>
	</g>
	<g>
		<path style="fill:#BC3D69;" d="M617.7,142.8c0.7,0,1.2,0.1,1.6,0.4c0.4,0.3,0.6,0.8,0.6,1.4V172c0,0.6-0.2,1.1-0.6,1.4
			s-0.9,0.4-1.5,0.4s-1.1-0.1-1.5-0.4c-0.4-0.3-0.6-0.7-0.6-1.4v-24.1l-6.4,4c-0.5,0.3-1.1,0.4-1.5,0.2c-0.5-0.2-0.9-0.5-1.2-1
			c-0.2-0.5-0.3-0.9-0.2-1.4s0.4-0.9,0.9-1.2l7.7-4.6c0.6-0.3,1.1-0.6,1.5-0.7C616.8,142.9,617.3,142.8,617.7,142.8z"/>
	</g>
	<g>
		<path style="fill:#2888BF;" d="M619.4,187.5c0.6,0.4,1,0.9,1.1,1.5c0.2,0.6,0,1.3-0.5,2l-11.2,16.2h8.9v-7.1
			c0-0.8,0.3-1.4,0.8-1.8c0.5-0.4,1.2-0.6,1.9-0.6s1.3,0.2,1.9,0.6c0.5,0.4,0.8,1,0.8,1.8v7.1h2.6c0.7,0,1.1,0.2,1.4,0.7
			c0.3,0.4,0.4,1,0.4,1.6s-0.1,1.1-0.4,1.5c-0.3,0.4-0.8,0.7-1.4,0.7h-2.6v4.3c0,0.8-0.3,1.4-0.8,1.8c-0.5,0.4-1.2,0.6-1.9,0.6
			s-1.3-0.2-1.9-0.6c-0.5-0.4-0.8-1-0.8-1.8v-4.3h-12c-1.2,0-2.1-0.2-2.6-0.6c-0.5-0.4-0.8-1.1-0.8-2c0-0.1,0-0.3,0-0.5
			s0.1-0.3,0.2-0.6c0.1-0.2,0.2-0.5,0.4-0.8s0.4-0.7,0.7-1.1l12.3-17.8c0.4-0.6,1-1,1.6-1.1C618.2,187,618.8,187.1,619.4,187.5z"/>
	</g>
	<g>
		<path style="fill:#2888BF;" d="M677.4,186.8c4,0,6.9,1.3,8.7,3.9s2.7,6.2,2.7,11v1.8c0,4.7-0.9,8.4-2.7,11s-4.7,3.9-8.7,3.9
			s-6.9-1.3-8.7-3.9s-2.7-6.2-2.7-11v-1.8c0-4.7,0.9-8.4,2.7-11S673.4,186.8,677.4,186.8z M677.4,192c-1.1,0-2.1,0.2-2.8,0.6
			c-0.8,0.4-1.4,1-1.8,1.8c-0.4,0.8-0.8,1.9-1,3.1c-0.2,1.3-0.3,2.8-0.3,4.6v1.1c0,1.8,0.1,3.3,0.3,4.6s0.5,2.3,1,3.1
			c0.4,0.8,1,1.4,1.8,1.8c0.8,0.4,1.7,0.6,2.8,0.6s2.1-0.2,2.8-0.6c0.8-0.4,1.4-1,1.8-1.8c0.4-0.8,0.8-1.9,1-3.1
			c0.2-1.3,0.3-2.8,0.3-4.6v-1.1c0-1.8-0.1-3.3-0.3-4.6s-0.5-2.3-1-3.1c-0.4-0.8-1-1.4-1.8-1.8S678.5,192,677.4,192z"/>
	</g>
	<path style="fill:#121312;" d="M503.3,97.9l7.1-7.1c1-1,1-2.6,0-3.5s-2.6-1-3.5,0l-7.1,7.1l-7.1-7.1c-1-1-2.6-1-3.5,0s-1,2.6,0,3.5
		l7.1,7.1l-7.1,7.1c-1,1-1,2.6,0,3.5s2.6,1,3.5,0l7.1-7.1l7.1,7.1c1,1,2.6,1,3.5,0s1-2.6,0-3.5L503.3,97.9z"/>
</g>
<g>
	
		<line style="fill:none;stroke:#000100;stroke-width:1.5;stroke-linecap:round;stroke-linejoin:round;stroke-miterlimit:10;stroke-dasharray:3,3;" x1="469" y1="3.7" x2="469" y2="328.2"/>
	
		<line style="fill:none;stroke:#000100;stroke-width:1.5;stroke-linecap:round;stroke-linejoin:round;stroke-miterlimit:10;stroke-dasharray:3,3;" x1="406.1" y1="3.7" x2="406.1" y2="328.2"/>
	
		<line style="fill:none;stroke:#000100;stroke-width:1.5;stroke-linecap:round;stroke-linejoin:round;stroke-miterlimit:10;stroke-dasharray:3,3;" x1="343.2" y1="3.7" x2="343.2" y2="328.2"/>
	
		<line style="fill:none;stroke:#000100;stroke-width:1.5;stroke-linecap:round;stroke-linejoin:round;stroke-miterlimit:10;" x1="241.3" y1="129.4" x2="477.7" y2="129.4"/>
	
		<line style="fill:none;stroke:#000100;stroke-width:1.5;stroke-linecap:round;stroke-linejoin:round;stroke-miterlimit:10;" x1="241.3" y1="274.9" x2="477.7" y2="274.9"/>
	<g>
		<g>
			<path style="fill:#121312;" d="M375,17.1c1.6,0,3,0.2,4.2,0.6s2.2,1,3,1.7s1.4,1.5,1.8,2.5c0.4,0.9,0.6,2,0.6,3v0.4
				c0,1.6-0.3,3.1-1,4.5s-1.8,2.8-3.2,4.3l-9.9,10.4h14c0.5,0,0.9,0.2,1.1,0.5c0.2,0.4,0.4,0.8,0.4,1.3s-0.1,0.9-0.4,1.3
				c-0.2,0.4-0.6,0.5-1.1,0.5h-16.6c-1.1,0-1.9-0.2-2.4-0.6c-0.5-0.4-0.7-1-0.7-1.8c0-0.4,0.1-0.7,0.3-1.1c0.2-0.3,0.5-0.8,1-1.2
				l10.5-11.1c0.8-0.8,1.4-1.5,1.9-2.1s0.9-1.2,1.1-1.7c0.3-0.5,0.5-1.1,0.6-1.6s0.2-1.1,0.2-1.6v-0.2c0-1.3-0.4-2.3-1.3-3
				s-2.2-1.1-3.9-1.1c-1.4,0-2.6,0.3-3.6,0.9s-1.8,1.4-2.6,2.6c-0.3,0.4-0.7,0.7-1.2,0.8s-0.9,0-1.4-0.4c-0.5-0.3-0.8-0.7-0.9-1.2
				s0-1,0.3-1.5c0.9-1.4,2.1-2.6,3.7-3.6C370.8,17.6,372.7,17.1,375,17.1z"/>
		</g>
	</g>
	<g>
		<g>
			<path style="fill:#121312;" d="M316.3,17.4c0.7,0,1.2,0.1,1.6,0.4s0.6,0.8,0.6,1.4v27.3c0,0.6-0.2,1.1-0.6,1.4s-0.9,0.4-1.5,0.4
				s-1.1-0.1-1.5-0.4c-0.4-0.3-0.6-0.7-0.6-1.4v-24l-6.4,4c-0.5,0.3-1.1,0.4-1.5,0.2c-0.5-0.2-0.9-0.5-1.2-1
				c-0.2-0.5-0.3-0.9-0.2-1.4c0.1-0.5,0.4-0.9,0.9-1.2l7.7-4.6c0.6-0.3,1.1-0.6,1.5-0.7C315.4,17.5,315.8,17.4,316.3,17.4z"/>
		</g>
	</g>
	<g>
		<path style="fill:#BC3D69;" d="M439.7,17.1c1.4,0,2.7,0.1,3.8,0.4c1.2,0.3,2.1,0.6,2.9,1c0.7,0.4,1.1,0.9,1.2,1.4s0.1,1.1-0.2,1.8
			c-0.3,0.7-0.7,1.1-1.2,1.4c-0.6,0.2-1.2,0.2-2-0.1c-1.5-0.6-3.2-0.9-4.9-0.9c-0.8,0-1.6,0.1-2.3,0.4c-0.7,0.3-1.4,0.8-2,1.4
			c-0.6,0.7-1.1,1.5-1.4,2.6c-0.4,1.1-0.6,2.4-0.8,4c0.7-0.9,1.8-1.6,3-2c1.3-0.5,2.6-0.7,3.9-0.7c1.5,0,2.8,0.2,4,0.7
			s2.2,1.1,3.1,2c0.8,0.9,1.5,1.9,1.9,3.2c0.4,1.2,0.7,2.6,0.7,4.1v0.6c0,1.4-0.3,2.8-0.8,4s-1.2,2.3-2.2,3.2
			c-0.9,0.9-2.1,1.6-3.5,2.1s-2.9,0.8-4.6,0.8c-2,0-3.7-0.3-5.1-0.9s-2.6-1.5-3.4-2.6c-0.9-1.1-1.5-2.5-2-4.2
			c-0.4-1.6-0.6-3.4-0.6-5.4V34c0-3.4,0.3-6.2,1-8.4c0.6-2.2,1.5-3.9,2.6-5.2c1.1-1.2,2.4-2.1,3.9-2.6
			C436.4,17.4,438,17.1,439.7,17.1z M438.6,32.7c-1,0-1.9,0.1-2.6,0.4s-1.3,0.6-1.7,1.1c-0.5,0.5-0.8,1-1,1.7s-0.3,1.3-0.3,2v0.4
			c0,1.7,0.5,3,1.4,3.9s2.3,1.4,4,1.4c1.9,0,3.3-0.5,4.3-1.4s1.4-2.3,1.4-4V38c0-1.8-0.4-3.1-1.3-4
			C441.8,33.1,440.4,32.7,438.6,32.7z"/>
	</g>
	<g>
		<g>
			<path style="fill:#BC3D69;" d="M437.6,80.5c1.7,0,3.3,0.2,4.5,0.6c1.3,0.4,2.3,1,3.1,1.7c0.8,0.7,1.4,1.6,1.8,2.5
				c0.4,1,0.6,2,0.6,3v0.5c0,1.6-0.4,3.2-1.1,4.7c-0.8,1.5-1.9,3-3.3,4.5l-9.1,9h13c0.7,0,1.1,0.2,1.5,0.7c0.3,0.4,0.5,1,0.5,1.6
				s-0.2,1.2-0.5,1.6s-0.8,0.7-1.5,0.7h-16.4c-1.4,0-2.4-0.2-3-0.7s-0.9-1.2-0.9-2.2c0-0.5,0.1-0.9,0.4-1.3c0.2-0.4,0.6-0.8,1.1-1.3
				l10-10.1c0.8-0.8,1.4-1.5,1.9-2.1s0.9-1.2,1.2-1.7c0.3-0.5,0.5-1.1,0.6-1.6s0.2-1,0.2-1.6v-0.2c0-0.9-0.4-1.7-1.1-2.3
				c-0.7-0.6-1.8-0.9-3.3-0.9c-1.3,0-2.4,0.2-3.2,0.7c-0.9,0.5-1.7,1.2-2.4,2.2c-0.4,0.5-0.9,0.9-1.5,0.9c-0.6,0.1-1.2-0.1-1.8-0.5
				c-0.6-0.4-0.9-0.9-1.1-1.5s0-1.2,0.4-1.9c0.9-1.4,2.2-2.6,3.8-3.5S435.4,80.5,437.6,80.5z"/>
		</g>
	</g>
	<g>
		<path style="fill:#BC3D69;" d="M437.6,142.6c1.7,0,3.3,0.2,4.5,0.6c1.3,0.4,2.3,1,3.1,1.7c0.8,0.7,1.4,1.6,1.8,2.5
			c0.4,1,0.6,2,0.6,3v0.5c0,1.6-0.4,3.2-1.1,4.7c-0.8,1.5-1.9,3-3.3,4.5l-9.1,9h13c0.7,0,1.1,0.2,1.5,0.7c0.3,0.4,0.5,1,0.5,1.6
			s-0.2,1.2-0.5,1.6c-0.3,0.4-0.8,0.7-1.5,0.7h-16.4c-1.4,0-2.4-0.2-3-0.7s-0.9-1.2-0.9-2.2c0-0.5,0.1-0.9,0.4-1.3
			c0.2-0.4,0.6-0.8,1.1-1.3l10-10.1c0.8-0.8,1.4-1.5,1.9-2.1s0.9-1.2,1.2-1.7c0.3-0.5,0.5-1.1,0.6-1.6s0.2-1,0.2-1.6v-0.2
			c0-0.9-0.4-1.7-1.1-2.3s-1.8-0.9-3.3-0.9c-1.3,0-2.4,0.2-3.2,0.7c-0.9,0.5-1.7,1.2-2.4,2.2c-0.4,0.5-0.9,0.9-1.5,0.9
			c-0.6,0.1-1.2-0.1-1.8-0.5c-0.6-0.4-0.9-0.9-1.1-1.5s0-1.2,0.4-1.9c0.9-1.4,2.2-2.6,3.8-3.5S435.4,142.6,437.6,142.6z"/>
	</g>
	<g>
		<path style="fill:#BC3D69;" d="M378.6,142.8c0.8,0,1.5,0.2,2.1,0.6c0.5,0.4,0.8,1,0.8,1.8v26.4c0,0.8-0.3,1.4-0.8,1.8
			c-0.5,0.4-1.2,0.6-1.9,0.6s-1.4-0.2-1.9-0.6c-0.5-0.4-0.8-1-0.8-1.8v-22.3l-5.5,3.2c-0.7,0.4-1.4,0.5-2,0.2
			c-0.6-0.2-1.1-0.7-1.5-1.3c-0.3-0.6-0.4-1.2-0.3-1.8c0.1-0.7,0.5-1.2,1.2-1.5l7.3-4c0.7-0.4,1.4-0.7,1.9-0.9
			C377.6,142.9,378.1,142.8,378.6,142.8z"/>
	</g>
	<path style="fill:#121312;" d="M263.9,97.9l7.1-7.1c1-1,1-2.6,0-3.5s-2.6-1-3.5,0l-7.1,7.1l-7.1-7.1c-1-1-2.6-1-3.5,0s-1,2.6,0,3.5
		l7.1,7.1l-7.1,7.1c-1,1-1,2.6,0,3.5s2.6,1,3.5,0l7.1-7.1l7.1,7.1c1,1,2.6,1,3.5,0s1-2.6,0-3.5L263.9,97.9z"/>
</g>
<g>
	
		<line style="fill:none;stroke:#000100;stroke-width:1.5;stroke-linecap:round;stroke-linejoin:round;stroke-miterlimit:10;stroke-dasharray:3,3;" x1="229.7" y1="3.7" x2="229.7" y2="328.2"/>
	
		<line style="fill:none;stroke:#000100;stroke-width:1.5;stroke-linecap:round;stroke-linejoin:round;stroke-miterlimit:10;stroke-dasharray:3,3;" x1="166.8" y1="3.7" x2="166.8" y2="328.2"/>
	
		<line style="fill:none;stroke:#000100;stroke-width:1.5;stroke-linecap:round;stroke-linejoin:round;stroke-miterlimit:10;stroke-dasharray:3,3;" x1="103.9" y1="3.7" x2="103.9" y2="328.2"/>
	
		<line style="fill:none;stroke:#000100;stroke-width:1.5;stroke-linecap:round;stroke-linejoin:round;stroke-miterlimit:10;" x1="2" y1="129.4" x2="238.4" y2="129.4"/>
	
		<line style="fill:none;stroke:#000100;stroke-width:1.5;stroke-linecap:round;stroke-linejoin:round;stroke-miterlimit:10;" x1="2" y1="274.9" x2="238.4" y2="274.9"/>
	<g>
		<g>
			<path style="fill:#121312;" d="M135.6,17.1c1.6,0,3,0.2,4.2,0.6s2.2,1,3,1.7s1.4,1.5,1.8,2.5c0.4,0.9,0.6,2,0.6,3v0.4
				c0,1.6-0.3,3.1-1,4.5s-1.8,2.8-3.2,4.3l-9.9,10.4h14c0.5,0,0.9,0.2,1.1,0.5c0.2,0.4,0.4,0.8,0.4,1.3s-0.1,0.9-0.4,1.3
				c-0.2,0.4-0.6,0.5-1.1,0.5h-16.6c-1.1,0-1.9-0.2-2.4-0.6c-0.5-0.4-0.7-1-0.7-1.8c0-0.4,0.1-0.7,0.3-1.1c0.2-0.3,0.5-0.8,1-1.2
				l10.5-11.1c0.8-0.8,1.4-1.5,1.9-2.1s0.9-1.2,1.1-1.7c0.3-0.5,0.5-1.1,0.6-1.6s0.2-1.1,0.2-1.6v-0.2c0-1.3-0.4-2.3-1.3-3
				c-0.9-0.7-2.2-1.1-3.9-1.1c-1.4,0-2.6,0.3-3.6,0.9s-1.8,1.4-2.6,2.6c-0.3,0.4-0.7,0.7-1.2,0.8s-0.9,0-1.4-0.4
				c-0.5-0.3-0.8-0.7-0.9-1.2s0-1,0.3-1.5c0.9-1.4,2.1-2.6,3.7-3.6C131.5,17.6,133.4,17.1,135.6,17.1z"/>
		</g>
	</g>
	<g>
		<g>
			<path style="fill:#121312;" d="M76.9,17.4c0.7,0,1.2,0.1,1.6,0.4s0.6,0.8,0.6,1.4v27.3c0,0.6-0.2,1.1-0.6,1.4s-0.9,0.4-1.5,0.4
				s-1.1-0.1-1.5-0.4c-0.4-0.3-0.6-0.7-0.6-1.4v-24l-6.4,4c-0.5,0.3-1.1,0.4-1.5,0.2c-0.5-0.2-0.9-0.5-1.2-1
				c-0.2-0.5-0.3-0.9-0.2-1.4c0.1-0.5,0.4-0.9,0.9-1.2l7.7-4.6c0.6-0.3,1.1-0.6,1.5-0.7C76.1,17.5,76.5,17.4,76.9,17.4z"/>
		</g>
	</g>
	<g>
		<g>
			<path style="fill:#121312;" d="M200.1,17.1c1.4,0,2.7,0.1,3.9,0.4s2.2,0.7,3,1.1c0.5,0.3,0.8,0.7,0.9,1.1s0.1,0.9-0.2,1.4
				c-0.2,0.5-0.6,0.9-1,1c-0.4,0.2-1,0.1-1.5-0.1c-0.8-0.4-1.6-0.7-2.5-0.8S201,21,199.9,21c-4.6,0-7.1,3.6-7.5,10.7
				c0.7-1.1,1.8-2,3.1-2.6s2.8-0.9,4.3-0.9s2.8,0.2,4,0.7s2.2,1.1,3,2s1.5,1.9,1.9,3.1s0.7,2.6,0.7,4v0.7c0,1.5-0.3,2.8-0.8,4.1
				s-1.2,2.3-2.1,3.1c-0.9,0.9-2,1.6-3.4,2c-1.3,0.5-2.7,0.7-4.3,0.7c-3.5,0-6.2-1.1-8-3.4c-1.8-2.2-2.8-5.5-2.8-9.7v-1.2
				c0-3.4,0.3-6.1,0.9-8.3c0.6-2.2,1.4-4,2.5-5.3s2.3-2.3,3.8-2.8C196.8,17.4,198.4,17.1,200.1,17.1z M199,32c-1.1,0-2,0.2-2.8,0.5
				s-1.5,0.7-2,1.3c-0.5,0.5-1,1.2-1.2,1.9c-0.3,0.7-0.4,1.5-0.4,2.3v0.3c0,2,0.6,3.5,1.7,4.7c1.1,1.2,2.7,1.7,4.6,1.7
				c2,0,3.6-0.5,4.7-1.6c1.1-1.1,1.7-2.6,1.7-4.6v-0.3C205.3,34,203.2,32,199,32z"/>
		</g>
	</g>
	<g>
		<g>
			<path style="fill:#121312;" d="M198.3,80.5c1.6,0,3,0.2,4.2,0.6s2.2,1,3,1.7s1.4,1.5,1.8,2.5c0.4,0.9,0.6,2,0.6,3v0.4
				c0,1.6-0.3,3.1-1,4.5s-1.8,2.8-3.2,4.3l-9.9,10.4h14c0.5,0,0.9,0.2,1.1,0.5c0.2,0.4,0.4,0.8,0.4,1.3s-0.1,0.9-0.4,1.3
				c-0.2,0.4-0.6,0.5-1.1,0.5h-16.6c-1.1,0-1.9-0.2-2.4-0.6s-0.7-1-0.7-1.8c0-0.4,0.1-0.7,0.3-1.1c0.2-0.3,0.5-0.8,1-1.2l10.5-11.1
				c0.8-0.8,1.4-1.5,1.9-2.1s0.9-1.2,1.1-1.7c0.3-0.5,0.5-1.1,0.6-1.6s0.2-1.1,0.2-1.6v-0.2c0-1.3-0.4-2.3-1.3-3
				c-0.9-0.7-2.2-1.1-3.9-1.1c-1.4,0-2.6,0.3-3.6,0.9s-1.8,1.4-2.6,2.6c-0.3,0.4-0.7,0.7-1.2,0.8s-0.9,0-1.4-0.4
				c-0.5-0.3-0.8-0.7-0.9-1.2c-0.1-0.5,0-1,0.3-1.5c0.9-1.4,2.1-2.6,3.7-3.6C194.2,81,196.1,80.5,198.3,80.5z"/>
		</g>
	</g>
	<path style="fill:#121312;" d="M23.6,96.9l7.1-7.1c1-1,1-2.6,0-3.5s-2.6-1-3.5,0l-7.1,7.1L13,86.3c-1-1-2.6-1-3.5,0s-1,2.6,0,3.5
		l7.1,7.1L9.5,104c-1,1-1,2.6,0,3.5s2.6,1,3.5,0l7.1-7.1l7.1,7.1c1,1,2.6,1,3.5,0s1-2.6,0-3.5L23.6,96.9z"/>
</g>
<g>
	<path style="fill:#252122;" d="M1029.4,289.3c1.6,0,3,0.2,4.1,0.6c1.2,0.4,2.1,0.9,2.9,1.6c0.8,0.7,1.4,1.5,1.8,2.4s0.5,1.9,0.5,3
		v0.4c0,1.6-0.3,3.1-1,4.4c-0.7,1.4-1.7,2.7-3.1,4.2l-9.6,10.1h13.7c0.5,0,0.9,0.2,1.1,0.5c0.2,0.3,0.4,0.8,0.4,1.3
		c0,0.5-0.1,0.9-0.4,1.3c-0.2,0.3-0.6,0.5-1.1,0.5h-16.2c-1.1,0-1.9-0.2-2.4-0.5c-0.5-0.4-0.7-0.9-0.7-1.7c0-0.4,0.1-0.7,0.3-1
		c0.2-0.3,0.5-0.8,1-1.2l10.2-10.8c0.8-0.8,1.4-1.5,1.8-2.1c0.4-0.6,0.8-1.2,1.1-1.7s0.5-1,0.5-1.5c0.1-0.5,0.2-1,0.2-1.6v-0.2
		c0-1.2-0.4-2.2-1.3-3c-0.9-0.7-2.1-1.1-3.8-1.1c-1.4,0-2.6,0.3-3.5,0.9c-0.9,0.5-1.8,1.4-2.6,2.5c-0.3,0.4-0.7,0.7-1.2,0.7
		s-0.9-0.1-1.4-0.4c-0.4-0.3-0.7-0.7-0.9-1.2c-0.1-0.5-0.1-0.9,0.3-1.4c0.9-1.4,2.1-2.6,3.6-3.5
		C1025.4,289.8,1027.3,289.3,1029.4,289.3z"/>
</g>
<g>
	<path style="fill:#252122;" d="M1155.8,289c1.6,0,3,0.2,4.1,0.6c1.2,0.4,2.1,0.9,2.9,1.6c0.8,0.7,1.4,1.5,1.8,2.4
		c0.4,0.9,0.5,1.9,0.5,3v0.4c0,1.6-0.3,3.1-1,4.4c-0.7,1.4-1.7,2.7-3.1,4.2l-9.6,10.1h13.7c0.5,0,0.9,0.2,1.1,0.5
		c0.2,0.3,0.4,0.8,0.4,1.3s-0.1,0.9-0.4,1.3c-0.2,0.3-0.6,0.5-1.1,0.5h-16.2c-1.1,0-1.9-0.2-2.4-0.5c-0.5-0.4-0.7-0.9-0.7-1.7
		c0-0.4,0.1-0.7,0.3-1c0.2-0.3,0.5-0.8,1-1.2l10.2-10.8c0.8-0.8,1.4-1.5,1.8-2.1c0.4-0.6,0.8-1.2,1.1-1.7s0.5-1,0.5-1.5
		c0.1-0.5,0.2-1,0.2-1.6v-0.2c0-1.2-0.4-2.2-1.3-3c-0.9-0.7-2.1-1.1-3.8-1.1c-1.4,0-2.6,0.3-3.5,0.9c-0.9,0.5-1.8,1.4-2.6,2.5
		c-0.3,0.4-0.7,0.7-1.2,0.7c-0.4,0.1-0.9-0.1-1.4-0.4c-0.4-0.3-0.7-0.7-0.9-1.2c-0.1-0.5-0.1-0.9,0.3-1.4c0.9-1.4,2.1-2.6,3.6-3.5
		C1151.8,289.4,1153.7,289,1155.8,289z"/>
</g>
<g>
	<path style="fill:#252122;" d="M1101,290.4c0.2,0.4,0.3,0.8,0.3,1.3s-0.1,0.9-0.3,1.3c-0.2,0.3-0.6,0.5-1.2,0.5h-11.4l-0.5,9.3
		c0.7-0.5,1.6-1,2.6-1.4c1-0.4,2.1-0.5,3.5-0.5c1.5,0,2.7,0.2,3.8,0.7c1.1,0.5,2.1,1.2,2.8,2c0.8,0.8,1.4,1.8,1.8,2.9
		s0.6,2.3,0.6,3.6v0.4c0,1.2-0.2,2.4-0.5,3.5s-1,2.2-1.8,3.1c-0.8,0.9-1.9,1.7-3.3,2.2s-3,0.9-4.9,0.9s-3.6-0.2-5.1-0.7
		s-2.8-1-3.9-1.8c-0.5-0.3-0.8-0.8-0.9-1.3c-0.1-0.5,0.1-1,0.3-1.5c0.7-1,1.5-1.3,2.6-0.6c1,0.6,2,1.1,3.1,1.4
		c1.1,0.3,2.4,0.5,3.8,0.5c1.1,0,2.1-0.2,2.9-0.5c0.8-0.3,1.5-0.8,2-1.3s0.9-1.2,1.2-1.9c0.2-0.7,0.4-1.5,0.4-2.3V310
		c0-1.9-0.5-3.4-1.6-4.4c-1-1-2.6-1.5-4.5-1.5c-1.1,0-2.1,0.2-3,0.5c-0.9,0.4-1.7,0.8-2.4,1.4c-0.4,0.3-0.7,0.5-0.9,0.6
		c-0.3,0.1-0.6,0.2-1,0.2c-0.5,0-1-0.1-1.3-0.4c-0.3-0.3-0.5-0.6-0.4-1.1l0.7-12.4c0.1-0.7,0.1-1.2,0.2-1.6c0.1-0.4,0.3-0.8,0.5-1
		c0.2-0.2,0.5-0.4,0.9-0.5c0.4-0.1,0.9-0.2,1.5-0.2h12.1C1100.4,289.8,1100.8,290,1101,290.4z"/>
</g>
</svg>
