<?xml version="1.0" encoding="utf-8"?>
<!-- Generator: Adobe Illustrator 23.0.0, SVG Export Plug-In . SVG Version: 6.00 Build 0)  -->
<svg version="1.1" xmlns="http://www.w3.org/2000/svg" xmlns:xlink="http://www.w3.org/1999/xlink" x="0px" y="0px"
	 width="1013.9px" height="540px" viewBox="0 0 1013.9 540" enable-background="new 0 0 1013.9 540" xml:space="preserve">
<g id="Layer_1">
</g>
<g id="레이어_5">
</g>
<g id="레이어_4">
</g>
<g id="레이어_3">
	<g>
		<path fill="#2888BF" d="M348.8,313.5c0.2,0.3,0.3,0.6,0.3,1.1c0.1,0.9,0.2,1.8,0.2,2.7c0,0.9,0,1.8,0,2.7c0,1,0,2.1,0,3.1
			c0,1,0,2,0,3.1v3.2h1.6c0.3,0,0.6,0,0.9,0.1s0.6,0.2,0.8,0.3c0.3,0.2,0.5,0.3,0.6,0.6c0.2,0.2,0.3,0.5,0.3,0.8
			c0,0.8-0.3,1.4-0.8,1.7s-1.1,0.5-1.8,0.5c-0.1,0-0.2,0-0.3,0c-0.2,0-0.3,0-0.6,0c-0.2,0-0.4,0-0.6,0c-0.2,0-0.3,0-0.3-0.1v2.6
			c0,0.3,0,0.6,0,0.9c0,0.4,0,0.7-0.1,1c-0.1,0.3-0.1,0.7-0.3,1c-0.1,0.3-0.3,0.5-0.6,0.7c-0.1,0.1-0.3,0.1-0.5,0.2
			c-0.2,0-0.4,0.1-0.6,0.1s-0.5,0-0.7,0c-0.2,0-0.4,0-0.6-0.1c-0.5-0.2-0.7-0.5-0.9-1c-0.1-0.5-0.2-1-0.3-1.4c0-0.1,0-0.3,0-0.7
			s0-0.9,0-1.3s0-0.9,0-1.3c0-0.4-0.1-0.6-0.1-0.6h-6.7c-0.7,0-1.5,0-2.3,0c-0.8,0-1.5-0.3-2.1-0.7c-0.5-0.3-0.7-0.7-0.8-1.1
			c-0.1-0.4,0-0.8,0.1-1.3c0.1-0.4,0.3-0.8,0.6-1.2c0.3-0.4,0.5-0.8,0.8-1.1c1-1.3,1.9-2.6,2.8-4c0.9-1.3,1.8-2.7,2.7-4
			c0.5-0.7,1-1.3,1.6-2c0.5-0.6,1.1-1.3,1.5-2c0.4-0.5,0.7-1.1,1.2-1.6c0.4-0.6,0.9-1,1.6-1.3c0.6-0.3,1.2-0.4,1.7-0.4
			C348.1,312.8,348.5,313,348.8,313.5z M345.1,320.3l-6.3,8.9h6.3V320.3z"/>
	</g>
	<g>
		<g>
			<g>
				<g>
					<g>
						<rect x="225.7" y="295.4" fill="#B2D3E9" width="6.6" height="66.3"/>
						<polygon fill="#93C6E3" points="232.3,361.8 235.1,359 235.1,292.6 232.3,295.4 						"/>
						<polygon fill="#D2E3F0" points="232.8,295.4 235.6,292.6 228.9,292.6 226.2,295.4 						"/>
						<path fill="#2888BF" d="M232.3,362h-6.6c-0.1,0-0.3-0.1-0.3-0.3v-66.3c0-0.1,0-0.1,0.1-0.2l2.8-2.8c0.1-0.1,0.1-0.1,0.2-0.1
							l0,0h6.6c0.1,0,0.3,0.1,0.3,0.3V359c0,0.1,0,0.1-0.1,0.2l-2.8,2.8C232.5,362,232.4,362,232.3,362z M226,361.4h6.1v-6.1H226
							V361.4z M232.6,355.3v5.8l2.2-2.2V353L232.6,355.3z M226,354.9h6.1v-6.1H226V354.9z M232.6,348.6v5.8l2.2-2.2v-5.8
							L232.6,348.6z M226,348.2h6.1v-6.1H226V348.2z M232.6,342v5.8l2.2-2.2v-5.8L232.6,342z M226,341.6h6.1v-6.1H226V341.6z
							 M232.6,335.3v5.8l2.2-2.2v-5.7L232.6,335.3z M226,334.9h6.1v-6.1H226V334.9z M232.6,328.7v5.8l2.2-2.2v-5.8L232.6,328.7z
							 M226,328.3h6.1v-6.1H226V328.3z M232.6,322.1v5.8l2.2-2.2v-5.8L232.6,322.1z M226,321.7h6.1v-6.1H226V321.7z M232.6,315.4
							v5.8l2.2-2.2v-5.8L232.6,315.4z M226,315.1h6.1V309H226V315.1z M232.6,308.8v5.8l2.2-2.2v-5.8L232.6,308.8z M226,308.4h6.1
							v-6.1H226V308.4z M232.6,302.2v5.8l2.2-2.2V300L232.6,302.2z M226,301.8h6.1v-6.1H226V301.8z M232.6,295.6v5.8l2.2-2.2v-5.8
							L232.6,295.6z M226.4,295.1h5.8l2.2-2.2h-5.8L226.4,295.1z"/>
					</g>
				</g>
			</g>
			<g>
				<g>
					<g>
						<rect x="244.7" y="295.4" fill="#B2D3E9" width="6.6" height="66.3"/>
						<polygon fill="#93C6E3" points="251.3,361.8 254.1,359 254.1,292.6 251.3,295.4 						"/>
						<polygon fill="#D2E3F0" points="251.8,295.4 254.6,292.6 247.9,292.6 245.2,295.4 						"/>
						<path fill="#2888BF" d="M251.3,362h-6.6c-0.1,0-0.3-0.1-0.3-0.3v-66.3c0-0.1,0-0.1,0.1-0.2l2.8-2.8c0.1-0.1,0.1-0.1,0.2-0.1
							l0,0h6.6c0.1,0,0.3,0.1,0.3,0.3V359c0,0.1,0,0.1-0.1,0.2l-2.8,2.8C251.5,362,251.4,362,251.3,362z M245,361.4h6.1v-6.1H245
							V361.4z M251.6,355.3v5.8l2.2-2.2V353L251.6,355.3z M245,354.9h6.1v-6.1H245V354.9z M251.6,348.6v5.8l2.2-2.2v-5.8
							L251.6,348.6z M245,348.2h6.1v-6.1H245V348.2z M251.6,342v5.8l2.2-2.2v-5.8L251.6,342z M245,341.6h6.1v-6.1H245V341.6z
							 M251.6,335.3v5.8l2.2-2.2v-5.7L251.6,335.3z M245,334.9h6.1v-6.1H245V334.9z M251.6,328.7v5.8l2.2-2.2v-5.8L251.6,328.7z
							 M245,328.3h6.1v-6.1H245V328.3z M251.6,322.1v5.8l2.2-2.2v-5.8L251.6,322.1z M245,321.7h6.1v-6.1H245V321.7z M251.6,315.4
							v5.8l2.2-2.2v-5.8L251.6,315.4z M245,315.1h6.1V309H245V315.1z M251.6,308.8v5.8l2.2-2.2v-5.8L251.6,308.8z M245,308.4h6.1
							v-6.1H245V308.4z M251.6,302.2v5.8l2.2-2.2V300L251.6,302.2z M245,301.8h6.1v-6.1H245V301.8z M251.6,295.6v5.8l2.2-2.2v-5.8
							L251.6,295.6z M245.4,295.1h5.8l2.2-2.2h-5.8L245.4,295.1z"/>
					</g>
				</g>
			</g>
		</g>
		<g>
			<g>
				<g>
					<g>
						<rect x="264" y="295.4" fill="#B2D3E9" width="6.6" height="66.3"/>
						<polygon fill="#93C6E3" points="270.6,361.8 273.4,359 273.4,292.6 270.6,295.4 						"/>
						<polygon fill="#D2E3F0" points="271.1,295.4 273.9,292.6 267.3,292.6 264.5,295.4 						"/>
						<path fill="#2888BF" d="M270.6,362H264c-0.1,0-0.3-0.1-0.3-0.3v-66.3c0-0.1,0-0.1,0.1-0.2l2.8-2.8c0.1-0.1,0.1-0.1,0.2-0.1
							l0,0h6.6c0.1,0,0.3,0.1,0.3,0.3V359c0,0.1,0,0.1-0.1,0.2l-2.8,2.8C270.8,362,270.7,362,270.6,362z M264.3,361.4h6.1v-6.1h-6.1
							V361.4z M270.9,355.3v5.8l2.2-2.2V353L270.9,355.3z M264.3,354.9h6.1v-6.1h-6.1V354.9z M270.9,348.6v5.8l2.2-2.2v-5.8
							L270.9,348.6z M264.3,348.2h6.1v-6.1h-6.1V348.2z M270.9,342v5.8l2.2-2.2v-5.8L270.9,342z M264.3,341.6h6.1v-6.1h-6.1V341.6z
							 M270.9,335.3v5.8l2.2-2.2v-5.7L270.9,335.3z M264.3,334.9h6.1v-6.1h-6.1V334.9z M270.9,328.7v5.8l2.2-2.2v-5.8L270.9,328.7z
							 M264.3,328.3h6.1v-6.1h-6.1V328.3z M270.9,322.1v5.8l2.2-2.2v-5.8L270.9,322.1z M264.3,321.7h6.1v-6.1h-6.1V321.7z
							 M270.9,315.4v5.8l2.2-2.2v-5.8L270.9,315.4z M264.3,315.1h6.1V309h-6.1V315.1z M270.9,308.8v5.8l2.2-2.2v-5.8L270.9,308.8z
							 M264.3,308.4h6.1v-6.1h-6.1V308.4z M270.9,302.2v5.8l2.2-2.2V300L270.9,302.2z M264.3,301.8h6.1v-6.1h-6.1V301.8z
							 M270.9,295.6v5.8l2.2-2.2v-5.8L270.9,295.6z M264.7,295.1h5.8l2.2-2.2h-5.8L264.7,295.1z"/>
					</g>
				</g>
			</g>
			<g>
				<g>
					<g>
						<rect x="283" y="295.4" fill="#B2D3E9" width="6.6" height="66.3"/>
						<polygon fill="#93C6E3" points="289.6,361.8 292.4,359 292.4,292.6 289.6,295.4 						"/>
						<polygon fill="#D2E3F0" points="290.1,295.4 292.9,292.6 286.3,292.6 283.5,295.4 						"/>
						<path fill="#2888BF" d="M289.6,362H283c-0.1,0-0.3-0.1-0.3-0.3v-66.3c0-0.1,0-0.1,0.1-0.2l2.8-2.8c0.1-0.1,0.1-0.1,0.2-0.1
							l0,0h6.6c0.1,0,0.3,0.1,0.3,0.3V359c0,0.1,0,0.1-0.1,0.2l-2.8,2.8C289.8,362,289.8,362,289.6,362z M283.3,361.4h6.1v-6.1h-6.1
							V361.4z M289.9,355.3v5.8l2.2-2.2V353L289.9,355.3z M283.3,354.9h6.1v-6.1h-6.1V354.9z M289.9,348.6v5.8l2.2-2.2v-5.8
							L289.9,348.6z M283.3,348.2h6.1v-6.1h-6.1V348.2z M289.9,342v5.8l2.2-2.2v-5.8L289.9,342z M283.3,341.6h6.1v-6.1h-6.1V341.6z
							 M289.9,335.3v5.8l2.2-2.2v-5.7L289.9,335.3z M283.3,334.9h6.1v-6.1h-6.1V334.9z M289.9,328.7v5.8l2.2-2.2v-5.8L289.9,328.7z
							 M283.3,328.3h6.1v-6.1h-6.1V328.3z M289.9,322.1v5.8l2.2-2.2v-5.8L289.9,322.1z M283.3,321.7h6.1v-6.1h-6.1V321.7z
							 M289.9,315.4v5.8l2.2-2.2v-5.8L289.9,315.4z M283.3,315.1h6.1V309h-6.1V315.1z M289.9,308.8v5.8l2.2-2.2v-5.8L289.9,308.8z
							 M283.3,308.4h6.1v-6.1h-6.1V308.4z M289.9,302.2v5.8l2.2-2.2V300L289.9,302.2z M283.3,301.8h6.1v-6.1h-6.1V301.8z
							 M289.9,295.6v5.8l2.2-2.2v-5.8L289.9,295.6z M283.7,295.1h5.8l2.2-2.2h-5.8L283.7,295.1z"/>
					</g>
				</g>
			</g>
		</g>
	</g>
</g>
<g id="레이어_2">
	<g>
	</g>
	<g>
	</g>
	<g>
	</g>
	<g>
	</g>
	<g>
	</g>
	<g>
	</g>
</g>
</svg>
