
<svg xmlns="http://www.w3.org/2000/svg" version="1.1" xmlns:xlink="http://www.w3.org/1999/xlink" preserveAspectRatio="none" x="0px" y="0px" width="1178px" height="472px" viewBox="0 0 1178 472">
<defs>
<g id="Layer0_0_FILL">
<path fill="#569ECC" stroke="none" d="
M 417.35 44.95
L 417.35 2.95 53.25 2.95 53.25 44.95
Q 53.25 55.3 60.55 62.6 67.9 69.95 78.25 69.95
L 392.35 69.95
Q 402.75 69.95 410 62.6 417.35 55.35 417.35 44.95 Z"/>

<path fill="#FFFFFF" stroke="none" d="
M 1172.5 27.95
Q 1172.5 17.6 1165.15 10.25 1157.85 2.95 1147.5 2.95
L 417.35 2.95 417.35 44.95
Q 417.35 55.35 410 62.6 402.75 69.95 392.35 69.95
L 78.25 69.95
Q 67.9 69.95 60.55 62.6 53.25 55.3 53.25 44.95
L 53.25 2.95 30.5 2.95
Q 20.2 2.95 12.8 10.25 5.5 17.65 5.5 27.95
L 5.5 444.1
Q 5.5 454.45 12.8 461.75 20.15 469.1 30.5 469.1
L 1147.5 469.1
Q 1157.9 469.1 1165.15 461.75 1172.5 454.5 1172.5 444.1
L 1172.5 27.95 Z"/>
</g>

<g id="Layer0_1_FILL">
<path fill="#FFFFFF" stroke="none" d="
M 379.45 19
Q 379.15 18.95 378.85 18.95 378.6 19.05 378.4 19.15 378.2 19.25 378.1 19.35 378 19.45 377.95 19.6 377.9 19.75 377.9 19.85 377.9 20.2 378.05 20.5 378.25 20.85 378.45 21.15 378.6 21.5 378.8 21.9 378.95 22.3 379.2 22.7 379.4 23.1 379.55 23.55 379.7 23.95 379.85 24.35 380.15 25.2 380.5 25.95 380.6 26.35 380.75 26.7 380.85 27.1 380.95 27.4 381.1 28.1 381.2 28.75 381.35 29.45 381.4 30.1 381.45 30.7 381.45 31.35 381.45 32 381.45 32.65 381.45 32.95 381.45 33.3 381.45 33.65 381.45 34.05 381.4 34.45 381.35 34.9 381.35 35.3 381.3 35.7 381.25 36.15 381.2 36.55 381.1 36.95 381.1 37.35 381 37.8 380.95 38.15 380.85 38.55 380.8 38.85 380.45 40.2 380 41.45 379.5 42.8 378.65 44.25 378.55 44.4 378.45 44.6 378.35 44.75 378.25 44.9 378.15 45.1 378.1 45.25 378.05 45.4 378.05 45.55 377.95 45.8 378.25 46.1 378.3 46.2 378.55 46.3 378.75 46.4 379.1 46.5 379.35 46.5 379.6 46.45 379.85 46.35 380.1 46.15 380.3 45.95 380.45 45.8 380.6 45.55 380.75 45.4 381.15 44.55 381.75 43.5 382.35 42.4 383.05 41.05 383.25 40.65 383.4 40.2 383.55 39.7 383.7 39.2 383.85 38.7 384 38.15 384.15 37.6 384.3 37.05 384.4 36.5 384.45 35.95 384.55 35.4 384.6 34.8 384.65 34.25 384.7 33.7 384.7 33.15 384.7 32.65 384.7 31.6 384.6 30.6 384.55 29.65 384.35 28.7 384.15 27.8 383.9 26.95 383.65 26.1 383.35 25.25 383.15 24.95 382.95 24.55 382.8 24.2 382.6 23.8 382.4 23.45 382.2 23.05 382.05 22.7 381.9 22.35 381.65 22 381.45 21.65 381.3 21.3 381.15 21 380.95 20.65 380.8 20.4 380.65 20.15 380.55 19.95 380.4 19.75 380.25 19.55 380.05 19.4 379.9 19.2 379.7 19.05 379.45 19
M 368.45 20.95
Q 367.8 20.8 367.05 20.8
L 367 20.8
Q 366.25 20.8 365.6 20.9 365 21.05 364.4 21.35 363.8 21.65 363.25 22 362.75 22.4 362.3 22.85 361.9 23.3 361.55 23.8 361.25 24.3 361 24.85 360.75 25.4 360.65 25.95 360.55 26.5 360.55 27 360.55 27.3 360.65 27.55 360.75 27.8 361 27.95 361.25 28.15 361.5 28.25 361.75 28.35 362 28.35 362.8 28.35 363.45 27.8 363.7 27.55 363.85 27.2 364 26.85 364 26.4 364 26.25 364.1 26.05 364.15 25.85 364.3 25.6 364.35 25.45 364.5 25.25 364.7 25.05 364.9 24.9 365.1 24.75 365.35 24.6 365.65 24.45 365.95 24.3 366.2 24.2 366.5 24.15 366.75 24.1 367.05 24.1 367.85 24.1 368.5 24.35 368.8 24.55 369.05 24.7 369.3 24.9 369.5 25.15 369.7 25.35 369.85 25.6 370.05 25.85 370.15 26.15 370.3 26.45 370.35 26.7 370.4 27 370.4 27.3 370.4 27.55 370.35 27.8 370.3 28.05 370.15 28.3 370.05 28.55 369.9 28.85 369.75 29.1 369.6 29.35 369.5 29.6 369.3 29.85 369.1 30.1 368.9 30.3 368.7 30.55 368.45 30.7 368.3 30.85 368.1 30.95 367.7 31.25 367.35 31.55 366.95 31.85 366.55 32.15 366.15 32.45 365.75 32.75 365.4 33.05 365 33.3 364.45 33.75 364 34.15 363.5 34.55 363.15 34.9 362.75 35.3 362.4 35.65 362.1 36.05 361.9 36.4 361.6 36.8 361.4 37.2 361.2 37.6 361.05 38 360.9 38.45 360.75 38.9 360.65 39.4 360.6 39.95 360.6 40 360.6 40.1 360.6 40.2 360.55 40.25 360.5 40.4 360.5 40.5 360.5 40.55 360.5 40.6
L 360.5 40.75
Q 360.5 40.9 360.5 40.95 360.5 41.05 360.5 41.1 360.45 41.55 360.6 41.9 360.75 42.2 361.1 42.4 361.35 42.6 361.7 42.7 362 42.8 362.4 42.8
L 372.4 42.8
Q 373.25 42.8 373.7 42.4 374.15 41.95 374.15 41.1 374.15 40.7 374.05 40.45 373.9 40.15 373.65 40 373.4 39.85 373.05 39.8 372.7 39.75 372.2 39.75
L 364.45 39.75
Q 364.45 39.25 364.6 38.8 364.75 38.35 365.05 37.95 365.3 37.55 365.65 37.15 366 36.8 366.45 36.45 366.8 36.1 367.25 35.8 367.65 35.5 368.1 35.2 368.55 34.95 368.95 34.7 369.3 34.45 369.6 34.2 370.05 33.9 370.45 33.55 370.85 33.25 371.25 32.85 371.95 32.2 372.5 31.35 372.8 30.95 373.05 30.45 373.3 30.05 373.4 29.55 373.55 29.05 373.65 28.45 373.7 27.9 373.7 27.2 373.7 26.05 373.25 24.9 372.75 23.7 371.9 22.8 371.4 22.35 370.85 22 370.3 21.65 369.75 21.35 369.1 21.05 368.45 20.95
M 353.5 19.2
Q 353.3 19.4 353.15 19.55 353 19.75 352.85 19.95 352.75 20.15 352.6 20.4 352.5 20.65 352.3 21 352.1 21.3 351.9 21.65 351.7 22 351.5 22.35 351.35 22.7 351.15 23.05 351 23.45 350.8 23.8 350.6 24.2 350.4 24.55 350.25 24.95 350.15 25.25 349.75 26.1 349.45 26.95 349.15 27.8 349.05 28.7 348.85 29.65 348.8 30.6 348.7 31.6 348.7 32.65 348.7 33.15 348.7 33.7 348.75 34.25 348.8 34.8 348.85 35.4 348.95 35.95 349.05 36.5 349.1 37.05 349.2 37.6 349.35 38.15 349.5 38.7 349.7 39.2 349.85 39.7 350 40.2 350.15 40.65 350.3 41.05 350.7 41.7 351.05 42.35 351.4 42.95 351.7 43.5 351.95 44 352.2 44.5 352.45 44.95 352.7 45.4 352.8 45.55 352.95 45.8 353.15 45.95 353.35 46.15 353.55 46.35 353.8 46.45 354.05 46.5 354.3 46.5 354.65 46.4 354.85 46.3 355.1 46.2 355.2 46.1 355.3 45.95 355.35 45.8 355.35 45.7 355.35 45.55 355.3 45.4 355.25 45.25 355.2 45.1 355.15 44.9 355.05 44.75 354.95 44.6 354.85 44.4 354.75 44.25 354.35 43.5 354 42.8 353.65 42.1 353.45 41.45 353.2 40.85 353 40.2 352.8 39.55 352.65 38.85 352.55 38.55 352.5 38.15 352.4 37.8 352.35 37.35 352.25 36.95 352.2 36.55 352.15 36.15 352.1 35.7 352.05 35.3 352 34.9 351.95 34.45 351.95 34.05 351.9 33.65 351.9 33.3 351.9 32.95 351.9 32.65 351.9 32 351.9 31.35 351.95 30.7 352 30.1 352.05 29.45 352.15 28.75 352.3 28.1 352.5 27.4 352.55 27.1 352.65 26.7 352.75 26.35 352.9 25.95 353.15 25.2 353.5 24.35 353.7 23.95 353.85 23.55 354.05 23.1 354.25 22.7 354.45 22.3 354.6 21.9 354.8 21.5 355 21.15 355.2 20.85 355.35 20.5 355.4 20.35 355.45 20.2 355.5 20.05 355.5 19.85 355.5 19.6 355.35 19.35 355.2 19.25 355 19.15 354.75 19.05 354.45 18.95 354.2 18.95 353.95 19 353.75 19.05 353.5 19.2
M 326.45 22.65
Q 325.85 23.1 325.4 23.7 324.95 24.25 324.6 24.9 324.25 25.6 324.1 26.35 323.95 27.05 323.95 27.9 323.95 28.55 324.05 29.2 324.2 29.8 324.45 30.4 324.65 31 325 31.55 325.3 32.1 325.8 32.55 326.2 32.95 326.65 33.3 327.1 33.65 327.6 33.9 327.5 34.05 327.45 34.25 327.4 34.45 327.4 34.65
L 327.4 39.25 321.1 39.25
Q 320.7 39.25 320.4 39.35 320.15 39.5 320 39.7 319.85 39.95 319.8 40.25 319.7 40.55 319.7 40.85 319.7 41.2 319.8 41.45 319.85 41.7 320 41.95 320.15 42.2 320.4 42.3 320.7 42.4 321.1 42.4
L 344.65 42.4
Q 345.15 42.4 345.4 42.3 345.7 42.2 345.8 41.95 345.95 41.7 346 41.45 346.05 41.2 346.05 40.85 346.05 40.55 346 40.25 345.95 39.95 345.8 39.7 345.7 39.5 345.4 39.35 345.15 39.25 344.65 39.25
L 338.7 39.25 338.7 34.65
Q 338.7 34.35 338.6 34.1 338.55 33.9 338.4 33.75 338.65 33.6 338.9 33.45 339.2 33.3 339.45 33.1 340.7 32.15 341.3 30.85 341.95 29.55 341.95 27.9 341.95 26.25 341.3 24.9 341 24.25 340.5 23.7 340.05 23.1 339.45 22.65 338.85 22.2 338.1 21.8 337.35 21.45 336.55 21.2 335.7 20.95 334.8 20.8 333.9 20.7 332.95 20.7 331.9 20.7 331 20.8 330.1 20.95 329.3 21.2 328.45 21.45 327.75 21.8 327.05 22.2 326.45 22.65
M 330.65 24.15
Q 331.65 23.9 332.95 23.9 334.25 23.9 335.25 24.15 336.25 24.45 336.95 24.95 337.65 25.55 338 26.25 338.3 27 338.3 27.9 338.3 29.75 336.95 30.75 336.25 31.3 335.25 31.55 334.25 31.85 332.95 31.85 331.65 31.85 330.65 31.55 329.65 31.3 328.95 30.75 327.5 29.75 327.5 27.9 327.5 27 327.85 26.25 328.2 25.55 328.95 24.95 329.65 24.45 330.65 24.15
M 335.15 34.9
Q 335.25 34.85 335.4 34.85
L 335.4 39.25 330.8 39.25 330.8 34.95
Q 331.35 35.05 331.85 35.05 332.1 35.05 332.4 35.05 332.65 35.1 333 35.1 333.5 35.05 334 35 334.5 34.95 334.95 34.9 335.05 34.9 335.15 34.9
M 294.95 21.7
Q 294.7 21.8 294.55 22.05 294.35 22.3 294.3 22.55 294.2 22.85 294.2 23.2 294.2 23.5 294.3 23.75 294.4 24 294.55 24.2 294.75 24.45 295 24.55 295.2 24.65 295.5 24.65
L 297.95 24.65
Q 297.95 24.75 297.95 24.85 297.95 24.9 298 24.95 298 25.05 298 25.15 298 25.2 298 25.25 298 25.4 298 25.5 298 25.55 298 25.65 297.95 25.75 297.95 25.9 297.95 26 297.95 26.1 297.85 26.75 297.8 27.35 297.7 28 297.6 28.6 297.5 29.25 297.35 29.85 297.2 30.45 297 31.05 296.8 31.55 296.5 32.1 296.25 32.6 295.95 33.05 295.65 33.55 295.3 34 294.95 34.45 294.55 34.8 294.1 35.25 294.1 35.8 294.1 36.1 294.2 36.35 294.3 36.6 294.55 36.8 294.65 37 294.8 37.1 294.95 37.25 295.05 37.3 295.2 37.35 295.35 37.35 295.55 37.4 295.7 37.4 295.9 37.4 296.1 37.35 296.25 37.35 296.4 37.25 297.1 36.75 297.7 36.15 298.3 35.45 298.8 34.65 299.3 33.8 299.65 32.95 300.05 32.05 300.3 31.1 300.6 30.15 300.85 29.2 301.05 28.25 301.2 27.3 301.25 26.35 301.35 25.5 301.4 24.65 301.4 23.85 301.4 23.3 301.3 22.85 301.2 22.45 300.95 22.15 300.75 22 300.55 21.9 300.35 21.8 300.05 21.7 299.75 21.65 299.4 21.6 299.05 21.55 298.6 21.55
L 295.5 21.55
Q 295.2 21.55 294.95 21.7
M 312.2 19.65
Q 312.1 19.9 312.1 20.3
L 312.1 46.05
Q 312.1 46.4 312.2 46.65 312.35 46.9 312.55 47.05 312.75 47.15 313.05 47.25 313.3 47.3 313.7 47.3 314.05 47.3 314.35 47.25 314.65 47.15 314.9 47.05 315.15 46.9 315.25 46.65 315.4 46.4 315.4 46.05
L 315.4 32.45 318.3 32.45
Q 318.65 32.45 318.95 32.3 319.2 32.2 319.4 31.95 319.55 31.7 319.65 31.4 319.75 31.15 319.75 30.8 319.75 30.5 319.65 30.2 319.55 29.95 319.4 29.7 319.05 29.25 318.3 29.25
L 315.4 29.25 315.4 20.3
Q 315.4 19.9 315.25 19.65 315.15 19.4 314.9 19.25 314.65 19.15 314.35 19.05 314.05 19 313.7 19 313.3 19 313.05 19.05 312.75 19.15 312.55 19.25 312.35 19.4 312.2 19.65
M 307.05 21.6
Q 306.7 21.55 306.2 21.55
L 303.5 21.55
Q 303.15 21.55 302.9 21.65 302.7 21.75 302.55 22 302.4 22.25 302.35 22.5 302.25 22.8 302.25 23.05 302.25 23.35 302.3 23.65 302.4 23.95 302.55 24.2 302.75 24.75 303.5 24.75
L 305.35 24.75
Q 305.4 25.2 305.4 25.6 305.4 25.75 305.4 25.8 305.4 25.85 305.4 25.95 305.4 26 305.4 26.1 305.4 26.15 305.4 26.2 305.3 26.95 305.2 27.75 305.15 28.5 305 29.25 304.9 30 304.7 30.7 304.55 31.45 304.35 32.1 304.05 32.85 303.75 33.5 303.45 34.2 303.15 34.8 302.8 35.4 302.4 35.95 302 36.5 301.55 37 301.45 37.2 301.4 37.35 301.35 37.5 301.35 37.7 301.35 38.1 301.5 38.45 301.65 38.75 301.95 39 302.3 39.25 302.6 39.35 302.95 39.45 303.3 39.45 303.55 39.45 303.75 39.35 303.95 39.3 304.1 39.05 304.75 38.4 305.3 37.6 305.85 36.85 306.35 35.95 306.8 35.1 307.2 34.2 307.6 33.3 307.85 32.3 308.2 31.3 308.45 30.3 308.65 29.25 308.8 28.2 308.9 27.2 308.95 26.15 309.05 25.1 309.05 24.05 309.05 23.75 309 23.5 309 23.25 308.95 23 308.9 22.75 308.8 22.55 308.7 22.35 308.6 22.2 308.45 22.05 308.25 21.9 308 21.8 307.75 21.7 307.45 21.65 307.05 21.6
M 285.3 35.55
Q 284.9 35.45 284.3 35.45
L 271.9 35.45
Q 271.55 35.45 271.25 35.6 271 35.7 270.85 35.9 270.6 36.1 270.5 36.4 270.4 36.65 270.4 37 270.4 37.65 270.75 37.95 271.15 38.25 271.9 38.25
L 283.7 38.25
Q 283.8 38.4 283.85 38.55 283.85 38.65 283.85 38.8
L 283.85 39.05
Q 283.85 39.25 283.85 39.4 283.8 39.5 283.7 39.6
L 273.05 39.6
Q 272.45 39.6 272 39.7 271.55 39.85 271.2 40.05 270.85 40.25 270.65 40.65 270.45 41.05 270.45 41.6
L 270.45 41.8
Q 270.45 42.1 270.45 42.35 270.45 42.6 270.5 42.8 270.5 43.05 270.5 43.3 270.5 43.55 270.5 43.8 270.5 44.35 270.7 44.8 270.95 45.25 271.35 45.6 271.75 45.95 272.25 46.2 272.75 46.45 273.4 46.65 274 46.8 274.65 46.95 275.3 47.05 276.05 47.15 276.75 47.2 277.4 47.25 278.05 47.3 278.65 47.3 280.25 47.3 281.7 47.1 282.4 47 283.05 46.9 283.65 46.8 284.25 46.7 285.5 46.45 286.65 46.15 287.15 46.05 287.45 45.65 287.6 45.4 287.7 45.2 287.75 44.95 287.75 44.75 287.75 44.2 287.4 43.85 287.25 43.7 287 43.6 286.75 43.55 286.45 43.55 286.25 43.55 286.1 43.55 285.9 43.55 285.65 43.6 285.2 43.75 284.7 43.85 284.15 43.95 283.65 44.1 283.15 44.15 282.6 44.25 282.1 44.35 281.45 44.4 280.85 44.5 280.15 44.5 279.5 44.55 278.75 44.55 278.2 44.55 277.6 44.5 277.05 44.5 276.45 44.45 275.2 44.25 274.2 43.9 274.15 43.75 274.1 43.55 274.1 43.35 274.1 43.1
L 274.1 42.95
Q 274.1 42.85 274.1 42.8 274.1 42.7 274.1 42.6 274.1 42.55 274.15 42.45 274.15 42.4 274.2 42.3
L 284.3 42.3
Q 284.65 42.3 284.95 42.3 285.2 42.25 285.5 42.2 285.7 42.15 285.95 42.05 286.2 41.95 286.45 41.8 286.6 41.7 286.75 41.5 286.9 41.35 287.05 41.1 287.15 40.85 287.2 40.55 287.25 40.25 287.25 39.9
L 287.35 39.9
Q 287.35 38.8 287.25 37.95 287.2 37.5 287.1 37.15 287 36.85 286.85 36.55 286.6 36.05 286.05 35.75 285.75 35.6 285.3 35.55
M 287.6 20.8
Q 287.6 20.65 287.5 20.5 287.45 20.35 287.4 20.2 287.25 20.1 287.15 20 287.05 19.9 286.9 19.8 286.65 19.7 286.35 19.65 286.2 19.6 286 19.6 285.85 19.55 285.7 19.55 285.45 19.55 285.2 19.65 284.9 19.7 284.6 19.8 284.3 19.95 284.15 20.2 284 20.45 284 20.8
L 284 21.7 273.65 21.7 273.65 20.8
Q 273.65 20.65 273.6 20.5 273.55 20.35 273.45 20.2 273.35 20.1 273.25 20 273.15 19.9 273 19.8 272.8 19.7 272.45 19.65 272.3 19.6 272.15 19.6 271.95 19.55 271.85 19.55 271.55 19.55 271.3 19.65 271 19.7 270.7 19.8 270.4 19.95 270.25 20.2 270.1 20.45 270.1 20.8
L 270.1 25.5
Q 270.1 26.35 270.25 26.95 270.4 27.55 270.7 27.9 270.95 28.3 271.35 28.6 271.7 28.85 272.15 28.95 273 29.2 273.85 29.35 274.65 29.5 275.45 29.6 275.9 29.7 276.3 29.75 276.7 29.75 277.1 29.75
L 277.1 31.05 266.75 31.05
Q 266.45 31.05 266.2 31.2 265.95 31.3 265.8 31.5 265.65 31.75 265.6 32.05 265.5 32.35 265.5 32.65 265.5 32.95 265.6 33.25 265.65 33.5 265.8 33.7 265.95 33.95 266.2 34.1 266.45 34.2 266.75 34.2
L 290.95 34.2
Q 291.35 34.2 291.6 34.1 291.85 33.95 292.05 33.7 292.15 33.5 292.25 33.25 292.35 32.95 292.35 32.65 292.35 32.35 292.25 32.05 292.15 31.75 292.05 31.5 291.7 31.05 290.95 31.05
L 280.7 31.05 280.7 29.75
Q 281.1 29.75 281.5 29.7 281.85 29.65 282.3 29.55 283.15 29.45 283.95 29.3 284.8 29.15 285.55 28.95 286 28.9 286.4 28.65 286.8 28.4 287.05 28.05 287.6 27.3 287.6 25.85
L 287.6 20.8
M 284 25.75
L 283.9 25.85
Q 283.8 25.9 283.65 25.95 283.3 26.15 282.75 26.2 282.4 26.3 281.95 26.35 281.55 26.45 281.1 26.45 280.6 26.55 280 26.55 279.35 26.6 278.65 26.6 278.05 26.6 277.5 26.55 276.9 26.55 276.25 26.45 275.6 26.35 275 26.25 274.35 26.15 273.75 25.95 273.7 25.85 273.7 25.8 273.7 25.7 273.7 25.6 273.7 25.5 273.65 25.45 273.65 25.35 273.65 25.25
L 273.65 24.55 284 24.55 284 25.75
M 252.8 20.2
Q 252.8 19.8 252.65 19.55 252.55 19.3 252.3 19.15 252 19.05 251.75 18.95 251.45 18.9 251.15 18.9 250.8 18.9 250.45 18.95 250.1 19.05 249.85 19.15 249.5 19.3 249.35 19.55 249.25 19.8 249.25 20.2
L 249.25 27.75 245.05 27.75
Q 244.65 27.75 244.4 27.9 244.2 28 244.15 28.2 244.1 28.25 244.1 28.3 244.05 27.7 243.95 27.2 243.85 26.65 243.7 26.1 243.45 25.25 243.1 24.55 242.8 23.85 242.4 23.25 241.95 22.7 241.4 22.25 240.9 21.75 240.3 21.45 239.65 21.15 238.95 21 238.25 20.85 237.45 20.85 236.65 20.85 235.95 21 235.2 21.15 234.6 21.45 233.35 22.1 232.55 23.25 232.05 23.85 231.7 24.55 231.35 25.25 231.15 26.1 230.9 26.95 230.75 27.9 230.65 28.9 230.65 29.95 230.65 31.05 230.75 32 230.9 32.95 231.15 33.75 231.35 34.6 231.7 35.3 232.05 36 232.55 36.6 232.95 37.2 233.45 37.65 234 38.1 234.6 38.4 235.2 38.7 235.95 38.85 236.65 39 237.45 39 238.25 39 238.95 38.85 239.65 38.7 240.3 38.4 240.9 38.1 241.4 37.65 241.95 37.2 242.4 36.6 242.8 36 243.1 35.3 243.45 34.6 243.7 33.75 243.9 33.05 244 32.2 244.1 31.4 244.15 30.5 244.25 30.7 244.5 30.8 244.7 30.9 245.05 30.9
L 249.25 30.9 249.25 45.95
Q 249.25 46.35 249.35 46.6 249.5 46.85 249.85 47 250.4 47.3 251.15 47.3 251.45 47.3 251.75 47.25 252 47.15 252.3 47 252.55 46.85 252.65 46.6 252.8 46.35 252.8 45.95
L 252.8 20.2
M 237.5 24
Q 238.3 24 238.9 24.4 239.55 24.75 240.05 25.55 240.5 26.35 240.75 27.45 241 28.55 241 29.95 241 31.35 240.75 32.45 240.5 33.55 240.05 34.3 239.55 35.1 238.9 35.45 238.3 35.85 237.5 35.85 236.65 35.85 236 35.45 235.35 35.1 234.9 34.3 234.45 33.55 234.2 32.45 234 31.35 234 29.95 234 28.55 234.2 27.45 234.45 26.35 234.9 25.55 235.35 24.75 236 24.4 236.65 24 237.5 24
M 202.9 34.2
Q 202.65 34.3 202.5 34.55 202.35 34.8 202.3 35.05 202.2 35.35 202.2 35.6 202.2 35.95 202.3 36.25 202.35 36.5 202.5 36.75 202.65 37 202.9 37.1 203.15 37.2 203.45 37.2
L 213.65 37.2 213.65 46.05
Q 213.65 46.4 213.8 46.65 213.9 46.9 214.2 47 214.5 47.15 214.85 47.25 215.15 47.3 215.55 47.3 216.1 47.3 216.7 47 217 46.9 217.15 46.65 217.25 46.4 217.25 46.05
L 217.25 37.2 227.65 37.2
Q 228.05 37.2 228.3 37.1 228.55 37 228.65 36.75 228.75 36.5 228.8 36.25 228.85 35.95 228.85 35.6 228.85 35.35 228.8 35.05 228.75 34.8 228.65 34.55 228.55 34.3 228.3 34.2 228.05 34.05 227.65 34.05
L 203.45 34.05
Q 203.15 34.05 202.9 34.2
M 207.25 20.65
Q 207.1 20.9 207.1 21.3
L 207.1 26.65
Q 207.1 27.05 207.1 27.4 207.1 27.7 207.15 27.95 207.15 28.55 207.4 28.9 207.5 29.05 207.7 29.25 207.85 29.4 208.1 29.55 208.5 29.8 209.25 29.95 210.1 30.25 210.95 30.45 211.85 30.6 212.7 30.7 213.55 30.8 214.4 30.85 215.2 30.9 215.95 30.9 216.7 30.9 217.45 30.9 218.2 30.85 218.9 30.75 219.55 30.7 220.15 30.65 220.7 30.55 221.15 30.45 221.7 30.35 222.25 30.25 222.8 30.1 223.3 29.95 223.7 29.85 223.95 29.65 224.25 29.5 224.4 29.3 224.55 29.15 224.65 28.9 224.7 28.7 224.7 28.4 224.7 28.05 224.65 27.7 224.55 27.4 224.4 27.15 224.2 26.95 224 26.8 223.75 26.7 223.45 26.7 223.25 26.7 222.95 26.8 222.55 26.95 222 27.05 221.5 27.2 220.95 27.3 220.5 27.35 220 27.45 219.5 27.5 218.95 27.55 218.35 27.65 217.7 27.65 217.05 27.7 216.35 27.7 216.05 27.7 215.7 27.7 215.35 27.7 215 27.65 214.55 27.65 214.15 27.6 213.8 27.55 213.4 27.45 213 27.4 212.6 27.3 212.25 27.25 211.9 27.1 211.5 27 211.2 26.85 210.9 26.7 210.65 26.5
L 210.65 21.3
Q 210.65 21.1 210.6 20.9 210.55 20.75 210.45 20.6 210.4 20.5 210.25 20.4 210.1 20.25 209.95 20.15 209.8 20.1 209.7 20.05 209.55 20 209.4 19.95 209.25 19.9 209.1 19.9 208.95 19.85 208.8 19.85 208.5 19.85 208.25 19.95 207.95 20.05 207.7 20.2 207.35 20.4 207.25 20.65
M 180.25 21.65
Q 180.1 21.6 179.95 21.55 179.8 21.5 179.65 21.45 179.5 21.4 179.3 21.4 179.15 21.4 179.05 21.4 178.75 21.4 178.5 21.45 178.25 21.55 178 21.7 177.7 21.85 177.6 22.15 177.45 22.45 177.45 22.8
L 177.45 33.55
Q 177.45 34.1 177.45 34.5 177.5 34.95 177.55 35.25 177.6 35.6 177.75 35.85 177.85 36.15 178.05 36.3 178.25 36.55 178.5 36.7 178.75 36.85 179.05 37 179.35 37.15 179.7 37.3 180.05 37.4 180.5 37.5 181.7 37.85 183 37.95 183.6 38.05 184.25 38.05 184.9 38.1 185.55 38.1 186.15 38.1 186.75 38.1 187.35 38.05 188 38 188.6 37.95 189.15 37.85 189.7 37.75 190.25 37.6 190.8 37.45 191.25 37.3 191.65 37.1 192 36.85 192.3 36.7 192.45 36.4 192.6 36.15 192.6 35.85 192.6 35.7 192.6 35.65 192.6 35.55 192.6 35.45 192.55 35.15 192.5 34.9 192.45 34.65 192.3 34.45 191.95 34.1 191.4 34.1 191.35 34.1 191.25 34.1 191.15 34.15 191 34.15 190.55 34.3 189.95 34.45 189.35 34.6 188.6 34.7 187.85 34.85 187.05 34.9 186.25 34.95 185.45 34.95 184.85 34.95 184.3 34.95 183.75 34.9 183.25 34.8 182.7 34.75 182.2 34.6 181.7 34.45 181.25 34.25 181.1 33.9 181.1 33.45 181.05 33.25 181 33 181 32.8 181 32.55
L 181 22.65
Q 181 22.5 180.9 22.35 180.85 22.25 180.75 22.1 180.6 22 180.5 21.85 180.35 21.75 180.25 21.65
M 194.05 19.9
Q 193.9 20.15 193.9 20.55
L 193.9 45.75
Q 193.9 46.1 194.05 46.4 194.2 46.7 194.5 46.9 194.75 47.1 195.05 47.2 195.35 47.3 195.75 47.3 196.05 47.3 196.3 47.2 196.65 47.1 196.95 46.9 197.25 46.7 197.4 46.4 197.55 46.1 197.55 45.75
L 197.55 32.45 200.5 32.45
Q 200.9 32.45 201.2 32.3 201.5 32.2 201.7 31.95 201.85 31.75 201.9 31.45 202 31.2 202 30.9 202 30.55 201.9 30.3 201.85 30 201.7 29.75 201.5 29.55 201.2 29.45 200.9 29.3 200.5 29.3
L 197.55 29.3 197.55 20.55
Q 197.55 20.15 197.4 19.9 197.25 19.6 196.95 19.4 196.65 19.2 196.3 19.1 196.05 19 195.75 19 195.35 19 195.05 19.1 194.75 19.2 194.5 19.4 194.2 19.6 194.05 19.9
M 151.5 23.55
Q 151.1 22.95 150.6 22.55 150.05 22.1 149.45 21.75 148.75 21.45 148.05 21.3 147.3 21.15 146.5 21.15 144.95 21.15 143.7 21.75 142.4 22.4 141.45 23.55 140.55 24.8 140.1 26.45 139.9 27.3 139.75 28.25 139.65 29.2 139.65 30.25 139.65 31.35 139.75 32.25 139.9 33.25 140.1 34.05 140.35 34.9 140.65 35.6 141 36.35 141.45 36.9 141.95 37.5 142.5 37.95 143.05 38.4 143.7 38.65 144.95 39.3 146.5 39.3 147.3 39.3 148.05 39.15 148.75 39 149.45 38.65 150.05 38.4 150.6 37.95 151.1 37.5 151.5 36.9 152 36.35 152.35 35.6 152.7 34.9 152.95 34.05 153.2 33.25 153.3 32.25 153.45 31.35 153.45 30.25 153.45 29.2 153.3 28.25 153.2 27.3 152.95 26.45 152.45 24.8 151.5 23.55
M 145.05 24.65
Q 145.7 24.3 146.5 24.3 147.4 24.3 148.05 24.65 148.7 25.05 149.2 25.85 149.65 26.65 149.9 27.75 150.1 28.85 150.1 30.25 150.1 31.65 149.9 32.75 149.65 33.85 149.2 34.6 148.7 35.4 148.05 35.75 147.4 36.15 146.5 36.15 145.7 36.15 145.05 35.75 144.35 35.4 143.9 34.6 143.35 33.85 143.1 32.75 142.85 31.65 142.85 30.25 142.85 28.85 143.1 27.75 143.35 26.65 143.9 25.85 144.35 25.05 145.05 24.65
M 162.15 46.65
Q 162.25 46.4 162.25 46.05
L 162.25 20.3
Q 162.25 19.95 162.15 19.7 162 19.4 161.75 19.25 161.5 19.15 161.15 19.1 160.8 19.05 160.45 19.05 160.15 19.05 159.85 19.1 159.55 19.15 159.3 19.25 159 19.4 158.9 19.7 158.75 19.95 158.75 20.3
L 158.75 46.05
Q 158.75 46.75 159.3 47 159.85 47.3 160.45 47.3 160.8 47.3 161.15 47.25 161.5 47.15 161.75 47 162 46.9 162.15 46.65
M 134.15 34.9
Q 133.8 34.45 133.15 34.45
L 120.7 34.45
Q 120.15 34.45 119.7 34.6 119.2 34.75 118.85 35.05 118.45 35.35 118.3 35.8 118.1 36.25 118.1 36.8 118.1 37.6 118.1 38.4 118.1 39.15 118.15 39.95 118.15 40.75 118.15 41.5 118.15 42.3 118.15 43.05 118.2 43.75 118.35 44.25 118.5 44.8 118.8 45.15 119.35 45.9 120.7 46.35 120.8 46.35 121 46.4 121.2 46.45 121.5 46.55 121.75 46.6 122.1 46.65 122.45 46.7 122.9 46.8 123.3 46.85 123.8 46.9 124.25 46.95 124.75 47 125.3 47.05 125.85 47.05 126.45 47.1 127.05 47.1 127.75 47.1 128.55 47.05 129.3 47 130.15 46.95 130.95 46.85 131.75 46.7 132.6 46.55 133.4 46.3 133.75 46.2 134 46.05 134.25 45.9 134.35 45.7 134.65 45.25 134.65 44.7 134.65 44.4 134.55 44.15 134.45 43.9 134.3 43.7 133.95 43.25 133.4 43.25 133.35 43.25 133.25 43.25 133.15 43.25 133.05 43.3 132.6 43.45 132.15 43.55 131.75 43.65 131.3 43.7 130.85 43.8 130.35 43.85 129.85 43.95 129.3 44 128.7 44.05 128.15 44.1 127.55 44.15 126.9 44.15 125.65 44.15 124.4 43.95 123.05 43.8 121.85 43.35 121.8 43.2 121.75 43.05 121.75 42.9 121.75 42.65
L 121.75 41.95 132.95 41.95
Q 133.2 41.95 133.45 41.8 133.7 41.7 133.9 41.5 134.05 41.3 134.15 41.05 134.2 40.8 134.2 40.5 134.2 40.15 134.15 39.9 134.05 39.65 133.9 39.4 133.7 39.2 133.45 39.1 133.2 39 132.95 39
L 121.75 39 121.75 38
Q 121.75 37.7 121.85 37.4
L 133.15 37.4
Q 133.45 37.4 133.7 37.3 133.95 37.2 134.15 37 134.25 36.8 134.35 36.6 134.4 36.35 134.4 36.05 134.4 35.7 134.35 35.4 134.25 35.15 134.15 34.9
M 131.5 19.15
Q 131.2 19.3 131.05 19.55 130.9 19.8 130.9 20.2
L 130.9 31.3
Q 130.9 31.5 130.95 31.65 131 31.8 131.15 31.95 131.2 32.1 131.35 32.2 131.45 32.3 131.6 32.35 131.65 32.45 131.8 32.5 132 32.55 132.2 32.55 132.35 32.6 132.5 32.6 132.7 32.65 132.85 32.65 133.2 32.65 133.45 32.55 133.75 32.5 134 32.35 134.2 32.2 134.3 31.95 134.4 31.7 134.4 31.3
L 134.4 27.45 137.5 27.45
Q 137.9 27.45 138.15 27.35 138.4 27.2 138.5 27 138.65 26.75 138.7 26.5 138.75 26.2 138.75 25.9 138.75 25.6 138.7 25.3 138.65 25 138.5 24.8 138.25 24.35 137.5 24.35
L 134.4 24.35 134.4 20.2
Q 134.4 19.8 134.3 19.55 134.2 19.3 134 19.15 133.75 19.05 133.45 18.95 133.2 18.9 132.85 18.9 132.5 18.9 132.15 18.95 131.8 19.05 131.5 19.15
M 122.15 23.35
Q 122.45 23.4 122.8 23.45 122.25 24.6 121.5 25.55 120.75 26.5 119.8 27.25 118.8 28 117.6 28.65 116.4 29.3 115.05 29.85 114.8 29.9 114.6 30.05 114.45 30.15 114.4 30.35 114.3 30.55 114.25 30.75 114.25 30.95 114.25 31.15 114.25 31.55 114.35 31.9 114.45 32.2 114.65 32.45 114.85 32.7 115.05 32.85 115.3 32.95 115.5 32.95 115.6 32.95 115.7 32.95 115.85 32.9 116 32.85 116.95 32.6 117.85 32.2 118.75 31.8 119.6 31.3 120.4 30.8 121.15 30.25 121.9 29.65 122.55 29 123.25 28.4 123.8 27.7 124.35 27 124.85 26.25 125.3 25.55 125.65 24.8 126.05 24.1 126.3 23.3
L 126.3 22.8
Q 126.3 22.1 126.1 21.6 125.9 21.1 125.5 20.8 125.05 20.5 124.55 20.3 124.05 20.15 123.5 20.15
L 115.5 20.15
Q 115.1 20.15 114.85 20.3 114.6 20.4 114.45 20.6 114.35 20.85 114.3 21.1 114.2 21.4 114.2 21.65 114.2 22 114.3 22.25 114.35 22.55 114.45 22.8 114.6 23.05 114.85 23.2 115.1 23.3 115.5 23.3
L 121.6 23.3
Q 121.85 23.3 122.15 23.35
M 90.75 36.6
Q 90.4 36.6 90.15 36.75 89.85 36.85 89.75 37.05 89.55 37.3 89.5 37.6 89.4 37.85 89.4 38.2 89.4 38.5 89.5 38.75 89.55 39.05 89.75 39.25 89.85 39.5 90.15 39.6 90.4 39.75 90.75 39.75
L 101.3 39.75
Q 101.55 39.75 101.75 39.75 101.95 39.75 102.1 39.75 102.3 39.8 102.45 39.85 102.65 39.85 102.8 39.85
L 102.8 46.05
Q 102.8 46.3 102.95 46.55 103.1 46.8 103.4 46.95 103.65 47.1 103.95 47.2 104.25 47.3 104.6 47.3 104.7 47.3 104.85 47.25 105 47.25 105.2 47.2 105.35 47.15 105.5 47.05 105.65 47 105.8 46.95 105.85 46.85 105.95 46.75 106.1 46.65 106.15 46.55 106.25 46.4 106.3 46.3 106.3 46.15 106.35 46.05
L 106.35 39.25
Q 106.35 38.2 105.7 37.35 105.35 37 104.9 36.8 104.45 36.6 103.9 36.6
L 90.75 36.6
M 101.8 23.1
Q 101.85 23.1 102 23.05 102.1 23 102.2 22.95 102.3 22.95 102.4 22.9 102.55 22.9 102.7 22.9
L 105.9 22.9
Q 106.3 22.9 106.55 22.8 106.8 22.7 107 22.45 107.15 22.3 107.25 22 107.35 21.75 107.35 21.4 107.35 21.05 107.25 20.75 107.2 20.45 107.05 20.25 106.85 20.05 106.6 19.95 106.35 19.8 106 19.8
L 101.5 19.8
Q 100.85 19.8 100.35 20 99.85 20.15 99.5 20.45 99.1 20.85 98.9 21.3 98.7 21.75 98.7 22.35
L 98.7 26.55
Q 98.7 26.9 98.75 27.15 98.75 27.45 98.8 27.65 98.65 27.65 98.55 27.65 98.4 27.6 98.3 27.6 98.15 27.6 97.95 27.65 97.8 27.65 97.65 27.65 97.6 27.65 97.55 27.65
L 97.5 27.65
Q 97.5 27.45 97.4 27.25 97.35 27.05 97.25 26.8 97.05 26.65 96.8 26.5 96.6 26.4 96.35 26.4 96.1 26.4 95.85 26.45 95.55 26.55 95.25 26.6 94.9 26.75 94.55 26.8 94.25 26.8 93.9 26.8 93.65 26.85 93.4 26.8 93.15 26.75 92.9 26.7 92.6 26.65 92.45 26.5 92.25 26.4 92.15 26.2
L 92.15 23.05
Q 92.35 23 92.55 22.95 92.8 22.9 93.05 22.9
L 95.95 22.9
Q 96.3 22.9 96.6 22.8 96.85 22.7 97.05 22.45 97.2 22.3 97.3 22 97.4 21.7 97.4 21.35 97.4 21 97.3 20.75 97.2 20.45 97.1 20.25 96.9 20.05 96.65 19.95 96.35 19.8 95.95 19.8
L 92 19.8
Q 91.4 19.8 90.9 19.95 90.4 20.1 90 20.4 89.2 21.05 89.2 22.3
L 89.2 26.7
Q 89.2 27 89.2 27.25 89.2 27.5 89.25 27.7 89.3 27.9 89.35 28.05 89.4 28.25 89.5 28.35 89.6 28.5 89.7 28.65 89.8 28.75 89.95 28.85 90.1 28.95 90.35 29.05 90.6 29.15 90.9 29.2 91.2 29.3 91.55 29.4 91.9 29.45 92.3 29.5 92.65 29.55 93 29.6 93.3 29.6 93.65 29.6 94.15 29.6 94.9 29.55 95.2 29.5 95.5 29.45 95.8 29.35 96.1 29.25 96.2 29.25 96.25 29.2 96.35 29.2 96.4 29.15
L 96.4 31.85 86.05 31.85
Q 85.7 31.85 85.45 31.95 85.25 32.05 85.1 32.3 84.95 32.55 84.9 32.85 84.8 33.1 84.8 33.45 84.8 33.75 84.9 34 84.95 34.3 85.1 34.5 85.25 34.75 85.45 34.9 85.7 35 86.05 35
L 110.3 35
Q 110.7 35 110.95 34.9 111.2 34.75 111.35 34.5 111.5 34.3 111.55 34 111.65 33.75 111.65 33.45 111.65 32.8 111.35 32.3 111.2 32.05 110.95 31.95 110.7 31.85 110.3 31.85
L 100 31.85 100 29.05
Q 100.25 29.15 100.6 29.25 100.9 29.35 101.3 29.4 101.6 29.45 101.85 29.5 102.15 29.55 102.4 29.55 102.95 29.65 103.5 29.65 103.8 29.65 104.15 29.6 104.5 29.6 104.9 29.55 105.25 29.5 105.55 29.45 105.85 29.35 106.15 29.25 106.45 29.15 106.7 29.05 106.95 28.9 107.15 28.75 107.35 28.6 107.4 28.45 107.5 28.25 107.5 28 107.5 27.4 107.25 26.95 107.1 26.7 106.85 26.55 106.65 26.45 106.35 26.45 106.1 26.45 105.8 26.5 105.5 26.55 105.2 26.6 104.9 26.75 104.5 26.8 104.15 26.8 103.8 26.8 103.5 26.8 103.2 26.8 102.95 26.75 102.65 26.65 102.4 26.6 102.15 26.45 101.95 26.3 101.8 26.1
L 101.8 23.1 Z"/>
</g>

<path id="Layer0_0_1_STROKES" stroke="#569ECC" stroke-width="5" stroke-linejoin="round" stroke-linecap="round" fill="none" d="
M 417.35 2.95
L 1147.5 2.95
Q 1157.85 2.95 1165.15 10.25 1172.5 17.6 1172.5 27.95
L 1172.5 444.1
Q 1172.5 454.5 1165.15 461.75 1157.9 469.1 1147.5 469.1
L 30.5 469.1
Q 20.15 469.1 12.8 461.75 5.5 454.45 5.5 444.1
L 5.5 27.95
Q 5.5 17.65 12.8 10.25 20.2 2.95 30.5 2.95
L 53.25 2.95 417.35 2.95 Z"/>
</defs>

<g transform="matrix( 1, 0, 0, 1, 0,0) ">
<use xlink:href="#Layer0_0_FILL"/>

<use xlink:href="#Layer0_0_1_STROKES"/>
</g>

<g transform="matrix( 1, 0, 0, 1, 0,0) ">
<use xlink:href="#Layer0_1_FILL"/>
</g>
</svg>
