
<svg xmlns="http://www.w3.org/2000/svg" version="1.1" xmlns:xlink="http://www.w3.org/1999/xlink" preserveAspectRatio="none" x="0px" y="0px" width="46px" height="80px" viewBox="0 0 46 80">
<defs>
<g id="Layer4_0_FILL">
<path fill="#9CC42B" stroke="none" d="
M 14.45 -9.5
Q 8.5 -15.4 0 -15.4 -8.5 -15.4 -14.5 -9.5 -20.45 -3.55 -20.45 4.85
L -20.45 9.25 20.45 9.25 20.45 4.85
Q 20.45 -3.55 14.45 -9.5 Z"/>
</g>

<g id="Layer4_1_FILL">
<path fill="#BEE060" stroke="none" d="
M 13.8 -13.8
Q 8.1 -19.5 0 -19.5 -8.1 -19.5 -13.8 -13.8 -19.5 -8.1 -19.5 0 -19.5 8.1 -13.8 13.8 -8.1 19.5 0 19.5 8.1 19.5 13.8 13.8 19.5 8.1 19.5 0 19.5 -8.1 13.8 -13.8 Z"/>
</g>

<g id="Layer4_2_FILL">
<path fill="#E1FF93" stroke="none" d="
M 17.25 48.85
Q 17.25 47.65 16.2 46.8 15.2 45.95 13.75 45.95 12.3 45.95 11.25 46.8 10.25 47.65 10.25 48.85 10.25 50.05 11.25 50.9 12.3 51.75 13.75 51.75 15.2 51.75 16.2 50.9 17.25 50.05 17.25 48.85 Z"/>
</g>

<g id="fdbd454545vcb3_0_Layer0_0_MEMBER_0_FILL">
<path fill="#55AC66" stroke="none" d="
M -2.65 -0.9
Q -4 -5.35 -9.75 -6.75 -8.4 -1 -2.4 3.25 -1.95 1.35 -2.65 -0.9 Z"/>

<path fill="#4C9252" stroke="none" d="
M -9.75 -6.75
Q -9.85 -6.8 -9.95 -6.8
L -10.2 -5.55
Q -10.35 -4 -9.95 -2.6 -8.7 1.9 -2.45 3.35 -2.45 3.3 -2.4 3.25 -8.4 -1 -9.75 -6.75 Z"/>
</g>

<g id="fdbd454545vcb3_0_Layer0_0_MEMBER_1_FILL">
<path fill="#55AC66" stroke="none" d="
M -2.65 -0.9
Q -4 -5.35 -9.75 -6.75 -8.4 -1 -2.4 3.25 -1.95 1.35 -2.65 -0.9 Z"/>

<path fill="#4C9252" stroke="none" d="
M -9.75 -6.75
Q -9.85 -6.8 -9.95 -6.8
L -10.2 -5.55
Q -10.35 -4 -9.95 -2.6 -8.7 1.9 -2.45 3.35 -2.45 3.3 -2.4 3.25 -8.4 -1 -9.75 -6.75 Z"/>
</g>

<path id="Layer4_3_1_STROKES" stroke="#4C9252" stroke-width="1.5" stroke-linejoin="miter" stroke-linecap="butt" stroke-miterlimit="3" fill="none" d="
M 0 -54.5
L 0 -25.75"/>
</defs>

<g transform="matrix( 0.781890869140625, 0, 0, 0.7672576904296875, 23.35,41.55) ">
<use xlink:href="#Layer4_0_FILL"/>
</g>

<g transform="matrix( 0.8243255615234375, 0, 0, 0.8243408203125, 23.35,49.8) ">
<use xlink:href="#Layer4_1_FILL"/>
</g>

<g transform="matrix( 0.4864349365234375, -0.4864349365234375, 0.4864349365234375, 0.4864349365234375, -15.1,24.7) ">
<use xlink:href="#Layer4_2_FILL"/>
</g>

<g transform="matrix( 1, 0, 0, 3.0928955078125, 23.35,115.2) ">
<use xlink:href="#Layer4_3_1_STROKES"/>
</g>

<g transform="matrix( 0.64996337890625, 0, 0, 0.64996337890625, 23.35,31.55) ">
<g transform="matrix( 1.650390625, -0.51885986328125, 0.51885986328125, 1.650390625, 2.35,-0.35) ">
<use xlink:href="#fdbd454545vcb3_0_Layer0_0_MEMBER_0_FILL"/>
</g>

<g transform="matrix( -1.650390625, -0.51885986328125, -0.51885986328125, 1.650390625, -2.4,-0.35) ">
<use xlink:href="#fdbd454545vcb3_0_Layer0_0_MEMBER_1_FILL"/>
</g>
</g>
</svg>
