
<svg xmlns="http://www.w3.org/2000/svg" version="1.1" xmlns:xlink="http://www.w3.org/1999/xlink" preserveAspectRatio="none" x="0px" y="0px" width="1280px" height="720px" viewBox="0 0 1280 720">
<defs>
<g id="Layer0_0_STROKES_1_FILL">
<path fill="#3567D7" stroke="none" d="
M -73.05 -94.35
Q -73.623828125 -94.9201171875 -74.45 -94.9 -76.95 -94.85 -79.45 -94.8 -80.274609375 -94.777734375 -80.85 -94.2 -81.420703125 -93.5759765625 -81.4 -92.75 -81.3783203125 -91.925 -80.8 -91.35 -80.176171875 -90.7798828125 -79.35 -90.8 -76.85 -90.85 -74.35 -90.9 -73.525390625 -90.922265625 -72.95 -91.55 -72.379296875 -92.1240234375 -72.4 -92.95 -72.4216796875 -93.775 -73.05 -94.35
M -62.25 -91.15
Q -61.4251953125 -91.172265625 -60.85 -91.8 -60.279296875 -92.3740234375 -60.3 -93.2 -60.321484375 -94.025 -60.95 -94.6 -61.5240234375 -95.1701171875 -62.35 -95.15 -64.9 -95.1 -67.4 -95.05 -68.224609375 -95.027734375 -68.8 -94.45 -69.370703125 -93.8259765625 -69.35 -93 -69.3283203125 -92.175 -68.75 -91.6 -68.126171875 -91.0298828125 -67.3 -91.05 -64.8 -91.1 -62.25 -91.15
M -48.3 -93.2
Q -48.2947265625 -94.033984375 -48.9 -94.65 -49.4662109375 -95.20546875 -50.3 -95.2 -52.8 -95.2 -55.3 -95.2 -56.133984375 -95.20546875 -56.75 -94.65 -57.30546875 -94.033984375 -57.3 -93.2 -57.30546875 -92.3662109375 -56.75 -91.8 -56.133984375 -91.1947265625 -55.3 -91.2 -52.8 -91.2 -50.3 -91.2 -49.4662109375 -91.1947265625 -48.9 -91.8 -48.2947265625 -92.3662109375 -48.3 -93.2
M -36.2 -94.7
Q -36.7662109375 -95.25546875 -37.6 -95.25 -39.8 -95.25 -42 -95.25 -42.65 -95.25 -43.3 -95.25 -44.133984375 -95.25546875 -44.75 -94.7 -45.30546875 -94.083984375 -45.3 -93.25 -45.30546875 -92.4162109375 -44.75 -91.85 -44.133984375 -91.2447265625 -43.3 -91.25 -42.65 -91.25 -42 -91.25 -39.8 -91.25 -37.6 -91.25 -36.7662109375 -91.2447265625 -36.2 -91.85 -35.5947265625 -92.4162109375 -35.6 -93.25 -35.5947265625 -94.083984375 -36.2 -94.7
M -25.65 -91.15
Q -24.823828125 -91.1298828125 -24.25 -91.7 -23.6216796875 -92.275 -23.6 -93.1 -23.579296875 -93.9259765625 -24.15 -94.55 -24.725390625 -95.127734375 -25.55 -95.15 -28.0751953125 -95.2001953125 -30.6 -95.2 -31.433984375 -95.20546875 -32.05 -94.65 -32.60546875 -94.033984375 -32.6 -93.2 -32.60546875 -92.3662109375 -32.05 -91.8 -31.433984375 -91.1947265625 -30.6 -91.2 -28.125 -91.1998046875 -25.65 -91.15
M -11.6 -92.9
Q -11.579296875 -93.7259765625 -12.15 -94.35 -12.725390625 -94.927734375 -13.55 -94.95 -16.05 -95 -18.55 -95.05 -19.376171875 -95.0701171875 -20 -94.5 -20.5783203125 -93.925 -20.6 -93.1 -20.620703125 -92.2740234375 -20.05 -91.7 -19.474609375 -91.072265625 -18.65 -91.05 -16.15 -91 -13.65 -90.95 -12.823828125 -90.9298828125 -12.25 -91.5 -11.6216796875 -92.075 -11.6 -92.9
M -0.15 -94.1
Q -0.725390625 -94.677734375 -1.55 -94.7 -4.05 -94.75 -6.55 -94.8 -7.376171875 -94.8201171875 -8 -94.25 -8.5783203125 -93.675 -8.6 -92.85 -8.620703125 -92.0240234375 -8.05 -91.45 -7.474609375 -90.822265625 -6.65 -90.8 -4.15 -90.75 -1.65 -90.7 -0.823828125 -90.6798828125 -0.25 -91.25 0.3783203125 -91.825 0.4 -92.65 0.420703125 -93.4759765625 -0.15 -94.1
M -151.75 -86.95
Q -149.25 -87.15 -146.75 -87.35 -145.91953125 -87.4181640625 -145.4 -88.05 -144.83515625 -88.6796875 -144.9 -89.5 -144.9673828125 -90.3298828125 -145.6 -90.9 -146.23046875 -91.4142578125 -147.05 -91.35 -149.55 -91.15 -152.05 -90.95 -152.88046875 -90.8818359375 -153.45 -90.25 -153.96484375 -89.6203125 -153.9 -88.8 -153.832421875 -87.9703125 -153.2 -87.45 -152.56953125 -86.8857421875 -151.75 -86.95
M -132.85 -90.4
Q -132.901953125 -91.198828125 -133.55 -91.75 -134.14765625 -92.299609375 -135 -92.25 -137.4875 -92.1001953125 -140 -91.9 -140.83046875 -91.8318359375 -141.4 -91.2 -141.91484375 -90.5703125 -141.85 -89.75 -141.782421875 -88.9203125 -141.15 -88.4 -140.51953125 -87.8357421875 -139.7 -87.9 -137.2125 -88.1 -134.75 -88.25 -133.901953125 -88.3025390625 -133.35 -88.95 -132.7998046875 -89.5482421875 -132.85 -90.4
M -120.75 -91.15
Q -120.801953125 -91.9486328125 -121.45 -92.5 -122.0484375 -93.049609375 -122.9 -93 -125.425 -92.85 -127.95 -92.7 -128.748046875 -92.6474609375 -129.3 -92.05 -129.8501953125 -91.4017578125 -129.8 -90.6 -129.748046875 -89.751171875 -129.15 -89.2 -128.5025390625 -88.6505859375 -127.7 -88.7 -125.175 -88.85 -122.65 -89 -121.801171875 -89.0525390625 -121.25 -89.7 -120.6998046875 -90.2982421875 -120.75 -91.15
M -110.6 -89.65
Q -109.746484375 -89.687109375 -109.2 -90.3 -108.6146484375 -90.904296875 -108.65 -91.75 -108.6865234375 -92.555078125 -109.3 -93.15 -109.902734375 -93.684765625 -110.75 -93.65 -113.3001953125 -93.5501953125 -115.85 -93.4 -116.648046875 -93.3474609375 -117.2 -92.75 -117.7501953125 -92.1017578125 -117.7 -91.3 -117.648046875 -90.451171875 -117.05 -89.9 -116.4025390625 -89.3505859375 -115.6 -89.4 -113.0998046875 -89.5498046875 -110.6 -89.65
M -96.55 -92.25
Q -96.5865234375 -93.055078125 -97.2 -93.65 -97.802734375 -94.184765625 -98.65 -94.15 -101.175 -94.05 -103.7 -93.95 -104.5072265625 -93.9125 -105.1 -93.3 -105.6357421875 -92.69453125 -105.6 -91.9 -105.5630859375 -91.0439453125 -104.95 -90.5 -104.343359375 -89.9150390625 -103.55 -89.95 -101.025 -90.05 -98.5 -90.15 -97.646484375 -90.187109375 -97.1 -90.8 -96.5146484375 -91.404296875 -96.55 -92.25
M -86.4 -90.6
Q -85.546484375 -90.637109375 -85 -91.25 -84.4146484375 -91.854296875 -84.45 -92.7 -84.4865234375 -93.505078125 -85.1 -94.1 -85.702734375 -94.634765625 -86.55 -94.6 -89.075 -94.5 -91.6 -94.4 -92.4072265625 -94.3625 -93 -93.75 -93.5357421875 -93.14453125 -93.5 -92.35 -93.4630859375 -91.4939453125 -92.85 -90.95 -92.243359375 -90.3650390625 -91.45 -90.4 -88.925 -90.5 -86.4 -90.6
M -236.1 -80.6
Q -236.8916015625 -80.44375 -237.4 -79.8 -237.8595703125 -79.0951171875 -237.75 -78.3 -237.59453125 -77.4599609375 -236.95 -77 -236.24375 -76.49140625 -235.45 -76.65 -232.975 -77.0251953125 -230.5 -77.45 -229.660546875 -77.5556640625 -229.2 -78.25 -228.6908203125 -78.903515625 -228.85 -79.75 -228.9548828125 -80.5390625 -229.65 -81.05 -230.3041015625 -81.50859375 -231.15 -81.4 -233.625 -80.975 -236.1 -80.6
M -216.9 -81.55
Q -216.9888671875 -82.3458984375 -217.65 -82.85 -218.3083984375 -83.34453125 -219.15 -83.25 -221.65 -82.8751953125 -224.2 -82.5 -224.9896484375 -82.3443359375 -225.5 -81.7 -225.959375 -80.9962890625 -225.85 -80.2 -225.6951171875 -79.3609375 -225.05 -78.9 -224.3458984375 -78.39140625 -223.55 -78.55 -221.05 -78.9248046875 -218.6 -79.3 -217.75546875 -79.389453125 -217.25 -80.05 -216.755078125 -80.7095703125 -216.9 -81.55
M -213.5 -83.45
Q -213.9951171875 -82.7904296875 -213.9 -82 -213.7611328125 -81.154296875 -213.1 -80.65 -212.4416015625 -80.15546875 -211.65 -80.3 -209.125 -80.625 -206.65 -81 -205.80546875 -81.089453125 -205.3 -81.75 -204.805078125 -82.4095703125 -204.95 -83.25 -205.0388671875 -84.0458984375 -205.7 -84.55 -206.3583984375 -85.04453125 -207.2 -84.95 -209.675 -84.575 -212.2 -84.25 -212.9947265625 -84.1107421875 -213.5 -83.45
M -193 -84.75
Q -193.0734375 -85.5658203125 -193.75 -86.1 -194.3796875 -86.5802734375 -195.2 -86.5 -197.7 -86.175 -200.2 -85.9 -201.01640625 -85.7759765625 -201.55 -85.15 -202.0310546875 -84.4708984375 -201.95 -83.65 -201.8265625 -82.8341796875 -201.2 -82.35 -200.5203125 -81.8197265625 -199.7 -81.95 -197.2 -82.225 -194.7 -82.55 -193.88359375 -82.62421875 -193.4 -83.3 -192.8689453125 -83.9291015625 -193 -84.75
M -181.4 -84.75
Q -180.8689453125 -85.3791015625 -181 -86.2 -181.0734375 -87.0158203125 -181.75 -87.55 -182.3796875 -88.0302734375 -183.2 -87.95 -185.7 -87.625 -188.2 -87.35 -189.01640625 -87.2259765625 -189.55 -86.6 -190.0310546875 -85.9208984375 -189.95 -85.1 -189.8265625 -84.2841796875 -189.2 -83.8 -188.5203125 -83.2697265625 -187.7 -83.4 -185.2 -83.675 -182.7 -84 -181.88359375 -84.07421875 -181.4 -84.75
M -165.45 -89.2
Q -165.9791015625 -88.52734375 -165.9 -87.7 -165.8173828125 -86.8775390625 -165.2 -86.35 -164.5283203125 -85.821484375 -163.7 -85.9 -161.225 -86.1498046875 -158.75 -86.35 -157.91953125 -86.4181640625 -157.4 -87.05 -156.83515625 -87.6796875 -156.9 -88.5 -156.9673828125 -89.3298828125 -157.6 -89.9 -158.23046875 -90.4142578125 -159.05 -90.35 -161.575 -90.1501953125 -164.1 -89.9 -164.921484375 -89.816796875 -165.45 -89.2
M -168.9 -87.4
Q -168.9826171875 -88.2224609375 -169.65 -88.75 -170.2716796875 -89.2787109375 -171.1 -89.2 -173.6 -88.95 -176.1 -88.7 -176.921484375 -88.616796875 -177.45 -88 -177.9791015625 -87.32734375 -177.9 -86.5 -177.8173828125 -85.6775390625 -177.2 -85.15 -176.5283203125 -84.621484375 -175.7 -84.7 -173.2 -84.95 -170.7 -85.2 -169.8787109375 -85.283203125 -169.35 -85.95 -168.8208984375 -86.57265625 -168.9 -87.4
M -277 -71.95
Q -277.6849609375 -72.3876953125 -278.5 -72.2 -280.95 -71.65 -283.4 -71.1 -284.205078125 -70.9212890625 -284.65 -70.25 -285.08828125 -69.5150390625 -284.9 -68.7 -284.7216796875 -67.8947265625 -284.05 -67.45 -283.315234375 -67.0123046875 -282.5 -67.2 -280.05 -67.75 -277.6 -68.3 -276.794921875 -68.47890625 -276.35 -69.2 -275.91171875 -69.88515625 -276.1 -70.7 -276.2783203125 -71.5052734375 -277 -71.95
M -265.2 -74.5
Q -265.893359375 -74.923828125 -266.7 -74.75 -269.1751953125 -74.2501953125 -271.65 -73.7 -272.455078125 -73.5212890625 -272.9 -72.85 -273.33828125 -72.1150390625 -273.15 -71.3 -272.9716796875 -70.4947265625 -272.3 -70.05 -271.565234375 -69.6123046875 -270.75 -69.8 -268.325 -70.3498046875 -265.9 -70.85 -265.085546875 -71.01328125 -264.65 -71.7 -264.1751953125 -72.3919921875 -264.35 -73.2 -264.5125 -74.0130859375 -265.2 -74.5
M -243.05 -79.4
Q -245.55 -78.925 -248 -78.5 -248.8197265625 -78.315625 -249.3 -77.65 -249.7732421875 -76.9521484375 -249.65 -76.15 -249.4662109375 -75.330078125 -248.8 -74.85 -248.10234375 -74.37734375 -247.3 -74.55 -244.85 -74.975 -242.35 -75.45 -241.53203125 -75.5708984375 -241.05 -76.25 -240.576953125 -76.9341796875 -240.75 -77.75 -240.8705078125 -78.5689453125 -241.55 -79.05 -242.233203125 -79.5224609375 -243.05 -79.4
M -259.85 -76.15
Q -260.664453125 -75.98671875 -261.15 -75.3 -261.574609375 -74.6080078125 -261.4 -73.8 -261.2375 -72.9869140625 -260.55 -72.55 -259.8568359375 -72.076171875 -259.05 -72.25 -256.6 -72.75 -254.15 -73.25 -253.335546875 -73.41328125 -252.9 -74.1 -252.4251953125 -74.7919921875 -252.6 -75.6 -252.7625 -76.4130859375 -253.45 -76.9 -254.143359375 -77.323828125 -254.95 -77.15 -257.4 -76.65 -259.85 -76.15
M 296.2 -38.45
Q 295.4658203125 -38.803125 294.65 -38.55 293.8759765625 -38.319921875 293.45 -37.6 293.0958984375 -36.8666015625 293.35 -36.1 293.580859375 -35.276953125 294.3 -34.9 296.537109375 -33.6876953125 298.65 -32.5 299.4046875 -32.0970703125 300.2 -32.35 300.99453125 -32.5515625 301.4 -33.3 301.803515625 -34.002734375 301.55 -34.8 301.346484375 -35.594140625 300.6 -36 298.462890625 -37.2125 296.2 -38.45
M 305.3 -32.75
Q 304.5265625 -32.5427734375 304.1 -31.85 303.660546875 -31.120703125 303.85 -30.35 304.058984375 -29.52734375 304.75 -29.1 306.886328125 -27.8126953125 308.85 -26.55 309.5564453125 -26.0765625 310.35 -26.25 311.176953125 -26.4134765625 311.6 -27.1 312.0751953125 -27.80625 311.9 -28.65 311.736328125 -29.425390625 311.05 -29.9 309.01328125 -31.1876953125 306.8 -32.5 306.1189453125 -32.9388671875 305.3 -32.75
M 282.5 -42.75
Q 282.1818359375 -41.95703125 282.45 -41.2 282.770703125 -40.41015625 283.5 -40.1 285.862109375 -39.0375 288.1 -38 288.8501953125 -37.6458984375 289.6 -37.95 290.39921875 -38.2037109375 290.75 -38.95 291.10546875 -39.7 290.8 -40.5 290.54609375 -41.2478515625 289.8 -41.6 287.537890625 -42.6625 285.15 -43.75 284.40625 -44.0671875 283.6 -43.8 282.859375 -43.480078125 282.5 -42.75
M 279.8 -45.45
Q 279.4859375 -46.2201171875 278.7 -46.55 276.4626953125 -47.5 274.1 -48.45 273.338671875 -48.7671875 272.55 -48.45 271.812109375 -48.1203125 271.5 -47.35 271.181640625 -46.587109375 271.5 -45.85 271.8279296875 -45.06328125 272.6 -44.75 274.937109375 -43.8 277.15 -42.85 277.9388671875 -42.5322265625 278.7 -42.85 279.4705078125 -43.1623046875 279.8 -43.95 280.118359375 -44.687109375 279.8 -45.45
M 260.25 -51.5
Q 259.9947265625 -50.6982421875 260.35 -49.95 260.700390625 -49.2037109375 261.45 -48.95 263.862109375 -48.075 266.15 -47.25 266.92109375 -46.9330078125 267.65 -47.3 268.43203125 -47.6240234375 268.7 -48.4 269.0181640625 -49.17265625 268.65 -49.95 268.32734375 -50.6810546875 267.55 -51 265.2376953125 -51.825 262.8 -52.7 262.05 -52.9541015625 261.3 -52.6 260.5525390625 -52.2478515625 260.25 -51.5
M 249.05 -53.8
Q 249.4451171875 -53.0609375 250.2 -52.8 252.6125 -52 254.95 -51.2 255.7294921875 -50.93359375 256.45 -51.3 257.2251953125 -51.6677734375 257.5 -52.45 257.7673828125 -53.230859375 257.4 -54 257.0333984375 -54.7244140625 256.25 -55 253.8875 -55.8001953125 251.45 -56.6 250.6912109375 -56.8544921875 249.95 -56.5 249.210546875 -56.10546875 248.95 -55.35 248.6951171875 -54.5416015625 249.05 -53.8
M 191.3 -70.85
Q 191.48828125 -71.6650390625 191.05 -72.4 190.605078125 -73.0712890625 189.8 -73.25 187.325 -73.8001953125 184.85 -74.3 184.0431640625 -74.473828125 183.35 -74.05 182.6625 -73.5630859375 182.5 -72.75 182.325390625 -71.9419921875 182.75 -71.25 183.235546875 -70.56328125 184.05 -70.4 186.4748046875 -69.8998046875 188.9 -69.35 189.7150390625 -69.1623046875 190.4 -69.6 191.1216796875 -70.0447265625 191.3 -70.85
M 179.2 -74.9
Q 178.764453125 -75.58671875 177.95 -75.75 175.5 -76.25 173.05 -76.75 172.2431640625 -76.923828125 171.55 -76.5 170.8625 -76.0130859375 170.7 -75.2 170.525390625 -74.3919921875 170.95 -73.7 171.435546875 -73.01328125 172.25 -72.85 174.7 -72.35 177.15 -71.85 177.956640625 -71.676171875 178.65 -72.15 179.3375 -72.5869140625 179.5 -73.4 179.6748046875 -74.2080078125 179.2 -74.9
M 237.7 -57.4
Q 238.1109375 -56.6451171875 238.9 -56.4 241.2998046875 -55.65 243.65 -54.9 244.4380859375 -54.645703125 245.15 -55.05 245.9046875 -55.4103515625 246.15 -56.2 246.4044921875 -56.9875 246 -57.75 245.6390625 -58.454296875 244.85 -58.7 242.5 -59.4501953125 240.1 -60.2 239.3115234375 -60.4537109375 238.55 -60.1 237.8443359375 -59.6884765625 237.6 -58.9 237.345703125 -58.1111328125 237.7 -57.4
M 227.5 -63.3
Q 226.7998046875 -62.8673828125 226.55 -62.1 226.3595703125 -61.2873046875 226.75 -60.6 227.180859375 -59.85078125 227.95 -59.65 230.149609375 -59.0248046875 232.25 -58.4 233.0658203125 -58.1466796875 233.8 -58.55 234.532421875 -58.938671875 234.75 -59.75 235.0041015625 -60.516796875 234.6 -61.25 234.212109375 -61.981640625 233.4 -62.25 231.2501953125 -62.875390625 229 -63.5 228.2390625 -63.689453125 227.5 -63.3
M 203.05 -68.15
Q 203.2392578125 -68.920703125 202.8 -69.65 202.3748046875 -70.341796875 201.55 -70.55 199.1123046875 -71.150390625 196.65 -71.7 195.834765625 -71.8876953125 195.1 -71.45 194.4283203125 -71.0052734375 194.25 -70.2 194.06171875 -69.38515625 194.5 -68.7 194.944921875 -67.97890625 195.75 -67.8 198.1873046875 -67.25 200.6 -66.65 201.419140625 -66.46171875 202.1 -66.9 202.8427734375 -67.3267578125 203.05 -68.15
M 219.95 -65.95
Q 219.1591796875 -66.1392578125 218.45 -65.75 217.734765625 -65.3015625 217.5 -64.5 217.3099609375 -63.7083984375 217.7 -63 218.14765625 -62.285546875 218.95 -62.1 221.425 -61.4248046875 223.9 -60.75 224.6984375 -60.497265625 225.4 -60.9 226.14921875 -61.3064453125 226.35 -62.1 226.6033203125 -62.8984375 226.2 -63.65 225.7935546875 -64.348828125 225 -64.6 222.475 -65.2751953125 219.95 -65.95
M 214.45 -66.8
Q 214.0380859375 -67.491015625 213.2 -67.7 210.825 -68.3 208.4 -68.9 207.6318359375 -69.1013671875 206.9 -68.7 206.2080078125 -68.24921875 206 -67.45 205.7978515625 -66.6431640625 206.2 -65.95 206.6619140625 -65.208984375 207.45 -65 209.875 -64.4 212.25 -63.8 213.0681640625 -63.5986328125 213.75 -64.05 214.491796875 -64.4505859375 214.7 -65.25 214.9021484375 -66.0568359375 214.45 -66.8
M 95.8 -87.8
Q 95.2712890625 -88.416796875 94.45 -88.5 91.95 -88.75 89.45 -89 88.6216796875 -89.0787109375 87.95 -88.55 87.3326171875 -88.0224609375 87.25 -87.2 87.1708984375 -86.37265625 87.7 -85.75 88.228515625 -85.083203125 89.05 -85 91.55 -84.75 94.05 -84.5 94.8783203125 -84.421484375 95.5 -84.95 96.1673828125 -85.4775390625 96.25 -86.3 96.3291015625 -87.12734375 95.8 -87.8
M 117.85 -81.75
Q 118.6703125 -81.6197265625 119.3 -82.15 119.9765625 -82.6341796875 120.05 -83.45 120.1810546875 -84.2708984375 119.65 -84.95 119.16640625 -85.5759765625 118.35 -85.7 115.85 -85.975 113.35 -86.3 112.5296875 -86.3802734375 111.85 -85.9 111.2234375 -85.3658203125 111.1 -84.55 111.0189453125 -83.7291015625 111.5 -83.1 112.03359375 -82.42421875 112.85 -82.35 115.35 -82.025 117.85 -81.75
M 106.4 -87.15
Q 103.95 -87.425 101.45 -87.75 100.6296875 -87.8302734375 99.95 -87.35 99.3234375 -86.8158203125 99.2 -86 99.1189453125 -85.1791015625 99.6 -84.55 100.13359375 -83.87421875 100.95 -83.8 103.45 -83.475 105.9 -83.2 106.7220703125 -83.0693359375 107.35 -83.6 108.0263671875 -84.083984375 108.1 -84.9 108.2310546875 -85.720703125 107.7 -86.4 107.2146484375 -87.0259765625 106.4 -87.15
M 130.3 -84.05
Q 127.825 -84.375 125.3 -84.75 124.5083984375 -84.84453125 123.85 -84.35 123.1888671875 -83.8458984375 123.05 -83.05 122.9548828125 -82.2095703125 123.45 -81.55 123.9552734375 -80.889453125 124.75 -80.8 127.275 -80.425 129.75 -80.1 130.5916015625 -79.95546875 131.25 -80.45 131.9111328125 -80.954296875 132 -81.8 132.144921875 -82.5904296875 131.65 -83.25 131.14453125 -83.9107421875 130.3 -84.05
M 159.2 -75.9
Q 159.68203125 -75.2208984375 160.5 -75.1 163 -74.625 165.45 -74.2 166.25234375 -74.02734375 166.9 -74.5 167.61640625 -74.980078125 167.75 -75.8 167.9232421875 -76.6021484375 167.45 -77.3 166.9697265625 -77.965625 166.15 -78.15 163.7 -78.575 161.2 -79.05 160.383203125 -79.1724609375 159.7 -78.7 159.0205078125 -78.2189453125 158.85 -77.4 158.726953125 -76.5841796875 159.2 -75.9
M 143.9 -79.9
Q 144.0595703125 -80.6951171875 143.55 -81.4 143.09140625 -82.04375 142.25 -82.2 139.825 -82.575 137.3 -83 136.5041015625 -83.10859375 135.8 -82.65 135.1548828125 -82.1390625 135 -81.35 134.890625 -80.503515625 135.35 -79.85 135.8603515625 -79.1556640625 136.65 -79.05 139.175 -78.6251953125 141.6 -78.25 142.4435546875 -78.09140625 143.1 -78.6 143.79453125 -79.0599609375 143.9 -79.9
M 149.2 -81.1
Q 148.4041015625 -81.20859375 147.7 -80.75 147.0548828125 -80.2390625 146.9 -79.45 146.790625 -78.603515625 147.25 -77.95 147.7603515625 -77.2556640625 148.55 -77.15 151.075 -76.725 153.55 -76.35 154.3958984375 -76.19140625 155.05 -76.7 155.7451171875 -77.1609375 155.85 -78 156.0091796875 -78.7962890625 155.5 -79.5 155.039453125 -80.1443359375 154.2 -80.3 151.725 -80.675 149.2 -81.1
M 10.3 -90.3
Q 11.143359375 -90.2650390625 11.75 -90.85 12.3630859375 -91.3939453125 12.4 -92.25 12.4357421875 -93.04453125 11.85 -93.65 11.3072265625 -94.2625 10.45 -94.3 7.975 -94.4 5.45 -94.5 4.656640625 -94.53515625 4.05 -94 3.4369140625 -93.4060546875 3.4 -92.6 3.3642578125 -91.75546875 3.9 -91.15 4.4927734375 -90.5376953125 5.3 -90.5 7.825 -90.4 10.3 -90.3
M 24.4 -91.8
Q 24.4357421875 -92.59453125 23.85 -93.2 23.3072265625 -93.8125 22.45 -93.85 19.975 -93.95 17.45 -94.05 16.656640625 -94.08515625 16.05 -93.55 15.4369140625 -92.9560546875 15.4 -92.15 15.3642578125 -91.30546875 15.9 -90.7 16.4927734375 -90.0876953125 17.3 -90.05 19.825 -89.95 22.3 -89.85 23.143359375 -89.8150390625 23.75 -90.4 24.3630859375 -90.9439453125 24.4 -91.8
M 34.25 -89.25
Q 35.10234375 -89.2005859375 35.7 -89.75 36.348046875 -90.301171875 36.4 -91.15 36.4501953125 -91.9517578125 35.9 -92.6 35.348046875 -93.1974609375 34.5 -93.25 32.025 -93.4 29.5 -93.55 28.6974609375 -93.599609375 28.05 -93.05 27.451953125 -92.498828125 27.4 -91.7 27.3498046875 -90.8482421875 27.9 -90.25 28.451953125 -89.6025390625 29.25 -89.55 31.775 -89.4 34.25 -89.25
M 47.9 -91.9
Q 47.348046875 -92.4974609375 46.5 -92.55 44.025 -92.7 41.5 -92.85 40.6974609375 -92.899609375 40.05 -92.35 39.451953125 -91.798828125 39.4 -91 39.3498046875 -90.1482421875 39.9 -89.55 40.451953125 -88.9025390625 41.25 -88.85 43.775 -88.7 46.25 -88.55 47.10234375 -88.5005859375 47.7 -89.05 48.348046875 -89.601171875 48.4 -90.45 48.4501953125 -91.2517578125 47.9 -91.9
M 51.9 -88.8
Q 52.451953125 -88.1525390625 53.25 -88.1 55.7625 -87.95 58.25 -87.75 59.06953125 -87.6857421875 59.7 -88.25 60.3326171875 -88.7703125 60.4 -89.6 60.46484375 -90.4203125 59.9 -91.05 59.38046875 -91.6818359375 58.55 -91.75 56.0375 -91.9501953125 53.5 -92.1 52.6974609375 -92.149609375 52.05 -91.6 51.451953125 -91.048828125 51.4 -90.25 51.3498046875 -89.3982421875 51.9 -88.8
M 75.3 -88.4
Q 75.2208984375 -87.57265625 75.75 -86.95 76.278515625 -86.283203125 77.1 -86.2 79.6 -85.95 82.1 -85.7 82.9283203125 -85.621484375 83.55 -86.15 84.2173828125 -86.6775390625 84.3 -87.5 84.3791015625 -88.32734375 83.85 -89 83.3212890625 -89.616796875 82.5 -89.7 80 -89.95 77.5 -90.2 76.6716796875 -90.2787109375 76 -89.75 75.3826171875 -89.2224609375 75.3 -88.4
M 71.65 -87.3
Q 72.2826171875 -87.8203125 72.35 -88.65 72.41484375 -89.4703125 71.85 -90.1 71.33046875 -90.7318359375 70.5 -90.8 68 -91 65.5 -91.2 64.68046875 -91.2642578125 64.05 -90.75 63.417578125 -90.1798828125 63.35 -89.35 63.28515625 -88.5296875 63.8 -87.9 64.36953125 -87.2681640625 65.2 -87.2 67.7 -87 70.2 -86.8 71.01953125 -86.7357421875 71.65 -87.3 Z"/>
</g>

<g id="Layer0_1_STROKES_1_FILL">
<path fill="#3567D7" stroke="none" d="
M -72.55 -94.35
Q -73.125390625 -94.927734375 -73.95 -94.95 -76.45 -95 -78.95 -95.05 -79.776171875 -95.0701171875 -80.4 -94.5 -80.9783203125 -93.925 -81 -93.1 -81.020703125 -92.2740234375 -80.45 -91.7 -79.874609375 -91.072265625 -79.05 -91.05 -76.55 -91 -74.05 -90.95 -73.223828125 -90.9298828125 -72.65 -91.5 -72.0216796875 -92.075 -72 -92.9 -71.979296875 -93.7259765625 -72.55 -94.35
M -60 -92.5
Q -59.9642578125 -93.29453125 -60.55 -93.9 -61.0927734375 -94.5125 -61.95 -94.55 -64.425 -94.65 -66.95 -94.75 -67.743359375 -94.78515625 -68.35 -94.25 -68.9630859375 -93.6560546875 -69 -92.85 -69.0357421875 -92.00546875 -68.5 -91.4 -67.9072265625 -90.7876953125 -67.1 -90.75 -64.575 -90.65 -62.1 -90.55 -61.256640625 -90.5150390625 -60.65 -91.1 -60.0369140625 -91.6439453125 -60 -92.5
M -50.15 -90
Q -49.29765625 -89.9505859375 -48.7 -90.5 -48.051953125 -91.051171875 -48 -91.9 -47.9498046875 -92.7017578125 -48.5 -93.35 -49.051953125 -93.9474609375 -49.9 -94 -52.4 -94.1501953125 -54.95 -94.25 -55.743359375 -94.28515625 -56.35 -93.75 -56.9630859375 -93.1560546875 -57 -92.35 -57.0357421875 -91.50546875 -56.5 -90.9 -55.9072265625 -90.2876953125 -55.1 -90.25 -52.6 -90.1498046875 -50.15 -90
M -36.5 -92.65
Q -37.051953125 -93.2474609375 -37.9 -93.3 -40.375 -93.45 -42.9 -93.6 -43.7025390625 -93.649609375 -44.35 -93.1 -44.948046875 -92.548828125 -45 -91.75 -45.0501953125 -90.8982421875 -44.5 -90.3 -43.948046875 -89.6525390625 -43.15 -89.6 -40.625 -89.45 -38.15 -89.3 -37.29765625 -89.2505859375 -36.7 -89.8 -36.051953125 -90.351171875 -36 -91.2 -35.9498046875 -92.0017578125 -36.5 -92.65
M -26.25 -88.4
Q -25.391796875 -88.3357421875 -24.75 -88.9 -24.117578125 -89.4201171875 -24.05 -90.25 -23.98515625 -91.0701171875 -24.55 -91.7 -25.0580078125 -92.3318359375 -25.9 -92.4 -28.3375 -92.6 -30.85 -92.8 -31.66953125 -92.8642578125 -32.3 -92.35 -32.932421875 -91.7798828125 -33 -90.95 -33.06484375 -90.1296875 -32.55 -89.5 -31.98046875 -88.8681640625 -31.15 -88.8 -28.6625 -88.6001953125 -26.25 -88.4
M -12.1 -89.2
Q -12.0208984375 -90.02734375 -12.55 -90.7 -13.0787109375 -91.316796875 -13.9 -91.4 -16.425 -91.6501953125 -18.95 -91.85 -19.76953125 -91.9142578125 -20.4 -91.4 -21.032421875 -90.8298828125 -21.1 -90 -21.16484375 -89.1796875 -20.65 -88.55 -20.08046875 -87.9181640625 -19.25 -87.85 -16.775 -87.6498046875 -14.3 -87.4 -13.4716796875 -87.321484375 -12.85 -87.85 -12.1826171875 -88.3775390625 -12.1 -89.2
M -0.9 -86.7
Q -0.2326171875 -87.2275390625 -0.15 -88.05 -0.0708984375 -88.87734375 -0.6 -89.55 -1.1287109375 -90.166796875 -1.95 -90.25 -4.45 -90.5 -6.95 -90.75 -7.7783203125 -90.8287109375 -8.45 -90.3 -9.0673828125 -89.7724609375 -9.15 -88.95 -9.2291015625 -88.12265625 -8.7 -87.5 -8.171484375 -86.833203125 -7.35 -86.75 -4.85 -86.5 -2.35 -86.25 -1.5216796875 -86.171484375 -0.9 -86.7
M -146.5 -94.25
Q -148.975 -94.15 -151.5 -94.05 -152.3072265625 -94.0125 -152.9 -93.4 -153.4357421875 -92.79453125 -153.4 -92 -153.3630859375 -91.1439453125 -152.75 -90.6 -152.143359375 -90.0150390625 -151.35 -90.05 -148.825 -90.15 -146.35 -90.25 -145.4927734375 -90.2876953125 -144.95 -90.9 -144.3642578125 -91.50546875 -144.4 -92.35 -144.4369140625 -93.1560546875 -145.05 -93.75 -145.656640625 -94.28515625 -146.5 -94.25
M -132.35 -92.85
Q -132.3869140625 -93.6560546875 -133 -94.25 -133.606640625 -94.78515625 -134.45 -94.75 -136.925 -94.65 -139.45 -94.55 -140.2572265625 -94.5125 -140.85 -93.9 -141.3857421875 -93.29453125 -141.35 -92.5 -141.3130859375 -91.6439453125 -140.7 -91.1 -140.093359375 -90.5150390625 -139.3 -90.55 -136.775 -90.65 -134.3 -90.75 -133.4427734375 -90.7876953125 -132.9 -91.4 -132.3142578125 -92.00546875 -132.35 -92.85
M -120.25 -93.1
Q -120.271484375 -93.925 -120.9 -94.5 -121.4740234375 -95.0701171875 -122.3 -95.05 -124.85 -95 -127.35 -94.95 -128.174609375 -94.927734375 -128.75 -94.35 -129.320703125 -93.7259765625 -129.3 -92.9 -129.2783203125 -92.075 -128.7 -91.5 -128.076171875 -90.9298828125 -127.25 -90.95 -124.75 -91 -122.2 -91.05 -121.3751953125 -91.072265625 -120.8 -91.7 -120.229296875 -92.2740234375 -120.25 -93.1
M -108.2 -93.2
Q -108.1947265625 -94.033984375 -108.8 -94.65 -109.3662109375 -95.20546875 -110.2 -95.2 -112.725 -95.2001953125 -115.25 -95.15 -116.074609375 -95.127734375 -116.65 -94.55 -117.220703125 -93.9259765625 -117.2 -93.1 -117.1783203125 -92.275 -116.6 -91.7 -115.976171875 -91.1298828125 -115.15 -91.15 -112.6751953125 -91.1998046875 -110.2 -91.2 -109.3662109375 -91.1947265625 -108.8 -91.8 -108.1947265625 -92.3662109375 -108.2 -93.2
M -98 -91.25
Q -97.1662109375 -91.2447265625 -96.6 -91.85 -95.9947265625 -92.4162109375 -96 -93.25 -95.9947265625 -94.083984375 -96.6 -94.7 -97.1662109375 -95.25546875 -98 -95.25 -99.75 -95.25 -101.5 -95.25 -102.35 -95.25 -103.2 -95.25 -104.033984375 -95.25546875 -104.65 -94.7 -105.20546875 -94.083984375 -105.2 -93.25 -105.20546875 -92.4162109375 -104.65 -91.85 -104.033984375 -91.2447265625 -103.2 -91.25 -102.35 -91.25 -101.5 -91.25 -99.75 -91.25 -98 -91.25
M -91 -91.2
Q -88.525 -91.1998046875 -86.05 -91.15 -85.223828125 -91.1298828125 -84.65 -91.7 -84.0216796875 -92.275 -84 -93.1 -83.979296875 -93.9259765625 -84.55 -94.55 -85.125390625 -95.127734375 -85.95 -95.15 -88.4751953125 -95.2001953125 -91 -95.2 -91.833984375 -95.20546875 -92.45 -94.65 -93.00546875 -94.033984375 -93 -93.2 -93.00546875 -92.3662109375 -92.45 -91.8 -91.833984375 -91.1947265625 -91 -91.2
M -235.9 -85.5
Q -236.6896484375 -85.3443359375 -237.2 -84.7 -237.659375 -83.9962890625 -237.55 -83.2 -237.3951171875 -82.3609375 -236.75 -81.9 -236.0458984375 -81.39140625 -235.25 -81.55 -232.725 -81.925 -230.25 -82.35 -229.410546875 -82.4556640625 -228.95 -83.15 -228.4408203125 -83.803515625 -228.6 -84.65 -228.7048828125 -85.4390625 -229.4 -85.95 -230.0541015625 -86.40859375 -230.9 -86.3 -233.375 -85.875 -235.9 -85.5
M -217.4 -87.65
Q -218.0583984375 -88.14453125 -218.9 -88.05 -221.375 -87.675 -223.9 -87.35 -224.6947265625 -87.2107421875 -225.2 -86.55 -225.6951171875 -85.8904296875 -225.6 -85.1 -225.4611328125 -84.254296875 -224.8 -83.75 -224.1416015625 -83.25546875 -223.35 -83.4 -220.825 -83.725 -218.35 -84.1 -217.50546875 -84.189453125 -217 -84.85 -216.505078125 -85.5095703125 -216.65 -86.35 -216.7388671875 -87.1458984375 -217.4 -87.65
M -206.85 -89.55
Q -209.35 -89.225 -211.85 -88.95 -212.66640625 -88.8259765625 -213.2 -88.2 -213.6810546875 -87.5208984375 -213.6 -86.7 -213.4765625 -85.8841796875 -212.85 -85.4 -212.1703125 -84.8697265625 -211.35 -85 -208.85 -85.275 -206.35 -85.6 -205.53359375 -85.67421875 -205.05 -86.35 -204.5189453125 -86.9791015625 -204.65 -87.8 -204.7234375 -88.6158203125 -205.4 -89.15 -206.0296875 -89.6302734375 -206.85 -89.55
M -193.35 -90.4
Q -193.9716796875 -90.9287109375 -194.8 -90.85 -197.3 -90.6 -199.8 -90.35 -200.621484375 -90.266796875 -201.15 -89.65 -201.6791015625 -88.97734375 -201.6 -88.15 -201.5173828125 -87.3275390625 -200.9 -86.8 -200.2283203125 -86.271484375 -199.4 -86.35 -196.9 -86.6 -194.4 -86.85 -193.5787109375 -86.933203125 -193.05 -87.6 -192.5208984375 -88.22265625 -192.6 -89.05 -192.6826171875 -89.8724609375 -193.35 -90.4
M -180.65 -90.1
Q -180.7173828125 -90.9298828125 -181.35 -91.5 -181.98046875 -92.0142578125 -182.8 -91.95 -185.325 -91.7501953125 -187.85 -91.5 -188.671484375 -91.416796875 -189.2 -90.8 -189.7291015625 -90.12734375 -189.65 -89.3 -189.5673828125 -88.4775390625 -188.95 -87.95 -188.2783203125 -87.421484375 -187.45 -87.5 -184.975 -87.7498046875 -182.5 -87.95 -181.66953125 -88.0181640625 -181.15 -88.65 -180.58515625 -89.2796875 -180.65 -90.1
M -164.85 -89.85
Q -164.2025390625 -89.3005859375 -163.4 -89.35 -160.875 -89.5 -158.35 -89.65 -157.501171875 -89.7025390625 -156.95 -90.35 -156.3998046875 -90.9482421875 -156.45 -91.8 -156.501953125 -92.5986328125 -157.15 -93.15 -157.7484375 -93.699609375 -158.6 -93.65 -161.125 -93.5 -163.65 -93.35 -164.448046875 -93.2974609375 -165 -92.7 -165.5501953125 -92.0517578125 -165.5 -91.25 -165.448046875 -90.401171875 -164.85 -89.85
M -170.4 -88.9
Q -169.57265625 -88.967578125 -169.05 -89.6 -168.485546875 -90.228515625 -168.55 -91.05 -168.6169921875 -91.8787109375 -169.25 -92.45 -169.8771484375 -92.9638671875 -170.7 -92.9 -173.25 -92.7 -175.75 -92.5 -176.58046875 -92.4318359375 -177.15 -91.8 -177.66484375 -91.1703125 -177.6 -90.35 -177.532421875 -89.5203125 -176.9 -89 -176.26953125 -88.4357421875 -175.45 -88.5 -172.95 -88.7 -170.4 -88.9
M -273.15 -76.4
Q -272.9716796875 -75.5947265625 -272.3 -75.15 -271.565234375 -74.7123046875 -270.75 -74.9 -268.325 -75.4498046875 -265.9 -75.95 -265.085546875 -76.11328125 -264.65 -76.8 -264.1751953125 -77.4919921875 -264.35 -78.3 -264.5125 -79.1130859375 -265.2 -79.6 -265.893359375 -80.023828125 -266.7 -79.85 -269.1751953125 -79.3501953125 -271.65 -78.8 -272.455078125 -78.6212890625 -272.9 -77.95 -273.33828125 -77.2150390625 -273.15 -76.4
M -278.5 -77.25
Q -280.9625 -76.700390625 -283.45 -76.1 -284.225 -75.891796875 -284.65 -75.2 -285.089453125 -74.470703125 -284.9 -73.7 -284.6927734375 -72.8767578125 -284 -72.45 -283.269140625 -72.01171875 -282.5 -72.2 -280.0375 -72.8 -277.6 -73.35 -276.794921875 -73.52890625 -276.35 -74.25 -275.91171875 -74.93515625 -276.1 -75.75 -276.2783203125 -76.5552734375 -277 -77 -277.6849609375 -77.4376953125 -278.5 -77.25
M -248.6 -79.85
Q -247.90234375 -79.37734375 -247.1 -79.55 -244.6623046875 -79.975 -242.2 -80.4 -241.360546875 -80.5056640625 -240.9 -81.2 -240.3908203125 -81.853515625 -240.55 -82.7 -240.6548828125 -83.4890625 -241.35 -84 -242.0041015625 -84.45859375 -242.85 -84.35 -245.3376953125 -83.9251953125 -247.8 -83.5 -248.6197265625 -83.315625 -249.1 -82.65 -249.5732421875 -81.9521484375 -249.45 -81.15 -249.2662109375 -80.330078125 -248.6 -79.85
M -254.75 -82.25
Q -257.2751953125 -81.762890625 -259.75 -81.25 -260.564453125 -81.08671875 -261.05 -80.4 -261.474609375 -79.7080078125 -261.3 -78.9 -261.1375 -78.0869140625 -260.45 -77.65 -259.7568359375 -77.176171875 -258.95 -77.35 -256.5248046875 -77.8373046875 -254.05 -78.3 -253.23203125 -78.4208984375 -252.75 -79.1 -252.276953125 -79.7841796875 -252.45 -80.6 -252.5705078125 -81.4189453125 -253.25 -81.9 -253.933203125 -82.3724609375 -254.75 -82.25
M 163.35 -46.85
Q 162.596875 -46.59140625 162.2 -45.85 161.8453125 -45.1111328125 162.1 -44.35 162.359375 -43.5478515625 163.1 -43.2 165.324609375 -42.025 167.45 -40.9 168.1849609375 -40.483984375 168.95 -40.75 169.761328125 -40.967578125 170.15 -41.7 170.5541015625 -42.4333984375 170.3 -43.25 170.0806640625 -44.0234375 169.35 -44.45 167.175390625 -45.5751953125 164.9 -46.75 164.1603515625 -47.1037109375 163.35 -46.85
M 179.85 -38.45
Q 177.7255859375 -39.775390625 175.5 -41.05 174.7736328125 -41.4521484375 173.95 -41.25 173.1826171875 -41.0001953125 172.75 -40.3 172.359375 -39.5623046875 172.55 -38.8 172.7884765625 -37.9708984375 173.5 -37.55 175.67421875 -36.324609375 177.75 -35.05 178.4505859375 -34.612890625 179.25 -34.8 180.0576171875 -34.9923828125 180.5 -35.7 180.938671875 -36.4005859375 180.75 -37.2 180.557421875 -38.0060546875 179.85 -38.45
M 182.75 -32.55
Q 182.9349609375 -31.7310546875 183.6 -31.25 185.6865234375 -29.825 187.6 -28.4 188.2759765625 -27.9052734375 189.1 -28.05 189.910546875 -28.140234375 190.4 -28.8 190.895703125 -29.474609375 190.75 -30.3 190.6583984375 -31.109765625 190 -31.6 188.0134765625 -33.0751953125 185.85 -34.55 185.20078125 -35.0224609375 184.4 -34.9 183.580078125 -34.71640625 183.1 -34.05 182.6265625 -33.351953125 182.75 -32.55
M 117.1 -65.25
Q 116.7390625 -65.954296875 115.95 -66.2 113.5875 -66.9626953125 111.2 -67.7 110.4326171875 -67.903125 109.7 -67.5 108.9666015625 -67.1103515625 108.7 -66.35 108.49609375 -65.5318359375 108.9 -64.8 109.2888671875 -64.067578125 110.05 -63.85 112.4125 -63.1375 114.75 -62.4 115.5380859375 -62.145703125 116.25 -62.55 117.0046875 -62.9103515625 117.25 -63.7 117.5044921875 -64.4875 117.1 -65.25
M 99.6 -71.15
Q 98.80234375 -71.353125 98.05 -70.95 97.3515625 -70.5447265625 97.1 -69.75 96.896484375 -68.9529296875 97.3 -68.25 97.7060546875 -67.501953125 98.5 -67.3 100.95 -66.575 103.35 -65.9 104.13046875 -65.647265625 104.85 -66.05 105.584375 -66.4408203125 105.8 -67.25 106.0537109375 -68.01953125 105.65 -68.75 105.2482421875 -69.483203125 104.45 -69.75 102.0501953125 -70.425 99.6 -71.15
M 94.1 -70.55
Q 94.3404296875 -71.326171875 93.9 -72.05 93.5162109375 -72.7630859375 92.7 -73 90.2998046875 -73.6376953125 87.85 -74.25 87.0818359375 -74.4513671875 86.35 -74.05 85.6580078125 -73.59921875 85.45 -72.8 85.2478515625 -71.9931640625 85.65 -71.3 86.1119140625 -70.558984375 86.9 -70.35 89.2998046875 -69.7623046875 91.65 -69.15 92.4763671875 -68.91015625 93.2 -69.35 93.9134765625 -69.73359375 94.1 -70.55
M 152.55 -52
Q 151.773828125 -51.68203125 151.4 -50.95 151.08203125 -50.172265625 151.35 -49.4 151.668359375 -48.625 152.4 -48.3 154.712109375 -47.2375 156.9 -46.2 157.647265625 -45.84609375 158.4 -46.15 159.1970703125 -46.4017578125 159.55 -47.15 159.9052734375 -47.897265625 159.6 -48.7 159.348046875 -49.4458984375 158.6 -49.8 156.387890625 -50.8625 154.05 -51.95 153.321875 -52.2669921875 152.55 -52
M 141.45 -56.6
Q 140.712109375 -56.2703125 140.4 -55.5 140.081640625 -54.737109375 140.4 -54 140.7279296875 -53.21328125 141.5 -52.9 143.837109375 -51.95 146.05 -51 146.8388671875 -50.6822265625 147.6 -51 148.3705078125 -51.3123046875 148.7 -52.1 149.018359375 -52.837109375 148.7 -53.6 148.3859375 -54.3701171875 147.6 -54.7 145.3626953125 -55.65 143 -56.6 142.238671875 -56.9171875 141.45 -56.6
M 129.35 -58.1
Q 129.70078125 -57.3541015625 130.45 -57.1 132.8123046875 -56.225 135.1 -55.4 135.87109375 -55.0830078125 136.6 -55.45 137.38203125 -55.7740234375 137.65 -56.55 137.9681640625 -57.32265625 137.6 -58.1 137.27734375 -58.8310546875 136.5 -59.15 134.1875 -59.975 131.8 -60.85 131.05 -61.1048828125 130.3 -60.75 129.553515625 -60.3990234375 129.25 -59.65 128.9947265625 -58.8498046875 129.35 -58.1
M 126.3 -62.2
Q 125.909765625 -62.9330078125 125.1 -63.2 124.625 -63.325 124.1 -63.5
L 124.2 -63.45
Q 123.50078125 -63.6875 122.7 -63.95 121.9412109375 -64.2044921875 121.2 -63.85 120.460546875 -63.45546875 120.2 -62.7 119.9451171875 -61.8916015625 120.3 -61.15 120.6951171875 -60.4109375 121.45 -60.15 122.19921875 -59.9125 122.85 -59.7 122.92890625 -59.6494140625 122.95 -59.65 123.475 -59.475 123.95 -59.35 124.7685546875 -59.096484375 125.5 -59.5 126.233203125 -59.889453125 126.45 -60.7 126.70390625 -61.46796875 126.3 -62.2
M 10.05 -88.85
Q 7.55 -89.125 5.05 -89.45 4.2296875 -89.5302734375 3.55 -89.05 2.9234375 -88.5158203125 2.8 -87.7 2.7189453125 -86.8791015625 3.2 -86.25 3.73359375 -85.57421875 4.55 -85.5 7.05 -85.175 9.55 -84.9 10.3703125 -84.7697265625 11 -85.3 11.6765625 -85.7841796875 11.75 -86.6 11.8810546875 -87.4208984375 11.35 -88.1 10.86640625 -88.7259765625 10.05 -88.85
M 23.65 -85
Q 23.7953125 -85.7890625 23.3 -86.45 22.796875 -87.1099609375 21.95 -87.25 19.525 -87.575 17 -87.95 16.2083984375 -88.04453125 15.55 -87.55 14.8888671875 -87.0458984375 14.75 -86.25 14.6548828125 -85.4095703125 15.15 -84.75 15.6552734375 -84.089453125 16.45 -84 18.975 -83.625 21.4 -83.3 22.2390625 -83.1552734375 22.9 -83.65 23.560546875 -84.153125 23.65 -85
M 28.95 -86.2
Q 28.1541015625 -86.30859375 27.45 -85.85 26.8048828125 -85.3390625 26.65 -84.55 26.540625 -83.703515625 27 -83.05 27.5103515625 -82.3556640625 28.3 -82.25 30.825 -81.825 33.3 -81.45 34.1458984375 -81.29140625 34.8 -81.8 35.4951171875 -82.2609375 35.6 -83.1 35.7591796875 -83.8962890625 35.25 -84.6 34.789453125 -85.2443359375 33.95 -85.4 31.475 -85.775 28.95 -86.2
M 58.9 -80.3
Q 58.464453125 -80.98671875 57.65 -81.15 55.175 -81.6626953125 52.7 -82.15 51.89765625 -82.27265625 51.2 -81.8 50.5337890625 -81.3201171875 50.35 -80.5 50.2267578125 -79.6978515625 50.7 -79.05 51.1802734375 -78.334375 52 -78.2 54.425 -77.7375 56.85 -77.25 57.656640625 -77.076171875 58.35 -77.55 59.0375 -77.9869140625 59.2 -78.8 59.3748046875 -79.6080078125 58.9 -80.3
M 45.85 -83.4
Q 43.3875 -83.8251953125 40.9 -84.25 40.10625 -84.3587890625 39.4 -83.9 38.75546875 -83.3900390625 38.6 -82.6 38.4904296875 -81.7548828125 38.95 -81.1 39.4583984375 -80.4064453125 40.25 -80.3 42.7125 -79.8748046875 45.15 -79.45 45.95234375 -79.27734375 46.6 -79.75 47.31640625 -80.230078125 47.45 -81.05 47.6232421875 -81.8521484375 47.15 -82.55 46.6697265625 -83.215625 45.85 -83.4
M 74.75 -76.9
Q 74.0572265625 -76.4732421875 73.85 -75.7 73.660546875 -74.8791015625 74.1 -74.2 74.525 -73.458203125 75.3 -73.25 77.775 -72.65 80.15 -72.05 80.9681640625 -71.8486328125 81.65 -72.3 82.391796875 -72.7005859375 82.6 -73.5 82.8021484375 -74.3068359375 82.35 -75.05 81.9380859375 -75.741015625 81.1 -75.95 78.7251953125 -76.55 76.25 -77.15 75.480859375 -77.3384765625 74.75 -76.9
M 69.45 -78.7
Q 66.975 -79.2501953125 64.5 -79.75 63.6931640625 -79.923828125 63 -79.5 62.3125 -79.0130859375 62.15 -78.2 61.975390625 -77.3919921875 62.4 -76.7 62.885546875 -76.01328125 63.7 -75.85 66.1248046875 -75.3498046875 68.55 -74.8 69.3650390625 -74.6123046875 70.05 -75.05 70.7716796875 -75.4947265625 70.95 -76.3 71.13828125 -77.1150390625 70.7 -77.85 70.255078125 -78.5212890625 69.45 -78.7 Z"/>
</g>
</defs>

<g transform="matrix( 1, 0, 0, 1, 712.95,319.25) ">
<use xlink:href="#Layer0_0_STROKES_1_FILL"/>
</g>

<g transform="matrix( 1, 0, 0, 1, 712.95,469.25) ">
<use xlink:href="#Layer0_1_STROKES_1_FILL"/>
</g>
</svg>
