
<svg xmlns="http://www.w3.org/2000/svg" version="1.1" xmlns:xlink="http://www.w3.org/1999/xlink" preserveAspectRatio="none" x="0px" y="0px" width="965px" height="105px" viewBox="0 0 965 105">
<defs>
<g id="Layer0_0_FILL">
<path fill="#1E1E1E" stroke="none" d="
M 33.1 22.25
Q 32.8 22.1 32.4 22.1
L 4.8 22.1
Q 4.3 22.1 4 22.25 3.65 22.4 3.45 22.65 3.05 23.25 3.05 23.95 3.05 24.35 3.15 24.65 3.25 25 3.45 25.25 3.65 25.5 4 25.65 4.3 25.8 4.8 25.8
L 16.4 25.8 16.4 35.6
Q 16.4 36.05 16.55 36.4 16.7 36.75 17.1 37 17.4 37.2 17.75 37.3 18.1 37.45 18.45 37.45 18.85 37.45 19.25 37.3 19.6 37.2 19.95 37 20.25 36.75 20.45 36.4 20.6 36.05 20.65 35.6
L 20.65 25.8 32.4 25.8
Q 33.2 25.8 33.65 25.25 34.1 24.8 34.1 24.1 34.1 23.7 34 23.3 33.9 22.95 33.65 22.65 33.45 22.4 33.1 22.25
M 28.45 5.8
Q 28.3 5.55 28 5.4 27.7 5.25 27.25 5.25
L 9.85 5.25
Q 9.45 5.25 9.2 5.4 8.9 5.6 8.7 5.85 8.3 6.45 8.3 7.2 8.3 7.55 8.4 7.85 8.55 8.15 8.8 8.45 9.2 8.95 9.85 8.95
L 16.6 8.95
Q 16.1 10.2 15.35 11.15 14.9 11.7 14.4 12.1 13.95 12.6 13.4 13 12.8 13.45 12.2 13.8 11.6 14.2 10.95 14.5 10.3 14.8 9.7 15.1 9.05 15.35 8.4 15.55 8.05 15.8 7.9 16.1 7.7 16.45 7.7 16.9 7.7 17.05 7.7 17.25 7.75 17.4 7.8 17.6 7.85 18 8.1 18.35 8.2 18.5 8.35 18.6 8.5 18.7 8.7 18.8 9.1 19 9.45 19 9.6 19 9.8 19 9.95 18.95 10.15 18.9 10.7 18.7 11.3 18.45 11.9 18.15 12.5 17.9 13.65 17.45 14.9 16.85 15.45 16.5 15.95 16.15 16.5 15.8 16.95 15.4 17.9 14.65 18.55 13.7 19.25 14.75 20.2 15.5 21.1 16.3 22.25 16.85 23.35 17.45 24.5 17.95 25.65 18.45 26.9 18.9 27.1 19 27.3 19.05 27.5 19.05 27.7 19.05 28 19.05 28.3 18.85 28.45 18.75 28.6 18.65 28.8 18.5 29 18.35 29.1 18.2 29.2 18 29.3 17.8 29.4 17.6 29.45 17.4 29.5 17.25 29.55 17.05 29.55 16.85 29.55 16.65 29.5 16.45 29.45 16.3 29.4 16.1 29.25 15.95 29.05 15.85 28.85 15.7 28.6 15.6
L 28.65 15.6
Q 27.95 15.4 27.35 15.15 26.75 14.85 26.15 14.55 25.55 14.3 24.95 13.95 24.4 13.6 23.9 13.2 23.3 12.85 22.8 12.4 22.35 11.95 21.9 11.4 21.45 10.9 21.15 10.25 20.85 9.65 20.65 8.95
L 27.25 8.95
Q 27.7 8.95 28 8.8 28.3 8.65 28.45 8.4 28.6 8.1 28.65 7.8 28.75 7.5 28.75 7.15 28.75 6.75 28.65 6.4 28.6 6.05 28.45 5.8
M 61.75 3.85
Q 61.4 3.85 61.05 3.95 60.7 4 60.35 4.15 60 4.3 59.8 4.6 59.65 4.95 59.65 5.35
L 59.65 15.2 53.65 15.2
Q 53.6 14.5 53.5 13.85 53.35 13.2 53.2 12.6 52.9 11.6 52.5 10.8 52.1 9.95 51.5 9.25 51.05 8.6 50.5 8.05 49.9 7.55 49.2 7.15 48.45 6.8 47.6 6.6 46.75 6.45 45.8 6.45 44.9 6.45 44.1 6.6 43.3 6.8 42.55 7.15 41.85 7.55 41.2 8.05 40.55 8.6 40 9.25 39.55 9.95 39.15 10.8 38.8 11.6 38.55 12.6 38.25 13.6 38.1 14.7 38 15.85 38 17.05 38 18.35 38.1 19.45 38.25 20.55 38.55 21.5 38.8 22.5 39.15 23.35 39.55 24.15 40 24.85 40.55 25.5 41.2 26.05 41.85 26.55 42.55 26.9 43.3 27.25 44.1 27.45 44.9 27.65 45.8 27.65 46.75 27.65 47.6 27.45 48.45 27.25 49.2 26.9 49.9 26.55 50.5 26.05 51.05 25.5 51.5 24.85 52.1 24.15 52.5 23.35 52.9 22.5 53.2 21.5 53.35 20.9 53.5 20.25 53.6 19.6 53.7 18.85
L 59.65 18.85 59.65 35.3
Q 59.65 35.75 59.8 36.05 60 36.35 60.35 36.55 60.7 36.65 61.05 36.75 61.4 36.8 61.75 36.8 62.2 36.8 62.55 36.75 62.9 36.65 63.2 36.55 63.5 36.35 63.6 36.05 63.75 35.75 63.75 35.3
L 63.75 5.35
Q 63.75 4.95 63.6 4.6 63.5 4.3 63.2 4.15 62.9 4 62.55 3.95 62.2 3.85 61.75 3.85
M 42.85 11.95
Q 43.4 11.05 44.15 10.55 44.9 10.1 45.8 10.1 46.8 10.1 47.55 10.55 48.3 11.05 48.85 11.95 49.35 12.9 49.6 14.15 49.85 15.45 49.85 17.05 49.85 18.7 49.6 20 49.35 21.25 48.85 22.2 48.3 23.15 47.55 23.55 46.8 24.05 45.8 24.05 44.9 24.05 44.15 23.55 43.4 23.15 42.85 22.2 42.25 21.25 42 20 41.7 18.7 41.7 17.05 41.7 15.45 42 14.15 42.25 12.9 42.85 11.95
M 124.55 97.85
Q 124.55 98.35 124.65 98.65 124.8 99 125 99.15 125.2 99.25 125.55 99.35 125.9 99.4 126.45 99.4
L 127.15 99.4
Q 127.05 99.6 126.75 100.15 126.55 100.35 126.35 100.55 126.1 100.75 125.75 100.95 125.6 101.05 125.45 101.2 125.25 101.3 125.15 101.45 125 101.55 124.95 101.65 124.85 101.75 124.85 101.95 124.85 102.15 124.95 102.4 125 102.6 125.15 102.75 125.25 102.9 125.35 103.05 125.5 103.1 125.65 103.1 125.75 103.1 125.95 103.1 126.15 103.05 126.35 103 126.6 102.85 126.7 102.8 126.85 102.75 126.9 102.7 127.15 102.6 127.35 102.45 127.6 102.3 127.85 102.1 128.1 101.9 128.35 101.65 128.55 101.4 128.8 101.1 129.25 100.45 129.55 99.75 129.65 99.3 129.7 98.9 129.75 98.5 129.75 98.05
L 129.75 96.25
Q 129.75 95.8 129.6 95.45 129.5 95.15 129.2 94.9 128.9 94.65 128.55 94.55 128.2 94.45 127.8 94.45
L 126.45 94.45
Q 125.9 94.45 125.55 94.55 125.2 94.65 125 94.85 124.8 95.1 124.65 95.45 124.55 95.8 124.55 96.25
L 124.55 97.85
M 81.25 79.6
Q 81.25 79.9 81.2 80.2 81.15 80.5 81 80.85 80.85 81.15 80.65 81.45 80.5 81.75 80.35 82.05 80.15 82.4 80 82.65 79.8 82.95 79.5 83.15 79.25 83.4 79 83.6 78.75 83.8 78.6 83.9 78.15 84.25 77.7 84.6 77.2 84.95 76.75 85.3 76.3 85.65 75.85 86 75.4 86.35 74.95 86.65 74.3 87.2 73.8 87.65 73.25 88.1 72.75 88.5 72.3 88.95 71.95 89.4 71.6 89.85 71.35 90.3 70.95 90.7 70.7 91.2 70.5 91.65 70.3 92.1 70.15 92.65 70.05 93.25 69.9 93.8 69.85 94.45 69.85 94.5 69.85 94.6 69.8 94.7 69.8 94.8 69.75 94.9 69.75 95.05 69.7 95.15 69.75 95.2
L 69.75 95.35
Q 69.7 95.45 69.7 95.6 69.7 95.7 69.7 95.8 69.7 96.35 69.85 96.7 70 97.05 70.4 97.25 70.7 97.5 71.1 97.6 71.5 97.75 71.95 97.75
L 83.55 97.75
Q 85.65 97.75 85.65 95.85 85.65 95.35 85.5 95 85.35 94.65 85.1 94.45 84.8 94.3 84.35 94.2 83.9 94.1 83.35 94.1
L 74.35 94.1
Q 74.35 93.6 74.5 93.05 74.65 92.55 75 92.05 75.3 91.6 75.75 91.15 76.15 90.7 76.65 90.3 77.1 89.95 77.55 89.6 78.05 89.2 78.6 88.9 79.1 88.55 79.55 88.25 80 87.95 80.3 87.7 80.8 87.35 81.3 87 81.8 86.6 82.25 86.2 82.65 85.75 83.05 85.3 83.4 84.85 83.7 84.35 84.05 83.9 84.35 83.35 84.6 82.85 84.75 82.25 84.9 81.65 85 80.95 85.1 80.3 85.1 79.55 85.1 78.85 84.95 78.2 84.8 77.5 84.55 76.85 84.3 76.15 83.9 75.55 83.5 74.95 83.05 74.4 82.45 73.9 81.8 73.45 81.15 73.05 80.45 72.7 79.75 72.4 78.95 72.25 78.2 72.05 77.35 72.05
L 77.3 72.05
Q 76.45 72.05 75.7 72.2 74.95 72.4 74.3 72.7 73.55 73.05 72.95 73.5 72.3 73.9 71.8 74.45 70.85 75.5 70.3 76.75 70.05 77.4 69.9 78.05 69.75 78.65 69.75 79.3 69.75 79.65 69.9 79.95 70.05 80.25 70.3 80.45 70.6 80.65 70.9 80.8 71.15 80.9 71.5 80.9 71.95 80.9 72.35 80.7 72.8 80.55 73.15 80.25 73.45 79.9 73.65 79.5 73.8 79.1 73.8 78.6 73.8 78.45 73.9 78.25 73.95 78 74.15 77.75 74.25 77.5 74.4 77.25 74.6 77.05 74.8 76.85 75.1 76.65 75.4 76.5 75.7 76.3 76.05 76.15 76.4 76.05 76.7 76 77 75.9 77.35 75.9 77.85 75.9 78.25 76 78.7 76.1 79.05 76.25 79.4 76.4 79.7 76.65 80 76.85 80.25 77.1 80.45 77.35 80.6 77.7 80.8 78 80.95 78.3 81.1 78.65 81.2 78.95 81.25 79.3 81.25 79.6
M 110.75 72
Q 110.75 71.55 110.65 71.25 110.5 70.95 110.25 70.8 109.95 70.7 109.55 70.6 109.2 70.55 108.75 70.55 108.4 70.55 108.05 70.6 107.7 70.7 107.4 70.8 107.05 70.95 106.9 71.25 106.75 71.6 106.75 72
L 106.75 100.4
Q 106.75 100.85 106.9 101.15 107.05 101.45 107.4 101.6 107.7 101.75 108.05 101.8 108.4 101.9 108.75 101.9 109.2 101.9 109.55 101.8 109.95 101.75 110.25 101.6 110.5 101.45 110.65 101.15 110.75 100.85 110.75 100.4
L 110.75 85.6 113.45 85.6 113.45 101.35
Q 113.45 101.8 113.6 102.1 113.75 102.4 114 102.55 114.25 102.7 114.65 102.75 114.95 102.85 115.45 102.85 115.85 102.85 116.2 102.75 116.55 102.7 116.8 102.55 117.05 102.4 117.25 102.1 117.35 101.8 117.4 101.35
L 117.4 71.4
Q 117.35 70.95 117.25 70.65 117.05 70.35 116.8 70.2 116.55 70.05 116.2 69.95 115.85 69.9 115.45 69.9 114.95 69.9 114.65 69.95 114.25 70.05 114 70.2 113.75 70.35 113.6 70.65 113.45 70.95 113.45 71.4
L 113.45 81.85 110.75 81.85 110.75 72
M 102.4 73.3
Q 101.95 73 101.45 72.8 101.15 72.75 100.85 72.65 100.55 72.6 100.3 72.6
L 92.9 72.6
Q 92.5 72.6 92.2 72.8 91.85 72.95 91.7 73.25 91.45 73.6 91.35 73.9 91.25 74.25 91.25 74.55 91.25 74.95 91.35 75.25 91.5 75.55 91.7 75.8 91.95 76.05 92.25 76.2 92.55 76.3 92.9 76.3
L 99.55 76.3 99.55 76.7
Q 99.55 77.6 99.4 78.55 99.2 79.5 98.85 80.45 98.1 82.45 97.1 84.25 96.55 85.15 95.95 85.95 95.35 86.75 94.65 87.45 93.95 88.2 93.25 88.7 92.55 89.25 91.9 89.6 91.6 89.7 91.4 89.8 91.2 89.95 91.15 90.1 91.05 90.35 91 90.55 90.95 90.75 90.95 91 90.95 91.25 91 91.5 91.05 91.8 91.15 92 91.3 92.3 91.5 92.5 91.7 92.7 91.95 92.8 92.1 92.95 92.35 93 92.6 93.1 92.9 93.05 92.95 93.05 93 93.05 93.1 93.05 93.2 93.05 93.25 93.05 93.35 93 93.45 93 93.6 92.95 93.65 92.95 93.7 92.95 93.75 92.9 93.85 92.85 93.9 92.85 93.95 92.8 94 92.75 94 92.7
L 94.05 92.7
Q 95.05 92.15 95.95 91.45 96.9 90.7 97.8 89.8 98.6 88.85 99.35 87.8 100.1 86.75 100.8 85.6 101.4 84.45 101.9 83.2 102.45 81.95 102.8 80.6 103.2 79.3 103.35 77.95 103.55 76.6 103.55 75.3 103.55 75 103.45 74.7 103.35 74.4 103.2 74.15 103 73.9 102.8 73.7 102.6 73.5 102.4 73.3
M 81.8 24.55
Q 81.7 24.45 81.6 24.3 81.4 24.25 81.2 24.2 81.05 24.1 80.8 24.05 80.6 24 80.4 23.95 80.2 23.95 80.1 23.95 79.7 23.95 79.35 24.05 79 24.15 78.75 24.3 78.45 24.55 78.3 24.8 78.15 25.1 78.15 25.45
L 78.15 33
Q 78.15 33.7 78.4 34.3 78.65 34.85 79.15 35.2 79.6 35.5 80.2 35.7 80.75 35.85 81.5 35.85
L 96 35.85
Q 96.3 35.85 96.6 35.7 96.9 35.55 97.15 35.3 97.35 35 97.45 34.7 97.55 34.35 97.55 34 97.55 33.25 97.15 32.7 96.9 32.45 96.6 32.3 96.3 32.2 96 32.2
L 84.35 32.2
Q 83.75 32.2 83.3 32.15 82.8 32.1 82.35 32
L 82.35 25.45
Q 82.35 25.3 82.3 25.15 82.2 24.95 82.1 24.8 81.95 24.65 81.8 24.55
M 81.65 9
L 85.55 9
Q 85.95 9 86.2 8.85 86.5 8.7 86.7 8.4 87 7.85 87 7.15 87 6.75 86.95 6.4 86.85 6.05 86.7 5.8 86.3 5.25 85.55 5.25
L 73 5.25
Q 72.15 5.25 71.85 5.8 71.7 6.1 71.6 6.45 71.5 6.75 71.5 7.15 71.5 7.5 71.6 7.8 71.7 8.1 71.9 8.4 72.05 8.7 72.35 8.85 72.65 9 73 9
L 77.3 9 77.3 9.45
Q 77.3 10 77.2 10.55 77.1 11.1 76.95 11.65 76.7 12.25 76.45 12.75 76.15 13.35 75.8 13.9 75.4 14.4 75 14.85 74.55 15.35 74.05 15.8 73.55 16.25 73 16.65 72.45 17.05 71.85 17.4 71.65 17.5 71.55 17.65 71.4 17.75 71.35 17.9 71.3 18.1 71.25 18.25 71.25 18.4 71.25 18.55 71.25 18.85 71.25 19.1 71.3 19.35 71.35 19.5 71.4 19.75 71.55 19.9 71.65 20.05 71.85 20.2 72 20.3 72.2 20.4 72.4 20.5 72.55 20.55 72.7 20.6 72.85 20.65 73 20.7 73.1 20.65 73.15 20.6 73.3 20.6 73.45 20.55 73.65 20.55 74 20.55 74.3 20.45 75.85 19.5 77.2 18 77.85 17.3 78.45 16.5 79.05 15.75 79.6 14.9 80.1 15.7 80.65 16.45 81.25 17.15 81.9 17.75 83.15 19.1 85.15 20.1 85.5 20.2 85.75 20.25 86.05 20.35 86.2 20.35 87 20.35 87.45 19.6 87.65 19.25 87.8 18.9 87.95 18.5 87.95 18.1 87.95 17.85 87.9 17.7 87.85 17.5 87.75 17.4 87.65 17.35 87.5 17.2 87.4 17.05 87.25 16.85 86.7 16.6 86.2 16.25 85.75 15.9 85.3 15.45 84.35 14.65 83.5 13.7 83.2 13.2 82.85 12.7 82.55 12.15 82.25 11.65 81.65 10.6 81.65 9.65
L 81.65 9
M 93.25 5.1
Q 93.1 5.45 93.1 5.9
L 93.1 24.65
Q 93.1 25.15 93.25 25.45 93.45 25.75 93.8 25.95 94.1 26.1 94.4 26.15 94.75 26.25 95.1 26.25 96 26.25 96.7 25.95 97 25.75 97.15 25.45 97.3 25.15 97.3 24.65
L 97.3 5.9
Q 97.3 4.95 96.7 4.55 96.35 4.35 95.95 4.25 95.55 4.15 95.1 4.15 94.75 4.15 94.4 4.25 94.1 4.35 93.8 4.55 93.45 4.75 93.25 5.1
M 137.55 10.3
Q 137.95 10.3 138.25 10.15 138.55 10.05 138.75 9.75 139.05 9.25 139.05 8.5 139.05 8.1 138.95 7.8 138.9 7.45 138.75 7.2 138.55 6.95 138.25 6.8 137.95 6.65 137.55 6.65
L 122.85 6.65
Q 121.95 6.65 121.2 6.8 120.5 7 120 7.3 119.45 7.65 119.25 8.3 119 8.9 119 9.8
L 119 18.3
Q 119 18.75 119.1 19.15 119.15 19.55 119.35 19.85 119.65 20.45 120.05 20.8 120.4 21 120.75 21.1 121.1 21.25 121.45 21.25 121.85 21.3 122.25 21.35 122.65 21.35 123.1 21.35
L 127.45 21.35
Q 127.4 21.5 127.4 21.6 127.4 21.75 127.4 21.85
L 127.4 28 115.35 28
Q 114.85 28 114.55 28.1 114.25 28.25 114.15 28.5 114 28.8 113.95 29.15 113.9 29.5 113.9 29.9 113.9 30.25 113.95 30.55 114 30.85 114.15 31.1 114.25 31.4 114.55 31.55 114.85 31.65 115.35 31.65
L 143.15 31.65
Q 143.6 31.65 143.9 31.55 144.2 31.4 144.35 31.1 144.5 30.85 144.55 30.55 144.65 30.25 144.65 29.9 144.65 29.5 144.55 29.15 144.5 28.8 144.35 28.5 144.2 28.25 143.9 28.1 143.6 28 143.15 28
L 131.6 28 131.6 21.85
Q 131.6 21.75 131.6 21.6 131.6 21.5 131.6 21.35
L 138.25 21.35
Q 138.6 21.35 138.85 21.25 139.1 21.1 139.35 20.8 139.55 20.55 139.65 20.25 139.75 19.95 139.75 19.6 139.75 18.8 139.35 18.2 139.1 17.95 138.85 17.85 138.6 17.7 138.25 17.7
L 125.55 17.7
Q 124.85 17.7 124.35 17.7 124.1 17.7 123.85 17.7 123.55 17.7 123.25 17.65 123.25 17.4 123.25 17.15 123.2 16.85 123.2 16.6 123.2 16.4 123.2 16.1 123.2 15.85 123.2 15.6
L 123.2 10.55
Q 123.7 10.4 124.3 10.35 124.85 10.3 125.45 10.3
L 137.55 10.3
M 231.65 74.15
Q 231.45 73.9 231.25 73.7 231.05 73.5 230.85 73.3 230.4 73 229.9 72.8 229.6 72.75 229.3 72.65 229 72.6 228.75 72.6
L 221.35 72.6
Q 220.95 72.6 220.65 72.8 220.3 72.95 220.15 73.25 219.9 73.6 219.8 73.9 219.7 74.25 219.7 74.55 219.7 74.95 219.8 75.25 219.95 75.55 220.15 75.8 220.4 76.05 220.7 76.2 221 76.3 221.35 76.3
L 228 76.3 228 76.7
Q 228 77.6 227.85 78.55 227.65 79.5 227.3 80.45 226.55 82.45 225.55 84.25 225 85.15 224.4 85.95 223.8 86.75 223.1 87.45 222.4 88.2 221.7 88.7 221 89.25 220.35 89.6 220.05 89.7 219.85 89.8 219.65 89.95 219.6 90.1 219.5 90.35 219.45 90.55 219.4 90.75 219.4 91 219.4 91.25 219.45 91.5 219.5 91.8 219.6 92 219.75 92.3 219.95 92.5 220.15 92.7 220.4 92.8 220.55 92.95 220.8 93 221.05 93.1 221.35 93.05 221.4 93.05 221.45 93.05 221.55 93.05 221.65 93.05 221.7 93.05 221.8 93 221.9 93 222.05 92.95 222.1 92.95 222.15 92.95 222.2 92.9 222.3 92.85 222.35 92.85 222.4 92.8 222.45 92.75 222.45 92.7
L 222.5 92.7
Q 223.5 92.15 224.4 91.45 225.35 90.7 226.25 89.8 227.05 88.85 227.8 87.8 228.55 86.75 229.25 85.6 229.85 84.45 230.35 83.2 230.9 81.95 231.25 80.6 231.65 79.3 231.8 77.95 232 76.6 232 75.3 232 75 231.9 74.7 231.8 74.4 231.65 74.15
M 202 78.5
Q 202 78.9 202.1 79.2 202.2 79.5 202.4 79.8 202.6 80.15 202.9 80.3 203.2 80.45 203.65 80.45
L 206.8 80.45
Q 206.8 82.4 206.8 84.3 206.8 86.25 206.8 88.15 206.8 92 206.8 95.9 206.8 96.3 207 96.55 207.15 96.85 207.5 97.1 207.8 97.35 208.2 97.5 208.55 97.65 209 97.65 209.1 97.65 209.3 97.6 209.45 97.55 209.6 97.45 209.7 97.4 209.9 97.35 210.05 97.25 210.2 97.15 210.4 97.05 210.55 96.85 210.7 96.7 210.8 96.55 210.9 96.4 210.95 96.25 211 96.1 211 95.9
L 211 94.45
Q 211 91.8 211 89.25 211 86.65 211 84.15 210.95 81.65 210.95 79.1 210.95 76.55 210.95 73.95 210.95 73.3 210.3 72.8 210 72.55 209.7 72.45 209.4 72.3 209.15 72.3 208.7 72.3 208.4 72.4 208.05 72.5 207.95 72.75 207.75 72.95 207.65 73.2 207.55 73.5 207.45 73.75 207.3 74.05 207.2 74.35 207.1 74.65 207 75 206.9 75.3 206.8 75.55 206.65 75.8 206.5 75.95 206.25 76.15 205.95 76.3 205.6 76.45 205.3 76.5 204.9 76.55 204.55 76.6 204.15 76.6 203.8 76.6 203.35 76.65 203 76.8 202.7 76.95 202.5 77.2 202.2 77.5 202.1 77.8 202 78.15 202 78.5
M 166.7 22.8
Q 165.7 22.7 164.6 22.7 163.4 22.7 162.35 22.8 161.3 22.95 160.45 23.15 159.5 23.4 158.7 23.75 157.95 24.1 157.3 24.55 156.65 25.05 156.1 25.6 155.6 26.2 155.25 26.85 154.85 27.5 154.7 28.25 154.5 29 154.5 29.85 154.5 31.5 155.25 32.8 155.6 33.4 156.1 33.95 156.65 34.5 157.3 34.95 157.95 35.4 158.75 35.75 159.55 36.1 160.45 36.35 161.35 36.6 162.35 36.7 163.4 36.85 164.6 36.85 165.7 36.85 166.75 36.7 167.8 36.6 168.75 36.35 169.7 36.1 170.5 35.75 171.35 35.4 172 34.9 172.65 34.45 173.2 33.9 173.7 33.35 174.1 32.7 174.4 32.1 174.6 31.35 174.8 30.65 174.8 29.85 174.8 29 174.6 28.25 174.4 27.5 174.1 26.85 173.7 26.25 173.2 25.65 172.65 25.1 172 24.55 171.35 24.1 170.5 23.75 169.65 23.4 168.7 23.15 167.75 22.95 166.7 22.8
M 170.15 28.4
Q 170.6 29 170.6 29.85 170.6 30.65 170.15 31.25 169.75 31.85 168.95 32.25 168.15 32.7 167.05 32.9 166 33.1 164.65 33.1 161.9 33.1 160.3 32.25 159.5 31.85 159.1 31.25 158.7 30.65 158.7 29.85 158.7 29 159.1 28.4 159.5 27.75 160.3 27.3 161.1 26.85 162.2 26.65 163.25 26.4 164.65 26.4 166 26.4 167.05 26.65 168.15 26.85 168.95 27.3 169.75 27.75 170.15 28.4
M 164.7 15.55
Q 164.55 15 164.25 14.5 163.95 14 163.55 13.55 163.15 13.1 162.7 12.7 162.15 12.35 161.55 12.05 160.95 11.75 160.25 11.5 158.8 11.1 157.1 11.1 155.4 11.1 154.05 11.5 153.35 11.7 152.75 12 152.1 12.3 151.6 12.65 151.05 13.05 150.6 13.45 150.15 13.9 149.85 14.4 149.55 14.95 149.4 15.5 149.25 16.05 149.25 16.6 149.25 17.25 149.4 17.8 149.55 18.35 149.85 18.85 150.15 19.4 150.6 19.85 151.05 20.25 151.6 20.65 152.1 21 152.75 21.3 153.35 21.55 154.1 21.75 154.75 21.95 155.5 22.05 156.3 22.2 157.1 22.2 157.95 22.2 158.7 22.05 159.5 21.95 160.2 21.75 160.9 21.5 161.55 21.2 162.15 20.9 162.7 20.55 163.15 20.2 163.55 19.75 163.95 19.3 164.25 18.8 164.55 18.3 164.7 17.75 164.85 17.2 164.85 16.6 164.85 16.05 164.7 15.55
M 160.55 16.6
Q 160.55 17.1 160.3 17.45 160.1 17.85 159.6 18.1 158.6 18.75 157.1 18.75 156.35 18.75 155.7 18.6 155.1 18.45 154.55 18.15 154 17.85 153.75 17.45 153.45 17.1 153.45 16.6 153.45 16.15 153.75 15.8 154 15.4 154.55 15.1 155.1 14.8 155.7 14.65 156.35 14.5 157.1 14.5 157.85 14.5 158.45 14.65 159.1 14.8 159.6 15.1 160.05 15.4 160.3 15.8 160.55 16.15 160.55 16.6
M 166.35 7.75
Q 166.3 7.45 166.2 7.25 166.05 7.05 165.75 6.95 165.45 6.85 164.95 6.85
L 159.05 6.85 159.05 5.15
Q 159.05 4.7 158.85 4.4 158.75 4.05 158.45 3.9 158.15 3.75 157.85 3.7 157.55 3.6 157.25 3.6 156.75 3.6 156.4 3.65 156.05 3.75 155.8 3.85 155.5 4.05 155.35 4.35 155.2 4.65 155.2 5.15
L 155.2 6.85
Q 154.5 6.85 153.75 6.85 153.05 6.85 152.4 6.8 151 6.8 149.45 6.8 149.05 6.8 148.75 6.9 148.45 7 148.25 7.15 147.85 7.5 147.85 8.4 147.85 8.75 147.9 9.05 148 9.3 148.15 9.45 148.35 9.7 148.6 9.8 148.9 9.9 149.25 9.9 153.15 9.9 157.05 9.9 158.9 9.9 160.9 9.9 162.85 9.95 164.85 9.95
L 164.95 9.95
Q 165.95 9.95 166.2 9.5 166.3 9.3 166.35 9.05 166.4 8.8 166.4 8.45 166.4 8.05 166.35 7.75
M 174.9 5.8
Q 174.9 5.3 174.75 4.95 174.55 4.6 174.25 4.45 173.6 4.15 172.9 4.15 172.45 4.15 172.1 4.25 171.7 4.3 171.4 4.45 171 4.6 170.85 4.95 170.7 5.3 170.7 5.8
L 170.7 11.3 167.2 11.3
Q 166.7 11.3 166.4 11.4 166.1 11.5 165.95 11.7 165.8 11.9 165.7 12.2 165.65 12.5 165.65 12.85 165.65 13.25 165.7 13.5 165.8 13.8 165.95 13.95 166.2 14.4 167.2 14.4
L 170.7 14.4 170.7 16.95 167.2 16.95
Q 166.2 16.95 165.95 17.4 165.8 17.6 165.7 17.9 165.65 18.2 165.65 18.6 165.65 18.95 165.7 19.25 165.8 19.5 165.95 19.7 166.2 20.1 167.2 20.1
L 170.7 20.15 170.7 20.8
Q 170.7 21.3 170.85 21.6 171 21.9 171.4 22.05 171.7 22.2 172.1 22.25 172.45 22.35 172.9 22.35 173.6 22.35 174.25 22.05 174.55 21.9 174.75 21.6 174.9 21.3 174.9 20.8
L 174.9 5.8
M 202.35 6.15
Q 202.35 5.7 202.2 5.4 202.05 5.1 201.75 4.95 201.4 4.85 201.1 4.75 200.75 4.7 200.4 4.7 199.95 4.7 199.6 4.75 199.25 4.85 198.95 4.95 198.65 5.1 198.5 5.4 198.35 5.7 198.35 6.15
L 198.35 15.2 195.3 15.2
Q 195.25 14.5 195.15 13.85 195.1 13.2 195 12.6 194.7 11.6 194.35 10.8 194 9.95 193.55 9.25 193 8.6 192.4 8.05 191.8 7.55 191.15 7.15 190.45 6.8 189.7 6.6 188.95 6.45 188.15 6.45 187.3 6.45 186.55 6.6 185.8 6.8 185.15 7.15 184.45 7.55 183.9 8.05 183.4 8.6 182.95 9.25 182.5 9.95 182.1 10.8 181.75 11.6 181.45 12.6 181.15 13.6 181.05 14.7 180.9 15.85 180.9 17.05 180.9 18.35 181.05 19.45 181.15 20.55 181.45 21.5 181.75 22.5 182.1 23.35 182.5 24.15 182.95 24.85 183.4 25.5 183.9 26.05 184.45 26.55 185.15 26.9 185.8 27.25 186.55 27.45 187.3 27.65 188.15 27.65 188.95 27.65 189.7 27.45 190.45 27.25 191.15 26.9 191.8 26.55 192.4 26.05 193 25.5 193.55 24.85 194 24.15 194.35 23.35 194.7 22.5 195 21.5 195.1 20.9 195.15 20.25 195.25 19.6 195.3 18.9
L 198.35 18.9 198.35 34.35
Q 198.35 34.8 198.5 35.05 198.65 35.35 198.95 35.5 199.25 35.65 199.6 35.75 199.95 35.85 200.4 35.85 200.75 35.85 201.1 35.75 201.4 35.65 201.75 35.5 202.35 35.2 202.35 34.35
L 202.35 6.15
M 185.7 11.95
Q 186.1 11.05 186.75 10.55 187.35 10.1 188.15 10.1 188.95 10.1 189.55 10.55 190.2 11.05 190.7 11.95 191.15 12.9 191.4 14.15 191.65 15.45 191.65 17.05 191.65 18.7 191.4 20 191.15 21.25 190.7 22.2 190.2 23.15 189.55 23.55 188.95 24.05 188.15 24.05 187.35 24.05 186.75 23.55 186.1 23.15 185.7 22.2 185.25 21.25 185.05 20 184.8 18.7 184.8 17.05 184.8 15.45 185.05 14.15 185.25 12.9 185.7 11.95
M 208.15 4.35
Q 207.9 4.2 207.55 4.1 207.2 4.05 206.85 4.05 206.35 4.05 206 4.1 205.65 4.2 205.45 4.35 205.2 4.5 205.05 4.8 204.95 5.1 204.95 5.55
L 204.95 35.25
Q 204.95 35.7 205.05 36 205.2 36.3 205.45 36.45 205.65 36.6 206 36.65 206.35 36.75 206.85 36.75 207.2 36.75 207.55 36.65 207.9 36.6 208.15 36.45 208.4 36.3 208.6 36 208.7 35.7 208.75 35.25
L 208.75 5.55
Q 208.7 5.1 208.6 4.8 208.4 4.5 208.15 4.35
M 224.1 5.9
Q 223.75 5.9 223.35 6 223 6.1 222.65 6.25 222.3 6.45 222.1 6.7 221.9 7 221.9 7.35
L 221.9 11.55
Q 221.9 15.05 220.25 17.95 219.35 19.4 218.2 20.75 216.95 22.05 215.45 23.25 215.35 23.25 215.3 23.3 215.25 23.35 215.2 23.45 215.15 23.55 215.1 23.65 215.05 23.75 215.05 23.85 214.95 24 214.95 24.1 214.9 24.25 214.9 24.3 214.85 24.45 214.85 24.5 214.8 24.6 214.8 24.65 214.8 25.4 215.35 26 215.6 26.3 215.95 26.45 216.3 26.6 216.8 26.6 217 26.6 217.3 26.5 217.6 26.45 217.9 26.25
L 217.95 26.25 217.95 26.2
Q 218.8755859375 25.42578125 219.75 24.6 220.65 23.75 221.4 22.8 222.2 21.85 222.9 20.85 223.55 19.85 224.05 18.75 224.6 19.8 225.25 20.75 225.9 21.7 226.7 22.6 227.4 23.5 228.3 24.35 229.15 25.15 230.05 25.9 230.3 26.15 230.7 26.2 231.05 26.3 231.35 26.3 231.75 26.3 232.1 26.15 232.45 26 232.75 25.65 233 25.35 233.15 25 233.25 24.7 233.25 24.3 233.25 24.2 233.2 24.05 233.15 23.85 233.1 23.7 233 23.5 232.85 23.35 232.75 23.2 232.65 23.05 229.65 20.8 227.9 17.9 227 16.5 226.55 14.95 226.1 13.45 226.1 11.8
L 226.1 7.35
Q 226.1 7.05 226 6.75 225.85 6.5 225.65 6.3 225.35 6.1 225 6 224.6 5.9 224.1 5.9
M 236.95 4.6
Q 236.8 4.95 236.8 5.35
L 236.8 14.1 232.25 14.1
Q 231.8 14.1 231.45 14.25 231.15 14.4 230.9 14.65 230.65 14.95 230.55 15.3 230.45 15.65 230.45 16 230.45 16.4 230.55 16.75 230.65 17.05 230.9 17.3 231.15 17.55 231.45 17.7 231.8 17.8 232.25 17.8
L 236.8 17.8 236.8 35.3
Q 236.8 35.75 236.95 36.05 237.15 36.35 237.5 36.55 237.85 36.65 238.2 36.75 238.55 36.8 238.9 36.8 239.35 36.8 239.7 36.75 240.05 36.65 240.35 36.55 240.65 36.35 240.75 36.05 240.9 35.75 240.9 35.3
L 240.9 5.35
Q 240.9 4.95 240.75 4.6 240.65 4.3 240.35 4.15 240.05 4 239.7 3.95 239.35 3.85 238.9 3.85 238.55 3.85 238.2 3.95 237.85 4 237.5 4.15 237.15 4.3 236.95 4.6
M 253.1 95.45
Q 253 95.8 253 96.25
L 253 97.85
Q 253 98.35 253.1 98.65 253.25 99 253.45 99.15 253.65 99.25 254 99.35 254.35 99.4 254.9 99.4
L 255.6 99.4
Q 255.5 99.6 255.2 100.15 255 100.35 254.8 100.55 254.55 100.75 254.2 100.95 254.05 101.05 253.9 101.2 253.7 101.3 253.6 101.45 253.45 101.55 253.4 101.65 253.3 101.75 253.3 101.95 253.3 102.15 253.4 102.4 253.45 102.6 253.6 102.75 253.7 102.9 253.8 103.05 253.95 103.1 254.1 103.1 254.2 103.1 254.4 103.1 254.6 103.05 254.8 103 255.05 102.85 255.15 102.8 255.3 102.75 255.35 102.7 255.6 102.6 255.8 102.45 256.05 102.3 256.3 102.1 256.55 101.9 256.8 101.65 257 101.4 257.25 101.1 257.7 100.45 258 99.75 258.1 99.3 258.15 98.9 258.2 98.5 258.2 98.05
L 258.2 96.25
Q 258.2 95.8 258.05 95.45 257.95 95.15 257.65 94.9 257.35 94.65 257 94.55 256.65 94.45 256.25 94.45
L 254.9 94.45
Q 254.35 94.45 254 94.55 253.65 94.65 253.45 94.85 253.25 95.1 253.1 95.45
M 243.9 69.9
Q 243.4 69.9 243.1 69.95 242.7 70.05 242.45 70.2 242.2 70.35 242.05 70.65 241.9 70.95 241.9 71.4
L 241.9 81.85 239.2 81.85 239.2 72
Q 239.2 71.55 239.1 71.25 238.95 70.95 238.7 70.8 238.4 70.7 238 70.6 237.65 70.55 237.2 70.55 236.85 70.55 236.5 70.6 236.15 70.7 235.85 70.8 235.5 70.95 235.35 71.25 235.2 71.6 235.2 72
L 235.2 100.4
Q 235.2 100.85 235.35 101.15 235.5 101.45 235.85 101.6 236.15 101.75 236.5 101.8 236.85 101.9 237.2 101.9 237.65 101.9 238 101.8 238.4 101.75 238.7 101.6 238.95 101.45 239.1 101.15 239.2 100.85 239.2 100.4
L 239.2 85.6 241.9 85.6 241.9 101.35
Q 241.9 101.8 242.05 102.1 242.2 102.4 242.45 102.55 242.7 102.7 243.1 102.75 243.4 102.85 243.9 102.85 244.3 102.85 244.65 102.75 245 102.7 245.25 102.55 245.5 102.4 245.7 102.1 245.8 101.8 245.85 101.35
L 245.85 71.4
Q 245.8 70.95 245.7 70.65 245.5 70.35 245.25 70.2 245 70.05 244.65 69.95 244.3 69.9 243.9 69.9
M 274.15 10.1
Q 274.65 10.1 275 9.95 275.35 9.85 275.55 9.6 275.7 9.35 275.8 9.05 275.9 8.7 275.9 8.3 275.9 7.9 275.85 7.55 275.75 7.2 275.6 6.95 275.45 6.7 275.15 6.55 274.8 6.45 274.35 6.45
L 269.8 6.45 269.8 4.85
Q 269.8 4.65 269.75 4.45 269.7 4.3 269.65 4.15 269.55 4.05 269.4 3.95 269.3 3.85 269.15 3.75 268.75 3.65 268.4 3.55 268.2 3.5 268.05 3.5 267.9 3.45 267.7 3.45 267.3 3.45 266.95 3.55 266.8 3.6 266.65 3.65 266.5 3.7 266.3 3.75 266.1 3.85 265.95 3.95 265.8 4.05 265.7 4.15 265.55 4.3 265.5 4.45 265.45 4.65 265.45 4.85
L 265.45 6.45 261.05 6.45
Q 260.7 6.45 260.45 6.55 260.2 6.7 260 6.95 259.8 7.2 259.7 7.5 259.55 7.8 259.55 8.1 259.55 8.15 259.55 8.2
L 259.6 8.2
Q 259.6 8.25 259.6 8.3
L 259.6 8.35
Q 259.65 8.7 259.75 9 259.9 9.3 260.1 9.6 260.35 9.85 260.6 9.95 260.85 10.1 261.25 10.1
L 265.45 10.1
Q 265.35 10.8 265.25 11.35 265.15 11.95 265 12.5 264.8 13 264.55 13.5 264.25 14 263.95 14.4 263.7 14.85 263.3 15.3 262.9 15.75 262.45 16.1 261.95 16.5 261.4 16.8 260.85 17.15 260.25 17.45 259.85 17.7 259.65 18 259.45 18.3 259.45 18.65 259.45 19 259.6 19.35 259.75 19.75 260.05 20.05 260.3 20.4 260.6 20.6 260.95 20.8 261.25 20.8 261.6 20.8 261.85 20.7 262.15 20.65 262.4 20.55 263.25 20.1 264 19.55 264.75 19.05 265.45 18.35 266.05 17.75 266.65 17 267.3 16.3 267.85 15.45 268.75 16.9 269.95 17.9 271.1 18.9 272.8 19.85
L 273 19.95
Q 273.4 20.2 273.85 20.2 274.2 20.2 274.5 20 274.8 19.8 275.1 19.4 275.6 18.7 275.6 17.85 275.6 17.65 275.6 17.45 275.55 17.3 275.5 17.15 275.45 17 275.35 16.85 275.2 16.75 275 16.65 273.95 16.15 273.05 15.5 272.15 14.85 271.5 14.05 270.8 13.25 270.4 12.3 269.95 11.3 269.8 10.1
L 274.15 10.1
M 284.15 26.55
Q 284.25 26.2 284.25 25.8 284.25 24.9 283.85 24.3 283.6 24.05 283.35 23.9 283.05 23.75 282.7 23.75
L 265.85 23.75
Q 265.5 23.75 265.2 23.9 264.9 24.05 264.7 24.3 264.45 24.6 264.35 24.95 264.25 25.35 264.25 25.8 264.25 26.2 264.35 26.55 264.45 26.85 264.7 27.1 264.9 27.4 265.2 27.5 265.5 27.6 265.85 27.6
L 272.4 27.6
Q 272.25 28.2 272 28.7 271.75 29.2 271.4 29.6 271 30 270.55 30.4 270.1 30.75 269.65 31.05 269.05 31.35 268.55 31.6 268 31.85 267.45 32 266.95 32.2 266.4 32.35 265.85 32.55 265.3 32.65 264.55 32.8 264.2 33.15 263.85 33.45 263.85 34 263.85 34.4 264 34.75 264.15 35.05 264.5 35.35 264.8 35.6 265.1 35.75 265.4 35.85 265.7 35.85 265.9 35.85 266.05 35.85 266.2 35.85 266.3 35.85 267.45 35.4 268.55 35 269.7 34.55 270.7 34.1 271.75 33.65 272.65 33.1 273.5 32.55 274.25 31.9 274.9 32.6 275.8 33.2 276.65 33.8 277.75 34.25 278.8 34.7 280 35.05 281.15 35.45 282.4 35.8 282.5 35.8 282.55 35.8 282.6 35.85 282.7 35.85 282.75 35.85 282.8 35.85
L 282.85 35.85
Q 283.55 35.85 284.15 35.4 284.4 35.2 284.55 34.85 284.7 34.55 284.7 34.15 284.7 33.1 283.55 32.8 282.9 32.6 282.3 32.4 281.7 32.2 281.1 31.95 279.85 31.5 278.75 30.9 278.3 30.6 277.9 30.25 277.5 29.9 277.2 29.5 276.85 29.15 276.6 28.65 276.4 28.2 276.3 27.6
L 282.7 27.6
Q 283.05 27.6 283.35 27.5 283.6 27.4 283.85 27.1 284.05 26.85 284.15 26.55
M 288.75 12
Q 288.7 11.65 288.6 11.4 288.45 11.15 288.15 11.05 287.8 10.9 287.3 10.9
L 283.95 10.9 283.95 5.35
Q 283.95 4.9 283.8 4.6 283.65 4.3 283.4 4.15 283.05 4 282.7 3.95 282.35 3.85 281.95 3.85 281.55 3.85 281.2 3.95 280.85 4 280.55 4.15 280.15 4.3 280 4.6 279.8 4.9 279.8 5.35
L 279.8 19.65
Q 279.8 20.1 279.95 20.4 280.05 20.75 280.3 20.95 280.6 21.2 280.85 21.3 281.15 21.4 281.5 21.4 281.65 21.4 281.9 21.4 282.1 21.4 282.35 21.35 282.55 21.35 282.75 21.25 282.9 21.2 283.05 21.1 283.2 21 283.35 20.85 283.5 20.7 283.65 20.5 283.8 20.35 283.9 20.15 283.95 19.9 283.95 19.65
L 283.95 14.55 287.3 14.55
Q 287.8 14.55 288.15 14.4 288.45 14.3 288.6 14 288.8 13.45 288.8 12.75 288.8 12.35 288.75 12
M 321.4 17.75
Q 321.1 17.6 320.55 17.6
L 292.25 17.6
Q 291.75 17.6 291.45 17.75 291.15 17.85 291.05 18.1 290.95 18.35 290.9 18.7 290.8 19.05 290.8 19.4 290.8 19.8 290.9 20.05 290.95 20.4 291.05 20.6 291.15 20.85 291.45 21 291.75 21.1 292.25 21.1
L 320.55 21.1
Q 321.1 21.1 321.4 21 321.65 20.85 321.75 20.6 321.8 20.4 321.85 20.05 321.9 19.8 321.9 19.4 321.9 19.05 321.85 18.7 321.8 18.35 321.75 18.1 321.65 17.85 321.4 17.75
M 313.85 23.25
Q 313.1 23.15 312.6 23.15
L 298.25 23.15
Q 297.8 23.15 297.5 23.25 297.25 23.4 297.1 23.6 296.9 23.9 296.8 24.2 296.7 24.5 296.75 24.85 296.7 25.25 296.8 25.5 296.9 25.8 297.1 26 297.4 26.4 298.25 26.4
L 311.7 26.4
Q 311.75 26.55 311.75 26.7 311.8 26.85 311.8 27.1
L 311.8 27.4
Q 311.8 27.65 311.75 27.8 311.75 28 311.7 28.05
L 300.15 28.05
Q 299.85 28.05 299.55 28.1 299.25 28.1 299 28.15 298.65 28.25 298.4 28.35 298.1 28.45 297.9 28.6 297.6 28.75 297.35 28.95 297.2 29.15 297.1 29.4 296.95 29.7 296.9 30 296.85 30.25 296.85 30.6
L 296.85 34.3
Q 296.85 34.65 296.9 34.9 296.95 35.2 297.1 35.4 297.2 35.6 297.35 35.8 297.6 35.95 297.9 36.1 298.1 36.2 298.4 36.25 298.65 36.35 299 36.4 299.25 36.45 299.55 36.5 299.85 36.5 300.15 36.5
L 314.8 36.5
Q 315.55 36.5 315.95 36.1 316.3 35.7 316.3 34.9 316.3 34.05 315.95 33.6 315.55 33.2 314.8 33.2
L 301.1 33.2
Q 301 33.05 300.95 32.85 300.95 32.7 300.95 32.5
L 300.95 32.05
Q 300.95 31.85 300.95 31.65 301 31.45 301.1 31.25
L 312.95 31.25
Q 313.55 31.25 314.1 31.15 314.65 31.1 315.1 30.85 315.55 30.7 315.8 30.3 316 29.9 316 29.25
L 316 25.6
Q 316 25.2 315.95 24.9 315.85 24.6 315.75 24.35 315.4 23.95 314.9 23.6 314.7 23.5 314.45 23.4 314.15 23.3 313.85 23.25
M 315.05 6.5
Q 314.55 6.05 313.95 5.7 313.25 5.35 312.45 5.1 311.65 4.85 310.7 4.6 309.75 4.45 308.65 4.35 307.5 4.25 306.35 4.25 305.2 4.25 304.15 4.35 303.1 4.45 302.15 4.6 301.15 4.85 300.35 5.1 299.5 5.35 298.85 5.7 298.15 6.05 297.65 6.5 297.15 6.95 296.8 7.45 296.05 8.55 296.05 9.9 296.05 10.6 296.25 11.2 296.45 11.8 296.8 12.3 297.15 12.8 297.7 13.25 298.25 13.7 298.9 14 299.6 14.4 300.45 14.65 301.25 14.95 302.25 15.1 303.25 15.3 304.3 15.45 305.35 15.55 306.45 15.6 307.6 15.55 308.7 15.4 309.75 15.3 310.75 15.1 311.7 14.9 312.5 14.6 313.3 14.35 314 14 314.55 13.65 315.05 13.2 315.55 12.8 315.9 12.3 316.25 11.8 316.45 11.2 316.6 10.6 316.6 9.9 316.6 9.2 316.45 8.6 316.25 8 315.9 7.45 315.55 6.95 315.05 6.5
M 306.35 11.8
Q 305 11.8 303.9 11.7 302.8 11.55 302 11.3 301.1 11.05 300.7 10.7 300.25 10.35 300.25 9.9 300.25 9.4 300.7 9.1 301.1 8.7 302 8.45 302.8 8.25 303.9 8.1 305 7.95 306.35 7.95 307.75 7.95 308.85 8.1 310 8.25 310.85 8.45 311.7 8.7 312.1 9.1 312.5 9.4 312.5 9.9 312.5 10.35 312.1 10.7 311.7 11.05 310.85 11.3 310 11.55 308.85 11.7 307.75 11.8 306.35 11.8
M 392.6 74.15
Q 392.4 73.9 392.2 73.7 392 73.5 391.8 73.3 391.35 73 390.85 72.8 390.55 72.75 390.25 72.65 389.95 72.6 389.7 72.6
L 382.3 72.6
Q 381.9 72.6 381.6 72.8 381.25 72.95 381.1 73.25 380.85 73.6 380.75 73.9 380.65 74.25 380.65 74.55 380.65 74.95 380.75 75.25 380.9 75.55 381.1 75.8 381.35 76.05 381.65 76.2 381.95 76.3 382.3 76.3
L 388.95 76.3 388.95 76.7
Q 388.95 77.6 388.8 78.55 388.6 79.5 388.25 80.45 387.5 82.45 386.5 84.25 385.95 85.15 385.35 85.95 384.75 86.75 384.05 87.45 383.35 88.2 382.65 88.7 381.95 89.25 381.3 89.6 381 89.7 380.8 89.8 380.6 89.95 380.55 90.1 380.45 90.35 380.4 90.55 380.35 90.75 380.35 91 380.35 91.25 380.4 91.5 380.45 91.8 380.55 92 380.7 92.3 380.9 92.5 381.1 92.7 381.35 92.8 381.5 92.95 381.75 93 382 93.1 382.3 93.05 382.35 93.05 382.4 93.05 382.5 93.05 382.6 93.05 382.65 93.05 382.75 93 382.85 93 383 92.95 383.05 92.95 383.1 92.95 383.15 92.9 383.25 92.85 383.3 92.85 383.35 92.8 383.4 92.75 383.4 92.7
L 383.45 92.7
Q 384.45 92.15 385.35 91.45 386.3 90.7 387.2 89.8 388 88.85 388.75 87.8 389.5 86.75 390.2 85.6 390.8 84.45 391.3 83.2 391.85 81.95 392.2 80.6 392.6 79.3 392.75 77.95 392.95 76.6 392.95 75.3 392.95 75 392.85 74.7 392.75 74.4 392.6 74.15
M 363.05 77.8
Q 362.95 78.15 362.95 78.5 362.95 78.9 363.05 79.2 363.15 79.5 363.35 79.8 363.55 80.15 363.85 80.3 364.15 80.45 364.6 80.45
L 367.75 80.45
Q 367.75 82.4 367.75 84.3 367.75 86.25 367.75 88.15 367.75 92 367.75 95.9 367.75 96.3 367.95 96.55 368.1 96.85 368.45 97.1 368.75 97.35 369.15 97.5 369.5 97.65 369.95 97.65 370.05 97.65 370.25 97.6 370.4 97.55 370.55 97.45 370.65 97.4 370.85 97.35 371 97.25 371.15 97.15 371.35 97.05 371.5 96.85 371.65 96.7 371.75 96.55 371.85 96.4 371.9 96.25 371.95 96.1 371.95 95.9
L 371.95 94.45
Q 371.95 91.8 371.95 89.25 371.95 86.65 371.95 84.15 371.9 81.65 371.9 79.1 371.9 76.55 371.9 73.95 371.9 73.3 371.25 72.8 370.95 72.55 370.65 72.45 370.35 72.3 370.1 72.3 369.65 72.3 369.35 72.4 369 72.5 368.9 72.75 368.7 72.95 368.6 73.2 368.5 73.5 368.4 73.75 368.25 74.05 368.15 74.35 368.05 74.65 367.95 75 367.85 75.3 367.75 75.55 367.6 75.8 367.45 75.95 367.2 76.15 366.9 76.3 366.55 76.45 366.25 76.5 365.85 76.55 365.5 76.6 365.1 76.6 364.75 76.6 364.3 76.65 363.95 76.8 363.65 76.95 363.45 77.2 363.15 77.5 363.05 77.8
M 355.5 11.45
Q 354.95 11.1 354.45 10.6 354 10.1 353.65 9.55 353.3 9 353.05 8.35 352.8 7.65 352.75 6.85
L 352.75 5.35
Q 352.75 5.05 352.55 4.75 352.4 4.6 352.25 4.5 352.1 4.4 351.9 4.3 351.7 4.2 351.55 4.15 351.4 4.05 351.25 4 351.05 4 350.85 3.95 350.7 3.95 350.5 3.95 350.3 3.95 350.15 3.95 350 4 349.85 4 349.65 4.05 349.5 4.15 349.3 4.2 349.05 4.3 348.9 4.4 348.75 4.5 348.65 4.6 348.55 4.75 348.45 4.9 348.4 5.05 348.35 5.2 348.35 5.35
L 348.35 6.85
Q 348.25 7.65 348 8.3 347.7 9 347.35 9.55 346.95 10.1 346.45 10.6 345.95 11.1 345.4 11.55 344.75 12 344.1 12.4 343.45 12.75 342.7 13.05 341.95 13.35 341.25 13.7 340.5 14 339.8 14.3 339.35 14.5 339.15 14.8 338.9 15.1 338.9 15.5 338.9 15.95 339.05 16.35 339.2 16.7 339.5 17.05 339.75 17.35 340.1 17.55 340.45 17.7 340.9 17.7 341.1 17.7 341.2 17.7 341.35 17.65 341.45 17.55 342.85 17.05 344.15 16.45 345.5 15.8 346.7 15.1 347.9 14.35 348.85 13.5 349.8 12.7 350.5 11.8 351.15 12.8 352 13.65 352.9 14.45 354 15.15 355.1 15.85 356.4 16.45 357.7 17.1 359.2 17.6
L 359.2 17.5
Q 359.35 17.55 359.5 17.6 359.7 17.65 359.9 17.65 360.2 17.65 360.5 17.45 360.8 17.3 361.1 17 361.4 16.7 361.5 16.3 361.65 15.95 361.65 15.5 361.65 15.3 361.6 15.15 361.6 14.95 361.55 14.75 361.45 14.6 361.3 14.45 361.15 14.35 360.95 14.25 360.1 13.9 359.35 13.6 358.6 13.25 357.95 12.95 356.55 12.35 355.5 11.45
M 366.05 24.1
Q 366.05 23.7 365.95 23.3 365.85 22.95 365.6 22.65 365.4 22.4 365.05 22.25 364.75 22.1 364.35 22.1
L 336.75 22.1
Q 336.25 22.1 335.95 22.25 335.6 22.4 335.4 22.65 335 23.25 335 23.95 335 24.35 335.1 24.65 335.2 25 335.4 25.25 335.6 25.5 335.95 25.65 336.25 25.8 336.75 25.8
L 348.35 25.8 348.35 35.6
Q 348.35 36.05 348.5 36.4 348.65 36.75 349.05 37 349.35 37.2 349.7 37.3 350.05 37.45 350.4 37.45 350.8 37.45 351.2 37.3 351.55 37.2 351.9 37 352.2 36.75 352.4 36.4 352.55 36.05 352.6 35.6
L 352.6 25.8 364.35 25.8
Q 365.15 25.8 365.6 25.25 366.05 24.8 366.05 24.1
M 389.7 23.45
Q 389.55 23.8 389.55 24.2
L 389.55 25.75
Q 389.55 26.8 389.25 27.75 388.95 28.7 388.4 29.5 387.85 30.35 387.15 31.05 386.5 31.7 385.7 32.25 385.1 32.65 384.85 33.1 384.55 33.55 384.55 34.15 384.55 34.5 384.7 34.8 384.8 35.1 385.05 35.35 385.3 35.55 385.6 35.65 385.9 35.8 386.2 35.85 386.55 35.85 386.95 35.7 387.3 35.55 387.7 35.3 388.1 35 388.55 34.7 388.95 34.35 389.35 34 389.65 33.65 390 33.3 390.3 32.9 390.6 32.55 390.9 32.15 391.1 31.9 391.3 31.6 391.4 31.4 391.45 31.4 391.5 31.45
L 391.55 31.5
Q 391.6 31.6 391.65 31.65 391.65 31.7 391.7 31.75 392.15 32.15 392.55 32.35 392.7 32.5 392.95 32.55 393.15 32.6 393.45 32.65 393.8 32.6 394.1 32.5 394.4 32.35 394.75 32.1 395 31.85 395.15 31.55 395.35 31.25 395.35 30.9 395.35 30.65 395.2 30.45 395.1 30.15 394.95 29.9 394.75 29.7 394.5 29.45 394.3 29.2 394.15 28.9 394 28.7 393.85 28.4 393.75 28.1 393.6 27.65 393.45 27.25 393.35 26.85 393.3 26.45 393.3 26.05
L 393.3 24.3
Q 393.3 23.85 393.15 23.55 393.05 23.2 392.8 23 392.55 22.75 392.2 22.65 391.8 22.55 391.35 22.55 391.05 22.55 390.75 22.65 390.4 22.75 390.15 22.95 389.8 23.15 389.7 23.45
M 396.1 8.5
Q 395.7 7.9 395.25 7.35 394.7 6.9 394.05 6.5 393.4 6.15 392.65 5.85 391.9 5.6 391.05 5.45 390.2 5.35 389.25 5.35 388.25 5.35 387.4 5.45 386.5 5.6 385.75 5.85 385 6.15 384.35 6.5 383.75 6.9 383.3 7.35 382.75 7.9 382.3 8.5 381.9 9.1 381.6 9.85 381.3 10.55 381.15 11.35 381 12.2 381 13.1 381 13.95 381.15 14.8 381.3 15.6 381.6 16.3 382.2 17.75 383.3 18.7 383.75 19.25 384.35 19.65 385 20 385.75 20.25 386.5 20.5 387.4 20.65 388.25 20.8 389.25 20.8 390.2 20.8 391.05 20.65 391.9 20.5 392.65 20.25 393.4 20 394.05 19.65 394.7 19.25 395.25 18.7 395.7 18.25 396.1 17.65 396.45 17.05 396.8 16.3 397.05 15.6 397.2 14.8 397.35 13.95 397.35 13.1 397.35 12.2 397.2 11.35 397.05 10.55 396.8 9.85 396.45 9.1 396.1 8.5
M 385.15 11.35
Q 385.45 10.6 386 10.05 386.55 9.55 387.4 9.3 388.2 9 389.3 9 391.2 9 392.45 10.05 393.05 10.6 393.35 11.35 393.65 12.1 393.65 13.1 393.65 14 393.35 14.75 393.05 15.5 392.45 16 391.8 16.55 391.05 16.85 390.25 17.1 389.3 17.1 388.2 17.1 387.4 16.85 386.55 16.55 386 16 385.45 15.5 385.15 14.75 384.9 14 384.9 13.1 384.9 12.1 385.15 11.35
M 406.8 71.4
Q 406.75 70.95 406.65 70.65 406.45 70.35 406.2 70.2 405.95 70.05 405.6 69.95 405.25 69.9 404.85 69.9 404.35 69.9 404.05 69.95 403.65 70.05 403.4 70.2 403.15 70.35 403 70.65 402.85 70.95 402.85 71.4
L 402.85 81.85 400.15 81.85 400.15 72
Q 400.15 71.55 400.05 71.25 399.9 70.95 399.65 70.8 399.35 70.7 398.95 70.6 398.6 70.55 398.15 70.55 397.8 70.55 397.45 70.6 397.1 70.7 396.8 70.8 396.45 70.95 396.3 71.25 396.15 71.6 396.15 72
L 396.15 100.4
Q 396.15 100.85 396.3 101.15 396.45 101.45 396.8 101.6 397.1 101.75 397.45 101.8 397.8 101.9 398.15 101.9 398.6 101.9 398.95 101.8 399.35 101.75 399.65 101.6 399.9 101.45 400.05 101.15 400.15 100.85 400.15 100.4
L 400.15 85.6 402.85 85.6 402.85 101.35
Q 402.85 101.8 403 102.1 403.15 102.4 403.4 102.55 403.65 102.7 404.05 102.75 404.35 102.85 404.85 102.85 405.25 102.85 405.6 102.75 405.95 102.7 406.2 102.55 406.45 102.4 406.65 102.1 406.75 101.8 406.8 101.35
L 406.8 71.4
M 436.7 74.2
Q 436.6 73.95 436.45 73.7 436.25 73.45 436.05 73.2 435.8 73 435.55 72.85 435.3 72.7 435.05 72.55 434.8 72.45 434.5 72.4 434.15 72.3 433.85 72.3
L 418.6 72.3
Q 418.15 72.3 417.8 72.45 417.45 72.55 417.2 72.85 416.95 73.15 416.8 73.45 416.7 73.8 416.7 74.15 416.7 74.9 417.2 75.45 417.45 75.7 417.8 75.8 418.15 75.95 418.6 75.95
L 432.55 75.95
Q 432.65 76.3 432.7 76.65 432.75 77 432.75 77.35
L 432.75 77.9
Q 432.75 78.3 432.7 78.6 432.65 79 432.55 79.3
L 420 79.3
Q 419.35 79.3 418.8 79.55 418.25 79.75 417.75 80.15 417.25 80.55 417.05 81.1 416.8 81.65 416.8 82.35
L 416.8 87.05
Q 416.8 87.7 417.05 88.2 417.25 88.7 417.8 89.1 418.3 89.5 418.8 89.7 419.35 89.9 420 89.9
L 425 89.9
Q 424.9 90.05 424.85 90.3 424.85 90.5 424.85 90.7
L 424.85 94.25 413.3 94.25
Q 412.85 94.25 412.55 94.4 412.3 94.5 412.1 94.75 411.95 95 411.85 95.35 411.8 95.7 411.8 96.1 411.8 96.45 411.85 96.75 411.95 97.1 412.1 97.35 412.3 97.65 412.55 97.75 412.85 97.9 413.3 97.9
L 440.9 97.9
Q 441.2 97.9 441.5 97.75 441.8 97.65 442 97.35 442.45 96.8 442.45 96.1 442.45 95.7 442.35 95.35 442.25 95 442 94.75 441.8 94.5 441.5 94.4 441.2 94.25 440.9 94.25
L 429.25 94.25 429.25 90.7
Q 429.25 90.2 429.05 89.9
L 435.7 89.9
Q 436.15 89.9 436.5 89.8 436.85 89.7 437.15 89.45 437.35 89.25 437.5 88.95 437.6 88.65 437.6 88.25 437.6 87.85 437.5 87.5 437.35 87.15 437.15 86.9 436.85 86.65 436.5 86.55 436.15 86.4 435.7 86.4
L 421.05 86.4
Q 421 86.3 421 86.1 420.95 85.95 420.95 85.75 420.95 85.6 420.95 85.4 420.9 85.2 420.9 85
L 420.9 84.3
Q 420.9 84.15 420.95 83.95 420.95 83.75 420.95 83.55 420.95 83.4 421 83.2 421 83.05 421.05 82.85
L 433.85 82.85
Q 434.5 82.85 435.05 82.65 435.6 82.45 436.05 82.05 436.45 81.7 436.65 81.15 436.85 80.6 436.9 79.95
L 436.9 75.45
Q 436.9 74.8 436.7 74.2
M 405.9 30.85
Q 405.6 30.6 405.25 30.25 404.95 29.95 404.7 29.55 404.2 28.75 403.9 27.8 403.6 26.8 403.5 25.7
L 403.5 24.2
Q 403.5 23.8 403.4 23.5 403.3 23.25 403.1 23.05 402.85 22.85 402.55 22.75 402.2 22.65 401.8 22.65 401.45 22.65 401.15 22.7 400.9 22.75 400.7 22.85 400.2 23.15 400.05 23.6 400 23.9 399.95 24.2 399.9 24.5 399.85 24.85 399.8 25.2 399.8 25.55 399.75 25.9 399.7 26.25 399.6 26.65 399.5 27.05 399.4 27.45 399.25 27.85 399.05 28.25 398.85 28.7 398.6 29.1 398.35 29.55 398 30 397.65 30.35 397.35 30.7 397.05 30.95 396.75 31.3 396.4 31.55 396.05 31.85 395.6 32.15 395.45 32.3 395.3 32.45 395.15 32.55 395.05 32.6 394.9 32.7 394.75 32.8 394.65 32.85 394.55 32.95 394.45 33 394.4 33.1 394.3 33.2 394.25 33.35 394.2 33.45 394.15 33.6 394.15 33.75 394.15 34 394.15 34.35 394.3 34.65 394.45 34.95 394.75 35.15 395.4 35.6 395.7 35.6 396.1 35.6 396.5 35.45 396.9 35.35 397.3 35.15 397.7 34.9 398.05 34.6 398.4 34.3 398.8 34 399.2 33.65 399.6 33.25 400 32.9 400.35 32.5 400.7 32.15 401 31.8 401.25 31.4 401.5 31.05 401.65 31.6 402.3 32.4 402.65 32.8 403.05 33.2 403.45 33.6 403.9 34 404.25 34.35 404.65 34.7 405.05 35.05 405.5 35.35 405.85 35.6 406.2 35.75 406.55 35.9 406.85 35.9 407.35 35.9 408 35.4 408.3 35.1 408.45 34.8 408.6 34.45 408.6 34.05 408.6 33.8 408.5 33.55 408.35 33.3 408.15 33.05 407.85 32.85 407.65 32.55 407.4 32.3 407.15 32 406.85 31.75 406.55 31.45 406.25 31.2 405.9 30.85
M 422.35 26.05
Q 422.2 25.95 422 25.8 421.85 25.75 421.65 25.7 421.5 25.6 421.35 25.55 421.2 25.5 421 25.5 420.8 25.45 420.6 25.45 420.25 25.45 419.95 25.55 419.65 25.65 419.35 25.85 418.95 26.05 418.8 26.35 418.65 26.65 418.65 27
L 418.65 33.2
Q 418.65 33.85 418.8 34.35 419 34.85 419.4 35.25 419.8 35.6 420.3 35.8 420.85 35.95 421.55 35.95
L 436.55 35.95
Q 436.95 35.95 437.3 35.85 437.6 35.7 437.75 35.45 437.9 35.2 438 34.85 438.05 34.55 438.05 34.15 438.05 33.8 438 33.45 437.9 33.15 437.75 32.85 437.6 32.55 437.3 32.4 436.95 32.25 436.55 32.25
L 424.5 32.25
Q 424.3 32.25 424.1 32.25 423.9 32.25 423.65 32.2 423.4 32.2 423.2 32.15 423 32.15 422.85 32.1
L 422.85 27
Q 422.85 26.8 422.8 26.65 422.75 26.45 422.6 26.3 422.5 26.15 422.35 26.05
M 405.5 4.2
Q 405.3 4.2 405.05 4.2 404.85 4.15 404.6 4.15 404.25 4.15 403.95 4.25 403.6 4.3 403.35 4.4 403 4.55 402.85 4.85 402.7 5.15 402.7 5.65
L 402.7 19.8
Q 402.7 20.7 403.35 20.95 403.6 21.1 403.95 21.2 404.25 21.25 404.6 21.25 404.85 21.25 405.05 21.25 405.3 21.25 405.5 21.2 405.65 21.2 405.8 21.15 405.95 21.05 406.1 20.9 406.25 20.85 406.4 20.75 406.55 20.65 406.65 20.5 406.75 20.35 406.85 20.2 406.9 20 406.9 19.8
L 406.9 5.65
Q 406.9 5.4 406.85 5.2 406.75 5 406.65 4.85 406.55 4.7 406.4 4.6 406.25 4.5 406.1 4.4 405.8 4.3 405.5 4.2
M 442 22.35
Q 442.45 22.35 442.75 22.2 443.05 22.1 443.2 21.85 443.3 21.6 443.4 21.35 443.45 21.05 443.45 20.65 443.45 20.25 443.4 19.95 443.3 19.6 443.2 19.3 443.05 19.05 442.75 18.9 442.45 18.75 442 18.75
L 413.95 18.75
Q 413.4 18.75 413.1 18.9 412.75 19.05 412.65 19.3 412.5 19.6 412.45 19.95 412.35 20.25 412.35 20.65 412.35 21.05 412.45 21.35 412.5 21.6 412.65 21.85 412.75 22.1 413.1 22.2 413.4 22.35 413.95 22.35
L 442 22.35
M 437.55 11.45
Q 437.2 11.35 436.75 11.35 435.15 11.35 433.6 11.3 432 11.3 430.45 11.3 428.9 11.3 427.3 11.3 425.7 11.3 424.15 11.3 422.95 11.3 422.15 11.1
L 422.15 6.35
Q 422.15 5.9 421.9 5.6 421.8 5.45 421.7 5.3 421.6 5.2 421.5 5.15 421.35 5 421.15 4.9 420.95 4.8 420.75 4.75 420.55 4.7 420.35 4.65 420.2 4.65 420.1 4.65 419.75 4.65 419.4 4.75 419.05 4.85 418.75 5.05 418.45 5.25 418.25 5.6 418.1 5.9 418.1 6.35
L 418.1 11.15
Q 418.1 12.15 418.35 12.85 418.6 13.6 419.15 14 419.6 14.45 420.3 14.65 421.05 14.85 422.05 14.85 423.9 14.85 425.8 14.85 427.65 14.85 429.5 14.85 431.35 14.9 433.15 14.9 434.95 14.9 436.75 14.9 437.2 14.9 437.55 14.75 437.85 14.65 438.1 14.4 438.25 14.15 438.35 13.8 438.45 13.45 438.45 13.05 438.45 12.75 438.35 12.45 438.25 12.15 438.1 11.85 437.85 11.6 437.55 11.45
M 469.95 22.6
Q 469.05 22.85 468.25 23.25 467.45 23.6 466.85 24.1 466.15 24.6 465.65 25.15 465.15 25.7 464.8 26.4 464.1 27.8 464.1 29.55 464.1 30.45 464.25 31.2 464.45 32 464.8 32.65 465.15 33.3 465.7 33.9 466.2 34.45 466.9 34.9 467.55 35.4 468.3 35.75 469.1 36.1 470.05 36.35 470.9 36.6 471.95 36.7 473 36.85 474.2 36.85 475.25 36.85 476.3 36.7 477.3 36.6 478.3 36.35 480.2 35.85 481.55 34.9 482.2 34.4 482.7 33.85 483.25 33.25 483.6 32.6 484.35 31.25 484.35 29.55 484.35 28.7 484.15 27.9 484 27.15 483.65 26.4 483.25 25.75 482.75 25.15 482.25 24.6 481.6 24.1 480.95 23.6 480.1 23.25 479.3 22.85 478.35 22.6 477.4 22.35 476.35 22.25 475.3 22.1 474.2 22.1 473 22.1 471.9 22.25 470.85 22.35 469.95 22.6
M 476.65 26.1
Q 477.75 26.3 478.55 26.8 480.15 27.75 480.15 29.55 480.15 30.4 479.7 31.05 479.3 31.7 478.5 32.15 477.65 32.65 476.6 32.85 475.55 33.1 474.25 33.1 472.85 33.1 471.75 32.85 470.7 32.65 469.9 32.15 469.05 31.7 468.7 31 468.25 30.35 468.3 29.55 468.25 28.65 468.7 27.95 469.05 27.25 469.9 26.8 470.7 26.3 471.75 26.1 472.85 25.85 474.25 25.85 475.6 25.85 476.65 26.1
M 468.3 11.3
Q 468.25 11.7 468.25 12.1 468.25 12.5 468.25 12.8 468.2 13.15 468.2 13.45 468.15 13.8 468.15 14.1 468.1 14.45 468.1 14.75 468.05 15.1 468.05 15.4 468 15.75 468 16.15 468 16.5 468 16.9 467.65 16.95 467.35 17 467.1 17 466.95 17 466.75 17.05 466.55 17.05 466.4 17.05 466.2 17.05 466.05 17.05 465.95 17.05 465.85 17.1 465.75 17.05 465.65 17.1 465.5 17.1 465.4 17.1 465.2 17.1 465.2 16.65 465.2 16.2 465.15 15.8 465.15 15.45 465.15 15.15 465.1 14.8 465.1 14.5 465.1 14.15 465.05 13.9 465 13.55 464.95 13.25 464.95 12.9 464.9 12.6 464.85 12.15 464.8 11.75 464.8 11.25 464.8 10.9 464.65 10.6 464.5 10.35 464.25 10.15 463.95 10.05 463.6 9.95 463.3 9.9 462.9 9.9 462.6 9.9 462.3 9.95 462 10.05 461.7 10.15 461.05 10.5 461.05 11.35 461.05 11.75 461.1 12.1 461.1 12.5 461.15 12.85 461.15 13.2 461.15 13.55 461.15 13.9 461.2 14.2 461.2 14.55 461.25 14.9 461.25 15.25 461.3 15.6 461.3 15.95 461.3 16.35 461.3 16.7 461.35 17.1 460.85 17.1 460.45 17.1 460.05 17.1 459.65 17.05 459.2 17.05 458.85 17.05 458.45 17.05 458.15 17.05 457.7 17.25 457.45 17.45 457.25 17.65 457.15 17.9 457.1 18.15 457.05 18.4 457.05 18.65 457.05 18.9 457.05 19.45 457.25 19.95 457.35 20.25 457.6 20.45 457.85 20.65 458.25 20.75 459.8 20.75 461.1 20.75 462.4 20.75 463.5 20.7 465.65 20.7 467.2 20.6 468 20.6 468.65 20.55 469.35 20.5 469.9 20.45 470.5 20.45 470.95 20.4 471.45 20.35 471.85 20.3 472.8 20.25 473.55 20.1 473.85 20.05 474.2 19.95 474.55 19.9 474.95 19.85 475.35 19.85 475.6 19.75 475.9 19.6 476 19.4 476.1 19.15 476.2 18.9 476.25 18.65 476.25 18.35 476.25 18.3 476.25 18.2 476.25 18.15 476.25 18 476.25 17.9 476.2 17.85 476.2 17.75 476.2 17.65 476.15 17.35 476.05 17.1 475.95 16.8 475.85 16.6 475.7 16.4 475.45 16.25 475.2 16.15 474.85 16.15 474.55 16.15 474.25 16.2 473.9 16.25 473.55 16.35 473.15 16.45 472.7 16.5 472.25 16.6 471.7 16.6 471.75 16 471.8 15.35 471.8 14.65 471.85 14 471.9 13.35 471.95 12.65 471.95 12 472.05 11.35 472.05 11.1 471.95 10.95 471.9 10.75 471.85 10.6 471.75 10.45 471.65 10.35 471.55 10.25 471.45 10.15 471.3 10.1 471.1 10.05 470.95 10 470.75 9.95 470.55 9.95 470.4 9.9 470.25 9.9 470.1 9.9 469.8 9.9 469.5 9.95 469.2 10.05 468.9 10.15 468.3 10.45 468.3 11.3
M 474.5 5.8
Q 474.4 5.55 474.1 5.4 473.8 5.25 473.25 5.25
L 459.55 5.25
Q 458.7 5.25 458.4 5.8 458.2 6.05 458.1 6.4 458 6.75 458 7.15 458 7.5 458.1 7.8 458.2 8.1 458.4 8.4 458.55 8.65 458.85 8.8 459.15 8.95 459.55 8.95
L 473.25 8.95
Q 473.8 8.95 474.1 8.8 474.4 8.65 474.5 8.4 474.7 7.85 474.7 7.15 474.7 6.75 474.65 6.4 474.6 6.05 474.5 5.8
M 481.8 4.35
Q 481.45 4.4 481.1 4.55 480.8 4.75 480.65 5.05 480.5 5.35 480.5 5.75
L 480.5 7.4 477.25 7.4
Q 476.7 7.4 476.4 7.5 476.1 7.65 476 7.85 475.9 8.05 475.85 8.35 475.8 8.65 475.8 9 475.8 9.4 475.85 9.7 475.9 9.95 476 10.15 476.1 10.35 476.4 10.45 476.7 10.55 477.25 10.55
L 480.5 10.55 480.5 13 477.25 13
Q 476.7 13 476.4 13.1 476.1 13.2 476 13.45 475.8 13.9 475.8 14.6 475.8 15.35 476 15.75 476.1 15.95 476.4 16.05 476.7 16.1 477.25 16.1
L 480.5 16.1 480.5 20.8
Q 480.5 21.25 480.65 21.55 480.8 21.85 481.1 21.95 481.45 22.1 481.8 22.2 482.2 22.3 482.6 22.3 483.3 22.3 484 21.95 484.3 21.85 484.5 21.55 484.65 21.25 484.65 20.8
L 484.65 5.75
Q 484.65 5.35 484.5 5.05 484.3 4.75 484 4.55 483.3 4.25 482.6 4.25 482.2 4.25 481.8 4.35
M 547.7 73.25
Q 547.5 73 547.2 72.8 546.75 72.55 546.35 72.45 545.95 72.4 545.55 72.5 545.1 72.6 544.75 72.85 544.35 73.1 544.1 73.5
L 543.85 73.9
Q 543.25 74.8 542.65 75.75 542.05 76.75 541.45 77.8 540.8 78.9 540.2 79.95 539.55 81.05 538.85 82.05 537.5 84.2 536.25 86.2 535.55 87.2 534.9 88.25 534.2 89.25 533.55 90.3
L 533.4 90.75 533.35 90.75 533.35 90.8 533.3 90.85
Q 533.2 91.05 533.1 91.25 533.05 91.4 533 91.65 532.95 91.85 532.95 92.1 533 92.3 533.05 92.5 533.1 92.75 533.15 92.95 533.25 93.15 533.35 93.35 533.4 93.55 533.55 93.7 533.65 93.85 533.85 93.95 534.05 94.05 534.2 94.1 534.4 94.15 534.65 94.25 534.8 94.3 535 94.3 535.2 94.3 535.4 94.25
L 544.2 94.25 544.2 95.9
Q 544.2 96.5 544.35 96.9 544.5 97.3 544.8 97.45 545.3 97.9 546.35 97.9 547.05 97.9 547.7 97.45 548.35 97.1 548.35 95.9
L 548.35 94.25 549.5 94.25
Q 550.1 94.25 550.45 94.1 550.8 94 551 93.65 551.15 93.35 551.25 93 551.3 92.65 551.3 92.15 551.3 91.8 551.25 91.45 551.15 91.1 551 90.75 550.8 90.45 550.45 90.3 550.1 90.1 549.5 90.1
L 548.35 90.1 548.25 74.65
Q 548.25 74.4 548.2 74.2 548.15 73.95 548.05 73.7 547.9 73.45 547.7 73.25
M 540.5 86.45
Q 540.85 85.8 541.25 85.15 541.7 84.5 542.15 83.85 542.55 83.25 542.9 82.65 543.65 81.5 544.1 80.65
L 544.1 90.2 538.05 90.2
Q 538.45 89.7 538.85 89.05 539.25 88.45 539.65 87.8 540.1 87.15 540.5 86.45
M 486.5 95
Q 486.45 94.65 486.3 94.35 486.15 94.1 485.85 93.95 485.55 93.85 485.1 93.85
L 473.55 93.85 473.55 87.7
Q 473.55 87.55 473.55 87.4 473.55 87.3 473.55 87.2
L 478 87.2
Q 478.4 87.2 478.7 87.15 479.05 87.05 479.35 86.9 479.6 86.8 479.9 86.6 480.15 86.45 480.4 86.2 480.65 86 480.8 85.75 480.95 85.5 481.05 85.2 481.15 84.95 481.25 84.6 481.3 84.3 481.3 83.95
L 481.3 76.35
Q 481.3 75.95 481.25 75.6 481.15 75.25 481.05 74.9 480.95 74.6 480.8 74.3 480.65 73.95 480.5 73.7 480.25 73.4 480 73.2 479.7 72.95 479.45 72.8 479.15 72.65 478.8 72.55 478.45 72.5 478 72.5
L 464.3 72.5
Q 463.9 72.5 463.5 72.55 463.15 72.65 462.85 72.8 462.55 72.95 462.3 73.2 462.05 73.4 461.9 73.7 461.7 73.95 461.5 74.3 461.35 74.6 461.2 74.9 461.05 75.25 461 75.6 460.95 75.95 460.95 76.35
L 460.95 83.95
Q 460.95 84.3 461 84.6 461.1 84.95 461.25 85.2 461.4 85.5 461.55 85.75 461.75 86 461.9 86.2 462.1 86.45 462.4 86.6 462.6 86.8 462.9 86.9 463.2 87.05 463.55 87.15 463.9 87.2 464.3 87.2
L 469.4 87.2
Q 469.35 87.3 469.35 87.4 469.35 87.55 469.35 87.7
L 469.35 93.85 457.3 93.85
Q 456.8 93.85 456.5 93.95 456.2 94.1 456.1 94.35 455.95 94.65 455.9 95 455.85 95.35 455.85 95.75 455.85 96.1 455.9 96.4 455.95 96.7 456.1 96.95 456.2 97.25 456.5 97.4 456.8 97.5 457.3 97.5
L 485.1 97.5
Q 485.55 97.5 485.85 97.4 486.15 97.25 486.3 96.95 486.45 96.7 486.5 96.4 486.6 96.1 486.6 95.75 486.6 95.35 486.5 95
M 465.15 79.15
Q 465.15 78.8 465.15 78.4 465.15 78.05 465.15 77.65 465.15 77.3 465.15 76.95 465.15 76.6 465.15 76.25 465.6 76.25 466.05 76.2 466.5 76.2 466.9 76.2 467.3 76.2 467.7 76.2 468.1 76.2 468.55 76.2
L 473.75 76.2
Q 474.25 76.2 474.7 76.2 475.15 76.25 475.55 76.25 475.95 76.25 476.35 76.3 476.7 76.3 477.05 76.35
L 477.05 80.5
Q 477.05 80.95 477.05 81.3 477.05 81.65 477.05 82 477.05 82.4 477.05 82.75 477.05 83.1 477.05 83.4 476.65 83.45 476.3 83.45 475.95 83.45 475.55 83.45 475.1 83.5 474.65 83.5 474.2 83.5 473.75 83.5
L 468.55 83.5
Q 468.1 83.5 467.7 83.5 467.3 83.45 466.9 83.4 466.45 83.4 466 83.4 465.6 83.35 465.15 83.3
L 465.15 79.15
M 490.35 87.35
Q 489.9 87.35 489.6 87.5 489.3 87.65 489.2 87.9 489.05 88.25 489 88.55 488.95 88.9 488.95 89.2 488.95 89.6 489 89.95 489.05 90.3 489.2 90.5 489.3 90.75 489.6 90.9 489.9 91.05 490.35 91.05
L 502.25 91.05 502.25 101.25
Q 502.25 101.7 502.4 101.95 502.55 102.25 502.95 102.4 503.25 102.55 503.6 102.6 503.95 102.7 504.3 102.7 504.55 102.7 504.75 102.65 504.95 102.65 505.1 102.65 505.4 102.5 505.75 102.4 505.9 102.3 506.05 102.2 506.2 102.1 506.3 102 506.4 101.85 506.45 101.65 506.5 101.45 506.5 101.25
L 506.5 91.05 518.5 91.05
Q 519.5 91.05 519.75 90.5 519.85 90.3 519.9 89.95 519.95 89.6 519.95 89.2 519.95 88.55 519.75 87.9 519.65 87.65 519.3 87.5 519 87.35 518.5 87.35
L 490.35 87.35
M 513.6 73.7
Q 513.75 73.4 513.75 73 513.75 72.6 513.6 72.3 513.5 71.95 513.3 71.7 512.8 71.15 512.25 71.15
L 498.55 71.15
Q 497.6 71.15 496.9 71.35 496.25 71.5 495.8 71.8 495.3 72.15 495.1 72.8 494.9 73.4 494.9 74.3
L 494.9 80.95
Q 494.9 81.45 494.95 81.8 495 82.2 495.15 82.5 495.25 82.8 495.45 83.05 495.65 83.3 495.95 83.5 496.2 83.65 496.55 83.8 496.85 83.9 497.25 83.95 497.65 84.05 498.05 84.05 498.5 84.1 499 84.1
L 512.85 84.1
Q 513.25 84.1 513.5 83.95 513.8 83.85 514 83.5 514.15 83.25 514.25 82.9 514.35 82.6 514.35 82.25 514.35 81.85 514.25 81.55 514.15 81.2 514 80.95 513.6 80.4 512.85 80.4
L 501.05 80.4
Q 500.85 80.4 500.6 80.4 500.35 80.4 500.05 80.35 499.8 80.35 499.55 80.35 499.3 80.35 499.1 80.35 499.1 80.15 499.1 79.95 499.1 79.75 499.1 79.55 499.1 79.4 499.1 79.2 499.1 79 499.1 78.8
L 499.1 75.05
Q 499.8 74.85 501 74.85
L 512.25 74.85
Q 512.55 74.85 512.8 74.7 513.05 74.55 513.3 74.3 513.5 74 513.6 73.7
M 500 11.2
Q 499.35 11.1 498.65 11.1 497.9 11.1 497.25 11.2 496.55 11.3 495.95 11.5 495.25 11.7 494.75 12 494.25 12.3 493.85 12.65 493.4 13.05 493.05 13.5 492.7 13.95 492.45 14.45 492.15 14.95 492.05 15.5 491.9 16.05 491.9 16.6 491.9 17.25 492.05 17.8 492.15 18.35 492.45 18.85 492.7 19.4 493.05 19.8 493.45 20.25 493.9 20.6 494.25 21 494.8 21.25 495.3 21.55 495.95 21.75 496.55 21.95 497.25 22.05 497.9 22.2 498.65 22.2 499.35 22.2 499.95 22.05 500.6 21.95 501.15 21.75 501.7 21.55 502.25 21.25 502.75 21 503.25 20.6 503.6 20.25 503.85 19.8 504.15 19.4 504.4 18.85 504.6 18.35 504.7 17.8 504.8 17.25 504.8 16.6 504.8 16.05 504.7 15.55 504.65 15 504.45 14.5 504.25 14 503.95 13.55 503.65 13.1 503.3 12.7 502.8 12.35 502.3 12.05 501.75 11.75 501.2 11.5 500.65 11.3 500 11.2
M 495.85 17.55
Q 495.6 17.15 495.6 16.6 495.6 16.1 495.85 15.65 496.05 15.25 496.5 14.85 496.9 14.55 497.45 14.4 497.95 14.2 498.55 14.2 499.1 14.2 499.65 14.4 500.15 14.55 500.6 14.85 501.05 15.25 501.25 15.65 501.5 16.1 501.5 16.6 501.5 17.15 501.25 17.55 501.05 18 500.6 18.35 500.15 18.7 499.65 18.85 499.1 19.05 498.55 19.05 497.95 19.05 497.45 18.85 496.9 18.7 496.5 18.35 496.05 18 495.85 17.55
M 509.95 22.8
Q 508.9 22.7 507.7 22.7 506.55 22.7 505.55 22.8 504.5 22.95 503.6 23.15 502.7 23.4 501.9 23.75 501.1 24.1 500.4 24.55 499.7 25.05 499.2 25.6 498.7 26.2 498.35 26.85 498 27.5 497.8 28.25 497.6 29 497.6 29.85 497.6 31.5 498.35 32.8 498.7 33.4 499.2 33.95 499.7 34.5 500.4 34.95 501.1 35.4 501.95 35.75 502.75 36.1 503.7 36.35 504.6 36.6 505.6 36.7 506.65 36.85 507.7 36.85 508.95 36.85 510 36.7 511.05 36.6 511.95 36.35 512.85 36.1 513.65 35.75 514.4 35.4 515.1 34.9 516.45 34 517.2 32.7 517.55 32.1 517.7 31.35 517.9 30.65 517.9 29.85 517.9 29 517.7 28.25 517.55 27.5 517.2 26.85 516.45 25.6 515.1 24.55 514.4 24.1 513.6 23.75 512.8 23.4 511.9 23.15 511 22.95 509.95 22.8
M 501.9 29.85
Q 501.9 29 502.25 28.4 502.65 27.75 503.45 27.3 504.2 26.85 505.3 26.65 506.35 26.4 507.7 26.4 509.15 26.4 510.25 26.65 511.35 26.85 512.15 27.3 512.9 27.75 513.25 28.4 513.65 29 513.65 29.85 513.65 30.65 513.25 31.25 512.9 31.85 512.15 32.25 510.55 33.1 507.7 33.1 506.35 33.1 505.3 32.9 504.2 32.7 503.45 32.25 501.9 31.4 501.9 29.85
M 506.3 9.1
Q 506.35 8.8 506.35 8.45 506.35 7.65 505.95 7.25 505.55 6.8 504.7 6.8
L 500.35 6.8 500.35 5.3
Q 500.35 4.85 500.2 4.5 500.1 4.15 499.85 3.95 499.6 3.8 499.25 3.7 498.95 3.6 498.6 3.6 498.1 3.6 497.75 3.7 497.4 3.8 497.25 3.95 497 4.15 496.9 4.5 496.85 4.85 496.85 5.3
L 496.85 6.8 492.2 6.8
Q 491.75 6.8 491.45 6.9 491.15 7 490.95 7.2 490.7 7.4 490.6 7.7 490.5 8 490.5 8.45 490.5 9.15 490.9 9.6 491.1 9.8 491.4 9.9 491.65 10 492.05 10 493.6 10 495.2 10 496.8 10 498.35 10 499.95 10 501.55 10.05 503.1 10.05 504.7 10.05
L 504.8 10.05
Q 505.2 10.05 505.55 9.9 505.85 9.8 506.05 9.6 506.2 9.35 506.3 9.1
M 518.25 5.55
Q 518.25 5.05 518.15 4.75 518 4.4 517.75 4.25 517.5 4.1 517.2 4.05 516.85 4 516.45 4 516 4 515.65 4.05 515.3 4.1 515.05 4.25 514.55 4.55 514.55 5.55
L 514.55 10.8 511.9 10.8 511.9 6.15
Q 511.9 5.2 511.3 4.9 510.95 4.75 510.65 4.7 510.3 4.6 509.95 4.6 509.55 4.6 509.2 4.7 508.85 4.75 508.55 4.9 507.9 5.2 507.9 6.15
L 507.9 20.2
Q 507.9 21.2 508.55 21.5 508.85 21.65 509.2 21.7 509.55 21.8 509.95 21.8 510.3 21.8 510.65 21.7 510.95 21.65 511.3 21.5 511.9 21.2 511.9 20.2
L 511.9 14.5 514.55 14.5 514.55 20.55
Q 514.55 21 514.7 21.3 514.8 21.6 515.05 21.75 515.3 21.9 515.65 22 516 22.05 516.45 22.05 516.85 22.05 517.2 22 517.5 21.9 517.75 21.75 518 21.6 518.15 21.3 518.25 21 518.25 20.55
L 518.25 5.55
M 532.95 5.85
Q 532.55 5.85 532.15 5.95 531.8 6.05 531.45 6.25 531.1 6.45 530.9 6.75 530.75 7.05 530.75 7.35
L 530.75 11.55
Q 530.75 13.3 530.3 14.95 529.85 16.6 528.95 18.1 528.05 19.7 526.8 21.05 525.5 22.45 523.95 23.6 523.75 23.75 523.7 23.85 523.6 23.95 523.55 24.05 523.5 24.2 523.5 24.35 523.45 24.45 523.45 24.55 523.45 24.85 523.55 25.1 523.65 25.35 523.85 25.55 524.05 25.85 524.25 26.05 524.45 26.2 524.75 26.35 524.9 26.5 525.15 26.6 525.4 26.65 525.7 26.65 526 26.7 526.25 26.6 526.45 26.55 526.6 26.35 527.75 25.55 528.65 24.7 529.6 23.8 530.4 22.85 531.2 21.9 531.85 20.85 532.45 19.85 533 18.75 533.45 19.8 534.05 20.75 534.7 21.7 535.45 22.6 536.2 23.55 537.1 24.4 538.05 25.25 539.15 25.95 539.3 26.15 539.55 26.2 539.75 26.3 540.1 26.3 540.55 26.3 540.9 26.15 541.3 26 541.6 25.65 541.9 25.35 542.1 25 542.25 24.7 542.25 24.3 542.25 24.2 542.2 24.05 542.15 23.85 542.05 23.7 541.95 23.5 541.8 23.35 541.6 23.2 541.4 23.05 539.9 21.95 538.75 20.65 537.6 19.35 536.75 17.95 535.95 16.55 535.5 15 535.1 13.45 535.1 11.8
L 535.1 7.35
Q 535.1 7.05 534.95 6.75 534.8 6.45 534.45 6.25 534.1 6.05 533.75 5.95 533.4 5.85 532.95 5.85
M 547.25 4.2
Q 547.05 4.15 546.85 4.15 546.5 4.15 546.15 4.25 545.85 4.3 545.5 4.4 545.15 4.55 545 4.9 544.85 5.2 544.85 5.65
L 544.85 35.3
Q 544.85 35.7 545 36.05 545.1 36.35 545.4 36.55 545.95 36.85 546.7 36.85 546.8 36.85 546.95 36.8 547.15 36.75 547.4 36.7 547.6 36.65 547.8 36.55 548.05 36.4 548.2 36.3 548.3 36.15 548.45 35.95 548.6 35.7 548.8 35.5 548.9 35.3 549 35 549.05 34.75 549.05 34.45
L 549.05 19.75 552.7 19.75
Q 553.2 19.75 553.5 19.6 553.8 19.45 553.95 19.15 554.05 18.85 554.15 18.55 554.2 18.2 554.2 17.85 554.2 17.45 554.15 17.15 554.05 16.8 553.95 16.55 553.7 16 552.7 16
L 549.05 16 549.05 5.65
Q 549.05 5.45 549 5.25 548.95 5.05 548.85 4.9 548.7 4.75 548.55 4.6 548.45 4.5 548.3 4.4 548.1 4.3 547.7 4.2 547.45 4.2 547.25 4.2
M 625.1 72.55
Q 624.7 72.55 624.35 72.65 624 72.75 623.7 72.95 623.35 73.15 623.2 73.5 623.05 73.8 623.05 74.25
L 623.05 88.2
Q 623.05 88.75 623.15 89.25 623.3 89.75 623.5 90.1 623.7 90.45 623.95 90.75 624.15 91.05 624.4 91.2 625.05 91.65 625.8 91.75 626.1 91.8 626.4 91.85 626.7 91.9 626.95 91.9
L 627.3 91.9
Q 628.150390625 91.893359375 628.85 91.85 629.65 91.85 630.45 91.8 631.3 91.75 632.1 91.7 632.9 91.65 633.7 91.6 634.45 91.6 635.2 91.5 635.95 91.45 636.7 91.35 637.4 91.3 638.1 91.2 638.7 91.15 639.35 91.05 639.75 91.05 640.05 90.9 640.35 90.75 640.55 90.5 640.75 90.25 640.85 90 640.95 89.7 640.95 89.4 640.95 89 640.85 88.6 640.7 88.3 640.5 87.95 640.3 87.65 640 87.55 639.75 87.35 639.45 87.35 639.3 87.35 639.15 87.4 639 87.4 638.8 87.45
L 638.85 87.45
Q 638.25 87.55 637.6 87.6 636.95 87.7 636.3 87.75 635.65 87.85 634.95 87.9 634.2 88 633.5 88.05 632.75 88.1 632 88.1 631.25 88.2 630.45 88.2 629.7 88.25 628.95 88.25 628.25 88.25 627.6 88.25 627.5 88 627.45 87.75 627.35 87.45 627.35 87.2 627.25 86.95 627.25 86.65 627.25 86.35 627.25 86.05
L 627.25 74.1
Q 627.2 73.9 627.15 73.7 627.1 73.55 627.05 73.4 626.95 73.25 626.8 73.15 626.65 73 626.5 72.9 626.3 72.85 626.1 72.75 625.95 72.7 625.8 72.6 625.55 72.6 625.4 72.6 625.25 72.55 625.1 72.55
M 612.15 70.1
Q 611.8 70.15 611.55 70.25 611.2 70.4 611.05 70.7 610.9 71 610.9 71.5
L 610.9 84.65
Q 610.9 85.6 611.55 85.9 611.8 86.05 612.15 86.1 612.45 86.2 612.8 86.2 613.25 86.2 613.7 86.1 614.05 86.05 614.45 85.9 614.75 85.75 614.95 85.4 615.1 85.1 615.1 84.65
L 615.1 71.5
Q 615.1 71.25 615.05 71.05 614.95 70.85 614.85 70.7 614.75 70.55 614.6 70.45 614.45 70.35 614.3 70.25 614 70.15 613.7 70.05 613.5 70.05 613.25 70.05 613.05 70 612.8 70 612.45 70 612.15 70.1
M 643.8 70.75
Q 643.65 71.05 643.65 71.5
L 643.65 100.65
Q 643.65 101.6 644.2 101.95 644.45 102.05 644.75 102.1 645.1 102.15 645.6 102.15 645.9 102.15 646.2 102.1 646.5 102.05 646.8 101.95 647.1 101.75 647.2 101.45 647.35 101.15 647.35 100.65
L 647.35 71.5
Q 647.35 71.05 647.2 70.75 647.1 70.45 646.8 70.3 646.5 70.15 646.2 70.1 645.9 70 645.6 70 645.1 70 644.75 70.1 644.45 70.15 644.2 70.3 643.9 70.45 643.8 70.75
M 597.1 88.25
Q 596.7 88.35 596.4 88.5 596.1 88.75 595.95 89 595.8 89.3 595.8 89.65
L 595.8 98.85
Q 595.8 99.5 595.95 100.1 596.1 100.65 596.4 101.1 596.7 101.55 597.2 101.75 597.7 102 598.4 102 600.1 102 601.8 102 603.5 102 605.15 102 606.8 101.95 608.5 101.95 610.15 101.95 611.9 101.95
L 611.9 102
Q 612.25 102 612.55 101.95 612.8 101.85 613.1 101.75 613.35 101.6 613.6 101.4 613.85 101.25 614 101 614.15 100.75 614.3 100.5 614.45 100.25 614.6 100 614.7 99.7 614.75 99.4 614.8 99.15 614.8 98.85
L 614.8 89.65
Q 614.8 89.45 614.75 89.3 614.65 89.15 614.55 89 614.4 88.9 614.25 88.75 614.1 88.65 614 88.55 613.85 88.45 613.7 88.35 613.5 88.3 613.3 88.25 613.1 88.2 612.9 88.15 612.7 88.15 612.55 88.15 612.25 88.15 611.9 88.25 611.6 88.35 611.3 88.5 610.95 88.75 610.8 89 610.6 89.3 610.6 89.65
L 610.6 92 599.9 92 599.9 89.65
Q 599.9 89.3 599.65 89 599.55 88.9 599.45 88.75 599.35 88.65 599.25 88.55 598.95 88.35 598.5 88.25 598.1 88.15 597.9 88.15 597.45 88.15 597.1 88.25
M 599.95 95.75
Q 600.05 95.6 600.2 95.5 600.35 95.45 600.55 95.45 600.75 95.4 601 95.4
L 609.5 95.4
Q 609.7 95.4 609.9 95.45 610.1 95.45 610.3 95.5 610.45 95.6 610.55 95.75 610.6 95.95 610.6 96.2
L 610.6 97.9
Q 610.6 98.15 610.55 98.3 610.45 98.45 610.3 98.5 610.1 98.55 609.95 98.6 609.75 98.65 609.6 98.65
L 600.9 98.65
Q 600.7 98.6 600.55 98.55 600.4 98.5 600.25 98.45 600.05 98.45 599.95 98.3 599.9 98.15 599.9 97.9
L 599.9 96.2
Q 599.9 95.95 599.95 95.75
M 576 72
Q 576 71.55 575.9 71.25 575.75 70.95 575.5 70.8 575.2 70.7 574.8 70.6 574.45 70.55 574 70.55 573.65 70.55 573.3 70.6 572.95 70.7 572.65 70.8 572.3 70.95 572.15 71.25 572 71.6 572 72
L 572 100.4
Q 572 100.85 572.15 101.15 572.3 101.45 572.65 101.6 572.95 101.75 573.3 101.8 573.65 101.9 574 101.9 574.45 101.9 574.8 101.8 575.2 101.75 575.5 101.6 575.75 101.45 575.9 101.15 576 100.85 576 100.4
L 576 85.6 578.7 85.6 578.7 101.35
Q 578.7 101.8 578.85 102.1 579 102.4 579.25 102.55 579.5 102.7 579.9 102.75 580.2 102.85 580.7 102.85 581.1 102.85 581.45 102.75 581.8 102.7 582.05 102.55 582.3 102.4 582.5 102.1 582.6 101.8 582.65 101.35
L 582.65 71.4
Q 582.6 70.95 582.5 70.65 582.3 70.35 582.05 70.2 581.8 70.05 581.45 69.95 581.1 69.9 580.7 69.9 580.2 69.9 579.9 69.95 579.5 70.05 579.25 70.2 579 70.35 578.85 70.65 578.7 70.95 578.7 71.4
L 578.7 81.85 576 81.85 576 72
M 568.05 73.7
Q 567.85 73.5 567.65 73.3 567.2 73 566.7 72.8 566.4 72.75 566.1 72.65 565.8 72.6 565.55 72.6
L 558.15 72.6
Q 557.75 72.6 557.45 72.8 557.1 72.95 556.95 73.25 556.7 73.6 556.6 73.9 556.5 74.25 556.5 74.55 556.5 74.95 556.6 75.25 556.75 75.55 556.95 75.8 557.2 76.05 557.5 76.2 557.8 76.3 558.15 76.3
L 564.8 76.3 564.8 76.7
Q 564.8 77.6 564.65 78.55 564.45 79.5 564.1 80.45 563.35 82.45 562.35 84.25 561.8 85.15 561.2 85.95 560.6 86.75 559.9 87.45 559.2 88.2 558.5 88.7 557.8 89.25 557.15 89.6 556.85 89.7 556.65 89.8 556.45 89.95 556.4 90.1 556.3 90.35 556.25 90.55 556.2 90.75 556.2 91 556.2 91.25 556.25 91.5 556.3 91.8 556.4 92 556.55 92.3 556.75 92.5 556.95 92.7 557.2 92.8 557.35 92.95 557.6 93 557.85 93.1 558.15 93.05 558.2 93.05 558.25 93.05 558.35 93.05 558.45 93.05 558.5 93.05 558.6 93 558.7 93 558.85 92.95 558.9 92.95 558.95 92.95 559 92.9 559.1 92.85 559.15 92.85 559.2 92.8 559.25 92.75 559.25 92.7
L 559.3 92.7
Q 560.3 92.15 561.2 91.45 562.15 90.7 563.05 89.8 563.85 88.85 564.6 87.8 565.35 86.75 566.05 85.6 566.65 84.45 567.15 83.2 567.7 81.95 568.05 80.6 568.45 79.3 568.6 77.95 568.8 76.6 568.8 75.3 568.8 75 568.7 74.7 568.6 74.4 568.45 74.15 568.25 73.9 568.05 73.7
M 592.55 72.3
Q 591.95 72.65 591.5 73.15 590.95 73.65 590.5 74.25 590.1 74.85 589.8 75.55 589.5 76.25 589.35 77 589.2 77.8 589.2 78.6 589.2 79.5 589.35 80.25 589.5 81 589.8 81.7 590.1 82.4 590.5 83 590.95 83.55 591.5 84.05 591.95 84.5 592.55 84.9 593.2 85.25 593.95 85.5 594.7 85.75 595.6 85.85 596.45 86 597.45 86 598.4 86 599.25 85.85 600.1 85.75 600.85 85.5 601.6 85.25 602.25 84.9 602.9 84.5 603.45 84.05 603.9 83.55 604.3 83 604.65 82.4 605 81.7 605.25 81 605.4 80.25 605.55 79.5 605.55 78.6 605.55 77.8 605.4 77 605.25 76.25 605 75.55 604.65 74.85 604.3 74.25 603.9 73.65 603.45 73.15 602.9 72.65 602.25 72.3 601.6 71.95 600.85 71.7 600.1 71.45 599.25 71.3 598.4 71.2 597.45 71.2 596.45 71.2 595.6 71.3 594.7 71.45 593.95 71.7 593.2 71.95 592.55 72.3
M 601.85 78.6
Q 601.85 79.5 601.55 80.15 601.25 80.85 600.65 81.3 600 81.85 599.25 82.05 598.45 82.35 597.5 82.35 596.4 82.35 595.6 82.05 594.75 81.85 594.2 81.3 593.65 80.85 593.35 80.15 593.1 79.5 593.1 78.6 593.1 77.75 593.35 77.05 593.65 76.35 594.2 75.85 594.75 75.35 595.6 75.1 596.4 74.9 597.5 74.85 598.45 74.9 599.25 75.1 600 75.35 600.65 75.85 601.25 76.35 601.55 77.05 601.85 77.75 601.85 78.6
M 567.65 24.15
Q 567.45 24.15 567.25 24.1 567.05 24.1 566.9 24.1 566.6 24.1 566.25 24.2 565.95 24.3 565.6 24.45 565.25 24.65 565.1 24.95 564.9 25.25 564.9 25.6
L 564.9 32.9
Q 564.9 33.6 565.15 34.2 565.4 34.75 565.9 35.15 566.35 35.55 566.95 35.75 567.55 35.95 568.25 35.95
L 582.75 35.95
Q 583.05 35.95 583.35 35.8 583.65 35.65 583.9 35.4 584.1 35.15 584.2 34.8 584.3 34.45 584.3 34.1 584.3 33.7 584.2 33.4 584.1 33.1 583.9 32.85 583.65 32.6 583.35 32.45 583.05 32.3 582.75 32.3
L 571.1 32.3
Q 570.5 32.3 570.05 32.25 569.55 32.2 569.1 32.1
L 569.1 25.6
Q 569.1 25.4 569.05 25.25 568.95 25.1 568.85 24.9 568.7 24.8 568.6 24.65 568.5 24.55 568.4 24.45 568.2 24.35 568.05 24.3 567.85 24.2 567.65 24.15
M 573.3 4.95
Q 572.9 4.85 572.7 4.85 572.25 4.85 571.9 4.95 571.55 5.05 571.3 5.2 570.95 5.4 570.8 5.7 570.65 5.95 570.65 6.4
L 570.65 9.35 563.75 9.35 563.75 6.4
Q 563.75 5.95 563.5 5.65 563.3 5.4 562.85 5.25 562.7 5.15 562.55 5.1 562.4 5 562.25 4.95 561.95 4.85 561.5 4.85 561.2 4.85 560.9 4.95 560.6 5.05 560.3 5.2 559.95 5.4 559.8 5.7 559.65 5.95 559.65 6.4
L 559.65 15.85
Q 559.65 17.95 560.65 18.9 561.2 19.4 562 19.65 562.8 19.85 563.9 19.85
L 571.05 19.85
Q 572.85 19.85 573.75 18.9 574.7 18 574.7 16.1
L 574.7 6.4
Q 574.7 5.95 574.45 5.65 574.25 5.4 574.05 5.25 573.9 5.15 573.7 5.1 573.5 5 573.3 4.95
M 570.6 12.85
L 570.6 14.7
Q 570.6 15.1 570.6 15.4 570.6 15.6 570.55 15.75 570.5 15.95 570.45 16.1 570.2 16.1 570.05 16.1 569.85 16.1 569.65 16.1 569.4 16.15 569.15 16.15 568.9 16.15 568.6 16.15
L 564 16.15
Q 563.8 15.65 563.8 14.7
L 563.8 12.85 570.6 12.85
M 583.2 4.25
Q 582.9 4.15 582.55 4.15 582.1 4.15 581.7 4.25 581.4 4.3 581.1 4.45 580.85 4.6 580.7 4.95 580.55 5.25 580.55 5.7
L 580.55 7.25 577.15 7.25
Q 576.7 7.25 576.4 7.35 576.1 7.5 575.95 7.75 575.65 8.25 575.65 9 575.65 9.35 575.75 9.65 575.8 9.95 575.95 10.15 576.1 10.45 576.4 10.55 576.7 10.65 577.15 10.65
L 580.55 10.65 580.55 13.4 577.15 13.4
Q 576.7 13.4 576.4 13.5 576.1 13.6 575.95 13.8 575.65 14.3 575.65 15.1 575.65 15.45 575.75 15.75 575.8 16.05 575.95 16.25 576.1 16.55 576.4 16.65 576.7 16.8 577.15 16.8
L 580.55 16.8 580.55 24.5
Q 580.55 24.95 580.7 25.25 580.85 25.55 581.1 25.65 581.4 25.85 581.7 25.9 582.1 26 582.55 26 582.9 26 583.2 25.9 583.55 25.85 583.85 25.65 584.1 25.55 584.25 25.25 584.4 24.95 584.4 24.5
L 584.4 5.7
Q 584.4 5.25 584.25 4.95 584.1 4.6 583.85 4.45 583.55 4.3 583.2 4.25
M 604.15 12.05
Q 603.55 11.75 602.85 11.5 601.4 11.1 599.7 11.1 598 11.1 596.65 11.5 595.95 11.7 595.35 12 594.7 12.3 594.2 12.65 593.65 13.05 593.2 13.45 592.75 13.9 592.45 14.4 592.15 14.95 592 15.5 591.85 16.05 591.85 16.6 591.85 17.25 592 17.8 592.15 18.35 592.45 18.85 592.75 19.4 593.2 19.85 593.65 20.25 594.2 20.65 594.7 21 595.35 21.3 595.95 21.55 596.7 21.75 597.35 21.95 598.1 22.05 598.9 22.2 599.7 22.2 600.55 22.2 601.3 22.05 602.1 21.95 602.8 21.75 603.5 21.5 604.15 21.2 604.75 20.9 605.3 20.55 605.75 20.2 606.15 19.75 606.55 19.3 606.85 18.8 607.15 18.3 607.3 17.75 607.45 17.2 607.45 16.6 607.45 16.05 607.3 15.55 607.15 15 606.85 14.5 606.55 14 606.15 13.55 605.75 13.1 605.3 12.7 604.75 12.35 604.15 12.05
M 597.15 18.15
Q 596.6 17.85 596.35 17.45 596.05 17.1 596.05 16.6 596.05 16.15 596.35 15.8 596.6 15.4 597.15 15.1 597.7 14.8 598.3 14.65 598.95 14.5 599.7 14.5 600.45 14.5 601.05 14.65 601.7 14.8 602.2 15.1 602.65 15.4 602.9 15.8 603.15 16.15 603.15 16.6 603.15 17.1 602.9 17.45 602.7 17.85 602.2 18.1 601.2 18.75 599.7 18.75 598.95 18.75 598.3 18.6 597.7 18.45 597.15 18.15
M 611.3 23.15
Q 610.35 22.95 609.3 22.8 608.3 22.7 607.2 22.7 606 22.7 604.95 22.8 603.9 22.95 603.05 23.15 602.1 23.4 601.3 23.75 600.55 24.1 599.9 24.55 599.25 25.05 598.7 25.6 598.2 26.2 597.85 26.85 597.45 27.5 597.3 28.25 597.1 29 597.1 29.85 597.1 31.5 597.85 32.8 598.2 33.4 598.7 33.95 599.25 34.5 599.9 34.95 600.55 35.4 601.35 35.75 602.15 36.1 603.05 36.35 603.95 36.6 604.95 36.7 606 36.85 607.2 36.85 608.3 36.85 609.35 36.7 610.4 36.6 611.35 36.35 612.3 36.1 613.1 35.75 613.95 35.4 614.6 34.9 615.25 34.45 615.8 33.9 616.3 33.35 616.7 32.7 617 32.1 617.2 31.35 617.4 30.65 617.4 29.85 617.4 29 617.2 28.25 617 27.5 616.7 26.85 616.3 26.25 615.8 25.65 615.25 25.1 614.6 24.55 613.95 24.1 613.1 23.75 612.25 23.4 611.3 23.15
M 612.75 28.4
Q 613.2 29 613.2 29.85 613.2 30.65 612.75 31.25 612.35 31.85 611.55 32.25 610.75 32.7 609.65 32.9 608.6 33.1 607.25 33.1 604.5 33.1 602.9 32.25 602.1 31.85 601.7 31.25 601.3 30.65 601.3 29.85 601.3 29 601.7 28.4 602.1 27.75 602.9 27.3 603.7 26.85 604.8 26.65 605.85 26.4 607.25 26.4 608.6 26.4 609.65 26.65 610.75 26.85 611.55 27.3 612.35 27.75 612.75 28.4
M 608.35 6.95
Q 608.05 6.85 607.55 6.85
L 601.65 6.85 601.65 5.15
Q 601.65 4.7 601.45 4.4 601.35 4.05 601.05 3.9 600.75 3.75 600.45 3.7 600.15 3.6 599.85 3.6 599.35 3.6 599 3.65 598.65 3.75 598.4 3.85 598.1 4.05 597.95 4.35 597.8 4.65 597.8 5.15
L 597.8 6.85
Q 597.1 6.85 596.35 6.85 595.65 6.85 595 6.8 593.6 6.8 592.05 6.8 591.65 6.8 591.35 6.9 591.05 7 590.85 7.15 590.45 7.5 590.45 8.4 590.45 8.75 590.5 9.05 590.6 9.3 590.75 9.45 590.95 9.7 591.2 9.8 591.5 9.9 591.85 9.9 595.75 9.9 599.65 9.9 601.5 9.9 603.5 9.9 605.45 9.95 607.45 9.95
L 607.55 9.95
Q 608.55 9.95 608.8 9.5 608.9 9.3 608.95 9.05 609 8.8 609 8.45 609 8.05 608.95 7.75 608.9 7.45 608.8 7.25 608.65 7.05 608.35 6.95
M 617.5 5.8
Q 617.5 5.3 617.35 4.95 617.15 4.6 616.85 4.45 616.2 4.15 615.5 4.15 615.05 4.15 614.7 4.25 614.3 4.3 614 4.45 613.6 4.6 613.45 4.95 613.3 5.3 613.3 5.8
L 613.3 11.3 609.8 11.3
Q 609.3 11.3 609 11.4 608.7 11.5 608.55 11.7 608.4 11.9 608.3 12.2 608.25 12.5 608.25 12.85 608.25 13.25 608.3 13.5 608.4 13.8 608.55 13.95 608.8 14.4 609.8 14.4
L 613.3 14.4 613.3 16.95 609.8 16.95
Q 608.8 16.95 608.55 17.4 608.4 17.6 608.3 17.9 608.25 18.2 608.25 18.6 608.25 18.95 608.3 19.25 608.4 19.5 608.55 19.7 608.8 20.1 609.8 20.1
L 613.3 20.15 613.3 20.8
Q 613.3 21.3 613.45 21.6 613.6 21.9 614 22.05 614.3 22.2 614.7 22.25 615.05 22.35 615.5 22.35 616.2 22.35 616.85 22.05 617.15 21.9 617.35 21.6 617.5 21.3 617.5 20.8
L 617.5 5.8
M 689.65 96.8
Q 689.55 97.2 689.55 97.7
L 689.55 99.2
Q 689.55 99.7 689.65 100.05 689.8 100.4 690 100.6 690.2 100.8 690.6 100.85 690.95 101 691.5 101
L 692.95 101
Q 693.85 101 694.35 100.55 694.8 100.1 694.8 99.2
L 694.8 97.7
Q 694.8 97.2 694.7 96.85 694.55 96.55 694.3 96.3 694.05 96.05 693.7 95.95 693.35 95.85 692.85 95.85
L 691.5 95.85
Q 690.95 95.85 690.6 95.95 690.2 96.05 690 96.25 689.8 96.45 689.65 96.8
M 676.3 70.25
Q 675.7 70.75 675.7 71.6
L 675.7 100.95
Q 675.7 101.4 675.85 101.75 676 102.05 676.3 102.25 676.6 102.5 676.95 102.6 677.25 102.7 677.6 102.7 678.5 102.7 679.2 102.25 679.5 102.05 679.7 101.75 679.85 101.4 679.85 100.95
L 679.85 85.6 683.35 85.6
Q 683.8 85.6 684.1 85.45 684.45 85.3 684.6 85 684.8 84.7 684.85 84.4 684.95 84.05 684.95 83.7 684.95 83.3 684.85 82.95 684.8 82.6 684.6 82.35 684.25 81.85 683.35 81.85
L 679.85 81.85 679.85 71.6
Q 679.85 71.15 679.7 70.85 679.5 70.5 679.2 70.25 678.5 69.85 677.6 69.85 677.25 69.85 676.95 69.95 676.6 70.05 676.3 70.25
M 671.35 73.55
Q 671.2 73.15 670.95 73 670.35 72.7 669.65 72.7
L 661.45 72.7
Q 660.75 72.7 660.2 72.75 659.65 72.75 659.3 72.8 658.85 72.85 658.45 73 658.1 73.1 657.75 73.3 657.5 73.5 657.3 73.75 657.1 74.05 657.05 74.4 656.95 74.8 656.9 75.3 656.85 75.8 656.85 76.45
L 656.85 89.35
Q 656.85 90 656.9 90.5 656.95 91 657.05 91.3 657.1 91.7 657.3 91.95 657.5 92.25 657.75 92.4 658.1 92.6 658.45 92.7 658.85 92.85 659.3 92.85 659.7 92.9 660.25 92.95 660.8 92.95 661.5 92.95 662.85 92.9 664.15 92.8 665.45 92.75 666.65 92.6 669.05 92.35 671.9 91.95 672.65 91.85 673.05 91.45 673.4 91.05 673.4 90.4 673.4 90.35 673.4 90.25 673.4 90.15 673.4 90 673.35 89.7 673.3 89.7
L 673.25 89.7
Q 673.2 89.7 673.2 89.75 673.15 89.3 673 89.05 672.9 88.75 672.7 88.6 672.5 88.5 672.25 88.45 672.05 88.4 671.8 88.4 671.75 88.4 671.7 88.4 671.65 88.4 671.55 88.4 671.45 88.4 671.35 88.45 671.25 88.45 671.15 88.5 669.95 88.65 668.75 88.75 667.5 88.9 666.25 89 665 89.1 663.75 89.15 662.45 89.2 661.2 89.2 661.1 89.2 661.05 89.15 661 89.05 661 88.85
L 661 77.2
Q 661 76.8 661.05 76.6 661.15 76.4 661.3 76.4
L 669.65 76.4
Q 670.35 76.4 670.95 75.95 671.2 75.75 671.35 75.4 671.45 75.05 671.45 74.5 671.45 73.95 671.35 73.55
M 648.4 33.35
Q 648.3 33 648.15 32.7 648 32.45 647.7 32.3 647.35 32.15 646.95 32.15
L 634.9 32.15
Q 634.7 32.15 634.5 32.15 634.3 32.15 634.05 32.1 633.8 32.1 633.6 32.05 633.4 32.05 633.25 32
L 633.25 26.85
Q 633.25 26.5 633 26.2 632.9 26.05 632.75 25.95 632.6 25.85 632.4 25.7 632.25 25.65 632.05 25.6 631.9 25.55 631.75 25.45 631.6 25.4 631.4 25.35 631.2 25.35 631 25.35 630.65 25.35 630.35 25.45 630.05 25.55 629.75 25.7 629.35 25.95 629.2 26.2 629.05 26.5 629.05 26.85
L 629.05 33.05
Q 629.05 33.7 629.25 34.25 629.45 34.75 629.95 35.15 630.4 35.5 630.95 35.7 631.45 35.85 632.1 35.85
L 646.95 35.85
Q 647.35 35.85 647.7 35.75 648 35.6 648.15 35.35 648.3 35.05 648.4 34.75 648.45 34.4 648.45 34.05 648.45 33.65 648.4 33.35
M 653.85 21
Q 653.85 20.25 653.65 19.65 653.5 19.35 653.2 19.2 652.85 19.05 652.4 19.05
L 624.2 19.05
Q 623.7 19.05 623.4 19.2 623.1 19.35 623 19.65 622.9 19.95 622.85 20.25 622.75 20.6 622.75 21 622.75 21.35 622.85 21.65 622.9 21.95 623 22.2 623.1 22.45 623.4 22.55 623.7 22.65 624.2 22.65
L 652.4 22.65
Q 652.85 22.65 653.2 22.55 653.5 22.45 653.65 22.2 653.75 21.95 653.8 21.65 653.85 21.35 653.85 21
M 648.55 10.2
Q 648.55 9.5 648.4 8.9 648.2 8.25 647.85 7.7 647.5 7.15 647 6.7 646.5 6.25 645.9 5.8 644.55 5.05 642.65 4.65 641.7 4.45 640.6 4.35 639.45 4.25 638.3 4.25 637.15 4.25 636.1 4.35 635.05 4.45 634.1 4.7 633.1 4.9 632.3 5.2 631.45 5.5 630.8 5.85 630.1 6.25 629.6 6.7 629.1 7.2 628.75 7.75 628.4 8.3 628.2 8.9 628 9.5 628 10.2 628 11.45 628.5 12.45 629.05 13.45 630.05 14.15 631.1 14.9 632.55 15.4 634 15.9 635.9 16.1 636.15 16.1 636.4 16.15 636.6 16.15 636.85 16.15 637.15 16.2 637.35 16.2 637.6 16.25 637.8 16.25 638.05 16.25 638.4 16.2 638.7 16.2 639 16.15 639.3 16.15 639.65 16.15 640 16.15 640.4 16.1 642.25 15.95 643.8 15.45 645.3 15.05 646.4 14.25 647.45 13.45 648 12.45 648.55 11.45 648.55 10.2
M 642.8 11.9
Q 641.95 12.2 640.8 12.35 639.7 12.5 638.3 12.5 636.95 12.5 635.85 12.35 634.75 12.2 633.95 11.9 633.05 11.6 632.65 11.2 632.2 10.75 632.2 10.2 632.2 9.65 632.65 9.25 633.05 8.8 633.95 8.55 634.75 8.25 635.85 8.1 636.95 7.95 638.3 7.95 639.7 7.95 640.8 8.1 641.95 8.25 642.8 8.55 644.45 9.1 644.45 10.2 644.45 11.3 642.8 11.9 Z"/>
</g>

<path id="Layer0_0_1_STROKES" stroke="#000000" stroke-width="2.5" stroke-linejoin="round" stroke-linecap="round" fill="none" d="
M 331.7 57.2
L 331.9 57.2 355.15 57.2 360.2 57.2 355.15 65.65 331.9 104.7 303.4 104.7 303.25 104.7 274.9 104.7 303.2 57.2 303.25 57.2 331.7 57.2 303.4 104.7
M 331.9 57.2
L 331.9 104.7
M 182.65 57.2
L 182.85 57.2 182.85 104.7 154.35 104.7 154.2 104.7 154.2 57.2 182.65 57.2 154.35 104.7
M 303.25 57.2
L 303.25 104.7
M 32.35 104.7
L 4 104.7 32.3 57.2 32.35 57.2 60.8 57.2 32.5 104.7 32.35 104.7 32.35 57.2"/>
</defs>

<g transform="matrix( 1, 0, 0, 1, 0,0) ">
<use xlink:href="#Layer0_0_FILL"/>

<use xlink:href="#Layer0_0_1_STROKES"/>
</g>
</svg>
