
<svg xmlns="http://www.w3.org/2000/svg" version="1.1" xmlns:xlink="http://www.w3.org/1999/xlink" preserveAspectRatio="none" x="0px" y="0px" width="1280px" height="720px" viewBox="0 0 1280 720">
<defs>
<g id="Layer0_0_FILL">
<path fill="#00a0ff" stroke="none" d="
M 336.6 196.1
Q 336.6 185.6 326.1 185.6
L 302.3 185.6
Q 291.8 185.6 291.8 196.1
L 291.8 216.1
Q 291.8 226.6 302.3 226.6
L 326.1 226.6
Q 336.6 226.6 336.6 216.1
L 336.6 196.1
M 309.55 196.95
Q 310.65 196.95 311.5 197.4 311.9 197.65 312.3 198 312.7 198.35 313 198.75 313.15 198.95 313.25 199.2 313.4 199.45 313.5 199.7
L 315.75 199.7 315.75 197
Q 315.75 196.35 316.15 196.15 316.35 196.05 316.6 196 316.8 195.9 317.05 195.9 317.35 195.9 317.6 196 317.9 196.05 318.1 196.15 318.5 196.35 318.5 197
L 318.5 214
Q 318.5 214.25 318.4 214.5 318.3 214.7 318.1 214.85 317.9 214.95 317.6 215.05 317.35 215.1 317.05 215.1 316.8 215.1 316.6 215.05 316.35 214.95 316.15 214.85 315.95 214.7 315.85 214.5 315.75 214.25 315.75 214
L 315.75 207.45 313.6 207.45
Q 313.45 207.75 313.3 208.05 313.15 208.3 313 208.55 312.35 209.4 311.5 209.85 310.65 210.35 309.55 210.35 309.05 210.35 308.6 210.2 308.1 210.1 307.65 209.85 307.25 209.65 306.9 209.3 306.55 209 306.25 208.55 305.95 208.1 305.7 207.6 305.45 207.1 305.3 206.45 305.1 205.85 305.05 205.15 304.95 204.45 304.95 203.65 304.95 202.85 305.05 202.15 305.1 201.45 305.3 200.8 305.45 200.2 305.7 199.7 305.95 199.2 306.25 198.75 306.55 198.35 306.9 198 307.25 197.65 307.65 197.4 308.1 197.2 308.6 197.05 309.05 196.95 309.55 196.95
M 321.15 195.6
Q 321.4 195.65 321.6 195.75 321.8 195.9 321.9 196.1 322 196.3 322 196.6
L 322 214.6
Q 322 215.2 321.6 215.45 321.4 215.55 321.15 215.6 320.85 215.65 320.55 215.65 320.3 215.65 320.1 215.6 319.85 215.55 319.7 215.45 319.3 215.2 319.3 214.6
L 319.3 196.6
Q 319.3 196.3 319.4 196.1 319.5 195.9 319.7 195.75 319.85 195.65 320.1 195.6 320.3 195.5 320.55 195.5 320.85 195.5 321.15 195.6
M 311 200.6
Q 310.7 200.1 310.35 199.8 310 199.55 309.6 199.55 309.15 199.55 308.75 199.8 308.4 200.1 308.15 200.6 307.65 201.7 307.65 203.65 307.65 204.6 307.75 205.35 307.9 206.1 308.15 206.65 308.4 207.2 308.75 207.45 309.15 207.75 309.6 207.75 310 207.75 310.35 207.45 310.7 207.2 311 206.65 311.25 206.1 311.35 205.35 311.5 204.6 311.5 203.65 311.5 202.7 311.35 201.9 311.25 201.15 311 200.6
M 314.2 202.95
Q 314.2 203.3 314.2 203.65 314.2 203.95 314.2 204.25 314.2 204.55 314.15 204.85
L 315.75 204.85 315.75 202.25 314.15 202.25
Q 314.15 202.6 314.2 202.95 Z"/>

<path fill="#FFFFFF" stroke="none" d="
M 321.6 195.75
Q 321.4 195.65 321.15 195.6 320.85 195.5 320.55 195.5 320.3 195.5 320.1 195.6 319.85 195.65 319.7 195.75 319.5 195.9 319.4 196.1 319.3 196.3 319.3 196.6
L 319.3 214.6
Q 319.3 215.2 319.7 215.45 319.85 215.55 320.1 215.6 320.3 215.65 320.55 215.65 320.85 215.65 321.15 215.6 321.4 215.55 321.6 215.45 322 215.2 322 214.6
L 322 196.6
Q 322 196.3 321.9 196.1 321.8 195.9 321.6 195.75
M 311.5 197.4
Q 310.65 196.95 309.55 196.95 309.05 196.95 308.6 197.05 308.1 197.2 307.65 197.4 307.25 197.65 306.9 198 306.55 198.35 306.25 198.75 305.95 199.2 305.7 199.7 305.45 200.2 305.3 200.8 305.1 201.45 305.05 202.15 304.95 202.85 304.95 203.65 304.95 204.45 305.05 205.15 305.1 205.85 305.3 206.45 305.45 207.1 305.7 207.6 305.95 208.1 306.25 208.55 306.55 209 306.9 209.3 307.25 209.65 307.65 209.85 308.1 210.1 308.6 210.2 309.05 210.35 309.55 210.35 310.65 210.35 311.5 209.85 312.35 209.4 313 208.55 313.15 208.3 313.3 208.05 313.45 207.75 313.6 207.45
L 315.75 207.45 315.75 214
Q 315.75 214.25 315.85 214.5 315.95 214.7 316.15 214.85 316.35 214.95 316.6 215.05 316.8 215.1 317.05 215.1 317.35 215.1 317.6 215.05 317.9 214.95 318.1 214.85 318.3 214.7 318.4 214.5 318.5 214.25 318.5 214
L 318.5 197
Q 318.5 196.35 318.1 196.15 317.9 196.05 317.6 196 317.35 195.9 317.05 195.9 316.8 195.9 316.6 196 316.35 196.05 316.15 196.15 315.75 196.35 315.75 197
L 315.75 199.7 313.5 199.7
Q 313.4 199.45 313.25 199.2 313.15 198.95 313 198.75 312.7 198.35 312.3 198 311.9 197.65 311.5 197.4
M 314.2 203.65
Q 314.2 203.3 314.2 202.95 314.15 202.6 314.15 202.25
L 315.75 202.25 315.75 204.85 314.15 204.85
Q 314.2 204.55 314.2 204.25 314.2 203.95 314.2 203.65
M 310.35 199.8
Q 310.7 200.1 311 200.6 311.25 201.15 311.35 201.9 311.5 202.7 311.5 203.65 311.5 204.6 311.35 205.35 311.25 206.1 311 206.65 310.7 207.2 310.35 207.45 310 207.75 309.6 207.75 309.15 207.75 308.75 207.45 308.4 207.2 308.15 206.65 307.9 206.1 307.75 205.35 307.65 204.6 307.65 203.65 307.65 201.7 308.15 200.6 308.4 200.1 308.75 199.8 309.15 199.55 309.6 199.55 310 199.55 310.35 199.8 Z"/>
</g>

<g id="Symbol_7_1_Layer0_0_STROKES_1_FILL">
<path fill="#00a0ff" stroke="none" d="
M 0.9 93.05
Q 0.56328125 92.7044921875 0.05 92.7 -0.46328125 92.7044921875 -0.85 93.05 -1.1955078125 93.43671875 -1.2 93.95
L -1.2 96.95
Q -1.1955078125 97.46328125 -0.85 97.8 -0.46328125 98.1955078125 0.05 98.2 0.56328125 98.1955078125 0.9 97.8 1.2955078125 97.46328125 1.3 96.95
L 1.3 93.95
Q 1.2955078125 93.43671875 0.9 93.05
M 0.9 86.05
Q 0.56328125 85.7044921875 0.05 85.7 -0.46328125 85.7044921875 -0.85 86.05 -1.1955078125 86.43671875 -1.2 86.95
L -1.2 89.95
Q -1.1955078125 90.46328125 -0.85 90.8 -0.46328125 91.1955078125 0.05 91.2 0.56328125 91.1955078125 0.9 90.8 1.2955078125 90.46328125 1.3 89.95
L 1.3 86.95
Q 1.2955078125 86.43671875 0.9 86.05
M 1.3 82.95
L 1.3 79.95
Q 1.2955078125 79.43671875 0.9 79.05 0.56328125 78.7044921875 0.05 78.7 -0.46328125 78.7044921875 -0.85 79.05 -1.1955078125 79.43671875 -1.2 79.95
L -1.2 82.95
Q -1.1955078125 83.46328125 -0.85 83.8 -0.46328125 84.1955078125 0.05 84.2 0.56328125 84.1955078125 0.9 83.8 1.2955078125 83.46328125 1.3 82.95
M 1.3 72.95
Q 1.2955078125 72.43671875 0.9 72.05 0.56328125 71.7044921875 0.05 71.7 -0.46328125 71.7044921875 -0.85 72.05 -1.1955078125 72.43671875 -1.2 72.95
L -1.2 75.95
Q -1.1955078125 76.46328125 -0.85 76.8 -0.46328125 77.1955078125 0.05 77.2 0.56328125 77.1955078125 0.9 76.8 1.2955078125 76.46328125 1.3 75.95
L 1.3 72.95
M 1.3 65.95
Q 1.2955078125 65.43671875 0.9 65.05 0.56328125 64.7044921875 0.05 64.7 -0.46328125 64.7044921875 -0.85 65.05 -1.1955078125 65.43671875 -1.2 65.95
L -1.2 68.95
Q -1.1955078125 69.46328125 -0.85 69.8 -0.46328125 70.1955078125 0.05 70.2 0.56328125 70.1955078125 0.9 69.8 1.2955078125 69.46328125 1.3 68.95
L 1.3 65.95
M 0.9 51.05
Q 0.56328125 50.7044921875 0.05 50.7 -0.46328125 50.7044921875 -0.85 51.05 -1.1955078125 51.43671875 -1.2 51.95
L -1.2 54.95
Q -1.1955078125 55.46328125 -0.85 55.8 -0.46328125 56.1955078125 0.05 56.2 0.56328125 56.1955078125 0.9 55.8 1.2955078125 55.46328125 1.3 54.95
L 1.3 51.95
Q 1.2955078125 51.43671875 0.9 51.05
M 1.3 58.95
Q 1.2955078125 58.43671875 0.9 58.05 0.56328125 57.7044921875 0.05 57.7 -0.46328125 57.7044921875 -0.85 58.05 -1.1955078125 58.43671875 -1.2 58.95
L -1.2 61.95
Q -1.1955078125 62.46328125 -0.85 62.8 -0.46328125 63.1955078125 0.05 63.2 0.56328125 63.1955078125 0.9 62.8 1.2955078125 62.46328125 1.3 61.95
L 1.3 58.95
M 0.9 44.05
Q 0.56328125 43.7044921875 0.05 43.7 -0.46328125 43.7044921875 -0.85 44.05 -1.1955078125 44.43671875 -1.2 44.95
L -1.2 47.95
Q -1.1955078125 48.46328125 -0.85 48.8 -0.46328125 49.1955078125 0.05 49.2 0.56328125 49.1955078125 0.9 48.8 1.2955078125 48.46328125 1.3 47.95
L 1.3 44.95
Q 1.2955078125 44.43671875 0.9 44.05
M 0.9 37.05
Q 0.56328125 36.7044921875 0.05 36.7 -0.46328125 36.7044921875 -0.85 37.05 -1.1955078125 37.43671875 -1.2 37.95
L -1.2 40.95
Q -1.1955078125 41.46328125 -0.85 41.8 -0.46328125 42.1955078125 0.05 42.2 0.56328125 42.1955078125 0.9 41.8 1.2955078125 41.46328125 1.3 40.95
L 1.3 37.95
Q 1.2955078125 37.43671875 0.9 37.05
M 1.3 33.95
L 1.3 30.95
Q 1.2955078125 30.43671875 0.9 30.05 0.56328125 29.7044921875 0.05 29.7 -0.46328125 29.7044921875 -0.85 30.05 -1.1955078125 30.43671875 -1.2 30.95
L -1.2 33.95
Q -1.1955078125 34.46328125 -0.85 34.8 -0.46328125 35.1955078125 0.05 35.2 0.56328125 35.1955078125 0.9 34.8 1.2955078125 34.46328125 1.3 33.95
M 1.3 23.95
Q 1.2955078125 23.43671875 0.9 23.05 0.56328125 22.7044921875 0.05 22.7 -0.46328125 22.7044921875 -0.85 23.05 -1.1955078125 23.43671875 -1.2 23.95
L -1.2 26.95
Q -1.1955078125 27.46328125 -0.85 27.8 -0.46328125 28.1955078125 0.05 28.2 0.56328125 28.1955078125 0.9 27.8 1.2955078125 27.46328125 1.3 26.95
L 1.3 23.95
M 1.3 16.95
Q 1.2955078125 16.43671875 0.9 16.05 0.56328125 15.7044921875 0.05 15.7 -0.46328125 15.7044921875 -0.85 16.05 -1.1955078125 16.43671875 -1.2 16.95
L -1.2 19.95
Q -1.1955078125 20.46328125 -0.85 20.8 -0.46328125 21.1955078125 0.05 21.2 0.56328125 21.1955078125 0.9 20.8 1.2955078125 20.46328125 1.3 19.95
L 1.3 16.95
M 0.9 2.05
Q 0.56328125 1.7044921875 0.05 1.7 -0.46328125 1.7044921875 -0.85 2.05 -1.1955078125 2.43671875 -1.2 2.95
L -1.2 5.95
Q -1.1955078125 6.46328125 -0.85 6.8 -0.46328125 7.1955078125 0.05 7.2 0.56328125 7.1955078125 0.9 6.8 1.2955078125 6.46328125 1.3 5.95
L 1.3 2.95
Q 1.2955078125 2.43671875 0.9 2.05
M 1.3 9.95
Q 1.2955078125 9.43671875 0.9 9.05 0.56328125 8.7044921875 0.05 8.7 -0.46328125 8.7044921875 -0.85 9.05 -1.1955078125 9.43671875 -1.2 9.95
L -1.2 12.95
Q -1.1955078125 13.46328125 -0.85 13.8 -0.46328125 14.1955078125 0.05 14.2 0.56328125 14.1955078125 0.9 13.8 1.2955078125 13.46328125 1.3 12.95
L 1.3 9.95
M 0.9 -4.95
Q 0.56328125 -5.2955078125 0.05 -5.3 -0.46328125 -5.2955078125 -0.85 -4.95 -1.1955078125 -4.56328125 -1.2 -4.05
L -1.2 -1.05
Q -1.1955078125 -0.53671875 -0.85 -0.2 -0.46328125 0.1955078125 0.05 0.2 0.56328125 0.1955078125 0.9 -0.2 1.2955078125 -0.53671875 1.3 -1.05
L 1.3 -4.05
Q 1.2955078125 -4.56328125 0.9 -4.95
M 1.3 -11.05
Q 1.2955078125 -11.56328125 0.9 -11.95 0.56328125 -12.2955078125 0.05 -12.3 -0.46328125 -12.2955078125 -0.85 -11.95 -1.1955078125 -11.56328125 -1.2 -11.05
L -1.2 -8.05
Q -1.1955078125 -7.53671875 -0.85 -7.2 -0.46328125 -6.8044921875 0.05 -6.8 0.56328125 -6.8044921875 0.9 -7.2 1.2955078125 -7.53671875 1.3 -8.05
L 1.3 -11.05
M 1.3 -15.05
L 1.3 -18.05
Q 1.2955078125 -18.56328125 0.9 -18.95 0.56328125 -19.2955078125 0.05 -19.3 -0.46328125 -19.2955078125 -0.85 -18.95 -1.1955078125 -18.56328125 -1.2 -18.05
L -1.2 -15.05
Q -1.1955078125 -14.53671875 -0.85 -14.2 -0.46328125 -13.8044921875 0.05 -13.8 0.56328125 -13.8044921875 0.9 -14.2 1.2955078125 -14.53671875 1.3 -15.05
M 1.3 -25.05
Q 1.2955078125 -25.56328125 0.9 -25.95 0.56328125 -26.2955078125 0.05 -26.3 -0.46328125 -26.2955078125 -0.85 -25.95 -1.1955078125 -25.56328125 -1.2 -25.05
L -1.2 -22.05
Q -1.1955078125 -21.53671875 -0.85 -21.2 -0.46328125 -20.8044921875 0.05 -20.8 0.56328125 -20.8044921875 0.9 -21.2 1.2955078125 -21.53671875 1.3 -22.05
L 1.3 -25.05
M 1.3 -32.05
Q 1.2955078125 -32.56328125 0.9 -32.95 0.56328125 -33.2955078125 0.05 -33.3 -0.46328125 -33.2955078125 -0.85 -32.95 -1.1955078125 -32.56328125 -1.2 -32.05
L -1.2 -29.05
Q -1.1955078125 -28.53671875 -0.85 -28.2 -0.46328125 -27.8044921875 0.05 -27.8 0.56328125 -27.8044921875 0.9 -28.2 1.2955078125 -28.53671875 1.3 -29.05
L 1.3 -32.05
M 0.9 -46.95
Q 0.56328125 -47.2955078125 0.05 -47.3 -0.46328125 -47.2955078125 -0.85 -46.95 -1.1955078125 -46.56328125 -1.2 -46.05
L -1.2 -43.05
Q -1.1955078125 -42.53671875 -0.85 -42.2 -0.46328125 -41.8044921875 0.05 -41.8 0.56328125 -41.8044921875 0.9 -42.2 1.2955078125 -42.53671875 1.3 -43.05
L 1.3 -46.05
Q 1.2955078125 -46.56328125 0.9 -46.95
M 1.3 -39.05
Q 1.2955078125 -39.56328125 0.9 -39.95 0.56328125 -40.2955078125 0.05 -40.3 -0.46328125 -40.2955078125 -0.85 -39.95 -1.1955078125 -39.56328125 -1.2 -39.05
L -1.2 -36.05
Q -1.1955078125 -35.53671875 -0.85 -35.2 -0.46328125 -34.8044921875 0.05 -34.8 0.56328125 -34.8044921875 0.9 -35.2 1.2955078125 -35.53671875 1.3 -36.05
L 1.3 -39.05
M 0.9 -60.95
Q 0.56328125 -61.2955078125 0.05 -61.3 -0.46328125 -61.2955078125 -0.85 -60.95 -1.1955078125 -60.56328125 -1.2 -60.05
L -1.2 -57.05
Q -1.1955078125 -56.53671875 -0.85 -56.2 -0.46328125 -55.8044921875 0.05 -55.8 0.56328125 -55.8044921875 0.9 -56.2 1.2955078125 -56.53671875 1.3 -57.05
L 1.3 -60.05
Q 1.2955078125 -60.56328125 0.9 -60.95
M 0.9 -53.95
Q 0.56328125 -54.2955078125 0.05 -54.3 -0.46328125 -54.2955078125 -0.85 -53.95 -1.1955078125 -53.56328125 -1.2 -53.05
L -1.2 -50.05
Q -1.1955078125 -49.53671875 -0.85 -49.2 -0.46328125 -48.8044921875 0.05 -48.8 0.56328125 -48.8044921875 0.9 -49.2 1.2955078125 -49.53671875 1.3 -50.05
L 1.3 -53.05
Q 1.2955078125 -53.56328125 0.9 -53.95
M 1.3 -64.05
L 1.3 -67.05
Q 1.2955078125 -67.56328125 0.9 -67.95 0.56328125 -68.2955078125 0.05 -68.3 -0.46328125 -68.2955078125 -0.85 -67.95 -1.1955078125 -67.56328125 -1.2 -67.05
L -1.2 -64.05
Q -1.1955078125 -63.53671875 -0.85 -63.2 -0.46328125 -62.8044921875 0.05 -62.8 0.56328125 -62.8044921875 0.9 -63.2 1.2955078125 -63.53671875 1.3 -64.05
M 0.9 -74.95
Q 0.56328125 -75.2955078125 0.05 -75.3 -0.46328125 -75.2955078125 -0.85 -74.95 -1.1955078125 -74.56328125 -1.2 -74.05
L -1.2 -71.05
Q -1.1955078125 -70.53671875 -0.85 -70.2 -0.46328125 -69.8044921875 0.05 -69.8 0.56328125 -69.8044921875 0.9 -70.2 1.2955078125 -70.53671875 1.3 -71.05
L 1.3 -74.05
Q 1.2955078125 -74.56328125 0.9 -74.95
M 1.3 -78.05
L 1.3 -81.05
Q 1.2955078125 -81.56328125 0.9 -81.95 0.56328125 -82.2955078125 0.05 -82.3 -0.46328125 -82.2955078125 -0.85 -81.95 -1.1955078125 -81.56328125 -1.2 -81.05
L -1.2 -78.05
Q -1.1955078125 -77.53671875 -0.85 -77.2 -0.46328125 -76.8044921875 0.05 -76.8 0.56328125 -76.8044921875 0.9 -77.2 1.2955078125 -77.53671875 1.3 -78.05
M 0.9 -95.95
Q 0.56328125 -96.2955078125 0.05 -96.3 -0.46328125 -96.2955078125 -0.85 -95.95 -1.1955078125 -95.56328125 -1.2 -95.05
L -1.2 -92.05
Q -1.1955078125 -91.53671875 -0.85 -91.2 -0.46328125 -90.8044921875 0.05 -90.8 0.56328125 -90.8044921875 0.9 -91.2 1.2955078125 -91.53671875 1.3 -92.05
L 1.3 -95.05
Q 1.2955078125 -95.56328125 0.9 -95.95
M 1.3 -88.05
Q 1.2955078125 -88.56328125 0.9 -88.95 0.56328125 -89.2955078125 0.05 -89.3 -0.46328125 -89.2955078125 -0.85 -88.95 -1.1955078125 -88.56328125 -1.2 -88.05
L -1.2 -85.05
Q -1.1955078125 -84.53671875 -0.85 -84.2 -0.46328125 -83.8044921875 0.05 -83.8 0.56328125 -83.8044921875 0.9 -84.2 1.2955078125 -84.53671875 1.3 -85.05
L 1.3 -88.05 Z"/>
</g>
</defs>

<g transform="matrix( 1, 0, 0, 1, 0,0) ">
<use xlink:href="#Layer0_0_FILL"/>
</g>

<g transform="matrix( 1, 0, 0, 1, 433.55,282.55) ">
<g transform="matrix( 1, 0, 0, 1, -0.05,0) ">
<use xlink:href="#Symbol_7_1_Layer0_0_STROKES_1_FILL"/>
</g>
</g>
</svg>
