<?xml version="1.0" encoding="utf-8"?>
<!-- Generator: Adobe Illustrator 23.0.0, SVG Export Plug-In . SVG Version: 6.00 Build 0)  -->
<svg version="1.1" id="Layer_2" xmlns="http://www.w3.org/2000/svg" xmlns:xlink="http://www.w3.org/1999/xlink" x="0px" y="0px"
	 width="695px" height="364px" viewBox="0 0 695 364" style="enable-background:new 0 0 695 364;" xml:space="preserve">
<g>
	<path style="fill:#BEAED5;" d="M11.8,2.2C6.9,2.2,3,6.1,3,10.9v341.2c0,4.8,3.9,8.7,8.7,8.7l671.9-0.1c4.8,0,8.7-3.9,8.7-8.7V10.9
		c0-4.8-3.9-8.7-8.7-8.7C683.6,2.2,11.8,2.2,11.8,2.2z"/>
	<path style="fill:#C3B5D8;" d="M3.5,351.9c0,4.7,3.8,8.5,8.5,8.5l671.3-0.1c0.2,0,0.5,0,0.7,0c4.4-0.3,7.8-4,7.8-8.4V11.2
		c0-0.2,0-0.5,0-0.7c-0.3-4.4-4-7.9-8.4-7.9H12c-0.2,0-0.4,0-0.6,0C7,3,3.5,6.7,3.5,11.2V351.9z"/>
	<path style="fill:#C8BCDC;" d="M4.1,351.6c0,4.5,3.7,8.2,8.2,8.2l670.8-0.1c0.2,0,0.4,0,0.6,0c4.3-0.3,7.6-3.9,7.6-8.2v-340
		c0-0.2,0-0.5,0-0.6c-0.3-4.3-3.8-7.6-8.2-7.6H12.3c-0.2,0-0.4,0-0.6,0c-4.3,0.3-7.6,3.8-7.6,8.2V351.6z"/>
	<path style="fill:#CDC2DF;" d="M4.6,351.4c0,4.4,3.6,7.9,7.9,7.9l670.2-0.2c0.2,0,0.4,0,0.6,0c4.2-0.2,7.4-3.7,7.4-7.9V11.8
		c0-0.2,0-0.5,0-0.6c-0.2-4.1-3.7-7.4-7.9-7.4H12.6c-0.2,0-0.4,0-0.6,0C7.9,4,4.6,7.5,4.6,11.7V351.4z"/>
	<path style="fill:#D3C8E3;" d="M5.1,351.1c0,4.2,3.4,7.7,7.7,7.7l669.7-0.1c0.1,0,0.4,0,0.6,0c4-0.2,7.2-3.6,7.2-7.7V12.1
		c0-0.2,0-0.4,0-0.6c-0.2-4-3.6-7.2-7.7-7.2H12.9c-0.1,0-0.4,0-0.6,0c-4,0.2-7.2,3.6-7.2,7.7C5.1,12,5.1,351.1,5.1,351.1z"/>
	<path style="fill:#D7D0E7;" d="M5.6,350.9c0,4.1,3.3,7.4,7.4,7.4l669.1-0.1c0.1,0,0.4,0,0.6,0c3.9-0.2,7-3.4,7-7.4V12.4
		c0-0.1,0-0.4,0-0.6c-0.2-3.9-3.4-7-7.4-7H13.2c-0.1,0-0.4,0-0.5,0c-3.9,0.2-7,3.4-7,7.4L5.6,350.9z"/>
	<path style="fill:#DDD6EA;" d="M6.1,350.6c0,3.9,3.2,7.1,7.1,7.1l668.6-0.1c0.1,0,0.4,0,0.5,0c3.8-0.2,6.8-3.3,6.8-7.1V12.7
		c0-0.1,0-0.4,0-0.5c-0.2-3.8-3.3-6.8-7.1-6.8H13.5c-0.1,0-0.4,0-0.5,0c-3.8,0.2-6.8,3.3-6.8,7.1L6.1,350.6L6.1,350.6z"/>
	<path style="fill:#E3DEEE;" d="M6.6,350.4c0,3.8,3.1,6.9,6.9,6.9l668-0.1c0.1,0,0.4,0,0.5,0c3.7-0.1,6.6-3.2,6.6-6.9V13.1
		c0-0.1,0-0.4,0-0.5c-0.1-3.7-3.2-6.6-6.9-6.6h-668c-0.1,0-0.4,0-0.5,0c-3.6,0-6.6,3-6.6,6.7V350.4z"/>
	<path style="fill:#E9E5F2;" d="M7.1,350.1c0,3.7,3,6.6,6.6,6.6l667.5-0.1c0.1,0,0.4,0,0.5,0c3.6-0.1,6.4-3,6.4-6.6V13.3
		c0-0.1,0-0.4,0-0.5c-0.1-3.6-3-6.4-6.6-6.4H14h-0.5C10,6.5,7.1,9.4,7.1,13V350.1z"/>
	<path style="fill:#EFEBF5;" d="M7.6,349.8c0,3.5,2.9,6.4,6.4,6.4l666.9-0.1h0.5c3.4-0.1,6.2-2.9,6.2-6.4V13.6c0,0,0-0.4,0-0.5
		c-0.1-3.4-2.9-6.2-6.3-6.2h-667c0,0-0.4,0-0.5,0C10.3,7,7.6,9.8,7.6,13.2C7.6,13.2,7.6,349.8,7.6,349.8z"/>
	<path style="fill:#F6F4F9;" d="M8.2,349.6c0,3.4,2.7,6.1,6.1,6.1l666.4-0.1h0.4c3.3,0,6-2.7,6-6.1V13.8v-0.4c0-3.3-2.7-6-6.1-6
		H14.6h-0.4c-3.3,0-6,2.7-6,6.1C8.2,13.5,8.2,349.6,8.2,349.6z"/>
	<path style="fill:#FFFFFF;" d="M14.5,7.9c-3.2,0-5.8,2.6-5.8,5.8v335.6c0,3.2,2.6,5.8,5.8,5.8l666.2-0.1c3.2,0,5.8-2.6,5.8-5.8
		V13.7c0-3.2-2.6-5.8-5.8-5.8C680.7,7.9,14.5,7.9,14.5,7.9z"/>
	<path style="fill:#E4DEEE;" d="M253.5,285.2H8.7V13.7c0-3.2,2.6-5.8,5.8-5.8l239,0.1V285.2z"/>
	<path style="fill:#E4DEEE;" d="M9.3,353.5c-0.5-0.9-0.6-3.1-0.6-4.2v-64.2h244.8L9.3,353.5z"/>
	<path style="fill:#ECE9F4;" d="M687.4,285.2v64c0,3.2-2.6,5.8-5.8,5.8l-428.1,0.1v-70h433.9V285.2z"/>
	<path style="fill:#ECE9F4;" d="M253.5,355.1h-239c-2.1,0-4.2,0.1-5.2-1.6l244.1-68.4L253.5,355.1L253.5,355.1z"/>
	<path style="fill:#FFFFFF;" d="M253.5,8.1L680.8,8c3.2,0,5.8,2.6,5.8,5.8v271.4H253.5V8.1z"/>
</g>
</svg>
