
<svg xmlns="http://www.w3.org/2000/svg" version="1.1" xmlns:xlink="http://www.w3.org/1999/xlink" preserveAspectRatio="none" x="0px" y="0px" width="1280px" height="720px" viewBox="0 0 1280 720">
<defs>
<g id="Layer4_0_FILL">
<path fill="#1E1E1E" stroke="none" d="
M 402.8 445.3
L 402.8 442.25
Q 402.8 442.05 402.7 441.9 402.55 441.7 402.3 441.7
L 387.65 441.7
Q 387.05 441.7 386.95 441.85 386.8 441.95 386.8 442.4
L 386.6 457.15
Q 386.6 458.5 388.15 457.85 389.4 457.4 390.8 457.15 392.2 456.85 393.5 456.85 396.8 456.85 398.2 458.4 399.65 459.9 399.65 462.5 399.65 465.2 397.85 466.7 396.15 468.25 393.45 468.25 392.75 468.25 391.9 468.15 391.1 468.1 390.25 467.95 389.4 467.75 388.6 467.55 387.8 467.3 387.25 467 386.4 466.6 386.4 467.3
L 386.4 470.55
Q 386.4 470.85 386.4 471 386.45 471.1 386.7 471.3 387.35 471.6 388.3 471.8 389.2 472.05 390.15 472.2 391.1 472.3 391.9 472.4 392.75 472.45 393.15 472.45 395.45 472.45 397.5 471.8 399.6 471.15 401 469.85 404.15 467.05 404.15 462 404.15 459.9 403.4 458.25 402.65 456.55 401.35 455.35 400.05 454.2 398.3 453.55 396.55 452.95 394.55 452.95 392.6 452.95 391 453.3
L 391.15 445.9 402.3 445.9
Q 402.55 445.9 402.7 445.7 402.8 445.55 402.8 445.3
M 378.7 444.95
Q 376.15 441.4 371.45 441.4 369.15 441.4 367.35 442.2 365.5 443 364.2 444.4 362.9 445.8 362.2 447.7 361.55 449.6 361.55 451.8 361.55 454.1 362.25 455.9 362.9 457.7 364.2 459 365.5 460.3 367.3 461 369.05 461.7 371.2 461.7 371.95 461.7 372.75 461.5 373.55 461.3 374.3 460.95 375.05 460.6 375.7 460.15 376.3 459.7 376.65 459.2 376.4 461.1 375.8 462.8 375.2 464.45 374.2 465.7 373.2 466.95 371.75 467.65 370.3 468.35 368.2 468.35 366.8 468.35 365.65 468.25 364.45 468.15 363.4 467.7 362.85 467.5 362.75 468.05
L 362.65 471.25
Q 362.6 471.65 362.95 471.75 363.9 472.1 365.3 472.3 366.75 472.5 367.9 472.5 371.6 472.5 374.15 471.15 376.75 469.85 378.3 467.6 379.9 465.35 380.6 462.35 381.25 459.3 381.25 455.95 381.25 448.5 378.7 444.95
M 375.1 447.3
Q 375.8 448.2 376.2 449.4 376.6 450.6 376.6 451.95 376.6 454.4 375.15 456 373.65 457.55 371.05 457.55 368.6 457.55 367.3 455.95 365.95 454.35 365.95 451.6 365.95 448.7 367.45 447.05 369 445.35 371.4 445.35 372.5 445.35 373.45 445.9 374.4 446.4 375.1 447.3
M 414.55 436.85
Q 413.7 437.25 413.05 437.9 412.4 438.5 412 439.4 411.65 440.3 411.65 441.25 411.65 442.3 412 443.15 412.4 444.05 413.05 444.65 413.7 445.3 414.55 445.7 415.45 446.1 416.45 446.1 417.45 446.1 418.35 445.7 419.2 445.3 419.85 444.65 420.5 444.05 420.85 443.15 421.25 442.3 421.25 441.25 421.25 440.3 420.85 439.4 420.5 438.5 419.85 437.9 419.2 437.25 418.35 436.85 417.45 436.5 416.45 436.5 415.45 436.5 414.55 436.85
M 415 442.75
Q 414.35 442.1 414.35 441.25 414.35 440.45 415 439.8 415.6 439.15 416.45 439.15 417.3 439.15 417.9 439.8 418.55 440.45 418.55 441.25 418.55 442.1 417.9 442.75 417.3 443.4 416.45 443.4 415.6 443.4 415 442.75
M 936.35 338.95
Q 934.4 340.45 933.3 342.7 932.2 345 931.8 347.7 931.45 350.45 931.45 352.9 931.45 360.25 933.9 364.3 936.35 368.35 941.5 368.35 944.05 368.35 945.9 367.35 947.75 366.25 949 364.3 950.25 362.35 950.85 359.45 951.45 356.55 951.45 352.9 951.45 351.25 951.25 349.5 951.1 347.7 950.7 346 950.3 344.3 949.6 342.75 948.9 341.2 947.75 340 946.7 338.85 945.1 338.15 943.55 337.5 941.5 337.5 938.3 337.5 936.35 338.95
M 939.2 342.45
Q 940.2 341.85 941.5 341.85 942.7 341.85 943.75 342.45 944.75 343 945.5 344.3 946.2 345.65 946.6 347.75 946.95 349.9 946.95 352.9 946.95 356 946.6 358.15 946.2 360.25 945.5 361.55 944.75 362.9 943.75 363.45 942.7 364.05 941.5 364.05 940.2 364.05 939.2 363.45 938.2 362.9 937.5 361.55 936.75 360.25 936.4 358.15 936 356 936 352.9 936 349.9 936.4 347.75 936.75 345.65 937.5 344.3 938.2 343 939.2 342.45
M 910.3 338.75
Q 909.9 338.95 909.75 339.15 909.6 339.3 909.7 339.55
L 910.05 342.5
Q 910.15 342.85 910.35 342.95 910.55 343.05 911.05 342.85 911.65 342.6 912.45 342.35 913.25 342.1 914.05 341.95 914.85 341.75 915.6 341.65 916.3 341.55 916.85 341.55 917.7 341.55 918.65 341.75 919.6 341.95 920.45 342.45 921.25 342.9 921.8 343.7 922.3 344.45 922.3 345.45 922.3 346.8 921.5 347.7 920.7 348.65 919.5 349.25 918.35 349.85 917.1 350.1 915.85 350.35 915 350.35
L 913.1 350.35
Q 912.75 350.35 912.65 350.45 912.55 350.5 912.55 350.9
L 912.55 353.85
Q 912.55 354.15 912.65 354.25 912.75 354.35 913.1 354.35
L 915.05 354.35
Q 917 354.35 918.35 354.75 919.75 355.1 920.65 355.8 921.5 356.45 921.95 357.3 922.35 358.15 922.35 359.1 922.35 361.75 920.4 363.1 919.75 363.55 919 363.8 918.2 364.1 917.35 364.2 916.5 364.3 915.6 364.25 914.7 364.2 913.9 364.15 912.8 364.05 911.75 363.75 910.7 363.45 909.65 363.15 909.1 362.9 908.9 363.05 908.7 363.15 908.65 363.5
L 908.3 366.55
Q 908.25 366.9 908.45 367.05 908.6 367.25 909 367.35 910.45 367.9 912.2 368.2 913.95 368.5 915.7 368.5 918 368.5 920.15 367.9 922.3 367.35 923.8 366.1 925.3 364.85 926.15 363.1 926.95 361.3 926.95 359.2 926.95 357 925.6 355.2 924.25 353.45 921.6 352.3 922.7 351.8 923.65 351.05 924.6 350.3 925.3 349.3 926 348.35 926.4 347.3 926.75 346.2 926.75 345.1 926.75 343.1 925.9 341.6 925.05 340.1 923.7 339.2 922.4 338.3 920.65 337.85 918.9 337.4 917.1 337.4 915.4 337.4 913.75 337.75 912.05 338.15 910.3 338.75
M 966.55 333.9
Q 965.9 333.25 965.05 332.85 964.15 332.5 963.15 332.5 962.15 332.5 961.25 332.85 960.4 333.25 959.75 333.9 959.1 334.5 958.7 335.4 958.35 336.3 958.35 337.25 958.35 338.3 958.7 339.15 959.1 340.05 959.75 340.65 960.4 341.3 961.25 341.7 962.15 342.1 963.15 342.1 964.15 342.1 965.05 341.7 965.9 341.3 966.55 340.65 967.2 340.05 967.55 339.15 967.95 338.3 967.95 337.25 967.95 336.3 967.55 335.4 967.2 334.5 966.55 333.9
M 961.7 338.75
Q 961.05 338.1 961.05 337.25 961.05 336.45 961.7 335.8 962.3 335.15 963.15 335.15 964 335.15 964.6 335.8 965.25 336.45 965.25 337.25 965.25 338.1 964.6 338.75 964 339.4 963.15 339.4 962.3 339.4 961.7 338.75
M 1183 531.5
Q 1182 531.5 1181.1 531.85 1180.25 532.25 1179.6 532.9 1178.95 533.5 1178.55 534.4 1178.2 535.3 1178.2 536.25 1178.2 537.3 1178.55 538.15 1178.95 539.05 1179.6 539.65 1180.25 540.3 1181.1 540.7 1182 541.1 1183 541.1 1184 541.1 1184.9 540.7 1185.75 540.3 1186.4 539.65 1187.05 539.05 1187.4 538.15 1187.8 537.3 1187.8 536.25 1187.8 535.3 1187.4 534.4 1187.05 533.5 1186.4 532.9 1185.75 532.25 1184.9 531.85 1184 531.5 1183 531.5
M 1183 534.15
Q 1183.85 534.15 1184.45 534.8 1185.1 535.45 1185.1 536.25 1185.1 537.1 1184.45 537.75 1183.85 538.4 1183 538.4 1182.15 538.4 1181.55 537.75 1180.9 537.1 1180.9 536.25 1180.9 535.45 1181.55 534.8 1182.15 534.15 1183 534.15 Z"/>

<path fill="#FFFFFF" stroke="none" d="
M 1168.95 534.5
Q 1168.95 519.5 1153.95 519.5
L 1043.95 519.5
Q 1028.95 519.5 1028.95 534.5
L 1028.95 564.55
Q 1028.95 579.55 1043.95 579.55
L 1153.95 579.55
Q 1168.95 579.55 1168.95 564.55
L 1168.95 534.5 Z"/>
</g>

<g id="Layer4_2_FILL">
<path fill="#E50182" stroke="none" d="
M 364.6 273.5
L 377.7 265.95 364.6 258.35 364.6 273.5 Z"/>
</g>

<path id="Layer4_0_1_STROKES" stroke="#DBDBDB" stroke-width="3" stroke-linejoin="round" stroke-linecap="round" fill="none" d="
M 1043.95 519.5
L 1153.95 519.5
Q 1168.95 519.5 1168.95 534.5
L 1168.95 564.55
Q 1168.95 579.55 1153.95 579.55
L 1043.95 579.55
Q 1028.95 579.55 1028.95 564.55
L 1028.95 534.5
Q 1028.95 519.5 1043.95 519.5 Z"/>

<path id="Layer4_0_2_STROKES" stroke="#E50182" stroke-width="3" stroke-linejoin="round" stroke-linecap="round" fill="none" d="
M 851.2 321.45
Q 845.35 325 838 325 834 325 830.4 323.95
M 327.05 474.1
Q 328.2 474 329.4 474 340.15 474 347.75 481.6 355.4 489.25 355.4 500 355.4 500.5 355.4 501"/>

<path id="Layer4_1_1_STROKES" stroke="#E50182" stroke-width="3" stroke-linejoin="miter" stroke-linecap="butt" stroke-miterlimit="3" fill="none" d="
M 266.1 -32.65
Q 229.2 -26.1 216.95 -52.35"/>

<path id="Layer4_3_1_STROKES" stroke="#000000" stroke-width="3" stroke-linejoin="round" stroke-linecap="round" fill="none" d="
M -320.6 -108.95
L -300.475 109 -36.6 109"/>

<path id="Layer4_4_1_STROKES" stroke="#000000" stroke-width="3" stroke-linejoin="round" stroke-linecap="round" fill="none" d="
M 171.4 124
L 206.5 -108.525 295.35 121"/>
</defs>

<g transform="matrix( 1, 0, 0, 1, 0,0) ">
<use xlink:href="#Layer4_0_FILL"/>

<use xlink:href="#Layer4_0_1_STROKES"/>

<use xlink:href="#Layer4_0_2_STROKES"/>
</g>

<g transform="matrix( 1, 0, 0, 1, 630,392) ">
<use xlink:href="#Layer4_1_1_STROKES"/>
</g>

<g transform="matrix( 0.97454833984375, 0.2241668701171875, -0.2241668701171875, 0.97454833984375, 546.35,-4.45) ">
<use xlink:href="#Layer4_2_FILL"/>
</g>

<g transform="matrix( 1, 0, 0, 1, 630,392) ">
<use xlink:href="#Layer4_3_1_STROKES"/>
</g>

<g transform="matrix( 1, 0, 0, 1, 630,392) ">
<use xlink:href="#Layer4_4_1_STROKES"/>
</g>
</svg>
