
<svg xmlns="http://www.w3.org/2000/svg" version="1.1" xmlns:xlink="http://www.w3.org/1999/xlink" preserveAspectRatio="none" x="0px" y="0px" width="1280px" height="720px" viewBox="0 0 1280 720">
<defs>
<g id="Layer1_0_FILL">
<path fill="#3567D7" stroke="none" d="
M 1003.35 449.5
Q 1004.75 449.5 1005.95 449.6 1007.1 449.7 1008.15 450.1 1008.7 450.35 1008.8 449.8
L 1008.9 446.6
Q 1008.95 446.2 1008.6 446.1 1007.7 445.75 1006.25 445.55 1004.85 445.35 1003.7 445.35 999.95 445.35 997.4 446.65 994.85 448 993.25 450.25 991.7 452.45 991 455.5 990.3 458.5 990.3 461.9 990.3 469.35 992.85 472.9 995.4 476.45 1000.1 476.45 1002.4 476.45 1004.25 475.65 1006.1 474.85 1007.4 473.4 1008.7 472.05 1009.35 470.1 1010.05 468.25 1010.05 466.05 1010.05 463.75 1009.35 461.95 1008.65 460.1 1007.35 458.8 1006.1 457.5 1004.3 456.8 1002.55 456.1 1000.35 456.1 999.6 456.1 998.8 456.35 998 456.55 997.25 456.9 996.5 457.25 995.9 457.7 995.3 458.15 994.95 458.65 995.2 456.7 995.8 455 996.35 453.35 997.35 452.1 998.35 450.85 999.8 450.15 1001.3 449.5 1003.35 449.5
M 996.45 461.85
Q 997.9 460.3 1000.5 460.3 1002.95 460.3 1004.3 461.9 1005.65 463.45 1005.65 466.25 1005.65 469.1 1004.15 470.8 1002.6 472.45 1000.2 472.45 999.1 472.45 998.1 471.95 997.15 471.45 996.45 470.55 995.75 469.65 995.35 468.4 994.95 467.25 994.95 465.85 994.95 463.4 996.45 461.85 Z"/>
</g>

<path id="Layer1_0_1_STROKES" stroke="#FFA700" stroke-width="3" stroke-linejoin="miter" stroke-linecap="butt" stroke-miterlimit="3" fill="none" d="
M 208.25 378.55
L 208.25 401.6 185.25 401.6
M 208.25 598.15
L 208.25 575.1 185.25 575.1
M 505.95 378.55
L 505.95 401.6 528.95 401.6
M 505.95 598.15
L 505.95 575.1 528.95 575.1
M 341.5 581.5
L 341.5 558.45 318.5 558.45
M 372.55 581.5
L 372.55 558.45 395.55 558.45"/>
</defs>

<g transform="matrix( 1, 0, 0, 1, 0,0) ">
<use xlink:href="#Layer1_0_FILL"/>

<use xlink:href="#Layer1_0_1_STROKES"/>
</g>
</svg>
