
<svg xmlns="http://www.w3.org/2000/svg" version="1.1" xmlns:xlink="http://www.w3.org/1999/xlink" preserveAspectRatio="none" x="0px" y="0px" width="1280px" height="720px" viewBox="0 0 1280 720">
<defs>
<g id="Layer0_0_FILL">
<path fill="#1E1E1E" stroke="none" d="
M 786.35 392.65
L 786.5 385.25 797.65 385.25
Q 797.9 385.25 798.05 385.05 798.15 384.9 798.15 384.65
L 798.15 381.6
Q 798.15 381.4 798.05 381.25 797.9 381.05 797.65 381.05
L 783 381.05
Q 782.4 381.05 782.3 381.2 782.15 381.3 782.15 381.75
L 781.95 396.5
Q 781.95 397.85 783.5 397.2 784.75 396.75 786.15 396.5 787.55 396.2 788.85 396.2 792.15 396.2 793.55 397.75 795 399.25 795 401.85 795 404.55 793.2 406.05 791.5 407.6 788.8 407.6 788.1 407.6 787.25 407.5 786.45 407.45 785.6 407.3 784.75 407.1 783.95 406.9 783.15 406.65 782.6 406.35 781.75 405.95 781.75 406.65
L 781.75 409.9
Q 781.75 410.2 781.75 410.35 781.8 410.45 782.05 410.65 782.7 410.95 783.65 411.15 784.55 411.4 785.5 411.55 786.45 411.65 787.25 411.75 788.1 411.8 788.5 411.8 790.8 411.8 792.85 411.15 794.95 410.5 796.35 409.2 799.5 406.4 799.5 401.35 799.5 399.25 798.75 397.6 798 395.9 796.7 394.7 795.4 393.55 793.65 392.9 791.9 392.3 789.9 392.3 787.95 392.3 786.35 392.65
M 772.1 414
Q 773.35 414 774.25 413.1 775.1 412.2 775.1 410.9 775.1 409.6 774.25 408.75 773.35 407.85 772.1 407.85 770.8 407.85 769.9 408.75 769 409.6 769 410.9 769 412.2 769.9 413.1 770.8 414 772.1 414
M 745.3 382.5
Q 745.15 382.65 745.25 382.9
L 745.6 385.85
Q 745.7 386.2 745.9 386.3 746.1 386.4 746.6 386.2 747.2 385.95 748 385.7 748.8 385.45 749.6 385.3 750.4 385.1 751.15 385 751.85 384.9 752.4 384.9 753.25 384.9 754.2 385.1 755.15 385.3 756 385.8 756.8 386.25 757.35 387.05 757.85 387.8 757.85 388.8 757.85 390.15 757.05 391.05 756.25 392 755.05 392.6 753.9 393.2 752.65 393.45 751.4 393.7 750.55 393.7
L 748.65 393.7
Q 748.3 393.7 748.2 393.8 748.1 393.85 748.1 394.25
L 748.1 397.2
Q 748.1 397.5 748.2 397.6 748.3 397.7 748.65 397.7
L 750.6 397.7
Q 752.55 397.7 753.9 398.1 755.3 398.45 756.2 399.15 757.05 399.8 757.5 400.65 757.9 401.5 757.9 402.45 757.9 405.1 755.95 406.45 755.3 406.9 754.55 407.15 753.75 407.45 752.9 407.55 752.05 407.65 751.15 407.6 750.25 407.55 749.45 407.5 748.35 407.4 747.3 407.1 746.25 406.8 745.2 406.5 744.65 406.25 744.45 406.4 744.25 406.5 744.2 406.85
L 743.85 409.9
Q 743.8 410.25 744 410.4 744.15 410.6 744.55 410.7 746 411.25 747.75 411.55 749.5 411.85 751.25 411.85 753.55 411.85 755.7 411.25 757.85 410.7 759.35 409.45 760.85 408.2 761.7 406.45 762.5 404.65 762.5 402.55 762.5 400.35 761.15 398.55 759.8 396.8 757.15 395.65 758.25 395.15 759.2 394.4 760.15 393.65 760.85 392.65 761.55 391.7 761.95 390.65 762.3 389.55 762.3 388.45 762.3 386.45 761.45 384.95 760.6 383.45 759.25 382.55 757.95 381.65 756.2 381.2 754.45 380.75 752.65 380.75 750.95 380.75 749.3 381.1 747.6 381.5 745.85 382.1 745.45 382.3 745.3 382.5
M 739.1 402.55
Q 739.3 402.55 739.45 402.4 739.6 402.3 739.6 402.05
L 739.6 398.9
Q 739.6 398.7 739.45 398.55 739.3 398.45 739.1 398.45
L 718 398.45
Q 717.8 398.45 717.65 398.55 717.5 398.7 717.5 398.9
L 717.5 402.05
Q 717.5 402.3 717.65 402.4 717.8 402.55 718 402.55
L 739.1 402.55
M 718 390.1
Q 717.8 390.1 717.65 390.25 717.5 390.4 717.5 390.6
L 717.5 393.75
Q 717.5 393.95 717.65 394.1 717.8 394.25 718 394.25
L 739.1 394.25
Q 739.3 394.25 739.45 394.1 739.6 393.95 739.6 393.75
L 739.6 390.6
Q 739.6 390.4 739.45 390.25 739.3 390.1 739.1 390.1
L 718 390.1
M 600.2 394.75
Q 600.2 394.25 599.7 394.25
L 594 394.25 578.55 394.25
Q 578.35 394.25 578.25 394.4 578.1 394.55 578.1 394.75
L 578.1 397.85
Q 578.1 398.05 578.25 398.2 578.35 398.35 578.55 398.35
L 594 398.35 599.7 398.35
Q 600.2 398.35 600.2 397.85
L 600.2 394.75 Z"/>

<path fill="#FFFFFF" stroke="none" d="
M 485.55 366.55
Q 470.55 366.55 470.55 381.55
L 470.55 411.6
Q 470.55 426.6 485.55 426.6
L 555.55 426.6
Q 570.55 426.6 570.55 411.6
L 570.55 381.55
Q 570.55 366.55 555.55 366.55
L 485.55 366.55
M 707.55 381.55
Q 707.55 366.55 692.55 366.55
L 622.55 366.55
Q 607.55 366.55 607.55 381.55
L 607.55 411.6
Q 607.55 426.6 622.55 426.6
L 692.55 426.6
Q 707.55 426.6 707.55 411.6
L 707.55 381.55 Z"/>
</g>

<path id="Layer0_0_1_STROKES" stroke="#DBDBDB" stroke-width="3" stroke-linejoin="round" stroke-linecap="round" fill="none" d="
M 622.55 366.55
L 692.55 366.55
Q 707.55 366.55 707.55 381.55
L 707.55 411.6
Q 707.55 426.6 692.55 426.6
L 622.55 426.6
Q 607.55 426.6 607.55 411.6
L 607.55 381.55
Q 607.55 366.55 622.55 366.55 Z
M 485.55 366.55
L 555.55 366.55
Q 570.55 366.55 570.55 381.55
L 570.55 411.6
Q 570.55 426.6 555.55 426.6
L 485.55 426.6
Q 470.55 426.6 470.55 411.6
L 470.55 381.55
Q 470.55 366.55 485.55 366.55 Z"/>
</defs>

<g transform="matrix( 1, 0, 0, 1, 0,0) ">
<use xlink:href="#Layer0_0_FILL"/>

<use xlink:href="#Layer0_0_1_STROKES"/>
</g>
</svg>
