
<svg xmlns="http://www.w3.org/2000/svg" version="1.1" xmlns:xlink="http://www.w3.org/1999/xlink" preserveAspectRatio="none" x="0px" y="0px" width="532px" height="302px" viewBox="0 0 532 302">
<defs>
<g id="Layer1_0_FILL">
<path fill="#1E1E1E" stroke="none" d="
M 419.5 270.95
Q 418.8 270.25 418 269.75 417.2 269.25 416.3 269 415.4 268.7 414.4 268.7 413.3 268.75 412.35 269 411.4 269.25 410.6 269.7 409.8 270.2 409.1 270.85 408.4 271.55 407.85 272.35 407.3 273.2 406.95 274.25 406.55 275.3 406.25 276.5 405.95 277.7 405.85 279.05 405.7 280.4 405.7 281.85 405.7 283.25 405.8 284.6 405.95 285.9 406.2 287.1 406.45 288.25 406.8 289.3 407.25 290.4 407.8 291.25 408.4 292.15 409.1 292.8 409.8 293.5 410.55 293.95 411.35 294.45 412.3 294.7 413.25 294.95 414.4 294.95 415.4 294.95 416.3 294.7 417.2 294.45 418.05 293.95 418.85 293.5 419.55 292.8 420.25 292.15 420.8 291.25 421.4 290.4 421.85 289.3 422.3 288.25 422.6 287.1 422.85 285.9 423 284.6 423.15 283.25 423.15 281.85 423.15 280.45 423 279.15 422.85 277.8 422.6 276.6 422.25 275.4 421.8 274.35 421.35 273.35 420.75 272.45 420.15 271.6 419.5 270.95
M 415.35 272.95
Q 415.8 273.1 416.3 273.45 416.7 273.8 417.1 274.3 417.45 274.8 417.75 275.4 417.95 276.05 418.15 276.75 418.35 277.45 418.55 278.3 418.7 279.15 418.8 280 418.9 280.9 418.9 281.85 418.9 282.8 418.8 283.7 418.75 284.6 418.6 285.4 418.2 287.1 417.75 288.3 417.5 288.95 417.1 289.45 416.75 289.95 416.3 290.3 415.85 290.7 415.35 290.85 414.9 291.05 414.4 291.05 413.8 291.05 413.3 290.85 412.8 290.7 412.4 290.3 411.55 289.55 410.95 288.3 410.65 287.65 410.5 286.9 410.3 286.15 410.2 285.3 410.05 284.5 409.95 283.65 409.9 282.75 409.9 281.85 409.9 280.9 409.95 280 410.05 279.1 410.2 278.25 410.3 277.45 410.5 276.7 410.7 275.95 410.95 275.35 411.25 274.75 411.65 274.25 412.05 273.8 412.45 273.4 412.85 273.1 413.35 272.95 413.85 272.75 414.4 272.75 414.85 272.75 415.35 272.95
M 394.85 269.55
Q 394.65 269.75 394.55 270 394.45 270.3 394.35 270.55 394.2 270.85 394.1 271.15 394 271.45 393.9 271.8 393.8 272.1 393.7 272.35 393.55 272.6 393.4 272.75 393.15 272.95 392.85 273.1 392.5 273.25 392.2 273.3 391.8 273.35 391.45 273.4 391.05 273.4 390.7 273.4 390.25 273.45 389.9 273.6 389.6 273.75 389.4 274 389.1 274.3 389 274.6 388.9 274.95 388.9 275.3 388.9 275.7 389 276 389.1 276.3 389.3 276.6 389.5 276.95 389.8 277.1 390.1 277.25 390.55 277.25
L 393.7 277.25
Q 393.7 279.2 393.7 281.1 393.7 283.05 393.7 284.95 393.7 288.8 393.7 292.7 393.7 293.1 393.9 293.35 394.05 293.65 394.4 293.9 394.7 294.15 395.1 294.3 395.45 294.45 395.9 294.45 396 294.45 396.2 294.4 396.35 294.35 396.5 294.25 396.6 294.2 396.8 294.15 396.95 294.05 397.1 293.95 397.3 293.85 397.45 293.65 397.6 293.5 397.7 293.35 397.8 293.2 397.85 293.05 397.9 292.9 397.9 292.7
L 397.9 291.25
Q 397.9 288.6 397.9 286.05 397.9 283.45 397.9 280.95 397.85 278.45 397.85 275.9 397.85 273.35 397.85 270.75 397.85 270.1 397.2 269.6 396.9 269.35 396.6 269.25 396.3 269.1 396.05 269.1 395.6 269.1 395.3 269.2 394.95 269.3 394.85 269.55
M 421.4 231.3
Q 420.95 232.4 420.65 233.65 420.3 234.9 420.15 236.3 420 237.7 420 239.25 420 240.75 420.15 242.1 420.25 243.4 420.55 244.6 420.8 245.8 421.25 246.85 421.7 247.9 422.35 248.75 422.9 249.6 423.6 250.3 424.3 250.95 425.15 251.45 426.8 252.35 429.25 252.35 430.15 252.35 431 252.2 431.85 252 432.55 251.65 433.3 251.3 433.95 250.85 434.6 250.35 435.25 249.7 435.75 249.1 436.15 248.4 436.6 247.7 436.85 246.85 437.1 246.1 437.25 245.2 437.4 244.3 437.4 243.4 437.4 242.5 437.25 241.7 437.15 240.9 436.9 240.1 436.65 239.35 436.25 238.7 435.9 238 435.4 237.4 434.8 236.8 434.2 236.35 433.6 235.9 432.95 235.55 432.25 235.2 431.55 235.05 430.85 234.85 430.1 234.85 429.95 234.85 429.85 234.9 429.75 234.9 429.65 234.9 429.55 234.95 429.45 234.95 429.35 235 429.25 235 427.5 235.05 426.3 235.65 425.7 235.95 425.25 236.25 424.75 236.6 424.35 236.95 424.35 236.5 424.4 235.95 424.45 235.4 424.6 234.75 424.7 234.1 424.9 233.5 425.1 232.9 425.3 232.25 425.85 231.1 426.9 230.3 427.4 229.9 428 229.7 428.65 229.5 429.45 229.5 429.95 229.5 430.35 229.55 430.8 229.6 431.1 229.75 431.4 229.9 431.65 230.1 431.95 230.3 432.25 230.55 432.4 230.75 432.55 231 432.7 231.25 432.85 231.5 433.05 232.1 433.45 232.45 433.55 232.7 433.7 232.85 433.85 233.05 434 233.25 434.25 233.55 434.95 233.55 435.25 233.55 435.6 233.45 435.95 233.3 436.3 233.1 436.65 232.85 436.8 232.6 436.95 232.25 436.95 231.85 436.95 231.4 436.8 230.9 436.65 230.35 436.3 229.8 435.95 229.3 435.6 228.8 435.3 228.3 434.95 227.85 433.8 226.75 432.45 226.15 431.05 225.6 429.5 225.6 428.3 225.6 427.3 225.85 426.3 226.1 425.45 226.6 424.6 227.05 423.85 227.75 423.1 228.45 422.5 229.35 421.85 230.25 421.4 231.3
M 424.75 243.55
Q 424.75 242.45 425 241.55 425.3 240.7 425.9 240 426.4 239.35 427.2 239 428.05 238.7 429.15 238.7 430.05 238.7 430.85 239 431.6 239.35 432.25 240 432.8 240.65 433.1 241.55 433.45 242.4 433.45 243.55 433.45 244.7 433.1 245.6 432.8 246.5 432.25 247.15 431.6 247.85 430.85 248.15 430.05 248.5 429.15 248.5 428.1 248.5 427.25 248.15 426.45 247.8 425.9 247.1 424.75 245.8 424.75 243.55
M 415.35 238.5
Q 414.9 238.05 414.05 238.05
L 397.6 238.05
Q 396.75 238.05 396.3 238.5 395.85 238.95 395.85 239.8 395.85 240.65 396.3 241.05 396.75 241.5 397.6 241.5
L 414.05 241.5
Q 414.9 241.5 415.35 241.05 415.8 240.65 415.8 239.8 415.8 238.95 415.35 238.5
M 383.15 225.55
Q 381.45 225.55 379.95 226.1 379.25 226.35 378.6 226.75 377.95 227.15 377.4 227.6 376.9 228.1 376.5 228.65 376.1 229.2 375.8 229.8 375.45 230.5 375.3 231.2 375.15 231.9 375.15 232.65 375.15 233.5 375.35 234.3 375.55 235.1 376 235.8 376.4 236.55 376.95 237.15 377.5 237.75 378.25 238.25 376.5 239.3 375.4 240.85 374.8 241.65 374.5 242.55 374.2 243.45 374.15 244.4 374.15 245.3 374.35 246.1 374.5 246.85 374.85 247.6 375.2 248.35 375.7 248.95 376.2 249.6 376.85 250.15 377.45 250.65 378.15 251.1 378.9 251.55 379.65 251.85 380.45 252.2 381.3 252.35 382.15 252.5 383.15 252.5 385 252.5 386.7 251.85 388.3 251.25 389.5 250.2 390.15 249.65 390.65 249.05 391.15 248.45 391.5 247.75 392.2 246.4 392.2 244.7 392.2 243.7 391.95 242.8 391.65 241.85 391.1 241 390.55 240.2 389.85 239.5 389.15 238.8 388.3 238.25 388.85 237.8 389.35 237.25 389.85 236.7 390.25 236.05 390.65 235.35 390.9 234.65 391.15 233.95 391.25 233.15 391.3 233.05 391.35 232.9 391.4 232.8 391.4 232.65 391.4 231.9 391.25 231.25 391.1 230.55 390.75 229.9 390 228.65 389 227.7 388.45 227.2 387.85 226.8 387.2 226.4 386.5 226.1 385.75 225.85 384.9 225.7 384.05 225.55 383.15 225.55
M 379.45 234.3
Q 379.2 233.65 379.2 232.95 379.2 232.25 379.45 231.65 379.7 231.1 380.15 230.55 380.6 230.1 381.35 229.85 382.1 229.6 383.15 229.6 384.2 229.6 385 229.85 385.8 230.1 386.3 230.55 386.7 231.05 386.95 231.65 387.2 232.25 387.2 232.95 387.2 233.65 386.95 234.3 386.7 234.9 386.3 235.4 385.8 235.9 385 236.15 384.2 236.35 383.15 236.35 382.1 236.35 381.4 236.15 380.65 235.9 380.2 235.4 379.7 234.9 379.45 234.3
M 381.15 240.7
Q 382 240.45 383.15 240.45 384.35 240.45 385.25 240.7 386.2 241 386.85 241.6 387.45 242.15 387.75 242.9 388.05 243.6 388.05 244.5 388.05 245.3 387.75 246.05 387.45 246.7 386.85 247.3 386.2 247.9 385.25 248.2 384.35 248.5 383.15 248.5 380.95 248.5 379.65 247.3 379 246.75 378.7 246.05 378.35 245.3 378.35 244.5 378.35 243.6 378.7 242.85 379 242.15 379.65 241.55 380.3 241 381.15 240.7
M 362.7 159.2
Q 361.75 159.45 360.95 159.9 360.15 160.4 359.45 161.05 358.75 161.75 358.2 162.55 357.65 163.4 357.3 164.45 356.9 165.5 356.6 166.7 356.3 167.9 356.2 169.25 356.05 170.6 356.05 172.05 356.05 173.45 356.15 174.8 356.3 176.1 356.55 177.3 356.8 178.45 357.15 179.5 357.6 180.6 358.15 181.45 358.75 182.35 359.45 183 360.15 183.7 360.9 184.15 361.7 184.65 362.65 184.9 363.6 185.15 364.75 185.15 365.75 185.15 366.65 184.9 367.55 184.65 368.4 184.15 369.2 183.7 369.9 183 370.6 182.35 371.15 181.45 371.75 180.6 372.2 179.5 372.65 178.45 372.95 177.3 373.2 176.1 373.35 174.8 373.5 173.45 373.5 172.05 373.5 170.65 373.35 169.35 373.2 168 372.95 166.8 372.6 165.6 372.15 164.55 371.7 163.55 371.1 162.65 370.5 161.8 369.85 161.15 369.15 160.45 368.35 159.95 367.55 159.45 366.65 159.2 365.75 158.9 364.75 158.9 363.65 158.95 362.7 159.2
M 362 164.45
Q 362.4 164 362.8 163.6 363.2 163.3 363.7 163.15 364.2 162.95 364.75 162.95 365.2 162.95 365.7 163.15 366.15 163.3 366.65 163.65 367.05 164 367.45 164.5 367.8 165 368.1 165.6 368.3 166.25 368.5 166.95 368.7 167.65 368.9 168.5 369.05 169.35 369.15 170.2 369.25 171.1 369.25 172.05 369.25 173 369.15 173.9 369.1 174.8 368.95 175.6 368.55 177.3 368.1 178.5 367.85 179.15 367.45 179.65 367.1 180.15 366.65 180.5 366.2 180.9 365.7 181.05 365.25 181.25 364.75 181.25 364.15 181.25 363.65 181.05 363.15 180.9 362.75 180.5 361.9 179.75 361.3 178.5 361 177.85 360.85 177.1 360.65 176.35 360.55 175.5 360.4 174.7 360.3 173.85 360.25 172.95 360.25 172.05 360.25 171.1 360.3 170.2 360.4 169.3 360.55 168.45 360.65 167.65 360.85 166.9 361.05 166.15 361.3 165.55 361.6 164.95 362 164.45
M 344.9 160.2
Q 344.8 160.5 344.7 160.75 344.55 161.05 344.45 161.35 344.35 161.65 344.25 162 344.15 162.3 344.05 162.55 343.9 162.8 343.75 162.95 343.5 163.15 343.2 163.3 342.85 163.45 342.55 163.5 342.15 163.55 341.8 163.6 341.4 163.6 341.05 163.6 340.6 163.65 340.25 163.8 339.95 163.95 339.75 164.2 339.45 164.5 339.35 164.8 339.25 165.15 339.25 165.5 339.25 165.9 339.35 166.2 339.45 166.5 339.65 166.8 339.85 167.15 340.15 167.3 340.45 167.45 340.9 167.45
L 344.05 167.45
Q 344.05 169.4 344.05 171.3 344.05 173.25 344.05 175.15 344.05 179 344.05 182.9 344.05 183.3 344.25 183.55 344.4 183.85 344.75 184.1 345.05 184.35 345.45 184.5 345.8 184.65 346.25 184.65 346.35 184.65 346.55 184.6 346.7 184.55 346.85 184.45 346.95 184.4 347.15 184.35 347.3 184.25 347.45 184.15 347.65 184.05 347.8 183.85 347.95 183.7 348.05 183.55 348.15 183.4 348.2 183.25 348.25 183.1 348.25 182.9
L 348.25 181.45
Q 348.25 178.8 348.25 176.25 348.25 173.65 348.25 171.15 348.2 168.65 348.2 166.1 348.2 163.55 348.2 160.95 348.2 160.3 347.55 159.8 347.25 159.55 346.95 159.45 346.65 159.3 346.4 159.3 345.95 159.3 345.65 159.4 345.3 159.5 345.2 159.75 345 159.95 344.9 160.2
M 258.05 159.95
Q 257.25 159.45 256.35 159.2 255.45 158.9 254.45 158.9 253.35 158.95 252.4 159.2 251.45 159.45 250.65 159.9 249.85 160.4 249.15 161.05 248.45 161.75 247.9 162.55 247.35 163.4 247 164.45 246.6 165.5 246.3 166.7 246 167.9 245.9 169.25 245.75 170.6 245.75 172.05 245.75 173.45 245.85 174.8 246 176.1 246.25 177.3 246.5 178.45 246.85 179.5 247.3 180.6 247.85 181.45 248.45 182.35 249.15 183 249.85 183.7 250.6 184.15 251.4 184.65 252.35 184.9 253.3 185.15 254.45 185.15 255.45 185.15 256.35 184.9 257.25 184.65 258.1 184.15 258.9 183.7 259.6 183 260.3 182.35 260.85 181.45 261.45 180.6 261.9 179.5 262.35 178.45 262.65 177.3 262.9 176.1 263.05 174.8 263.2 173.45 263.2 172.05 263.2 170.65 263.05 169.35 262.9 168 262.65 166.8 262.3 165.6 261.85 164.55 261.4 163.55 260.8 162.65 260.2 161.8 259.55 161.15 258.85 160.45 258.05 159.95
M 251.7 164.45
Q 252.1 164 252.5 163.6 252.9 163.3 253.4 163.15 253.9 162.95 254.45 162.95 254.9 162.95 255.4 163.15 255.85 163.3 256.35 163.65 256.75 164 257.15 164.5 257.5 165 257.8 165.6 258 166.25 258.2 166.95 258.4 167.65 258.6 168.5 258.75 169.35 258.85 170.2 258.95 171.1 258.95 172.05 258.95 173 258.85 173.9 258.8 174.8 258.65 175.6 258.25 177.3 257.8 178.5 257.55 179.15 257.15 179.65 256.8 180.15 256.35 180.5 255.9 180.9 255.4 181.05 254.95 181.25 254.45 181.25 253.85 181.25 253.35 181.05 252.85 180.9 252.45 180.5 251.6 179.75 251 178.5 250.7 177.85 250.55 177.1 250.35 176.35 250.25 175.5 250.1 174.7 250 173.85 249.95 172.95 249.95 172.05 249.95 171.1 250 170.2 250.1 169.3 250.25 168.45 250.35 167.65 250.55 166.9 250.75 166.15 251 165.55 251.3 164.95 251.7 164.45
M 237.25 159.8
Q 236.95 159.55 236.65 159.45 236.35 159.3 236.1 159.3 235.65 159.3 235.35 159.4 235 159.5 234.9 159.75 234.7 159.95 234.6 160.2 234.5 160.5 234.4 160.75 234.25 161.05 234.15 161.35 234.05 161.65 233.95 162 233.85 162.3 233.75 162.55 233.6 162.8 233.45 162.95 233.2 163.15 232.9 163.3 232.55 163.45 232.25 163.5 231.85 163.55 231.5 163.6 231.1 163.6 230.75 163.6 230.3 163.65 229.95 163.8 229.65 163.95 229.45 164.2 229.15 164.5 229.05 164.8 228.95 165.15 228.95 165.5 228.95 165.9 229.05 166.2 229.15 166.5 229.35 166.8 229.55 167.15 229.85 167.3 230.15 167.45 230.6 167.45
L 233.75 167.45
Q 233.75 169.4 233.75 171.3 233.75 173.25 233.75 175.15 233.75 179 233.75 182.9 233.75 183.3 233.95 183.55 234.1 183.85 234.45 184.1 234.75 184.35 235.15 184.5 235.5 184.65 235.95 184.65 236.05 184.65 236.25 184.6 236.4 184.55 236.55 184.45 236.65 184.4 236.85 184.35 237 184.25 237.15 184.15 237.35 184.05 237.5 183.85 237.65 183.7 237.75 183.55 237.85 183.4 237.9 183.25 237.95 183.1 237.95 182.9
L 237.95 181.45
Q 237.95 178.8 237.95 176.25 237.95 173.65 237.95 171.15 237.9 168.65 237.9 166.1 237.9 163.55 237.9 160.95 237.9 160.3 237.25 159.8
M 272.95 117.25
Q 272.75 117 272.45 116.8 272 116.55 271.6 116.45 271.2 116.4 270.8 116.5 270.35 116.6 270 116.85 269.6 117.1 269.35 117.5
L 269.1 117.9
Q 268.5 118.8 267.9 119.75 267.3 120.75 266.7 121.8 266.05 122.9 265.45 123.95 264.8 125.05 264.1 126.05 262.75 128.2 261.5 130.2 260.8 131.2 260.15 132.25 259.45 133.25 258.8 134.3
L 258.65 134.75 258.6 134.75 258.6 134.8 258.55 134.85
Q 258.45 135.05 258.35 135.25 258.3 135.4 258.25 135.65 258.2 135.85 258.2 136.1 258.25 136.3 258.3 136.5 258.35 136.75 258.4 136.95 258.5 137.15 258.6 137.35 258.65 137.55 258.8 137.7 258.9 137.85 259.1 137.95 259.3 138.05 259.45 138.1 259.65 138.15 259.9 138.25 260.05 138.3 260.25 138.3 260.45 138.3 260.65 138.25
L 269.45 138.25 269.45 139.9
Q 269.45 140.5 269.6 140.9 269.75 141.3 270.05 141.45 270.55 141.9 271.6 141.9 272.3 141.9 272.95 141.45 273.6 141.1 273.6 139.9
L 273.6 138.25 274.75 138.25
Q 275.35 138.25 275.7 138.1 276.05 138 276.25 137.65 276.4 137.35 276.5 137 276.55 136.65 276.55 136.15 276.55 135.8 276.5 135.45 276.4 135.1 276.25 134.75 276.05 134.45 275.7 134.3 275.35 134.1 274.75 134.1
L 273.6 134.1 273.5 118.65
Q 273.5 118.4 273.45 118.2 273.4 117.95 273.3 117.7 273.15 117.45 272.95 117.25
M 267.4 127.85
Q 267.8 127.25 268.15 126.65 268.9 125.5 269.35 124.65
L 269.35 134.2 263.3 134.2
Q 263.7 133.7 264.1 133.05 264.5 132.45 264.9 131.8 265.35 131.15 265.75 130.45 266.1 129.8 266.5 129.15 266.95 128.5 267.4 127.85
M 235.55 131.25
Q 236 131.7 236.85 131.7
L 253.3 131.7
Q 254.15 131.7 254.6 131.25 255.05 130.85 255.05 130 255.05 129.15 254.6 128.7 254.15 128.25 253.3 128.25
L 236.85 128.25
Q 236 128.25 235.55 128.7 235.1 129.15 235.1 130 235.1 130.85 235.55 131.25
M 231.65 117
Q 231.45 116.85 231.2 116.85 229.35 116.85 227.5 116.85 225.7 116.85 223.95 116.85 222.1 116.85 220.3 116.85 218.55 116.9 216.8 116.9 216.25 116.95 215.95 117.1 215.6 117.25 215.45 117.6 215.25 117.9 215.2 118.25 215.1 118.6 215.1 119 215.1 119.45 215.2 119.8 215.25 120.15 215.45 120.45 215.6 120.75 215.95 120.9 216.3 121.05 216.8 121.05
L 227.1 121.05
Q 226.65 121.7 226.15 122.5 225.65 123.3 225.15 124.25 224.6 125.15 224.05 126.2 223.45 127.2 222.85 128.3 222.3 129.4 221.85 130.5 221.35 131.6 220.9 132.7 219.95 135.05 219.6 137.05 219.5 137.55 219.4 138.05 219.25 138.5 219.15 138.95 219 139.35 218.9 139.75 218.85 140.15 218.8 140.45 218.8 140.9 219 141.2 219.2 141.5 219.5 141.7 219.85 141.9 220.2 142 220.65 142.05 221.15 142.05 221.65 142.05 222 141.95 222.4 141.85 222.65 141.65 222.85 141.45 223 141.2 223.15 140.9 223.3 140.45 223.45 140.1 223.55 139.65 223.65 139.2 223.75 138.6 223.8 138.05 223.9 137.45 224 136.85 224.15 136.15 224.3 135.35 224.55 134.55 224.75 133.75 225.1 132.9 225.35 132 225.7 131.2 226.05 130.35 226.45 129.6 226.75 128.8 227.1 128.05 227.4 127.3 227.8 126.6 228.1 125.95 228.35 125.4 228.65 124.85 228.9 124.4 229.25 123.85 229.6 123.45 230 123 230.3 122.6 230.6 122.3 230.85 121.95 231.1 121.65 231.35 121.3 231.5 121.1 231.65 120.85 231.85 120.55 232 120.25 232.3 119.75 232.3 119
L 232.3 118.6
Q 232.3 118.3 232.25 117.95 232.2 117.7 232.05 117.4 231.9 117.15 231.65 117
M 150.2 159.2
Q 149.3 158.9 148.3 158.9 147.2 158.95 146.25 159.2 145.3 159.45 144.5 159.9 143.7 160.4 143 161.05 142.3 161.75 141.75 162.55 141.2 163.4 140.85 164.45 140.45 165.5 140.15 166.7 139.85 167.9 139.75 169.25 139.6 170.6 139.6 172.05 139.6 173.45 139.7 174.8 139.85 176.1 140.1 177.3 140.35 178.45 140.7 179.5 141.15 180.6 141.7 181.45 142.3 182.35 143 183 143.7 183.7 144.45 184.15 145.25 184.65 146.2 184.9 147.15 185.15 148.3 185.15 149.3 185.15 150.2 184.9 151.1 184.65 151.95 184.15 152.75 183.7 153.45 183 154.15 182.35 154.7 181.45 155.3 180.6 155.75 179.5 156.2 178.45 156.5 177.3 156.75 176.1 156.9 174.8 157.05 173.45 157.05 172.05 157.05 170.65 156.9 169.35 156.75 168 156.5 166.8 156.15 165.6 155.7 164.55 155.25 163.55 154.65 162.65 154.05 161.8 153.4 161.15 152.7 160.45 151.9 159.95 151.1 159.45 150.2 159.2
M 147.25 163.15
Q 147.75 162.95 148.3 162.95 148.75 162.95 149.25 163.15 149.7 163.3 150.2 163.65 150.6 164 151 164.5 151.35 165 151.65 165.6 151.85 166.25 152.05 166.95 152.25 167.65 152.45 168.5 152.6 169.35 152.7 170.2 152.8 171.1 152.8 172.05 152.8 173 152.7 173.9 152.65 174.8 152.5 175.6 152.1 177.3 151.65 178.5 151.4 179.15 151 179.65 150.65 180.15 150.2 180.5 149.75 180.9 149.25 181.05 148.8 181.25 148.3 181.25 147.7 181.25 147.2 181.05 146.7 180.9 146.3 180.5 145.45 179.75 144.85 178.5 144.55 177.85 144.4 177.1 144.2 176.35 144.1 175.5 143.95 174.7 143.85 173.85 143.8 172.95 143.8 172.05 143.8 171.1 143.85 170.2 143.95 169.3 144.1 168.45 144.2 167.65 144.4 166.9 144.6 166.15 144.85 165.55 145.15 164.95 145.55 164.45 145.95 164 146.35 163.6 146.75 163.3 147.25 163.15
M 131.1 159.8
Q 130.8 159.55 130.5 159.45 130.2 159.3 129.95 159.3 129.5 159.3 129.2 159.4 128.85 159.5 128.75 159.75 128.55 159.95 128.45 160.2 128.35 160.5 128.25 160.75 128.1 161.05 128 161.35 127.9 161.65 127.8 162 127.7 162.3 127.6 162.55 127.45 162.8 127.3 162.95 127.05 163.15 126.75 163.3 126.4 163.45 126.1 163.5 125.7 163.55 125.35 163.6 124.95 163.6 124.6 163.6 124.15 163.65 123.8 163.8 123.5 163.95 123.3 164.2 123 164.5 122.9 164.8 122.8 165.15 122.8 165.5 122.8 165.9 122.9 166.2 123 166.5 123.2 166.8 123.4 167.15 123.7 167.3 124 167.45 124.45 167.45
L 127.6 167.45
Q 127.6 169.4 127.6 171.3 127.6 173.25 127.6 175.15 127.6 179 127.6 182.9 127.6 183.3 127.8 183.55 127.95 183.85 128.3 184.1 128.6 184.35 129 184.5 129.35 184.65 129.8 184.65 129.9 184.65 130.1 184.6 130.25 184.55 130.4 184.45 130.5 184.4 130.7 184.35 130.85 184.25 131 184.15 131.2 184.05 131.35 183.85 131.5 183.7 131.6 183.55 131.7 183.4 131.75 183.25 131.8 183.1 131.8 182.9
L 131.8 181.45
Q 131.8 178.8 131.8 176.25 131.8 173.65 131.8 171.15 131.75 168.65 131.75 166.1 131.75 163.55 131.75 160.95 131.75 160.3 131.1 159.8
M 64.5 159.2
Q 63.6 158.9 62.6 158.9 61.5 158.95 60.55 159.2 59.6 159.45 58.8 159.9 58 160.4 57.3 161.05 56.6 161.75 56.05 162.55 55.5 163.4 55.15 164.45 54.75 165.5 54.45 166.7 54.15 167.9 54.05 169.25 53.9 170.6 53.9 172.05 53.9 173.45 54 174.8 54.15 176.1 54.4 177.3 54.65 178.45 55 179.5 55.45 180.6 56 181.45 56.6 182.35 57.3 183 58 183.7 58.75 184.15 59.55 184.65 60.5 184.9 61.45 185.15 62.6 185.15 63.6 185.15 64.5 184.9 65.4 184.65 66.25 184.15 67.05 183.7 67.75 183 68.45 182.35 69 181.45 69.6 180.6 70.05 179.5 70.5 178.45 70.8 177.3 71.05 176.1 71.2 174.8 71.35 173.45 71.35 172.05 71.35 170.65 71.2 169.35 71.05 168 70.8 166.8 70.45 165.6 70 164.55 69.55 163.55 68.95 162.65 68.35 161.8 67.7 161.15 67 160.45 66.2 159.95 65.4 159.45 64.5 159.2
M 65.95 165.6
Q 66.15 166.25 66.35 166.95 66.55 167.65 66.75 168.5 66.9 169.35 67 170.2 67.1 171.1 67.1 172.05 67.1 173 67 173.9 66.95 174.8 66.8 175.6 66.4 177.3 65.95 178.5 65.7 179.15 65.3 179.65 64.95 180.15 64.5 180.5 64.05 180.9 63.55 181.05 63.1 181.25 62.6 181.25 62 181.25 61.5 181.05 61 180.9 60.6 180.5 59.75 179.75 59.15 178.5 58.85 177.85 58.7 177.1 58.5 176.35 58.4 175.5 58.25 174.7 58.15 173.85 58.1 172.95 58.1 172.05 58.1 171.1 58.15 170.2 58.25 169.3 58.4 168.45 58.5 167.65 58.7 166.9 58.9 166.15 59.15 165.55 59.45 164.95 59.85 164.45 60.25 164 60.65 163.6 61.05 163.3 61.55 163.15 62.05 162.95 62.6 162.95 63.05 162.95 63.55 163.15 64 163.3 64.5 163.65 64.9 164 65.3 164.5 65.65 165 65.95 165.6
M 37.2 166.2
Q 37.3 166.5 37.5 166.8 37.7 167.15 38 167.3 38.3 167.45 38.75 167.45
L 41.9 167.45
Q 41.9 169.4 41.9 171.3 41.9 173.25 41.9 175.15 41.9 179 41.9 182.9 41.9 183.3 42.1 183.55 42.25 183.85 42.6 184.1 42.9 184.35 43.3 184.5 43.65 184.65 44.1 184.65 44.2 184.65 44.4 184.6 44.55 184.55 44.7 184.45 44.8 184.4 45 184.35 45.15 184.25 45.3 184.15 45.5 184.05 45.65 183.85 45.8 183.7 45.9 183.55 46 183.4 46.05 183.25 46.1 183.1 46.1 182.9
L 46.1 181.45
Q 46.1 178.8 46.1 176.25 46.1 173.65 46.1 171.15 46.05 168.65 46.05 166.1 46.05 163.55 46.05 160.95 46.05 160.3 45.4 159.8 45.1 159.55 44.8 159.45 44.5 159.3 44.25 159.3 43.8 159.3 43.5 159.4 43.15 159.5 43.05 159.75 42.85 159.95 42.75 160.2 42.65 160.5 42.55 160.75 42.4 161.05 42.3 161.35 42.2 161.65 42.1 162 42 162.3 41.9 162.55 41.75 162.8 41.6 162.95 41.35 163.15 41.05 163.3 40.7 163.45 40.4 163.5 40 163.55 39.65 163.6 39.25 163.6 38.9 163.6 38.45 163.65 38.1 163.8 37.8 163.95 37.6 164.2 37.3 164.5 37.2 164.8 37.1 165.15 37.1 165.5 37.1 165.9 37.2 166.2
M 276.25 12.35
Q 276.1 11.65 275.85 11 275.6 10.3 275.2 9.7 274.8 9.1 274.35 8.55 273.75 8.05 273.1 7.6 272.45 7.2 271.75 6.85 271.05 6.55 270.25 6.4 269.5 6.2 268.65 6.2
L 268.6 6.2
Q 267.75 6.2 267 6.35 266.25 6.55 265.6 6.85 264.85 7.2 264.25 7.65 263.6 8.05 263.1 8.6 262.15 9.65 261.6 10.9 261.35 11.55 261.2 12.2 261.05 12.8 261.05 13.45 261.05 13.8 261.2 14.1 261.35 14.4 261.6 14.6 261.9 14.8 262.2 14.95 262.45 15.05 262.8 15.05 263.25 15.05 263.65 14.85 264.1 14.7 264.45 14.4 264.75 14.05 264.95 13.65 265.1 13.25 265.1 12.75 265.1 12.6 265.2 12.4 265.25 12.15 265.45 11.9 265.55 11.65 265.7 11.4 265.9 11.2 266.1 11 266.4 10.8 266.7 10.65 267 10.45 267.35 10.3 267.7 10.2 268 10.15 268.3 10.05 268.65 10.05 269.15 10.05 269.55 10.15 270 10.25 270.35 10.4 270.7 10.55 271 10.8 271.3 11 271.55 11.25 271.75 11.5 271.9 11.85 272.1 12.15 272.25 12.45 272.4 12.8 272.5 13.1 272.55 13.45 272.55 13.75 272.55 14.05 272.5 14.35 272.45 14.65 272.3 15 272.15 15.3 271.95 15.6 271.8 15.9 271.65 16.2 271.45 16.55 271.3 16.8 271.1 17.1 270.8 17.3 270.55 17.55 270.3 17.75 270.05 17.95 269.9 18.05 269.45 18.4 269 18.75 268.5 19.1 268.05 19.45 267.6 19.8 267.15 20.15 266.7 20.5 266.25 20.8 265.6 21.35 265.1 21.8 264.55 22.25 264.05 22.65 263.6 23.1 263.25 23.55 262.9 24 262.65 24.45 262.25 24.85 262 25.35 261.8 25.8 261.6 26.25 261.45 26.8 261.35 27.4 261.2 27.95 261.15 28.6 261.15 28.65 261.15 28.75 261.1 28.85 261.1 28.95 261.05 29.05 261.05 29.2 261 29.3 261.05 29.35
L 261.05 29.5
Q 261 29.6 261 29.75 261 29.85 261 29.95 261 30.5 261.15 30.85 261.3 31.2 261.7 31.4 262 31.65 262.4 31.75 262.8 31.9 263.25 31.9
L 274.85 31.9
Q 276.95 31.9 276.95 30 276.95 29.5 276.8 29.15 276.65 28.8 276.4 28.6 276.1 28.45 275.65 28.35 275.2 28.25 274.65 28.25
L 265.65 28.25
Q 265.65 27.75 265.8 27.2 265.95 26.7 266.3 26.2 266.6 25.75 267.05 25.3 267.45 24.85 267.95 24.45 268.4 24.1 268.85 23.75 269.35 23.35 269.9 23.05 270.4 22.7 270.85 22.4 271.3 22.1 271.6 21.85 272.1 21.5 272.6 21.15 273.1 20.75 273.55 20.35 273.95 19.9 274.35 19.45 274.7 19 275 18.5 275.35 18.05 275.65 17.5 275.9 17 276.05 16.4 276.2 15.8 276.3 15.1 276.4 14.45 276.4 13.7 276.4 13 276.25 12.35
M 255.75 18.85
Q 255.3 18.4 254.45 18.4
L 238 18.4
Q 237.15 18.4 236.7 18.85 236.25 19.3 236.25 20.15 236.25 21 236.7 21.4 237.15 21.85 238 21.85
L 254.45 21.85
Q 255.3 21.85 255.75 21.4 256.2 21 256.2 20.15 256.2 19.3 255.75 18.85
M 223 10.05
Q 223.65 9.85 224.45 9.85 224.95 9.85 225.35 9.9 225.8 9.95 226.1 10.1 226.4 10.25 226.65 10.45 226.95 10.65 227.25 10.9 227.4 11.1 227.55 11.35 227.7 11.6 227.85 11.85 228.05 12.45 228.45 12.8 228.55 13.05 228.7 13.2 228.85 13.4 229 13.6 229.25 13.9 229.95 13.9 230.25 13.9 230.6 13.8 230.95 13.65 231.3 13.45 231.65 13.2 231.8 12.95 231.95 12.6 231.95 12.2 231.95 11.75 231.8 11.25 231.65 10.7 231.3 10.15 230.95 9.65 230.6 9.15 230.3 8.65 229.95 8.2 228.8 7.1 227.45 6.5 226.05 5.95 224.5 5.95 223.3 5.95 222.3 6.2 221.3 6.45 220.45 6.95 219.6 7.4 218.85 8.1 218.1 8.8 217.5 9.7 216.85 10.6 216.4 11.65 215.95 12.75 215.65 14 215.3 15.25 215.15 16.65 215 18.05 215 19.6 215 21.1 215.15 22.45 215.25 23.75 215.55 24.95 215.8 26.15 216.25 27.2 216.7 28.25 217.35 29.1 217.9 29.95 218.6 30.65 219.3 31.3 220.15 31.8 221.8 32.7 224.25 32.7 225.15 32.7 226 32.55 226.85 32.35 227.55 32 228.3 31.65 228.95 31.2 229.6 30.7 230.25 30.05 230.75 29.45 231.15 28.75 231.6 28.05 231.85 27.2 232.1 26.45 232.25 25.55 232.4 24.65 232.4 23.75 232.4 22.85 232.25 22.05 232.15 21.25 231.9 20.45 231.65 19.7 231.25 19.05 230.9 18.35 230.4 17.75 229.8 17.15 229.2 16.7 228.6 16.25 227.95 15.9 227.25 15.55 226.55 15.4 225.85 15.2 225.1 15.2 224.95 15.2 224.85 15.25 224.75 15.25 224.65 15.25 224.55 15.3 224.45 15.3 224.35 15.35 224.25 15.35 222.5 15.4 221.3 16 220.7 16.3 220.25 16.6 219.75 16.95 219.35 17.3 219.35 16.85 219.4 16.3 219.45 15.75 219.6 15.1 219.7 14.45 219.9 13.85 220.1 13.25 220.3 12.6 220.85 11.45 221.9 10.65 222.4 10.25 223 10.05
M 224.15 19.05
Q 225.05 19.05 225.85 19.35 226.6 19.7 227.25 20.35 227.8 21 228.1 21.9 228.45 22.75 228.45 23.9 228.45 25.05 228.1 25.95 227.8 26.85 227.25 27.5 226.6 28.2 225.85 28.5 225.05 28.85 224.15 28.85 223.1 28.85 222.25 28.5 221.45 28.15 220.9 27.45 219.75 26.15 219.75 23.9 219.75 22.8 220 21.9 220.3 21.05 220.9 20.35 221.4 19.7 222.2 19.35 223.05 19.05 224.15 19.05
M 208.45 270.6
Q 207.95 271.1 207.55 271.65 207.15 272.2 206.85 272.8 206.5 273.5 206.35 274.2 206.2 274.9 206.2 275.65 206.2 276.5 206.4 277.3 206.6 278.1 207.05 278.8 207.45 279.55 208 280.15 208.55 280.75 209.3 281.25 207.55 282.3 206.45 283.85 205.85 284.65 205.55 285.55 205.25 286.45 205.2 287.4 205.2 288.3 205.4 289.1 205.55 289.85 205.9 290.6 206.25 291.35 206.75 291.95 207.25 292.6 207.9 293.15 208.5 293.65 209.2 294.1 209.95 294.55 210.7 294.85 211.5 295.2 212.35 295.35 213.2 295.5 214.2 295.5 216.05 295.5 217.75 294.85 219.35 294.25 220.55 293.2 221.2 292.65 221.7 292.05 222.2 291.45 222.55 290.75 223.25 289.4 223.25 287.7 223.25 286.7 223 285.8 222.7 284.85 222.15 284 221.6 283.2 220.9 282.5 220.2 281.8 219.35 281.25 219.9 280.8 220.4 280.25 220.9 279.7 221.3 279.05 221.7 278.35 221.95 277.65 222.2 276.95 222.3 276.15 222.35 276.05 222.4 275.9 222.45 275.8 222.45 275.65 222.45 274.9 222.3 274.25 222.15 273.55 221.8 272.9 221.05 271.65 220.05 270.7 219.5 270.2 218.9 269.8 218.25 269.4 217.55 269.1 216.8 268.85 215.95 268.7 215.1 268.55 214.2 268.55 212.5 268.55 211 269.1 210.3 269.35 209.65 269.75 209 270.15 208.45 270.6
M 218 274.65
Q 218.25 275.25 218.25 275.95 218.25 276.65 218 277.3 217.75 277.9 217.35 278.4 216.85 278.9 216.05 279.15 215.25 279.35 214.2 279.35 213.15 279.35 212.45 279.15 211.7 278.9 211.25 278.4 210.75 277.9 210.5 277.3 210.25 276.65 210.25 275.95 210.25 275.25 210.5 274.65 210.75 274.1 211.2 273.55 211.65 273.1 212.4 272.85 213.15 272.6 214.2 272.6 215.25 272.6 216.05 272.85 216.85 273.1 217.35 273.55 217.75 274.05 218 274.65
M 214.2 283.45
Q 215.4 283.45 216.3 283.7 217.25 284 217.9 284.6 218.5 285.15 218.8 285.9 219.1 286.6 219.1 287.5 219.1 288.3 218.8 289.05 218.5 289.7 217.9 290.3 217.25 290.9 216.3 291.2 215.4 291.5 214.2 291.5 212 291.5 210.7 290.3 210.05 289.75 209.75 289.05 209.4 288.3 209.4 287.5 209.4 286.6 209.75 285.85 210.05 285.15 210.7 284.55 211.35 284 212.2 283.7 213.05 283.45 214.2 283.45
M 220.05 227.7
Q 219.5 227.2 218.9 226.8 218.25 226.4 217.55 226.1 216.8 225.85 215.95 225.7 215.1 225.55 214.2 225.55 212.5 225.55 211 226.1 210.3 226.35 209.65 226.75 209 227.15 208.45 227.6 207.95 228.1 207.55 228.65 207.15 229.2 206.85 229.8 206.5 230.5 206.35 231.2 206.2 231.9 206.2 232.65 206.2 233.5 206.4 234.3 206.6 235.1 207.05 235.8 207.45 236.55 208 237.15 208.55 237.75 209.3 238.25 207.55 239.3 206.45 240.85 205.85 241.65 205.55 242.55 205.25 243.45 205.2 244.4 205.2 245.3 205.4 246.1 205.55 246.85 205.9 247.6 206.25 248.35 206.75 248.95 207.25 249.6 207.9 250.15 208.5 250.65 209.2 251.1 209.95 251.55 210.7 251.85 211.5 252.2 212.35 252.35 213.2 252.5 214.2 252.5 216.05 252.5 217.75 251.85 219.35 251.25 220.55 250.2 221.2 249.65 221.7 249.05 222.2 248.45 222.55 247.75 223.25 246.4 223.25 244.7 223.25 243.7 223 242.8 222.7 241.85 222.15 241 221.6 240.2 220.9 239.5 220.2 238.8 219.35 238.25 219.9 237.8 220.4 237.25 220.9 236.7 221.3 236.05 221.7 235.35 221.95 234.65 222.2 233.95 222.3 233.15 222.35 233.05 222.4 232.9 222.45 232.8 222.45 232.65 222.45 231.9 222.3 231.25 222.15 230.55 221.8 229.9 221.05 228.65 220.05 227.7
M 214.2 229.6
Q 215.25 229.6 216.05 229.85 216.85 230.1 217.35 230.55 217.75 231.05 218 231.65 218.25 232.25 218.25 232.95 218.25 233.65 218 234.3 217.75 234.9 217.35 235.4 216.85 235.9 216.05 236.15 215.25 236.35 214.2 236.35 213.15 236.35 212.45 236.15 211.7 235.9 211.25 235.4 210.75 234.9 210.5 234.3 210.25 233.65 210.25 232.95 210.25 232.25 210.5 231.65 210.75 231.1 211.2 230.55 211.65 230.1 212.4 229.85 213.15 229.6 214.2 229.6
M 210.7 247.3
Q 210.05 246.75 209.75 246.05 209.4 245.3 209.4 244.5 209.4 243.6 209.75 242.85 210.05 242.15 210.7 241.55 211.35 241 212.2 240.7 213.05 240.45 214.2 240.45 215.4 240.45 216.3 240.7 217.25 241 217.9 241.6 218.5 242.15 218.8 242.9 219.1 243.6 219.1 244.5 219.1 245.3 218.8 246.05 218.5 246.7 217.9 247.3 217.25 247.9 216.3 248.2 215.4 248.5 214.2 248.5 212 248.5 210.7 247.3
M 292.45 270.6
Q 291.95 271.1 291.55 271.65 291.15 272.2 290.85 272.8 290.5 273.5 290.35 274.2 290.2 274.9 290.2 275.65 290.2 276.5 290.4 277.3 290.6 278.1 291.05 278.8 291.45 279.55 292 280.15 292.55 280.75 293.3 281.25 291.55 282.3 290.45 283.85 289.85 284.65 289.55 285.55 289.25 286.45 289.2 287.4 289.2 288.3 289.4 289.1 289.55 289.85 289.9 290.6 290.25 291.35 290.75 291.95 291.25 292.6 291.9 293.15 292.5 293.65 293.2 294.1 293.95 294.55 294.7 294.85 295.5 295.2 296.35 295.35 297.2 295.5 298.2 295.5 300.05 295.5 301.75 294.85 303.35 294.25 304.55 293.2 305.2 292.65 305.7 292.05 306.2 291.45 306.55 290.75 307.25 289.4 307.25 287.7 307.25 286.7 307 285.8 306.7 284.85 306.15 284 305.6 283.2 304.9 282.5 304.2 281.8 303.35 281.25 303.9 280.8 304.4 280.25 304.9 279.7 305.3 279.05 305.7 278.35 305.95 277.65 306.2 276.95 306.3 276.15 306.35 276.05 306.4 275.9 306.45 275.8 306.45 275.65 306.45 274.9 306.3 274.25 306.15 273.55 305.8 272.9 305.05 271.65 304.05 270.7 303.5 270.2 302.9 269.8 302.25 269.4 301.55 269.1 300.8 268.85 299.95 268.7 299.1 268.55 298.2 268.55 296.5 268.55 295 269.1 294.3 269.35 293.65 269.75 293 270.15 292.45 270.6
M 302.25 275.95
Q 302.25 276.65 302 277.3 301.75 277.9 301.35 278.4 300.85 278.9 300.05 279.15 299.25 279.35 298.2 279.35 297.15 279.35 296.45 279.15 295.7 278.9 295.25 278.4 294.75 277.9 294.5 277.3 294.25 276.65 294.25 275.95 294.25 275.25 294.5 274.65 294.75 274.1 295.2 273.55 295.65 273.1 296.4 272.85 297.15 272.6 298.2 272.6 299.25 272.6 300.05 272.85 300.85 273.1 301.35 273.55 301.75 274.05 302 274.65 302.25 275.25 302.25 275.95
M 294.7 284.55
Q 295.35 284 296.2 283.7 297.05 283.45 298.2 283.45 299.4 283.45 300.3 283.7 301.25 284 301.9 284.6 302.5 285.15 302.8 285.9 303.1 286.6 303.1 287.5 303.1 288.3 302.8 289.05 302.5 289.7 301.9 290.3 301.25 290.9 300.3 291.2 299.4 291.5 298.2 291.5 296 291.5 294.7 290.3 294.05 289.75 293.75 289.05 293.4 288.3 293.4 287.5 293.4 286.6 293.75 285.85 294.05 285.15 294.7 284.55
M 264.8 259.95
Q 264.35 259.5 263.5 259.5
L 247.05 259.5
Q 246.2 259.5 245.75 259.95 245.3 260.4 245.3 261.25 245.3 262.1 245.75 262.5 246.2 262.95 247.05 262.95
L 263.5 262.95
Q 264.35 262.95 264.8 262.5 265.25 262.1 265.25 261.25 265.25 260.4 264.8 259.95
M 302.05 226.15
Q 300.65 225.6 299.1 225.6 297.9 225.6 296.9 225.85 295.9 226.1 295.05 226.6 294.2 227.05 293.45 227.75 292.7 228.45 292.1 229.35 291.45 230.25 291 231.3 290.55 232.4 290.25 233.65 289.9 234.9 289.75 236.3 289.6 237.7 289.6 239.25 289.6 240.75 289.75 242.1 289.85 243.4 290.15 244.6 290.4 245.8 290.85 246.85 291.3 247.9 291.95 248.75 292.5 249.6 293.2 250.3 293.9 250.95 294.75 251.45 296.4 252.35 298.85 252.35 299.75 252.35 300.6 252.2 301.45 252 302.15 251.65 302.9 251.3 303.55 250.85 304.2 250.35 304.85 249.7 305.35 249.1 305.75 248.4 306.2 247.7 306.45 246.85 306.7 246.1 306.85 245.2 307 244.3 307 243.4 307 242.5 306.85 241.7 306.75 240.9 306.5 240.1 306.25 239.35 305.85 238.7 305.5 238 305 237.4 304.4 236.8 303.8 236.35 303.2 235.9 302.55 235.55 301.85 235.2 301.15 235.05 300.45 234.85 299.7 234.85 299.55 234.85 299.45 234.9 299.35 234.9 299.25 234.9 299.15 234.95 299.05 234.95 298.95 235 298.85 235 297.1 235.05 295.9 235.65 295.3 235.95 294.85 236.25 294.35 236.6 293.95 236.95 293.95 236.5 294 235.95 294.05 235.4 294.2 234.75 294.3 234.1 294.5 233.5 294.7 232.9 294.9 232.25 295.45 231.1 296.5 230.3 297 229.9 297.6 229.7 298.25 229.5 299.05 229.5 299.55 229.5 299.95 229.55 300.4 229.6 300.7 229.75 301 229.9 301.25 230.1 301.55 230.3 301.85 230.55 302 230.75 302.15 231 302.3 231.25 302.45 231.5 302.65 232.1 303.05 232.45 303.15 232.7 303.3 232.85 303.45 233.05 303.6 233.25 303.85 233.55 304.55 233.55 304.85 233.55 305.2 233.45 305.55 233.3 305.9 233.1 306.25 232.85 306.4 232.6 306.55 232.25 306.55 231.85 306.55 231.4 306.4 230.9 306.25 230.35 305.9 229.8 305.55 229.3 305.2 228.8 304.9 228.3 304.55 227.85 303.4 226.75 302.05 226.15
M 300.45 239
Q 301.2 239.35 301.85 240 302.4 240.65 302.7 241.55 303.05 242.4 303.05 243.55 303.05 244.7 302.7 245.6 302.4 246.5 301.85 247.15 301.2 247.85 300.45 248.15 299.65 248.5 298.75 248.5 297.7 248.5 296.85 248.15 296.05 247.8 295.5 247.1 294.35 245.8 294.35 243.55 294.35 242.45 294.6 241.55 294.9 240.7 295.5 240 296 239.35 296.8 239 297.65 238.7 298.75 238.7 299.65 238.7 300.45 239
M 57.4 249.25
Q 57.4 248.6 56.75 248.1 56.45 247.85 56.15 247.75 55.85 247.6 55.6 247.6 55.15 247.6 54.85 247.7 54.5 247.8 54.4 248.05 54.2 248.25 54.1 248.5 54 248.8 53.9 249.05 53.75 249.35 53.65 249.65 53.55 249.95 53.45 250.3 53.35 250.6 53.25 250.85 53.1 251.1 52.95 251.25 52.7 251.45 52.4 251.6 52.05 251.75 51.75 251.8 51.35 251.85 51 251.9 50.6 251.9 50.25 251.9 49.8 251.95 49.45 252.1 49.15 252.25 48.95 252.5 48.65 252.8 48.55 253.1 48.45 253.45 48.45 253.8 48.45 254.2 48.55 254.5 48.65 254.8 48.85 255.1 49.05 255.45 49.35 255.6 49.65 255.75 50.1 255.75
L 53.25 255.75
Q 53.25 257.7 53.25 259.6 53.25 261.55 53.25 263.45 53.25 267.3 53.25 271.2 53.25 271.6 53.45 271.85 53.6 272.15 53.95 272.4 54.25 272.65 54.65 272.8 55 272.95 55.45 272.95 55.55 272.95 55.75 272.9 55.9 272.85 56.05 272.75 56.15 272.7 56.35 272.65 56.5 272.55 56.65 272.45 56.85 272.35 57 272.15 57.15 272 57.25 271.85 57.35 271.7 57.4 271.55 57.45 271.4 57.45 271.2
L 57.45 269.75
Q 57.45 267.1 57.45 264.55 57.45 261.95 57.45 259.45 57.4 256.95 57.4 254.4 57.4 251.85 57.4 249.25
M 161.55 263.6
Q 161.15 263.6 160.85 263.75 160.55 263.9 160.35 264.2 160.15 264.5 160.05 264.85 159.95 265.2 159.95 265.65 159.95 266.05 160.05 266.45 160.15 266.8 160.35 267.05 160.55 267.35 160.85 267.5 161.15 267.65 161.55 267.6
L 178.8 267.6
Q 179.15 267.65 179.45 267.5 179.75 267.35 179.95 267.05 180.15 266.8 180.25 266.45 180.4 266.05 180.4 265.65 180.4 265.2 180.25 264.85 180.15 264.5 179.95 264.2 179.75 263.9 179.45 263.75 179.15 263.6 178.8 263.6
L 161.55 263.6
M 161.55 254.25
Q 161.15 254.25 160.85 254.4 160.55 254.55 160.35 254.85 159.95 255.5 159.95 256.3 159.95 256.75 160.05 257.1 160.15 257.45 160.35 257.7 160.55 258 160.85 258.15 161.15 258.3 161.55 258.3
L 178.8 258.3
Q 179.15 258.3 179.45 258.15 179.75 258 179.95 257.7 180.15 257.45 180.25 257.1 180.4 256.75 180.4 256.3 180.4 255.5 179.95 254.85 179.75 254.55 179.45 254.4 179.15 254.25 178.8 254.25
L 161.55 254.25
M 94.85 259.95
Q 94.4 259.5 93.55 259.5
L 77.1 259.5
Q 76.25 259.5 75.8 259.95 75.35 260.4 75.35 261.25 75.35 262.1 75.8 262.5 76.25 262.95 77.1 262.95
L 93.55 262.95
Q 94.4 262.95 94.85 262.5 95.3 262.1 95.3 261.25 95.3 260.4 94.85 259.95
M 121.1 285.55
Q 120.8 286.45 120.75 287.4 120.75 288.3 120.95 289.1 121.1 289.85 121.45 290.6 121.8 291.35 122.3 291.95 122.8 292.6 123.45 293.15 124.05 293.65 124.75 294.1 125.5 294.55 126.25 294.85 127.05 295.2 127.9 295.35 128.75 295.5 129.75 295.5 131.6 295.5 133.3 294.85 134.9 294.25 136.1 293.2 136.75 292.65 137.25 292.05 137.75 291.45 138.1 290.75 138.8 289.4 138.8 287.7 138.8 286.7 138.55 285.8 138.25 284.85 137.7 284 137.15 283.2 136.45 282.5 135.75 281.8 134.9 281.25 135.45 280.8 135.95 280.25 136.45 279.7 136.85 279.05 137.25 278.35 137.5 277.65 137.75 276.95 137.85 276.15 137.9 276.05 137.95 275.9 138 275.8 138 275.65 138 274.9 137.85 274.25 137.7 273.55 137.35 272.9 136.6 271.65 135.6 270.7 135.05 270.2 134.45 269.8 133.8 269.4 133.1 269.1 132.35 268.85 131.5 268.7 130.65 268.55 129.75 268.55 128.05 268.55 126.55 269.1 125.85 269.35 125.2 269.75 124.55 270.15 124 270.6 123.5 271.1 123.1 271.65 122.7 272.2 122.4 272.8 122.05 273.5 121.9 274.2 121.75 274.9 121.75 275.65 121.75 276.5 121.95 277.3 122.15 278.1 122.6 278.8 123 279.55 123.55 280.15 124.1 280.75 124.85 281.25 123.1 282.3 122 283.85 121.4 284.65 121.1 285.55
M 132.9 273.55
Q 133.3 274.05 133.55 274.65 133.8 275.25 133.8 275.95 133.8 276.65 133.55 277.3 133.3 277.9 132.9 278.4 132.4 278.9 131.6 279.15 130.8 279.35 129.75 279.35 128.7 279.35 128 279.15 127.25 278.9 126.8 278.4 126.3 277.9 126.05 277.3 125.8 276.65 125.8 275.95 125.8 275.25 126.05 274.65 126.3 274.1 126.75 273.55 127.2 273.1 127.95 272.85 128.7 272.6 129.75 272.6 130.8 272.6 131.6 272.85 132.4 273.1 132.9 273.55
M 131.85 283.7
Q 132.8 284 133.45 284.6 134.05 285.15 134.35 285.9 134.65 286.6 134.65 287.5 134.65 288.3 134.35 289.05 134.05 289.7 133.45 290.3 132.8 290.9 131.85 291.2 130.95 291.5 129.75 291.5 127.55 291.5 126.25 290.3 125.6 289.75 125.3 289.05 124.95 288.3 124.95 287.5 124.95 286.6 125.3 285.85 125.6 285.15 126.25 284.55 126.9 284 127.75 283.7 128.6 283.45 129.75 283.45 130.95 283.45 131.85 283.7
M 136.1 227.85
Q 134.95 226.75 133.6 226.15 132.2 225.6 130.65 225.6 129.45 225.6 128.45 225.85 127.45 226.1 126.6 226.6 125.75 227.05 125 227.75 124.25 228.45 123.65 229.35 123 230.25 122.55 231.3 122.1 232.4 121.8 233.65 121.45 234.9 121.3 236.3 121.15 237.7 121.15 239.25 121.15 240.75 121.3 242.1 121.4 243.4 121.7 244.6 121.95 245.8 122.4 246.85 122.85 247.9 123.5 248.75 124.05 249.6 124.75 250.3 125.45 250.95 126.3 251.45 127.95 252.35 130.4 252.35 131.3 252.35 132.15 252.2 133 252 133.7 251.65 134.45 251.3 135.1 250.85 135.75 250.35 136.4 249.7 136.9 249.1 137.3 248.4 137.75 247.7 138 246.85 138.25 246.1 138.4 245.2 138.55 244.3 138.55 243.4 138.55 242.5 138.4 241.7 138.3 240.9 138.05 240.1 137.8 239.35 137.4 238.7 137.05 238 136.55 237.4 135.95 236.8 135.35 236.35 134.75 235.9 134.1 235.55 133.4 235.2 132.7 235.05 132 234.85 131.25 234.85 131.1 234.85 131 234.9 130.9 234.9 130.8 234.9 130.7 234.95 130.6 234.95 130.5 235 130.4 235 128.65 235.05 127.45 235.65 126.85 235.95 126.4 236.25 125.9 236.6 125.5 236.95 125.5 236.5 125.55 235.95 125.6 235.4 125.75 234.75 125.85 234.1 126.05 233.5 126.25 232.9 126.45 232.25 127 231.1 128.05 230.3 128.55 229.9 129.15 229.7 129.8 229.5 130.6 229.5 131.1 229.5 131.5 229.55 131.95 229.6 132.25 229.75 132.55 229.9 132.8 230.1 133.1 230.3 133.4 230.55 133.55 230.75 133.7 231 133.85 231.25 134 231.5 134.2 232.1 134.6 232.45 134.7 232.7 134.85 232.85 135 233.05 135.15 233.25 135.4 233.55 136.1 233.55 136.4 233.55 136.75 233.45 137.1 233.3 137.45 233.1 137.8 232.85 137.95 232.6 138.1 232.25 138.1 231.85 138.1 231.4 137.95 230.9 137.8 230.35 137.45 229.8 137.1 229.3 136.75 228.8 136.45 228.3 136.1 227.85
M 128.35 239
Q 129.2 238.7 130.3 238.7 131.2 238.7 132 239 132.75 239.35 133.4 240 133.95 240.65 134.25 241.55 134.6 242.4 134.6 243.55 134.6 244.7 134.25 245.6 133.95 246.5 133.4 247.15 132.75 247.85 132 248.15 131.2 248.5 130.3 248.5 129.25 248.5 128.4 248.15 127.6 247.8 127.05 247.1 125.9 245.8 125.9 243.55 125.9 242.45 126.15 241.55 126.45 240.7 127.05 240 127.55 239.35 128.35 239
M 106.85 150.15
Q 106.4 149.7 105.55 149.7
L 89.1 149.7
Q 88.25 149.7 87.8 150.15 87.35 150.6 87.35 151.45 87.35 152.3 87.8 152.7 88.25 153.15 89.1 153.15
L 105.55 153.15
Q 106.4 153.15 106.85 152.7 107.3 152.3 107.3 151.45 107.3 150.6 106.85 150.15
M 145.7 118.65
Q 145.7 118.4 145.65 118.2 145.6 117.95 145.5 117.7 145.35 117.45 145.15 117.25 144.95 117 144.65 116.8 144.2 116.55 143.8 116.45 143.4 116.4 143 116.5 142.55 116.6 142.2 116.85 141.8 117.1 141.55 117.5
L 141.3 117.9
Q 140.7 118.8 140.1 119.75 139.5 120.75 138.9 121.8 138.25 122.9 137.65 123.95 137 125.05 136.3 126.05 134.95 128.2 133.7 130.2 133 131.2 132.35 132.25 131.65 133.25 131 134.3
L 130.85 134.75 130.8 134.75 130.8 134.8 130.75 134.85
Q 130.65 135.05 130.55 135.25 130.5 135.4 130.45 135.65 130.4 135.85 130.4 136.1 130.45 136.3 130.5 136.5 130.55 136.75 130.6 136.95 130.7 137.15 130.8 137.35 130.85 137.55 131 137.7 131.1 137.85 131.3 137.95 131.5 138.05 131.65 138.1 131.85 138.15 132.1 138.25 132.25 138.3 132.45 138.3 132.65 138.3 132.85 138.25
L 141.65 138.25 141.65 139.9
Q 141.65 140.5 141.8 140.9 141.95 141.3 142.25 141.45 142.75 141.9 143.8 141.9 144.5 141.9 145.15 141.45 145.8 141.1 145.8 139.9
L 145.8 138.25 146.95 138.25
Q 147.55 138.25 147.9 138.1 148.25 138 148.45 137.65 148.6 137.35 148.7 137 148.75 136.65 148.75 136.15 148.75 135.8 148.7 135.45 148.6 135.1 148.45 134.75 148.25 134.45 147.9 134.3 147.55 134.1 146.95 134.1
L 145.8 134.1 145.7 118.65
M 140.35 126.65
Q 141.1 125.5 141.55 124.65
L 141.55 134.2 135.5 134.2
Q 135.9 133.7 136.3 133.05 136.7 132.45 137.1 131.8 137.55 131.15 137.95 130.45 138.3 129.8 138.7 129.15 139.15 128.5 139.6 127.85 140 127.25 140.35 126.65
M 62.2 117
Q 62 116.85 61.75 116.85 59.9 116.85 58.05 116.85 56.25 116.85 54.5 116.85 52.65 116.85 50.85 116.85 49.1 116.9 47.35 116.9 46.8 116.95 46.5 117.1 46.15 117.25 46 117.6 45.8 117.9 45.75 118.25 45.65 118.6 45.65 119 45.65 119.45 45.75 119.8 45.8 120.15 46 120.45 46.15 120.75 46.5 120.9 46.85 121.05 47.35 121.05
L 57.65 121.05
Q 57.2 121.7 56.7 122.5 56.2 123.3 55.7 124.25 55.15 125.15 54.6 126.2 54 127.2 53.4 128.3 52.85 129.4 52.4 130.5 51.9 131.6 51.45 132.7 50.5 135.05 50.15 137.05 50.05 137.55 49.95 138.05 49.8 138.5 49.7 138.95 49.55 139.35 49.45 139.75 49.4 140.15 49.35 140.45 49.35 140.9 49.55 141.2 49.75 141.5 50.05 141.7 50.4 141.9 50.75 142 51.2 142.05 51.7 142.05 52.2 142.05 52.55 141.95 52.95 141.85 53.2 141.65 53.4 141.45 53.55 141.2 53.7 140.9 53.85 140.45 54 140.1 54.1 139.65 54.2 139.2 54.3 138.6 54.35 138.05 54.45 137.45 54.55 136.85 54.7 136.15 54.85 135.35 55.1 134.55 55.3 133.75 55.65 132.9 55.9 132 56.25 131.2 56.6 130.35 57 129.6 57.3 128.8 57.65 128.05 57.95 127.3 58.35 126.6 58.65 125.95 58.9 125.4 59.2 124.85 59.45 124.4 59.8 123.85 60.15 123.45 60.55 123 60.85 122.6 61.15 122.3 61.4 121.95 61.65 121.65 61.9 121.3 62.05 121.1 62.2 120.85 62.4 120.55 62.55 120.25 62.85 119.75 62.85 119
L 62.85 118.6
Q 62.85 118.3 62.8 117.95 62.75 117.7 62.6 117.4 62.45 117.15 62.2 117
M 62.85 52.15
L 62.85 51.75
Q 62.85 51.45 62.8 51.1 62.75 50.85 62.6 50.55 62.45 50.3 62.2 50.15 62 50 61.75 50 59.9 50 58.05 50 56.25 50 54.5 50 52.65 50 50.85 50 49.1 50.05 47.35 50.05 46.8 50.1 46.5 50.25 46.15 50.4 46 50.75 45.8 51.05 45.75 51.4 45.65 51.75 45.65 52.15 45.65 52.6 45.75 52.95 45.8 53.3 46 53.6 46.15 53.9 46.5 54.05 46.85 54.2 47.35 54.2
L 57.65 54.2
Q 57.2 54.85 56.7 55.65 56.2 56.45 55.7 57.4 55.15 58.3 54.6 59.35 54 60.35 53.4 61.45 52.85 62.55 52.4 63.65 51.9 64.75 51.45 65.85 50.5 68.2 50.15 70.2 50.05 70.7 49.95 71.2 49.8 71.65 49.7 72.1 49.55 72.5 49.45 72.9 49.4 73.3 49.35 73.6 49.35 74.05 49.55 74.35 49.75 74.65 50.05 74.85 50.4 75.05 50.75 75.15 51.2 75.2 51.7 75.2 52.2 75.2 52.55 75.1 52.95 75 53.2 74.8 53.4 74.6 53.55 74.35 53.7 74.05 53.85 73.6 54 73.25 54.1 72.8 54.2 72.35 54.3 71.75 54.35 71.2 54.45 70.6 54.55 70 54.7 69.3 54.85 68.5 55.1 67.7 55.3 66.9 55.65 66.05 55.9 65.15 56.25 64.35 56.6 63.5 57 62.75 57.3 61.95 57.65 61.2 57.95 60.45 58.35 59.75 58.65 59.1 58.9 58.55 59.2 58 59.45 57.55 59.8 57 60.15 56.6 60.55 56.15 60.85 55.75 61.15 55.45 61.4 55.1 61.65 54.8 61.9 54.45 62.05 54.25 62.2 54 62.4 53.7 62.55 53.4 62.85 52.9 62.85 52.15
M 61.75 10.15
Q 61.4 9.65 61.05 9.15 60.75 8.65 60.4 8.2 59.25 7.1 57.9 6.5 56.5 5.95 54.95 5.95 53.75 5.95 52.75 6.2 51.75 6.45 50.9 6.95 50.05 7.4 49.3 8.1 48.55 8.8 47.95 9.7 47.3 10.6 46.85 11.65 46.4 12.75 46.1 14 45.75 15.25 45.6 16.65 45.45 18.05 45.45 19.6 45.45 21.1 45.6 22.45 45.7 23.75 46 24.95 46.25 26.15 46.7 27.2 47.15 28.25 47.8 29.1 48.35 29.95 49.05 30.65 49.75 31.3 50.6 31.8 52.25 32.7 54.7 32.7 55.6 32.7 56.45 32.55 57.3 32.35 58 32 58.75 31.65 59.4 31.2 60.05 30.7 60.7 30.05 61.2 29.45 61.6 28.75 62.05 28.05 62.3 27.2 62.55 26.45 62.7 25.55 62.85 24.65 62.85 23.75 62.85 22.85 62.7 22.05 62.6 21.25 62.35 20.45 62.1 19.7 61.7 19.05 61.35 18.35 60.85 17.75 60.25 17.15 59.65 16.7 59.05 16.25 58.4 15.9 57.7 15.55 57 15.4 56.3 15.2 55.55 15.2 55.4 15.2 55.3 15.25 55.2 15.25 55.1 15.25 55 15.3 54.9 15.3 54.8 15.35 54.7 15.35 52.95 15.4 51.75 16 51.15 16.3 50.7 16.6 50.2 16.95 49.8 17.3 49.8 16.85 49.85 16.3 49.9 15.75 50.05 15.1 50.15 14.45 50.35 13.85 50.55 13.25 50.75 12.6 51.3 11.45 52.35 10.65 52.85 10.25 53.45 10.05 54.1 9.85 54.9 9.85 55.4 9.85 55.8 9.9 56.25 9.95 56.55 10.1 56.85 10.25 57.1 10.45 57.4 10.65 57.7 10.9 57.85 11.1 58 11.35 58.15 11.6 58.3 11.85 58.5 12.45 58.9 12.8 59 13.05 59.15 13.2 59.3 13.4 59.45 13.6 59.7 13.9 60.4 13.9 60.7 13.9 61.05 13.8 61.4 13.65 61.75 13.45 62.1 13.2 62.25 12.95 62.4 12.6 62.4 12.2 62.4 11.75 62.25 11.25 62.1 10.7 61.75 10.15
M 50.2 23.9
Q 50.2 22.8 50.45 21.9 50.75 21.05 51.35 20.35 51.85 19.7 52.65 19.35 53.5 19.05 54.6 19.05 55.5 19.05 56.3 19.35 57.05 19.7 57.7 20.35 58.25 21 58.55 21.9 58.9 22.75 58.9 23.9 58.9 25.05 58.55 25.95 58.25 26.85 57.7 27.5 57.05 28.2 56.3 28.5 55.5 28.85 54.6 28.85 53.55 28.85 52.7 28.5 51.9 28.15 51.35 27.45 50.2 26.15 50.2 23.9
M 148.55 52.15
L 148.55 51.75
Q 148.55 51.45 148.5 51.1 148.45 50.85 148.3 50.55 148.15 50.3 147.9 50.15 147.7 50 147.45 50 145.6 50 143.75 50 141.95 50 140.2 50 138.35 50 136.55 50 134.8 50.05 133.05 50.05 132.5 50.1 132.2 50.25 131.85 50.4 131.7 50.75 131.5 51.05 131.45 51.4 131.35 51.75 131.35 52.15 131.35 52.6 131.45 52.95 131.5 53.3 131.7 53.6 131.85 53.9 132.2 54.05 132.55 54.2 133.05 54.2
L 143.35 54.2
Q 142.9 54.85 142.4 55.65 141.9 56.45 141.4 57.4 140.85 58.3 140.3 59.35 139.7 60.35 139.1 61.45 138.55 62.55 138.1 63.65 137.6 64.75 137.15 65.85 136.2 68.2 135.85 70.2 135.75 70.7 135.65 71.2 135.5 71.65 135.4 72.1 135.25 72.5 135.15 72.9 135.1 73.3 135.05 73.6 135.05 74.05 135.25 74.35 135.45 74.65 135.75 74.85 136.1 75.05 136.45 75.15 136.9 75.2 137.4 75.2 137.9 75.2 138.25 75.1 138.65 75 138.9 74.8 139.1 74.6 139.25 74.35 139.4 74.05 139.55 73.6 139.7 73.25 139.8 72.8 139.9 72.35 140 71.75 140.05 71.2 140.15 70.6 140.25 70 140.4 69.3 140.55 68.5 140.8 67.7 141 66.9 141.35 66.05 141.6 65.15 141.95 64.35 142.3 63.5 142.7 62.75 143 61.95 143.35 61.2 143.65 60.45 144.05 59.75 144.35 59.1 144.6 58.55 144.9 58 145.15 57.55 145.5 57 145.85 56.6 146.25 56.15 146.55 55.75 146.85 55.45 147.1 55.1 147.35 54.8 147.6 54.45 147.75 54.25 147.9 54 148.1 53.7 148.25 53.4 148.55 52.9 148.55 52.15
M 88 42.85
Q 88.45 43.3 89.3 43.3
L 105.75 43.3
Q 106.6 43.3 107.05 42.85 107.5 42.45 107.5 41.6 107.5 40.75 107.05 40.3 106.6 39.85 105.75 39.85
L 89.3 39.85
Q 88.45 39.85 88 40.3 87.55 40.75 87.55 41.6 87.55 42.45 88 42.85
M 147.5 12.35
Q 147.35 11.65 147.1 11 146.85 10.3 146.45 9.7 146.05 9.1 145.6 8.55 145 8.05 144.35 7.6 143.7 7.2 143 6.85 142.3 6.55 141.5 6.4 140.75 6.2 139.9 6.2
L 139.85 6.2
Q 139 6.2 138.25 6.35 137.5 6.55 136.85 6.85 136.1 7.2 135.5 7.65 134.85 8.05 134.35 8.6 133.4 9.65 132.85 10.9 132.6 11.55 132.45 12.2 132.3 12.8 132.3 13.45 132.3 13.8 132.45 14.1 132.6 14.4 132.85 14.6 133.15 14.8 133.45 14.95 133.7 15.05 134.05 15.05 134.5 15.05 134.9 14.85 135.35 14.7 135.7 14.4 136 14.05 136.2 13.65 136.35 13.25 136.35 12.75 136.35 12.6 136.45 12.4 136.5 12.15 136.7 11.9 136.8 11.65 136.95 11.4 137.15 11.2 137.35 11 137.65 10.8 137.95 10.65 138.25 10.45 138.6 10.3 138.95 10.2 139.25 10.15 139.55 10.05 139.9 10.05 140.4 10.05 140.8 10.15 141.25 10.25 141.6 10.4 141.95 10.55 142.25 10.8 142.55 11 142.8 11.25 143 11.5 143.15 11.85 143.35 12.15 143.5 12.45 143.65 12.8 143.75 13.1 143.8 13.45 143.8 13.75 143.8 14.05 143.75 14.35 143.7 14.65 143.55 15 143.4 15.3 143.2 15.6 143.05 15.9 142.9 16.2 142.7 16.55 142.55 16.8 142.35 17.1 142.05 17.3 141.8 17.55 141.55 17.75 141.3 17.95 141.15 18.05 140.7 18.4 140.25 18.75 139.75 19.1 139.3 19.45 138.85 19.8 138.4 20.15 137.95 20.5 137.5 20.8 136.85 21.35 136.35 21.8 135.8 22.25 135.3 22.65 134.85 23.1 134.5 23.55 134.15 24 133.9 24.45 133.5 24.85 133.25 25.35 133.05 25.8 132.85 26.25 132.7 26.8 132.6 27.4 132.45 27.95 132.4 28.6 132.4 28.65 132.4 28.75 132.35 28.85 132.35 28.95 132.3 29.05 132.3 29.2 132.25 29.3 132.3 29.35
L 132.3 29.5
Q 132.25 29.6 132.25 29.75 132.25 29.85 132.25 29.95 132.25 30.5 132.4 30.85 132.55 31.2 132.95 31.4 133.25 31.65 133.65 31.75 134.05 31.9 134.5 31.9
L 146.1 31.9
Q 148.2 31.9 148.2 30 148.2 29.5 148.05 29.15 147.9 28.8 147.65 28.6 147.35 28.45 146.9 28.35 146.45 28.25 145.9 28.25
L 136.9 28.25
Q 136.9 27.75 137.05 27.2 137.2 26.7 137.55 26.2 137.85 25.75 138.3 25.3 138.7 24.85 139.2 24.45 139.65 24.1 140.1 23.75 140.6 23.35 141.15 23.05 141.65 22.7 142.1 22.4 142.55 22.1 142.85 21.85 143.35 21.5 143.85 21.15 144.35 20.75 144.8 20.35 145.2 19.9 145.6 19.45 145.95 19 146.25 18.5 146.6 18.05 146.9 17.5 147.15 17 147.3 16.4 147.45 15.8 147.55 15.1 147.65 14.45 147.65 13.7 147.65 13 147.5 12.35
M 319.25 156.25
Q 319.6 156.3 319.9 156.15 320.2 156 320.4 155.7 320.6 155.45 320.7 155.1 320.85 154.7 320.85 154.3 320.85 153.85 320.7 153.5 320.6 153.15 320.4 152.85 320.2 152.55 319.9 152.4 319.6 152.25 319.25 152.25
L 302 152.25
Q 301.6 152.25 301.3 152.4 301 152.55 300.8 152.85 300.6 153.15 300.5 153.5 300.4 153.85 300.4 154.3 300.4 154.7 300.5 155.1 300.6 155.45 300.8 155.7 301 156 301.3 156.15 301.6 156.3 302 156.25
L 319.25 156.25
M 301.3 146.8
Q 301.6 146.95 302 146.95
L 319.25 146.95
Q 319.6 146.95 319.9 146.8 320.2 146.65 320.4 146.35 320.6 146.1 320.7 145.75 320.85 145.4 320.85 144.95 320.85 144.15 320.4 143.5 320.2 143.2 319.9 143.05 319.6 142.9 319.25 142.9
L 302 142.9
Q 301.6 142.9 301.3 143.05 301 143.2 300.8 143.5 300.4 144.15 300.4 144.95 300.4 145.4 300.5 145.75 300.6 146.1 300.8 146.35 301 146.65 301.3 146.8
M 188.8 157.8
Q 189.15 157.85 189.45 157.7 189.75 157.55 189.95 157.25 190.15 157 190.25 156.65 190.4 156.25 190.4 155.85 190.4 155.4 190.25 155.05 190.15 154.7 189.95 154.4 189.75 154.1 189.45 153.95 189.15 153.8 188.8 153.8
L 171.55 153.8
Q 171.15 153.8 170.85 153.95 170.55 154.1 170.35 154.4 170.15 154.7 170.05 155.05 169.95 155.4 169.95 155.85 169.95 156.25 170.05 156.65 170.15 157 170.35 157.25 170.55 157.55 170.85 157.7 171.15 157.85 171.55 157.8
L 188.8 157.8
M 170.35 147.9
Q 170.55 148.2 170.85 148.35 171.15 148.5 171.55 148.5
L 188.8 148.5
Q 189.15 148.5 189.45 148.35 189.75 148.2 189.95 147.9 190.15 147.65 190.25 147.3 190.4 146.95 190.4 146.5 190.4 145.7 189.95 145.05 189.75 144.75 189.45 144.6 189.15 144.45 188.8 144.45
L 171.55 144.45
Q 171.15 144.45 170.85 144.6 170.55 144.75 170.35 145.05 169.95 145.7 169.95 146.5 169.95 146.95 170.05 147.3 170.15 147.65 170.35 147.9
M 170.85 44.1
Q 170.55 44.25 170.35 44.55 170.15 44.85 170.05 45.2 169.95 45.55 169.95 46 169.95 46.4 170.05 46.8 170.15 47.15 170.35 47.4 170.55 47.7 170.85 47.85 171.15 48 171.55 47.95
L 188.8 47.95
Q 189.15 48 189.45 47.85 189.75 47.7 189.95 47.4 190.15 47.15 190.25 46.8 190.4 46.4 190.4 46 190.4 45.55 190.25 45.2 190.15 44.85 189.95 44.55 189.75 44.25 189.45 44.1 189.15 43.95 188.8 43.95
L 171.55 43.95
Q 171.15 43.95 170.85 44.1
M 171.55 34.6
Q 171.15 34.6 170.85 34.75 170.55 34.9 170.35 35.2 169.95 35.85 169.95 36.65 169.95 37.1 170.05 37.45 170.15 37.8 170.35 38.05 170.55 38.35 170.85 38.5 171.15 38.65 171.55 38.65
L 188.8 38.65
Q 189.15 38.65 189.45 38.5 189.75 38.35 189.95 38.05 190.15 37.8 190.25 37.45 190.4 37.1 190.4 36.65 190.4 35.85 189.95 35.2 189.75 34.9 189.45 34.75 189.15 34.6 188.8 34.6
L 171.55 34.6
M 254.7 52.15
L 254.7 51.75
Q 254.7 51.45 254.65 51.1 254.6 50.85 254.45 50.55 254.3 50.3 254.05 50.15 253.85 50 253.6 50 251.75 50 249.9 50 248.1 50 246.35 50 244.5 50 242.7 50 240.95 50.05 239.2 50.05 238.65 50.1 238.35 50.25 238 50.4 237.85 50.75 237.65 51.05 237.6 51.4 237.5 51.75 237.5 52.15 237.5 52.6 237.6 52.95 237.65 53.3 237.85 53.6 238 53.9 238.35 54.05 238.7 54.2 239.2 54.2
L 249.5 54.2
Q 249.05 54.85 248.55 55.65 248.05 56.45 247.55 57.4 247 58.3 246.45 59.35 245.85 60.35 245.25 61.45 244.7 62.55 244.25 63.65 243.75 64.75 243.3 65.85 242.35 68.2 242 70.2 241.9 70.7 241.8 71.2 241.65 71.65 241.55 72.1 241.4 72.5 241.3 72.9 241.25 73.3 241.2 73.6 241.2 74.05 241.4 74.35 241.6 74.65 241.9 74.85 242.25 75.05 242.6 75.15 243.05 75.2 243.55 75.2 244.05 75.2 244.4 75.1 244.8 75 245.05 74.8 245.25 74.6 245.4 74.35 245.55 74.05 245.7 73.6 245.85 73.25 245.95 72.8 246.05 72.35 246.15 71.75 246.2 71.2 246.3 70.6 246.4 70 246.55 69.3 246.7 68.5 246.95 67.7 247.15 66.9 247.5 66.05 247.75 65.15 248.1 64.35 248.45 63.5 248.85 62.75 249.15 61.95 249.5 61.2 249.8 60.45 250.2 59.75 250.5 59.1 250.75 58.55 251.05 58 251.3 57.55 251.65 57 252 56.6 252.4 56.15 252.7 55.75 253 55.45 253.25 55.1 253.5 54.8 253.75 54.45 253.9 54.25 254.05 54 254.25 53.7 254.4 53.4 254.7 52.9 254.7 52.15
M 300.8 45.85
Q 301 46.15 301.3 46.3 301.6 46.45 302 46.4
L 319.25 46.4
Q 319.6 46.45 319.9 46.3 320.2 46.15 320.4 45.85 320.6 45.6 320.7 45.25 320.85 44.85 320.85 44.45 320.85 44 320.7 43.65 320.6 43.3 320.4 43 320.2 42.7 319.9 42.55 319.6 42.4 319.25 42.4
L 302 42.4
Q 301.6 42.4 301.3 42.55 301 42.7 300.8 43 300.6 43.3 300.5 43.65 300.4 44 300.4 44.45 300.4 44.85 300.5 45.25 300.6 45.6 300.8 45.85
M 301.3 36.95
Q 301.6 37.1 302 37.1
L 319.25 37.1
Q 319.6 37.1 319.9 36.95 320.2 36.8 320.4 36.5 320.6 36.25 320.7 35.9 320.85 35.55 320.85 35.1 320.85 34.3 320.4 33.65 320.2 33.35 319.9 33.2 319.6 33.05 319.25 33.05
L 302 33.05
Q 301.6 33.05 301.3 33.2 301 33.35 300.8 33.65 300.4 34.3 300.4 35.1 300.4 35.55 300.5 35.9 300.6 36.25 300.8 36.5 301 36.8 301.3 36.95
M 510.2 268.55
Q 508.5 268.55 507 269.1 506.3 269.35 505.65 269.75 505 270.15 504.45 270.6 503.95 271.1 503.55 271.65 503.15 272.2 502.85 272.8 502.5 273.5 502.35 274.2 502.2 274.9 502.2 275.65 502.2 276.5 502.4 277.3 502.6 278.1 503.05 278.8 503.45 279.55 504 280.15 504.55 280.75 505.3 281.25 503.55 282.3 502.45 283.85 501.85 284.65 501.55 285.55 501.25 286.45 501.2 287.4 501.2 288.3 501.4 289.1 501.55 289.85 501.9 290.6 502.25 291.35 502.75 291.95 503.25 292.6 503.9 293.15 504.5 293.65 505.2 294.1 505.95 294.55 506.7 294.85 507.5 295.2 508.35 295.35 509.2 295.5 510.2 295.5 512.05 295.5 513.75 294.85 515.35 294.25 516.55 293.2 517.2 292.65 517.7 292.05 518.2 291.45 518.55 290.75 519.25 289.4 519.25 287.7 519.25 286.7 519 285.8 518.7 284.85 518.15 284 517.6 283.2 516.9 282.5 516.2 281.8 515.35 281.25 515.9 280.8 516.4 280.25 516.9 279.7 517.3 279.05 517.7 278.35 517.95 277.65 518.2 276.95 518.3 276.15 518.35 276.05 518.4 275.9 518.45 275.8 518.45 275.65 518.45 274.9 518.3 274.25 518.15 273.55 517.8 272.9 517.05 271.65 516.05 270.7 515.5 270.2 514.9 269.8 514.25 269.4 513.55 269.1 512.8 268.85 511.95 268.7 511.1 268.55 510.2 268.55
M 505.75 289.05
Q 505.4 288.3 505.4 287.5 505.4 286.6 505.75 285.85 506.05 285.15 506.7 284.55 507.35 284 508.2 283.7 509.05 283.45 510.2 283.45 511.4 283.45 512.3 283.7 513.25 284 513.9 284.6 514.5 285.15 514.8 285.9 515.1 286.6 515.1 287.5 515.1 288.3 514.8 289.05 514.5 289.7 513.9 290.3 513.25 290.9 512.3 291.2 511.4 291.5 510.2 291.5 508 291.5 506.7 290.3 506.05 289.75 505.75 289.05
M 514 277.3
Q 513.75 277.9 513.35 278.4 512.85 278.9 512.05 279.15 511.25 279.35 510.2 279.35 509.15 279.35 508.45 279.15 507.7 278.9 507.25 278.4 506.75 277.9 506.5 277.3 506.25 276.65 506.25 275.95 506.25 275.25 506.5 274.65 506.75 274.1 507.2 273.55 507.65 273.1 508.4 272.85 509.15 272.6 510.2 272.6 511.25 272.6 512.05 272.85 512.85 273.1 513.35 273.55 513.75 274.05 514 274.65 514.25 275.25 514.25 275.95 514.25 276.65 514 277.3
M 505.95 227.3
Q 505.3 227.7 504.8 228.25 503.85 229.3 503.3 230.55 503.05 231.2 502.9 231.85 502.75 232.45 502.75 233.1 502.75 233.45 502.9 233.75 503.05 234.05 503.3 234.25 503.6 234.45 503.9 234.6 504.15 234.7 504.5 234.7 504.95 234.7 505.35 234.5 505.8 234.35 506.15 234.05 506.45 233.7 506.65 233.3 506.8 232.9 506.8 232.4 506.8 232.25 506.9 232.05 506.95 231.8 507.15 231.55 507.25 231.3 507.4 231.05 507.6 230.85 507.8 230.65 508.1 230.45 508.4 230.3 508.7 230.1 509.05 229.95 509.4 229.85 509.7 229.8 510 229.7 510.35 229.7 510.85 229.7 511.25 229.8 511.7 229.9 512.05 230.05 512.4 230.2 512.7 230.45 513 230.65 513.25 230.9 513.45 231.15 513.6 231.5 513.8 231.8 513.95 232.1 514.1 232.45 514.2 232.75 514.25 233.1 514.25 233.4 514.25 233.7 514.2 234 514.15 234.3 514 234.65 513.85 234.95 513.65 235.25 513.5 235.55 513.35 235.85 513.15 236.2 513 236.45 512.8 236.75 512.5 236.95 512.25 237.2 512 237.4 511.75 237.6 511.6 237.7 511.15 238.05 510.7 238.4 510.2 238.75 509.75 239.1 509.3 239.45 508.85 239.8 508.4 240.15 507.95 240.45 507.3 241 506.8 241.45 506.25 241.9 505.75 242.3 505.3 242.75 504.95 243.2 504.6 243.65 504.35 244.1 503.95 244.5 503.7 245 503.5 245.45 503.3 245.9 503.15 246.45 503.05 247.05 502.9 247.6 502.85 248.25 502.85 248.3 502.85 248.4 502.8 248.5 502.8 248.6 502.75 248.7 502.75 248.85 502.7 248.95 502.75 249
L 502.75 249.15
Q 502.7 249.25 502.7 249.4 502.7 249.5 502.7 249.6 502.7 250.15 502.85 250.5 503 250.85 503.4 251.05 503.7 251.3 504.1 251.4 504.5 251.55 504.95 251.55
L 516.55 251.55
Q 518.65 251.55 518.65 249.65 518.65 249.15 518.5 248.8 518.35 248.45 518.1 248.25 517.8 248.1 517.35 248 516.9 247.9 516.35 247.9
L 507.35 247.9
Q 507.35 247.4 507.5 246.85 507.65 246.35 508 245.85 508.3 245.4 508.75 244.95 509.15 244.5 509.65 244.1 510.1 243.75 510.55 243.4 511.05 243 511.6 242.7 512.1 242.35 512.55 242.05 513 241.75 513.3 241.5 513.8 241.15 514.3 240.8 514.8 240.4 515.25 240 515.65 239.55 516.05 239.1 516.4 238.65 516.7 238.15 517.05 237.7 517.35 237.15 517.6 236.65 517.75 236.05 517.9 235.45 518 234.75 518.1 234.1 518.1 233.35 518.1 232.65 517.95 232 517.8 231.3 517.55 230.65 517.3 229.95 516.9 229.35 516.5 228.75 516.05 228.2 515.45 227.7 514.8 227.25 514.15 226.85 513.45 226.5 512.75 226.2 511.95 226.05 511.2 225.85 510.35 225.85
L 510.3 225.85
Q 509.45 225.85 508.7 226 507.95 226.2 507.3 226.5 506.55 226.85 505.95 227.3
M 350.2 264.2
Q 350 263.9 349.7 263.75 349.4 263.6 349.05 263.6
L 331.8 263.6
Q 331.4 263.6 331.1 263.75 330.8 263.9 330.6 264.2 330.4 264.5 330.3 264.85 330.2 265.2 330.2 265.65 330.2 266.05 330.3 266.45 330.4 266.8 330.6 267.05 330.8 267.35 331.1 267.5 331.4 267.65 331.8 267.6
L 349.05 267.6
Q 349.4 267.65 349.7 267.5 350 267.35 350.2 267.05 350.4 266.8 350.5 266.45 350.65 266.05 350.65 265.65 350.65 265.2 350.5 264.85 350.4 264.5 350.2 264.2
M 349.05 258.3
Q 349.4 258.3 349.7 258.15 350 258 350.2 257.7 350.4 257.45 350.5 257.1 350.65 256.75 350.65 256.3 350.65 255.5 350.2 254.85 350 254.55 349.7 254.4 349.4 254.25 349.05 254.25
L 331.8 254.25
Q 331.4 254.25 331.1 254.4 330.8 254.55 330.6 254.85 330.2 255.5 330.2 256.3 330.2 256.75 330.3 257.1 330.4 257.45 330.6 257.7 330.8 258 331.1 258.15 331.4 258.3 331.8 258.3
L 349.05 258.3
M 477.2 264.2
Q 477 263.9 476.7 263.75 476.4 263.6 476.05 263.6
L 458.8 263.6
Q 458.4 263.6 458.1 263.75 457.8 263.9 457.6 264.2 457.4 264.5 457.3 264.85 457.2 265.2 457.2 265.65 457.2 266.05 457.3 266.45 457.4 266.8 457.6 267.05 457.8 267.35 458.1 267.5 458.4 267.65 458.8 267.6
L 476.05 267.6
Q 476.4 267.65 476.7 267.5 477 267.35 477.2 267.05 477.4 266.8 477.5 266.45 477.65 266.05 477.65 265.65 477.65 265.2 477.5 264.85 477.4 264.5 477.2 264.2
M 476.05 258.3
Q 476.4 258.3 476.7 258.15 477 258 477.2 257.7 477.4 257.45 477.5 257.1 477.65 256.75 477.65 256.3 477.65 255.5 477.2 254.85 477 254.55 476.7 254.4 476.4 254.25 476.05 254.25
L 458.8 254.25
Q 458.4 254.25 458.1 254.4 457.8 254.55 457.6 254.85 457.2 255.5 457.2 256.3 457.2 256.75 457.3 257.1 457.4 257.45 457.6 257.7 457.8 258 458.1 258.15 458.4 258.3 458.8 258.3
L 476.05 258.3
M 364.6 134.4
Q 364.6 133.95 364.5 133.45 364.4 133 364.25 132.55 364.05 132.15 363.85 131.75 363.65 131.3 363.4 130.95 363 130.2 362.35 129.6 362 129.3 361.65 129.05 361.3 128.75 360.9 128.55 361.15 128.45 361.35 128.25 361.6 128.05 361.8 127.85 362 127.65 362.2 127.4 362.45 127.15 362.75 126.8 363.25 126.05 363.5 125.15 363.75 124.25 363.75 123.05 363.75 122.4 363.6 121.75 363.45 121.05 363.25 120.4 363 119.8 362.6 119.2 362.25 118.65 361.75 118.15 360.6 117.2 359.25 116.6 358.55 116.35 357.75 116.2 356.95 116.05 356.1 116.05 355.4 116.05 354.7 116.15 354 116.3 353.4 116.5 352.75 116.75 352.2 117.1 351.65 117.45 351.2 117.9 350.7 118.3 350.25 118.8 349.8 119.25 349.45 119.85 349.1 120.45 348.95 121.1 348.7 121.75 348.7 122.45 348.7 123 348.85 123.35 349 123.7 349.3 123.85 349.55 124.05 349.95 124.2 350.4 124.25 350.9 124.25 351.2 124.25 351.45 124.2 351.65 124.1 351.8 123.9 351.95 123.75 352.1 123.55 352.25 123.35 352.45 123.1 352.55 122.9 352.65 122.6 352.75 122.35 352.9 122 353 121.75 353.1 121.45 353.2 121.2 353.35 120.95 353.6 120.7 353.9 120.5 354.15 120.3 354.5 120.1 355.05 119.8 356.15 119.8 357.2 119.8 357.95 120.1 358.25 120.3 358.5 120.5 358.75 120.7 358.95 120.95 359.15 121.2 359.3 121.5 359.45 121.75 359.6 122.05 359.7 122.35 359.75 122.65 359.8 123 359.8 123.25 359.75 123.8 359.6 124.25 359.5 124.65 359.25 125 359 125.35 358.7 125.65 358.35 125.9 357.95 126.05 357.65 126.3 357.25 126.4 356.85 126.55 356.4 126.6 355.95 126.7 355.45 126.75 355.05 126.75 354.55 126.75 354.45 127.75 354.45 128.65 354.4 129.15 354.4 129.6 354.4 130.05 354.4 130.5 354.45 130.55 354.65 130.6 354.85 130.65 355.2 130.65 355.45 130.7 355.75 130.7 356.05 130.75 356.35 130.75 356.75 130.85 357.15 130.9 357.5 130.95 357.9 131 358.2 131.1 358.5 131.2 358.8 131.35 359.05 131.6 359.4 131.8 359.7 132.05 359.95 132.35 360.1 132.7 360.3 133.05 360.35 133.55 360.45 133.95 360.45 134.55 360.4 135.35 360.1 136 359.8 136.7 359.2 137.2 358.6 137.8 357.85 138.05 357.1 138.35 356.15 138.35 355.5 138.35 355.05 138.25 354.55 138.15 354.25 138 353.85 137.85 353.6 137.6 353.3 137.4 353.1 137.05 352.7 136.55 352.35 135.7 352.15 135.35 351.95 134.9 351.8 134.5 351.65 134 351.5 133.85 351.3 133.75 351.1 133.6 350.9 133.55 350.65 133.45 350.45 133.45 350.2 133.4 350.05 133.4 349.45 133.4 349.1 133.55 348.7 133.7 348.5 133.95 348.3 134.25 348.2 134.6 348.05 134.95 348.05 135.4
L 348.05 135.65
Q 348.2 136.45 348.4 137.1 348.65 137.8 349.05 138.35 349.4 139 349.9 139.5 350.35 140 350.9 140.45 351.4 140.9 352 141.25 352.6 141.55 353.3 141.75 353.95 142 354.7 142.1 355.45 142.2 356.2 142.2 357.1 142.2 357.95 142.05 358.8 141.9 359.65 141.6 360.4 141.3 361.05 140.85 361.7 140.45 362.15 139.95 362.75 139.4 363.2 138.8 363.6 138.2 363.95 137.45 364.6 136.1 364.6 134.4
M 363.9 50
Q 362.05 50 360.2 50 358.4 50 356.65 50 354.8 50 353 50 351.25 50.05 349.5 50.05 348.95 50.1 348.65 50.25 348.3 50.4 348.15 50.75 347.95 51.05 347.9 51.4 347.8 51.75 347.8 52.15 347.8 52.6 347.9 52.95 347.95 53.3 348.15 53.6 348.3 53.9 348.65 54.05 349 54.2 349.5 54.2
L 359.8 54.2
Q 359.35 54.85 358.85 55.65 358.35 56.45 357.85 57.4 357.3 58.3 356.75 59.35 356.15 60.35 355.55 61.45 355 62.55 354.55 63.65 354.05 64.75 353.6 65.85 352.65 68.2 352.3 70.2 352.2 70.7 352.1 71.2 351.95 71.65 351.85 72.1 351.7 72.5 351.6 72.9 351.55 73.3 351.5 73.6 351.5 74.05 351.7 74.35 351.9 74.65 352.2 74.85 352.55 75.05 352.9 75.15 353.35 75.2 353.85 75.2 354.35 75.2 354.7 75.1 355.1 75 355.35 74.8 355.55 74.6 355.7 74.35 355.85 74.05 356 73.6 356.15 73.25 356.25 72.8 356.35 72.35 356.45 71.75 356.5 71.2 356.6 70.6 356.7 70 356.85 69.3 357 68.5 357.25 67.7 357.45 66.9 357.8 66.05 358.05 65.15 358.4 64.35 358.75 63.5 359.15 62.75 359.45 61.95 359.8 61.2 360.1 60.45 360.5 59.75 360.8 59.1 361.05 58.55 361.35 58 361.6 57.55 361.95 57 362.3 56.6 362.7 56.15 363 55.75 363.3 55.45 363.55 55.1 363.8 54.8 364.05 54.45 364.2 54.25 364.35 54 364.55 53.7 364.7 53.4 365 52.9 365 52.15
L 365 51.75
Q 365 51.45 364.95 51.1 364.9 50.85 364.75 50.55 364.6 50.3 364.35 50.15 364.15 50 363.9 50
M 364.9 27.8
Q 365.05 27.5 365.15 27.15 365.2 26.8 365.2 26.3 365.2 25.95 365.15 25.6 365.05 25.25 364.9 24.9 364.7 24.6 364.35 24.45 364 24.25 363.4 24.25
L 362.25 24.25 362.15 8.8
Q 362.15 8.55 362.1 8.35 362.05 8.1 361.95 7.85 361.8 7.6 361.6 7.4 361.4 7.15 361.1 6.95 360.65 6.7 360.25 6.6 359.85 6.55 359.45 6.65 359 6.75 358.65 7 358.25 7.25 358 7.65
L 357.75 8.05
Q 357.15 8.95 356.55 9.9 355.95 10.9 355.35 11.95 354.7 13.05 354.1 14.1 353.45 15.2 352.75 16.2 351.4 18.35 350.15 20.35 349.45 21.35 348.8 22.4 348.1 23.4 347.45 24.45
L 347.3 24.9 347.25 24.9 347.25 24.95 347.2 25
Q 347.1 25.2 347 25.4 346.95 25.55 346.9 25.8 346.85 26 346.85 26.25 346.9 26.45 346.95 26.65 347 26.9 347.05 27.1 347.15 27.3 347.25 27.5 347.3 27.7 347.45 27.85 347.55 28 347.75 28.1 347.95 28.2 348.1 28.25 348.3 28.3 348.55 28.4 348.7 28.45 348.9 28.45 349.1 28.45 349.3 28.4
L 358.1 28.4 358.1 30.05
Q 358.1 30.65 358.25 31.05 358.4 31.45 358.7 31.6 359.2 32.05 360.25 32.05 360.95 32.05 361.6 31.6 362.25 31.25 362.25 30.05
L 362.25 28.4 363.4 28.4
Q 364 28.4 364.35 28.25 364.7 28.15 364.9 27.8
M 351.95 24.35
Q 352.35 23.85 352.75 23.2 353.15 22.6 353.55 21.95 354 21.3 354.4 20.6 354.75 19.95 355.15 19.3 355.6 18.65 356.05 18 356.45 17.4 356.8 16.8 357.55 15.65 358 14.8
L 358 24.35 351.95 24.35 Z"/>

<path fill="#C1EBFF" stroke="none" d="
M 17.35 253.9
L 17.4 253.9
Q 14.45 250.9 10.2 250.9 6.05 250.9 3 253.85 2.95 253.85 2.95 253.9 0 256.95 0 261.1 0 265.3 3 268.3
L 3 268.35
Q 6.05 271.25 10.2 271.25 14.4 271.25 17.3 268.35 17.35 268.3 17.4 268.25 20.35 265.3 20.35 261.1 20.35 256.9 17.35 253.9
M 10.2 255.15
Q 12.65 255.15 14.35 256.85 16.1 258.65 16.1 261.1 16.1 263.55 14.35 265.25 12.65 267 10.2 267 7.75 267 5.95 265.25 4.25 263.55 4.25 261.1 4.25 258.65 5.95 256.85 7.75 255.15 10.2 255.15
M 17.35 144.1
L 17.4 144.1
Q 14.45 141.1 10.2 141.1 6.05 141.1 3 144.05 2.95 144.05 2.95 144.1 0 147.15 0 151.3 0 155.5 3 158.5
L 3 158.55
Q 6.05 161.45 10.2 161.45 14.4 161.45 17.3 158.55 17.35 158.5 17.4 158.45 20.35 155.5 20.35 151.3 20.35 147.1 17.35 144.1
M 10.2 145.35
Q 12.65 145.35 14.35 147.05 16.1 148.85 16.1 151.3 16.1 153.75 14.35 155.45 12.65 157.2 10.2 157.2 7.75 157.2 5.95 155.45 4.25 153.75 4.25 151.3 4.25 148.85 5.95 147.05 7.75 145.35 10.2 145.35
M 17.35 34.25
L 17.4 34.25
Q 14.45 31.25 10.2 31.25 6.05 31.25 3 34.2 2.95 34.2 2.95 34.25 0 37.3 0 41.45 0 45.65 3 48.65
L 3 48.7
Q 6.05 51.6 10.2 51.6 14.4 51.6 17.3 48.7 17.35 48.65 17.4 48.6 20.35 45.65 20.35 41.45 20.35 37.25 17.35 34.25
M 5.95 45.6
Q 4.25 43.9 4.25 41.45 4.25 39 5.95 37.2 7.75 35.5 10.2 35.5 12.65 35.5 14.35 37.2 16.1 39 16.1 41.45 16.1 43.9 14.35 45.6 12.65 47.35 10.2 47.35 7.75 47.35 5.95 45.6 Z"/>

<path fill="#4CB6E6" stroke="none" d="
M 14.35 256.85
Q 12.65 255.15 10.2 255.15 7.75 255.15 5.95 256.85 4.25 258.65 4.25 261.1 4.25 263.55 5.95 265.25 7.75 267 10.2 267 12.65 267 14.35 265.25 16.1 263.55 16.1 261.1 16.1 258.65 14.35 256.85
M 14.35 147.05
Q 12.65 145.35 10.2 145.35 7.75 145.35 5.95 147.05 4.25 148.85 4.25 151.3 4.25 153.75 5.95 155.45 7.75 157.2 10.2 157.2 12.65 157.2 14.35 155.45 16.1 153.75 16.1 151.3 16.1 148.85 14.35 147.05
M 4.25 41.45
Q 4.25 43.9 5.95 45.6 7.75 47.35 10.2 47.35 12.65 47.35 14.35 45.6 16.1 43.9 16.1 41.45 16.1 39 14.35 37.2 12.65 35.5 10.2 35.5 7.75 35.5 5.95 37.2 4.25 39 4.25 41.45 Z"/>
</g>

<path id="Layer1_0_1_STROKES" stroke="#1E1E1E" stroke-width="3" stroke-linejoin="miter" stroke-linecap="butt" stroke-miterlimit="3" fill="none" d="
M 335.8 41.35
L 377.15 41.35
M 335.8 151.2
L 377.15 151.2
M 363.95 261
L 448.3 261
M 489.8 261
L 531.15 261
M 204 151.2
L 288.35 151.2
M 204 41.35
L 288.35 41.35
M 119.35 41.35
L 160.7 41.35
M 33.65 41.35
L 75 41.35
M 33.65 151.2
L 75 151.2
M 119.35 151.2
L 160.7 151.2
M 109.35 261
L 150.7 261
M 277.8 261
L 319.15 261
M 193.8 261
L 235.15 261"/>
</defs>

<g transform="matrix( 1, 0, 0, 1, 0,0) ">
<use xlink:href="#Layer1_0_FILL"/>

<use xlink:href="#Layer1_0_1_STROKES"/>
</g>
</svg>
