
<svg xmlns="http://www.w3.org/2000/svg" version="1.1" xmlns:xlink="http://www.w3.org/1999/xlink" preserveAspectRatio="none" x="0px" y="0px" width="1280px" height="720px" viewBox="0 0 1280 720">
<defs>
<g id="Layer0_0_FILL">
<path fill="#1E1E1E" stroke="none" d="
M 933.3 327.7
Q 933.2 327.55 932.5 327.55
L 930.4 327.55
Q 930.25 327.55 930.05 327.65 929.85 327.7 929.8 327.8
L 923.65 333.45
Q 923.45 333.65 923.45 333.85 923.4 334.1 923.55 334.25
L 925.35 336.4
Q 925.5 336.55 925.75 336.5 926 336.5 926.25 336.35
L 929.2 333.75 929.2 357.45
Q 929.2 357.95 929.75 357.95
L 932.95 357.95
Q 933.45 357.95 933.45 357.45
L 933.45 328.65
Q 933.45 327.85 933.3 327.7
M 1088.7 381.4
Q 1090.45 381.4 1091.6 382.65 1092.8 383.9 1092.8 385.8 1092.8 387.5 1091.2 390.1 1089.6 392.75 1086.25 396.7
L 1080.15 403.95
Q 1079.95 404.25 1079.75 404.55 1079.6 404.9 1079.6 405.2
L 1079.6 407.5
Q 1079.6 408 1080.35 408
L 1097.4 408
Q 1097.95 408 1097.95 407.3
L 1097.95 404.5
Q 1097.95 403.9 1097.4 403.9
L 1085.65 403.9
Q 1086.65 402.75 1087.65 401.6 1088.65 400.4 1089.5 399.3 1090.6 398 1092 396.4 1093.35 394.75 1094.55 393 1095.75 391.2 1096.55 389.35 1097.35 387.5 1097.35 385.7 1097.35 383.6 1096.65 382 1095.95 380.4 1094.8 379.35 1093.65 378.3 1092 377.75 1090.4 377.2 1088.45 377.2 1086.6 377.2 1084.6 377.85 1082.65 378.5 1081.15 379.3 1080.75 379.5 1080.6 379.75 1080.5 379.9 1080.6 380.1
L 1081.15 383.15
Q 1081.25 383.5 1081.55 383.55 1081.85 383.55 1082.2 383.35 1084 382.3 1085.5 381.85 1087.05 381.4 1088.7 381.4
M 1089.05 327.65
Q 1088.85 327.7 1088.8 327.8
L 1082.65 333.45
Q 1082.45 333.65 1082.45 333.85 1082.4 334.1 1082.55 334.25
L 1084.35 336.4
Q 1084.5 336.55 1084.75 336.5 1085 336.5 1085.25 336.35
L 1088.2 333.75 1088.2 357.45
Q 1088.2 357.95 1088.75 357.95
L 1091.95 357.95
Q 1092.45 357.95 1092.45 357.45
L 1092.45 328.65
Q 1092.45 327.85 1092.3 327.7 1092.2 327.55 1091.5 327.55
L 1089.4 327.55
Q 1089.25 327.55 1089.05 327.65
M 930.35 388.75
Q 928.4 388.75 926.8 389.1
L 926.95 381.7 938.1 381.7
Q 938.35 381.7 938.5 381.5 938.6 381.35 938.6 381.1
L 938.6 378.05
Q 938.6 377.85 938.5 377.7 938.35 377.5 938.1 377.5
L 923.45 377.5
Q 922.85 377.5 922.75 377.65 922.6 377.75 922.6 378.2
L 922.4 392.95
Q 922.4 394.3 923.95 393.65 925.2 393.2 926.6 392.95 928 392.65 929.3 392.65 932.6 392.65 934 394.2 935.45 395.7 935.45 398.3 935.45 401 933.65 402.5 931.95 404.05 929.25 404.05 928.55 404.05 927.7 403.95 926.9 403.9 926.05 403.75 925.2 403.55 924.4 403.35 923.6 403.1 923.05 402.8 922.2 402.4 922.2 403.1
L 922.2 406.35
Q 922.2 406.65 922.2 406.8 922.25 406.9 922.5 407.1 923.15 407.4 924.1 407.6 925 407.85 925.95 408 926.9 408.1 927.7 408.2 928.55 408.25 928.95 408.25 931.25 408.25 933.3 407.6 935.4 406.95 936.8 405.65 939.95 402.85 939.95 397.8 939.95 395.7 939.2 394.05 938.45 392.35 937.15 391.15 935.85 390 934.1 389.35 932.35 388.75 930.35 388.75
M 341.4 342.95
Q 341.4 344.3 342.95 343.65 344.2 343.2 345.6 342.95 347 342.65 348.3 342.65 351.6 342.65 353 344.2 354.45 345.7 354.45 348.3 354.45 351 352.65 352.5 350.95 354.05 348.25 354.05 347.55 354.05 346.7 353.95 345.9 353.9 345.05 353.75 344.2 353.55 343.4 353.35 342.6 353.1 342.05 352.8 341.2 352.4 341.2 353.1
L 341.2 356.35
Q 341.2 356.65 341.2 356.8 341.25 356.9 341.5 357.1 342.15 357.4 343.1 357.6 344 357.85 344.95 358 345.9 358.1 346.7 358.2 347.55 358.25 347.95 358.25 350.25 358.25 352.3 357.6 354.4 356.95 355.8 355.65 358.95 352.85 358.95 347.8 358.95 345.7 358.2 344.05 357.45 342.35 356.15 341.15 354.85 340 353.1 339.35 351.35 338.75 349.35 338.75 347.4 338.75 345.8 339.1
L 345.95 331.7 357.1 331.7
Q 357.35 331.7 357.5 331.5 357.6 331.35 357.6 331.1
L 357.6 328.05
Q 357.6 327.85 357.5 327.7 357.35 327.5 357.1 327.5
L 342.45 327.5
Q 341.85 327.5 341.75 327.65 341.6 327.75 341.6 328.2
L 341.4 342.95
M 340.5 387.35
Q 339.8 390.35 339.8 393.75 339.8 401.2 342.35 404.75 344.9 408.3 349.6 408.3 351.9 408.3 353.75 407.5 355.6 406.7 356.9 405.25 358.2 403.9 358.85 401.95 359.55 400.1 359.55 397.9 359.55 395.6 358.85 393.8 358.15 391.95 356.85 390.65 355.6 389.35 353.8 388.65 352.05 387.95 349.85 387.95 349.1 387.95 348.3 388.2 347.5 388.4 346.75 388.75 346 389.1 345.4 389.55 344.8 390 344.45 390.5 344.7 388.55 345.3 386.85 345.85 385.2 346.85 383.95 347.85 382.7 349.3 382 350.8 381.35 352.85 381.35 354.25 381.35 355.45 381.45 356.6 381.55 357.65 381.95 358.2 382.2 358.3 381.65
L 358.4 378.45
Q 358.45 378.05 358.1 377.95 357.2 377.6 355.75 377.4 354.35 377.2 353.2 377.2 349.45 377.2 346.9 378.5 344.35 379.85 342.75 382.1 341.2 384.3 340.5 387.35
M 350 392.15
Q 352.45 392.15 353.8 393.75 355.15 395.3 355.15 398.1 355.15 400.95 353.65 402.65 352.1 404.3 349.7 404.3 348.6 404.3 347.6 403.8 346.65 403.3 345.95 402.4 345.25 401.5 344.85 400.25 344.45 399.1 344.45 397.7 344.45 395.25 345.95 393.7 347.4 392.15 350 392.15
M 182.15 329.3
Q 181.75 329.5 181.6 329.75 181.5 329.9 181.6 330.1
L 182.15 333.15
Q 182.25 333.5 182.55 333.55 182.85 333.55 183.2 333.35 185 332.3 186.5 331.85 188.05 331.4 189.7 331.4 191.45 331.4 192.6 332.65 193.8 333.9 193.8 335.8 193.8 337.5 192.2 340.1 190.6 342.75 187.25 346.7
L 181.15 353.95
Q 180.95 354.25 180.75 354.55 180.6 354.9 180.6 355.2
L 180.6 357.5
Q 180.6 358 181.35 358
L 198.4 358
Q 198.95 358 198.95 357.3
L 198.95 354.5
Q 198.95 353.9 198.4 353.9
L 186.65 353.9
Q 187.65 352.75 188.65 351.6 189.65 350.4 190.5 349.3 191.6 348 193 346.4 194.35 344.75 195.55 343 196.75 341.2 197.55 339.35 198.35 337.5 198.35 335.7 198.35 333.6 197.65 332 196.95 330.4 195.8 329.35 194.65 328.3 193 327.75 191.4 327.2 189.45 327.2 187.6 327.2 185.6 327.85 183.65 328.5 182.15 329.3
M 181.5 387.35
Q 180.8 390.35 180.8 393.75 180.8 401.2 183.35 404.75 185.9 408.3 190.6 408.3 192.9 408.3 194.75 407.5 196.6 406.7 197.9 405.25 199.2 403.9 199.85 401.95 200.55 400.1 200.55 397.9 200.55 395.6 199.85 393.8 199.15 391.95 197.85 390.65 196.6 389.35 194.8 388.65 193.05 387.95 190.85 387.95 190.1 387.95 189.3 388.2 188.5 388.4 187.75 388.75 187 389.1 186.4 389.55 185.8 390 185.45 390.5 185.7 388.55 186.3 386.85 186.85 385.2 187.85 383.95 188.85 382.7 190.3 382 191.8 381.35 193.85 381.35 195.25 381.35 196.45 381.45 197.6 381.55 198.65 381.95 199.2 382.2 199.3 381.65
L 199.4 378.45
Q 199.45 378.05 199.1 377.95 198.2 377.6 196.75 377.4 195.35 377.2 194.2 377.2 190.45 377.2 187.9 378.5 185.35 379.85 183.75 382.1 182.2 384.3 181.5 387.35
M 186.95 393.7
Q 188.4 392.15 191 392.15 193.45 392.15 194.8 393.75 196.15 395.3 196.15 398.1 196.15 400.95 194.65 402.65 193.1 404.3 190.7 404.3 189.6 404.3 188.6 403.8 187.65 403.3 186.95 402.4 186.25 401.5 185.85 400.25 185.45 399.1 185.45 397.7 185.45 395.25 186.95 393.7
M 722.45 328.65
Q 722.45 327.85 722.3 327.7 722.2 327.55 721.5 327.55
L 719.4 327.55
Q 719.25 327.55 719.05 327.65 718.85 327.7 718.8 327.8
L 712.65 333.45
Q 712.45 333.65 712.45 333.85 712.4 334.1 712.55 334.25
L 714.35 336.4
Q 714.5 336.55 714.75 336.5 715 336.5 715.25 336.35
L 718.2 333.75 718.2 357.45
Q 718.2 357.95 718.75 357.95
L 721.95 357.95
Q 722.45 357.95 722.45 357.45
L 722.45 328.65
M 726.1 378.15
Q 726.1 377.8 726.05 377.7 726 377.55 725.7 377.55
L 722.05 377.55
Q 721.65 377.55 721.55 377.65 721.45 377.75 721.25 378.1
L 708.85 396.7
Q 708.7 396.85 708.55 397.15 708.35 397.45 708.35 397.7
L 708.35 400.7
Q 708.35 401 708.5 401.05 708.65 401.15 709 401.15
L 721.8 401.15 721.8 407.25
Q 721.8 407.65 721.95 407.8 722.1 407.95 722.55 407.95
L 725.45 407.95
Q 725.85 407.95 725.95 407.8 726.1 407.7 726.1 407.25
L 726.1 401.15 729.8 401.15
Q 730.15 401.15 730.3 401.05 730.45 400.95 730.45 400.55
L 730.45 397.65
Q 730.45 397.25 730.3 397.15 730.15 397.05 729.8 397.05
L 726.1 397.05 726.1 378.15
M 721.8 397.05
L 713.2 397.05 721.8 384 721.8 397.05
M 566.05 329
Q 564.75 328.1 563 327.65 561.25 327.2 559.45 327.2 557.75 327.2 556.1 327.55 554.4 327.95 552.65 328.55 552.25 328.75 552.1 328.95 551.95 329.1 552.05 329.35
L 552.4 332.3
Q 552.5 332.65 552.7 332.75 552.9 332.85 553.4 332.65 554 332.4 554.8 332.15 555.6 331.9 556.4 331.75 557.2 331.55 557.95 331.45 558.65 331.35 559.2 331.35 560.05 331.35 561 331.55 561.95 331.75 562.8 332.25 563.6 332.7 564.15 333.5 564.65 334.25 564.65 335.25 564.65 336.6 563.85 337.5 563.05 338.45 561.85 339.05 560.7 339.65 559.45 339.9 558.2 340.15 557.35 340.15
L 555.45 340.15
Q 555.1 340.15 555 340.25 554.9 340.3 554.9 340.7
L 554.9 343.65
Q 554.9 343.95 555 344.05 555.1 344.15 555.45 344.15
L 557.4 344.15
Q 559.35 344.15 560.7 344.55 562.1 344.9 563 345.6 563.85 346.25 564.3 347.1 564.7 347.95 564.7 348.9 564.7 351.55 562.75 352.9 562.1 353.35 561.35 353.6 560.55 353.9 559.7 354 558.85 354.1 557.95 354.05 557.05 354 556.25 353.95 555.15 353.85 554.1 353.55 553.05 353.25 552 352.95 551.45 352.7 551.25 352.85 551.05 352.95 551 353.3
L 550.65 356.35
Q 550.6 356.7 550.8 356.85 550.95 357.05 551.35 357.15 552.8 357.7 554.55 358 556.3 358.3 558.05 358.3 560.35 358.3 562.5 357.7 564.65 357.15 566.15 355.9 567.65 354.65 568.5 352.9 569.3 351.1 569.3 349 569.3 346.8 567.95 345 566.6 343.25 563.95 342.1 565.05 341.6 566 340.85 566.95 340.1 567.65 339.1 568.35 338.15 568.75 337.1 569.1 336 569.1 334.9 569.1 332.9 568.25 331.4 567.4 329.9 566.05 329
M 566.7 377.55
L 563.05 377.55
Q 562.65 377.55 562.55 377.65 562.45 377.75 562.25 378.1
L 549.85 396.7
Q 549.7 396.85 549.55 397.15 549.35 397.45 549.35 397.7
L 549.35 400.7
Q 549.35 401 549.5 401.05 549.65 401.15 550 401.15
L 562.8 401.15 562.8 407.25
Q 562.8 407.65 562.95 407.8 563.1 407.95 563.55 407.95
L 566.45 407.95
Q 566.85 407.95 566.95 407.8 567.1 407.7 567.1 407.25
L 567.1 401.15 570.8 401.15
Q 571.15 401.15 571.3 401.05 571.45 400.95 571.45 400.55
L 571.45 397.65
Q 571.45 397.25 571.3 397.15 571.15 397.05 570.8 397.05
L 567.1 397.05 567.1 378.15
Q 567.1 377.8 567.05 377.7 567 377.55 566.7 377.55
M 562.8 397.05
L 554.2 397.05 562.8 384 562.8 397.05 Z"/>
</g>

<path id="Layer0_0_1_STROKES" stroke="#1E1E1E" stroke-width="3" stroke-linejoin="miter" stroke-linecap="butt" stroke-miterlimit="3" fill="none" d="
M 1070.4 367.5
L 1108.6 367.5
M 700.4 367.5
L 738.6 367.5
M 911.4 367.5
L 949.6 367.5
M 330.4 367.5
L 368.6 367.5
M 541.4 367.5
L 579.6 367.5
M 171.4 367.5
L 209.6 367.5"/>
</defs>

<g transform="matrix( 1, 0, 0, 1, 0,0) ">
<use xlink:href="#Layer0_0_FILL"/>

<use xlink:href="#Layer0_0_1_STROKES"/>
</g>
</svg>
