
<svg xmlns="http://www.w3.org/2000/svg" version="1.1" xmlns:xlink="http://www.w3.org/1999/xlink" preserveAspectRatio="none" x="0px" y="0px" width="1280px" height="720px" viewBox="0 0 1280 720">
<defs>
<g id="Layer0_0_FILL">
<path fill="#1E1E1E" stroke="none" d="
M 365.65 428.75
L 369 428.75
Q 369.15 428.75 369.35 428.6 369.45 428.45 369.45 428.25
L 369.45 413.85
Q 369.45 410.2 367.35 408.2 365.3 406.15 361.9 406.15 359.85 406.15 358.05 407.1 356.25 408.05 355.35 409.95 354.6 408.1 352.85 407.1 351.15 406.15 349.05 406.15 347.5 406.15 346.1 406.8 344.7 407.45 343.9 408.35
L 343.95 406.95
Q 343.95 406.65 343.6 406.65
L 340.2 406.65
Q 339.55 406.65 339.6 407.15 339.7 407.95 339.75 409.35 339.8 410.75 339.8 412.3
L 339.8 428.2
Q 339.8 428.4 339.9 428.6 340.05 428.75 340.25 428.75
L 343.6 428.75
Q 344.05 428.75 344.05 428.25
L 344.05 415.25
Q 344.05 412.85 345.3 411.5 346.55 410.1 348.8 410.1 352.35 410.1 352.35 414.35
L 352.35 428.2
Q 352.35 428.4 352.5 428.6 352.65 428.75 352.85 428.75
L 356.2 428.75
Q 356.65 428.75 356.65 428.25
L 356.65 416.65
Q 356.65 415.25 357 414.05 357.35 412.85 358 412 358.6 411.1 359.55 410.65 360.5 410.1 361.7 410.1 363.4 410.1 364.25 411.3 365.15 412.5 365.15 414.35
L 365.15 428.2
Q 365.15 428.4 365.3 428.6 365.45 428.75 365.65 428.75
M 322.95 409.4
Q 321.5 410.9 320.7 413.05 319.9 415.15 319.9 417.7 319.9 420.1 320.55 422.15 321.25 424.2 322.55 425.75 323.85 427.25 325.8 428.2 327.75 429.1 330.25 429.3 331.05 429.3 331.85 429.3 332.7 429.3 333.4 429.2 334.15 429.1 334.8 429 335.45 428.9 335.9 428.7 336.2 428.65 336.25 428.5 336.3 428.35 336.25 428.05
L 336.1 425.3
Q 336.05 425.05 335.95 424.95 335.8 424.8 335.45 424.95 333.25 425.65 330.5 425.3 327.5 424.95 325.95 422.95 324.35 420.95 324.35 417.7 324.35 414.3 326.05 412.2 327.7 410.1 330.95 410.1 332 410.1 333.15 410.25 334.35 410.35 335.25 410.7 335.6 410.75 335.7 410.65 335.9 410.5 335.9 410.25
L 336.25 407.5
Q 336.3 407.1 336.25 407 336.15 406.9 336 406.85 334.8 406.45 333.55 406.3 332.25 406.15 331.05 406.15 328.5 406.15 326.45 407 324.45 407.85 322.95 409.4
M 307.65 418.65
Q 307.65 418.25 307.5 418.15 307.35 418.05 307 418.05
L 303.3 418.05 303.3 399.15
Q 303.3 398.8 303.25 398.7 303.2 398.55 302.9 398.55
L 299.25 398.55
Q 298.85 398.55 298.75 398.65 298.65 398.75 298.45 399.1
L 286.05 417.7
Q 285.9 417.85 285.75 418.15 285.55 418.45 285.55 418.7
L 285.55 421.7
Q 285.55 422 285.7 422.05 285.85 422.15 286.2 422.15
L 299 422.15 299 428.25
Q 299 428.65 299.15 428.8 299.3 428.95 299.75 428.95
L 302.65 428.95
Q 303.05 428.95 303.15 428.8 303.3 428.7 303.3 428.25
L 303.3 422.15 307 422.15
Q 307.35 422.15 307.5 422.05 307.65 421.95 307.65 421.55
L 307.65 418.65
M 299 405
L 299 418.05 290.4 418.05 299 405
M 603.15 258.65
Q 604.1 258.1 605.3 258.1 607 258.1 607.85 259.3 608.75 260.5 608.75 262.35
L 608.75 276.2
Q 608.75 276.4 608.9 276.6 609.05 276.75 609.25 276.75
L 612.6 276.75
Q 612.75 276.75 612.95 276.6 613.05 276.45 613.05 276.25
L 613.05 261.85
Q 613.05 258.2 610.95 256.2 608.9 254.15 605.5 254.15 603.45 254.15 601.65 255.1 599.85 256.05 598.95 257.95 598.2 256.1 596.45 255.1 594.75 254.15 592.65 254.15 591.1 254.15 589.7 254.8 588.3 255.45 587.5 256.35
L 587.55 254.95
Q 587.55 254.65 587.2 254.65
L 583.8 254.65
Q 583.15 254.65 583.2 255.15 583.3 255.95 583.35 257.35 583.4 258.75 583.4 260.3
L 583.4 276.2
Q 583.4 276.4 583.5 276.6 583.65 276.75 583.85 276.75
L 587.2 276.75
Q 587.65 276.75 587.65 276.25
L 587.65 263.25
Q 587.65 260.85 588.9 259.5 590.15 258.1 592.4 258.1 595.95 258.1 595.95 262.35
L 595.95 276.2
Q 595.95 276.4 596.1 276.6 596.25 276.75 596.45 276.75
L 599.8 276.75
Q 600.25 276.75 600.25 276.25
L 600.25 264.65
Q 600.25 263.25 600.6 262.05 600.95 260.85 601.6 260 602.2 259.1 603.15 258.65
M 579.85 255
Q 579.75 254.9 579.6 254.85 578.4 254.45 577.15 254.3 575.85 254.15 574.65 254.15 572.1 254.15 570.05 255 568.05 255.85 566.55 257.4 565.1 258.9 564.3 261.05 563.5 263.15 563.5 265.7 563.5 268.1 564.15 270.15 564.85 272.2 566.15 273.75 567.45 275.25 569.4 276.2 571.35 277.1 573.85 277.3 574.65 277.3 575.45 277.3 576.3 277.3 577 277.2 577.75 277.1 578.4 277 579.05 276.9 579.5 276.7 579.8 276.65 579.85 276.5 579.9 276.35 579.85 276.05
L 579.7 273.3
Q 579.65 273.05 579.55 272.95 579.4 272.8 579.05 272.95 576.85 273.65 574.1 273.3 571.1 272.95 569.55 270.95 567.95 268.95 567.95 265.7 567.95 262.3 569.65 260.2 571.3 258.1 574.55 258.1 575.6 258.1 576.75 258.25 577.95 258.35 578.85 258.7 579.2 258.75 579.3 258.65 579.5 258.5 579.5 258.25
L 579.85 255.5
Q 579.9 255.1 579.85 255
M 540.3 246.2
Q 538 246.2 536.2 247 534.35 247.8 533.05 249.2 531.75 250.6 531.05 252.5 530.4 254.4 530.4 256.6 530.4 258.9 531.1 260.7 531.75 262.5 533.05 263.8 534.35 265.1 536.15 265.8 537.9 266.5 540.05 266.5 540.8 266.5 541.6 266.3 542.4 266.1 543.15 265.75 543.9 265.4 544.55 264.95 545.15 264.5 545.5 264 545.25 265.9 544.65 267.6 544.05 269.25 543.05 270.5 542.05 271.75 540.6 272.45 539.15 273.15 537.05 273.15 535.65 273.15 534.5 273.05 533.3 272.95 532.25 272.5 531.7 272.3 531.6 272.85
L 531.5 276.05
Q 531.45 276.45 531.8 276.55 532.75 276.9 534.15 277.1 535.6 277.3 536.75 277.3 540.45 277.3 543 275.95 545.6 274.65 547.15 272.4 548.75 270.15 549.45 267.15 550.1 264.1 550.1 260.75 550.1 253.3 547.55 249.75 545 246.2 540.3 246.2
M 540.25 250.15
Q 541.35 250.15 542.3 250.7 543.25 251.2 543.95 252.1 544.65 253 545.05 254.2 545.45 255.4 545.45 256.75 545.45 259.2 544 260.8 542.5 262.35 539.9 262.35 537.45 262.35 536.15 260.75 534.8 259.15 534.8 256.4 534.8 253.5 536.3 251.85 537.85 250.15 540.25 250.15
M 706.55 550.65
Q 705.35 550.25 704.1 550.1 702.8 549.95 701.6 549.95 699.05 549.95 697 550.8 695 551.65 693.5 553.2 692.05 554.7 691.25 556.85 690.45 558.95 690.45 561.5 690.45 563.9 691.1 565.95 691.8 568 693.1 569.55 694.4 571.05 696.35 572 698.3 572.9 700.8 573.1 701.6 573.1 702.4 573.1 703.25 573.1 703.95 573 704.7 572.9 705.35 572.8 706 572.7 706.45 572.5 706.75 572.45 706.8 572.3 706.85 572.15 706.8 571.85
L 706.65 569.1
Q 706.6 568.85 706.5 568.75 706.35 568.6 706 568.75 703.8 569.45 701.05 569.1 698.05 568.75 696.5 566.75 694.9 564.75 694.9 561.5 694.9 558.1 696.6 556 698.25 553.9 701.5 553.9 702.55 553.9 703.7 554.05 704.9 554.15 705.8 554.5 706.15 554.55 706.25 554.45 706.45 554.3 706.45 554.05
L 706.8 551.3
Q 706.85 550.9 706.8 550.8 706.7 550.7 706.55 550.65
M 723.4 550.9
Q 721.7 549.95 719.6 549.95 718.05 549.95 716.65 550.6 715.25 551.25 714.45 552.15
L 714.5 550.75
Q 714.5 550.45 714.15 550.45
L 710.75 550.45
Q 710.1 550.45 710.15 550.95 710.25 551.75 710.3 553.15 710.35 554.55 710.35 556.1
L 710.35 572
Q 710.35 572.2 710.45 572.4 710.6 572.55 710.8 572.55
L 714.15 572.55
Q 714.6 572.55 714.6 572.05
L 714.6 559.05
Q 714.6 556.65 715.85 555.3 717.1 553.9 719.35 553.9 722.9 553.9 722.9 558.15
L 722.9 572
Q 722.9 572.2 723.05 572.4 723.2 572.55 723.4 572.55
L 726.75 572.55
Q 727.2 572.55 727.2 572.05
L 727.2 560.45
Q 727.2 559.05 727.55 557.85 727.9 556.65 728.55 555.8 729.15 554.9 730.1 554.45 731.05 553.9 732.25 553.9 733.95 553.9 734.8 555.1 735.7 556.3 735.7 558.15
L 735.7 572
Q 735.7 572.2 735.85 572.4 736 572.55 736.2 572.55
L 739.55 572.55
Q 739.7 572.55 739.9 572.4 740 572.25 740 572.05
L 740 557.65
Q 740 554 737.9 552 735.85 549.95 732.45 549.95 730.4 549.95 728.6 550.9 726.8 551.85 725.9 553.75 725.15 551.9 723.4 550.9
M 957.5 369.05
Q 956.2 368.9 955 368.9 952.45 368.9 950.4 369.75 948.4 370.6 946.9 372.15 945.45 373.65 944.65 375.8 943.85 377.9 943.85 380.45 943.85 382.85 944.5 384.9 945.2 386.95 946.5 388.5 947.8 390 949.75 390.95 951.7 391.85 954.2 392.05 955 392.05 955.8 392.05 956.65 392.05 957.35 391.95 958.1 391.85 958.75 391.75 959.4 391.65 959.85 391.45 960.15 391.4 960.2 391.25 960.25 391.1 960.2 390.8
L 960.05 388.05
Q 960 387.8 959.9 387.7 959.75 387.55 959.4 387.7 957.2 388.4 954.45 388.05 951.45 387.7 949.9 385.7 948.3 383.7 948.3 380.45 948.3 377.05 950 374.95 951.65 372.85 954.9 372.85 955.95 372.85 957.1 373 958.3 373.1 959.2 373.45 959.55 373.5 959.65 373.4 959.85 373.25 959.85 373
L 960.2 370.25
Q 960.25 369.85 960.2 369.75 960.1 369.65 959.95 369.6 958.75 369.2 957.5 369.05
M 991.3 370.95
Q 989.25 368.9 985.85 368.9 983.8 368.9 982 369.85 980.2 370.8 979.3 372.7 978.55 370.85 976.8 369.85 975.1 368.9 973 368.9 971.45 368.9 970.05 369.55 968.65 370.2 967.85 371.1
L 967.9 369.7
Q 967.9 369.4 967.55 369.4
L 964.15 369.4
Q 963.5 369.4 963.55 369.9 963.65 370.7 963.7 372.1 963.75 373.5 963.75 375.05
L 963.75 390.95
Q 963.75 391.15 963.85 391.35 964 391.5 964.2 391.5
L 967.55 391.5
Q 968 391.5 968 391
L 968 378
Q 968 375.6 969.25 374.25 970.5 372.85 972.75 372.85 976.3 372.85 976.3 377.1
L 976.3 390.95
Q 976.3 391.15 976.45 391.35 976.6 391.5 976.8 391.5
L 980.15 391.5
Q 980.6 391.5 980.6 391
L 980.6 379.4
Q 980.6 378 980.95 376.8 981.3 375.6 981.95 374.75 982.55 373.85 983.5 373.4 984.45 372.85 985.65 372.85 987.35 372.85 988.2 374.05 989.1 375.25 989.1 377.1
L 989.1 390.95
Q 989.1 391.15 989.25 391.35 989.4 391.5 989.6 391.5
L 992.95 391.5
Q 993.1 391.5 993.3 391.35 993.4 391.2 993.4 391
L 993.4 376.6
Q 993.4 372.95 991.3 370.95 Z"/>

<path fill="#FFFFFF" stroke="none" d="
M 679.9 536.75
Q 679.9 521.75 664.9 521.75
L 634.9 521.75
Q 619.9 521.75 619.9 536.75
L 619.9 566.8
Q 619.9 581.8 634.9 581.8
L 664.9 581.8
Q 679.9 581.8 679.9 566.8
L 679.9 536.75
M 873.3 355.7
L 873.3 385.75
Q 873.3 400.75 888.3 400.75
L 918.3 400.75
Q 933.3 400.75 933.3 385.75
L 933.3 355.7
Q 933.3 340.7 918.3 340.7
L 888.3 340.7
Q 873.3 340.7 873.3 355.7 Z"/>
</g>

<g id="Layer0_0_STROKES_1_FILL">
<path fill="#00BDF2" stroke="none" d="
M 438.45 499.8
Q 438.327734375 499.4181640625 437.95 499.25 436.4263671875 498.5501953125 435.15 497.9 434.7724609375 497.716796875 434.35 497.85 433.984765625 497.9802734375 433.8 498.35 433.61640625 498.7271484375 433.75 499.1 433.8806640625 499.5146484375 434.25 499.7 435.5732421875 500.349609375 437.15 501.05 437.52109375 501.22109375 437.9 501.05 438.2822265625 500.928125 438.45 500.55 438.621484375 500.1791015625 438.45 499.8
M 441.75 500.8
Q 441.3998046875 500.666015625 441 500.8 440.6375 500.98984375 440.45 501.35 440.3158203125 501.7501953125 440.45 502.1 440.63984375 502.5123046875 441 502.65 442.3865234375 503.2373046875 443.9 503.8 444.2931640625 503.93359375 444.65 503.75 445.05390625 503.58125 445.2 503.2 445.333984375 502.8068359375 445.15 502.4 444.98125 502.0462890625 444.6 501.9 443.11328125 501.3625 441.75 500.8
M 461.25 509.2
Q 462.7375 509.6126953125 464.25 510.05 464.6669921875 510.1703125 465 509.95 465.3861328125 509.773046875 465.5 509.35 465.6205078125 508.9833984375 465.4 508.6 465.22265625 508.2638671875 464.8 508.15 463.2623046875 507.6873046875 461.75 507.25 461.3546875 507.167578125 461 507.35 460.6365234375 507.5923828125 460.5 508 460.4173828125 508.3951171875 460.6 508.75 460.842578125 509.11328125 461.25 509.2
M 447.15 504.6
Q 447.348046875 504.9703125 447.75 505.1 449.15 505.55 450.7 506.05 451.08671875 506.183203125 451.45 506 451.820703125 505.8015625 451.95 505.4 452.08359375 505.0130859375 451.9 504.65 451.7015625 504.2796875 451.3 504.15 449.7498046875 503.6498046875 448.35 503.2 447.9634765625 503.066796875 447.6 503.25 447.229296875 503.4484375 447.1 503.85 446.96640625 504.2369140625 447.15 504.6
M 458.55 506.65
Q 458.3869140625 506.315625 458 506.2 456.537109375 505.749609375 455.1 505.35 454.7322265625 505.2296875 454.35 505.4 454.01328125 505.6275390625 453.9 506 453.7794921875 506.4173828125 453.95 506.75 454.1779296875 507.1365234375 454.55 507.25 455.9626953125 507.6501953125 457.4 508.1 457.801953125 508.220703125 458.15 508 458.534375 507.8376953125 458.65 507.45 458.7708984375 507.0486328125 458.55 506.65
M 475.25 511.15
Q 474.921875 511.3701171875 474.8 511.75 474.73046875 512.1734375 474.95 512.5 475.1697265625 512.877734375 475.55 512.95 477.0248046875 513.3248046875 478.5 513.65 478.9248046875 513.7689453125 479.25 513.55 479.62890625 513.32890625 479.7 512.9 479.8193359375 512.5251953125 479.6 512.15 479.37890625 511.821484375 478.95 511.7 477.475 511.375 476 511 475.626953125 510.930859375 475.25 511.15
M 470.9 509.7
L 470.85 509.7
Q 469.775 509.475 468.7 509.2 468.32578125 509.130859375 467.95 509.35 467.621484375 509.570703125 467.5 509.95 467.4306640625 510.3740234375 467.65 510.7 467.870703125 511.078125 468.25 511.15 469.3134765625 511.422265625 470.4 511.65 471 511.825 471.6 511.95 471.996484375 512.0693359375 472.35 511.85 472.71484375 511.643359375 472.8 511.25 472.9197265625 510.8529296875 472.7 510.5 472.4939453125 510.135546875 472.1 510 471.5 509.875 470.9 509.7
M 390.85 474.95
Q 390.541796875 474.71015625 390.1 474.75 389.723828125 474.798828125 389.45 475.1 389.209765625 475.4576171875 389.25 475.85 389.2994140625 476.2755859375 389.6 476.5 390.8375 477.4876953125 392.05 478.4 392.3873046875 478.6533203125 392.8 478.6 393.2046875 478.5365234375 393.45 478.2 393.70390625 477.86328125 393.65 477.45 393.5857421875 477.0458984375 393.25 476.8 392.0625 475.9123046875 390.85 474.95
M 399.25 481.1
Q 398.024609375 480.2869140625 396.75 479.35 396.4103515625 479.1083984375 396 479.15 395.5935546875 479.2271484375 395.35 479.55 395.1080078125 479.888671875 395.15 480.3 395.2279296875 480.7060546875 395.55 480.95 396.875390625 481.9130859375 398.15 482.75 398.4951171875 483.00546875 398.9 482.9 399.2986328125 482.844921875 399.5 482.5 399.7556640625 482.1560546875 399.65 481.75 399.59375 481.3515625 399.25 481.1
M 383.9 471.35
Q 383.9189453125 471.765234375 384.2 472.05 385.3494140625 473.0626953125 386.5 474 386.8421875 474.2884765625 387.25 474.25 387.660546875 474.202734375 387.9 473.85 388.1892578125 473.5580078125 388.15 473.15 388.10234375 472.740234375 387.75 472.45 386.6501953125 471.5369140625 385.55 470.55 385.2650390625 470.2765625 384.85 470.3 384.4337890625 470.31875 384.15 470.6 383.8755859375 470.934765625 383.9 471.35
M 379.1 465.9
Q 378.803515625 466.1892578125 378.8 466.6 378.803515625 467.0107421875 379.1 467.3 380.162109375 468.375390625 381.25 469.4 381.584765625 469.6734375 382 469.65 382.4162109375 469.63125 382.7 469.3 382.9744140625 469.015234375 382.95 468.6 382.9310546875 468.1845703125 382.6 467.9 381.537890625 466.924609375 380.5 465.9 380.2107421875 465.603515625 379.8 465.6 379.3892578125 465.603515625 379.1 465.9
M 373.95 461.65
Q 373.9400390625 462.09296875 374.2 462.4 375.225 463.45 376.2 464.5 376.5126953125 464.7947265625 376.9 464.8 377.3435546875 464.8107421875 377.65 464.5 377.9451171875 464.2380859375 377.95 463.8 377.9599609375 463.40703125 377.65 463.1 376.675 462.05 375.65 461 375.3873046875 460.7052734375 374.95 460.7 374.5564453125 460.6892578125 374.25 460.95 373.9548828125 461.2619140625 373.95 461.65
M 369.3 456.5
Q 369.275 456.9359375 369.55 457.25 370.4998046875 458.3623046875 371.5 459.45 371.7845703125 459.7810546875 372.2 459.8 372.615234375 459.8244140625 372.9 459.55 373.23125 459.2662109375 373.25 458.85 373.2734375 458.434765625 373 458.1 372 457.0375 371.05 455.95 370.781640625 455.6333984375 370.35 455.6 369.963671875 455.57421875 369.65 455.85 369.333203125 456.1173828125 369.3 456.5
M 366.55 450.6
Q 366.309765625 450.2974609375 365.9 450.25 365.491796875 450.210546875 365.15 450.45 364.847265625 450.739453125 364.8 451.15 364.761328125 451.5578125 365 451.85 365.975 453.025 366.9 454.15 367.190234375 454.50234375 367.6 454.55 368.0080078125 454.5892578125 368.3 454.3 368.652734375 454.060546875 368.7 453.65 368.7384765625 453.2421875 368.45 452.9 367.525 451.775 366.55 450.6
M 362.3 445.25
Q 362.0541015625 444.9140625 361.65 444.85 361.23671875 444.79609375 360.9 445.05 360.5634765625 445.2953125 360.5 445.7 360.446484375 446.1126953125 360.7 446.45 361.6125 447.6626953125 362.5 448.8 362.7740234375 449.1505859375 363.15 449.2 363.5916015625 449.240625 363.9 448.95 364.25078125 448.7267578125 364.3 448.3 364.3521484375 447.90859375 364.1 447.55 363.2 446.437109375 362.3 445.25
M 356.3 440.15
Q 356.246484375 440.5626953125 356.5 440.9 357.4 442.1 358.3 443.3 358.5458984375 443.6357421875 358.95 443.7 359.36328125 443.75390625 359.7 443.5 360.0365234375 443.2546875 360.1 442.85 360.1533203125 442.4373046875 359.9 442.1 359 440.9 358.1 439.7 357.8541015625 439.3640625 357.45 439.3 357.03671875 439.24609375 356.7 439.5 356.3634765625 439.7453125 356.3 440.15
M 420 493.15
Q 419.8662109375 493.55859375 420.05 493.9 420.2326171875 494.3052734375 420.6 494.45 422.100390625 494.95078125 423.5 495.35 423.9177734375 495.4703125 424.25 495.25 424.63671875 495.0724609375 424.75 494.65 424.8705078125 494.2826171875 424.65 493.9 424.4720703125 493.5634765625 424.05 493.45 422.699609375 493.0490234375 421.25 492.55 420.8921875 492.4166015625 420.5 492.6 420.144140625 492.7833984375 420 493.15
M 414.8 490
Q 414.4421875 489.8162109375 414.05 489.95 413.66875 490.09609375 413.5 490.45 413.316015625 490.8568359375 413.45 491.25 413.596875 491.6310546875 413.95 491.8 415.4 492.4634765625 416.8 493 417.2150390625 493.183984375 417.6 493 417.9765625 492.8587890625 418.1 492.45 418.2841796875 492.0853515625 418.1 491.7 417.95859375 491.3236328125 417.55 491.15 416.2 490.636328125 414.8 490
M 407.15 487.95
Q 407.2634765625 488.3716796875 407.6 488.55 408.975 489.3251953125 410.25 490 410.63515625 490.2201171875 411 490.1 411.4240234375 489.9853515625 411.6 489.6 411.820703125 489.265234375 411.7 488.85 411.5849609375 488.4767578125 411.2 488.25 409.9248046875 487.5748046875 408.55 486.8 408.2169921875 486.630078125 407.8 486.75 407.4275390625 486.86328125 407.2 487.2 407.0294921875 487.5826171875 407.15 487.95
M 405.5 486.2
Q 405.7328125 485.84453125 405.6 485.45 405.5115234375 485.0419921875 405.15 484.8 403.8748046875 484.0990234375 402.6 483.25 402.2521484375 483.0439453125 401.85 483.1 401.44921875 483.206640625 401.2 483.55 400.99375 483.8966796875 401.05 484.3 401.1576171875 484.7005859375 401.5 484.9 402.8248046875 485.80078125 404.15 486.55 404.5068359375 486.7826171875 404.9 486.65 405.308203125 486.562890625 405.5 486.2
M 598.4 530.65
Q 598.1607421875 530.3478515625 597.75 530.3 596.25 530.15 594.75 530 594.3419921875 529.9607421875 594 530.2 593.69765625 530.4888671875 593.65 530.9 593.610546875 531.307421875 593.85 531.6 594.1392578125 531.951953125 594.55 532 596.05 532.15 597.55 532.3 597.9578125 532.3392578125 598.25 532.05 598.60234375 531.8111328125 598.65 531.4 598.6896484375 530.992578125 598.4 530.65
M 604.8 531
Q 603.3 530.85 601.8 530.7 601.3919921875 530.6607421875 601.05 530.9 600.74765625 531.1888671875 600.7 531.6 600.660546875 532.007421875 600.9 532.3 601.1892578125 532.651953125 601.6 532.7 603.1 532.85 604.6 533 605.0078125 533.0392578125 605.3 532.75 605.65234375 532.5111328125 605.7 532.1 605.7396484375 531.692578125 605.45 531.35 605.2107421875 531.0478515625 604.8 531
M 586.55 530.15
Q 586.510546875 530.557421875 586.75 530.85 587.0392578125 531.201953125 587.45 531.25 588.95 531.3998046875 590.5 531.55 590.9068359375 531.5890625 591.2 531.3 591.55234375 531.0609375 591.6 530.65 591.639453125 530.2423828125 591.35 529.9 591.11171875 529.5978515625 590.7 529.55 589.15 529.4 587.65 529.25 587.2419921875 529.2107421875 586.9 529.45 586.59765625 529.7388671875 586.55 530.15
M 580.6 528.55
Q 580.1919921875 528.5107421875 579.85 528.75 579.54765625 529.0388671875 579.5 529.45 579.460546875 529.857421875 579.7 530.15 579.9892578125 530.501953125 580.4 530.55 581.9 530.6998046875 583.45 530.85 583.8568359375 530.8890625 584.15 530.6 584.50234375 530.3609375 584.55 529.95 584.589453125 529.5423828125 584.3 529.2 584.06171875 528.8978515625 583.65 528.85 582.1 528.7 580.6 528.55
M 577.45 529.2
Q 577.4896484375 528.792578125 577.2 528.45 576.9607421875 528.1478515625 576.55 528.1 575.05 527.95 573.55 527.8 573.1419921875 527.7607421875 572.8 528 572.49765625 528.2888671875 572.45 528.7 572.410546875 529.107421875 572.65 529.4 572.9392578125 529.751953125 573.35 529.8 574.85 529.95 576.35 530.1 576.7578125 530.1392578125 577.05 529.85 577.40234375 529.6111328125 577.45 529.2
M 521.2 521.3
Q 521.2923828125 520.9150390625 521.05 520.55 520.8197265625 520.240625 520.4 520.15 518.925 519.925 517.4 519.65 517.0146484375 519.6078125 516.65 519.85 516.3404296875 520.0798828125 516.25 520.45 516.2076171875 520.8849609375 516.45 521.2 516.6802734375 521.559375 517.05 521.6 518.575 521.875 520.05 522.1 520.4853515625 522.1921875 520.8 521.95 521.1595703125 521.7201171875 521.2 521.3
M 495.5 516.45
Q 495.4439453125 516.85390625 495.65 517.2 495.8998046875 517.5435546875 496.3 517.6 497.7498046875 517.925 499.25 518.2 499.6541015625 518.30546875 500 518.05 500.344140625 517.849609375 500.4 517.45 500.5060546875 517.0453125 500.25 516.7 500.0501953125 516.35625 499.65 516.25 498.15 515.9748046875 496.7 515.65 496.2958984375 515.594140625 495.95 515.8 495.60625 516.049609375 495.5 516.45
M 486.6 514.55
Q 486.7193359375 514.1751953125 486.5 513.8 486.27890625 513.471484375 485.85 513.35 484.375 513.025 482.9 512.65 482.526953125 512.580859375 482.15 512.8 481.821875 513.0201171875 481.7 513.4 481.63046875 513.8234375 481.85 514.15 482.0697265625 514.527734375 482.45 514.6 483.9248046875 514.9748046875 485.4 515.3 485.8248046875 515.4189453125 486.15 515.2 486.52890625 514.97890625 486.6 514.55
M 488.75 515.8
Q 488.9998046875 516.1435546875 489.4 516.2 490.8498046875 516.525 492.35 516.8 492.7541015625 516.90546875 493.1 516.65 493.444140625 516.449609375 493.5 516.05 493.6060546875 515.6453125 493.35 515.3 493.1501953125 514.95625 492.75 514.85 491.25 514.5748046875 489.8 514.25 489.3958984375 514.194140625 489.05 514.4 488.70625 514.649609375 488.6 515.05 488.5439453125 515.45390625 488.75 515.8
M 507.35 518.85
Q 507.4560546875 518.4453125 507.2 518.1 507.0001953125 517.75625 506.6 517.65 505.1 517.375 503.6 517.05 503.1958984375 516.9943359375 502.85 517.2 502.505859375 517.4501953125 502.4 517.85 502.3439453125 518.2546875 502.55 518.6 502.7998046875 518.94375 503.2 519 504.7 519.325 506.2 519.6 506.6041015625 519.70546875 506.95 519.45 507.294140625 519.249609375 507.35 518.85
M 509.8 518.55
Q 509.45625 518.799609375 509.35 519.2 509.2939453125 519.60390625 509.5 519.95 509.7498046875 520.2935546875 510.15 520.35 511.612109375 520.6751953125 513.1 520.9 513.5353515625 520.9921875 513.85 520.75 514.2095703125 520.5201171875 514.25 520.1 514.3423828125 519.7150390625 514.1 519.35 513.8697265625 519.040625 513.45 518.95 511.9876953125 518.7248046875 510.55 518.4 510.1458984375 518.344140625 509.8 518.55
M 555.4 525.5
Q 553.925 525.3 552.4 525.1 552.0228515625 525.0466796875 551.7 525.3 551.362890625 525.558984375 551.3 525.95 551.246484375 526.3771484375 551.5 526.7 551.7587890625 527.03671875 552.15 527.1 553.675 527.3 555.15 527.5 555.576953125 527.5533203125 555.9 527.3 556.237109375 527.041015625 556.3 526.6 556.3537109375 526.22265625 556.1 525.9 555.8412109375 525.5630859375 555.4 525.5
M 565.6 528.5
Q 565.8587890625 528.83671875 566.25 528.9 567.775 529.1 569.25 529.3 569.676953125 529.3533203125 570 529.1 570.337109375 528.841015625 570.4 528.4 570.4537109375 528.02265625 570.2 527.7 569.9412109375 527.3630859375 569.5 527.3 568.025 527.1 566.5 526.9 566.1228515625 526.8466796875 565.8 527.1 565.462890625 527.358984375 565.4 527.75 565.346484375 528.1771484375 565.6 528.5
M 558.5 527.6
Q 558.7587890625 527.93671875 559.15 528 560.675 528.2 562.2 528.4 562.627734375 528.453125 562.95 528.2 563.2875 527.940234375 563.35 527.5 563.403515625 527.1220703125 563.15 526.8 562.8904296875 526.462890625 562.45 526.4 560.925 526.1998046875 559.4 526 559.0228515625 525.9466796875 558.7 526.2 558.362890625 526.458984375 558.3 526.85 558.246484375 527.2771484375 558.5 527.6
M 527.05 523.3
Q 527.4853515625 523.3921875 527.8 523.15 528.1595703125 522.9201171875 528.2 522.5 528.2923828125 522.1150390625 528.05 521.75 527.8197265625 521.440625 527.4 521.35 525.925 521.125 524.4 520.85 524.0146484375 520.8078125 523.65 521.05 523.3404296875 521.2798828125 523.25 521.65 523.2076171875 522.0849609375 523.45 522.4 523.6802734375 522.759375 524.05 522.8 525.575 523.075 527.05 523.3
M 535.1 522.95
Q 534.8697265625 522.640625 534.45 522.55 532.975 522.325 531.45 522.05 531.0646484375 522.0078125 530.7 522.25 530.3904296875 522.4798828125 530.3 522.85 530.2576171875 523.2849609375 530.5 523.6 530.7302734375 523.959375 531.1 524 532.625 524.275 534.1 524.5 534.5353515625 524.5921875 534.85 524.35 535.2095703125 524.1201171875 535.25 523.7 535.3423828125 523.3150390625 535.1 522.95
M 541.9 525.35
Q 542.237109375 525.091015625 542.3 524.65 542.3537109375 524.27265625 542.1 523.95 541.8412109375 523.6130859375 541.4 523.55 539.925 523.35 538.4 523.15 538.0228515625 523.0966796875 537.7 523.35 537.362890625 523.608984375 537.3 524 537.246484375 524.4271484375 537.5 524.75 537.7587890625 525.08671875 538.15 525.15 539.675 525.35 541.15 525.55 541.576953125 525.6033203125 541.9 525.35
M 544.3 525
Q 544.246484375 525.4271484375 544.5 525.75 544.7587890625 526.08671875 545.15 526.15 546.675 526.35 548.15 526.55 548.576953125 526.6033203125 548.9 526.35 549.237109375 526.091015625 549.3 525.65 549.3537109375 525.27265625 549.1 524.95 548.8412109375 524.6130859375 548.4 524.55 546.925 524.35 545.4 524.15 545.0228515625 524.0966796875 544.7 524.35 544.362890625 524.608984375 544.3 525
M 502.6 265.4
Q 502.3078125 265.1607421875 501.9 265.2 500.4 265.35 498.9 265.5 498.4892578125 265.5478515625 498.2 265.85 497.960546875 266.192578125 498 266.6 498.04765625 267.0111328125 498.35 267.25 498.6919921875 267.5392578125 499.1 267.5 500.6 267.35 502.1 267.2 502.5107421875 267.151953125 502.75 266.8 503.0396484375 266.507421875 503 266.1 502.95234375 265.6888671875 502.6 265.4
M 495.7 267.5
Q 495.9896484375 267.207421875 495.95 266.8 495.90234375 266.3888671875 495.55 266.1 495.2578125 265.8607421875 494.85 265.9 493.35 266.05 491.85 266.2 491.4392578125 266.2478515625 491.15 266.55 490.910546875 266.892578125 490.95 267.3 490.99765625 267.7111328125 491.3 267.95 491.6419921875 268.2392578125 492.05 268.2 493.55 268.05 495.05 267.9 495.4607421875 267.851953125 495.7 267.5
M 510.1 265.3
Q 510.05234375 264.8888671875 509.7 264.6 509.4068359375 264.3607421875 509 264.4 507.45 264.55 505.95 264.7 505.5392578125 264.7478515625 505.25 265.05 505.010546875 265.392578125 505.05 265.8 505.09765625 266.2111328125 505.4 266.45 505.7419921875 266.7392578125 506.15 266.7 507.65 266.5498046875 509.2 266.4 509.61171875 266.351953125 509.85 266 510.139453125 265.707421875 510.1 265.3
M 637.45 266.2
Q 637.410546875 266.607421875 637.65 266.9 637.9392578125 267.251953125 638.35 267.3 639.85 267.45 641.35 267.6 641.7578125 267.6392578125 642.05 267.35 642.40234375 267.1111328125 642.45 266.7 642.4896484375 266.292578125 642.2 265.95 641.9607421875 265.6478515625 641.55 265.6 640.05 265.45 638.55 265.3 638.1419921875 265.2607421875 637.8 265.5 637.49765625 265.7888671875 637.45 266.2
M 635.45 265.9
Q 635.4896484375 265.492578125 635.2 265.15 634.9607421875 264.8478515625 634.55 264.8 633.05 264.65 631.55 264.5 631.1419921875 264.4607421875 630.8 264.7 630.49765625 264.9888671875 630.45 265.4 630.410546875 265.807421875 630.65 266.1 630.9392578125 266.451953125 631.35 266.5 632.85 266.65 634.35 266.8 634.7578125 266.8392578125 635.05 266.55 635.40234375 266.3111328125 635.45 265.9
M 334.7 391.8
Q 334.3259765625 391.9146484375 334.1 392.25 333.9294921875 392.634375 334.05 393 334.4998046875 394.525 334.95 396.05 335.0638671875 396.47265625 335.4 396.65 335.7833984375 396.8705078125 336.15 396.75 336.573046875 396.6361328125 336.75 396.25 336.9703125 395.9169921875 336.85 395.5 336.4 393.9748046875 335.95 392.45 335.83515625 392.0763671875 335.45 391.85 335.115234375 391.679296875 334.7 391.8
M 332.85 389
Q 332.9876953125 389.4208984375 333.35 389.6 333.7189453125 389.8328125 334.1 389.7 334.5212890625 389.6125 334.7 389.25 334.932421875 388.8814453125 334.8 388.45 334.4251953125 387.0498046875 334.05 385.6 333.977734375 385.2197265625 333.6 385 333.2734375 384.78046875 332.85 384.85 332.4701171875 384.971875 332.25 385.3 332.030859375 385.676953125 332.1 386.05 332.474609375 387.55 332.85 389
M 332.45 378.75
Q 332.3935546875 378.3498046875 332.05 378.1 331.70390625 377.8939453125 331.3 377.95 330.899609375 378.05625 330.65 378.4 330.444140625 378.7458984375 330.5 379.15 330.8248046875 380.6123046875 331.15 382.1 331.271484375 382.52890625 331.6 382.75 331.9751953125 382.9693359375 332.35 382.85 332.77890625 382.77890625 333 382.4 333.2189453125 382.0748046875 333.1 381.65 332.7751953125 380.1876953125 332.45 378.75
M 330.65 371.2
Q 330.3349609375 370.9576171875 329.9 371 329.5298828125 371.0904296875 329.3 371.4 329.0578125 371.7646484375 329.1 372.15 329.374609375 373.6875 329.65 375.2 329.75625 375.6001953125 330.1 375.8 330.4453125 376.0560546875 330.85 375.95 331.249609375 375.894140625 331.45 375.55 331.70546875 375.2041015625 331.6 374.8 331.3251953125 373.3125 331.05 371.8 331.009375 371.4302734375 330.65 371.2
M 330 364.85
Q 329.93671875 364.4587890625 329.6 364.2 329.2771484375 363.946484375 328.85 364 328.458984375 364.062890625 328.2 364.4 327.9466796875 364.7228515625 328 365.1 328.212109375 366.6498046875 328.45 368.15 328.540625 368.5697265625 328.85 368.8 329.2150390625 369.0423828125 329.6 368.95 330.0201171875 368.9095703125 330.25 368.55 330.4921875 368.2353515625 330.4 367.8 330.1876953125 366.35 330 364.85
M 327.35 357.25
Q 327.1107421875 357.5919921875 327.15 358 327.3 359.5 327.45 361.05 327.4978515625 361.46171875 327.8 361.7 328.1423828125 361.989453125 328.55 361.95 328.9609375 361.90234375 329.2 361.55 329.4890625 361.2568359375 329.45 360.85 329.2998046875 359.3 329.15 357.8 329.101953125 357.3892578125 328.75 357.1 328.457421875 356.860546875 328.05 356.9 327.6388671875 356.94765625 327.35 357.25
M 328.65 350.75
Q 328.6318359375 350.3607421875 328.3 350.05 328.0298828125 349.7888671875 327.6 349.8 327.210546875 349.81796875 326.9 350.1 326.6390625 350.419921875 326.65 350.8 326.6998046875 352.349609375 326.8 353.9 326.8328125 354.330859375 327.15 354.6 327.4623046875 354.875390625 327.85 354.85 328.28125 354.8173828125 328.55 354.5 328.825 354.1880859375 328.8 353.75 328.7001953125 352.2501953125 328.65 350.75
M 326.85 343
Q 326.553515625 343.2892578125 326.55 343.7 326.55 345.2 326.55 346.75 326.553515625 347.1607421875 326.85 347.45 327.1392578125 347.746484375 327.55 347.75 327.9607421875 347.746484375 328.25 347.45 328.546484375 347.1607421875 328.55 346.75 328.55 345.2 328.55 343.7 328.546484375 343.2892578125 328.25 343 327.9607421875 342.703515625 327.55 342.7 327.1392578125 342.703515625 326.85 343
M 328.7 339.65
Q 328.7501953125 338.1501953125 328.85 336.65 328.875 336.26328125 328.6 335.95 328.3318359375 335.6328125 327.9 335.6 327.512890625 335.574609375 327.2 335.85 326.883203125 336.1177734375 326.85 336.5 326.7498046875 338.0498046875 326.7 339.6 326.6892578125 340.0294921875 326.95 340.3 327.2607421875 340.6322265625 327.65 340.65 328.0796875 340.6611328125 328.35 340.35 328.6818359375 340.089453125 328.7 339.65
M 327.4 329.4
Q 327.25 330.9 327.1 332.45 327.0607421875 332.8568359375 327.3 333.15 327.5888671875 333.50234375 328 333.55 328.407421875 333.589453125 328.7 333.3 329.051953125 333.06171875 329.1 332.65 329.2498046875 331.1 329.4 329.6 329.4392578125 329.1919921875 329.15 328.85 328.9111328125 328.54765625 328.5 328.5 328.092578125 328.460546875 327.75 328.7 327.4478515625 328.9892578125 327.4 329.4
M 329.55 321.4
Q 329.1650390625 321.3576171875 328.8 321.6 328.490625 321.8302734375 328.4 322.2 328.1748046875 323.7373046875 327.9 325.3 327.858203125 325.6982421875 328.1 326 328.34296875 326.3599609375 328.75 326.4 329.148046875 326.4921875 329.45 326.25 329.809765625 326.0068359375 329.85 325.6 330.125 324.0625 330.35 322.55 330.4421875 322.1646484375 330.2 321.8 329.9701171875 321.4904296875 329.55 321.4
M 331.8 314.95
Q 331.6212890625 314.5875 331.2 314.45 330.8189453125 314.3671875 330.45 314.55 330.0876953125 314.77890625 329.95 315.15 329.5748046875 316.649609375 329.2 318.15 329.1310546875 318.5748046875 329.35 318.9 329.5712890625 319.27890625 329.95 319.35 330.375 319.4693359375 330.7 319.25 331.078515625 319.02890625 331.15 318.6 331.5251953125 317.1501953125 331.9 315.7 332.032421875 315.3185546875 331.8 314.95
M 334.1 309.1
Q 334.283984375 308.7498046875 334.1 308.35 333.9603515625 307.9875 333.55 307.8 333.2 307.6658203125 332.8 307.8 332.4376953125 307.98984375 332.25 308.35 331.712109375 309.7490234375 331.2 311.2 331.0666015625 311.6078125 331.25 311.95 331.4333984375 312.355859375 331.8 312.5 332.20859375 312.6337890625 332.55 312.45 332.9552734375 312.2673828125 333.1 311.85 333.587890625 310.45078125 334.1 309.1
M 387.05 282.75
Q 386.6697265625 282.872265625 386.45 283.2 386.23046875 283.5765625 386.3 283.95 386.421875 284.3798828125 386.75 284.6 387.126953125 284.819140625 387.5 284.7 388.975 284.3748046875 390.45 284 390.87890625 283.928515625 391.1 283.55 391.3193359375 283.225 391.2 282.8 391.12890625 282.4212890625 390.75 282.2 390.4248046875 281.9810546875 390 282.05 388.5248046875 282.425 387.05 282.75
M 400.25 280.2
Q 400.0439453125 280.54609375 400.1 280.95 400.20625 281.350390625 400.55 281.55 400.8958984375 281.805859375 401.3 281.7 402.75 281.425 404.25 281.1 404.6501953125 281.04375 404.85 280.7 405.1060546875 280.3546875 405 279.95 404.944140625 279.5501953125 404.6 279.3 404.2541015625 279.0943359375 403.85 279.15 402.3498046875 279.4748046875 400.9 279.75 400.4998046875 279.8564453125 400.25 280.2
M 397.35 282.5
Q 397.7501953125 282.44375 397.95 282.1 398.2060546875 281.7546875 398.1 281.35 398.044140625 280.9501953125 397.7 280.7 397.3541015625 280.4943359375 396.95 280.55 395.4498046875 280.8748046875 394 281.15 393.5998046875 281.2564453125 393.35 281.6 393.1439453125 281.94609375 393.2 282.35 393.30625 282.750390625 393.65 282.95 393.9958984375 283.205859375 394.4 283.1 395.85 282.825 397.35 282.5
M 369.95 288.75
Q 370.1705078125 288.4166015625 370.05 288 369.9361328125 287.6271484375 369.55 287.4 369.2169921875 287.2296875 368.8 287.35 367.2875 287.7873046875 365.8 288.15 365.392578125 288.28671875 365.15 288.65 364.9673828125 289.005078125 365.05 289.4 365.1865234375 289.8076171875 365.55 290 365.9046875 290.232421875 366.3 290.1 367.8123046875 289.7126953125 369.35 289.25 369.77265625 289.1359375 369.95 288.75
M 372.85 286.2
Q 372.455859375 286.335546875 372.25 286.7 372.0302734375 287.0529296875 372.1 287.45 372.23515625 287.843359375 372.6 288.05 372.953515625 288.2693359375 373.35 288.15 374.3376953125 287.925 375.35 287.65 376.025 287.525 376.65 287.35 377.0775390625 287.2791015625 377.3 286.9 377.5193359375 286.575390625 377.4 286.15 377.329296875 285.7716796875 376.95 285.55 376.626171875 285.330859375 376.2 285.4 375.575 285.575 374.9 285.7 373.8623046875 285.975 372.85 286.2
M 383.85 283.85
Q 383.5248046875 283.6310546875 383.1 283.7 381.6248046875 284.075 380.15 284.4 379.7697265625 284.522265625 379.55 284.85 379.33046875 285.2265625 379.4 285.6 379.521875 286.0298828125 379.85 286.25 380.226953125 286.469140625 380.6 286.35 382.075 286.0248046875 383.55 285.65 383.97890625 285.578515625 384.2 285.2 384.4193359375 284.875 384.3 284.45 384.22890625 284.0712890625 383.85 283.85
M 362.65 289.35
Q 362.315625 289.1794921875 361.9 289.3 360.4251953125 289.7498046875 359 290.15 358.6279296875 290.2634765625 358.4 290.6 358.2294921875 290.9826171875 358.35 291.35 358.46328125 291.7724609375 358.8 291.95 359.1822265625 292.1703125 359.55 292.05 360.9748046875 291.65 362.45 291.2 362.8736328125 291.08515625 363.05 290.7 363.270703125 290.365234375 363.15 289.95 363.0353515625 289.5759765625 362.65 289.35
M 352.05 294.15
Q 352.4134765625 294.333203125 352.8 294.2 354.1998046875 293.75 355.75 293.25 356.1515625 293.1203125 356.35 292.75 356.53359375 292.3869140625 356.4 292 356.270703125 291.5984375 355.9 291.4 355.53671875 291.216796875 355.15 291.35 353.6 291.8498046875 352.2 292.3 351.798046875 292.4296875 351.6 292.8 351.41640625 293.1630859375 351.55 293.55 351.679296875 293.9515625 352.05 294.15
M 349.1 293.7
Q 348.7431640625 293.5162109375 348.35 293.65 346.8365234375 294.2125 345.45 294.75 345.08984375 294.9376953125 344.9 295.3 344.7658203125 295.7 344.9 296.05 345.0875 296.4603515625 345.45 296.6 345.8498046875 296.783984375 346.2 296.6 347.56328125 296.0873046875 349.05 295.55 349.43125 295.4037109375 349.6 295 349.783984375 294.6431640625 349.65 294.25 349.50390625 293.86875 349.1 293.7
M 342.4 296.3
Q 342.02109375 296.17890625 341.65 296.35 340.0732421875 297.0501953125 338.75 297.7 338.3806640625 297.8853515625 338.25 298.25 338.11640625 298.6728515625 338.3 299.05 338.484765625 299.4197265625 338.85 299.55 339.2724609375 299.683203125 339.65 299.5 340.9263671875 298.849609375 342.45 298.15 342.827734375 297.9818359375 342.95 297.6 343.121484375 297.2208984375 342.95 296.85 342.7822265625 296.471875 342.4 296.3
M 460.4 270.15
Q 460.076953125 269.8966796875 459.65 269.95 458.175 270.15 456.65 270.35 456.2587890625 270.4130859375 456 270.75 455.746484375 271.07265625 455.8 271.45 455.862890625 271.891015625 456.2 272.15 456.5228515625 272.4033203125 456.9 272.35 458.425 272.15 459.9 271.95 460.3412109375 271.88671875 460.6 271.55 460.8537109375 271.2271484375 460.8 270.8 460.737109375 270.408984375 460.4 270.15
M 453.8 271.75
Q 453.737109375 271.358984375 453.4 271.1 453.076953125 270.8466796875 452.65 270.9 451.175 271.1 449.65 271.3 449.2587890625 271.3630859375 449 271.7 448.746484375 272.02265625 448.8 272.4 448.862890625 272.841015625 449.2 273.1 449.5228515625 273.3533203125 449.9 273.3 451.425 273.1 452.9 272.9 453.3412109375 272.83671875 453.6 272.5 453.8537109375 272.1771484375 453.8 271.75
M 484.8 266.95
Q 484.3892578125 266.9978515625 484.1 267.3 483.860546875 267.642578125 483.9 268.05 483.94765625 268.4611328125 484.25 268.7 484.5919921875 268.9892578125 485 268.95 486.5 268.8 488 268.65 488.4107421875 268.601953125 488.65 268.25 488.9396484375 267.957421875 488.9 267.55 488.85234375 267.1388671875 488.5 266.85 488.2078125 266.6107421875 487.8 266.65 486.3 266.8 484.8 266.95
M 480.75 267.35
Q 479.25 267.5 477.75 267.65 477.3392578125 267.6978515625 477.05 268 476.810546875 268.342578125 476.85 268.75 476.89765625 269.1611328125 477.2 269.4 477.5419921875 269.6892578125 477.95 269.65 479.45 269.5 480.95 269.35 481.3607421875 269.301953125 481.6 268.95 481.8896484375 268.657421875 481.85 268.25 481.80234375 267.8388671875 481.45 267.55 481.1578125 267.3107421875 480.75 267.35
M 467.75 269.9
Q 467.687109375 269.508984375 467.35 269.25 467.026953125 268.9966796875 466.6 269.05 465.125 269.25 463.6 269.45 463.2087890625 269.5130859375 462.95 269.85 462.696484375 270.17265625 462.75 270.55 462.812890625 270.991015625 463.15 271.25 463.4728515625 271.5033203125 463.85 271.45 465.375 271.25 466.85 271.05 467.2912109375 270.98671875 467.55 270.65 467.8037109375 270.3271484375 467.75 269.9
M 469.8 269.65
Q 469.862890625 270.091015625 470.2 270.35 470.5228515625 270.6033203125 470.9 270.55 472.425 270.35 473.9 270.15 474.3412109375 270.08671875 474.6 269.75 474.8537109375 269.4271484375 474.8 269 474.737109375 268.608984375 474.4 268.35 474.076953125 268.0966796875 473.65 268.15 472.175 268.35 470.65 268.55 470.2587890625 268.6130859375 470 268.95 469.746484375 269.27265625 469.8 269.65
M 432.75 274.85
Q 432.7095703125 274.4798828125 432.35 274.25 432.0353515625 274.0078125 431.6 274.05 430.125 274.325 428.6 274.55 428.2302734375 274.640625 428 274.95 427.7576171875 275.3150390625 427.8 275.7 427.8904296875 276.1201171875 428.2 276.35 428.5646484375 276.5921875 428.95 276.5 430.475 276.275 431.95 276 432.3697265625 275.959375 432.6 275.6 432.8423828125 275.2849609375 432.75 274.85
M 438.6 272.9
Q 437.125 273.175 435.6 273.4 435.2302734375 273.490625 435 273.8 434.7576171875 274.1650390625 434.8 274.55 434.8904296875 274.9701171875 435.2 275.2 435.5646484375 275.4421875 435.95 275.35 437.475 275.125 438.95 274.85 439.3697265625 274.809375 439.6 274.45 439.8423828125 274.1349609375 439.75 273.7 439.7095703125 273.3298828125 439.35 273.1 439.0353515625 272.8578125 438.6 272.9
M 442 272.7
Q 441.746484375 273.02265625 441.8 273.4 441.862890625 273.841015625 442.2 274.1 442.5228515625 274.3533203125 442.9 274.3 444.425 274.1 445.9 273.9 446.3412109375 273.83671875 446.6 273.5 446.8537109375 273.1771484375 446.8 272.75 446.737109375 272.358984375 446.4 272.1 446.076953125 271.8466796875 445.65 271.9 444.175 272.1 442.65 272.3 442.2587890625 272.3630859375 442 272.7
M 411.6 277.9
Q 411.2541015625 277.6943359375 410.85 277.75 409.35 278.075 407.85 278.35 407.4498046875 278.45625 407.2 278.8 406.9939453125 279.1453125 407.05 279.55 407.155859375 279.949609375 407.5 280.15 407.8458984375 280.40546875 408.25 280.3 409.75 280.025 411.25 279.7 411.6501953125 279.64375 411.85 279.3 412.1060546875 278.9546875 412 278.55 411.944140625 278.1501953125 411.6 277.9
M 418.1 278.4
Q 418.5197265625 278.359375 418.75 278 418.9923828125 277.6849609375 418.9 277.25 418.8595703125 276.8798828125 418.5 276.65 418.1853515625 276.4078125 417.75 276.45 416.262109375 276.7248046875 414.8 277 414.3998046875 277.1064453125 414.15 277.45 413.9439453125 277.79609375 414 278.2 414.10625 278.600390625 414.45 278.8 414.7958984375 279.055859375 415.2 278.95 416.6376953125 278.6751953125 418.1 278.4
M 421.3 277.55
Q 421.666796875 277.8046875 422.05 277.7 423.525 277.475 425 277.2 425.4197265625 277.159375 425.65 276.8 425.8923828125 276.4849609375 425.8 276.05 425.7595703125 275.6798828125 425.4 275.45 425.0853515625 275.2078125 424.65 275.25 423.1748046875 275.525 421.7 275.75 421.315625 275.84140625 421.05 276.15 420.844921875 276.5162109375 420.9 276.9 420.991015625 277.3337890625 421.3 277.55
M 749.7 530.55
Q 749.74765625 530.9611328125 750.05 531.2 750.3919921875 531.4892578125 750.8 531.45 752.3 531.3 753.8 531.15 754.2107421875 531.101953125 754.45 530.75 754.7396484375 530.457421875 754.7 530.05 754.65234375 529.6388671875 754.3 529.35 754.0078125 529.1107421875 753.6 529.15 752.1 529.3 750.6 529.45 750.1892578125 529.4978515625 749.9 529.8 749.660546875 530.142578125 749.7 530.55
M 761.3 528.6
Q 761.0078125 528.3607421875 760.6 528.4 759.1 528.55 757.6 528.7 757.1892578125 528.7478515625 756.9 529.05 756.660546875 529.392578125 756.7 529.8 756.74765625 530.2111328125 757.05 530.45 757.3919921875 530.7392578125 757.8 530.7 759.3 530.55 760.8 530.4 761.2107421875 530.351953125 761.45 530 761.7396484375 529.707421875 761.7 529.3 761.65234375 528.8888671875 761.3 528.6
M 763.7 529.1
Q 763.74765625 529.5111328125 764.05 529.75 764.3919921875 530.0392578125 764.8 530 766.3 529.85 767.8 529.7 768.2107421875 529.651953125 768.45 529.3 768.7396484375 529.007421875 768.7 528.6 768.65234375 528.1888671875 768.3 527.9 768.0078125 527.6607421875 767.6 527.7 766.1 527.85 764.6 528 764.1892578125 528.0478515625 763.9 528.35 763.660546875 528.692578125 763.7 529.1
M 743.6 530.15
Q 743.1892578125 530.1978515625 742.9 530.5 742.660546875 530.842578125 742.7 531.25 742.74765625 531.6611328125 743.05 531.9 743.3919921875 532.1892578125 743.8 532.15 745.3 532 746.8 531.85 747.2107421875 531.801953125 747.45 531.45 747.7396484375 531.157421875 747.7 530.75 747.65234375 530.3388671875 747.3 530.05 747.0078125 529.8107421875 746.6 529.85 745.1 530 743.6 530.15
M 740.7 531.5
Q 740.65234375 531.0888671875 740.3 530.8 740.0078125 530.5607421875 739.6 530.6 738.1 530.75 736.6 530.9 736.1892578125 530.9478515625 735.9 531.25 735.660546875 531.592578125 735.7 532 735.74765625 532.4111328125 736.05 532.65 736.3919921875 532.9392578125 736.8 532.9 738.3 532.75 739.8 532.6 740.2107421875 532.551953125 740.45 532.2 740.7396484375 531.907421875 740.7 531.5
M 796.35 525.65
Q 796.6037109375 525.3265625 796.55 524.9 796.4869140625 524.5083984375 796.15 524.25 795.8263671875 523.996484375 795.4 524.05 793.9748046875 524.25 792.45 524.45 792.0587890625 524.5130859375 791.8 524.85 791.546484375 525.17265625 791.6 525.55 791.662890625 525.991015625 792 526.25 792.3228515625 526.5033203125 792.7 526.45 794.225 526.2498046875 795.65 526.05 796.0916015625 525.9865234375 796.35 525.65
M 803.45 523.9
Q 803.3869140625 523.5083984375 803.05 523.25 802.7263671875 522.996484375 802.3 523.05 800.8748046875 523.25 799.35 523.45 798.9587890625 523.5130859375 798.7 523.85 798.446484375 524.17265625 798.5 524.55 798.562890625 524.991015625 798.9 525.25 799.2228515625 525.5033203125 799.6 525.45 801.125 525.2498046875 802.55 525.05 802.9916015625 524.9865234375 803.25 524.65 803.5037109375 524.3265625 803.45 523.9
M 771.1 529
Q 771.4228515625 529.2533203125 771.8 529.2 773.325 529 774.8 528.8 775.2412109375 528.73671875 775.5 528.4 775.7537109375 528.0771484375 775.7 527.65 775.637109375 527.258984375 775.3 527 774.976953125 526.7466796875 774.55 526.8 773.075 527 771.55 527.2 771.1587890625 527.2630859375 770.9 527.6 770.646484375 527.92265625 770.7 528.3 770.762890625 528.741015625 771.1 529
M 781.8 527.9
Q 782.2412109375 527.83671875 782.5 527.5 782.7537109375 527.1771484375 782.7 526.75 782.637109375 526.358984375 782.3 526.1 781.976953125 525.8466796875 781.55 525.9 780.075 526.1 778.55 526.3 778.1587890625 526.3630859375 777.9 526.7 777.646484375 527.02265625 777.7 527.4 777.762890625 527.841015625 778.1 528.1 778.4228515625 528.3533203125 778.8 528.3 780.325 528.1 781.8 527.9
M 785.5 525.4
Q 785.1087890625 525.4630859375 784.85 525.8 784.596484375 526.12265625 784.65 526.5 784.712890625 526.941015625 785.05 527.2 785.3728515625 527.4533203125 785.75 527.4 787.275 527.2 788.75 527 789.1912109375 526.93671875 789.45 526.6 789.7037109375 526.2771484375 789.65 525.85 789.587109375 525.458984375 789.25 525.2 788.926953125 524.9466796875 788.5 525 787.025 525.2 785.5 525.4
M 899.3 500.75
Q 898.9501953125 500.616015625 898.55 500.75 897.2365234375 501.3125 895.75 501.85 895.3685546875 501.9962890625 895.2 502.35 895.016015625 502.7568359375 895.15 503.15 895.29609375 503.53125 895.65 503.7 896.0568359375 503.88359375 896.45 503.75 897.96328125 503.1873046875 899.3 502.6 899.71015625 502.4623046875 899.85 502.05 900.0341796875 501.7001953125 899.85 501.3 899.7126953125 500.93984375 899.3 500.75
M 906.5 499.1
Q 906.6208984375 498.7125 906.4 498.35 906.2384765625 497.97890625 905.85 497.85 905.463671875 497.7291015625 905.1 497.9 903.872265625 498.562890625 902.35 499.25 901.972265625 499.4181640625 901.8 499.8 901.678515625 500.1791015625 901.85 500.55 902.0177734375 500.928125 902.4 501.05 902.77890625 501.22109375 903.15 501.05 904.7275390625 500.3369140625 906 499.65 906.3697265625 499.4884765625 906.5 499.1
M 810.15 523.5
Q 810.405078125 523.1837890625 810.3 522.75 810.258984375 522.3662109375 809.9 522.1 809.5830078125 521.8953125 809.15 521.95 807.725 522.225 806.2 522.45 805.8302734375 522.540625 805.6 522.85 805.3576171875 523.2150390625 805.4 523.6 805.4904296875 524.0201171875 805.8 524.25 806.1646484375 524.4921875 806.55 524.4 808.0751953125 524.175 809.5 523.9 809.934375 523.8583984375 810.15 523.5
M 816.45 522.75
Q 816.8697265625 522.709375 817.1 522.35 817.3423828125 522.0349609375 817.25 521.6 817.2095703125 521.2298828125 816.85 521 816.5353515625 520.7578125 816.1 520.8 814.625 521.075 813.1 521.3 812.7302734375 521.390625 812.5 521.7 812.2576171875 522.0650390625 812.3 522.45 812.3904296875 522.8701171875 812.7 523.1 813.0646484375 523.3421875 813.45 523.25 814.975 523.025 816.45 522.75
M 820.4 522.05
Q 821.925 521.825 823.4 521.55 823.8197265625 521.509375 824.05 521.15 824.2923828125 520.8349609375 824.2 520.4 824.1595703125 520.0298828125 823.8 519.8 823.4853515625 519.5578125 823.05 519.6 821.575 519.875 820.05 520.1 819.6802734375 520.190625 819.45 520.5 819.2076171875 520.8650390625 819.25 521.25 819.3404296875 521.6701171875 819.65 521.9 820.0146484375 522.1421875 820.4 522.05
M 840.15 516.7
Q 839.9439453125 517.0453125 840 517.45 840.105859375 517.849609375 840.45 518.05 840.7958984375 518.30546875 841.2 518.2 842.7 517.925 844.15 517.6 844.55 517.5435546875 844.75 517.2 845.0060546875 516.85390625 844.9 516.45 844.84375 516.049609375 844.5 515.8 844.1541015625 515.594140625 843.75 515.65 842.2998046875 515.9748046875 840.8 516.25 840.3998046875 516.35625 840.15 516.7
M 833.55 519.45
Q 833.8958984375 519.70546875 834.3 519.6 835.8 519.325 837.25 519 837.65 518.9435546875 837.85 518.6 838.1060546875 518.25390625 838 517.85 837.94375 517.449609375 837.6 517.2 837.2541015625 516.994140625 836.85 517.05 835.3998046875 517.3748046875 833.9 517.65 833.4998046875 517.75625 833.25 518.1 833.0439453125 518.4453125 833.1 518.85 833.205859375 519.249609375 833.55 519.45
M 831.1 519.2
Q 831.058984375 518.8162109375 830.7 518.55 830.3830078125 518.3453125 829.95 518.4 828.525 518.675 827 518.9 826.6302734375 518.990625 826.4 519.3 826.1576171875 519.6650390625 826.2 520.05 826.2904296875 520.4701171875 826.6 520.7 826.9646484375 520.9421875 827.35 520.85 828.8751953125 520.625 830.3 520.35 830.734375 520.3083984375 830.95 519.95 831.205078125 519.6337890625 831.1 519.2
M 864.25 511
Q 862.825 511.375 861.35 511.7 860.9697265625 511.822265625 860.75 512.15 860.53046875 512.5265625 860.6 512.9 860.721875 513.3298828125 861.05 513.55 861.426953125 513.769140625 861.8 513.65 863.275 513.325 864.7 512.95 865.1302734375 512.877734375 865.35 512.5 865.56953125 512.1734375 865.45 511.75 865.378125 511.3701171875 865 511.15 864.673046875 510.930859375 864.25 511
M 851.35 514.4
Q 851.0041015625 514.194140625 850.6 514.25 849.1498046875 514.5748046875 847.65 514.85 847.2498046875 514.95625 847 515.3 846.7939453125 515.6453125 846.85 516.05 846.955859375 516.449609375 847.3 516.65 847.6458984375 516.90546875 848.05 516.8 849.55 516.525 851 516.2 851.4 516.1435546875 851.6 515.8 851.8560546875 515.45390625 851.75 515.05 851.69375 514.649609375 851.35 514.4
M 858.15 512.8
Q 857.823046875 512.580859375 857.4 512.65 855.975 513.025 854.45 513.35 854.07109375 513.471484375 853.85 513.8 853.6306640625 514.1751953125 853.7 514.55 853.8212890625 514.97890625 854.15 515.2 854.5251953125 515.4189453125 854.9 515.3 856.4251953125 514.9748046875 857.85 514.6 858.2802734375 514.527734375 858.5 514.15 858.71953125 513.8234375 858.6 513.4 858.528125 513.0201171875 858.15 512.8
M 872.75 510.6
Q 872.9701171875 510.245703125 872.85 509.85 872.7638671875 509.45546875 872.4 509.25 872.045703125 509.0302734375 871.65 509.1 870.5 509.425 869.35 509.7 868.75 509.875 868.15 510 867.755859375 510.135546875 867.55 510.5 867.3302734375 510.8529296875 867.4 511.25 867.53515625 511.643359375 867.9 511.85 868.253515625 512.0693359375 868.65 511.95 869.25 511.825 869.85 511.65 871 511.375 872.15 511.05 872.5447265625 510.9634765625 872.75 510.6
M 879.4 507.3
Q 879.0314453125 507.1173828125 878.6 507.2 877.187109375 507.625 875.65 508 875.2564453125 508.1359375 875.05 508.5 874.830078125 508.8537109375 874.9 509.25 875.0357421875 509.644140625 875.4 509.85 875.753125 510.0697265625 876.15 509.95 877.7126953125 509.575 879.15 509.15 879.5708984375 509.0623046875 879.75 508.7 879.9828125 508.33125 879.85 507.9 879.7625 507.5287109375 879.4 507.3
M 888.95 506
Q 889.3267578125 506.1833984375 889.7 506.05 891.2123046875 505.55 892.6 505.1 893.001953125 504.9703125 893.2 504.6 893.38359375 504.2369140625 893.25 503.85 893.120703125 503.4484375 892.75 503.25 892.386328125 503.066796875 892 503.2 890.5876953125 503.6498046875 889.05 504.15 888.6849609375 504.2802734375 888.5 504.65 888.31640625 505.0271484375 888.45 505.4 888.5802734375 505.815234375 888.95 506
M 885.25 505.35
Q 883.8748046875 505.7373046875 882.4 506.1 882.02890625 506.2376953125 881.8 506.6 881.6171875 506.9689453125 881.7 507.35 881.8375 507.7712890625 882.2 507.95 882.5685546875 508.182421875 882.95 508.05 884.425 507.6625 885.8 507.25 886.2220703125 507.1365234375 886.4 506.75 886.6205078125 506.4173828125 886.5 506 886.38671875 505.6275390625 886 505.4 885.6677734375 505.2296875 885.25 505.35
M 916.05 481.95
Q 916.1689453125 481.5751953125 915.95 481.2 915.72890625 480.8712890625 915.3 480.75 914.9251953125 480.6806640625 914.55 480.9 914.221484375 481.12109375 914.1 481.5 913.7869140625 482.99921875 913.4 484.35 913.2796875 484.7677734375 913.45 485.1 913.6775390625 485.48671875 914.05 485.6 914.4673828125 485.7205078125 914.8 485.5 915.1865234375 485.3220703125 915.3 484.9 915.712890625 483.50078125 916.05 481.95
M 917.3 474.3
Q 917.05703125 473.98984375 916.65 473.9 916.251953125 473.8578125 915.9 474.1 915.590234375 474.3431640625 915.5 474.75 915.274609375 476.27421875 914.95 477.7 914.894140625 478.1041015625 915.1 478.45 915.349609375 478.79375 915.75 478.85 916.15390625 478.9560546875 916.5 478.7 916.8435546875 478.5 916.9 478.1 917.2251953125 476.62578125 917.45 475.05 917.541796875 474.6517578125 917.3 474.3
M 911.15 490.8
Q 911.016015625 491.2001953125 911.15 491.55 911.33984375 491.9626953125 911.7 492.1 912.1001953125 492.2841796875 912.45 492.1 912.8623046875 491.96015625 913 491.55 913.587890625 490.20078125 914.1 488.7 914.2333984375 488.3421875 914.05 487.95 913.866796875 487.594140625 913.45 487.45 913.09140625 487.3162109375 912.7 487.5 912.34453125 487.6826171875 912.2 488.05 911.712109375 489.4990234375 911.15 490.8
M 916.85 467.1
Q 916.5478515625 467.38828125 916.5 467.8 916.349609375 469.33671875 916.15 470.75 916.096484375 471.1763671875 916.35 471.5 916.6083984375 471.8369140625 917 471.9 917.4265625 471.9537109375 917.75 471.7 918.0865234375 471.4416015625 918.15 471 918.350390625 469.5630859375 918.5 468 918.5390625 467.5931640625 918.25 467.25 918.0109375 466.9474609375 917.6 466.9 917.1923828125 466.8603515625 916.85 467.1
M 918.15 459.85
Q 917.7623046875 459.824609375 917.45 460.1 917.1328125 460.369140625 917.1 460.75 916.9998046875 462.312109375 916.85 463.8 916.8107421875 464.2078125 917.05 464.5 917.3388671875 464.85234375 917.75 464.9 918.157421875 464.9396484375 918.45 464.65 918.801953125 464.4107421875 918.85 464 919.0001953125 462.4876953125 919.1 460.9 919.125 460.51171875 918.85 460.2 918.58125 459.8826171875 918.15 459.85
M 919.3 453.3
Q 919.296484375 452.8892578125 919 452.6 918.7107421875 452.303515625 918.3 452.3 917.8892578125 452.303515625 917.6 452.6 917.303515625 452.8892578125 917.3 453.3 917.299609375 454.7875 917.25 456.25 917.2390625 456.680078125 917.5 456.95 917.810546875 457.28203125 918.2 457.3 918.6298828125 457.3111328125 918.9 457 919.2318359375 456.7390625 919.25 456.3 919.3001953125 454.8123046875 919.3 453.3
M 917.1 446.35
Q 917.199609375 447.85 917.25 449.3 917.2681640625 449.7390625 917.55 450 917.8703125 450.3111328125 918.25 450.3 918.689453125 450.28203125 918.95 449.95 919.2607421875 449.680078125 919.25 449.25 919.200390625 447.75 919.1 446.2 919.066796875 445.8177734375 918.75 445.55 918.437109375 445.274609375 918 445.3 917.6181640625 445.3328125 917.35 445.65 917.075 445.96328125 917.1 446.35
M 918.6 439.2
Q 918.551953125 438.7892578125 918.2 438.5 917.907421875 438.260546875 917.5 438.3 917.0888671875 438.34765625 916.8 438.65 916.5607421875 438.9919921875 916.6 439.4 916.7498046875 440.8875 916.85 442.35 916.883203125 442.7822265625 917.2 443.05 917.512890625 443.325390625 917.9 443.3 918.3318359375 443.2671875 918.6 442.95 918.875 442.63671875 918.85 442.2 918.7501953125 440.7125 918.6 439.2
M 915.95 431.7
Q 915.6966796875 432.0228515625 915.75 432.4 915.95 433.925 916.15 435.4 916.2130859375 435.8412109375 916.55 436.1 916.87265625 436.3537109375 917.25 436.3 917.691015625 436.237109375 917.95 435.9 918.2033203125 435.576953125 918.15 435.15 917.95 433.675 917.75 432.15 917.68671875 431.7587890625 917.35 431.5 917.0271484375 431.246484375 916.6 431.3 916.208984375 431.362890625 915.95 431.7
M 915.4 424.35
Q 915.0298828125 424.4404296875 914.8 424.75 914.5578125 425.1146484375 914.6 425.5 914.875 427.025 915.1 428.5 915.190625 428.9197265625 915.5 429.15 915.8650390625 429.3923828125 916.25 429.3 916.6701171875 429.2595703125 916.9 428.9 917.1421875 428.5853515625 917.05 428.15 916.825 426.675 916.55 425.15 916.509375 424.7802734375 916.15 424.55 915.8349609375 424.3076171875 915.4 424.35
M 913.4 417.85
Q 913.1943359375 418.1958984375 913.25 418.6 913.575 420.1 913.85 421.6 913.95625 422.0001953125 914.3 422.2 914.6453125 422.4560546875 915.05 422.35 915.449609375 422.294140625 915.65 421.95 915.90546875 421.6041015625 915.8 421.2 915.525 419.7 915.2 418.2 915.14375 417.7998046875 914.8 417.55 914.4546875 417.3439453125 914.05 417.4 913.6501953125 417.505859375 913.4 417.85
M 912.85 412.4
Q 912.4501953125 412.505859375 912.2 412.85 911.9943359375 413.1958984375 912.05 413.6 912.1748046875 414.112890625 912.25 414.55 912.370703125 414.978125 912.7 415.2 913.073828125 415.419140625 913.45 415.3 913.8775390625 415.2296875 914.1 414.85 914.31875 414.5255859375 914.2 414.1 914.125 413.68671875 914 413.2 913.94375 412.7998046875 913.6 412.55 913.2546875 412.3439453125 912.85 412.4
M 821.65 306.7
Q 822.0431640625 306.83359375 822.4 306.65 822.80390625 306.48125 822.95 306.1 823.083984375 305.7068359375 822.9 305.3 822.73125 304.9462890625 822.35 304.8 820.81171875 304.2353515625 819.3 303.8 818.9185546875 303.7173828125 818.55 303.9 818.1875 304.1287109375 818.05 304.5 817.9671875 304.93125 818.15 305.3 818.37890625 305.6623046875 818.75 305.75 820.1880859375 306.164453125 821.65 306.7
M 824.85 306.85
Q 824.716015625 307.2220703125 824.85 307.6 825.0240234375 307.995703125 825.4 308.15 826.7375 308.7625 828.1 309.4 828.5078125 309.5837890625 828.9 309.45 829.28125 309.3041015625 829.45 308.9 829.633984375 308.5431640625 829.5 308.15 829.353125 307.7689453125 828.95 307.6 827.5623046875 306.9373046875 826.2 306.3 825.8267578125 306.166015625 825.45 306.3 825.0541015625 306.4728515625 824.85 306.85
M 844.9 317.1
Q 844.598046875 316.8587890625 844.2 316.9 843.79296875 316.9900390625 843.55 317.3 843.3080078125 317.651953125 843.35 318.05 843.4400390625 318.45625 843.75 318.7 845.0125 319.6 846.3 320.55 846.639453125 320.7916015625 847.05 320.7 847.4564453125 320.6728515625 847.7 320.35 847.9419921875 320.011328125 847.85 319.6 847.8220703125 319.1939453125 847.5 318.95 846.1873046875 317.9998046875 844.9 317.1
M 835.85 311.6
Q 835.7634765625 311.20625 835.4 311 834.025 310.1740234375 832.65 309.45 832.28671875 309.266796875 831.9 309.4 831.5115234375 309.52890625 831.3 309.9 831.1291015625 310.2625 831.25 310.65 831.3798828125 311.05078125 831.75 311.25 833.0748046875 311.9259765625 834.4 312.7 834.754296875 312.91953125 835.15 312.8 835.544140625 312.7142578125 835.75 312.35 835.969921875 311.996484375 835.85 311.6
M 838.9 313.1
Q 838.5734375 312.8810546875 838.15 312.95 837.770703125 313.071484375 837.55 313.4 837.3306640625 313.77578125 837.4 314.15 837.5220703125 314.57890625 837.85 314.8 839.1625 315.5876953125 840.45 316.4 840.79765625 316.6560546875 841.2 316.55 841.60078125 316.493359375 841.8 316.15 842.05625 315.803125 841.95 315.4 841.8923828125 314.9994140625 841.55 314.75 840.2375 313.912109375 838.9 313.1
M 868.35 337.95
Q 868.375 337.5630859375 868.1 337.25 867.3255859375 336.37421875 866.5 335.55 866.2107421875 335.253515625 865.8 335.25 865.3892578125 335.253515625 865.1 335.55 864.803515625 335.8392578125 864.8 336.25 864.803515625 336.6607421875 865.1 336.95 865.87421875 337.72578125 866.6 338.55 866.869140625 338.8666015625 867.25 338.9 867.6876953125 338.925390625 868 338.65 868.317578125 338.3810546875 868.35 337.95
M 853.35 323.75
Q 853.3005859375 323.3744140625 852.95 323.1 851.7625 322.1623046875 850.55 321.25 850.2126953125 320.996484375 849.8 321.05 849.3953125 321.1134765625 849.15 321.45 848.89609375 321.78671875 848.95 322.2 849.0140625 322.6041015625 849.35 322.85 850.5375 323.7376953125 851.7 324.65 852.058203125 324.93984375 852.45 324.9 852.876171875 324.851171875 853.1 324.5 853.390234375 324.1923828125 853.35 323.75
M 858.35 327.7
Q 857.250390625 326.687109375 856.05 325.7 855.7578125 325.461328125 855.35 325.5 854.939453125 325.547265625 854.65 325.85 854.410546875 326.191796875 854.45 326.6 854.4974609375 327.009765625 854.8 327.25 855.949609375 328.212890625 857 329.2 857.334765625 329.4734375 857.75 329.45 858.1662109375 329.43125 858.45 329.1 858.7244140625 328.815234375 858.7 328.4 858.6810546875 327.9845703125 858.35 327.7
M 863.9 333.25
Q 863.8943359375 332.8623046875 863.6 332.55 862.5 331.525 861.4 330.45 861.0927734375 330.1896484375 860.65 330.2 860.2619140625 330.2048828125 859.95 330.5 859.6892578125 330.80625 859.7 331.2 859.7056640625 331.6376953125 860 331.9 861.1 332.975 862.2 334 862.50703125 334.31015625 862.9 334.3 863.3380859375 334.2951171875 863.6 334 863.910546875 333.6935546875 863.9 333.25
M 714.2 275.55
Q 713.8904296875 275.7798828125 713.8 276.15 713.7576171875 276.5849609375 714 276.9 714.2302734375 277.259375 714.6 277.3 716.125 277.575 717.55 277.8 717.9830078125 277.9046875 718.3 277.65 718.658984375 277.4337890625 718.7 277 718.805078125 276.6162109375 718.55 276.25 718.334375 275.94140625 717.9 275.85 716.4751953125 275.625 714.95 275.35 714.5646484375 275.3078125 714.2 275.55
M 725.45 277.45
Q 725.234375 277.14140625 724.8 277.05 723.3751953125 276.825 721.85 276.55 721.4646484375 276.5078125 721.1 276.75 720.7904296875 276.9798828125 720.7 277.35 720.6576171875 277.7849609375 720.9 278.1 721.1302734375 278.459375 721.5 278.5 723.025 278.775 724.45 279 724.8830078125 279.1046875 725.2 278.85 725.558984375 278.6337890625 725.6 278.2 725.705078125 277.8162109375 725.45 277.45
M 704.75 273.9
Q 704.5197265625 273.590625 704.1 273.5 702.625 273.275 701.1 273 700.7146484375 272.9578125 700.35 273.2 700.0404296875 273.4298828125 699.95 273.8 699.9076171875 274.2349609375 700.15 274.55 700.3802734375 274.909375 700.75 274.95 702.275 275.225 703.75 275.45 704.1853515625 275.5421875 704.5 275.3 704.8595703125 275.0701171875 704.9 274.65 704.9923828125 274.2650390625 704.75 273.9
M 707.1 275.7
Q 707.3302734375 276.059375 707.7 276.1 709.225 276.375 710.65 276.6 711.0830078125 276.7046875 711.4 276.45 711.758984375 276.2337890625 711.8 275.8 711.905078125 275.4162109375 711.65 275.05 711.434375 274.74140625 711 274.65 709.5751953125 274.425 708.05 274.15 707.6646484375 274.1078125 707.3 274.35 706.9904296875 274.5798828125 706.9 274.95 706.8576171875 275.3849609375 707.1 275.7
M 694.1 272
Q 693.7228515625 271.9466796875 693.4 272.2 693.062890625 272.458984375 693 272.85 692.946484375 273.2771484375 693.2 273.6 693.4587890625 273.93671875 693.85 274 695.375 274.2 696.85 274.4 697.276953125 274.4533203125 697.6 274.2 697.937109375 273.941015625 698 273.5 698.0537109375 273.12265625 697.8 272.8 697.5412109375 272.4630859375 697.1 272.4 695.625 272.2 694.1 272
M 658.4 268.35
Q 658.360546875 268.757421875 658.6 269.05 658.8892578125 269.401953125 659.3 269.45 660.8 269.6 662.3 269.75 662.7078125 269.7892578125 663 269.5 663.35234375 269.2611328125 663.4 268.85 663.4396484375 268.442578125 663.15 268.1 662.9107421875 267.7978515625 662.5 267.75 661 267.6 659.5 267.45 659.0919921875 267.4107421875 658.75 267.65 658.44765625 267.9388671875 658.4 268.35
M 649.15 266.7
Q 648.9115234375 266.3982421875 648.5 266.35 647.05 266.2 645.55 266.05 645.1419921875 266.0107421875 644.8 266.25 644.49765625 266.5388671875 644.45 266.95 644.410546875 267.357421875 644.65 267.65 644.9392578125 268.001953125 645.35 268.05 646.85 268.2 648.3 268.35 648.70703125 268.389453125 649 268.1 649.3521484375 267.86171875 649.4 267.45 649.43984375 267.0431640625 649.15 266.7
M 651.4 267.65
Q 651.360546875 268.057421875 651.6 268.35 651.8892578125 268.701953125 652.3 268.75 653.8 268.9 655.3 269.05 655.7078125 269.0892578125 656 268.8 656.35234375 268.5611328125 656.4 268.15 656.4396484375 267.742578125 656.15 267.4 655.9107421875 267.0978515625 655.5 267.05 654 266.9 652.5 266.75 652.0919921875 266.7107421875 651.75 266.95 651.44765625 267.2388671875 651.4 267.65
M 686.5 271.2
Q 686.162890625 271.458984375 686.1 271.85 686.046484375 272.2771484375 686.3 272.6 686.5587890625 272.93671875 686.95 273 688.4748046875 273.1998046875 689.9 273.4 690.3263671875 273.4533203125 690.65 273.2 690.9869140625 272.9416015625 691.05 272.5 691.1037109375 272.1234375 690.85 271.8 690.5916015625 271.4634765625 690.15 271.4 688.725 271.2 687.2 271 686.8228515625 270.9466796875 686.5 271.2
M 679.25 270.9
Q 679.1962890625 271.3265625 679.45 271.65 679.708203125 271.9865234375 680.1 272.05 681.575 272.25 683 272.45 683.4263671875 272.5033203125 683.75 272.25 684.0869140625 271.9916015625 684.15 271.55 684.2037109375 271.1734375 683.95 270.85 683.6916015625 270.5134765625 683.25 270.45 681.825 270.25 680.35 270.05 679.9736328125 269.996484375 679.65 270.25 679.3130859375 270.5083984375 679.25 270.9
M 672.6 270.75
Q 672.8587890625 271.08671875 673.25 271.15 674.7748046875 271.3498046875 676.2 271.55 676.6263671875 271.6033203125 676.95 271.35 677.2869140625 271.0916015625 677.35 270.65 677.4037109375 270.2734375 677.15 269.95 676.8916015625 269.6134765625 676.45 269.55 675.025 269.35 673.5 269.15 673.1228515625 269.0966796875 672.8 269.35 672.462890625 269.608984375 672.4 270 672.346484375 270.4271484375 672.6 270.75
M 670.2 269.05
Q 669.9412109375 268.7130859375 669.5 268.65 668.025 268.45 666.5 268.25 666.1228515625 268.1966796875 665.8 268.45 665.462890625 268.708984375 665.4 269.1 665.346484375 269.5271484375 665.6 269.85 665.8587890625 270.18671875 666.25 270.25 667.775 270.45 669.25 270.65 669.676953125 270.7033203125 670 270.45 670.337109375 270.191015625 670.4 269.75 670.4537109375 269.37265625 670.2 269.05
M 797.65 296.35
Q 797.27890625 296.17890625 796.9 296.3 796.5177734375 296.471875 796.35 296.85 796.178515625 297.2208984375 796.3 297.6 796.472265625 297.9818359375 796.85 298.15 798.372265625 298.8369140625 799.6 299.45 799.963671875 299.6708984375 800.35 299.55 800.7384765625 299.42109375 800.9 299.05 801.1208984375 298.6876953125 801 298.3 800.8697265625 297.9115234375 800.5 297.7 799.2275390625 297.062890625 797.65 296.35
M 794.4 295.25
Q 794.2322265625 294.896875 793.85 294.75 792.5 294.25 791 293.7 790.6068359375 293.5662109375 790.2 293.75 789.84609375 293.91875 789.7 294.3 789.566015625 294.6931640625 789.75 295.05 789.9185546875 295.4537109375 790.3 295.6 791.7998046875 296.15 793.15 296.65 793.5419921875 296.78359375 793.9 296.6 794.291015625 296.4318359375 794.4 296.05 794.571484375 295.657421875 794.4 295.25
M 783 292
Q 782.86640625 292.4228515625 783.05 292.8 783.2349609375 293.16953125 783.6 293.3 785.1376953125 293.8 786.55 294.25 786.936328125 294.383203125 787.3 294.2 787.670703125 294.0015625 787.8 293.6 787.93359375 293.2130859375 787.75 292.85 787.551953125 292.4796875 787.15 292.35 785.7623046875 291.8998046875 784.25 291.4 783.8767578125 291.26640625 783.5 291.45 783.1302734375 291.634765625 783 292
M 770.75 287.4
Q 770.3546875 287.317578125 770 287.5 769.6365234375 287.7423828125 769.5 288.15 769.4173828125 288.5451171875 769.6 288.9 769.842578125 289.26328125 770.25 289.35 771.7373046875 289.7748046875 773.15 290.15 773.5814453125 290.282421875 773.95 290.05 774.3125 289.8712890625 774.4 289.45 774.5328125 289.0689453125 774.3 288.7 774.1208984375 288.3376953125 773.7 288.2 772.2625 287.825 770.75 287.4
M 776.3 290
Q 776.1791015625 290.4013671875 776.35 290.75 776.5630859375 291.134375 776.95 291.25 778.4126953125 291.7001953125 779.8 292.1 780.2177734375 292.2203125 780.55 292 780.93671875 291.8224609375 781.05 291.4 781.1705078125 291.0326171875 780.95 290.65 780.7720703125 290.3134765625 780.35 290.2 778.987109375 289.799609375 777.55 289.35 777.148046875 289.229296875 776.75 289.4 776.4154296875 289.6125 776.3 290
M 766.35 288.35
Q 766.78046875 288.4826171875 767.15 288.25 767.499609375 288.071875 767.6 287.65 767.7203125 287.26953125 767.5 286.9 767.3216796875 286.5380859375 766.9 286.4 765.6626953125 286.075 764.35 285.7 763.75 285.575 763.15 285.4 762.753515625 285.3306640625 762.4 285.55 762.03515625 285.756640625 761.9 286.15 761.8302734375 286.5470703125 762.05 286.9 762.255859375 287.2642578125 762.65 287.35 763.25 287.525 763.85 287.65 765.1373046875 288.025 766.35 288.35
M 759.2 284.4
Q 757.775 284.075 756.3 283.7 755.926953125 283.630859375 755.55 283.85 755.221875 284.0701171875 755.1 284.45 755.03046875 284.8734375 755.25 285.2 755.4697265625 285.577734375 755.85 285.65 757.325 286.025 758.75 286.35 759.173046875 286.469140625 759.5 286.25 759.878125 286.0298828125 759.95 285.6 760.06953125 285.2265625 759.85 284.85 759.6302734375 284.522265625 759.2 284.4
M 731.35 280.35
Q 731.7541015625 280.455859375 732.1 280.2 732.44375 280.000390625 732.5 279.6 732.6060546875 279.19609375 732.35 278.85 732.15 278.5064453125 731.75 278.4 730.3 278.1248046875 728.8 277.8 728.3958984375 277.7443359375 728.05 277.95 727.705859375 278.2001953125 727.6 278.6 727.5439453125 279.0046875 727.75 279.35 727.9998046875 279.69375 728.4 279.75 729.8998046875 280.075 731.35 280.35
M 748.45 283.6
Q 748.6697265625 283.977734375 749.05 284.05 750.525 284.425 751.95 284.75 752.373046875 284.869140625 752.7 284.65 753.078125 284.4298828125 753.15 284 753.26953125 283.6265625 753.05 283.25 752.8302734375 282.922265625 752.4 282.8 750.975 282.475 749.5 282.1 749.126953125 282.030859375 748.75 282.25 748.421875 282.4701171875 748.3 282.85 748.23046875 283.2734375 748.45 283.6
M 741.4 281.4
Q 741.3439453125 281.8046875 741.55 282.15 741.7998046875 282.49375 742.2 282.55 743.6998046875 282.875 745.15 283.15 745.5541015625 283.255859375 745.9 283 746.24375 282.800390625 746.3 282.4 746.4060546875 281.99609375 746.15 281.65 745.95 281.3064453125 745.55 281.2 744.1 280.9248046875 742.6 280.6 742.1958984375 280.5443359375 741.85 280.75 741.505859375 281.0001953125 741.4 281.4
M 739.4 281
Q 739.5060546875 280.59609375 739.25 280.25 739.05 279.9064453125 738.65 279.8 737.2 279.5248046875 735.7 279.2 735.2958984375 279.1443359375 734.95 279.35 734.605859375 279.6001953125 734.5 280 734.4439453125 280.4046875 734.65 280.75 734.8998046875 281.09375 735.3 281.15 736.7998046875 281.475 738.25 281.75 738.6541015625 281.855859375 739 281.6 739.34375 281.400390625 739.4 281 Z"/>
</g>

<path id="Layer0_0_1_STROKES" stroke="#000000" stroke-width="3" stroke-linejoin="miter" stroke-linecap="butt" stroke-miterlimit="10" fill="none" d="
M 335.3 303.4
L 812.3 303.4 907.3 494.4 430.3 494.4 335.3 303.4 Z"/>

<path id="Layer0_0_2_STROKES" stroke="#DBDBDB" stroke-width="3" stroke-linejoin="round" stroke-linecap="round" fill="none" d="
M 888.3 340.7
L 918.3 340.7
Q 933.3 340.7 933.3 355.7
L 933.3 385.75
Q 933.3 400.75 918.3 400.75
L 888.3 400.75
Q 873.3 400.75 873.3 385.75
L 873.3 355.7
Q 873.3 340.7 888.3 340.7 Z
M 634.9 521.75
L 664.9 521.75
Q 679.9 521.75 679.9 536.75
L 679.9 566.8
Q 679.9 581.8 664.9 581.8
L 634.9 581.8
Q 619.9 581.8 619.9 566.8
L 619.9 536.75
Q 619.9 521.75 634.9 521.75 Z"/>
</defs>

<g transform="matrix( 1, 0, 0, 1, 0,0) ">
<use xlink:href="#Layer0_0_FILL"/>

<use xlink:href="#Layer0_0_1_STROKES"/>

<use xlink:href="#Layer0_0_2_STROKES"/>

<use xlink:href="#Layer0_0_STROKES_1_FILL"/>
</g>
</svg>
