<?xml version="1.0" encoding="utf-8"?>
<!-- Generator: Adobe Illustrator 23.1.0, SVG Export Plug-In . SVG Version: 6.00 Build 0)  -->
<svg version="1.1" id="레이어_1" xmlns="http://www.w3.org/2000/svg" xmlns:xlink="http://www.w3.org/1999/xlink" x="0px"
	 y="0px" width="400px" height="100px" viewBox="0 0 400 100" style="enable-background:new 0 0 400 100;" xml:space="preserve">
<g>
	<g>
		<path style="fill:#FFFFFF;" d="M52.6,73.7c0-0.6,0.5-1.1,1.1-1.1l2.9,0c0.6,0,1.1,0.5,1.1,1.1v0c0,0.6-0.5,1.1-1.1,1.1l-2.9,0
			C53.1,74.7,52.6,74.3,52.6,73.7z M58.7,73.7C58.7,73.7,58.7,73.7,58.7,73.7c0-0.6,0.5-1.1,1.1-1.1l3.2,0c0.6,0,1.1,0.5,1.1,1.1
			c0,0,0,0,0,0c0,0.6-0.5,1.1-1.1,1.1l-3.2,0C59.2,74.7,58.7,74.3,58.7,73.7z M65.2,73.7L65.2,73.7c0-0.6,0.5-1.1,1.1-1.1l3,0
			c0.6,0,1.2,0.5,1.2,1.1c0,0,0,0,0,0c0,0.6-0.4,1.1-1,1.1l-3.2,0C65.7,74.8,65.2,74.3,65.2,73.7z M71.6,73.7
			C71.6,73.7,71.6,73.7,71.6,73.7c0-0.6,0.5-1.1,1.1-1.1l3.2,0c0.6,0,1.1,0.5,1.1,1.1c0,0,0,0,0,0c0,0.6-0.5,1.1-1.1,1.1l-3.2,0
			C72.1,74.8,71.6,74.3,71.6,73.7z M78,73.7C78,73.7,78,73.7,78,73.7c0-0.6,0.5-1.1,1.1-1.1l3.2,0c0.6,0,1.1,0.5,1.1,1.1
			c0,0,0,0,0,0c0,0.6-0.5,1.1-1.1,1.1l-3.2,0C78.5,74.8,78,74.3,78,73.7z M84.5,73.7C84.5,73.7,84.5,73.7,84.5,73.7
			c0-0.6,0.5-1.1,1.1-1.1l3.2,0c0.6,0,1.1,0.5,1.1,1.1c0,0,0,0,0,0c0,0.6-0.5,1.1-1.1,1.1l-3.2,0C84.9,74.8,84.5,74.3,84.5,73.7z
			 M90.9,73.8C90.9,73.8,90.9,73.8,90.9,73.8c0-0.6,0.5-1.1,1.1-1.1l3.2,0c0.6,0,1.1,0.5,1.1,1.1c0,0,0,0,0,0c0,0.6-0.5,1.1-1.1,1.1
			l-3.2,0C91.3,74.8,90.9,74.3,90.9,73.8z M97.3,73.8C97.3,73.8,97.3,73.8,97.3,73.8c0-0.6,0.5-1.1,1.1-1.1l3.2,0
			c0.6,0,1.1,0.5,1.1,1.1c0,0,0,0,0,0c0,0.6-0.5,1.1-1.1,1.1l-3.2,0C97.8,74.8,97.3,74.4,97.3,73.8z M103.7,73.8
			C103.7,73.8,103.7,73.8,103.7,73.8c0-0.6,0.5-1.1,1.1-1.1l3.2,0c0.6,0,1.1,0.5,1.1,1.1c0,0,0,0,0,0c0,0.6-0.5,1.1-1.1,1.1l-3.2,0
			C104.2,74.9,103.7,74.4,103.7,73.8z M110.1,73.8C110.1,73.8,110.1,73.8,110.1,73.8c0-0.6,0.5-1.1,1.1-1.1l3.2,0
			c0.6,0,1.1,0.5,1.1,1.1c0,0,0,0,0,0c0,0.6-0.5,1.1-1.1,1.1l-3.2,0C110.6,74.9,110.1,74.4,110.1,73.8z M116.5,73.8
			C116.5,73.8,116.5,73.8,116.5,73.8c0-0.6,0.5-1.1,1.1-1.1l3.2,0c0.6,0,1.1,0.5,1.1,1.1c0,0,0,0,0,0c0,0.6-0.5,1.1-1.1,1.1l-3.2,0
			C117,74.9,116.5,74.4,116.5,73.8z M123,73.9C123,73.9,123,73.9,123,73.9c0-0.6,0.5-1.1,1.1-1.1l3.2,0c0.6,0,1.1,0.5,1.1,1.1
			c0,0,0,0,0,0c0,0.6-0.5,1.1-1.1,1.1l-3.2,0C123.4,74.9,123,74.4,123,73.9z M129.4,73.9C129.4,73.9,129.4,73.9,129.4,73.9
			c0-0.6,0.5-1.1,1.1-1.1l3.2,0c0.6,0,1.1,0.5,1.1,1.1c0,0,0,0,0,0c0,0.6-0.5,1.1-1.1,1.1l-3.2,0C129.9,74.9,129.4,74.5,129.4,73.9z
			 M135.8,73.9C135.8,73.9,135.8,73.9,135.8,73.9c0-0.6,0.5-1.1,1.1-1.1l3.2,0c0.6,0,1.1,0.5,1.1,1.1c0,0,0,0,0,0
			c0,0.6-0.5,1.1-1.1,1.1l-3.2,0C136.3,75,135.8,74.5,135.8,73.9z M142.2,73.9C142.2,73.9,142.2,73.9,142.2,73.9
			c0-0.6,0.5-1.1,1.1-1.1l3.2,0c0.6,0,1.1,0.5,1.1,1.1c0,0,0,0,0,0c0,0.6-0.5,1.1-1.1,1.1l-3.2,0C142.7,75,142.2,74.5,142.2,73.9z
			 M148.6,73.9C148.6,73.9,148.6,73.9,148.6,73.9c0-0.6,0.5-1.1,1.1-1.1l3.2,0c0.6,0,1.1,0.5,1.1,1.1c0,0,0,0,0,0
			c0,0.6-0.5,1.1-1.1,1.1l-3.2,0C149.1,75,148.6,74.5,148.6,73.9z M155.1,74C155.1,74,155.1,74,155.1,74c0-0.6,0.5-1.1,1.1-1.1
			l3.2,0c0.6,0,1.1,0.5,1.1,1.1c0,0,0,0,0,0c0,0.6-0.5,1.1-1.1,1.1l-3.2,0C155.5,75,155.1,74.6,155.1,74z M161.5,74
			C161.5,74,161.5,74,161.5,74c0-0.6,0.5-1.1,1.1-1.1l3.2,0c0.6,0,1.1,0.5,1.1,1.1c0,0,0,0,0,0c0,0.6-0.5,1.1-1.1,1.1l-3.2,0
			C161.9,75.1,161.5,74.6,161.5,74z M167.9,74C167.9,74,167.9,74,167.9,74c0-0.6,0.5-1.1,1.1-1.1l3.2,0c0.6,0,1.1,0.5,1.1,1.1
			c0,0,0,0,0,0c0,0.6-0.5,1.1-1.1,1.1l-3.2,0C168.4,75.1,167.9,74.6,167.9,74z M174.3,74C174.3,74,174.3,74,174.3,74
			c0-0.6,0.5-1.1,1.1-1.1l3.2,0c0.6,0,1.1,0.5,1.1,1.1c0,0,0,0,0,0c0,0.6-0.5,1.1-1.1,1.1l-3.2,0C174.8,75.1,174.3,74.6,174.3,74z
			 M180.7,74C180.7,74,180.7,74,180.7,74c0-0.6,0.5-1.1,1.1-1.1l3.2,0c0.6,0,1.1,0.5,1.1,1.1c0,0.7-0.5,1.1-1.1,1.1l-3.2,0
			C181.2,75.1,180.7,74.6,180.7,74z M187.1,74.1C187.1,74.1,187.1,74.1,187.1,74.1c0-0.6,0.5-1.1,1.1-1.1l3.2,0l0,1.1l0,1.1l-3.2,0
			C187.6,75.1,187.1,74.7,187.1,74.1z M193.5,74.1C193.5,74.1,193.5,74.1,193.5,74.1c0-0.6,0.5-1.1,1.1-1.1l3.2,0l0,1.1l0,1.1
			l-3.2,0C194,75.2,193.5,74.7,193.5,74.1z M200,74.1C200,74.1,200,74.1,200,74.1c0-0.6,0.5-1.1,1.1-1.1l3.2,0l0,1.1l0,1.1l-3.2,0
			C200.4,75.2,200,74.7,200,74.1z M206.4,74.1c-0.1-0.6,0.5-1.1,1.1-1.1l3.2,0l0,1.1l0,1.1l-3.2,0C206.9,75.2,206.4,74.7,206.4,74.1
			z M212.8,74.1C212.8,74.1,212.8,74.1,212.8,74.1c0-0.6,0.5-1.1,1.1-1.1l3.2,0l0,1.1l0,1.1l-3.2,0
			C213.3,75.2,212.8,74.7,212.8,74.1z M219.2,74.2C219.2,74.2,219.2,74.2,219.2,74.2c0-0.6,0.5-1.1,1.1-1.1l3.1,0l0.1,1.1l-0.1,1.1
			l-3.1,0C219.7,75.2,219.2,74.8,219.2,74.2z M225.6,74.2C225.6,74.2,225.6,74.2,225.6,74.2c0-0.6,0.5-1.1,1.1-1.1l3.1,0l0.1,1.1
			l-0.1,1.1l-3.1,0C226.1,75.3,225.6,74.8,225.6,74.2z M232,74.2C232,74.2,232,74.2,232,74.2c0-0.6,0.5-1.1,1.1-1.1l3.1,0l0.1,1.1
			l-0.1,1.1l-3.1,0C232.5,75.3,232,74.8,232,74.2z M238.5,74.2c0-0.7,0.5-1.1,1.1-1.1l3.2,0c0.6,0,1.1,0.5,1.1,1.1c0,0,0,0,0,0
			c0,0.6-0.5,1.1-1.1,1.1l-3.2,0C238.9,75.3,238.5,74.8,238.5,74.2z M244.9,74.3C244.9,74.3,244.9,74.2,244.9,74.3
			c0-0.6,0.5-1.1,1.1-1.1l3.2,0c0.6,0,1.1,0.5,1.1,1.1c0,0,0,0,0,0c0,0.6-0.5,1.1-1.1,1.1l-3.2,0C245.4,75.3,244.9,74.8,244.9,74.3z
			 M251.3,74.3C251.3,74.3,251.3,74.3,251.3,74.3c0-0.6,0.5-1.1,1.1-1.1l3.2,0c0.6,0,1.1,0.5,1.1,1.1c0,0,0,0,0,0
			c0,0.6-0.5,1.1-1.1,1.1l-3.2,0C251.8,75.3,251.3,74.9,251.3,74.3z M257.7,74.3C257.7,74.3,257.7,74.3,257.7,74.3
			c0-0.6,0.5-1.1,1.1-1.1l3.2,0c0.6,0,1.1,0.5,1.1,1.1c0,0,0,0,0,0c0,0.6-0.5,1.1-1.1,1.1l-3.2,0C258.2,75.4,257.7,74.9,257.7,74.3z
			 M264.2,74.3C264.2,74.3,264.2,74.3,264.2,74.3c0-0.6,0.5-1.1,1.1-1.1l3.2,0c0.6,0,1.1,0.5,1.1,1.1c0,0,0,0,0,0
			c0,0.6-0.5,1.1-1.1,1.1l-3.2,0C264.6,75.4,264.2,74.9,264.2,74.3z M270.6,74.3C270.6,74.3,270.6,74.3,270.6,74.3
			c0-0.6,0.5-1.1,1.1-1.1l3.2,0c0.6,0,1.1,0.5,1.1,1.1c0,0,0,0,0,0c0,0.6-0.5,1.1-1.1,1.1l-3.2,0C271.1,75.4,270.6,74.9,270.6,74.3z
			 M277,74.3C277,74.3,277,74.3,277,74.3c0-0.6,0.5-1.1,1.1-1.1l3.2,0c0.6,0,1.1,0.5,1.1,1.1c0,0,0,0,0,0c0,0.6-0.5,1.1-1.1,1.1
			l-3.2,0C277.5,75.4,277,74.9,277,74.3z M283.4,74.4c0-0.6,0.5-1.1,1.1-1.1l3.2,0c0.6,0,1.1,0.5,1.1,1.1c0,0.6-0.5,1.1-1.1,1.1
			l-3.2,0C283.9,75.4,283.4,74.9,283.4,74.4z"/>
	</g>
	<g>
		<g>
			<path style="fill:#FFFFFF;" d="M94,27.5c0.1,0.2,0.2,0.4,0.2,0.6c0,0.3-0.1,0.6-0.3,0.8c-0.2,0.2-0.5,0.3-0.7,0.3
				c-0.3,0-0.6,0.1-1,0.1h-3.8c0,0.4,0,1.3,0,1.6c0,0.3,0,0.6,0,0.9c-0.1,0.3-0.1,0.5-0.2,0.7c-0.1,0.3-0.3,0.4-0.5,0.6
				c-0.2,0.1-0.4,0.2-0.6,0.2c-0.3,0-0.6-0.1-0.7-0.2c-0.2-0.1-0.3-0.3-0.4-0.4c-0.1-0.2-0.2-0.4-0.2-0.6v-2.8h-4.1
				c-0.3,0-0.6,0-0.8-0.1c-0.3,0-0.5-0.2-0.7-0.5c-0.1-0.2-0.2-0.4-0.2-0.7c0-0.2,0.1-0.5,0.3-0.7c0.1-0.1,0.2-0.2,0.3-0.2
				c0.2-0.1,0.3-0.1,0.4-0.1c0.2,0,0.3,0,0.4,0h10.8c0.2,0,0.5,0,0.6,0c0.3,0,0.4,0.1,0.7,0.1C93.7,27.3,93.9,27.4,94,27.5z
				 M85.6,21.7v-1H83c-0.2,0-0.3,0-0.5,0c-0.1-0.1-0.3-0.1-0.4-0.1c-0.2,0-0.3,0-0.5-0.1c-0.1-0.1-0.2-0.2-0.4-0.4
				c0-0.1-0.1-0.3-0.1-0.5c0-0.2,0-0.4,0.1-0.5c0.1-0.3,0.3-0.4,0.5-0.5c0.2-0.1,0.5-0.2,0.7-0.2h0.4c0.2,0,0.4,0,0.5,0
				c0.1,0,0.3,0,0.4,0h2l-0.1-0.7c0-0.1,0.1-0.2,0.1-0.4c0-0.1,0.1-0.3,0.1-0.4c0.1-0.1,0.2-0.2,0.3-0.3c0.2-0.1,0.4-0.2,0.6-0.2
				c0.2,0,0.4,0,0.7,0.1c0.2,0.1,0.4,0.2,0.5,0.4c0.2,0.2,0.2,0.4,0.2,0.6l0.1,0.9h2.9c0.3,0,0.5,0,0.8,0c0.2,0.1,0.5,0.2,0.7,0.3
				c0.2,0.1,0.3,0.4,0.4,0.6c0.1,0.4,0,0.7-0.2,0.9c-0.2,0.2-0.4,0.3-0.7,0.4c-0.3,0.1-0.6,0.1-1,0.1h-0.8c-0.2,0-0.4,0-0.6,0h-1.3
				v1c0.2,0.1,0.3,0.2,0.5,0.3c0,0,0.1,0.1,0.2,0.1c0.1,0.1,0.2,0.1,0.2,0.1c0.1,0.1,0.3,0.2,0.4,0.2c0.1,0.1,0.2,0.1,0.4,0.2
				c0.3,0.2,0.5,0.3,0.7,0.4c0.2,0.2,0.5,0.3,0.7,0.4c0.3,0.1,0.5,0.3,0.7,0.4c0.3,0.2,0.4,0.4,0.7,0.6c0.1,0.1,0.2,0.2,0.2,0.3
				c0,0.2,0,0.3,0,0.5c0,0.2-0.1,0.3-0.2,0.4c-0.1,0.1-0.2,0.2-0.4,0.2c-0.4,0.1-0.8,0.1-1.3,0c-0.5-0.1-0.9-0.3-1.3-0.5
				c-0.3-0.2-0.6-0.3-1-0.5c-0.3-0.2-0.6-0.3-0.9-0.5c-0.1-0.1-0.2-0.1-0.4-0.2c-0.1-0.1-0.3-0.2-0.4-0.3c-0.2-0.1-0.4-0.2-0.6-0.3
				c-0.2,0.1-0.5,0.3-0.6,0.4c-0.2,0.1-0.4,0.2-0.5,0.3c-0.2,0.1-0.3,0.2-0.4,0.3c-0.4,0.2-0.6,0.3-0.9,0.5c-0.3,0.2-0.6,0.3-1,0.5
				c-0.3,0.1-0.5,0.3-0.8,0.4c-0.2,0.2-0.5,0.3-0.8,0.2c-0.2,0-0.4-0.1-0.7-0.2c-0.2-0.1-0.3-0.3-0.4-0.6c0-0.2,0-0.3,0-0.5
				c0.1-0.2,0.2-0.4,0.3-0.5c0.1-0.2,0.3-0.3,0.4-0.4l1.3-0.8c0.3-0.1,0.5-0.2,0.6-0.3c0.2-0.2,0.4-0.2,0.6-0.3
				c0.2-0.2,0.4-0.3,0.8-0.5C85.1,21.9,85.3,21.8,85.6,21.7z"/>
			<path style="fill:#FFFFFF;" d="M108.7,25.9c0.2,0.1,0.3,0.4,0.3,0.6c0,0.3-0.1,0.6-0.3,0.8c-0.4,0.4-1.4,0.3-1.5,0.3l-10.3,0
				c-0.6,0-1.3,0.1-1.7-0.3c-0.3-0.2-0.4-0.5-0.4-0.8c0-0.3,0.3-0.8,0.7-0.9c0.5-0.2,1.1-0.1,1.7-0.1c1.3,0,1.7,0,3,0v-1.1H98
				c-0.5,0-1.1,0-1.6,0c-0.5,0-0.9-0.4-1-1.1c0-0.5-0.1-1.3-0.1-1.6c0-0.3,0-0.9,0.2-1.2c0.3-0.4,1-0.4,1.6-0.4h0.7
				c0.8,0,5.2,0.1,6.5,0c0.9,0,0.9,0,1.6,0c0-0.1,0.1-0.8,0-0.8h-1.5c-1,0-6.2,0-7.2,0h-0.5c-0.3,0-0.5,0-0.7,0
				c-0.2-0.1-0.5-0.2-0.6-0.4c-0.1-0.2-0.1-0.5-0.1-0.7c0-0.2,0.2-0.4,0.3-0.6c0.2-0.1,0.4-0.1,0.7-0.2c0.2,0,0.4,0,0.6,0
				c0.2,0,0.4,0,0.7,0c0.8,0,2.2,0,3.3,0h5.3c1.3,0,2,0.4,2,1.4v1.4c0,0.5,0.1,1.3-0.4,1.6c-0.4,0.2-0.9,0.2-1.4,0.2h-8.9l0,0.8h9.1
				c0.2,0,0.4,0,0.6,0c0.4,0,0.8,0.2,0.9,0.6c0.1,0.5,0,0.9-0.5,1c-0.3,0.1-0.7,0.1-0.9,0.1h-4c0,0.3,0,0.8,0,1.1
				c1.4,0,3.4-0.1,4.5,0C107.8,25.5,108.3,25.6,108.7,25.9z M108.4,31.3c0.1,0.5,0,0.9-0.2,1.1c-0.3,0.4-0.7,0.4-0.7,0.4H96.9
				c-1,0-1.6-0.3-1.6-0.9v-1.7c0-0.3,0-0.6,0-0.9c0-0.5,0.4-0.9,1-0.9c0.1,0,0.4,0,0.5,0.1c0.7,0.2,0.7,0.9,0.7,1.5
				c0,0.2,0,0.4,0.1,0.6c0.1,0,0.4,0.1,1.4,0.1c0.8,0,1.5,0,1.5,0h7.1C107.6,30.6,108.3,30.8,108.4,31.3z"/>
		</g>
	</g>
	<g>
		<path style="fill:#FFFFFF;" d="M118.4,60.6l-4.6-6.4c0,0-1.6-2.4-6.5-2.8c-2.2-0.2-29.7-2.3-29.7-2.3C76.5,49.1,76.9,49,75,49
			c-0.6,0.6-1.4,0.9-1.6,3.9c-0.2,3-2.1,26.9-2.1,26.9c-0.1,1.5-0.2,4.9,0.9,6.3c1,1.4,3.8,5.6,6.3,6.6
			C80.9,93.8,117.2,68,118.4,60.6"/>
		<g>
			<path style="fill:#A95EA4;" d="M78.6,93.9c-0.2,0-0.4,0-0.6-0.1c-2.5-1-5-4.5-6.3-6.3l-0.4-0.6c-1.4-1.8-1.2-5.9-1.1-7.1
				l2.1-26.9c0.2-2.9,1-3.8,1.8-4.5l0.2-0.1c0.2-0.2,0.5-0.3,0.7-0.3c0,0,0,0,0,0c1.2,0,1.6,0,2,0.1c0.2,0,0.3,0.1,0.7,0.1l29.7,2.3
				c5.4,0.4,7.3,3.1,7.3,3.3l4.6,6.3c0.2,0.2,0.2,0.5,0.2,0.8c-1.2,7.1-28.2,26.6-36.9,31.5C80.3,93.5,79.3,93.9,78.6,93.9z
				 M78.6,91.7L78.6,91.7L78.6,91.7z M75.4,50c-0.4,0.4-0.8,0.9-1,2.9l-2.1,26.9c-0.2,2.1,0,4.7,0.7,5.6l0.5,0.6
				c1.1,1.5,3.4,4.7,5.2,5.5c4-0.6,36.3-24,38.6-30.9l-4.3-6c-0.1-0.1-1.5-2-5.7-2.3l-29.7-2.3c-0.4,0-0.6-0.1-0.8-0.1
				C76.4,50.1,76.2,50.1,75.4,50z"/>
		</g>
		<path style="fill:#FFFFFF;" d="M117.1,92.5c-0.2,2.2-2.2,3.9-4.5,3.7l-31.7-2.5c-2.3-0.2-4.1-2.1-3.9-4.3l2.3-29
			c0.2-2.2,2.2-3.9,4.5-3.7l31.7,2.5c2.3,0.2,4.1,2.1,3.9,4.3L117.1,92.5z"/>
		<g>
			<path style="fill:#A95EA4;" d="M113,97.3c-0.1,0-0.3,0-0.4,0l-31.7-2.5c-2.9-0.2-5.1-2.7-4.9-5.5l2.3-29c0.1-1.4,0.8-2.6,1.8-3.5
				c1.1-0.9,2.4-1.3,3.8-1.2l31.7,2.5c1.4,0.1,2.7,0.7,3.6,1.8c0.9,1,1.4,2.4,1.3,3.7l-2.3,29c-0.1,1.4-0.8,2.6-1.9,3.5
				C115.4,96.9,114.2,97.3,113,97.3z M83.4,57.7c-0.8,0-1.5,0.2-2,0.7c-0.6,0.5-1,1.2-1.1,2l-2.3,29c-0.1,1.6,1.2,3.1,2.9,3.2
				l31.7,2.5c0.8,0.1,1.7-0.2,2.3-0.7c0.6-0.5,1-1.2,1.1-2l0,0l2.3-29c0.1-0.8-0.2-1.5-0.7-2.1c-0.6-0.6-1.3-1-2.2-1.1l-31.7-2.5
				C83.6,57.8,83.5,57.7,83.4,57.7z"/>
		</g>
		<g>
			<path style="fill:#A95EA4;" d="M80.6,58.8c-0.3,0-0.6-0.1-0.9-0.4l-6.4-8.4c-0.4-0.5-0.3-1.1,0.2-1.5c0.5-0.4,1.1-0.3,1.5,0.2
				l6.4,8.4c0.4,0.5,0.3,1.1-0.2,1.5C81.1,58.7,80.8,58.8,80.6,58.8z"/>
		</g>
		<path style="fill:#A95EA4;" d="M93.2,75.2l-1.3-0.1c-0.3,0-0.5-0.2-0.4-0.5c0-0.3,0.2-0.5,0.5-0.4l1.3,0.1c0.3,0,0.5,0.2,0.4,0.5
			C93.7,75,93.5,75.2,93.2,75.2"/>
		<path style="fill:#A95EA4;" d="M98.2,75.5l-1.3-0.1c-0.3,0-0.5-0.2-0.4-0.5c0-0.3,0.2-0.5,0.5-0.4l1.3,0.1c0.3,0,0.5,0.2,0.4,0.5
			C98.7,75.3,98.5,75.5,98.2,75.5"/>
		<path style="fill:#A95EA4;" d="M103.3,75.9l-1.3-0.1c-0.3,0-0.5-0.2-0.4-0.5c0-0.3,0.2-0.5,0.5-0.4l1.3,0.1c0.3,0,0.5,0.2,0.4,0.5
			C103.8,75.7,103.5,75.9,103.3,75.9"/>
		<path style="fill:#A95EA4;" d="M97.2,83.2c-1.6-0.1-3.1-0.5-4.5-1c-0.2-0.1-0.4-0.4-0.3-0.6c0.1-0.2,0.4-0.4,0.6-0.3
			c1.3,0.5,2.7,0.8,4.2,1c5.8,0.4,10.7-2.7,11-7c0.3-4.2-4.2-8-9.9-8.4c-5.8-0.4-10.7,2.7-11,7c-0.1,1.6,0.5,3.3,1.7,4.7
			c0.2,0.2,0.2,0.5,0,0.7c-0.2,0.2-0.5,0.2-0.7,0c-1.4-1.6-2.1-3.5-1.9-5.4c0.3-4.8,5.7-8.3,12-7.8c6.3,0.4,11.2,4.7,10.8,9.4
			C108.9,80.2,103.5,83.7,97.2,83.2"/>
		<path style="fill:#A95EA4;" d="M86.1,85.1c-0.2,0-0.4-0.1-0.4-0.3c-0.1-0.2,0-0.4,0.2-0.5c0.1-0.1,2.4-1.6,2.4-5.4
			c0-0.3,0.2-0.5,0.5-0.5c0.3,0,0.5,0.2,0.5,0.5c0,2.5-0.9,4.2-1.7,5.1c1.4-0.3,3.5-0.9,5.1-2.5l0.7,0l0,0.7
			C90.5,85,86.3,85.1,86.1,85.1L86.1,85.1z"/>
	</g>
	<g>
		<g>
			<path style="fill:#FFFFFF;" d="M19.4,15.4c0,0.5-0.1,1-0.1,1.8C19.2,17.7,18.5,18,18,18c-0.8,0-1.2-0.3-1.3-1.1
				c-0.1-0.5,0-1,0-1.5c-1.2,0-4.3,0-5.4-0.1c-0.4,0-0.6-0.1-0.9-0.4c-0.2-0.2-0.3-0.4-0.3-0.7c0-0.3,0.1-0.5,0.3-0.7
				c0.4-0.4,1.3-0.4,1.4-0.4h11.1c0.4,0,0.8,0,1.1,0c0.3,0,0.7,0.1,1,0.3c0.3,0.2,0.3,0.5,0.3,0.8c0,0.4-0.2,0.7-0.6,0.9
				c-0.5,0.2-1.2,0.2-1.7,0.2C21.7,15.3,20.7,15.4,19.4,15.4z M24.3,19.7c0.1,0.5,0,0.9-0.2,1.1c-0.3,0.4-0.7,0.4-0.7,0.4H12.8
				c-1,0-1.6-0.3-1.6-0.9v-1.7c0-0.3,0-0.6,0-0.9c0-0.5,0.4-0.9,1-0.9c0.1,0,0.4,0,0.5,0.1c0.7,0.2,0.7,0.9,0.7,1.5
				c0,0.2,0,0.4,0.1,0.6c0.1,0,0.4,0.1,1.4,0.1c0.8,0,1.5,0,1.5,0h7.1C23.5,19,24.2,19.1,24.3,19.7z M12.2,11.6
				c-0.3-0.2-0.3-0.7-0.3-1c0-0.5-0.1-0.9-0.1-1.4c0-0.7,0-1.5,0.1-2.1c0.1-0.4,0.2-0.6,0.6-0.8c0.3-0.1,0.7-0.2,1.1-0.2
				c0.4,0,0.9,0,1.4,0h3.7c1.3,0,1.1,0,2.4,0c0.2,0,0.4,0,0.7,0c0.5,0,1,0,1.5,0.3c0.5,0.2,0.7,0.8,0.7,1.3c0,0.6,0,1.3,0,1.9
				c0,0.5,0,1-0.1,1.5c-0.1,0.3-0.1,0.5-0.4,0.6c-0.3,0.1-0.6,0.1-0.9,0.1H14c-0.3,0-0.5,0-0.8,0C12.9,11.8,12.5,11.8,12.2,11.6
				C12.2,11.6,12.2,11.6,12.2,11.6z M14.1,9.6c0.1,0.1,0.6,0,0.6,0h5.1c0,0,0.9,0.1,1.4,0c0.3,0,0.3-0.1,0.3-0.4
				c0-0.2,0.1-0.7-0.1-0.9c-0.2-0.2-0.6-0.2-0.8-0.2h-1.8c-0.2,0-2.5,0-2.7,0c-0.5,0-1.1,0-1.6,0c-0.2,0-0.3,0-0.4,0.2
				c0,0.2,0,0.5,0,0.6v0.2C14,9.5,14,9.6,14.1,9.6z"/>
			<path style="fill:#FFFFFF;" d="M26.8,9.1C26.4,9,26.1,8.7,26,8.3c-0.1-0.4-0.1-0.7,0.1-1c0.2-0.3,0.5-0.5,0.8-0.6
				c0.2,0,1.5,0,1.7,0h3.5c0.9,0,1.4,0.1,1.8,0.8c0.2,0.3,0.2,0.6,0.1,0.9c-0.2,0.3-0.5,0.6-0.8,0.6c-0.5,0.1-0.9,0.1-2,0
				c0,0.2,0,4.6,0,4.8c0.2,0.2,0.4,0.9,0.6,1.1c0.2,0.3,0.4,0.7,0.7,1.1c0.2,0.2,0.3,0.5,0.4,0.7c0.4,0.7,0.9,1.3,1.1,2.1
				c0.1,0.4,0.1,0.9-0.2,1.1c-0.2,0.2-0.4,0.3-0.6,0.3c-0.5,0-1-0.4-1.2-0.7c-0.4-0.5-0.8-1.1-1.1-1.6c-0.3-0.4-0.6-0.9-0.9-1.3
				c-0.1,0.2-0.3,0.5-0.4,0.7c-0.2,0.2-0.4,0.5-0.5,0.7c-0.3,0.5-0.6,1.1-1,1.5c-0.4,0.5-0.8,0.8-1.2,0.8c-0.1,0-0.2,0-0.3,0
				c-0.2-0.1-0.4-0.3-0.5-0.5c-0.2-0.4,0-1,0.2-1.4c0.2-0.4,0.4-0.8,0.6-1.2c0.1-0.2,0.3-0.5,0.4-0.7c0.4-0.8,1.3-2.2,1.5-2.5V9.2
				C27.9,9.2,27,9.1,26.8,9.1z M37.1,20.5c-0.1,0.4-0.4,0.7-1,0.7c-0.2,0-0.4,0-0.6-0.1C35,20.7,35,19.5,35,19.1v-4.9l-1.5,0
				c-0.4,0-1.1-0.2-1.1-1c0-0.5,0-0.9,0.6-1.2c0.2-0.1,0.6-0.2,0.9-0.2H35V7.9c0-0.3,0-0.7,0.1-1c0-0.1,0.1-0.2,0.1-0.3
				c0.2-0.3,0.3-0.4,0.6-0.5C35.8,6,36,6,36.1,6c0.4,0,0.8,0.2,1,0.6c0.2,0.3,0.2,1.3,0.2,1.4c0,9.4,0,11,0,11
				C37.3,19.6,37.2,19.9,37.1,20.5z M40,21.1c-0.3,0.2-0.5,0.2-0.8,0.1c-0.8-0.2-0.9-1-0.9-1.7V8.1c0-0.6,0-1.5,0.3-1.9
				C38.9,6,39.1,6,39.4,6c0.4,0,0.8,0.3,1,0.7c0.2,0.5,0.2,1.1,0.2,1.7v0.1c0.1,2,0,3.7,0,5.5v4.8c0,0.7,0,1.3-0.3,1.8
				C40.3,20.8,40.2,20.9,40,21.1z"/>
		</g>
		<g>
			<path style="fill:#FFFFFF;" d="M16.7,30.7c0.2,0,0.4,0,0.6,0.1c0.2,0.1,0.3,0.2,0.4,0.5c0.1,0.3,0.1,0.7-0.1,1
				c-0.1,0.1-0.3,0.3-0.4,0.3c-0.2,0.1-0.4,0.1-0.6,0.1c-0.2,0-0.4,0-0.6,0c-0.2,0-0.4,0-0.6,0l-3.7-0.1c-0.5,0-0.9-0.1-1.1-0.3
				c-0.2-0.2-0.3-0.4-0.4-0.8c0-0.2,0.1-0.4,0.3-0.6s0.4-0.3,0.7-0.3c0,0,0.1,0,0.3,0c0.2,0,0.4,0,0.6,0c0.2,0,0.4,0,0.5,0
				c0.1,0,0.2,0,0.2-0.1c0-0.1,0.1-0.2,0.1-0.2c0-0.1,0-0.2,0-0.2c0-0.3,0.1-0.5,0.2-0.6c0.1-0.1,0.3-0.3,0.5-0.4
				c0.4-0.2,1-0.2,1.2,0.3c0.1,0.1,0.1,0.2,0.1,0.3c0.1,0.1,0.1,0.2,0.1,0.3c0,0.1,0,0.2,0,0.3c0,0.1,0,0.2,0,0.4h0.6
				c0.1,0,0.2,0,0.4,0c0.2,0,0.3,0,0.4,0H16.7z M16.1,34c0.4,0.3,0.7,0.7,1,1.2c0.2,0.5,0.3,1,0.4,1.7c0.1,0.6,0.2,1.2,0.2,1.9
				s0,1.3-0.2,1.8c-0.1,0.6-0.2,1.1-0.4,1.6c-0.3,0.5-0.6,0.9-1.1,1.2c-0.5,0.3-0.9,0.4-1.5,0.5c-0.5,0-1.1-0.1-1.6-0.3
				c-0.5-0.2-0.9-0.5-1.2-0.9c-0.5-0.7-0.8-1.5-0.9-2.4c-0.1-0.5-0.1-0.9-0.1-1.4s0-0.8,0.1-1.2c0-0.4,0.1-0.8,0.2-1.3
				c0.5-1.8,1.8-3,3.7-2.9C15.3,33.5,15.7,33.7,16.1,34z M15.2,41.3c0.2-0.2,0.3-0.4,0.4-0.7c0.1-0.3,0.2-0.6,0.2-0.8
				c0.1-0.3,0.1-0.6,0.1-0.8c0-0.2,0-0.5,0-0.8c-0.1-0.3-0.1-0.5-0.1-0.8c0-0.3-0.1-0.5-0.2-0.7c-0.1-0.2-0.2-0.4-0.3-0.6
				C15,36,14.8,36,14.6,35.9c-0.2-0.1-0.4,0-0.6,0.1c-0.2,0-0.4,0.1-0.6,0.2c-0.2,0.1-0.3,0.3-0.3,0.5c-0.2,0.5-0.3,1.1-0.3,1.5
				c0,0.6,0,1.1,0.1,1.7c0.1,0.3,0.2,0.6,0.3,0.9c0.1,0.3,0.3,0.5,0.5,0.7c0,0.1,0.1,0.1,0.2,0.1c0,0,0.2,0,0.3,0c0.1,0,0.2,0,0.3,0
				c0.1,0,0.2,0,0.2,0C14.8,41.6,15,41.5,15.2,41.3z M24.4,42.5c0.1,0.4,0,0.7,0,1.1c-0.2,1.1-1.5,1.5-1.9,0.2
				c-0.1-0.2-0.1-0.4-0.1-0.7c-0.1-0.2-0.1-0.4-0.1-0.6v-4.5H21v4.6c0.1,0.3,0,0.6,0,1c-0.1,0.6-0.5,1.2-1.3,1
				c-0.5-0.2-0.7-0.6-0.8-1.1c0-0.3,0-0.6,0-0.9V31.4c0,0,0-0.1,0-0.1c0-0.1,0-0.1,0-0.2c0-0.2,0-0.4,0-0.6s0-0.4,0.1-0.6
				c0.1-0.2,0.2-0.4,0.3-0.5c0.1-0.2,0.2-0.3,0.4-0.3c0.3,0,0.6,0,0.7,0.2c0.2,0.2,0.3,0.4,0.4,0.6c0.1,0.3,0.1,0.5,0.1,0.8
				c0.1,0.3,0.1,0.6,0.1,1c0,0.3,0,0.6,0,0.9v3h1.3v-4.4c0-0.2,0-0.4,0-0.6c0-0.2,0-0.5,0.1-0.7c0-0.2,0.2-0.4,0.3-0.6
				c0.1-0.2,0.3-0.3,0.6-0.3c0.3,0,0.5,0.1,0.7,0.3c0.2,0.1,0.3,0.3,0.4,0.6c0.1,0.3,0.1,0.5,0.2,0.8c0,0.3,0.1,0.6,0.1,0.9
				c-0.1,0.3-0.1,0.5-0.1,0.7V42.5z"/>
			<path style="fill:#FFFFFF;" d="M34.4,31.2c0,1.1,0.1,2.2,0,3.3c0,0.7,0.1,1.7-0.3,2.3c-0.4,0.7-1.5,0.9-1.9,0.2
				c-0.5-0.8-0.3-1.9-0.3-2.8c0-0.6,0-1.2-0.1-2c-0.1-0.5-0.7-0.5-1.4-0.5h-2.2c-0.8,0-0.8,0-1.7-0.1c-0.4-0.1-0.6-0.5-0.6-1.2
				c0-0.5,0.5-0.8,0.9-0.9c0.5-0.2,0.7,0,1.2,0c0.1,0,0.1,0,0.1,0c0,0,0,0,5,0C34,29.6,34.4,30.1,34.4,31.2z M40.2,43.5
				c0.2,0.5,0,0.8-0.5,1c-0.3,0.1-0.6,0.1-0.9,0.1h-9c-0.5,0-1.1,0-1.6,0c-0.5,0-0.9-0.4-1-1c-0.1-0.4-0.1-0.9-0.1-1.2v-0.2
				c0-0.3,0-0.7,0.2-1c0.3-0.4,1-0.4,1.6-0.4h0.4c0.1,0,0.2,0,0.3,0H38v-0.6h-8.6c-0.1,0-0.3,0-0.4,0h-0.5c-0.3,0-0.5,0-0.7,0
				c-0.2-0.1-0.4-0.1-0.5-0.3c-0.2-0.3-0.2-0.5-0.1-0.8c0.1-0.4,0.7-0.5,1-0.5c0.2,0,0.4,0,0.6,0h0.3c0.1,0,0.2,0,0.3,0h8.7
				c1.3,0,2,0.4,2,1.3v1.3c0,0.3-0.2,0.7-0.6,1c-0.3,0.2-0.7,0.2-1,0.2h-9.2v0.7h9.8C39.8,42.9,40.1,43.1,40.2,43.5z M39.6,37.2
				c-0.1,0.2-0.2,0.3-0.3,0.4c-0.2,0.1-0.4,0.2-0.6,0.2c-0.2,0-0.4-0.1-0.5-0.2c-0.5-0.3-0.6-1-0.6-1v-0.3c-0.9,0-2.1-0.2-2-1.3
				c0.1-0.6,0.3-0.9,0.9-0.9c0.3,0,0.7,0,1.1,0v-1.4c-0.9,0-2.3-0.2-2.1-1.2c0.1-0.6,0.3-0.9,0.9-0.9c0.3,0,0.8,0,1.3,0
				c0-0.2,0-0.7,0.1-0.9c0.1-0.2,0.4-0.4,0.8-0.5c0.4-0.1,0.8,0.1,1,0.3c0.2,0.2,0.3,0.4,0.3,0.6c0.1,0.3,0.1,1.4,0.1,1.6v2.4
				c0,1.4,0.1,0.7,0,2.2C39.8,36.6,39.8,36.9,39.6,37.2z"/>
		</g>
	</g>
	<g>
		<path style="fill:#FFFFFF;" d="M48,57l-5.5-5.6c0,0-1.9-2.1-6.9-1.7C33.3,49.8,5.8,52,5.8,52c-1.1,0.1-0.7-0.1-2.6,0.2
			c-0.5,0.7-1.2,1.1-1,4.2c0.2,3,2.1,26.9,2.1,26.9c0.1,1.5,0.6,4.9,1.9,6.1c1.2,1.2,4.6,4.9,7.2,5.5C16.1,95.6,47.9,64.5,48,57"/>
		<g>
			<path style="fill:#A95EA4;" d="M13.6,96.1c-0.1,0-0.2,0-0.3,0c-2.6-0.6-5.6-3.6-7.2-5.3l-0.5-0.5c-1.6-1.6-2.1-5.6-2.2-6.8
				c0,0-1.9-23.9-2.1-26.9c-0.2-2.9,0.4-3.9,1.1-4.7l0.1-0.2c0.2-0.2,0.4-0.4,0.7-0.4C4.3,51,4.6,51,5.1,51c0.2,0,0.3,0,0.7,0
				l29.7-2.4c5.4-0.4,7.7,2,7.8,2.1l5.5,5.5c0.2,0.2,0.3,0.5,0.3,0.8C49,64.2,25.3,87.6,17.5,93.8C15.3,95.6,14.3,96.1,13.6,96.1z
				 M13.5,93.9L13.5,93.9L13.5,93.9z M3.8,53.3c-0.3,0.4-0.7,1-0.5,3.1c0.2,3,2.1,26.9,2.1,26.9c0.2,2.1,0.8,4.7,1.5,5.4l0.6,0.6
				c1.3,1.3,4.1,4.1,6,4.6c3.8-1.2,32.1-29.4,33.3-36.5l-5.2-5.2c-0.1-0.1-1.8-1.8-6-1.4L5.9,53.1c-0.4,0-0.6,0-0.8,0
				C4.8,53.1,4.6,53.1,3.8,53.3z"/>
		</g>
		<path style="fill:#FFFFFF;" d="M51.7,88.7c0.2,2.2-1.6,4.2-3.9,4.4l-31.7,2.5c-2.3,0.2-4.4-1.5-4.5-3.7l-2.3-29
			c-0.2-2.2,1.6-4.2,3.9-4.4L44.9,56c2.3-0.2,4.4,1.5,4.5,3.7L51.7,88.7z"/>
		<g>
			<path style="fill:#A95EA4;" d="M15.7,96.7c-1.2,0-2.4-0.4-3.4-1.2c-1.1-0.9-1.7-2.1-1.9-3.5l-2.3-29c-0.1-1.4,0.3-2.7,1.3-3.7
				c0.9-1,2.2-1.7,3.6-1.8l31.7-2.5c1.4-0.1,2.8,0.3,3.8,1.2c1.1,0.9,1.8,2.1,1.9,3.5l2.3,29l0,0c0.1,1.4-0.3,2.7-1.3,3.7
				c-0.9,1-2.2,1.7-3.6,1.8l-31.7,2.5C16,96.7,15.9,96.7,15.7,96.7z M45.2,57c-0.1,0-0.2,0-0.3,0l-31.7,2.5
				c-0.9,0.1-1.6,0.4-2.2,1.1c-0.5,0.6-0.8,1.4-0.7,2.1l2.3,29c0.1,0.8,0.4,1.5,1.1,2c0.6,0.5,1.5,0.8,2.3,0.7L47.7,92
				c0.9-0.1,1.6-0.4,2.2-1.1c0.5-0.6,0.8-1.4,0.7-2.1l-2.3-29c-0.1-0.8-0.4-1.5-1.1-2C46.7,57.3,46,57,45.2,57z"/>
		</g>
		<g>
			<path style="fill:#A95EA4;" d="M10.8,60.9c-0.2,0-0.5-0.1-0.7-0.3l-8.3-7.1c-0.4-0.4-0.5-1.1-0.1-1.5c0.4-0.4,1.1-0.5,1.5-0.1
				l8.3,7.1c0.4,0.4,0.5,1.1,0.1,1.5C11.4,60.8,11.1,60.9,10.8,60.9z"/>
		</g>
		<path style="fill:#A95EA4;" d="M28.1,75.1c0.4,0,0.8,0.2,1.1,0.5c0.3,0.3,0.4,0.7,0.4,1.1c0,0.4-0.2,0.8-0.5,1.1
			c-0.3,0.3-0.7,0.4-1.1,0.4h0c-0.4,0-0.8-0.2-1.1-0.5c-0.3-0.3-0.4-0.7-0.4-1.1c0-0.4,0.2-0.8,0.5-1.1
			C27.3,75.2,27.7,75.1,28.1,75.1 M27.9,79.2c0.7,0,1.4-0.2,1.9-0.7c0.5-0.5,0.8-1.1,0.8-1.8c0-0.7-0.2-1.4-0.7-1.9
			c-0.5-0.5-1.1-0.8-1.8-0.8c-0.7,0-1.4,0.2-1.9,0.7c-0.5,0.5-0.8,1.1-0.8,1.8c0,0.7,0.2,1.4,0.7,1.9C26.5,78.9,27.2,79.2,27.9,79.2
			L27.9,79.2z"/>
		<path style="fill:#A95EA4;" d="M40.7,63.8l-3.1,2.9l-0.1-1.6l3.1-2.9L40.7,63.8z M37.2,68.4l0.4-0.1l4.1-3.8l0.2-0.4l-0.2-3
			c0-0.2-0.2-0.4-0.3-0.5c-0.2-0.1-0.4,0-0.6,0.1l-4.1,3.8l-0.2,0.4l0.2,3c0,0.2,0.2,0.4,0.3,0.5L37.2,68.4z"/>
		<path style="fill:#A95EA4;" d="M43.1,64.8L40,67.7l-1.6-0.2l3.1-2.9L43.1,64.8z M40.1,68.8l0.4-0.1l4.1-3.8
			c0.2-0.1,0.2-0.4,0.2-0.6c-0.1-0.2-0.2-0.3-0.4-0.4l-3-0.4l-0.5,0.1l-4.1,3.8c-0.2,0.1-0.2,0.4-0.1,0.6c0.1,0.2,0.2,0.3,0.4,0.4
			L40.1,68.8L40.1,68.8z"/>
		<path style="fill:#A95EA4;" d="M28.2,76.8l0.4-0.1l13.1-12.2c0.2-0.2,0.2-0.6,0-0.8c-0.2-0.2-0.6-0.2-0.8,0L27.8,75.8
			c-0.2,0.2-0.2,0.6,0,0.8L28.2,76.8z"/>
		<path style="fill:#A95EA4;" d="M28.4,66.4c2.7,0.1,5.3,1.2,7.1,3.2c3.8,4.1,3.6,10.6-0.5,14.5c-2,1.9-4.6,2.8-7.3,2.7
			c-2.7-0.1-5.3-1.2-7.1-3.2C16.7,79.5,16.9,73,21,69.1C23,67.3,25.6,66.3,28.4,66.4 M27.6,87.9c3,0.1,5.9-1,8.1-3
			c4.6-4.3,4.8-11.4,0.6-16c-2.1-2.2-4.9-3.5-7.9-3.6c-3-0.1-5.9,1-8.1,3c-4.6,4.3-4.8,11.4-0.6,16C21.8,86.6,24.6,87.8,27.6,87.9"
			/>
		<path style="fill:#A95EA4;" d="M27.8,83.8c1.9,0.1,3.8-0.6,5.2-1.9c1.4-1.3,2.2-3.1,2.3-5c0.1-1.9-0.6-3.8-1.9-5.2
			c-0.7-0.7-1.5-1.3-2.4-1.7c-0.3-0.1-0.6,0-0.7,0.3c-0.1,0.3,0,0.6,0.3,0.7c0.8,0.3,1.5,0.8,2.1,1.5c1.1,1.2,1.7,2.7,1.6,4.4
			c-0.1,1.6-0.7,3.1-1.9,4.3c-1.2,1.1-2.7,1.7-4.4,1.6c-1.6-0.1-3.1-0.7-4.3-1.9c-2.3-2.5-2.2-6.3,0.3-8.6c0.9-0.8,1.9-1.3,3.1-1.5
			c0.3-0.1,0.5-0.3,0.4-0.6c-0.1-0.3-0.3-0.5-0.6-0.4c-1.3,0.2-2.6,0.9-3.6,1.8c-2.9,2.7-3.1,7.3-0.4,10.2
			C24.1,82.9,25.8,83.8,27.8,83.8"/>
	</g>
	<g>
		<g>
			<path style="fill:#FFFFFF;" d="M156.7,13.7c0.1,0.3,0,0.6-0.2,0.8c-0.2,0.1-0.4,0.2-0.6,0.2c-0.5,0-1-0.3-1.3-0.5
				c-0.4-0.4-0.8-0.8-1.1-1.2c-0.3-0.3-0.7-0.6-0.9-1l-1.9,2.1c-0.4,0.4-0.9,0.6-1.3,0.6c-0.1,0-0.2,0-0.3,0
				c-0.2-0.1-0.4-0.2-0.5-0.3c-0.2-0.3-0.1-0.7,0.1-1c0.2-0.3,0.4-0.6,0.6-0.8c0.7-0.8,1.3-1.6,2-2.4V9c-0.2,0-0.5,0-0.9,0
				c-0.6,0-1.5,0.2-1.8-0.6c-0.1-0.3-0.2-0.7-0.1-1c0.1-0.4,0.5-0.5,0.8-0.5c0.1,0,0.2,0,0.3,0c0.1,0,0.2,0,0.2,0h1.6
				c0-0.6,0.2-1.2,0.8-1.4c0.9-0.3,1.5,0.4,1.6,1.2c0,0.1,0,0.1,0,0.2h1.1c0.9,0,1.4,0.1,1.8,0.6c0.2,0.3,0.2,1.2-0.2,1.4
				C156.2,8.9,156,9,155.8,9c-0.3,0-0.5,0-0.8,0c-0.5,0-0.7,0-1,0c0,0.7,0,0.2,0,1.1c0.1,0.1,0.4,0.5,0.6,0.7
				c0.2,0.2,0.4,0.4,0.7,0.7c0.2,0.2,0.3,0.3,0.4,0.5C156,12.5,156.6,13.1,156.7,13.7z M155.8,15.6c3.6,0,6.5,0.4,6.5,3
				c0,2.6-2.9,3-6.5,3s-6.5-0.4-6.5-3C149.3,16.2,152.2,15.6,155.8,15.6z M155.8,17.6c-1.8,0-3.7,0.1-3.7,1c0,0.8,1.9,0.9,3.7,0.9
				s3.9,0.1,3.9-0.9C159.6,17.7,157.6,17.6,155.8,17.6z M161.9,11.8v1.8c0,0.3-0.1,0.6-0.2,0.9c-0.1,0.2-0.2,0.3-0.3,0.4
				c-0.2,0.1-0.4,0.2-0.6,0.2c-0.2,0-0.4,0-0.5-0.1c-0.5-0.3-0.6-1-0.6-1V7.4c0-0.1,0-0.7,0.2-1c0.1-0.3,0.4-0.4,0.8-0.5
				c0.4-0.1,0.9,0.1,1.1,0.3c0.2,0.2,0.2,0.4,0.3,0.6c0.1,0.3,0.1,0.6,0.1,0.8V9c0,0,0,0.3,0,0.6c0.2,0,1.3,0,1.5,0.1
				c0.5,0.1,0.7,0.3,0.7,0.6c0.1,0.3,0.1,0.7-0.1,1c-0.3,0.5-1,0.5-1.7,0.5H161.9z"/>
			<path style="fill:#FFFFFF;" d="M175.2,17.6c0.3,0.3,0.4,0.5,0.4,0.8c0,0.2-0.1,0.4-0.2,0.6c-0.1,0.2-0.3,0.3-0.4,0.3
				c-0.1,0-0.3,0.1-0.4,0.1c-0.2,0-0.3,0-0.4,0h-1.8c-0.4,0-0.9,0-1.4,0h-1.4c-0.5,0-0.8,0-1.2,0h-2c-0.3,0-0.5,0-0.7-0.1
				c-0.1,0-0.3-0.1-0.4-0.1c-0.1,0-0.2-0.1-0.3-0.2c-0.2-0.2-0.3-0.4-0.3-0.7c0-0.3,0.1-0.5,0.3-0.7c0.1-0.1,0.2-0.2,0.4-0.2
				c0.2-0.1,0.3-0.1,0.4-0.1c0.2,0,0.3,0,0.4,0h7.3c0.3,0,0.5,0,0.7,0c0.2,0,0.4,0,0.6,0.1C175,17.4,175.1,17.5,175.2,17.6z
				 M165.5,12.7c-0.3-0.7-0.3-1.3-0.3-1.9c0-0.7,0.1-1.2,0.3-1.8c0.3-0.5,0.5-1,0.9-1.4c0.4-0.4,0.9-0.7,1.4-0.9
				c0.5-0.3,1.1-0.4,1.8-0.4c0.3,0,0.4,0,0.7,0c0.2,0,0.5,0,0.7,0.1c0.1,0,0.2,0,0.3,0.1c0.1,0,0.3,0.1,0.3,0.1
				c0.3,0.1,0.5,0.2,0.8,0.3c0.3,0.1,0.5,0.2,0.7,0.3c0.2,0.1,0.4,0.3,0.5,0.4c0.3,0.3,0.4,0.4,0.6,0.7c0.2,0.3,0.3,0.5,0.3,0.9
				c0.1,0.3,0.1,0.6,0.2,0.9c0,0.3,0.1,0.6,0,0.9c0,0.2,0,0.4,0,0.5c-0.1,0.2-0.1,0.4-0.1,0.6c-0.1,0.5-0.3,1-0.5,1.4
				c-0.3,0.4-0.6,0.8-1.1,1.1c-0.3,0.2-0.7,0.4-1,0.4c-0.3,0.1-0.7,0.2-1,0.2c-0.1,0-0.3,0-0.4,0c-0.1,0-0.2,0-0.3,0h-0.3
				c-0.1,0-0.2,0-0.3,0c-0.2,0-0.3,0-0.5,0c-0.2,0-0.4,0-0.5,0c-0.4-0.1-0.7-0.2-1-0.3c-0.3-0.2-0.7-0.3-0.9-0.6
				C166,13.9,165.7,13.3,165.5,12.7z M167.7,11.2c0.1,0.3,0.1,0.5,0.3,0.8c0.3,0.4,0.7,0.7,1.1,0.9c0.4,0.1,0.7,0.2,1.1,0.2
				c0.2,0,0.4,0,0.6-0.1c0.2,0,0.3-0.1,0.5-0.2c0.3-0.1,0.5-0.3,0.6-0.6c0.2-0.3,0.2-0.5,0.3-0.8c0.1-0.4,0.1-0.8-0.1-1.2
				c-0.1-0.2-0.2-0.3-0.2-0.5c-0.1-0.1-0.1-0.2-0.2-0.2c0-0.1-0.1-0.2-0.2-0.3c-0.1-0.1-0.2-0.1-0.3-0.2c-0.1-0.1-0.2-0.1-0.3-0.2
				c-0.3-0.1-0.7-0.1-1-0.1c-0.3,0-0.7,0-0.9,0.2c-0.3,0.1-0.5,0.3-0.8,0.6c-0.2,0.3-0.3,0.6-0.4,1
				C167.7,10.7,167.7,10.9,167.7,11.2z M179,9.7c0,0.5,0,1.1,0,1.6v3.1c0,0.6,0,1.1,0,1.6v2.2c0,0.4,0,0.8,0,1.2c0,0.3,0,0.5,0,0.7
				c0,0.2,0,0.4-0.1,0.5c0,0.1-0.1,0.2-0.2,0.3c-0.1,0.1-0.2,0.2-0.4,0.3c-0.2,0.2-0.6,0.2-0.9,0.2c-0.2-0.1-0.4-0.1-0.5-0.3
				c-0.1-0.1-0.2-0.2-0.3-0.4c-0.1-0.2-0.1-0.3-0.1-0.5c0-0.1-0.1-0.3-0.1-0.3v-0.2l0-11.5c0-0.3,0-0.7,0.1-1.1
				c0-0.4,0.2-0.7,0.3-0.9c0.2-0.1,0.3-0.2,0.4-0.3c0.2,0,0.3,0,0.5,0s0.4,0,0.6,0.2c0.2,0.1,0.3,0.3,0.4,0.5
				c0.1,0.3,0.2,0.6,0.2,0.9c0,0.3,0,0.6,0,0.9V9.7z"/>
		</g>
		<g>
			<path style="fill:#FFFFFF;" d="M184.3,15.6c1.1,0,2-0.9,2-2c0-1.1-0.9-2-2-2s-2,0.9-2,2C182.3,14.7,183.2,15.6,184.3,15.6"/>
		</g>
		<g>
			<path style="fill:#FFFFFF;" d="M152.1,39.5c0-0.5,0-0.6,0-1.1l-2.7-0.1c-0.4,0-0.6-0.1-0.9-0.4c-0.2-0.2-0.3-0.4-0.3-0.6
				c0-0.3,0.1-0.5,0.3-0.7c0.4-0.4,1.3-0.4,1.4-0.4H161c0.4,0,0.8,0,1.1,0c0.3,0,0.7,0.1,1,0.3c0.3,0.2,0.3,0.5,0.3,0.8
				c0,0.4-0.2,0.6-0.6,0.8c-0.5,0.2-1.2,0.2-1.7,0.2c-0.3,0-0.7,0-1.2,0c0,0.4,0,0.7,0,1.1c1.4,0.3,2.2,1,2.2,2.4
				c0,2.4-2.8,2.7-6.3,2.7c-3.5,0-6.3-0.3-6.3-2.7C149.4,40.6,150.5,39.9,152.1,39.5z M149.1,32c0-2.6,2.8-3.2,6.6-3.2
				c3.7,0,6.6,0.3,6.6,3.2c0,2.8-2.8,3.2-6.6,3.2C152,35.2,149.1,34.9,149.1,32z M151.8,32c0,0.9,1.5,1.1,3.9,1.1
				c1.9,0,3.9,0.1,3.9-1.1c0-1-2.1-1-3.9-1S151.8,31,151.8,32z M155.8,41.1c-1.8,0-3.7,0-3.7,0.8c0,0.7,1.9,0.8,3.7,0.8
				c1.8,0,3.8,0.2,3.8-0.8C159.6,41.1,157.5,41.1,155.8,41.1z M154.8,39.2c0.3,0,0.7,0,1,0c0.5,0,1,0,1.5,0c0-0.3,0-0.5,0-0.8h-2.4
				C154.8,38.8,154.8,39,154.8,39.2z"/>
			<path style="fill:#FFFFFF;" d="M171.8,37.5c-2.6,2-7.1,0.3-7.1-3.1c0-1,0.3-1.9,0.9-2.5h-0.3c-0.6,0-1.1-0.5-1.1-1
				c0-0.6,0.5-1,1.1-1h2.6v-0.6c0-0.5,0.5-0.9,1.1-0.9s1.1,0.4,1.1,0.9v0.6h2.7c0.6,0,1.1,0.5,1.1,1c0,0.6-0.5,1-1.1,1h-0.2
				c0.5,0.6,0.9,1.5,0.9,2.5C173.4,35.6,172.8,36.8,171.8,37.5z M167.8,45c-0.5,0-1.1,0-1.6-0.4c-0.6-0.4-0.6-1.5-0.6-1.6
				c0,0,0-2.9,0-3c0-0.4,0.1-0.7,0.5-0.9c0.2-0.1,0.4-0.1,0.6-0.1c0.4,0,1,0.1,1.1,0.6v0.5c0,0.4,0.2,0.3,0.5,0.3h7.9v-0.6
				c0-0.5,0.2-0.8,0.6-0.8c0.4-0.1,1-0.1,1.3,0.2c0.3,0.2,0.2,0.6,0.2,0.9c0,1.2,0.1,2.3-0.1,3.5c0,0.3-0.1,0.6-0.3,0.9
				c-0.4,0.6-1.5,0.5-2.1,0.5C175.1,45.1,168.4,44.9,167.8,45z M171,34.4c0-2.3-3.8-2.4-3.8,0c0,1.4,1.2,1.9,2.3,1.7
				C170.3,36,171,35.4,171,34.4z M167.9,42.6c0,0.1,0,0.2,0,0.3c0.1,0.4,0.4,0.3,0.8,0.3c0.7,0,1.6,0,2.4,0c0.2,0,4.1-0.1,4.3,0
				c0.3,0,0.8,0.1,0.8-0.3c0-0.2,0.1-0.3-0.1-0.5c-0.2-0.2-0.4-0.2-0.7-0.2c-0.1,0-6.3,0-6.3,0C168.5,42.2,167.9,42.1,167.9,42.6z
				 M178,35v1.8c0,0.3-0.1,0.6-0.2,0.9c-0.1,0.2-0.2,0.3-0.3,0.4c-0.2,0.1-0.4,0.2-0.6,0.2c-0.2,0-0.4,0-0.5-0.1
				c-0.5-0.3-0.6-1-0.6-1v-6.4c0-0.1,0-0.7,0.2-1c0.1-0.3,0.4-0.4,0.8-0.5c0.4-0.1,0.9,0.1,1.1,0.3c0.2,0.2,0.2,0.4,0.3,0.6
				c0.1,0.3,0.1,0.6,0.1,0.8v1.3c0,0,0,0.3,0,0.6c0.2,0,1.3,0,1.5,0.1c0.5,0.1,0.7,0.3,0.7,0.6c0.1,0.3,0.1,0.7-0.1,1
				c-0.3,0.5-1,0.5-1.7,0.5H178z"/>
		</g>
	</g>
	<g>
		<path style="fill:#FFFFFF;" d="M188.1,57l-5.5-5.6c0,0-1.9-2.1-6.9-1.7c-2.2,0.2-29.7,2.4-29.7,2.4c-1.1,0.1-0.7-0.1-2.6,0.2
			c-0.5,0.7-1.2,1.1-1,4.2c0.2,3,2.1,26.9,2.1,26.9c0.1,1.5,0.6,4.9,1.9,6.1c1.2,1.2,4.6,4.9,7.2,5.5C156.2,95.6,188,64.5,188.1,57"
			/>
		<g>
			<path style="fill:#A95EA4;" d="M153.7,96.1c-0.1,0-0.2,0-0.3,0c-2.6-0.6-5.6-3.6-7.2-5.2l-0.6-0.6c-1.6-1.6-2.1-5.6-2.2-6.8
				c0,0-1.9-23.9-2.1-26.9c-0.2-2.9,0.4-3.9,1.1-4.7l0.1-0.2c0.2-0.2,0.4-0.3,0.7-0.4c1.2-0.2,1.5-0.2,2-0.2c0.2,0,0.3,0,0.7,0
				l29.7-2.4c5.4-0.4,7.7,2,7.8,2.1l5.5,5.5c0.2,0.2,0.3,0.5,0.3,0.8c-0.1,7.2-23.7,30.7-31.5,36.9
				C155.4,95.6,154.4,96.1,153.7,96.1z M153.6,93.9L153.6,93.9L153.6,93.9z M143.9,53.3c-0.3,0.4-0.7,1-0.5,3.1
				c0.2,3,2.1,26.9,2.1,26.9c0.2,2.1,0.8,4.7,1.5,5.4l0.6,0.6c1.3,1.3,4,4.1,6,4.6c3.8-1.2,32.1-29.4,33.3-36.5l-5.2-5.2
				c-0.1-0.1-1.8-1.8-6-1.4L146,53.1c-0.4,0-0.7,0-0.8,0C144.9,53.2,144.7,53.1,143.9,53.3z"/>
		</g>
		<path style="fill:#FFFFFF;" d="M191.8,88.7c0.2,2.2-1.6,4.2-3.9,4.4l-31.7,2.5c-2.3,0.2-4.4-1.5-4.5-3.7l-2.3-29
			c-0.2-2.2,1.6-4.2,3.9-4.4L185,56c2.3-0.2,4.4,1.5,4.5,3.7L191.8,88.7z"/>
		<g>
			<path style="fill:#A95EA4;" d="M155.8,96.7c-2.7,0-5-2-5.3-4.7l-2.3-29c-0.1-1.4,0.3-2.7,1.3-3.7c0.9-1,2.2-1.7,3.6-1.8l31.7-2.5
				c1.4-0.1,2.8,0.3,3.8,1.2c1.1,0.9,1.8,2.1,1.9,3.5l2.3,29l0,0c0.1,1.4-0.3,2.7-1.3,3.7c-0.9,1-2.2,1.7-3.6,1.8l-31.7,2.5
				C156.1,96.7,156,96.7,155.8,96.7z M185.3,57c-0.1,0-0.2,0-0.3,0l-31.7,2.5c-0.9,0.1-1.6,0.4-2.2,1.1c-0.5,0.6-0.8,1.4-0.7,2.1
				l2.3,29c0.1,1.6,1.7,2.8,3.4,2.7l31.7-2.5c0.9-0.1,1.6-0.4,2.2-1.1c0.5-0.6,0.8-1.4,0.7-2.1l-2.3-29c-0.1-0.8-0.4-1.5-1.1-2
				C186.8,57.3,186.1,57,185.3,57z"/>
		</g>
		<g>
			<path style="fill:#A95EA4;" d="M150,60.4c-0.3,0-0.5-0.1-0.7-0.3l-7.3-6.7c-0.4-0.4-0.5-1.1-0.1-1.5c0.4-0.4,1.1-0.5,1.5-0.1
				l7.3,6.7c0.4,0.4,0.5,1.1,0.1,1.5C150.5,60.3,150.3,60.4,150,60.4z"/>
		</g>
		<path style="fill:#A95EA4;" d="M168.9,63.2l-0.3,0c-3.4,0.4-6.1,3.5-6,7c0,2,1,3.9,2.5,5.2c0.6,0.5,1,1.2,1.1,2l0.2,2.5
			c0,0.5,0.5,1,1.1,0.9l5.9-0.5c0.5,0,1-0.5,0.9-1.1l-0.2-2.5c-0.1-0.8,0.2-1.5,0.7-2.1c1.2-1.4,1.8-3.2,1.6-5.1
			c-0.2-1.9-1.1-3.6-2.6-4.8C172.5,63.6,170.7,63,168.9,63.2 M173.5,81.3l-5.9,0.5c-1.1,0.1-2.1-0.7-2.2-1.9l-0.2-2.5
			c0-0.5-0.3-0.9-0.7-1.2c-1.8-1.5-2.9-3.7-2.9-6c-0.1-4,3-7.5,7-8c2.2-0.3,4.3,0.3,6,1.7c1.7,1.4,2.8,3.3,2.9,5.5
			c0.2,2.2-0.5,4.2-1.9,5.9c-0.3,0.4-0.5,0.9-0.5,1.3l0.2,2.5C175.4,80.2,174.6,81.2,173.5,81.3"/>
		<path style="fill:#A95EA4;" d="M166.8,71.2c-0.5,0-0.9,0.5-0.9,1c0,0.5,0.5,0.9,1,0.9l1-0.1l-0.1-1
			C167.8,71.5,167.3,71.1,166.8,71.2 M168.5,74l-1.5,0.1c-1.1,0.1-2.1-0.7-2.2-1.8c-0.1-1.1,0.7-2.1,1.8-2.2
			c1.1-0.1,2.1,0.7,2.2,1.8l0.1,1.5C169,73.7,168.8,74,168.5,74"/>
		<path style="fill:#A95EA4;" d="M169.2,81.3c-0.3,0-0.6-0.2-0.6-0.5l-0.6-7.3c0-0.3,0.2-0.6,0.5-0.6c0.3,0,0.6,0.2,0.6,0.5l0.6,7.3
			C169.7,81,169.5,81.2,169.2,81.3"/>
		<path style="fill:#A95EA4;" d="M171.6,72.7l1-0.1c0.5,0,0.9-0.5,0.9-1c0-0.5-0.5-0.9-1-0.9c-0.5,0-0.9,0.5-0.9,1L171.6,72.7z
			 M172.7,73.6l-1.5,0.1c-0.3,0-0.6-0.2-0.6-0.5l-0.1-1.5c-0.1-1.1,0.7-2.1,1.8-2.2c1.1-0.1,2.1,0.7,2.2,1.8
			C174.6,72.6,173.8,73.5,172.7,73.6"/>
		<path style="fill:#A95EA4;" d="M171.8,81c-0.3,0-0.6-0.2-0.6-0.5l-0.6-7.3c0-0.3,0.2-0.6,0.5-0.6c0.3,0,0.6,0.2,0.6,0.5l0.6,7.3
			C172.3,80.7,172.1,81,171.8,81"/>
		<path style="fill:#A95EA4;" d="M172.2,73.7l-4.4,0.4c-0.3,0-0.6-0.2-0.6-0.5c0-0.3,0.2-0.6,0.5-0.6l4.4-0.4c0.3,0,0.6,0.2,0.6,0.5
			C172.7,73.4,172.5,73.6,172.2,73.7"/>
		<path style="fill:#A95EA4;" d="M174.6,83.7l-7.7,0.7c-0.3,0-0.6-0.2-0.6-0.5c0-0.3,0.2-0.6,0.5-0.6l7.7-0.7c0.3,0,0.6,0.2,0.6,0.5
			C175.1,83.4,174.9,83.7,174.6,83.7"/>
		<path style="fill:#A95EA4;" d="M174.8,86.1l-7.7,0.7c-0.3,0-0.6-0.2-0.6-0.5c0-0.3,0.2-0.6,0.5-0.6l7.7-0.7c0.3,0,0.6,0.2,0.6,0.5
			C175.3,85.8,175.1,86.1,174.8,86.1"/>
		<path style="fill:#A95EA4;" d="M171.2,89.3c-1.3,0.1-2.5-0.9-2.6-2.2l0-0.4c0-0.3,0.2-0.6,0.5-0.6c0.3,0,0.6,0.2,0.6,0.5l0,0.4
			c0.1,0.8,0.7,1.3,1.5,1.2c0.8-0.1,1.3-0.7,1.2-1.5l0-0.4c0-0.3,0.2-0.6,0.5-0.6c0.3,0,0.6,0.2,0.6,0.5l0,0.4
			C173.5,88,172.5,89.1,171.2,89.3"/>
	</g>
	<g>
		<g>
			<path style="fill:#FFFFFF;" d="M279.7,10.8c0,0,0,0.8,0,1.3c0.8,0,1.4,0,1.4,0h1c0.1,0,0.2,0,0.4,0h0.5c0.3,0,0.6,0,0.8,0.2
				c0.4,0.2,0.4,0.7,0.4,1.1c0,0.2,0,0.4-0.1,0.6c-0.3,0.4-0.6,0.4-0.9,0.4h-1.6c-0.4,0-1.5,0-1.8,0c0,1,0,2.2,0,2.2v0.5
				c0,0.3,0.1,0.7,0.1,0.7c0.2,0.1,0.4,0.2,0.9,0.2c0.4,0,1.9,0,2,0h0.3c0.4,0,0.8,0,1.2,0.1c0.1,0,0.1,0.1,0.2,0.1
				c0.6,0.4,0.6,1.6-0.1,2c-0.5,0.3-1.1,0.4-1.7,0.4H282c-0.7,0-0.9,0-1.6,0h-0.3c-0.8,0-1.9-0.1-2.4-0.7c-0.5-0.6-0.4-2.2-0.4-2.2
				V8.3c0-0.1,0-0.9,0.2-1.1c0.2-0.4,0.4-0.5,0.8-0.6c0.2,0,0.6-0.1,0.6-0.1h3.6c0,0,0.4,0,0.6,0h0c0.2,0,0.4,0,0.7,0.1
				c0.2,0.1,0.4,0.1,0.6,0.3c0.2,0.2,0.3,0.4,0.3,0.6c0,0.2,0.1,0.4,0,0.6c-0.1,0.5-0.4,1-0.9,1h-4V10.8z M291.3,19.2
				c0,0.7,0,1.5-0.6,1.9c-0.2,0.1-0.4,0.2-0.6,0.2c-0.9,0-1-1.4-1-2.1v-4.8h-1.3v4.9c0,0.6,0,1.3-0.3,1.7c-0.2,0.2-0.4,0.3-0.7,0.3
				c-0.3,0-0.5-0.2-0.7-0.3c-0.4-0.4-0.4-1.1-0.4-1.7V7.9c0-0.7,0.1-1.8,0.9-2c0.3-0.1,0.5,0,0.7,0.2c0.6,0.6,0.5,2.2,0.5,3.3V12
				h1.3V8.1c0-0.7-0.1-2.1,0.9-2.2c0.3,0,0.5,0.1,0.7,0.3c0.6,0.6,0.6,2.2,0.5,3.1V19.2z"/>
			<path style="fill:#FFFFFF;" d="M298.6,18l0-2.6c-0.7,0-1.2,0-1.9,0c-0.6,0-1.3,0-1.8-0.2c-0.4-0.1-0.8-0.5-1-0.9
				c-0.3-0.6-0.2-1.7-0.2-1.8V9c0-0.1-0.1-1.2,0.3-1.9c0.3-0.5,1.1-0.6,1.8-0.6h8.1c0.1,0,1.7-0.1,1.9,0.8c0.1,0.3,0.1,1,0,1.2
				c-0.1,0.2-0.3,0.3-0.5,0.3c-0.2,0.1-0.6,0.1-1.1,0.1h-7c-1.2,0-1.1,0.9-1.1,1.2l0.1,1.8c0,0.3,0,0.7,0.2,0.9
				c0.3,0.3,0.7,0.2,1.1,0.2l6.6,0c0.6,0,1.2,0.1,1.6,0.3c0.3,0.1,0.4,0.5,0.5,0.8c0.1,0.3,0,0.6-0.2,0.8c-0.3,0.4-0.8,0.7-1.4,0.7
				c-1.1,0-2.3,0.1-3.4,0l0,2.6h4.9c0.4,0,0.8,0.1,1.2,0.4c0.2,0.2,0.3,0.4,0.3,0.7c0,0.3-0.1,0.7-0.3,0.8c-0.4,0.4-1.4,0.4-1.4,0.4
				c-11,0-11.1,0-11.2,0c-0.5,0-1.2,0.1-1.7-0.3c-0.3-0.2-0.4-0.5-0.4-0.8c0-0.4,0.3-0.9,0.6-1c0.5-0.2,1.1-0.2,1.6-0.2L298.6,18z"
				/>
			<path style="fill:#FFFFFF;" d="M315.8,13.7L315.8,13.7c-0.9,0-1.9,0-2.3-0.6c-0.4-0.7-0.3-2.2-0.3-2.3c0,0,0-0.4,0-1.3
				c0-0.9,0-1.5,0-1.5c0-0.2,0-0.9,0.2-1.2c0.2-0.4,0.4-0.5,0.8-0.6c0.3,0,1.1-0.1,1.1-0.1h4.2c0.6,0,1.2,0.1,1.7,0.4
				c0.8,0.5,0.6,1.5,0.6,2.2l-0.1,3.2c0,0.5-0.1,1.4-0.7,1.6c-0.7,0.3-1.4,0.2-2.1,0.2C318.5,13.8,316.2,13.7,315.8,13.7z
				 M326.9,20.2c0.5,0.4,0.3,1.3-0.3,1.4c-0.9,0.2-1.8-0.1-2.5-0.4c-0.5-0.2-3-1.6-3.5-1.8c-0.2,0.1-2.6,1.5-2.7,1.5
				c-0.4,0.2-0.9,0.5-1.4,0.6c-0.5,0.2-1,0.3-1.5,0.2c-0.3-0.1-0.7-0.3-0.7-0.6c0-0.2,0-0.3,0-0.4c0.1-0.4,0.5-0.6,0.9-0.8
				c0.4-0.3,0.9-0.5,1.4-0.7c0.5-0.2,0.9-0.5,1.4-0.7c0.1,0,1.2-0.6,1.2-0.7h-3.1c0,0-1.4-0.1-1.5-0.8c-0.1-0.5,0.2-1.1,0.8-1.2h4.1
				c0-0.4,0-0.7,0.3-1.1c0.3-0.5,0.9-0.8,1.4-0.5c0.5,0.3,0.7,0.8,0.7,1.4v0.1h2.7c0.9,0,2,0,2.1,0.9c-0.1,1.1-1.1,1.1-2,1.1h-2.6
				c0.2,0.1,3.2,1.7,3.4,1.7C326.1,19.7,326.5,19.9,326.9,20.2z M316.6,8.5c-0.2,0-0.4,0-0.6,0c-0.2,0-0.3,0.1-0.4,0.2
				c-0.1,0.1-0.1,0.7-0.1,0.7c0,1.3,0,1,0,1c0,0-0.1,0.5,0.2,0.8c0.2,0.3,0.3,0.3,0.8,0.3c1.1,0,1.2,0,1.9,0c0.2,0,0.4,0,0.6,0
				c0.2,0,0.3-0.1,0.3-0.3c0-0.1,0.1-0.3,0.1-0.4l0-1.3c0-0.2,0-0.4,0-0.6c-0.1-0.3-0.4-0.3-0.6-0.3L316.6,8.5z M326.6,13.5
				c0,0-0.1,0.8-0.6,1.1c-0.2,0.1-0.3,0.2-0.5,0.2c-0.2,0-0.4-0.1-0.6-0.2c-0.1-0.1-0.3-0.2-0.3-0.4c-0.4-0.8-0.2-1.9-0.2-2.8
				c0-1.1,0-2.2,0-3.3V7.9c0-0.3,0-0.6,0.1-0.9c0.1-0.2,0.2-0.4,0.3-0.6c0.2-0.3,0.6-0.4,1-0.3c0.4,0.1,0.7,0.3,0.8,0.5
				c0.2,0.3,0.1,1,0.1,1.1V13.5z"/>
		</g>
		<g>
			<path style="fill:#FFFFFF;" d="M287.1,36.9c-0.4-1,0.8-2.1,1.3-2.7c0.4-0.5,0.9-1.1,1.3-1.6c0.3-0.4,0.9-0.9,0.9-1.5
				c0-0.9,0-1.8,1.1-1.8c0.4,0,0.9,0,1,0.4c0.2,0.5,0,1.1,0.2,1.5c0.1,0.4,0.5,0.7,0.7,1.1c0.4,0.8,1.1,1.4,1.6,2.1
				c0.4,0.5,0.8,1.1,1,1.8c0.3,1.1-1.2,1.7-1.9,0.9c-0.9-1-1.7-2.1-2.5-3.1c0,0-2.3,2.5-2.5,2.7c-0.3,0.3-0.6,0.6-1,0.7
				c-0.3,0.1-0.6,0.1-0.9-0.1C287.3,37.2,287.2,37.1,287.1,36.9z M300.7,43.7c0.1,0.5,0,0.8-0.5,1c-0.3,0.1-0.7,0.1-0.9,0.1h-9
				c-0.5,0-1.1,0-1.7,0c-0.7,0-0.9-0.5-1-1.1l-0.1-1.3c0-0.3,0-0.8,0.2-1c0.3-0.4,0.8-0.4,1.4-0.4h0.6c0.1,0,0.2,0,0.3,0h8.4v-0.7
				h-8.6c-0.1,0-0.3,0-0.4,0H289c-0.3,0-0.5,0-0.7,0c-0.2-0.1-0.4-0.1-0.6-0.3c-0.2-0.3-0.2-0.5-0.1-0.8c0.1-0.4,0.7-0.5,1-0.5
				c0.2,0,0.4,0,0.6,0h0.3c0.1,0,0.2,0,0.4,0h8.7c1.3,0,2,0.4,2,1.3v1.4c0,0.3-0.2,0.7-0.6,1c-0.3,0.2-0.7,0.2-1,0.2h-9.2v0.7h9.9
				C300.2,43.1,300.6,43.3,300.7,43.7z M300.7,36.7c0,0-0.1,0.8-0.6,1.1c-0.2,0.1-0.3,0.2-0.5,0.2c-0.2,0-0.4-0.1-0.6-0.2
				c-0.1-0.1-0.3-0.2-0.3-0.4c-0.4-0.8-0.2-1.9-0.2-2.8c0-1.1,0-2.2,0-3.3v-0.3c0-0.3,0-0.6,0.1-0.9c0.1-0.2,0.2-0.4,0.3-0.6
				c0.2-0.3,0.6-0.4,1-0.3c0.4,0.1,0.7,0.3,0.8,0.5c0.2,0.3,0.1,1,0.1,1.1V36.7z"/>
			<path style="fill:#FFFFFF;" d="M310.6,36.9c0.1,0.3,0,0.6-0.2,0.8c-0.2,0.1-0.4,0.2-0.6,0.2c-0.5,0-1-0.3-1.3-0.5
				c-0.4-0.4-0.8-0.8-1.1-1.2c-0.3-0.3-0.7-0.6-0.9-1l-1.9,2.1c-0.4,0.4-0.9,0.6-1.3,0.6c-0.1,0-0.2,0-0.3,0
				c-0.2-0.1-0.4-0.2-0.5-0.3c-0.2-0.3-0.1-0.7,0.1-1c0.2-0.3,0.4-0.6,0.6-0.8c0.7-0.8,1.3-1.6,2-2.4v-1.1c-0.2,0-0.7,0-1.1,0
				c-0.6,0-1.5,0-1.8-0.6c-0.1-0.3-0.2-0.7-0.1-1c0.1-0.4,0.5-0.5,0.8-0.5c0.1,0,0.2,0,0.3,0c0.1,0,0.2,0,0.2,0h1.7
				c0-0.6,0.2-1.2,0.8-1.4c0.9-0.3,1.5,0.4,1.6,1.2c0,0.1,0,0.1,0,0.2h1.3c0.9,0,1.4,0.1,1.8,0.6c0.2,0.3,0.2,1.2-0.2,1.4
				c-0.2,0.1-0.5,0.2-0.7,0.2c-0.3,0-0.5,0-0.8,0c-0.5,0-0.9,0-1.2,0c0,0.7,0,0.2,0,1.1c0.1,0.1,0.4,0.5,0.6,0.7
				c0.2,0.2,0.4,0.4,0.7,0.7c0.2,0.2,0.3,0.3,0.4,0.5C309.9,35.7,310.4,36.3,310.6,36.9z M316.7,43.1c0.1,0.5,0,0.9-0.3,1.1
				c-0.3,0.4-0.8,0.4-0.8,0.4h-10.1c-1,0-1.7-0.3-1.7-0.9V41c0-0.3,0-1,0-1.3c0.1-0.5,0.6-0.9,1.2-0.9c0.1,0,0.3,0,0.5,0.1
				c0.7,0.2,0.7,1.1,0.8,1.6c0,0.2,0,1.7,0,1.9c0.1,0,0.3,0.1,1.3,0.1c0.8,0,1.6,0,1.6,0h6.6C315.8,42.4,316.6,42.5,316.7,43.1z
				 M312.7,35c-0.8,0-1.4,0-1.7-0.5c-0.2-0.3-0.1-0.7-0.1-1c0.1-0.3,0.3-0.5,0.8-0.6c0.2,0,1.8-0.1,2.1-0.1v-2.1
				c0-0.3,0-0.6,0.1-0.9c0.1-0.2,0.1-0.4,0.3-0.6c0.2-0.3,0.7-0.4,1.1-0.3c0.4,0.1,0.7,0.2,0.8,0.5c0.2,0.3,0.2,0.9,0.2,1V38h0
				c0,0-0.1,0.7-0.6,1c-0.2,0.1-0.3,0.2-0.5,0.2c-0.2,0-0.5-0.1-0.7-0.2c-0.1-0.1-0.3-0.2-0.3-0.4c-0.2-0.3-0.2-0.6-0.2-0.9V35
				H312.7z"/>
		</g>
	</g>
	<g>
		<path style="fill:#FFFFFF;" d="M328.2,60.2l-4.7-6.3c0,0-1.6-2.4-6.6-2.7c-2.2-0.1-29.8-1.8-29.8-1.8c-1.1-0.1-0.7-0.2-2.6-0.1
			c-0.6,0.6-1.4,1-1.6,4c-0.2,3-1.6,27-1.6,27c-0.1,1.5-0.1,4.9,1,6.3c1.1,1.4,3.9,5.5,6.4,6.5C291.2,94,327.1,67.6,328.2,60.2"/>
		<g>
			<path style="fill:#A95EA4;" d="M288.9,94.1c-0.2,0-0.4,0-0.5-0.1c-2.5-1-5-4.4-6.4-6.2l-0.5-0.6c-1.4-1.8-1.3-5.8-1.2-7
				c0,0,1.5-23.9,1.6-27c0.2-2.9,0.9-3.8,1.7-4.5l0.2-0.1c0.2-0.2,0.5-0.3,0.7-0.3c1.2,0,1.6,0,2,0.1c0.2,0,0.3,0,0.7,0.1l29.8,1.8
				c5.4,0.3,7.3,3,7.4,3.1l4.7,6.2c0.2,0.2,0.2,0.5,0.2,0.8c-1.1,7.1-27.8,27.1-36.4,32.1C290.7,93.7,289.6,94.1,288.9,94.1z
				 M285,50.4c-0.4,0.4-0.8,0.9-0.9,3c-0.2,3-1.6,27-1.6,27c-0.1,2.1,0.1,4.7,0.8,5.6l0.5,0.6c1.1,1.5,3.4,4.6,5.3,5.4
				c4-0.7,35.9-24.6,38-31.5l-4.4-5.9c-0.1-0.1-1.5-2-5.8-2.2l-29.8-1.8c-0.4,0-0.6-0.1-0.8-0.1C286,50.4,285.8,50.4,285,50.4z"/>
		</g>
		<path style="fill:#FFFFFF;" d="M327.5,92.1c-0.1,2.2-2.1,3.9-4.5,3.8L291.2,94c-2.3-0.1-4.1-2.1-4-4.3l1.7-29.1
			c0.1-2.2,2.1-3.9,4.5-3.8l31.8,1.9c2.3,0.1,4.1,2.1,4,4.3L327.5,92.1z"/>
		<g>
			<path style="fill:#A95EA4;" d="M323.3,97c-0.1,0-0.2,0-0.3,0l-31.8-1.9c-2.9-0.2-5.2-2.6-5-5.4l1.7-29.1c0.1-1.3,0.7-2.5,1.7-3.4
				c1.1-0.9,2.5-1.4,3.9-1.3l31.8,1.9c1.5,0.1,2.8,0.7,3.7,1.8c0.9,1,1.3,2.3,1.3,3.6l-1.7,29.1c-0.1,1.4-0.7,2.6-1.8,3.5
				C325.8,96.5,324.5,97,323.3,97z M293.2,57.9c-0.8,0-1.6,0.3-2.1,0.8c-0.6,0.5-0.9,1.2-1,2l-1.7,29.1c-0.1,1.6,1.2,3,3,3.1
				l31.8,1.9c0.9,0.1,1.7-0.2,2.3-0.7c0.6-0.5,1-1.2,1-2l0,0l1.7-29.1c0-0.8-0.2-1.5-0.7-2.1c-0.6-0.6-1.4-1-2.3-1.1l-31.8-1.9
				C293.3,57.9,293.2,57.9,293.2,57.9z"/>
		</g>
		<g>
			<path style="fill:#A95EA4;" d="M290.1,58.3c-0.3,0-0.6-0.1-0.8-0.4l-6.3-7.6c-0.4-0.5-0.3-1.1,0.1-1.5c0.5-0.4,1.1-0.3,1.5,0.1
				l6.3,7.6c0.4,0.5,0.3,1.1-0.1,1.5C290.6,58.3,290.3,58.3,290.1,58.3z"/>
		</g>
		<path style="fill:#A95EA4;" d="M307.7,86.4l-1.7-0.1c-0.7-0.1-1.3-0.5-1.4-1.2l0-0.1c-0.1-0.2-0.2-0.4-0.5-0.4l-8.3-0.7
			c-0.6,0-1-0.6-1-1.1l1.2-15.4c0-0.3,0.3-0.5,0.6-0.5l0.5,0c0.3,0,0.5,0.3,0.5,0.6c0,0.3-0.3,0.5-0.6,0.5l-1.2,14.9l8.3,0.7
			c0.7,0.1,1.3,0.5,1.4,1.2l0,0.1c0.1,0.2,0.2,0.4,0.5,0.4l1.7,0.1c0.2,0,0.4-0.1,0.5-0.3l0.1-0.1c0.3-0.6,0.9-1,1.6-1l8.3,0.7
			l0.7-8.5c0-0.3,0.3-0.5,0.6-0.5c0.3,0,0.5,0.3,0.5,0.6l-0.7,8.5c0,0.6-0.6,1-1.1,1l-8.3-0.7c-0.2,0-0.4,0.1-0.5,0.3l-0.1,0.1
			C309,86.1,308.3,86.5,307.7,86.4"/>
		<path style="fill:#A95EA4;" d="M312.2,76.3l-0.7,1.6l1.7-0.4l6.9-5.9c0.2-0.2,0.2-0.5,0.1-0.7l-0.4-0.5c-0.2-0.2-0.5-0.2-0.7-0.1
			L312.2,76.3z M310.6,79.2l-0.4-0.2l-0.1-0.5l1.1-2.7l0.1-0.2l7-6c0.6-0.5,1.7-0.5,2.2,0.2l0.4,0.5c0.6,0.7,0.5,1.7-0.2,2.2l-7,6
			l-0.2,0.1l-2.8,0.6L310.6,79.2z"/>
		<path style="fill:#A95EA4;" d="M319.8,73.1l-0.4-0.2l-1.7-2c-0.2-0.2-0.2-0.6,0.1-0.8c0.2-0.2,0.6-0.2,0.8,0.1l1.7,2
			c0.2,0.2,0.2,0.6-0.1,0.8L319.8,73.1z"/>
		<path style="fill:#A95EA4;" d="M307,84.2l-0.4-0.2l-0.9-1c-0.3-0.3-0.7-0.5-1.1-0.6l-6.6-0.5c-0.6,0-1-0.6-1-1.1l1.1-14.4
			c0-0.6,0.6-1,1.1-1l6.6,0.5c0.7,0.1,1.4,0.4,1.8,0.9l0.6,0.6L309,67c0.5-0.5,1.2-0.7,1.9-0.6l6.6,0.5c0.6,0,1,0.6,1,1.1
			c0,0.3-0.3,0.5-0.6,0.5c-0.3,0-0.5-0.3-0.5-0.6l-6.6-0.5c-0.4,0-0.8,0.1-1.2,0.4l-1,0.9c-0.2,0.2-0.6,0.2-0.8-0.1l-0.9-1
			c-0.3-0.3-0.7-0.5-1.1-0.6l-6.6-0.5l-1.1,14.4l6.6,0.5c0.7,0.1,1.4,0.4,1.8,0.9l0.6,0.6l0.6-0.6c0.5-0.5,1.2-0.7,1.9-0.6l6.6,0.5
			l0.3-4.3c0-0.3,0.3-0.5,0.6-0.5c0.3,0,0.5,0.3,0.5,0.6l-0.3,4.3c0,0.6-0.6,1-1.1,1l-6.6-0.5c-0.4,0-0.8,0.1-1.2,0.4l-1,0.9
			L307,84.2z"/>
		<path style="fill:#A95EA4;" d="M307.2,81.6c-0.3,0-0.5-0.3-0.5-0.6l1-12.8c0-0.3,0.3-0.5,0.6-0.5c0.3,0,0.5,0.3,0.5,0.6l-1,12.8
			C307.8,81.4,307.5,81.6,307.2,81.6"/>
	</g>
	<g>
		<path style="fill:#FFFFFF;" d="M254.7,57l-5.5-5.6c0,0-1.9-2.1-6.9-1.7c-2.2,0.2-29.7,2.4-29.7,2.4c-1.1,0.1-0.7-0.1-2.6,0.2
			c-0.5,0.7-1.2,1.1-1,4.2c0.2,3,2.1,26.9,2.1,26.9c0.1,1.5,0.6,4.9,1.9,6.1c1.2,1.2,4.6,4.9,7.2,5.5
			C222.8,95.6,254.6,64.5,254.7,57"/>
		<g>
			<path style="fill:#A95EA4;" d="M220.3,96.1c-0.1,0-0.2,0-0.3,0c-2.6-0.6-5.6-3.6-7.2-5.3l-0.6-0.6c-1.6-1.6-2.1-5.6-2.2-6.8
				c0,0-1.9-23.9-2.1-26.9c-0.2-2.9,0.4-3.9,1.1-4.7l0.1-0.2c0.2-0.2,0.4-0.4,0.7-0.4c1.2-0.2,1.6-0.2,2-0.2c0.2,0,0.3,0,0.7,0
				l29.7-2.4c5.4-0.4,7.7,2,7.8,2.1l5.5,5.5c0.2,0.2,0.3,0.5,0.3,0.8c-0.1,7.2-23.7,30.7-31.5,36.8C222,95.6,221,96.1,220.3,96.1z
				 M220.2,93.9L220.2,93.9L220.2,93.9z M210.6,53.3c-0.3,0.4-0.7,1-0.5,3.1c0.2,3,2.1,26.9,2.1,26.9c0.2,2.1,0.8,4.7,1.5,5.4
				l0.6,0.6c1.3,1.3,4,4.1,6,4.6c3.8-1.2,32.1-29.4,33.3-36.5l-5.2-5.2c-0.1-0.1-1.8-1.8-6-1.4l-29.7,2.4
				C211.7,53.2,211.9,53.1,210.6,53.3z"/>
		</g>
		<path style="fill:#FFFFFF;" d="M258.4,88.7c0.2,2.2-1.6,4.2-3.9,4.4l-31.7,2.5c-2.3,0.2-4.4-1.5-4.5-3.7l-2.3-29
			c-0.2-2.2,1.6-4.2,3.9-4.4l31.7-2.5c2.3-0.2,4.4,1.5,4.5,3.7L258.4,88.7z"/>
		<g>
			<path style="fill:#A95EA4;" d="M222.5,96.7c-2.7,0-5-2-5.3-4.7l-2.3-29c-0.1-1.4,0.3-2.7,1.3-3.7c0.9-1,2.2-1.7,3.6-1.8l31.7-2.5
				c1.4-0.1,2.8,0.3,3.8,1.2c1.1,0.9,1.8,2.1,1.9,3.5l2.3,29l0,0c0.1,1.4-0.3,2.7-1.3,3.7c-0.9,1-2.2,1.7-3.6,1.8l-31.7,2.5
				C222.7,96.7,222.6,96.7,222.5,96.7z M251.9,57c-0.1,0-0.2,0-0.3,0l-31.7,2.5c-0.9,0.1-1.6,0.4-2.2,1.1c-0.5,0.6-0.8,1.4-0.7,2.1
				l2.3,29c0.1,1.6,1.6,2.8,3.4,2.7l31.7-2.5c0.9-0.1,1.6-0.4,2.2-1.1c0.5-0.6,0.8-1.4,0.7-2.1l-2.3-29c-0.1-0.8-0.4-1.5-1.1-2
				C253.4,57.3,252.7,57,251.9,57z"/>
		</g>
		<g>
			<path style="fill:#A95EA4;" d="M216.6,60.4c-0.3,0-0.5-0.1-0.7-0.3l-7.3-6.7c-0.4-0.4-0.5-1.1-0.1-1.5c0.4-0.4,1.1-0.5,1.5-0.1
				l7.3,6.7c0.4,0.4,0.5,1.1,0.1,1.5C217.2,60.3,216.9,60.4,216.6,60.4z"/>
		</g>
		<path style="fill:#A95EA4;" d="M240.5,83.6c-9.1,0.8-13.7-5.1-14.2-11.3c-0.4-4.2,2.8-8,7.1-8.3c4.2-0.4,8,2.8,8.5,7
			c0,0.3-0.2,0.6-0.5,0.6h0c-0.3,0-0.6-0.2-0.6-0.5c-0.4-3.6-3.6-6.3-7.3-6c-3.7,0.3-6.4,3.5-6.1,7.1c0.5,5.2,4.1,11.1,13,10.3
			c7.7-0.7,10.9-7.6,10.9-7.7c0.1-0.3,0.5-0.4,0.7-0.3c0.3,0.1,0.4,0.5,0.3,0.7C252.2,75.6,248.9,82.9,240.5,83.6"/>
		<path style="fill:#A95EA4;" d="M232.8,69.5l-1.4,0.1c-0.3,0-0.6-0.2-0.6-0.5c0-0.3,0.2-0.6,0.5-0.6l1.4-0.1c0.3,0,0.6,0.2,0.6,0.5
			C233.4,69.2,233.1,69.5,232.8,69.5"/>
		<path style="fill:#A95EA4;" d="M226.8,71.9l-4.1,0.4c-0.3,0-0.6-0.2-0.6-0.5c0-0.3,0.2-0.6,0.5-0.6l4.1-0.4c0.3,0,0.6,0.2,0.6,0.5
			C227.3,71.6,227.1,71.9,226.8,71.9"/>
		<path style="fill:#A95EA4;" d="M242.9,77.5c-3.8,0.3-7.3-2.1-8.2-5.9l0.1-0.5l0.4-0.2L246,70c0.3,0,0.6,0.2,0.6,0.5
			c0,0.3-0.2,0.6-0.5,0.6L235.9,72c1,2.8,3.8,4.7,6.8,4.4c3.3-0.3,5.8-2.9,6-6.2c0-0.3,0.3-0.5,0.6-0.5c0.3,0,0.5,0.3,0.5,0.6
			C249.7,74.2,246.7,77.2,242.9,77.5"/>
		<path style="fill:#A95EA4;" d="M236.1,88.8l-2.9,0.3c-0.3,0-0.6-0.2-0.6-0.5c0-0.3,0.2-0.6,0.5-0.6l2.3-0.2l-0.4-4.7
			c0-0.3,0.2-0.6,0.5-0.6c0.3,0,0.6,0.2,0.6,0.5l0.5,5.3C236.6,88.5,236.4,88.8,236.1,88.8"/>
		<path style="fill:#A95EA4;" d="M241.8,88.3l-2.9,0.3c-0.3,0-0.6-0.2-0.6-0.5c0-0.3,0.2-0.6,0.5-0.6l2.3-0.2l-0.4-4.2
			c0-0.3,0.2-0.6,0.5-0.6c0.3,0,0.6,0.2,0.6,0.5l0.4,4.7C242.4,88,242.1,88.3,241.8,88.3"/>
	</g>
	<g>
		<g>
			<path style="fill:#FFFFFF;" d="M225.4,17.6c0.3,0.3,0.4,0.5,0.4,0.8c0,0.2-0.1,0.4-0.2,0.6c-0.1,0.2-0.3,0.3-0.4,0.3
				c-0.1,0-0.3,0.1-0.4,0.1c-0.2,0-0.3,0-0.4,0h-1.8c-0.4,0-0.9,0-1.4,0h-1.4c-0.5,0-0.8,0-1.2,0h-2c-0.3,0-0.5,0-0.7-0.1
				c-0.1,0-0.3-0.1-0.4-0.1c-0.1,0-0.2-0.1-0.3-0.2c-0.2-0.2-0.3-0.4-0.3-0.7c0-0.3,0.1-0.5,0.3-0.7c0.1-0.1,0.2-0.2,0.4-0.2
				c0.2-0.1,0.3-0.1,0.4-0.1c0.2,0,0.3,0,0.4,0h7.3c0.3,0,0.5,0,0.7,0c0.2,0,0.4,0,0.6,0.1C225.1,17.4,225.3,17.5,225.4,17.6z
				 M215.6,12.7c-0.3-0.7-0.3-1.3-0.3-1.9c0-0.7,0.1-1.2,0.3-1.8c0.3-0.5,0.5-1,0.9-1.4c0.4-0.4,0.9-0.7,1.4-0.9
				c0.5-0.3,1.1-0.4,1.8-0.4c0.3,0,0.4,0,0.7,0c0.2,0,0.5,0,0.7,0.1c0.1,0,0.2,0,0.3,0.1c0.1,0,0.3,0.1,0.3,0.1
				c0.3,0.1,0.5,0.2,0.8,0.3c0.3,0.1,0.5,0.2,0.7,0.3c0.2,0.1,0.4,0.3,0.5,0.4c0.3,0.3,0.4,0.4,0.6,0.7c0.2,0.3,0.3,0.5,0.3,0.9
				c0.1,0.3,0.1,0.6,0.2,0.9c0,0.3,0.1,0.6,0,0.9c0,0.2,0,0.4,0,0.5c-0.1,0.2-0.1,0.4-0.1,0.6c-0.1,0.5-0.3,1-0.5,1.4
				c-0.3,0.4-0.6,0.8-1.1,1.1c-0.3,0.2-0.7,0.4-1,0.4c-0.3,0.1-0.7,0.2-1,0.2c-0.1,0-0.3,0-0.4,0c-0.1,0-0.2,0-0.3,0h-0.3
				c-0.1,0-0.2,0-0.3,0c-0.2,0-0.3,0-0.5,0c-0.2,0-0.4,0-0.5,0c-0.4-0.1-0.7-0.2-1-0.3c-0.3-0.2-0.7-0.3-0.9-0.6
				C216.2,13.9,215.9,13.3,215.6,12.7z M217.9,11.2c0.1,0.3,0.1,0.5,0.3,0.8c0.3,0.4,0.7,0.7,1.1,0.9c0.4,0.1,0.7,0.2,1.1,0.2
				c0.2,0,0.4,0,0.6-0.1c0.2,0,0.3-0.1,0.5-0.2c0.3-0.1,0.5-0.3,0.6-0.6c0.2-0.3,0.2-0.5,0.3-0.8c0.1-0.4,0.1-0.8-0.1-1.2
				c-0.1-0.2-0.2-0.3-0.2-0.5c-0.1-0.1-0.1-0.2-0.2-0.2c0-0.1-0.1-0.2-0.2-0.3c-0.1-0.1-0.2-0.1-0.3-0.2c-0.1-0.1-0.2-0.1-0.3-0.2
				c-0.3-0.1-0.7-0.1-1-0.1c-0.3,0-0.7,0-0.9,0.2c-0.3,0.1-0.5,0.3-0.8,0.6c-0.2,0.3-0.3,0.6-0.4,1
				C217.8,10.7,217.8,10.9,217.9,11.2z M229.2,9.7c0,0.5,0,1.1,0,1.6v3.1c0,0.6,0,1.1,0,1.6v2.2c0,0.4,0,0.8,0,1.2
				c0,0.3,0,0.5,0,0.7c0,0.2,0,0.4-0.1,0.5c0,0.1-0.1,0.2-0.2,0.3c-0.1,0.1-0.2,0.2-0.4,0.3c-0.2,0.2-0.6,0.2-0.9,0.2
				c-0.2-0.1-0.4-0.1-0.5-0.3c-0.1-0.1-0.2-0.2-0.3-0.4s-0.1-0.3-0.1-0.5c0-0.1-0.1-0.3-0.1-0.3v-0.2l0-11.5c0-0.3,0-0.7,0.1-1.1
				c0-0.4,0.2-0.7,0.3-0.9c0.2-0.1,0.3-0.2,0.4-0.3c0.2,0,0.3,0,0.5,0s0.4,0,0.6,0.2c0.2,0.1,0.3,0.3,0.4,0.5
				c0.1,0.3,0.2,0.6,0.2,0.9c0,0.3,0,0.6,0,0.9V9.7z"/>
			<path style="fill:#FFFFFF;" d="M239.5,18.9c0.1,0.3,0.1,0.6,0,1c-0.2,0.4-0.5,0.6-0.9,0.6h0c-0.5,0-0.8-0.4-1.2-0.8
				c-0.4-0.4-0.7-0.9-1-1.2c0-0.1-0.1-0.1-0.1-0.2c-0.6-1-0.9-1.3-1-1.3c-0.1,0-0.3,0.3-0.4,0.4c-0.1,0.1-0.1,0.1-0.2,0.2
				c-0.2,0.3-0.3,0.5-0.5,0.8s-0.4,0.5-0.7,0.8c-0.1,0.1-0.1,0.1-0.2,0.2c-0.4,0.4-0.8,0.9-1.4,1.1c-0.1,0.1-0.3,0.1-0.4,0.1
				c-0.3,0-0.6-0.1-0.8-0.3c-0.2-0.2-0.3-0.5-0.3-0.8c0-0.5,0.3-0.9,0.5-1.2l0-0.1c0.1-0.1,0.2-0.2,0.2-0.3c0-0.1,0.1-0.1,0.1-0.2
				c0.1-0.2,0.3-0.4,0.4-0.6c0,0,0.1-0.1,0.1-0.1c0,0,0-0.1,0.1-0.1l0-0.1c0.1-0.1,0.2-0.3,0.3-0.4c0.2-0.3,0.3-0.5,0.4-0.8
				c0.2-0.3,0.3-0.6,0.5-0.8c0.1-0.2,0.3-0.4,0.4-0.6l0.1-0.1c0.2-0.3,0.3-0.5,0.3-0.8c0-0.4,0-0.8,0-1.3V8.5c0-0.3,0-0.5,0-0.7
				c0-0.3,0.1-0.6,0.1-0.8c0.1-0.2,0.2-0.3,0.3-0.5c0.1-0.2,0.4-0.3,0.7-0.3l0,0c0.2-0.1,0.5,0,0.7,0c0.1,0,0.2,0.1,0.3,0.2
				c0.1,0.1,0.2,0.3,0.3,0.5c0.1,0.3,0.2,0.6,0.2,0.9c0.1,1.1,0.1,2.7,0.1,3.8c0,0.7,0,1.3,0.1,2c0,0.6,0.3,1,0.6,1.5
				c0.3,0.6,0.5,1.1,0.9,1.7c0.1,0.3,0.3,0.5,0.4,0.8c0.1,0.1,0.1,0.2,0.2,0.3c0.1,0.1,0.1,0.3,0.2,0.4l0.1,0.2l0.1,0.1
				C239.4,18.5,239.5,18.7,239.5,18.9z M244.5,11.9c0.1,0,0.2,0,0.4,0c0.1,0,0.3,0,0.4,0.1c0.3,0.1,0.6,0.2,0.7,0.5
				c0.1,0.2,0.1,0.3,0.1,0.5c0,0.2,0,0.4-0.1,0.6c0,0.2-0.1,0.5-0.3,0.6c-0.2,0.1-0.3,0.2-0.5,0.3c-0.4,0.1-1.1,0-1.5,0
				c0,0-0.1,0-0.1,0s0,0,0,0.1c0,0.6,0,1.8,0,2.4c0,0.7,0,1.3,0,2v0.3c0,0.7,0,1.7-0.5,2.1c-0.2,0.2-0.4,0.3-0.6,0.3c0,0,0,0,0,0
				c-1.3,0-1.4-1.5-1.4-2.4V7.7c0,0,0-1,0.4-1.4c0.2-0.2,0.6-0.3,0.9-0.3c0.3,0,0.5,0.1,0.7,0.3c0.3,0.4,0.4,0.8,0.4,1.2
				c0,0.1,0,0.2,0,0.2c0.1,0.4,0.1,0.9,0.1,1.4c0,0.3,0,0.5,0,0.8c0,0.2,0,0.3,0,0.4v1.1c0,0.1,0,0.3,0,0.4c0,0,0.4,0,0.4,0
				C244.3,11.9,244.4,11.9,244.5,11.9L244.5,11.9z"/>
		</g>
		<g>
			<path style="fill:#FFFFFF;" d="M228.3,41.2c0.4,0,0.8,0.1,1.2,0.4c0.2,0.2,0.3,0.4,0.3,0.7c0,0.3-0.1,0.7-0.3,0.8
				c-0.4,0.4-1.4,0.4-1.4,0.4h-10.8c-0.1,0-0.3,0-0.4,0c-0.5,0-1.2,0.1-1.7-0.3c-0.3-0.2-0.4-0.5-0.4-0.8c0-0.4,0.3-0.9,0.6-1
				c0.5-0.2,1.1-0.2,1.6-0.2h0.1c1.2,0,2.6,0,3.8,0l0-2.4c0,0,0-0.7,0.5-1c0.7-0.5,1.9,0,1.9,0.9l0,2.5c1.2,0,2.1,0,3.3,0
				c0.5,0,0.9,0,1.3,0C228.2,41.2,228.2,41.2,228.3,41.2z M219.2,37.7c-0.5,0.4-1.1,1-1.7,1.2c-0.5,0.1-1.1,0-1.4-0.4
				c-0.4-0.6,0.1-1.2,0.4-1.6c0.8-0.9,1.5-1.7,2.4-2.5c0.6-0.5,2.1-2,2.1-2s-0.2-2.1,0.4-2.6c0.3-0.3,1.1-0.4,1.5-0.3
				c0.6,0.2,0.9,0.6,0.9,1.2c0,0.5-0.1,1.4,0.2,1.8c0.9,1.2,2.6,2.7,3.8,4.1c0.6,0.7,1.3,1.8,0.2,2.3c-0.8,0.4-1.5-0.2-2.1-0.7
				l-3.5-3.2L219.2,37.7z"/>
			<path style="fill:#FFFFFF;" d="M244.3,37.3c0.2,0.1,0.3,0.4,0.3,0.6c0,0.3-0.1,0.6-0.3,0.8c-0.4,0.4-1.4,0.3-1.5,0.3l-10.3,0
				c-0.6,0-1.3,0.1-1.7-0.3c-0.3-0.2-0.4-0.5-0.4-0.8c0-0.3,0.3-0.8,0.7-0.9c0.5-0.2,1.1-0.1,1.7-0.1c1.3,0,1.7,0,3,0v-1h-1.2h-0.3
				c-0.8,0-1.9,0-2.4-0.5c-0.5-0.4-0.4-1.6-0.4-1.7v-3.5c0-0.1,0-0.7,0.2-0.9c0.2-0.3,0.4-0.4,0.8-0.4c0.2,0,0.7,0,0.7,0h8.6
				c0.2,0,0.4,0,0.7,0.1c0.2,0,0.4,0.1,0.6,0.3c0.2,0.1,0.2,0.3,0.3,0.4c0,0.2,0.1,0.3,0,0.4c-0.1,0.4-0.4,0.7-1,0.7h-8.3v0.8
				c0.8,0,5,0,5,0h1.8c0.1,0,0.2,0,0.4,0h0.5c0.3,0,0.6,0,0.8,0.2c0.4,0.2,0.4,0.5,0.4,0.8c0,0.2,0,0.3-0.1,0.4
				c-0.3,0.3-0.6,0.3-0.9,0.3h-7.9l0,0.5c0,0.3,0,0.1,0.1,0.1c0.2,0.1,0.6,0.1,1,0.1h0.1c0.4,0,4.4,0,4.8,0h0.9c0.1,0,0.2,0,0.3,0
				h0.3c0.4,0,0.8,0,1.2,0.1c0.1,0,0.1,0,0.2,0.1c0.6,0.4,0.6,1.2-0.1,1.5c-0.5,0.2-1.2,0.3-1.7,0.3h-0.8c-0.2,0-1,0-1.7,0
				c0,0.3,0,0.7,0,0.9c1.4,0,3.4-0.1,4.5,0C243.4,36.9,243.9,37,244.3,37.3z M237.3,39.6c3.5,0,6.3,0.1,6.3,2.5
				c0,2.4-2.8,2.5-6.3,2.5c-3.5,0-6.3-0.1-6.3-2.5C231,39.9,233.8,39.6,237.3,39.6z M237.3,41.3c-1.8,0-3.7,0-3.7,0.8
				c0,0.7,1.9,0.8,3.7,0.8c1.8,0,3.8,0.2,3.8-0.8C241.1,41.3,239.1,41.3,237.3,41.3z"/>
		</g>
	</g>
</g>
</svg>
