
<svg xmlns="http://www.w3.org/2000/svg" version="1.1" xmlns:xlink="http://www.w3.org/1999/xlink" preserveAspectRatio="none" x="0px" y="0px" width="1280px" height="430px" viewBox="0 0 1280 430">
<defs>
<g id="Layer0_0_FILL">
<path fill="#E2F3F2" stroke="none" d="
M 320 355
L 320 310.95 320 285 192 285 192 355 320 355
M 265.35 309.65
Q 265.25 310.2 264.7 309.95 263.65 309.55 262.5 309.45 261.3 309.35 259.9 309.35 257.85 309.35 256.35 310 254.9 310.7 253.9 311.95 252.9 313.2 252.35 314.85 251.75 316.55 251.5 318.5 251.85 318 252.45 317.55 253.05 317.1 253.8 316.75 254.55 316.4 255.35 316.2 256.15 315.95 256.9 315.95 259.1 315.95 260.85 316.65 262.65 317.35 263.9 318.65 265.2 319.95 265.9 321.8 266.6 323.6 266.6 325.9 266.6 328.1 265.9 329.95 265.25 331.9 263.95 333.25 262.65 334.7 260.8 335.5 258.95 336.3 256.65 336.3 251.95 336.3 249.4 332.75 246.85 329.2 246.85 321.75 246.85 318.35 247.55 315.35 248.25 312.3 249.8 310.1 251.4 307.85 253.95 306.5 256.5 305.2 260.25 305.2 261.4 305.2 262.8 305.4 264.25 305.6 265.15 305.95 265.5 306.05 265.45 306.45
L 265.35 309.65
M 257.05 320.15
Q 254.45 320.15 253 321.7 251.5 323.25 251.5 325.7 251.5 327.1 251.9 328.25 252.3 329.5 253 330.4 253.7 331.3 254.65 331.8 255.65 332.3 256.75 332.3 259.15 332.3 260.7 330.65 262.2 328.95 262.2 326.1 262.2 323.3 260.85 321.75 259.5 320.15 257.05 320.15
M 320 380.95
L 320 355 192 355 192 425 320 425 320 380.95
M 260.4 379.7
L 247.65 379.7
Q 247.35 379.7 247.15 379.5 246.95 379.35 246.95 379
L 246.95 376.2
Q 246.95 375.55 247.65 375.55
L 264.65 375.55
Q 265.35 375.55 265.5 375.7 265.65 375.85 265.65 376.3
L 265.65 378.7
Q 265.65 379.05 265.4 379.35
L 254.85 405.4
Q 254.65 405.7 254.5 405.85 254.35 405.95 253.95 405.95
L 250.7 405.95
Q 250.1 405.95 249.95 405.8 249.8 405.7 249.95 405.25
L 260.4 379.7
M 320 240.95
L 320 215 192 215 192 285 320 285 320 240.95
M 256.4 246.75
Q 258.4 246.75 260.15 247.35 261.9 248 263.2 249.15 264.5 250.35 265.25 252.05 266 253.7 266 255.8 266 260.85 262.85 263.65 261.45 264.95 259.35 265.6 257.3 266.25 255 266.25 254.6 266.25 253.75 266.2 252.95 266.1 252 266 251.05 265.85 250.15 265.6 249.2 265.4 248.55 265.1 248.3 264.9 248.25 264.8 248.25 264.65 248.25 264.35
L 248.25 261.1
Q 248.25 260.4 249.1 260.8 249.65 261.1 250.45 261.35 251.25 261.55 252.1 261.75 252.95 261.9 253.75 261.95 254.6 262.05 255.3 262.05 258 262.05 259.7 260.5 261.5 259 261.5 256.3 261.5 253.7 260.05 252.2 258.65 250.65 255.35 250.65 254.05 250.65 252.65 250.95 251.25 251.2 250 251.65 248.45 252.3 248.45 250.95
L 248.65 236.2
Q 248.65 235.75 248.8 235.65 248.9 235.5 249.5 235.5
L 264.15 235.5
Q 264.4 235.5 264.55 235.7 264.65 235.85 264.65 236.05
L 264.65 239.1
Q 264.65 239.35 264.55 239.5 264.4 239.7 264.15 239.7
L 253 239.7 252.85 247.1
Q 254.45 246.75 256.4 246.75
M 320 145
L 192 145 192 215 320 215 320 145
M 263.1 165.7
Q 263.15 165.8 263.15 166.15
L 263.15 185.05 266.85 185.05
Q 267.2 185.05 267.35 185.15 267.5 185.25 267.5 185.65
L 267.5 188.55
Q 267.5 188.95 267.35 189.05 267.2 189.15 266.85 189.15
L 263.15 189.15 263.15 195.25
Q 263.15 195.7 263 195.8 262.9 195.95 262.5 195.95
L 259.6 195.95
Q 259.15 195.95 259 195.8 258.85 195.65 258.85 195.25
L 258.85 189.15 246.05 189.15
Q 245.7 189.15 245.55 189.05 245.4 189 245.4 188.7
L 245.4 185.7
Q 245.4 185.45 245.6 185.15 245.75 184.85 245.9 184.7
L 258.3 166.1
Q 258.5 165.75 258.6 165.65 258.7 165.55 259.1 165.55
L 262.75 165.55
Q 263.05 165.55 263.1 165.7
M 250.25 185.05
L 258.85 185.05 258.85 172 250.25 185.05
M 192 75
L 192 145 320 145 320 75 192 75
M 259.05 95.65
Q 260.8 96.1 262.1 97 263.45 97.9 264.3 99.4 265.15 100.9 265.15 102.9 265.15 104 264.8 105.1 264.4 106.15 263.7 107.1 263 108.1 262.05 108.85 261.1 109.6 260 110.1 262.65 111.25 264 113 265.35 114.8 265.35 117 265.35 119.1 264.55 120.9 263.7 122.65 262.2 123.9 260.7 125.15 258.55 125.7 256.4 126.3 254.1 126.3 252.35 126.3 250.6 126 248.85 125.7 247.4 125.15 247 125.05 246.85 124.85 246.65 124.7 246.7 124.35
L 247.05 121.3
Q 247.1 120.95 247.3 120.85 247.5 120.7 248.05 120.95 249.1 121.25 250.15 121.55 251.2 121.85 252.3 121.95 253.1 122 254 122.05 254.9 122.1 255.75 122 256.6 121.9 257.4 121.6 258.15 121.35 258.8 120.9 260.75 119.55 260.75 116.9 260.75 115.95 260.35 115.1 259.9 114.25 259.05 113.6 258.15 112.9 256.75 112.55 255.4 112.15 253.45 112.15
L 251.5 112.15
Q 251.15 112.15 251.05 112.05 250.95 111.95 250.95 111.65
L 250.95 108.7
Q 250.95 108.3 251.05 108.25 251.15 108.15 251.5 108.15
L 253.4 108.15
Q 254.25 108.15 255.5 107.9 256.75 107.65 257.9 107.05 259.1 106.45 259.9 105.5 260.7 104.6 260.7 103.25 260.7 102.25 260.2 101.5 259.65 100.7 258.85 100.25 258 99.75 257.05 99.55 256.1 99.35 255.25 99.35 254.7 99.35 254 99.45 253.25 99.55 252.45 99.75 251.65 99.9 250.85 100.15 250.05 100.4 249.45 100.65 248.95 100.85 248.75 100.75 248.55 100.65 248.45 100.3
L 248.1 97.35
Q 248 97.1 248.15 96.95 248.3 96.75 248.7 96.55 250.45 95.95 252.15 95.55 253.8 95.2 255.5 95.2 257.3 95.2 259.05 95.65
M 320 75
L 320 5 192 5 192 75 320 75
M 254.35 33.85
Q 253.55 33 253.55 31.75 253.55 30.5 254.35 29.7 255.15 28.85 256.45 28.85 257.7 28.85 258.55 29.7 259.4 30.5 259.4 31.75 259.4 33 258.55 33.85 257.7 34.65 256.45 34.65 255.2 34.65 254.35 33.85
M 245.6 41.75
Q 245 41.75 245 41.25
L 245 38.7
Q 245 38.15 245.6 38.15
L 267.45 38.15
Q 267.95 38.15 267.95 38.7
L 267.95 41.25
Q 267.95 41.75 267.45 41.75
L 245.6 41.75
M 256.45 45.3
Q 257.7 45.3 258.55 46.1 259.4 46.9 259.4 48.15 259.4 49.45 258.55 50.25 257.7 51.1 256.45 51.1 255.2 51.1 254.35 50.25 253.55 49.45 253.55 48.15 253.55 46.9 254.35 46.1 255.15 45.3 256.45 45.3
M 448 75
L 448 5 352 5 320 5 320 75 352 75 448 75
M 371.9 23.85
Q 373.85 23.85 375.45 24.4 377.1 24.95 378.25 26 379.4 27.05 380.1 28.65 380.8 30.25 380.8 32.35 380.8 34.15 380 36 379.2 37.85 378 39.65 376.8 41.4 375.45 43.05 374.05 44.65 372.95 45.95 372.1 47.05 371.1 48.25 370.1 49.4 369.1 50.55
L 380.85 50.55
Q 381.4 50.55 381.4 51.15
L 381.4 53.95
Q 381.4 54.65 380.85 54.65
L 363.8 54.65
Q 363.05 54.65 363.05 54.15
L 363.05 51.85
Q 363.05 51.55 363.2 51.2 363.4 50.9 363.6 50.6
L 369.7 43.35
Q 373.05 39.4 374.65 36.75 376.25 34.15 376.25 32.45 376.25 30.55 375.05 29.3 373.9 28.05 372.15 28.05 370.5 28.05 368.95 28.5 367.45 28.95 365.65 30 365.3 30.2 365 30.2 364.7 30.15 364.6 29.8
L 364.05 26.75
Q 363.95 26.55 364.05 26.4 364.2 26.15 364.6 25.95 366.1 25.15 368.05 24.5 370.05 23.85 371.9 23.85
M 395.75 24.3
Q 395.95 24.2 396.1 24.2
L 398.2 24.2
Q 398.9 24.2 399 24.35 399.15 24.5 399.15 25.3
L 399.15 54.1
Q 399.15 54.6 398.65 54.6
L 395.45 54.6
Q 394.9 54.6 394.9 54.1
L 394.9 30.4 391.95 33
Q 391.7 33.15 391.45 33.15 391.2 33.2 391.05 33.05
L 389.25 30.9
Q 389.1 30.75 389.15 30.5 389.15 30.3 389.35 30.1
L 395.5 24.45
Q 395.55 24.35 395.75 24.3
M 576 75
L 576 5 540.15 5 512 5 448 5 448 75 512 75 540.15 75 576 75
M 526.7 24.4
Q 528.35 24.95 529.5 26 530.65 27.05 531.35 28.65 532.05 30.25 532.05 32.35 532.05 34.15 531.25 36 530.45 37.85 529.25 39.65 528.05 41.4 526.7 43.05 525.3 44.65 524.2 45.95 523.35 47.05 522.35 48.25 521.35 49.4 520.35 50.55
L 532.1 50.55
Q 532.65 50.55 532.65 51.15
L 532.65 53.95
Q 532.65 54.65 532.1 54.65
L 515.05 54.65
Q 514.3 54.65 514.3 54.15
L 514.3 51.85
Q 514.3 51.55 514.45 51.2 514.65 50.9 514.85 50.6
L 520.95 43.35
Q 524.3 39.4 525.9 36.75 527.5 34.15 527.5 32.45 527.5 30.55 526.3 29.3 525.15 28.05 523.4 28.05 521.75 28.05 520.2 28.5 518.7 28.95 516.9 30 516.55 30.2 516.25 30.2 515.95 30.15 515.85 29.8
L 515.3 26.75
Q 515.2 26.55 515.3 26.4 515.45 26.15 515.85 25.95 517.35 25.15 519.3 24.5 521.3 23.85 523.15 23.85 525.1 23.85 526.7 24.4
M 499.9 23.85
Q 501.85 23.85 503.45 24.4 505.1 24.95 506.25 26 507.4 27.05 508.1 28.65 508.8 30.25 508.8 32.35 508.8 34.15 508 36 507.2 37.85 506 39.65 504.8 41.4 503.45 43.05 502.05 44.65 500.95 45.95 500.1 47.05 499.1 48.25 498.1 49.4 497.1 50.55
L 508.85 50.55
Q 509.4 50.55 509.4 51.15
L 509.4 53.95
Q 509.4 54.65 508.85 54.65
L 491.8 54.65
Q 491.05 54.65 491.05 54.15
L 491.05 51.85
Q 491.05 51.55 491.2 51.2 491.4 50.9 491.6 50.6
L 497.7 43.35
Q 501.05 39.4 502.65 36.75 504.25 34.15 504.25 32.45 504.25 30.55 503.05 29.3 501.9 28.05 500.15 28.05 498.5 28.05 496.95 28.5 495.45 28.95 493.65 30 493.3 30.2 493 30.2 492.7 30.15 492.6 29.8
L 492.05 26.75
Q 491.95 26.55 492.05 26.4 492.2 26.15 492.6 25.95 494.1 25.15 496.05 24.5 498.05 23.85 499.9 23.85
M 704 5
L 696 5 672 5 576 5 576 75 672 75 696 75 704 75 704 5
M 627.9 23.85
Q 629.85 23.85 631.45 24.4 633.1 24.95 634.25 26 635.4 27.05 636.1 28.65 636.8 30.25 636.8 32.35 636.8 34.15 636 36 635.2 37.85 634 39.65 632.8 41.4 631.45 43.05 630.05 44.65 628.95 45.95 628.1 47.05 627.1 48.25 626.1 49.4 625.1 50.55
L 636.85 50.55
Q 637.4 50.55 637.4 51.15
L 637.4 53.95
Q 637.4 54.65 636.85 54.65
L 619.8 54.65
Q 619.05 54.65 619.05 54.15
L 619.05 51.85
Q 619.05 51.55 619.2 51.2 619.4 50.9 619.6 50.6
L 625.7 43.35
Q 629.05 39.4 630.65 36.75 632.25 34.15 632.25 32.45 632.25 30.55 631.05 29.3 629.9 28.05 628.15 28.05 626.5 28.05 624.95 28.5 623.45 28.95 621.65 30 621.3 30.2 621 30.2 620.7 30.15 620.6 29.8
L 620.05 26.75
Q 619.95 26.55 620.05 26.4 620.2 26.15 620.6 25.95 622.1 25.15 624.05 24.5 626.05 23.85 627.9 23.85
M 651.15 23.85
Q 652.95 23.85 654.7 24.3 656.45 24.75 657.75 25.65 659.1 26.55 659.95 28.05 660.8 29.55 660.8 31.55 660.8 32.65 660.45 33.75 660.05 34.8 659.35 35.75 658.65 36.75 657.7 37.5 656.75 38.25 655.65 38.75 658.3 39.9 659.65 41.65 661 43.45 661 45.65 661 47.75 660.2 49.55 659.35 51.3 657.85 52.55 656.35 53.8 654.2 54.35 652.05 54.95 649.75 54.95 648 54.95 646.25 54.65 644.5 54.35 643.05 53.8 642.65 53.7 642.5 53.5 642.3 53.35 642.35 53
L 642.7 49.95
Q 642.75 49.6 642.95 49.5 643.15 49.35 643.7 49.6 644.75 49.9 645.8 50.2 646.85 50.5 647.95 50.6 648.75 50.65 649.65 50.7 650.55 50.75 651.4 50.65 652.25 50.55 653.05 50.25 653.8 50 654.45 49.55 656.4 48.2 656.4 45.55 656.4 44.6 656 43.75 655.55 42.9 654.7 42.25 653.8 41.55 652.4 41.2 651.05 40.8 649.1 40.8
L 647.15 40.8
Q 646.8 40.8 646.7 40.7 646.6 40.6 646.6 40.3
L 646.6 37.35
Q 646.6 36.95 646.7 36.9 646.8 36.8 647.15 36.8
L 649.05 36.8
Q 649.9 36.8 651.15 36.55 652.4 36.3 653.55 35.7 654.75 35.1 655.55 34.15 656.35 33.25 656.35 31.9 656.35 30.9 655.85 30.15 655.3 29.35 654.5 28.9 653.65 28.4 652.7 28.2 651.75 28 650.9 28 650.35 28 649.65 28.1 648.9 28.2 648.1 28.4 647.3 28.55 646.5 28.8 645.7 29.05 645.1 29.3 644.6 29.5 644.4 29.4 644.2 29.3 644.1 28.95
L 643.75 26
Q 643.65 25.75 643.8 25.6 643.95 25.4 644.35 25.2 646.1 24.6 647.8 24.2 649.45 23.85 651.15 23.85
M 832 75
L 832 5 796.15 5 768 5 704 5 704 75 768 75 796.15 75 832 75
M 755.9 23.85
Q 757.85 23.85 759.45 24.4 761.1 24.95 762.25 26 763.4 27.05 764.1 28.65 764.8 30.25 764.8 32.35 764.8 34.15 764 36 763.2 37.85 762 39.65 760.8 41.4 759.45 43.05 758.05 44.65 756.95 45.95 756.1 47.05 755.1 48.25 754.1 49.4 753.1 50.55
L 764.85 50.55
Q 765.4 50.55 765.4 51.15
L 765.4 53.95
Q 765.4 54.65 764.85 54.65
L 747.8 54.65
Q 747.05 54.65 747.05 54.15
L 747.05 51.85
Q 747.05 51.55 747.2 51.2 747.4 50.9 747.6 50.6
L 753.7 43.35
Q 757.05 39.4 758.65 36.75 760.25 34.15 760.25 32.45 760.25 30.55 759.05 29.3 757.9 28.05 756.15 28.05 754.5 28.05 752.95 28.5 751.45 28.95 749.65 30 749.3 30.2 749 30.2 748.7 30.15 748.6 29.8
L 748.05 26.75
Q 747.95 26.55 748.05 26.4 748.2 26.15 748.6 25.95 750.1 25.15 752.05 24.5 754.05 23.85 755.9 23.85
M 782.25 24.3
Q 782.35 24.2 782.75 24.2
L 786.4 24.2
Q 786.7 24.2 786.75 24.35 786.8 24.45 786.8 24.8
L 786.8 43.7 790.5 43.7
Q 790.85 43.7 791 43.8 791.15 43.9 791.15 44.3
L 791.15 47.2
Q 791.15 47.6 791 47.7 790.85 47.8 790.5 47.8
L 786.8 47.8 786.8 53.9
Q 786.8 54.35 786.65 54.45 786.55 54.6 786.15 54.6
L 783.25 54.6
Q 782.8 54.6 782.65 54.45 782.5 54.3 782.5 53.9
L 782.5 47.8 769.7 47.8
Q 769.35 47.8 769.2 47.7 769.05 47.65 769.05 47.35
L 769.05 44.35
Q 769.05 44.1 769.25 43.8 769.4 43.5 769.55 43.35
L 781.95 24.75
Q 782.15 24.4 782.25 24.3
M 782.5 30.65
L 773.9 43.7 782.5 43.7 782.5 30.65
M 960 5
L 952 5 928 5 832 5 832 75 928 75 952 75 960 75 960 5
M 892.8 32.35
Q 892.8 34.15 892 36 891.2 37.85 890 39.65 888.8 41.4 887.45 43.05 886.05 44.65 884.95 45.95 884.1 47.05 883.1 48.25 882.1 49.4 881.1 50.55
L 892.85 50.55
Q 893.4 50.55 893.4 51.15
L 893.4 53.95
Q 893.4 54.65 892.85 54.65
L 875.8 54.65
Q 875.05 54.65 875.05 54.15
L 875.05 51.85
Q 875.05 51.55 875.2 51.2 875.4 50.9 875.6 50.6
L 881.7 43.35
Q 885.05 39.4 886.65 36.75 888.25 34.15 888.25 32.45 888.25 30.55 887.05 29.3 885.9 28.05 884.15 28.05 882.5 28.05 880.95 28.5 879.45 28.95 877.65 30 877.3 30.2 877 30.2 876.7 30.15 876.6 29.8
L 876.05 26.75
Q 875.95 26.55 876.05 26.4 876.2 26.15 876.6 25.95 878.1 25.15 880.05 24.5 882.05 23.85 883.9 23.85 885.85 23.85 887.45 24.4 889.1 24.95 890.25 26 891.4 27.05 892.1 28.65 892.8 30.25 892.8 32.35
M 916.2 24.35
Q 916.3 24.5 916.3 24.7
L 916.3 27.75
Q 916.3 28 916.2 28.15 916.05 28.35 915.8 28.35
L 904.65 28.35 904.5 35.75
Q 906.1 35.4 908.05 35.4 910.05 35.4 911.8 36 913.55 36.65 914.85 37.8 916.15 39 916.9 40.7 917.65 42.35 917.65 44.45 917.65 49.5 914.5 52.3 913.1 53.6 911 54.25 908.95 54.9 906.65 54.9 906.25 54.9 905.4 54.85 904.6 54.75 903.65 54.65 902.7 54.5 901.8 54.25 900.85 54.05 900.2 53.75 899.95 53.55 899.9 53.45 899.9 53.3 899.9 53
L 899.9 49.75
Q 899.9 49.05 900.75 49.45 901.3 49.75 902.1 50 902.9 50.2 903.75 50.4 904.6 50.55 905.4 50.6 906.25 50.7 906.95 50.7 909.65 50.7 911.35 49.15 913.15 47.65 913.15 44.95 913.15 42.35 911.7 40.85 910.3 39.3 907 39.3 905.7 39.3 904.3 39.6 902.9 39.85 901.65 40.3 900.1 40.95 900.1 39.6
L 900.3 24.85
Q 900.3 24.4 900.45 24.3 900.55 24.15 901.15 24.15
L 915.8 24.15
Q 916.05 24.15 916.2 24.35
M 1088 75
L 1088 5 960 5 960 75 1088 75
M 1014.65 36.75
Q 1016.25 34.15 1016.25 32.45 1016.25 30.55 1015.05 29.3 1013.9 28.05 1012.15 28.05 1010.5 28.05 1008.95 28.5 1007.45 28.95 1005.65 30 1005.3 30.2 1005 30.2 1004.7 30.15 1004.6 29.8
L 1004.05 26.75
Q 1003.95 26.55 1004.05 26.4 1004.2 26.15 1004.6 25.95 1006.1 25.15 1008.05 24.5 1010.05 23.85 1011.9 23.85 1013.85 23.85 1015.45 24.4 1017.1 24.95 1018.25 26 1019.4 27.05 1020.1 28.65 1020.8 30.25 1020.8 32.35 1020.8 34.15 1020 36 1019.2 37.85 1018 39.65 1016.8 41.4 1015.45 43.05 1014.05 44.65 1012.95 45.95 1012.1 47.05 1011.1 48.25 1010.1 49.4 1009.1 50.55
L 1020.85 50.55
Q 1021.4 50.55 1021.4 51.15
L 1021.4 53.95
Q 1021.4 54.65 1020.85 54.65
L 1003.8 54.65
Q 1003.05 54.65 1003.05 54.15
L 1003.05 51.85
Q 1003.05 51.55 1003.2 51.2 1003.4 50.9 1003.6 50.6
L 1009.7 43.35
Q 1013.05 39.4 1014.65 36.75
M 1042.45 24.05
Q 1043.9 24.25 1044.8 24.6 1045.15 24.7 1045.1 25.1
L 1045 28.3
Q 1044.9 28.85 1044.35 28.6 1043.3 28.2 1042.15 28.1 1040.95 28 1039.55 28 1037.5 28 1036 28.65 1034.55 29.35 1033.55 30.6 1032.55 31.85 1032 33.5 1031.4 35.2 1031.15 37.15 1031.5 36.65 1032.1 36.2 1032.7 35.75 1033.45 35.4 1034.2 35.05 1035 34.85 1035.8 34.6 1036.55 34.6 1038.75 34.6 1040.5 35.3 1042.3 36 1043.55 37.3 1044.85 38.6 1045.55 40.45 1046.25 42.25 1046.25 44.55 1046.25 46.75 1045.55 48.6 1044.9 50.55 1043.6 51.9 1042.3 53.35 1040.45 54.15 1038.6 54.95 1036.3 54.95 1031.6 54.95 1029.05 51.4 1026.5 47.85 1026.5 40.4 1026.5 37 1027.2 34 1027.9 30.95 1029.45 28.75 1031.05 26.5 1033.6 25.15 1036.15 23.85 1039.9 23.85 1041.05 23.85 1042.45 24.05
M 1032.65 40.35
Q 1031.15 41.9 1031.15 44.35 1031.15 45.75 1031.55 46.9 1031.95 48.15 1032.65 49.05 1033.35 49.95 1034.3 50.45 1035.3 50.95 1036.4 50.95 1038.8 50.95 1040.35 49.3 1041.85 47.6 1041.85 44.75 1041.85 41.95 1040.5 40.4 1039.15 38.8 1036.7 38.8 1034.1 38.8 1032.65 40.35 Z"/>

<path fill="#1E1E1E" stroke="none" d="
M 264.7 309.95
Q 265.25 310.2 265.35 309.65
L 265.45 306.45
Q 265.5 306.05 265.15 305.95 264.25 305.6 262.8 305.4 261.4 305.2 260.25 305.2 256.5 305.2 253.95 306.5 251.4 307.85 249.8 310.1 248.25 312.3 247.55 315.35 246.85 318.35 246.85 321.75 246.85 329.2 249.4 332.75 251.95 336.3 256.65 336.3 258.95 336.3 260.8 335.5 262.65 334.7 263.95 333.25 265.25 331.9 265.9 329.95 266.6 328.1 266.6 325.9 266.6 323.6 265.9 321.8 265.2 319.95 263.9 318.65 262.65 317.35 260.85 316.65 259.1 315.95 256.9 315.95 256.15 315.95 255.35 316.2 254.55 316.4 253.8 316.75 253.05 317.1 252.45 317.55 251.85 318 251.5 318.5 251.75 316.55 252.35 314.85 252.9 313.2 253.9 311.95 254.9 310.7 256.35 310 257.85 309.35 259.9 309.35 261.3 309.35 262.5 309.45 263.65 309.55 264.7 309.95
M 253 321.7
Q 254.45 320.15 257.05 320.15 259.5 320.15 260.85 321.75 262.2 323.3 262.2 326.1 262.2 328.95 260.7 330.65 259.15 332.3 256.75 332.3 255.65 332.3 254.65 331.8 253.7 331.3 253 330.4 252.3 329.5 251.9 328.25 251.5 327.1 251.5 325.7 251.5 323.25 253 321.7
M 247.65 379.7
L 260.4 379.7 249.95 405.25
Q 249.8 405.7 249.95 405.8 250.1 405.95 250.7 405.95
L 253.95 405.95
Q 254.35 405.95 254.5 405.85 254.65 405.7 254.85 405.4
L 265.4 379.35
Q 265.65 379.05 265.65 378.7
L 265.65 376.3
Q 265.65 375.85 265.5 375.7 265.35 375.55 264.65 375.55
L 247.65 375.55
Q 246.95 375.55 246.95 376.2
L 246.95 379
Q 246.95 379.35 247.15 379.5 247.35 379.7 247.65 379.7
M 260.15 247.35
Q 258.4 246.75 256.4 246.75 254.45 246.75 252.85 247.1
L 253 239.7 264.15 239.7
Q 264.4 239.7 264.55 239.5 264.65 239.35 264.65 239.1
L 264.65 236.05
Q 264.65 235.85 264.55 235.7 264.4 235.5 264.15 235.5
L 249.5 235.5
Q 248.9 235.5 248.8 235.65 248.65 235.75 248.65 236.2
L 248.45 250.95
Q 248.45 252.3 250 251.65 251.25 251.2 252.65 250.95 254.05 250.65 255.35 250.65 258.65 250.65 260.05 252.2 261.5 253.7 261.5 256.3 261.5 259 259.7 260.5 258 262.05 255.3 262.05 254.6 262.05 253.75 261.95 252.95 261.9 252.1 261.75 251.25 261.55 250.45 261.35 249.65 261.1 249.1 260.8 248.25 260.4 248.25 261.1
L 248.25 264.35
Q 248.25 264.65 248.25 264.8 248.3 264.9 248.55 265.1 249.2 265.4 250.15 265.6 251.05 265.85 252 266 252.95 266.1 253.75 266.2 254.6 266.25 255 266.25 257.3 266.25 259.35 265.6 261.45 264.95 262.85 263.65 266 260.85 266 255.8 266 253.7 265.25 252.05 264.5 250.35 263.2 249.15 261.9 248 260.15 247.35
M 263.15 166.15
Q 263.15 165.8 263.1 165.7 263.05 165.55 262.75 165.55
L 259.1 165.55
Q 258.7 165.55 258.6 165.65 258.5 165.75 258.3 166.1
L 245.9 184.7
Q 245.75 184.85 245.6 185.15 245.4 185.45 245.4 185.7
L 245.4 188.7
Q 245.4 189 245.55 189.05 245.7 189.15 246.05 189.15
L 258.85 189.15 258.85 195.25
Q 258.85 195.65 259 195.8 259.15 195.95 259.6 195.95
L 262.5 195.95
Q 262.9 195.95 263 195.8 263.15 195.7 263.15 195.25
L 263.15 189.15 266.85 189.15
Q 267.2 189.15 267.35 189.05 267.5 188.95 267.5 188.55
L 267.5 185.65
Q 267.5 185.25 267.35 185.15 267.2 185.05 266.85 185.05
L 263.15 185.05 263.15 166.15
M 258.85 185.05
L 250.25 185.05 258.85 172 258.85 185.05
M 262.1 97
Q 260.8 96.1 259.05 95.65 257.3 95.2 255.5 95.2 253.8 95.2 252.15 95.55 250.45 95.95 248.7 96.55 248.3 96.75 248.15 96.95 248 97.1 248.1 97.35
L 248.45 100.3
Q 248.55 100.65 248.75 100.75 248.95 100.85 249.45 100.65 250.05 100.4 250.85 100.15 251.65 99.9 252.45 99.75 253.25 99.55 254 99.45 254.7 99.35 255.25 99.35 256.1 99.35 257.05 99.55 258 99.75 258.85 100.25 259.65 100.7 260.2 101.5 260.7 102.25 260.7 103.25 260.7 104.6 259.9 105.5 259.1 106.45 257.9 107.05 256.75 107.65 255.5 107.9 254.25 108.15 253.4 108.15
L 251.5 108.15
Q 251.15 108.15 251.05 108.25 250.95 108.3 250.95 108.7
L 250.95 111.65
Q 250.95 111.95 251.05 112.05 251.15 112.15 251.5 112.15
L 253.45 112.15
Q 255.4 112.15 256.75 112.55 258.15 112.9 259.05 113.6 259.9 114.25 260.35 115.1 260.75 115.95 260.75 116.9 260.75 119.55 258.8 120.9 258.15 121.35 257.4 121.6 256.6 121.9 255.75 122 254.9 122.1 254 122.05 253.1 122 252.3 121.95 251.2 121.85 250.15 121.55 249.1 121.25 248.05 120.95 247.5 120.7 247.3 120.85 247.1 120.95 247.05 121.3
L 246.7 124.35
Q 246.65 124.7 246.85 124.85 247 125.05 247.4 125.15 248.85 125.7 250.6 126 252.35 126.3 254.1 126.3 256.4 126.3 258.55 125.7 260.7 125.15 262.2 123.9 263.7 122.65 264.55 120.9 265.35 119.1 265.35 117 265.35 114.8 264 113 262.65 111.25 260 110.1 261.1 109.6 262.05 108.85 263 108.1 263.7 107.1 264.4 106.15 264.8 105.1 265.15 104 265.15 102.9 265.15 100.9 264.3 99.4 263.45 97.9 262.1 97
M 258.55 46.1
Q 257.7 45.3 256.45 45.3 255.15 45.3 254.35 46.1 253.55 46.9 253.55 48.15 253.55 49.45 254.35 50.25 255.2 51.1 256.45 51.1 257.7 51.1 258.55 50.25 259.4 49.45 259.4 48.15 259.4 46.9 258.55 46.1
M 245 41.25
Q 245 41.75 245.6 41.75
L 267.45 41.75
Q 267.95 41.75 267.95 41.25
L 267.95 38.7
Q 267.95 38.15 267.45 38.15
L 245.6 38.15
Q 245 38.15 245 38.7
L 245 41.25
M 253.55 31.75
Q 253.55 33 254.35 33.85 255.2 34.65 256.45 34.65 257.7 34.65 258.55 33.85 259.4 33 259.4 31.75 259.4 30.5 258.55 29.7 257.7 28.85 256.45 28.85 255.15 28.85 254.35 29.7 253.55 30.5 253.55 31.75
M 390.1 307
Q 388.8 306.1 387.05 305.65 385.3 305.2 383.5 305.2 381.8 305.2 380.15 305.55 378.45 305.95 376.7 306.55 376.3 306.75 376.15 306.95 376 307.1 376.1 307.35
L 376.45 310.3
Q 376.55 310.65 376.75 310.75 376.95 310.85 377.45 310.65 378.05 310.4 378.85 310.15 379.65 309.9 380.45 309.75 381.25 309.55 382 309.45 382.7 309.35 383.25 309.35 384.1 309.35 385.05 309.55 386 309.75 386.85 310.25 387.65 310.7 388.2 311.5 388.7 312.25 388.7 313.25 388.7 314.6 387.9 315.5 387.1 316.45 385.9 317.05 384.75 317.65 383.5 317.9 382.25 318.15 381.4 318.15
L 379.5 318.15
Q 379.15 318.15 379.05 318.25 378.95 318.3 378.95 318.7
L 378.95 321.65
Q 378.95 321.95 379.05 322.05 379.15 322.15 379.5 322.15
L 381.45 322.15
Q 383.4 322.15 384.75 322.55 386.15 322.9 387.05 323.6 387.9 324.25 388.35 325.1 388.75 325.95 388.75 326.9 388.75 329.55 386.8 330.9 386.15 331.35 385.4 331.6 384.6 331.9 383.75 332 382.9 332.1 382 332.05 381.1 332 380.3 331.95 379.2 331.85 378.15 331.55 377.1 331.25 376.05 330.95 375.5 330.7 375.3 330.85 375.1 330.95 375.05 331.3
L 374.7 334.35
Q 374.65 334.7 374.85 334.85 375 335.05 375.4 335.15 376.85 335.7 378.6 336 380.35 336.3 382.1 336.3 384.4 336.3 386.55 335.7 388.7 335.15 390.2 333.9 391.7 332.65 392.55 330.9 393.35 329.1 393.35 327 393.35 324.8 392 323 390.65 321.25 388 320.1 389.1 319.6 390.05 318.85 391 318.1 391.7 317.1 392.4 316.15 392.8 315.1 393.15 314 393.15 312.9 393.15 310.9 392.3 309.4 391.45 307.9 390.1 307
M 519.15 306.15
Q 519.15 305.8 519.1 305.7 519.05 305.55 518.75 305.55
L 515.1 305.55
Q 514.7 305.55 514.6 305.65 514.5 305.75 514.3 306.1
L 501.9 324.7
Q 501.75 324.85 501.6 325.15 501.4 325.45 501.4 325.7
L 501.4 328.7
Q 501.4 329 501.55 329.05 501.7 329.15 502.05 329.15
L 514.85 329.15 514.85 335.25
Q 514.85 335.65 515 335.8 515.15 335.95 515.6 335.95
L 518.5 335.95
Q 518.9 335.95 519 335.8 519.15 335.7 519.15 335.25
L 519.15 329.15 522.85 329.15
Q 523.2 329.15 523.35 329.05 523.5 328.95 523.5 328.55
L 523.5 325.65
Q 523.5 325.25 523.35 325.15 523.2 325.05 522.85 325.05
L 519.15 325.05 519.15 306.15
M 514.85 325.05
L 506.25 325.05 514.85 312 514.85 325.05
M 384.65 375.3
Q 381.45 375.3 379.5 376.75 377.55 378.25 376.45 380.5 375.35 382.8 374.95 385.5 374.6 388.25 374.6 390.7 374.6 398.05 377.05 402.1 379.5 406.15 384.65 406.15 387.2 406.15 389.05 405.15 390.9 404.05 392.15 402.1 393.4 400.15 394 397.25 394.6 394.35 394.6 390.7 394.6 389.05 394.4 387.3 394.25 385.5 393.85 383.8 393.45 382.1 392.75 380.55 392.05 379 390.9 377.8 389.85 376.65 388.25 375.95 386.7 375.3 384.65 375.3
M 382.35 380.25
Q 383.35 379.65 384.65 379.65 385.85 379.65 386.9 380.25 387.9 380.8 388.65 382.1 389.35 383.45 389.75 385.55 390.1 387.7 390.1 390.7 390.1 393.8 389.75 395.95 389.35 398.05 388.65 399.35 387.9 400.7 386.9 401.25 385.85 401.85 384.65 401.85 383.35 401.85 382.35 401.25 381.35 400.7 380.65 399.35 379.9 398.05 379.55 395.95 379.15 393.8 379.15 390.7 379.15 387.7 379.55 385.55 379.9 383.45 380.65 382.1 381.35 380.8 382.35 380.25
M 505.5 381.85
Q 505.45 382.1 505.6 382.25
L 507.4 384.4
Q 507.55 384.55 507.8 384.5 508.05 384.5 508.3 384.35
L 511.25 381.75 511.25 405.45
Q 511.25 405.95 511.8 405.95
L 515 405.95
Q 515.5 405.95 515.5 405.45
L 515.5 376.65
Q 515.5 375.85 515.35 375.7 515.25 375.55 514.55 375.55
L 512.45 375.55
Q 512.3 375.55 512.1 375.65 511.9 375.7 511.85 375.8
L 505.7 381.45
Q 505.5 381.65 505.5 381.85
M 384.1 235.65
Q 383.9 235.7 383.85 235.8
L 377.7 241.45
Q 377.5 241.65 377.5 241.85 377.45 242.1 377.6 242.25
L 379.4 244.4
Q 379.55 244.55 379.8 244.5 380.05 244.5 380.3 244.35
L 383.25 241.75 383.25 265.45
Q 383.25 265.95 383.8 265.95
L 387 265.95
Q 387.5 265.95 387.5 265.45
L 387.5 236.65
Q 387.5 235.85 387.35 235.7 387.25 235.55 386.55 235.55
L 384.45 235.55
Q 384.3 235.55 384.1 235.65
M 504.6 241.55
Q 504.9 241.55 505.25 241.35 507.05 240.3 508.55 239.85 510.1 239.4 511.75 239.4 513.5 239.4 514.65 240.65 515.85 241.9 515.85 243.8 515.85 245.5 514.25 248.1 512.65 250.75 509.3 254.7
L 503.2 261.95
Q 503 262.25 502.8 262.55 502.65 262.9 502.65 263.2
L 502.65 265.5
Q 502.65 266 503.4 266
L 520.45 266
Q 521 266 521 265.3
L 521 262.5
Q 521 261.9 520.45 261.9
L 508.7 261.9
Q 509.7 260.75 510.7 259.6 511.7 258.4 512.55 257.3 513.65 256 515.05 254.4 516.4 252.75 517.6 251 518.8 249.2 519.6 247.35 520.4 245.5 520.4 243.7 520.4 241.6 519.7 240 519 238.4 517.85 237.35 516.7 236.3 515.05 235.75 513.45 235.2 511.5 235.2 509.65 235.2 507.65 235.85 505.7 236.5 504.2 237.3 503.8 237.5 503.65 237.75 503.55 237.9 503.65 238.1
L 504.2 241.15
Q 504.3 241.5 504.6 241.55
M 387.5 166.65
Q 387.5 165.85 387.35 165.7 387.25 165.55 386.55 165.55
L 384.45 165.55
Q 384.3 165.55 384.1 165.65 383.9 165.7 383.85 165.8
L 377.7 171.45
Q 377.5 171.65 377.5 171.85 377.45 172.1 377.6 172.25
L 379.4 174.4
Q 379.55 174.55 379.8 174.5 380.05 174.5 380.3 174.35
L 383.25 171.75 383.25 195.45
Q 383.25 195.95 383.8 195.95
L 387 195.95
Q 387.5 195.95 387.5 195.45
L 387.5 166.65
M 390.9 97.8
Q 389.85 96.65 388.25 95.95 386.7 95.3 384.65 95.3 381.45 95.3 379.5 96.75 377.55 98.25 376.45 100.5 375.35 102.8 374.95 105.5 374.6 108.25 374.6 110.7 374.6 118.05 377.05 122.1 379.5 126.15 384.65 126.15 387.2 126.15 389.05 125.15 390.9 124.05 392.15 122.1 393.4 120.15 394 117.25 394.6 114.35 394.6 110.7 394.6 109.05 394.4 107.3 394.25 105.5 393.85 103.8 393.45 102.1 392.75 100.55 392.05 99 390.9 97.8
M 386.9 100.25
Q 387.9 100.8 388.65 102.1 389.35 103.45 389.75 105.55 390.1 107.7 390.1 110.7 390.1 113.8 389.75 115.95 389.35 118.05 388.65 119.35 387.9 120.7 386.9 121.25 385.85 121.85 384.65 121.85 383.35 121.85 382.35 121.25 381.35 120.7 380.65 119.35 379.9 118.05 379.55 115.95 379.15 113.8 379.15 110.7 379.15 107.7 379.55 105.55 379.9 103.45 380.65 102.1 381.35 100.8 382.35 100.25 383.35 99.65 384.65 99.65 385.85 99.65 386.9 100.25
M 396.1 24.2
Q 395.95 24.2 395.75 24.3 395.55 24.35 395.5 24.45
L 389.35 30.1
Q 389.15 30.3 389.15 30.5 389.1 30.75 389.25 30.9
L 391.05 33.05
Q 391.2 33.2 391.45 33.15 391.7 33.15 391.95 33
L 394.9 30.4 394.9 54.1
Q 394.9 54.6 395.45 54.6
L 398.65 54.6
Q 399.15 54.6 399.15 54.1
L 399.15 25.3
Q 399.15 24.5 399 24.35 398.9 24.2 398.2 24.2
L 396.1 24.2
M 375.45 24.4
Q 373.85 23.85 371.9 23.85 370.05 23.85 368.05 24.5 366.1 25.15 364.6 25.95 364.2 26.15 364.05 26.4 363.95 26.55 364.05 26.75
L 364.6 29.8
Q 364.7 30.15 365 30.2 365.3 30.2 365.65 30 367.45 28.95 368.95 28.5 370.5 28.05 372.15 28.05 373.9 28.05 375.05 29.3 376.25 30.55 376.25 32.45 376.25 34.15 374.65 36.75 373.05 39.4 369.7 43.35
L 363.6 50.6
Q 363.4 50.9 363.2 51.2 363.05 51.55 363.05 51.85
L 363.05 54.15
Q 363.05 54.65 363.8 54.65
L 380.85 54.65
Q 381.4 54.65 381.4 53.95
L 381.4 51.15
Q 381.4 50.55 380.85 50.55
L 369.1 50.55
Q 370.1 49.4 371.1 48.25 372.1 47.05 372.95 45.95 374.05 44.65 375.45 43.05 376.8 41.4 378 39.65 379.2 37.85 380 36 380.8 34.15 380.8 32.35 380.8 30.25 380.1 28.65 379.4 27.05 378.25 26 377.1 24.95 375.45 24.4
M 519.7 170
Q 519 168.4 517.85 167.35 516.7 166.3 515.05 165.75 513.45 165.2 511.5 165.2 509.65 165.2 507.65 165.85 505.7 166.5 504.2 167.3 503.8 167.5 503.65 167.75 503.55 167.9 503.65 168.1
L 504.2 171.15
Q 504.3 171.5 504.6 171.55 504.9 171.55 505.25 171.35 507.05 170.3 508.55 169.85 510.1 169.4 511.75 169.4 513.5 169.4 514.65 170.65 515.85 171.9 515.85 173.8 515.85 175.5 514.25 178.1 512.65 180.75 509.3 184.7
L 503.2 191.95
Q 503 192.25 502.8 192.55 502.65 192.9 502.65 193.2
L 502.65 195.5
Q 502.65 196 503.4 196
L 520.45 196
Q 521 196 521 195.3
L 521 192.5
Q 521 191.9 520.45 191.9
L 508.7 191.9
Q 509.7 190.75 510.7 189.6 511.7 188.4 512.55 187.3 513.65 186 515.05 184.4 516.4 182.75 517.6 181 518.8 179.2 519.6 177.35 520.4 175.5 520.4 173.7 520.4 171.6 519.7 170
M 512.1 95.65
Q 511.9 95.7 511.85 95.8
L 505.7 101.45
Q 505.5 101.65 505.5 101.85 505.45 102.1 505.6 102.25
L 507.4 104.4
Q 507.55 104.55 507.8 104.5 508.05 104.5 508.3 104.35
L 511.25 101.75 511.25 125.45
Q 511.25 125.95 511.8 125.95
L 515 125.95
Q 515.5 125.95 515.5 125.45
L 515.5 96.65
Q 515.5 95.85 515.35 95.7 515.25 95.55 514.55 95.55
L 512.45 95.55
Q 512.3 95.55 512.1 95.65
M 503.45 24.4
Q 501.85 23.85 499.9 23.85 498.05 23.85 496.05 24.5 494.1 25.15 492.6 25.95 492.2 26.15 492.05 26.4 491.95 26.55 492.05 26.75
L 492.6 29.8
Q 492.7 30.15 493 30.2 493.3 30.2 493.65 30 495.45 28.95 496.95 28.5 498.5 28.05 500.15 28.05 501.9 28.05 503.05 29.3 504.25 30.55 504.25 32.45 504.25 34.15 502.65 36.75 501.05 39.4 497.7 43.35
L 491.6 50.6
Q 491.4 50.9 491.2 51.2 491.05 51.55 491.05 51.85
L 491.05 54.15
Q 491.05 54.65 491.8 54.65
L 508.85 54.65
Q 509.4 54.65 509.4 53.95
L 509.4 51.15
Q 509.4 50.55 508.85 50.55
L 497.1 50.55
Q 498.1 49.4 499.1 48.25 500.1 47.05 500.95 45.95 502.05 44.65 503.45 43.05 504.8 41.4 506 39.65 507.2 37.85 508 36 508.8 34.15 508.8 32.35 508.8 30.25 508.1 28.65 507.4 27.05 506.25 26 505.1 24.95 503.45 24.4
M 529.5 26
Q 528.35 24.95 526.7 24.4 525.1 23.85 523.15 23.85 521.3 23.85 519.3 24.5 517.35 25.15 515.85 25.95 515.45 26.15 515.3 26.4 515.2 26.55 515.3 26.75
L 515.85 29.8
Q 515.95 30.15 516.25 30.2 516.55 30.2 516.9 30 518.7 28.95 520.2 28.5 521.75 28.05 523.4 28.05 525.15 28.05 526.3 29.3 527.5 30.55 527.5 32.45 527.5 34.15 525.9 36.75 524.3 39.4 520.95 43.35
L 514.85 50.6
Q 514.65 50.9 514.45 51.2 514.3 51.55 514.3 51.85
L 514.3 54.15
Q 514.3 54.65 515.05 54.65
L 532.1 54.65
Q 532.65 54.65 532.65 53.95
L 532.65 51.15
Q 532.65 50.55 532.1 50.55
L 520.35 50.55
Q 521.35 49.4 522.35 48.25 523.35 47.05 524.2 45.95 525.3 44.65 526.7 43.05 528.05 41.4 529.25 39.65 530.45 37.85 531.25 36 532.05 34.15 532.05 32.35 532.05 30.25 531.35 28.65 530.65 27.05 529.5 26
M 885.6 395.15
Q 885.4 395.45 885.4 395.7
L 885.4 398.7
Q 885.4 399 885.55 399.05 885.7 399.15 886.05 399.15
L 898.85 399.15 898.85 405.25
Q 898.85 405.65 899 405.8 899.15 405.95 899.6 405.95
L 902.5 405.95
Q 902.9 405.95 903 405.8 903.15 405.7 903.15 405.25
L 903.15 399.15 906.85 399.15
Q 907.2 399.15 907.35 399.05 907.5 398.95 907.5 398.55
L 907.5 395.65
Q 907.5 395.25 907.35 395.15 907.2 395.05 906.85 395.05
L 903.15 395.05 903.15 376.15
Q 903.15 375.8 903.1 375.7 903.05 375.55 902.75 375.55
L 899.1 375.55
Q 898.7 375.55 898.6 375.65 898.5 375.75 898.3 376.1
L 885.9 394.7
Q 885.75 394.85 885.6 395.15
M 898.85 382
L 898.85 395.05 890.25 395.05 898.85 382
M 889.5 311.85
Q 889.45 312.1 889.6 312.25
L 891.4 314.4
Q 891.55 314.55 891.8 314.5 892.05 314.5 892.3 314.35
L 895.25 311.75 895.25 335.45
Q 895.25 335.95 895.8 335.95
L 899 335.95
Q 899.5 335.95 899.5 335.45
L 899.5 306.65
Q 899.5 305.85 899.35 305.7 899.25 305.55 898.55 305.55
L 896.45 305.55
Q 896.3 305.55 896.1 305.65 895.9 305.7 895.85 305.8
L 889.7 311.45
Q 889.5 311.65 889.5 311.85
M 900.25 235.95
Q 898.7 235.3 896.65 235.3 893.45 235.3 891.5 236.75 889.55 238.25 888.45 240.5 887.35 242.8 886.95 245.5 886.6 248.25 886.6 250.7 886.6 258.05 889.05 262.1 891.5 266.15 896.65 266.15 899.2 266.15 901.05 265.15 902.9 264.05 904.15 262.1 905.4 260.15 906 257.25 906.6 254.35 906.6 250.7 906.6 249.05 906.4 247.3 906.25 245.5 905.85 243.8 905.45 242.1 904.75 240.55 904.05 239 902.9 237.8 901.85 236.65 900.25 235.95
M 896.65 239.65
Q 897.85 239.65 898.9 240.25 899.9 240.8 900.65 242.1 901.35 243.45 901.75 245.55 902.1 247.7 902.1 250.7 902.1 253.8 901.75 255.95 901.35 258.05 900.65 259.35 899.9 260.7 898.9 261.25 897.85 261.85 896.65 261.85 895.35 261.85 894.35 261.25 893.35 260.7 892.65 259.35 891.9 258.05 891.55 255.95 891.15 253.8 891.15 250.7 891.15 247.7 891.55 245.55 891.9 243.45 892.65 242.1 893.35 240.8 894.35 240.25 895.35 239.65 896.65 239.65
M 764.15 375.55
Q 762.45 375.95 760.7 376.55 760.3 376.75 760.15 376.95 760 377.1 760.1 377.35
L 760.45 380.3
Q 760.55 380.65 760.75 380.75 760.95 380.85 761.45 380.65 762.05 380.4 762.85 380.15 763.65 379.9 764.45 379.75 765.25 379.55 766 379.45 766.7 379.35 767.25 379.35 768.1 379.35 769.05 379.55 770 379.75 770.85 380.25 771.65 380.7 772.2 381.5 772.7 382.25 772.7 383.25 772.7 384.6 771.9 385.5 771.1 386.45 769.9 387.05 768.75 387.65 767.5 387.9 766.25 388.15 765.4 388.15
L 763.5 388.15
Q 763.15 388.15 763.05 388.25 762.95 388.3 762.95 388.7
L 762.95 391.65
Q 762.95 391.95 763.05 392.05 763.15 392.15 763.5 392.15
L 765.45 392.15
Q 767.4 392.15 768.75 392.55 770.15 392.9 771.05 393.6 771.9 394.25 772.35 395.1 772.75 395.95 772.75 396.9 772.75 399.55 770.8 400.9 770.15 401.35 769.4 401.6 768.6 401.9 767.75 402 766.9 402.1 766 402.05 765.1 402 764.3 401.95 763.2 401.85 762.15 401.55 761.1 401.25 760.05 400.95 759.5 400.7 759.3 400.85 759.1 400.95 759.05 401.3
L 758.7 404.35
Q 758.65 404.7 758.85 404.85 759 405.05 759.4 405.15 760.85 405.7 762.6 406 764.35 406.3 766.1 406.3 768.4 406.3 770.55 405.7 772.7 405.15 774.2 403.9 775.7 402.65 776.55 400.9 777.35 399.1 777.35 397 777.35 394.8 776 393 774.65 391.25 772 390.1 773.1 389.6 774.05 388.85 775 388.1 775.7 387.1 776.4 386.15 776.8 385.1 777.15 384 777.15 382.9 777.15 380.9 776.3 379.4 775.45 377.9 774.1 377 772.8 376.1 771.05 375.65 769.3 375.2 767.5 375.2 765.8 375.2 764.15 375.55
M 650 325.8
Q 650 323.7 649.25 322.05 648.5 320.35 647.2 319.15 645.9 318 644.15 317.35 642.4 316.75 640.4 316.75 638.45 316.75 636.85 317.1
L 637 309.7 648.15 309.7
Q 648.4 309.7 648.55 309.5 648.65 309.35 648.65 309.1
L 648.65 306.05
Q 648.65 305.85 648.55 305.7 648.4 305.5 648.15 305.5
L 633.5 305.5
Q 632.9 305.5 632.8 305.65 632.65 305.75 632.65 306.2
L 632.45 320.95
Q 632.45 322.3 634 321.65 635.25 321.2 636.65 320.95 638.05 320.65 639.35 320.65 642.65 320.65 644.05 322.2 645.5 323.7 645.5 326.3 645.5 329 643.7 330.5 642 332.05 639.3 332.05 638.6 332.05 637.75 331.95 636.95 331.9 636.1 331.75 635.25 331.55 634.45 331.35 633.65 331.1 633.1 330.8 632.25 330.4 632.25 331.1
L 632.25 334.35
Q 632.25 334.65 632.25 334.8 632.3 334.9 632.55 335.1 633.2 335.4 634.15 335.6 635.05 335.85 636 336 636.95 336.1 637.75 336.2 638.6 336.25 639 336.25 641.3 336.25 643.35 335.6 645.45 334.95 646.85 333.65 650 330.85 650 325.8
M 648.8 245.1
Q 649.15 244 649.15 242.9 649.15 240.9 648.3 239.4 647.45 237.9 646.1 237 644.8 236.1 643.05 235.65 641.3 235.2 639.5 235.2 637.8 235.2 636.15 235.55 634.45 235.95 632.7 236.55 632.3 236.75 632.15 236.95 632 237.1 632.1 237.35
L 632.45 240.3
Q 632.55 240.65 632.75 240.75 632.95 240.85 633.45 240.65 634.05 240.4 634.85 240.15 635.65 239.9 636.45 239.75 637.25 239.55 638 239.45 638.7 239.35 639.25 239.35 640.1 239.35 641.05 239.55 642 239.75 642.85 240.25 643.65 240.7 644.2 241.5 644.7 242.25 644.7 243.25 644.7 244.6 643.9 245.5 643.1 246.45 641.9 247.05 640.75 247.65 639.5 247.9 638.25 248.15 637.4 248.15
L 635.5 248.15
Q 635.15 248.15 635.05 248.25 634.95 248.3 634.95 248.7
L 634.95 251.65
Q 634.95 251.95 635.05 252.05 635.15 252.15 635.5 252.15
L 637.45 252.15
Q 639.4 252.15 640.75 252.55 642.15 252.9 643.05 253.6 643.9 254.25 644.35 255.1 644.75 255.95 644.75 256.9 644.75 259.55 642.8 260.9 642.15 261.35 641.4 261.6 640.6 261.9 639.75 262 638.9 262.1 638 262.05 637.1 262 636.3 261.95 635.2 261.85 634.15 261.55 633.1 261.25 632.05 260.95 631.5 260.7 631.3 260.85 631.1 260.95 631.05 261.3
L 630.7 264.35
Q 630.65 264.7 630.85 264.85 631 265.05 631.4 265.15 632.85 265.7 634.6 266 636.35 266.3 638.1 266.3 640.4 266.3 642.55 265.7 644.7 265.15 646.2 263.9 647.7 262.65 648.55 260.9 649.35 259.1 649.35 257 649.35 254.8 648 253 646.65 251.25 644 250.1 645.1 249.6 646.05 248.85 647 248.1 647.7 247.1 648.4 246.15 648.8 245.1
M 770.6 235.65
Q 770.5 235.75 770.3 236.1
L 757.9 254.7
Q 757.75 254.85 757.6 255.15 757.4 255.45 757.4 255.7
L 757.4 258.7
Q 757.4 259 757.55 259.05 757.7 259.15 758.05 259.15
L 770.85 259.15 770.85 265.25
Q 770.85 265.65 771 265.8 771.15 265.95 771.6 265.95
L 774.5 265.95
Q 774.9 265.95 775 265.8 775.15 265.7 775.15 265.25
L 775.15 259.15 778.85 259.15
Q 779.2 259.15 779.35 259.05 779.5 258.95 779.5 258.55
L 779.5 255.65
Q 779.5 255.25 779.35 255.15 779.2 255.05 778.85 255.05
L 775.15 255.05 775.15 236.15
Q 775.15 235.8 775.1 235.7 775.05 235.55 774.75 235.55
L 771.1 235.55
Q 770.7 235.55 770.6 235.65
M 770.85 255.05
L 762.25 255.05 770.85 242 770.85 255.05
M 763.5 166.75
Q 761.55 168.25 760.45 170.5 759.35 172.8 758.95 175.5 758.6 178.25 758.6 180.7 758.6 188.05 761.05 192.1 763.5 196.15 768.65 196.15 771.2 196.15 773.05 195.15 774.9 194.05 776.15 192.1 777.4 190.15 778 187.25 778.6 184.35 778.6 180.7 778.6 179.05 778.4 177.3 778.25 175.5 777.85 173.8 777.45 172.1 776.75 170.55 776.05 169 774.9 167.8 773.85 166.65 772.25 165.95 770.7 165.3 768.65 165.3 765.45 165.3 763.5 166.75
M 766.35 170.25
Q 767.35 169.65 768.65 169.65 769.85 169.65 770.9 170.25 771.9 170.8 772.65 172.1 773.35 173.45 773.75 175.55 774.1 177.7 774.1 180.7 774.1 183.8 773.75 185.95 773.35 188.05 772.65 189.35 771.9 190.7 770.9 191.25 769.85 191.85 768.65 191.85 767.35 191.85 766.35 191.25 765.35 190.7 764.65 189.35 763.9 188.05 763.55 185.95 763.15 183.8 763.15 180.7 763.15 177.7 763.55 175.55 763.9 173.45 764.65 172.1 765.35 170.8 766.35 170.25
M 648.55 190.9
Q 649.35 189.1 649.35 187 649.35 184.8 648 183 646.65 181.25 644 180.1 645.1 179.6 646.05 178.85 647 178.1 647.7 177.1 648.4 176.15 648.8 175.1 649.15 174 649.15 172.9 649.15 170.9 648.3 169.4 647.45 167.9 646.1 167 644.8 166.1 643.05 165.65 641.3 165.2 639.5 165.2 637.8 165.2 636.15 165.55 634.45 165.95 632.7 166.55 632.3 166.75 632.15 166.95 632 167.1 632.1 167.35
L 632.45 170.3
Q 632.55 170.65 632.75 170.75 632.95 170.85 633.45 170.65 634.05 170.4 634.85 170.15 635.65 169.9 636.45 169.75 637.25 169.55 638 169.45 638.7 169.35 639.25 169.35 640.1 169.35 641.05 169.55 642 169.75 642.85 170.25 643.65 170.7 644.2 171.5 644.7 172.25 644.7 173.25 644.7 174.6 643.9 175.5 643.1 176.45 641.9 177.05 640.75 177.65 639.5 177.9 638.25 178.15 637.4 178.15
L 635.5 178.15
Q 635.15 178.15 635.05 178.25 634.95 178.3 634.95 178.7
L 634.95 181.65
Q 634.95 181.95 635.05 182.05 635.15 182.15 635.5 182.15
L 637.45 182.15
Q 639.4 182.15 640.75 182.55 642.15 182.9 643.05 183.6 643.9 184.25 644.35 185.1 644.75 185.95 644.75 186.9 644.75 189.55 642.8 190.9 642.15 191.35 641.4 191.6 640.6 191.9 639.75 192 638.9 192.1 638 192.05 637.1 192 636.3 191.95 635.2 191.85 634.15 191.55 633.1 191.25 632.05 190.95 631.5 190.7 631.3 190.85 631.1 190.95 631.05 191.3
L 630.7 194.35
Q 630.65 194.7 630.85 194.85 631 195.05 631.4 195.15 632.85 195.7 634.6 196 636.35 196.3 638.1 196.3 640.4 196.3 642.55 195.7 644.7 195.15 646.2 193.9 647.7 192.65 648.55 190.9
M 649 122.5
Q 649 121.9 648.45 121.9
L 636.7 121.9
Q 637.7 120.75 638.7 119.6 639.7 118.4 640.55 117.3 641.65 116 643.05 114.4 644.4 112.75 645.6 111 646.8 109.2 647.6 107.35 648.4 105.5 648.4 103.7 648.4 101.6 647.7 100 647 98.4 645.85 97.35 644.7 96.3 643.05 95.75 641.45 95.2 639.5 95.2 637.65 95.2 635.65 95.85 633.7 96.5 632.2 97.3 631.8 97.5 631.65 97.75 631.55 97.9 631.65 98.1
L 632.2 101.15
Q 632.3 101.5 632.6 101.55 632.9 101.55 633.25 101.35 635.05 100.3 636.55 99.85 638.1 99.4 639.75 99.4 641.5 99.4 642.65 100.65 643.85 101.9 643.85 103.8 643.85 105.5 642.25 108.1 640.65 110.75 637.3 114.7
L 631.2 121.95
Q 631 122.25 630.8 122.55 630.65 122.9 630.65 123.2
L 630.65 125.5
Q 630.65 126 631.4 126
L 648.45 126
Q 649 126 649 125.3
L 649 122.5
M 654.7 24.3
Q 652.95 23.85 651.15 23.85 649.45 23.85 647.8 24.2 646.1 24.6 644.35 25.2 643.95 25.4 643.8 25.6 643.65 25.75 643.75 26
L 644.1 28.95
Q 644.2 29.3 644.4 29.4 644.6 29.5 645.1 29.3 645.7 29.05 646.5 28.8 647.3 28.55 648.1 28.4 648.9 28.2 649.65 28.1 650.35 28 650.9 28 651.75 28 652.7 28.2 653.65 28.4 654.5 28.9 655.3 29.35 655.85 30.15 656.35 30.9 656.35 31.9 656.35 33.25 655.55 34.15 654.75 35.1 653.55 35.7 652.4 36.3 651.15 36.55 649.9 36.8 649.05 36.8
L 647.15 36.8
Q 646.8 36.8 646.7 36.9 646.6 36.95 646.6 37.35
L 646.6 40.3
Q 646.6 40.6 646.7 40.7 646.8 40.8 647.15 40.8
L 649.1 40.8
Q 651.05 40.8 652.4 41.2 653.8 41.55 654.7 42.25 655.55 42.9 656 43.75 656.4 44.6 656.4 45.55 656.4 48.2 654.45 49.55 653.8 50 653.05 50.25 652.25 50.55 651.4 50.65 650.55 50.75 649.65 50.7 648.75 50.65 647.95 50.6 646.85 50.5 645.8 50.2 644.75 49.9 643.7 49.6 643.15 49.35 642.95 49.5 642.75 49.6 642.7 49.95
L 642.35 53
Q 642.3 53.35 642.5 53.5 642.65 53.7 643.05 53.8 644.5 54.35 646.25 54.65 648 54.95 649.75 54.95 652.05 54.95 654.2 54.35 656.35 53.8 657.85 52.55 659.35 51.3 660.2 49.55 661 47.75 661 45.65 661 43.45 659.65 41.65 658.3 39.9 655.65 38.75 656.75 38.25 657.7 37.5 658.65 36.75 659.35 35.75 660.05 34.8 660.45 33.75 660.8 32.65 660.8 31.55 660.8 29.55 659.95 28.05 659.1 26.55 657.75 25.65 656.45 24.75 654.7 24.3
M 631.45 24.4
Q 629.85 23.85 627.9 23.85 626.05 23.85 624.05 24.5 622.1 25.15 620.6 25.95 620.2 26.15 620.05 26.4 619.95 26.55 620.05 26.75
L 620.6 29.8
Q 620.7 30.15 621 30.2 621.3 30.2 621.65 30 623.45 28.95 624.95 28.5 626.5 28.05 628.15 28.05 629.9 28.05 631.05 29.3 632.25 30.55 632.25 32.45 632.25 34.15 630.65 36.75 629.05 39.4 625.7 43.35
L 619.6 50.6
Q 619.4 50.9 619.2 51.2 619.05 51.55 619.05 51.85
L 619.05 54.15
Q 619.05 54.65 619.8 54.65
L 636.85 54.65
Q 637.4 54.65 637.4 53.95
L 637.4 51.15
Q 637.4 50.55 636.85 50.55
L 625.1 50.55
Q 626.1 49.4 627.1 48.25 628.1 47.05 628.95 45.95 630.05 44.65 631.45 43.05 632.8 41.4 634 39.65 635.2 37.85 636 36 636.8 34.15 636.8 32.35 636.8 30.25 636.1 28.65 635.4 27.05 634.25 26 633.1 24.95 631.45 24.4
M 768.65 95.3
Q 765.45 95.3 763.5 96.75 761.55 98.25 760.45 100.5 759.35 102.8 758.95 105.5 758.6 108.25 758.6 110.7 758.6 118.05 761.05 122.1 763.5 126.15 768.65 126.15 771.2 126.15 773.05 125.15 774.9 124.05 776.15 122.1 777.4 120.15 778 117.25 778.6 114.35 778.6 110.7 778.6 109.05 778.4 107.3 778.25 105.5 777.85 103.8 777.45 102.1 776.75 100.55 776.05 99 774.9 97.8 773.85 96.65 772.25 95.95 770.7 95.3 768.65 95.3
M 773.75 105.55
Q 774.1 107.7 774.1 110.7 774.1 113.8 773.75 115.95 773.35 118.05 772.65 119.35 771.9 120.7 770.9 121.25 769.85 121.85 768.65 121.85 767.35 121.85 766.35 121.25 765.35 120.7 764.65 119.35 763.9 118.05 763.55 115.95 763.15 113.8 763.15 110.7 763.15 107.7 763.55 105.55 763.9 103.45 764.65 102.1 765.35 100.8 766.35 100.25 767.35 99.65 768.65 99.65 769.85 99.65 770.9 100.25 771.9 100.8 772.65 102.1 773.35 103.45 773.75 105.55
M 889.5 171.85
Q 889.45 172.1 889.6 172.25
L 891.4 174.4
Q 891.55 174.55 891.8 174.5 892.05 174.5 892.3 174.35
L 895.25 171.75 895.25 195.45
Q 895.25 195.95 895.8 195.95
L 899 195.95
Q 899.5 195.95 899.5 195.45
L 899.5 166.65
Q 899.5 165.85 899.35 165.7 899.25 165.55 898.55 165.55
L 896.45 165.55
Q 896.3 165.55 896.1 165.65 895.9 165.7 895.85 165.8
L 889.7 171.45
Q 889.5 171.65 889.5 171.85
M 782.75 24.2
Q 782.35 24.2 782.25 24.3 782.15 24.4 781.95 24.75
L 769.55 43.35
Q 769.4 43.5 769.25 43.8 769.05 44.1 769.05 44.35
L 769.05 47.35
Q 769.05 47.65 769.2 47.7 769.35 47.8 769.7 47.8
L 782.5 47.8 782.5 53.9
Q 782.5 54.3 782.65 54.45 782.8 54.6 783.25 54.6
L 786.15 54.6
Q 786.55 54.6 786.65 54.45 786.8 54.35 786.8 53.9
L 786.8 47.8 790.5 47.8
Q 790.85 47.8 791 47.7 791.15 47.6 791.15 47.2
L 791.15 44.3
Q 791.15 43.9 791 43.8 790.85 43.7 790.5 43.7
L 786.8 43.7 786.8 24.8
Q 786.8 24.45 786.75 24.35 786.7 24.2 786.4 24.2
L 782.75 24.2
M 773.9 43.7
L 782.5 30.65 782.5 43.7 773.9 43.7
M 759.45 24.4
Q 757.85 23.85 755.9 23.85 754.05 23.85 752.05 24.5 750.1 25.15 748.6 25.95 748.2 26.15 748.05 26.4 747.95 26.55 748.05 26.75
L 748.6 29.8
Q 748.7 30.15 749 30.2 749.3 30.2 749.65 30 751.45 28.95 752.95 28.5 754.5 28.05 756.15 28.05 757.9 28.05 759.05 29.3 760.25 30.55 760.25 32.45 760.25 34.15 758.65 36.75 757.05 39.4 753.7 43.35
L 747.6 50.6
Q 747.4 50.9 747.2 51.2 747.05 51.55 747.05 51.85
L 747.05 54.15
Q 747.05 54.65 747.8 54.65
L 764.85 54.65
Q 765.4 54.65 765.4 53.95
L 765.4 51.15
Q 765.4 50.55 764.85 50.55
L 753.1 50.55
Q 754.1 49.4 755.1 48.25 756.1 47.05 756.95 45.95 758.05 44.65 759.45 43.05 760.8 41.4 762 39.65 763.2 37.85 764 36 764.8 34.15 764.8 32.35 764.8 30.25 764.1 28.65 763.4 27.05 762.25 26 761.1 24.95 759.45 24.4
M 896.1 95.65
Q 895.9 95.7 895.85 95.8
L 889.7 101.45
Q 889.5 101.65 889.5 101.85 889.45 102.1 889.6 102.25
L 891.4 104.4
Q 891.55 104.55 891.8 104.5 892.05 104.5 892.3 104.35
L 895.25 101.75 895.25 125.45
Q 895.25 125.95 895.8 125.95
L 899 125.95
Q 899.5 125.95 899.5 125.45
L 899.5 96.65
Q 899.5 95.85 899.35 95.7 899.25 95.55 898.55 95.55
L 896.45 95.55
Q 896.3 95.55 896.1 95.65
M 916.3 24.7
Q 916.3 24.5 916.2 24.35 916.05 24.15 915.8 24.15
L 901.15 24.15
Q 900.55 24.15 900.45 24.3 900.3 24.4 900.3 24.85
L 900.1 39.6
Q 900.1 40.95 901.65 40.3 902.9 39.85 904.3 39.6 905.7 39.3 907 39.3 910.3 39.3 911.7 40.85 913.15 42.35 913.15 44.95 913.15 47.65 911.35 49.15 909.65 50.7 906.95 50.7 906.25 50.7 905.4 50.6 904.6 50.55 903.75 50.4 902.9 50.2 902.1 50 901.3 49.75 900.75 49.45 899.9 49.05 899.9 49.75
L 899.9 53
Q 899.9 53.3 899.9 53.45 899.95 53.55 900.2 53.75 900.85 54.05 901.8 54.25 902.7 54.5 903.65 54.65 904.6 54.75 905.4 54.85 906.25 54.9 906.65 54.9 908.95 54.9 911 54.25 913.1 53.6 914.5 52.3 917.65 49.5 917.65 44.45 917.65 42.35 916.9 40.7 916.15 39 914.85 37.8 913.55 36.65 911.8 36 910.05 35.4 908.05 35.4 906.1 35.4 904.5 35.75
L 904.65 28.35 915.8 28.35
Q 916.05 28.35 916.2 28.15 916.3 28 916.3 27.75
L 916.3 24.7
M 892 36
Q 892.8 34.15 892.8 32.35 892.8 30.25 892.1 28.65 891.4 27.05 890.25 26 889.1 24.95 887.45 24.4 885.85 23.85 883.9 23.85 882.05 23.85 880.05 24.5 878.1 25.15 876.6 25.95 876.2 26.15 876.05 26.4 875.95 26.55 876.05 26.75
L 876.6 29.8
Q 876.7 30.15 877 30.2 877.3 30.2 877.65 30 879.45 28.95 880.95 28.5 882.5 28.05 884.15 28.05 885.9 28.05 887.05 29.3 888.25 30.55 888.25 32.45 888.25 34.15 886.65 36.75 885.05 39.4 881.7 43.35
L 875.6 50.6
Q 875.4 50.9 875.2 51.2 875.05 51.55 875.05 51.85
L 875.05 54.15
Q 875.05 54.65 875.8 54.65
L 892.85 54.65
Q 893.4 54.65 893.4 53.95
L 893.4 51.15
Q 893.4 50.55 892.85 50.55
L 881.1 50.55
Q 882.1 49.4 883.1 48.25 884.1 47.05 884.95 45.95 886.05 44.65 887.45 43.05 888.8 41.4 890 39.65 891.2 37.85 892 36
M 1019.65 165.85
Q 1017.7 166.5 1016.2 167.3 1015.8 167.5 1015.65 167.75 1015.55 167.9 1015.65 168.1
L 1016.2 171.15
Q 1016.3 171.5 1016.6 171.55 1016.9 171.55 1017.25 171.35 1019.05 170.3 1020.55 169.85 1022.1 169.4 1023.75 169.4 1025.5 169.4 1026.65 170.65 1027.85 171.9 1027.85 173.8 1027.85 175.5 1026.25 178.1 1024.65 180.75 1021.3 184.7
L 1015.2 191.95
Q 1015 192.25 1014.8 192.55 1014.65 192.9 1014.65 193.2
L 1014.65 195.5
Q 1014.65 196 1015.4 196
L 1032.45 196
Q 1033 196 1033 195.3
L 1033 192.5
Q 1033 191.9 1032.45 191.9
L 1020.7 191.9
Q 1021.7 190.75 1022.7 189.6 1023.7 188.4 1024.55 187.3 1025.65 186 1027.05 184.4 1028.4 182.75 1029.6 181 1030.8 179.2 1031.6 177.35 1032.4 175.5 1032.4 173.7 1032.4 171.6 1031.7 170 1031 168.4 1029.85 167.35 1028.7 166.3 1027.05 165.75 1025.45 165.2 1023.5 165.2 1021.65 165.2 1019.65 165.85
M 1029.85 307.35
Q 1028.7 306.3 1027.05 305.75 1025.45 305.2 1023.5 305.2 1021.65 305.2 1019.65 305.85 1017.7 306.5 1016.2 307.3 1015.8 307.5 1015.65 307.75 1015.55 307.9 1015.65 308.1
L 1016.2 311.15
Q 1016.3 311.5 1016.6 311.55 1016.9 311.55 1017.25 311.35 1019.05 310.3 1020.55 309.85 1022.1 309.4 1023.75 309.4 1025.5 309.4 1026.65 310.65 1027.85 311.9 1027.85 313.8 1027.85 315.5 1026.25 318.1 1024.65 320.75 1021.3 324.7
L 1015.2 331.95
Q 1015 332.25 1014.8 332.55 1014.65 332.9 1014.65 333.2
L 1014.65 335.5
Q 1014.65 336 1015.4 336
L 1032.45 336
Q 1033 336 1033 335.3
L 1033 332.5
Q 1033 331.9 1032.45 331.9
L 1020.7 331.9
Q 1021.7 330.75 1022.7 329.6 1023.7 328.4 1024.55 327.3 1025.65 326 1027.05 324.4 1028.4 322.75 1029.6 321 1030.8 319.2 1031.6 317.35 1032.4 315.5 1032.4 313.7 1032.4 311.6 1031.7 310 1031 308.4 1029.85 307.35
M 1032.15 379.7
Q 1032.4 379.7 1032.55 379.5 1032.65 379.35 1032.65 379.1
L 1032.65 376.05
Q 1032.65 375.85 1032.55 375.7 1032.4 375.5 1032.15 375.5
L 1017.5 375.5
Q 1016.9 375.5 1016.8 375.65 1016.65 375.75 1016.65 376.2
L 1016.45 390.95
Q 1016.45 392.3 1018 391.65 1019.25 391.2 1020.65 390.95 1022.05 390.65 1023.35 390.65 1026.65 390.65 1028.05 392.2 1029.5 393.7 1029.5 396.3 1029.5 399 1027.7 400.5 1026 402.05 1023.3 402.05 1022.6 402.05 1021.75 401.95 1020.95 401.9 1020.1 401.75 1019.25 401.55 1018.45 401.35 1017.65 401.1 1017.1 400.8 1016.25 400.4 1016.25 401.1
L 1016.25 404.35
Q 1016.25 404.65 1016.25 404.8 1016.3 404.9 1016.55 405.1 1017.2 405.4 1018.15 405.6 1019.05 405.85 1020 406 1020.95 406.1 1021.75 406.2 1022.6 406.25 1023 406.25 1025.3 406.25 1027.35 405.6 1029.45 404.95 1030.85 403.65 1034 400.85 1034 395.8 1034 393.7 1033.25 392.05 1032.5 390.35 1031.2 389.15 1029.9 388 1028.15 387.35 1026.4 386.75 1024.4 386.75 1022.45 386.75 1020.85 387.1
L 1021 379.7 1032.15 379.7
M 1019.8 244.5
Q 1020.05 244.5 1020.3 244.35
L 1023.25 241.75 1023.25 265.45
Q 1023.25 265.95 1023.8 265.95
L 1027 265.95
Q 1027.5 265.95 1027.5 265.45
L 1027.5 236.65
Q 1027.5 235.85 1027.35 235.7 1027.25 235.55 1026.55 235.55
L 1024.45 235.55
Q 1024.3 235.55 1024.1 235.65 1023.9 235.7 1023.85 235.8
L 1017.7 241.45
Q 1017.5 241.65 1017.5 241.85 1017.45 242.1 1017.6 242.25
L 1019.4 244.4
Q 1019.55 244.55 1019.8 244.5
M 1015.65 97.75
Q 1015.55 97.9 1015.65 98.1
L 1016.2 101.15
Q 1016.3 101.5 1016.6 101.55 1016.9 101.55 1017.25 101.35 1019.05 100.3 1020.55 99.85 1022.1 99.4 1023.75 99.4 1025.5 99.4 1026.65 100.65 1027.85 101.9 1027.85 103.8 1027.85 105.5 1026.25 108.1 1024.65 110.75 1021.3 114.7
L 1015.2 121.95
Q 1015 122.25 1014.8 122.55 1014.65 122.9 1014.65 123.2
L 1014.65 125.5
Q 1014.65 126 1015.4 126
L 1032.45 126
Q 1033 126 1033 125.3
L 1033 122.5
Q 1033 121.9 1032.45 121.9
L 1020.7 121.9
Q 1021.7 120.75 1022.7 119.6 1023.7 118.4 1024.55 117.3 1025.65 116 1027.05 114.4 1028.4 112.75 1029.6 111 1030.8 109.2 1031.6 107.35 1032.4 105.5 1032.4 103.7 1032.4 101.6 1031.7 100 1031 98.4 1029.85 97.35 1028.7 96.3 1027.05 95.75 1025.45 95.2 1023.5 95.2 1021.65 95.2 1019.65 95.85 1017.7 96.5 1016.2 97.3 1015.8 97.5 1015.65 97.75
M 1044.8 24.6
Q 1043.9 24.25 1042.45 24.05 1041.05 23.85 1039.9 23.85 1036.15 23.85 1033.6 25.15 1031.05 26.5 1029.45 28.75 1027.9 30.95 1027.2 34 1026.5 37 1026.5 40.4 1026.5 47.85 1029.05 51.4 1031.6 54.95 1036.3 54.95 1038.6 54.95 1040.45 54.15 1042.3 53.35 1043.6 51.9 1044.9 50.55 1045.55 48.6 1046.25 46.75 1046.25 44.55 1046.25 42.25 1045.55 40.45 1044.85 38.6 1043.55 37.3 1042.3 36 1040.5 35.3 1038.75 34.6 1036.55 34.6 1035.8 34.6 1035 34.85 1034.2 35.05 1033.45 35.4 1032.7 35.75 1032.1 36.2 1031.5 36.65 1031.15 37.15 1031.4 35.2 1032 33.5 1032.55 31.85 1033.55 30.6 1034.55 29.35 1036 28.65 1037.5 28 1039.55 28 1040.95 28 1042.15 28.1 1043.3 28.2 1044.35 28.6 1044.9 28.85 1045 28.3
L 1045.1 25.1
Q 1045.15 24.7 1044.8 24.6
M 1031.15 44.35
Q 1031.15 41.9 1032.65 40.35 1034.1 38.8 1036.7 38.8 1039.15 38.8 1040.5 40.4 1041.85 41.95 1041.85 44.75 1041.85 47.6 1040.35 49.3 1038.8 50.95 1036.4 50.95 1035.3 50.95 1034.3 50.45 1033.35 49.95 1032.65 49.05 1031.95 48.15 1031.55 46.9 1031.15 45.75 1031.15 44.35
M 1016.25 32.45
Q 1016.25 34.15 1014.65 36.75 1013.05 39.4 1009.7 43.35
L 1003.6 50.6
Q 1003.4 50.9 1003.2 51.2 1003.05 51.55 1003.05 51.85
L 1003.05 54.15
Q 1003.05 54.65 1003.8 54.65
L 1020.85 54.65
Q 1021.4 54.65 1021.4 53.95
L 1021.4 51.15
Q 1021.4 50.55 1020.85 50.55
L 1009.1 50.55
Q 1010.1 49.4 1011.1 48.25 1012.1 47.05 1012.95 45.95 1014.05 44.65 1015.45 43.05 1016.8 41.4 1018 39.65 1019.2 37.85 1020 36 1020.8 34.15 1020.8 32.35 1020.8 30.25 1020.1 28.65 1019.4 27.05 1018.25 26 1017.1 24.95 1015.45 24.4 1013.85 23.85 1011.9 23.85 1010.05 23.85 1008.05 24.5 1006.1 25.15 1004.6 25.95 1004.2 26.15 1004.05 26.4 1003.95 26.55 1004.05 26.75
L 1004.6 29.8
Q 1004.7 30.15 1005 30.2 1005.3 30.2 1005.65 30 1007.45 28.95 1008.95 28.5 1010.5 28.05 1012.15 28.05 1013.9 28.05 1015.05 29.3 1016.25 30.55 1016.25 32.45 Z"/>

<path fill="#FFFFFF" stroke="none" d="
M 448 355
L 448 310.95 448 285 352 285 320 285 320 310.95 320 355 352 355 448 355
M 387.05 305.65
Q 388.8 306.1 390.1 307 391.45 307.9 392.3 309.4 393.15 310.9 393.15 312.9 393.15 314 392.8 315.1 392.4 316.15 391.7 317.1 391 318.1 390.05 318.85 389.1 319.6 388 320.1 390.65 321.25 392 323 393.35 324.8 393.35 327 393.35 329.1 392.55 330.9 391.7 332.65 390.2 333.9 388.7 335.15 386.55 335.7 384.4 336.3 382.1 336.3 380.35 336.3 378.6 336 376.85 335.7 375.4 335.15 375 335.05 374.85 334.85 374.65 334.7 374.7 334.35
L 375.05 331.3
Q 375.1 330.95 375.3 330.85 375.5 330.7 376.05 330.95 377.1 331.25 378.15 331.55 379.2 331.85 380.3 331.95 381.1 332 382 332.05 382.9 332.1 383.75 332 384.6 331.9 385.4 331.6 386.15 331.35 386.8 330.9 388.75 329.55 388.75 326.9 388.75 325.95 388.35 325.1 387.9 324.25 387.05 323.6 386.15 322.9 384.75 322.55 383.4 322.15 381.45 322.15
L 379.5 322.15
Q 379.15 322.15 379.05 322.05 378.95 321.95 378.95 321.65
L 378.95 318.7
Q 378.95 318.3 379.05 318.25 379.15 318.15 379.5 318.15
L 381.4 318.15
Q 382.25 318.15 383.5 317.9 384.75 317.65 385.9 317.05 387.1 316.45 387.9 315.5 388.7 314.6 388.7 313.25 388.7 312.25 388.2 311.5 387.65 310.7 386.85 310.25 386 309.75 385.05 309.55 384.1 309.35 383.25 309.35 382.7 309.35 382 309.45 381.25 309.55 380.45 309.75 379.65 309.9 378.85 310.15 378.05 310.4 377.45 310.65 376.95 310.85 376.75 310.75 376.55 310.65 376.45 310.3
L 376.1 307.35
Q 376 307.1 376.15 306.95 376.3 306.75 376.7 306.55 378.45 305.95 380.15 305.55 381.8 305.2 383.5 305.2 385.3 305.2 387.05 305.65
M 448 310.95
L 448 355 512 355 540.15 355 576 355 576 310.95 576 285 540.15 285 512 285 448 285 448 310.95
M 519.1 305.7
Q 519.15 305.8 519.15 306.15
L 519.15 325.05 522.85 325.05
Q 523.2 325.05 523.35 325.15 523.5 325.25 523.5 325.65
L 523.5 328.55
Q 523.5 328.95 523.35 329.05 523.2 329.15 522.85 329.15
L 519.15 329.15 519.15 335.25
Q 519.15 335.7 519 335.8 518.9 335.95 518.5 335.95
L 515.6 335.95
Q 515.15 335.95 515 335.8 514.85 335.65 514.85 335.25
L 514.85 329.15 502.05 329.15
Q 501.7 329.15 501.55 329.05 501.4 329 501.4 328.7
L 501.4 325.7
Q 501.4 325.45 501.6 325.15 501.75 324.85 501.9 324.7
L 514.3 306.1
Q 514.5 305.75 514.6 305.65 514.7 305.55 515.1 305.55
L 518.75 305.55
Q 519.05 305.55 519.1 305.7
M 506.25 325.05
L 514.85 325.05 514.85 312 506.25 325.05
M 448 380.95
L 448 355 352 355 320 355 320 380.95 320 425 352 425 448 425 448 380.95
M 379.5 376.75
Q 381.45 375.3 384.65 375.3 386.7 375.3 388.25 375.95 389.85 376.65 390.9 377.8 392.05 379 392.75 380.55 393.45 382.1 393.85 383.8 394.25 385.5 394.4 387.3 394.6 389.05 394.6 390.7 394.6 394.35 394 397.25 393.4 400.15 392.15 402.1 390.9 404.05 389.05 405.15 387.2 406.15 384.65 406.15 379.5 406.15 377.05 402.1 374.6 398.05 374.6 390.7 374.6 388.25 374.95 385.5 375.35 382.8 376.45 380.5 377.55 378.25 379.5 376.75
M 384.65 379.65
Q 383.35 379.65 382.35 380.25 381.35 380.8 380.65 382.1 379.9 383.45 379.55 385.55 379.15 387.7 379.15 390.7 379.15 393.8 379.55 395.95 379.9 398.05 380.65 399.35 381.35 400.7 382.35 401.25 383.35 401.85 384.65 401.85 385.85 401.85 386.9 401.25 387.9 400.7 388.65 399.35 389.35 398.05 389.75 395.95 390.1 393.8 390.1 390.7 390.1 387.7 389.75 385.55 389.35 383.45 388.65 382.1 387.9 380.8 386.9 380.25 385.85 379.65 384.65 379.65
M 448 355
L 448 380.95 448 425 512 425 540.15 425 576 425 576 380.95 576 355 540.15 355 512 355 448 355
M 505.6 382.25
Q 505.45 382.1 505.5 381.85 505.5 381.65 505.7 381.45
L 511.85 375.8
Q 511.9 375.7 512.1 375.65 512.3 375.55 512.45 375.55
L 514.55 375.55
Q 515.25 375.55 515.35 375.7 515.5 375.85 515.5 376.65
L 515.5 405.45
Q 515.5 405.95 515 405.95
L 511.8 405.95
Q 511.25 405.95 511.25 405.45
L 511.25 381.75 508.3 384.35
Q 508.05 384.5 507.8 384.5 507.55 384.55 507.4 384.4
L 505.6 382.25
M 448 240.95
L 448 215 352 215 320 215 320 240.95 320 285 352 285 448 285 448 240.95
M 383.85 235.8
Q 383.9 235.7 384.1 235.65 384.3 235.55 384.45 235.55
L 386.55 235.55
Q 387.25 235.55 387.35 235.7 387.5 235.85 387.5 236.65
L 387.5 265.45
Q 387.5 265.95 387 265.95
L 383.8 265.95
Q 383.25 265.95 383.25 265.45
L 383.25 241.75 380.3 244.35
Q 380.05 244.5 379.8 244.5 379.55 244.55 379.4 244.4
L 377.6 242.25
Q 377.45 242.1 377.5 241.85 377.5 241.65 377.7 241.45
L 383.85 235.8
M 448 215
L 448 240.95 448 285 512 285 540.15 285 576 285 576 240.95 576 215 540.15 215 512 215 448 215
M 505.25 241.35
Q 504.9 241.55 504.6 241.55 504.3 241.5 504.2 241.15
L 503.65 238.1
Q 503.55 237.9 503.65 237.75 503.8 237.5 504.2 237.3 505.7 236.5 507.65 235.85 509.65 235.2 511.5 235.2 513.45 235.2 515.05 235.75 516.7 236.3 517.85 237.35 519 238.4 519.7 240 520.4 241.6 520.4 243.7 520.4 245.5 519.6 247.35 518.8 249.2 517.6 251 516.4 252.75 515.05 254.4 513.65 256 512.55 257.3 511.7 258.4 510.7 259.6 509.7 260.75 508.7 261.9
L 520.45 261.9
Q 521 261.9 521 262.5
L 521 265.3
Q 521 266 520.45 266
L 503.4 266
Q 502.65 266 502.65 265.5
L 502.65 263.2
Q 502.65 262.9 502.8 262.55 503 262.25 503.2 261.95
L 509.3 254.7
Q 512.65 250.75 514.25 248.1 515.85 245.5 515.85 243.8 515.85 241.9 514.65 240.65 513.5 239.4 511.75 239.4 510.1 239.4 508.55 239.85 507.05 240.3 505.25 241.35
M 448 145
L 352 145 320 145 320 215 352 215 448 215 448 145
M 387.35 165.7
Q 387.5 165.85 387.5 166.65
L 387.5 195.45
Q 387.5 195.95 387 195.95
L 383.8 195.95
Q 383.25 195.95 383.25 195.45
L 383.25 171.75 380.3 174.35
Q 380.05 174.5 379.8 174.5 379.55 174.55 379.4 174.4
L 377.6 172.25
Q 377.45 172.1 377.5 171.85 377.5 171.65 377.7 171.45
L 383.85 165.8
Q 383.9 165.7 384.1 165.65 384.3 165.55 384.45 165.55
L 386.55 165.55
Q 387.25 165.55 387.35 165.7
M 352 145
L 448 145 448 75 352 75 320 75 320 145 352 145
M 388.25 95.95
Q 389.85 96.65 390.9 97.8 392.05 99 392.75 100.55 393.45 102.1 393.85 103.8 394.25 105.5 394.4 107.3 394.6 109.05 394.6 110.7 394.6 114.35 394 117.25 393.4 120.15 392.15 122.1 390.9 124.05 389.05 125.15 387.2 126.15 384.65 126.15 379.5 126.15 377.05 122.1 374.6 118.05 374.6 110.7 374.6 108.25 374.95 105.5 375.35 102.8 376.45 100.5 377.55 98.25 379.5 96.75 381.45 95.3 384.65 95.3 386.7 95.3 388.25 95.95
M 388.65 102.1
Q 387.9 100.8 386.9 100.25 385.85 99.65 384.65 99.65 383.35 99.65 382.35 100.25 381.35 100.8 380.65 102.1 379.9 103.45 379.55 105.55 379.15 107.7 379.15 110.7 379.15 113.8 379.55 115.95 379.9 118.05 380.65 119.35 381.35 120.7 382.35 121.25 383.35 121.85 384.65 121.85 385.85 121.85 386.9 121.25 387.9 120.7 388.65 119.35 389.35 118.05 389.75 115.95 390.1 113.8 390.1 110.7 390.1 107.7 389.75 105.55 389.35 103.45 388.65 102.1
M 540.15 145
L 512 145 448 145 448 215 512 215 540.15 215 576 215 576 145 540.15 145
M 517.85 167.35
Q 519 168.4 519.7 170 520.4 171.6 520.4 173.7 520.4 175.5 519.6 177.35 518.8 179.2 517.6 181 516.4 182.75 515.05 184.4 513.65 186 512.55 187.3 511.7 188.4 510.7 189.6 509.7 190.75 508.7 191.9
L 520.45 191.9
Q 521 191.9 521 192.5
L 521 195.3
Q 521 196 520.45 196
L 503.4 196
Q 502.65 196 502.65 195.5
L 502.65 193.2
Q 502.65 192.9 502.8 192.55 503 192.25 503.2 191.95
L 509.3 184.7
Q 512.65 180.75 514.25 178.1 515.85 175.5 515.85 173.8 515.85 171.9 514.65 170.65 513.5 169.4 511.75 169.4 510.1 169.4 508.55 169.85 507.05 170.3 505.25 171.35 504.9 171.55 504.6 171.55 504.3 171.5 504.2 171.15
L 503.65 168.1
Q 503.55 167.9 503.65 167.75 503.8 167.5 504.2 167.3 505.7 166.5 507.65 165.85 509.65 165.2 511.5 165.2 513.45 165.2 515.05 165.75 516.7 166.3 517.85 167.35
M 540.15 75
L 512 75 448 75 448 145 512 145 540.15 145 576 145 576 75 540.15 75
M 511.85 95.8
Q 511.9 95.7 512.1 95.65 512.3 95.55 512.45 95.55
L 514.55 95.55
Q 515.25 95.55 515.35 95.7 515.5 95.85 515.5 96.65
L 515.5 125.45
Q 515.5 125.95 515 125.95
L 511.8 125.95
Q 511.25 125.95 511.25 125.45
L 511.25 101.75 508.3 104.35
Q 508.05 104.5 507.8 104.5 507.55 104.55 507.4 104.4
L 505.6 102.25
Q 505.45 102.1 505.5 101.85 505.5 101.65 505.7 101.45
L 511.85 95.8
M 832 355
L 832 380.95 832 425 928 425 960 425 960 380.95 960 355 928 355 832 355
M 885.4 395.7
Q 885.4 395.45 885.6 395.15 885.75 394.85 885.9 394.7
L 898.3 376.1
Q 898.5 375.75 898.6 375.65 898.7 375.55 899.1 375.55
L 902.75 375.55
Q 903.05 375.55 903.1 375.7 903.15 375.8 903.15 376.15
L 903.15 395.05 906.85 395.05
Q 907.2 395.05 907.35 395.15 907.5 395.25 907.5 395.65
L 907.5 398.55
Q 907.5 398.95 907.35 399.05 907.2 399.15 906.85 399.15
L 903.15 399.15 903.15 405.25
Q 903.15 405.7 903 405.8 902.9 405.95 902.5 405.95
L 899.6 405.95
Q 899.15 405.95 899 405.8 898.85 405.65 898.85 405.25
L 898.85 399.15 886.05 399.15
Q 885.7 399.15 885.55 399.05 885.4 399 885.4 398.7
L 885.4 395.7
M 898.85 395.05
L 898.85 382 890.25 395.05 898.85 395.05
M 960 285
L 928 285 832 285 832 310.95 832 355 928 355 960 355 960 310.95 960 285
M 889.6 312.25
Q 889.45 312.1 889.5 311.85 889.5 311.65 889.7 311.45
L 895.85 305.8
Q 895.9 305.7 896.1 305.65 896.3 305.55 896.45 305.55
L 898.55 305.55
Q 899.25 305.55 899.35 305.7 899.5 305.85 899.5 306.65
L 899.5 335.45
Q 899.5 335.95 899 335.95
L 895.8 335.95
Q 895.25 335.95 895.25 335.45
L 895.25 311.75 892.3 314.35
Q 892.05 314.5 891.8 314.5 891.55 314.55 891.4 314.4
L 889.6 312.25
M 960 240.95
L 960 215 928 215 832 215 832 240.95 832 285 928 285 960 285 960 240.95
M 896.65 235.3
Q 898.7 235.3 900.25 235.95 901.85 236.65 902.9 237.8 904.05 239 904.75 240.55 905.45 242.1 905.85 243.8 906.25 245.5 906.4 247.3 906.6 249.05 906.6 250.7 906.6 254.35 906 257.25 905.4 260.15 904.15 262.1 902.9 264.05 901.05 265.15 899.2 266.15 896.65 266.15 891.5 266.15 889.05 262.1 886.6 258.05 886.6 250.7 886.6 248.25 886.95 245.5 887.35 242.8 888.45 240.5 889.55 238.25 891.5 236.75 893.45 235.3 896.65 235.3
M 898.9 240.25
Q 897.85 239.65 896.65 239.65 895.35 239.65 894.35 240.25 893.35 240.8 892.65 242.1 891.9 243.45 891.55 245.55 891.15 247.7 891.15 250.7 891.15 253.8 891.55 255.95 891.9 258.05 892.65 259.35 893.35 260.7 894.35 261.25 895.35 261.85 896.65 261.85 897.85 261.85 898.9 261.25 899.9 260.7 900.65 259.35 901.35 258.05 901.75 255.95 902.1 253.8 902.1 250.7 902.1 247.7 901.75 245.55 901.35 243.45 900.65 242.1 899.9 240.8 898.9 240.25
M 704 380.95
L 704 355 672 355 576 355 576 380.95 576 425 672 425 704 425 704 380.95
M 658.25 384
Q 658.25 385.6 657.75 387.1 657.5 387.95 657 388.7 656.1 390.95 654.6 393.1 650.1 399.65 639.8 405.45 625.25 397.05 622.25 387 621.95 386.1 621.9 385.05 621.8 384.6 621.8 384 621.8 380.1 624.5 377.25 627.4 374.45 631.35 374.45 635.3 374.45 638 377.25 639.2 378.5 639.95 379.9
L 640.05 380.1
Q 640.05 380 640.05 379.9 640.7 378.5 641.85 377.25 644.75 374.45 648.7 374.45 652.6 374.45 655.35 377.25 658.25 380.1 658.25 384
M 704 355
L 704 380.95 704 425 768 425 796.15 425 832 425 832 380.95 832 355 796.15 355 768 355 704 355
M 760.7 376.55
Q 762.45 375.95 764.15 375.55 765.8 375.2 767.5 375.2 769.3 375.2 771.05 375.65 772.8 376.1 774.1 377 775.45 377.9 776.3 379.4 777.15 380.9 777.15 382.9 777.15 384 776.8 385.1 776.4 386.15 775.7 387.1 775 388.1 774.05 388.85 773.1 389.6 772 390.1 774.65 391.25 776 393 777.35 394.8 777.35 397 777.35 399.1 776.55 400.9 775.7 402.65 774.2 403.9 772.7 405.15 770.55 405.7 768.4 406.3 766.1 406.3 764.35 406.3 762.6 406 760.85 405.7 759.4 405.15 759 405.05 758.85 404.85 758.65 404.7 758.7 404.35
L 759.05 401.3
Q 759.1 400.95 759.3 400.85 759.5 400.7 760.05 400.95 761.1 401.25 762.15 401.55 763.2 401.85 764.3 401.95 765.1 402 766 402.05 766.9 402.1 767.75 402 768.6 401.9 769.4 401.6 770.15 401.35 770.8 400.9 772.75 399.55 772.75 396.9 772.75 395.95 772.35 395.1 771.9 394.25 771.05 393.6 770.15 392.9 768.75 392.55 767.4 392.15 765.45 392.15
L 763.5 392.15
Q 763.15 392.15 763.05 392.05 762.95 391.95 762.95 391.65
L 762.95 388.7
Q 762.95 388.3 763.05 388.25 763.15 388.15 763.5 388.15
L 765.4 388.15
Q 766.25 388.15 767.5 387.9 768.75 387.65 769.9 387.05 771.1 386.45 771.9 385.5 772.7 384.6 772.7 383.25 772.7 382.25 772.2 381.5 771.65 380.7 770.85 380.25 770 379.75 769.05 379.55 768.1 379.35 767.25 379.35 766.7 379.35 766 379.45 765.25 379.55 764.45 379.75 763.65 379.9 762.85 380.15 762.05 380.4 761.45 380.65 760.95 380.85 760.75 380.75 760.55 380.65 760.45 380.3
L 760.1 377.35
Q 760 377.1 760.15 376.95 760.3 376.75 760.7 376.55
M 704 285
L 672 285 576 285 576 310.95 576 355 672 355 704 355 704 310.95 704 285
M 649.25 322.05
Q 650 323.7 650 325.8 650 330.85 646.85 333.65 645.45 334.95 643.35 335.6 641.3 336.25 639 336.25 638.6 336.25 637.75 336.2 636.95 336.1 636 336 635.05 335.85 634.15 335.6 633.2 335.4 632.55 335.1 632.3 334.9 632.25 334.8 632.25 334.65 632.25 334.35
L 632.25 331.1
Q 632.25 330.4 633.1 330.8 633.65 331.1 634.45 331.35 635.25 331.55 636.1 331.75 636.95 331.9 637.75 331.95 638.6 332.05 639.3 332.05 642 332.05 643.7 330.5 645.5 329 645.5 326.3 645.5 323.7 644.05 322.2 642.65 320.65 639.35 320.65 638.05 320.65 636.65 320.95 635.25 321.2 634 321.65 632.45 322.3 632.45 320.95
L 632.65 306.2
Q 632.65 305.75 632.8 305.65 632.9 305.5 633.5 305.5
L 648.15 305.5
Q 648.4 305.5 648.55 305.7 648.65 305.85 648.65 306.05
L 648.65 309.1
Q 648.65 309.35 648.55 309.5 648.4 309.7 648.15 309.7
L 637 309.7 636.85 317.1
Q 638.45 316.75 640.4 316.75 642.4 316.75 644.15 317.35 645.9 318 647.2 319.15 648.5 320.35 649.25 322.05
M 704 240.95
L 704 215 672 215 576 215 576 240.95 576 285 672 285 704 285 704 240.95
M 649.15 242.9
Q 649.15 244 648.8 245.1 648.4 246.15 647.7 247.1 647 248.1 646.05 248.85 645.1 249.6 644 250.1 646.65 251.25 648 253 649.35 254.8 649.35 257 649.35 259.1 648.55 260.9 647.7 262.65 646.2 263.9 644.7 265.15 642.55 265.7 640.4 266.3 638.1 266.3 636.35 266.3 634.6 266 632.85 265.7 631.4 265.15 631 265.05 630.85 264.85 630.65 264.7 630.7 264.35
L 631.05 261.3
Q 631.1 260.95 631.3 260.85 631.5 260.7 632.05 260.95 633.1 261.25 634.15 261.55 635.2 261.85 636.3 261.95 637.1 262 638 262.05 638.9 262.1 639.75 262 640.6 261.9 641.4 261.6 642.15 261.35 642.8 260.9 644.75 259.55 644.75 256.9 644.75 255.95 644.35 255.1 643.9 254.25 643.05 253.6 642.15 252.9 640.75 252.55 639.4 252.15 637.45 252.15
L 635.5 252.15
Q 635.15 252.15 635.05 252.05 634.95 251.95 634.95 251.65
L 634.95 248.7
Q 634.95 248.3 635.05 248.25 635.15 248.15 635.5 248.15
L 637.4 248.15
Q 638.25 248.15 639.5 247.9 640.75 247.65 641.9 247.05 643.1 246.45 643.9 245.5 644.7 244.6 644.7 243.25 644.7 242.25 644.2 241.5 643.65 240.7 642.85 240.25 642 239.75 641.05 239.55 640.1 239.35 639.25 239.35 638.7 239.35 638 239.45 637.25 239.55 636.45 239.75 635.65 239.9 634.85 240.15 634.05 240.4 633.45 240.65 632.95 240.85 632.75 240.75 632.55 240.65 632.45 240.3
L 632.1 237.35
Q 632 237.1 632.15 236.95 632.3 236.75 632.7 236.55 634.45 235.95 636.15 235.55 637.8 235.2 639.5 235.2 641.3 235.2 643.05 235.65 644.8 236.1 646.1 237 647.45 237.9 648.3 239.4 649.15 240.9 649.15 242.9
M 796.15 285
L 768 285 704 285 704 310.95 704 355 768 355 796.15 355 832 355 832 310.95 832 285 796.15 285
M 773.25 313.75
L 788.85 314.15 776.45 323.6 780.85 338.6 768.05 329.75 755.25 338.6 759.65 323.6 747.3 314.15 762.9 313.75 768.05 299 773.25 313.75
M 796.15 215
L 768 215 704 215 704 240.95 704 285 768 285 796.15 285 832 285 832 240.95 832 215 796.15 215
M 770.3 236.1
Q 770.5 235.75 770.6 235.65 770.7 235.55 771.1 235.55
L 774.75 235.55
Q 775.05 235.55 775.1 235.7 775.15 235.8 775.15 236.15
L 775.15 255.05 778.85 255.05
Q 779.2 255.05 779.35 255.15 779.5 255.25 779.5 255.65
L 779.5 258.55
Q 779.5 258.95 779.35 259.05 779.2 259.15 778.85 259.15
L 775.15 259.15 775.15 265.25
Q 775.15 265.7 775 265.8 774.9 265.95 774.5 265.95
L 771.6 265.95
Q 771.15 265.95 771 265.8 770.85 265.65 770.85 265.25
L 770.85 259.15 758.05 259.15
Q 757.7 259.15 757.55 259.05 757.4 259 757.4 258.7
L 757.4 255.7
Q 757.4 255.45 757.6 255.15 757.75 254.85 757.9 254.7
L 770.3 236.1
M 762.25 255.05
L 770.85 255.05 770.85 242 762.25 255.05
M 796.15 145
L 768 145 704 145 704 215 768 215 796.15 215 832 215 832 145 796.15 145
M 760.45 170.5
Q 761.55 168.25 763.5 166.75 765.45 165.3 768.65 165.3 770.7 165.3 772.25 165.95 773.85 166.65 774.9 167.8 776.05 169 776.75 170.55 777.45 172.1 777.85 173.8 778.25 175.5 778.4 177.3 778.6 179.05 778.6 180.7 778.6 184.35 778 187.25 777.4 190.15 776.15 192.1 774.9 194.05 773.05 195.15 771.2 196.15 768.65 196.15 763.5 196.15 761.05 192.1 758.6 188.05 758.6 180.7 758.6 178.25 758.95 175.5 759.35 172.8 760.45 170.5
M 768.65 169.65
Q 767.35 169.65 766.35 170.25 765.35 170.8 764.65 172.1 763.9 173.45 763.55 175.55 763.15 177.7 763.15 180.7 763.15 183.8 763.55 185.95 763.9 188.05 764.65 189.35 765.35 190.7 766.35 191.25 767.35 191.85 768.65 191.85 769.85 191.85 770.9 191.25 771.9 190.7 772.65 189.35 773.35 188.05 773.75 185.95 774.1 183.8 774.1 180.7 774.1 177.7 773.75 175.55 773.35 173.45 772.65 172.1 771.9 170.8 770.9 170.25 769.85 169.65 768.65 169.65
M 704 145
L 672 145 576 145 576 215 672 215 704 215 704 145
M 649.35 187
Q 649.35 189.1 648.55 190.9 647.7 192.65 646.2 193.9 644.7 195.15 642.55 195.7 640.4 196.3 638.1 196.3 636.35 196.3 634.6 196 632.85 195.7 631.4 195.15 631 195.05 630.85 194.85 630.65 194.7 630.7 194.35
L 631.05 191.3
Q 631.1 190.95 631.3 190.85 631.5 190.7 632.05 190.95 633.1 191.25 634.15 191.55 635.2 191.85 636.3 191.95 637.1 192 638 192.05 638.9 192.1 639.75 192 640.6 191.9 641.4 191.6 642.15 191.35 642.8 190.9 644.75 189.55 644.75 186.9 644.75 185.95 644.35 185.1 643.9 184.25 643.05 183.6 642.15 182.9 640.75 182.55 639.4 182.15 637.45 182.15
L 635.5 182.15
Q 635.15 182.15 635.05 182.05 634.95 181.95 634.95 181.65
L 634.95 178.7
Q 634.95 178.3 635.05 178.25 635.15 178.15 635.5 178.15
L 637.4 178.15
Q 638.25 178.15 639.5 177.9 640.75 177.65 641.9 177.05 643.1 176.45 643.9 175.5 644.7 174.6 644.7 173.25 644.7 172.25 644.2 171.5 643.65 170.7 642.85 170.25 642 169.75 641.05 169.55 640.1 169.35 639.25 169.35 638.7 169.35 638 169.45 637.25 169.55 636.45 169.75 635.65 169.9 634.85 170.15 634.05 170.4 633.45 170.65 632.95 170.85 632.75 170.75 632.55 170.65 632.45 170.3
L 632.1 167.35
Q 632 167.1 632.15 166.95 632.3 166.75 632.7 166.55 634.45 165.95 636.15 165.55 637.8 165.2 639.5 165.2 641.3 165.2 643.05 165.65 644.8 166.1 646.1 167 647.45 167.9 648.3 169.4 649.15 170.9 649.15 172.9 649.15 174 648.8 175.1 648.4 176.15 647.7 177.1 647 178.1 646.05 178.85 645.1 179.6 644 180.1 646.65 181.25 648 183 649.35 184.8 649.35 187
M 704 75
L 696 75 672 75 576 75 576 145 672 145 704 145 704 75
M 648.45 121.9
Q 649 121.9 649 122.5
L 649 125.3
Q 649 126 648.45 126
L 631.4 126
Q 630.65 126 630.65 125.5
L 630.65 123.2
Q 630.65 122.9 630.8 122.55 631 122.25 631.2 121.95
L 637.3 114.7
Q 640.65 110.75 642.25 108.1 643.85 105.5 643.85 103.8 643.85 101.9 642.65 100.65 641.5 99.4 639.75 99.4 638.1 99.4 636.55 99.85 635.05 100.3 633.25 101.35 632.9 101.55 632.6 101.55 632.3 101.5 632.2 101.15
L 631.65 98.1
Q 631.55 97.9 631.65 97.75 631.8 97.5 632.2 97.3 633.7 96.5 635.65 95.85 637.65 95.2 639.5 95.2 641.45 95.2 643.05 95.75 644.7 96.3 645.85 97.35 647 98.4 647.7 100 648.4 101.6 648.4 103.7 648.4 105.5 647.6 107.35 646.8 109.2 645.6 111 644.4 112.75 643.05 114.4 641.65 116 640.55 117.3 639.7 118.4 638.7 119.6 637.7 120.75 636.7 121.9
L 648.45 121.9
M 832 145
L 832 75 796.15 75 768 75 704 75 704 145 768 145 796.15 145 832 145
M 763.5 96.75
Q 765.45 95.3 768.65 95.3 770.7 95.3 772.25 95.95 773.85 96.65 774.9 97.8 776.05 99 776.75 100.55 777.45 102.1 777.85 103.8 778.25 105.5 778.4 107.3 778.6 109.05 778.6 110.7 778.6 114.35 778 117.25 777.4 120.15 776.15 122.1 774.9 124.05 773.05 125.15 771.2 126.15 768.65 126.15 763.5 126.15 761.05 122.1 758.6 118.05 758.6 110.7 758.6 108.25 758.95 105.5 759.35 102.8 760.45 100.5 761.55 98.25 763.5 96.75
M 774.1 110.7
Q 774.1 107.7 773.75 105.55 773.35 103.45 772.65 102.1 771.9 100.8 770.9 100.25 769.85 99.65 768.65 99.65 767.35 99.65 766.35 100.25 765.35 100.8 764.65 102.1 763.9 103.45 763.55 105.55 763.15 107.7 763.15 110.7 763.15 113.8 763.55 115.95 763.9 118.05 764.65 119.35 765.35 120.7 766.35 121.25 767.35 121.85 768.65 121.85 769.85 121.85 770.9 121.25 771.9 120.7 772.65 119.35 773.35 118.05 773.75 115.95 774.1 113.8 774.1 110.7
M 960 145
L 928 145 832 145 832 215 928 215 960 215 960 145
M 889.6 172.25
Q 889.45 172.1 889.5 171.85 889.5 171.65 889.7 171.45
L 895.85 165.8
Q 895.9 165.7 896.1 165.65 896.3 165.55 896.45 165.55
L 898.55 165.55
Q 899.25 165.55 899.35 165.7 899.5 165.85 899.5 166.65
L 899.5 195.45
Q 899.5 195.95 899 195.95
L 895.8 195.95
Q 895.25 195.95 895.25 195.45
L 895.25 171.75 892.3 174.35
Q 892.05 174.5 891.8 174.5 891.55 174.55 891.4 174.4
L 889.6 172.25
M 960 75
L 952 75 928 75 832 75 832 145 928 145 960 145 960 75
M 895.85 95.8
Q 895.9 95.7 896.1 95.65 896.3 95.55 896.45 95.55
L 898.55 95.55
Q 899.25 95.55 899.35 95.7 899.5 95.85 899.5 96.65
L 899.5 125.45
Q 899.5 125.95 899 125.95
L 895.8 125.95
Q 895.25 125.95 895.25 125.45
L 895.25 101.75 892.3 104.35
Q 892.05 104.5 891.8 104.5 891.55 104.55 891.4 104.4
L 889.6 102.25
Q 889.45 102.1 889.5 101.85 889.5 101.65 889.7 101.45
L 895.85 95.8
M 1088 215
L 1088 145 960 145 960 215 1088 215
M 1016.2 167.3
Q 1017.7 166.5 1019.65 165.85 1021.65 165.2 1023.5 165.2 1025.45 165.2 1027.05 165.75 1028.7 166.3 1029.85 167.35 1031 168.4 1031.7 170 1032.4 171.6 1032.4 173.7 1032.4 175.5 1031.6 177.35 1030.8 179.2 1029.6 181 1028.4 182.75 1027.05 184.4 1025.65 186 1024.55 187.3 1023.7 188.4 1022.7 189.6 1021.7 190.75 1020.7 191.9
L 1032.45 191.9
Q 1033 191.9 1033 192.5
L 1033 195.3
Q 1033 196 1032.45 196
L 1015.4 196
Q 1014.65 196 1014.65 195.5
L 1014.65 193.2
Q 1014.65 192.9 1014.8 192.55 1015 192.25 1015.2 191.95
L 1021.3 184.7
Q 1024.65 180.75 1026.25 178.1 1027.85 175.5 1027.85 173.8 1027.85 171.9 1026.65 170.65 1025.5 169.4 1023.75 169.4 1022.1 169.4 1020.55 169.85 1019.05 170.3 1017.25 171.35 1016.9 171.55 1016.6 171.55 1016.3 171.5 1016.2 171.15
L 1015.65 168.1
Q 1015.55 167.9 1015.65 167.75 1015.8 167.5 1016.2 167.3
M 1088 355
L 1088 310.95 1088 285 960 285 960 310.95 960 355 1088 355
M 1027.05 305.75
Q 1028.7 306.3 1029.85 307.35 1031 308.4 1031.7 310 1032.4 311.6 1032.4 313.7 1032.4 315.5 1031.6 317.35 1030.8 319.2 1029.6 321 1028.4 322.75 1027.05 324.4 1025.65 326 1024.55 327.3 1023.7 328.4 1022.7 329.6 1021.7 330.75 1020.7 331.9
L 1032.45 331.9
Q 1033 331.9 1033 332.5
L 1033 335.3
Q 1033 336 1032.45 336
L 1015.4 336
Q 1014.65 336 1014.65 335.5
L 1014.65 333.2
Q 1014.65 332.9 1014.8 332.55 1015 332.25 1015.2 331.95
L 1021.3 324.7
Q 1024.65 320.75 1026.25 318.1 1027.85 315.5 1027.85 313.8 1027.85 311.9 1026.65 310.65 1025.5 309.4 1023.75 309.4 1022.1 309.4 1020.55 309.85 1019.05 310.3 1017.25 311.35 1016.9 311.55 1016.6 311.55 1016.3 311.5 1016.2 311.15
L 1015.65 308.1
Q 1015.55 307.9 1015.65 307.75 1015.8 307.5 1016.2 307.3 1017.7 306.5 1019.65 305.85 1021.65 305.2 1023.5 305.2 1025.45 305.2 1027.05 305.75
M 1088 380.95
L 1088 355 960 355 960 380.95 960 425 1088 425 1088 380.95
M 1032.55 379.5
Q 1032.4 379.7 1032.15 379.7
L 1021 379.7 1020.85 387.1
Q 1022.45 386.75 1024.4 386.75 1026.4 386.75 1028.15 387.35 1029.9 388 1031.2 389.15 1032.5 390.35 1033.25 392.05 1034 393.7 1034 395.8 1034 400.85 1030.85 403.65 1029.45 404.95 1027.35 405.6 1025.3 406.25 1023 406.25 1022.6 406.25 1021.75 406.2 1020.95 406.1 1020 406 1019.05 405.85 1018.15 405.6 1017.2 405.4 1016.55 405.1 1016.3 404.9 1016.25 404.8 1016.25 404.65 1016.25 404.35
L 1016.25 401.1
Q 1016.25 400.4 1017.1 400.8 1017.65 401.1 1018.45 401.35 1019.25 401.55 1020.1 401.75 1020.95 401.9 1021.75 401.95 1022.6 402.05 1023.3 402.05 1026 402.05 1027.7 400.5 1029.5 399 1029.5 396.3 1029.5 393.7 1028.05 392.2 1026.65 390.65 1023.35 390.65 1022.05 390.65 1020.65 390.95 1019.25 391.2 1018 391.65 1016.45 392.3 1016.45 390.95
L 1016.65 376.2
Q 1016.65 375.75 1016.8 375.65 1016.9 375.5 1017.5 375.5
L 1032.15 375.5
Q 1032.4 375.5 1032.55 375.7 1032.65 375.85 1032.65 376.05
L 1032.65 379.1
Q 1032.65 379.35 1032.55 379.5
M 1088 240.95
L 1088 215 960 215 960 240.95 960 285 1088 285 1088 240.95
M 1020.3 244.35
Q 1020.05 244.5 1019.8 244.5 1019.55 244.55 1019.4 244.4
L 1017.6 242.25
Q 1017.45 242.1 1017.5 241.85 1017.5 241.65 1017.7 241.45
L 1023.85 235.8
Q 1023.9 235.7 1024.1 235.65 1024.3 235.55 1024.45 235.55
L 1026.55 235.55
Q 1027.25 235.55 1027.35 235.7 1027.5 235.85 1027.5 236.65
L 1027.5 265.45
Q 1027.5 265.95 1027 265.95
L 1023.8 265.95
Q 1023.25 265.95 1023.25 265.45
L 1023.25 241.75 1020.3 244.35
M 1088 145
L 1088 75 960 75 960 145 1088 145
M 1015.65 98.1
Q 1015.55 97.9 1015.65 97.75 1015.8 97.5 1016.2 97.3 1017.7 96.5 1019.65 95.85 1021.65 95.2 1023.5 95.2 1025.45 95.2 1027.05 95.75 1028.7 96.3 1029.85 97.35 1031 98.4 1031.7 100 1032.4 101.6 1032.4 103.7 1032.4 105.5 1031.6 107.35 1030.8 109.2 1029.6 111 1028.4 112.75 1027.05 114.4 1025.65 116 1024.55 117.3 1023.7 118.4 1022.7 119.6 1021.7 120.75 1020.7 121.9
L 1032.45 121.9
Q 1033 121.9 1033 122.5
L 1033 125.3
Q 1033 126 1032.45 126
L 1015.4 126
Q 1014.65 126 1014.65 125.5
L 1014.65 123.2
Q 1014.65 122.9 1014.8 122.55 1015 122.25 1015.2 121.95
L 1021.3 114.7
Q 1024.65 110.75 1026.25 108.1 1027.85 105.5 1027.85 103.8 1027.85 101.9 1026.65 100.65 1025.5 99.4 1023.75 99.4 1022.1 99.4 1020.55 99.85 1019.05 100.3 1017.25 101.35 1016.9 101.55 1016.6 101.55 1016.3 101.5 1016.2 101.15
L 1015.65 98.1 Z"/>

<path fill="#49C97F" stroke="none" d="
M 657.75 387.1
Q 658.25 385.6 658.25 384 658.25 380.1 655.35 377.25 652.6 374.45 648.7 374.45 644.75 374.45 641.85 377.25 640.7 378.5 640.05 379.9 640.05 380 640.05 380.1
L 639.95 379.9
Q 639.2 378.5 638 377.25 635.3 374.45 631.35 374.45 627.4 374.45 624.5 377.25 621.8 380.1 621.8 384 621.8 384.6 621.9 385.05 621.95 386.1 622.25 387 625.25 397.05 639.8 405.45 650.1 399.65 654.6 393.1 656.1 390.95 657 388.7 657.5 387.95 657.75 387.1 Z"/>

<path fill="#6091E9" stroke="none" d="
M 788.85 314.15
L 773.25 313.75 768.05 299 762.9 313.75 747.3 314.15 759.65 323.6 755.25 338.6 768.05 329.75 780.85 338.6 776.45 323.6 788.85 314.15 Z"/>
</g>

<path id="Layer0_0_1_STROKES" stroke="#86BA9E" stroke-width="3" stroke-linejoin="round" stroke-linecap="round" fill="none" d="
M 1088 75
L 1088 5 960 5
M 1088 75
L 1088 145 1088 215 1088 240.95 1088 285 1088 310.95 1088 355 1088 380.95 1088 425 960 425 928 425 832 425 796.15 425 768 425 704 425 672 425 576 425 540.15 425 512 425 448 425 352 425 320 425 192 425 192 355 192 285 192 215 192 145 192 75 192 5 320 5 352 5 448 5 512 5 540.15 5 576 5 672 5 696 5 704 5 768 5 796.15 5 832 5 928 5 952 5 960 5"/>

<path id="Layer0_0_2_STROKES" stroke="#86BA9E" stroke-width="2" stroke-linejoin="round" stroke-linecap="round" fill="none" d="
M 960 5
L 960 75 1088 75
M 832 75
L 928 75 952 75 960 75 960 145 1088 145
M 832 5
L 832 75 832 145 928 145 960 145 960 215 1088 215
M 704 75
L 768 75 796.15 75 832 75
M 576 75
L 672 75 696 75 704 75 704 5
M 576 75
L 576 145 672 145 704 145 704 75
M 704 145
L 768 145 796.15 145 832 145 832 215 928 215 960 215 960 240.95 960 285 1088 285
M 704 145
L 704 215 768 215 796.15 215 832 215 832 240.95 832 285 928 285 960 285 960 310.95 960 355 1088 355
M 704 215
L 704 240.95 704 285 768 285 796.15 285 832 285 832 310.95 832 355 928 355 960 355 960 380.95 960 425
M 576 145
L 576 215 672 215 704 215
M 576 215
L 576 240.95 576 285 672 285 704 285 704 310.95 704 355 768 355 796.15 355 832 355 832 380.95 832 425
M 704 355
L 704 380.95 704 425
M 576 285
L 576 310.95 576 355 672 355 704 355
M 576 5
L 576 75 540.15 75 512 75 448 75 448 145 512 145 540.15 145 576 145
M 448 5
L 448 75 352 75 320 75 320 145 352 145 448 145 448 215 512 215 540.15 215 576 215
M 448 215
L 448 240.95 448 285 512 285 540.15 285 576 285
M 576 425
L 576 380.95 576 355 540.15 355 512 355 448 355 448 380.95 448 425
M 448 285
L 448 310.95 448 355 352 355 320 355 320 380.95 320 425
M 320 215
L 352 215 448 215
M 320 285
L 352 285 448 285
M 320 5
L 320 75 192 75
M 192 145
L 320 145 320 215 320 240.95 320 285 320 310.95 320 355 192 355
M 192 215
L 320 215
M 192 285
L 320 285"/>
</defs>

<g transform="matrix( 1, 0, 0, 1, 0,0) ">
<use xlink:href="#Layer0_0_FILL"/>

<use xlink:href="#Layer0_0_1_STROKES"/>

<use xlink:href="#Layer0_0_2_STROKES"/>
</g>
</svg>
