<?xml version="1.0" encoding="utf-8"?>
<!-- Generator: Adobe Illustrator 24.1.1, SVG Export Plug-In . SVG Version: 6.00 Build 0)  -->
<!DOCTYPE svg PUBLIC "-//W3C//DTD SVG 1.1//EN" "http://www.w3.org/Graphics/SVG/1.1/DTD/svg11.dtd">
<svg version="1.1" id="레이어_1" xmlns="http://www.w3.org/2000/svg" xmlns:xlink="http://www.w3.org/1999/xlink" x="0px"
	 y="0px" width="95px" height="185px" viewBox="0 0 95 185" style="enable-background:new 0 0 95 185;" xml:space="preserve">
<g>
	<path d="M92.5,184h-90c-0.8,0-1.5-0.7-1.5-1.5V2.5C1,1.7,1.7,1,2.5,1h90C93.3,1,94,1.7,94,2.5v180C94,183.3,93.3,184,92.5,184z
		 M4,181h87V4H4V181z"/>
</g>
<path d="M69.9,86.6h-6.8V69.6h-3.5v43.6h3.5V89.8h6.8V86.6z M56.5,97.5c-1.6,0.3-3.7,0.7-6.4,1.1c-2.7,0.3-5.1,0.6-7.3,0.6l-7.9,0.1
	V73.7h-3.5v28.7l11.3-0.1c2.5-0.1,5.1-0.3,7.7-0.7c2.7-0.4,4.7-0.7,6.2-1V97.5z"/>
<g>
</g>
<g>
</g>
<g>
</g>
<g>
</g>
<g>
</g>
<g>
</g>
<g>
</g>
<g>
</g>
<g>
</g>
<g>
</g>
<g>
</g>
<g>
</g>
<g>
</g>
<g>
</g>
<g>
</g>
</svg>
