
<svg xmlns="http://www.w3.org/2000/svg" version="1.1" xmlns:xlink="http://www.w3.org/1999/xlink" preserveAspectRatio="none" x="0px" y="0px" width="1280px" height="720px" viewBox="0 0 1280 720">
<defs>
<g id="Layer0_0_FILL">
<path fill="#4BAEF3" stroke="none" d="
M 686.45 219.35
Q 686.45 208.85 675.95 208.85
L 652.15 208.85
Q 641.65 208.85 641.65 219.35
L 641.65 239.35
Q 641.65 249.85 652.15 249.85
L 675.95 249.85
Q 686.45 249.85 686.45 239.35
L 686.45 219.35
M 671.75 219.35
Q 671.85 219.55 671.85 219.85
L 671.85 237.85
Q 671.85 238.45 671.45 238.7 671.25 238.8 671 238.85 670.7 238.9 670.4 238.9 670.15 238.9 669.95 238.85 669.7 238.8 669.55 238.7 669.15 238.45 669.15 237.85
L 669.15 219.85
Q 669.15 219.55 669.25 219.35 669.35 219.15 669.55 219 669.7 218.9 669.95 218.85 670.15 218.75 670.4 218.75 670.7 218.75 671 218.85 671.25 218.9 671.45 219 671.65 219.15 671.75 219.35
M 656.1 222
Q 656.4 221.6 656.75 221.25 657.1 220.9 657.5 220.65 657.95 220.45 658.45 220.3 658.9 220.2 659.4 220.2 660.5 220.2 661.35 220.65 661.75 220.9 662.15 221.25 662.55 221.6 662.85 222 663 222.2 663.1 222.45 663.25 222.7 663.35 222.95
L 665.6 222.95 665.6 220.25
Q 665.6 219.6 666 219.4 666.2 219.3 666.45 219.25 666.65 219.15 666.9 219.15 667.2 219.15 667.45 219.25 667.75 219.3 667.95 219.4 668.35 219.6 668.35 220.25
L 668.35 237.25
Q 668.35 237.5 668.25 237.75 668.15 237.95 667.95 238.1 667.75 238.2 667.45 238.3 667.2 238.35 666.9 238.35 666.65 238.35 666.45 238.3 666.2 238.2 666 238.1 665.8 237.95 665.7 237.75 665.6 237.5 665.6 237.25
L 665.6 230.7 663.45 230.7
Q 663.3 231 663.15 231.3 663 231.55 662.85 231.8 662.2 232.65 661.35 233.1 660.5 233.6 659.4 233.6 658.9 233.6 658.45 233.45 657.95 233.35 657.5 233.1 657.1 232.9 656.75 232.55 656.4 232.25 656.1 231.8 655.8 231.35 655.55 230.85 655.3 230.35 655.15 229.7 654.95 229.1 654.9 228.4 654.8 227.7 654.8 226.9 654.8 226.1 654.9 225.4 654.95 224.7 655.15 224.05 655.3 223.45 655.55 222.95 655.8 222.45 656.1 222
M 661.35 226.9
Q 661.35 225.95 661.2 225.15 661.1 224.4 660.85 223.85 660.55 223.35 660.2 223.05 659.85 222.8 659.45 222.8 659 222.8 658.6 223.05 658.25 223.35 658 223.85 657.5 224.95 657.5 226.9 657.5 227.85 657.6 228.6 657.75 229.35 658 229.9 658.25 230.45 658.6 230.7 659 231 659.45 231 659.85 231 660.2 230.7 660.55 230.45 660.85 229.9 661.1 229.35 661.2 228.6 661.35 227.85 661.35 226.9
M 664.05 227.5
Q 664.05 227.8 664 228.1
L 665.6 228.1 665.6 225.5 664 225.5
Q 664 225.85 664.05 226.2 664.05 226.55 664.05 226.9 664.05 227.2 664.05 227.5 Z"/>

<path fill="#FFFFFF" stroke="none" d="
M 656.75 221.25
Q 656.4 221.6 656.1 222 655.8 222.45 655.55 222.95 655.3 223.45 655.15 224.05 654.95 224.7 654.9 225.4 654.8 226.1 654.8 226.9 654.8 227.7 654.9 228.4 654.95 229.1 655.15 229.7 655.3 230.35 655.55 230.85 655.8 231.35 656.1 231.8 656.4 232.25 656.75 232.55 657.1 232.9 657.5 233.1 657.95 233.35 658.45 233.45 658.9 233.6 659.4 233.6 660.5 233.6 661.35 233.1 662.2 232.65 662.85 231.8 663 231.55 663.15 231.3 663.3 231 663.45 230.7
L 665.6 230.7 665.6 237.25
Q 665.6 237.5 665.7 237.75 665.8 237.95 666 238.1 666.2 238.2 666.45 238.3 666.65 238.35 666.9 238.35 667.2 238.35 667.45 238.3 667.75 238.2 667.95 238.1 668.15 237.95 668.25 237.75 668.35 237.5 668.35 237.25
L 668.35 220.25
Q 668.35 219.6 667.95 219.4 667.75 219.3 667.45 219.25 667.2 219.15 666.9 219.15 666.65 219.15 666.45 219.25 666.2 219.3 666 219.4 665.6 219.6 665.6 220.25
L 665.6 222.95 663.35 222.95
Q 663.25 222.7 663.1 222.45 663 222.2 662.85 222 662.55 221.6 662.15 221.25 661.75 220.9 661.35 220.65 660.5 220.2 659.4 220.2 658.9 220.2 658.45 220.3 657.95 220.45 657.5 220.65 657.1 220.9 656.75 221.25
M 664 228.1
Q 664.05 227.8 664.05 227.5 664.05 227.2 664.05 226.9 664.05 226.55 664.05 226.2 664 225.85 664 225.5
L 665.6 225.5 665.6 228.1 664 228.1
M 661.2 225.15
Q 661.35 225.95 661.35 226.9 661.35 227.85 661.2 228.6 661.1 229.35 660.85 229.9 660.55 230.45 660.2 230.7 659.85 231 659.45 231 659 231 658.6 230.7 658.25 230.45 658 229.9 657.75 229.35 657.6 228.6 657.5 227.85 657.5 226.9 657.5 224.95 658 223.85 658.25 223.35 658.6 223.05 659 222.8 659.45 222.8 659.85 222.8 660.2 223.05 660.55 223.35 660.85 223.85 661.1 224.4 661.2 225.15
M 671.85 219.85
Q 671.85 219.55 671.75 219.35 671.65 219.15 671.45 219 671.25 218.9 671 218.85 670.7 218.75 670.4 218.75 670.15 218.75 669.95 218.85 669.7 218.9 669.55 219 669.35 219.15 669.25 219.35 669.15 219.55 669.15 219.85
L 669.15 237.85
Q 669.15 238.45 669.55 238.7 669.7 238.8 669.95 238.85 670.15 238.9 670.4 238.9 670.7 238.9 671 238.85 671.25 238.8 671.45 238.7 671.85 238.45 671.85 237.85
L 671.85 219.85 Z"/>
</g>

<path id="Layer0_0_1_STROKES" stroke="#F08100" stroke-width="3" stroke-linejoin="round" stroke-linecap="round" fill="none" d="
M 709.05 263.2
L 709.05 209.2 975 209.2 975 263.2 975 316.2 975 369.2 975 423.2 975 475.7 975 529.2 709.05 529.2 709.05 475.7 709.05 423.2 709.05 369.2 709.05 316.2 709.05 263.2 724.05 263.2
M 709.05 316.2
L 724.05 316.2
M 709.05 369.2
L 724.05 369.2
M 709.05 423.2
L 724.05 423.2
M 709.05 475.7
L 724.05 475.7
M 960.5 423.2
L 975 423.2
M 960.5 475.7
L 975 475.7
M 960.5 263.2
L 975 263.2
M 960.5 316.2
L 975 316.2
M 960.5 369.2
L 975 369.2"/>

<path id="Layer0_1_1_STROKES" stroke="#00a0ff" stroke-width="4" stroke-linejoin="miter" stroke-linecap="butt" stroke-miterlimit="3" fill="none" d="
M -302.95 -0.95
L -39 -0.95"/>

<path id="Layer0_2_1_STROKES" stroke="#00a0ff" stroke-width="4" stroke-linejoin="miter" stroke-linecap="butt" stroke-miterlimit="3" fill="none" d="
M -302.95 -0.95
L -39 -0.95"/>
</defs>

<g transform="matrix( 1, 0, 0, 1, 0,0) ">
<use xlink:href="#Layer0_0_FILL"/>

<use xlink:href="#Layer0_0_1_STROKES"/>
</g>

<g transform="matrix( 1, 0, 0, 1, 1013,423.65) ">
<use xlink:href="#Layer0_1_1_STROKES"/>
</g>

<g transform="matrix( 1, 0, 0, 1, 1013,317.65) ">
<use xlink:href="#Layer0_2_1_STROKES"/>
</g>
</svg>
