<?xml version="1.0" encoding="utf-8"?>
<!-- Generator: Adobe Illustrator 23.0.0, SVG Export Plug-In . SVG Version: 6.00 Build 0)  -->
<svg version="1.1" id="Layer_1" xmlns="http://www.w3.org/2000/svg" xmlns:xlink="http://www.w3.org/1999/xlink" x="0px" y="0px"
	 width="384.8px" height="191px" viewBox="0 0 384.8 191" style="enable-background:new 0 0 384.8 191;" xml:space="preserve">
<g>
	<rect x="6.2" y="60" style="fill:#D7E8AF;" width="360.3" height="44.3"/>
	<rect x="6.2" y="60" style="fill:none;stroke:#007E35;stroke-width:1.5627;stroke-linejoin:bevel;" width="360.3" height="44.3"/>
	<path style="fill:none;stroke:#007E35;stroke-width:0.9767;stroke-dasharray:2.93,1.9533;" d="M86.3,60v44.3 M126.3,60v44.3
		 M286.4,60v44.3 M206.3,60v44.3 M46.2,60v44.3 M246.4,60v44.3 M166.3,60v44.3 M326.4,60v44.3 M6.2,60v44.3 M366.5,104.3V60"/>
	<line style="fill:none;stroke:#000000;stroke-width:1.9533;stroke-linejoin:bevel;" x1="6.2" y1="41.7" x2="366.5" y2="41.7"/>
	<path style="fill:none;stroke:#000000;stroke-width:0.9767;" d="M6.2,25.8v16 M126.3,41.7v-16 M246.4,41.7v-16 M366.5,41.7v-16"/>
	<path style="fill:none;stroke:#000000;stroke-width:0.586;" d="M46.2,31.4v10.3 M86.3,31.4v10.3 M206.3,31.4v10.3 M286.4,31.4v10.3
		 M326.4,31.4v10.3 M166.3,31.4v10.3"/>
	<g>
		<g>
			<g>
				<path d="M366.8,1.7c0.9,0,1.7,0.1,2.3,0.3c0.7,0.2,1.2,0.5,1.7,0.9c0.4,0.4,0.8,0.8,1,1.4s0.3,1.1,0.3,1.6v0.1
					c0,0.4-0.1,0.8-0.2,1.2c-0.1,0.4-0.3,0.8-0.5,1.1s-0.5,0.7-0.9,0.9s-0.8,0.5-1.3,0.6c0.5,0.1,1,0.2,1.4,0.4
					c0.4,0.2,0.8,0.4,1.1,0.8c0.3,0.3,0.6,0.7,0.8,1.1c0.2,0.4,0.3,0.9,0.3,1.5V14c0,0.6-0.1,1.3-0.4,1.9c-0.2,0.6-0.6,1.1-1.1,1.6
					s-1.1,0.8-1.9,1.1s-1.6,0.4-2.6,0.4c-1.9,0-3.5-0.5-4.8-1.4c-0.3-0.2-0.5-0.4-0.5-0.7s0-0.6,0.2-0.8c0.2-0.3,0.4-0.5,0.6-0.5
					c0.3-0.1,0.5,0,0.8,0.2c0.6,0.4,1.1,0.7,1.7,0.9c0.6,0.2,1.2,0.3,1.9,0.3c0.7,0,1.2-0.1,1.7-0.2s0.8-0.4,1.1-0.6
					s0.5-0.6,0.6-0.9c0.1-0.3,0.2-0.7,0.2-1.1v-0.2c0-0.5-0.1-0.9-0.3-1.3s-0.4-0.6-0.8-0.8s-0.7-0.4-1.2-0.5s-0.9-0.1-1.5-0.1h-1.3
					c-0.3,0-0.5-0.1-0.6-0.3c-0.1-0.2-0.2-0.4-0.2-0.7s0.1-0.5,0.2-0.7c0.1-0.2,0.3-0.3,0.6-0.3h1.1c1,0,1.7-0.2,2.4-0.7
					s0.9-1.1,0.9-2.1V6.2c0-0.7-0.3-1.3-0.8-1.7s-1.3-0.7-2.3-0.7c-0.7,0-1.2,0.1-1.7,0.4c-0.5,0.2-0.9,0.6-1.3,1
					c-0.2,0.2-0.5,0.3-0.7,0.3s-0.5-0.1-0.7-0.4c-0.2-0.2-0.3-0.5-0.3-0.7s0.1-0.5,0.3-0.7c0.5-0.6,1.1-1,1.8-1.4
					C364.9,1.9,365.8,1.7,366.8,1.7z"/>
			</g>
			<g>
				<path d="M7.1,1.7c2.1,0,3.6,0.7,4.6,2.1c0.9,1.4,1.4,3.4,1.4,6v1.1c0,2.6-0.5,4.6-1.4,6c-0.9,1.4-2.5,2.1-4.6,2.1
					c-2.1,0-3.6-0.7-4.6-2.1c-0.9-1.4-1.4-3.4-1.4-6V9.8c0-2.6,0.5-4.6,1.4-6C3.5,2.4,5,1.7,7.1,1.7z M7.1,3.9
					c-0.7,0-1.3,0.1-1.7,0.4S4.6,4.9,4.3,5.4S3.8,6.5,3.7,7.2C3.6,8,3.5,8.9,3.5,9.9v0.8c0,1,0.1,1.9,0.2,2.7s0.3,1.4,0.6,1.9
					s0.7,0.9,1.1,1.1c0.5,0.2,1,0.4,1.7,0.4c0.7,0,1.3-0.1,1.7-0.4c0.5-0.2,0.8-0.6,1.1-1.1s0.5-1.1,0.6-1.9s0.2-1.6,0.2-2.7V9.9
					c0-1-0.1-1.9-0.2-2.7c-0.1-0.8-0.3-1.4-0.6-1.9S9.4,4.5,8.9,4.3S7.8,3.9,7.1,3.9z"/>
			</g>
		</g>
		<g>
			<path d="M125.3,1.9c0.4,0,0.7,0.1,0.9,0.2c0.2,0.2,0.3,0.4,0.3,0.8v14.9c0,0.3-0.1,0.6-0.4,0.8s-0.5,0.2-0.8,0.2
				s-0.6-0.1-0.8-0.2s-0.4-0.4-0.4-0.8V4.6l-3.5,2.2c-0.3,0.2-0.6,0.2-0.8,0.1c-0.3-0.1-0.5-0.3-0.6-0.6c-0.1-0.2-0.2-0.5-0.1-0.8
				s0.2-0.5,0.5-0.6l4.2-2.5c0.3-0.2,0.6-0.3,0.8-0.4C124.8,1.9,125.1,1.9,125.3,1.9z"/>
			<path d="M246.2,1.7c0.9,0,1.7,0.1,2.3,0.3c0.6,0.2,1.2,0.5,1.6,0.9c0.4,0.4,0.8,0.8,1,1.3s0.3,1.1,0.3,1.6v0.2
				c0,0.9-0.2,1.7-0.6,2.5s-1,1.5-1.8,2.4l-5.4,5.7h7.6c0.3,0,0.5,0.1,0.6,0.3s0.2,0.4,0.2,0.7s-0.1,0.5-0.2,0.7s-0.3,0.3-0.6,0.3
				h-9c-0.6,0-1-0.1-1.3-0.3s-0.4-0.5-0.4-1c0-0.2,0.1-0.4,0.2-0.6s0.3-0.4,0.5-0.7l5.7-6c0.4-0.4,0.8-0.8,1-1.2s0.5-0.7,0.6-0.9
				s0.3-0.6,0.3-0.9s0.1-0.6,0.1-0.9V6.1c0-0.7-0.2-1.2-0.7-1.6s-1.2-0.6-2.1-0.6c-0.8,0-1.4,0.2-2,0.5c-0.5,0.3-1,0.8-1.4,1.4
				c-0.2,0.2-0.4,0.4-0.6,0.4c-0.3,0-0.5,0-0.8-0.2c-0.3-0.2-0.4-0.4-0.5-0.7c-0.1-0.3,0-0.5,0.2-0.8c0.5-0.8,1.2-1.4,2-2
				C244,2,245,1.7,246.2,1.7z"/>
		</g>
		<path style="fill:#E4007F;" d="M321.7,131.4c0,0,0.1-0.6,0.4,0.2l0.4,0.5l0.5,0.3l0.1,0.5c0-1.2-0.8,3.6-11.8-0.1
			c-0.1,0-3.9-2.2-7.8-6.6c0.9-0.1-4-1.7-1.1-7.4c1-1.1,4.3-4.2,7.4-1.6c2.9,1.4,2.7,7.2-0.7,8.3c-6.6,3.3-11.8-3.1-13.6-6.5
			c-2.2-3.9-3.1-7-3.3-7.8c0.1-0.1,1.5,6.5,6.3,11.9c2.3,2.6,6.5,4.2,9.6,2.8c3-1.2,3.8-4.1,3.6-4.7c0.1-0.1-0.1,2.5-2.5,4
			c-2.3,1.8-6.6,1.3-9.2-1c-5.3-4.6-7-11.5-7.2-12.3c0.1-0.1,1.5,6,6,10.9c4.9,6.5,13.8,1.1,12.4-1c1.2,0.1-4.4,7.1-10.2,2.4
			c-5-3.7-6.7-10.1-7.2-11.2c0,0,1.5,4,2.2,4.9l-0.8-1.8c0.4,1,1,1.9,1.5,2.8l1,1.6c-0.2,0.1-2.5-4.3-2.4-4.7
			c0.3-0.2-1.7-1.6,3.4,5.7c0,0,0.7,1.1,2.8,2.5c1.6,1.4,6.8,2.7,9-1.9c0.8-2-1.8-5.3-4.4-4.3c-2.6,1-4.9,4.1-2.1,6.7
			C308.2,128.8,314.6,135.2,321.7,131.4"/>
		<path style="fill:none;stroke:#F19EC2;stroke-width:5.860024e-03;" d="M323.5,132.9c0-0.1-3,2.1-8.3,1.4
			c-5.3-1.4-10.2-5.3-13.8-11.7c-0.3,0.5-0.5-3.5,2.1-5c1.8-3,9.6-1.6,8.6,4.4c-1.6,5-7.6,5.2-10.4,3.5c-3-1.6-4.2-3.8-4.7-4.3
			c-0.4,0.2-4.4-7-5.3-11.7"/>
		<path style="fill:none;stroke:#E4007F;stroke-width:5.860024e-03;" d="M311.2,122.6c0.8,0-4.2,5.9-9.8,2
			c-4.9-3.2-6.8-9.2-7.7-11.1 M312,122.2c0.5-0.5,0.1-3.4-1.5-4.7c-1.6-2.4-6.2-1.5-7.4,0.5c-2.6,1.4-2,6.1-0.7,6.9
			c1,1.4,1.8,2.2,1.8,2.2c2.4,2.2,6,6.6,11.1,7.4c4.9,0.7,8.2-1.6,8.2-1.5"/>
		<path style="fill:none;stroke:#F19EC2;stroke-width:5.860024e-03;" d="M308.6,117.9c-0.1,0,1.3,0.7,2,2.6c0.4,2-2,4.5-4.8,4.4
			c-5.9-0.3-8.8-6.9-9.1-7.4"/>
		<path style="fill:#E4007F;" d="M314.1,140.3c0,0,0.1,0.5-0.3-0.2l-0.3-0.5l-0.3-0.3l-0.2-0.4c0,0,0.3-0.3,3.8-2.4c0,0,1.3-1,3.3-2
			c0,0,0.9-0.5,2.3-1.1c0.4,0.4,2.1-2.5,1.7,0.6l-1.8-2.4c-2.5-3.3-5.1-6.8-5.4-7.4c0,0,5.9,8.2,6.4,8.6c0,0-5.7-7.8-6-8.6
			c0,0,5.5,7.6,6.2,8.1c0,0-5-7-5.4-8c0,0,0.9,1.4,1.2,1.7l-0.4-0.7l0.8,1l0.4,0.6c0,0-1-1.7-1-1.8c0,0-0.6-0.6,1.6,2.1
			c0,0,1.1,1.8,3.4,4.6c2.6,1.7-1,2.7-2.8,4C319.1,136.9,316.7,138.5,314.1,140.3"/>
		<path style="fill:none;stroke:#F19EC2;stroke-width:5.860024e-03;" d="M312.8,138.7c0,0,4.3-2.6,8.5-5c0,0,0.6-0.3,1.5-0.8
			l1.5-0.8c-0.7,3.7-0.9,0.1-1.4,0.5c-1.7-2.2-3.5-4.5-3.8-5c0,0-1.9-2.4-2.8-4"/>
		<path style="fill:none;stroke:#E4007F;stroke-width:5.860024e-03;" d="M323.3,132c0,0-4.5-6.1-5.4-7.5 M322.9,132.5
			c0.1,0.2,0.5,0.6,0.9,1.2c1.4-3.6-0.9-0.3-1.2-0.8c-1.5,0.8-2.9,1.5-2.9,1.5c-2.3,1.2-6.9,4.2-6.9,4.2"/>
		<path style="fill:none;stroke:#F19EC2;stroke-width:5.860024e-03;" d="M325.2,133.4c0.3-0.5-5.1-7.2-5.4-7.9"/>
		<path style="fill:#E4007F;" d="M169,98.4c0,0,0.7,2.7-0.5,2.5l-0.9,1.1l-0.7,2.7l-0.7-0.8c0,0,0-1.8-0.1-13.4
			c0-5.8-0.1-14.1-0.2-25.8c0.8-3.3-1.8-5.2,1.7-10.4c3.4,0,7,0,10.9-0.1c7.7,0,16.5-0.1,26.3-0.1c0,0,31.5-0.4,74.1-0.4
			c0,0,19.3,0,48.6,0c7.3,0,15.3,0,23.7,0c4.2,0,8.5,0,13,0l3.3,0l1.7,0c1,0.9-1.1-1.9,2.6,1.9l0,0.8l0,6.9c0,9.2,0,18.8,0,28.6
			l0,14.8c-0.9,1.3,2.1-0.2-2.1,3.3l-1.9,0l-3.7,0l-7.5,0c-80-0.1-162.9-0.3-174.5-0.5c0,0,48.4,0.1,98.2,0.3
			c24.9,0.1,50.3,0.1,70.1,0.1c5,0,9.6,0,13.8,0c2.8-0.8,2.5,1.9,7.5-1.9c0-1.9,0-3.6,0-5.2c0-6.5,0-10.8,0-12.3c0,0,0,2.9,0,8
			c0,2.5,0,5.6,0,9.2c-5.7,4.4-8.2,1.2-13,2.2c-17.6-0.1-41.1-0.1-65.1-0.2c-48-0.2-97.8-0.4-104.9-0.6c0,0,44.9,0.1,91.7,0.2
			c23.4,0,47.3,0.1,66.4,0c9.6-0.9,17.8,1.9,24.4-2c0-6.4-0.1-11-0.1-13c0,0,0,2.6,0,7.1c-1,2,2.3,5.6-2.3,7.6c-3.2,0-6.8,0-10.7,0
			c-15.8-0.1-37.1-0.1-59-0.2c-43.8-0.2-90.1-0.4-100.1-0.7c0,0,31.7,0.2,40.2,0.1l-14.8-0.1l23.8,0l13.7,0.1c0,0-37.2-0.3-39.8-0.5
			c0,0-17,0.2,50.2,0.1c0,0,9.9,0.1,28.5,0.1c9.3,0,20.8,0.1,34.3,0.1c6.7,0,14,0,21.7,0c3.9,0,7.8,0,11.9,0c2.8-1,0.8-7.5,1.4-11.1
			c0-8.7,0-17.8,0-27.4c-0.2-4.5,0.4-10.4-0.4-14c-5,0-10.1,0-15.3,0c-20.9,0.1-43.5,0.2-67.6,0.3c-24.1,0.1-49.8,0.3-76.8,0.5
			c-13.5,0.1-27.4,0.2-41.6,0.4C169.3,66.9,168.5,84.5,169,98.4"/>
		<path style="fill:none;stroke:#F19EC2;stroke-width:7.813365e-03;" d="M165.9,106.3c0,0,0-6-0.1-16.4c0-5.2-0.1-11.6-0.1-18.8
			c0-3.6,0-7.5-0.1-11.6l0-3.1c2.5-4.4,2.5-1.2,3.9-2.2l6.5,0c35.6-0.2,82.9-0.4,129.5-0.5c0,0,12.7,0,32,0c4.8,0,10.1,0,15.6,0
			c2.8,0,5.7,0,8.6,0l4.5,0l2.3,0h1.1h0.1h0.1c-0.4-0.5,3.9,3.9,2.1,2.1V56v0.6c0,12.2,0,25.4,0,38.7l0,10l0,2.5v0.3v0.2v0.1
			c-4,4-1.2,1.1-2.1,2h-0.6h-1.3l-5,0c-6.7,0-13.3,0-19.7,0c-12.9,0-25.3,0-36.3,0c-22,0-38.7-0.1-44.2-0.1c0,0-58.7,0-93.5-0.3"/>
		<path style="fill:none;stroke:#E4007F;stroke-width:7.813365e-03;" d="M370.9,100c0,0,0,2.3,0,6.3l0,1.6l0,0.4
			c-2.1,2.2-0.8,0.6-1.4,1.1l-0.9,0c-1.2,0-2.5,0-3.9,0c-2.8,0-6,0-9.6,0c-14.1,0-33.2-0.1-53.3-0.1c-40.2-0.1-84.3-0.2-100.1-0.3
			 M371.8,96c0-4.1,0-14.8,0.1-28.6c0-3.5,0-7.1,0-10.9v-0.7v-0.1v0c-4.1-4.1-1.2-1.1-2.1-2.1h-0.2h-0.4h-1.4h-2.9l-5.9,0
			c-8,0-16.3,0-24.5,0c-32.7,0-63.4,0-63.4,0c-24.5,0-63.2,0.2-95.7,0.4l-6,0c-1.4,1-1.1-2.3-3.8,2.3l0,2.9c0,3.8,0.1,7.5,0.1,11.1
			c0.1,7,0.1,13.4,0.1,18.7c0.1,10.7,0.1,17.3,0.1,17.3"/>
		<path style="fill:none;stroke:#F19EC2;stroke-width:7.813365e-03;" d="M369.5,59.2c0,0,0,10.4-0.1,26.3c0,4,0,8.3,0,12.8l0,7
			c-0.1,0.8,0.2,3.4-0.2,2.6l-3.7,0c-10,0-20.8-0.1-31.6-0.1c-43.4-0.1-88.6-0.3-95.6-0.3"/>
		<path style="fill:none;stroke:#000000;stroke-width:0.4883;stroke-dasharray:2.93,1.9533;" d="M6.6,104.2
			c23.9,78,130.7,80.6,159.5,0"/>
		<rect x="60.3" y="133.7" style="fill:#FFFFFF;" width="52.2" height="43.4"/>
	</g>
	<g>
		<path d="M87.3,163.5c0.9,0,1.7,0.1,2.3,0.3s1.2,0.5,1.7,0.9s0.8,0.8,1,1.4s0.3,1.1,0.3,1.6v0.1c0,0.4-0.1,0.8-0.2,1.2
			s-0.3,0.8-0.5,1.1s-0.5,0.7-0.9,0.9s-0.8,0.5-1.3,0.6c0.5,0.1,1,0.2,1.4,0.4s0.8,0.4,1.1,0.8s0.6,0.7,0.8,1.1s0.3,0.9,0.3,1.5v0.2
			c0,0.6-0.1,1.3-0.4,1.9s-0.6,1.1-1.1,1.6s-1.1,0.8-1.9,1.1s-1.6,0.4-2.6,0.4c-1.9,0-3.5-0.5-4.8-1.4c-0.3-0.2-0.5-0.4-0.5-0.7
			s0-0.6,0.2-0.8c0.2-0.3,0.4-0.5,0.6-0.5c0.3-0.1,0.5,0,0.8,0.2c0.6,0.4,1.1,0.7,1.7,0.9s1.2,0.3,1.9,0.3c0.7,0,1.2-0.1,1.7-0.2
			s0.8-0.4,1.1-0.6s0.5-0.6,0.6-0.9s0.2-0.7,0.2-1.1v-0.2c0-0.5-0.1-0.9-0.3-1.3c-0.2-0.3-0.4-0.6-0.8-0.8s-0.7-0.4-1.2-0.5
			s-0.9-0.1-1.5-0.1h-1.3c-0.3,0-0.5-0.1-0.6-0.3s-0.2-0.4-0.2-0.7s0.1-0.5,0.2-0.7s0.3-0.3,0.6-0.3h1.1c1,0,1.7-0.2,2.4-0.7
			s0.9-1.1,0.9-2.1V168c0-0.7-0.3-1.3-0.8-1.7c-0.5-0.4-1.3-0.7-2.3-0.7c-0.7,0-1.2,0.1-1.7,0.4s-0.9,0.6-1.3,1
			c-0.2,0.2-0.5,0.3-0.7,0.3c-0.3,0-0.5-0.1-0.7-0.4c-0.2-0.2-0.3-0.5-0.3-0.7s0.1-0.5,0.3-0.7c0.5-0.6,1.1-1,1.8-1.4
			C85.4,163.7,86.3,163.5,87.3,163.5z"/>
	</g>
	<g>
		<line style="fill:none;stroke:#000000;stroke-width:0.7813;" x1="62.6" y1="160" x2="111" y2="160"/>
		<g>
			<path d="M355.5,170.1c0.9,0,1.7,0.1,2.3,0.3s1.2,0.5,1.7,0.9s0.8,0.8,1,1.4s0.3,1.1,0.3,1.6v0.1c0,0.4-0.1,0.8-0.2,1.2
				s-0.3,0.8-0.5,1.1s-0.5,0.7-0.9,0.9s-0.8,0.5-1.3,0.6c0.5,0.1,1,0.2,1.4,0.4s0.8,0.4,1.1,0.8s0.6,0.7,0.8,1.1s0.3,0.9,0.3,1.5
				v0.2c0,0.6-0.1,1.3-0.4,1.9s-0.6,1.1-1.1,1.6s-1.1,0.8-1.9,1.1s-1.6,0.4-2.6,0.4c-1.9,0-3.5-0.5-4.8-1.4
				c-0.3-0.2-0.5-0.4-0.5-0.7s0-0.6,0.2-0.8c0.2-0.3,0.4-0.5,0.6-0.5s0.5,0,0.8,0.2c0.6,0.4,1.1,0.7,1.7,0.9
				c0.6,0.2,1.2,0.3,1.9,0.3c0.7,0,1.2-0.1,1.7-0.2s0.8-0.4,1.1-0.6s0.5-0.6,0.6-0.9s0.2-0.7,0.2-1.1v-0.2c0-0.5-0.1-0.9-0.3-1.3
				c-0.2-0.3-0.4-0.6-0.8-0.8s-0.7-0.4-1.2-0.5s-0.9-0.1-1.5-0.1h-1.3c-0.3,0-0.5-0.1-0.6-0.3c-0.1-0.2-0.2-0.4-0.2-0.7
				s0.1-0.5,0.2-0.7c0.1-0.2,0.3-0.3,0.6-0.3h1.1c1,0,1.7-0.2,2.4-0.7s0.9-1.1,0.9-2.1v-0.1c0-0.7-0.3-1.3-0.8-1.7
				c-0.5-0.4-1.3-0.7-2.3-0.7c-0.7,0-1.2,0.1-1.7,0.4c-0.5,0.2-0.9,0.6-1.3,1c-0.2,0.2-0.5,0.3-0.7,0.3s-0.5-0.1-0.7-0.4
				c-0.2-0.2-0.3-0.5-0.3-0.7s0.1-0.5,0.3-0.7c0.5-0.6,1.1-1,1.8-1.4S354.5,170.1,355.5,170.1z"/>
		</g>
		<line style="fill:none;stroke:#000000;stroke-width:0.7813;" x1="330.9" y1="166.5" x2="379.3" y2="166.5"/>
	</g>
	<g>
	</g>
</g>
</svg>
