
<svg xmlns="http://www.w3.org/2000/svg" version="1.1" xmlns:xlink="http://www.w3.org/1999/xlink" preserveAspectRatio="none" x="0px" y="0px" width="1280px" height="720px" viewBox="0 0 1280 720">
<defs>
<g id="Layer0_0_FILL">
<path fill="#3567D7" stroke="none" d="
M 1012.55 427.1
Q 1013.8 425.15 1014.4 422.25 1015 419.35 1015 415.7 1015 414.05 1014.8 412.3 1014.65 410.5 1014.25 408.8 1013.85 407.1 1013.15 405.55 1012.45 404 1011.3 402.8 1010.25 401.65 1008.65 400.95 1007.1 400.3 1005.05 400.3 1001.85 400.3 999.9 401.75 997.95 403.25 996.85 405.5 995.75 407.8 995.35 410.5 995 413.25 995 415.7 995 423.05 997.45 427.1 999.9 431.15 1005.05 431.15 1007.6 431.15 1009.45 430.15 1011.3 429.05 1012.55 427.1
M 1005.05 404.65
Q 1006.25 404.65 1007.3 405.25 1008.3 405.8 1009.05 407.1 1009.75 408.45 1010.15 410.55 1010.5 412.7 1010.5 415.7 1010.5 418.8 1010.15 420.95 1009.75 423.05 1009.05 424.35 1008.3 425.7 1007.3 426.25 1006.25 426.85 1005.05 426.85 1003.75 426.85 1002.75 426.25 1001.75 425.7 1001.05 424.35 1000.3 423.05 999.95 420.95 999.55 418.8 999.55 415.7 999.55 412.7 999.95 410.55 1000.3 408.45 1001.05 407.1 1001.75 405.8 1002.75 405.25 1003.75 404.65 1005.05 404.65
M 958.05 420.65
Q 958.05 420.25 957.9 420.15 957.75 420.05 957.4 420.05
L 953.7 420.05 953.7 401.15
Q 953.7 400.8 953.65 400.7 953.6 400.55 953.3 400.55
L 949.65 400.55
Q 949.25 400.55 949.15 400.65 949.05 400.75 948.85 401.1
L 936.45 419.7
Q 936.3 419.85 936.15 420.15 935.95 420.45 935.95 420.7
L 935.95 423.7
Q 935.95 424 936.1 424.05 936.25 424.15 936.6 424.15
L 949.4 424.15 949.4 430.25
Q 949.4 430.65 949.55 430.8 949.7 430.95 950.15 430.95
L 953.05 430.95
Q 953.45 430.95 953.55 430.8 953.7 430.7 953.7 430.25
L 953.7 424.15 957.4 424.15
Q 957.75 424.15 957.9 424.05 958.05 423.95 958.05 423.55
L 958.05 420.65
M 949.4 420.05
L 940.8 420.05 949.4 407 949.4 420.05
M 892.6 404.35
Q 894 404.35 895.2 404.45 896.35 404.55 897.4 404.95 897.95 405.2 898.05 404.65
L 898.15 401.45
Q 898.2 401.05 897.85 400.95 896.95 400.6 895.5 400.4 894.1 400.2 892.95 400.2 889.2 400.2 886.65 401.5 884.1 402.85 882.5 405.1 880.95 407.3 880.25 410.35 879.55 413.35 879.55 416.75 879.55 424.2 882.1 427.75 884.65 431.3 889.35 431.3 891.65 431.3 893.5 430.5 895.35 429.7 896.65 428.25 897.95 426.9 898.6 424.95 899.3 423.1 899.3 420.9 899.3 418.6 898.6 416.8 897.9 414.95 896.6 413.65 895.35 412.35 893.55 411.65 891.8 410.95 889.6 410.95 888.85 410.95 888.05 411.2 887.25 411.4 886.5 411.75 885.75 412.1 885.15 412.55 884.55 413 884.2 413.5 884.45 411.55 885.05 409.85 885.6 408.2 886.6 406.95 887.6 405.7 889.05 405 890.55 404.35 892.6 404.35
M 894.9 421.1
Q 894.9 423.95 893.4 425.65 891.85 427.3 889.45 427.3 888.35 427.3 887.35 426.8 886.4 426.3 885.7 425.4 885 424.5 884.6 423.25 884.2 422.1 884.2 420.7 884.2 418.25 885.7 416.7 887.15 415.15 889.75 415.15 892.2 415.15 893.55 416.75 894.9 418.3 894.9 421.1
M 1011.5 472.8
Q 1010.45 471.65 1008.85 470.95 1007.3 470.3 1005.25 470.3 1002.05 470.3 1000.1 471.75 998.15 473.25 997.05 475.5 995.95 477.8 995.55 480.5 995.2 483.25 995.2 485.7 995.2 493.05 997.65 497.1 1000.1 501.15 1005.25 501.15 1007.8 501.15 1009.65 500.15 1011.5 499.05 1012.75 497.1 1014 495.15 1014.6 492.25 1015.2 489.35 1015.2 485.7 1015.2 484.05 1015 482.3 1014.85 480.5 1014.45 478.8 1014.05 477.1 1013.35 475.55 1012.65 474 1011.5 472.8
M 1005.25 474.65
Q 1006.45 474.65 1007.5 475.25 1008.5 475.8 1009.25 477.1 1009.95 478.45 1010.35 480.55 1010.7 482.7 1010.7 485.7 1010.7 488.8 1010.35 490.95 1009.95 493.05 1009.25 494.35 1008.5 495.7 1007.5 496.25 1006.45 496.85 1005.25 496.85 1003.95 496.85 1002.95 496.25 1001.95 495.7 1001.25 494.35 1000.5 493.05 1000.15 490.95 999.75 488.8 999.75 485.7 999.75 482.7 1000.15 480.55 1000.5 478.45 1001.25 477.1 1001.95 475.8 1002.95 475.25 1003.95 474.65 1005.25 474.65
M 1001.6 290.75
Q 999.9 291.3 998.65 292.3 997.4 293.3 996.65 294.7 995.9 296.1 995.9 297.8 995.9 300.1 997.3 301.9 998.7 303.7 1001.1 305.1 999.9 305.7 998.8 306.4 997.7 307.1 996.9 308 996.1 308.9 995.55 310.05 995.1 311.2 995.1 312.7 995.1 314.85 996 316.45 996.9 318.1 998.35 319.15 999.8 320.2 1001.6 320.75 1003.45 321.3 1005.25 321.3 1007.2 321.3 1009 320.75 1010.9 320.2 1012.3 319.15 1013.7 318.1 1014.55 316.45 1015.45 314.85 1015.45 312.7 1015.45 311.3 1015 310.3 1014.6 309.25 1013.8 308.35 1013 307.45 1011.9 306.65 1010.75 305.9 1009.35 305.05 1011.95 303.25 1013.2 301.5 1014.45 299.7 1014.45 297.7 1014.45 295.95 1013.75 294.55 1013.05 293.15 1011.85 292.2 1010.65 291.25 1008.95 290.7 1007.25 290.2 1005.25 290.2 1003.3 290.2 1001.6 290.75
M 1000.9 296.4
Q 1001.35 295.7 1002.05 295.2 1002.7 294.7 1003.55 294.4 1004.4 294.1 1005.25 294.1 1006.2 294.1 1007.05 294.45 1007.9 294.7 1008.55 295.25 1009.2 295.8 1009.55 296.5 1009.95 297.2 1009.95 298 1009.95 298.7 1009.45 299.5 1008.95 300.3 1008.2 301.05 1007.45 301.75 1006.65 302.3 1005.9 302.85 1005.25 303.1 1004.75 302.9 1003.95 302.4 1003.15 301.95 1002.35 301.25 1001.6 300.55 1001.05 299.75 1000.45 298.95 1000.45 298.1 1000.45 297.15 1000.9 296.4
M 1005.25 307.3
Q 1006.25 307.65 1007.25 308.25 1008.25 308.85 1009.1 309.55 1009.9 310.3 1010.4 311.1 1010.9 311.95 1010.9 312.7 1010.9 313.75 1010.4 314.6 1009.9 315.45 1009.1 316.05 1008.3 316.65 1007.3 316.95 1006.25 317.25 1005.25 317.25 1004.3 317.25 1003.25 316.95 1002.25 316.6 1001.4 316 1000.6 315.4 1000.1 314.55 999.55 313.7 999.55 312.7 999.55 311.45 1000.15 310.55 1000.75 309.65 1001.6 309 1002.45 308.35 1003.5 307.95 1004.45 307.5 1005.25 307.3 Z"/>

<path fill="#1E1E1E" stroke="none" d="
M 1011.3 352.8
Q 1010.25 351.65 1008.65 350.95 1007.1 350.3 1005.05 350.3 1001.85 350.3 999.9 351.75 997.95 353.25 996.85 355.5 995.75 357.8 995.35 360.5 995 363.25 995 365.7 995 373.05 997.45 377.1 999.9 381.15 1005.05 381.15 1007.6 381.15 1009.45 380.15 1011.3 379.05 1012.55 377.1 1013.8 375.15 1014.4 372.25 1015 369.35 1015 365.7 1015 364.05 1014.8 362.3 1014.65 360.5 1014.25 358.8 1013.85 357.1 1013.15 355.55 1012.45 354 1011.3 352.8
M 1005.05 354.65
Q 1006.25 354.65 1007.3 355.25 1008.3 355.8 1009.05 357.1 1009.75 358.45 1010.15 360.55 1010.5 362.7 1010.5 365.7 1010.5 368.8 1010.15 370.95 1009.75 373.05 1009.05 374.35 1008.3 375.7 1007.3 376.25 1006.25 376.85 1005.05 376.85 1003.75 376.85 1002.75 376.25 1001.75 375.7 1001.05 374.35 1000.3 373.05 999.95 370.95 999.55 368.8 999.55 365.7 999.55 362.7 999.95 360.55 1000.3 358.45 1001.05 357.1 1001.75 355.8 1002.75 355.25 1003.75 354.65 1005.05 354.65
M 958.05 370.65
Q 958.05 370.25 957.9 370.15 957.75 370.05 957.4 370.05
L 953.7 370.05 953.7 351.15
Q 953.7 350.8 953.65 350.7 953.6 350.55 953.3 350.55
L 949.65 350.55
Q 949.25 350.55 949.15 350.65 949.05 350.75 948.85 351.1
L 936.45 369.7
Q 936.3 369.85 936.15 370.15 935.95 370.45 935.95 370.7
L 935.95 373.7
Q 935.95 374 936.1 374.05 936.25 374.15 936.6 374.15
L 949.4 374.15 949.4 380.25
Q 949.4 380.65 949.55 380.8 949.7 380.95 950.15 380.95
L 953.05 380.95
Q 953.45 380.95 953.55 380.8 953.7 380.7 953.7 380.25
L 953.7 374.15 957.4 374.15
Q 957.75 374.15 957.9 374.05 958.05 373.95 958.05 373.55
L 958.05 370.65
M 949.4 370.05
L 940.8 370.05 949.4 357 949.4 370.05
M 886.6 356.95
Q 887.6 355.7 889.05 355 890.55 354.35 892.6 354.35 894 354.35 895.2 354.45 896.35 354.55 897.4 354.95 897.95 355.2 898.05 354.65
L 898.15 351.45
Q 898.2 351.05 897.85 350.95 896.95 350.6 895.5 350.4 894.1 350.2 892.95 350.2 889.2 350.2 886.65 351.5 884.1 352.85 882.5 355.1 880.95 357.3 880.25 360.35 879.55 363.35 879.55 366.75 879.55 374.2 882.1 377.75 884.65 381.3 889.35 381.3 891.65 381.3 893.5 380.5 895.35 379.7 896.65 378.25 897.95 376.9 898.6 374.95 899.3 373.1 899.3 370.9 899.3 368.6 898.6 366.8 897.9 364.95 896.6 363.65 895.35 362.35 893.55 361.65 891.8 360.95 889.6 360.95 888.85 360.95 888.05 361.2 887.25 361.4 886.5 361.75 885.75 362.1 885.15 362.55 884.55 363 884.2 363.5 884.45 361.55 885.05 359.85 885.6 358.2 886.6 356.95
M 884.2 370.7
Q 884.2 368.25 885.7 366.7 887.15 365.15 889.75 365.15 892.2 365.15 893.55 366.75 894.9 368.3 894.9 371.1 894.9 373.95 893.4 375.65 891.85 377.3 889.45 377.3 888.35 377.3 887.35 376.8 886.4 376.3 885.7 375.4 885 374.5 884.6 373.25 884.2 372.1 884.2 370.7
M 835.45 350.95
Q 833.9 350.3 831.85 350.3 828.65 350.3 826.7 351.75 824.75 353.25 823.65 355.5 822.55 357.8 822.15 360.5 821.8 363.25 821.8 365.7 821.8 373.05 824.25 377.1 826.7 381.15 831.85 381.15 834.4 381.15 836.25 380.15 838.1 379.05 839.35 377.1 840.6 375.15 841.2 372.25 841.8 369.35 841.8 365.7 841.8 364.05 841.6 362.3 841.45 360.5 841.05 358.8 840.65 357.1 839.95 355.55 839.25 354 838.1 352.8 837.05 351.65 835.45 350.95
M 834.1 355.25
Q 835.1 355.8 835.85 357.1 836.55 358.45 836.95 360.55 837.3 362.7 837.3 365.7 837.3 368.8 836.95 370.95 836.55 373.05 835.85 374.35 835.1 375.7 834.1 376.25 833.05 376.85 831.85 376.85 830.55 376.85 829.55 376.25 828.55 375.7 827.85 374.35 827.1 373.05 826.75 370.95 826.35 368.8 826.35 365.7 826.35 362.7 826.75 360.55 827.1 358.45 827.85 357.1 828.55 355.8 829.55 355.25 830.55 354.65 831.85 354.65 833.05 354.65 834.1 355.25
M 803.95 350.75
Q 802.25 351.3 801 352.3 799.75 353.3 799 354.7 798.25 356.1 798.25 357.8 798.25 360.1 799.65 361.9 801.05 363.7 803.45 365.1 802.25 365.7 801.15 366.4 800.05 367.1 799.25 368 798.45 368.9 797.9 370.05 797.45 371.2 797.45 372.7 797.45 374.85 798.35 376.45 799.25 378.1 800.7 379.15 802.15 380.2 803.95 380.75 805.8 381.3 807.6 381.3 809.55 381.3 811.35 380.75 813.25 380.2 814.65 379.15 816.05 378.1 816.9 376.45 817.8 374.85 817.8 372.7 817.8 371.3 817.35 370.3 816.95 369.25 816.15 368.35 815.35 367.45 814.25 366.65 813.1 365.9 811.7 365.05 814.3 363.25 815.55 361.5 816.8 359.7 816.8 357.7 816.8 355.95 816.1 354.55 815.4 353.15 814.2 352.2 813 351.25 811.3 350.7 809.6 350.2 807.6 350.2 805.65 350.2 803.95 350.75
M 807.6 354.1
Q 808.55 354.1 809.4 354.45 810.25 354.7 810.9 355.25 811.55 355.8 811.9 356.5 812.3 357.2 812.3 358 812.3 358.7 811.8 359.5 811.3 360.3 810.55 361.05 809.8 361.75 809 362.3 808.25 362.85 807.6 363.1 807.1 362.9 806.3 362.4 805.5 361.95 804.7 361.25 803.95 360.55 803.4 359.75 802.8 358.95 802.8 358.1 802.8 357.15 803.25 356.4 803.7 355.7 804.4 355.2 805.05 354.7 805.9 354.4 806.75 354.1 807.6 354.1
M 802.5 370.55
Q 803.1 369.65 803.95 369 804.8 368.35 805.85 367.95 806.8 367.5 807.6 367.3 808.6 367.65 809.6 368.25 810.6 368.85 811.45 369.55 812.25 370.3 812.75 371.1 813.25 371.95 813.25 372.7 813.25 373.75 812.75 374.6 812.25 375.45 811.45 376.05 810.65 376.65 809.65 376.95 808.6 377.25 807.6 377.25 806.65 377.25 805.6 376.95 804.6 376.6 803.75 376 802.95 375.4 802.45 374.55 801.9 373.7 801.9 372.7 801.9 371.45 802.5 370.55 Z"/>
</g>

<path id="Layer0_0_1_STROKES" stroke="#3567D7" stroke-width="3" stroke-linejoin="round" stroke-linecap="butt" fill="none" d="
M 1035.9 450.35
L 847.3 450.35"/>

<path id="Layer0_0_2_STROKES" stroke="#000000" stroke-width="3" stroke-linejoin="round" stroke-linecap="butt" fill="none" d="
M 1035.9 335.35
L 847.3 335.35
Q 848.1 336.55 848.9 337.95 855.15 348.8 855.15 364 855.15 379.3 848.9 390.1 848.3 391.2 847.7 392.1"/>
</defs>

<g transform="matrix( 1, 0, 0, 1, 0,0) ">
<use xlink:href="#Layer0_0_FILL"/>

<use xlink:href="#Layer0_0_1_STROKES"/>

<use xlink:href="#Layer0_0_2_STROKES"/>
</g>
</svg>
