
<svg xmlns="http://www.w3.org/2000/svg" version="1.1" xmlns:xlink="http://www.w3.org/1999/xlink" preserveAspectRatio="none" x="0px" y="0px" width="1280px" height="720px" viewBox="0 0 1280 720">
<defs>
<g id="Layer0_0_FILL">
<path fill="#1E1E1E" stroke="none" d="
M 975.45 393.8
Q 974.75 391.95 973.45 390.65 972.2 389.35 970.4 388.65 968.65 387.95 966.45 387.95 965.7 387.95 964.9 388.2 964.1 388.4 963.35 388.75 962.6 389.1 962 389.55 961.4 390 961.05 390.5 961.3 388.55 961.9 386.85 962.45 385.2 963.45 383.95 964.45 382.7 965.9 382 967.4 381.35 969.45 381.35 970.85 381.35 972.05 381.45 973.2 381.55 974.25 381.95 974.8 382.2 974.9 381.65
L 975 378.45
Q 975.05 378.05 974.7 377.95 973.8 377.6 972.35 377.4 970.95 377.2 969.8 377.2 966.05 377.2 963.5 378.5 960.95 379.85 959.35 382.1 957.8 384.3 957.1 387.35 956.4 390.35 956.4 393.75 956.4 401.2 958.95 404.75 961.5 408.3 966.2 408.3 968.5 408.3 970.35 407.5 972.2 406.7 973.5 405.25 974.8 403.9 975.45 401.95 976.15 400.1 976.15 397.9 976.15 395.6 975.45 393.8
M 966.6 392.15
Q 969.05 392.15 970.4 393.75 971.75 395.3 971.75 398.1 971.75 400.95 970.25 402.65 968.7 404.3 966.3 404.3 965.2 404.3 964.2 403.8 963.25 403.3 962.55 402.4 961.85 401.5 961.45 400.25 961.05 399.1 961.05 397.7 961.05 395.25 962.55 393.7 964 392.15 966.6 392.15
M 914.85 378.15
Q 914.85 377.8 914.8 377.7 914.75 377.55 914.45 377.55
L 910.8 377.55
Q 910.4 377.55 910.3 377.65 910.2 377.75 910 378.1
L 897.6 396.7
Q 897.45 396.85 897.3 397.15 897.1 397.45 897.1 397.7
L 897.1 400.7
Q 897.1 401 897.25 401.05 897.4 401.15 897.75 401.15
L 910.55 401.15 910.55 407.25
Q 910.55 407.65 910.7 407.8 910.85 407.95 911.3 407.95
L 914.2 407.95
Q 914.6 407.95 914.7 407.8 914.85 407.7 914.85 407.25
L 914.85 401.15 918.55 401.15
Q 918.9 401.15 919.05 401.05 919.2 400.95 919.2 400.55
L 919.2 397.65
Q 919.2 397.25 919.05 397.15 918.9 397.05 918.55 397.05
L 914.85 397.05 914.85 378.15
M 910.55 397.05
L 901.95 397.05 910.55 384 910.55 397.05
M 842.45 383.55
Q 842.75 383.55 843.1 383.35 844.9 382.3 846.4 381.85 847.95 381.4 849.6 381.4 851.35 381.4 852.5 382.65 853.7 383.9 853.7 385.8 853.7 387.5 852.1 390.1 850.5 392.75 847.15 396.7
L 841.05 403.95
Q 840.85 404.25 840.65 404.55 840.5 404.9 840.5 405.2
L 840.5 407.5
Q 840.5 408 841.25 408
L 858.3 408
Q 858.85 408 858.85 407.3
L 858.85 404.5
Q 858.85 403.9 858.3 403.9
L 846.55 403.9
Q 847.55 402.75 848.55 401.6 849.55 400.4 850.4 399.3 851.5 398 852.9 396.4 854.25 394.75 855.45 393 856.65 391.2 857.45 389.35 858.25 387.5 858.25 385.7 858.25 383.6 857.55 382 856.85 380.4 855.7 379.35 854.55 378.3 852.9 377.75 851.3 377.2 849.35 377.2 847.5 377.2 845.5 377.85 843.55 378.5 842.05 379.3 841.65 379.5 841.5 379.75 841.4 379.9 841.5 380.1
L 842.05 383.15
Q 842.15 383.5 842.45 383.55
M 787.85 378.75
Q 785.9 380.25 784.8 382.5 783.7 384.8 783.3 387.5 782.95 390.25 782.95 392.7 782.95 400.05 785.4 404.1 787.85 408.15 793 408.15 795.55 408.15 797.4 407.15 799.25 406.05 800.5 404.1 801.75 402.15 802.35 399.25 802.95 396.35 802.95 392.7 802.95 391.05 802.75 389.3 802.6 387.5 802.2 385.8 801.8 384.1 801.1 382.55 800.4 381 799.25 379.8 798.2 378.65 796.6 377.95 795.05 377.3 793 377.3 789.8 377.3 787.85 378.75
M 787.9 387.55
Q 788.25 385.45 789 384.1 789.7 382.8 790.7 382.25 791.7 381.65 793 381.65 794.2 381.65 795.25 382.25 796.25 382.8 797 384.1 797.7 385.45 798.1 387.55 798.45 389.7 798.45 392.7 798.45 395.8 798.1 397.95 797.7 400.05 797 401.35 796.25 402.7 795.25 403.25 794.2 403.85 793 403.85 791.7 403.85 790.7 403.25 789.7 402.7 789 401.35 788.25 400.05 787.9 397.95 787.5 395.8 787.5 392.7 787.5 389.7 787.9 387.55
M 768.5 388.75
Q 766.55 388.75 764.95 389.1
L 765.1 381.7 776.25 381.7
Q 776.5 381.7 776.65 381.5 776.75 381.35 776.75 381.1
L 776.75 378.05
Q 776.75 377.85 776.65 377.7 776.5 377.5 776.25 377.5
L 761.6 377.5
Q 761 377.5 760.9 377.65 760.75 377.75 760.75 378.2
L 760.55 392.95
Q 760.55 394.3 762.1 393.65 763.35 393.2 764.75 392.95 766.15 392.65 767.45 392.65 770.75 392.65 772.15 394.2 773.6 395.7 773.6 398.3 773.6 401 771.8 402.5 770.1 404.05 767.4 404.05 766.7 404.05 765.85 403.95 765.05 403.9 764.2 403.75 763.35 403.55 762.55 403.35 761.75 403.1 761.2 402.8 760.35 402.4 760.35 403.1
L 760.35 406.35
Q 760.35 406.65 760.35 406.8 760.4 406.9 760.65 407.1 761.3 407.4 762.25 407.6 763.15 407.85 764.1 408 765.05 408.1 765.85 408.2 766.7 408.25 767.1 408.25 769.4 408.25 771.45 407.6 773.55 406.95 774.95 405.65 778.1 402.85 778.1 397.8 778.1 395.7 777.35 394.05 776.6 392.35 775.3 391.15 774 390 772.25 389.35 770.5 388.75 768.5 388.75
M 485.2 387.5
Q 484.85 390.25 484.85 392.7 484.85 400.05 487.3 404.1 489.75 408.15 494.9 408.15 497.45 408.15 499.3 407.15 501.15 406.05 502.4 404.1 503.65 402.15 504.25 399.25 504.85 396.35 504.85 392.7 504.85 391.05 504.65 389.3 504.5 387.5 504.1 385.8 503.7 384.1 503 382.55 502.3 381 501.15 379.8 500.1 378.65 498.5 377.95 496.95 377.3 494.9 377.3 491.7 377.3 489.75 378.75 487.8 380.25 486.7 382.5 485.6 384.8 485.2 387.5
M 492.6 382.25
Q 493.6 381.65 494.9 381.65 496.1 381.65 497.15 382.25 498.15 382.8 498.9 384.1 499.6 385.45 500 387.55 500.35 389.7 500.35 392.7 500.35 395.8 500 397.95 499.6 400.05 498.9 401.35 498.15 402.7 497.15 403.25 496.1 403.85 494.9 403.85 493.6 403.85 492.6 403.25 491.6 402.7 490.9 401.35 490.15 400.05 489.8 397.95 489.4 395.8 489.4 392.7 489.4 389.7 489.8 387.55 490.15 385.45 490.9 384.1 491.6 382.8 492.6 382.25
M 443.65 379.2
Q 442.45 378.25 440.75 377.7 439.05 377.2 437.05 377.2 435.1 377.2 433.4 377.75 431.7 378.3 430.45 379.3 429.2 380.3 428.45 381.7 427.7 383.1 427.7 384.8 427.7 387.1 429.1 388.9 430.5 390.7 432.9 392.1 431.7 392.7 430.6 393.4 429.5 394.1 428.7 395 427.9 395.9 427.35 397.05 426.9 398.2 426.9 399.7 426.9 401.85 427.8 403.45 428.7 405.1 430.15 406.15 431.6 407.2 433.4 407.75 435.25 408.3 437.05 408.3 439 408.3 440.8 407.75 442.7 407.2 444.1 406.15 445.5 405.1 446.35 403.45 447.25 401.85 447.25 399.7 447.25 398.3 446.8 397.3 446.4 396.25 445.6 395.35 444.8 394.45 443.7 393.65 442.55 392.9 441.15 392.05 443.75 390.25 445 388.5 446.25 386.7 446.25 384.7 446.25 382.95 445.55 381.55 444.85 380.15 443.65 379.2
M 437.05 381.1
Q 438 381.1 438.85 381.45 439.7 381.7 440.35 382.25 441 382.8 441.35 383.5 441.75 384.2 441.75 385 441.75 385.7 441.25 386.5 440.75 387.3 440 388.05 439.25 388.75 438.45 389.3 437.7 389.85 437.05 390.1 436.55 389.9 435.75 389.4 434.95 388.95 434.15 388.25 433.4 387.55 432.85 386.75 432.25 385.95 432.25 385.1 432.25 384.15 432.7 383.4 433.15 382.7 433.85 382.2 434.5 381.7 435.35 381.4 436.2 381.1 437.05 381.1
M 437.05 394.3
Q 438.05 394.65 439.05 395.25 440.05 395.85 440.9 396.55 441.7 397.3 442.2 398.1 442.7 398.95 442.7 399.7 442.7 400.75 442.2 401.6 441.7 402.45 440.9 403.05 440.1 403.65 439.1 403.95 438.05 404.25 437.05 404.25 436.1 404.25 435.05 403.95 434.05 403.6 433.2 403 432.4 402.4 431.9 401.55 431.35 400.7 431.35 399.7 431.35 398.45 431.95 397.55 432.55 396.65 433.4 396 434.25 395.35 435.3 394.95 436.25 394.5 437.05 394.3
M 382.05 378.65
Q 382.05 377.85 381.9 377.7 381.8 377.55 381.1 377.55
L 379 377.55
Q 378.85 377.55 378.65 377.65 378.45 377.7 378.4 377.8
L 372.25 383.45
Q 372.05 383.65 372.05 383.85 372 384.1 372.15 384.25
L 373.95 386.4
Q 374.1 386.55 374.35 386.5 374.6 386.5 374.85 386.35
L 377.8 383.75 377.8 407.45
Q 377.8 407.95 378.35 407.95
L 381.55 407.95
Q 382.05 407.95 382.05 407.45
L 382.05 378.65
M 327.95 379.8
Q 326.9 378.65 325.3 377.95 323.75 377.3 321.7 377.3 318.5 377.3 316.55 378.75 314.6 380.25 313.5 382.5 312.4 384.8 312 387.5 311.65 390.25 311.65 392.7 311.65 400.05 314.1 404.1 316.55 408.15 321.7 408.15 324.25 408.15 326.1 407.15 327.95 406.05 329.2 404.1 330.45 402.15 331.05 399.25 331.65 396.35 331.65 392.7 331.65 391.05 331.45 389.3 331.3 387.5 330.9 385.8 330.5 384.1 329.8 382.55 329.1 381 327.95 379.8
M 326.8 387.55
Q 327.15 389.7 327.15 392.7 327.15 395.8 326.8 397.95 326.4 400.05 325.7 401.35 324.95 402.7 323.95 403.25 322.9 403.85 321.7 403.85 320.4 403.85 319.4 403.25 318.4 402.7 317.7 401.35 316.95 400.05 316.6 397.95 316.2 395.8 316.2 392.7 316.2 389.7 316.6 387.55 316.95 385.45 317.7 384.1 318.4 382.8 319.4 382.25 320.4 381.65 321.7 381.65 322.9 381.65 323.95 382.25 324.95 382.8 325.7 384.1 326.4 385.45 326.8 387.55
M 303.6 377.4
Q 302.2 377.2 301.05 377.2 297.3 377.2 294.75 378.5 292.2 379.85 290.6 382.1 289.05 384.3 288.35 387.35 287.65 390.35 287.65 393.75 287.65 401.2 290.2 404.75 292.75 408.3 297.45 408.3 299.75 408.3 301.6 407.5 303.45 406.7 304.75 405.25 306.05 403.9 306.7 401.95 307.4 400.1 307.4 397.9 307.4 395.6 306.7 393.8 306 391.95 304.7 390.65 303.45 389.35 301.65 388.65 299.9 387.95 297.7 387.95 296.95 387.95 296.15 388.2 295.35 388.4 294.6 388.75 293.85 389.1 293.25 389.55 292.65 390 292.3 390.5 292.55 388.55 293.15 386.85 293.7 385.2 294.7 383.95 295.7 382.7 297.15 382 298.65 381.35 300.7 381.35 302.1 381.35 303.3 381.45 304.45 381.55 305.5 381.95 306.05 382.2 306.15 381.65
L 306.25 378.45
Q 306.3 378.05 305.95 377.95 305.05 377.6 303.6 377.4
M 297.85 392.15
Q 300.3 392.15 301.65 393.75 303 395.3 303 398.1 303 400.95 301.5 402.65 299.95 404.3 297.55 404.3 296.45 404.3 295.45 403.8 294.5 403.3 293.8 402.4 293.1 401.5 292.7 400.25 292.3 399.1 292.3 397.7 292.3 395.25 293.8 393.7 295.25 392.15 297.85 392.15 Z"/>
</g>

<path id="Layer0_0_1_STROKES" stroke="#000000" stroke-width="3" stroke-linejoin="round" stroke-linecap="butt" fill="none" d="
M 997.05 362.35
L 808.45 362.35
Q 809.25 363.55 810.05 364.95 816.3 375.8 816.3 391 816.3 406.3 810.05 417.1 809.45 418.2 808.85 419.1
M 525.75 362.35
L 337.15 362.35
Q 337.95 363.55 338.75 364.95 345 375.8 345 391 345 406.3 338.75 417.1 338.15 418.2 337.55 419.1"/>
</defs>

<g transform="matrix( 1, 0, 0, 1, 0,0) ">
<use xlink:href="#Layer0_0_FILL"/>

<use xlink:href="#Layer0_0_1_STROKES"/>
</g>
</svg>
