<?xml version="1.0" encoding="utf-8"?>
<!-- Generator: Adobe Illustrator 23.1.0, SVG Export Plug-In . SVG Version: 6.00 Build 0)  -->
<svg version="1.1" id="레이어_1" xmlns="http://www.w3.org/2000/svg" xmlns:xlink="http://www.w3.org/1999/xlink" x="0px"
	 y="0px" width="871px" height="520px" viewBox="0 0 871 520" style="enable-background:new 0 0 871 520;" xml:space="preserve">
<g>
	<rect x="148.4" y="198" style="fill:#C6DDF2;" width="5.7" height="56.6"/>
	<path style="fill:#84B0DC;" d="M154,254.8h-2.5v-0.4h2.5V254.8z M149.9,254.8h-1.5v-0.4h1.5V254.8z M154,249.1h-1.5v-0.3h1.5V249.1
		z M150.9,249.1h-2.5v-0.3h2.5V249.1z M154,243.5h-1.5v-0.4h1.5V243.5z M150.9,243.5h-2.5v-0.4h2.5V243.5z M154,237.8h-1.5v-0.3h1.5
		V237.8z M150.9,237.8h-2.5v-0.3h2.5V237.8z M154,232.1h-1.5v-0.3h1.5V232.1z M150.9,232.1h-2.5v-0.3h2.5V232.1z M154,226.5h-1.5
		v-0.4h1.5V226.5z M150.9,226.5h-2.5v-0.4h2.5V226.5z M154,220.8h-1.5v-0.3h1.5V220.8z M150.9,220.8h-2.5v-0.3h2.5V220.8z
		 M154,215.2h-1.5v-0.4h1.5V215.2z M150.9,215.2h-2.5v-0.4h2.5V215.2z M154,209.5h-1.5v-0.3h1.5V209.5z M150.9,209.5h-2.5v-0.3h2.5
		V209.5z M154,203.8h-1.5v-0.3h1.5V203.8z M150.9,203.8h-2.5v-0.3h2.5V203.8z M154,198.2h-1.5v-0.3h1.5V198.2z M150.9,198.2h-2.5
		v-0.3h2.5V198.2z"/>
	<path style="fill:#3884C6;" d="M154.3,254.9h-6.2v-57.1h6.2V254.9z M148.6,254.4h5.2v-56.1h-5.2V254.4z"/>
	<rect x="261" y="248.9" style="fill:#D9E6B4;" width="5.7" height="5.7"/>
	<path style="fill:#3884C6;" d="M267,254.9h-6.3v-6.3h6.3V254.9z M261.3,254.3h5v-5h-5V254.3z"/>
	<rect x="261" y="236.2" style="fill:#D9E6B4;" width="5.7" height="5.7"/>
	<path style="fill:#3884C6;" d="M267,242.2h-6.3v-6.3h6.3V242.2z M261.3,241.6h5v-5h-5V241.6z"/>
	<rect x="261" y="223.5" style="fill:#D9E6B4;" width="5.7" height="5.7"/>
	<path style="fill:#3884C6;" d="M267,229.5h-6.3v-6.3h6.3V229.5z M261.3,228.8h5v-5h-5V228.8z"/>
	<rect x="261" y="210.8" style="fill:#D9E6B4;" width="5.7" height="5.7"/>
	<path style="fill:#3884C6;" d="M267,216.8h-6.3v-6.4h6.3V216.8z M261.3,216.1h5v-5h-5V216.1z"/>
	<rect x="261" y="198.1" style="fill:#D9E6B4;" width="5.7" height="5.7"/>
	<path style="fill:#3884C6;" d="M267,204.1h-6.3v-6.4h6.3V204.1z M261.3,203.4h5v-5h-5V203.4z"/>
	<rect x="272.8" y="248.9" style="fill:#D9E6B4;" width="5.7" height="5.7"/>
	<path style="fill:#3884C6;" d="M278.8,254.9h-6.4v-6.3h6.4V254.9z M273.1,254.3h5v-5h-5V254.3z"/>
	<rect x="272.8" y="236.2" style="fill:#D9E6B4;" width="5.7" height="5.7"/>
	<path style="fill:#3884C6;" d="M278.8,242.2h-6.4v-6.3h6.4V242.2z M273.1,241.6h5v-5h-5V241.6z"/>
	<rect x="291.1" y="248.9" style="fill:#D9E6B4;" width="5.7" height="5.7"/>
	<path style="fill:#3884C6;" d="M297.1,254.9h-6.4v-6.3h6.4V254.9z M291.4,254.3h5v-5h-5V254.3z"/>
	<rect x="291.1" y="236.2" style="fill:#D9E6B4;" width="5.7" height="5.7"/>
	<path style="fill:#3884C6;" d="M297.1,242.2h-6.4v-6.3h6.4V242.2z M291.4,241.6h5v-5h-5V241.6z"/>
	<rect x="272.8" y="223.5" style="fill:#D9E6B4;" width="5.7" height="5.7"/>
	<path style="fill:#3884C6;" d="M278.8,229.5h-6.4v-6.3h6.4V229.5z M273.1,228.8h5v-5h-5V228.8z"/>
	<rect x="272.8" y="210.8" style="fill:#D9E6B4;" width="5.7" height="5.7"/>
	<path style="fill:#3884C6;" d="M278.8,216.8h-6.4v-6.4h6.4V216.8z M273.1,216.1h5v-5h-5V216.1z"/>
	<rect x="272.8" y="198.1" style="fill:#D9E6B4;" width="5.7" height="5.7"/>
	<path style="fill:#3884C6;" d="M278.8,204.1h-6.4v-6.4h6.4V204.1z M273.1,203.4h5v-5h-5V203.4z"/>
	<path style="fill:#367C3E;" d="M277.5,260H275v-0.9h2.5V260z M273.4,260h-2.5v-0.9h2.5V260z M269.2,260h-2.5v-0.9h2.5V260z
		 M265,260h-2.5v-0.9h2.5V260z M260.9,260c-0.9-0.1-1.8-0.4-2.6-0.9l0.5-0.7c0.6,0.5,1.3,0.7,2.1,0.7V260z M279.2,259.9v-0.8
		c0.8-0.1,1.5-0.4,2.1-0.9l0.5,0.7C281,259.5,280.1,259.8,279.2,259.9L279.2,259.9z M257,257.8c-0.5-0.7-0.8-1.6-0.8-2.5h0.8
		c0,0.8,0.3,1.5,0.7,2.1L257,257.8z M282.8,257.5l-0.7-0.4c0.4-0.7,0.6-1.4,0.6-2.2v-1.4h0.8v1.4
		C283.5,255.8,283.3,256.7,282.8,257.5L282.8,257.5z M257,253.6h-0.9v-2.5h0.9V253.6z M283.5,251.8h-0.8v-2.5h0.8V251.8z M257,249.4
		h-0.9v-2.5h0.9V249.4z M283.5,247.7h-0.8v-2.5h0.8V247.7z M257,245.3h-0.9v-2.5h0.9V245.3z M283.5,243.5h-0.8V241h0.8V243.5z
		 M257,241.1h-0.9v-2.5h0.9V241.1z M283.5,239.4h-0.8v-2.5h0.8V239.4z M257,237h-0.9v-2.5h0.9V237z M283.5,235.2h-0.8v-2.5h0.8
		V235.2z M257,232.8h-0.9v-2.5h0.9V232.8z M283.5,231h-0.8v-2.5h0.8V231z M257,228.6h-0.9v-2.5h0.9V228.6z M283.5,226.9h-0.8v-2.5
		h0.8V226.9z M257,224.5h-0.9V222h0.9V224.5z M283.5,222.7h-0.8v-2.5h0.8V222.7z M257,220.3h-0.9v-2.5h0.9V220.3z M283.5,218.6h-0.8
		v-2.5h0.8V218.6z M257,216.2h-0.9v-2.5h0.9V216.2z M283.5,214.4h-0.8v-2.5h0.8V214.4z M257,212h-0.9v-2.5h0.9V212z M283.5,210.2
		h-0.8v-2.5h0.8V210.2z M257,207.8h-0.9v-2.5h0.9V207.8z M283.5,206.1h-0.8v-2.5h0.8V206.1z M257,203.7h-0.9v-2.5h0.9V203.7z
		 M283.5,201.9h-0.8v-2.5h0.8V201.9z M257,199.5h-0.9V197h0.9V199.5z M283.5,197.8h-0.8v-1.1c0-0.4-0.1-0.9-0.2-1.3l0.8-0.2
		c0.1,0.5,0.2,1,0.2,1.5V197.8z M257.2,195.5l-0.8-0.2c0.2-0.9,0.7-1.7,1.4-2.3l0.5,0.6C257.8,194.1,257.4,194.8,257.2,195.5
		L257.2,195.5z M281.8,194.1c-0.5-0.6-1.1-1.1-1.8-1.4l0.3-0.7c0.9,0.3,1.6,0.9,2.2,1.6L281.8,194.1z M259.6,192.8l-0.3-0.8
		c0.5-0.2,1.1-0.4,1.7-0.4h0.9v0.9H261C260.5,192.5,260,192.6,259.6,192.8L259.6,192.8z M278.5,192.5H276v-0.9h2.5V192.5z
		 M274.4,192.5h-2.5v-0.9h2.5V192.5z M270.2,192.5h-2.5v-0.9h2.5V192.5z M266,192.5h-2.5v-0.9h2.5V192.5z"/>
	<path style="fill:#367C3E;" d="M154.5,260h-6.6c-2.5,0-4.4-2.3-4.4-5.1v-58c0-2.8,1.9-5.1,4.4-5.1h6.6c2.5,0,4.4,2.3,4.4,5.1v58
		C158.9,257.7,157,260,154.5,260z M147.9,192.7c-2,0-3.6,1.9-3.6,4.2v58c0,2.3,1.6,4.2,3.6,4.2h6.6c2,0,3.6-1.9,3.6-4.2v-58
		c0-2.3-1.6-4.2-3.6-4.2L147.9,192.7L147.9,192.7z M255.8,226.6H163v-0.8h92.8V226.6z"/>
	<polygon style="fill:#367C3E;" points="159.1,226.2 164.7,223.9 163.4,226.2 164.7,228.5 	"/>
</g>
</svg>
