<svg xmlns="http://www.w3.org/2000/svg" xmlns:xlink="http://www.w3.org/1999/xlink" viewBox="0 0 187.5 187.49"><defs><style>.cls-1,.cls-10,.cls-11,.cls-12,.cls-2,.cls-3,.cls-4,.cls-7,.cls-9{fill:none;}.cls-2{stroke:#bfbfbf;}.cls-10,.cls-2,.cls-9{stroke-width:0.3px;}.cls-2,.cls-3,.cls-4,.cls-9{stroke-dasharray:1.5 1;}.cls-12,.cls-3,.cls-9{stroke:#00a0e9;}.cls-3,.cls-4{stroke-width:0.4px;}.cls-4{stroke:#7ecef4;}.cls-5{clip-path:url(#clip-path);}.cls-6{fill:#ffe893;}.cls-7{stroke:#e4007f;stroke-width:0.5px;}.cls-8{fill:#e4007f;}.cls-10{stroke:#231815;}.cls-11{stroke:#000;}.cls-11,.cls-12{stroke-linejoin:round;stroke-width:0.8px;}.cls-13{fill:#231815;}</style><clipPath id="clip-path" transform="translate(0 0)"><rect class="cls-1" width="187.5" height="187.49"/></clipPath></defs><title>자산 1</title><g id="레이어_2" data-name="레이어 2"><g id="레이어_1-2" data-name="레이어 1"><path class="cls-2" d="M.19,187.3V.19m15.6,0V187.3M39.18.19V187.3M163.92.19V187.3M8,.19V187.3M23.58.19V187.3M31.38.19V187.3M70.36.19V187.3M117.14.19V187.3M47,.19V187.3M54.77.19V187.3M62.57.19V187.3M78.16.19V187.3M86,.19V187.3M93.75.19V187.3M109.34.19V187.3M101.55.19V187.3M124.94.19V187.3M132.73.19V187.3M140.53.19V187.3M148.33.19V187.3M156.12.19V187.3M171.72.19V187.3M179.51.19V187.3M187.31.19V187.3m0,0H.19m0-62.37H187.31M.19,132.73H187.31M.19,179.5H187.31M.19,171.71H187.31M.19,163.91H187.31M.19,156.12H187.31M.19,148.32H187.31M.19,140.53H187.31M.19,117.13H187.31M.19,78.15H187.31M.19,31.37H187.31M.19,109.34H187.31M.19,101.54H187.31M.19,93.75H187.31M.19,86H187.31M.19,70.36H187.31M.19,62.56H187.31M.19,54.76H187.31M.19,47H187.31M.19,39.17H187.31M.19,23.58H187.31M.19,15.78H187.31M.19,8H187.31M.19.19H187.31" transform="translate(0 0)"/><line class="cls-3" x1="70.39" y1="70.36" x2="117.15" y2="70.36"/><path class="cls-4" d="M70.39,109.33h46.76m-46.76-7.79h46.76m-46.76-7.8h46.76M70.39,86h46.76M70.39,78.16h46.76" transform="translate(0 0)"/><path class="cls-3" d="M117.15,70.36v46.77m0,0H70.39" transform="translate(0 0)"/><path class="cls-4" d="M78.18,70.36v46.77M86,70.36v46.77m23.38-46.77v46.77m-7.8-46.77v46.77M93.77,70.36v46.77" transform="translate(0 0)"/><g class="cls-5"><path class="cls-3" d="M140.52,70.36H187.3M70.39,117.13V70.36" transform="translate(0 0)"/><path class="cls-4" d="M140.52,109.33H187.3m-46.78-7.79H187.3m-46.78-7.8H187.3M140.52,86H187.3m-46.78-7.79H187.3" transform="translate(0 0)"/><path class="cls-3" d="M187.3,70.36v46.77m0,0H140.52" transform="translate(0 0)"/></g><path class="cls-4" d="M148.32,70.36v46.77m15.59-46.77v46.77m15.58-46.77v46.77M171.7,70.36v46.77" transform="translate(0 0)"/><path class="cls-3" d="M.2,70.36H47m93.55,46.77V70.36" transform="translate(0 0)"/><path class="cls-4" d="M.2,109.33H47M.2,101.54H47M.2,93.74H47M.2,86H47M.2,78.16H47" transform="translate(0 0)"/><path class="cls-3" d="M47,70.36v46.77m0,0H.2" transform="translate(0 0)"/><path class="cls-4" d="M8,70.36v46.77m7.8-46.77v46.77M39.17,70.36v46.77M31.38,70.36v46.77m-7.8-46.77v46.77" transform="translate(0 0)"/><g class="cls-5"><path class="cls-3" d="M117.13,140.52v46.77M.2,117.13V70.36" transform="translate(0 0)"/><path class="cls-4" d="M78.16,140.52v46.77M86,140.52v46.77m7.8-46.77v46.77m15.59-46.77v46.77m-7.8-46.77v46.77" transform="translate(0 0)"/><path class="cls-3" d="M117.13,187.29H70.36m0,0V140.52" transform="translate(0 0)"/></g><path class="cls-4" d="M117.13,148.32H70.36m46.77,7.8H70.36m46.77,23.38H70.36m46.77-7.8H70.36m46.77-7.79H70.36" transform="translate(0 0)"/><path class="cls-3" d="M117.13.2V47M70.36,140.52h46.77" transform="translate(0 0)"/><path class="cls-4" d="M78.16.2V47M86,.2V47M93.75.2V47M109.34.2V47M101.54.2V47" transform="translate(0 0)"/><path class="cls-3" d="M117.13,47H70.36m0,0V.2" transform="translate(0 0)"/><path class="cls-4" d="M117.13,8H70.36m46.77,7.8H70.36m46.77,23.38H70.36m46.77-7.79H70.36m46.77-7.8H70.36" transform="translate(0 0)"/><line class="cls-3" x1="70.36" y1="0.2" x2="117.13" y2="0.2"/><g class="cls-5"><path class="cls-6" d="M132.94,89.92a4.54,4.54,0,1,1-4.53-4.54,4.53,4.53,0,0,1,4.53,4.54" transform="translate(0 0)"/><path class="cls-7" d="M128.41,85.38a4.54,4.54,0,0,1,4.47,3.79" transform="translate(0 0)"/><polygon class="cls-8" points="133.15 90.3 132 88.46 132.9 88.79 133.63 88.19 133.15 90.3"/><line class="cls-9" x1="128.41" y1="94.46" x2="128.41" y2="89.92"/><line class="cls-10" x1="128.41" y1="89.92" x2="132.94" y2="89.92"/><line class="cls-9" x1="128.41" y1="89.92" x2="123.86" y2="89.92"/><line class="cls-10" x1="128.41" y1="85.38" x2="128.41" y2="89.92"/><path class="cls-6" d="M63.25,89.81a4.54,4.54,0,1,1-4.54-4.53,4.55,4.55,0,0,1,4.54,4.53" transform="translate(0 0)"/><path class="cls-9" d="M58.71,89.81h4.54m-4.54,4.55V89.81" transform="translate(0 0)"/><path class="cls-10" d="M58.71,85.28v4.53m0,0H54.17" transform="translate(0 0)"/><path class="cls-6" d="M98.36,124.77a4.54,4.54,0,1,1-4.55-4.54,4.55,4.55,0,0,1,4.55,4.54" transform="translate(0 0)"/><line class="cls-10" x1="93.81" y1="129.31" x2="93.81" y2="124.77"/><path class="cls-9" d="M93.81,124.77H89.28m4.53,0h4.55" transform="translate(0 0)"/><line class="cls-10" x1="93.81" y1="120.23" x2="93.81" y2="124.77"/><path class="cls-6" d="M98.29,62.52A4.54,4.54,0,1,1,93.75,58a4.54,4.54,0,0,1,4.54,4.54" transform="translate(0 0)"/><path class="cls-9" d="M93.75,62.52H89.21m4.54,0h4.54m-4.54,4.54V62.52" transform="translate(0 0)"/><line class="cls-10" x1="93.75" y1="57.98" x2="93.75" y2="62.52"/><path class="cls-7" d="M93.81,120.23a4.54,4.54,0,0,1,.52,9" transform="translate(0 0)"/><polygon class="cls-8" points="93.42 129.38 95.33 128.34 94.95 129.21 95.51 129.97 93.42 129.38"/><path class="cls-7" d="M58.71,85.28a4.54,4.54,0,1,1-4.45,5.45" transform="translate(0 0)"/><polygon class="cls-8" points="53.94 89.44 55.14 91.25 54.24 90.95 53.53 91.58 53.94 89.44"/><path class="cls-7" d="M93.75,58a4.55,4.55,0,1,1-.89.09" transform="translate(0 0)"/><polygon class="cls-8" points="94.15 57.75 92.34 58.95 92.65 58.05 92.02 57.34 94.15 57.75"/><polygon class="cls-11" points="101.56 78.15 85.98 78.15 78.15 109.32 109.38 109.32 101.56 78.15"/><path class="cls-12" d="M179.51,85.93v15.59l-31.17,7.82V78.11ZM8,85.93v15.59l31.18,7.82V78.11Zm93.54,93.54H86L78.15,148.3h31.23ZM101.56,8H86L78.15,39.15h31.23Z" transform="translate(0 0)"/></g><path class="cls-13" d="M55.82,77.63v.09a2.61,2.61,0,0,1-.89,1.86l-2.07,2.18h2.93c.22,0,.32.17.32.37s-.1.38-.32.38H52.33c-.47,0-.66-.15-.66-.48,0-.16.08-.28.27-.49l2.2-2.32c.63-.67.78-1,.78-1.49v0c0-.53-.37-.87-1.09-.87a1.49,1.49,0,0,0-1.31.72.37.37,0,0,1-.54.08.38.38,0,0,1-.12-.55,2.23,2.23,0,0,1,2-1.06C55.17,76,55.82,76.74,55.82,77.63Z" transform="translate(0 0)"/><path class="cls-13" d="M61.62,76.6a1.72,1.72,0,0,1-.24.72l-2.27,5a.43.43,0,0,1-.78-.37l2.33-5.06H57.38c-.22,0-.32-.18-.32-.39s.1-.39.32-.39H61C61.44,76.11,61.62,76.26,61.62,76.6Z" transform="translate(0 0)"/><path class="cls-13" d="M67.14,79.09v.44c0,2-.68,3.08-2.3,3.08s-2.31-1.09-2.31-3.08v-.44c0-2,.68-3.08,2.31-3.08S67.14,77.1,67.14,79.09Zm-3.7.07v.3c0,1.6.33,2.3,1.4,2.3s1.39-.7,1.39-2.3v-.3c0-1.6-.33-2.3-1.39-2.3S63.44,77.56,63.44,79.16Z" transform="translate(0 0)"/><path class="cls-13" d="M70,76.38a.89.89,0,1,1-.89-.86A.85.85,0,0,1,70,76.38Zm-1.31,0a.43.43,0,0,0,.85,0,.43.43,0,1,0-.85,0Z" transform="translate(0 0)"/><path class="cls-13" d="M128,79.06v.27c0,2.86-1,3.61-2.5,3.61a2.84,2.84,0,0,1-1.42-.32.38.38,0,0,1-.17-.54.36.36,0,0,1,.53-.2,2.56,2.56,0,0,0,1.11.24c1,0,1.5-.59,1.56-2.22a2,2,0,0,1-3.59-1.3v-.16a2,2,0,0,1,2.22-2.09C127.21,76.35,128,77.31,128,79.06Zm-3.59-.59v.07a1.16,1.16,0,0,0,1.31,1.31,1.22,1.22,0,0,0,1.35-1.25v-.08a1.23,1.23,0,0,0-1.31-1.36A1.21,1.21,0,0,0,124.39,78.47Z" transform="translate(0 0)"/><path class="cls-13" d="M133.57,79.42v.45c0,2-.68,3.07-2.3,3.07S129,81.85,129,79.87v-.45c0-2,.69-3.07,2.31-3.07S133.57,77.43,133.57,79.42Zm-3.7.08v.29c0,1.61.33,2.31,1.4,2.31s1.39-.7,1.39-2.31V79.5c0-1.61-.33-2.31-1.39-2.31S129.87,77.89,129.87,79.5Z" transform="translate(0 0)"/><path class="cls-13" d="M136.38,76.71a.89.89,0,1,1-.89-.86A.85.85,0,0,1,136.38,76.71Zm-1.31,0a.43.43,0,0,0,.85,0,.43.43,0,1,0-.85,0Z" transform="translate(0 0)"/><path class="cls-13" d="M93.61,50.39v0a1.53,1.53,0,0,1-1.12,1.5,1.46,1.46,0,0,1,1.38,1.47v.09c0,1-.75,1.87-2.27,1.87a3.24,3.24,0,0,1-1.84-.52.42.42,0,0,1-.13-.6.37.37,0,0,1,.56-.13,2.31,2.31,0,0,0,1.37.44c1,0,1.4-.51,1.4-1.09v-.07c0-.79-.61-1-1.42-1H91c-.23,0-.33-.18-.33-.39s.1-.39.33-.39h.44c.73,0,1.26-.32,1.26-1.06v0c0-.55-.39-.92-1.18-.92a1.47,1.47,0,0,0-1.16.53.36.36,0,0,1-.55,0,.39.39,0,0,1,0-.55,2.16,2.16,0,0,1,1.71-.75C92.92,48.76,93.61,49.49,93.61,50.39Z" transform="translate(0 0)"/><path class="cls-13" d="M99,49.08a.41.41,0,0,1,.16.54.37.37,0,0,1-.53.19,2.57,2.57,0,0,0-1.1-.23c-1,0-1.48.73-1.58,2.23a1.88,1.88,0,0,1,1.57-.74,1.91,1.91,0,0,1,2,2.06v.14a2,2,0,0,1-2.22,2.09c-1.47,0-2.26-1-2.26-2.73v-.25c0-2.8,1.06-3.62,2.5-3.62A3.16,3.16,0,0,1,99,49.08Zm-3,4v.07a1.23,1.23,0,0,0,1.31,1.35,1.21,1.21,0,0,0,1.35-1.31v-.06a1.16,1.16,0,0,0-1.31-1.3A1.22,1.22,0,0,0,96,53.12Z" transform="translate(0 0)"/><path class="cls-13" d="M105,51.84v.44c0,2-.69,3.08-2.31,3.08s-2.3-1.09-2.3-3.08v-.44c0-2,.68-3.08,2.3-3.08S105,49.85,105,51.84Zm-3.7.07v.3c0,1.6.33,2.3,1.39,2.3s1.4-.7,1.4-2.3v-.3c0-1.6-.34-2.3-1.4-2.3S101.3,50.31,101.3,51.91Z" transform="translate(0 0)"/><path class="cls-13" d="M107.8,49.13a.88.88,0,1,1-.89-.87A.85.85,0,0,1,107.8,49.13Zm-1.3,0a.39.39,0,0,0,.41.41.4.4,0,0,0,.43-.41.42.42,0,1,0-.84,0Z" transform="translate(0 0)"/><path class="cls-13" d="M90.52,131.58v5.72c0,.26-.2.38-.45.38s-.45-.12-.45-.38v-5.05l-1.35.83a.42.42,0,0,1-.43-.73l1.61-1a1.21,1.21,0,0,1,.6-.2C90.33,131.19,90.52,131.31,90.52,131.58Z" transform="translate(0 0)"/><path class="cls-13" d="M97,132.86v.08a1.61,1.61,0,0,1-1,1.41,1.57,1.57,0,0,1,1.14,1.5v.1c0,1-.81,1.79-2.17,1.79S92.76,137,92.76,136v-.1a1.58,1.58,0,0,1,1.15-1.5,1.62,1.62,0,0,1-1-1.41v-.08a2,2,0,0,1,4,0Zm-3.27,3v.06c0,.61.5,1,1.28,1s1.26-.42,1.26-1v-.06A1.11,1.11,0,0,0,95,134.76,1.13,1.13,0,0,0,93.68,135.85Zm.17-2.94V133A1,1,0,0,0,95,134a1,1,0,0,0,1.09-1v-.06a1.11,1.11,0,0,0-2.2,0Z" transform="translate(0 0)"/><path class="cls-13" d="M102.75,134.22v.44c0,2-.69,3.08-2.31,3.08s-2.3-1.09-2.3-3.08v-.44c0-2,.68-3.08,2.3-3.08S102.75,132.23,102.75,134.22Zm-3.7.07v.3c0,1.6.33,2.3,1.39,2.3s1.4-.7,1.4-2.3v-.3c0-1.6-.34-2.31-1.4-2.31S99.05,132.69,99.05,134.29Z" transform="translate(0 0)"/><path class="cls-13" d="M105.55,131.51a.88.88,0,1,1-.89-.87A.84.84,0,0,1,105.55,131.51Zm-1.3,0a.39.39,0,0,0,.41.41.4.4,0,0,0,.43-.41.42.42,0,1,0-.84,0Z" transform="translate(0 0)"/></g></g></svg>