
<svg xmlns="http://www.w3.org/2000/svg" version="1.1" xmlns:xlink="http://www.w3.org/1999/xlink" preserveAspectRatio="none" x="0px" y="0px" width="1280px" height="720px" viewBox="0 0 1280 720">
<defs>
<g id="fdbd45466_copy_7_1_Layer0_1_FILL">
<path fill="#EC008C" stroke="none" d="
M 854.4 412.75
L 854.4 397.1 840.85 404.95 854.4 412.75 Z"/>
</g>

<g id="fdbd45466_copy_7_1_Layer0_2_FILL">
<path fill="#EC008C" stroke="none" d="
M 854.4 412.75
L 854.4 397.1 840.85 404.95 854.4 412.75 Z"/>
</g>

<g id="fdbd45466_copy_6_0_Layer0_1_FILL">
<path fill="#EC008C" stroke="none" d="
M 854.4 412.75
L 854.4 397.1 840.85 404.95 854.4 412.75 Z"/>
</g>

<g id="fdbd45466_copy_6_0_Layer0_2_FILL">
<path fill="#EC008C" stroke="none" d="
M 854.4 412.75
L 854.4 397.1 840.85 404.95 854.4 412.75 Z"/>
</g>

<g id="Layer0_5_FILL">
<path fill="#1E1E1E" stroke="none" d="
M 382.8 527.95
Q 382.15 527.95 382.2 528.45 382.3 529.25 382.35 530.65 382.4 532.05 382.4 533.6
L 382.4 549.5
Q 382.4 549.7 382.5 549.9 382.65 550.05 382.85 550.05
L 386.2 550.05
Q 386.65 550.05 386.65 549.55
L 386.65 536.55
Q 386.65 534.15 387.9 532.8 389.15 531.4 391.4 531.4 394.95 531.4 394.95 535.65
L 394.95 549.5
Q 394.95 549.7 395.1 549.9 395.25 550.05 395.45 550.05
L 398.8 550.05
Q 399.25 550.05 399.25 549.55
L 399.25 537.95
Q 399.25 536.55 399.6 535.35 399.95 534.15 400.6 533.3 401.2 532.4 402.15 531.95 403.1 531.4 404.3 531.4 406 531.4 406.85 532.6 407.75 533.8 407.75 535.65
L 407.75 549.5
Q 407.75 549.7 407.9 549.9 408.05 550.05 408.25 550.05
L 411.6 550.05
Q 411.75 550.05 411.95 549.9 412.05 549.75 412.05 549.55
L 412.05 535.15
Q 412.05 531.5 409.95 529.5 407.9 527.45 404.5 527.45 402.45 527.45 400.65 528.4 398.85 529.35 397.95 531.25 397.2 529.4 395.45 528.4 393.75 527.45 391.65 527.45 390.1 527.45 388.7 528.1 387.3 528.75 386.5 529.65
L 386.55 528.25
Q 386.55 527.95 386.2 527.95
L 382.8 527.95
M 370.55 532.6
Q 371.45 533.8 371.45 535.65
L 371.45 549.5
Q 371.45 549.7 371.6 549.9 371.75 550.05 371.95 550.05
L 375.3 550.05
Q 375.45 550.05 375.65 549.9 375.75 549.75 375.75 549.55
L 375.75 535.15
Q 375.75 531.5 373.65 529.5 371.6 527.45 368.2 527.45 366.15 527.45 364.35 528.4 362.55 529.35 361.65 531.25 360.9 529.4 359.15 528.4 357.45 527.45 355.35 527.45 353.8 527.45 352.4 528.1 351 528.75 350.2 529.65
L 350.25 528.25
Q 350.25 527.95 349.9 527.95
L 346.5 527.95
Q 345.85 527.95 345.9 528.45 346 529.25 346.05 530.65 346.1 532.05 346.1 533.6
L 346.1 549.5
Q 346.1 549.7 346.2 549.9 346.35 550.05 346.55 550.05
L 349.9 550.05
Q 350.35 550.05 350.35 549.55
L 350.35 536.55
Q 350.35 534.15 351.6 532.8 352.85 531.4 355.1 531.4 358.65 531.4 358.65 535.65
L 358.65 549.5
Q 358.65 549.7 358.8 549.9 358.95 550.05 359.15 550.05
L 362.5 550.05
Q 362.95 550.05 362.95 549.55
L 362.95 537.95
Q 362.95 536.55 363.3 535.35 363.65 534.15 364.3 533.3 364.9 532.4 365.85 531.95 366.8 531.4 368 531.4 369.7 531.4 370.55 532.6
M 726.75 528.1
Q 725.35 528.75 724.55 529.65
L 724.6 528.25
Q 724.6 527.95 724.25 527.95
L 720.85 527.95
Q 720.2 527.95 720.25 528.45 720.35 529.25 720.4 530.65 720.45 532.05 720.45 533.6
L 720.45 549.5
Q 720.45 549.7 720.55 549.9 720.7 550.05 720.9 550.05
L 724.25 550.05
Q 724.7 550.05 724.7 549.55
L 724.7 536.55
Q 724.7 534.15 725.95 532.8 727.2 531.4 729.45 531.4 733 531.4 733 535.65
L 733 549.5
Q 733 549.7 733.15 549.9 733.3 550.05 733.5 550.05
L 736.85 550.05
Q 737.3 550.05 737.3 549.55
L 737.3 537.95
Q 737.3 536.55 737.65 535.35 738 534.15 738.65 533.3 739.25 532.4 740.2 531.95 741.15 531.4 742.35 531.4 744.05 531.4 744.9 532.6 745.8 533.8 745.8 535.65
L 745.8 549.5
Q 745.8 549.7 745.95 549.9 746.1 550.05 746.3 550.05
L 749.65 550.05
Q 749.8 550.05 750 549.9 750.1 549.75 750.1 549.55
L 750.1 535.15
Q 750.1 531.5 748 529.5 745.95 527.45 742.55 527.45 740.5 527.45 738.7 528.4 736.9 529.35 736 531.25 735.25 529.4 733.5 528.4 731.8 527.45 729.7 527.45 728.15 527.45 726.75 528.1
M 705.6 544.25
Q 704 542.25 704 539 704 535.6 705.7 533.5 707.35 531.4 710.6 531.4 711.65 531.4 712.8 531.55 714 531.65 714.9 532 715.25 532.05 715.35 531.95 715.55 531.8 715.55 531.55
L 715.9 528.8
Q 715.95 528.4 715.9 528.3 715.8 528.2 715.65 528.15 714.45 527.75 713.2 527.6 711.9 527.45 710.7 527.45 708.15 527.45 706.1 528.3 704.1 529.15 702.6 530.7 701.15 532.2 700.35 534.35 699.55 536.45 699.55 539 699.55 541.4 700.2 543.45 700.9 545.5 702.2 547.05 703.5 548.55 705.45 549.5 707.4 550.4 709.9 550.6 710.7 550.6 711.5 550.6 712.35 550.6 713.05 550.5 713.8 550.4 714.45 550.3 715.1 550.2 715.55 550 715.85 549.95 715.9 549.8 715.95 549.65 715.9 549.35
L 715.75 546.6
Q 715.7 546.35 715.6 546.25 715.45 546.1 715.1 546.25 712.9 546.95 710.15 546.6 707.15 546.25 705.6 544.25
M 947.65 527.45
Q 945.6 527.45 943.8 528.4 942 529.35 941.1 531.25 940.35 529.4 938.6 528.4 936.9 527.45 934.8 527.45 933.25 527.45 931.85 528.1 930.45 528.75 929.65 529.65
L 929.7 528.25
Q 929.7 527.95 929.35 527.95
L 925.95 527.95
Q 925.3 527.95 925.35 528.45 925.45 529.25 925.5 530.65 925.55 532.05 925.55 533.6
L 925.55 549.5
Q 925.55 549.7 925.65 549.9 925.8 550.05 926 550.05
L 929.35 550.05
Q 929.8 550.05 929.8 549.55
L 929.8 536.55
Q 929.8 534.15 931.05 532.8 932.3 531.4 934.55 531.4 938.1 531.4 938.1 535.65
L 938.1 549.5
Q 938.1 549.7 938.25 549.9 938.4 550.05 938.6 550.05
L 941.95 550.05
Q 942.4 550.05 942.4 549.55
L 942.4 537.95
Q 942.4 536.55 942.75 535.35 943.1 534.15 943.75 533.3 944.35 532.4 945.3 531.95 946.25 531.4 947.45 531.4 949.15 531.4 950 532.6 950.9 533.8 950.9 535.65
L 950.9 549.5
Q 950.9 549.7 951.05 549.9 951.2 550.05 951.4 550.05
L 954.75 550.05
Q 954.9 550.05 955.1 549.9 955.2 549.75 955.2 549.55
L 955.2 535.15
Q 955.2 531.5 953.1 529.5 951.05 527.45 947.65 527.45
M 889.65 527.95
Q 889 527.95 889.05 528.45 889.15 529.25 889.2 530.65 889.25 532.05 889.25 533.6
L 889.25 549.5
Q 889.25 549.7 889.35 549.9 889.5 550.05 889.7 550.05
L 893.05 550.05
Q 893.5 550.05 893.5 549.55
L 893.5 536.55
Q 893.5 534.15 894.75 532.8 896 531.4 898.25 531.4 901.8 531.4 901.8 535.65
L 901.8 549.5
Q 901.8 549.7 901.95 549.9 902.1 550.05 902.3 550.05
L 905.65 550.05
Q 906.1 550.05 906.1 549.55
L 906.1 537.95
Q 906.1 536.55 906.45 535.35 906.8 534.15 907.45 533.3 908.05 532.4 909 531.95 909.95 531.4 911.15 531.4 912.85 531.4 913.7 532.6 914.6 533.8 914.6 535.65
L 914.6 549.5
Q 914.6 549.7 914.75 549.9 914.9 550.05 915.1 550.05
L 918.45 550.05
Q 918.6 550.05 918.8 549.9 918.9 549.75 918.9 549.55
L 918.9 535.15
Q 918.9 531.5 916.8 529.5 914.75 527.45 911.35 527.45 909.3 527.45 907.5 528.4 905.7 529.35 904.8 531.25 904.05 529.4 902.3 528.4 900.6 527.45 898.5 527.45 896.95 527.45 895.55 528.1 894.15 528.75 893.35 529.65
L 893.4 528.25
Q 893.4 527.95 893.05 527.95
L 889.65 527.95 Z"/>
</g>

<g id="Layer0_6_FILL">
<path fill="#FFFFFF" stroke="none" d="
M 271.05 503.5
Q 256.05 503.5 256.05 518.5
L 256.05 548.55
Q 256.05 563.55 271.05 563.55
L 321.05 563.55
Q 336.05 563.55 336.05 548.55
L 336.05 518.5
Q 336.05 503.5 321.05 503.5
L 271.05 503.5
M 691.05 548.55
L 691.05 518.5
Q 691.05 503.5 676.05 503.5
L 626.05 503.5
Q 611.05 503.5 611.05 518.5
L 611.05 548.55
Q 611.05 563.55 626.05 563.55
L 676.05 563.55
Q 691.05 563.55 691.05 548.55
M 876.05 518.5
Q 876.05 503.5 861.05 503.5
L 791.05 503.5
Q 776.05 503.5 776.05 518.5
L 776.05 548.55
Q 776.05 563.55 791.05 563.55
L 861.05 563.55
Q 876.05 563.55 876.05 548.55
L 876.05 518.5 Z"/>
</g>

<path id="Layer0_0_1_STROKES" stroke="#EC008C" stroke-width="3" stroke-linejoin="round" stroke-linecap="round" fill="none" d="
M 200 289.05
L 200 374"/>

<path id="Layer0_1_1_STROKES" stroke="#EC008C" stroke-width="3" stroke-linejoin="round" stroke-linecap="round" fill="none" d="
M 200 289.05
L 200 374"/>

<path id="Layer0_2_1_STROKES" stroke="#EC008C" stroke-width="3" stroke-linejoin="round" stroke-linecap="round" fill="none" d="
M 332.4 366
L 332.4 452.8
M 277.4 366
L 277.4 452.8"/>

<path id="fdbd45466_copy_7_1_Layer0_0_1_STROKES" stroke="#EC008C" stroke-width="4" stroke-linejoin="round" stroke-linecap="round" fill="none" d="
M -326.6 0
L 112.35 0"/>

<path id="fdbd45466_copy_6_0_Layer0_0_1_STROKES" stroke="#EC008C" stroke-width="4" stroke-linejoin="round" stroke-linecap="round" fill="none" d="
M -325.5 0
L -294.45 0"/>

<path id="Layer0_6_1_STROKES" stroke="#DBDBDB" stroke-width="3" stroke-linejoin="round" stroke-linecap="round" fill="none" d="
M 791.05 503.5
L 861.05 503.5
Q 876.05 503.5 876.05 518.5
L 876.05 548.55
Q 876.05 563.55 861.05 563.55
L 791.05 563.55
Q 776.05 563.55 776.05 548.55
L 776.05 518.5
Q 776.05 503.5 791.05 503.5 Z
M 626.05 503.5
L 676.05 503.5
Q 691.05 503.5 691.05 518.5
L 691.05 548.55
Q 691.05 563.55 676.05 563.55
L 626.05 563.55
Q 611.05 563.55 611.05 548.55
L 611.05 518.5
Q 611.05 503.5 626.05 503.5 Z
M 271.05 503.5
L 321.05 503.5
Q 336.05 503.5 336.05 518.5
L 336.05 548.55
Q 336.05 563.55 321.05 563.55
L 271.05 563.55
Q 256.05 563.55 256.05 548.55
L 256.05 518.5
Q 256.05 503.5 271.05 503.5 Z"/>
</defs>

<g transform="matrix( 1, 0, 0, 2.8757781982421875, 358.4,-622.7) ">
<use xlink:href="#Layer0_0_1_STROKES"/>
</g>

<g transform="matrix( 1, 0, 0, 2.8757781982421875, 821.9,-622.7) ">
<use xlink:href="#Layer0_1_1_STROKES"/>
</g>

<g transform="matrix( 1, 0, 0, 1, 0,0) ">
<use xlink:href="#Layer0_2_1_STROKES"/>
</g>

<g transform="matrix( 1, 0, 0, 1, 897.95,434.9) ">
<g transform="matrix( 1, 0, 0, 1, 0,0) ">
<use xlink:href="#fdbd45466_copy_7_1_Layer0_0_1_STROKES"/>
</g>

<g transform="matrix( 1, 0, 0, 1, -1176.55,-404.9) ">
<use xlink:href="#fdbd45466_copy_7_1_Layer0_1_FILL"/>
</g>

<g transform="matrix( -1, 0, 0, -1, 962.6,404.9) ">
<use xlink:href="#fdbd45466_copy_7_1_Layer0_2_FILL"/>
</g>
</g>

<g transform="matrix( 1, 0, 0, 1, 616.2,434.9) ">
<g transform="matrix( 1, 0, 0, 1, -0.5,0) ">
<use xlink:href="#fdbd45466_copy_6_0_Layer0_0_1_STROKES"/>
</g>

<g transform="matrix( 1, 0, 0, 1, -1177.55,-404.9) ">
<use xlink:href="#fdbd45466_copy_6_0_Layer0_1_FILL"/>
</g>

<g transform="matrix( -1, 0, 0, -1, 555.65,404.95) ">
<use xlink:href="#fdbd45466_copy_6_0_Layer0_2_FILL"/>
</g>
</g>

<g transform="matrix( 1, 0, 0, 1, 0,0) ">
<use xlink:href="#Layer0_5_FILL"/>
</g>

<g transform="matrix( 1, 0, 0, 1, 0,0) ">
<use xlink:href="#Layer0_6_FILL"/>

<use xlink:href="#Layer0_6_1_STROKES"/>
</g>
</svg>
