
<svg xmlns="http://www.w3.org/2000/svg" version="1.1" xmlns:xlink="http://www.w3.org/1999/xlink" preserveAspectRatio="none" x="0px" y="0px" width="1280px" height="720px" viewBox="0 0 1280 720">
<defs>
<g id="Layer0_0_FILL">
<path fill="#1E1E1E" stroke="none" d="
M 1053.65 417.1
Q 1053.45 416.9 1053.2 416.9 1052.95 416.9 1052.75 417.1
L 1045.45 424.35 1038.2 417.2
Q 1037.75 416.75 1037.25 417.2
L 1035.55 418.95
Q 1035.35 419.2 1035.35 419.4 1035.35 419.65 1035.55 419.85
L 1042.8 427 1035.25 434.55
Q 1035.05 434.75 1035.05 435.05 1035.05 435.3 1035.25 435.5
L 1036.95 437.2
Q 1037.25 437.7 1037.85 437.2
L 1045.4 429.7 1052.85 437.2
Q 1053.05 437.35 1053.35 437.35 1053.6 437.35 1053.8 437.2
L 1055.45 435.4
Q 1055.7 435.2 1055.7 435 1055.7 434.75 1055.45 434.55
L 1048 427.05 1055.25 419.75
Q 1055.45 419.6 1055.45 419.3 1055.45 419 1055.25 418.8
L 1053.65 417.1
M 1016.55 411.1
Q 1015.15 410.9 1014 410.9 1010.25 410.9 1007.7 412.2 1005.15 413.55 1003.55 415.8 1002 418 1001.3 421.05 1000.6 424.05 1000.6 427.45 1000.6 434.9 1003.15 438.45 1005.7 442 1010.4 442 1012.7 442 1014.55 441.2 1016.4 440.4 1017.7 438.95 1019 437.6 1019.65 435.65 1020.35 433.8 1020.35 431.6 1020.35 429.3 1019.65 427.5 1018.95 425.65 1017.65 424.35 1016.4 423.05 1014.6 422.35 1012.85 421.65 1010.65 421.65 1009.9 421.65 1009.1 421.9 1008.3 422.1 1007.55 422.45 1006.8 422.8 1006.2 423.25 1005.6 423.7 1005.25 424.2 1005.5 422.25 1006.1 420.55 1006.65 418.9 1007.65 417.65 1008.65 416.4 1010.1 415.7 1011.6 415.05 1013.65 415.05 1015.05 415.05 1016.25 415.15 1017.4 415.25 1018.45 415.65 1019 415.9 1019.1 415.35
L 1019.2 412.15
Q 1019.25 411.75 1018.9 411.65 1018 411.3 1016.55 411.1
M 1015.95 431.8
Q 1015.95 434.65 1014.45 436.35 1012.9 438 1010.5 438 1009.4 438 1008.4 437.5 1007.45 437 1006.75 436.1 1006.05 435.2 1005.65 433.95 1005.25 432.8 1005.25 431.4 1005.25 428.95 1006.75 427.4 1008.2 425.85 1010.8 425.85 1013.25 425.85 1014.6 427.45 1015.95 429 1015.95 431.8
M 994.65 418.6
Q 994.65 416.6 993.8 415.1 992.95 413.6 991.6 412.7 990.3 411.8 988.55 411.35 986.8 410.9 985 410.9 983.3 410.9 981.65 411.25 979.95 411.65 978.2 412.25 977.8 412.45 977.65 412.65 977.5 412.8 977.6 413.05
L 977.95 416
Q 978.05 416.35 978.25 416.45 978.45 416.55 978.95 416.35 979.55 416.1 980.35 415.85 981.15 415.6 981.95 415.45 982.75 415.25 983.5 415.15 984.2 415.05 984.75 415.05 985.6 415.05 986.55 415.25 987.5 415.45 988.35 415.95 989.15 416.4 989.7 417.2 990.2 417.95 990.2 418.95 990.2 420.3 989.4 421.2 988.6 422.15 987.4 422.75 986.25 423.35 985 423.6 983.75 423.85 982.9 423.85
L 981 423.85
Q 980.65 423.85 980.55 423.95 980.45 424 980.45 424.4
L 980.45 427.35
Q 980.45 427.65 980.55 427.75 980.65 427.85 981 427.85
L 982.95 427.85
Q 984.9 427.85 986.25 428.25 987.65 428.6 988.55 429.3 989.4 429.95 989.85 430.8 990.25 431.65 990.25 432.6 990.25 435.25 988.3 436.6 987.65 437.05 986.9 437.3 986.1 437.6 985.25 437.7 984.4 437.8 983.5 437.75 982.6 437.7 981.8 437.65 980.7 437.55 979.65 437.25 978.6 436.95 977.55 436.65 977 436.4 976.8 436.55 976.6 436.65 976.55 437
L 976.2 440.05
Q 976.15 440.4 976.35 440.55 976.5 440.75 976.9 440.85 978.35 441.4 980.1 441.7 981.85 442 983.6 442 985.9 442 988.05 441.4 990.2 440.85 991.7 439.6 993.2 438.35 994.05 436.6 994.85 434.8 994.85 432.7 994.85 430.5 993.5 428.7 992.15 426.95 989.5 425.8 990.6 425.3 991.55 424.55 992.5 423.8 993.2 422.8 993.9 421.85 994.3 420.8 994.65 419.7 994.65 418.6
M 872.7 340.5
Q 872.1 340.5 872 340.65 871.85 340.75 871.85 341.2
L 871.65 355.95
Q 871.65 357.3 873.2 356.65 874.45 356.2 875.85 355.95 877.25 355.65 878.55 355.65 881.85 355.65 883.25 357.2 884.7 358.7 884.7 361.3 884.7 364 882.9 365.5 881.2 367.05 878.5 367.05 877.8 367.05 876.95 366.95 876.15 366.9 875.3 366.75 874.45 366.55 873.65 366.35 872.85 366.1 872.3 365.8 871.45 365.4 871.45 366.1
L 871.45 369.35
Q 871.45 369.65 871.45 369.8 871.5 369.9 871.75 370.1 872.4 370.4 873.35 370.6 874.25 370.85 875.2 371 876.15 371.1 876.95 371.2 877.8 371.25 878.2 371.25 880.5 371.25 882.55 370.6 884.65 369.95 886.05 368.65 889.2 365.85 889.2 360.8 889.2 358.7 888.45 357.05 887.7 355.35 886.4 354.15 885.1 353 883.35 352.35 881.6 351.75 879.6 351.75 877.65 351.75 876.05 352.1
L 876.2 344.7 887.35 344.7
Q 887.6 344.7 887.75 344.5 887.85 344.35 887.85 344.1
L 887.85 341.05
Q 887.85 340.85 887.75 340.7 887.6 340.5 887.35 340.5
L 872.7 340.5
M 830.1 345.55
Q 829.4 344 828.25 342.8 827.2 341.65 825.6 340.95 824.05 340.3 822 340.3 818.8 340.3 816.85 341.75 814.9 343.25 813.8 345.5 812.7 347.8 812.3 350.5 811.95 353.25 811.95 355.7 811.95 363.05 814.4 367.1 816.85 371.15 822 371.15 824.55 371.15 826.4 370.15 828.25 369.05 829.5 367.1 830.75 365.15 831.35 362.25 831.95 359.35 831.95 355.7 831.95 354.05 831.75 352.3 831.6 350.5 831.2 348.8 830.8 347.1 830.1 345.55
M 822 344.65
Q 823.2 344.65 824.25 345.25 825.25 345.8 826 347.1 826.7 348.45 827.1 350.55 827.45 352.7 827.45 355.7 827.45 358.8 827.1 360.95 826.7 363.05 826 364.35 825.25 365.7 824.25 366.25 823.2 366.85 822 366.85 820.7 366.85 819.7 366.25 818.7 365.7 818 364.35 817.25 363.05 816.9 360.95 816.5 358.8 816.5 355.7 816.5 352.7 816.9 350.55 817.25 348.45 818 347.1 818.7 345.8 819.7 345.25 820.7 344.65 822 344.65
M 771.8 344.4
Q 770.95 342.9 769.6 342 768.3 341.1 766.55 340.65 764.8 340.2 763 340.2 761.3 340.2 759.65 340.55 757.95 340.95 756.2 341.55 755.8 341.75 755.65 341.95 755.5 342.1 755.6 342.35
L 755.95 345.3
Q 756.05 345.65 756.25 345.75 756.45 345.85 756.95 345.65 757.55 345.4 758.35 345.15 759.15 344.9 759.95 344.75 760.75 344.55 761.5 344.45 762.2 344.35 762.75 344.35 763.6 344.35 764.55 344.55 765.5 344.75 766.35 345.25 767.15 345.7 767.7 346.5 768.2 347.25 768.2 348.25 768.2 349.6 767.4 350.5 766.6 351.45 765.4 352.05 764.25 352.65 763 352.9 761.75 353.15 760.9 353.15
L 759 353.15
Q 758.65 353.15 758.55 353.25 758.45 353.3 758.45 353.7
L 758.45 356.65
Q 758.45 356.95 758.55 357.05 758.65 357.15 759 357.15
L 760.95 357.15
Q 762.9 357.15 764.25 357.55 765.65 357.9 766.55 358.6 767.4 359.25 767.85 360.1 768.25 360.95 768.25 361.9 768.25 364.55 766.3 365.9 765.65 366.35 764.9 366.6 764.1 366.9 763.25 367 762.4 367.1 761.5 367.05 760.6 367 759.8 366.95 758.7 366.85 757.65 366.55 756.6 366.25 755.55 365.95 755 365.7 754.8 365.85 754.6 365.95 754.55 366.3
L 754.2 369.35
Q 754.15 369.7 754.35 369.85 754.5 370.05 754.9 370.15 756.35 370.7 758.1 371 759.85 371.3 761.6 371.3 763.9 371.3 766.05 370.7 768.2 370.15 769.7 368.9 771.2 367.65 772.05 365.9 772.85 364.1 772.85 362 772.85 359.8 771.5 358 770.15 356.25 767.5 355.1 768.6 354.6 769.55 353.85 770.5 353.1 771.2 352.1 771.9 351.15 772.3 350.1 772.65 349 772.65 347.9 772.65 345.9 771.8 344.4
M 703.95 341.5
Q 701.4 342.85 699.8 345.1 698.25 347.3 697.55 350.35 696.85 353.35 696.85 356.75 696.85 364.2 699.4 367.75 701.95 371.3 706.65 371.3 708.95 371.3 710.8 370.5 712.65 369.7 713.95 368.25 715.25 366.9 715.9 364.95 716.6 363.1 716.6 360.9 716.6 358.6 715.9 356.8 715.2 354.95 713.9 353.65 712.65 352.35 710.85 351.65 709.1 350.95 706.9 350.95 706.15 350.95 705.35 351.2 704.55 351.4 703.8 351.75 703.05 352.1 702.45 352.55 701.85 353 701.5 353.5 701.75 351.55 702.35 349.85 702.9 348.2 703.9 346.95 704.9 345.7 706.35 345 707.85 344.35 709.9 344.35 711.3 344.35 712.5 344.45 713.65 344.55 714.7 344.95 715.25 345.2 715.35 344.65
L 715.45 341.45
Q 715.5 341.05 715.15 340.95 714.25 340.6 712.8 340.4 711.4 340.2 710.25 340.2 706.5 340.2 703.95 341.5
M 710.85 356.75
Q 712.2 358.3 712.2 361.1 712.2 363.95 710.7 365.65 709.15 367.3 706.75 367.3 705.65 367.3 704.65 366.8 703.7 366.3 703 365.4 702.3 364.5 701.9 363.25 701.5 362.1 701.5 360.7 701.5 358.25 703 356.7 704.45 355.15 707.05 355.15 709.5 355.15 710.85 356.75
M 677.9 340.55
Q 676.2 340.95 674.45 341.55 674.05 341.75 673.9 341.95 673.75 342.1 673.85 342.35
L 674.2 345.3
Q 674.3 345.65 674.5 345.75 674.7 345.85 675.2 345.65 675.8 345.4 676.6 345.15 677.4 344.9 678.2 344.75 679 344.55 679.75 344.45 680.45 344.35 681 344.35 681.85 344.35 682.8 344.55 683.75 344.75 684.6 345.25 685.4 345.7 685.95 346.5 686.45 347.25 686.45 348.25 686.45 349.6 685.65 350.5 684.85 351.45 683.65 352.05 682.5 352.65 681.25 352.9 680 353.15 679.15 353.15
L 677.25 353.15
Q 676.9 353.15 676.8 353.25 676.7 353.3 676.7 353.7
L 676.7 356.65
Q 676.7 356.95 676.8 357.05 676.9 357.15 677.25 357.15
L 679.2 357.15
Q 681.15 357.15 682.5 357.55 683.9 357.9 684.8 358.6 685.65 359.25 686.1 360.1 686.5 360.95 686.5 361.9 686.5 364.55 684.55 365.9 683.9 366.35 683.15 366.6 682.35 366.9 681.5 367 680.65 367.1 679.75 367.05 678.85 367 678.05 366.95 676.95 366.85 675.9 366.55 674.85 366.25 673.8 365.95 673.25 365.7 673.05 365.85 672.85 365.95 672.8 366.3
L 672.45 369.35
Q 672.4 369.7 672.6 369.85 672.75 370.05 673.15 370.15 674.6 370.7 676.35 371 678.1 371.3 679.85 371.3 682.15 371.3 684.3 370.7 686.45 370.15 687.95 368.9 689.45 367.65 690.3 365.9 691.1 364.1 691.1 362 691.1 359.8 689.75 358 688.4 356.25 685.75 355.1 686.85 354.6 687.8 353.85 688.75 353.1 689.45 352.1 690.15 351.15 690.55 350.1 690.9 349 690.9 347.9 690.9 345.9 690.05 344.4 689.2 342.9 687.85 342 686.55 341.1 684.8 340.65 683.05 340.2 681.25 340.2 679.55 340.2 677.9 340.55
M 463.95 419.75
Q 464.15 419.6 464.15 419.3 464.15 419 463.95 418.8
L 462.35 417.1
Q 462.15 416.9 461.9 416.9 461.65 416.9 461.45 417.1
L 454.15 424.35 446.9 417.2
Q 446.45 416.75 445.95 417.2
L 444.25 418.95
Q 444.05 419.2 444.05 419.4 444.05 419.65 444.25 419.85
L 451.5 427 443.95 434.55
Q 443.75 434.75 443.75 435.05 443.75 435.3 443.95 435.5
L 445.65 437.2
Q 445.95 437.7 446.55 437.2
L 454.1 429.7 461.55 437.2
Q 461.75 437.35 462.05 437.35 462.3 437.35 462.5 437.2
L 464.15 435.4
Q 464.4 435.2 464.4 435 464.4 434.75 464.15 434.55
L 456.7 427.05 463.95 419.75
M 427.6 418.6
Q 427.6 416.6 426.75 415.1 425.9 413.6 424.55 412.7 423.25 411.8 421.5 411.35 419.75 410.9 417.95 410.9 416.25 410.9 414.6 411.25 412.9 411.65 411.15 412.25 410.75 412.45 410.6 412.65 410.45 412.8 410.55 413.05
L 410.9 416
Q 411 416.35 411.2 416.45 411.4 416.55 411.9 416.35 412.5 416.1 413.3 415.85 414.1 415.6 414.9 415.45 415.7 415.25 416.45 415.15 417.15 415.05 417.7 415.05 418.55 415.05 419.5 415.25 420.45 415.45 421.3 415.95 422.1 416.4 422.65 417.2 423.15 417.95 423.15 418.95 423.15 420.3 422.35 421.2 421.55 422.15 420.35 422.75 419.2 423.35 417.95 423.6 416.7 423.85 415.85 423.85
L 413.95 423.85
Q 413.6 423.85 413.5 423.95 413.4 424 413.4 424.4
L 413.4 427.35
Q 413.4 427.65 413.5 427.75 413.6 427.85 413.95 427.85
L 415.9 427.85
Q 417.85 427.85 419.2 428.25 420.6 428.6 421.5 429.3 422.35 429.95 422.8 430.8 423.2 431.65 423.2 432.6 423.2 435.25 421.25 436.6 420.6 437.05 419.85 437.3 419.05 437.6 418.2 437.7 417.35 437.8 416.45 437.75 415.55 437.7 414.75 437.65 413.65 437.55 412.6 437.25 411.55 436.95 410.5 436.65 409.95 436.4 409.75 436.55 409.55 436.65 409.5 437
L 409.15 440.05
Q 409.1 440.4 409.3 440.55 409.45 440.75 409.85 440.85 411.3 441.4 413.05 441.7 414.8 442 416.55 442 418.85 442 421 441.4 423.15 440.85 424.65 439.6 426.15 438.35 427 436.6 427.8 434.8 427.8 432.7 427.8 430.5 426.45 428.7 425.1 426.95 422.45 425.8 423.55 425.3 424.5 424.55 425.45 423.8 426.15 422.8 426.85 421.85 427.25 420.8 427.6 419.7 427.6 418.6
M 393.7 410.9
Q 391.85 410.9 389.85 411.55 387.9 412.2 386.4 413 386 413.2 385.85 413.45 385.75 413.6 385.85 413.8
L 386.4 416.85
Q 386.5 417.2 386.8 417.25 387.1 417.25 387.45 417.05 389.25 416 390.75 415.55 392.3 415.1 393.95 415.1 395.7 415.1 396.85 416.35 398.05 417.6 398.05 419.5 398.05 421.2 396.45 423.8 394.85 426.45 391.5 430.4
L 385.4 437.65
Q 385.2 437.95 385 438.25 384.85 438.6 384.85 438.9
L 384.85 441.2
Q 384.85 441.7 385.6 441.7
L 402.65 441.7
Q 403.2 441.7 403.2 441
L 403.2 438.2
Q 403.2 437.6 402.65 437.6
L 390.9 437.6
Q 391.9 436.45 392.9 435.3 393.9 434.1 394.75 433 395.85 431.7 397.25 430.1 398.6 428.45 399.8 426.7 401 424.9 401.8 423.05 402.6 421.2 402.6 419.4 402.6 417.3 401.9 415.7 401.2 414.1 400.05 413.05 398.9 412 397.25 411.45 395.65 410.9 393.7 410.9
M 297.85 343.75
Q 295.3 340.2 290.6 340.2 288.3 340.2 286.5 341 284.65 341.8 283.35 343.2 282.05 344.6 281.35 346.5 280.7 348.4 280.7 350.6 280.7 352.9 281.4 354.7 282.05 356.5 283.35 357.8 284.65 359.1 286.45 359.8 288.2 360.5 290.35 360.5 291.1 360.5 291.9 360.3 292.7 360.1 293.45 359.75 294.2 359.4 294.85 358.95 295.45 358.5 295.8 358 295.55 359.9 294.95 361.6 294.35 363.25 293.35 364.5 292.35 365.75 290.9 366.45 289.45 367.15 287.35 367.15 285.95 367.15 284.8 367.05 283.6 366.95 282.55 366.5 282 366.3 281.9 366.85
L 281.8 370.05
Q 281.75 370.45 282.1 370.55 283.05 370.9 284.45 371.1 285.9 371.3 287.05 371.3 290.75 371.3 293.3 369.95 295.9 368.65 297.45 366.4 299.05 364.15 299.75 361.15 300.4 358.1 300.4 354.75 300.4 347.3 297.85 343.75
M 290.55 344.15
Q 291.65 344.15 292.6 344.7 293.55 345.2 294.25 346.1 294.95 347 295.35 348.2 295.75 349.4 295.75 350.75 295.75 353.2 294.3 354.8 292.8 356.35 290.2 356.35 287.75 356.35 286.45 354.75 285.1 353.15 285.1 350.4 285.1 347.5 286.6 345.85 288.15 344.15 290.55 344.15
M 230.15 341.5
Q 227.6 342.85 226 345.1 224.45 347.3 223.75 350.35 223.05 353.35 223.05 356.75 223.05 364.2 225.6 367.75 228.15 371.3 232.85 371.3 235.15 371.3 237 370.5 238.85 369.7 240.15 368.25 241.45 366.9 242.1 364.95 242.8 363.1 242.8 360.9 242.8 358.6 242.1 356.8 241.4 354.95 240.1 353.65 238.85 352.35 237.05 351.65 235.3 350.95 233.1 350.95 232.35 350.95 231.55 351.2 230.75 351.4 230 351.75 229.25 352.1 228.65 352.55 228.05 353 227.7 353.5 227.95 351.55 228.55 349.85 229.1 348.2 230.1 346.95 231.1 345.7 232.55 345 234.05 344.35 236.1 344.35 237.5 344.35 238.7 344.45 239.85 344.55 240.9 344.95 241.45 345.2 241.55 344.65
L 241.65 341.45
Q 241.7 341.05 241.35 340.95 240.45 340.6 239 340.4 237.6 340.2 236.45 340.2 232.7 340.2 230.15 341.5
M 233.25 355.15
Q 235.7 355.15 237.05 356.75 238.4 358.3 238.4 361.1 238.4 363.95 236.9 365.65 235.35 367.3 232.95 367.3 231.85 367.3 230.85 366.8 229.9 366.3 229.2 365.4 228.5 364.5 228.1 363.25 227.7 362.1 227.7 360.7 227.7 358.25 229.2 356.7 230.65 355.15 233.25 355.15
M 170.85 340.55
Q 169.15 340.95 167.4 341.55 167 341.75 166.85 341.95 166.7 342.1 166.8 342.35
L 167.15 345.3
Q 167.25 345.65 167.45 345.75 167.65 345.85 168.15 345.65 168.75 345.4 169.55 345.15 170.35 344.9 171.15 344.75 171.95 344.55 172.7 344.45 173.4 344.35 173.95 344.35 174.8 344.35 175.75 344.55 176.7 344.75 177.55 345.25 178.35 345.7 178.9 346.5 179.4 347.25 179.4 348.25 179.4 349.6 178.6 350.5 177.8 351.45 176.6 352.05 175.45 352.65 174.2 352.9 172.95 353.15 172.1 353.15
L 170.2 353.15
Q 169.85 353.15 169.75 353.25 169.65 353.3 169.65 353.7
L 169.65 356.65
Q 169.65 356.95 169.75 357.05 169.85 357.15 170.2 357.15
L 172.15 357.15
Q 174.1 357.15 175.45 357.55 176.85 357.9 177.75 358.6 178.6 359.25 179.05 360.1 179.45 360.95 179.45 361.9 179.45 364.55 177.5 365.9 176.85 366.35 176.1 366.6 175.3 366.9 174.45 367 173.6 367.1 172.7 367.05 171.8 367 171 366.95 169.9 366.85 168.85 366.55 167.8 366.25 166.75 365.95 166.2 365.7 166 365.85 165.8 365.95 165.75 366.3
L 165.4 369.35
Q 165.35 369.7 165.55 369.85 165.7 370.05 166.1 370.15 167.55 370.7 169.3 371 171.05 371.3 172.8 371.3 175.1 371.3 177.25 370.7 179.4 370.15 180.9 368.9 182.4 367.65 183.25 365.9 184.05 364.1 184.05 362 184.05 359.8 182.7 358 181.35 356.25 178.7 355.1 179.8 354.6 180.75 353.85 181.7 353.1 182.4 352.1 183.1 351.15 183.5 350.1 183.85 349 183.85 347.9 183.85 345.9 183 344.4 182.15 342.9 180.8 342 179.5 341.1 177.75 340.65 176 340.2 174.2 340.2 172.5 340.2 170.85 340.55
M 149.95 340.2
Q 148.1 340.2 146.1 340.85 144.15 341.5 142.65 342.3 142.25 342.5 142.1 342.75 142 342.9 142.1 343.1
L 142.65 346.15
Q 142.75 346.5 143.05 346.55 143.35 346.55 143.7 346.35 145.5 345.3 147 344.85 148.55 344.4 150.2 344.4 151.95 344.4 153.1 345.65 154.3 346.9 154.3 348.8 154.3 350.5 152.7 353.1 151.1 355.75 147.75 359.7
L 141.65 366.95
Q 141.45 367.25 141.25 367.55 141.1 367.9 141.1 368.2
L 141.1 370.5
Q 141.1 371 141.85 371
L 158.9 371
Q 159.45 371 159.45 370.3
L 159.45 367.5
Q 159.45 366.9 158.9 366.9
L 147.15 366.9
Q 148.15 365.75 149.15 364.6 150.15 363.4 151 362.3 152.1 361 153.5 359.4 154.85 357.75 156.05 356 157.25 354.2 158.05 352.35 158.85 350.5 158.85 348.7 158.85 346.6 158.15 345 157.45 343.4 156.3 342.35 155.15 341.3 153.5 340.75 151.9 340.2 149.95 340.2 Z"/>

<path fill="#FFFFFF" stroke="none" d="
M 1128.4 395.7
L 1110.45 395.7 1088.4 395.7
Q 1073.4 395.7 1073.4 410.7
L 1073.4 440.75
Q 1073.4 455.75 1088.4 455.75
L 1110.45 455.75 1128.4 455.75
Q 1143.4 455.75 1143.4 440.75
L 1143.4 410.7
Q 1143.4 395.7 1128.4 395.7
M 911.7 530.75
L 911.7 500.7
Q 911.7 485.7 896.7 485.7
L 805.7 485.7
Q 790.7 485.7 790.7 500.7
L 790.7 530.75
Q 790.7 545.75 805.7 545.75
L 896.7 545.75
Q 911.7 545.75 911.7 530.75
M 910.35 268.7
Q 910.35 253.7 895.35 253.7
L 864.35 253.7
Q 849.35 253.7 849.35 268.7
L 849.35 298.75
Q 849.35 313.75 864.35 313.75
L 895.35 313.75
Q 910.35 313.75 910.35 298.75
L 910.35 268.7
M 896.7 395.7
L 878.75 395.7 746.7 395.7
Q 731.7 395.7 731.7 410.7
L 731.7 440.75
Q 731.7 455.75 746.7 455.75
L 878.75 455.75 896.7 455.75
Q 911.7 455.75 911.7 440.75
L 911.7 410.7
Q 911.7 395.7 896.7 395.7
M 519.15 395.7
L 497.1 395.7
Q 482.1 395.7 482.1 410.7
L 482.1 440.75
Q 482.1 455.75 497.1 455.75
L 519.15 455.75 537.1 455.75
Q 552.1 455.75 552.1 440.75
L 552.1 410.7
Q 552.1 395.7 537.1 395.7
L 519.15 395.7
M 306.4 485.7
L 275.4 485.7
Q 260.4 485.7 260.4 500.7
L 260.4 530.75
Q 260.4 545.75 275.4 545.75
L 306.4 545.75
Q 321.4 545.75 321.4 530.75
L 321.4 500.7
Q 321.4 485.7 306.4 485.7
M 306.4 395.7
L 215.4 395.7
Q 200.4 395.7 200.4 410.7
L 200.4 440.75
Q 200.4 455.75 215.4 455.75
L 306.4 455.75
Q 321.4 455.75 321.4 440.75
L 321.4 410.7
Q 321.4 395.7 306.4 395.7
M 275.4 253.7
Q 260.4 253.7 260.4 268.7
L 260.4 298.75
Q 260.4 313.75 275.4 313.75
L 306.4 313.75
Q 321.4 313.75 321.4 298.75
L 321.4 268.7
Q 321.4 253.7 306.4 253.7
L 275.4 253.7 Z"/>
</g>

<g id="Duplicate_Items_Folder_bd4546_0_Layer0_0_MEMBER_0_FILL">
<path fill="#EC008C" stroke="none" d="
M 842.8 595.55
L 889.95 595.55 866.4 554.7 842.8 595.55 Z"/>
</g>

<g id="Duplicate_Items_Folder_bd4546_0_Layer0_0_MEMBER_1_FILL">
<path fill="#EC008C" stroke="none" d="
M 868.9 513.45
L 859.9 513.45 859.9 591.45 868.9 591.45 868.9 513.45 Z"/>
</g>

<path id="Layer0_0_1_STROKES" stroke="#DBDBDB" stroke-width="3" stroke-linejoin="round" stroke-linecap="round" fill="none" d="
M 1088.4 395.7
L 1110.45 395.7 1128.4 395.7
Q 1143.4 395.7 1143.4 410.7
L 1143.4 440.75
Q 1143.4 455.75 1128.4 455.75
L 1110.45 455.75 1088.4 455.75
Q 1073.4 455.75 1073.4 440.75
L 1073.4 410.7
Q 1073.4 395.7 1088.4 395.7 Z
M 864.35 253.7
L 895.35 253.7
Q 910.35 253.7 910.35 268.7
L 910.35 298.75
Q 910.35 313.75 895.35 313.75
L 864.35 313.75
Q 849.35 313.75 849.35 298.75
L 849.35 268.7
Q 849.35 253.7 864.35 253.7 Z
M 746.7 395.7
L 878.75 395.7 896.7 395.7
Q 911.7 395.7 911.7 410.7
L 911.7 440.75
Q 911.7 455.75 896.7 455.75
L 878.75 455.75 746.7 455.75
Q 731.7 455.75 731.7 440.75
L 731.7 410.7
Q 731.7 395.7 746.7 395.7 Z
M 805.7 485.7
L 896.7 485.7
Q 911.7 485.7 911.7 500.7
L 911.7 530.75
Q 911.7 545.75 896.7 545.75
L 805.7 545.75
Q 790.7 545.75 790.7 530.75
L 790.7 500.7
Q 790.7 485.7 805.7 485.7 Z
M 497.1 395.7
L 519.15 395.7 537.1 395.7
Q 552.1 395.7 552.1 410.7
L 552.1 440.75
Q 552.1 455.75 537.1 455.75
L 519.15 455.75 497.1 455.75
Q 482.1 455.75 482.1 440.75
L 482.1 410.7
Q 482.1 395.7 497.1 395.7 Z
M 275.4 253.7
L 306.4 253.7
Q 321.4 253.7 321.4 268.7
L 321.4 298.75
Q 321.4 313.75 306.4 313.75
L 275.4 313.75
Q 260.4 313.75 260.4 298.75
L 260.4 268.7
Q 260.4 253.7 275.4 253.7 Z
M 215.4 395.7
L 306.4 395.7
Q 321.4 395.7 321.4 410.7
L 321.4 440.75
Q 321.4 455.75 306.4 455.75
L 215.4 455.75
Q 200.4 455.75 200.4 440.75
L 200.4 410.7
Q 200.4 395.7 215.4 395.7 Z
M 275.4 485.7
L 306.4 485.7
Q 321.4 485.7 321.4 500.7
L 321.4 530.75
Q 321.4 545.75 306.4 545.75
L 275.4 545.75
Q 260.4 545.75 260.4 530.75
L 260.4 500.7
Q 260.4 485.7 275.4 485.7 Z"/>

<path id="Layer0_0_2_STROKES" stroke="#000000" stroke-width="3" stroke-linejoin="round" stroke-linecap="butt" fill="none" d="
M 910.7 325.35
L 722.1 325.35
Q 722.9 326.55 723.7 327.95 729.95 338.8 729.95 354 729.95 369.3 723.7 380.1 723.1 381.2 722.5 382.1
M 910.7 470.35
L 722.1 470.35
M 323.25 325.35
L 190.8 325.35
Q 191.6 326.55 192.4 327.95 198.65 338.8 198.65 354 198.65 369.3 192.4 380.1 191.8 381.2 191.2 382.1
M 323.25 470.35
L 190.8 470.35"/>
</defs>

<g transform="matrix( 1, 0, 0, 1, 0,0) ">
<use xlink:href="#Layer0_0_FILL"/>

<use xlink:href="#Layer0_0_1_STROKES"/>

<use xlink:href="#Layer0_0_2_STROKES"/>
</g>

<g transform="matrix( 0.0000152587890625, -0.5999755859375, 0.5999755859375, 0.0000152587890625, 351.8,425.7) ">
<g transform="matrix( 0.40716552734375, 0, 0, 0.40716552734375, -352.75,-256.25) ">
<use xlink:href="#Duplicate_Items_Folder_bd4546_0_Layer0_0_MEMBER_0_FILL"/>
</g>

<g transform="matrix( 0.6552734375, 0, 0, 0.6552734375, -566.35,-357.15) ">
<use xlink:href="#Duplicate_Items_Folder_bd4546_0_Layer0_0_MEMBER_1_FILL"/>
</g>
</g>

<g transform="matrix( 0.0000152587890625, -0.5999755859375, 0.5999755859375, 0.0000152587890625, 943.1,425.7) ">
<g transform="matrix( 0.40716552734375, 0, 0, 0.40716552734375, -352.75,-256.25) ">
<use xlink:href="#Duplicate_Items_Folder_bd4546_0_Layer0_0_MEMBER_0_FILL"/>
</g>

<g transform="matrix( 0.6552734375, 0, 0, 0.6552734375, -566.35,-357.15) ">
<use xlink:href="#Duplicate_Items_Folder_bd4546_0_Layer0_0_MEMBER_1_FILL"/>
</g>
</g>
</svg>
