
<svg xmlns="http://www.w3.org/2000/svg" version="1.1" xmlns:xlink="http://www.w3.org/1999/xlink" preserveAspectRatio="none" x="0px" y="0px" width="386px" height="45px" viewBox="0 0 386 45">
<defs>
<g id="fdbdd4547_0_Layer3_0_FILL">
<path fill="#D4E155" stroke="none" d="
M -180.2 -22.7
Q -193.2 -22.7 -193.2 -9.7
L -193.2 9.75
Q -193.2 22.75 -180.2 22.75
L -137.5 22.75 -70.5 22.75 -61.5 22.75 -61.45 22.75 -49.5 22.75 -30.9 22.75 -11.4 22.75 -5.6 22.75 -1.55 22.75 45.6 22.75 163.45 22.75 164.25 22.75 180.2 22.75
Q 188.45 22.75 191.45 17.55 193.2 14.5 193.2 9.75
L 193.2 -9.7
Q 193.2 -14.45 191.45 -17.5 188.45 -22.7 180.2 -22.7
L -180.2 -22.7 Z"/>
</g>

<g id="fdbdd4547_0_Layer2_0_FILL">
<path fill="#FFFFFF" stroke="none" d="
M 1047.35 671.9
Q 1048.4 670.9 1048.4 669.45 1048.4 668 1047.35 666.95 1046.35 665.95 1044.9 665.95 1043.45 665.95 1042.4 666.95 1041.4 668 1041.4 669.45 1041.4 670.9 1042.4 671.9 1043.45 672.95 1044.9 672.95 1046.35 672.95 1047.35 671.9 Z"/>
</g>

<g id="fdbdd4547_0_Layer1_0_FILL">
<path fill="#000000" stroke="none" d="
M 40.1 2.9
Q 40.1 2.25 39.85 2.05 39.6 1.8 39 1.8
L 29.95 1.8
Q 29.9 1.8 29.8 1.85 29.75 1.9 29.75 1.95
L 29.75 3.15
Q 29.75 3.2 29.8 3.25 29.9 3.3 29.95 3.3
L 37.95 3.3
Q 38.1 3.3 38.15 3.35 38.25 3.4 38.25 3.55
L 38.25 6.75
Q 38.25 6.85 38.3 6.9 38.4 7 38.45 7
L 39.85 7
Q 39.95 7 40 6.9 40.1 6.85 40.1 6.75
L 40.1 2.9
M 38.5 -8.15
Q 38.25 -8.15 38.25 -7.95
L 38.25 -4.2 36.85 -4.2 36.85 -7.7
Q 36.85 -7.9 36.65 -7.9
L 35.35 -7.9
Q 35.1 -7.9 35.1 -7.7
L 35.1 0.75
Q 35.1 0.95 35.35 0.95
L 36.65 0.95
Q 36.85 0.95 36.85 0.75
L 36.85 -2.65 38.25 -2.65 38.25 0.85
Q 38.25 1.05 38.45 1.05
L 39.85 1.05
Q 40.1 1.05 40.1 0.85
L 40.1 -7.95
Q 40.1 -8.15 39.85 -8.15
L 38.5 -8.15
M 28.45 -7.25
Q 27.85 -7.25 27.6 -7.05 27.35 -6.8 27.35 -6.25
L 27.35 -0.75
Q 27.35 0.35 28.5 0.4 29.1 0.45 29.8 0.45 30.55 0.4 31.3 0.35 32.1 0.3 32.8 0.2 33.55 0.1 34.1 -0.05 34.15 -0.1 34.25 -0.15 34.35 -0.25 34.35 -0.4
L 34.15 -1.25
Q 34.15 -1.4 34.05 -1.4 33.95 -1.45 33.85 -1.4 33.4 -1.3 32.85 -1.25 32.25 -1.15 31.65 -1.1 31.1 -1.05 30.55 -1.05 30 -1.05 29.65 -1.1 29.4 -1.1 29.3 -1.2 29.2 -1.25 29.2 -1.5
L 29.2 -2.7
Q 29.65 -2.7 30.2 -2.7 30.7 -2.7 31.2 -2.75 31.7 -2.75 32.15 -2.75 32.65 -2.8 33.05 -2.85 33.1 -2.85 33.15 -2.9 33.2 -2.95 33.2 -3.1
L 33.2 -4.1
Q 33.2 -4.15 33.1 -4.2 33.05 -4.2 33 -4.2 32.2 -4.15 31.2 -4.15 30.15 -4.15 29.2 -4.15
L 29.2 -5.5
Q 29.2 -5.8 29.5 -5.8
L 33 -5.8
Q 33.1 -5.8 33.15 -5.85 33.2 -5.95 33.2 -6
L 33.2 -7.05
Q 33.2 -7.25 33 -7.25
L 28.45 -7.25
M 24.6 6.8
Q 24.7 6.8 24.75 6.75 24.85 6.7 24.85 6.6
L 24.85 5.45
Q 24.85 5.4 24.75 5.3 24.7 5.25 24.6 5.25
L 17.2 5.25
Q 17.05 5.25 16.95 5.2 16.9 5.15 16.9 5
L 16.9 2.15
Q 16.9 2.05 16.8 2 16.75 1.9 16.65 1.9
L 15.3 1.9
Q 15.2 1.9 15.15 2 15.05 2.05 15.05 2.15
L 15.05 5.65
Q 15.05 6.25 15.3 6.55 15.55 6.8 16.25 6.8
L 24.6 6.8
M 19.35 -3.4
Q 19.35 -3.3 19.45 -3.25 19.5 -3.2 19.6 -3.2
L 22.5 -3.2 22.5 2.45
Q 22.5 2.65 22.7 2.65
L 24.15 2.65
Q 24.35 2.65 24.35 2.45
L 24.35 -7.95
Q 24.35 -8.15 24.15 -8.15
L 22.7 -8.15
Q 22.5 -8.15 22.5 -7.95
L 22.5 -4.75 19.6 -4.75
Q 19.5 -4.75 19.45 -4.7 19.35 -4.65 19.35 -4.55
L 19.35 -3.4
M 15.75 -7.6
Q 15.7 -7.5 15.7 -7.4 15.7 -6.1 15.45 -5.05 15.25 -4.05 14.8 -3.15 14.35 -2.3 13.7 -1.6 13 -0.85 12.1 -0.25 11.95 -0.15 11.9 -0.05 11.9 0.05 12.05 0.25
L 12.7 1
Q 12.8 1.1 12.9 1.15 13.05 1.15 13.25 1.05 14.3 0.25 15.15 -0.55 15.95 -1.4 16.5 -2.5 17.05 -1.5 17.85 -0.7 18.7 0.1 19.7 0.65 19.95 0.75 20.1 0.5
L 20.7 -0.35
Q 20.9 -0.6 20.65 -0.75 20.15 -0.95 19.65 -1.35 19.15 -1.75 18.7 -2.25 18.2 -2.8 17.85 -3.4 17.45 -4 17.25 -4.65 17.4 -5.25 17.45 -5.95 17.55 -6.6 17.55 -7.35 17.55 -7.6 17.35 -7.6
L 15.9 -7.7
Q 15.85 -7.7 15.75 -7.6
M -7 -4.7
L -7 -3.7
Q -7 -3.6 -6.95 -3.55 -6.9 -3.45 -6.85 -3.45
L -3.5 -3.45
Q -3.25 -3.45 -3.25 -3.35 -3.25 -3.25 -3.35 -3.05 -3.6 -2.4 -4 -1.7 -4.45 -1 -5 -0.35 -5.55 0.3 -6.25 0.9 -6.9 1.55 -7.7 2.05 -7.8 2.15 -7.85 2.25 -7.85 2.4 -7.75 2.5
L -7.2 3.25
Q -7.1 3.4 -6.95 3.35 -6.8 3.35 -6.7 3.3 -5.8 2.7 -5 1.95 -4.2 1.25 -3.55 0.45 -3 1.15 -2.35 1.8 -1.65 2.45 -1.1 2.85 -0.95 2.95 -0.8 2.95 -0.65 2.95 -0.6 2.85
L 0.05 2.05
Q 0.15 1.95 0.15 1.85 0.15 1.7 -0.05 1.6 -0.3 1.4 -0.65 1.1 -0.95 0.85 -1.3 0.5 -1.65 0.15 -2 -0.2 -2.3 -0.55 -2.6 -0.9 -2.15 -1.5 -1.85 -2.15 -1.55 -2.8 -1.3 -3.5 -1.3 -3.6 -1.2 -3.8 -1.15 -4.05 -1.15 -4.15 -1.15 -4.55 -1.45 -4.75 -1.75 -4.9 -2.5 -4.9
L -6.8 -4.9
Q -7 -4.9 -7 -4.7
M -2.05 -7.05
Q -2.05 -7.15 -2.15 -7.2 -2.2 -7.3 -2.3 -7.3
L -5.65 -7.3
Q -5.7 -7.3 -5.8 -7.25 -5.9 -7.15 -5.9 -7.05
L -5.9 -6.1
Q -5.9 -6 -5.8 -5.95 -5.7 -5.9 -5.65 -5.9
L -2.3 -5.9
Q -2.2 -5.9 -2.1 -5.95 -2.05 -6.05 -2.05 -6.15
L -2.05 -7.05
M 2.4 -7.7
Q 2.4 -7.9 2.2 -7.9
L 0.9 -7.9
Q 0.65 -7.9 0.65 -7.7
L 0.65 -2 -1.05 -2
Q -1.1 -2 -1.2 -1.95 -1.25 -1.9 -1.25 -1.8
L -1.25 -0.7
Q -1.25 -0.6 -1.2 -0.55 -1.1 -0.5 -1.05 -0.5
L 0.65 -0.5 0.65 6.2
Q 0.65 6.4 0.9 6.4
L 2.2 6.4
Q 2.4 6.4 2.4 6.2
L 2.4 -7.7
M 5.5 -7.95
Q 5.5 -8.15 5.25 -8.15
L 3.9 -8.15
Q 3.65 -8.15 3.65 -7.95
L 3.65 6.85
Q 3.65 7.05 3.85 7.05
L 5.25 7.05
Q 5.5 7.05 5.5 6.85
L 5.5 -7.95
M -9.8 6.55
L -9.8 5.45
Q -9.8 5.35 -9.85 5.3 -9.95 5.2 -10 5.2
L -17.4 5.2
Q -17.6 5.2 -17.65 5.15 -17.7 5.15 -17.7 4.95
L -17.7 2.15
Q -17.7 2.05 -17.8 2 -17.85 1.9 -17.95 1.9
L -19.35 1.9
Q -19.4 1.9 -19.5 2 -19.55 2.05 -19.55 2.15
L -19.55 5.6
Q -19.55 6.25 -19.3 6.5 -19.05 6.75 -18.35 6.75
L -10 6.75
Q -9.95 6.75 -9.85 6.7 -9.8 6.65 -9.8 6.55
M -11.9 -8.15
Q -12.1 -8.15 -12.1 -7.95
L -12.1 -4.1 -14.65 -4.1
Q -14.7 -4.1 -14.8 -4.05 -14.85 -4 -14.85 -3.9
L -14.85 -2.8
Q -14.85 -2.7 -14.8 -2.65 -14.7 -2.6 -14.65 -2.6
L -12.1 -2.6 -12.1 2.45
Q -12.1 2.65 -11.9 2.65
L -10.45 2.65
Q -10.25 2.65 -10.25 2.45
L -10.25 -7.95
Q -10.25 -8.15 -10.45 -8.15
L -11.9 -8.15
M -21.5 -7.15
Q -21.7 -7.15 -21.7 -6.9
L -21.7 -5.85
Q -21.7 -5.75 -21.65 -5.65 -21.6 -5.6 -21.5 -5.6
L -17.55 -5.6
Q -17.3 -5.6 -17.3 -5.5 -17.25 -5.4 -17.35 -5.25 -17.55 -4.55 -18.05 -3.85 -18.55 -3.15 -19.2 -2.5 -19.9 -1.8 -20.7 -1.25 -21.5 -0.65 -22.4 -0.2 -22.55 -0.1 -22.55 0 -22.6 0.15 -22.55 0.25
L -22.05 1.05
Q -21.95 1.25 -21.8 1.25 -21.65 1.25 -21.55 1.2 -20.45 0.65 -19.45 -0.1 -18.45 -0.85 -17.65 -1.7 -17.3 -1.35 -16.9 -1 -16.5 -0.6 -16.1 -0.3 -15.65 0.05 -15.25 0.3 -14.85 0.55 -14.6 0.7 -14.25 0.85 -14.1 0.6
L -13.55 -0.2
Q -13.35 -0.5 -13.7 -0.7 -14 -0.85 -14.4 -1.1 -14.8 -1.35 -15.15 -1.65 -15.55 -1.95 -15.95 -2.3 -16.3 -2.6 -16.6 -2.9 -16.15 -3.55 -15.8 -4.2 -15.45 -4.8 -15.3 -5.4 -15.25 -5.55 -15.2 -5.75 -15.15 -5.9 -15.1 -6.1 -15.05 -6.6 -15.35 -6.85 -15.7 -7.15 -16.4 -7.15
L -21.5 -7.15
M -28.25 -5.05
L -30.6 -6.95
Q -31.05 -7.3 -31.45 -6.9
L -37.95 1.15 -40.45 -1.15
Q -40.95 -1.5 -41.3 -1.1
L -43.35 1.15
Q -43.7 1.6 -43.3 2
L -37.85 6.95
Q -37.7 7.1 -37.45 7.05 -37.2 7.05 -37.1 6.85
L -28.15 -4.2
Q -27.8 -4.65 -28.25 -5.05 Z"/>
</g>
</defs>

<g transform="matrix( 0.99896240234375, 0, 0, 0.9900970458984375, 193,22.5) ">
<g transform="matrix( 1, 0, 0, 1, 0,0) ">
<use xlink:href="#fdbdd4547_0_Layer3_0_FILL"/>
</g>

<g transform="matrix( 0.7999725341796875, 0, 0, 0.79998779296875, -1020.3,-549.45) ">
<use xlink:href="#fdbdd4547_0_Layer2_0_FILL"/>
</g>

<g transform="matrix( 1, 0, 0, 1, 0,0) ">
<use xlink:href="#fdbdd4547_0_Layer1_0_FILL"/>
</g>
</g>
</svg>
