
<svg xmlns="http://www.w3.org/2000/svg" version="1.1" xmlns:xlink="http://www.w3.org/1999/xlink" preserveAspectRatio="none" x="0px" y="0px" width="1038px" height="413px" viewBox="0 0 1038 413">
<defs>
<g id="Layer0_0_FILL">
<path fill="#FFFFFF" stroke="none" d="
M 281.5 81.6
L 244.5 81.6 224.5 81.6 141.5 81.6 119.5 81.6 35.55 81.6 1.5 81.6 1.5 95.95 1.5 101.6 1.6 393.8
Q 2.65 411.6 21.5 411.6
L 35.55 411.6 119.5 411.6 141.5 411.6 224.5 411.6 244.5 411.6 281.5 411.6 311.45 411.6 346.5 411.6 346.5 81.6 281.5 81.6
M 202.25 113.95
Q 202.25 116.1 200.75 117.45 199.4 118.95 197.25 118.95 195.25 118.95 193.75 117.45 192.25 116.1 192.25 113.95 192.25 111.95 193.75 110.45 195.25 108.95 197.25 108.95 199.4 108.95 200.75 110.45 202.25 111.95 202.25 113.95
M 202.25 163.55
Q 202.25 165.55 200.75 166.95 199.25 168.45 197.25 168.45 195.25 168.45 193.75 166.95 192.25 165.55 192.25 163.55 192.25 161.55 193.75 160.05 195.25 158.55 197.25 158.55 199.4 158.55 200.75 160.05 202.25 161.55 202.25 163.55
M 301.35 113.95
Q 301.35 116.1 299.95 117.45 298.45 118.95 296.45 118.95 294.45 118.95 292.95 117.45 291.45 116.1 291.45 113.95 291.45 111.95 292.95 110.45 294.45 108.95 296.45 108.95 298.45 108.95 299.95 110.45 301.35 111.85 301.35 113.95
M 251.75 113.95
Q 251.75 116.1 250.35 117.45 248.85 118.95 246.85 118.95 244.85 118.95 243.35 117.45 241.85 116.1 241.85 113.95 241.85 111.95 243.35 110.45 244.85 108.95 246.85 108.95 248.85 108.95 250.35 110.45 251.75 111.85 251.75 113.95
M 251.75 163.55
Q 251.75 165.55 250.35 166.95 248.85 168.45 246.85 168.45 244.85 168.45 243.35 166.95 241.85 165.55 241.85 163.55 241.85 161.55 243.35 160.05 244.85 158.55 246.85 158.55 248.85 158.55 250.35 160.05 251.75 161.45 251.75 163.55
M 301.35 163.55
Q 301.35 165.55 299.95 166.95 298.45 168.45 296.45 168.45 294.45 168.45 292.95 166.95 291.45 165.55 291.45 163.55 291.45 161.55 292.95 160.05 294.45 158.55 296.45 158.55 298.45 158.55 299.95 160.05 301.35 161.45 301.35 163.55
M 53.5 114.05
Q 53.5 116.15 52 117.55 50.6 119.05 48.5 119.05 46.5 119.05 45 117.55 43.65 116.15 43.65 114.05 43.65 111.9 45 110.55 46.5 109.05 48.5 109.05 50.6 109.05 52 110.55 53.5 112.05 53.5 114.05
M 53.5 163.65
Q 53.5 165.65 52 167 50.5 168.5 48.5 168.5 46.5 168.5 45 167 43.65 165.65 43.65 163.65 43.65 161.5 45 160.15 46.5 158.65 48.5 158.65 50.6 158.65 52 160.15 53.5 161.65 53.5 163.65
M 152.65 113.95
Q 152.65 116.1 151.15 117.45 149.8 118.95 147.65 118.95 145.65 118.95 144.15 117.45 142.65 116.1 142.65 113.95 142.65 111.95 144.15 110.45 145.65 108.95 147.65 108.95 149.8 108.95 151.15 110.45 152.65 111.95 152.65 113.95
M 103.05 113.95
Q 103.05 116.1 101.55 117.45 100.15 118.95 98.05 118.95 96.05 118.95 94.55 117.45 93.05 116.1 93.05 113.95 93.05 111.95 94.55 110.45 96.05 108.95 98.05 108.95 100.15 108.95 101.55 110.45 103.05 111.95 103.05 113.95
M 103.05 163.55
Q 103.05 165.55 101.55 166.95 100.05 168.45 98.05 168.45 96.05 168.45 94.55 166.95 93.05 165.55 93.05 163.55 93.05 161.55 94.55 160.05 96.05 158.55 98.05 158.55 100.15 158.55 101.55 160.05 103.05 161.55 103.05 163.55
M 152.65 163.55
Q 152.65 165.55 151.15 166.95 149.65 168.45 147.65 168.45 145.65 168.45 144.15 166.95 142.65 165.55 142.65 163.55 142.65 161.55 144.15 160.05 145.65 158.55 147.65 158.55 149.8 158.55 151.15 160.05 152.65 161.55 152.65 163.55
M 152.65 213.05
Q 152.65 215.2 151.15 216.55 149.8 218.05 147.65 218.05 145.65 218.05 144.15 216.55 142.65 215.2 142.65 213.05 142.65 211.05 144.15 209.55 145.55 208.2 147.65 208.2 149.8 208.2 151.15 209.55 152.65 211.05 152.65 213.05
M 103.05 213.05
Q 103.05 215.2 101.55 216.55 100.15 218.05 98.05 218.05 96.05 218.05 94.55 216.55 93.05 215.2 93.05 213.05 93.05 211.05 94.55 209.55 95.95 208.2 98.05 208.2 100.15 208.2 101.55 209.55 103.05 211.05 103.05 213.05
M 103.05 262.65
Q 103.05 264.8 101.55 266.15 100.15 267.65 98.05 267.65 96.05 267.65 94.55 266.15 93.05 264.8 93.05 262.65 93.05 260.65 94.55 259.15 95.95 257.8 98.05 257.8 100.15 257.8 101.55 259.15 103.05 260.65 103.05 262.65
M 152.65 262.65
Q 152.65 264.8 151.15 266.15 149.8 267.65 147.65 267.65 145.65 267.65 144.15 266.15 142.65 264.8 142.65 262.65 142.65 260.65 144.15 259.15 145.55 257.8 147.65 257.8 149.8 257.8 151.15 259.15 152.65 260.65 152.65 262.65
M 53.5 213.15
Q 53.5 215.25 52 216.65 50.6 218.15 48.5 218.15 46.5 218.15 45 216.65 43.65 215.25 43.65 213.15 43.65 211.15 45 209.65 46.5 208.25 48.5 208.25 50.6 208.25 52 209.65 53.5 211.15 53.5 213.15
M 53.5 262.75
Q 53.5 264.9 52 266.25 50.6 267.75 48.5 267.75 46.5 267.75 45 266.25 43.65 264.9 43.65 262.75 43.65 260.75 45 259.25 46.5 257.9 48.5 257.9 50.6 257.9 52 259.25 53.5 260.75 53.5 262.75
M 53.5 312.35
Q 53.5 314.5 52 315.85 50.6 317.35 48.5 317.35 46.5 317.35 45 315.85 43.65 314.5 43.65 312.35 43.65 310.25 45 308.85 46.5 307.35 48.5 307.35 50.6 307.35 52 308.85 53.5 310.35 53.5 312.35
M 53.5 362
Q 53.5 364.1 52 365.5 50.6 367 48.5 367 46.5 367 45 365.5 43.65 364.1 43.65 362 43.65 359.85 45 358.5 46.5 357 48.5 357 50.6 357 52 358.5 53.5 360 53.5 362
M 152.7 312.35
Q 152.7 314.5 151.2 315.85 149.85 317.35 147.7 317.35 145.7 317.35 144.2 315.85 142.7 314.5 142.7 312.35 142.7 310.35 144.2 308.85 145.7 307.35 147.7 307.35 149.85 307.35 151.2 308.85 152.7 310.35 152.7 312.35
M 103.1 312.35
Q 103.1 314.5 101.6 315.85 100.25 317.35 98.1 317.35 96.1 317.35 94.6 315.85 93.1 314.5 93.1 312.35 93.1 310.35 94.6 308.85 96.1 307.35 98.1 307.35 100.25 307.35 101.6 308.85 103.1 310.35 103.1 312.35
M 103.1 362
Q 103.1 364.1 101.6 365.5 100.25 367 98.1 367 96.1 367 94.6 365.5 93.1 364.1 93.1 362 93.1 360 94.6 358.5 96.1 357 98.1 357 100.25 357 101.6 358.5 103.1 360 103.1 362
M 152.7 362
Q 152.7 364.1 151.2 365.5 149.85 367 147.7 367 145.7 367 144.2 365.5 142.7 364.1 142.7 362 142.7 360 144.2 358.5 145.7 357 147.7 357 149.85 357 151.2 358.5 152.7 360 152.7 362
M 301.35 213.05
Q 301.35 215.2 299.95 216.55 298.45 218.05 296.45 218.05 294.45 218.05 292.95 216.55 291.45 215.2 291.45 213.05 291.45 211.05 292.95 209.55 294.35 208.2 296.45 208.2 298.6 208.2 299.95 209.55 301.35 211.05 301.35 213.05
M 251.75 213.05
Q 251.75 215.2 250.35 216.55 248.85 218.05 246.85 218.05 244.85 218.05 243.35 216.55 241.85 215.2 241.85 213.05 241.85 211.05 243.35 209.55 244.75 208.2 246.85 208.2 249 208.2 250.35 209.55 251.75 211.05 251.75 213.05
M 251.75 262.65
Q 251.75 264.8 250.35 266.15 248.85 267.65 246.85 267.65 244.85 267.65 243.35 266.15 241.85 264.8 241.85 262.65 241.85 260.65 243.35 259.15 244.75 257.8 246.85 257.8 249 257.8 250.35 259.15 251.75 260.65 251.75 262.65
M 301.35 262.65
Q 301.35 264.8 299.95 266.15 298.45 267.65 296.45 267.65 294.45 267.65 292.95 266.15 291.45 264.8 291.45 262.65 291.45 260.65 292.95 259.15 294.35 257.8 296.45 257.8 298.6 257.8 299.95 259.15 301.35 260.65 301.35 262.65
M 202.25 213.05
Q 202.25 215.2 200.75 216.55 199.4 218.05 197.25 218.05 195.25 218.05 193.75 216.55 192.25 215.2 192.25 213.05 192.25 211.05 193.75 209.55 195.15 208.2 197.25 208.2 199.4 208.2 200.75 209.55 202.25 211.05 202.25 213.05
M 202.25 262.65
Q 202.25 264.8 200.75 266.15 199.4 267.65 197.25 267.65 195.25 267.65 193.75 266.15 192.25 264.8 192.25 262.65 192.25 260.65 193.75 259.15 195.15 257.8 197.25 257.8 199.4 257.8 200.75 259.15 202.25 260.65 202.25 262.65
M 202.35 312.35
Q 202.35 314.5 200.85 315.85 199.45 317.35 197.35 317.35 195.35 317.35 193.85 315.85 192.35 314.5 192.35 312.35 192.35 310.35 193.85 308.85 195.35 307.35 197.35 307.35 199.45 307.35 200.85 308.85 202.35 310.35 202.35 312.35
M 202.35 362
Q 202.35 364.1 200.85 365.5 199.45 367 197.35 367 195.35 367 193.85 365.5 192.35 364.1 192.35 362 192.35 360 193.85 358.5 195.35 357 197.35 357 199.45 357 200.85 358.5 202.35 360 202.35 362
M 301.45 312.35
Q 301.45 314.5 300.05 315.85 298.55 317.35 296.55 317.35 294.55 317.35 293.05 315.85 291.55 314.5 291.55 312.35 291.55 310.35 293.05 308.85 294.55 307.35 296.55 307.35 298.55 307.35 300.05 308.85 301.45 310.25 301.45 312.35
M 251.8 312.35
Q 251.8 314.5 250.45 315.85 248.95 317.35 246.95 317.35 244.95 317.35 243.45 315.85 241.95 314.5 241.95 312.35 241.95 310.35 243.45 308.85 244.95 307.35 246.95 307.35 248.95 307.35 250.45 308.85 251.8 310.25 251.8 312.35
M 251.8 362
Q 251.8 364.1 250.45 365.5 248.95 367 246.95 367 244.95 367 243.45 365.5 241.95 364.1 241.95 362 241.95 360 243.45 358.5 244.95 357 246.95 357 248.95 357 250.45 358.5 251.8 359.85 251.8 362
M 301.45 362
Q 301.45 364.1 300.05 365.5 298.55 367 296.55 367 294.55 367 293.05 365.5 291.55 364.1 291.55 362 291.55 360 293.05 358.5 294.55 357 296.55 357 298.55 357 300.05 358.5 301.45 359.85 301.45 362
M 674.45 81.6
L 672.45 81.6 561.45 81.6 524.45 81.6 497.45 81.6 480.5 81.6 448.45 81.6 421.45 81.6 374.5 81.6 346.5 81.6 346.5 411.6 374.5 411.6 421.45 411.6 448.45 411.6 480.5 411.6 497.45 411.6 524.45 411.6 561.45 411.6 672.45 411.6 674.45 411.6 691.5 411.6 691.5 81.6 674.45 81.6
M 399.7 113.95
Q 399.7 116.1 398.2 117.45 396.85 118.95 394.7 118.95 392.75 118.95 391.25 117.45 389.75 116.1 389.75 113.95 389.75 111.95 391.25 110.45 392.75 108.95 394.7 108.95 396.85 108.95 398.2 110.45 399.7 111.95 399.7 113.95
M 399.7 163.55
Q 399.7 165.55 398.2 166.95 396.7 168.45 394.7 168.45 392.75 168.45 391.25 166.95 389.75 165.55 389.75 163.55 389.75 161.55 391.25 160.05 392.75 158.55 394.7 158.55 396.85 158.55 398.2 160.05 399.7 161.55 399.7 163.55
M 399.7 213.05
Q 399.7 215.2 398.2 216.55 396.85 218.05 394.7 218.05 392.75 218.05 391.25 216.55 389.75 215.2 389.75 213.05 389.75 211.05 391.25 209.55 392.6 208.2 394.7 208.2 396.85 208.2 398.2 209.55 399.7 211.05 399.7 213.05
M 399.7 262.65
Q 399.7 264.8 398.2 266.15 396.85 267.65 394.7 267.65 392.75 267.65 391.25 266.15 389.75 264.8 389.75 262.65 389.75 260.65 391.25 259.15 392.6 257.8 394.7 257.8 396.85 257.8 398.2 259.15 399.7 260.65 399.7 262.65
M 399.7 312.25
Q 399.7 314.4 398.2 315.75 396.85 317.25 394.7 317.25 392.75 317.25 391.25 315.75 389.75 314.4 389.75 312.25 389.75 310.25 391.25 308.75 392.75 307.25 394.7 307.25 396.85 307.25 398.2 308.75 399.7 310.25 399.7 312.25
M 399.7 361.9
Q 399.7 364 398.2 365.4 396.85 366.9 394.7 366.9 392.75 366.9 391.25 365.4 389.75 364 389.75 361.9 389.75 359.9 391.25 358.4 392.75 356.9 394.7 356.9 396.85 356.9 398.2 358.4 399.7 359.9 399.7 361.9
M 449.35 312.25
Q 449.35 314.4 447.85 315.75 446.45 317.25 444.35 317.25 442.35 317.25 440.85 315.75 439.35 314.4 439.35 312.25 439.35 310.25 440.85 308.75 442.35 307.25 444.35 307.25 446.45 307.25 447.85 308.75 449.35 310.25 449.35 312.25
M 444.35 366.9
Q 442.35 366.9 440.85 365.4 439.35 364 439.35 361.9 439.35 359.9 440.85 358.4 442.35 356.9 444.35 356.9 446.45 356.9 447.85 358.4 449.35 359.9 449.35 361.9 449.35 364 447.85 365.4 446.45 366.9 444.35 366.9
M 548.4 312.25
Q 548.4 314.4 547.05 315.75 545.55 317.25 543.55 317.25 541.55 317.25 540.05 315.75 538.55 314.4 538.55 312.25 538.55 310.25 540.05 308.75 541.55 307.25 543.55 307.25 545.55 307.25 547.05 308.75 548.4 310.15 548.4 312.25
M 497.45 315.75
Q 496.05 317.25 493.95 317.25 491.95 317.25 490.45 315.75 488.95 314.4 488.95 312.25 488.95 310.25 490.45 308.75 491.95 307.25 493.95 307.25 496.05 307.25 497.45 308.75 498.95 310.25 498.95 312.25 498.95 314.4 497.45 315.75
M 497.45 365.4
Q 496.05 366.9 493.95 366.9 491.95 366.9 490.45 365.4 488.95 364 488.95 361.9 488.95 359.9 490.45 358.4 491.95 356.9 493.95 356.9 496.05 356.9 497.45 358.4 498.95 359.9 498.95 361.9 498.95 364 497.45 365.4
M 548.4 361.9
Q 548.4 364 547.05 365.4 545.55 366.9 543.55 366.9 541.55 366.9 540.05 365.4 538.55 364 538.55 361.9 538.55 359.9 540.05 358.4 541.55 356.9 543.55 356.9 545.55 356.9 547.05 358.4 548.4 359.75 548.4 361.9
M 647.6 312.25
Q 647.6 314.4 646.1 315.75 644.75 317.25 642.6 317.25 640.65 317.25 639.15 315.75 637.75 314.4 637.75 312.25 637.75 310.15 639.15 308.75 640.65 307.25 642.6 307.25 644.75 307.25 646.1 308.75 647.6 310.25 647.6 312.25
M 598 312.25
Q 598 314.25 596.5 315.75 595.15 317.25 593.15 317.25 591.15 317.25 589.65 315.75 588.15 314.4 588.15 312.25 588.15 310.25 589.65 308.75 591.15 307.25 593.15 307.25 595.15 307.25 596.5 308.75 598 310.25 598 312.25
M 598 361.9
Q 598 363.9 596.5 365.4 595.15 366.9 593.15 366.9 591.15 366.9 589.65 365.4 588.15 364 588.15 361.9 588.15 359.9 589.65 358.4 591.15 356.9 593.15 356.9 595.15 356.9 596.5 358.4 598 359.9 598 361.9
M 647.6 361.9
Q 647.6 364 646.1 365.4 644.75 366.9 642.6 366.9 640.65 366.9 639.15 365.4 637.75 364 637.75 361.9 637.75 359.75 639.15 358.4 640.65 356.9 642.6 356.9 644.75 356.9 646.1 358.4 647.6 359.9 647.6 361.9
M 548.3 113.9
Q 548.3 116 546.9 117.4 545.4 118.9 543.4 118.9 541.4 118.9 539.9 117.4 538.45 116 538.45 113.9 538.45 111.9 539.9 110.4 541.4 108.9 543.4 108.9 545.4 108.9 546.9 110.4 548.3 111.75 548.3 113.9
M 497.3 117.4
Q 495.95 118.9 493.8 118.9 491.8 118.9 490.35 117.4 488.85 116 488.85 113.9 488.85 111.9 490.35 110.4 491.8 108.9 493.8 108.9 495.95 108.9 497.3 110.4 498.8 111.9 498.8 113.9 498.8 116 497.3 117.4
M 497.3 166.9
Q 495.8 168.35 493.8 168.35 491.8 168.35 490.35 166.9 488.85 165.5 488.85 163.5 488.85 161.5 490.35 160 491.8 158.5 493.8 158.5 495.95 158.5 497.3 160 498.8 161.5 498.8 163.5 498.8 165.5 497.3 166.9
M 548.3 163.5
Q 548.3 165.5 546.9 166.9 545.4 168.35 543.4 168.35 541.4 168.35 539.9 166.9 538.45 165.5 538.45 163.5 538.45 161.5 539.9 160 541.4 158.5 543.4 158.5 545.4 158.5 546.9 160 548.3 161.4 548.3 163.5
M 647.5 113.9
Q 647.5 116 646 117.4 644.6 118.9 642.5 118.9 640.5 118.9 639 117.4 637.6 116 637.6 113.9 637.6 111.75 639 110.4 640.5 108.9 642.5 108.9 644.6 108.9 646 110.4 647.5 111.9 647.5 113.9
M 597.9 113.9
Q 597.9 115.9 596.4 117.4 595 118.9 593 118.9 591 118.9 589.5 117.4 588 116 588 113.9 588 111.9 589.5 110.4 591 108.9 593 108.9 595 108.9 596.4 110.4 597.9 111.9 597.9 113.9
M 597.9 163.5
Q 597.9 165.5 596.4 166.9 595 168.35 593 168.35 591 168.35 589.5 166.9 588 165.5 588 163.5 588 161.5 589.5 160 591 158.5 593 158.5 595 158.5 596.4 160 597.9 161.5 597.9 163.5
M 647.5 163.5
Q 647.5 165.5 646 166.9 644.5 168.35 642.5 168.35 640.5 168.35 639 166.9 637.6 165.5 637.6 163.5 637.6 161.4 639 160 640.5 158.5 642.5 158.5 644.6 158.5 646 160 647.5 161.5 647.5 163.5
M 449.2 113.9
Q 449.2 116 447.7 117.4 446.35 118.9 444.2 118.9 442.25 118.9 440.75 117.4 439.25 116 439.25 113.9 439.25 111.9 440.75 110.4 442.25 108.9 444.2 108.9 446.35 108.9 447.7 110.4 449.2 111.9 449.2 113.9
M 444.2 168.35
Q 442.25 168.35 440.75 166.9 439.25 165.5 439.25 163.5 439.25 161.5 440.75 160 442.25 158.5 444.2 158.5 446.35 158.5 447.7 160 449.2 161.5 449.2 163.5 449.2 165.5 447.7 166.9 446.2 168.35 444.2 168.35
M 449.2 213
Q 449.2 215.1 447.7 216.5 446.35 218 444.2 218 442.25 218 440.75 216.5 439.25 215.1 439.25 213 439.25 211 440.75 209.5 442.1 208.1 444.2 208.1 446.35 208.1 447.7 209.5 449.2 211 449.2 213
M 444.2 267.6
Q 442.25 267.6 440.75 266.1 439.25 264.7 439.25 262.6 439.25 260.6 440.75 259.1 442.1 257.7 444.2 257.7 446.35 257.7 447.7 259.1 449.2 260.6 449.2 262.6 449.2 264.7 447.7 266.1 446.35 267.6 444.2 267.6
M 647.5 213
Q 647.5 215.1 646 216.5 644.6 218 642.5 218 640.5 218 639 216.5 637.6 215.1 637.6 213 637.6 211 639 209.5 640.5 208.1 642.5 208.1 644.6 208.1 646 209.5 647.5 211 647.5 213
M 597.9 213
Q 597.9 215 596.4 216.5 595 218 593 218 591 218 589.5 216.5 588 215.1 588 213 588 211 589.5 209.5 590.9 208.1 593 208.1 595 208.1 596.4 209.5 597.9 211 597.9 213
M 597.9 262.6
Q 597.9 264.6 596.4 266.1 595 267.6 593 267.6 591 267.6 589.5 266.1 588 264.7 588 262.6 588 260.6 589.5 259.1 590.9 257.7 593 257.7 595 257.7 596.4 259.1 597.9 260.6 597.9 262.6
M 548.3 213
Q 548.3 215.1 546.9 216.5 545.4 218 543.4 218 541.4 218 539.9 216.5 538.45 215.1 538.45 213 538.45 211 539.9 209.5 541.3 208.1 543.4 208.1 545.55 208.1 546.9 209.5 548.3 211 548.3 213
M 497.3 216.5
Q 495.95 218 493.8 218 491.8 218 490.35 216.5 488.85 215.1 488.85 213 488.85 211 490.35 209.5 491.7 208.1 493.8 208.1 495.95 208.1 497.3 209.5 498.8 211 498.8 213 498.8 215.1 497.3 216.5
M 497.3 266.1
Q 495.95 267.6 493.8 267.6 491.8 267.6 490.35 266.1 488.85 264.7 488.85 262.6 488.85 260.6 490.35 259.1 491.7 257.7 493.8 257.7 495.95 257.7 497.3 259.1 498.8 260.6 498.8 262.6 498.8 264.7 497.3 266.1
M 548.3 262.6
Q 548.3 264.7 546.9 266.1 545.4 267.6 543.4 267.6 541.4 267.6 539.9 266.1 538.45 264.7 538.45 262.6 538.45 260.6 539.9 259.1 541.3 257.7 543.4 257.7 545.55 257.7 546.9 259.1 548.3 260.6 548.3 262.6
M 647.5 262.6
Q 647.5 264.7 646 266.1 644.6 267.6 642.5 267.6 640.5 267.6 639 266.1 637.6 264.7 637.6 262.6 637.6 260.6 639 259.1 640.5 257.7 642.5 257.7 644.6 257.7 646 259.1 647.5 260.6 647.5 262.6
M 1036.45 393.8
L 1036.5 81.6 878.8 81.6 864.4 81.6 841.4 81.6 824.4 81.6 750.45 81.6 739.5 81.6 730.5 81.6 701.45 81.6 691.5 81.6 691.5 411.6 701.45 411.6 730.5 411.6 739.5 411.6 750.45 411.6 824.4 411.6 841.4 411.6 1016.5 411.6
Q 1035.3 411.6 1036.45 393.8
M 988.8 317.25
Q 986.8 317.25 985.3 315.75 983.8 314.4 983.8 312.25 983.8 310.25 985.3 308.75 986.8 307.25 988.8 307.25 990.95 307.25 992.3 308.75 993.8 310.25 993.8 312.25 993.8 314.4 992.3 315.75 990.95 317.25 988.8 317.25
M 988.8 366.9
Q 986.8 366.9 985.3 365.4 983.8 364 983.8 361.9 983.8 359.9 985.3 358.4 986.8 356.9 988.8 356.9 990.95 356.9 992.3 358.4 993.8 359.9 993.8 361.9 993.8 364 992.3 365.4 990.95 366.9 988.8 366.9
M 745.9 113.95
Q 745.9 116.1 744.4 117.45 743.05 118.95 740.9 118.95 738.9 118.95 737.4 117.45 735.9 116.1 735.9 113.95 735.9 111.95 737.4 110.45 738.9 108.95 740.9 108.95 743.05 108.95 744.4 110.45 745.9 111.95 745.9 113.95
M 745.9 163.55
Q 745.9 165.55 744.4 166.95 742.9 168.45 740.9 168.45 738.9 168.45 737.4 166.95 735.9 165.55 735.9 163.55 735.9 161.55 737.4 160.05 738.9 158.55 740.9 158.55 743.05 158.55 744.4 160.05 745.9 161.55 745.9 163.55
M 745.9 213.05
Q 745.9 215.2 744.4 216.55 743.05 218.05 740.9 218.05 738.9 218.05 737.4 216.55 735.9 215.2 735.9 213.05 735.9 211.05 737.4 209.55 738.8 208.2 740.9 208.2 743.05 208.2 744.4 209.55 745.9 211.05 745.9 213.05
M 745.9 262.65
Q 745.9 264.8 744.4 266.15 743.05 267.65 740.9 267.65 738.9 267.65 737.4 266.15 735.9 264.8 735.9 262.65 735.9 260.65 737.4 259.15 738.8 257.8 740.9 257.8 743.05 257.8 744.4 259.15 745.9 260.65 745.9 262.65
M 795.4 312.25
Q 795.4 314.4 794 315.75 792.5 317.25 790.5 317.25 788.5 317.25 787 315.75 785.5 314.4 785.5 312.25 785.5 310.25 787 308.75 788.5 307.25 790.5 307.25 792.5 307.25 794 308.75 795.4 310.15 795.4 312.25
M 745.9 312.25
Q 745.9 314.4 744.4 315.75 743.05 317.25 740.9 317.25 738.9 317.25 737.4 315.75 735.9 314.4 735.9 312.25 735.9 310.25 737.4 308.75 738.9 307.25 740.9 307.25 743.05 307.25 744.4 308.75 745.9 310.25 745.9 312.25
M 745.9 361.9
Q 745.9 364 744.4 365.4 743.05 366.9 740.9 366.9 738.9 366.9 737.4 365.4 735.9 364 735.9 361.9 735.9 359.9 737.4 358.4 738.9 356.9 740.9 356.9 743.05 356.9 744.4 358.4 745.9 359.9 745.9 361.9
M 795.4 361.9
Q 795.4 364 794 365.4 792.5 366.9 790.5 366.9 788.5 366.9 787 365.4 785.5 364 785.5 361.9 785.5 359.9 787 358.4 788.5 356.9 790.5 356.9 792.5 356.9 794 358.4 795.4 359.75 795.4 361.9
M 886.2 315.75
Q 884.7 314.25 884.7 312.25 884.7 310.25 886.2 308.75 887.6 307.25 889.6 307.25 891.7 307.25 893.1 308.75 894.6 310.25 894.6 312.25 894.6 314.4 893.1 315.75 891.7 317.25 889.6 317.25 887.6 317.25 886.2 315.75
M 845 312.25
Q 845 314.4 843.6 315.75 842.1 317.25 840.1 317.25 838.1 317.25 836.6 315.75 835.1 314.4 835.1 312.25 835.1 310.25 836.6 308.75 838.1 307.25 840.1 307.25 842.1 307.25 843.6 308.75 845 310.15 845 312.25
M 845 361.9
Q 845 364 843.6 365.4 842.1 366.9 840.1 366.9 838.1 366.9 836.6 365.4 835.1 364 835.1 361.9 835.1 359.9 836.6 358.4 838.1 356.9 840.1 356.9 842.1 356.9 843.6 358.4 845 359.75 845 361.9
M 886.2 365.4
Q 884.7 363.9 884.7 361.9 884.7 359.9 886.2 358.4 887.6 356.9 889.6 356.9 891.7 356.9 893.1 358.4 894.6 359.9 894.6 361.9 894.6 364 893.1 365.4 891.7 366.9 889.6 366.9 887.6 366.9 886.2 365.4
M 944.2 312.25
Q 944.2 314.4 942.7 315.75 941.3 317.25 939.2 317.25 937.2 317.25 935.7 315.75 934.35 314.4 934.35 312.25 934.35 310.15 935.7 308.75 937.2 307.25 939.2 307.25 941.3 307.25 942.7 308.75 944.2 310.25 944.2 312.25
M 944.2 361.9
Q 944.2 364 942.7 365.4 941.3 366.9 939.2 366.9 937.2 366.9 935.7 365.4 934.35 364 934.35 361.9 934.35 359.75 935.7 358.4 937.2 356.9 939.2 356.9 941.3 356.9 942.7 358.4 944.2 359.9 944.2 361.9
M 993.65 113.9
Q 993.65 116 992.15 117.4 990.75 118.9 988.65 118.9 986.65 118.9 985.15 117.4 983.65 116 983.65 113.9 983.65 111.9 985.15 110.4 986.65 108.9 988.65 108.9 990.75 108.9 992.15 110.4 993.65 111.9 993.65 113.9
M 993.65 163.5
Q 993.65 165.5 992.15 166.9 990.65 168.35 988.65 168.35 986.65 168.35 985.15 166.9 983.65 165.5 983.65 163.5 983.65 161.5 985.15 160 986.65 158.5 988.65 158.5 990.75 158.5 992.15 160 993.65 161.5 993.65 163.5
M 886.05 117.4
Q 884.55 115.9 884.55 113.9 884.55 111.9 886.05 110.4 887.45 108.9 889.45 108.9 891.55 108.9 892.95 110.4 894.45 111.9 894.45 113.9 894.45 116 892.95 117.4 891.55 118.9 889.45 118.9 887.45 118.9 886.05 117.4
M 844.85 113.9
Q 844.85 116 843.45 117.4 841.95 118.9 839.95 118.9 837.95 118.9 836.45 117.4 834.95 116 834.95 113.9 834.95 111.9 836.45 110.4 837.95 108.9 839.95 108.9 841.95 108.9 843.45 110.4 844.85 111.75 844.85 113.9
M 844.85 163.5
Q 844.85 165.5 843.45 166.9 841.95 168.35 839.95 168.35 837.95 168.35 836.45 166.9 834.95 165.5 834.95 163.5 834.95 161.5 836.45 160 837.95 158.5 839.95 158.5 841.95 158.5 843.45 160 844.85 161.4 844.85 163.5
M 886.05 166.9
Q 884.55 165.5 884.55 163.5 884.55 161.5 886.05 160 887.45 158.5 889.45 158.5 891.55 158.5 892.95 160 894.45 161.5 894.45 163.5 894.45 165.5 892.95 166.9 891.45 168.35 889.45 168.35 887.45 168.35 886.05 166.9
M 944.05 113.9
Q 944.05 116 942.55 117.4 941.15 118.9 939.05 118.9 937.05 118.9 935.55 117.4 934.15 116 934.15 113.9 934.15 111.75 935.55 110.4 937.05 108.9 939.05 108.9 941.15 108.9 942.55 110.4 944.05 111.9 944.05 113.9
M 944.05 163.5
Q 944.05 165.5 942.55 166.9 941.05 168.35 939.05 168.35 937.05 168.35 935.55 166.9 934.15 165.5 934.15 163.5 934.15 161.4 935.55 160 937.05 158.5 939.05 158.5 941.15 158.5 942.55 160 944.05 161.5 944.05 163.5
M 795.25 113.9
Q 795.25 116 793.85 117.4 792.35 118.9 790.35 118.9 788.35 118.9 786.85 117.4 785.35 116 785.35 113.9 785.35 111.9 786.85 110.4 788.35 108.9 790.35 108.9 792.35 108.9 793.85 110.4 795.25 111.75 795.25 113.9
M 795.25 163.5
Q 795.25 165.5 793.85 166.9 792.35 168.35 790.35 168.35 788.35 168.35 786.85 166.9 785.35 165.5 785.35 163.5 785.35 161.5 786.85 160 788.35 158.5 790.35 158.5 792.35 158.5 793.85 160 795.25 161.4 795.25 163.5
M 795.25 213
Q 795.25 215.1 793.85 216.5 792.35 218 790.35 218 788.35 218 786.85 216.5 785.35 215.1 785.35 213 785.35 211 786.85 209.5 788.25 208.1 790.35 208.1 792.5 208.1 793.85 209.5 795.25 211 795.25 213
M 795.25 262.6
Q 795.25 264.7 793.85 266.1 792.35 267.6 790.35 267.6 788.35 267.6 786.85 266.1 785.35 264.7 785.35 262.6 785.35 260.6 786.85 259.1 788.25 257.7 790.35 257.7 792.5 257.7 793.85 259.1 795.25 260.6 795.25 262.6
M 944.05 213
Q 944.05 215.1 942.55 216.5 941.15 218 939.05 218 937.05 218 935.55 216.5 934.15 215.1 934.15 213 934.15 211 935.55 209.5 937.05 208.1 939.05 208.1 941.15 208.1 942.55 209.5 944.05 211 944.05 213
M 894.45 213
Q 894.45 215.1 892.95 216.5 891.55 218 889.45 218 887.45 218 886.05 216.5 884.55 215 884.55 213 884.55 211 886.05 209.5 887.45 208.1 889.45 208.1 891.55 208.1 892.95 209.5 894.45 211 894.45 213
M 894.45 262.6
Q 894.45 264.7 892.95 266.1 891.55 267.6 889.45 267.6 887.45 267.6 886.05 266.1 884.55 264.6 884.55 262.6 884.55 260.6 886.05 259.1 887.45 257.7 889.45 257.7 891.55 257.7 892.95 259.1 894.45 260.6 894.45 262.6
M 944.05 262.6
Q 944.05 264.7 942.55 266.1 941.15 267.6 939.05 267.6 937.05 267.6 935.55 266.1 934.15 264.7 934.15 262.6 934.15 260.6 935.55 259.1 937.05 257.7 939.05 257.7 941.15 257.7 942.55 259.1 944.05 260.6 944.05 262.6
M 844.85 213
Q 844.85 215.1 843.45 216.5 841.95 218 839.95 218 837.95 218 836.45 216.5 834.95 215.1 834.95 213 834.95 211 836.45 209.5 837.85 208.1 839.95 208.1 842.1 208.1 843.45 209.5 844.85 211 844.85 213
M 844.85 262.6
Q 844.85 264.7 843.45 266.1 841.95 267.6 839.95 267.6 837.95 267.6 836.45 266.1 834.95 264.7 834.95 262.6 834.95 260.6 836.45 259.1 837.85 257.7 839.95 257.7 842.1 257.7 843.45 259.1 844.85 260.6 844.85 262.6
M 988.65 218
Q 986.65 218 985.15 216.5 983.65 215.1 983.65 213 983.65 211 985.15 209.5 986.5 208.1 988.65 208.1 990.75 208.1 992.15 209.5 993.65 211 993.65 213 993.65 215.1 992.15 216.5 990.75 218 988.65 218
M 988.65 267.6
Q 986.65 267.6 985.15 266.1 983.65 264.7 983.65 262.6 983.65 260.6 985.15 259.1 986.5 257.7 988.65 257.7 990.75 257.7 992.15 259.1 993.65 260.6 993.65 262.6 993.65 264.7 992.15 266.1 990.75 267.6 988.65 267.6 Z"/>

<path fill="#976438" stroke="none" d="
M 300.05 365.5
Q 301.45 364.1 301.45 362 301.45 359.85 300.05 358.5 298.55 357 296.55 357 294.55 357 293.05 358.5 291.55 360 291.55 362 291.55 364.1 293.05 365.5 294.55 367 296.55 367 298.55 367 300.05 365.5
M 250.45 365.5
Q 251.8 364.1 251.8 362 251.8 359.85 250.45 358.5 248.95 357 246.95 357 244.95 357 243.45 358.5 241.95 360 241.95 362 241.95 364.1 243.45 365.5 244.95 367 246.95 367 248.95 367 250.45 365.5
M 250.45 315.85
Q 251.8 314.5 251.8 312.35 251.8 310.25 250.45 308.85 248.95 307.35 246.95 307.35 244.95 307.35 243.45 308.85 241.95 310.35 241.95 312.35 241.95 314.5 243.45 315.85 244.95 317.35 246.95 317.35 248.95 317.35 250.45 315.85
M 300.05 315.85
Q 301.45 314.5 301.45 312.35 301.45 310.25 300.05 308.85 298.55 307.35 296.55 307.35 294.55 307.35 293.05 308.85 291.55 310.35 291.55 312.35 291.55 314.5 293.05 315.85 294.55 317.35 296.55 317.35 298.55 317.35 300.05 315.85
M 200.85 365.5
Q 202.35 364.1 202.35 362 202.35 360 200.85 358.5 199.45 357 197.35 357 195.35 357 193.85 358.5 192.35 360 192.35 362 192.35 364.1 193.85 365.5 195.35 367 197.35 367 199.45 367 200.85 365.5
M 200.85 315.85
Q 202.35 314.5 202.35 312.35 202.35 310.35 200.85 308.85 199.45 307.35 197.35 307.35 195.35 307.35 193.85 308.85 192.35 310.35 192.35 312.35 192.35 314.5 193.85 315.85 195.35 317.35 197.35 317.35 199.45 317.35 200.85 315.85
M 200.75 266.15
Q 202.25 264.8 202.25 262.65 202.25 260.65 200.75 259.15 199.4 257.8 197.25 257.8 195.15 257.8 193.75 259.15 192.25 260.65 192.25 262.65 192.25 264.8 193.75 266.15 195.25 267.65 197.25 267.65 199.4 267.65 200.75 266.15
M 200.75 216.55
Q 202.25 215.2 202.25 213.05 202.25 211.05 200.75 209.55 199.4 208.2 197.25 208.2 195.15 208.2 193.75 209.55 192.25 211.05 192.25 213.05 192.25 215.2 193.75 216.55 195.25 218.05 197.25 218.05 199.4 218.05 200.75 216.55
M 299.95 266.15
Q 301.35 264.8 301.35 262.65 301.35 260.65 299.95 259.15 298.6 257.8 296.45 257.8 294.35 257.8 292.95 259.15 291.45 260.65 291.45 262.65 291.45 264.8 292.95 266.15 294.45 267.65 296.45 267.65 298.45 267.65 299.95 266.15
M 250.35 266.15
Q 251.75 264.8 251.75 262.65 251.75 260.65 250.35 259.15 249 257.8 246.85 257.8 244.75 257.8 243.35 259.15 241.85 260.65 241.85 262.65 241.85 264.8 243.35 266.15 244.85 267.65 246.85 267.65 248.85 267.65 250.35 266.15
M 250.35 216.55
Q 251.75 215.2 251.75 213.05 251.75 211.05 250.35 209.55 249 208.2 246.85 208.2 244.75 208.2 243.35 209.55 241.85 211.05 241.85 213.05 241.85 215.2 243.35 216.55 244.85 218.05 246.85 218.05 248.85 218.05 250.35 216.55
M 299.95 216.55
Q 301.35 215.2 301.35 213.05 301.35 211.05 299.95 209.55 298.6 208.2 296.45 208.2 294.35 208.2 292.95 209.55 291.45 211.05 291.45 213.05 291.45 215.2 292.95 216.55 294.45 218.05 296.45 218.05 298.45 218.05 299.95 216.55
M 151.2 365.5
Q 152.7 364.1 152.7 362 152.7 360 151.2 358.5 149.85 357 147.7 357 145.7 357 144.2 358.5 142.7 360 142.7 362 142.7 364.1 144.2 365.5 145.7 367 147.7 367 149.85 367 151.2 365.5
M 101.6 365.5
Q 103.1 364.1 103.1 362 103.1 360 101.6 358.5 100.25 357 98.1 357 96.1 357 94.6 358.5 93.1 360 93.1 362 93.1 364.1 94.6 365.5 96.1 367 98.1 367 100.25 367 101.6 365.5
M 101.6 315.85
Q 103.1 314.5 103.1 312.35 103.1 310.35 101.6 308.85 100.25 307.35 98.1 307.35 96.1 307.35 94.6 308.85 93.1 310.35 93.1 312.35 93.1 314.5 94.6 315.85 96.1 317.35 98.1 317.35 100.25 317.35 101.6 315.85
M 151.2 315.85
Q 152.7 314.5 152.7 312.35 152.7 310.35 151.2 308.85 149.85 307.35 147.7 307.35 145.7 307.35 144.2 308.85 142.7 310.35 142.7 312.35 142.7 314.5 144.2 315.85 145.7 317.35 147.7 317.35 149.85 317.35 151.2 315.85
M 52 365.5
Q 53.5 364.1 53.5 362 53.5 360 52 358.5 50.6 357 48.5 357 46.5 357 45 358.5 43.65 359.85 43.65 362 43.65 364.1 45 365.5 46.5 367 48.5 367 50.6 367 52 365.5
M 52 315.85
Q 53.5 314.5 53.5 312.35 53.5 310.35 52 308.85 50.6 307.35 48.5 307.35 46.5 307.35 45 308.85 43.65 310.25 43.65 312.35 43.65 314.5 45 315.85 46.5 317.35 48.5 317.35 50.6 317.35 52 315.85
M 52 266.25
Q 53.5 264.9 53.5 262.75 53.5 260.75 52 259.25 50.6 257.9 48.5 257.9 46.5 257.9 45 259.25 43.65 260.75 43.65 262.75 43.65 264.9 45 266.25 46.5 267.75 48.5 267.75 50.6 267.75 52 266.25
M 52 216.65
Q 53.5 215.25 53.5 213.15 53.5 211.15 52 209.65 50.6 208.25 48.5 208.25 46.5 208.25 45 209.65 43.65 211.15 43.65 213.15 43.65 215.25 45 216.65 46.5 218.15 48.5 218.15 50.6 218.15 52 216.65
M 151.15 266.15
Q 152.65 264.8 152.65 262.65 152.65 260.65 151.15 259.15 149.8 257.8 147.65 257.8 145.55 257.8 144.15 259.15 142.65 260.65 142.65 262.65 142.65 264.8 144.15 266.15 145.65 267.65 147.65 267.65 149.8 267.65 151.15 266.15
M 101.55 266.15
Q 103.05 264.8 103.05 262.65 103.05 260.65 101.55 259.15 100.15 257.8 98.05 257.8 95.95 257.8 94.55 259.15 93.05 260.65 93.05 262.65 93.05 264.8 94.55 266.15 96.05 267.65 98.05 267.65 100.15 267.65 101.55 266.15
M 101.55 216.55
Q 103.05 215.2 103.05 213.05 103.05 211.05 101.55 209.55 100.15 208.2 98.05 208.2 95.95 208.2 94.55 209.55 93.05 211.05 93.05 213.05 93.05 215.2 94.55 216.55 96.05 218.05 98.05 218.05 100.15 218.05 101.55 216.55
M 151.15 216.55
Q 152.65 215.2 152.65 213.05 152.65 211.05 151.15 209.55 149.8 208.2 147.65 208.2 145.55 208.2 144.15 209.55 142.65 211.05 142.65 213.05 142.65 215.2 144.15 216.55 145.65 218.05 147.65 218.05 149.8 218.05 151.15 216.55
M 151.15 166.95
Q 152.65 165.55 152.65 163.55 152.65 161.55 151.15 160.05 149.8 158.55 147.65 158.55 145.65 158.55 144.15 160.05 142.65 161.55 142.65 163.55 142.65 165.55 144.15 166.95 145.65 168.45 147.65 168.45 149.65 168.45 151.15 166.95
M 101.55 166.95
Q 103.05 165.55 103.05 163.55 103.05 161.55 101.55 160.05 100.15 158.55 98.05 158.55 96.05 158.55 94.55 160.05 93.05 161.55 93.05 163.55 93.05 165.55 94.55 166.95 96.05 168.45 98.05 168.45 100.05 168.45 101.55 166.95
M 101.55 117.45
Q 103.05 116.1 103.05 113.95 103.05 111.95 101.55 110.45 100.15 108.95 98.05 108.95 96.05 108.95 94.55 110.45 93.05 111.95 93.05 113.95 93.05 116.1 94.55 117.45 96.05 118.95 98.05 118.95 100.15 118.95 101.55 117.45
M 151.15 117.45
Q 152.65 116.1 152.65 113.95 152.65 111.95 151.15 110.45 149.8 108.95 147.65 108.95 145.65 108.95 144.15 110.45 142.65 111.95 142.65 113.95 142.65 116.1 144.15 117.45 145.65 118.95 147.65 118.95 149.8 118.95 151.15 117.45
M 52 167
Q 53.5 165.65 53.5 163.65 53.5 161.65 52 160.15 50.6 158.65 48.5 158.65 46.5 158.65 45 160.15 43.65 161.5 43.65 163.65 43.65 165.65 45 167 46.5 168.5 48.5 168.5 50.5 168.5 52 167
M 52 117.55
Q 53.5 116.15 53.5 114.05 53.5 112.05 52 110.55 50.6 109.05 48.5 109.05 46.5 109.05 45 110.55 43.65 111.9 43.65 114.05 43.65 116.15 45 117.55 46.5 119.05 48.5 119.05 50.6 119.05 52 117.55
M 299.95 166.95
Q 301.35 165.55 301.35 163.55 301.35 161.45 299.95 160.05 298.45 158.55 296.45 158.55 294.45 158.55 292.95 160.05 291.45 161.55 291.45 163.55 291.45 165.55 292.95 166.95 294.45 168.45 296.45 168.45 298.45 168.45 299.95 166.95
M 250.35 166.95
Q 251.75 165.55 251.75 163.55 251.75 161.45 250.35 160.05 248.85 158.55 246.85 158.55 244.85 158.55 243.35 160.05 241.85 161.55 241.85 163.55 241.85 165.55 243.35 166.95 244.85 168.45 246.85 168.45 248.85 168.45 250.35 166.95
M 250.35 117.45
Q 251.75 116.1 251.75 113.95 251.75 111.85 250.35 110.45 248.85 108.95 246.85 108.95 244.85 108.95 243.35 110.45 241.85 111.95 241.85 113.95 241.85 116.1 243.35 117.45 244.85 118.95 246.85 118.95 248.85 118.95 250.35 117.45
M 299.95 117.45
Q 301.35 116.1 301.35 113.95 301.35 111.85 299.95 110.45 298.45 108.95 296.45 108.95 294.45 108.95 292.95 110.45 291.45 111.95 291.45 113.95 291.45 116.1 292.95 117.45 294.45 118.95 296.45 118.95 298.45 118.95 299.95 117.45
M 200.75 166.95
Q 202.25 165.55 202.25 163.55 202.25 161.55 200.75 160.05 199.4 158.55 197.25 158.55 195.25 158.55 193.75 160.05 192.25 161.55 192.25 163.55 192.25 165.55 193.75 166.95 195.25 168.45 197.25 168.45 199.25 168.45 200.75 166.95
M 200.75 117.45
Q 202.25 116.1 202.25 113.95 202.25 111.95 200.75 110.45 199.4 108.95 197.25 108.95 195.25 108.95 193.75 110.45 192.25 111.95 192.25 113.95 192.25 116.1 193.75 117.45 195.25 118.95 197.25 118.95 199.4 118.95 200.75 117.45
M 646 266.1
Q 647.5 264.7 647.5 262.6 647.5 260.6 646 259.1 644.6 257.7 642.5 257.7 640.5 257.7 639 259.1 637.6 260.6 637.6 262.6 637.6 264.7 639 266.1 640.5 267.6 642.5 267.6 644.6 267.6 646 266.1
M 546.9 266.1
Q 548.3 264.7 548.3 262.6 548.3 260.6 546.9 259.1 545.55 257.7 543.4 257.7 541.3 257.7 539.9 259.1 538.45 260.6 538.45 262.6 538.45 264.7 539.9 266.1 541.4 267.6 543.4 267.6 545.4 267.6 546.9 266.1
M 493.8 267.6
Q 495.95 267.6 497.3 266.1 498.8 264.7 498.8 262.6 498.8 260.6 497.3 259.1 495.95 257.7 493.8 257.7 491.7 257.7 490.35 259.1 488.85 260.6 488.85 262.6 488.85 264.7 490.35 266.1 491.8 267.6 493.8 267.6
M 493.8 218
Q 495.95 218 497.3 216.5 498.8 215.1 498.8 213 498.8 211 497.3 209.5 495.95 208.1 493.8 208.1 491.7 208.1 490.35 209.5 488.85 211 488.85 213 488.85 215.1 490.35 216.5 491.8 218 493.8 218
M 546.9 216.5
Q 548.3 215.1 548.3 213 548.3 211 546.9 209.5 545.55 208.1 543.4 208.1 541.3 208.1 539.9 209.5 538.45 211 538.45 213 538.45 215.1 539.9 216.5 541.4 218 543.4 218 545.4 218 546.9 216.5
M 596.4 266.1
Q 597.9 264.6 597.9 262.6 597.9 260.6 596.4 259.1 595 257.7 593 257.7 590.9 257.7 589.5 259.1 588 260.6 588 262.6 588 264.7 589.5 266.1 591 267.6 593 267.6 595 267.6 596.4 266.1
M 596.4 216.5
Q 597.9 215 597.9 213 597.9 211 596.4 209.5 595 208.1 593 208.1 590.9 208.1 589.5 209.5 588 211 588 213 588 215.1 589.5 216.5 591 218 593 218 595 218 596.4 216.5
M 646 216.5
Q 647.5 215.1 647.5 213 647.5 211 646 209.5 644.6 208.1 642.5 208.1 640.5 208.1 639 209.5 637.6 211 637.6 213 637.6 215.1 639 216.5 640.5 218 642.5 218 644.6 218 646 216.5
M 440.75 266.1
Q 442.25 267.6 444.2 267.6 446.35 267.6 447.7 266.1 449.2 264.7 449.2 262.6 449.2 260.6 447.7 259.1 446.35 257.7 444.2 257.7 442.1 257.7 440.75 259.1 439.25 260.6 439.25 262.6 439.25 264.7 440.75 266.1
M 447.7 216.5
Q 449.2 215.1 449.2 213 449.2 211 447.7 209.5 446.35 208.1 444.2 208.1 442.1 208.1 440.75 209.5 439.25 211 439.25 213 439.25 215.1 440.75 216.5 442.25 218 444.2 218 446.35 218 447.7 216.5
M 440.75 166.9
Q 442.25 168.35 444.2 168.35 446.2 168.35 447.7 166.9 449.2 165.5 449.2 163.5 449.2 161.5 447.7 160 446.35 158.5 444.2 158.5 442.25 158.5 440.75 160 439.25 161.5 439.25 163.5 439.25 165.5 440.75 166.9
M 447.7 117.4
Q 449.2 116 449.2 113.9 449.2 111.9 447.7 110.4 446.35 108.9 444.2 108.9 442.25 108.9 440.75 110.4 439.25 111.9 439.25 113.9 439.25 116 440.75 117.4 442.25 118.9 444.2 118.9 446.35 118.9 447.7 117.4
M 646 166.9
Q 647.5 165.5 647.5 163.5 647.5 161.5 646 160 644.6 158.5 642.5 158.5 640.5 158.5 639 160 637.6 161.4 637.6 163.5 637.6 165.5 639 166.9 640.5 168.35 642.5 168.35 644.5 168.35 646 166.9
M 596.4 166.9
Q 597.9 165.5 597.9 163.5 597.9 161.5 596.4 160 595 158.5 593 158.5 591 158.5 589.5 160 588 161.5 588 163.5 588 165.5 589.5 166.9 591 168.35 593 168.35 595 168.35 596.4 166.9
M 596.4 117.4
Q 597.9 115.9 597.9 113.9 597.9 111.9 596.4 110.4 595 108.9 593 108.9 591 108.9 589.5 110.4 588 111.9 588 113.9 588 116 589.5 117.4 591 118.9 593 118.9 595 118.9 596.4 117.4
M 646 117.4
Q 647.5 116 647.5 113.9 647.5 111.9 646 110.4 644.6 108.9 642.5 108.9 640.5 108.9 639 110.4 637.6 111.75 637.6 113.9 637.6 116 639 117.4 640.5 118.9 642.5 118.9 644.6 118.9 646 117.4
M 546.9 166.9
Q 548.3 165.5 548.3 163.5 548.3 161.4 546.9 160 545.4 158.5 543.4 158.5 541.4 158.5 539.9 160 538.45 161.5 538.45 163.5 538.45 165.5 539.9 166.9 541.4 168.35 543.4 168.35 545.4 168.35 546.9 166.9
M 493.8 168.35
Q 495.8 168.35 497.3 166.9 498.8 165.5 498.8 163.5 498.8 161.5 497.3 160 495.95 158.5 493.8 158.5 491.8 158.5 490.35 160 488.85 161.5 488.85 163.5 488.85 165.5 490.35 166.9 491.8 168.35 493.8 168.35
M 493.8 118.9
Q 495.95 118.9 497.3 117.4 498.8 116 498.8 113.9 498.8 111.9 497.3 110.4 495.95 108.9 493.8 108.9 491.8 108.9 490.35 110.4 488.85 111.9 488.85 113.9 488.85 116 490.35 117.4 491.8 118.9 493.8 118.9
M 546.9 117.4
Q 548.3 116 548.3 113.9 548.3 111.75 546.9 110.4 545.4 108.9 543.4 108.9 541.4 108.9 539.9 110.4 538.45 111.9 538.45 113.9 538.45 116 539.9 117.4 541.4 118.9 543.4 118.9 545.4 118.9 546.9 117.4
M 646.1 365.4
Q 647.6 364 647.6 361.9 647.6 359.9 646.1 358.4 644.75 356.9 642.6 356.9 640.65 356.9 639.15 358.4 637.75 359.75 637.75 361.9 637.75 364 639.15 365.4 640.65 366.9 642.6 366.9 644.75 366.9 646.1 365.4
M 596.5 365.4
Q 598 363.9 598 361.9 598 359.9 596.5 358.4 595.15 356.9 593.15 356.9 591.15 356.9 589.65 358.4 588.15 359.9 588.15 361.9 588.15 364 589.65 365.4 591.15 366.9 593.15 366.9 595.15 366.9 596.5 365.4
M 596.5 315.75
Q 598 314.25 598 312.25 598 310.25 596.5 308.75 595.15 307.25 593.15 307.25 591.15 307.25 589.65 308.75 588.15 310.25 588.15 312.25 588.15 314.4 589.65 315.75 591.15 317.25 593.15 317.25 595.15 317.25 596.5 315.75
M 646.1 315.75
Q 647.6 314.4 647.6 312.25 647.6 310.25 646.1 308.75 644.75 307.25 642.6 307.25 640.65 307.25 639.15 308.75 637.75 310.15 637.75 312.25 637.75 314.4 639.15 315.75 640.65 317.25 642.6 317.25 644.75 317.25 646.1 315.75
M 547.05 365.4
Q 548.4 364 548.4 361.9 548.4 359.75 547.05 358.4 545.55 356.9 543.55 356.9 541.55 356.9 540.05 358.4 538.55 359.9 538.55 361.9 538.55 364 540.05 365.4 541.55 366.9 543.55 366.9 545.55 366.9 547.05 365.4
M 493.95 366.9
Q 496.05 366.9 497.45 365.4 498.95 364 498.95 361.9 498.95 359.9 497.45 358.4 496.05 356.9 493.95 356.9 491.95 356.9 490.45 358.4 488.95 359.9 488.95 361.9 488.95 364 490.45 365.4 491.95 366.9 493.95 366.9
M 493.95 317.25
Q 496.05 317.25 497.45 315.75 498.95 314.4 498.95 312.25 498.95 310.25 497.45 308.75 496.05 307.25 493.95 307.25 491.95 307.25 490.45 308.75 488.95 310.25 488.95 312.25 488.95 314.4 490.45 315.75 491.95 317.25 493.95 317.25
M 547.05 315.75
Q 548.4 314.4 548.4 312.25 548.4 310.15 547.05 308.75 545.55 307.25 543.55 307.25 541.55 307.25 540.05 308.75 538.55 310.25 538.55 312.25 538.55 314.4 540.05 315.75 541.55 317.25 543.55 317.25 545.55 317.25 547.05 315.75
M 440.85 365.4
Q 442.35 366.9 444.35 366.9 446.45 366.9 447.85 365.4 449.35 364 449.35 361.9 449.35 359.9 447.85 358.4 446.45 356.9 444.35 356.9 442.35 356.9 440.85 358.4 439.35 359.9 439.35 361.9 439.35 364 440.85 365.4
M 447.85 315.75
Q 449.35 314.4 449.35 312.25 449.35 310.25 447.85 308.75 446.45 307.25 444.35 307.25 442.35 307.25 440.85 308.75 439.35 310.25 439.35 312.25 439.35 314.4 440.85 315.75 442.35 317.25 444.35 317.25 446.45 317.25 447.85 315.75
M 398.2 365.4
Q 399.7 364 399.7 361.9 399.7 359.9 398.2 358.4 396.85 356.9 394.7 356.9 392.75 356.9 391.25 358.4 389.75 359.9 389.75 361.9 389.75 364 391.25 365.4 392.75 366.9 394.7 366.9 396.85 366.9 398.2 365.4
M 398.2 315.75
Q 399.7 314.4 399.7 312.25 399.7 310.25 398.2 308.75 396.85 307.25 394.7 307.25 392.75 307.25 391.25 308.75 389.75 310.25 389.75 312.25 389.75 314.4 391.25 315.75 392.75 317.25 394.7 317.25 396.85 317.25 398.2 315.75
M 398.2 266.15
Q 399.7 264.8 399.7 262.65 399.7 260.65 398.2 259.15 396.85 257.8 394.7 257.8 392.6 257.8 391.25 259.15 389.75 260.65 389.75 262.65 389.75 264.8 391.25 266.15 392.75 267.65 394.7 267.65 396.85 267.65 398.2 266.15
M 398.2 216.55
Q 399.7 215.2 399.7 213.05 399.7 211.05 398.2 209.55 396.85 208.2 394.7 208.2 392.6 208.2 391.25 209.55 389.75 211.05 389.75 213.05 389.75 215.2 391.25 216.55 392.75 218.05 394.7 218.05 396.85 218.05 398.2 216.55
M 398.2 166.95
Q 399.7 165.55 399.7 163.55 399.7 161.55 398.2 160.05 396.85 158.55 394.7 158.55 392.75 158.55 391.25 160.05 389.75 161.55 389.75 163.55 389.75 165.55 391.25 166.95 392.75 168.45 394.7 168.45 396.7 168.45 398.2 166.95
M 398.2 117.45
Q 399.7 116.1 399.7 113.95 399.7 111.95 398.2 110.45 396.85 108.95 394.7 108.95 392.75 108.95 391.25 110.45 389.75 111.95 389.75 113.95 389.75 116.1 391.25 117.45 392.75 118.95 394.7 118.95 396.85 118.95 398.2 117.45
M 985.15 266.1
Q 986.65 267.6 988.65 267.6 990.75 267.6 992.15 266.1 993.65 264.7 993.65 262.6 993.65 260.6 992.15 259.1 990.75 257.7 988.65 257.7 986.5 257.7 985.15 259.1 983.65 260.6 983.65 262.6 983.65 264.7 985.15 266.1
M 985.15 216.5
Q 986.65 218 988.65 218 990.75 218 992.15 216.5 993.65 215.1 993.65 213 993.65 211 992.15 209.5 990.75 208.1 988.65 208.1 986.5 208.1 985.15 209.5 983.65 211 983.65 213 983.65 215.1 985.15 216.5
M 843.45 266.1
Q 844.85 264.7 844.85 262.6 844.85 260.6 843.45 259.1 842.1 257.7 839.95 257.7 837.85 257.7 836.45 259.1 834.95 260.6 834.95 262.6 834.95 264.7 836.45 266.1 837.95 267.6 839.95 267.6 841.95 267.6 843.45 266.1
M 843.45 216.5
Q 844.85 215.1 844.85 213 844.85 211 843.45 209.5 842.1 208.1 839.95 208.1 837.85 208.1 836.45 209.5 834.95 211 834.95 213 834.95 215.1 836.45 216.5 837.95 218 839.95 218 841.95 218 843.45 216.5
M 942.55 266.1
Q 944.05 264.7 944.05 262.6 944.05 260.6 942.55 259.1 941.15 257.7 939.05 257.7 937.05 257.7 935.55 259.1 934.15 260.6 934.15 262.6 934.15 264.7 935.55 266.1 937.05 267.6 939.05 267.6 941.15 267.6 942.55 266.1
M 892.95 266.1
Q 894.45 264.7 894.45 262.6 894.45 260.6 892.95 259.1 891.55 257.7 889.45 257.7 887.45 257.7 886.05 259.1 884.55 260.6 884.55 262.6 884.55 264.6 886.05 266.1 887.45 267.6 889.45 267.6 891.55 267.6 892.95 266.1
M 892.95 216.5
Q 894.45 215.1 894.45 213 894.45 211 892.95 209.5 891.55 208.1 889.45 208.1 887.45 208.1 886.05 209.5 884.55 211 884.55 213 884.55 215 886.05 216.5 887.45 218 889.45 218 891.55 218 892.95 216.5
M 942.55 216.5
Q 944.05 215.1 944.05 213 944.05 211 942.55 209.5 941.15 208.1 939.05 208.1 937.05 208.1 935.55 209.5 934.15 211 934.15 213 934.15 215.1 935.55 216.5 937.05 218 939.05 218 941.15 218 942.55 216.5
M 793.85 266.1
Q 795.25 264.7 795.25 262.6 795.25 260.6 793.85 259.1 792.5 257.7 790.35 257.7 788.25 257.7 786.85 259.1 785.35 260.6 785.35 262.6 785.35 264.7 786.85 266.1 788.35 267.6 790.35 267.6 792.35 267.6 793.85 266.1
M 793.85 216.5
Q 795.25 215.1 795.25 213 795.25 211 793.85 209.5 792.5 208.1 790.35 208.1 788.25 208.1 786.85 209.5 785.35 211 785.35 213 785.35 215.1 786.85 216.5 788.35 218 790.35 218 792.35 218 793.85 216.5
M 793.85 166.9
Q 795.25 165.5 795.25 163.5 795.25 161.4 793.85 160 792.35 158.5 790.35 158.5 788.35 158.5 786.85 160 785.35 161.5 785.35 163.5 785.35 165.5 786.85 166.9 788.35 168.35 790.35 168.35 792.35 168.35 793.85 166.9
M 793.85 117.4
Q 795.25 116 795.25 113.9 795.25 111.75 793.85 110.4 792.35 108.9 790.35 108.9 788.35 108.9 786.85 110.4 785.35 111.9 785.35 113.9 785.35 116 786.85 117.4 788.35 118.9 790.35 118.9 792.35 118.9 793.85 117.4
M 942.55 166.9
Q 944.05 165.5 944.05 163.5 944.05 161.5 942.55 160 941.15 158.5 939.05 158.5 937.05 158.5 935.55 160 934.15 161.4 934.15 163.5 934.15 165.5 935.55 166.9 937.05 168.35 939.05 168.35 941.05 168.35 942.55 166.9
M 942.55 117.4
Q 944.05 116 944.05 113.9 944.05 111.9 942.55 110.4 941.15 108.9 939.05 108.9 937.05 108.9 935.55 110.4 934.15 111.75 934.15 113.9 934.15 116 935.55 117.4 937.05 118.9 939.05 118.9 941.15 118.9 942.55 117.4
M 884.55 163.5
Q 884.55 165.5 886.05 166.9 887.45 168.35 889.45 168.35 891.45 168.35 892.95 166.9 894.45 165.5 894.45 163.5 894.45 161.5 892.95 160 891.55 158.5 889.45 158.5 887.45 158.5 886.05 160 884.55 161.5 884.55 163.5
M 843.45 166.9
Q 844.85 165.5 844.85 163.5 844.85 161.4 843.45 160 841.95 158.5 839.95 158.5 837.95 158.5 836.45 160 834.95 161.5 834.95 163.5 834.95 165.5 836.45 166.9 837.95 168.35 839.95 168.35 841.95 168.35 843.45 166.9
M 843.45 117.4
Q 844.85 116 844.85 113.9 844.85 111.75 843.45 110.4 841.95 108.9 839.95 108.9 837.95 108.9 836.45 110.4 834.95 111.9 834.95 113.9 834.95 116 836.45 117.4 837.95 118.9 839.95 118.9 841.95 118.9 843.45 117.4
M 884.55 113.9
Q 884.55 115.9 886.05 117.4 887.45 118.9 889.45 118.9 891.55 118.9 892.95 117.4 894.45 116 894.45 113.9 894.45 111.9 892.95 110.4 891.55 108.9 889.45 108.9 887.45 108.9 886.05 110.4 884.55 111.9 884.55 113.9
M 992.15 166.9
Q 993.65 165.5 993.65 163.5 993.65 161.5 992.15 160 990.75 158.5 988.65 158.5 986.65 158.5 985.15 160 983.65 161.5 983.65 163.5 983.65 165.5 985.15 166.9 986.65 168.35 988.65 168.35 990.65 168.35 992.15 166.9
M 992.15 117.4
Q 993.65 116 993.65 113.9 993.65 111.9 992.15 110.4 990.75 108.9 988.65 108.9 986.65 108.9 985.15 110.4 983.65 111.9 983.65 113.9 983.65 116 985.15 117.4 986.65 118.9 988.65 118.9 990.75 118.9 992.15 117.4
M 942.7 365.4
Q 944.2 364 944.2 361.9 944.2 359.9 942.7 358.4 941.3 356.9 939.2 356.9 937.2 356.9 935.7 358.4 934.35 359.75 934.35 361.9 934.35 364 935.7 365.4 937.2 366.9 939.2 366.9 941.3 366.9 942.7 365.4
M 942.7 315.75
Q 944.2 314.4 944.2 312.25 944.2 310.25 942.7 308.75 941.3 307.25 939.2 307.25 937.2 307.25 935.7 308.75 934.35 310.15 934.35 312.25 934.35 314.4 935.7 315.75 937.2 317.25 939.2 317.25 941.3 317.25 942.7 315.75
M 884.7 361.9
Q 884.7 363.9 886.2 365.4 887.6 366.9 889.6 366.9 891.7 366.9 893.1 365.4 894.6 364 894.6 361.9 894.6 359.9 893.1 358.4 891.7 356.9 889.6 356.9 887.6 356.9 886.2 358.4 884.7 359.9 884.7 361.9
M 843.6 365.4
Q 845 364 845 361.9 845 359.75 843.6 358.4 842.1 356.9 840.1 356.9 838.1 356.9 836.6 358.4 835.1 359.9 835.1 361.9 835.1 364 836.6 365.4 838.1 366.9 840.1 366.9 842.1 366.9 843.6 365.4
M 843.6 315.75
Q 845 314.4 845 312.25 845 310.15 843.6 308.75 842.1 307.25 840.1 307.25 838.1 307.25 836.6 308.75 835.1 310.25 835.1 312.25 835.1 314.4 836.6 315.75 838.1 317.25 840.1 317.25 842.1 317.25 843.6 315.75
M 884.7 312.25
Q 884.7 314.25 886.2 315.75 887.6 317.25 889.6 317.25 891.7 317.25 893.1 315.75 894.6 314.4 894.6 312.25 894.6 310.25 893.1 308.75 891.7 307.25 889.6 307.25 887.6 307.25 886.2 308.75 884.7 310.25 884.7 312.25
M 794 365.4
Q 795.4 364 795.4 361.9 795.4 359.75 794 358.4 792.5 356.9 790.5 356.9 788.5 356.9 787 358.4 785.5 359.9 785.5 361.9 785.5 364 787 365.4 788.5 366.9 790.5 366.9 792.5 366.9 794 365.4
M 744.4 365.4
Q 745.9 364 745.9 361.9 745.9 359.9 744.4 358.4 743.05 356.9 740.9 356.9 738.9 356.9 737.4 358.4 735.9 359.9 735.9 361.9 735.9 364 737.4 365.4 738.9 366.9 740.9 366.9 743.05 366.9 744.4 365.4
M 744.4 315.75
Q 745.9 314.4 745.9 312.25 745.9 310.25 744.4 308.75 743.05 307.25 740.9 307.25 738.9 307.25 737.4 308.75 735.9 310.25 735.9 312.25 735.9 314.4 737.4 315.75 738.9 317.25 740.9 317.25 743.05 317.25 744.4 315.75
M 794 315.75
Q 795.4 314.4 795.4 312.25 795.4 310.15 794 308.75 792.5 307.25 790.5 307.25 788.5 307.25 787 308.75 785.5 310.25 785.5 312.25 785.5 314.4 787 315.75 788.5 317.25 790.5 317.25 792.5 317.25 794 315.75
M 744.4 266.15
Q 745.9 264.8 745.9 262.65 745.9 260.65 744.4 259.15 743.05 257.8 740.9 257.8 738.8 257.8 737.4 259.15 735.9 260.65 735.9 262.65 735.9 264.8 737.4 266.15 738.9 267.65 740.9 267.65 743.05 267.65 744.4 266.15
M 744.4 216.55
Q 745.9 215.2 745.9 213.05 745.9 211.05 744.4 209.55 743.05 208.2 740.9 208.2 738.8 208.2 737.4 209.55 735.9 211.05 735.9 213.05 735.9 215.2 737.4 216.55 738.9 218.05 740.9 218.05 743.05 218.05 744.4 216.55
M 744.4 166.95
Q 745.9 165.55 745.9 163.55 745.9 161.55 744.4 160.05 743.05 158.55 740.9 158.55 738.9 158.55 737.4 160.05 735.9 161.55 735.9 163.55 735.9 165.55 737.4 166.95 738.9 168.45 740.9 168.45 742.9 168.45 744.4 166.95
M 744.4 117.45
Q 745.9 116.1 745.9 113.95 745.9 111.95 744.4 110.45 743.05 108.95 740.9 108.95 738.9 108.95 737.4 110.45 735.9 111.95 735.9 113.95 735.9 116.1 737.4 117.45 738.9 118.95 740.9 118.95 743.05 118.95 744.4 117.45
M 985.3 365.4
Q 986.8 366.9 988.8 366.9 990.95 366.9 992.3 365.4 993.8 364 993.8 361.9 993.8 359.9 992.3 358.4 990.95 356.9 988.8 356.9 986.8 356.9 985.3 358.4 983.8 359.9 983.8 361.9 983.8 364 985.3 365.4
M 985.3 315.75
Q 986.8 317.25 988.8 317.25 990.95 317.25 992.3 315.75 993.8 314.4 993.8 312.25 993.8 310.25 992.3 308.75 990.95 307.25 988.8 307.25 986.8 307.25 985.3 308.75 983.8 310.25 983.8 312.25 983.8 314.4 985.3 315.75 Z"/>

<path fill="#E2F3F2" stroke="none" d="
M 346.5 81.6
L 346.5 1.5 281.5 1.5 244.5 1.5 224.5 1.5 141.5 1.5 119.5 1.5 37.55 1.5 35.55 1.5 21.5 1.5
Q 8.85 1.5 4.2 9.5 1.5 14.15 1.5 21.5
L 1.5 38 1.5 41.55 1.5 81.6 35.55 81.6 119.5 81.6 141.5 81.6 224.5 81.6 244.5 81.6 281.5 81.6 346.5 81.6
M 224.75 23.9
Q 224.95 24.05 224.95 24.25
L 224.95 47.3
Q 224.95 47.55 224.75 47.7 224.6 47.9 224.4 47.9
L 220.85 47.9
Q 220.6 47.9 220.45 47.7 220.3 47.55 220.3 47.3
L 220.3 44.5 215.55 44.5
Q 215.4 44.5 215.2 44.4 215.05 44.25 215.05 44.05
L 215.05 41.3
Q 215.05 41.1 215.2 41 215.4 40.85 215.55 40.85
L 220.3 40.85 220.3 38.15 215.55 38.15
Q 215.4 38.15 215.2 38 215.05 37.9 215.05 37.7
L 215.05 34.95
Q 215.05 34.75 215.2 34.6 215.4 34.5 215.55 34.5
L 220.3 34.5 220.3 24.25
Q 220.3 23.7 220.85 23.7
L 224.4 23.7
Q 224.6 23.7 224.75 23.9
M 210.35 24.1
Q 210.6 24.1 210.85 24.35 211 24.5 211 24.75
L 211 26.95
Q 211 27.2 210.85 27.4 210.65 27.65 210.35 27.65
L 200.15 27.65
Q 200 27.65 199.75 27.45 199.55 27.3 199.55 27
L 199.55 24.7
Q 199.55 24.45 199.75 24.3 200 24.1 200.15 24.1
L 210.35 24.1
M 216.15 29.85
L 216.15 32.15
Q 216.15 32.4 215.95 32.6 215.8 32.75 215.55 32.75
L 194.65 32.75
Q 194.45 32.75 194.25 32.55 194.05 32.35 194.05 32.1
L 194.05 29.85
Q 194.05 29.7 194.25 29.45 194.5 29.25 194.7 29.25
L 215.55 29.25
Q 215.8 29.25 215.95 29.45 216.15 29.65 216.15 29.85
M 208.7 34.55
Q 210.25 35 211.4 35.85 212.55 36.75 213.2 37.9 213.85 39.1 213.85 40.6 213.85 42.1 213.2 43.3 212.55 44.5 211.35 45.4 210.2 46.25 208.65 46.75 207.1 47.2 205.25 47.2 203.45 47.2 201.9 46.7 200.4 46.2 199.25 45.3 198.1 44.4 197.45 43.15 196.8 41.9 196.8 40.4 196.8 38.9 197.45 37.75 198.1 36.6 199.25 35.75 200.4 34.95 201.95 34.5 203.5 34.05 205.3 34.05 207.1 34.05 208.7 34.55
M 212.95 48.35
Q 215.55 48.35 217.75 48.8 220 49.3 221.6 50.15 223.25 51.05 224.15 52.25 225.05 53.45 225.05 54.9 225.05 56.4 224.15 57.65 223.25 58.9 221.6 59.75 220 60.65 217.75 61.1 215.55 61.6 212.95 61.6 210.2 61.6 208 61.1 205.85 60.65 204.25 59.75 202.7 58.9 201.85 57.65 201 56.4 201 54.9 201 53.45 201.85 52.25 202.7 51.05 204.25 50.15 205.85 49.3 208 48.8 210.2 48.35 212.95 48.35
M 186.05 23.75
Q 186.65 23.75 186.65 24.3
L 186.65 33.35 192 33.35
Q 192.25 33.35 192.45 33.55 192.6 33.7 192.6 33.9
L 192.6 36.7
Q 192.6 36.9 192.45 37.05 192.25 37.2 192 37.2
L 186.65 37.2 186.65 44.95
Q 186.65 45.5 186.05 45.5
L 182.55 45.5
Q 182.35 45.5 182.15 45.3 182 45.15 182 44.9
L 182 24.3
Q 182 24.05 182.15 23.9 182.35 23.75 182.55 23.75
L 186.05 23.75
M 175.75 29.6
Q 175.65 29.85 175.6 30 174.1 35.5 170.1 39.4 166.15 43.25 159.8 45.9 158.85 46.3 158.55 45.5
L 157.5 43.45
Q 157.35 43.1 157.4 42.8 157.45 42.5 157.9 42.3 162.8 40.15 166.2 37.15 169.55 34.15 170.65 30.5 170.85 29.85 170.85 29.6 170.85 29.35 170.1 29.35
L 159.25 29.35
Q 158.95 29.35 158.85 29.2 158.7 29 158.7 28.75
L 158.7 26.1
Q 158.7 25.55 159.25 25.55
L 172.8 25.55
Q 174.6 25.55 175.3 26.1 176 26.7 176 27.95 176 28.1 175.95 28.45 175.9 28.7 175.85 29.05 175.8 29.35 175.75 29.6
M 162.75 47.6
Q 162.95 47.5 163.15 47.5
L 183.9 47.5
Q 185.4 47.5 186 48.1 186.6 48.75 186.6 50.3
L 186.6 61.1
Q 186.6 61.3 186.4 61.45 186.2 61.65 186 61.65
L 182.6 61.65
Q 182.35 61.65 182.15 61.45 181.95 61.3 181.95 61.1
L 181.95 52
Q 181.95 51.55 181.8 51.45 181.65 51.3 181.2 51.3
L 163.15 51.3
Q 162.95 51.3 162.75 51.2 162.6 51.05 162.6 50.85
L 162.6 48
Q 162.6 47.7 162.75 47.6
M 132.25 26.5
Q 134.65 25.9 137.45 25.9 140.25 25.9 142.65 26.5 145.05 27.15 146.85 28.35 148.6 29.55 149.55 31.25 150.55 32.9 150.55 35 150.55 36.9 149.75 38.45 148.95 39.95 147.5 41.1 146.05 42.3 144.05 43 142.1 43.75 139.75 44
L 139.75 51.4 154.85 51.4
Q 155.05 51.4 155.25 51.6 155.45 51.8 155.45 52.05
L 155.45 54.65
Q 155.45 54.85 155.25 55.05 155.05 55.25 154.85 55.25
L 120.05 55.25
Q 119.75 55.25 119.6 55.05 119.45 54.85 119.45 54.65
L 119.45 52.05
Q 119.45 51.4 120.05 51.4
L 135.15 51.4 135.15 44
Q 132.8 43.75 130.8 43 128.8 42.3 127.35 41.1 125.95 39.95 125.15 38.45 124.35 36.9 124.35 35 124.35 32.9 125.35 31.25 126.35 29.55 128.1 28.35 129.85 27.15 132.25 26.5
M 140.65 30.05
Q 139.15 29.7 137.45 29.7 135.8 29.7 134.25 30.05 132.75 30.45 131.6 31.15 130.45 31.85 129.75 32.8 129.1 33.8 129.1 35 129.1 36.2 129.75 37.2 130.45 38.2 131.6 38.9 132.75 39.6 134.25 40 135.8 40.35 137.45 40.35 139.15 40.35 140.65 40 142.2 39.6 143.35 38.9 144.45 38.2 145.15 37.2 145.8 36.2 145.8 35 145.8 33.8 145.15 32.8 144.45 31.85 143.35 31.15 142.2 30.45 140.65 30.05
M 219.7 53.6
Q 219.1 53 218.1 52.6 217.1 52.15 215.8 51.95 214.45 51.75 212.95 51.75 211.35 51.75 210.05 51.95 208.75 52.15 207.8 52.6 206.8 53 206.3 53.6 205.75 54.25 205.75 55.05 205.75 55.85 206.3 56.4 206.8 56.95 207.8 57.35 208.8 57.75 210.1 57.95 211.4 58.1 212.95 58.1 214.45 58.1 215.8 57.95 217.1 57.75 218.1 57.35 219.1 56.95 219.7 56.4 220.3 55.85 220.3 55.05 220.3 54.25 219.7 53.6
M 208.35 38.4
Q 207.2 37.6 205.3 37.6 203.4 37.6 202.25 38.4 201.1 39.2 201.1 40.6 201.1 42 202.25 42.9 203.4 43.75 205.3 43.75 207.2 43.75 208.35 42.9 209.5 42 209.5 40.6 209.5 39.2 208.35 38.4
M 674.45 1.5
L 672.45 1.5 561.45 1.5 524.45 1.5 497.45 1.5 480.5 1.5 448.45 1.5 421.45 1.5 374.5 1.5 346.5 1.5 346.5 81.6 374.5 81.6 421.45 81.6 448.45 81.6 480.5 81.6 497.45 81.6 524.45 81.6 561.45 81.6 672.45 81.6 674.45 81.6 691.5 81.6 691.5 1.5 674.45 1.5
M 570.15 47.7
Q 570 47.9 569.8 47.9
L 566.25 47.9
Q 566 47.9 565.85 47.7 565.7 47.55 565.7 47.3
L 565.7 44.5 560.95 44.5
Q 560.8 44.5 560.6 44.4 560.45 44.25 560.45 44.05
L 560.45 41.3
Q 560.45 41.1 560.6 41 560.8 40.85 560.95 40.85
L 565.7 40.85 565.7 38.15 560.95 38.15
Q 560.8 38.15 560.6 38 560.45 37.9 560.45 37.7
L 560.45 34.95
Q 560.45 34.75 560.6 34.6 560.8 34.5 560.95 34.5
L 565.7 34.5 565.7 24.25
Q 565.7 23.7 566.25 23.7
L 569.8 23.7
Q 570 23.7 570.15 23.9 570.35 24.05 570.35 24.25
L 570.35 47.3
Q 570.35 47.55 570.15 47.7
M 569.55 52.25
Q 570.45 53.45 570.45 54.9 570.45 56.4 569.55 57.65 568.65 58.9 567 59.75 565.4 60.65 563.15 61.1 560.95 61.6 558.35 61.6 555.6 61.6 553.4 61.1 551.25 60.65 549.65 59.75 548.1 58.9 547.25 57.65 546.4 56.4 546.4 54.9 546.4 53.45 547.25 52.25 548.1 51.05 549.65 50.15 551.25 49.3 553.4 48.8 555.6 48.35 558.35 48.35 560.95 48.35 563.15 48.8 565.4 49.3 567 50.15 568.65 51.05 569.55 52.25
M 555.75 24.1
Q 556 24.1 556.25 24.35 556.4 24.5 556.4 24.75
L 556.4 26.95
Q 556.4 27.2 556.25 27.4 556.05 27.65 555.75 27.65
L 545.55 27.65
Q 545.4 27.65 545.15 27.45 544.95 27.3 544.95 27
L 544.95 24.7
Q 544.95 24.45 545.15 24.3 545.4 24.1 545.55 24.1
L 555.75 24.1
M 531.45 23.75
Q 532.05 23.75 532.05 24.3
L 532.05 33.35 537.4 33.35
Q 537.65 33.35 537.85 33.55 538 33.7 538 33.9
L 538 36.7
Q 538 36.9 537.85 37.05 537.65 37.2 537.4 37.2
L 532.05 37.2 532.05 44.95
Q 532.05 45.5 531.45 45.5
L 527.95 45.5
Q 527.75 45.5 527.55 45.3 527.4 45.15 527.4 44.9
L 527.4 24.3
Q 527.4 24.05 527.55 23.9 527.75 23.75 527.95 23.75
L 531.45 23.75
M 539.65 29.45
Q 539.9 29.25 540.1 29.25
L 560.95 29.25
Q 561.2 29.25 561.35 29.45 561.55 29.65 561.55 29.85
L 561.55 32.15
Q 561.55 32.4 561.35 32.6 561.2 32.75 560.95 32.75
L 540.05 32.75
Q 539.85 32.75 539.65 32.55 539.45 32.35 539.45 32.1
L 539.45 29.85
Q 539.45 29.7 539.65 29.45
M 529.3 47.5
Q 530.8 47.5 531.4 48.1 532 48.75 532 50.3
L 532 61.1
Q 532 61.3 531.8 61.45 531.6 61.65 531.4 61.65
L 528 61.65
Q 527.75 61.65 527.55 61.45 527.35 61.3 527.35 61.1
L 527.35 52
Q 527.35 51.55 527.2 51.45 527.05 51.3 526.6 51.3
L 508.55 51.3
Q 508.35 51.3 508.15 51.2 508 51.05 508 50.85
L 508 48
Q 508 47.7 508.15 47.6 508.35 47.5 508.55 47.5
L 529.3 47.5
M 542.85 43.15
Q 542.2 41.9 542.2 40.4 542.2 38.9 542.85 37.75 543.5 36.6 544.65 35.75 545.8 34.95 547.35 34.5 548.9 34.05 550.7 34.05 552.5 34.05 554.1 34.55 555.65 35 556.8 35.85 557.95 36.75 558.6 37.9 559.25 39.1 559.25 40.6 559.25 42.1 558.6 43.3 557.95 44.5 556.75 45.4 555.6 46.25 554.05 46.75 552.5 47.2 550.65 47.2 548.85 47.2 547.3 46.7 545.8 46.2 544.65 45.3 543.5 44.4 542.85 43.15
M 504.65 29.35
Q 504.35 29.35 504.25 29.2 504.1 29 504.1 28.75
L 504.1 26.1
Q 504.1 25.55 504.65 25.55
L 518.2 25.55
Q 520 25.55 520.7 26.1 521.4 26.7 521.4 27.95 521.4 28.1 521.35 28.45 521.3 28.7 521.25 29.05 521.2 29.35 521.15 29.6 521.05 29.85 521 30 519.5 35.5 515.5 39.4 511.55 43.25 505.2 45.9 504.25 46.3 503.95 45.5
L 502.9 43.45
Q 502.75 43.1 502.8 42.8 502.85 42.5 503.3 42.3 508.2 40.15 511.6 37.15 514.95 34.15 516.05 30.5 516.25 29.85 516.25 29.6 516.25 29.35 515.5 29.35
L 504.65 29.35
M 492.25 26.05
Q 493.85 26.95 494.7 28.2 495.55 29.5 495.55 31 495.55 34.15 492.25 36.1 488.95 38.05 482.85 38.05 479.8 38.05 477.45 37.55 475.1 37.05 473.5 36.1 471.85 35.15 471 33.85 470.15 32.55 470.15 31 470.15 29.5 471 28.2 471.85 26.95 473.5 26.05 475.1 25.15 477.45 24.6 479.8 24.1 482.85 24.1 485.9 24.1 488.25 24.6 490.6 25.15 492.25 26.05
M 492.6 48.7
Q 494.1 48.7 494.65 49.3 495.2 49.9 495.2 51.45
L 495.2 61.2
Q 495.2 61.4 495.05 61.55 494.85 61.75 494.65 61.75
L 491.25 61.75
Q 491 61.75 490.8 61.55 490.6 61.4 490.6 61.2
L 490.6 53.15
Q 490.6 52.75 490.45 52.65 490.3 52.55 489.85 52.55
L 470.2 52.55
Q 470 52.55 469.85 52.35 469.65 52.2 469.65 52
L 469.65 49.15
Q 469.65 48.9 469.85 48.8 470 48.7 470.2 48.7
L 474.35 48.7 474.35 44.4 465.45 44.4
Q 464.85 44.4 464.85 43.8
L 464.85 41.25
Q 464.85 41 465 40.85 465.15 40.65 465.45 40.65
L 500.25 40.65
Q 500.45 40.65 500.65 40.85 500.85 41.05 500.85 41.25
L 500.85 43.8
Q 500.85 44.05 500.65 44.25 500.45 44.4 500.25 44.4
L 491.3 44.4 491.3 48.7 492.6 48.7
M 486.8 48.7
L 486.8 44.4 478.9 44.4 478.9 48.7 486.8 48.7
M 490.35 29.75
Q 489.75 29.05 488.65 28.6 487.6 28.1 486.05 27.85 484.6 27.55 482.85 27.55 481.1 27.55 479.65 27.85 478.15 28.1 477.05 28.6 475.95 29.05 475.3 29.75 474.7 30.4 474.7 31.1 474.7 31.9 475.3 32.55 475.95 33.15 477.05 33.6 478.15 34.05 479.65 34.35 481.1 34.6 482.85 34.6 484.6 34.6 486.05 34.35 487.6 34.05 488.65 33.6 489.75 33.15 490.35 32.55 491 31.9 491 31.1 491 30.4 490.35 29.75
M 553.75 42.9
Q 554.9 42 554.9 40.6 554.9 39.2 553.75 38.4 552.6 37.6 550.7 37.6 548.8 37.6 547.65 38.4 546.5 39.2 546.5 40.6 546.5 42 547.65 42.9 548.8 43.75 550.7 43.75 552.6 43.75 553.75 42.9
M 565.1 53.6
Q 564.5 53 563.5 52.6 562.5 52.15 561.2 51.95 559.85 51.75 558.35 51.75 556.75 51.75 555.45 51.95 554.15 52.15 553.2 52.6 552.2 53 551.7 53.6 551.15 54.25 551.15 55.05 551.15 55.85 551.7 56.4 552.2 56.95 553.2 57.35 554.2 57.75 555.5 57.95 556.8 58.1 558.35 58.1 559.85 58.1 561.2 57.95 562.5 57.75 563.5 57.35 564.5 56.95 565.1 56.4 565.7 55.85 565.7 55.05 565.7 54.25 565.1 53.6
M 1036.5 21.5
Q 1036.5 1.5 1016.5 1.5
L 878.8 1.5 864.4 1.5 841.4 1.5 824.4 1.5 750.45 1.5 739.5 1.5 701.45 1.5 691.5 1.5 691.5 81.6 701.45 81.6 730.5 81.6 739.5 81.6 750.45 81.6 824.4 81.6 841.4 81.6 864.4 81.6 878.8 81.6 1036.5 81.6 1036.5 21.5
M 915.15 23.9
Q 915.35 24.05 915.35 24.25
L 915.35 47.3
Q 915.35 47.55 915.15 47.7 915 47.9 914.8 47.9
L 911.25 47.9
Q 911 47.9 910.85 47.7 910.7 47.55 910.7 47.3
L 910.7 44.5 905.95 44.5
Q 905.8 44.5 905.6 44.4 905.45 44.25 905.45 44.05
L 905.45 41.3
Q 905.45 41.1 905.6 41 905.8 40.85 905.95 40.85
L 910.7 40.85 910.7 38.15 905.95 38.15
Q 905.8 38.15 905.6 38 905.45 37.9 905.45 37.7
L 905.45 34.95
Q 905.45 34.75 905.6 34.6 905.8 34.5 905.95 34.5
L 910.7 34.5 910.7 24.25
Q 910.7 23.7 911.25 23.7
L 914.8 23.7
Q 915 23.7 915.15 23.9
M 900.75 24.1
Q 901 24.1 901.25 24.35 901.4 24.5 901.4 24.75
L 901.4 26.95
Q 901.4 27.2 901.25 27.4 901.05 27.65 900.75 27.65
L 890.55 27.65
Q 890.4 27.65 890.15 27.45 889.95 27.3 889.95 27
L 889.95 24.7
Q 889.95 24.45 890.15 24.3 890.4 24.1 890.55 24.1
L 900.75 24.1
M 906.35 29.45
Q 906.55 29.65 906.55 29.85
L 906.55 32.15
Q 906.55 32.4 906.35 32.6 906.2 32.75 905.95 32.75
L 885.05 32.75
Q 884.85 32.75 884.65 32.55 884.45 32.35 884.45 32.1
L 884.45 29.85
Q 884.45 29.7 884.65 29.45 884.9 29.25 885.1 29.25
L 905.95 29.25
Q 906.2 29.25 906.35 29.45
M 892.35 34.5
Q 893.9 34.05 895.7 34.05 897.5 34.05 899.1 34.55 900.65 35 901.8 35.85 902.95 36.75 903.6 37.9 904.25 39.1 904.25 40.6 904.25 42.1 903.6 43.3 902.95 44.5 901.75 45.4 900.6 46.25 899.05 46.75 897.5 47.2 895.65 47.2 893.85 47.2 892.3 46.7 890.8 46.2 889.65 45.3 888.5 44.4 887.85 43.15 887.2 41.9 887.2 40.4 887.2 38.9 887.85 37.75 888.5 36.6 889.65 35.75 890.8 34.95 892.35 34.5
M 903.35 48.35
Q 905.95 48.35 908.15 48.8 910.4 49.3 912 50.15 913.65 51.05 914.55 52.25 915.45 53.45 915.45 54.9 915.45 56.4 914.55 57.65 913.65 58.9 912 59.75 910.4 60.65 908.15 61.1 905.95 61.6 903.35 61.6 900.6 61.6 898.4 61.1 896.25 60.65 894.65 59.75 893.1 58.9 892.25 57.65 891.4 56.4 891.4 54.9 891.4 53.45 892.25 52.25 893.1 51.05 894.65 50.15 896.25 49.3 898.4 48.8 900.6 48.35 903.35 48.35
M 876.45 23.75
Q 877.05 23.75 877.05 24.3
L 877.05 33.35 882.4 33.35
Q 882.65 33.35 882.85 33.55 883 33.7 883 33.9
L 883 36.7
Q 883 36.9 882.85 37.05 882.65 37.2 882.4 37.2
L 877.05 37.2 877.05 44.95
Q 877.05 45.5 876.45 45.5
L 872.95 45.5
Q 872.75 45.5 872.55 45.3 872.4 45.15 872.4 44.9
L 872.4 24.3
Q 872.4 24.05 872.55 23.9 872.75 23.75 872.95 23.75
L 876.45 23.75
M 866.25 29.05
Q 866.2 29.35 866.15 29.6 866.05 29.85 866 30 864.5 35.5 860.5 39.4 856.55 43.25 850.2 45.9 849.25 46.3 848.95 45.5
L 847.9 43.45
Q 847.75 43.1 847.8 42.8 847.85 42.5 848.3 42.3 853.2 40.15 856.6 37.15 859.95 34.15 861.05 30.5 861.25 29.85 861.25 29.6 861.25 29.35 860.5 29.35
L 849.65 29.35
Q 849.35 29.35 849.25 29.2 849.1 29 849.1 28.75
L 849.1 26.1
Q 849.1 25.55 849.65 25.55
L 863.2 25.55
Q 865 25.55 865.7 26.1 866.4 26.7 866.4 27.95 866.4 28.1 866.35 28.45 866.3 28.7 866.25 29.05
M 853.15 47.6
Q 853.35 47.5 853.55 47.5
L 874.3 47.5
Q 875.8 47.5 876.4 48.1 877 48.75 877 50.3
L 877 61.1
Q 877 61.3 876.8 61.45 876.6 61.65 876.4 61.65
L 873 61.65
Q 872.75 61.65 872.55 61.45 872.35 61.3 872.35 61.1
L 872.35 52
Q 872.35 51.55 872.2 51.45 872.05 51.3 871.6 51.3
L 853.55 51.3
Q 853.35 51.3 853.15 51.2 853 51.05 853 50.85
L 853 48
Q 853 47.7 853.15 47.6
M 839.9 23.75
Q 840.45 23.75 840.45 24.3
L 840.45 31.95 845.85 31.95
Q 846.05 31.95 846.25 32.1 846.4 32.25 846.4 32.45
L 846.4 35.25
Q 846.4 35.45 846.25 35.6 846.05 35.8 845.85 35.8
L 840.45 35.8 840.45 43.25
Q 840.45 43.5 840.25 43.65 840.1 43.85 839.9 43.85
L 836.35 43.85
Q 836.15 43.85 836 43.65 835.8 43.5 835.8 43.25
L 835.8 24.3
Q 835.8 23.75 836.35 23.75
L 839.9 23.75
M 810.8 26.05
Q 810.8 25.85 811 25.65 811.25 25.45 811.45 25.45
L 831.75 25.45
Q 831.95 25.45 832.15 25.6 832.35 25.8 832.35 26.05
L 832.35 28.55
Q 832.35 28.75 832.15 28.95 831.95 29.1 831.75 29.1
L 829.25 29.1 829.25 38.15
Q 830.25 38.1 831.25 37.95 832.2 37.85 833.15 37.7 833.35 37.7 833.55 37.8 833.85 37.9 833.85 38.1
L 834.15 40.4
Q 834.2 40.7 833.95 40.95 833.7 41.2 833.5 41.25 831.1 41.6 828.4 41.85 825.65 42.1 822.75 42.2 819.9 42.35 816.9 42.4 813.95 42.45 811 42.35 810.8 42.35 810.6 42.2 810.45 42 810.45 41.75
L 810.45 39.25
Q 810.45 38.7 811 38.7 812.05 38.7 813.05 38.7 814 38.7 814.9 38.7
L 814.9 29.1 811.45 29.1
Q 811.25 29.1 811 28.9 810.8 28.7 810.8 28.5
L 810.8 26.05
M 816.9 48.85
L 816.9 46.2
Q 816.9 46 817.1 45.85 817.25 45.65 817.5 45.65
L 837.7 45.65
Q 839.35 45.65 839.9 46.2 840.45 46.75 840.45 48.1
L 840.45 52.9
Q 840.45 54.3 839.9 54.8 839.35 55.3 837.7 55.3
L 822.05 55.3
Q 821.7 55.3 821.6 55.4 821.55 55.5 821.55 55.85
L 821.55 57.5
Q 821.55 57.85 821.6 57.9 821.7 57.95 822.05 57.95
L 840.85 57.95
Q 841.05 57.95 841.25 58.1 841.4 58.25 841.4 58.55
L 841.4 61.1
Q 841.4 61.3 841.25 61.45 841.05 61.65 840.9 61.65
L 819.7 61.65
Q 818.15 61.65 817.55 61.05 816.95 60.45 816.95 59.15
L 816.95 54.35
Q 816.95 53.05 817.55 52.5 818.1 51.9 819.65 51.9
L 835.45 51.9
Q 835.8 51.9 835.85 51.8 835.95 51.7 835.95 51.3
L 835.95 49.95
Q 835.95 49.5 835.85 49.4 835.8 49.35 835.4 49.35
L 817.5 49.35
Q 817.25 49.35 817.1 49.2 816.9 49.05 816.9 48.85
M 822.15 38.6
Q 823.55 38.55 824.9 38.5
L 824.9 29.1 819.3 29.1 819.3 38.7
Q 820.75 38.65 822.15 38.6
M 910.1 53.6
Q 909.5 53 908.5 52.6 907.5 52.15 906.2 51.95 904.85 51.75 903.35 51.75 901.75 51.75 900.45 51.95 899.15 52.15 898.2 52.6 897.2 53 896.7 53.6 896.15 54.25 896.15 55.05 896.15 55.85 896.7 56.4 897.2 56.95 898.2 57.35 899.2 57.75 900.5 57.95 901.8 58.1 903.35 58.1 904.85 58.1 906.2 57.95 907.5 57.75 908.5 57.35 909.5 56.95 910.1 56.4 910.7 55.85 910.7 55.05 910.7 54.25 910.1 53.6
M 898.75 42.9
Q 899.9 42 899.9 40.6 899.9 39.2 898.75 38.4 897.6 37.6 895.7 37.6 893.8 37.6 892.65 38.4 891.5 39.2 891.5 40.6 891.5 42 892.65 42.9 893.8 43.75 895.7 43.75 897.6 43.75 898.75 42.9 Z"/>

<path fill="#1E1E1E" stroke="none" d="
M 137.45 25.9
Q 134.65 25.9 132.25 26.5 129.85 27.15 128.1 28.35 126.35 29.55 125.35 31.25 124.35 32.9 124.35 35 124.35 36.9 125.15 38.45 125.95 39.95 127.35 41.1 128.8 42.3 130.8 43 132.8 43.75 135.15 44
L 135.15 51.4 120.05 51.4
Q 119.45 51.4 119.45 52.05
L 119.45 54.65
Q 119.45 54.85 119.6 55.05 119.75 55.25 120.05 55.25
L 154.85 55.25
Q 155.05 55.25 155.25 55.05 155.45 54.85 155.45 54.65
L 155.45 52.05
Q 155.45 51.8 155.25 51.6 155.05 51.4 154.85 51.4
L 139.75 51.4 139.75 44
Q 142.1 43.75 144.05 43 146.05 42.3 147.5 41.1 148.95 39.95 149.75 38.45 150.55 36.9 150.55 35 150.55 32.9 149.55 31.25 148.6 29.55 146.85 28.35 145.05 27.15 142.65 26.5 140.25 25.9 137.45 25.9
M 137.45 29.7
Q 139.15 29.7 140.65 30.05 142.2 30.45 143.35 31.15 144.45 31.85 145.15 32.8 145.8 33.8 145.8 35 145.8 36.2 145.15 37.2 144.45 38.2 143.35 38.9 142.2 39.6 140.65 40 139.15 40.35 137.45 40.35 135.8 40.35 134.25 40 132.75 39.6 131.6 38.9 130.45 38.2 129.75 37.2 129.1 36.2 129.1 35 129.1 33.8 129.75 32.8 130.45 31.85 131.6 31.15 132.75 30.45 134.25 30.05 135.8 29.7 137.45 29.7
M 163.15 47.5
Q 162.95 47.5 162.75 47.6 162.6 47.7 162.6 48
L 162.6 50.85
Q 162.6 51.05 162.75 51.2 162.95 51.3 163.15 51.3
L 181.2 51.3
Q 181.65 51.3 181.8 51.45 181.95 51.55 181.95 52
L 181.95 61.1
Q 181.95 61.3 182.15 61.45 182.35 61.65 182.6 61.65
L 186 61.65
Q 186.2 61.65 186.4 61.45 186.6 61.3 186.6 61.1
L 186.6 50.3
Q 186.6 48.75 186 48.1 185.4 47.5 183.9 47.5
L 163.15 47.5
M 175.6 30
Q 175.65 29.85 175.75 29.6 175.8 29.35 175.85 29.05 175.9 28.7 175.95 28.45 176 28.1 176 27.95 176 26.7 175.3 26.1 174.6 25.55 172.8 25.55
L 159.25 25.55
Q 158.7 25.55 158.7 26.1
L 158.7 28.75
Q 158.7 29 158.85 29.2 158.95 29.35 159.25 29.35
L 170.1 29.35
Q 170.85 29.35 170.85 29.6 170.85 29.85 170.65 30.5 169.55 34.15 166.2 37.15 162.8 40.15 157.9 42.3 157.45 42.5 157.4 42.8 157.35 43.1 157.5 43.45
L 158.55 45.5
Q 158.85 46.3 159.8 45.9 166.15 43.25 170.1 39.4 174.1 35.5 175.6 30
M 186.65 24.3
Q 186.65 23.75 186.05 23.75
L 182.55 23.75
Q 182.35 23.75 182.15 23.9 182 24.05 182 24.3
L 182 44.9
Q 182 45.15 182.15 45.3 182.35 45.5 182.55 45.5
L 186.05 45.5
Q 186.65 45.5 186.65 44.95
L 186.65 37.2 192 37.2
Q 192.25 37.2 192.45 37.05 192.6 36.9 192.6 36.7
L 192.6 33.9
Q 192.6 33.7 192.45 33.55 192.25 33.35 192 33.35
L 186.65 33.35 186.65 24.3
M 217.75 48.8
Q 215.55 48.35 212.95 48.35 210.2 48.35 208 48.8 205.85 49.3 204.25 50.15 202.7 51.05 201.85 52.25 201 53.45 201 54.9 201 56.4 201.85 57.65 202.7 58.9 204.25 59.75 205.85 60.65 208 61.1 210.2 61.6 212.95 61.6 215.55 61.6 217.75 61.1 220 60.65 221.6 59.75 223.25 58.9 224.15 57.65 225.05 56.4 225.05 54.9 225.05 53.45 224.15 52.25 223.25 51.05 221.6 50.15 220 49.3 217.75 48.8
M 218.1 52.6
Q 219.1 53 219.7 53.6 220.3 54.25 220.3 55.05 220.3 55.85 219.7 56.4 219.1 56.95 218.1 57.35 217.1 57.75 215.8 57.95 214.45 58.1 212.95 58.1 211.4 58.1 210.1 57.95 208.8 57.75 207.8 57.35 206.8 56.95 206.3 56.4 205.75 55.85 205.75 55.05 205.75 54.25 206.3 53.6 206.8 53 207.8 52.6 208.75 52.15 210.05 51.95 211.35 51.75 212.95 51.75 214.45 51.75 215.8 51.95 217.1 52.15 218.1 52.6
M 211.4 35.85
Q 210.25 35 208.7 34.55 207.1 34.05 205.3 34.05 203.5 34.05 201.95 34.5 200.4 34.95 199.25 35.75 198.1 36.6 197.45 37.75 196.8 38.9 196.8 40.4 196.8 41.9 197.45 43.15 198.1 44.4 199.25 45.3 200.4 46.2 201.9 46.7 203.45 47.2 205.25 47.2 207.1 47.2 208.65 46.75 210.2 46.25 211.35 45.4 212.55 44.5 213.2 43.3 213.85 42.1 213.85 40.6 213.85 39.1 213.2 37.9 212.55 36.75 211.4 35.85
M 205.3 37.6
Q 207.2 37.6 208.35 38.4 209.5 39.2 209.5 40.6 209.5 42 208.35 42.9 207.2 43.75 205.3 43.75 203.4 43.75 202.25 42.9 201.1 42 201.1 40.6 201.1 39.2 202.25 38.4 203.4 37.6 205.3 37.6
M 216.15 32.15
L 216.15 29.85
Q 216.15 29.65 215.95 29.45 215.8 29.25 215.55 29.25
L 194.7 29.25
Q 194.5 29.25 194.25 29.45 194.05 29.7 194.05 29.85
L 194.05 32.1
Q 194.05 32.35 194.25 32.55 194.45 32.75 194.65 32.75
L 215.55 32.75
Q 215.8 32.75 215.95 32.6 216.15 32.4 216.15 32.15
M 210.85 24.35
Q 210.6 24.1 210.35 24.1
L 200.15 24.1
Q 200 24.1 199.75 24.3 199.55 24.45 199.55 24.7
L 199.55 27
Q 199.55 27.3 199.75 27.45 200 27.65 200.15 27.65
L 210.35 27.65
Q 210.65 27.65 210.85 27.4 211 27.2 211 26.95
L 211 24.75
Q 211 24.5 210.85 24.35
M 224.95 24.25
Q 224.95 24.05 224.75 23.9 224.6 23.7 224.4 23.7
L 220.85 23.7
Q 220.3 23.7 220.3 24.25
L 220.3 34.5 215.55 34.5
Q 215.4 34.5 215.2 34.6 215.05 34.75 215.05 34.95
L 215.05 37.7
Q 215.05 37.9 215.2 38 215.4 38.15 215.55 38.15
L 220.3 38.15 220.3 40.85 215.55 40.85
Q 215.4 40.85 215.2 41 215.05 41.1 215.05 41.3
L 215.05 44.05
Q 215.05 44.25 215.2 44.4 215.4 44.5 215.55 44.5
L 220.3 44.5 220.3 47.3
Q 220.3 47.55 220.45 47.7 220.6 47.9 220.85 47.9
L 224.4 47.9
Q 224.6 47.9 224.75 47.7 224.95 47.55 224.95 47.3
L 224.95 24.25
M 494.65 49.3
Q 494.1 48.7 492.6 48.7
L 491.3 48.7 491.3 44.4 500.25 44.4
Q 500.45 44.4 500.65 44.25 500.85 44.05 500.85 43.8
L 500.85 41.25
Q 500.85 41.05 500.65 40.85 500.45 40.65 500.25 40.65
L 465.45 40.65
Q 465.15 40.65 465 40.85 464.85 41 464.85 41.25
L 464.85 43.8
Q 464.85 44.4 465.45 44.4
L 474.35 44.4 474.35 48.7 470.2 48.7
Q 470 48.7 469.85 48.8 469.65 48.9 469.65 49.15
L 469.65 52
Q 469.65 52.2 469.85 52.35 470 52.55 470.2 52.55
L 489.85 52.55
Q 490.3 52.55 490.45 52.65 490.6 52.75 490.6 53.15
L 490.6 61.2
Q 490.6 61.4 490.8 61.55 491 61.75 491.25 61.75
L 494.65 61.75
Q 494.85 61.75 495.05 61.55 495.2 61.4 495.2 61.2
L 495.2 51.45
Q 495.2 49.9 494.65 49.3
M 486.8 44.4
L 486.8 48.7 478.9 48.7 478.9 44.4 486.8 44.4
M 494.7 28.2
Q 493.85 26.95 492.25 26.05 490.6 25.15 488.25 24.6 485.9 24.1 482.85 24.1 479.8 24.1 477.45 24.6 475.1 25.15 473.5 26.05 471.85 26.95 471 28.2 470.15 29.5 470.15 31 470.15 32.55 471 33.85 471.85 35.15 473.5 36.1 475.1 37.05 477.45 37.55 479.8 38.05 482.85 38.05 488.95 38.05 492.25 36.1 495.55 34.15 495.55 31 495.55 29.5 494.7 28.2
M 488.65 28.6
Q 489.75 29.05 490.35 29.75 491 30.4 491 31.1 491 31.9 490.35 32.55 489.75 33.15 488.65 33.6 487.6 34.05 486.05 34.35 484.6 34.6 482.85 34.6 481.1 34.6 479.65 34.35 478.15 34.05 477.05 33.6 475.95 33.15 475.3 32.55 474.7 31.9 474.7 31.1 474.7 30.4 475.3 29.75 475.95 29.05 477.05 28.6 478.15 28.1 479.65 27.85 481.1 27.55 482.85 27.55 484.6 27.55 486.05 27.85 487.6 28.1 488.65 28.6
M 504.25 29.2
Q 504.35 29.35 504.65 29.35
L 515.5 29.35
Q 516.25 29.35 516.25 29.6 516.25 29.85 516.05 30.5 514.95 34.15 511.6 37.15 508.2 40.15 503.3 42.3 502.85 42.5 502.8 42.8 502.75 43.1 502.9 43.45
L 503.95 45.5
Q 504.25 46.3 505.2 45.9 511.55 43.25 515.5 39.4 519.5 35.5 521 30 521.05 29.85 521.15 29.6 521.2 29.35 521.25 29.05 521.3 28.7 521.35 28.45 521.4 28.1 521.4 27.95 521.4 26.7 520.7 26.1 520 25.55 518.2 25.55
L 504.65 25.55
Q 504.1 25.55 504.1 26.1
L 504.1 28.75
Q 504.1 29 504.25 29.2
M 542.2 40.4
Q 542.2 41.9 542.85 43.15 543.5 44.4 544.65 45.3 545.8 46.2 547.3 46.7 548.85 47.2 550.65 47.2 552.5 47.2 554.05 46.75 555.6 46.25 556.75 45.4 557.95 44.5 558.6 43.3 559.25 42.1 559.25 40.6 559.25 39.1 558.6 37.9 557.95 36.75 556.8 35.85 555.65 35 554.1 34.55 552.5 34.05 550.7 34.05 548.9 34.05 547.35 34.5 545.8 34.95 544.65 35.75 543.5 36.6 542.85 37.75 542.2 38.9 542.2 40.4
M 554.9 40.6
Q 554.9 42 553.75 42.9 552.6 43.75 550.7 43.75 548.8 43.75 547.65 42.9 546.5 42 546.5 40.6 546.5 39.2 547.65 38.4 548.8 37.6 550.7 37.6 552.6 37.6 553.75 38.4 554.9 39.2 554.9 40.6
M 531.4 48.1
Q 530.8 47.5 529.3 47.5
L 508.55 47.5
Q 508.35 47.5 508.15 47.6 508 47.7 508 48
L 508 50.85
Q 508 51.05 508.15 51.2 508.35 51.3 508.55 51.3
L 526.6 51.3
Q 527.05 51.3 527.2 51.45 527.35 51.55 527.35 52
L 527.35 61.1
Q 527.35 61.3 527.55 61.45 527.75 61.65 528 61.65
L 531.4 61.65
Q 531.6 61.65 531.8 61.45 532 61.3 532 61.1
L 532 50.3
Q 532 48.75 531.4 48.1
M 540.1 29.25
Q 539.9 29.25 539.65 29.45 539.45 29.7 539.45 29.85
L 539.45 32.1
Q 539.45 32.35 539.65 32.55 539.85 32.75 540.05 32.75
L 560.95 32.75
Q 561.2 32.75 561.35 32.6 561.55 32.4 561.55 32.15
L 561.55 29.85
Q 561.55 29.65 561.35 29.45 561.2 29.25 560.95 29.25
L 540.1 29.25
M 532.05 24.3
Q 532.05 23.75 531.45 23.75
L 527.95 23.75
Q 527.75 23.75 527.55 23.9 527.4 24.05 527.4 24.3
L 527.4 44.9
Q 527.4 45.15 527.55 45.3 527.75 45.5 527.95 45.5
L 531.45 45.5
Q 532.05 45.5 532.05 44.95
L 532.05 37.2 537.4 37.2
Q 537.65 37.2 537.85 37.05 538 36.9 538 36.7
L 538 33.9
Q 538 33.7 537.85 33.55 537.65 33.35 537.4 33.35
L 532.05 33.35 532.05 24.3
M 556.25 24.35
Q 556 24.1 555.75 24.1
L 545.55 24.1
Q 545.4 24.1 545.15 24.3 544.95 24.45 544.95 24.7
L 544.95 27
Q 544.95 27.3 545.15 27.45 545.4 27.65 545.55 27.65
L 555.75 27.65
Q 556.05 27.65 556.25 27.4 556.4 27.2 556.4 26.95
L 556.4 24.75
Q 556.4 24.5 556.25 24.35
M 570.45 54.9
Q 570.45 53.45 569.55 52.25 568.65 51.05 567 50.15 565.4 49.3 563.15 48.8 560.95 48.35 558.35 48.35 555.6 48.35 553.4 48.8 551.25 49.3 549.65 50.15 548.1 51.05 547.25 52.25 546.4 53.45 546.4 54.9 546.4 56.4 547.25 57.65 548.1 58.9 549.65 59.75 551.25 60.65 553.4 61.1 555.6 61.6 558.35 61.6 560.95 61.6 563.15 61.1 565.4 60.65 567 59.75 568.65 58.9 569.55 57.65 570.45 56.4 570.45 54.9
M 563.5 52.6
Q 564.5 53 565.1 53.6 565.7 54.25 565.7 55.05 565.7 55.85 565.1 56.4 564.5 56.95 563.5 57.35 562.5 57.75 561.2 57.95 559.85 58.1 558.35 58.1 556.8 58.1 555.5 57.95 554.2 57.75 553.2 57.35 552.2 56.95 551.7 56.4 551.15 55.85 551.15 55.05 551.15 54.25 551.7 53.6 552.2 53 553.2 52.6 554.15 52.15 555.45 51.95 556.75 51.75 558.35 51.75 559.85 51.75 561.2 51.95 562.5 52.15 563.5 52.6
M 569.8 47.9
Q 570 47.9 570.15 47.7 570.35 47.55 570.35 47.3
L 570.35 24.25
Q 570.35 24.05 570.15 23.9 570 23.7 569.8 23.7
L 566.25 23.7
Q 565.7 23.7 565.7 24.25
L 565.7 34.5 560.95 34.5
Q 560.8 34.5 560.6 34.6 560.45 34.75 560.45 34.95
L 560.45 37.7
Q 560.45 37.9 560.6 38 560.8 38.15 560.95 38.15
L 565.7 38.15 565.7 40.85 560.95 40.85
Q 560.8 40.85 560.6 41 560.45 41.1 560.45 41.3
L 560.45 44.05
Q 560.45 44.25 560.6 44.4 560.8 44.5 560.95 44.5
L 565.7 44.5 565.7 47.3
Q 565.7 47.55 565.85 47.7 566 47.9 566.25 47.9
L 569.8 47.9
M 816.9 46.2
L 816.9 48.85
Q 816.9 49.05 817.1 49.2 817.25 49.35 817.5 49.35
L 835.4 49.35
Q 835.8 49.35 835.85 49.4 835.95 49.5 835.95 49.95
L 835.95 51.3
Q 835.95 51.7 835.85 51.8 835.8 51.9 835.45 51.9
L 819.65 51.9
Q 818.1 51.9 817.55 52.5 816.95 53.05 816.95 54.35
L 816.95 59.15
Q 816.95 60.45 817.55 61.05 818.15 61.65 819.7 61.65
L 840.9 61.65
Q 841.05 61.65 841.25 61.45 841.4 61.3 841.4 61.1
L 841.4 58.55
Q 841.4 58.25 841.25 58.1 841.05 57.95 840.85 57.95
L 822.05 57.95
Q 821.7 57.95 821.6 57.9 821.55 57.85 821.55 57.5
L 821.55 55.85
Q 821.55 55.5 821.6 55.4 821.7 55.3 822.05 55.3
L 837.7 55.3
Q 839.35 55.3 839.9 54.8 840.45 54.3 840.45 52.9
L 840.45 48.1
Q 840.45 46.75 839.9 46.2 839.35 45.65 837.7 45.65
L 817.5 45.65
Q 817.25 45.65 817.1 45.85 816.9 46 816.9 46.2
M 811 25.65
Q 810.8 25.85 810.8 26.05
L 810.8 28.5
Q 810.8 28.7 811 28.9 811.25 29.1 811.45 29.1
L 814.9 29.1 814.9 38.7
Q 814 38.7 813.05 38.7 812.05 38.7 811 38.7 810.45 38.7 810.45 39.25
L 810.45 41.75
Q 810.45 42 810.6 42.2 810.8 42.35 811 42.35 813.95 42.45 816.9 42.4 819.9 42.35 822.75 42.2 825.65 42.1 828.4 41.85 831.1 41.6 833.5 41.25 833.7 41.2 833.95 40.95 834.2 40.7 834.15 40.4
L 833.85 38.1
Q 833.85 37.9 833.55 37.8 833.35 37.7 833.15 37.7 832.2 37.85 831.25 37.95 830.25 38.1 829.25 38.15
L 829.25 29.1 831.75 29.1
Q 831.95 29.1 832.15 28.95 832.35 28.75 832.35 28.55
L 832.35 26.05
Q 832.35 25.8 832.15 25.6 831.95 25.45 831.75 25.45
L 811.45 25.45
Q 811.25 25.45 811 25.65
M 824.9 38.5
Q 823.55 38.55 822.15 38.6 820.75 38.65 819.3 38.7
L 819.3 29.1 824.9 29.1 824.9 38.5
M 840.45 24.3
Q 840.45 23.75 839.9 23.75
L 836.35 23.75
Q 835.8 23.75 835.8 24.3
L 835.8 43.25
Q 835.8 43.5 836 43.65 836.15 43.85 836.35 43.85
L 839.9 43.85
Q 840.1 43.85 840.25 43.65 840.45 43.5 840.45 43.25
L 840.45 35.8 845.85 35.8
Q 846.05 35.8 846.25 35.6 846.4 35.45 846.4 35.25
L 846.4 32.45
Q 846.4 32.25 846.25 32.1 846.05 31.95 845.85 31.95
L 840.45 31.95 840.45 24.3
M 853.55 47.5
Q 853.35 47.5 853.15 47.6 853 47.7 853 48
L 853 50.85
Q 853 51.05 853.15 51.2 853.35 51.3 853.55 51.3
L 871.6 51.3
Q 872.05 51.3 872.2 51.45 872.35 51.55 872.35 52
L 872.35 61.1
Q 872.35 61.3 872.55 61.45 872.75 61.65 873 61.65
L 876.4 61.65
Q 876.6 61.65 876.8 61.45 877 61.3 877 61.1
L 877 50.3
Q 877 48.75 876.4 48.1 875.8 47.5 874.3 47.5
L 853.55 47.5
M 866.15 29.6
Q 866.2 29.35 866.25 29.05 866.3 28.7 866.35 28.45 866.4 28.1 866.4 27.95 866.4 26.7 865.7 26.1 865 25.55 863.2 25.55
L 849.65 25.55
Q 849.1 25.55 849.1 26.1
L 849.1 28.75
Q 849.1 29 849.25 29.2 849.35 29.35 849.65 29.35
L 860.5 29.35
Q 861.25 29.35 861.25 29.6 861.25 29.85 861.05 30.5 859.95 34.15 856.6 37.15 853.2 40.15 848.3 42.3 847.85 42.5 847.8 42.8 847.75 43.1 847.9 43.45
L 848.95 45.5
Q 849.25 46.3 850.2 45.9 856.55 43.25 860.5 39.4 864.5 35.5 866 30 866.05 29.85 866.15 29.6
M 877.05 24.3
Q 877.05 23.75 876.45 23.75
L 872.95 23.75
Q 872.75 23.75 872.55 23.9 872.4 24.05 872.4 24.3
L 872.4 44.9
Q 872.4 45.15 872.55 45.3 872.75 45.5 872.95 45.5
L 876.45 45.5
Q 877.05 45.5 877.05 44.95
L 877.05 37.2 882.4 37.2
Q 882.65 37.2 882.85 37.05 883 36.9 883 36.7
L 883 33.9
Q 883 33.7 882.85 33.55 882.65 33.35 882.4 33.35
L 877.05 33.35 877.05 24.3
M 908.15 48.8
Q 905.95 48.35 903.35 48.35 900.6 48.35 898.4 48.8 896.25 49.3 894.65 50.15 893.1 51.05 892.25 52.25 891.4 53.45 891.4 54.9 891.4 56.4 892.25 57.65 893.1 58.9 894.65 59.75 896.25 60.65 898.4 61.1 900.6 61.6 903.35 61.6 905.95 61.6 908.15 61.1 910.4 60.65 912 59.75 913.65 58.9 914.55 57.65 915.45 56.4 915.45 54.9 915.45 53.45 914.55 52.25 913.65 51.05 912 50.15 910.4 49.3 908.15 48.8
M 908.5 52.6
Q 909.5 53 910.1 53.6 910.7 54.25 910.7 55.05 910.7 55.85 910.1 56.4 909.5 56.95 908.5 57.35 907.5 57.75 906.2 57.95 904.85 58.1 903.35 58.1 901.8 58.1 900.5 57.95 899.2 57.75 898.2 57.35 897.2 56.95 896.7 56.4 896.15 55.85 896.15 55.05 896.15 54.25 896.7 53.6 897.2 53 898.2 52.6 899.15 52.15 900.45 51.95 901.75 51.75 903.35 51.75 904.85 51.75 906.2 51.95 907.5 52.15 908.5 52.6
M 895.7 34.05
Q 893.9 34.05 892.35 34.5 890.8 34.95 889.65 35.75 888.5 36.6 887.85 37.75 887.2 38.9 887.2 40.4 887.2 41.9 887.85 43.15 888.5 44.4 889.65 45.3 890.8 46.2 892.3 46.7 893.85 47.2 895.65 47.2 897.5 47.2 899.05 46.75 900.6 46.25 901.75 45.4 902.95 44.5 903.6 43.3 904.25 42.1 904.25 40.6 904.25 39.1 903.6 37.9 902.95 36.75 901.8 35.85 900.65 35 899.1 34.55 897.5 34.05 895.7 34.05
M 899.9 40.6
Q 899.9 42 898.75 42.9 897.6 43.75 895.7 43.75 893.8 43.75 892.65 42.9 891.5 42 891.5 40.6 891.5 39.2 892.65 38.4 893.8 37.6 895.7 37.6 897.6 37.6 898.75 38.4 899.9 39.2 899.9 40.6
M 906.55 29.85
Q 906.55 29.65 906.35 29.45 906.2 29.25 905.95 29.25
L 885.1 29.25
Q 884.9 29.25 884.65 29.45 884.45 29.7 884.45 29.85
L 884.45 32.1
Q 884.45 32.35 884.65 32.55 884.85 32.75 885.05 32.75
L 905.95 32.75
Q 906.2 32.75 906.35 32.6 906.55 32.4 906.55 32.15
L 906.55 29.85
M 901.25 24.35
Q 901 24.1 900.75 24.1
L 890.55 24.1
Q 890.4 24.1 890.15 24.3 889.95 24.45 889.95 24.7
L 889.95 27
Q 889.95 27.3 890.15 27.45 890.4 27.65 890.55 27.65
L 900.75 27.65
Q 901.05 27.65 901.25 27.4 901.4 27.2 901.4 26.95
L 901.4 24.75
Q 901.4 24.5 901.25 24.35
M 915.35 24.25
Q 915.35 24.05 915.15 23.9 915 23.7 914.8 23.7
L 911.25 23.7
Q 910.7 23.7 910.7 24.25
L 910.7 34.5 905.95 34.5
Q 905.8 34.5 905.6 34.6 905.45 34.75 905.45 34.95
L 905.45 37.7
Q 905.45 37.9 905.6 38 905.8 38.15 905.95 38.15
L 910.7 38.15 910.7 40.85 905.95 40.85
Q 905.8 40.85 905.6 41 905.45 41.1 905.45 41.3
L 905.45 44.05
Q 905.45 44.25 905.6 44.4 905.8 44.5 905.95 44.5
L 910.7 44.5 910.7 47.3
Q 910.7 47.55 910.85 47.7 911 47.9 911.25 47.9
L 914.8 47.9
Q 915 47.9 915.15 47.7 915.35 47.55 915.35 47.3
L 915.35 24.25 Z"/>
</g>

<path id="Layer0_0_1_STROKES" stroke="#86BA9E" stroke-width="3" stroke-linejoin="round" stroke-linecap="round" fill="none" d="
M 1.5 81.6
L 1.5 41.55 1.5 38 1.5 21.5
Q 1.5 14.15 4.2 9.5 8.85 1.5 21.5 1.5
L 35.55 1.5 37.55 1.5 119.5 1.5 141.5 1.5 224.5 1.5 244.5 1.5 281.5 1.5 346.5 1.5 374.5 1.5 421.45 1.5 448.45 1.5 480.5 1.5 497.45 1.5 524.45 1.5 561.45 1.5 672.45 1.5 674.45 1.5 691.5 1.5 701.45 1.5 739.5 1.5 750.45 1.5 824.4 1.5 841.4 1.5 864.4 1.5 878.8 1.5 1016.5 1.5
Q 1036.5 1.5 1036.5 21.5
L 1036.5 81.6 1036.45 393.8
Q 1035.3 411.6 1016.5 411.6
L 841.4 411.6 824.4 411.6 750.45 411.6 739.5 411.6 730.5 411.6 701.45 411.6 691.5 411.6 674.45 411.6 672.45 411.6 561.45 411.6 524.45 411.6 497.45 411.6 480.5 411.6 448.45 411.6 421.45 411.6 374.5 411.6 346.5 411.6 311.45 411.6 281.5 411.6 244.5 411.6 224.5 411.6 141.5 411.6 119.5 411.6 35.55 411.6 21.5 411.6
Q 2.65 411.6 1.6 393.8
L 1.5 101.6 1.5 95.95 1.5 81.6 Z"/>

<path id="Layer0_0_2_STROKES" stroke="#86BA9E" stroke-width="2" stroke-linejoin="round" stroke-linecap="round" fill="none" d="
M 1.5 81.6
L 35.55 81.6 119.5 81.6 141.5 81.6 224.5 81.6 244.5 81.6 281.5 81.6 346.5 81.6 346.5 1.5
M 691.5 81.6
L 701.45 81.6 730.5 81.6 739.5 81.6 750.45 81.6 824.4 81.6 841.4 81.6 864.4 81.6 878.8 81.6 1036.5 81.6
M 346.5 81.6
L 374.5 81.6 421.45 81.6 448.45 81.6 480.5 81.6 497.45 81.6 524.45 81.6 561.45 81.6 672.45 81.6 674.45 81.6 691.5 81.6 691.5 1.5
M 691.5 81.6
L 691.5 411.6
M 346.5 81.6
L 346.5 411.6"/>
</defs>

<g transform="matrix( 1, 0, 0, 1, 0,0) ">
<use xlink:href="#Layer0_0_FILL"/>

<use xlink:href="#Layer0_0_1_STROKES"/>

<use xlink:href="#Layer0_0_2_STROKES"/>
</g>
</svg>
