
<svg xmlns="http://www.w3.org/2000/svg" version="1.1" xmlns:xlink="http://www.w3.org/1999/xlink" preserveAspectRatio="none" x="0px" y="0px" width="1280px" height="720px" viewBox="0 0 1280 720">
<defs>
<g id="Layer0_0_FILL">
<path fill="#4BAEF3" stroke="none" d="
M 800.7 308.65
L 800.7 328.65
Q 800.7 339.15 811.2 339.15
L 835 339.15
Q 845.5 339.15 845.5 328.65
L 845.5 308.65
Q 845.5 298.15 835 298.15
L 811.2 298.15
Q 800.7 298.15 800.7 308.65
M 830.8 308.65
Q 830.9 308.85 830.9 309.15
L 830.9 327.15
Q 830.9 327.75 830.5 328 830.3 328.1 830.05 328.15 829.75 328.2 829.45 328.2 829.2 328.2 829 328.15 828.75 328.1 828.6 328 828.2 327.75 828.2 327.15
L 828.2 309.15
Q 828.2 308.85 828.3 308.65 828.4 308.45 828.6 308.3 828.75 308.2 829 308.15 829.2 308.05 829.45 308.05 829.75 308.05 830.05 308.15 830.3 308.2 830.5 308.3 830.7 308.45 830.8 308.65
M 826.5 308.55
Q 826.8 308.6 827 308.7 827.4 308.9 827.4 309.55
L 827.4 326.55
Q 827.4 326.8 827.3 327.05 827.2 327.25 827 327.4 826.8 327.5 826.5 327.6 826.25 327.65 825.95 327.65 825.7 327.65 825.5 327.6 825.25 327.5 825.05 327.4 824.85 327.25 824.75 327.05 824.65 326.8 824.65 326.55
L 824.65 320 822.5 320
Q 822.35 320.3 822.2 320.6 822.05 320.85 821.9 321.1 821.25 321.95 820.4 322.4 819.55 322.9 818.45 322.9 817.95 322.9 817.5 322.75 817 322.65 816.55 322.4 816.15 322.2 815.8 321.85 815.45 321.55 815.15 321.1 814.85 320.65 814.6 320.15 814.35 319.65 814.2 319 814 318.4 813.95 317.7 813.85 317 813.85 316.2 813.85 315.4 813.95 314.7 814 314 814.2 313.35 814.35 312.75 814.6 312.25 814.85 311.75 815.15 311.3 815.45 310.9 815.8 310.55 816.15 310.2 816.55 309.95 817 309.75 817.5 309.6 817.95 309.5 818.45 309.5 819.55 309.5 820.4 309.95 820.8 310.2 821.2 310.55 821.6 310.9 821.9 311.3 822.05 311.5 822.15 311.75 822.3 312 822.4 312.25
L 824.65 312.25 824.65 309.55
Q 824.65 308.9 825.05 308.7 825.25 308.6 825.5 308.55 825.7 308.45 825.95 308.45 826.25 308.45 826.5 308.55
M 823.05 314.8
Q 823.05 315.15 823.1 315.5 823.1 315.85 823.1 316.2 823.1 316.5 823.1 316.8 823.1 317.1 823.05 317.4
L 824.65 317.4 824.65 314.8 823.05 314.8
M 817.65 312.35
Q 817.3 312.65 817.05 313.15 816.55 314.25 816.55 316.2 816.55 317.15 816.65 317.9 816.8 318.65 817.05 319.2 817.3 319.75 817.65 320 818.05 320.3 818.5 320.3 818.9 320.3 819.25 320 819.6 319.75 819.9 319.2 820.15 318.65 820.25 317.9 820.4 317.15 820.4 316.2 820.4 315.25 820.25 314.45 820.15 313.7 819.9 313.15 819.6 312.65 819.25 312.35 818.9 312.1 818.5 312.1 818.05 312.1 817.65 312.35 Z"/>

<path fill="#FFFFFF" stroke="none" d="
M 827 308.7
Q 826.8 308.6 826.5 308.55 826.25 308.45 825.95 308.45 825.7 308.45 825.5 308.55 825.25 308.6 825.05 308.7 824.65 308.9 824.65 309.55
L 824.65 312.25 822.4 312.25
Q 822.3 312 822.15 311.75 822.05 311.5 821.9 311.3 821.6 310.9 821.2 310.55 820.8 310.2 820.4 309.95 819.55 309.5 818.45 309.5 817.95 309.5 817.5 309.6 817 309.75 816.55 309.95 816.15 310.2 815.8 310.55 815.45 310.9 815.15 311.3 814.85 311.75 814.6 312.25 814.35 312.75 814.2 313.35 814 314 813.95 314.7 813.85 315.4 813.85 316.2 813.85 317 813.95 317.7 814 318.4 814.2 319 814.35 319.65 814.6 320.15 814.85 320.65 815.15 321.1 815.45 321.55 815.8 321.85 816.15 322.2 816.55 322.4 817 322.65 817.5 322.75 817.95 322.9 818.45 322.9 819.55 322.9 820.4 322.4 821.25 321.95 821.9 321.1 822.05 320.85 822.2 320.6 822.35 320.3 822.5 320
L 824.65 320 824.65 326.55
Q 824.65 326.8 824.75 327.05 824.85 327.25 825.05 327.4 825.25 327.5 825.5 327.6 825.7 327.65 825.95 327.65 826.25 327.65 826.5 327.6 826.8 327.5 827 327.4 827.2 327.25 827.3 327.05 827.4 326.8 827.4 326.55
L 827.4 309.55
Q 827.4 308.9 827 308.7
M 817.05 313.15
Q 817.3 312.65 817.65 312.35 818.05 312.1 818.5 312.1 818.9 312.1 819.25 312.35 819.6 312.65 819.9 313.15 820.15 313.7 820.25 314.45 820.4 315.25 820.4 316.2 820.4 317.15 820.25 317.9 820.15 318.65 819.9 319.2 819.6 319.75 819.25 320 818.9 320.3 818.5 320.3 818.05 320.3 817.65 320 817.3 319.75 817.05 319.2 816.8 318.65 816.65 317.9 816.55 317.15 816.55 316.2 816.55 314.25 817.05 313.15
M 823.1 315.5
Q 823.05 315.15 823.05 314.8
L 824.65 314.8 824.65 317.4 823.05 317.4
Q 823.1 317.1 823.1 316.8 823.1 316.5 823.1 316.2 823.1 315.85 823.1 315.5
M 830.9 309.15
Q 830.9 308.85 830.8 308.65 830.7 308.45 830.5 308.3 830.3 308.2 830.05 308.15 829.75 308.05 829.45 308.05 829.2 308.05 829 308.15 828.75 308.2 828.6 308.3 828.4 308.45 828.3 308.65 828.2 308.85 828.2 309.15
L 828.2 327.15
Q 828.2 327.75 828.6 328 828.75 328.1 829 328.15 829.2 328.2 829.45 328.2 829.75 328.2 830.05 328.15 830.3 328.1 830.5 328 830.9 327.75 830.9 327.15
L 830.9 309.15 Z"/>
</g>

<g id="Layer0_1_FILL">
<path fill="#D4EDFB" stroke="none" d="
M 190.6 22.7
Q 185 13 175.35 7.3 165.4 1.45 153.8 1.45
L 153.8 43.95 190.6 22.7 Z"/>
</g>

<g id="Layer0_6_MEMBER_0_FILL">
<path fill="#332D2B" stroke="none" d="
M 155.2 1.45
Q 155.2 0.85 154.8 0.45 154.4 0 153.8 0 153.2 0 152.8 0.45 152.4 0.85 152.4 1.45 152.4 2 152.8 2.45 153.2 2.85 153.8 2.85 154.4 2.85 154.8 2.45 155.2 2 155.2 1.45 Z"/>
</g>

<g id="Layer0_6_MEMBER_1_FILL">
<path fill="#332D2B" stroke="none" d="
M 117.7 21.45
Q 117.15 21.2 116.6 21.35 116.05 21.5 115.75 22 115.45 22.5 115.6 23.05 115.75 23.65 116.25 23.9 116.8 24.2 117.35 24.05 117.9 23.9 118.2 23.4 118.5 22.9 118.35 22.35 118.2 21.75 117.7 21.45 Z"/>
</g>

<g id="Layer0_6_MEMBER_2_FILL">
<path fill="#332D2B" stroke="none" d="
M 116.25 64
Q 115.75 64.3 115.6 64.85 115.45 65.4 115.75 65.9 116.05 66.45 116.6 66.6 117.2 66.75 117.7 66.45 118.2 66.15 118.35 65.6 118.5 65 118.2 64.5 117.9 64 117.35 63.85 116.75 63.7 116.25 64 Z"/>
</g>

<g id="Layer0_6_MEMBER_3_FILL">
<path fill="#332D2B" stroke="none" d="
M 152.4 86.45
Q 152.4 87.05 152.8 87.5 153.2 87.9 153.8 87.9 154.4 87.9 154.8 87.5 155.2 87.05 155.2 86.45 155.2 85.9 154.8 85.45 154.4 85.05 153.8 85.05 153.2 85.05 152.8 85.45 152.4 85.9 152.4 86.45 Z"/>
</g>

<g id="Layer0_6_MEMBER_4_FILL">
<path fill="#332D2B" stroke="none" d="
M 152.6 44.65
Q 152.85 45.15 153.45 45.3 154 45.45 154.5 45.2 155 44.9 155.15 44.3 155.3 43.75 155.05 43.25 154.75 42.75 154.15 42.6 153.6 42.45 153.1 42.75 152.6 43 152.45 43.6 152.3 44.15 152.6 44.65 Z"/>
</g>

<g id="Layer0_6_MEMBER_5_FILL">
<path fill="#332D2B" stroke="none" d="
M 189.9 66.45
Q 190.4 66.75 191 66.6 191.55 66.45 191.85 65.9 192.15 65.4 192 64.85 191.85 64.3 191.35 64 190.85 63.7 190.25 63.85 189.7 64 189.4 64.5 189.1 65 189.25 65.6 189.4 66.15 189.9 66.45 Z"/>
</g>

<g id="Layer0_6_MEMBER_6_FILL">
<path fill="#332D2B" stroke="none" d="
M 191.35 23.9
Q 191.85 23.65 192 23.05 192.15 22.5 191.85 22 191.55 21.5 191 21.35 190.45 21.2 189.9 21.45 189.4 21.75 189.25 22.3 189.1 22.9 189.4 23.4 189.7 23.9 190.25 24.05 190.8 24.2 191.35 23.9 Z"/>
</g>

<path id="Layer0_2_1_STROKES" stroke="#00A3E9" stroke-width="2" stroke-linejoin="miter" stroke-linecap="butt" stroke-miterlimit="10" fill="none" d="
M 966.6 302.5
L 966.6 557.5"/>

<path id="Layer0_3_1_STROKES" stroke="#00A3E9" stroke-width="2" stroke-linejoin="miter" stroke-linecap="butt" stroke-miterlimit="10" fill="none" d="
M 856.2 366.25
L 1077.15 493.75"/>

<path id="Layer0_4_1_STROKES" stroke="#00A3E9" stroke-width="2" stroke-linejoin="miter" stroke-linecap="butt" stroke-miterlimit="10" fill="none" d="
M 1077.15 366.25
L 856.2 493.75"/>

<path id="Layer0_5_1_STROKES" stroke="#EA5B70" stroke-width="2" stroke-linejoin="round" stroke-linecap="butt" fill="none" d="
M 1089.075 430.075
Q 1089.099609375 482.95 1054.3500000000001 520.225 1019.5623046875 557.5 966.6 557.5 913.8 557.5 876.45 520.15 839.0999999999999 482.95 839.0999999999999 430 839.0999999999999 377.2 876.45 339.84999999999997 913.8 302.5 966.6 302.5 1019.5623046875 302.5 1054.3500000000001 339.84999999999997 1089.099609375 377.2 1089.075 430.075 Z"/>
</defs>

<g transform="matrix( 1, 0, 0, 1, 0,0) ">
<use xlink:href="#Layer0_0_FILL"/>
</g>

<g transform="matrix( 3, 0, 0, 3, 505.2,298.15) ">
<use xlink:href="#Layer0_1_FILL"/>
</g>

<g transform="matrix( 3, 0, 0, 3, 505.2,298.15) ">
<use xlink:href="#Layer0_2_1_STROKES" transform="matrix( 0.3333282470703125, 0, 0, 0.3333282470703125, -168.4,-99.35) "/>
</g>

<g transform="matrix( 3, 0, 0, 3, 505.2,298.15) ">
<use xlink:href="#Layer0_3_1_STROKES" transform="matrix( 0.3333282470703125, 0, 0, 0.3333282470703125, -168.4,-99.35) "/>
</g>

<g transform="matrix( 3, 0, 0, 3, 505.2,298.15) ">
<use xlink:href="#Layer0_4_1_STROKES" transform="matrix( 0.3333282470703125, 0, 0, 0.3333282470703125, -168.4,-99.35) "/>
</g>

<g transform="matrix( 3, 0, 0, 3, 505.2,298.15) ">
<use xlink:href="#Layer0_5_1_STROKES" transform="matrix( 0.3333282470703125, 0, 0, 0.3333282470703125, -168.4,-99.35) "/>
</g>

<g transform="matrix( 2.9996337890625, 0, 0, 2.9996337890625, 505.2,298.15) ">
<use xlink:href="#Layer0_6_MEMBER_0_FILL"/>
</g>

<g transform="matrix( 2.9996337890625, 0, 0, 2.9996337890625, 505.2,298.15) ">
<use xlink:href="#Layer0_6_MEMBER_1_FILL"/>
</g>

<g transform="matrix( 2.9996337890625, 0, 0, 2.9996337890625, 505.2,298.15) ">
<use xlink:href="#Layer0_6_MEMBER_2_FILL"/>
</g>

<g transform="matrix( 2.9996337890625, 0, 0, 2.9996337890625, 505.2,298.15) ">
<use xlink:href="#Layer0_6_MEMBER_3_FILL"/>
</g>

<g transform="matrix( 2.9996337890625, 0, 0, 2.9996337890625, 505.2,298.15) ">
<use xlink:href="#Layer0_6_MEMBER_4_FILL"/>
</g>

<g transform="matrix( 2.9996337890625, 0, 0, 2.9996337890625, 505.2,298.15) ">
<use xlink:href="#Layer0_6_MEMBER_5_FILL"/>
</g>

<g transform="matrix( 2.9996337890625, 0, 0, 2.9996337890625, 505.2,298.15) ">
<use xlink:href="#Layer0_6_MEMBER_6_FILL"/>
</g>
</svg>
