
<svg xmlns="http://www.w3.org/2000/svg" version="1.1" xmlns:xlink="http://www.w3.org/1999/xlink" preserveAspectRatio="none" x="0px" y="0px" width="1280px" height="720px" viewBox="0 0 1280 720">
<defs>
<g id="Layer0_0_FILL">
<path fill="#1E1E1E" stroke="none" d="
M 816.75 193.1
Q 816.6 193.2 816.6 193.6
L 816.6 225.85
Q 816.6 226.25 816.75 226.4 816.9 226.5 817.3 226.5
L 820.85 226.5
Q 821.2 226.5 821.35 226.4 821.45 226.25 821.45 225.85
L 821.45 209.55 825.8 209.55
Q 826.15 209.55 826.3 209.4 826.5 209.3 826.5 208.85
L 826.5 206.2
Q 826.5 205.75 826.3 205.6 826.15 205.5 825.8 205.55
L 821.45 205.55 821.45 193.6
Q 821.45 193.2 821.35 193.1 821.2 192.95 820.85 192.95
L 817.3 192.95
Q 816.9 192.95 816.75 193.1
M 812.3 195.7
Q 812.1 195.55 811.75 195.55
L 799.1 195.55
Q 797.7 195.5 797.2 196 796.7 196.45 796.7 197.8
L 796.7 214.7
Q 796.7 216.1 797.35 216.55 797.95 217.05 799.2 217 800.75 217.1 802.7 217.05 804.65 217 806.75 216.85 808.85 216.7 810.8 216.45 812.75 216.2 814.2 215.85 814.6 215.75 814.75 215.6 814.9 215.45 814.8 215.05
L 814.4 212.5
Q 814.3 212.2 814.2 212.1 814.05 212 813.65 212.05 811.8 212.4 809.8 212.6 807.8 212.8 805.8 212.9 803.85 213 802.15 212.95 801.85 212.95 801.75 212.8 801.6 212.7 801.6 212.4
L 801.6 200.05
Q 801.55 199.85 801.65 199.7 801.75 199.55 802.05 199.55
L 811.75 199.55
Q 812.1 199.55 812.3 199.45 812.45 199.35 812.45 198.95
L 812.45 196.2
Q 812.45 195.8 812.3 195.7
M 511.45 193.6
Q 511.45 193.2 511.35 193.1 511.2 192.95 510.85 192.95
L 507.3 192.95
Q 506.9 192.95 506.75 193.1 506.6 193.2 506.6 193.6
L 506.6 225.85
Q 506.6 226.25 506.75 226.4 506.9 226.5 507.3 226.5
L 510.85 226.5
Q 511.2 226.5 511.35 226.4 511.45 226.25 511.45 225.85
L 511.45 209.55 515.8 209.55
Q 516.15 209.55 516.3 209.45 516.5 209.3 516.5 208.9
L 516.5 206.25
Q 516.5 205.75 516.3 205.65 516.15 205.55 515.8 205.55
L 511.45 205.55 511.45 193.6
M 491.8 195.8
Q 491.8 195.05 491.05 195.05
L 487.6 195.05
Q 487.25 195.05 487.1 195.2 486.95 195.4 486.95 195.8
L 486.95 214.2
Q 486.9 215.55 487.5 216.15 488.15 216.75 489.6 216.8 491 216.9 492.8 216.85 494.65 216.85 496.75 216.65 498.8 216.5 500.85 216.2 502.85 215.9 504.65 215.5 504.95 215.4 505.1 215.25 505.25 215.05 505.2 214.8
L 504.7 211.9
Q 504.6 211.7 504.5 211.6 504.35 211.45 503.95 211.55 502.25 211.95 500.2 212.2 498.2 212.5 496.2 212.65 494.2 212.75 492.6 212.7 492.2 212.65 492 212.45 491.8 212.25 491.8 211.9
L 491.8 195.8
M 198.75 193.1
Q 198.6 193.2 198.6 193.6
L 198.6 225.85
Q 198.6 226.25 198.75 226.4 198.9 226.5 199.3 226.5
L 202.85 226.5
Q 203.2 226.5 203.35 226.4 203.45 226.25 203.45 225.85
L 203.45 209.55 207.8 209.55
Q 208.15 209.55 208.3 209.4 208.5 209.3 208.5 208.85
L 208.5 206.2
Q 208.5 205.75 208.3 205.6 208.15 205.5 207.8 205.55
L 203.45 205.55 203.45 193.6
Q 203.45 193.2 203.35 193.1 203.2 192.95 202.85 192.95
L 199.3 192.95
Q 198.9 192.95 198.75 193.1
M 178.7 195.65
Q 178.55 195.8 178.6 196.2
L 178.6 198.8
Q 178.55 199.2 178.7 199.35 178.8 199.5 179.25 199.5
L 189 199.5
Q 189.65 199.5 189.55 200.25 188.9 204.85 185.85 208.75 182.8 212.6 177.5 215.6 177.2 215.8 177.15 216.1 177.05 216.4 177.3 216.75
L 178.95 219.2
Q 179.2 219.55 179.45 219.6 179.75 219.6 180.25 219.3 184.6 216.9 187.75 213.65 190.85 210.4 192.65 206.55 194.45 202.7 194.75 198.5 194.9 196.95 194.3 196.25 193.7 195.5 192 195.5
L 179.25 195.5
Q 178.85 195.5 178.7 195.65 Z"/>
</g>

<path id="Layer0_1_MEMBER_0_1_STROKES" stroke="#CCCCCC" stroke-width="3" stroke-linejoin="round" stroke-linecap="round" fill="none" d="
M 120.56716232299806 554.75
L 1159.5123939514158 554.75"/>

<path id="Layer0_1_MEMBER_1_1_STROKES" stroke="#CCCCCC" stroke-width="3" stroke-linejoin="round" stroke-linecap="round" fill="none" d="
M 120.56716232299806 616.75
L 1159.5123939514158 616.75"/>
</defs>

<g transform="matrix( 1, 0, 0, 1, 0,0) ">
<use xlink:href="#Layer0_0_FILL"/>
</g>

<g transform="matrix( 0.9332122802734375, 0, 0, 1, 21.6,-68.35) ">
<use xlink:href="#Layer0_1_MEMBER_0_1_STROKES" transform="matrix( 1.071563720703125, 0, 0, 1, -23.1,68.35) "/>
</g>

<g transform="matrix( 0.9332122802734375, 0, 0, 1, 21.6,-6.35) ">
<use xlink:href="#Layer0_1_MEMBER_1_1_STROKES" transform="matrix( 1.071563720703125, 0, 0, 1, -23.1,6.35) "/>
</g>
</svg>
