
<svg xmlns="http://www.w3.org/2000/svg" version="1.1" xmlns:xlink="http://www.w3.org/1999/xlink" preserveAspectRatio="none" x="0px" y="0px" width="1280px" height="720px" viewBox="0 0 1280 720">
<defs>
<g id="Layer0_0_FILL">
<path fill="#1E1E1E" stroke="none" d="
M 834.15 259
Q 834.15 258.6 833.95 258.5 833.8 258.35 833.45 258.35
L 820.8 258.35
Q 819.35 258.35 818.9 258.8 818.4 259.2 818.4 260.6
L 818.4 277.5
Q 818.4 278.95 819.05 279.35 819.65 279.8 820.9 279.8 822.4 279.9 824.4 279.85 826.35 279.8 828.45 279.65 830.55 279.5 832.5 279.25 834.45 279 835.9 278.65 836.3 278.5 836.45 278.4 836.6 278.25 836.5 277.85
L 836.1 275.3
Q 836 275 835.9 274.9 835.75 274.8 835.35 274.85 834 275.1 832.5 275.3 831 275.5 829.5 275.6 827.95 275.7 826.55 275.75 825.1 275.8 823.85 275.75 823.3 275.75 823.3 275.2
L 823.3 262.85
Q 823.3 262.65 823.35 262.5 823.45 262.35 823.75 262.35
L 833.45 262.35
Q 833.8 262.35 833.95 262.25 834.15 262.15 834.15 261.75
L 834.15 259
M 843.05 255.9
Q 842.95 255.75 842.55 255.75
L 839 255.75
Q 838.6 255.75 838.45 255.9 838.3 256 838.3 256.4
L 838.3 288.65
Q 838.3 289.05 838.45 289.2 838.6 289.3 839 289.3
L 842.55 289.3
Q 842.95 289.3 843.05 289.2 843.15 289.05 843.15 288.65
L 843.15 272.35 847.5 272.35
Q 847.8 272.35 848 272.2 848.2 272.1 848.2 271.65
L 848.2 269
Q 848.2 268.5 848 268.4 847.8 268.35 847.5 268.35
L 843.15 268.35 843.15 256.4
Q 843.15 256 843.05 255.9
M 442.45 255.9
Q 442.3 256 442.3 256.4
L 442.3 288.65
Q 442.3 289.05 442.45 289.2 442.6 289.3 443 289.3
L 446.55 289.3
Q 446.95 289.3 447.05 289.2 447.15 289.05 447.15 288.65
L 447.15 272.35 451.5 272.35
Q 451.8 272.35 452 272.25 452.2 272.1 452.2 271.7
L 452.2 269.05
Q 452.2 268.55 452 268.45 451.8 268.35 451.5 268.35
L 447.15 268.35 447.15 256.4
Q 447.15 256 447.05 255.9 446.95 255.75 446.55 255.75
L 443 255.75
Q 442.6 255.75 442.45 255.9
M 427.5 258.6
Q 427.5 257.85 426.75 257.85
L 423.3 257.85
Q 422.65 257.85 422.65 258.6
L 422.65 277
Q 422.65 278.4 423.2 278.95 423.8 279.5 425.3 279.6 426.65 279.7 428.5 279.7 430.4 279.65 432.45 279.45 434.5 279.3 436.55 279 438.6 278.7 440.35 278.3 440.95 278.15 440.9 277.6
L 440.4 274.7
Q 440.3 274.55 440.2 274.4 440.05 274.25 439.65 274.35 438.4 274.65 436.9 274.85 435.45 275.1 433.9 275.25 432.4 275.4 430.95 275.5 429.5 275.55 428.3 275.5 427.5 275.45 427.5 274.7
L 427.5 258.6
M 144 272.2
Q 144.2 272.1 144.2 271.65
L 144.2 269
Q 144.2 268.5 144 268.4 143.8 268.35 143.5 268.35
L 139.15 268.35 139.15 256.4
Q 139.15 256 139.05 255.9 138.95 255.75 138.55 255.75
L 135 255.75
Q 134.6 255.75 134.45 255.9 134.3 256 134.3 256.4
L 134.3 288.65
Q 134.3 289.05 134.45 289.2 134.6 289.3 135 289.3
L 138.55 289.3
Q 138.95 289.3 139.05 289.2 139.15 289.05 139.15 288.65
L 139.15 272.35 143.5 272.35
Q 143.8 272.35 144 272.2
M 114.95 258.3
Q 114.55 258.3 114.4 258.45 114.3 258.6 114.3 259
L 114.3 261.6
Q 114.3 262 114.4 262.15 114.5 262.3 114.95 262.3
L 124.7 262.3
Q 125.35 262.3 125.25 263.05 124.6 267.65 121.55 271.5 118.5 275.4 113.2 278.4 112.9 278.55 112.85 278.9 112.75 279.2 113 279.55
L 114.65 282
Q 114.9 282.35 115.15 282.35 115.45 282.35 115.95 282.1 119.15 280.3 121.75 278 124.35 275.7 126.25 273.05 128.1 270.4 129.15 267.45 130.25 264.45 130.45 261.3 130.55 259.75 130 259.05 129.45 258.3 127.7 258.3
L 114.95 258.3 Z"/>
</g>

<path id="Layer0_1_1_STROKES" stroke="#CCCCCC" stroke-width="3" stroke-linejoin="round" stroke-linecap="round" fill="none" d="
M 120.56716232299806 576.75
L 1159.5123939514158 576.75"/>

<path id="Layer0_2_1_STROKES" stroke="#CCCCCC" stroke-width="3" stroke-linejoin="round" stroke-linecap="round" fill="none" d="
M 120.56716232299806 638.75
L 1159.5123939514158 638.75"/>

<path id="Layer0_3_MEMBER_0_1_STROKES" stroke="#E50182" stroke-width="2" stroke-linejoin="miter" stroke-linecap="butt" stroke-miterlimit="4" fill="none" d="
M 978.75 323
Q 1007.501171875 345.8265625 1034.3 323.75"/>

<path id="Layer0_3_MEMBER_1_1_STROKES" stroke="#332D2B" stroke-width="3" stroke-linejoin="round" stroke-linecap="round" fill="none" d="
M 842.15 437.05
L 1006.2 300.05 1168.75 437.05"/>

<path id="Layer0_4_MEMBER_0_1_STROKES" stroke="#E50182" stroke-width="2" stroke-linejoin="miter" stroke-linecap="butt" stroke-miterlimit="4" fill="none" d="
M 534.5 310.35
Q 554.715234375 320.7474609375 572.95 310.35"/>

<path id="Layer0_4_MEMBER_1_1_STROKES" stroke="#332D2B" stroke-width="3" stroke-linejoin="round" stroke-linecap="round" fill="none" d="
M 455.15 462.6
L 553.15 274.55 652.2 463.6"/>

<path id="Layer0_5_MEMBER_0_1_STROKES" stroke="#E50182" stroke-width="2" stroke-linejoin="miter" stroke-linecap="butt" stroke-miterlimit="4" fill="none" d="
M 189.3 308.7
Q 200.575 313.7697265625 211.85 309.05"/>

<path id="Layer0_5_MEMBER_1_1_STROKES" stroke="#332D2B" stroke-width="3" stroke-linejoin="round" stroke-linecap="round" fill="none" d="
M 145.55 470.1
L 200.55 267.05 255.55 471.6"/>
</defs>

<g transform="matrix( 1, 0, 0, 1, 0,0) ">
<use xlink:href="#Layer0_0_FILL"/>
</g>

<g transform="matrix( 0.9332122802734375, 0, 0, 1, 21.6,-46.35) ">
<use xlink:href="#Layer0_1_1_STROKES" transform="matrix( 1.071563720703125, 0, 0, 1, -23.1,46.3) "/>
</g>

<g transform="matrix( 0.9332122802734375, 0, 0, 1, 21.6,15.65) ">
<use xlink:href="#Layer0_2_1_STROKES" transform="matrix( 1.071563720703125, 0, 0, 1, -23.1,-15.65) "/>
</g>

<g transform="matrix( 1, 0, 0, 1, 1.7,0.75) ">
<use xlink:href="#Layer0_3_MEMBER_0_1_STROKES"/>
</g>

<g transform="matrix( 1, 0, 0, 1, 1.7,0.75) ">
<use xlink:href="#Layer0_3_MEMBER_1_1_STROKES"/>
</g>

<g transform="matrix( 1, 0, 0, 1, 1.7,0.25) ">
<use xlink:href="#Layer0_4_MEMBER_0_1_STROKES"/>
</g>

<g transform="matrix( 1, 0, 0, 1, 1.7,0.25) ">
<use xlink:href="#Layer0_4_MEMBER_1_1_STROKES"/>
</g>

<g transform="matrix( 1, 0, 0, 1, 1.7,0) ">
<use xlink:href="#Layer0_5_MEMBER_0_1_STROKES"/>
</g>

<g transform="matrix( 1, 0, 0, 1, 1.7,0) ">
<use xlink:href="#Layer0_5_MEMBER_1_1_STROKES"/>
</g>
</svg>
