<?xml version="1.0" encoding="utf-8"?>
<!-- Generator: Adobe Illustrator 23.1.0, SVG Export Plug-In . SVG Version: 6.00 Build 0)  -->
<svg version="1.1" id="레이어_1" xmlns="http://www.w3.org/2000/svg" xmlns:xlink="http://www.w3.org/1999/xlink" x="0px"
	 y="0px" width="401px" height="124px" viewBox="0 0 401 124" style="enable-background:new 0 0 401 124;" xml:space="preserve">
<g>
	<path style="fill:#DA8593;" d="M59.7,16.6L46.5,2l-7,18.9c2.3,1.3,4.9,2.1,7.7,2.1C52.4,23,56.9,20.5,59.7,16.6"/>
	<path style="fill:#DDB726;" d="M8.5,104.4L2,121.9h18.7c0.1-0.7,0.2-1.5,0.2-2.2C20.9,112.1,15.6,105.8,8.5,104.4"/>
	<path style="fill:#65BAE8;" d="M140.1,105.4c-4.5,2.7-7.6,7.6-7.6,13.3c0,1.1,0.1,2.2,0.3,3.2h22.2L140.1,105.4z"/>
	<polygon style="fill:none;stroke:#000000;stroke-width:2;stroke-linejoin:round;" points="46.5,2 155.1,121.9 2,121.9 	"/>
	<path style="fill:#DA8593;" d="M345,103.5l-6.9,18.4l-13.5-15c1.6-2.1,3.8-3.7,6.4-4.8C335.8,100.3,341,100.9,345,103.5"/>
	<path style="fill:#DDB726;" d="M344.6,104.5l-6.5,17.4h18.7c0.1-0.7,0.2-1.5,0.2-2.2C357.1,112.2,351.7,105.9,344.6,104.5"/>
	<path style="fill:#65BAE8;" d="M323.3,105.4c-4.5,2.7-7.6,7.6-7.6,13.3c0,1.1,0.1,2.2,0.3,3.2h22.2L323.3,105.4z"/>
	<path style="fill:none;stroke:#000000;stroke-width:2;stroke-linejoin:round;" d="M279.4,57l-33.6,21.3v43.7h92.4L279.4,57z
		 M359.5,64.5l-21.3,57.4h60.7V78.2L359.5,64.5z M364,52.5l-25.9,69.4l-44.7-49.4L325,45.2L364,52.5z"/>
</g>
</svg>
