<?xml version="1.0" encoding="utf-8"?>
<!-- Generator: Adobe Illustrator 24.2.3, SVG Export Plug-In . SVG Version: 6.00 Build 0)  -->
<svg version="1.1" id="Layer_1" xmlns="http://www.w3.org/2000/svg" xmlns:xlink="http://www.w3.org/1999/xlink" x="0px" y="0px"
	 viewBox="0 0 100 100" style="enable-background:new 0 0 100 100;" xml:space="preserve">
<style type="text/css">
	.st0{fill:#FFFFFF;}
	.st1{fill:#C1DEF5;stroke:#0086CD;stroke-width:0.8;stroke-linejoin:bevel;}
</style>
<rect class="st0" width="100" height="100"/>
<circle class="st1" cx="-353.4" cy="75" r="5.9"/>
<circle class="st1" cx="-353.4" cy="99" r="5.9"/>
<circle class="st1" cx="-341.1" cy="87" r="5.9"/>
<ellipse transform="matrix(0.1602 -0.9871 0.9871 0.1602 -392.788 -287.6669)" class="st1" cx="-365.4" cy="87" rx="5.9" ry="5.9"/>
<g>
	<circle class="st1" cx="49.9" cy="14" r="5.9"/>
	<circle class="st1" cx="49.9" cy="86" r="5.9"/>
	<circle class="st1" cx="62.1" cy="26" r="5.9"/>
	<circle class="st1" cx="62.1" cy="74" r="5.9"/>
	<circle class="st1" cx="74.4" cy="38" r="5.9"/>
	<circle class="st1" cx="74.4" cy="62" r="5.9"/>
	<circle class="st1" cx="86.9" cy="50" r="5.9"/>
	<circle class="st1" cx="37.9" cy="26" r="5.9"/>
	<circle class="st1" cx="37.9" cy="74" r="5.9"/>
	<circle class="st1" cx="25.4" cy="38" r="5.9"/>
	<circle class="st1" cx="25.4" cy="62" r="5.9"/>
	<circle class="st1" cx="13.1" cy="50" r="5.9"/>
</g>
<circle class="st1" cx="-296.3" cy="74" r="5.9"/>
<circle class="st1" cx="-296.3" cy="98" r="5.9"/>
<circle class="st1" cx="-283.9" cy="62" r="5.9"/>
<circle class="st1" cx="-283.9" cy="110" r="5.9"/>
<circle class="st1" cx="-271.6" cy="74" r="5.9"/>
<circle class="st1" cx="-271.6" cy="98" r="5.9"/>
<circle class="st1" cx="-259.3" cy="86" r="5.9"/>
<circle class="st1" cx="-308.3" cy="86" r="5.9"/>
</svg>
