
<svg xmlns="http://www.w3.org/2000/svg" version="1.1" xmlns:xlink="http://www.w3.org/1999/xlink" preserveAspectRatio="none" x="0px" y="0px" width="1280px" height="70px" viewBox="0 0 1280 70">
<defs>
<g id="Layer0_0_FILL">
<path fill="#FFFFFF" stroke="none" d="
M 1171.7 20
Q 1171.7 5 1156.7 5
L 1005.7 5
Q 990.7 5 990.7 20
L 990.7 50.05
Q 990.7 65.05 1005.7 65.05
L 1156.7 65.05
Q 1171.7 65.05 1171.7 50.05
L 1171.7 20 Z"/>
</g>

<path id="Layer0_0_1_STROKES" stroke="#DBDBDB" stroke-width="3" stroke-linejoin="round" stroke-linecap="round" fill="none" d="
M 1005.7 5
L 1156.7 5
Q 1171.7 5 1171.7 20
L 1171.7 50.05
Q 1171.7 65.05 1156.7 65.05
L 1005.7 65.05
Q 990.7 65.05 990.7 50.05
L 990.7 20
Q 990.7 5 1005.7 5 Z"/>
</defs>

<g transform="matrix( 1, 0, 0, 1, 0,0) ">
<use xlink:href="#Layer0_0_FILL"/>

<use xlink:href="#Layer0_0_1_STROKES"/>
</g>
</svg>
