
<svg xmlns="http://www.w3.org/2000/svg" version="1.1" xmlns:xlink="http://www.w3.org/1999/xlink" preserveAspectRatio="none" x="0px" y="0px" width="111px" height="52px" viewBox="0 0 111 52">
<defs>
<radialGradient id="Gradient_1" gradientUnits="userSpaceOnUse" cx="0" cy="0" r="53.625" fx="0" fy="0" gradientTransform="matrix( 1, 0, 0, 0.8442890442890443, 55.5,26) " spreadMethod="pad">
<stop  offset="0%" stop-color="#FFD9E9"/>

<stop  offset="100%" stop-color="#FFA6C8"/>
</radialGradient>

<g id="Layer0_0_FILL">
<path fill="url(#Gradient_1)" stroke="none" d="
M 111 37
L 111 15
Q 111 0 96 0
L 15 0
Q 0 0 0 15
L 0 37
Q 0 52 15 52
L 96 52
Q 111 52 111 37
M 11.9 8.65
Q 12.55 9.3 12.55 10.2 12.55 11.1 11.9 11.75 11.25 12.4 10.35 12.4 9.45 12.4 8.8 11.75 8.15 11.1 8.15 10.2 8.15 9.3 8.8 8.65 9.45 8 10.35 8 11.25 8 11.9 8.65
M 41.55 8.4
Q 41.6 8.55 41.6 8.75
L 41.6 22.4
Q 41.6 22.6 41.55 22.75 41.5 22.85 41.4 22.95 41.25 23 41.1 23.05 40.95 23.1 40.75 23.1 40.55 23.1 40.35 23.05 40.2 23 40.1 22.95 39.95 22.85 39.9 22.75 39.85 22.6 39.85 22.4
L 39.85 15.2 38.6 15.2 38.6 21.95
Q 38.6 22.15 38.55 22.25 38.45 22.4 38.35 22.5 38.2 22.55 38 22.6 37.85 22.6 37.65 22.6 37.5 22.6 37.35 22.6 37.2 22.55 37.05 22.5 36.9 22.4 36.85 22.25 36.75 22.15 36.75 21.95
L 36.75 9.05
Q 36.75 8.85 36.8 8.7 36.9 8.55 37 8.5 37.15 8.45 37.25 8.4 37.4 8.35 37.55 8.35 37.8 8.35 37.95 8.4 38.15 8.45 38.3 8.5 38.45 8.55 38.5 8.7 38.6 8.85 38.6 9.05
L 38.6 13.5 39.85 13.5 39.85 8.75
Q 39.85 8.55 39.9 8.4 39.95 8.25 40.1 8.2 40.2 8.15 40.35 8.1 40.55 8.05 40.75 8.05 40.95 8.05 41.1 8.1 41.25 8.15 41.4 8.2 41.5 8.25 41.55 8.4
M 31.5 9.35
Q 31.75 9.35 32.05 9.35
L 34.5 9.35
Q 34.85 9.35 35.05 9.45 35.15 9.55 35.2 9.7 35.25 9.9 35.25 10.15 35.25 10.4 35.2 10.55 35.15 10.7 35.05 10.8 34.85 11 34.5 11
L 32.55 11
Q 32.35 11 32.15 11.05 31.95 11.1 31.8 11.2 31.8 11.6 31.75 11.95 31.75 12.3 31.75 12.6 31.75 12.95 31.7 13.25 31.7 13.55 31.7 13.8 31.7 15.4 31.7 16.15 31.7 16.55 31.75 16.75 31.75 16.95 31.85 16.95
L 31.9 16.95
Q 32.2 16.95 32.4 16.9 32.65 16.9 32.85 16.9 33.05 16.85 33.25 16.85 33.4 16.85 33.55 16.8 33.75 16.8 33.95 16.75 34.15 16.7 34.35 16.7 34.55 16.65 34.8 16.65 35 16.6 35.3 16.55 35.35 16.5 35.45 16.5 35.5 16.5 35.6 16.5 35.7 16.5 35.85 16.55 35.95 16.6 36 16.7 36.1 16.85 36.15 17.05 36.2 17.25 36.2 17.55 36.2 17.7 36.15 17.8 36.1 17.9 36.05 17.95 36 18.05 35.85 18.1 35.7 18.15 35.5 18.2 35 18.25 34.6 18.3 34.4 18.35 34.25 18.4 34.05 18.4 33.9 18.45 33.7 18.45 33.45 18.5 33.25 18.5 33.05 18.55 32.85 18.55 32.6 18.6 32.35 18.6 32.05 18.6 31.45 18.6 31.05 18.55 30.7 18.5 30.45 18.35 30.3 18.3 30.2 18.15 30.1 18.05 30.05 17.85 29.95 17.55 29.95 16.95
L 29.95 11.05
Q 29.95 10.75 29.95 10.55 30 10.3 30.05 10.1 30.1 9.95 30.2 9.8 30.3 9.7 30.45 9.6 30.55 9.5 30.7 9.45 30.85 9.4 31.05 9.4 31.25 9.35 31.5 9.35
M 54.25 8.5
Q 54.35 8.6 54.35 8.8
L 54.35 11.95 55.8 11.95
Q 56.05 11.95 56.2 12.05 56.35 12.1 56.45 12.2 56.5 12.35 56.5 12.5 56.55 12.65 56.55 12.8 56.55 13 56.5 13.15 56.5 13.25 56.45 13.4 56.35 13.5 56.2 13.6 56.05 13.65 55.8 13.65
L 54.35 13.65 54.35 17.4
Q 54.35 17.85 54.05 17.95 53.9 18.05 53.7 18.1 53.55 18.15 53.3 18.15 53.15 18.15 53 18.1 52.85 18.05 52.7 17.95 52.45 17.85 52.45 17.4
L 52.45 8.8
Q 52.45 8.6 52.5 8.5 52.55 8.35 52.7 8.25 52.85 8.2 53 8.15 53.15 8.15 53.3 8.15 53.75 8.15 54.05 8.25 54.2 8.35 54.25 8.5
M 51.15 10.35
Q 51.15 10.5 51.1 10.6 50.95 10.75 50.5 10.75
L 50.45 10.75
Q 49.55 10.75 48.65 10.75 47.75 10.75 46.9 10.75 45.1 10.75 43.35 10.75 43.15 10.75 43.05 10.7 42.9 10.65 42.85 10.55 42.75 10.45 42.7 10.35 42.7 10.25 42.7 10.05 42.7 9.65 42.85 9.5 42.95 9.4 43.1 9.4 43.25 9.35 43.4 9.35 44.15 9.35 44.75 9.35 45.05 9.35 45.4 9.35 45.7 9.35 46.05 9.35
L 46.05 8.6
Q 46.05 8.35 46.1 8.2 46.2 8.1 46.3 8 46.45 7.95 46.6 7.9 46.75 7.85 47 7.85 47.15 7.85 47.25 7.9 47.4 7.95 47.55 8 47.65 8.1 47.75 8.25 47.8 8.35 47.8 8.6
L 47.8 9.35 50.5 9.35
Q 50.75 9.35 50.9 9.4 51 9.45 51.1 9.55 51.15 9.65 51.15 9.75 51.2 9.9 51.2 10.1 51.2 10.25 51.15 10.35
M 44.95 11.7
Q 45.2 11.6 45.55 11.5 46.15 11.3 46.9 11.3 47.7 11.3 48.35 11.5 48.7 11.6 48.95 11.75 49.25 11.85 49.5 12.05 49.7 12.2 49.85 12.4 50.05 12.6 50.2 12.85 50.35 13.1 50.4 13.35 50.45 13.6 50.45 13.85 50.45 14.1 50.4 14.35 50.35 14.6 50.2 14.8 50.05 15.05 49.85 15.25 49.7 15.45 49.5 15.6 49.25 15.8 48.95 15.95 48.65 16.05 48.35 16.15 48 16.25 47.65 16.3 47.3 16.35 46.9 16.35 46.55 16.35 46.2 16.3 45.85 16.25 45.55 16.2 45.2 16.1 44.95 15.95 44.65 15.85 44.4 15.65 44.15 15.5 43.95 15.3 43.75 15.1 43.6 14.85 43.45 14.6 43.4 14.35 43.35 14.1 43.35 13.85 43.35 13.55 43.4 13.3 43.45 13.05 43.6 12.8 43.75 12.6 43.95 12.4 44.15 12.2 44.4 12 44.65 11.85 44.95 11.7
M 45.65 18.2
Q 45.65 18.05 45.75 17.95 45.8 17.8 46 17.7 46.15 17.6 46.3 17.55 46.45 17.5 46.55 17.5 46.65 17.5 46.75 17.55 46.85 17.55 46.95 17.55 47.05 17.6 47.1 17.65 47.2 17.65 47.25 17.7 47.3 17.75 47.4 17.8 47.45 17.85 47.5 17.9 47.55 18 47.6 18.05 47.6 18.15 47.6 18.2
L 47.6 20.85
Q 47.8 20.9 48 20.9 48.2 20.95 48.4 20.95
L 53.8 20.95
Q 54 20.95 54.15 21 54.25 21.05 54.35 21.15 54.45 21.25 54.5 21.4 54.5 21.55 54.5 21.7 54.5 22.05 54.4 22.35 54.3 22.45 54.15 22.55 54 22.6 53.8 22.6
L 46.95 22.6
Q 46.65 22.6 46.4 22.5 46.2 22.4 46 22.2 45.85 21.95 45.75 21.7 45.65 21.45 45.65 21.2
L 45.65 18.2
M 63.5 9.05
Q 63.6 9.15 63.65 9.25 63.75 9.4 63.85 9.5 63.9 9.65 63.95 9.8 64 9.95 64 10.1
L 64 13.5
Q 64 13.65 63.95 13.8 63.95 13.95 63.85 14.1 63.75 14.4 63.55 14.6 63.45 14.75 63.35 14.8 63.25 14.9 63.1 14.95 62.95 15.05 62.8 15.05 62.65 15.1 62.5 15.1
L 58.8 15.1
Q 58.45 15.1 58.2 15 58.05 14.95 57.9 14.85 57.75 14.8 57.65 14.7 57.55 14.65 57.45 14.5 57.4 14.4 57.3 14.25 57.2 14 57.2 13.65
L 57.2 10.25
Q 57.2 9.9 57.3 9.65 57.4 9.35 57.6 9.1 57.8 8.85 58.05 8.75 58.35 8.65 58.65 8.65
L 62.3 8.65
Q 62.7 8.65 63 8.75 63.15 8.8 63.25 8.85 63.4 8.95 63.5 9.05
M 68.65 8.6
Q 68.65 8.7 68.65 8.8
L 68.65 16.9
Q 68.65 17 68.65 17.1 68.6 17.2 68.55 17.25 68.5 17.3 68.45 17.35 68.4 17.4 68.3 17.45 68.25 17.5 68.15 17.55 68.1 17.55 68 17.55 67.95 17.6 67.85 17.6 67.75 17.6 67.65 17.6 67.45 17.6 67.3 17.55 67.15 17.55 67.05 17.45 66.9 17.4 66.8 17.25 66.75 17.15 66.75 16.9
L 66.75 8.8
Q 66.75 8.6 66.8 8.45 66.9 8.3 67.05 8.25 67.15 8.2 67.3 8.15 67.45 8.15 67.65 8.15 67.75 8.15 67.85 8.15 67.95 8.15 68 8.15 68.15 8.2 68.3 8.25 68.4 8.3 68.45 8.35 68.5 8.4 68.55 8.45 68.6 8.5 68.65 8.6
M 61.65 17.75
Q 61.65 17.85 61.65 17.95
L 61.65 20.9
Q 61.8 20.95 61.9 20.95 62 20.95 62.1 20.95 62.2 21 62.35 21 62.45 21 62.6 21
L 67.95 21
Q 68.1 21 68.2 21.05 68.35 21.15 68.45 21.25 68.55 21.35 68.6 21.5 68.65 21.65 68.65 21.8 68.65 21.95 68.6 22.15 68.55 22.3 68.45 22.4 68.25 22.65 67.95 22.65
L 61.3 22.65
Q 60.95 22.65 60.7 22.55 60.4 22.45 60.2 22.3 59.95 22.1 59.85 21.85 59.75 21.6 59.75 21.25
L 59.75 17.95
Q 59.75 17.75 59.8 17.65 59.9 17.5 60.05 17.4 60.2 17.35 60.4 17.3 60.55 17.25 60.75 17.25 60.8 17.25 60.85 17.25 60.95 17.25 61.05 17.3 61.15 17.3 61.2 17.35 61.3 17.35 61.4 17.4 61.45 17.45 61.5 17.5 61.55 17.55 61.6 17.6 61.6 17.7 61.65 17.75
M 81.1 9.4
Q 81.2 9.65 81.2 10 81.2 10.35 81.2 10.7 81.2 11 81.15 11.35 81.1 11.7 81.05 12.1 81 12.45 80.95 12.85 80.85 13 80.8 13.1 80.75 13.2 80.65 13.25 80.55 13.35 80.45 13.35 80.35 13.4 80.2 13.4 79.8 13.4 79.5 13.25 79.3 13.2 79.25 13.05 79.15 12.95 79.15 12.75
L 79.15 12.7 79.2 12.65 79.2 12.6
Q 79.2 12.4 79.2 12.25 79.2 12.1 79.25 11.95 79.25 11.85 79.25 11.8 79.25 11.7 79.3 11.6 79.3 11.55 79.3 11.5 79.3 11.45 79.3 11.4 79.3 11.35 79.3 11.25 79.3 11.2 79.3 11.1 79.3 11.05 79.3 10.95 79.3 10.9 79.3 10.8 79.3 10.7 79.3 10.6 79.3 10.5 79.3 10.35
L 72.7 10.35
Q 72.45 10.35 72.3 10.1 72.2 10 72.15 9.85 72.1 9.7 72.1 9.5 72.1 9.35 72.15 9.2 72.2 9.05 72.3 8.95 72.35 8.85 72.45 8.75 72.6 8.7 72.7 8.7
L 79.9 8.7
Q 80.2 8.7 80.45 8.75 80.7 8.85 80.9 9 81.05 9.2 81.1 9.4
M 83.6 15.85
Q 83.45 15.95 83.25 15.95
L 77.8 15.95 77.8 17.4 79.7 17.4
Q 80 17.4 80.2 17.5 80.45 17.6 80.65 17.85 80.95 18.25 80.95 18.85
L 80.95 22.4
Q 80.95 22.55 80.9 22.7 80.8 22.8 80.65 22.9 80.5 23 80.3 23.05 80.15 23.1 79.95 23.1 79.85 23.1 79.7 23.05 79.55 23 79.4 22.9 79.25 22.8 79.15 22.7 79.1 22.55 79.1 22.4
L 79.1 19.15
Q 78.85 19.15 78.65 19.1 78.55 19.1 78.45 19.1 78.3 19.1 78.2 19.1
L 72.95 19.1
Q 72.75 19.1 72.6 19.05 72.5 18.95 72.4 18.85 72.35 18.75 72.3 18.6 72.25 18.45 72.25 18.25 72.25 18.1 72.3 17.95 72.35 17.8 72.4 17.65 72.5 17.55 72.6 17.45 72.75 17.4 72.95 17.4
L 75.85 17.4 75.85 15.95 70.3 15.95
Q 70.1 15.95 69.95 15.85 69.85 15.8 69.8 15.7 69.75 15.55 69.7 15.4 69.7 15.25 69.7 15.1 69.7 14.9 69.7 14.75 69.75 14.65 69.8 14.5 69.85 14.35 69.95 14.3 70.1 14.25 70.3 14.25
L 83.25 14.25
Q 83.45 14.25 83.6 14.3 83.75 14.35 83.8 14.5 83.85 14.65 83.85 14.75 83.85 14.9 83.85 15.1 83.85 15.25 83.85 15.4 83.85 15.55 83.8 15.7 83.75 15.8 83.6 15.85
M 11.25 30.65
Q 11.4 30.6 11.6 30.6 11.7 30.6 11.85 30.65 12 30.7 12.15 30.8 12.45 31.05 12.45 31.35 12.45 32.5 12.45 33.7 12.45 34.85 12.45 36 12.45 37.15 12.45 38.3 12.45 39.5 12.45 40.7
L 12.45 41.35
Q 12.45 41.45 12.45 41.55 12.4 41.6 12.35 41.65 12.3 41.75 12.25 41.8 12.15 41.9 12.1 41.95 12 42 11.95 42.05 11.85 42.05 11.8 42.1 11.75 42.1 11.65 42.15 11.6 42.15 11.55 42.15 11.35 42.15 11.15 42.1 11 42.05 10.85 41.9 10.7 41.8 10.6 41.65 10.55 41.55 10.55 41.35 10.55 39.6 10.55 37.8 10.55 36.95 10.55 36.05 10.55 35.2 10.55 34.3
L 9.1 34.3
Q 8.9 34.3 8.75 34.25 8.6 34.15 8.55 34 8.45 33.85 8.4 33.75 8.35 33.6 8.35 33.4 8.35 33.25 8.4 33.1 8.45 32.95 8.55 32.85 8.65 32.7 8.8 32.65 8.95 32.6 9.15 32.55 9.3 32.55 9.5 32.55 9.65 32.5 9.85 32.5 10 32.45 10.15 32.4 10.3 32.35 10.4 32.25 10.45 32.2 10.55 32.05 10.6 31.95 10.65 31.8 10.65 31.65 10.7 31.5 10.75 31.4 10.85 31.25 10.85 31.1 10.9 31 11 30.9 11.05 30.8 11.1 30.7 11.25 30.65
M 19.55 30.65
Q 19.75 30.6 19.9 30.65 20.1 30.7 20.3 30.8 20.45 30.9 20.5 31 20.6 31.1 20.7 31.2 20.75 31.35 20.75 31.45 20.75 31.55 20.75 31.65
L 20.8 38.75 21.35 38.75
Q 21.6 38.75 21.8 38.8 21.95 38.85 22.05 39 22.1 39.15 22.15 39.35 22.2 39.5 22.2 39.65 22.2 39.85 22.15 40.05 22.1 40.2 22.05 40.35 21.95 40.5 21.8 40.55 21.6 40.6 21.35 40.6
L 20.8 40.6 20.8 41.35
Q 20.8 41.9 20.55 42.1 20.25 42.3 19.9 42.3 19.45 42.3 19.2 42.1 19.05 42 19 41.85 18.95 41.65 18.95 41.35
L 18.95 40.6 14.9 40.6
Q 14.8 40.65 14.7 40.65 14.65 40.6 14.55 40.6 14.45 40.6 14.35 40.55 14.3 40.5 14.2 40.5 14.1 40.45 14.05 40.35 14 40.3 13.95 40.2 13.9 40.1 13.9 40 13.85 39.9 13.85 39.8 13.8 39.7 13.8 39.6 13.8 39.5 13.8 39.4 13.85 39.3 13.85 39.25 13.9 39.15 13.95 39.05
L 13.95 39 14 39 14.05 38.8
Q 14.35 38.35 14.65 37.85 15 37.4 15.3 36.9 15.85 36 16.5 35.05 16.8 34.55 17.1 34.1 17.4 33.6 17.65 33.1 17.95 32.6 18.25 32.15 18.5 31.7 18.75 31.3
L 18.85 31.1
Q 19 30.95 19.15 30.85 19.35 30.75 19.55 30.65
M 33.4 30.65
Q 33.6 30.65 33.7 30.75 33.85 30.8 33.9 30.9 34 31 34 31.2 34.05 31.35 34.05 31.5 34.05 31.7 34 31.8 34 31.95 33.9 32.05 33.85 32.2 33.7 32.25 33.6 32.35 33.4 32.35
L 29.95 32.35
Q 30 32.7 30.15 33 30.25 33.35 30.5 33.6 30.7 33.9 30.95 34.15 31.2 34.4 31.5 34.6 31.8 34.8 32.15 35 32.45 35.15 32.8 35.3 33.1 35.45 33.4 35.6 33.7 35.7 34 35.8 34.1 35.85 34.15 35.9 34.2 35.95 34.25 36 34.25 36.1 34.25 36.2 34.3 36.25 34.3 36.35 34.3 36.55 34.2 36.75 34.15 36.9 34.05 37.05 33.75 37.4 33.5 37.4 33.45 37.4 33.35 37.4 33.25 37.35 33.2 37.35 32.9 37.25 32.6 37.1 32.35 36.95 32.05 36.85 31.7 36.7 31.4 36.5 31.1 36.35 30.85 36.2 30.55 36 30.3 35.85 30.05 35.65 29.85 35.45 29.6 35.25 29.4 35.05 29.2 34.9 29.05 34.7 28.9 34.9 28.7 35.1 28.55 35.3 28.3 35.5 28.05 35.65 27.8 35.85 27.55 36.05 27.3 36.2 27 36.4 26.7 36.55 26.4 36.7 26.15 36.85 25.8 37 25.5 37.15 25.2 37.25 24.9 37.35 24.85 37.4 24.8 37.4 24.75 37.4 24.7 37.4 24.5 37.4 24.3 37.35 24.15 37.25 24.05 37.1 23.9 36.95 23.85 36.75 23.75 36.6 23.75 36.4 23.75 36.3 23.8 36.25 23.85 36.15 23.9 36.05 23.95 36 24 35.9 24.05 35.85 24.15 35.8 24.6 35.65 25 35.5 25.4 35.3 25.8 35.1 26.55 34.75 27.05 34.25 27.3 34 27.5 33.8 27.75 33.55 27.9 33.3 28.15 32.8 28.15 32.35
L 24.85 32.35
Q 24.6 32.35 24.5 32.25 24.35 32.2 24.3 32.05 24.2 31.95 24.2 31.8 24.15 31.7 24.15 31.5 24.15 31.35 24.2 31.2 24.2 31 24.3 30.9 24.35 30.8 24.5 30.75 24.6 30.65 24.85 30.65
L 33.4 30.65
M 28.9 36.9
Q 29 36.85 29.05 36.85 29.25 36.85 29.45 36.9 29.65 36.95 29.75 37 30.05 37.15 30.05 37.6
L 30.05 40.15 35.4 40.15
Q 35.65 40.15 35.75 40.2 35.9 40.3 35.95 40.4 36 40.55 36.05 40.7 36.1 40.85 36.1 41 36.1 41.2 36.05 41.35 36 41.5 35.95 41.6 35.9 41.7 35.75 41.75 35.65 41.85 35.4 41.85
L 22.75 41.85
Q 22.55 41.85 22.4 41.75 22.25 41.7 22.2 41.6 22.15 41.5 22.1 41.35 22.1 41.2 22.1 41 22.1 40.85 22.1 40.7 22.15 40.55 22.2 40.4 22.25 40.3 22.4 40.2 22.55 40.15 22.75 40.15
L 28.15 40.15 28.15 37.6
Q 28.15 37.5 28.15 37.4 28.15 37.3 28.2 37.25 28.25 37.15 28.3 37.1 28.35 37.05 28.4 37 28.5 36.95 28.6 36.95 28.65 36.9 28.75 36.9 28.8 36.9 28.9 36.9
M 46.6 30.85
Q 46.7 30.85 46.8 30.9 46.9 30.95 46.95 31.1 47.05 31.2 47.05 31.35 47.1 31.5 47.1 31.6
L 47.1 31.8
Q 47.1 32.15 46.95 32.4 46.85 32.5 46.8 32.65 46.7 32.75 46.65 32.85 46.55 33 46.45 33.15 46.3 33.3 46.15 33.45 46.05 33.65 45.85 33.85 45.7 34.05 45.55 34.3 45.45 34.5 45.3 34.75 45.15 35 45 35.3 44.85 35.6 44.7 35.95 44.55 36.3 44.4 36.65 44.25 37 44.1 37.4 43.9 37.75 43.8 38.15 43.65 38.55 43.55 38.9 43.45 39.3 43.35 39.65 43.3 39.95 43.25 40.25 43.2 40.5 43.2 40.8 43.15 41.05 43.1 41.25 43.05 41.45 42.95 41.6 42.9 41.8 42.85 41.95 42.75 42.1 42.65 42.15 42.55 42.25 42.4 42.3 42.2 42.35 42 42.35 41.75 42.35 41.55 42.3 41.4 42.3 41.25 42.2 41.1 42.1 41 41.95 40.95 41.8 40.95 41.6 40.95 41.5 40.95 41.3 41 41.1 41.1 40.9 41.15 40.75 41.2 40.5 41.25 40.3 41.3 40.05 41.45 39.15 41.85 38.1 42.1 37.55 42.3 37.05 42.55 36.55 42.8 36.05 43.05 35.55 43.3 35.1 43.55 34.65 43.8 34.2 44.05 33.75 44.3 33.4 44.5 33.05 44.7 32.75
L 40 32.75
Q 39.75 32.75 39.6 32.7 39.45 32.6 39.4 32.5 39.3 32.35 39.25 32.15 39.25 32 39.25 31.8 39.25 31.65 39.25 31.45 39.3 31.3 39.4 31.15 39.45 31 39.6 30.95 39.75 30.85 40 30.85 40.8 30.85 41.6 30.85 42.45 30.85 43.25 30.85 44.1 30.85 44.9 30.85 45.75 30.85 46.6 30.85
M 51.35 30.4
Q 51.8 30.4 52.2 30.55 52.6 30.65 53 30.85 53.35 31.1 53.65 31.4 54 31.7 54.25 32.1 54.5 32.5 54.75 33 54.95 33.45 55.1 34 55.2 34.55 55.25 35.15 55.35 35.75 55.35 36.4 55.35 37.05 55.25 37.65 55.2 38.25 55.1 38.8 54.95 39.35 54.75 39.8 54.55 40.3 54.3 40.7 54 41.1 53.7 41.4 53.4 41.75 53 41.95 52.65 42.15 52.2 42.3 51.8 42.4 51.35 42.4 50.8 42.4 50.35 42.3 49.95 42.15 49.6 41.95 49.25 41.75 48.9 41.4 48.6 41.1 48.35 40.7 48.05 40.3 47.9 39.8 47.7 39.35 47.6 38.8 47.45 38.25 47.4 37.65 47.35 37.05 47.35 36.4 47.35 35.75 47.45 35.1 47.5 34.5 47.6 33.95 47.75 33.4 47.95 32.95 48.1 32.45 48.35 32.05 48.6 31.7 48.9 31.4 49.25 31.1 49.6 30.85 49.95 30.65 50.4 30.5 50.85 30.4 51.35 30.4
M 59.3 30.5
Q 59.75 30.4 60.25 30.4 60.7 30.4 61.1 30.55 61.5 30.65 61.9 30.85 62.25 31.1 62.55 31.4 62.9 31.7 63.15 32.1 63.4 32.5 63.65 33 63.85 33.45 64 34 64.1 34.55 64.15 35.15 64.25 35.75 64.25 36.4 64.25 37.05 64.15 37.65 64.1 38.25 64 38.8 63.85 39.35 63.65 39.8 63.45 40.3 63.2 40.7 62.9 41.1 62.6 41.4 62.3 41.75 61.9 41.95 61.55 42.15 61.1 42.3 60.7 42.4 60.25 42.4 59.7 42.4 59.25 42.3 58.85 42.15 58.5 41.95 58.15 41.75 57.8 41.4 57.5 41.1 57.25 40.7 56.95 40.3 56.8 39.8 56.6 39.35 56.5 38.8 56.35 38.25 56.3 37.65 56.25 37.05 56.25 36.4 56.25 35.75 56.35 35.1 56.4 34.5 56.5 33.95 56.65 33.4 56.85 32.95 57 32.45 57.25 32.05 57.5 31.7 57.8 31.4 58.15 31.1 58.5 30.85 58.85 30.65 59.3 30.5
M 73.05 35.15
Q 73.15 35.75 73.15 36.4 73.15 37.05 73.05 37.65 73 38.25 72.9 38.8 72.75 39.35 72.55 39.8 72.35 40.3 72.1 40.7 71.8 41.1 71.5 41.4 71.2 41.75 70.8 41.95 70.45 42.15 70 42.3 69.6 42.4 69.15 42.4 68.6 42.4 68.15 42.3 67.75 42.15 67.4 41.95 67.05 41.75 66.7 41.4 66.4 41.1 66.15 40.7 65.85 40.3 65.7 39.8 65.5 39.35 65.4 38.8 65.25 38.25 65.2 37.65 65.15 37.05 65.15 36.4 65.15 35.75 65.25 35.1 65.3 34.5 65.4 33.95 65.55 33.4 65.75 32.95 65.9 32.45 66.15 32.05 66.4 31.7 66.7 31.4 67.05 31.1 67.4 30.85 67.75 30.65 68.2 30.5 68.65 30.4 69.15 30.4 69.6 30.4 70 30.55 70.4 30.65 70.8 30.85 71.15 31.1 71.45 31.4 71.8 31.7 72.05 32.1 72.3 32.5 72.55 33 72.75 33.45 72.9 34 73 34.55 73.05 35.15
M 85.95 29.9
Q 86.05 30.05 86.05 30.25
L 86.05 36.85
Q 86.05 37.05 85.95 37.2 85.9 37.35 85.8 37.4 85.5 37.55 85.1 37.55 84.95 37.55 84.8 37.5 84.65 37.5 84.5 37.4 84.4 37.35 84.3 37.2 84.25 37.05 84.25 36.85
L 84.25 34.3 81.9 34.3
Q 81.9 34.5 81.8 34.7 81.75 34.9 81.7 35.1 81.55 35.4 81.4 35.7 81.2 35.95 80.9 36.2 80.65 36.45 80.35 36.6 80.05 36.8 79.75 36.9 79.4 37 79 37.05 78.6 37.15 78.2 37.15 77.8 37.15 77.4 37.05 77 37 76.65 36.9 76.3 36.8 76.05 36.6 75.75 36.45 75.5 36.2 75.2 35.95 75 35.7 74.8 35.4 74.7 35.1 74.55 34.75 74.5 34.4 74.4 34 74.4 33.6 74.4 33.2 74.5 32.85 74.55 32.45 74.7 32.1 74.8 31.8 75 31.5 75.2 31.25 75.5 31 75.75 30.8 76.05 30.6 76.3 30.45 76.65 30.3 77 30.2 77.4 30.15 77.8 30.05 78.2 30.05 78.6 30.05 79 30.15 79.4 30.2 79.75 30.3 80.05 30.45 80.35 30.6 80.65 30.8 80.9 31 81.2 31.25 81.4 31.5 81.55 31.8 81.7 32.1 81.75 32.25 81.8 32.35 81.8 32.5 81.85 32.6
L 84.25 32.6 84.25 30.25
Q 84.25 30.05 84.3 29.9 84.4 29.75 84.5 29.65 84.65 29.6 84.8 29.55 84.95 29.55 85.1 29.55 85.5 29.55 85.8 29.65 85.9 29.75 85.95 29.9
M 84.15 40.05
Q 83.9 40.05 83.7 40 83.45 40 83.3 40
L 78.2 40
Q 78 40 77.85 39.95 77.7 39.85 77.65 39.75 77.55 39.6 77.55 39.45 77.5 39.3 77.5 39.15 77.5 39 77.55 38.85 77.55 38.65 77.65 38.55 77.7 38.45 77.85 38.35 78 38.3 78.2 38.3
L 84.75 38.3
Q 85.05 38.3 85.3 38.4 85.5 38.5 85.7 38.7 86.05 39.15 86.05 39.7
L 86.05 43.9
Q 86.05 43.95 86 44 85.95 44.1 85.9 44.15 85.85 44.25 85.8 44.3 85.7 44.35 85.65 44.4 85.6 44.45 85.5 44.45 85.45 44.5 85.35 44.5 85.2 44.55 85.15 44.55 85.05 44.55 84.95 44.55 84.85 44.55 84.7 44.5 84.55 44.5 84.45 44.4 84.3 44.3 84.2 44.15 84.15 44.05 84.15 43.9
L 84.15 40.05
M 97.55 29.9
Q 98.2 30.05 98.7 30.35 99.65 31.05 99.65 32.25 99.65 32.85 99.4 33.3 99.15 33.75 98.7 34.05 98.2 34.4 97.55 34.55 96.9 34.7 96.1 34.7 95.25 34.7 94.6 34.55 94 34.4 93.5 34.05 93 33.75 92.75 33.3 92.5 32.85 92.5 32.25 92.5 31.65 92.75 31.2 93 30.7 93.5 30.35 94 30.05 94.6 29.9 95.25 29.7 96.1 29.7 96.9 29.7 97.55 29.9
M 94.45 39.6
Q 94.6 39.5 94.8 39.45 94.95 39.4 95.15 39.4 95.3 39.4 95.45 39.45 95.6 39.5 95.75 39.6 95.9 39.65 96 39.8 96.05 39.95 96.05 40.1
L 96.05 42.25 102.7 42.25
Q 102.8 42.25 102.95 42.35 103.1 42.4 103.15 42.55 103.25 42.75 103.3 42.9 103.35 43.05 103.35 43.2 103.35 43.55 103.15 43.8 103.1 43.9 102.95 43.95 102.8 44 102.7 44
L 95.9 44
Q 95.45 44 95.1 43.9 94.8 43.85 94.6 43.65 94.35 43.5 94.25 43.2 94.15 42.9 94.15 42.5
L 94.15 40.1
Q 94.15 39.95 94.25 39.8 94.3 39.65 94.45 39.6
M 91.9 36.85
Q 91.5 36.75 91.25 36.6 91.1 36.55 91.05 36.4 91 36.3 91 36.1 91 35.95 91.05 35.85 91.1 35.7 91.2 35.6 91.3 35.5 91.45 35.45 91.6 35.4 91.85 35.35
L 96.25 35.35
Q 96.5 35.35 96.75 35.35 96.95 35.35 97.15 35.35 97.35 35.35 97.55 35.35 97.75 35.35 97.95 35.3 98.1 35.3 98.3 35.3 98.5 35.25 98.7 35.25 98.9 35.2 99.1 35.15 99.35 35.1 99.6 35.05
L 99.75 35.05
Q 99.8 35.05 99.85 35.05 99.95 35.05 100.1 35.1 100.2 35.1 100.35 35.2 100.45 35.3 100.55 35.4 100.6 35.55 100.65 35.65 100.65 35.7 100.65 35.75 100.65 35.8 100.65 35.85 100.65 36 100.6 36.1 100.5 36.25 100.4 36.3 100.25 36.4 100.15 36.45 100 36.5 99.9 36.55 99.65 36.6 99.45 36.65 99.25 36.65 99.05 36.7 98.85 36.7 98.6 36.75 98.4 36.75 98.2 36.75 98 36.75 97.8 36.75 97.6 36.8 97.4 36.8 97.15 36.8 96.9 36.8 96.7 36.8 96.45 36.8
L 96.45 38.15
Q 96.45 38.4 96.4 38.6 96.3 38.75 96.2 38.85 96.05 38.95 95.9 39 95.7 39.05 95.5 39.05 95.35 39.05 95.25 39 95.1 38.95 94.95 38.85 94.85 38.75 94.75 38.6 94.7 38.4 94.7 38.15
L 94.7 36.85 91.9 36.85
M 98.25 38.3
Q 98.2 38.2 98.2 38 98.2 37.7 98.4 37.5 98.6 37.3 99 37.3
L 101.3 37.3 101.3 30.25
Q 101.3 30.05 101.35 29.85 101.4 29.7 101.55 29.6 101.7 29.55 101.85 29.5 102 29.45 102.15 29.45 102.35 29.45 102.5 29.5 102.7 29.55 102.85 29.6 103 29.7 103.1 29.85 103.15 30.05 103.15 30.25
L 103.15 38.95
Q 103.15 39.15 103.1 39.35 103.05 39.5 102.9 39.6 102.75 39.7 102.55 39.75 102.35 39.8 102.15 39.8 102.05 39.8 102 39.75 101.9 39.75 101.8 39.7 101.7 39.7 101.65 39.65 101.55 39.6 101.5 39.55 101.45 39.5 101.4 39.45
L 101.3 39.35
Q 101.3 39.3 101.3 39.25 101.25 39.25 101.3 39.2
L 101.3 38.75 99 38.75
Q 98.85 38.75 98.7 38.7 98.55 38.65 98.45 38.5 98.3 38.45 98.25 38.3
M 95.35 33.15
Q 95.7 33.2 96.1 33.2 96.5 33.2 96.8 33.15 97.15 33.1 97.4 32.95 97.65 32.85 97.8 32.65 97.9 32.5 97.9 32.25 97.9 32 97.8 31.8 97.65 31.6 97.4 31.5 97.15 31.35 96.8 31.3 96.5 31.25 96.1 31.25 95.7 31.25 95.35 31.3 95 31.35 94.75 31.5 94.5 31.6 94.4 31.8 94.25 32 94.25 32.25 94.25 32.5 94.4 32.65 94.5 32.85 94.75 32.95 95 33.1 95.35 33.15
M 80.25 33.6
Q 80.25 33.15 80.1 32.8 79.95 32.5 79.65 32.25 79.1 31.75 78.25 31.75 77.75 31.75 77.4 31.85 77.05 32 76.8 32.25 76.5 32.5 76.35 32.8 76.25 33.15 76.25 33.6 76.25 34.05 76.35 34.35 76.5 34.7 76.8 34.95 77.05 35.2 77.4 35.35 77.75 35.45 78.25 35.45 78.65 35.45 79 35.35 79.4 35.2 79.65 34.95 79.95 34.7 80.1 34.35 80.25 34.05 80.25 33.6
M 71.15 35.55
Q 71.1 35.15 71.05 34.8 70.95 34.4 70.85 34.1 70.75 33.75 70.65 33.45 70.55 33.2 70.4 32.95 70.2 32.75 70 32.55 69.8 32.4 69.55 32.35 69.35 32.25 69.15 32.25 68.9 32.25 68.65 32.35 68.45 32.4 68.25 32.55 68.05 32.7 67.9 32.95 67.7 33.15 67.55 33.45 67.45 33.7 67.35 34.05 67.25 34.4 67.2 34.75 67.15 35.15 67.1 35.55 67.1 35.95 67.1 36.4 67.1 36.85 67.1 37.25 67.15 37.6 67.2 38 67.25 38.35 67.35 38.7 67.45 39.05 67.55 39.35 67.85 39.95 68.25 40.25 68.4 40.45 68.65 40.55 68.9 40.6 69.15 40.6 69.35 40.6 69.6 40.55 69.8 40.45 70 40.3 70.2 40.1 70.4 39.9 70.55 39.65 70.65 39.35 70.9 38.8 71.05 38 71.15 37.65 71.15 37.25 71.2 36.85 71.2 36.4 71.2 36 71.15 35.55
M 59.35 32.55
Q 59.15 32.7 59 32.95 58.8 33.15 58.65 33.45 58.55 33.7 58.45 34.05 58.35 34.4 58.3 34.75 58.25 35.15 58.2 35.55 58.2 35.95 58.2 36.4 58.2 36.85 58.2 37.25 58.25 37.6 58.3 38 58.35 38.35 58.45 38.7 58.55 39.05 58.65 39.35 58.95 39.95 59.35 40.25 59.5 40.45 59.75 40.55 60 40.6 60.25 40.6 60.45 40.6 60.7 40.55 60.9 40.45 61.1 40.3 61.3 40.1 61.5 39.9 61.65 39.65 61.75 39.35 62 38.8 62.15 38 62.25 37.65 62.25 37.25 62.3 36.85 62.3 36.4 62.3 36 62.25 35.55 62.2 35.15 62.15 34.8 62.05 34.4 61.95 34.1 61.85 33.75 61.75 33.45 61.65 33.2 61.5 32.95 61.3 32.75 61.1 32.55 60.9 32.4 60.65 32.35 60.45 32.25 60.25 32.25 60 32.25 59.75 32.35 59.55 32.4 59.35 32.55
M 51.35 32.25
Q 51.1 32.25 50.85 32.35 50.65 32.4 50.45 32.55 50.25 32.7 50.1 32.95 49.9 33.15 49.75 33.45 49.65 33.7 49.55 34.05 49.45 34.4 49.4 34.75 49.35 35.15 49.3 35.55 49.3 35.95 49.3 36.4 49.3 36.85 49.3 37.25 49.35 37.6 49.4 38 49.45 38.35 49.55 38.7 49.65 39.05 49.75 39.35 50.05 39.95 50.45 40.25 50.6 40.45 50.85 40.55 51.1 40.6 51.35 40.6 51.55 40.6 51.8 40.55 52 40.45 52.2 40.3 52.4 40.1 52.6 39.9 52.75 39.65 52.85 39.35 53.1 38.8 53.25 38 53.35 37.65 53.35 37.25 53.4 36.85 53.4 36.4 53.4 36 53.35 35.55 53.3 35.15 53.25 34.8 53.15 34.4 53.05 34.1 52.95 33.75 52.85 33.45 52.75 33.2 52.6 32.95 52.4 32.75 52.2 32.55 52 32.4 51.75 32.35 51.55 32.25 51.35 32.25
M 17.6 36.45
Q 17.4 36.75 17.25 37.05 17.05 37.35 16.85 37.65 16.65 37.95 16.5 38.25 16.3 38.5 16.1 38.75
L 18.85 38.75 18.85 34.4
Q 18.7 34.8 18.35 35.3 18.15 35.6 18 35.85 17.8 36.15 17.6 36.45
M 61.2 10.35
Q 61.05 10.35 60.9 10.35
L 60.15 10.35
Q 60.05 10.35 59.9 10.4 59.75 10.4 59.65 10.4 59.5 10.4 59.35 10.4 59.2 10.45 59 10.45
L 59 12.2
Q 59 12.35 59 12.5 59 12.65 59 12.8 59 12.95 59 13.1 59 13.2 59.05 13.35 59.2 13.35 59.35 13.35 59.5 13.4 59.65 13.4 59.95 13.4 60.15 13.4
L 60.9 13.4
Q 61.05 13.4 61.2 13.4 61.35 13.4 61.5 13.4 61.6 13.4 61.75 13.35 61.9 13.35 62.1 13.35 62.1 13.2 62.1 13.1 62.1 12.95 62.1 12.8 62.1 12.65 62.1 12.5 62.1 12.35 62.1 12.2
L 62.1 11.55
Q 62.1 11.3 62.1 11 62.1 10.85 62.1 10.7 62.1 10.55 62.1 10.4 61.9 10.4 61.75 10.4 61.6 10.4 61.5 10.35 61.35 10.35 61.2 10.35
M 48.5 13.85
Q 48.5 13.6 48.4 13.45 48.3 13.3 48.05 13.15 47.85 13 47.55 12.95 47.25 12.85 46.9 12.85 46.55 12.85 46.3 12.95 46 13 45.75 13.15 45.5 13.3 45.4 13.45 45.25 13.6 45.25 13.85 45.25 14.05 45.4 14.2 45.5 14.4 45.75 14.55 46 14.65 46.3 14.75 46.55 14.8 46.9 14.8 47.6 14.8 48.05 14.5 48.3 14.4 48.4 14.2 48.5 14.05 48.5 13.85 Z"/>

<path fill="#1E1E1E" stroke="none" d="
M 98.2 38
Q 98.2 38.2 98.25 38.3 98.3 38.45 98.45 38.5 98.55 38.65 98.7 38.7 98.85 38.75 99 38.75
L 101.3 38.75 101.3 39.2
Q 101.25 39.25 101.3 39.25 101.3 39.3 101.3 39.35
L 101.4 39.45
Q 101.45 39.5 101.5 39.55 101.55 39.6 101.65 39.65 101.7 39.7 101.8 39.7 101.9 39.75 102 39.75 102.05 39.8 102.15 39.8 102.35 39.8 102.55 39.75 102.75 39.7 102.9 39.6 103.05 39.5 103.1 39.35 103.15 39.15 103.15 38.95
L 103.15 30.25
Q 103.15 30.05 103.1 29.85 103 29.7 102.85 29.6 102.7 29.55 102.5 29.5 102.35 29.45 102.15 29.45 102 29.45 101.85 29.5 101.7 29.55 101.55 29.6 101.4 29.7 101.35 29.85 101.3 30.05 101.3 30.25
L 101.3 37.3 99 37.3
Q 98.6 37.3 98.4 37.5 98.2 37.7 98.2 38
M 91.25 36.6
Q 91.5 36.75 91.9 36.85
L 94.7 36.85 94.7 38.15
Q 94.7 38.4 94.75 38.6 94.85 38.75 94.95 38.85 95.1 38.95 95.25 39 95.35 39.05 95.5 39.05 95.7 39.05 95.9 39 96.05 38.95 96.2 38.85 96.3 38.75 96.4 38.6 96.45 38.4 96.45 38.15
L 96.45 36.8
Q 96.7 36.8 96.9 36.8 97.15 36.8 97.4 36.8 97.6 36.8 97.8 36.75 98 36.75 98.2 36.75 98.4 36.75 98.6 36.75 98.85 36.7 99.05 36.7 99.25 36.65 99.45 36.65 99.65 36.6 99.9 36.55 100 36.5 100.15 36.45 100.25 36.4 100.4 36.3 100.5 36.25 100.6 36.1 100.65 36 100.65 35.85 100.65 35.8 100.65 35.75 100.65 35.7 100.65 35.65 100.6 35.55 100.55 35.4 100.45 35.3 100.35 35.2 100.2 35.1 100.1 35.1 99.95 35.05 99.85 35.05 99.8 35.05 99.75 35.05
L 99.6 35.05
Q 99.35 35.1 99.1 35.15 98.9 35.2 98.7 35.25 98.5 35.25 98.3 35.3 98.1 35.3 97.95 35.3 97.75 35.35 97.55 35.35 97.35 35.35 97.15 35.35 96.95 35.35 96.75 35.35 96.5 35.35 96.25 35.35
L 91.85 35.35
Q 91.6 35.4 91.45 35.45 91.3 35.5 91.2 35.6 91.1 35.7 91.05 35.85 91 35.95 91 36.1 91 36.3 91.05 36.4 91.1 36.55 91.25 36.6
M 94.8 39.45
Q 94.6 39.5 94.45 39.6 94.3 39.65 94.25 39.8 94.15 39.95 94.15 40.1
L 94.15 42.5
Q 94.15 42.9 94.25 43.2 94.35 43.5 94.6 43.65 94.8 43.85 95.1 43.9 95.45 44 95.9 44
L 102.7 44
Q 102.8 44 102.95 43.95 103.1 43.9 103.15 43.8 103.35 43.55 103.35 43.2 103.35 43.05 103.3 42.9 103.25 42.75 103.15 42.55 103.1 42.4 102.95 42.35 102.8 42.25 102.7 42.25
L 96.05 42.25 96.05 40.1
Q 96.05 39.95 96 39.8 95.9 39.65 95.75 39.6 95.6 39.5 95.45 39.45 95.3 39.4 95.15 39.4 94.95 39.4 94.8 39.45
M 98.7 30.35
Q 98.2 30.05 97.55 29.9 96.9 29.7 96.1 29.7 95.25 29.7 94.6 29.9 94 30.05 93.5 30.35 93 30.7 92.75 31.2 92.5 31.65 92.5 32.25 92.5 32.85 92.75 33.3 93 33.75 93.5 34.05 94 34.4 94.6 34.55 95.25 34.7 96.1 34.7 96.9 34.7 97.55 34.55 98.2 34.4 98.7 34.05 99.15 33.75 99.4 33.3 99.65 32.85 99.65 32.25 99.65 31.05 98.7 30.35
M 96.1 33.2
Q 95.7 33.2 95.35 33.15 95 33.1 94.75 32.95 94.5 32.85 94.4 32.65 94.25 32.5 94.25 32.25 94.25 32 94.4 31.8 94.5 31.6 94.75 31.5 95 31.35 95.35 31.3 95.7 31.25 96.1 31.25 96.5 31.25 96.8 31.3 97.15 31.35 97.4 31.5 97.65 31.6 97.8 31.8 97.9 32 97.9 32.25 97.9 32.5 97.8 32.65 97.65 32.85 97.4 32.95 97.15 33.1 96.8 33.15 96.5 33.2 96.1 33.2
M 83.7 40
Q 83.9 40.05 84.15 40.05
L 84.15 43.9
Q 84.15 44.05 84.2 44.15 84.3 44.3 84.45 44.4 84.55 44.5 84.7 44.5 84.85 44.55 84.95 44.55 85.05 44.55 85.15 44.55 85.2 44.55 85.35 44.5 85.45 44.5 85.5 44.45 85.6 44.45 85.65 44.4 85.7 44.35 85.8 44.3 85.85 44.25 85.9 44.15 85.95 44.1 86 44 86.05 43.95 86.05 43.9
L 86.05 39.7
Q 86.05 39.15 85.7 38.7 85.5 38.5 85.3 38.4 85.05 38.3 84.75 38.3
L 78.2 38.3
Q 78 38.3 77.85 38.35 77.7 38.45 77.65 38.55 77.55 38.65 77.55 38.85 77.5 39 77.5 39.15 77.5 39.3 77.55 39.45 77.55 39.6 77.65 39.75 77.7 39.85 77.85 39.95 78 40 78.2 40
L 83.3 40
Q 83.45 40 83.7 40
M 86.05 30.25
Q 86.05 30.05 85.95 29.9 85.9 29.75 85.8 29.65 85.5 29.55 85.1 29.55 84.95 29.55 84.8 29.55 84.65 29.6 84.5 29.65 84.4 29.75 84.3 29.9 84.25 30.05 84.25 30.25
L 84.25 32.6 81.85 32.6
Q 81.8 32.5 81.8 32.35 81.75 32.25 81.7 32.1 81.55 31.8 81.4 31.5 81.2 31.25 80.9 31 80.65 30.8 80.35 30.6 80.05 30.45 79.75 30.3 79.4 30.2 79 30.15 78.6 30.05 78.2 30.05 77.8 30.05 77.4 30.15 77 30.2 76.65 30.3 76.3 30.45 76.05 30.6 75.75 30.8 75.5 31 75.2 31.25 75 31.5 74.8 31.8 74.7 32.1 74.55 32.45 74.5 32.85 74.4 33.2 74.4 33.6 74.4 34 74.5 34.4 74.55 34.75 74.7 35.1 74.8 35.4 75 35.7 75.2 35.95 75.5 36.2 75.75 36.45 76.05 36.6 76.3 36.8 76.65 36.9 77 37 77.4 37.05 77.8 37.15 78.2 37.15 78.6 37.15 79 37.05 79.4 37 79.75 36.9 80.05 36.8 80.35 36.6 80.65 36.45 80.9 36.2 81.2 35.95 81.4 35.7 81.55 35.4 81.7 35.1 81.75 34.9 81.8 34.7 81.9 34.5 81.9 34.3
L 84.25 34.3 84.25 36.85
Q 84.25 37.05 84.3 37.2 84.4 37.35 84.5 37.4 84.65 37.5 84.8 37.5 84.95 37.55 85.1 37.55 85.5 37.55 85.8 37.4 85.9 37.35 85.95 37.2 86.05 37.05 86.05 36.85
L 86.05 30.25
M 80.1 32.8
Q 80.25 33.15 80.25 33.6 80.25 34.05 80.1 34.35 79.95 34.7 79.65 34.95 79.4 35.2 79 35.35 78.65 35.45 78.25 35.45 77.75 35.45 77.4 35.35 77.05 35.2 76.8 34.95 76.5 34.7 76.35 34.35 76.25 34.05 76.25 33.6 76.25 33.15 76.35 32.8 76.5 32.5 76.8 32.25 77.05 32 77.4 31.85 77.75 31.75 78.25 31.75 79.1 31.75 79.65 32.25 79.95 32.5 80.1 32.8
M 73.15 36.4
Q 73.15 35.75 73.05 35.15 73 34.55 72.9 34 72.75 33.45 72.55 33 72.3 32.5 72.05 32.1 71.8 31.7 71.45 31.4 71.15 31.1 70.8 30.85 70.4 30.65 70 30.55 69.6 30.4 69.15 30.4 68.65 30.4 68.2 30.5 67.75 30.65 67.4 30.85 67.05 31.1 66.7 31.4 66.4 31.7 66.15 32.05 65.9 32.45 65.75 32.95 65.55 33.4 65.4 33.95 65.3 34.5 65.25 35.1 65.15 35.75 65.15 36.4 65.15 37.05 65.2 37.65 65.25 38.25 65.4 38.8 65.5 39.35 65.7 39.8 65.85 40.3 66.15 40.7 66.4 41.1 66.7 41.4 67.05 41.75 67.4 41.95 67.75 42.15 68.15 42.3 68.6 42.4 69.15 42.4 69.6 42.4 70 42.3 70.45 42.15 70.8 41.95 71.2 41.75 71.5 41.4 71.8 41.1 72.1 40.7 72.35 40.3 72.55 39.8 72.75 39.35 72.9 38.8 73 38.25 73.05 37.65 73.15 37.05 73.15 36.4
M 71.05 34.8
Q 71.1 35.15 71.15 35.55 71.2 36 71.2 36.4 71.2 36.85 71.15 37.25 71.15 37.65 71.05 38 70.9 38.8 70.65 39.35 70.55 39.65 70.4 39.9 70.2 40.1 70 40.3 69.8 40.45 69.6 40.55 69.35 40.6 69.15 40.6 68.9 40.6 68.65 40.55 68.4 40.45 68.25 40.25 67.85 39.95 67.55 39.35 67.45 39.05 67.35 38.7 67.25 38.35 67.2 38 67.15 37.6 67.1 37.25 67.1 36.85 67.1 36.4 67.1 35.95 67.1 35.55 67.15 35.15 67.2 34.75 67.25 34.4 67.35 34.05 67.45 33.7 67.55 33.45 67.7 33.15 67.9 32.95 68.05 32.7 68.25 32.55 68.45 32.4 68.65 32.35 68.9 32.25 69.15 32.25 69.35 32.25 69.55 32.35 69.8 32.4 70 32.55 70.2 32.75 70.4 32.95 70.55 33.2 70.65 33.45 70.75 33.75 70.85 34.1 70.95 34.4 71.05 34.8
M 60.25 30.4
Q 59.75 30.4 59.3 30.5 58.85 30.65 58.5 30.85 58.15 31.1 57.8 31.4 57.5 31.7 57.25 32.05 57 32.45 56.85 32.95 56.65 33.4 56.5 33.95 56.4 34.5 56.35 35.1 56.25 35.75 56.25 36.4 56.25 37.05 56.3 37.65 56.35 38.25 56.5 38.8 56.6 39.35 56.8 39.8 56.95 40.3 57.25 40.7 57.5 41.1 57.8 41.4 58.15 41.75 58.5 41.95 58.85 42.15 59.25 42.3 59.7 42.4 60.25 42.4 60.7 42.4 61.1 42.3 61.55 42.15 61.9 41.95 62.3 41.75 62.6 41.4 62.9 41.1 63.2 40.7 63.45 40.3 63.65 39.8 63.85 39.35 64 38.8 64.1 38.25 64.15 37.65 64.25 37.05 64.25 36.4 64.25 35.75 64.15 35.15 64.1 34.55 64 34 63.85 33.45 63.65 33 63.4 32.5 63.15 32.1 62.9 31.7 62.55 31.4 62.25 31.1 61.9 30.85 61.5 30.65 61.1 30.55 60.7 30.4 60.25 30.4
M 59 32.95
Q 59.15 32.7 59.35 32.55 59.55 32.4 59.75 32.35 60 32.25 60.25 32.25 60.45 32.25 60.65 32.35 60.9 32.4 61.1 32.55 61.3 32.75 61.5 32.95 61.65 33.2 61.75 33.45 61.85 33.75 61.95 34.1 62.05 34.4 62.15 34.8 62.2 35.15 62.25 35.55 62.3 36 62.3 36.4 62.3 36.85 62.25 37.25 62.25 37.65 62.15 38 62 38.8 61.75 39.35 61.65 39.65 61.5 39.9 61.3 40.1 61.1 40.3 60.9 40.45 60.7 40.55 60.45 40.6 60.25 40.6 60 40.6 59.75 40.55 59.5 40.45 59.35 40.25 58.95 39.95 58.65 39.35 58.55 39.05 58.45 38.7 58.35 38.35 58.3 38 58.25 37.6 58.2 37.25 58.2 36.85 58.2 36.4 58.2 35.95 58.2 35.55 58.25 35.15 58.3 34.75 58.35 34.4 58.45 34.05 58.55 33.7 58.65 33.45 58.8 33.15 59 32.95
M 52.2 30.55
Q 51.8 30.4 51.35 30.4 50.85 30.4 50.4 30.5 49.95 30.65 49.6 30.85 49.25 31.1 48.9 31.4 48.6 31.7 48.35 32.05 48.1 32.45 47.95 32.95 47.75 33.4 47.6 33.95 47.5 34.5 47.45 35.1 47.35 35.75 47.35 36.4 47.35 37.05 47.4 37.65 47.45 38.25 47.6 38.8 47.7 39.35 47.9 39.8 48.05 40.3 48.35 40.7 48.6 41.1 48.9 41.4 49.25 41.75 49.6 41.95 49.95 42.15 50.35 42.3 50.8 42.4 51.35 42.4 51.8 42.4 52.2 42.3 52.65 42.15 53 41.95 53.4 41.75 53.7 41.4 54 41.1 54.3 40.7 54.55 40.3 54.75 39.8 54.95 39.35 55.1 38.8 55.2 38.25 55.25 37.65 55.35 37.05 55.35 36.4 55.35 35.75 55.25 35.15 55.2 34.55 55.1 34 54.95 33.45 54.75 33 54.5 32.5 54.25 32.1 54 31.7 53.65 31.4 53.35 31.1 53 30.85 52.6 30.65 52.2 30.55
M 50.85 32.35
Q 51.1 32.25 51.35 32.25 51.55 32.25 51.75 32.35 52 32.4 52.2 32.55 52.4 32.75 52.6 32.95 52.75 33.2 52.85 33.45 52.95 33.75 53.05 34.1 53.15 34.4 53.25 34.8 53.3 35.15 53.35 35.55 53.4 36 53.4 36.4 53.4 36.85 53.35 37.25 53.35 37.65 53.25 38 53.1 38.8 52.85 39.35 52.75 39.65 52.6 39.9 52.4 40.1 52.2 40.3 52 40.45 51.8 40.55 51.55 40.6 51.35 40.6 51.1 40.6 50.85 40.55 50.6 40.45 50.45 40.25 50.05 39.95 49.75 39.35 49.65 39.05 49.55 38.7 49.45 38.35 49.4 38 49.35 37.6 49.3 37.25 49.3 36.85 49.3 36.4 49.3 35.95 49.3 35.55 49.35 35.15 49.4 34.75 49.45 34.4 49.55 34.05 49.65 33.7 49.75 33.45 49.9 33.15 50.1 32.95 50.25 32.7 50.45 32.55 50.65 32.4 50.85 32.35
M 46.8 30.9
Q 46.7 30.85 46.6 30.85 45.75 30.85 44.9 30.85 44.1 30.85 43.25 30.85 42.45 30.85 41.6 30.85 40.8 30.85 40 30.85 39.75 30.85 39.6 30.95 39.45 31 39.4 31.15 39.3 31.3 39.25 31.45 39.25 31.65 39.25 31.8 39.25 32 39.25 32.15 39.3 32.35 39.4 32.5 39.45 32.6 39.6 32.7 39.75 32.75 40 32.75
L 44.7 32.75
Q 44.5 33.05 44.3 33.4 44.05 33.75 43.8 34.2 43.55 34.65 43.3 35.1 43.05 35.55 42.8 36.05 42.55 36.55 42.3 37.05 42.1 37.55 41.85 38.1 41.45 39.15 41.3 40.05 41.25 40.3 41.2 40.5 41.15 40.75 41.1 40.9 41 41.1 40.95 41.3 40.95 41.5 40.95 41.6 40.95 41.8 41 41.95 41.1 42.1 41.25 42.2 41.4 42.3 41.55 42.3 41.75 42.35 42 42.35 42.2 42.35 42.4 42.3 42.55 42.25 42.65 42.15 42.75 42.1 42.85 41.95 42.9 41.8 42.95 41.6 43.05 41.45 43.1 41.25 43.15 41.05 43.2 40.8 43.2 40.5 43.25 40.25 43.3 39.95 43.35 39.65 43.45 39.3 43.55 38.9 43.65 38.55 43.8 38.15 43.9 37.75 44.1 37.4 44.25 37 44.4 36.65 44.55 36.3 44.7 35.95 44.85 35.6 45 35.3 45.15 35 45.3 34.75 45.45 34.5 45.55 34.3 45.7 34.05 45.85 33.85 46.05 33.65 46.15 33.45 46.3 33.3 46.45 33.15 46.55 33 46.65 32.85 46.7 32.75 46.8 32.65 46.85 32.5 46.95 32.4 47.1 32.15 47.1 31.8
L 47.1 31.6
Q 47.1 31.5 47.05 31.35 47.05 31.2 46.95 31.1 46.9 30.95 46.8 30.9
M 29.05 36.85
Q 29 36.85 28.9 36.9 28.8 36.9 28.75 36.9 28.65 36.9 28.6 36.95 28.5 36.95 28.4 37 28.35 37.05 28.3 37.1 28.25 37.15 28.2 37.25 28.15 37.3 28.15 37.4 28.15 37.5 28.15 37.6
L 28.15 40.15 22.75 40.15
Q 22.55 40.15 22.4 40.2 22.25 40.3 22.2 40.4 22.15 40.55 22.1 40.7 22.1 40.85 22.1 41 22.1 41.2 22.1 41.35 22.15 41.5 22.2 41.6 22.25 41.7 22.4 41.75 22.55 41.85 22.75 41.85
L 35.4 41.85
Q 35.65 41.85 35.75 41.75 35.9 41.7 35.95 41.6 36 41.5 36.05 41.35 36.1 41.2 36.1 41 36.1 40.85 36.05 40.7 36 40.55 35.95 40.4 35.9 40.3 35.75 40.2 35.65 40.15 35.4 40.15
L 30.05 40.15 30.05 37.6
Q 30.05 37.15 29.75 37 29.65 36.95 29.45 36.9 29.25 36.85 29.05 36.85
M 33.7 30.75
Q 33.6 30.65 33.4 30.65
L 24.85 30.65
Q 24.6 30.65 24.5 30.75 24.35 30.8 24.3 30.9 24.2 31 24.2 31.2 24.15 31.35 24.15 31.5 24.15 31.7 24.2 31.8 24.2 31.95 24.3 32.05 24.35 32.2 24.5 32.25 24.6 32.35 24.85 32.35
L 28.15 32.35
Q 28.15 32.8 27.9 33.3 27.75 33.55 27.5 33.8 27.3 34 27.05 34.25 26.55 34.75 25.8 35.1 25.4 35.3 25 35.5 24.6 35.65 24.15 35.8 24.05 35.85 24 35.9 23.95 36 23.9 36.05 23.85 36.15 23.8 36.25 23.75 36.3 23.75 36.4 23.75 36.6 23.85 36.75 23.9 36.95 24.05 37.1 24.15 37.25 24.3 37.35 24.5 37.4 24.7 37.4 24.75 37.4 24.8 37.4 24.85 37.4 24.9 37.35 25.2 37.25 25.5 37.15 25.8 37 26.15 36.85 26.4 36.7 26.7 36.55 27 36.4 27.3 36.2 27.55 36.05 27.8 35.85 28.05 35.65 28.3 35.5 28.55 35.3 28.7 35.1 28.9 34.9 29.05 34.7 29.2 34.9 29.4 35.05 29.6 35.25 29.85 35.45 30.05 35.65 30.3 35.85 30.55 36 30.85 36.2 31.1 36.35 31.4 36.5 31.7 36.7 32.05 36.85 32.35 36.95 32.6 37.1 32.9 37.25 33.2 37.35 33.25 37.35 33.35 37.4 33.45 37.4 33.5 37.4 33.75 37.4 34.05 37.05 34.15 36.9 34.2 36.75 34.3 36.55 34.3 36.35 34.3 36.25 34.25 36.2 34.25 36.1 34.25 36 34.2 35.95 34.15 35.9 34.1 35.85 34 35.8 33.7 35.7 33.4 35.6 33.1 35.45 32.8 35.3 32.45 35.15 32.15 35 31.8 34.8 31.5 34.6 31.2 34.4 30.95 34.15 30.7 33.9 30.5 33.6 30.25 33.35 30.15 33 30 32.7 29.95 32.35
L 33.4 32.35
Q 33.6 32.35 33.7 32.25 33.85 32.2 33.9 32.05 34 31.95 34 31.8 34.05 31.7 34.05 31.5 34.05 31.35 34 31.2 34 31 33.9 30.9 33.85 30.8 33.7 30.75
M 19.9 30.65
Q 19.75 30.6 19.55 30.65 19.35 30.75 19.15 30.85 19 30.95 18.85 31.1
L 18.75 31.3
Q 18.5 31.7 18.25 32.15 17.95 32.6 17.65 33.1 17.4 33.6 17.1 34.1 16.8 34.55 16.5 35.05 15.85 36 15.3 36.9 15 37.4 14.65 37.85 14.35 38.35 14.05 38.8
L 14 39 13.95 39 13.95 39.05
Q 13.9 39.15 13.85 39.25 13.85 39.3 13.8 39.4 13.8 39.5 13.8 39.6 13.8 39.7 13.85 39.8 13.85 39.9 13.9 40 13.9 40.1 13.95 40.2 14 40.3 14.05 40.35 14.1 40.45 14.2 40.5 14.3 40.5 14.35 40.55 14.45 40.6 14.55 40.6 14.65 40.6 14.7 40.65 14.8 40.65 14.9 40.6
L 18.95 40.6 18.95 41.35
Q 18.95 41.65 19 41.85 19.05 42 19.2 42.1 19.45 42.3 19.9 42.3 20.25 42.3 20.55 42.1 20.8 41.9 20.8 41.35
L 20.8 40.6 21.35 40.6
Q 21.6 40.6 21.8 40.55 21.95 40.5 22.05 40.35 22.1 40.2 22.15 40.05 22.2 39.85 22.2 39.65 22.2 39.5 22.15 39.35 22.1 39.15 22.05 39 21.95 38.85 21.8 38.8 21.6 38.75 21.35 38.75
L 20.8 38.75 20.75 31.65
Q 20.75 31.55 20.75 31.45 20.75 31.35 20.7 31.2 20.6 31.1 20.5 31 20.45 30.9 20.3 30.8 20.1 30.7 19.9 30.65
M 17.25 37.05
Q 17.4 36.75 17.6 36.45 17.8 36.15 18 35.85 18.15 35.6 18.35 35.3 18.7 34.8 18.85 34.4
L 18.85 38.75 16.1 38.75
Q 16.3 38.5 16.5 38.25 16.65 37.95 16.85 37.65 17.05 37.35 17.25 37.05
M 11.6 30.6
Q 11.4 30.6 11.25 30.65 11.1 30.7 11.05 30.8 11 30.9 10.9 31 10.85 31.1 10.85 31.25 10.75 31.4 10.7 31.5 10.65 31.65 10.65 31.8 10.6 31.95 10.55 32.05 10.45 32.2 10.4 32.25 10.3 32.35 10.15 32.4 10 32.45 9.85 32.5 9.65 32.5 9.5 32.55 9.3 32.55 9.15 32.55 8.95 32.6 8.8 32.65 8.65 32.7 8.55 32.85 8.45 32.95 8.4 33.1 8.35 33.25 8.35 33.4 8.35 33.6 8.4 33.75 8.45 33.85 8.55 34 8.6 34.15 8.75 34.25 8.9 34.3 9.1 34.3
L 10.55 34.3
Q 10.55 35.2 10.55 36.05 10.55 36.95 10.55 37.8 10.55 39.6 10.55 41.35 10.55 41.55 10.6 41.65 10.7 41.8 10.85 41.9 11 42.05 11.15 42.1 11.35 42.15 11.55 42.15 11.6 42.15 11.65 42.15 11.75 42.1 11.8 42.1 11.85 42.05 11.95 42.05 12 42 12.1 41.95 12.15 41.9 12.25 41.8 12.3 41.75 12.35 41.65 12.4 41.6 12.45 41.55 12.45 41.45 12.45 41.35
L 12.45 40.7
Q 12.45 39.5 12.45 38.3 12.45 37.15 12.45 36 12.45 34.85 12.45 33.7 12.45 32.5 12.45 31.35 12.45 31.05 12.15 30.8 12 30.7 11.85 30.65 11.7 30.6 11.6 30.6
M 83.25 15.95
Q 83.45 15.95 83.6 15.85 83.75 15.8 83.8 15.7 83.85 15.55 83.85 15.4 83.85 15.25 83.85 15.1 83.85 14.9 83.85 14.75 83.85 14.65 83.8 14.5 83.75 14.35 83.6 14.3 83.45 14.25 83.25 14.25
L 70.3 14.25
Q 70.1 14.25 69.95 14.3 69.85 14.35 69.8 14.5 69.75 14.65 69.7 14.75 69.7 14.9 69.7 15.1 69.7 15.25 69.7 15.4 69.75 15.55 69.8 15.7 69.85 15.8 69.95 15.85 70.1 15.95 70.3 15.95
L 75.85 15.95 75.85 17.4 72.95 17.4
Q 72.75 17.4 72.6 17.45 72.5 17.55 72.4 17.65 72.35 17.8 72.3 17.95 72.25 18.1 72.25 18.25 72.25 18.45 72.3 18.6 72.35 18.75 72.4 18.85 72.5 18.95 72.6 19.05 72.75 19.1 72.95 19.1
L 78.2 19.1
Q 78.3 19.1 78.45 19.1 78.55 19.1 78.65 19.1 78.85 19.15 79.1 19.15
L 79.1 22.4
Q 79.1 22.55 79.15 22.7 79.25 22.8 79.4 22.9 79.55 23 79.7 23.05 79.85 23.1 79.95 23.1 80.15 23.1 80.3 23.05 80.5 23 80.65 22.9 80.8 22.8 80.9 22.7 80.95 22.55 80.95 22.4
L 80.95 18.85
Q 80.95 18.25 80.65 17.85 80.45 17.6 80.2 17.5 80 17.4 79.7 17.4
L 77.8 17.4 77.8 15.95 83.25 15.95
M 81.2 10
Q 81.2 9.65 81.1 9.4 81.05 9.2 80.9 9 80.7 8.85 80.45 8.75 80.2 8.7 79.9 8.7
L 72.7 8.7
Q 72.6 8.7 72.45 8.75 72.35 8.85 72.3 8.95 72.2 9.05 72.15 9.2 72.1 9.35 72.1 9.5 72.1 9.7 72.15 9.85 72.2 10 72.3 10.1 72.45 10.35 72.7 10.35
L 79.3 10.35
Q 79.3 10.5 79.3 10.6 79.3 10.7 79.3 10.8 79.3 10.9 79.3 10.95 79.3 11.05 79.3 11.1 79.3 11.2 79.3 11.25 79.3 11.35 79.3 11.4 79.3 11.45 79.3 11.5 79.3 11.55 79.3 11.6 79.25 11.7 79.25 11.8 79.25 11.85 79.25 11.95 79.2 12.1 79.2 12.25 79.2 12.4 79.2 12.6
L 79.2 12.65 79.15 12.7 79.15 12.75
Q 79.15 12.95 79.25 13.05 79.3 13.2 79.5 13.25 79.8 13.4 80.2 13.4 80.35 13.4 80.45 13.35 80.55 13.35 80.65 13.25 80.75 13.2 80.8 13.1 80.85 13 80.95 12.85 81 12.45 81.05 12.1 81.1 11.7 81.15 11.35 81.2 11 81.2 10.7 81.2 10.35 81.2 10
M 61.65 17.95
Q 61.65 17.85 61.65 17.75 61.6 17.7 61.6 17.6 61.55 17.55 61.5 17.5 61.45 17.45 61.4 17.4 61.3 17.35 61.2 17.35 61.15 17.3 61.05 17.3 60.95 17.25 60.85 17.25 60.8 17.25 60.75 17.25 60.55 17.25 60.4 17.3 60.2 17.35 60.05 17.4 59.9 17.5 59.8 17.65 59.75 17.75 59.75 17.95
L 59.75 21.25
Q 59.75 21.6 59.85 21.85 59.95 22.1 60.2 22.3 60.4 22.45 60.7 22.55 60.95 22.65 61.3 22.65
L 67.95 22.65
Q 68.25 22.65 68.45 22.4 68.55 22.3 68.6 22.15 68.65 21.95 68.65 21.8 68.65 21.65 68.6 21.5 68.55 21.35 68.45 21.25 68.35 21.15 68.2 21.05 68.1 21 67.95 21
L 62.6 21
Q 62.45 21 62.35 21 62.2 21 62.1 20.95 62 20.95 61.9 20.95 61.8 20.95 61.65 20.9
L 61.65 17.95
M 68.65 8.8
Q 68.65 8.7 68.65 8.6 68.6 8.5 68.55 8.45 68.5 8.4 68.45 8.35 68.4 8.3 68.3 8.25 68.15 8.2 68 8.15 67.95 8.15 67.85 8.15 67.75 8.15 67.65 8.15 67.45 8.15 67.3 8.15 67.15 8.2 67.05 8.25 66.9 8.3 66.8 8.45 66.75 8.6 66.75 8.8
L 66.75 16.9
Q 66.75 17.15 66.8 17.25 66.9 17.4 67.05 17.45 67.15 17.55 67.3 17.55 67.45 17.6 67.65 17.6 67.75 17.6 67.85 17.6 67.95 17.6 68 17.55 68.1 17.55 68.15 17.55 68.25 17.5 68.3 17.45 68.4 17.4 68.45 17.35 68.5 17.3 68.55 17.25 68.6 17.2 68.65 17.1 68.65 17 68.65 16.9
L 68.65 8.8
M 63.65 9.25
Q 63.6 9.15 63.5 9.05 63.4 8.95 63.25 8.85 63.15 8.8 63 8.75 62.7 8.65 62.3 8.65
L 58.65 8.65
Q 58.35 8.65 58.05 8.75 57.8 8.85 57.6 9.1 57.4 9.35 57.3 9.65 57.2 9.9 57.2 10.25
L 57.2 13.65
Q 57.2 14 57.3 14.25 57.4 14.4 57.45 14.5 57.55 14.65 57.65 14.7 57.75 14.8 57.9 14.85 58.05 14.95 58.2 15 58.45 15.1 58.8 15.1
L 62.5 15.1
Q 62.65 15.1 62.8 15.05 62.95 15.05 63.1 14.95 63.25 14.9 63.35 14.8 63.45 14.75 63.55 14.6 63.75 14.4 63.85 14.1 63.95 13.95 63.95 13.8 64 13.65 64 13.5
L 64 10.1
Q 64 9.95 63.95 9.8 63.9 9.65 63.85 9.5 63.75 9.4 63.65 9.25
M 60.9 10.35
Q 61.05 10.35 61.2 10.35 61.35 10.35 61.5 10.35 61.6 10.4 61.75 10.4 61.9 10.4 62.1 10.4 62.1 10.55 62.1 10.7 62.1 10.85 62.1 11 62.1 11.3 62.1 11.55
L 62.1 12.2
Q 62.1 12.35 62.1 12.5 62.1 12.65 62.1 12.8 62.1 12.95 62.1 13.1 62.1 13.2 62.1 13.35 61.9 13.35 61.75 13.35 61.6 13.4 61.5 13.4 61.35 13.4 61.2 13.4 61.05 13.4 60.9 13.4
L 60.15 13.4
Q 59.95 13.4 59.65 13.4 59.5 13.4 59.35 13.35 59.2 13.35 59.05 13.35 59 13.2 59 13.1 59 12.95 59 12.8 59 12.65 59 12.5 59 12.35 59 12.2
L 59 10.45
Q 59.2 10.45 59.35 10.4 59.5 10.4 59.65 10.4 59.75 10.4 59.9 10.4 60.05 10.35 60.15 10.35
L 60.9 10.35
M 45.75 17.95
Q 45.65 18.05 45.65 18.2
L 45.65 21.2
Q 45.65 21.45 45.75 21.7 45.85 21.95 46 22.2 46.2 22.4 46.4 22.5 46.65 22.6 46.95 22.6
L 53.8 22.6
Q 54 22.6 54.15 22.55 54.3 22.45 54.4 22.35 54.5 22.05 54.5 21.7 54.5 21.55 54.5 21.4 54.45 21.25 54.35 21.15 54.25 21.05 54.15 21 54 20.95 53.8 20.95
L 48.4 20.95
Q 48.2 20.95 48 20.9 47.8 20.9 47.6 20.85
L 47.6 18.2
Q 47.6 18.15 47.6 18.05 47.55 18 47.5 17.9 47.45 17.85 47.4 17.8 47.3 17.75 47.25 17.7 47.2 17.65 47.1 17.65 47.05 17.6 46.95 17.55 46.85 17.55 46.75 17.55 46.65 17.5 46.55 17.5 46.45 17.5 46.3 17.55 46.15 17.6 46 17.7 45.8 17.8 45.75 17.95
M 45.55 11.5
Q 45.2 11.6 44.95 11.7 44.65 11.85 44.4 12 44.15 12.2 43.95 12.4 43.75 12.6 43.6 12.8 43.45 13.05 43.4 13.3 43.35 13.55 43.35 13.85 43.35 14.1 43.4 14.35 43.45 14.6 43.6 14.85 43.75 15.1 43.95 15.3 44.15 15.5 44.4 15.65 44.65 15.85 44.95 15.95 45.2 16.1 45.55 16.2 45.85 16.25 46.2 16.3 46.55 16.35 46.9 16.35 47.3 16.35 47.65 16.3 48 16.25 48.35 16.15 48.65 16.05 48.95 15.95 49.25 15.8 49.5 15.6 49.7 15.45 49.85 15.25 50.05 15.05 50.2 14.8 50.35 14.6 50.4 14.35 50.45 14.1 50.45 13.85 50.45 13.6 50.4 13.35 50.35 13.1 50.2 12.85 50.05 12.6 49.85 12.4 49.7 12.2 49.5 12.05 49.25 11.85 48.95 11.75 48.7 11.6 48.35 11.5 47.7 11.3 46.9 11.3 46.15 11.3 45.55 11.5
M 48.4 13.45
Q 48.5 13.6 48.5 13.85 48.5 14.05 48.4 14.2 48.3 14.4 48.05 14.5 47.6 14.8 46.9 14.8 46.55 14.8 46.3 14.75 46 14.65 45.75 14.55 45.5 14.4 45.4 14.2 45.25 14.05 45.25 13.85 45.25 13.6 45.4 13.45 45.5 13.3 45.75 13.15 46 13 46.3 12.95 46.55 12.85 46.9 12.85 47.25 12.85 47.55 12.95 47.85 13 48.05 13.15 48.3 13.3 48.4 13.45
M 51.1 10.6
Q 51.15 10.5 51.15 10.35 51.2 10.25 51.2 10.1 51.2 9.9 51.15 9.75 51.15 9.65 51.1 9.55 51 9.45 50.9 9.4 50.75 9.35 50.5 9.35
L 47.8 9.35 47.8 8.6
Q 47.8 8.35 47.75 8.25 47.65 8.1 47.55 8 47.4 7.95 47.25 7.9 47.15 7.85 47 7.85 46.75 7.85 46.6 7.9 46.45 7.95 46.3 8 46.2 8.1 46.1 8.2 46.05 8.35 46.05 8.6
L 46.05 9.35
Q 45.7 9.35 45.4 9.35 45.05 9.35 44.75 9.35 44.15 9.35 43.4 9.35 43.25 9.35 43.1 9.4 42.95 9.4 42.85 9.5 42.7 9.65 42.7 10.05 42.7 10.25 42.7 10.35 42.75 10.45 42.85 10.55 42.9 10.65 43.05 10.7 43.15 10.75 43.35 10.75 45.1 10.75 46.9 10.75 47.75 10.75 48.65 10.75 49.55 10.75 50.45 10.75
L 50.5 10.75
Q 50.95 10.75 51.1 10.6
M 54.35 8.8
Q 54.35 8.6 54.25 8.5 54.2 8.35 54.05 8.25 53.75 8.15 53.3 8.15 53.15 8.15 53 8.15 52.85 8.2 52.7 8.25 52.55 8.35 52.5 8.5 52.45 8.6 52.45 8.8
L 52.45 17.4
Q 52.45 17.85 52.7 17.95 52.85 18.05 53 18.1 53.15 18.15 53.3 18.15 53.55 18.15 53.7 18.1 53.9 18.05 54.05 17.95 54.35 17.85 54.35 17.4
L 54.35 13.65 55.8 13.65
Q 56.05 13.65 56.2 13.6 56.35 13.5 56.45 13.4 56.5 13.25 56.5 13.15 56.55 13 56.55 12.8 56.55 12.65 56.5 12.5 56.5 12.35 56.45 12.2 56.35 12.1 56.2 12.05 56.05 11.95 55.8 11.95
L 54.35 11.95 54.35 8.8
M 32.05 9.35
Q 31.75 9.35 31.5 9.35 31.25 9.35 31.05 9.4 30.85 9.4 30.7 9.45 30.55 9.5 30.45 9.6 30.3 9.7 30.2 9.8 30.1 9.95 30.05 10.1 30 10.3 29.95 10.55 29.95 10.75 29.95 11.05
L 29.95 16.95
Q 29.95 17.55 30.05 17.85 30.1 18.05 30.2 18.15 30.3 18.3 30.45 18.35 30.7 18.5 31.05 18.55 31.45 18.6 32.05 18.6 32.35 18.6 32.6 18.6 32.85 18.55 33.05 18.55 33.25 18.5 33.45 18.5 33.7 18.45 33.9 18.45 34.05 18.4 34.25 18.4 34.4 18.35 34.6 18.3 35 18.25 35.5 18.2 35.7 18.15 35.85 18.1 36 18.05 36.05 17.95 36.1 17.9 36.15 17.8 36.2 17.7 36.2 17.55 36.2 17.25 36.15 17.05 36.1 16.85 36 16.7 35.95 16.6 35.85 16.55 35.7 16.5 35.6 16.5 35.5 16.5 35.45 16.5 35.35 16.5 35.3 16.55 35 16.6 34.8 16.65 34.55 16.65 34.35 16.7 34.15 16.7 33.95 16.75 33.75 16.8 33.55 16.8 33.4 16.85 33.25 16.85 33.05 16.85 32.85 16.9 32.65 16.9 32.4 16.9 32.2 16.95 31.9 16.95
L 31.85 16.95
Q 31.75 16.95 31.75 16.75 31.7 16.55 31.7 16.15 31.7 15.4 31.7 13.8 31.7 13.55 31.7 13.25 31.75 12.95 31.75 12.6 31.75 12.3 31.75 11.95 31.8 11.6 31.8 11.2 31.95 11.1 32.15 11.05 32.35 11 32.55 11
L 34.5 11
Q 34.85 11 35.05 10.8 35.15 10.7 35.2 10.55 35.25 10.4 35.25 10.15 35.25 9.9 35.2 9.7 35.15 9.55 35.05 9.45 34.85 9.35 34.5 9.35
L 32.05 9.35
M 41.6 8.75
Q 41.6 8.55 41.55 8.4 41.5 8.25 41.4 8.2 41.25 8.15 41.1 8.1 40.95 8.05 40.75 8.05 40.55 8.05 40.35 8.1 40.2 8.15 40.1 8.2 39.95 8.25 39.9 8.4 39.85 8.55 39.85 8.75
L 39.85 13.5 38.6 13.5 38.6 9.05
Q 38.6 8.85 38.5 8.7 38.45 8.55 38.3 8.5 38.15 8.45 37.95 8.4 37.8 8.35 37.55 8.35 37.4 8.35 37.25 8.4 37.15 8.45 37 8.5 36.9 8.55 36.8 8.7 36.75 8.85 36.75 9.05
L 36.75 21.95
Q 36.75 22.15 36.85 22.25 36.9 22.4 37.05 22.5 37.2 22.55 37.35 22.6 37.5 22.6 37.65 22.6 37.85 22.6 38 22.6 38.2 22.55 38.35 22.5 38.45 22.4 38.55 22.25 38.6 22.15 38.6 21.95
L 38.6 15.2 39.85 15.2 39.85 22.4
Q 39.85 22.6 39.9 22.75 39.95 22.85 40.1 22.95 40.2 23 40.35 23.05 40.55 23.1 40.75 23.1 40.95 23.1 41.1 23.05 41.25 23 41.4 22.95 41.5 22.85 41.55 22.75 41.6 22.6 41.6 22.4
L 41.6 8.75 Z"/>

<path fill="#FFFFFF" stroke="none" d="
M 12.55 10.2
Q 12.55 9.3 11.9 8.65 11.25 8 10.35 8 9.45 8 8.8 8.65 8.15 9.3 8.15 10.2 8.15 11.1 8.8 11.75 9.45 12.4 10.35 12.4 11.25 12.4 11.9 11.75 12.55 11.1 12.55 10.2 Z"/>
</g>
</defs>

<g transform="matrix( 1, 0, 0, 1, 0,0) ">
<use xlink:href="#Layer0_0_FILL"/>
</g>
</svg>
