
<svg xmlns="http://www.w3.org/2000/svg" version="1.1" xmlns:xlink="http://www.w3.org/1999/xlink" preserveAspectRatio="none" x="0px" y="0px" width="76px" height="50px" viewBox="0 0 76 50">
<defs>
<g id="Layer0_0_FILL">
<path fill="#D0E9DC" stroke="none" d="
M 75.5 23.75
L 75.5 15.3
Q 75.5 0.3 60.5 0.3
L 15.5 0.3
Q 13.65 0.3 12.2 0.5 0.5 2 0.5 15.3
L 0.5 23.75 0.5 34.7
Q 0.5 49.7 15.5 49.7
L 60.5 49.7
Q 62.35 49.7 63.8 49.5 75.5 48 75.5 34.7
L 75.5 23.75
M 12 17.3
Q 13.5 13.1 16.75 9 17 8.7 17.25 8.7
L 19.85 8.7
Q 20.3 8.7 20.05 9.1 17.25 13.5 15.95 17.6 14.6 21.75 14.6 25.85 14.6 29.95 15.9 34.05 17.25 38.15 20.05 42.55 20.15 42.7 20.15 42.85 20.1 42.95 19.85 42.95
L 17.25 42.95
Q 17 42.95 16.75 42.65 13.5 38.55 12 34.4 10.5 30.3 10.5 25.85 10.5 21.4 12 17.3
M 43.95 9.2
Q 43.95 8.7 44.4 8.7
L 47.5 8.7
Q 47.95 8.7 47.95 9.2
L 47.95 21.5 52.7 21.5
Q 52.9 21.5 53.05 21.6 53.2 21.75 53.2 21.9
L 53.2 24.35
Q 53.2 24.55 53.05 24.7 52.9 24.85 52.7 24.85
L 47.95 24.85 47.95 41.5
Q 47.95 41.95 47.5 41.95
L 44.4 41.95
Q 43.95 41.95 43.95 41.5
L 43.95 9.2
M 36.55 11.35
Q 38.1 11.35 38.65 12 39.15 12.65 39 13.95 38.8 17.15 37.75 20.1 36.7 23.05 34.85 25.7 33 28.3 30.45 30.6 27.85 32.85 24.6 34.65 24.3 34.8 24 34.8 23.7 34.75 23.5 34.45
L 22.1 32.5
Q 21.95 32.25 22 31.95 22.1 31.7 22.35 31.5 27.55 28.75 30.75 24.7 34 20.6 34.7 15.85 34.8 15.15 34.6 14.95 34.4 14.7 33.8 14.7
L 23.9 14.7
Q 23.45 14.7 23.45 14.2
L 23.45 11.75
Q 23.45 11.35 23.9 11.35
L 36.55 11.35
M 54.1 9.1
Q 53.9 8.7 54.3 8.7
L 56.9 8.7
Q 57.2 8.7 57.4 9 60.7 13.1 62.2 17.3 63.65 21.4 63.65 25.85 63.65 30.3 62.2 34.4 60.7 38.55 57.4 42.65 57.2 42.95 56.9 42.95
L 54.3 42.95
Q 54.1 42.95 54.05 42.85 54 42.7 54.1 42.55 56.95 38.15 58.25 34.05 59.55 29.95 59.55 25.85 59.55 21.75 58.25 17.6 56.9 13.5 54.1 9.1 Z"/>

<path fill="#1E1E1E" stroke="none" d="
M 54.3 8.7
Q 53.9 8.7 54.1 9.1 56.9 13.5 58.25 17.6 59.55 21.75 59.55 25.85 59.55 29.95 58.25 34.05 56.95 38.15 54.1 42.55 54 42.7 54.05 42.85 54.1 42.95 54.3 42.95
L 56.9 42.95
Q 57.2 42.95 57.4 42.65 60.7 38.55 62.2 34.4 63.65 30.3 63.65 25.85 63.65 21.4 62.2 17.3 60.7 13.1 57.4 9 57.2 8.7 56.9 8.7
L 54.3 8.7
M 38.65 12
Q 38.1 11.35 36.55 11.35
L 23.9 11.35
Q 23.45 11.35 23.45 11.75
L 23.45 14.2
Q 23.45 14.7 23.9 14.7
L 33.8 14.7
Q 34.4 14.7 34.6 14.95 34.8 15.15 34.7 15.85 34 20.6 30.75 24.7 27.55 28.75 22.35 31.5 22.1 31.7 22 31.95 21.95 32.25 22.1 32.5
L 23.5 34.45
Q 23.7 34.75 24 34.8 24.3 34.8 24.6 34.65 27.85 32.85 30.45 30.6 33 28.3 34.85 25.7 36.7 23.05 37.75 20.1 38.8 17.15 39 13.95 39.15 12.65 38.65 12
M 44.4 8.7
Q 43.95 8.7 43.95 9.2
L 43.95 41.5
Q 43.95 41.95 44.4 41.95
L 47.5 41.95
Q 47.95 41.95 47.95 41.5
L 47.95 24.85 52.7 24.85
Q 52.9 24.85 53.05 24.7 53.2 24.55 53.2 24.35
L 53.2 21.9
Q 53.2 21.75 53.05 21.6 52.9 21.5 52.7 21.5
L 47.95 21.5 47.95 9.2
Q 47.95 8.7 47.5 8.7
L 44.4 8.7
M 16.75 9
Q 13.5 13.1 12 17.3 10.5 21.4 10.5 25.85 10.5 30.3 12 34.4 13.5 38.55 16.75 42.65 17 42.95 17.25 42.95
L 19.85 42.95
Q 20.1 42.95 20.15 42.85 20.15 42.7 20.05 42.55 17.25 38.15 15.9 34.05 14.6 29.95 14.6 25.85 14.6 21.75 15.95 17.6 17.25 13.5 20.05 9.1 20.3 8.7 19.85 8.7
L 17.25 8.7
Q 17 8.7 16.75 9 Z"/>
</g>
</defs>

<g transform="matrix( 1, 0, 0, 1, 0,0) ">
<use xlink:href="#Layer0_0_FILL"/>
</g>
</svg>
