<svg xmlns="http://www.w3.org/2000/svg" xmlns:xlink="http://www.w3.org/1999/xlink" viewBox="0 0 126.67 86.97"><defs><style>.cls-1,.cls-3,.cls-5{fill:none;}.cls-2{clip-path:url(#clip-path);}.cls-3{stroke:#00a0e9;stroke-linejoin:round;}.cls-3,.cls-5{stroke-width:0.8px;}.cls-4{fill:#231815;}.cls-5{stroke:#231815;stroke-linejoin:bevel;}</style><clipPath id="clip-path" transform="translate(0 0)"><rect class="cls-1" width="126.67" height="86.97"/></clipPath></defs><title>자산 6</title><g id="레이어_2" data-name="레이어 2"><g id="레이어_1-2" data-name="레이어 1"><g class="cls-2"><path class="cls-3" d="M.4,34.84,46.32.4m0,34.44L.4.4M60.75,34.84,111.26.4m-9.11,34.44L69.85.4M92.5,69.12l33.82,16m-20-34.76-4.59,34.73" transform="translate(0 0)"/><path class="cls-4" d="M24.49,14.23v8.36h.67V18.42h1.3V17.8h-1.3V14.23Zm-5.4,1v.59h3a6.26,6.26,0,0,1-.3,1.32A5.46,5.46,0,0,1,21,18.67a6,6,0,0,1-1.12,1.18,7.88,7.88,0,0,1-1.26.82l.52.43a7.31,7.31,0,0,0,1.29-.9,6.55,6.55,0,0,0,1.2-1.33A5.93,5.93,0,0,0,22.51,17a8.94,8.94,0,0,0,.33-1.81Z" transform="translate(0 0)"/><path class="cls-4" d="M90.48,17H89.19V13.73h-.68v8.36h.68V17.62h1.29Zm-2.56,2.08c-.3.06-.71.13-1.23.2a13,13,0,0,1-1.4.12l-1.51,0v-4.9H83.1V20l2.16,0a12.74,12.74,0,0,0,1.48-.14l1.18-.19Z" transform="translate(0 0)"/><path class="cls-4" d="M66.84,70.15v8.36h.68v-4.3H68.8V73.6H67.52V70.15ZM66.26,76l-1.13.13c-.52,0-1,.08-1.4.09l-1.65,0v-2h3.07V71H61.41v.59h3.07v2H61.41v3.23h.74l1.47,0c.46,0,.95,0,1.47-.09s.92-.09,1.17-.14Z" transform="translate(0 0)"/><path class="cls-4" d="M104.24,71h2.47v4.27h-2.47ZM111,72.67h-1.3V69.34h-.67V77.7h.67V73.29H111Zm-3.64-2.26h-3.82v5.44h3.82Z" transform="translate(0 0)"/><polygon class="cls-3" points="11.22 52.19 35.17 86.57 1.29 69.38 31.07 52.19 11.22 86.57 11.22 52.19"/><path class="cls-4" d="M24.19,69.37H22.91V66h-.68v8.37h.68V70h1.28Zm-2.53,2.16a9.27,9.27,0,0,1-1,.13,12.88,12.88,0,0,1-1.32.1l-1.76,0V67.59h3.2V67H16.9v5.38h.77l1.46,0c.53,0,1,0,1.51-.1s.82-.09,1-.13Z" transform="translate(0 0)"/><path class="cls-5" d="M101.76,85.07l24.56,0-20-34.75L92.5,69.12ZM64.87,51.16,82.09,85.59H47.65Zm37.28-16.32H60.75L69.85.4h41.41Zm-55.83,0H.4V.4H46.32ZM35.17,86.57h-24L1.29,69.38l9.93-17.19H31.07Z" transform="translate(0 0)"/></g></g></g></svg>