
<svg xmlns="http://www.w3.org/2000/svg" version="1.1" xmlns:xlink="http://www.w3.org/1999/xlink" preserveAspectRatio="none" x="0px" y="0px" width="1280px" height="720px" viewBox="0 0 1280 720">
<defs>
<g id="Layer0_0_FILL">
<path fill="#FFFFFF" stroke="none" d="
M 821.15 455.7
L 821.15 425.65
Q 821.15 410.65 806.15 410.65
L 776.15 410.65
Q 761.15 410.65 761.15 425.65
L 761.15 455.7
Q 761.15 470.7 776.15 470.7
L 806.15 470.7
Q 821.15 470.7 821.15 455.7
M 885.95 370.65
Q 870.95 370.65 870.95 385.65
L 870.95 415.7
Q 870.95 430.7 885.95 430.7
L 915.95 430.7
Q 930.95 430.7 930.95 415.7
L 930.95 385.65
Q 930.95 370.65 915.95 370.65
L 885.95 370.65
M 806.15 330.65
L 776.15 330.65
Q 761.15 330.65 761.15 345.65
L 761.15 375.7
Q 761.15 390.7 776.15 390.7
L 806.15 390.7
Q 821.15 390.7 821.15 375.7
L 821.15 345.65
Q 821.15 330.65 806.15 330.65
M 429.1 425.65
Q 429.1 410.65 414.1 410.65
L 384.1 410.65
Q 369.1 410.65 369.1 425.65
L 369.1 455.7
Q 369.1 470.7 384.1 470.7
L 414.1 470.7
Q 429.1 470.7 429.1 455.7
L 429.1 425.65
M 384.1 330.65
Q 369.1 330.65 369.1 345.65
L 369.1 375.7
Q 369.1 390.7 384.1 390.7
L 414.1 390.7
Q 429.1 390.7 429.1 375.7
L 429.1 345.65
Q 429.1 330.65 414.1 330.65
L 384.1 330.65 Z"/>

<path fill="#1E1E1E" stroke="none" d="
M 856.85 402.55
Q 856.7 402.45 856.5 402.45
L 835.4 402.45
Q 835.2 402.45 835.05 402.55 834.9 402.7 834.9 402.9
L 834.9 406.05
Q 834.9 406.3 835.05 406.4 835.2 406.55 835.4 406.55
L 856.5 406.55
Q 856.7 406.55 856.85 406.4 857 406.3 857 406.05
L 857 402.9
Q 857 402.7 856.85 402.55
M 835.05 394.25
Q 834.9 394.4 834.9 394.6
L 834.9 397.75
Q 834.9 397.95 835.05 398.1 835.2 398.25 835.4 398.25
L 856.5 398.25
Q 856.7 398.25 856.85 398.1 857 397.95 857 397.75
L 857 394.6
Q 857 394.4 856.85 394.25 856.7 394.1 856.5 394.1
L 835.4 394.1
Q 835.2 394.1 835.05 394.25
M 744 406.55
Q 744.2 406.55 744.35 406.4 744.5 406.3 744.5 406.05
L 744.5 402.9
Q 744.5 402.7 744.35 402.55 744.2 402.45 744 402.45
L 722.9 402.45
Q 722.7 402.45 722.55 402.55 722.4 402.7 722.4 402.9
L 722.4 406.05
Q 722.4 406.3 722.55 406.4 722.7 406.55 722.9 406.55
L 744 406.55
M 722.9 394.1
Q 722.7 394.1 722.55 394.25 722.4 394.4 722.4 394.6
L 722.4 397.75
Q 722.4 397.95 722.55 398.1 722.7 398.25 722.9 398.25
L 744 398.25
Q 744.2 398.25 744.35 398.1 744.5 397.95 744.5 397.75
L 744.5 394.6
Q 744.5 394.4 744.35 394.25 744.2 394.1 744 394.1
L 722.9 394.1
M 684.85 364.05
Q 685.55 363.95 686.1 363.95 686.95 363.95 687.9 364.15 688.85 364.35 689.7 364.85 690.5 365.3 691.05 366.1 691.55 366.85 691.55 367.85 691.55 369.2 690.75 370.1 689.95 371.05 688.75 371.65 687.6 372.25 686.35 372.5 685.1 372.75 684.25 372.75
L 682.35 372.75
Q 682 372.75 681.9 372.85 681.8 372.9 681.8 373.3
L 681.8 376.25
Q 681.8 376.55 681.9 376.65 682 376.75 682.35 376.75
L 684.3 376.75
Q 686.25 376.75 687.6 377.15 689 377.5 689.9 378.2 690.75 378.85 691.2 379.7 691.6 380.55 691.6 381.5 691.6 384.15 689.65 385.5 689 385.95 688.25 386.2 687.45 386.5 686.6 386.6 685.75 386.7 684.85 386.65 683.95 386.6 683.15 386.55 682.05 386.45 681 386.15 679.95 385.85 678.9 385.55 678.35 385.3 678.15 385.45 677.95 385.55 677.9 385.9
L 677.55 388.95
Q 677.5 389.3 677.7 389.45 677.85 389.65 678.25 389.75 679.7 390.3 681.45 390.6 683.2 390.9 684.95 390.9 687.25 390.9 689.4 390.3 691.55 389.75 693.05 388.5 694.55 387.25 695.4 385.5 696.2 383.7 696.2 381.6 696.2 379.4 694.85 377.6 693.5 375.85 690.85 374.7 691.95 374.2 692.9 373.45 693.85 372.7 694.55 371.7 695.25 370.75 695.65 369.7 696 368.6 696 367.5 696 365.5 695.15 364 694.3 362.5 692.95 361.6 691.65 360.7 689.9 360.25 688.15 359.8 686.35 359.8 684.65 359.8 683 360.15 681.3 360.55 679.55 361.15 679.15 361.35 679 361.55 678.85 361.7 678.95 361.95
L 679.3 364.9
Q 679.4 365.25 679.6 365.35 679.8 365.45 680.3 365.25 680.9 365 681.7 364.75 682.5 364.5 683.3 364.35 684.1 364.15 684.85 364.05
M 695.4 410.3
Q 695.25 410.1 695 410.1
L 680.35 410.1
Q 679.75 410.1 679.65 410.25 679.5 410.35 679.5 410.8
L 679.3 425.55
Q 679.3 426.9 680.85 426.25 682.1 425.8 683.5 425.55 684.9 425.25 686.2 425.25 689.5 425.25 690.9 426.8 692.35 428.3 692.35 430.9 692.35 433.6 690.55 435.1 688.85 436.65 686.15 436.65 685.45 436.65 684.6 436.55 683.8 436.5 682.95 436.35 682.1 436.15 681.3 435.95 680.5 435.7 679.95 435.4 679.1 435 679.1 435.7
L 679.1 438.95
Q 679.1 439.25 679.1 439.4 679.15 439.5 679.4 439.7 680.05 440 681 440.2 681.9 440.45 682.85 440.6 683.8 440.7 684.6 440.8 685.45 440.85 685.85 440.85 688.15 440.85 690.2 440.2 692.3 439.55 693.7 438.25 696.85 435.45 696.85 430.4 696.85 428.3 696.1 426.65 695.35 424.95 694.05 423.75 692.75 422.6 691 421.95 689.25 421.35 687.25 421.35 685.3 421.35 683.7 421.7
L 683.85 414.3 695 414.3
Q 695.25 414.3 695.4 414.1 695.5 413.95 695.5 413.7
L 695.5 410.65
Q 695.5 410.45 695.4 410.3
M 595.5 360.45
Q 593.55 361.1 592.05 361.9 591.65 362.1 591.5 362.35 591.4 362.5 591.5 362.7
L 592.05 365.75
Q 592.15 366.1 592.45 366.15 592.75 366.15 593.1 365.95 594.9 364.9 596.4 364.45 597.95 364 599.6 364 601.35 364 602.5 365.25 603.7 366.5 603.7 368.4 603.7 370.1 602.1 372.7 600.5 375.35 597.15 379.3
L 591.05 386.55
Q 590.85 386.85 590.65 387.15 590.5 387.5 590.5 387.8
L 590.5 390.1
Q 590.5 390.6 591.25 390.6
L 608.3 390.6
Q 608.85 390.6 608.85 389.9
L 608.85 387.1
Q 608.85 386.5 608.3 386.5
L 596.55 386.5
Q 597.55 385.35 598.55 384.2 599.55 383 600.4 381.9 601.5 380.6 602.9 379 604.25 377.35 605.45 375.6 606.65 373.8 607.45 371.95 608.25 370.1 608.25 368.3 608.25 366.2 607.55 364.6 606.85 363 605.7 361.95 604.55 360.9 602.9 360.35 601.3 359.8 599.35 359.8 597.5 359.8 595.5 360.45
M 608 414.3
Q 608.25 414.3 608.4 414.1 608.5 413.95 608.5 413.7
L 608.5 410.65
Q 608.5 410.45 608.4 410.3 608.25 410.1 608 410.1
L 593.35 410.1
Q 592.75 410.1 592.65 410.25 592.5 410.35 592.5 410.8
L 592.3 425.55
Q 592.3 426.9 593.85 426.25 595.1 425.8 596.5 425.55 597.9 425.25 599.2 425.25 602.5 425.25 603.9 426.8 605.35 428.3 605.35 430.9 605.35 433.6 603.55 435.1 601.85 436.65 599.15 436.65 598.45 436.65 597.6 436.55 596.8 436.5 595.95 436.35 595.1 436.15 594.3 435.95 593.5 435.7 592.95 435.4 592.1 435 592.1 435.7
L 592.1 438.95
Q 592.1 439.25 592.1 439.4 592.15 439.5 592.4 439.7 593.05 440 594 440.2 594.9 440.45 595.85 440.6 596.8 440.7 597.6 440.8 598.45 440.85 598.85 440.85 601.15 440.85 603.2 440.2 605.3 439.55 606.7 438.25 609.85 435.45 609.85 430.4 609.85 428.3 609.1 426.65 608.35 424.95 607.05 423.75 605.75 422.6 604 421.95 602.25 421.35 600.25 421.35 598.3 421.35 596.7 421.7
L 596.85 414.3 608 414.3
M 654.45 398.75
Q 654.45 398.25 653.95 398.25
L 645.5 398.25 645.5 389.85
Q 645.5 389.7 645.4 389.5 645.25 389.4 645.05 389.4
L 641.75 389.4
Q 641.6 389.4 641.4 389.5 641.3 389.7 641.3 389.85
L 641.3 398.25 632.8 398.25
Q 632.6 398.25 632.5 398.4 632.35 398.55 632.35 398.75
L 632.35 401.85
Q 632.35 402.05 632.5 402.2 632.6 402.35 632.8 402.35
L 641.3 402.35 641.3 410.8
Q 641.3 411.3 641.75 411.3
L 645.05 411.3
Q 645.5 411.3 645.5 410.8
L 645.5 402.35 653.95 402.35
Q 654.45 402.35 654.45 401.85
L 654.45 398.75
M 352.65 406.55
Q 352.85 406.55 353 406.4 353.15 406.3 353.15 406.05
L 353.15 402.9
Q 353.15 402.7 353 402.55 352.85 402.45 352.65 402.45
L 331.55 402.45
Q 331.35 402.45 331.2 402.55 331.05 402.7 331.05 402.9
L 331.05 406.05
Q 331.05 406.3 331.2 406.4 331.35 406.55 331.55 406.55
L 352.65 406.55
M 353.15 394.6
Q 353.15 394.4 353 394.25 352.85 394.1 352.65 394.1
L 331.55 394.1
Q 331.35 394.1 331.2 394.25 331.05 394.4 331.05 394.6
L 331.05 397.75
Q 331.05 397.95 331.2 398.1 331.35 398.25 331.55 398.25
L 352.65 398.25
Q 352.85 398.25 353 398.1 353.15 397.95 353.15 397.75
L 353.15 394.6
M 291.15 360.45
Q 289.2 361.1 287.7 361.9 287.3 362.1 287.15 362.35 287.05 362.5 287.15 362.7
L 287.7 365.75
Q 287.8 366.1 288.1 366.15 288.4 366.15 288.75 365.95 290.55 364.9 292.05 364.45 293.6 364 295.25 364 297 364 298.15 365.25 299.35 366.5 299.35 368.4 299.35 370.1 297.75 372.7 296.15 375.35 292.8 379.3
L 286.7 386.55
Q 286.5 386.85 286.3 387.15 286.15 387.5 286.15 387.8
L 286.15 390.1
Q 286.15 390.6 286.9 390.6
L 303.95 390.6
Q 304.5 390.6 304.5 389.9
L 304.5 387.1
Q 304.5 386.5 303.95 386.5
L 292.2 386.5
Q 293.2 385.35 294.2 384.2 295.2 383 296.05 381.9 297.15 380.6 298.55 379 299.9 377.35 301.1 375.6 302.3 373.8 303.1 371.95 303.9 370.1 303.9 368.3 303.9 366.2 303.2 364.6 302.5 363 301.35 361.95 300.2 360.9 298.55 360.35 296.95 359.8 295 359.8 293.15 359.8 291.15 360.45
M 302.65 410.75
Q 302.65 410.4 302.6 410.3 302.55 410.15 302.25 410.15
L 298.6 410.15
Q 298.2 410.15 298.1 410.25 298 410.35 297.8 410.7
L 285.4 429.3
Q 285.25 429.45 285.1 429.75 284.9 430.05 284.9 430.3
L 284.9 433.3
Q 284.9 433.6 285.05 433.65 285.2 433.75 285.55 433.75
L 298.35 433.75 298.35 439.85
Q 298.35 440.25 298.5 440.4 298.65 440.55 299.1 440.55
L 302 440.55
Q 302.4 440.55 302.5 440.4 302.65 440.3 302.65 439.85
L 302.65 433.75 306.35 433.75
Q 306.7 433.75 306.85 433.65 307 433.55 307 433.15
L 307 430.25
Q 307 429.85 306.85 429.75 306.7 429.65 306.35 429.65
L 302.65 429.65 302.65 410.75
M 298.35 429.65
L 289.75 429.65 298.35 416.6 298.35 429.65
M 202.2 366.05
Q 202 366.25 202 366.45 201.95 366.7 202.1 366.85
L 203.9 369
Q 204.05 369.15 204.3 369.1 204.55 369.1 204.8 368.95
L 207.75 366.35 207.75 390.05
Q 207.75 390.55 208.3 390.55
L 211.5 390.55
Q 212 390.55 212 390.05
L 212 361.25
Q 212 360.45 211.85 360.3 211.75 360.15 211.05 360.15
L 208.95 360.15
Q 208.8 360.15 208.6 360.25 208.4 360.3 208.35 360.4
L 202.2 366.05
M 211.6 410.15
Q 211.2 410.15 211.1 410.25 211 410.35 210.8 410.7
L 198.4 429.3
Q 198.25 429.45 198.1 429.75 197.9 430.05 197.9 430.3
L 197.9 433.3
Q 197.9 433.6 198.05 433.65 198.2 433.75 198.55 433.75
L 211.35 433.75 211.35 439.85
Q 211.35 440.25 211.5 440.4 211.65 440.55 212.1 440.55
L 215 440.55
Q 215.4 440.55 215.5 440.4 215.65 440.3 215.65 439.85
L 215.65 433.75 219.35 433.75
Q 219.7 433.75 219.85 433.65 220 433.55 220 433.15
L 220 430.25
Q 220 429.85 219.85 429.75 219.7 429.65 219.35 429.65
L 215.65 429.65 215.65 410.75
Q 215.65 410.4 215.6 410.3 215.55 410.15 215.25 410.15
L 211.6 410.15
M 211.35 429.65
L 202.75 429.65 211.35 416.6 211.35 429.65
M 254.15 389.85
Q 254.15 389.7 254.05 389.5 253.9 389.4 253.7 389.4
L 250.4 389.4
Q 250.25 389.4 250.05 389.5 249.95 389.7 249.95 389.85
L 249.95 398.25 241.45 398.25
Q 241.25 398.25 241.15 398.4 241 398.55 241 398.75
L 241 401.85
Q 241 402.05 241.15 402.2 241.25 402.35 241.45 402.35
L 249.95 402.35 249.95 410.8
Q 249.95 411.3 250.4 411.3
L 253.7 411.3
Q 254.15 411.3 254.15 410.8
L 254.15 402.35 262.6 402.35
Q 263.1 402.35 263.1 401.85
L 263.1 398.75
Q 263.1 398.25 262.6 398.25
L 254.15 398.25 254.15 389.85 Z"/>
</g>

<path id="Layer0_0_1_STROKES" stroke="#DBDBDB" stroke-width="3" stroke-linejoin="round" stroke-linecap="round" fill="none" d="
M 776.15 330.65
L 806.15 330.65
Q 821.15 330.65 821.15 345.65
L 821.15 375.7
Q 821.15 390.7 806.15 390.7
L 776.15 390.7
Q 761.15 390.7 761.15 375.7
L 761.15 345.65
Q 761.15 330.65 776.15 330.65 Z
M 885.95 370.65
L 915.95 370.65
Q 930.95 370.65 930.95 385.65
L 930.95 415.7
Q 930.95 430.7 915.95 430.7
L 885.95 430.7
Q 870.95 430.7 870.95 415.7
L 870.95 385.65
Q 870.95 370.65 885.95 370.65 Z
M 776.15 410.65
L 806.15 410.65
Q 821.15 410.65 821.15 425.65
L 821.15 455.7
Q 821.15 470.7 806.15 470.7
L 776.15 470.7
Q 761.15 470.7 761.15 455.7
L 761.15 425.65
Q 761.15 410.65 776.15 410.65 Z
M 384.1 330.65
L 414.1 330.65
Q 429.1 330.65 429.1 345.65
L 429.1 375.7
Q 429.1 390.7 414.1 390.7
L 384.1 390.7
Q 369.1 390.7 369.1 375.7
L 369.1 345.65
Q 369.1 330.65 384.1 330.65 Z
M 384.1 410.65
L 414.1 410.65
Q 429.1 410.65 429.1 425.65
L 429.1 455.7
Q 429.1 470.7 414.1 470.7
L 384.1 470.7
Q 369.1 470.7 369.1 455.7
L 369.1 425.65
Q 369.1 410.65 384.1 410.65 Z"/>

<path id="Layer0_0_2_STROKES" stroke="#1E1E1E" stroke-width="3" stroke-linejoin="miter" stroke-linecap="butt" stroke-miterlimit="3" fill="none" d="
M 668.3 400.1
L 706.5 400.1
M 758.8 400.15
L 821.55 400.15
M 276.95 400.1
L 315.15 400.1
M 189.95 400.1
L 228.15 400.1
M 581.3 400.1
L 619.5 400.1
M 366.75 400.15
L 429.5 400.15"/>
</defs>

<g transform="matrix( 1, 0, 0, 1, 0,0) ">
<use xlink:href="#Layer0_0_FILL"/>

<use xlink:href="#Layer0_0_1_STROKES"/>

<use xlink:href="#Layer0_0_2_STROKES"/>
</g>
</svg>
