
<svg xmlns="http://www.w3.org/2000/svg" version="1.1" xmlns:xlink="http://www.w3.org/1999/xlink" preserveAspectRatio="none" x="0px" y="0px" width="1280px" height="720px" viewBox="0 0 1280 720">
<defs>
<g id="Layer0_0_FILL">
<path fill="#3567D7" stroke="none" d="
M 727.75 520.8
Q 727.4 521.6 727.4 522.45 727.4 523.35 727.75 524.1 728.05 524.9 728.65 525.45 729.2 526 729.95 526.35 730.7 526.65 731.6 526.65 732.5 526.65 733.25 526.35 734 526 734.6 525.45 735.15 524.9 735.45 524.1 735.8 523.35 735.8 522.45 735.8 521.6 735.45 520.8 735.15 520.05 734.6 519.5 734 518.95 733.25 518.6 732.5 518.3 731.6 518.3 730.7 518.3 729.95 518.6 729.2 518.95 728.65 519.5 728.05 520.05 727.75 520.8
M 730.3 521.2
Q 730.85 520.6 731.6 520.6 732.35 520.6 732.85 521.2 733.4 521.75 733.4 522.45 733.4 523.2 732.85 523.75 732.35 524.35 731.6 524.35 730.85 524.35 730.3 523.75 729.8 523.2 729.8 522.45 729.8 521.75 730.3 521.2
M 710.35 519.35
Q 709.85 519.35 709.75 519.45 709.65 519.55 709.6 519.95
L 709.4 532.85
Q 709.4 534.05 710.8 533.5 711.9 533.1 713.1 532.85 714.35 532.6 715.45 532.6 718.35 532.6 719.6 533.95 720.85 535.3 720.85 537.55 720.85 539.9 719.3 541.25 717.8 542.55 715.45 542.55 714.8 542.55 714.1 542.5 713.35 542.45 712.65 542.3 711.9 542.15 711.2 541.95 710.5 541.75 710 541.45 709.25 541.15 709.25 541.75
L 709.25 544.6
Q 709.25 544.85 709.25 544.95 709.3 545.05 709.5 545.25 710.1 545.5 710.9 545.7 711.75 545.9 712.55 546 713.35 546.15 714.1 546.2 714.8 546.25 715.15 546.25 717.15 546.25 719 545.65 720.8 545.1 722.05 543.95 724.8 541.5 724.8 537.1 724.8 535.3 724.15 533.8 723.5 532.35 722.35 531.3 721.2 530.25 719.7 529.75 718.15 529.2 716.4 529.2 714.65 529.2 713.3 529.5
L 713.45 523 723.2 523
Q 723.4 523 723.5 522.85 723.6 522.7 723.6 522.5
L 723.6 519.8
Q 723.6 519.65 723.5 519.5 723.4 519.35 723.2 519.35
L 710.35 519.35
M 701.85 519.25
Q 700.6 519.1 699.6 519.1 696.35 519.1 694.1 520.25 691.85 521.4 690.5 523.35 689.1 525.3 688.5 527.95 687.9 530.6 687.9 533.55 687.9 540.05 690.15 543.2 692.35 546.25 696.5 546.25 698.5 546.25 700.1 545.55 701.7 544.85 702.85 543.65 703.95 542.45 704.55 540.75 705.15 539.1 705.15 537.2 705.15 535.2 704.55 533.6 703.95 532 702.8 530.85 701.7 529.7 700.15 529.1 698.6 528.5 696.7 528.5 696 528.5 695.3 528.7 694.6 528.85 693.95 529.2 693.3 529.45 692.8 529.85 692.25 530.25 691.95 530.7 692.2 529 692.7 527.55 693.2 526.05 694.05 525 694.95 523.9 696.2 523.3 697.5 522.7 699.3 522.7 700.55 522.7 701.6 522.8 702.6 522.9 703.5 523.25 704 523.45 704.05 522.95
L 704.15 520.15
Q 704.2 519.8 703.9 519.7 703.1 519.4 701.85 519.25
M 696.55 542.8
Q 695.6 542.8 694.7 542.35 693.9 541.9 693.25 541.1 692.65 540.3 692.3 539.25 691.95 538.2 691.95 537 691.95 534.9 693.25 533.5 694.55 532.15 696.85 532.15 698.95 532.15 700.15 533.55 701.3 534.9 701.3 537.35 701.3 539.85 700 541.35 698.65 542.8 696.55 542.8
M 596.5 518.6
Q 595.75 518.95 595.2 519.5 594.6 520.05 594.3 520.8 593.95 521.6 593.95 522.45 593.95 523.35 594.3 524.1 594.6 524.9 595.2 525.45 595.75 526 596.5 526.35 597.25 526.65 598.15 526.65 599.05 526.65 599.8 526.35 600.55 526 601.15 525.45 601.7 524.9 602 524.1 602.35 523.35 602.35 522.45 602.35 521.6 602 520.8 601.7 520.05 601.15 519.5 600.55 518.95 599.8 518.6 599.05 518.3 598.15 518.3 597.25 518.3 596.5 518.6
M 599.4 521.2
Q 599.95 521.75 599.95 522.45 599.95 523.2 599.4 523.75 598.9 524.35 598.15 524.35 597.4 524.35 596.85 523.75 596.35 523.2 596.35 522.45 596.35 521.75 596.85 521.2 597.4 520.6 598.15 520.6 598.9 520.6 599.4 521.2
M 590.05 519.5
Q 589.95 519.35 589.75 519.35
L 576.9 519.35
Q 576.4 519.35 576.3 519.45 576.2 519.55 576.15 519.95
L 575.95 532.85
Q 575.95 534.05 577.35 533.5 578.45 533.1 579.65 532.85 580.9 532.6 582 532.6 584.9 532.6 586.15 533.95 587.4 535.3 587.4 537.55 587.4 539.9 585.85 541.25 584.35 542.55 582 542.55 581.35 542.55 580.65 542.5 579.9 542.45 579.2 542.3 578.45 542.15 577.75 541.95 577.05 541.75 576.55 541.45 575.8 541.15 575.8 541.75
L 575.8 544.6
Q 575.8 544.85 575.8 544.95 575.85 545.05 576.05 545.25 576.65 545.5 577.45 545.7 578.3 545.9 579.1 546 579.9 546.15 580.65 546.2 581.35 546.25 581.7 546.25 583.7 546.25 585.55 545.65 587.35 545.1 588.6 543.95 591.35 541.5 591.35 537.1 591.35 535.3 590.7 533.8 590.05 532.35 588.9 531.3 587.75 530.25 586.25 529.75 584.7 529.2 582.95 529.2 581.2 529.2 579.85 529.5
L 580 523 589.75 523
Q 589.95 523 590.05 522.85 590.15 522.7 590.15 522.5
L 590.15 519.8
Q 590.15 519.65 590.05 519.5
M 562.75 523.3
Q 564.05 522.7 565.85 522.7 567.1 522.7 568.15 522.8 569.15 522.9 570.05 523.25 570.55 523.45 570.6 522.95
L 570.7 520.15
Q 570.75 519.8 570.45 519.7 569.65 519.4 568.4 519.25 567.15 519.1 566.15 519.1 562.9 519.1 560.65 520.25 558.4 521.4 557.05 523.35 555.65 525.3 555.05 527.95 554.45 530.6 554.45 533.55 554.45 540.05 556.7 543.2 558.9 546.25 563.05 546.25 565.05 546.25 566.65 545.55 568.25 544.85 569.4 543.65 570.5 542.45 571.1 540.75 571.7 539.1 571.7 537.2 571.7 535.2 571.1 533.6 570.5 532 569.35 530.85 568.25 529.7 566.7 529.1 565.15 528.5 563.25 528.5 562.55 528.5 561.85 528.7 561.15 528.85 560.5 529.2 559.85 529.45 559.35 529.85 558.8 530.25 558.5 530.7 558.75 529 559.25 527.55 559.75 526.05 560.6 525 561.5 523.9 562.75 523.3
M 563.4 532.15
Q 565.5 532.15 566.7 533.55 567.85 534.9 567.85 537.35 567.85 539.85 566.55 541.35 565.2 542.8 563.1 542.8 562.15 542.8 561.25 542.35 560.45 541.9 559.8 541.1 559.2 540.3 558.85 539.25 558.5 538.2 558.5 537 558.5 534.9 559.8 533.5 561.1 532.15 563.4 532.15 Z"/>

<path fill="#4BAEF3" stroke="none" d="
M 411.35 287.05
L 411.35 267.05
Q 411.35 256.55 400.85 256.55
L 377.05 256.55
Q 366.55 256.55 366.55 267.05
L 366.55 287.05
Q 366.55 297.55 377.05 297.55
L 400.85 297.55
Q 411.35 297.55 411.35 287.05
M 388 270.15
Q 388.15 270.4 388.25 270.65
L 390.5 270.65 390.5 267.95
Q 390.5 267.3 390.9 267.1 391.1 267 391.35 266.95 391.55 266.85 391.8 266.85 392.1 266.85 392.35 266.95 392.65 267 392.85 267.1 393.25 267.3 393.25 267.95
L 393.25 284.95
Q 393.25 285.2 393.15 285.45 393.05 285.65 392.85 285.8 392.65 285.9 392.35 286 392.1 286.05 391.8 286.05 391.55 286.05 391.35 286 391.1 285.9 390.9 285.8 390.7 285.65 390.6 285.45 390.5 285.2 390.5 284.95
L 390.5 278.4 388.35 278.4
Q 388.2 278.7 388.05 279 387.9 279.25 387.75 279.5 387.1 280.35 386.25 280.8 385.4 281.3 384.3 281.3 383.8 281.3 383.35 281.15 382.85 281.05 382.4 280.8 382 280.6 381.65 280.25 381.3 279.95 381 279.5 380.7 279.05 380.45 278.55 380.2 278.05 380.05 277.4 379.85 276.8 379.8 276.1 379.7 275.4 379.7 274.6 379.7 273.8 379.8 273.1 379.85 272.4 380.05 271.75 380.2 271.15 380.45 270.65 380.7 270.15 381 269.7 381.3 269.3 381.65 268.95 382 268.6 382.4 268.35 382.85 268.15 383.35 268 383.8 267.9 384.3 267.9 385.4 267.9 386.25 268.35 386.65 268.6 387.05 268.95 387.45 269.3 387.75 269.7 387.9 269.9 388 270.15
M 394.05 267.55
Q 394.05 267.25 394.15 267.05 394.25 266.85 394.45 266.7 394.6 266.6 394.85 266.55 395.05 266.45 395.3 266.45 395.6 266.45 395.9 266.55 396.15 266.6 396.35 266.7 396.55 266.85 396.65 267.05 396.75 267.25 396.75 267.55
L 396.75 285.55
Q 396.75 286.15 396.35 286.4 396.15 286.5 395.9 286.55 395.6 286.6 395.3 286.6 395.05 286.6 394.85 286.55 394.6 286.5 394.45 286.4 394.05 286.15 394.05 285.55
L 394.05 267.55
M 390.5 275.8
L 390.5 273.2 388.9 273.2
Q 388.9 273.55 388.95 273.9 388.95 274.25 388.95 274.6 388.95 274.9 388.95 275.2 388.95 275.5 388.9 275.8
L 390.5 275.8
M 385.75 271.55
Q 385.45 271.05 385.1 270.75 384.75 270.5 384.35 270.5 383.9 270.5 383.5 270.75 383.15 271.05 382.9 271.55 382.4 272.65 382.4 274.6 382.4 275.55 382.5 276.3 382.65 277.05 382.9 277.6 383.15 278.15 383.5 278.4 383.9 278.7 384.35 278.7 384.75 278.7 385.1 278.4 385.45 278.15 385.75 277.6 386 277.05 386.1 276.3 386.25 275.55 386.25 274.6 386.25 273.65 386.1 272.85 386 272.1 385.75 271.55 Z"/>

<path fill="#FFFFFF" stroke="none" d="
M 394.15 267.05
Q 394.05 267.25 394.05 267.55
L 394.05 285.55
Q 394.05 286.15 394.45 286.4 394.6 286.5 394.85 286.55 395.05 286.6 395.3 286.6 395.6 286.6 395.9 286.55 396.15 286.5 396.35 286.4 396.75 286.15 396.75 285.55
L 396.75 267.55
Q 396.75 267.25 396.65 267.05 396.55 266.85 396.35 266.7 396.15 266.6 395.9 266.55 395.6 266.45 395.3 266.45 395.05 266.45 394.85 266.55 394.6 266.6 394.45 266.7 394.25 266.85 394.15 267.05
M 388.25 270.65
Q 388.15 270.4 388 270.15 387.9 269.9 387.75 269.7 387.45 269.3 387.05 268.95 386.65 268.6 386.25 268.35 385.4 267.9 384.3 267.9 383.8 267.9 383.35 268 382.85 268.15 382.4 268.35 382 268.6 381.65 268.95 381.3 269.3 381 269.7 380.7 270.15 380.45 270.65 380.2 271.15 380.05 271.75 379.85 272.4 379.8 273.1 379.7 273.8 379.7 274.6 379.7 275.4 379.8 276.1 379.85 276.8 380.05 277.4 380.2 278.05 380.45 278.55 380.7 279.05 381 279.5 381.3 279.95 381.65 280.25 382 280.6 382.4 280.8 382.85 281.05 383.35 281.15 383.8 281.3 384.3 281.3 385.4 281.3 386.25 280.8 387.1 280.35 387.75 279.5 387.9 279.25 388.05 279 388.2 278.7 388.35 278.4
L 390.5 278.4 390.5 284.95
Q 390.5 285.2 390.6 285.45 390.7 285.65 390.9 285.8 391.1 285.9 391.35 286 391.55 286.05 391.8 286.05 392.1 286.05 392.35 286 392.65 285.9 392.85 285.8 393.05 285.65 393.15 285.45 393.25 285.2 393.25 284.95
L 393.25 267.95
Q 393.25 267.3 392.85 267.1 392.65 267 392.35 266.95 392.1 266.85 391.8 266.85 391.55 266.85 391.35 266.95 391.1 267 390.9 267.1 390.5 267.3 390.5 267.95
L 390.5 270.65 388.25 270.65
M 385.1 270.75
Q 385.45 271.05 385.75 271.55 386 272.1 386.1 272.85 386.25 273.65 386.25 274.6 386.25 275.55 386.1 276.3 386 277.05 385.75 277.6 385.45 278.15 385.1 278.4 384.75 278.7 384.35 278.7 383.9 278.7 383.5 278.4 383.15 278.15 382.9 277.6 382.65 277.05 382.5 276.3 382.4 275.55 382.4 274.6 382.4 272.65 382.9 271.55 383.15 271.05 383.5 270.75 383.9 270.5 384.35 270.5 384.75 270.5 385.1 270.75
M 390.5 273.2
L 390.5 275.8 388.9 275.8
Q 388.95 275.5 388.95 275.2 388.95 274.9 388.95 274.6 388.95 274.25 388.95 273.9 388.9 273.55 388.9 273.2
L 390.5 273.2 Z"/>
</g>

<path id="Layer0_0_1_STROKES" stroke="#3567D7" stroke-width="3" stroke-linejoin="round" stroke-linecap="round" fill="none" d="
M 772.2 563.9
L 756.15 529.45 640 280.1 523.875 529.475 507.85 563.9"/>

<path id="Layer0_0_2_STROKES" stroke="#3567D7" stroke-width="3" stroke-linejoin="miter" stroke-linecap="round" stroke-miterlimit="4" fill="none" d="
M 756.15 529.45
Q 745.5 531 738.5 539.3 731.25 547.3 731.25 558.2
L 731.8 563.9
M 523.875 529.475
Q 534.3279296875 531.0884765625 541.55 539.3 548.55 547.3 548.55 558.2 548.55 562.1 548 563.9"/>
</defs>

<g transform="matrix( 1, 0, 0, 1, 0,0) ">
<use xlink:href="#Layer0_0_FILL"/>

<use xlink:href="#Layer0_0_1_STROKES"/>

<use xlink:href="#Layer0_0_2_STROKES"/>
</g>
</svg>
