
<svg xmlns="http://www.w3.org/2000/svg" version="1.1" xmlns:xlink="http://www.w3.org/1999/xlink" preserveAspectRatio="none" x="0px" y="0px" width="1280px" height="720px" viewBox="0 0 1280 720">
<defs>
<g id="Layer0_0_FILL">
<path fill="#FFFFFF" stroke="none" d="
M 545.5 537.5
Q 545.5 522.5 530.5 522.5
L 480.5 522.5
Q 465.5 522.5 465.5 537.5
L 465.5 567.55
Q 465.5 582.55 480.5 582.55
L 530.5 582.55
Q 545.5 582.55 545.5 567.55
L 545.5 537.5
M 813.75 573.5
Q 814.5 570.9 814.5 567.55
L 814.5 537.5
Q 814.5 522.5 799.5 522.5
L 749.5 522.5
Q 734.5 522.5 734.5 537.5
L 734.5 567.55
Q 734.5 570.9 735.25 573.5 737.85 582.55 749.5 582.55
L 799.5 582.55
Q 811.15 582.55 813.75 573.5
M 678.5 537.5
Q 678.5 522.5 663.5 522.5
L 613.5 522.5
Q 598.5 522.5 598.5 537.5
L 598.5 567.55
Q 598.5 582.55 613.5 582.55
L 663.5 582.55
Q 678.5 582.55 678.5 567.55
L 678.5 537.5 Z"/>

<path fill="#1E1E1E" stroke="none" d="
M 716.55 554.5
Q 716.4 554.4 716.2 554.4
L 695.1 554.4
Q 694.9 554.4 694.75 554.5 694.6 554.65 694.6 554.85
L 694.6 558
Q 694.6 558.25 694.75 558.35 694.9 558.5 695.1 558.5
L 716.2 558.5
Q 716.4 558.5 716.55 558.35 716.7 558.25 716.7 558
L 716.7 554.85
Q 716.7 554.65 716.55 554.5
M 716.7 549.7
L 716.7 546.55
Q 716.7 546.35 716.55 546.2 716.4 546.05 716.2 546.05
L 695.1 546.05
Q 694.9 546.05 694.75 546.2 694.6 546.35 694.6 546.55
L 694.6 549.7
Q 694.6 549.9 694.75 550.05 694.9 550.2 695.1 550.2
L 716.2 550.2
Q 716.4 550.2 716.55 550.05 716.7 549.9 716.7 549.7
M 564.05 543
Q 563.6 542.55 563.1 543
L 561.4 544.75
Q 561.2 545 561.2 545.2 561.2 545.45 561.4 545.65
L 568.65 552.8 561.1 560.35
Q 560.9 560.55 560.9 560.85 560.9 561.1 561.1 561.3
L 562.8 563
Q 563.1 563.5 563.7 563
L 571.25 555.5 578.7 563
Q 578.9 563.15 579.2 563.15 579.45 563.15 579.65 563
L 581.3 561.2
Q 581.55 561 581.55 560.8 581.55 560.55 581.3 560.35
L 573.85 552.85 581.1 545.55
Q 581.3 545.4 581.3 545.1 581.3 544.8 581.1 544.6
L 579.5 542.9
Q 579.3 542.7 579.05 542.7 578.8 542.7 578.6 542.9
L 571.3 550.15 564.05 543 Z"/>
</g>

<g id="Duplicate_Items_Folder_vs3435_0_Layer1_0_FILL">
<path fill="#4A9DCB" stroke="none" d="
M 21.4 -20.5
L 13.25 -12.2 13.25 10.65 21.4 2.3 21.4 -20.5 Z"/>

<path fill="#99D1F0" stroke="none" d="
M 11.75 12.5
L 11.75 -12.5 -12.5 -12.5 -12.5 12.5 11.75 12.5 Z"/>

<path fill="#C2E9FF" stroke="none" d="
M 11.75 -12.5
Q 11.75390625 -12.8064453125 11.95 -13.05
L 21.1 -22.3 -2.85 -22.3 -12.5 -12.5 11.75 -12.5 Z"/>
</g>

<g id="Duplicate_Items_Folder_vs3435_0_Layer0_0_FILL">
<path fill="#2185BD" stroke="none" d="
M 22.65 -22.85
Q 22.4578125 -23.0474609375 22.15 -23.05
L -2.85 -23.05
Q -3.159765625 -23.0501953125 -3.4 -22.85
L -13.05 -13.05
Q -13.24765625 -12.80546875 -13.25 -12.5
L -13.25 12.5
Q -13.2474609375 12.8078125 -13.05 13 -12.8080078125 13.247265625 -12.5 13.25
L 12.5 13.25 12.65 13.2
Q 12.8759765625 13.194921875 13.05 13
L 22.7 3.15
Q 22.9056640625 2.955078125 22.9 2.65
L 22.9 -22.3
Q 22.897265625 -22.6080078125 22.65 -22.85
M 20.35 -21.55
L 12.2 -13.25 -10.75 -13.25 -2.55 -21.55 20.35 -21.55
M 13.25 -12.2
L 21.4 -20.5 21.4 2.3 13.25 10.65 13.25 -12.2
M 11.75 11.75
L -11.75 11.75 -11.75 -11.75 11.75 -11.75 11.75 11.75 Z"/>
</g>

<g id="Duplicate_Items_Folder_vs3435_copy_0_Layer1_0_FILL">
<path fill="#99D1F0" stroke="none" d="
M 11.75 -12.5
L -12.5 -12.5 -12.5 12.5 11.75 12.5 11.75 -12.5 Z"/>

<path fill="#C2E9FF" stroke="none" d="
M 11.75 -12.5
Q 11.75390625 -12.8064453125 11.95 -13.05
L 21.1 -22.3 -2.85 -22.3 -12.5 -12.5 11.75 -12.5 Z"/>

<path fill="#4A9DCB" stroke="none" d="
M 21.4 -20.5
L 13.25 -12.2 13.25 10.65 21.4 2.3 21.4 -20.5 Z"/>
</g>

<g id="Duplicate_Items_Folder_vs3435_copy_0_Layer0_0_FILL">
<path fill="#2185BD" stroke="none" d="
M 22.65 -22.85
Q 22.4578125 -23.0474609375 22.15 -23.05
L -2.85 -23.05
Q -3.159765625 -23.0501953125 -3.4 -22.85
L -13.05 -13.05
Q -13.24765625 -12.80546875 -13.25 -12.5
L -13.25 12.5
Q -13.2474609375 12.8078125 -13.05 13 -12.8080078125 13.247265625 -12.5 13.25
L 12.5 13.25 12.65 13.2
Q 12.8759765625 13.194921875 13.05 13
L 22.7 3.15
Q 22.9056640625 2.955078125 22.9 2.65
L 22.9 -22.3
Q 22.897265625 -22.6080078125 22.65 -22.85
M 13.25 -12.2
L 21.4 -20.5 21.4 2.3 13.25 10.65 13.25 -12.2
M 20.35 -21.55
L 12.2 -13.25 -10.75 -13.25 -2.55 -21.55 20.35 -21.55
M 11.75 11.75
L -11.75 11.75 -11.75 -11.75 11.75 -11.75 11.75 11.75 Z"/>
</g>

<path id="Layer0_0_1_STROKES" stroke="#BBDECB" stroke-width="5" stroke-linejoin="round" stroke-linecap="round" fill="none" d="
M 247.5 208
L 452.5 208
Q 467.5 208 467.5 223
L 467.5 416
Q 467.5 431 452.5 431
L 247.5 431
Q 232.5 431 232.5 416
L 232.5 223
Q 232.5 208 247.5 208 Z"/>

<path id="Layer0_0_2_STROKES" stroke="#DBDBDB" stroke-width="3" stroke-linejoin="round" stroke-linecap="round" fill="none" d="
M 749.5 522.5
L 799.5 522.5
Q 814.5 522.5 814.5 537.5
L 814.5 567.55
Q 814.5 570.9 813.75 573.5 811.15 582.55 799.5 582.55
L 749.5 582.55
Q 737.85 582.55 735.25 573.5 734.5 570.9 734.5 567.55
L 734.5 537.5
Q 734.5 522.5 749.5 522.5 Z
M 613.5 522.5
L 663.5 522.5
Q 678.5 522.5 678.5 537.5
L 678.5 567.55
Q 678.5 582.55 663.5 582.55
L 613.5 582.55
Q 598.5 582.55 598.5 567.55
L 598.5 537.5
Q 598.5 522.5 613.5 522.5 Z
M 480.5 522.5
L 530.5 522.5
Q 545.5 522.5 545.5 537.5
L 545.5 567.55
Q 545.5 582.55 530.5 582.55
L 480.5 582.55
Q 465.5 582.55 465.5 567.55
L 465.5 537.5
Q 465.5 522.5 480.5 522.5 Z"/>

<path id="Layer0_9_1_STROKES" stroke="#BBDECB" stroke-width="5" stroke-linejoin="round" stroke-linecap="round" fill="none" d="
M 127.5 208
L 332.5 208
Q 347.5 208 347.5 223
L 347.5 416
Q 347.5 431 332.5 431
L 127.5 431
Q 112.5 431 112.5 416
L 112.5 223
Q 112.5 208 127.5 208 Z"/>

<path id="Layer0_10_1_STROKES" stroke="#BBDECB" stroke-width="5" stroke-linejoin="round" stroke-linecap="round" fill="none" d="
M 127.5 208
L 332.5 208
Q 347.5 208 347.5 223
L 347.5 416
Q 347.5 431 332.5 431
L 127.5 431
Q 112.5 431 112.5 416
L 112.5 223
Q 112.5 208 127.5 208 Z"/>
</defs>

<g transform="matrix( 1, 0, 0, 1, 0,0) ">
<use xlink:href="#Layer0_0_FILL"/>

<use xlink:href="#Layer0_0_1_STROKES"/>

<use xlink:href="#Layer0_0_2_STROKES"/>
</g>

<g transform="matrix( 0.5999755859375, 0, 0, 0.5999755859375, 280,319.5) ">
<g transform="matrix( 1, 0, 0, 1, -4.8,117.4) ">
<g transform="matrix( 1, 0, 0, 1, 0,0) ">
<use xlink:href="#Duplicate_Items_Folder_vs3435_0_Layer1_0_FILL"/>
</g>

<g transform="matrix( 1, 0, 0, 1, 0,0) ">
<use xlink:href="#Duplicate_Items_Folder_vs3435_0_Layer0_0_FILL"/>
</g>
</g>

<g transform="matrix( 1, 0, 0, 1, -4.8,117.4) ">
<g transform="matrix( 1, 0, 0, 1, 0,0) ">
<use xlink:href="#Duplicate_Items_Folder_vs3435_0_Layer1_0_FILL"/>
</g>

<g transform="matrix( 1, 0, 0, 1, 0,0) ">
<use xlink:href="#Duplicate_Items_Folder_vs3435_0_Layer0_0_FILL"/>
</g>
</g>

<g transform="matrix( 1, 0, 0, 1, -4.8,91.4) ">
<g transform="matrix( 1, 0, 0, 1, 0,0) ">
<use xlink:href="#Duplicate_Items_Folder_vs3435_0_Layer1_0_FILL"/>
</g>

<g transform="matrix( 1, 0, 0, 1, 0,0) ">
<use xlink:href="#Duplicate_Items_Folder_vs3435_0_Layer0_0_FILL"/>
</g>
</g>

<g transform="matrix( 1, 0, 0, 1, -4.8,92.4) ">
<g transform="matrix( 1, 0, 0, 1, 0,0) ">
<use xlink:href="#Duplicate_Items_Folder_vs3435_0_Layer1_0_FILL"/>
</g>

<g transform="matrix( 1, 0, 0, 1, 0,0) ">
<use xlink:href="#Duplicate_Items_Folder_vs3435_0_Layer0_0_FILL"/>
</g>
</g>

<g transform="matrix( 1, 0, 0, 1, -4.8,67.4) ">
<g transform="matrix( 1, 0, 0, 1, 0,0) ">
<use xlink:href="#Duplicate_Items_Folder_vs3435_0_Layer1_0_FILL"/>
</g>

<g transform="matrix( 1, 0, 0, 1, 0,0) ">
<use xlink:href="#Duplicate_Items_Folder_vs3435_0_Layer0_0_FILL"/>
</g>
</g>

<g transform="matrix( 1, 0, 0, 1, -4.8,42.4) ">
<g transform="matrix( 1, 0, 0, 1, 0,0) ">
<use xlink:href="#Duplicate_Items_Folder_vs3435_0_Layer1_0_FILL"/>
</g>

<g transform="matrix( 1, 0, 0, 1, 0,0) ">
<use xlink:href="#Duplicate_Items_Folder_vs3435_0_Layer0_0_FILL"/>
</g>
</g>

<g transform="matrix( 1, 0, 0, 1, -4.8,17.4) ">
<g transform="matrix( 1, 0, 0, 1, 0,0) ">
<use xlink:href="#Duplicate_Items_Folder_vs3435_0_Layer1_0_FILL"/>
</g>

<g transform="matrix( 1, 0, 0, 1, 0,0) ">
<use xlink:href="#Duplicate_Items_Folder_vs3435_0_Layer0_0_FILL"/>
</g>
</g>

<g transform="matrix( 1, 0, 0, 1, -4.8,-7.6) ">
<g transform="matrix( 1, 0, 0, 1, 0,0) ">
<use xlink:href="#Duplicate_Items_Folder_vs3435_0_Layer1_0_FILL"/>
</g>

<g transform="matrix( 1, 0, 0, 1, 0,0) ">
<use xlink:href="#Duplicate_Items_Folder_vs3435_0_Layer0_0_FILL"/>
</g>
</g>

<g transform="matrix( 1, 0, 0, 1, -4.8,-32.6) ">
<g transform="matrix( 1, 0, 0, 1, 0,0) ">
<use xlink:href="#Duplicate_Items_Folder_vs3435_0_Layer1_0_FILL"/>
</g>

<g transform="matrix( 1, 0, 0, 1, 0,0) ">
<use xlink:href="#Duplicate_Items_Folder_vs3435_0_Layer0_0_FILL"/>
</g>
</g>

<g transform="matrix( 1, 0, 0, 1, -4.8,-57.6) ">
<g transform="matrix( 1, 0, 0, 1, 0,0) ">
<use xlink:href="#Duplicate_Items_Folder_vs3435_0_Layer1_0_FILL"/>
</g>

<g transform="matrix( 1, 0, 0, 1, 0,0) ">
<use xlink:href="#Duplicate_Items_Folder_vs3435_0_Layer0_0_FILL"/>
</g>
</g>

<g transform="matrix( 1, 0, 0, 1, -4.8,-82.6) ">
<g transform="matrix( 1, 0, 0, 1, 0,0) ">
<use xlink:href="#Duplicate_Items_Folder_vs3435_0_Layer1_0_FILL"/>
</g>

<g transform="matrix( 1, 0, 0, 1, 0,0) ">
<use xlink:href="#Duplicate_Items_Folder_vs3435_0_Layer0_0_FILL"/>
</g>
</g>

<g transform="matrix( 1, 0, 0, 1, -4.8,-107.6) ">
<g transform="matrix( 1, 0, 0, 1, 0,0) ">
<use xlink:href="#Duplicate_Items_Folder_vs3435_0_Layer1_0_FILL"/>
</g>

<g transform="matrix( 1, 0, 0, 1, 0,0) ">
<use xlink:href="#Duplicate_Items_Folder_vs3435_0_Layer0_0_FILL"/>
</g>
</g>
</g>

<g transform="matrix( 0.5999755859375, 0, 0, 0.5999755859375, 320,319.5) ">
<g transform="matrix( 1, 0, 0, 1, -4.8,117.4) ">
<g transform="matrix( 1, 0, 0, 1, 0,0) ">
<use xlink:href="#Duplicate_Items_Folder_vs3435_0_Layer1_0_FILL"/>
</g>

<g transform="matrix( 1, 0, 0, 1, 0,0) ">
<use xlink:href="#Duplicate_Items_Folder_vs3435_0_Layer0_0_FILL"/>
</g>
</g>

<g transform="matrix( 1, 0, 0, 1, -4.8,117.4) ">
<g transform="matrix( 1, 0, 0, 1, 0,0) ">
<use xlink:href="#Duplicate_Items_Folder_vs3435_0_Layer1_0_FILL"/>
</g>

<g transform="matrix( 1, 0, 0, 1, 0,0) ">
<use xlink:href="#Duplicate_Items_Folder_vs3435_0_Layer0_0_FILL"/>
</g>
</g>

<g transform="matrix( 1, 0, 0, 1, -4.8,91.4) ">
<g transform="matrix( 1, 0, 0, 1, 0,0) ">
<use xlink:href="#Duplicate_Items_Folder_vs3435_0_Layer1_0_FILL"/>
</g>

<g transform="matrix( 1, 0, 0, 1, 0,0) ">
<use xlink:href="#Duplicate_Items_Folder_vs3435_0_Layer0_0_FILL"/>
</g>
</g>

<g transform="matrix( 1, 0, 0, 1, -4.8,92.4) ">
<g transform="matrix( 1, 0, 0, 1, 0,0) ">
<use xlink:href="#Duplicate_Items_Folder_vs3435_0_Layer1_0_FILL"/>
</g>

<g transform="matrix( 1, 0, 0, 1, 0,0) ">
<use xlink:href="#Duplicate_Items_Folder_vs3435_0_Layer0_0_FILL"/>
</g>
</g>

<g transform="matrix( 1, 0, 0, 1, -4.8,67.4) ">
<g transform="matrix( 1, 0, 0, 1, 0,0) ">
<use xlink:href="#Duplicate_Items_Folder_vs3435_0_Layer1_0_FILL"/>
</g>

<g transform="matrix( 1, 0, 0, 1, 0,0) ">
<use xlink:href="#Duplicate_Items_Folder_vs3435_0_Layer0_0_FILL"/>
</g>
</g>

<g transform="matrix( 1, 0, 0, 1, -4.8,42.4) ">
<g transform="matrix( 1, 0, 0, 1, 0,0) ">
<use xlink:href="#Duplicate_Items_Folder_vs3435_0_Layer1_0_FILL"/>
</g>

<g transform="matrix( 1, 0, 0, 1, 0,0) ">
<use xlink:href="#Duplicate_Items_Folder_vs3435_0_Layer0_0_FILL"/>
</g>
</g>

<g transform="matrix( 1, 0, 0, 1, -4.8,17.4) ">
<g transform="matrix( 1, 0, 0, 1, 0,0) ">
<use xlink:href="#Duplicate_Items_Folder_vs3435_0_Layer1_0_FILL"/>
</g>

<g transform="matrix( 1, 0, 0, 1, 0,0) ">
<use xlink:href="#Duplicate_Items_Folder_vs3435_0_Layer0_0_FILL"/>
</g>
</g>

<g transform="matrix( 1, 0, 0, 1, -4.8,-7.6) ">
<g transform="matrix( 1, 0, 0, 1, 0,0) ">
<use xlink:href="#Duplicate_Items_Folder_vs3435_0_Layer1_0_FILL"/>
</g>

<g transform="matrix( 1, 0, 0, 1, 0,0) ">
<use xlink:href="#Duplicate_Items_Folder_vs3435_0_Layer0_0_FILL"/>
</g>
</g>

<g transform="matrix( 1, 0, 0, 1, -4.8,-32.6) ">
<g transform="matrix( 1, 0, 0, 1, 0,0) ">
<use xlink:href="#Duplicate_Items_Folder_vs3435_0_Layer1_0_FILL"/>
</g>

<g transform="matrix( 1, 0, 0, 1, 0,0) ">
<use xlink:href="#Duplicate_Items_Folder_vs3435_0_Layer0_0_FILL"/>
</g>
</g>

<g transform="matrix( 1, 0, 0, 1, -4.8,-57.6) ">
<g transform="matrix( 1, 0, 0, 1, 0,0) ">
<use xlink:href="#Duplicate_Items_Folder_vs3435_0_Layer1_0_FILL"/>
</g>

<g transform="matrix( 1, 0, 0, 1, 0,0) ">
<use xlink:href="#Duplicate_Items_Folder_vs3435_0_Layer0_0_FILL"/>
</g>
</g>

<g transform="matrix( 1, 0, 0, 1, -4.8,-82.6) ">
<g transform="matrix( 1, 0, 0, 1, 0,0) ">
<use xlink:href="#Duplicate_Items_Folder_vs3435_0_Layer1_0_FILL"/>
</g>

<g transform="matrix( 1, 0, 0, 1, 0,0) ">
<use xlink:href="#Duplicate_Items_Folder_vs3435_0_Layer0_0_FILL"/>
</g>
</g>

<g transform="matrix( 1, 0, 0, 1, -4.8,-107.6) ">
<g transform="matrix( 1, 0, 0, 1, 0,0) ">
<use xlink:href="#Duplicate_Items_Folder_vs3435_0_Layer1_0_FILL"/>
</g>

<g transform="matrix( 1, 0, 0, 1, 0,0) ">
<use xlink:href="#Duplicate_Items_Folder_vs3435_0_Layer0_0_FILL"/>
</g>
</g>
</g>

<g transform="matrix( 0.5999755859375, 0, 0, 0.5999755859375, 376.65,387) ">
<g transform="matrix( 1, 0, 0, 1, -4.8,4.9) ">
<g transform="matrix( 1, 0, 0, 1, 0,0) ">
<use xlink:href="#Duplicate_Items_Folder_vs3435_copy_0_Layer1_0_FILL"/>
</g>

<g transform="matrix( 1, 0, 0, 1, 0,0) ">
<use xlink:href="#Duplicate_Items_Folder_vs3435_copy_0_Layer0_0_FILL"/>
</g>
</g>
</g>

<g transform="matrix( 0.5999755859375, 0, 0, 0.5999755859375, 376.65,353.25) ">
<g transform="matrix( 1, 0, 0, 1, -4.8,4.9) ">
<g transform="matrix( 1, 0, 0, 1, 0,0) ">
<use xlink:href="#Duplicate_Items_Folder_vs3435_copy_0_Layer1_0_FILL"/>
</g>

<g transform="matrix( 1, 0, 0, 1, 0,0) ">
<use xlink:href="#Duplicate_Items_Folder_vs3435_copy_0_Layer0_0_FILL"/>
</g>
</g>
</g>

<g transform="matrix( 0.5999755859375, 0, 0, 0.5999755859375, 376.65,319.5) ">
<g transform="matrix( 1, 0, 0, 1, -4.8,4.9) ">
<g transform="matrix( 1, 0, 0, 1, 0,0) ">
<use xlink:href="#Duplicate_Items_Folder_vs3435_copy_0_Layer1_0_FILL"/>
</g>

<g transform="matrix( 1, 0, 0, 1, 0,0) ">
<use xlink:href="#Duplicate_Items_Folder_vs3435_copy_0_Layer0_0_FILL"/>
</g>
</g>
</g>

<g transform="matrix( 0.5999755859375, 0, 0, 0.5999755859375, 376.65,285.75) ">
<g transform="matrix( 1, 0, 0, 1, -4.8,4.9) ">
<g transform="matrix( 1, 0, 0, 1, 0,0) ">
<use xlink:href="#Duplicate_Items_Folder_vs3435_copy_0_Layer1_0_FILL"/>
</g>

<g transform="matrix( 1, 0, 0, 1, 0,0) ">
<use xlink:href="#Duplicate_Items_Folder_vs3435_copy_0_Layer0_0_FILL"/>
</g>
</g>
</g>

<g transform="matrix( 0.5999755859375, 0, 0, 0.5999755859375, 376.65,252) ">
<g transform="matrix( 1, 0, 0, 1, -4.8,4.9) ">
<g transform="matrix( 1, 0, 0, 1, 0,0) ">
<use xlink:href="#Duplicate_Items_Folder_vs3435_copy_0_Layer1_0_FILL"/>
</g>

<g transform="matrix( 1, 0, 0, 1, 0,0) ">
<use xlink:href="#Duplicate_Items_Folder_vs3435_copy_0_Layer0_0_FILL"/>
</g>
</g>
</g>

<g transform="matrix( 0.5999755859375, 0, 0, 0.5999755859375, 416.65,387) ">
<g transform="matrix( 1, 0, 0, 1, -4.8,4.9) ">
<g transform="matrix( 1, 0, 0, 1, 0,0) ">
<use xlink:href="#Duplicate_Items_Folder_vs3435_copy_0_Layer1_0_FILL"/>
</g>

<g transform="matrix( 1, 0, 0, 1, 0,0) ">
<use xlink:href="#Duplicate_Items_Folder_vs3435_copy_0_Layer0_0_FILL"/>
</g>
</g>
</g>

<g transform="matrix( 1, 0, 0, 1, 410,0) ">
<use xlink:href="#Layer0_9_1_STROKES"/>
</g>

<g transform="matrix( 0.5999755859375, 0, 0, 0.5999755859375, 570,319.5) ">
<g transform="matrix( 1, 0, 0, 1, -4.8,117.4) ">
<g transform="matrix( 1, 0, 0, 1, 0,0) ">
<use xlink:href="#Duplicate_Items_Folder_vs3435_0_Layer1_0_FILL"/>
</g>

<g transform="matrix( 1, 0, 0, 1, 0,0) ">
<use xlink:href="#Duplicate_Items_Folder_vs3435_0_Layer0_0_FILL"/>
</g>
</g>

<g transform="matrix( 1, 0, 0, 1, -4.8,117.4) ">
<g transform="matrix( 1, 0, 0, 1, 0,0) ">
<use xlink:href="#Duplicate_Items_Folder_vs3435_0_Layer1_0_FILL"/>
</g>

<g transform="matrix( 1, 0, 0, 1, 0,0) ">
<use xlink:href="#Duplicate_Items_Folder_vs3435_0_Layer0_0_FILL"/>
</g>
</g>

<g transform="matrix( 1, 0, 0, 1, -4.8,91.4) ">
<g transform="matrix( 1, 0, 0, 1, 0,0) ">
<use xlink:href="#Duplicate_Items_Folder_vs3435_0_Layer1_0_FILL"/>
</g>

<g transform="matrix( 1, 0, 0, 1, 0,0) ">
<use xlink:href="#Duplicate_Items_Folder_vs3435_0_Layer0_0_FILL"/>
</g>
</g>

<g transform="matrix( 1, 0, 0, 1, -4.8,92.4) ">
<g transform="matrix( 1, 0, 0, 1, 0,0) ">
<use xlink:href="#Duplicate_Items_Folder_vs3435_0_Layer1_0_FILL"/>
</g>

<g transform="matrix( 1, 0, 0, 1, 0,0) ">
<use xlink:href="#Duplicate_Items_Folder_vs3435_0_Layer0_0_FILL"/>
</g>
</g>

<g transform="matrix( 1, 0, 0, 1, -4.8,67.4) ">
<g transform="matrix( 1, 0, 0, 1, 0,0) ">
<use xlink:href="#Duplicate_Items_Folder_vs3435_0_Layer1_0_FILL"/>
</g>

<g transform="matrix( 1, 0, 0, 1, 0,0) ">
<use xlink:href="#Duplicate_Items_Folder_vs3435_0_Layer0_0_FILL"/>
</g>
</g>

<g transform="matrix( 1, 0, 0, 1, -4.8,42.4) ">
<g transform="matrix( 1, 0, 0, 1, 0,0) ">
<use xlink:href="#Duplicate_Items_Folder_vs3435_0_Layer1_0_FILL"/>
</g>

<g transform="matrix( 1, 0, 0, 1, 0,0) ">
<use xlink:href="#Duplicate_Items_Folder_vs3435_0_Layer0_0_FILL"/>
</g>
</g>

<g transform="matrix( 1, 0, 0, 1, -4.8,17.4) ">
<g transform="matrix( 1, 0, 0, 1, 0,0) ">
<use xlink:href="#Duplicate_Items_Folder_vs3435_0_Layer1_0_FILL"/>
</g>

<g transform="matrix( 1, 0, 0, 1, 0,0) ">
<use xlink:href="#Duplicate_Items_Folder_vs3435_0_Layer0_0_FILL"/>
</g>
</g>

<g transform="matrix( 1, 0, 0, 1, -4.8,-7.6) ">
<g transform="matrix( 1, 0, 0, 1, 0,0) ">
<use xlink:href="#Duplicate_Items_Folder_vs3435_0_Layer1_0_FILL"/>
</g>

<g transform="matrix( 1, 0, 0, 1, 0,0) ">
<use xlink:href="#Duplicate_Items_Folder_vs3435_0_Layer0_0_FILL"/>
</g>
</g>

<g transform="matrix( 1, 0, 0, 1, -4.8,-32.6) ">
<g transform="matrix( 1, 0, 0, 1, 0,0) ">
<use xlink:href="#Duplicate_Items_Folder_vs3435_0_Layer1_0_FILL"/>
</g>

<g transform="matrix( 1, 0, 0, 1, 0,0) ">
<use xlink:href="#Duplicate_Items_Folder_vs3435_0_Layer0_0_FILL"/>
</g>
</g>

<g transform="matrix( 1, 0, 0, 1, -4.8,-57.6) ">
<g transform="matrix( 1, 0, 0, 1, 0,0) ">
<use xlink:href="#Duplicate_Items_Folder_vs3435_0_Layer1_0_FILL"/>
</g>

<g transform="matrix( 1, 0, 0, 1, 0,0) ">
<use xlink:href="#Duplicate_Items_Folder_vs3435_0_Layer0_0_FILL"/>
</g>
</g>

<g transform="matrix( 1, 0, 0, 1, -4.8,-82.6) ">
<g transform="matrix( 1, 0, 0, 1, 0,0) ">
<use xlink:href="#Duplicate_Items_Folder_vs3435_0_Layer1_0_FILL"/>
</g>

<g transform="matrix( 1, 0, 0, 1, 0,0) ">
<use xlink:href="#Duplicate_Items_Folder_vs3435_0_Layer0_0_FILL"/>
</g>
</g>

<g transform="matrix( 1, 0, 0, 1, -4.8,-107.6) ">
<g transform="matrix( 1, 0, 0, 1, 0,0) ">
<use xlink:href="#Duplicate_Items_Folder_vs3435_0_Layer1_0_FILL"/>
</g>

<g transform="matrix( 1, 0, 0, 1, 0,0) ">
<use xlink:href="#Duplicate_Items_Folder_vs3435_0_Layer0_0_FILL"/>
</g>
</g>
</g>

<g transform="matrix( 0.5999755859375, 0, 0, 0.5999755859375, 610,319.5) ">
<g transform="matrix( 1, 0, 0, 1, -4.8,117.4) ">
<g transform="matrix( 1, 0, 0, 1, 0,0) ">
<use xlink:href="#Duplicate_Items_Folder_vs3435_0_Layer1_0_FILL"/>
</g>

<g transform="matrix( 1, 0, 0, 1, 0,0) ">
<use xlink:href="#Duplicate_Items_Folder_vs3435_0_Layer0_0_FILL"/>
</g>
</g>

<g transform="matrix( 1, 0, 0, 1, -4.8,117.4) ">
<g transform="matrix( 1, 0, 0, 1, 0,0) ">
<use xlink:href="#Duplicate_Items_Folder_vs3435_0_Layer1_0_FILL"/>
</g>

<g transform="matrix( 1, 0, 0, 1, 0,0) ">
<use xlink:href="#Duplicate_Items_Folder_vs3435_0_Layer0_0_FILL"/>
</g>
</g>

<g transform="matrix( 1, 0, 0, 1, -4.8,91.4) ">
<g transform="matrix( 1, 0, 0, 1, 0,0) ">
<use xlink:href="#Duplicate_Items_Folder_vs3435_0_Layer1_0_FILL"/>
</g>

<g transform="matrix( 1, 0, 0, 1, 0,0) ">
<use xlink:href="#Duplicate_Items_Folder_vs3435_0_Layer0_0_FILL"/>
</g>
</g>

<g transform="matrix( 1, 0, 0, 1, -4.8,92.4) ">
<g transform="matrix( 1, 0, 0, 1, 0,0) ">
<use xlink:href="#Duplicate_Items_Folder_vs3435_0_Layer1_0_FILL"/>
</g>

<g transform="matrix( 1, 0, 0, 1, 0,0) ">
<use xlink:href="#Duplicate_Items_Folder_vs3435_0_Layer0_0_FILL"/>
</g>
</g>

<g transform="matrix( 1, 0, 0, 1, -4.8,67.4) ">
<g transform="matrix( 1, 0, 0, 1, 0,0) ">
<use xlink:href="#Duplicate_Items_Folder_vs3435_0_Layer1_0_FILL"/>
</g>

<g transform="matrix( 1, 0, 0, 1, 0,0) ">
<use xlink:href="#Duplicate_Items_Folder_vs3435_0_Layer0_0_FILL"/>
</g>
</g>

<g transform="matrix( 1, 0, 0, 1, -4.8,42.4) ">
<g transform="matrix( 1, 0, 0, 1, 0,0) ">
<use xlink:href="#Duplicate_Items_Folder_vs3435_0_Layer1_0_FILL"/>
</g>

<g transform="matrix( 1, 0, 0, 1, 0,0) ">
<use xlink:href="#Duplicate_Items_Folder_vs3435_0_Layer0_0_FILL"/>
</g>
</g>

<g transform="matrix( 1, 0, 0, 1, -4.8,17.4) ">
<g transform="matrix( 1, 0, 0, 1, 0,0) ">
<use xlink:href="#Duplicate_Items_Folder_vs3435_0_Layer1_0_FILL"/>
</g>

<g transform="matrix( 1, 0, 0, 1, 0,0) ">
<use xlink:href="#Duplicate_Items_Folder_vs3435_0_Layer0_0_FILL"/>
</g>
</g>

<g transform="matrix( 1, 0, 0, 1, -4.8,-7.6) ">
<g transform="matrix( 1, 0, 0, 1, 0,0) ">
<use xlink:href="#Duplicate_Items_Folder_vs3435_0_Layer1_0_FILL"/>
</g>

<g transform="matrix( 1, 0, 0, 1, 0,0) ">
<use xlink:href="#Duplicate_Items_Folder_vs3435_0_Layer0_0_FILL"/>
</g>
</g>

<g transform="matrix( 1, 0, 0, 1, -4.8,-32.6) ">
<g transform="matrix( 1, 0, 0, 1, 0,0) ">
<use xlink:href="#Duplicate_Items_Folder_vs3435_0_Layer1_0_FILL"/>
</g>

<g transform="matrix( 1, 0, 0, 1, 0,0) ">
<use xlink:href="#Duplicate_Items_Folder_vs3435_0_Layer0_0_FILL"/>
</g>
</g>

<g transform="matrix( 1, 0, 0, 1, -4.8,-57.6) ">
<g transform="matrix( 1, 0, 0, 1, 0,0) ">
<use xlink:href="#Duplicate_Items_Folder_vs3435_0_Layer1_0_FILL"/>
</g>

<g transform="matrix( 1, 0, 0, 1, 0,0) ">
<use xlink:href="#Duplicate_Items_Folder_vs3435_0_Layer0_0_FILL"/>
</g>
</g>

<g transform="matrix( 1, 0, 0, 1, -4.8,-82.6) ">
<g transform="matrix( 1, 0, 0, 1, 0,0) ">
<use xlink:href="#Duplicate_Items_Folder_vs3435_0_Layer1_0_FILL"/>
</g>

<g transform="matrix( 1, 0, 0, 1, 0,0) ">
<use xlink:href="#Duplicate_Items_Folder_vs3435_0_Layer0_0_FILL"/>
</g>
</g>

<g transform="matrix( 1, 0, 0, 1, -4.8,-107.6) ">
<g transform="matrix( 1, 0, 0, 1, 0,0) ">
<use xlink:href="#Duplicate_Items_Folder_vs3435_0_Layer1_0_FILL"/>
</g>

<g transform="matrix( 1, 0, 0, 1, 0,0) ">
<use xlink:href="#Duplicate_Items_Folder_vs3435_0_Layer0_0_FILL"/>
</g>
</g>
</g>

<g transform="matrix( 0.5999755859375, 0, 0, 0.5999755859375, 666.65,387) ">
<g transform="matrix( 1, 0, 0, 1, -4.8,4.9) ">
<g transform="matrix( 1, 0, 0, 1, 0,0) ">
<use xlink:href="#Duplicate_Items_Folder_vs3435_copy_0_Layer1_0_FILL"/>
</g>

<g transform="matrix( 1, 0, 0, 1, 0,0) ">
<use xlink:href="#Duplicate_Items_Folder_vs3435_copy_0_Layer0_0_FILL"/>
</g>
</g>
</g>

<g transform="matrix( 0.5999755859375, 0, 0, 0.5999755859375, 666.65,353.25) ">
<g transform="matrix( 1, 0, 0, 1, -4.8,4.9) ">
<g transform="matrix( 1, 0, 0, 1, 0,0) ">
<use xlink:href="#Duplicate_Items_Folder_vs3435_copy_0_Layer1_0_FILL"/>
</g>

<g transform="matrix( 1, 0, 0, 1, 0,0) ">
<use xlink:href="#Duplicate_Items_Folder_vs3435_copy_0_Layer0_0_FILL"/>
</g>
</g>
</g>

<g transform="matrix( 0.5999755859375, 0, 0, 0.5999755859375, 666.65,319.5) ">
<g transform="matrix( 1, 0, 0, 1, -4.8,4.9) ">
<g transform="matrix( 1, 0, 0, 1, 0,0) ">
<use xlink:href="#Duplicate_Items_Folder_vs3435_copy_0_Layer1_0_FILL"/>
</g>

<g transform="matrix( 1, 0, 0, 1, 0,0) ">
<use xlink:href="#Duplicate_Items_Folder_vs3435_copy_0_Layer0_0_FILL"/>
</g>
</g>
</g>

<g transform="matrix( 0.5999755859375, 0, 0, 0.5999755859375, 666.65,285.75) ">
<g transform="matrix( 1, 0, 0, 1, -4.8,4.9) ">
<g transform="matrix( 1, 0, 0, 1, 0,0) ">
<use xlink:href="#Duplicate_Items_Folder_vs3435_copy_0_Layer1_0_FILL"/>
</g>

<g transform="matrix( 1, 0, 0, 1, 0,0) ">
<use xlink:href="#Duplicate_Items_Folder_vs3435_copy_0_Layer0_0_FILL"/>
</g>
</g>
</g>

<g transform="matrix( 0.5999755859375, 0, 0, 0.5999755859375, 666.65,252) ">
<g transform="matrix( 1, 0, 0, 1, -4.8,4.9) ">
<g transform="matrix( 1, 0, 0, 1, 0,0) ">
<use xlink:href="#Duplicate_Items_Folder_vs3435_copy_0_Layer1_0_FILL"/>
</g>

<g transform="matrix( 1, 0, 0, 1, 0,0) ">
<use xlink:href="#Duplicate_Items_Folder_vs3435_copy_0_Layer0_0_FILL"/>
</g>
</g>
</g>

<g transform="matrix( 0.5999755859375, 0, 0, 0.5999755859375, 706.65,387) ">
<g transform="matrix( 1, 0, 0, 1, -4.8,4.9) ">
<g transform="matrix( 1, 0, 0, 1, 0,0) ">
<use xlink:href="#Duplicate_Items_Folder_vs3435_copy_0_Layer1_0_FILL"/>
</g>

<g transform="matrix( 1, 0, 0, 1, 0,0) ">
<use xlink:href="#Duplicate_Items_Folder_vs3435_copy_0_Layer0_0_FILL"/>
</g>
</g>
</g>

<g transform="matrix( 1, 0, 0, 1, 700,0) ">
<use xlink:href="#Layer0_10_1_STROKES"/>
</g>

<g transform="matrix( 0.5999755859375, 0, 0, 0.5999755859375, 860,319.5) ">
<g transform="matrix( 1, 0, 0, 1, -4.8,117.4) ">
<g transform="matrix( 1, 0, 0, 1, 0,0) ">
<use xlink:href="#Duplicate_Items_Folder_vs3435_0_Layer1_0_FILL"/>
</g>

<g transform="matrix( 1, 0, 0, 1, 0,0) ">
<use xlink:href="#Duplicate_Items_Folder_vs3435_0_Layer0_0_FILL"/>
</g>
</g>

<g transform="matrix( 1, 0, 0, 1, -4.8,117.4) ">
<g transform="matrix( 1, 0, 0, 1, 0,0) ">
<use xlink:href="#Duplicate_Items_Folder_vs3435_0_Layer1_0_FILL"/>
</g>

<g transform="matrix( 1, 0, 0, 1, 0,0) ">
<use xlink:href="#Duplicate_Items_Folder_vs3435_0_Layer0_0_FILL"/>
</g>
</g>

<g transform="matrix( 1, 0, 0, 1, -4.8,91.4) ">
<g transform="matrix( 1, 0, 0, 1, 0,0) ">
<use xlink:href="#Duplicate_Items_Folder_vs3435_0_Layer1_0_FILL"/>
</g>

<g transform="matrix( 1, 0, 0, 1, 0,0) ">
<use xlink:href="#Duplicate_Items_Folder_vs3435_0_Layer0_0_FILL"/>
</g>
</g>

<g transform="matrix( 1, 0, 0, 1, -4.8,92.4) ">
<g transform="matrix( 1, 0, 0, 1, 0,0) ">
<use xlink:href="#Duplicate_Items_Folder_vs3435_0_Layer1_0_FILL"/>
</g>

<g transform="matrix( 1, 0, 0, 1, 0,0) ">
<use xlink:href="#Duplicate_Items_Folder_vs3435_0_Layer0_0_FILL"/>
</g>
</g>

<g transform="matrix( 1, 0, 0, 1, -4.8,67.4) ">
<g transform="matrix( 1, 0, 0, 1, 0,0) ">
<use xlink:href="#Duplicate_Items_Folder_vs3435_0_Layer1_0_FILL"/>
</g>

<g transform="matrix( 1, 0, 0, 1, 0,0) ">
<use xlink:href="#Duplicate_Items_Folder_vs3435_0_Layer0_0_FILL"/>
</g>
</g>

<g transform="matrix( 1, 0, 0, 1, -4.8,42.4) ">
<g transform="matrix( 1, 0, 0, 1, 0,0) ">
<use xlink:href="#Duplicate_Items_Folder_vs3435_0_Layer1_0_FILL"/>
</g>

<g transform="matrix( 1, 0, 0, 1, 0,0) ">
<use xlink:href="#Duplicate_Items_Folder_vs3435_0_Layer0_0_FILL"/>
</g>
</g>

<g transform="matrix( 1, 0, 0, 1, -4.8,17.4) ">
<g transform="matrix( 1, 0, 0, 1, 0,0) ">
<use xlink:href="#Duplicate_Items_Folder_vs3435_0_Layer1_0_FILL"/>
</g>

<g transform="matrix( 1, 0, 0, 1, 0,0) ">
<use xlink:href="#Duplicate_Items_Folder_vs3435_0_Layer0_0_FILL"/>
</g>
</g>

<g transform="matrix( 1, 0, 0, 1, -4.8,-7.6) ">
<g transform="matrix( 1, 0, 0, 1, 0,0) ">
<use xlink:href="#Duplicate_Items_Folder_vs3435_0_Layer1_0_FILL"/>
</g>

<g transform="matrix( 1, 0, 0, 1, 0,0) ">
<use xlink:href="#Duplicate_Items_Folder_vs3435_0_Layer0_0_FILL"/>
</g>
</g>

<g transform="matrix( 1, 0, 0, 1, -4.8,-32.6) ">
<g transform="matrix( 1, 0, 0, 1, 0,0) ">
<use xlink:href="#Duplicate_Items_Folder_vs3435_0_Layer1_0_FILL"/>
</g>

<g transform="matrix( 1, 0, 0, 1, 0,0) ">
<use xlink:href="#Duplicate_Items_Folder_vs3435_0_Layer0_0_FILL"/>
</g>
</g>

<g transform="matrix( 1, 0, 0, 1, -4.8,-57.6) ">
<g transform="matrix( 1, 0, 0, 1, 0,0) ">
<use xlink:href="#Duplicate_Items_Folder_vs3435_0_Layer1_0_FILL"/>
</g>

<g transform="matrix( 1, 0, 0, 1, 0,0) ">
<use xlink:href="#Duplicate_Items_Folder_vs3435_0_Layer0_0_FILL"/>
</g>
</g>

<g transform="matrix( 1, 0, 0, 1, -4.8,-82.6) ">
<g transform="matrix( 1, 0, 0, 1, 0,0) ">
<use xlink:href="#Duplicate_Items_Folder_vs3435_0_Layer1_0_FILL"/>
</g>

<g transform="matrix( 1, 0, 0, 1, 0,0) ">
<use xlink:href="#Duplicate_Items_Folder_vs3435_0_Layer0_0_FILL"/>
</g>
</g>

<g transform="matrix( 1, 0, 0, 1, -4.8,-107.6) ">
<g transform="matrix( 1, 0, 0, 1, 0,0) ">
<use xlink:href="#Duplicate_Items_Folder_vs3435_0_Layer1_0_FILL"/>
</g>

<g transform="matrix( 1, 0, 0, 1, 0,0) ">
<use xlink:href="#Duplicate_Items_Folder_vs3435_0_Layer0_0_FILL"/>
</g>
</g>
</g>

<g transform="matrix( 0.5999755859375, 0, 0, 0.5999755859375, 900,319.5) ">
<g transform="matrix( 1, 0, 0, 1, -4.8,117.4) ">
<g transform="matrix( 1, 0, 0, 1, 0,0) ">
<use xlink:href="#Duplicate_Items_Folder_vs3435_0_Layer1_0_FILL"/>
</g>

<g transform="matrix( 1, 0, 0, 1, 0,0) ">
<use xlink:href="#Duplicate_Items_Folder_vs3435_0_Layer0_0_FILL"/>
</g>
</g>

<g transform="matrix( 1, 0, 0, 1, -4.8,117.4) ">
<g transform="matrix( 1, 0, 0, 1, 0,0) ">
<use xlink:href="#Duplicate_Items_Folder_vs3435_0_Layer1_0_FILL"/>
</g>

<g transform="matrix( 1, 0, 0, 1, 0,0) ">
<use xlink:href="#Duplicate_Items_Folder_vs3435_0_Layer0_0_FILL"/>
</g>
</g>

<g transform="matrix( 1, 0, 0, 1, -4.8,91.4) ">
<g transform="matrix( 1, 0, 0, 1, 0,0) ">
<use xlink:href="#Duplicate_Items_Folder_vs3435_0_Layer1_0_FILL"/>
</g>

<g transform="matrix( 1, 0, 0, 1, 0,0) ">
<use xlink:href="#Duplicate_Items_Folder_vs3435_0_Layer0_0_FILL"/>
</g>
</g>

<g transform="matrix( 1, 0, 0, 1, -4.8,92.4) ">
<g transform="matrix( 1, 0, 0, 1, 0,0) ">
<use xlink:href="#Duplicate_Items_Folder_vs3435_0_Layer1_0_FILL"/>
</g>

<g transform="matrix( 1, 0, 0, 1, 0,0) ">
<use xlink:href="#Duplicate_Items_Folder_vs3435_0_Layer0_0_FILL"/>
</g>
</g>

<g transform="matrix( 1, 0, 0, 1, -4.8,67.4) ">
<g transform="matrix( 1, 0, 0, 1, 0,0) ">
<use xlink:href="#Duplicate_Items_Folder_vs3435_0_Layer1_0_FILL"/>
</g>

<g transform="matrix( 1, 0, 0, 1, 0,0) ">
<use xlink:href="#Duplicate_Items_Folder_vs3435_0_Layer0_0_FILL"/>
</g>
</g>

<g transform="matrix( 1, 0, 0, 1, -4.8,42.4) ">
<g transform="matrix( 1, 0, 0, 1, 0,0) ">
<use xlink:href="#Duplicate_Items_Folder_vs3435_0_Layer1_0_FILL"/>
</g>

<g transform="matrix( 1, 0, 0, 1, 0,0) ">
<use xlink:href="#Duplicate_Items_Folder_vs3435_0_Layer0_0_FILL"/>
</g>
</g>

<g transform="matrix( 1, 0, 0, 1, -4.8,17.4) ">
<g transform="matrix( 1, 0, 0, 1, 0,0) ">
<use xlink:href="#Duplicate_Items_Folder_vs3435_0_Layer1_0_FILL"/>
</g>

<g transform="matrix( 1, 0, 0, 1, 0,0) ">
<use xlink:href="#Duplicate_Items_Folder_vs3435_0_Layer0_0_FILL"/>
</g>
</g>

<g transform="matrix( 1, 0, 0, 1, -4.8,-7.6) ">
<g transform="matrix( 1, 0, 0, 1, 0,0) ">
<use xlink:href="#Duplicate_Items_Folder_vs3435_0_Layer1_0_FILL"/>
</g>

<g transform="matrix( 1, 0, 0, 1, 0,0) ">
<use xlink:href="#Duplicate_Items_Folder_vs3435_0_Layer0_0_FILL"/>
</g>
</g>

<g transform="matrix( 1, 0, 0, 1, -4.8,-32.6) ">
<g transform="matrix( 1, 0, 0, 1, 0,0) ">
<use xlink:href="#Duplicate_Items_Folder_vs3435_0_Layer1_0_FILL"/>
</g>

<g transform="matrix( 1, 0, 0, 1, 0,0) ">
<use xlink:href="#Duplicate_Items_Folder_vs3435_0_Layer0_0_FILL"/>
</g>
</g>

<g transform="matrix( 1, 0, 0, 1, -4.8,-57.6) ">
<g transform="matrix( 1, 0, 0, 1, 0,0) ">
<use xlink:href="#Duplicate_Items_Folder_vs3435_0_Layer1_0_FILL"/>
</g>

<g transform="matrix( 1, 0, 0, 1, 0,0) ">
<use xlink:href="#Duplicate_Items_Folder_vs3435_0_Layer0_0_FILL"/>
</g>
</g>

<g transform="matrix( 1, 0, 0, 1, -4.8,-82.6) ">
<g transform="matrix( 1, 0, 0, 1, 0,0) ">
<use xlink:href="#Duplicate_Items_Folder_vs3435_0_Layer1_0_FILL"/>
</g>

<g transform="matrix( 1, 0, 0, 1, 0,0) ">
<use xlink:href="#Duplicate_Items_Folder_vs3435_0_Layer0_0_FILL"/>
</g>
</g>

<g transform="matrix( 1, 0, 0, 1, -4.8,-107.6) ">
<g transform="matrix( 1, 0, 0, 1, 0,0) ">
<use xlink:href="#Duplicate_Items_Folder_vs3435_0_Layer1_0_FILL"/>
</g>

<g transform="matrix( 1, 0, 0, 1, 0,0) ">
<use xlink:href="#Duplicate_Items_Folder_vs3435_0_Layer0_0_FILL"/>
</g>
</g>
</g>

<g transform="matrix( 0.5999755859375, 0, 0, 0.5999755859375, 956.65,387) ">
<g transform="matrix( 1, 0, 0, 1, -4.8,4.9) ">
<g transform="matrix( 1, 0, 0, 1, 0,0) ">
<use xlink:href="#Duplicate_Items_Folder_vs3435_copy_0_Layer1_0_FILL"/>
</g>

<g transform="matrix( 1, 0, 0, 1, 0,0) ">
<use xlink:href="#Duplicate_Items_Folder_vs3435_copy_0_Layer0_0_FILL"/>
</g>
</g>
</g>

<g transform="matrix( 0.5999755859375, 0, 0, 0.5999755859375, 956.65,353.25) ">
<g transform="matrix( 1, 0, 0, 1, -4.8,4.9) ">
<g transform="matrix( 1, 0, 0, 1, 0,0) ">
<use xlink:href="#Duplicate_Items_Folder_vs3435_copy_0_Layer1_0_FILL"/>
</g>

<g transform="matrix( 1, 0, 0, 1, 0,0) ">
<use xlink:href="#Duplicate_Items_Folder_vs3435_copy_0_Layer0_0_FILL"/>
</g>
</g>
</g>

<g transform="matrix( 0.5999755859375, 0, 0, 0.5999755859375, 956.65,319.5) ">
<g transform="matrix( 1, 0, 0, 1, -4.8,4.9) ">
<g transform="matrix( 1, 0, 0, 1, 0,0) ">
<use xlink:href="#Duplicate_Items_Folder_vs3435_copy_0_Layer1_0_FILL"/>
</g>

<g transform="matrix( 1, 0, 0, 1, 0,0) ">
<use xlink:href="#Duplicate_Items_Folder_vs3435_copy_0_Layer0_0_FILL"/>
</g>
</g>
</g>

<g transform="matrix( 0.5999755859375, 0, 0, 0.5999755859375, 956.65,285.75) ">
<g transform="matrix( 1, 0, 0, 1, -4.8,4.9) ">
<g transform="matrix( 1, 0, 0, 1, 0,0) ">
<use xlink:href="#Duplicate_Items_Folder_vs3435_copy_0_Layer1_0_FILL"/>
</g>

<g transform="matrix( 1, 0, 0, 1, 0,0) ">
<use xlink:href="#Duplicate_Items_Folder_vs3435_copy_0_Layer0_0_FILL"/>
</g>
</g>
</g>

<g transform="matrix( 0.5999755859375, 0, 0, 0.5999755859375, 956.65,252) ">
<g transform="matrix( 1, 0, 0, 1, -4.8,4.9) ">
<g transform="matrix( 1, 0, 0, 1, 0,0) ">
<use xlink:href="#Duplicate_Items_Folder_vs3435_copy_0_Layer1_0_FILL"/>
</g>

<g transform="matrix( 1, 0, 0, 1, 0,0) ">
<use xlink:href="#Duplicate_Items_Folder_vs3435_copy_0_Layer0_0_FILL"/>
</g>
</g>
</g>

<g transform="matrix( 0.5999755859375, 0, 0, 0.5999755859375, 996.65,387) ">
<g transform="matrix( 1, 0, 0, 1, -4.8,4.9) ">
<g transform="matrix( 1, 0, 0, 1, 0,0) ">
<use xlink:href="#Duplicate_Items_Folder_vs3435_copy_0_Layer1_0_FILL"/>
</g>

<g transform="matrix( 1, 0, 0, 1, 0,0) ">
<use xlink:href="#Duplicate_Items_Folder_vs3435_copy_0_Layer0_0_FILL"/>
</g>
</g>
</g>
</svg>
