<?xml version="1.0" encoding="utf-8"?>
<!-- Generator: Adobe Illustrator 25.2.0, SVG Export Plug-In . SVG Version: 6.00 Build 0)  -->
<svg version="1.1" id="레이어_1" xmlns="http://www.w3.org/2000/svg" xmlns:xlink="http://www.w3.org/1999/xlink" x="0px"
	 y="0px" viewBox="0 0 22 22" style="enable-background:new 0 0 22 22;" xml:space="preserve">
<g>
	<g>
		<defs>
			<circle id="SVGID_1_" cx="11" cy="11" r="11"/>
		</defs>
		<use xlink:href="#SVGID_1_"  style="overflow:visible;fill:#CD1F1C;"/>
		<clipPath id="SVGID_2_">
			<use xlink:href="#SVGID_1_"  style="overflow:visible;"/>
		</clipPath>
		<polygon style="clip-path:url(#SVGID_2_);fill:#A81F24;" points="22.8,13.6 15.6,6.4 6.4,15.6 13.1,22.4 18.8,18.9 		"/>
	</g>
	<path style="fill:#FFFFFF;" d="M12.8,11l2.9-2.9c0.5-0.5,0.5-1.3,0-1.8C15.4,6.1,15.1,6,14.7,6c-0.3,0-0.6,0.1-0.9,0.4L11,9.2
		L8.1,6.4C7.9,6.1,7.6,6,7.3,6C6.9,6,6.6,6.1,6.4,6.4c-0.5,0.5-0.5,1.3,0,1.8L9.2,11l-2.9,2.9C6.1,14.1,6,14.4,6,14.7
		s0.1,0.6,0.4,0.9C6.6,15.9,6.9,16,7.3,16c0.3,0,0.6-0.1,0.9-0.4l2.9-2.9l2.9,2.9c0.2,0.2,0.6,0.4,0.9,0.4c0.3,0,0.6-0.1,0.9-0.4
		c0.5-0.5,0.5-1.3,0-1.8L12.8,11z"/>
</g>
<g>
</g>
<g>
</g>
<g>
</g>
<g>
</g>
<g>
</g>
<g>
</g>
</svg>
