
<svg xmlns="http://www.w3.org/2000/svg" version="1.1" xmlns:xlink="http://www.w3.org/1999/xlink" preserveAspectRatio="none" x="0px" y="0px" width="1280px" height="720px" viewBox="0 0 1280 720">
<defs>
<g id="Layer0_0_FILL">
<path fill="#FFFFFF" stroke="none" d="
M 1089.6 339.1
Q 1089.6 324.1 1074.6 324.1
L 864.6 324.1
Q 849.6 324.1 849.6 339.1
L 849.6 369.15
Q 849.6 384.15 864.6 384.15
L 1074.6 384.15
Q 1089.6 384.15 1089.6 369.15
L 1089.6 339.1 Z"/>
</g>

<g id="Duplicate_Items_Folder_fdnd454535_copy_1_Layer4_0_FILL">
<path fill="#FFFFFF" stroke="none" d="
M 74.5 -27.5
L 1.5 -27.5
Q -9.9 -27.5 -17.95 -19.45 -26 -11.4 -26 0 -26 11.4 -17.95 19.45 -9.9 27.5 1.5 27.5
L 74.5 27.5
Q 85.9 27.5 93.95 19.45 96.95 16.45 98.9 12.85 102 7.1 102 0 102 -11.4 93.95 -19.45 85.9 -27.5 74.5 -27.5 Z"/>
</g>

<g id="Mask_Duplicate_Items_Folder_fdnd454535_copy_1_3_MASK_0_FILL">
<path fill="#FFFFFF" stroke="none" d="
M 74.5 -27.5
L 1.5 -27.5
Q -9.9 -27.5 -17.95 -19.45 -26 -11.4 -26 0 -26 11.4 -17.95 19.45 -9.9 27.5 1.5 27.5
L 74.5 27.5
Q 85.9 27.5 93.95 19.45 96.95 16.45 98.9 12.85 102 7.1 102 0 102 -11.4 93.95 -19.45 85.9 -27.5 74.5 -27.5 Z"/>
</g>

<g id="Duplicate_Items_Folder_fdnd454535_copy_1_Layer3_0_FILL">
<path fill="#9875B1" stroke="none" d="
M 21.95 -19.45
Q 13.9 -27.5 2.5 -27.5
L -43.5 -27.5
Q -54.9 -27.5 -62.95 -19.45 -71 -11.4 -71 0 -71 11.4 -62.95 19.45 -54.9 27.5 -43.5 27.5
L 2.5 27.5
Q 13.9 27.5 21.95 19.45 30 11.4 30 0 30 -11.4 21.95 -19.45 Z"/>
</g>

<g id="Duplicate_Items_Folder_bs232323_copy_3_Layer4_0_FILL">
<path fill="#FFFFFF" stroke="none" d="
M 12.1 -22.45
Q 12.1 -23.25 11.5 -23.85
L 9.55 -25.8 3.7 -19.95 5.65 -18
Q 6.25 -17.4 7.1 -17.45 7.95 -17.4 8.55 -18
L 11.55 -21
Q 12.15 -21.6 12.1 -22.45
M 8.5 -26.85
L 6.15 -36.3
Q 5.9 -37.45 5.05 -37.7 4.35 -37.9 3.5 -37.05
L -7.55 -26
Q -8.35 -25.2 -8.2 -24.45 -7.95 -23.6 -6.8 -23.35
L 2.65 -21 8.5 -26.85 Z"/>
</g>

<g id="Duplicate_Items_Folder_fdnd454535_copy_1_Layer0_0_FILL">
<path fill="#9875B1" stroke="none" d="
M 74.5 -29.5
L 1.5 -29.5
Q -10.75 -29.5 -19.35 -20.85 -28 -12.25 -28 0 -28 12.25 -19.35 20.9 -10.75 29.5 1.5 29.5
L 74.5 29.5
Q 86.75 29.5 95.4 20.9 98.55 17.65 100.65 13.8 104 7.6 104 0 104 -12.25 95.4 -20.85 86.75 -29.5 74.5 -29.5
M 1.5 -25.5
L 74.5 -25.5
Q 85.05 -25.5 92.55 -18 100 -10.55 100 0 100 6.6 97.15 11.9 95.35 15.25 92.55 18.05 85.05 25.5 74.5 25.5
L 1.5 25.5
Q -9.05 25.5 -16.5 18.05 -24 10.55 -24 0 -24 -10.55 -16.5 -18 -9.05 -25.5 1.5 -25.5 Z"/>
</g>

<g id="Duplicate_Items_Folder_sbs43434_copy_1_Layer1_0_FILL">
<path fill="#684880" stroke="none" d="
M 10.4 8.3
Q 10.4 8.05 10.3 7.9 10.25 7.7 10.1 7.55 9.95 7.4 9.75 7.35 9.55 7.3 9.25 7.3 8.8 7.4 8.4 7.45 8 7.5 7.6 7.5 7.25 7.55 6.85 7.6 6.45 7.6 6 7.6
L 6 6.5 7.9 6.5
Q 8.1 6.5 8.3 6.5 8.5 6.45 8.7 6.35 9.05 6.2 9.25 5.9 9.35 5.75 9.5 5.6 9.6 5.45 9.7 5.25 9.75 5.05 9.85 4.85 9.9 4.65 9.9 4.45
L 9.9 2.9
Q 9.9 2.65 9.85 2.5 9.75 2.3 9.7 2.1 9.6 1.95 9.5 1.75 9.35 1.6 9.25 1.45 9.15 1.3 9 1.25 8.85 1.15 8.7 1.05 8.5 0.95 8.3 0.9 8.1 0.9 7.9 0.9
L 4.75 0.9
Q 4.5 0.9 4.3 0.95 4.1 1.05 4 1.2 3.85 1.4 3.8 1.65 3.75 1.85 3.75 2.1 3.75 2.4 3.8 2.55 3.85 2.75 4 2.9 4.1 3.05 4.3 3.15 4.5 3.2 4.75 3.2
L 7.5 3.2 7.5 4.2 5.75 4.2
Q 5.3 4.2 4.95 4.35 4.6 4.45 4.35 4.75 4.05 5 3.95 5.35 3.8 5.7 3.8 6.1
L 3.8 8.2
Q 3.8 8.65 3.95 8.95 4.1 9.3 4.35 9.5 4.65 9.7 5 9.8 5.3 9.9 5.75 9.9 6.1 9.85 6.35 9.85 6.65 9.85 6.9 9.85 7.15 9.85 7.35 9.8 7.6 9.8 7.75 9.8 8 9.75 8.25 9.75 8.5 9.7 8.7 9.7 9.15 9.65 9.65 9.6
L 9.55 9.6
Q 9.8 9.55 10 9.45 10.25 9.35 10.35 9.2 10.45 9 10.5 8.8 10.5 8.55 10.4 8.3
M 16.05 2.9
Q 16 2.45 15.9 2.1 15.75 1.75 15.5 1.45 15.25 1.15 14.9 1 14.55 0.9 14.15 0.9
L 11.8 0.9
Q 11.5 0.9 11.3 0.95 11.1 1.05 11 1.2 10.9 1.4 10.85 1.65 10.8 1.85 10.8 2.1 10.8 2.4 10.85 2.6 10.9 2.8 11 2.95 11.1 3.15 11.3 3.25 11.5 3.3 11.8 3.3
L 13.4 3.3 13.4 8.85
Q 13.4 9.1 13.5 9.3 13.6 9.45 13.8 9.6 14.05 9.75 14.2 9.8 14.45 9.9 14.65 9.9 14.9 9.9 15.15 9.8 15.4 9.75 15.6 9.6 15.8 9.45 15.9 9.3 16.05 9.1 16.05 8.85
L 16.05 2.9
M 35.6 -8.4
Q 35.6 -8.7 35.5 -8.9 35.4 -9.1 35.2 -9.2 34.75 -9.4 34.3 -9.4 33.65 -9.4 33.3 -9.2 33.05 -9.1 32.95 -8.9 32.85 -8.7 32.85 -8.4
L 32.85 9.35
Q 32.85 9.65 32.95 9.8 33.05 10.05 33.3 10.1 33.65 10.3 34.3 10.3 34.75 10.3 35.2 10.1 35.4 10.05 35.5 9.8 35.6 9.65 35.6 9.35
L 35.6 -8.4
M 29.15 -6.5
Q 29.15 -6.7 29.1 -6.85 29.05 -7 28.95 -7.1 28.85 -7.25 28.7 -7.35 28.55 -7.45 28.35 -7.55 28.15 -7.6 27.9 -7.65 27.6 -7.7 27.25 -7.7
L 22.1 -7.7
Q 21.8 -7.7 21.6 -7.6 21.4 -7.5 21.25 -7.3 21 -6.95 21 -6.45 21 -6.2 21.05 -6 21.15 -5.75 21.25 -5.6 21.4 -5.4 21.6 -5.3 21.8 -5.2 22.1 -5.2
L 26.35 -5.2
Q 26.3 -4.7 26.25 -4.25 26.2 -3.8 26.15 -3.4 26.05 -3 25.95 -2.7 25.85 -2.35 25.75 -2.05 25.65 -1.75 25.5 -1.5 25.35 -1.25 25.2 -1.05 25.05 -0.8 24.85 -0.6 24.7 -0.35 24.6 -0.15 24.35 0.1 24.15 0.25 24 0.45 23.9 0.6 23.75 0.75 23.6 0.9 23.45 1.05 23.25 1.15 23.1 1.3 22.95 1.4 22.8 1.55 22.6 1.65 22.35 1.8 22.05 1.95 21.8 2.1 21.4 2.25 21.15 2.4 21.05 2.55 20.9 2.7 20.85 2.9 20.8 3.1 20.8 3.3 20.85 3.55 20.95 3.8 21.05 4.05 21.2 4.25 21.3 4.45 21.5 4.55 21.65 4.7 21.85 4.75 22.05 4.75 22.3 4.65 22.75 4.45 23.15 4.25 23.55 4.05 23.85 3.85 24.2 3.7 24.4 3.55 24.7 3.35 24.9 3.15 25.15 3 25.35 2.8 25.6 2.55 25.8 2.35 26 2.15 26.2 1.85 26.4 1.6 26.65 1.3 27 1 27.25 0.6 27.55 0.25 27.75 -0.15 28 -0.55 28.15 -0.95 28.35 -1.4 28.45 -1.85 28.65 -2.35 28.8 -2.8 28.95 -3.25 29.05 -3.75 29.1 -4.25 29.15 -4.7 29.15 -5.2 29.15 -5.65 29.15 -5.85 29.15 -6.1 29.15 -6.3 29.15 -6.5
M 16.05 -8.3
Q 16.05 -8.45 16 -8.55 15.95 -8.7 15.9 -8.8 15.85 -8.9 15.75 -9 15.65 -9.05 15.5 -9.1 15.4 -9.15 15.3 -9.2 15.2 -9.25 15.05 -9.25 14.9 -9.25 14.75 -9.25 14.6 -9.3 14.5 -9.3 14.2 -9.3 14 -9.25 13.75 -9.2 13.55 -9.1 13.4 -9 13.3 -8.8 13.2 -8.6 13.2 -8.3
L 13.2 -0.6
Q 13.2 -0.3 13.3 -0.1 13.4 0.1 13.55 0.25 13.75 0.35 14 0.4 14.2 0.45 14.5 0.45 14.8 0.45 15.05 0.4 15.35 0.35 15.55 0.25 15.8 0.1 15.9 -0.1 16 -0.3 16.05 -0.6
L 16.05 -8.3
M 9.9 -6.4
Q 9.7 -6.8 9.5 -7.15 9.25 -7.5 8.95 -7.8 8.3 -8.4 7.4 -8.7 6.9 -8.85 6.4 -8.95 5.9 -9 5.35 -9 4.75 -9 4.2 -8.95 3.65 -8.85 3.2 -8.7 2.25 -8.4 1.65 -7.8 1.35 -7.5 1.1 -7.15 0.85 -6.8 0.7 -6.4 0.55 -5.95 0.45 -5.45 0.35 -5 0.35 -4.45 0.35 -3.95 0.45 -3.5 0.55 -3 0.7 -2.6 0.85 -2.2 1.1 -1.85 1.35 -1.5 1.65 -1.2 2.25 -0.6 3.2 -0.3 3.65 -0.15 4.2 -0.05 4.75 0 5.35 0 5.9 0 6.4 -0.05 6.9 -0.15 7.4 -0.3 8.3 -0.6 8.95 -1.2 9.25 -1.5 9.5 -1.85 9.7 -2.2 9.9 -2.6 10.05 -3 10.15 -3.5 10.25 -3.95 10.25 -4.45 10.25 -5 10.15 -5.45 10.05 -5.95 9.9 -6.4
M 5.35 -6.5
Q 5.9 -6.5 6.35 -6.35 6.75 -6.25 7.1 -6 7.35 -5.7 7.55 -5.35 7.7 -4.95 7.7 -4.45 7.7 -4 7.55 -3.6 7.35 -3.25 7.1 -3 6.75 -2.75 6.35 -2.6 5.9 -2.45 5.35 -2.45 4.75 -2.45 4.3 -2.6 3.85 -2.75 3.55 -3 3.25 -3.25 3.1 -3.6 2.95 -4 2.95 -4.45 2.95 -4.95 3.1 -5.35 3.25 -5.7 3.55 -6 3.85 -6.25 4.3 -6.35 4.75 -6.5 5.35 -6.5 Z"/>
</g>

<path id="Layer0_0_1_STROKES" stroke="#DBDBDB" stroke-width="3" stroke-linejoin="round" stroke-linecap="round" fill="none" d="
M 864.6 324.1
L 1074.6 324.1
Q 1089.6 324.1 1089.6 339.1
L 1089.6 369.15
Q 1089.6 384.15 1074.6 384.15
L 864.6 384.15
Q 849.6 384.15 849.6 369.15
L 849.6 339.1
Q 849.6 324.1 864.6 324.1 Z"/>
</defs>

<g transform="matrix( 1, 0, 0, 1, 0,0) ">
<use xlink:href="#Layer0_0_FILL"/>

<use xlink:href="#Layer0_0_1_STROKES"/>
</g>

<g transform="matrix( 1, 0, 0, 1, 902.4,290.25) ">
<g transform="matrix( 0.7999725341796875, 0, 0, 0.79998779296875, -30.4,0) ">
<g transform="matrix( 1, 0, 0, 1, 0,0) ">
<use xlink:href="#Duplicate_Items_Folder_fdnd454535_copy_1_Layer4_0_FILL"/>
</g>

<mask id="Mask_Mask_1">
<g transform="matrix( 1, 0, 0, 1, 0,0) ">
<use xlink:href="#Mask_Duplicate_Items_Folder_fdnd454535_copy_1_3_MASK_0_FILL"/>
</g>
</mask>

<g mask="url(#Mask_Mask_1)">
<g transform="matrix( 1, 0, 0, 1, 0,0) ">
<use xlink:href="#Duplicate_Items_Folder_fdnd454535_copy_1_Layer3_0_FILL"/>
</g>
</g>

<g mask="url(#Mask_Mask_1)">
<g transform="matrix( -0.56134033203125, 0.56134033203125, -0.56134033203125, -0.56134033203125, -0.05,0) ">
<g transform="matrix( 1.67486572265625, 0, 0, 1.67486572265625, -5.95,43.5) ">
<use xlink:href="#Duplicate_Items_Folder_bs232323_copy_3_Layer4_0_FILL"/>
</g>
</g>
</g>

<g transform="matrix( 1, 0, 0, 1, 0,0) ">
<use xlink:href="#Duplicate_Items_Folder_fdnd454535_copy_1_Layer0_0_FILL"/>
</g>
</g>

<g transform="matrix( 1, 0, 0, 1, 0,0) ">
<use xlink:href="#Duplicate_Items_Folder_sbs43434_copy_1_Layer1_0_FILL"/>
</g>
</g>
</svg>
