
<svg xmlns="http://www.w3.org/2000/svg" version="1.1" xmlns:xlink="http://www.w3.org/1999/xlink" preserveAspectRatio="none" x="0px" y="0px" width="1200px" height="460px" viewBox="0 0 1200 460">
<defs>
<g id="Layer0_0_FILL">
<path fill="#3567D7" stroke="none" d="
M 1047.8 48.1
Q 1047.8 47.85 1047.6 47.6 1047.4 47.4 1047.15 47.4
L 1036.1 47.4
Q 1035.95 47.4 1035.7 47.6 1035.5 47.75 1035.5 48.05
L 1035.5 50.6
Q 1035.5 50.9 1035.7 51.05 1035.95 51.2 1036.1 51.2
L 1047.15 51.2
Q 1047.45 51.2 1047.65 51 1047.8 50.8 1047.8 50.55
L 1047.8 48.1
M 1059.85 78.05
Q 1060.05 77.85 1060.05 77.65
L 1060.05 75
Q 1060.05 74.8 1059.85 74.6 1059.65 74.45 1059.45 74.45
L 1044.4 74.45 1044.4 69
Q 1044.4 68.75 1044.25 68.6 1044.05 68.45 1043.85 68.45
L 1040.35 68.45
Q 1039.8 68.45 1039.8 69
L 1039.8 74.45 1024.65 74.45
Q 1024.05 74.45 1024.05 75
L 1024.05 77.65
Q 1024.05 77.85 1024.2 78.1 1024.35 78.3 1024.65 78.3
L 1059.45 78.3
Q 1059.65 78.3 1059.85 78.05
M 1057.05 64.8
Q 1055.8 64.55 1054.45 64.25 1053.1 63.95 1051.75 63.6 1050.4 63.3 1049.15 62.9 1047.9 62.55 1046.9 62.25 1049.75 60.55 1051.4 58.85 1052.3 57.8 1052.75 56.95 1053.2 56.15 1053.2 55.55 1053.2 54.65 1052.3 54.1 1051.45 53.55 1049.7 53.55
L 1030.55 53.55
Q 1030 53.55 1030 54.1
L 1030 56.8
Q 1030 57.35 1030.55 57.35
L 1045.9 57.35
Q 1046.15 57.35 1046.3 57.5 1046.45 57.7 1045.8 58.2 1044.4 59.2 1042.35 60.25 1040.25 61.25 1037.8 62.25 1035.4 63.2 1032.75 64.05 1030.1 64.9 1027.6 65.4 1027.3 65.5 1027.1 65.8 1026.9 66.1 1026.95 66.35
L 1027.75 68.65
Q 1027.8 68.95 1028.15 69.05 1028.5 69.1 1028.8 69.05 1032.3 68.35 1035.8 67.2 1039.25 66 1042.35 64.6 1043.95 65.2 1045.65 65.75 1047.4 66.35 1049.1 66.85 1050.85 67.35 1052.55 67.8 1054.25 68.3 1055.8 68.6 1056.1 68.65 1056.35 68.5 1056.6 68.3 1056.7 68.1
L 1057.6 65.6
Q 1057.65 65.35 1057.5 65.1 1057.4 64.9 1057.05 64.8
M 986.95 58.4
Q 986.55 56.7 985.85 55.15 985.15 53.6 984 52.4 982.95 51.25 981.35 50.55 979.8 49.9 977.75 49.9 974.55 49.9 972.6 51.35 970.65 52.85 969.55 55.1 968.45 57.4 968.05 60.1 967.7 62.85 967.7 65.3 967.7 72.65 970.15 76.7 972.6 80.75 977.75 80.75 980.3 80.75 982.15 79.75 984 78.65 985.25 76.7 986.5 74.75 987.1 71.85 987.7 68.95 987.7 65.3 987.7 63.65 987.5 61.9 987.35 60.1 986.95 58.4
M 977.75 54.25
Q 978.95 54.25 980 54.85 981 55.4 981.75 56.7 982.45 58.05 982.85 60.15 983.2 62.3 983.2 65.3 983.2 68.4 982.85 70.55 982.45 72.65 981.75 73.95 981 75.3 980 75.85 978.95 76.45 977.75 76.45 976.45 76.45 975.45 75.85 974.45 75.3 973.75 73.95 973 72.65 972.65 70.55 972.25 68.4 972.25 65.3 972.25 62.3 972.65 60.15 973 58.05 973.75 56.7 974.45 55.4 975.45 54.85 976.45 54.25 977.75 54.25
M 952.6 54
Q 954.35 54 955.5 55.25 956.7 56.5 956.7 58.4 956.7 60.1 955.1 62.7 953.5 65.35 950.15 69.3
L 944.05 76.55
Q 943.85 76.85 943.65 77.15 943.5 77.5 943.5 77.8
L 943.5 80.1
Q 943.5 80.6 944.25 80.6
L 961.3 80.6
Q 961.85 80.6 961.85 79.9
L 961.85 77.1
Q 961.85 76.5 961.3 76.5
L 949.55 76.5
Q 950.55 75.35 951.55 74.2 952.55 73 953.4 71.9 954.5 70.6 955.9 69 957.25 67.35 958.45 65.6 959.65 63.8 960.45 61.95 961.25 60.1 961.25 58.3 961.25 56.2 960.55 54.6 959.85 53 958.7 51.95 957.55 50.9 955.9 50.35 954.3 49.8 952.35 49.8 950.5 49.8 948.5 50.45 946.55 51.1 945.05 51.9 944.65 52.1 944.5 52.35 944.4 52.5 944.5 52.7
L 945.05 55.75
Q 945.15 56.1 945.45 56.15 945.75 56.15 946.1 55.95 947.9 54.9 949.4 54.45 950.95 54 952.6 54
M 711 119.45
Q 711 119.2 710.85 119.05 710.7 118.85 710.5 118.85
L 706.95 118.7
Q 706.75 118.7 706.55 118.9 706.4 119.1 706.4 119.3 706.4 121.1 706.35 122.65 706.25 124.25 706.05 125.7 705.8 127.15 705.5 128.6 705.15 130 704.65 131.45 703.55 134.75 701.65 137.6 699.8 140.5 697.25 142.85 696.5 143.5 697.15 144.1
L 699 145.85
Q 699.65 146.5 700.35 145.9 701.45 145 702.55 143.75 703.7 142.55 704.75 141.1 705.8 139.7 706.75 138.1 707.65 136.5 708.35 134.8 708.9 136.1 709.75 137.45 710.6 138.85 711.6 140.15 712.6 141.5 713.7 142.6 714.8 143.7 715.75 144.45 716.1 144.75 716.5 144.75 716.8 144.7 717 144.4
L 718.7 142.35
Q 719.25 141.6 718.6 141.1 717.35 140.1 716 138.6 714.7 137.1 713.55 135.35 712.4 133.65 711.55 131.7 710.7 129.8 710.3 127.9 710.65 126 710.85 123.95 711 121.85 711 119.45
M 728.05 117.3
Q 728.05 116.75 727.5 116.75
L 724 116.75
Q 723.75 116.75 723.6 116.9 723.4 117.05 723.4 117.3
L 723.4 154.2
Q 723.4 154.45 723.6 154.55 723.75 154.75 724 154.75
L 727.5 154.75
Q 728.05 154.75 728.05 154.2
L 728.05 117.3
M 638.75 139.3
Q 638.6 139.45 638.45 139.75 638.25 140.05 638.25 140.3
L 638.25 143.3
Q 638.25 143.6 638.4 143.65 638.55 143.75 638.9 143.75
L 651.7 143.75 651.7 149.85
Q 651.7 150.25 651.85 150.4 652 150.55 652.45 150.55
L 655.35 150.55
Q 655.75 150.55 655.85 150.4 656 150.3 656 149.85
L 656 143.75 659.7 143.75
Q 660.05 143.75 660.2 143.65 660.35 143.55 660.35 143.15
L 660.35 140.25
Q 660.35 139.85 660.2 139.75 660.05 139.65 659.7 139.65
L 656 139.65 656 120.75
Q 656 120.4 655.95 120.3 655.9 120.15 655.6 120.15
L 651.95 120.15
Q 651.55 120.15 651.45 120.25 651.35 120.35 651.15 120.7
L 638.75 139.3
M 651.7 126.6
L 651.7 139.65 643.1 139.65 651.7 126.6
M 1059.85 228.05
Q 1060.05 227.85 1060.05 227.65
L 1060.05 225
Q 1060.05 224.8 1059.85 224.6 1059.65 224.45 1059.45 224.45
L 1044.4 224.45 1044.4 219
Q 1044.4 218.75 1044.25 218.6 1044.05 218.45 1043.85 218.45
L 1040.35 218.45
Q 1039.8 218.45 1039.8 219
L 1039.8 224.45 1024.65 224.45
Q 1024.05 224.45 1024.05 225
L 1024.05 227.65
Q 1024.05 227.85 1024.2 228.1 1024.35 228.3 1024.65 228.3
L 1059.45 228.3
Q 1059.65 228.3 1059.85 228.05
M 1057.05 214.8
Q 1055.8 214.55 1054.45 214.25 1053.1 213.95 1051.75 213.6 1050.4 213.3 1049.15 212.9 1047.9 212.55 1046.9 212.25 1049.75 210.55 1051.4 208.85 1052.3 207.8 1052.75 206.95 1053.2 206.15 1053.2 205.55 1053.2 204.65 1052.3 204.1 1051.45 203.55 1049.7 203.55
L 1030.55 203.55
Q 1030 203.55 1030 204.1
L 1030 206.8
Q 1030 207.35 1030.55 207.35
L 1045.9 207.35
Q 1046.15 207.35 1046.3 207.5 1046.45 207.7 1045.8 208.2 1044.4 209.2 1042.35 210.25 1040.25 211.25 1037.8 212.25 1035.4 213.2 1032.75 214.05 1030.1 214.9 1027.6 215.4 1027.3 215.5 1027.1 215.8 1026.9 216.1 1026.95 216.35
L 1027.75 218.65
Q 1027.8 218.95 1028.15 219.05 1028.5 219.1 1028.8 219.05 1032.3 218.35 1035.8 217.2 1039.25 216 1042.35 214.6 1043.95 215.2 1045.65 215.75 1047.4 216.35 1049.1 216.85 1050.85 217.35 1052.55 217.8 1054.25 218.3 1055.8 218.6 1056.1 218.65 1056.35 218.5 1056.6 218.3 1056.7 218.1
L 1057.6 215.6
Q 1057.65 215.35 1057.5 215.1 1057.4 214.9 1057.05 214.8
M 1047.6 197.6
Q 1047.4 197.4 1047.15 197.4
L 1036.1 197.4
Q 1035.95 197.4 1035.7 197.6 1035.5 197.75 1035.5 198.05
L 1035.5 200.6
Q 1035.5 200.9 1035.7 201.05 1035.95 201.2 1036.1 201.2
L 1047.15 201.2
Q 1047.45 201.2 1047.65 201 1047.8 200.8 1047.8 200.55
L 1047.8 198.1
Q 1047.8 197.85 1047.6 197.6
M 986.95 208.4
Q 986.55 206.7 985.85 205.15 985.15 203.6 984 202.4 982.95 201.25 981.35 200.55 979.8 199.9 977.75 199.9 974.55 199.9 972.6 201.35 970.65 202.85 969.55 205.1 968.45 207.4 968.05 210.1 967.7 212.85 967.7 215.3 967.7 222.65 970.15 226.7 972.6 230.75 977.75 230.75 980.3 230.75 982.15 229.75 984 228.65 985.25 226.7 986.5 224.75 987.1 221.85 987.7 218.95 987.7 215.3 987.7 213.65 987.5 211.9 987.35 210.1 986.95 208.4
M 977.75 204.25
Q 978.95 204.25 980 204.85 981 205.4 981.75 206.7 982.45 208.05 982.85 210.15 983.2 212.3 983.2 215.3 983.2 218.4 982.85 220.55 982.45 222.65 981.75 223.95 981 225.3 980 225.85 978.95 226.45 977.75 226.45 976.45 226.45 975.45 225.85 974.45 225.3 973.75 223.95 973 222.65 972.65 220.55 972.25 218.4 972.25 215.3 972.25 212.3 972.65 210.15 973 208.05 973.75 206.7 974.45 205.4 975.45 204.85 976.45 204.25 977.75 204.25
M 952.6 204
Q 954.35 204 955.5 205.25 956.7 206.5 956.7 208.4 956.7 210.1 955.1 212.7 953.5 215.35 950.15 219.3
L 944.05 226.55
Q 943.85 226.85 943.65 227.15 943.5 227.5 943.5 227.8
L 943.5 230.1
Q 943.5 230.6 944.25 230.6
L 961.3 230.6
Q 961.85 230.6 961.85 229.9
L 961.85 227.1
Q 961.85 226.5 961.3 226.5
L 949.55 226.5
Q 950.55 225.35 951.55 224.2 952.55 223 953.4 221.9 954.5 220.6 955.9 219 957.25 217.35 958.45 215.6 959.65 213.8 960.45 211.95 961.25 210.1 961.25 208.3 961.25 206.2 960.55 204.6 959.85 203 958.7 201.95 957.55 200.9 955.9 200.35 954.3 199.8 952.35 199.8 950.5 199.8 948.5 200.45 946.55 201.1 945.05 201.9 944.65 202.1 944.5 202.35 944.4 202.5 944.5 202.7
L 945.05 205.75
Q 945.15 206.1 945.45 206.15 945.75 206.15 946.1 205.95 947.9 204.9 949.4 204.45 950.95 204 952.6 204
M 895.85 224.6
Q 895.65 224.45 895.45 224.45
L 880.4 224.45 880.4 219
Q 880.4 218.75 880.25 218.6 880.05 218.45 879.85 218.45
L 876.35 218.45
Q 875.8 218.45 875.8 219
L 875.8 224.45 860.65 224.45
Q 860.05 224.45 860.05 225
L 860.05 227.65
Q 860.05 227.85 860.2 228.1 860.35 228.3 860.65 228.3
L 895.45 228.3
Q 895.65 228.3 895.85 228.05 896.05 227.85 896.05 227.65
L 896.05 225
Q 896.05 224.8 895.85 224.6
M 893.5 215.1
Q 893.4 214.9 893.05 214.8 891.8 214.55 890.45 214.25 889.1 213.95 887.75 213.6 886.4 213.3 885.15 212.9 883.9 212.55 882.9 212.25 885.75 210.55 887.4 208.85 888.3 207.8 888.75 206.95 889.2 206.15 889.2 205.55 889.2 204.65 888.3 204.1 887.45 203.55 885.7 203.55
L 866.55 203.55
Q 866 203.55 866 204.1
L 866 206.8
Q 866 207.35 866.55 207.35
L 881.9 207.35
Q 882.15 207.35 882.3 207.5 882.45 207.7 881.8 208.2 880.4 209.2 878.35 210.25 876.25 211.25 873.8 212.25 871.4 213.2 868.75 214.05 866.1 214.9 863.6 215.4 863.3 215.5 863.1 215.8 862.9 216.1 862.95 216.35
L 863.75 218.65
Q 863.8 218.95 864.15 219.05 864.5 219.1 864.8 219.05 868.3 218.35 871.8 217.2 875.25 216 878.35 214.6 879.95 215.2 881.65 215.75 883.4 216.35 885.1 216.85 886.85 217.35 888.55 217.8 890.25 218.3 891.8 218.6 892.1 218.65 892.35 218.5 892.6 218.3 892.7 218.1
L 893.6 215.6
Q 893.65 215.35 893.5 215.1
M 872.1 197.4
Q 871.95 197.4 871.7 197.6 871.5 197.75 871.5 198.05
L 871.5 200.6
Q 871.5 200.9 871.7 201.05 871.95 201.2 872.1 201.2
L 883.15 201.2
Q 883.45 201.2 883.65 201 883.8 200.8 883.8 200.55
L 883.8 198.1
Q 883.8 197.85 883.6 197.6 883.4 197.4 883.15 197.4
L 872.1 197.4
M 805.9 200.25
Q 805.75 200.35 805.75 200.8
L 805.55 215.55
Q 805.55 216.9 807.1 216.25 808.35 215.8 809.75 215.55 811.15 215.25 812.45 215.25 815.75 215.25 817.15 216.8 818.6 218.3 818.6 220.9 818.6 223.6 816.8 225.1 815.1 226.65 812.4 226.65 811.7 226.65 810.85 226.55 810.05 226.5 809.2 226.35 808.35 226.15 807.55 225.95 806.75 225.7 806.2 225.4 805.35 225 805.35 225.7
L 805.35 228.95
Q 805.35 229.25 805.35 229.4 805.4 229.5 805.65 229.7 806.3 230 807.25 230.2 808.15 230.45 809.1 230.6 810.05 230.7 810.85 230.8 811.7 230.85 812.1 230.85 814.4 230.85 816.45 230.2 818.55 229.55 819.95 228.25 823.1 225.45 823.1 220.4 823.1 218.3 822.35 216.65 821.6 214.95 820.3 213.75 819 212.6 817.25 211.95 815.5 211.35 813.5 211.35 811.55 211.35 809.95 211.7
L 810.1 204.3 821.25 204.3
Q 821.5 204.3 821.65 204.1 821.75 203.95 821.75 203.7
L 821.75 200.65
Q 821.75 200.45 821.65 200.3 821.5 200.1 821.25 200.1
L 806.6 200.1
Q 806 200.1 805.9 200.25
M 797.65 209.7
Q 798 208.6 798 207.5 798 205.5 797.15 204 796.3 202.5 794.95 201.6 793.65 200.7 791.9 200.25 790.15 199.8 788.35 199.8 786.65 199.8 785 200.15 783.3 200.55 781.55 201.15 781.15 201.35 781 201.55 780.85 201.7 780.95 201.95
L 781.3 204.9
Q 781.4 205.25 781.6 205.35 781.8 205.45 782.3 205.25 782.9 205 783.7 204.75 784.5 204.5 785.3 204.35 786.1 204.15 786.85 204.05 787.55 203.95 788.1 203.95 788.95 203.95 789.9 204.15 790.85 204.35 791.7 204.85 792.5 205.3 793.05 206.1 793.55 206.85 793.55 207.85 793.55 209.2 792.75 210.1 791.95 211.05 790.75 211.65 789.6 212.25 788.35 212.5 787.1 212.75 786.25 212.75
L 784.35 212.75
Q 784 212.75 783.9 212.85 783.8 212.9 783.8 213.3
L 783.8 216.25
Q 783.8 216.55 783.9 216.65 784 216.75 784.35 216.75
L 786.3 216.75
Q 788.25 216.75 789.6 217.15 791 217.5 791.9 218.2 792.75 218.85 793.2 219.7 793.6 220.55 793.6 221.5 793.6 224.15 791.65 225.5 791 225.95 790.25 226.2 789.45 226.5 788.6 226.6 787.75 226.7 786.85 226.65 785.95 226.6 785.15 226.55 784.05 226.45 783 226.15 781.95 225.85 780.9 225.55 780.35 225.3 780.15 225.45 779.95 225.55 779.9 225.9
L 779.55 228.95
Q 779.5 229.3 779.7 229.45 779.85 229.65 780.25 229.75 781.7 230.3 783.45 230.6 785.2 230.9 786.95 230.9 789.25 230.9 791.4 230.3 793.55 229.75 795.05 228.5 796.55 227.25 797.4 225.5 798.2 223.7 798.2 221.6 798.2 219.4 796.85 217.6 795.5 215.85 792.85 214.7 793.95 214.2 794.9 213.45 795.85 212.7 796.55 211.7 797.25 210.75 797.65 209.7
M 701.9 222.35
Q 701.7 222.35 701.5 222.5 701.35 222.7 701.35 222.9
L 701.35 230.9
Q 701.35 232.5 701.95 233.15 702.55 233.8 704.35 233.8
L 726.7 233.8
Q 726.9 233.8 727.1 233.65 727.3 233.55 727.3 233.3
L 727.3 230.45
Q 727.3 230.25 727.1 230.1 726.9 229.95 726.7 229.95
L 706.65 229.95
Q 706.25 229.95 706.1 229.85 705.95 229.75 705.95 229.3
L 705.95 222.9
Q 705.95 222.7 705.75 222.5 705.6 222.35 705.3 222.35
L 701.9 222.35
M 731.8 218.9
L 731.8 216.25
Q 731.8 216.05 731.6 215.85 731.4 215.65 731.2 215.65
L 696.4 215.65
Q 696.1 215.65 695.95 215.8 695.8 216 695.8 216.25
L 695.8 218.9
Q 695.8 219.1 695.95 219.3 696.1 219.45 696.4 219.45
L 711.8 219.45 711.8 226.2
Q 711.8 226.75 712.35 226.75
L 715.85 226.75
Q 716.4 226.75 716.4 226.2
L 716.4 219.45 731.2 219.45
Q 731.4 219.45 731.6 219.3 731.8 219.1 731.8 218.9
M 725.75 197.7
Q 725.6 197.55 725.35 197.55
L 721.8 197.55
Q 721.6 197.55 721.45 197.7 721.3 197.85 721.3 198.1
L 721.3 201.55 706.25 201.55 706.25 198.15
Q 706.25 197.9 706.05 197.8 705.9 197.65 705.7 197.65
L 702.2 197.65
Q 701.95 197.65 701.8 197.8 701.65 197.9 701.65 198.15
L 701.65 209.45
Q 701.65 211.1 702.3 211.7 702.9 212.3 704.75 212.3
L 722.85 212.3
Q 724.6 212.3 725.25 211.6 725.9 210.95 725.9 209.6
L 725.9 198.1
Q 725.9 197.85 725.75 197.7
M 721.3 205.2
L 721.3 207.9
Q 721.3 208.65 720.55 208.65
L 707 208.65
Q 706.25 208.65 706.25 207.9
L 706.25 205.2 721.3 205.2
M 638.75 219.3
Q 638.6 219.45 638.45 219.75 638.25 220.05 638.25 220.3
L 638.25 223.3
Q 638.25 223.6 638.4 223.65 638.55 223.75 638.9 223.75
L 651.7 223.75 651.7 229.85
Q 651.7 230.25 651.85 230.4 652 230.55 652.45 230.55
L 655.35 230.55
Q 655.75 230.55 655.85 230.4 656 230.3 656 229.85
L 656 223.75 659.7 223.75
Q 660.05 223.75 660.2 223.65 660.35 223.55 660.35 223.15
L 660.35 220.25
Q 660.35 219.85 660.2 219.75 660.05 219.65 659.7 219.65
L 656 219.65 656 200.75
Q 656 200.4 655.95 200.3 655.9 200.15 655.6 200.15
L 651.95 200.15
Q 651.55 200.15 651.45 200.25 651.35 200.35 651.15 200.7
L 638.75 219.3
M 651.7 206.6
L 651.7 219.65 643.1 219.65 651.7 206.6
M 869.55 142.35
L 866.15 142.35
Q 865.95 142.35 865.75 142.5 865.6 142.7 865.6 142.9
L 865.6 150.9
Q 865.6 152.5 866.2 153.15 866.8 153.8 868.6 153.8
L 890.95 153.8
Q 891.15 153.8 891.35 153.65 891.55 153.55 891.55 153.3
L 891.55 150.45
Q 891.55 150.25 891.35 150.1 891.15 149.95 890.95 149.95
L 870.9 149.95
Q 870.5 149.95 870.35 149.85 870.2 149.75 870.2 149.3
L 870.2 142.9
Q 870.2 142.7 870 142.5 869.85 142.35 869.55 142.35
M 860.05 136.25
L 860.05 138.9
Q 860.05 139.1 860.2 139.3 860.35 139.45 860.65 139.45
L 876.05 139.45 876.05 146.2
Q 876.05 146.75 876.6 146.75
L 880.1 146.75
Q 880.65 146.75 880.65 146.2
L 880.65 139.45 895.45 139.45
Q 895.65 139.45 895.85 139.3 896.05 139.1 896.05 138.9
L 896.05 136.25
Q 896.05 136.05 895.85 135.85 895.65 135.65 895.45 135.65
L 860.65 135.65
Q 860.35 135.65 860.2 135.8 860.05 136 860.05 136.25
M 890.15 118.1
Q 890.15 117.85 890 117.7 889.85 117.55 889.6 117.55
L 886.05 117.55
Q 885.85 117.55 885.7 117.7 885.55 117.85 885.55 118.1
L 885.55 121.55 870.5 121.55 870.5 118.15
Q 870.5 117.9 870.3 117.8 870.15 117.65 869.95 117.65
L 866.45 117.65
Q 866.2 117.65 866.05 117.8 865.9 117.9 865.9 118.15
L 865.9 129.45
Q 865.9 131.1 866.55 131.7 867.15 132.3 869 132.3
L 887.1 132.3
Q 888.85 132.3 889.5 131.6 890.15 130.95 890.15 129.6
L 890.15 118.1
M 870.5 127.9
L 870.5 125.2 885.55 125.2 885.55 127.9
Q 885.55 128.65 884.8 128.65
L 871.25 128.65
Q 870.5 128.65 870.5 127.9
M 816.15 120.35
Q 814.55 119.8 812.6 119.8 810.75 119.8 808.75 120.45 806.8 121.1 805.3 121.9 804.9 122.1 804.75 122.35 804.65 122.5 804.75 122.7
L 805.3 125.75
Q 805.4 126.1 805.7 126.15 806 126.15 806.35 125.95 808.15 124.9 809.65 124.45 811.2 124 812.85 124 814.6 124 815.75 125.25 816.95 126.5 816.95 128.4 816.95 130.1 815.35 132.7 813.75 135.35 810.4 139.3
L 804.3 146.55
Q 804.1 146.85 803.9 147.15 803.75 147.5 803.75 147.8
L 803.75 150.1
Q 803.75 150.6 804.5 150.6
L 821.55 150.6
Q 822.1 150.6 822.1 149.9
L 822.1 147.1
Q 822.1 146.5 821.55 146.5
L 809.8 146.5
Q 810.8 145.35 811.8 144.2 812.8 143 813.65 141.9 814.75 140.6 816.15 139 817.5 137.35 818.7 135.6 819.9 133.8 820.7 131.95 821.5 130.1 821.5 128.3 821.5 126.2 820.8 124.6 820.1 123 818.95 121.95 817.8 120.9 816.15 120.35
M 794.95 121.6
Q 793.65 120.7 791.9 120.25 790.15 119.8 788.35 119.8 786.65 119.8 785 120.15 783.3 120.55 781.55 121.15 781.15 121.35 781 121.55 780.85 121.7 780.95 121.95
L 781.3 124.9
Q 781.4 125.25 781.6 125.35 781.8 125.45 782.3 125.25 782.9 125 783.7 124.75 784.5 124.5 785.3 124.35 786.1 124.15 786.85 124.05 787.55 123.95 788.1 123.95 788.95 123.95 789.9 124.15 790.85 124.35 791.7 124.85 792.5 125.3 793.05 126.1 793.55 126.85 793.55 127.85 793.55 129.2 792.75 130.1 791.95 131.05 790.75 131.65 789.6 132.25 788.35 132.5 787.1 132.75 786.25 132.75
L 784.35 132.75
Q 784 132.75 783.9 132.85 783.8 132.9 783.8 133.3
L 783.8 136.25
Q 783.8 136.55 783.9 136.65 784 136.75 784.35 136.75
L 786.3 136.75
Q 788.25 136.75 789.6 137.15 791 137.5 791.9 138.2 792.75 138.85 793.2 139.7 793.6 140.55 793.6 141.5 793.6 144.15 791.65 145.5 791 145.95 790.25 146.2 789.45 146.5 788.6 146.6 787.75 146.7 786.85 146.65 785.95 146.6 785.15 146.55 784.05 146.45 783 146.15 781.95 145.85 780.9 145.55 780.35 145.3 780.15 145.45 779.95 145.55 779.9 145.9
L 779.55 148.95
Q 779.5 149.3 779.7 149.45 779.85 149.65 780.25 149.75 781.7 150.3 783.45 150.6 785.2 150.9 786.95 150.9 789.25 150.9 791.4 150.3 793.55 149.75 795.05 148.5 796.55 147.25 797.4 145.5 798.2 143.7 798.2 141.6 798.2 139.4 796.85 137.6 795.5 135.85 792.85 134.7 793.95 134.2 794.9 133.45 795.85 132.7 796.55 131.7 797.25 130.75 797.65 129.7 798 128.6 798 127.5 798 125.5 797.15 124 796.3 122.5 794.95 121.6
M 866.05 47.8
Q 865.9 47.9 865.9 48.15
L 865.9 59.45
Q 865.9 61.1 866.55 61.7 867.15 62.3 869 62.3
L 887.1 62.3
Q 888.85 62.3 889.5 61.6 890.15 60.95 890.15 59.6
L 890.15 48.1
Q 890.15 47.85 890 47.7 889.85 47.55 889.6 47.55
L 886.05 47.55
Q 885.85 47.55 885.7 47.7 885.55 47.85 885.55 48.1
L 885.55 51.55 870.5 51.55 870.5 48.15
Q 870.5 47.9 870.3 47.8 870.15 47.65 869.95 47.65
L 866.45 47.65
Q 866.2 47.65 866.05 47.8
M 885.55 55.2
L 885.55 57.9
Q 885.55 58.65 884.8 58.65
L 871.25 58.65
Q 870.5 58.65 870.5 57.9
L 870.5 55.2 885.55 55.2
M 896.05 68.9
L 896.05 66.25
Q 896.05 66.05 895.85 65.85 895.65 65.65 895.45 65.65
L 860.65 65.65
Q 860.35 65.65 860.2 65.8 860.05 66 860.05 66.25
L 860.05 68.9
Q 860.05 69.1 860.2 69.3 860.35 69.45 860.65 69.45
L 876.05 69.45 876.05 76.2
Q 876.05 76.75 876.6 76.75
L 880.1 76.75
Q 880.65 76.75 880.65 76.2
L 880.65 69.45 895.45 69.45
Q 895.65 69.45 895.85 69.3 896.05 69.1 896.05 68.9
M 891.55 83.3
L 891.55 80.45
Q 891.55 80.25 891.35 80.1 891.15 79.95 890.95 79.95
L 870.9 79.95
Q 870.5 79.95 870.35 79.85 870.2 79.75 870.2 79.3
L 870.2 72.9
Q 870.2 72.7 870 72.5 869.85 72.35 869.55 72.35
L 866.15 72.35
Q 865.95 72.35 865.75 72.5 865.6 72.7 865.6 72.9
L 865.6 80.9
Q 865.6 82.5 866.2 83.15 866.8 83.8 868.6 83.8
L 890.95 83.8
Q 891.15 83.8 891.35 83.65 891.55 83.55 891.55 83.3
M 820.8 61.7
Q 821.5 60.75 821.9 59.7 822.25 58.6 822.25 57.5 822.25 55.5 821.4 54 820.55 52.5 819.2 51.6 817.9 50.7 816.15 50.25 814.4 49.8 812.6 49.8 810.9 49.8 809.25 50.15 807.55 50.55 805.8 51.15 805.4 51.35 805.25 51.55 805.1 51.7 805.2 51.95
L 805.55 54.9
Q 805.65 55.25 805.85 55.35 806.05 55.45 806.55 55.25 807.15 55 807.95 54.75 808.75 54.5 809.55 54.35 810.35 54.15 811.1 54.05 811.8 53.95 812.35 53.95 813.2 53.95 814.15 54.15 815.1 54.35 815.95 54.85 816.75 55.3 817.3 56.1 817.8 56.85 817.8 57.85 817.8 59.2 817 60.1 816.2 61.05 815 61.65 813.85 62.25 812.6 62.5 811.35 62.75 810.5 62.75
L 808.6 62.75
Q 808.25 62.75 808.15 62.85 808.05 62.9 808.05 63.3
L 808.05 66.25
Q 808.05 66.55 808.15 66.65 808.25 66.75 808.6 66.75
L 810.55 66.75
Q 812.5 66.75 813.85 67.15 815.25 67.5 816.15 68.2 817 68.85 817.45 69.7 817.85 70.55 817.85 71.5 817.85 74.15 815.9 75.5 815.25 75.95 814.5 76.2 813.7 76.5 812.85 76.6 812 76.7 811.1 76.65 810.2 76.6 809.4 76.55 808.3 76.45 807.25 76.15 806.2 75.85 805.15 75.55 804.6 75.3 804.4 75.45 804.2 75.55 804.15 75.9
L 803.8 78.95
Q 803.75 79.3 803.95 79.45 804.1 79.65 804.5 79.75 805.95 80.3 807.7 80.6 809.45 80.9 811.2 80.9 813.5 80.9 815.65 80.3 817.8 79.75 819.3 78.5 820.8 77.25 821.65 75.5 822.45 73.7 822.45 71.6 822.45 69.4 821.1 67.6 819.75 65.85 817.1 64.7 818.2 64.2 819.15 63.45 820.1 62.7 820.8 61.7
M 611 137.4
Q 611.5 137.4 611.5 136.9
L 611.5 133.8
Q 611.5 133.3 611 133.3
L 602.55 133.3 602.55 124.9
Q 602.55 124.75 602.45 124.55 602.3 124.45 602.1 124.45
L 598.8 124.45
Q 598.65 124.45 598.45 124.55 598.35 124.75 598.35 124.9
L 598.35 133.3 589.85 133.3
Q 589.65 133.3 589.55 133.45 589.4 133.6 589.4 133.8
L 589.4 136.9
Q 589.4 137.1 589.55 137.25 589.65 137.4 589.85 137.4
L 598.35 137.4 598.35 145.85
Q 598.35 146.35 598.8 146.35
L 602.1 146.35
Q 602.55 146.35 602.55 145.85
L 602.55 137.4 611 137.4 Z"/>
</g>

<path id="Layer0_0_1_STROKES" stroke="#3567D7" stroke-width="3" stroke-linejoin="round" stroke-linecap="round" fill="none" d="
M 578.15 172.35
L 1078.15 172.35"/>
</defs>

<g transform="matrix( 1, 0, 0, 1, 0,0) ">
<use xlink:href="#Layer0_0_FILL"/>

<use xlink:href="#Layer0_0_1_STROKES"/>
</g>
</svg>
