
<svg xmlns="http://www.w3.org/2000/svg" version="1.1" xmlns:xlink="http://www.w3.org/1999/xlink" preserveAspectRatio="none" x="0px" y="0px" width="992px" height="151px" viewBox="0 0 992 151">
<defs>
<g id="Layer0_0_FILL">
<path fill="#1E1E1E" stroke="none" d="
M 103.35 118.05
Q 102.4 118.3 101.6 118.75 100.8 119.25 100.1 119.9 99.4 120.6 98.85 121.4 98.3 122.25 97.95 123.3 97.55 124.35 97.25 125.55 96.95 126.75 96.85 128.1 96.7 129.45 96.7 130.9 96.7 132.3 96.8 133.65 96.95 134.95 97.2 136.15 97.45 137.3 97.8 138.35 98.25 139.45 98.8 140.3 99.4 141.2 100.1 141.85 100.8 142.55 101.55 143 102.35 143.5 103.3 143.75 104.25 144 105.4 144 106.4 144 107.3 143.75 108.2 143.5 109.05 143 109.85 142.55 110.55 141.85 111.25 141.2 111.8 140.3 112.4 139.45 112.85 138.35 113.3 137.3 113.6 136.15 113.85 134.95 114 133.65 114.15 132.3 114.15 130.9 114.15 129.5 114 128.2 113.85 126.85 113.6 125.65 113.25 124.45 112.8 123.4 112.35 122.4 111.75 121.5 111.15 120.65 110.5 120 109.8 119.3 109 118.8 108.2 118.3 107.3 118.05 106.4 117.75 105.4 117.75 104.3 117.8 103.35 118.05
M 102.65 123.3
Q 103.05 122.85 103.45 122.45 103.85 122.15 104.35 122 104.85 121.8 105.4 121.8 105.85 121.8 106.35 122 106.8 122.15 107.3 122.5 107.7 122.85 108.1 123.35 108.45 123.85 108.75 124.45 108.95 125.1 109.15 125.8 109.35 126.5 109.55 127.35 109.7 128.2 109.8 129.05 109.9 129.95 109.9 130.9 109.9 131.85 109.8 132.75 109.75 133.65 109.6 134.45 109.2 136.15 108.75 137.35 108.5 138 108.1 138.5 107.75 139 107.3 139.35 106.85 139.75 106.35 139.9 105.9 140.1 105.4 140.1 104.8 140.1 104.3 139.9 103.8 139.75 103.4 139.35 102.55 138.6 101.95 137.35 101.65 136.7 101.5 135.95 101.3 135.2 101.2 134.35 101.05 133.55 100.95 132.7 100.9 131.8 100.9 130.9 100.9 129.95 100.95 129.05 101.05 128.15 101.2 127.3 101.3 126.5 101.5 125.75 101.7 125 101.95 124.4 102.25 123.8 102.65 123.3
M 123.6 142.15
Q 123.35 141.9 123 141.8 122.65 141.7 122.15 141.7
L 120.8 141.7
Q 120.25 141.7 119.9 141.8 119.5 141.9 119.3 142.1 119.1 142.3 118.95 142.65 118.85 143.05 118.85 143.55
L 118.85 145.05
Q 118.85 145.55 118.95 145.9 119.1 146.25 119.3 146.45 119.5 146.65 119.9 146.7 120.25 146.85 120.8 146.85
L 122.25 146.85
Q 123.15 146.85 123.65 146.4 124.1 145.95 124.1 145.05
L 124.1 143.55
Q 124.1 143.05 124 142.7 123.85 142.4 123.6 142.15
M 142.8 119.1
Q 142.6 118.85 142.3 118.65 141.85 118.4 141.45 118.3 141.05 118.25 140.65 118.35 140.2 118.45 139.85 118.7 139.45 118.95 139.2 119.35
L 138.95 119.75
Q 138.35 120.65 137.75 121.6 137.15 122.6 136.55 123.65 135.9 124.75 135.3 125.8 134.65 126.9 133.95 127.9 132.6 130.05 131.35 132.05 130.65 133.05 130 134.1 129.3 135.1 128.65 136.15
L 128.5 136.6 128.45 136.6 128.45 136.65 128.4 136.7
Q 128.3 136.9 128.2 137.1 128.15 137.25 128.1 137.5 128.05 137.7 128.05 137.95 128.1 138.15 128.15 138.35 128.2 138.6 128.25 138.8 128.35 139 128.45 139.2 128.5 139.4 128.65 139.55 128.75 139.7 128.95 139.8 129.15 139.9 129.3 139.95 129.5 140 129.75 140.1 129.9 140.15 130.1 140.15 130.3 140.15 130.5 140.1
L 139.3 140.1 139.3 141.75
Q 139.3 142.35 139.45 142.75 139.6 143.15 139.9 143.3 140.4 143.75 141.45 143.75 142.15 143.75 142.8 143.3 143.45 142.95 143.45 141.75
L 143.45 140.1 144.6 140.1
Q 145.2 140.1 145.55 139.95 145.9 139.85 146.1 139.5 146.25 139.2 146.35 138.85 146.4 138.5 146.4 138 146.4 137.65 146.35 137.3 146.25 136.95 146.1 136.6 145.9 136.3 145.55 136.15 145.2 135.95 144.6 135.95
L 143.45 135.95 143.35 120.5
Q 143.35 120.25 143.3 120.05 143.25 119.8 143.15 119.55 143 119.3 142.8 119.1
M 138 128.5
Q 138.75 127.35 139.2 126.5
L 139.2 136.05 133.15 136.05
Q 133.55 135.55 133.95 134.9 134.35 134.3 134.75 133.65 135.2 133 135.6 132.3 135.95 131.65 136.35 131 136.8 130.35 137.25 129.7 137.65 129.1 138 128.5
M 79.7 136.35
L 78.7 136.35
Q 78.1 136.35 77.75 136.45 77.35 136.6 77.15 136.85 76.75 137.45 76.75 138.65
L 76.75 139.6
Q 76.75 140.2 76.85 140.6 76.9 141.05 77.15 141.25 77.3 141.55 77.7 141.65 78.1 141.75 78.7 141.75
L 79.7 141.75
Q 80.25 141.75 80.65 141.65 81.05 141.55 81.25 141.25 81.45 141.05 81.55 140.6 81.65 140.2 81.65 139.55
L 81.65 138.55
Q 81.65 137.35 81.25 136.85 80.8 136.35 79.7 136.35
M 50.35 116
Q 50.2 116.1 50.1 116.25 49.95 116.4 49.9 116.55 49.85 116.75 49.85 116.95
L 49.85 119.75 44.9 119.75
Q 44.4 119.75 44.1 119.85 43.8 120 43.7 120.25 43.55 120.5 43.5 120.8 43.45 121.1 43.45 121.45 43.45 121.85 43.5 122.15 43.55 122.5 43.7 122.75 43.8 123.05 44.1 123.15 44.4 123.3 44.9 123.3
L 49.85 123.3 49.85 124.55
Q 49.85 125.4 49.75 126.2 49.6 127.05 49.35 127.8 49.1 128.55 48.75 129.35 48.45 130.1 48.05 130.8 47.5 131.55 46.95 132.25 46.4 132.95 45.8 133.55 45.15 134.2 44.5 134.85 43.8 135.45 43.05 136 42.95 136 42.9 136.05 42.85 136.1 42.8 136.15 42.75 136.25 42.7 136.35 42.65 136.45 42.6 136.5 42.55 136.6 42.55 136.7 42.5 136.8 42.5 136.85 42.5 136.95 42.45 137
L 42.45 137.05
Q 42.45 137.2 42.5 137.4 42.55 137.6 42.65 137.75 42.75 137.95 42.9 138.15 43.05 138.3 43.25 138.45 43.4 138.65 43.55 138.8 43.75 138.95 43.95 139.05 44.1 139.2 44.35 139.25 44.55 139.3 44.8 139.3 45 139.3 45.15 139.25 45.3 139.2 45.4 139.05 46.55 138.25 47.55 137.4 48.55 136.55 49.45 135.65 50.3 134.75 50.95 133.75 51.65 132.75 52.15 131.65 52.7 132.8 53.35 133.75 54.05 134.75 54.95 135.55 55.85 136.4 56.75 137.25 57.65 138.05 58.6 138.8
L 58.65 138.85 58.7 138.85
Q 59 139 59.2 139.1 59.45 139.15 59.7 139.15 59.8 139.15 60 139.1 60.15 139.05 60.4 138.95 60.6 138.85 60.75 138.7 60.95 138.55 61.1 138.35 61.2 138.2 61.3 138.05 61.45 137.85 61.5 137.65 61.55 137.5 61.6 137.3 61.65 137.1 61.65 136.9 61.65 136.6 61.5 136.35 61.4 136.1 61.15 135.85 59.35 134.6 58.05 133.2 56.75 131.8 55.9 130.3 55.05 128.8 54.6 127.05 54.2 125.3 54.2 123.3
L 59.35 123.3
Q 59.7 123.3 60 123.15 60.3 123.05 60.45 122.75 60.6 122.5 60.7 122.15 60.8 121.85 60.8 121.45 60.8 121.1 60.7 120.8 60.6 120.5 60.45 120.25 60.3 120 60 119.85 59.7 119.75 59.35 119.75
L 54.2 119.75 54.2 116.95
Q 54.2 116.75 54.15 116.55 54.1 116.35 54.05 116.2 53.95 116.1 53.85 116 53.7 115.9 53.55 115.8 53.35 115.7 53.15 115.65 53 115.6 52.85 115.55 52.65 115.55 52.5 115.5 52.35 115.5 52.2 115.5 52 115.5 51.8 115.5 51.6 115.55 51.4 115.55 51.25 115.6 51.1 115.65 50.95 115.7 50.75 115.8 50.55 115.9 50.35 116
M 80.65 121.65
Q 80.25 121.5 79.7 121.5
L 78.7 121.5
Q 78.1 121.5 77.75 121.65 77.35 121.8 77.15 122.05 76.95 122.35 76.85 122.75 76.75 123.2 76.75 123.75
L 76.75 124.75
Q 76.75 125.4 76.85 125.8 76.9 126.2 77.15 126.4 77.3 126.65 77.7 126.8 78.1 126.9 78.7 126.9
L 79.7 126.9
Q 80.25 126.9 80.65 126.8 81.05 126.65 81.25 126.4 81.45 126.2 81.55 125.8 81.65 125.35 81.65 124.7
L 81.65 123.7
Q 81.65 123.15 81.55 122.75 81.45 122.35 81.25 122.05 81 121.8 80.65 121.65
M 65.8 115.7
Q 65.45 115.7 65.15 115.8 64.8 115.9 64.5 116.1 63.85 116.6 63.85 117.45
L 63.85 146.8
Q 63.85 147.25 64 147.6 64.15 147.9 64.5 148.1 64.8 148.35 65.15 148.45 65.45 148.55 65.8 148.55 66.65 148.55 67.4 148.1 67.7 147.9 67.9 147.6 68.05 147.25 68.05 146.8
L 68.05 131.45 71.5 131.45
Q 72 131.45 72.3 131.3 72.65 131.15 72.8 130.85 73 130.55 73.05 130.25 73.15 129.9 73.15 129.55 73.15 129.15 73.05 128.85 73 128.5 72.8 128.25 72.65 128 72.3 127.85 72 127.7 71.5 127.7
L 68.05 127.7 68.05 117.45
Q 68.05 117 67.9 116.7 67.7 116.35 67.4 116.1 66.65 115.7 65.8 115.7
M 53.35 79
Q 53.2 78.9 53.1 78.75 52.95 78.65 52.8 78.55 52.7 78.45 52.55 78.35 52.4 78.3 52.2 78.25 51.8 78.15 51.45 78.15 51.15 78.15 50.85 78.25 50.5 78.35 50.2 78.5 49.85 78.75 49.7 79 49.55 79.3 49.55 79.65
L 49.55 89.15
Q 49.55 89.8 49.7 90.3 49.85 90.8 50.2 91.25 50.5 91.6 51 91.8 51.5 92 52.15 92 53.85 92 55.5 92 57.2 92 58.8 92 60.4 91.95 62.1 91.95 63.8 91.95 65.55 91.95
L 65.55 92
Q 66.15 92 66.7 91.8 67.2 91.6 67.55 91.2 67.95 90.75 68.1 90.25 68.3 89.75 68.3 89.15
L 68.3 79.65
Q 68.3 79.45 68.2 79.3 68.15 79.15 68.05 79 67.9 78.9 67.75 78.75 67.6 78.65 67.45 78.55 67.25 78.35 66.8 78.25 66.4 78.15 66.1 78.15 65.8 78.15 65.45 78.25 65.15 78.35 64.85 78.5 64.55 78.75 64.4 79 64.25 79.3 64.25 79.65
L 64.25 82 53.6 82 53.6 79.65
Q 53.6 79.45 53.55 79.3 53.45 79.15 53.35 79
M 53.6 86.2
Q 53.6 85.95 53.65 85.75 53.7 85.6 53.8 85.5 53.9 85.45 54.05 85.45 54.25 85.4 54.45 85.4
L 63.15 85.4
Q 63.45 85.4 63.65 85.45 63.85 85.45 64 85.5 64.1 85.55 64.15 85.75 64.25 85.9 64.25 86.2
L 64.25 87.9
Q 64.25 88.15 64.2 88.3 64.15 88.45 64.05 88.5 63.9 88.55 63.75 88.6 63.5 88.65 63.25 88.65
L 54.35 88.65
Q 54.2 88.6 54.05 88.55 53.9 88.5 53.8 88.45 53.7 88.45 53.65 88.3 53.6 88.15 53.6 87.9
L 53.6 86.2
M 49.1 66.8
Q 47.7 67.15 46.65 67.9 45.5 68.65 44.95 69.55 44.35 70.5 44.35 71.55 44.35 72.65 44.95 73.55 45.5 74.45 46.65 75.2 47.7 75.95 49.1 76.3 50.45 76.65 52.2 76.65 55.55 76.65 57.65 75.2 58.8 74.5 59.4 73.6 59.95 72.65 59.95 71.55 59.95 70.45 59.4 69.55 58.8 68.65 57.65 67.9 56.6 67.15 55.25 66.8 53.9 66.4 52.2 66.4 50.45 66.4 49.1 66.8
M 49.65 72.75
Q 49.1 72.5 48.85 72.2 48.55 71.9 48.55 71.55 48.55 71.2 48.85 70.9 49.1 70.6 49.65 70.35 50.2 70.1 50.8 69.95 51.45 69.85 52.2 69.85 52.95 69.85 53.55 69.95 54.2 70.1 54.7 70.35 55.2 70.6 55.45 70.9 55.7 71.2 55.7 71.55 55.7 71.9 55.45 72.2 55.2 72.5 54.7 72.75 54.2 73 53.55 73.1 52.95 73.25 52.2 73.25 51.45 73.25 50.8 73.1 50.2 73 49.65 72.75
M 61.35 63.35
Q 61.3 63.05 61.15 62.85 61 62.65 60.7 62.55 60.4 62.45 59.95 62.45
L 54.15 62.45 54.15 61
Q 54.15 60.45 53.95 60.1 53.8 59.75 53.55 59.6 53.2 59.45 52.9 59.35 52.55 59.25 52.25 59.25 51.75 59.25 51.4 59.35 51.05 59.45 50.8 59.6 50.5 59.75 50.4 60.1 50.25 60.45 50.25 61
L 50.25 62.45 44.3 62.4
Q 43.55 62.4 43.25 62.8 43.05 63 42.95 63.3 42.85 63.65 42.85 64 42.85 64.4 42.95 64.65 43.05 64.95 43.25 65.1 43.55 65.55 44.3 65.55
L 59.95 65.55
Q 60.4 65.55 60.7 65.45 61 65.3 61.15 65.1 61.3 64.95 61.35 64.65 61.45 64.4 61.45 64 61.45 63.65 61.35 63.35
M 68.4 61.3
Q 68.4 60.85 68.25 60.55 68.1 60.25 67.8 60.05 67.5 59.85 67.1 59.8 66.7 59.7 66.3 59.7 65.95 59.7 65.6 59.8 65.25 59.85 64.95 60.05 64.6 60.25 64.45 60.55 64.3 60.85 64.3 61.3
L 64.3 74.9
Q 64.3 75.4 64.45 75.7 64.6 76 64.95 76.2 65.25 76.4 65.6 76.45 65.95 76.55 66.3 76.55 66.7 76.55 67.1 76.45 67.5 76.4 67.8 76.2 68.1 76 68.25 75.7 68.4 75.4 68.4 74.9
L 68.4 69.75 71.7 69.75
Q 72.2 69.75 72.55 69.6 72.85 69.45 73.05 69.15 73.15 68.85 73.2 68.55 73.25 68.2 73.25 67.85 73.25 67.5 73.2 67.15 73.15 66.8 73.05 66.5 72.85 66.25 72.55 66.15 72.2 66 71.7 66
L 68.4 66 68.4 61.3
M 52.65 10.55
Q 53 10.55 53.5 10.55 53.7 10.6 53.85 10.6 54.05 10.65 54.2 10.65 54.2 11.5 54.15 12.25 54.1 13 54 13.65 53.9 14.3 53.7 14.85 53.5 15.45 53.25 16 53 16.55 52.75 17.05 52.5 17.5 52.2 17.95 51.9 18.4 51.6 18.8 51.3 19.2 51.05 19.55 50.6 19.95 50.35 20.25 50 20.6 49.8 20.85 49.6 21.1 49.3 21.35 49.05 21.6 48.75 21.8 48.25 22.2 47.6 22.65 47.2 22.85 46.75 23.1 46.25 23.35 45.6 23.6 45.55 23.65 45.5 23.7 45.45 23.75 45.4 23.75 44.9 24 44.65 24.3 44.45 24.65 44.45 25.1 44.45 25.35 44.45 25.55 44.5 25.75 44.6 25.95 44.7 26.15 44.8 26.3 44.9 26.5 45.05 26.65 45.15 26.85 45.25 26.95 45.4 27.1 45.5 27.2 45.7 27.4 46.25 27.4 46.45 27.4 46.8 27.3 47.5 26.95 48.15 26.6 48.8 26.25 49.3 25.95 50.35 25.4 51.2 24.7 51.65 24.4 52.05 24.05 52.45 23.75 52.85 23.35 53.2 22.95 53.6 22.5 53.95 22.05 54.35 21.5 54.9 20.95 55.3 20.4 55.75 19.8 56.15 19.1 56.5 18.45 56.8 17.75 57.1 17.05 57.35 16.3 57.65 15.55 57.9 14.8 58.1 14.05 58.25 13.3 58.35 12.55 58.45 11.8 58.5 11.05 58.5 10.3 58.5 9.6 58.5 8.95 58.45 8.65 58.4 8.35 58.3 8.1 58.2 7.85 58 7.65 57.8 7.45 57.55 7.3 57.25 7.15 56.95 7.05 56.5 7 56.05 6.95 55.55 6.95
L 46.45 6.95
Q 46 6.95 45.65 7.05 45.35 7.2 45.2 7.45 45 7.75 44.95 8.1 44.85 8.4 44.85 8.75 44.85 9.15 44.95 9.45 45 9.8 45.2 10.05 45.5 10.55 46.45 10.55
L 52.65 10.55
M 65.95 3.85
Q 65.6 3.85 65.25 3.9 64.9 4 64.6 4.1 64.25 4.3 64.1 4.6 63.9 4.9 63.9 5.35
L 63.9 35.4
Q 63.9 35.85 64.1 36.1 64.25 36.4 64.6 36.55 64.9 36.7 65.25 36.75 65.6 36.85 65.95 36.85 66.4 36.85 66.75 36.75 67.15 36.7 67.45 36.55 67.75 36.4 67.9 36.1 68.05 35.85 68.05 35.4
L 68.05 19.75 71.8 19.75
Q 72.3 19.75 72.6 19.6 72.9 19.45 73.05 19.15 73.15 18.85 73.2 18.55 73.25 18.2 73.25 17.85 73.25 17.45 73.2 17.1 73.15 16.75 73.05 16.5 72.9 16.25 72.6 16.1 72.3 16 71.8 16
L 68.05 16 68.05 5.35
Q 68.05 4.9 67.9 4.6 67.75 4.3 67.45 4.1 67.15 4 66.75 3.9 66.4 3.85 65.95 3.85
M 143.15 63.7
Q 143 63.45 142.8 63.25 142.6 63 142.3 62.8 141.85 62.55 141.45 62.45 141.05 62.4 140.65 62.5 140.2 62.6 139.85 62.85 139.45 63.1 139.2 63.5
L 138.95 63.9
Q 138.35 64.8 137.75 65.75 137.15 66.75 136.55 67.8 135.9 68.9 135.3 69.95 134.65 71.05 133.95 72.05 132.6 74.2 131.35 76.2 130.65 77.2 130 78.25 129.3 79.25 128.65 80.3
L 128.5 80.75 128.45 80.75 128.45 80.8 128.4 80.85
Q 128.3 81.05 128.2 81.25 128.15 81.4 128.1 81.65 128.05 81.85 128.05 82.1 128.1 82.3 128.15 82.5 128.2 82.75 128.25 82.95 128.35 83.15 128.45 83.35 128.5 83.55 128.65 83.7 128.75 83.85 128.95 83.95 129.15 84.05 129.3 84.1 129.5 84.15 129.75 84.25 129.9 84.3 130.1 84.3 130.3 84.3 130.5 84.25
L 139.3 84.25 139.3 85.9
Q 139.3 86.5 139.45 86.9 139.6 87.3 139.9 87.45 140.4 87.9 141.45 87.9 142.15 87.9 142.8 87.45 143.45 87.1 143.45 85.9
L 143.45 84.25 144.6 84.25
Q 145.2 84.25 145.55 84.1 145.9 84 146.1 83.65 146.25 83.35 146.35 83 146.4 82.65 146.4 82.15 146.4 81.8 146.35 81.45 146.25 81.1 146.1 80.75 145.9 80.45 145.55 80.3 145.2 80.1 144.6 80.1
L 143.45 80.1 143.35 64.65
Q 143.35 64.4 143.3 64.2 143.25 63.95 143.15 63.7
M 137.25 73.85
Q 137.65 73.25 138 72.65 138.75 71.5 139.2 70.65
L 139.2 80.2 133.15 80.2
Q 133.55 79.7 133.95 79.05 134.35 78.45 134.75 77.8 135.2 77.15 135.6 76.45 135.95 75.8 136.35 75.15 136.8 74.5 137.25 73.85
M 119.9 85.95
Q 119.5 86.05 119.3 86.25 119.1 86.45 118.95 86.8 118.85 87.2 118.85 87.7
L 118.85 89.2
Q 118.85 89.7 118.95 90.05 119.1 90.4 119.3 90.6 119.5 90.8 119.9 90.85 120.25 91 120.8 91
L 122.25 91
Q 123.15 91 123.65 90.55 124.1 90.1 124.1 89.2
L 124.1 87.7
Q 124.1 87.2 124 86.85 123.85 86.55 123.6 86.3 123.35 86.05 123 85.95 122.65 85.85 122.15 85.85
L 120.8 85.85
Q 120.25 85.85 119.9 85.95
M 81.65 83.7
L 81.65 82.7
Q 81.65 81.5 81.25 81 80.8 80.5 79.7 80.5
L 78.7 80.5
Q 78.1 80.5 77.75 80.6 77.35 80.75 77.15 81 76.75 81.6 76.75 82.8
L 76.75 83.75
Q 76.75 84.35 76.85 84.75 76.9 85.2 77.15 85.4 77.3 85.7 77.7 85.8 78.1 85.9 78.7 85.9
L 79.7 85.9
Q 80.25 85.9 80.65 85.8 81.05 85.7 81.25 85.4 81.45 85.2 81.55 84.75 81.65 84.35 81.65 83.7
M 81.55 66.9
Q 81.45 66.5 81.25 66.2 81 65.95 80.65 65.8 80.25 65.65 79.7 65.65
L 78.7 65.65
Q 78.1 65.65 77.75 65.8 77.35 65.95 77.15 66.2 76.95 66.5 76.85 66.9 76.75 67.35 76.75 67.9
L 76.75 68.9
Q 76.75 69.55 76.85 69.95 76.9 70.35 77.15 70.55 77.3 70.8 77.7 70.95 78.1 71.05 78.7 71.05
L 79.7 71.05
Q 80.25 71.05 80.65 70.95 81.05 70.8 81.25 70.55 81.45 70.35 81.55 69.95 81.65 69.5 81.65 68.85
L 81.65 67.85
Q 81.65 67.3 81.55 66.9
M 110.5 64.15
Q 109.8 63.45 109 62.95 108.2 62.45 107.3 62.2 106.4 61.9 105.4 61.9 104.3 61.95 103.35 62.2 102.4 62.45 101.6 62.9 100.8 63.4 100.1 64.05 99.4 64.75 98.85 65.55 98.3 66.4 97.95 67.45 97.55 68.5 97.25 69.7 96.95 70.9 96.85 72.25 96.7 73.6 96.7 75.05 96.7 76.45 96.8 77.8 96.95 79.1 97.2 80.3 97.45 81.45 97.8 82.5 98.25 83.6 98.8 84.45 99.4 85.35 100.1 86 100.8 86.7 101.55 87.15 102.35 87.65 103.3 87.9 104.25 88.15 105.4 88.15 106.4 88.15 107.3 87.9 108.2 87.65 109.05 87.15 109.85 86.7 110.55 86 111.25 85.35 111.8 84.45 112.4 83.6 112.85 82.5 113.3 81.45 113.6 80.3 113.85 79.1 114 77.8 114.15 76.45 114.15 75.05 114.15 73.65 114 72.35 113.85 71 113.6 69.8 113.25 68.6 112.8 67.55 112.35 66.55 111.75 65.65 111.15 64.8 110.5 64.15
M 106.35 66.15
Q 106.8 66.3 107.3 66.65 107.7 67 108.1 67.5 108.45 68 108.75 68.6 108.95 69.25 109.15 69.95 109.35 70.65 109.55 71.5 109.7 72.35 109.8 73.2 109.9 74.1 109.9 75.05 109.9 76 109.8 76.9 109.75 77.8 109.6 78.6 109.2 80.3 108.75 81.5 108.5 82.15 108.1 82.65 107.75 83.15 107.3 83.5 106.85 83.9 106.35 84.05 105.9 84.25 105.4 84.25 104.8 84.25 104.3 84.05 103.8 83.9 103.4 83.5 102.55 82.75 101.95 81.5 101.65 80.85 101.5 80.1 101.3 79.35 101.2 78.5 101.05 77.7 100.95 76.85 100.9 75.95 100.9 75.05 100.9 74.1 100.95 73.2 101.05 72.3 101.2 71.45 101.3 70.65 101.5 69.9 101.7 69.15 101.95 68.55 102.25 67.95 102.65 67.45 103.05 67 103.45 66.6 103.85 66.3 104.35 66.15 104.85 65.95 105.4 65.95 105.85 65.95 106.35 66.15
M 84.1 23.25
Q 83.35 23.6 82.7 24.1 82 24.6 81.5 25.15 81 25.7 80.65 26.4 79.95 27.8 79.95 29.55 79.95 30.45 80.1 31.2 80.3 32 80.65 32.65 81 33.3 81.55 33.9 82.05 34.45 82.75 34.9 83.4 35.4 84.15 35.75 84.95 36.1 85.9 36.35 86.75 36.6 87.8 36.7 88.85 36.85 90.05 36.85 91.1 36.85 92.15 36.7 93.15 36.6 94.15 36.35 96.05 35.85 97.4 34.9 98.05 34.4 98.55 33.85 99.1 33.25 99.45 32.6 100.2 31.25 100.2 29.55 100.2 28.7 100 27.9 99.85 27.15 99.5 26.4 99.1 25.75 98.6 25.15 98.1 24.6 97.45 24.1 96.8 23.6 95.95 23.25 95.15 22.85 94.2 22.6 93.25 22.35 92.2 22.25 91.15 22.1 90.05 22.1 88.85 22.1 87.75 22.25 86.7 22.35 85.8 22.6 84.9 22.85 84.1 23.25
M 92.5 26.1
Q 93.6 26.3 94.4 26.8 96 27.75 96 29.55 96 30.4 95.6 31.05 95.15 31.7 94.35 32.15 93.5 32.65 92.45 32.85 91.4 33.1 90.1 33.1 88.7 33.1 87.6 32.85 86.5 32.65 85.75 32.15 84.9 31.7 84.5 31 84.15 30.35 84.15 29.55 84.15 28.65 84.5 27.95 84.9 27.25 85.75 26.8 86.5 26.3 87.6 26.1 88.7 25.85 90.1 25.85 91.45 25.85 92.5 26.1
M 91.25 7.15
Q 91.25 6.75 91.2 6.4 91.1 6.05 90.95 5.8 90.55 5.25 89.8 5.25
L 77.25 5.25
Q 76.4 5.25 76.1 5.8 75.95 6.1 75.85 6.45 75.75 6.75 75.75 7.15 75.75 7.5 75.85 7.8 75.95 8.1 76.15 8.4 76.3 8.7 76.6 8.85 76.9 9 77.25 9
L 81.55 9 81.55 9.45
Q 81.55 10 81.45 10.55 81.35 11.1 81.2 11.65 80.95 12.25 80.7 12.75 80.4 13.35 80.05 13.9 79.65 14.4 79.25 14.85 78.8 15.35 78.3 15.8 77.8 16.25 77.25 16.65 76.7 17.05 76.1 17.4 75.9 17.5 75.8 17.65 75.65 17.75 75.6 17.9 75.55 18.1 75.5 18.25 75.5 18.4 75.5 18.55 75.5 18.85 75.5 19.1 75.55 19.35 75.6 19.5 75.65 19.75 75.8 19.9 75.9 20.05 76.1 20.2 76.25 20.3 76.45 20.4 76.65 20.5 76.8 20.55 76.95 20.6 77.1 20.65 77.25 20.7 77.35 20.65 77.4 20.6 77.55 20.6 77.7 20.55 77.9 20.55 78.25 20.55 78.55 20.45 80.1 19.5 81.45 18 82.1 17.3 82.7 16.5 83.3 15.75 83.85 14.9 84.35 15.7 84.9 16.45 85.5 17.15 86.15 17.75 87.4 19.1 89.4 20.1 89.75 20.2 90 20.25 90.3 20.35 90.45 20.35 91.25 20.35 91.7 19.6 91.9 19.25 92.05 18.9 92.2 18.5 92.2 18.1 92.2 17.85 92.15 17.7 92.1 17.5 92 17.4 91.9 17.35 91.75 17.2 91.65 17.05 91.5 16.85 90.95 16.6 90.45 16.25 90 15.9 89.55 15.45 88.6 14.65 87.75 13.7 87.45 13.2 87.1 12.7 86.8 12.15 86.5 11.65 85.9 10.6 85.9 9.65
L 85.9 9 89.8 9
Q 90.2 9 90.45 8.85 90.75 8.7 90.95 8.4 91.25 7.85 91.25 7.15
M 104.35 11.05
Q 104 10.9 103.5 10.9
L 100.15 10.9 100.15 5.35
Q 100.15 4.9 100 4.6 99.85 4.3 99.6 4.15 99.25 4 98.9 3.95 98.55 3.85 98.15 3.85 97.75 3.85 97.4 3.95 97.05 4 96.75 4.15 96.35 4.3 96.2 4.6 96 4.9 96 5.35
L 96 19.65
Q 96 20.1 96.15 20.4 96.25 20.75 96.5 20.95 96.8 21.2 97.05 21.3 97.35 21.4 97.7 21.4 97.85 21.4 98.1 21.4 98.3 21.4 98.55 21.35 98.75 21.35 98.95 21.25 99.1 21.2 99.25 21.1 99.4 21 99.55 20.85 99.7 20.7 99.85 20.5 100 20.35 100.1 20.15 100.15 19.9 100.15 19.65
L 100.15 14.55 103.5 14.55
Q 104 14.55 104.35 14.4 104.65 14.3 104.8 14 105 13.45 105 12.75 105 12.35 104.95 12 104.9 11.65 104.8 11.4 104.65 11.15 104.35 11.05
M 139.1 35.85
Q 139.5 35.85 139.85 35.75 140.15 35.6 140.3 35.35 140.45 35.05 140.55 34.75 140.6 34.4 140.6 34.05 140.6 33.65 140.55 33.35 140.45 33 140.3 32.7 140.15 32.45 139.85 32.3 139.5 32.15 139.1 32.15
L 127.05 32.15
Q 126.85 32.15 126.65 32.15 126.45 32.15 126.2 32.1 125.95 32.1 125.75 32.05 125.55 32.05 125.4 32
L 125.4 26.85
Q 125.4 26.5 125.15 26.2 125.05 26.05 124.9 25.95 124.75 25.85 124.55 25.7 124.4 25.65 124.2 25.6 124.05 25.55 123.9 25.45 123.75 25.4 123.55 25.35 123.35 25.35 123.15 25.35 122.8 25.35 122.5 25.45 122.2 25.55 121.9 25.7 121.5 25.95 121.35 26.2 121.2 26.5 121.2 26.85
L 121.2 33.05
Q 121.2 33.7 121.4 34.25 121.6 34.75 122.1 35.15 122.55 35.5 123.1 35.7 123.6 35.85 124.25 35.85
L 139.1 35.85
M 138.95 5.15
Q 138.45 4.95 137.65 4.95
L 121.5 4.95
Q 120.85 5.05 120.55 5.45 120.2 5.9 120.2 6.65 120.2 7.4 120.55 7.85 120.85 8.25 121.5 8.3
L 136.05 8.3
Q 136.1 8.6 136.15 8.8 136.2 9.05 136.2 9.3 136.2 9.55 136.15 9.8 136.15 10.05 136.1 10.25 134.35 10.35 132.55 10.4 130.75 10.45 129 10.55 127.2 10.6 125.35 10.65 123.5 10.75 121.65 10.8 121.2 10.8 120.95 10.95 120.65 11.05 120.5 11.25 120.35 11.45 120.25 11.8 120.2 12.15 120.2 12.55 120.2 13 120.3 13.25 120.35 13.6 120.55 13.8 120.85 14.2 121.7 14.2 123.5 14.15 125.3 14.05 127.05 14 128.85 13.9 132.4 13.8 135.8 13.6 135.8 13.85 135.7 14.1 135.7 14.35 135.65 14.6 135.55 14.85 135.5 15.2 135.5 15.5 135.5 15.9 135.5 16.35 135.65 16.65 135.8 16.95 136.1 17.1 136.35 17.3 136.75 17.35 137.15 17.45 137.65 17.45 138 17.45 138.25 17.4 138.55 17.35 138.8 17.2 139 17.05 139.2 16.85 139.35 16.6 139.5 16.25 139.65 15.45 139.75 14.75 139.9 14.05 140 13.45 140.05 12.8 140.1 12.3 140.1 11.75 140.15 11.2 140.15 10.75 140.15 10.35 140.2 9.9 140.2 9.5 140.2 9.15 140.25 8.75 140.25 8.4 140.3 8.05 140.25 7.3 140.1 6.75 139.95 6.15 139.7 5.75 139.45 5.35 138.95 5.15
M 144.85 22.95
Q 145.4 22.95 145.7 22.8 146 22.7 146.1 22.45 146.3 21.95 146.3 21.25 146.3 20.45 146.1 19.9 146 19.65 145.7 19.5 145.4 19.4 144.85 19.4
L 115.95 19.4
Q 115.1 19.4 114.85 19.9 114.75 20.15 114.7 20.5 114.65 20.85 114.65 21.25 114.65 21.6 114.7 21.9 114.75 22.2 114.85 22.45 115.1 22.95 115.95 22.95
L 144.85 22.95
M 264.6 119.9
Q 263.9 120.6 263.35 121.4 262.8 122.25 262.45 123.3 262.05 124.35 261.75 125.55 261.45 126.75 261.35 128.1 261.2 129.45 261.2 130.9 261.2 132.3 261.3 133.65 261.45 134.95 261.7 136.15 261.95 137.3 262.3 138.35 262.75 139.45 263.3 140.3 263.9 141.2 264.6 141.85 265.3 142.55 266.05 143 266.85 143.5 267.8 143.75 268.75 144 269.9 144 270.9 144 271.8 143.75 272.7 143.5 273.55 143 274.35 142.55 275.05 141.85 275.75 141.2 276.3 140.3 276.9 139.45 277.35 138.35 277.8 137.3 278.1 136.15 278.35 134.95 278.5 133.65 278.65 132.3 278.65 130.9 278.65 129.5 278.5 128.2 278.35 126.85 278.1 125.65 277.75 124.45 277.3 123.4 276.85 122.4 276.25 121.5 275.65 120.65 275 120 274.3 119.3 273.5 118.8 272.7 118.3 271.8 118.05 270.9 117.75 269.9 117.75 268.8 117.8 267.85 118.05 266.9 118.3 266.1 118.75 265.3 119.25 264.6 119.9
M 267.15 123.3
Q 267.55 122.85 267.95 122.45 268.35 122.15 268.85 122 269.35 121.8 269.9 121.8 270.35 121.8 270.85 122 271.3 122.15 271.8 122.5 272.2 122.85 272.6 123.35 272.95 123.85 273.25 124.45 273.45 125.1 273.65 125.8 273.85 126.5 274.05 127.35 274.2 128.2 274.3 129.05 274.4 129.95 274.4 130.9 274.4 131.85 274.3 132.75 274.25 133.65 274.1 134.45 273.7 136.15 273.25 137.35 273 138 272.6 138.5 272.25 139 271.8 139.35 271.35 139.75 270.85 139.9 270.4 140.1 269.9 140.1 269.3 140.1 268.8 139.9 268.3 139.75 267.9 139.35 267.05 138.6 266.45 137.35 266.15 136.7 266 135.95 265.8 135.2 265.7 134.35 265.55 133.55 265.45 132.7 265.4 131.8 265.4 130.9 265.4 129.95 265.45 129.05 265.55 128.15 265.7 127.3 265.8 126.5 266 125.75 266.2 125 266.45 124.4 266.75 123.8 267.15 123.3
M 284.4 141.8
Q 284 141.9 283.8 142.1 283.6 142.3 283.45 142.65 283.35 143.05 283.35 143.55
L 283.35 145.05
Q 283.35 145.55 283.45 145.9 283.6 146.25 283.8 146.45 284 146.65 284.4 146.7 284.75 146.85 285.3 146.85
L 286.75 146.85
Q 287.65 146.85 288.15 146.4 288.6 145.95 288.6 145.05
L 288.6 143.55
Q 288.6 143.05 288.5 142.7 288.35 142.4 288.1 142.15 287.85 141.9 287.5 141.8 287.15 141.7 286.65 141.7
L 285.3 141.7
Q 284.75 141.7 284.4 141.8
M 294.7 123.05
Q 294.4 123.35 294.3 123.65 294.2 124 294.2 124.35 294.2 124.75 294.3 125.05 294.4 125.35 294.6 125.65 294.8 126 295.1 126.15 295.4 126.3 295.85 126.3
L 299 126.3
Q 299 128.25 299 130.15 299 132.1 299 134 299 137.85 299 141.75 299 142.15 299.2 142.4 299.35 142.7 299.7 142.95 300 143.2 300.4 143.35 300.75 143.5 301.2 143.5 301.3 143.5 301.5 143.45 301.65 143.4 301.8 143.3 301.9 143.25 302.1 143.2 302.25 143.1 302.4 143 302.6 142.9 302.75 142.7 302.9 142.55 303 142.4 303.1 142.25 303.15 142.1 303.2 141.95 303.2 141.75
L 303.2 140.3
Q 303.2 137.65 303.2 135.1 303.2 132.5 303.2 130 303.15 127.5 303.15 124.95 303.15 122.4 303.15 119.8 303.15 119.15 302.5 118.65 302.2 118.4 301.9 118.3 301.6 118.15 301.35 118.15 300.9 118.15 300.6 118.25 300.25 118.35 300.15 118.6 299.95 118.8 299.85 119.05 299.75 119.35 299.65 119.6 299.5 119.9 299.4 120.2 299.3 120.5 299.2 120.85 299.1 121.15 299 121.4 298.85 121.65 298.7 121.8 298.45 122 298.15 122.15 297.8 122.3 297.5 122.35 297.1 122.4 296.75 122.45 296.35 122.45 296 122.45 295.55 122.5 295.2 122.65 294.9 122.8 294.7 123.05
M 198.3 142.15
Q 198.05 141.9 197.7 141.8 197.35 141.7 196.85 141.7
L 195.5 141.7
Q 194.95 141.7 194.6 141.8 194.2 141.9 194 142.1 193.8 142.3 193.65 142.65 193.55 143.05 193.55 143.55
L 193.55 145.05
Q 193.55 145.55 193.65 145.9 193.8 146.25 194 146.45 194.2 146.65 194.6 146.7 194.95 146.85 195.5 146.85
L 196.95 146.85
Q 197.85 146.85 198.35 146.4 198.8 145.95 198.8 145.05
L 198.8 143.55
Q 198.8 143.05 198.7 142.7 198.55 142.4 198.3 142.15
M 166.4 133.55
Q 167.25 133.55 167.7 133.1 168.15 132.7 168.15 131.85 168.15 131 167.7 130.55 167.25 130.1 166.4 130.1
L 149.95 130.1
Q 149.1 130.1 148.65 130.55 148.2 131 148.2 131.85 148.2 132.7 148.65 133.1 149.1 133.55 149.95 133.55
L 166.4 133.55
M 185.2 120
Q 184.5 119.3 183.7 118.8 182.9 118.3 182 118.05 181.1 117.75 180.1 117.75 179 117.8 178.05 118.05 177.1 118.3 176.3 118.75 175.5 119.25 174.8 119.9 174.1 120.6 173.55 121.4 173 122.25 172.65 123.3 172.25 124.35 171.95 125.55 171.65 126.75 171.55 128.1 171.4 129.45 171.4 130.9 171.4 132.3 171.5 133.65 171.65 134.95 171.9 136.15 172.15 137.3 172.5 138.35 172.95 139.45 173.5 140.3 174.1 141.2 174.8 141.85 175.5 142.55 176.25 143 177.05 143.5 178 143.75 178.95 144 180.1 144 181.1 144 182 143.75 182.9 143.5 183.75 143 184.55 142.55 185.25 141.85 185.95 141.2 186.5 140.3 187.1 139.45 187.55 138.35 188 137.3 188.3 136.15 188.55 134.95 188.7 133.65 188.85 132.3 188.85 130.9 188.85 129.5 188.7 128.2 188.55 126.85 188.3 125.65 187.95 124.45 187.5 123.4 187.05 122.4 186.45 121.5 185.85 120.65 185.2 120
M 177.35 123.3
Q 177.75 122.85 178.15 122.45 178.55 122.15 179.05 122 179.55 121.8 180.1 121.8 180.55 121.8 181.05 122 181.5 122.15 182 122.5 182.4 122.85 182.8 123.35 183.15 123.85 183.45 124.45 183.65 125.1 183.85 125.8 184.05 126.5 184.25 127.35 184.4 128.2 184.5 129.05 184.6 129.95 184.6 130.9 184.6 131.85 184.5 132.75 184.45 133.65 184.3 134.45 183.9 136.15 183.45 137.35 183.2 138 182.8 138.5 182.45 139 182 139.35 181.55 139.75 181.05 139.9 180.6 140.1 180.1 140.1 179.5 140.1 179 139.9 178.5 139.75 178.1 139.35 177.25 138.6 176.65 137.35 176.35 136.7 176.2 135.95 176 135.2 175.9 134.35 175.75 133.55 175.65 132.7 175.6 131.8 175.6 130.9 175.6 129.95 175.65 129.05 175.75 128.15 175.9 127.3 176 126.5 176.2 125.75 176.4 125 176.65 124.4 176.95 123.8 177.35 123.3
M 238.7 134.35
Q 238.4 134.5 238.2 134.8 238 135.1 237.9 135.45 237.8 135.8 237.8 136.25 237.8 136.65 237.9 137.05 238 137.4 238.2 137.65 238.4 137.95 238.7 138.1 239 138.25 239.4 138.2
L 256.65 138.2
Q 257 138.25 257.3 138.1 257.6 137.95 257.8 137.65 258 137.4 258.1 137.05 258.25 136.65 258.25 136.25 258.25 135.8 258.1 135.45 258 135.1 257.8 134.8 257.6 134.5 257.3 134.35 257 134.2 256.65 134.2
L 239.4 134.2
Q 239 134.2 238.7 134.35
M 238.7 125
Q 238.4 125.15 238.2 125.45 237.8 126.1 237.8 126.9 237.8 127.35 237.9 127.7 238 128.05 238.2 128.3 238.4 128.6 238.7 128.75 239 128.9 239.4 128.9
L 256.65 128.9
Q 257 128.9 257.3 128.75 257.6 128.6 257.8 128.3 258 128.05 258.1 127.7 258.25 127.35 258.25 126.9 258.25 126.1 257.8 125.45 257.6 125.15 257.3 125 257 124.85 256.65 124.85
L 239.4 124.85
Q 239 124.85 238.7 125
M 206.5 120.3
Q 205.55 121.35 205 122.6 204.75 123.25 204.6 123.9 204.45 124.5 204.45 125.15 204.45 125.5 204.6 125.8 204.75 126.1 205 126.3 205.3 126.5 205.6 126.65 205.85 126.75 206.2 126.75 206.65 126.75 207.05 126.55 207.5 126.4 207.85 126.1 208.15 125.75 208.35 125.35 208.5 124.95 208.5 124.45 208.5 124.3 208.6 124.1 208.65 123.85 208.85 123.6 208.95 123.35 209.1 123.1 209.3 122.9 209.5 122.7 209.8 122.5 210.1 122.35 210.4 122.15 210.75 122 211.1 121.9 211.4 121.85 211.7 121.75 212.05 121.75 212.55 121.75 212.95 121.85 213.4 121.95 213.75 122.1 214.1 122.25 214.4 122.5 214.7 122.7 214.95 122.95 215.15 123.2 215.3 123.55 215.5 123.85 215.65 124.15 215.8 124.5 215.9 124.8 215.95 125.15 215.95 125.45 215.95 125.75 215.9 126.05 215.85 126.35 215.7 126.7 215.55 127 215.35 127.3 215.2 127.6 215.05 127.9 214.85 128.25 214.7 128.5 214.5 128.8 214.2 129 213.95 129.25 213.7 129.45 213.45 129.65 213.3 129.75 212.85 130.1 212.4 130.45 211.9 130.8 211.45 131.15 211 131.5 210.55 131.85 210.1 132.2 209.65 132.5 209 133.05 208.5 133.5 207.95 133.95 207.45 134.35 207 134.8 206.65 135.25 206.3 135.7 206.05 136.15 205.65 136.55 205.4 137.05 205.2 137.5 205 137.95 204.85 138.5 204.75 139.1 204.6 139.65 204.55 140.3 204.55 140.35 204.55 140.45 204.5 140.55 204.5 140.65 204.45 140.75 204.45 140.9 204.4 141 204.45 141.05
L 204.45 141.2
Q 204.4 141.3 204.4 141.45 204.4 141.55 204.4 141.65 204.4 142.2 204.55 142.55 204.7 142.9 205.1 143.1 205.4 143.35 205.8 143.45 206.2 143.6 206.65 143.6
L 218.25 143.6
Q 220.35 143.6 220.35 141.7 220.35 141.2 220.2 140.85 220.05 140.5 219.8 140.3 219.5 140.15 219.05 140.05 218.6 139.95 218.05 139.95
L 209.05 139.95
Q 209.05 139.45 209.2 138.9 209.35 138.4 209.7 137.9 210 137.45 210.45 137 210.85 136.55 211.35 136.15 211.8 135.8 212.25 135.45 212.75 135.05 213.3 134.75 213.8 134.4 214.25 134.1 214.7 133.8 215 133.55 215.5 133.2 216 132.85 216.5 132.45 216.95 132.05 217.35 131.6 217.75 131.15 218.1 130.7 218.4 130.2 218.75 129.75 219.05 129.2 219.3 128.7 219.45 128.1 219.6 127.5 219.7 126.8 219.8 126.15 219.8 125.4 219.8 124.7 219.65 124.05 219.5 123.35 219.25 122.7 219 122 218.6 121.4 218.2 120.8 217.75 120.25 217.15 119.75 216.5 119.3 215.85 118.9 215.15 118.55 214.45 118.25 213.65 118.1 212.9 117.9 212.05 117.9
L 212 117.9
Q 211.15 117.9 210.4 118.05 209.65 118.25 209 118.55 208.25 118.9 207.65 119.35 207 119.75 206.5 120.3
M 224.1 123.05
Q 223.8 123.35 223.7 123.65 223.6 124 223.6 124.35 223.6 124.75 223.7 125.05 223.8 125.35 224 125.65 224.2 126 224.5 126.15 224.8 126.3 225.25 126.3
L 228.4 126.3
Q 228.4 128.25 228.4 130.15 228.4 132.1 228.4 134 228.4 137.85 228.4 141.75 228.4 142.15 228.6 142.4 228.75 142.7 229.1 142.95 229.4 143.2 229.8 143.35 230.15 143.5 230.6 143.5 230.7 143.5 230.9 143.45 231.05 143.4 231.2 143.3 231.3 143.25 231.5 143.2 231.65 143.1 231.8 143 232 142.9 232.15 142.7 232.3 142.55 232.4 142.4 232.5 142.25 232.55 142.1 232.6 141.95 232.6 141.75
L 232.6 140.3
Q 232.6 137.65 232.6 135.1 232.6 132.5 232.6 130 232.55 127.5 232.55 124.95 232.55 122.4 232.55 119.8 232.55 119.15 231.9 118.65 231.6 118.4 231.3 118.3 231 118.15 230.75 118.15 230.3 118.15 230 118.25 229.65 118.35 229.55 118.6 229.35 118.8 229.25 119.05 229.15 119.35 229.05 119.6 228.9 119.9 228.8 120.2 228.7 120.5 228.6 120.85 228.5 121.15 228.4 121.4 228.25 121.65 228.1 121.8 227.85 122 227.55 122.15 227.2 122.3 226.9 122.35 226.5 122.4 226.15 122.45 225.75 122.45 225.4 122.45 224.95 122.5 224.6 122.65 224.3 122.8 224.1 123.05
M 212.25 62.05
L 212.2 62.05
Q 211.35 62.05 210.6 62.2 209.85 62.4 209.2 62.7 208.45 63.05 207.85 63.5 207.2 63.9 206.7 64.45 205.75 65.5 205.2 66.75 204.95 67.4 204.8 68.05 204.65 68.65 204.65 69.3 204.65 69.65 204.8 69.95 204.95 70.25 205.2 70.45 205.5 70.65 205.8 70.8 206.05 70.9 206.4 70.9 206.85 70.9 207.25 70.7 207.7 70.55 208.05 70.25 208.35 69.9 208.55 69.5 208.7 69.1 208.7 68.6 208.7 68.45 208.8 68.25 208.85 68 209.05 67.75 209.15 67.5 209.3 67.25 209.5 67.05 209.7 66.85 210 66.65 210.3 66.5 210.6 66.3 210.95 66.15 211.3 66.05 211.6 66 211.9 65.9 212.25 65.9 212.75 65.9 213.15 66 213.6 66.1 213.95 66.25 214.3 66.4 214.6 66.65 214.9 66.85 215.15 67.1 215.35 67.35 215.5 67.7 215.7 68 215.85 68.3 216 68.65 216.1 68.95 216.15 69.3 216.15 69.6 216.15 69.9 216.1 70.2 216.05 70.5 215.9 70.85 215.75 71.15 215.55 71.45 215.4 71.75 215.25 72.05 215.05 72.4 214.9 72.65 214.7 72.95 214.4 73.15 214.15 73.4 213.9 73.6 213.65 73.8 213.5 73.9 213.05 74.25 212.6 74.6 212.1 74.95 211.65 75.3 211.2 75.65 210.75 76 210.3 76.35 209.85 76.65 209.2 77.2 208.7 77.65 208.15 78.1 207.65 78.5 207.2 78.95 206.85 79.4 206.5 79.85 206.25 80.3 205.85 80.7 205.6 81.2 205.4 81.65 205.2 82.1 205.05 82.65 204.95 83.25 204.8 83.8 204.75 84.45 204.75 84.5 204.75 84.6 204.7 84.7 204.7 84.8 204.65 84.9 204.65 85.05 204.6 85.15 204.65 85.2
L 204.65 85.35
Q 204.6 85.45 204.6 85.6 204.6 85.7 204.6 85.8 204.6 86.35 204.75 86.7 204.9 87.05 205.3 87.25 205.6 87.5 206 87.6 206.4 87.75 206.85 87.75
L 218.45 87.75
Q 220.55 87.75 220.55 85.85 220.55 85.35 220.4 85 220.25 84.65 220 84.45 219.7 84.3 219.25 84.2 218.8 84.1 218.25 84.1
L 209.25 84.1
Q 209.25 83.6 209.4 83.05 209.55 82.55 209.9 82.05 210.2 81.6 210.65 81.15 211.05 80.7 211.55 80.3 212 79.95 212.45 79.6 212.95 79.2 213.5 78.9 214 78.55 214.45 78.25 214.9 77.95 215.2 77.7 215.7 77.35 216.2 77 216.7 76.6 217.15 76.2 217.55 75.75 217.95 75.3 218.3 74.85 218.6 74.35 218.95 73.9 219.25 73.35 219.5 72.85 219.65 72.25 219.8 71.65 219.9 70.95 220 70.3 220 69.55 220 68.85 219.85 68.2 219.7 67.5 219.45 66.85 219.2 66.15 218.8 65.55 218.4 64.95 217.95 64.4 217.35 63.9 216.7 63.45 216.05 63.05 215.35 62.7 214.65 62.4 213.85 62.25 213.1 62.05 212.25 62.05
M 231.5 62.45
Q 231.2 62.3 230.95 62.3 230.5 62.3 230.2 62.4 229.85 62.5 229.75 62.75 229.55 62.95 229.45 63.2 229.35 63.5 229.25 63.75 229.1 64.05 229 64.35 228.9 64.65 228.8 65 228.7 65.3 228.6 65.55 228.45 65.8 228.3 65.95 228.05 66.15 227.75 66.3 227.4 66.45 227.1 66.5 226.7 66.55 226.35 66.6 225.95 66.6 225.6 66.6 225.15 66.65 224.8 66.8 224.5 66.95 224.3 67.2 224 67.5 223.9 67.8 223.8 68.15 223.8 68.5 223.8 68.9 223.9 69.2 224 69.5 224.2 69.8 224.4 70.15 224.7 70.3 225 70.45 225.45 70.45
L 228.6 70.45
Q 228.6 72.4 228.6 74.3 228.6 76.25 228.6 78.15 228.6 82 228.6 85.9 228.6 86.3 228.8 86.55 228.95 86.85 229.3 87.1 229.6 87.35 230 87.5 230.35 87.65 230.8 87.65 230.9 87.65 231.1 87.6 231.25 87.55 231.4 87.45 231.5 87.4 231.7 87.35 231.85 87.25 232 87.15 232.2 87.05 232.35 86.85 232.5 86.7 232.6 86.55 232.7 86.4 232.75 86.25 232.8 86.1 232.8 85.9
L 232.8 84.45
Q 232.8 81.8 232.8 79.25 232.8 76.65 232.8 74.15 232.75 71.65 232.75 69.1 232.75 66.55 232.75 63.95 232.75 63.3 232.1 62.8 231.8 62.55 231.5 62.45
M 194.8 85.95
Q 194.4 86.05 194.2 86.25 194 86.45 193.85 86.8 193.75 87.2 193.75 87.7
L 193.75 89.2
Q 193.75 89.7 193.85 90.05 194 90.4 194.2 90.6 194.4 90.8 194.8 90.85 195.15 91 195.7 91
L 197.15 91
Q 198.05 91 198.55 90.55 199 90.1 199 89.2
L 199 87.7
Q 199 87.2 198.9 86.85 198.75 86.55 198.5 86.3 198.25 86.05 197.9 85.95 197.55 85.85 197.05 85.85
L 195.7 85.85
Q 195.15 85.85 194.8 85.95
M 166.35 77.9
Q 168.25 77.9 168.25 76 168.25 74.1 166.35 74.1
L 160.1 74.1 160.1 67.3
Q 160.1 66.8 159.95 66.45 159.85 66.1 159.65 65.85 159.4 65.65 159 65.5 158.7 65.4 158.25 65.4 157.7 65.4 157.35 65.5 156.95 65.65 156.75 65.85 156.5 66.1 156.4 66.45 156.25 66.8 156.25 67.3
L 156.25 74.1 150 74.1
Q 148.1 74.1 148.1 76 148.1 77.9 150 77.9
L 156.25 77.9 156.25 84.55
Q 156.25 85.1 156.4 85.45 156.5 85.8 156.75 86 156.95 86.3 157.35 86.4 157.7 86.5 158.25 86.5 158.7 86.5 159 86.4 159.4 86.3 159.65 86 159.85 85.8 159.95 85.45 160.1 85.1 160.1 84.55
L 160.1 77.9 166.35 77.9
M 186.65 65.65
Q 186.05 64.8 185.4 64.15 184.7 63.45 183.9 62.95 183.1 62.45 182.2 62.2 181.3 61.9 180.3 61.9 179.2 61.95 178.25 62.2 177.3 62.45 176.5 62.9 175.7 63.4 175 64.05 174.3 64.75 173.75 65.55 173.2 66.4 172.85 67.45 172.45 68.5 172.15 69.7 171.85 70.9 171.75 72.25 171.6 73.6 171.6 75.05 171.6 76.45 171.7 77.8 171.85 79.1 172.1 80.3 172.35 81.45 172.7 82.5 173.15 83.6 173.7 84.45 174.3 85.35 175 86 175.7 86.7 176.45 87.15 177.25 87.65 178.2 87.9 179.15 88.15 180.3 88.15 181.3 88.15 182.2 87.9 183.1 87.65 183.95 87.15 184.75 86.7 185.45 86 186.15 85.35 186.7 84.45 187.3 83.6 187.75 82.5 188.2 81.45 188.5 80.3 188.75 79.1 188.9 77.8 189.05 76.45 189.05 75.05 189.05 73.65 188.9 72.35 188.75 71 188.5 69.8 188.15 68.6 187.7 67.55 187.25 66.55 186.65 65.65
M 183.65 68.6
Q 183.85 69.25 184.05 69.95 184.25 70.65 184.45 71.5 184.6 72.35 184.7 73.2 184.8 74.1 184.8 75.05 184.8 76 184.7 76.9 184.65 77.8 184.5 78.6 184.1 80.3 183.65 81.5 183.4 82.15 183 82.65 182.65 83.15 182.2 83.5 181.75 83.9 181.25 84.05 180.8 84.25 180.3 84.25 179.7 84.25 179.2 84.05 178.7 83.9 178.3 83.5 177.45 82.75 176.85 81.5 176.55 80.85 176.4 80.1 176.2 79.35 176.1 78.5 175.95 77.7 175.85 76.85 175.8 75.95 175.8 75.05 175.8 74.1 175.85 73.2 175.95 72.3 176.1 71.45 176.2 70.65 176.4 69.9 176.6 69.15 176.85 68.55 177.15 67.95 177.55 67.45 177.95 67 178.35 66.6 178.75 66.3 179.25 66.15 179.75 65.95 180.3 65.95 180.75 65.95 181.25 66.15 181.7 66.3 182.2 66.65 182.6 67 183 67.5 183.35 68 183.65 68.6
M 193.75 24.65
L 192.75 24.65
Q 192.15 24.65 191.8 24.75 191.4 24.9 191.2 25.15 190.8 25.75 190.8 26.95
L 190.8 27.9
Q 190.8 28.5 190.9 28.9 190.95 29.35 191.2 29.55 191.35 29.85 191.75 29.95 192.15 30.05 192.75 30.05
L 193.75 30.05
Q 194.3 30.05 194.7 29.95 195.1 29.85 195.3 29.55 195.5 29.35 195.6 28.9 195.7 28.5 195.7 27.85
L 195.7 26.85
Q 195.7 25.65 195.3 25.15 194.85 24.65 193.75 24.65
M 186.15 22.25
Q 185.85 22.1 185.45 22.1
L 157.85 22.1
Q 157.35 22.1 157.05 22.25 156.7 22.4 156.5 22.65 156.1 23.25 156.1 23.95 156.1 24.35 156.2 24.65 156.3 25 156.5 25.25 156.7 25.5 157.05 25.65 157.35 25.8 157.85 25.8
L 169.45 25.8 169.45 35.6
Q 169.45 36.05 169.6 36.4 169.75 36.75 170.15 37 170.45 37.2 170.8 37.3 171.15 37.45 171.5 37.45 171.9 37.45 172.3 37.3 172.65 37.2 173 37 173.3 36.75 173.5 36.4 173.65 36.05 173.7 35.6
L 173.7 25.8 185.45 25.8
Q 186.25 25.8 186.7 25.25 187.15 24.8 187.15 24.1 187.15 23.7 187.05 23.3 186.95 22.95 186.7 22.65 186.5 22.4 186.15 22.25
M 182.65 14.75
Q 182.55 14.6 182.4 14.45 182.25 14.35 182.05 14.25 181.2 13.9 180.45 13.6 179.7 13.25 179.05 12.95 177.65 12.35 176.6 11.45 176.05 11.1 175.55 10.6 175.1 10.1 174.75 9.55 174.4 9 174.15 8.35 173.9 7.65 173.85 6.85
L 173.85 5.35
Q 173.85 5.05 173.65 4.75 173.5 4.6 173.35 4.5 173.2 4.4 173 4.3 172.8 4.2 172.65 4.15 172.5 4.05 172.35 4 172.15 4 171.95 3.95 171.8 3.95 171.6 3.95 171.4 3.95 171.25 3.95 171.1 4 170.95 4 170.75 4.05 170.6 4.15 170.4 4.2 170.15 4.3 170 4.4 169.85 4.5 169.75 4.6 169.65 4.75 169.55 4.9 169.5 5.05 169.45 5.2 169.45 5.35
L 169.45 6.85
Q 169.35 7.65 169.1 8.3 168.8 9 168.45 9.55 168.05 10.1 167.55 10.6 167.05 11.1 166.5 11.55 165.85 12 165.2 12.4 164.55 12.75 163.8 13.05 163.05 13.35 162.35 13.7 161.6 14 160.9 14.3 160.45 14.5 160.25 14.8 160 15.1 160 15.5 160 15.95 160.15 16.35 160.3 16.7 160.6 17.05 160.85 17.35 161.2 17.55 161.55 17.7 162 17.7 162.2 17.7 162.3 17.7 162.45 17.65 162.55 17.55 163.95 17.05 165.25 16.45 166.6 15.8 167.8 15.1 169 14.35 169.95 13.5 170.9 12.7 171.6 11.8 172.25 12.8 173.1 13.65 174 14.45 175.1 15.15 176.2 15.85 177.5 16.45 178.8 17.1 180.3 17.6
L 180.3 17.5
Q 180.45 17.55 180.6 17.6 180.8 17.65 181 17.65 181.3 17.65 181.6 17.45 181.9 17.3 182.2 17 182.5 16.7 182.6 16.3 182.75 15.95 182.75 15.5 182.75 15.3 182.7 15.15 182.7 14.95 182.65 14.75
M 193.75 9.8
L 192.75 9.8
Q 192.15 9.8 191.8 9.95 191.4 10.1 191.2 10.35 191 10.65 190.9 11.05 190.8 11.5 190.8 12.05
L 190.8 13.05
Q 190.8 13.7 190.9 14.1 190.95 14.5 191.2 14.7 191.35 14.95 191.75 15.1 192.15 15.2 192.75 15.2
L 193.75 15.2
Q 194.3 15.2 194.7 15.1 195.1 14.95 195.3 14.7 195.5 14.5 195.6 14.1 195.7 13.65 195.7 13
L 195.7 12
Q 195.7 11.45 195.6 11.05 195.5 10.65 195.3 10.35 195.05 10.1 194.7 9.95 194.3 9.8 193.75 9.8
M 237.65 30.45
Q 237.4 30.2 237.05 30.1 236.7 30 236.2 30
L 234.85 30
Q 234.3 30 233.95 30.1 233.55 30.2 233.35 30.4 233.15 30.6 233 30.95 232.9 31.35 232.9 31.85
L 232.9 33.35
Q 232.9 33.85 233 34.2 233.15 34.55 233.35 34.75 233.55 34.95 233.95 35 234.3 35.15 234.85 35.15
L 236.3 35.15
Q 237.2 35.15 237.7 34.7 238.15 34.25 238.15 33.35
L 238.15 31.85
Q 238.15 31.35 238.05 31 237.9 30.7 237.65 30.45
M 224.55 8.3
Q 223.85 7.6 223.05 7.1 222.25 6.6 221.35 6.35 220.45 6.05 219.45 6.05 218.35 6.1 217.4 6.35 216.45 6.6 215.65 7.05 214.85 7.55 214.15 8.2 213.45 8.9 212.9 9.7 212.35 10.55 212 11.6 211.6 12.65 211.3 13.85 211 15.05 210.9 16.4 210.75 17.75 210.75 19.2 210.75 20.6 210.85 21.95 211 23.25 211.25 24.45 211.5 25.6 211.85 26.65 212.3 27.75 212.85 28.6 213.45 29.5 214.15 30.15 214.85 30.85 215.6 31.3 216.4 31.8 217.35 32.05 218.3 32.3 219.45 32.3 220.45 32.3 221.35 32.05 222.25 31.8 223.1 31.3 223.9 30.85 224.6 30.15 225.3 29.5 225.85 28.6 226.45 27.75 226.9 26.65 227.35 25.6 227.65 24.45 227.9 23.25 228.05 21.95 228.2 20.6 228.2 19.2 228.2 17.8 228.05 16.5 227.9 15.15 227.65 13.95 227.3 12.75 226.85 11.7 226.4 10.7 225.8 9.8 225.2 8.95 224.55 8.3
M 223.6 15.65
Q 223.75 16.5 223.85 17.35 223.95 18.25 223.95 19.2 223.95 20.15 223.85 21.05 223.8 21.95 223.65 22.75 223.25 24.45 222.8 25.65 222.55 26.3 222.15 26.8 221.8 27.3 221.35 27.65 220.9 28.05 220.4 28.2 219.95 28.4 219.45 28.4 218.85 28.4 218.35 28.2 217.85 28.05 217.45 27.65 216.6 26.9 216 25.65 215.7 25 215.55 24.25 215.35 23.5 215.25 22.65 215.1 21.85 215 21 214.95 20.1 214.95 19.2 214.95 18.25 215 17.35 215.1 16.45 215.25 15.6 215.35 14.8 215.55 14.05 215.75 13.3 216 12.7 216.3 12.1 216.7 11.6 217.1 11.15 217.5 10.75 217.9 10.45 218.4 10.3 218.9 10.1 219.45 10.1 219.9 10.1 220.4 10.3 220.85 10.45 221.35 10.8 221.75 11.15 222.15 11.65 222.5 12.15 222.8 12.75 223 13.4 223.2 14.1 223.4 14.8 223.6 15.65
M 285.5 85.85
Q 284.95 85.85 284.6 85.95 284.2 86.05 284 86.25 283.8 86.45 283.65 86.8 283.55 87.2 283.55 87.7
L 283.55 89.2
Q 283.55 89.7 283.65 90.05 283.8 90.4 284 90.6 284.2 90.8 284.6 90.85 284.95 91 285.5 91
L 286.95 91
Q 287.85 91 288.35 90.55 288.8 90.1 288.8 89.2
L 288.8 87.7
Q 288.8 87.2 288.7 86.85 288.55 86.55 288.3 86.3 288.05 86.05 287.7 85.95 287.35 85.85 286.85 85.85
L 285.5 85.85
M 322.3 62.45
Q 322 62.3 321.75 62.3 321.3 62.3 321 62.4 320.65 62.5 320.55 62.75 320.35 62.95 320.25 63.2 320.15 63.5 320.05 63.75 319.9 64.05 319.8 64.35 319.7 64.65 319.6 65 319.5 65.3 319.4 65.55 319.25 65.8 319.1 65.95 318.85 66.15 318.55 66.3 318.2 66.45 317.9 66.5 317.5 66.55 317.15 66.6 316.75 66.6 316.4 66.6 315.95 66.65 315.6 66.8 315.3 66.95 315.1 67.2 314.8 67.5 314.7 67.8 314.6 68.15 314.6 68.5 314.6 68.9 314.7 69.2 314.8 69.5 315 69.8 315.2 70.15 315.5 70.3 315.8 70.45 316.25 70.45
L 319.4 70.45
Q 319.4 72.4 319.4 74.3 319.4 76.25 319.4 78.15 319.4 82 319.4 85.9 319.4 86.3 319.6 86.55 319.75 86.85 320.1 87.1 320.4 87.35 320.8 87.5 321.15 87.65 321.6 87.65 321.7 87.65 321.9 87.6 322.05 87.55 322.2 87.45 322.3 87.4 322.5 87.35 322.65 87.25 322.8 87.15 323 87.05 323.15 86.85 323.3 86.7 323.4 86.55 323.5 86.4 323.55 86.25 323.6 86.1 323.6 85.9
L 323.6 84.45
Q 323.6 81.8 323.6 79.25 323.6 76.65 323.6 74.15 323.55 71.65 323.55 69.1 323.55 66.55 323.55 63.95 323.55 63.3 322.9 62.8 322.6 62.55 322.3 62.45
M 310.75 68.05
Q 310.75 67.6 310.6 67.1 310.45 66.55 310.1 66 309.75 65.5 309.4 65 309.1 64.5 308.75 64.05 307.6 62.95 306.25 62.35 304.85 61.8 303.3 61.8 302.1 61.8 301.1 62.05 300.1 62.3 299.25 62.8 298.4 63.25 297.65 63.95 296.9 64.65 296.3 65.55 295.65 66.45 295.2 67.5 294.75 68.6 294.45 69.85 294.1 71.1 293.95 72.5 293.8 73.9 293.8 75.45 293.8 76.95 293.95 78.3 294.05 79.6 294.35 80.8 294.6 82 295.05 83.05 295.5 84.1 296.15 84.95 296.7 85.8 297.4 86.5 298.1 87.15 298.95 87.65 300.6 88.55 303.05 88.55 303.95 88.55 304.8 88.4 305.65 88.2 306.35 87.85 307.1 87.5 307.75 87.05 308.4 86.55 309.05 85.9 309.55 85.3 309.95 84.6 310.4 83.9 310.65 83.05 310.9 82.3 311.05 81.4 311.2 80.5 311.2 79.6 311.2 78.7 311.05 77.9 310.95 77.1 310.7 76.3 310.45 75.55 310.05 74.9 309.7 74.2 309.2 73.6 308.6 73 308 72.55 307.4 72.1 306.75 71.75 306.05 71.4 305.35 71.25 304.65 71.05 303.9 71.05 303.75 71.05 303.65 71.1 303.55 71.1 303.45 71.1 303.35 71.15 303.25 71.15 303.15 71.2 303.05 71.2 301.3 71.25 300.1 71.85 299.5 72.15 299.05 72.45 298.55 72.8 298.15 73.15 298.15 72.7 298.2 72.15 298.25 71.6 298.4 70.95 298.5 70.3 298.7 69.7 298.9 69.1 299.1 68.45 299.65 67.3 300.7 66.5 301.2 66.1 301.8 65.9 302.45 65.7 303.25 65.7 303.75 65.7 304.15 65.75 304.6 65.8 304.9 65.95 305.2 66.1 305.45 66.3 305.75 66.5 306.05 66.75 306.2 66.95 306.35 67.2 306.5 67.45 306.65 67.7 306.85 68.3 307.25 68.65 307.35 68.9 307.5 69.05 307.65 69.25 307.8 69.45 308.05 69.75 308.75 69.75 309.05 69.75 309.4 69.65 309.75 69.5 310.1 69.3 310.45 69.05 310.6 68.8 310.75 68.45 310.75 68.05
M 299.7 76.2
Q 300.2 75.55 301 75.2 301.85 74.9 302.95 74.9 303.85 74.9 304.65 75.2 305.4 75.55 306.05 76.2 306.6 76.85 306.9 77.75 307.25 78.6 307.25 79.75 307.25 80.9 306.9 81.8 306.6 82.7 306.05 83.35 305.4 84.05 304.65 84.35 303.85 84.7 302.95 84.7 301.9 84.7 301.05 84.35 300.25 84 299.7 83.3 298.55 82 298.55 79.75 298.55 78.65 298.8 77.75 299.1 76.9 299.7 76.2
M 258.45 80.4
Q 258.45 79.95 258.3 79.6 258.2 79.25 258 78.95 257.8 78.65 257.5 78.5 257.2 78.35 256.85 78.35
L 239.6 78.35
Q 239.2 78.35 238.9 78.5 238.6 78.65 238.4 78.95 238.2 79.25 238.1 79.6 238 79.95 238 80.4 238 80.8 238.1 81.2 238.2 81.55 238.4 81.8 238.6 82.1 238.9 82.25 239.2 82.4 239.6 82.35
L 256.85 82.35
Q 257.2 82.4 257.5 82.25 257.8 82.1 258 81.8 258.2 81.55 258.3 81.2 258.45 80.8 258.45 80.4
M 258 69.6
Q 257.8 69.3 257.5 69.15 257.2 69 256.85 69
L 239.6 69
Q 239.2 69 238.9 69.15 238.6 69.3 238.4 69.6 238 70.25 238 71.05 238 71.5 238.1 71.85 238.2 72.2 238.4 72.45 238.6 72.75 238.9 72.9 239.2 73.05 239.6 73.05
L 256.85 73.05
Q 257.2 73.05 257.5 72.9 257.8 72.75 258 72.45 258.2 72.2 258.3 71.85 258.45 71.5 258.45 71.05 258.45 70.25 258 69.6
M 272 62.2
Q 271.1 61.9 270.1 61.9 269 61.95 268.05 62.2 267.1 62.45 266.3 62.9 265.5 63.4 264.8 64.05 264.1 64.75 263.55 65.55 263 66.4 262.65 67.45 262.25 68.5 261.95 69.7 261.65 70.9 261.55 72.25 261.4 73.6 261.4 75.05 261.4 76.45 261.5 77.8 261.65 79.1 261.9 80.3 262.15 81.45 262.5 82.5 262.95 83.6 263.5 84.45 264.1 85.35 264.8 86 265.5 86.7 266.25 87.15 267.05 87.65 268 87.9 268.95 88.15 270.1 88.15 271.1 88.15 272 87.9 272.9 87.65 273.75 87.15 274.55 86.7 275.25 86 275.95 85.35 276.5 84.45 277.1 83.6 277.55 82.5 278 81.45 278.3 80.3 278.55 79.1 278.7 77.8 278.85 76.45 278.85 75.05 278.85 73.65 278.7 72.35 278.55 71 278.3 69.8 277.95 68.6 277.5 67.55 277.05 66.55 276.45 65.65 275.85 64.8 275.2 64.15 274.5 63.45 273.7 62.95 272.9 62.45 272 62.2
M 272 66.65
Q 272.4 67 272.8 67.5 273.15 68 273.45 68.6 273.65 69.25 273.85 69.95 274.05 70.65 274.25 71.5 274.4 72.35 274.5 73.2 274.6 74.1 274.6 75.05 274.6 76 274.5 76.9 274.45 77.8 274.3 78.6 273.9 80.3 273.45 81.5 273.2 82.15 272.8 82.65 272.45 83.15 272 83.5 271.55 83.9 271.05 84.05 270.6 84.25 270.1 84.25 269.5 84.25 269 84.05 268.5 83.9 268.1 83.5 267.25 82.75 266.65 81.5 266.35 80.85 266.2 80.1 266 79.35 265.9 78.5 265.75 77.7 265.65 76.85 265.6 75.95 265.6 75.05 265.6 74.1 265.65 73.2 265.75 72.3 265.9 71.45 266 70.65 266.2 69.9 266.4 69.15 266.65 68.55 266.95 67.95 267.35 67.45 267.75 67 268.15 66.6 268.55 66.3 269.05 66.15 269.55 65.95 270.1 65.95 270.55 65.95 271.05 66.15 271.5 66.3 272 66.65
M 269.4 30.4
Q 269.4 29.95 269.25 29.6 269.15 29.3 268.85 29.05 268.55 28.8 268.2 28.7 267.85 28.6 267.45 28.6
L 266.1 28.6
Q 265.55 28.6 265.2 28.7 264.85 28.8 264.65 29 264.45 29.25 264.3 29.6 264.2 29.95 264.2 30.4
L 264.2 32
Q 264.2 32.5 264.3 32.8 264.45 33.15 264.65 33.3 264.85 33.4 265.2 33.5 265.55 33.55 266.1 33.55
L 266.8 33.55
Q 266.7 33.75 266.4 34.3 266.2 34.5 266 34.7 265.75 34.9 265.4 35.1 265.25 35.2 265.1 35.35 264.9 35.45 264.8 35.6 264.65 35.7 264.6 35.8 264.5 35.9 264.5 36.1 264.5 36.3 264.6 36.55 264.65 36.75 264.8 36.9 264.9 37.05 265 37.2 265.15 37.25 265.3 37.25 265.4 37.25 265.6 37.25 265.8 37.2 266 37.15 266.25 37 266.35 36.95 266.5 36.9 266.55 36.85 266.8 36.75 267 36.6 267.25 36.45 267.5 36.25 267.75 36.05 268 35.8 268.2 35.55 268.45 35.25 268.9 34.6 269.2 33.9 269.3 33.45 269.35 33.05 269.4 32.65 269.4 32.2
L 269.4 30.4
M 254.7 6.65
Q 254.25 6.75 253.9 7 253.5 7.25 253.25 7.65
L 253 8.05
Q 252.4 8.95 251.8 9.9 251.2 10.9 250.6 11.95 249.95 13.05 249.35 14.1 248.7 15.2 248 16.2 246.65 18.35 245.4 20.35 244.7 21.35 244.05 22.4 243.35 23.4 242.7 24.45
L 242.55 24.9 242.5 24.9 242.5 24.95 242.45 25
Q 242.35 25.2 242.25 25.4 242.2 25.55 242.15 25.8 242.1 26 242.1 26.25 242.15 26.45 242.2 26.65 242.25 26.9 242.3 27.1 242.4 27.3 242.5 27.5 242.55 27.7 242.7 27.85 242.8 28 243 28.1 243.2 28.2 243.35 28.25 243.55 28.3 243.8 28.4 243.95 28.45 244.15 28.45 244.35 28.45 244.55 28.4
L 253.35 28.4 253.35 30.05
Q 253.35 30.65 253.5 31.05 253.65 31.45 253.95 31.6 254.45 32.05 255.5 32.05 256.2 32.05 256.85 31.6 257.5 31.25 257.5 30.05
L 257.5 28.4 258.65 28.4
Q 259.25 28.4 259.6 28.25 259.95 28.15 260.15 27.8 260.3 27.5 260.4 27.15 260.45 26.8 260.45 26.3 260.45 25.95 260.4 25.6 260.3 25.25 260.15 24.9 259.95 24.6 259.6 24.45 259.25 24.25 258.65 24.25
L 257.5 24.25 257.4 8.8
Q 257.4 8.55 257.35 8.35 257.3 8.1 257.2 7.85 257.05 7.6 256.85 7.4 256.65 7.15 256.35 6.95 255.9 6.7 255.5 6.6 255.1 6.55 254.7 6.65
M 251.3 18
Q 251.7 17.4 252.05 16.8 252.8 15.65 253.25 14.8
L 253.25 24.35 247.2 24.35
Q 247.6 23.85 248 23.2 248.4 22.6 248.8 21.95 249.25 21.3 249.65 20.6 250 19.95 250.4 19.3 250.85 18.65 251.3 18
M 297.35 7
Q 296.9 6.95 296.4 6.95
L 287.3 6.95
Q 286.85 6.95 286.5 7.05 286.2 7.2 286.05 7.45 285.85 7.75 285.8 8.1 285.7 8.4 285.7 8.75 285.7 9.15 285.8 9.45 285.85 9.8 286.05 10.05 286.35 10.55 287.3 10.55
L 293.5 10.55
Q 293.85 10.55 294.35 10.55 294.55 10.6 294.7 10.6 294.9 10.65 295.05 10.65 295.05 11.5 295 12.25 294.95 13 294.85 13.65 294.75 14.3 294.55 14.85 294.35 15.45 294.1 16 293.85 16.55 293.6 17.05 293.35 17.5 293.05 17.95 292.75 18.4 292.45 18.8 292.15 19.2 291.9 19.55 291.45 19.95 291.2 20.25 290.85 20.6 290.65 20.85 290.45 21.1 290.15 21.35 289.9 21.6 289.6 21.8 289.1 22.2 288.45 22.65 288.05 22.85 287.6 23.1 287.1 23.35 286.45 23.6 286.4 23.65 286.35 23.7 286.3 23.75 286.25 23.75 285.75 24 285.5 24.3 285.3 24.65 285.3 25.1 285.3 25.35 285.3 25.55 285.35 25.75 285.45 25.95 285.55 26.15 285.65 26.3 285.75 26.5 285.9 26.65 286 26.85 286.1 26.95 286.25 27.1 286.35 27.2 286.55 27.4 287.1 27.4 287.3 27.4 287.65 27.3 288.35 26.95 289 26.6 289.65 26.25 290.15 25.95 291.2 25.4 292.05 24.7 292.5 24.4 292.9 24.05 293.3 23.75 293.7 23.35 294.05 22.95 294.45 22.5 294.8 22.05 295.2 21.5 295.75 20.95 296.15 20.4 296.6 19.8 297 19.1 297.35 18.45 297.65 17.75 297.95 17.05 298.2 16.3 298.5 15.55 298.75 14.8 298.95 14.05 299.1 13.3 299.2 12.55 299.3 11.8 299.35 11.05 299.35 10.3 299.35 9.6 299.35 8.95 299.3 8.65 299.25 8.35 299.15 8.1 299.05 7.85 298.85 7.65 298.65 7.45 298.4 7.3 298.1 7.15 297.8 7.05 297.35 7
M 308.9 5.35
Q 308.9 4.9 308.75 4.6 308.6 4.3 308.3 4.1 308 4 307.6 3.9 307.25 3.85 306.8 3.85 306.45 3.85 306.1 3.9 305.75 4 305.45 4.1 305.1 4.3 304.95 4.6 304.75 4.9 304.75 5.35
L 304.75 35.4
Q 304.75 35.85 304.95 36.1 305.1 36.4 305.45 36.55 305.75 36.7 306.1 36.75 306.45 36.85 306.8 36.85 307.25 36.85 307.6 36.75 308 36.7 308.3 36.55 308.6 36.4 308.75 36.1 308.9 35.85 308.9 35.4
L 308.9 19.75 312.65 19.75
Q 313.15 19.75 313.45 19.6 313.75 19.45 313.9 19.15 314 18.85 314.05 18.55 314.1 18.2 314.1 17.85 314.1 17.45 314.05 17.1 314 16.75 313.9 16.5 313.75 16.25 313.45 16.1 313.15 16 312.65 16
L 308.9 16 308.9 5.35
M 325.8 125.45
Q 325.55 124.25 325.15 123.2 324.7 122.2 324.2 121.3 323.55 120.45 322.85 119.75 322.15 119.1 321.3 118.6 320.45 118.1 319.4 117.9 318.4 117.65 317.15 117.65 316.3 117.65 315.45 117.8 314.65 118 313.9 118.35 313.1 118.7 312.45 119.2 311.8 119.7 311.3 120.3 310.7 120.95 310.25 121.65 309.8 122.4 309.5 123.2 309.2 124.05 309.05 124.9 308.9 125.75 308.9 126.7 308.9 127.6 309.05 128.4 309.2 129.25 309.5 130 309.75 130.8 310.2 131.45 310.6 132.1 311.15 132.65 311.6 133.25 312.2 133.7 312.75 134.15 313.45 134.45 314.05 134.85 314.75 135 315.45 135.15 316.2 135.15 316.35 135.15 316.5 135.15 316.65 135.15 316.8 135.15 316.9 135.15 317 135.15 317.05 135.15 317.15 135.1 318 135.1 318.75 134.9 319.5 134.75 320.15 134.4 320.75 134.1 321.2 133.8 321.65 133.45 321.95 133.05 321.95 133.55 321.9 134.1 321.85 134.65 321.75 135.3 321.65 135.95 321.5 136.55 321.3 137.2 321.1 137.75 320.75 138.35 320.35 138.85 319.95 139.3 319.5 139.75 319.05 140.15 318.4 140.35 317.8 140.55 317.05 140.55 316.35 140.55 315.75 140.4 315.2 140.25 314.8 139.9 314.35 139.6 314 139.2 313.65 138.85 313.4 138.35 313.05 137.75 312.75 137.1 312.55 136.85 312.25 136.7 311.9 136.55 311.45 136.55 310.8 136.55 310.15 136.95 309.8 137.15 309.65 137.5 309.45 137.8 309.45 138.2 309.45 138.5 309.5 138.7 309.55 138.95 309.65 139.2 309.7 139.45 309.8 139.75 309.9 140 310.05 140.3 310.15 140.55 310.35 140.8 310.5 141.05 310.75 141.25 310.95 141.55 311.1 141.75 311.25 141.95 311.45 142.2 312 142.75 312.65 143.15 313.3 143.6 314.05 143.85 314.7 144.15 315.45 144.3 316.2 144.4 317.05 144.4 318.1 144.4 319.05 144.2 320.05 143.95 320.95 143.45 321.85 142.95 322.6 142.3 323.35 141.6 323.95 140.7 324.5 139.8 324.95 138.75 325.35 137.65 325.7 136.4 326 135.15 326.15 133.75 326.3 132.35 326.3 130.8 326.3 129.35 326.2 128 326.05 126.65 325.8 125.45
M 317.25 121.55
Q 319.35 121.55 320.55 122.9 321.1 123.6 321.35 124.5 321.65 125.4 321.65 126.5 321.65 127.6 321.35 128.5 321.1 129.4 320.55 130.05 319.35 131.45 317.25 131.45 316.35 131.45 315.55 131.1 314.8 130.8 314.2 130.1 313.55 129.45 313.25 128.55 312.95 127.65 312.95 126.5 312.95 124.3 314.25 122.9 315.45 121.55 317.25 121.55
M 326.65 22.6
Q 325.75 22.85 324.95 23.25 324.2 23.6 323.55 24.1 322.85 24.6 322.35 25.15 321.85 25.7 321.5 26.4 320.8 27.8 320.8 29.55 320.8 30.45 320.95 31.2 321.15 32 321.5 32.65 321.85 33.3 322.4 33.9 322.9 34.45 323.6 34.9 324.25 35.4 325 35.75 325.8 36.1 326.75 36.35 327.6 36.6 328.65 36.7 329.7 36.85 330.9 36.85 331.95 36.85 333 36.7 334 36.6 335 36.35 336.9 35.85 338.25 34.9 338.9 34.4 339.4 33.85 339.95 33.25 340.3 32.6 341.05 31.25 341.05 29.55 341.05 28.7 340.85 27.9 340.7 27.15 340.35 26.4 339.95 25.75 339.45 25.15 338.95 24.6 338.3 24.1 337.65 23.6 336.8 23.25 336 22.85 335.05 22.6 334.1 22.35 333.05 22.25 332 22.1 330.9 22.1 329.7 22.1 328.6 22.25 327.55 22.35 326.65 22.6
M 335.25 26.8
Q 336.85 27.75 336.85 29.55 336.85 30.4 336.45 31.05 336 31.7 335.2 32.15 334.35 32.65 333.3 32.85 332.25 33.1 330.95 33.1 329.55 33.1 328.45 32.85 327.35 32.65 326.6 32.15 325.75 31.7 325.35 31 325 30.35 325 29.55 325 28.65 325.35 27.95 325.75 27.25 326.6 26.8 327.35 26.3 328.45 26.1 329.55 25.85 330.95 25.85 332.3 25.85 333.35 26.1 334.45 26.3 335.25 26.8
M 331.8 5.8
Q 331.4 5.25 330.65 5.25
L 318.1 5.25
Q 317.25 5.25 316.95 5.8 316.8 6.1 316.7 6.45 316.6 6.75 316.6 7.15 316.6 7.5 316.7 7.8 316.8 8.1 317 8.4 317.15 8.7 317.45 8.85 317.75 9 318.1 9
L 322.4 9 322.4 9.45
Q 322.4 10 322.3 10.55 322.2 11.1 322.05 11.65 321.8 12.25 321.55 12.75 321.25 13.35 320.9 13.9 320.5 14.4 320.1 14.85 319.65 15.35 319.15 15.8 318.65 16.25 318.1 16.65 317.55 17.05 316.95 17.4 316.75 17.5 316.65 17.65 316.5 17.75 316.45 17.9 316.4 18.1 316.35 18.25 316.35 18.4 316.35 18.55 316.35 18.85 316.35 19.1 316.4 19.35 316.45 19.5 316.5 19.75 316.65 19.9 316.75 20.05 316.95 20.2 317.1 20.3 317.3 20.4 317.5 20.5 317.65 20.55 317.8 20.6 317.95 20.65 318.1 20.7 318.2 20.65 318.25 20.6 318.4 20.6 318.55 20.55 318.75 20.55 319.1 20.55 319.4 20.45 320.95 19.5 322.3 18 322.95 17.3 323.55 16.5 324.15 15.75 324.7 14.9 325.2 15.7 325.75 16.45 326.35 17.15 327 17.75 328.25 19.1 330.25 20.1 330.6 20.2 330.85 20.25 331.15 20.35 331.3 20.35 332.1 20.35 332.55 19.6 332.75 19.25 332.9 18.9 333.05 18.5 333.05 18.1 333.05 17.85 333 17.7 332.95 17.5 332.85 17.4 332.75 17.35 332.6 17.2 332.5 17.05 332.35 16.85 331.8 16.6 331.3 16.25 330.85 15.9 330.4 15.45 329.45 14.65 328.6 13.7 328.3 13.2 327.95 12.7 327.65 12.15 327.35 11.65 326.75 10.6 326.75 9.65
L 326.75 9 330.65 9
Q 331.05 9 331.3 8.85 331.6 8.7 331.8 8.4 332.1 7.85 332.1 7.15 332.1 6.75 332.05 6.4 331.95 6.05 331.8 5.8
M 345.65 11.4
Q 345.5 11.15 345.2 11.05 344.85 10.9 344.35 10.9
L 341 10.9 341 5.35
Q 341 4.9 340.85 4.6 340.7 4.3 340.45 4.15 340.1 4 339.75 3.95 339.4 3.85 339 3.85 338.6 3.85 338.25 3.95 337.9 4 337.6 4.15 337.2 4.3 337.05 4.6 336.85 4.9 336.85 5.35
L 336.85 19.65
Q 336.85 20.1 337 20.4 337.1 20.75 337.35 20.95 337.65 21.2 337.9 21.3 338.2 21.4 338.55 21.4 338.7 21.4 338.95 21.4 339.15 21.4 339.4 21.35 339.6 21.35 339.8 21.25 339.95 21.2 340.1 21.1 340.25 21 340.4 20.85 340.55 20.7 340.7 20.5 340.85 20.35 340.95 20.15 341 19.9 341 19.65
L 341 14.55 344.35 14.55
Q 344.85 14.55 345.2 14.4 345.5 14.3 345.65 14 345.85 13.45 345.85 12.75 345.85 12.35 345.8 12 345.75 11.65 345.65 11.4
M 381.35 24.25
Q 380.95 23.85 380.45 23.6 379.9 23.35 379.3 23.35
L 364.95 23.35
Q 364.5 23.35 364.2 23.5 363.9 23.6 363.75 23.9 363.55 24.15 363.5 24.5 363.4 24.8 363.4 25.2 363.4 25.55 363.5 25.9 363.55 26.2 363.75 26.5 363.9 26.75 364.2 26.9 364.5 27.05 364.95 27.05
L 377.95 27.05 377.95 35.55
Q 377.95 35.9 378.1 36.15 378.25 36.45 378.6 36.65 378.9 36.85 379.15 36.95 379.45 37.05 379.75 37.05 379.9 37.05 380.1 37 380.3 37 380.55 36.95 380.75 36.9 380.95 36.8 381.1 36.75 381.25 36.65 381.4 36.55 381.55 36.45 381.7 36.3 381.85 36.2 381.95 36 382 35.85 382.1 35.7 382.1 35.55
L 382.1 26.45
Q 382.1 25.2 381.35 24.25
M 372.95 5.8
Q 372.55 5.25 371.8 5.25
L 359.25 5.25
Q 358.4 5.25 358.1 5.8 357.95 6.1 357.85 6.45 357.75 6.75 357.75 7.15 357.75 7.5 357.85 7.8 357.95 8.1 358.15 8.4 358.3 8.7 358.6 8.85 358.9 9 359.25 9
L 363.55 9 363.55 9.45
Q 363.55 10 363.45 10.55 363.35 11.1 363.2 11.65 362.95 12.25 362.7 12.75 362.4 13.35 362.05 13.9 361.65 14.4 361.25 14.85 360.8 15.35 360.3 15.8 359.8 16.25 359.25 16.65 358.7 17.05 358.1 17.4 357.9 17.5 357.8 17.65 357.65 17.75 357.6 17.9 357.55 18.1 357.5 18.25 357.5 18.4 357.5 18.55 357.5 18.85 357.5 19.1 357.55 19.35 357.6 19.5 357.65 19.75 357.8 19.9 357.9 20.05 358.1 20.2 358.25 20.3 358.45 20.4 358.65 20.5 358.8 20.55 358.95 20.6 359.1 20.65 359.25 20.7 359.35 20.65 359.4 20.6 359.55 20.6 359.7 20.55 359.9 20.55 360.25 20.55 360.55 20.45 362.1 19.5 363.45 18 364.1 17.3 364.7 16.5 365.3 15.75 365.85 14.9 366.35 15.7 366.9 16.45 367.5 17.15 368.15 17.75 369.4 19.1 371.4 20.1 371.75 20.2 372 20.25 372.3 20.35 372.45 20.35 373.25 20.35 373.7 19.6 373.9 19.25 374.05 18.9 374.2 18.5 374.2 18.1 374.2 17.85 374.15 17.7 374.1 17.5 374 17.4 373.9 17.35 373.75 17.2 373.65 17.05 373.5 16.85 372.95 16.6 372.45 16.25 372 15.9 371.55 15.45 370.6 14.65 369.75 13.7 369.45 13.2 369.1 12.7 368.8 12.15 368.5 11.65 367.9 10.6 367.9 9.65
L 367.9 9 371.8 9
Q 372.2 9 372.45 8.85 372.75 8.7 372.95 8.4 373.25 7.85 373.25 7.15 373.25 6.75 373.2 6.4 373.1 6.05 372.95 5.8
M 386.35 11.05
Q 386 10.9 385.5 10.9
L 382.15 10.9 382.15 5.35
Q 382.15 4.9 382 4.6 381.85 4.3 381.6 4.15 381.25 4 380.9 3.95 380.55 3.85 380.15 3.85 379.75 3.85 379.4 3.95 379.05 4 378.75 4.15 378.35 4.3 378.2 4.6 378 4.9 378 5.35
L 378 19.65
Q 378 20.1 378.15 20.4 378.25 20.75 378.5 20.95 378.8 21.2 379.05 21.3 379.35 21.4 379.7 21.4 379.85 21.4 380.1 21.4 380.3 21.4 380.55 21.35 380.75 21.35 380.95 21.25 381.1 21.2 381.25 21.1 381.4 21 381.55 20.85 381.7 20.7 381.85 20.5 382 20.35 382.1 20.15 382.15 19.9 382.15 19.65
L 382.15 14.55 385.5 14.55
Q 386 14.55 386.35 14.4 386.65 14.3 386.8 14 387 13.45 387 12.75 387 12.35 386.95 12 386.9 11.65 386.8 11.4 386.65 11.15 386.35 11.05
M 412.45 32.3
Q 412.1 32.15 411.7 32.15
L 399.65 32.15
Q 399.45 32.15 399.25 32.15 399.05 32.15 398.8 32.1 398.55 32.1 398.35 32.05 398.15 32.05 398 32
L 398 26.85
Q 398 26.5 397.75 26.2 397.65 26.05 397.5 25.95 397.35 25.85 397.15 25.7 397 25.65 396.8 25.6 396.65 25.55 396.5 25.45 396.35 25.4 396.15 25.35 395.95 25.35 395.75 25.35 395.4 25.35 395.1 25.45 394.8 25.55 394.5 25.7 394.1 25.95 393.95 26.2 393.8 26.5 393.8 26.85
L 393.8 33.05
Q 393.8 33.7 394 34.25 394.2 34.75 394.7 35.15 395.15 35.5 395.7 35.7 396.2 35.85 396.85 35.85
L 411.7 35.85
Q 412.1 35.85 412.45 35.75 412.75 35.6 412.9 35.35 413.05 35.05 413.15 34.75 413.2 34.4 413.2 34.05 413.2 33.65 413.15 33.35 413.05 33 412.9 32.7 412.75 32.45 412.45 32.3
M 417.95 19.2
Q 417.6 19.05 417.15 19.05
L 388.95 19.05
Q 388.45 19.05 388.15 19.2 387.85 19.35 387.75 19.65 387.65 19.95 387.6 20.25 387.5 20.6 387.5 21 387.5 21.35 387.6 21.65 387.65 21.95 387.75 22.2 387.85 22.45 388.15 22.55 388.45 22.65 388.95 22.65
L 417.15 22.65
Q 417.6 22.65 417.95 22.55 418.25 22.45 418.4 22.2 418.5 21.95 418.55 21.65 418.6 21.35 418.6 21 418.6 20.25 418.4 19.65 418.25 19.35 417.95 19.2
M 407.4 4.65
Q 406.45 4.45 405.35 4.35 404.2 4.25 403.05 4.25 401.9 4.25 400.85 4.35 399.8 4.45 398.85 4.7 397.85 4.9 397.05 5.2 396.2 5.5 395.55 5.85 394.85 6.25 394.35 6.7 393.85 7.2 393.5 7.75 393.15 8.3 392.95 8.9 392.75 9.5 392.75 10.2 392.75 11.45 393.25 12.45 393.8 13.45 394.8 14.15 395.85 14.9 397.3 15.4 398.75 15.9 400.65 16.1 400.9 16.1 401.15 16.15 401.35 16.15 401.6 16.15 401.9 16.2 402.1 16.2 402.35 16.25 402.55 16.25 402.8 16.25 403.15 16.2 403.45 16.2 403.75 16.15 404.05 16.15 404.4 16.15 404.75 16.15 405.15 16.1 407 15.95 408.55 15.45 410.05 15.05 411.15 14.25 412.2 13.45 412.75 12.45 413.3 11.45 413.3 10.2 413.3 9.5 413.15 8.9 412.95 8.25 412.6 7.7 412.25 7.15 411.75 6.7 411.25 6.25 410.65 5.8 409.3 5.05 407.4 4.65
M 407.55 8.55
Q 409.2 9.1 409.2 10.2 409.2 11.3 407.55 11.9 406.7 12.2 405.55 12.35 404.45 12.5 403.05 12.5 401.7 12.5 400.6 12.35 399.5 12.2 398.7 11.9 397.8 11.6 397.4 11.2 396.95 10.75 396.95 10.2 396.95 9.65 397.4 9.25 397.8 8.8 398.7 8.55 399.5 8.25 400.6 8.1 401.7 7.95 403.05 7.95 404.45 7.95 405.55 8.1 406.7 8.25 407.55 8.55
M 463.4 27.9
Q 463.4 28.5 463.5 28.9 463.55 29.35 463.8 29.55 463.95 29.85 464.35 29.95 464.75 30.05 465.35 30.05
L 466.35 30.05
Q 466.9 30.05 467.3 29.95 467.7 29.85 467.9 29.55 468.1 29.35 468.2 28.9 468.3 28.5 468.3 27.85
L 468.3 26.85
Q 468.3 25.65 467.9 25.15 467.45 24.65 466.35 24.65
L 465.35 24.65
Q 464.75 24.65 464.4 24.75 464 24.9 463.8 25.15 463.4 25.75 463.4 26.95
L 463.4 27.9
M 459.75 24.1
Q 459.75 23.7 459.65 23.3 459.55 22.95 459.3 22.65 459.1 22.4 458.75 22.25 458.45 22.1 458.05 22.1
L 430.45 22.1
Q 429.95 22.1 429.65 22.25 429.3 22.4 429.1 22.65 428.7 23.25 428.7 23.95 428.7 24.35 428.8 24.65 428.9 25 429.1 25.25 429.3 25.5 429.65 25.65 429.95 25.8 430.45 25.8
L 442.05 25.8 442.05 35.6
Q 442.05 36.05 442.2 36.4 442.35 36.75 442.75 37 443.05 37.2 443.4 37.3 443.75 37.45 444.1 37.45 444.5 37.45 444.9 37.3 445.25 37.2 445.6 37 445.9 36.75 446.1 36.4 446.25 36.05 446.3 35.6
L 446.3 25.8 458.05 25.8
Q 458.85 25.8 459.3 25.25 459.75 24.8 459.75 24.1
M 447.35 9.55
Q 447 9 446.75 8.35 446.5 7.65 446.45 6.85
L 446.45 5.35
Q 446.45 5.05 446.25 4.75 446.1 4.6 445.95 4.5 445.8 4.4 445.6 4.3 445.4 4.2 445.25 4.15 445.1 4.05 444.95 4 444.75 4 444.55 3.95 444.4 3.95 444.2 3.95 444 3.95 443.85 3.95 443.7 4 443.55 4 443.35 4.05 443.2 4.15 443 4.2 442.75 4.3 442.6 4.4 442.45 4.5 442.35 4.6 442.25 4.75 442.15 4.9 442.1 5.05 442.05 5.2 442.05 5.35
L 442.05 6.85
Q 441.95 7.65 441.7 8.3 441.4 9 441.05 9.55 440.65 10.1 440.15 10.6 439.65 11.1 439.1 11.55 438.45 12 437.8 12.4 437.15 12.75 436.4 13.05 435.65 13.35 434.95 13.7 434.2 14 433.5 14.3 433.05 14.5 432.85 14.8 432.6 15.1 432.6 15.5 432.6 15.95 432.75 16.35 432.9 16.7 433.2 17.05 433.45 17.35 433.8 17.55 434.15 17.7 434.6 17.7 434.8 17.7 434.9 17.7 435.05 17.65 435.15 17.55 436.55 17.05 437.85 16.45 439.2 15.8 440.4 15.1 441.6 14.35 442.55 13.5 443.5 12.7 444.2 11.8 444.85 12.8 445.7 13.65 446.6 14.45 447.7 15.15 448.8 15.85 450.1 16.45 451.4 17.1 452.9 17.6
L 452.9 17.5
Q 453.05 17.55 453.2 17.6 453.4 17.65 453.6 17.65 453.9 17.65 454.2 17.45 454.5 17.3 454.8 17 455.1 16.7 455.2 16.3 455.35 15.95 455.35 15.5 455.35 15.3 455.3 15.15 455.3 14.95 455.25 14.75 455.15 14.6 455 14.45 454.85 14.35 454.65 14.25 453.8 13.9 453.05 13.6 452.3 13.25 451.65 12.95 450.25 12.35 449.2 11.45 448.65 11.1 448.15 10.6 447.7 10.1 447.35 9.55
M 467.3 9.95
Q 466.9 9.8 466.35 9.8
L 465.35 9.8
Q 464.75 9.8 464.4 9.95 464 10.1 463.8 10.35 463.6 10.65 463.5 11.05 463.4 11.5 463.4 12.05
L 463.4 13.05
Q 463.4 13.7 463.5 14.1 463.55 14.5 463.8 14.7 463.95 14.95 464.35 15.1 464.75 15.2 465.35 15.2
L 466.35 15.2
Q 466.9 15.2 467.3 15.1 467.7 14.95 467.9 14.7 468.1 14.5 468.2 14.1 468.3 13.65 468.3 13
L 468.3 12
Q 468.3 11.45 468.2 11.05 468.1 10.65 467.9 10.35 467.65 10.1 467.3 9.95
M 505.6 34.2
Q 505.75 34.55 505.95 34.75 506.15 34.95 506.55 35 506.9 35.15 507.45 35.15
L 508.9 35.15
Q 509.8 35.15 510.3 34.7 510.75 34.25 510.75 33.35
L 510.75 31.85
Q 510.75 31.35 510.65 31 510.5 30.7 510.25 30.45 510 30.2 509.65 30.1 509.3 30 508.8 30
L 507.45 30
Q 506.9 30 506.55 30.1 506.15 30.2 505.95 30.4 505.75 30.6 505.6 30.95 505.5 31.35 505.5 31.85
L 505.5 33.35
Q 505.5 33.85 505.6 34.2
M 499.45 11.7
Q 499 10.7 498.4 9.8 497.8 8.95 497.15 8.3 496.45 7.6 495.65 7.1 494.85 6.6 493.95 6.35 493.05 6.05 492.05 6.05 490.95 6.1 490 6.35 489.05 6.6 488.25 7.05 487.45 7.55 486.75 8.2 486.05 8.9 485.5 9.7 484.95 10.55 484.6 11.6 484.2 12.65 483.9 13.85 483.6 15.05 483.5 16.4 483.35 17.75 483.35 19.2 483.35 20.6 483.45 21.95 483.6 23.25 483.85 24.45 484.1 25.6 484.45 26.65 484.9 27.75 485.45 28.6 486.05 29.5 486.75 30.15 487.45 30.85 488.2 31.3 489 31.8 489.95 32.05 490.9 32.3 492.05 32.3 493.05 32.3 493.95 32.05 494.85 31.8 495.7 31.3 496.5 30.85 497.2 30.15 497.9 29.5 498.45 28.6 499.05 27.75 499.5 26.65 499.95 25.6 500.25 24.45 500.5 23.25 500.65 21.95 500.8 20.6 500.8 19.2 500.8 17.8 500.65 16.5 500.5 15.15 500.25 13.95 499.9 12.75 499.45 11.7
M 490.1 10.75
Q 490.5 10.45 491 10.3 491.5 10.1 492.05 10.1 492.5 10.1 493 10.3 493.45 10.45 493.95 10.8 494.35 11.15 494.75 11.65 495.1 12.15 495.4 12.75 495.6 13.4 495.8 14.1 496 14.8 496.2 15.65 496.35 16.5 496.45 17.35 496.55 18.25 496.55 19.2 496.55 20.15 496.45 21.05 496.4 21.95 496.25 22.75 495.85 24.45 495.4 25.65 495.15 26.3 494.75 26.8 494.4 27.3 493.95 27.65 493.5 28.05 493 28.2 492.55 28.4 492.05 28.4 491.45 28.4 490.95 28.2 490.45 28.05 490.05 27.65 489.2 26.9 488.6 25.65 488.3 25 488.15 24.25 487.95 23.5 487.85 22.65 487.7 21.85 487.6 21 487.55 20.1 487.55 19.2 487.55 18.25 487.6 17.35 487.7 16.45 487.85 15.6 487.95 14.8 488.15 14.05 488.35 13.3 488.6 12.7 488.9 12.1 489.3 11.6 489.7 11.15 490.1 10.75
M 531.6 12.35
Q 531.45 11.65 531.2 11 530.95 10.3 530.55 9.7 530.15 9.1 529.7 8.55 529.1 8.05 528.45 7.6 527.8 7.2 527.1 6.85 526.4 6.55 525.6 6.4 524.85 6.2 524 6.2
L 523.95 6.2
Q 523.1 6.2 522.35 6.35 521.6 6.55 520.95 6.85 520.2 7.2 519.6 7.65 518.95 8.05 518.45 8.6 517.5 9.65 516.95 10.9 516.7 11.55 516.55 12.2 516.4 12.8 516.4 13.45 516.4 13.8 516.55 14.1 516.7 14.4 516.95 14.6 517.25 14.8 517.55 14.95 517.8 15.05 518.15 15.05 518.6 15.05 519 14.85 519.45 14.7 519.8 14.4 520.1 14.05 520.3 13.65 520.45 13.25 520.45 12.75 520.45 12.6 520.55 12.4 520.6 12.15 520.8 11.9 520.9 11.65 521.05 11.4 521.25 11.2 521.45 11 521.75 10.8 522.05 10.65 522.35 10.45 522.7 10.3 523.05 10.2 523.35 10.15 523.65 10.05 524 10.05 524.5 10.05 524.9 10.15 525.35 10.25 525.7 10.4 526.05 10.55 526.35 10.8 526.65 11 526.9 11.25 527.1 11.5 527.25 11.85 527.45 12.15 527.6 12.45 527.75 12.8 527.85 13.1 527.9 13.45 527.9 13.75 527.9 14.05 527.85 14.35 527.8 14.65 527.65 15 527.5 15.3 527.3 15.6 527.15 15.9 527 16.2 526.8 16.55 526.65 16.8 526.45 17.1 526.15 17.3 525.9 17.55 525.65 17.75 525.4 17.95 525.25 18.05 524.8 18.4 524.35 18.75 523.85 19.1 523.4 19.45 522.95 19.8 522.5 20.15 522.05 20.5 521.6 20.8 520.95 21.35 520.45 21.8 519.9 22.25 519.4 22.65 518.95 23.1 518.6 23.55 518.25 24 518 24.45 517.6 24.85 517.35 25.35 517.15 25.8 516.95 26.25 516.8 26.8 516.7 27.4 516.55 27.95 516.5 28.6 516.5 28.65 516.5 28.75 516.45 28.85 516.45 28.95 516.4 29.05 516.4 29.2 516.35 29.3 516.4 29.35
L 516.4 29.5
Q 516.35 29.6 516.35 29.75 516.35 29.85 516.35 29.95 516.35 30.5 516.5 30.85 516.65 31.2 517.05 31.4 517.35 31.65 517.75 31.75 518.15 31.9 518.6 31.9
L 530.2 31.9
Q 532.3 31.9 532.3 30 532.3 29.5 532.15 29.15 532 28.8 531.75 28.6 531.45 28.45 531 28.35 530.55 28.25 530 28.25
L 521 28.25
Q 521 27.75 521.15 27.2 521.3 26.7 521.65 26.2 521.95 25.75 522.4 25.3 522.8 24.85 523.3 24.45 523.75 24.1 524.2 23.75 524.7 23.35 525.25 23.05 525.75 22.7 526.2 22.4 526.65 22.1 526.95 21.85 527.45 21.5 527.95 21.15 528.45 20.75 528.9 20.35 529.3 19.9 529.7 19.45 530.05 19 530.35 18.5 530.7 18.05 531 17.5 531.25 17 531.4 16.4 531.55 15.8 531.65 15.1 531.75 14.45 531.75 13.7 531.75 13 531.6 12.35
M 541 7.9
Q 540.85 8.2 540.75 8.5 540.65 8.8 540.55 9.15 540.45 9.45 540.35 9.7 540.2 9.95 540.05 10.1 539.8 10.3 539.5 10.45 539.15 10.6 538.85 10.65 538.45 10.7 538.1 10.75 537.7 10.75 537.35 10.75 536.9 10.8 536.55 10.95 536.25 11.1 536.05 11.35 535.75 11.65 535.65 11.95 535.55 12.3 535.55 12.65 535.55 13.05 535.65 13.35 535.75 13.65 535.95 13.95 536.15 14.3 536.45 14.45 536.75 14.6 537.2 14.6
L 540.35 14.6
Q 540.35 16.55 540.35 18.45 540.35 20.4 540.35 22.3 540.35 26.15 540.35 30.05 540.35 30.45 540.55 30.7 540.7 31 541.05 31.25 541.35 31.5 541.75 31.65 542.1 31.8 542.55 31.8 542.65 31.8 542.85 31.75 543 31.7 543.15 31.6 543.25 31.55 543.45 31.5 543.6 31.4 543.75 31.3 543.95 31.2 544.1 31 544.25 30.85 544.35 30.7 544.45 30.55 544.5 30.4 544.55 30.25 544.55 30.05
L 544.55 28.6
Q 544.55 25.95 544.55 23.4 544.55 20.8 544.55 18.3 544.5 15.8 544.5 13.25 544.5 10.7 544.5 8.1 544.5 7.45 543.85 6.95 543.55 6.7 543.25 6.6 542.95 6.45 542.7 6.45 542.25 6.45 541.95 6.55 541.6 6.65 541.5 6.9 541.3 7.1 541.2 7.35 541.1 7.65 541 7.9 Z"/>

<path fill="#C1EBFF" stroke="none" d="
M 28.9 121.6
Q 25.95 118.6 21.7 118.6 17.55 118.6 14.5 121.55 14.45 121.55 14.45 121.6 11.5 124.65 11.5 128.8 11.5 133 14.5 136
L 14.5 136.05
Q 17.55 138.95 21.7 138.95 25.9 138.95 28.8 136.05 28.85 136 28.9 135.95 31.85 133 31.85 128.8 31.85 124.6 28.85 121.6
L 28.9 121.6
M 17.45 132.95
Q 15.75 131.25 15.75 128.8 15.75 126.35 17.45 124.55 19.25 122.85 21.7 122.85 24.15 122.85 25.85 124.55 27.6 126.35 27.6 128.8 27.6 131.25 25.85 132.95 24.15 134.7 21.7 134.7 19.25 134.7 17.45 132.95
M 28.9 70.25
Q 25.95 67.25 21.7 67.25 17.55 67.25 14.5 70.2 14.45 70.2 14.45 70.25 11.5 73.3 11.5 77.45 11.5 81.65 14.5 84.65
L 14.5 84.7
Q 17.55 87.6 21.7 87.6 25.9 87.6 28.8 84.7 28.85 84.65 28.9 84.6 31.85 81.65 31.85 77.45 31.85 73.25 28.85 70.25
L 28.9 70.25
M 21.7 71.5
Q 24.15 71.5 25.85 73.2 27.6 75 27.6 77.45 27.6 79.9 25.85 81.6 24.15 83.35 21.7 83.35 19.25 83.35 17.45 81.6 15.75 79.9 15.75 77.45 15.75 75 17.45 73.2 19.25 71.5 21.7 71.5 Z"/>

<path fill="#4CB6E6" stroke="none" d="
M 15.75 128.8
Q 15.75 131.25 17.45 132.95 19.25 134.7 21.7 134.7 24.15 134.7 25.85 132.95 27.6 131.25 27.6 128.8 27.6 126.35 25.85 124.55 24.15 122.85 21.7 122.85 19.25 122.85 17.45 124.55 15.75 126.35 15.75 128.8
M 25.85 73.2
Q 24.15 71.5 21.7 71.5 19.25 71.5 17.45 73.2 15.75 75 15.75 77.45 15.75 79.9 17.45 81.6 19.25 83.35 21.7 83.35 24.15 83.35 25.85 81.6 27.6 79.9 27.6 77.45 27.6 75 25.85 73.2 Z"/>
</g>
</defs>

<g transform="matrix( 1, 0, 0, 1, 0,0) ">
<use xlink:href="#Layer0_0_FILL"/>
</g>
</svg>
