
<svg xmlns="http://www.w3.org/2000/svg" version="1.1" xmlns:xlink="http://www.w3.org/1999/xlink" preserveAspectRatio="none" x="0px" y="0px" width="1280px" height="720px" viewBox="0 0 1280 720">
<defs>
<g id="Layer1_0_FILL">
<path fill="#FFFFFF" stroke="none" d="
M 1134.75 457.3
L 1135.05 457.3 1128.45 448.4 1134.75 457.3
M 885.05 457.3
L 878.45 448.4 884.75 457.3 885.05 457.3 Z"/>
</g>

<g id="Layer1_0_STROKES_1_FILL">
<path fill="#E0A757" stroke="none" d="
M 999.75 453.65
Q 999.2634765625 453.742578125 998.95 454.15
L 997.15 456.55
Q 996.845703125 456.965234375 996.9 457.45 996.991796875 457.987109375 997.4 458.3 997.814453125 458.6048828125 998.3 458.5 998.836328125 458.4572265625 999.15 458.05
L 1000.95 455.65
Q 1001.2541015625 455.2345703125 1001.15 454.7 1001.1080078125 454.212890625 1000.7 453.9 1000.2853515625 453.5951171875 999.75 453.65
M 1003.9 448.05
Q 1003.4134765625 448.142578125 1003.1 448.55
L 1001.3 450.95
Q 1000.995703125 451.365234375 1001.05 451.85 1001.141796875 452.387109375 1001.55 452.7 1001.964453125 453.0048828125 1002.45 452.9 1002.986328125 452.8572265625 1003.3 452.45
L 1005.1 450.05
Q 1005.4041015625 449.6345703125 1005.3 449.1 1005.2580078125 448.612890625 1004.85 448.3 1004.4353515625 447.9951171875 1003.9 448.05
M 1007.2 442.95
L 1005.4 445.35
Q 1005.095703125 445.765234375 1005.15 446.25 1005.241796875 446.787109375 1005.65 447.1 1006.064453125 447.4048828125 1006.55 447.3 1007.086328125 447.2572265625 1007.4 446.85
L 1009.2 444.45
Q 1009.5041015625 444.0345703125 1009.4 443.5 1009.3580078125 443.012890625 1008.95 442.7 1008.5353515625 442.3951171875 1008 442.45 1007.5134765625 442.542578125 1007.2 442.95
M 1013.5 437.9
Q 1013.4580078125 437.412890625 1013.05 437.1 1012.6353515625 436.7951171875 1012.1 436.85 1011.6134765625 436.942578125 1011.3 437.35
L 1009.5 439.75
Q 1009.195703125 440.165234375 1009.25 440.65 1009.341796875 441.187109375 1009.75 441.5 1010.164453125 441.8048828125 1010.65 441.7 1011.186328125 441.6572265625 1011.5 441.25
L 1013.3 438.85
Q 1013.6041015625 438.4345703125 1013.5 437.9
M 1016.2 431.25
Q 1015.7134765625 431.342578125 1015.4 431.75
L 1013.6 434.15
Q 1013.295703125 434.565234375 1013.35 435.05 1013.441796875 435.587109375 1013.85 435.9 1014.264453125 436.2048828125 1014.75 436.1 1015.286328125 436.0572265625 1015.6 435.65
L 1017.4 433.25
Q 1017.7041015625 432.8345703125 1017.6 432.3 1017.5580078125 431.812890625 1017.15 431.5 1016.7353515625 431.1951171875 1016.2 431.25
M 1021.25 425.9
Q 1020.8353515625 425.5951171875 1020.3 425.65 1019.8134765625 425.742578125 1019.5 426.15
L 1017.7 428.55
Q 1017.395703125 428.965234375 1017.45 429.45 1017.541796875 429.987109375 1017.95 430.3 1018.364453125 430.6048828125 1018.85 430.5 1019.386328125 430.4572265625 1019.7 430.05
L 1021.5 427.65
Q 1021.8041015625 427.2345703125 1021.7 426.7 1021.6580078125 426.212890625 1021.25 425.9
M 1025.9 417.35
Q 1025.595703125 417.765234375 1025.65 418.25 1025.741796875 418.787109375 1026.15 419.1 1026.564453125 419.4048828125 1027.05 419.3 1027.586328125 419.2572265625 1027.9 418.85
L 1029.7 416.45
Q 1030.0041015625 416.0345703125 1029.9 415.5 1029.8580078125 415.012890625 1029.45 414.7 1029.0353515625 414.3951171875 1028.5 414.45 1028.0134765625 414.542578125 1027.7 414.95
L 1025.9 417.35
M 1024.4 420.05
Q 1023.9134765625 420.142578125 1023.6 420.55
L 1021.8 422.95
Q 1021.495703125 423.365234375 1021.55 423.85 1021.641796875 424.387109375 1022.05 424.7 1022.464453125 425.0048828125 1022.95 424.9 1023.486328125 424.8572265625 1023.8 424.45
L 1025.6 422.05
Q 1025.9041015625 421.6345703125 1025.8 421.1 1025.7580078125 420.612890625 1025.35 420.3 1024.9353515625 419.9951171875 1024.4 420.05
M 1034 409.85
Q 1033.9580078125 409.362890625 1033.55 409.05 1033.1353515625 408.7451171875 1032.6 408.8 1032.1134765625 408.892578125 1031.8 409.3
L 1030 411.7
Q 1029.695703125 412.115234375 1029.75 412.6 1029.841796875 413.137109375 1030.25 413.45 1030.664453125 413.7548828125 1031.15 413.65 1031.686328125 413.6072265625 1032 413.2
L 1033.8 410.8
Q 1034.1041015625 410.3845703125 1034 409.85
M 1036.7 403.2
Q 1036.2134765625 403.292578125 1035.9 403.7
L 1034.1 406.1
Q 1033.795703125 406.515234375 1033.85 407 1033.941796875 407.537109375 1034.35 407.85 1034.764453125 408.1548828125 1035.25 408.05 1035.786328125 408.0072265625 1036.1 407.6
L 1037.9 405.2
Q 1038.2041015625 404.7845703125 1038.1 404.25 1038.0580078125 403.762890625 1037.65 403.45 1037.2353515625 403.1451171875 1036.7 403.2
M 1041.75 397.75
Q 1041.3353515625 397.4451171875 1040.8 397.5 1040.3134765625 397.592578125 1040 398
L 1038.2 400.4
Q 1037.895703125 400.815234375 1037.95 401.3 1038.041796875 401.837109375 1038.45 402.15 1038.864453125 402.4548828125 1039.35 402.35 1039.886328125 402.3072265625 1040.2 401.9
L 1042 399.5
Q 1042.3041015625 399.0845703125 1042.2 398.55 1042.1580078125 398.062890625 1041.75 397.75
M 1129.65 448.55
Q 1129.7541015625 448.065234375 1129.45 447.65
L 1128.85 446.85
Q 1128.536328125 446.442578125 1128 446.35 1127.514453125 446.2951171875 1127.1 446.6 1126.691796875 446.912890625 1126.6 447.4 1126.545703125 447.9345703125 1126.85 448.35
L 1127.45 449.15
Q 1127.7634765625 449.5572265625 1128.25 449.6 1128.7853515625 449.7048828125 1129.2 449.4 1129.6080078125 449.087109375 1129.65 448.55
M 1122.6 441.8
Q 1122.5322265625 442.3048828125 1122.8 442.7
L 1124.5 445.1
Q 1124.834375 445.5423828125 1125.35 445.6 1125.8552734375 445.71875 1126.25 445.4 1126.6927734375 445.1166015625 1126.75 444.6 1126.8677734375 444.0951171875 1126.55 443.65
L 1124.85 441.25
Q 1124.565625 440.8576171875 1124.05 440.75 1123.5447265625 440.68125 1123.1 440.95 1122.7072265625 441.2833984375 1122.6 441.8
M 1122.55 437.95
L 1120.75 435.55
Q 1120.436328125 435.142578125 1119.9 435.05 1119.414453125 434.9951171875 1119 435.3 1118.591796875 435.612890625 1118.5 436.1 1118.445703125 436.6345703125 1118.75 437.05
L 1120.55 439.45
Q 1120.8634765625 439.8572265625 1121.35 439.9 1121.8853515625 440.0048828125 1122.3 439.7 1122.7080078125 439.387109375 1122.75 438.85 1122.8541015625 438.365234375 1122.55 437.95
M 1114.4 430.4
Q 1114.345703125 430.9345703125 1114.65 431.35
L 1116.45 433.75
Q 1116.7634765625 434.1572265625 1117.25 434.2 1117.7853515625 434.3048828125 1118.2 434 1118.6080078125 433.687109375 1118.65 433.15 1118.7541015625 432.665234375 1118.45 432.25
L 1116.65 429.85
Q 1116.336328125 429.442578125 1115.8 429.35 1115.314453125 429.2951171875 1114.9 429.6 1114.491796875 429.912890625 1114.4 430.4
M 1112.55 424.15
Q 1112.236328125 423.742578125 1111.7 423.65 1111.214453125 423.5951171875 1110.8 423.9 1110.391796875 424.212890625 1110.3 424.7 1110.245703125 425.2345703125 1110.55 425.65
L 1112.35 428.05
Q 1112.6634765625 428.4572265625 1113.15 428.5 1113.6853515625 428.6048828125 1114.1 428.3 1114.5080078125 427.987109375 1114.55 427.45 1114.6541015625 426.965234375 1114.35 426.55
L 1112.55 424.15
M 1106.3 419.1
Q 1106.2322265625 419.6048828125 1106.5 420
L 1108.2 422.4
Q 1108.534375 422.8423828125 1109.05 422.9 1109.5552734375 423.01875 1109.95 422.7 1110.3927734375 422.4166015625 1110.45 421.9 1110.5677734375 421.3951171875 1110.25 420.95
L 1108.55 418.55
Q 1108.265625 418.1576171875 1107.75 418.05 1107.2447265625 417.98125 1106.8 418.25 1106.4072265625 418.5833984375 1106.3 419.1
M 1102.2 413.4
Q 1102.145703125 413.9345703125 1102.45 414.35
L 1104.25 416.75
Q 1104.5634765625 417.1572265625 1105.05 417.2 1105.5853515625 417.3048828125 1106 417 1106.4080078125 416.687109375 1106.45 416.15 1106.5541015625 415.665234375 1106.25 415.25
L 1104.45 412.85
Q 1104.136328125 412.442578125 1103.6 412.35 1103.114453125 412.2951171875 1102.7 412.6 1102.291796875 412.912890625 1102.2 413.4
M 1099.5 406.65
Q 1099.014453125 406.5951171875 1098.6 406.9 1098.191796875 407.212890625 1098.1 407.7 1098.045703125 408.2345703125 1098.35 408.65
L 1100.15 411.05
Q 1100.4634765625 411.4572265625 1100.95 411.5 1101.4853515625 411.6048828125 1101.9 411.3 1102.3080078125 410.987109375 1102.35 410.45 1102.4541015625 409.965234375 1102.15 409.55
L 1100.35 407.15
Q 1100.036328125 406.742578125 1099.5 406.65
M 1096.3 401.55
Q 1096.015625 401.1576171875 1095.5 401.05 1094.9947265625 400.98125 1094.55 401.25 1094.1572265625 401.5833984375 1094.05 402.1 1093.9822265625 402.6048828125 1094.25 403
L 1096 405.4
Q 1096.334375 405.8423828125 1096.85 405.9 1097.3552734375 406.01875 1097.75 405.7 1098.1927734375 405.4166015625 1098.25 404.9 1098.3677734375 404.3951171875 1098.05 403.95
L 1096.3 401.55
M 750.7 453.9
Q 750.2853515625 453.5951171875 749.75 453.65 749.2634765625 453.742578125 748.95 454.15
L 747.15 456.55
Q 746.845703125 456.965234375 746.9 457.45 746.991796875 457.987109375 747.4 458.3 747.814453125 458.6048828125 748.3 458.5 748.836328125 458.4572265625 749.15 458.05
L 750.95 455.65
Q 751.2541015625 455.2345703125 751.15 454.7 751.1080078125 454.212890625 750.7 453.9
M 755.3 449.1
Q 755.2580078125 448.612890625 754.85 448.3 754.4353515625 447.9951171875 753.9 448.05 753.4134765625 448.142578125 753.1 448.55
L 751.3 450.95
Q 750.995703125 451.365234375 751.05 451.85 751.141796875 452.387109375 751.55 452.7 751.964453125 453.0048828125 752.45 452.9 752.986328125 452.8572265625 753.3 452.45
L 755.1 450.05
Q 755.4041015625 449.6345703125 755.3 449.1
M 762.1 436.85
Q 761.6134765625 436.942578125 761.3 437.35
L 759.5 439.75
Q 759.195703125 440.165234375 759.25 440.65 759.341796875 441.187109375 759.75 441.5 760.164453125 441.8048828125 760.65 441.7 761.186328125 441.6572265625 761.5 441.25
L 763.3 438.85
Q 763.6041015625 438.4345703125 763.5 437.9 763.4580078125 437.412890625 763.05 437.1 762.6353515625 436.7951171875 762.1 436.85
M 758 442.45
Q 757.5134765625 442.542578125 757.2 442.95
L 755.4 445.35
Q 755.095703125 445.765234375 755.15 446.25 755.241796875 446.787109375 755.65 447.1 756.064453125 447.4048828125 756.55 447.3 757.086328125 447.2572265625 757.4 446.85
L 759.2 444.45
Q 759.5041015625 444.0345703125 759.4 443.5 759.3580078125 443.012890625 758.95 442.7 758.5353515625 442.3951171875 758 442.45
M 766.2 431.25
Q 765.7134765625 431.342578125 765.4 431.75
L 763.6 434.15
Q 763.295703125 434.565234375 763.35 435.05 763.441796875 435.587109375 763.85 435.9 764.264453125 436.2048828125 764.75 436.1 765.286328125 436.0572265625 765.6 435.65
L 767.4 433.25
Q 767.7041015625 432.8345703125 767.6 432.3 767.5580078125 431.812890625 767.15 431.5 766.7353515625 431.1951171875 766.2 431.25
M 771.7 426.7
Q 771.6580078125 426.212890625 771.25 425.9 770.8353515625 425.5951171875 770.3 425.65 769.8134765625 425.742578125 769.5 426.15
L 767.7 428.55
Q 767.395703125 428.965234375 767.45 429.45 767.541796875 429.987109375 767.95 430.3 768.364453125 430.6048828125 768.85 430.5 769.386328125 430.4572265625 769.7 430.05
L 771.5 427.65
Q 771.8041015625 427.2345703125 771.7 426.7
M 783.55 409.05
Q 783.1353515625 408.7451171875 782.6 408.8 782.1134765625 408.892578125 781.8 409.3
L 780 411.7
Q 779.695703125 412.115234375 779.75 412.6 779.841796875 413.137109375 780.25 413.45 780.664453125 413.7548828125 781.15 413.65 781.686328125 413.6072265625 782 413.2
L 783.8 410.8
Q 784.1041015625 410.3845703125 784 409.85 783.9580078125 409.362890625 783.55 409.05
M 777.7 414.95
L 775.9 417.35
Q 775.595703125 417.765234375 775.65 418.25 775.741796875 418.787109375 776.15 419.1 776.564453125 419.4048828125 777.05 419.3 777.586328125 419.2572265625 777.9 418.85
L 779.7 416.45
Q 780.0041015625 416.0345703125 779.9 415.5 779.8580078125 415.012890625 779.45 414.7 779.0353515625 414.3951171875 778.5 414.45 778.0134765625 414.542578125 777.7 414.95
M 774.4 420.05
Q 773.9134765625 420.142578125 773.6 420.55
L 771.8 422.95
Q 771.495703125 423.365234375 771.55 423.85 771.641796875 424.387109375 772.05 424.7 772.464453125 425.0048828125 772.95 424.9 773.486328125 424.8572265625 773.8 424.45
L 775.6 422.05
Q 775.9041015625 421.6345703125 775.8 421.1 775.7580078125 420.612890625 775.35 420.3 774.9353515625 419.9951171875 774.4 420.05
M 783.85 407
Q 783.941796875 407.537109375 784.35 407.85 784.764453125 408.1548828125 785.25 408.05 785.786328125 408.0072265625 786.1 407.6
L 787.9 405.2
Q 788.2041015625 404.7845703125 788.1 404.25 788.0580078125 403.762890625 787.65 403.45 787.2353515625 403.1451171875 786.7 403.2 786.2134765625 403.292578125 785.9 403.7
L 784.1 406.1
Q 783.795703125 406.515234375 783.85 407
M 791.75 397.75
Q 791.3353515625 397.4451171875 790.8 397.5 790.3134765625 397.592578125 790 398
L 788.2 400.4
Q 787.895703125 400.815234375 787.95 401.3 788.041796875 401.837109375 788.45 402.15 788.864453125 402.4548828125 789.35 402.35 789.886328125 402.3072265625 790.2 401.9
L 792 399.5
Q 792.3041015625 399.0845703125 792.2 398.55 792.1580078125 398.062890625 791.75 397.75
M 879.65 448.55
Q 879.7541015625 448.065234375 879.45 447.65
L 878.85 446.85
Q 878.536328125 446.442578125 878 446.35 877.514453125 446.2951171875 877.1 446.6 876.691796875 446.912890625 876.6 447.4 876.545703125 447.9345703125 876.85 448.35
L 877.45 449.15
Q 877.7634765625 449.5572265625 878.25 449.6 878.7853515625 449.7048828125 879.2 449.4 879.6080078125 449.087109375 879.65 448.55
M 846.3 401.55
Q 846.015625 401.1576171875 845.5 401.05 844.9947265625 400.98125 844.55 401.25 844.1572265625 401.5833984375 844.05 402.1 843.9822265625 402.6048828125 844.25 403
L 846 405.4
Q 846.334375 405.8423828125 846.85 405.9 847.3552734375 406.01875 847.75 405.7 848.1927734375 405.4166015625 848.25 404.9 848.3677734375 404.3951171875 848.05 403.95
L 846.3 401.55
M 872.6 441.8
Q 872.5322265625 442.3048828125 872.8 442.7
L 874.5 445.1
Q 874.834375 445.5423828125 875.35 445.6 875.8552734375 445.71875 876.25 445.4 876.6927734375 445.1166015625 876.75 444.6 876.8677734375 444.0951171875 876.55 443.65
L 874.85 441.25
Q 874.565625 440.8576171875 874.05 440.75 873.5447265625 440.68125 873.1 440.95 872.7072265625 441.2833984375 872.6 441.8
M 868.75 437.05
L 870.55 439.45
Q 870.8634765625 439.8572265625 871.35 439.9 871.8853515625 440.0048828125 872.3 439.7 872.7080078125 439.387109375 872.75 438.85 872.8541015625 438.365234375 872.55 437.95
L 870.75 435.55
Q 870.436328125 435.142578125 869.9 435.05 869.414453125 434.9951171875 869 435.3 868.591796875 435.612890625 868.5 436.1 868.445703125 436.6345703125 868.75 437.05
M 864.9 429.6
Q 864.491796875 429.912890625 864.4 430.4 864.345703125 430.9345703125 864.65 431.35
L 866.45 433.75
Q 866.7634765625 434.1572265625 867.25 434.2 867.7853515625 434.3048828125 868.2 434 868.6080078125 433.687109375 868.65 433.15 868.7541015625 432.665234375 868.45 432.25
L 866.65 429.85
Q 866.336328125 429.442578125 865.8 429.35 865.314453125 429.2951171875 864.9 429.6
M 864.35 426.55
L 862.55 424.15
Q 862.236328125 423.742578125 861.7 423.65 861.214453125 423.5951171875 860.8 423.9 860.391796875 424.212890625 860.3 424.7 860.245703125 425.2345703125 860.55 425.65
L 862.35 428.05
Q 862.6634765625 428.4572265625 863.15 428.5 863.6853515625 428.6048828125 864.1 428.3 864.5080078125 427.987109375 864.55 427.45 864.6541015625 426.965234375 864.35 426.55
M 858.55 418.55
Q 858.265625 418.1576171875 857.75 418.05 857.2447265625 417.98125 856.8 418.25 856.4072265625 418.5833984375 856.3 419.1 856.2322265625 419.6048828125 856.5 420
L 858.2 422.4
Q 858.534375 422.8423828125 859.05 422.9 859.5552734375 423.01875 859.95 422.7 860.3927734375 422.4166015625 860.45 421.9 860.5677734375 421.3951171875 860.25 420.95
L 858.55 418.55
M 854.45 412.85
Q 854.136328125 412.442578125 853.6 412.35 853.114453125 412.2951171875 852.7 412.6 852.291796875 412.912890625 852.2 413.4 852.145703125 413.9345703125 852.45 414.35
L 854.25 416.75
Q 854.5634765625 417.1572265625 855.05 417.2 855.5853515625 417.3048828125 856 417 856.4080078125 416.687109375 856.45 416.15 856.5541015625 415.665234375 856.25 415.25
L 854.45 412.85
M 852.35 410.45
Q 852.4541015625 409.965234375 852.15 409.55
L 850.35 407.15
Q 850.036328125 406.742578125 849.5 406.65 849.014453125 406.5951171875 848.6 406.9 848.191796875 407.212890625 848.1 407.7 848.045703125 408.2345703125 848.35 408.65
L 850.15 411.05
Q 850.4634765625 411.4572265625 850.95 411.5 851.4853515625 411.6048828125 851.9 411.3 852.3080078125 410.987109375 852.35 410.45
M 921.85 329.75
Q 922.0978515625 329.3171875 921.95 328.8 921.78984375 328.3373046875 921.3 328.1 920.86796875 327.8521484375 920.35 328
L 917.45 328.9
Q 916.9880859375 329.06015625 916.75 329.5 916.501953125 329.9826171875 916.65 330.45 916.8099609375 330.9625 917.25 331.2 917.7318359375 331.4478515625 918.2 331.3
L 921.1 330.4
Q 921.61171875 330.23984375 921.85 329.75
M 928 326
Q 927.56796875 325.7521484375 927.05 325.9
L 924.15 326.8
Q 923.6880859375 326.96015625 923.45 327.4 923.201953125 327.8826171875 923.35 328.35 923.5099609375 328.8625 923.95 329.1 924.4318359375 329.3478515625 924.9 329.2
L 927.8 328.3
Q 928.31171875 328.13984375 928.55 327.65 928.7978515625 327.2171875 928.65 326.7 928.48984375 326.2373046875 928 326
M 897.2 337.5
Q 897.6818359375 337.7478515625 898.15 337.6
L 901 336.7
Q 901.51171875 336.53984375 901.75 336.05 901.9978515625 335.6171875 901.85 335.1 901.68984375 334.6373046875 901.2 334.4 900.76796875 334.1521484375 900.25 334.3
L 897.4 335.2
Q 896.9380859375 335.36015625 896.7 335.8 896.451953125 336.2826171875 896.6 336.75 896.7599609375 337.2625 897.2 337.5
M 909.95 332.55
Q 910.1099609375 333.0625 910.55 333.3 911.0318359375 333.5478515625 911.5 333.4
L 914.4 332.5
Q 914.91171875 332.33984375 915.15 331.85 915.3978515625 331.4171875 915.25 330.9 915.08984375 330.4373046875 914.6 330.2 914.16796875 329.9521484375 913.65 330.1
L 910.75 331
Q 910.2880859375 331.16015625 910.05 331.6 909.801953125 332.0826171875 909.95 332.55
M 906.95 332.2
L 904.05 333.1
Q 903.5880859375 333.26015625 903.35 333.7 903.101953125 334.1826171875 903.25 334.65 903.4099609375 335.1625 903.85 335.4 904.3318359375 335.6478515625 904.8 335.5
L 907.7 334.6
Q 908.21171875 334.43984375 908.45 333.95 908.6978515625 333.5171875 908.55 333 908.38984375 332.5373046875 907.9 332.3 907.46796875 332.0521484375 906.95 332.2
M 959.95 327.45
Q 959.71171875 327.01015625 959.2 326.85
L 956.3 325.95
Q 955.8318359375 325.8021484375 955.35 326.05 954.9099609375 326.2873046875 954.75 326.75 954.601953125 327.2671875 954.85 327.7 955.0880859375 328.18984375 955.55 328.35
L 958.45 329.25
Q 958.96796875 329.3978515625 959.4 329.15 959.88984375 328.9125 960.05 328.4 960.1978515625 327.9326171875 959.95 327.45
M 966.65 329.55
Q 966.41171875 329.11015625 965.9 328.95
L 963 328.05
Q 962.5318359375 327.9021484375 962.05 328.15 961.6099609375 328.3873046875 961.45 328.85 961.301953125 329.3671875 961.55 329.8 961.7880859375 330.28984375 962.25 330.45
L 965.15 331.35
Q 965.66796875 331.4978515625 966.1 331.25 966.58984375 331.0125 966.75 330.5 966.8978515625 330.0326171875 966.65 329.55
M 854 349.45
L 851.2 350.35
Q 850.7349609375 350.512109375 850.5 350.95 850.2517578125 351.43515625 850.4 351.9 850.5615234375 352.414453125 851 352.65 851.4857421875 352.8974609375 851.95 352.75
L 854.75 351.85
Q 855.2650390625 351.6876953125 855.5 351.2 855.748046875 350.76484375 855.6 350.25 855.43828125 349.785546875 854.95 349.55 854.5142578125 349.30234375 854 349.45
M 861.55 347.35
Q 861.1142578125 347.10234375 860.6 347.25
L 857.8 348.15
Q 857.3349609375 348.312109375 857.1 348.75 856.8517578125 349.23515625 857 349.7 857.1615234375 350.214453125 857.6 350.45 858.0857421875 350.6974609375 858.55 350.55
L 861.35 349.65
Q 861.8650390625 349.4876953125 862.1 349 862.348046875 348.56484375 862.2 348.05 862.03828125 347.585546875 861.55 347.35
M 841.35 395.4
Q 840.864453125 395.3451171875 840.45 395.65 840.041796875 395.962890625 839.95 396.45 839.895703125 396.9845703125 840.2 397.4
L 842 399.8
Q 842.3134765625 400.2072265625 842.8 400.25 843.3353515625 400.3548828125 843.75 400.05 844.1580078125 399.737109375 844.2 399.2 844.3041015625 398.715234375 844 398.3
L 842.2 395.9
Q 841.886328125 395.492578125 841.35 395.4
M 839.9 392.7
L 838.1 390.3
Q 837.786328125 389.892578125 837.25 389.8 836.764453125 389.7451171875 836.35 390.05 835.941796875 390.362890625 835.85 390.85 835.795703125 391.3845703125 836.1 391.8
L 837.9 394.2
Q 838.2134765625 394.6072265625 838.7 394.65 839.2353515625 394.7548828125 839.65 394.45 840.0580078125 394.137109375 840.1 393.6 840.2041015625 393.115234375 839.9 392.7
M 836 388
Q 836.1041015625 387.515234375 835.8 387.1
L 834 384.7
Q 833.686328125 384.292578125 833.15 384.2 832.664453125 384.1451171875 832.25 384.45 831.841796875 384.762890625 831.75 385.25 831.695703125 385.7845703125 832 386.2
L 833.8 388.6
Q 834.1134765625 389.0072265625 834.6 389.05 835.1353515625 389.1548828125 835.55 388.85 835.9580078125 388.537109375 836 388
M 827.9 380.6
L 829.7 383
Q 830.0134765625 383.4072265625 830.5 383.45 831.0353515625 383.5548828125 831.45 383.25 831.8580078125 382.937109375 831.9 382.4 832.0041015625 381.915234375 831.7 381.5
L 829.9 379.1
Q 829.586328125 378.692578125 829.05 378.6 828.564453125 378.5451171875 828.15 378.85 827.741796875 379.162890625 827.65 379.65 827.595703125 380.1845703125 827.9 380.6
M 827.8 376.8
Q 827.9041015625 376.315234375 827.6 375.9
L 825.8 373.5
Q 825.486328125 373.092578125 824.95 373 824.464453125 372.9451171875 824.05 373.25 823.641796875 373.562890625 823.55 374.05 823.495703125 374.5845703125 823.8 375
L 825.6 377.4
Q 825.9134765625 377.8072265625 826.4 377.85 826.9353515625 377.9548828125 827.35 377.65 827.7580078125 377.337109375 827.8 376.8
M 819.95 367.65
Q 819.541796875 367.962890625 819.45 368.45 819.395703125 368.9845703125 819.7 369.4
L 821.5 371.8
Q 821.8134765625 372.2072265625 822.3 372.25 822.8353515625 372.3548828125 823.25 372.05 823.6580078125 371.737109375 823.7 371.2 823.8041015625 370.715234375 823.5 370.3
L 821.7 367.9
Q 821.386328125 367.492578125 820.85 367.4 820.364453125 367.3451171875 819.95 367.65
M 818.1 361.25
Q 817.9650390625 361.3201171875 817.85 361.35
L 817.85 360.05
Q 817.8455078125 359.53671875 817.45 359.15 817.11328125 358.8044921875 816.6 358.8 816.08671875 358.8044921875 815.7 359.15 815.3544921875 359.53671875 815.35 360.05
L 815.35 361.3 813.15 360.65
Q 812.6818359375 360.5021484375 812.2 360.75 811.7599609375 360.9873046875 811.6 361.45 811.451953125 361.9671875 811.7 362.4 811.9380859375 362.88984375 812.4 363.05
L 814.8 363.8
Q 814.518359375 363.9162109375 814.3 364.2
L 812.5 366.6
Q 812.195703125 367.015234375 812.25 367.5 812.341796875 368.037109375 812.75 368.35 813.164453125 368.6548828125 813.65 368.55 814.186328125 368.5072265625 814.5 368.1
L 816.3 365.7
Q 816.519140625 365.4005859375 816.55 365.05
L 817.4 366.2
Q 817.7134765625 366.6072265625 818.2 366.65 818.7353515625 366.7548828125 819.15 366.45 819.5580078125 366.137109375 819.6 365.6 819.7041015625 365.115234375 819.4 364.7
L 818.65 363.7
Q 818.7701171875 363.6712890625 818.9 363.6
L 821.8 362.6
Q 822.29375 362.4599609375 822.5 362 822.7484375 361.5357421875 822.55 361.05 822.410546875 360.5572265625 821.95 360.3 821.484765625 360.1021484375 821 360.25
L 818.1 361.25
M 816.6 351.8
Q 816.08671875 351.8044921875 815.7 352.15 815.3544921875 352.53671875 815.35 353.05
L 815.35 356.05
Q 815.3544921875 356.56328125 815.7 356.9 816.08671875 357.2955078125 816.6 357.3 817.11328125 357.2955078125 817.45 356.9 817.8455078125 356.56328125 817.85 356.05
L 817.85 353.05
Q 817.8455078125 352.53671875 817.45 352.15 817.11328125 351.8044921875 816.6 351.8
M 828.55 358.25
Q 828.1142578125 358.00234375 827.6 358.15
L 824.8 359.05
Q 824.3349609375 359.212109375 824.1 359.65 823.8517578125 360.13515625 824 360.6 824.1615234375 361.114453125 824.6 361.35 825.0857421875 361.5974609375 825.55 361.45
L 828.35 360.55
Q 828.8650390625 360.3876953125 829.1 359.9 829.348046875 359.46484375 829.2 358.95 829.03828125 358.485546875 828.55 358.25
M 834.2 355.95
L 831.4 356.85
Q 830.9349609375 357.012109375 830.7 357.45 830.4517578125 357.93515625 830.6 358.4 830.7615234375 358.914453125 831.2 359.15 831.6857421875 359.3974609375 832.15 359.25
L 834.95 358.35
Q 835.4650390625 358.1876953125 835.7 357.7 835.948046875 357.26484375 835.8 356.75 835.63828125 356.285546875 835.15 356.05 834.7142578125 355.80234375 834.2 355.95
M 841.55 356.15
Q 842.0650390625 355.9876953125 842.3 355.5 842.548046875 355.06484375 842.4 354.55 842.23828125 354.085546875 841.75 353.85 841.3142578125 353.60234375 840.8 353.75
L 838 354.65
Q 837.5349609375 354.812109375 837.3 355.25 837.0517578125 355.73515625 837.2 356.2 837.3615234375 356.714453125 837.8 356.95 838.2857421875 357.1974609375 838.75 357.05
L 841.55 356.15
M 848.35 351.65
Q 847.9142578125 351.40234375 847.4 351.55
L 844.6 352.45
Q 844.1349609375 352.612109375 843.9 353.05 843.6517578125 353.53515625 843.8 354 843.9615234375 354.514453125 844.4 354.75 844.8857421875 354.9974609375 845.35 354.85
L 848.15 353.95
Q 848.6650390625 353.7876953125 848.9 353.3 849.148046875 352.86484375 849 352.35 848.83828125 351.885546875 848.35 351.65
M 817.85 346.05
Q 817.8455078125 345.53671875 817.45 345.15 817.11328125 344.8044921875 816.6 344.8 816.08671875 344.8044921875 815.7 345.15 815.3544921875 345.53671875 815.35 346.05
L 815.35 349.05
Q 815.3544921875 349.56328125 815.7 349.9 816.08671875 350.2955078125 816.6 350.3 817.11328125 350.2955078125 817.45 349.9 817.8455078125 349.56328125 817.85 349.05
L 817.85 346.05
M 815.7 338.15
Q 815.3544921875 338.53671875 815.35 339.05
L 815.35 342.05
Q 815.3544921875 342.56328125 815.7 342.9 816.08671875 343.2955078125 816.6 343.3 817.11328125 343.2955078125 817.45 342.9 817.8455078125 342.56328125 817.85 342.05
L 817.85 339.05
Q 817.8455078125 338.53671875 817.45 338.15 817.11328125 337.8044921875 816.6 337.8 816.08671875 337.8044921875 815.7 338.15
M 817.85 332.05
Q 817.8455078125 331.53671875 817.45 331.15 817.11328125 330.8044921875 816.6 330.8 816.08671875 330.8044921875 815.7 331.15 815.3544921875 331.53671875 815.35 332.05
L 815.35 335.05
Q 815.3544921875 335.56328125 815.7 335.9 816.08671875 336.2955078125 816.6 336.3 817.11328125 336.2955078125 817.45 335.9 817.8455078125 335.56328125 817.85 335.05
L 817.85 332.05
M 816.6 323.8
Q 816.08671875 323.8044921875 815.7 324.15 815.3544921875 324.53671875 815.35 325.05
L 815.35 328.05
Q 815.3544921875 328.56328125 815.7 328.9 816.08671875 329.2955078125 816.6 329.3 817.11328125 329.2955078125 817.45 328.9 817.8455078125 328.56328125 817.85 328.05
L 817.85 325.05
Q 817.8455078125 324.53671875 817.45 324.15 817.11328125 323.8044921875 816.6 323.8
M 815.7 317.15
Q 815.3544921875 317.53671875 815.35 318.05
L 815.35 321.05
Q 815.3544921875 321.56328125 815.7 321.9 816.08671875 322.2955078125 816.6 322.3 817.11328125 322.2955078125 817.45 321.9 817.8455078125 321.56328125 817.85 321.05
L 817.85 318.05
Q 817.8455078125 317.53671875 817.45 317.15 817.11328125 316.8044921875 816.6 316.8 816.08671875 316.8044921875 815.7 317.15
M 817.45 310.15
Q 817.11328125 309.8044921875 816.6 309.8 816.08671875 309.8044921875 815.7 310.15 815.3544921875 310.53671875 815.35 311.05
L 815.35 314.05
Q 815.3544921875 314.56328125 815.7 314.9 816.08671875 315.2955078125 816.6 315.3 817.11328125 315.2955078125 817.45 314.9 817.8455078125 314.56328125 817.85 314.05
L 817.85 311.05
Q 817.8455078125 310.53671875 817.45 310.15
M 817.45 303.15
Q 817.11328125 302.8044921875 816.6 302.8 816.08671875 302.8044921875 815.7 303.15 815.3544921875 303.53671875 815.35 304.05
L 815.35 307.05
Q 815.3544921875 307.56328125 815.7 307.9 816.08671875 308.2955078125 816.6 308.3 817.11328125 308.2955078125 817.45 307.9 817.8455078125 307.56328125 817.85 307.05
L 817.85 304.05
Q 817.8455078125 303.53671875 817.45 303.15
M 888.6 339.35
Q 888.43828125 338.885546875 887.95 338.65 887.5142578125 338.40234375 887 338.55
L 884.2 339.45
Q 883.7349609375 339.612109375 883.5 340.05 883.2517578125 340.53515625 883.4 341 883.5615234375 341.514453125 884 341.75 884.4857421875 341.9974609375 884.95 341.85
L 887.75 340.95
Q 888.2650390625 340.7876953125 888.5 340.3 888.748046875 339.86484375 888.6 339.35
M 890 338.85
Q 890.1615234375 339.364453125 890.6 339.6 891.0857421875 339.8474609375 891.55 339.7
L 894.35 338.8
Q 894.8650390625 338.6376953125 895.1 338.15 895.348046875 337.71484375 895.2 337.2 895.03828125 336.735546875 894.55 336.5 894.1142578125 336.25234375 893.6 336.4
L 890.8 337.3
Q 890.3349609375 337.462109375 890.1 337.9 889.8517578125 338.38515625 890 338.85
M 880.4 340.75
L 877.6 341.65
Q 877.1349609375 341.812109375 876.9 342.25 876.6517578125 342.73515625 876.8 343.2 876.9615234375 343.714453125 877.4 343.95 877.8857421875 344.1974609375 878.35 344.05
L 881.15 343.15
Q 881.6650390625 342.9876953125 881.9 342.5 882.148046875 342.06484375 882 341.55 881.83828125 341.085546875 881.35 340.85 880.9142578125 340.60234375 880.4 340.75
M 870.3 344.35
Q 870.0517578125 344.83515625 870.2 345.3 870.3615234375 345.814453125 870.8 346.05 871.2857421875 346.2974609375 871.75 346.15
L 874.55 345.25
Q 875.0650390625 345.0876953125 875.3 344.6 875.548046875 344.16484375 875.4 343.65 875.23828125 343.185546875 874.75 342.95 874.3142578125 342.70234375 873.8 342.85
L 871 343.75
Q 870.5349609375 343.912109375 870.3 344.35
M 867.2 345.05
L 864.4 345.95
Q 863.9349609375 346.112109375 863.7 346.55 863.4517578125 347.03515625 863.6 347.5 863.7615234375 348.014453125 864.2 348.25 864.6857421875 348.4974609375 865.15 348.35
L 867.95 347.45
Q 868.4650390625 347.2876953125 868.7 346.8 868.948046875 346.36484375 868.8 345.85 868.63828125 345.385546875 868.15 345.15 867.7142578125 344.90234375 867.2 345.05
M 817.45 296.15
Q 817.11328125 295.8044921875 816.6 295.8 816.08671875 295.8044921875 815.7 296.15 815.3544921875 296.53671875 815.35 297.05
L 815.35 300.05
Q 815.3544921875 300.56328125 815.7 300.9 816.08671875 301.2955078125 816.6 301.3 817.11328125 301.2955078125 817.45 300.9 817.8455078125 300.56328125 817.85 300.05
L 817.85 297.05
Q 817.8455078125 296.53671875 817.45 296.15
M 815.7 289.15
Q 815.3544921875 289.53671875 815.35 290.05
L 815.35 293.05
Q 815.3544921875 293.56328125 815.7 293.9 816.08671875 294.2955078125 816.6 294.3 817.11328125 294.2955078125 817.45 293.9 817.8455078125 293.56328125 817.85 293.05
L 817.85 290.05
Q 817.8455078125 289.53671875 817.45 289.15 817.11328125 288.8044921875 816.6 288.8 816.08671875 288.8044921875 815.7 289.15
M 817.85 283.05
Q 817.8455078125 282.53671875 817.45 282.15 817.11328125 281.8044921875 816.6 281.8 816.08671875 281.8044921875 815.7 282.15 815.3544921875 282.53671875 815.35 283.05
L 815.35 286.05
Q 815.3544921875 286.56328125 815.7 286.9 816.08671875 287.2955078125 816.6 287.3 817.11328125 287.2955078125 817.45 286.9 817.8455078125 286.56328125 817.85 286.05
L 817.85 283.05
M 816.6 274.8
Q 816.08671875 274.8044921875 815.7 275.15 815.3544921875 275.53671875 815.35 276.05
L 815.35 279.05
Q 815.3544921875 279.56328125 815.7 279.9 816.08671875 280.2955078125 816.6 280.3 817.11328125 280.2955078125 817.45 279.9 817.8455078125 279.56328125 817.85 279.05
L 817.85 276.05
Q 817.8455078125 275.53671875 817.45 275.15 817.11328125 274.8044921875 816.6 274.8
M 815.7 268.15
Q 815.3544921875 268.53671875 815.35 269.05
L 815.35 272.05
Q 815.3544921875 272.56328125 815.7 272.9 816.08671875 273.2955078125 816.6 273.3 817.11328125 273.2955078125 817.45 272.9 817.8455078125 272.56328125 817.85 272.05
L 817.85 269.05
Q 817.8455078125 268.53671875 817.45 268.15 817.11328125 267.8044921875 816.6 267.8 816.08671875 267.8044921875 815.7 268.15
M 816.6 260.8
Q 816.08671875 260.8044921875 815.7 261.15 815.3544921875 261.53671875 815.35 262.05
L 815.35 265.05
Q 815.3544921875 265.56328125 815.7 265.9 816.08671875 266.2955078125 816.6 266.3 817.11328125 266.2955078125 817.45 265.9 817.8455078125 265.56328125 817.85 265.05
L 817.85 262.05
Q 817.8455078125 261.53671875 817.45 261.15 817.11328125 260.8044921875 816.6 260.8
M 815.7 254.15
Q 815.3544921875 254.53671875 815.35 255.05
L 815.35 258.05
Q 815.3544921875 258.56328125 815.7 258.9 816.08671875 259.2955078125 816.6 259.3 817.11328125 259.2955078125 817.45 258.9 817.8455078125 258.56328125 817.85 258.05
L 817.85 255.05
Q 817.8455078125 254.53671875 817.45 254.15 817.11328125 253.8044921875 816.6 253.8 816.08671875 253.8044921875 815.7 254.15
M 816.6 246.8
Q 816.08671875 246.8044921875 815.7 247.15 815.3544921875 247.53671875 815.35 248.05
L 815.35 251.05
Q 815.3544921875 251.56328125 815.7 251.9 816.08671875 252.2955078125 816.6 252.3 817.11328125 252.2955078125 817.45 251.9 817.8455078125 251.56328125 817.85 251.05
L 817.85 248.05
Q 817.8455078125 247.53671875 817.45 247.15 817.11328125 246.8044921875 816.6 246.8
M 793.95 392.4
L 792.25 394.8
Q 791.9822265625 395.2451171875 792.05 395.75 792.1572265625 396.2666015625 792.55 396.55 792.9947265625 396.86875 793.5 396.75 794.015625 396.6923828125 794.3 396.25
L 796 393.85
Q 796.3177734375 393.4548828125 796.2 392.95 796.1427734375 392.4333984375 795.7 392.1 795.3052734375 391.83125 794.8 391.9 794.284375 392.0076171875 793.95 392.4
M 797.95 386.8
L 796.25 389.2
Q 795.9822265625 389.6451171875 796.05 390.15 796.1572265625 390.6666015625 796.55 390.95 796.9947265625 391.26875 797.5 391.15 798.015625 391.0923828125 798.3 390.65
L 800 388.25
Q 800.3177734375 387.8548828125 800.2 387.35 800.1427734375 386.8333984375 799.7 386.5 799.3052734375 386.23125 798.8 386.3 798.284375 386.4076171875 797.95 386.8
M 802.1 381.1
L 800.3 383.5
Q 799.995703125 383.915234375 800.05 384.4 800.141796875 384.937109375 800.55 385.25 800.964453125 385.5548828125 801.45 385.45 801.986328125 385.4072265625 802.3 385
L 804.1 382.6
Q 804.4041015625 382.1845703125 804.3 381.65 804.2580078125 381.162890625 803.85 380.85 803.4353515625 380.5451171875 802.9 380.6 802.4134765625 380.692578125 802.1 381.1
M 808.75 373.95
Q 809.1947265625 374.26875 809.7 374.15 810.215625 374.0923828125 810.5 373.65
L 812.2 371.25
Q 812.5177734375 370.8548828125 812.4 370.35 812.3427734375 369.8333984375 811.9 369.5 811.5052734375 369.23125 811 369.3 810.484375 369.4076171875 810.15 369.8
L 808.45 372.2
Q 808.1822265625 372.6451171875 808.25 373.15 808.3572265625 373.6666015625 808.75 373.95
M 807.95 375.25
Q 807.5353515625 374.9451171875 807 375 806.5134765625 375.092578125 806.2 375.5
L 804.4 377.9
Q 804.095703125 378.315234375 804.15 378.8 804.241796875 379.337109375 804.65 379.65 805.064453125 379.9548828125 805.55 379.85 806.086328125 379.8072265625 806.4 379.4
L 808.2 377
Q 808.5041015625 376.5845703125 808.4 376.05 808.3580078125 375.562890625 807.95 375.25
M 776.8 348.95
Q 776.56171875 348.51015625 776.05 348.35
L 773.15 347.45
Q 772.6818359375 347.3021484375 772.2 347.55 771.7599609375 347.7873046875 771.6 348.25 771.451953125 348.7671875 771.7 349.2 771.9380859375 349.68984375 772.4 349.85
L 775.3 350.75
Q 775.81796875 350.8978515625 776.25 350.65 776.73984375 350.4125 776.9 349.9 777.0478515625 349.4326171875 776.8 348.95
M 782.75 350.55
L 779.85 349.65
Q 779.3818359375 349.5021484375 778.9 349.75 778.4599609375 349.9873046875 778.3 350.45 778.151953125 350.9671875 778.4 351.4 778.6380859375 351.88984375 779.1 352.05
L 782 352.95
Q 782.51796875 353.0978515625 782.95 352.85 783.43984375 352.6125 783.6 352.1 783.7478515625 351.6326171875 783.5 351.15 783.26171875 350.71015625 782.75 350.55
M 790.3 354.3
Q 790.4478515625 353.8326171875 790.2 353.35 789.96171875 352.91015625 789.45 352.75
L 786.55 351.85
Q 786.0818359375 351.7021484375 785.6 351.95 785.1599609375 352.1873046875 785 352.65 784.851953125 353.1671875 785.1 353.6 785.3380859375 354.08984375 785.8 354.25
L 788.7 355.15
Q 789.21796875 355.2978515625 789.65 355.05 790.13984375 354.8125 790.3 354.3
M 791.8 355.8
Q 792.0349609375 356.2876953125 792.5 356.45
L 795.3 357.35
Q 795.8142578125 357.4974609375 796.25 357.25 796.73828125 357.014453125 796.9 356.5 797.048046875 356.03515625 796.8 355.55 796.5650390625 355.112109375 796.05 354.95
L 793.25 354.05
Q 792.7857421875 353.90234375 792.3 354.15 791.8615234375 354.385546875 791.7 354.85 791.5517578125 355.36484375 791.8 355.8
M 806.55 358.45
Q 806.0857421875 358.30234375 805.6 358.55 805.1615234375 358.785546875 805 359.25 804.8517578125 359.76484375 805.1 360.2 805.3349609375 360.6876953125 805.8 360.85
L 808.6 361.75
Q 809.1142578125 361.8974609375 809.55 361.65 810.03828125 361.414453125 810.2 360.9 810.348046875 360.43515625 810.1 359.95 809.8650390625 359.512109375 809.35 359.35
L 806.55 358.45
M 803.5 357.75
Q 803.26171875 357.31015625 802.75 357.15
L 799.85 356.25
Q 799.3818359375 356.1021484375 798.9 356.35 798.4599609375 356.5873046875 798.3 357.05 798.151953125 357.5671875 798.4 358 798.6380859375 358.48984375 799.1 358.65
L 802 359.55
Q 802.51796875 359.6978515625 802.95 359.45 803.43984375 359.2125 803.6 358.7 803.7478515625 358.2326171875 803.5 357.75
M 765.5 345.35
Q 765.0599609375 345.5873046875 764.9 346.05 764.751953125 346.5671875 765 347 765.2380859375 347.48984375 765.7 347.65
L 768.6 348.55
Q 769.11796875 348.6978515625 769.55 348.45 770.03984375 348.2125 770.2 347.7 770.3478515625 347.2326171875 770.1 346.75 769.86171875 346.31015625 769.35 346.15
L 766.45 345.25
Q 765.9818359375 345.1021484375 765.5 345.35
M 758.4 344.8
Q 758.6349609375 345.2876953125 759.1 345.45
L 761.9 346.35
Q 762.4142578125 346.4974609375 762.85 346.25 763.33828125 346.014453125 763.5 345.5 763.648046875 345.03515625 763.4 344.55 763.1650390625 344.112109375 762.65 343.95
L 759.85 343.05
Q 759.3857421875 342.90234375 758.9 343.15 758.4615234375 343.385546875 758.3 343.85 758.1517578125 344.36484375 758.4 344.8
M 753.15 340.85
Q 752.6818359375 340.7021484375 752.2 340.95 751.7599609375 341.1873046875 751.6 341.65 751.451953125 342.1671875 751.7 342.6 751.9380859375 343.08984375 752.4 343.25
L 755.3 344.15
Q 755.81796875 344.2978515625 756.25 344.05 756.73984375 343.8125 756.9 343.3 757.0478515625 342.8326171875 756.8 342.35 756.56171875 341.91015625 756.05 341.75
L 753.15 340.85
M 746.45 338.65
Q 745.9818359375 338.5021484375 745.5 338.75 745.0599609375 338.9873046875 744.9 339.45 744.751953125 339.9671875 745 340.4 745.2380859375 340.88984375 745.7 341.05
L 748.6 341.95
Q 749.11796875 342.0978515625 749.55 341.85 750.03984375 341.6125 750.2 341.1 750.3478515625 340.6326171875 750.1 340.15 749.86171875 339.71015625 749.35 339.55
L 746.45 338.65
M 736.7 335.85
Q 736.4650390625 335.412109375 735.95 335.25
L 733.1 334.35
Q 732.6357421875 334.20234375 732.15 334.45 731.7115234375 334.685546875 731.55 335.15 731.4017578125 335.66484375 731.65 336.1 731.8849609375 336.5876953125 732.35 336.75
L 735.2 337.65
Q 735.7142578125 337.7974609375 736.15 337.55 736.63828125 337.314453125 736.8 336.8 736.948046875 336.33515625 736.7 335.85
M 738.8 336.55
Q 738.3599609375 336.7873046875 738.2 337.25 738.051953125 337.7671875 738.3 338.2 738.5380859375 338.68984375 739 338.85
L 741.9 339.75
Q 742.41796875 339.8978515625 742.85 339.65 743.33984375 339.4125 743.5 338.9 743.6478515625 338.4326171875 743.4 337.95 743.16171875 337.51015625 742.65 337.35
L 739.75 336.45
Q 739.2818359375 336.3021484375 738.8 336.55
M 711.55 329.8
Q 711.7880859375 330.28984375 712.25 330.45
L 715.15 331.35
Q 715.66796875 331.4978515625 716.1 331.25 716.58984375 331.0125 716.75 330.5 716.8978515625 330.0326171875 716.65 329.55 716.41171875 329.11015625 715.9 328.95
L 713 328.05
Q 712.5318359375 327.9021484375 712.05 328.15 711.6099609375 328.3873046875 711.45 328.85 711.301953125 329.3671875 711.55 329.8
M 726.4 332.25
Q 725.9318359375 332.1021484375 725.45 332.35 725.0099609375 332.5873046875 724.85 333.05 724.701953125 333.5671875 724.95 334 725.1880859375 334.48984375 725.65 334.65
L 728.55 335.55
Q 729.06796875 335.6978515625 729.5 335.45 729.98984375 335.2125 730.15 334.7 730.2978515625 334.2326171875 730.05 333.75 729.81171875 333.31015625 729.3 333.15
L 726.4 332.25
M 722.6 331.05
L 719.7 330.15
Q 719.2318359375 330.0021484375 718.75 330.25 718.3099609375 330.4873046875 718.15 330.95 718.001953125 331.4671875 718.25 331.9 718.4880859375 332.38984375 718.95 332.55
L 721.85 333.45
Q 722.36796875 333.5978515625 722.8 333.35 723.28984375 333.1125 723.45 332.6 723.5978515625 332.1326171875 723.35 331.65 723.11171875 331.21015625 722.6 331.05
M 705.55 328.35
L 708.45 329.25
Q 708.96796875 329.3978515625 709.4 329.15 709.88984375 328.9125 710.05 328.4 710.1978515625 327.9326171875 709.95 327.45 709.71171875 327.01015625 709.2 326.85
L 706.3 325.95
Q 705.8318359375 325.8021484375 705.35 326.05 704.9099609375 326.2873046875 704.75 326.75 704.601953125 327.2671875 704.85 327.7 705.0880859375 328.18984375 705.55 328.35
M 1165.25 330.9
Q 1165.08984375 330.4373046875 1164.6 330.2 1164.16796875 329.9521484375 1163.65 330.1
L 1160.75 331
Q 1160.2880859375 331.16015625 1160.05 331.6 1159.801953125 332.0826171875 1159.95 332.55 1160.1099609375 333.0625 1160.55 333.3 1161.0318359375 333.5478515625 1161.5 333.4
L 1164.4 332.5
Q 1164.91171875 332.33984375 1165.15 331.85 1165.3978515625 331.4171875 1165.25 330.9
M 1166.65 330.45
Q 1166.8099609375 330.9625 1167.25 331.2 1167.7318359375 331.4478515625 1168.2 331.3
L 1171.1 330.4
Q 1171.61171875 330.23984375 1171.85 329.75 1172.0978515625 329.3171875 1171.95 328.8 1171.78984375 328.3373046875 1171.3 328.1 1170.86796875 327.8521484375 1170.35 328
L 1167.45 328.9
Q 1166.9880859375 329.06015625 1166.75 329.5 1166.501953125 329.9826171875 1166.65 330.45
M 1151.2 334.4
Q 1150.76796875 334.1521484375 1150.25 334.3
L 1147.4 335.2
Q 1146.9380859375 335.36015625 1146.7 335.8 1146.451953125 336.2826171875 1146.6 336.75 1146.7599609375 337.2625 1147.2 337.5 1147.6818359375 337.7478515625 1148.15 337.6
L 1151 336.7
Q 1151.51171875 336.53984375 1151.75 336.05 1151.9978515625 335.6171875 1151.85 335.1 1151.68984375 334.6373046875 1151.2 334.4
M 1140.6 339.6
Q 1141.0857421875 339.8474609375 1141.55 339.7
L 1144.35 338.8
Q 1144.8650390625 338.6376953125 1145.1 338.15 1145.348046875 337.71484375 1145.2 337.2 1145.03828125 336.735546875 1144.55 336.5 1144.1142578125 336.25234375 1143.6 336.4
L 1140.8 337.3
Q 1140.3349609375 337.462109375 1140.1 337.9 1139.8517578125 338.38515625 1140 338.85 1140.1615234375 339.364453125 1140.6 339.6
M 1154.05 333.1
Q 1153.5880859375 333.26015625 1153.35 333.7 1153.101953125 334.1826171875 1153.25 334.65 1153.4099609375 335.1625 1153.85 335.4 1154.3318359375 335.6478515625 1154.8 335.5
L 1157.7 334.6
Q 1158.21171875 334.43984375 1158.45 333.95 1158.6978515625 333.5171875 1158.55 333 1158.38984375 332.5373046875 1157.9 332.3 1157.46796875 332.0521484375 1156.95 332.2
L 1154.05 333.1
M 1178 326
Q 1177.56796875 325.7521484375 1177.05 325.9
L 1174.15 326.8
Q 1173.6880859375 326.96015625 1173.45 327.4 1173.201953125 327.8826171875 1173.35 328.35 1173.5099609375 328.8625 1173.95 329.1 1174.4318359375 329.3478515625 1174.9 329.2
L 1177.8 328.3
Q 1178.31171875 328.13984375 1178.55 327.65 1178.7978515625 327.2171875 1178.65 326.7 1178.48984375 326.2373046875 1178 326
M 1097.4 351.55
L 1094.6 352.45
Q 1094.1349609375 352.612109375 1093.9 353.05 1093.6517578125 353.53515625 1093.8 354 1093.9615234375 354.514453125 1094.4 354.75 1094.8857421875 354.9974609375 1095.35 354.85
L 1098.15 353.95
Q 1098.6650390625 353.7876953125 1098.9 353.3 1099.148046875 352.86484375 1099 352.35 1098.83828125 351.885546875 1098.35 351.65 1097.9142578125 351.40234375 1097.4 351.55
M 1104.95 349.55
Q 1104.5142578125 349.30234375 1104 349.45
L 1101.2 350.35
Q 1100.7349609375 350.512109375 1100.5 350.95 1100.2517578125 351.43515625 1100.4 351.9 1100.5615234375 352.414453125 1101 352.65 1101.4857421875 352.8974609375 1101.95 352.75
L 1104.75 351.85
Q 1105.2650390625 351.6876953125 1105.5 351.2 1105.748046875 350.76484375 1105.6 350.25 1105.43828125 349.785546875 1104.95 349.55
M 1111.35 349.65
Q 1111.8650390625 349.4876953125 1112.1 349 1112.348046875 348.56484375 1112.2 348.05 1112.03828125 347.585546875 1111.55 347.35 1111.1142578125 347.10234375 1110.6 347.25
L 1107.8 348.15
Q 1107.3349609375 348.312109375 1107.1 348.75 1106.8517578125 349.23515625 1107 349.7 1107.1615234375 350.214453125 1107.6 350.45 1108.0857421875 350.6974609375 1108.55 350.55
L 1111.35 349.65
M 1091.35 395.4
Q 1090.864453125 395.3451171875 1090.45 395.65 1090.041796875 395.962890625 1089.95 396.45 1089.895703125 396.9845703125 1090.2 397.4
L 1092 399.8
Q 1092.3134765625 400.2072265625 1092.8 400.25 1093.3353515625 400.3548828125 1093.75 400.05 1094.1580078125 399.737109375 1094.2 399.2 1094.3041015625 398.715234375 1094 398.3
L 1092.2 395.9
Q 1091.886328125 395.492578125 1091.35 395.4
M 1086.1 391.8
L 1087.9 394.2
Q 1088.2134765625 394.6072265625 1088.7 394.65 1089.2353515625 394.7548828125 1089.65 394.45 1090.0580078125 394.137109375 1090.1 393.6 1090.2041015625 393.115234375 1089.9 392.7
L 1088.1 390.3
Q 1087.786328125 389.892578125 1087.25 389.8 1086.764453125 389.7451171875 1086.35 390.05 1085.941796875 390.362890625 1085.85 390.85 1085.795703125 391.3845703125 1086.1 391.8
M 1081.75 385.25
Q 1081.695703125 385.7845703125 1082 386.2
L 1083.8 388.6
Q 1084.1134765625 389.0072265625 1084.6 389.05 1085.1353515625 389.1548828125 1085.55 388.85 1085.9580078125 388.537109375 1086 388 1086.1041015625 387.515234375 1085.8 387.1
L 1084 384.7
Q 1083.686328125 384.292578125 1083.15 384.2 1082.664453125 384.1451171875 1082.25 384.45 1081.841796875 384.762890625 1081.75 385.25
M 1078.15 378.85
Q 1077.741796875 379.162890625 1077.65 379.65 1077.595703125 380.1845703125 1077.9 380.6
L 1079.7 383
Q 1080.0134765625 383.4072265625 1080.5 383.45 1081.0353515625 383.5548828125 1081.45 383.25 1081.8580078125 382.937109375 1081.9 382.4 1082.0041015625 381.915234375 1081.7 381.5
L 1079.9 379.1
Q 1079.586328125 378.692578125 1079.05 378.6 1078.564453125 378.5451171875 1078.15 378.85
M 1077.8 376.8
Q 1077.9041015625 376.315234375 1077.6 375.9
L 1075.8 373.5
Q 1075.486328125 373.092578125 1074.95 373 1074.464453125 372.9451171875 1074.05 373.25 1073.641796875 373.562890625 1073.55 374.05 1073.495703125 374.5845703125 1073.8 375
L 1075.6 377.4
Q 1075.9134765625 377.8072265625 1076.4 377.85 1076.9353515625 377.9548828125 1077.35 377.65 1077.7580078125 377.337109375 1077.8 376.8
M 1058.2 377
Q 1058.5041015625 376.5845703125 1058.4 376.05 1058.3580078125 375.562890625 1057.95 375.25 1057.5353515625 374.9451171875 1057 375 1056.5134765625 375.092578125 1056.2 375.5
L 1054.4 377.9
Q 1054.095703125 378.315234375 1054.15 378.8 1054.241796875 379.337109375 1054.65 379.65 1055.064453125 379.9548828125 1055.55 379.85 1056.086328125 379.8072265625 1056.4 379.4
L 1058.2 377
M 1061 369.3
Q 1060.484375 369.4076171875 1060.15 369.8
L 1058.45 372.2
Q 1058.1822265625 372.6451171875 1058.25 373.15 1058.3572265625 373.6666015625 1058.75 373.95 1059.1947265625 374.26875 1059.7 374.15 1060.215625 374.0923828125 1060.5 373.65
L 1062.2 371.25
Q 1062.5177734375 370.8548828125 1062.4 370.35 1062.3427734375 369.8333984375 1061.9 369.5 1061.5052734375 369.23125 1061 369.3
M 1062.2 360.75
Q 1061.7599609375 360.9873046875 1061.6 361.45 1061.451953125 361.9671875 1061.7 362.4 1061.9380859375 362.88984375 1062.4 363.05
L 1064.8 363.8
Q 1064.518359375 363.9162109375 1064.3 364.2
L 1062.5 366.6
Q 1062.195703125 367.015234375 1062.25 367.5 1062.341796875 368.037109375 1062.75 368.35 1063.164453125 368.6548828125 1063.65 368.55 1064.186328125 368.5072265625 1064.5 368.1
L 1066.3 365.7
Q 1066.519140625 365.4005859375 1066.55 365.05
L 1067.4 366.2
Q 1067.7134765625 366.6072265625 1068.2 366.65 1068.7353515625 366.7548828125 1069.15 366.45 1069.5580078125 366.137109375 1069.6 365.6 1069.7041015625 365.115234375 1069.4 364.7
L 1068.65 363.7
Q 1068.7701171875 363.6712890625 1068.9 363.6
L 1071.8 362.6
Q 1072.29375 362.4599609375 1072.5 362 1072.7484375 361.5357421875 1072.55 361.05 1072.410546875 360.5572265625 1071.95 360.3 1071.484765625 360.1021484375 1071 360.25
L 1068.1 361.25
Q 1067.9650390625 361.3201171875 1067.85 361.35
L 1067.85 360.05
Q 1067.8455078125 359.53671875 1067.45 359.15 1067.11328125 358.8044921875 1066.6 358.8 1066.08671875 358.8044921875 1065.7 359.15 1065.3544921875 359.53671875 1065.35 360.05
L 1065.35 361.3 1063.15 360.65
Q 1062.6818359375 360.5021484375 1062.2 360.75
M 1056.55 358.45
Q 1056.0857421875 358.30234375 1055.6 358.55 1055.1615234375 358.785546875 1055 359.25 1054.8517578125 359.76484375 1055.1 360.2 1055.3349609375 360.6876953125 1055.8 360.85
L 1058.6 361.75
Q 1059.1142578125 361.8974609375 1059.55 361.65 1060.03828125 361.414453125 1060.2 360.9 1060.348046875 360.43515625 1060.1 359.95 1059.8650390625 359.512109375 1059.35 359.35
L 1056.55 358.45
M 1066.6 351.8
Q 1066.08671875 351.8044921875 1065.7 352.15 1065.3544921875 352.53671875 1065.35 353.05
L 1065.35 356.05
Q 1065.3544921875 356.56328125 1065.7 356.9 1066.08671875 357.2955078125 1066.6 357.3 1067.11328125 357.2955078125 1067.45 356.9 1067.8455078125 356.56328125 1067.85 356.05
L 1067.85 353.05
Q 1067.8455078125 352.53671875 1067.45 352.15 1067.11328125 351.8044921875 1066.6 351.8
M 1073.7 371.2
Q 1073.8041015625 370.715234375 1073.5 370.3
L 1071.7 367.9
Q 1071.386328125 367.492578125 1070.85 367.4 1070.364453125 367.3451171875 1069.95 367.65 1069.541796875 367.962890625 1069.45 368.45 1069.395703125 368.9845703125 1069.7 369.4
L 1071.5 371.8
Q 1071.8134765625 372.2072265625 1072.3 372.25 1072.8353515625 372.3548828125 1073.25 372.05 1073.6580078125 371.737109375 1073.7 371.2
M 1078.55 358.25
Q 1078.1142578125 358.00234375 1077.6 358.15
L 1074.8 359.05
Q 1074.3349609375 359.212109375 1074.1 359.65 1073.8517578125 360.13515625 1074 360.6 1074.1615234375 361.114453125 1074.6 361.35 1075.0857421875 361.5974609375 1075.55 361.45
L 1078.35 360.55
Q 1078.8650390625 360.3876953125 1079.1 359.9 1079.348046875 359.46484375 1079.2 358.95 1079.03828125 358.485546875 1078.55 358.25
M 1087.2 356.2
Q 1087.3615234375 356.714453125 1087.8 356.95 1088.2857421875 357.1974609375 1088.75 357.05
L 1091.55 356.15
Q 1092.0650390625 355.9876953125 1092.3 355.5 1092.548046875 355.06484375 1092.4 354.55 1092.23828125 354.085546875 1091.75 353.85 1091.3142578125 353.60234375 1090.8 353.75
L 1088 354.65
Q 1087.5349609375 354.812109375 1087.3 355.25 1087.0517578125 355.73515625 1087.2 356.2
M 1084.95 358.35
Q 1085.4650390625 358.1876953125 1085.7 357.7 1085.948046875 357.26484375 1085.8 356.75 1085.63828125 356.285546875 1085.15 356.05 1084.7142578125 355.80234375 1084.2 355.95
L 1081.4 356.85
Q 1080.9349609375 357.012109375 1080.7 357.45 1080.4517578125 357.93515625 1080.6 358.4 1080.7615234375 358.914453125 1081.2 359.15 1081.6857421875 359.3974609375 1082.15 359.25
L 1084.95 358.35
M 1067.85 346.05
Q 1067.8455078125 345.53671875 1067.45 345.15 1067.11328125 344.8044921875 1066.6 344.8 1066.08671875 344.8044921875 1065.7 345.15 1065.3544921875 345.53671875 1065.35 346.05
L 1065.35 349.05
Q 1065.3544921875 349.56328125 1065.7 349.9 1066.08671875 350.2955078125 1066.6 350.3 1067.11328125 350.2955078125 1067.45 349.9 1067.8455078125 349.56328125 1067.85 349.05
L 1067.85 346.05
M 1065.7 338.15
Q 1065.3544921875 338.53671875 1065.35 339.05
L 1065.35 342.05
Q 1065.3544921875 342.56328125 1065.7 342.9 1066.08671875 343.2955078125 1066.6 343.3 1067.11328125 343.2955078125 1067.45 342.9 1067.8455078125 342.56328125 1067.85 342.05
L 1067.85 339.05
Q 1067.8455078125 338.53671875 1067.45 338.15 1067.11328125 337.8044921875 1066.6 337.8 1066.08671875 337.8044921875 1065.7 338.15
M 1067.85 332.05
Q 1067.8455078125 331.53671875 1067.45 331.15 1067.11328125 330.8044921875 1066.6 330.8 1066.08671875 330.8044921875 1065.7 331.15 1065.3544921875 331.53671875 1065.35 332.05
L 1065.35 335.05
Q 1065.3544921875 335.56328125 1065.7 335.9 1066.08671875 336.2955078125 1066.6 336.3 1067.11328125 336.2955078125 1067.45 335.9 1067.8455078125 335.56328125 1067.85 335.05
L 1067.85 332.05
M 1066.6 323.8
Q 1066.08671875 323.8044921875 1065.7 324.15 1065.3544921875 324.53671875 1065.35 325.05
L 1065.35 328.05
Q 1065.3544921875 328.56328125 1065.7 328.9 1066.08671875 329.2955078125 1066.6 329.3 1067.11328125 329.2955078125 1067.45 328.9 1067.8455078125 328.56328125 1067.85 328.05
L 1067.85 325.05
Q 1067.8455078125 324.53671875 1067.45 324.15 1067.11328125 323.8044921875 1066.6 323.8
M 1065.7 317.15
Q 1065.3544921875 317.53671875 1065.35 318.05
L 1065.35 321.05
Q 1065.3544921875 321.56328125 1065.7 321.9 1066.08671875 322.2955078125 1066.6 322.3 1067.11328125 322.2955078125 1067.45 321.9 1067.8455078125 321.56328125 1067.85 321.05
L 1067.85 318.05
Q 1067.8455078125 317.53671875 1067.45 317.15 1067.11328125 316.8044921875 1066.6 316.8 1066.08671875 316.8044921875 1065.7 317.15
M 1067.85 311.05
Q 1067.8455078125 310.53671875 1067.45 310.15 1067.11328125 309.8044921875 1066.6 309.8 1066.08671875 309.8044921875 1065.7 310.15 1065.3544921875 310.53671875 1065.35 311.05
L 1065.35 314.05
Q 1065.3544921875 314.56328125 1065.7 314.9 1066.08671875 315.2955078125 1066.6 315.3 1067.11328125 315.2955078125 1067.45 314.9 1067.8455078125 314.56328125 1067.85 314.05
L 1067.85 311.05
M 1067.45 303.15
Q 1067.11328125 302.8044921875 1066.6 302.8 1066.08671875 302.8044921875 1065.7 303.15 1065.3544921875 303.53671875 1065.35 304.05
L 1065.35 307.05
Q 1065.3544921875 307.56328125 1065.7 307.9 1066.08671875 308.2955078125 1066.6 308.3 1067.11328125 308.2955078125 1067.45 307.9 1067.8455078125 307.56328125 1067.85 307.05
L 1067.85 304.05
Q 1067.8455078125 303.53671875 1067.45 303.15
M 1133.5 340.05
Q 1133.2517578125 340.53515625 1133.4 341 1133.5615234375 341.514453125 1134 341.75 1134.4857421875 341.9974609375 1134.95 341.85
L 1137.75 340.95
Q 1138.2650390625 340.7876953125 1138.5 340.3 1138.748046875 339.86484375 1138.6 339.35 1138.43828125 338.885546875 1137.95 338.65 1137.5142578125 338.40234375 1137 338.55
L 1134.2 339.45
Q 1133.7349609375 339.612109375 1133.5 340.05
M 1127.4 343.95
Q 1127.8857421875 344.1974609375 1128.35 344.05
L 1131.15 343.15
Q 1131.6650390625 342.9876953125 1131.9 342.5 1132.148046875 342.06484375 1132 341.55 1131.83828125 341.085546875 1131.35 340.85 1130.9142578125 340.60234375 1130.4 340.75
L 1127.6 341.65
Q 1127.1349609375 341.812109375 1126.9 342.25 1126.6517578125 342.73515625 1126.8 343.2 1126.9615234375 343.714453125 1127.4 343.95
M 1118.15 345.15
Q 1117.7142578125 344.90234375 1117.2 345.05
L 1114.4 345.95
Q 1113.9349609375 346.112109375 1113.7 346.55 1113.4517578125 347.03515625 1113.6 347.5 1113.7615234375 348.014453125 1114.2 348.25 1114.6857421875 348.4974609375 1115.15 348.35
L 1117.95 347.45
Q 1118.4650390625 347.2876953125 1118.7 346.8 1118.948046875 346.36484375 1118.8 345.85 1118.63828125 345.385546875 1118.15 345.15
M 1120.8 346.05
Q 1121.2857421875 346.2974609375 1121.75 346.15
L 1124.55 345.25
Q 1125.0650390625 345.0876953125 1125.3 344.6 1125.548046875 344.16484375 1125.4 343.65 1125.23828125 343.185546875 1124.75 342.95 1124.3142578125 342.70234375 1123.8 342.85
L 1121 343.75
Q 1120.5349609375 343.912109375 1120.3 344.35 1120.0517578125 344.83515625 1120.2 345.3 1120.3615234375 345.814453125 1120.8 346.05
M 1048.8 386.3
Q 1048.284375 386.4076171875 1047.95 386.8
L 1046.25 389.2
Q 1045.9822265625 389.6451171875 1046.05 390.15 1046.1572265625 390.6666015625 1046.55 390.95 1046.9947265625 391.26875 1047.5 391.15 1048.015625 391.0923828125 1048.3 390.65
L 1050 388.25
Q 1050.3177734375 387.8548828125 1050.2 387.35 1050.1427734375 386.8333984375 1049.7 386.5 1049.3052734375 386.23125 1048.8 386.3
M 1042.25 394.8
Q 1041.9822265625 395.2451171875 1042.05 395.75 1042.1572265625 396.2666015625 1042.55 396.55 1042.9947265625 396.86875 1043.5 396.75 1044.015625 396.6923828125 1044.3 396.25
L 1046 393.85
Q 1046.3177734375 393.4548828125 1046.2 392.95 1046.1427734375 392.4333984375 1045.7 392.1 1045.3052734375 391.83125 1044.8 391.9 1044.284375 392.0076171875 1043.95 392.4
L 1042.25 394.8
M 1052.1 381.1
L 1050.3 383.5
Q 1049.995703125 383.915234375 1050.05 384.4 1050.141796875 384.937109375 1050.55 385.25 1050.964453125 385.5548828125 1051.45 385.45 1051.986328125 385.4072265625 1052.3 385
L 1054.1 382.6
Q 1054.4041015625 382.1845703125 1054.3 381.65 1054.2580078125 381.162890625 1053.85 380.85 1053.4353515625 380.5451171875 1052.9 380.6 1052.4134765625 380.692578125 1052.1 381.1
M 1026.05 348.35
L 1023.15 347.45
Q 1022.6818359375 347.3021484375 1022.2 347.55 1021.7599609375 347.7873046875 1021.6 348.25 1021.451953125 348.7671875 1021.7 349.2 1021.9380859375 349.68984375 1022.4 349.85
L 1025.3 350.75
Q 1025.81796875 350.8978515625 1026.25 350.65 1026.73984375 350.4125 1026.9 349.9 1027.0478515625 349.4326171875 1026.8 348.95 1026.56171875 348.51015625 1026.05 348.35
M 1033.6 352.1
Q 1033.7478515625 351.6326171875 1033.5 351.15 1033.26171875 350.71015625 1032.75 350.55
L 1029.85 349.65
Q 1029.3818359375 349.5021484375 1028.9 349.75 1028.4599609375 349.9873046875 1028.3 350.45 1028.151953125 350.9671875 1028.4 351.4 1028.6380859375 351.88984375 1029.1 352.05
L 1032 352.95
Q 1032.51796875 353.0978515625 1032.95 352.85 1033.43984375 352.6125 1033.6 352.1
M 1035.6 351.95
Q 1035.1599609375 352.1873046875 1035 352.65 1034.851953125 353.1671875 1035.1 353.6 1035.3380859375 354.08984375 1035.8 354.25
L 1038.7 355.15
Q 1039.21796875 355.2978515625 1039.65 355.05 1040.13984375 354.8125 1040.3 354.3 1040.4478515625 353.8326171875 1040.2 353.35 1039.96171875 352.91015625 1039.45 352.75
L 1036.55 351.85
Q 1036.0818359375 351.7021484375 1035.6 351.95
M 1049.85 356.25
Q 1049.3818359375 356.1021484375 1048.9 356.35 1048.4599609375 356.5873046875 1048.3 357.05 1048.151953125 357.5671875 1048.4 358 1048.6380859375 358.48984375 1049.1 358.65
L 1052 359.55
Q 1052.51796875 359.6978515625 1052.95 359.45 1053.43984375 359.2125 1053.6 358.7 1053.7478515625 358.2326171875 1053.5 357.75 1053.26171875 357.31015625 1052.75 357.15
L 1049.85 356.25
M 1046.8 355.55
Q 1046.5650390625 355.112109375 1046.05 354.95
L 1043.25 354.05
Q 1042.7857421875 353.90234375 1042.3 354.15 1041.8615234375 354.385546875 1041.7 354.85 1041.5517578125 355.36484375 1041.8 355.8 1042.0349609375 356.2876953125 1042.5 356.45
L 1045.3 357.35
Q 1045.8142578125 357.4974609375 1046.25 357.25 1046.73828125 357.014453125 1046.9 356.5 1047.048046875 356.03515625 1046.8 355.55
M 1001.6 341.65
Q 1001.451953125 342.1671875 1001.7 342.6 1001.9380859375 343.08984375 1002.4 343.25
L 1005.3 344.15
Q 1005.81796875 344.2978515625 1006.25 344.05 1006.73984375 343.8125 1006.9 343.3 1007.0478515625 342.8326171875 1006.8 342.35 1006.56171875 341.91015625 1006.05 341.75
L 1003.15 340.85
Q 1002.6818359375 340.7021484375 1002.2 340.95 1001.7599609375 341.1873046875 1001.6 341.65
M 1000.1 340.15
Q 999.86171875 339.71015625 999.35 339.55
L 996.45 338.65
Q 995.9818359375 338.5021484375 995.5 338.75 995.0599609375 338.9873046875 994.9 339.45 994.751953125 339.9671875 995 340.4 995.2380859375 340.88984375 995.7 341.05
L 998.6 341.95
Q 999.11796875 342.0978515625 999.55 341.85 1000.03984375 341.6125 1000.2 341.1 1000.3478515625 340.6326171875 1000.1 340.15
M 988.3 338.2
Q 988.5380859375 338.68984375 989 338.85
L 991.9 339.75
Q 992.41796875 339.8978515625 992.85 339.65 993.33984375 339.4125 993.5 338.9 993.6478515625 338.4326171875 993.4 337.95 993.16171875 337.51015625 992.65 337.35
L 989.75 336.45
Q 989.2818359375 336.3021484375 988.8 336.55 988.3599609375 336.7873046875 988.2 337.25 988.051953125 337.7671875 988.3 338.2
M 981.55 335.15
Q 981.4017578125 335.66484375 981.65 336.1 981.8849609375 336.5876953125 982.35 336.75
L 985.2 337.65
Q 985.7142578125 337.7974609375 986.15 337.55 986.63828125 337.314453125 986.8 336.8 986.948046875 336.33515625 986.7 335.85 986.4650390625 335.412109375 985.95 335.25
L 983.1 334.35
Q 982.6357421875 334.20234375 982.15 334.45 981.7115234375 334.685546875 981.55 335.15
M 980.05 333.75
Q 979.81171875 333.31015625 979.3 333.15
L 976.4 332.25
Q 975.9318359375 332.1021484375 975.45 332.35 975.0099609375 332.5873046875 974.85 333.05 974.701953125 333.5671875 974.95 334 975.1880859375 334.48984375 975.65 334.65
L 978.55 335.55
Q 979.06796875 335.6978515625 979.5 335.45 979.98984375 335.2125 980.15 334.7 980.2978515625 334.2326171875 980.05 333.75
M 973.35 331.65
Q 973.11171875 331.21015625 972.6 331.05
L 969.7 330.15
Q 969.2318359375 330.0021484375 968.75 330.25 968.3099609375 330.4873046875 968.15 330.95 968.001953125 331.4671875 968.25 331.9 968.4880859375 332.38984375 968.95 332.55
L 971.85 333.45
Q 972.36796875 333.5978515625 972.8 333.35 973.28984375 333.1125 973.45 332.6 973.5978515625 332.1326171875 973.35 331.65
M 1015.5 345.35
Q 1015.0599609375 345.5873046875 1014.9 346.05 1014.751953125 346.5671875 1015 347 1015.2380859375 347.48984375 1015.7 347.65
L 1018.6 348.55
Q 1019.11796875 348.6978515625 1019.55 348.45 1020.03984375 348.2125 1020.2 347.7 1020.3478515625 347.2326171875 1020.1 346.75 1019.86171875 346.31015625 1019.35 346.15
L 1016.45 345.25
Q 1015.9818359375 345.1021484375 1015.5 345.35
M 1013.4 344.55
Q 1013.1650390625 344.112109375 1012.65 343.95
L 1009.85 343.05
Q 1009.3857421875 342.90234375 1008.9 343.15 1008.4615234375 343.385546875 1008.3 343.85 1008.1517578125 344.36484375 1008.4 344.8 1008.6349609375 345.2876953125 1009.1 345.45
L 1011.9 346.35
Q 1012.4142578125 346.4974609375 1012.85 346.25 1013.33828125 346.014453125 1013.5 345.5 1013.648046875 345.03515625 1013.4 344.55
M 1067.45 296.15
Q 1067.11328125 295.8044921875 1066.6 295.8 1066.08671875 295.8044921875 1065.7 296.15 1065.3544921875 296.53671875 1065.35 297.05
L 1065.35 300.05
Q 1065.3544921875 300.56328125 1065.7 300.9 1066.08671875 301.2955078125 1066.6 301.3 1067.11328125 301.2955078125 1067.45 300.9 1067.8455078125 300.56328125 1067.85 300.05
L 1067.85 297.05
Q 1067.8455078125 296.53671875 1067.45 296.15
M 1065.7 289.15
Q 1065.3544921875 289.53671875 1065.35 290.05
L 1065.35 293.05
Q 1065.3544921875 293.56328125 1065.7 293.9 1066.08671875 294.2955078125 1066.6 294.3 1067.11328125 294.2955078125 1067.45 293.9 1067.8455078125 293.56328125 1067.85 293.05
L 1067.85 290.05
Q 1067.8455078125 289.53671875 1067.45 289.15 1067.11328125 288.8044921875 1066.6 288.8 1066.08671875 288.8044921875 1065.7 289.15
M 1067.85 283.05
Q 1067.8455078125 282.53671875 1067.45 282.15 1067.11328125 281.8044921875 1066.6 281.8 1066.08671875 281.8044921875 1065.7 282.15 1065.3544921875 282.53671875 1065.35 283.05
L 1065.35 286.05
Q 1065.3544921875 286.56328125 1065.7 286.9 1066.08671875 287.2955078125 1066.6 287.3 1067.11328125 287.2955078125 1067.45 286.9 1067.8455078125 286.56328125 1067.85 286.05
L 1067.85 283.05
M 1066.6 274.8
Q 1066.08671875 274.8044921875 1065.7 275.15 1065.3544921875 275.53671875 1065.35 276.05
L 1065.35 279.05
Q 1065.3544921875 279.56328125 1065.7 279.9 1066.08671875 280.2955078125 1066.6 280.3 1067.11328125 280.2955078125 1067.45 279.9 1067.8455078125 279.56328125 1067.85 279.05
L 1067.85 276.05
Q 1067.8455078125 275.53671875 1067.45 275.15 1067.11328125 274.8044921875 1066.6 274.8
M 1065.7 268.15
Q 1065.3544921875 268.53671875 1065.35 269.05
L 1065.35 272.05
Q 1065.3544921875 272.56328125 1065.7 272.9 1066.08671875 273.2955078125 1066.6 273.3 1067.11328125 273.2955078125 1067.45 272.9 1067.8455078125 272.56328125 1067.85 272.05
L 1067.85 269.05
Q 1067.8455078125 268.53671875 1067.45 268.15 1067.11328125 267.8044921875 1066.6 267.8 1066.08671875 267.8044921875 1065.7 268.15
M 1066.6 260.8
Q 1066.08671875 260.8044921875 1065.7 261.15 1065.3544921875 261.53671875 1065.35 262.05
L 1065.35 265.05
Q 1065.3544921875 265.56328125 1065.7 265.9 1066.08671875 266.2955078125 1066.6 266.3 1067.11328125 266.2955078125 1067.45 265.9 1067.8455078125 265.56328125 1067.85 265.05
L 1067.85 262.05
Q 1067.8455078125 261.53671875 1067.45 261.15 1067.11328125 260.8044921875 1066.6 260.8
M 1066.6 253.8
Q 1066.08671875 253.8044921875 1065.7 254.15 1065.3544921875 254.53671875 1065.35 255.05
L 1065.35 258.05
Q 1065.3544921875 258.56328125 1065.7 258.9 1066.08671875 259.2955078125 1066.6 259.3 1067.11328125 259.2955078125 1067.45 258.9 1067.8455078125 258.56328125 1067.85 258.05
L 1067.85 255.05
Q 1067.8455078125 254.53671875 1067.45 254.15 1067.11328125 253.8044921875 1066.6 253.8
M 1066.6 246.8
Q 1066.08671875 246.8044921875 1065.7 247.15 1065.3544921875 247.53671875 1065.35 248.05
L 1065.35 251.05
Q 1065.3544921875 251.56328125 1065.7 251.9 1066.08671875 252.2955078125 1066.6 252.3 1067.11328125 252.2955078125 1067.45 251.9 1067.8455078125 251.56328125 1067.85 251.05
L 1067.85 248.05
Q 1067.8455078125 247.53671875 1067.45 247.15 1067.11328125 246.8044921875 1066.6 246.8 Z"/>
</g>

<path id="Layer1_0_1_STROKES" stroke="#E0A757" stroke-width="3" stroke-linejoin="miter" stroke-linecap="butt" stroke-miterlimit="10" fill="none" d="
M 1066.6 246.75
L 955.95 327.1 955.95 327.15 998.15 457.3
M 1066.6 246.75
L 1177.45 327.1
M 884.75 457.3
L 748.15 457.3 705.95 327.15 705.95 327.1 816.6 246.75 927.45 327.1 885.1 457.3 885.05 457.3 884.75 457.3 878.45 448.4 885.05 457.3
M 1135.05 457.3
L 1134.75 457.3 998.15 457.3
M 1177.45 327.1
L 1135.1 457.3 1135.05 457.3 1128.45 448.4 1134.75 457.3"/>
</defs>

<g transform="matrix( 1, 0, 0, 1, 0,0) ">
<use xlink:href="#Layer1_0_FILL"/>

<use xlink:href="#Layer1_0_1_STROKES"/>

<use xlink:href="#Layer1_0_STROKES_1_FILL"/>
</g>
</svg>
