
<svg xmlns="http://www.w3.org/2000/svg" version="1.1" xmlns:xlink="http://www.w3.org/1999/xlink" preserveAspectRatio="none" x="0px" y="0px" width="1280px" height="720px" viewBox="0 0 1280 720">
<defs>
<g id="Layer0_0_FILL">
<path fill="#7A94C2" stroke="none" d="
M 968 428.5
Q 968 418.5 958 418.5
L 912.95 418.5
Q 902.95 418.5 902.95 428.5
L 902.95 447.55
Q 902.95 457.55 912.95 457.55
L 958 457.55
Q 968 457.55 968 447.55
L 968 428.5
M 945.25 432.65
Q 945.25 432.9 945.25 433.1 945.2 433.3 945.15 433.5 945 433.9 944.35 433.9
L 942.45 433.9 942.45 436.35
Q 942.45 436.65 942.35 436.85 942.25 437.05 942.05 437.15 941.85 437.25 941.6 437.3 941.35 437.35 941.1 437.35 940.95 437.35 940.8 437.35 940.7 437.3 940.55 437.3 940.45 437.3 940.3 437.25 940.2 437.2 940.1 437.15 940 437.1 939.9 437 939.85 436.9 939.8 436.8 939.7 436.7 939.7 436.6 939.65 436.5 939.65 436.35
L 939.65 428.75
Q 939.65 428.6 939.7 428.5 939.7 428.35 939.8 428.25 939.85 428.15 939.9 428.1 940 428 940.1 427.95 940.2 427.9 940.3 427.85 940.45 427.85 940.55 427.8 940.7 427.8 940.8 427.75 940.95 427.75 941.1 427.75 941.35 427.75 941.6 427.8 941.85 427.85 942.05 427.95 942.45 428.15 942.45 428.75
L 942.45 431.4 944.35 431.4
Q 944.65 431.4 944.85 431.5 945.05 431.6 945.15 431.75 945.25 432.15 945.25 432.65
M 939.75 439.05
Q 940 438.9 940.25 438.85 940.45 438.75 940.75 438.75 940.8 438.75 940.95 438.8 941.05 438.8 941.2 438.85 941.45 438.95 941.7 439.05 941.8 439.1 941.85 439.2 941.95 439.25 942.05 439.35 942.15 439.45 942.2 439.55 942.2 439.7 942.2 439.8
L 942.2 445.35
Q 942.2 445.75 942.1 446.1 941.95 446.4 941.7 446.65 941.4 446.9 941.05 447 940.75 447.15 940.4 447.15
L 932.4 447.15
Q 931.95 447.15 931.65 447 931.35 446.9 931.2 446.65 930.95 446.4 930.9 446.1 930.8 445.75 930.8 445.35
L 930.8 439.8
Q 930.8 439.7 930.8 439.55 930.85 439.45 930.9 439.35 930.95 439.25 931.05 439.2 931.1 439.1 931.2 439.05 931.3 439 931.4 438.95 931.5 438.9 931.65 438.85 931.8 438.8 931.9 438.8 932.05 438.75 932.1 438.75 932.2 438.75 932.35 438.8 932.45 438.8 932.65 438.85 932.75 438.9 932.85 438.95 932.95 439 933.05 439.05 933.15 439.1 933.25 439.2 933.35 439.25 933.45 439.35 933.55 439.45 933.55 439.55 933.6 439.7 933.6 439.8
L 933.6 440.85 939.35 440.85 939.35 439.8
Q 939.35 439.55 939.45 439.35 939.55 439.2 939.75 439.05
M 937.3 429.2
Q 937.35 429.5 937.35 429.9 937.35 430.2 937.3 430.45 937.25 430.7 937.15 430.85 937.05 431 936.85 431.05 936.65 431.1 936.35 431.1
L 931.2 431.1 931.2 434
Q 931.2 434.32265625 931.2 434.45 931.95 434.45 932.7 434.4 933.5 434.4 934.3 434.3 935.1 434.25 935.85 434.15 936.6 434.1 937.35 433.95 937.45 433.95 937.55 433.95 937.7 433.95 937.8 433.95 937.95 433.95 938 433.95 938.1 434 938.2 434 938.2 434.05 938.3 434.15 938.3 434.2 938.4 434.3 938.45 434.4 938.45 434.55 938.5 434.7 938.55 434.9 938.65 435.25 938.65 435.5 938.65 435.75 938.55 435.95 938.3 436.3 937.65 436.35 936.85 436.5 936.05 436.6 935.25 436.7 934.45 436.75 933.65 436.85 932.85 436.9 932.05 436.95 931.2 437 930.8 437 930.45 436.95 930.15 436.95 929.9 436.95 929.65 436.9 929.4 436.85 929.2 436.8 929.05 436.65 928.8 436.55 928.7 436.4 928.55 436.25 928.5 436 928.35 435.55 928.35 434.75
L 928.35 430.95
Q 928.35 430.55 928.4 430.25 928.45 429.95 928.5 429.7 928.55 429.45 928.7 429.3 928.8 429.1 929.05 428.95 929.2 428.85 929.4 428.8 929.65 428.7 929.9 428.7 930.15 428.65 930.45 428.65 930.8 428.65 931.2 428.65
L 936.35 428.65
Q 936.65 428.65 936.85 428.7 937.05 428.75 937.15 428.85 937.25 428.95 937.3 429.2
M 933.6 443.6
L 933.6 444.5
Q 933.6 444.65 933.65 444.7 933.65 444.8 933.7 444.8 933.75 444.85 933.85 444.85 933.95 444.85 934.05 444.85
L 938.9 444.85
Q 939 444.85 939.05 444.85 939.15 444.85 939.2 444.8 939.25 444.8 939.3 444.7 939.35 444.65 939.35 444.5
L 939.35 443.6
Q 939.35 443.45 939.3 443.4 939.25 443.3 939.2 443.25 939.15 443.25 939.05 443.2 939 443.15 938.9 443.15
L 934.05 443.15
Q 933.95 443.15 933.85 443.2 933.75 443.25 933.7 443.25 933.65 443.3 933.65 443.4 933.6 443.45 933.6 443.6
M 300.95 418.5
Q 290.95 418.5 290.95 428.5
L 290.95 447.55
Q 290.95 457.55 300.95 457.55
L 346 457.55
Q 356 457.55 356 447.55
L 356 428.5
Q 356 418.5 346 418.5
L 300.95 418.5
M 318.55 432.45
Q 318.7 432.1 318.8 431.7 318.95 431.35 319 431 319.1 430.6 319.1 430.3
L 319.1 429.45
Q 319.1 429.3 319.1 429.2 319.15 429.1 319.2 428.95 319.25 428.9 319.35 428.8 319.4 428.75 319.55 428.65 319.65 428.6 319.8 428.6 319.9 428.55 320 428.5 320.1 428.5 320.25 428.5 320.35 428.5 320.5 428.5 320.75 428.5 321 428.55 321.25 428.6 321.45 428.7 321.65 428.8 321.75 428.95 321.85 429.15 321.85 429.45
L 321.9 430.3
Q 321.9 430.7 322 431.05 322.1 431.4 322.3 431.75 322.45 432.1 322.65 432.45 322.8 432.8 323 433.1 323.25 433.4 323.55 433.7 323.8 434 324.1 434.25 324.35 434.55 324.65 434.75 324.95 435 325.25 435.2 325.45 435.35 325.55 435.5 325.65 435.65 325.65 435.8 325.65 436 325.6 436.2 325.55 436.4 325.45 436.6 325.35 436.85 325.2 437 325.05 437.2 324.85 437.35 324.65 437.45 324.45 437.5 324.25 437.5 324.05 437.4 323.45 437.15 322.95 436.8 322.4 436.45 322 436 321.6 435.55 321.25 435.15 320.9 434.65 320.55 434.2 320.4 434.45 320.2 434.65 320 434.9 319.85 435.15 319.65 435.4 319.45 435.6 319.3 435.85 319.15 436.05 318.9 436.3 318.7 436.5 318.45 436.7 318.25 436.9 318.05 437.1 317.8 437.25 317.6 437.45 317.4 437.55 317.15 437.7 316.85 437.7 316.65 437.7 316.4 437.6 316.15 437.5 315.95 437.35 315.8 437.15 315.7 436.85 315.65 436.75 315.6 436.65 315.55 436.6 315.55 436.5 315.5 436.4 315.45 436.35 315.45 436.25 315.45 436.15 315.45 436.05 315.45 436 315.5 435.9 315.55 435.8 315.6 435.7 315.7 435.65 315.75 435.55 315.85 435.5 316.2 435.3 316.55 435 316.85 434.8 317.15 434.45 317.45 434.15 317.7 433.85 318 433.5 318.25 433.15 318.4 432.8 318.55 432.45
M 320.6 439.5
Q 320.75 439.4 321 439.4
L 329.45 439.4
Q 330.25 439.4 330.75 439.95 331 440.25 331.1 440.6 331.25 440.95 331.25 441.35
L 331.25 446.7
Q 331.25 446.8 331.2 446.9 331.15 447.05 331.05 447.1 330.95 447.2 330.85 447.3 330.75 447.35 330.65 447.45 330.55 447.5 330.45 447.55 330.35 447.6 330.2 447.65 330.05 447.7 329.95 447.7 329.8 447.75 329.7 447.75 329.45 447.75 329.25 447.65 329 447.6 328.8 447.45 328.45 447.15 328.45 446.7
L 328.45 441.85 321 441.85
Q 320.75 441.85 320.6 441.8 320.4 441.7 320.3 441.5 320.05 441.1 320.05 440.65 320.05 440.4 320.1 440.15 320.15 439.95 320.3 439.75 320.4 439.6 320.6 439.5
M 328.45 428.95
Q 328.45 428.35 328.8 428.15 329 428.05 329.25 428 329.45 427.95 329.75 427.95 329.85 427.95 330 428 330.15 428 330.3 428 330.45 428 330.55 428.05 330.65 428.1 330.75 428.15 330.9 428.2 331 428.25 331.1 428.35 331.15 428.45 331.2 428.5 331.25 428.65 331.3 428.8 331.3 428.95
L 331.3 437.2
Q 331.25 437.5 331.15 437.7 331.05 437.9 330.8 438 330.6 438.1 330.3 438.15 330.05 438.2 329.75 438.2 329.45 438.2 329.25 438.15 329 438.1 328.8 438 328.65 437.9 328.55 437.7 328.45 437.5 328.45 437.2
L 328.45 428.95 Z"/>

<path fill="#FFFFFF" stroke="none" d="
M 937.35 429.9
Q 937.35 429.5 937.3 429.2 937.25 428.95 937.15 428.85 937.05 428.75 936.85 428.7 936.65 428.65 936.35 428.65
L 931.2 428.65
Q 930.8 428.65 930.45 428.65 930.15 428.65 929.9 428.7 929.65 428.7 929.4 428.8 929.2 428.85 929.05 428.95 928.8 429.1 928.7 429.3 928.55 429.45 928.5 429.7 928.45 429.95 928.4 430.25 928.35 430.55 928.35 430.95
L 928.35 434.75
Q 928.35 435.55 928.5 436 928.55 436.25 928.7 436.4 928.8 436.55 929.05 436.65 929.2 436.8 929.4 436.85 929.65 436.9 929.9 436.95 930.15 436.95 930.45 436.95 930.8 437 931.2 437 932.05 436.95 932.85 436.9 933.65 436.85 934.45 436.75 935.25 436.7 936.05 436.6 936.85 436.5 937.65 436.35 938.3 436.3 938.55 435.95 938.65 435.75 938.65 435.5 938.65 435.25 938.55 434.9 938.5 434.7 938.45 434.55 938.45 434.4 938.4 434.3 938.3 434.2 938.3 434.15 938.2 434.05 938.2 434 938.1 434 938 433.95 937.95 433.95 937.8 433.95 937.7 433.95 937.55 433.95 937.45 433.95 937.35 433.95 936.6 434.1 935.85 434.15 935.1 434.25 934.3 434.3 933.5 434.4 932.7 434.4 931.95 434.45 931.2 434.45 931.2 434.32265625 931.2 434
L 931.2 431.1 936.35 431.1
Q 936.65 431.1 936.85 431.05 937.05 431 937.15 430.85 937.25 430.7 937.3 430.45 937.35 430.2 937.35 429.9
M 940.25 438.85
Q 940 438.9 939.75 439.05 939.55 439.2 939.45 439.35 939.35 439.55 939.35 439.8
L 939.35 440.85 933.6 440.85 933.6 439.8
Q 933.6 439.7 933.55 439.55 933.55 439.45 933.45 439.35 933.35 439.25 933.25 439.2 933.15 439.1 933.05 439.05 932.95 439 932.85 438.95 932.75 438.9 932.65 438.85 932.45 438.8 932.35 438.8 932.2 438.75 932.1 438.75 932.05 438.75 931.9 438.8 931.8 438.8 931.65 438.85 931.5 438.9 931.4 438.95 931.3 439 931.2 439.05 931.1 439.1 931.05 439.2 930.95 439.25 930.9 439.35 930.85 439.45 930.8 439.55 930.8 439.7 930.8 439.8
L 930.8 445.35
Q 930.8 445.75 930.9 446.1 930.95 446.4 931.2 446.65 931.35 446.9 931.65 447 931.95 447.15 932.4 447.15
L 940.4 447.15
Q 940.75 447.15 941.05 447 941.4 446.9 941.7 446.65 941.95 446.4 942.1 446.1 942.2 445.75 942.2 445.35
L 942.2 439.8
Q 942.2 439.7 942.2 439.55 942.15 439.45 942.05 439.35 941.95 439.25 941.85 439.2 941.8 439.1 941.7 439.05 941.45 438.95 941.2 438.85 941.05 438.8 940.95 438.8 940.8 438.75 940.75 438.75 940.45 438.75 940.25 438.85
M 933.6 444.5
L 933.6 443.6
Q 933.6 443.45 933.65 443.4 933.65 443.3 933.7 443.25 933.75 443.25 933.85 443.2 933.95 443.15 934.05 443.15
L 938.9 443.15
Q 939 443.15 939.05 443.2 939.15 443.25 939.2 443.25 939.25 443.3 939.3 443.4 939.35 443.45 939.35 443.6
L 939.35 444.5
Q 939.35 444.65 939.3 444.7 939.25 444.8 939.2 444.8 939.15 444.85 939.05 444.85 939 444.85 938.9 444.85
L 934.05 444.85
Q 933.95 444.85 933.85 444.85 933.75 444.85 933.7 444.8 933.65 444.8 933.65 444.7 933.6 444.65 933.6 444.5
M 945.25 433.1
Q 945.25 432.9 945.25 432.65 945.25 432.15 945.15 431.75 945.05 431.6 944.85 431.5 944.65 431.4 944.35 431.4
L 942.45 431.4 942.45 428.75
Q 942.45 428.15 942.05 427.95 941.85 427.85 941.6 427.8 941.35 427.75 941.1 427.75 940.95 427.75 940.8 427.75 940.7 427.8 940.55 427.8 940.45 427.85 940.3 427.85 940.2 427.9 940.1 427.95 940 428 939.9 428.1 939.85 428.15 939.8 428.25 939.7 428.35 939.7 428.5 939.65 428.6 939.65 428.75
L 939.65 436.35
Q 939.65 436.5 939.7 436.6 939.7 436.7 939.8 436.8 939.85 436.9 939.9 437 940 437.1 940.1 437.15 940.2 437.2 940.3 437.25 940.45 437.3 940.55 437.3 940.7 437.3 940.8 437.35 940.95 437.35 941.1 437.35 941.35 437.35 941.6 437.3 941.85 437.25 942.05 437.15 942.25 437.05 942.35 436.85 942.45 436.65 942.45 436.35
L 942.45 433.9 944.35 433.9
Q 945 433.9 945.15 433.5 945.2 433.3 945.25 433.1
M 328.8 428.15
Q 328.45 428.35 328.45 428.95
L 328.45 437.2
Q 328.45 437.5 328.55 437.7 328.65 437.9 328.8 438 329 438.1 329.25 438.15 329.45 438.2 329.75 438.2 330.05 438.2 330.3 438.15 330.6 438.1 330.8 438 331.05 437.9 331.15 437.7 331.25 437.5 331.3 437.2
L 331.3 428.95
Q 331.3 428.8 331.25 428.65 331.2 428.5 331.15 428.45 331.1 428.35 331 428.25 330.9 428.2 330.75 428.15 330.65 428.1 330.55 428.05 330.45 428 330.3 428 330.15 428 330 428 329.85 427.95 329.75 427.95 329.45 427.95 329.25 428 329 428.05 328.8 428.15
M 321 439.4
Q 320.75 439.4 320.6 439.5 320.4 439.6 320.3 439.75 320.15 439.95 320.1 440.15 320.05 440.4 320.05 440.65 320.05 441.1 320.3 441.5 320.4 441.7 320.6 441.8 320.75 441.85 321 441.85
L 328.45 441.85 328.45 446.7
Q 328.45 447.15 328.8 447.45 329 447.6 329.25 447.65 329.45 447.75 329.7 447.75 329.8 447.75 329.95 447.7 330.05 447.7 330.2 447.65 330.35 447.6 330.45 447.55 330.55 447.5 330.65 447.45 330.75 447.35 330.85 447.3 330.95 447.2 331.05 447.1 331.15 447.05 331.2 446.9 331.25 446.8 331.25 446.7
L 331.25 441.35
Q 331.25 440.95 331.1 440.6 331 440.25 330.75 439.95 330.25 439.4 329.45 439.4
L 321 439.4
M 318.8 431.7
Q 318.7 432.1 318.55 432.45 318.4 432.8 318.25 433.15 318 433.5 317.7 433.85 317.45 434.15 317.15 434.45 316.85 434.8 316.55 435 316.2 435.3 315.85 435.5 315.75 435.55 315.7 435.65 315.6 435.7 315.55 435.8 315.5 435.9 315.45 436 315.45 436.05 315.45 436.15 315.45 436.25 315.45 436.35 315.5 436.4 315.55 436.5 315.55 436.6 315.6 436.65 315.65 436.75 315.7 436.85 315.8 437.15 315.95 437.35 316.15 437.5 316.4 437.6 316.65 437.7 316.85 437.7 317.15 437.7 317.4 437.55 317.6 437.45 317.8 437.25 318.05 437.1 318.25 436.9 318.45 436.7 318.7 436.5 318.9 436.3 319.15 436.05 319.3 435.85 319.45 435.6 319.65 435.4 319.85 435.15 320 434.9 320.2 434.65 320.4 434.45 320.55 434.2 320.9 434.65 321.25 435.15 321.6 435.55 322 436 322.4 436.45 322.95 436.8 323.45 437.15 324.05 437.4 324.25 437.5 324.45 437.5 324.65 437.45 324.85 437.35 325.05 437.2 325.2 437 325.35 436.85 325.45 436.6 325.55 436.4 325.6 436.2 325.65 436 325.65 435.8 325.65 435.65 325.55 435.5 325.45 435.35 325.25 435.2 324.95 435 324.65 434.75 324.35 434.55 324.1 434.25 323.8 434 323.55 433.7 323.25 433.4 323 433.1 322.8 432.8 322.65 432.45 322.45 432.1 322.3 431.75 322.1 431.4 322 431.05 321.9 430.7 321.9 430.3
L 321.85 429.45
Q 321.85 429.15 321.75 428.95 321.65 428.8 321.45 428.7 321.25 428.6 321 428.55 320.75 428.5 320.5 428.5 320.35 428.5 320.25 428.5 320.1 428.5 320 428.5 319.9 428.55 319.8 428.6 319.65 428.6 319.55 428.65 319.4 428.75 319.35 428.8 319.25 428.9 319.2 428.95 319.15 429.1 319.1 429.2 319.1 429.3 319.1 429.45
L 319.1 430.3
Q 319.1 430.6 319 431 318.95 431.35 318.8 431.7 Z"/>

<path fill="#1E1E1E" stroke="none" d="
M 1186.3 423.7
Q 1186.3 423.55 1186.15 423.35 1186 423.25 1185.8 423.25
L 1182.2 423.25
Q 1182 423.25 1181.85 423.35 1181.7 423.55 1181.7 423.7
L 1181.7 452.9
Q 1181.7 453.1 1181.85 453.25 1182 453.4 1182.2 453.4
L 1196.65 453.4
Q 1196.85 453.4 1197 453.25 1197.15 453.1 1197.15 452.9
L 1197.15 449.7
Q 1197.15 449.2 1196.65 449.2
L 1186.3 449.2 1186.3 423.7 Z"/>
</g>

<path id="Layer0_0_1_STROKES" stroke="#CCCCCC" stroke-width="3" stroke-linejoin="round" stroke-linecap="round" fill="none" d="
M 976.8 462.6
L 1169.3 462.6
M 366.8 462.6
L 839.3 462.6"/>
</defs>

<g transform="matrix( 1, 0, 0, 1, 0,0) ">
<use xlink:href="#Layer0_0_FILL"/>

<use xlink:href="#Layer0_0_1_STROKES"/>
</g>
</svg>
