
<svg xmlns="http://www.w3.org/2000/svg" version="1.1" xmlns:xlink="http://www.w3.org/1999/xlink" preserveAspectRatio="none" x="0px" y="0px" width="1280px" height="70px" viewBox="0 0 1280 70">
<defs>
<g id="Layer0_0_FILL">
<path fill="#FFFFFF" stroke="none" d="
M 1138.65 50.05
L 1138.65 20
Q 1138.65 5 1123.65 5
L 993.65 5
Q 978.65 5 978.65 20
L 978.65 50.05
Q 978.65 65.05 993.65 65.05
L 1123.65 65.05
Q 1138.65 65.05 1138.65 50.05 Z"/>

<path fill="#1E1E1E" stroke="none" d="
M 1159.9 24.7
Q 1159.9 23.85 1159.55 23.05 1159.2 22.3 1158.6 21.65 1158 21.1 1157.2 20.75 1156.4 20.4 1155.5 20.4 1154.55 20.4 1153.8 20.75 1153 21.1 1152.45 21.65 1151.85 22.25 1151.5 23.05 1151.15 23.85 1151.15 24.7 1151.15 25.65 1151.5 26.4 1151.85 27.2 1152.45 27.8 1153.05 28.35 1153.85 28.7 1154.6 29.05 1155.55 29.05 1156.45 29.05 1157.25 28.7 1158.05 28.35 1158.65 27.75 1159.2 27.15 1159.55 26.4 1159.9 25.6 1159.9 24.7
M 1156.75 23.5
Q 1157.25 24.05 1157.25 24.7
L 1157.2 24.7
Q 1157.2 25.4 1156.7 25.95 1156.2 26.5 1155.5 26.5 1154.8 26.5 1154.3 25.95 1153.75 25.4 1153.75 24.7 1153.75 24.05 1154.3 23.5 1154.85 22.9 1155.55 22.9 1156.25 22.9 1156.75 23.5
M 1178.8 40.75
L 1174.9 40.75
Q 1174.5 44.15 1172.95 45.7 1171.4 47.2 1168.55 47.2 1165.05 47.2 1163.2 44.65 1161.4 42.1 1161.4 37.65 1161.4 35.4 1161.9 33.6 1162.4 31.85 1163.35 30.6 1164.35 29.4 1165.7 28.75 1167 28.1 1168.6 28.1 1170.95 28.1 1172.5 29.15 1174.1 30.3 1174.6 32.8
L 1178.45 32.8
Q 1178.15 30.7 1177.25 29.1 1176.4 27.5 1175.05 26.5 1173.7 25.5 1172.05 24.95 1170.4 24.5 1168.55 24.5 1166.05 24.5 1164 25.45 1161.95 26.45 1160.5 28.2 1159.05 29.95 1158.25 32.35 1157.45 34.8 1157.45 37.65 1157.45 40.6 1158.2 43 1159 45.45 1160.4 47.2 1161.85 48.9 1163.9 49.85 1165.95 50.85 1168.55 50.85 1170.65 50.85 1172.4 50.25 1174.15 49.65 1175.55 48.4 1176.9 47.1 1177.75 45.25 1178.55 43.35 1178.8 40.75 Z"/>
</g>

<path id="Layer0_0_1_STROKES" stroke="#DBDBDB" stroke-width="3" stroke-linejoin="round" stroke-linecap="round" fill="none" d="
M 993.65 5
L 1123.65 5
Q 1138.65 5 1138.65 20
L 1138.65 50.05
Q 1138.65 65.05 1123.65 65.05
L 993.65 65.05
Q 978.65 65.05 978.65 50.05
L 978.65 20
Q 978.65 5 993.65 5 Z"/>
</defs>

<g transform="matrix( 1, 0, 0, 1, 0,0) ">
<use xlink:href="#Layer0_0_FILL"/>

<use xlink:href="#Layer0_0_1_STROKES"/>
</g>
</svg>
