
<svg xmlns="http://www.w3.org/2000/svg" version="1.1" xmlns:xlink="http://www.w3.org/1999/xlink" preserveAspectRatio="none" x="0px" y="0px" width="1154px" height="460px" viewBox="0 0 1154 460">
<defs>
<g id="Layer0_0_FILL">
<path fill="#569ECC" stroke="none" d="
M 315.85 45.45
L 315.85 3.45 51.75 3.45 51.75 45.45
Q 51.75 55.8 59.05 63.1 66.4 70.45 76.75 70.45
L 290.85 70.45
Q 301.25 70.45 308.5 63.1 315.85 55.85 315.85 45.45 Z"/>

<path fill="#FFFFFF" stroke="none" d="
M 1150 28.45
Q 1150 18.1 1142.65 10.75 1135.35 3.45 1125 3.45
L 315.85 3.45 315.85 45.45
Q 315.85 55.85 308.5 63.1 301.25 70.45 290.85 70.45
L 76.75 70.45
Q 66.4 70.45 59.05 63.1 51.75 55.8 51.75 45.45
L 51.75 3.45 29 3.45
Q 18.7 3.45 11.3 10.75 4 18.15 4 28.45
L 4 431.6
Q 4 441.95 11.3 449.25 18.65 456.6 29 456.6
L 1125 456.6
Q 1135.4 456.6 1142.65 449.25 1150 442 1150 431.6
L 1150 28.45 Z"/>
</g>

<g id="Layer0_1_FILL">
<path fill="#FFFFFF" stroke="none" d="
M 273.25 22.3
Q 272.5 21.95 271.7 21.7 270.85 21.45 269.95 21.3 269.05 21.2 268.1 21.2 267.05 21.2 266.15 21.3 265.25 21.45 264.45 21.7 263.6 21.95 262.9 22.3 262.2 22.7 261.6 23.15 261 23.6 260.55 24.2 260.1 24.75 259.75 25.4 259.4 26.1 259.25 26.85 259.1 27.55 259.1 28.4 259.1 29.05 259.2 29.7 259.35 30.3 259.6 30.9 259.8 31.5 260.15 32.05 260.45 32.6 260.95 33.05 261.35 33.45 261.8 33.8 262.25 34.15 262.75 34.4 262.65 34.55 262.6 34.75 262.55 34.95 262.55 35.15
L 262.55 39.75 256.25 39.75
Q 255.85 39.75 255.55 39.85 255.3 40 255.15 40.2 255 40.45 254.95 40.75 254.85 41.05 254.85 41.35 254.85 41.7 254.95 41.95 255 42.2 255.15 42.45 255.3 42.7 255.55 42.8 255.85 42.9 256.25 42.9
L 279.8 42.9
Q 280.3 42.9 280.55 42.8 280.85 42.7 280.95 42.45 281.1 42.2 281.15 41.95 281.2 41.7 281.2 41.35 281.2 41.05 281.15 40.75 281.1 40.45 280.95 40.2 280.85 40 280.55 39.85 280.3 39.75 279.8 39.75
L 273.85 39.75 273.85 35.15
Q 273.85 34.85 273.75 34.6 273.7 34.4 273.55 34.25 273.8 34.1 274.05 33.95 274.35 33.8 274.6 33.6 275.85 32.65 276.45 31.35 277.1 30.05 277.1 28.4 277.1 26.75 276.45 25.4 276.15 24.75 275.65 24.2 275.2 23.6 274.6 23.15 274 22.7 273.25 22.3
M 265.8 24.65
Q 266.8 24.4 268.1 24.4 269.4 24.4 270.4 24.65 271.4 24.95 272.1 25.45 272.8 26.05 273.15 26.75 273.45 27.5 273.45 28.4 273.45 30.25 272.1 31.25 271.4 31.8 270.4 32.05 269.4 32.35 268.1 32.35 266.8 32.35 265.8 32.05 264.8 31.8 264.1 31.25 262.65 30.25 262.65 28.4 262.65 27.5 263 26.75 263.35 26.05 264.1 25.45 264.8 24.95 265.8 24.65
M 267.55 35.55
Q 267.8 35.6 268.15 35.6 268.65 35.55 269.15 35.5 269.65 35.45 270.1 35.4 270.2 35.4 270.3 35.4 270.4 35.35 270.55 35.35
L 270.55 39.75 265.95 39.75 265.95 35.45
Q 266.5 35.55 267 35.55 267.25 35.55 267.55 35.55
M 229.45 23.05
Q 229.35 23.35 229.35 23.7 229.35 24 229.45 24.25 229.55 24.5 229.7 24.7 229.9 24.95 230.15 25.05 230.35 25.15 230.65 25.15
L 233.1 25.15
Q 233.1 25.25 233.1 25.35 233.1 25.4 233.15 25.45 233.15 25.55 233.15 25.65 233.15 25.7 233.15 25.75 233.15 25.9 233.15 26 233.15 26.05 233.15 26.15 233.1 26.25 233.1 26.4 233.1 26.5 233.1 26.6 233 27.25 232.95 27.85 232.85 28.5 232.75 29.1 232.65 29.75 232.5 30.35 232.35 30.95 232.15 31.55 231.95 32.05 231.65 32.6 231.4 33.1 231.1 33.55 230.8 34.05 230.45 34.5 230.1 34.95 229.7 35.3 229.25 35.75 229.25 36.3 229.25 36.6 229.35 36.85 229.45 37.1 229.7 37.3 229.8 37.5 229.95 37.6 230.1 37.75 230.2 37.8 230.35 37.85 230.5 37.85 230.7 37.9 230.85 37.9 231.05 37.9 231.25 37.85 231.4 37.85 231.55 37.75 232.25 37.25 232.85 36.65 233.45 35.95 233.95 35.15 234.45 34.3 234.8 33.45 235.2 32.55 235.45 31.6 235.75 30.65 236 29.7 236.2 28.75 236.35 27.8 236.4 26.85 236.5 26 236.55 25.15 236.55 24.35 236.55 23.8 236.45 23.35 236.35 22.95 236.1 22.65 235.9 22.5 235.7 22.4 235.5 22.3 235.2 22.2 234.9 22.15 234.55 22.1 234.2 22.05 233.75 22.05
L 230.65 22.05
Q 230.35 22.05 230.1 22.2 229.85 22.3 229.7 22.55 229.5 22.8 229.45 23.05
M 243.75 22.7
Q 243.6 22.55 243.4 22.4 243.15 22.3 242.9 22.2 242.6 22.15 242.2 22.1 241.85 22.05 241.35 22.05
L 238.65 22.05
Q 238.3 22.05 238.05 22.15 237.85 22.25 237.7 22.5 237.55 22.75 237.5 23 237.4 23.3 237.4 23.55 237.4 23.85 237.45 24.15 237.55 24.45 237.7 24.7 237.9 25.25 238.65 25.25
L 240.5 25.25
Q 240.55 25.7 240.55 26.1 240.55 26.25 240.55 26.3 240.55 26.35 240.55 26.45 240.55 26.5 240.55 26.6 240.55 26.65 240.55 26.7 240.45 27.45 240.35 28.25 240.3 29 240.15 29.75 240.05 30.5 239.85 31.2 239.7 31.95 239.5 32.6 239.2 33.35 238.9 34 238.6 34.7 238.3 35.3 237.95 35.9 237.55 36.45 237.15 37 236.7 37.5 236.6 37.7 236.55 37.85 236.5 38 236.5 38.2 236.5 38.6 236.65 38.95 236.8 39.25 237.1 39.5 237.45 39.75 237.75 39.85 238.1 39.95 238.45 39.95 238.7 39.95 238.9 39.85 239.1 39.8 239.25 39.55 239.9 38.9 240.45 38.1 241 37.35 241.5 36.45 241.95 35.6 242.35 34.7 242.75 33.8 243 32.8 243.35 31.8 243.6 30.8 243.8 29.75 243.95 28.7 244.05 27.7 244.1 26.65 244.2 25.6 244.2 24.55 244.2 24.25 244.15 24 244.15 23.75 244.1 23.5 244.05 23.25 243.95 23.05 243.85 22.85 243.75 22.7
M 247.7 19.75
Q 247.5 19.9 247.35 20.15 247.25 20.4 247.25 20.8
L 247.25 46.55
Q 247.25 46.9 247.35 47.15 247.5 47.4 247.7 47.55 247.9 47.65 248.2 47.75 248.45 47.8 248.85 47.8 249.2 47.8 249.5 47.75 249.8 47.65 250.05 47.55 250.3 47.4 250.4 47.15 250.55 46.9 250.55 46.55
L 250.55 32.95 253.45 32.95
Q 253.8 32.95 254.1 32.8 254.35 32.7 254.55 32.45 254.7 32.2 254.8 31.9 254.9 31.65 254.9 31.3 254.9 31 254.8 30.7 254.7 30.45 254.55 30.2 254.2 29.75 253.45 29.75
L 250.55 29.75 250.55 20.8
Q 250.55 20.4 250.4 20.15 250.3 19.9 250.05 19.75 249.8 19.65 249.5 19.55 249.2 19.5 248.85 19.5 248.45 19.5 248.2 19.55 247.9 19.65 247.7 19.75
M 220.45 36.05
Q 220.05 35.95 219.45 35.95
L 207.05 35.95
Q 206.7 35.95 206.4 36.1 206.15 36.2 206 36.4 205.75 36.6 205.65 36.9 205.55 37.15 205.55 37.5 205.55 38.15 205.9 38.45 206.3 38.75 207.05 38.75
L 218.85 38.75
Q 218.95 38.9 219 39.05 219 39.15 219 39.3
L 219 39.55
Q 219 39.75 219 39.9 218.95 40 218.85 40.1
L 208.2 40.1
Q 207.6 40.1 207.15 40.2 206.7 40.35 206.35 40.55 206 40.75 205.8 41.15 205.6 41.55 205.6 42.1
L 205.6 42.3
Q 205.6 42.6 205.6 42.85 205.6 43.1 205.65 43.3 205.65 43.55 205.65 43.8 205.65 44.05 205.65 44.3 205.65 44.85 205.85 45.3 206.1 45.75 206.5 46.1 206.9 46.45 207.4 46.7 207.9 46.95 208.55 47.15 209.15 47.3 209.8 47.45 210.45 47.55 211.2 47.65 211.9 47.7 212.55 47.75 213.2 47.8 213.8 47.8 215.4 47.8 216.85 47.6 217.55 47.5 218.2 47.4 218.8 47.3 219.4 47.2 220.65 46.95 221.8 46.65 222.3 46.55 222.6 46.15 222.75 45.9 222.85 45.7 222.9 45.45 222.9 45.25 222.9 44.7 222.55 44.35 222.4 44.2 222.15 44.1 221.9 44.05 221.6 44.05 221.4 44.05 221.25 44.05 221.05 44.05 220.8 44.1 220.35 44.25 219.85 44.35 219.3 44.45 218.8 44.6 218.3 44.65 217.75 44.75 217.25 44.85 216.6 44.9 216 45 215.3 45 214.65 45.05 213.9 45.05 213.35 45.05 212.75 45 212.2 45 211.6 44.95 210.35 44.75 209.35 44.4 209.3 44.25 209.25 44.05 209.25 43.85 209.25 43.6
L 209.25 43.45
Q 209.25 43.35 209.25 43.3 209.25 43.2 209.25 43.1 209.25 43.05 209.3 42.95 209.3 42.9 209.35 42.8
L 219.45 42.8
Q 219.8 42.8 220.1 42.8 220.35 42.75 220.65 42.7 220.85 42.65 221.1 42.55 221.35 42.45 221.6 42.3 221.75 42.2 221.9 42 222.05 41.85 222.2 41.6 222.3 41.35 222.35 41.05 222.4 40.75 222.4 40.4
L 222.5 40.4
Q 222.5 39.3 222.4 38.45 222.35 38 222.25 37.65 222.15 37.35 222 37.05 221.75 36.55 221.2 36.25 220.9 36.1 220.45 36.05
M 207.3 20.1
Q 207.1 20.05 207 20.05 206.7 20.05 206.45 20.15 206.15 20.2 205.85 20.3 205.55 20.45 205.4 20.7 205.25 20.95 205.25 21.3
L 205.25 26
Q 205.25 26.85 205.4 27.45 205.55 28.05 205.85 28.4 206.1 28.8 206.5 29.1 206.85 29.35 207.3 29.45 208.15 29.7 209 29.85 209.8 30 210.6 30.1 211.05 30.2 211.45 30.25 211.85 30.25 212.25 30.25
L 212.25 31.55 201.9 31.55
Q 201.6 31.55 201.35 31.7 201.1 31.8 200.95 32 200.8 32.25 200.75 32.55 200.65 32.85 200.65 33.15 200.65 33.45 200.75 33.75 200.8 34 200.95 34.2 201.1 34.45 201.35 34.6 201.6 34.7 201.9 34.7
L 226.1 34.7
Q 226.5 34.7 226.75 34.6 227 34.45 227.2 34.2 227.3 34 227.4 33.75 227.5 33.45 227.5 33.15 227.5 32.85 227.4 32.55 227.3 32.25 227.2 32 226.85 31.55 226.1 31.55
L 215.85 31.55 215.85 30.25
Q 216.25 30.25 216.65 30.2 217 30.15 217.45 30.05 218.3 29.95 219.1 29.8 219.95 29.65 220.7 29.45 221.15 29.4 221.55 29.15 221.95 28.9 222.2 28.55 222.75 27.8 222.75 26.35
L 222.75 21.3
Q 222.75 21.15 222.65 21 222.6 20.85 222.55 20.7 222.4 20.6 222.3 20.5 222.2 20.4 222.05 20.3 221.8 20.2 221.5 20.15 221.35 20.1 221.15 20.1 221 20.05 220.85 20.05 220.6 20.05 220.35 20.15 220.05 20.2 219.75 20.3 219.45 20.45 219.3 20.7 219.15 20.95 219.15 21.3
L 219.15 22.2 208.8 22.2 208.8 21.3
Q 208.8 21.15 208.75 21 208.7 20.85 208.6 20.7 208.5 20.6 208.4 20.5 208.3 20.4 208.15 20.3 207.95 20.2 207.6 20.15 207.45 20.1 207.3 20.1
M 219.15 25.05
L 219.15 26.25 219.05 26.35
Q 218.95 26.4 218.8 26.45 218.45 26.65 217.9 26.7 217.55 26.8 217.1 26.85 216.7 26.95 216.25 26.95 215.75 27.05 215.15 27.05 214.5 27.1 213.8 27.1 213.2 27.1 212.65 27.05 212.05 27.05 211.4 26.95 210.75 26.85 210.15 26.75 209.5 26.65 208.9 26.45 208.85 26.35 208.85 26.3 208.85 26.2 208.85 26.1 208.85 26 208.8 25.95 208.8 25.85 208.8 25.75
L 208.8 25.05 219.15 25.05
M 196.05 20.7
Q 196.05 20.3 195.9 20.05 195.75 19.8 195.5 19.65 195.2 19.55 194.9 19.45 194.6 19.4 194.35 19.4 193.95 19.4 193.65 19.45 193.3 19.55 193.05 19.65 192.75 19.8 192.6 20.05 192.45 20.3 192.45 20.7
L 192.45 46.55
Q 192.45 46.9 192.6 47.15 192.75 47.4 193.05 47.5 193.3 47.65 193.65 47.75 193.95 47.8 194.35 47.8 194.9 47.8 195.5 47.5 196.05 47.25 196.05 46.55
L 196.05 32.95 199.35 32.95
Q 199.7 32.95 199.95 32.85 200.2 32.75 200.35 32.5 200.45 32.25 200.5 32 200.55 31.7 200.55 31.4 200.55 31.05 200.5 30.8 200.45 30.5 200.35 30.25 200.05 29.8 199.35 29.8
L 196.05 29.8 196.05 20.7
M 186.35 24.05
Q 185.95 23.45 185.45 23.05 184.9 22.6 184.3 22.25 183.6 21.95 182.9 21.8 182.15 21.65 181.35 21.65 179.8 21.65 178.55 22.25 177.25 22.9 176.3 24.05 175.4 25.3 174.95 26.95 174.75 27.8 174.6 28.75 174.5 29.7 174.5 30.75 174.5 31.85 174.6 32.75 174.75 33.75 174.95 34.55 175.2 35.4 175.5 36.1 175.85 36.85 176.3 37.4 176.8 38 177.35 38.45 177.9 38.9 178.55 39.15 179.8 39.8 181.35 39.8 182.15 39.8 182.9 39.65 183.6 39.5 184.3 39.15 184.9 38.9 185.45 38.45 185.95 38 186.35 37.4 186.85 36.85 187.2 36.1 187.55 35.4 187.8 34.55 188.05 33.75 188.15 32.75 188.3 31.85 188.3 30.75 188.3 29.7 188.15 28.75 188.05 27.8 187.8 26.95 187.3 25.3 186.35 24.05
M 179.9 25.15
Q 180.55 24.8 181.35 24.8 182.25 24.8 182.9 25.15 183.55 25.55 184.05 26.35 184.5 27.15 184.75 28.25 184.95 29.35 184.95 30.75 184.95 32.15 184.75 33.25 184.5 34.35 184.05 35.1 183.55 35.9 182.9 36.25 182.25 36.65 181.35 36.65 180.55 36.65 179.9 36.25 179.2 35.9 178.75 35.1 178.2 34.35 177.95 33.25 177.7 32.15 177.7 30.75 177.7 29.35 177.95 28.25 178.2 27.15 178.75 26.35 179.2 25.55 179.9 25.15
M 151.85 20.65
Q 151.2 20.85 150.65 21.15 150.1 21.45 149.65 21.9 149.2 22.3 148.85 22.85 148.55 23.35 148.3 23.9 148.05 24.5 147.9 25.15 147.8 25.8 147.8 26.55 147.8 27.25 147.9 27.95 148.05 28.55 148.3 29.15 148.75 30.35 149.65 31.15 150.1 31.55 150.65 31.9 151.2 32.2 151.85 32.4 153.1 32.85 154.8 32.85 155.6 32.85 156.35 32.75 157.1 32.65 157.75 32.4 158.4 32.2 158.95 31.9 159.5 31.55 159.95 31.15 160.8 30.35 161.35 29.15 161.55 28.55 161.7 27.95 161.8 27.25 161.8 26.55 161.8 25.8 161.7 25.15 161.55 24.5 161.35 23.9 161.05 23.35 160.7 22.85 160.4 22.3 159.95 21.9 159.5 21.45 158.95 21.15 158.4 20.85 157.75 20.65 157.1 20.45 156.35 20.3 155.6 20.2 154.8 20.2 153.95 20.2 153.2 20.3 152.45 20.45 151.85 20.65
M 154.85 23.35
Q 155.7 23.35 156.4 23.55 157.05 23.75 157.6 24.15 158.05 24.6 158.35 25.2 158.6 25.8 158.6 26.55 158.6 27.3 158.35 27.9 158.05 28.45 157.6 28.85 157.05 29.3 156.4 29.5 155.7 29.75 154.85 29.75 153.95 29.75 153.25 29.5 152.55 29.3 152.05 28.85 151.55 28.45 151.3 27.9 151.05 27.3 151.05 26.55 151.05 25.8 151.3 25.2 151.55 24.6 152.05 24.15 153.05 23.35 154.85 23.35
M 168.15 35
Q 167.7 34.7 167.15 34.5 166.6 34.35 166 34.35
L 154.25 34.35
Q 153.55 34.35 153.2 34.8 152.95 35.05 152.85 35.3 152.75 35.6 152.75 35.9 152.75 36.25 152.85 36.5 152.95 36.8 153.2 37 153.55 37.45 154.25 37.45
L 165.25 37.45
Q 165.3 37.55 165.3 37.6 165.3 37.7 165.35 37.75 165.35 37.85 165.35 37.9 165.35 38 165.35 38.1
L 165.35 38.35
Q 165.35 38.55 165.3 38.7 165.3 38.85 165.25 39.05
L 155.8 39.05
Q 155.55 39.05 155.25 39.05 155 39.05 154.7 39.1 154.4 39.15 154.15 39.25 153.9 39.35 153.75 39.45 153.55 39.6 153.35 39.75 153.2 39.95 153.05 40.15 152.95 40.35 152.9 40.65 152.85 40.9 152.85 41.25 152.85 41.6 152.85 41.95 152.85 42.3 152.85 42.6 152.85 43.3 152.85 44.05 152.85 45 153.3 45.65 153.5 45.95 153.95 46.25 154.4 46.55 155.05 46.85 155.8 47.05 156.5 47.2 157.25 47.35 158 47.45 158.75 47.55 159.45 47.6 160.15 47.65 160.8 47.65 161.65 47.65 162.4 47.65 163.15 47.6 163.85 47.5 165.2 47.35 166.2 47.15 166.75 47.05 167.3 46.9 167.8 46.8 168.25 46.65 168.55 46.6 168.75 46.45 169 46.3 169.15 46.05 169.25 45.85 169.3 45.6 169.35 45.35 169.35 45.1 169.35 44.65 169.3 44.35 169.2 44.05 169.05 43.9 168.85 43.75 168.6 43.65 168.35 43.55 168.05 43.55 167.8 43.55 167.35 43.65
L 167.2 43.7
Q 167.1 43.75 166.85 43.75 166.6 43.85 166.25 43.9 165.9 44 165.45 44.05 165.05 44.1 164.5 44.2 164 44.25 163.45 44.3 162.85 44.35 162.2 44.4 161.55 44.45 160.8 44.45 160.3 44.45 159.8 44.4 159.25 44.35 158.7 44.3 158.15 44.2 157.6 44.05 157.1 43.95 156.6 43.75 156.55 43.7 156.55 43.6 156.5 43.5 156.5 43.4 156.45 43.3 156.45 43.2 156.45 43.1 156.45 42.95
L 156.45 42.65
Q 156.45 42.45 156.45 42.3 156.5 42.15 156.6 41.95
L 166 41.95
Q 166.65 41.95 167.15 41.8 167.7 41.65 168.15 41.3 168.55 41 168.8 40.5 169 40 169 39.3
L 169 37.1
Q 169 36.4 168.8 35.9 168.55 35.35 168.15 35
M 169.25 20.7
Q 169.25 20.3 169.15 20.05 169.05 19.8 168.8 19.65 168.55 19.55 168.3 19.45 168 19.4 167.7 19.4 166.95 19.4 166.35 19.7 166.05 19.85 165.9 20.05 165.75 20.35 165.75 20.7
L 165.75 31.8
Q 165.75 32 165.8 32.15 165.85 32.3 165.95 32.45 166.05 32.6 166.15 32.7 166.3 32.8 166.45 32.85 166.5 32.95 166.65 33 166.85 33.05 167.05 33.05 167.2 33.1 167.35 33.1 167.55 33.15 167.7 33.15 168.3 33.15 168.8 32.85 169.05 32.7 169.15 32.45 169.25 32.2 169.25 31.8
L 169.25 27.95 172.35 27.95
Q 172.75 27.95 173 27.85 173.25 27.7 173.35 27.5 173.5 27.25 173.55 27 173.6 26.7 173.6 26.4 173.6 26.1 173.55 25.8 173.5 25.5 173.35 25.25 173.1 24.8 172.35 24.8
L 169.25 24.8 169.25 20.7
M 131.3 36.65
Q 130.85 36.4 130.4 36.25 129.9 36.15 129.35 36.15
L 116.7 36.15
Q 115.95 36.15 115.55 36.5 115.2 36.85 115.2 37.5 115.2 37.85 115.3 38.05 115.4 38.3 115.65 38.45 116 38.7 116.7 38.7
L 128.5 38.7
Q 128.55 38.9 128.6 39.05 128.6 39.15 128.6 39.25 128.65 39.35 128.65 39.45
L 128.65 39.7
Q 128.65 39.85 128.6 39.9 128.6 40 128.6 40.1 128.55 40.35 128.5 40.45
L 117.85 40.45
Q 117.3 40.45 116.85 40.55 116.35 40.65 116 40.8 115.65 41 115.45 41.35 115.25 41.75 115.25 42.3
L 115.25 44.35 115.3 44.35
Q 115.3 44.9 115.5 45.35 115.7 45.75 116.1 46.1 116.55 46.45 117.05 46.7 117.55 46.95 118.15 47.15 118.75 47.3 119.4 47.45 120.05 47.55 120.8 47.65 121.45 47.7 122.1 47.75 122.7 47.8 123.25 47.8 124.1 47.8 124.85 47.75 125.65 47.7 126.35 47.6 127.1 47.5 127.75 47.4 128.4 47.3 129 47.2 130.1 46.95 130.8 46.85 131.1 46.75 131.3 46.7
L 131.45 46.65
Q 131.7 46.6 131.9 46.5 132.1 46.35 132.25 46.2 132.4 45.95 132.5 45.75 132.55 45.55 132.55 45.35 132.55 44.8 132.2 44.45 132.05 44.25 131.8 44.15 131.55 44.05 131.3 44.05 131.1 44.05 130.85 44.1 130.65 44.15 130.45 44.2
L 130.3 44.2
Q 130.15 44.25 129.9 44.35 129.6 44.4 129.25 44.45 128.9 44.55 128.45 44.65 127.95 44.75 127.4 44.8 126.85 44.9 126.25 45 125.6 45.05 124.95 45.1 124.3 45.1 123.6 45.1 123.05 45.1 122.45 45.1 121.9 45.05 121.3 45 120.7 44.95 120.1 44.8 119.55 44.65 119 44.45 119 44.35 119 44.3 119 44.2 119 44.15 118.95 44 118.9 43.9 118.9 43.8 118.9 43.7
L 118.9 43.55
Q 118.9 43.35 118.9 43.2 118.95 43.05 119 42.9
L 129.35 42.9
Q 129.9 42.9 130.4 42.8 130.85 42.65 131.3 42.45 131.7 42.2 131.95 41.75 132.15 41.35 132.15 40.65
L 132.15 38.5
Q 132.15 37.85 131.95 37.4 131.7 36.95 131.3 36.65
M 136.4 31.55
Q 136.15 31.45 135.75 31.45
L 111.6 31.45
Q 110.9 31.45 110.6 31.85 110.45 32.05 110.4 32.3 110.35 32.55 110.35 32.9 110.35 33.5 110.6 33.95 110.9 34.4 111.6 34.4
L 135.75 34.4
Q 136.15 34.4 136.4 34.3 136.65 34.2 136.8 33.95 136.9 33.75 137 33.45 137.05 33.2 137.05 32.9 137.05 32.55 137 32.3 136.9 32.05 136.8 31.85 136.65 31.65 136.4 31.55
M 123.75 19.75
Q 122.7 19.75 121.8 19.85 120.9 19.9 120.1 20.05 119.3 20.25 118.6 20.5 117.95 20.7 117.35 21 116.75 21.3 116.35 21.7 115.9 22.1 115.6 22.55 114.95 23.45 114.95 24.6 114.95 25.2 115.1 25.7 115.25 26.2 115.6 26.65 115.9 27.1 116.35 27.45 116.8 27.85 117.4 28.15 117.95 28.45 118.65 28.7 119.4 28.9 120.2 29.05 121 29.25 121.9 29.35 122.85 29.45 123.85 29.5 125.85 29.4 127.5 29.05 128.25 28.9 128.95 28.65 129.6 28.4 130.25 28.1 130.75 27.8 131.2 27.45 131.65 27.1 131.95 26.65 132.25 26.2 132.4 25.7 132.55 25.2 132.55 24.6 132.55 24 132.4 23.5 132.25 22.95 131.95 22.55 131.65 22.1 131.2 21.7 130.75 21.3 130.2 21 129.6 20.7 128.9 20.5 128.2 20.25 127.35 20.05 126.55 19.9 125.65 19.85 124.75 19.75 123.75 19.75
M 121.6 23.05
Q 122.55 22.9 123.75 22.9 124.95 22.9 125.9 23.05 126.9 23.15 127.6 23.35 128.25 23.55 128.6 23.9 128.95 24.2 128.95 24.6 128.95 25 128.6 25.3 128.25 25.6 127.6 25.8 126.9 26 125.9 26.1 124.95 26.25 123.75 26.25 122.55 26.25 121.6 26.1 120.65 26 120 25.8 119.25 25.6 118.9 25.3 118.55 25 118.55 24.6 118.55 24.2 118.9 23.9 119.25 23.55 120 23.35 120.65 23.15 121.6 23.05
M 92.4 36.15
Q 92.05 36.15 91.8 36.25 91.6 36.4 91.4 36.6 91.05 37.05 91.05 37.75 91.05 38.05 91.15 38.3 91.25 38.55 91.4 38.8 91.6 39.05 91.8 39.15 92.05 39.3 92.4 39.3
L 101.95 39.3
Q 102.35 39.3 102.75 39.3 103.15 39.35 103.5 39.4
L 103.5 46.6
Q 103.5 46.9 103.65 47.15 103.8 47.4 104.1 47.6 104.35 47.75 104.65 47.8 104.95 47.9 105.3 47.9 105.45 47.9 105.6 47.9 105.75 47.9 105.9 47.85 106.15 47.75 106.55 47.6 106.65 47.5 106.75 47.4 106.85 47.3 106.95 47.15 107 47.05 107.05 46.9 107.05 46.75 107.05 46.6
L 107.05 38.8
Q 107.05 38.2 106.85 37.7 106.65 37.2 106.25 36.85 105.8 36.5 105.3 36.35 104.8 36.15 104.2 36.15
L 92.4 36.15
M 107 20.95
Q 107 20.65 106.9 20.4 106.75 20.15 106.5 20 106.25 19.85 105.95 19.75 105.65 19.7 105.3 19.7 104.95 19.7 104.65 19.75 104.35 19.85 104.1 20 103.9 20.15 103.75 20.4 103.65 20.65 103.65 20.95
L 103.65 25.45 98.35 25.45
Q 98.3 25.1 98.2 24.75 98.1 24.4 98 24.05 97.75 23.45 97.4 22.9 97.05 22.4 96.6 21.95 96.15 21.5 95.6 21.2 95.05 20.85 94.4 20.65 93.75 20.45 93 20.3 92.25 20.2 91.45 20.2 90.6 20.2 89.85 20.3 89.1 20.45 88.5 20.65 87.85 20.85 87.3 21.2 86.75 21.5 86.3 21.95 85.85 22.4 85.5 22.9 85.2 23.45 84.95 24.05 84.7 24.7 84.55 25.4 84.45 26.05 84.45 26.85 84.45 27.6 84.55 28.3 84.7 28.95 84.95 29.6 85.4 30.85 86.3 31.65 86.75 32.1 87.3 32.4 87.85 32.75 88.5 32.95 89.75 33.4 91.45 33.4 92.25 33.4 93 33.3 93.75 33.2 94.4 32.95 95.05 32.75 95.6 32.4 96.15 32.1 96.6 31.65 97.05 31.25 97.4 30.7 97.75 30.2 98 29.6 98.2 29.15 98.3 28.6
L 103.65 28.6 103.65 33.4
Q 103.65 33.75 103.75 34 103.9 34.3 104.1 34.4 104.35 34.55 104.65 34.65 104.95 34.7 105.3 34.7 105.65 34.7 105.95 34.65 106.25 34.55 106.5 34.4 106.75 34.3 106.9 34 107 33.75 107 33.4
L 107 20.95
M 93.05 23.55
Q 93.7 23.8 94.25 24.25 94.7 24.7 95 25.35 95.25 26 95.25 26.85 95.25 27.65 95 28.25 94.7 28.9 94.25 29.35 93.7 29.85 93.05 30.05 92.35 30.3 91.5 30.3 90.6 30.3 89.9 30.05 89.2 29.85 88.7 29.35 87.7 28.45 87.7 26.85 87.7 26 87.95 25.35 88.2 24.7 88.7 24.25 89.7 23.35 91.5 23.35 92.35 23.35 93.05 23.55 Z"/>
</g>

<path id="Layer0_0_1_STROKES" stroke="#569ECC" stroke-width="5" stroke-linejoin="round" stroke-linecap="round" fill="none" d="
M 315.85 3.45
L 1125 3.45
Q 1135.35 3.45 1142.65 10.75 1150 18.1 1150 28.45
L 1150 431.6
Q 1150 442 1142.65 449.25 1135.4 456.6 1125 456.6
L 29 456.6
Q 18.65 456.6 11.3 449.25 4 441.95 4 431.6
L 4 28.45
Q 4 18.15 11.3 10.75 18.7 3.45 29 3.45
L 51.75 3.45 315.85 3.45 Z"/>
</defs>

<g transform="matrix( 1, 0, 0, 1, 0,0) ">
<use xlink:href="#Layer0_0_FILL"/>

<use xlink:href="#Layer0_0_1_STROKES"/>
</g>

<g transform="matrix( 1, 0, 0, 1, 0,0) ">
<use xlink:href="#Layer0_1_FILL"/>
</g>
</svg>
