
<svg xmlns="http://www.w3.org/2000/svg" version="1.1" xmlns:xlink="http://www.w3.org/1999/xlink" preserveAspectRatio="none" x="0px" y="0px" width="1218px" height="368px" viewBox="0 0 1218 368">
<defs>
<g id="Layer0_0_FILL">
<path fill="#569ECC" stroke="none" d="
M 486.6 46.2
L 486.6 4.2 52.5 4.2 52.5 46.2
Q 52.5 56.55 59.8 63.85 67.15 71.2 77.5 71.2
L 461.6 71.2
Q 472 71.2 479.25 63.85 486.6 56.6 486.6 46.2 Z"/>

<path fill="#FFFFFF" stroke="none" d="
M 1213.25 29.2
Q 1213.25 18.85 1205.9 11.5 1198.6 4.2 1188.25 4.2
L 715.95 4.2 642.45 4.2 486.6 4.2 486.6 46.2
Q 486.6 56.6 479.25 63.85 472 71.2 461.6 71.2
L 77.5 71.2
Q 67.15 71.2 59.8 63.85 52.5 56.55 52.5 46.2
L 52.5 4.2 29.75 4.2
Q 19.45 4.2 12.05 11.5 4.75 18.9 4.75 29.2
L 4.75 75.45 4.75 201.95 4.75 338.85
Q 4.75 349.2 12.05 356.5 19.4 363.85 29.75 363.85
L 557.45 363.85 715.95 363.85 1188.25 363.85
Q 1198.65 363.85 1205.9 356.5 1213.25 349.25 1213.25 338.85
L 1213.25 201.95 1213.25 75.45 1213.25 29.2 Z"/>
</g>

<g id="Layer0_1_FILL">
<path fill="#FFFFFF" stroke="none" d="
M 448.85 22.45
Q 448 22.2 447.1 22.05 446.2 21.95 445.25 21.95 444.2 21.95 443.3 22.05 442.4 22.2 441.6 22.45 440.75 22.7 440.05 23.05 439.35 23.45 438.75 23.9 438.15 24.35 437.7 24.95 437.25 25.5 436.9 26.15 436.55 26.85 436.4 27.6 436.25 28.3 436.25 29.15 436.25 29.8 436.35 30.45 436.5 31.05 436.75 31.65 436.95 32.25 437.3 32.8 437.6 33.35 438.1 33.8 438.5 34.2 438.95 34.55 439.4 34.9 439.9 35.15 439.8 35.3 439.75 35.5 439.7 35.7 439.7 35.9
L 439.7 40.5 433.4 40.5
Q 433 40.5 432.7 40.6 432.45 40.75 432.3 40.95 432.15 41.2 432.1 41.5 432 41.8 432 42.1 432 42.45 432.1 42.7 432.15 42.95 432.3 43.2 432.45 43.45 432.7 43.55 433 43.65 433.4 43.65
L 456.95 43.65
Q 457.45 43.65 457.7 43.55 458 43.45 458.1 43.2 458.25 42.95 458.3 42.7 458.35 42.45 458.35 42.1 458.35 41.8 458.3 41.5 458.25 41.2 458.1 40.95 458 40.75 457.7 40.6 457.45 40.5 456.95 40.5
L 451 40.5 451 35.9
Q 451 35.6 450.9 35.35 450.85 35.15 450.7 35 450.95 34.85 451.2 34.7 451.5 34.55 451.75 34.35 453 33.4 453.6 32.1 454.25 30.8 454.25 29.15 454.25 27.5 453.6 26.15 453.3 25.5 452.8 24.95 452.35 24.35 451.75 23.9 451.15 23.45 450.4 23.05 449.65 22.7 448.85 22.45
M 447.55 25.4
Q 448.55 25.7 449.25 26.2 449.95 26.8 450.3 27.5 450.6 28.25 450.6 29.15 450.6 31 449.25 32 448.55 32.55 447.55 32.8 446.55 33.1 445.25 33.1 443.95 33.1 442.95 32.8 441.95 32.55 441.25 32 439.8 31 439.8 29.15 439.8 28.25 440.15 27.5 440.5 26.8 441.25 26.2 441.95 25.7 442.95 25.4 443.95 25.15 445.25 25.15 446.55 25.15 447.55 25.4
M 447.45 36.15
Q 447.55 36.1 447.7 36.1
L 447.7 40.5 443.1 40.5 443.1 36.2
Q 443.65 36.3 444.15 36.3 444.4 36.3 444.7 36.3 444.95 36.35 445.3 36.35 445.8 36.3 446.3 36.25 446.8 36.2 447.25 36.15 447.35 36.15 447.45 36.15
M 414.85 23.25
Q 414.7 23.5 414.65 23.75 414.55 24.05 414.55 24.3 414.55 24.6 414.6 24.9 414.7 25.2 414.85 25.45 415.05 26 415.8 26
L 417.65 26
Q 417.7 26.45 417.7 26.85 417.7 27 417.7 27.05 417.7 27.1 417.7 27.2 417.7 27.25 417.7 27.35 417.7 27.4 417.7 27.45 417.6 28.2 417.5 29 417.45 29.75 417.3 30.5 417.2 31.25 417 31.95 416.85 32.7 416.65 33.35 416.35 34.1 416.05 34.75 415.75 35.45 415.45 36.05 415.1 36.65 414.7 37.2 414.3 37.75 413.85 38.25 413.75 38.45 413.7 38.6 413.65 38.75 413.65 38.95 413.65 39.35 413.8 39.7 413.95 40 414.25 40.25 414.6 40.5 414.9 40.6 415.25 40.7 415.6 40.7 415.85 40.7 416.05 40.6 416.25 40.55 416.4 40.3 417.05 39.65 417.6 38.85 418.15 38.1 418.65 37.2 419.1 36.35 419.5 35.45 419.9 34.55 420.15 33.55 420.5 32.55 420.75 31.55 420.95 30.5 421.1 29.45 421.2 28.45 421.25 27.4 421.35 26.35 421.35 25.3 421.35 25 421.3 24.75 421.3 24.5 421.25 24.25 421.2 24 421.1 23.8 421 23.6 420.9 23.45 420.75 23.3 420.55 23.15 420.3 23.05 420.05 22.95 419.75 22.9 419.35 22.85 419 22.8 418.5 22.8
L 415.8 22.8
Q 415.45 22.8 415.2 22.9 415 23 414.85 23.25
M 407.8 22.8
Q 407.5 22.8 407.25 22.95 407 23.05 406.85 23.3 406.65 23.55 406.6 23.8 406.5 24.1 406.5 24.45 406.5 24.75 406.6 25 406.7 25.25 406.85 25.45 407.05 25.7 407.3 25.8 407.5 25.9 407.8 25.9
L 410.25 25.9
Q 410.25 26 410.25 26.1 410.25 26.15 410.3 26.2 410.3 26.3 410.3 26.4 410.3 26.45 410.3 26.5 410.3 26.65 410.3 26.75 410.3 26.8 410.3 26.9 410.25 27 410.25 27.15 410.25 27.25 410.25 27.35 410.15 28 410.1 28.6 410 29.25 409.9 29.85 409.8 30.5 409.65 31.1 409.5 31.7 409.3 32.3 409.1 32.8 408.8 33.35 408.55 33.85 408.25 34.3 407.95 34.8 407.6 35.25 407.25 35.7 406.85 36.05 406.4 36.5 406.4 37.05 406.4 37.35 406.5 37.6 406.6 37.85 406.85 38.05 406.95 38.25 407.1 38.35 407.25 38.5 407.35 38.55 407.5 38.6 407.65 38.6 407.85 38.65 408 38.65 408.2 38.65 408.4 38.6 408.55 38.6 408.7 38.5 409.4 38 410 37.4 410.6 36.7 411.1 35.9 411.6 35.05 411.95 34.2 412.35 33.3 412.6 32.35 412.9 31.4 413.15 30.45 413.35 29.5 413.5 28.55 413.55 27.6 413.65 26.75 413.7 25.9 413.7 25.1 413.7 24.55 413.6 24.1 413.5 23.7 413.25 23.4 413.05 23.25 412.85 23.15 412.65 23.05 412.35 22.95 412.05 22.9 411.7 22.85 411.35 22.8 410.9 22.8
L 407.8 22.8
M 427.7 21.55
Q 427.7 21.15 427.55 20.9 427.45 20.65 427.2 20.5 426.95 20.4 426.65 20.3 426.35 20.25 426 20.25 425.6 20.25 425.35 20.3 425.05 20.4 424.85 20.5 424.65 20.65 424.5 20.9 424.4 21.15 424.4 21.55
L 424.4 47.3
Q 424.4 47.65 424.5 47.9 424.65 48.15 424.85 48.3 425.05 48.4 425.35 48.5 425.6 48.55 426 48.55 426.35 48.55 426.65 48.5 426.95 48.4 427.2 48.3 427.45 48.15 427.55 47.9 427.7 47.65 427.7 47.3
L 427.7 33.7 430.6 33.7
Q 430.95 33.7 431.25 33.55 431.5 33.45 431.7 33.2 431.85 32.95 431.95 32.65 432.05 32.4 432.05 32.05 432.05 31.75 431.95 31.45 431.85 31.2 431.7 30.95 431.35 30.5 430.6 30.5
L 427.7 30.5 427.7 21.55
M 384.2 36.7
Q 383.85 36.7 383.55 36.85 383.3 36.95 383.15 37.15 382.9 37.35 382.8 37.65 382.7 37.9 382.7 38.25 382.7 38.9 383.05 39.2 383.45 39.5 384.2 39.5
L 396 39.5
Q 396.1 39.65 396.15 39.8 396.15 39.9 396.15 40.05
L 396.15 40.3
Q 396.15 40.5 396.15 40.65 396.1 40.75 396 40.85
L 385.35 40.85
Q 384.75 40.85 384.3 40.95 383.85 41.1 383.5 41.3 383.15 41.5 382.95 41.9 382.75 42.3 382.75 42.85
L 382.75 43.05
Q 382.75 43.35 382.75 43.6 382.75 43.85 382.8 44.05 382.8 44.3 382.8 44.55 382.8 44.8 382.8 45.05 382.8 45.6 383 46.05 383.25 46.5 383.65 46.85 384.05 47.2 384.55 47.45 385.05 47.7 385.7 47.9 386.3 48.05 386.95 48.2 387.6 48.3 388.35 48.4 389.05 48.45 389.7 48.5 390.35 48.55 390.95 48.55 392.55 48.55 394 48.35 394.7 48.25 395.35 48.15 395.95 48.05 396.55 47.95 397.8 47.7 398.95 47.4 399.45 47.3 399.75 46.9 399.9 46.65 400 46.45 400.05 46.2 400.05 46 400.05 45.45 399.7 45.1 399.55 44.95 399.3 44.85 399.05 44.8 398.75 44.8 398.55 44.8 398.4 44.8 398.2 44.8 397.95 44.85 397.5 45 397 45.1 396.45 45.2 395.95 45.35 395.45 45.4 394.9 45.5 394.4 45.6 393.75 45.65 393.15 45.75 392.45 45.75 391.8 45.8 391.05 45.8 390.5 45.8 389.9 45.75 389.35 45.75 388.75 45.7 387.5 45.5 386.5 45.15 386.45 45 386.4 44.8 386.4 44.6 386.4 44.35
L 386.4 44.2
Q 386.4 44.1 386.4 44.05 386.4 43.95 386.4 43.85 386.4 43.8 386.45 43.7 386.45 43.65 386.5 43.55
L 396.6 43.55
Q 396.95 43.55 397.25 43.55 397.5 43.5 397.8 43.45 398 43.4 398.25 43.3 398.5 43.2 398.75 43.05 398.9 42.95 399.05 42.75 399.2 42.6 399.35 42.35 399.45 42.1 399.5 41.8 399.55 41.5 399.55 41.15
L 399.65 41.15
Q 399.65 40.05 399.55 39.2 399.5 38.75 399.4 38.4 399.3 38.1 399.15 37.8 398.9 37.3 398.35 37 398.05 36.85 397.6 36.8 397.2 36.7 396.6 36.7
L 384.2 36.7
M 385.95 22.95
L 385.95 22.05
Q 385.95 21.9 385.9 21.75 385.85 21.6 385.75 21.45 385.65 21.35 385.55 21.25 385.45 21.15 385.3 21.05 385.1 20.95 384.75 20.9 384.6 20.85 384.45 20.85 384.25 20.8 384.15 20.8 383.85 20.8 383.6 20.9 383.3 20.95 383 21.05 382.7 21.2 382.55 21.45 382.4 21.7 382.4 22.05
L 382.4 26.75
Q 382.4 27.6 382.55 28.2 382.7 28.8 383 29.15 383.25 29.55 383.65 29.85 384 30.1 384.45 30.2 385.3 30.45 386.15 30.6 386.95 30.75 387.75 30.85 388.2 30.95 388.6 31 389 31 389.4 31
L 389.4 32.3 379.05 32.3
Q 378.75 32.3 378.5 32.45 378.25 32.55 378.1 32.75 377.95 33 377.9 33.3 377.8 33.6 377.8 33.9 377.8 34.2 377.9 34.5 377.95 34.75 378.1 34.95 378.25 35.2 378.5 35.35 378.75 35.45 379.05 35.45
L 403.25 35.45
Q 403.65 35.45 403.9 35.35 404.15 35.2 404.35 34.95 404.45 34.75 404.55 34.5 404.65 34.2 404.65 33.9 404.65 33.6 404.55 33.3 404.45 33 404.35 32.75 404 32.3 403.25 32.3
L 393 32.3 393 31
Q 393.4 31 393.8 30.95 394.15 30.9 394.6 30.8 395.45 30.7 396.25 30.55 397.1 30.4 397.85 30.2 398.3 30.15 398.7 29.9 399.1 29.65 399.35 29.3 399.9 28.55 399.9 27.1
L 399.9 22.05
Q 399.9 21.9 399.8 21.75 399.75 21.6 399.7 21.45 399.55 21.35 399.45 21.25 399.35 21.15 399.2 21.05 398.95 20.95 398.65 20.9 398.5 20.85 398.3 20.85 398.15 20.8 398 20.8 397.75 20.8 397.5 20.9 397.2 20.95 396.9 21.05 396.6 21.2 396.45 21.45 396.3 21.7 396.3 22.05
L 396.3 22.95 385.95 22.95
M 396.3 25.8
L 396.3 27 396.2 27.1
Q 396.1 27.15 395.95 27.2 395.6 27.4 395.05 27.45 394.7 27.55 394.25 27.6 393.85 27.7 393.4 27.7 392.9 27.8 392.3 27.8 391.65 27.85 390.95 27.85 390.35 27.85 389.8 27.8 389.2 27.8 388.55 27.7 387.9 27.6 387.3 27.5 386.65 27.4 386.05 27.2 386 27.1 386 27.05 386 26.95 386 26.85 386 26.75 385.95 26.7 385.95 26.6 385.95 26.5
L 385.95 25.8 396.3 25.8
M 365.3 29.5
Q 365.2 28.55 364.95 27.7 364.45 26.05 363.5 24.8 363.1 24.2 362.6 23.8 362.05 23.35 361.45 23 360.75 22.7 360.05 22.55 359.3 22.4 358.5 22.4 356.95 22.4 355.7 23 354.4 23.65 353.45 24.8 352.55 26.05 352.1 27.7 351.9 28.55 351.75 29.5 351.65 30.45 351.65 31.5 351.65 32.6 351.75 33.5 351.9 34.5 352.1 35.3 352.35 36.15 352.65 36.85 353 37.6 353.45 38.15 353.95 38.75 354.5 39.2 355.05 39.65 355.7 39.9 356.95 40.55 358.5 40.55 359.3 40.55 360.05 40.4 360.75 40.25 361.45 39.9 362.05 39.65 362.6 39.2 363.1 38.75 363.5 38.15 364 37.6 364.35 36.85 364.7 36.15 364.95 35.3 365.2 34.5 365.3 33.5 365.45 32.6 365.45 31.5 365.45 30.45 365.3 29.5
M 361.2 27.1
Q 361.65 27.9 361.9 29 362.1 30.1 362.1 31.5 362.1 32.9 361.9 34 361.65 35.1 361.2 35.85 360.7 36.65 360.05 37 359.4 37.4 358.5 37.4 357.7 37.4 357.05 37 356.35 36.65 355.9 35.85 355.35 35.1 355.1 34 354.85 32.9 354.85 31.5 354.85 30.1 355.1 29 355.35 27.9 355.9 27.1 356.35 26.3 357.05 25.9 357.7 25.55 358.5 25.55 359.4 25.55 360.05 25.9 360.7 26.3 361.2 27.1
M 373.2 21.45
Q 373.2 21.05 373.05 20.8 372.9 20.55 372.65 20.4 372.35 20.3 372.05 20.2 371.75 20.15 371.5 20.15 371.1 20.15 370.8 20.2 370.45 20.3 370.2 20.4 369.9 20.55 369.75 20.8 369.6 21.05 369.6 21.45
L 369.6 47.3
Q 369.6 47.65 369.75 47.9 369.9 48.15 370.2 48.25 370.45 48.4 370.8 48.5 371.1 48.55 371.5 48.55 372.05 48.55 372.65 48.25 373.2 48 373.2 47.3
L 373.2 33.7 376.5 33.7
Q 376.85 33.7 377.1 33.6 377.35 33.5 377.5 33.25 377.6 33 377.65 32.75 377.7 32.45 377.7 32.15 377.7 31.8 377.65 31.55 377.6 31.25 377.5 31 377.2 30.55 376.5 30.55
L 373.2 30.55 373.2 21.45
M 331.4 35.1
Q 330.7 35.1 330.35 35.55 330.1 35.8 330 36.05 329.9 36.35 329.9 36.65 329.9 37 330 37.25 330.1 37.55 330.35 37.75 330.7 38.2 331.4 38.2
L 342.4 38.2
Q 342.45 38.3 342.45 38.35 342.45 38.45 342.5 38.5 342.5 38.6 342.5 38.65 342.5 38.75 342.5 38.85
L 342.5 39.1
Q 342.5 39.3 342.45 39.45 342.45 39.6 342.4 39.8
L 332.95 39.8
Q 332.7 39.8 332.4 39.8 332.15 39.8 331.85 39.85 331.55 39.9 331.3 40 331.05 40.1 330.9 40.2 330.7 40.35 330.5 40.5 330.35 40.7 330.2 40.9 330.1 41.1 330.05 41.4 330 41.65 330 42 330 42.35 330 42.7 330 43.05 330 43.35 330 44.05 330 44.8 330 45.75 330.45 46.4 330.65 46.7 331.1 47 331.55 47.3 332.2 47.6 332.95 47.8 333.65 47.95 334.4 48.1 335.15 48.2 335.9 48.3 336.6 48.35 337.3 48.4 337.95 48.4 338.8 48.4 339.55 48.4 340.3 48.35 341 48.25 342.35 48.1 343.35 47.9 343.9 47.8 344.45 47.65 344.95 47.55 345.4 47.4 345.7 47.35 345.9 47.2 346.15 47.05 346.3 46.8 346.4 46.6 346.45 46.35 346.5 46.1 346.5 45.85 346.5 45.4 346.45 45.1 346.35 44.8 346.2 44.65 346 44.5 345.75 44.4 345.5 44.3 345.2 44.3 344.95 44.3 344.5 44.4
L 344.35 44.45
Q 344.25 44.5 344 44.5 343.75 44.6 343.4 44.65 343.05 44.75 342.6 44.8 342.2 44.85 341.65 44.95 341.15 45 340.6 45.05 340 45.1 339.35 45.15 338.7 45.2 337.95 45.2 337.45 45.2 336.95 45.15 336.4 45.1 335.85 45.05 335.3 44.95 334.75 44.8 334.25 44.7 333.75 44.5 333.7 44.45 333.7 44.35 333.65 44.25 333.65 44.15 333.6 44.05 333.6 43.95 333.6 43.85 333.6 43.7
L 333.6 43.4
Q 333.6 43.2 333.6 43.05 333.65 42.9 333.75 42.7
L 343.15 42.7
Q 343.8 42.7 344.3 42.55 344.85 42.4 345.3 42.05 345.7 41.75 345.95 41.25 346.15 40.75 346.15 40.05
L 346.15 37.85
Q 346.15 37.15 345.95 36.65 345.7 36.1 345.3 35.75 344.85 35.45 344.3 35.25 343.75 35.1 343.15 35.1
L 331.4 35.1
M 326 23.6
Q 325.7 24.1 325.45 24.65 325.2 25.25 325.05 25.9 324.95 26.55 324.95 27.3 324.95 28 325.05 28.7 325.2 29.3 325.45 29.9 325.9 31.1 326.8 31.9 327.25 32.3 327.8 32.65 328.35 32.95 329 33.15 330.25 33.6 331.95 33.6 332.75 33.6 333.5 33.5 334.25 33.4 334.9 33.15 335.55 32.95 336.1 32.65 336.65 32.3 337.1 31.9 337.95 31.1 338.5 29.9 338.7 29.3 338.85 28.7 338.95 28 338.95 27.3 338.95 26.55 338.85 25.9 338.7 25.25 338.5 24.65 338.2 24.1 337.85 23.6 337.55 23.05 337.1 22.65 336.65 22.2 336.1 21.9 335.55 21.6 334.9 21.4 334.25 21.2 333.5 21.05 332.75 20.95 331.95 20.95 331.1 20.95 330.35 21.05 329.6 21.2 329 21.4 328.35 21.6 327.8 21.9 327.25 22.2 326.8 22.65 326.35 23.05 326 23.6
M 332 24.1
Q 332.85 24.1 333.55 24.3 334.2 24.5 334.75 24.9 335.2 25.35 335.5 25.95 335.75 26.55 335.75 27.3 335.75 28.05 335.5 28.65 335.2 29.2 334.75 29.6 334.2 30.05 333.55 30.25 332.85 30.5 332 30.5 331.1 30.5 330.4 30.25 329.7 30.05 329.2 29.6 328.7 29.2 328.45 28.65 328.2 28.05 328.2 27.3 328.2 26.55 328.45 25.95 328.7 25.35 329.2 24.9 330.2 24.1 332 24.1
M 346.4 21.45
Q 346.4 21.05 346.3 20.8 346.2 20.55 345.95 20.4 345.7 20.3 345.45 20.2 345.15 20.15 344.85 20.15 344.1 20.15 343.5 20.45 343.2 20.6 343.05 20.8 342.9 21.1 342.9 21.45
L 342.9 32.55
Q 342.9 32.75 342.95 32.9 343 33.05 343.1 33.2 343.2 33.35 343.3 33.45 343.45 33.55 343.6 33.6 343.65 33.7 343.8 33.75 344 33.8 344.2 33.8 344.35 33.85 344.5 33.85 344.7 33.9 344.85 33.9 345.45 33.9 345.95 33.6 346.2 33.45 346.3 33.2 346.4 32.95 346.4 32.55
L 346.4 28.7 349.5 28.7
Q 349.9 28.7 350.15 28.6 350.4 28.45 350.5 28.25 350.65 28 350.7 27.75 350.75 27.45 350.75 27.15 350.75 26.85 350.7 26.55 350.65 26.25 350.5 26 350.25 25.55 349.5 25.55
L 346.4 25.55 346.4 21.45
M 292.7 37.25
Q 292.35 37.6 292.35 38.25 292.35 38.6 292.45 38.8 292.55 39.05 292.8 39.2 293.15 39.45 293.85 39.45
L 305.65 39.45
Q 305.7 39.65 305.75 39.8 305.75 39.9 305.75 40 305.8 40.1 305.8 40.2
L 305.8 40.45
Q 305.8 40.6 305.75 40.65 305.75 40.75 305.75 40.85 305.7 41.1 305.65 41.2
L 295 41.2
Q 294.45 41.2 294 41.3 293.5 41.4 293.15 41.55 292.8 41.75 292.6 42.1 292.4 42.5 292.4 43.05
L 292.4 45.1 292.45 45.1
Q 292.45 45.65 292.65 46.1 292.85 46.5 293.25 46.85 293.7 47.2 294.2 47.45 294.7 47.7 295.3 47.9 295.9 48.05 296.55 48.2 297.2 48.3 297.95 48.4 298.6 48.45 299.25 48.5 299.85 48.55 300.4 48.55 301.25 48.55 302 48.5 302.8 48.45 303.5 48.35 304.25 48.25 304.9 48.15 305.55 48.05 306.15 47.95 307.25 47.7 307.95 47.6 308.25 47.5 308.45 47.45
L 308.6 47.4
Q 308.85 47.35 309.05 47.25 309.25 47.1 309.4 46.95 309.55 46.7 309.65 46.5 309.7 46.3 309.7 46.1 309.7 45.55 309.35 45.2 309.2 45 308.95 44.9 308.7 44.8 308.45 44.8 308.25 44.8 308 44.85 307.8 44.9 307.6 44.95
L 307.45 44.95
Q 307.3 45 307.05 45.1 306.75 45.15 306.4 45.2 306.05 45.3 305.6 45.4 305.1 45.5 304.55 45.55 304 45.65 303.4 45.75 302.75 45.8 302.1 45.85 301.45 45.85 300.75 45.85 300.2 45.85 299.6 45.85 299.05 45.8 298.45 45.75 297.85 45.7 297.25 45.55 296.7 45.4 296.15 45.2 296.15 45.1 296.15 45.05 296.15 44.95 296.15 44.9 296.1 44.75 296.05 44.65 296.05 44.55 296.05 44.45
L 296.05 44.3
Q 296.05 44.1 296.05 43.95 296.1 43.8 296.15 43.65
L 306.5 43.65
Q 307.05 43.65 307.55 43.55 308 43.4 308.45 43.2 308.85 42.95 309.1 42.5 309.3 42.1 309.3 41.4
L 309.3 39.25
Q 309.3 38.6 309.1 38.15 308.85 37.7 308.45 37.4 308 37.15 307.55 37 307.05 36.9 306.5 36.9
L 293.85 36.9
Q 293.1 36.9 292.7 37.25
M 287.5 33.65
Q 287.5 34.25 287.75 34.7 288.05 35.15 288.75 35.15
L 312.9 35.15
Q 313.3 35.15 313.55 35.05 313.8 34.95 313.95 34.7 314.05 34.5 314.15 34.2 314.2 33.95 314.2 33.65 314.2 33.3 314.15 33.05 314.05 32.8 313.95 32.6 313.8 32.4 313.55 32.3 313.3 32.2 312.9 32.2
L 288.75 32.2
Q 288.05 32.2 287.75 32.6 287.6 32.8 287.55 33.05 287.5 33.3 287.5 33.65
M 306.05 21.25
Q 305.35 21 304.5 20.8 303.7 20.65 302.8 20.6 301.9 20.5 300.9 20.5 299.85 20.5 298.95 20.6 298.05 20.65 297.25 20.8 296.45 21 295.75 21.25 295.1 21.45 294.5 21.75 293.9 22.05 293.5 22.45 293.05 22.85 292.75 23.3 292.1 24.2 292.1 25.35 292.1 25.95 292.25 26.45 292.4 26.95 292.75 27.4 293.05 27.85 293.5 28.2 293.95 28.6 294.55 28.9 295.1 29.2 295.8 29.45 296.55 29.65 297.35 29.8 298.15 30 299.05 30.1 300 30.2 301 30.25 303 30.15 304.65 29.8 305.4 29.65 306.1 29.4 306.75 29.15 307.4 28.85 307.9 28.55 308.35 28.2 308.8 27.85 309.1 27.4 309.4 26.95 309.55 26.45 309.7 25.95 309.7 25.35 309.7 24.75 309.55 24.25 309.4 23.7 309.1 23.3 308.8 22.85 308.35 22.45 307.9 22.05 307.35 21.75 306.75 21.45 306.05 21.25
M 304.75 24.1
Q 305.4 24.3 305.75 24.65 306.1 24.95 306.1 25.35 306.1 25.75 305.75 26.05 305.4 26.35 304.75 26.55 304.05 26.75 303.05 26.85 302.1 27 300.9 27 299.7 27 298.75 26.85 297.8 26.75 297.15 26.55 296.4 26.35 296.05 26.05 295.7 25.75 295.7 25.35 295.7 24.95 296.05 24.65 296.4 24.3 297.15 24.1 297.8 23.9 298.75 23.8 299.7 23.65 300.9 23.65 302.1 23.65 303.05 23.8 304.05 23.9 304.75 24.1
M 285.1 44.65
Q 285 44.4 284.9 44.2 284.7 44 284.45 43.9 284.25 43.8 283.9 43.8 283.85 43.8 283.8 43.8
L 283.7 43.8
Q 283.6 43.8 283.5 43.85 283.4 43.85 283.3 43.85 283.3 43.9 283.2 43.95 283.05 44 282.8 44.05 282.5 44.15 282.1 44.25 281.75 44.35 281.3 44.45 280.8 44.55 280.25 44.65 279.7 44.75 279.1 44.85 278.45 44.9 277.75 44.95 277.1 45 276.35 45 275.85 45 275.35 45 274.8 44.95 274.25 44.9 273.7 44.85 273.2 44.75 272.7 44.6 272.3 44.4 272.15 44.35 272.05 44.25 272 44.15 271.95 43.95 271.9 43.8 271.85 43.6 271.8 43.4 271.8 43.15 271.75 42.9 271.75 42.65 271.75 42.4 271.75 42.15 271.75 41.9 271.75 41.65 271.75 41.4 271.75 41.15 271.75 40.65 271.75 40.3 271.75 39.95 271.8 39.7 271.8 39.45 271.8 39.3 271.85 39.2 271.85 39.15 271.85 38.9 271.8 38.65 271.75 38.45 271.7 38.25 271.65 38.1 271.55 37.95 271.45 37.85 271.35 37.75 271.2 37.65 271.1 37.6 270.95 37.5 270.8 37.45 270.6 37.45 270.45 37.45 270.3 37.4 270.2 37.4 269.9 37.4 269.6 37.5 269.3 37.55 269.05 37.7 268.55 38 268.45 38.85
L 268.45 38.9 268.4 38.9
Q 268.4 38.95 268.4 39.05 268.4 39.2 268.4 39.35 268.35 39.6 268.35 39.95 268.35 40.35 268.35 40.9 268.35 41.3 268.35 41.75 268.35 42.15 268.4 42.6 268.4 43.05 268.45 43.5 268.55 43.9 268.65 44.3 268.7 44.8 268.85 45.25 269 45.75 269.2 46.15 269.45 46.6 269.9 46.95 270.3 47.3 270.95 47.55 271.6 47.75 272.35 47.9 273.05 48.05 273.8 48.15 274.55 48.2 275.25 48.25 275.95 48.3 276.65 48.3 277.45 48.3 278.2 48.25 278.95 48.2 279.65 48.1 280.35 48.05 280.9 47.9 281.5 47.8 282 47.75 282.45 47.6 282.85 47.5 283.2 47.4 283.5 47.3 283.75 47.2 283.9 47.15
L 284.05 47.05
Q 284.3 46.9 284.5 46.7 284.7 46.5 284.9 46.3 285 46.05 285.1 45.85 285.2 45.6 285.2 45.35 285.2 44.95 285.1 44.65
M 263.6 23.6
Q 263.55 23.9 263.55 24.15
L 263.55 30.4
Q 263.55 31.05 263.65 31.5 263.75 31.95 263.95 32.25 264.1 32.55 264.5 32.85 264.9 33.1 265.45 33.3 265.55 33.35 265.7 33.4 265.85 33.45 266.05 33.5 266.25 33.55 266.5 33.6 266.75 33.65 267.05 33.7 267.35 33.8 267.7 33.85 268.1 33.9 268.45 33.95 268.8 34 269.2 34 269.6 34.05 270.1 34.05 270.5 34.05 270.95 34 271.4 34 272 33.9 272.5 33.85 273.05 33.7 273.55 33.55 274.1 33.35 274.55 33.15 274.95 32.85 275.35 32.6 275.65 32.2 276 31.9 276.15 31.45 276.3 31 276.3 30.4
L 276.3 24.15
Q 276.3 23.85 276.25 23.55 276.15 23.3 276.05 23 275.85 22.75 275.7 22.55 275.5 22.3 275.35 22.15 275.1 21.95 274.85 21.8 274.55 21.7 274.25 21.55 273.95 21.5 273.65 21.45 273.3 21.4 272.95 21.4
L 266.25 21.4
Q 265.95 21.4 265.7 21.45 265.4 21.5 265.2 21.6 264.95 21.7 264.7 21.85 264.5 22 264.35 22.15 263.95 22.6 263.8 23.05 263.65 23.35 263.6 23.6
M 267.4 24.65
Q 267.55 24.65 267.8 24.65
L 272.05 24.65
Q 272.3 24.65 272.45 24.65 272.65 24.7 272.7 24.7 272.75 24.8 272.8 24.95 272.8 25.1 272.8 25.4
L 272.8 30
Q 272.3 30.5 271.55 30.6 271.15 30.75 270.75 30.75 270.4 30.8 269.95 30.8 269.75 30.8 269.55 30.75 269.3 30.75 269.05 30.75 268.8 30.7 268.55 30.65 268.35 30.6 268.1 30.55 267.95 30.5 267.75 30.45 267.6 30.4 267.4 30.35 267.25 30.3 267.15 30.25 267.1 30.2 267.1 30.15 267.05 30.05 267.05 29.95 267.05 29.9 267.05 29.8 267.05 29.7 267.05 29.6 267.05 29.5 267.05 29.4
L 267.05 25.4
Q 267 25.15 267.05 25 267.1 24.85 267.2 24.75 267.25 24.7 267.4 24.65
M 283.9 21.7
Q 283.9 21.35 283.75 21.1 283.65 20.8 283.4 20.7 283.15 20.55 282.85 20.45 282.55 20.4 282.2 20.4 281.85 20.4 281.55 20.5 281.25 20.55 280.95 20.7 280.65 20.9 280.5 21.15 280.3 21.4 280.3 21.7
L 280.3 37.65
Q 280.3 37.8 280.35 37.95 280.4 38.1 280.45 38.25 280.55 38.4 280.65 38.5 280.75 38.6 280.9 38.65 281.05 38.7 281.2 38.8 281.4 38.85 281.55 38.85 281.7 38.9 281.85 38.9 282 38.9 282.2 38.9 282.55 38.9 282.85 38.85 283.15 38.8 283.4 38.65 283.65 38.5 283.75 38.25 283.9 38 283.9 37.65
L 283.9 30.75 286.75 30.75
Q 287.15 30.75 287.4 30.65 287.7 30.5 287.8 30.25 288.1 29.8 288.1 29.2 288.1 28.9 288.05 28.6 287.95 28.3 287.8 28.05 287.55 27.65 286.75 27.65
L 283.9 27.65 283.9 21.7
M 243.6 38.5
Q 243.35 38.35 243.05 38.25 242.75 38.15 242.4 38.15 242.05 38.15 241.8 38.25 241.5 38.35 241.4 38.5 241.2 38.65 241.05 38.95 240.85 39.2 240.7 39.65 240.7 39.7 240.7 39.85 240.65 40 240.65 40.15 240.65 40.3 240.65 40.45 240.65 40.6 240.65 40.8 240.65 41 240.65 41.25 240.65 41.5 240.65 41.75 240.6 42.05 240.65 42.4 240.65 42.8 240.7 43.2 240.7 43.65 240.75 44.05 240.8 44.5 240.9 44.9 241 45.3 241.2 45.7 241.4 46.1 241.7 46.45 241.9 46.8 242.3 47.05 242.7 47.35 243.25 47.55 243.95 47.75 244.7 47.9 245.45 48.05 246.3 48.15 247.05 48.25 247.8 48.3 248.55 48.35 249.2 48.35 250.05 48.35 250.75 48.3 251.45 48.25 252.1 48.15 252.75 48.05 253.3 47.95 253.85 47.85 254.35 47.75 254.85 47.6 255.35 47.45 255.8 47.3 256.2 47.1 256.55 46.95 256.75 46.7 257 46.5 257.15 46.3 257.25 46.05 257.3 45.8 257.35 45.55 257.35 45.3 257.35 44.55 257.05 44.15 256.75 43.8 256.1 43.8 256.05 43.8 256 43.8 255.95 43.8 255.9 43.8 255.85 43.8 255.75 43.85 255.7 43.85 255.65 43.85
L 255.1 44.05
Q 254.8 44.15 254.45 44.25 254.05 44.35 253.55 44.45 253.1 44.55 252.55 44.65 252 44.75 251.4 44.8 250.75 44.9 250.1 44.95 249.4 44.95 248.75 44.95 248.2 44.95 247.65 44.95 247.15 44.9 246.6 44.9 246.05 44.85 245.55 44.7 245.05 44.6 244.55 44.35 244.4 44.3 244.3 44.05 244.2 43.8 244.15 43.45 244.1 43.05 244.1 42.7 244.1 42.35 244.1 42 244.1 41.5 244.1 41.15 244.1 40.75 244.15 40.5 244.15 40.25 244.15 40.05 244.15 39.9 244.15 39.85 244.15 39.35 244.05 39 243.9 38.65 243.6 38.5
M 257.45 21.5
Q 257.45 20.7 257 20.5 256.8 20.4 256.5 20.35 256.2 20.3 255.9 20.3 255.5 20.3 255.2 20.35 254.85 20.4 254.55 20.5 254.25 20.6 254.1 20.85 253.95 21.1 253.95 21.5
L 253.95 25.05 250.45 25.05
Q 249.65 25.05 249.5 25.5 249.35 25.75 249.3 26.05 249.25 26.35 249.25 26.65 249.25 27 249.3 27.25 249.35 27.55 249.5 27.75 249.65 28.2 250.45 28.2
L 253.95 28.2 253.95 36.7
Q 253.95 37.15 254.1 37.4 254.2 37.65 254.5 37.75 254.75 37.85 255.1 37.95 255.4 38 255.8 38 256.05 38 256.35 37.95 256.65 37.85 256.9 37.75 257.2 37.65 257.3 37.4 257.45 37.15 257.45 36.7
L 257.45 21.5
M 243.4 20.1
Q 243.25 20.05 243.15 19.95 243 19.95 242.8 19.9 242.65 19.85 242.45 19.85 242.3 19.85 242.15 19.85 242.05 19.85 241.9 19.85 241.75 19.85 241.6 19.9 241.25 19.95 240.95 20.1 240.85 20.15 240.75 20.25 240.65 20.35 240.55 20.45 240.45 20.55 240.45 20.7 240.4 20.85 240.4 21.05
L 240.4 22.4 236.6 22.4
Q 236.25 22.4 236 22.5 235.75 22.6 235.65 22.8 235.45 23 235.4 23.25 235.3 23.5 235.3 23.8
L 235.3 23.85 235.35 23.9
Q 235.35 23.95 235.35 24
L 235.35 24.05
Q 235.4 24.35 235.45 24.6 235.55 24.85 235.7 25.1 235.85 25.3 236.1 25.4 236.35 25.55 236.75 25.55
L 240.4 25.55
Q 240.25 26.1 240.15 26.65 240 27.15 239.85 27.6 239.55 28.55 239.05 29.2 238.75 29.65 238.4 29.95 238.05 30.3 237.7 30.6 237.3 30.95 236.85 31.25 236.35 31.55 235.85 31.8 235.45 32.05 235.3 32.3 235.15 32.55 235.15 32.85 235.15 33.2 235.25 33.5 235.4 33.8 235.65 34.1 236.05 34.65 236.8 34.7 236.95 34.7 237.2 34.65 237.4 34.6 237.65 34.5 238.4 34.1 239.05 33.65 239.75 33.15 240.25 32.6 240.8 32.05 241.3 31.45 241.8 30.85 242.3 30.15 242.75 30.75 243.2 31.25 243.65 31.75 244.15 32.2 245.05 33.1 246.65 33.9
L 246.85 34
Q 247 34.1 247.1 34.1 247.25 34.15 247.4 34.15 247.75 34.15 248.1 34 248.4 33.85 248.65 33.5 249.1 32.9 249.1 32.15 249.1 32 249.05 31.85 249 31.7 248.95 31.55 248.85 31.45 248.7 31.35 248.6 31.2 248.45 31.15 246.65 30.3 245.55 28.9 244.95 28.2 244.6 27.35 244.25 26.5 244.1 25.55
L 247.85 25.55
Q 248.2 25.55 248.45 25.4 248.75 25.3 248.95 25.1 249.1 24.9 249.2 24.6 249.3 24.35 249.3 23.95 249.3 23.65 249.25 23.35 249.15 23.05 249 22.85 248.65 22.4 248 22.4
L 244.1 22.4 244.1 21.05
Q 244.1 20.85 244 20.7 243.95 20.55 243.85 20.45 243.75 20.35 243.65 20.25 243.5 20.15 243.4 20.1
M 220.15 42.8
Q 220.15 42.4 220.05 42.1 219.9 41.8 219.7 41.6 219.45 41.45 219.15 41.35 218.85 41.25 218.5 41.2
L 217.3 41.2
Q 216.85 41.2 216.55 41.3 216.25 41.4 216.1 41.6 215.9 41.8 215.8 42.1 215.75 42.35 215.75 42.8
L 215.75 44.15
Q 215.75 44.55 215.8 44.85 215.9 45.1 216.1 45.25 216.25 45.35 216.55 45.45 216.85 45.5 217.3 45.5
L 217.95 45.5
Q 217.95 45.6 217.85 45.75 217.7 45.9 217.6 46.15 217.45 46.35 217.25 46.5 217 46.7 216.8 46.8 216.6 46.95 216.45 47.05 216.3 47.15 216.2 47.2 216.1 47.3 216.05 47.4 215.95 47.5 215.95 47.65 215.95 47.9 216.05 48.05 216.1 48.25 216.2 48.4 216.4 48.65 216.65 48.65 216.75 48.65 216.95 48.65 217.1 48.6 217.3 48.55 217.5 48.5 217.6 48.4 217.7 48.4 217.75 48.35 217.95 48.25 218.15 48.1 218.35 48 218.55 47.8 218.8 47.65 219 47.4 219.15 47.2 219.35 46.95 219.55 46.7 219.7 46.4 219.85 46.1 219.95 45.8 220.05 45.45 220.1 45.1 220.15 44.7 220.15 44.3
L 220.15 42.8
M 203.5 48.25
Q 204.25 48.2 204.95 48.1 205.65 48.05 206.2 47.9 206.8 47.8 207.3 47.75 207.75 47.6 208.15 47.5 208.5 47.4 208.8 47.3 209.05 47.2 209.2 47.15
L 209.35 47.05
Q 209.6 46.9 209.8 46.7 210 46.5 210.2 46.3 210.3 46.05 210.4 45.85 210.5 45.6 210.5 45.35 210.5 44.95 210.4 44.65 210.3 44.4 210.2 44.2 210 44 209.75 43.9 209.55 43.8 209.2 43.8 209.15 43.8 209.1 43.8
L 209 43.8
Q 208.9 43.8 208.8 43.85 208.7 43.85 208.6 43.85 208.6 43.9 208.5 43.95 208.35 44 208.1 44.05 207.8 44.15 207.4 44.25 207.05 44.35 206.6 44.45 206.1 44.55 205.55 44.65 205 44.75 204.4 44.85 203.75 44.9 203.05 44.95 202.4 45 201.65 45 201.15 45 200.65 45 200.1 44.95 199.55 44.9 199 44.85 198.5 44.75 198 44.6 197.6 44.4 197.45 44.35 197.35 44.25 197.3 44.15 197.25 43.95 197.2 43.8 197.15 43.6 197.1 43.4 197.1 43.15 197.05 42.9 197.05 42.65 197.05 42.4 197.05 42.15 197.05 41.9 197.05 41.65 197.05 41.4 197.05 41.15 197.05 40.65 197.05 40.3 197.05 39.95 197.1 39.7 197.1 39.45 197.1 39.3 197.15 39.2 197.15 39.15 197.15 38.9 197.1 38.65 197.05 38.45 197 38.25 196.95 38.1 196.85 37.95 196.75 37.85 196.65 37.75 196.5 37.65 196.4 37.6 196.25 37.5 196.1 37.45 195.9 37.45 195.75 37.45 195.6 37.4 195.5 37.4 195.2 37.4 194.9 37.5 194.6 37.55 194.35 37.7 193.85 38 193.75 38.85
L 193.75 38.9 193.7 38.9
Q 193.7 38.95 193.7 39.05 193.7 39.2 193.7 39.35 193.65 39.6 193.65 39.95 193.65 40.35 193.65 40.9 193.65 41.3 193.65 41.75 193.65 42.15 193.7 42.6 193.7 43.05 193.75 43.5 193.85 43.9 193.95 44.3 194 44.8 194.15 45.25 194.3 45.75 194.5 46.15 194.75 46.6 195.2 46.95 195.6 47.3 196.25 47.55 196.9 47.75 197.65 47.9 198.35 48.05 199.1 48.15 199.85 48.2 200.55 48.25 201.25 48.3 201.95 48.3 202.75 48.3 203.5 48.25
M 188.9 23.6
Q 188.85 23.9 188.85 24.15
L 188.85 30.4
Q 188.85 31.05 188.95 31.5 189.05 31.95 189.25 32.25 189.4 32.55 189.8 32.85 190.2 33.1 190.75 33.3 190.85 33.35 191 33.4 191.15 33.45 191.35 33.5 191.55 33.55 191.8 33.6 192.05 33.65 192.35 33.7 192.65 33.8 193 33.85 193.4 33.9 193.75 33.95 194.1 34 194.5 34 194.9 34.05 195.4 34.05 195.8 34.05 196.25 34 196.7 34 197.3 33.9 197.8 33.85 198.35 33.7 198.85 33.55 199.4 33.35 199.85 33.15 200.25 32.85 200.65 32.6 200.95 32.2 201.3 31.9 201.45 31.45 201.6 31 201.6 30.4
L 201.6 24.15
Q 201.6 23.85 201.55 23.55 201.45 23.3 201.35 23 201.15 22.75 201 22.55 200.8 22.3 200.65 22.15 200.4 21.95 200.15 21.8 199.85 21.7 199.55 21.55 199.25 21.5 198.95 21.45 198.6 21.4 198.25 21.4
L 191.55 21.4
Q 191.25 21.4 191 21.45 190.7 21.5 190.5 21.6 190.25 21.7 190 21.85 189.8 22 189.65 22.15 189.25 22.6 189.1 23.05 188.95 23.35 188.9 23.6
M 192.7 24.65
Q 192.85 24.65 193.1 24.65
L 197.35 24.65
Q 197.6 24.65 197.75 24.65 197.95 24.7 198 24.7 198.05 24.8 198.1 24.95 198.1 25.1 198.1 25.4
L 198.1 30
Q 197.6 30.5 196.85 30.6 196.45 30.75 196.05 30.75 195.7 30.8 195.25 30.8 195.05 30.8 194.85 30.75 194.6 30.75 194.35 30.75 194.1 30.7 193.85 30.65 193.65 30.6 193.4 30.55 193.25 30.5 193.05 30.45 192.9 30.4 192.7 30.35 192.55 30.3 192.45 30.25 192.4 30.2 192.4 30.15 192.35 30.05 192.35 29.95 192.35 29.9 192.35 29.8 192.35 29.7 192.35 29.6 192.35 29.5 192.35 29.4
L 192.35 25.4
Q 192.3 25.15 192.35 25 192.4 24.85 192.5 24.75 192.55 24.7 192.7 24.65
M 209.2 21.7
Q 209.2 21.35 209.05 21.1 208.95 20.8 208.7 20.7 208.45 20.55 208.15 20.45 207.85 20.4 207.5 20.4 207.15 20.4 206.85 20.5 206.55 20.55 206.25 20.7 205.95 20.9 205.8 21.15 205.6 21.4 205.6 21.7
L 205.6 37.65
Q 205.6 37.8 205.65 37.95 205.7 38.1 205.75 38.25 205.85 38.4 205.95 38.5 206.05 38.6 206.2 38.65 206.35 38.7 206.5 38.8 206.7 38.85 206.85 38.85 207 38.9 207.15 38.9 207.3 38.9 207.5 38.9 207.85 38.9 208.15 38.85 208.45 38.8 208.7 38.65 208.95 38.5 209.05 38.25 209.2 38 209.2 37.65
L 209.2 30.75 212.05 30.75
Q 212.45 30.75 212.7 30.65 213 30.5 213.1 30.25 213.4 29.8 213.4 29.2 213.4 28.9 213.35 28.6 213.25 28.3 213.1 28.05 212.85 27.65 212.05 27.65
L 209.2 27.65 209.2 21.7
M 182 37.05
Q 181.6 36.85 181.1 36.85
L 167.3 36.85
Q 166.85 36.85 166.6 36.95 166.3 37.05 166.25 37.3 166.1 37.5 166.05 37.8 166 38.1 166 38.4 166 38.7 166.05 39 166.1 39.25 166.25 39.5 166.3 39.7 166.6 39.85 166.85 39.95 167.3 39.95
L 178.35 39.95
Q 178.55 39.95 178.75 39.95 178.95 40 179.2 40 179.4 40.05 179.55 40.05 179.75 40.1 179.95 40.1
L 179.95 47.3
Q 179.95 47.5 179.95 47.65 180 47.8 180.05 47.95 180.15 48.1 180.4 48.3 180.7 48.4 180.95 48.5 181.05 48.5 181.2 48.5 181.35 48.55 181.5 48.55 181.8 48.55 182.1 48.5 182.45 48.4 182.7 48.35 182.95 48.2 183.05 47.95 183.2 47.7 183.2 47.3
L 183.2 39.5
Q 183.2 38.95 183.05 38.5 182.95 38 182.7 37.65 182.45 37.25 182 37.05
M 162.65 21.2
Q 162.35 21.2 162.05 21.3 161.8 21.35 161.55 21.45 161.25 21.6 161.1 21.85 160.95 22.05 160.95 22.4
L 160.95 30.4
Q 160.95 31.2 161.05 31.75 161.1 32.05 161.15 32.25 161.25 32.5 161.35 32.65 161.55 33.05 162.05 33.3 162.3 33.45 162.65 33.55 162.95 33.7 163.35 33.8 163.75 33.9 164.15 34 164.55 34.05 165 34.1 165.4 34.15 165.75 34.2 166.15 34.2 166.5 34.2 168.3 34.2 169.85 33.75 170.4 33.6 170.85 33.35 171.25 33.05 171.55 32.7 171.75 32.35 171.9 31.75 172 31.2 172 30.4
L 172 22.4
Q 172 22.05 171.9 21.85 171.75 21.6 171.45 21.45 171.2 21.35 170.9 21.3 170.6 21.2 170.3 21.2 170.05 21.2 169.75 21.3 169.5 21.35 169.25 21.45 168.95 21.6 168.8 21.85 168.7 22.05 168.7 22.4
L 168.7 24.8 164.15 24.8 164.15 22.4
Q 164.15 22.05 164 21.85 163.9 21.6 163.7 21.45 163.45 21.35 163.2 21.3 162.9 21.2 162.65 21.2
M 168.5 30.7
Q 168.3 30.75 168.15 30.8 167.95 30.85 167.8 30.85 167.65 30.9 167.45 30.95 167.3 31 167.1 31 166.9 31.05 166.7 31.1 166.5 31.1 166.3 31.1 166.05 31.1 165.75 31.05 165.5 31 165.2 30.95 164.9 30.9 164.65 30.75 164.35 30.6 164.2 30.35
L 164.2 27.9 168.7 27.9 168.7 29.55
Q 168.7 29.95 168.65 30.25 168.55 30.5 168.5 30.7
M 183.3 21.5
Q 183.3 21.1 183.2 20.85 183.1 20.6 182.9 20.45 182.65 20.35 182.35 20.3 182.05 20.25 181.7 20.25 181.35 20.25 181.1 20.3 180.8 20.35 180.6 20.45 180.4 20.6 180.25 20.85 180.15 21.1 180.15 21.5
L 180.15 25.9 177.6 25.9 177.6 22.05
Q 177.6 21.65 177.5 21.4 177.4 21.15 177.2 21.05 177 20.95 176.7 20.9 176.45 20.8 176.15 20.8 175.75 20.8 175.45 20.9 175.15 20.95 174.95 21.05 174.75 21.15 174.6 21.4 174.5 21.65 174.5 22.05
L 174.5 33.55
Q 174.5 34.25 174.95 34.55 175.35 34.8 176.15 34.8 176.75 34.8 177.2 34.55 177.4 34.4 177.5 34.15 177.6 33.9 177.6 33.55
L 177.6 29 180.15 29 180.15 33.75
Q 180.15 34.15 180.25 34.4 180.4 34.65 180.6 34.75 180.8 34.9 181.1 34.95 181.35 35 181.7 35 182.05 35 182.35 34.95 182.65 34.9 182.9 34.75 183.1 34.65 183.2 34.4 183.3 34.15 183.3 33.75
L 183.3 21.5
M 141.1 42.1
Q 141.05 42.35 141.05 42.8
L 141.05 44.15
Q 141.05 44.55 141.1 44.85 141.2 45.1 141.4 45.25 141.55 45.35 141.85 45.45 142.15 45.5 142.6 45.5
L 143.25 45.5
Q 143.25 45.6 143.15 45.75 143 45.9 142.9 46.15 142.75 46.35 142.55 46.5 142.3 46.7 142.1 46.8 141.9 46.95 141.75 47.05 141.6 47.15 141.5 47.2 141.4 47.3 141.35 47.4 141.25 47.5 141.25 47.65 141.25 47.9 141.35 48.05 141.4 48.25 141.5 48.4 141.7 48.65 141.95 48.65 142.05 48.65 142.25 48.65 142.4 48.6 142.6 48.55 142.8 48.5 142.9 48.4 143 48.4 143.05 48.35 143.25 48.25 143.45 48.1 143.65 48 143.85 47.8 144.1 47.65 144.3 47.4 144.45 47.2 144.65 46.95 144.85 46.7 145 46.4 145.15 46.1 145.25 45.8 145.35 45.45 145.4 45.1 145.45 44.7 145.45 44.3
L 145.45 42.8
Q 145.45 42.4 145.35 42.1 145.2 41.8 145 41.6 144.75 41.45 144.45 41.35 144.15 41.25 143.8 41.2
L 142.6 41.2
Q 142.15 41.2 141.85 41.3 141.55 41.4 141.4 41.6 141.2 41.8 141.1 42.1
M 122.45 39.15
Q 122.45 38.9 122.4 38.65 122.35 38.45 122.3 38.25 122.25 38.1 122.15 37.95 122.05 37.85 121.95 37.75 121.8 37.65 121.7 37.6 121.55 37.5 121.4 37.45 121.2 37.45 121.05 37.45 120.9 37.4 120.8 37.4 120.5 37.4 120.2 37.5 119.9 37.55 119.65 37.7 119.15 38 119.05 38.85
L 119.05 38.9 119 38.9
Q 119 38.95 119 39.05 119 39.2 119 39.35 118.95 39.6 118.95 39.95 118.95 40.35 118.95 40.9 118.95 41.3 118.95 41.75 118.95 42.15 119 42.6 119 43.05 119.05 43.5 119.15 43.9 119.25 44.3 119.3 44.8 119.45 45.25 119.6 45.75 119.8 46.15 120.05 46.6 120.5 46.95 120.9 47.3 121.55 47.55 122.2 47.75 122.95 47.9 123.65 48.05 124.4 48.15 125.15 48.2 125.85 48.25 126.55 48.3 127.25 48.3 128.05 48.3 128.8 48.25 129.55 48.2 130.25 48.1 130.95 48.05 131.5 47.9 132.1 47.8 132.6 47.75 133.05 47.6 133.45 47.5 133.8 47.4 134.1 47.3 134.35 47.2 134.5 47.15
L 134.65 47.05
Q 134.9 46.9 135.1 46.7 135.3 46.5 135.5 46.3 135.6 46.05 135.7 45.85 135.8 45.6 135.8 45.35 135.8 44.95 135.7 44.65 135.6 44.4 135.5 44.2 135.3 44 135.05 43.9 134.85 43.8 134.5 43.8 134.45 43.8 134.4 43.8
L 134.3 43.8
Q 134.2 43.8 134.1 43.85 134 43.85 133.9 43.85 133.9 43.9 133.8 43.95 133.65 44 133.4 44.05 133.1 44.15 132.7 44.25 132.35 44.35 131.9 44.45 131.4 44.55 130.85 44.65 130.3 44.75 129.7 44.85 129.05 44.9 128.35 44.95 127.7 45 126.95 45 126.45 45 125.95 45 125.4 44.95 124.85 44.9 124.3 44.85 123.8 44.75 123.3 44.6 122.9 44.4 122.75 44.35 122.65 44.25 122.6 44.15 122.55 43.95 122.5 43.8 122.45 43.6 122.4 43.4 122.4 43.15 122.35 42.9 122.35 42.65 122.35 42.4 122.35 42.15 122.35 41.9 122.35 41.65 122.35 41.4 122.35 41.15 122.35 40.65 122.35 40.3 122.35 39.95 122.4 39.7 122.4 39.45 122.4 39.3 122.45 39.2 122.45 39.15
M 131.1 21.15
Q 130.9 21.4 130.9 21.7
L 130.9 37.65
Q 130.9 37.8 130.95 37.95 131 38.1 131.05 38.25 131.15 38.4 131.25 38.5 131.35 38.6 131.5 38.65 131.65 38.7 131.8 38.8 132 38.85 132.15 38.85 132.3 38.9 132.45 38.9 132.6 38.9 132.8 38.9 133.15 38.9 133.45 38.85 133.75 38.8 134 38.65 134.25 38.5 134.35 38.25 134.5 38 134.5 37.65
L 134.5 30.75 137.35 30.75
Q 137.75 30.75 138 30.65 138.3 30.5 138.4 30.25 138.7 29.8 138.7 29.2 138.7 28.9 138.65 28.6 138.55 28.3 138.4 28.05 138.15 27.65 137.35 27.65
L 134.5 27.65 134.5 21.7
Q 134.5 21.35 134.35 21.1 134.25 20.8 134 20.7 133.75 20.55 133.45 20.45 133.15 20.4 132.8 20.4 132.45 20.4 132.15 20.5 131.85 20.55 131.55 20.7 131.25 20.9 131.1 21.15
M 126.3 22.55
Q 126.1 22.3 125.95 22.15 125.7 21.95 125.45 21.8 125.15 21.7 124.85 21.55 124.55 21.5 124.25 21.45 123.9 21.4 123.55 21.4
L 116.85 21.4
Q 116.55 21.4 116.3 21.45 116 21.5 115.8 21.6 115.55 21.7 115.3 21.85 115.1 22 114.95 22.15 114.55 22.6 114.4 23.05 114.25 23.35 114.2 23.6 114.15 23.9 114.15 24.15
L 114.15 30.4
Q 114.15 31.05 114.25 31.5 114.35 31.95 114.55 32.25 114.7 32.55 115.1 32.85 115.5 33.1 116.05 33.3 116.15 33.35 116.3 33.4 116.45 33.45 116.65 33.5 116.85 33.55 117.1 33.6 117.35 33.65 117.65 33.7 117.95 33.8 118.3 33.85 118.7 33.9 119.05 33.95 119.4 34 119.8 34 120.2 34.05 120.7 34.05 121.1 34.05 121.55 34 122 34 122.6 33.9 123.1 33.85 123.65 33.7 124.15 33.55 124.7 33.35 125.15 33.15 125.55 32.85 125.95 32.6 126.25 32.2 126.6 31.9 126.75 31.45 126.9 31 126.9 30.4
L 126.9 24.15
Q 126.9 23.85 126.85 23.55 126.75 23.3 126.65 23 126.45 22.75 126.3 22.55
M 122.65 24.65
Q 122.9 24.65 123.05 24.65 123.25 24.7 123.3 24.7 123.35 24.8 123.4 24.95 123.4 25.1 123.4 25.4
L 123.4 30
Q 122.9 30.5 122.15 30.6 121.75 30.75 121.35 30.75 121 30.8 120.55 30.8 120.35 30.8 120.15 30.75 119.9 30.75 119.65 30.75 119.4 30.7 119.15 30.65 118.95 30.6 118.7 30.55 118.55 30.5 118.35 30.45 118.2 30.4 118 30.35 117.85 30.3 117.75 30.25 117.7 30.2 117.7 30.15 117.65 30.05 117.65 29.95 117.65 29.9 117.65 29.8 117.65 29.7 117.65 29.6 117.65 29.5 117.65 29.4
L 117.65 25.4
Q 117.6 25.15 117.65 25 117.7 24.85 117.8 24.75 117.85 24.7 118 24.65 118.15 24.65 118.4 24.65
L 122.65 24.65
M 92 36.35
Q 91.65 36.5 91.55 36.75 91.4 37 91.4 37.3
L 91.4 44.35
Q 91.4 44.95 91.55 45.4 91.7 45.9 92.05 46.2 92.4 46.5 92.9 46.75 93.35 47 94 47.15 94.05 47.2 94.25 47.25 94.4 47.3 94.7 47.35 94.95 47.4 95.3 47.45 95.6 47.5 96 47.55 96.35 47.6 96.75 47.65 97.2 47.7 97.7 47.75 98.65 47.8 99.75 47.8 100.2 47.8 100.8 47.8 101.4 47.8 102.1 47.75 102.8 47.65 103.45 47.55 104.15 47.45 104.75 47.3 105.35 47.05 105.9 46.8 106.4 46.55 106.85 46.2 107.25 45.85 107.5 45.4 107.7 44.95 107.7 44.35
L 107.7 37.3
Q 107.7 37.15 107.65 37 107.6 36.85 107.5 36.7 107.4 36.6 107.3 36.5 107.15 36.4 107 36.3 106.8 36.25 106.7 36.2 106.55 36.15 106.4 36.1 106.25 36.05 106.1 36.05 105.95 36.05 105.8 36.05 105.5 36.05 105.2 36.1 104.9 36.2 104.65 36.35 104.35 36.5 104.2 36.75 104.05 37 104.05 37.3
L 104.05 38.9 95 38.9 95 37.3
Q 94.95 37.15 94.9 37 94.85 36.85 94.75 36.7 94.65 36.6 94.55 36.5 94.45 36.4 94.3 36.3 94.15 36.25 94 36.2 93.9 36.15 93.75 36.1 93.6 36.05 93.45 36.05 93.25 36.05 93.15 36.05 92.85 36.05 92.55 36.1 92.25 36.2 92 36.35
M 95.5 44.15
Q 95.25 44 95.1 43.8 95 43.65 95 43.4
L 95 41.85 104.05 41.85 104.05 43.4
Q 104.05 43.55 103.95 43.7 103.9 43.85 103.75 44 103.55 44.1 103.4 44.2 103.25 44.3 103.1 44.35 102.85 44.4 102.6 44.45 102.35 44.55 102.05 44.6 101.75 44.65 101.45 44.65 101.2 44.7 100.9 44.75 100.55 44.8 100.15 44.8 99.8 44.8 99.4 44.8 99.15 44.8 98.85 44.8 98.55 44.8 98.2 44.8 97.85 44.75 97.45 44.7 97.05 44.65 96.7 44.6 96 44.45 95.5 44.15
M 90.8 22.4
L 90.8 23.7
Q 90.8 24.8 90.45 25.75 90.1 26.7 89.45 27.6 88.8 28.45 87.95 29.15 87.1 29.9 86.1 30.5
L 85.9 30.55
Q 85.6 30.8 85.4 31 85.25 31.25 85.25 31.45 85.25 31.8 85.45 32.2 85.5 32.35 85.65 32.55 85.75 32.7 85.9 32.8 86.05 32.95 86.2 33.05 86.35 33.15 86.5 33.25 86.75 33.4 87.05 33.4 87.15 33.4 87.3 33.4 87.4 33.35 87.5 33.3 87.6 33.25 87.7 33.25 87.75 33.2 87.8 33.2
L 87.85 33.2
Q 88.55 32.8 89.2 32.25 89.85 31.75 90.45 31.1 91.05 30.45 91.6 29.75 92.1 29.1 92.6 28.4 93.1 29.1 93.6 29.75 94.15 30.4 94.75 30.95 95.3 31.55 96.05 32.05 96.75 32.55 97.6 33 97.7 33.1 97.95 33.1 98.2 33.1 98.35 33.05 98.55 33 98.7 32.85 98.85 32.75 98.95 32.6 99.1 32.45 99.15 32.3 99.3 32.15 99.4 31.95 99.5 31.75 99.6 31.6 99.65 31.4 99.7 31.25 99.75 31.15 99.75 31 99.75 30.75 99.55 30.5 99.4 30.3 99.05 30.1 98.5 29.75 98 29.4 97.5 29.05 97.1 28.7 96.7 28.3 96.3 27.9 95.9 27.5 95.6 27.05 95.3 26.6 95.1 26.1 94.85 25.6 94.7 25.05 94.35 23.9 94.35 22.4 94.35 22.05 94.2 21.85 94.1 21.6 93.8 21.45 93.25 21.2 92.65 21.2 92.5 21.2 92.35 21.2 92.2 21.2 92.05 21.25 91.85 21.3 91.7 21.35 91.55 21.4 91.45 21.45 91.35 21.55 91.2 21.65 91.05 21.7 91 21.8 90.9 21.95 90.85 22.1 90.8 22.25 90.8 22.4
M 106.05 20.45
Q 105.3 20.45 104.8 20.6 104.55 20.7 104.45 21 104.3 21.25 104.3 21.65
L 104.3 33
Q 104.3 33.4 104.45 33.65 104.55 33.9 104.8 34 105.3 34.3 106.05 34.3 106.4 34.3 106.7 34.25 107 34.15 107.3 34 107.6 33.9 107.75 33.65 107.9 33.4 107.9 33
L 107.9 21.65
Q 107.9 21.45 107.85 21.3 107.8 21.15 107.75 21 107.65 20.9 107.55 20.8 107.5 20.7 107.35 20.6 107.2 20.55 107.05 20.55 106.9 20.5 106.75 20.45 106.6 20.45 106.45 20.45 106.25 20.45 106.05 20.45 Z"/>
</g>

<path id="Layer0_0_1_STROKES" stroke="#569ECC" stroke-width="5" stroke-linejoin="round" stroke-linecap="round" fill="none" d="
M 486.6 4.2
L 642.45 4.2 715.95 4.2 1188.25 4.2
Q 1198.6 4.2 1205.9 11.5 1213.25 18.85 1213.25 29.2
L 1213.25 75.45 1213.25 201.95 1213.25 338.85
Q 1213.25 349.25 1205.9 356.5 1198.65 363.85 1188.25 363.85
L 715.95 363.85 557.45 363.85 29.75 363.85
Q 19.4 363.85 12.05 356.5 4.75 349.2 4.75 338.85
L 4.75 201.95 4.75 75.45 4.75 29.2
Q 4.75 18.9 12.05 11.5 19.45 4.2 29.75 4.2
L 52.5 4.2 486.6 4.2 Z"/>
</defs>

<g transform="matrix( 1, 0, 0, 1, 0,0) ">
<use xlink:href="#Layer0_0_FILL"/>

<use xlink:href="#Layer0_0_1_STROKES"/>
</g>

<g transform="matrix( 1, 0, 0, 1, 0,0) ">
<use xlink:href="#Layer0_1_FILL"/>
</g>
</svg>
