
<svg xmlns="http://www.w3.org/2000/svg" version="1.1" xmlns:xlink="http://www.w3.org/1999/xlink" preserveAspectRatio="none" x="0px" y="0px" width="1135px" height="570px" viewBox="0 0 1135 570">
<defs>
<g id="Layer0_0_FILL">
<path fill="#569ECC" stroke="none" d="
M 396.85 46.95
L 396.85 4.95 52.75 4.95 52.75 46.95
Q 52.75 57.3 60.05 64.6 67.4 71.95 77.75 71.95
L 371.85 71.95
Q 382.25 71.95 389.5 64.6 396.85 57.35 396.85 46.95 Z"/>

<path fill="#FFFFFF" stroke="none" d="
M 1130 29.95
Q 1130 19.6 1122.65 12.25 1115.35 4.95 1105 4.95
L 396.85 4.95 396.85 46.95
Q 396.85 57.35 389.5 64.6 382.25 71.95 371.85 71.95
L 77.75 71.95
Q 67.4 71.95 60.05 64.6 52.75 57.3 52.75 46.95
L 52.75 4.95 30 4.95
Q 19.7 4.95 12.3 12.25 5 19.65 5 29.95
L 5 540.1
Q 5 550.45 12.3 557.75 19.65 565.1 30 565.1
L 1105 565.1
Q 1115.4 565.1 1122.65 557.75 1130 550.5 1130 540.1
L 1130 29.95 Z"/>
</g>

<g id="Layer0_1_FILL">
<path fill="#FFFFFF" stroke="none" d="
M 346.95 23.8
Q 346.2 23.45 345.4 23.2 344.55 22.95 343.65 22.8 342.75 22.7 341.8 22.7 340.75 22.7 339.85 22.8 338.95 22.95 338.15 23.2 337.3 23.45 336.6 23.8 335.9 24.2 335.3 24.65 334.7 25.1 334.25 25.7 333.8 26.25 333.45 26.9 333.1 27.6 332.95 28.35 332.8 29.05 332.8 29.9 332.8 30.55 332.9 31.2 333.05 31.8 333.3 32.4 333.5 33 333.85 33.55 334.15 34.1 334.65 34.55 335.05 34.95 335.5 35.3 335.95 35.65 336.45 35.9 336.35 36.05 336.3 36.25 336.25 36.45 336.25 36.65
L 336.25 41.25 329.95 41.25
Q 329.55 41.25 329.25 41.35 329 41.5 328.85 41.7 328.7 41.95 328.65 42.25 328.55 42.55 328.55 42.85 328.55 43.2 328.65 43.45 328.7 43.7 328.85 43.95 329 44.2 329.25 44.3 329.55 44.4 329.95 44.4
L 353.5 44.4
Q 354 44.4 354.25 44.3 354.55 44.2 354.65 43.95 354.8 43.7 354.85 43.45 354.9 43.2 354.9 42.85 354.9 42.55 354.85 42.25 354.8 41.95 354.65 41.7 354.55 41.5 354.25 41.35 354 41.25 353.5 41.25
L 347.55 41.25 347.55 36.65
Q 347.55 36.35 347.45 36.1 347.4 35.9 347.25 35.75 347.5 35.6 347.75 35.45 348.05 35.3 348.3 35.1 349.55 34.15 350.15 32.85 350.8 31.55 350.8 29.9 350.8 28.25 350.15 26.9 349.85 26.25 349.35 25.7 348.9 25.1 348.3 24.65 347.7 24.2 346.95 23.8
M 339.5 26.15
Q 340.5 25.9 341.8 25.9 343.1 25.9 344.1 26.15 345.1 26.45 345.8 26.95 346.5 27.55 346.85 28.25 347.15 29 347.15 29.9 347.15 31.75 345.8 32.75 345.1 33.3 344.1 33.55 343.1 33.85 341.8 33.85 340.5 33.85 339.5 33.55 338.5 33.3 337.8 32.75 336.35 31.75 336.35 29.9 336.35 29 336.7 28.25 337.05 27.55 337.8 26.95 338.5 26.45 339.5 26.15
M 341.85 37.1
Q 342.35 37.05 342.85 37 343.35 36.95 343.8 36.9 343.9 36.9 344 36.9 344.1 36.85 344.25 36.85
L 344.25 41.25 339.65 41.25 339.65 36.95
Q 340.2 37.05 340.7 37.05 340.95 37.05 341.25 37.05 341.5 37.1 341.85 37.1
M 312.35 23.55
Q 312 23.55 311.75 23.65 311.55 23.75 311.4 24 311.25 24.25 311.2 24.5 311.1 24.8 311.1 25.05 311.1 25.35 311.15 25.65 311.25 25.95 311.4 26.2 311.6 26.75 312.35 26.75
L 314.2 26.75
Q 314.25 27.2 314.25 27.6 314.25 27.75 314.25 27.8 314.25 27.85 314.25 27.95 314.25 28 314.25 28.1 314.25 28.15 314.25 28.2 314.15 28.95 314.05 29.75 314 30.5 313.85 31.25 313.75 32 313.55 32.7 313.4 33.45 313.2 34.1 312.9 34.85 312.6 35.5 312.3 36.2 312 36.8 311.65 37.4 311.25 37.95 310.85 38.5 310.4 39 310.3 39.2 310.25 39.35 310.2 39.5 310.2 39.7 310.2 40.1 310.35 40.45 310.5 40.75 310.8 41 311.15 41.25 311.45 41.35 311.8 41.45 312.15 41.45 312.4 41.45 312.6 41.35 312.8 41.3 312.95 41.05 313.6 40.4 314.15 39.6 314.7 38.85 315.2 37.95 315.65 37.1 316.05 36.2 316.45 35.3 316.7 34.3 317.05 33.3 317.3 32.3 317.5 31.25 317.65 30.2 317.75 29.2 317.8 28.15 317.9 27.1 317.9 26.05 317.9 25.75 317.85 25.5 317.85 25.25 317.8 25 317.75 24.75 317.65 24.55 317.55 24.35 317.45 24.2 317.3 24.05 317.1 23.9 316.85 23.8 316.6 23.7 316.3 23.65 315.9 23.6 315.55 23.55 315.05 23.55
L 312.35 23.55
M 308.25 23.6
Q 307.9 23.55 307.45 23.55
L 304.35 23.55
Q 304.05 23.55 303.8 23.7 303.55 23.8 303.4 24.05 303.2 24.3 303.15 24.55 303.05 24.85 303.05 25.2 303.05 25.5 303.15 25.75 303.25 26 303.4 26.2 303.6 26.45 303.85 26.55 304.05 26.65 304.35 26.65
L 306.8 26.65
Q 306.8 26.75 306.8 26.85 306.8 26.9 306.85 26.95 306.85 27.05 306.85 27.15 306.85 27.2 306.85 27.25 306.85 27.4 306.85 27.5 306.85 27.55 306.85 27.65 306.8 27.75 306.8 27.9 306.8 28 306.8 28.1 306.7 28.75 306.65 29.35 306.55 30 306.45 30.6 306.35 31.25 306.2 31.85 306.05 32.45 305.85 33.05 305.65 33.55 305.35 34.1 305.1 34.6 304.8 35.05 304.5 35.55 304.15 36 303.8 36.45 303.4 36.8 302.95 37.25 302.95 37.8 302.95 38.1 303.05 38.35 303.15 38.6 303.4 38.8 303.5 39 303.65 39.1 303.8 39.25 303.9 39.3 304.05 39.35 304.2 39.35 304.4 39.4 304.55 39.4 304.75 39.4 304.95 39.35 305.1 39.35 305.25 39.25 305.95 38.75 306.55 38.15 307.15 37.45 307.65 36.65 308.15 35.8 308.5 34.95 308.9 34.05 309.15 33.1 309.45 32.15 309.7 31.2 309.9 30.25 310.05 29.3 310.1 28.35 310.2 27.5 310.25 26.65 310.25 25.85 310.25 25.3 310.15 24.85 310.05 24.45 309.8 24.15 309.6 24 309.4 23.9 309.2 23.8 308.9 23.7 308.6 23.65 308.25 23.6
M 324.25 22.3
Q 324.25 21.9 324.1 21.65 324 21.4 323.75 21.25 323.5 21.15 323.2 21.05 322.9 21 322.55 21 322.15 21 321.9 21.05 321.6 21.15 321.4 21.25 321.2 21.4 321.05 21.65 320.95 21.9 320.95 22.3
L 320.95 48.05
Q 320.95 48.4 321.05 48.65 321.2 48.9 321.4 49.05 321.6 49.15 321.9 49.25 322.15 49.3 322.55 49.3 322.9 49.3 323.2 49.25 323.5 49.15 323.75 49.05 324 48.9 324.1 48.65 324.25 48.4 324.25 48.05
L 324.25 34.45 327.15 34.45
Q 327.5 34.45 327.8 34.3 328.05 34.2 328.25 33.95 328.4 33.7 328.5 33.4 328.6 33.15 328.6 32.8 328.6 32.5 328.5 32.2 328.4 31.95 328.25 31.7 327.9 31.25 327.15 31.25
L 324.25 31.25 324.25 22.3
M 292.7 41.4
Q 292.65 41.5 292.55 41.6
L 281.9 41.6
Q 281.3 41.6 280.85 41.7 280.4 41.85 280.05 42.05 279.7 42.25 279.5 42.65 279.3 43.05 279.3 43.6
L 279.3 43.8
Q 279.3 44.1 279.3 44.35 279.3 44.6 279.35 44.8 279.35 45.05 279.35 45.3 279.35 45.55 279.35 45.8 279.35 46.35 279.55 46.8 279.8 47.25 280.2 47.6 280.6 47.95 281.1 48.2 281.6 48.45 282.25 48.65 282.85 48.8 283.5 48.95 284.15 49.05 284.9 49.15 285.6 49.2 286.25 49.25 286.9 49.3 287.5 49.3 289.1 49.3 290.55 49.1 291.25 49 291.9 48.9 292.5 48.8 293.1 48.7 294.35 48.45 295.5 48.15 296 48.05 296.3 47.65 296.45 47.4 296.55 47.2 296.6 46.95 296.6 46.75 296.6 46.2 296.25 45.85 296.1 45.7 295.85 45.6 295.6 45.55 295.3 45.55 295.1 45.55 294.95 45.55 294.75 45.55 294.5 45.6 294.05 45.75 293.55 45.85 293 45.95 292.5 46.1 292 46.15 291.45 46.25 290.95 46.35 290.3 46.4 289.7 46.5 289 46.5 288.35 46.55 287.6 46.55 287.05 46.55 286.45 46.5 285.9 46.5 285.3 46.45 284.05 46.25 283.05 45.9 283 45.75 282.95 45.55 282.95 45.35 282.95 45.1
L 282.95 44.95
Q 282.95 44.85 282.95 44.8 282.95 44.7 282.95 44.6 282.95 44.55 283 44.45 283 44.4 283.05 44.3
L 293.15 44.3
Q 293.5 44.3 293.8 44.3 294.05 44.25 294.35 44.2 294.55 44.15 294.8 44.05 295.05 43.95 295.3 43.8 295.45 43.7 295.6 43.5 295.75 43.35 295.9 43.1 296 42.85 296.05 42.55 296.1 42.25 296.1 41.9
L 296.2 41.9
Q 296.2 40.8 296.1 39.95 296.05 39.5 295.95 39.15 295.85 38.85 295.7 38.55 295.45 38.05 294.9 37.75 294.6 37.6 294.15 37.55 293.75 37.45 293.15 37.45
L 280.75 37.45
Q 280.4 37.45 280.1 37.6 279.85 37.7 279.7 37.9 279.45 38.1 279.35 38.4 279.25 38.65 279.25 39 279.25 39.65 279.6 39.95 280 40.25 280.75 40.25
L 292.55 40.25
Q 292.65 40.4 292.7 40.55 292.7 40.65 292.7 40.8
L 292.7 41.05
Q 292.7 41.25 292.7 41.4
M 292.85 22.8
L 292.85 23.7 282.5 23.7 282.5 22.8
Q 282.5 22.65 282.45 22.5 282.4 22.35 282.3 22.2 282.2 22.1 282.1 22 282 21.9 281.85 21.8 281.65 21.7 281.3 21.65 281.15 21.6 281 21.6 280.8 21.55 280.7 21.55 280.4 21.55 280.15 21.65 279.85 21.7 279.55 21.8 279.25 21.95 279.1 22.2 278.95 22.45 278.95 22.8
L 278.95 27.5
Q 278.95 28.35 279.1 28.95 279.25 29.55 279.55 29.9 279.8 30.3 280.2 30.6 280.55 30.85 281 30.95 281.85 31.2 282.7 31.35 283.5 31.5 284.3 31.6 284.75 31.7 285.15 31.75 285.55 31.75 285.95 31.75
L 285.95 33.05 275.6 33.05
Q 275.3 33.05 275.05 33.2 274.8 33.3 274.65 33.5 274.5 33.75 274.45 34.05 274.35 34.35 274.35 34.65 274.35 34.95 274.45 35.25 274.5 35.5 274.65 35.7 274.8 35.95 275.05 36.1 275.3 36.2 275.6 36.2
L 299.8 36.2
Q 300.2 36.2 300.45 36.1 300.7 35.95 300.9 35.7 301 35.5 301.1 35.25 301.2 34.95 301.2 34.65 301.2 34.35 301.1 34.05 301 33.75 300.9 33.5 300.55 33.05 299.8 33.05
L 289.55 33.05 289.55 31.75
Q 289.95 31.75 290.35 31.7 290.7 31.65 291.15 31.55 292 31.45 292.8 31.3 293.65 31.15 294.4 30.95 294.85 30.9 295.25 30.65 295.65 30.4 295.9 30.05 296.45 29.3 296.45 27.85
L 296.45 22.8
Q 296.45 22.65 296.35 22.5 296.3 22.35 296.25 22.2 296.1 22.1 296 22 295.9 21.9 295.75 21.8 295.5 21.7 295.2 21.65 295.05 21.6 294.85 21.6 294.7 21.55 294.55 21.55 294.3 21.55 294.05 21.65 293.75 21.7 293.45 21.8 293.15 21.95 293 22.2 292.85 22.45 292.85 22.8
M 292.85 26.55
L 292.85 27.75 292.75 27.85
Q 292.65 27.9 292.5 27.95 292.15 28.15 291.6 28.2 291.25 28.3 290.8 28.35 290.4 28.45 289.95 28.45 289.45 28.55 288.85 28.55 288.2 28.6 287.5 28.6 286.9 28.6 286.35 28.55 285.75 28.55 285.1 28.45 284.45 28.35 283.85 28.25 283.2 28.15 282.6 27.95 282.55 27.85 282.55 27.8 282.55 27.7 282.55 27.6 282.55 27.5 282.5 27.45 282.5 27.35 282.5 27.25
L 282.5 26.55 292.85 26.55
M 249.5 30.85
Q 249.15 30.4 248.7 30.05 248.25 29.7 247.75 29.45 247.2 29.2 246.6 29.05 246 28.95 245.35 28.95 244.75 28.95 244.15 29.05 243.55 29.2 243.05 29.45 242.5 29.7 242.05 30.05 241.6 30.4 241.3 30.8 240.45 31.7 240 32.9 239.8 33.5 239.7 34.15 239.6 34.8 239.6 35.5 239.6 36.2 239.7 36.8 239.8 37.4 240 38 240.2 38.6 240.55 39.15 240.85 39.65 241.3 40.05 241.6 40.5 242.05 40.85 242.5 41.2 243.05 41.45 243.55 41.7 244.15 41.8 244.75 41.95 245.35 41.95 246 41.95 246.6 41.8 247.2 41.7 247.75 41.45 248.25 41.2 248.7 40.8 249.15 40.45 249.5 40 249.9 39.6 250.2 39.1 250.5 38.55 250.7 38 250.9 37.4 251 36.8 251.1 36.2 251.1 35.5 251.1 34.8 251 34.15 250.9 33.55 250.7 32.95 250.5 32.4 250.2 31.85 249.9 31.35 249.5 30.85
M 246.95 33.1
Q 247.1 33.35 247.2 33.65 247.35 33.9 247.45 34.2 247.55 34.5 247.6 34.85 247.65 35.15 247.65 35.5 247.65 35.85 247.6 36.15 247.55 36.45 247.45 36.7 247.35 37.05 247.2 37.3 247.1 37.55 246.95 37.75 246.8 38 246.65 38.15 246.5 38.35 246.25 38.45 245.8 38.75 245.35 38.75 244.8 38.75 244.4 38.5 243.95 38.25 243.7 37.75 243.35 37.3 243.2 36.75 243.1 36.2 243.1 35.5 243.1 34.8 243.2 34.2 243.35 33.6 243.7 33.1 243.95 32.6 244.4 32.35 244.8 32.15 245.35 32.15 245.8 32.15 246.25 32.4 246.5 32.55 246.65 32.7 246.8 32.9 246.95 33.1
M 253.5 22.25
Q 253.35 22.5 253.35 22.85
L 253.35 47.25
Q 253.35 47.65 253.5 47.9 253.6 48.15 253.85 48.3 254.1 48.4 254.45 48.5 254.75 48.55 255.15 48.55 255.4 48.55 255.7 48.5 255.95 48.4 256.2 48.3 256.45 48.15 256.55 47.9 256.7 47.65 256.7 47.25
L 256.7 34.45 259.3 34.45 259.3 48.1
Q 259.3 48.45 259.4 48.7 259.55 49 259.8 49.1 260 49.25 260.3 49.3 260.6 49.35 260.9 49.35 261.25 49.35 261.6 49.3 261.9 49.25 262.15 49.1 262.4 49 262.5 48.7 262.65 48.45 262.65 48.1
L 262.65 22.3
Q 262.65 21.95 262.5 21.7 262.4 21.45 262.15 21.3 261.9 21.2 261.6 21.15 261.25 21.1 260.9 21.1 260.6 21.1 260.3 21.15 260 21.2 259.8 21.3 259.55 21.45 259.4 21.7 259.3 21.95 259.3 22.3
L 259.3 31.3 256.7 31.3 256.7 22.85
Q 256.7 22.5 256.55 22.25 256.45 21.95 256.2 21.85 255.95 21.75 255.7 21.7 255.4 21.65 255.15 21.65 254.75 21.65 254.45 21.7 254.1 21.75 253.85 21.85 253.6 21.95 253.5 22.25
M 246.9 21.1
Q 246.8 20.8 246.55 20.65 246.3 20.6 246.05 20.5 245.75 20.45 245.45 20.45 245.05 20.45 244.8 20.5 244.5 20.6 244.3 20.65 244.05 20.8 243.95 21.1 243.8 21.35 243.8 21.8
L 243.8 24.35
Q 243.35 24.35 242.85 24.35 242.35 24.35 241.85 24.3 240.85 24.3 239.95 24.3 239.2 24.3 239 24.75 238.85 24.95 238.8 25.25 238.75 25.55 238.75 25.9 238.75 26.2 238.8 26.45 238.85 26.7 239 26.95 239.1 27.2 239.35 27.3 239.6 27.4 239.95 27.4 242.6 27.4 245.25 27.4 246.6 27.45 247.9 27.45 249.2 27.45 250.5 27.45
L 250.65 27.45
Q 251.05 27.45 251.35 27.35 251.6 27.2 251.8 26.95 251.9 26.7 252 26.45 252.05 26.2 252.05 25.9 252.05 25.55 251.95 25.3 251.9 25 251.75 24.8 251.45 24.35 250.65 24.35
L 247.05 24.35 247.05 21.8
Q 247.05 21.35 246.9 21.1
M 227.1 36.7
Q 227.45 36.7 227.75 36.6 228 36.55 228.2 36.3 228.3 36.1 228.4 35.85 228.5 35.55 228.5 35.25 228.5 34.95 228.4 34.65 228.3 34.4 228.2 34.2 228 34 227.75 33.9 227.45 33.8 227.1 33.8
L 202.9 33.8
Q 202.65 33.8 202.4 33.9 202.15 34 202 34.2 201.85 34.4 201.75 34.65 201.65 34.95 201.65 35.25 201.65 35.55 201.75 35.85 201.85 36.1 202 36.3 202.15 36.55 202.4 36.6 202.65 36.7 202.9 36.7
L 227.1 36.7
M 209.2 42.35
Q 208.6 42.35 208.15 42.4 207.7 42.5 207.35 42.7 206.6 43.05 206.6 44.15
L 206.6 44.3
Q 206.6 44.5 206.6 44.7 206.6 44.9 206.65 45.05 206.65 45.3 206.65 45.5 206.65 45.65 206.65 45.85 206.65 46.4 206.85 46.85 207.1 47.25 207.45 47.6 207.9 47.95 208.4 48.2 208.9 48.45 209.5 48.65 210.1 48.8 210.7 48.95 211.35 49.05 212 49.15 212.7 49.2 213.3 49.25 213.9 49.3 214.5 49.3 216.15 49.3 217.65 49.1 218.35 49 219.05 48.9 219.7 48.8 220.3 48.7 221.6 48.45 222.8 48.15 223.05 48.1 223.25 48 223.45 47.85 223.6 47.7 223.75 47.45 223.85 47.25 223.9 47.05 223.9 46.85 223.9 46.25 223.55 45.95 223.35 45.75 223.1 45.65 222.85 45.6 222.6 45.6 222.4 45.6 222.25 45.65 222.05 45.65 221.8 45.7 221.35 45.85 220.85 45.95 220.35 46.05 219.8 46.15 219.3 46.25 218.75 46.35 218.2 46.4 217.6 46.5 216.95 46.55 216.25 46.6 215.55 46.6 214.85 46.6 214.3 46.6 213.75 46.6 213.15 46.55 212.6 46.5 211.95 46.4 211.4 46.3 210.85 46.15 210.35 46 210.3 45.85 210.25 45.7 210.25 45.5 210.25 45.35
L 210.25 45.25
Q 210.25 45.1 210.25 45 210.3 44.85 210.35 44.75
L 220.7 44.75
Q 221.25 44.75 221.75 44.6 222.2 44.5 222.65 44.25 223 44.05 223.2 43.6 223.4 43.15 223.4 42.5
L 223.5 42.5
Q 223.5 41.35 223.4 40.55 223.35 40.1 223.25 39.8 223.15 39.5 223 39.25 222.9 39 222.7 38.8 222.45 38.6 222.2 38.5 221.85 38.4 221.45 38.35 221 38.3 220.45 38.3
L 208.05 38.3
Q 207.3 38.3 206.9 38.6 206.55 38.95 206.55 39.6 206.55 39.95 206.65 40.15 206.75 40.4 207 40.55 207.35 40.8 208.05 40.8
L 219.85 40.8
Q 219.95 40.95 220 41.1 220 41.3 220 41.45
L 220 41.75
Q 220 41.9 220 42.05 219.95 42.2 219.85 42.35
L 209.2 42.35
M 223.9 24.3
Q 223.9 23.7 223.7 23.3 223.55 22.85 223.15 22.55 222.75 22.25 222.3 22.1 221.85 21.95 221.3 21.95
L 207.75 21.95
Q 207.4 21.95 207.1 22 206.85 22.1 206.65 22.25 206.4 22.4 206.3 22.65 206.2 22.9 206.2 23.2 206.2 23.55 206.3 23.75 206.4 24 206.65 24.1 206.85 24.3 207.1 24.35 207.4 24.4 207.75 24.4
L 220.25 24.4
Q 220.35 24.75 220.35 25.05
L 220.35 25.25
Q 220.35 25.4 220.3 25.55 220.3 25.7 220.25 25.85
L 208.95 25.85
Q 208.4 25.85 207.9 25.95 207.45 26.1 207.1 26.35 206.7 26.65 206.5 27.05 206.3 27.5 206.3 28.05
L 206.3 28.8
Q 206.3 29.2 206.35 29.45 206.4 29.75 206.45 29.95 206.6 30.4 206.9 30.65 207.1 30.8 207.3 30.95 207.55 31.1 207.8 31.15 208 31.3 208.3 31.4 208.65 31.5 209.05 31.6 209.9 31.8 210.7 31.95 211.55 32.05 212.4 32.15 213.25 32.2 214 32.25 214.8 32.3 215.55 32.3 216.35 32.3 217.1 32.25 217.8 32.2 218.5 32.15 219.2 32.1 219.8 32.05 220.35 31.95 220.8 31.9 221.35 31.85 221.85 31.75 222.4 31.65 222.85 31.5 223.25 31.4 223.55 31.3 223.85 31.2 224.05 31.05 224.5 30.85 224.5 30.25 224.5 29.9 224.45 29.65 224.35 29.4 224.15 29.2 224 29.05 223.75 28.95 223.55 28.9 223.3 28.9 223.15 28.9 223.05 28.9 222.95 28.95 222.85 28.95 222.7 29 222.6 29.05 222.45 29.05 222.3 29.1 221.85 29.25 221.35 29.35 220.85 29.45 220.3 29.55 219.8 29.65 219.25 29.7 218.7 29.8 218.05 29.8 217.45 29.9 216.75 29.95 216.1 29.95 215.45 29.95 214.1 29.95 212.75 29.8 212.05 29.7 211.35 29.55 210.65 29.4 210 29.15 209.9 29.05 209.85 28.95 209.8 28.8 209.8 28.6
L 209.8 28.15
Q 210.1 28.1 210.45 28.1 210.8 28.1 211.2 28.1
L 221 28.1
Q 221.25 28.1 221.55 28.05 221.8 28.05 222.1 27.95 222.35 27.9 222.55 27.85 222.8 27.75 222.95 27.6 223.15 27.5 223.3 27.35 223.5 27.15 223.65 26.95 223.8 26.75 223.85 26.5 223.9 26.25 223.9 25.9
L 223.9 24.3
M 198.1 22.3
Q 198.1 21.95 198 21.7 197.85 21.4 197.6 21.25 197.05 21 196.35 21 195.7 21 195.2 21.25 194.9 21.4 194.75 21.7 194.6 21.95 194.6 22.3
L 194.6 48.05
Q 194.6 48.4 194.75 48.65 194.9 48.9 195.2 49 195.7 49.3 196.35 49.3 197.05 49.3 197.6 49 197.85 48.9 198 48.65 198.1 48.4 198.1 48.05
L 198.1 22.3
M 188.45 24.1
Q 188.3 23.95 188.1 23.85 187.9 23.75 187.6 23.65 187.35 23.6 186.95 23.6 186.55 23.55 186.1 23.55
L 178.55 23.55
Q 178.25 23.55 178 23.65 177.8 23.75 177.6 24 177.4 24.25 177.3 24.5 177.2 24.8 177.2 25.1 177.2 25.45 177.3 25.7 177.4 25.95 177.6 26.2 177.8 26.45 178 26.55 178.25 26.65 178.55 26.65
L 184.05 26.65
Q 184.2 26.65 184.4 26.65 184.55 26.65 184.7 26.65 184.85 26.65 185 26.7 185.2 26.7 185.4 26.75 185.4 27.45 185.35 28.1 185.3 28.7 185.15 29.25 185.05 29.85 184.85 30.35 184.7 30.85 184.55 31.3 184.35 31.75 184.15 32.15 183.9 32.55 183.7 32.95 183.4 33.3 183.15 33.7 182.85 34.05 182.55 34.4 182.3 34.7 182.05 35 181.8 35.25 181.55 35.5 181.3 35.7 181.1 35.9 180.85 36.1 180.7 36.3 180.4 36.5 180.15 36.65 179.85 36.85 179.6 37.05 179.25 37.2 178.9 37.45 178.5 37.65 178 37.9 177.95 37.95 177.85 38 177.8 38 177.75 38.05 177.35 38.2 177.15 38.45 176.95 38.75 176.95 39.1 176.95 39.85 177.45 40.45 177.8 41.1 178.4 41.1 178.6 41.1 178.85 41 179.6 40.7 180.2 40.4 180.85 40.1 181.3 39.8 182.2 39.25 183.1 38.55 183.5 38.25 183.85 37.9 184.2 37.5 184.6 37.1 184.95 36.7 185.35 36.15 185.75 35.65 186.2 35.05 186.55 34.55 186.9 34 187.2 33.5 187.5 32.95 187.7 32.4 187.95 31.8 188.15 31.25 188.35 30.6 188.45 30 188.6 29.4 188.75 28.8 188.85 28.15 188.95 27.6 189 27 189.05 26.4 189.05 25.85 189.05 25.55 189 25.3 189 25.05 188.9 24.8 188.75 24.4 188.45 24.1
M 157.2 23.85
Q 157 23.25 156.55 22.95 156.1 22.65 155.4 22.6 155.1 22.65 154.8 22.7 154.55 22.8 154.3 22.95 154.05 23.15 153.95 23.35 153.8 23.6 153.75 23.85
L 153.75 24.85
Q 153.75 26.15 153.65 27.3 153.6 28.4 153.45 29.35 153.3 30.3 153.1 31.1 152.85 31.95 152.6 32.7 152.35 33.4 152 34.1 151.65 34.75 151.25 35.35 150.8 35.95 150.3 36.55 149.85 37.15 149.3 37.75 149.15 37.95 149.05 38.1 148.95 38.25 148.9 38.35 148.85 38.5 148.85 38.6 148.8 38.75 148.8 38.9 148.8 39.2 148.95 39.45 149.05 39.75 149.35 40 149.6 40.3 149.9 40.45 150.2 40.6 150.55 40.6 150.85 40.6 151.05 40.55 151.25 40.45 151.35 40.3 152.1 39.6 152.75 38.85 153.35 38.1 153.85 37.3 154.3 36.55 154.7 35.75 155.1 35 155.45 34.3 155.65 34.65 155.8 35.05 156 35.45 156.2 35.8 156.35 36.2 156.55 36.55 156.75 36.95 157 37.25 157.2 37.65 157.45 38 157.7 38.35 158 38.65 158.25 39 158.5 39.3 158.8 39.6 159.15 39.85 159.6 40.15 160.05 40.15 160.3 40.15 160.7 39.95 160.85 39.9 160.95 39.8 161.1 39.7 161.25 39.6 161.35 39.45 161.4 39.3 161.5 39.2 161.55 39 161.65 38.85 161.7 38.7 161.75 38.55 161.75 38.4 161.7 38.15 161.6 37.9 161.5 37.65 161.35 37.45 160.25 36.3 159.45 35.15 158.65 33.95 158.2 32.75 157.2 30.3 157.2 27.5
L 157.2 23.85
M 171.8 21.35
Q 171.5 21.2 171.2 21.15 170.9 21.1 170.5 21.1 170.2 21.1 169.95 21.15 169.65 21.2 169.45 21.35 169.25 21.45 169.15 21.7 169 21.95 169 22.35
L 169 47.9
Q 169 48.25 169.15 48.5 169.25 48.75 169.45 48.9 169.65 49 169.95 49.1 170.2 49.15 170.5 49.15 170.9 49.15 171.2 49.1 171.5 49 171.8 48.9 172.05 48.75 172.15 48.5 172.3 48.25 172.3 47.9
L 172.3 22.35
Q 172.3 21.95 172.15 21.7 172.05 21.45 171.8 21.35
M 163.5 22.25
Q 163.4 22.5 163.4 22.9
L 163.4 29.45 160.55 29.45
Q 159.95 29.45 159.65 29.9 159.5 30.15 159.45 30.4 159.35 30.7 159.35 31.05 159.35 31.35 159.45 31.65 159.5 31.9 159.65 32.15 159.8 32.45 160 32.55 160.25 32.7 160.55 32.7
L 163.4 32.7 163.4 47.05
Q 163.4 47.45 163.5 47.7 163.65 47.95 163.85 48.1 164.1 48.2 164.4 48.25 164.7 48.35 165.05 48.35 165.4 48.35 165.7 48.25 165.95 48.2 166.15 48.1 166.35 47.95 166.45 47.7 166.55 47.45 166.55 47.05
L 166.55 22.9
Q 166.55 22.5 166.45 22.25 166.35 22 166.15 21.85 165.95 21.75 165.7 21.7 165.4 21.65 165.05 21.65 164.7 21.65 164.4 21.7 164.1 21.75 163.85 21.85 163.65 22 163.5 22.25
M 123.55 24.25
Q 123.05 23.75 122.45 23.45 121.8 23.15 121.1 23 120.4 22.85 119.6 22.85 118.8 22.85 118.1 23 117.35 23.15 116.75 23.45 115.5 24.1 114.7 25.25 114.2 25.85 113.85 26.55 113.5 27.25 113.3 28.1 113.05 28.95 112.9 29.9 112.8 30.9 112.8 31.95 112.8 33.05 112.9 34 113.05 34.95 113.3 35.75 113.5 36.6 113.85 37.3 114.2 38 114.7 38.6 115.1 39.2 115.6 39.65 116.15 40.1 116.75 40.4 117.35 40.7 118.1 40.85 118.8 41 119.6 41 120.4 41 121.1 40.85 121.8 40.7 122.45 40.4 123.05 40.1 123.55 39.65 124.1 39.2 124.55 38.6 124.95 38 125.25 37.3 125.6 36.6 125.85 35.75 126.05 35.05 126.15 34.2 126.25 33.4 126.3 32.5 126.4 32.7 126.65 32.8 126.85 32.9 127.2 32.9
L 131.4 32.9 131.4 47.95
Q 131.4 48.35 131.5 48.6 131.65 48.85 132 49 132.55 49.3 133.3 49.3 133.6 49.3 133.9 49.25 134.15 49.15 134.45 49 134.7 48.85 134.8 48.6 134.95 48.35 134.95 47.95
L 134.95 22.2
Q 134.95 21.8 134.8 21.55 134.7 21.3 134.45 21.15 134.15 21.05 133.9 20.95 133.6 20.9 133.3 20.9 132.95 20.9 132.6 20.95 132.25 21.05 132 21.15 131.65 21.3 131.5 21.55 131.4 21.8 131.4 22.2
L 131.4 29.75 127.2 29.75
Q 126.8 29.75 126.55 29.9 126.35 30 126.3 30.2 126.25 30.25 126.25 30.3 126.2 29.7 126.1 29.2 126 28.65 125.85 28.1 125.6 27.25 125.25 26.55 124.95 25.85 124.55 25.25 124.1 24.7 123.55 24.25
M 122.2 27.55
Q 122.65 28.35 122.9 29.45 123.15 30.55 123.15 31.95 123.15 33.35 122.9 34.45 122.65 35.55 122.2 36.3 121.7 37.1 121.05 37.45 120.45 37.85 119.65 37.85 118.8 37.85 118.15 37.45 117.5 37.1 117.05 36.3 116.6 35.55 116.35 34.45 116.15 33.35 116.15 31.95 116.15 30.55 116.35 29.45 116.6 28.35 117.05 27.55 117.5 26.75 118.15 26.4 118.8 26 119.65 26 120.45 26 121.05 26.4 121.7 26.75 122.2 27.55
M 95.55 36
Q 94.65 36.05 93.7 36.05
L 86.45 36.05
Q 86.1 36.1 85.9 36.25 85.65 36.4 85.55 36.65 85.35 36.9 85.3 37.1 85.2 37.35 85.2 37.6 85.2 37.85 85.3 38.1 85.35 38.35 85.55 38.55 85.65 38.8 85.9 38.95 86.1 39.1 86.45 39.2
L 92 39.2 92 47.2
Q 92 47.6 92.15 47.9 92.3 48.2 92.6 48.4 92.9 48.55 93.2 48.65 93.5 48.7 93.8 48.7 93.95 48.7 94.1 48.7 94.25 48.65 94.4 48.65 94.5 48.6 94.65 48.5 94.8 48.45 95 48.35 95.1 48.3 95.2 48.15 95.3 48.05 95.4 47.9 95.5 47.75 95.5 47.55 95.55 47.4 95.55 47.2
L 95.55 39.15
Q 96.5 39.1 97.35 39.05 98.15 39 98.8 38.9 99.5 38.85 100.2 38.7 100.9 38.6 101.7 38.4 101.95 38.35 102.15 38.2 102.35 38.05 102.5 37.8 102.7 37.55 102.75 37.35 102.85 37.1 102.85 36.8 102.85 36.7 102.85 36.6 102.8 36.5 102.8 36.45 102.75 35.9 102.35 35.5 102.15 35.35 101.95 35.25 101.7 35.2 101.5 35.2 101.4 35.2 101.3 35.2 101.15 35.25 101 35.25 100.05 35.45 99.1 35.6 98.2 35.75 97.35 35.85 96.45 35.95 95.55 36
M 99.3 22.85
L 96.8 22.85
Q 96.15 22.85 95.7 23 95.2 23.15 94.85 23.45 94.45 23.75 94.25 24.2 94.1 24.7 94.1 25.25
L 94.1 30.2
Q 94.1 30.6 94.1 30.9 94.15 31.2 94.2 31.45 94.2 31.7 94.25 31.9 94.35 32.1 94.4 32.2 94.5 32.4 94.7 32.55 94.85 32.7 95.05 32.75 95.5 33 96.25 33.1 96.4 33.15 96.55 33.2 96.7 33.2 96.85 33.2 97 33.25 97.15 33.25 97.35 33.25 97.5 33.25 98.5 33.25 99.2 33.05 99.55 33 99.85 32.9 100.15 32.8 100.35 32.7 100.5 32.55 100.65 32.45 100.75 32.3 100.9 32.15 100.95 32 101 31.85 101 31.7 101 31.5 101 30.9 100.75 30.5 100.45 30.15 99.95 30.15 99.8 30.15 99.6 30.15 99.45 30.2 99.3 30.25 99.05 30.3 98.85 30.35 98.6 30.35 98.35 30.35 98.05 30.35 97.85 30.35 97.6 30.3 97.4 30.2 97.2 30.15 97.15 29.9 97 29.6 97 29.15
L 97 26
Q 97.2 25.9 97.4 25.85 97.6 25.8 97.8 25.8
L 99.3 25.8
Q 99.7 25.8 100 25.7 100.25 25.6 100.45 25.4 100.6 25.2 100.65 24.95 100.75 24.65 100.75 24.35 100.75 23.6 100.4 23.2 100 22.85 99.3 22.85
M 87.3 23.45
Q 86.9 23.75 86.7 24.25 86.5 24.7 86.5 25.3
L 86.5 30.35
Q 86.5 31.2 86.7 31.75 86.85 32.3 87.3 32.55 87.65 32.9 88.3 33.05 88.95 33.2 89.9 33.2 90.35 33.2 90.75 33.15 91.15 33.1 91.45 33.05 91.75 32.95 92 32.85 92.3 32.8 92.5 32.65 92.65 32.55 92.8 32.4 92.9 32.3 93 32.15 93 32 93.05 31.85 93.1 31.7 93.1 31.55 93.1 31.3 93.05 31.05 93 30.8 92.9 30.55 92.6 30.1 92.1 30.1 92 30.1 91.85 30.15 91.75 30.15 91.55 30.2 91.4 30.3 91.15 30.35 90.9 30.35 90.65 30.35 90.4 30.35 90.2 30.35 90 30.3 89.85 30.2 89.65 30.15 89.55 29.9 89.45 29.7 89.45 29.3
L 89.45 25.95
Q 89.6 25.9 89.75 25.85 89.95 25.8 90.1 25.8
L 91.55 25.8
Q 91.9 25.8 92.15 25.7 92.45 25.6 92.65 25.4 92.85 25.2 92.9 24.95 93 24.65 93 24.35 93 23.6 92.65 23.2 92.25 22.85 91.5 22.85
L 89.25 22.85
Q 88.65 22.85 88.2 23 87.7 23.15 87.3 23.45
M 104.4 21.95
Q 104.4 22.1 104.4 22.3
L 104.4 48.05
Q 104.4 48.4 104.55 48.65 104.6 48.8 104.75 48.85 104.85 48.95 105.05 49.05 105.15 49.1 105.3 49.15 105.45 49.2 105.6 49.25 105.75 49.25 105.9 49.25 106.1 49.3 106.3 49.3 106.45 49.3 106.6 49.25 106.8 49.25 106.9 49.25 107.05 49.2 107.2 49.15 107.35 49.1 107.5 49.05 107.6 49 107.7 48.9 107.8 48.8 107.9 48.7 107.95 48.55 107.95 48.4 108 48.25 108 48.05
L 108 22.3
Q 108 21.9 107.9 21.65 107.75 21.35 107.45 21.25 107.2 21.15 106.9 21.1 106.6 21.05 106.3 21.05 106.1 21.05 105.9 21.05 105.75 21.05 105.6 21.05 105.45 21.1 105.3 21.15 105.15 21.2 105.05 21.25 104.85 21.35 104.75 21.45 104.6 21.5 104.55 21.65 104.45 21.75 104.4 21.95 Z"/>
</g>

<g id="Layer0_2_FILL">
<path fill="#1E1E1E" stroke="none" d="
M 1039.9 493.3
Q 1039.8 493.75 1039.8 494.3
L 1039.8 496.05
Q 1039.8 496.6 1039.9 497 1040.05 497.4 1040.3 497.65 1040.55 497.85 1041 497.95 1041.4 498.05 1042.05 498.05
L 1043.65 498.05
Q 1044.75 498.05 1045.25 497.55 1045.8 497.05 1045.8 496.05
L 1045.8 494.3
Q 1045.8 493.75 1045.65 493.4 1045.5 493 1045.25 492.7 1044.95 492.45 1044.55 492.3 1044.15 492.2 1043.6 492.2
L 1042.05 492.2
Q 1041.4 492.2 1041 492.3 1040.55 492.4 1040.3 492.65 1040.05 492.9 1039.9 493.3
M 1029.5 464.5
Q 1029.5 464 1029.3 463.6 1029.15 463.2 1028.75 462.95 1027.95 462.5 1026.95 462.5 1026.55 462.5 1026.2 462.6 1025.8 462.7 1025.45 462.95 1024.75 463.5 1024.75 464.5
L 1024.75 498.05
Q 1024.75 498.55 1024.95 498.9 1025.1 499.3 1025.45 499.55 1025.8 499.8 1026.2 499.9 1026.55 500.05 1026.95 500.05 1027.95 500.05 1028.75 499.55 1029.15 499.3 1029.3 498.9 1029.5 498.55 1029.5 498.05
L 1029.5 480.45 1033.5 480.45
Q 1034.05 480.45 1034.4 480.3 1034.75 480.15 1034.95 479.8 1035.15 479.45 1035.25 479.1 1035.35 478.75 1035.35 478.3 1035.35 477.85 1035.25 477.5 1035.15 477.1 1034.95 476.8 1034.55 476.2 1033.5 476.2
L 1029.5 476.2 1029.5 464.5
M 1003.25 468.75
Q 1003.2 469.3 1003.2 470.05
L 1003.2 484.8
Q 1003.2 485.5 1003.25 486.05 1003.35 486.65 1003.45 487.05 1003.5 487.45 1003.75 487.75 1003.95 488.1 1004.3 488.3 1004.65 488.5 1005.1 488.65 1005.5 488.75 1006 488.8 1006.45 488.85 1007.1 488.85 1007.75 488.85 1008.5 488.85 1010.1 488.85 1011.55 488.75 1013.05 488.65 1014.45 488.5 1017.2 488.2 1020.45 487.75 1021.25 487.65 1021.7 487.2 1022.15 486.75 1022.15 485.95 1022.15 485.9 1022.15 485.8 1022.15 485.7 1022.15 485.5 1022.1 485.15 1022.05 485.15 1022 485.15 1021.95 485.15 1021.9 485.2 1021.9 485.25 1021.85 484.75 1021.7 484.45 1021.55 484.1 1021.35 483.95 1021.1 483.85 1020.85 483.75 1020.6 483.7 1020.3 483.7 1020.25 483.7 1020.2 483.7 1020.1 483.7 1020.05 483.7 1019.95 483.7 1019.8 483.75 1019.7 483.75 1019.6 483.8 1018.2 483.95 1016.8 484.1 1015.4 484.25 1014 484.35 1012.55 484.45 1011.1 484.55 1009.65 484.6 1008.2 484.65 1008.05 484.65 1008 484.55 1007.95 484.45 1007.95 484.2
L 1007.95 470.9
Q 1007.95 470.45 1008.05 470.2 1008.15 469.95 1008.35 469.95
L 1017.9 469.95
Q 1018.65 469.95 1019.3 469.45 1019.6 469.25 1019.75 468.85 1019.95 468.45 1019.95 467.85 1019.95 467.15 1019.75 466.75 1019.6 466.3 1019.3 466.1 1018.65 465.75 1017.9 465.75
L 1008.5 465.75
Q 1007.7 465.75 1007.1 465.8 1006.45 465.8 1006 465.9 1005.5 465.95 1005.1 466.05 1004.65 466.2 1004.3 466.45 1003.95 466.65 1003.75 466.95 1003.5 467.3 1003.45 467.7 1003.35 468.15 1003.25 468.75
M 965.6 466.65
Q 965.4 467.05 965.4 467.5
L 965.4 483.45
Q 965.4 484.1 965.5 484.65 965.65 485.2 965.9 485.6 966.15 486.05 966.4 486.35 966.65 486.7 966.95 486.9 967.7 487.4 968.55 487.5 968.9 487.6 969.25 487.65 969.6 487.65 969.9 487.65
L 970.25 487.65
Q 971.2005859375 487.65 972 487.65 972.9 487.6 973.9 487.55 974.8 487.5 975.75 487.45 976.65 487.4 977.55 487.35 978.45 487.3 979.3 487.25 980.15 487.2 981 487.05 981.8 487 982.55 486.9 983.3 486.85 984.05 486.7 984.5 486.7 984.8 486.55 985.15 486.4 985.4 486.1 985.6 485.8 985.7 485.5 985.85 485.2 985.85 484.8 985.85 484.35 985.7 483.95 985.6 483.55 985.35 483.2 985.1 482.85 984.8 482.7 984.5 482.5 984.1 482.5 984 482.5 983.8 482.55 983.65 482.55 983.4 482.6
L 983.45 482.6
Q 982.75 482.7 982.05 482.8 981.3 482.9 980.55 482.95 979.8 483.05 979 483.15 978.15 483.2 977.3 483.3 976.5 483.35 975.6 483.4 974.75 483.45 973.9 483.45 973 483.5 972.15 483.5 971.3 483.5 970.6 483.5 970.5 483.25 970.4 482.95 970.3 482.65 970.3 482.3 970.25 482 970.2 481.7 970.2 481.35 970.2 481
L 970.2 467.35
Q 970.15 467.1 970.1 466.9 970.05 466.75 969.95 466.55 969.85 466.4 969.65 466.25 969.5 466.1 969.35 466 969.1 465.9 968.9 465.8 968.7 465.75 968.55 465.65 968.25 465.65 968.1 465.6 967.9 465.6 967.75 465.6 967.3 465.6 966.9 465.7 966.5 465.8 966.15 466.05 965.75 466.25 965.6 466.65
M 993.2 464.35
Q 993.2 463.85 993 463.5 992.85 463.15 992.55 463 992.2 462.85 991.85 462.75 991.5 462.7 991.15 462.7 990.6 462.7 990.25 462.75 989.85 462.85 989.55 463 989.25 463.15 989.1 463.5 988.95 463.85 988.95 464.35
L 988.95 497.7
Q 988.95 498.8 989.55 499.15 989.85 499.3 990.25 499.35 990.6 499.45 991.15 499.45 991.5 499.45 991.85 499.35 992.2 499.3 992.55 499.15 992.85 498.95 993 498.6 993.2 498.25 993.2 497.7
L 993.2 464.35
M 937.05 488.6
L 937.05 486.8
Q 937.05 486.6 936.95 486.4 936.9 486.25 936.75 486.05 936.6 485.9 936.45 485.8 936.25 485.65 936.05 485.55 935.85 485.3 935.35 485.2 934.9 485.1 934.5 485.1 934.15 485.1 933.75 485.2 933.4 485.3 933.05 485.5 932.6 485.75 932.4 486.05 932.25 486.4 932.25 486.8
L 932.25 495.45
Q 932.25 496.3 932.4 496.95 932.6 497.65 933 498.2 933.35 498.7 933.95 498.95 934.55 499.25 935.3 499.25 939.15 499.25 943 499.25 944.9 499.2 946.8 499.2 948.75 499.2 950.7 499.2
L 950.7 499.25
Q 951 499.25 951.3 499.15 951.6 499.05 951.9 498.9 952.2 498.75 952.45 498.5 952.7 498.3 952.95 498.05 953.2 497.75 953.45 497.45 953.65 497.15 953.75 496.85 953.9 496.45 953.95 496.1 954 495.8 954 495.45
L 954 486.8
Q 954 486.4 953.75 486.05 953.6 485.9 953.4 485.8 953.25 485.65 953 485.55 952.8 485.45 952.6 485.35 952.4 485.25 952.25 485.2 952.05 485.15 951.8 485.1 951.6 485.1 951.35 485.1 951 485.1 950.65 485.2 950.25 485.3 949.9 485.5 949.55 485.75 949.35 486.05 949.15 486.4 949.15 486.8
L 949.15 488.6 937.05 488.6
M 937.05 494.55
L 937.05 493.45
Q 937.05 493.1 937.1 492.9 937.15 492.7 937.3 492.65 937.45 492.6 937.65 492.6 937.85 492.55 938.15 492.55
L 947.75 492.55
Q 948.1 492.55 948.35 492.6 948.6 492.6 948.8 492.65 949 492.7 949.05 492.9 949.15 493.1 949.15 493.45
L 949.15 494.55
Q 949.15 494.85 949.1 495 949 495.15 948.85 495.25 948.65 495.3 948.4 495.35 948.2 495.4 947.85 495.4
L 938.1 495.4
Q 937.8 495.35 937.6 495.3 937.45 495.25 937.3 495.2 937.15 495.15 937.1 495 937.05 494.85 937.05 494.55
M 926.1 478.3
Q 925.75 478.45 925.65 478.75 925.5 479.1 925.45 479.5 925.35 479.9 925.35 480.3 925.35 480.7 925.45 481.05 925.5 481.4 925.65 481.7 925.75 481.95 926.1 482.1 926.45 482.25 927 482.25
L 959.2 482.25
Q 959.75 482.25 960.15 482.1 960.5 481.95 960.65 481.7 960.75 481.4 960.8 481.05 960.9 480.7 960.9 480.3 960.9 479.45 960.65 478.75 960.5 478.45 960.15 478.3 959.75 478.1 959.2 478.1
L 927 478.1
Q 926.45 478.1 926.1 478.3
M 930.25 472.05
Q 930 472.4 929.9 472.75 929.75 473.05 929.75 473.45 929.75 473.85 929.9 474.2 930 474.55 930.3 474.8 930.55 475.15 930.8 475.3 931.1 475.45 931.4 475.45 931.65 475.45 931.8 475.45 932 475.4 932.15 475.3 932.85 475.2 933.6 475 934.35 474.75 935.1 474.45 935.8 474.2 936.5 473.85 937.25 473.5 938 473.05 938.7 472.7 939.4 472.3 940.1 471.85 940.8 471.4 941.45 470.95 942.05 470.45 942.6 469.9 943.1 469.3 944.1 470.4 945.4 471.35 946.65 472.3 948.1 473.05 949.55 473.9 951.05 474.5 952.6 475.1 954.2 475.45 954.25 475.45 954.3 475.45 954.4 475.45 954.5 475.45 954.9 475.45 955.25 475.3 955.6 475.15 955.9 474.8 956.5 474.25 956.5 473.05 956.5 472.75 956.45 472.45 956.35 472.2 956.25 471.95 956.1 471.75 955.9 471.55 955.65 471.4 955.4 471.25 954.7 471.1 953.95 470.9 953.15 470.65 952.3 470.4 950.65 469.9 949.2 469.05 947.6 468.3 946.7 467.15 946.2 466.6 945.95 466 945.7 465.35 945.7 464.65
L 945.7 463.85
Q 945.7 463.45 945.5 463.15 945.25 462.85 944.9 462.7 944.5 462.5 944.1 462.4 943.75 462.3 943.4 462.3
L 942.95 462.3
Q 942.75 462.3 942.6 462.35 942.45 462.35 942.3 462.4 942.15 462.45 941.95 462.55 941.7 462.6 941.5 462.7 941.3 462.8 941.15 462.9 941 463.05 940.9 463.15 940.8 463.3 940.75 463.5 940.7 463.65 940.7 463.85
L 940.7 464.8
Q 940.6 465.55 940.35 466.1 940.05 466.7 939.6 467.2 939.1 467.7 938.55 468.1 938 468.55 937.35 468.9 936.65 469.3 935.9 469.65 935.15 469.95 934.4 470.2 933.6 470.45 932.9 470.7 932.2 470.95 931.55 471.1 930.7 471.45 930.25 472.05
M 911.05 490.25
Q 910.7 490.95 910.15 491.7 909.75 492.2 909.35 492.6 909 493 908.7 493.3 908.35 493.65 907.9 494 907.5 494.35 907 494.65 906.8 494.85 906.65 495 906.5 495.1 906.35 495.2 906.2 495.3 906.05 495.4 905.9 495.45 905.8 495.6 905.7 495.65 905.6 495.75 905.55 495.9 905.5 496.05 905.4 496.15 905.35 496.35 905.3 496.5 905.3 496.75 905.3 497.15 905.5 497.5 905.65 497.85 906.05 498.1 906.75 498.6 907.1 498.6 907.55 498.6 908 498.45 908.5 498.3 908.95 498.05 909.4 497.8 909.8 497.5 910.2 497.15 910.65 496.8 911.1 496.35 911.55 495.95 912 495.55 912.45 495.1 912.85 494.65 913.15 494.25 913.5 493.8 913.7 493.4 913.9 494.05 914.65 494.95 915.05 495.45 915.5 495.9 916 496.35 916.5 496.8 916.9 497.2 917.35 497.6 917.8 498 918.3 498.3 918.75 498.6 919.15 498.8 919.5 498.95 919.85 498.95 920.45 498.95 921.15 498.35 921.5 498.05 921.7 497.65 921.9 497.3 921.9 496.85 921.9 496.5 921.75 496.25 921.6 495.95 921.3 495.7 921 495.45 920.75 495.15 920.5 494.85 920.2 494.5 919.85 494.2 919.5 493.9 919.15 493.55 918.8 493.2 918.4 492.85 918.05 492.5 917.7 492.15 917.4 491.7 916.8 490.8 916.5 489.65 916.15 488.55 916.05 487.3
L 916.05 485.6
Q 916.05 485.15 915.9 484.8 915.8 484.45 915.55 484.25 915.3 484 914.95 483.9 914.55 483.8 914.05 483.8
L 914 483.8
Q 913.95 483.8 913.9 483.8 913.85 483.8 913.8 483.8 913.75 483.8 913.7 483.8 913.1 483.9 912.75 484.1 912.4 484.35 912.25 484.7 912.15 485.1 912.05 485.55 911.95 485.95 911.9 486.4 911.75 487.5 911.5 488.85 911.35 489.55 911.05 490.25
M 900.75 484.15
Q 900.4 484.4 900.25 484.75 900.1 485.1 900.1 485.6
L 900.1 487.35
Q 900.1 488.75 899.75 489.85 899.35 491 898.7 491.9
L 898.6 492.1
Q 898.1 492.55 897.8 492.9 897.45 493.25 897.2 493.55 896.9 493.85 896.55 494.2 896.2 494.5 895.7 494.8 895.05 495.2 894.7 495.75 894.35 496.25 894.35 496.95 894.35 497.35 894.5 497.7 894.65 498.05 894.95 498.3 895.2 498.55 895.55 498.7 895.9 498.85 896.25 498.85 896.65 498.85 897.1 498.75 897.55 498.55 898 498.3 898.45 497.95 898.95 497.6 899.4 497.2 899.85 496.8 900.2 496.35 900.55 495.95 900.95 495.55 901.3 495.1 901.6 494.7 901.85 494.35 902.1 494 902.2 493.8 902.25 493.8 902.3 493.85 902.35 493.9 902.4 493.95 902.45 494.05 902.45 494.1 902.5 494.15 902.55 494.2 903.05 494.65 903.5 494.9 903.7 495.05 903.95 495.1 904.25 495.2 904.55 495.25 904.95 495.2 905.3 495.05 905.65 494.9 906 494.6 906.35 494.3 906.5 494 906.7 493.65 906.7 493.2 906.7 492.95 906.55 492.7 906.45 492.4 906.25 492.1 906 491.85 905.75 491.6 905.55 491.3 905.35 490.95 905.2 490.75 905.05 490.4 904.85 490.05 904.7 489.55 904.55 489.1 904.45 488.6 904.35 488.15 904.35 487.65
L 904.35 485.7
Q 904.35 485.2 904.2 484.8 904.05 484.45 903.8 484.2 903.5 483.95 903.1 483.85 902.65 483.7 902.15 483.7 901.8 483.7 901.45 483.85 901.1 483.95 900.75 484.15
M 919.85 464.45
Q 919.85 463.95 919.65 463.55 919.5 463.2 919.2 463.05 918.5 462.7 917.55 462.7 917.1 462.7 916.75 462.75 916.35 462.85 916.05 463.05 915.7 463.2 915.5 463.55 915.35 463.95 915.35 464.45
L 915.35 470.4 909.35 470.4
Q 909.25 470.05 909.2 469.75 909.1 469.45 909 469.15 908.7 468.35 908.2 467.65 907.7 466.95 907.05 466.35 906.4 465.8 905.65 465.35 904.95 464.95 904.05 464.65 903.2 464.35 902.25 464.2 901.3 464 900.3 464 899.2 464 898.2 464.2 897.25 464.35 896.4 464.65 895.55 464.95 894.8 465.35 894.05 465.8 893.5 466.35 892.8 466.95 892.3 467.65 891.8 468.35 891.45 469.15 891.1 470 890.95 470.9 890.8 471.85 890.8 472.85 890.8 473.9 890.95 474.8 891.1 475.75 891.45 476.55 891.8 477.4 892.3 478.1 892.8 478.75 893.5 479.3 894.05 479.9 894.8 480.35 895.55 480.8 896.4 481.05 897.25 481.35 898.2 481.5 899.2 481.7 900.3 481.7 901.3 481.7 902.25 481.5 903.2 481.35 904.05 481.05 904.95 480.8 905.65 480.35 906.4 479.9 907.05 479.3 907.7 478.75 908.2 478.1 908.7 477.4 909 476.55 909.15 476.1 909.3 475.6 909.45 475.1 909.55 474.55
L 915.35 474.55 915.35 480.95
Q 915.35 481.5 915.5 481.85 915.7 482.2 916.05 482.35 916.35 482.55 916.75 482.6 917.1 482.7 917.55 482.7 918.55 482.7 919.2 482.35 919.5 482.2 919.65 481.85 919.85 481.5 919.85 480.95
L 919.85 464.45
M 896.7 469.45
Q 897.35 468.85 898.25 468.55 899.15 468.2 900.3 468.2 902.5 468.2 903.9 469.45 904.6 470.05 904.95 470.9 905.3 471.75 905.3 472.85 905.3 473.95 904.95 474.8 904.6 475.6 903.9 476.25 903.2 476.85 902.3 477.15 901.4 477.5 900.3 477.5 899.15 477.5 898.25 477.15 897.35 476.85 896.7 476.25 896 475.6 895.65 474.8 895.3 473.95 895.3 472.85 895.3 471.75 895.65 470.9 896 470.05 896.7 469.45
M 860.5 464.6
Q 860.05 464.6 859.7 464.7 859.35 464.8 859 465.05 858.65 465.25 858.45 465.6 858.25 465.9 858.2 466.25
L 858.2 467.6
Q 858.2 469.35 858.1 470.8 858 472.3 857.85 473.55 857.65 474.8 857.35 475.9 857 477.05 856.55 478 856.2 479 855.7 479.9 855.2 480.75 854.55 481.55 853.25 483.15 851.65 484.8
L 851.65 484.85
Q 851.65 484.9 851.6 484.85 851.3 485.2 851.15 485.55 851 485.9 851 486.25 851 486.4 851.05 486.6 851.1 486.8 851.2 487 851.3 487.25 851.4 487.4 851.5 487.6 851.6 487.75 851.75 487.95 851.95 488.1 852.15 488.2 852.45 488.3 852.7 488.45 852.9 488.5 853.15 488.55 853.35 488.55 853.75 488.55 854.05 488.45 854.35 488.4 854.55 488.2 855.5 487.25 856.4 486.2 857.3 485.15 858.1 484.05 858.9 483 859.55 481.95 860.15 480.95 860.65 479.9 861.05 481 861.65 482.05 862.25 483.1 862.95 484.05 863.65 485.05 864.5 485.95 865.35 486.8 866.3 487.6 866.45 487.75 866.75 487.85 867.05 487.95 867.4 487.95 867.6 487.95 867.8 487.9 868 487.85 868.2 487.7 868.35 487.6 868.6 487.5 868.8 487.35 869.05 487.2 869.2 487 869.3 486.8 869.45 486.6 869.55 486.4 869.65 486.2 869.7 486 869.75 485.8 869.75 485.6 869.75 485.3 869.6 485 869.45 484.65 869.15 484.35 867.5 482.8 866.3 481.15 865.1 479.55 864.4 477.85 863.65 476.2 863.3 474.4 862.9 472.6 862.9 470.6
L 862.9 466.25
Q 862.7 465.45 862.05 465 861.45 464.6 860.5 464.6
M 875.6 463.6
Q 875.25 463.45 874.85 463.35 874.45 463.3 874.1 463.3 873.6 463.3 873.2 463.35 872.75 463.45 872.45 463.6 872.1 463.75 871.95 464.1 871.75 464.45 871.75 464.95
L 871.75 473.8 868.1 473.8
Q 867.6 473.8 867.3 473.95 866.95 474.1 866.8 474.35 866.6 474.65 866.55 475 866.5 475.4 866.5 475.85 866.5 476.25 866.55 476.6 866.6 477 866.8 477.3 866.95 477.65 867.3 477.85 867.6 478 868.1 478
L 871.75 478 871.75 497.2
Q 871.75 497.65 871.95 498 872.1 498.35 872.45 498.5 872.75 498.7 873.2 498.8 873.6 498.85 874.1 498.85 874.45 498.85 874.85 498.8 875.25 498.7 875.6 498.5 876.3 498.15 876.3 497.2
L 876.3 464.95
Q 876.3 464.45 876.15 464.1 875.95 463.75 875.6 463.6
M 880.5 462.65
Q 880.1 462.7 879.85 462.85 879.55 463.05 879.4 463.4 879.25 463.75 879.25 464.25
L 879.25 498.2
Q 879.25 498.75 879.4 499.1 879.55 499.4 879.85 499.6 880.1 499.75 880.5 499.8 880.9 499.9 881.45 499.9 881.85 499.9 882.25 499.8 882.65 499.75 882.95 499.6 883.25 499.4 883.45 499.1 883.6 498.75 883.6 498.2
L 883.6 464.25
Q 883.6 463.75 883.45 463.4 883.25 463.05 882.95 462.85 882.65 462.7 882.25 462.65 881.85 462.55 881.45 462.55 880.9 462.55 880.5 462.65
M 833.5 464.05
Q 833.5 463.55 833.3 463.2 833.15 462.85 832.85 462.7 832.5 462.5 832.1 462.45 831.7 462.35 831.15 462.35 830.75 462.35 830.35 462.45 829.95 462.5 829.55 462.7 829.15 462.85 828.95 463.2 828.75 463.55 828.75 464.05
L 828.75 475.25 821.95 475.25
Q 821.9 474.5 821.75 473.75 821.6 473.05 821.4 472.3 821.05 471.2 820.6 470.25 820.15 469.3 819.5 468.5 818.95 467.75 818.3 467.15 817.65 466.5 816.8 466.1 816 465.7 815 465.5 814 465.25 812.95 465.25 811.9 465.25 811 465.5 810.1 465.7 809.25 466.1 808.4 466.5 807.7 467.15 806.95 467.75 806.35 468.5 805.8 469.3 805.35 470.25 804.95 471.2 804.65 472.3 804.35 473.45 804.2 474.75 804 476 804 477.4 804 478.85 804.2 480.15 804.35 481.4 804.65 482.5 804.95 483.65 805.35 484.6 805.8 485.55 806.35 486.3 806.95 487.1 807.7 487.7 808.4 488.3 809.25 488.65 810.1 489.1 811 489.3 811.9 489.5 812.95 489.5 814 489.5 815 489.3 816 489.1 816.8 488.65 817.65 488.3 818.3 487.7 818.95 487.1 819.5 486.3 820.15 485.55 820.6 484.6 821.05 483.65 821.4 482.5 821.6 481.8 821.75 481.05 821.9 480.3 821.95 479.45
L 828.75 479.45 828.75 498.3
Q 828.75 498.8 828.95 499.15 829.15 499.5 829.55 499.65 829.95 499.8 830.35 499.9 830.75 500 831.15 500 831.7 500 832.1 499.9 832.5 499.8 832.85 499.65 833.15 499.5 833.3 499.15 833.5 498.8 833.5 498.3
L 833.5 464.05
M 812.95 469.45
Q 814.1 469.45 814.95 470 815.8 470.55 816.45 471.6 817 472.7 817.3 474.1 817.6 475.55 817.6 477.4 817.6 479.3 817.3 480.75 817 482.25 816.45 483.3 815.8 484.35 814.95 484.85 814.1 485.4 812.95 485.4 811.95 485.4 811.1 484.85 810.25 484.35 809.55 483.3 808.95 482.25 808.6 480.75 808.25 479.3 808.25 477.4 808.25 475.55 808.6 474.1 808.95 472.7 809.55 471.6 810.25 470.55 811.1 470 811.95 469.45 812.95 469.45
M 779.3 466.8
Q 779 467.55 779 468.65
L 779 474.95
Q 779 476.1 779.3 476.85 779.6 477.6 780.2 478 780.8 478.4 781.65 478.6 782.55 478.85 783.65 478.85
L 786.65 478.85
Q 787.05 478.85 787.4 478.7 787.75 478.55 788.05 478.3 788.35 478.05 788.45 477.7 788.6 477.35 788.6 476.85 788.6 476.4 788.45 476 788.35 475.6 788.05 475.35 787.75 475.1 787.4 475 787.05 474.85 786.65 474.8
L 784.3 474.8
Q 784.15 474.8 784 474.8 783.85 474.8 783.8 474.8 783.65 474.8 783.55 474.75 783.45 474.7 783.35 474.6
L 783.35 470.1
Q 783.35 469.9 783.35 469.75 783.4 469.55 783.45 469.35 783.45 469.2 783.45 469.05 783.5 468.9 783.6 468.8
L 786.05 468.8
Q 786.55 468.8 786.9 468.7 787.25 468.6 787.6 468.35 787.85 468.15 788 467.75 788.15 467.4 788.15 466.85 788.15 466.4 788 466 787.85 465.65 787.6 465.35 787.25 465.1 786.9 464.95 786.55 464.8 786.05 464.8
L 783.6 464.8
Q 782.5 464.8 781.65 465 780.8 465.2 780.2 465.6 779.6 466 779.3 466.8
M 796.2 463.3
Q 796 462.95 795.7 462.75 795.35 462.65 794.9 462.55 794.5 462.5 793.95 462.5 793.8 462.5 793.6 462.5 793.4 462.5 793.15 462.5 792.9 462.6 792.65 462.65 792.45 462.7 792.25 462.75 792.15 462.85 792 463 791.9 463.1 791.8 463.3 791.7 463.45 791.65 463.65 791.55 463.9 791.55 464.15
L 791.55 498.4
Q 791.55 498.65 791.65 498.85 791.7 499.1 791.8 499.3 791.9 499.4 792 499.55 792.15 499.65 792.25 499.8 792.45 499.85 792.65 499.9 792.9 499.95 793.15 500 793.4 500 793.6 500 793.8 500 793.95 500.05 794.25 500 794.5 500 794.75 500 795 500 795.15 499.95 795.3 499.9 795.45 499.85 795.55 499.8 795.75 499.7 795.85 499.6 796 499.45 796.15 499.3 796.25 499.15 796.3 498.9 796.35 498.7 796.35 498.45
L 796.35 464.2
Q 796.35 463.65 796.2 463.3
M 767.55 482.4
Q 767.2 482.55 766.9 482.75 766.65 482.95 766.4 483.3 766.1 483.6 766 483.9 765.85 484.25 765.85 484.55 765.85 484.85 766 485.15 766.1 485.5 766.4 485.85 766.65 486.2 766.9 486.4 767.2 486.6 767.55 486.7
L 775.05 486.7 775.05 497.35
Q 775.05 497.6 775.1 497.85 775.15 498.05 775.25 498.3 775.3 498.45 775.45 498.6 775.6 498.75 775.75 498.9 776 499 776.25 499.1 776.45 499.2 776.65 499.25 776.85 499.3 777 499.3 777.15 499.35 777.3 499.35 777.5 499.35 777.7 499.3 777.95 499.3 778.15 499.25 778.45 499.2 778.6 499.1 778.8 499 778.9 498.9 779.05 498.75 779.25 498.6 779.4 498.45 779.6 498.3 779.7 498.05 779.75 497.85 779.85 497.6 779.85 497.35
L 779.85 486.65
Q 780.95 486.65 782 486.5 782.55 486.5 783 486.4 783.45 486.35 783.85 486.3 784.35 486.25 784.85 486.2 785.35 486.1 785.85 486.05 786.25 486 786.7 485.9 787.1 485.8 787.55 485.7 788 485.65 788.35 485.45 788.65 485.25 788.9 484.9 789.1 484.6 789.25 484.25 789.35 483.9 789.35 483.5 789.35 483.3 789.3 483.2 789.3 483.1 789.3 483 789.2 482.25 788.8 481.8 788.6 481.55 788.3 481.4 787.95 481.3 787.55 481.3 787.45 481.3 787.3 481.35 787.2 481.35 787 481.4 785.65 481.7 784.4 481.85 783.15 482.05 782.05 482.2 780.95 482.3 779.7 482.35 778.5 482.4 777.2 482.4
L 767.55 482.4
M 769.1 466.8
Q 768.85 467.4 768.85 468.3
L 768.85 475.75
Q 768.85 477.25 769.7 478 770.55 478.7 772.2 478.7 773.15 478.7 774.25 478.7 774.75 478.7 775.2 478.65 775.65 478.6 776 478.5 776.5 478.4 776.85 478.25 777.25 478.1 777.55 477.9 777.8 477.75 777.95 477.4 778.1 477.1 778.1 476.7 778.1 476.2 777.95 475.8 777.8 475.45 777.6 475.2 777.25 474.95 777 474.8 776.65 474.65 776.35 474.65 776.2 474.65 776.1 474.65 776 474.65 775.95 474.65 775.85 474.7 775.8 474.7 775.75 474.7 775.65 474.7
L 775.25 474.7
Q 775.15 474.75 775.05 474.75 774.9 474.75 774.75 474.75 774.65 474.75 774.5 474.75 774.35 474.75 774.25 474.75 774.05 474.75 773.9 474.75 773.8 474.75 773.65 474.7 773.55 474.7 773.4 474.7 773.25 474.7 773.15 474.65
L 773.15 468.9
Q 773.5 468.85 773.9 468.8 774.3 468.8 774.7 468.75 775.5 468.75 776.25 468.5 776.55 468.45 776.8 468.3 777.05 468.2 777.2 468 777.35 467.8 777.45 467.5 777.55 467.2 777.55 466.75 777.55 466.4 777.45 466.05 777.35 465.7 777.2 465.4 776.85 464.8 775.9 464.8
L 772.65 464.8
Q 771.75 464.8 771.05 465 770.4 465.25 769.9 465.65 769.35 466.1 769.1 466.8
M 747.65 488.15
Q 747.65 486.7 746.8 485.6 746.35 485.15 745.75 484.9 745.15 484.65 744.45 484.65
L 728.05 484.65
Q 727.55 484.65 727.2 484.8 726.85 484.9 726.65 485.25 726.5 485.55 726.4 485.9 726.3 486.3 726.3 486.7 726.3 487.15 726.4 487.5 726.5 487.9 726.65 488.2 726.85 488.5 727.2 488.65 727.55 488.85 728.05 488.85
L 742.9 488.85 742.9 498.55
Q 742.9 498.95 743.1 499.25 743.3 499.6 743.65 499.8 744 500.05 744.3 500.15 744.6 500.25 744.95 500.25 745.15 500.25 745.35 500.25 745.6 500.2 745.85 500.15 746.15 500.1 746.3 500 746.55 499.9 746.65 499.8 746.85 499.7 747.05 499.55 747.2 499.4 747.35 499.3 747.45 499.1 747.55 498.9 747.65 498.75 747.65 498.55
L 747.65 488.15
M 743.65 463.3
Q 743.45 463.65 743.45 464.2
L 743.45 480.7
Q 743.45 481.25 743.65 481.6 743.8 481.9 744.15 482.05 744.5 482.25 744.9 482.35 745.35 482.4 745.85 482.4 746.25 482.4 746.65 482.35 747.05 482.25 747.45 482.05 747.85 481.9 748.05 481.6 748.25 481.25 748.25 480.7
L 748.25 464.2
Q 748.25 463.65 748.05 463.3 747.85 462.95 747.45 462.8 747.05 462.65 746.65 462.55 746.25 462.5 745.85 462.5 745.35 462.5 744.9 462.55 744.5 462.65 744.15 462.8 743.8 462.95 743.65 463.3
M 733.35 463.9
Q 733 463.9 732.75 464 732.4 464.15 732.1 464.35 731.8 464.6 731.65 464.9 731.5 465.25 731.5 465.6
L 731.5 468.9
Q 731.5 469.55 731.35 470.2 731.2 470.85 730.95 471.5 730.65 472.2 730.4 472.85 730.1 473.5 729.8 474.05 729.6 474.45 729.35 474.75 729.15 475.1 728.9 475.4 728.45 474.75 728 474.05 727.65 473.35 727.3 472.65 726.9 471.8 726.7 470.9 726.5 470 726.5 469.05
L 726.5 465.8
Q 726.5 465.3 726.3 464.95 726.1 464.6 725.7 464.35 725.3 464.15 724.95 464.05 724.55 463.95 724.25 463.95 723.8 464 723.45 464.15 723.1 464.25 722.75 464.45 722.05 464.95 722.05 465.8
L 722.05 468.9
Q 722.05 469.7 721.95 470.45 721.85 471.15 721.65 471.85 721.5 472.5 721.25 473.15 720.95 473.8 720.65 474.4 720.25 475 719.8 475.6 719.4 476.15 719 476.65 718.55 477.15 718.05 477.6 717.55 478.05 717.05 478.45 716.8 478.65 716.7 478.9 716.6 479.15 716.6 479.4 716.6 479.55 716.65 479.75 716.65 479.9 716.8 480.1 716.95 480.6 717.4 480.85 717.55 481 717.75 481.15 717.9 481.3 718.1 481.4 718.3 481.5 718.55 481.55 718.8 481.65 719.15 481.65 719.55 481.65 719.9 481.5 720.25 481.4 720.7 481.1 721.05 480.85 721.4 480.55 721.75 480.15 722.1 479.75 722.5 479.35 722.85 478.95 723.2 478.5 723.45 478.05 723.8 477.65 724.05 477.2 724.3 476.8 724.55 476.35 724.8 476.85 725.05 477.3 725.15 477.55 725.35 477.75 725.5 477.95 725.8 478.15 725.85 478.25 725.95 478.3 726.05 478.4 726.15 478.45 726.05 478.5 726 478.6 725.95 478.7 725.95 478.75 725.85 478.95 725.85 479.15 725.8 479.35 725.8 479.5 725.8 479.9 725.95 480.3 726.1 480.65 726.4 481 726.65 481.35 727.1 481.5 727.55 481.7 728.15 481.7 728.8 481.7 729.6 481.1 729.95 480.85 730.35 480.45 730.8 480.1 731.2 479.65 731.45 479.25 731.75 478.8 732.1 478.35 732.45 477.85 732.75 477.4 733 477 733.25 476.6 733.35 476.25 733.55 476.6 733.8 477.05 734.05 477.4 734.4 477.85 734.7 478.35 735.1 478.8 735.5 479.25 735.95 479.65 736.25 480.1 736.6 480.45 736.95 480.8 737.35 481.05 737.75 481.35 738 481.5 738.3 481.65 738.45 481.65 738.8 481.65 739.05 481.55 739.3 481.5 739.55 481.35 739.7 481.25 739.9 481.05 740.1 480.9 740.3 480.7 740.5 480.55 740.7 480.35 740.85 480.2 741 479.95 741.1 479.75 741.15 479.55 741.2 479.35 741.2 479.15 741.2 479 741.1 478.85 740.95 478.6 740.75 478.35 740.3 477.85 739.8 477.25 739.55 476.95 739.3 476.65 739.05 476.3 738.75 475.95 738.45 475.6 738.15 475.3 737.9 474.95 737.75 474.6 737.1 473.8 736.75 472.95 736.4 472.15 736.2 471.35 736 470.55 735.9 469.7 735.8 468.85 735.8 467.95
L 735.8 465.8
Q 735.8 465.35 735.6 465 735.45 464.65 735.05 464.4 734.7 464.15 734.25 464 733.85 463.9 733.35 463.9
M 590.05 468.9
Q 590.05 468.1 589.8 467.5 589.7 467.15 589.5 466.85 589.3 466.6 589.1 466.35 588.8 466.1 588.5 465.9 588.2 465.75 587.9 465.6 587.6 465.45 587.25 465.4 586.9 465.3 586.5 465.3
L 569.1 465.3
Q 568.6 465.3 568.2 465.45 567.85 465.6 567.5 465.9 567.2 466.25 567.05 466.6 566.95 467 566.95 467.4 566.95 468.3 567.5 468.85 567.85 469.2 568.2 469.3 568.6 469.45 569.1 469.45
L 585.05 469.45
Q 585.15 469.9 585.25 470.3 585.3 470.7 585.3 471.05
L 585.3 471.7
Q 585.3 472.15 585.25 472.5 585.15 472.95 585.05 473.3
L 570.7 473.3
Q 570 473.3 569.35 473.55 568.7 473.8 568.15 474.3 567.6 474.75 567.3 475.35 567.05 476 567.05 476.75
L 567.05 482.15
Q 567.05 482.85 567.3 483.45 567.6 484.05 568.2 484.45 568.75 484.95 569.35 485.15 570 485.4 570.7 485.4
L 576.5 485.4 576.45 485.45
Q 576.3 485.6 576.3 485.85 576.25 486.05 576.25 486.35
L 576.25 490.4 563.05 490.4
Q 562.55 490.4 562.2 490.55 561.9 490.7 561.7 490.95 561.5 491.25 561.4 491.65 561.3 492 561.3 492.5 561.3 492.9 561.4 493.25 561.5 493.6 561.7 493.9 561.9 494.25 562.2 494.4 562.55 494.55 563.05 494.55
L 594.6 494.55
Q 594.95 494.55 595.3 494.4 595.6 494.25 595.85 493.9 596.35 493.3 596.35 492.5 596.35 492 596.25 491.65 596.15 491.25 595.85 490.95 595.6 490.7 595.3 490.55 594.95 490.4 594.6 490.4
L 581.3 490.4 581.3 486.35
Q 581.3 485.75 581.05 485.4
L 588.65 485.4
Q 589.15 485.4 589.55 485.25 589.95 485.15 590.3 484.9 590.55 484.65 590.7 484.35 590.85 484 590.85 483.5 590.85 483.05 590.7 482.65 590.55 482.3 590.3 482 589.95 481.7 589.55 481.6 589.15 481.4 588.65 481.4
L 571.95 481.4
Q 571.85 481.3 571.85 481.1 571.8 480.9 571.8 480.65 571.75 480.45 571.75 480.25 571.75 480.05 571.75 479.8
L 571.75 479
Q 571.75 478.85 571.75 478.6 571.75 478.4 571.8 478.15 571.8 477.95 571.85 477.75 571.85 477.55 571.95 477.35
L 586.5 477.35
Q 587.3 477.35 587.9 477.15 588.55 476.9 589.05 476.4 589.5 476 589.75 475.4 589.95 474.8 590.05 474
L 590.05 468.9
M 551.6 466.3
Q 551.3 466.05 551 465.9 550.65 465.7 550.25 465.6 549.85 465.5 549.35 465.5
L 533.65 465.5
Q 533.2 465.5 532.8 465.6 532.35 465.7 532.05 465.9 531.7 466.05 531.4 466.3 531.1 466.55 530.9 466.85 530.7 467.2 530.5 467.55 530.3 467.9 530.15 468.3 530 468.7 529.9 469.1 529.85 469.5 529.85 469.9
L 529.85 478.65
Q 529.85 479 529.9 479.35 530 479.75 530.2 480.05 530.35 480.4 530.55 480.65 530.75 480.95 530.95 481.2 531.2 481.45 531.5 481.65 531.75 481.85 532.1 482 532.45 482.15 532.85 482.25 533.2 482.3 533.65 482.3
L 549.35 482.3
Q 549.8 482.3 550.15 482.25 550.55 482.15 550.9 482 551.15 481.85 551.5 481.65 551.8 481.45 552.1 481.2 552.35 480.95 552.55 480.65 552.7 480.4 552.85 480.05 552.95 479.75 553.05 479.35 553.1 479 553.1 478.65
L 553.1 469.9
Q 553.1 469.5 553.05 469.1 552.95 468.7 552.85 468.3 552.7 467.9 552.55 467.55 552.4 467.2 552.2 466.85 551.9 466.55 551.6 466.3
M 547.45 469.85
Q 547.85 469.9 548.3 469.9
L 548.3 474.65
Q 548.3 475.15 548.3 475.6 548.3 476 548.3 476.4 548.25 476.8 548.25 477.25 548.25 477.65 548.25 478 547.8 478.05 547.4 478.05 546.95 478.05 546.5 478.05 546.05 478.05 545.55 478.05 545 478.05 544.5 478.05
L 538.5 478.05
Q 538.05 478.05 537.55 478.05 537.1 478.05 536.65 478 536.15 478 535.65 477.95 535.15 477.95 534.65 477.85
L 534.65 473.1
Q 534.65 472.7 534.65 472.25 534.65 471.85 534.65 471.45 534.65 471.05 534.65 470.6 534.65 470.2 534.65 469.8 535.2 469.8 535.7 469.75 536.2 469.75 536.7 469.75 537.15 469.75 537.6 469.75 538.05 469.75 538.5 469.75
L 544.5 469.75
Q 545.05 469.75 545.55 469.75 546.1 469.8 546.55 469.8 547 469.8 547.45 469.85
M 524.1 491.9
Q 524.1 492.3 524.2 492.7 524.25 493.05 524.4 493.4 524.5 493.75 524.85 493.9 525.2 494.1 525.8 494.05
L 557.35 494.05
Q 557.8 494.1 558.15 493.9 558.5 493.75 558.65 493.4 558.85 493.05 558.95 492.7 559.1 492.3 559.1 491.9 559.1 491.45 558.95 491.05 558.85 490.7 558.65 490.35 558.5 490.05 558.15 489.9 557.8 489.7 557.35 489.7
L 525.8 489.7
Q 525.2 489.7 524.85 489.9 524.5 490.05 524.4 490.35 524.25 490.7 524.2 491.05 524.1 491.45 524.1 491.9
M 507 467.3
Q 506.9 466.95 506.75 466.65 506.55 466.35 506.2 466.15 505.9 466.05 505.4 466.05
L 490.4 466.05
Q 489.85 466.05 489.5 466.15 489.15 466.35 489 466.65 488.8 466.95 488.75 467.3 488.7 467.7 488.7 468.05 488.7 468.55 488.75 468.95 488.8 469.3 489 469.6 489.15 469.9 489.5 470.1 489.85 470.25 490.4 470.25
L 495.4 470.25 495.4 472.8
Q 495.4 476.65 493.7 479.65 492.9 481.15 491.7 482.5 490.55 483.8 489 484.95
L 489.05 484.95
Q 488.8 485.2 488.55 485.35 488.35 485.55 488.15 485.7 487.95 485.9 487.85 486.1 487.75 486.3 487.75 486.5 487.75 486.7 487.8 486.9 487.9 487.1 488.05 487.3 488.25 487.8 488.65 488.15 488.75 488.35 488.95 488.5 489.15 488.65 489.4 488.8 489.65 488.95 489.9 489 490.15 489.1 490.4 489.05 490.6 489.1 490.85 489 491.1 488.95 491.3 488.8
L 491.3 488.85
Q 492.4 488 493.4 487.05 494.4 486.15 495.25 485.1 496 484.15 496.7 483.05 497.4 481.95 498 480.7 498.55 481.85 499.2 482.95 499.9 484 500.7 485.1 501.55 486.15 502.55 487 503.5 487.85 504.7 488.5
L 504.75 488.5 504.85 488.55
Q 505.05 488.75 505.3 488.85 505.5 488.9 505.75 488.9 506 488.9 506.25 488.85 506.45 488.8 506.7 488.65 506.85 488.55 507 488.4 507.15 488.25 507.25 488.05 507.6 487.65 507.9 487.2 508 487 508.05 486.75 508.15 486.55 508.15 486.3 508.15 486 507.95 485.7 507.75 485.45 507.35 485.15 505.65 483.9 504.4 482.55 503.1 481.15 502.2 479.6 500.4 476.5 500.4 472.85
L 500.4 470.25 505.4 470.25
Q 505.9 470.25 506.2 470.1 506.55 469.9 506.75 469.55 506.9 469.25 507 468.85 507.1 468.5 507.1 468.05 507.1 467.7 507 467.3
M 513.5 463.2
Q 513.25 463.45 513.1 463.85 512.95 464.25 512.95 464.7
L 512.95 497.4
Q 512.95 497.9 513.1 498.3 513.25 498.65 513.5 498.9 513.8 499.15 514.2 499.3 514.6 499.4 515.15 499.4 515.9 499.4 516.55 498.9 516.85 498.65 517 498.3 517.2 497.9 517.2 497.4
L 517.2 464.7
Q 517.2 464.25 517 463.85 516.85 463.45 516.55 463.2 516.2 462.95 515.85 462.8 515.5 462.7 515.15 462.7 514.6 462.7 514.2 462.8 513.8 462.95 513.5 463.2
M 477.65 462.45
Q 477.25 462.5 476.85 462.7 476.45 462.85 476.25 463.2 476.05 463.55 476.05 464.05
L 476.05 474.05 470.85 474.05
Q 470.35 474.05 470 474.2 469.6 474.35 469.35 474.65 469.05 475 468.9 475.4 468.8 475.8 468.8 476.25 468.8 476.7 468.9 477.05 469.05 477.4 469.35 477.65 469.6 477.95 470 478.1 470.35 478.3 470.85 478.3
L 476.05 478.3 476.05 498.3
Q 476.05 498.8 476.25 499.15 476.45 499.5 476.85 499.65 477.25 499.8 477.65 499.9 478.05 500 478.45 500 479 500 479.4 499.9 479.8 499.8 480.15 499.65 480.45 499.5 480.6 499.15 480.8 498.8 480.8 498.3
L 480.8 464.05
Q 480.8 463.55 480.6 463.2 480.45 462.85 480.15 462.7 479.8 462.5 479.4 462.45 479 462.35 478.45 462.35 478.05 462.35 477.65 462.45
M 469.55 469.75
Q 469.55 469.45 469.55 469.2 469.55 468.9 469.55 468.65 469.55 468.15 469.55 467.7 469.55 467.25 469.4 466.9 469.2 466.55 468.9 466.25 468.5 466.05 467.95 465.9 467.35 465.75 466.55 465.75
L 454.9 465.75
Q 454.35 465.75 454 465.9 453.65 466.05 453.5 466.35 453.35 466.65 453.3 467.05 453.2 467.4 453.2 467.85 453.2 468.3 453.3 468.65 453.35 469 453.5 469.3 453.65 469.65 454 469.8 454.35 469.95 454.9 469.95
L 464.55 470
Q 464.45 470.45 464.4 470.9 464.3 471.4 464.25 471.95 464.15 472.5 464 472.95 463.85 473.45 463.7 473.85 462.95 473.9 462.3 473.95 461.65 473.95 461.05 473.95 459.9 474.05 458.8 474.05 458.3 474.15 457.75 474.15 457.2 474.2 456.6 474.2 455.95 474.25 455.35 474.3 454.7 474.3 454.05 474.35 453.65 474.35 453.3 474.55 453 474.75 452.85 475.05 452.65 475.35 452.55 475.7 452.45 476.05 452.45 476.4 452.45 476.85 452.55 477.25 452.65 477.65 452.85 478 453.2 478.7 454.15 478.7 455.15 478.6 456.15 478.55 457.1 478.45 458.05 478.4 458.95 478.35 459.9 478.3 460.9 478.2 461.9 478.15 461.5 478.75 461.1 479.3 460.7 479.8 460.25 480.3 459.35 481.25 458.35 482.1 457.95 482.5 457.45 482.85 456.95 483.2 456.35 483.5 455.75 483.85 455.15 484.2 454.5 484.55 453.8 484.85 453.25 485.15 452.95 485.6 452.65 486.05 452.65 486.65 452.65 487.15 452.8 487.55 452.95 487.95 453.25 488.3 453.45 488.65 453.85 488.8 454.2 488.95 454.7 488.95 454.8 488.95 454.95 488.95 455.1 488.9 455.25 488.85 456.95 488.25 458.45 487.35 459.9 486.45 461.25 485.3 462.5 484.2 463.65 482.95 464.75 481.7 465.7 480.4 466.6 479.05 467.3 477.65 467.95 476.3 468.45 474.9 469.4 472.15 469.55 469.75
M 412.55 484.65
Q 412.05 484.65 411.7 484.8 411.35 484.9 411.15 485.25 411 485.55 410.9 485.9 410.8 486.3 410.8 486.7 410.8 487.15 410.9 487.5 411 487.9 411.15 488.2 411.35 488.5 411.7 488.65 412.05 488.85 412.55 488.85
L 427.4 488.85 427.4 498.55
Q 427.4 498.95 427.6 499.25 427.8 499.6 428.15 499.8 428.5 500.05 428.8 500.15 429.1 500.25 429.45 500.25 429.65 500.25 429.85 500.25 430.1 500.2 430.35 500.15 430.65 500.1 430.8 500 431.05 499.9 431.15 499.8 431.35 499.7 431.55 499.55 431.7 499.4 431.85 499.3 431.95 499.1 432.05 498.9 432.15 498.75 432.15 498.55
L 432.15 488.15
Q 432.15 486.7 431.3 485.6 430.85 485.15 430.25 484.9 429.65 484.65 428.95 484.65
L 412.55 484.65
M 409.45 464.05
Q 409.05 463.95 408.75 463.95 408.3 464 407.95 464.15 407.6 464.25 407.25 464.45 406.55 464.95 406.55 465.8
L 406.55 468.9
Q 406.55 469.7 406.45 470.45 406.35 471.15 406.15 471.85 406 472.5 405.75 473.15 405.45 473.8 405.15 474.4 404.75 475 404.3 475.6 403.9 476.15 403.5 476.65 403.05 477.15 402.55 477.6 402.05 478.05 401.55 478.45 401.3 478.65 401.2 478.9 401.1 479.15 401.1 479.4 401.1 479.55 401.15 479.75 401.15 479.9 401.3 480.1 401.45 480.6 401.9 480.85 402.05 481 402.25 481.15 402.4 481.3 402.6 481.4 402.8 481.5 403.05 481.55 403.3 481.65 403.65 481.65 404.05 481.65 404.4 481.5 404.75 481.4 405.2 481.1 405.55 480.85 405.9 480.55 406.25 480.15 406.6 479.75 407 479.35 407.35 478.95 407.7 478.5 407.95 478.05 408.3 477.65 408.55 477.2 408.8 476.8 409.05 476.35 409.3 476.85 409.55 477.3 409.65 477.55 409.85 477.75 410 477.95 410.3 478.15 410.35 478.25 410.45 478.3 410.55 478.4 410.65 478.45 410.55 478.5 410.5 478.6 410.45 478.7 410.45 478.75 410.35 478.95 410.35 479.15 410.3 479.35 410.3 479.5 410.3 479.9 410.45 480.3 410.6 480.65 410.9 481 411.15 481.35 411.6 481.5 412.05 481.7 412.65 481.7 413.3 481.7 414.1 481.1 414.45 480.85 414.85 480.45 415.3 480.1 415.7 479.65 415.95 479.25 416.25 478.8 416.6 478.35 416.95 477.85 417.25 477.4 417.5 477 417.75 476.6 417.85 476.25 418.05 476.6 418.3 477.05 418.55 477.4 418.9 477.85 419.2 478.35 419.6 478.8 420 479.25 420.45 479.65 420.75 480.1 421.1 480.45 421.45 480.8 421.85 481.05 422.25 481.35 422.5 481.5 422.8 481.65 422.95 481.65 423.3 481.65 423.55 481.55 423.8 481.5 424.05 481.35 424.2 481.25 424.4 481.05 424.6 480.9 424.8 480.7 425 480.55 425.2 480.35 425.35 480.2 425.5 479.95 425.6 479.75 425.65 479.55 425.7 479.35 425.7 479.15 425.7 479 425.6 478.85 425.45 478.6 425.25 478.35 424.8 477.85 424.3 477.25 424.05 476.95 423.8 476.65 423.55 476.3 423.25 475.95 422.95 475.6 422.65 475.3 422.4 474.95 422.25 474.6 421.6 473.8 421.25 472.95 420.9 472.15 420.7 471.35 420.5 470.55 420.4 469.7 420.3 468.85 420.3 467.95
L 420.3 465.8
Q 420.3 465.35 420.1 465 419.95 464.65 419.55 464.4 419.2 464.15 418.75 464 418.35 463.9 417.85 463.9 417.5 463.9 417.25 464 416.9 464.15 416.6 464.35 416.3 464.6 416.15 464.9 416 465.25 416 465.6
L 416 468.9
Q 416 469.55 415.85 470.2 415.7 470.85 415.45 471.5 415.15 472.2 414.9 472.85 414.6 473.5 414.3 474.05 414.1 474.45 413.85 474.75 413.65 475.1 413.4 475.4 412.95 474.75 412.5 474.05 412.15 473.35 411.8 472.65 411.4 471.8 411.2 470.9 411 470 411 469.05
L 411 465.8
Q 411 465.3 410.8 464.95 410.6 464.6 410.2 464.35 409.8 464.15 409.45 464.05
M 432.75 464.2
Q 432.75 463.65 432.55 463.3 432.35 462.95 431.95 462.8 431.55 462.65 431.15 462.55 430.75 462.5 430.35 462.5 429.85 462.5 429.4 462.55 429 462.65 428.65 462.8 428.3 462.95 428.15 463.3 427.95 463.65 427.95 464.2
L 427.95 480.7
Q 427.95 481.25 428.15 481.6 428.3 481.9 428.65 482.05 429 482.25 429.4 482.35 429.85 482.4 430.35 482.4 430.75 482.4 431.15 482.35 431.55 482.25 431.95 482.05 432.35 481.9 432.55 481.6 432.75 481.25 432.75 480.7
L 432.75 464.2
M 389.25 469
Q 389.1 469.3 388.9 469.45 388.6 469.7 388.25 469.85 387.9 470 387.5 470.1 387.1 470.15 386.65 470.2 386.25 470.25 385.8 470.25 385.3 470.3 384.95 470.45 384.55 470.6 384.3 470.9 384 471.25 383.9 471.6 383.75 471.95 383.75 472.4 383.75 472.8 383.9 473.2 384 473.55 384.25 473.85 384.45 474.25 384.8 474.4 385.15 474.6 385.65 474.6
L 389.25 474.6
Q 389.25 476.8 389.25 479 389.25 481.25 389.3 483.4 389.3 487.85 389.3 492.25 389.3 492.7 389.45 493.05 389.65 493.35 390.05 493.65 390.4 493.9 390.85 494.1 391.25 494.25 391.75 494.25 391.9 494.25 392.1 494.2 392.25 494.15 392.45 494.05 392.6 494 392.75 493.9 392.95 493.85 393.1 493.7 393.35 493.55 393.55 493.4 393.75 493.2 393.85 493.05 393.95 492.85 394 492.65 394.1 492.5 394.1 492.25
L 394.1 490.6
Q 394.1 487.6 394.05 484.65 394.05 481.7 394.05 478.85 394 475.95 394 473.05 394 470.15 394 467.2 394 466.45 393.3 465.9 392.9 465.6 392.55 465.45 392.25 465.3 391.95 465.3 391.4 465.3 391.05 465.45 390.7 465.55 390.55 465.8 390.35 466.05 390.25 466.35 390.1 466.65 390 466.95 389.8 467.3 389.7 467.65 389.6 468 389.5 468.35 389.4 468.7 389.25 469
M 362.8 464
Q 362.8 463.5 362.65 463.15 362.45 462.8 362.15 462.65 361.8 462.5 361.35 462.4 360.9 462.3 360.4 462.3 360 462.3 359.6 462.4 359.2 462.5 358.85 462.65 358.45 462.8 358.3 463.15 358.1 463.5 358.1 464
L 358.1 498.35
Q 358.1 498.85 358.3 499.2 358.45 499.55 358.85 499.7 359.2 499.85 359.6 499.95 360 500.05 360.4 500.05 360.9 500.05 361.35 499.95 361.8 499.85 362.15 499.7 362.45 499.55 362.65 499.2 362.8 498.85 362.8 498.35
L 362.8 480.45 367.1 480.45
Q 367.65 480.45 368.05 480.3 368.4 480.15 368.5 479.8 368.6 479.45 368.7 479.1 368.75 478.75 368.75 478.3 368.75 477.85 368.7 477.5 368.6 477.1 368.5 476.8 368.4 476.5 368.05 476.35 367.65 476.2 367.1 476.2
L 362.8 476.2 362.8 464
M 345.2 470
Q 345.65 470 346.2 470 346.4 470 346.6 470.05 346.8 470.1 347 470.1 347 471.05 346.9 471.95 346.85 472.8 346.75 473.5 346.65 474.25 346.4 474.9 346.2 475.6 345.9 476.2 345.65 476.8 345.35 477.4 345 477.95 344.7 478.45 344.35 478.95 344 479.4 343.7 479.85 343.4 480.25 342.9 480.7 342.55 481.1 342.2 481.45 342 481.75 341.7 482.05 341.4 482.3 341.1 482.6 340.75 482.85 340.2 483.3 339.4 483.8 339 484.05 338.45 484.3 337.9 484.6 337.15 484.9 337.1 484.95 337.05 485 337 485.05 336.9 485.1 336.35 485.35 336.1 485.7 335.85 486.1 335.85 486.6 335.85 486.9 335.85 487.15 335.9 487.35 336 487.55 336.1 487.8 336.25 488 336.35 488.2 336.5 488.35 336.65 488.6 336.75 488.75 336.9 488.9 337.05 489 337.3 489.25 337.9 489.25 338.15 489.25 338.5 489.1 339.35 488.7 340.1 488.35 340.85 487.95 341.4 487.6 342.55 486.95 343.6 486.15 344.05 485.8 344.55 485.45 345 485.05 345.4 484.6 345.85 484.2 346.25 483.65 346.7 483.1 347.15 482.5 347.75 481.85 348.25 481.2 348.75 480.55 349.2 479.75 349.65 479 349.95 478.2 350.3 477.4 350.55 476.55 350.95 475.7 351.2 474.85 351.45 474 351.65 473.1 351.75 472.25 351.8 471.4 351.9 470.55 351.9 469.7 351.9 468.85 351.9 468.15 351.85 467.8 351.8 467.5 351.7 467.2 351.55 466.9 351.35 466.7 351.1 466.45 350.85 466.25 350.45 466.1 350.1 466 349.6 465.9 349.1 465.85 348.5 465.85
L 338.15 465.85
Q 337.6 465.85 337.25 466 336.9 466.15 336.7 466.45 336.5 466.8 336.4 467.15 336.3 467.5 336.3 467.9 336.3 468.35 336.4 468.75 336.5 469.1 336.7 469.4 337.05 470 338.15 470
L 345.2 470
M 295.9 485.25
Q 295.9 485.75 296.05 486.1 296.15 486.5 296.4 486.8 296.6 487.1 296.95 487.25 297.35 487.4 297.9 487.4
L 311.15 487.4 311.15 498.65
Q 311.15 499.15 311.3 499.55 311.5 499.9 311.95 500.2 312.3 500.45 312.7 500.55 313.1 500.7 313.5 500.7 314 500.7 314.4 500.55 314.85 500.45 315.25 500.2 315.6 499.9 315.75 499.55 315.95 499.15 316 498.65
L 316 487.4 329.45 487.4
Q 330.35 487.4 330.9 486.8 331.4 486.25 331.4 485.45 331.4 485 331.25 484.55 331.15 484.15 330.9 483.85 330.65 483.55 330.25 483.35 329.9 483.2 329.45 483.2
L 297.9 483.2
Q 297.35 483.2 296.95 483.35 296.6 483.55 296.4 483.85 295.9 484.5 295.9 485.25
M 313.6 462.4
Q 313.4 462.45 313.2 462.45 313.05 462.5 312.85 462.5 312.65 462.6 312.45 462.65 312.2 462.75 312 462.85 311.75 462.95 311.6 463.1 311.5 463.2 311.4 463.35 311.25 463.55 311.2 463.7 311.2 463.9 311.2 464.05
L 311.2 465.75
Q 311.05 466.65 310.75 467.4 310.45 468.2 310 468.85 309.55 469.5 309 470.05 308.45 470.6 307.8 471.1 307.05 471.65 306.3 472.05 305.55 472.5 304.7 472.85 303.85 473.2 303 473.55 302.2 473.9 301.4 474.25 300.85 474.45 300.6 474.8 300.4 475.2 300.4 475.65 300.4 476.15 300.55 476.6 300.7 477.05 301.05 477.4 301.3 477.75 301.7 477.95 302.1 478.15 302.65 478.15 302.85 478.15 303 478.1 303.15 478.1 303.3 478 304.9 477.4 306.4 476.7 307.9 476 309.25 475.15 310.65 474.3 311.7 473.4 312.8 472.45 313.6 471.4 314.35 472.55 315.35 473.5 316.35 474.45 317.65 475.25 318.9 476.05 320.35 476.75 321.85 477.45 323.55 478.05
L 323.55 477.9
Q 323.7 478 323.9 478.05 324.15 478.05 324.35 478.05 324.7 478.05 325.05 477.9 325.4 477.7 325.75 477.35 326.05 477 326.2 476.55 326.4 476.15 326.4 475.6 326.4 475.45 326.3 475.2 326.3 475 326.2 474.8 326.1 474.6 325.95 474.45 325.75 474.3 325.55 474.2 324.6 473.85 323.7 473.45 322.85 473.05 322.1 472.7 320.55 472.05 319.35 471.05 318.7 470.6 318.15 470.05 317.6 469.5 317.2 468.85 316.8 468.2 316.55 467.45 316.25 466.7 316.2 465.75
L 316.2 464.05
Q 316.2 463.7 315.95 463.35 315.8 463.2 315.65 463.1 315.45 462.95 315.25 462.85 315 462.75 314.8 462.65 314.65 462.6 314.45 462.5 314.25 462.5 314.05 462.45 313.8 462.45 313.6 462.4
M 273.7 463.3
Q 273.55 463.65 273.55 464.2
L 273.55 498.35
Q 273.55 498.85 273.7 499.2 273.85 499.55 274.2 499.7 274.5 499.85 274.9 499.95 275.3 500.05 275.8 500.05 276.3 500.05 276.7 499.95 277.05 499.85 277.4 499.7 277.7 499.55 277.85 499.2 278.05 498.85 278.05 498.35
L 278.05 464.2
Q 278.05 463.65 277.85 463.3 277.7 462.95 277.4 462.8 277.05 462.65 276.7 462.55 276.3 462.5 275.8 462.5 275.3 462.5 274.9 462.55 274.5 462.65 274.2 462.8 273.85 462.95 273.7 463.3
M 265.15 468.6
Q 264.85 467.6 264.3 467 263.65 466.4 262.75 466.05 261.8 465.75 260.55 465.75
L 252.35 465.75
Q 251.7 465.75 251.25 465.85 250.85 465.95 250.65 466.1 250.4 466.35 250.3 466.75 250.2 467.2 250.2 467.85 250.2 468.5 250.3 468.85 250.4 469.25 250.65 469.45 250.85 469.7 251.25 469.8 251.7 469.95 252.35 469.95
L 260.4 469.95
Q 260.75 469.95 260.75 470.3
L 260.75 475.25
Q 260.75 475.45 260.7 475.55 260.65 475.6 260.55 475.6
L 255.15 475.6
Q 253.95 475.6 253.05 475.85 252.15 476.1 251.5 476.5 250.9 477 250.6 477.75 250.25 478.5 250.25 479.55
L 250.25 485.5
Q 250.25 486.25 250.35 486.85 250.45 487.4 250.6 487.9 250.7 488.4 251 488.8 251.25 489.2 251.65 489.45 251.95 489.75 252.3 489.9 252.7 490.1 253.2 490.25 253.6 490.35 254.1 490.45 254.65 490.5 255.2 490.5 258.55 490.4 261.55 490.15 263 490.05 264.45 489.9 265.95 489.75 267.45 489.5 267.95 489.5 268.35 489.35 268.7 489.2 268.95 488.9 269.2 488.6 269.3 488.2 269.4 487.8 269.4 487.3
L 269.4 487.05
Q 269.4 487 269.35 486.95 269.35 486.9 269.3 486.9
L 269.25 486.9
Q 269.2 486.4 269 486.05 268.85 485.75 268.6 485.55 268.3 485.4 268 485.3 267.7 485.25 267.4 485.25 267.3 485.25 267.15 485.25 267.05 485.25 267 485.25 266.95 485.25 266.85 485.25 265.4 485.5 263.95 485.65 262.5 485.85 261 485.95 259.5 486.1 258.05 486.2 256.6 486.3 255.2 486.3 255.1 486 254.95 485.6 254.85 485.4 254.85 485.2 254.8 485 254.8 484.8
L 254.8 481.35
Q 254.8 480.6 255.05 479.9 255.25 479.9 255.45 479.9 255.65 479.85 255.85 479.8 256.2 479.8 256.8 479.8
L 260.6 479.8
Q 261 479.85 261.45 479.75 261.85 479.7 262.3 479.5 262.75 479.35 263.15 479.15 263.55 478.9 263.95 478.65 264.2 478.35 264.45 478 264.75 477.65 264.95 477.25 265.15 476.85 265.3 476.4 265.4 475.95 265.45 475.45
L 265.45 470.9
Q 265.45 469.6 265.15 468.6
M 229.4 470.1
Q 229.75 469.9 229.95 469.55 230.1 469.25 230.2 468.85 230.3 468.5 230.3 468.05 230.3 467.7 230.2 467.3 230.1 466.95 229.95 466.65 229.75 466.35 229.4 466.15 229.1 466.05 228.6 466.05
L 213.6 466.05
Q 213.05 466.05 212.7 466.15 212.35 466.35 212.2 466.65 212 466.95 211.95 467.3 211.9 467.7 211.9 468.05 211.9 468.55 211.95 468.95 212 469.3 212.2 469.6 212.35 469.9 212.7 470.1 213.05 470.25 213.6 470.25
L 218.6 470.25 218.6 472.8
Q 218.6 476.65 216.9 479.65 216.1 481.15 214.9 482.5 213.75 483.8 212.2 484.95
L 212.25 484.95
Q 212 485.2 211.75 485.35 211.55 485.55 211.35 485.7 211.15 485.9 211.05 486.1 210.95 486.3 210.95 486.5 210.95 486.7 211 486.9 211.1 487.1 211.25 487.3 211.45 487.8 211.85 488.15 211.95 488.35 212.15 488.5 212.35 488.65 212.6 488.8 212.85 488.95 213.1 489 213.35 489.1 213.6 489.05 213.8 489.1 214.05 489 214.3 488.95 214.5 488.8
L 214.5 488.85
Q 215.6 488 216.6 487.05 217.6 486.15 218.45 485.1 219.2 484.15 219.9 483.05 220.6 481.95 221.2 480.7 221.75 481.85 222.4 482.95 223.1 484 223.9 485.1 224.75 486.15 225.75 487 226.7 487.85 227.9 488.5
L 227.95 488.5 228.05 488.55
Q 228.25 488.75 228.5 488.85 228.7 488.9 228.95 488.9 229.2 488.9 229.45 488.85 229.65 488.8 229.9 488.65 230.05 488.55 230.2 488.4 230.35 488.25 230.45 488.05 230.8 487.65 231.1 487.2 231.2 487 231.25 486.75 231.35 486.55 231.35 486.3 231.35 486 231.15 485.7 230.95 485.45 230.55 485.15 228.85 483.9 227.6 482.55 226.3 481.15 225.4 479.6 223.6 476.5 223.6 472.85
L 223.6 470.25 228.6 470.25
Q 229.1 470.25 229.4 470.1
M 243.5 480.45
Q 244 480.45 244.4 480.3 244.75 480.15 244.95 479.8 245.15 479.45 245.25 479.1 245.35 478.75 245.35 478.3 245.35 477.9 245.25 477.5 245.15 477.15 244.95 476.85 244.75 476.5 244.4 476.4 244 476.25 243.5 476.25
L 239.5 476.25 239.5 464.5
Q 239.5 464 239.3 463.6 239.15 463.2 238.75 462.95 237.9 462.5 236.95 462.5 236.55 462.5 236.2 462.6 235.8 462.7 235.45 462.95 234.7 463.5 234.7 464.5
L 234.7 498.05
Q 234.7 498.55 234.9 498.9 235.1 499.3 235.45 499.55 235.8 499.8 236.2 499.9 236.55 500.05 236.95 500.05 237.9 500.05 238.75 499.55 239.15 499.3 239.3 498.9 239.5 498.55 239.5 498.05
L 239.5 480.45 243.5 480.45
M 171.6 486.45
Q 170.6 486.5 169.55 486.55 168.5 486.55 167.4 486.55
L 163.2 486.55
Q 162.8 486.6 162.5 486.8 162.25 486.95 162.05 487.25 161.7 487.85 161.7 488.8 161.7 489.5 162.05 490.1 162.25 490.45 162.5 490.6 162.8 490.8 163.2 490.85
L 167 490.85
Q 168.2 490.85 169.35 490.8 170.5 490.8 171.55 490.75 172.55 490.75 173.65 490.7 174.7 490.65 175.75 490.6 177.75 490.45 179.75 490.25 180.7 490.15 181.7 490 182.7 489.9 183.75 489.7 184.3 489.65 184.75 489.4 185.15 489.2 185.45 488.8 185.7 488.45 185.85 488.05 185.95 487.7 186 487.25
L 186.05 487.3
Q 185.95 486.9 185.75 486.5 185.6 486.15 185.3 485.85 184.95 485.55 184.55 485.45 184.15 485.4 183.6 485.5 182.55 485.6 181.55 485.75 180.55 485.85 179.6 485.95 178.65 486.05 177.65 486.15 176.65 486.2 175.7 486.25 174.6 486.35 173.6 486.4 172.55 486.45 171.6 486.45
M 181.1 468.85
Q 180.65 468.15 180 467.55 179.5 467 178.8 466.6 178.1 466.15 177.3 465.9 175.6 465.25 173.45 465.25 171.4 465.25 169.8 465.85 168.2 466.4 167 467.55 165.8 468.7 165.2 470.25 164.6 471.85 164.6 473.9 164.6 475.9 165.2 477.5 165.8 479.05 167 480.15 168.2 481.3 169.8 481.85 171.4 482.4 173.45 482.4 175.6 482.4 177.3 481.85 178.1 481.55 178.8 481.15 179.5 480.7 180 480.15 180.65 479.6 181.1 478.9 181.6 478.25 181.95 477.5 182.25 476.7 182.4 475.8 182.55 474.9 182.55 473.9 182.55 472.9 182.4 472 182.25 471.05 181.95 470.25 181.6 469.5 181.1 468.85
M 171.6 469.5
Q 172.4 469.2 173.5 469.2 174.6 469.2 175.4 469.5 176.25 469.8 176.85 470.45 177.45 471.05 177.75 471.95 178 472.8 178 473.9 178 475 177.75 475.85 177.45 476.7 176.85 477.25 176.25 477.9 175.4 478.2 174.6 478.5 173.5 478.5 172.4 478.5 171.6 478.2 170.8 477.9 170.25 477.25 169.6 476.7 169.35 475.85 169.05 475 169.05 473.9 169.05 472.8 169.35 471.95 169.6 471.05 170.25 470.45 170.8 469.8 171.6 469.5
M 189.35 462.55
Q 188.95 462.65 188.65 462.75 188.35 462.9 188.2 463.25 188 463.6 188 464.15
L 188 498.05
Q 188 498.6 188.2 499 188.35 499.4 188.7 499.65 189 499.8 189.35 499.9 189.7 500 190.15 500.05 190.65 500 191.05 499.9 191.5 499.8 191.85 499.65 192.2 499.4 192.35 499 192.55 498.6 192.55 498.05
L 192.55 464.15
Q 192.55 463.9 192.45 463.65 192.4 463.45 192.3 463.3 192.15 463.1 192 463 191.85 462.85 191.7 462.75 191.5 462.7 191.35 462.65 191.2 462.6 191.05 462.5 190.85 462.5 190.6 462.5 190.35 462.5 190.1 462.5 189.7 462.5 189.35 462.55 Z"/>

<path fill="#EC3131" stroke="none" d="
M 708.95 464.4
Q 708.9 463.9 708.75 463.55 708.6 463.15 708.3 463 707.9 462.85 707.5 462.75 707.05 462.7 706.55 462.7 706.15 462.7 705.75 462.75 705.35 462.85 704.95 463.05 704.55 463.2 704.35 463.55 704.15 463.9 704.15 464.4
L 704.15 485.6
Q 704.15 486.1 704.35 486.45 704.55 486.8 704.95 486.95 705.35 487.15 705.75 487.25 706.15 487.3 706.55 487.3 707.05 487.3 707.5 487.25 707.9 487.15 708.3 486.95 708.6 486.8 708.75 486.45 708.9 486.1 708.95 485.6
L 708.95 476.45 712.65 476.45
Q 713.2 476.45 713.6 476.3 714 476.15 714.15 475.85 714.3 475.55 714.4 475.2 714.45 474.8 714.45 474.4 714.45 473.95 714.4 473.55 714.3 473.15 714.15 472.85 714 472.6 713.6 472.4 713.2 472.25 712.65 472.25
L 708.95 472.25 708.95 464.4
M 687.85 485.9
Q 687.4 486.1 687.25 486.45 687.05 486.8 687.05 487.2
L 687.05 495.5
Q 687.05 496.35 687.3 497 687.6 497.65 688.15 498.1 688.7 498.55 689.4 498.75 690.05 499 690.85 499
L 707.45 499
Q 707.8 499 708.15 498.85 708.45 498.7 708.7 498.4 708.95 498.05 709.1 497.65 709.2 497.3 709.2 496.85 709.2 496.45 709.1 496.1 708.95 495.75 708.7 495.45 708.45 495.15 708.15 495 707.8 494.85 707.45 494.8
L 694.1 494.8
Q 693.45 494.85 692.9 494.8 692.35 494.75 691.85 494.65
L 691.85 487.2
Q 691.85 486.95 691.75 486.8 691.7 486.6 691.55 486.4 691.4 486.25 691.25 486.1 691.1 485.95 690.9 485.85 690.75 485.75 690.6 485.7 690.4 485.6 690.15 485.55 689.9 485.55 689.7 485.5 689.45 485.45 689.3 485.45 688.95 485.45 688.55 485.6 688.2 485.7 687.85 485.9
M 682.85 465.1
Q 682.3 465.7 682.05 466.45 681.8 467.15 681.8 467.95
L 681.8 476.4
Q 681.8 477.3 682.15 478 682.3 478.35 682.5 478.65 682.7 478.9 682.95 479.1 683.3 479.35 683.6 479.55 683.95 479.7 684.3 479.8 684.9 480.1 685.9 480.1
L 695.15 480.1
Q 695.55 480.1 695.9 480 696.25 479.9 696.65 479.75 696.95 479.6 697.25 479.4 697.5 479.2 697.7 478.9 698.15 478.3 698.5 477.6 698.65 477.25 698.75 476.9 698.85 476.5 698.85 476.1
L 698.85 467.65
Q 698.85 467.2 698.75 466.85 698.6 466.45 698.45 466.1 698.2 465.8 698.05 465.5 697.8 465.2 697.6 464.95 697.3 464.7 697 464.55 696.7 464.35 696.3 464.2 695.55 463.95 694.65 463.95
L 685.55 463.95
Q 684.65 463.95 684 464.25 683.3 464.55 682.85 465.1
M 687.15 468.4
Q 687.55 468.4 687.9 468.3 688.3 468.3 688.6 468.3 688.95 468.3 689.3 468.3
L 691.05 468.3
Q 691.45 468.3 691.85 468.3 692.2 468.3 692.55 468.3 692.9 468.3 693.25 468.3 693.6 468.3 694.05 468.3 694.05 468.7 694.05 469.1 694.1 469.45 694.1 469.8 694.1 470.6 694.1 471.25
L 694.1 472.85
Q 694.1 473.2 694.1 473.6 694.1 473.95 694.1 474.3 694.1 474.65 694.05 475.05 694.05 475.4 694.05 475.75 693.6 475.8 693.25 475.8 692.9 475.8 692.55 475.8 692.2 475.8 691.85 475.8 691.45 475.8 691.05 475.8
L 689.3 475.8
Q 688.65 475.8 687.95 475.8 687.6 475.8 687.2 475.8 686.85 475.8 686.45 475.75 686.4 475.4 686.4 475.05 686.4 474.65 686.4 474.3 686.4 473.95 686.4 473.6 686.4 473.2 686.4 472.85
L 686.4 468.5
Q 686.8 468.45 687.15 468.4
M 671.05 467.4
Q 670.3 466.6 669.4 466.05 668.45 465.45 667.4 465.2 666.4 464.85 665.25 464.85 664 464.9 662.9 465.15 661.8 465.45 660.9 466 660 466.55 659.2 467.3 658.4 468.05 657.75 469 657.15 470 656.7 471.2 656.25 472.4 655.95 473.75 655.6 475.15 655.45 476.65 655.3 478.2 655.35 479.85 655.3 481.5 655.45 483 655.6 484.45 655.9 485.85 656.15 487.2 656.6 488.4 657.05 489.6 657.7 490.6 658.4 491.6 659.2 492.4 660 493.15 660.9 493.7 661.75 494.3 662.85 494.55 663.9 494.8 665.25 494.8 666.4 494.8 667.45 494.55 668.45 494.3 669.45 493.7 670.35 493.15 671.15 492.4 671.95 491.6 672.6 490.6 673.25 489.6 673.75 488.4 674.25 487.2 674.6 485.85 674.9 484.45 675.05 483 675.25 481.5 675.25 479.85 675.25 478.25 675.05 476.75 674.9 475.25 674.6 473.85 674.25 472.5 673.75 471.3 673.2 470.15 672.5 469.1 671.85 468.15 671.05 467.4
M 665.25 469.45
Q 665.8 469.45 666.35 469.65 666.85 469.9 667.4 470.25 667.9 470.7 668.35 471.25 668.75 471.8 669.1 472.5 669.3 473.2 669.55 474.05 669.8 474.85 670 475.8 670.15 476.75 670.3 477.75 670.4 478.8 670.4 479.85 670.4 480.95 670.3 481.95 670.2 483 670.05 483.9 669.65 485.85 669.1 487.25 668.8 488 668.35 488.55 667.95 489.15 667.45 489.55 666.9 490 666.35 490.15 665.8 490.4 665.25 490.4 664.6 490.4 664 490.15 663.45 489.95 662.95 489.5 662 488.65 661.3 487.25 660.95 486.5 660.8 485.65 660.55 484.8 660.45 483.85 660.25 482.9 660.2 481.9 660.1 480.9 660.1 479.85 660.1 478.75 660.2 477.75 660.25 476.7 660.45 475.75 660.55 474.8 660.8 474 661 473.15 661.35 472.4 661.7 471.75 662.15 471.2 662.55 470.65 663.05 470.25 663.5 469.85 664.05 469.65 664.6 469.45 665.25 469.45
M 648.55 488.4
Q 649.05 487.2 649.4 485.85 649.7 484.45 649.85 483 650.05 481.5 650.05 479.85 650.05 478.25 649.85 476.75 649.7 475.25 649.4 473.85 649.05 472.5 648.55 471.3 648 470.15 647.3 469.1 646.65 468.15 645.85 467.4 645.1 466.6 644.2 466.05 643.25 465.45 642.2 465.2 641.2 464.85 640.05 464.85 638.8 464.9 637.7 465.15 636.6 465.45 635.7 466 634.8 466.55 634 467.3 633.2 468.05 632.55 469 631.95 470 631.5 471.2 631.05 472.4 630.75 473.75 630.4 475.15 630.25 476.65 630.1 478.2 630.15 479.85 630.1 481.5 630.25 483 630.4 484.45 630.7 485.85 630.95 487.2 631.4 488.4 631.85 489.6 632.5 490.6 633.2 491.6 634 492.4 634.8 493.15 635.7 493.7 636.55 494.3 637.65 494.55 638.7 494.8 640.05 494.8 641.2 494.8 642.25 494.55 643.25 494.3 644.25 493.7 645.15 493.15 645.95 492.4 646.75 491.6 647.4 490.6 648.05 489.6 648.55 488.4
M 640.05 469.45
Q 640.6 469.45 641.15 469.65 641.65 469.9 642.2 470.25 642.7 470.7 643.15 471.25 643.55 471.8 643.9 472.5 644.1 473.2 644.35 474.05 644.6 474.85 644.8 475.8 644.95 476.75 645.1 477.75 645.2 478.8 645.2 479.85 645.2 480.95 645.1 481.95 645 483 644.85 483.9 644.45 485.85 643.9 487.25 643.6 488 643.15 488.55 642.75 489.15 642.25 489.55 641.7 490 641.15 490.15 640.6 490.4 640.05 490.4 639.4 490.4 638.8 490.15 638.25 489.95 637.75 489.5 636.8 488.65 636.1 487.25 635.75 486.5 635.6 485.65 635.35 484.8 635.25 483.85 635.05 482.9 635 481.9 634.9 480.9 634.9 479.85 634.9 478.75 635 477.75 635.05 476.7 635.25 475.75 635.35 474.8 635.6 474 635.8 473.15 636.15 472.4 636.5 471.75 636.95 471.2 637.35 470.65 637.85 470.25 638.3 469.85 638.85 469.65 639.4 469.45 640.05 469.45
M 617.15 469
Q 617 469.3 616.8 469.45 616.5 469.7 616.15 469.85 615.8 470 615.4 470.1 615 470.15 614.55 470.2 614.15 470.25 613.7 470.25 613.2 470.3 612.85 470.45 612.45 470.6 612.2 470.9 611.9 471.25 611.8 471.6 611.65 471.95 611.65 472.4 611.65 472.8 611.8 473.2 611.9 473.55 612.15 473.85 612.35 474.25 612.7 474.4 613.05 474.6 613.55 474.6
L 617.15 474.6
Q 617.15 476.8 617.15 479 617.15 481.25 617.2 483.4 617.2 487.85 617.2 492.25 617.2 492.7 617.35 493.05 617.55 493.35 617.95 493.65 618.3 493.9 618.75 494.1 619.15 494.25 619.65 494.25 619.8 494.25 620 494.2 620.15 494.15 620.35 494.05 620.5 494 620.65 493.9 620.85 493.85 621 493.7 621.25 493.55 621.45 493.4 621.65 493.2 621.75 493.05 621.85 492.85 621.9 492.65 622 492.5 622 492.25
L 622 490.6
Q 622 487.6 621.95 484.65 621.95 481.7 621.95 478.85 621.9 475.95 621.9 473.05 621.9 470.15 621.9 467.2 621.9 466.45 621.2 465.9 620.8 465.6 620.45 465.45 620.15 465.3 619.85 465.3 619.3 465.3 618.95 465.45 618.6 465.55 618.45 465.8 618.25 466.05 618.15 466.35 618 466.65 617.9 466.95 617.7 467.3 617.6 467.65 617.5 468 617.4 468.35 617.3 468.7 617.15 469
M 135.5 485.7
Q 135.3 485.6 135.05 485.55 134.8 485.55 134.6 485.5 134.35 485.45 134.2 485.45 133.85 485.45 133.45 485.6 133.1 485.7 132.75 485.9 132.3 486.1 132.15 486.45 131.95 486.8 131.95 487.2
L 131.95 495.5
Q 131.95 496.35 132.2 497 132.5 497.65 133.05 498.1 133.6 498.55 134.3 498.75 134.95 499 135.75 499
L 152.35 499
Q 152.7 499 153.05 498.85 153.35 498.7 153.6 498.4 153.85 498.05 154 497.65 154.1 497.3 154.1 496.85 154.1 496.45 154 496.1 153.85 495.75 153.6 495.45 153.35 495.15 153.05 495 152.7 494.85 152.35 494.8
L 139 494.8
Q 138.35 494.85 137.8 494.8 137.25 494.75 136.75 494.65
L 136.75 487.2
Q 136.75 486.95 136.65 486.8 136.6 486.6 136.45 486.4 136.3 486.25 136.15 486.1 136 485.95 135.8 485.85 135.65 485.75 135.5 485.7
M 142.5 464.95
Q 142.2 464.7 141.9 464.55 141.6 464.35 141.2 464.2 140.45 463.95 139.55 463.95
L 130.45 463.95
Q 129.55 463.95 128.9 464.25 128.2 464.55 127.75 465.1 127.2 465.7 126.95 466.45 126.7 467.15 126.7 467.95
L 126.7 476.4
Q 126.7 477.3 127.05 478 127.2 478.35 127.4 478.65 127.6 478.9 127.85 479.1 128.2 479.35 128.5 479.55 128.85 479.7 129.2 479.8 129.8 480.1 130.8 480.1
L 140.05 480.1
Q 140.45 480.1 140.8 480 141.15 479.9 141.55 479.75 141.85 479.6 142.15 479.4 142.4 479.2 142.6 478.9 143.05 478.3 143.4 477.6 143.55 477.25 143.65 476.9 143.75 476.5 143.75 476.1
L 143.75 467.65
Q 143.75 467.2 143.65 466.85 143.5 466.45 143.35 466.1 143.1 465.8 142.95 465.5 142.7 465.2 142.5 464.95
M 132.05 468.4
Q 132.45 468.4 132.8 468.3 133.2 468.3 133.5 468.3 133.85 468.3 134.2 468.3
L 135.95 468.3
Q 136.35 468.3 136.75 468.3 137.1 468.3 137.45 468.3 137.8 468.3 138.15 468.3 138.5 468.3 138.95 468.3 138.95 468.7 138.95 469.1 139 469.45 139 469.8 139 470.6 139 471.25
L 139 472.85
Q 139 473.2 139 473.6 139 473.95 139 474.3 139 474.65 138.95 475.05 138.95 475.4 138.95 475.75 138.5 475.8 138.15 475.8 137.8 475.8 137.45 475.8 137.1 475.8 136.75 475.8 136.35 475.8 135.95 475.8
L 134.2 475.8
Q 133.55 475.8 132.85 475.8 132.5 475.8 132.1 475.8 131.75 475.8 131.35 475.75 131.3 475.4 131.3 475.05 131.3 474.65 131.3 474.3 131.3 473.95 131.3 473.6 131.3 473.2 131.3 472.85
L 131.3 468.5
Q 131.7 468.45 132.05 468.4
M 151.45 462.7
Q 151.05 462.7 150.65 462.75 150.25 462.85 149.85 463.05 149.45 463.2 149.25 463.55 149.05 463.9 149.05 464.4
L 149.05 485.6
Q 149.05 486.1 149.25 486.45 149.45 486.8 149.85 486.95 150.25 487.15 150.65 487.25 151.05 487.3 151.45 487.3 151.95 487.3 152.4 487.25 152.8 487.15 153.2 486.95 153.5 486.8 153.65 486.45 153.8 486.1 153.85 485.6
L 153.85 476.45 157.55 476.45
Q 158.1 476.45 158.5 476.3 158.9 476.15 159.05 475.85 159.2 475.55 159.3 475.2 159.35 474.8 159.35 474.4 159.35 473.95 159.3 473.55 159.2 473.15 159.05 472.85 158.9 472.6 158.5 472.4 158.1 472.25 157.55 472.25
L 153.85 472.25 153.85 464.4
Q 153.8 463.9 153.65 463.55 153.5 463.15 153.2 463 152.8 462.85 152.4 462.75 151.95 462.7 151.45 462.7
M 96.8 488.65
Q 97.15 488.8 97.6 488.8
L 112.05 488.8
Q 112.45 488.8 112.75 488.8 113.05 488.85 113.4 488.85 113.65 488.85 113.95 488.9 114.25 488.9 114.6 488.9
L 114.6 498.45
Q 114.6 498.7 114.65 498.9 114.7 499.15 114.8 499.3 115 499.55 115.3 499.8 115.4 499.85 115.55 499.9 115.7 500 115.95 500.05 116.15 500.05 116.35 500.05 116.55 500.1 116.8 500.1 116.9 500.1 117.1 500.05 117.25 500.05 117.5 500.05 117.7 500 117.9 499.9 118.05 499.85 118.25 499.8 118.55 499.55 118.75 499.3 118.85 498.95 118.85 498.45
L 118.85 488.05
Q 118.85 487.35 118.7 486.7 118.5 486.1 118.15 485.55 117.8 485.1 117.3 484.8 116.8 484.55 116.15 484.55
L 97.6 484.55
Q 97.15 484.55 96.8 484.7 96.5 484.85 96.35 485.15 96.15 485.45 96.05 485.85 95.95 486.2 95.95 486.65 95.95 487.05 96.05 487.4 96.15 487.8 96.35 488.1 96.5 488.5 96.8 488.65
M 102.35 463.8
Q 102.05 463.7 101.75 463.7 100.8 463.7 100.2 464.05 99.85 464.25 99.7 464.6 99.55 464.95 99.55 465.45
L 99.55 468.7 93.6 468.7 93.6 465.45
Q 93.6 465 93.45 464.65 93.25 464.3 92.9 464.05 92.5 463.9 92.15 463.8 91.8 463.7 91.5 463.7 91 463.7 90.6 463.8 90.2 463.9 89.85 464.05 89.5 464.25 89.3 464.6 89.15 464.95 89.15 465.45
L 89.15 476.6
Q 89.15 477.75 89.5 478.55 89.8 479.35 90.5 479.75 91.15 480.2 92.05 480.4 92.9 480.6 93.95 480.6
L 99.75 480.6
Q 101.95 480.6 103 479.8 103.45 479.35 103.7 478.55 103.95 477.8 103.95 476.6
L 103.95 465.45
Q 103.95 464.95 103.75 464.6 103.5 464.25 103.15 464.05 102.7 463.9 102.35 463.8
M 99.5 472.65
L 99.5 474.85
Q 99.5 475.1 99.5 475.35 99.45 475.55 99.4 475.75 99.35 476 99.3 476.2 99.3 476.4 99.3 476.65 99 476.65 98.75 476.65 98.45 476.7 98.25 476.7 97.9 476.7 97.65 476.7 97.35 476.7 97.1 476.7
L 93.9 476.7
Q 93.75 476.35 93.7 475.9 93.6 475.45 93.6 474.85
L 93.6 472.65 99.5 472.65
M 111.05 463.5
Q 110.7 463.35 110.3 463.3 109.95 463.2 109.55 463.2 109.05 463.2 108.65 463.3 108.25 463.35 107.95 463.5 107.6 463.65 107.4 464 107.2 464.35 107.2 464.85
L 107.2 480.05
Q 107.2 480.55 107.4 480.9 107.6 481.25 107.95 481.4 108.25 481.55 108.65 481.65 109.05 481.75 109.55 481.75 109.95 481.75 110.3 481.65 110.7 481.55 111.05 481.4 111.4 481.25 111.6 480.9 111.8 480.55 111.8 480.05
L 111.8 474.1 114.75 474.1 114.75 480.45
Q 114.75 481.4 115.4 481.8 115.65 481.95 116.05 482.05 116.45 482.15 117 482.15 117.45 482.15 117.8 482.05 118.15 481.95 118.45 481.8 118.75 481.6 118.85 481.3 119 480.95 119 480.45
L 119 464.1
Q 119 463.55 118.85 463.2 118.75 462.85 118.45 462.7 118.15 462.6 117.8 462.55 117.45 462.5 117 462.5 116.45 462.5 116.05 462.55 115.65 462.6 115.4 462.7 115.1 462.85 114.95 463.2 114.75 463.55 114.75 464.1
L 114.75 469.9 111.8 469.9 111.8 464.85
Q 111.8 464.35 111.6 464 111.4 463.65 111.05 463.5 Z"/>
</g>

<path id="Layer0_0_1_STROKES" stroke="#569ECC" stroke-width="5" stroke-linejoin="round" stroke-linecap="round" fill="none" d="
M 396.85 4.95
L 1105 4.95
Q 1115.35 4.95 1122.65 12.25 1130 19.6 1130 29.95
L 1130 540.1
Q 1130 550.5 1122.65 557.75 1115.4 565.1 1105 565.1
L 30 565.1
Q 19.65 565.1 12.3 557.75 5 550.45 5 540.1
L 5 29.95
Q 5 19.65 12.3 12.25 19.7 4.95 30 4.95
L 52.75 4.95 396.85 4.95 Z"/>
</defs>

<g transform="matrix( 1, 0, 0, 1, 0,0) ">
<use xlink:href="#Layer0_0_FILL"/>

<use xlink:href="#Layer0_0_1_STROKES"/>
</g>

<g transform="matrix( 1, 0, 0, 1, 0,0) ">
<use xlink:href="#Layer0_1_FILL"/>
</g>

<g transform="matrix( 1, 0, 0, 1, 0,0) ">
<use xlink:href="#Layer0_2_FILL"/>
</g>
</svg>
