<?xml version="1.0" encoding="utf-8"?>
<!-- Generator: Adobe Illustrator 23.0.0, SVG Export Plug-In . SVG Version: 6.00 Build 0)  -->
<svg version="1.1" id="레이어_1" xmlns="http://www.w3.org/2000/svg" xmlns:xlink="http://www.w3.org/1999/xlink" x="0px"
	 y="0px" width="200.3px" height="47.2px" viewBox="0 0 200.3 47.2" style="enable-background:new 0 0 200.3 47.2;"
	 xml:space="preserve">
<title>자산 2</title>
<line style="fill:none;stroke:#231815;stroke-width:0.4;stroke-miterlimit:10;" x1="20.7" y1="36.2" x2="33.5" y2="36.2"/>
<line style="fill:none;stroke:#231815;stroke-width:0.4;stroke-miterlimit:10;" x1="33.5" y1="36.2" x2="46.3" y2="36.2"/>
<line style="fill:none;stroke:#231815;stroke-width:0.4;stroke-miterlimit:10;" x1="46.3" y1="36.2" x2="59" y2="36.2"/>
<line style="fill:none;stroke:#231815;stroke-width:0.4;stroke-miterlimit:10;" x1="59" y1="36.2" x2="62" y2="36.2"/>
<line style="fill:none;stroke:#231815;stroke-width:0.4;stroke-miterlimit:10;" x1="16.5" y1="36.2" x2="20.7" y2="36.2"/>
<line style="fill:none;stroke:#231815;stroke-width:0.4;stroke-miterlimit:10;" x1="20.7" y1="10.8" x2="33.5" y2="10.8"/>
<line style="fill:none;stroke:#231815;stroke-width:0.4;stroke-miterlimit:10;" x1="33.5" y1="10.8" x2="46.3" y2="10.8"/>
<line style="fill:none;stroke:#231815;stroke-width:0.4;stroke-miterlimit:10;" x1="46.3" y1="10.8" x2="59" y2="10.8"/>
<line style="fill:none;stroke:#231815;stroke-width:0.4;stroke-miterlimit:10;" x1="59" y1="10.8" x2="62" y2="10.8"/>
<line style="fill:none;stroke:#231815;stroke-width:0.4;stroke-miterlimit:10;" x1="16.5" y1="10.8" x2="20.7" y2="10.8"/>
<path style="fill:#00A0E9;" d="M53,0.1c0.7-0.1,1.4,0.2,1.9,0.8c0.5,0.7,0.7,1.4,0.6,2.2v0.3c0,0.7,0,1.3-0.2,2
	c-0.1,0.4-0.3,0.9-0.6,1.2c-0.2,0.3-0.5,0.5-0.9,0.6S53,7.4,52.6,7.4c-0.3,0-0.6,0-0.9-0.1c-0.2,0-0.5-0.1-0.7-0.3
	c0.1,0,0-0.1-0.1-0.2c0-0.1,0-0.2,0-0.3c0-0.1,0.1-0.2,0.2-0.2c0.1,0,0.2,0,0.3,0c0.2,0.1,0.4,0.2,0.6,0.2c0.2,0.1,0.4,0.1,0.7,0.1
	c0.2,0,0.5,0,0.7-0.1s0.4-0.2,0.6-0.4c0.2-0.2,0.3-0.5,0.3-0.8c0.1-0.4,0.1-0.8,0.1-1.2c-0.2,0.3-0.4,0.5-0.7,0.6s-0.7,0.2-1,0.2
	s-0.6,0-0.9-0.2c-0.3-0.1-0.5-0.2-0.7-0.4C51,4,50.8,3.8,50.7,3.5s-0.2-0.6-0.2-0.9V2.4c0-0.3,0.1-0.6,0.2-0.9
	C50.8,1.2,51,1,51.2,0.8s0.5-0.4,0.8-0.5C52.3,0.1,52.7,0.1,53,0.1z M53,1c-0.4,0-0.8,0.1-1.1,0.4s-0.4,0.7-0.4,1.1v0.1
	c-0.1,0.7,0.4,1.4,1.1,1.5c0.1,0,0.3,0,0.4,0c0.2,0,0.4,0,0.7-0.1c0.2-0.1,0.3-0.2,0.5-0.3c0.1-0.1,0.2-0.3,0.3-0.4
	c0.1-0.2,0.1-0.4,0.1-0.5V2.5c0-0.4-0.1-0.8-0.4-1.1C53.8,1.1,53.4,1,53,1z"/>
<path style="fill:#231815;" d="M2.5,12.8c0.7,0,1.4,0.2,1.9,0.8C4.8,14.3,5,15.1,5,15.9v0.3c0,0.7,0,1.3-0.2,2
	c-0.1,0.4-0.3,0.9-0.6,1.2C4,19.7,3.7,19.9,3.4,20c-0.4,0.1-0.8,0.2-1.2,0.2c-0.3,0-0.6,0-0.9-0.1c-0.2,0-0.5-0.1-0.7-0.3
	c-0.1-0.1-0.2-0.1-0.2-0.3c0-0.1,0-0.2,0-0.3c0-0.1,0.1-0.2,0.3-0.2c0.1,0,0.2,0,0.3,0c0.2,0.1,0.4,0.2,0.6,0.2
	c0.2,0.1,0.4,0.1,0.7,0.1s0.5,0,0.8-0.1c0.2-0.1,0.4-0.2,0.5-0.4c0.2-0.2,0.3-0.5,0.3-0.8c0-0.4,0.1-0.8,0.1-1.2
	c-0.2,0.3-0.4,0.5-0.7,0.6s-0.7,0.2-1,0.2s-0.6,0-0.9-0.2c-0.3-0.1-0.5-0.2-0.7-0.5c-0.2-0.2-0.3-0.5-0.4-0.7C0,16,0,15.7,0,15.3
	v-0.2c0-0.3,0.1-0.6,0.2-0.9c0.1-0.3,0.3-0.5,0.5-0.7s0.5-0.4,0.8-0.5C1.8,12.9,2.1,12.8,2.5,12.8z M2.5,13.8
	c-0.4,0-0.8,0.1-1.1,0.4c-0.3,0.2-0.4,0.6-0.4,1v0.1c-0.1,0.7,0.4,1.4,1.1,1.5c0.1,0,0.2,0,0.4,0s0.4,0,0.7-0.1
	c0.2-0.1,0.3-0.2,0.5-0.3C3.8,16.3,3.9,16.1,4,16c-0.1-0.3,0-0.5,0-0.7v-0.1c0-0.4-0.1-0.8-0.4-1.1C3.3,13.9,2.9,13.7,2.5,13.8
	L2.5,13.8z"/>
<path style="fill:#231815;" d="M8.6,12.8c0.8-0.1,1.5,0.3,1.9,0.9c0.5,0.8,0.7,1.7,0.6,2.5v0.5c0.1,0.9-0.2,1.8-0.6,2.5
	c-0.5,0.6-1.2,0.9-1.9,0.9c-0.8,0.1-1.5-0.2-2-0.9C6.2,18.5,6,17.6,6,16.8v-0.5c-0.1-0.9,0.2-1.8,0.6-2.5
	C7.1,13.1,7.9,12.8,8.6,12.8z M8.6,13.8c-0.3,0-0.5,0-0.7,0.1s-0.4,0.3-0.5,0.5s-0.2,0.5-0.3,0.8C7,15.6,7,16,7,16.4v0.3
	c0,0.4,0,0.8,0.1,1.1c0,0.3,0.1,0.6,0.3,0.8c0.1,0.2,0.3,0.4,0.5,0.5s0.5,0.2,0.7,0.1c0.3,0,0.5,0,0.7-0.1s0.4-0.3,0.5-0.5
	s0.2-0.5,0.3-0.8c0.1-0.4,0.1-0.8,0.1-1.1v-0.3c0-0.4,0-0.8-0.1-1.1c0-0.3-0.1-0.5-0.3-0.8c-0.1-0.2-0.3-0.4-0.5-0.5
	C9.1,13.8,8.9,13.8,8.6,13.8z"/>
<path style="fill:#231815;" d="M27.6,12.8c0.3,0,0.6,0.1,0.9,0.2c0.3,0.1,0.5,0.2,0.7,0.4s0.3,0.4,0.4,0.6c0.1,0.2,0.2,0.5,0.1,0.7
	v0.1c0,0.3-0.1,0.6-0.3,0.9c-0.2,0.3-0.5,0.5-0.8,0.7c0.4,0.1,0.7,0.3,0.9,0.6c0.2,0.3,0.4,0.7,0.4,1v0.1c0,0.3-0.1,0.5-0.2,0.8
	c-0.1,0.2-0.3,0.5-0.5,0.6c-0.2,0.2-0.5,0.3-0.8,0.4s-0.7,0.2-1,0.1c-0.3,0-0.7,0-1-0.1s-0.5-0.2-0.8-0.4c-0.2-0.2-0.4-0.4-0.5-0.6
	s-0.2-0.5-0.2-0.8V18c0-0.2,0-0.4,0.1-0.6s0.2-0.3,0.3-0.5c0.2-0.3,0.5-0.5,0.9-0.6c-0.3-0.1-0.6-0.4-0.8-0.7
	c-0.2-0.3-0.3-0.6-0.3-0.9v-0.1c0-0.2,0-0.5,0.1-0.7s0.2-0.4,0.4-0.6c0.2-0.2,0.4-0.3,0.7-0.4C26.9,12.9,27.2,12.8,27.6,12.8z
	 M27.6,16.8c-0.2,0-0.4,0.1-0.6,0.2c-0.2,0-0.3,0.1-0.5,0.2c-0.3,0.2-0.4,0.6-0.4,0.9v0.1c0,0.3,0.1,0.6,0.4,0.8
	c0.3,0.2,0.6,0.3,1,0.3s0.7-0.1,1-0.3c0.2-0.2,0.4-0.5,0.4-0.8v-0.1c0-0.2,0-0.4-0.1-0.5s-0.2-0.3-0.3-0.4c-0.1-0.1-0.3-0.2-0.4-0.2
	C27.9,16.9,27.7,16.9,27.6,16.8L27.6,16.8z M27.6,13.7c-0.3,0-0.6,0.1-0.9,0.3c-0.2,0.2-0.4,0.5-0.3,0.8v0.1c0,0.2,0,0.3,0.1,0.5
	c0.1,0.1,0.2,0.3,0.3,0.4c0.2,0.2,0.6,0.3,0.9,0.3s0.6-0.1,0.9-0.3c0.2-0.2,0.4-0.5,0.4-0.8v-0.1c0-0.3-0.1-0.6-0.3-0.8
	C28.2,13.8,27.9,13.7,27.6,13.7L27.6,13.7z"/>
<path style="fill:#231815;" d="M41,12.9c0.1,0,0.3,0,0.4,0.1c0.1,0.1,0.1,0.2,0.1,0.3v6.4c0,0.1,0,0.2-0.2,0.3
	c-0.2,0.1-0.5,0.1-0.7,0c-0.1-0.1-0.2-0.2-0.2-0.3v-5.6L39,15c-0.1,0.1-0.2,0.1-0.4,0c-0.1,0-0.2-0.1-0.3-0.2
	c-0.1-0.1-0.1-0.2,0-0.3c0-0.1,0.1-0.2,0.2-0.3l1.8-1.1c0.1-0.1,0.2-0.1,0.4-0.2C40.8,12.9,40.9,12.9,41,12.9z"/>
<path style="fill:#231815;" d="M53.1,12.8c0.8-0.1,1.5,0.3,2,0.9c0.5,0.8,0.7,1.7,0.6,2.5v0.5c0,0.9-0.2,1.8-0.7,2.5
	c-0.9,1.1-2.6,1.2-3.7,0.2c-0.1-0.1-0.2-0.1-0.2-0.2c-0.5-0.8-0.7-1.7-0.6-2.5v-0.5c-0.1-0.9,0.2-1.8,0.6-2.5
	C51.6,13.1,52.3,12.8,53.1,12.8z M53.1,13.8c-0.3,0-0.5,0-0.7,0.1s-0.4,0.3-0.5,0.5s-0.2,0.5-0.3,0.8c-0.1,0.4-0.1,0.8-0.1,1.2v0.3
	c0,0.4,0,0.8,0.1,1.1c0,0.3,0.1,0.6,0.3,0.8c0.1,0.2,0.3,0.4,0.5,0.5c0.5,0.2,1,0.2,1.5,0c0.2-0.1,0.4-0.3,0.5-0.5s0.2-0.5,0.3-0.8
	c0.1-0.4,0.1-0.8,0.1-1.1v-0.3c0-0.4,0-0.8-0.1-1.1c0-0.3-0.1-0.5-0.3-0.8c-0.1-0.2-0.3-0.4-0.5-0.5C53.6,13.8,53.3,13.8,53.1,13.8z
	"/>
<path style="fill:#231815;" d="M27.6,25.5c0.3,0,0.6,0.1,1,0.2c0.3,0.1,0.5,0.2,0.7,0.4c0.2,0.2,0.3,0.4,0.4,0.6s0.2,0.5,0.1,0.7
	v0.1c0,0.3-0.1,0.6-0.3,0.9c-0.2,0.3-0.5,0.5-0.8,0.7c0.4,0.1,0.7,0.3,0.9,0.6c0.2,0.3,0.4,0.7,0.3,1v0.1c0,0.3-0.1,0.5-0.2,0.8
	c-0.1,0.2-0.3,0.5-0.5,0.6c-0.2,0.2-0.5,0.3-0.8,0.4c-0.7,0.2-1.4,0.2-2,0c-0.3-0.1-0.5-0.2-0.8-0.4c-0.2-0.2-0.4-0.4-0.5-0.6
	c-0.1-0.3-0.2-0.5-0.2-0.8v-0.1c0-0.2,0-0.4,0.1-0.6s0.2-0.3,0.3-0.5c0.2-0.3,0.5-0.5,0.9-0.6c-0.3-0.1-0.6-0.4-0.8-0.7
	c-0.2-0.3-0.3-0.6-0.3-0.9v-0.1c0-0.3,0-0.5,0.1-0.7s0.2-0.4,0.4-0.6c0.2-0.2,0.4-0.3,0.7-0.4C26.9,25.6,27.2,25.5,27.6,25.5z
	 M27.6,29.5c-0.2,0-0.4,0-0.5,0.1c-0.2,0-0.3,0.1-0.5,0.2c-0.1,0.1-0.2,0.2-0.3,0.4c-0.1,0.2-0.1,0.3-0.1,0.5v0.1
	c0,0.3,0.1,0.6,0.4,0.8c0.3,0.2,0.6,0.3,1,0.3s0.7-0.1,1-0.3c0.2-0.2,0.4-0.5,0.4-0.8v-0.1c0-0.2,0-0.4-0.1-0.5s-0.2-0.3-0.3-0.4
	c-0.1-0.1-0.3-0.2-0.4-0.2C27.9,29.6,27.7,29.5,27.6,29.5L27.6,29.5z M27.6,26.4c-0.3,0-0.6,0.1-0.9,0.3c-0.2,0.2-0.4,0.5-0.3,0.8
	v0.1c0,0.2,0,0.3,0.1,0.5c0.1,0.1,0.2,0.3,0.3,0.4c0.1,0.1,0.2,0.2,0.4,0.2c0.2,0,0.3,0.1,0.5,0.1c0.3,0,0.6-0.1,0.9-0.3
	c0.2-0.2,0.4-0.5,0.4-0.8v-0.1c0-0.3-0.1-0.6-0.3-0.8C28.2,26.5,27.9,26.4,27.6,26.4L27.6,26.4z"/>
<path style="fill:#231815;" d="M41,25.6c0.1,0,0.3,0,0.4,0.1c0.1,0.1,0.1,0.2,0.1,0.3v6.4c0,0.1,0,0.2-0.2,0.3s-0.5,0.1-0.7,0
	c-0.1-0.1-0.2-0.2-0.2-0.3v-5.6L39,27.7c-0.1,0.1-0.2,0.1-0.4,0c-0.1,0-0.2-0.1-0.3-0.2c0-0.1-0.1-0.2-0.1-0.3
	c0-0.1,0.1-0.2,0.2-0.3l1.8-1.1c0.1-0.1,0.2-0.1,0.4-0.2C40.8,25.6,40.9,25.6,41,25.6z"/>
<path style="fill:#231815;" d="M53.1,25.5c0.8-0.1,1.5,0.3,2,0.9c0.5,0.8,0.7,1.7,0.6,2.5v0.5c0.1,0.9-0.1,1.8-0.6,2.6
	c-0.9,1.1-2.6,1.2-3.7,0.2c-0.1-0.1-0.2-0.1-0.2-0.2c-0.5-0.8-0.7-1.7-0.6-2.5V29c-0.1-0.9,0.2-1.8,0.6-2.5
	C51.6,25.8,52.3,25.5,53.1,25.5z M53.1,26.5c-0.3,0-0.5,0-0.7,0.1s-0.4,0.3-0.5,0.5s-0.2,0.5-0.3,0.8c-0.1,0.4-0.1,0.8-0.1,1.1v0.3
	c0,0.4,0,0.8,0.1,1.1c0,0.3,0.1,0.6,0.3,0.8c0.1,0.2,0.3,0.4,0.5,0.5c0.5,0.2,1,0.2,1.5,0c0.2-0.1,0.4-0.3,0.5-0.5s0.2-0.5,0.3-0.8
	c0.1-0.4,0.1-0.8,0.1-1.1V29c0-0.4,0-0.8-0.1-1.1c0-0.3-0.1-0.5-0.3-0.8c-0.1-0.2-0.3-0.4-0.5-0.5C53.6,26.5,53.4,26.4,53.1,26.5z"
	/>
<path style="fill:#00A0E9;" d="M53.1,38.4c0.8-0.1,1.5,0.3,2,0.9c0.5,0.8,0.7,1.7,0.6,2.5v0.5c0.1,0.9-0.2,1.8-0.6,2.5
	c-0.9,1.1-2.6,1.2-3.7,0.2c-0.1-0.1-0.2-0.1-0.2-0.2c-0.5-0.8-0.7-1.7-0.6-2.5v-0.5c-0.1-0.9,0.2-1.8,0.6-2.5
	C51.6,38.7,52.3,38.4,53.1,38.4z M53.1,39.4c-0.3,0-0.5,0-0.7,0.2c-0.2,0.1-0.4,0.3-0.5,0.5s-0.2,0.5-0.3,0.8
	c-0.1,0.4-0.1,0.8-0.1,1.2v0.3c0,0.4,0,0.8,0.1,1.2c0,0.3,0.1,0.6,0.3,0.8c0.1,0.2,0.3,0.4,0.5,0.5c0.5,0.2,1,0.2,1.5,0
	c0.2-0.1,0.4-0.3,0.5-0.5s0.2-0.5,0.3-0.8c0.1-0.4,0.1-0.8,0.1-1.2v-0.3c0-0.4,0-0.8-0.1-1.2c0-0.3-0.1-0.5-0.3-0.8
	c-0.1-0.2-0.3-0.4-0.5-0.5C53.6,39.4,53.4,39.4,53.1,39.4z"/>
<line style="fill:none;stroke:#231815;stroke-width:0.4;stroke-miterlimit:10;" x1="123.3" y1="36.2" x2="136.1" y2="36.2"/>
<line style="fill:none;stroke:#231815;stroke-width:0.4;stroke-miterlimit:10;" x1="136.1" y1="36.2" x2="148.8" y2="36.2"/>
<line style="fill:none;stroke:#231815;stroke-width:0.3;stroke-miterlimit:10;" x1="148.8" y1="36.2" x2="161.6" y2="36.2"/>
<line style="fill:none;stroke:#231815;stroke-width:0.3;stroke-miterlimit:10;" x1="161.6" y1="36.2" x2="164.6" y2="36.2"/>
<line style="fill:none;stroke:#231815;stroke-width:0.4;stroke-miterlimit:10;" x1="119.1" y1="36.2" x2="123.3" y2="36.2"/>
<line style="fill:none;stroke:#231815;stroke-width:0.4;stroke-miterlimit:10;" x1="123.3" y1="10.3" x2="136.1" y2="10.3"/>
<line style="fill:none;stroke:#231815;stroke-width:0.4;stroke-miterlimit:10;" x1="136.1" y1="10.3" x2="148.8" y2="10.3"/>
<line style="fill:none;stroke:#231815;stroke-width:0.4;stroke-miterlimit:10;" x1="148.8" y1="10.3" x2="161.6" y2="10.3"/>
<line style="fill:none;stroke:#231815;stroke-width:0.4;stroke-miterlimit:10;" x1="161.6" y1="10.3" x2="164.6" y2="10.3"/>
<line style="fill:none;stroke:#231815;stroke-width:0.4;stroke-miterlimit:10;" x1="119.1" y1="10.3" x2="123.3" y2="10.3"/>
<path style="fill:#00A0E9;" d="M158,0.3c0.1,0.1,0.2,0.3,0.2,0.4s0,0.1,0,0.1v0.1c0,0,0,0.1-0.1,0.2S158,1.3,158,1.4L155.4,7
	c0,0.1-0.1,0.2-0.3,0.3c-0.2,0-0.5-0.1-0.6-0.3c-0.1-0.1-0.1-0.3,0-0.4l2.6-5.6h-3.6c-0.1,0-0.2,0-0.3-0.1s-0.1-0.2-0.1-0.3
	s0-0.2,0.1-0.3s0.2-0.1,0.3-0.1h4C157.6,0.2,157.8,0.2,158,0.3z"/>
<path style="fill:#231815;" d="M106.3,13c0.1,0.1,0.2,0.2,0.2,0.3s0,0.3-0.1,0.4l-2.8,4.1h2.4V16c0-0.1,0-0.2,0.2-0.3
	c0.1-0.1,0.2-0.1,0.3-0.1c0.1,0,0.2,0,0.3,0.1c0.1,0.1,0.2,0.2,0.2,0.3v1.8h0.7c0.1,0,0.2,0,0.3,0.1c0.1,0.1,0.1,0.2,0.1,0.3
	c0,0.1,0,0.2-0.1,0.3c-0.1,0.1-0.2,0.1-0.3,0.1H107v1.2c0,0.1,0,0.2-0.2,0.3c-0.1,0.1-0.2,0.1-0.3,0.1c-0.1,0-0.2,0-0.3-0.1
	c-0.1-0.1-0.2-0.2-0.2-0.3v-1.2h-3c-0.2,0-0.4,0-0.5-0.1s-0.2-0.2-0.2-0.4c0-0.1,0-0.1,0-0.2c0.1-0.1,0.1-0.3,0.2-0.4l3-4.4
	c0.1-0.1,0.2-0.2,0.3-0.2C106,12.9,106.2,12.9,106.3,13z"/>
<path style="fill:#231815;" d="M111.2,12.8c0.8-0.1,1.5,0.3,2,0.9c0.5,0.8,0.7,1.7,0.6,2.5v0.5c0.1,0.9-0.2,1.8-0.6,2.5
	c-0.5,0.6-1.2,1-2,0.9c-0.8,0.1-1.5-0.3-2-0.9c-0.4-0.8-0.7-1.7-0.6-2.5v-0.5c-0.1-0.9,0.2-1.8,0.6-2.5
	C109.7,13.1,110.4,12.8,111.2,12.8z M111.2,13.8c-0.3,0-0.5,0-0.7,0.1s-0.4,0.3-0.5,0.5s-0.2,0.5-0.3,0.8c-0.1,0.4-0.1,0.8-0.1,1.2
	v0.3c0,0.4,0,0.8,0.1,1.1c0,0.3,0.1,0.6,0.3,0.8c0.1,0.2,0.3,0.4,0.5,0.5s0.5,0.2,0.7,0.1c0.3,0,0.5,0,0.7-0.1s0.4-0.3,0.5-0.5
	s0.2-0.5,0.3-0.8c0.1-0.4,0.1-0.8,0.1-1.1v-0.3c0-0.4,0-0.8-0.1-1.1c0-0.3-0.1-0.5-0.3-0.8c-0.1-0.2-0.3-0.4-0.5-0.5
	C111.7,13.8,111.5,13.8,111.2,13.8z"/>
<path style="fill:#231815;" d="M130.1,12.8c0.3,0,0.7,0,1,0.1s0.5,0.2,0.7,0.4s0.3,0.4,0.4,0.6c0.1,0.2,0.1,0.5,0.1,0.7v0.1
	c0,0.3-0.1,0.7-0.2,1c-0.2,0.4-0.5,0.7-0.8,1l-2.4,2.5h3.3c0.1,0,0.2,0,0.3,0.1s0.1,0.2,0.1,0.3c0,0.1,0,0.2-0.1,0.3
	c-0.1,0.1-0.2,0.1-0.3,0.1h-3.9c-0.2,0-0.4,0-0.6-0.1c-0.1-0.1-0.2-0.3-0.2-0.4s0-0.2,0.1-0.3c0.1-0.1,0.2-0.2,0.3-0.3l2.4-2.6
	c0.2-0.2,0.3-0.3,0.4-0.5c0.1-0.1,0.2-0.3,0.3-0.4c0.1-0.1,0.1-0.2,0.1-0.4c0-0.1,0-0.3,0-0.4v-0.1c0-0.3-0.1-0.5-0.3-0.7
	c-0.3-0.2-0.6-0.3-0.9-0.3c-0.3,0-0.6,0.1-0.8,0.2c-0.2,0.1-0.5,0.3-0.6,0.6c-0.1,0.1-0.2,0.2-0.3,0.2s-0.2,0-0.3-0.1
	c-0.1-0.1-0.2-0.2-0.2-0.3s0-0.2,0.1-0.3c0.2-0.3,0.5-0.6,0.9-0.8C129.2,12.9,129.6,12.8,130.1,12.8z"/>
<path style="fill:#231815;" d="M142.9,12.8c0.3,0,0.6,0.1,0.9,0.2c0.3,0.1,0.5,0.2,0.7,0.4s0.3,0.4,0.5,0.6c0.1,0.2,0.2,0.5,0.1,0.7
	v0.1c0,0.3-0.1,0.6-0.3,0.9c-0.2,0.3-0.5,0.5-0.8,0.7c0.4,0.1,0.7,0.3,0.9,0.6c0.2,0.3,0.4,0.7,0.4,1v0.1c0,0.3-0.1,0.5-0.2,0.8
	c-0.1,0.2-0.3,0.5-0.5,0.6c-0.2,0.2-0.5,0.3-0.8,0.4s-0.7,0.2-1,0.1c-0.3,0-0.7,0-1-0.1s-0.5-0.2-0.8-0.4c-0.2-0.2-0.4-0.4-0.5-0.6
	c-0.1-0.3-0.2-0.5-0.2-0.8V18c0-0.2,0-0.4,0.1-0.6c0.1-0.4,0.4-0.7,0.7-0.9c0.2-0.1,0.3-0.2,0.5-0.2c-0.3-0.1-0.6-0.4-0.8-0.7
	s-0.3-0.6-0.3-0.9v-0.1c0-0.2,0-0.5,0.1-0.7s0.2-0.4,0.4-0.6c0.2-0.2,0.4-0.3,0.7-0.4C142.3,12.9,142.6,12.8,142.9,12.8z
	 M142.9,16.8c-0.2,0-0.4,0-0.6,0.1c-0.2,0-0.3,0.1-0.4,0.2c-0.1,0.1-0.2,0.2-0.3,0.4c-0.1,0.2-0.1,0.3-0.1,0.5v0.1
	c0,0.3,0.1,0.6,0.4,0.8c0.3,0.2,0.6,0.3,1,0.3s0.7-0.1,1-0.3c0.2-0.2,0.4-0.5,0.4-0.8V18c0-0.2,0-0.4-0.1-0.5s-0.2-0.3-0.3-0.4
	s-0.3-0.2-0.4-0.2C143.2,16.9,143.1,16.9,142.9,16.8L142.9,16.8z M142.9,13.7c-0.3,0-0.6,0.1-0.9,0.3c-0.2,0.2-0.3,0.5-0.3,0.8v0.1
	c0,0.2,0,0.3,0.1,0.5c0.1,0.1,0.1,0.3,0.3,0.4c0.1,0.1,0.2,0.2,0.4,0.2s0.3,0.1,0.5,0.1c0.3,0,0.6-0.1,0.9-0.3
	c0.2-0.2,0.4-0.5,0.4-0.8v-0.1c0-0.3-0.1-0.6-0.3-0.8C143.5,13.8,143.2,13.7,142.9,13.7L142.9,13.7z"/>
<path style="fill:#231815;" d="M157.7,13.1c0.1,0.1,0.1,0.2,0.1,0.3s0,0.2-0.1,0.3s-0.2,0.1-0.3,0.1h-2.7l-0.1,2.2
	c0.2-0.1,0.4-0.2,0.6-0.3c0.3-0.1,0.5-0.1,0.8-0.1s0.6,0.1,0.9,0.2c0.3,0.1,0.5,0.3,0.7,0.5s0.3,0.4,0.4,0.7
	c0.1,0.3,0.2,0.6,0.1,0.9V18c0,0.3,0,0.6-0.1,0.8c-0.1,0.3-0.2,0.5-0.4,0.7s-0.5,0.4-0.8,0.5c-0.4,0.1-0.8,0.2-1.2,0.2
	s-0.8,0-1.2-0.1c-0.3-0.1-0.7-0.2-0.9-0.4c-0.1-0.1-0.2-0.2-0.2-0.3c0-0.1,0-0.2,0.1-0.4c0.1-0.2,0.3-0.3,0.5-0.2h0.1
	c0.2,0.2,0.5,0.3,0.8,0.4s0.6,0.1,0.9,0.1c0.2,0,0.5,0,0.7-0.1s0.3-0.2,0.5-0.3c0.1-0.1,0.2-0.3,0.3-0.5s0.1-0.4,0.1-0.5v-0.1
	c0-0.4-0.1-0.7-0.4-1c-0.3-0.2-0.7-0.4-1.1-0.4c-0.2,0-0.5,0-0.7,0.1s-0.4,0.2-0.6,0.3c-0.1,0.1-0.1,0.1-0.2,0.1c-0.1,0-0.2,0-0.2,0
	c-0.1,0-0.2,0-0.3-0.1s-0.1-0.2-0.1-0.3l0.2-3c0-0.1,0-0.3,0-0.4c0-0.1,0.1-0.2,0.1-0.2c0.1-0.1,0.1-0.1,0.2-0.1c0.1,0,0.2,0,0.4,0
	h2.9C157.5,12.9,157.6,13,157.7,13.1z"/>
<path style="fill:#231815;" d="M130.1,25.5c0.3,0,0.7,0,1,0.1s0.5,0.2,0.7,0.4c0.2,0.2,0.3,0.4,0.4,0.6c0.1,0.2,0.1,0.5,0.1,0.7v0.1
	c0,0.3-0.1,0.7-0.2,1c-0.2,0.4-0.5,0.7-0.8,1l-2.3,2.4h3.3c0.1,0,0.2,0,0.3,0.1c0.1,0.1,0.1,0.2,0.1,0.3s0,0.2-0.1,0.3
	s-0.2,0.1-0.3,0.1h-3.9c-0.2,0-0.4,0-0.6-0.1c-0.1-0.1-0.2-0.3-0.2-0.4c0-0.1,0-0.2,0.1-0.3c0.1-0.1,0.1-0.2,0.2-0.3l2.4-2.6
	c0.2-0.2,0.3-0.3,0.4-0.5c0.1-0.1,0.2-0.3,0.3-0.4s0.1-0.2,0.1-0.4c0-0.1,0-0.3,0-0.4l0,0c0-0.3-0.1-0.5-0.3-0.7
	c-0.3-0.2-0.6-0.3-0.9-0.3c-0.3,0-0.6,0.1-0.8,0.2s-0.5,0.3-0.6,0.6c-0.1,0.1-0.2,0.2-0.3,0.2s-0.2,0-0.3-0.1
	c-0.1-0.1-0.2-0.2-0.2-0.3c0-0.1,0-0.2,0.1-0.3c0.2-0.3,0.5-0.6,0.9-0.8C129.2,25.6,129.6,25.5,130.1,25.5z"/>
<path style="fill:#231815;" d="M142.9,25.5c0.3,0,0.6,0.1,0.9,0.2c0.3,0.1,0.5,0.2,0.7,0.4c0.2,0.2,0.3,0.4,0.4,0.6
	c0.1,0.2,0.2,0.5,0.1,0.7v0.1c0,0.3-0.1,0.6-0.3,0.9s-0.5,0.5-0.8,0.7c0.4,0.1,0.7,0.3,0.9,0.6c0.2,0.3,0.4,0.7,0.4,1v0.1
	c0,0.3-0.1,0.5-0.2,0.8c-0.1,0.2-0.3,0.5-0.5,0.6c-0.2,0.2-0.5,0.3-0.8,0.4c-0.3,0.1-0.7,0.2-1,0.2s-0.7,0-1-0.2
	c-0.3-0.1-0.5-0.2-0.8-0.4c-0.2-0.2-0.4-0.4-0.5-0.6c-0.1-0.3-0.2-0.5-0.2-0.8v-0.1c0-0.2,0-0.4,0.1-0.6c0.1-0.4,0.4-0.7,0.7-0.9
	c0.2-0.1,0.3-0.2,0.5-0.2c-0.3-0.1-0.6-0.4-0.8-0.7c-0.2-0.3-0.3-0.6-0.3-0.9v-0.1c0-0.2,0-0.5,0.1-0.7s0.2-0.4,0.4-0.6
	s0.4-0.3,0.7-0.4C142.3,25.6,142.6,25.5,142.9,25.5z M142.9,29.5c-0.2,0-0.4,0-0.6,0.1c-0.2,0-0.3,0.1-0.4,0.2
	c-0.1,0.1-0.2,0.2-0.3,0.4c-0.1,0.2-0.1,0.3-0.1,0.5v0.1c0,0.3,0.1,0.6,0.4,0.8c0.3,0.2,0.6,0.3,1,0.3s0.7-0.1,1-0.3
	c0.2-0.2,0.4-0.5,0.4-0.8v-0.1c0-0.2,0-0.4-0.1-0.5s-0.2-0.3-0.3-0.4s-0.3-0.2-0.4-0.2C143.2,29.6,143.1,29.5,142.9,29.5L142.9,29.5
	z M142.9,26.4c-0.3,0-0.6,0.1-0.9,0.3c-0.2,0.2-0.3,0.5-0.3,0.8v0.1c0,0.2,0,0.3,0.1,0.5c0.1,0.1,0.1,0.3,0.3,0.4
	c0.1,0.1,0.2,0.2,0.4,0.2s0.3,0.1,0.5,0.1c0.3,0,0.6-0.1,0.9-0.3c0.2-0.2,0.4-0.5,0.4-0.8v-0.1c0-0.3-0.1-0.6-0.3-0.8
	C143.5,26.5,143.2,26.4,142.9,26.4L142.9,26.4z"/>
<path style="fill:#231815;" d="M155.7,25.5c0.8-0.1,1.5,0.3,1.9,0.9c0.5,0.8,0.7,1.7,0.6,2.5v0.5c0.1,0.9-0.2,1.8-0.6,2.5
	c-0.5,0.6-1.2,0.9-1.9,0.9c-0.8,0.1-1.5-0.3-2-0.9c-0.4-0.8-0.7-1.7-0.6-2.5v-0.5c-0.1-0.9,0.2-1.8,0.6-2.5
	C154.1,25.8,154.9,25.4,155.7,25.5z M155.7,26.5c-0.3,0-0.5,0-0.7,0.1s-0.4,0.3-0.5,0.5s-0.2,0.5-0.3,0.8c-0.1,0.4-0.1,0.8-0.1,1.1
	v0.3c0,0.4,0,0.8,0.1,1.1c0,0.3,0.1,0.6,0.3,0.8c0.1,0.2,0.3,0.4,0.5,0.5s0.5,0.2,0.7,0.1c0.3,0,0.5,0,0.7-0.1s0.4-0.3,0.5-0.5
	s0.2-0.5,0.3-0.8c0.1-0.4,0.1-0.8,0.1-1.1V29c0-0.4,0-0.8-0.1-1.1c0-0.3-0.1-0.5-0.3-0.8c-0.1-0.2-0.3-0.4-0.5-0.5
	S155.9,26.4,155.7,26.5z"/>
<path style="fill:#00A0E9;" d="M157.7,38.7c0.1,0.1,0.1,0.2,0.1,0.3s0,0.2-0.1,0.3s-0.2,0.1-0.3,0.1h-2.7l-0.1,2.2
	c0.2-0.1,0.4-0.2,0.6-0.3c0.3-0.1,0.5-0.1,0.8-0.1s0.6,0.1,0.9,0.2c0.3,0.1,0.5,0.3,0.7,0.5s0.3,0.4,0.4,0.7
	c0.1,0.3,0.2,0.6,0.1,0.8v0.1c0,0.3,0,0.6-0.1,0.8c-0.1,0.3-0.2,0.5-0.4,0.7s-0.5,0.4-0.8,0.5c-0.4,0.1-0.8,0.2-1.2,0.2
	s-0.8,0-1.2-0.2c-0.3-0.1-0.6-0.2-0.9-0.4c-0.1-0.1-0.2-0.2-0.2-0.3s0-0.2,0.1-0.3c0.1-0.2,0.3-0.3,0.5-0.2h0.1
	c0.2,0.2,0.5,0.3,0.8,0.3c0.3,0.1,0.6,0.1,0.9,0.1c0.2,0,0.5,0,0.7-0.1s0.3-0.2,0.5-0.3c0.1-0.1,0.2-0.3,0.3-0.5s0.1-0.4,0.1-0.5
	v-0.1c0-0.4-0.1-0.7-0.4-1c-0.3-0.2-0.7-0.4-1.1-0.3c-0.2,0-0.5,0-0.7,0.1s-0.4,0.2-0.6,0.3c-0.1,0.1-0.1,0.1-0.2,0.2
	c-0.1,0-0.2,0-0.2,0c-0.1,0-0.2,0-0.3-0.1s-0.1-0.2-0.1-0.3l0.2-3c0-0.1,0-0.3,0.1-0.4c0-0.1,0.1-0.2,0.1-0.2
	c0.1-0.1,0.1-0.1,0.2-0.1c0.1,0,0.2,0,0.4,0h2.9C157.5,38.5,157.6,38.6,157.7,38.7z"/>
<path style="fill:#231815;" d="M63.5,3.2c0.2,0,0.3,0.1,0.5,0.2c0.1,0.1,0.2,0.3,0.2,0.5c0,0.2-0.1,0.4-0.2,0.5
	c-0.1,0.1-0.3,0.2-0.5,0.2S63.1,4.5,63,4.4c-0.3-0.3-0.3-0.7,0-1l0,0C63.2,3.3,63.4,3.2,63.5,3.2z M66.3,3.2c0.2,0,0.4,0.1,0.5,0.2
	c0.3,0.3,0.3,0.7,0,1l0,0c-0.1,0.1-0.3,0.2-0.5,0.2S66,4.5,65.8,4.4c-0.1-0.1-0.2-0.3-0.2-0.5c0-0.2,0.1-0.4,0.2-0.5
	C65.9,3.3,66.1,3.2,66.3,3.2z M69.1,3.2c0.2,0,0.3,0.1,0.5,0.2c0.1,0.1,0.2,0.3,0.2,0.5c0,0.2-0.1,0.4-0.2,0.5s-0.3,0.2-0.5,0.2
	c-0.4,0-0.7-0.3-0.7-0.6l0,0C68.4,3.5,68.7,3.2,69.1,3.2L69.1,3.2z"/>
<path style="fill:#231815;" d="M77.8,4.2h3.3c0.1,0,0.2,0,0.3,0.1c0.1,0.1,0.1,0.2,0.1,0.3c0,0.1,0,0.2-0.1,0.3
	C81.3,5,81.2,5,81.1,5h-7.6c-0.1,0-0.2,0-0.3-0.1c-0.1-0.1-0.1-0.2-0.1-0.3c0-0.1,0-0.2,0.1-0.3c0.1-0.1,0.2-0.1,0.3-0.1h3.3V2.8h1
	V4.2z M76.4,5.8c0.1,0,0.2,0,0.4,0c0.1,0,0.2,0.1,0.2,0.1C77.1,6,77.1,6,77.1,6.1s0,0.2,0,0.4v2c0,0.1,0,0.2-0.2,0.3
	c-0.1,0.1-0.2,0.1-0.3,0.1c-0.1,0-0.2,0-0.3-0.1c-0.1-0.1-0.2-0.2-0.2-0.3V6.8c0-0.1,0-0.1,0-0.2c-0.1,0-0.1,0-0.2,0h-1.6
	c-0.1,0-0.2,0-0.3-0.1c-0.1-0.1-0.1-0.2-0.1-0.3c0-0.1,0-0.2,0.1-0.3c0.1-0.1,0.2-0.1,0.3-0.1H76.4z M79.5,0c0.2,0,0.4,0,0.6,0.2
	c0.1,0.2,0.2,0.4,0.2,0.6v1.7c0,0.2,0,0.4-0.2,0.6c-0.2,0.1-0.4,0.2-0.6,0.2H75c-0.2,0-0.4-0.1-0.6-0.2c-0.1-0.2-0.2-0.4-0.2-0.6
	V0.8c0-0.2,0-0.4,0.2-0.6S74.9,0,75.1,0H79.5z M75.5,0.8c-0.1,0-0.1,0-0.2,0.1V1v1.1c0,0.1,0,0.1,0,0.2c0.1,0,0.1,0,0.2,0h3.6
	c0.1,0,0.1,0,0.2,0c0,0,0-0.1,0-0.2V1V0.9c0,0-0.1,0-0.2,0L75.5,0.8L75.5,0.8z M79.1,5.7c0.1,0,0.2,0,0.3,0.1
	c0.1,0.1,0.2,0.2,0.2,0.3v0.4c0,0.1,0,0.2,0,0.3c0,0.1,0,0.2,0.1,0.3c0,0.1,0.1,0.2,0.1,0.2L80,7.5l0.4,0.3l0.3,0.3
	c0.1,0.1,0.1,0.2,0.1,0.3s-0.1,0.2-0.1,0.3c-0.1,0.1-0.2,0.1-0.3,0.1c-0.1,0-0.2,0-0.3-0.1l-0.3-0.2l-0.3-0.2
	c-0.1-0.1-0.3-0.2-0.4-0.4C79,7.8,79,7.7,79,7.6l0,0c0.1,0.2,0,0.3,0,0.4c-0.1,0.1-0.2,0.3-0.4,0.4c-0.1,0.1-0.2,0.2-0.3,0.2L78,8.8
	C78,8.9,77.9,9,77.8,9s-0.2-0.1-0.3-0.1c-0.1-0.1-0.1-0.2-0.1-0.3s0-0.2,0.1-0.3L77.8,8l0.4-0.3l0.2-0.2c0-0.1,0.1-0.1,0.1-0.2
	s0.1-0.2,0.1-0.3c0-0.1,0-0.2,0-0.3V6.1c0-0.1,0-0.2,0.2-0.3C78.8,5.7,78.9,5.7,79.1,5.7L79.1,5.7z"/>
<path style="fill:#231815;" d="M63.5,42c0.2,0,0.3,0.1,0.5,0.2c0.3,0.3,0.3,0.7,0,1l0,0c-0.1,0.1-0.3,0.2-0.5,0.2s-0.4-0.1-0.5-0.2
	c-0.3-0.3-0.3-0.7,0-1l0,0C63.2,42.1,63.4,42,63.5,42z M66.3,42c0.2,0,0.4,0.1,0.5,0.2c0.3,0.3,0.3,0.7,0,1l0,0
	c-0.1,0.1-0.3,0.2-0.5,0.2s-0.3-0.1-0.5-0.2c-0.3-0.3-0.3-0.7,0-1l0,0C66,42.1,66.1,42,66.3,42z M69.1,42c0.2,0,0.3,0.1,0.5,0.2
	c0.3,0.3,0.3,0.7,0,1l0,0c-0.1,0.1-0.3,0.2-0.5,0.2c-0.4,0-0.7-0.3-0.7-0.7C68.4,42.4,68.7,42.1,69.1,42L69.1,42z"/>
<path style="fill:#231815;" d="M74.1,39.1c0.1,0,0.2,0,0.3,0.1c0.1,0.1,0.2,0.2,0.2,0.3v4.2c0,0.1,0.1,0.2,0.2,0.2l0,0
	c0.6,0,1.2,0,1.8,0s1.1-0.1,1.6-0.2c0.1,0,0.2,0,0.3,0.1c0.1,0.1,0.1,0.2,0.1,0.3s0,0.2,0,0.3s-0.1,0.2-0.2,0.2l-0.7,0.1l-0.9,0.1
	h-1.1c-0.4,0-0.8,0-1.3,0c-0.2,0-0.4,0-0.6-0.2c-0.1-0.2-0.2-0.4-0.2-0.6v-4.5c0-0.1,0-0.3,0.2-0.3C73.8,39.1,73.9,39.1,74.1,39.1z
	 M79.7,38.5c0.1,0,0.2,0,0.3,0.1c0.1,0.1,0.2,0.2,0.2,0.3v2.6h1.1c0.1,0,0.2,0,0.3,0.1c0.1,0.1,0.1,0.2,0.1,0.3s0,0.2-0.1,0.3
	s-0.2,0.1-0.3,0.1h-1.1v4.3c0,0.1,0,0.2-0.2,0.3C79.9,47,79.8,47,79.7,47c-0.1,0-0.2,0-0.3-0.1c-0.1-0.1-0.2-0.2-0.2-0.3v-7.8
	c0-0.1,0-0.2,0.2-0.3C79.4,38.6,79.5,38.5,79.7,38.5z"/>
<path style="fill:#231815;" d="M85.8,39.2c0.2,0,0.4,0,0.6,0.2c0.1,0.2,0.2,0.4,0.2,0.6v4.2c0,0.2,0,0.4-0.2,0.6
	C86.2,44.9,86,45,85.8,45h-2.7c-0.2,0-0.4,0-0.6-0.2c-0.1-0.2-0.2-0.4-0.2-0.6V40c0-0.2,0-0.4,0.2-0.6c0.2-0.1,0.4-0.2,0.6-0.2H85.8
	z M83.6,40c-0.1,0-0.1,0-0.2,0c0,0.1,0,0.1,0,0.2v3.5c0,0,0,0.1,0,0.2c0,0,0.1,0.1,0.2,0h1.8c0.1,0,0.2,0,0.2-0.1c0,0,0,0,0-0.1
	v-3.5c0-0.1-0.1-0.2-0.2-0.2c0,0,0,0-0.1,0C85.3,40,83.6,40,83.6,40z M88.9,38.5c0.1,0,0.2,0,0.3,0.1c0.1,0.1,0.2,0.2,0.2,0.3v7.8
	c0,0.1,0,0.2-0.2,0.3c-0.1,0.1-0.2,0.1-0.3,0.1c-0.1,0-0.2,0-0.3-0.1c-0.1-0.1-0.2-0.2-0.2-0.3v-4.3h-2.3v-0.8h2.3v-2.7
	c0-0.1,0-0.2,0.2-0.3C88.6,38.6,88.8,38.5,88.9,38.5z"/>
<path style="fill:#231815;" d="M95.9,39.3c0.1,0.2,0.1,0.4,0,0.6C95.8,40,95.7,40,95.6,40H94v1c0,0.2,0,0.4,0,0.6
	c0,0.2,0.1,0.3,0.1,0.5c0.1,0.2,0.1,0.3,0.2,0.4c0.1,0.2,0.2,0.3,0.4,0.4c0.2,0.2,0.4,0.4,0.6,0.6s0.4,0.4,0.5,0.5s0.1,0.2,0.1,0.3
	s-0.1,0.2-0.1,0.3c-0.1,0.1-0.2,0.1-0.3,0.2c-0.1,0-0.2,0-0.3-0.1l-0.5-0.5l-0.6-0.5L94,43.4c-0.1-0.1-0.2-0.2-0.2-0.3
	s-0.1-0.1-0.1-0.2c0-0.1,0-0.1,0-0.2l0,0l-0.1,0.2l-0.1,0.2c-0.1,0.1-0.1,0.2-0.2,0.3s-0.2,0.2-0.3,0.4l-0.6,0.6L91.8,45
	c-0.2,0-0.3,0-0.4,0s-0.2-0.1-0.3-0.2C91,44.7,91,44.6,91,44.5s0.1-0.2,0.2-0.3l0.6-0.6l0.6-0.6c0.1-0.1,0.3-0.3,0.4-0.4
	c0.1-0.1,0.2-0.3,0.2-0.4c0.1-0.2,0.1-0.3,0.1-0.5s0-0.4,0-0.6v-1h-1.7c-0.1,0-0.2,0-0.3-0.1c-0.1-0.2-0.1-0.4,0-0.6
	c0.1-0.1,0.2-0.1,0.3-0.1h4.3C95.8,39.2,95.9,39.2,95.9,39.3z M97.5,38.5c0.1,0,0.2,0,0.3,0.1c0.1,0.1,0.2,0.2,0.2,0.3v7.8
	c0,0.1,0,0.2-0.2,0.3c-0.1,0.1-0.2,0.1-0.3,0.1c-0.1,0-0.2,0-0.3-0.1c-0.1,0-0.2-0.1-0.2-0.3v-7.8c0-0.1,0.1-0.3,0.2-0.3
	C97.3,38.6,97.4,38.5,97.5,38.5z"/>
<path style="fill:#231815;" d="M165.8,3.2c0.2,0,0.4,0.1,0.5,0.2c0.3,0.3,0.3,0.7,0,1l0,0c-0.1,0.1-0.3,0.2-0.5,0.2
	s-0.3-0.1-0.5-0.2c-0.3-0.3-0.3-0.7,0-1l0,0C165.4,3.3,165.6,3.2,165.8,3.2z M168.5,3.2c0.4,0,0.7,0.3,0.7,0.6l0,0
	c0,0.4-0.3,0.7-0.6,0.7l0,0c-0.2,0-0.3-0.1-0.5-0.2c-0.1-0.1-0.2-0.3-0.2-0.5c0-0.2,0.1-0.4,0.2-0.5C168.2,3.3,168.4,3.2,168.5,3.2
	L168.5,3.2z M171.3,3.2c0.2,0,0.3,0.1,0.5,0.2c0.3,0.3,0.3,0.7,0,1l0,0c-0.1,0.1-0.3,0.2-0.5,0.2s-0.4-0.1-0.5-0.2
	c-0.3-0.3-0.3-0.7,0-1l0,0C171,3.3,171.1,3.2,171.3,3.2z"/>
<path style="fill:#231815;" d="M180,4.2h3.3c0.1,0,0.2,0,0.3,0.1s0.1,0.2,0.1,0.3c0,0.1,0,0.2-0.1,0.3C183.5,5,183.4,5,183.3,5h-7.6
	c-0.1,0-0.2,0-0.3-0.1s-0.1-0.2-0.1-0.3c0-0.1,0-0.2,0.1-0.3c0.1-0.1,0.2-0.1,0.3-0.1h3.3V2.8h1V4.2z M178.6,5.8c0.1,0,0.2,0,0.4,0
	c0.1,0,0.2,0.1,0.2,0.1c0.1,0.1,0.1,0.1,0.1,0.2s0,0.2,0,0.4v2c0,0.1,0,0.2-0.1,0.3s-0.2,0.1-0.3,0.1s-0.2,0-0.3-0.1
	s-0.2-0.2-0.1-0.3V6.8c0-0.1,0-0.1,0-0.2h-0.1h-1.6c-0.1,0-0.2,0-0.3-0.1s-0.1-0.2-0.1-0.3c0-0.1,0-0.2,0.1-0.3
	c0.1-0.1,0.2-0.1,0.3-0.1H178.6z M181.8,0c0.2,0,0.4,0,0.6,0.2c0.1,0.2,0.2,0.4,0.2,0.6v1.7c0,0.2,0,0.4-0.2,0.6
	c-0.2,0.1-0.4,0.2-0.6,0.2h-4.5c-0.2,0-0.4,0-0.6-0.2c-0.1-0.2-0.2-0.4-0.2-0.6V0.8c0-0.2,0-0.4,0.2-0.6c0.2-0.1,0.4-0.2,0.6-0.2
	L181.8,0z M177.8,0.8c-0.1,0-0.1,0-0.2,0.1L177.5,1v1.1c0,0.1,0,0.1,0.1,0.2c0.1,0,0.1,0,0.2,0h3.6c0.1,0,0.1,0,0.2,0
	c0,0,0.1-0.1,0.1-0.2V1c0-0.1,0-0.1-0.1-0.1c0,0-0.1-0.1-0.2-0.1L177.8,0.8z M181.3,5.7c0.1,0,0.2,0,0.3,0.1s0.2,0.2,0.1,0.3v0.4
	c0,0.1,0,0.2,0,0.3c0,0.1,0,0.2,0.1,0.3c0,0.1,0.1,0.2,0.1,0.2c0.1,0.1,0.1,0.2,0.2,0.2l0.4,0.3l0.4,0.3c0.1,0.1,0.1,0.2,0.1,0.3
	s-0.1,0.2-0.1,0.3c-0.1,0.1-0.2,0.1-0.3,0.1s-0.2,0-0.3-0.1L182,8.5l-0.3-0.2c-0.1-0.1-0.2-0.2-0.4-0.4c-0.1-0.1-0.1-0.2-0.1-0.3
	l0,0c0,0.1-0.1,0.2-0.1,0.3c-0.1,0.1-0.2,0.3-0.4,0.4c-0.1,0.1-0.2,0.2-0.3,0.2l-0.3,0.2c-0.1,0.1-0.2,0.1-0.3,0.1s-0.2-0.1-0.3-0.1
	c-0.1-0.1-0.1-0.2-0.1-0.3s0-0.2,0.1-0.3l0.4-0.3l0.4-0.3c0.1-0.1,0.1-0.1,0.2-0.2c0-0.1,0.1-0.1,0.1-0.2s0.1-0.2,0.1-0.3
	c0-0.1,0-0.2,0-0.3V6.1c0-0.1,0-0.2,0.1-0.3C181.1,5.7,181.2,5.7,181.3,5.7L181.3,5.7z"/>
<path style="fill:#231815;" d="M165.8,42c0.2,0,0.4,0.1,0.5,0.2c0.3,0.3,0.3,0.7,0,1l0,0c-0.1,0.1-0.3,0.2-0.5,0.2s-0.3-0.1-0.5-0.2
	c-0.3-0.3-0.3-0.7,0-1l0,0C165.4,42.1,165.6,42,165.8,42z M168.5,42c0.4,0,0.7,0.3,0.7,0.7s-0.3,0.7-0.7,0.7c-0.2,0-0.3-0.1-0.5-0.2
	c-0.3-0.3-0.3-0.7,0-1l0,0C168.2,42.1,168.4,42,168.5,42L168.5,42z M171.3,42c0.2,0,0.3,0.1,0.5,0.2c0.3,0.3,0.3,0.7,0,1l0,0
	c-0.1,0.1-0.3,0.2-0.5,0.2s-0.4-0.1-0.5-0.2c-0.3-0.3-0.3-0.7,0-1l0,0C171,42.1,171.1,42,171.3,42z"/>
<path style="fill:#231815;" d="M176.3,39.1c0.1,0,0.2,0,0.3,0.1s0.2,0.2,0.2,0.3v4.2c0,0.1,0,0.2,0.1,0.2c0,0,0,0,0.1,0
	c0.6,0,1.2,0,1.8,0s1.1-0.1,1.6-0.2c0.1,0,0.2,0,0.3,0.1s0.1,0.2,0.1,0.3s0,0.2,0,0.3s-0.1,0.2-0.2,0.2l-0.7,0.1l-0.9,0.1h-1.1
	c-0.4,0-0.8,0-1.3,0c-0.3,0.1-0.7-0.1-0.8-0.4c0-0.1,0-0.2,0-0.3v-4.5c0-0.1,0-0.2,0.1-0.3C176.1,39.1,176.2,39.1,176.3,39.1z
	 M181.9,38.5c0.1,0,0.2,0,0.4,0.1c0.1,0.1,0.1,0.2,0.1,0.3v2.6h1.1c0.1,0,0.2,0,0.3,0.1s0.1,0.2,0.1,0.3s0,0.2-0.1,0.3
	s-0.2,0.1-0.3,0.1h-1.1v4.3c0,0.1,0,0.2-0.1,0.3s-0.2,0.1-0.4,0.1c-0.1,0-0.2,0-0.3-0.1s-0.2-0.2-0.1-0.3v-7.8c0-0.1,0-0.2,0.1-0.3
	C181.7,38.6,181.8,38.5,181.9,38.5L181.9,38.5z"/>
<path style="fill:#231815;" d="M188.1,39.2c0.2,0,0.4,0,0.6,0.2c0.1,0.2,0.2,0.4,0.2,0.6v4.2c0,0.2,0,0.4-0.2,0.6
	c-0.2,0.1-0.4,0.2-0.6,0.2h-2.7c-0.3,0.1-0.7-0.1-0.8-0.4c0-0.1,0-0.2,0-0.3v-4.2c-0.1-0.3,0.1-0.7,0.4-0.8c0.1,0,0.2,0,0.3,0
	L188.1,39.2L188.1,39.2z M185.8,40c-0.1,0-0.1,0-0.2,0c0,0.1,0,0.1,0,0.2v3.5c0,0.1,0,0.1,0,0.2c0,0,0.1,0.1,0.2,0h1.8
	c0.1,0,0.2,0,0.2-0.1c0,0,0,0,0-0.1v-3.5c0-0.1-0.1-0.2-0.2-0.2c0,0,0,0-0.1,0C187.5,40,185.8,40,185.8,40z M191.1,38.5
	c0.1,0,0.2,0,0.4,0.1c0.1,0.1,0.2,0.2,0.1,0.3v7.8c0,0.1,0,0.2-0.1,0.3s-0.2,0.1-0.4,0.1c-0.1,0-0.2,0-0.3-0.1s-0.2-0.2-0.1-0.3
	v-4.3h-2.3v-0.8h2.3v-2.7c0-0.1,0-0.2,0.1-0.3C190.9,38.6,191,38.5,191.1,38.5L191.1,38.5z"/>
<path style="fill:#231815;" d="M198.2,39.3c0.1,0.2,0.1,0.4,0,0.6c-0.1,0.1-0.2,0.1-0.3,0.1h-1.6v1c0,0.2,0,0.4,0,0.6
	c0,0.2,0.1,0.3,0.1,0.5c0.1,0.2,0.1,0.3,0.2,0.4c0.1,0.1,0.2,0.3,0.3,0.4c0.2,0.2,0.4,0.4,0.6,0.6L198,44c0.1,0.1,0.1,0.2,0.1,0.3
	c0,0.2-0.2,0.4-0.4,0.5c-0.1,0-0.2,0-0.3-0.1l-0.5-0.5l-0.6-0.5l-0.3-0.4l-0.1-0.3c0-0.1-0.1-0.1-0.1-0.2c0-0.1,0-0.1,0-0.2l0,0
	c0,0.1,0,0.1-0.1,0.2c0,0.1-0.1,0.1-0.1,0.2c-0.1,0.1-0.1,0.2-0.2,0.3c-0.1,0.1-0.2,0.2-0.4,0.4l-0.6,0.6c-0.2,0.2-0.4,0.4-0.6,0.6
	c-0.1,0.1-0.2,0.1-0.3,0.1s-0.2-0.1-0.3-0.2c-0.1-0.1-0.1-0.2-0.1-0.3s0-0.2,0.1-0.3l0.6-0.6l0.6-0.6c0.1-0.1,0.3-0.3,0.4-0.4
	c0.1-0.1,0.2-0.3,0.2-0.4c0.1-0.2,0.1-0.3,0.1-0.5s0-0.4,0-0.6v-1h-1.7c-0.1,0-0.2,0-0.3-0.1c-0.1-0.2-0.1-0.4,0-0.6
	c0.1-0.1,0.2-0.1,0.3-0.1h4.3C198,39.2,198.1,39.3,198.2,39.3z M199.8,38.5c0.1,0,0.2,0,0.4,0.1c0.1,0.1,0.2,0.2,0.1,0.3v7.8
	c0,0.1,0,0.2-0.1,0.3s-0.2,0.1-0.4,0.1c-0.1,0-0.2,0-0.3-0.1s-0.2-0.2-0.1-0.3v-7.8c0-0.1,0-0.2,0.1-0.3
	C199.5,38.6,199.7,38.5,199.8,38.5z"/>
<path style="fill:none;stroke:#231815;stroke-width:0.4;stroke-miterlimit:10;" d="M16.6,10.8c0.8,1.1,1.4,3.7,1.4,5.7
	c0,2.3-0.7,4.5-1.4,5.7"/>
<path style="fill:none;stroke:#231815;stroke-width:0.4;stroke-miterlimit:10;" d="M119.1,10.3c0.8,1.1,1.4,3.7,1.4,5.7
	c0,2.3-0.7,4.5-1.4,5.7"/>
</svg>
