<svg xmlns="http://www.w3.org/2000/svg" viewBox="0 0 364.49 47.02"><defs><style>.cls-1{fill:#ddeaaf;}.cls-2{fill:#fedd6b;}.cls-3,.cls-5{font-size:12.74px;fill:#231815;font-family:NanumSquareRoundB, NanumSquareRound;font-weight:700;}.cls-3,.cls-6{letter-spacing:0.63em;}.cls-4{letter-spacing:0em;}</style></defs><title>자산 3</title><g id="레이어_2" data-name="레이어 2"><g id="레이어_1-2" data-name="레이어 1"><path class="cls-1" d="M.17,31.6C3.13,40.43,21.4,47,44.19,47s41.05-6.59,44-15.42c-5.38,7.85-22.79,13.46-44,13.46S5.54,39.45.17,31.6m88.2-4.48c-1.46-5.8-9.46-10.83-22.06-13.7a24.95,24.95,0,0,0-44.25,0C9.45,16.29,1.46,21.3,0,27.12c.91,9.34,20,16.56,44.19,16.56s43.27-7.22,44.18-16.56"/><path class="cls-2" d="M67.12,6.05l1.16-.58a1.24,1.24,0,0,0,.5-.46L69.42,4a.51.51,0,0,1,.43-.23.5.5,0,0,1,.43.23L70.92,5a1.24,1.24,0,0,0,.5.46l1.16.58a.43.43,0,0,1,.26.39.45.45,0,0,1-.26.39l-1.16.58a1.12,1.12,0,0,0-.5.46l-.64,1a.5.5,0,0,1-.43.23.51.51,0,0,1-.43-.23l-.64-1a1.12,1.12,0,0,0-.5-.46l-1.16-.58a.45.45,0,0,1-.26-.39.43.43,0,0,1,.26-.39"/><path class="cls-2" d="M75.79,10.9l.88-.44a.89.89,0,0,0,.39-.35c.09-.14.41-.69.48-.8a.41.41,0,0,1,.66,0c.07.11.39.66.48.8a.89.89,0,0,0,.39.35l.88.44a.34.34,0,0,1,.19.3.33.33,0,0,1-.19.3l-.88.44a.89.89,0,0,0-.39.35l-.48.8a.39.39,0,0,1-.66,0l-.48-.8a.89.89,0,0,0-.39-.35l-.88-.44a.33.33,0,0,1-.19-.3.34.34,0,0,1,.19-.3"/><text class="cls-3" transform="translate(88.12 27.41) scale(1 1.02)"><tspan xml:space="preserve">   </tspan><tspan class="cls-4" x="33.63" y="0"> </tspan></text><path class="cls-1" d="M138.23,31.6c3,8.83,21.23,15.42,44,15.42s41.05-6.59,44-15.42c-5.38,7.85-22.79,13.46-44,13.46s-38.65-5.61-44-13.46m88.2-4.48c-1.46-5.8-9.46-10.83-22.06-13.7a24.95,24.95,0,0,0-44.25,0c-12.61,2.87-20.6,7.88-22.06,13.7.9,9.34,20,16.56,44.19,16.56s43.27-7.22,44.18-16.56"/><path class="cls-2" d="M205.18,6.05l1.16-.58a1.24,1.24,0,0,0,.5-.46L207.48,4a.5.5,0,0,1,.43-.23.51.51,0,0,1,.43.23L209,5a1.24,1.24,0,0,0,.5.46l1.16.58a.43.43,0,0,1,.26.39.45.45,0,0,1-.26.39l-1.16.58a1.12,1.12,0,0,0-.5.46l-.64,1a.51.51,0,0,1-.43.23.5.5,0,0,1-.43-.23l-.64-1a1.12,1.12,0,0,0-.5-.46l-1.16-.58a.45.45,0,0,1-.26-.39.43.43,0,0,1,.26-.39"/><path class="cls-2" d="M213.85,10.9l.88-.44a.89.89,0,0,0,.39-.35c.09-.14.41-.69.48-.8a.41.41,0,0,1,.66,0c.07.11.39.66.48.8a.89.89,0,0,0,.39.35l.88.44a.34.34,0,0,1,.19.3.33.33,0,0,1-.19.3l-.88.44a.89.89,0,0,0-.39.35l-.48.8a.39.39,0,0,1-.66,0l-.48-.8a.89.89,0,0,0-.39-.35l-.88-.44a.33.33,0,0,1-.19-.3.34.34,0,0,1,.19-.3"/><text class="cls-5" transform="translate(226.18 27.41) scale(1 1.02)"><tspan class="cls-6" xml:space="preserve">   </tspan><tspan x="33.63" y="0"> </tspan></text><path class="cls-1" d="M276.28,31.6c3,8.83,21.23,15.42,44,15.42s41.06-6.59,44-15.42c-5.37,7.85-22.78,13.46-44,13.46s-38.64-5.61-44-13.46m88.21-4.48c-1.46-5.8-9.46-10.83-22.06-13.7a24.95,24.95,0,0,0-44.25,0c-12.61,2.87-20.6,7.88-22.06,13.7.9,9.34,20,16.56,44.18,16.56s43.28-7.22,44.19-16.56"/><path class="cls-2" d="M343.24,6.05l1.16-.58a1.31,1.31,0,0,0,.5-.46c.12-.2.55-.91.63-1.06a.53.53,0,0,1,.44-.23.51.51,0,0,1,.43.23L347,5a1.24,1.24,0,0,0,.5.46l1.16.58a.42.42,0,0,1,.25.39.44.44,0,0,1-.25.39l-1.16.58a1.12,1.12,0,0,0-.5.46l-.64,1a.51.51,0,0,1-.43.23.53.53,0,0,1-.44-.23c-.08-.14-.51-.86-.63-1a1.17,1.17,0,0,0-.5-.46l-1.16-.58a.45.45,0,0,1-.26-.39.43.43,0,0,1,.26-.39"/><path class="cls-2" d="M351.91,10.9l.88-.44a.94.94,0,0,0,.39-.35l.48-.8a.4.4,0,0,1,.33-.17.42.42,0,0,1,.33.17c.06.11.39.66.48.8a.92.92,0,0,0,.38.35l.88.44a.33.33,0,0,1,.2.3.32.32,0,0,1-.2.3l-.88.44a.92.92,0,0,0-.38.35l-.48.8a.4.4,0,0,1-.33.18.39.39,0,0,1-.33-.18c-.07-.11-.4-.65-.48-.8a.94.94,0,0,0-.39-.35l-.88-.44a.33.33,0,0,1-.19-.3.34.34,0,0,1,.19-.3"/></g></g></svg>