<?xml version="1.0" encoding="utf-8"?>
<!-- Generator: Adobe Illustrator 24.2.3, SVG Export Plug-In . SVG Version: 6.00 Build 0)  -->
<svg version="1.1" id="Layer_1" xmlns="http://www.w3.org/2000/svg" xmlns:xlink="http://www.w3.org/1999/xlink" x="0px" y="0px"
	 width="270px" height="270px" viewBox="0 0 270 270" enable-background="new 0 0 270 270" xml:space="preserve">
<g id="Layer_2_1_">
	<g id="Layer_2-2">
		
			<line fill="none" stroke="#00A0E9" stroke-width="2" stroke-linecap="round" stroke-linejoin="round" stroke-dasharray="3,4" x1="266.5" y1="3.5" x2="266.5" y2="266.5"/>
		<path fill="none" stroke="#7ECEF4" stroke-width="2" stroke-linecap="round" stroke-linejoin="round" stroke-dasharray="3,4" d="
			M47.3,3.5v263 M91.2,3.5v263 M135,3.5v263 M178.8,3.5v263 M222.7,3.5v263"/>
		<path fill="none" stroke="#00A0E9" stroke-width="2" stroke-linecap="round" stroke-linejoin="round" stroke-dasharray="3,4" d="
			M266.5,266.5H3.5 M3.5,266.5V3.5"/>
		<path fill="none" stroke="#7ECEF4" stroke-width="2" stroke-linecap="round" stroke-linejoin="round" stroke-dasharray="3,4" d="
			M266.5,47.3H3.5 M266.5,91.2H3.5 M266.5,135H3.5 M266.5,178.8H3.5 M266.5,222.7H3.5"/>
		
			<line fill="none" stroke="#00A0E9" stroke-width="2" stroke-linecap="round" stroke-linejoin="round" stroke-dasharray="3,4" x1="3.5" y1="3.5" x2="266.5" y2="3.5"/>
		<polygon fill="none" stroke="#000000" stroke-width="2" stroke-linecap="round" stroke-linejoin="round" points="222.8,222.4 
			222.8,46.9 48.1,46.9 48.1,135.2 134.9,135.2 		"/>
		<g enable-background="new    ">
			<path d="M158.7,108.7c0,0.3,0.1,0.5,0.4,0.5c1-0.1,2-0.2,3.1-0.2c1.1-0.1,2.2-0.2,3.3-0.2c1.1-0.1,2.2-0.2,3.3-0.2
				c1.1-0.1,2.1-0.2,3-0.2c0.5-0.1,0.9,0,1.1,0.2c0.2,0.2,0.3,0.6,0.4,1.2c0.1,0.6-0.1,1-0.3,1.3c-0.3,0.3-0.6,0.4-1,0.5
				c-2.5,0.3-5,0.5-7.3,0.7c-2.3,0.2-4.7,0.3-7.1,0.4c-0.7,0-1.3-0.2-1.8-0.6c-0.5-0.4-0.8-1.1-0.8-1.9c0-0.5-0.1-1.3-0.1-2.3
				c0-1,0-2.2-0.1-3.4s0-2.6,0-4s0-2.7,0-4c0-1.3,0-2.4,0-3.4c0-1,0-1.8,0-2.3c0-0.5,0.1-0.9,0.3-1.1c0.2-0.2,0.5-0.3,1-0.4
				c2.4-0.1,4.9-0.2,7.5-0.3c2.6-0.1,5.2-0.2,7.7-0.2c0.8,0,1.2,0.5,1.2,1.6c0,0.6-0.1,1-0.2,1.3c-0.2,0.3-0.5,0.4-1,0.5
				c-1,0.1-2,0.1-3.1,0.2c-1.1,0.1-2.1,0.1-3.2,0.2c-1.1,0.1-2.1,0.1-3.2,0.2c-1,0.1-2,0.1-3,0.1c0,0.3,0,0.9,0,1.7c0,0.8,0,1.8,0,3
				s0,2.3,0,3.6c0,1.3,0,2.4,0,3.5s0,2,0,2.8S158.7,108.5,158.7,108.7z M181.5,102.7c-0.4,0-0.8,0-1.2,0c-0.1,2.2-0.2,4.4-0.3,6.5
				c-0.1,2.1-0.2,4.2-0.4,6.1c-0.1,0.7-0.3,1.2-0.6,1.5c-0.4,0.3-0.8,0.4-1.3,0.3c-0.6-0.1-1-0.3-1.2-0.6c-0.3-0.4-0.4-0.9-0.4-1.7
				c0-8.4,0.2-16.8,0.5-25.1c0-0.7,0.2-1.2,0.5-1.5s0.9-0.4,1.6-0.4c1.3,0,2,0.7,2,2c0,1.5-0.1,3.1-0.1,4.6s-0.1,3.2-0.1,4.8
				c0.4,0,0.8,0,1.1,0c0.4,0,0.7,0,1.1,0c0.3,0,0.6,0,0.9,0c0.3,0,0.5,0,0.6,0c0.5,0,0.9,0.1,1.1,0.3c0.2,0.2,0.3,0.6,0.3,1.2
				c0,0.6-0.1,1-0.2,1.3s-0.5,0.5-1,0.5c-0.2,0-0.4,0-0.7,0.1s-0.6,0-1,0C182.3,102.7,181.9,102.7,181.5,102.7z"/>
		</g>
	</g>
</g>
</svg>
