
<svg xmlns="http://www.w3.org/2000/svg" version="1.1" xmlns:xlink="http://www.w3.org/1999/xlink" preserveAspectRatio="none" x="0px" y="0px" width="1280px" height="720px" viewBox="0 0 1280 720">
<defs>
<g id="Layer0_0_FILL">
<path fill="#7A94C2" stroke="none" d="
M 947.75 489.85
L 902.7 489.85
Q 892.7 489.85 892.7 499.85
L 892.7 518.9
Q 892.7 528.9 902.7 528.9
L 947.75 528.9
Q 957.75 528.9 957.75 518.9
L 957.75 499.85
Q 957.75 489.85 947.75 489.85
M 931.8 499.3
Q 932.2 499.5 932.2 500.1
L 932.2 502.75 934.1 502.75
Q 934.4 502.75 934.6 502.85 934.8 502.95 934.9 503.1 935 503.5 935 504 935 504.25 935 504.45 934.95 504.65 934.9 504.85 934.75 505.25 934.1 505.25
L 932.2 505.25 932.2 507.7
Q 932.2 508 932.1 508.2 932 508.4 931.8 508.5 931.6 508.6 931.35 508.65 931.1 508.7 930.85 508.7 930.7 508.7 930.55 508.7 930.45 508.65 930.3 508.65 930.2 508.65 930.05 508.6 929.95 508.55 929.85 508.5 929.75 508.45 929.65 508.35 929.6 508.25 929.55 508.15 929.45 508.05 929.45 507.95 929.4 507.85 929.4 507.7
L 929.4 500.1
Q 929.4 499.95 929.45 499.85 929.45 499.7 929.55 499.6 929.6 499.5 929.65 499.45 929.75 499.35 929.85 499.3 929.95 499.25 930.05 499.2 930.2 499.2 930.3 499.15 930.45 499.15 930.55 499.1 930.7 499.1 930.85 499.1 931.1 499.1 931.35 499.15 931.6 499.2 931.8 499.3
M 931.95 516.7
Q 931.95 517.1 931.85 517.45 931.7 517.75 931.45 518 931.15 518.25 930.8 518.35 930.5 518.5 930.15 518.5
L 922.15 518.5
Q 921.7 518.5 921.4 518.35 921.1 518.25 920.95 518 920.7 517.75 920.65 517.45 920.55 517.1 920.55 516.7
L 920.55 511.15
Q 920.55 511.05 920.55 510.9 920.6 510.8 920.65 510.7 920.7 510.6 920.8 510.55 920.85 510.45 920.95 510.4 921.05 510.35 921.15 510.3 921.25 510.25 921.4 510.2 921.55 510.15 921.65 510.15 921.8 510.1 921.85 510.1 921.95 510.1 922.1 510.15 922.2 510.15 922.4 510.2 922.5 510.25 922.6 510.3 922.7 510.35 922.8 510.4 922.9 510.45 923 510.55 923.1 510.6 923.2 510.7 923.3 510.8 923.3 510.9 923.35 511.05 923.35 511.15
L 923.35 512.2 929.1 512.2 929.1 511.15
Q 929.1 510.9 929.2 510.7 929.3 510.55 929.5 510.4 929.75 510.25 930 510.2 930.2 510.1 930.5 510.1 930.55 510.1 930.7 510.15 930.8 510.15 930.95 510.2 931.2 510.3 931.45 510.4 931.55 510.45 931.6 510.55 931.7 510.6 931.8 510.7 931.9 510.8 931.95 510.9 931.95 511.05 931.95 511.15
L 931.95 516.7
M 926.9 500.2
Q 927 500.3 927.05 500.55 927.1 500.85 927.1 501.25 927.1 501.55 927.05 501.8 927 502.05 926.9 502.2 926.8 502.35 926.6 502.4 926.4 502.45 926.1 502.45
L 920.95 502.45 920.95 505.35
Q 920.95 505.67265625 920.95 505.8 921.7 505.8 922.45 505.75 923.25 505.75 924.05 505.65 924.85 505.6 925.6 505.5 926.35 505.45 927.1 505.3 927.2 505.3 927.3 505.3 927.45 505.3 927.55 505.3 927.7 505.3 927.75 505.3 927.85 505.35 927.95 505.35 927.95 505.4 928.05 505.5 928.05 505.55 928.15 505.65 928.2 505.75 928.2 505.9 928.25 506.05 928.3 506.25 928.4 506.6 928.4 506.85 928.4 507.1 928.3 507.3 928.05 507.65 927.4 507.7 926.6 507.85 925.8 507.95 925 508.05 924.2 508.1 923.4 508.2 922.6 508.25 921.8 508.3 920.95 508.35 920.55 508.35 920.2 508.3 919.9 508.3 919.65 508.3 919.4 508.25 919.15 508.2 918.95 508.15 918.8 508 918.55 507.9 918.45 507.75 918.3 507.6 918.25 507.35 918.1 506.9 918.1 506.1
L 918.1 502.3
Q 918.1 501.9 918.15 501.6 918.2 501.3 918.25 501.05 918.3 500.8 918.45 500.65 918.55 500.45 918.8 500.3 918.95 500.2 919.15 500.15 919.4 500.05 919.65 500.05 919.9 500 920.2 500 920.55 500 920.95 500
L 926.1 500
Q 926.4 500 926.6 500.05 926.8 500.1 926.9 500.2
M 923.4 514.75
Q 923.35 514.8 923.35 514.95
L 923.35 515.85
Q 923.35 516 923.4 516.05 923.4 516.15 923.45 516.15 923.5 516.2 923.6 516.2 923.7 516.2 923.8 516.2
L 928.65 516.2
Q 928.75 516.2 928.8 516.2 928.9 516.2 928.95 516.15 929 516.15 929.05 516.05 929.1 516 929.1 515.85
L 929.1 514.95
Q 929.1 514.8 929.05 514.75 929 514.65 928.95 514.6 928.9 514.6 928.8 514.55 928.75 514.5 928.65 514.5
L 923.8 514.5
Q 923.7 514.5 923.6 514.55 923.5 514.6 923.45 514.6 923.4 514.65 923.4 514.75
M 723.35 387.85
L 678.3 387.85
Q 668.3 387.85 668.3 397.85
L 668.3 416.9
Q 668.3 426.9 678.3 426.9
L 723.35 426.9
Q 733.35 426.9 733.35 416.9
L 733.35 397.85
Q 733.35 387.85 723.35 387.85
M 707.9 397.4
Q 708 397.45 708.1 397.5 708.25 397.55 708.35 397.6 708.45 397.7 708.5 397.8 708.55 397.85 708.6 398 708.65 398.15 708.65 398.3
L 708.65 406.55
Q 708.6 406.85 708.5 407.05 708.4 407.25 708.15 407.35 707.95 407.45 707.65 407.5 707.4 407.55 707.1 407.55 706.8 407.55 706.6 407.5 706.35 407.45 706.15 407.35 706 407.25 705.9 407.05 705.8 406.85 705.8 406.55
L 705.8 398.3
Q 705.8 397.7 706.15 397.5 706.35 397.4 706.6 397.35 706.8 397.3 707.1 397.3 707.2 397.3 707.35 397.35 707.5 397.35 707.65 397.35 707.8 397.35 707.9 397.4
M 698.8 398.05
Q 699 398.15 699.1 398.3 699.2 398.5 699.2 398.8
L 699.25 399.65
Q 699.25 400.05 699.35 400.4 699.45 400.75 699.65 401.1 699.8 401.45 700 401.8 700.15 402.15 700.35 402.45 700.6 402.75 700.9 403.05 701.15 403.35 701.45 403.6 701.7 403.9 702 404.1 702.3 404.35 702.6 404.55 702.8 404.7 702.9 404.85 703 405 703 405.15 703 405.35 702.95 405.55 702.9 405.75 702.8 405.95 702.7 406.2 702.55 406.35 702.4 406.55 702.2 406.7 702 406.8 701.8 406.85 701.6 406.85 701.4 406.75 700.8 406.5 700.3 406.15 699.75 405.8 699.35 405.35 698.95 404.9 698.6 404.5 698.25 404 697.9 403.55 697.75 403.8 697.55 404 697.35 404.25 697.2 404.5 697 404.75 696.8 404.95 696.65 405.2 696.5 405.4 696.25 405.65 696.05 405.85 695.8 406.05 695.6 406.25 695.4 406.45 695.15 406.6 694.95 406.8 694.75 406.9 694.5 407.05 694.2 407.05 694 407.05 693.75 406.95 693.5 406.85 693.3 406.7 693.15 406.5 693.05 406.2 693 406.1 692.95 406 692.9 405.95 692.9 405.85 692.85 405.75 692.8 405.7 692.8 405.6 692.8 405.5 692.8 405.4 692.8 405.35 692.85 405.25 692.9 405.15 692.95 405.05 693.05 405 693.1 404.9 693.2 404.85 693.55 404.65 693.9 404.35 694.2 404.15 694.5 403.8 694.8 403.5 695.05 403.2 695.35 402.85 695.6 402.5 695.75 402.15 695.9 401.8 696.05 401.45 696.15 401.05 696.3 400.7 696.35 400.35 696.45 399.95 696.45 399.65
L 696.45 398.8
Q 696.45 398.65 696.45 398.55 696.5 398.45 696.55 398.3 696.6 398.25 696.7 398.15 696.75 398.1 696.9 398 697 397.95 697.15 397.95 697.25 397.9 697.35 397.85 697.45 397.85 697.6 397.85 697.7 397.85 697.85 397.85 698.1 397.85 698.35 397.9 698.6 397.95 698.8 398.05
M 697.95 408.85
Q 698.1 408.75 698.35 408.75
L 706.8 408.75
Q 707.6 408.75 708.1 409.3 708.35 409.6 708.45 409.95 708.6 410.3 708.6 410.7
L 708.6 416.05
Q 708.6 416.15 708.55 416.25 708.5 416.4 708.4 416.45 708.3 416.55 708.2 416.65 708.1 416.7 708 416.8 707.9 416.85 707.8 416.9 707.7 416.95 707.55 417 707.4 417.05 707.3 417.05 707.15 417.1 707.05 417.1 706.8 417.1 706.6 417 706.35 416.95 706.15 416.8 705.8 416.5 705.8 416.05
L 705.8 411.2 698.35 411.2
Q 698.1 411.2 697.95 411.15 697.75 411.05 697.65 410.85 697.4 410.45 697.4 410 697.4 409.75 697.45 409.5 697.5 409.3 697.65 409.1 697.75 408.95 697.95 408.85 Z"/>

<path fill="#FFFFFF" stroke="none" d="
M 927.05 500.55
Q 927 500.3 926.9 500.2 926.8 500.1 926.6 500.05 926.4 500 926.1 500
L 920.95 500
Q 920.55 500 920.2 500 919.9 500 919.65 500.05 919.4 500.05 919.15 500.15 918.95 500.2 918.8 500.3 918.55 500.45 918.45 500.65 918.3 500.8 918.25 501.05 918.2 501.3 918.15 501.6 918.1 501.9 918.1 502.3
L 918.1 506.1
Q 918.1 506.9 918.25 507.35 918.3 507.6 918.45 507.75 918.55 507.9 918.8 508 918.95 508.15 919.15 508.2 919.4 508.25 919.65 508.3 919.9 508.3 920.2 508.3 920.55 508.35 920.95 508.35 921.8 508.3 922.6 508.25 923.4 508.2 924.2 508.1 925 508.05 925.8 507.95 926.6 507.85 927.4 507.7 928.05 507.65 928.3 507.3 928.4 507.1 928.4 506.85 928.4 506.6 928.3 506.25 928.25 506.05 928.2 505.9 928.2 505.75 928.15 505.65 928.05 505.55 928.05 505.5 927.95 505.4 927.95 505.35 927.85 505.35 927.75 505.3 927.7 505.3 927.55 505.3 927.45 505.3 927.3 505.3 927.2 505.3 927.1 505.3 926.35 505.45 925.6 505.5 924.85 505.6 924.05 505.65 923.25 505.75 922.45 505.75 921.7 505.8 920.95 505.8 920.95 505.67265625 920.95 505.35
L 920.95 502.45 926.1 502.45
Q 926.4 502.45 926.6 502.4 926.8 502.35 926.9 502.2 927 502.05 927.05 501.8 927.1 501.55 927.1 501.25 927.1 500.85 927.05 500.55
M 931.85 517.45
Q 931.95 517.1 931.95 516.7
L 931.95 511.15
Q 931.95 511.05 931.95 510.9 931.9 510.8 931.8 510.7 931.7 510.6 931.6 510.55 931.55 510.45 931.45 510.4 931.2 510.3 930.95 510.2 930.8 510.15 930.7 510.15 930.55 510.1 930.5 510.1 930.2 510.1 930 510.2 929.75 510.25 929.5 510.4 929.3 510.55 929.2 510.7 929.1 510.9 929.1 511.15
L 929.1 512.2 923.35 512.2 923.35 511.15
Q 923.35 511.05 923.3 510.9 923.3 510.8 923.2 510.7 923.1 510.6 923 510.55 922.9 510.45 922.8 510.4 922.7 510.35 922.6 510.3 922.5 510.25 922.4 510.2 922.2 510.15 922.1 510.15 921.95 510.1 921.85 510.1 921.8 510.1 921.65 510.15 921.55 510.15 921.4 510.2 921.25 510.25 921.15 510.3 921.05 510.35 920.95 510.4 920.85 510.45 920.8 510.55 920.7 510.6 920.65 510.7 920.6 510.8 920.55 510.9 920.55 511.05 920.55 511.15
L 920.55 516.7
Q 920.55 517.1 920.65 517.45 920.7 517.75 920.95 518 921.1 518.25 921.4 518.35 921.7 518.5 922.15 518.5
L 930.15 518.5
Q 930.5 518.5 930.8 518.35 931.15 518.25 931.45 518 931.7 517.75 931.85 517.45
M 923.35 514.95
Q 923.35 514.8 923.4 514.75 923.4 514.65 923.45 514.6 923.5 514.6 923.6 514.55 923.7 514.5 923.8 514.5
L 928.65 514.5
Q 928.75 514.5 928.8 514.55 928.9 514.6 928.95 514.6 929 514.65 929.05 514.75 929.1 514.8 929.1 514.95
L 929.1 515.85
Q 929.1 516 929.05 516.05 929 516.15 928.95 516.15 928.9 516.2 928.8 516.2 928.75 516.2 928.65 516.2
L 923.8 516.2
Q 923.7 516.2 923.6 516.2 923.5 516.2 923.45 516.15 923.4 516.15 923.4 516.05 923.35 516 923.35 515.85
L 923.35 514.95
M 932.2 500.1
Q 932.2 499.5 931.8 499.3 931.6 499.2 931.35 499.15 931.1 499.1 930.85 499.1 930.7 499.1 930.55 499.1 930.45 499.15 930.3 499.15 930.2 499.2 930.05 499.2 929.95 499.25 929.85 499.3 929.75 499.35 929.65 499.45 929.6 499.5 929.55 499.6 929.45 499.7 929.45 499.85 929.4 499.95 929.4 500.1
L 929.4 507.7
Q 929.4 507.85 929.45 507.95 929.45 508.05 929.55 508.15 929.6 508.25 929.65 508.35 929.75 508.45 929.85 508.5 929.95 508.55 930.05 508.6 930.2 508.65 930.3 508.65 930.45 508.65 930.55 508.7 930.7 508.7 930.85 508.7 931.1 508.7 931.35 508.65 931.6 508.6 931.8 508.5 932 508.4 932.1 508.2 932.2 508 932.2 507.7
L 932.2 505.25 934.1 505.25
Q 934.75 505.25 934.9 504.85 934.95 504.65 935 504.45 935 504.25 935 504 935 503.5 934.9 503.1 934.8 502.95 934.6 502.85 934.4 502.75 934.1 502.75
L 932.2 502.75 932.2 500.1
M 698.35 408.75
Q 698.1 408.75 697.95 408.85 697.75 408.95 697.65 409.1 697.5 409.3 697.45 409.5 697.4 409.75 697.4 410 697.4 410.45 697.65 410.85 697.75 411.05 697.95 411.15 698.1 411.2 698.35 411.2
L 705.8 411.2 705.8 416.05
Q 705.8 416.5 706.15 416.8 706.35 416.95 706.6 417 706.8 417.1 707.05 417.1 707.15 417.1 707.3 417.05 707.4 417.05 707.55 417 707.7 416.95 707.8 416.9 707.9 416.85 708 416.8 708.1 416.7 708.2 416.65 708.3 416.55 708.4 416.45 708.5 416.4 708.55 416.25 708.6 416.15 708.6 416.05
L 708.6 410.7
Q 708.6 410.3 708.45 409.95 708.35 409.6 708.1 409.3 707.6 408.75 706.8 408.75
L 698.35 408.75
M 699.1 398.3
Q 699 398.15 698.8 398.05 698.6 397.95 698.35 397.9 698.1 397.85 697.85 397.85 697.7 397.85 697.6 397.85 697.45 397.85 697.35 397.85 697.25 397.9 697.15 397.95 697 397.95 696.9 398 696.75 398.1 696.7 398.15 696.6 398.25 696.55 398.3 696.5 398.45 696.45 398.55 696.45 398.65 696.45 398.8
L 696.45 399.65
Q 696.45 399.95 696.35 400.35 696.3 400.7 696.15 401.05 696.05 401.45 695.9 401.8 695.75 402.15 695.6 402.5 695.35 402.85 695.05 403.2 694.8 403.5 694.5 403.8 694.2 404.15 693.9 404.35 693.55 404.65 693.2 404.85 693.1 404.9 693.05 405 692.95 405.05 692.9 405.15 692.85 405.25 692.8 405.35 692.8 405.4 692.8 405.5 692.8 405.6 692.8 405.7 692.85 405.75 692.9 405.85 692.9 405.95 692.95 406 693 406.1 693.05 406.2 693.15 406.5 693.3 406.7 693.5 406.85 693.75 406.95 694 407.05 694.2 407.05 694.5 407.05 694.75 406.9 694.95 406.8 695.15 406.6 695.4 406.45 695.6 406.25 695.8 406.05 696.05 405.85 696.25 405.65 696.5 405.4 696.65 405.2 696.8 404.95 697 404.75 697.2 404.5 697.35 404.25 697.55 404 697.75 403.8 697.9 403.55 698.25 404 698.6 404.5 698.95 404.9 699.35 405.35 699.75 405.8 700.3 406.15 700.8 406.5 701.4 406.75 701.6 406.85 701.8 406.85 702 406.8 702.2 406.7 702.4 406.55 702.55 406.35 702.7 406.2 702.8 405.95 702.9 405.75 702.95 405.55 703 405.35 703 405.15 703 405 702.9 404.85 702.8 404.7 702.6 404.55 702.3 404.35 702 404.1 701.7 403.9 701.45 403.6 701.15 403.35 700.9 403.05 700.6 402.75 700.35 402.45 700.15 402.15 700 401.8 699.8 401.45 699.65 401.1 699.45 400.75 699.35 400.4 699.25 400.05 699.25 399.65
L 699.2 398.8
Q 699.2 398.5 699.1 398.3
M 708.1 397.5
Q 708 397.45 707.9 397.4 707.8 397.35 707.65 397.35 707.5 397.35 707.35 397.35 707.2 397.3 707.1 397.3 706.8 397.3 706.6 397.35 706.35 397.4 706.15 397.5 705.8 397.7 705.8 398.3
L 705.8 406.55
Q 705.8 406.85 705.9 407.05 706 407.25 706.15 407.35 706.35 407.45 706.6 407.5 706.8 407.55 707.1 407.55 707.4 407.55 707.65 407.5 707.95 407.45 708.15 407.35 708.4 407.25 708.5 407.05 708.6 406.85 708.65 406.55
L 708.65 398.3
Q 708.65 398.15 708.6 398 708.55 397.85 708.5 397.8 708.45 397.7 708.35 397.6 708.25 397.55 708.1 397.5 Z"/>

<path fill="#1E1E1E" stroke="none" d="
M 1180.95 518.05
Q 1180.8 518.25 1180.8 518.4
L 1180.8 527.15
Q 1180.8 528.75 1181.4 529.4 1182.05 530 1183.85 530
L 1204.65 530
Q 1204.85 530 1205.05 529.9 1205.2 529.8 1205.2 529.55
L 1205.2 526.7
Q 1205.2 526.5 1205.05 526.35 1204.85 526.2 1204.65 526.2
L 1186.15 526.2
Q 1185.75 526.2 1185.55 526.05 1185.4 525.95 1185.4 525.55
L 1185.4 518.4
Q 1185.4 518.25 1185.25 518.05 1185.05 517.85 1184.75 517.85
L 1181.35 517.85
Q 1181.15 517.85 1180.95 518.05
M 1179.65 494.85
Q 1179.65 494.6 1179.45 494.5 1179.3 494.35 1179.1 494.35
L 1175.6 494.35
Q 1175.4 494.35 1175.25 494.5 1175.1 494.6 1175.1 494.85
L 1175.1 510.9
Q 1175.1 512.5 1175.75 513.1 1176.35 513.7 1178.15 513.7
L 1189.7 513.7
Q 1191.4 513.7 1192.05 513.05 1192.7 512.4 1192.7 511
L 1192.7 506 1199.45 506 1199.45 519.15
Q 1199.45 519.65 1200 519.65
L 1203.55 519.65
Q 1204.05 519.65 1204.05 519.15
L 1204.05 493.2
Q 1204.05 492.65 1203.55 492.65
L 1200 492.65
Q 1199.45 492.65 1199.45 493.2
L 1199.45 502.15 1192.7 502.15 1192.7 494.8
Q 1192.7 494.55 1192.55 494.4 1192.4 494.25 1192.15 494.25
L 1188.65 494.25
Q 1188.45 494.25 1188.3 494.4 1188.15 494.55 1188.15 494.8
L 1188.15 500.95 1179.65 500.95 1179.65 494.85
M 1180.35 509.95
Q 1179.65 509.95 1179.65 509.25
L 1179.65 504.65 1188.15 504.65 1188.15 509.25
Q 1188.15 509.95 1187.4 509.95
L 1180.35 509.95 Z"/>
</g>

<path id="Layer0_0_1_STROKES" stroke="#CCCCCC" stroke-width="3" stroke-linejoin="round" stroke-linecap="round" fill="none" d="
M 968.15 533.95
L 1161.65 533.95
M 742.15 431.95
L 1157.65 431.95"/>
</defs>

<g transform="matrix( 1, 0, 0, 1, 0,0) ">
<use xlink:href="#Layer0_0_FILL"/>

<use xlink:href="#Layer0_0_1_STROKES"/>
</g>
</svg>
