<?xml version="1.0" encoding="utf-8"?>
<!-- Generator: Adobe Illustrator 23.0.0, SVG Export Plug-In . SVG Version: 6.00 Build 0)  -->
<svg version="1.1" id="레이어_1" xmlns="http://www.w3.org/2000/svg" xmlns:xlink="http://www.w3.org/1999/xlink" x="0px"
	 y="0px" width="1773px" height="609px" viewBox="0 0 1773 609" style="enable-background:new 0 0 1773 609;" xml:space="preserve">
<g>
	<g>
		<path style="fill:#231815;" d="M208.2,96.1c0.5,0.3,0.7,0.9,0.8,1.8c0.1,2.1,0.2,4.3,0.3,6.5c0.1,2.2,0.2,4.3,0.3,6.5
			c0.1,2.1,0.2,4.2,0.2,6.2c0.1,2,0.1,3.8,0.2,5.5c0,0.4,0.2,0.6,0.5,0.6c2.7-0.1,5.4-0.3,8.2-0.5c2.8-0.2,5.5-0.4,8.2-0.5
			c0.6,0,1.1,0.1,1.5,0.4c0.4,0.3,0.6,0.9,0.6,1.9c0,0.7-0.1,1.3-0.5,1.6c-0.3,0.4-0.8,0.6-1.2,0.7c-1.3,0.2-2.7,0.4-4.2,0.5
			c-1.5,0.2-3.1,0.4-4.7,0.5c-1.6,0.2-3.3,0.3-5,0.4c-1.7,0.1-3.3,0.2-4.9,0.2c-1.2,0-2.1-0.2-2.8-0.7c-0.7-0.5-1.1-1.4-1.2-2.5
			c-0.1-1-0.2-2.2-0.2-3.7c-0.1-1.4-0.2-3-0.3-4.6c-0.1-1.6-0.2-3.3-0.3-5.1c-0.1-1.7-0.2-3.5-0.3-5.1c-0.1-1.7-0.1-3.2-0.2-4.6
			c-0.1-1.4-0.1-2.7-0.2-3.7c0-0.4,0-0.7,0.1-1c0-0.3,0.1-0.5,0.3-0.8c0.2-0.2,0.5-0.4,0.9-0.5c0.4-0.1,0.9-0.2,1.5-0.3
			C207,95.7,207.7,95.8,208.2,96.1z M240.3,115c-0.6,0-1.2,0-1.8,0c-0.1,3.2-0.3,6.3-0.5,9.4c-0.2,3.1-0.3,6-0.5,8.8
			c-0.1,1.1-0.4,1.8-0.8,2.2c-0.5,0.4-1.1,0.6-1.9,0.5c-0.8-0.1-1.4-0.4-1.7-0.9c-0.4-0.5-0.6-1.3-0.6-2.5c0-12.2,0.2-24.2,0.6-36.2
			c0-1,0.3-1.7,0.7-2.1c0.4-0.4,1.2-0.6,2.3-0.6c1.8,0,2.8,1,2.8,2.9c0,2.2-0.1,4.4-0.1,6.7c0,2.3-0.1,4.6-0.2,6.9
			c0.5,0,1.1,0,1.7,0s1.2,0,1.8,0c0.6,0,1.1,0,1.5,0c0.4,0,0.8,0,1,0c0.7,0,1.3,0.2,1.6,0.5c0.3,0.3,0.5,0.9,0.5,1.7
			c0,0.8-0.1,1.4-0.3,1.9c-0.2,0.5-0.7,0.8-1.4,0.8c-0.3,0-0.7,0.1-1.2,0.1c-0.5,0-1.1,0-1.7,0C241.6,115,241,115,240.3,115z"/>
		<path style="fill:#231815;" d="M257.5,123.3c-3,0.1-5.9,0.1-8.6,0.2c-1.3,0.1-2-0.7-2-2.3c0-0.8,0.2-1.4,0.5-1.8
			c0.3-0.4,0.8-0.6,1.6-0.7c2.8-0.1,5.7-0.2,8.8-0.3c3.1-0.1,6.2-0.2,9.2-0.3c3.1-0.1,6.1-0.2,9-0.2c2.9-0.1,5.5-0.1,8-0.2
			c0.7,0,1.1,0.2,1.4,0.6c0.3,0.4,0.4,1,0.4,1.6c0,0.8-0.2,1.4-0.5,1.8c-0.4,0.4-0.8,0.6-1.4,0.6c-2.5,0.1-5.2,0.3-8.2,0.4
			c-2.9,0.1-5.9,0.2-9,0.4C263.6,123.2,260.5,123.3,257.5,123.3z M250.9,93.7c0.4-0.1,0.9-0.2,1.5-0.3c1.1-0.1,1.9,0.1,2.3,0.4
			c0.4,0.3,0.7,0.9,0.7,1.8c0,0.9,0.1,2,0.1,3.2c0,1.2,0,2.5,0.1,3.7c0,1.2,0.1,2.3,0.1,3.4c0,1,0,1.8,0,2.3c0,0.4,0.2,0.6,0.5,0.6
			c0.9,0,2-0.1,3.3-0.1c1.3-0.1,2.7-0.1,4.2-0.2c1.5-0.1,3.1-0.1,4.7-0.2c1.6-0.1,3.2-0.1,4.7-0.2c1.5-0.1,2.9-0.1,4.2-0.2
			c1.3-0.1,2.4-0.1,3.3-0.2c0.6,0,1.1,0.1,1.5,0.4c0.4,0.3,0.6,0.9,0.6,1.9c0,0.7-0.1,1.3-0.5,1.6c-0.3,0.3-0.8,0.6-1.2,0.6
			c-0.8,0.1-2,0.2-3.3,0.4c-1.4,0.1-2.9,0.3-4.5,0.4c-1.6,0.1-3.4,0.2-5.1,0.3c-1.8,0.1-3.5,0.2-5.2,0.3c-1.7,0.1-3.3,0.2-4.8,0.2
			c-1.5,0.1-2.8,0.1-3.8,0.1c-1.2,0-2.1-0.3-2.8-0.9c-0.7-0.6-1.1-1.5-1.2-2.6c-0.2-2.1-0.3-4.4-0.4-6.7c-0.1-2.3-0.2-4.9-0.3-7.5
			c0-0.4,0-0.7,0.1-1c0-0.3,0.1-0.5,0.3-0.8C250.2,94,250.5,93.8,250.9,93.7z M281.3,137.5c0,0.8-0.2,1.3-0.6,1.7
			c-0.4,0.3-0.9,0.5-1.4,0.6c-1.8,0.1-3.7,0.3-5.8,0.4c-2.1,0.1-4.2,0.2-6.4,0.3c-2.2,0.1-4.3,0.1-6.3,0.2c-2,0.1-3.9,0.1-5.5,0.1
			c-0.8,0-1.5-0.3-2-0.9c-0.5-0.6-0.8-1.4-0.8-2.3c-0.1-1.7-0.2-3.3-0.3-4.8c-0.1-1.5-0.1-2.8-0.1-3.9c0-0.8,0.2-1.4,0.6-1.7
			c0.4-0.3,1.1-0.5,2.1-0.5c1-0.1,1.8,0,2.3,0.3c0.5,0.3,0.8,0.9,0.8,1.7c0,1.2,0.1,2.3,0.1,3.4c0,1.1,0,2.1,0.1,3.1
			c0,0.4,0.2,0.7,0.5,0.7c1.3,0,2.9-0.1,4.8-0.1c1.8-0.1,3.7-0.1,5.6-0.2c1.9-0.1,3.8-0.1,5.6-0.2c1.8-0.1,3.4-0.1,4.7-0.1
			c0.7,0,1.2,0.2,1.5,0.5C281.2,136.1,281.3,136.7,281.3,137.5z"/>
	</g>
	<g>
		<path style="fill:#231815;" d="M429,120.7c-0.1,0.8-0.4,1.4-0.9,1.8c-0.5,0.4-1.1,0.5-1.9,0.4c-1.5-0.1-2.2-0.9-2.3-2.3
			c0-0.4,0-1.2,0-2.2c0-1,0-2.2,0-3.6c0-1.3,0-2.8,0.1-4.3c0-1.5,0.1-3,0.1-4.4c0-1.4,0.1-2.6,0.1-3.7c0-1.1,0-1.9,0-2.5
			c-1.3,0.1-2.7,0.1-4.3,0.2c-1.6,0-3.2,0.1-4.8,0.1c-1.6,0-3.2,0-4.8,0.1c-1.6,0-3.1,0-4.5,0c-1.3,0-2-0.8-2-2.4
			c0-0.8,0.2-1.3,0.6-1.7c0.4-0.3,0.9-0.5,1.4-0.6c1.7-0.1,3.6-0.2,5.5-0.3c1.9-0.1,3.9-0.1,5.8-0.2c1.9-0.1,3.9-0.1,5.7-0.1
			c1.9,0,3.6,0,5.3,0c0.7,0,1.2,0.2,1.4,0.5c0.2,0.3,0.4,0.9,0.4,1.6c0,0.7,0,1.7,0,3c0,1.3-0.1,2.6-0.1,4.2
			c-0.1,1.5-0.1,3.1-0.2,4.8c-0.1,1.7-0.1,3.2-0.2,4.7c-0.1,1.5-0.2,2.9-0.2,4.1C429.2,119.1,429.1,120,429,120.7z M417,120.6
			c0.1,2.3,0.2,4.5,0.3,6.8c2.2-0.2,4.4-0.3,6.5-0.5c2.1-0.1,4.2-0.3,6.3-0.5c0.7-0.1,1.1,0.1,1.4,0.5c0.3,0.4,0.4,1,0.4,1.6
			c0,0.8-0.2,1.4-0.5,1.8c-0.4,0.4-0.8,0.6-1.4,0.7c-2.1,0.3-4.1,0.5-6,0.7c-1.9,0.2-3.7,0.4-5.6,0.6c-1.9,0.2-3.8,0.3-5.8,0.5
			c-2,0.1-4.1,0.3-6.5,0.4c-1.3,0-2-0.8-2-2.5c0-0.8,0.2-1.4,0.5-1.8c0.3-0.4,0.8-0.6,1.6-0.7c0.9-0.1,1.8-0.1,2.6-0.2
			c0.9-0.1,1.7-0.1,2.6-0.2c-0.1-2.4-0.2-4.7-0.2-7.1c-0.1-2.3-0.2-4.6-0.2-6.7c0-1,0.2-1.7,0.6-2.1c0.5-0.4,1.2-0.7,2.3-0.7
			c1.8,0,2.8,0.9,2.8,2.8C416.8,116.1,416.9,118.3,417,120.6z M440.7,104.3c0,2-0.1,4.1-0.2,6.1c1,0,1.9-0.1,2.8-0.1s1.5,0,1.9,0
			c0.7,0,1.3,0.2,1.6,0.5c0.3,0.3,0.5,0.9,0.5,1.7c0,0.8-0.1,1.4-0.3,1.9c-0.2,0.5-0.7,0.8-1.4,0.8c-0.4,0-1.1,0.1-2.2,0.1
			c-1,0-2,0-3.1,0c-0.1,2.5-0.3,5-0.4,7.5c-0.1,2.5-0.3,5-0.5,7.6c-0.1,1.1-0.4,1.8-0.8,2.2c-0.5,0.4-1.1,0.6-1.9,0.5
			c-0.8-0.1-1.4-0.4-1.7-0.9c-0.4-0.5-0.6-1.3-0.6-2.5c0-3,0-5.8,0-8.4c0-2.6,0.1-5.2,0.1-7.7c0.1-2.5,0.1-5.1,0.2-7.6
			c0.1-2.6,0.2-5.4,0.3-8.4c0-1,0.3-1.7,0.7-2.1c0.4-0.4,1.2-0.6,2.3-0.6c1.8,0,2.8,1,2.8,2.9C440.8,100.1,440.8,102.2,440.7,104.3z
			"/>
	</g>
	<g>
		<path style="fill:#231815;" d="M299.4,242.6c2.2-0.1,4.4-0.2,6.6-0.3c2.2-0.1,4.3-0.2,6.4-0.2c0.7,0,1.1,0.1,1.4,0.5
			c0.3,0.4,0.4,0.9,0.4,1.6c0,0.8-0.2,1.4-0.5,1.8c-0.4,0.4-0.8,0.6-1.4,0.7c-5.1,0.4-10.2,0.7-15.5,1c-5.3,0.3-10.6,0.5-16.1,0.7
			c-1.3,0-2-0.8-2-2.5c0-0.8,0.2-1.4,0.5-1.8c0.3-0.4,0.8-0.6,1.6-0.6c2.2-0.1,4.4-0.2,6.6-0.3c2.2-0.1,4.3-0.2,6.5-0.3v-7.5
			c-1.6,0.1-3.2,0.1-4.8,0.2c-1.6,0.1-3.2,0.1-4.8,0.2c-0.8,0-1.5,0-2-0.1c-0.5-0.1-1-0.3-1.3-0.5c-0.3-0.2-0.6-0.6-0.7-1
			c-0.2-0.4-0.3-1-0.3-1.6c-0.1-0.6-0.1-1.3-0.1-2.1c0-0.8,0-1.7-0.1-2.6c0-0.9-0.1-1.8-0.1-2.7c0-0.9,0-1.7,0-2.5
			c0-0.5,0.1-0.9,0.3-1.2c0.2-0.3,0.5-0.5,1-0.5c0.9-0.1,2-0.2,3.4-0.2c1.4-0.1,2.8-0.2,4.4-0.3c1.6-0.1,3.2-0.2,4.9-0.3
			c1.7-0.1,3.4-0.2,5-0.3c1.6-0.1,3.1-0.2,4.5-0.3c1.4-0.1,2.6-0.2,3.6-0.2c0-0.4,0-0.9,0-1.6s0-1.3,0-2c0-0.7,0-1.4,0-2.1
			c0-0.7,0-1.2,0-1.6c-1.1,0-2.4,0.1-3.8,0.1c-1.4,0-3,0.1-4.6,0.1s-3.3,0.1-5,0.2c-1.7,0.1-3.3,0.1-4.9,0.2c-1.6,0.1-3,0.1-4.3,0.1
			c-1.3,0-2.4,0.1-3.3,0.1c-0.5,0-0.9-0.2-1.1-0.5c-0.2-0.3-0.3-1-0.3-1.9c0-0.9,0.1-1.5,0.4-1.9c0.3-0.3,0.7-0.5,1.4-0.6
			c2.4-0.1,4.8-0.2,7.4-0.2c2.6-0.1,5.1-0.2,7.7-0.3c2.6-0.1,5.1-0.2,7.7-0.2s5-0.1,7.3-0.1c0.8,0,1.3,0.5,1.3,1.6
			c0,0.8,0,1.8,0,2.9c0,1.1,0,2.2-0.1,3.4c0,1.2-0.1,2.3-0.1,3.4c0,1.1,0,2.1-0.1,3c0,0.7-0.2,1.2-0.5,1.6c-0.3,0.3-0.9,0.6-1.7,0.6
			c-1,0.1-2.2,0.2-3.5,0.2c-1.4,0.1-2.8,0.2-4.4,0.3c-1.6,0.1-3.1,0.2-4.8,0.3c-1.6,0.1-3.2,0.2-4.7,0.3c-1.5,0.1-2.9,0.2-4.2,0.3
			c-1.3,0.1-2.4,0.2-3.2,0.2c0,0.4,0,0.8,0,1.3c0,0.5,0,0.9,0,1.4c0,0.5,0,0.9,0.1,1.4c0,0.4,0,0.8,0,1.1c0,0.5,0.2,0.7,0.7,0.7
			c1.9-0.1,3.9-0.1,5.9-0.2c2.1-0.1,4.2-0.2,6.4-0.2c2.2-0.1,4.3-0.2,6.5-0.3c2.2-0.1,4.3-0.2,6.3-0.3c0.6,0,1.1,0.1,1.4,0.4
			c0.3,0.3,0.5,0.9,0.5,1.8c0,1.4-0.5,2.1-1.6,2.1c-2,0.1-4,0.3-5.9,0.4c-1.9,0.1-3.9,0.2-5.8,0.4V242.6z"/>
		<path style="fill:#231815;" d="M345.1,215.1c0,1.7,0.1,3.4,0.1,5.1c2,1.2,4,2.3,6,3.3c2,1,3.7,1.9,5.3,2.8c0.6,0.3,0.9,0.8,1,1.3
			c0.1,0.5-0.1,1.1-0.5,1.7c-0.4,0.7-0.8,1.1-1.2,1.3c-0.4,0.2-0.9,0.1-1.5-0.2c-1.5-0.7-3.3-1.6-5.2-2.5c-2-1-4-2-6.1-3.1
			c-0.7,0.7-1.5,1.5-2.3,2.2s-1.6,1.5-2.4,2.3c-0.8,0.8-1.6,1.5-2.4,2.2c-0.8,0.7-1.5,1.3-2.1,1.9c-0.5,0.5-1.1,0.6-1.7,0.5
			c-0.6-0.1-1.2-0.5-1.6-1.1c-0.4-0.5-0.6-1-0.5-1.5c0.1-0.5,0.3-0.9,0.8-1.3c0.7-0.7,1.4-1.4,2.2-2.2c0.8-0.8,1.6-1.6,2.4-2.4
			c0.8-0.8,1.6-1.6,2.4-2.4c0.8-0.8,1.4-1.5,2-2.2c-0.1-1.7-0.1-3.4-0.2-5.1c-0.1-1.6-0.1-3.3-0.2-4.9c-1.9,0.1-3.7,0.2-5.3,0.3
			c-1.6,0.1-2.9,0.1-3.9,0.2c-0.6,0-1.1-0.1-1.5-0.5c-0.4-0.4-0.6-1-0.6-1.8c0-0.9,0.1-1.5,0.5-1.9c0.4-0.4,0.8-0.6,1.4-0.7
			c0.9,0,2.1-0.1,3.4-0.2c1.4-0.1,2.9-0.1,4.4-0.2c1.6-0.1,3.2-0.1,4.9-0.2c1.7-0.1,3.3-0.1,4.9-0.2c1.6-0.1,3-0.1,4.4-0.2
			c1.3-0.1,2.5-0.1,3.4-0.1c0.7,0,1.2,0.1,1.6,0.4c0.3,0.3,0.5,0.8,0.6,1.7c0,1.6-0.7,2.5-2.1,2.6c-1,0.1-2.5,0.2-4.3,0.2
			c-1.8,0.1-3.8,0.2-5.9,0.4C345.1,211.8,345.1,213.3,345.1,215.1z M367.4,248.5c-0.5,1.4-1.3,2.6-2.4,3.6c-1.1,1-2.4,1.9-4,2.5
			c-1.6,0.6-3.4,1-5.4,1c-2,0.1-3.9-0.1-5.4-0.6c-1.6-0.5-2.9-1.2-3.9-2.2c-1.1-0.9-1.9-2.1-2.4-3.5c-0.5-1.4-0.8-2.9-0.8-4.6
			c0-1.5,0.3-2.9,0.8-4.2c0.5-1.4,1.3-2.6,2.3-3.7c1-1.1,2.3-1.9,3.8-2.6c1.5-0.7,3.3-1.1,5.4-1.2c2-0.1,3.8,0.1,5.3,0.5
			c1.6,0.5,2.9,1.2,4,2.2c1.1,1,1.9,2.1,2.5,3.5c0.6,1.4,0.9,2.9,1,4.6C368.2,245.6,368,247.1,367.4,248.5z M360.9,249
			c0.6-0.6,1.1-1.4,1.5-2.2c0.3-0.9,0.5-1.8,0.5-2.8c-0.1-2.1-0.8-3.7-2.1-4.8c-1.3-1.1-3.1-1.7-5.2-1.6c-1.1,0.1-2.1,0.3-3,0.7
			c-0.9,0.4-1.6,0.9-2.2,1.5c-0.6,0.6-1.1,1.4-1.4,2.2c-0.3,0.8-0.5,1.7-0.5,2.6c0,2,0.7,3.7,1.9,4.8c1.3,1.2,3,1.7,5.1,1.7
			c1.2,0,2.2-0.2,3.1-0.6C359.5,250.1,360.2,249.6,360.9,249z M360.4,214.7c0.8,0,1.7-0.1,2.4-0.1c0-0.9,0.1-1.9,0.1-2.8
			c0-0.9,0-1.8,0.1-2.8c0-1,0.2-1.7,0.6-2.1c0.4-0.4,1.2-0.6,2.2-0.6c1.9,0,2.8,1,2.8,2.9c0,1.7-0.1,3.7-0.1,5.8
			c0,2.1,0,4.1-0.1,6.1c0,2-0.1,3.9-0.2,5.6c-0.1,1.7-0.2,3.1-0.3,4c-0.1,1.1-0.4,1.7-0.9,2.1c-0.5,0.3-1.1,0.5-1.8,0.4
			c-0.8,0-1.4-0.2-1.8-0.5c-0.4-0.3-0.7-1-0.7-2.1c0-1-0.1-2.5-0.1-4.4c0-2,0-4.2,0.1-6.6c-0.8,0-1.6,0.1-2.5,0.1
			c-0.8,0-1.6,0.1-2.3,0.1c-0.7,0-1.4,0-1.9,0.1c-0.5,0-0.9,0-1.1,0c-0.7,0-1.2-0.2-1.5-0.6c-0.3-0.4-0.4-1-0.5-1.8
			c0-1.6,0.6-2.4,1.8-2.5c0.2,0,0.6,0,1.2-0.1c0.6,0,1.2-0.1,2-0.1C358.8,214.8,359.6,214.7,360.4,214.7z"/>
		<path style="fill:#231815;" d="M403,239.5c0.5,0,0.9,0,1.4,0c0.4,0,0.9,0,1.2,0c0.7,0,1.2,0.2,1.4,0.5c0.2,0.3,0.4,0.9,0.4,1.6
			c0,1.1,0,2.1,0,2.9c0,0.8,0,1.6-0.1,2.4c0,0.8-0.1,1.6-0.2,2.4c-0.1,0.8-0.2,1.7-0.3,2.8c-0.1,0.8-0.4,1.4-0.9,1.8
			c-0.5,0.4-1.1,0.5-1.9,0.4c-0.8-0.1-1.3-0.3-1.6-0.7c-0.3-0.4-0.4-0.9-0.5-1.6c-0.1-1.3-0.1-2.5-0.1-3.6c0-1.1,0-2.5,0-4.1
			c-1.3,0.1-2.9,0.1-4.9,0.2c-2,0.1-4,0.1-6.1,0.2c-2.1,0.1-4.2,0.1-6.1,0.2c-2,0.1-3.7,0.1-5.1,0.1c-0.7,0-1.2-0.2-1.5-0.5
			c-0.3-0.3-0.5-0.9-0.5-1.8c0-1.5,0.7-2.2,2-2.3c1,0,2.2-0.1,3.6-0.2v-4.6c-1.3,0-2.7,0.1-4,0.1c-1.3,0-2.6,0-3.8,0.1
			c-1.3,0.1-2-0.7-2-2.3c0-0.8,0.2-1.4,0.5-1.8c0.3-0.4,0.8-0.6,1.6-0.7c2.8-0.1,5.7-0.2,8.8-0.3c3.1-0.1,6.2-0.2,9.2-0.3
			c3.1-0.1,6.1-0.2,9-0.2c2.9-0.1,5.5-0.1,8-0.2c0.7,0,1.1,0.2,1.4,0.6c0.3,0.4,0.4,1,0.4,1.6c0,0.8-0.2,1.4-0.5,1.8
			c-0.4,0.4-0.8,0.6-1.4,0.6c-1.1,0.1-2.3,0.1-3.6,0.2c-1.2,0.1-2.5,0.1-3.8,0.2V239.5z M405.3,220.6c-0.7,1.5-1.6,2.8-2.9,3.9
			c-1.3,1.1-2.8,1.9-4.6,2.5c-1.8,0.6-3.8,0.9-6,0.9c-2,0-3.8-0.3-5.5-0.8s-3-1.3-4.2-2.4c-1.1-1-2-2.3-2.6-3.7
			c-0.6-1.4-0.9-3-0.9-4.8c0-1.6,0.3-3.2,1-4.7c0.7-1.5,1.6-2.8,2.8-4c1.2-1.1,2.7-2.1,4.5-2.8c1.8-0.7,3.8-1,6-1
			c1.9,0,3.7,0.3,5.4,0.8c1.6,0.6,3,1.4,4.2,2.4c1.2,1,2.1,2.3,2.8,3.7c0.7,1.4,1,3,1,4.7C406.3,217.2,406,219,405.3,220.6z
			 M398.5,221c1.4-1.4,2.1-3.3,2.1-5.6c-0.1-2.1-0.8-3.8-2.2-5.1c-1.4-1.3-3.3-2-5.7-2c-1.3,0-2.5,0.2-3.5,0.6c-1,0.4-1.9,1-2.6,1.7
			c-0.7,0.7-1.2,1.5-1.6,2.4c-0.4,0.9-0.6,1.9-0.6,2.9c0,1.1,0.2,2,0.5,2.9c0.4,0.9,0.9,1.7,1.5,2.3c0.7,0.6,1.5,1.1,2.5,1.5
			c1,0.3,2.1,0.5,3.3,0.5C395,223.2,397.1,222.5,398.5,221z M397.4,235.1c-1.4,0.1-2.9,0.1-4.3,0.2c-1.4,0-2.9,0.1-4.3,0.2v4.5
			c1.4-0.1,2.9-0.1,4.3-0.2c1.4-0.1,2.9-0.1,4.3-0.1V235.1z"/>
		<path style="fill:#231815;" d="M437.8,230.3c-0.1,0.8-0.4,1.4-0.9,1.8c-0.5,0.4-1.1,0.5-1.9,0.4c-1.5-0.1-2.2-0.9-2.3-2.3
			c0-0.4,0-1.1,0-2.1c0-1,0-2.1,0-3.3s0-2.6,0-4c0-1.4,0-2.8,0.1-4.1c0-1.3,0-2.5,0-3.5s0-1.8,0-2.4c-1.3,0.1-2.7,0.1-4.1,0.2
			c-1.4,0-2.9,0.1-4.4,0.1c-1.5,0-3,0-4.5,0.1c-1.5,0-2.9,0-4.3,0c-1.3,0-2-0.8-2-2.4c0-0.8,0.2-1.3,0.6-1.7
			c0.4-0.3,0.9-0.5,1.4-0.6c3.5-0.2,7.1-0.3,10.8-0.4c3.7-0.1,7.2-0.2,10.5-0.2c0.7,0,1.2,0.2,1.4,0.5c0.2,0.3,0.4,0.9,0.4,1.6
			c0,0.7,0,1.7,0,2.9c0,1.2,0,2.5-0.1,3.9c0,1.4,0,2.9-0.1,4.4c0,1.5-0.1,3-0.1,4.4c-0.1,1.4-0.1,2.7-0.2,3.9
			C438,228.7,437.9,229.6,437.8,230.3z M449,252c-0.1,0.8-0.4,1.4-0.9,1.8c-0.5,0.4-1.1,0.5-1.9,0.4c-0.8-0.1-1.3-0.3-1.6-0.7
			c-0.3-0.4-0.4-0.9-0.5-1.6c0-0.7-0.1-1.5-0.1-2.5c0-1,0-2.1,0-3.2c0-1.1,0-2.2,0.1-3.4c0-1.1,0-2.1,0-2.9
			c-1.3,0.1-2.9,0.1-4.7,0.2c-1.9,0.1-3.8,0.1-5.8,0.2c-2,0.1-3.9,0.1-5.8,0.2c-1.9,0.1-3.5,0.1-4.9,0.1c-1.3,0-2-0.8-2-2.4
			c0-0.8,0.2-1.3,0.6-1.7c0.4-0.3,0.9-0.5,1.4-0.6c1.7-0.1,3.7-0.2,5.9-0.3c2.2-0.1,4.5-0.2,6.7-0.3c2.3-0.1,4.5-0.2,6.6-0.2
			c2.1-0.1,4-0.1,5.7-0.1c0.7,0,1.2,0.2,1.4,0.5c0.2,0.3,0.4,0.9,0.4,1.6c0,1.1,0,2.3-0.1,3.6c0,1.3-0.1,2.6-0.1,3.9
			c-0.1,1.3-0.1,2.6-0.2,3.9C449.2,249.8,449.1,251,449,252z M450.6,213.2c0,1.4,0,2.8-0.1,4.3c1,0,2-0.1,3-0.1c1,0,1.7,0,2,0
			c0.7,0,1.3,0.2,1.6,0.5c0.3,0.3,0.5,0.9,0.5,1.7c0,0.8-0.1,1.4-0.3,1.9c-0.2,0.5-0.7,0.8-1.4,0.8c-0.5,0-1.2,0.1-2.3,0.1
			c-1.1,0-2.1,0-3.2,0c0,1.8-0.1,3.4-0.2,4.9c-0.1,1.5-0.1,2.7-0.2,3.6c-0.1,1.1-0.4,1.7-0.9,2.1c-0.5,0.3-1.1,0.5-1.8,0.4
			c-0.8,0-1.4-0.2-1.8-0.5c-0.4-0.3-0.7-1-0.7-2.1c0-0.8-0.1-2.1-0.1-3.7c0-1.6,0-3.4,0.1-5.4c0-2,0.1-4.1,0.1-6.3
			c0-2.2,0-4.3,0.1-6.4c0-1,0.2-1.7,0.6-2.1c0.4-0.4,1.2-0.6,2.2-0.6c1.9,0,2.8,1,2.8,2.9C450.6,210.4,450.6,211.8,450.6,213.2z"/>
		<path style="fill:#231815;" d="M474.2,206c0,0.7,0,1.5,0.1,2.3c2.2-0.1,4.2-0.1,6.1-0.2c1.9-0.1,3.4-0.1,4.5-0.2
			c0.7,0,1.2,0.1,1.6,0.4c0.3,0.3,0.5,0.8,0.6,1.7c0,0.8-0.1,1.4-0.5,1.7c-0.3,0.3-0.9,0.5-1.6,0.6c-0.2,0-0.5,0-0.9,0
			c-0.4,0-0.8,0-1.2,0.1c-0.4,0-0.9,0-1.3,0.1c-0.4,0-0.8,0-1.1,0c0.7,0.4,1.3,0.8,1.8,1.4s0.9,1.3,1.2,2c0.3,0.8,0.5,1.6,0.7,2.5
			c0.1,0.9,0.2,1.8,0.3,2.7c0,1.6-0.2,3.2-0.7,4.6c-0.5,1.4-1.3,2.6-2.3,3.7c-1,1.1-2.4,1.9-3.9,2.6c-1.6,0.6-3.4,1-5.4,1.1
			c-2,0.1-3.9-0.1-5.4-0.6c-1.6-0.5-2.9-1.2-3.9-2.2c-1-1-1.8-2.2-2.4-3.6c-0.5-1.4-0.8-3-0.8-4.7c0-0.9,0.1-1.7,0.3-2.6
			c0.2-0.9,0.5-1.7,0.8-2.5c0.4-0.8,0.8-1.4,1.3-2c0.5-0.6,1-1.1,1.6-1.4c-0.4,0-0.8,0.1-1.3,0.1c-0.5,0-1,0-1.5,0.1
			c-0.5,0-1,0-1.4,0.1c-0.4,0-0.8,0-1,0c-0.6,0-1.1-0.1-1.5-0.4c-0.4-0.3-0.6-0.8-0.6-1.7c0-0.9,0.1-1.5,0.5-1.9
			c0.4-0.4,0.8-0.6,1.4-0.7c1.1-0.1,2.6-0.1,4.5-0.2c1.9-0.1,3.9-0.2,6-0.3c0-0.8-0.1-1.5-0.1-2.1c0-0.7,0-1.2,0-1.7
			c0-0.8,0.1-1.5,0.5-1.9c0.4-0.5,1.1-0.7,2.2-0.8c1.3-0.1,2.1,0.1,2.4,0.4c0.4,0.4,0.5,1,0.6,2C474.2,204.8,474.2,205.3,474.2,206z
			 M471.7,228.6c2.4-0.1,4.2-0.8,5.4-2.3c1.2-1.5,1.8-3.4,1.7-6c-0.1-2.5-0.8-4.4-2-5.7c-1.3-1.3-3-2-5.1-1.9
			c-1.1,0.1-2.1,0.3-3,0.8c-0.8,0.4-1.6,1-2.1,1.7c-0.6,0.7-1,1.6-1.3,2.5c-0.3,1-0.5,2-0.5,3.1c0,2.4,0.7,4.3,1.9,5.7
			C467.8,228.1,469.5,228.7,471.7,228.6z M496.1,248.9c-0.6,1.3-1.4,2.5-2.5,3.5c-1.1,1-2.5,1.8-4.1,2.3c-1.6,0.6-3.4,0.9-5.4,1
			c-4.1,0.2-7.3-0.7-9.5-2.6c-2.2-1.9-3.4-4.5-3.4-7.9c0-1.5,0.3-2.8,0.8-4.2c0.5-1.3,1.3-2.5,2.4-3.5c1.1-1,2.4-1.8,3.9-2.5
			c1.6-0.6,3.4-1,5.5-1.1c2-0.1,3.8,0.1,5.4,0.5c1.6,0.4,3,1.1,4.1,2c1.1,0.9,2,2,2.6,3.4c0.6,1.3,1,2.9,1,4.6
			C497,246,496.7,247.5,496.1,248.9z M489.5,249.2c0.7-0.6,1.2-1.3,1.5-2.1c0.4-0.8,0.5-1.7,0.5-2.7c-0.1-2-0.8-3.6-2.3-4.7
			c-1.4-1.1-3.2-1.6-5.3-1.4c-1.1,0.1-2.1,0.3-3,0.6c-0.9,0.3-1.7,0.8-2.3,1.4c-0.6,0.6-1.1,1.3-1.5,2.1c-0.3,0.8-0.5,1.7-0.5,2.6
			c0,2,0.7,3.6,2.1,4.7c1.3,1.1,3.1,1.6,5.2,1.5c1.2,0,2.2-0.2,3.2-0.6C488,250.3,488.8,249.9,489.5,249.2z M491.6,218.8
			c-1.1,0.1-2.1,0.1-2.9,0.1c-0.8,0-1.4,0-1.7,0c-0.7,0-1.2-0.2-1.5-0.6c-0.3-0.4-0.4-1-0.5-1.8c0-1.6,0.6-2.4,1.8-2.4
			c0.4,0,1,0,1.8-0.1c0.8-0.1,1.9-0.1,3-0.2c0-0.8,0.1-1.7,0.1-2.5c0-0.8,0-1.6,0.1-2.4c0-1,0.2-1.7,0.6-2.1
			c0.4-0.4,1.2-0.6,2.2-0.6c1.9,0,2.8,1,2.8,2.9c0,1.7-0.1,3.7-0.1,5.9c0,2.2,0,4.3-0.1,6.4c0,2.1-0.1,4.1-0.2,5.8
			c-0.1,1.8-0.2,3.2-0.3,4.2c-0.1,1.1-0.4,1.7-0.9,2.1s-1.1,0.5-1.8,0.4c-0.8,0-1.4-0.2-1.8-0.5c-0.4-0.3-0.7-1-0.7-2.1
			c0-0.4-0.1-1.1-0.1-1.9c0-0.9,0-1.7,0-2.5c-1.1,0-2.1,0.1-2.9,0.1c-0.8,0-1.4,0-1.6,0c-0.7,0-1.2-0.2-1.5-0.6
			c-0.3-0.4-0.4-1-0.5-1.8c0-1.6,0.6-2.4,1.8-2.4c0.3,0,0.8,0,1.7-0.1c0.8,0,1.8-0.1,3-0.2V218.8z"/>
		<path style="fill:#231815;" d="M512.8,232.5c-3,0.1-5.9,0.1-8.6,0.2c-1.3,0.1-2-0.7-2-2.3c0-0.8,0.2-1.4,0.5-1.7
			c0.3-0.3,0.8-0.5,1.6-0.6c2.8-0.1,5.7-0.2,8.8-0.3c3.1-0.1,6.2-0.2,9.2-0.3c3.1-0.1,6.1-0.2,9-0.2c2.9-0.1,5.5-0.1,8-0.2
			c1.2,0,1.9,0.6,1.9,2c0,0.8-0.2,1.4-0.5,1.8c-0.4,0.3-0.8,0.5-1.4,0.6c-2.5,0.1-5.2,0.3-8.2,0.4c-2.9,0.1-5.9,0.2-9,0.4
			C518.9,232.3,515.8,232.4,512.8,232.5z M512.9,249.5c1.6,0,3.4,0,5.3-0.1c1.9,0,3.9-0.1,5.9-0.1c2,0,4,0,6-0.1
			c2,0,3.9-0.1,5.6-0.1c0.5,0,0.9,0.2,1.1,0.5c0.2,0.3,0.3,0.8,0.3,1.4c0,0.6-0.1,1.2-0.3,1.6c-0.2,0.5-0.6,0.7-1.2,0.7
			c-4.2,0.2-8.3,0.3-12.4,0.4c-4.1,0.1-8.2,0.1-12.4,0.1c-1.2,0-2.1-0.2-2.5-0.7c-0.5-0.5-0.7-1.3-0.8-2.5c-0.1-1.1-0.1-2.1-0.2-2.9
			c-0.1-0.9-0.1-1.8-0.1-2.9c0-0.4,0.1-0.7,0.2-1c0.1-0.3,0.4-0.4,0.8-0.4c1.4-0.1,3.1-0.1,5.2-0.2c2-0.1,4.2-0.1,6.4-0.2
			c2.2-0.1,4.3-0.1,6.4-0.2c2-0.1,3.8-0.1,5.1-0.2c0-0.6,0.1-1.1,0.1-1.5c0-0.4,0-0.9,0-1.6c-1.6,0.1-3.4,0.1-5.4,0.2
			c-2,0.1-4.1,0.1-6.3,0.2c-2.1,0.1-4.2,0.1-6.3,0.2c-2,0.1-3.9,0.1-5.4,0.2c-0.6,0-1-0.1-1.2-0.4c-0.2-0.3-0.4-0.9-0.4-1.7
			c0-0.8,0.1-1.4,0.4-1.8c0.3-0.3,0.7-0.5,1.3-0.6c1.9-0.1,4.1-0.2,6.3-0.3c2.3-0.1,4.6-0.2,7-0.3c2.4-0.1,4.8-0.2,7.2-0.2
			c2.4-0.1,4.7-0.1,6.9-0.2c0.4,0,0.7,0.1,0.9,0.3c0.2,0.2,0.3,0.6,0.3,1.1c0,1.3,0,2.7-0.1,4.1c-0.1,1.4-0.2,2.8-0.2,4.1
			c-0.1,0.7-0.2,1.2-0.5,1.6c-0.3,0.3-0.8,0.5-1.6,0.5c-1.4,0.1-3.1,0.1-4.9,0.2c-1.8,0.1-3.7,0.1-5.6,0.2c-1.9,0.1-3.8,0.1-5.8,0.2
			c-1.9,0.1-3.7,0.1-5.2,0.2L512.9,249.5z M534.1,218.6c-0.7,1.4-1.6,2.6-2.9,3.6c-1.3,0.9-2.8,1.7-4.6,2.2c-1.8,0.5-3.8,0.8-6,0.8
			c-4.1,0-7.3-0.9-9.6-2.7c-2.4-1.9-3.6-4.5-3.6-7.9c0-1.6,0.3-3,1-4.4c0.7-1.4,1.6-2.6,2.8-3.6c1.2-1,2.7-1.9,4.5-2.5
			c1.8-0.6,3.8-0.9,6-0.9c1.9,0,3.7,0.2,5.4,0.7c1.6,0.5,3,1.2,4.2,2.1c1.2,0.9,2.1,2,2.8,3.3c0.7,1.3,1,2.8,1,4.4
			C535.1,215.5,534.7,217.2,534.1,218.6z M527.3,218.8c1.4-1.2,2.1-2.9,2-5c-0.1-1.9-0.9-3.4-2.3-4.5c-1.4-1.1-3.3-1.6-5.7-1.6
			c-1.3,0-2.5,0.2-3.5,0.5c-1,0.3-1.9,0.8-2.6,1.4c-0.7,0.6-1.2,1.3-1.6,2.1c-0.4,0.8-0.6,1.7-0.6,2.6c0,1.9,0.7,3.5,2.1,4.6
			c1.4,1.1,3.3,1.7,5.8,1.6C523.7,220.6,525.8,220,527.3,218.8z"/>
	</g>
	<g>
		<path style="fill:#231815;" d="M244.2,299c1.2,0,1.8,0.6,1.8,1.8c0.1,3.5,0.1,7.2,0.1,11c0,3.8,0,7.5-0.1,10.9
			c0,0.9-0.2,1.6-0.5,1.9c-0.3,0.3-0.8,0.5-1.5,0.6c-0.6,0-1.4,0.1-2.4,0.2c-1,0.1-2.2,0.1-3.4,0.2s-2.5,0.1-3.9,0.2
			c-1.4,0.1-2.6,0.1-3.9,0.2c-1.2,0-2.3,0.1-3.3,0.1c-1,0-1.8,0.1-2.3,0.1c-1,0-1.8-0.3-2.4-1c-0.6-0.7-0.9-1.5-1-2.6
			c-0.1-1.3-0.1-2.8-0.2-4.6c0-1.8-0.1-3.6-0.1-5.5c0-1.9-0.1-3.8-0.1-5.7c0-1.9,0-3.5,0-4.9c0-1.6,0.7-2.4,2.1-2.5
			c0.6,0,1.5-0.1,2.6-0.1c1.1,0,2.3-0.1,3.6-0.1c1.3,0,2.7-0.1,4.1-0.1c1.4,0,2.8,0,4.1-0.1c1.3,0,2.5-0.1,3.7-0.1
			C242.6,299,243.5,299,244.2,299z M240,320.7c0.5,0,0.7-0.3,0.7-0.8c0-0.9,0-2,0-3.4c0-1.3,0-2.8-0.1-4.3c0-1.5-0.1-3-0.1-4.4
			c0-1.5-0.1-2.7-0.1-3.9l-13.5,0.4c0,1.1,0.1,2.3,0.1,3.8s0,2.9,0,4.4c0,1.5,0,3,0,4.5c0,1.5,0,2.9,0.1,4.2L240,320.7z
			 M258.1,343.2c0,0.8-0.2,1.3-0.6,1.7c-0.4,0.3-0.9,0.5-1.4,0.6c-1.8,0.1-3.6,0.3-5.6,0.4c-1.9,0.1-3.9,0.2-5.9,0.3
			c-2,0.1-3.9,0.1-5.8,0.2c-1.9,0.1-3.7,0.1-5.3,0.1c-0.8,0-1.5-0.3-2-0.9c-0.5-0.6-0.8-1.4-0.8-2.3c-0.1-1.1-0.1-2.1-0.2-3
			c-0.1-0.9-0.1-1.7-0.1-2.5c0-0.8,0-1.6-0.1-2.5c0-0.8,0-1.8,0-2.8c0-0.8,0.2-1.4,0.6-1.7c0.4-0.3,1.1-0.5,2.1-0.5
			c1-0.1,1.8,0,2.3,0.3c0.5,0.3,0.8,0.9,0.8,1.7c0,0.6,0,1.3,0,2.1c0,0.8,0,1.6,0,2.4c0,0.8,0,1.6,0,2.3c0,0.7,0,1.3,0,1.9
			c0,0.4,0.2,0.7,0.5,0.7c1.3,0,2.9-0.1,4.6-0.1c1.7-0.1,3.4-0.1,5.2-0.2s3.5-0.1,5.1-0.2c1.7-0.1,3.2-0.1,4.5-0.1
			c0.7,0,1.2,0.2,1.5,0.5C257.9,341.7,258.1,342.3,258.1,343.2z M258,306.1c0,1.5,0,3-0.1,4.6c0.9,0,1.8-0.1,2.7-0.1
			c0.9,0,1.5,0,1.8,0c0.7,0,1.3,0.2,1.6,0.5c0.3,0.3,0.5,0.9,0.5,1.7c0,0.8-0.1,1.4-0.3,1.9c-0.2,0.5-0.7,0.8-1.4,0.8
			c-0.4,0-1.1,0.1-2,0.1c-0.9,0-1.9,0-2.9,0c0,1.4-0.1,2.7-0.1,4.1c0,1.3,0,2.6-0.1,3.7c0,1.1-0.1,2.1-0.1,3
			c-0.1,0.9-0.1,1.6-0.1,2.1c-0.1,1.1-0.4,1.7-0.9,2.1c-0.5,0.3-1.1,0.5-1.8,0.4c-0.8,0-1.4-0.2-1.8-0.5c-0.4-0.3-0.7-1-0.7-2.1
			c0-0.5-0.1-1.4-0.1-2.6c0-1.2,0-2.5,0-4c0-1.5,0-3.1,0-4.9c0-1.7,0-3.5,0-5.3c0-1.8,0-3.5,0.1-5.2c0-1.7,0-3.2,0.1-4.5
			c0-1,0.2-1.7,0.6-2.1c0.4-0.4,1.2-0.6,2.2-0.6c1.9,0,2.8,1,2.8,2.9C258,303.3,258,304.6,258,306.1z"/>
		<path style="fill:#231815;" d="M275.6,324.5c-3,0.1-5.9,0.1-8.6,0.2c-1.3,0.1-2-0.7-2-2.3c0-0.8,0.2-1.4,0.5-1.7
			c0.3-0.3,0.8-0.5,1.6-0.6c2.8-0.1,5.7-0.2,8.8-0.3s6.2-0.2,9.2-0.3c3.1-0.1,6.1-0.2,9-0.2c2.9-0.1,5.5-0.1,8-0.2
			c1.2,0,1.9,0.6,1.9,2c0,0.8-0.2,1.4-0.5,1.8c-0.4,0.3-0.8,0.5-1.4,0.6c-2.5,0.1-5.2,0.3-8.2,0.4c-2.9,0.1-5.9,0.2-9,0.4
			C281.7,324.3,278.7,324.4,275.6,324.5z M300.3,314.9c-0.4,0.3-0.8,0.5-1.4,0.6c-1.8,0.1-3.9,0.3-6.3,0.4c-2.5,0.1-5,0.2-7.6,0.3
			c-2.6,0.1-5.1,0.2-7.5,0.2c-2.4,0.1-4.4,0.1-6.1,0.1c-1,0-1.9-0.3-2.6-0.9c-0.7-0.6-1.1-1.5-1.1-2.7c-0.1-2.2-0.1-4.2-0.1-6
			c0-1.8,0.1-3.9,0.1-6c0-0.7,0.1-1.3,0.4-1.6c0.2-0.3,0.7-0.5,1.4-0.5c2.3,0,4.7-0.1,7.2-0.1c2.5-0.1,5-0.1,7.6-0.1
			c2.5,0,5.1-0.1,7.5-0.1c2.5,0,4.9,0,7.2,0c0.6,0,1,0.2,1.3,0.5c0.3,0.3,0.4,0.8,0.4,1.6c0,0.8-0.1,1.4-0.3,1.8
			c-0.2,0.4-0.7,0.6-1.4,0.6c-0.9,0-2,0.1-3.3,0.1c-1.3,0-2.8,0.1-4.4,0.1c-1.6,0-3.2,0-4.9,0.1c-1.7,0-3.3,0.1-5,0.1
			c-1.6,0-3.1,0.1-4.5,0.1c-1.4,0-2.6,0.1-3.5,0.1c0,1.3-0.1,2.5-0.1,3.8c0,1.3,0,2.6-0.1,4c0,0.4,0.2,0.7,0.5,0.7
			c0.9,0,2,0,3.3-0.1c1.3,0,2.8-0.1,4.3-0.1c1.6,0,3.2-0.1,4.8-0.1c1.7-0.1,3.3-0.1,4.8-0.1c1.6,0,3-0.1,4.3-0.1
			c1.3-0.1,2.4-0.1,3.3-0.1c0.7,0,1.2,0.1,1.5,0.3c0.3,0.2,0.5,0.7,0.5,1.6C300.9,313.9,300.7,314.5,300.3,314.9z M299.5,332.9
			c-0.1,1.5-0.1,2.9-0.2,4.2c-0.1,0.7-0.2,1.2-0.5,1.6c-0.3,0.3-0.8,0.5-1.6,0.5c-1.4,0.1-3.1,0.1-4.9,0.2c-1.8,0.1-3.7,0.1-5.6,0.2
			c-1.9,0.1-3.8,0.1-5.8,0.2c-1.9,0.1-3.7,0.1-5.2,0.2c0,0.5,0.1,1,0.1,1.2c0,0.3,0,0.7,0.1,1.3c1.6,0,3.4,0,5.3-0.1
			c1.9,0,3.9-0.1,5.9-0.1c2,0,4,0,6-0.1c2,0,3.9-0.1,5.6-0.1c0.5,0,0.9,0.2,1.1,0.5s0.3,0.8,0.3,1.4c0,0.6-0.1,1.2-0.3,1.6
			c-0.2,0.5-0.6,0.7-1.2,0.7c-4.2,0.2-8.3,0.3-12.4,0.4s-8.2,0.1-12.4,0.1c-1.2,0-2.1-0.2-2.5-0.7c-0.5-0.5-0.7-1.3-0.8-2.5
			c-0.1-1.1-0.1-2.1-0.2-3.1c-0.1-0.9-0.1-2-0.1-3.1c0-0.4,0.1-0.7,0.2-1c0.1-0.3,0.4-0.4,0.8-0.4c1.4-0.1,3.1-0.1,5.2-0.2
			c2-0.1,4.2-0.1,6.4-0.2c2.2-0.1,4.3-0.1,6.4-0.2c2-0.1,3.8-0.1,5.1-0.2c0-0.6,0.1-1.2,0.1-1.7c0-0.5,0-1.1,0-1.7
			c-1.6,0.1-3.4,0.1-5.4,0.2c-2,0.1-4.1,0.1-6.3,0.2c-2.1,0.1-4.2,0.1-6.3,0.2c-2,0.1-3.9,0.1-5.4,0.2c-0.6,0-1-0.1-1.2-0.4
			c-0.2-0.3-0.4-0.9-0.4-1.7c0-0.8,0.1-1.4,0.4-1.8c0.3-0.3,0.7-0.5,1.3-0.6c1.9-0.1,4.1-0.2,6.3-0.3c2.3-0.1,4.6-0.2,7-0.3
			c2.4-0.1,4.8-0.2,7.2-0.2c2.4-0.1,4.7-0.1,6.9-0.2c0.4,0,0.7,0.1,0.9,0.3c0.2,0.2,0.3,0.6,0.3,1.1
			C299.7,330,299.6,331.4,299.5,332.9z"/>
		<path style="fill:#231815;" d="M338.5,308c0.6,0,1.2-0.1,1.7-0.1c0-1,0-2,0-3c0-1,0-2,0.1-3c0-1,0.2-1.7,0.6-2.1
			c0.4-0.4,1.2-0.6,2.2-0.6c1.9,0,2.8,1,2.8,2.9c0,1.7-0.1,3.6-0.1,5.6c0,2,0,3.9-0.1,5.8c0,1.9-0.1,3.6-0.2,5.2
			c-0.1,1.6-0.2,2.9-0.3,3.9c-0.1,1.1-0.4,1.7-0.9,2.1s-1.1,0.5-1.8,0.4c-0.8,0-1.4-0.2-1.8-0.5s-0.7-1-0.7-2.1c0-0.9-0.1-2.3-0.1-4
			c0-1.7,0-3.6,0.1-5.8c-1.1,0.1-2.3,0.1-3.7,0.2c-1.4,0.1-2.6,0.1-3.6,0.2c-0.4,3.6-1.8,6.4-4.3,8.3c-2.5,1.9-5.5,2.9-9.2,3
			c-4.2,0.1-7.5-0.9-9.9-3c-2.4-2.2-3.7-5.5-3.7-10c0-1.9,0.3-3.6,0.9-5.2c0.6-1.6,1.5-3,2.6-4.3c1.2-1.2,2.6-2.2,4.3-2.9
			c1.7-0.7,3.6-1.1,5.8-1.2c3.7-0.1,6.7,0.7,9,2.6c2.3,1.8,3.8,4.4,4.4,7.7c0.5,0,1.1-0.1,1.8-0.1c0.7,0,1.3-0.1,2-0.1
			C337.2,308.1,337.8,308,338.5,308z M322.5,319.1c1-0.4,1.9-1,2.6-1.8c0.7-0.7,1.3-1.6,1.7-2.7c0.4-1,0.6-2.2,0.6-3.5
			c0-1.4-0.2-2.6-0.6-3.7c-0.4-1.1-1-1.9-1.7-2.7c-0.7-0.7-1.6-1.3-2.6-1.6c-1-0.3-2-0.5-3.2-0.5c-1.2,0-2.4,0.3-3.3,0.7
			c-1,0.5-1.8,1.1-2.5,1.8c-0.7,0.8-1.2,1.7-1.6,2.7s-0.6,2.2-0.6,3.4c0,2.8,0.7,4.9,2.1,6.3c1.4,1.3,3.3,2,5.7,2
			C320.4,319.7,321.5,319.5,322.5,319.1z M341.3,333.2c0,0.5,0,0.9,0,1.3c1.5,1.4,3,2.7,4.4,4c1.4,1.3,2.8,2.4,4,3.3
			c0.4,0.3,0.7,0.7,1,1.1c0.3,0.5,0.2,1.1-0.2,1.7c-0.4,0.7-0.9,1.1-1.3,1.3c-0.4,0.2-1,0.1-1.6-0.3c-0.6-0.4-1.3-1-2.1-1.6
			c-0.7-0.6-1.5-1.2-2.3-1.9c-0.8-0.6-1.5-1.3-2.3-1.9c-0.7-0.6-1.4-1.2-2.1-1.7c-0.6,0.6-1.3,1.2-2,2c-0.8,0.7-1.5,1.4-2.3,2.2
			c-0.8,0.7-1.6,1.4-2.3,2c-0.7,0.6-1.4,1.2-1.9,1.6c-1.2,0.9-2.2,0.7-3.1-0.4c-0.8-1.1-0.8-2,0.1-2.7c0.2-0.2,0.4-0.4,0.7-0.6
			c0.2-0.2,0.5-0.5,0.8-0.7c-0.8-0.6-1.6-1.3-2.5-1.9c-0.8-0.7-1.5-1.2-2.1-1.7c-0.6,0.6-1.3,1.3-2,2c-0.7,0.7-1.4,1.4-2.1,2.2
			c-0.7,0.7-1.4,1.4-2.1,2c-0.7,0.7-1.3,1.2-1.9,1.6c-0.6,0.5-1.2,0.7-1.7,0.6c-0.5-0.1-1-0.5-1.5-1c-0.4-0.5-0.6-1-0.6-1.4
			c0-0.4,0.2-0.8,0.7-1.3c1-1.1,2.2-2.3,3.6-3.8c1.4-1.4,2.8-2.9,4.1-4.4c0-0.3,0-0.6,0-1s0-0.9,0-1.3c0-0.5,0-0.9-0.1-1.3
			c0-0.4-0.1-0.8-0.1-1.1c0-0.8,0.1-1.5,0.6-1.9c0.4-0.5,1.2-0.7,2.3-0.8c1.2-0.1,2.1,0.1,2.5,0.4c0.4,0.4,0.6,1,0.6,2
			c0,0.6,0,1.3,0,2.2c0,0.8,0,1.6-0.1,2.4c0.8,0.7,1.7,1.5,2.7,2.3c1,0.8,1.9,1.5,2.9,2.2c0.6-0.6,1.3-1.2,1.9-1.8
			c0.6-0.6,1.2-1.2,1.7-1.8c0-0.3,0-0.6,0-1.1c0-0.5,0-1,0-1.6c0-0.6,0-1.1-0.1-1.6c0-0.5-0.1-1-0.1-1.3c0-0.8,0.1-1.5,0.6-1.9
			c0.4-0.5,1.2-0.7,2.3-0.8c1.2-0.1,2.1,0.1,2.5,0.4c0.4,0.4,0.6,1,0.6,2c0,0.3,0,0.7,0,1.1c0,0.5,0,0.9,0,1.4
			C341.3,332.2,341.3,332.7,341.3,333.2z"/>
		<path style="fill:#231815;" d="M381.9,313.9c1.3,0,2.4-0.1,3.4-0.2c0.1-2,0.1-3.9,0.2-5.9c0.1-2,0.1-3.9,0.2-5.9
			c0-1,0.3-1.7,0.7-2.1c0.4-0.4,1.2-0.6,2.3-0.6c1.8,0,2.8,1,2.8,2.9c0,3-0.1,6.1-0.2,9.2c-0.1,3.2-0.2,6.3-0.3,9.5
			s-0.2,6.3-0.4,9.3s-0.3,6-0.6,8.7c-0.1,1.1-0.4,1.8-0.8,2.2c-0.5,0.4-1.1,0.6-1.9,0.5c-0.8-0.1-1.4-0.4-1.7-0.9
			c-0.4-0.5-0.6-1.3-0.6-2.5c0-6.4,0.1-12.9,0.2-19.5c-1,0.1-2.1,0.1-3.4,0.2c-1.2,0-2.3,0.1-3.4,0.2c-0.2,2-0.6,3.8-1.4,5.4
			c-0.7,1.6-1.7,2.9-2.9,4c-1.2,1.1-2.6,1.9-4.2,2.5c-1.6,0.6-3.4,0.9-5.3,0.9c-4.3,0.1-7.7-1-10.1-3.4s-3.7-6-3.7-10.8
			c0-2,0.3-3.9,0.9-5.6c0.6-1.7,1.5-3.3,2.6-4.6s2.6-2.4,4.3-3.2c1.7-0.8,3.7-1.2,5.9-1.3c1.9,0,3.6,0.2,5.1,0.7
			c1.5,0.5,2.9,1.2,4.1,2.2s2.1,2.2,2.9,3.6c0.7,1.4,1.3,3,1.5,4.7C379.4,314,380.6,314,381.9,313.9z M368,326.1
			c1.1-0.5,2-1.1,2.7-2c0.7-0.8,1.3-1.8,1.7-3c0.4-1.1,0.6-2.4,0.6-3.8c0-3-0.8-5.3-2.3-7c-1.5-1.7-3.5-2.5-6-2.4
			c-1.3,0-2.5,0.3-3.6,0.8c-1,0.5-1.9,1.2-2.6,2c-0.7,0.9-1.2,1.9-1.6,3c-0.4,1.2-0.5,2.4-0.5,3.8c0,3.1,0.7,5.4,2.1,6.9
			c1.4,1.5,3.4,2.3,6,2.3C365.9,326.8,367,326.6,368,326.1z"/>
		<path style="fill:#231815;" d="M404.8,338.6c0,1.1-0.4,1.9-1.1,2.7c-0.7,0.7-1.6,1.1-2.6,1.1c-1,0-1.9-0.4-2.6-1.1
			c-0.7-0.7-1.1-1.6-1.1-2.7c0-1.1,0.4-2,1.1-2.7c0.7-0.7,1.6-1.1,2.6-1.1c1.1,0,1.9,0.4,2.6,1.1
			C404.4,336.6,404.8,337.5,404.8,338.6z"/>
	</g>
	<g>
		<path style="fill:#231815;" d="M1280.7,79.2c0.5,0.3,0.7,0.9,0.8,1.8c0.1,2.1,0.2,4.3,0.3,6.5s0.2,4.3,0.3,6.5
			c0.1,2.1,0.2,4.2,0.2,6.2c0.1,2,0.1,3.8,0.2,5.5c0,0.4,0.2,0.6,0.5,0.6c2.6-0.1,5.4-0.3,8.2-0.5c2.8-0.2,5.5-0.4,8.2-0.5
			c0.6,0,1.1,0.1,1.5,0.4c0.4,0.3,0.6,0.9,0.6,1.9c0,0.7-0.1,1.3-0.5,1.6c-0.3,0.4-0.8,0.6-1.2,0.7c-1.3,0.2-2.7,0.4-4.2,0.5
			c-1.5,0.2-3.1,0.4-4.7,0.5c-1.6,0.2-3.3,0.3-5,0.4c-1.7,0.1-3.3,0.2-4.9,0.2c-1.2,0-2.1-0.2-2.8-0.7c-0.7-0.5-1.1-1.4-1.2-2.5
			c-0.1-1-0.2-2.2-0.2-3.7c-0.1-1.4-0.2-3-0.3-4.6c-0.1-1.6-0.2-3.3-0.3-5.1c-0.1-1.7-0.2-3.5-0.3-5.1c-0.1-1.7-0.1-3.2-0.2-4.6
			c-0.1-1.4-0.1-2.7-0.2-3.7c0-0.4,0-0.7,0.1-1c0-0.3,0.1-0.5,0.3-0.8c0.2-0.2,0.5-0.4,0.9-0.5c0.4-0.1,0.9-0.2,1.5-0.3
			C1279.5,78.7,1280.3,78.9,1280.7,79.2z M1312.9,98c-0.6,0-1.2,0-1.8,0c-0.1,3.2-0.3,6.3-0.5,9.4c-0.2,3.1-0.3,6-0.5,8.8
			c-0.1,1.1-0.4,1.8-0.8,2.2c-0.5,0.4-1.1,0.6-1.9,0.5c-0.8-0.1-1.4-0.4-1.7-0.9c-0.4-0.5-0.6-1.3-0.6-2.5c0-12.2,0.2-24.2,0.6-36.2
			c0-1,0.3-1.7,0.7-2.1c0.4-0.4,1.2-0.6,2.3-0.6c1.8,0,2.8,1,2.8,2.9c0,2.2-0.1,4.4-0.1,6.7c0,2.3-0.1,4.6-0.2,6.9
			c0.5,0,1.1,0,1.7,0s1.2,0,1.8,0c0.6,0,1.1,0,1.5,0c0.4,0,0.8,0,1,0c0.7,0,1.3,0.2,1.6,0.5c0.3,0.3,0.5,0.9,0.5,1.7
			c0,0.8-0.1,1.4-0.3,1.9c-0.2,0.5-0.7,0.8-1.4,0.8c-0.3,0-0.7,0.1-1.2,0.1c-0.5,0-1.1,0-1.7,0S1313.5,98,1312.9,98z"/>
		<path style="fill:#231815;" d="M1330,106.4c-3,0.1-5.9,0.1-8.6,0.2c-1.3,0.1-2-0.7-2-2.3c0-0.8,0.2-1.4,0.5-1.8
			c0.3-0.4,0.8-0.6,1.6-0.7c2.8-0.1,5.7-0.2,8.8-0.3c3.1-0.1,6.2-0.2,9.2-0.3c3.1-0.1,6.1-0.2,9-0.2c2.9-0.1,5.5-0.1,8-0.2
			c0.7,0,1.1,0.2,1.4,0.6c0.3,0.4,0.4,1,0.4,1.6c0,0.8-0.2,1.4-0.5,1.8c-0.4,0.4-0.8,0.6-1.4,0.6c-2.5,0.1-5.2,0.3-8.2,0.4
			c-2.9,0.1-5.9,0.2-9,0.4S1333.1,106.3,1330,106.4z M1323.4,76.8c0.4-0.1,0.9-0.2,1.5-0.3c1.1-0.1,1.9,0.1,2.3,0.4s0.7,0.9,0.7,1.8
			c0,0.9,0.1,2,0.1,3.2c0,1.2,0,2.5,0.1,3.7c0,1.2,0.1,2.3,0.1,3.4c0,1,0,1.8,0,2.3c0,0.4,0.2,0.6,0.5,0.6c0.9,0,2-0.1,3.3-0.1
			c1.3-0.1,2.7-0.1,4.2-0.2c1.5-0.1,3.1-0.1,4.7-0.2c1.6-0.1,3.2-0.1,4.7-0.2c1.5-0.1,2.9-0.1,4.2-0.2c1.3-0.1,2.4-0.1,3.3-0.2
			c0.6,0,1.1,0.1,1.5,0.4c0.4,0.3,0.6,0.9,0.6,1.9c0,0.7-0.1,1.3-0.5,1.6c-0.3,0.3-0.8,0.6-1.2,0.6c-0.8,0.1-2,0.2-3.3,0.4
			c-1.4,0.1-2.9,0.3-4.5,0.4c-1.6,0.1-3.4,0.2-5.1,0.3c-1.8,0.1-3.5,0.2-5.2,0.3c-1.7,0.1-3.3,0.2-4.8,0.2s-2.8,0.1-3.8,0.1
			c-1.2,0-2.1-0.3-2.8-0.9c-0.7-0.6-1.1-1.5-1.2-2.6c-0.2-2.1-0.3-4.4-0.4-6.7c-0.1-2.3-0.2-4.9-0.3-7.5c0-0.4,0-0.7,0.1-1
			c0-0.3,0.2-0.5,0.3-0.8C1322.7,77.1,1323,76.9,1323.4,76.8z M1353.9,120.6c0,0.8-0.2,1.3-0.6,1.7c-0.4,0.3-0.9,0.5-1.4,0.6
			c-1.8,0.1-3.7,0.3-5.8,0.4s-4.2,0.2-6.4,0.3c-2.2,0.1-4.3,0.1-6.3,0.2c-2,0.1-3.9,0.1-5.5,0.1c-0.8,0-1.5-0.3-2-0.9
			c-0.5-0.6-0.8-1.4-0.8-2.3c-0.1-1.7-0.2-3.3-0.3-4.8c-0.1-1.5-0.1-2.8-0.1-3.9c0-0.8,0.2-1.4,0.6-1.7c0.4-0.3,1.1-0.5,2.1-0.5
			c1-0.1,1.8,0,2.3,0.3c0.5,0.3,0.8,0.9,0.8,1.7c0,1.2,0.1,2.3,0.1,3.4c0,1.1,0,2.1,0.1,3.1c0,0.4,0.2,0.7,0.5,0.7
			c1.3,0,2.9-0.1,4.8-0.1s3.7-0.1,5.6-0.2c1.9-0.1,3.8-0.1,5.6-0.2c1.8-0.1,3.4-0.1,4.7-0.1c0.7,0,1.2,0.2,1.5,0.5
			C1353.7,119.1,1353.9,119.7,1353.9,120.6z"/>
	</g>
	<g>
		<path style="fill:#231815;" d="M1522,120.9c-0.9,1.8-2,3.2-3.4,4.4c-0.6,0.5-1.1,0.7-1.5,0.7c-0.4-0.1-0.7-0.3-0.9-0.6
			c-0.2-0.2-0.3-0.5-0.3-0.7c0-0.3,0.2-0.6,0.6-0.9c0.5-0.4,1-0.9,1.5-1.5c0.5-0.6,0.9-1.2,1.1-1.7c0.2-0.5,0.2-1,0.1-1.4
			c-0.1-0.4-0.4-0.7-1-0.8c-0.6-0.1-1.1-0.5-1.5-1.1c-0.4-0.6-0.6-1.3-0.6-2.1c0-1,0.3-1.8,0.9-2.4c0.6-0.6,1.5-1,2.6-1
			c1.1-0.1,2,0.2,2.7,0.9c0.7,0.7,1,1.6,1,2.8C1523.3,117.3,1522.9,119.1,1522,120.9z"/>
	</g>
	<g>
		<path style="fill:#231815;" d="M1643.9,120.9c-0.9,1.8-2,3.2-3.4,4.4c-0.6,0.5-1.1,0.7-1.5,0.7c-0.4-0.1-0.7-0.3-0.9-0.6
			c-0.2-0.2-0.3-0.5-0.3-0.7c0-0.3,0.2-0.6,0.6-0.9c0.5-0.4,1-0.9,1.5-1.5c0.5-0.6,0.9-1.2,1.1-1.7c0.2-0.5,0.2-1,0.1-1.4
			c-0.1-0.4-0.4-0.7-1-0.8c-0.6-0.1-1.1-0.5-1.5-1.1c-0.4-0.6-0.6-1.3-0.6-2.1c0-1,0.3-1.8,0.9-2.4c0.6-0.6,1.5-1,2.6-1
			c1.1-0.1,2,0.2,2.7,0.9c0.7,0.7,1,1.6,1,2.8C1645.3,117.3,1644.9,119.1,1643.9,120.9z"/>
	</g>
	<g>
		<path style="fill:#231815;" d="M1473.3,232.2c2.2-0.1,4.4-0.2,6.6-0.3c2.2-0.1,4.3-0.2,6.4-0.2c0.7,0,1.1,0.1,1.4,0.5
			c0.3,0.4,0.4,0.9,0.4,1.6c0,0.8-0.2,1.4-0.5,1.8c-0.4,0.4-0.8,0.6-1.4,0.7c-5.1,0.4-10.2,0.7-15.5,1c-5.3,0.3-10.6,0.5-16.1,0.7
			c-1.3,0-2-0.8-2-2.5c0-0.8,0.2-1.4,0.5-1.8c0.3-0.4,0.8-0.6,1.6-0.6c2.2-0.1,4.4-0.2,6.6-0.3c2.2-0.1,4.3-0.2,6.5-0.3V225
			c-1.6,0.1-3.2,0.1-4.8,0.2c-1.6,0.1-3.2,0.1-4.8,0.2c-0.8,0-1.5,0-2-0.1c-0.5-0.1-1-0.3-1.3-0.5c-0.3-0.2-0.6-0.6-0.7-1
			s-0.3-1-0.3-1.6c-0.1-0.6-0.1-1.3-0.1-2.1c0-0.8,0-1.7-0.1-2.6c0-0.9-0.1-1.8-0.1-2.7c0-0.9,0-1.7,0-2.5c0-0.5,0.1-0.9,0.3-1.2
			s0.5-0.5,1-0.5c0.9-0.1,2-0.2,3.4-0.2c1.4-0.1,2.8-0.2,4.4-0.3c1.6-0.1,3.2-0.2,4.9-0.3c1.7-0.1,3.4-0.2,5-0.3
			c1.6-0.1,3.1-0.2,4.5-0.3c1.4-0.1,2.6-0.2,3.6-0.2c0-0.4,0-0.9,0-1.6s0-1.3,0-2c0-0.7,0-1.4,0-2.1c0-0.7,0-1.2,0-1.6
			c-1.1,0-2.4,0.1-3.8,0.1c-1.4,0-3,0.1-4.6,0.1c-1.6,0.1-3.3,0.1-5,0.2c-1.7,0.1-3.3,0.1-4.9,0.2s-3,0.1-4.3,0.1
			c-1.3,0-2.4,0.1-3.3,0.1c-0.5,0-0.9-0.2-1.1-0.5c-0.2-0.3-0.3-1-0.3-1.9c0-0.9,0.1-1.5,0.4-1.9c0.3-0.3,0.7-0.5,1.4-0.6
			c2.4-0.1,4.8-0.2,7.4-0.2c2.6-0.1,5.1-0.2,7.7-0.3c2.6-0.1,5.1-0.2,7.7-0.2s5-0.1,7.3-0.1c0.8,0,1.3,0.5,1.3,1.6
			c0,0.8,0,1.8,0,2.9c0,1.1,0,2.2-0.1,3.4c0,1.2-0.1,2.3-0.1,3.4c0,1.1,0,2.1-0.1,3c0,0.7-0.2,1.2-0.5,1.6c-0.3,0.3-0.9,0.6-1.7,0.6
			c-1,0.1-2.2,0.2-3.5,0.2c-1.4,0.1-2.8,0.2-4.4,0.3c-1.6,0.1-3.1,0.2-4.8,0.3s-3.2,0.2-4.7,0.3c-1.5,0.1-2.9,0.2-4.2,0.3
			c-1.3,0.1-2.4,0.2-3.2,0.2c0,0.4,0,0.8,0,1.3c0,0.5,0,0.9,0,1.4c0,0.5,0,0.9,0.1,1.4s0,0.8,0,1.1c0,0.5,0.2,0.7,0.7,0.7
			c1.9-0.1,3.9-0.1,5.9-0.2c2.1-0.1,4.2-0.2,6.4-0.2c2.2-0.1,4.3-0.2,6.5-0.3c2.2-0.1,4.3-0.2,6.3-0.3c0.6,0,1.1,0.1,1.4,0.4
			c0.3,0.3,0.5,0.9,0.5,1.8c0,1.4-0.5,2.1-1.6,2.1c-2,0.1-4,0.3-5.9,0.4c-1.9,0.1-3.9,0.2-5.8,0.4V232.2z"/>
		<path style="fill:#231815;" d="M1526.1,231.8c2.2-0.1,4.4-0.2,6.6-0.3c2.2-0.1,4.3-0.2,6.4-0.2c0.7,0,1.1,0.2,1.4,0.6
			c0.3,0.4,0.4,1,0.4,1.6c0,0.8-0.2,1.4-0.5,1.8c-0.4,0.4-0.8,0.6-1.4,0.7c-5.1,0.4-10.2,0.7-15.5,1c-5.3,0.3-10.6,0.5-16.1,0.7
			c-1.3,0-2-0.8-2-2.5c0-0.8,0.2-1.4,0.5-1.8c0.3-0.4,0.8-0.6,1.6-0.7c2.2-0.1,4.4-0.2,6.6-0.3c2.2-0.1,4.3-0.2,6.5-0.3v-7
			c-2.1-0.1-4-0.6-5.8-1.3c-1.7-0.7-3.2-1.6-4.5-2.9c-1.3-1.2-2.2-2.7-2.9-4.4c-0.7-1.7-1-3.7-1-5.9c0-2,0.4-3.9,1.2-5.7
			c0.8-1.8,1.9-3.4,3.3-4.7c1.4-1.3,3.1-2.4,5.1-3.3c2-0.8,4.3-1.3,6.7-1.3c2.4-0.1,4.7,0.2,6.7,1c2,0.7,3.7,1.7,5.2,3
			c1.4,1.3,2.5,2.9,3.3,4.8c0.8,1.9,1.2,3.9,1.2,6.1c0,2-0.3,3.8-1,5.4c-0.6,1.6-1.5,3-2.7,4.2s-2.5,2.2-4.1,3
			c-1.6,0.8-3.3,1.4-5.2,1.7V231.8z M1530.3,217.3c1-0.9,1.8-1.9,2.3-3.1c0.5-1.2,0.8-2.5,0.8-3.9c0-1.5-0.3-2.8-0.8-4.1
			c-0.6-1.2-1.3-2.2-2.3-3.1c-1-0.8-2.1-1.5-3.4-1.9c-1.3-0.5-2.7-0.7-4.2-0.6c-1.6,0-3,0.3-4.4,0.9c-1.3,0.5-2.5,1.3-3.4,2.2
			s-1.7,1.9-2.2,3.1c-0.5,1.2-0.8,2.5-0.8,3.8c0,1.5,0.3,2.9,0.8,4.1c0.5,1.2,1.3,2.2,2.2,3c0.9,0.8,2,1.4,3.3,1.8
			c1.3,0.4,2.7,0.6,4.3,0.6c1.6,0,3-0.3,4.4-0.8C1528.2,218.8,1529.3,218.1,1530.3,217.3z"/>
		<path style="fill:#231815;" d="M1567.8,220c-0.1,0.8-0.4,1.4-0.9,1.8c-0.5,0.4-1.1,0.5-1.9,0.4c-1.5-0.1-2.2-0.9-2.3-2.3
			c0-0.4,0-1.1,0-2.1c0-1,0-2.1,0-3.3s0-2.6,0-4c0-1.4,0-2.8,0.1-4.1c0-1.3,0-2.5,0-3.5s0-1.8,0-2.4c-1.3,0.1-2.7,0.1-4.1,0.2
			c-1.4,0-2.9,0.1-4.4,0.1c-1.5,0-3,0-4.5,0.1c-1.5,0-2.9,0-4.3,0c-1.3,0-2-0.8-2-2.4c0-0.8,0.2-1.3,0.6-1.7
			c0.4-0.3,0.9-0.5,1.4-0.6c3.5-0.2,7.1-0.3,10.8-0.4s7.2-0.2,10.5-0.2c0.7,0,1.2,0.2,1.4,0.5c0.2,0.3,0.4,0.9,0.4,1.6
			c0,0.7,0,1.7,0,2.9s0,2.5-0.1,3.9c0,1.4,0,2.9-0.1,4.4c0,1.5-0.1,3-0.1,4.4s-0.1,2.7-0.2,3.9C1568,218.4,1567.9,219.3,1567.8,220z
			 M1579,241.7c-0.1,0.8-0.4,1.4-0.9,1.8c-0.5,0.4-1.1,0.5-1.9,0.4c-0.8-0.1-1.3-0.3-1.6-0.7c-0.3-0.4-0.4-0.9-0.5-1.6
			c0-0.7-0.1-1.5-0.1-2.5c0-1,0-2.1,0-3.2c0-1.1,0-2.2,0.1-3.4c0-1.1,0-2.1,0-2.9c-1.3,0.1-2.9,0.1-4.7,0.2
			c-1.9,0.1-3.8,0.1-5.8,0.2s-3.9,0.1-5.8,0.2c-1.9,0.1-3.5,0.1-4.9,0.1c-1.3,0-2-0.8-2-2.4c0-0.8,0.2-1.3,0.6-1.7s0.9-0.5,1.4-0.6
			c1.7-0.1,3.7-0.2,5.9-0.3c2.2-0.1,4.5-0.2,6.7-0.3c2.3-0.1,4.5-0.2,6.6-0.2s4-0.1,5.7-0.1c0.7,0,1.2,0.2,1.4,0.5
			c0.2,0.3,0.4,0.9,0.4,1.6c0,1.1,0,2.3-0.1,3.6c0,1.3-0.1,2.6-0.1,3.9c-0.1,1.3-0.1,2.6-0.2,3.9
			C1579.2,239.5,1579.1,240.6,1579,241.7z M1580.6,202.8c0,1.4,0,2.8-0.1,4.3c1,0,2-0.1,3-0.1c1,0,1.7,0,2,0c0.7,0,1.3,0.2,1.6,0.5
			c0.3,0.3,0.5,0.9,0.5,1.7c0,0.8-0.1,1.4-0.3,1.9c-0.2,0.5-0.7,0.8-1.4,0.8c-0.5,0-1.2,0.1-2.3,0.1c-1.1,0-2.1,0-3.2,0
			c0,1.8-0.1,3.4-0.2,4.9c-0.1,1.5-0.1,2.7-0.2,3.6c-0.1,1.1-0.4,1.7-0.9,2.1c-0.5,0.3-1.1,0.5-1.8,0.4c-0.8,0-1.4-0.2-1.8-0.5
			c-0.4-0.3-0.7-1-0.7-2.1c0-0.8-0.1-2.1-0.1-3.7c0-1.6,0-3.4,0.1-5.4c0-2,0.1-4.1,0.1-6.3c0-2.2,0-4.3,0.1-6.4c0-1,0.2-1.7,0.6-2.1
			c0.4-0.4,1.2-0.6,2.2-0.6c1.9,0,2.8,1,2.8,2.9C1580.6,200.1,1580.6,201.4,1580.6,202.8z"/>
		<path style="fill:#231815;" d="M1604.7,195.7c0,0.7,0,1.5,0.1,2.3c2.2-0.1,4.2-0.1,6.1-0.2c1.9-0.1,3.4-0.1,4.5-0.2
			c0.7,0,1.2,0.1,1.6,0.4c0.3,0.3,0.5,0.8,0.6,1.7c0,0.8-0.1,1.4-0.5,1.7c-0.3,0.3-0.9,0.5-1.6,0.6c-0.2,0-0.5,0-0.9,0
			c-0.4,0-0.8,0-1.2,0.1c-0.4,0-0.9,0-1.3,0.1c-0.4,0-0.8,0-1.1,0c0.7,0.4,1.3,0.8,1.8,1.4c0.5,0.6,0.9,1.3,1.2,2
			c0.3,0.8,0.5,1.6,0.7,2.5c0.1,0.9,0.2,1.8,0.3,2.7c0,1.6-0.2,3.2-0.7,4.6c-0.5,1.4-1.3,2.6-2.3,3.7c-1,1.1-2.4,1.9-3.9,2.6
			c-1.6,0.6-3.4,1-5.4,1.1c-2,0.1-3.9-0.1-5.4-0.6s-2.9-1.2-3.9-2.2s-1.8-2.2-2.4-3.6c-0.5-1.4-0.8-3-0.8-4.7c0-0.9,0.1-1.7,0.3-2.6
			c0.2-0.9,0.5-1.7,0.8-2.5c0.4-0.8,0.8-1.4,1.3-2c0.5-0.6,1-1.1,1.6-1.4c-0.4,0-0.8,0.1-1.3,0.1c-0.5,0-1,0-1.5,0.1
			c-0.5,0-1,0-1.4,0.1c-0.4,0-0.8,0-1,0c-0.6,0-1.1-0.1-1.5-0.4c-0.4-0.3-0.6-0.8-0.6-1.7c0-0.9,0.1-1.5,0.5-1.9
			c0.4-0.4,0.8-0.6,1.4-0.7c1.1-0.1,2.6-0.1,4.5-0.2c1.9-0.1,3.9-0.2,6-0.3c0-0.8-0.1-1.5-0.1-2.1c0-0.7,0-1.2,0-1.7
			c0-0.8,0.1-1.5,0.5-1.9c0.4-0.5,1.1-0.7,2.2-0.8c1.3-0.1,2.1,0.1,2.4,0.4c0.4,0.4,0.5,1,0.6,2
			C1604.7,194.4,1604.7,195,1604.7,195.7z M1602.2,218.3c2.4-0.1,4.2-0.8,5.4-2.3c1.2-1.5,1.8-3.4,1.7-6c-0.1-2.5-0.8-4.4-2-5.7
			c-1.3-1.3-3-2-5.1-1.9c-1.1,0.1-2.1,0.3-3,0.8c-0.8,0.4-1.6,1-2.1,1.7c-0.6,0.7-1,1.6-1.3,2.5c-0.3,1-0.5,2-0.5,3.1
			c0,2.4,0.7,4.3,1.9,5.7C1598.4,217.7,1600.1,218.4,1602.2,218.3z M1626.7,238.5c-0.6,1.3-1.4,2.5-2.5,3.5s-2.5,1.8-4.1,2.3
			c-1.6,0.6-3.4,0.9-5.4,1c-4.1,0.2-7.3-0.7-9.5-2.6c-2.2-1.9-3.4-4.5-3.4-7.9c0-1.5,0.3-2.8,0.8-4.2c0.5-1.3,1.3-2.5,2.4-3.5
			c1.1-1,2.4-1.8,3.9-2.5c1.6-0.6,3.4-1,5.5-1.1c2-0.1,3.8,0.1,5.4,0.5c1.6,0.4,3,1.1,4.1,2c1.1,0.9,2,2,2.6,3.4
			c0.6,1.3,1,2.9,1,4.6C1627.5,235.7,1627.2,237.2,1626.7,238.5z M1620,238.9c0.7-0.6,1.2-1.3,1.5-2.1c0.4-0.8,0.5-1.7,0.5-2.7
			c-0.1-2-0.8-3.6-2.3-4.7c-1.4-1.1-3.2-1.6-5.3-1.4c-1.1,0.1-2.1,0.3-3,0.6c-0.9,0.3-1.7,0.8-2.3,1.4s-1.1,1.3-1.5,2.1
			c-0.3,0.8-0.5,1.7-0.5,2.6c0,2,0.7,3.6,2.1,4.7s3.1,1.6,5.2,1.5c1.2,0,2.2-0.2,3.2-0.6C1618.6,240,1619.4,239.5,1620,238.9z
			 M1622.1,208.5c-1.1,0.1-2.1,0.1-2.9,0.1c-0.8,0-1.4,0-1.7,0c-0.7,0-1.2-0.2-1.5-0.6c-0.3-0.4-0.4-1-0.5-1.8
			c0-1.6,0.6-2.4,1.8-2.4c0.4,0,1,0,1.8-0.1c0.8-0.1,1.9-0.1,3-0.2c0-0.8,0.1-1.7,0.1-2.5c0-0.8,0-1.6,0.1-2.4c0-1,0.2-1.7,0.6-2.1
			c0.4-0.4,1.2-0.6,2.2-0.6c1.9,0,2.8,1,2.8,2.9c0,1.7-0.1,3.7-0.1,5.9c0,2.2,0,4.3-0.1,6.4c0,2.1-0.1,4.1-0.2,5.8
			c-0.1,1.8-0.2,3.2-0.3,4.2c-0.1,1.1-0.4,1.7-0.9,2.1c-0.5,0.3-1.1,0.5-1.8,0.4c-0.8,0-1.4-0.2-1.8-0.5c-0.4-0.3-0.7-1-0.7-2.1
			c0-0.4-0.1-1.1-0.1-1.9c0-0.9,0-1.7,0-2.5c-1.1,0-2.1,0.1-2.9,0.1c-0.8,0-1.4,0-1.6,0c-0.7,0-1.2-0.2-1.5-0.6
			c-0.3-0.4-0.4-1-0.5-1.8c0-1.6,0.6-2.4,1.8-2.4c0.3,0,0.8,0,1.7-0.1c0.8,0,1.8-0.1,3-0.2V208.5z"/>
		<path style="fill:#231815;" d="M1643.8,222.1c-3,0.1-5.9,0.1-8.6,0.2c-1.3,0.1-2-0.7-2-2.3c0-0.8,0.2-1.4,0.5-1.7
			c0.3-0.3,0.8-0.5,1.6-0.6c2.8-0.1,5.7-0.2,8.8-0.3c3.1-0.1,6.2-0.2,9.2-0.3c3.1-0.1,6.1-0.2,9-0.2c2.9-0.1,5.5-0.1,8-0.2
			c1.2,0,1.9,0.6,1.9,2c0,0.8-0.2,1.4-0.5,1.8c-0.4,0.3-0.8,0.5-1.4,0.6c-2.5,0.1-5.2,0.3-8.2,0.4c-2.9,0.1-5.9,0.2-9,0.4
			C1649.9,222,1646.9,222,1643.8,222.1z M1644,239.2c1.6,0,3.4,0,5.3-0.1c1.9,0,3.9-0.1,5.9-0.1c2,0,4,0,6-0.1c2,0,3.9-0.1,5.6-0.1
			c0.5,0,0.9,0.2,1.1,0.5c0.2,0.3,0.3,0.8,0.3,1.4c0,0.6-0.1,1.2-0.3,1.6c-0.2,0.5-0.6,0.7-1.2,0.7c-4.2,0.2-8.3,0.3-12.4,0.4
			c-4.1,0.1-8.2,0.1-12.4,0.1c-1.2,0-2.1-0.2-2.5-0.7c-0.5-0.5-0.7-1.3-0.8-2.5c-0.1-1.1-0.1-2.1-0.2-2.9c-0.1-0.9-0.1-1.8-0.1-2.9
			c0-0.4,0.1-0.7,0.2-1c0.1-0.3,0.4-0.4,0.8-0.4c1.4-0.1,3.1-0.1,5.2-0.2c2-0.1,4.2-0.1,6.4-0.2c2.2-0.1,4.3-0.1,6.4-0.2
			c2-0.1,3.8-0.1,5.1-0.2c0-0.6,0.1-1.1,0.1-1.5c0-0.4,0-0.9,0-1.6c-1.6,0.1-3.4,0.1-5.4,0.2c-2,0.1-4.1,0.1-6.3,0.2
			c-2.1,0.1-4.2,0.1-6.3,0.2c-2,0.1-3.9,0.1-5.4,0.2c-0.6,0-1-0.1-1.2-0.4c-0.2-0.3-0.4-0.9-0.4-1.7c0-0.8,0.1-1.4,0.4-1.8
			c0.3-0.3,0.7-0.5,1.3-0.6c1.9-0.1,4.1-0.2,6.3-0.3c2.3-0.1,4.6-0.2,7-0.3c2.4-0.1,4.8-0.2,7.2-0.2c2.4-0.1,4.7-0.1,6.9-0.2
			c0.4,0,0.7,0.1,0.9,0.3c0.2,0.2,0.3,0.6,0.3,1.1c0,1.3,0,2.7-0.1,4.1c-0.1,1.4-0.2,2.8-0.2,4.1c-0.1,0.7-0.2,1.2-0.5,1.6
			c-0.3,0.3-0.8,0.5-1.6,0.5c-1.4,0.1-3.1,0.1-4.9,0.2c-1.8,0.1-3.7,0.1-5.6,0.2c-1.9,0.1-3.8,0.1-5.8,0.2c-1.9,0.1-3.7,0.1-5.2,0.2
			L1644,239.2z M1665.2,208.3c-0.7,1.4-1.6,2.6-2.9,3.6c-1.3,0.9-2.8,1.7-4.6,2.2c-1.8,0.5-3.8,0.8-6,0.8c-4.1,0-7.3-0.9-9.6-2.7
			c-2.4-1.9-3.6-4.5-3.6-7.9c0-1.6,0.3-3,1-4.4c0.7-1.4,1.6-2.6,2.8-3.6c1.2-1,2.7-1.9,4.5-2.5c1.8-0.6,3.8-0.9,6-0.9
			c1.9,0,3.7,0.2,5.4,0.7c1.6,0.5,3,1.2,4.2,2.1c1.2,0.9,2.1,2,2.8,3.3c0.7,1.3,1,2.8,1,4.4C1666.2,205.2,1665.8,206.8,1665.2,208.3
			z M1658.4,208.5c1.4-1.2,2.1-2.9,2-5c-0.1-1.9-0.9-3.4-2.3-4.5c-1.4-1.1-3.3-1.6-5.7-1.6c-1.3,0-2.5,0.2-3.5,0.5
			c-1,0.3-1.9,0.8-2.6,1.4c-0.7,0.6-1.2,1.3-1.6,2.1c-0.4,0.8-0.6,1.7-0.6,2.6c0,1.9,0.7,3.5,2.1,4.6c1.4,1.1,3.3,1.7,5.8,1.6
			C1654.8,210.2,1656.9,209.6,1658.4,208.5z"/>
	</g>
	<g>
		<path style="fill:#231815;" d="M1401.3,284.9c1.2,0,1.8,0.6,1.8,1.8c0.1,3.5,0.1,7.2,0.1,11c0,3.8,0,7.5-0.1,10.9
			c0,0.9-0.2,1.6-0.5,1.9c-0.3,0.3-0.8,0.5-1.5,0.6c-0.6,0-1.4,0.1-2.4,0.2c-1,0.1-2.2,0.1-3.4,0.2c-1.2,0.1-2.5,0.1-3.9,0.2
			c-1.4,0.1-2.7,0.1-3.9,0.2c-1.2,0-2.3,0.1-3.3,0.1s-1.8,0.1-2.3,0.1c-1,0-1.8-0.3-2.4-1c-0.6-0.7-0.9-1.5-1-2.6
			c-0.1-1.3-0.1-2.8-0.2-4.6c0-1.8-0.1-3.6-0.1-5.5c0-1.9-0.1-3.8-0.1-5.7c0-1.9,0-3.5,0-4.9c0-1.6,0.7-2.4,2.1-2.5
			c0.6,0,1.5-0.1,2.6-0.1c1.1,0,2.3-0.1,3.6-0.1c1.3,0,2.7-0.1,4.1-0.1c1.4,0,2.8,0,4.1-0.1c1.3,0,2.5-0.1,3.7-0.1
			C1399.7,284.9,1400.6,284.9,1401.3,284.9z M1397.1,306.5c0.5,0,0.7-0.3,0.7-0.8c0-0.9,0-2,0-3.4c0-1.3,0-2.8-0.1-4.3
			c0-1.5-0.1-3-0.1-4.4c0-1.5-0.1-2.8-0.1-3.9l-13.5,0.4c0,1.1,0.1,2.3,0.1,3.8c0,1.4,0,2.9,0,4.4c0,1.5,0,3,0,4.5
			c0,1.5,0,2.9,0.1,4.2L1397.1,306.5z M1415.2,329c0,0.8-0.2,1.3-0.6,1.7c-0.4,0.3-0.9,0.5-1.4,0.6c-1.8,0.1-3.6,0.3-5.6,0.4
			s-3.9,0.2-5.9,0.3c-2,0.1-3.9,0.1-5.8,0.2s-3.7,0.1-5.3,0.1c-0.8,0-1.5-0.3-2-0.9c-0.5-0.6-0.8-1.4-0.8-2.3
			c-0.1-1.1-0.1-2.1-0.2-3c-0.1-0.9-0.1-1.7-0.1-2.5c0-0.8,0-1.6-0.1-2.5c0-0.8,0-1.8,0-2.8c0-0.8,0.2-1.4,0.6-1.7
			c0.4-0.3,1.1-0.5,2.1-0.5c1-0.1,1.8,0,2.3,0.3c0.5,0.3,0.8,0.9,0.8,1.7c0,0.6,0,1.3,0,2.1c0,0.8,0,1.6,0,2.4c0,0.8,0,1.6,0,2.3
			s0,1.3,0,1.9c0,0.4,0.2,0.7,0.5,0.7c1.3,0,2.9-0.1,4.6-0.1c1.7-0.1,3.4-0.1,5.2-0.2s3.5-0.1,5.1-0.2c1.7-0.1,3.2-0.1,4.5-0.1
			c0.7,0,1.2,0.2,1.5,0.5C1415,327.6,1415.2,328.2,1415.2,329z M1415.1,291.9c0,1.5,0,3-0.1,4.6c0.9,0,1.8-0.1,2.7-0.1
			c0.9,0,1.5,0,1.8,0c0.7,0,1.3,0.2,1.6,0.5c0.3,0.3,0.5,0.9,0.5,1.7c0,0.8-0.1,1.4-0.3,1.9s-0.7,0.8-1.4,0.8c-0.4,0-1.1,0.1-2,0.1
			c-0.9,0-1.9,0-2.9,0c0,1.4-0.1,2.7-0.1,4.1c0,1.3,0,2.6-0.1,3.7c0,1.1-0.1,2.1-0.1,3c-0.1,0.9-0.1,1.6-0.1,2.1
			c-0.1,1.1-0.4,1.7-0.9,2.1c-0.5,0.3-1.1,0.5-1.8,0.4c-0.8,0-1.4-0.2-1.8-0.5s-0.7-1-0.7-2.1c0-0.5-0.1-1.4-0.1-2.6
			c0-1.2,0-2.5,0-4c0-1.5,0-3.1,0-4.9c0-1.7,0-3.5,0-5.3c0-1.8,0-3.5,0.1-5.2c0-1.7,0-3.2,0.1-4.5c0-1,0.2-1.7,0.6-2.1
			c0.4-0.4,1.2-0.6,2.2-0.6c1.9,0,2.8,1,2.8,2.9C1415.1,289.1,1415.1,290.5,1415.1,291.9z"/>
		<path style="fill:#231815;" d="M1432.7,310.4c-3,0.1-5.9,0.1-8.6,0.2c-1.3,0.1-2-0.7-2-2.3c0-0.8,0.2-1.4,0.5-1.7
			c0.3-0.3,0.8-0.5,1.6-0.6c2.8-0.1,5.7-0.2,8.8-0.3c3.1-0.1,6.2-0.2,9.2-0.3s6.1-0.2,9-0.2c2.9-0.1,5.5-0.1,8-0.2
			c1.2,0,1.9,0.6,1.9,2c0,0.8-0.2,1.4-0.5,1.8c-0.4,0.3-0.8,0.5-1.4,0.6c-2.5,0.1-5.2,0.3-8.2,0.4c-2.9,0.1-5.9,0.2-9,0.4
			S1435.7,310.3,1432.7,310.4z M1457.4,300.7c-0.4,0.3-0.8,0.5-1.4,0.6c-1.8,0.1-3.9,0.3-6.3,0.4c-2.5,0.1-5,0.2-7.6,0.3
			c-2.6,0.1-5.1,0.2-7.5,0.2c-2.4,0.1-4.4,0.1-6.1,0.1c-1,0-1.9-0.3-2.6-0.9c-0.7-0.6-1.1-1.5-1.1-2.7c-0.1-2.2-0.1-4.2-0.1-6
			c0-1.8,0.1-3.9,0.1-6c0-0.7,0.1-1.3,0.4-1.6c0.2-0.3,0.7-0.5,1.4-0.5c2.3,0,4.7-0.1,7.2-0.1c2.5-0.1,5-0.1,7.6-0.1
			c2.5,0,5.1-0.1,7.5-0.1c2.5,0,4.9,0,7.2,0c0.6,0,1,0.2,1.3,0.5c0.3,0.3,0.4,0.8,0.4,1.6c0,0.8-0.1,1.4-0.3,1.8
			c-0.2,0.4-0.7,0.6-1.4,0.6c-0.9,0-2,0.1-3.3,0.1c-1.3,0-2.8,0.1-4.4,0.1c-1.6,0-3.2,0-4.9,0.1c-1.7,0-3.3,0.1-5,0.1
			c-1.6,0-3.1,0.1-4.5,0.1c-1.4,0-2.6,0.1-3.5,0.1c0,1.3-0.1,2.5-0.1,3.8c0,1.3,0,2.6-0.1,4c0,0.4,0.2,0.7,0.5,0.7
			c0.9,0,2,0,3.3-0.1c1.3,0,2.8-0.1,4.3-0.1c1.6,0,3.2-0.1,4.8-0.1s3.3-0.1,4.8-0.1c1.6,0,3-0.1,4.3-0.1c1.3-0.1,2.4-0.1,3.3-0.1
			c0.7,0,1.2,0.1,1.5,0.3c0.3,0.2,0.5,0.7,0.5,1.6C1458,299.8,1457.8,300.4,1457.4,300.7z M1456.6,318.8c-0.1,1.5-0.1,2.9-0.2,4.2
			c-0.1,0.7-0.2,1.2-0.5,1.6c-0.3,0.3-0.8,0.5-1.6,0.5c-1.4,0.1-3.1,0.1-4.9,0.2c-1.8,0.1-3.7,0.1-5.6,0.2c-1.9,0.1-3.8,0.1-5.8,0.2
			c-1.9,0.1-3.7,0.1-5.2,0.2c0,0.5,0.1,1,0.1,1.2c0,0.3,0,0.7,0.1,1.3c1.6,0,3.4,0,5.3-0.1s3.9-0.1,5.9-0.1c2,0,4,0,6-0.1
			s3.9-0.1,5.6-0.1c0.5,0,0.9,0.2,1.1,0.5s0.3,0.8,0.3,1.4c0,0.6-0.1,1.2-0.3,1.6c-0.2,0.5-0.6,0.7-1.2,0.7
			c-4.2,0.2-8.3,0.3-12.4,0.4c-4.1,0.1-8.2,0.1-12.4,0.1c-1.2,0-2.1-0.2-2.5-0.7c-0.5-0.5-0.7-1.3-0.8-2.5c-0.1-1.1-0.1-2.1-0.2-3.1
			c-0.1-0.9-0.1-2-0.1-3.1c0-0.4,0.1-0.7,0.2-1c0.1-0.3,0.4-0.4,0.8-0.4c1.4-0.1,3.1-0.1,5.2-0.2c2-0.1,4.2-0.1,6.4-0.2
			c2.2-0.1,4.3-0.1,6.4-0.2c2-0.1,3.8-0.1,5.1-0.2c0-0.6,0.1-1.2,0.1-1.7c0-0.5,0-1.1,0-1.7c-1.6,0.1-3.4,0.1-5.4,0.2
			c-2,0.1-4.1,0.1-6.3,0.2c-2.1,0.1-4.2,0.1-6.3,0.2c-2,0.1-3.9,0.1-5.4,0.2c-0.6,0-1-0.1-1.2-0.4c-0.2-0.3-0.4-0.9-0.4-1.7
			c0-0.8,0.1-1.4,0.4-1.8c0.3-0.3,0.7-0.5,1.3-0.6c1.9-0.1,4.1-0.2,6.3-0.3c2.3-0.1,4.6-0.2,7-0.3c2.4-0.1,4.8-0.2,7.2-0.2
			c2.4-0.1,4.7-0.1,6.9-0.2c0.4,0,0.7,0.1,0.9,0.3c0.2,0.2,0.3,0.6,0.3,1.1C1456.8,315.8,1456.7,317.2,1456.6,318.8z"/>
		<path style="fill:#231815;" d="M1495.6,293.9c0.6,0,1.2-0.1,1.7-0.1c0-1,0-2,0-3c0-1,0-2,0.1-3c0-1,0.2-1.7,0.6-2.1
			c0.4-0.4,1.2-0.6,2.2-0.6c1.9,0,2.8,1,2.8,2.9c0,1.7-0.1,3.6-0.1,5.6c0,2,0,3.9-0.1,5.8c0,1.9-0.1,3.6-0.2,5.2
			c-0.1,1.6-0.2,2.9-0.3,3.9c-0.1,1.1-0.4,1.7-0.9,2.1c-0.5,0.3-1.1,0.5-1.8,0.4c-0.8,0-1.4-0.2-1.8-0.5s-0.7-1-0.7-2.1
			c0-0.9-0.1-2.3-0.1-4c0-1.7,0-3.6,0.1-5.8c-1.1,0.1-2.3,0.1-3.7,0.2c-1.4,0.1-2.6,0.1-3.6,0.2c-0.4,3.6-1.8,6.4-4.3,8.3
			s-5.5,2.9-9.2,3c-4.2,0.1-7.5-0.9-9.9-3c-2.4-2.2-3.7-5.5-3.7-10c0-1.9,0.3-3.6,0.9-5.2c0.6-1.6,1.5-3,2.6-4.3
			c1.2-1.2,2.6-2.2,4.3-2.9c1.7-0.7,3.6-1.1,5.8-1.2c3.7-0.1,6.7,0.7,9,2.6c2.3,1.8,3.8,4.4,4.4,7.7c0.5,0,1.1-0.1,1.8-0.1
			c0.7,0,1.3-0.1,2-0.1C1494.3,293.9,1494.9,293.9,1495.6,293.9z M1479.6,305c1-0.4,1.9-1,2.6-1.8c0.7-0.7,1.3-1.6,1.7-2.7
			c0.4-1,0.6-2.2,0.6-3.5c0-1.4-0.2-2.6-0.6-3.7c-0.4-1.1-1-1.9-1.7-2.7c-0.7-0.7-1.6-1.3-2.6-1.6c-1-0.3-2-0.5-3.2-0.5
			c-1.2,0-2.4,0.3-3.3,0.7c-1,0.5-1.8,1.1-2.5,1.8c-0.7,0.8-1.2,1.7-1.6,2.7c-0.4,1-0.6,2.2-0.6,3.4c0,2.8,0.7,4.9,2.1,6.3
			c1.4,1.3,3.3,2,5.7,2C1477.5,305.6,1478.6,305.4,1479.6,305z M1498.4,319.1c0,0.5,0,0.9,0,1.3c1.5,1.4,3,2.7,4.4,4
			c1.4,1.3,2.8,2.4,4,3.3c0.4,0.3,0.7,0.7,1,1.1c0.3,0.5,0.2,1.1-0.2,1.7c-0.4,0.7-0.9,1.1-1.3,1.3c-0.4,0.2-1,0.1-1.6-0.3
			c-0.6-0.4-1.3-1-2.1-1.6c-0.7-0.6-1.5-1.2-2.3-1.9c-0.8-0.6-1.5-1.3-2.3-1.9c-0.7-0.6-1.4-1.2-2.1-1.7c-0.6,0.6-1.3,1.2-2,2
			c-0.8,0.7-1.5,1.4-2.3,2.2c-0.8,0.7-1.6,1.4-2.3,2c-0.7,0.6-1.4,1.2-1.9,1.6c-1.2,0.9-2.2,0.7-3.1-0.4c-0.8-1.1-0.8-2,0.1-2.7
			c0.2-0.2,0.4-0.4,0.7-0.6c0.2-0.2,0.5-0.5,0.8-0.7c-0.8-0.6-1.6-1.3-2.5-1.9s-1.5-1.2-2.1-1.7c-0.6,0.6-1.3,1.3-2,2
			c-0.7,0.7-1.4,1.4-2.1,2.2s-1.4,1.4-2.1,2c-0.7,0.7-1.3,1.2-1.9,1.6c-0.6,0.5-1.2,0.7-1.7,0.6c-0.5-0.1-1-0.5-1.5-1
			c-0.4-0.5-0.6-1-0.6-1.4c0-0.4,0.2-0.8,0.7-1.3c1-1.1,2.2-2.3,3.6-3.8c1.4-1.4,2.8-2.9,4.1-4.4c0-0.3,0-0.6,0-1s0-0.9,0-1.3
			c0-0.5,0-0.9-0.1-1.3c0-0.4-0.1-0.8-0.1-1.1c0-0.8,0.2-1.5,0.6-1.9c0.4-0.5,1.2-0.7,2.3-0.8c1.2-0.1,2.1,0.1,2.5,0.4
			c0.4,0.4,0.6,1,0.6,2c0,0.6,0,1.3,0,2.2s0,1.6-0.1,2.4c0.8,0.7,1.7,1.5,2.7,2.3c1,0.8,1.9,1.5,2.9,2.2c0.6-0.6,1.3-1.2,1.9-1.8
			c0.6-0.6,1.2-1.2,1.7-1.8c0-0.3,0-0.6,0-1.1c0-0.5,0-1,0-1.6c0-0.6,0-1.1-0.1-1.6s-0.1-1-0.1-1.3c0-0.8,0.2-1.5,0.6-1.9
			s1.2-0.7,2.3-0.8c1.2-0.1,2.1,0.1,2.5,0.4c0.4,0.4,0.6,1,0.6,2c0,0.3,0,0.7,0,1.1c0,0.5,0,0.9,0,1.4
			C1498.4,318.1,1498.4,318.6,1498.4,319.1z"/>
		<path style="fill:#231815;" d="M1539,299.8c1.3,0,2.4-0.1,3.4-0.2c0.1-2,0.1-3.9,0.2-5.9c0.1-2,0.1-3.9,0.2-5.9
			c0-1,0.3-1.7,0.7-2.1c0.4-0.4,1.2-0.6,2.3-0.6c1.8,0,2.8,1,2.8,2.9c0,3-0.1,6.1-0.2,9.2c-0.1,3.2-0.2,6.3-0.3,9.5
			c-0.1,3.2-0.2,6.3-0.4,9.3c-0.2,3.1-0.3,6-0.6,8.7c-0.1,1.1-0.4,1.8-0.8,2.2c-0.5,0.4-1.1,0.6-1.9,0.5c-0.8-0.1-1.4-0.4-1.7-0.9
			c-0.4-0.5-0.6-1.3-0.6-2.5c0-6.4,0.1-12.9,0.2-19.5c-1,0.1-2.1,0.1-3.4,0.2c-1.2,0-2.3,0.1-3.4,0.2c-0.2,2-0.6,3.8-1.4,5.4
			c-0.7,1.6-1.7,2.9-2.9,4c-1.2,1.1-2.6,1.9-4.2,2.5c-1.6,0.6-3.4,0.9-5.3,0.9c-4.3,0.1-7.7-1-10.1-3.4c-2.4-2.4-3.7-6-3.7-10.8
			c0-2,0.3-3.9,0.9-5.6c0.6-1.7,1.5-3.3,2.6-4.6c1.2-1.3,2.6-2.4,4.3-3.2c1.7-0.8,3.7-1.2,5.9-1.3c1.9,0,3.6,0.2,5.1,0.7
			c1.5,0.5,2.9,1.2,4.1,2.2c1.2,1,2.1,2.2,2.9,3.6c0.7,1.4,1.3,3,1.5,4.7C1536.5,299.9,1537.7,299.9,1539,299.8z M1525.1,311.9
			c1.1-0.5,2-1.1,2.7-2c0.7-0.8,1.3-1.8,1.7-3s0.6-2.4,0.6-3.8c0-3-0.8-5.3-2.3-7c-1.5-1.7-3.5-2.5-6-2.4c-1.3,0-2.5,0.3-3.6,0.8
			c-1,0.5-1.9,1.2-2.6,2c-0.7,0.9-1.2,1.9-1.6,3c-0.4,1.2-0.5,2.4-0.5,3.8c0,3.1,0.7,5.4,2.1,6.9c1.4,1.5,3.4,2.3,6,2.3
			C1522.9,312.7,1524.1,312.4,1525.1,311.9z"/>
		<path style="fill:#231815;" d="M1561.9,324.5c0,1.1-0.4,1.9-1.1,2.7c-0.7,0.7-1.6,1.1-2.7,1.1c-1,0-1.9-0.4-2.6-1.1
			c-0.7-0.7-1.1-1.6-1.1-2.7c0-1.1,0.4-2,1.1-2.7c0.7-0.7,1.6-1.1,2.6-1.1c1.1,0,1.9,0.4,2.7,1.1
			C1561.5,322.5,1561.9,323.4,1561.9,324.5z"/>
	</g>
</g>
</svg>
