
<svg xmlns="http://www.w3.org/2000/svg" version="1.1" xmlns:xlink="http://www.w3.org/1999/xlink" preserveAspectRatio="none" x="0px" y="0px" width="1280px" height="720px" viewBox="0 0 1280 720">
<defs>
<g id="Layer0_0_FILL">
<path fill="#1E1E1E" stroke="none" d="
M 794.7 390.3
L 807.45 390.3 797 415.85
Q 796.85 416.3 797 416.4 797.15 416.55 797.75 416.55
L 801 416.55
Q 801.4 416.55 801.55 416.45 801.7 416.3 801.9 416
L 812.45 389.95
Q 812.7 389.65 812.7 389.3
L 812.7 386.9
Q 812.7 386.45 812.55 386.3 812.4 386.15 811.7 386.15
L 794.7 386.15
Q 794 386.15 794 386.8
L 794 389.6
Q 794 389.95 794.2 390.1 794.4 390.3 794.7 390.3
M 773.1 386.1
Q 772.5 386.1 772.4 386.25 772.25 386.35 772.25 386.8
L 772.05 401.55
Q 772.05 402.9 773.6 402.25 774.85 401.8 776.25 401.55 777.65 401.25 778.95 401.25 782.25 401.25 783.65 402.8 785.1 404.3 785.1 406.9 785.1 409.6 783.3 411.1 781.6 412.65 778.9 412.65 778.2 412.65 777.35 412.55 776.55 412.5 775.7 412.35 774.85 412.15 774.05 411.95 773.25 411.7 772.7 411.4 771.85 411 771.85 411.7
L 771.85 414.95
Q 771.85 415.25 771.85 415.4 771.9 415.5 772.15 415.7 772.8 416 773.75 416.2 774.65 416.45 775.6 416.6 776.55 416.7 777.35 416.8 778.2 416.85 778.6 416.85 780.9 416.85 782.95 416.2 785.05 415.55 786.45 414.25 789.6 411.45 789.6 406.4 789.6 404.3 788.85 402.65 788.1 400.95 786.8 399.75 785.5 398.6 783.75 397.95 782 397.35 780 397.35 778.05 397.35 776.45 397.7
L 776.6 390.3 787.75 390.3
Q 788 390.3 788.15 390.1 788.25 389.95 788.25 389.7
L 788.25 386.65
Q 788.25 386.45 788.15 386.3 788 386.1 787.75 386.1
L 773.1 386.1
M 763.95 389.35
Q 761.4 385.8 756.7 385.8 754.4 385.8 752.6 386.6 750.75 387.4 749.45 388.8 748.15 390.2 747.45 392.1 746.8 394 746.8 396.2 746.8 398.5 747.5 400.3 748.15 402.1 749.45 403.4 750.75 404.7 752.55 405.4 754.3 406.1 756.45 406.1 757.2 406.1 758 405.9 758.8 405.7 759.55 405.35 760.3 405 760.95 404.55 761.55 404.1 761.9 403.6 761.65 405.5 761.05 407.2 760.45 408.85 759.45 410.1 758.45 411.35 757 412.05 755.55 412.75 753.45 412.75 752.05 412.75 750.9 412.65 749.7 412.55 748.65 412.1 748.1 411.9 748 412.45
L 747.9 415.65
Q 747.85 416.05 748.2 416.15 749.15 416.5 750.55 416.7 752 416.9 753.15 416.9 756.85 416.9 759.4 415.55 762 414.25 763.55 412 765.15 409.75 765.85 406.75 766.5 403.7 766.5 400.35 766.5 392.9 763.95 389.35
M 756.65 389.75
Q 757.75 389.75 758.7 390.3 759.65 390.8 760.35 391.7 761.05 392.6 761.45 393.8 761.85 395 761.85 396.35 761.85 398.8 760.4 400.4 758.9 401.95 756.3 401.95 753.85 401.95 752.55 400.35 751.2 398.75 751.2 396 751.2 393.1 752.7 391.45 754.25 389.75 756.65 389.75
M 736.45 415.95
Q 736.45 417.25 737.35 418.15 738.25 419.05 739.55 419.05 740.8 419.05 741.7 418.15 742.55 417.25 742.55 415.95 742.55 414.65 741.7 413.8 740.8 412.9 739.55 412.9 738.25 412.9 737.35 413.8 736.45 414.65 736.45 415.95
M 728.55 386.75
Q 728.55 386.4 728.5 386.3 728.45 386.15 728.15 386.15
L 724.5 386.15
Q 724.1 386.15 724 386.25 723.9 386.35 723.7 386.7
L 711.3 405.3
Q 711.15 405.45 711 405.75 710.8 406.05 710.8 406.3
L 710.8 409.3
Q 710.8 409.6 710.95 409.65 711.1 409.75 711.45 409.75
L 724.25 409.75 724.25 415.85
Q 724.25 416.25 724.4 416.4 724.55 416.55 725 416.55
L 727.9 416.55
Q 728.3 416.55 728.4 416.4 728.55 416.3 728.55 415.85
L 728.55 409.75 732.25 409.75
Q 732.6 409.75 732.75 409.65 732.9 409.55 732.9 409.15
L 732.9 406.25
Q 732.9 405.85 732.75 405.75 732.6 405.65 732.25 405.65
L 728.55 405.65 728.55 386.75
M 724.25 405.65
L 715.65 405.65 724.25 392.6 724.25 405.65
M 574.15 387.9
Q 573.75 388.1 573.6 388.35 573.5 388.5 573.6 388.7
L 574.15 391.75
Q 574.25 392.1 574.55 392.15 574.85 392.15 575.2 391.95 577 390.9 578.5 390.45 580.05 390 581.7 390 583.45 390 584.6 391.25 585.8 392.5 585.8 394.4 585.8 396.1 584.2 398.7 582.6 401.35 579.25 405.3
L 573.15 412.55
Q 572.95 412.85 572.75 413.15 572.6 413.5 572.6 413.8
L 572.6 416.1
Q 572.6 416.6 573.35 416.6
L 590.4 416.6
Q 590.95 416.6 590.95 415.9
L 590.95 413.1
Q 590.95 412.5 590.4 412.5
L 578.65 412.5
Q 579.65 411.35 580.65 410.2 581.65 409 582.5 407.9 583.6 406.6 585 405 586.35 403.35 587.55 401.6 588.75 399.8 589.55 397.95 590.35 396.1 590.35 394.3 590.35 392.2 589.65 390.6 588.95 389 587.8 387.95 586.65 386.9 585 386.35 583.4 385.8 581.45 385.8 579.6 385.8 577.6 386.45 575.65 387.1 574.15 387.9
M 551.2 387.15
Q 550.8 387.35 550.65 387.55 550.5 387.7 550.6 387.95
L 550.95 390.9
Q 551.05 391.25 551.25 391.35 551.45 391.45 551.95 391.25 552.55 391 553.35 390.75 554.15 390.5 554.95 390.35 555.75 390.15 556.5 390.05 557.2 389.95 557.75 389.95 558.6 389.95 559.55 390.15 560.5 390.35 561.35 390.85 562.15 391.3 562.7 392.1 563.2 392.85 563.2 393.85 563.2 395.2 562.4 396.1 561.6 397.05 560.4 397.65 559.25 398.25 558 398.5 556.75 398.75 555.9 398.75
L 554 398.75
Q 553.65 398.75 553.55 398.85 553.45 398.9 553.45 399.3
L 553.45 402.25
Q 553.45 402.55 553.55 402.65 553.65 402.75 554 402.75
L 555.95 402.75
Q 557.9 402.75 559.25 403.15 560.65 403.5 561.55 404.2 562.4 404.85 562.85 405.7 563.25 406.55 563.25 407.5 563.25 410.15 561.3 411.5 560.65 411.95 559.9 412.2 559.1 412.5 558.25 412.6 557.4 412.7 556.5 412.65 555.6 412.6 554.8 412.55 553.7 412.45 552.65 412.15 551.6 411.85 550.55 411.55 550 411.3 549.8 411.45 549.6 411.55 549.55 411.9
L 549.2 414.95
Q 549.15 415.3 549.35 415.45 549.5 415.65 549.9 415.75 551.35 416.3 553.1 416.6 554.85 416.9 556.6 416.9 558.9 416.9 561.05 416.3 563.2 415.75 564.7 414.5 566.2 413.25 567.05 411.5 567.85 409.7 567.85 407.6 567.85 405.4 566.5 403.6 565.15 401.85 562.5 400.7 563.6 400.2 564.55 399.45 565.5 398.7 566.2 397.7 566.9 396.75 567.3 395.7 567.65 394.6 567.65 393.5 567.65 391.5 566.8 390 565.95 388.5 564.6 387.6 563.3 386.7 561.55 386.25 559.8 385.8 558 385.8 556.3 385.8 554.65 386.15 552.95 386.55 551.2 387.15
M 535.15 386.25
Q 534.95 386.3 534.9 386.4
L 528.75 392.05
Q 528.55 392.25 528.55 392.45 528.5 392.7 528.65 392.85
L 530.45 395
Q 530.6 395.15 530.85 395.1 531.1 395.1 531.35 394.95
L 534.3 392.35 534.3 416.05
Q 534.3 416.55 534.85 416.55
L 538.05 416.55
Q 538.55 416.55 538.55 416.05
L 538.55 387.25
Q 538.55 386.45 538.4 386.3 538.3 386.15 537.6 386.15
L 535.5 386.15
Q 535.35 386.15 535.15 386.25
M 515.35 415.95
Q 515.35 417.25 516.25 418.15 517.15 419.05 518.45 419.05 519.7 419.05 520.6 418.15 521.45 417.25 521.45 415.95 521.45 414.65 520.6 413.8 519.7 412.9 518.45 412.9 517.15 412.9 516.25 413.8 515.35 414.65 515.35 415.95
M 493.1 386.25
Q 492.95 386.35 492.95 386.8
L 492.75 401.55
Q 492.75 402.9 494.3 402.25 495.55 401.8 496.95 401.55 498.35 401.25 499.65 401.25 502.95 401.25 504.35 402.8 505.8 404.3 505.8 406.9 505.8 409.6 504 411.1 502.3 412.65 499.6 412.65 498.9 412.65 498.05 412.55 497.25 412.5 496.4 412.35 495.55 412.15 494.75 411.95 493.95 411.7 493.4 411.4 492.55 411 492.55 411.7
L 492.55 414.95
Q 492.55 415.25 492.55 415.4 492.6 415.5 492.85 415.7 493.5 416 494.45 416.2 495.35 416.45 496.3 416.6 497.25 416.7 498.05 416.8 498.9 416.85 499.3 416.85 501.6 416.85 503.65 416.2 505.75 415.55 507.15 414.25 510.3 411.45 510.3 406.4 510.3 404.3 509.55 402.65 508.8 400.95 507.5 399.75 506.2 398.6 504.45 397.95 502.7 397.35 500.7 397.35 498.75 397.35 497.15 397.7
L 497.3 390.3 508.45 390.3
Q 508.7 390.3 508.85 390.1 508.95 389.95 508.95 389.7
L 508.95 386.65
Q 508.95 386.45 508.85 386.3 508.7 386.1 508.45 386.1
L 493.8 386.1
Q 493.2 386.1 493.1 386.25 Z"/>
</g>

<g id="Layer0_1_MEMBER_0_FILL">
<path fill="#7A94C2" stroke="none" d="
M 29.05 -10
Q 29.05 -20 19.05 -20
L -26 -20
Q -36 -20 -36 -10
L -36 9.05
Q -36 19.05 -26 19.05
L 19.05 19.05
Q 29.05 19.05 29.05 9.05
L 29.05 -10 Z"/>
</g>

<g id="Layer0_5_FILL">
<path fill="#FFFFFF" stroke="none" d="
M 123.9 553.2
Q 123.7 553.3 123.6 553.45 123.5 553.65 123.45 553.9 123.4 554.1 123.4 554.35 123.4 554.65 123.45 554.85 123.5 555.05 123.6 555.2 123.7 555.4 123.9 555.5 124.1 555.55 124.4 555.55
L 126 555.55 126 561.1
Q 126 561.6 126.45 561.85 126.65 562 126.85 562.05 127.1 562.15 127.3 562.15 127.55 562.15 127.8 562.05 128.05 562 128.25 561.85 128.4 561.7 128.55 561.55 128.65 561.35 128.65 561.1
L 128.65 554.9
Q 128.65 554.5 128.55 554.2 128.4 553.85 128.2 553.6 128 553.4 127.65 553.25 127.35 553.15 126.95 553.15
L 124.4 553.15
Q 124.1 553.15 123.9 553.2
M 98.15 546.6
Q 98.15 546.4 98.1 546.15 98.1 545.95 98.1 545.75 98.05 545.4 97.85 545.15 97.7 545 97.55 544.9 97.35 544.8 97.2 544.7 97 544.65 96.75 544.6 96.45 544.55 96.15 544.55
L 93.95 544.55
Q 93.7 544.55 93.5 544.65 93.35 544.75 93.2 544.95 93.1 545.1 93 545.35 92.95 545.55 92.95 545.8 92.95 546.05 93 546.25 93.1 546.5 93.2 546.65 93.35 546.85 93.5 546.95 93.7 547.05 93.95 547.05
L 95.5 547.05
Q 95.45 547.55 95.4 548 95.35 548.5 95.25 548.95 95.2 549.45 95.1 549.9 95 550.35 94.85 550.75 94.75 551.2 94.6 551.6 94.45 552 94.3 552.4 94.1 552.75 93.85 553.1 93.6 553.4 93.3 553.7 93.1 553.9 93.05 554.1 92.95 554.3 92.95 554.55 92.95 554.75 93.05 554.95 93.15 555.15 93.3 555.3
L 93.25 555.3
Q 93.45 555.5 93.7 555.65 93.9 555.75 94.1 555.75 94.35 555.8 94.5 555.75 94.65 555.7 94.75 555.65 95.25 555.3 95.6 554.9 96 554.45 96.35 553.9 96.7 553.35 96.95 552.75 97.2 552.15 97.35 551.5 97.55 550.9 97.7 550.25 97.85 549.6 97.95 548.95 98.05 548.3 98.1 547.75 98.15 547.15 98.15 546.6
M 102.1 544.6
Q 101.85 544.55 101.55 544.55
L 99.6 544.55
Q 99.3 544.55 99.1 544.65 98.9 544.75 98.8 544.95 98.6 545.1 98.55 545.35 98.5 545.55 98.5 545.85 98.5 546.1 98.55 546.3 98.6 546.5 98.8 546.7 98.9 546.9 99.1 546.95 99.3 547.05 99.6 547.05
L 100.65 547.05
Q 100.6 547.65 100.55 548.2 100.5 548.8 100.4 549.35 100.35 549.9 100.2 550.45 100.1 551 99.95 551.5 99.85 552.05 99.65 552.55 99.5 553.05 99.3 553.5 99.05 553.95 98.8 554.4 98.5 554.8 98.2 555.2 98.05 555.45 98 555.65 97.95 555.9 98.05 556.1 98.15 556.35 98.25 556.5 98.4 556.7 98.55 556.8 98.8 556.95 99 557 99.25 557.1 99.45 557.1 99.7 557.15 99.85 557.1 100.05 557 100.15 556.85 100.6 556.35 100.95 555.8 101.35 555.3 101.65 554.7 102 554.1 102.2 553.5 102.45 552.9 102.6 552.25 102.85 551.55 103 550.9 103.15 550.2 103.25 549.5 103.35 548.8 103.4 548.05 103.45 547.35 103.45 546.6 103.45 546.4 103.45 546.2 103.4 545.95 103.4 545.8 103.4 545.6 103.35 545.45 103.3 545.3 103.2 545.15 103.05 545 102.9 544.9 102.75 544.8 102.55 544.7 102.4 544.65 102.1 544.6
M 116.4 553.9
Q 116.35 554.1 116.35 554.35 116.35 554.65 116.4 554.8 116.5 555 116.6 555.15 116.7 555.3 116.9 555.4 117.1 555.45 117.4 555.45
L 120.1 555.45 120.1 556.45 118.35 556.45
Q 117.5 556.45 116.95 556.75 116.65 556.95 116.55 557.2 116.4 557.5 116.4 557.9
L 116.4 560.9
Q 116.4 561.3 116.55 561.6 116.6 561.7 116.7 561.8 116.85 561.9 117 561.95 117.1 562 117.3 562.05 117.45 562.1 117.65 562.1 117.8 562.1 118 562.15 118.15 562.15 118.35 562.15 118.7 562.1 119 562.1 119.25 562.1 119.5 562.1 119.75 562.1 119.95 562.05 120.2 562.05 120.4 562.05 120.65 562 120.85 562 121.1 561.95 121.35 561.95 121.75 561.9 122.25 561.85
L 122.15 561.85
Q 122.4 561.8 122.65 561.7 122.85 561.6 122.95 561.45 123.05 561.25 123.1 561.05 123.15 560.8 123.1 560.55 123.05 560.3 122.95 560.15 122.85 559.95 122.7 559.8 122.55 559.65 122.35 559.6 122.15 559.55 121.85 559.55 121.4 559.65 121 559.7 120.6 559.75 120.25 559.75 119.85 559.8 119.45 559.85 119.05 559.85 118.6 559.85
L 118.6 558.75 120.5 558.75
Q 120.9 558.75 121.2 558.65 121.55 558.55 121.85 558.35 122.15 558.15 122.35 557.85 122.5 557.55 122.5 557.1
L 122.5 554.7
Q 122.5 554.3 122.35 554 122.15 553.7 121.85 553.5 121.55 553.3 121.2 553.25 120.9 553.15 120.5 553.15
L 117.4 553.15
Q 117.1 553.15 116.9 553.2 116.7 553.3 116.6 553.45 116.5 553.65 116.4 553.9
M 107.85 543.85
Q 107.85 543.55 107.75 543.35 107.6 543.15 107.4 543.05 106.95 542.85 106.55 542.85 106.25 542.85 106 542.9 105.8 542.95 105.6 543.05 105.4 543.15 105.3 543.35 105.2 543.55 105.2 543.85
L 105.2 561.6
Q 105.2 561.9 105.3 562.05 105.4 562.3 105.6 562.35 105.8 562.45 106 562.5 106.25 562.55 106.55 562.55 106.95 562.55 107.4 562.35 107.6 562.3 107.75 562.05 107.85 561.9 107.85 561.6
L 107.85 552.4 109.6 552.4
Q 109.95 552.4 110.15 552.3 110.4 552.2 110.5 552 110.6 551.8 110.65 551.55 110.75 551.35 110.75 551.1 110.75 550.85 110.65 550.65 110.6 550.4 110.5 550.2 110.4 550.05 110.15 549.95 109.95 549.85 109.6 549.85
L 107.85 549.85 107.85 543.85
M 125.9 543.5
Q 125.85 543.6 125.85 543.75
L 125.85 551.35
Q 125.85 551.5 125.9 551.6 125.9 551.7 126 551.8 126.05 551.9 126.1 552 126.2 552.1 126.3 552.15 126.4 552.2 126.5 552.25 126.65 552.3 126.75 552.3 126.9 552.3 127 552.35 127.15 552.35 127.3 552.35 127.55 552.35 127.8 552.3 128.05 552.25 128.25 552.15 128.45 552.05 128.55 551.85 128.65 551.65 128.65 551.35
L 128.65 548.9 130.55 548.9
Q 131.2 548.9 131.35 548.5 131.4 548.3 131.45 548.1 131.45 547.9 131.45 547.65 131.45 547.15 131.35 546.75 131.25 546.6 131.05 546.5 130.85 546.4 130.55 546.4
L 128.65 546.4 128.65 543.75
Q 128.65 543.15 128.25 542.95 128.05 542.85 127.8 542.8 127.55 542.75 127.3 542.75 127.15 542.75 127 542.75 126.9 542.8 126.75 542.8 126.65 542.85 126.5 542.85 126.4 542.9 126.3 542.95 126.2 543 126.1 543.1 126.05 543.15 126 543.25 125.9 543.35 125.9 543.5
M 123.5 544.2
Q 123.45 543.95 123.35 543.85 123.25 543.75 123.05 543.7 122.85 543.65 122.55 543.65
L 117.4 543.65
Q 117 543.65 116.65 543.65 116.35 543.65 116.1 543.7 115.85 543.7 115.6 543.8 115.4 543.85 115.25 543.95 115 544.1 114.9 544.3 114.75 544.45 114.7 544.7 114.65 544.95 114.6 545.25 114.55 545.55 114.55 545.95
L 114.55 549.75
Q 114.55 550.55 114.7 551 114.75 551.25 114.9 551.4 115 551.55 115.25 551.65 115.4 551.8 115.6 551.85 115.85 551.9 116.1 551.95 116.35 551.95 116.65 551.95 117 552 117.4 552 118.25 551.95 119.05 551.9 119.85 551.85 120.65 551.75 121.45 551.7 122.25 551.6 123.05 551.5 123.85 551.35 124.5 551.3 124.75 550.95 124.85 550.75 124.85 550.5 124.85 550.25 124.75 549.9 124.7 549.7 124.65 549.55 124.65 549.4 124.6 549.3 124.5 549.2 124.5 549.15 124.4 549.05 124.4 549 124.3 549 124.2 548.95 124.15 548.95 124 548.95 123.9 548.95 123.75 548.95 123.65 548.95 123.55 548.95 122.8 549.1 122.05 549.15 121.3 549.25 120.5 549.3 119.7 549.4 118.9 549.4 118.15 549.45 117.4 549.45 117.4 549.32265625 117.4 549
L 117.4 546.1 122.55 546.1
Q 122.85 546.1 123.05 546.05 123.25 546 123.35 545.85 123.45 545.7 123.5 545.45 123.55 545.2 123.55 544.9 123.55 544.5 123.5 544.2 Z"/>
</g>

<path id="Layer0_2_1_STROKES" stroke="#CCCCCC" stroke-width="3" stroke-linejoin="round" stroke-linecap="round" fill="none" d="
M 152.51716232299805 577.6
L 1191.4623939514158 577.6"/>

<path id="Layer0_3_1_STROKES" stroke="#CCCCCC" stroke-width="3" stroke-linejoin="round" stroke-linecap="round" fill="none" d="
M 152.51716232299805 637.6
L 1191.4623939514158 637.6"/>

<path id="Layer0_4_1_STROKES" stroke="#BBDECB" stroke-width="5" stroke-linejoin="round" stroke-linecap="round" fill="none" d="
M 429 286
L 846.95 286
Q 861.95 286 861.95 301
L 861.95 421
Q 861.95 436 846.95 436
L 429 436
Q 414 436 414 421
L 414 301
Q 414 286 429 286 Z"/>
</defs>

<g transform="matrix( 1, 0, 0, 1, 0,0) ">
<use xlink:href="#Layer0_0_FILL"/>
</g>

<g transform="matrix( 1, 0, 0, 1, 114.65,553.5) ">
<use xlink:href="#Layer0_1_MEMBER_0_FILL"/>
</g>

<g transform="matrix( 0.9332122802734375, 0, 0, 1, 53.55,-45.5) ">
<use xlink:href="#Layer0_2_1_STROKES" transform="matrix( 1.071563720703125, 0, 0, 1, -57.35,45.45) "/>
</g>

<g transform="matrix( 0.9332122802734375, 0, 0, 1, 53.55,14.5) ">
<use xlink:href="#Layer0_3_1_STROKES" transform="matrix( 1.071563720703125, 0, 0, 1, -57.35,-14.5) "/>
</g>

<g transform="matrix( 1, 0, 0, 1, 2.05,40) ">
<use xlink:href="#Layer0_4_1_STROKES"/>
</g>

<g transform="matrix( 1, 0, 0, 1, 0,0) ">
<use xlink:href="#Layer0_5_FILL"/>
</g>
</svg>
