
<svg xmlns="http://www.w3.org/2000/svg" version="1.1" xmlns:xlink="http://www.w3.org/1999/xlink" preserveAspectRatio="none" x="0px" y="0px" width="1280px" height="720px" viewBox="0 0 1280 720">
<defs>
<g id="Layer0_0_FILL">
<path fill="#FFFFFF" stroke="none" d="
M 1143.65 590.9
Q 1143.65 584.25 1140.7 580.55 1137 575.9 1128.65 575.9
L 1021.65 575.9
Q 1006.65 575.9 1006.65 590.9
L 1006.65 620.95
Q 1006.65 635.95 1021.65 635.95
L 1128.65 635.95
Q 1137 635.95 1140.7 631.3 1143.65 627.6 1143.65 620.95
L 1143.65 590.9 Z"/>

<path fill="#1E1E1E" stroke="none" d="
M 1179.9 604.2
Q 1180.8 605.4 1180.8 607.25
L 1180.8 621.1
Q 1180.8 621.3 1180.95 621.5 1181.1 621.65 1181.3 621.65
L 1184.65 621.65
Q 1184.8 621.65 1185 621.5 1185.1 621.35 1185.1 621.15
L 1185.1 606.75
Q 1185.1 603.1 1183 601.1 1180.95 599.05 1177.55 599.05 1175.5 599.05 1173.7 600 1171.9 600.95 1171 602.85 1170.25 601 1168.5 600 1166.8 599.05 1164.7 599.05 1163.15 599.05 1161.75 599.7 1160.35 600.35 1159.55 601.25
L 1159.6 599.85
Q 1159.6 599.55 1159.25 599.55
L 1155.85 599.55
Q 1155.2 599.55 1155.25 600.05 1155.35 600.85 1155.4 602.25 1155.45 603.65 1155.45 605.2
L 1155.45 621.1
Q 1155.45 621.3 1155.55 621.5 1155.7 621.65 1155.9 621.65
L 1159.25 621.65
Q 1159.7 621.65 1159.7 621.15
L 1159.7 608.15
Q 1159.7 605.75 1160.95 604.4 1162.2 603 1164.45 603 1168 603 1168 607.25
L 1168 621.1
Q 1168 621.3 1168.15 621.5 1168.3 621.65 1168.5 621.65
L 1171.85 621.65
Q 1172.3 621.65 1172.3 621.15
L 1172.3 609.55
Q 1172.3 608.15 1172.65 606.95 1173 605.75 1173.65 604.9 1174.25 604 1175.2 603.55 1176.15 603 1177.35 603 1179.05 603 1179.9 604.2 Z"/>
</g>

<path id="Layer0_0_1_STROKES" stroke="#DBDBDB" stroke-width="3" stroke-linejoin="round" stroke-linecap="round" fill="none" d="
M 1128.65 575.9
Q 1137 575.9 1140.7 580.55 1143.65 584.25 1143.65 590.9
L 1143.65 620.95
Q 1143.65 627.6 1140.7 631.3 1137 635.95 1128.65 635.95
L 1021.65 635.95
Q 1006.65 635.95 1006.65 620.95
L 1006.65 590.9
Q 1006.65 575.9 1021.65 575.9
L 1128.65 575.9 Z"/>
</defs>

<g transform="matrix( 1, 0, 0, 1, 0,0) ">
<use xlink:href="#Layer0_0_FILL"/>

<use xlink:href="#Layer0_0_1_STROKES"/>
</g>
</svg>
