
<svg xmlns="http://www.w3.org/2000/svg" version="1.1" xmlns:xlink="http://www.w3.org/1999/xlink" preserveAspectRatio="none" x="0px" y="0px" width="1280px" height="720px" viewBox="0 0 1280 720">
<defs>
<g id="gfmfmfm_1_Layer1_0_FILL">
<path fill="#ECF6D9" stroke="none" d="
M 54.05 39.7
L 54.05 -39.65 -57 39.7 54.05 39.7
M 54.05 39.7
L 163.6 39.7 163.6 -39.65 54.05 39.7
M 163.6 -39.65
L 54.05 -39.65 54.05 39.7 163.6 -39.65 Z"/>
</g>

<g id="gfmfmfm_1_Layer1_0_STROKES_1_FILL">
<path fill="#9BB352" stroke="none" d="
M 68.75 29.1
Q 68.5046875 28.7634765625 68.1 28.7 67.6873046875 28.646484375 67.35 28.9
L 64.95 30.7
Q 64.6140625 30.9458984375 64.55 31.35 64.49609375 31.76328125 64.75 32.1 64.9953125 32.4365234375 65.4 32.5 65.8126953125 32.5533203125 66.15 32.3
L 68.55 30.5
Q 68.8857421875 30.2541015625 68.95 29.85 69.00390625 29.43671875 68.75 29.1
M 71.1 28.4
Q 71.5126953125 28.4533203125 71.85 28.2
L 74.25 26.4
Q 74.5857421875 26.1541015625 74.65 25.75 74.70390625 25.33671875 74.45 25 74.2046875 24.6634765625 73.8 24.6 73.3873046875 24.546484375 73.05 24.8
L 70.65 26.6
Q 70.3140625 26.8458984375 70.25 27.25 70.19609375 27.66328125 70.45 28 70.6953125 28.3365234375 71.1 28.4
M 56.7 36.9
Q 56.301953125 36.8587890625 55.95 37.1
L 54.55 38.1
Q 54.321875 38.00234375 54.05 38 53.6392578125 38.003515625 53.35 38.3 53.053515625 38.5892578125 53.05 39
L 53.05 39.7
Q 53.0466796875 40.084765625 53.3 40.35 53.5634765625 40.6599609375 53.95 40.7 54.3216796875 40.7322265625 54.6 40.5
L 57.1 38.7
Q 57.4599609375 38.45625 57.5 38.05 57.5921875 37.651953125 57.35 37.3 57.1072265625 36.9900390625 56.7 36.9
M 59.7 36.6
Q 60.1126953125 36.6533203125 60.45 36.4
L 62.85 34.6
Q 63.1857421875 34.3541015625 63.25 33.95 63.30390625 33.53671875 63.05 33.2 62.8046875 32.8634765625 62.4 32.8 61.9873046875 32.746484375 61.65 33
L 59.25 34.8
Q 58.9140625 35.0458984375 58.85 35.45 58.79609375 35.86328125 59.05 36.2 59.2953125 36.5365234375 59.7 36.6
M 55.05 32
Q 55.046484375 31.5892578125 54.75 31.3 54.4607421875 31.003515625 54.05 31 53.6392578125 31.003515625 53.35 31.3 53.053515625 31.5892578125 53.05 32
L 53.05 35
Q 53.053515625 35.4107421875 53.35 35.7 53.6392578125 35.996484375 54.05 36 54.4607421875 35.996484375 54.75 35.7 55.046484375 35.4107421875 55.05 35
L 55.05 32
M 54.75 24.3
Q 54.4607421875 24.003515625 54.05 24 53.6392578125 24.003515625 53.35 24.3 53.053515625 24.5892578125 53.05 25
L 53.05 28
Q 53.053515625 28.4107421875 53.35 28.7 53.6392578125 28.996484375 54.05 29 54.4607421875 28.996484375 54.75 28.7 55.046484375 28.4107421875 55.05 28
L 55.05 25
Q 55.046484375 24.5892578125 54.75 24.3
M 54.05 17
Q 53.6392578125 17.003515625 53.35 17.3 53.053515625 17.5892578125 53.05 18
L 53.05 21
Q 53.053515625 21.4107421875 53.35 21.7 53.6392578125 21.996484375 54.05 22 54.4607421875 21.996484375 54.75 21.7 55.046484375 21.4107421875 55.05 21
L 55.05 18
Q 55.046484375 17.5892578125 54.75 17.3 54.4607421875 17.003515625 54.05 17
M 55.05 11
Q 55.046484375 10.5892578125 54.75 10.3 54.4607421875 10.003515625 54.05 10 53.6392578125 10.003515625 53.35 10.3 53.053515625 10.5892578125 53.05 11
L 53.05 14
Q 53.053515625 14.4107421875 53.35 14.7 53.6392578125 14.996484375 54.05 15 54.4607421875 14.996484375 54.75 14.7 55.046484375 14.4107421875 55.05 14
L 55.05 11
M 54.05 3
Q 53.6392578125 3.003515625 53.35 3.3 53.053515625 3.5892578125 53.05 4
L 53.05 7
Q 53.053515625 7.4107421875 53.35 7.7 53.6392578125 7.996484375 54.05 8 54.4607421875 7.996484375 54.75 7.7 55.046484375 7.4107421875 55.05 7
L 55.05 4
Q 55.046484375 3.5892578125 54.75 3.3 54.4607421875 3.003515625 54.05 3
M 76.65 24.25
Q 77.083984375 24.354296875 77.4 24.1
L 79.8 22.4
Q 80.158984375 22.1826171875 80.2 21.75 80.3048828125 21.3658203125 80.05 21 79.833203125 20.690625 79.4 20.6 79.016015625 20.545703125 78.65 20.75
L 76.25 22.45
Q 75.941015625 22.7173828125 75.85 23.1 75.7951171875 23.5341796875 76 23.85 76.266796875 24.209375 76.65 24.25
M 85.95 17.65
Q 86.00390625 17.23671875 85.75 16.9 85.5046875 16.5634765625 85.1 16.5 84.6873046875 16.446484375 84.35 16.7
L 81.95 18.5
Q 81.6140625 18.7458984375 81.55 19.15 81.49609375 19.56328125 81.75 19.9 81.9953125 20.2365234375 82.4 20.3 82.8126953125 20.3533203125 83.15 20.1
L 85.55 18.3
Q 85.8857421875 18.0541015625 85.95 17.65
M 88.1 16.2
Q 88.5126953125 16.2533203125 88.85 16
L 91.25 14.2
Q 91.5857421875 13.9541015625 91.65 13.55 91.70390625 13.13671875 91.45 12.8 91.2046875 12.4634765625 90.8 12.4 90.3873046875 12.346484375 90.05 12.6
L 87.65 14.4
Q 87.3140625 14.6458984375 87.25 15.05 87.19609375 15.46328125 87.45 15.8 87.6953125 16.1365234375 88.1 16.2
M 93.65 12.05
Q 94.083984375 12.154296875 94.4 11.9
L 96.8 10.2
Q 97.158984375 9.9826171875 97.2 9.55 97.3048828125 9.1658203125 97.05 8.8 96.833203125 8.490625 96.4 8.4 96.016015625 8.345703125 95.65 8.55
L 93.25 10.25
Q 92.941015625 10.5173828125 92.85 10.9 92.7951171875 11.3341796875 93 11.65 93.266796875 12.009375 93.65 12.05
M 102.1 4.3
Q 101.6873046875 4.246484375 101.35 4.5
L 98.95 6.3
Q 98.6140625 6.5458984375 98.55 6.95 98.49609375 7.36328125 98.75 7.7 98.9953125 8.0365234375 99.4 8.1 99.8126953125 8.1533203125 100.15 7.9
L 102.55 6.1
Q 102.8857421875 5.8541015625 102.95 5.45 103.00390625 5.03671875 102.75 4.7 102.5046875 4.3634765625 102.1 4.3
M 108.1 2.1
Q 108.458984375 1.8826171875 108.5 1.45 108.6048828125 1.0658203125 108.35 0.7 108.133203125 0.390625 107.7 0.3 107.316015625 0.245703125 106.95 0.45
L 104.55 2.15
Q 104.241015625 2.4173828125 104.15 2.8 104.0951171875 3.2341796875 104.3 3.55 104.566796875 3.909375 104.95 3.95 105.383984375 4.054296875 105.7 3.8
L 108.1 2.1
M 126.6 -13.4
Q 126.54609375 -12.98671875 126.8 -12.65 127.0453125 -12.3134765625 127.45 -12.25 127.8626953125 -12.1966796875 128.2 -12.45
L 130.6 -14.25
Q 130.9357421875 -14.4958984375 131 -14.9 131.05390625 -15.31328125 130.8 -15.65 130.5546875 -15.9865234375 130.15 -16.05 129.7373046875 -16.103515625 129.4 -15.85
L 127 -14.05
Q 126.6640625 -13.8041015625 126.6 -13.4
M 136.6 -19
Q 136.65390625 -19.41328125 136.4 -19.75 136.1546875 -20.0865234375 135.75 -20.15 135.3373046875 -20.203515625 135 -19.95
L 132.6 -18.15
Q 132.2640625 -17.9041015625 132.2 -17.5 132.14609375 -17.08671875 132.4 -16.75 132.6453125 -16.4134765625 133.05 -16.35 133.4626953125 -16.2966796875 133.8 -16.55
L 136.2 -18.35
Q 136.5357421875 -18.5958984375 136.6 -19
M 138.65 -20.45
Q 139.0626953125 -20.3966796875 139.4 -20.65
L 141.8 -22.45
Q 142.1357421875 -22.6958984375 142.2 -23.1 142.25390625 -23.51328125 142 -23.85 141.7546875 -24.1865234375 141.35 -24.25 140.9373046875 -24.303515625 140.6 -24.05
L 138.2 -22.25
Q 137.8640625 -22.0041015625 137.8 -21.6 137.74609375 -21.18671875 138 -20.85 138.2453125 -20.5134765625 138.65 -20.45
M 158.6 -34.75
Q 158.9357421875 -34.9958984375 159 -35.4 159.05390625 -35.81328125 158.8 -36.15 158.5546875 -36.4865234375 158.15 -36.55 157.7373046875 -36.603515625 157.4 -36.35
L 155 -34.55
Q 154.6640625 -34.3041015625 154.6 -33.9 154.54609375 -33.48671875 154.8 -33.15 155.0453125 -32.8134765625 155.45 -32.75 155.8626953125 -32.6966796875 156.2 -32.95
L 158.6 -34.75
M 149.85 -28.65
Q 150.2626953125 -28.5966796875 150.6 -28.85
L 153 -30.65
Q 153.3357421875 -30.8958984375 153.4 -31.3 153.45390625 -31.71328125 153.2 -32.05 152.9546875 -32.3865234375 152.55 -32.45 152.1373046875 -32.503515625 151.8 -32.25
L 149.4 -30.45
Q 149.0640625 -30.2041015625 149 -29.8 148.94609375 -29.38671875 149.2 -29.05 149.4453125 -28.7134765625 149.85 -28.65
M 143.4 -25.7
Q 143.34609375 -25.28671875 143.6 -24.95 143.8453125 -24.6134765625 144.25 -24.55 144.6626953125 -24.4966796875 145 -24.75
L 147.4 -26.55
Q 147.7357421875 -26.7958984375 147.8 -27.2 147.85390625 -27.61328125 147.6 -27.95 147.3546875 -28.2865234375 146.95 -28.35 146.5373046875 -28.403515625 146.2 -28.15
L 143.8 -26.35
Q 143.4640625 -26.1041015625 143.4 -25.7
M 160.2 -38
Q 160.14609375 -37.58671875 160.4 -37.25 160.6453125 -36.9134765625 161.05 -36.85 161.4626953125 -36.7966796875 161.8 -37.05
L 164.2 -38.85
Q 164.5357421875 -39.0958984375 164.6 -39.5 164.65390625 -39.91328125 164.4 -40.25 164.1546875 -40.5865234375 163.75 -40.65 163.3373046875 -40.703515625 163 -40.45
L 160.6 -38.65
Q 160.2640625 -38.4041015625 160.2 -38
M 119.75 -6.7
Q 119.8548828125 -7.0841796875 119.6 -7.45 119.383203125 -7.759375 118.95 -7.85 118.566015625 -7.904296875 118.2 -7.7
L 115.8 -5.95
Q 115.491015625 -5.6826171875 115.4 -5.3 115.3451171875 -4.8658203125 115.55 -4.55 115.816796875 -4.190625 116.2 -4.15 116.633984375 -4.045703125 116.95 -4.3
L 119.35 -6.05
Q 119.708984375 -6.2673828125 119.75 -6.7
M 121 -9.3
Q 120.94609375 -8.88671875 121.2 -8.55 121.4453125 -8.2134765625 121.85 -8.15 122.2626953125 -8.0966796875 122.6 -8.35
L 125 -10.15
Q 125.3357421875 -10.3958984375 125.4 -10.8 125.45390625 -11.21328125 125.2 -11.55 124.9546875 -11.8865234375 124.55 -11.95 124.1373046875 -12.003515625 123.8 -11.75
L 121.4 -9.95
Q 121.0640625 -9.7041015625 121 -9.3
M 109.8 -1.15
Q 109.74609375 -0.73671875 110 -0.4 110.2453125 -0.0634765625 110.65 0 111.0626953125 0.0533203125 111.4 -0.2
L 113.8 -2
Q 114.1357421875 -2.2458984375 114.2 -2.65 114.25390625 -3.06328125 114 -3.4 113.7546875 -3.7365234375 113.35 -3.8 112.9373046875 -3.853515625 112.6 -3.6
L 110.2 -1.8
Q 109.8640625 -1.5541015625 109.8 -1.15
M 55.05 -3
Q 55.046484375 -3.4107421875 54.75 -3.7 54.4607421875 -3.996484375 54.05 -4 53.6392578125 -3.996484375 53.35 -3.7 53.053515625 -3.4107421875 53.05 -3
L 53.05 0
Q 53.053515625 0.4107421875 53.35 0.7 53.6392578125 0.996484375 54.05 1 54.4607421875 0.996484375 54.75 0.7 55.046484375 0.4107421875 55.05 0
L 55.05 -3
M 54.05 -11
Q 53.6392578125 -10.996484375 53.35 -10.7 53.053515625 -10.4107421875 53.05 -10
L 53.05 -7
Q 53.053515625 -6.5892578125 53.35 -6.3 53.6392578125 -6.003515625 54.05 -6 54.4607421875 -6.003515625 54.75 -6.3 55.046484375 -6.5892578125 55.05 -7
L 55.05 -10
Q 55.046484375 -10.4107421875 54.75 -10.7 54.4607421875 -10.996484375 54.05 -11
M 55.05 -17
Q 55.046484375 -17.4107421875 54.75 -17.7 54.4607421875 -17.996484375 54.05 -18 53.6392578125 -17.996484375 53.35 -17.7 53.053515625 -17.4107421875 53.05 -17
L 53.05 -14
Q 53.053515625 -13.5892578125 53.35 -13.3 53.6392578125 -13.003515625 54.05 -13 54.4607421875 -13.003515625 54.75 -13.3 55.046484375 -13.5892578125 55.05 -14
L 55.05 -17
M 53.35 -24.7
Q 53.053515625 -24.4107421875 53.05 -24
L 53.05 -21
Q 53.053515625 -20.5892578125 53.35 -20.3 53.6392578125 -20.003515625 54.05 -20 54.4607421875 -20.003515625 54.75 -20.3 55.046484375 -20.5892578125 55.05 -21
L 55.05 -24
Q 55.046484375 -24.4107421875 54.75 -24.7 54.4607421875 -24.996484375 54.05 -25 53.6392578125 -24.996484375 53.35 -24.7
M 54.05 -32
Q 53.6392578125 -31.996484375 53.35 -31.7 53.053515625 -31.4107421875 53.05 -31
L 53.05 -28
Q 53.053515625 -27.5892578125 53.35 -27.3 53.6392578125 -27.003515625 54.05 -27 54.4607421875 -27.003515625 54.75 -27.3 55.046484375 -27.5892578125 55.05 -28
L 55.05 -31
Q 55.046484375 -31.4107421875 54.75 -31.7 54.4607421875 -31.996484375 54.05 -32
M 53.35 -38.7
Q 53.053515625 -38.4107421875 53.05 -38
L 53.05 -35
Q 53.053515625 -34.5892578125 53.35 -34.3 53.6392578125 -34.003515625 54.05 -34 54.4607421875 -34.003515625 54.75 -34.3 55.046484375 -34.5892578125 55.05 -35
L 55.05 -38
Q 55.046484375 -38.4107421875 54.75 -38.7 54.4607421875 -38.996484375 54.05 -39 53.6392578125 -38.996484375 53.35 -38.7 Z"/>
</g>

<g id="gfmfmfm_1_Layer0_0_MEMBER_0_FILL">
<path fill="#1E1E1E" stroke="none" d="
M 116.75 11.7
Q 116.2 10.6 115.2 9.8 114.25 9.05 112.9 8.65 111.5 8.25 109.95 8.25 108.4 8.25 107 8.65 105.65 9.1 104.65 9.9 103.65 10.7 103.05 11.85 102.45 12.95 102.45 14.3 102.45 16.15 103.6 17.6 104.7 19.05 106.65 20.15 105.65 20.6 104.8 21.2 103.9 21.75 103.25 22.5 102.6 23.2 102.2 24.1 101.8 25 101.8 26.2 101.8 27.95 102.55 29.25 103.25 30.5 104.4 31.35 105.55 32.2 107 32.65 108.5 33.1 109.95 33.1 111.5 33.1 112.95 32.65 114.45 32.2 115.55 31.35 116.7 30.5 117.4 29.25 118.1 27.95 118.1 26.2 118.1 25.1 117.75 24.3 117.4 23.45 116.75 22.75 116.15 22 115.25 21.4 114.35 20.75 113.2 20.1 115.3 18.65 116.3 17.25 117.3 15.85 117.3 14.2 117.3 12.8 116.75 11.7
M 111.4 11.6
Q 112.05 11.85 112.6 12.25 113.1 12.7 113.4 13.25 113.7 13.8 113.7 14.45 113.7 15.05 113.3 15.7 112.9 16.3 112.3 16.9 111.7 17.5 111.05 17.9 110.45 18.35 109.95 18.5 109.55 18.35 108.9 18 108.25 17.6 107.65 17.05 107 16.5 106.55 15.85 106.1 15.25 106.1 14.55 106.1 13.8 106.45 13.2 106.8 12.6 107.35 12.2 107.9 11.8 108.6 11.6 109.25 11.35 109.95 11.35 110.7 11.35 111.4 11.6
M 107 23.25
Q 107.7 22.75 108.5 22.4 109.3 22.05 109.95 21.9 110.75 22.2 111.55 22.65 112.35 23.15 113 23.7 113.65 24.3 114.05 24.95 114.45 25.6 114.45 26.2 114.45 27.05 114.05 27.75 113.65 28.4 113 28.9 112.4 29.35 111.55 29.6 110.75 29.85 109.95 29.85 109.15 29.85 108.35 29.6 107.5 29.35 106.85 28.85 106.2 28.4 105.8 27.7 105.4 27.05 105.4 26.2 105.4 25.2 105.85 24.5 106.35 23.75 107 23.25
M 109 -31.6
Q 107.7 -31.6 106.35 -31.35 105 -31.05 103.6 -30.55 103.25 -30.4 103.15 -30.25 103.05 -30.1 103.1 -29.9
L 103.4 -27.55
Q 103.45 -27.3 103.6 -27.2 103.8 -27.1 104.15 -27.3 104.7 -27.45 105.3 -27.65 105.95 -27.85 106.6 -28 107.2 -28.15 107.8 -28.25 108.4 -28.35 108.85 -28.35 109.5 -28.35 110.25 -28.15 111.05 -28 111.7 -27.6 112.35 -27.2 112.75 -26.6 113.2 -26 113.2 -25.15 113.2 -24.1 112.55 -23.35 111.9 -22.65 110.95 -22.15 110 -21.65 109 -21.45 108.05 -21.25 107.35 -21.25
L 105.8 -21.25
Q 105.55 -21.25 105.45 -21.2 105.4 -21.15 105.4 -20.85
L 105.4 -18.5
Q 105.4 -18.2 105.45 -18.15 105.55 -18.05 105.8 -18.05
L 107.4 -18.05
Q 108.95 -18.05 110.05 -17.75 111.15 -17.45 111.85 -16.9 112.55 -16.4 112.9 -15.7 113.2 -15 113.2 -14.3 113.2 -12.15 111.7 -11.1 111.15 -10.7 110.5 -10.5 109.9 -10.3 109.2 -10.2 108.5 -10.1 107.8 -10.15 107.1 -10.2 106.45 -10.25 105.55 -10.3 104.75 -10.55 103.9 -10.8 103.05 -11.05 102.65 -11.2 102.45 -11.1 102.3 -11 102.25 -10.75
L 102 -8.35
Q 101.95 -8.05 102.1 -7.9 102.2 -7.75 102.55 -7.65 103.7 -7.25 105.1 -7 106.5 -6.75 107.9 -6.75 109.7 -6.75 111.45 -7.25 113.15 -7.7 114.35 -8.7 115.6 -9.65 116.25 -11.1 116.9 -12.5 116.9 -14.2 116.9 -15.95 115.8 -17.35 114.7 -18.8 112.6 -19.7 113.5 -20.1 114.25 -20.7 115.05 -21.35 115.6 -22.1 116.15 -22.85 116.45 -23.7 116.75 -24.6 116.75 -25.45 116.75 -27.1 116.05 -28.25 115.4 -29.45 114.3 -30.2 113.25 -30.9 111.85 -31.3 110.45 -31.6 109 -31.6 Z"/>
</g>

<path id="gfmfmfm_1_Layer1_0_1_STROKES" stroke="#9BB352" stroke-width="2.5" stroke-linejoin="round" stroke-linecap="round" fill="none" d="
M -57 39.7
L 54.05 -39.65 163.6 -39.65 163.6 39.7 54.05 39.7 -57 39.7 Z"/>

<path id="gfmfmfm_1_Layer0_0_MEMBER_0_1_STROKES" stroke="#1E1E1E" stroke-width="3" stroke-linejoin="miter" stroke-linecap="butt" stroke-miterlimit="3" fill="none" d="
M 94.65 0.55
L 125.25 0.55"/>
</defs>

<g transform="matrix( 1, 0, 0, 1, 516.3,435.3) ">
<g transform="matrix( 1, 0, 0, 1, 0,0) ">
<use xlink:href="#gfmfmfm_1_Layer1_0_FILL"/>

<use xlink:href="#gfmfmfm_1_Layer1_0_1_STROKES"/>

<use xlink:href="#gfmfmfm_1_Layer1_0_STROKES_1_FILL"/>
</g>

<g transform="matrix( 1, 0, 0, 1, 0,0) ">
<use xlink:href="#gfmfmfm_1_Layer0_0_MEMBER_0_FILL"/>

<use xlink:href="#gfmfmfm_1_Layer0_0_MEMBER_0_1_STROKES"/>
</g>
</g>
</svg>
