
<svg xmlns="http://www.w3.org/2000/svg" version="1.1" xmlns:xlink="http://www.w3.org/1999/xlink" preserveAspectRatio="none" x="0px" y="0px" width="200px" height="80px" viewBox="0 0 200 80">
<defs>
<g id="Mask_fdbdbfdbd4542_0_3_MASK_0_FILL">
<path fill="#FFFFFF" stroke="none" d="
M 367.4 -30.4
Q 354.8 -43 337 -43
L -88.3 -43 -112.3 -43 -238.3 -43 -256.2 -43 -337 -43
Q -354.8 -43 -367.4 -30.4 -380 -17.8 -380 0 -380 17.8 -367.4 30.4 -354.8 43 -337 43
L -282.75 43 -256.2 43 -254.5 43 -238.3 43 -112.3 43 -88.3 43 337 43
Q 354.8 43 367.4 30.4 380 17.8 380 0 380 -17.8 367.4 -30.4 Z"/>
</g>

<g id="fdbdbfdbd4542_0_Layer3_0_MEMBER_0_FILL">
<path fill="#FFFFFF" stroke="none" d="
M 46.75 23
L 46.75 15
Q 46.75 11.3 44.1 8.65 41.45 6 37.75 6 34.7 6 32.35 7.8 31.9 4.5 29.35 2.25 26.8 0 23.4 0 20 0 17.45 2.25 14.9 4.5 14.45 7.8 12.1 6 9.05 6 5.3 6 2.65 8.65 0 11.3 0 15
L 0 23 46.75 23 Z"/>
</g>

<g id="fdbdbfdbd4542_0_Layer3_1_MEMBER_0_FILL">
<path fill="#FFFFFF" stroke="none" d="
M 46.75 23
L 46.75 15
Q 46.75 11.3 44.1 8.65 41.45 6 37.75 6 34.7 6 32.35 7.8 31.9 4.5 29.35 2.25 26.8 0 23.4 0 20 0 17.45 2.25 14.9 4.5 14.45 7.8 12.1 6 9.05 6 5.3 6 2.65 8.65 0 11.3 0 15
L 0 23 46.75 23 Z"/>
</g>

<g id="Duplicate_Items_Folder_ch_0_Layer4_0_FILL">
<path fill="#FFA522" stroke="none" d="
M -421.15 149.3
L -421.15 167.8
Q -417.65 169.7 -413.05 173.9 -403.9 182.3 -398.55 193.95 -393.15 205.6 -395.75 216.6 -397 222.1 -399.4 225.3
L -383.8 225.3
Q -381.45 220 -380.9 211.55 -379.75 194.65 -388.55 179 -397.4 163.4 -410.15 154.8 -416.55 150.5 -421.15 149.3 Z"/>
</g>

<g id="Duplicate_Items_Folder_ch_0_Layer4_1_FILL">
<path fill="#FFA522" stroke="none" d="
M -30.25 44
L -30.25 25.5 -33.35 26.65
Q -37.25 28.3 -41.25 31 -54.05 39.6 -62.85 55.2 -71.7 70.85 -70.55 87.75 -69.95 96.2 -67.6 101.5
L -52 101.5
Q -54.35 98.3 -55.65 92.8 -58.25 81.8 -52.85 70.15 -47.45 58.5 -38.3 50.1 -35.45 47.45 -32.55 45.45
L -30.25 44 Z"/>
</g>

<g id="Duplicate_Items_Folder_ch_0_Layer3_0_FILL">
<path fill="#514840" stroke="none" d="
M 24.45 -62.4
Q 14.35 -72.5 0.05 -72.5 -14.25 -72.5 -24.35 -62.4 -34.45 -52.3 -34.45 -38 -34.45 -23.7 -24.35 -13.6 -14.25 -3.5 0.05 -3.5 14.35 -3.5 24.45 -13.6 34.55 -23.7 34.55 -38 34.55 -52.3 24.45 -62.4 Z"/>
</g>

<g id="Duplicate_Items_Folder_ch_0_Layer3_1_FILL">
<path fill="#FFA522" stroke="none" d="
M -430.55 139.35
Q -431.3 139.1 -431.9 139.5
L -451.4 139.25 -470.85 139.5 -472.2 139.35
Q -473.75 139.85 -474.55 143.25 -475.35 146.65 -478.6 148.3 -480.25 149.15 -481.7 149.3
L -486.7 220 -416.05 220 -421.05 149.3 -424.15 148.3
Q -427.4 146.65 -428.2 143.25 -429.05 139.85 -430.55 139.35 Z"/>
</g>

<g id="Duplicate_Items_Folder_ch_0_Layer3_2_MEMBER_0_FILL">
<path fill="#F57500" stroke="none" d="
M -430.55 139.35
Q -431.3 139.1 -431.9 139.5
L -451.4 139.25 -470.85 139.5 -472.2 139.35
Q -473.75 139.85 -474.55 143.25 -475.2 145.8 -477.25 147.4 -475.35 149.8 -467.95 151.4 -460.55 153 -451.4 153 -442.2 153 -434.8 151.4 -427.4 149.8 -425.5 147.4 -427.6 145.75 -428.2 143.25 -429.05 139.85 -430.55 139.35 Z"/>
</g>

<g id="Duplicate_Items_Folder_ch_0_Layer3_2_MEMBER_1_FILL">
<path fill="#FFA522" stroke="none" d="
M -481.7 149.3
L -483.6 176.3 -419.15 176.3 -421.05 149.3 -422.5 148.95
Q -424.2 148.45 -425.5 147.4 -427.4 149.8 -434.8 151.4 -442.2 153 -451.4 153 -460.55 153 -467.95 151.4 -475.35 149.8 -477.25 147.4 -479.3 149.05 -481.7 149.3 Z"/>
</g>

<g id="Duplicate_Items_Folder_ch_0_Layer3_2_MEMBER_2_FILL">
<path fill="#FFA522" stroke="none" d="
M -417.75 196.3
L -485.05 196.3 -486.7 220 -416.05 220 -417.75 196.3 Z"/>
</g>

<g id="Duplicate_Items_Folder_ch_0_Layer3_2_MEMBER_3_FILL">
<path fill="#F57500" stroke="none" d="
M -483.6 176.3
L -485.05 196.3 -417.75 196.3 -419.15 176.3 -483.6 176.3 Z"/>
</g>

<g id="Duplicate_Items_Folder_ch_0_Layer3_3_FILL">
<path fill="#FEDDBC" stroke="none" d="
M -429.2 97.15
L -473.55 97.15 -474.55 143.25
Q -474.55 145.75 -467.55 147.55 -460.65 149.3 -451.4 149.3 -442.1 149.3 -435.2 147.55 -428.2 145.75 -428.2 143.25
L -429.2 97.15 Z"/>
</g>

<g id="Duplicate_Items_Folder_ch_0_Layer2_0_FILL">
<path fill="#514840" stroke="none" d="
M -462.05 106
Q -462.05 105.2 -462.6 104.7 -463.1 104.15 -463.9 104.15 -464.65 104.15 -465.15 104.7 -465.7 105.2 -465.7 106 -465.7 106.75 -465.15 107.3 -464.65 107.8 -463.9 107.8 -463.1 107.8 -462.6 107.3 -462.05 106.75 -462.05 106 Z"/>
</g>

<g id="Duplicate_Items_Folder_ch_0_Layer2_1_FILL">
<path fill="#514840" stroke="none" d="
M -437.05 106
Q -437.05 105.2 -437.6 104.7 -438.1 104.15 -438.9 104.15 -439.65 104.15 -440.15 104.7 -440.7 105.2 -440.7 106 -440.7 106.75 -440.15 107.3 -439.65 107.8 -438.9 107.8 -438.1 107.8 -437.6 107.3 -437.05 106.75 -437.05 106 Z"/>
</g>

<g id="Duplicate_Items_Folder_ch_0_Layer2_2_FILL">
<path fill="#514840" stroke="none" d="
M -450.2 102.8
Q -450.2 102.3 -450.55 102 -450.9 101.65 -451.4 101.65 -451.9 101.65 -452.2 102 -452.55 102.3 -452.55 102.8
L -452.55 116.5
Q -452.55 116.95 -452.2 117.3 -451.9 117.65 -451.4 117.65 -450.9 117.65 -450.55 117.3 -450.2 116.95 -450.2 116.5
L -450.2 102.8 Z"/>
</g>

<g id="Duplicate_Items_Folder_ch_0_Layer2_3_FILL">
<path fill="#DD5652" stroke="none" d="
M -442.6 126.85
Q -438.95 123.85 -438.95 119.65
L -463.8 119.65
Q -463.8 123.85 -460.15 126.85 -456.55 129.8 -451.4 129.8 -446.25 129.8 -442.6 126.85 Z"/>
</g>

<g id="Duplicate_Items_Folder_ch_0_Layer2_4_MEMBER_0_FILL">
<path fill="#D2433F" stroke="none" d="
M -441.75 126.05
Q -438.95 123.25 -438.95 119.65
L -463.8 119.65
Q -463.8 123.2 -461.05 126.05 -456.9 122.25 -451.4 122.25 -445.8 122.25 -441.75 126.05 Z"/>
</g>

<g id="Duplicate_Items_Folder_ch_0_Layer2_4_MEMBER_1_FILL">
<path fill="#F3746B" stroke="none" d="
M -461.05 126.05
Q -457.3 129.8 -451.4 129.8 -448.5 129.8 -445.95 128.8 -443.45 127.8 -441.75 126.05 -445.8 122.25 -451.4 122.25 -456.9 122.25 -461.05 126.05 Z"/>
</g>

<g id="Duplicate_Items_Folder_dbs34343_copy_0_Layer1_0_FILL">
<path fill="#4C9252" stroke="none" d="
M -0.5 -0.15
Q -0.1 3.95 -0.75 8.5 -0.1 8.25 0.75 8.5 -0.15 3.65 0.5 -0.15
L -0.5 -0.15 Z"/>
</g>

<g id="Duplicate_Items_Folder_dbs34343_copy_0_Layer1_1_FILL">
<path fill="#4C9252" stroke="none" d="
M 9.65 3.3
L 10.7 2
Q 4.7 4.05 -1.85 3.75 2.1 8.55 6.8 5.75 8.25 4.85 9.65 3.3 Z"/>

<path fill="#55AC66" stroke="none" d="
M 10.7 1.95
Q 5.1 -1.25 1.05 0.95 -0.95 2.05 -1.85 3.75 4.7 4.05 10.7 2
L 10.7 1.95 Z"/>
</g>

<g id="Duplicate_Items_Folder_dbs34343_copy_0_Layer0_0_FILL">
<path fill="#4C9252" stroke="none" d="
M -9.75 -6.75
Q -9.85 -6.8 -9.95 -6.8
L -10.2 -5.55
Q -10.35 -4 -9.95 -2.6 -8.7 1.9 -2.45 3.35 -2.45 3.3 -2.4 3.25 -8.4 -1 -9.75 -6.75 Z"/>

<path fill="#55AC66" stroke="none" d="
M -2.65 -0.9
Q -4 -5.35 -9.75 -6.75 -8.4 -1 -2.4 3.25 -1.95 1.35 -2.65 -0.9 Z"/>
</g>
</defs>

<g transform="matrix( 1, 0, 0, 1, 371.15,37) ">
<mask id="Mask_Mask_1">
<g transform="matrix( 1, 0, 0, 1, 0,0) ">
<use xlink:href="#Mask_fdbdbfdbd4542_0_3_MASK_0_FILL"/>
</g>
</mask>

<g mask="url(#Mask_Mask_1)">
<g transform="matrix( 1, 0, 0, 1, -366,-30.95) ">
<use xlink:href="#fdbdbfdbd4542_0_Layer3_0_MEMBER_0_FILL"/>
</g>

<g transform="matrix( 1, 0, 0, 1, -246,1.05) ">
<use xlink:href="#fdbdbfdbd4542_0_Layer3_1_MEMBER_0_FILL"/>
</g>
</g>

<g mask="url(#Mask_Mask_1)">
<g transform="matrix( 1.40228271484375, 0, 0, 1.40228271484375, -272,91.95) ">
<g transform="matrix( 1, 0, 0, 1, 451.45,-123.8) ">
<use xlink:href="#Duplicate_Items_Folder_ch_0_Layer4_0_FILL"/>
</g>

<g transform="matrix( 1, 0, 0, 1, 0,0) ">
<use xlink:href="#Duplicate_Items_Folder_ch_0_Layer4_1_FILL"/>
</g>

<g transform="matrix( 1, 0, 0, 1, 0,0) ">
<use xlink:href="#Duplicate_Items_Folder_ch_0_Layer3_0_FILL"/>
</g>

<g transform="matrix( 1, 0, 0, 1, 451.45,-123.8) ">
<use xlink:href="#Duplicate_Items_Folder_ch_0_Layer3_1_FILL"/>
</g>

<g transform="matrix( 1, 0, 0, 1, 451.45,-123.8) ">
<use xlink:href="#Duplicate_Items_Folder_ch_0_Layer3_2_MEMBER_0_FILL"/>
</g>

<g transform="matrix( 1, 0, 0, 1, 451.45,-123.8) ">
<use xlink:href="#Duplicate_Items_Folder_ch_0_Layer3_2_MEMBER_1_FILL"/>
</g>

<g transform="matrix( 1, 0, 0, 1, 451.45,-123.8) ">
<use xlink:href="#Duplicate_Items_Folder_ch_0_Layer3_2_MEMBER_2_FILL"/>
</g>

<g transform="matrix( 1, 0, 0, 1, 451.45,-123.8) ">
<use xlink:href="#Duplicate_Items_Folder_ch_0_Layer3_2_MEMBER_3_FILL"/>
</g>

<g transform="matrix( 1, 0, 0, 1, 451.45,-123.8) ">
<use xlink:href="#Duplicate_Items_Folder_ch_0_Layer3_3_FILL"/>
</g>

<g transform="matrix( 0.7999725341796875, 0, 0, 0.7999725341796875, 358.7,-102.15) ">
<use xlink:href="#Duplicate_Items_Folder_ch_0_Layer2_0_FILL"/>
</g>

<g transform="matrix( 0.7999725341796875, 0, 0, 0.7999725341796875, 363.55,-102.5) ">
<use xlink:href="#Duplicate_Items_Folder_ch_0_Layer2_1_FILL"/>
</g>

<g transform="matrix( 0.89996337890625, 0, 0, 0.899993896484375, 406.25,-112.8) ">
<use xlink:href="#Duplicate_Items_Folder_ch_0_Layer2_2_FILL"/>
</g>

<g transform="matrix( 1, 0, 0, 1, 451.45,-123.8) ">
<use xlink:href="#Duplicate_Items_Folder_ch_0_Layer2_3_FILL"/>
</g>

<g transform="matrix( 1, 0, 0, 1, 451.45,-123.8) ">
<use xlink:href="#Duplicate_Items_Folder_ch_0_Layer2_4_MEMBER_0_FILL"/>
</g>

<g transform="matrix( 1, 0, 0, 1, 451.45,-123.8) ">
<use xlink:href="#Duplicate_Items_Folder_ch_0_Layer2_4_MEMBER_1_FILL"/>
</g>

<g transform="matrix( 1.3670806884765625, 0, 0, 1.3670806884765625, 0.15,-79.9) ">
<g transform="matrix( 1, 0, 0, 1, 0,0) ">
<use xlink:href="#Duplicate_Items_Folder_dbs34343_copy_0_Layer1_0_FILL"/>
</g>

<g transform="matrix( 0.9539642333984375, -0.2999114990234375, 0.2999114990234375, 0.9539642333984375, 0.65,-4.05) ">
<use xlink:href="#Duplicate_Items_Folder_dbs34343_copy_0_Layer1_1_FILL"/>
</g>

<g transform="matrix( 0.9539642333984375, -0.2999114990234375, 0.2999114990234375, 0.9539642333984375, 1.35,-3.7) ">
<use xlink:href="#Duplicate_Items_Folder_dbs34343_copy_0_Layer0_0_FILL"/>
</g>
</g>
</g>
</g>
</g>
</svg>
