<?xml version="1.0" encoding="utf-8"?>
<!-- Generator: Adobe Illustrator 23.0.0, SVG Export Plug-In . SVG Version: 6.00 Build 0)  -->
<svg version="1.1" id="레이어_1" xmlns="http://www.w3.org/2000/svg" xmlns:xlink="http://www.w3.org/1999/xlink" x="0px"
	 y="0px" width="804px" height="524px" viewBox="0 0 804 524" style="enable-background:new 0 0 804 524;" xml:space="preserve">

<g>
	<defs>
		<rect id="SVGID_1_" x="2" y="41.6" width="800" height="481.1"/>
	</defs>
	<clipPath id="SVGID_2_">
		<use xlink:href="#SVGID_1_"  style="overflow:visible;"/>
	</clipPath>
	<path style="clip-path:url(#SVGID_2_);fill:#A4D1F0;" d="M801.8,512.6c0,5.6-4.5,10.1-10.1,10.1l-779.6,0
		c-5.6,0-10.1-4.5-10.1-10.1V51.7c0-5.6,4.5-10.1,10.1-10.1l779.8,0c5.6,0,10.1,4.5,10.1,10.1L801.8,512.6z"/>
	<path style="clip-path:url(#SVGID_2_);fill:#AED5F2;" d="M12.4,522.1c-5.4,0-9.8-4.4-9.8-9.8L2.6,52c0-0.2,0-0.5,0-0.8
		c0.4-5.1,4.6-9.1,9.8-9.1h779.2c0.2,0,0.5,0,0.8,0c5.1,0.4,9.1,4.6,9.1,9.8l-0.2,460.3c0,0.2,0,0.5,0,0.8c-0.4,5.1-4.6,9.1-9.8,9.1
		H12.4z"/>
	<path style="clip-path:url(#SVGID_2_);fill:#B7DAF3;" d="M12.7,521.5c-5.2,0-9.5-4.3-9.5-9.5l0-459.6c0-0.2,0-0.5,0-0.7
		c0.3-4.9,4.5-8.9,9.5-8.9h778.5c0.2,0,0.5,0,0.7,0c4.9,0.3,8.8,4.5,8.8,9.5l-0.2,459.6c0,0.2,0,0.5,0,0.7c-0.3,4.9-4.4,8.9-9.5,8.9
		H12.7z"/>
	<path style="clip-path:url(#SVGID_2_);fill:#C0DEF5;" d="M13,520.9c-5.1,0-9.2-4.1-9.2-9.2l0-459c0-0.2,0-0.5,0-0.7
		c0.3-4.8,4.3-8.6,9.2-8.6h777.9c0.2,0,0.5,0,0.7,0c4.8,0.3,8.6,4.3,8.6,9.2l-0.2,459c0,0.2,0,0.5,0,0.7c-0.3,4.8-4.3,8.6-9.2,8.6
		H13z"/>
	<path style="clip-path:url(#SVGID_2_);fill:#C8E2F6;" d="M13.3,520.3c-4.9,0-8.9-4-8.9-8.9V53.1c0-0.2,0-0.5,0-0.7
		c0.2-4.7,4.1-8.4,8.9-8.4h777.2c0.2,0,0.5,0,0.7,0c4.7,0.3,8.4,4.1,8.4,8.9l-0.2,458.4c0,0.2,0,0.5,0,0.7c-0.2,4.7-4.1,8.4-8.9,8.4
		H13.3z"/>
	<path style="clip-path:url(#SVGID_2_);fill:#D1E7F8;" d="M13.6,519.7c-4.7,0-8.6-3.9-8.6-8.6L5,53.4c0-0.1,0-0.5,0-0.6
		c0.2-4.5,4-8.2,8.6-8.2h776.6c0.1,0,0.5,0,0.6,0c4.5,0.2,8.1,4,8.1,8.6l-0.2,457.7c0,0.1,0,0.5,0,0.6c-0.2,4.5-4,8.1-8.6,8.1
		L13.6,519.7z"/>
	<path style="clip-path:url(#SVGID_2_);fill:#D9EBF9;" d="M13.9,519.1c-4.6,0-8.3-3.7-8.3-8.3V53.8c0-0.1,0-0.5,0-0.6
		c0.2-4.4,3.8-7.9,8.3-7.9h776c0.1,0,0.5,0,0.6,0c4.4,0.2,7.9,3.8,7.9,8.2l-0.2,457.1c0,0.1,0,0.5,0,0.6c-0.2,4.4-3.8,7.9-8.2,7.9
		H13.9z"/>
	<path style="clip-path:url(#SVGID_2_);fill:#E1EFFA;" d="M14.2,518.5c-4.4,0-8-3.6-8-8V54.1c0-0.1,0-0.5,0-0.6
		c0.1-4.3,3.6-7.7,8-7.7l775.3,0c0.1,0,0.5,0,0.6,0c4.3,0.1,7.7,3.7,7.7,8l-0.2,456.5c0,0.1,0,0.5,0,0.6c-0.1,4.3-3.7,7.7-7.9,7.7
		H14.2z"/>
	<path style="clip-path:url(#SVGID_2_);fill:#E9F4FC;" d="M14.5,517.9c-4.2,0-7.7-3.4-7.7-7.7V54.5c0-0.1,0-0.5,0-0.6
		c0.1-4.1,3.5-7.4,7.6-7.4h774.7c0.1,0,0.5,0,0.6,0c4.1,0.1,7.4,3.5,7.4,7.6L797,509.9v0.6c-0.1,4.1-3.5,7.4-7.6,7.4L14.5,517.9z"/>
	<path style="clip-path:url(#SVGID_2_);fill:#F1F8FD;" d="M14.8,517.4c-4.1,0-7.4-3.3-7.4-7.4V54.8v-0.5c0.1-4,3.3-7.2,7.4-7.2h774
		c0,0,0.5,0,0.5,0c4,0.1,7.2,3.3,7.2,7.4l-0.2,455.2c0,0,0,0.5,0,0.5c-0.1,4-3.3,7.2-7.3,7.2H14.8z"/>
	<path style="clip-path:url(#SVGID_2_);fill:#F8FCFE;" d="M15.1,516.8c-3.9,0-7.1-3.2-7.1-7.1V55.2c0,0,0-0.5,0-0.5c0-3.9,3.2-7,7-7
		h773.4c0,0,0.5,0,0.5,0c3.8,0,7,3.2,7,7l-0.2,454.5v0.5c0,3.9-3.2,7-7,7H15.1z"/>
	<path style="clip-path:url(#SVGID_2_);fill:#FFFFFF;" d="M795.2,509.4c0,3.7-3,6.7-6.7,6.7H15.4c-3.7,0-6.7-3-6.7-6.7V55
		c0-3.7,3-6.7,6.7-6.7h773.2c3.7,0,6.7,3,6.7,6.7L795.2,509.4z"/>
	<path style="clip-path:url(#SVGID_2_);fill:#E2F0FA;" d="M209.2,435.1v81h579.3c3.7,0,6.7-3,6.7-6.7v-74.3H209.2z"/>
	<path style="clip-path:url(#SVGID_2_);fill:#E2F0FA;" d="M12,515.2c1,0.6,2.1,0.9,3.4,0.9h193.8v-81L12,515.2z"/>
	<path style="clip-path:url(#SVGID_2_);fill:#EEF6FC;" d="M209.2,47.3H15.4c-3.7,0-6.7,3-6.7,6.7v381.1h200.5V47.3z"/>
	<path style="clip-path:url(#SVGID_2_);fill:#EEF6FC;" d="M8.6,435.1v74.3c0,2.5,1.4,4.6,3.4,5.8l197.2-80.1H8.6z"/>
	<path style="clip-path:url(#SVGID_2_);fill:#FFFFFF;" d="M795.2,435.1L795.4,55c0-3.7-3-6.7-6.7-6.7H209.2v386.8H795.2z"/>
</g>

<g>
	<defs>
		<rect id="SVGID_3_" x="2" y="41.6" width="800" height="481.1"/>
	</defs>
	<clipPath id="SVGID_4_">
		<use xlink:href="#SVGID_3_"  style="overflow:visible;"/>
	</clipPath>
	<polyline style="clip-path:url(#SVGID_4_);fill:#EDC6C9;" points="261.7,435.1 261.7,112 302.5,112 302.5,435.1 	"/>
	<polygon style="clip-path:url(#SVGID_4_);fill:#C8245B;" points="303.7,435.1 301.4,435.1 301.4,113.2 262.9,113.2 262.9,435.1
		260.6,435.1 260.6,112 261.7,110.9 302.5,110.9 303.7,112 	"/>
	<polyline style="clip-path:url(#SVGID_4_);fill:#EDC6C9;" points="408.3,435.1 408.3,176.4 449.1,176.4 449.1,435.1 	"/>
	<polygon style="clip-path:url(#SVGID_4_);fill:#C8245B;" points="450.3,435.1 448,435.1 448,177.6 409.5,177.6 409.5,435.1
		407.2,435.1 407.2,176.4 408.3,175.3 449.1,175.3 450.3,176.4 	"/>
	<polyline style="clip-path:url(#SVGID_4_);fill:#EDC6C9;" points="554.6,435.1 554.6,305.9 595.4,305.9 595.4,435.1 	"/>
	<polygon style="clip-path:url(#SVGID_4_);fill:#C8245B;" points="596.6,435.1 594.3,435.1 594.3,307 555.8,307 555.8,435.1
		553.5,435.1 553.5,305.9 554.6,304.7 595.4,304.7 596.6,305.9 	"/>
	<polyline style="clip-path:url(#SVGID_4_);fill:#EDC6C9;" points="702.3,435.1 702.3,241.2 743,241.2 743,435.1 	"/>
	<polygon style="clip-path:url(#SVGID_4_);fill:#C8245B;" points="744.2,435.1 741.9,435.1 741.9,242.4 703.4,242.4 703.4,435.1
		701.1,435.1 701.1,241.2 702.3,240.1 743,240.1 744.2,241.2 	"/>
	<path style="clip-path:url(#SVGID_4_);fill:#B5B6B6;" d="M796.3,144.7H209.2v-0.9h587.1V144.7z M796.3,80H209.2v-0.9h587.1V80z"/>
	<rect x="209.2" y="110.9" style="clip-path:url(#SVGID_4_);fill:#B5B6B6;" width="587.1" height="2"/>
	<path style="clip-path:url(#SVGID_4_);fill:#B5B6B6;" d="M796.3,241.6H209.2v-0.9h587.1V241.6z M796.3,209.3H209.2v-0.9h587.1
		V209.3z M796.3,177H209.2v-0.9h587.1V177z"/>
	<rect x="209.2" y="272.5" style="clip-path:url(#SVGID_4_);fill:#B5B6B6;" width="587.1" height="2"/>
	<path style="clip-path:url(#SVGID_4_);fill:#B5B6B6;" d="M796.3,435.6H209.2v-0.9h587.1V435.6z M796.3,403.2H209.2v-0.9h587.1
		V403.2z M796.3,370.9H209.2v-0.9h587.1V370.9z M796.3,338.6H209.2v-0.9h587.1V338.6z M796.3,306.3H209.2v-0.9h587.1V306.3z"/>
</g>
<g>
	<defs>
		<rect id="SVGID_5_" x="2" y="41.6" width="800" height="481.1"/>
	</defs>
	<clipPath id="SVGID_6_">
		<use xlink:href="#SVGID_5_"  style="overflow:visible;"/>
	</clipPath>
	<polygon style="clip-path:url(#SVGID_6_);fill:#329AD7;" points="210.3,520.6 208,520.6 208,436.3 6.7,436.3 6.7,434 208,434
		208,44.6 210.3,44.6 210.3,434 795.2,434 795.2,436.3 210.3,436.3 	"/>

		<rect x="4.2" y="474.6" transform="matrix(0.9268 -0.3756 0.3756 0.9268 -170.3739 76.329)" style="clip-path:url(#SVGID_6_);fill:#329AD7;" width="212.8" height="1.1"/>
	<path style="clip-path:url(#SVGID_6_);fill:#329AD7;" d="M649.6,519.4h-2.3V44.6h2.3V519.4z M502.9,519.4h-2.3V44.6h2.3V519.4z
		 M356.3,519.4H354V44.6h2.3V519.4z"/>
</g>
<g>
</g>
<g>
</g>
<g>
</g>
<g>
</g>
<g>
</g>
<g>
</g>
<g>
</g>
<g>
</g>
<g>
</g>
<g>
</g>
<g>
</g>
<g>
</g>
<g>
</g>
<g>
</g>
<g>
</g>
</svg>
