
<svg xmlns="http://www.w3.org/2000/svg" version="1.1" xmlns:xlink="http://www.w3.org/1999/xlink" preserveAspectRatio="none" x="0px" y="0px" width="64px" height="60px" viewBox="0 0 64 60">
<defs>
<g id="Duplicate_Items_Folder_fdnd4545466_copy_2_Layer2_0_MEMBER_0_FILL">
<path fill="#FFFFFF" stroke="none" d="
M 140.9 47.05
Q 138.3 43.05 134.35 42.25 128.15 41 116.9 47.35
L 106.9 53.95 108.15 66.35
Q 138.3 67.25 142.25 55.6 143.7 51.35 140.9 47.05 Z"/>
</g>

<g id="Duplicate_Items_Folder_fdnd4545466_copy_2_Layer2_0_MEMBER_1_MEMBER_0_FILL">
<path fill="#FFCA61" stroke="none" d="
M 106.9 53.95
L 108.15 66.35
Q 116.45 66.6 123.65 65.7 125.1 52.7 119.4 46 115.2 48.2 110.6 51.3
L 106.9 53.95 Z"/>
</g>

<g id="Duplicate_Items_Folder_fdnd4545466_copy_2_Layer2_0_MEMBER_1_MEMBER_1_FILL">
<path fill="#FFFFFF" stroke="none" d="
M 140.25 46.15
Q 137.7 42.95 134.35 42.25 129.05 41.2 119.4 46 125.1 52.7 123.65 65.7 142.2 63.15 142.7 53.2 142.9 49.45 140.25 46.15 Z"/>
</g>

<g id="Duplicate_Items_Folder_fdnd4545466_copy_2_Layer2_0_MEMBER_3_MEMBER_0_FILL">
<path fill="#FFFFFF" stroke="none" d="
M 135.85 61.05
L 127 64.05
Q 129.45 68.3 131.15 68.75 131.9 69 134.8 67.9 137.25 66.95 136.8 63.9
L 135.85 61.05 Z"/>
</g>

<g id="Duplicate_Items_Folder_fdnd4545466_copy_2_Layer2_0_MEMBER_4_FILL">
<path fill="#FFFFFF" stroke="none" d="
M 125.25 37.9
Q 132.6 34.1 134.7 25.5 136.55 17.75 133.6 10.35 130.55 2.85 124.8 1.4 115.1 -1.05 106.05 10.45 103.25 14.05 100.85 18.6
L 99 22.45 102.4 38.9
Q 116.55 42.45 125.25 37.9 Z"/>
</g>

<g id="Duplicate_Items_Folder_fdnd4545466_copy_2_Layer2_0_MEMBER_5_FILL">
<path fill="#CECECE" stroke="none" d="
M 127.25 26.1
Q 128.1 20.75 125.7 15.4 123.3 10.05 119.95 9.45 114.4 8.5 107.75 18.1 105.65 21.1 103.7 24.75
L 102.2 27.85 103.65 33.25
Q 114.85 37.1 121.1 34.4 126.25 32.2 127.25 26.1 Z"/>
</g>

<g id="Duplicate_Items_Folder_fdnd4545466_copy_2_Layer2_0_MEMBER_6_FILL">
<path fill="#FFFFFF" stroke="none" d="
M 22.8 98.65
Q 22 98.6 20.8 98.7 18.4 99 16.35 99.95 9.85 103 9.55 111.8
L 9.6 113.4
Q 10.05 115.25 12.1 116.75 18.55 121.45 23.15 122.8 32.85 125.7 39.2 117.95
L 22.8 98.65 Z"/>
</g>

<g id="Duplicate_Items_Folder_fdnd4545466_copy_2_Layer2_0_MEMBER_7_FILL">
<path fill="#FFFFFF" stroke="none" d="
M 75 142.5
Q 75.9 145.35 77.35 146.35 79.05 147.6 82.55 147.15 89 146.25 94.65 142.85 102.3 138.2 97.65 132.95 93.15 127.9 91 123.5
L 89.75 120.1 67.85 124.95 71.05 132.45
Q 74.35 140.35 75 142.5 Z"/>
</g>

<g id="Duplicate_Items_Folder_fdnd4545466_copy_2_Layer2_0_MEMBER_8_MEMBER_0_FILL">
<path fill="#FFFFFF" stroke="none" d="
M 75 142.5
Q 75.95 145.55 77.75 146.6 81.7 141.85 86.3 139.25 92.45 135.8 99.35 136.4 99.2 134.7 97.65 132.95 93.15 127.9 91 123.5
L 89.75 120.1 67.85 124.95 71.05 132.45
Q 74.35 140.35 75 142.5 Z"/>
</g>

<g id="Duplicate_Items_Folder_fdnd4545466_copy_2_Layer2_0_MEMBER_8_MEMBER_1_FILL">
<path fill="#CECECE" stroke="none" d="
M 99.35 136.4
Q 92.45 135.8 86.3 139.25 81.7 141.85 77.75 146.6 79.5 147.55 82.55 147.15 87.45 146.45 92.75 143.85 99.7 140.4 99.35 136.4 Z"/>
</g>

<g id="Duplicate_Items_Folder_fdnd4545466_copy_2_Layer2_0_MEMBER_13_FILL">
<path fill="#FFCA61" stroke="none" d="
M 94.65 7.75
Q 93.85 7 91.7 7.1 87.45 7.35 80.9 11.55 62.45 22.9 47.75 32.5 19.65 50.8 6.4 62.7
L 3.75 65.55
Q 1.5 69.1 3.7 72.3 11.3 83.7 21.7 99.1 37.7 122.6 42.4 128.6
L 44.75 131.3
Q 47.75 133.85 50.95 133.2 117 121.25 124.45 119.25 125.8 118.9 126.95 117.9 129.25 115.85 128.2 112.6 121.85 87.1 114.5 61.25 99.8 9.55 94.65 7.75 Z"/>
</g>

<g id="Duplicate_Items_Folder_fdnd4545466_copy_2_Layer2_0_MEMBER_14_FILL">
<path fill="#FFFFFF" stroke="none" d="
M 68.55 38.3
Q 72.25 31.95 72.35 28.55 70.9 21.45 67.55 14.75 60.9 1.35 51.5 3.3 40.8 5.55 33.8 20.25 30.85 26.5 29.95 32.65 29.05 39 30.7 43.05 33.65 50.25 44.8 50.05 52.5 49.9 60.2 47 64.4 45.4 68.55 38.3 Z"/>
</g>

<g id="Duplicate_Items_Folder_fdnd4545466_copy_2_Layer2_0_MEMBER_15_FILL">
<path fill="#CECECE" stroke="none" d="
M 67.45 40.05
L 70.4 34.65
Q 68.55 29.5 65.45 24.55 59.35 14.7 53.45 15.8 46.65 17.1 41.95 25.3 37.4 33.2 39.85 37.7 41.9 41.45 53.35 41.6 63.35 41.75 67.45 40.05 Z"/>
</g>

<g id="Duplicate_Items_Folder_fdnd4545466_copy_2_Layer2_0_MEMBER_16_FILL">
<path fill="#FFFFFF" stroke="none" d="
M 38.25 72.1
L 39.8 57.8
Q 32.15 53.75 24.1 50.7 8 44.7 5.95 50.05 3.4 56.7 4.5 62.3 5.65 68.2 10.2 68.65 29.6 71.4 38.25 72.1 Z"/>
</g>

<g id="Duplicate_Items_Folder_fdnd4545466_copy_2_Layer2_0_MEMBER_17_MEMBER_0_FILL">
<path fill="#FFFFFF" stroke="none" d="
M 28.2 71.05
Q 31.3 64.8 24.6 50.9 8 44.65 5.95 50.05 3.4 56.7 4.5 62.3 5.65 68.2 10.2 68.65 19.6 70 28.2 71.05 Z"/>
</g>

<g id="Duplicate_Items_Folder_fdnd4545466_copy_2_Layer2_0_MEMBER_17_MEMBER_1_FILL">
<path fill="#FFCA61" stroke="none" d="
M 38.25 72.1
L 39.8 57.8
Q 32.5 53.9 24.6 50.9 31.3 64.8 28.2 71.05 35 71.85 38.25 72.1 Z"/>
</g>

<g id="Duplicate_Items_Folder_fdnd4545466_copy_2_Layer2_0_MEMBER_19_MEMBER_0_FILL">
<path fill="#FFFFFF" stroke="none" d="
M 25.65 69.15
L 15.05 67.95 11.55 71.5 11.1 72.2
Q 10.75 73.1 11.2 74.05 12.1 75.95 14.35 77.2 17.7 79.15 20.65 75.85 24.65 71.15 25.65 69.15 Z"/>
</g>

<g id="Duplicate_Items_Folder_fdnd4545466_copy_2_Layer2_0_MEMBER_30_FILL">
<path fill="#F2A0C4" stroke="none" d="
M 79.4 83.85
Q 78.2 82.7 75 81.35 74.2 81.15 73.15 81.1 71.15 81.05 70.2 82 68.85 83.5 69.05 87.6 69.3 92.05 71.9 92.6 74.7 93.25 77.9 91.2 81.05 89.15 80.8 86.85 80.6 85 79.4 83.85 Z"/>
</g>

<g id="Duplicate_Items_Folder_fdnd4545466_copy_2_Layer2_0_MEMBER_31_FILL">
<path fill="#F2A0C4" stroke="none" d="
M 108.65 85.4
Q 109.8 86.2 112.4 86.8
L 113.85 86.7
Q 115.35 86.4 115.85 85.35 116.55 83.85 115.55 80.35 114.45 76.5 112.4 76.45 110.15 76.4 108.25 78.8 106.35 81.1 107 83.05 107.55 84.6 108.65 85.4 Z"/>
</g>

<g id="Duplicate_Items_Folder_fdnd4545466_copy_2_Layer2_0_MEMBER_33_MEMBER_0_FILL">
<path fill="#000000" stroke="none" d="
M 92.45 84.45
Q 92.45 81.45 91.3 79.35 90.15 77.2 88.55 77.2 87.35 77.2 86.35 78.45 85.35 79.7 84.9 81.7
L 87.45 83.2 84.65 84.8
Q 84.75 87.7 85.85 89.7 87 91.7 88.55 91.7 90.15 91.7 91.3 89.6 92.45 87.45 92.45 84.45 Z"/>
</g>

<path id="Duplicate_Items_Folder_fdnd4545466_copy_2_Layer2_0_MEMBER_2_1_STROKES" stroke="#000000" stroke-width="2" stroke-linejoin="miter" stroke-linecap="butt" stroke-miterlimit="4" fill="none" d="
M 106.9 53.95
L 116.9 47.35
Q 128.15 41 134.35 42.25 138.3 43.05 140.9 47.05 143.7 51.35 142.25 55.6 138.3 67.25 108.15 66.35"/>

<path id="Duplicate_Items_Folder_fdnd4545466_copy_2_Layer2_0_MEMBER_3_MEMBER_1_1_STROKES" stroke="#000000" stroke-width="2" stroke-linejoin="miter" stroke-linecap="round" stroke-miterlimit="4" fill="none" d="
M 135.85 61.05
L 136.8 63.9
Q 137.25 66.95 134.8 67.9 131.9 69 131.15 68.75 129.45 68.3 127 64.05"/>

<path id="Duplicate_Items_Folder_fdnd4545466_copy_2_Layer2_0_MEMBER_4_1_STROKES" stroke="#000000" stroke-width="2" stroke-linejoin="miter" stroke-linecap="butt" stroke-miterlimit="4" fill="none" d="
M 99 22.45
L 100.85 18.6
Q 103.25 14.05 106.05 10.45 115.1 -1.05 124.8 1.4 130.55 2.85 133.6 10.35 136.55 17.75 134.7 25.5 132.6 34.1 125.25 37.9 116.55 42.45 102.4 38.9
L 99 22.45 Z"/>

<path id="Duplicate_Items_Folder_fdnd4545466_copy_2_Layer2_0_MEMBER_5_1_STROKES" stroke="#000000" stroke-width="1" stroke-linejoin="miter" stroke-linecap="butt" stroke-miterlimit="4" fill="none" d="
M 102.2 27.85
L 103.7 24.75
Q 105.65 21.1 107.75 18.1 114.4 8.5 119.95 9.45 123.3 10.05 125.7 15.4 128.1 20.75 127.25 26.1 126.25 32.2 121.1 34.4 114.85 37.1 103.65 33.25
L 102.2 27.85 Z"/>

<path id="Duplicate_Items_Folder_fdnd4545466_copy_2_Layer2_0_MEMBER_6_1_STROKES" stroke="#000000" stroke-width="2" stroke-linejoin="miter" stroke-linecap="butt" stroke-miterlimit="4" fill="none" d="
M 22.8 98.65
Q 22 98.6 20.8 98.7 18.4 99 16.35 99.95 9.85 103 9.55 111.8
L 9.6 113.4
Q 10.05 115.25 12.1 116.75 18.55 121.45 23.15 122.8 32.85 125.7 39.2 117.95
L 22.8 98.65 Z"/>

<path id="Duplicate_Items_Folder_fdnd4545466_copy_2_Layer2_0_MEMBER_9_1_STROKES" stroke="#000000" stroke-width="2" stroke-linejoin="miter" stroke-linecap="butt" stroke-miterlimit="4" fill="none" d="
M 67.85 124.95
L 71.05 132.45
Q 74.35 140.35 75 142.5 75.9 145.35 77.35 146.35 79.05 147.6 82.55 147.15 89 146.25 94.65 142.85 102.3 138.2 97.65 132.95 93.15 127.9 91 123.5
L 89.75 120.1"/>

<path id="Duplicate_Items_Folder_fdnd4545466_copy_2_Layer2_0_MEMBER_10_1_STROKES" stroke="#000000" stroke-width="1" stroke-linejoin="miter" stroke-linecap="round" stroke-miterlimit="4" fill="none" d="
M 97.05 136.05
Q 94.8 136 91.45 137.05 84.75 139.15 79.2 144.5"/>

<path id="Duplicate_Items_Folder_fdnd4545466_copy_2_Layer2_0_MEMBER_11_1_STROKES" stroke="#000000" stroke-width="1" stroke-linejoin="miter" stroke-linecap="round" stroke-miterlimit="4" fill="none" d="
M 24 98.65
L 19.45 106.7"/>

<path id="Duplicate_Items_Folder_fdnd4545466_copy_2_Layer2_0_MEMBER_12_1_STROKES" stroke="#000000" stroke-width="3" stroke-linejoin="miter" stroke-linecap="round" stroke-miterlimit="4" fill="none" d="
M 9.45 52.75
Q 7.75 50.15 6.45 46.7 3.8884765625 40.00078125 5.75 36.075 3.9509765625 34.3166015625 2.6 30.8 -0.45 22.85 4.8 16.55 7.4 13.45 10.65 11.9
M 5.75 36.075
Q 5.77109375 36.00859375 5.8 35.95 7.95 31.75 11.85 31.6 15.4 31.4 15.95 33.4 16.2 34.2 14.8 35.6 13.25 37.1 11.3 37.6 8.1302734375 38.399609375 5.75 36.075 Z"/>

<path id="Duplicate_Items_Folder_fdnd4545466_copy_2_Layer2_0_MEMBER_13_1_STROKES" stroke="#000000" stroke-width="2" stroke-linejoin="miter" stroke-linecap="butt" stroke-miterlimit="4" fill="none" d="
M 94.65 7.75
Q 93.85 7 91.7 7.1 87.45 7.35 80.9 11.55 62.45 22.9 47.75 32.5 19.65 50.8 6.4 62.7
L 3.75 65.55
Q 1.5 69.1 3.7 72.3 11.3 83.7 21.7 99.1 37.7 122.6 42.4 128.6
L 44.75 131.3
Q 47.75 133.85 50.95 133.2 117 121.25 124.45 119.25 125.8 118.9 126.95 117.9 129.25 115.85 128.2 112.6 121.85 87.1 114.5 61.25 99.8 9.55 94.65 7.75 Z"/>

<path id="Duplicate_Items_Folder_fdnd4545466_copy_2_Layer2_0_MEMBER_14_1_STROKES" stroke="#000000" stroke-width="2" stroke-linejoin="miter" stroke-linecap="butt" stroke-miterlimit="4" fill="none" d="
M 72.35 28.55
Q 70.9 21.45 67.55 14.75 60.9 1.35 51.5 3.3 40.8 5.55 33.8 20.25 30.85 26.5 29.95 32.65 29.05 39 30.7 43.05 33.65 50.25 44.8 50.05 52.5 49.9 60.2 47 64.4 45.4 68.55 38.3 72.25 31.95 72.35 28.55 Z"/>

<path id="Duplicate_Items_Folder_fdnd4545466_copy_2_Layer2_0_MEMBER_15_1_STROKES" stroke="#000000" stroke-width="1" stroke-linejoin="miter" stroke-linecap="butt" stroke-miterlimit="4" fill="none" d="
M 70.4 34.65
Q 68.55 29.5 65.45 24.55 59.35 14.7 53.45 15.8 46.65 17.1 41.95 25.3 37.4 33.2 39.85 37.7 41.9 41.45 53.35 41.6 63.35 41.75 67.45 40.05
L 70.4 34.65 Z"/>

<path id="Duplicate_Items_Folder_fdnd4545466_copy_2_Layer2_0_MEMBER_18_1_STROKES" stroke="#000000" stroke-width="2" stroke-linejoin="miter" stroke-linecap="round" stroke-miterlimit="4" fill="none" d="
M 39.8 57.8
Q 32.15 53.75 24.1 50.7 8 44.7 5.95 50.05 3.4 56.7 4.5 62.3 5.65 68.2 10.2 68.65 29.6 71.4 38.25 72.1"/>

<path id="Duplicate_Items_Folder_fdnd4545466_copy_2_Layer2_0_MEMBER_19_MEMBER_1_1_STROKES" stroke="#000000" stroke-width="2" stroke-linejoin="miter" stroke-linecap="round" stroke-miterlimit="4" fill="none" d="
M 15.05 67.95
L 11.55 71.5 11.1 72.2
Q 10.75 73.1 11.2 74.05 12.1 75.95 14.35 77.2 17.7 79.15 20.65 75.85 24.65 71.15 25.65 69.15"/>

<path id="Duplicate_Items_Folder_fdnd4545466_copy_2_Layer2_0_MEMBER_20_1_STROKES" stroke="#000000" stroke-width="1.5" stroke-linejoin="miter" stroke-linecap="round" stroke-miterlimit="4" fill="none" d="
M 49.15 127.05
Q 53.85 110.5 61.1 88.1 75.6 43.3 88.55 14.25"/>

<path id="Duplicate_Items_Folder_fdnd4545466_copy_2_Layer2_0_MEMBER_21_1_STROKES" stroke="#000000" stroke-width="1" stroke-linejoin="miter" stroke-linecap="round" stroke-miterlimit="4" fill="none" d="
M 55.8 61.65
L 54.85 62.35
Q 53.95 63.35 54 64.9 54.05 66.45 54.95 67.05 55.4 67.35 55.8 67.35"/>

<path id="Duplicate_Items_Folder_fdnd4545466_copy_2_Layer2_0_MEMBER_22_1_STROKES" stroke="#000000" stroke-width="1" stroke-linejoin="miter" stroke-linecap="round" stroke-miterlimit="4" fill="none" d="
M 37.45 84.25
L 38.95 83.6
Q 40.65 83.15 41.6 84.25 43.15 86 42.85 88.5 42.5 91.45 39.1 91.7"/>

<path id="Duplicate_Items_Folder_fdnd4545466_copy_2_Layer2_0_MEMBER_23_1_STROKES" stroke="#000000" stroke-width="1" stroke-linejoin="miter" stroke-linecap="round" stroke-miterlimit="4" fill="none" d="
M 65.55 116.35
Q 65.3 115.15 65.5 113.95 65.9 111.45 68.3 111.25 71.15 111.05 73.3 112.7 75.45 114.3 74.95 116.35 74.5 118.05 73 118.55
L 71.55 118.7"/>

<path id="Duplicate_Items_Folder_fdnd4545466_copy_2_Layer2_0_MEMBER_24_1_STROKES" stroke="#000000" stroke-width="1" stroke-linejoin="miter" stroke-linecap="round" stroke-miterlimit="4" fill="none" d="
M 118.6 104.95
Q 117.45 104.55 116.3 104.6 114 104.75 114 107.1 114 109.5 116.3 109.8 117.45 109.95 118.6 109.6"/>

<path id="Duplicate_Items_Folder_fdnd4545466_copy_2_Layer2_0_MEMBER_25_1_STROKES" stroke="#000000" stroke-width="1" stroke-linejoin="miter" stroke-linecap="round" stroke-miterlimit="4" fill="none" d="
M 93.15 39.1
Q 91.5 38.9 90.1 38.1 87.3 36.5 88.55 33.7 89.95 30.65 92 30.8 93.8 30.9 94.3 32.7"/>

<path id="Duplicate_Items_Folder_fdnd4545466_copy_2_Layer2_0_MEMBER_26_1_STROKES" stroke="#000000" stroke-width="1" stroke-linejoin="miter" stroke-linecap="round" stroke-miterlimit="4" fill="none" d="
M 101.05 46.65
L 102.45 45.95
Q 103.7 45.75 102.85 48.35"/>

<path id="Duplicate_Items_Folder_fdnd4545466_copy_2_Layer2_0_MEMBER_27_1_STROKES" stroke="#000000" stroke-width="3" stroke-linejoin="miter" stroke-linecap="round" stroke-miterlimit="4" fill="none" d="
M 83.5 61.65
L 87.55 59.85"/>

<path id="Duplicate_Items_Folder_fdnd4545466_copy_2_Layer2_0_MEMBER_28_1_STROKES" stroke="#000000" stroke-width="3" stroke-linejoin="miter" stroke-linecap="round" stroke-miterlimit="4" fill="none" d="
M 102.1 57.6
L 106.1 58.35"/>

<path id="Duplicate_Items_Folder_fdnd4545466_copy_2_Layer2_0_MEMBER_29_1_STROKES" stroke="#000000" stroke-width="2" stroke-linejoin="miter" stroke-linecap="round" stroke-miterlimit="4" fill="none" d="
M 105.35 77.65
Q 101.85 80.2 99 84.35
L 104.1 87.55"/>

<path id="Duplicate_Items_Folder_fdnd4545466_copy_2_Layer2_0_MEMBER_32_1_STROKES" stroke="#000000" stroke-width="2" stroke-linejoin="miter" stroke-linecap="round" stroke-miterlimit="4" fill="none" d="
M 75.7 85.7
L 75.9 88.2
Q 76.4 91.1 77.75 93.45 82.05 100.85 93.6 99.2"/>
</defs>

<g transform="matrix( 0.3499755859375, 0, 0, 0.3499755859375, 32,30) ">
<g transform="matrix( 1, 0, 0, 1, -72.1,-74.1) ">
<use xlink:href="#Duplicate_Items_Folder_fdnd4545466_copy_2_Layer2_0_MEMBER_0_FILL"/>
</g>

<g transform="matrix( 1, 0, 0, 1, -72.1,-74.1) ">
<use xlink:href="#Duplicate_Items_Folder_fdnd4545466_copy_2_Layer2_0_MEMBER_1_MEMBER_0_FILL"/>
</g>

<g transform="matrix( 1, 0, 0, 1, -72.1,-74.1) ">
<use xlink:href="#Duplicate_Items_Folder_fdnd4545466_copy_2_Layer2_0_MEMBER_1_MEMBER_1_FILL"/>
</g>

<g transform="matrix( 1, 0, 0, 1, -72.1,-74.1) ">
<use xlink:href="#Duplicate_Items_Folder_fdnd4545466_copy_2_Layer2_0_MEMBER_2_1_STROKES"/>
</g>

<g transform="matrix( 1, 0, 0, 1, -72.1,-74.1) ">
<use xlink:href="#Duplicate_Items_Folder_fdnd4545466_copy_2_Layer2_0_MEMBER_3_MEMBER_0_FILL"/>
</g>

<g transform="matrix( 1, 0, 0, 1, -72.1,-74.1) ">
<use xlink:href="#Duplicate_Items_Folder_fdnd4545466_copy_2_Layer2_0_MEMBER_3_MEMBER_1_1_STROKES"/>
</g>

<g transform="matrix( 1, 0, 0, 1, -72.1,-74.1) ">
<use xlink:href="#Duplicate_Items_Folder_fdnd4545466_copy_2_Layer2_0_MEMBER_4_FILL"/>

<use xlink:href="#Duplicate_Items_Folder_fdnd4545466_copy_2_Layer2_0_MEMBER_4_1_STROKES"/>
</g>

<g transform="matrix( 1, 0, 0, 1, -72.1,-74.1) ">
<use xlink:href="#Duplicate_Items_Folder_fdnd4545466_copy_2_Layer2_0_MEMBER_5_FILL"/>

<use xlink:href="#Duplicate_Items_Folder_fdnd4545466_copy_2_Layer2_0_MEMBER_5_1_STROKES"/>
</g>

<g transform="matrix( 1, 0, 0, 1, -72.1,-74.1) ">
<use xlink:href="#Duplicate_Items_Folder_fdnd4545466_copy_2_Layer2_0_MEMBER_6_FILL"/>

<use xlink:href="#Duplicate_Items_Folder_fdnd4545466_copy_2_Layer2_0_MEMBER_6_1_STROKES"/>
</g>

<g transform="matrix( 1, 0, 0, 1, -72.1,-74.1) ">
<use xlink:href="#Duplicate_Items_Folder_fdnd4545466_copy_2_Layer2_0_MEMBER_7_FILL"/>
</g>

<g transform="matrix( 1, 0, 0, 1, -72.1,-74.1) ">
<use xlink:href="#Duplicate_Items_Folder_fdnd4545466_copy_2_Layer2_0_MEMBER_8_MEMBER_0_FILL"/>
</g>

<g transform="matrix( 1, 0, 0, 1, -72.1,-74.1) ">
<use xlink:href="#Duplicate_Items_Folder_fdnd4545466_copy_2_Layer2_0_MEMBER_8_MEMBER_1_FILL"/>
</g>

<g transform="matrix( 1, 0, 0, 1, -72.1,-74.1) ">
<use xlink:href="#Duplicate_Items_Folder_fdnd4545466_copy_2_Layer2_0_MEMBER_9_1_STROKES"/>
</g>

<g transform="matrix( 1, 0, 0, 1, -72.1,-74.1) ">
<use xlink:href="#Duplicate_Items_Folder_fdnd4545466_copy_2_Layer2_0_MEMBER_10_1_STROKES"/>
</g>

<g transform="matrix( 1, 0, 0, 1, -72.1,-74.1) ">
<use xlink:href="#Duplicate_Items_Folder_fdnd4545466_copy_2_Layer2_0_MEMBER_11_1_STROKES"/>
</g>

<g transform="matrix( 1, 0, 0, 1, -72.1,-74.1) ">
<use xlink:href="#Duplicate_Items_Folder_fdnd4545466_copy_2_Layer2_0_MEMBER_12_1_STROKES"/>
</g>

<g transform="matrix( 1, 0, 0, 1, -72.1,-74.1) ">
<use xlink:href="#Duplicate_Items_Folder_fdnd4545466_copy_2_Layer2_0_MEMBER_13_FILL"/>

<use xlink:href="#Duplicate_Items_Folder_fdnd4545466_copy_2_Layer2_0_MEMBER_13_1_STROKES"/>
</g>

<g transform="matrix( 1, 0, 0, 1, -72.1,-74.1) ">
<use xlink:href="#Duplicate_Items_Folder_fdnd4545466_copy_2_Layer2_0_MEMBER_14_FILL"/>

<use xlink:href="#Duplicate_Items_Folder_fdnd4545466_copy_2_Layer2_0_MEMBER_14_1_STROKES"/>
</g>

<g transform="matrix( 1, 0, 0, 1, -72.1,-74.1) ">
<use xlink:href="#Duplicate_Items_Folder_fdnd4545466_copy_2_Layer2_0_MEMBER_15_FILL"/>

<use xlink:href="#Duplicate_Items_Folder_fdnd4545466_copy_2_Layer2_0_MEMBER_15_1_STROKES"/>
</g>

<g transform="matrix( 1, 0, 0, 1, -72.1,-74.1) ">
<use xlink:href="#Duplicate_Items_Folder_fdnd4545466_copy_2_Layer2_0_MEMBER_16_FILL"/>
</g>

<g transform="matrix( 1, 0, 0, 1, -72.1,-74.1) ">
<use xlink:href="#Duplicate_Items_Folder_fdnd4545466_copy_2_Layer2_0_MEMBER_17_MEMBER_0_FILL"/>
</g>

<g transform="matrix( 1, 0, 0, 1, -72.1,-74.1) ">
<use xlink:href="#Duplicate_Items_Folder_fdnd4545466_copy_2_Layer2_0_MEMBER_17_MEMBER_1_FILL"/>
</g>

<g transform="matrix( 1, 0, 0, 1, -72.1,-74.1) ">
<use xlink:href="#Duplicate_Items_Folder_fdnd4545466_copy_2_Layer2_0_MEMBER_18_1_STROKES"/>
</g>

<g transform="matrix( 1, 0, 0, 1, -72.1,-74.1) ">
<use xlink:href="#Duplicate_Items_Folder_fdnd4545466_copy_2_Layer2_0_MEMBER_19_MEMBER_0_FILL"/>
</g>

<g transform="matrix( 1, 0, 0, 1, -72.1,-74.1) ">
<use xlink:href="#Duplicate_Items_Folder_fdnd4545466_copy_2_Layer2_0_MEMBER_19_MEMBER_1_1_STROKES"/>
</g>

<g transform="matrix( 1, 0, 0, 1, -72.1,-74.1) ">
<use xlink:href="#Duplicate_Items_Folder_fdnd4545466_copy_2_Layer2_0_MEMBER_20_1_STROKES"/>
</g>

<g transform="matrix( 1, 0, 0, 1, -72.1,-74.1) ">
<use xlink:href="#Duplicate_Items_Folder_fdnd4545466_copy_2_Layer2_0_MEMBER_21_1_STROKES"/>
</g>

<g transform="matrix( 1, 0, 0, 1, -72.1,-74.1) ">
<use xlink:href="#Duplicate_Items_Folder_fdnd4545466_copy_2_Layer2_0_MEMBER_22_1_STROKES"/>
</g>

<g transform="matrix( 1, 0, 0, 1, -72.1,-74.1) ">
<use xlink:href="#Duplicate_Items_Folder_fdnd4545466_copy_2_Layer2_0_MEMBER_23_1_STROKES"/>
</g>

<g transform="matrix( 1, 0, 0, 1, -72.1,-74.1) ">
<use xlink:href="#Duplicate_Items_Folder_fdnd4545466_copy_2_Layer2_0_MEMBER_24_1_STROKES"/>
</g>

<g transform="matrix( 1, 0, 0, 1, -72.1,-74.1) ">
<use xlink:href="#Duplicate_Items_Folder_fdnd4545466_copy_2_Layer2_0_MEMBER_25_1_STROKES"/>
</g>

<g transform="matrix( 1, 0, 0, 1, -72.1,-74.1) ">
<use xlink:href="#Duplicate_Items_Folder_fdnd4545466_copy_2_Layer2_0_MEMBER_26_1_STROKES"/>
</g>

<g transform="matrix( 1, 0, 0, 1, -72.1,-74.1) ">
<use xlink:href="#Duplicate_Items_Folder_fdnd4545466_copy_2_Layer2_0_MEMBER_27_1_STROKES"/>
</g>

<g transform="matrix( 1, 0, 0, 1, -72.1,-74.1) ">
<use xlink:href="#Duplicate_Items_Folder_fdnd4545466_copy_2_Layer2_0_MEMBER_28_1_STROKES"/>
</g>

<g transform="matrix( 1, 0, 0, 1, -72.1,-74.1) ">
<use xlink:href="#Duplicate_Items_Folder_fdnd4545466_copy_2_Layer2_0_MEMBER_29_1_STROKES"/>
</g>

<g transform="matrix( 1, 0, 0, 1, -72.1,-74.1) ">
<use xlink:href="#Duplicate_Items_Folder_fdnd4545466_copy_2_Layer2_0_MEMBER_30_FILL"/>
</g>

<g transform="matrix( 1, 0, 0, 1, -72.1,-74.1) ">
<use xlink:href="#Duplicate_Items_Folder_fdnd4545466_copy_2_Layer2_0_MEMBER_31_FILL"/>
</g>

<g transform="matrix( 1, 0, 0, 1, -72.1,-74.1) ">
<use xlink:href="#Duplicate_Items_Folder_fdnd4545466_copy_2_Layer2_0_MEMBER_32_1_STROKES"/>
</g>

<g transform="matrix( 1, 0, 0, 1, -72.1,-74.1) ">
<use xlink:href="#Duplicate_Items_Folder_fdnd4545466_copy_2_Layer2_0_MEMBER_33_MEMBER_0_FILL"/>
</g>
</g>
</svg>
