
<svg xmlns="http://www.w3.org/2000/svg" version="1.1" xmlns:xlink="http://www.w3.org/1999/xlink" preserveAspectRatio="none" x="0px" y="0px" width="60px" height="60px" viewBox="0 0 60 60">
<defs>
<g id="Layer0_0_FILL">
<path fill="#3567D7" stroke="none" d="
M 24.35 21.7
L 20.85 21.7
Q 20.1 21.7 20.1 22.65
L 20.1 36.25
Q 20.1 37.2 20.2 37.85 20.35 38.45 20.6 38.8 20.85 39.15 21.35 39.35 21.85 39.5 22.6 39.5
L 39.6 39.5
Q 39.85 39.5 40.1 39.4 40.35 39.3 40.35 38.7
L 40.35 35.15
Q 40.35 34.7 40.1 34.5 39.85 34.35 39.6 34.35
L 25.65 34.35
Q 25.15 34.35 25.15 33.7
L 25.15 22.65
Q 25.15 21.7 24.35 21.7 Z"/>
</g>

<path id="Layer0_0_1_STROKES" stroke="#3567D7" stroke-width="3" stroke-linejoin="round" stroke-linecap="round" fill="none" d="
M 53.1 30
Q 53.1 39.55 46.3 46.3 39.55 53.1 30 53.1 20.4 53.1 13.65 46.3 6.9 39.55 6.9 30 6.9 20.4 13.65 13.65 20.4 6.9 30 6.9 39.55 6.9 46.3 13.65 53.1 20.4 53.1 30 Z"/>
</defs>

<g transform="matrix( 1, 0, 0, 1, 0,0) ">
<use xlink:href="#Layer0_0_FILL"/>

<use xlink:href="#Layer0_0_1_STROKES"/>
</g>
</svg>
