
<svg xmlns="http://www.w3.org/2000/svg" version="1.1" xmlns:xlink="http://www.w3.org/1999/xlink" preserveAspectRatio="none" x="0px" y="0px" width="1280px" height="720px" viewBox="0 0 1280 720">
<defs>
<g id="Layer0_0_FILL">
<path fill="#E50182" stroke="none" d="
M 376.95 441.8
Q 374.75 439.6 371.65 439.6 368.55 439.6 366.35 441.8 364.15 444 364.15 447.1 364.15 450.2 366.35 452.4 368.55 454.6 371.65 454.6 374.75 454.6 376.95 452.4 379.15 450.2 379.15 447.1 379.15 444 376.95 441.8 Z"/>
</g>

<g id="bd4546_0_Layer0_0_MEMBER_0_FILL">
<path fill="#EC008C" stroke="none" d="
M 842.8 595.55
L 889.95 595.55 866.4 554.7 842.8 595.55 Z"/>
</g>

<g id="bd4546_0_Layer0_0_MEMBER_1_FILL">
<path fill="#EC008C" stroke="none" d="
M 868.9 513.45
L 859.9 513.45 859.9 591.45 868.9 591.45 868.9 513.45 Z"/>
</g>

<g id="Layer0_2_FILL">
<path fill="#3567D7" stroke="none" d="
M 396.25 346.6
L 396.25 349.4
Q 396.25 349.75 396.45 349.9 396.65 350.1 396.95 350.1
L 409.7 350.1 399.25 375.65
Q 399.1 376.1 399.25 376.2 399.4 376.35 400 376.35
L 403.25 376.35
Q 403.65 376.35 403.8 376.25 403.95 376.1 404.15 375.8
L 414.7 349.75
Q 414.95 349.45 414.95 349.1
L 414.95 346.7
Q 414.95 346.25 414.8 346.1 414.65 345.95 413.95 345.95
L 396.95 345.95
Q 396.25 345.95 396.25 346.6
M 364.45 372.7
Q 363.15 372.7 362.25 373.6 361.35 374.45 361.35 375.75 361.35 377.05 362.25 377.95 363.15 378.85 364.45 378.85 365.7 378.85 366.6 377.95 367.45 377.05 367.45 375.75 367.45 374.45 366.6 373.6 365.7 372.7 364.45 372.7
M 350.15 346.35
Q 348.6 345.7 346.55 345.7 343.35 345.7 341.4 347.15 339.45 348.65 338.35 350.9 337.25 353.2 336.85 355.9 336.5 358.65 336.5 361.1 336.5 368.45 338.95 372.5 341.4 376.55 346.55 376.55 349.1 376.55 350.95 375.55 352.8 374.45 354.05 372.5 355.3 370.55 355.9 367.65 356.5 364.75 356.5 361.1 356.5 359.45 356.3 357.7 356.15 355.9 355.75 354.2 355.35 352.5 354.65 350.95 353.95 349.4 352.8 348.2 351.75 347.05 350.15 346.35
M 346.55 350.05
Q 347.75 350.05 348.8 350.65 349.8 351.2 350.55 352.5 351.25 353.85 351.65 355.95 352 358.1 352 361.1 352 364.2 351.65 366.35 351.25 368.45 350.55 369.75 349.8 371.1 348.8 371.65 347.75 372.25 346.55 372.25 345.25 372.25 344.25 371.65 343.25 371.1 342.55 369.75 341.8 368.45 341.45 366.35 341.05 364.2 341.05 361.1 341.05 358.1 341.45 355.95 341.8 353.85 342.55 352.5 343.25 351.2 344.25 350.65 345.25 350.05 346.55 350.05
M 384.5 346.15
Q 382.9 345.6 380.95 345.6 379.1 345.6 377.1 346.25 375.15 346.9 373.65 347.7 373.25 347.9 373.1 348.15 373 348.3 373.1 348.5
L 373.65 351.55
Q 373.75 351.9 374.05 351.95 374.35 351.95 374.7 351.75 376.5 350.7 378 350.25 379.55 349.8 381.2 349.8 382.95 349.8 384.1 351.05 385.3 352.3 385.3 354.2 385.3 355.9 383.7 358.5 382.1 361.15 378.75 365.1
L 372.65 372.35
Q 372.45 372.65 372.25 372.95 372.1 373.3 372.1 373.6
L 372.1 375.9
Q 372.1 376.4 372.85 376.4
L 389.9 376.4
Q 390.45 376.4 390.45 375.7
L 390.45 372.9
Q 390.45 372.3 389.9 372.3
L 378.15 372.3
Q 379.15 371.15 380.15 370 381.15 368.8 382 367.7 383.1 366.4 384.5 364.8 385.85 363.15 387.05 361.4 388.25 359.6 389.05 357.75 389.85 355.9 389.85 354.1 389.85 352 389.15 350.4 388.45 348.8 387.3 347.75 386.15 346.7 384.5 346.15 Z"/>
</g>
</defs>

<g transform="matrix( 1, 0, 0, 1, 4.15,22.5) ">
<use xlink:href="#Layer0_0_FILL"/>
</g>

<g transform="matrix( -1.5706787109375, 0, 0, -0.93377685546875, 376.4,423.35) ">
<g transform="matrix( 0.40716552734375, 0, 0, 0.40716552734375, -352.75,-256.25) ">
<use xlink:href="#bd4546_0_Layer0_0_MEMBER_0_FILL"/>
</g>

<g transform="matrix( 0.6552734375, 0, 0, 0.6552734375, -566.35,-357.15) ">
<use xlink:href="#bd4546_0_Layer0_0_MEMBER_1_FILL"/>
</g>
</g>

<g transform="matrix( 1, 0, 0, 1, 0,0) ">
<use xlink:href="#Layer0_2_FILL"/>
</g>
</svg>
