
<svg xmlns="http://www.w3.org/2000/svg" version="1.1" xmlns:xlink="http://www.w3.org/1999/xlink" preserveAspectRatio="none" x="0px" y="0px" width="1280px" height="720px" viewBox="0 0 1280 720">
<defs>
<g id="Layer0_0_FILL">
<path fill="#1E1E1E" stroke="none" d="
M 431.1 304.75
Q 431.3 304.75 431.45 304.6 431.6 304.45 431.6 304.25
L 431.6 301.1
Q 431.6 300.9 431.45 300.75 431.3 300.6 431.1 300.6
L 410 300.6
Q 409.8 300.6 409.65 300.75 409.5 300.9 409.5 301.1
L 409.5 304.25
Q 409.5 304.45 409.65 304.6 409.8 304.75 410 304.75
L 431.1 304.75
M 431.45 309.05
Q 431.3 308.95 431.1 308.95
L 410 308.95
Q 409.8 308.95 409.65 309.05 409.5 309.2 409.5 309.4
L 409.5 312.55
Q 409.5 312.8 409.65 312.9 409.8 313.05 410 313.05
L 431.1 313.05
Q 431.3 313.05 431.45 312.9 431.6 312.8 431.6 312.55
L 431.6 309.4
Q 431.6 309.2 431.45 309.05
M 353.1 318.35
Q 351.8 318.35 350.9 319.25 350 320.1 350 321.4 350 322.7 350.9 323.6 351.8 324.5 353.1 324.5 354.35 324.5 355.25 323.6 356.1 322.7 356.1 321.4 356.1 320.1 355.25 319.25 354.35 318.35 353.1 318.35
M 397.3 291.6
L 395.2 291.6
Q 395.05 291.6 394.85 291.7 394.65 291.75 394.6 291.85
L 388.45 297.5
Q 388.25 297.7 388.25 297.9 388.2 298.15 388.35 298.3
L 390.15 300.45
Q 390.3 300.6 390.55 300.55 390.8 300.55 391.05 300.4
L 394 297.8 394 321.5
Q 394 322 394.55 322
L 397.75 322
Q 398.25 322 398.25 321.5
L 398.25 292.7
Q 398.25 291.9 398.1 291.75 398 291.6 397.3 291.6
M 362.7 293.35
Q 362.3 293.55 362.15 293.8 362.05 293.95 362.15 294.15
L 362.7 297.2
Q 362.8 297.55 363.1 297.6 363.4 297.6 363.75 297.4 365.55 296.35 367.05 295.9 368.6 295.45 370.25 295.45 372 295.45 373.15 296.7 374.35 297.95 374.35 299.85 374.35 301.55 372.75 304.15 371.15 306.8 367.8 310.75
L 361.7 318
Q 361.5 318.3 361.3 318.6 361.15 318.95 361.15 319.25
L 361.15 321.55
Q 361.15 322.05 361.9 322.05
L 378.95 322.05
Q 379.5 322.05 379.5 321.35
L 379.5 318.55
Q 379.5 317.95 378.95 317.95
L 367.2 317.95
Q 368.2 316.8 369.2 315.65 370.2 314.45 371.05 313.35 372.15 312.05 373.55 310.45 374.9 308.8 376.1 307.05 377.3 305.25 378.1 303.4 378.9 301.55 378.9 299.75 378.9 297.65 378.2 296.05 377.5 294.45 376.35 293.4 375.2 292.35 373.55 291.8 371.95 291.25 370 291.25 368.15 291.25 366.15 291.9 364.2 292.55 362.7 293.35
M 342.9 296.6
Q 342.2 295.05 341.05 293.85 340 292.7 338.4 292 336.85 291.35 334.8 291.35 331.6 291.35 329.65 292.8 327.7 294.3 326.6 296.55 325.5 298.85 325.1 301.55 324.75 304.3 324.75 306.75 324.75 314.1 327.2 318.15 329.65 322.2 334.8 322.2 337.35 322.2 339.2 321.2 341.05 320.1 342.3 318.15 343.55 316.2 344.15 313.3 344.75 310.4 344.75 306.75 344.75 305.1 344.55 303.35 344.4 301.55 344 299.85 343.6 298.15 342.9 296.6
M 334.8 295.7
Q 336 295.7 337.05 296.3 338.05 296.85 338.8 298.15 339.5 299.5 339.9 301.6 340.25 303.75 340.25 306.75 340.25 309.85 339.9 312 339.5 314.1 338.8 315.4 338.05 316.75 337.05 317.3 336 317.9 334.8 317.9 333.5 317.9 332.5 317.3 331.5 316.75 330.8 315.4 330.05 314.1 329.7 312 329.3 309.85 329.3 306.75 329.3 303.75 329.7 301.6 330.05 299.5 330.8 298.15 331.5 296.85 332.5 296.3 333.5 295.7 334.8 295.7
M 311.6 296.35
Q 311.6 296.2 311.5 296 311.35 295.9 311.15 295.9
L 307.85 295.9
Q 307.7 295.9 307.5 296 307.4 296.2 307.4 296.35
L 307.4 304.75 298.9 304.75
Q 298.7 304.75 298.6 304.9 298.45 305.05 298.45 305.25
L 298.45 308.35
Q 298.45 308.55 298.6 308.7 298.7 308.85 298.9 308.85
L 307.4 308.85 307.4 317.3
Q 307.4 317.8 307.85 317.8
L 311.15 317.8
Q 311.6 317.8 311.6 317.3
L 311.6 308.85 320.05 308.85
Q 320.55 308.85 320.55 308.35
L 320.55 305.25
Q 320.55 304.75 320.05 304.75
L 311.6 304.75 311.6 296.35
M 277.25 291.55
Q 276.65 291.55 276.55 291.7 276.4 291.8 276.4 292.25
L 276.2 307
Q 276.2 308.35 277.75 307.7 279 307.25 280.4 307 281.8 306.7 283.1 306.7 286.4 306.7 287.8 308.25 289.25 309.75 289.25 312.35 289.25 315.05 287.45 316.55 285.75 318.1 283.05 318.1 282.35 318.1 281.5 318 280.7 317.95 279.85 317.8 279 317.6 278.2 317.4 277.4 317.15 276.85 316.85 276 316.45 276 317.15
L 276 320.4
Q 276 320.7 276 320.85 276.05 320.95 276.3 321.15 276.95 321.45 277.9 321.65 278.8 321.9 279.75 322.05 280.7 322.15 281.5 322.25 282.35 322.3 282.75 322.3 285.05 322.3 287.1 321.65 289.2 321 290.6 319.7 293.75 316.9 293.75 311.85 293.75 309.75 293 308.1 292.25 306.4 290.95 305.2 289.65 304.05 287.9 303.4 286.15 302.8 284.15 302.8 282.2 302.8 280.6 303.15
L 280.75 295.75 291.9 295.75
Q 292.15 295.75 292.3 295.55 292.4 295.4 292.4 295.15
L 292.4 292.1
Q 292.4 291.9 292.3 291.75 292.15 291.55 291.9 291.55
L 277.25 291.55
M 239.9 319.25
Q 239 320.1 239 321.4 239 322.7 239.9 323.6 240.8 324.5 242.1 324.5 243.35 324.5 244.25 323.6 245.1 322.7 245.1 321.4 245.1 320.1 244.25 319.25 243.35 318.35 242.1 318.35 240.8 318.35 239.9 319.25
M 218.65 292.8
Q 216.7 294.3 215.6 296.55 214.5 298.85 214.1 301.55 213.75 304.3 213.75 306.75 213.75 314.1 216.2 318.15 218.65 322.2 223.8 322.2 226.35 322.2 228.2 321.2 230.05 320.1 231.3 318.15 232.55 316.2 233.15 313.3 233.75 310.4 233.75 306.75 233.75 305.1 233.55 303.35 233.4 301.55 233 299.85 232.6 298.15 231.9 296.6 231.2 295.05 230.05 293.85 229 292.7 227.4 292 225.85 291.35 223.8 291.35 220.6 291.35 218.65 292.8
M 221.5 296.3
Q 222.5 295.7 223.8 295.7 225 295.7 226.05 296.3 227.05 296.85 227.8 298.15 228.5 299.5 228.9 301.6 229.25 303.75 229.25 306.75 229.25 309.85 228.9 312 228.5 314.1 227.8 315.4 227.05 316.75 226.05 317.3 225 317.9 223.8 317.9 222.5 317.9 221.5 317.3 220.5 316.75 219.8 315.4 219.05 314.1 218.7 312 218.3 309.85 218.3 306.75 218.3 303.75 218.7 301.6 219.05 299.5 219.8 298.15 220.5 296.85 221.5 296.3
M 250.65 295.55
Q 250.85 295.75 251.15 295.75
L 263.9 295.75 253.45 321.3
Q 253.3 321.75 253.45 321.85 253.6 322 254.2 322
L 257.45 322
Q 257.85 322 258 321.9 258.15 321.75 258.35 321.45
L 268.9 295.4
Q 269.15 295.1 269.15 294.75
L 269.15 292.35
Q 269.15 291.9 269 291.75 268.85 291.6 268.15 291.6
L 251.15 291.6
Q 250.45 291.6 250.45 292.25
L 250.45 295.05
Q 250.45 295.4 250.65 295.55
M 947 304.75
Q 947.2 304.75 947.35 304.6 947.5 304.45 947.5 304.25
L 947.5 301.1
Q 947.5 300.9 947.35 300.75 947.2 300.6 947 300.6
L 925.9 300.6
Q 925.7 300.6 925.55 300.75 925.4 300.9 925.4 301.1
L 925.4 304.25
Q 925.4 304.45 925.55 304.6 925.7 304.75 925.9 304.75
L 947 304.75
M 947.35 309.05
Q 947.2 308.95 947 308.95
L 925.9 308.95
Q 925.7 308.95 925.55 309.05 925.4 309.2 925.4 309.4
L 925.4 312.55
Q 925.4 312.8 925.55 312.9 925.7 313.05 925.9 313.05
L 947 313.05
Q 947.2 313.05 947.35 312.9 947.5 312.8 947.5 312.55
L 947.5 309.4
Q 947.5 309.2 947.35 309.05
M 903.35 292.6
Q 902.95 292.8 902.8 293 902.65 293.15 902.75 293.4
L 903.1 296.35
Q 903.2 296.7 903.4 296.8 903.6 296.9 904.1 296.7 904.7 296.45 905.5 296.2 906.3 295.95 907.1 295.8 907.9 295.6 908.65 295.5 909.35 295.4 909.9 295.4 910.75 295.4 911.7 295.6 912.65 295.8 913.5 296.3 914.3 296.75 914.85 297.55 915.35 298.3 915.35 299.3 915.35 300.65 914.55 301.55 913.75 302.5 912.55 303.1 911.4 303.7 910.15 303.95 908.9 304.2 908.05 304.2
L 906.15 304.2
Q 905.8 304.2 905.7 304.3 905.6 304.35 905.6 304.75
L 905.6 307.7
Q 905.6 308 905.7 308.1 905.8 308.2 906.15 308.2
L 908.1 308.2
Q 910.05 308.2 911.4 308.6 912.8 308.95 913.7 309.65 914.55 310.3 915 311.15 915.4 312 915.4 312.95 915.4 315.6 913.45 316.95 912.8 317.4 912.05 317.65 911.25 317.95 910.4 318.05 909.55 318.15 908.65 318.1 907.75 318.05 906.95 318 905.85 317.9 904.8 317.6 903.75 317.3 902.7 317 902.15 316.75 901.95 316.9 901.75 317 901.7 317.35
L 901.35 320.4
Q 901.3 320.75 901.5 320.9 901.65 321.1 902.05 321.2 903.5 321.75 905.25 322.05 907 322.35 908.75 322.35 911.05 322.35 913.2 321.75 915.35 321.2 916.85 319.95 918.35 318.7 919.2 316.95 920 315.15 920 313.05 920 310.85 918.65 309.05 917.3 307.3 914.65 306.15 915.75 305.65 916.7 304.9 917.65 304.15 918.35 303.15 919.05 302.2 919.45 301.15 919.8 300.05 919.8 298.95 919.8 296.95 918.95 295.45 918.1 293.95 916.75 293.05 915.45 292.15 913.7 291.7 911.95 291.25 910.15 291.25 908.45 291.25 906.8 291.6 905.1 292 903.35 292.6
M 872 321.4
Q 872 320.1 871.15 319.25 870.25 318.35 869 318.35 867.7 318.35 866.8 319.25 865.9 320.1 865.9 321.4 865.9 322.7 866.8 323.6 867.7 324.5 869 324.5 870.25 324.5 871.15 323.6 872 322.7 872 321.4
M 889.9 292.7
Q 889.9 291.9 889.75 291.75 889.65 291.6 888.95 291.6
L 886.85 291.6
Q 886.7 291.6 886.5 291.7 886.3 291.75 886.25 291.85
L 880.1 297.5
Q 879.9 297.7 879.9 297.9 879.85 298.15 880 298.3
L 881.8 300.45
Q 881.95 300.6 882.2 300.55 882.45 300.55 882.7 300.4
L 885.65 297.8 885.65 321.5
Q 885.65 322 886.2 322
L 889.4 322
Q 889.9 322 889.9 321.5
L 889.9 292.7
M 845.55 292.8
Q 843.6 294.3 842.5 296.55 841.4 298.85 841 301.55 840.65 304.3 840.65 306.75 840.65 314.1 843.1 318.15 845.55 322.2 850.7 322.2 853.25 322.2 855.1 321.2 856.95 320.1 858.2 318.15 859.45 316.2 860.05 313.3 860.65 310.4 860.65 306.75 860.65 305.1 860.45 303.35 860.3 301.55 859.9 299.85 859.5 298.15 858.8 296.6 858.1 295.05 856.95 293.85 855.9 292.7 854.3 292 852.75 291.35 850.7 291.35 847.5 291.35 845.55 292.8
M 850.7 295.7
Q 851.9 295.7 852.95 296.3 853.95 296.85 854.7 298.15 855.4 299.5 855.8 301.6 856.15 303.75 856.15 306.75 856.15 309.85 855.8 312 855.4 314.1 854.7 315.4 853.95 316.75 852.95 317.3 851.9 317.9 850.7 317.9 849.4 317.9 848.4 317.3 847.4 316.75 846.7 315.4 845.95 314.1 845.6 312 845.2 309.85 845.2 306.75 845.2 303.75 845.6 301.6 845.95 299.5 846.7 298.15 847.4 296.85 848.4 296.3 849.4 295.7 850.7 295.7
M 827.5 296.35
Q 827.5 296.2 827.4 296 827.25 295.9 827.05 295.9
L 823.75 295.9
Q 823.6 295.9 823.4 296 823.3 296.2 823.3 296.35
L 823.3 304.75 814.8 304.75
Q 814.6 304.75 814.5 304.9 814.35 305.05 814.35 305.25
L 814.35 308.35
Q 814.35 308.55 814.5 308.7 814.6 308.85 814.8 308.85
L 823.3 308.85 823.3 317.3
Q 823.3 317.8 823.75 317.8
L 827.05 317.8
Q 827.5 317.8 827.5 317.3
L 827.5 308.85 835.95 308.85
Q 836.45 308.85 836.45 308.35
L 836.45 305.25
Q 836.45 304.75 835.95 304.75
L 827.5 304.75 827.5 296.35
M 796.65 291.8
Q 794.95 292.35 793.7 293.35 792.45 294.35 791.7 295.75 790.95 297.15 790.95 298.85 790.95 301.15 792.35 302.95 793.75 304.75 796.15 306.15 794.95 306.75 793.85 307.45 792.75 308.15 791.95 309.05 791.15 309.95 790.6 311.1 790.15 312.25 790.15 313.75 790.15 315.9 791.05 317.5 791.95 319.15 793.4 320.2 794.85 321.25 796.65 321.8 798.5 322.35 800.3 322.35 802.25 322.35 804.05 321.8 805.95 321.25 807.35 320.2 808.75 319.15 809.6 317.5 810.5 315.9 810.5 313.75 810.5 312.35 810.05 311.35 809.65 310.3 808.85 309.4 808.05 308.5 806.95 307.7 805.8 306.95 804.4 306.1 807 304.3 808.25 302.55 809.5 300.75 809.5 298.75 809.5 297 808.8 295.6 808.1 294.2 806.9 293.25 805.7 292.3 804 291.75 802.3 291.25 800.3 291.25 798.35 291.25 796.65 291.8
M 797.1 296.25
Q 797.75 295.75 798.6 295.45 799.45 295.15 800.3 295.15 801.25 295.15 802.1 295.5 802.95 295.75 803.6 296.3 804.25 296.85 804.6 297.55 805 298.25 805 299.05 805 299.75 804.5 300.55 804 301.35 803.25 302.1 802.5 302.8 801.7 303.35 800.95 303.9 800.3 304.15 799.8 303.95 799 303.45 798.2 303 797.4 302.3 796.65 301.6 796.1 300.8 795.5 300 795.5 299.15 795.5 298.2 795.95 297.45 796.4 296.75 797.1 296.25
M 800.3 308.35
Q 801.3 308.7 802.3 309.3 803.3 309.9 804.15 310.6 804.95 311.35 805.45 312.15 805.95 313 805.95 313.75 805.95 314.8 805.45 315.65 804.95 316.5 804.15 317.1 803.35 317.7 802.35 318 801.3 318.3 800.3 318.3 799.35 318.3 798.3 318 797.3 317.65 796.45 317.05 795.65 316.45 795.15 315.6 794.6 314.75 794.6 313.75 794.6 312.5 795.2 311.6 795.8 310.7 796.65 310.05 797.5 309.4 798.55 309 799.5 308.55 800.3 308.35
M 758 318.35
Q 756.7 318.35 755.8 319.25 754.9 320.1 754.9 321.4 754.9 322.7 755.8 323.6 756.7 324.5 758 324.5 759.25 324.5 760.15 323.6 761 322.7 761 321.4 761 320.1 760.15 319.25 759.25 318.35 758 318.35
M 778 291.7
Q 777.9 291.8 777.7 292.15
L 765.3 310.75
Q 765.15 310.9 765 311.2 764.8 311.5 764.8 311.75
L 764.8 314.75
Q 764.8 315.05 764.95 315.1 765.1 315.2 765.45 315.2
L 778.25 315.2 778.25 321.3
Q 778.25 321.7 778.4 321.85 778.55 322 779 322
L 781.9 322
Q 782.3 322 782.4 321.85 782.55 321.75 782.55 321.3
L 782.55 315.2 786.25 315.2
Q 786.6 315.2 786.75 315.1 786.9 315 786.9 314.6
L 786.9 311.7
Q 786.9 311.3 786.75 311.2 786.6 311.1 786.25 311.1
L 782.55 311.1 782.55 292.2
Q 782.55 291.85 782.5 291.75 782.45 291.6 782.15 291.6
L 778.5 291.6
Q 778.1 291.6 778 291.7
M 778.25 311.1
L 769.65 311.1 778.25 298.05 778.25 311.1
M 747.8 296.6
Q 747.1 295.05 745.95 293.85 744.9 292.7 743.3 292 741.75 291.35 739.7 291.35 736.5 291.35 734.55 292.8 732.6 294.3 731.5 296.55 730.4 298.85 730 301.55 729.65 304.3 729.65 306.75 729.65 314.1 732.1 318.15 734.55 322.2 739.7 322.2 742.25 322.2 744.1 321.2 745.95 320.1 747.2 318.15 748.45 316.2 749.05 313.3 749.65 310.4 749.65 306.75 749.65 305.1 749.45 303.35 749.3 301.55 748.9 299.85 748.5 298.15 747.8 296.6
M 739.7 295.7
Q 740.9 295.7 741.95 296.3 742.95 296.85 743.7 298.15 744.4 299.5 744.8 301.6 745.15 303.75 745.15 306.75 745.15 309.85 744.8 312 744.4 314.1 743.7 315.4 742.95 316.75 741.95 317.3 740.9 317.9 739.7 317.9 738.4 317.9 737.4 317.3 736.4 316.75 735.7 315.4 734.95 314.1 734.6 312 734.2 309.85 734.2 306.75 734.2 303.75 734.6 301.6 734.95 299.5 735.7 298.15 736.4 296.85 737.4 296.3 738.4 295.7 739.7 295.7
M 373.55 590.7
Q 372.65 591.55 372.65 592.85 372.65 594.15 373.55 595.05 374.45 595.95 375.75 595.95 377 595.95 377.9 595.05 378.75 594.15 378.75 592.85 378.75 591.55 377.9 590.7 377 589.8 375.75 589.8 374.45 589.8 373.55 590.7
M 373.55 520.7
Q 372.65 521.55 372.65 522.85 372.65 524.15 373.55 525.05 374.45 525.95 375.75 525.95 377 525.95 377.9 525.05 378.75 524.15 378.75 522.85 378.75 521.55 377.9 520.7 377 519.8 375.75 519.8 374.45 519.8 373.55 520.7
M 373.55 460.7
Q 372.65 461.55 372.65 462.85 372.65 464.15 373.55 465.05 374.45 465.95 375.75 465.95 377 465.95 377.9 465.05 378.75 464.15 378.75 462.85 378.75 461.55 377.9 460.7 377 459.8 375.75 459.8 374.45 459.8 373.55 460.7
M 332.75 493
Q 332.15 493 332.05 493.15 331.9 493.25 331.9 493.7
L 331.7 508.45
Q 331.7 509.8 333.25 509.15 334.5 508.7 335.9 508.45 337.3 508.15 338.6 508.15 341.9 508.15 343.3 509.7 344.75 511.2 344.75 513.8 344.75 516.5 342.95 518 341.25 519.55 338.55 519.55 337.85 519.55 337 519.45 336.2 519.4 335.35 519.25 334.5 519.05 333.7 518.85 332.9 518.6 332.35 518.3 331.5 517.9 331.5 518.6
L 331.5 521.85
Q 331.5 522.15 331.5 522.3 331.55 522.4 331.8 522.6 332.45 522.9 333.4 523.1 334.3 523.35 335.25 523.5 336.2 523.6 337 523.7 337.85 523.75 338.25 523.75 340.55 523.75 342.6 523.1 344.7 522.45 346.1 521.15 349.25 518.35 349.25 513.3 349.25 511.2 348.5 509.55 347.75 507.85 346.45 506.65 345.15 505.5 343.4 504.85 341.65 504.25 339.65 504.25 337.7 504.25 336.1 504.6
L 336.25 497.2 347.4 497.2
Q 347.65 497.2 347.8 497 347.9 496.85 347.9 496.6
L 347.9 493.55
Q 347.9 493.35 347.8 493.2 347.65 493 347.4 493
L 332.75 493
M 338.75 432.7
Q 337.05 432.7 335.4 433.05 333.7 433.45 331.95 434.05 331.55 434.25 331.4 434.45 331.25 434.6 331.35 434.85
L 331.7 437.8
Q 331.8 438.15 332 438.25 332.2 438.35 332.7 438.15 333.3 437.9 334.1 437.65 334.9 437.4 335.7 437.25 336.5 437.05 337.25 436.95 337.95 436.85 338.5 436.85 339.35 436.85 340.3 437.05 341.25 437.25 342.1 437.75 342.9 438.2 343.45 439 343.95 439.75 343.95 440.75 343.95 442.1 343.15 443 342.35 443.95 341.15 444.55 340 445.15 338.75 445.4 337.5 445.65 336.65 445.65
L 334.75 445.65
Q 334.4 445.65 334.3 445.75 334.2 445.8 334.2 446.2
L 334.2 449.15
Q 334.2 449.45 334.3 449.55 334.4 449.65 334.75 449.65
L 336.7 449.65
Q 338.65 449.65 340 450.05 341.4 450.4 342.3 451.1 343.15 451.75 343.6 452.6 344 453.45 344 454.4 344 457.05 342.05 458.4 341.4 458.85 340.65 459.1 339.85 459.4 339 459.5 338.15 459.6 337.25 459.55 336.35 459.5 335.55 459.45 334.45 459.35 333.4 459.05 332.35 458.75 331.3 458.45 330.75 458.2 330.55 458.35 330.35 458.45 330.3 458.8
L 329.95 461.85
Q 329.9 462.2 330.1 462.35 330.25 462.55 330.65 462.65 332.1 463.2 333.85 463.5 335.6 463.8 337.35 463.8 339.65 463.8 341.8 463.2 343.95 462.65 345.45 461.4 346.95 460.15 347.8 458.4 348.6 456.6 348.6 454.5 348.6 452.3 347.25 450.5 345.9 448.75 343.25 447.6 344.35 447.1 345.3 446.35 346.25 445.6 346.95 444.6 347.65 443.65 348.05 442.6 348.4 441.5 348.4 440.4 348.4 438.4 347.55 436.9 346.7 435.4 345.35 434.5 344.05 433.6 342.3 433.15 340.55 432.7 338.75 432.7
M 460.7 493.05
Q 460 493.05 460 493.7
L 460 496.5
Q 460 496.85 460.2 497 460.4 497.2 460.7 497.2
L 473.45 497.2 463 522.75
Q 462.85 523.2 463 523.3 463.15 523.45 463.75 523.45
L 467 523.45
Q 467.4 523.45 467.55 523.35 467.7 523.2 467.9 522.9
L 478.45 496.85
Q 478.7 496.55 478.7 496.2
L 478.7 493.8
Q 478.7 493.35 478.55 493.2 478.4 493.05 477.7 493.05
L 460.7 493.05
M 409.6 492.7
Q 407.3 492.7 405.5 493.5 403.65 494.3 402.35 495.7 401.05 497.1 400.35 499 399.7 500.9 399.7 503.1 399.7 505.4 400.4 507.2 401.05 509 402.35 510.3 403.65 511.6 405.45 512.3 407.2 513 409.35 513 410.1 513 410.9 512.8 411.7 512.6 412.45 512.25 413.2 511.9 413.85 511.45 414.45 511 414.8 510.5 414.55 512.4 413.95 514.1 413.35 515.75 412.35 517 411.35 518.25 409.9 518.95 408.45 519.65 406.35 519.65 404.95 519.65 403.8 519.55 402.6 519.45 401.55 519 401 518.8 400.9 519.35
L 400.8 522.55
Q 400.75 522.95 401.1 523.05 402.05 523.4 403.45 523.6 404.9 523.8 406.05 523.8 409.75 523.8 412.3 522.45 414.9 521.15 416.45 518.9 418.05 516.65 418.75 513.65 419.4 510.6 419.4 507.25 419.4 499.8 416.85 496.25 414.3 492.7 409.6 492.7
M 409.55 496.65
Q 410.65 496.65 411.6 497.2 412.55 497.7 413.25 498.6 413.95 499.5 414.35 500.7 414.75 501.9 414.75 503.25 414.75 505.7 413.3 507.3 411.8 508.85 409.2 508.85 406.75 508.85 405.45 507.25 404.1 505.65 404.1 502.9 404.1 500 405.6 498.35 407.15 496.65 409.55 496.65
M 413.9 444.15
Q 412.15 443.45 409.95 443.45 409.2 443.45 408.4 443.7 407.6 443.9 406.85 444.25 406.1 444.6 405.5 445.05 404.9 445.5 404.55 446 404.8 444.05 405.4 442.35 405.95 440.7 406.95 439.45 407.95 438.2 409.4 437.5 410.9 436.85 412.95 436.85 414.35 436.85 415.55 436.95 416.7 437.05 417.75 437.45 418.3 437.7 418.4 437.15
L 418.5 433.95
Q 418.55 433.55 418.2 433.45 417.3 433.1 415.85 432.9 414.45 432.7 413.3 432.7 409.55 432.7 407 434 404.45 435.35 402.85 437.6 401.3 439.8 400.6 442.85 399.9 445.85 399.9 449.25 399.9 456.7 402.45 460.25 405 463.8 409.7 463.8 412 463.8 413.85 463 415.7 462.2 417 460.75 418.3 459.4 418.95 457.45 419.65 455.6 419.65 453.4 419.65 451.1 418.95 449.3 418.25 447.45 416.95 446.15 415.7 444.85 413.9 444.15
M 410.1 447.65
Q 412.55 447.65 413.9 449.25 415.25 450.8 415.25 453.6 415.25 456.45 413.75 458.15 412.2 459.8 409.8 459.8 408.7 459.8 407.7 459.3 406.75 458.8 406.05 457.9 405.35 457 404.95 455.75 404.55 454.6 404.55 453.2 404.55 450.75 406.05 449.2 407.5 447.65 410.1 447.65
M 476.2 433.65
Q 476.2 433.3 476.15 433.2 476.1 433.05 475.8 433.05
L 472.15 433.05
Q 471.75 433.05 471.65 433.15 471.55 433.25 471.35 433.6
L 458.95 452.2
Q 458.8 452.35 458.65 452.65 458.45 452.95 458.45 453.2
L 458.45 456.2
Q 458.45 456.5 458.6 456.55 458.75 456.65 459.1 456.65
L 471.9 456.65 471.9 462.75
Q 471.9 463.15 472.05 463.3 472.2 463.45 472.65 463.45
L 475.55 463.45
Q 475.95 463.45 476.05 463.3 476.2 463.2 476.2 462.75
L 476.2 456.65 479.9 456.65
Q 480.25 456.65 480.4 456.55 480.55 456.45 480.55 456.05
L 480.55 453.15
Q 480.55 452.75 480.4 452.65 480.25 452.55 479.9 452.55
L 476.2 452.55 476.2 433.65
M 471.9 452.55
L 463.3 452.55 471.9 439.5 471.9 452.55
M 301.65 506.7
Q 301.65 506.2 301.15 506.2
L 292.7 506.2 292.7 497.8
Q 292.7 497.65 292.6 497.45 292.45 497.35 292.25 497.35
L 288.95 497.35
Q 288.8 497.35 288.6 497.45 288.5 497.65 288.5 497.8
L 288.5 506.2 280 506.2
Q 279.8 506.2 279.7 506.35 279.55 506.5 279.55 506.7
L 279.55 509.8
Q 279.55 510 279.7 510.15 279.8 510.3 280 510.3
L 288.5 510.3 288.5 518.75
Q 288.5 519.25 288.95 519.25
L 292.25 519.25
Q 292.7 519.25 292.7 518.75
L 292.7 510.3 301.15 510.3
Q 301.65 510.3 301.65 509.8
L 301.65 506.7
M 1019.85 444.25
Q 1017.9 444.25 1016.3 444.6
L 1016.45 437.2 1027.6 437.2
Q 1027.85 437.2 1028 437 1028.1 436.85 1028.1 436.6
L 1028.1 433.55
Q 1028.1 433.35 1028 433.2 1027.85 433 1027.6 433
L 1012.95 433
Q 1012.35 433 1012.25 433.15 1012.1 433.25 1012.1 433.7
L 1011.9 448.45
Q 1011.9 449.8 1013.45 449.15 1014.7 448.7 1016.1 448.45 1017.5 448.15 1018.8 448.15 1022.1 448.15 1023.5 449.7 1024.95 451.2 1024.95 453.8 1024.95 456.5 1023.15 458 1021.45 459.55 1018.75 459.55 1018.05 459.55 1017.2 459.45 1016.4 459.4 1015.55 459.25 1014.7 459.05 1013.9 458.85 1013.1 458.6 1012.55 458.3 1011.7 457.9 1011.7 458.6
L 1011.7 461.85
Q 1011.7 462.15 1011.7 462.3 1011.75 462.4 1012 462.6 1012.65 462.9 1013.6 463.1 1014.5 463.35 1015.45 463.5 1016.4 463.6 1017.2 463.7 1018.05 463.75 1018.45 463.75 1020.75 463.75 1022.8 463.1 1024.9 462.45 1026.3 461.15 1029.45 458.35 1029.45 453.3 1029.45 451.2 1028.7 449.55 1027.95 447.85 1026.65 446.65 1025.35 445.5 1023.6 444.85 1021.85 444.25 1019.85 444.25
M 791.55 510.3
Q 792.05 510.3 792.05 509.8
L 792.05 506.7
Q 792.05 506.2 791.55 506.2
L 783.1 506.2 783.1 497.8
Q 783.1 497.65 783 497.45 782.85 497.35 782.65 497.35
L 779.35 497.35
Q 779.2 497.35 779 497.45 778.9 497.65 778.9 497.8
L 778.9 506.2 770.4 506.2
Q 770.2 506.2 770.1 506.35 769.95 506.5 769.95 506.7
L 769.95 509.8
Q 769.95 510 770.1 510.15 770.2 510.3 770.4 510.3
L 778.9 510.3 778.9 518.75
Q 778.9 519.25 779.35 519.25
L 782.65 519.25
Q 783.1 519.25 783.1 518.75
L 783.1 510.3 791.55 510.3
M 923.95 590.7
Q 923.05 591.55 923.05 592.85 923.05 594.15 923.95 595.05 924.85 595.95 926.15 595.95 927.4 595.95 928.3 595.05 929.15 594.15 929.15 592.85 929.15 591.55 928.3 590.7 927.4 589.8 926.15 589.8 924.85 589.8 923.95 590.7
M 926.15 525.95
Q 927.4 525.95 928.3 525.05 929.15 524.15 929.15 522.85 929.15 521.55 928.3 520.7 927.4 519.8 926.15 519.8 924.85 519.8 923.95 520.7 923.05 521.55 923.05 522.85 923.05 524.15 923.95 525.05 924.85 525.95 926.15 525.95
M 829.75 493.15
Q 829.55 493.2 829.5 493.3
L 823.35 498.95
Q 823.15 499.15 823.15 499.35 823.1 499.6 823.25 499.75
L 825.05 501.9
Q 825.2 502.05 825.45 502 825.7 502 825.95 501.85
L 828.9 499.25 828.9 522.95
Q 828.9 523.45 829.45 523.45
L 832.65 523.45
Q 833.15 523.45 833.15 522.95
L 833.15 494.15
Q 833.15 493.35 833 493.2 832.9 493.05 832.2 493.05
L 830.1 493.05
Q 829.95 493.05 829.75 493.15
M 963.7 492.7
Q 959.95 492.7 957.4 494 954.85 495.35 953.25 497.6 951.7 499.8 951 502.85 950.3 505.85 950.3 509.25 950.3 516.7 952.85 520.25 955.4 523.8 960.1 523.8 962.4 523.8 964.25 523 966.1 522.2 967.4 520.75 968.7 519.4 969.35 517.45 970.05 515.6 970.05 513.4 970.05 511.1 969.35 509.3 968.65 507.45 967.35 506.15 966.1 504.85 964.3 504.15 962.55 503.45 960.35 503.45 959.6 503.45 958.8 503.7 958 503.9 957.25 504.25 956.5 504.6 955.9 505.05 955.3 505.5 954.95 506 955.2 504.05 955.8 502.35 956.35 500.7 957.35 499.45 958.35 498.2 959.8 497.5 961.3 496.85 963.35 496.85 964.75 496.85 965.95 496.95 967.1 497.05 968.15 497.45 968.7 497.7 968.8 497.15
L 968.9 493.95
Q 968.95 493.55 968.6 493.45 967.7 493.1 966.25 492.9 964.85 492.7 963.7 492.7
M 958.1 519.3
Q 957.15 518.8 956.45 517.9 955.75 517 955.35 515.75 954.95 514.6 954.95 513.2 954.95 510.75 956.45 509.2 957.9 507.65 960.5 507.65 962.95 507.65 964.3 509.25 965.65 510.8 965.65 513.6 965.65 516.45 964.15 518.15 962.6 519.8 960.2 519.8 959.1 519.8 958.1 519.3
M 892.25 493.15
Q 892.15 493.25 891.95 493.6
L 879.55 512.2
Q 879.4 512.35 879.25 512.65 879.05 512.95 879.05 513.2
L 879.05 516.2
Q 879.05 516.5 879.2 516.55 879.35 516.65 879.7 516.65
L 892.5 516.65 892.5 522.75
Q 892.5 523.15 892.65 523.3 892.8 523.45 893.25 523.45
L 896.15 523.45
Q 896.55 523.45 896.65 523.3 896.8 523.2 896.8 522.75
L 896.8 516.65 900.5 516.65
Q 900.85 516.65 901 516.55 901.15 516.45 901.15 516.05
L 901.15 513.15
Q 901.15 512.75 901 512.65 900.85 512.55 900.5 512.55
L 896.8 512.55 896.8 493.65
Q 896.8 493.3 896.75 493.2 896.7 493.05 896.4 493.05
L 892.75 493.05
Q 892.35 493.05 892.25 493.15
M 892.5 499.5
L 892.5 512.55 883.9 512.55 892.5 499.5
M 926.15 465.95
Q 927.4 465.95 928.3 465.05 929.15 464.15 929.15 462.85 929.15 461.55 928.3 460.7 927.4 459.8 926.15 459.8 924.85 459.8 923.95 460.7 923.05 461.55 923.05 462.85 923.05 464.15 923.95 465.05 924.85 465.95 926.15 465.95
M 897.25 444.85
Q 898.05 443 898.05 441.2 898.05 439.1 897.35 437.5 896.65 435.9 895.5 434.85 894.35 433.8 892.7 433.25 891.1 432.7 889.15 432.7 887.3 432.7 885.3 433.35 883.35 434 881.85 434.8 881.45 435 881.3 435.25 881.2 435.4 881.3 435.6
L 881.85 438.65
Q 881.95 439 882.25 439.05 882.55 439.05 882.9 438.85 884.7 437.8 886.2 437.35 887.75 436.9 889.4 436.9 891.15 436.9 892.3 438.15 893.5 439.4 893.5 441.3 893.5 443 891.9 445.6 890.3 448.25 886.95 452.2
L 880.85 459.45
Q 880.65 459.75 880.45 460.05 880.3 460.4 880.3 460.7
L 880.3 463
Q 880.3 463.5 881.05 463.5
L 898.1 463.5
Q 898.65 463.5 898.65 462.8
L 898.65 460
Q 898.65 459.4 898.1 459.4
L 886.35 459.4
Q 887.35 458.25 888.35 457.1 889.35 455.9 890.2 454.8 891.3 453.5 892.7 451.9 894.05 450.25 895.25 448.5 896.45 446.7 897.25 444.85
M 950.6 437
Q 950.8 437.2 951.1 437.2
L 963.85 437.2 953.4 462.75
Q 953.25 463.2 953.4 463.3 953.55 463.45 954.15 463.45
L 957.4 463.45
Q 957.8 463.45 957.95 463.35 958.1 463.2 958.3 462.9
L 968.85 436.85
Q 969.1 436.55 969.1 436.2
L 969.1 433.8
Q 969.1 433.35 968.95 433.2 968.8 433.05 968.1 433.05
L 951.1 433.05
Q 950.4 433.05 950.4 433.7
L 950.4 436.5
Q 950.4 436.85 950.6 437 Z"/>

<path fill="#FFFFFF" stroke="none" d="
M 454.85 276.05
Q 439.85 276.05 439.85 291.05
L 439.85 321.1
Q 439.85 336.1 454.85 336.1
L 539.85 336.1
Q 554.85 336.1 554.85 321.1
L 554.85 291.05
Q 554.85 276.05 539.85 276.05
L 454.85 276.05
M 1070.75 291.05
Q 1070.75 276.05 1055.75 276.05
L 970.75 276.05
Q 955.75 276.05 955.75 291.05
L 955.75 321.1
Q 955.75 336.1 970.75 336.1
L 1055.75 336.1
Q 1070.75 336.1 1070.75 321.1
L 1070.75 291.05
M 460.55 552.2
Q 445.55 552.2 445.55 567.2
L 445.55 597.25
Q 445.55 612.25 460.55 612.25
L 480.55 612.25
Q 495.55 612.25 495.55 597.25
L 495.55 567.2
Q 495.55 552.2 480.55 552.2
L 460.55 552.2
M 400.55 552.2
Q 385.55 552.2 385.55 567.2
L 385.55 597.25
Q 385.55 612.25 400.55 612.25
L 420.55 612.25
Q 435.55 612.25 435.55 597.25
L 435.55 567.2
Q 435.55 552.2 420.55 552.2
L 400.55 552.2
M 315.55 567.2
L 315.55 597.25
Q 315.55 612.25 330.55 612.25
L 350.55 612.25
Q 365.55 612.25 365.55 597.25
L 365.55 567.2
Q 365.55 552.2 350.55 552.2
L 330.55 552.2
Q 315.55 552.2 315.55 567.2
M 1010.95 552.2
Q 995.95 552.2 995.95 567.2
L 995.95 597.25
Q 995.95 612.25 1010.95 612.25
L 1030.95 612.25
Q 1045.95 612.25 1045.95 597.25
L 1045.95 567.2
Q 1045.95 552.2 1030.95 552.2
L 1010.95 552.2
M 950.95 552.2
Q 935.95 552.2 935.95 567.2
L 935.95 597.25
Q 935.95 612.25 950.95 612.25
L 970.95 612.25
Q 985.95 612.25 985.95 597.25
L 985.95 567.2
Q 985.95 552.2 970.95 552.2
L 950.95 552.2
M 880.95 552.2
Q 865.95 552.2 865.95 567.2
L 865.95 597.25
Q 865.95 612.25 880.95 612.25
L 900.95 612.25
Q 915.95 612.25 915.95 597.25
L 915.95 567.2
Q 915.95 552.2 900.95 552.2
L 880.95 552.2
M 840.95 552.2
L 820.95 552.2
Q 805.95 552.2 805.95 567.2
L 805.95 597.25
Q 805.95 612.25 820.95 612.25
L 840.95 612.25
Q 855.95 612.25 855.95 597.25
L 855.95 567.2
Q 855.95 552.2 840.95 552.2 Z"/>
</g>

<path id="Layer0_0_1_STROKES" stroke="#DBDBDB" stroke-width="3" stroke-linejoin="round" stroke-linecap="round" fill="none" d="
M 1055.75 276.05
Q 1070.75 276.05 1070.75 291.05
L 1070.75 321.1
Q 1070.75 336.1 1055.75 336.1
L 970.75 336.1
Q 955.75 336.1 955.75 321.1
L 955.75 291.05
Q 955.75 276.05 970.75 276.05
L 1055.75 276.05 Z
M 820.95 552.2
L 840.95 552.2
Q 855.95 552.2 855.95 567.2
L 855.95 597.25
Q 855.95 612.25 840.95 612.25
L 820.95 612.25
Q 805.95 612.25 805.95 597.25
L 805.95 567.2
Q 805.95 552.2 820.95 552.2 Z
M 880.95 552.2
L 900.95 552.2
Q 915.95 552.2 915.95 567.2
L 915.95 597.25
Q 915.95 612.25 900.95 612.25
L 880.95 612.25
Q 865.95 612.25 865.95 597.25
L 865.95 567.2
Q 865.95 552.2 880.95 552.2 Z
M 950.95 552.2
L 970.95 552.2
Q 985.95 552.2 985.95 567.2
L 985.95 597.25
Q 985.95 612.25 970.95 612.25
L 950.95 612.25
Q 935.95 612.25 935.95 597.25
L 935.95 567.2
Q 935.95 552.2 950.95 552.2 Z
M 1010.95 552.2
L 1030.95 552.2
Q 1045.95 552.2 1045.95 567.2
L 1045.95 597.25
Q 1045.95 612.25 1030.95 612.25
L 1010.95 612.25
Q 995.95 612.25 995.95 597.25
L 995.95 567.2
Q 995.95 552.2 1010.95 552.2 Z
M 539.85 276.05
Q 554.85 276.05 554.85 291.05
L 554.85 321.1
Q 554.85 336.1 539.85 336.1
L 454.85 336.1
Q 439.85 336.1 439.85 321.1
L 439.85 291.05
Q 439.85 276.05 454.85 276.05
L 539.85 276.05 Z
M 330.55 552.2
L 350.55 552.2
Q 365.55 552.2 365.55 567.2
L 365.55 597.25
Q 365.55 612.25 350.55 612.25
L 330.55 612.25
Q 315.55 612.25 315.55 597.25
L 315.55 567.2
Q 315.55 552.2 330.55 552.2 Z
M 400.55 552.2
L 420.55 552.2
Q 435.55 552.2 435.55 567.2
L 435.55 597.25
Q 435.55 612.25 420.55 612.25
L 400.55 612.25
Q 385.55 612.25 385.55 597.25
L 385.55 567.2
Q 385.55 552.2 400.55 552.2 Z
M 460.55 552.2
L 480.55 552.2
Q 495.55 552.2 495.55 567.2
L 495.55 597.25
Q 495.55 612.25 480.55 612.25
L 460.55 612.25
Q 445.55 612.25 445.55 597.25
L 445.55 567.2
Q 445.55 552.2 460.55 552.2 Z"/>

<path id="Layer0_0_2_STROKES" stroke="#1E1E1E" stroke-width="3" stroke-linejoin="round" stroke-linecap="butt" fill="none" d="
M 769.35 540.85
L 1050.15 540.85
M 268.95 540.85
L 270.7 540.85 490 540.85 499.75 540.85"/>
</defs>

<g transform="matrix( 1, 0, 0, 1, 0,0) ">
<use xlink:href="#Layer0_0_FILL"/>

<use xlink:href="#Layer0_0_1_STROKES"/>

<use xlink:href="#Layer0_0_2_STROKES"/>
</g>
</svg>
