
<svg xmlns="http://www.w3.org/2000/svg" version="1.1" xmlns:xlink="http://www.w3.org/1999/xlink" preserveAspectRatio="none" x="0px" y="0px" width="1280px" height="720px" viewBox="0 0 1280 720">
<defs>
<g id="Layer0_0_FILL">
<path fill="#1E1E1E" stroke="none" d="
M 583.15 426.85
Q 582.95 426.7 582.75 426.7
L 579.3 426.7
Q 579.1 426.7 578.9 426.85 578.75 427.05 578.75 427.25
L 578.75 436.05
Q 578.75 437.6 579.35 438.25 579.95 438.9 581.75 438.9
L 602.95 438.9
Q 603.15 438.9 603.3 438.8 603.5 438.65 603.5 438.4
L 603.5 435.55
Q 603.5 435.4 603.3 435.2 603.15 435.05 602.95 435.05
L 584.05 435.05
Q 583.65 435.05 583.5 434.95 583.35 434.8 583.35 434.4
L 583.35 427.25
Q 583.35 427.05 583.15 426.85
M 592.05 406.4
Q 592.05 404.85 591.45 404.25 590.8 403.65 589.3 403.65
L 577.3 403.65
Q 575.75 403.65 575.15 404.25 574.55 404.8 574.55 406.35
L 574.55 419.55
Q 574.55 421.05 575.2 421.65 575.9 422.25 577.3 422.25
L 589.3 422.25
Q 590.8 422.25 591.45 421.65 592.05 421.05 592.05 419.55
L 592.05 406.4
M 587.4 407.5
Q 587.5 407.6 587.5 407.95
L 587.5 418
Q 587.5 418.35 587.4 418.4 587.3 418.5 587 418.5
L 579.6 418.5
Q 579.3 418.5 579.2 418.4 579.1 418.35 579.1 418
L 579.1 407.9
Q 579.1 407.55 579.2 407.5 579.3 407.4 579.6 407.4
L 587 407.4
Q 587.3 407.4 587.4 407.5
M 619.15 424.75
Q 618.95 424.6 618.8 424.6
L 615.25 424.6
Q 615.05 424.6 614.9 424.75 614.75 424.9 614.75 425.1
L 614.75 436.2
Q 614.75 437.75 615.4 438.35 616 438.95 617.75 438.95
L 636.3 438.95
Q 638 438.95 638.65 438.3 639.3 437.65 639.3 436.3
L 639.3 425.1
Q 639.3 424.9 639.15 424.75 638.95 424.6 638.8 424.6
L 635.2 424.6
Q 635 424.6 634.85 424.75 634.7 424.9 634.7 425.1
L 634.7 428.7 619.3 428.7 619.3 425.1
Q 619.3 424.9 619.15 424.75
M 620.1 435.2
Q 619.3 435.2 619.3 434.55
L 619.3 432.4 634.7 432.4 634.7 434.55
Q 634.7 435.2 633.95 435.2
L 620.1 435.2
M 607.95 414.15
Q 607.95 413.95 607.75 413.8 607.55 413.65 607.35 413.65
L 601.95 413.65 601.95 402.15
Q 601.95 401.6 601.4 401.6
L 597.85 401.6
Q 597.35 401.6 597.35 402.15
L 597.35 428.05
Q 597.35 428.55 597.85 428.55
L 601.4 428.55
Q 601.95 428.55 601.95 428.05
L 601.95 417.5 607.35 417.5
Q 607.55 417.5 607.75 417.35 607.95 417.2 607.95 416.95
L 607.95 414.15
M 644.75 418.55
Q 644.6 418.35 644.35 418.35
L 609.6 418.35
Q 609 418.35 609 418.95
L 609 421.5
Q 609 422.15 609.6 422.15
L 644.35 422.15
Q 644.6 422.15 644.75 421.9 644.95 421.75 644.95 421.5
L 644.95 418.95
Q 644.95 418.75 644.75 418.55
M 638.75 406
Q 639.3 406 639.3 405.5
L 639.3 402.75
Q 639.3 402.25 638.75 402.25
L 617.7 402.25
Q 616.2 402.25 615.5 402.8 614.8 403.35 614.8 404.85
L 614.8 412.3
Q 614.8 413.7 615.45 414.4 616.1 415.15 617.7 415.15
L 639.1 415.15
Q 639.3 415.15 639.4 415 639.6 414.85 639.6 414.55
L 639.6 411.9
Q 639.6 411.4 638.95 411.4
L 620.2 411.4
Q 619.75 411.4 619.6 411.2 619.45 411 619.45 410.7
L 619.45 406.7
Q 619.45 406 620.2 406
L 638.75 406
M 627 370.1
Q 624 370.1 621.65 370.6 619.25 371.1 617.65 372 616 372.9 615.15 374.15 614.3 375.4 614.3 376.9 614.3 378.4 615.15 379.65 616 380.9 617.65 381.8 619.25 382.75 621.65 383.25 624 383.75 627 383.75 630 383.75 632.4 383.25 634.75 382.75 636.4 381.8 638 380.9 638.9 379.65 639.75 378.4 639.75 376.9 639.75 375.4 638.9 374.15 638 372.9 636.4 372 634.75 371.1 632.4 370.6 630 370.1 627 370.1
M 623.5 373.85
Q 625 373.6 627 373.6 628.95 373.6 630.5 373.85 632.05 374.15 633.05 374.6 634.1 375.1 634.65 375.7 635.15 376.3 635.15 376.95 635.15 377.55 634.65 378.15 634.1 378.75 633.05 379.25 632.05 379.75 630.5 380 628.95 380.3 627 380.3 625 380.3 623.5 380 621.95 379.75 620.95 379.25 619.95 378.75 619.4 378.15 618.85 377.55 618.85 376.95 618.85 376.3 619.4 375.7 619.95 375.1 620.95 374.6 621.95 374.15 623.5 373.85
M 638.75 356.45
Q 639.75 355.1 639.75 353.3 639.75 351.7 638.85 350.4 637.9 349.05 636.2 348.1 634.55 347.15 632.2 346.65 629.9 346.2 627.1 346.2 624.3 346.2 621.95 346.65 619.6 347.15 617.95 348.1 616.25 349.05 615.3 350.4 614.35 351.7 614.35 353.3 614.35 355.05 615.4 356.4 616.4 357.8 618.2 358.7
L 618.2 364.15 609.6 364.15
Q 609.3 364.15 609.15 364.3 609 364.5 609 364.75
L 609 367.25
Q 609 367.45 609.15 367.65 609.3 367.85 609.6 367.85
L 644.4 367.85
Q 644.6 367.85 644.8 367.65 645 367.45 645 367.25
L 645 364.75
Q 645 364.55 644.8 364.3 644.6 364.15 644.4 364.15
L 635.75 364.15 635.75 358.8
Q 637.7 357.85 638.75 356.45
M 630.25 350.1
Q 631.75 350.4 632.75 350.85 633.8 351.35 634.4 351.95 635 352.55 635 353.3 635 354.1 634.4 354.75 633.8 355.4 632.75 355.85 631.75 356.35 630.25 356.6 628.8 356.85 627.1 356.85 625.35 356.85 623.9 356.6 622.4 356.35 621.4 355.85 620.35 355.4 619.75 354.75 619.15 354.1 619.15 353.3 619.15 352.55 619.75 351.95 620.35 351.3 621.4 350.8 622.4 350.35 623.9 350.05 625.35 349.8 627.1 349.85 628.8 349.85 630.25 350.1
M 631.25 360.2
L 631.25 364.15 622.7 364.15 622.7 360.2
Q 623.8 360.35 624.85 360.4 625.9 360.5 627.1 360.5 628.2 360.5 629.25 360.4 630.25 360.35 631.25 360.2
M 591.1 351.6
Q 589.8 349.9 588 348.95 586.2 348 583.85 348 581.55 348 579.75 348.95 577.9 349.9 576.65 351.6 575.4 353.3 574.7 355.75 574 358.15 574 361.2 574 364.1 574.7 366.55 575.4 368.95 576.65 370.7 577.9 372.45 579.75 373.4 581.55 374.4 583.85 374.4 586.2 374.4 588 373.4 589.8 372.5 591.1 370.75 592.35 369.05 593 366.6 593.7 364.15 593.7 361.2 593.7 358.15 593 355.75 592.35 353.3 591.1 351.6
M 587.8 354.75
Q 588.45 356 588.8 357.7 589.15 359.35 589.15 361.2 589.15 362.95 588.8 364.65 588.45 366.3 587.8 367.55 587.1 368.8 586.1 369.55 585.1 370.3 583.85 370.3 582.55 370.3 581.6 369.55 580.6 368.8 579.95 367.55 579.25 366.3 578.9 364.65 578.5 362.95 578.5 361.2 578.5 359.35 578.9 357.7 579.25 356 579.95 354.75 580.6 353.55 581.6 352.8 582.55 352.1 583.85 352.1 585.1 352.1 586.1 352.8 587.1 353.55 587.8 354.75
M 599.55 345.6
Q 599 345.6 599 346.15
L 599 383.05
Q 599 383.6 599.55 383.6
L 603.1 383.6
Q 603.6 383.6 603.6 383.05
L 603.6 346.15
Q 603.6 345.6 603.1 345.6
L 599.55 345.6
M 637.4 289.6
Q 636.9 289.6 636.9 290.15
L 636.9 298.95 630.25 298.95
Q 630.05 298.95 629.85 299.1 629.7 299.25 629.7 299.45
L 629.7 302.2
Q 629.7 302.4 629.85 302.55 630.05 302.7 630.25 302.7
L 636.9 302.7 636.9 307.9 630.25 307.9
Q 630.05 307.9 629.85 308.05 629.7 308.15 629.7 308.4
L 629.7 311.15
Q 629.7 311.35 629.85 311.45 630.05 311.6 630.25 311.6
L 636.9 311.6 636.9 327.05
Q 636.9 327.6 637.4 327.6
L 640.95 327.6
Q 641.5 327.6 641.5 327.05
L 641.5 290.15
Q 641.5 289.6 640.95 289.6
L 637.4 289.6
M 612.35 292.7
Q 612.2 292.8 612.2 293
L 612.2 295.75
Q 612.2 296 612.35 296.15 612.55 296.3 612.7 296.3
L 622.5 296.3
Q 622.9 296.3 623 296.4 623.05 296.5 623.05 296.85
L 623.05 302.6
Q 623.05 302.95 622.95 303.05 622.8 303.15 622.5 303.15
L 614.8 303.15
Q 613.4 303.15 612.7 303.8 612 304.45 612 305.9
L 612 315.55
Q 612 317.1 612.65 317.75 613.35 318.4 615.1 318.45 616.65 318.5 618.7 318.45 620.7 318.4 622.8 318.2 624.95 318.1 627 317.85 629.1 317.6 630.8 317.2 631.1 317.15 631.3 316.9 631.5 316.7 631.45 316.5
L 631.1 314.2
Q 630.95 313.55 630.35 313.6 626.65 314.2 623.55 314.45 620.45 314.75 617.35 314.65 616.6 314.65 616.6 313.95
L 616.6 307.45
Q 616.6 306.9 617.2 306.9
L 624.8 306.9
Q 626.4 306.9 627 306.35 627.6 305.75 627.6 304.25
L 627.6 295.25
Q 627.6 293.8 627.1 293.15 626.6 292.55 624.9 292.55
L 612.7 292.55
Q 612.55 292.55 612.35 292.7
M 596.8 290.5
Q 596.6 290.35 596.4 290.35
L 593.15 290.35
Q 592.95 290.35 592.75 290.5 592.55 290.65 592.55 290.85
L 592.55 325.55
Q 592.55 325.75 592.75 325.95 592.95 326.1 593.15 326.1
L 596.4 326.1
Q 596.6 326.1 596.8 325.95 597 325.75 597 325.55
L 597 308.15 600.75 308.15 600.75 327.05
Q 600.75 327.25 600.95 327.4 601.15 327.6 601.35 327.6
L 604.75 327.6
Q 605.35 327.6 605.35 327.05
L 605.35 290.15
Q 605.35 289.6 604.75 289.6
L 601.35 289.6
Q 601.15 289.6 600.95 289.75 600.75 289.9 600.75 290.15
L 600.75 304.3 597 304.3 597 290.85
Q 597 290.65 596.8 290.5
M 574.25 292.5
Q 574.1 292.7 574.1 292.9
L 574.1 313.5
Q 574.1 314.85 574.85 315.65 575.6 316.4 577.05 316.5 578.6 316.55 580.4 316.5 582.15 316.45 584 316.3 585.8 316.15 587.5 315.85 589.2 315.55 590.6 315.15 590.9 315.05 591.1 314.9 591.3 314.75 591.25 314.5
L 590.85 311.95
Q 590.8 311.65 590.55 311.55 590.25 311.5 590.05 311.5 588.75 311.85 587.25 312.1 585.8 312.3 584.4 312.5 582.95 312.65 581.65 312.7 580.4 312.75 579.35 312.6 578.65 312.6 578.65 311.95
L 578.65 292.9
Q 578.65 292.7 578.45 292.5 578.25 292.3 578 292.3
L 574.7 292.3
Q 574.45 292.3 574.25 292.5
M 650.3 404.1
Q 650.15 404.3 650.15 404.5
L 650.15 425.35
Q 650.15 426.7 650.8 427.5 651.5 428.3 653.05 428.35 655.25 428.5 657.65 428.45 660.1 428.35 662.45 428.2 664.8 428 667 427.7 669.2 427.35 670.95 426.9 671.3 426.8 671.5 426.55 671.75 426.35 671.65 426.05
L 671.15 423.85
Q 671.1 423.55 670.9 423.35 670.75 423.15 670.3 423.2 666.2 424.05 662.45 424.35 658.7 424.65 655.5 424.45 655.05 424.4 654.9 424.3 654.75 424.2 654.75 423.8
L 654.75 404.5
Q 654.75 404.3 654.55 404.1 654.35 403.95 654.15 403.95
L 650.7 403.95
Q 650.5 403.95 650.3 404.1
M 678.3 401.6
L 674.75 401.6
Q 674.2 401.6 674.2 402.15
L 674.2 439.05
Q 674.2 439.6 674.75 439.6
L 678.3 439.6
Q 678.8 439.6 678.8 439.05
L 678.8 402.15
Q 678.8 401.6 678.3 401.6
M 704.6 405.15
Q 704.6 404.6 704.05 404.6
L 689.5 404.6
Q 688 404.6 687.45 405.15 686.85 405.75 686.85 407.15
L 686.85 426.1
Q 686.85 427.55 687.55 428.1 688.25 428.7 689.75 428.8 691.4 428.9 693.8 428.8 696.2 428.75 698.75 428.5 701.3 428.3 703.65 427.95 706.05 427.55 707.65 427.1 707.85 427 708.05 426.85 708.2 426.75 708.15 426.3
L 707.7 423.95
Q 707.55 423.35 706.95 423.5 705.15 423.8 703.2 424.1 701.15 424.35 699.25 424.55 697.35 424.75 695.6 424.8 693.9 424.9 692.65 424.75 691.9 424.7 691.65 424.5 691.45 424.3 691.45 423.7
L 691.45 409.15
Q 691.45 408.45 692.15 408.45
L 704.05 408.45
Q 704.6 408.45 704.6 407.95
L 704.6 405.15
M 714.2 401.6
L 710.65 401.6
Q 710.15 401.6 710.15 402.15
L 710.15 439.05
Q 710.15 439.6 710.65 439.6
L 714.2 439.6
Q 714.75 439.6 714.75 439.05
L 714.75 420.1 720.15 420.1
Q 720.35 420.1 720.55 419.95 720.75 419.75 720.75 419.55
L 720.75 416.75
Q 720.75 416.55 720.55 416.4 720.35 416.25 720.15 416.25
L 714.75 416.25 714.75 402.15
Q 714.75 401.6 714.2 401.6
M 729.55 437
Q 730.4 436.1 730.4 434.8 730.4 433.5 729.55 432.65 728.65 431.75 727.4 431.75 726.1 431.75 725.2 432.65 724.3 433.5 724.3 434.8 724.3 436.1 725.2 437 726.1 437.9 727.4 437.9 728.65 437.9 729.55 437
M 969 349.5
Q 969 348.2 968.25 347.6 967.5 347.05 965.75 347.05
L 952.3 347.05
Q 952.05 347.05 951.9 347.25 951.75 347.4 951.75 347.65
L 951.75 350.2
Q 951.75 350.4 951.9 350.6 952 350.75 952.3 350.75
L 963.25 350.75
Q 963.9 350.75 963.9 351 963.9 351.25 963.75 351.95 963.3 353.6 962.2 355.1 961.05 356.7 959.4 358.15 957.75 359.6 955.6 360.9 953.45 362.2 950.95 363.3 950.5 363.5 950.45 363.85 950.4 364.2 950.55 364.55
L 951.6 366.5
Q 951.95 367.2 952.85 366.85 959.25 364.25 963.15 360.6 967 357 968.55 351.85 968.6 351.7 968.65 351.4 968.75 351.1 968.8 350.75 968.9 350.4 968.95 350 969 349.7 969 349.5
M 924.1 346.3
L 920.8 346.3
Q 920.25 346.3 920.25 346.8
L 920.25 359.1 916.7 359.1
Q 916.55 356.35 915.8 354.3 915.1 352.25 913.95 350.9 912.75 349.55 911.25 348.9 909.75 348.25 907.95 348.25 906.15 348.25 904.6 349 903.05 349.75 901.95 351.35 900.8 352.9 900.15 355.25 899.55 357.6 899.55 360.75 899.55 363.7 900.15 366 900.75 368.3 901.85 369.95 902.9 371.55 904.5 372.45 906.05 373.3 907.95 373.3 909.7 373.3 911.15 372.6 912.65 371.9 913.8 370.55 914.95 369.2 915.7 367.3 916.4 365.4 916.6 362.95
L 920.25 362.95 920.25 381.7
Q 920.25 382.3 920.8 382.3
L 924.1 382.3
Q 924.6 382.3 924.6 381.7
L 924.6 346.8
Q 924.6 346.3 924.1 346.3
M 911.3 355
Q 911.8 356.25 912.05 357.8 912.3 359.3 912.3 360.8 912.3 362.3 912.05 363.8 911.75 365.35 911.25 366.55 910.75 367.8 909.95 368.6 909.15 369.4 908 369.4 906.95 369.4 906.2 368.6 905.45 367.8 904.95 366.55 904.5 365.3 904.25 363.75 904 362.25 904 360.8 904 359.35 904.25 357.8 904.5 356.3 904.95 355.05 905.45 353.8 906.2 353.05 906.95 352.25 908 352.25 909.15 352.25 909.95 353 910.8 353.75 911.3 355
M 932.35 346.15
Q 932.35 345.6 931.8 345.6
L 928.35 345.6
Q 927.8 345.6 927.8 346.15
L 927.8 383.1
Q 927.8 383.6 928.35 383.6
L 931.8 383.6
Q 932.35 383.6 932.35 383.1
L 932.35 346.15
M 880.35 366.1
Q 877.4 366.3 874.25 366.4 871.1 366.55 868 366.55 864.8 366.55 861.95 366.5 861.4 366.5 861.4 367.05
L 861.4 369.8
Q 861.4 370.05 861.55 370.25 861.7 370.4 861.95 370.4 864.15 370.45 866.6 370.4 869.1 370.4 871.6 370.3
L 871.6 381.7
Q 871.6 382.35 872.25 382.35
L 875.55 382.35
Q 875.75 382.35 875.95 382.15 876.1 382 876.1 381.7
L 876.1 370.1
Q 879.05 369.95 881.65 369.75 884.25 369.5 886.3 369.15 886.5 369.15 886.65 368.95 886.85 368.8 886.8 368.5
L 886.55 365.9
Q 886.55 365.6 886.25 365.55 886 365.45 885.8 365.5 883.35 365.85 880.35 366.1
M 883.2 355.25
Q 883.2 353.55 882.5 352.1 881.75 350.7 880.5 349.65 879.2 348.6 877.45 348.05 875.65 347.45 873.55 347.45 871.4 347.45 869.65 348.05 867.9 348.6 866.6 349.65 865.3 350.7 864.55 352.1 863.85 353.55 863.85 355.25 863.85 357 864.55 358.45 865.3 359.9 866.6 360.9 867.9 362 869.65 362.55 871.4 363.15 873.55 363.15 875.65 363.15 877.45 362.55 879.2 362 880.5 360.9 881.75 359.9 882.5 358.45 883.2 357 883.2 355.25
M 873.55 351.2
Q 874.6 351.2 875.6 351.5 876.55 351.8 877.25 352.35 878 352.9 878.4 353.65 878.8 354.4 878.8 355.35 878.8 356.3 878.4 357.05 878 357.8 877.25 358.35 876.55 358.95 875.6 359.2 874.6 359.55 873.55 359.55 872.55 359.55 871.6 359.2 870.65 358.95 869.95 358.35 869.2 357.8 868.75 357.05 868.35 356.3 868.35 355.35 868.35 354.4 868.75 353.65 869.2 352.9 869.95 352.35 870.65 351.8 871.6 351.5 872.55 351.2 873.55 351.2
M 818 370.9
Q 817.85 370.9 817.65 371.15 817.45 371.35 817.45 371.55
L 817.45 380.05
Q 817.45 381.6 818.05 382.25 818.7 382.9 820.5 382.9
L 841.65 382.9
Q 841.85 382.9 842.05 382.8 842.2 382.65 842.2 382.4
L 842.2 379.55
Q 842.2 379.4 842.05 379.2 841.85 379.05 841.65 379.05
L 822.8 379.05
Q 822.4 379.05 822.2 378.95 822.05 378.8 822.05 378.4
L 822.05 371.55
Q 822.05 371.3 821.9 371.1 821.7 370.9 821.45 370.9
L 818 370.9
M 832.4 348.4
Q 832.2 348.2 832 348.2
L 811.7 348.2
Q 811.5 348.2 811.25 348.4 811.05 348.6 811.05 348.8
L 811.05 351.35
Q 811.05 351.55 811.25 351.75 811.5 352 811.7 352
L 815.15 352 815.15 363.4
Q 814.25 363.4 813.3 363.4 812.3 363.4 811.25 363.35 810.7 363.35 810.7 363.95
L 810.7 366.45
Q 810.7 366.7 810.85 366.9 811.05 367.05 811.25 367.05 814.2 367.15 817.15 367.1 820.15 367.05 823 366.9 825.9 366.75 828.65 366.55 831.35 366.35 833.75 365.95 833.95 365.9 834.2 365.7 834.45 365.45 834.4 365.1
L 834.1 362.75
Q 834.1 362.5 833.8 362.45 833.6 362.35 833.4 362.35 832.45 362.5 831.5 362.6 830.5 362.75 829.5 362.8
L 829.5 352 832 352
Q 832.2 352 832.4 351.8 832.6 351.6 832.6 351.35
L 832.6 348.8
Q 832.6 348.6 832.4 348.4
M 825.15 363.15
Q 823.8 363.25 822.4 363.3 821 363.3 819.55 363.35
L 819.55 352 825.15 352 825.15 363.15
M 836.6 345.6
Q 836.05 345.6 836.05 346.15
L 836.05 372.05
Q 836.05 372.55 836.6 372.55
L 840.15 372.55
Q 840.7 372.55 840.7 372.05
L 840.7 361.65 846.1 361.65
Q 846.3 361.65 846.5 361.5 846.65 361.35 846.65 361.15
L 846.65 358.3
Q 846.65 358.1 846.5 357.95 846.3 357.8 846.1 357.8
L 840.7 357.8 840.7 346.15
Q 840.7 345.6 840.15 345.6
L 836.6 345.6
M 889 345.6
Q 888.75 345.6 888.6 345.75 888.4 345.9 888.4 346.15
L 888.4 383.05
Q 888.4 383.3 888.6 383.4 888.75 383.6 889 383.6
L 892.5 383.6
Q 893.05 383.6 893.05 383.05
L 893.05 346.15
Q 893.05 345.6 892.5 345.6
L 889 345.6
M 881.65 312.95
L 881.65 315.5
Q 881.65 315.7 881.8 315.8 882 316 882.2 316
L 901.1 316
Q 901.5 316 901.55 316.05 901.65 316.15 901.65 316.55
L 901.65 317.7
Q 901.65 318.05 901.55 318.1 901.5 318.15 901.15 318.15
L 884.35 318.15
Q 882.8 318.15 882.25 318.75 881.7 319.3 881.7 320.55
L 881.7 324.85
Q 881.7 326.15 882.3 326.7 882.85 327.25 884.4 327.25
L 906.45 327.25
Q 906.6 327.25 906.75 327.05 906.95 326.9 906.95 326.7
L 906.95 324.25
Q 906.95 324 906.75 323.85 906.6 323.75 906.4 323.75
L 886.8 323.75
Q 886.4 323.75 886.3 323.65 886.2 323.6 886.2 323.2
L 886.2 322
Q 886.2 321.65 886.3 321.55 886.4 321.45 886.7 321.45
L 903.4 321.45
Q 905.05 321.45 905.6 321 906.1 320.5 906.1 319.1
L 906.1 314.75
Q 906.1 313.4 905.6 312.9 905.05 312.4 903.4 312.4
L 882.2 312.4
Q 882 312.4 881.8 312.6 881.65 312.75 881.65 312.95
M 874.1 317.15
Q 873.9 316.95 873.7 316.95
L 838.9 316.95
Q 838.6 316.95 838.45 317.15 838.3 317.3 838.3 317.6
L 838.3 320.2
Q 838.3 320.4 838.45 320.6 838.6 320.8 838.9 320.8
L 873.7 320.8
Q 873.9 320.8 874.1 320.6 874.3 320.4 874.3 320.2
L 874.3 317.6
Q 874.3 317.35 874.1 317.15
M 876.5 306.5
Q 875.9 306.5 875.9 307.05
L 875.9 309.5
Q 875.9 309.75 876.05 309.9 876.2 310.1 876.5 310.1
L 911.25 310.1
Q 911.5 310.1 911.65 309.9 911.85 309.7 911.85 309.5
L 911.85 307.05
Q 911.85 306.85 911.65 306.7 911.5 306.5 911.25 306.5
L 876.5 306.5
M 846.45 292.3
Q 844.9 292.3 844.25 292.85 843.55 293.4 843.55 294.9
L 843.55 306.5
Q 843.55 307.9 844.25 308.7 845 309.5 846.6 309.5
L 868.75 309.5
Q 868.95 309.5 869.1 309.35 869.25 309.2 869.25 308.9
L 869.25 306.15
Q 869.25 305.85 869.05 305.75 868.9 305.7 868.6 305.7
L 848.9 305.7
Q 848.45 305.7 848.3 305.5 848.15 305.35 848.15 304.95
L 848.15 296.8
Q 848.15 296.15 848.9 296.15
L 868.4 296.15
Q 868.95 296.15 868.95 295.6
L 868.95 292.8
Q 868.95 292.3 868.4 292.3
L 846.45 292.3
M 827.2 289.6
Q 826.65 289.6 826.65 290.15
L 826.65 327.05
Q 826.65 327.6 827.2 327.6
L 830.75 327.6
Q 831.3 327.6 831.3 327.05
L 831.3 307.65 836.65 307.65
Q 836.9 307.65 837.1 307.45 837.25 307.3 837.25 307.1
L 837.25 304.3
Q 837.25 304.1 837.1 303.95 836.9 303.8 836.65 303.8
L 831.3 303.8 831.3 290.15
Q 831.3 289.6 830.75 289.6
L 827.2 289.6
M 939.65 291.45
Q 939.45 291.6 939.45 291.8
L 939.45 307.1
Q 939.45 308.75 940.1 309.35 940.75 309.9 942.5 309.9
L 949.85 309.9 949.85 317.25 934.75 317.25
Q 934.45 317.25 934.3 317.45 934.15 317.65 934.15 317.9
L 934.15 320.5
Q 934.15 320.7 934.3 320.9 934.45 321.1 934.75 321.1
L 969.55 321.1
Q 969.75 321.1 969.95 320.9 970.15 320.7 970.15 320.5
L 970.15 317.9
Q 970.15 317.7 969.95 317.45 969.75 317.25 969.55 317.25
L 954.45 317.25 954.45 309.9 961.75 309.9
Q 963.5 309.9 964.1 309.25 964.75 308.55 964.75 307.25
L 964.75 291.8
Q 964.75 291.55 964.6 291.4 964.45 291.25 964.25 291.25
L 960.7 291.25
Q 960.5 291.25 960.3 291.4 960.15 291.55 960.15 291.8
L 960.15 297.45 944.1 297.45 944.1 291.8
Q 944.1 291.6 943.9 291.45 943.7 291.35 943.5 291.35
L 940 291.35
Q 939.8 291.35 939.65 291.45
M 960.15 305.5
Q 960.15 306.15 959.45 306.15
L 944.8 306.15
Q 944.1 306.15 944.1 305.5
L 944.1 301.15 960.15 301.15 960.15 305.5
M 901.5 295.1
Q 901.45 295.2 901.1 295.2
L 884.45 295.2
Q 882.9 295.2 882.4 295.75 881.85 296.35 881.85 297.6
L 881.85 301.75
Q 881.85 303 882.4 303.55 882.95 304.1 884.5 304.1
L 906.2 304.1
Q 906.35 304.1 906.55 303.95 906.7 303.75 906.7 303.55
L 906.7 301.1
Q 906.7 300.85 906.55 300.7 906.35 300.55 906.15 300.55
L 886.9 300.55
Q 886.5 300.55 886.45 300.5 886.35 300.45 886.35 300.1
L 886.35 299
Q 886.35 298.7 886.45 298.6 886.5 298.5 886.85 298.5
L 903.35 298.5
Q 905 298.5 905.5 298 906.05 297.55 906.05 296.15
L 906.05 291.8
Q 906.05 290.4 905.5 289.9 905 289.4 903.35 289.4
L 882.55 289.4
Q 882.35 289.4 882.15 289.55 882 289.75 882 289.9
L 882 292.45
Q 882 292.65 882.15 292.8 882.35 292.95 882.55 292.95
L 901.05 292.95
Q 901.45 292.95 901.5 293 901.6 293.05 901.6 293.4
L 901.6 294.6
Q 901.6 295 901.5 295.1
M 792.05 350.75
Q 792.05 349.8 791.2 349.2 790.3 348.6 788.75 348.6
L 775.7 348.6
Q 775.45 348.6 775.3 348.75 775.1 348.95 775.1 349.15
L 775.1 351.85
Q 775.1 352.1 775.25 352.25 775.4 352.45 775.7 352.45
L 786 352.45
Q 786.65 352.45 786.8 352.65 786.9 352.85 786.75 353.55 786.2 355.7 784.9 358.05 783.65 360.4 781.8 362.6 779.95 364.9 777.65 366.95 775.4 368.95 772.85 370.55 772.65 370.7 772.45 371 772.3 371.35 772.55 371.7
L 774.1 373.75
Q 774.3 374.05 774.65 374.1 775 374.15 775.3 373.95 781.4 370.05 785.45 364.95 786.25 366 787.3 367.15 788.3 368.3 789.35 369.35 790.35 370.4 791.3 371.2 792.3 372.05 793 372.5 793.8 373.05 794.3 372.45
L 796.05 370.5
Q 796.25 370.2 796.15 369.85 796.05 369.55 795.8 369.35 794.95 368.75 793.9 367.85 792.85 366.95 791.85 365.85 790.8 364.8 789.8 363.7 788.8 362.5 788.05 361.5 789.4 359.35 790.3 357.15 791.2 354.95 791.8 352.8 791.9 352.35 792 351.8 792.05 351.3 792.05 350.75
M 755.1 370.3
L 755.1 366.65 770.3 366.65
Q 770.5 366.65 770.7 366.45 770.9 366.25 770.9 366.05
L 770.9 363.4
Q 770.9 363.2 770.7 363 770.5 362.8 770.3 362.8
L 735.5 362.8
Q 735.2 362.8 735.05 363 734.9 363.15 734.9 363.4
L 734.9 366.05
Q 734.9 366.25 735.05 366.45 735.2 366.65 735.5 366.65
L 750.5 366.65 750.5 370.1
Q 750.3 372.05 749.3 373.6 748.3 375.2 746.7 376.35 745.1 377.55 743 378.45 740.85 379.35 738.45 379.95 738.2 380.05 738.1 380.3 737.95 380.5 738.1 380.75
L 739.05 383.1
Q 739.15 383.4 739.35 383.55 739.5 383.7 739.95 383.6 744.1 382.85 747.5 380.9 750.9 378.95 752.9 376.15 753.75 377.35 755.15 378.55 756.55 379.75 758.25 380.7 760 381.7 761.9 382.4 763.9 383.15 765.85 383.4 766.3 383.5 766.45 383.4 766.65 383.3 766.75 383
L 767.75 380.55
Q 767.85 380.3 767.75 380.05 767.65 379.8 767.45 379.75 765.45 379.4 763.45 378.6 761.45 377.8 759.75 376.65 758.05 375.55 756.75 374.25 755.5 372.95 754.9 371.55 755 371.2 755.05 370.9 755.05 370.6 755.1 370.3
M 754.45 346.05
L 751.3 345.9
Q 750.65 345.9 750.55 346.55 750.35 348.6 749.5 350.2 748.65 351.75 747.2 353 745.65 354.2 743.5 355.15 741.35 356.1 738.5 356.85 738.25 356.95 738.15 357.15 738.1 357.4 738.15 357.6
L 739.25 360.2
Q 739.4 360.6 740.3 360.4 744.6 359.4 747.9 357.45 751.2 355.5 753.05 352.75 754 354.15 755.45 355.35 756.9 356.55 758.6 357.55 760.35 358.55 762.15 359.2 763.95 359.9 765.6 360.2 766.3 360.3 766.5 359.75
L 767.7 357.3
Q 767.8 357.1 767.7 356.9 767.6 356.65 767.35 356.55 765.4 356.1 763.45 355.3 761.45 354.45 759.8 353.35 758.1 352.3 756.8 350.95 755.5 349.65 754.85 348.15 754.95 347.8 754.95 347.4 755 347 755.05 346.6 755.05 346.05 754.45 346.05
M 803.1 346.15
Q 803.1 345.6 802.55 345.6
L 799 345.6
Q 798.45 345.6 798.45 346.15
L 798.45 383.05
Q 798.45 383.6 799 383.6
L 802.55 383.6
Q 803.1 383.6 803.1 383.05
L 803.1 364.15 808.5 364.15
Q 808.7 364.15 808.9 363.95 809.05 363.8 809.05 363.6
L 809.05 360.75
Q 809.05 360.55 808.9 360.45 808.7 360.3 808.5 360.3
L 803.1 360.3 803.1 346.15
M 778.45 310.4
Q 778.45 310.2 778.25 310 778.05 309.8 777.85 309.8
L 743.05 309.8
Q 742.75 309.8 742.6 310 742.45 310.2 742.45 310.4
L 742.45 313
Q 742.45 313.2 742.6 313.45 742.75 313.65 743.05 313.65
L 758.1 313.65 758.1 326.75
Q 758.1 327.3 758.65 327.3
L 762.15 327.3
Q 762.7 327.3 762.7 326.75
L 762.7 313.65 777.85 313.65
Q 778.05 313.65 778.25 313.45 778.45 313.2 778.45 313
L 778.45 310.4
M 652.8 361.8
Q 651.6 362.85 650.95 364.3 650.3 365.8 650.3 367.55 650.3 369.4 650.95 370.9 651.6 372.4 652.75 373.55 653.95 374.65 655.55 375.3 657.2 375.9 659.15 375.9 661.1 375.9 662.75 375.25 664.35 374.6 665.55 373.5 666.75 372.4 667.4 370.9 668.05 369.4 668.05 367.55 668.05 365.75 667.4 364.3 666.75 362.8 665.6 361.75 664.4 360.7 662.75 360.1 661.1 359.55 659.15 359.55 657.2 359.55 655.6 360.1 654 360.75 652.8 361.8
M 655.9 370.9
Q 654.7 369.65 654.7 367.7 654.7 365.7 655.9 364.45 657.15 363.15 659.15 363.15 661.3 363.15 662.5 364.45 663.7 365.7 663.7 367.7 663.7 369.65 662.5 370.9 661.3 372.2 659.15 372.2 657.15 372.2 655.9 370.9
M 665.05 350.95
Q 665.2 350.75 665.2 350.55
L 665.2 347.95
Q 665.2 347.75 665 347.5 664.8 347.35 664.55 347.35
L 653.35 347.35
Q 653.15 347.35 652.95 347.5 652.75 347.65 652.75 347.95
L 652.75 350.55
Q 652.75 350.85 652.95 351 653.15 351.2 653.35 351.2
L 664.55 351.2
Q 664.85 351.2 665.05 350.95
M 670.3 356.95
L 670.3 354.45
Q 670.3 354.2 670.15 354.05 669.95 353.85 669.75 353.85
L 648.05 353.85
Q 647.8 353.85 647.6 354.05 647.35 354.25 647.35 354.45
L 647.35 356.9
Q 647.35 357.15 647.6 357.35 647.8 357.55 648.05 357.55
L 669.75 357.55
Q 669.95 357.55 670.15 357.35 670.3 357.15 670.3 356.95
M 676.65 345.6
L 673.1 345.6
Q 672.55 345.6 672.55 346.15
L 672.55 383.05
Q 672.55 383.6 673.1 383.6
L 676.65 383.6
Q 677.2 383.6 677.2 383.05
L 677.2 364.55 682.55 364.55
Q 682.8 364.55 683 364.4 683.15 364.2 683.15 364
L 683.15 361.2
Q 683.15 360.95 683 360.8 682.8 360.7 682.55 360.7
L 677.2 360.7 677.2 346.15
Q 677.2 345.6 676.65 345.6
M 671.35 320.55
Q 670.1 319.9 668.35 319.6 666.65 319.25 664.6 319.25 662.55 319.25 660.85 319.6 659.15 319.9 657.85 320.55 656.6 321.2 655.9 322.1 655.2 323 655.2 324.1 655.2 325.25 655.9 326.15 656.6 327.1 657.85 327.75 659.15 328.4 660.85 328.75 662.55 329.1 664.6 329.1 666.65 329.1 668.35 328.75 670.1 328.4 671.35 327.75 672.55 327.1 673.25 326.15 674 325.25 674 324.1 674 323 673.25 322.1 672.55 321.2 671.35 320.55
M 666.3 325.85
Q 665.5 326 664.6 326 663.7 326 662.85 325.85 662.05 325.7 661.4 325.5 660.75 325.25 660.4 324.9 660 324.55 660 324.1 660 323.75 660.4 323.4 660.75 323.05 661.4 322.8 662.05 322.6 662.85 322.4 663.7 322.3 664.6 322.3 665.5 322.3 666.3 322.4 667.15 322.6 667.75 322.8 668.4 323.05 668.8 323.4 669.15 323.75 669.15 324.1 669.15 324.55 668.8 324.9 668.4 325.25 667.75 325.5 667.15 325.7 666.3 325.85
M 671.05 310.5
Q 671.05 310.2 670.85 310 670.65 309.8 670.4 309.8
L 658.8 309.8
Q 658.6 309.8 658.4 309.95 658.15 310.15 658.15 310.45
L 658.15 312.7
Q 658.15 312.95 658.4 313.15 658.6 313.3 658.8 313.3
L 670.4 313.3
Q 670.7 313.3 670.85 313.1 671.05 312.9 671.05 312.65
L 671.05 310.5
M 677.6 315.35
Q 677.6 315.1 677.45 314.9 677.25 314.75 677 314.75
L 652.2 314.75
Q 651.95 314.75 651.75 314.9 651.55 315.15 651.55 315.35
L 651.55 317.4
Q 651.55 317.65 651.75 317.85 651.9 318.05 652.15 318.05
L 677 318.05
Q 677.25 318.05 677.45 317.85 677.6 317.7 677.6 317.45
L 677.6 315.35
M 712.6 345.6
Q 712.1 345.6 712.1 346.15
L 712.1 353 704.25 353
Q 703.05 350.6 701 349.3 698.95 347.95 696.15 347.95 693.9 347.95 692.05 348.9 690.25 349.85 689 351.55 687.75 353.3 687.1 355.75 686.45 358.15 686.45 361.2 686.45 364.1 687.1 366.55 687.75 368.95 689 370.7 690.25 372.45 692.05 373.4 693.9 374.4 696.15 374.4 699.05 374.4 701.15 373 703.25 371.55 704.4 368.95
L 712.1 368.95 712.1 383.05
Q 712.1 383.6 712.6 383.6
L 716.15 383.6
Q 716.7 383.6 716.7 383.05
L 716.7 346.15
Q 716.7 345.6 716.15 345.6
L 712.6 345.6
M 712.1 356.75
L 712.1 365.2 705.6 365.2
Q 705.95 363.4 705.95 361.2 705.95 358.9 705.55 356.75
L 712.1 356.75
M 700.1 354.75
Q 700.75 356 701.1 357.7 701.45 359.35 701.45 361.2 701.45 362.95 701.1 364.65 700.75 366.3 700.1 367.55 699.45 368.8 698.45 369.55 697.45 370.35 696.15 370.35 694.95 370.35 693.95 369.55 692.95 368.8 692.3 367.55 691.65 366.3 691.3 364.65 690.95 362.95 690.95 361.2 690.95 359.35 691.3 357.7 691.65 356 692.3 354.75 692.95 353.55 693.95 352.8 694.95 352.05 696.15 352.05 697.45 352.05 698.45 352.8 699.45 353.55 700.1 354.75
M 694.5 314.9
Q 694.5 314.7 694.35 314.5 694.15 314.35 693.95 314.35
L 690.5 314.35
Q 690.3 314.35 690.1 314.5 689.95 314.7 689.95 314.9
L 689.95 323.55
Q 689.95 325.2 690.55 325.8 691.15 326.45 692.95 326.45
L 715.25 326.45
Q 715.5 326.45 715.7 326.35 715.85 326.2 715.85 326
L 715.85 323.1
Q 715.85 322.9 715.65 322.75 715.45 322.6 715.25 322.6
L 695.3 322.6
Q 694.85 322.6 694.7 322.5 694.5 322.35 694.5 321.95
L 694.5 314.9
M 720 308.15
Q 719.8 307.95 719.6 307.95
L 684.8 307.95
Q 684.5 307.95 684.35 308.15 684.2 308.35 684.2 308.55
L 684.2 311.15
Q 684.2 311.4 684.35 311.6 684.5 311.8 684.8 311.8
L 719.6 311.8
Q 719.8 311.8 720 311.6 720.2 311.35 720.2 311.15
L 720.2 308.55
Q 720.2 308.4 720 308.15
M 693.15 292.1
Q 691.45 293 690.5 294.4 689.55 295.75 689.55 297.5 689.55 299.2 690.5 300.55 691.45 301.95 693.15 302.85 694.8 303.75 697.15 304.3 699.5 304.75 702.3 304.75 705.1 304.75 707.4 304.3 709.75 303.75 711.4 302.85 713.1 301.95 714.05 300.55 714.95 299.2 714.95 297.5 714.95 295.75 714.05 294.4 713.1 293 711.4 292.1 709.75 291.15 707.4 290.65 705.1 290.2 702.3 290.2 699.5 290.2 697.15 290.65 694.8 291.15 693.15 292.1
M 694.95 296
Q 695.55 295.35 696.6 294.85 697.65 294.4 699.1 294.1 700.55 293.85 702.3 293.85 704 293.85 705.45 294.1 706.9 294.4 707.95 294.85 709 295.35 709.6 296 710.15 296.7 710.15 297.5 710.15 298.3 709.6 298.95 709 299.6 707.95 300.1 706.9 300.55 705.45 300.85 704 301.1 702.3 301.1 700.55 301.1 699.1 300.85 697.65 300.55 696.6 300.1 695.55 299.6 694.95 298.95 694.35 298.3 694.35 297.5 694.35 296.7 694.95 296
M 652.75 289.6
Q 652.55 289.8 652.55 290
L 652.55 298.35
Q 652.55 299.9 653.2 300.55 653.8 301.15 655.65 301.15
L 662.3 301.15 662.3 304.45 647.2 304.45
Q 646.6 304.45 646.6 305
L 646.6 307.5
Q 646.6 307.75 646.75 307.9 646.9 308.1 647.2 308.1
L 681.95 308.1
Q 682.2 308.1 682.35 307.9 682.55 307.7 682.55 307.5
L 682.55 305
Q 682.55 304.8 682.35 304.65 682.2 304.45 681.95 304.45
L 666.9 304.45 666.9 301.15 676.95 301.15
Q 677.2 301.15 677.35 301.05 677.55 300.95 677.55 300.7
L 677.55 298.05
Q 677.55 297.85 677.35 297.7 677.2 297.55 676.95 297.55
L 658 297.55
Q 657.55 297.55 657.35 297.4 657.2 297.3 657.2 296.9
L 657.2 290
Q 657.2 289.75 657 289.6 656.85 289.4 656.6 289.4
L 653.15 289.4
Q 652.95 289.4 652.75 289.6
M 803.6 295.9
Q 803.6 296.45 804.15 296.45
L 815.4 296.45
Q 816.15 296.45 816.4 296.7 816.6 296.95 816.45 297.75 816.3 298.7 816.05 299.65 815.85 300.6 815.5 301.55 814.25 301.7 812.7 301.8 811.2 301.85 809.6 301.95 807.95 302 806.35 302.05 804.7 302.15 803.25 302.15 803.1 302.15 802.9 302.3 802.7 302.45 802.7 302.7
L 802.7 305.3
Q 802.7 305.6 802.9 305.75 803.1 305.95 803.25 305.95 805.65 305.9 808.4 305.75 811.15 305.65 813.6 305.4 811.7 308.65 808.8 311.35 805.85 314.1 802.1 316.15 801.8 316.3 801.7 316.6 801.65 316.95 801.85 317.25
L 803.45 319.5
Q 803.6 319.8 803.95 319.85 804.3 319.9 804.65 319.7 808.35 317.65 811.35 315 814.35 312.3 816.5 309.25 818.6 306.15 819.9 302.7 821.15 299.25 821.4 295.6 821.5 294.1 820.95 293.35 820.4 292.6 818.6 292.6
L 804.15 292.6
Q 803.6 292.6 803.6 293.1
L 803.6 295.9
M 758.3 290.2
Q 758.05 292.7 757.1 294.65 756.15 296.55 754.5 298.05 752.85 299.55 750.6 300.65 748.35 301.75 745.5 302.55 745.2 302.6 745.05 302.85 744.95 303.15 745.05 303.4
L 746.45 306
Q 746.55 306.15 746.8 306.2 747.1 306.2 747.4 306.15 751.95 304.95 755.4 302.8 758.85 300.6 760.75 297.55 761.6 298.95 763.05 300.2 764.5 301.5 766.25 302.6 768.05 303.65 770 304.45 771.95 305.2 773.9 305.55 774.55 305.7 774.75 305.2
L 775.95 302.55
Q 776.05 302.25 775.9 302.05 775.75 301.85 775.45 301.8 773.3 301.25 771.25 300.35 769.2 299.45 767.5 298.2 765.8 297 764.5 295.55 763.25 294.1 762.7 292.45 762.85 291.45 762.95 290.25 762.95 289.6 762.4 289.6
L 759 289.5
Q 758.7 289.5 758.5 289.7 758.35 289.9 758.3 290.2
M 1206.5 370.75
Q 1206.5 370.95 1206.7 371.1 1206.85 371.25 1207.05 371.25
L 1226.15 371.25
Q 1226.5 371.25 1226.6 371.35 1226.65 371.45 1226.65 371.9
L 1226.65 373.1
Q 1226.65 373.5 1226.6 373.55 1226.5 373.6 1226.2 373.6
L 1209.25 373.6
Q 1207.65 373.6 1207.1 374.15 1206.6 374.75 1206.6 376
L 1206.6 380.7
Q 1206.6 382 1207.15 382.5 1207.7 383.1 1209.25 383.1
L 1231.6 383.1
Q 1231.75 383.1 1231.95 382.9 1232.1 382.75 1232.1 382.5
L 1232.1 379.95
Q 1232.1 379.7 1231.95 379.55 1231.75 379.4 1231.55 379.4
L 1211.65 379.4
Q 1211.25 379.4 1211.2 379.3 1211.1 379.25 1211.1 378.9
L 1211.1 377.5
Q 1211.1 377.15 1211.2 377.05 1211.25 377 1211.6 377
L 1228.45 377
Q 1230.1 377 1230.65 376.5 1231.2 376 1231.2 374.6
L 1231.2 369.95
Q 1231.2 368.6 1230.65 368.05 1230.1 367.55 1228.45 367.55
L 1207.05 367.55
Q 1206.85 367.55 1206.7 367.75 1206.5 367.9 1206.5 368.1
L 1206.5 370.75
M 1201.5 361.3
Q 1201.2 361.3 1201.05 361.45 1200.9 361.65 1200.9 361.9
L 1200.9 364.45
Q 1200.9 365 1201.5 365
L 1236.3 365
Q 1236.5 365 1236.7 364.85 1236.9 364.65 1236.9 364.45
L 1236.9 361.9
Q 1236.9 361.7 1236.7 361.5 1236.5 361.3 1236.3 361.3
L 1201.5 361.3
M 1209.6 347.2
Q 1208 348.15 1207.2 349.4 1206.4 350.7 1206.4 352.15 1206.4 353.6 1207.2 354.85 1208 356.1 1209.6 357 1211.2 357.9 1213.55 358.4 1215.9 358.95 1218.95 358.95 1222 358.95 1224.35 358.4 1226.65 357.9 1228.3 357 1229.9 356.1 1230.7 354.85 1231.5 353.6 1231.5 352.15 1231.5 350.7 1230.7 349.4 1229.9 348.15 1228.3 347.2 1226.65 346.3 1224.35 345.75 1222 345.2 1218.95 345.2 1215.9 345.2 1213.55 345.75 1211.2 346.3 1209.6 347.2
M 1211.6 350.8
Q 1212.2 350.2 1213.25 349.7 1214.3 349.2 1215.75 348.95 1217.2 348.7 1218.95 348.7 1220.7 348.7 1222.1 348.95 1223.6 349.2 1224.65 349.7 1225.7 350.2 1226.3 350.8 1226.85 351.4 1226.85 352.15 1226.85 352.85 1226.3 353.45 1225.7 354.1 1224.65 354.55 1223.6 355 1222.1 355.25 1220.7 355.5 1218.95 355.5 1217.2 355.5 1215.75 355.25 1214.3 355 1213.25 354.55 1212.2 354.1 1211.6 353.5 1211.05 352.9 1211.05 352.15 1211.05 351.45 1211.6 350.8
M 1170.4 375.9
Q 1170.4 377.65 1171.25 379.05 1172.05 380.45 1173.6 381.45 1175.15 382.45 1177.35 383 1179.5 383.6 1182.3 383.6 1184.85 383.6 1187 383 1189.25 382.45 1190.85 381.45 1192.45 380.45 1193.35 379.05 1194.25 377.6 1194.25 375.9 1194.25 374.2 1193.35 372.8 1192.45 371.4 1190.85 370.4 1189.25 369.4 1187 368.85 1184.85 368.3 1182.3 368.3 1179.5 368.3 1177.35 368.9 1175.15 369.45 1173.6 370.45 1172.05 371.45 1171.25 372.85 1170.4 374.25 1170.4 375.9
M 1188.9 374.3
Q 1189.45 375.05 1189.45 376.05 1189.45 377 1188.9 377.75 1188.3 378.45 1187.35 378.95 1186.35 379.4 1185.05 379.65 1183.75 379.95 1182.3 379.95 1180.7 379.95 1179.4 379.65 1178.1 379.4 1177.15 378.95 1176.2 378.45 1175.7 377.75 1175.15 377 1175.15 376.05 1175.15 374.05 1177.1 373 1179.05 372 1182.3 372 1183.75 372 1185.05 372.25 1186.35 372.5 1187.35 373 1188.3 373.55 1188.9 374.3
M 1171.1 347.65
Q 1169.35 348.35 1168.1 349.65 1166.85 350.9 1166.1 352.6 1165.4 354.3 1165.4 356.2 1165.4 358.2 1166.1 359.9 1166.85 361.6 1168.1 362.85 1169.35 364.05 1171.1 364.75 1172.85 365.4 1175.05 365.4 1177.2 365.4 1179 364.75 1180.8 364.05 1182.1 362.85 1183.4 361.6 1184.1 359.9 1184.85 358.2 1184.85 356.2 1184.85 354.3 1184.1 352.6 1183.4 350.9 1182.1 349.65 1180.8 348.35 1179 347.65 1177.2 346.95 1175.05 346.95 1172.85 346.95 1171.1 347.65
M 1169.85 356.3
Q 1169.85 353.9 1171.3 352.45 1172.75 351.05 1175.05 351.05 1177.4 351.05 1178.85 352.45 1180.25 353.9 1180.25 356.3 1180.25 358.7 1178.85 360.1 1177.4 361.55 1175.05 361.55 1172.75 361.55 1171.3 360.1 1169.85 358.7 1169.85 356.3
M 1189.75 345.6
Q 1189.25 345.6 1189.25 346.15
L 1189.25 367.15
Q 1189.25 367.4 1189.4 367.6 1189.55 367.8 1189.75 367.8
L 1193.3 367.8
Q 1193.5 367.8 1193.65 367.6 1193.85 367.4 1193.85 367.2
L 1193.85 363.35 1199.25 363.35
Q 1199.45 363.35 1199.65 363.2 1199.85 363.05 1199.85 362.85
L 1199.85 360.05
Q 1199.85 359.85 1199.65 359.7 1199.45 359.55 1199.25 359.55
L 1193.85 359.55 1193.85 355.55 1199.25 355.55
Q 1199.45 355.55 1199.65 355.4 1199.85 355.2 1199.85 355
L 1199.85 352.2
Q 1199.85 352 1199.65 351.9 1199.45 351.7 1199.25 351.7
L 1193.85 351.7 1193.85 346.15
Q 1193.85 345.6 1193.3 345.6
L 1189.75 345.6
M 1193.4 313.95
Q 1192.8 313.35 1191.3 313.35
L 1170.55 313.35
Q 1170.35 313.35 1170.15 313.45 1170 313.55 1170 313.85
L 1170 316.7
Q 1170 316.9 1170.15 317.05 1170.35 317.15 1170.55 317.15
L 1188.6 317.15
Q 1189.05 317.15 1189.2 317.3 1189.35 317.4 1189.35 317.85
L 1189.35 326.95
Q 1189.35 327.15 1189.55 327.3 1189.75 327.5 1190 327.5
L 1193.4 327.5
Q 1193.6 327.5 1193.8 327.3 1194 327.15 1194 326.95
L 1194 316.15
Q 1194 314.6 1193.4 313.95
M 1207.2 311.55
Q 1207 311.55 1206.85 311.75 1206.65 311.9 1206.65 312.1
L 1206.65 314.75
Q 1206.65 314.95 1206.85 315.1 1207 315.25 1207.2 315.25
L 1226.3 315.25
Q 1226.65 315.25 1226.75 315.35 1226.8 315.45 1226.8 315.9
L 1226.8 317.1
Q 1226.8 317.5 1226.75 317.55 1226.65 317.6 1226.35 317.6
L 1209.4 317.6
Q 1207.8 317.6 1207.25 318.15 1206.75 318.75 1206.75 320
L 1206.75 324.7
Q 1206.75 326 1207.3 326.5 1207.85 327.1 1209.4 327.1
L 1231.75 327.1
Q 1231.9 327.1 1232.1 326.9 1232.25 326.75 1232.25 326.5
L 1232.25 323.95
Q 1232.25 323.7 1232.1 323.55 1231.9 323.4 1231.7 323.4
L 1211.8 323.4
Q 1211.4 323.4 1211.35 323.3 1211.25 323.25 1211.25 322.9
L 1211.25 321.5
Q 1211.25 321.15 1211.35 321.05 1211.4 321 1211.75 321
L 1228.6 321
Q 1230.25 321 1230.8 320.5 1231.35 320 1231.35 318.6
L 1231.35 313.95
Q 1231.35 312.6 1230.8 312.05 1230.25 311.55 1228.6 311.55
L 1207.2 311.55
M 1201.05 305.9
L 1201.05 308.45
Q 1201.05 309 1201.65 309
L 1236.45 309
Q 1236.65 309 1236.85 308.85 1237.05 308.65 1237.05 308.45
L 1237.05 305.9
Q 1237.05 305.7 1236.85 305.5 1236.65 305.3 1236.45 305.3
L 1201.65 305.3
Q 1201.35 305.3 1201.2 305.45 1201.05 305.65 1201.05 305.9
M 1189.55 289.75
Q 1189.4 289.9 1189.4 290.15
L 1189.4 310.75
Q 1189.4 311 1189.55 311.15 1189.75 311.35 1189.95 311.35
L 1193.45 311.35
Q 1194.05 311.35 1194.05 310.8
L 1194.05 303.05 1199.4 303.05
Q 1199.65 303.05 1199.85 302.9 1200 302.75 1200 302.55
L 1200 299.75
Q 1200 299.55 1199.85 299.4 1199.65 299.2 1199.4 299.2
L 1194.05 299.2 1194.05 290.15
Q 1194.05 289.6 1193.45 289.6
L 1189.95 289.6
Q 1189.75 289.6 1189.55 289.75
M 1166.25 295.05
Q 1166.35 295.2 1166.65 295.2
L 1177.5 295.2
Q 1178.25 295.2 1178.25 295.45 1178.25 295.7 1178.05 296.35 1176.95 300 1173.6 303 1170.2 306 1165.3 308.15 1164.85 308.35 1164.8 308.65 1164.75 308.95 1164.9 309.3
L 1165.95 311.35
Q 1166.25 312.15 1167.2 311.75 1173.55 309.1 1177.5 305.25 1181.5 301.35 1183 295.85 1183.05 295.7 1183.15 295.45 1183.2 295.2 1183.25 294.9 1183.3 294.55 1183.35 294.3 1183.4 293.95 1183.4 293.8 1183.4 292.55 1182.7 291.95 1182 291.4 1180.2 291.4
L 1166.65 291.4
Q 1166.1 291.4 1166.1 291.95
L 1166.1 294.6
Q 1166.1 294.85 1166.25 295.05
M 1224.5 289.75
Q 1222.15 289.2 1219.1 289.2 1216.05 289.2 1213.7 289.75 1211.35 290.3 1209.75 291.2 1208.15 292.15 1207.35 293.4 1206.55 294.7 1206.55 296.15 1206.55 297.6 1207.35 298.85 1208.15 300.1 1209.75 301 1211.35 301.9 1213.7 302.4 1216.05 302.95 1219.1 302.95 1222.15 302.95 1224.5 302.4 1226.8 301.9 1228.45 301 1230.05 300.1 1230.85 298.85 1231.65 297.6 1231.65 296.15 1231.65 294.7 1230.85 293.4 1230.05 292.15 1228.45 291.2 1226.8 290.3 1224.5 289.75
M 1222.25 292.95
Q 1223.75 293.2 1224.8 293.7 1225.85 294.2 1226.45 294.8 1227 295.4 1227 296.15 1227 296.85 1226.45 297.45 1225.85 298.1 1224.8 298.55 1223.75 299 1222.25 299.25 1220.85 299.5 1219.1 299.5 1217.35 299.5 1215.9 299.25 1214.45 299 1213.4 298.55 1212.35 298.1 1211.75 297.5 1211.2 296.9 1211.2 296.15 1211.2 295.45 1211.75 294.8 1212.35 294.2 1213.4 293.7 1214.45 293.2 1215.9 292.95 1217.35 292.7 1219.1 292.7 1220.85 292.7 1222.25 292.95
M 1131 362.85
Q 1131 364.4 1131.6 365 1132.25 365.65 1134.05 365.65
L 1141.45 365.65 1141.45 373.25 1126.3 373.25
Q 1125.7 373.25 1125.7 373.9
L 1125.7 376.5
Q 1125.7 376.7 1125.85 376.9 1126 377.1 1126.3 377.1
L 1161.1 377.1
Q 1161.3 377.1 1161.5 376.9 1161.7 376.7 1161.7 376.5
L 1161.7 373.9
Q 1161.7 373.65 1161.5 373.45 1161.3 373.25 1161.1 373.25
L 1146 373.25 1146 365.65 1153.45 365.65
Q 1155 365.65 1155.65 365 1156.3 364.4 1156.3 362.9
L 1156.3 350.95
Q 1156.3 349.4 1155.7 348.75 1155.05 348.15 1153.25 348.15
L 1133.85 348.15
Q 1132.3 348.15 1131.65 348.8 1131 349.4 1131 350.9
L 1131 362.85
M 1151.2 352
Q 1151.5 352 1151.6 352.1 1151.7 352.2 1151.7 352.5
L 1151.7 361.3
Q 1151.7 361.7 1151.6 361.75 1151.5 361.85 1151.2 361.85
L 1136.15 361.85
Q 1135.85 361.85 1135.75 361.75 1135.65 361.7 1135.65 361.3
L 1135.65 352.5
Q 1135.65 352.15 1135.75 352.1 1135.85 352 1136.15 352
L 1151.2 352
M 1089.25 353.55
Q 1088.7 355.7 1087.4 358.05 1086.15 360.4 1084.3 362.6 1082.45 364.9 1080.15 366.95 1077.9 368.95 1075.35 370.55 1075.15 370.7 1074.95 371 1074.8 371.35 1075.05 371.7
L 1076.6 373.75
Q 1076.8 374.05 1077.15 374.1 1077.5 374.15 1077.8 373.95 1083.9 370.05 1087.95 364.95 1088.75 366 1089.8 367.15 1090.8 368.3 1091.85 369.35 1092.85 370.4 1093.8 371.2 1094.8 372.05 1095.5 372.5 1096.3 373.05 1096.8 372.45
L 1098.55 370.5
Q 1098.75 370.2 1098.65 369.85 1098.55 369.55 1098.3 369.35 1097.45 368.75 1096.4 367.85 1095.35 366.95 1094.35 365.85 1093.3 364.8 1092.3 363.7 1091.3 362.5 1090.55 361.5 1091.9 359.35 1092.8 357.15 1093.7 354.95 1094.3 352.8 1094.4 352.35 1094.5 351.8 1094.55 351.3 1094.55 350.75 1094.55 349.8 1093.7 349.2 1092.8 348.6 1091.25 348.6
L 1078.2 348.6
Q 1077.95 348.6 1077.8 348.75 1077.6 348.95 1077.6 349.15
L 1077.6 351.85
Q 1077.6 352.1 1077.75 352.25 1077.9 352.45 1078.2 352.45
L 1088.5 352.45
Q 1089.15 352.45 1089.3 352.65 1089.4 352.85 1089.25 353.55
M 1086.35 301.7
Q 1085.2 300.85 1083.65 300.4 1082.05 299.9 1080.25 299.9 1078.45 299.9 1076.9 300.35 1075.35 300.8 1074.2 301.6 1073.05 302.45 1072.4 303.6 1071.75 304.75 1071.75 306.25 1071.75 307.75 1072.4 309 1073.05 310.25 1074.2 311.15 1075.35 312.05 1076.85 312.55 1078.4 313.05 1080.2 313.05 1082.05 313.05 1083.6 312.6 1085.15 312.1 1086.3 311.25 1087.5 310.35 1088.15 309.15 1088.8 307.95 1088.8 306.45 1088.8 304.95 1088.15 303.75 1087.5 302.6 1086.35 301.7
M 1076.05 306.45
Q 1076.05 305.05 1077.2 304.25 1078.35 303.45 1080.25 303.45 1082.15 303.45 1083.3 304.25 1084.45 305.05 1084.45 306.45 1084.45 307.85 1083.3 308.75 1082.15 309.6 1080.25 309.6 1078.35 309.6 1077.2 308.75 1076.05 307.85 1076.05 306.45
M 1101.5 345.6
Q 1100.95 345.6 1100.95 346.15
L 1100.95 383.05
Q 1100.95 383.6 1101.5 383.6
L 1105.05 383.6
Q 1105.6 383.6 1105.6 383.05
L 1105.6 364.15 1111 364.15
Q 1111.2 364.15 1111.4 363.95 1111.55 363.8 1111.55 363.6
L 1111.55 360.75
Q 1111.55 360.55 1111.4 360.45 1111.2 360.3 1111 360.3
L 1105.6 360.3 1105.6 346.15
Q 1105.6 345.6 1105.05 345.6
L 1101.5 345.6
M 1100 320.75
Q 1100 319.3 1099.1 318.1 1098.2 316.9 1096.55 316 1094.95 315.15 1092.7 314.65 1090.5 314.2 1087.9 314.2 1085.15 314.2 1082.95 314.65 1080.8 315.15 1079.2 316 1077.65 316.9 1076.8 318.1 1075.95 319.3 1075.95 320.75 1075.95 322.25 1076.8 323.5 1077.65 324.75 1079.2 325.6 1080.8 326.5 1082.95 326.95 1085.15 327.45 1087.9 327.45 1090.5 327.45 1092.7 326.95 1094.95 326.5 1096.55 325.6 1098.2 324.75 1099.1 323.5 1100 322.25 1100 320.75
M 1094.65 319.45
Q 1095.25 320.1 1095.25 320.9 1095.25 321.7 1094.65 322.25 1094.05 322.8 1093.05 323.2 1092.05 323.6 1090.75 323.8 1089.4 323.95 1087.9 323.95 1086.35 323.95 1085.05 323.8 1083.75 323.6 1082.75 323.2 1081.75 322.8 1081.25 322.25 1080.7 321.7 1080.7 320.9 1080.7 320.1 1081.25 319.45 1081.75 318.85 1082.75 318.45 1083.7 318 1085 317.8 1086.3 317.6 1087.9 317.6 1089.4 317.6 1090.75 317.8 1092.05 318 1093.05 318.45 1094.05 318.85 1094.65 319.45
M 1126 320.9
Q 1126.15 321.1 1126.45 321.1
L 1161.25 321.1
Q 1161.45 321.1 1161.65 320.9 1161.85 320.7 1161.85 320.5
L 1161.85 317.8
Q 1161.85 317.6 1161.65 317.4 1161.45 317.25 1161.25 317.25
L 1146.15 317.25 1146.15 309.75
Q 1146.15 309.55 1145.95 309.4 1145.8 309.2 1145.55 309.2
L 1142.05 309.2
Q 1141.5 309.2 1141.5 309.75
L 1141.5 317.25 1126.45 317.25
Q 1125.85 317.25 1125.85 317.8
L 1125.85 320.5
Q 1125.85 320.7 1126 320.9
M 1037.55 363
Q 1037.4 363.15 1037.4 363.4
L 1037.4 366.05
Q 1037.4 366.25 1037.55 366.45 1037.7 366.65 1038 366.65
L 1053 366.65 1053 370.1
Q 1052.8 372.05 1051.8 373.6 1050.8 375.2 1049.2 376.35 1047.6 377.55 1045.5 378.45 1043.35 379.35 1040.95 379.95 1040.7 380.05 1040.6 380.3 1040.45 380.5 1040.6 380.75
L 1041.55 383.1
Q 1041.65 383.4 1041.85 383.55 1042 383.7 1042.45 383.6 1046.6 382.85 1050 380.9 1053.4 378.95 1055.4 376.15 1056.25 377.35 1057.65 378.55 1059.05 379.75 1060.75 380.7 1062.5 381.7 1064.4 382.4 1066.4 383.15 1068.35 383.4 1068.8 383.5 1068.95 383.4 1069.15 383.3 1069.25 383
L 1070.25 380.55
Q 1070.35 380.3 1070.25 380.05 1070.15 379.8 1069.95 379.75 1067.95 379.4 1065.95 378.6 1063.95 377.8 1062.25 376.65 1060.55 375.55 1059.25 374.25 1058 372.95 1057.4 371.55 1057.5 371.2 1057.55 370.9 1057.55 370.6 1057.6 370.3
L 1057.6 366.65 1072.8 366.65
Q 1073 366.65 1073.2 366.45 1073.4 366.25 1073.4 366.05
L 1073.4 363.4
Q 1073.4 363.2 1073.2 363 1073 362.8 1072.8 362.8
L 1038 362.8
Q 1037.7 362.8 1037.55 363
M 1049.7 353
Q 1048.15 354.2 1046 355.15 1043.85 356.1 1041 356.85 1040.75 356.95 1040.65 357.15 1040.6 357.4 1040.65 357.6
L 1041.75 360.2
Q 1041.9 360.6 1042.8 360.4 1047.1 359.4 1050.4 357.45 1053.7 355.5 1055.55 352.75 1056.5 354.15 1057.95 355.35 1059.4 356.55 1061.1 357.55 1062.85 358.55 1064.65 359.2 1066.45 359.9 1068.1 360.2 1068.8 360.3 1069 359.75
L 1070.2 357.3
Q 1070.3 357.1 1070.2 356.9 1070.1 356.65 1069.85 356.55 1067.9 356.1 1065.95 355.3 1063.95 354.45 1062.3 353.35 1060.6 352.3 1059.3 350.95 1058 349.65 1057.35 348.15 1057.45 347.8 1057.45 347.4 1057.5 347 1057.55 346.6 1057.55 346.05 1056.95 346.05
L 1053.8 345.9
Q 1053.15 345.9 1053.05 346.55 1052.85 348.6 1052 350.2 1051.15 351.75 1049.7 353
M 986.85 364.15
Q 986.7 364.35 986.7 364.55
L 986.7 367.15
Q 986.7 367.4 986.85 367.6 987 367.8 987.3 367.8
L 1022.1 367.8
Q 1022.3 367.8 1022.5 367.6 1022.7 367.35 1022.7 367.15
L 1022.7 364.55
Q 1022.7 364.4 1022.5 364.15 1022.3 363.95 1022.1 363.95
L 987.3 363.95
Q 987 363.95 986.85 364.15
M 979.65 368.2
Q 979.65 367.7 979.05 367.7
L 959.3 367.7
Q 957.8 367.7 957.1 368.3 956.45 368.9 956.45 370.4
L 956.45 380.65
Q 956.45 382.15 957.05 382.75 957.7 383.3 959.3 383.3
L 979.65 383.3
Q 980.3 383.3 980.3 382.7
L 980.3 380.4
Q 980.3 379.85 979.65 379.85
L 961.65 379.85
Q 961.2 379.85 961.1 379.75 961.05 379.7 961.05 379.25
L 961.05 377.15 978.9 377.15
Q 979.05 377.15 979.25 377 979.45 376.85 979.45 376.6
L 979.45 374.25
Q 979.45 374.05 979.25 373.9 979.05 373.75 978.9 373.75
L 961.05 373.75 961.05 371.7
Q 961.05 371.3 961.15 371.25 961.2 371.2 961.6 371.2
L 979.05 371.2
Q 979.65 371.2 979.65 370.65
L 979.65 368.2
M 992.6 370.5
Q 992.45 370.7 992.45 370.9
L 992.45 379.55
Q 992.45 381.2 993.05 381.8 993.65 382.45 995.45 382.45
L 1017.75 382.45
Q 1018 382.45 1018.2 382.35 1018.35 382.2 1018.35 382
L 1018.35 379.1
Q 1018.35 378.9 1018.15 378.75 1017.95 378.6 1017.75 378.6
L 997.8 378.6
Q 997.35 378.6 997.2 378.5 997 378.35 997 377.95
L 997 370.9
Q 997 370.7 996.85 370.5 996.65 370.35 996.45 370.35
L 993 370.35
Q 992.8 370.35 992.6 370.5
M 995.65 348.1
Q 993.95 349 993 350.4 992.05 351.75 992.05 353.5 992.05 355.2 993 356.55 993.95 357.95 995.65 358.85 997.3 359.75 999.65 360.3 1002 360.75 1004.8 360.75 1007.6 360.75 1009.9 360.3 1012.25 359.75 1013.9 358.85 1015.6 357.95 1016.55 356.55 1017.45 355.2 1017.45 353.5 1017.45 351.75 1016.55 350.4 1015.6 349 1013.9 348.1 1012.25 347.15 1009.9 346.65 1007.6 346.2 1004.8 346.2 1002 346.2 999.65 346.65 997.3 347.15 995.65 348.1
M 1010.45 350.85
Q 1011.5 351.35 1012.1 352 1012.65 352.7 1012.65 353.5 1012.65 354.3 1012.1 354.95 1011.5 355.6 1010.45 356.1 1009.4 356.55 1007.95 356.85 1006.5 357.1 1004.8 357.1 1003.05 357.1 1001.6 356.85 1000.15 356.55 999.1 356.1 998.05 355.6 997.45 354.95 996.85 354.3 996.85 353.5 996.85 352.7 997.45 352 998.05 351.35 999.1 350.85 1000.15 350.4 1001.6 350.1 1003.05 349.85 1004.8 349.85 1006.5 349.85 1007.95 350.1 1009.4 350.4 1010.45 350.85
M 975.2 345.75
Q 975.05 345.9 975.05 346.15
L 975.05 365.25
Q 975.05 365.55 975.2 365.7 975.4 365.85 975.6 365.85
L 979.1 365.85
Q 979.7 365.85 979.7 365.3
L 979.7 357.9 985.05 357.9
Q 985.3 357.9 985.5 357.75 985.65 357.55 985.65 357.35
L 985.65 354.55
Q 985.65 354.35 985.5 354.2 985.3 354.05 985.05 354.05
L 979.7 354.05 979.7 346.15
Q 979.7 345.6 979.1 345.6
L 975.6 345.6
Q 975.4 345.6 975.2 345.75
M 1007.55 320.6
Q 1007.75 320.4 1007.75 320.2
L 1007.75 317.6
Q 1007.75 317.35 1007.55 317.15 1007.35 316.95 1007.15 316.95
L 990.35 316.95 990.35 305.85
Q 990.35 305.25 989.8 305.25
L 986.3 305.25
Q 985.75 305.25 985.75 305.85
L 985.75 316.95 972.35 316.95
Q 972.05 316.95 971.9 317.15 971.75 317.3 971.75 317.6
L 971.75 320.2
Q 971.75 320.4 971.9 320.6 972.05 320.8 972.35 320.8
L 1007.15 320.8
Q 1007.35 320.8 1007.55 320.6
M 977.2 295.7
Q 977.2 295.95 977.4 296.05 977.6 296.2 977.8 296.2
L 997.5 296.2
Q 998.05 296.2 998.3 296.35 998.55 296.5 998.55 297.05 998.55 298.7 998.5 300.7 998.4 302.7 998.25 304.75 998.15 306.8 997.9 308.75 997.7 310.7 997.4 312.15 997.35 312.5 997.45 312.75 997.55 312.95 997.9 313
L 1001.05 313.3
Q 1001.35 313.35 1001.55 313.1 1001.7 312.85 1001.8 312.55 1002.4 309.55 1002.8 305.1 1003.15 300.6 1003.15 295.2 1003.15 293.75 1002.45 293.05 1001.75 292.35 1000.45 292.35
L 977.8 292.35
Q 977.6 292.35 977.4 292.5 977.2 292.6 977.2 292.85
L 977.2 295.7
M 1131.85 295.7
Q 1131.85 296.2 1132.4 296.2
L 1147.65 296.2
Q 1148.25 296.2 1148.25 296.4 1148.25 296.6 1147.8 297.05 1145.05 299.9 1140.55 302.4 1136 304.9 1129.85 306.8 1129.6 306.85 1129.45 307.15 1129.25 307.5 1129.35 307.8
L 1130.3 310.25
Q 1130.35 310.45 1130.75 310.55 1131.05 310.6 1131.35 310.55 1135 309.55 1138.45 308.05 1141.9 306.55 1144.95 304.7 1146.4 305.5 1147.9 306.25 1149.45 307 1151 307.7 1152.5 308.4 1153.95 308.95 1155.35 309.5 1156.55 309.9 1156.85 309.95 1157.15 309.9 1157.5 309.8 1157.6 309.55
L 1158.65 306.95
Q 1158.95 306.35 1158.3 306.15 1157.4 305.85 1156.15 305.4 1154.9 304.9 1153.55 304.4 1152.25 303.8 1150.9 303.2 1149.6 302.6 1148.6 302.15 1151 300.2 1152.9 298 1154.85 295.75 1154.85 294.35 1154.85 293.4 1154.05 292.9 1153.3 292.4 1151.65 292.4
L 1132.4 292.4
Q 1131.85 292.4 1131.85 292.9
L 1131.85 295.7
M 1095.8 289.55
Q 1095.25 289.55 1095.25 290.1
L 1095.25 300.35 1090.5 300.35
Q 1090.35 300.35 1090.15 300.45 1090 300.6 1090 300.8
L 1090 303.55
Q 1090 303.75 1090.15 303.85 1090.35 304 1090.5 304
L 1095.25 304 1095.25 306.7 1090.5 306.7
Q 1090.35 306.7 1090.15 306.85 1090 306.95 1090 307.15
L 1090 309.9
Q 1090 310.1 1090.15 310.25 1090.35 310.35 1090.5 310.35
L 1095.25 310.35 1095.25 313.15
Q 1095.25 313.4 1095.4 313.55 1095.55 313.75 1095.8 313.75
L 1099.35 313.75
Q 1099.55 313.75 1099.7 313.55 1099.9 313.4 1099.9 313.15
L 1099.9 290.1
Q 1099.9 289.9 1099.7 289.75 1099.55 289.55 1099.35 289.55
L 1095.8 289.55
M 1075.1 289.95
Q 1074.95 289.95 1074.7 290.15 1074.5 290.3 1074.5 290.55
L 1074.5 292.85
Q 1074.5 293.15 1074.7 293.3 1074.95 293.5 1075.1 293.5
L 1085.3 293.5
Q 1085.6 293.5 1085.8 293.25 1085.95 293.05 1085.95 292.8
L 1085.95 290.6
Q 1085.95 290.35 1085.8 290.2 1085.55 289.95 1085.3 289.95
L 1075.1 289.95
M 1069.2 295.3
Q 1069 295.55 1069 295.7
L 1069 297.95
Q 1069 298.2 1069.2 298.4 1069.4 298.6 1069.6 298.6
L 1090.5 298.6
Q 1090.75 298.6 1090.9 298.45 1091.1 298.25 1091.1 298
L 1091.1 295.7
Q 1091.1 295.5 1090.9 295.3 1090.75 295.1 1090.5 295.1
L 1069.65 295.1
Q 1069.45 295.1 1069.2 295.3
M 1060.65 292.75
Q 1060.65 292.25 1060.1 292.25
L 1038.15 292.25
Q 1036.6 292.25 1035.95 292.8 1035.25 293.35 1035.25 294.85
L 1035.25 306.5
Q 1035.25 307.95 1035.95 308.75 1036.7 309.55 1038.3 309.55
L 1045.75 309.55 1045.75 317.25 1030.6 317.25
Q 1030.3 317.25 1030.15 317.4 1030 317.6 1030 317.85
L 1030 320.5
Q 1030 320.7 1030.15 320.9 1030.3 321.1 1030.6 321.1
L 1065.4 321.1
Q 1065.6 321.1 1065.8 320.9 1066 320.7 1066 320.5
L 1066 317.85
Q 1066 317.65 1065.8 317.45 1065.6 317.25 1065.4 317.25
L 1050.3 317.25 1050.3 309.55 1060.45 309.55
Q 1060.65 309.55 1060.8 309.4 1060.95 309.25 1060.95 308.95
L 1060.95 306.2
Q 1060.95 305.9 1060.75 305.8 1060.6 305.7 1060.3 305.7
L 1040.6 305.7
Q 1040.15 305.7 1040 305.55 1039.85 305.35 1039.85 305
L 1039.85 296.8
Q 1039.85 296.1 1040.6 296.1
L 1060.1 296.1
Q 1060.65 296.1 1060.65 295.55
L 1060.65 292.75 Z"/>

<path fill="#569ECC" stroke="none" d="
M 545.65 289.35
L 534.4 289.35
Q 529.25 289.35 525.6 292.95 522.05 296.6 522.05 301.7
L 522.05 313
Q 522.05 318.1 525.6 321.7 529.25 325.35 534.4 325.35
L 545.65 325.35
Q 550.8 325.35 554.4 321.7 558 318.1 558 313
L 558 301.7
Q 558 296.6 554.4 292.95 550.8 289.35 545.65 289.35
M 545.4 299.85
Q 545.9 300.75 545.9 302.05 545.9 302.7 545.65 303.35 545.4 304 544.95 304.6 544.5 305.15 543.9 305.6 543.3 306.05 542.55 306.3 544.4 307 545.3 308.2 546.25 309.4 546.25 310.65 546.25 311.85 545.8 312.9 545.35 314 544.45 314.75 543.6 315.55 542.3 315.95 541.05 316.4 539.35 316.4 538.35 316.4 537.2 316.2 536.05 316.05 535.2 315.7 534.85 315.6 534.75 315.4 534.7 315.25 534.75 315
L 535 313.05
Q 535.05 312.75 535.15 312.65 535.3 312.6 535.7 312.7 536.25 312.9 537 313.1 537.75 313.3 538.3 313.3 539.15 313.4 539.95 313.3 540.75 313.2 541.4 312.9 542.05 312.55 542.45 312 542.85 311.4 542.85 310.55 542.85 310.05 542.6 309.55 542.4 309.05 541.9 308.65 541.4 308.3 540.65 308.05 539.95 307.8 538.95 307.8
L 537.65 307.8
Q 537.35 307.8 537.25 307.7 537.15 307.6 537.15 307.3
L 537.15 305.35
Q 537.15 305.05 537.25 304.95 537.35 304.85 537.65 304.85
L 538.9 304.85
Q 539.4 304.85 540 304.7 540.6 304.55 541.15 304.25 541.7 303.95 542.05 303.5 542.45 303 542.45 302.35 542.45 301.45 541.8 300.8 541.2 300.2 539.9 300.2 539.05 300.2 538.1 300.45 537.1 300.7 536.35 301 536 301.15 535.85 301.1 535.65 301.1 535.6 300.75
L 535.35 298.75
Q 535.3 298.5 535.4 298.4 535.45 298.3 535.85 298.15 536.85 297.75 537.9 297.45 539 297.2 540 297.2 541.1 297.2 542.15 297.45 543.2 297.75 544.05 298.35 544.85 298.95 545.4 299.85 Z"/>

<path fill="#FFFFFF" stroke="none" d="
M 545.9 302.05
Q 545.9 300.75 545.4 299.85 544.85 298.95 544.05 298.35 543.2 297.75 542.15 297.45 541.1 297.2 540 297.2 539 297.2 537.9 297.45 536.85 297.75 535.85 298.15 535.45 298.3 535.4 298.4 535.3 298.5 535.35 298.75
L 535.6 300.75
Q 535.65 301.1 535.85 301.1 536 301.15 536.35 301 537.1 300.7 538.1 300.45 539.05 300.2 539.9 300.2 541.2 300.2 541.8 300.8 542.45 301.45 542.45 302.35 542.45 303 542.05 303.5 541.7 303.95 541.15 304.25 540.6 304.55 540 304.7 539.4 304.85 538.9 304.85
L 537.65 304.85
Q 537.35 304.85 537.25 304.95 537.15 305.05 537.15 305.35
L 537.15 307.3
Q 537.15 307.6 537.25 307.7 537.35 307.8 537.65 307.8
L 538.95 307.8
Q 539.95 307.8 540.65 308.05 541.4 308.3 541.9 308.65 542.4 309.05 542.6 309.55 542.85 310.05 542.85 310.55 542.85 311.4 542.45 312 542.05 312.55 541.4 312.9 540.75 313.2 539.95 313.3 539.15 313.4 538.3 313.3 537.75 313.3 537 313.1 536.25 312.9 535.7 312.7 535.3 312.6 535.15 312.65 535.05 312.75 535 313.05
L 534.75 315
Q 534.7 315.25 534.75 315.4 534.85 315.6 535.2 315.7 536.05 316.05 537.2 316.2 538.35 316.4 539.35 316.4 541.05 316.4 542.3 315.95 543.6 315.55 544.45 314.75 545.35 314 545.8 312.9 546.25 311.85 546.25 310.65 546.25 309.4 545.3 308.2 544.4 307 542.55 306.3 543.3 306.05 543.9 305.6 544.5 305.15 544.95 304.6 545.4 304 545.65 303.35 545.9 302.7 545.9 302.05 Z"/>
</g>
</defs>

<g transform="matrix( 1, 0, 0, 1, 0,0) ">
<use xlink:href="#Layer0_0_FILL"/>
</g>
</svg>
