
<svg xmlns="http://www.w3.org/2000/svg" version="1.1" xmlns:xlink="http://www.w3.org/1999/xlink" preserveAspectRatio="none" x="0px" y="0px" width="1114px" height="463px" viewBox="0 0 1114 463">
<defs>
<g id="Layer0_0_FILL">
<path fill="#1E1E1E" stroke="none" d="
M 890.85 284.35
Q 890.85 282.85 890.2 281.65 889.55 280.5 888.4 279.6 887.25 278.75 885.7 278.3 884.1 277.8 882.3 277.8 880.5 277.8 878.95 278.25 877.4 278.7 876.25 279.5 875.1 280.35 874.45 281.5 873.8 282.65 873.8 284.15 873.8 285.65 874.45 286.9 875.1 288.15 876.25 289.05 877.4 289.95 878.9 290.45 880.45 290.95 882.25 290.95 884.1 290.95 885.65 290.5 887.2 290 888.35 289.15 889.55 288.25 890.2 287.05 890.85 285.85 890.85 284.35
M 882.3 281.35
Q 884.2 281.35 885.35 282.15 886.5 282.95 886.5 284.35 886.5 285.75 885.35 286.65 884.2 287.5 882.3 287.5 880.4 287.5 879.25 286.65 878.1 285.75 878.1 284.35 878.1 282.95 879.25 282.15 880.4 281.35 882.3 281.35
M 877.15 267.85
Q 877 267.85 876.75 268.05 876.55 268.2 876.55 268.45
L 876.55 270.75
Q 876.55 271.05 876.75 271.2 877 271.4 877.15 271.4
L 887.35 271.4
Q 887.65 271.4 887.85 271.15 888 270.95 888 270.7
L 888 268.5
Q 888 268.25 887.85 268.1 887.6 267.85 887.35 267.85
L 877.15 267.85
M 811 267.5
Q 810.45 267.5 810.45 268.05
L 810.45 293.7
Q 810.45 294.25 811 294.25
L 814.55 294.25
Q 814.75 294.25 814.9 294.1 815.1 293.95 815.1 293.75
L 815.1 268.05
Q 815.1 267.8 814.9 267.65 814.75 267.5 814.55 267.5
L 811 267.5
M 840.2 270.15
Q 838.65 270.15 838 270.7 837.3 271.25 837.3 272.75
L 837.3 284.4
Q 837.3 285.85 838 286.65 838.75 287.45 840.35 287.45
L 847.8 287.45 847.8 295.15 832.65 295.15
Q 832.35 295.15 832.2 295.3 832.05 295.5 832.05 295.75
L 832.05 298.4
Q 832.05 298.6 832.2 298.8 832.35 299 832.65 299
L 867.45 299
Q 867.65 299 867.85 298.8 868.05 298.6 868.05 298.4
L 868.05 295.75
Q 868.05 295.55 867.85 295.35 867.65 295.15 867.45 295.15
L 852.35 295.15 852.35 287.45 862.5 287.45
Q 862.7 287.45 862.85 287.3 863 287.15 863 286.85
L 863 284.1
Q 863 283.8 862.8 283.7 862.65 283.6 862.35 283.6
L 842.65 283.6
Q 842.2 283.6 842.05 283.45 841.9 283.25 841.9 282.9
L 841.9 274.7
Q 841.9 274 842.65 274
L 862.15 274
Q 862.7 274 862.7 273.45
L 862.7 270.65
Q 862.7 270.15 862.15 270.15
L 840.2 270.15
M 898.6 293.9
Q 897 293.05 894.75 292.55 892.55 292.1 889.95 292.1 887.2 292.1 885 292.55 882.85 293.05 881.25 293.9 879.7 294.8 878.85 296 878 297.2 878 298.65 878 300.15 878.85 301.4 879.7 302.65 881.25 303.5 882.85 304.4 885 304.85 887.2 305.35 889.95 305.35 892.55 305.35 894.75 304.85 897 304.4 898.6 303.5 900.25 302.65 901.15 301.4 902.05 300.15 902.05 298.65 902.05 297.2 901.15 296 900.25 294.8 898.6 293.9
M 892.8 295.7
Q 894.1 295.9 895.1 296.35 896.1 296.75 896.7 297.35 897.3 298 897.3 298.8 897.3 299.6 896.7 300.15 896.1 300.7 895.1 301.1 894.1 301.5 892.8 301.7 891.45 301.85 889.95 301.85 888.4 301.85 887.1 301.7 885.8 301.5 884.8 301.1 883.8 300.7 883.3 300.15 882.75 299.6 882.75 298.8 882.75 298 883.3 297.35 883.8 296.75 884.8 296.35 885.75 295.9 887.05 295.7 888.35 295.5 889.95 295.5 891.45 295.5 892.8 295.7
M 893.15 273.6
Q 893.15 273.4 892.95 273.2 892.8 273 892.55 273
L 871.7 273
Q 871.5 273 871.25 273.2 871.05 273.45 871.05 273.6
L 871.05 275.85
Q 871.05 276.1 871.25 276.3 871.45 276.5 871.65 276.5
L 892.55 276.5
Q 892.8 276.5 892.95 276.35 893.15 276.15 893.15 275.9
L 893.15 273.6
M 901.95 268
Q 901.95 267.8 901.75 267.65 901.6 267.45 901.4 267.45
L 897.85 267.45
Q 897.3 267.45 897.3 268
L 897.3 278.25 892.55 278.25
Q 892.4 278.25 892.2 278.35 892.05 278.5 892.05 278.7
L 892.05 281.45
Q 892.05 281.65 892.2 281.75 892.4 281.9 892.55 281.9
L 897.3 281.9 897.3 284.6 892.55 284.6
Q 892.4 284.6 892.2 284.75 892.05 284.85 892.05 285.05
L 892.05 287.8
Q 892.05 288 892.2 288.15 892.4 288.25 892.55 288.25
L 897.3 288.25 897.3 291.05
Q 897.3 291.3 897.45 291.45 897.6 291.65 897.85 291.65
L 901.4 291.65
Q 901.6 291.65 901.75 291.45 901.95 291.3 901.95 291.05
L 901.95 268
M 725 267.5
Q 724.45 267.5 724.45 268.05
L 724.45 304.95
Q 724.45 305.5 725 305.5
L 728.55 305.5
Q 729.05 305.5 729.05 304.95
L 729.05 268.05
Q 729.05 267.5 728.55 267.5
L 725 267.5
M 713.45 270.85
Q 711.65 269.9 709.3 269.9 707 269.9 705.2 270.85 703.35 271.8 702.1 273.5 700.85 275.2 700.15 277.65 699.45 280.05 699.45 283.1 699.45 286 700.15 288.45 700.85 290.85 702.1 292.6 703.35 294.35 705.2 295.3 707 296.3 709.3 296.3 711.65 296.3 713.45 295.3 715.25 294.4 716.55 292.65 717.8 290.95 718.45 288.5 719.15 286.05 719.15 283.1 719.15 280.05 718.45 277.65 717.8 275.2 716.55 273.5 715.25 271.8 713.45 270.85
M 703.95 283.1
Q 703.95 281.25 704.35 279.6 704.7 277.9 705.4 276.65 706.05 275.45 707.05 274.7 708 274 709.3 274 710.55 274 711.55 274.7 712.55 275.45 713.25 276.65 713.9 277.9 714.25 279.6 714.6 281.25 714.6 283.1 714.6 284.85 714.25 286.55 713.9 288.2 713.25 289.45 712.55 290.7 711.55 291.45 710.55 292.2 709.3 292.2 708 292.2 707.05 291.45 706.05 290.7 705.4 289.45 704.7 288.2 704.35 286.55 703.95 284.85 703.95 283.1
M 674.6 292.55
Q 672.45 293.05 670.85 293.9 669.3 294.8 668.45 296 667.6 297.2 667.6 298.65 667.6 300.15 668.45 301.4 669.3 302.65 670.85 303.5 672.45 304.4 674.6 304.85 676.8 305.35 679.55 305.35 682.15 305.35 684.35 304.85 686.6 304.4 688.2 303.5 689.85 302.65 690.75 301.4 691.65 300.15 691.65 298.65 691.65 297.2 690.75 296 689.85 294.8 688.2 293.9 686.6 293.05 684.35 292.55 682.15 292.1 679.55 292.1 676.8 292.1 674.6 292.55
M 674.4 296.35
Q 675.35 295.9 676.65 295.7 677.95 295.5 679.55 295.5 681.05 295.5 682.4 295.7 683.7 295.9 684.7 296.35 685.7 296.75 686.3 297.35 686.9 298 686.9 298.8 686.9 299.6 686.3 300.15 685.7 300.7 684.7 301.1 683.7 301.5 682.4 301.7 681.05 301.85 679.55 301.85 678 301.85 676.7 301.7 675.4 301.5 674.4 301.1 673.4 300.7 672.9 300.15 672.35 299.6 672.35 298.8 672.35 298 672.9 297.35 673.4 296.75 674.4 296.35
M 665.85 279.5
Q 664.7 280.35 664.05 281.5 663.4 282.65 663.4 284.15 663.4 285.65 664.05 286.9 664.7 288.15 665.85 289.05 667 289.95 668.5 290.45 670.05 290.95 671.85 290.95 673.7 290.95 675.25 290.5 676.8 290 677.95 289.15 679.15 288.25 679.8 287.05 680.45 285.85 680.45 284.35 680.45 282.85 679.8 281.65 679.15 280.5 678 279.6 676.85 278.75 675.3 278.3 673.7 277.8 671.9 277.8 670.1 277.8 668.55 278.25 667 278.7 665.85 279.5
M 671.9 281.35
Q 673.8 281.35 674.95 282.15 676.1 282.95 676.1 284.35 676.1 285.75 674.95 286.65 673.8 287.5 671.9 287.5 670 287.5 668.85 286.65 667.7 285.75 667.7 284.35 667.7 282.95 668.85 282.15 670 281.35 671.9 281.35
M 661.3 273
Q 661.1 273 660.85 273.2 660.65 273.45 660.65 273.6
L 660.65 275.85
Q 660.65 276.1 660.85 276.3 661.05 276.5 661.25 276.5
L 682.15 276.5
Q 682.4 276.5 682.55 276.35 682.75 276.15 682.75 275.9
L 682.75 273.6
Q 682.75 273.4 682.55 273.2 682.4 273 682.15 273
L 661.3 273
M 677.45 271.15
Q 677.6 270.95 677.6 270.7
L 677.6 268.5
Q 677.6 268.25 677.45 268.1 677.2 267.85 676.95 267.85
L 666.75 267.85
Q 666.6 267.85 666.35 268.05 666.15 268.2 666.15 268.45
L 666.15 270.75
Q 666.15 271.05 666.35 271.2 666.6 271.4 666.75 271.4
L 676.95 271.4
Q 677.25 271.4 677.45 271.15
M 687.45 267.45
Q 686.9 267.45 686.9 268
L 686.9 278.25 682.15 278.25
Q 682 278.25 681.8 278.35 681.65 278.5 681.65 278.7
L 681.65 281.45
Q 681.65 281.65 681.8 281.75 682 281.9 682.15 281.9
L 686.9 281.9 686.9 284.6 682.15 284.6
Q 682 284.6 681.8 284.75 681.65 284.85 681.65 285.05
L 681.65 287.8
Q 681.65 288 681.8 288.15 682 288.25 682.15 288.25
L 686.9 288.25 686.9 291.05
Q 686.9 291.3 687.05 291.45 687.2 291.65 687.45 291.65
L 691 291.65
Q 691.2 291.65 691.35 291.45 691.55 291.3 691.55 291.05
L 691.55 268
Q 691.55 267.8 691.35 267.65 691.2 267.45 691 267.45
L 687.45 267.45
M 796.5 292.8
Q 796.5 292.65 796.35 292.45 796.15 292.3 795.9 292.3
L 792.4 292.3
Q 792.25 292.3 792.05 292.45 791.85 292.65 791.85 292.8
L 791.85 301.85
Q 791.85 303.45 792.5 304.05 793.1 304.7 794.95 304.7
L 815.75 304.7
Q 815.95 304.7 816.1 304.6 816.3 304.45 816.3 304.25
L 816.3 301.35
Q 816.3 301.15 816.1 301 815.95 300.85 815.75 300.85
L 797.25 300.85
Q 796.85 300.85 796.7 300.75 796.5 300.65 796.5 300.2
L 796.5 292.8
M 772.15 267.5
Q 771.6 267.5 771.6 268.05
L 771.6 304.95
Q 771.6 305.5 772.15 305.5
L 775.65 305.5
Q 775.85 305.5 776.05 305.3 776.25 305.2 776.25 304.95
L 776.25 286 781.6 286
Q 781.8 286 782 285.85 782.2 285.65 782.2 285.45
L 782.2 282.65
Q 782.2 282.45 782 282.3 781.8 282.15 781.6 282.15
L 776.25 282.15 776.25 268.05
Q 776.25 267.8 776.05 267.65 775.85 267.5 775.65 267.5
L 772.15 267.5
M 791.7 269.65
Q 791.5 269.45 791.25 269.45
L 787.8 269.45
Q 787.6 269.45 787.45 269.65 787.25 269.85 787.25 270.05
L 787.25 285.15
Q 787.25 286.5 787.85 287.25 788.4 287.95 790.15 288.05 791.9 288.1 794.2 288.1 796.55 288.1 799 287.95 801.45 287.8 803.75 287.5 806.1 287.25 807.9 286.75 808.1 286.7 808.25 286.55 808.4 286.45 808.35 286.2
L 807.95 283.55
Q 807.9 283.35 807.7 283.25 807.45 283.15 807.25 283.2 805.35 283.6 803.35 283.8 801.3 284.05 799.35 284.15 797.4 284.25 795.65 284.25 793.9 284.25 792.6 284.15 792.2 284.1 792 284 791.85 283.9 791.85 283.5
L 791.85 270.05
Q 791.85 269.85 791.7 269.65
M 761.5 270.85
Q 759.65 269.9 757.35 269.9 755.05 269.9 753.2 270.85 751.4 271.8 750.1 273.5 748.85 275.2 748.2 277.65 747.5 280.05 747.5 283.1 747.5 286 748.2 288.4 748.85 290.8 750.1 292.5 751.4 294.25 753.2 295.15 755.05 296.1 757.35 296.1 759.65 296.1 761.5 295.2 763.3 294.25 764.6 292.55 765.85 290.85 766.55 288.4 767.2 286 767.2 283 767.2 280 766.55 277.55 765.85 275.15 764.6 273.45 763.3 271.75 761.5 270.85
M 759.65 274.7
Q 760.6 275.45 761.3 276.65 762 277.85 762.35 279.5 762.7 281.15 762.7 283 762.7 284.8 762.35 286.45 762 288.1 761.3 289.3 760.6 290.55 759.65 291.3 758.6 292 757.35 292 756.1 292 755.1 291.3 754.15 290.55 753.45 289.3 752.75 288.1 752.4 286.45 752.05 284.8 752.05 283 752.05 281.15 752.4 279.5 752.75 277.85 753.45 276.65 754.15 275.45 755.1 274.7 756.1 274 757.35 274 758.6 274 759.65 274.7
M 628.35 291.35
Q 628.2 291.45 628.2 291.75
L 628.2 294.6
Q 628.2 294.8 628.35 294.95 628.55 295.05 628.75 295.05
L 646.8 295.05
Q 647.25 295.05 647.4 295.2 647.55 295.3 647.55 295.75
L 647.55 304.85
Q 647.55 305.05 647.75 305.2 647.95 305.4 648.2 305.4
L 651.6 305.4
Q 651.8 305.4 652 305.2 652.2 305.05 652.2 304.85
L 652.2 294.05
Q 652.2 292.5 651.6 291.85 651 291.25 649.5 291.25
L 628.75 291.25
Q 628.55 291.25 628.35 291.35
M 610.5 267.5
Q 610 267.5 610 268.05
L 610 304.95
Q 610 305.5 610.5 305.5
L 614.05 305.5
Q 614.6 305.5 614.6 304.95
L 614.6 286 620 286
Q 620.2 286 620.4 285.85 620.6 285.65 620.6 285.45
L 620.6 282.65
Q 620.6 282.45 620.4 282.3 620.2 282.15 620 282.15
L 614.6 282.15 614.6 268.05
Q 614.6 267.5 614.05 267.5
L 610.5 267.5
M 640.9 269.85
Q 640.2 269.3 638.4 269.3
L 624.85 269.3
Q 624.3 269.3 624.3 269.85
L 624.3 272.5
Q 624.3 272.75 624.45 272.95 624.55 273.1 624.85 273.1
L 635.7 273.1
Q 636.45 273.1 636.45 273.35 636.45 273.6 636.25 274.25 635.15 277.9 631.8 280.9 628.4 283.9 623.5 286.05 623.05 286.25 623 286.55 622.95 286.85 623.1 287.2
L 624.15 289.25
Q 624.45 290.05 625.4 289.65 631.75 287 635.7 283.15 639.7 279.25 641.2 273.75 641.25 273.6 641.35 273.35 641.4 273.1 641.45 272.8 641.5 272.45 641.55 272.2 641.6 271.85 641.6 271.7 641.6 270.45 640.9 269.85
M 647.75 267.65
Q 647.6 267.8 647.6 268.05
L 647.6 288.65
Q 647.6 288.9 647.75 289.05 647.95 289.25 648.15 289.25
L 651.65 289.25
Q 652.25 289.25 652.25 288.7
L 652.25 280.95 657.6 280.95
Q 657.85 280.95 658.05 280.8 658.2 280.65 658.2 280.45
L 658.2 277.65
Q 658.2 277.45 658.05 277.3 657.85 277.1 657.6 277.1
L 652.25 277.1 652.25 268.05
Q 652.25 267.5 651.65 267.5
L 648.15 267.5
Q 647.95 267.5 647.75 267.65
M 604.45 271.05
Q 604.45 270.5 603.9 270.5
L 589.35 270.5
Q 587.85 270.5 587.3 271.05 586.7 271.65 586.7 273.05
L 586.7 292
Q 586.7 293.45 587.4 294 588.1 294.6 589.6 294.7 591.25 294.8 593.65 294.7 596.05 294.65 598.6 294.4 601.15 294.2 603.5 293.85 605.9 293.45 607.5 293 607.7 292.9 607.9 292.75 608.05 292.65 608 292.2
L 607.55 289.85
Q 607.4 289.25 606.8 289.4 605 289.7 603.05 290 601 290.25 599.1 290.45 597.2 290.65 595.45 290.7 593.75 290.8 592.5 290.65 591.75 290.6 591.5 290.4 591.3 290.2 591.3 289.6
L 591.3 275.05
Q 591.3 274.35 592 274.35
L 603.9 274.35
Q 604.45 274.35 604.45 273.85
L 604.45 271.05 Z"/>

<path fill="#FFFFFF" stroke="none" d="
M 1074.85 269.9
Q 1074.85 254.9 1059.85 254.9
L 929.85 254.9
Q 914.85 254.9 914.85 269.9
L 914.85 299.95
Q 914.85 314.95 929.85 314.95
L 1059.85 314.95
Q 1074.85 314.95 1074.85 299.95
L 1074.85 269.9
M 35.95 369.3
Q 35.9 369.6 35.9 370
L 35.9 373.8
Q 35.9 374.6 36.05 375.05 36.1 375.3 36.25 375.45 36.35 375.6 36.6 375.7 36.75 375.85 36.95 375.9 37.2 375.95 37.45 376 37.7 376 38 376 38.35 376.05 38.75 376.05 39.6 376 40.4 375.95 41.2 375.9 42 375.8 42.8 375.75 43.6 375.65 44.4 375.55 45.2 375.4 45.85 375.35 46.1 375 46.2 374.8 46.2 374.55 46.2 374.3 46.1 373.95 46.05 373.75 46 373.6 46 373.45 45.95 373.35 45.85 373.25 45.85 373.2 45.75 373.1 45.75 373.05 45.65 373.05 45.55 373 45.5 373 45.35 373 45.25 373 45.1 373 45 373 44.9 373 44.15 373.15 43.4 373.2 42.65 373.3 41.85 373.35 41.05 373.45 40.25 373.45 39.5 373.5 38.75 373.5 38.75 373.37265625 38.75 373.05
L 38.75 370.15 43.9 370.15
Q 44.2 370.15 44.4 370.1 44.6 370.05 44.7 369.9 44.8 369.75 44.85 369.5 44.9 369.25 44.9 368.95 44.9 368.55 44.85 368.25 44.8 368 44.7 367.9 44.6 367.8 44.4 367.75 44.2 367.7 43.9 367.7
L 38.75 367.7
Q 38.35 367.7 38 367.7 37.7 367.7 37.45 367.75 37.2 367.75 36.95 367.85 36.75 367.9 36.6 368 36.35 368.15 36.25 368.35 36.1 368.5 36.05 368.75 36 369 35.95 369.3
M 49 377.3
Q 48.7 377.2 48.3 377.2
L 45.75 377.2
Q 45.45 377.2 45.25 377.25 45.05 377.35 44.95 377.5 44.85 377.7 44.8 377.95 44.75 378.15 44.75 378.4 44.75 378.7 44.8 378.9 44.85 379.1 44.95 379.25 45.05 379.45 45.25 379.55 45.45 379.6 45.75 379.6
L 47.35 379.6 47.35 385.15
Q 47.35 385.65 47.8 385.9 48 386.05 48.2 386.1 48.45 386.2 48.65 386.2 48.9 386.2 49.15 386.1 49.4 386.05 49.6 385.9 49.75 385.75 49.9 385.6 50 385.4 50 385.15
L 50 378.95
Q 50 378.55 49.9 378.25 49.75 377.9 49.55 377.65 49.35 377.45 49 377.3
M 50 367.8
Q 50 367.2 49.6 367 49.4 366.9 49.15 366.85 48.9 366.8 48.65 366.8 48.5 366.8 48.35 366.8 48.25 366.85 48.1 366.85 48 366.9 47.85 366.9 47.75 366.95 47.65 367 47.55 367.05 47.45 367.15 47.4 367.2 47.35 367.3 47.25 367.4 47.25 367.55 47.2 367.65 47.2 367.8
L 47.2 375.4
Q 47.2 375.55 47.25 375.65 47.25 375.75 47.35 375.85 47.4 375.95 47.45 376.05 47.55 376.15 47.65 376.2 47.75 376.25 47.85 376.3 48 376.35 48.1 376.35 48.25 376.35 48.35 376.4 48.5 376.4 48.65 376.4 48.9 376.4 49.15 376.35 49.4 376.3 49.6 376.2 49.8 376.1 49.9 375.9 50 375.7 50 375.4
L 50 372.95 51.9 372.95
Q 52.55 372.95 52.7 372.55 52.75 372.35 52.8 372.15 52.8 371.95 52.8 371.7 52.8 371.2 52.7 370.8 52.6 370.65 52.4 370.55 52.2 370.45 51.9 370.45
L 50 370.45 50 367.8
M 38.75 377.2
Q 38.45 377.2 38.25 377.25 38.05 377.35 37.95 377.5 37.85 377.7 37.75 377.95 37.7 378.15 37.7 378.4 37.7 378.7 37.75 378.85 37.85 379.05 37.95 379.2 38.05 379.35 38.25 379.45 38.45 379.5 38.75 379.5
L 41.45 379.5 41.45 380.5 39.7 380.5
Q 38.85 380.5 38.3 380.8 38 381 37.9 381.25 37.75 381.55 37.75 381.95
L 37.75 384.95
Q 37.75 385.35 37.9 385.65 37.95 385.75 38.05 385.85 38.2 385.95 38.35 386 38.45 386.05 38.65 386.1 38.8 386.15 39 386.15 39.15 386.15 39.35 386.2 39.5 386.2 39.7 386.2 40.05 386.15 40.35 386.15 40.6 386.15 40.85 386.15 41.1 386.15 41.3 386.1 41.55 386.1 41.75 386.1 42 386.05 42.2 386.05 42.45 386 42.7 386 43.1 385.95 43.6 385.9
L 43.5 385.9
Q 43.75 385.85 44 385.75 44.2 385.65 44.3 385.5 44.4 385.3 44.45 385.1 44.5 384.85 44.45 384.6 44.4 384.35 44.3 384.2 44.2 384 44.05 383.85 43.9 383.7 43.7 383.65 43.5 383.6 43.2 383.6 42.75 383.7 42.35 383.75 41.95 383.8 41.6 383.8 41.2 383.85 40.8 383.9 40.4 383.9 39.95 383.9
L 39.95 382.8 41.85 382.8
Q 42.25 382.8 42.55 382.7 42.9 382.6 43.2 382.4 43.5 382.2 43.7 381.9 43.85 381.6 43.85 381.15
L 43.85 378.75
Q 43.85 378.35 43.7 378.05 43.5 377.75 43.2 377.55 42.9 377.35 42.55 377.3 42.25 377.2 41.85 377.2
L 38.75 377.2
M 14.85 368.7
Q 14.7 368.8 14.55 369 14.45 369.15 14.35 369.4 14.3 369.6 14.3 369.85 14.3 370.1 14.35 370.3 14.45 370.55 14.55 370.7 14.7 370.9 14.85 371 15.05 371.1 15.3 371.1
L 16.85 371.1
Q 16.8 371.6 16.75 372.05 16.7 372.55 16.6 373 16.55 373.5 16.45 373.95 16.35 374.4 16.2 374.8 16.1 375.25 15.95 375.65 15.8 376.05 15.65 376.45 15.45 376.8 15.2 377.15 14.95 377.45 14.65 377.75 14.45 377.95 14.4 378.15 14.3 378.35 14.3 378.6 14.3 378.8 14.4 379 14.5 379.2 14.65 379.35
L 14.6 379.35
Q 14.8 379.55 15.05 379.7 15.25 379.8 15.45 379.8 15.7 379.85 15.85 379.8 16 379.75 16.1 379.7 16.6 379.35 16.95 378.95 17.35 378.5 17.7 377.95 18.05 377.4 18.3 376.8 18.55 376.2 18.7 375.55 18.9 374.95 19.05 374.3 19.2 373.65 19.3 373 19.4 372.35 19.45 371.8 19.5 371.2 19.5 370.65 19.5 370.45 19.45 370.2 19.45 370 19.45 369.8 19.4 369.45 19.2 369.2 19.05 369.05 18.9 368.95 18.7 368.85 18.55 368.75 18.35 368.7 18.1 368.65 17.8 368.6 17.5 368.6
L 15.3 368.6
Q 15.05 368.6 14.85 368.7
M 29.2 367.9
Q 29.2 367.6 29.1 367.4 28.95 367.2 28.75 367.1 28.3 366.9 27.9 366.9 27.6 366.9 27.35 366.95 27.15 367 26.95 367.1 26.75 367.2 26.65 367.4 26.55 367.6 26.55 367.9
L 26.55 385.65
Q 26.55 385.95 26.65 386.1 26.75 386.35 26.95 386.4 27.15 386.5 27.35 386.55 27.6 386.6 27.9 386.6 28.3 386.6 28.75 386.4 28.95 386.35 29.1 386.1 29.2 385.95 29.2 385.65
L 29.2 376.45 30.95 376.45
Q 31.3 376.45 31.5 376.35 31.75 376.25 31.85 376.05 31.95 375.85 32 375.6 32.1 375.4 32.1 375.15 32.1 374.9 32 374.7 31.95 374.45 31.85 374.25 31.75 374.1 31.5 374 31.3 373.9 30.95 373.9
L 29.2 373.9 29.2 367.9
M 20.95 368.6
Q 20.65 368.6 20.45 368.7 20.25 368.8 20.15 369 19.95 369.15 19.9 369.4 19.85 369.6 19.85 369.9 19.85 370.15 19.9 370.35 19.95 370.55 20.15 370.75 20.25 370.95 20.45 371 20.65 371.1 20.95 371.1
L 22 371.1
Q 21.95 371.7 21.9 372.25 21.85 372.85 21.75 373.4 21.7 373.95 21.55 374.5 21.45 375.05 21.3 375.55 21.2 376.1 21 376.6 20.85 377.1 20.65 377.55 20.4 378 20.15 378.45 19.85 378.85 19.55 379.25 19.4 379.5 19.35 379.7 19.3 379.95 19.4 380.15 19.5 380.4 19.6 380.55 19.75 380.75 19.9 380.85 20.15 381 20.35 381.05 20.6 381.15 20.8 381.15 21.05 381.2 21.2 381.15 21.4 381.05 21.5 380.9 21.95 380.4 22.3 379.85 22.7 379.35 23 378.75 23.35 378.15 23.55 377.55 23.8 376.95 23.95 376.3 24.2 375.6 24.35 374.95 24.5 374.25 24.6 373.55 24.7 372.85 24.75 372.1 24.8 371.4 24.8 370.65 24.8 370.45 24.8 370.25 24.75 370 24.75 369.85 24.75 369.65 24.7 369.5 24.65 369.35 24.55 369.2 24.4 369.05 24.25 368.95 24.1 368.85 23.9 368.75 23.75 368.7 23.45 368.65 23.2 368.6 22.9 368.6
L 20.95 368.6 Z"/>

<path fill="#7A94C2" stroke="none" d="
M 0 367.55
L 0 386.6
Q 0 396.6 10 396.6
L 55.05 396.6
Q 65.05 396.6 65.05 386.6
L 65.05 367.55
Q 65.05 357.55 55.05 357.55
L 10 357.55
Q 0 357.55 0 367.55
M 20.45 368.7
Q 20.65 368.6 20.95 368.6
L 22.9 368.6
Q 23.2 368.6 23.45 368.65 23.75 368.7 23.9 368.75 24.1 368.85 24.25 368.95 24.4 369.05 24.55 369.2 24.65 369.35 24.7 369.5 24.75 369.65 24.75 369.85 24.75 370 24.8 370.25 24.8 370.45 24.8 370.65 24.8 371.4 24.75 372.1 24.7 372.85 24.6 373.55 24.5 374.25 24.35 374.95 24.2 375.6 23.95 376.3 23.8 376.95 23.55 377.55 23.35 378.15 23 378.75 22.7 379.35 22.3 379.85 21.95 380.4 21.5 380.9 21.4 381.05 21.2 381.15 21.05 381.2 20.8 381.15 20.6 381.15 20.35 381.05 20.15 381 19.9 380.85 19.75 380.75 19.6 380.55 19.5 380.4 19.4 380.15 19.3 379.95 19.35 379.7 19.4 379.5 19.55 379.25 19.85 378.85 20.15 378.45 20.4 378 20.65 377.55 20.85 377.1 21 376.6 21.2 376.1 21.3 375.55 21.45 375.05 21.55 374.5 21.7 373.95 21.75 373.4 21.85 372.85 21.9 372.25 21.95 371.7 22 371.1
L 20.95 371.1
Q 20.65 371.1 20.45 371 20.25 370.95 20.15 370.75 19.95 370.55 19.9 370.35 19.85 370.15 19.85 369.9 19.85 369.6 19.9 369.4 19.95 369.15 20.15 369 20.25 368.8 20.45 368.7
M 29.1 367.4
Q 29.2 367.6 29.2 367.9
L 29.2 373.9 30.95 373.9
Q 31.3 373.9 31.5 374 31.75 374.1 31.85 374.25 31.95 374.45 32 374.7 32.1 374.9 32.1 375.15 32.1 375.4 32 375.6 31.95 375.85 31.85 376.05 31.75 376.25 31.5 376.35 31.3 376.45 30.95 376.45
L 29.2 376.45 29.2 385.65
Q 29.2 385.95 29.1 386.1 28.95 386.35 28.75 386.4 28.3 386.6 27.9 386.6 27.6 386.6 27.35 386.55 27.15 386.5 26.95 386.4 26.75 386.35 26.65 386.1 26.55 385.95 26.55 385.65
L 26.55 367.9
Q 26.55 367.6 26.65 367.4 26.75 367.2 26.95 367.1 27.15 367 27.35 366.95 27.6 366.9 27.9 366.9 28.3 366.9 28.75 367.1 28.95 367.2 29.1 367.4
M 14.55 369
Q 14.7 368.8 14.85 368.7 15.05 368.6 15.3 368.6
L 17.5 368.6
Q 17.8 368.6 18.1 368.65 18.35 368.7 18.55 368.75 18.7 368.85 18.9 368.95 19.05 369.05 19.2 369.2 19.4 369.45 19.45 369.8 19.45 370 19.45 370.2 19.5 370.45 19.5 370.65 19.5 371.2 19.45 371.8 19.4 372.35 19.3 373 19.2 373.65 19.05 374.3 18.9 374.95 18.7 375.55 18.55 376.2 18.3 376.8 18.05 377.4 17.7 377.95 17.35 378.5 16.95 378.95 16.6 379.35 16.1 379.7 16 379.75 15.85 379.8 15.7 379.85 15.45 379.8 15.25 379.8 15.05 379.7 14.8 379.55 14.6 379.35
L 14.65 379.35
Q 14.5 379.2 14.4 379 14.3 378.8 14.3 378.6 14.3 378.35 14.4 378.15 14.45 377.95 14.65 377.75 14.95 377.45 15.2 377.15 15.45 376.8 15.65 376.45 15.8 376.05 15.95 375.65 16.1 375.25 16.2 374.8 16.35 374.4 16.45 373.95 16.55 373.5 16.6 373 16.7 372.55 16.75 372.05 16.8 371.6 16.85 371.1
L 15.3 371.1
Q 15.05 371.1 14.85 371 14.7 370.9 14.55 370.7 14.45 370.55 14.35 370.3 14.3 370.1 14.3 369.85 14.3 369.6 14.35 369.4 14.45 369.15 14.55 369
M 38.25 377.25
Q 38.45 377.2 38.75 377.2
L 41.85 377.2
Q 42.25 377.2 42.55 377.3 42.9 377.35 43.2 377.55 43.5 377.75 43.7 378.05 43.85 378.35 43.85 378.75
L 43.85 381.15
Q 43.85 381.6 43.7 381.9 43.5 382.2 43.2 382.4 42.9 382.6 42.55 382.7 42.25 382.8 41.85 382.8
L 39.95 382.8 39.95 383.9
Q 40.4 383.9 40.8 383.9 41.2 383.85 41.6 383.8 41.95 383.8 42.35 383.75 42.75 383.7 43.2 383.6 43.5 383.6 43.7 383.65 43.9 383.7 44.05 383.85 44.2 384 44.3 384.2 44.4 384.35 44.45 384.6 44.5 384.85 44.45 385.1 44.4 385.3 44.3 385.5 44.2 385.65 44 385.75 43.75 385.85 43.5 385.9
L 43.6 385.9
Q 43.1 385.95 42.7 386 42.45 386 42.2 386.05 42 386.05 41.75 386.1 41.55 386.1 41.3 386.1 41.1 386.15 40.85 386.15 40.6 386.15 40.35 386.15 40.05 386.15 39.7 386.2 39.5 386.2 39.35 386.2 39.15 386.15 39 386.15 38.8 386.15 38.65 386.1 38.45 386.05 38.35 386 38.2 385.95 38.05 385.85 37.95 385.75 37.9 385.65 37.75 385.35 37.75 384.95
L 37.75 381.95
Q 37.75 381.55 37.9 381.25 38 381 38.3 380.8 38.85 380.5 39.7 380.5
L 41.45 380.5 41.45 379.5 38.75 379.5
Q 38.45 379.5 38.25 379.45 38.05 379.35 37.95 379.2 37.85 379.05 37.75 378.85 37.7 378.7 37.7 378.4 37.7 378.15 37.75 377.95 37.85 377.7 37.95 377.5 38.05 377.35 38.25 377.25
M 49.6 367
Q 50 367.2 50 367.8
L 50 370.45 51.9 370.45
Q 52.2 370.45 52.4 370.55 52.6 370.65 52.7 370.8 52.8 371.2 52.8 371.7 52.8 371.95 52.8 372.15 52.75 372.35 52.7 372.55 52.55 372.95 51.9 372.95
L 50 372.95 50 375.4
Q 50 375.7 49.9 375.9 49.8 376.1 49.6 376.2 49.4 376.3 49.15 376.35 48.9 376.4 48.65 376.4 48.5 376.4 48.35 376.4 48.25 376.35 48.1 376.35 48 376.35 47.85 376.3 47.75 376.25 47.65 376.2 47.55 376.15 47.45 376.05 47.4 375.95 47.35 375.85 47.25 375.75 47.25 375.65 47.2 375.55 47.2 375.4
L 47.2 367.8
Q 47.2 367.65 47.25 367.55 47.25 367.4 47.35 367.3 47.4 367.2 47.45 367.15 47.55 367.05 47.65 367 47.75 366.95 47.85 366.9 48 366.9 48.1 366.85 48.25 366.85 48.35 366.8 48.5 366.8 48.65 366.8 48.9 366.8 49.15 366.85 49.4 366.9 49.6 367
M 48.3 377.2
Q 48.7 377.2 49 377.3 49.35 377.45 49.55 377.65 49.75 377.9 49.9 378.25 50 378.55 50 378.95
L 50 385.15
Q 50 385.4 49.9 385.6 49.75 385.75 49.6 385.9 49.4 386.05 49.15 386.1 48.9 386.2 48.65 386.2 48.45 386.2 48.2 386.1 48 386.05 47.8 385.9 47.35 385.65 47.35 385.15
L 47.35 379.6 45.75 379.6
Q 45.45 379.6 45.25 379.55 45.05 379.45 44.95 379.25 44.85 379.1 44.8 378.9 44.75 378.7 44.75 378.4 44.75 378.15 44.8 377.95 44.85 377.7 44.95 377.5 45.05 377.35 45.25 377.25 45.45 377.2 45.75 377.2
L 48.3 377.2
M 35.9 370
Q 35.9 369.6 35.95 369.3 36 369 36.05 368.75 36.1 368.5 36.25 368.35 36.35 368.15 36.6 368 36.75 367.9 36.95 367.85 37.2 367.75 37.45 367.75 37.7 367.7 38 367.7 38.35 367.7 38.75 367.7
L 43.9 367.7
Q 44.2 367.7 44.4 367.75 44.6 367.8 44.7 367.9 44.8 368 44.85 368.25 44.9 368.55 44.9 368.95 44.9 369.25 44.85 369.5 44.8 369.75 44.7 369.9 44.6 370.05 44.4 370.1 44.2 370.15 43.9 370.15
L 38.75 370.15 38.75 373.05
Q 38.75 373.37265625 38.75 373.5 39.5 373.5 40.25 373.45 41.05 373.45 41.85 373.35 42.65 373.3 43.4 373.2 44.15 373.15 44.9 373 45 373 45.1 373 45.25 373 45.35 373 45.5 373 45.55 373 45.65 373.05 45.75 373.05 45.75 373.1 45.85 373.2 45.85 373.25 45.95 373.35 46 373.45 46 373.6 46.05 373.75 46.1 373.95 46.2 374.3 46.2 374.55 46.2 374.8 46.1 375 45.85 375.35 45.2 375.4 44.4 375.55 43.6 375.65 42.8 375.75 42 375.8 41.2 375.9 40.4 375.95 39.6 376 38.75 376.05 38.35 376.05 38 376 37.7 376 37.45 376 37.2 375.95 36.95 375.9 36.75 375.85 36.6 375.7 36.35 375.6 36.25 375.45 36.1 375.3 36.05 375.05 35.9 374.6 35.9 373.8
L 35.9 370 Z"/>

<path fill="#000000" stroke="none" d="
M 990.95 129.25
Q 990.6 129.25 990.4 129.4 990.25 129.55 990.25 129.95
L 990.25 163.1
Q 990.25 163.5 990.4 163.65 990.6 163.75 990.95 163.75
L 994.6 163.75
Q 995 163.75 995.15 163.65 995.25 163.5 995.25 163.1
L 995.25 146.3 999.7 146.3
Q 1000.05 146.3 1000.25 146.2 1000.45 146.05 1000.45 145.65
L 1000.45 142.9
Q 1000.45 142.4 1000.25 142.3 1000.05 142.2 999.7 142.2
L 995.25 142.2 995.25 129.95
Q 995.25 129.55 995.15 129.4 995 129.25 994.6 129.25
L 990.95 129.25
M 985.6 134.3
Q 985.6 133.55 985.5 133.1 985.45 132.6 985.15 132.35 984.9 132.05 984.45 131.9 983.95 131.8 983.15 131.8
L 970.5 131.8
Q 970.1 131.8 969.95 131.95 969.75 132.1 969.75 132.5
L 969.75 135.25
Q 969.75 135.9 970.5 135.9
L 980.15 135.9
Q 980.45 135.9 980.55 136 980.65 136.1 980.65 136.4
L 980.65 140.8
Q 980.65 141.15 980.55 141.2 980.45 141.3 980.15 141.3
L 971.7 141.3
Q 970.55 141.3 970.05 141.8 969.55 142.25 969.55 143.4
L 969.55 152.95
Q 969.55 154.35 970.1 154.9 970.65 155.5 972.25 155.55 974.15 155.6 976.2 155.55 978.3 155.55 980.35 155.35 982.45 155.2 984.4 154.95 986.35 154.7 988 154.35 988.4 154.3 988.5 154.15 988.65 154.05 988.55 153.65
L 988.15 151
Q 988.1 150.7 988 150.55 987.85 150.45 987.5 150.5 984.65 151.05 981.4 151.25 978.2 151.55 975 151.45 974.5 151.45 974.5 151
L 974.5 145.65
Q 974.5 145.15 974.95 145.15
L 983.15 145.15
Q 984.4 145.15 985 144.65 985.6 144.1 985.6 142.6
L 985.6 134.3
M 162.65 107.25
Q 163.8 104.2 164 100.95 164.1 99.4 163.5 98.65 162.95 97.9 161.15 97.9
L 148.05 97.9
Q 147.65 97.9 147.5 98.05 147.35 98.15 147.35 98.6
L 147.35 101.3
Q 147.35 101.7 147.45 101.85 147.55 102 148.05 102
L 158.1 102
Q 158.75 102 158.65 102.75 158 107.5 154.85 111.45 151.7 115.5 146.25 118.55 145.95 118.7 145.85 119.05 145.8 119.35 146.05 119.7
L 147.7 122.25
Q 148 122.65 148.3 122.65 148.55 122.65 149.05 122.35 152.4 120.5 155.05 118.15 157.75 115.8 159.65 113.05 161.6 110.35 162.65 107.25
M 172.95 95.95
Q 172.95 95.55 172.85 95.4 172.7 95.25 172.3 95.25
L 168.65 95.25
Q 168.3 95.25 168.1 95.4 167.95 95.55 167.95 95.95
L 167.95 129.1
Q 167.95 129.5 168.1 129.65 168.3 129.75 168.65 129.75
L 172.3 129.75
Q 172.7 129.75 172.85 129.65 172.95 129.5 172.95 129.1
L 172.95 112.3 177.4 112.3
Q 177.75 112.3 177.95 112.2 178.15 112.05 178.15 111.65
L 178.15 108.9
Q 178.15 108.4 177.95 108.3 177.75 108.2 177.4 108.2
L 172.95 108.2 172.95 95.95
M 425.85 121.9
Q 425.85 121.4 425.65 121.35 425.45 121.25 425.1 121.25
L 420.65 121.25 420.65 108.95
Q 420.65 108.55 420.55 108.4 420.4 108.25 420 108.25
L 416.35 108.25
Q 416 108.25 415.8 108.4 415.65 108.55 415.65 108.95
L 415.65 142.1
Q 415.65 142.5 415.8 142.65 416 142.75 416.35 142.75
L 420 142.75
Q 420.4 142.75 420.55 142.65 420.65 142.5 420.65 142.1
L 420.65 125.35 425.1 125.35
Q 425.45 125.35 425.65 125.2 425.85 125.1 425.85 124.65
L 425.85 121.9
M 396.1 110.4
Q 395.4 110.4 395.4 111.15
L 395.4 130.15
Q 395.4 131.55 396.05 132.1 396.65 132.7 398.15 132.8 399.55 132.9 401.5 132.85 403.4 132.85 405.5 132.65 407.65 132.45 409.7 132.15 411.85 131.85 413.65 131.45 414.25 131.3 414.2 130.75
L 413.7 127.75
Q 413.6 127.6 413.45 127.45 413.35 127.3 412.9 127.4 411.6 127.7 410.1 127.9 408.6 128.15 407.05 128.3 405.45 128.5 403.95 128.55 402.5 128.6 401.25 128.55 400.4 128.5 400.4 127.7
L 400.4 111.15
Q 400.4 110.4 399.65 110.4
L 396.1 110.4
M 661.35 76.95
Q 661.35 76.55 661.25 76.4 661.1 76.25 660.7 76.25
L 657.05 76.25
Q 656.7 76.25 656.5 76.4 656.35 76.55 656.35 76.95
L 656.35 110.1
Q 656.35 110.5 656.5 110.65 656.7 110.75 657.05 110.75
L 660.7 110.75
Q 661.1 110.75 661.25 110.65 661.35 110.5 661.35 110.1
L 661.35 93.3 665.8 93.3
Q 666.15 93.3 666.35 93.2 666.55 93.05 666.55 92.65
L 666.55 89.9
Q 666.55 89.4 666.35 89.3 666.15 89.2 665.8 89.2
L 661.35 89.2 661.35 76.95
M 640.9 83.55
Q 640.9 83.35 641 83.2 641.05 83.05 641.4 83.05
L 651.35 83.05
Q 651.75 83.05 651.9 82.95 652.05 82.85 652.05 82.45
L 652.05 79.6
Q 652.05 79.2 651.9 79.1 651.75 78.95 651.35 78.95
L 638.35 78.95
Q 636.85 78.95 636.4 79.4 635.9 79.8 635.9 81.25
L 635.9 98.6
Q 635.9 100.1 636.55 100.55 637.15 101 638.45 101 640 101.1 642.05 101.05 644.1 101 646.2 100.85 648.35 100.7 650.35 100.4 652.4 100.15 653.9 99.8 654.3 99.7 654.45 99.55 654.6 99.4 654.5 99
L 654.1 96.35
Q 654 96.1 653.85 95.95 653.75 95.85 653.3 95.9 651.9 96.15 650.35 96.35 648.8 96.55 647.25 96.65 645.75 96.8 644.25 96.85 642.8 96.85 641.45 96.85 640.9 96.85 640.9 96.25
L 640.9 83.55 Z"/>
</g>

<path id="Layer0_0_1_STROKES" stroke="#DBDBDB" stroke-width="3" stroke-linejoin="round" stroke-linecap="round" fill="none" d="
M 929.85 254.9
L 1059.85 254.9
Q 1074.85 254.9 1074.85 269.9
L 1074.85 299.95
Q 1074.85 314.95 1059.85 314.95
L 929.85 314.95
Q 914.85 314.95 914.85 299.95
L 914.85 269.9
Q 914.85 254.9 929.85 254.9 Z"/>

<path id="Layer0_0_2_STROKES" stroke="#BBDECB" stroke-width="5" stroke-linejoin="round" stroke-linecap="round" fill="none" d="
M 31.5 2.5
L 1091.25 2.5
Q 1106.25 2.5 1106.25 17.5
L 1106.25 214.25
Q 1106.25 229.25 1091.25 229.25
L 31.5 229.25
Q 16.5 229.25 16.5 214.25
L 16.5 17.5
Q 16.5 2.5 31.5 2.5 Z"/>

<path id="Layer0_0_3_STROKES" stroke="#000000" stroke-width="3" stroke-linejoin="round" stroke-linecap="round" fill="none" d="
M 615 55.9
L 591.55 173.35 769.6 55.9 615 55.9 Z
M 346.35 179.95
L 470.35 179.95 470.35 102.6 404.1 50.85 346.35 115.4 346.35 179.95 Z
M 228.3 114.9
Q 228.3 142.25 208.95 161.55 189.65 180.9 162.3 180.9 134.95 180.9 115.6 161.55 96.3 142.25 96.3 114.9 96.3 87.55 115.6 68.2 134.95 48.9 162.3 48.9 189.65 48.9 208.95 68.2 228.3 87.55 228.3 114.9 Z
M 1021.5 49.45
L 892 181.95 1021.5 181.95 1021.5 110.45"/>

<path id="Layer0_0_4_STROKES" stroke="#CCCCCC" stroke-width="3" stroke-linejoin="round" stroke-linecap="round" fill="none" d="
M 73.85 461.65
L 1112.8 461.65
M 73.85 401.65
L 1112.8 401.65"/>
</defs>

<g transform="matrix( 1, 0, 0, 1, 0,0) ">
<use xlink:href="#Layer0_0_FILL"/>

<use xlink:href="#Layer0_0_1_STROKES"/>

<use xlink:href="#Layer0_0_2_STROKES"/>

<use xlink:href="#Layer0_0_3_STROKES"/>

<use xlink:href="#Layer0_0_4_STROKES"/>
</g>
</svg>
