<svg xmlns="http://www.w3.org/2000/svg" version="1.1" xmlns:xlink="http://www.w3.org/1999/xlink"
    preserveAspectRatio="none" x="0px" y="0px" width="60px" height="104px" viewBox="0 0 60 104">
    <defs>
        <radialGradient id="Gradient_1" gradientUnits="userSpaceOnUse" cx="0" cy="0" r="18.899999999999977" fx="0"
            fy="0" gradientTransform="matrix( 1.0000000000000013, 0, 0, 1.0000000000000013, 929.25,79.05) "
            spreadMethod="pad">
            <stop offset="34.509803921568626%" stop-color="#D9F3FF" />

            <stop offset="100%" stop-color="#A6E2FF" />
        </radialGradient>

        <filter id="Filter_1" x="-100%" y="-100%" width="300%" height="300%" color-interpolation-filters="sRGB">
            <feGaussianBlur in="SourceGraphic" stdDeviation="1,1" result="result1" />

            <feColorMatrix in="result1" type="matrix" values="1 0 0 0 0 0 1 0 0 0 0 0 1 0 0 0 0 0 0.6 0"
                result="result2" />
        </filter>

        <filter id="Filter_2" x="-20%" y="-20%" width="140%" height="140%" color-interpolation-filters="sRGB">
            <feColorMatrix in="SourceGraphic" type="matrix" values="1 0 0 0 0 0 1 0 0 0 0 0 1 0 0 0 0 0 0.6 0"
                result="result1" />
        </filter>

        <filter id="Filter_3" x="-20%" y="-20%" width="140%" height="140%" color-interpolation-filters="sRGB">
            <feColorMatrix in="SourceGraphic" type="matrix" values="1 0 0 0 0 0 1 0 0 0 0 0 1 0 0 0 0 0 0.3 0"
                result="result1" />
        </filter>

        <g id="fsbd4454545_0_Layer0_0_FILL">
            <path fill="url(#Gradient_1)" stroke="none"
                d="
M 929.25 61.05
Q 921.8 61.05 916.5 66.3 911.25 71.6 911.25 79.05 911.25 86.5 916.5 91.75 921.8 97.05 929.25 97.05 936.7 97.05 941.95 91.75 947.25 86.5 947.25 79.05 947.25 71.6 941.95 66.3 936.7 61.05 929.25 61.05 Z" />
        </g>

        <g id="sdbs3434_0_Layer0_0_FILL">
            <path fill="#FFFFFF" stroke="none"
                d="
M 42.5 8.5
Q 42.5 7.9 42.05 7.45 41.6 7 41 7 40.4 7 39.95 7.45 39.5 7.9 39.5 8.5 39.5 9.1 39.95 9.55 40.4 10 41 10 41.6 10 42.05 9.55 42.5 9.1 42.5 8.5 Z" />
        </g>

        <g id="vsdbs3434_0_Layer0_0_FILL">
            <path fill="#FFFFFF" stroke="none"
                d="
M 42.5 8.5
Q 42.5 7.9 42.05 7.45 41.6 7 41 7 40.4 7 39.95 7.45 39.5 7.9 39.5 8.5 39.5 9.1 39.95 9.55 40.4 10 41 10 41.6 10 42.05 9.55 42.5 9.1 42.5 8.5 Z" />
        </g>

        <g id="nd454546_0_Layer0_0_FILL">
            <path fill="#565656" stroke="none" d="
M 9.8 -18.7
L 9.8 -29.15
Q 9.8 -34.95 4 -34.95
L -3.95 -34.95
Q -9.75 -34.95 -9.75 -29.15
L -9.75 -18.7 9.8 -18.7 Z" />
        </g>

        <g id="nd454546_0_Layer0_1_FILL">
            <path fill="#A6A6A6" stroke="none" d="
M 14.8 33.1
Q 16.3 33.1 17.4 32 18.45 30.95 18.45 29.45
L 18.45 29.4
Q 18.45 27.9 17.4 26.8 16.3 25.75 14.8 25.75
L -14.9 25.75
Q -16.4 25.75 -17.45 26.8 -18.55 27.9 -18.55 29.4
L -18.55 29.45
Q -18.55 30.95 -17.45 32 -16.4 33.1 -14.9 33.1
L 14.8 33.1 Z" />
        </g>

        <g id="nd454546_0_Layer0_2_FILL">
            <path fill="#858585" stroke="none" d="
M 14.8 33.1
Q 16.3 33.1 17.4 32 18.45 30.95 18.45 29.45
L 18.45 29.4
Q 18.45 27.9 17.4 26.8 16.3 25.75 14.8 25.75
L -14.9 25.75
Q -16.4 25.75 -17.45 26.8 -18.55 27.9 -18.55 29.4
L -18.55 29.45
Q -18.55 30.95 -17.45 32 -16.4 33.1 -14.9 33.1
L 14.8 33.1 Z" />
        </g>

        <g id="nd454546_0_Layer0_3_FILL">
            <path fill="#696969" stroke="none" d="
M 14.8 33.1
Q 16.3 33.1 17.4 32 18.45 30.95 18.45 29.45
L 18.45 29.4
Q 18.45 27.9 17.4 26.8 16.3 25.75 14.8 25.75
L -14.9 25.75
Q -16.4 25.75 -17.45 26.8 -18.55 27.9 -18.55 29.4
L -18.55 29.45
Q -18.55 30.95 -17.45 32 -16.4 33.1 -14.9 33.1
L 14.8 33.1 Z" />
        </g>

        <path id="fdbd454545_0_Layer0_0_1_STROKES" stroke="#79B5D2" stroke-width="1" stroke-linejoin="round"
            stroke-linecap="round" fill="none" d="
M -2.9 -8.5
L -6.9 8.15
Q -6.6 8.45 -6.3 8.45 -5.95 8.45 -5.7 8.15 -5.35 7.8 -5.15 7.25 -5 6.8 -4.75 6.45 -4.4 6.25 -4.2 6.25 -3.85 6.25 -3.65 6.45 -3.35 6.8 -3.2 7.25 -3.05 7.8 -2.7 8.15 -2.45 8.45 -2.1 8.45 -1.75 8.45 -1.45 8.15 -1.15 7.8 -0.95 7.25 -0.75 6.8 -0.5 6.45 -0.25 6.25 0 6.25 0.35 6.25 0.55 6.45 0.8 6.8 1 7.25 1.15 7.8 1.5 8.15 1.75 8.45 2.1 8.45 2.45 8.45 2.7 8.15 3.05 7.8 3.25 7.25 3.4 6.8 3.65 6.45 3.95 6.25 4.2 6.25 4.5 6.25 4.75 6.45 5 6.8 5.25 7.25 5.35 7.8 5.7 8.15 5.95 8.45 6.3 8.45 6.6 8.45 6.9 8.15
L 2.9 -8.5" />

        <path id="bdf454545_0_Layer1_0_1_STROKES" stroke="#565656" stroke-width="1.5" stroke-linejoin="miter"
            stroke-linecap="butt" stroke-miterlimit="3" fill="none" d="
M 0 -54.5
L 0 -25.75" />
    </defs>

    <g transform="matrix( 1, 0, 0, 1, 30.05,60.05) ">
        <g transform="matrix( 1.3701171875, 0, 0, 1.3701171875, -1273.15,-108.3) ">
            <use xlink:href="#fsbd4454545_0_Layer0_0_FILL" />
        </g>
    </g>

    <g transform="matrix( 1.8499603271484375, 0, 0, 1.8499603271484375, 17.8,47.8) ">
        <g filter="url(#Filter_1)" transform="matrix( 0.5405426025390625, 0, 0, 0.5405426025390625, -9.6,-25.8) ">
            <g transform="matrix( 1.8499603271484375, 0, 0, 1.8499603271484375, 17.8,47.8) ">
                <g transform="matrix( 1, 0, 0, 1, -41,-8.5) ">
                    <use xlink:href="#sdbs3434_0_Layer0_0_FILL" />
                </g>
            </g>
        </g>

        <g transform="matrix( 1, 0, 0, 1, -41,-8.5) ">
            <use filter="url(#Filter_2)" xlink:href="#vsdbs3434_0_Layer0_0_FILL" />
        </g>
    </g>

    <g transform="matrix( 1, 0, 0, 1, 30.05,36.2) ">
        <g transform="matrix( 1, 0, 0, 1, 0,0) ">
            <use filter="url(#Filter_3)" xlink:href="#fdbd454545_0_Layer0_0_1_STROKES" />
        </g>
    </g>

    <g transform="matrix( 1, 0, 0, 1, 30.05,18.5) ">
        <g transform="matrix( 1, 0, 0, 1.2843017578125, 0,51.5) ">
            <use xlink:href="#bdf454545_0_Layer1_0_1_STROKES" />
        </g>
    </g>

    <g transform="matrix( 1, 0, 0, 1, 30.05,30.6) ">
        <g transform="matrix( 0.623382568359375, 0, 0, 0.623382568359375, 0,14.7) ">
            <use xlink:href="#nd454546_0_Layer0_0_FILL" />
        </g>

        <g transform="matrix( -0.520416259765625, 0, 0, -0.520416259765625, 0,20.45) ">
            <use xlink:href="#nd454546_0_Layer0_1_FILL" />
        </g>

        <g transform="matrix( -0.520416259765625, 0, 0, -0.520416259765625, 0,16.85) ">
            <use xlink:href="#nd454546_0_Layer0_2_FILL" />
        </g>

        <g transform="matrix( -0.520416259765625, 0, 0, -0.520416259765625, 0,13.35) ">
            <use xlink:href="#nd454546_0_Layer0_3_FILL" />
        </g>
    </g>
</svg>