
<svg xmlns="http://www.w3.org/2000/svg" version="1.1" xmlns:xlink="http://www.w3.org/1999/xlink" preserveAspectRatio="none" x="0px" y="0px" width="690px" height="90px" viewBox="0 0 690 90">
<defs>
<g id="Layer0_0_FILL">
<path fill="#1E1E1E" stroke="none" d="
M 151.8 13.85
Q 151.4 13.8 151 13.9 150.55 14 150.2 14.25 149.8 14.5 149.55 14.9
L 149.3 15.3
Q 148.7 16.2 148.1 17.15 147.5 18.15 146.9 19.2 146.25 20.3 145.65 21.35 145 22.45 144.3 23.45 142.95 25.6 141.7 27.6 141 28.6 140.35 29.65 139.65 30.65 139 31.7
L 138.85 32.15 138.8 32.15 138.8 32.2 138.75 32.25
Q 138.65 32.45 138.55 32.65 138.5 32.8 138.45 33.05 138.4 33.25 138.4 33.5 138.45 33.7 138.5 33.9 138.55 34.15 138.6 34.35 138.7 34.55 138.8 34.75 138.85 34.95 139 35.1 139.1 35.25 139.3 35.35 139.5 35.45 139.65 35.5 139.85 35.55 140.1 35.65 140.25 35.7 140.45 35.7 140.65 35.7 140.85 35.65
L 149.65 35.65 149.65 37.3
Q 149.65 37.9 149.8 38.3 149.95 38.7 150.25 38.85 150.75 39.3 151.8 39.3 152.5 39.3 153.15 38.85 153.8 38.5 153.8 37.3
L 153.8 35.65 154.95 35.65
Q 155.55 35.65 155.9 35.5 156.25 35.4 156.45 35.05 156.6 34.75 156.7 34.4 156.75 34.05 156.75 33.55 156.75 33.2 156.7 32.85 156.6 32.5 156.45 32.15 156.25 31.85 155.9 31.7 155.55 31.5 154.95 31.5
L 153.8 31.5 153.7 16.05
Q 153.7 15.8 153.65 15.6 153.6 15.35 153.5 15.1 153.35 14.85 153.15 14.65 152.95 14.4 152.65 14.2 152.2 13.95 151.8 13.85
M 148.35 24.05
Q 149.1 22.9 149.55 22.05
L 149.55 31.6 143.5 31.6
Q 143.9 31.1 144.3 30.45 144.7 29.85 145.1 29.2 145.55 28.55 145.95 27.85 146.3 27.2 146.7 26.55 147.15 25.9 147.6 25.25 148 24.65 148.35 24.05
M 220.9 80.05
Q 221 79.6 221.1 79 221.2 78.45 221.35 77.8 222.25 77.8 223.15 77.8 224 77.8 224.95 77.8 226.75 77.8 228.45 77.8 229.2 77.8 229.5 77.25 229.65 77 229.75 76.65 229.8 76.4 229.8 76 229.8 75.25 229.4 74.85 229 74.4 228.25 74.35
L 218.25 74.35
Q 218.05 75.8 217.85 77.25 217.7 78.7 217.5 80.15 217.25 81.55 217.1 83.05 216.9 84.5 216.75 85.9 216.75 85.95 216.75 86
L 216.8 86 216.8 86.05
Q 216.8 86.25 216.95 86.35 217.05 86.5 217.35 86.6 217.6 86.7 217.9 86.75 218.15 86.85 218.45 86.85 218.75 86.85 219 86.8 219.25 86.75 219.4 86.7 219.55 86.65 219.65 86.6 219.8 86.5 219.9 86.4 220.05 86.3 220.15 86.2 220.25 86.1 220.35 86 220.4 85.9 220.45 85.85 220.55 85.75 220.65 85.65 221 85.05 221.8 84.75 222.55 84.5 223.4 84.5 224.9 84.5 225.95 85.55 226.45 86.1 226.7 86.8 226.95 87.55 226.95 88.4 226.95 88.9 226.9 89.35 226.85 89.75 226.75 90.2 226.65 90.6 226.45 90.95 226.25 91.3 226 91.6 225.8 91.95 225.5 92.2 225.25 92.45 224.95 92.6 224.55 92.8 224.15 92.9 223.75 92.95 223.3 92.95 222.95 92.95 222.7 92.9 222.4 92.9 222.15 92.75 221.85 92.65 221.6 92.5 221.3 92.4 221.05 92.2 220.85 92 220.65 91.8 220.5 91.6 220.4 91.4 220.25 91.15 220.1 90.95 220 90.7 219.9 90.45 219.8 90.35 219.75 90.2 219.65 90.1 219.65 90.05
L 219.65 90
Q 219.55 89.75 219.45 89.55 219.3 89.35 219.15 89.25 218.95 89.15 218.7 89.1 218.45 89.05 218.2 89.05 217.75 89.05 217.45 89.15 217.15 89.25 216.9 89.45 216.65 89.65 216.5 89.9 216.4 90.15 216.4 90.45 216.4 90.55 216.4 90.65 216.4 90.75 216.45 90.9 216.45 91 216.45 91.1 216.5 91.25 216.6 91.45 216.65 91.65 216.75 91.85 216.85 92.1 216.9 92.3 217.05 92.6 217.2 92.85 217.35 93.1 217.6 93.35 217.75 93.6 217.95 93.85 218.1 94.05 218.3 94.3 219.25 95.35 220.5 95.85 221.75 96.4 223.3 96.4 223.95 96.4 224.6 96.25 225.25 96.15 225.9 95.9 227.15 95.4 228.25 94.35 228.75 93.85 229.2 93.3 229.65 92.7 229.95 92 230.3 91.3 230.45 90.45 230.6 89.65 230.65 88.75 230.65 87.8 230.45 87 230.3 86.2 230.05 85.5 229.7 84.8 229.3 84.25 228.9 83.65 228.4 83.2 227.5 82.3 226.45 81.85 225.85 81.65 225.3 81.5 224.75 81.4 224.25 81.4 223.6 81.4 223.05 81.5 222.55 81.55 222.1 81.65 221.6 81.8 221.25 81.95 220.9 82.15 220.65 82.3 220.75 81.15 220.9 80.05
M 167.25 40.6
L 167.25 39.1
Q 167.25 38.6 167.15 38.25 167 37.95 166.75 37.7 166.5 37.45 166.15 37.35 165.8 37.25 165.3 37.25
L 163.95 37.25
Q 163.4 37.25 163.05 37.35 162.65 37.45 162.45 37.65 162.25 37.85 162.1 38.2 162 38.6 162 39.1
L 162 40.6
Q 162 41.1 162.1 41.45 162.25 41.8 162.45 42 162.65 42.2 163.05 42.25 163.4 42.4 163.95 42.4
L 165.4 42.4
Q 166.3 42.4 166.8 41.95 167.25 41.5 167.25 40.6
M 189.25 14.8
Q 188.8 14.3 187.9 14.2
L 176.25 14.2
Q 176 15.9 175.8 17.6 175.6 19.3 175.35 20.95 175.1 22.65 174.9 24.35 174.65 26.05 174.5 27.7 174.5 27.75 174.5 27.8
L 174.55 27.8 174.55 27.9
Q 174.55 28.05 174.7 28.25 174.85 28.4 175.2 28.5 175.5 28.65 175.8 28.7 176.15 28.75 176.45 28.75 176.85 28.75 177.15 28.75 177.4 28.7 177.6 28.6 177.75 28.55 177.9 28.5 178.05 28.4 178.2 28.3 178.35 28.15 178.45 28.05 178.55 27.95 178.7 27.8 178.75 27.7 178.85 27.6 178.95 27.5 179.05 27.4 179.45 26.7 180.4 26.35 181.3 26.05 182.3 26.05 184 26.05 185.2 27.3 185.8 27.95 186.1 28.75 186.4 29.6 186.4 30.6 186.4 31.2 186.35 31.7 186.3 32.2 186.15 32.7 186.05 33.2 185.8 33.6 185.6 34 185.25 34.35 185.05 34.75 184.7 35.05 184.4 35.3 184.05 35.5 183.6 35.75 183.15 35.85 182.65 35.95 182.1 35.95 181.75 35.95 181.4 35.9 181.1 35.85 180.75 35.7 180.45 35.6 180.1 35.4 179.8 35.25 179.55 35.05 179.25 34.8 179.05 34.6 178.9 34.35 178.7 34.1 178.55 33.85 178.4 33.55 178.25 33.3 178.15 33 178 32.85 177.95 32.75 177.9 32.6 177.9 32.5
L 177.85 32.5 177.85 32.45
Q 177.75 32.15 177.65 31.95 177.5 31.75 177.3 31.6 177.05 31.5 176.8 31.4 176.5 31.35 176.15 31.35 175.7 31.35 175.3 31.45 174.95 31.6 174.65 31.8 174.35 32.05 174.2 32.35 174.05 32.65 174.05 33.05 174.05 33.1 174.05 33.25 174.05 33.35 174.15 33.5 174.15 33.65 174.15 33.8 174.2 33.95 174.3 34.15 174.4 34.4 174.5 34.65 174.6 34.9 174.7 35.15 174.85 35.5 175.05 35.8 175.2 36.05 175.45 36.35 175.65 36.65 175.9 36.95 176.1 37.2 176.3 37.5 177.4 38.7 178.9 39.3 180.35 39.95 182.1 39.95 182.9 39.95 183.65 39.8 184.4 39.65 185.15 39.35 186.6 38.75 187.9 37.55 188.5 37 189.05 36.3 189.55 35.65 189.9 34.8 190.3 33.95 190.45 33.05 190.65 32.1 190.7 31.05 190.7 29.95 190.5 29 190.35 28.05 190 27.2 189.65 26.45 189.15 25.75 188.65 25.1 188.1 24.55 187.05 23.45 185.8 22.95 185.1 22.7 184.45 22.6 183.85 22.45 183.25 22.45 182.5 22.45 181.85 22.55 181.25 22.6 180.7 22.75 180.15 22.9 179.75 23.1 179.3 23.3 179.05 23.5 179.15 22.15 179.35 20.9 179.45 20.3 179.55 19.65 179.7 19 179.85 18.25 180.9 18.25 181.95 18.25 183 18.25 184.05 18.25 186.15 18.25 188.1 18.25 189.05 18.25 189.4 17.6 189.55 17.3 189.65 16.95 189.75 16.6 189.75 16.15 189.75 15.25 189.25 14.8
M 210.6 17.8
Q 210.35 17.2 209.95 16.6 209.6 16.05 209.1 15.55 207.95 14.6 206.6 14 205.9 13.75 205.1 13.6 204.3 13.45 203.45 13.45 202.75 13.45 202.05 13.55 201.35 13.7 200.75 13.9 200.1 14.15 199.55 14.5 199 14.85 198.55 15.3 198.05 15.7 197.6 16.2 197.15 16.65 196.8 17.25 196.45 17.85 196.3 18.5 196.05 19.15 196.05 19.85 196.05 20.4 196.2 20.75 196.35 21.1 196.65 21.25 196.9 21.45 197.3 21.6 197.75 21.65 198.25 21.65 198.55 21.65 198.8 21.6 199 21.5 199.15 21.3 199.3 21.15 199.45 20.95 199.6 20.75 199.8 20.5 199.9 20.3 200 20 200.1 19.75 200.25 19.4 200.35 19.15 200.45 18.85 200.55 18.6 200.7 18.35 200.95 18.1 201.25 17.9 201.5 17.7 201.85 17.5 202.4 17.2 203.5 17.2 204.55 17.2 205.3 17.5 205.6 17.7 205.85 17.9 206.1 18.1 206.3 18.35 206.5 18.6 206.65 18.9 206.8 19.15 206.95 19.45 207.05 19.75 207.1 20.05 207.15 20.4 207.15 20.65 207.1 21.2 206.95 21.65 206.85 22.05 206.6 22.4 206.35 22.75 206.05 23.05 205.7 23.3 205.3 23.45 205 23.7 204.6 23.8 204.2 23.95 203.75 24 203.3 24.1 202.8 24.15 202.4 24.15 201.9 24.15 201.8 25.15 201.8 26.05 201.75 26.55 201.75 27 201.75 27.45 201.75 27.9 201.8 27.95 202 28 202.2 28.05 202.55 28.05 202.8 28.1 203.1 28.1 203.4 28.15 203.7 28.15 204.1 28.25 204.5 28.3 204.85 28.35 205.25 28.4 205.55 28.5 205.85 28.6 206.15 28.75 206.4 29 206.75 29.2 207.05 29.45 207.3 29.75 207.45 30.1 207.65 30.45 207.7 30.95 207.8 31.35 207.8 31.95 207.75 32.75 207.45 33.4 207.15 34.1 206.55 34.6 205.95 35.2 205.2 35.45 204.45 35.75 203.5 35.75 202.85 35.75 202.4 35.65 201.9 35.55 201.6 35.4 201.2 35.25 200.95 35 200.65 34.8 200.45 34.45 200.05 33.95 199.7 33.1 199.5 32.75 199.3 32.3 199.15 31.9 199 31.4 198.85 31.25 198.65 31.15 198.45 31 198.25 30.95 198 30.85 197.8 30.85 197.55 30.8 197.4 30.8 196.8 30.8 196.45 30.95 196.05 31.1 195.85 31.35 195.65 31.65 195.55 32 195.4 32.35 195.4 32.8
L 195.4 33.05
Q 195.55 33.85 195.75 34.5 196 35.2 196.4 35.75 196.75 36.4 197.25 36.9 197.7 37.4 198.25 37.85 198.75 38.3 199.35 38.65 199.95 38.95 200.65 39.15 201.3 39.4 202.05 39.5 202.8 39.6 203.55 39.6 204.45 39.6 205.3 39.45 206.15 39.3 207 39 207.75 38.7 208.4 38.25 209.05 37.85 209.5 37.35 210.1 36.8 210.55 36.2 210.95 35.6 211.3 34.85 211.95 33.5 211.95 31.8 211.95 31.35 211.85 30.85 211.75 30.4 211.6 29.95 211.4 29.55 211.2 29.15 211 28.7 210.75 28.35 210.35 27.6 209.7 27 209.35 26.7 209 26.45 208.65 26.15 208.25 25.95 208.5 25.85 208.7 25.65 208.95 25.45 209.15 25.25 209.35 25.05 209.55 24.8 209.8 24.55 210.1 24.2 210.6 23.45 210.85 22.55 211.1 21.65 211.1 20.45 211.1 19.8 210.95 19.15 210.8 18.45 210.6 17.8
M 239.35 12.1
Q 239.05 11.8 238.7 11.65 238.35 11.5 238.05 11.5 237.8 11.5 237.6 11.55 237.4 11.6 237.3 11.7 237.1 11.8 236.95 12 236.8 12.2 236.7 12.4 235.6 14.1 234.55 15.85 233.55 17.55 232.6 19.3 231.6 21.05 230.6 22.75 229.55 24.5 228.5 26.25 228.45 26.3 228.4 26.4 228.35 26.45 228.35 26.55 228.3 26.65 228.3 26.7 228.3 26.8 228.3 26.85
L 228.3 27
Q 228.25 27.05 228.25 27.1 228.25 27.2 228.25 27.3 228.25 27.55 228.35 27.8 228.45 28 228.6 28.15 229.65 29.95 230.65 31.65 231.65 33.4 232.6 35.05 233.55 36.8 234.55 38.5 235.5 40.2 236.55 41.9 236.75 42.3 237.1 42.55 237.45 42.75 237.9 42.75 238.3 42.75 238.65 42.6 238.95 42.5 239.3 42.2 239.55 41.9 239.7 41.6 239.9 41.3 239.9 41.05 239.9 40.8 239.8 40.6 239.75 40.4 239.65 40.2 239.15 39.45 238.7 38.7 238.2 37.9 237.75 37.05 237.3 36.2 236.8 35.35 236.35 34.5 235.8 33.65 235.35 32.8 234.9 31.95 234.4 31.1 233.95 30.25 232.85 28.55 232.15 27.1 233.1 25.45 234.05 23.85 235 22.25 235.95 20.6 236.9 19 237.85 17.4 238.8 15.75 239.75 14.15 239.85 13.9 239.9 13.7 239.95 13.45 239.95 13.2 239.95 12.95 239.8 12.65 239.65 12.35 239.35 12.1
M 243.65 72.05
Q 243.4 72.05 243.25 72.1 243.1 72.1 242.95 72.2 242.85 72.3 242.7 72.45 242.6 72.6 242.5 72.8 241.5 74.25 240.65 75.75 239.75 77.2 238.95 78.7 238.15 80.2 237.25 81.7 236.35 83.2 235.45 84.65 235.4 84.7 235.35 84.8 235.35 84.85 235.35 84.9 235.3 85 235.3 85.05
L 235.25 85.15 235.25 85.3
Q 235.25 85.35 235.25 85.4 235.25 85.45 235.25 85.55 235.25 85.8 235.3 86 235.4 86.15 235.55 86.3 236.45 87.8 237.3 89.3 238.15 90.8 238.95 92.2 239.75 93.7 240.6 95.15 241.45 96.65 242.35 98.1 242.55 98.45 242.85 98.6 243.1 98.8 243.5 98.8 243.85 98.8 244.15 98.7 244.4 98.55 244.7 98.35 244.95 98.1 245.05 97.85 245.2 97.6 245.2 97.35 245.2 97.15 245.15 96.95 245.1 96.8 245 96.65 244.6 96 244.2 95.3 243.8 94.65 243.4 93.9 243 93.2 242.6 92.45 242.15 91.75 241.7 91 241.35 90.25 240.95 89.55 240.55 88.8 240.1 88.1 239.2 86.65 238.55 85.4 239.4 84 240.2 82.6 241.05 81.25 241.85 79.8 242.65 78.45 243.45 77.05 244.25 75.7 245.1 74.3 245.15 74.1 245.2 73.9 245.25 73.7 245.25 73.5 245.25 73.25 245.15 73 245 72.75 244.75 72.5 244.5 72.3 244.2 72.15 243.9 72.05 243.65 72.05
M 257.8 73.45
Q 256.8 73.45 255.9 73.7 255.05 73.9 254.35 74.3 253.6 74.75 252.95 75.35 252.35 75.9 251.8 76.65 251.25 77.45 250.85 78.35 250.45 79.3 250.2 80.35 249.95 81.45 249.8 82.65 249.65 83.85 249.65 85.15 249.65 86.45 249.8 87.6 249.9 88.75 250.15 89.75 250.35 90.8 250.75 91.7 251.15 92.6 251.65 93.3 252.15 94.05 252.75 94.65 253.35 95.2 254.05 95.6 255.5 96.4 257.55 96.4 258.35 96.4 259.1 96.25 259.8 96.15 260.45 95.8 261.05 95.55 261.65 95.1 262.2 94.7 262.7 94.15 263.15 93.6 263.5 93 263.85 92.4 264.1 91.7 264.35 91.05 264.45 90.3 264.6 89.5 264.6 88.7 264.6 88 264.45 87.3 264.35 86.6 264.15 85.9 263.9 85.25 263.6 84.7 263.25 84.1 262.85 83.55 262.35 83.1 261.85 82.7 261.3 82.3 260.75 82 260.2 81.7 259.55 81.55 258.95 81.4 258.3 81.4 258.2 81.4 258.1 81.45 258 81.45 257.95 81.45 257.85 81.5 257.8 81.5 257.7 81.5 257.6 81.55 256.1 81.6 255.1 82.1 254.55 82.35 254.15 82.6 253.7 82.9 253.4 83.2 253.4 82.8 253.45 82.35 253.5 81.85 253.6 81.3 253.7 80.75 253.85 80.25 254 79.7 254.2 79.2 254.65 78.2 255.55 77.5 256 77.15 256.55 77 257.1 76.8 257.75 76.8 258.2 76.8 258.55 76.85 258.9 76.9 259.15 77.05 259.4 77.15 259.65 77.35 259.9 77.5 260.15 77.75 260.3 77.9 260.45 78.1 260.55 78.3 260.65 78.55 260.85 79.05 261.2 79.35 261.3 79.55 261.4 79.7 261.55 79.9 261.65 80 261.9 80.3 262.45 80.3 262.75 80.3 263.05 80.2 263.35 80.1 263.65 79.9 263.9 79.7 264.05 79.45 264.2 79.2 264.2 78.85 264.2 78.45 264.05 78 263.9 77.55 263.65 77.1 263.35 76.65 263.05 76.2 262.75 75.8 262.45 75.4 261.5 74.45 260.35 73.95 259.15 73.45 257.8 73.45
M 255.85 85
Q 256.55 84.7 257.5 84.7 258.3 84.7 258.95 85 259.6 85.25 260.15 85.8 260.65 86.35 260.9 87.15 261.2 87.9 261.2 88.85 261.2 89.85 260.9 90.6 260.65 91.4 260.15 91.95 259.6 92.55 258.95 92.8 258.3 93.1 257.5 93.1 256.6 93.1 255.9 92.8 255.2 92.5 254.75 91.9 253.75 90.8 253.75 88.85 253.75 87.9 253.95 87.15 254.2 86.4 254.7 85.85 255.15 85.25 255.85 85
M 270.25 16.05
Q 270.25 15.8 270.2 15.6 270.15 15.35 270.05 15.1 269.9 14.85 269.7 14.65 269.5 14.4 269.2 14.2 268.75 13.95 268.35 13.85 267.95 13.8 267.55 13.9 267.1 14 266.75 14.25 266.35 14.5 266.1 14.9
L 265.85 15.3
Q 265.25 16.2 264.65 17.15 264.05 18.15 263.45 19.2 262.8 20.3 262.2 21.35 261.55 22.45 260.85 23.45 259.5 25.6 258.25 27.6 257.55 28.6 256.9 29.65 256.2 30.65 255.55 31.7
L 255.4 32.15 255.35 32.15 255.35 32.2 255.3 32.25
Q 255.2 32.45 255.1 32.65 255.05 32.8 255 33.05 254.95 33.25 254.95 33.5 255 33.7 255.05 33.9 255.1 34.15 255.15 34.35 255.25 34.55 255.35 34.75 255.4 34.95 255.55 35.1 255.65 35.25 255.85 35.35 256.05 35.45 256.2 35.5 256.4 35.55 256.65 35.65 256.8 35.7 257 35.7 257.2 35.7 257.4 35.65
L 266.2 35.65 266.2 37.3
Q 266.2 37.9 266.35 38.3 266.5 38.7 266.8 38.85 267.3 39.3 268.35 39.3 269.05 39.3 269.7 38.85 270.35 38.5 270.35 37.3
L 270.35 35.65 271.5 35.65
Q 272.1 35.65 272.45 35.5 272.8 35.4 273 35.05 273.15 34.75 273.25 34.4 273.3 34.05 273.3 33.55 273.3 33.2 273.25 32.85 273.15 32.5 273 32.15 272.8 31.85 272.45 31.7 272.1 31.5 271.5 31.5
L 270.35 31.5 270.25 16.05
M 264.9 24.05
Q 265.65 22.9 266.1 22.05
L 266.1 31.6 260.05 31.6
Q 260.45 31.1 260.85 30.45 261.25 29.85 261.65 29.2 262.1 28.55 262.5 27.85 262.85 27.2 263.25 26.55 263.7 25.9 264.15 25.25 264.55 24.65 264.9 24.05
M 283.8 39.1
Q 283.8 38.6 283.7 38.25 283.55 37.95 283.3 37.7 283.05 37.45 282.7 37.35 282.35 37.25 281.85 37.25
L 280.5 37.25
Q 279.95 37.25 279.6 37.35 279.2 37.45 279 37.65 278.8 37.85 278.65 38.2 278.55 38.6 278.55 39.1
L 278.55 40.6
Q 278.55 41.1 278.65 41.45 278.8 41.8 279 42 279.2 42.2 279.6 42.25 279.95 42.4 280.5 42.4
L 281.95 42.4
Q 282.85 42.4 283.35 41.95 283.8 41.5 283.8 40.6
L 283.8 39.1
M 307.1 18.5
Q 306.95 17.95 306.6 17.4 306.25 16.9 305.9 16.4 305.6 15.9 305.25 15.45 304.1 14.35 302.75 13.75 301.35 13.2 299.8 13.2 298.6 13.2 297.6 13.45 296.6 13.7 295.75 14.2 294.9 14.65 294.15 15.35 293.4 16.05 292.8 16.95 292.15 17.85 291.7 18.9 291.25 20 290.95 21.25 290.6 22.5 290.45 23.9 290.3 25.3 290.3 26.85 290.3 28.35 290.45 29.7 290.55 31 290.85 32.2 291.1 33.4 291.55 34.45 292 35.5 292.65 36.35 293.2 37.2 293.9 37.9 294.6 38.55 295.45 39.05 297.1 39.95 299.55 39.95 300.45 39.95 301.3 39.8 302.15 39.6 302.85 39.25 303.6 38.9 304.25 38.45 304.9 37.95 305.55 37.3 306.05 36.7 306.45 36 306.9 35.3 307.15 34.45 307.4 33.7 307.55 32.8 307.7 31.9 307.7 31 307.7 30.1 307.55 29.3 307.45 28.5 307.2 27.7 306.95 26.95 306.55 26.3 306.2 25.6 305.7 25 305.1 24.4 304.5 23.95 303.9 23.5 303.25 23.15 302.55 22.8 301.85 22.65 301.15 22.45 300.4 22.45 300.25 22.45 300.15 22.5 300.05 22.5 299.95 22.5 299.85 22.55 299.75 22.55 299.65 22.6 299.55 22.6 297.8 22.65 296.6 23.25 296 23.55 295.55 23.85 295.05 24.2 294.65 24.55 294.65 24.1 294.7 23.55 294.75 23 294.9 22.35 295 21.7 295.2 21.1 295.4 20.5 295.6 19.85 296.15 18.7 297.2 17.9 297.7 17.5 298.3 17.3 298.95 17.1 299.75 17.1 300.25 17.1 300.65 17.15 301.1 17.2 301.4 17.35 301.7 17.5 301.95 17.7 302.25 17.9 302.55 18.15 302.7 18.35 302.85 18.6 303 18.85 303.15 19.1 303.35 19.7 303.75 20.05 303.85 20.3 304 20.45 304.15 20.65 304.3 20.85 304.55 21.15 305.25 21.15 305.55 21.15 305.9 21.05 306.25 20.9 306.6 20.7 306.95 20.45 307.1 20.2 307.25 19.85 307.25 19.45 307.25 19 307.1 18.5
M 302.55 27.6
Q 303.1 28.25 303.4 29.15 303.75 30 303.75 31.15 303.75 32.3 303.4 33.2 303.1 34.1 302.55 34.75 301.9 35.45 301.15 35.75 300.35 36.1 299.45 36.1 298.4 36.1 297.55 35.75 296.75 35.4 296.2 34.7 295.05 33.4 295.05 31.15 295.05 30.05 295.3 29.15 295.6 28.3 296.2 27.6 296.7 26.95 297.5 26.6 298.35 26.3 299.45 26.3 300.35 26.3 301.15 26.6 301.9 26.95 302.55 27.6
M 325.95 15.8
Q 325.35 15.3 324.7 14.85 324.05 14.45 323.35 14.1 322.65 13.8 321.85 13.65 321.1 13.45 320.25 13.45
L 320.2 13.45
Q 319.35 13.45 318.6 13.6 317.85 13.8 317.2 14.1 316.45 14.45 315.85 14.9 315.2 15.3 314.7 15.85 313.75 16.9 313.2 18.15 312.95 18.8 312.8 19.45 312.65 20.05 312.65 20.7 312.65 21.05 312.8 21.35 312.95 21.65 313.2 21.85 313.5 22.05 313.8 22.2 314.05 22.3 314.4 22.3 314.85 22.3 315.25 22.1 315.7 21.95 316.05 21.65 316.35 21.3 316.55 20.9 316.7 20.5 316.7 20 316.7 19.85 316.8 19.65 316.85 19.4 317.05 19.15 317.15 18.9 317.3 18.65 317.5 18.45 317.7 18.25 318 18.05 318.3 17.9 318.6 17.7 318.95 17.55 319.3 17.45 319.6 17.4 319.9 17.3 320.25 17.3 320.75 17.3 321.15 17.4 321.6 17.5 321.95 17.65 322.3 17.8 322.6 18.05 322.9 18.25 323.15 18.5 323.35 18.75 323.5 19.1 323.7 19.4 323.85 19.7 324 20.05 324.1 20.35 324.15 20.7 324.15 21 324.15 21.3 324.1 21.6 324.05 21.9 323.9 22.25 323.75 22.55 323.55 22.85 323.4 23.15 323.25 23.45 323.05 23.8 322.9 24.05 322.7 24.35 322.4 24.55 322.15 24.8 321.9 25 321.65 25.2 321.5 25.3 321.05 25.65 320.6 26 320.1 26.35 319.65 26.7 319.2 27.05 318.75 27.4 318.3 27.75 317.85 28.05 317.2 28.6 316.7 29.05 316.15 29.5 315.65 29.9 315.2 30.35 314.85 30.8 314.5 31.25 314.25 31.7 313.85 32.1 313.6 32.6 313.4 33.05 313.2 33.5 313.05 34.05 312.95 34.65 312.8 35.2 312.75 35.85 312.75 35.9 312.75 36 312.7 36.1 312.7 36.2 312.65 36.3 312.65 36.45 312.6 36.55 312.65 36.6
L 312.65 36.75
Q 312.6 36.85 312.6 37 312.6 37.1 312.6 37.2 312.6 37.75 312.75 38.1 312.9 38.45 313.3 38.65 313.6 38.9 314 39 314.4 39.15 314.85 39.15
L 326.45 39.15
Q 328.55 39.15 328.55 37.25 328.55 36.75 328.4 36.4 328.25 36.05 328 35.85 327.7 35.7 327.25 35.6 326.8 35.5 326.25 35.5
L 317.25 35.5
Q 317.25 35 317.4 34.45 317.55 33.95 317.9 33.45 318.2 33 318.65 32.55 319.05 32.1 319.55 31.7 320 31.35 320.45 31 320.95 30.6 321.5 30.3 322 29.95 322.45 29.65 322.9 29.35 323.2 29.1 323.7 28.75 324.2 28.4 324.7 28 325.15 27.6 325.55 27.15 325.95 26.7 326.3 26.25 326.6 25.75 326.95 25.3 327.25 24.75 327.5 24.25 327.65 23.65 327.8 23.05 327.9 22.35 328 21.7 328 20.95 328 20.25 327.85 19.6 327.7 18.9 327.45 18.25 327.2 17.55 326.8 16.95 326.4 16.35 325.95 15.8
M 393.75 37.35
Q 393.4 37.25 392.9 37.25
L 391.55 37.25
Q 391 37.25 390.65 37.35 390.25 37.45 390.05 37.65 389.85 37.85 389.7 38.2 389.6 38.6 389.6 39.1
L 389.6 40.6
Q 389.6 41.1 389.7 41.45 389.85 41.8 390.05 42 390.25 42.2 390.65 42.25 391 42.4 391.55 42.4
L 393 42.4
Q 393.9 42.4 394.4 41.95 394.85 41.5 394.85 40.6
L 394.85 39.1
Q 394.85 38.6 394.75 38.25 394.6 37.95 394.35 37.7 394.1 37.45 393.75 37.35
M 372.6 13.6
Q 371.65 13.85 370.85 14.3 370.05 14.8 369.35 15.45 368.65 16.15 368.1 16.95 367.55 17.8 367.2 18.85 366.8 19.9 366.5 21.1 366.2 22.3 366.1 23.65 365.95 25 365.95 26.45 365.95 27.85 366.05 29.2 366.2 30.5 366.45 31.7 366.7 32.85 367.05 33.9 367.5 35 368.05 35.85 368.65 36.75 369.35 37.4 370.05 38.1 370.8 38.55 371.6 39.05 372.55 39.3 373.5 39.55 374.65 39.55 375.65 39.55 376.55 39.3 377.45 39.05 378.3 38.55 379.1 38.1 379.8 37.4 380.5 36.75 381.05 35.85 381.65 35 382.1 33.9 382.55 32.85 382.85 31.7 383.1 30.5 383.25 29.2 383.4 27.85 383.4 26.45 383.4 25.05 383.25 23.75 383.1 22.4 382.85 21.2 382.5 20 382.05 18.95 381.6 17.95 381 17.05 380.4 16.2 379.75 15.55 379.05 14.85 378.25 14.35 377.45 13.85 376.55 13.6 375.65 13.3 374.65 13.3 373.55 13.35 372.6 13.6
M 372.7 18
Q 373.1 17.7 373.6 17.55 374.1 17.35 374.65 17.35 375.1 17.35 375.6 17.55 376.05 17.7 376.55 18.05 376.95 18.4 377.35 18.9 377.7 19.4 378 20 378.2 20.65 378.4 21.35 378.6 22.05 378.8 22.9 378.95 23.75 379.05 24.6 379.15 25.5 379.15 26.45 379.15 27.4 379.05 28.3 379 29.2 378.85 30 378.45 31.7 378 32.9 377.75 33.55 377.35 34.05 377 34.55 376.55 34.9 376.1 35.3 375.6 35.45 375.15 35.65 374.65 35.65 374.05 35.65 373.55 35.45 373.05 35.3 372.65 34.9 371.8 34.15 371.2 32.9 370.9 32.25 370.75 31.5 370.55 30.75 370.45 29.9 370.3 29.1 370.2 28.25 370.15 27.35 370.15 26.45 370.15 25.5 370.2 24.6 370.3 23.7 370.45 22.85 370.55 22.05 370.75 21.3 370.95 20.55 371.2 19.95 371.5 19.35 371.9 18.85 372.3 18.4 372.7 18
M 476 73.9
Q 475.35 73.7 474.6 73.55 473.9 73.45 473.1 73.45 471.65 73.45 470.4 73.9 469.75 74.15 469.2 74.5 468.65 74.8 468.2 75.2 467.75 75.6 467.4 76.1 467.05 76.55 466.8 77.1 466.55 77.65 466.4 78.25 466.25 78.85 466.25 79.5 466.25 80.25 466.45 80.95 466.6 81.65 467 82.25 467.3 82.85 467.8 83.4 468.25 83.9 468.9 84.3 467.4 85.2 466.45 86.55 465.95 87.25 465.7 88 465.45 88.75 465.4 89.6 465.4 90.35 465.55 91.05 465.7 91.7 466 92.35 466.3 92.95 466.75 93.5 467.15 94.05 467.7 94.5 468.25 94.95 468.85 95.35 469.45 95.7 470.15 95.95 470.8 96.25 471.55 96.4 472.3 96.55 473.1 96.55 474.7 96.55 476.15 96 477.5 95.45 478.6 94.55 479.1 94.1 479.55 93.6 479.95 93.05 480.25 92.45 480.9 91.3 480.9 89.85 480.9 89 480.65 88.2 480.4 87.45 479.95 86.7 479.45 86 478.85 85.4 478.25 84.8 477.55 84.3 478 83.95 478.45 83.45 478.85 83 479.2 82.4 479.55 81.85 479.75 81.25 480 80.65 480.05 79.95 480.1 79.85 480.15 79.75 480.2 79.65 480.2 79.5 480.2 78.9 480.05 78.3 479.9 77.75 479.65 77.15 479 76.05 478.1 75.25 477.65 74.85 477.15 74.5 476.6 74.15 476 73.9
M 476.4 78.65
Q 476.6 79.2 476.6 79.75 476.6 80.4 476.4 80.95 476.2 81.45 475.8 81.85 475.4 82.3 474.7 82.5 474.05 82.7 473.1 82.7 472.25 82.7 471.6 82.5 471 82.3 470.6 81.85 470.15 81.45 469.95 80.95 469.75 80.4 469.75 79.75 469.75 79.2 469.95 78.7 470.15 78.2 470.55 77.75 470.95 77.3 471.6 77.1 472.25 76.9 473.1 76.9 474.05 76.9 474.7 77.1 475.4 77.3 475.8 77.75 476.2 78.15 476.4 78.65
M 471.4 86.45
Q 472.15 86.2 473.1 86.2 474.15 86.2 474.95 86.45 475.75 86.7 476.3 87.2 476.8 87.7 477.05 88.3 477.3 88.9 477.3 89.65 477.3 90.4 477.05 91 476.8 91.55 476.3 92.05 475.75 92.6 474.95 92.85 474.15 93.1 473.1 93.1 471.2 93.1 470.15 92.1 469.6 91.6 469.3 91 469 90.4 469 89.65 469 88.9 469.3 88.3 469.6 87.65 470.15 87.15 470.65 86.7 471.4 86.45
M 414.05 14.85
Q 413.4 14.45 412.7 14.1 412 13.8 411.2 13.65 410.45 13.45 409.6 13.45
L 409.55 13.45
Q 408.7 13.45 407.95 13.6 407.2 13.8 406.55 14.1 405.8 14.45 405.2 14.9 404.55 15.3 404.05 15.85 403.1 16.9 402.55 18.15 402.3 18.8 402.15 19.45 402 20.05 402 20.7 402 21.05 402.15 21.35 402.3 21.65 402.55 21.85 402.85 22.05 403.15 22.2 403.4 22.3 403.75 22.3 404.2 22.3 404.6 22.1 405.05 21.95 405.4 21.65 405.7 21.3 405.9 20.9 406.05 20.5 406.05 20 406.05 19.85 406.15 19.65 406.2 19.4 406.4 19.15 406.5 18.9 406.65 18.65 406.85 18.45 407.05 18.25 407.35 18.05 407.65 17.9 407.95 17.7 408.3 17.55 408.65 17.45 408.95 17.4 409.25 17.3 409.6 17.3 410.1 17.3 410.5 17.4 410.95 17.5 411.3 17.65 411.65 17.8 411.95 18.05 412.25 18.25 412.5 18.5 412.7 18.75 412.85 19.1 413.05 19.4 413.2 19.7 413.35 20.05 413.45 20.35 413.5 20.7 413.5 21 413.5 21.3 413.45 21.6 413.4 21.9 413.25 22.25 413.1 22.55 412.9 22.85 412.75 23.15 412.6 23.45 412.4 23.8 412.25 24.05 412.05 24.35 411.75 24.55 411.5 24.8 411.25 25 411 25.2 410.85 25.3 410.4 25.65 409.95 26 409.45 26.35 409 26.7 408.55 27.05 408.1 27.4 407.65 27.75 407.2 28.05 406.55 28.6 406.05 29.05 405.5 29.5 405 29.9 404.55 30.35 404.2 30.8 403.85 31.25 403.6 31.7 403.2 32.1 402.95 32.6 402.75 33.05 402.55 33.5 402.4 34.05 402.3 34.65 402.15 35.2 402.1 35.85 402.1 35.9 402.1 36 402.05 36.1 402.05 36.2 402 36.3 402 36.45 401.95 36.55 402 36.6
L 402 36.75
Q 401.95 36.85 401.95 37 401.95 37.1 401.95 37.2 401.95 37.75 402.1 38.1 402.25 38.45 402.65 38.65 402.95 38.9 403.35 39 403.75 39.15 404.2 39.15
L 415.8 39.15
Q 417.9 39.15 417.9 37.25 417.9 36.75 417.75 36.4 417.6 36.05 417.35 35.85 417.05 35.7 416.6 35.6 416.15 35.5 415.6 35.5
L 406.6 35.5
Q 406.6 35 406.75 34.45 406.9 33.95 407.25 33.45 407.55 33 408 32.55 408.4 32.1 408.9 31.7 409.35 31.35 409.8 31 410.3 30.6 410.85 30.3 411.35 29.95 411.8 29.65 412.25 29.35 412.55 29.1 413.05 28.75 413.55 28.4 414.05 28 414.5 27.6 414.9 27.15 415.3 26.7 415.65 26.25 415.95 25.75 416.3 25.3 416.6 24.75 416.85 24.25 417 23.65 417.15 23.05 417.25 22.35 417.35 21.7 417.35 20.95 417.35 20.25 417.2 19.6 417.05 18.9 416.8 18.25 416.55 17.55 416.15 16.95 415.75 16.35 415.3 15.8 414.7 15.3 414.05 14.85
M 432.5 13.3
Q 431.65 13.15 430.75 13.15 429.05 13.15 427.55 13.7 426.85 13.95 426.2 14.35 425.55 14.75 425 15.2 424.5 15.7 424.1 16.25 423.7 16.8 423.4 17.4 423.05 18.1 422.9 18.8 422.75 19.5 422.75 20.25 422.75 21.1 422.95 21.9 423.15 22.7 423.6 23.4 424 24.15 424.55 24.75 425.1 25.35 425.85 25.85 424.1 26.9 423 28.45 422.4 29.25 422.1 30.15 421.8 31.05 421.75 32 421.75 32.9 421.95 33.7 422.1 34.45 422.45 35.2 422.8 35.95 423.3 36.55 423.8 37.2 424.45 37.75 425.05 38.25 425.75 38.7 426.5 39.15 427.25 39.45 428.05 39.8 428.9 39.95 429.75 40.1 430.75 40.1 432.6 40.1 434.3 39.45 435.9 38.85 437.1 37.8 437.75 37.25 438.25 36.65 438.75 36.05 439.1 35.35 439.8 34 439.8 32.3 439.8 31.3 439.55 30.4 439.25 29.45 438.7 28.6 438.15 27.8 437.45 27.1 436.75 26.4 435.9 25.85 436.45 25.4 436.95 24.85 437.45 24.3 437.85 23.65 438.25 22.95 438.5 22.25 438.75 21.55 438.85 20.75 438.9 20.65 438.95 20.5 439 20.4 439 20.25 439 19.5 438.85 18.85 438.7 18.15 438.35 17.5 437.6 16.25 436.6 15.3 436.05 14.8 435.45 14.4 434.8 14 434.1 13.7 433.35 13.45 432.5 13.3
M 432.6 17.45
Q 433.4 17.7 433.9 18.15 434.3 18.65 434.55 19.25 434.8 19.85 434.8 20.55 434.8 21.25 434.55 21.9 434.3 22.5 433.9 23 433.4 23.5 432.6 23.75 431.8 23.95 430.75 23.95 429.7 23.95 429 23.75 428.25 23.5 427.8 23 427.3 22.5 427.05 21.9 426.8 21.25 426.8 20.55 426.8 19.85 427.05 19.25 427.3 18.7 427.75 18.15 428.2 17.7 428.95 17.45 429.7 17.2 430.75 17.2 431.8 17.2 432.6 17.45
M 432.85 28.3
Q 433.8 28.6 434.45 29.2 435.05 29.75 435.35 30.5 435.65 31.2 435.65 32.1 435.65 32.9 435.35 33.65 435.05 34.3 434.45 34.9 433.8 35.5 432.85 35.8 431.95 36.1 430.75 36.1 428.55 36.1 427.25 34.9 426.6 34.35 426.3 33.65 425.95 32.9 425.95 32.1 425.95 31.2 426.3 30.45 426.6 29.75 427.25 29.15 427.9 28.6 428.75 28.3 429.6 28.05 430.75 28.05 431.95 28.05 432.85 28.3
M 458.75 12.15
Q 458.6 11.95 458.4 11.8 458.15 11.65 457.95 11.6 457.7 11.5 457.45 11.5 457.1 11.5 456.75 11.65 456.45 11.8 456.2 12.1 455.9 12.4 455.75 12.65 455.6 12.95 455.6 13.2 455.6 13.45 455.65 13.65 455.65 13.9 455.75 14.15 456.7 15.75 457.7 17.4 458.65 19 459.6 20.6 460.6 22.25 461.5 23.85 462.45 25.45 463.35 27.1 462.95 27.8 462.55 28.6 462.1 29.4 461.6 30.25 461.1 31.1 460.65 31.95 460.15 32.8 459.75 33.65 459.15 34.5 458.7 35.35 458.2 36.2 457.75 37.05 457.3 37.9 456.85 38.7 456.35 39.45 455.9 40.2 455.75 40.4 455.75 40.6 455.7 40.8 455.7 41.05 455.7 41.35 455.85 41.6 456 41.9 456.3 42.2 456.55 42.5 456.9 42.6 457.25 42.75 457.6 42.75 458.05 42.75 458.4 42.55 458.75 42.3 458.95 41.9 461.05 38.55 462.95 35.05 463.9 33.4 464.9 31.65 465.85 29.95 466.9 28.15 467.1 28 467.2 27.75 467.3 27.5 467.3 27.25 467.3 27.2 467.3 27.05 467.25 26.95 467.25 26.75 467.2 26.6 467.15 26.45 467.1 26.35 467.05 26.25 466 24.55 465 22.8 463.95 21.15 463 19.4 462.05 17.75 461.05 16.05 460.05 14.35 459 12.65 458.9 12.4 458.75 12.15
M 488 73.05
Q 487.9 72.8 487.8 72.6 487.7 72.4 487.5 72.25 487.3 72.15 487.1 72.1 486.9 72.05 486.7 72.05 486.4 72.05 486.1 72.15 485.85 72.3 485.6 72.5 485.35 72.8 485.2 73.05 485.1 73.3 485.1 73.5 485.1 73.7 485.15 73.9 485.15 74.1 485.25 74.3 486.05 75.7 486.9 77.05 487.7 78.45 488.55 79.8 489.35 81.25 490.15 82.6 491 84 491.75 85.4 491.4 86 491.05 86.7 490.65 87.35 490.25 88.1 489.8 88.8 489.4 89.55 489 90.25 488.65 91 488.15 91.75 487.75 92.45 487.3 93.2 486.95 93.9 486.55 94.65 486.15 95.3 485.75 96 485.35 96.65 485.25 96.8 485.2 96.95 485.2 97.15 485.2 97.35 485.2 97.6 485.3 97.85 485.4 98.1 485.7 98.35 485.9 98.55 486.2 98.7 486.5 98.8 486.8 98.8 487.2 98.8 487.5 98.6 487.8 98.45 487.95 98.1 489.8 95.2 491.4 92.2 492.2 90.8 493.05 89.3 493.9 87.8 494.8 86.3 494.95 86.15 495.05 85.95 495.1 85.75 495.1 85.55 495.1 85.45 495.1 85.35 495.1 85.25 495.1 85.1 495.05 84.95 495 84.85 494.95 84.75 494.9 84.65 494 83.2 493.15 81.75 492.25 80.3 491.45 78.8 490.6 77.4 489.8 75.95 488.9 74.5 488 73.05
M 510.3 73.95
Q 509.1 73.45 507.75 73.45 506.75 73.45 505.85 73.7 505 73.9 504.3 74.3 503.55 74.75 502.9 75.35 502.3 75.9 501.75 76.65 501.2 77.45 500.8 78.35 500.4 79.3 500.15 80.35 499.9 81.45 499.75 82.65 499.6 83.85 499.6 85.15 499.6 86.45 499.75 87.6 499.85 88.75 500.1 89.75 500.3 90.8 500.7 91.7 501.1 92.6 501.6 93.3 502.1 94.05 502.7 94.65 503.3 95.2 504 95.6 505.45 96.4 507.5 96.4 508.3 96.4 509.05 96.25 509.75 96.15 510.4 95.8 511 95.55 511.6 95.1 512.15 94.7 512.65 94.15 513.1 93.6 513.45 93 513.8 92.4 514.05 91.7 514.3 91.05 514.4 90.3 514.55 89.5 514.55 88.7 514.55 88 514.4 87.3 514.3 86.6 514.1 85.9 513.85 85.25 513.55 84.7 513.2 84.1 512.8 83.55 512.3 83.1 511.8 82.7 511.25 82.3 510.7 82 510.15 81.7 509.5 81.55 508.9 81.4 508.25 81.4 508.15 81.4 508.05 81.45 507.95 81.45 507.9 81.45 507.8 81.5 507.75 81.5 507.65 81.5 507.55 81.55 506.05 81.6 505.05 82.1 504.5 82.35 504.1 82.6 503.65 82.9 503.35 83.2 503.35 82.8 503.4 82.35 503.45 81.85 503.55 81.3 503.65 80.75 503.8 80.25 503.95 79.7 504.15 79.2 504.6 78.2 505.5 77.5 505.95 77.15 506.5 77 507.05 76.8 507.7 76.8 508.15 76.8 508.5 76.85 508.85 76.9 509.1 77.05 509.35 77.15 509.6 77.35 509.85 77.5 510.1 77.75 510.25 77.9 510.4 78.1 510.5 78.3 510.6 78.55 510.8 79.05 511.15 79.35 511.25 79.55 511.35 79.7 511.5 79.9 511.6 80 511.85 80.3 512.4 80.3 512.7 80.3 513 80.2 513.3 80.1 513.6 79.9 513.85 79.7 514 79.45 514.15 79.2 514.15 78.85 514.15 78.45 514 78 513.85 77.55 513.6 77.1 513.3 76.65 513 76.2 512.7 75.8 512.4 75.4 511.45 74.45 510.3 73.95
M 504.65 85.85
Q 505.1 85.25 505.8 85 506.5 84.7 507.45 84.7 508.25 84.7 508.9 85 509.55 85.25 510.1 85.8 510.6 86.35 510.85 87.15 511.15 87.9 511.15 88.85 511.15 89.85 510.85 90.6 510.6 91.4 510.1 91.95 509.55 92.55 508.9 92.8 508.25 93.1 507.45 93.1 506.55 93.1 505.85 92.8 505.15 92.5 504.7 91.9 503.7 90.8 503.7 88.85 503.7 87.9 503.9 87.15 504.15 86.4 504.65 85.85
M 512.4 37.7
Q 512.15 37.45 511.8 37.35 511.45 37.25 510.95 37.25
L 509.6 37.25
Q 509.05 37.25 508.7 37.35 508.3 37.45 508.1 37.65 507.9 37.85 507.75 38.2 507.65 38.6 507.65 39.1
L 507.65 40.6
Q 507.65 41.1 507.75 41.45 507.9 41.8 508.1 42 508.3 42.2 508.7 42.25 509.05 42.4 509.6 42.4
L 511.05 42.4
Q 511.95 42.4 512.45 41.95 512.9 41.5 512.9 40.6
L 512.9 39.1
Q 512.9 38.6 512.8 38.25 512.65 37.95 512.4 37.7
M 494.6 13.6
Q 493.7 13.3 492.7 13.3 491.6 13.35 490.65 13.6 489.7 13.85 488.9 14.3 488.1 14.8 487.4 15.45 486.7 16.15 486.15 16.95 485.6 17.8 485.25 18.85 484.85 19.9 484.55 21.1 484.25 22.3 484.15 23.65 484 25 484 26.45 484 27.85 484.1 29.2 484.25 30.5 484.5 31.7 484.75 32.85 485.1 33.9 485.55 35 486.1 35.85 486.7 36.75 487.4 37.4 488.1 38.1 488.85 38.55 489.65 39.05 490.6 39.3 491.55 39.55 492.7 39.55 493.7 39.55 494.6 39.3 495.5 39.05 496.35 38.55 497.15 38.1 497.85 37.4 498.55 36.75 499.1 35.85 499.7 35 500.15 33.9 500.6 32.85 500.9 31.7 501.15 30.5 501.3 29.2 501.45 27.85 501.45 26.45 501.45 25.05 501.3 23.75 501.15 22.4 500.9 21.2 500.55 20 500.1 18.95 499.65 17.95 499.05 17.05 498.45 16.2 497.8 15.55 497.1 14.85 496.3 14.35 495.5 13.85 494.6 13.6
M 491.65 17.55
Q 492.15 17.35 492.7 17.35 493.15 17.35 493.65 17.55 494.1 17.7 494.6 18.05 495 18.4 495.4 18.9 495.75 19.4 496.05 20 496.25 20.65 496.45 21.35 496.65 22.05 496.85 22.9 497 23.75 497.1 24.6 497.2 25.5 497.2 26.45 497.2 27.4 497.1 28.3 497.05 29.2 496.9 30 496.5 31.7 496.05 32.9 495.8 33.55 495.4 34.05 495.05 34.55 494.6 34.9 494.15 35.3 493.65 35.45 493.2 35.65 492.7 35.65 492.1 35.65 491.6 35.45 491.1 35.3 490.7 34.9 489.85 34.15 489.25 32.9 488.95 32.25 488.8 31.5 488.6 30.75 488.5 29.9 488.35 29.1 488.25 28.25 488.2 27.35 488.2 26.45 488.2 25.5 488.25 24.6 488.35 23.7 488.5 22.85 488.6 22.05 488.8 21.3 489 20.55 489.25 19.95 489.55 19.35 489.95 18.85 490.35 18.4 490.75 18 491.15 17.7 491.65 17.55
M 534.85 18.25
Q 534.6 17.55 534.2 16.95 533.8 16.35 533.35 15.8 532.75 15.3 532.1 14.85 531.45 14.45 530.75 14.1 530.05 13.8 529.25 13.65 528.5 13.45 527.65 13.45
L 527.6 13.45
Q 526.75 13.45 526 13.6 525.25 13.8 524.6 14.1 523.85 14.45 523.25 14.9 522.6 15.3 522.1 15.85 521.15 16.9 520.6 18.15 520.35 18.8 520.2 19.45 520.05 20.05 520.05 20.7 520.05 21.05 520.2 21.35 520.35 21.65 520.6 21.85 520.9 22.05 521.2 22.2 521.45 22.3 521.8 22.3 522.25 22.3 522.65 22.1 523.1 21.95 523.45 21.65 523.75 21.3 523.95 20.9 524.1 20.5 524.1 20 524.1 19.85 524.2 19.65 524.25 19.4 524.45 19.15 524.55 18.9 524.7 18.65 524.9 18.45 525.1 18.25 525.4 18.05 525.7 17.9 526 17.7 526.35 17.55 526.7 17.45 527 17.4 527.3 17.3 527.65 17.3 528.15 17.3 528.55 17.4 529 17.5 529.35 17.65 529.7 17.8 530 18.05 530.3 18.25 530.55 18.5 530.75 18.75 530.9 19.1 531.1 19.4 531.25 19.7 531.4 20.05 531.5 20.35 531.55 20.7 531.55 21 531.55 21.3 531.5 21.6 531.45 21.9 531.3 22.25 531.15 22.55 530.95 22.85 530.8 23.15 530.65 23.45 530.45 23.8 530.3 24.05 530.1 24.35 529.8 24.55 529.55 24.8 529.3 25 529.05 25.2 528.9 25.3 528.45 25.65 528 26 527.5 26.35 527.05 26.7 526.6 27.05 526.15 27.4 525.7 27.75 525.25 28.05 524.6 28.6 524.1 29.05 523.55 29.5 523.05 29.9 522.6 30.35 522.25 30.8 521.9 31.25 521.65 31.7 521.25 32.1 521 32.6 520.8 33.05 520.6 33.5 520.45 34.05 520.35 34.65 520.2 35.2 520.15 35.85 520.15 35.9 520.15 36 520.1 36.1 520.1 36.2 520.05 36.3 520.05 36.45 520 36.55 520.05 36.6
L 520.05 36.75
Q 520 36.85 520 37 520 37.1 520 37.2 520 37.75 520.15 38.1 520.3 38.45 520.7 38.65 521 38.9 521.4 39 521.8 39.15 522.25 39.15
L 533.85 39.15
Q 535.95 39.15 535.95 37.25 535.95 36.75 535.8 36.4 535.65 36.05 535.4 35.85 535.1 35.7 534.65 35.6 534.2 35.5 533.65 35.5
L 524.65 35.5
Q 524.65 35 524.8 34.45 524.95 33.95 525.3 33.45 525.6 33 526.05 32.55 526.45 32.1 526.95 31.7 527.4 31.35 527.85 31 528.35 30.6 528.9 30.3 529.4 29.95 529.85 29.65 530.3 29.35 530.6 29.1 531.1 28.75 531.6 28.4 532.1 28 532.55 27.6 532.95 27.15 533.35 26.7 533.7 26.25 534 25.75 534.35 25.3 534.65 24.75 534.9 24.25 535.05 23.65 535.2 23.05 535.3 22.35 535.4 21.7 535.4 20.95 535.4 20.25 535.25 19.6 535.1 18.9 534.85 18.25
M 555.05 15.45
Q 553.9 14.35 552.55 13.75 551.15 13.2 549.6 13.2 548.4 13.2 547.4 13.45 546.4 13.7 545.55 14.2 544.7 14.65 543.95 15.35 543.2 16.05 542.6 16.95 541.95 17.85 541.5 18.9 541.05 20 540.75 21.25 540.4 22.5 540.25 23.9 540.1 25.3 540.1 26.85 540.1 28.35 540.25 29.7 540.35 31 540.65 32.2 540.9 33.4 541.35 34.45 541.8 35.5 542.45 36.35 543 37.2 543.7 37.9 544.4 38.55 545.25 39.05 546.9 39.95 549.35 39.95 550.25 39.95 551.1 39.8 551.95 39.6 552.65 39.25 553.4 38.9 554.05 38.45 554.7 37.95 555.35 37.3 555.85 36.7 556.25 36 556.7 35.3 556.95 34.45 557.2 33.7 557.35 32.8 557.5 31.9 557.5 31 557.5 30.1 557.35 29.3 557.25 28.5 557 27.7 556.75 26.95 556.35 26.3 556 25.6 555.5 25 554.9 24.4 554.3 23.95 553.7 23.5 553.05 23.15 552.35 22.8 551.65 22.65 550.95 22.45 550.2 22.45 550.05 22.45 549.95 22.5 549.85 22.5 549.75 22.5 549.65 22.55 549.55 22.55 549.45 22.6 549.35 22.6 547.6 22.65 546.4 23.25 545.8 23.55 545.35 23.85 544.85 24.2 544.45 24.55 544.45 24.1 544.5 23.55 544.55 23 544.7 22.35 544.8 21.7 545 21.1 545.2 20.5 545.4 19.85 545.95 18.7 547 17.9 547.5 17.5 548.1 17.3 548.75 17.1 549.55 17.1 550.05 17.1 550.45 17.15 550.9 17.2 551.2 17.35 551.5 17.5 551.75 17.7 552.05 17.9 552.35 18.15 552.5 18.35 552.65 18.6 552.8 18.85 552.95 19.1 553.15 19.7 553.55 20.05 553.65 20.3 553.8 20.45 553.95 20.65 554.1 20.85 554.35 21.15 555.05 21.15 555.35 21.15 555.7 21.05 556.05 20.9 556.4 20.7 556.75 20.45 556.9 20.2 557.05 19.85 557.05 19.45 557.05 19 556.9 18.5 556.75 17.95 556.4 17.4 556.05 16.9 555.7 16.4 555.4 15.9 555.05 15.45
M 546 34.7
Q 544.85 33.4 544.85 31.15 544.85 30.05 545.1 29.15 545.4 28.3 546 27.6 546.5 26.95 547.3 26.6 548.15 26.3 549.25 26.3 550.15 26.3 550.95 26.6 551.7 26.95 552.35 27.6 552.9 28.25 553.2 29.15 553.55 30 553.55 31.15 553.55 32.3 553.2 33.2 552.9 34.1 552.35 34.75 551.7 35.45 550.95 35.75 550.15 36.1 549.25 36.1 548.2 36.1 547.35 35.75 546.55 35.4 546 34.7
M 577.05 16.85
Q 576.4 16 575.7 15.3 575 14.65 574.15 14.15 573.3 13.65 572.25 13.45 571.25 13.2 570 13.2 569.15 13.2 568.3 13.35 567.5 13.55 566.75 13.9 565.95 14.25 565.3 14.75 564.65 15.25 564.15 15.85 563.55 16.5 563.1 17.2 562.65 17.95 562.35 18.75 562.05 19.6 561.9 20.45 561.75 21.3 561.75 22.25 561.75 23.15 561.9 23.95 562.05 24.8 562.35 25.55 562.6 26.35 563.05 27 563.45 27.65 564 28.2 564.45 28.8 565.05 29.25 565.6 29.7 566.3 30 566.9 30.4 567.6 30.55 568.3 30.7 569.05 30.7 569.2 30.7 569.35 30.7 569.5 30.7 569.65 30.7 569.75 30.7 569.85 30.7 569.9 30.7 570 30.65 570.85 30.65 571.6 30.45 572.35 30.3 573 29.95 573.6 29.65 574.05 29.35 574.5 29 574.8 28.6 574.8 29.1 574.75 29.65 574.7 30.2 574.6 30.85 574.5 31.5 574.35 32.1 574.15 32.75 573.95 33.3 573.6 33.9 573.2 34.4 572.8 34.85 572.35 35.3 571.9 35.7 571.25 35.9 570.65 36.1 569.9 36.1 569.2 36.1 568.6 35.95 568.05 35.8 567.65 35.45 567.2 35.15 566.85 34.75 566.5 34.4 566.25 33.9 565.9 33.3 565.6 32.65 565.4 32.4 565.1 32.25 564.75 32.1 564.3 32.1 563.65 32.1 563 32.5 562.65 32.7 562.5 33.05 562.3 33.35 562.3 33.75 562.3 34.05 562.35 34.25 562.4 34.5 562.5 34.75 562.55 35 562.65 35.3 562.75 35.55 562.9 35.85 563 36.1 563.2 36.35 563.35 36.6 563.6 36.8 563.8 37.1 563.95 37.3 564.1 37.5 564.3 37.75 564.85 38.3 565.5 38.7 566.15 39.15 566.9 39.4 567.55 39.7 568.3 39.85 569.05 39.95 569.9 39.95 570.95 39.95 571.9 39.75 572.9 39.5 573.8 39 574.7 38.5 575.45 37.85 576.2 37.15 576.8 36.25 577.35 35.35 577.8 34.3 578.2 33.2 578.55 31.95 578.85 30.7 579 29.3 579.15 27.9 579.15 26.35 579.15 24.9 579.05 23.55 578.9 22.2 578.65 21 578.4 19.8 578 18.75 577.55 17.75 577.05 16.85
M 567.1 18.45
Q 568.3 17.1 570.1 17.1 572.2 17.1 573.4 18.45 573.95 19.15 574.2 20.05 574.5 20.95 574.5 22.05 574.5 23.15 574.2 24.05 573.95 24.95 573.4 25.6 572.2 27 570.1 27 569.2 27 568.4 26.65 567.65 26.35 567.05 25.65 566.4 25 566.1 24.1 565.8 23.2 565.8 22.05 565.8 19.85 567.1 18.45
M 616.8 19.9
Q 616.8 20.3 616.9 20.6 617 20.9 617.2 21.2 617.4 21.55 617.7 21.7 618 21.85 618.45 21.85
L 621.6 21.85
Q 621.6 23.8 621.6 25.7 621.6 27.65 621.6 29.55 621.6 33.4 621.6 37.3 621.6 37.7 621.8 37.95 621.95 38.25 622.3 38.5 622.6 38.75 623 38.9 623.35 39.05 623.8 39.05 623.9 39.05 624.1 39 624.25 38.95 624.4 38.85 624.5 38.8 624.7 38.75 624.85 38.65 625 38.55 625.2 38.45 625.35 38.25 625.5 38.1 625.6 37.95 625.7 37.8 625.75 37.65 625.8 37.5 625.8 37.3
L 625.8 35.85
Q 625.8 33.2 625.8 30.65 625.8 28.05 625.8 25.55 625.75 23.05 625.75 20.5 625.75 17.95 625.75 15.35 625.75 14.7 625.1 14.2 624.8 13.95 624.5 13.85 624.2 13.7 623.95 13.7 623.5 13.7 623.2 13.8 622.85 13.9 622.75 14.15 622.55 14.35 622.45 14.6 622.35 14.9 622.25 15.15 622.1 15.45 622 15.75 621.9 16.05 621.8 16.4 621.7 16.7 621.6 16.95 621.45 17.2 621.3 17.35 621.05 17.55 620.75 17.7 620.4 17.85 620.1 17.9 619.7 17.95 619.35 18 618.95 18 618.6 18 618.15 18.05 617.8 18.2 617.5 18.35 617.3 18.6 617 18.9 616.9 19.2 616.8 19.55 616.8 19.9
M 689.55 73.5
Q 689.55 73.7 689.6 73.9 689.6 74.1 689.7 74.3 690.5 75.7 691.35 77.05 692.15 78.45 693 79.8 693.8 81.25 694.6 82.6 695.45 84 696.2 85.4 695.85 86 695.5 86.7 695.1 87.35 694.7 88.1 694.25 88.8 693.85 89.55 693.45 90.25 693.1 91 692.6 91.75 692.2 92.45 691.75 93.2 691.4 93.9 691 94.65 690.6 95.3 690.2 96 689.8 96.65 689.7 96.8 689.65 96.95 689.65 97.15 689.65 97.35 689.65 97.6 689.75 97.85 689.85 98.1 690.15 98.35 690.35 98.55 690.65 98.7 690.95 98.8 691.25 98.8 691.65 98.8 691.95 98.6 692.25 98.45 692.4 98.1 694.25 95.2 695.85 92.2 696.65 90.8 697.5 89.3 698.35 87.8 699.25 86.3 699.4 86.15 699.5 85.95 699.55 85.75 699.55 85.55 699.55 85.45 699.55 85.35 699.55 85.25 699.55 85.1 699.5 84.95 699.45 84.85 699.4 84.75 699.35 84.65 698.45 83.2 697.6 81.75 696.7 80.3 695.9 78.8 695.05 77.4 694.25 75.95 693.35 74.5 692.45 73.05 692.35 72.8 692.25 72.6 692.15 72.4 691.95 72.25 691.75 72.15 691.55 72.1 691.35 72.05 691.15 72.05 690.85 72.05 690.55 72.15 690.3 72.3 690.05 72.5 689.8 72.8 689.65 73.05 689.55 73.3 689.55 73.5
M 711.1 73.45
Q 710.35 73.45 709.65 73.65 708.95 73.75 708.35 74.05 707.65 74.4 707.1 74.8 706.5 75.2 706.05 75.75 705.55 76.3 705.2 76.9 704.8 77.55 704.55 78.25 704.25 78.95 704.15 79.7 704.05 80.45 704.05 81.2 704.05 82 704.15 82.7 704.25 83.45 704.55 84.05 704.75 84.75 705.1 85.3 705.45 85.85 705.95 86.35 706.35 86.85 706.85 87.25 707.35 87.65 707.9 87.9 708.45 88.2 709.05 88.35 709.6 88.5 710.25 88.5 710.4 88.5 710.55 88.5 710.65 88.5 710.75 88.5 710.9 88.5 710.95 88.5 711 88.5 711.1 88.45 711.85 88.4 712.45 88.25 713.1 88.1 713.65 87.85 714.15 87.6 714.55 87.3 714.95 87 715.25 86.7 715.25 87.1 715.2 87.6 715.1 88.05 715.05 88.6 714.95 89.2 714.8 89.7 714.65 90.2 714.45 90.7 714.15 91.2 713.85 91.65 713.5 92.05 713.1 92.4 712.7 92.75 712.2 92.95 711.65 93.1 711 93.1 710.4 93.1 709.9 93 709.45 92.85 709.05 92.55 708.7 92.3 708.4 91.95 708.1 91.65 707.85 91.25 707.6 90.7 707.35 90.15 707.15 89.9 706.9 89.8 706.6 89.65 706.2 89.65 705.65 89.65 705.1 90.05 704.8 90.2 704.65 90.45 704.5 90.75 704.5 91.1 704.5 91.35 704.55 91.55 704.6 91.75 704.65 91.95 704.7 92.15 704.8 92.4 704.9 92.65 705 92.9 705.1 93.1 705.25 93.3 705.4 93.5 705.6 93.75 705.75 93.95 705.9 94.15 706.05 94.35 706.2 94.5 706.7 95 707.25 95.35 707.8 95.7 708.4 95.95 709 96.2 709.65 96.3 710.25 96.4 711 96.4 711.9 96.4 712.75 96.2 713.6 96 714.35 95.6 715.1 95.2 715.75 94.6 716.4 94 716.95 93.25 717.4 92.5 717.75 91.55 718.15 90.65 718.4 89.55 718.65 88.5 718.8 87.3 718.95 86.1 718.95 84.75 718.95 83.5 718.85 82.35 718.75 81.2 718.5 80.15 718.3 79.1 717.95 78.25 717.6 77.35 717.1 76.6 716.6 75.9 716 75.3 715.35 74.7 714.65 74.3 713.9 73.9 713.05 73.65 712.15 73.45 711.1 73.45
M 707.75 82.8
Q 707.5 82.05 707.5 81.05 707.5 79.15 708.6 78 709.65 76.85 711.2 76.85 713 76.85 714 78 714.45 78.6 714.7 79.35 714.95 80.1 714.95 81.05 714.95 82 714.7 82.8 714.45 83.55 714 84.1 713 85.3 711.2 85.3 710.4 85.3 709.75 85 709.05 84.75 708.55 84.15 708 83.6 707.75 82.8
M 663.8 74
Q 663.55 73.9 663.35 73.9 662.95 73.9 662.7 74 662.45 74.1 662.3 74.3 662.2 74.5 662.1 74.7 661.95 74.9 661.9 75.15 661.75 75.4 661.7 75.7 661.6 75.95 661.55 76.2 661.45 76.45 661.35 76.7 661.25 76.9 661.1 77.05 660.85 77.2 660.6 77.35 660.35 77.45 660.05 77.5 659.7 77.55 659.4 77.6 659.05 77.6 658.75 77.6 658.4 77.65 658.1 77.75 657.85 77.9 657.65 78.1 657.4 78.35 657.3 78.65 657.2 78.9 657.25 79.2 657.25 79.55 657.3 79.8 657.4 80.1 657.6 80.35 657.75 80.6 658 80.75 658.25 80.9 658.65 80.9
L 661.35 80.9
Q 661.35 82.55 661.35 84.2 661.35 85.85 661.35 87.5 661.35 90.8 661.35 94.15 661.35 94.45 661.5 94.7 661.65 94.95 661.95 95.15 662.2 95.4 662.55 95.5 662.85 95.6 663.2 95.6 663.35 95.6 663.45 95.6 663.6 95.55 663.75 95.5 663.85 95.45 664 95.4 664.1 95.3 664.25 95.2 664.4 95.1 664.55 94.95 664.7 94.85 664.8 94.7 664.85 94.6 664.9 94.45 664.95 94.3 664.95 94.15
L 664.95 92.9
Q 664.95 90.65 664.95 88.4 664.95 86.25 664.95 84.05 664.9 81.9 664.9 79.7 664.9 77.55 664.9 75.35 664.9 74.8 664.35 74.35 664.05 74.15 663.8 74
M 678.2 73.7
Q 677.45 73.7 676.8 73.85 676.2 74 675.6 74.25 675 74.55 674.45 74.95 673.9 75.3 673.45 75.75 672.65 76.65 672.2 77.75 671.95 78.3 671.85 78.85 671.75 79.35 671.75 79.9 671.75 80.2 671.85 80.45 671.95 80.7 672.2 80.9 672.45 81.1 672.7 81.15 672.95 81.25 673.2 81.25 673.6 81.25 673.95 81.15 674.35 81 674.65 80.7 674.9 80.4 675.05 80.1 675.2 79.75 675.2 79.35 675.2 79.2 675.3 79 675.35 78.8 675.5 78.55 675.55 78.35 675.7 78.15 675.85 78 676.05 77.8 676.3 77.65 676.55 77.5 676.85 77.35 677.15 77.2 677.4 77.15 677.65 77.05 677.95 77 678.25 77 678.65 77 679 77.1 679.4 77.15 679.7 77.3 680 77.45 680.25 77.65 680.5 77.8 680.7 78.05 680.9 78.25 681.05 78.5 681.2 78.8 681.35 79.05 681.45 79.35 681.55 79.6 681.6 79.9 681.6 80.15 681.6 80.4 681.55 80.7 681.5 80.95 681.35 81.2 681.25 81.5 681.1 81.75 680.9 82 680.8 82.25 680.65 82.55 680.5 82.8 680.3 83.05 680.1 83.2 679.85 83.45 679.65 83.6 679.45 83.75 679.3 83.85 678.9 84.15 678.5 84.45 678.1 84.75 677.75 85.05 677.35 85.35 676.95 85.65 676.55 85.95 676.15 86.25 675.65 86.65 675.2 87.05 674.7 87.45 674.3 87.8 673.9 88.2 673.6 88.55 673.3 88.95 673.1 89.3 672.75 89.7 672.55 90.1 672.35 90.5 672.2 90.9 672.05 91.35 671.95 91.85 671.85 92.35 671.8 92.9 671.8 92.95 671.8 93 671.8 93.1 671.75 93.2 671.7 93.3 671.7 93.4 671.7 93.5 671.7 93.55
L 671.7 93.65
Q 671.7 93.75 671.7 93.85 671.7 93.95 671.7 94.05 671.65 94.5 671.8 94.8 671.95 95.15 672.3 95.3 672.55 95.5 672.9 95.6 673.2 95.7 673.6 95.7
L 683.55 95.7
Q 685.35 95.7 685.35 94.1 685.35 93.65 685.25 93.35 685.1 93.05 684.85 92.9 684.65 92.75 684.25 92.7 683.85 92.6 683.35 92.6
L 675.65 92.6
Q 675.65 92.15 675.8 91.7 675.95 91.25 676.25 90.85 676.5 90.45 676.85 90.05 677.2 89.7 677.65 89.35 678 89 678.4 88.7 678.85 88.4 679.3 88.1 679.75 87.85 680.1 87.6 680.5 87.35 680.75 87.1 681.2 86.8 681.65 86.5 682.05 86.15 682.45 85.8 682.8 85.45 683.1 85.05 683.4 84.65 683.65 84.25 684 83.85 684.25 83.4 684.45 82.95 684.6 82.4 684.75 81.9 684.8 81.35 684.85 80.75 684.85 80.1 684.85 79.55 684.75 78.95 684.65 78.35 684.4 77.8 684.2 77.2 683.85 76.7 683.55 76.2 683.1 75.7 682.6 75.25 682.05 74.9 681.5 74.55 680.9 74.25 680.3 74 679.6 73.85 678.95 73.7 678.25 73.7
L 678.2 73.7
M 657.2 37.25
Q 656.65 37.25 656.3 37.35 655.9 37.45 655.7 37.65 655.5 37.85 655.35 38.2 655.25 38.6 655.25 39.1
L 655.25 40.6
Q 655.25 41.1 655.35 41.45 655.5 41.8 655.7 42 655.9 42.2 656.3 42.25 656.65 42.4 657.2 42.4
L 658.65 42.4
Q 659.55 42.4 660.05 41.95 660.5 41.5 660.5 40.6
L 660.5 39.1
Q 660.5 38.6 660.4 38.25 660.25 37.95 660 37.7 659.75 37.45 659.4 37.35 659.05 37.25 658.55 37.25
L 657.2 37.25
M 648.9 19.6
Q 648.75 18.9 648.5 18.25 648.25 17.55 647.85 16.95 647.45 16.35 647 15.8 646.4 15.3 645.75 14.85 645.1 14.45 644.4 14.1 643.7 13.8 642.9 13.65 642.15 13.45 641.3 13.45
L 641.25 13.45
Q 640.4 13.45 639.65 13.6 638.9 13.8 638.25 14.1 637.5 14.45 636.9 14.9 636.25 15.3 635.75 15.85 634.8 16.9 634.25 18.15 634 18.8 633.85 19.45 633.7 20.05 633.7 20.7 633.7 21.05 633.85 21.35 634 21.65 634.25 21.85 634.55 22.05 634.85 22.2 635.1 22.3 635.45 22.3 635.9 22.3 636.3 22.1 636.75 21.95 637.1 21.65 637.4 21.3 637.6 20.9 637.75 20.5 637.75 20 637.75 19.85 637.85 19.65 637.9 19.4 638.1 19.15 638.2 18.9 638.35 18.65 638.55 18.45 638.75 18.25 639.05 18.05 639.35 17.9 639.65 17.7 640 17.55 640.35 17.45 640.65 17.4 640.95 17.3 641.3 17.3 641.8 17.3 642.2 17.4 642.65 17.5 643 17.65 643.35 17.8 643.65 18.05 643.95 18.25 644.2 18.5 644.4 18.75 644.55 19.1 644.75 19.4 644.9 19.7 645.05 20.05 645.15 20.35 645.2 20.7 645.2 21 645.2 21.3 645.15 21.6 645.1 21.9 644.95 22.25 644.8 22.55 644.6 22.85 644.45 23.15 644.3 23.45 644.1 23.8 643.95 24.05 643.75 24.35 643.45 24.55 643.2 24.8 642.95 25 642.7 25.2 642.55 25.3 642.1 25.65 641.65 26 641.15 26.35 640.7 26.7 640.25 27.05 639.8 27.4 639.35 27.75 638.9 28.05 638.25 28.6 637.75 29.05 637.2 29.5 636.7 29.9 636.25 30.35 635.9 30.8 635.55 31.25 635.3 31.7 634.9 32.1 634.65 32.6 634.45 33.05 634.25 33.5 634.1 34.05 634 34.65 633.85 35.2 633.8 35.85 633.8 35.9 633.8 36 633.75 36.1 633.75 36.2 633.7 36.3 633.7 36.45 633.65 36.55 633.7 36.6
L 633.7 36.75
Q 633.65 36.85 633.65 37 633.65 37.1 633.65 37.2 633.65 37.75 633.8 38.1 633.95 38.45 634.35 38.65 634.65 38.9 635.05 39 635.45 39.15 635.9 39.15
L 647.5 39.15
Q 649.6 39.15 649.6 37.25 649.6 36.75 649.45 36.4 649.3 36.05 649.05 35.85 648.75 35.7 648.3 35.6 647.85 35.5 647.3 35.5
L 638.3 35.5
Q 638.3 35 638.45 34.45 638.6 33.95 638.95 33.45 639.25 33 639.7 32.55 640.1 32.1 640.6 31.7 641.05 31.35 641.5 31 642 30.6 642.55 30.3 643.05 29.95 643.5 29.65 643.95 29.35 644.25 29.1 644.75 28.75 645.25 28.4 645.75 28 646.2 27.6 646.6 27.15 647 26.7 647.35 26.25 647.65 25.75 648 25.3 648.3 24.75 648.55 24.25 648.7 23.65 648.85 23.05 648.95 22.35 649.05 21.7 649.05 20.95 649.05 20.25 648.9 19.6
M 677.75 14.25
Q 677.35 14.5 677.1 14.9
L 676.85 15.3
Q 676.25 16.2 675.65 17.15 675.05 18.15 674.45 19.2 673.8 20.3 673.2 21.35 672.55 22.45 671.85 23.45 670.5 25.6 669.25 27.6 668.55 28.6 667.9 29.65 667.2 30.65 666.55 31.7
L 666.4 32.15 666.35 32.15 666.35 32.2 666.3 32.25
Q 666.2 32.45 666.1 32.65 666.05 32.8 666 33.05 665.95 33.25 665.95 33.5 666 33.7 666.05 33.9 666.1 34.15 666.15 34.35 666.25 34.55 666.35 34.75 666.4 34.95 666.55 35.1 666.65 35.25 666.85 35.35 667.05 35.45 667.2 35.5 667.4 35.55 667.65 35.65 667.8 35.7 668 35.7 668.2 35.7 668.4 35.65
L 677.2 35.65 677.2 37.3
Q 677.2 37.9 677.35 38.3 677.5 38.7 677.8 38.85 678.3 39.3 679.35 39.3 680.05 39.3 680.7 38.85 681.35 38.5 681.35 37.3
L 681.35 35.65 682.5 35.65
Q 683.1 35.65 683.45 35.5 683.8 35.4 684 35.05 684.15 34.75 684.25 34.4 684.3 34.05 684.3 33.55 684.3 33.2 684.25 32.85 684.15 32.5 684 32.15 683.8 31.85 683.45 31.7 683.1 31.5 682.5 31.5
L 681.35 31.5 681.25 16.05
Q 681.25 15.8 681.2 15.6 681.15 15.35 681.05 15.1 680.9 14.85 680.7 14.65 680.5 14.4 680.2 14.2 679.75 13.95 679.35 13.85 678.95 13.8 678.55 13.9 678.1 14 677.75 14.25
M 675.9 24.05
Q 676.65 22.9 677.1 22.05
L 677.1 31.6 671.05 31.6
Q 671.45 31.1 671.85 30.45 672.25 29.85 672.65 29.2 673.1 28.55 673.5 27.85 673.85 27.2 674.25 26.55 674.7 25.9 675.15 25.25 675.55 24.65 675.9 24.05
M 702.9 12.15
Q 702.75 11.95 702.55 11.8 702.3 11.65 702.1 11.6 701.85 11.5 701.6 11.5 701.25 11.5 700.9 11.65 700.6 11.8 700.35 12.1 700.05 12.4 699.9 12.65 699.75 12.95 699.75 13.2 699.75 13.45 699.8 13.65 699.8 13.9 699.9 14.15 700.85 15.75 701.85 17.4 702.8 19 703.75 20.6 704.75 22.25 705.65 23.85 706.6 25.45 707.5 27.1 707.1 27.8 706.7 28.6 706.25 29.4 705.75 30.25 705.25 31.1 704.8 31.95 704.3 32.8 703.9 33.65 703.3 34.5 702.85 35.35 702.35 36.2 701.9 37.05 701.45 37.9 701 38.7 700.5 39.45 700.05 40.2 699.9 40.4 699.9 40.6 699.85 40.8 699.85 41.05 699.85 41.35 700 41.6 700.15 41.9 700.45 42.2 700.7 42.5 701.05 42.6 701.4 42.75 701.75 42.75 702.2 42.75 702.55 42.55 702.9 42.3 703.1 41.9 705.2 38.55 707.1 35.05 708.05 33.4 709.05 31.65 710 29.95 711.05 28.15 711.25 28 711.35 27.75 711.45 27.5 711.45 27.25 711.45 27.2 711.45 27.05 711.4 26.95 711.4 26.75 711.35 26.6 711.3 26.45 711.25 26.35 711.2 26.25 710.15 24.55 709.15 22.8 708.1 21.15 707.15 19.4 706.2 17.75 705.2 16.05 704.2 14.35 703.15 12.65 703.05 12.4 702.9 12.15
M 755.55 37.7
Q 755.3 37.45 754.95 37.35 754.6 37.25 754.1 37.25
L 752.75 37.25
Q 752.2 37.25 751.85 37.35 751.45 37.45 751.25 37.65 751.05 37.85 750.9 38.2 750.8 38.6 750.8 39.1
L 750.8 40.6
Q 750.8 41.1 750.9 41.45 751.05 41.8 751.25 42 751.45 42.2 751.85 42.25 752.2 42.4 752.75 42.4
L 754.2 42.4
Q 755.1 42.4 755.6 41.95 756.05 41.5 756.05 40.6
L 756.05 39.1
Q 756.05 38.6 755.95 38.25 755.8 37.95 755.55 37.7
M 731.1 14.75
Q 730.45 15.25 729.95 15.85 729.35 16.5 728.9 17.2 728.45 17.95 728.15 18.75 727.85 19.6 727.7 20.45 727.55 21.3 727.55 22.25 727.55 23.15 727.7 23.95 727.85 24.8 728.15 25.55 728.4 26.35 728.85 27 729.25 27.65 729.8 28.2 730.25 28.8 730.85 29.25 731.4 29.7 732.1 30 732.7 30.4 733.4 30.55 734.1 30.7 734.85 30.7 735 30.7 735.15 30.7 735.3 30.7 735.45 30.7 735.55 30.7 735.65 30.7 735.7 30.7 735.8 30.65 736.65 30.65 737.4 30.45 738.15 30.3 738.8 29.95 739.4 29.65 739.85 29.35 740.3 29 740.6 28.6 740.6 29.1 740.55 29.65 740.5 30.2 740.4 30.85 740.3 31.5 740.15 32.1 739.95 32.75 739.75 33.3 739.4 33.9 739 34.4 738.6 34.85 738.15 35.3 737.7 35.7 737.05 35.9 736.45 36.1 735.7 36.1 735 36.1 734.4 35.95 733.85 35.8 733.45 35.45 733 35.15 732.65 34.75 732.3 34.4 732.05 33.9 731.7 33.3 731.4 32.65 731.2 32.4 730.9 32.25 730.55 32.1 730.1 32.1 729.45 32.1 728.8 32.5 728.45 32.7 728.3 33.05 728.1 33.35 728.1 33.75 728.1 34.05 728.15 34.25 728.2 34.5 728.3 34.75 728.35 35 728.45 35.3 728.55 35.55 728.7 35.85 728.8 36.1 729 36.35 729.15 36.6 729.4 36.8 729.6 37.1 729.75 37.3 729.9 37.5 730.1 37.75 730.65 38.3 731.3 38.7 731.95 39.15 732.7 39.4 733.35 39.7 734.1 39.85 734.85 39.95 735.7 39.95 736.75 39.95 737.7 39.75 738.7 39.5 739.6 39 740.5 38.5 741.25 37.85 742 37.15 742.6 36.25 743.15 35.35 743.6 34.3 744 33.2 744.35 31.95 744.65 30.7 744.8 29.3 744.95 27.9 744.95 26.35 744.95 24.9 744.85 23.55 744.7 22.2 744.45 21 744.2 19.8 743.8 18.75 743.35 17.75 742.85 16.85 742.2 16 741.5 15.3 740.8 14.65 739.95 14.15 739.1 13.65 738.05 13.45 737.05 13.2 735.8 13.2 734.95 13.2 734.1 13.35 733.3 13.55 732.55 13.9 731.75 14.25 731.1 14.75
M 731.9 24.1
Q 731.6 23.2 731.6 22.05 731.6 19.85 732.9 18.45 734.1 17.1 735.9 17.1 738 17.1 739.2 18.45 739.75 19.15 740 20.05 740.3 20.95 740.3 22.05 740.3 23.15 740 24.05 739.75 24.95 739.2 25.6 738 27 735.9 27 735 27 734.2 26.65 733.45 26.35 732.85 25.65 732.2 25 731.9 24.1
M 776.9 18.25
Q 777.85 18.25 778.2 17.6 778.35 17.3 778.45 16.95 778.55 16.6 778.55 16.15 778.55 15.25 778.05 14.8 777.6 14.3 776.7 14.2
L 765.05 14.2
Q 764.8 15.9 764.6 17.6 764.4 19.3 764.15 20.95 763.9 22.65 763.7 24.35 763.45 26.05 763.3 27.7 763.3 27.75 763.3 27.8
L 763.35 27.8 763.35 27.9
Q 763.35 28.05 763.5 28.25 763.65 28.4 764 28.5 764.3 28.65 764.6 28.7 764.95 28.75 765.25 28.75 765.65 28.75 765.95 28.75 766.2 28.7 766.4 28.6 766.55 28.55 766.7 28.5 766.85 28.4 767 28.3 767.15 28.15 767.25 28.05 767.35 27.95 767.5 27.8 767.55 27.7 767.65 27.6 767.75 27.5 767.85 27.4 768.25 26.7 769.2 26.35 770.1 26.05 771.1 26.05 772.8 26.05 774 27.3 774.6 27.95 774.9 28.75 775.2 29.6 775.2 30.6 775.2 31.2 775.15 31.7 775.1 32.2 774.95 32.7 774.85 33.2 774.6 33.6 774.4 34 774.05 34.35 773.85 34.75 773.5 35.05 773.2 35.3 772.85 35.5 772.4 35.75 771.95 35.85 771.45 35.95 770.9 35.95 770.55 35.95 770.2 35.9 769.9 35.85 769.55 35.7 769.25 35.6 768.9 35.4 768.6 35.25 768.35 35.05 768.05 34.8 767.85 34.6 767.7 34.35 767.5 34.1 767.35 33.85 767.2 33.55 767.05 33.3 766.95 33 766.8 32.85 766.75 32.75 766.7 32.6 766.7 32.5
L 766.65 32.5 766.65 32.45
Q 766.55 32.15 766.45 31.95 766.3 31.75 766.1 31.6 765.85 31.5 765.6 31.4 765.3 31.35 764.95 31.35 764.5 31.35 764.1 31.45 763.75 31.6 763.45 31.8 763.15 32.05 763 32.35 762.85 32.65 762.85 33.05 762.85 33.1 762.85 33.25 762.85 33.35 762.95 33.5 762.95 33.65 762.95 33.8 763 33.95 763.1 34.15 763.2 34.4 763.3 34.65 763.4 34.9 763.5 35.15 763.65 35.5 763.85 35.8 764 36.05 764.25 36.35 764.45 36.65 764.7 36.95 764.9 37.2 765.1 37.5 766.2 38.7 767.7 39.3 769.15 39.95 770.9 39.95 771.7 39.95 772.45 39.8 773.2 39.65 773.95 39.35 775.4 38.75 776.7 37.55 777.3 37 777.85 36.3 778.35 35.65 778.7 34.8 779.1 33.95 779.25 33.05 779.45 32.1 779.5 31.05 779.5 29.95 779.3 29 779.15 28.05 778.8 27.2 778.45 26.45 777.95 25.75 777.45 25.1 776.9 24.55 775.85 23.45 774.6 22.95 773.9 22.7 773.25 22.6 772.65 22.45 772.05 22.45 771.3 22.45 770.65 22.55 770.05 22.6 769.5 22.75 768.95 22.9 768.55 23.1 768.1 23.3 767.85 23.5 767.95 22.15 768.15 20.9 768.25 20.3 768.35 19.65 768.5 19 768.65 18.25 769.7 18.25 770.75 18.25 771.8 18.25 772.85 18.25 774.95 18.25 776.9 18.25
M 799.65 14.4
Q 799.45 14.25 799.2 14.25 797.35 14.25 795.5 14.25 793.7 14.25 791.95 14.25 790.1 14.25 788.3 14.25 786.55 14.3 784.8 14.3 784.25 14.35 783.95 14.5 783.6 14.65 783.45 15 783.25 15.3 783.2 15.65 783.1 16 783.1 16.4 783.1 16.85 783.2 17.2 783.25 17.55 783.45 17.85 783.6 18.15 783.95 18.3 784.3 18.45 784.8 18.45
L 795.1 18.45
Q 794.65 19.1 794.15 19.9 793.65 20.7 793.15 21.65 792.6 22.55 792.05 23.6 791.45 24.6 790.85 25.7 790.3 26.8 789.85 27.9 789.35 29 788.9 30.1 787.95 32.45 787.6 34.45 787.5 34.95 787.4 35.45 787.25 35.9 787.15 36.35 787 36.75 786.9 37.15 786.85 37.55 786.8 37.85 786.8 38.3 787 38.6 787.2 38.9 787.5 39.1 787.85 39.3 788.2 39.4 788.65 39.45 789.15 39.45 789.65 39.45 790 39.35 790.4 39.25 790.65 39.05 790.85 38.85 791 38.6 791.15 38.3 791.3 37.85 791.45 37.5 791.55 37.05 791.65 36.6 791.75 36 791.8 35.45 791.9 34.85 792 34.25 792.15 33.55 792.3 32.75 792.55 31.95 792.75 31.15 793.1 30.3 793.35 29.4 793.7 28.6 794.05 27.75 794.45 27 794.75 26.2 795.1 25.45 795.4 24.7 795.8 24 796.1 23.35 796.35 22.8 796.65 22.25 796.9 21.8 797.25 21.25 797.6 20.85 798 20.4 798.3 20 798.6 19.7 798.85 19.35 799.1 19.05 799.35 18.7 799.5 18.5 799.65 18.25 799.85 17.95 800 17.65 800.3 17.15 800.3 16.4
L 800.3 16
Q 800.3 15.7 800.25 15.35 800.2 15.1 800.05 14.8 799.9 14.55 799.65 14.4
M 817.8 16.05
Q 817.8 15.8 817.75 15.6 817.7 15.35 817.6 15.1 817.45 14.85 817.25 14.65 817.05 14.4 816.75 14.2 816.3 13.95 815.9 13.85 815.5 13.8 815.1 13.9 814.65 14 814.3 14.25 813.9 14.5 813.65 14.9
L 813.4 15.3
Q 812.8 16.2 812.2 17.15 811.6 18.15 811 19.2 810.35 20.3 809.75 21.35 809.1 22.45 808.4 23.45 807.05 25.6 805.8 27.6 805.1 28.6 804.45 29.65 803.75 30.65 803.1 31.7
L 802.95 32.15 802.9 32.15 802.9 32.2 802.85 32.25
Q 802.75 32.45 802.65 32.65 802.6 32.8 802.55 33.05 802.5 33.25 802.5 33.5 802.55 33.7 802.6 33.9 802.65 34.15 802.7 34.35 802.8 34.55 802.9 34.75 802.95 34.95 803.1 35.1 803.2 35.25 803.4 35.35 803.6 35.45 803.75 35.5 803.95 35.55 804.2 35.65 804.35 35.7 804.55 35.7 804.75 35.7 804.95 35.65
L 813.75 35.65 813.75 37.3
Q 813.75 37.9 813.9 38.3 814.05 38.7 814.35 38.85 814.85 39.3 815.9 39.3 816.6 39.3 817.25 38.85 817.9 38.5 817.9 37.3
L 817.9 35.65 819.05 35.65
Q 819.65 35.65 820 35.5 820.35 35.4 820.55 35.05 820.7 34.75 820.8 34.4 820.85 34.05 820.85 33.55 820.85 33.2 820.8 32.85 820.7 32.5 820.55 32.15 820.35 31.85 820 31.7 819.65 31.5 819.05 31.5
L 817.9 31.5 817.8 16.05
M 812.45 24.05
Q 813.2 22.9 813.65 22.05
L 813.65 31.6 807.6 31.6
Q 808 31.1 808.4 30.45 808.8 29.85 809.2 29.2 809.65 28.55 810.05 27.85 810.4 27.2 810.8 26.55 811.25 25.9 811.7 25.25 812.1 24.65 812.45 24.05 Z"/>
</g>

<path id="Layer0_0_1_STROKES" stroke="#EC008C" stroke-width="3" stroke-linejoin="miter" stroke-linecap="butt" stroke-miterlimit="3" fill="none" d="
M 723.35 46.9
L 736.6 46.9 749.85 46.9
M 653.35 46.9
L 635.4 46.9 635.4 63 736.6 63 736.6 46.9
M 617.45 46.9
L 635.4 46.9
M 536.05 46.9
L 549.3 46.9 562.55 46.9
M 444.05 46.9
L 430.8 46.9 430.8 63 549.3 63 549.3 46.9
M 417.55 46.9
L 430.8 46.9
M 286.5 46.9
L 299.75 46.9 313 46.9
M 194.5 46.9
L 181.25 46.9 181.25 63 299.75 63 299.75 46.9
M 168 46.9
L 181.25 46.9"/>
</defs>

<g transform="matrix( 1, 0, 0, 1, -134.6,-10.15) ">
<use xlink:href="#Layer0_0_FILL"/>

<use xlink:href="#Layer0_0_1_STROKES"/>
</g>
</svg>
