<?xml version="1.0" encoding="utf-8"?>
<!-- Generator: Adobe Illustrator 23.1.0, SVG Export Plug-In . SVG Version: 6.00 Build 0)  -->
<svg version="1.1" id="레이어_1" xmlns="http://www.w3.org/2000/svg" xmlns:xlink="http://www.w3.org/1999/xlink" x="0px"
	 y="0px" width="1600px" height="70px" viewBox="0 0 1600 70" style="enable-background:new 0 0 1600 70;" xml:space="preserve">
<g style="opacity:0.6;">
	<path style="fill:#00ACB1;" d="M18.9,52.7c-2.2,0-4.9-1.4-4.9-6.1V23.4c0-4.5,2.7-6.1,4.9-6.1c2.2,0,4.9,1.6,4.9,6.1v23.2
		C23.7,51.2,21,52.7,18.9,52.7z M18.9,65c9.7,0,17.2-6.6,17.2-19.4V24.4C36.1,11.7,28.6,5,18.9,5S1.7,11.7,1.7,24.4v21.2
		C1.7,58.4,9.2,65,18.9,65z"/>
	<path style="fill:#00ACB1;" d="M98.9,52.7c-2.2,0-4.9-1.4-4.9-6.1V23.4c0-4.5,2.7-6.1,4.9-6.1c2.2,0,4.9,1.6,4.9,6.1v23.2
		C103.7,51.2,101,52.7,98.9,52.7z M98.9,65c9.7,0,17.2-6.6,17.2-19.4V24.4c0-12.7-7.5-19.4-17.2-19.4s-17.2,6.7-17.2,19.4v21.2
		C81.7,58.4,89.2,65,98.9,65z"/>
	<path style="fill:#00ACB1;" d="M178.9,52.7c-2.2,0-4.9-1.4-4.9-6.1V23.4c0-4.5,2.7-6.1,4.9-6.1c2.2,0,4.9,1.6,4.9,6.1v23.2
		C183.7,51.2,181,52.7,178.9,52.7z M178.9,65c9.7,0,17.2-6.6,17.2-19.4V24.4c0-12.7-7.5-19.4-17.2-19.4c-9.7,0-17.2,6.7-17.2,19.4
		v21.2C161.7,58.4,169.2,65,178.9,65z"/>
	<path style="fill:#00ACB1;" d="M258.9,52.7c-2.2,0-4.9-1.4-4.9-6.1V23.4c0-4.5,2.7-6.1,4.9-6.1c2.2,0,4.9,1.6,4.9,6.1v23.2
		C263.7,51.3,261,52.7,258.9,52.7z M258.9,65c9.7,0,17.2-6.6,17.2-19.4V24.4c0-12.7-7.5-19.4-17.2-19.4c-9.7,0-17.2,6.7-17.2,19.4
		v21.2C241.7,58.4,249.2,65,258.9,65z"/>
	<path style="fill:#00ACB1;" d="M338.9,52.7c-2.2,0-4.9-1.4-4.9-6.1V23.4c0-4.5,2.7-6.1,4.9-6.1c2.2,0,4.9,1.6,4.9,6.1v23.2
		C343.7,51.2,341,52.7,338.9,52.7z M338.9,65c9.7,0,17.2-6.6,17.2-19.4V24.4c0-12.7-7.5-19.4-17.2-19.4c-9.7,0-17.2,6.7-17.2,19.4
		v21.2C321.7,58.4,329.2,65,338.9,65z"/>
	<path style="fill:#00ACB1;" d="M418.9,52.7c-2.2,0-4.9-1.4-4.9-6.1V23.4c0-4.5,2.7-6.1,4.9-6.1c2.2,0,4.9,1.6,4.9,6.1v23.2
		C423.7,51.2,421,52.7,418.9,52.7z M418.9,65c9.7,0,17.2-6.6,17.2-19.4V24.4c0-12.7-7.5-19.4-17.2-19.4c-9.7,0-17.2,6.7-17.2,19.4
		v21.2C401.7,58.4,409.2,65,418.9,65z"/>
	<path style="fill:#00ACB1;" d="M578.9,52.7c-2.2,0-4.9-1.4-4.9-6.1V23.4c0-4.5,2.7-6.1,4.9-6.1s4.9,1.6,4.9,6.1v23.2
		C583.7,51.2,581,52.7,578.9,52.7z M578.9,65c9.7,0,17.2-6.6,17.2-19.4V24.4c0-12.7-7.5-19.4-17.2-19.4c-9.7,0-17.2,6.7-17.2,19.4
		v21.2C561.7,58.4,569.2,65,578.9,65z"/>
	<path style="fill:#00ACB1;" d="M498.9,52.7c-2.2,0-4.9-1.4-4.9-6.1V23.4c0-4.5,2.7-6.1,4.9-6.1c2.2,0,4.9,1.6,4.9,6.1v23.2
		C503.7,51.2,501,52.7,498.9,52.7z M498.9,65c9.7,0,17.2-6.6,17.2-19.4V24.4c0-12.7-7.5-19.4-17.2-19.4c-9.7,0-17.2,6.7-17.2,19.4
		v21.2C481.7,58.4,489.2,65,498.9,65z"/>
	<path style="fill:#00ACB1;" d="M658.9,52.7c-2.2,0-4.9-1.4-4.9-6.1V23.4c0-4.5,2.7-6.1,4.9-6.1s4.9,1.6,4.9,6.1v23.2
		C663.7,51.2,661,52.7,658.9,52.7z M658.9,65c9.7,0,17.2-6.6,17.2-19.4V24.4c0-12.7-7.5-19.4-17.2-19.4c-9.7,0-17.2,6.7-17.2,19.4
		v21.2C641.7,58.4,649.2,65,658.9,65z"/>
</g>
<g>
	<path style="fill:#00ACB1;" d="M54.2,9.6c-1.2,3.8-4.5,5.4-8.4,6c-2.5,0.4-4.4,2.5-4.4,5.9c0,4,2.9,6.1,6.3,6.1h5.8v36.1h12.3V12.4
		c0-4.8-2.6-7.3-6.1-7.3C57.1,5.1,55.2,6.6,54.2,9.6z"/>
	<path style="fill:#00ACB1;" d="M154.8,63.6V51.1h-18.9c-0.7,0-0.9-0.4-0.9-1.1v-0.5c0-2.7,1.3-4.1,4.4-6.5l7.6-5.7
		c5.1-3.9,7.3-8.7,7.3-16.5c0-10-7.4-15.7-16.7-15.7c-5.2,0-11.4,2.3-14.4,7.7c-1.5,2.7-1.5,6.6,0.7,8.7c1.8,1.7,4.2,1.7,6.1,1.2
		c1.2-0.4,2.1-1.3,2.8-2c1.4-1.4,2.8-2.4,4.6-2.4c2.8,0,4.5,2,4.5,4.3c0,1.7-0.6,3.7-2.5,5.2l-9.6,7.5c-5.8,4.6-7.6,9.3-7.6,18.9
		v0.8c0,5.4,3,8.5,7.6,8.5H154.8z"/>
	<path style="fill:#00ACB1;" d="M234.7,45.4c0-9-5.8-15-11.4-15.8l8.6-10.1c4.2-4.9,1.7-14-5-14h-19.1c-3.6,0-5,3.3-5,6.1
		c0,2.8,1.4,6,5,6h12.1l-9.5,10c-2.1,2.2-2.6,4.4-2,7c0.4,2,2.2,3.8,3.9,3.8h2.9c4.1,0,7.4,2.3,7.4,6.5c0,3.9-2.5,6.7-5.5,6.7
		c-1.8,0-3.3-0.1-4.7-1.2c-0.7-0.5-1.6-1.6-2.8-2c-1.8-0.6-4.3-0.6-6,1.2c-2.1,2.2-2.3,6.1-0.7,8.7c2.9,4.7,9,6.3,14.4,6.3
		C226.8,64.8,234.7,57.7,234.7,45.4z"/>
	<path style="fill:#00ACB1;" d="M294.7,41.8c-1.7,0-2.2-0.4-1.8-2l6.8-26.7c0.9-4.4-1.8-7.6-5-8c-3.1-0.4-5.7,1.5-6.7,5.9l-7.8,30.3
		c-1.8,7.4,1.2,12.4,8.6,12.4h12.6v10h11.4v-10h5.5V41.8h-5.5V24.9c0-4.5-2.8-6.5-5.7-6.5c-2.8,0-5.7,2-5.7,6.5v16.8H294.7z"/>
	<path style="fill:#00ACB1;" d="M376.4,26.1c-1.1,0-1.5-0.1-1.5-1.5l0.2-5.1c0.1-1.4,0.4-1.5,1.5-1.5h12.1c3.6,0,4.9-3.2,4.9-6.1
		s-1.4-6.3-4.9-6.3h-16.2c-7.3,0-8.5,2.7-9,10.8l-0.6,11c-0.4,8.2,1.8,10.8,9,10.8h4.4c3.9,0,6.6,2.7,6.6,6.7s-3.1,6.7-5.9,6.7
		c-1.8,0-3.2-0.3-4.6-1.3c-0.7-0.5-1.6-1.6-2.8-2c-1.8-0.6-4.3-0.6-6,1.2c-2.1,2.2-2.4,6.1-0.7,8.7c2.9,4.5,9.3,6.4,14.4,6.4
		c9.6,0,17.6-6.5,17.6-19.9s-7.4-18.9-17.4-18.9H376.4z"/>
	<path style="fill:#00ACB1;" d="M453.2,42.2c0-3.8,2.6-5.7,5.2-5.7c2.5,0,5.2,1.9,5.2,6.7V46c0,4.8-2.6,6.7-5.2,6.7
		c-2.5,0-5.2-1.9-5.2-6.7V42.2z M458.5,64.8c8.2,0,16.9-5.2,16.9-18.5v-3.5c0-13.2-6-18.2-13.5-18.2c-2.9,0-6.8,0.9-8.6,2.7v-3.4
		c0-3.8,2.9-6,5.7-6c2.2,0,3.3,0.3,4.4,0.6c1,0.3,1.8,0.9,3.1,1.2c2,0.5,4.1,0.1,5.6-2c1.8-2.5,1.4-6.6-0.6-8.5
		c-2.8-2.9-7.6-4.1-12.7-4.1c-9.4,0-17.1,6.4-17.1,18.2v23C441.6,59.6,450.3,64.8,458.5,64.8z"/>
	<path style="fill:#00ACB1;" d="M623.7,23.7c0,3.3-2.4,4.9-4.9,4.9c-2.5,0-4.9-1.7-4.9-4.9v-2.2c0-3.3,2.4-4.9,4.9-4.9
		c2.5,0,4.9,1.7,4.9,4.9V23.7z M624.5,48.1c0,3.3-3.1,5.4-5.7,5.4s-5.7-2.1-5.7-5.4v-3c0-3.3,3.1-5.4,5.7-5.4s5.7,2.1,5.7,5.4V48.1z
		 M602.2,23.6c0,4.3,1.7,7.6,4.1,10.1c-3,2.5-5,6.1-5,10.8v3.3c0,11.8,9.1,17.1,17.6,17.1s17.6-5.3,17.6-17.1v-3.3
		c0-4.7-2.1-8.2-5.1-10.8c2.5-2.5,4.2-5.8,4.2-10.1v-1.7c0-11.9-8.8-16.8-16.7-16.8c-8,0-16.7,4.8-16.7,16.8V23.6z"/>
	<path style="fill:#00ACB1;" d="M539,18.2c1.4,0,2,0.5,1.5,2.1l-12.2,43.3h12.5l13.1-46.8c2-6.9-1.4-11.3-7-11.3h-21.3
		c-3.6,0-5,3.5-5,6.4s1.4,6.2,5,6.2H539z"/>
	<path style="fill:#00ACB1;" d="M703.3,27.7c0,3.8-2.6,5.7-5.2,5.7c-2.5,0-5.2-1.9-5.2-6.7v-2.9c0-4.8,2.6-6.7,5.2-6.7
		c2.5,0,5.2,1.9,5.2,6.7V27.7z M698.1,5.1c-8.2,0-16.9,5.2-16.9,18.5v3.5c0,13.2,6,18.2,13.5,18.2c2.9,0,6.8-0.9,8.6-2.7V46
		c0,3.8-2.9,6-5.7,6c-2,0-3.3-0.3-4.4-0.7c-1-0.4-1.8-0.9-3.1-1.2c-2-0.5-4.1-0.1-5.6,2c-1.8,2.5-1.4,6.6,0.6,8.5
		c2.8,2.9,7.6,4.1,12.7,4.1c9.4,0,17.1-6.4,17.1-18.2v-23C715,10.3,706.3,5.1,698.1,5.1z"/>
	<path style="fill:#00ACB1;" d="M778.8,5c-9.7,0-17.2,6.7-17.2,19.4v21.2c0,12.8,7.5,19.4,17.2,19.4c9.7,0,17.2-6.6,17.2-19.4V24.4
		C796,11.7,788.5,5,778.8,5z M783.7,46.6c0,4.6-2.7,6.1-4.9,6.1s-4.9-1.4-4.9-6.1V23.4c0-4.5,2.7-6.1,4.9-6.1s4.9,1.6,4.9,6.1V46.6z
		"/>
	<path style="fill:#00ACB1;" d="M739.2,9.6c-1.2,3.8-4.5,5.4-8.4,6c-2.5,0.4-4.4,2.5-4.4,5.9c0,4,2.9,6.1,6.3,6.1h5.8v36.1h12.3
		V12.4c0-4.8-2.6-7.3-6.1-7.3C742,5.1,740.1,6.6,739.2,9.6z"/>
	<path style="fill:#00ACB1;" d="M854.2,9.5c-1.2,3.8-4.5,5.4-8.4,6c-2.5,0.4-4.4,2.5-4.4,5.9c0,4,2.9,6.1,6.3,6.1h5.8v36.1h12.3
		V12.3c0-4.8-2.6-7.3-6.1-7.3C857.1,5,855.2,6.5,854.2,9.5z"/>
	<path style="fill:#00ACB1;" d="M819.2,9.5c-1.2,3.8-4.5,5.4-8.4,6c-2.5,0.4-4.4,2.5-4.4,5.9c0,4,2.9,6.1,6.3,6.1h5.8v36.1h12.3
		V12.3c0-4.8-2.6-7.3-6.1-7.3C822,5,820.1,6.5,819.2,9.5z"/>
	<path style="fill:#00ACB1;" d="M954.8,63.5V51h-18.9c-0.7,0-0.9-0.4-0.9-1.1v-0.5c0-2.7,1.3-4.1,4.4-6.5l7.6-5.7
		c5.1-3.9,7.3-8.7,7.3-16.5c0-10-7.4-15.7-16.7-15.7c-5.2,0-11.4,2.3-14.4,7.7c-1.5,2.7-1.5,6.6,0.7,8.7c1.8,1.7,4.2,1.7,6.1,1.2
		c1.2-0.4,2.1-1.3,2.8-2c1.4-1.4,2.8-2.4,4.6-2.4c2.8,0,4.5,2,4.5,4.3c0,1.7-0.6,3.7-2.5,5.2l-9.6,7.5c-5.8,4.6-7.6,9.3-7.6,18.9V55
		c0,5.4,3,8.5,7.6,8.5H954.8z"/>
	<path style="fill:#00ACB1;" d="M899.2,9.5c-1.2,3.8-4.5,5.4-8.4,6c-2.5,0.4-4.4,2.5-4.4,5.9c0,4,2.9,6.1,6.3,6.1h5.8v36.1h12.3
		V12.3c0-4.8-2.6-7.3-6.1-7.3C902,5,900.1,6.5,899.2,9.5z"/>
	<path style="fill:#00ACB1;" d="M1034.7,45.3c0-9-5.8-15-11.4-15.8l8.6-10.1c4.2-4.9,1.7-14-5-14h-19.1c-3.6,0-5,3.3-5,6.1
		c0,2.8,1.4,6,5,6h12.1l-9.5,10c-2.1,2.2-2.6,4.4-2,7c0.4,2,2.2,3.8,3.9,3.8h2.9c4.1,0,7.4,2.3,7.4,6.5c0,3.9-2.5,6.7-5.5,6.7
		c-1.8,0-3.3-0.1-4.7-1.2c-0.7-0.5-1.6-1.6-2.8-2c-1.8-0.6-4.3-0.6-6,1.2c-2.1,2.2-2.3,6.1-0.7,8.7c2.9,4.7,9,6.3,14.4,6.3
		C1026.8,64.8,1034.7,57.6,1034.7,45.3z"/>
	<path style="fill:#00ACB1;" d="M979.2,9.5c-1.2,3.8-4.5,5.4-8.4,6c-2.5,0.4-4.4,2.5-4.4,5.9c0,4,2.9,6.1,6.3,6.1h5.8v36.1h12.3
		V12.3c0-4.8-2.6-7.3-6.1-7.3C982,5,980.1,6.5,979.2,9.5z"/>
	<path style="fill:#00ACB1;" d="M1094.7,41.8c-1.7,0-2.2-0.4-1.8-2l6.8-26.7c0.9-4.4-1.8-7.6-5-8c-3.1-0.4-5.7,1.5-6.7,5.9
		l-7.8,30.3c-1.8,7.4,1.2,12.4,8.6,12.4h12.6v10h11.4v-10h5.5V41.8h-5.5V25c0-4.5-2.8-6.5-5.7-6.5c-2.8,0-5.7,2-5.7,6.5v16.8H1094.7
		z"/>
	<path style="fill:#00ACB1;" d="M1059.2,9.6c-1.2,3.8-4.5,5.4-8.4,6c-2.5,0.4-4.4,2.5-4.4,5.9c0,4,2.9,6.1,6.3,6.1h5.8v36.1h12.3
		V12.5c0-4.8-2.6-7.3-6.1-7.3C1062,5.2,1060.1,6.7,1059.2,9.6z"/>
	<path style="fill:#00ACB1;" d="M1139.2,9.5c-1.2,3.8-4.5,5.4-8.4,6c-2.5,0.4-4.4,2.5-4.4,5.9c0,4,2.9,6.1,6.3,6.1h5.8v36.1h12.3
		V12.3c0-4.8-2.6-7.3-6.1-7.3C1142,5,1140.1,6.5,1139.2,9.5z"/>
	<path style="fill:#00ACB1;" d="M1176.8,26.2c-1.1,0-1.5-0.1-1.5-1.5l0.2-5.1c0.1-1.4,0.4-1.5,1.5-1.5h12.1c3.6,0,4.9-3.2,4.9-6.1
		s-1.4-6.3-4.9-6.3H1173c-7.3,0-8.5,2.7-9,10.8l-0.6,11c-0.4,8.2,1.8,10.8,9,10.8h4.4c3.9,0,6.6,2.7,6.6,6.7s-3.1,6.7-5.9,6.7
		c-1.8,0-3.2-0.3-4.6-1.3c-0.7-0.5-1.6-1.6-2.8-2c-1.8-0.6-4.3-0.6-6,1.2c-2.1,2.2-2.4,6.1-0.7,8.7c2.9,4.5,9.3,6.4,14.4,6.4
		c9.6,0,17.6-6.5,17.6-19.9s-7.4-18.9-17.4-18.9H1176.8z"/>
	<path style="fill:#00ACB1;" d="M1219.2,9.5c-1.2,3.8-4.5,5.4-8.4,6c-2.5,0.4-4.4,2.5-4.4,5.9c0,4,2.9,6.1,6.3,6.1h5.8v36.1h12.3
		V12.3c0-4.8-2.6-7.3-6.1-7.3C1222,5,1220.1,6.5,1219.2,9.5z"/>
	<path style="fill:#00ACB1;" d="M1253.8,42.3c0-3.8,2.6-5.7,5.2-5.7c2.5,0,5.2,1.9,5.2,6.7v2.9c0,4.8-2.6,6.7-5.2,6.7
		c-2.5,0-5.2-1.9-5.2-6.7V42.3z M1259,65c8.2,0,16.9-5.2,16.9-18.5V43c0-13.2-6-18.2-13.5-18.2c-2.9,0-6.8,0.9-8.6,2.7V24
		c0-3.8,2.9-6,5.7-6c2.2,0,3.3,0.3,4.4,0.6c1,0.3,1.8,0.9,3.1,1.2c2,0.5,4.1,0.1,5.6-2c1.8-2.5,1.4-6.6-0.6-8.5
		c-2.8-2.9-7.6-4.1-12.7-4.1c-9.4,0-17.1,6.4-17.1,18.2v23C1242.1,59.7,1250.8,65,1259,65z"/>
	<path style="fill:#00ACB1;" d="M1299.2,9.5c-1.2,3.8-4.5,5.4-8.4,6c-2.5,0.4-4.4,2.5-4.4,5.9c0,4,2.9,6.1,6.3,6.1h5.8v36.1h12.3
		V12.3c0-4.8-2.6-7.3-6.1-7.3C1302,5,1300.1,6.5,1299.2,9.5z"/>
	<path style="fill:#00ACB1;" d="M1340.5,18.3c1.4,0,2,0.5,1.5,2.1l-12.2,43.3h12.5l13.1-46.8c2-6.9-1.4-11.3-7-11.3h-21.3
		c-3.6,0-5,3.5-5,6.4s1.4,6.2,5,6.2H1340.5z"/>
	<path style="fill:#00ACB1;" d="M1379.2,9.5c-1.2,3.8-4.5,5.4-8.4,6c-2.5,0.4-4.4,2.5-4.4,5.9c0,4,2.9,6.1,6.3,6.1h5.8v36.1h12.3
		V12.3c0-4.8-2.6-7.3-6.1-7.3C1382,5,1380.1,6.5,1379.2,9.5z"/>
	<path style="fill:#00ACB1;" d="M1423.9,23.8c0,3.3-2.4,4.9-4.9,4.9s-4.9-1.7-4.9-4.9v-2.2c0-3.3,2.4-4.9,4.9-4.9s4.9,1.7,4.9,4.9
		V23.8z M1424.7,48.2c0,3.3-3.1,5.4-5.7,5.4s-5.7-2.1-5.7-5.4v-3c0-3.3,3.1-5.4,5.7-5.4s5.7,2.1,5.7,5.4V48.2z M1402.4,23.7
		c0,4.3,1.7,7.6,4.1,10.1c-3,2.5-5,6.1-5,10.8v3.3c0,11.8,9.1,17.1,17.6,17.1s17.6-5.3,17.6-17.1v-3.3c0-4.7-2.1-8.2-5.1-10.8
		c2.5-2.5,4.2-5.8,4.2-10.1v-1.7c0-11.9-8.8-16.8-16.7-16.8c-8,0-16.7,4.8-16.7,16.8V23.7z"/>
	<path style="fill:#00ACB1;" d="M1459.2,9.5c-1.2,3.8-4.5,5.4-8.4,6c-2.5,0.4-4.4,2.5-4.4,5.9c0,4,2.9,6.1,6.3,6.1h5.8v36.1h12.3
		V12.3c0-4.8-2.6-7.3-6.1-7.3C1462,5,1460.1,6.5,1459.2,9.5z"/>
	<path style="fill:#00ACB1;" d="M1504.2,27.9c0,3.8-2.6,5.7-5.2,5.7c-2.5,0-5.2-1.9-5.2-6.7V24c0-4.8,2.6-6.7,5.2-6.7
		c2.5,0,5.2,1.9,5.2,6.7V27.9z M1499,5.2c-8.2,0-16.9,5.2-16.9,18.5v3.5c0,13.2,6,18.2,13.5,18.2c2.9,0,6.8-0.9,8.6-2.7v3.4
		c0,3.8-2.9,6-5.7,6c-2,0-3.3-0.3-4.4-0.7c-1-0.4-1.8-0.9-3.1-1.2c-2-0.5-4.1-0.1-5.6,2c-1.8,2.5-1.4,6.6,0.6,8.5
		c2.8,2.9,7.6,4.1,12.7,4.1c9.4,0,17.1-6.4,17.1-18.2v-23C1515.9,10.4,1507.2,5.2,1499,5.2z"/>
	<path style="fill:#00ACB1;" d="M1555,63.6V51.1H1536c-0.7,0-0.9-0.4-0.9-1.1v-0.5c0-2.7,1.3-4.1,4.4-6.5l7.6-5.7
		c5.1-3.9,7.3-8.7,7.3-16.5c0-10-7.4-15.7-16.7-15.7c-5.2,0-11.4,2.3-14.4,7.7c-1.5,2.7-1.5,6.6,0.7,8.7c1.8,1.7,4.2,1.7,6.1,1.2
		c1.2-0.4,2.1-1.3,2.8-2c1.4-1.4,2.8-2.4,4.6-2.4c2.8,0,4.5,2,4.5,4.3c0,1.7-0.6,3.7-2.5,5.2l-9.6,7.5c-5.8,4.6-7.6,9.3-7.6,18.9
		v0.8c0,5.4,3,8.5,7.6,8.5H1555z"/>
	<path style="fill:#00ACB1;" d="M1578.8,5c-9.7,0-17.2,6.7-17.2,19.4v21.2c0,12.8,7.5,19.4,17.2,19.4c9.7,0,17.2-6.6,17.2-19.4V24.4
		C1596,11.7,1588.5,5,1578.8,5z M1583.7,46.6c0,4.6-2.7,6.1-4.9,6.1c-2.2,0-4.9-1.4-4.9-6.1V23.4c0-4.5,2.7-6.1,4.9-6.1
		c2.2,0,4.9,1.6,4.9,6.1V46.6z"/>
</g>
<g>
</g>
<g>
</g>
<g>
</g>
<g>
</g>
<g>
</g>
<g>
</g>
<g>
</g>
<g>
</g>
<g>
</g>
<g>
</g>
<g>
</g>
<g>
</g>
<g>
</g>
<g>
</g>
<g>
</g>
</svg>
