
<svg xmlns="http://www.w3.org/2000/svg" version="1.1" xmlns:xlink="http://www.w3.org/1999/xlink" preserveAspectRatio="none" x="0px" y="0px" width="1280px" height="720px" viewBox="0 0 1280 720">
<defs>
<path id="Layer2_0_1_STROKES" stroke="#3567D7" stroke-width="3" stroke-linejoin="round" stroke-linecap="round" fill="none" d="
M 790.3 568.5
L 832.75 568.5 832.9 568.5 876.05 568.5 876.25 568.5 919.35 568.5 919.55 568.5 962.75 568.5 962.85 568.5 1006.05 568.5 1006.2 568.5 1048.95 568.5 1027.6 531.45 1027.4 531.1 1006 493.9 1005.8 493.55 984.35 456.35 984.15 456 962.7 418.8 962.55 418.55 941.05 381.25 940.95 381 919.6 344 898.3 381 898.1 381.4 876.65 418.55 876.4 419 855.1 456 854.8 456.6 833.5 493.55 833.1 494.2 811.85 531.1 811.5 531.7 790.3 568.5 Z"/>
</defs>

<g transform="matrix( 1, 0, 0, 1, 0,0) ">
<use xlink:href="#Layer2_0_1_STROKES"/>
</g>
</svg>
