
<svg xmlns="http://www.w3.org/2000/svg" version="1.1" xmlns:xlink="http://www.w3.org/1999/xlink" preserveAspectRatio="none" x="0px" y="0px" width="1280px" height="720px" viewBox="0 0 1280 720">
<defs>
<g id="fnfmf343434_copy_3_0_Layer1_0_FILL">
<path fill="#FFFFFF" stroke="none" d="
M 70 -15
Q 70 -30 55 -30
L -55 -30
Q -70 -30 -70 -15
L -70 15.05
Q -70 30.05 -55 30.05
L 55 30.05
Q 70 30.05 70 15.05
L 70 -15 Z"/>
</g>

<path id="Layer0_0_1_STROKES" stroke="#BBDECB" stroke-width="5" stroke-linejoin="round" stroke-linecap="round" fill="none" d="
M 385.1 315.1
L 955.25 315.1
Q 970.25 315.1 970.25 330.1
L 970.25 597.15
Q 970.25 612.15 955.25 612.15
L 385.1 612.15
Q 370.1 612.15 370.1 597.15
L 370.1 330.1
Q 370.1 315.1 385.1 315.1 Z"/>

<path id="fnfmf343434_copy_3_0_Layer1_0_1_STROKES" stroke="#DBDBDB" stroke-width="3" stroke-linejoin="round" stroke-linecap="round" fill="none" d="
M -55 -30
L 55 -30
Q 70 -30 70 -15
L 70 15.05
Q 70 30.05 55 30.05
L -55 30.05
Q -70 30.05 -70 15.05
L -70 -15
Q -70 -30 -55 -30 Z"/>

<path id="Layer0_2_1_STROKES" stroke="#000000" stroke-width="3" stroke-linejoin="round" stroke-linecap="round" fill="none" d="
M 592.28271484375 559.2842773437499
L 706.3777099609374 571.7555175781249 718.6242431640626 432.04392089843753 607.450439453125 379.23776855468753 535.2071289062501 460.69406738281253 592.28271484375 559.2842773437499 Z
M 289.5461669921875 565.2951904296874
L 485.43452148437495 565.2951904296874 386.28254394531245 397.94462890625 282.2431884765625 469.17675781250006 289.5461669921875 565.2951904296874 Z"/>
</defs>

<g transform="matrix( 1, 0, 0, 1, -172.6,16.4) ">
<use xlink:href="#Layer0_0_1_STROKES"/>
</g>

<g transform="matrix( 1, 0, 0, 1, 1012.5,578.5) ">
<g transform="matrix( 1, 0, 0, 1, 0,0) ">
<use xlink:href="#fnfmf343434_copy_3_0_Layer1_0_FILL"/>

<use xlink:href="#fnfmf343434_copy_3_0_Layer1_0_1_STROKES"/>
</g>
</g>

<g transform="matrix( 1.12353515625, 0, 0, 1.12353515625, -53.75,-47.2) ">
<use xlink:href="#Layer0_2_1_STROKES" transform="matrix( 0.890045166015625, 0, 0, 0.890045166015625, 47.8,42) "/>
</g>
</svg>
