<?xml version="1.0" encoding="utf-8"?>
<!-- Generator: Adobe Illustrator 23.1.0, SVG Export Plug-In . SVG Version: 6.00 Build 0)  -->
<svg version="1.1" id="레이어_1" xmlns="http://www.w3.org/2000/svg" xmlns:xlink="http://www.w3.org/1999/xlink" x="0px"
	 y="0px" width="610px" height="168px" viewBox="0 0 610 168" style="enable-background:new 0 0 610 168;" xml:space="preserve">
<g style="opacity:0.5;">
	<path style="fill:none;stroke:#FFFFFF;stroke-width:7;stroke-linecap:round;stroke-miterlimit:10;" d="M148.2,17.8
		c-19.1,18-44,28.9-71.2,28.9c-23.9,0-45.9-8.4-63.9-22.6"/>
	<path style="fill:none;stroke:#FFFFFF;stroke-width:7;stroke-linecap:round;stroke-miterlimit:10;" d="M288.1,74.1
		c-32.6,18.9-70.4,29.7-110.7,29.7c-64.5,0-122.5-27.6-163-71.7"/>
	<path style="fill:none;stroke:#FFFFFF;stroke-width:7;stroke-linecap:round;stroke-miterlimit:10;" d="M599.3,14.9
		c-71.6,89.7-181.8,147.1-305.5,147.1C178.8,162.1,75.5,112.4,4,33.5"/>
	<path style="fill:#FFFFFF;" d="M155.5,10.4L155.2,27c-0.1,3.5-3,5.2-5.5,3.3L134.2,19c-2.5-1.8-1.3-5.4,1.5-6.3l15.8-5.3
		C153.6,6.5,155.7,8,155.5,10.4z"/>
	<path style="fill:#FFFFFF;" d="M293.7,73.3L287,88.5c-1.4,3.2-4.8,3.6-6.4,1l-9.9-16.4c-1.6-2.7,0.8-5.5,3.8-5.2l16.6,1.2
		C293.4,69,294.8,71.2,293.7,73.3z"/>
	<path style="fill:#FFFFFF;" d="M604.5,8.1l1.2,16.6c0.2,3.5-2.5,5.4-5.2,3.8l-16.4-9.8c-2.7-1.6-1.8-5.2,0.9-6.4l15.2-6.7
		C602.3,4.3,604.5,5.7,604.5,8.1z"/>
</g>
<g>
	<path style="fill:#FFFFFF;" d="M46.1,31.9c-0.2,0-0.4,0-0.5-0.1c-0.1-0.1-0.1-0.3-0.1-0.5V12.7l-2,1.9c-0.3,0.3-0.6,0.4-0.8,0.1
		l-1.9-2.2c-0.1-0.2-0.2-0.3-0.1-0.4c0.1-0.1,0.2-0.3,0.4-0.4L46,7c0.2-0.2,0.5-0.3,0.8-0.3h2.1c0.5,0,0.8,0.1,0.8,0.2
		c0.1,0.1,0.1,0.4,0.1,1v23.4c0,0.2,0,0.4-0.1,0.5c-0.1,0.1-0.2,0.2-0.5,0.2H46.1z"/>
	<path style="fill:#FFFFFF;" d="M67.1,32.3c-1.5,0-2.7-0.3-3.8-0.9s-1.9-1.5-2.6-2.6c-0.7-1.1-1.2-2.5-1.5-4.1
		c-0.3-1.6-0.5-3.4-0.5-5.3c0-0.9,0-1.8,0.1-2.8c0.1-1,0.2-1.9,0.5-2.9c0.2-1,0.5-1.9,0.9-2.7c0.4-0.9,0.9-1.7,1.5-2.3
		c0.6-0.7,1.4-1.2,2.2-1.6c0.9-0.4,1.9-0.6,3.1-0.6s2.2,0.2,3.1,0.6c0.9,0.4,1.6,0.9,2.2,1.6c0.6,0.7,1.1,1.4,1.5,2.3
		s0.7,1.8,0.9,2.8c0.2,1,0.4,1.9,0.5,2.9c0.1,1,0.1,1.9,0.1,2.7c0,1.9-0.2,3.7-0.5,5.3c-0.3,1.6-0.8,2.9-1.5,4.1
		c-0.7,1.1-1.5,2-2.6,2.6S68.6,32.3,67.1,32.3z M67.1,10.6c-0.5,0-1,0.1-1.5,0.4c-0.5,0.3-0.9,0.8-1.3,1.4c-0.4,0.7-0.6,1.6-0.8,2.7
		c-0.2,1.1-0.3,2.5-0.3,4.1c0,1.7,0.1,3.1,0.3,4.2c0.2,1.1,0.5,2,0.8,2.7c0.4,0.7,0.8,1.1,1.3,1.4c0.5,0.3,1,0.4,1.5,0.4
		s1-0.1,1.5-0.4s0.9-0.8,1.3-1.4c0.4-0.7,0.6-1.6,0.8-2.7c0.2-1.1,0.3-2.5,0.3-4.2c0-1.6-0.1-3-0.3-4.1c-0.2-1.1-0.5-2-0.8-2.7
		c-0.4-0.7-0.8-1.2-1.3-1.4S67.7,10.6,67.1,10.6z"/>
	<path style="fill:#FFFFFF;" d="M97.9,26.2h-8c-0.5,0-0.9,0-1.3-0.1c-0.3-0.1-0.6-0.2-0.8-0.3s-0.3-0.4-0.4-0.7
		c-0.1-0.3-0.1-0.7-0.1-1.2V6.8c0-0.4,0.2-0.6,0.6-0.6h3.1c0.4,0,0.6,0.2,0.6,0.6v6.3H96V6.8c0-0.5,0.2-0.7,0.6-0.7h3.2
		c0.4,0,0.6,0.2,0.6,0.7V24c0,0.8-0.2,1.4-0.5,1.8C99.6,26.1,98.9,26.2,97.9,26.2z M96,16.8h-4.2v5.3c0,0.3,0.2,0.5,0.5,0.5h3.2
		c0.3,0,0.5-0.2,0.5-0.5V16.8z M113.3,35.3h-3.3c-0.2,0-0.4,0-0.5-0.1c-0.1-0.1-0.1-0.2-0.1-0.5V19.5h-2.6v14c0,0.3,0,0.4-0.1,0.5
		c-0.1,0.1-0.2,0.1-0.5,0.1h-3.1c-0.2,0-0.4,0-0.5-0.1c-0.1-0.1-0.1-0.2-0.1-0.5V5.3c0-0.2,0-0.4,0.1-0.5c0.1-0.1,0.2-0.1,0.5-0.1
		h3.1c0.2,0,0.4,0,0.5,0.1c0.1,0.1,0.1,0.2,0.1,0.5v10.5h2.6V4.7c0-0.2,0-0.4,0.1-0.5s0.2-0.1,0.5-0.1h3.2c0.2,0,0.4,0,0.5,0.1
		s0.1,0.2,0.1,0.5v30c0,0.2,0,0.4-0.1,0.5C113.7,35.2,113.6,35.3,113.3,35.3z"/>
</g>
<g>
	<path style="fill:#FFFFFF;" d="M136.4,90.6c-0.2,0-0.4,0-0.5-0.1c-0.1-0.1-0.1-0.3-0.1-0.5V71.4l-2,1.9c-0.3,0.3-0.6,0.4-0.8,0.1
		l-1.9-2.2c-0.1-0.2-0.2-0.3-0.1-0.4c0.1-0.1,0.2-0.3,0.4-0.4l5-4.7c0.2-0.2,0.5-0.3,0.8-0.3h2.1c0.5,0,0.8,0.1,0.8,0.2
		c0.1,0.1,0.1,0.4,0.1,1v23.4c0,0.2,0,0.4-0.1,0.5c-0.1,0.1-0.2,0.2-0.5,0.2H136.4z"/>
	<path style="fill:#FFFFFF;" d="M157.5,90.9c-1.5,0-2.7-0.3-3.8-0.9s-1.9-1.5-2.6-2.6c-0.7-1.1-1.2-2.5-1.5-4.1
		c-0.3-1.6-0.5-3.4-0.5-5.3c0-0.9,0-1.8,0.1-2.8c0.1-1,0.2-1.9,0.5-2.9c0.2-1,0.5-1.9,0.9-2.7c0.4-0.9,0.9-1.7,1.5-2.3
		c0.6-0.7,1.4-1.2,2.2-1.6c0.9-0.4,1.9-0.6,3.1-0.6s2.2,0.2,3.1,0.6c0.9,0.4,1.6,0.9,2.2,1.6c0.6,0.7,1.1,1.4,1.5,2.3
		s0.7,1.8,0.9,2.8c0.2,1,0.4,1.9,0.5,2.9c0.1,1,0.1,1.9,0.1,2.7c0,1.9-0.2,3.7-0.5,5.3c-0.3,1.6-0.8,2.9-1.5,4.1
		c-0.7,1.1-1.5,2-2.6,2.6S158.9,90.9,157.5,90.9z M157.5,69.3c-0.5,0-1,0.1-1.5,0.4c-0.5,0.3-0.9,0.8-1.3,1.4
		c-0.4,0.7-0.6,1.6-0.8,2.7c-0.2,1.1-0.3,2.5-0.3,4.1c0,1.7,0.1,3.1,0.3,4.2c0.2,1.1,0.5,2,0.8,2.7c0.4,0.7,0.8,1.1,1.3,1.4
		c0.5,0.3,1,0.4,1.5,0.4s1-0.1,1.5-0.4s0.9-0.8,1.3-1.4c0.4-0.7,0.6-1.6,0.8-2.7c0.2-1.1,0.3-2.5,0.3-4.2c0-1.6-0.1-3-0.3-4.1
		c-0.2-1.1-0.5-2-0.8-2.7c-0.4-0.7-0.8-1.2-1.3-1.4S158,69.3,157.5,69.3z"/>
	<path style="fill:#FFFFFF;" d="M177.1,90.9c-1.5,0-2.7-0.3-3.8-0.9s-1.9-1.5-2.6-2.6c-0.7-1.1-1.2-2.5-1.5-4.1
		c-0.3-1.6-0.5-3.4-0.5-5.3c0-0.9,0-1.8,0.1-2.8c0.1-1,0.2-1.9,0.5-2.9c0.2-1,0.5-1.9,0.9-2.7c0.4-0.9,0.9-1.7,1.5-2.3
		c0.6-0.7,1.4-1.2,2.2-1.6c0.9-0.4,1.9-0.6,3.1-0.6s2.2,0.2,3.1,0.6c0.9,0.4,1.6,0.9,2.2,1.6c0.6,0.7,1.1,1.4,1.5,2.3
		s0.7,1.8,0.9,2.8c0.2,1,0.4,1.9,0.5,2.9c0.1,1,0.1,1.9,0.1,2.7c0,1.9-0.2,3.7-0.5,5.3c-0.3,1.6-0.8,2.9-1.5,4.1
		c-0.7,1.1-1.5,2-2.6,2.6S178.6,90.9,177.1,90.9z M177.1,69.3c-0.5,0-1,0.1-1.5,0.4c-0.5,0.3-0.9,0.8-1.3,1.4
		c-0.4,0.7-0.6,1.6-0.8,2.7c-0.2,1.1-0.3,2.5-0.3,4.1c0,1.7,0.1,3.1,0.3,4.2c0.2,1.1,0.5,2,0.8,2.7c0.4,0.7,0.8,1.1,1.3,1.4
		c0.5,0.3,1,0.4,1.5,0.4s1-0.1,1.5-0.4s0.9-0.8,1.3-1.4c0.4-0.7,0.6-1.6,0.8-2.7c0.2-1.1,0.3-2.5,0.3-4.2c0-1.6-0.1-3-0.3-4.1
		c-0.2-1.1-0.5-2-0.8-2.7c-0.4-0.7-0.8-1.2-1.3-1.4S177.7,69.3,177.1,69.3z"/>
	<path style="fill:#FFFFFF;" d="M207.9,84.9h-8c-0.5,0-0.9,0-1.3-0.1c-0.3-0.1-0.6-0.2-0.8-0.3c-0.2-0.2-0.3-0.4-0.4-0.7
		c-0.1-0.3-0.1-0.7-0.1-1.2V65.5c0-0.4,0.2-0.6,0.6-0.6h3.2c0.4,0,0.6,0.2,0.6,0.6v6.3h4.2v-6.3c0-0.5,0.2-0.7,0.6-0.7h3.1
		c0.4,0,0.6,0.2,0.6,0.7v17.2c0,0.8-0.2,1.4-0.5,1.8C209.6,84.8,208.9,84.9,207.9,84.9z M206,75.5h-4.2v5.3c0,0.3,0.2,0.5,0.5,0.5
		h3.2c0.3,0,0.5-0.2,0.5-0.5V75.5z M223.4,94h-3.3c-0.2,0-0.4,0-0.5-0.1c-0.1-0.1-0.1-0.2-0.1-0.5V78.2h-2.6v14c0,0.3,0,0.4-0.1,0.5
		c-0.1,0.1-0.2,0.1-0.5,0.1h-3.1c-0.2,0-0.4,0-0.5-0.1c-0.1-0.1-0.1-0.2-0.1-0.5V64c0-0.2,0-0.4,0.1-0.5c0.1-0.1,0.2-0.1,0.5-0.1
		h3.1c0.2,0,0.4,0,0.5,0.1c0.1,0.1,0.1,0.2,0.1,0.5v10.5h2.6V63.4c0-0.2,0-0.4,0.1-0.5c0.1-0.1,0.2-0.1,0.5-0.1h3.2
		c0.2,0,0.4,0,0.5,0.1c0.1,0.1,0.1,0.2,0.1,0.5v30c0,0.2,0,0.4-0.1,0.5C223.7,93.9,223.6,94,223.4,94z"/>
</g>
<g>
	<path style="fill:#FFFFFF;" d="M238.5,149.3c-0.2,0-0.4,0-0.5-0.1c-0.1-0.1-0.1-0.3-0.1-0.5v-18.5l-2,1.9c-0.3,0.3-0.6,0.4-0.8,0.1
		l-1.9-2.2c-0.1-0.2-0.2-0.3-0.1-0.4c0.1-0.1,0.2-0.3,0.4-0.4l5-4.7c0.2-0.2,0.5-0.3,0.8-0.3h2.1c0.5,0,0.8,0.1,0.8,0.2
		c0.1,0.1,0.1,0.4,0.1,1v23.4c0,0.2,0,0.4-0.1,0.5c-0.1,0.1-0.2,0.2-0.5,0.2H238.5z"/>
	<path style="fill:#FFFFFF;" d="M259.5,149.6c-1.5,0-2.7-0.3-3.8-0.9s-1.9-1.5-2.6-2.6c-0.7-1.1-1.2-2.5-1.5-4.1
		c-0.3-1.6-0.5-3.4-0.5-5.3c0-0.9,0-1.8,0.1-2.8c0.1-1,0.2-1.9,0.5-2.9c0.2-1,0.5-1.9,0.9-2.7c0.4-0.9,0.9-1.7,1.5-2.3
		c0.6-0.7,1.4-1.2,2.2-1.6c0.9-0.4,1.9-0.6,3.1-0.6s2.2,0.2,3.1,0.6c0.9,0.4,1.6,0.9,2.2,1.6c0.6,0.7,1.1,1.4,1.5,2.3
		s0.7,1.8,0.9,2.8c0.2,1,0.4,1.9,0.5,2.9c0.1,1,0.1,1.9,0.1,2.7c0,1.9-0.2,3.7-0.5,5.3c-0.3,1.6-0.8,2.9-1.5,4.1
		c-0.7,1.1-1.5,2-2.6,2.6S261,149.6,259.5,149.6z M259.5,128c-0.5,0-1,0.1-1.5,0.4c-0.5,0.3-0.9,0.8-1.3,1.4
		c-0.4,0.7-0.6,1.6-0.8,2.7c-0.2,1.1-0.3,2.5-0.3,4.1c0,1.7,0.1,3.1,0.3,4.2c0.2,1.1,0.5,2,0.8,2.7c0.4,0.7,0.8,1.1,1.3,1.4
		c0.5,0.3,1,0.4,1.5,0.4s1-0.1,1.5-0.4s0.9-0.8,1.3-1.4c0.4-0.7,0.6-1.6,0.8-2.7c0.2-1.1,0.3-2.5,0.3-4.2c0-1.6-0.1-3-0.3-4.1
		c-0.2-1.1-0.5-2-0.8-2.7c-0.4-0.7-0.8-1.2-1.3-1.4S260.1,128,259.5,128z"/>
	<path style="fill:#FFFFFF;" d="M279.2,149.6c-1.5,0-2.7-0.3-3.8-0.9s-1.9-1.5-2.6-2.6c-0.7-1.1-1.2-2.5-1.5-4.1
		c-0.3-1.6-0.5-3.4-0.5-5.3c0-0.9,0-1.8,0.1-2.8c0.1-1,0.2-1.9,0.5-2.9c0.2-1,0.5-1.9,0.9-2.7c0.4-0.9,0.9-1.7,1.5-2.3
		c0.6-0.7,1.4-1.2,2.2-1.6c0.9-0.4,1.9-0.6,3.1-0.6s2.2,0.2,3.1,0.6c0.9,0.4,1.6,0.9,2.2,1.6c0.6,0.7,1.1,1.4,1.5,2.3
		s0.7,1.8,0.9,2.8c0.2,1,0.4,1.9,0.5,2.9c0.1,1,0.1,1.9,0.1,2.7c0,1.9-0.2,3.7-0.5,5.3c-0.3,1.6-0.8,2.9-1.5,4.1
		c-0.7,1.1-1.5,2-2.6,2.6S280.7,149.6,279.2,149.6z M279.2,128c-0.5,0-1,0.1-1.5,0.4c-0.5,0.3-0.9,0.8-1.3,1.4
		c-0.4,0.7-0.6,1.6-0.8,2.7c-0.2,1.1-0.3,2.5-0.3,4.1c0,1.7,0.1,3.1,0.3,4.2c0.2,1.1,0.5,2,0.8,2.7c0.4,0.7,0.8,1.1,1.3,1.4
		c0.5,0.3,1,0.4,1.5,0.4s1-0.1,1.5-0.4s0.9-0.8,1.3-1.4c0.4-0.7,0.6-1.6,0.8-2.7c0.2-1.1,0.3-2.5,0.3-4.2c0-1.6-0.1-3-0.3-4.1
		c-0.2-1.1-0.5-2-0.8-2.7c-0.4-0.7-0.8-1.2-1.3-1.4S279.8,128,279.2,128z"/>
	<path style="fill:#FFFFFF;" d="M298.9,149.6c-1.5,0-2.7-0.3-3.8-0.9c-1.1-0.6-1.9-1.5-2.6-2.6c-0.7-1.1-1.2-2.5-1.5-4.1
		c-0.3-1.6-0.5-3.4-0.5-5.3c0-0.9,0-1.8,0.1-2.8c0.1-1,0.2-1.9,0.5-2.9c0.2-1,0.5-1.9,0.9-2.7s0.9-1.7,1.5-2.3
		c0.6-0.7,1.4-1.2,2.2-1.6c0.9-0.4,1.9-0.6,3.1-0.6s2.2,0.2,3.1,0.6c0.9,0.4,1.6,0.9,2.2,1.6c0.6,0.7,1.1,1.4,1.5,2.3
		s0.7,1.8,0.9,2.8c0.2,1,0.4,1.9,0.5,2.9c0.1,1,0.1,1.9,0.1,2.7c0,1.9-0.2,3.7-0.5,5.3c-0.3,1.6-0.8,2.9-1.5,4.1
		c-0.7,1.1-1.5,2-2.6,2.6S300.3,149.6,298.9,149.6z M298.9,128c-0.5,0-1.1,0.1-1.5,0.4c-0.5,0.3-0.9,0.8-1.3,1.4s-0.6,1.6-0.8,2.7
		s-0.3,2.5-0.3,4.1c0,1.7,0.1,3.1,0.3,4.2c0.2,1.1,0.5,2,0.8,2.7s0.8,1.1,1.3,1.4c0.5,0.3,1,0.4,1.5,0.4s1-0.1,1.5-0.4
		c0.5-0.3,0.9-0.8,1.3-1.4s0.6-1.6,0.8-2.7c0.2-1.1,0.3-2.5,0.3-4.2c0-1.6-0.1-3-0.3-4.1c-0.2-1.1-0.5-2-0.8-2.7s-0.8-1.2-1.3-1.4
		C299.9,128.2,299.4,128,298.9,128z"/>
	<path style="fill:#FFFFFF;" d="M329.7,143.6h-8c-0.5,0-0.9,0-1.3-0.1c-0.3-0.1-0.6-0.2-0.8-0.3c-0.2-0.2-0.3-0.4-0.4-0.7
		c-0.1-0.3-0.1-0.7-0.1-1.2v-17.1c0-0.4,0.2-0.6,0.6-0.6h3.2c0.4,0,0.6,0.2,0.6,0.6v6.3h4.2v-6.3c0-0.5,0.2-0.7,0.6-0.7h3.1
		c0.4,0,0.6,0.2,0.6,0.7v17.2c0,0.8-0.2,1.4-0.5,1.8C331.3,143.5,330.7,143.6,329.7,143.6z M327.8,134.2h-4.2v5.3
		c0,0.3,0.2,0.5,0.5,0.5h3.2c0.3,0,0.5-0.2,0.5-0.5V134.2z M345.1,152.7h-3.3c-0.2,0-0.4,0-0.5-0.1c-0.1-0.1-0.1-0.2-0.1-0.5v-15.2
		h-2.6v14c0,0.3,0,0.4-0.1,0.5c-0.1,0.1-0.2,0.1-0.5,0.1H335c-0.2,0-0.4,0-0.5-0.1c-0.1-0.1-0.1-0.2-0.1-0.5v-28.2
		c0-0.2,0-0.4,0.1-0.5c0.1-0.1,0.2-0.1,0.5-0.1h3.1c0.2,0,0.4,0,0.5,0.1c0.1,0.1,0.1,0.2,0.1,0.5v10.5h2.6v-11.1
		c0-0.2,0-0.4,0.1-0.5c0.1-0.1,0.2-0.1,0.5-0.1h3.2c0.2,0,0.4,0,0.5,0.1c0.1,0.1,0.1,0.2,0.1,0.5v30c0,0.2,0,0.4-0.1,0.5
		C345.5,152.6,345.3,152.7,345.1,152.7z"/>
</g>
<g>
</g>
<g>
</g>
<g>
</g>
<g>
</g>
<g>
</g>
<g>
</g>
<g>
</g>
<g>
</g>
<g>
</g>
<g>
</g>
<g>
</g>
<g>
</g>
<g>
</g>
<g>
</g>
<g>
</g>
</svg>
