
<svg xmlns="http://www.w3.org/2000/svg" version="1.1" xmlns:xlink="http://www.w3.org/1999/xlink" preserveAspectRatio="none" x="0px" y="0px" width="1280px" height="490px" viewBox="0 0 1280 490">
<defs>
<g id="Symbol_1_copy_2_0_Layer2_0_FILL">
<path fill="#FFFFFF" stroke="none" d="
M -120.45 -85.4
L -120.45 -94.6 -120.45 -99.2 -191.35 -99.2 -191.35 99.25 191.35 99.25 191.35 70.9 -120.45 70.9 -120.45 66.3 -120.45 61.7 -120.45 57.1 -120.45 52.5 -120.45 43.3 -120.45 38.7 -120.45 34.1 -120.45 29.5 -120.45 20.3 -120.45 15.7 -120.45 11.1 -120.45 6.55 -120.45 -2.65 -120.45 -7.25 -120.45 -11.85 -120.45 -16.45 -120.45 -25.65 -120.45 -30.25 -120.45 -34.85 -120.45 -39.45 -120.45 -48.65 -120.45 -53.25 -120.45 -57.85 -120.45 -62.45 -120.45 -71.6 -120.45 -76.2 -120.45 -80.8 -120.45 -85.4 Z"/>
</g>

<g id="Symbol_1_copy_2_0_Layer1_0_FILL">
<path fill="#1E1E1E" stroke="none" d="
M 185.15 86
L 185.1 86.05
Q 185.1 86.1 185.1 86.15 185.1 86.2 185.1 86.25 185.15 86.3 185.15 86.35 185.2 86.45 185.2 86.5 185.25 86.55 185.3 86.6 185.3 86.7 185.4 86.85 185.45 86.95 185.5 87.1 185.6 87.25 185.65 87.4 185.7 87.5 185.75 87.65 185.8 87.8 185.85 87.95 185.9 88.05 185.95 88.2 186 88.35 186.05 88.45 186.1 88.6 186.1 88.7 186.15 88.9 186.2 89.15 186.25 89.35 186.25 89.55 186.25 89.8 186.25 90 186.3 90.2 186.3 90.4 186.3 90.5 186.3 90.65 186.25 90.75 186.25 90.9 186.25 91.05 186.25 91.15 186.25 91.3 186.2 91.45 186.2 91.6 186.2 91.7 186.15 91.85 186.15 92 186.15 92.15 186.1 92.25 186.1 92.4 186.05 92.5 185.95 92.95 185.8 93.35 185.7 93.6 185.6 93.8 185.5 94.05 185.35 94.3 185.3 94.35 185.3 94.4 185.25 94.45 185.2 94.5 185.2 94.55 185.15 94.6 185.15 94.65 185.15 94.7 185.1 94.8 185.2 94.9 185.25 94.95 185.3 94.95 185.4 95 185.5 95 185.6 95.05 185.65 95 185.75 95 185.85 94.9 185.9 94.85 185.95 94.8 186 94.7 186.05 94.65 186.2 94.4 186.4 94 186.6 93.65 186.8 93.2 186.95 92.95 187.05 92.6 187.05 92.45 187.1 92.25 187.15 92.1 187.25 91.9 187.25 91.7 187.3 91.5 187.3 91.35 187.35 91.15 187.35 90.95 187.35 90.75 187.35 90.6 187.35 90.4 187.35 90.05 187.35 89.75 187.3 89.4 187.25 89.1 187.2 88.8 187.1 88.5 187 88.25 186.9 87.95 186.85 87.85 186.8 87.75 186.75 87.6 186.65 87.45 186.6 87.35 186.55 87.25 186.5 87.1 186.45 87 186.35 86.85 186.3 86.75 186.2 86.65 186.15 86.55 186.1 86.4 186.05 86.35 186 86.25 186 86.2 185.9 86.15 185.85 86.05 185.8 86 185.75 85.95 185.7 85.9 185.6 85.85 185.5 85.85 185.4 85.85 185.25 85.9 185.15 86
M 178.45 91.8
Q 178.4 91.9 178.4 92
L 178.4 94.1
Q 178.4 94.3 178.45 94.45 178.55 94.6 178.7 94.75 178.85 94.85 179 94.9 179.2 94.95 179.4 94.95
L 183.55 94.95
Q 183.6 94.95 183.7 94.9 183.8 94.9 183.85 94.8 183.9 94.75 183.95 94.65 183.95 94.55 183.95 94.45 183.95 94.3 183.95 94.25 183.9 94.15 183.85 94.1 183.8 94 183.7 93.95 183.6 93.9 183.55 93.9
L 180.2 93.9
Q 180.05 93.9 179.9 93.9 179.75 93.9 179.6 93.85
L 179.6 92
Q 179.6 91.95 179.6 91.9 179.55 91.85 179.55 91.8
L 179.5 91.75
Q 179.45 91.7 179.4 91.65 179.35 91.65 179.3 91.65 179.25 91.6 179.2 91.6 179.15 91.6 179.1 91.6 179.05 91.6 179 91.6 178.9 91.6 178.8 91.6 178.7 91.65 178.6 91.7 178.5 91.75 178.45 91.8
M 181.15 86.6
Q 181 86.6 180.9 86.6 180.8 86.65 180.8 86.7 180.75 86.75 180.75 86.8 180.7 86.9 180.7 87.05 180.7 87.15 180.75 87.2 180.75 87.3 180.8 87.35 180.8 87.4 180.9 87.45 181 87.45 181.15 87.45
L 182.9 87.45 182.9 87.95 181.15 87.95
Q 181.05 87.95 180.95 88 180.85 88.05 180.85 88.1 180.8 88.2 180.75 88.25 180.75 88.35 180.75 88.45 180.75 88.55 180.75 88.65 180.8 88.75 180.85 88.8 180.85 88.85 180.95 88.9 181.05 88.9 181.15 88.9
L 182.9 88.9 182.9 91.8
Q 182.9 91.95 182.95 92.05 182.95 92.15 183.05 92.15 183.15 92.2 183.25 92.25 183.35 92.25 183.45 92.25 183.55 92.25 183.65 92.25 183.75 92.2 183.85 92.15 183.9 92.15 183.95 92.05 184 91.95 184 91.8
L 184 86.4
Q 184 86.3 183.95 86.2 183.9 86.1 183.85 86 183.75 85.95 183.65 85.9 183.55 85.9 183.45 85.9 183.35 85.9 183.25 85.9 183.15 85.95 183.05 86 182.95 86.1 182.95 86.2 182.9 86.3 182.9 86.4
L 182.9 86.6 181.15 86.6
M 177.4 86.25
Q 177.3 86.25 177.2 86.3 177.1 86.35 177.05 86.45 177 86.55 177 86.7
L 177 89.6
Q 177 89.8 177.05 89.9 177.1 90.05 177.15 90.15 177.2 90.25 177.3 90.35 177.35 90.45 177.4 90.5 177.5 90.55 177.6 90.6 177.7 90.6 177.8 90.65 177.9 90.65 178 90.65 178.1 90.65 178.2 90.65
L 178.25 90.65
Q 178.7 90.65 179.1 90.6 179.5 90.6 179.9 90.55 180.7 90.5 181.4 90.4 181.55 90.4 181.6 90.35 181.7 90.3 181.75 90.2 181.8 90.15 181.85 90.05 181.9 90 181.9 89.9 181.9 89.8 181.85 89.7 181.8 89.6 181.75 89.5 181.7 89.45 181.65 89.4 181.55 89.35 181.45 89.35
L 181.25 89.35
Q 180.95 89.4 180.55 89.45 180.2 89.5 179.85 89.55 179.45 89.6 179.1 89.6 178.7 89.6 178.3 89.6 178.25 89.5 178.25 89.4 178.25 89.25 178.25 89.1
L 178.25 86.65
Q 178.2 86.55 178.2 86.5
L 178.15 86.45
Q 178.1 86.4 178.05 86.35
L 177.95 86.3
Q 177.9 86.3 177.9 86.25 177.85 86.25 177.8 86.2 177.75 86.2 177.7 86.2 177.65 86.2 177.6 86.2 177.5 86.2 177.4 86.25
M 174.65 86.35
Q 174.6 86.4 174.55 86.55 174.45 86.65 174.4 86.75 174.35 86.85 174.3 87 174.25 87.1 174.15 87.25 174.1 87.35 174.05 87.45 173.95 87.6 173.9 87.75 173.85 87.85 173.85 87.95 173.7 88.25 173.6 88.5 173.5 88.8 173.45 89.1 173.4 89.4 173.35 89.75 173.35 90.05 173.35 90.4 173.35 90.6 173.35 90.75 173.35 90.95 173.4 91.15 173.4 91.55 173.5 91.9 173.5 92.1 173.55 92.25 173.6 92.45 173.65 92.6 173.8 92.95 173.9 93.2 174 93.45 174.15 93.65 174.25 93.85 174.35 94 174.45 94.2 174.5 94.35 174.6 94.5 174.7 94.65 174.7 94.7 174.75 94.8 174.8 94.85 174.9 94.9 174.95 95 175.05 95 175.15 95.05 175.2 95 175.35 95 175.4 94.95 175.5 94.95 175.5 94.9 175.55 94.85 175.55 94.8 175.55 94.75 175.55 94.7 175.55 94.65 175.55 94.6 175.5 94.55 175.5 94.5 175.45 94.45 175.45 94.4 175.4 94.35 175.35 94.3 175.25 94.05 175.1 93.8 175 93.6 174.95 93.35 174.85 93.15 174.8 92.95 174.7 92.7 174.65 92.5 174.65 92.4 174.6 92.25 174.6 92.15 174.55 92 174.55 91.85 174.5 91.7 174.5 91.6 174.5 91.45 174.45 91.3 174.45 91.15 174.4 91.05 174.4 90.9 174.4 90.75 174.4 90.65 174.4 90.5 174.4 90.4 174.4 90.2 174.4 90 174.4 89.8 174.45 89.55 174.45 89.35 174.5 89.15 174.55 88.9 174.6 88.7 174.65 88.6 174.65 88.45 174.7 88.35 174.75 88.2 174.8 87.95 174.95 87.65 175 87.5 175.05 87.4 175.15 87.25 175.2 87.1 175.25 86.95 175.3 86.85 175.4 86.7 175.45 86.6 175.5 86.55 175.5 86.5 175.55 86.45 175.55 86.35 175.55 86.3 175.6 86.25 175.6 86.2 175.6 86.15 175.6 86.1 175.6 86.05 175.6 86 175.55 86 175.5 85.95 175.45 85.9 175.35 85.9 175.25 85.85 175.2 85.85 175.1 85.85 175.05 85.9 174.95 85.95 174.9 86 174.85 86.05 174.75 86.15 174.75 86.2 174.7 86.25 174.65 86.35
M -172.05 79.4
Q -172.05 79.2 -172.1 79.05 -172.15 78.9 -172.3 78.8 -172.55 78.6 -172.9 78.6
L -176.65 78.6
Q -176.85 78.6 -177 78.65 -177.15 78.7 -177.25 78.8 -177.4 78.9 -177.45 79.05 -177.5 79.2 -177.5 79.4
L -177.5 81.5
Q -177.5 81.7 -177.45 81.8 -177.4 81.95 -177.25 82.05 -177.15 82.1 -177 82.15 -176.85 82.2 -176.65 82.2
L -172.9 82.2
Q -172.7 82.2 -172.55 82.15 -172.4 82.1 -172.3 82.05 -172.15 81.95 -172.1 81.8 -172.05 81.7 -172.05 81.5
L -172.05 79.4
M -176.15 79.7
Q -176.1 79.7 -176.05 79.7
L -173.55 79.7
Q -173.5 79.7 -173.45 79.7 -173.4 79.7 -173.35 79.75 -173.3 79.8 -173.25 79.85 -173.25 79.9 -173.25 80
L -173.25 80.85
Q -173.25 80.95 -173.25 81 -173.3 81.05 -173.35 81.05 -173.4 81.1 -173.45 81.1 -173.5 81.15 -173.55 81.15
L -176.05 81.15
Q -176.1 81.15 -176.15 81.1 -176.2 81.1 -176.2 81.05 -176.25 81.05 -176.3 81 -176.3 80.95 -176.3 80.85
L -176.3 80
Q -176.3 79.9 -176.3 79.85 -176.25 79.8 -176.2 79.75 -176.2 79.7 -176.15 79.7
M -186.55 79.05
Q -186.7 79.05 -186.75 79.05 -186.85 79.1 -186.9 79.2 -186.95 79.3 -186.95 79.35 -187 79.45 -187 79.55 -187 79.7 -186.95 79.75 -186.95 79.85 -186.9 79.95 -186.85 80 -186.75 80.05 -186.7 80.1 -186.55 80.1
L -183.25 80.1
Q -183.2 80.1 -183.15 80.1 -183.05 80.1 -183 80.1 -182.85 80.1 -182.7 80.1
L -182.7 82.15
Q -182.7 82.2 -182.7 82.25 -182.7 82.3 -182.65 82.35
L -182.6 82.4
Q -182.6 82.45 -182.55 82.45 -182.45 82.5 -182.4 82.5 -182.35 82.55 -182.3 82.55 -182.2 82.6 -182.15 82.6 -182 82.6 -181.9 82.55 -181.8 82.5 -181.7 82.45 -181.65 82.4 -181.6 82.35 -181.55 82.25 -181.55 82.15
L -181.55 79.9
Q -181.55 79.75 -181.6 79.6 -181.65 79.45 -181.7 79.3 -181.8 79.15 -181.95 79.1 -182.05 79.05 -182.25 79.05
L -186.55 79.05
M -182.4 74.75
Q -182.45 74.7 -182.55 74.7 -182.65 74.65 -182.7 74.65 -182.85 74.65 -182.95 74.7 -183.05 74.7 -183.1 74.75 -183.2 74.8 -183.25 74.85 -183.25 74.95 -183.25 75.05 -183.3 75.15 -183.3 75.2 -183.3 75.25 -183.3 75.3 -183.3 75.35 -183.3 75.4
L -183.3 75.45
Q -183.3 75.5 -183.3 75.55
L -183.3 75.6
Q -183.3 75.65 -183.3 75.7 -183.35 75.75 -183.35 75.85
L -185.05 75.85
Q -185.05 75.75 -185.05 75.7
L -185.05 75.6
Q -185.05 75.55 -185.05 75.5
L -185.05 75.4
Q -185.05 75.35 -185.05 75.3
L -185.05 75.2
Q -185.05 75.15 -185.05 75.05 -185.1 74.95 -185.15 74.85 -185.2 74.8 -185.25 74.75 -185.35 74.7 -185.45 74.7 -185.5 74.65 -185.6 74.65 -185.7 74.65 -185.8 74.7 -185.9 74.7 -185.95 74.75 -186.05 74.8 -186.1 74.85 -186.15 74.95 -186.15 75.1 -186.15 75.15 -186.15 75.2 -186.15 75.25 -186.15 75.3 -186.15 75.35 -186.15 75.4 -186.15 75.45 -186.1 75.45 -186.1 75.5 -186.1 75.55
L -186.1 75.6
Q -186.1 75.65 -186.1 75.7 -186.1 75.8 -186.1 75.85
L -187 75.85
Q -187.15 75.85 -187.25 75.85 -187.3 75.9 -187.35 75.95 -187.45 76.05 -187.45 76.3 -187.45 76.55 -187.35 76.7 -187.3 76.75 -187.25 76.8 -187.15 76.85 -187 76.85
L -184.75 76.85 -184.75 77.45 -188.2 77.45
Q -188.35 77.45 -188.4 77.5 -188.5 77.5 -188.55 77.6 -188.6 77.7 -188.6 77.8 -188.6 77.85 -188.6 78 -188.6 78.1 -188.6 78.2 -188.6 78.3 -188.55 78.35 -188.5 78.45 -188.4 78.45 -188.35 78.5 -188.2 78.5
L -180.15 78.5
Q -180 78.5 -179.9 78.45 -179.85 78.45 -179.8 78.35 -179.75 78.3 -179.75 78.2 -179.75 78.1 -179.75 78 -179.75 77.85 -179.75 77.8 -179.75 77.7 -179.8 77.6 -179.85 77.45 -180.15 77.45
L -183.55 77.45 -183.55 76.85 -181.35 76.85
Q -181.2 76.85 -181.1 76.8 -181 76.75 -181 76.7 -180.95 76.6 -180.9 76.5 -180.9 76.4 -180.9 76.3 -180.9 76.15 -180.9 76.1 -180.95 76 -181 75.95 -181 75.9 -181.1 75.85 -181.2 75.85 -181.35 75.85
L -182.2 75.85
Q -182.2 75.75 -182.2 75.65 -182.2 75.6 -182.2 75.5 -182.2 75.4 -182.2 75.35 -182.2 75.25 -182.2 75.2
L -182.2 75.1
Q -182.2 74.95 -182.25 74.9 -182.3 74.8 -182.4 74.75
M -167.4 73.9
Q -167.6 74 -167.7 74.15 -167.9 74.25 -168 74.45 -168.1 74.6 -168.2 74.8 -168.3 75 -168.35 75.25 -168.35 75.45 -168.35 75.7 -168.35 75.95 -168.35 76.15 -168.3 76.4 -168.2 76.55 -168.1 76.75 -168 76.95 -167.9 77.1 -167.7 77.25 -167.6 77.4 -167.4 77.5 -167.25 77.6 -167 77.65 -166.8 77.7 -166.55 77.75 -166.3 77.8 -166 77.8 -165.75 77.8 -165.5 77.75 -165.25 77.7 -165.05 77.65 -164.85 77.6 -164.65 77.5 -164.45 77.4 -164.3 77.25 -164.15 77.1 -164.05 76.95 -163.95 76.75 -163.85 76.55 -163.8 76.4 -163.75 76.15 -163.7 75.95 -163.7 75.7 -163.7 75.45 -163.75 75.25 -163.8 75 -163.85 74.8 -163.95 74.6 -164.05 74.45 -164.15 74.25 -164.3 74.15 -164.45 74 -164.65 73.9 -164.85 73.8 -165.05 73.7 -165.25 73.65 -165.5 73.6 -165.75 73.55 -166 73.55 -166.3 73.55 -166.55 73.6 -166.8 73.65 -167 73.7 -167.25 73.8 -167.4 73.9
M -164.85 75.25
Q -164.75 75.45 -164.75 75.7 -164.75 75.95 -164.85 76.15 -164.95 76.35 -165.1 76.45 -165.3 76.6 -165.5 76.7 -165.75 76.75 -166 76.75 -166.3 76.75 -166.55 76.7 -166.8 76.6 -166.95 76.45 -167.1 76.35 -167.2 76.15 -167.25 75.95 -167.25 75.7 -167.25 75.45 -167.2 75.25 -167.1 75.05 -166.95 74.9 -166.8 74.75 -166.55 74.7 -166.3 74.6 -166 74.6 -165.75 74.6 -165.5 74.7 -165.3 74.75 -165.1 74.9 -164.95 75.05 -164.85 75.25
M -181.15 74.15
Q -181.15 74.05 -181.15 73.95 -181.15 73.8 -181.15 73.7 -181.2 73.6 -181.25 73.55 -181.3 73.5 -181.4 73.5 -181.45 73.45 -181.55 73.45
L -186.75 73.45
Q -186.9 73.45 -186.95 73.5 -187.05 73.5 -187.1 73.55 -187.15 73.6 -187.2 73.7 -187.2 73.8 -187.2 73.95 -187.2 74.05 -187.2 74.15 -187.15 74.25 -187.1 74.3 -187 74.4 -186.75 74.4
L -181.55 74.4
Q -181.35 74.4 -181.25 74.3 -181.2 74.25 -181.15 74.15
M -177.5 73.6
Q -177.75 73.65 -177.95 73.7 -178.2 73.8 -178.35 73.9 -178.55 74 -178.65 74.15 -178.85 74.3 -178.95 74.5 -179.05 74.65 -179.15 74.85 -179.35 75.25 -179.35 75.8 -179.35 76.05 -179.3 76.25 -179.25 76.5 -179.15 76.7 -179.05 76.9 -178.95 77.1 -178.85 77.25 -178.65 77.4 -178.55 77.55 -178.35 77.65 -178.2 77.75 -177.95 77.85 -177.75 77.9 -177.5 77.95 -177.25 78 -176.95 78 -176.7 78 -176.45 77.95 -176.25 77.9 -176 77.85 -175.8 77.75 -175.6 77.65 -175.4 77.55 -175.25 77.4 -175.2 77.35 -175.1 77.25 -175.05 77.15 -175 77.1
L -173 77.1 -173 77.8
Q -173 77.95 -173 78.05 -172.95 78.1 -172.85 78.15 -172.8 78.2 -172.7 78.2 -172.6 78.25 -172.45 78.25 -172.35 78.25 -172.25 78.2 -172.15 78.2 -172.05 78.15 -172 78.1 -171.95 78.05 -171.9 77.95 -171.9 77.8
L -171.9 73.65
Q -171.9 73.5 -171.95 73.45 -172 73.35 -172.05 73.3 -172.15 73.25 -172.25 73.25 -172.35 73.25 -172.45 73.25 -172.6 73.25 -172.7 73.25 -172.8 73.25 -172.85 73.3 -172.95 73.35 -173 73.45 -173 73.5 -173 73.65
L -173 74.4 -175.05 74.4
Q -175.1 74.3 -175.15 74.25 -175.2 74.2 -175.25 74.15 -175.4 74 -175.6 73.9 -175.8 73.8 -176 73.7 -176.25 73.65 -176.45 73.6 -176.7 73.55 -176.95 73.55 -177.25 73.55 -177.5 73.6
M -173 76.1
L -174.65 76.1
Q -174.65 76 -174.65 75.95 -174.65 75.85 -174.65 75.8 -174.65 75.7 -174.65 75.6 -174.65 75.5 -174.7 75.35
L -173 75.35 -173 76.1
M -176.95 74.6
Q -176.7 74.6 -176.45 74.7 -176.25 74.75 -176.05 74.9 -175.9 75.05 -175.8 75.3 -175.7 75.5 -175.7 75.8 -175.7 76.05 -175.8 76.25 -175.9 76.45 -176.05 76.6 -176.25 76.8 -176.45 76.85 -176.7 76.95 -176.95 76.95 -177.25 76.95 -177.5 76.85 -177.7 76.8 -177.9 76.6 -178.2 76.3 -178.2 75.8 -178.2 75.5 -178.15 75.3 -178.05 75.05 -177.9 74.9 -177.55 74.6 -176.95 74.6
M -138.6 91.85
Q -138.65 91.9 -138.65 92
L -138.65 94.15
Q -138.65 94.4 -138.55 94.55 -138.5 94.7 -138.35 94.8 -138.25 94.9 -138.05 94.95 -137.9 95 -137.7 95
L -133.55 95
Q -133.45 95 -133.35 94.95 -133.3 94.9 -133.2 94.85 -133.15 94.75 -133.15 94.65 -133.1 94.55 -133.1 94.45 -133.1 94.25 -133.2 94.1 -133.3 94 -133.35 94 -133.45 93.95 -133.55 93.95
L -136.9 93.95
Q -137.05 93.95 -137.2 93.95 -137.3 93.9 -137.45 93.9
L -137.45 92
Q -137.45 91.95 -137.45 91.9
L -137.5 91.85
Q -137.55 91.8 -137.6 91.75
L -137.65 91.7
Q -137.7 91.65 -137.75 91.65 -137.8 91.65 -137.9 91.6 -137.95 91.6 -138 91.6 -138.05 91.6 -138.1 91.6 -138.2 91.6 -138.3 91.6 -138.4 91.65 -138.45 91.7 -138.55 91.75 -138.6 91.85
M -131.95 92.75
Q -132.05 92.75 -132.15 92.8 -132.25 92.8 -132.25 92.9 -132.3 92.95 -132.3 93.05 -132.35 93.15 -132.35 93.3 -132.35 93.4 -132.3 93.45 -132.3 93.55 -132.25 93.65 -132.25 93.7 -132.15 93.75 -132.05 93.8 -131.95 93.8
L -124 93.8
Q -123.85 93.8 -123.75 93.75 -123.7 93.7 -123.65 93.65 -123.6 93.55 -123.6 93.45 -123.55 93.4 -123.55 93.3 -123.55 93.15 -123.6 93.05 -123.6 92.95 -123.65 92.9 -123.7 92.8 -123.75 92.8 -123.85 92.75 -124 92.75
L -127.3 92.75 -127.3 91
Q -127.3 90.95 -127.3 90.9
L -127.3 90.85 -125.4 90.85
Q -125.3 90.85 -125.2 90.8 -125.15 90.75 -125.05 90.7 -125 90.6 -125 90.55 -124.95 90.45 -124.95 90.35 -124.95 90.1 -125.05 89.95 -125.15 89.9 -125.2 89.85 -125.3 89.8 -125.4 89.8
L -129 89.8
Q -129.2 89.8 -129.35 89.8 -129.4 89.8 -129.5 89.8 -129.6 89.8 -129.65 89.8 -129.7 89.7 -129.7 89.65 -129.7 89.55 -129.7 89.5 -129.7 89.4 -129.7 89.35 -129.7 89.3 -129.7 89.2
L -129.7 87.75
Q -129.55 87.7 -129.35 87.7 -129.2 87.7 -129.05 87.7
L -125.6 87.7
Q -125.45 87.7 -125.4 87.65 -125.3 87.6 -125.25 87.55 -125.15 87.4 -125.15 87.15 -125.15 87.05 -125.2 86.95 -125.2 86.85 -125.25 86.8 -125.3 86.75 -125.4 86.7 -125.45 86.65 -125.6 86.65
L -129.8 86.65
Q -130.05 86.65 -130.25 86.7 -130.45 86.75 -130.6 86.85 -130.75 86.95 -130.8 87.1 -130.9 87.3 -130.9 87.55
L -130.9 89.95
Q -130.9 90.1 -130.85 90.2 -130.85 90.35 -130.8 90.4 -130.7 90.6 -130.6 90.7 -130.5 90.75 -130.4 90.75 -130.3 90.8 -130.2 90.8 -130.05 90.85 -129.95 90.85 -129.85 90.85 -129.7 90.85
L -128.45 90.85 -128.5 90.9
Q -128.5 90.95 -128.5 91
L -128.5 92.75 -131.95 92.75
M -139.15 86.4
Q -139.4 86.5 -139.55 86.6 -139.75 86.7 -139.85 86.85 -140.05 87 -140.15 87.2 -140.25 87.35 -140.35 87.55 -140.55 87.95 -140.55 88.5 -140.55 88.75 -140.5 88.95 -140.45 89.2 -140.35 89.4 -140.25 89.6 -140.15 89.8 -140.05 89.95 -139.85 90.1 -139.75 90.25 -139.55 90.35 -139.4 90.45 -139.15 90.55 -138.95 90.6 -138.7 90.65 -138.45 90.7 -138.15 90.7 -137.9 90.7 -137.65 90.65 -137.45 90.6 -137.2 90.55 -137 90.45 -136.8 90.35 -136.6 90.25 -136.45 90.1
L -136.35 90 -134.2 90 -134.2 91.7
Q -134.2 91.85 -134.2 91.95 -134.15 92 -134.05 92.05 -133.95 92.1 -133.85 92.15 -133.75 92.15 -133.6 92.15 -133.55 92.15 -133.45 92.15 -133.35 92.1 -133.25 92.05 -133.2 92 -133.15 91.9 -133.1 91.85 -133.1 91.7
L -133.1 86.4
Q -133.1 86.25 -133.15 86.15 -133.2 86.1 -133.25 86.05 -133.35 86 -133.45 85.95 -133.55 85.95 -133.65 85.95 -133.8 85.95 -133.9 85.95 -134 86 -134.05 86.05 -134.15 86.1 -134.2 86.15 -134.2 86.25 -134.2 86.4
L -134.2 87.15 -136.2 87.15
Q -136.3 87.05 -136.35 87 -136.4 86.9 -136.45 86.85 -136.6 86.7 -136.8 86.6 -137 86.5 -137.2 86.4 -137.45 86.35 -137.65 86.3 -137.9 86.25 -138.15 86.25 -138.45 86.25 -138.7 86.3 -138.95 86.35 -139.15 86.4
M -135.9 89
Q -135.9 88.9 -135.85 88.75 -135.85 88.65 -135.85 88.5 -135.85 88.4 -135.85 88.3 -135.85 88.2 -135.85 88.1
L -134.2 88.1 -134.2 89 -135.9 89
M -137.25 87.6
Q -137.1 87.75 -137 88 -136.9 88.2 -136.9 88.5 -136.9 88.75 -137 88.95 -137.1 89.15 -137.25 89.3 -137.45 89.5 -137.65 89.55 -137.9 89.65 -138.15 89.65 -138.45 89.65 -138.7 89.55 -138.9 89.5 -139.1 89.3 -139.4 89 -139.4 88.5 -139.4 88.2 -139.35 88 -139.25 87.75 -139.1 87.6 -138.75 87.3 -138.15 87.3 -137.9 87.3 -137.65 87.4 -137.45 87.45 -137.25 87.6
M -161.35 78.35
Q -161.65 78.15 -162 78.15
L -166.05 78.15
Q -166.15 78.15 -166.25 78.15 -166.35 78.2 -166.4 78.25 -166.45 78.35 -166.45 78.45 -166.5 78.55 -166.5 78.65 -166.5 78.75 -166.45 78.85 -166.45 78.9 -166.4 78.95 -166.35 79.05 -166.25 79.1 -166.15 79.1 -166.05 79.1
L -162.3 79.1 -162.3 79.75 -165.6 79.75
Q -165.75 79.75 -165.9 79.8 -166.1 79.85 -166.2 79.95 -166.35 80.1 -166.4 80.2 -166.45 80.35 -166.45 80.55
L -166.45 81.5
Q -166.45 81.6 -166.45 81.65 -166.45 81.75 -166.4 81.85 -166.35 81.9 -166.3 82 -166.25 82.05 -166.2 82.1 -166.15 82.2 -166.05 82.25 -166 82.3 -165.9 82.3 -165.85 82.35 -165.75 82.35 -165.7 82.35 -165.6 82.35
L -161.4 82.35
Q -161.3 82.35 -161.2 82.35 -161.1 82.3 -161.05 82.2 -161 82.15 -161 82.05 -160.95 81.95 -160.95 81.85 -160.95 81.65 -161.05 81.5 -161.15 81.4 -161.4 81.4
L -165.3 81.4 -165.3 80.7 -162 80.7
Q -161.8 80.7 -161.65 80.65 -161.5 80.6 -161.35 80.5 -161.2 80.4 -161.15 80.25 -161.05 80.1 -161.05 79.9
L -161.05 78.95
Q -161.05 78.75 -161.15 78.6 -161.2 78.45 -161.35 78.35
M -151.6 78.4
Q -151.7 78.35 -151.8 78.35
L -159.7 78.35
Q -159.85 78.35 -159.95 78.4 -160.05 78.45 -160.1 78.5 -160.2 78.7 -160.2 78.9 -160.2 79 -160.15 79.1 -160.15 79.2 -160.1 79.25 -160.05 79.35 -159.95 79.35 -159.85 79.4 -159.7 79.4
L -156.4 79.4 -156.4 82.2
Q -156.4 82.35 -156.35 82.45 -156.3 82.55 -156.2 82.6 -156.1 82.65 -156 82.7 -155.9 82.75 -155.8 82.75 -155.7 82.75 -155.55 82.7 -155.45 82.65 -155.35 82.6 -155.3 82.55 -155.25 82.45 -155.2 82.35 -155.2 82.2
L -155.2 79.4 -151.8 79.4
Q -151.6 79.4 -151.45 79.25 -151.35 79.1 -151.35 78.95 -151.35 78.8 -151.35 78.7 -151.4 78.6 -151.45 78.5 -151.5 78.45 -151.6 78.4
M -155.8 73.15
Q -155.85 73.15 -155.85 73.2 -155.9 73.2 -155.95 73.2 -156 73.2 -156.05 73.25 -156.1 73.25 -156.2 73.25 -156.25 73.3 -156.25 73.35 -156.3 73.35 -156.35 73.4 -156.35 73.45 -156.35 73.5 -156.4 73.55 -156.4 73.6
L -156.4 74
Q -156.4 74.25 -156.5 74.4 -156.55 74.6 -156.65 74.75 -156.8 74.95 -156.95 75.1 -157.05 75.2 -157.25 75.35 -157.4 75.45 -157.6 75.6 -157.8 75.7 -158 75.75 -158.2 75.85 -158.4 75.95 -158.6 76.05 -158.85 76.1 -158.95 76.2 -159 76.25 -159.1 76.35 -159.1 76.5 -159.1 76.6 -159.05 76.7 -159 76.8 -158.9 76.9 -158.85 77 -158.75 77.05 -158.65 77.1 -158.5 77.1 -158.45 77.1 -158.4 77.1
L -158.35 77.05
Q -157.95 76.9 -157.6 76.75 -157.2 76.55 -156.85 76.35 -156.5 76.15 -156.25 75.9 -155.95 75.65 -155.8 75.4 -155.6 75.7 -155.35 75.95 -155.1 76.2 -154.75 76.35 -154.45 76.55 -154.1 76.75 -153.7 76.9 -153.3 77.05 -153.25 77.05 -153.2 77.05 -153.15 77.1 -153.1 77.1 -153 77.1 -152.9 77.05 -152.8 77 -152.75 76.9 -152.65 76.8 -152.6 76.7 -152.6 76.6 -152.6 76.45 -152.6 76.4 -152.6 76.35 -152.6 76.3 -152.6 76.25 -152.65 76.2 -152.7 76.2 -152.75 76.15 -152.8 76.1 -153.05 76 -153.25 75.95 -153.45 75.85 -153.65 75.75 -154.05 75.55 -154.35 75.3 -154.5 75.2 -154.65 75.05 -154.75 74.95 -154.85 74.75 -155 74.6 -155.05 74.45 -155.1 74.25 -155.15 74
L -155.15 73.6
Q -155.15 73.5 -155.2 73.4 -155.2 73.35 -155.25 73.35 -155.3 73.3 -155.35 73.25 -155.4 73.25 -155.45 73.25 -155.5 73.2 -155.55 73.2 -155.6 73.2 -155.65 73.2 -155.7 73.15 -155.8 73.15
M -161.05 73.45
Q -161.05 73.4 -161.1 73.35 -161.15 73.35 -161.2 73.3 -161.3 73.25 -161.4 73.25 -161.45 73.25 -161.5 73.25 -161.55 73.25 -161.6 73.25 -161.7 73.25 -161.8 73.25 -161.9 73.25 -162 73.3 -162.1 73.35 -162.1 73.45 -162.15 73.5 -162.15 73.65
L -162.15 77.4
Q -162.15 77.7 -162 77.75 -161.9 77.8 -161.8 77.85 -161.7 77.85 -161.6 77.85 -161.5 77.85 -161.4 77.85 -161.25 77.8 -161.15 77.75 -161.05 77.7 -161 77.65 -160.95 77.55 -160.95 77.4
L -160.95 73.65
Q -160.95 73.6 -161 73.55 -161 73.5 -161.05 73.45
M -126.15 61
Q -126.45 61 -126.7 61.05 -127 61.1 -127.2 61.25 -127.45 61.4 -127.65 61.6 -127.85 61.8 -128 62 -128.15 62.25 -128.25 62.55 -128.4 62.85 -128.45 63.2 -128.55 63.55 -128.6 63.95 -128.6 64.3 -128.6 64.75 -128.6 65.15 -128.6 65.5 -128.55 65.9 -128.5 66.2 -128.4 66.55 -128.3 66.85 -128.2 67.15 -128 67.4 -127.85 67.65 -127.65 67.85 -127.45 68.05 -127.25 68.2 -127 68.35 -126.75 68.4 -126.45 68.45 -126.15 68.45 -125.85 68.45 -125.6 68.4 -125.35 68.35 -125.1 68.2 -124.85 68.05 -124.65 67.85 -124.45 67.65 -124.3 67.4 -124.15 67.15 -124 66.85 -123.9 66.55 -123.8 66.2 -123.7 65.9 -123.7 65.5 -123.65 65.15 -123.65 64.75 -123.65 64.3 -123.7 63.95 -123.7 63.6 -123.8 63.25 -123.9 62.9 -124 62.6 -124.15 62.3 -124.3 62.05 -124.5 61.8 -124.7 61.6 -124.9 61.4 -125.1 61.25 -125.35 61.15 -125.6 61.05 -125.85 61 -126.15 61
M -125.2 62.9
Q -125.1 63.05 -125.05 63.25 -125 63.5 -124.95 63.7 -124.9 63.95 -124.9 64.2 -124.85 64.45 -124.85 64.75 -124.85 65 -124.85 65.25 -124.9 65.5 -124.95 65.75 -125.05 66.2 -125.2 66.6 -125.25 66.75 -125.35 66.9 -125.45 67.05 -125.6 67.15 -125.75 67.25 -125.85 67.3 -126 67.35 -126.15 67.35 -126.3 67.35 -126.45 67.3 -126.6 67.25 -126.7 67.15 -126.95 66.95 -127.15 66.55 -127.2 66.4 -127.25 66.15 -127.3 65.95 -127.35 65.7 -127.4 65.5 -127.4 65.25 -127.4 65 -127.4 64.75 -127.4 64.45 -127.4 64.2 -127.4 63.95 -127.35 63.7 -127.3 63.45 -127.25 63.25 -127.2 63.05 -127.1 62.85 -127.05 62.7 -126.9 62.55 -126.8 62.4 -126.7 62.3 -126.55 62.25 -126.45 62.2 -126.3 62.15 -126.15 62.15 -126 62.15 -125.85 62.2 -125.75 62.25 -125.6 62.35 -125.45 62.45 -125.35 62.55 -125.25 62.7 -125.2 62.9
M -184.85 -93.3
Q -184.9 -93.2 -184.95 -93.1 -185.05 -92.95 -185.1 -92.8 -185.15 -92.7 -185.15 -92.6 -185.3 -92.3 -185.4 -92.05 -185.5 -91.75 -185.55 -91.45 -185.6 -91.15 -185.65 -90.8 -185.65 -90.5 -185.65 -90.15 -185.65 -89.95 -185.65 -89.8 -185.65 -89.6 -185.6 -89.4 -185.6 -89 -185.5 -88.65 -185.5 -88.45 -185.45 -88.3 -185.4 -88.1 -185.35 -87.95 -185.2 -87.6 -185.1 -87.35 -185 -87.1 -184.85 -86.9 -184.75 -86.7 -184.65 -86.55 -184.55 -86.35 -184.5 -86.2 -184.4 -86.05 -184.3 -85.9 -184.3 -85.85 -184.25 -85.75 -184.2 -85.7 -184.1 -85.65 -184.05 -85.55 -183.95 -85.55 -183.85 -85.5 -183.8 -85.55 -183.65 -85.55 -183.6 -85.6 -183.5 -85.6 -183.5 -85.65 -183.45 -85.7 -183.45 -85.75 -183.45 -85.8 -183.45 -85.85 -183.45 -85.9 -183.45 -85.95 -183.5 -86 -183.5 -86.05 -183.55 -86.1 -183.55 -86.15 -183.6 -86.2 -183.65 -86.25 -183.75 -86.5 -183.9 -86.75 -184 -86.95 -184.05 -87.2 -184.15 -87.4 -184.2 -87.6 -184.3 -87.85 -184.35 -88.05 -184.35 -88.15 -184.4 -88.3 -184.4 -88.4 -184.45 -88.55 -184.45 -88.7 -184.5 -88.85 -184.5 -88.95 -184.5 -89.1 -184.55 -89.25 -184.55 -89.4 -184.6 -89.5 -184.6 -89.65 -184.6 -89.8 -184.6 -89.9 -184.6 -90.05 -184.6 -90.15 -184.6 -90.35 -184.6 -90.55 -184.6 -90.75 -184.55 -91 -184.55 -91.2 -184.5 -91.4 -184.45 -91.65 -184.4 -91.85 -184.35 -91.95 -184.35 -92.1 -184.3 -92.2 -184.25 -92.35 -184.2 -92.6 -184.05 -92.9 -184 -93.05 -183.95 -93.15 -183.85 -93.3 -183.8 -93.45 -183.75 -93.6 -183.7 -93.7 -183.6 -93.85 -183.55 -93.95 -183.5 -94 -183.5 -94.05 -183.45 -94.1 -183.45 -94.2 -183.45 -94.25 -183.4 -94.3 -183.4 -94.35 -183.4 -94.4 -183.4 -94.45 -183.4 -94.5 -183.4 -94.55 -183.45 -94.55 -183.5 -94.6 -183.55 -94.65 -183.65 -94.65 -183.75 -94.7 -183.8 -94.7 -183.9 -94.7 -183.95 -94.65 -184.05 -94.6 -184.1 -94.55 -184.15 -94.5 -184.25 -94.4 -184.25 -94.35 -184.3 -94.3 -184.35 -94.2 -184.4 -94.15 -184.45 -94 -184.55 -93.9 -184.6 -93.8 -184.65 -93.7 -184.7 -93.55 -184.75 -93.45 -184.85 -93.3
M -180.1 -89.75
Q -180.2 -89.75 -180.3 -89.75 -180.4 -89.7 -180.45 -89.65 -180.5 -89.55 -180.5 -89.45 -180.55 -89.35 -180.55 -89.25 -180.55 -89.15 -180.5 -89.05 -180.5 -89 -180.45 -88.95 -180.4 -88.85 -180.3 -88.8 -180.2 -88.8 -180.1 -88.8
L -176.35 -88.8 -176.35 -88.15 -179.65 -88.15
Q -179.8 -88.15 -179.95 -88.1 -180.15 -88.05 -180.25 -87.95 -180.4 -87.8 -180.45 -87.7 -180.5 -87.55 -180.5 -87.35
L -180.5 -86.4
Q -180.5 -86.3 -180.5 -86.25 -180.5 -86.15 -180.45 -86.05 -180.4 -86 -180.35 -85.9 -180.3 -85.85 -180.25 -85.8 -180.2 -85.7 -180.1 -85.65 -180.05 -85.6 -179.95 -85.6 -179.9 -85.55 -179.8 -85.55 -179.75 -85.55 -179.65 -85.55
L -175.45 -85.55
Q -175.35 -85.55 -175.25 -85.55 -175.15 -85.6 -175.1 -85.7 -175.05 -85.75 -175.05 -85.85 -175 -85.95 -175 -86.05 -175 -86.25 -175.1 -86.4 -175.2 -86.5 -175.45 -86.5
L -179.35 -86.5 -179.35 -87.2 -176.05 -87.2
Q -175.85 -87.2 -175.7 -87.25 -175.55 -87.3 -175.4 -87.4 -175.25 -87.5 -175.2 -87.65 -175.1 -87.8 -175.1 -88
L -175.1 -88.95
Q -175.1 -89.15 -175.2 -89.3 -175.25 -89.45 -175.4 -89.55 -175.7 -89.75 -176.05 -89.75
L -180.1 -89.75
M -182.05 -93.45
Q -182.15 -93.3 -182.25 -93.1 -182.35 -92.9 -182.4 -92.65 -182.4 -92.45 -182.4 -92.2 -182.4 -91.95 -182.4 -91.75 -182.35 -91.5 -182.25 -91.35 -182.15 -91.15 -182.05 -90.95 -181.95 -90.8 -181.75 -90.65 -181.65 -90.5 -181.45 -90.4 -181.3 -90.3 -181.05 -90.25 -180.85 -90.2 -180.6 -90.15 -180.35 -90.1 -180.05 -90.1 -179.8 -90.1 -179.55 -90.15 -179.3 -90.2 -179.1 -90.25 -178.9 -90.3 -178.7 -90.4 -178.5 -90.5 -178.35 -90.65 -178.2 -90.8 -178.1 -90.95 -178 -91.15 -177.9 -91.35 -177.85 -91.5 -177.8 -91.75 -177.75 -91.95 -177.75 -92.2 -177.75 -92.45 -177.8 -92.65 -177.85 -92.9 -177.9 -93.1 -178 -93.3 -178.1 -93.45 -178.2 -93.65 -178.35 -93.75 -178.5 -93.9 -178.7 -94 -178.9 -94.1 -179.1 -94.2 -179.3 -94.25 -179.55 -94.3 -179.8 -94.35 -180.05 -94.35 -180.35 -94.35 -180.6 -94.3 -180.85 -94.25 -181.05 -94.2 -181.3 -94.1 -181.45 -94 -181.65 -93.9 -181.75 -93.75 -181.95 -93.65 -182.05 -93.45
M -181 -93
Q -180.85 -93.15 -180.6 -93.2 -180.35 -93.3 -180.05 -93.3 -179.8 -93.3 -179.55 -93.2 -179.35 -93.15 -179.15 -93 -179 -92.85 -178.9 -92.65 -178.8 -92.45 -178.8 -92.2 -178.8 -91.95 -178.9 -91.75 -179 -91.55 -179.15 -91.45 -179.35 -91.3 -179.55 -91.2 -179.8 -91.15 -180.05 -91.15 -180.35 -91.15 -180.6 -91.2 -180.85 -91.3 -181 -91.45 -181.15 -91.55 -181.25 -91.75 -181.3 -91.95 -181.3 -92.2 -181.3 -92.45 -181.25 -92.65 -181.15 -92.85 -181 -93
M -175.65 -94.65
Q -175.75 -94.65 -175.85 -94.65 -175.95 -94.65 -176.05 -94.6 -176.15 -94.55 -176.15 -94.45 -176.2 -94.4 -176.2 -94.25
L -176.2 -90.5
Q -176.2 -90.2 -176.05 -90.15 -175.95 -90.1 -175.85 -90.05 -175.75 -90.05 -175.65 -90.05 -175.55 -90.05 -175.45 -90.05 -175.3 -90.1 -175.2 -90.15 -175.1 -90.2 -175.05 -90.25 -175 -90.35 -175 -90.5
L -175 -94.25
Q -175 -94.3 -175.05 -94.35 -175.05 -94.4 -175.1 -94.45 -175.1 -94.5 -175.15 -94.55 -175.2 -94.55 -175.25 -94.6 -175.35 -94.65 -175.45 -94.65 -175.5 -94.65 -175.55 -94.65 -175.6 -94.65 -175.65 -94.65
M -171.65 -89.8
Q -171.65 -89.95 -171.65 -90.15 -171.65 -90.5 -171.65 -90.8 -171.7 -91.15 -171.75 -91.45 -171.8 -91.75 -171.9 -92.05 -172 -92.3 -172.1 -92.6 -172.15 -92.7 -172.2 -92.8 -172.25 -92.95 -172.35 -93.1 -172.4 -93.2 -172.45 -93.3 -172.5 -93.45 -172.55 -93.55 -172.65 -93.7 -172.7 -93.8 -172.8 -93.9 -172.85 -94 -172.9 -94.15 -172.95 -94.2 -173 -94.3 -173 -94.35 -173.1 -94.4 -173.15 -94.5 -173.2 -94.55 -173.25 -94.6 -173.3 -94.65 -173.4 -94.7 -173.5 -94.7 -173.6 -94.7 -173.75 -94.65 -173.85 -94.55
L -173.9 -94.5
Q -173.9 -94.45 -173.9 -94.4 -173.9 -94.35 -173.9 -94.3 -173.85 -94.25 -173.85 -94.2 -173.8 -94.1 -173.8 -94.05 -173.75 -94 -173.7 -93.95 -173.7 -93.85 -173.6 -93.7 -173.55 -93.6 -173.5 -93.45 -173.4 -93.3 -173.35 -93.15 -173.3 -93.05 -173.25 -92.9 -173.2 -92.75 -173.15 -92.6 -173.1 -92.5 -173.05 -92.35 -173 -92.2 -172.95 -92.1 -172.9 -91.95 -172.9 -91.85 -172.85 -91.65 -172.8 -91.4 -172.75 -91.2 -172.75 -91 -172.75 -90.75 -172.75 -90.55 -172.7 -90.35 -172.7 -90.15 -172.7 -90.05 -172.7 -89.9 -172.75 -89.8 -172.75 -89.65 -172.75 -89.5 -172.75 -89.4 -172.75 -89.25 -172.8 -89.1 -172.8 -88.95 -172.8 -88.85 -172.85 -88.7 -172.85 -88.55 -172.85 -88.4 -172.9 -88.3 -172.9 -88.15 -172.95 -88.05 -173.05 -87.6 -173.2 -87.2 -173.3 -86.95 -173.4 -86.75 -173.5 -86.5 -173.65 -86.25 -173.7 -86.2 -173.7 -86.15 -173.75 -86.1 -173.8 -86.05 -173.8 -86 -173.85 -85.95 -173.85 -85.9 -173.85 -85.85 -173.9 -85.75 -173.8 -85.65 -173.75 -85.6 -173.7 -85.6 -173.6 -85.55 -173.5 -85.55 -173.4 -85.5 -173.35 -85.55 -173.25 -85.55 -173.15 -85.65 -173.1 -85.7 -173.05 -85.75 -173 -85.85 -172.95 -85.9 -172.8 -86.15 -172.6 -86.55 -172.4 -86.9 -172.2 -87.35 -172.05 -87.6 -171.95 -87.95 -171.95 -88.1 -171.9 -88.3 -171.85 -88.45 -171.75 -88.65 -171.75 -88.85 -171.7 -89.05 -171.7 -89.2 -171.65 -89.4 -171.65 -89.6 -171.65 -89.8 Z"/>
</g>

<g id="Layer0_1_FILL">
<path fill="#1E1E1E" stroke="none" d="
M 428.35 16.45
Q 428.05 16.45 427.8 16.8 424.05 21.5 422.35 26.25 420.65 30.95 420.65 36.05 420.65 41.1 422.35 45.85 424.05 50.6 427.8 55.25 428.05 55.6 428.35 55.6
L 431.3 55.6
Q 431.6 55.6 431.65 55.45 431.7 55.3 431.55 55.15 428.3 50.1 426.8 45.4 425.3 40.75 425.3 36.05 425.3 31.35 426.85 26.65 428.35 21.95 431.55 16.9 431.85 16.45 431.3 16.45
L 428.35 16.45
M 636.1 16.45
Q 635.6 16.45 635.85 16.9 639.05 21.95 640.6 26.65 642.1 31.35 642.1 36.05 642.1 40.75 640.6 45.4 639.1 50.1 635.85 55.15 635.75 55.3 635.8 55.45 635.8 55.6 636.1 55.6
L 639.05 55.6
Q 639.4 55.6 639.6 55.25 643.4 50.6 645.1 45.85 646.8 41.1 646.8 36.05 646.8 30.95 645.1 26.25 643.4 21.5 639.6 16.8 639.4 16.45 639.05 16.45
L 636.1 16.45
M 660.3 42.55
Q 660.15 42.75 660.15 43
L 660.15 45.7
Q 660.15 45.95 660.3 46.15 660.45 46.3 660.7 46.3 663.55 46.35 666.9 46.25 670.2 46.15 673.5 45.95 676.8 45.75 679.8 45.45 682.8 45.2 685.05 44.85 685.25 44.8 685.4 44.65 685.6 44.45 685.55 44.15
L 685.3 41.55
Q 685.3 41.25 685 41.15 684.75 41.1 684.55 41.15 682.1 41.45 679.1 41.7 676.15 42 673 42.15 669.85 42.3 666.75 42.4 663.55 42.45 660.7 42.4 660.45 42.4 660.3 42.55
M 672.2 18.8
Q 670.15 18.8 668.35 19.45 666.6 20.1 665.3 21.3 664 22.55 663.25 24.25 662.45 25.95 662.45 28.05 662.45 30.2 663.25 31.9 664 33.6 665.3 34.75 666.6 35.95 668.35 36.6 670.15 37.2 672.15 37.2 674.25 37.2 676.05 36.6 677.8 35.95 679.1 34.75 680.45 33.6 681.2 31.9 681.95 30.2 681.95 28.05 681.95 25.95 681.2 24.25 680.45 22.55 679.1 21.3 677.8 20.1 676.05 19.45 674.25 18.8 672.2 18.8
M 672.2 22.55
Q 674.55 22.55 676.05 24.05 677.5 25.55 677.5 28.05 677.5 30.6 676.05 32.1 674.55 33.6 672.2 33.6 669.9 33.6 668.45 32.1 666.95 30.6 666.95 28.05 666.95 25.55 668.45 24.05 669.9 22.55 672.2 22.55
M 691.8 17
Q 691.8 16.45 691.25 16.45
L 687.75 16.45
Q 687.5 16.45 687.35 16.6 687.15 16.75 687.15 17
L 687.15 53.9
Q 687.15 54.15 687.35 54.25 687.5 54.45 687.75 54.45
L 691.25 54.45
Q 691.8 54.45 691.8 53.9
L 691.8 17
M 736.6 44.5
Q 736.6 43 736.05 42.35 735.5 41.75 733.95 41.75
L 711.85 41.75
Q 711.65 41.75 711.45 41.85 711.3 42 711.3 42.2
L 711.3 45.05
Q 711.3 45.25 711.45 45.4 711.65 45.6 711.85 45.6
L 731.25 45.6
Q 731.65 45.6 731.85 45.7 732 45.8 732 46.25
L 732 53.9
Q 732 54.1 732.2 54.25 732.35 54.45 732.6 54.45
L 736.05 54.45
Q 736.25 54.45 736.4 54.25 736.6 54.1 736.6 53.9
L 736.6 44.5
M 736.85 18.05
Q 736.85 17.85 736.65 17.65 736.5 17.45 736.25 17.45
L 712.45 17.45
Q 712.25 17.45 712.05 17.65 711.8 17.85 711.8 18.05
L 711.8 20.4
Q 711.8 20.65 712.05 20.85 712.25 21.05 712.45 21.05
L 716.2 21.05 716.2 27.45 711.7 27.45
Q 711.5 27.45 711.3 27.65 711.05 27.85 711.05 28.05
L 711.05 30.4
Q 711.05 30.6 711.3 30.85 711.5 31.05 711.7 31.05
L 722.05 31.05 722.05 35.25 706.95 35.25
Q 706.35 35.25 706.35 35.8
L 706.35 38.4
Q 706.35 38.65 706.5 38.85 706.65 39.05 706.95 39.05
L 741.7 39.05
Q 741.95 39.05 742.1 38.85 742.3 38.65 742.3 38.4
L 742.3 35.8
Q 742.3 35.6 742.1 35.4 741.95 35.25 741.7 35.25
L 726.65 35.25 726.65 31.05 736.95 31.05
Q 737.2 31.05 737.4 30.85 737.55 30.65 737.55 30.4
L 737.55 28.05
Q 737.55 27.85 737.4 27.65 737.2 27.45 736.95 27.45
L 732.5 27.45 732.5 21.05 736.25 21.05
Q 736.5 21.05 736.65 20.85 736.85 20.7 736.85 20.4
L 736.85 18.05
M 720.65 21.05
L 728.05 21.05 728.05 27.45 720.65 27.45 720.65 21.05
M 774.55 40.6
Q 773.9 39.95 772.1 39.95
L 754.3 39.95
Q 752.75 39.95 752.1 40.6 751.45 41.3 751.45 42.85
L 751.45 50.95
Q 751.45 52.55 752.05 53.2 752.7 53.8 754.5 53.8
L 772.3 53.8
Q 773.85 53.8 774.5 53.2 775.15 52.55 775.15 51.05
L 775.15 42.85
Q 775.15 41.25 774.55 40.6
M 770.5 43.75
Q 770.6 43.8 770.6 44.15
L 770.6 49.6
Q 770.6 50 770.5 50.05 770.4 50.15 770.05 50.15
L 756.5 50.15
Q 756.2 50.15 756.1 50.05 756 50 756 49.6
L 756 44.1
Q 756 43.8 756.1 43.7 756.2 43.65 756.5 43.65
L 770.05 43.65
Q 770.4 43.65 770.5 43.75
M 770.6 17
L 770.6 21.5 762.9 21.5
Q 761.6 19.8 759.55 18.8 757.5 17.85 754.9 17.85 752.8 17.85 751.05 18.55 749.25 19.25 748 20.5 746.7 21.75 746.05 23.45 745.35 25.15 745.35 27.05 745.35 29.05 746.05 30.75 746.7 32.45 748 33.7 749.25 34.95 751.05 35.6 752.8 36.3 754.9 36.3 757.2 36.3 759.1 35.55 760.95 34.8 762.3 33.35
L 770.6 33.35 770.6 37.4
Q 770.6 37.95 771.15 37.95
L 774.7 37.95
Q 775.2 37.95 775.2 37.4
L 775.2 17
Q 775.2 16.45 774.7 16.45
L 771.15 16.45
Q 770.6 16.45 770.6 17
M 770.6 25.2
L 770.6 29.7 764.35 29.7
Q 764.5 29.1 764.6 28.45 764.7 27.8 764.7 27.05 764.7 26.2 764.5 25.2
L 770.6 25.2
M 754.9 21.9
Q 757.3 21.9 758.75 23.3 760.2 24.75 760.2 27.15 760.2 29.6 758.75 31.05 757.3 32.45 754.9 32.45 752.6 32.45 751.15 31.05 749.7 29.6 749.7 27.15 749.7 24.75 751.15 23.3 752.6 21.9 754.9 21.9
M 817.05 44.45
Q 816.95 44.55 816.65 44.55
L 800.85 44.55
Q 799.25 44.55 798.75 45.1 798.15 45.7 798.15 47
L 798.15 51.85
Q 798.15 53.15 798.75 53.75 799.3 54.35 800.9 54.35
L 822.1 54.35
Q 822.25 54.35 822.4 54.15 822.6 54 822.6 53.8
L 822.6 51.25
Q 822.6 50.95 822.4 50.8 822.25 50.65 822.05 50.65
L 803.25 50.65
Q 802.9 50.65 802.8 50.6 802.7 50.55 802.7 50.2
L 802.7 48.5
Q 802.7 48.2 802.8 48.1 802.9 48 803.2 48
L 818.9 48
Q 820.5 48 821.05 47.45 821.6 46.95 821.6 45.55
L 821.6 40.7
Q 821.6 39.35 821.05 38.8 820.5 38.2 818.9 38.2
L 798.7 38.2
Q 798.45 38.2 798.3 38.4 798.1 38.6 798.1 38.8
L 798.1 41.4
Q 798.1 41.6 798.3 41.75 798.45 41.9 798.7 41.9
L 816.6 41.9
Q 816.95 41.9 817.05 42 817.15 42.05 817.15 42.5
L 817.15 44
Q 817.15 44.35 817.05 44.45
M 810.55 29.7
Q 811.25 28.15 811.25 26.25 811.25 24.4 810.55 22.75 809.9 21.1 808.65 19.9 807.35 18.7 805.6 18 803.8 17.35 801.65 17.35 799.4 17.35 797.65 18 795.9 18.7 794.65 19.9 793.45 21.1 792.8 22.75 792.15 24.4 792.15 26.25 792.15 28.15 792.8 29.7 793.45 31.3 794.65 32.45 795.9 33.65 797.65 34.25 799.4 34.95 801.65 34.95 803.8 34.95 805.6 34.25 807.35 33.65 808.65 32.45 809.9 31.3 810.55 29.7
M 801.65 21.05
Q 804.15 21.05 805.65 22.5 807.15 24 807.15 26.3 807.15 27.4 806.75 28.3 806.35 29.25 805.65 29.95 804.9 30.65 803.9 31.05 802.9 31.4 801.65 31.4 799.2 31.4 797.7 29.95 796.25 28.5 796.25 26.3 796.25 24 797.7 22.5 799.2 21.05 801.65 21.05
M 817.5 16.45
Q 817 16.45 817 17
L 817 35.8
Q 817 36.4 817.5 36.4
L 821.1 36.4
Q 821.6 36.4 821.6 35.85
L 821.6 17
Q 821.6 16.45 821.1 16.45
L 817.5 16.45
M 853.9 31.3
Q 855.85 32.05 857.8 32.4 858.45 32.55 858.65 32.05
L 859.85 29.4
Q 859.95 29.1 859.8 28.9 859.65 28.7 859.35 28.65 857.2 28.1 855.15 27.2 853.1 26.3 851.4 25.05 849.7 23.85 848.4 22.4 847.15 20.95 846.6 19.3 846.75 18.3 846.85 17.1 846.85 16.45 846.3 16.45
L 842.9 16.35
Q 842.6 16.35 842.4 16.55 842.25 16.75 842.2 17.05 841.95 19.55 841 21.5 840.05 23.4 838.4 24.9 836.75 26.4 834.5 27.5 832.25 28.6 829.4 29.4 829.1 29.45 828.95 29.7 828.85 30 828.95 30.25
L 830.35 32.85
Q 830.45 33 830.7 33.05 831 33.05 831.3 33 835.85 31.8 839.3 29.65 842.75 27.45 844.65 24.4 845.5 25.8 846.95 27.05 848.4 28.35 850.15 29.45 851.95 30.5 853.9 31.3
M 862.15 36.85
Q 861.95 36.65 861.75 36.65
L 826.95 36.65
Q 826.65 36.65 826.5 36.85 826.35 37.05 826.35 37.25
L 826.35 39.85
Q 826.35 40.05 826.5 40.3 826.65 40.5 826.95 40.5
L 842 40.5 842 53.6
Q 842 54.15 842.55 54.15
L 846.05 54.15
Q 846.6 54.15 846.6 53.6
L 846.6 40.5 861.75 40.5
Q 861.95 40.5 862.15 40.3 862.35 40.05 862.35 39.85
L 862.35 37.25
Q 862.35 37.05 862.15 36.85 Z"/>

<path fill="#FFFFFF" stroke="none" d="
M 620.8 49.35
L 620.8 19.3
Q 620.8 4.3 605.8 4.3
L 461.8 4.3
Q 446.8 4.3 446.8 19.3
L 446.8 49.35
Q 446.8 64.35 461.8 64.35
L 605.8 64.35
Q 620.8 64.35 620.8 49.35 Z"/>
</g>

<path id="Symbol_1_copy_2_0_Layer2_0_1_STROKES" stroke="#81CFF4" stroke-width="0.4" stroke-linejoin="miter" stroke-linecap="butt" stroke-miterlimit="4" fill="none" d="
M -120.45 -16.45
L 191.35 -16.45
M -120.45 -11.85
L 191.35 -11.85
M -120.45 -7.25
L 191.35 -7.25
M -120.45 -2.65
L 191.35 -2.65
M -120.45 -39.45
L 191.35 -39.45
M -120.45 -48.65
L 191.35 -48.65
M -120.45 -34.85
L 191.35 -34.85
M -120.45 -30.25
L 191.35 -30.25
M -120.45 -25.65
L 191.35 -25.65
M -120.45 -71.6
L 191.35 -71.6
M -120.45 -62.45
L 191.35 -62.45
M -120.45 -57.85
L 191.35 -57.85
M -120.45 -53.25
L 191.35 -53.25
M -120.45 -94.6
L 191.35 -94.6
M -120.45 -85.4
L 191.35 -85.4
M -120.45 -80.8
L 191.35 -80.8
M -120.45 -76.2
L 191.35 -76.2
M -120.45 61.7
L 191.35 61.7
M -120.45 57.1
L 191.35 57.1
M -120.45 52.5
L 191.35 52.5
M -120.45 66.3
L 191.35 66.3
M -120.45 29.5
L 191.35 29.5
M -120.45 34.1
L 191.35 34.1
M -120.45 38.7
L 191.35 38.7
M -120.45 43.3
L 191.35 43.3
M -120.45 6.55
L 191.35 6.55
M -120.45 11.1
L 191.35 11.1
M -120.45 15.7
L 191.35 15.7
M -120.45 20.3
L 191.35 20.3"/>

<path id="Symbol_1_copy_2_0_Layer2_1_1_STROKES" stroke="#00A3E9" stroke-width="1" stroke-linejoin="miter" stroke-linecap="butt" stroke-miterlimit="4" fill="none" d="
M 71.2 147.45
L 383 147.45"/>

<path id="Symbol_1_copy_2_0_Layer2_2_1_STROKES" stroke="#00A3E9" stroke-width="1" stroke-linejoin="miter" stroke-linecap="butt" stroke-miterlimit="4" fill="none" d="
M 71.2 124.45
L 383 124.45"/>

<path id="Symbol_1_copy_2_0_Layer2_3_1_STROKES" stroke="#00A3E9" stroke-width="1" stroke-linejoin="miter" stroke-linecap="butt" stroke-miterlimit="4" fill="none" d="
M 71.2 101.5
L 383 101.5"/>

<path id="Symbol_1_copy_2_0_Layer2_4_1_STROKES" stroke="#00A3E9" stroke-width="1" stroke-linejoin="miter" stroke-linecap="butt" stroke-miterlimit="4" fill="none" d="
M 71.2 78.5
L 383 78.5"/>

<path id="Symbol_1_copy_2_0_Layer2_5_1_STROKES" stroke="#00A3E9" stroke-width="1" stroke-linejoin="miter" stroke-linecap="butt" stroke-miterlimit="4" fill="none" d="
M 71.2 55.5
L 383 55.5"/>

<path id="Symbol_1_copy_2_0_Layer2_6_1_STROKES" stroke="#00A3E9" stroke-width="1" stroke-linejoin="miter" stroke-linecap="butt" stroke-miterlimit="4" fill="none" d="
M 71.2 32.55
L 383 32.55"/>

<path id="Symbol_1_copy_2_0_Layer2_7_1_STROKES" stroke="#00A3E9" stroke-width="1" stroke-linejoin="miter" stroke-linecap="butt" stroke-miterlimit="4" fill="none" d="
M 71.2 9.55
L 383 9.55"/>

<path id="Symbol_1_copy_2_0_Layer2_8_1_STROKES" stroke="#332D2B" stroke-width="1" stroke-linejoin="miter" stroke-linecap="butt" stroke-miterlimit="4" fill="none" d="
M 0.3 198.8
L 71.2 170.45"/>

<path id="Symbol_1_copy_2_0_Layer2_9_1_STROKES" stroke="#332D2B" stroke-width="1" stroke-linejoin="miter" stroke-linecap="butt" stroke-miterlimit="4" fill="none" d="
M 191.35 70.9
L -191.35 70.9"/>

<path id="Symbol_1_copy_2_0_Layer2_10_1_STROKES" stroke="#332D2B" stroke-width="1" stroke-linejoin="miter" stroke-linecap="butt" stroke-miterlimit="4" fill="none" d="
M 71.2 0.35
L 71.2 198.8"/>

<path id="Symbol_1_copy_2_0_Layer2_11_1_STROKES" stroke="#332D2B" stroke-width="1.5" stroke-linejoin="miter" stroke-linecap="butt" stroke-miterlimit="4" fill="none" d="
M 0.3 198.8
L 383 198.8 383 0.35 0.3 0.35 0.3 198.8 Z"/>

<path id="Symbol_1_copy_2_0_Layer2_12_1_STROKES" stroke="#332D2B" stroke-width="1" stroke-linejoin="miter" stroke-linecap="butt" stroke-miterlimit="4" fill="none" d="
M -85.8 -99.2
L -85.8 70.6"/>

<path id="Symbol_1_copy_2_0_Layer2_13_1_STROKES" stroke="#332D2B" stroke-width="1" stroke-linejoin="miter" stroke-linecap="butt" stroke-miterlimit="4" fill="none" d="
M -51.15 -99.2
L -51.15 70.6"/>

<path id="Symbol_1_copy_2_0_Layer2_14_1_STROKES" stroke="#332D2B" stroke-width="1" stroke-linejoin="miter" stroke-linecap="butt" stroke-miterlimit="4" fill="none" d="
M -16.5 -99.2
L -16.5 70.6"/>

<path id="Symbol_1_copy_2_0_Layer2_15_1_STROKES" stroke="#332D2B" stroke-width="1" stroke-linejoin="miter" stroke-linecap="butt" stroke-miterlimit="4" fill="none" d="
M 18.1 -99.2
L 18.1 70.6"/>

<path id="Symbol_1_copy_2_0_Layer2_16_1_STROKES" stroke="#332D2B" stroke-width="1" stroke-linejoin="miter" stroke-linecap="butt" stroke-miterlimit="4" fill="none" d="
M 52.75 -99.2
L 52.75 70.6"/>

<path id="Symbol_1_copy_2_0_Layer2_17_1_STROKES" stroke="#332D2B" stroke-width="1" stroke-linejoin="miter" stroke-linecap="butt" stroke-miterlimit="4" fill="none" d="
M 87.4 -99.2
L 87.4 70.6"/>

<path id="Symbol_1_copy_2_0_Layer2_18_1_STROKES" stroke="#332D2B" stroke-width="1" stroke-linejoin="miter" stroke-linecap="butt" stroke-miterlimit="4" fill="none" d="
M 122.05 -99.2
L 122.05 70.6"/>

<path id="Symbol_1_copy_2_0_Layer2_19_1_STROKES" stroke="#332D2B" stroke-width="1" stroke-linejoin="miter" stroke-linecap="butt" stroke-miterlimit="4" fill="none" d="
M 156.7 -99.2
L 156.7 70.6"/>

<path id="Layer0_1_1_STROKES" stroke="#DBDBDB" stroke-width="3" stroke-linejoin="round" stroke-linecap="round" fill="none" d="
M 461.8 4.3
L 605.8 4.3
Q 620.8 4.3 620.8 19.3
L 620.8 49.35
Q 620.8 64.35 605.8 64.35
L 461.8 64.35
Q 446.8 64.35 446.8 49.35
L 446.8 19.3
Q 446.8 4.3 461.8 4.3 Z"/>
</defs>

<g transform="matrix( 2, 0, 0, 2, 640,287.25) ">
<g transform="matrix( 1, 0, 0, 1, 0,0) ">
<use xlink:href="#Symbol_1_copy_2_0_Layer2_0_FILL"/>

<use xlink:href="#Symbol_1_copy_2_0_Layer2_0_1_STROKES"/>
</g>

<g transform="matrix( 1, 0, 0, 1, -191.65,-99.55) ">
<use xlink:href="#Symbol_1_copy_2_0_Layer2_1_1_STROKES"/>
</g>

<g transform="matrix( 1, 0, 0, 1, -191.65,-99.55) ">
<use xlink:href="#Symbol_1_copy_2_0_Layer2_2_1_STROKES"/>
</g>

<g transform="matrix( 1, 0, 0, 1, -191.65,-99.55) ">
<use xlink:href="#Symbol_1_copy_2_0_Layer2_3_1_STROKES"/>
</g>

<g transform="matrix( 1, 0, 0, 1, -191.65,-99.55) ">
<use xlink:href="#Symbol_1_copy_2_0_Layer2_4_1_STROKES"/>
</g>

<g transform="matrix( 1, 0, 0, 1, -191.65,-99.55) ">
<use xlink:href="#Symbol_1_copy_2_0_Layer2_5_1_STROKES"/>
</g>

<g transform="matrix( 1, 0, 0, 1, -191.65,-99.55) ">
<use xlink:href="#Symbol_1_copy_2_0_Layer2_6_1_STROKES"/>
</g>

<g transform="matrix( 1, 0, 0, 1, -191.65,-99.55) ">
<use xlink:href="#Symbol_1_copy_2_0_Layer2_7_1_STROKES"/>
</g>

<g transform="matrix( 1, 0, 0, 1, -191.65,-99.55) ">
<use xlink:href="#Symbol_1_copy_2_0_Layer2_8_1_STROKES"/>
</g>

<g transform="matrix( 1, 0, 0, 1, 0,0) ">
<use xlink:href="#Symbol_1_copy_2_0_Layer2_9_1_STROKES"/>
</g>

<g transform="matrix( 1, 0, 0, 1, -191.65,-99.55) ">
<use xlink:href="#Symbol_1_copy_2_0_Layer2_10_1_STROKES"/>
</g>

<g transform="matrix( 1, 0, 0, 1, -191.65,-99.55) ">
<use xlink:href="#Symbol_1_copy_2_0_Layer2_11_1_STROKES"/>
</g>

<g transform="matrix( 1, 0, 0, 1, 0,0) ">
<use xlink:href="#Symbol_1_copy_2_0_Layer2_12_1_STROKES"/>
</g>

<g transform="matrix( 1, 0, 0, 1, 0,0) ">
<use xlink:href="#Symbol_1_copy_2_0_Layer2_13_1_STROKES"/>
</g>

<g transform="matrix( 1, 0, 0, 1, 0,0) ">
<use xlink:href="#Symbol_1_copy_2_0_Layer2_14_1_STROKES"/>
</g>

<g transform="matrix( 1, 0, 0, 1, 0,0) ">
<use xlink:href="#Symbol_1_copy_2_0_Layer2_15_1_STROKES"/>
</g>

<g transform="matrix( 1, 0, 0, 1, 0,0) ">
<use xlink:href="#Symbol_1_copy_2_0_Layer2_16_1_STROKES"/>
</g>

<g transform="matrix( 1, 0, 0, 1, 0,0) ">
<use xlink:href="#Symbol_1_copy_2_0_Layer2_17_1_STROKES"/>
</g>

<g transform="matrix( 1, 0, 0, 1, 0,0) ">
<use xlink:href="#Symbol_1_copy_2_0_Layer2_18_1_STROKES"/>
</g>

<g transform="matrix( 1, 0, 0, 1, 0,0) ">
<use xlink:href="#Symbol_1_copy_2_0_Layer2_19_1_STROKES"/>
</g>

<g transform="matrix( 1, 0, 0, 1, 0,0) ">
<use xlink:href="#Symbol_1_copy_2_0_Layer1_0_FILL"/>
</g>
</g>

<g transform="matrix( 1, 0, 0, 1, 0,0) ">
<use xlink:href="#Layer0_1_FILL"/>

<use xlink:href="#Layer0_1_1_STROKES"/>
</g>
</svg>
