
<svg xmlns="http://www.w3.org/2000/svg" version="1.1" xmlns:xlink="http://www.w3.org/1999/xlink" preserveAspectRatio="none" x="0px" y="0px" width="1280px" height="490px" viewBox="0 0 1280 490">
<defs>
<g id="Symbol_1_copy_2_1_Layer0_0_MEMBER_0_MEMBER_0_FILL">
<path fill="#3567D7" stroke="none" d="
M 288.5 340.35
Q 288.5 339.8 288.1 339.35 287.65 338.95 287.05 338.95 286.5 338.95 286.05 339.35 285.65 339.8 285.65 340.35 285.65 340.95 286.05 341.4 286.5 341.8 287.05 341.8 287.65 341.8 288.1 341.4 288.5 340.95 288.5 340.35 Z"/>
</g>

<g id="Symbol_1_copy_2_1_Layer0_0_MEMBER_1_MEMBER_0_FILL">
<path fill="#3567D7" stroke="none" d="
M 288.5 340.35
Q 288.5 339.8 288.1 339.35 287.65 338.95 287.05 338.95 286.5 338.95 286.05 339.35 285.65 339.8 285.65 340.35 285.65 340.95 286.05 341.4 286.5 341.8 287.05 341.8 287.65 341.8 288.1 341.4 288.5 340.95 288.5 340.35 Z"/>
</g>

<g id="Symbol_1_copy_2_1_Layer0_0_MEMBER_2_MEMBER_0_FILL">
<path fill="#3567D7" stroke="none" d="
M 288.5 340.35
Q 288.5 339.8 288.1 339.35 287.65 338.95 287.05 338.95 286.5 338.95 286.05 339.35 285.65 339.8 285.65 340.35 285.65 340.95 286.05 341.4 286.5 341.8 287.05 341.8 287.65 341.8 288.1 341.4 288.5 340.95 288.5 340.35 Z"/>
</g>

<g id="Symbol_1_copy_2_1_Layer0_0_MEMBER_3_MEMBER_0_FILL">
<path fill="#3567D7" stroke="none" d="
M 288.5 340.35
Q 288.5 339.8 288.1 339.35 287.65 338.95 287.05 338.95 286.5 338.95 286.05 339.35 285.65 339.8 285.65 340.35 285.65 340.95 286.05 341.4 286.5 341.8 287.05 341.8 287.65 341.8 288.1 341.4 288.5 340.95 288.5 340.35 Z"/>
</g>

<g id="Symbol_1_copy_2_1_Layer0_0_MEMBER_5_MEMBER_0_FILL">
<path fill="#3567D7" stroke="none" d="
M 288.5 340.35
Q 288.5 339.8 288.1 339.35 287.65 338.95 287.05 338.95 286.5 338.95 286.05 339.35 285.65 339.8 285.65 340.35 285.65 340.95 286.05 341.4 286.5 341.8 287.05 341.8 287.65 341.8 288.1 341.4 288.5 340.95 288.5 340.35 Z"/>
</g>

<g id="Symbol_1_copy_2_1_Layer0_0_MEMBER_6_MEMBER_0_FILL">
<path fill="#3567D7" stroke="none" d="
M 288.5 340.35
Q 288.5 339.8 288.1 339.35 287.65 338.95 287.05 338.95 286.5 338.95 286.05 339.35 285.65 339.8 285.65 340.35 285.65 340.95 286.05 341.4 286.5 341.8 287.05 341.8 287.65 341.8 288.1 341.4 288.5 340.95 288.5 340.35 Z"/>
</g>

<g id="Symbol_1_copy_2_1_Layer0_0_MEMBER_7_MEMBER_0_FILL">
<path fill="#3567D7" stroke="none" d="
M 288.5 340.35
Q 288.5 339.8 288.1 339.35 287.65 338.95 287.05 338.95 286.5 338.95 286.05 339.35 285.65 339.8 285.65 340.35 285.65 340.95 286.05 341.4 286.5 341.8 287.05 341.8 287.65 341.8 288.1 341.4 288.5 340.95 288.5 340.35 Z"/>
</g>

<g id="Symbol_1_copy_2_1_Layer0_0_MEMBER_8_MEMBER_0_FILL">
<path fill="#3567D7" stroke="none" d="
M 288.5 340.35
Q 288.5 339.8 288.1 339.35 287.65 338.95 287.05 338.95 286.5 338.95 286.05 339.35 285.65 339.8 285.65 340.35 285.65 340.95 286.05 341.4 286.5 341.8 287.05 341.8 287.65 341.8 288.1 341.4 288.5 340.95 288.5 340.35 Z"/>
</g>

<g id="Symbol_1_copy_2_1_Layer0_1_FILL">
<path fill="#3567D7" stroke="none" d="
M 45.8 78.65
Q 46 78.15 46 77.65 46 77.1 45.8 76.65 45.65 76.2 45.3 75.9 45 75.65 44.55 75.5 44.1 75.35 43.55 75.35 43.05 75.35 42.5 75.5 41.95 75.7 41.55 75.9 41.45 75.95 41.4 76.05 41.4 76.1 41.4 76.15
L 41.55 76.95
Q 41.6 77.05 41.65 77.1 41.75 77.1 41.85 77.05 42.35 76.75 42.75 76.6 43.2 76.5 43.65 76.5 44.1 76.5 44.45 76.85 44.75 77.15 44.75 77.7 44.75 78.15 44.3 78.9 43.9 79.6 42.95 80.7
L 41.3 82.7
Q 41.25 82.75 41.2 82.85 41.15 82.95 41.15 83.05
L 41.15 83.65
Q 41.15 83.8 41.35 83.8
L 46 83.8
Q 46.2 83.8 46.2 83.6
L 46.2 82.85
Q 46.2 82.65 46 82.65
L 42.8 82.65
Q 43.05 82.35 43.35 82.05 43.6 81.7 43.85 81.4 44.15 81.05 44.55 80.6 44.9 80.15 45.25 79.7 45.55 79.2 45.8 78.65
M 51.95 76.8
Q 51.75 76.4 51.45 76.05 51.15 75.75 50.75 75.55 50.3 75.35 49.75 75.35 48.85 75.35 48.3 75.75 47.8 76.15 47.5 76.8 47.2 77.45 47.05 78.15 46.95 78.9 46.95 79.6 46.95 81.6 47.65 82.75 48.3 83.85 49.75 83.85 50.45 83.85 50.95 83.55 51.45 83.3 51.8 82.75 52.15 82.2 52.3 81.4 52.45 80.6 52.45 79.6 52.45 79.15 52.4 78.65 52.4 78.15 52.25 77.7 52.15 77.25 51.95 76.8
M 51.15 78.2
Q 51.25 78.75 51.25 79.6 51.25 80.45 51.15 81.05 51 81.6 50.85 82 50.65 82.35 50.35 82.5 50.05 82.65 49.75 82.65 49.35 82.65 49.1 82.5 48.85 82.35 48.65 82 48.45 81.6 48.35 81.05 48.2 80.45 48.2 79.6 48.2 78.75 48.35 78.2 48.45 77.6 48.65 77.25 48.85 76.85 49.1 76.7 49.35 76.55 49.75 76.55 50.05 76.55 50.35 76.7 50.65 76.85 50.85 77.25 51 77.6 51.15 78.2
M 58.95 75.45
Q 58.75 75.45 58.75 75.6
L 58.75 76.4
Q 58.75 76.45 58.8 76.5 58.9 76.55 58.95 76.55
L 62.45 76.55 59.6 83.6
Q 59.55 83.7 59.6 83.75 59.65 83.8 59.8 83.8
L 60.7 83.8
Q 60.8 83.8 60.85 83.75 60.9 83.75 60.95 83.65
L 63.85 76.5
Q 63.9 76.4 63.9 76.3
L 63.9 75.65
Q 63.9 75.5 63.85 75.45 63.8 75.45 63.65 75.45
L 58.95 75.45
M 56.35 75.45
Q 56.3 75.45 56.1 75.45
L 55.45 75.45
Q 55.4 75.5 55.35 75.5
L 53.65 77.05
Q 53.6 77.1 53.6 77.15 53.6 77.25 53.65 77.25
L 54.15 77.85
Q 54.2 77.9 54.25 77.9 54.3 77.9 54.4 77.85
L 55.2 77.15 55.2 83.65
Q 55.2 83.8 55.35 83.8
L 56.25 83.8
Q 56.35 83.8 56.35 83.65
L 56.35 75.75
Q 56.35 75.5 56.35 75.45
M 28.25 76.5
Q 28.55 76.55 28.85 76.65 29 76.7 29 76.55
L 29.05 75.7
Q 29.05 75.55 28.95 75.55 28.7 75.45 28.35 75.4 27.95 75.35 27.6 75.35 26.6 75.35 25.9 75.7 25.2 76.05 24.75 76.7 24.3 77.3 24.15 78.1 23.95 78.95 23.95 79.9 23.95 81.95 24.65 82.9 25.35 83.9 26.65 83.9 27.25 83.9 27.75 83.65 28.3 83.45 28.65 83.05 29 82.65 29.2 82.15 29.35 81.65 29.35 81 29.35 80.4 29.15 79.9 29 79.4 28.65 79.05 28.3 78.7 27.8 78.5 27.3 78.3 26.7 78.3 26.5 78.3 26.25 78.35 26.05 78.4 25.85 78.5 25.65 78.6 25.5 78.75 25.3 78.85 25.2 79 25.3 78.45 25.45 78 25.6 77.55 25.9 77.2 26.15 76.85 26.55 76.65 26.95 76.45 27.55 76.45 27.9 76.45 28.25 76.5
M 26.75 79.45
Q 27.4 79.45 27.8 79.9 28.15 80.3 28.15 81.1 28.15 81.85 27.75 82.35 27.3 82.8 26.65 82.8 26.35 82.8 26.1 82.65 25.8 82.5 25.65 82.25 25.45 82 25.35 81.7 25.2 81.35 25.2 81 25.2 80.3 25.6 79.85 26.05 79.45 26.75 79.45
M 11 76.65
Q 10.85 76.2 10.5 75.9 10.2 75.65 9.75 75.5 9.3 75.35 8.75 75.35 8.25 75.35 7.7 75.5 7.15 75.7 6.75 75.9 6.65 75.95 6.6 76.05 6.6 76.1 6.6 76.15
L 6.75 76.95
Q 6.8 77.05 6.85 77.1 6.95 77.1 7.05 77.05 7.55 76.75 7.95 76.6 8.4 76.5 8.85 76.5 9.3 76.5 9.65 76.85 9.95 77.15 9.95 77.7 9.95 78.15 9.5 78.9 9.1 79.6 8.15 80.7
L 6.5 82.7
Q 6.45 82.75 6.4 82.85 6.35 82.95 6.35 83.05
L 6.35 83.65
Q 6.35 83.8 6.55 83.8
L 11.2 83.8
Q 11.4 83.8 11.4 83.6
L 11.4 82.85
Q 11.4 82.65 11.2 82.65
L 8 82.65
Q 8.25 82.35 8.55 82.05 8.8 81.7 9.05 81.4 9.35 81.05 9.75 80.6 10.1 80.15 10.45 79.7 10.75 79.2 11 78.65 11.2 78.15 11.2 77.65 11.2 77.1 11 76.65
M 16.65 76.05
Q 16.35 75.75 15.95 75.55 15.5 75.35 14.95 75.35 14.05 75.35 13.5 75.75 13 76.15 12.7 76.8 12.4 77.45 12.25 78.15 12.15 78.9 12.15 79.6 12.15 81.6 12.85 82.75 13.5 83.85 14.95 83.85 15.65 83.85 16.15 83.55 16.65 83.3 17 82.75 17.35 82.2 17.5 81.4 17.65 80.6 17.65 79.6 17.65 79.15 17.6 78.65 17.6 78.15 17.45 77.7 17.35 77.25 17.15 76.8 16.95 76.4 16.65 76.05
M 15.55 76.7
Q 15.85 76.85 16.05 77.25 16.2 77.6 16.35 78.2 16.45 78.75 16.45 79.6 16.45 80.45 16.35 81.05 16.2 81.6 16.05 82 15.85 82.35 15.55 82.5 15.25 82.65 14.95 82.65 14.55 82.65 14.3 82.5 14.05 82.35 13.85 82 13.65 81.6 13.55 81.05 13.4 80.45 13.4 79.6 13.4 78.75 13.55 78.2 13.65 77.6 13.85 77.25 14.05 76.85 14.3 76.7 14.55 76.55 14.95 76.55 15.25 76.55 15.55 76.7
M 18.85 77.05
Q 18.8 77.1 18.8 77.15 18.8 77.25 18.85 77.25
L 19.35 77.85
Q 19.4 77.9 19.45 77.9 19.5 77.9 19.6 77.85
L 20.4 77.15 20.4 83.65
Q 20.4 83.8 20.55 83.8
L 21.45 83.8
Q 21.55 83.8 21.55 83.65
L 21.55 75.75
Q 21.55 75.5 21.55 75.45 21.5 75.45 21.3 75.45
L 20.65 75.45
Q 20.6 75.5 20.55 75.5
L 18.85 77.05
M 150.25 76.65
Q 150.1 76.2 149.75 75.9 149.45 75.65 149 75.5 148.55 75.35 148 75.35 147.5 75.35 146.95 75.5 146.4 75.7 146 75.9 145.9 75.95 145.85 76.05 145.85 76.1 145.85 76.15
L 146 76.95
Q 146.05 77.05 146.1 77.1 146.2 77.1 146.3 77.05 146.8 76.75 147.2 76.6 147.65 76.5 148.1 76.5 148.55 76.5 148.9 76.85 149.2 77.15 149.2 77.7 149.2 78.15 148.75 78.9 148.35 79.6 147.4 80.7
L 145.75 82.7
Q 145.7 82.75 145.65 82.85 145.6 82.95 145.6 83.05
L 145.6 83.65
Q 145.6 83.8 145.8 83.8
L 150.45 83.8
Q 150.65 83.8 150.65 83.6
L 150.65 82.85
Q 150.65 82.65 150.45 82.65
L 147.25 82.65
Q 147.5 82.35 147.8 82.05 148.05 81.7 148.3 81.4 148.6 81.05 149 80.6 149.35 80.15 149.7 79.7 150 79.2 150.25 78.65 150.45 78.15 150.45 77.65 150.45 77.1 150.25 76.65
M 156.4 76.8
Q 156.2 76.4 155.9 76.05 155.6 75.75 155.2 75.55 154.75 75.35 154.2 75.35 153.3 75.35 152.75 75.75 152.25 76.15 151.95 76.8 151.65 77.45 151.5 78.15 151.4 78.9 151.4 79.6 151.4 81.6 152.1 82.75 152.75 83.85 154.2 83.85 154.9 83.85 155.4 83.55 155.9 83.3 156.25 82.75 156.6 82.2 156.75 81.4 156.9 80.6 156.9 79.6 156.9 79.15 156.85 78.65 156.85 78.15 156.7 77.7 156.6 77.25 156.4 76.8
M 154.8 76.7
Q 155.1 76.85 155.3 77.25 155.45 77.6 155.6 78.2 155.7 78.75 155.7 79.6 155.7 80.45 155.6 81.05 155.45 81.6 155.3 82 155.1 82.35 154.8 82.5 154.5 82.65 154.2 82.65 153.8 82.65 153.55 82.5 153.3 82.35 153.1 82 152.9 81.6 152.8 81.05 152.65 80.45 152.65 79.6 152.65 78.75 152.8 78.2 152.9 77.6 153.1 77.25 153.3 76.85 153.55 76.7 153.8 76.55 154.2 76.55 154.5 76.55 154.8 76.7
M 125.05 75.45
Q 125 75.5 124.95 75.5
L 123.25 77.05
Q 123.2 77.1 123.2 77.15 123.2 77.25 123.25 77.25
L 123.75 77.85
Q 123.8 77.9 123.85 77.9 123.9 77.9 124 77.85
L 124.8 77.15 124.8 83.65
Q 124.8 83.8 124.95 83.8
L 125.85 83.8
Q 125.95 83.8 125.95 83.65
L 125.95 75.75
Q 125.95 75.5 125.95 75.45 125.9 75.45 125.7 75.45
L 125.05 75.45
M 133.7 79.35
Q 133.7 77.3 133 76.3 132.3 75.35 131 75.35 130.4 75.35 129.85 75.55 129.35 75.8 129 76.15 128.65 76.55 128.45 77.05 128.3 77.6 128.3 78.2 128.3 78.8 128.45 79.3 128.65 79.8 129 80.2 129.35 80.55 129.85 80.75 130.35 80.9 130.95 80.9 131.15 80.9 131.35 80.85 131.6 80.8 131.8 80.7 132 80.6 132.15 80.5 132.35 80.35 132.45 80.25 132.35 80.75 132.2 81.2 132.05 81.7 131.75 82 131.5 82.35 131.1 82.55 130.7 82.75 130.1 82.75 129.75 82.75 129.4 82.7 129.1 82.7 128.8 82.55 128.65 82.5 128.6 82.65
L 128.6 83.55
Q 128.55 83.65 128.65 83.7 128.95 83.75 129.3 83.85 129.7 83.9 130 83.9 131.05 83.9 131.75 83.5 132.45 83.15 132.9 82.55 133.35 81.9 133.5 81.1 133.7 80.25 133.7 79.35
M 132 76.95
Q 132.2 77.2 132.3 77.55 132.4 77.85 132.4 78.25 132.4 78.9 132 79.35 131.6 79.8 130.9 79.8 130.2 79.8 129.85 79.35 129.5 78.9 129.5 78.15 129.5 77.35 129.9 76.9 130.3 76.4 131 76.4 131.3 76.4 131.55 76.55 131.8 76.7 132 76.95
M 115.4 76.65
Q 115.25 76.2 114.9 75.9 114.6 75.65 114.15 75.5 113.7 75.35 113.15 75.35 112.65 75.35 112.1 75.5 111.55 75.7 111.15 75.9 111.05 75.95 111 76.05 111 76.1 111 76.15
L 111.15 76.95
Q 111.2 77.05 111.25 77.1 111.35 77.1 111.45 77.05 111.95 76.75 112.35 76.6 112.8 76.5 113.25 76.5 113.7 76.5 114.05 76.85 114.35 77.15 114.35 77.7 114.35 78.15 113.9 78.9 113.5 79.6 112.55 80.7
L 110.9 82.7
Q 110.85 82.75 110.8 82.85 110.75 82.95 110.75 83.05
L 110.75 83.65
Q 110.75 83.8 110.95 83.8
L 115.6 83.8
Q 115.8 83.8 115.8 83.6
L 115.8 82.85
Q 115.8 82.65 115.6 82.65
L 112.4 82.65
Q 112.65 82.35 112.95 82.05 113.2 81.7 113.45 81.4 113.75 81.05 114.15 80.6 114.5 80.15 114.85 79.7 115.15 79.2 115.4 78.65 115.6 78.15 115.6 77.65 115.6 77.1 115.4 76.65
M 120.35 75.55
Q 119.9 75.35 119.35 75.35 118.45 75.35 117.9 75.75 117.4 76.15 117.1 76.8 116.8 77.45 116.65 78.15 116.55 78.9 116.55 79.6 116.55 81.6 117.25 82.75 117.9 83.85 119.35 83.85 120.05 83.85 120.55 83.55 121.05 83.3 121.4 82.75 121.75 82.2 121.9 81.4 122.05 80.6 122.05 79.6 122.05 79.15 122 78.65 122 78.15 121.85 77.7 121.75 77.25 121.55 76.8 121.35 76.4 121.05 76.05 120.75 75.75 120.35 75.55
M 119.95 76.7
Q 120.25 76.85 120.45 77.25 120.6 77.6 120.75 78.2 120.85 78.75 120.85 79.6 120.85 80.45 120.75 81.05 120.6 81.6 120.45 82 120.25 82.35 119.95 82.5 119.65 82.65 119.35 82.65 118.95 82.65 118.7 82.5 118.45 82.35 118.25 82 118.05 81.6 117.95 81.05 117.8 80.45 117.8 79.6 117.8 78.75 117.95 78.2 118.05 77.6 118.25 77.25 118.45 76.85 118.7 76.7 118.95 76.55 119.35 76.55 119.65 76.55 119.95 76.7
M 81 83.6
L 81 82.85
Q 81 82.65 80.8 82.65
L 77.6 82.65
Q 77.85 82.35 78.15 82.05 78.4 81.7 78.65 81.4 78.95 81.05 79.35 80.6 79.7 80.15 80.05 79.7 80.35 79.2 80.6 78.65 80.8 78.15 80.8 77.65 80.8 77.1 80.6 76.65 80.45 76.2 80.1 75.9 79.8 75.65 79.35 75.5 78.9 75.35 78.35 75.35 77.85 75.35 77.3 75.5 76.75 75.7 76.35 75.9 76.25 75.95 76.2 76.05 76.2 76.1 76.2 76.15
L 76.35 76.95
Q 76.4 77.05 76.45 77.1 76.55 77.1 76.65 77.05 77.15 76.75 77.55 76.6 78 76.5 78.45 76.5 78.9 76.5 79.25 76.85 79.55 77.15 79.55 77.7 79.55 78.15 79.1 78.9 78.7 79.6 77.75 80.7
L 76.1 82.7
Q 76.05 82.75 76 82.85 75.95 82.95 75.95 83.05
L 75.95 83.65
Q 75.95 83.8 76.15 83.8
L 80.8 83.8
Q 81 83.8 81 83.6
M 86.75 76.8
Q 86.55 76.4 86.25 76.05 85.95 75.75 85.55 75.55 85.1 75.35 84.55 75.35 83.65 75.35 83.1 75.75 82.6 76.15 82.3 76.8 82 77.45 81.85 78.15 81.75 78.9 81.75 79.6 81.75 81.6 82.45 82.75 83.1 83.85 84.55 83.85 85.25 83.85 85.75 83.55 86.25 83.3 86.6 82.75 86.95 82.2 87.1 81.4 87.25 80.6 87.25 79.6 87.25 79.15 87.2 78.65 87.2 78.15 87.05 77.7 86.95 77.25 86.75 76.8
M 84.55 76.55
Q 84.85 76.55 85.15 76.7 85.45 76.85 85.65 77.25 85.8 77.6 85.95 78.2 86.05 78.75 86.05 79.6 86.05 80.45 85.95 81.05 85.8 81.6 85.65 82 85.45 82.35 85.15 82.5 84.85 82.65 84.55 82.65 84.15 82.65 83.9 82.5 83.65 82.35 83.45 82 83.25 81.6 83.15 81.05 83 80.45 83 79.6 83 78.75 83.15 78.2 83.25 77.6 83.45 77.25 83.65 76.85 83.9 76.7 84.15 76.55 84.55 76.55
M 91.15 75.75
Q 91.15 75.5 91.15 75.45 91.1 75.45 90.9 75.45
L 90.25 75.45
Q 90.2 75.5 90.15 75.5
L 88.45 77.05
Q 88.4 77.1 88.4 77.15 88.4 77.25 88.45 77.25
L 88.95 77.85
Q 89 77.9 89.05 77.9 89.1 77.9 89.2 77.85
L 90 77.15 90 83.65
Q 90 83.8 90.15 83.8
L 91.05 83.8
Q 91.15 83.8 91.15 83.65
L 91.15 75.75
M 97.25 75.5
Q 96.8 75.35 96.25 75.35 95.7 75.35 95.25 75.5 94.75 75.65 94.4 75.9 94.05 76.2 93.85 76.6 93.65 76.95 93.65 77.45 93.65 78.05 94.05 78.55 94.45 79.05 95.1 79.45 94.75 79.6 94.45 79.8 94.15 80 93.95 80.25 93.7 80.5 93.55 80.8 93.45 81.1 93.45 81.5 93.45 82.1 93.7 82.55 93.95 83 94.35 83.3 94.75 83.6 95.25 83.75 95.75 83.9 96.25 83.9 96.75 83.9 97.25 83.75 97.8 83.6 98.15 83.3 98.55 83 98.8 82.55 99.05 82.1 99.05 81.5 99.05 81.15 98.9 80.85 98.8 80.55 98.6 80.3 98.35 80.05 98.05 79.85 97.75 79.65 97.35 79.4 98.1 78.9 98.4 78.45 98.75 77.95 98.75 77.4 98.75 76.9 98.6 76.55 98.4 76.15 98.05 75.9 97.7 75.6 97.25 75.5
M 96.25 76.4
Q 96.5 76.4 96.75 76.5 96.95 76.6 97.15 76.75 97.3 76.85 97.4 77.05 97.5 77.25 97.5 77.5 97.5 77.7 97.4 77.9 97.25 78.1 97.05 78.3 96.85 78.5 96.6 78.65 96.4 78.8 96.25 78.9 96.1 78.8 95.85 78.7 95.65 78.55 95.45 78.35 95.2 78.2 95.05 77.95 94.9 77.75 94.9 77.5 94.9 77.25 95.05 77.05 95.15 76.85 95.35 76.7 95.55 76.55 95.75 76.5 96 76.4 96.25 76.4
M 96.25 80.05
Q 96.5 80.15 96.8 80.3 97.05 80.45 97.3 80.65 97.5 80.85 97.65 81.1 97.8 81.3 97.8 81.5 97.8 81.8 97.65 82.05 97.5 82.3 97.3 82.45 97.05 82.6 96.8 82.7 96.5 82.75 96.25 82.75 95.95 82.75 95.7 82.7 95.4 82.6 95.2 82.45 94.95 82.25 94.8 82.05 94.65 81.8 94.65 81.5 94.65 81.2 94.85 80.95 95 80.7 95.25 80.5 95.45 80.35 95.75 80.2 96 80.1 96.25 80.05
M 162.35 82.85
Q 162.35 82.65 162.15 82.65
L 158.95 82.65
Q 159.2 82.35 159.5 82.05 159.75 81.7 160 81.4 160.3 81.05 160.7 80.6 161.05 80.15 161.4 79.7 161.7 79.2 161.95 78.65 162.15 78.15 162.15 77.65 162.15 77.1 161.95 76.65 161.8 76.2 161.45 75.9 161.15 75.65 160.7 75.5 160.25 75.35 159.7 75.35 159.2 75.35 158.65 75.5 158.1 75.7 157.7 75.9 157.6 75.95 157.55 76.05 157.55 76.1 157.55 76.15
L 157.7 76.95
Q 157.75 77.05 157.8 77.1 157.9 77.1 158 77.05 158.5 76.75 158.9 76.6 159.35 76.5 159.8 76.5 160.25 76.5 160.6 76.85 160.9 77.15 160.9 77.7 160.9 78.15 160.45 78.9 160.05 79.6 159.1 80.7
L 157.45 82.7
Q 157.4 82.75 157.35 82.85 157.3 82.95 157.3 83.05
L 157.3 83.65
Q 157.3 83.8 157.5 83.8
L 162.15 83.8
Q 162.35 83.8 162.35 83.6
L 162.35 82.85
M 168.6 79.6
Q 168.6 79.15 168.55 78.65 168.55 78.15 168.4 77.7 168.3 77.25 168.1 76.8 167.9 76.4 167.6 76.05 167.3 75.75 166.9 75.55 166.45 75.35 165.9 75.35 165 75.35 164.45 75.75 163.95 76.15 163.65 76.8 163.35 77.45 163.2 78.15 163.1 78.9 163.1 79.6 163.1 81.6 163.8 82.75 164.45 83.85 165.9 83.85 166.6 83.85 167.1 83.55 167.6 83.3 167.95 82.75 168.3 82.2 168.45 81.4 168.6 80.6 168.6 79.6
M 167.3 78.2
Q 167.4 78.75 167.4 79.6 167.4 80.45 167.3 81.05 167.15 81.6 167 82 166.8 82.35 166.5 82.5 166.2 82.65 165.9 82.65 165.5 82.65 165.25 82.5 165 82.35 164.8 82 164.6 81.6 164.5 81.05 164.35 80.45 164.35 79.6 164.35 78.75 164.5 78.2 164.6 77.6 164.8 77.25 165 76.85 165.25 76.7 165.5 76.55 165.9 76.55 166.2 76.55 166.5 76.7 166.8 76.85 167 77.25 167.15 77.6 167.3 78.2
M -95.55 76.5
Q -95.1 76.5 -94.75 76.85 -94.45 77.15 -94.45 77.7 -94.45 78.15 -94.9 78.9 -95.3 79.6 -96.25 80.7
L -97.9 82.7
Q -97.95 82.75 -98 82.85 -98.05 82.95 -98.05 83.05
L -98.05 83.65
Q -98.05 83.8 -97.85 83.8
L -93.2 83.8
Q -93 83.8 -93 83.6
L -93 82.85
Q -93 82.65 -93.2 82.65
L -96.4 82.65
Q -96.15 82.35 -95.85 82.05 -95.6 81.7 -95.35 81.4 -95.05 81.05 -94.65 80.6 -94.3 80.15 -93.95 79.7 -93.65 79.2 -93.4 78.65 -93.2 78.15 -93.2 77.65 -93.2 77.1 -93.4 76.65 -93.55 76.2 -93.9 75.9 -94.2 75.65 -94.65 75.5 -95.1 75.35 -95.65 75.35 -96.15 75.35 -96.7 75.5 -97.25 75.7 -97.65 75.9 -97.75 75.95 -97.8 76.05 -97.8 76.1 -97.8 76.15
L -97.65 76.95
Q -97.6 77.05 -97.55 77.1 -97.45 77.1 -97.35 77.05 -96.85 76.75 -96.45 76.6 -96 76.5 -95.55 76.5
M -87.25 76.8
Q -87.45 76.4 -87.75 76.05 -88.05 75.75 -88.45 75.55 -88.9 75.35 -89.45 75.35 -90.35 75.35 -90.9 75.75 -91.4 76.15 -91.7 76.8 -92 77.45 -92.15 78.15 -92.25 78.9 -92.25 79.6 -92.25 81.6 -91.55 82.75 -90.9 83.85 -89.45 83.85 -88.75 83.85 -88.25 83.55 -87.75 83.3 -87.4 82.75 -87.05 82.2 -86.9 81.4 -86.75 80.6 -86.75 79.6 -86.75 79.15 -86.8 78.65 -86.8 78.15 -86.95 77.7 -87.05 77.25 -87.25 76.8
M -89.45 76.55
Q -89.15 76.55 -88.85 76.7 -88.55 76.85 -88.35 77.25 -88.2 77.6 -88.05 78.2 -87.95 78.75 -87.95 79.6 -87.95 80.45 -88.05 81.05 -88.2 81.6 -88.35 82 -88.55 82.35 -88.85 82.5 -89.15 82.65 -89.45 82.65 -89.85 82.65 -90.1 82.5 -90.35 82.35 -90.55 82 -90.75 81.6 -90.85 81.05 -91 80.45 -91 79.6 -91 78.75 -90.85 78.2 -90.75 77.6 -90.55 77.25 -90.35 76.85 -90.1 76.7 -89.85 76.55 -89.45 76.55
M -82.85 75.45
Q -82.9 75.45 -83.1 75.45
L -83.75 75.45
Q -83.8 75.5 -83.85 75.5
L -85.55 77.05
Q -85.6 77.1 -85.6 77.15 -85.6 77.25 -85.55 77.25
L -85.05 77.85
Q -85 77.9 -84.95 77.9 -84.9 77.9 -84.8 77.85
L -84 77.15 -84 83.65
Q -84 83.8 -83.85 83.8
L -82.95 83.8
Q -82.85 83.8 -82.85 83.65
L -82.85 75.75
Q -82.85 75.5 -82.85 75.45
M -127.55 46.85
L -127.5 44.6 -124.15 44.6
Q -124.1 44.6 -124.05 44.55 -124 44.5 -124 44.45
L -124 43.5
Q -124 43.45 -124.05 43.4 -124.1 43.35 -124.15 43.35
L -128.55 43.35
Q -128.75 43.35 -128.75 43.4 -128.8 43.45 -128.8 43.55
L -128.9 48
Q -128.9 48.4 -128.4 48.2 -128.05 48.05 -127.6 48 -127.2 47.9 -126.8 47.9 -125.8 47.9 -125.4 48.35 -124.95 48.85 -124.95 49.6 -124.95 50.4 -125.5 50.85 -126 51.3 -126.8 51.3 -127.05 51.3 -127.3 51.3 -127.5 51.3 -127.75 51.25 -128.05 51.2 -128.25 51.1 -128.5 51.05 -128.7 50.95 -128.95 50.85 -128.95 51.05
L -128.95 52
Q -128.95 52.1 -128.95 52.15 -128.9 52.2 -128.85 52.25 -128.65 52.35 -128.35 52.4 -128.1 52.45 -127.8 52.5 -127.5 52.55 -127.3 52.55 -127.05 52.6 -126.9 52.6 -126.2 52.6 -125.6 52.4 -124.95 52.2 -124.55 51.8 -123.6 50.95 -123.6 49.45 -123.6 48.85 -123.85 48.3 -124.05 47.8 -124.45 47.45 -124.85 47.1 -125.35 46.9 -125.9 46.75 -126.5 46.75 -127.1 46.75 -127.55 46.85
M -128.85 21.75
Q -129.2 22.45 -129.3 23.25 -129.45 24.1 -129.45 24.8 -129.45 27 -128.7 28.25 -127.95 29.45 -126.4 29.45 -125.65 29.45 -125.1 29.15 -124.55 28.85 -124.15 28.25 -123.8 27.65 -123.6 26.8 -123.45 25.9 -123.45 24.8 -123.45 24.35 -123.5 23.8 -123.55 23.25 -123.65 22.75 -123.75 22.25 -124 21.75 -124.2 21.3 -124.55 20.95 -124.85 20.6 -125.3 20.4 -125.8 20.2 -126.4 20.2 -127.35 20.2 -127.95 20.65 -128.55 21.1 -128.85 21.75
M -127.95 23.3
Q -127.85 22.65 -127.6 22.25 -127.4 21.85 -127.1 21.7 -126.8 21.5 -126.4 21.5 -126.05 21.5 -125.75 21.7 -125.45 21.85 -125.2 22.25 -125 22.65 -124.9 23.3 -124.75 23.9 -124.75 24.8 -124.75 25.75 -124.9 26.4 -125 27 -125.2 27.4 -125.45 27.8 -125.75 28 -126.05 28.15 -126.4 28.15 -126.8 28.15 -127.1 28 -127.4 27.8 -127.6 27.4 -127.85 27 -127.95 26.4 -128.05 25.75 -128.05 24.8 -128.05 23.9 -127.95 23.3
M -132 20.6
Q -132 20.35 -132.05 20.3 -132.1 20.3 -132.3 20.3
L -132.9 20.3
Q -132.95 20.3 -133 20.3 -133.1 20.3 -133.1 20.35
L -134.95 22.05
Q -135 22.1 -135 22.15 -135 22.25 -135 22.3
L -134.45 22.95
Q -134.4 23 -134.3 22.95 -134.25 22.95 -134.15 22.9
L -133.3 22.15 -133.3 29.25
Q -133.3 29.4 -133.1 29.4
L -132.15 29.4
Q -132 29.4 -132 29.25
L -132 20.6
M -13.25 75.75
Q -13.25 75.5 -13.25 75.45 -13.3 75.45 -13.5 75.45
L -14.15 75.45
Q -14.2 75.5 -14.25 75.5
L -15.95 77.05
Q -16 77.1 -16 77.15 -16 77.25 -15.95 77.25
L -15.45 77.85
Q -15.4 77.9 -15.35 77.9 -15.3 77.9 -15.2 77.85
L -14.4 77.15 -14.4 83.65
Q -14.4 83.8 -14.25 83.8
L -13.35 83.8
Q -13.25 83.8 -13.25 83.65
L -13.25 75.75
M -6 75.45
Q -6.05 75.4 -6.1 75.4
L -10.15 75.4
Q -10.3 75.4 -10.35 75.45 -10.35 75.5 -10.35 75.6
L -10.45 79.65
Q -10.45 80.05 -10 79.85 -9.65 79.75 -9.25 79.65 -8.9 79.6 -8.55 79.6 -7.6 79.6 -7.25 80 -6.85 80.45 -6.85 81.15 -6.85 81.9 -7.3 82.3 -7.8 82.7 -8.55 82.7 -8.75 82.7 -8.95 82.7 -9.2 82.65 -9.4 82.65 -9.65 82.6 -9.85 82.5 -10.1 82.45 -10.25 82.35 -10.5 82.25 -10.5 82.45
L -10.5 83.45
Q -10.45 83.5 -10.4 83.55 -10.2 83.65 -9.95 83.7 -9.7 83.75 -9.45 83.8 -9.2 83.85 -8.95 83.85 -8.75 83.85 -8.6 83.85 -8 83.85 -7.4 83.7 -6.85 83.5 -6.45 83.15 -5.6 82.4 -5.6 81 -5.6 80.45 -5.8 79.95 -6 79.5 -6.35 79.2 -6.7 78.85 -7.2 78.7 -7.7 78.5 -8.25 78.5 -8.8 78.5 -9.2 78.6
L -9.15 76.55 -6.1 76.55
Q -6.05 76.55 -6 76.5 -5.95 76.45 -5.95 76.4
L -5.95 75.55
Q -5.95 75.5 -6 75.45
M -23.8 76.65
Q -23.95 76.2 -24.3 75.9 -24.6 75.65 -25.05 75.5 -25.5 75.35 -26.05 75.35 -26.55 75.35 -27.1 75.5 -27.65 75.7 -28.05 75.9 -28.15 75.95 -28.2 76.05 -28.2 76.1 -28.2 76.15
L -28.05 76.95
Q -28 77.05 -27.95 77.1 -27.85 77.1 -27.75 77.05 -27.25 76.75 -26.85 76.6 -26.4 76.5 -25.95 76.5 -25.5 76.5 -25.15 76.85 -24.85 77.15 -24.85 77.7 -24.85 78.15 -25.3 78.9 -25.7 79.6 -26.65 80.7
L -28.3 82.7
Q -28.35 82.75 -28.4 82.85 -28.45 82.95 -28.45 83.05
L -28.45 83.65
Q -28.45 83.8 -28.25 83.8
L -23.6 83.8
Q -23.4 83.8 -23.4 83.6
L -23.4 82.85
Q -23.4 82.65 -23.6 82.65
L -26.8 82.65
Q -26.55 82.35 -26.25 82.05 -26 81.7 -25.75 81.4 -25.45 81.05 -25.05 80.6 -24.7 80.15 -24.35 79.7 -24.05 79.2 -23.8 78.65 -23.6 78.15 -23.6 77.65 -23.6 77.1 -23.8 76.65
M -21.3 75.75
Q -21.8 76.15 -22.1 76.8 -22.4 77.45 -22.55 78.15 -22.65 78.9 -22.65 79.6 -22.65 81.6 -21.95 82.75 -21.3 83.85 -19.85 83.85 -19.15 83.85 -18.65 83.55 -18.15 83.3 -17.8 82.75 -17.45 82.2 -17.3 81.4 -17.15 80.6 -17.15 79.6 -17.15 79.15 -17.2 78.65 -17.2 78.15 -17.35 77.7 -17.45 77.25 -17.65 76.8 -17.85 76.4 -18.15 76.05 -18.45 75.75 -18.85 75.55 -19.3 75.35 -19.85 75.35 -20.75 75.35 -21.3 75.75
M -20.95 77.25
Q -20.75 76.85 -20.5 76.7 -20.25 76.55 -19.85 76.55 -19.55 76.55 -19.25 76.7 -18.95 76.85 -18.75 77.25 -18.6 77.6 -18.45 78.2 -18.35 78.75 -18.35 79.6 -18.35 80.45 -18.45 81.05 -18.6 81.6 -18.75 82 -18.95 82.35 -19.25 82.5 -19.55 82.65 -19.85 82.65 -20.25 82.65 -20.5 82.5 -20.75 82.35 -20.95 82 -21.15 81.6 -21.25 81.05 -21.4 80.45 -21.4 79.6 -21.4 78.75 -21.25 78.2 -21.15 77.6 -20.95 77.25
M -52.45 76.8
Q -52.65 76.4 -52.95 76.05 -53.25 75.75 -53.65 75.55 -54.1 75.35 -54.65 75.35 -55.55 75.35 -56.1 75.75 -56.6 76.15 -56.9 76.8 -57.2 77.45 -57.35 78.15 -57.45 78.9 -57.45 79.6 -57.45 81.6 -56.75 82.75 -56.1 83.85 -54.65 83.85 -53.95 83.85 -53.45 83.55 -52.95 83.3 -52.6 82.75 -52.25 82.2 -52.1 81.4 -51.95 80.6 -51.95 79.6 -51.95 79.15 -52 78.65 -52 78.15 -52.15 77.7 -52.25 77.25 -52.45 76.8
M -55.3 76.7
Q -55.05 76.55 -54.65 76.55 -54.35 76.55 -54.05 76.7 -53.75 76.85 -53.55 77.25 -53.4 77.6 -53.25 78.2 -53.15 78.75 -53.15 79.6 -53.15 80.45 -53.25 81.05 -53.4 81.6 -53.55 82 -53.75 82.35 -54.05 82.5 -54.35 82.65 -54.65 82.65 -55.05 82.65 -55.3 82.5 -55.55 82.35 -55.75 82 -55.95 81.6 -56.05 81.05 -56.2 80.45 -56.2 79.6 -56.2 78.75 -56.05 78.2 -55.95 77.6 -55.75 77.25 -55.55 76.85 -55.3 76.7
M -48.05 75.45
Q -48.1 75.45 -48.3 75.45
L -48.95 75.45
Q -49 75.5 -49.05 75.5
L -50.75 77.05
Q -50.8 77.1 -50.8 77.15 -50.8 77.25 -50.75 77.25
L -50.25 77.85
Q -50.2 77.9 -50.15 77.9 -50.1 77.9 -50 77.85
L -49.2 77.15 -49.2 83.65
Q -49.2 83.8 -49.05 83.8
L -48.15 83.8
Q -48.05 83.8 -48.05 83.65
L -48.05 75.75
Q -48.05 75.5 -48.05 75.45
M -41.2 75.45
L -42.3 75.45
Q -42.4 75.45 -42.45 75.45 -42.45 75.5 -42.5 75.6
L -45.9 80.7
Q -45.95 80.75 -46 80.85 -46.05 80.9 -46.05 81
L -46.05 81.8
Q -46.05 81.9 -46 81.9
L -42.35 81.9 -42.35 83.6
Q -42.35 83.7 -42.3 83.75 -42.3 83.8 -42.15 83.8
L -41.35 83.8
Q -41.25 83.8 -41.2 83.75 -41.2 83.7 -41.2 83.6
L -41.2 81.9 -40.15 81.9
Q -40.05 81.9 -40 81.9 -40 81.85 -40 81.75
L -40 80.95
Q -40 80.85 -40 80.8 -40.05 80.8 -40.15 80.8
L -41.2 80.8 -41.2 75.6
Q -41.2 75.5 -41.2 75.45
M -42.35 80.8
L -44.7 80.8 -42.35 77.2 -42.35 80.8
M -75.85 78.6
Q -75.65 78.35 -75.55 78.05 -75.45 77.75 -75.45 77.45 -75.45 76.9 -75.65 76.5 -75.9 76.1 -76.25 75.85 -76.65 75.6 -77.1 75.45 -77.6 75.35 -78.1 75.35 -78.55 75.35 -79 75.45 -79.45 75.55 -79.95 75.7 -80.05 75.75 -80.1 75.8 -80.15 75.85 -80.1 75.95
L -80 76.75
Q -80 76.85 -79.95 76.85 -79.9 76.9 -79.75 76.85 -79.6 76.75 -79.35 76.7 -79.15 76.65 -78.9 76.6 -78.7 76.55 -78.5 76.5 -78.3 76.45 -78.15 76.45 -77.9 76.45 -77.65 76.55 -77.4 76.6 -77.15 76.7 -76.95 76.85 -76.8 77.05 -76.65 77.25 -76.65 77.55 -76.65 77.9 -76.85 78.15 -77.1 78.45 -77.4 78.6 -77.75 78.75 -78.1 78.85 -78.4 78.9 -78.65 78.9
L -79.3 78.9
Q -79.35 78.95 -79.35 79.05
L -79.35 79.85
Q -79.35 79.95 -79.3 79.95 -79.3 80 -79.2 80
L -78.65 80
Q -78.1 80 -77.75 80.1 -77.35 80.2 -77.1 80.4 -76.85 80.55 -76.75 80.8 -76.65 81.05 -76.65 81.3 -76.65 82.05 -77.15 82.4 -77.35 82.55 -77.55 82.6 -77.8 82.65 -78 82.7 -78.25 82.75 -78.5 82.7 -78.75 82.7 -78.95 82.7 -79.25 82.65 -79.55 82.6 -79.85 82.5 -80.15 82.4 -80.3 82.35 -80.35 82.4 -80.4 82.4 -80.4 82.5
L -80.5 83.35
Q -80.5 83.45 -80.45 83.5 -80.4 83.55 -80.3 83.6 -79.9 83.7 -79.45 83.8 -78.95 83.9 -78.5 83.9 -77.85 83.9 -77.25 83.7 -76.65 83.55 -76.25 83.2 -75.85 82.9 -75.6 82.4 -75.4 81.9 -75.4 81.35 -75.4 80.7 -75.75 80.25 -76.1 79.75 -76.85 79.45 -76.55 79.3 -76.3 79.1 -76 78.9 -75.85 78.6
M -60.85 75.35
Q -61.35 75.35 -61.9 75.5 -62.45 75.7 -62.85 75.9 -62.95 75.95 -63 76.05 -63 76.1 -63 76.15
L -62.85 76.95
Q -62.8 77.05 -62.75 77.1 -62.65 77.1 -62.55 77.05 -62.05 76.75 -61.65 76.6 -61.2 76.5 -60.75 76.5 -60.3 76.5 -59.95 76.85 -59.65 77.15 -59.65 77.7 -59.65 78.15 -60.1 78.9 -60.5 79.6 -61.45 80.7
L -63.1 82.7
Q -63.15 82.75 -63.2 82.85 -63.25 82.95 -63.25 83.05
L -63.25 83.65
Q -63.25 83.8 -63.05 83.8
L -58.4 83.8
Q -58.2 83.8 -58.2 83.6
L -58.2 82.85
Q -58.2 82.65 -58.4 82.65
L -61.6 82.65
Q -61.35 82.35 -61.05 82.05 -60.8 81.7 -60.55 81.4 -60.25 81.05 -59.85 80.6 -59.5 80.15 -59.15 79.7 -58.85 79.2 -58.6 78.65 -58.4 78.15 -58.4 77.65 -58.4 77.1 -58.6 76.65 -58.75 76.2 -59.1 75.9 -59.4 75.65 -59.85 75.5 -60.3 75.35 -60.85 75.35
M -128.75 -2.65
Q -128.8 -2.6 -128.8 -2.5
L -128.9 1.95
Q -128.9 2.35 -128.4 2.15 -128.05 2 -127.6 1.95 -127.2 1.85 -126.8 1.85 -125.8 1.85 -125.4 2.3 -124.95 2.8 -124.95 3.55 -124.95 4.35 -125.5 4.8 -126 5.25 -126.8 5.25 -127.05 5.25 -127.3 5.25 -127.5 5.25 -127.75 5.2 -128.05 5.15 -128.25 5.05 -128.5 5 -128.7 4.9 -128.95 4.8 -128.95 5
L -128.95 5.95
Q -128.95 6.05 -128.95 6.1 -128.9 6.15 -128.85 6.2 -128.65 6.3 -128.35 6.35 -128.1 6.4 -127.8 6.45 -127.5 6.5 -127.3 6.5 -127.05 6.55 -126.9 6.55 -126.2 6.55 -125.6 6.35 -124.95 6.15 -124.55 5.75 -123.6 4.9 -123.6 3.4 -123.6 2.8 -123.85 2.25 -124.05 1.75 -124.45 1.4 -124.85 1.05 -125.35 0.85 -125.9 0.7 -126.5 0.7 -127.1 0.7 -127.55 0.8
L -127.5 -1.45 -124.15 -1.45
Q -124.1 -1.45 -124.05 -1.5 -124 -1.55 -124 -1.6
L -124 -2.55
Q -124 -2.6 -124.05 -2.65 -124.1 -2.7 -124.15 -2.7
L -128.55 -2.7
Q -128.75 -2.7 -128.75 -2.65
M -135 -0.8
Q -135 -0.7 -135 -0.65
L -134.45 0
Q -134.4 0.05 -134.3 0 -134.25 0 -134.15 -0.05
L -133.3 -0.8 -133.3 6.3
Q -133.3 6.45 -133.1 6.45
L -132.15 6.45
Q -132 6.45 -132 6.3
L -132 -2.35
Q -132 -2.6 -132.05 -2.65 -132.1 -2.65 -132.3 -2.65
L -132.9 -2.65
Q -132.95 -2.65 -133 -2.65 -133.1 -2.65 -133.1 -2.6
L -134.95 -0.9
Q -135 -0.85 -135 -0.8
M -126.4 -25.7
Q -127.35 -25.7 -127.95 -25.25 -128.55 -24.8 -128.85 -24.15 -129.2 -23.45 -129.3 -22.65 -129.45 -21.8 -129.45 -21.1 -129.45 -18.9 -128.7 -17.65 -127.95 -16.45 -126.4 -16.45 -125.65 -16.45 -125.1 -16.75 -124.55 -17.05 -124.15 -17.65 -123.8 -18.25 -123.6 -19.1 -123.45 -20 -123.45 -21.1 -123.45 -21.55 -123.5 -22.1 -123.55 -22.65 -123.65 -23.15 -123.75 -23.65 -124 -24.15 -124.2 -24.6 -124.55 -24.95 -124.85 -25.3 -125.3 -25.5 -125.8 -25.7 -126.4 -25.7
M -126.4 -24.4
Q -126.05 -24.4 -125.75 -24.2 -125.45 -24.05 -125.2 -23.65 -125 -23.25 -124.9 -22.6 -124.75 -22 -124.75 -21.1 -124.75 -20.15 -124.9 -19.5 -125 -18.9 -125.2 -18.5 -125.45 -18.1 -125.75 -17.9 -126.05 -17.75 -126.4 -17.75 -126.8 -17.75 -127.1 -17.9 -127.4 -18.1 -127.6 -18.5 -127.85 -18.9 -127.95 -19.5 -128.05 -20.15 -128.05 -21.1 -128.05 -22 -127.95 -22.6 -127.85 -23.25 -127.6 -23.65 -127.4 -24.05 -127.1 -24.2 -126.8 -24.4 -126.4 -24.4
M -132.15 -25.55
Q -132.6 -25.75 -133.2 -25.75 -133.75 -25.75 -134.35 -25.55 -134.95 -25.35 -135.4 -25.1 -135.5 -25.05 -135.55 -24.95 -135.6 -24.9 -135.55 -24.85
L -135.4 -23.95
Q -135.35 -23.85 -135.3 -23.85 -135.2 -23.8 -135.1 -23.9 -134.55 -24.2 -134.1 -24.35 -133.6 -24.45 -133.15 -24.45 -132.6 -24.45 -132.25 -24.1 -131.9 -23.7 -131.9 -23.15 -131.9 -22.65 -132.4 -21.85 -132.85 -21.05 -133.85 -19.85
L -135.7 -17.7
Q -135.75 -17.6 -135.8 -17.5 -135.85 -17.45 -135.85 -17.35
L -135.85 -16.65
Q -135.85 -16.5 -135.65 -16.5
L -130.55 -16.5
Q -130.35 -16.5 -130.35 -16.7
L -130.35 -17.55
Q -130.35 -17.7 -130.55 -17.7
L -134.05 -17.7
Q -133.75 -18.05 -133.45 -18.4 -133.15 -18.75 -132.9 -19.1 -132.55 -19.5 -132.15 -19.95 -131.75 -20.45 -131.4 -21 -131 -21.55 -130.8 -22.1 -130.55 -22.65 -130.55 -23.2 -130.55 -23.8 -130.75 -24.3 -130.95 -24.75 -131.3 -25.1 -131.65 -25.4 -132.15 -25.55
M -130.75 -47.25
Q -130.95 -47.7 -131.3 -48.05 -131.65 -48.35 -132.15 -48.5 -132.6 -48.7 -133.2 -48.7 -133.75 -48.7 -134.35 -48.5 -134.95 -48.3 -135.4 -48.05 -135.5 -48 -135.55 -47.9 -135.6 -47.85 -135.55 -47.8
L -135.4 -46.9
Q -135.35 -46.8 -135.3 -46.8 -135.2 -46.75 -135.1 -46.85 -134.55 -47.15 -134.1 -47.3 -133.6 -47.4 -133.15 -47.4 -132.6 -47.4 -132.25 -47.05 -131.9 -46.65 -131.9 -46.1 -131.9 -45.6 -132.4 -44.8 -132.85 -44 -133.85 -42.8
L -135.7 -40.65
Q -135.75 -40.55 -135.8 -40.45 -135.85 -40.4 -135.85 -40.3
L -135.85 -39.6
Q -135.85 -39.45 -135.65 -39.45
L -130.55 -39.45
Q -130.35 -39.45 -130.35 -39.65
L -130.35 -40.5
Q -130.35 -40.65 -130.55 -40.65
L -134.05 -40.65
Q -133.75 -41 -133.45 -41.35 -133.15 -41.7 -132.9 -42.05 -132.55 -42.45 -132.15 -42.9 -131.75 -43.4 -131.4 -43.95 -131 -44.5 -130.8 -45.05 -130.55 -45.6 -130.55 -46.15 -130.55 -46.75 -130.75 -47.25
M -124.05 -48.55
Q -124.1 -48.6 -124.15 -48.6
L -128.55 -48.6
Q -128.75 -48.6 -128.75 -48.55 -128.8 -48.5 -128.8 -48.4
L -128.9 -43.95
Q -128.9 -43.55 -128.4 -43.75 -128.05 -43.9 -127.6 -43.95 -127.2 -44.05 -126.8 -44.05 -125.8 -44.05 -125.4 -43.6 -124.95 -43.1 -124.95 -42.35 -124.95 -41.55 -125.5 -41.1 -126 -40.65 -126.8 -40.65 -127.05 -40.65 -127.3 -40.65 -127.5 -40.65 -127.75 -40.7 -128.05 -40.75 -128.25 -40.85 -128.5 -40.9 -128.7 -41 -128.95 -41.1 -128.95 -40.9
L -128.95 -39.95
Q -128.95 -39.85 -128.95 -39.8 -128.9 -39.75 -128.85 -39.7 -128.65 -39.6 -128.35 -39.55 -128.1 -39.5 -127.8 -39.45 -127.5 -39.4 -127.3 -39.4 -127.05 -39.35 -126.9 -39.35 -126.2 -39.35 -125.6 -39.55 -124.95 -39.75 -124.55 -40.15 -123.6 -41 -123.6 -42.5 -123.6 -43.1 -123.85 -43.65 -124.05 -44.15 -124.45 -44.5 -124.85 -44.85 -125.35 -45.05 -125.9 -45.2 -126.5 -45.2 -127.1 -45.2 -127.55 -45.1
L -127.5 -47.35 -124.15 -47.35
Q -124.1 -47.35 -124.05 -47.4 -124 -47.45 -124 -47.5
L -124 -48.45
Q -124 -48.5 -124.05 -48.55
M -130.55 -70.35
Q -130.8 -70.8 -131.2 -71.1 -131.6 -71.35 -132.15 -71.5 -132.65 -71.65 -133.2 -71.65 -133.7 -71.65 -134.2 -71.5 -134.7 -71.4 -135.25 -71.2 -135.35 -71.15 -135.4 -71.1 -135.45 -71.05 -135.4 -71
L -135.3 -70.1
Q -135.3 -70 -135.25 -69.95 -135.15 -69.95 -135.05 -70 -134.85 -70.05 -134.6 -70.15 -134.35 -70.2 -134.1 -70.25 -133.9 -70.3 -133.65 -70.35 -133.45 -70.4 -133.25 -70.4 -133 -70.4 -132.75 -70.35 -132.45 -70.25 -132.2 -70.1 -131.95 -70 -131.8 -69.75 -131.65 -69.5 -131.65 -69.2 -131.65 -68.8 -131.9 -68.55 -132.15 -68.25 -132.5 -68.1 -132.85 -67.9 -133.2 -67.8 -133.55 -67.75 -133.85 -67.75
L -134.4 -67.75
Q -134.5 -67.75 -134.55 -67.7
L -134.55 -66.7
Q -134.55 -66.6 -134.55 -66.55 -134.5 -66.55 -134.4 -66.55
L -133.8 -66.55
Q -133.25 -66.55 -132.8 -66.45 -132.4 -66.3 -132.15 -66.1 -131.9 -65.9 -131.75 -65.65 -131.65 -65.4 -131.65 -65.1 -131.65 -64.3 -132.2 -63.9 -132.4 -63.8 -132.65 -63.7 -132.9 -63.6 -133.15 -63.6 -133.4 -63.55 -133.65 -63.6 -133.9 -63.6 -134.15 -63.6 -134.5 -63.65 -134.8 -63.75 -135.1 -63.8 -135.45 -63.9 -135.6 -64 -135.65 -63.95 -135.7 -63.9 -135.75 -63.8
L -135.85 -62.9
Q -135.85 -62.8 -135.8 -62.75 -135.75 -62.7 -135.65 -62.65 -135.2 -62.5 -134.65 -62.4 -134.15 -62.3 -133.65 -62.3 -132.95 -62.3 -132.3 -62.5 -131.65 -62.65 -131.2 -63.05 -130.75 -63.4 -130.5 -63.9 -130.25 -64.45 -130.25 -65.1 -130.25 -65.75 -130.65 -66.3 -131.05 -66.8 -131.85 -67.15 -131.5 -67.3 -131.25 -67.55 -130.95 -67.75 -130.75 -68.05 -130.55 -68.35 -130.4 -68.65 -130.3 -69 -130.3 -69.3 -130.3 -69.9 -130.55 -70.35
M -124 -70.05
Q -124.2 -70.5 -124.55 -70.85 -124.85 -71.2 -125.3 -71.4 -125.8 -71.6 -126.4 -71.6 -127.35 -71.6 -127.95 -71.15 -128.55 -70.7 -128.85 -70.05 -129.2 -69.35 -129.3 -68.55 -129.45 -67.7 -129.45 -67 -129.45 -64.8 -128.7 -63.55 -127.95 -62.35 -126.4 -62.35 -125.65 -62.35 -125.1 -62.65 -124.55 -62.95 -124.15 -63.55 -123.8 -64.15 -123.6 -65 -123.45 -65.9 -123.45 -67 -123.45 -67.45 -123.5 -68 -123.55 -68.55 -123.65 -69.05 -123.75 -69.55 -124 -70.05
M -125.2 -69.55
Q -125 -69.15 -124.9 -68.5 -124.75 -67.9 -124.75 -67 -124.75 -66.05 -124.9 -65.4 -125 -64.8 -125.2 -64.4 -125.45 -64 -125.75 -63.8 -126.05 -63.65 -126.4 -63.65 -126.8 -63.65 -127.1 -63.8 -127.4 -64 -127.6 -64.4 -127.85 -64.8 -127.95 -65.4 -128.05 -66.05 -128.05 -67 -128.05 -67.9 -127.95 -68.5 -127.85 -69.15 -127.6 -69.55 -127.4 -69.95 -127.1 -70.1 -126.8 -70.3 -126.4 -70.3 -126.05 -70.3 -125.75 -70.1 -125.45 -69.95 -125.2 -69.55
M -130.55 -93.3
Q -130.8 -93.75 -131.2 -94.05 -131.6 -94.3 -132.15 -94.45 -132.65 -94.6 -133.2 -94.6 -133.7 -94.6 -134.2 -94.45 -134.7 -94.35 -135.25 -94.15 -135.35 -94.1 -135.4 -94.05 -135.45 -94 -135.4 -93.95
L -135.3 -93.05
Q -135.3 -92.95 -135.25 -92.9 -135.15 -92.9 -135.05 -92.95 -134.85 -93 -134.6 -93.1 -134.35 -93.15 -134.1 -93.2 -133.9 -93.25 -133.65 -93.3 -133.45 -93.35 -133.25 -93.35 -133 -93.35 -132.75 -93.3 -132.45 -93.2 -132.2 -93.05 -131.95 -92.95 -131.8 -92.7 -131.65 -92.45 -131.65 -92.15 -131.65 -91.75 -131.9 -91.5 -132.15 -91.2 -132.5 -91.05 -132.85 -90.85 -133.2 -90.75 -133.55 -90.7 -133.85 -90.7
L -134.4 -90.7
Q -134.5 -90.7 -134.55 -90.65
L -134.55 -89.65
Q -134.55 -89.55 -134.55 -89.5 -134.5 -89.5 -134.4 -89.5
L -133.8 -89.5
Q -133.25 -89.5 -132.8 -89.4 -132.4 -89.25 -132.15 -89.05 -131.9 -88.85 -131.75 -88.6 -131.65 -88.35 -131.65 -88.05 -131.65 -87.25 -132.2 -86.85 -132.4 -86.75 -132.65 -86.65 -132.9 -86.55 -133.15 -86.55 -133.4 -86.5 -133.65 -86.55 -133.9 -86.55 -134.15 -86.55 -134.5 -86.6 -134.8 -86.7 -135.1 -86.75 -135.45 -86.85 -135.6 -86.95 -135.65 -86.9 -135.7 -86.85 -135.75 -86.75
L -135.85 -85.85
Q -135.85 -85.75 -135.8 -85.7 -135.75 -85.65 -135.65 -85.6 -135.2 -85.45 -134.65 -85.35 -134.15 -85.25 -133.65 -85.25 -132.95 -85.25 -132.3 -85.45 -131.65 -85.6 -131.2 -86 -130.75 -86.35 -130.5 -86.85 -130.25 -87.4 -130.25 -88.05 -130.25 -88.7 -130.65 -89.25 -131.05 -89.75 -131.85 -90.1 -131.5 -90.25 -131.25 -90.5 -130.95 -90.7 -130.75 -91 -130.55 -91.3 -130.4 -91.6 -130.3 -91.95 -130.3 -92.25 -130.3 -92.85 -130.55 -93.3
M -124.05 -94.45
Q -124.1 -94.5 -124.15 -94.5
L -128.55 -94.5
Q -128.75 -94.5 -128.75 -94.45 -128.8 -94.4 -128.8 -94.3
L -128.9 -89.85
Q -128.9 -89.45 -128.4 -89.65 -128.05 -89.8 -127.6 -89.85 -127.2 -89.95 -126.8 -89.95 -125.8 -89.95 -125.4 -89.5 -124.95 -89 -124.95 -88.25 -124.95 -87.45 -125.5 -87 -126 -86.55 -126.8 -86.55 -127.05 -86.55 -127.3 -86.55 -127.5 -86.55 -127.75 -86.6 -128.05 -86.65 -128.25 -86.75 -128.5 -86.8 -128.7 -86.9 -128.95 -87 -128.95 -86.8
L -128.95 -85.85
Q -128.95 -85.75 -128.95 -85.7 -128.9 -85.65 -128.85 -85.6 -128.65 -85.5 -128.35 -85.45 -128.1 -85.4 -127.8 -85.35 -127.5 -85.3 -127.3 -85.3 -127.05 -85.25 -126.9 -85.25 -126.2 -85.25 -125.6 -85.45 -124.95 -85.65 -124.55 -86.05 -123.6 -86.9 -123.6 -88.4 -123.6 -89 -123.85 -89.55 -124.05 -90.05 -124.45 -90.4 -124.85 -90.75 -125.35 -90.95 -125.9 -91.1 -126.5 -91.1 -127.1 -91.1 -127.55 -91
L -127.5 -93.25 -124.15 -93.25
Q -124.1 -93.25 -124.05 -93.3 -124 -93.35 -124 -93.4
L -124 -94.35
Q -124 -94.4 -124.05 -94.45 Z"/>
</g>

<path id="Symbol_1_copy_2_1_Layer0_0_MEMBER_4_1_STROKES" stroke="#3567D7" stroke-width="1.5" stroke-linejoin="miter" stroke-linecap="butt" stroke-miterlimit="10" fill="none" d="
M 87.85 -98.8
L 121.95 -11.95 157.5 11.35
M 18.7 -62.35
L 52.5 6.9
M 52.95 6.9
L 87.15 -99.1
M -85.75 -2.5
L -50.85 48.35 -16.35 15.35 17.6 -62.35"/>
</defs>

<g transform="matrix( 2, 0, 0, 2, 640,287.25) ">
<g transform="matrix( 1, 0, 0, 1, -372.8,-342.95) ">
<use xlink:href="#Symbol_1_copy_2_1_Layer0_0_MEMBER_0_MEMBER_0_FILL"/>
</g>

<g transform="matrix( 1, 0, 0, 1, -338.15,-292.15) ">
<use xlink:href="#Symbol_1_copy_2_1_Layer0_0_MEMBER_1_MEMBER_0_FILL"/>
</g>

<g transform="matrix( 1, 0, 0, 1, -303.5,-324.75) ">
<use xlink:href="#Symbol_1_copy_2_1_Layer0_0_MEMBER_2_MEMBER_0_FILL"/>
</g>

<g transform="matrix( 1, 0, 0, 1, -268.85,-402.8) ">
<use xlink:href="#Symbol_1_copy_2_1_Layer0_0_MEMBER_3_MEMBER_0_FILL"/>
</g>

<g transform="matrix( 1, 0, 0, 1, 0,0) ">
<use xlink:href="#Symbol_1_copy_2_1_Layer0_0_MEMBER_4_1_STROKES"/>
</g>

<g transform="matrix( 1, 0, 0, 1, -234.25,-333.8) ">
<use xlink:href="#Symbol_1_copy_2_1_Layer0_0_MEMBER_5_MEMBER_0_FILL"/>
</g>

<g transform="matrix( 1, 0, 0, 1, -199.6,-439.35) ">
<use xlink:href="#Symbol_1_copy_2_1_Layer0_0_MEMBER_6_MEMBER_0_FILL"/>
</g>

<g transform="matrix( 1, 0, 0, 1, -164.95,-352.25) ">
<use xlink:href="#Symbol_1_copy_2_1_Layer0_0_MEMBER_7_MEMBER_0_FILL"/>
</g>

<g transform="matrix( 1, 0, 0, 1, -130.3,-329.35) ">
<use xlink:href="#Symbol_1_copy_2_1_Layer0_0_MEMBER_8_MEMBER_0_FILL"/>
</g>

<g transform="matrix( 1, 0, 0, 1, 0,0) ">
<use xlink:href="#Symbol_1_copy_2_1_Layer0_1_FILL"/>
</g>
</g>
</svg>
