
<svg xmlns="http://www.w3.org/2000/svg" version="1.1" xmlns:xlink="http://www.w3.org/1999/xlink" preserveAspectRatio="none" x="0px" y="0px" width="60px" height="70px" viewBox="0 0 60 70">
<defs>
<g id="bdf45454_0_Layer3_0_FILL">
<path fill="#CCE060" stroke="none" d="
M 16.2 -16.15
Q 9.5 -22.85 0.05 -22.85 -9.45 -22.85 -16.15 -16.15 -22.85 -9.5 -22.85 0 -22.85 9.5 -16.15 16.2 -9.45 22.9 0.05 22.9 9.5 22.9 16.2 16.2 22.9 9.5 22.9 0 22.9 -9.5 16.2 -16.15 Z"/>
</g>

<g id="Mask_bdf45454_0_2_MASK_0_FILL">
<path fill="#FFFFFF" stroke="none" d="
M 16.2 -16.15
Q 9.5 -22.85 0.05 -22.85 -9.45 -22.85 -16.15 -16.15 -22.85 -9.5 -22.85 0 -22.85 9.5 -16.15 16.2 -9.45 22.9 0.05 22.9 9.5 22.9 16.2 16.2 22.9 9.5 22.9 0 22.9 -9.5 16.2 -16.15 Z"/>
</g>

<g id="bdf45454_0_Layer2_0_FILL">
<path fill="#514840" stroke="none" d="
M 35.9 30.75
Q 35.9 21.25 25.4 14.6 14.9 7.9 0.1 7.9 -14.8 7.9 -25.3 14.6 -35.8 21.25 -35.8 30.75 -35.8 40.25 -25.3 46.95 -14.8 53.65 0.1 53.65 14.9 53.65 25.4 46.95 35.9 40.25 35.9 30.75 Z"/>
</g>

<g id="dbs34343_0_Layer1_0_FILL">
<path fill="#4C9252" stroke="none" d="
M -0.5 -0.15
Q -0.1 3.95 -0.75 8.5 -0.1 8.25 0.75 8.5 -0.15 3.65 0.5 -0.15
L -0.5 -0.15 Z"/>
</g>

<g id="dbs34343_0_Layer1_1_FILL">
<path fill="#4C9252" stroke="none" d="
M 9.65 3.3
L 10.7 2
Q 4.7 4.05 -1.85 3.75 2.1 8.55 6.8 5.75 8.25 4.85 9.65 3.3 Z"/>

<path fill="#55AC66" stroke="none" d="
M 10.7 1.95
Q 5.1 -1.25 1.05 0.95 -0.95 2.05 -1.85 3.75 4.7 4.05 10.7 2
L 10.7 1.95 Z"/>
</g>

<g id="dbs34343_0_Layer0_0_FILL">
<path fill="#4C9252" stroke="none" d="
M -9.75 -6.75
Q -9.85 -6.8 -9.95 -6.8
L -10.2 -5.55
Q -10.35 -4 -9.95 -2.6 -8.7 1.9 -2.45 3.35 -2.45 3.3 -2.4 3.25 -8.4 -1 -9.75 -6.75 Z"/>

<path fill="#55AC66" stroke="none" d="
M -2.65 -0.9
Q -4 -5.35 -9.75 -6.75 -8.4 -1 -2.4 3.25 -1.95 1.35 -2.65 -0.9 Z"/>
</g>
</defs>

<g transform="matrix( 1, 0, 0, 1, 33.85,31.7) ">
<g transform="matrix( 1, 0, 0, 1, 0,0) ">
<use xlink:href="#bdf45454_0_Layer3_0_FILL"/>
</g>

<mask id="Mask_Mask_1">
<g transform="matrix( 1, 0, 0, 1, 0,0) ">
<use xlink:href="#Mask_bdf45454_0_2_MASK_0_FILL"/>
</g>
</mask>

<g mask="url(#Mask_Mask_1)">
<g transform="matrix( 1, 0, 0, 1, 0,0) ">
<use xlink:href="#bdf45454_0_Layer2_0_FILL"/>
</g>
</g>

<g transform="matrix( 1.98907470703125, 0, 0, 1.98907470703125, 0.05,-8.7) ">
<g transform="matrix( 1, 0, 0, 1, 0,0) ">
<use xlink:href="#dbs34343_0_Layer1_0_FILL"/>
</g>

<g transform="matrix( 0.9539642333984375, -0.2999114990234375, 0.2999114990234375, 0.9539642333984375, 0.65,-4.05) ">
<use xlink:href="#dbs34343_0_Layer1_1_FILL"/>
</g>

<g transform="matrix( 0.9539642333984375, -0.2999114990234375, 0.2999114990234375, 0.9539642333984375, 1.35,-3.7) ">
<use xlink:href="#dbs34343_0_Layer0_0_FILL"/>
</g>
</g>
</g>
</svg>
