
<svg xmlns="http://www.w3.org/2000/svg" version="1.1" xmlns:xlink="http://www.w3.org/1999/xlink" preserveAspectRatio="none" x="0px" y="0px" width="897px" height="310px" viewBox="0 0 897 310">
<defs>
<g id="Layer0_0_FILL">
<path fill="#FAEDDA" stroke="none" d="
M 897.95 15
Q 897.95 0 882.95 0
L 15 0
Q 0 0 0 15
L 0 295.95
Q 0 310.95 15 310.95
L 882.95 310.95
Q 897.95 310.95 897.95 295.95
L 897.95 15
M 448.65 70.5
L 448.7 70.4 448.75 70.5 551.6 70.5 618.95 240.4 278.95 240.4 346.3 70.5 448.65 70.5
M 448.75 70.5
L 453.5 82.25 448.85 79.5 448.85 133.45 448.85 79.5 448.7 79.4 443.75 82.25 448.65 70.5 346.3 70.5 278.95 240.4 618.95 240.4 551.6 70.5 448.75 70.5
M 446.3 142.7
Q 446.45 142.95 446.45 143.3
L 446.45 156.2
Q 446.45 156.6 446.3 156.85 446.15 157.1 445.85 157.2 445.3 157.5 444.7 157.5 444.3 157.5 444 157.4 443.7 157.35 443.4 157.2 443.15 157.1 443 156.85 442.85 156.6 442.85 156.2
L 442.85 152.2 440.1 152.2
Q 439.65 152.2 439.4 152.1 439.1 152.05 439.05 151.85 438.85 151.55 438.85 150.9 438.85 150.3 439.05 149.9 439.1 149.7 439.4 149.6 439.65 149.55 440.1 149.55
L 442.85 149.55 442.85 147.45 440.1 147.45
Q 439.65 147.45 439.4 147.35 439.1 147.25 439.05 147.05 438.95 146.9 438.9 146.65 438.85 146.45 438.85 146.1 438.85 145.8 438.9 145.55 438.95 145.25 439.05 145.1 439.1 144.9 439.4 144.8 439.65 144.75 440.1 144.75
L 442.85 144.75 442.85 143.3
Q 442.85 142.95 443 142.7 443.15 142.45 443.4 142.3 443.7 142.15 444 142.1 444.3 142.05 444.7 142.05 445.3 142.05 445.85 142.3 446.15 142.45 446.3 142.7
M 423.7 145.1
Q 423.6 144.8 423.6 144.5 423.6 144.15 423.7 143.85 423.75 143.55 423.95 143.35 424.2 142.9 424.95 142.9
L 436.7 142.9
Q 437.1 142.9 437.4 143 437.65 143.15 437.75 143.35 437.85 143.55 437.85 143.85 437.9 144.15 437.9 144.5 437.9 145.1 437.75 145.6 437.65 145.8 437.4 145.95 437.1 146.05 436.7 146.05
L 424.95 146.05
Q 424.55 146.05 424.3 145.95 424.05 145.8 423.95 145.6 423.75 145.35 423.7 145.1
M 426.75 147.1
Q 427 147 427.25 146.9 427.5 146.85 427.8 146.85 428.1 146.85 428.4 146.9 428.7 147 428.95 147.1 429.15 147.25 429.3 147.45 429.4 147.7 429.45 148.05 429.45 148.45 429.45 148.8 429.5 149.15 429.55 149.45 429.55 149.75 429.6 150 429.6 150.3 429.65 150.55 429.65 150.8 429.7 151.05 429.7 151.35 429.75 151.65 429.75 151.9 429.75 152.3 429.75 152.65 429.8 153.05 429.95 153.05 430.05 153.05 430.15 153.05 430.25 153 430.3 153 430.4 153 430.5 153 430.65 152.95 430.8 153 430.95 152.95 431.1 152.95 431.25 152.95 431.4 152.95 431.6 152.95 431.85 152.9 432.15 152.9 432.15 152.55 432.15 152.2 432.15 151.9 432.2 151.6 432.2 151.35 432.25 151.05 432.25 150.75 432.3 150.45 432.3 150.2 432.35 149.9 432.35 149.65 432.35 149.35 432.4 149.1 432.4 148.75 432.4 148.4 432.4 148.05 432.4 147.35 432.95 147.05 433.2 147 433.45 146.9 433.7 146.85 433.95 146.85 434.1 146.85 434.2 146.9 434.35 146.9 434.55 146.9 434.7 146.95 434.85 147 435 147.05 435.15 147.05 435.2 147.15 435.3 147.25 435.35 147.35 435.45 147.45 435.55 147.6 435.55 147.75 435.6 147.9 435.6 148.1 435.55 148.65 435.55 149.25 435.5 149.8 435.5 150.35 435.45 150.95 435.4 151.5 435.35 152.1 435.35 152.6 435.8 152.6 436.2 152.55 436.6 152.5 436.95 152.35 437.25 152.3 437.5 152.25 437.8 152.25 438.05 152.25 438.35 152.25 438.55 152.3 438.75 152.4 438.9 152.6 438.95 152.8 439.05 153 439.15 153.25 439.15 153.5 439.15 153.55 439.2 153.65 439.2 153.75 439.25 153.8 439.25 153.95 439.25 154 439.25 154.05 439.25 154.1 439.25 154.35 439.15 154.6 439.1 154.8 439.05 155 438.95 155.2 438.7 155.3 438.45 155.4 438.1 155.4 437.8 155.45 437.5 155.5 437.2 155.55 436.9 155.6 436.25 155.75 435.45 155.75 435.1 155.8 434.7 155.85 434.3 155.9 433.8 155.9 433.3 155.95 432.75 156 432.15 156.05 431.45 156.05 430.15 156.1 428.3 156.1 427.35 156.15 426.25 156.15 425.15 156.15 423.8 156.15 423.45 156.05 423.25 155.9 423 155.75 422.95 155.5 422.75 155.05 422.75 154.6 422.75 154.4 422.8 154.15 422.85 153.95 422.9 153.7 422.95 153.5 423.15 153.35 423.35 153.15 423.7 153 424 153 424.3 153 424.65 153 425 153 425.35 153.05 425.7 153.05 426.05 153.05 426.45 153.05 426.45 152.7 426.4 152.4 426.4 152.05 426.4 151.75 426.35 151.45 426.35 151.15 426.35 150.85 426.35 150.55 426.3 150.3 426.3 150 426.3 149.7 426.3 149.4 426.25 149.1 426.25 148.75 426.25 148.45 426.25 148.1 426.25 147.35 426.75 147.1
M 435.55 157.45
Q 436.45 157.3 437.5 157.3 438.4 157.3 439.3 157.45 440.2 157.55 441.05 157.75 441.85 158 442.55 158.3 443.25 158.65 443.85 159.05 444.35 159.45 444.8 159.95 445.25 160.45 445.6 161 445.85 161.65 446 162.3 446.15 162.95 446.2 163.7 446.2 165.2 445.55 166.3 445.2 166.9 444.8 167.35 444.35 167.85 443.75 168.3 442.6 169.1 441 169.55 440.15 169.75 439.3 169.85 438.4 169.95 437.5 169.95 436.45 169.95 435.55 169.85 434.65 169.75 433.9 169.55 433.1 169.3 432.45 169 431.75 168.7 431.2 168.3 430.6 167.9 430.2 167.4 429.75 166.9 429.45 166.35 429.1 165.8 428.95 165.15 428.8 164.45 428.8 163.7 428.8 162.2 429.45 161 429.75 160.4 430.15 159.95 430.6 159.45 431.2 159.05 431.7 158.65 432.4 158.3 433.05 158 433.85 157.75 434.6 157.55 435.55 157.45
M 451 146.6
Q 450.65 146.25 450.65 145.6 450.65 145.25 450.75 145 450.85 144.75 451.05 144.55 451.2 144.4 451.5 144.3 451.75 144.2 452.1 144.2
L 456.1 144.2 456.1 142.9
Q 456.1 142.55 456.15 142.25 456.25 141.95 456.4 141.75 456.55 141.6 456.85 141.55 457.15 141.45 457.55 141.45 457.9 141.45 458.15 141.55 458.45 141.6 458.65 141.75 458.85 141.95 458.95 142.25 459.1 142.55 459.1 142.9
L 459.1 144.2 462.85 144.2
Q 463.55 144.2 463.9 144.6 464.25 144.95 464.25 145.65 464.25 145.95 464.2 146.2 464.1 146.4 463.95 146.6 463.8 146.8 463.55 146.9 463.25 147 462.9 147
L 462.8 147
Q 461.45 147 460.1 147 458.75 146.95 457.4 146.95 456.05 146.95 454.65 146.95 453.3 146.95 452 146.95 451.65 146.95 451.4 146.85 451.15 146.8 451 146.6
M 456.4 147.95
Q 457 147.9 457.6 147.9 458.25 147.9 458.8 147.95 459.35 148.05 459.85 148.25 460.3 148.45 460.75 148.7 461.2 148.95 461.6 149.25 461.95 149.6 462.2 150 462.45 150.35 462.65 150.8 462.75 151.25 462.85 151.7 462.9 152.15 462.9 152.6 462.9 153.15 462.85 153.65 462.75 154.1 462.55 154.55 462.35 155 462.1 155.35 461.85 155.75 461.55 156.05 461.15 156.35 460.7 156.6 460.25 156.85 459.8 157.05 459.3 157.2 458.75 157.3 458.2 157.4 457.6 157.4 457 157.4 456.4 157.3 455.85 157.2 455.3 157.05 454.75 156.85 454.3 156.6 453.9 156.35 453.55 156.05 453.15 155.75 452.85 155.35 452.55 155 452.35 154.55 452.1 154.1 451.95 153.65 451.85 153.15 451.85 152.6 451.85 152.1 451.95 151.65 452.1 151.2 452.35 150.75 452.55 150.35 452.85 149.95 453.15 149.55 453.55 149.2 453.85 148.9 454.3 148.65 454.75 148.4 455.3 148.25 455.85 148.05 456.4 147.95
M 473.55 141.85
Q 473.8 141.9 474 142.05 474.25 142.15 474.35 142.45 474.45 142.7 474.45 143.1
L 474.45 156
Q 474.45 156.4 474.35 156.65 474.25 156.9 474 157.05 473.8 157.15 473.55 157.25 473.25 157.3 472.9 157.3 472.5 157.3 472.2 157.25 471.9 157.15 471.7 157.05 471.5 156.9 471.35 156.65 471.25 156.4 471.25 156
L 471.25 150.8 469 150.8 469 155.7
Q 469 156.55 468.45 156.8 468.2 156.95 467.9 157 467.6 157.05 467.35 157.05 467 157.05 466.65 157 466.4 156.95 466.15 156.8 465.6 156.55 465.6 155.7
L 465.6 143.65
Q 465.6 142.85 466.15 142.55 466.4 142.45 466.65 142.4 467 142.3 467.35 142.3 467.6 142.3 467.9 142.4 468.2 142.45 468.45 142.55 469 142.85 469 143.65
L 469 147.65 471.25 147.65 471.25 143.1
Q 471.25 142.3 471.7 142.05 471.9 141.9 472.2 141.85 472.5 141.8 472.9 141.8 473.25 141.8 473.55 141.85
M 469 158.25
Q 469.8 158.45 470.45 158.75 471.15 159.05 471.75 159.45 472.9 160.35 473.55 161.4 473.85 161.95 474 162.6 474.15 163.25 474.15 163.95 474.15 164.65 474 165.25 473.85 165.9 473.55 166.4 472.9 167.5 471.75 168.3 471.15 168.7 470.5 169 469.8 169.3 469.05 169.55 468.25 169.75 467.35 169.85 466.45 169.95 465.4 169.95 464.45 169.95 463.6 169.85 462.75 169.75 461.95 169.55 461.15 169.3 460.45 169 459.75 168.7 459.15 168.35 458.55 167.95 458.1 167.5 457.7 167 457.35 166.5 456.75 165.4 456.75 163.95 456.75 163.25 456.9 162.6 457.05 161.95 457.35 161.4 457.7 160.85 458.1 160.35 458.55 159.85 459.15 159.45 459.75 159.05 460.4 158.75 461.1 158.45 461.9 158.25 462.65 158.05 463.55 157.95 464.4 157.85 465.4 157.85 466.4 157.85 467.35 157.95 468.2 158.05 469 158.25
M 453.5 228.45
L 448.7 240.3 443.75 228.45 448.7 231.3 448.85 231.2 448.85 174.7 448.85 231.2 453.5 228.45
M 470.15 165.15
Q 470.5 164.65 470.5 163.95 470.5 163.25 470.15 162.7 469.85 162.15 469.2 161.8 468.5 161.4 467.55 161.2 466.65 161 465.4 161 464.25 161 463.3 161.2 462.4 161.4 461.75 161.8 461.05 162.15 460.75 162.7 460.4 163.25 460.4 163.95 460.4 165.3 461.75 166.05 462.4 166.4 463.3 166.55 464.25 166.75 465.4 166.75 467.85 166.75 469.2 166.05 469.85 165.65 470.15 165.15
M 459.3 151.1
Q 458.95 150.85 458.5 150.7 458.05 150.55 457.55 150.55 457.05 150.55 456.6 150.7 456.15 150.85 455.8 151.1 455.4 151.45 455.2 151.8 455 152.15 455 152.6 455 153.1 455.2 153.45 455.4 153.8 455.8 154.1 456.15 154.4 456.6 154.55 457.05 154.7 457.55 154.7 458.05 154.7 458.5 154.55 458.95 154.4 459.3 154.1 459.7 153.8 459.85 153.45 460.05 153.1 460.05 152.6 460.05 152.15 459.85 151.8 459.7 151.45 459.3 151.1
M 437.5 160.55
Q 436.35 160.55 435.4 160.75 434.45 160.95 433.8 161.35 433.1 161.75 432.75 162.35 432.4 162.9 432.4 163.7 432.4 164.4 432.75 164.95 433.1 165.55 433.8 165.95 434.45 166.35 435.4 166.55 436.35 166.75 437.5 166.75 438.6 166.75 439.55 166.55 440.45 166.35 441.15 165.95 441.85 165.55 442.2 165 442.55 164.45 442.55 163.7 442.55 162.15 441.25 161.35 440.5 160.95 439.6 160.75 438.65 160.55 437.5 160.55 Z"/>

<path fill="#E50182" stroke="none" d="
M 448.7 240.3
L 453.5 228.45 448.85 231.2 448.7 231.3 443.75 228.45 448.7 240.3
M 448.7 70.4
L 448.65 70.5 443.75 82.25 448.7 79.4 448.85 79.5 453.5 82.25 448.75 70.5 448.7 70.4 Z"/>

<path fill="#1E1E1E" stroke="none" d="
M 470.45 158.75
Q 469.8 158.45 469 158.25 468.2 158.05 467.35 157.95 466.4 157.85 465.4 157.85 464.4 157.85 463.55 157.95 462.65 158.05 461.9 158.25 461.1 158.45 460.4 158.75 459.75 159.05 459.15 159.45 458.55 159.85 458.1 160.35 457.7 160.85 457.35 161.4 457.05 161.95 456.9 162.6 456.75 163.25 456.75 163.95 456.75 165.4 457.35 166.5 457.7 167 458.1 167.5 458.55 167.95 459.15 168.35 459.75 168.7 460.45 169 461.15 169.3 461.95 169.55 462.75 169.75 463.6 169.85 464.45 169.95 465.4 169.95 466.45 169.95 467.35 169.85 468.25 169.75 469.05 169.55 469.8 169.3 470.5 169 471.15 168.7 471.75 168.3 472.9 167.5 473.55 166.4 473.85 165.9 474 165.25 474.15 164.65 474.15 163.95 474.15 163.25 474 162.6 473.85 161.95 473.55 161.4 472.9 160.35 471.75 159.45 471.15 159.05 470.45 158.75
M 470.5 163.95
Q 470.5 164.65 470.15 165.15 469.85 165.65 469.2 166.05 467.85 166.75 465.4 166.75 464.25 166.75 463.3 166.55 462.4 166.4 461.75 166.05 460.4 165.3 460.4 163.95 460.4 163.25 460.75 162.7 461.05 162.15 461.75 161.8 462.4 161.4 463.3 161.2 464.25 161 465.4 161 466.65 161 467.55 161.2 468.5 161.4 469.2 161.8 469.85 162.15 470.15 162.7 470.5 163.25 470.5 163.95
M 474 142.05
Q 473.8 141.9 473.55 141.85 473.25 141.8 472.9 141.8 472.5 141.8 472.2 141.85 471.9 141.9 471.7 142.05 471.25 142.3 471.25 143.1
L 471.25 147.65 469 147.65 469 143.65
Q 469 142.85 468.45 142.55 468.2 142.45 467.9 142.4 467.6 142.3 467.35 142.3 467 142.3 466.65 142.4 466.4 142.45 466.15 142.55 465.6 142.85 465.6 143.65
L 465.6 155.7
Q 465.6 156.55 466.15 156.8 466.4 156.95 466.65 157 467 157.05 467.35 157.05 467.6 157.05 467.9 157 468.2 156.95 468.45 156.8 469 156.55 469 155.7
L 469 150.8 471.25 150.8 471.25 156
Q 471.25 156.4 471.35 156.65 471.5 156.9 471.7 157.05 471.9 157.15 472.2 157.25 472.5 157.3 472.9 157.3 473.25 157.3 473.55 157.25 473.8 157.15 474 157.05 474.25 156.9 474.35 156.65 474.45 156.4 474.45 156
L 474.45 143.1
Q 474.45 142.7 474.35 142.45 474.25 142.15 474 142.05
M 457.6 147.9
Q 457 147.9 456.4 147.95 455.85 148.05 455.3 148.25 454.75 148.4 454.3 148.65 453.85 148.9 453.55 149.2 453.15 149.55 452.85 149.95 452.55 150.35 452.35 150.75 452.1 151.2 451.95 151.65 451.85 152.1 451.85 152.6 451.85 153.15 451.95 153.65 452.1 154.1 452.35 154.55 452.55 155 452.85 155.35 453.15 155.75 453.55 156.05 453.9 156.35 454.3 156.6 454.75 156.85 455.3 157.05 455.85 157.2 456.4 157.3 457 157.4 457.6 157.4 458.2 157.4 458.75 157.3 459.3 157.2 459.8 157.05 460.25 156.85 460.7 156.6 461.15 156.35 461.55 156.05 461.85 155.75 462.1 155.35 462.35 155 462.55 154.55 462.75 154.1 462.85 153.65 462.9 153.15 462.9 152.6 462.9 152.15 462.85 151.7 462.75 151.25 462.65 150.8 462.45 150.35 462.2 150 461.95 149.6 461.6 149.25 461.2 148.95 460.75 148.7 460.3 148.45 459.85 148.25 459.35 148.05 458.8 147.95 458.25 147.9 457.6 147.9
M 458.5 150.7
Q 458.95 150.85 459.3 151.1 459.7 151.45 459.85 151.8 460.05 152.15 460.05 152.6 460.05 153.1 459.85 153.45 459.7 153.8 459.3 154.1 458.95 154.4 458.5 154.55 458.05 154.7 457.55 154.7 457.05 154.7 456.6 154.55 456.15 154.4 455.8 154.1 455.4 153.8 455.2 153.45 455 153.1 455 152.6 455 152.15 455.2 151.8 455.4 151.45 455.8 151.1 456.15 150.85 456.6 150.7 457.05 150.55 457.55 150.55 458.05 150.55 458.5 150.7
M 450.65 145.6
Q 450.65 146.25 451 146.6 451.15 146.8 451.4 146.85 451.65 146.95 452 146.95 453.3 146.95 454.65 146.95 456.05 146.95 457.4 146.95 458.75 146.95 460.1 147 461.45 147 462.8 147
L 462.9 147
Q 463.25 147 463.55 146.9 463.8 146.8 463.95 146.6 464.1 146.4 464.2 146.2 464.25 145.95 464.25 145.65 464.25 144.95 463.9 144.6 463.55 144.2 462.85 144.2
L 459.1 144.2 459.1 142.9
Q 459.1 142.55 458.95 142.25 458.85 141.95 458.65 141.75 458.45 141.6 458.15 141.55 457.9 141.45 457.55 141.45 457.15 141.45 456.85 141.55 456.55 141.6 456.4 141.75 456.25 141.95 456.15 142.25 456.1 142.55 456.1 142.9
L 456.1 144.2 452.1 144.2
Q 451.75 144.2 451.5 144.3 451.2 144.4 451.05 144.55 450.85 144.75 450.75 145 450.65 145.25 450.65 145.6
M 437.5 157.3
Q 436.45 157.3 435.55 157.45 434.6 157.55 433.85 157.75 433.05 158 432.4 158.3 431.7 158.65 431.2 159.05 430.6 159.45 430.15 159.95 429.75 160.4 429.45 161 428.8 162.2 428.8 163.7 428.8 164.45 428.95 165.15 429.1 165.8 429.45 166.35 429.75 166.9 430.2 167.4 430.6 167.9 431.2 168.3 431.75 168.7 432.45 169 433.1 169.3 433.9 169.55 434.65 169.75 435.55 169.85 436.45 169.95 437.5 169.95 438.4 169.95 439.3 169.85 440.15 169.75 441 169.55 442.6 169.1 443.75 168.3 444.35 167.85 444.8 167.35 445.2 166.9 445.55 166.3 446.2 165.2 446.2 163.7 446.15 162.95 446 162.3 445.85 161.65 445.6 161 445.25 160.45 444.8 159.95 444.35 159.45 443.85 159.05 443.25 158.65 442.55 158.3 441.85 158 441.05 157.75 440.2 157.55 439.3 157.45 438.4 157.3 437.5 157.3
M 435.4 160.75
Q 436.35 160.55 437.5 160.55 438.65 160.55 439.6 160.75 440.5 160.95 441.25 161.35 442.55 162.15 442.55 163.7 442.55 164.45 442.2 165 441.85 165.55 441.15 165.95 440.45 166.35 439.55 166.55 438.6 166.75 437.5 166.75 436.35 166.75 435.4 166.55 434.45 166.35 433.8 165.95 433.1 165.55 432.75 164.95 432.4 164.4 432.4 163.7 432.4 162.9 432.75 162.35 433.1 161.75 433.8 161.35 434.45 160.95 435.4 160.75
M 427.25 146.9
Q 427 147 426.75 147.1 426.25 147.35 426.25 148.1 426.25 148.45 426.25 148.75 426.25 149.1 426.3 149.4 426.3 149.7 426.3 150 426.3 150.3 426.35 150.55 426.35 150.85 426.35 151.15 426.35 151.45 426.4 151.75 426.4 152.05 426.4 152.4 426.45 152.7 426.45 153.05 426.05 153.05 425.7 153.05 425.35 153.05 425 153 424.65 153 424.3 153 424 153 423.7 153 423.35 153.15 423.15 153.35 422.95 153.5 422.9 153.7 422.85 153.95 422.8 154.15 422.75 154.4 422.75 154.6 422.75 155.05 422.95 155.5 423 155.75 423.25 155.9 423.45 156.05 423.8 156.15 425.15 156.15 426.25 156.15 427.35 156.15 428.3 156.1 430.15 156.1 431.45 156.05 432.15 156.05 432.75 156 433.3 155.95 433.8 155.9 434.3 155.9 434.7 155.85 435.1 155.8 435.45 155.75 436.25 155.75 436.9 155.6 437.2 155.55 437.5 155.5 437.8 155.45 438.1 155.4 438.45 155.4 438.7 155.3 438.95 155.2 439.05 155 439.1 154.8 439.15 154.6 439.25 154.35 439.25 154.1 439.25 154.05 439.25 154 439.25 153.95 439.25 153.8 439.2 153.75 439.2 153.65 439.15 153.55 439.15 153.5 439.15 153.25 439.05 153 438.95 152.8 438.9 152.6 438.75 152.4 438.55 152.3 438.35 152.25 438.05 152.25 437.8 152.25 437.5 152.25 437.25 152.3 436.95 152.35 436.6 152.5 436.2 152.55 435.8 152.6 435.35 152.6 435.35 152.1 435.4 151.5 435.45 150.95 435.5 150.35 435.5 149.8 435.55 149.25 435.55 148.65 435.6 148.1 435.6 147.9 435.55 147.75 435.55 147.6 435.45 147.45 435.35 147.35 435.3 147.25 435.2 147.15 435.15 147.05 435 147.05 434.85 147 434.7 146.95 434.55 146.9 434.35 146.9 434.2 146.9 434.1 146.85 433.95 146.85 433.7 146.85 433.45 146.9 433.2 147 432.95 147.05 432.4 147.35 432.4 148.05 432.4 148.4 432.4 148.75 432.4 149.1 432.35 149.35 432.35 149.65 432.35 149.9 432.3 150.2 432.3 150.45 432.25 150.75 432.25 151.05 432.2 151.35 432.2 151.6 432.15 151.9 432.15 152.2 432.15 152.55 432.15 152.9 431.85 152.9 431.6 152.95 431.4 152.95 431.25 152.95 431.1 152.95 430.95 152.95 430.8 153 430.65 152.95 430.5 153 430.4 153 430.3 153 430.25 153 430.15 153.05 430.05 153.05 429.95 153.05 429.8 153.05 429.75 152.65 429.75 152.3 429.75 151.9 429.75 151.65 429.7 151.35 429.7 151.05 429.65 150.8 429.65 150.55 429.6 150.3 429.6 150 429.55 149.75 429.55 149.45 429.5 149.15 429.45 148.8 429.45 148.45 429.45 148.05 429.4 147.7 429.3 147.45 429.15 147.25 428.95 147.1 428.7 147 428.4 146.9 428.1 146.85 427.8 146.85 427.5 146.85 427.25 146.9
M 423.6 144.5
Q 423.6 144.8 423.7 145.1 423.75 145.35 423.95 145.6 424.05 145.8 424.3 145.95 424.55 146.05 424.95 146.05
L 436.7 146.05
Q 437.1 146.05 437.4 145.95 437.65 145.8 437.75 145.6 437.9 145.1 437.9 144.5 437.9 144.15 437.85 143.85 437.85 143.55 437.75 143.35 437.65 143.15 437.4 143 437.1 142.9 436.7 142.9
L 424.95 142.9
Q 424.2 142.9 423.95 143.35 423.75 143.55 423.7 143.85 423.6 144.15 423.6 144.5
M 446.45 143.3
Q 446.45 142.95 446.3 142.7 446.15 142.45 445.85 142.3 445.3 142.05 444.7 142.05 444.3 142.05 444 142.1 443.7 142.15 443.4 142.3 443.15 142.45 443 142.7 442.85 142.95 442.85 143.3
L 442.85 144.75 440.1 144.75
Q 439.65 144.75 439.4 144.8 439.1 144.9 439.05 145.1 438.95 145.25 438.9 145.55 438.85 145.8 438.85 146.1 438.85 146.45 438.9 146.65 438.95 146.9 439.05 147.05 439.1 147.25 439.4 147.35 439.65 147.45 440.1 147.45
L 442.85 147.45 442.85 149.55 440.1 149.55
Q 439.65 149.55 439.4 149.6 439.1 149.7 439.05 149.9 438.85 150.3 438.85 150.9 438.85 151.55 439.05 151.85 439.1 152.05 439.4 152.1 439.65 152.2 440.1 152.2
L 442.85 152.2 442.85 156.2
Q 442.85 156.6 443 156.85 443.15 157.1 443.4 157.2 443.7 157.35 444 157.4 444.3 157.5 444.7 157.5 445.3 157.5 445.85 157.2 446.15 157.1 446.3 156.85 446.45 156.6 446.45 156.2
L 446.45 143.3 Z"/>
</g>

<path id="Layer0_0_1_STROKES" stroke="#332D2B" stroke-width="3" stroke-linejoin="round" stroke-linecap="butt" fill="none" d="
M 618.95 240.4
L 551.6 70.5
M 346.3 70.5
L 278.95 240.4"/>

<path id="Layer0_0_2_STROKES" stroke="#E50182" stroke-width="2" stroke-linejoin="round" stroke-linecap="butt" fill="none" d="
M 448.85 133.45
L 448.85 79.5
M 448.85 231.2
L 448.85 174.7"/>

<path id="Layer0_0_3_STROKES" stroke="#E50182" stroke-width="3" stroke-linejoin="round" stroke-linecap="butt" fill="none" d="
M 551.6 70.5
L 448.75 70.5
M 278.95 240.4
L 618.95 240.4
M 448.65 70.5
L 346.3 70.5"/>
</defs>

<g transform="matrix( 1, 0, 0, 1, 0,0) ">
<use xlink:href="#Layer0_0_FILL"/>

<use xlink:href="#Layer0_0_1_STROKES"/>

<use xlink:href="#Layer0_0_2_STROKES"/>

<use xlink:href="#Layer0_0_3_STROKES"/>
</g>
</svg>
