
<svg xmlns="http://www.w3.org/2000/svg" version="1.1" xmlns:xlink="http://www.w3.org/1999/xlink" preserveAspectRatio="none" x="0px" y="0px" width="1200px" height="1260px" viewBox="0 0 1200 1260">
<defs>
<path id="Layer0_0_1_STROKES" stroke="#3DC498" stroke-width="7" stroke-linejoin="round" stroke-linecap="round" fill="none" d="
M 630.25 288.85
Q 624.5 303 606.35 311.2 588.15 319.4 573.4 321 558.65 322.6 532.95 324.9 507.2 327.2 493.45 333.15 479.65 339.05 464.8 352.55 449.95 366 450.9 390.95 451.85 415.95 461.95 436.25 472 456.5 492.45 471.3 512.9 486.1 533.3 495.5 553.65 504.9 576.7 507.75 599.75 510.6 625.35 504.9 650.9 499.15 684.3 484.15 717.65 469.15 732.45 458.7 747.2 448.25 767.6 445.2 787.95 442.15 807.55 450.8 827.15 459.5 837.2 475.15 847.25 490.75 855.6 511.25 863.9 531.7 879.2 558.25 894.5 584.75 917.55 596.3 940.65 607.85 966.55 618.45 992.45 629.05 1036.6 626 1059.3 626.85 1071.25 635.3 1083.15 643.75 1091.8 656.35 1100.4 668.95 1102.9 681.5 1105.35 694.05 1098.95 715.75 1092.55 737.45 1060.2 761.95 1027.8 786.4 980.9 788.55 934 790.7 910.3 791.1 886.6 791.45 843.05 788.75 799.45 786 767.85 784.1 736.2 782.2 684.15 775.45 632.05 768.65 598.2 756.05 564.3 743.45 547.4 733.25 530.45 723.05 494.7 709.9 458.95 696.7 429.75 693.7 400.5 690.7 388.55 688.5 376.6 686.25 363.8 681.05 350.95 675.85 341.65 665.95 332.3 656 333.65 634.65 334.95 613.25 352.85 595.25 370.7 577.2 377.75 555.3 384.8 533.4 369.65 513.9 354.45 494.4 336.35 482.7 318.2 470.95 298.5 464.4 278.75 457.8 237.45 454.65 196.1 451.45 157.65 468.4 119.15 485.3 101.65 521.6 89.75 554.95 96 579.05 102.25 603.15 117.45 623.35 132.65 643.5 146.35 653.65 160.05 663.75 184.95 674.6 209.8 685.4 221.15 693.2 232.45 700.95 241.6 710 250.7 719 256.15 741.25 261.55 763.45 258 784.3 254.45 805.15 242.45 821.55 230.4 837.9 225.7 859.6 224.55 878.2 227.55 888.1 230.5 898 239.55 906.4 248.65 914.75 258.95 917.25 269.25 919.65 288.15 917.7 307.05 915.7 338.65 909.5 370.2 903.25 395.7 894.35 421.2 885.4 459.15 879.15 497.1 872.9 559.3 868.15 621.5 863.3 687.6 868 816.4 893.95 839.1 962.65"/>
</defs>

<g transform="matrix( 1, 0, 0, 1, 0,0) ">
<use xlink:href="#Layer0_0_1_STROKES"/>
</g>
</svg>
