
<svg xmlns="http://www.w3.org/2000/svg" version="1.1" xmlns:xlink="http://www.w3.org/1999/xlink" preserveAspectRatio="none" x="0px" y="0px" width="992px" height="459px" viewBox="0 0 992 459">
<defs>
<g id="Layer0_0_FILL">
<path fill="#7A94C2" stroke="none" d="
M 437.55 443.3
L 437.55 424.25
Q 437.55 414.25 427.55 414.25
L 382.5 414.25
Q 372.5 414.25 372.5 424.25
L 372.5 443.3
Q 372.5 453.3 382.5 453.3
L 427.55 453.3
Q 437.55 453.3 437.55 443.3
M 411.7 425.2
Q 411.9 425.55 411.9 426
L 411.9 429.5
Q 411.9 430.4 411.25 430.75 410.95 431 410.55 431.1 410.2 431.2 409.75 431.2
L 407.05 431.2 407.05 432.2 413.85 432.2
Q 414.15 432.2 414.35 432.3 414.5 432.4 414.6 432.6 414.65 432.75 414.7 433 414.75 433.2 414.75 433.45 414.75 433.7 414.7 433.9 414.65 434.15 414.6 434.3 414.5 434.55 414.35 434.65 414.15 434.7 413.85 434.7
L 397.1 434.7
Q 396.8 434.7 396.6 434.65 396.4 434.55 396.3 434.3 396.2 434.15 396.15 433.9 396.15 433.7 396.15 433.45 396.15 433.2 396.15 433 396.2 432.75 396.3 432.6 396.4 432.4 396.6 432.3 396.8 432.2 397.1 432.2
L 404.25 432.2 404.25 431.2 401.05 431.2
Q 400.65 431.2 400.25 431.1 399.9 431 399.6 430.75 399.3 430.6 399.15 430.25 399 429.95 399 429.5
L 399 426
Q 399 425.55 399.15 425.2 399.3 424.9 399.6 424.6 399.9 424.4 400.25 424.25 400.65 424.15 401.05 424.15
L 409.75 424.15
Q 410.2 424.15 410.55 424.25 410.95 424.4 411.25 424.6 411.55 424.9 411.7 425.2
M 410.3 436.6
L 410.3 437.35
Q 410.3 437.55 410.3 437.8 410.35 438.05 410.4 438.3 410.45 438.55 410.55 438.8 410.65 439.05 410.85 439.3 410.95 439.5 411.1 439.65 411.25 439.85 411.35 439.95 411.5 440.1 411.65 440.2 411.8 440.35 412.05 440.45 412.35 440.7 412.5 440.95 412.7 441.2 412.7 441.55 412.7 441.9 412.45 442.15 412.25 442.4 411.95 442.55 411.7 442.7 411.35 442.7 411.2 442.7 411.05 442.65 410.9 442.6 410.75 442.5 410.45 442.3 410.2 442.1 410 441.9 409.8 441.75 409.6 441.55 409.35 441.35 409.15 441.15 408.95 440.85 408.85 441 408.75 441.1 408.65 441.2 408.6 441.3 408.5 441.4 408.45 441.5 408.35 441.6 408.3 441.7 408.15 441.8 408.05 441.85 407.95 441.95 407.85 442.05 407.75 442.15 407.65 442.25 407.55 442.35 407.4 442.45 407.2 442.55 407.05 442.65 406.9 442.7 406.8 442.7 406.65 442.7 406.5 442.65 406.4 442.6 406.25 442.55 406.1 442.5 406 442.4 405.85 442.3 405.75 442.15 405.6 442 405.55 441.8 405.5 441.6 405.5 441.4 405.5 441.1 405.6 440.85 405.75 440.65 406 440.45
L 406.1 440.35
Q 406.3 440.2 406.45 440.05 406.5 440.05 406.6 440 406.65 439.95 406.7 439.95 406.75 439.85 406.8 439.8 406.85 439.7 406.9 439.65 406.9 439.55 406.95 439.5 407 439.4 407.1 439.3 407.25 439.1 407.35 438.85 407.5 438.6 407.6 438.3 407.65 438.05 407.65 437.8 407.7 437.55 407.75 437.35
L 407.75 436.6
Q 407.75 436.45 407.75 436.35 407.8 436.25 407.85 436.2 407.85 436.1 407.95 436.05 408 435.95 408.1 435.9 408.3 435.85 408.55 435.8 408.65 435.8 408.75 435.8 408.85 435.8 408.95 435.8 409.25 435.8 409.45 435.8 409.7 435.85 409.9 435.9 410.1 436 410.2 436.15 410.3 436.35 410.3 436.6
M 400.1 435.75
L 402.6 435.75
Q 403.05 435.75 403.35 435.9 403.65 436.05 403.85 436.3 404.05 436.6 404.15 437 404.25 437.35 404.25 437.75
L 404.25 441.95
Q 404.25 442.05 404.25 442.2 404.2 442.3 404.15 442.4 404.1 442.5 404 442.6 403.95 442.65 403.85 442.7 403.7 442.75 403.6 442.8 403.45 442.85 403.4 442.9 403.15 443 402.85 443 402.7 443 402.5 442.9 402.3 442.85 402.05 442.7 401.65 442.4 401.65 441.95
L 401.65 438.15 400.1 438.15
Q 399.9 438.15 399.7 438.05 399.5 438 399.4 437.8 399.25 437.65 399.15 437.45 399.1 437.25 399.1 437 399.1 436.75 399.15 436.55 399.25 436.3 399.4 436.1 399.5 435.95 399.7 435.85 399.9 435.75 400.1 435.75
M 409 428.65
L 409 426.65 401.85 426.65 401.85 428.65 409 428.65
M 787.55 443.3
L 787.55 424.25
Q 787.55 414.25 777.55 414.25
L 712.5 414.25
Q 702.5 414.25 702.5 424.25
L 702.5 443.3
Q 702.5 453.3 712.5 453.3
L 777.55 453.3
Q 787.55 453.3 787.55 443.3
M 773.05 424.4
Q 773.1 424.65 773.1 424.95
L 773.1 441.75
Q 773.1 442.3 772.75 442.6 772.55 442.75 772.35 442.85 772.15 442.9 771.9 442.9 771.6 442.9 771.35 442.85 771.1 442.75 770.95 442.6 770.55 442.3 770.55 441.75
L 770.55 424.95
Q 770.55 424.65 770.65 424.4 770.75 424.15 770.95 424 771.1 423.85 771.35 423.8 771.6 423.7 771.9 423.7 772.15 423.7 772.35 423.8 772.55 423.85 772.75 424 772.95 424.15 773.05 424.4
M 744.5 425.3
Q 744.75 425.3 744.95 425.3 745.2 425.35 745.4 425.4 745.6 425.5 745.75 425.65 745.95 425.75 746.05 425.9 746.25 426.05 746.4 426.2 746.55 426.35 746.65 426.55 746.75 426.7 746.8 426.95 746.85 427.1 746.85 427.35
L 746.85 429.6 749.8 429.6 749.8 424.5
Q 749.8 424.35 749.85 424.25 749.9 424.1 749.95 424 750.1 423.8 750.35 423.7 750.4 423.65 750.5 423.6 750.65 423.6 750.8 423.55 750.95 423.55 751.05 423.5 751.2 423.5 751.3 423.5 751.6 423.5 751.8 423.55 752.05 423.6 752.25 423.7 752.65 423.9 752.65 424.5
L 752.65 442.3
Q 752.65 442.9 752.25 443.1 752.05 443.2 751.8 443.25 751.6 443.3 751.3 443.3 751.2 443.3 751.05 443.3 750.95 443.25 750.8 443.25 750.65 443.2 750.5 443.2 750.4 443.15 750.35 443.1 750.25 443.05 750.15 442.95 750.05 442.9 749.95 442.8 749.9 442.7 749.85 442.6 749.8 442.45 749.8 442.3
L 749.8 432.1 746.85 432.1 746.85 435.5
Q 746.85 435.75 746.8 435.9 746.75 436.1 746.65 436.3 746.55 436.5 746.4 436.65 746.25 436.8 746.05 436.95 745.95 437.1 745.75 437.2 745.6 437.35 745.4 437.4 745.2 437.5 744.95 437.5 744.75 437.55 744.5 437.55
L 739.85 437.55
Q 739.65 437.55 739.45 437.5 739.25 437.5 739.1 437.4 738.9 437.35 738.7 437.2 738.55 437.1 738.4 436.95 738.25 436.8 738.15 436.65 738.05 436.5 738 436.3 737.9 436.1 737.85 435.9 737.8 435.75 737.8 435.5
L 737.8 427.35
Q 737.8 427.1 737.85 426.95 737.9 426.7 738 426.55 738.05 426.35 738.15 426.2 738.25 426.05 738.4 425.9 738.55 425.75 738.7 425.65 738.9 425.5 739.1 425.4 739.25 425.35 739.45 425.3 739.65 425.3 739.85 425.3
L 744.5 425.3
M 730.7 424.3
Q 730.8 424.55 730.8 424.8
L 730.8 430.65 732.7 430.65
Q 733 430.65 733.2 430.75 733.4 430.85 733.55 431.05 733.65 431.2 733.75 431.45 733.8 431.65 733.8 431.9 733.8 432.15 733.75 432.35 733.65 432.6 733.55 432.75 733.4 432.95 733.2 433.05 733 433.15 732.7 433.15
L 730.8 433.15 730.8 442.1
Q 730.8 442.4 730.7 442.65 730.6 442.85 730.35 443 730.15 443.15 729.9 443.25 729.65 443.3 729.4 443.3 729.05 443.3 728.8 443.25 728.55 443.15 728.35 443 728.15 442.85 728 442.65 727.9 442.4 727.95 442.1
L 727.95 424.8
Q 727.9 424.55 728 424.3 728.15 424.05 728.35 423.9 728.55 423.75 728.8 423.65 729.05 423.6 729.4 423.6 729.65 423.6 729.9 423.65 730.15 423.75 730.35 423.9 730.6 424.05 730.7 424.3
M 766.85 425.45
Q 767.1 425.45 767.35 425.55 767.5 425.65 767.65 425.8 767.7 426 767.75 426.2 767.8 426.45 767.8 426.65 767.8 427.2 767.65 427.55 767.5 427.75 767.35 427.8 767.1 427.9 766.85 427.9
L 764.45 427.9 764.45 428.85
Q 764.45 429.8 764.65 430.65 764.85 431.55 765.3 432.35 765.75 433.1 766.4 433.85 767.05 434.55 767.95 435.2 768.1 435.3 768.2 435.45 768.3 435.55 768.35 435.6 768.4 435.75 768.4 435.85 768.4 436 768.4 436.1 768.35 436.2 768.3 436.35 768.25 436.45 768.15 436.55 768.1 436.7 768 436.75 767.9 436.85 767.85 436.95 767.75 437.15 767.6 437.3 767.45 437.4 767.25 437.45 767.05 437.5 766.85 437.45 766.6 437.4 766.4 437.2 765.8 436.95 765.35 436.5 764.85 436.1 764.45 435.6 764.05 435.1 763.7 434.55 763.35 434.05 763.1 433.5 762.8 434.15 762.4 434.65 762.05 435.15 761.65 435.6 760.8 436.5 759.75 437.35
L 759.8 437.35
Q 759.7 437.45 759.6 437.45 759.5 437.5 759.35 437.5 759.25 437.5 759.1 437.5 759 437.5 758.95 437.45 758.8 437.4 758.7 437.35 758.6 437.3 758.5 437.2 758.35 437.15 758.3 437.05 758.2 436.95 758.15 436.85 758 436.7 757.9 436.45 757.8 436.3 757.75 436.1 757.65 435.7 758.15 435.35
L 758.45 435.1 758.4 435.15
Q 759.15 434.55 759.75 433.85 760.4 433.15 760.8 432.35 761.2 431.6 761.4 430.7 761.6 429.85 761.6 428.85
L 761.6 427.9 759.1 427.9
Q 758.55 427.9 758.35 427.55 758.15 427.2 758.15 426.65 758.15 426.45 758.2 426.2 758.25 426 758.35 425.8 758.45 425.65 758.65 425.55 758.85 425.45 759.1 425.45
L 766.85 425.45
M 719.3 425.8
Q 719.35 425.9 719.4 426.05 719.45 426.15 719.5 426.25
L 719.5 434.4
Q 719.9 434.4 720.3 434.4 720.75 434.4 721.2 434.35 721.65 434.35 722.05 434.35 722.5 434.3 722.95 434.3 723.35 434.25 723.75 434.2 724.15 434.2 724.55 434.15 724.95 434.1 725.3 434.05 725.7 434 726.05 433.95
L 726 433.95
Q 726.35 433.9 726.65 433.95 726.9 434 727.05 434.15 727.2 434.3 727.3 434.5 727.4 434.7 727.4 435 727.45 435.2 727.4 435.45 727.4 435.65 727.3 435.85 727.2 436.05 727 436.2 726.8 436.3 726.55 436.4 726.15 436.45 725.75 436.5 725.35 436.5 724.95 436.55 724.5 436.6 724.05 436.65 723.6 436.65 723.1 436.7 722.65 436.75 722.15 436.75 721.65 436.8 721.15 436.8 720.65 436.85 720.2 436.85 719.8 436.9 719.3 436.9
L 719.25 436.9
Q 719.1 436.9 718.9 436.9 718.7 436.85 718.5 436.85 718.25 436.8 718.05 436.75 717.8 436.65 717.6 436.55 717.4 436.4 717.2 436.25 717 436.05 716.9 435.8 716.7 435.6 716.65 435.25 716.6 434.95 716.6 434.55
L 716.6 426.35
Q 716.6 425.75 717.05 425.5 717.25 425.35 717.45 425.3 717.7 425.2 717.95 425.2 718.05 425.2 718.15 425.25 718.25 425.25 718.4 425.3 718.65 425.35 718.9 425.45 719 425.5 719.05 425.6 719.15 425.7 719.3 425.8
M 744.05 427.95
L 740.65 427.95 740.65 435.05 744.05 435.05 744.05 427.95 Z"/>

<path fill="#FFFFFF" stroke="none" d="
M 402.6 435.75
L 400.1 435.75
Q 399.9 435.75 399.7 435.85 399.5 435.95 399.4 436.1 399.25 436.3 399.15 436.55 399.1 436.75 399.1 437 399.1 437.25 399.15 437.45 399.25 437.65 399.4 437.8 399.5 438 399.7 438.05 399.9 438.15 400.1 438.15
L 401.65 438.15 401.65 441.95
Q 401.65 442.4 402.05 442.7 402.3 442.85 402.5 442.9 402.7 443 402.85 443 403.15 443 403.4 442.9 403.45 442.85 403.6 442.8 403.7 442.75 403.85 442.7 403.95 442.65 404 442.6 404.1 442.5 404.15 442.4 404.2 442.3 404.25 442.2 404.25 442.05 404.25 441.95
L 404.25 437.75
Q 404.25 437.35 404.15 437 404.05 436.6 403.85 436.3 403.65 436.05 403.35 435.9 403.05 435.75 402.6 435.75
M 410.3 437.35
L 410.3 436.6
Q 410.3 436.35 410.2 436.15 410.1 436 409.9 435.9 409.7 435.85 409.45 435.8 409.25 435.8 408.95 435.8 408.85 435.8 408.75 435.8 408.65 435.8 408.55 435.8 408.3 435.85 408.1 435.9 408 435.95 407.95 436.05 407.85 436.1 407.85 436.2 407.8 436.25 407.75 436.35 407.75 436.45 407.75 436.6
L 407.75 437.35
Q 407.7 437.55 407.65 437.8 407.65 438.05 407.6 438.3 407.5 438.6 407.35 438.85 407.25 439.1 407.1 439.3 407 439.4 406.95 439.5 406.9 439.55 406.9 439.65 406.85 439.7 406.8 439.8 406.75 439.85 406.7 439.95 406.65 439.95 406.6 440 406.5 440.05 406.45 440.05 406.3 440.2 406.1 440.35
L 406 440.45
Q 405.75 440.65 405.6 440.85 405.5 441.1 405.5 441.4 405.5 441.6 405.55 441.8 405.6 442 405.75 442.15 405.85 442.3 406 442.4 406.1 442.5 406.25 442.55 406.4 442.6 406.5 442.65 406.65 442.7 406.8 442.7 406.9 442.7 407.05 442.65 407.2 442.55 407.4 442.45 407.55 442.35 407.65 442.25 407.75 442.15 407.85 442.05 407.95 441.95 408.05 441.85 408.15 441.8 408.3 441.7 408.35 441.6 408.45 441.5 408.5 441.4 408.6 441.3 408.65 441.2 408.75 441.1 408.85 441 408.95 440.85 409.15 441.15 409.35 441.35 409.6 441.55 409.8 441.75 410 441.9 410.2 442.1 410.45 442.3 410.75 442.5 410.9 442.6 411.05 442.65 411.2 442.7 411.35 442.7 411.7 442.7 411.95 442.55 412.25 442.4 412.45 442.15 412.7 441.9 412.7 441.55 412.7 441.2 412.5 440.95 412.35 440.7 412.05 440.45 411.8 440.35 411.65 440.2 411.5 440.1 411.35 439.95 411.25 439.85 411.1 439.65 410.95 439.5 410.85 439.3 410.65 439.05 410.55 438.8 410.45 438.55 410.4 438.3 410.35 438.05 410.3 437.8 410.3 437.55 410.3 437.35
M 411.9 426
Q 411.9 425.55 411.7 425.2 411.55 424.9 411.25 424.6 410.95 424.4 410.55 424.25 410.2 424.15 409.75 424.15
L 401.05 424.15
Q 400.65 424.15 400.25 424.25 399.9 424.4 399.6 424.6 399.3 424.9 399.15 425.2 399 425.55 399 426
L 399 429.5
Q 399 429.95 399.15 430.25 399.3 430.6 399.6 430.75 399.9 431 400.25 431.1 400.65 431.2 401.05 431.2
L 404.25 431.2 404.25 432.2 397.1 432.2
Q 396.8 432.2 396.6 432.3 396.4 432.4 396.3 432.6 396.2 432.75 396.15 433 396.15 433.2 396.15 433.45 396.15 433.7 396.15 433.9 396.2 434.15 396.3 434.3 396.4 434.55 396.6 434.65 396.8 434.7 397.1 434.7
L 413.85 434.7
Q 414.15 434.7 414.35 434.65 414.5 434.55 414.6 434.3 414.65 434.15 414.7 433.9 414.75 433.7 414.75 433.45 414.75 433.2 414.7 433 414.65 432.75 414.6 432.6 414.5 432.4 414.35 432.3 414.15 432.2 413.85 432.2
L 407.05 432.2 407.05 431.2 409.75 431.2
Q 410.2 431.2 410.55 431.1 410.95 431 411.25 430.75 411.9 430.4 411.9 429.5
L 411.9 426
M 409 426.65
L 409 428.65 401.85 428.65 401.85 426.65 409 426.65
M 719.4 426.05
Q 719.35 425.9 719.3 425.8 719.15 425.7 719.05 425.6 719 425.5 718.9 425.45 718.65 425.35 718.4 425.3 718.25 425.25 718.15 425.25 718.05 425.2 717.95 425.2 717.7 425.2 717.45 425.3 717.25 425.35 717.05 425.5 716.6 425.75 716.6 426.35
L 716.6 434.55
Q 716.6 434.95 716.65 435.25 716.7 435.6 716.9 435.8 717 436.05 717.2 436.25 717.4 436.4 717.6 436.55 717.8 436.65 718.05 436.75 718.25 436.8 718.5 436.85 718.7 436.85 718.9 436.9 719.1 436.9 719.25 436.9
L 719.3 436.9
Q 719.8 436.9 720.2 436.85 720.65 436.85 721.15 436.8 721.65 436.8 722.15 436.75 722.65 436.75 723.1 436.7 723.6 436.65 724.05 436.65 724.5 436.6 724.95 436.55 725.35 436.5 725.75 436.5 726.15 436.45 726.55 436.4 726.8 436.3 727 436.2 727.2 436.05 727.3 435.85 727.4 435.65 727.4 435.45 727.45 435.2 727.4 435 727.4 434.7 727.3 434.5 727.2 434.3 727.05 434.15 726.9 434 726.65 433.95 726.35 433.9 726 433.95
L 726.05 433.95
Q 725.7 434 725.3 434.05 724.95 434.1 724.55 434.15 724.15 434.2 723.75 434.2 723.35 434.25 722.95 434.3 722.5 434.3 722.05 434.35 721.65 434.35 721.2 434.35 720.75 434.4 720.3 434.4 719.9 434.4 719.5 434.4
L 719.5 426.25
Q 719.45 426.15 719.4 426.05
M 767.35 425.55
Q 767.1 425.45 766.85 425.45
L 759.1 425.45
Q 758.85 425.45 758.65 425.55 758.45 425.65 758.35 425.8 758.25 426 758.2 426.2 758.15 426.45 758.15 426.65 758.15 427.2 758.35 427.55 758.55 427.9 759.1 427.9
L 761.6 427.9 761.6 428.85
Q 761.6 429.85 761.4 430.7 761.2 431.6 760.8 432.35 760.4 433.15 759.75 433.85 759.15 434.55 758.4 435.15
L 758.45 435.1 758.15 435.35
Q 757.65 435.7 757.75 436.1 757.8 436.3 757.9 436.45 758 436.7 758.15 436.85 758.2 436.95 758.3 437.05 758.35 437.15 758.5 437.2 758.6 437.3 758.7 437.35 758.8 437.4 758.95 437.45 759 437.5 759.1 437.5 759.25 437.5 759.35 437.5 759.5 437.5 759.6 437.45 759.7 437.45 759.8 437.35
L 759.75 437.35
Q 760.8 436.5 761.65 435.6 762.05 435.15 762.4 434.65 762.8 434.15 763.1 433.5 763.35 434.05 763.7 434.55 764.05 435.1 764.45 435.6 764.85 436.1 765.35 436.5 765.8 436.95 766.4 437.2 766.6 437.4 766.85 437.45 767.05 437.5 767.25 437.45 767.45 437.4 767.6 437.3 767.75 437.15 767.85 436.95 767.9 436.85 768 436.75 768.1 436.7 768.15 436.55 768.25 436.45 768.3 436.35 768.35 436.2 768.4 436.1 768.4 436 768.4 435.85 768.4 435.75 768.35 435.6 768.3 435.55 768.2 435.45 768.1 435.3 767.95 435.2 767.05 434.55 766.4 433.85 765.75 433.1 765.3 432.35 764.85 431.55 764.65 430.65 764.45 429.8 764.45 428.85
L 764.45 427.9 766.85 427.9
Q 767.1 427.9 767.35 427.8 767.5 427.75 767.65 427.55 767.8 427.2 767.8 426.65 767.8 426.45 767.75 426.2 767.7 426 767.65 425.8 767.5 425.65 767.35 425.55
M 730.8 424.8
Q 730.8 424.55 730.7 424.3 730.6 424.05 730.35 423.9 730.15 423.75 729.9 423.65 729.65 423.6 729.4 423.6 729.05 423.6 728.8 423.65 728.55 423.75 728.35 423.9 728.15 424.05 728 424.3 727.9 424.55 727.95 424.8
L 727.95 442.1
Q 727.9 442.4 728 442.65 728.15 442.85 728.35 443 728.55 443.15 728.8 443.25 729.05 443.3 729.4 443.3 729.65 443.3 729.9 443.25 730.15 443.15 730.35 443 730.6 442.85 730.7 442.65 730.8 442.4 730.8 442.1
L 730.8 433.15 732.7 433.15
Q 733 433.15 733.2 433.05 733.4 432.95 733.55 432.75 733.65 432.6 733.75 432.35 733.8 432.15 733.8 431.9 733.8 431.65 733.75 431.45 733.65 431.2 733.55 431.05 733.4 430.85 733.2 430.75 733 430.65 732.7 430.65
L 730.8 430.65 730.8 424.8
M 744.95 425.3
Q 744.75 425.3 744.5 425.3
L 739.85 425.3
Q 739.65 425.3 739.45 425.3 739.25 425.35 739.1 425.4 738.9 425.5 738.7 425.65 738.55 425.75 738.4 425.9 738.25 426.05 738.15 426.2 738.05 426.35 738 426.55 737.9 426.7 737.85 426.95 737.8 427.1 737.8 427.35
L 737.8 435.5
Q 737.8 435.75 737.85 435.9 737.9 436.1 738 436.3 738.05 436.5 738.15 436.65 738.25 436.8 738.4 436.95 738.55 437.1 738.7 437.2 738.9 437.35 739.1 437.4 739.25 437.5 739.45 437.5 739.65 437.55 739.85 437.55
L 744.5 437.55
Q 744.75 437.55 744.95 437.5 745.2 437.5 745.4 437.4 745.6 437.35 745.75 437.2 745.95 437.1 746.05 436.95 746.25 436.8 746.4 436.65 746.55 436.5 746.65 436.3 746.75 436.1 746.8 435.9 746.85 435.75 746.85 435.5
L 746.85 432.1 749.8 432.1 749.8 442.3
Q 749.8 442.45 749.85 442.6 749.9 442.7 749.95 442.8 750.05 442.9 750.15 442.95 750.25 443.05 750.35 443.1 750.4 443.15 750.5 443.2 750.65 443.2 750.8 443.25 750.95 443.25 751.05 443.3 751.2 443.3 751.3 443.3 751.6 443.3 751.8 443.25 752.05 443.2 752.25 443.1 752.65 442.9 752.65 442.3
L 752.65 424.5
Q 752.65 423.9 752.25 423.7 752.05 423.6 751.8 423.55 751.6 423.5 751.3 423.5 751.2 423.5 751.05 423.5 750.95 423.55 750.8 423.55 750.65 423.6 750.5 423.6 750.4 423.65 750.35 423.7 750.1 423.8 749.95 424 749.9 424.1 749.85 424.25 749.8 424.35 749.8 424.5
L 749.8 429.6 746.85 429.6 746.85 427.35
Q 746.85 427.1 746.8 426.95 746.75 426.7 746.65 426.55 746.55 426.35 746.4 426.2 746.25 426.05 746.05 425.9 745.95 425.75 745.75 425.65 745.6 425.5 745.4 425.4 745.2 425.35 744.95 425.3
M 740.65 427.95
L 744.05 427.95 744.05 435.05 740.65 435.05 740.65 427.95
M 773.1 424.95
Q 773.1 424.65 773.05 424.4 772.95 424.15 772.75 424 772.55 423.85 772.35 423.8 772.15 423.7 771.9 423.7 771.6 423.7 771.35 423.8 771.1 423.85 770.95 424 770.75 424.15 770.65 424.4 770.55 424.65 770.55 424.95
L 770.55 441.75
Q 770.55 442.3 770.95 442.6 771.1 442.75 771.35 442.85 771.6 442.9 771.9 442.9 772.15 442.9 772.35 442.85 772.55 442.75 772.75 442.6 773.1 442.3 773.1 441.75
L 773.1 424.95
M 650.95 225.95
L 650.95 195.9
Q 650.95 180.9 635.95 180.9
L 618 180.9 485.95 180.9
Q 470.95 180.9 470.95 195.9
L 470.95 225.95
Q 470.95 240.95 485.95 240.95
L 618 240.95 635.95 240.95
Q 650.95 240.95 650.95 225.95
M 650.95 315.95
L 650.95 285.9
Q 650.95 270.9 635.95 270.9
L 618 270.9 595.95 270.9
Q 580.95 270.9 580.95 285.9
L 580.95 315.95
Q 580.95 330.95 595.95 330.95
L 618 330.95 635.95 330.95
Q 650.95 330.95 650.95 315.95
M 649.6 83.95
L 649.6 53.9
Q 649.6 38.9 634.6 38.9
L 616.65 38.9 594.6 38.9
Q 579.6 38.9 579.6 53.9
L 579.6 83.95
Q 579.6 98.95 594.6 98.95
L 616.65 98.95 634.6 98.95
Q 649.6 98.95 649.6 83.95
M 827.65 180.9
Q 812.65 180.9 812.65 195.9
L 812.65 225.95
Q 812.65 240.95 827.65 240.95
L 849.7 240.95 867.65 240.95
Q 882.65 240.95 882.65 225.95
L 882.65 195.9
Q 882.65 180.9 867.65 180.9
L 849.7 180.9 827.65 180.9 Z"/>

<path fill="#FEF5E0" stroke="none" d="
M 321 15
Q 321 0 306 0
L 15 0
Q 0 0 0 15
L 0 348.95
Q 0 363.95 15 363.95
L 306 363.95
Q 321 363.95 321 348.95
L 321 15
M 251.25 91.95
Q 251.35 92.1 251.35 92.3
L 251.35 95.35
Q 251.35 95.6 251.25 95.75 251.1 95.95 250.85 95.95
L 239.7 95.95 239.55 103.35
Q 241.15 103 243.1 103 245.1 103 246.85 103.6 248.6 104.25 249.9 105.4 251.2 106.6 251.95 108.3 252.7 109.95 252.7 112.05 252.7 117.1 249.55 119.9 248.15 121.2 246.05 121.85 244 122.5 241.7 122.5 241.3 122.5 240.45 122.45 239.65 122.35 238.7 122.25 237.75 122.1 236.85 121.85 235.9 121.65 235.25 121.35 235 121.15 234.95 121.05 234.95 120.9 234.95 120.6
L 234.95 117.35
Q 234.95 116.65 235.8 117.05 236.35 117.35 237.15 117.6 237.95 117.8 238.8 118 239.65 118.15 240.45 118.2 241.3 118.3 242 118.3 244.7 118.3 246.4 116.75 248.2 115.25 248.2 112.55 248.2 109.95 246.75 108.45 245.35 106.9 242.05 106.9 240.75 106.9 239.35 107.2 237.95 107.45 236.7 107.9 235.15 108.55 235.15 107.2
L 235.35 92.45
Q 235.35 92 235.5 91.9 235.6 91.75 236.2 91.75
L 250.85 91.75
Q 251.1 91.75 251.25 91.95
M 259.4 96.75
Q 260.5 94.5 262.45 93 264.4 91.55 267.6 91.55 269.65 91.55 271.2 92.2 272.8 92.9 273.85 94.05 275 95.25 275.7 96.8 276.4 98.35 276.8 100.05 277.2 101.75 277.35 103.55 277.55 105.3 277.55 106.95 277.55 110.6 276.95 113.5 276.35 116.4 275.1 118.35 273.85 120.3 272 121.4 270.15 122.4 267.6 122.4 262.45 122.4 260 118.35 257.55 114.3 257.55 106.95 257.55 104.5 257.9 101.75 258.3 99.05 259.4 96.75
M 212.15 97.7
L 218.3 92.05
Q 218.35 91.95 218.55 91.9 218.75 91.8 218.9 91.8
L 221 91.8
Q 221.7 91.8 221.8 91.95 221.95 92.1 221.95 92.9
L 221.95 121.7
Q 221.95 122.2 221.45 122.2
L 218.25 122.2
Q 217.7 122.2 217.7 121.7
L 217.7 98 214.75 100.6
Q 214.5 100.75 214.25 100.75 214 100.8 213.85 100.65
L 212.05 98.5
Q 211.9 98.35 211.95 98.1 211.95 97.9 212.15 97.7
M 193.7 101.3
L 193.7 104.45
Q 193.7 104.65 193.55 104.8 193.4 104.95 193.2 104.95
L 172.1 104.95
Q 171.9 104.95 171.75 104.8 171.6 104.65 171.6 104.45
L 171.6 101.3
Q 171.6 101.1 171.75 100.95 171.9 100.8 172.1 100.8
L 193.2 100.8
Q 193.4 100.8 193.55 100.95 193.7 101.1 193.7 101.3
M 193.55 109.25
Q 193.7 109.4 193.7 109.6
L 193.7 112.75
Q 193.7 113 193.55 113.1 193.4 113.25 193.2 113.25
L 172.1 113.25
Q 171.9 113.25 171.75 113.1 171.6 113 171.6 112.75
L 171.6 109.6
Q 171.6 109.4 171.75 109.25 171.9 109.15 172.1 109.15
L 193.2 109.15
Q 193.4 109.15 193.55 109.25
M 171.75 180.95
Q 171.9 180.8 172.1 180.8
L 193.2 180.8
Q 193.4 180.8 193.55 180.95 193.7 181.1 193.7 181.3
L 193.7 184.45
Q 193.7 184.65 193.55 184.8 193.4 184.95 193.2 184.95
L 172.1 184.95
Q 171.9 184.95 171.75 184.8 171.6 184.65 171.6 184.45
L 171.6 181.3
Q 171.6 181.1 171.75 180.95
M 171.75 193.1
Q 171.6 193 171.6 192.75
L 171.6 189.6
Q 171.6 189.4 171.75 189.25 171.9 189.15 172.1 189.15
L 193.2 189.15
Q 193.4 189.15 193.55 189.25 193.7 189.4 193.7 189.6
L 193.7 192.75
Q 193.7 193 193.55 193.1 193.4 193.25 193.2 193.25
L 172.1 193.25
Q 171.9 193.25 171.75 193.1
M 218.9 171.8
L 221 171.8
Q 221.7 171.8 221.8 171.95 221.95 172.1 221.95 172.9
L 221.95 201.7
Q 221.95 202.2 221.45 202.2
L 218.25 202.2
Q 217.7 202.2 217.7 201.7
L 217.7 178 214.75 180.6
Q 214.5 180.75 214.25 180.75 214 180.8 213.85 180.65
L 212.05 178.5
Q 211.9 178.35 211.95 178.1 211.95 177.9 212.15 177.7
L 218.3 172.05
Q 218.35 171.95 218.55 171.9 218.75 171.8 218.9 171.8
M 234 179.05
Q 234 177.35 234.75 175.95 235.5 174.55 236.75 173.55 238 172.55 239.7 172 241.4 171.45 243.35 171.45 245.35 171.45 247.05 171.95 248.75 172.5 249.95 173.45 251.15 174.4 251.85 175.8 252.55 177.2 252.55 178.95 252.55 180.95 251.3 182.75 250.05 184.5 247.45 186.3 248.85 187.15 250 187.9 251.1 188.7 251.9 189.6 252.7 190.5 253.1 191.55 253.55 192.55 253.55 193.95 253.55 196.1 252.65 197.7 251.8 199.35 250.4 200.4 249 201.45 247.1 202 245.3 202.55 243.35 202.55 241.55 202.55 239.7 202 237.9 201.45 236.45 200.4 235 199.35 234.1 197.7 233.2 196.1 233.2 193.95 233.2 192.45 233.65 191.3 234.2 190.15 235 189.25 235.8 188.35 236.9 187.65 238 186.95 239.2 186.35 236.8 184.95 235.4 183.15 234 181.35 234 179.05
M 267.6 171.55
Q 269.65 171.55 271.2 172.2 272.8 172.9 273.85 174.05 275 175.25 275.7 176.8 276.4 178.35 276.8 180.05 277.2 181.75 277.35 183.55 277.55 185.3 277.55 186.95 277.55 190.6 276.95 193.5 276.35 196.4 275.1 198.35 273.85 200.3 272 201.4 270.15 202.4 267.6 202.4 262.45 202.4 260 198.35 257.55 194.3 257.55 186.95 257.55 184.5 257.9 181.75 258.3 179.05 259.4 176.75 260.5 174.5 262.45 173 264.4 171.55 267.6 171.55
M 118.8 97.45
Q 119.05 97.45 119.25 97.65
L 120.85 99.35
Q 121.05 99.55 121.05 99.85 121.05 100.15 120.85 100.3
L 113.6 107.6 121.05 115.1
Q 121.3 115.3 121.3 115.55 121.3 115.75 121.05 115.95
L 119.4 117.75
Q 119.2 117.9 118.95 117.9 118.65 117.9 118.45 117.75
L 111 110.25 103.45 117.75
Q 102.85 118.25 102.55 117.75
L 100.85 116.05
Q 100.65 115.85 100.65 115.6 100.65 115.3 100.85 115.1
L 108.4 107.55 101.15 100.4
Q 100.95 100.2 100.95 99.95 100.95 99.75 101.15 99.5
L 102.85 97.75
Q 103.35 97.3 103.8 97.75
L 111.05 104.9 118.35 97.65
Q 118.55 97.45 118.8 97.45
M 82.25 94.05
Q 83.4 95.25 84.1 96.8 84.8 98.35 85.2 100.05 85.6 101.75 85.75 103.55 85.95 105.3 85.95 106.95 85.95 110.6 85.35 113.5 84.75 116.4 83.5 118.35 82.25 120.3 80.4 121.4 78.55 122.4 76 122.4 70.85 122.4 68.4 118.35 65.95 114.3 65.95 106.95 65.95 104.5 66.3 101.75 66.7 99.05 67.8 96.75 68.9 94.5 70.85 93 72.8 91.55 76 91.55 78.05 91.55 79.6 92.2 81.2 92.9 82.25 94.05
M 138.3 92.45
Q 138.3 92 138.45 91.9 138.55 91.75 139.15 91.75
L 153.8 91.75
Q 154.05 91.75 154.2 91.95 154.3 92.1 154.3 92.3
L 154.3 95.35
Q 154.3 95.6 154.2 95.75 154.05 95.95 153.8 95.95
L 142.65 95.95 142.5 103.35
Q 144.1 103 146.05 103 148.05 103 149.8 103.6 151.55 104.25 152.85 105.4 154.15 106.6 154.9 108.3 155.65 109.95 155.65 112.05 155.65 117.1 152.5 119.9 151.1 121.2 149 121.85 146.95 122.5 144.65 122.5 144.25 122.5 143.4 122.45 142.6 122.35 141.65 122.25 140.7 122.1 139.8 121.85 138.85 121.65 138.2 121.35 137.95 121.15 137.9 121.05 137.9 120.9 137.9 120.6
L 137.9 117.35
Q 137.9 116.65 138.75 117.05 139.3 117.35 140.1 117.6 140.9 117.8 141.75 118 142.6 118.15 143.4 118.2 144.25 118.3 144.95 118.3 147.65 118.3 149.35 116.75 151.15 115.25 151.15 112.55 151.15 109.95 149.7 108.45 148.3 106.9 145 106.9 143.7 106.9 142.3 107.2 140.9 107.45 139.65 107.9 138.1 108.55 138.1 107.2
L 138.3 92.45
M 47.25 91.8
Q 48.9 91.45 50.6 91.45 52.4 91.45 54.15 91.9 55.9 92.35 57.2 93.25 58.55 94.15 59.4 95.65 60.25 97.15 60.25 99.15 60.25 100.25 59.9 101.35 59.5 102.4 58.8 103.35 58.1 104.35 57.15 105.1 56.2 105.85 55.1 106.35 57.75 107.5 59.1 109.25 60.45 111.05 60.45 113.25 60.45 115.35 59.65 117.15 58.8 118.9 57.3 120.15 55.8 121.4 53.65 121.95 51.5 122.55 49.2 122.55 47.45 122.55 45.7 122.25 43.95 121.95 42.5 121.4 42.1 121.3 41.95 121.1 41.75 120.95 41.8 120.6
L 42.15 117.55
Q 42.2 117.2 42.4 117.1 42.6 116.95 43.15 117.2 44.2 117.5 45.25 117.8 46.3 118.1 47.4 118.2 48.2 118.25 49.1 118.3 50 118.35 50.85 118.25 51.7 118.15 52.5 117.85 53.25 117.6 53.9 117.15 55.85 115.8 55.85 113.15 55.85 112.2 55.45 111.35 55 110.5 54.15 109.85 53.25 109.15 51.85 108.8 50.5 108.4 48.55 108.4
L 46.6 108.4
Q 46.25 108.4 46.15 108.3 46.05 108.2 46.05 107.9
L 46.05 104.95
Q 46.05 104.55 46.15 104.5 46.25 104.4 46.6 104.4
L 48.5 104.4
Q 49.35 104.4 50.6 104.15 51.85 103.9 53 103.3 54.2 102.7 55 101.75 55.8 100.85 55.8 99.5 55.8 98.5 55.3 97.75 54.75 96.95 53.95 96.5 53.1 96 52.15 95.8 51.2 95.6 50.35 95.6 49.8 95.6 49.1 95.7 48.35 95.8 47.55 96 46.75 96.15 45.95 96.4 45.15 96.65 44.55 96.9 44.05 97.1 43.85 97 43.65 96.9 43.55 96.55
L 43.2 93.6
Q 43.1 93.35 43.25 93.2 43.4 93 43.8 92.8 45.55 92.2 47.25 91.8
M 76 171.55
Q 78.05 171.55 79.6 172.2 81.2 172.9 82.25 174.05 83.4 175.25 84.1 176.8 84.8 178.35 85.2 180.05 85.6 181.75 85.75 183.55 85.95 185.3 85.95 186.95 85.95 190.6 85.35 193.5 84.75 196.4 83.5 198.35 82.25 200.3 80.4 201.4 78.55 202.4 76 202.4 70.85 202.4 68.4 198.35 65.95 194.3 65.95 186.95 65.95 184.5 66.3 181.75 66.7 179.05 67.8 176.75 68.9 174.5 70.85 173 72.8 171.55 76 171.55
M 47.25 171.8
Q 48.9 171.45 50.6 171.45 52.4 171.45 54.15 171.9 55.9 172.35 57.2 173.25 58.55 174.15 59.4 175.65 60.25 177.15 60.25 179.15 60.25 180.25 59.9 181.35 59.5 182.4 58.8 183.35 58.1 184.35 57.15 185.1 56.2 185.85 55.1 186.35 57.75 187.5 59.1 189.25 60.45 191.05 60.45 193.25 60.45 195.35 59.65 197.15 58.8 198.9 57.3 200.15 55.8 201.4 53.65 201.95 51.5 202.55 49.2 202.55 47.45 202.55 45.7 202.25 43.95 201.95 42.5 201.4 42.1 201.3 41.95 201.1 41.75 200.95 41.8 200.6
L 42.15 197.55
Q 42.2 197.2 42.4 197.1 42.6 196.95 43.15 197.2 44.2 197.5 45.25 197.8 46.3 198.1 47.4 198.2 48.2 198.25 49.1 198.3 50 198.35 50.85 198.25 51.7 198.15 52.5 197.85 53.25 197.6 53.9 197.15 55.85 195.8 55.85 193.15 55.85 192.2 55.45 191.35 55 190.5 54.15 189.85 53.25 189.15 51.85 188.8 50.5 188.4 48.55 188.4
L 46.6 188.4
Q 46.25 188.4 46.15 188.3 46.05 188.2 46.05 187.9
L 46.05 184.95
Q 46.05 184.55 46.15 184.5 46.25 184.4 46.6 184.4
L 48.5 184.4
Q 49.35 184.4 50.6 184.15 51.85 183.9 53 183.3 54.2 182.7 55 181.75 55.8 180.85 55.8 179.5 55.8 178.5 55.3 177.75 54.75 176.95 53.95 176.5 53.1 176 52.15 175.8 51.2 175.6 50.35 175.6 49.8 175.6 49.1 175.7 48.35 175.8 47.55 176 46.75 176.15 45.95 176.4 45.15 176.65 44.55 176.9 44.05 177.1 43.85 177 43.65 176.9 43.55 176.55
L 43.2 173.6
Q 43.1 173.35 43.25 173.2 43.4 173 43.8 172.8 45.55 172.2 47.25 171.8
M 101.15 180.4
Q 100.95 180.2 100.95 179.95 100.95 179.75 101.15 179.5
L 102.85 177.75
Q 103.35 177.3 103.8 177.75
L 111.05 184.9 118.35 177.65
Q 118.55 177.45 118.8 177.45 119.05 177.45 119.25 177.65
L 120.85 179.35
Q 121.05 179.55 121.05 179.85 121.05 180.15 120.85 180.3
L 113.6 187.6 121.05 195.1
Q 121.3 195.3 121.3 195.55 121.3 195.75 121.05 195.95
L 119.4 197.75
Q 119.2 197.9 118.95 197.9 118.65 197.9 118.45 197.75
L 111 190.25 103.45 197.75
Q 102.85 198.25 102.55 197.75
L 100.85 196.05
Q 100.65 195.85 100.65 195.6 100.65 195.3 100.85 195.1
L 108.4 187.55 101.15 180.4
M 152.45 171.65
Q 153.9 171.85 154.8 172.2 155.15 172.3 155.1 172.7
L 155 175.9
Q 154.9 176.45 154.35 176.2 153.3 175.8 152.15 175.7 150.95 175.6 149.55 175.6 147.5 175.6 146 176.25 144.55 176.95 143.55 178.2 142.55 179.45 142 181.1 141.4 182.8 141.15 184.75 141.5 184.25 142.1 183.8 142.7 183.35 143.45 183 144.2 182.65 145 182.45 145.8 182.2 146.55 182.2 148.75 182.2 150.5 182.9 152.3 183.6 153.55 184.9 154.85 186.2 155.55 188.05 156.25 189.85 156.25 192.15 156.25 194.35 155.55 196.2 154.9 198.15 153.6 199.5 152.3 200.95 150.45 201.75 148.6 202.55 146.3 202.55 141.6 202.55 139.05 199 136.5 195.45 136.5 188 136.5 184.6 137.2 181.6 137.9 178.55 139.45 176.35 141.05 174.1 143.6 172.75 146.15 171.45 149.9 171.45 151.05 171.45 152.45 171.65
M 119.25 257.65
L 120.85 259.35
Q 121.05 259.55 121.05 259.85 121.05 260.15 120.85 260.3
L 113.6 267.6 121.05 275.1
Q 121.3 275.3 121.3 275.55 121.3 275.75 121.05 275.95
L 119.4 277.75
Q 119.2 277.9 118.95 277.9 118.65 277.9 118.45 277.75
L 111 270.25 103.45 277.75
Q 102.85 278.25 102.55 277.75
L 100.85 276.05
Q 100.65 275.85 100.65 275.6 100.65 275.3 100.85 275.1
L 108.4 267.55 101.15 260.4
Q 100.95 260.2 100.95 259.95 100.95 259.75 101.15 259.5
L 102.85 257.75
Q 103.35 257.3 103.8 257.75
L 111.05 264.9 118.35 257.65
Q 118.55 257.45 118.8 257.45 119.05 257.45 119.25 257.65
M 85.2 260.05
Q 85.6 261.75 85.75 263.55 85.95 265.3 85.95 266.95 85.95 270.6 85.35 273.5 84.75 276.4 83.5 278.35 82.25 280.3 80.4 281.4 78.55 282.4 76 282.4 70.85 282.4 68.4 278.35 65.95 274.3 65.95 266.95 65.95 264.5 66.3 261.75 66.7 259.05 67.8 256.75 68.9 254.5 70.85 253 72.8 251.55 76 251.55 78.05 251.55 79.6 252.2 81.2 252.9 82.25 254.05 83.4 255.25 84.1 256.8 84.8 258.35 85.2 260.05
M 155.15 251.95
Q 155.3 252.1 155.3 252.55
L 155.3 254.95
Q 155.3 255.3 155.05 255.6
L 144.5 281.65
Q 144.3 281.95 144.15 282.1 144 282.2 143.6 282.2
L 140.35 282.2
Q 139.75 282.2 139.6 282.05 139.45 281.95 139.6 281.5
L 150.05 255.95 137.3 255.95
Q 137 255.95 136.8 255.75 136.6 255.6 136.6 255.25
L 136.6 252.45
Q 136.6 251.8 137.3 251.8
L 154.3 251.8
Q 155 251.8 155.15 251.95
M 54.15 251.9
Q 55.9 252.35 57.2 253.25 58.55 254.15 59.4 255.65 60.25 257.15 60.25 259.15 60.25 260.25 59.9 261.35 59.5 262.4 58.8 263.35 58.1 264.35 57.15 265.1 56.2 265.85 55.1 266.35 57.75 267.5 59.1 269.25 60.45 271.05 60.45 273.25 60.45 275.35 59.65 277.15 58.8 278.9 57.3 280.15 55.8 281.4 53.65 281.95 51.5 282.55 49.2 282.55 47.45 282.55 45.7 282.25 43.95 281.95 42.5 281.4 42.1 281.3 41.95 281.1 41.75 280.95 41.8 280.6
L 42.15 277.55
Q 42.2 277.2 42.4 277.1 42.6 276.95 43.15 277.2 44.2 277.5 45.25 277.8 46.3 278.1 47.4 278.2 48.2 278.25 49.1 278.3 50 278.35 50.85 278.25 51.7 278.15 52.5 277.85 53.25 277.6 53.9 277.15 55.85 275.8 55.85 273.15 55.85 272.2 55.45 271.35 55 270.5 54.15 269.85 53.25 269.15 51.85 268.8 50.5 268.4 48.55 268.4
L 46.6 268.4
Q 46.25 268.4 46.15 268.3 46.05 268.2 46.05 267.9
L 46.05 264.95
Q 46.05 264.55 46.15 264.5 46.25 264.4 46.6 264.4
L 48.5 264.4
Q 49.35 264.4 50.6 264.15 51.85 263.9 53 263.3 54.2 262.7 55 261.75 55.8 260.85 55.8 259.5 55.8 258.5 55.3 257.75 54.75 256.95 53.95 256.5 53.1 256 52.15 255.8 51.2 255.6 50.35 255.6 49.8 255.6 49.1 255.7 48.35 255.8 47.55 256 46.75 256.15 45.95 256.4 45.15 256.65 44.55 256.9 44.05 257.1 43.85 257 43.65 256.9 43.55 256.55
L 43.2 253.6
Q 43.1 253.35 43.25 253.2 43.4 253 43.8 252.8 45.55 252.2 47.25 251.8 48.9 251.45 50.6 251.45 52.4 251.45 54.15 251.9
M 273.85 254.05
Q 275 255.25 275.7 256.8 276.4 258.35 276.8 260.05 277.2 261.75 277.35 263.55 277.55 265.3 277.55 266.95 277.55 270.6 276.95 273.5 276.35 276.4 275.1 278.35 273.85 280.3 272 281.4 270.15 282.4 267.6 282.4 262.45 282.4 260 278.35 257.55 274.3 257.55 266.95 257.55 264.5 257.9 261.75 258.3 259.05 259.4 256.75 260.5 254.5 262.45 253 264.4 251.55 267.6 251.55 269.65 251.55 271.2 252.2 272.8 252.9 273.85 254.05
M 245.25 251.8
Q 245.95 251.8 246.05 251.95 246.2 252.1 246.2 252.9
L 246.2 281.7
Q 246.2 282.2 245.7 282.2
L 242.5 282.2
Q 241.95 282.2 241.95 281.7
L 241.95 258 239 260.6
Q 238.75 260.75 238.5 260.75 238.25 260.8 238.1 260.65
L 236.3 258.5
Q 236.15 258.35 236.2 258.1 236.2 257.9 236.4 257.7
L 242.55 252.05
Q 242.6 251.95 242.8 251.9 243 251.8 243.15 251.8
L 245.25 251.8
M 193.55 264.8
Q 193.4 264.95 193.2 264.95
L 172.1 264.95
Q 171.9 264.95 171.75 264.8 171.6 264.65 171.6 264.45
L 171.6 261.3
Q 171.6 261.1 171.75 260.95 171.9 260.8 172.1 260.8
L 193.2 260.8
Q 193.4 260.8 193.55 260.95 193.7 261.1 193.7 261.3
L 193.7 264.45
Q 193.7 264.65 193.55 264.8
M 193.55 269.25
Q 193.7 269.4 193.7 269.6
L 193.7 272.75
Q 193.7 273 193.55 273.1 193.4 273.25 193.2 273.25
L 172.1 273.25
Q 171.9 273.25 171.75 273.1 171.6 273 171.6 272.75
L 171.6 269.6
Q 171.6 269.4 171.75 269.25 171.9 269.15 172.1 269.15
L 193.2 269.15
Q 193.4 269.15 193.55 269.25
M 224.3 253.6
Q 225.45 254.65 226.15 256.25 226.85 257.85 226.85 259.95 226.85 261.75 226.05 263.6 225.25 265.45 224.05 267.25 222.85 269 221.5 270.65 220.1 272.25 219 273.55 218.15 274.65 217.15 275.85 216.15 277 215.15 278.15
L 226.9 278.15
Q 227.45 278.15 227.45 278.75
L 227.45 281.55
Q 227.45 282.25 226.9 282.25
L 209.85 282.25
Q 209.1 282.25 209.1 281.75
L 209.1 279.45
Q 209.1 279.15 209.25 278.8 209.45 278.5 209.65 278.2
L 215.75 270.95
Q 219.1 267 220.7 264.35 222.3 261.75 222.3 260.05 222.3 258.15 221.1 256.9 219.95 255.65 218.2 255.65 216.55 255.65 215 256.1 213.5 256.55 211.7 257.6 211.35 257.8 211.05 257.8 210.75 257.75 210.65 257.4
L 210.1 254.35
Q 210 254.15 210.1 254 210.25 253.75 210.65 253.55 212.15 252.75 214.1 252.1 216.1 251.45 217.95 251.45 219.9 251.45 221.5 252 223.15 252.55 224.3 253.6
M 267.6 255.9
Q 266.3 255.9 265.3 256.5 264.3 257.05 263.6 258.35 262.85 259.7 262.5 261.8 262.1 263.95 262.1 266.95 262.1 270.05 262.5 272.2 262.85 274.3 263.6 275.6 264.3 276.95 265.3 277.5 266.3 278.1 267.6 278.1 268.8 278.1 269.85 277.5 270.85 276.95 271.6 275.6 272.3 274.3 272.7 272.2 273.05 270.05 273.05 266.95 273.05 263.95 272.7 261.8 272.3 259.7 271.6 258.35 270.85 257.05 269.85 256.5 268.8 255.9 267.6 255.9
M 81.1 272.2
Q 81.45 270.05 81.45 266.95 81.45 263.95 81.1 261.8 80.7 259.7 80 258.35 79.25 257.05 78.25 256.5 77.2 255.9 76 255.9 74.7 255.9 73.7 256.5 72.7 257.05 72 258.35 71.25 259.7 70.9 261.8 70.5 263.95 70.5 266.95 70.5 270.05 70.9 272.2 71.25 274.3 72 275.6 72.7 276.95 73.7 277.5 74.7 278.1 76 278.1 77.2 278.1 78.25 277.5 79.25 276.95 80 275.6 80.7 274.3 81.1 272.2
M 141.15 191.95
Q 141.15 193.35 141.55 194.5 141.95 195.75 142.65 196.65 143.35 197.55 144.3 198.05 145.3 198.55 146.4 198.55 148.8 198.55 150.35 196.9 151.85 195.2 151.85 192.35 151.85 189.55 150.5 188 149.15 186.4 146.7 186.4 144.1 186.4 142.65 187.95 141.15 189.5 141.15 191.95
M 78.25 176.5
Q 77.2 175.9 76 175.9 74.7 175.9 73.7 176.5 72.7 177.05 72 178.35 71.25 179.7 70.9 181.8 70.5 183.95 70.5 186.95 70.5 190.05 70.9 192.2 71.25 194.3 72 195.6 72.7 196.95 73.7 197.5 74.7 198.1 76 198.1 77.2 198.1 78.25 197.5 79.25 196.95 80 195.6 80.7 194.3 81.1 192.2 81.45 190.05 81.45 186.95 81.45 183.95 81.1 181.8 80.7 179.7 80 178.35 79.25 177.05 78.25 176.5
M 73.7 96.5
Q 72.7 97.05 72 98.35 71.25 99.7 70.9 101.8 70.5 103.95 70.5 106.95 70.5 110.05 70.9 112.2 71.25 114.3 72 115.6 72.7 116.95 73.7 117.5 74.7 118.1 76 118.1 77.2 118.1 78.25 117.5 79.25 116.95 80 115.6 80.7 114.3 81.1 112.2 81.45 110.05 81.45 106.95 81.45 103.95 81.1 101.8 80.7 99.7 80 98.35 79.25 97.05 78.25 96.5 77.2 95.9 76 95.9 74.7 95.9 73.7 96.5
M 262.1 186.95
Q 262.1 190.05 262.5 192.2 262.85 194.3 263.6 195.6 264.3 196.95 265.3 197.5 266.3 198.1 267.6 198.1 268.8 198.1 269.85 197.5 270.85 196.95 271.6 195.6 272.3 194.3 272.7 192.2 273.05 190.05 273.05 186.95 273.05 183.95 272.7 181.8 272.3 179.7 271.6 178.35 270.85 177.05 269.85 176.5 268.8 175.9 267.6 175.9 266.3 175.9 265.3 176.5 264.3 177.05 263.6 178.35 262.85 179.7 262.5 181.8 262.1 183.95 262.1 186.95
M 239.7 190.25
Q 238.85 190.9 238.25 191.8 237.65 192.7 237.65 193.95 237.65 194.95 238.2 195.8 238.7 196.65 239.5 197.25 240.35 197.85 241.35 198.2 242.4 198.5 243.35 198.5 244.35 198.5 245.4 198.2 246.4 197.9 247.2 197.3 248 196.7 248.5 195.85 249 195 249 193.95 249 193.2 248.5 192.35 248 191.55 247.2 190.8 246.35 190.1 245.35 189.5 244.35 188.9 243.35 188.55 242.55 188.75 241.6 189.2 240.55 189.6 239.7 190.25
M 241.65 175.65
Q 240.8 175.95 240.15 176.45 239.45 176.95 239 177.65 238.55 178.4 238.55 179.35 238.55 180.2 239.15 181 239.7 181.8 240.45 182.5 241.25 183.2 242.05 183.65 242.85 184.15 243.35 184.35 244 184.1 244.75 183.55 245.55 183 246.3 182.3 247.05 181.55 247.55 180.75 248.05 179.95 248.05 179.25 248.05 178.45 247.65 177.75 247.3 177.05 246.65 176.5 246 175.95 245.15 175.7 244.3 175.35 243.35 175.35 242.5 175.35 241.65 175.65
M 267.6 95.9
Q 266.3 95.9 265.3 96.5 264.3 97.05 263.6 98.35 262.85 99.7 262.5 101.8 262.1 103.95 262.1 106.95 262.1 110.05 262.5 112.2 262.85 114.3 263.6 115.6 264.3 116.95 265.3 117.5 266.3 118.1 267.6 118.1 268.8 118.1 269.85 117.5 270.85 116.95 271.6 115.6 272.3 114.3 272.7 112.2 273.05 110.05 273.05 106.95 273.05 103.95 272.7 101.8 272.3 99.7 271.6 98.35 270.85 97.05 269.85 96.5 268.8 95.9 267.6 95.9 Z"/>

<path fill="#1E1E1E" stroke="none" d="
M 226.15 256.25
Q 225.45 254.65 224.3 253.6 223.15 252.55 221.5 252 219.9 251.45 217.95 251.45 216.1 251.45 214.1 252.1 212.15 252.75 210.65 253.55 210.25 253.75 210.1 254 210 254.15 210.1 254.35
L 210.65 257.4
Q 210.75 257.75 211.05 257.8 211.35 257.8 211.7 257.6 213.5 256.55 215 256.1 216.55 255.65 218.2 255.65 219.95 255.65 221.1 256.9 222.3 258.15 222.3 260.05 222.3 261.75 220.7 264.35 219.1 267 215.75 270.95
L 209.65 278.2
Q 209.45 278.5 209.25 278.8 209.1 279.15 209.1 279.45
L 209.1 281.75
Q 209.1 282.25 209.85 282.25
L 226.9 282.25
Q 227.45 282.25 227.45 281.55
L 227.45 278.75
Q 227.45 278.15 226.9 278.15
L 215.15 278.15
Q 216.15 277 217.15 275.85 218.15 274.65 219 273.55 220.1 272.25 221.5 270.65 222.85 269 224.05 267.25 225.25 265.45 226.05 263.6 226.85 261.75 226.85 259.95 226.85 257.85 226.15 256.25
M 193.7 269.6
Q 193.7 269.4 193.55 269.25 193.4 269.15 193.2 269.15
L 172.1 269.15
Q 171.9 269.15 171.75 269.25 171.6 269.4 171.6 269.6
L 171.6 272.75
Q 171.6 273 171.75 273.1 171.9 273.25 172.1 273.25
L 193.2 273.25
Q 193.4 273.25 193.55 273.1 193.7 273 193.7 272.75
L 193.7 269.6
M 193.2 264.95
Q 193.4 264.95 193.55 264.8 193.7 264.65 193.7 264.45
L 193.7 261.3
Q 193.7 261.1 193.55 260.95 193.4 260.8 193.2 260.8
L 172.1 260.8
Q 171.9 260.8 171.75 260.95 171.6 261.1 171.6 261.3
L 171.6 264.45
Q 171.6 264.65 171.75 264.8 171.9 264.95 172.1 264.95
L 193.2 264.95
M 246.05 251.95
Q 245.95 251.8 245.25 251.8
L 243.15 251.8
Q 243 251.8 242.8 251.9 242.6 251.95 242.55 252.05
L 236.4 257.7
Q 236.2 257.9 236.2 258.1 236.15 258.35 236.3 258.5
L 238.1 260.65
Q 238.25 260.8 238.5 260.75 238.75 260.75 239 260.6
L 241.95 258 241.95 281.7
Q 241.95 282.2 242.5 282.2
L 245.7 282.2
Q 246.2 282.2 246.2 281.7
L 246.2 252.9
Q 246.2 252.1 246.05 251.95
M 275.7 256.8
Q 275 255.25 273.85 254.05 272.8 252.9 271.2 252.2 269.65 251.55 267.6 251.55 264.4 251.55 262.45 253 260.5 254.5 259.4 256.75 258.3 259.05 257.9 261.75 257.55 264.5 257.55 266.95 257.55 274.3 260 278.35 262.45 282.4 267.6 282.4 270.15 282.4 272 281.4 273.85 280.3 275.1 278.35 276.35 276.4 276.95 273.5 277.55 270.6 277.55 266.95 277.55 265.3 277.35 263.55 277.2 261.75 276.8 260.05 276.4 258.35 275.7 256.8
M 265.3 256.5
Q 266.3 255.9 267.6 255.9 268.8 255.9 269.85 256.5 270.85 257.05 271.6 258.35 272.3 259.7 272.7 261.8 273.05 263.95 273.05 266.95 273.05 270.05 272.7 272.2 272.3 274.3 271.6 275.6 270.85 276.95 269.85 277.5 268.8 278.1 267.6 278.1 266.3 278.1 265.3 277.5 264.3 276.95 263.6 275.6 262.85 274.3 262.5 272.2 262.1 270.05 262.1 266.95 262.1 263.95 262.5 261.8 262.85 259.7 263.6 258.35 264.3 257.05 265.3 256.5
M 57.2 253.25
Q 55.9 252.35 54.15 251.9 52.4 251.45 50.6 251.45 48.9 251.45 47.25 251.8 45.55 252.2 43.8 252.8 43.4 253 43.25 253.2 43.1 253.35 43.2 253.6
L 43.55 256.55
Q 43.65 256.9 43.85 257 44.05 257.1 44.55 256.9 45.15 256.65 45.95 256.4 46.75 256.15 47.55 256 48.35 255.8 49.1 255.7 49.8 255.6 50.35 255.6 51.2 255.6 52.15 255.8 53.1 256 53.95 256.5 54.75 256.95 55.3 257.75 55.8 258.5 55.8 259.5 55.8 260.85 55 261.75 54.2 262.7 53 263.3 51.85 263.9 50.6 264.15 49.35 264.4 48.5 264.4
L 46.6 264.4
Q 46.25 264.4 46.15 264.5 46.05 264.55 46.05 264.95
L 46.05 267.9
Q 46.05 268.2 46.15 268.3 46.25 268.4 46.6 268.4
L 48.55 268.4
Q 50.5 268.4 51.85 268.8 53.25 269.15 54.15 269.85 55 270.5 55.45 271.35 55.85 272.2 55.85 273.15 55.85 275.8 53.9 277.15 53.25 277.6 52.5 277.85 51.7 278.15 50.85 278.25 50 278.35 49.1 278.3 48.2 278.25 47.4 278.2 46.3 278.1 45.25 277.8 44.2 277.5 43.15 277.2 42.6 276.95 42.4 277.1 42.2 277.2 42.15 277.55
L 41.8 280.6
Q 41.75 280.95 41.95 281.1 42.1 281.3 42.5 281.4 43.95 281.95 45.7 282.25 47.45 282.55 49.2 282.55 51.5 282.55 53.65 281.95 55.8 281.4 57.3 280.15 58.8 278.9 59.65 277.15 60.45 275.35 60.45 273.25 60.45 271.05 59.1 269.25 57.75 267.5 55.1 266.35 56.2 265.85 57.15 265.1 58.1 264.35 58.8 263.35 59.5 262.4 59.9 261.35 60.25 260.25 60.25 259.15 60.25 257.15 59.4 255.65 58.55 254.15 57.2 253.25
M 85.75 263.55
Q 85.6 261.75 85.2 260.05 84.8 258.35 84.1 256.8 83.4 255.25 82.25 254.05 81.2 252.9 79.6 252.2 78.05 251.55 76 251.55 72.8 251.55 70.85 253 68.9 254.5 67.8 256.75 66.7 259.05 66.3 261.75 65.95 264.5 65.95 266.95 65.95 274.3 68.4 278.35 70.85 282.4 76 282.4 78.55 282.4 80.4 281.4 82.25 280.3 83.5 278.35 84.75 276.4 85.35 273.5 85.95 270.6 85.95 266.95 85.95 265.3 85.75 263.55
M 81.45 266.95
Q 81.45 270.05 81.1 272.2 80.7 274.3 80 275.6 79.25 276.95 78.25 277.5 77.2 278.1 76 278.1 74.7 278.1 73.7 277.5 72.7 276.95 72 275.6 71.25 274.3 70.9 272.2 70.5 270.05 70.5 266.95 70.5 263.95 70.9 261.8 71.25 259.7 72 258.35 72.7 257.05 73.7 256.5 74.7 255.9 76 255.9 77.2 255.9 78.25 256.5 79.25 257.05 80 258.35 80.7 259.7 81.1 261.8 81.45 263.95 81.45 266.95
M 120.85 259.35
L 119.25 257.65
Q 119.05 257.45 118.8 257.45 118.55 257.45 118.35 257.65
L 111.05 264.9 103.8 257.75
Q 103.35 257.3 102.85 257.75
L 101.15 259.5
Q 100.95 259.75 100.95 259.95 100.95 260.2 101.15 260.4
L 108.4 267.55 100.85 275.1
Q 100.65 275.3 100.65 275.6 100.65 275.85 100.85 276.05
L 102.55 277.75
Q 102.85 278.25 103.45 277.75
L 111 270.25 118.45 277.75
Q 118.65 277.9 118.95 277.9 119.2 277.9 119.4 277.75
L 121.05 275.95
Q 121.3 275.75 121.3 275.55 121.3 275.3 121.05 275.1
L 113.6 267.6 120.85 260.3
Q 121.05 260.15 121.05 259.85 121.05 259.55 120.85 259.35
M 100.95 179.95
Q 100.95 180.2 101.15 180.4
L 108.4 187.55 100.85 195.1
Q 100.65 195.3 100.65 195.6 100.65 195.85 100.85 196.05
L 102.55 197.75
Q 102.85 198.25 103.45 197.75
L 111 190.25 118.45 197.75
Q 118.65 197.9 118.95 197.9 119.2 197.9 119.4 197.75
L 121.05 195.95
Q 121.3 195.75 121.3 195.55 121.3 195.3 121.05 195.1
L 113.6 187.6 120.85 180.3
Q 121.05 180.15 121.05 179.85 121.05 179.55 120.85 179.35
L 119.25 177.65
Q 119.05 177.45 118.8 177.45 118.55 177.45 118.35 177.65
L 111.05 184.9 103.8 177.75
Q 103.35 177.3 102.85 177.75
L 101.15 179.5
Q 100.95 179.75 100.95 179.95
M 50.6 171.45
Q 48.9 171.45 47.25 171.8 45.55 172.2 43.8 172.8 43.4 173 43.25 173.2 43.1 173.35 43.2 173.6
L 43.55 176.55
Q 43.65 176.9 43.85 177 44.05 177.1 44.55 176.9 45.15 176.65 45.95 176.4 46.75 176.15 47.55 176 48.35 175.8 49.1 175.7 49.8 175.6 50.35 175.6 51.2 175.6 52.15 175.8 53.1 176 53.95 176.5 54.75 176.95 55.3 177.75 55.8 178.5 55.8 179.5 55.8 180.85 55 181.75 54.2 182.7 53 183.3 51.85 183.9 50.6 184.15 49.35 184.4 48.5 184.4
L 46.6 184.4
Q 46.25 184.4 46.15 184.5 46.05 184.55 46.05 184.95
L 46.05 187.9
Q 46.05 188.2 46.15 188.3 46.25 188.4 46.6 188.4
L 48.55 188.4
Q 50.5 188.4 51.85 188.8 53.25 189.15 54.15 189.85 55 190.5 55.45 191.35 55.85 192.2 55.85 193.15 55.85 195.8 53.9 197.15 53.25 197.6 52.5 197.85 51.7 198.15 50.85 198.25 50 198.35 49.1 198.3 48.2 198.25 47.4 198.2 46.3 198.1 45.25 197.8 44.2 197.5 43.15 197.2 42.6 196.95 42.4 197.1 42.2 197.2 42.15 197.55
L 41.8 200.6
Q 41.75 200.95 41.95 201.1 42.1 201.3 42.5 201.4 43.95 201.95 45.7 202.25 47.45 202.55 49.2 202.55 51.5 202.55 53.65 201.95 55.8 201.4 57.3 200.15 58.8 198.9 59.65 197.15 60.45 195.35 60.45 193.25 60.45 191.05 59.1 189.25 57.75 187.5 55.1 186.35 56.2 185.85 57.15 185.1 58.1 184.35 58.8 183.35 59.5 182.4 59.9 181.35 60.25 180.25 60.25 179.15 60.25 177.15 59.4 175.65 58.55 174.15 57.2 173.25 55.9 172.35 54.15 171.9 52.4 171.45 50.6 171.45
M 79.6 172.2
Q 78.05 171.55 76 171.55 72.8 171.55 70.85 173 68.9 174.5 67.8 176.75 66.7 179.05 66.3 181.75 65.95 184.5 65.95 186.95 65.95 194.3 68.4 198.35 70.85 202.4 76 202.4 78.55 202.4 80.4 201.4 82.25 200.3 83.5 198.35 84.75 196.4 85.35 193.5 85.95 190.6 85.95 186.95 85.95 185.3 85.75 183.55 85.6 181.75 85.2 180.05 84.8 178.35 84.1 176.8 83.4 175.25 82.25 174.05 81.2 172.9 79.6 172.2
M 76 175.9
Q 77.2 175.9 78.25 176.5 79.25 177.05 80 178.35 80.7 179.7 81.1 181.8 81.45 183.95 81.45 186.95 81.45 190.05 81.1 192.2 80.7 194.3 80 195.6 79.25 196.95 78.25 197.5 77.2 198.1 76 198.1 74.7 198.1 73.7 197.5 72.7 196.95 72 195.6 71.25 194.3 70.9 192.2 70.5 190.05 70.5 186.95 70.5 183.95 70.9 181.8 71.25 179.7 72 178.35 72.7 177.05 73.7 176.5 74.7 175.9 76 175.9
M 50.6 91.45
Q 48.9 91.45 47.25 91.8 45.55 92.2 43.8 92.8 43.4 93 43.25 93.2 43.1 93.35 43.2 93.6
L 43.55 96.55
Q 43.65 96.9 43.85 97 44.05 97.1 44.55 96.9 45.15 96.65 45.95 96.4 46.75 96.15 47.55 96 48.35 95.8 49.1 95.7 49.8 95.6 50.35 95.6 51.2 95.6 52.15 95.8 53.1 96 53.95 96.5 54.75 96.95 55.3 97.75 55.8 98.5 55.8 99.5 55.8 100.85 55 101.75 54.2 102.7 53 103.3 51.85 103.9 50.6 104.15 49.35 104.4 48.5 104.4
L 46.6 104.4
Q 46.25 104.4 46.15 104.5 46.05 104.55 46.05 104.95
L 46.05 107.9
Q 46.05 108.2 46.15 108.3 46.25 108.4 46.6 108.4
L 48.55 108.4
Q 50.5 108.4 51.85 108.8 53.25 109.15 54.15 109.85 55 110.5 55.45 111.35 55.85 112.2 55.85 113.15 55.85 115.8 53.9 117.15 53.25 117.6 52.5 117.85 51.7 118.15 50.85 118.25 50 118.35 49.1 118.3 48.2 118.25 47.4 118.2 46.3 118.1 45.25 117.8 44.2 117.5 43.15 117.2 42.6 116.95 42.4 117.1 42.2 117.2 42.15 117.55
L 41.8 120.6
Q 41.75 120.95 41.95 121.1 42.1 121.3 42.5 121.4 43.95 121.95 45.7 122.25 47.45 122.55 49.2 122.55 51.5 122.55 53.65 121.95 55.8 121.4 57.3 120.15 58.8 118.9 59.65 117.15 60.45 115.35 60.45 113.25 60.45 111.05 59.1 109.25 57.75 107.5 55.1 106.35 56.2 105.85 57.15 105.1 58.1 104.35 58.8 103.35 59.5 102.4 59.9 101.35 60.25 100.25 60.25 99.15 60.25 97.15 59.4 95.65 58.55 94.15 57.2 93.25 55.9 92.35 54.15 91.9 52.4 91.45 50.6 91.45
M 84.1 96.8
Q 83.4 95.25 82.25 94.05 81.2 92.9 79.6 92.2 78.05 91.55 76 91.55 72.8 91.55 70.85 93 68.9 94.5 67.8 96.75 66.7 99.05 66.3 101.75 65.95 104.5 65.95 106.95 65.95 114.3 68.4 118.35 70.85 122.4 76 122.4 78.55 122.4 80.4 121.4 82.25 120.3 83.5 118.35 84.75 116.4 85.35 113.5 85.95 110.6 85.95 106.95 85.95 105.3 85.75 103.55 85.6 101.75 85.2 100.05 84.8 98.35 84.1 96.8
M 72 98.35
Q 72.7 97.05 73.7 96.5 74.7 95.9 76 95.9 77.2 95.9 78.25 96.5 79.25 97.05 80 98.35 80.7 99.7 81.1 101.8 81.45 103.95 81.45 106.95 81.45 110.05 81.1 112.2 80.7 114.3 80 115.6 79.25 116.95 78.25 117.5 77.2 118.1 76 118.1 74.7 118.1 73.7 117.5 72.7 116.95 72 115.6 71.25 114.3 70.9 112.2 70.5 110.05 70.5 106.95 70.5 103.95 70.9 101.8 71.25 99.7 72 98.35
M 119.25 97.65
Q 119.05 97.45 118.8 97.45 118.55 97.45 118.35 97.65
L 111.05 104.9 103.8 97.75
Q 103.35 97.3 102.85 97.75
L 101.15 99.5
Q 100.95 99.75 100.95 99.95 100.95 100.2 101.15 100.4
L 108.4 107.55 100.85 115.1
Q 100.65 115.3 100.65 115.6 100.65 115.85 100.85 116.05
L 102.55 117.75
Q 102.85 118.25 103.45 117.75
L 111 110.25 118.45 117.75
Q 118.65 117.9 118.95 117.9 119.2 117.9 119.4 117.75
L 121.05 115.95
Q 121.3 115.75 121.3 115.55 121.3 115.3 121.05 115.1
L 113.6 107.6 120.85 100.3
Q 121.05 100.15 121.05 99.85 121.05 99.55 120.85 99.35
L 119.25 97.65
M 271.2 172.2
Q 269.65 171.55 267.6 171.55 264.4 171.55 262.45 173 260.5 174.5 259.4 176.75 258.3 179.05 257.9 181.75 257.55 184.5 257.55 186.95 257.55 194.3 260 198.35 262.45 202.4 267.6 202.4 270.15 202.4 272 201.4 273.85 200.3 275.1 198.35 276.35 196.4 276.95 193.5 277.55 190.6 277.55 186.95 277.55 185.3 277.35 183.55 277.2 181.75 276.8 180.05 276.4 178.35 275.7 176.8 275 175.25 273.85 174.05 272.8 172.9 271.2 172.2
M 262.5 192.2
Q 262.1 190.05 262.1 186.95 262.1 183.95 262.5 181.8 262.85 179.7 263.6 178.35 264.3 177.05 265.3 176.5 266.3 175.9 267.6 175.9 268.8 175.9 269.85 176.5 270.85 177.05 271.6 178.35 272.3 179.7 272.7 181.8 273.05 183.95 273.05 186.95 273.05 190.05 272.7 192.2 272.3 194.3 271.6 195.6 270.85 196.95 269.85 197.5 268.8 198.1 267.6 198.1 266.3 198.1 265.3 197.5 264.3 196.95 263.6 195.6 262.85 194.3 262.5 192.2
M 234.75 175.95
Q 234 177.35 234 179.05 234 181.35 235.4 183.15 236.8 184.95 239.2 186.35 238 186.95 236.9 187.65 235.8 188.35 235 189.25 234.2 190.15 233.65 191.3 233.2 192.45 233.2 193.95 233.2 196.1 234.1 197.7 235 199.35 236.45 200.4 237.9 201.45 239.7 202 241.55 202.55 243.35 202.55 245.3 202.55 247.1 202 249 201.45 250.4 200.4 251.8 199.35 252.65 197.7 253.55 196.1 253.55 193.95 253.55 192.55 253.1 191.55 252.7 190.5 251.9 189.6 251.1 188.7 250 187.9 248.85 187.15 247.45 186.3 250.05 184.5 251.3 182.75 252.55 180.95 252.55 178.95 252.55 177.2 251.85 175.8 251.15 174.4 249.95 173.45 248.75 172.5 247.05 171.95 245.35 171.45 243.35 171.45 241.4 171.45 239.7 172 238 172.55 236.75 173.55 235.5 174.55 234.75 175.95
M 240.15 176.45
Q 240.8 175.95 241.65 175.65 242.5 175.35 243.35 175.35 244.3 175.35 245.15 175.7 246 175.95 246.65 176.5 247.3 177.05 247.65 177.75 248.05 178.45 248.05 179.25 248.05 179.95 247.55 180.75 247.05 181.55 246.3 182.3 245.55 183 244.75 183.55 244 184.1 243.35 184.35 242.85 184.15 242.05 183.65 241.25 183.2 240.45 182.5 239.7 181.8 239.15 181 238.55 180.2 238.55 179.35 238.55 178.4 239 177.65 239.45 176.95 240.15 176.45
M 238.25 191.8
Q 238.85 190.9 239.7 190.25 240.55 189.6 241.6 189.2 242.55 188.75 243.35 188.55 244.35 188.9 245.35 189.5 246.35 190.1 247.2 190.8 248 191.55 248.5 192.35 249 193.2 249 193.95 249 195 248.5 195.85 248 196.7 247.2 197.3 246.4 197.9 245.4 198.2 244.35 198.5 243.35 198.5 242.4 198.5 241.35 198.2 240.35 197.85 239.5 197.25 238.7 196.65 238.2 195.8 237.65 194.95 237.65 193.95 237.65 192.7 238.25 191.8
M 221 171.8
L 218.9 171.8
Q 218.75 171.8 218.55 171.9 218.35 171.95 218.3 172.05
L 212.15 177.7
Q 211.95 177.9 211.95 178.1 211.9 178.35 212.05 178.5
L 213.85 180.65
Q 214 180.8 214.25 180.75 214.5 180.75 214.75 180.6
L 217.7 178 217.7 201.7
Q 217.7 202.2 218.25 202.2
L 221.45 202.2
Q 221.95 202.2 221.95 201.7
L 221.95 172.9
Q 221.95 172.1 221.8 171.95 221.7 171.8 221 171.8
M 171.6 192.75
Q 171.6 193 171.75 193.1 171.9 193.25 172.1 193.25
L 193.2 193.25
Q 193.4 193.25 193.55 193.1 193.7 193 193.7 192.75
L 193.7 189.6
Q 193.7 189.4 193.55 189.25 193.4 189.15 193.2 189.15
L 172.1 189.15
Q 171.9 189.15 171.75 189.25 171.6 189.4 171.6 189.6
L 171.6 192.75
M 172.1 180.8
Q 171.9 180.8 171.75 180.95 171.6 181.1 171.6 181.3
L 171.6 184.45
Q 171.6 184.65 171.75 184.8 171.9 184.95 172.1 184.95
L 193.2 184.95
Q 193.4 184.95 193.55 184.8 193.7 184.65 193.7 184.45
L 193.7 181.3
Q 193.7 181.1 193.55 180.95 193.4 180.8 193.2 180.8
L 172.1 180.8
M 193.7 109.6
Q 193.7 109.4 193.55 109.25 193.4 109.15 193.2 109.15
L 172.1 109.15
Q 171.9 109.15 171.75 109.25 171.6 109.4 171.6 109.6
L 171.6 112.75
Q 171.6 113 171.75 113.1 171.9 113.25 172.1 113.25
L 193.2 113.25
Q 193.4 113.25 193.55 113.1 193.7 113 193.7 112.75
L 193.7 109.6
M 193.7 104.45
L 193.7 101.3
Q 193.7 101.1 193.55 100.95 193.4 100.8 193.2 100.8
L 172.1 100.8
Q 171.9 100.8 171.75 100.95 171.6 101.1 171.6 101.3
L 171.6 104.45
Q 171.6 104.65 171.75 104.8 171.9 104.95 172.1 104.95
L 193.2 104.95
Q 193.4 104.95 193.55 104.8 193.7 104.65 193.7 104.45
M 218.3 92.05
L 212.15 97.7
Q 211.95 97.9 211.95 98.1 211.9 98.35 212.05 98.5
L 213.85 100.65
Q 214 100.8 214.25 100.75 214.5 100.75 214.75 100.6
L 217.7 98 217.7 121.7
Q 217.7 122.2 218.25 122.2
L 221.45 122.2
Q 221.95 122.2 221.95 121.7
L 221.95 92.9
Q 221.95 92.1 221.8 91.95 221.7 91.8 221 91.8
L 218.9 91.8
Q 218.75 91.8 218.55 91.9 218.35 91.95 218.3 92.05
M 262.45 93
Q 260.5 94.5 259.4 96.75 258.3 99.05 257.9 101.75 257.55 104.5 257.55 106.95 257.55 114.3 260 118.35 262.45 122.4 267.6 122.4 270.15 122.4 272 121.4 273.85 120.3 275.1 118.35 276.35 116.4 276.95 113.5 277.55 110.6 277.55 106.95 277.55 105.3 277.35 103.55 277.2 101.75 276.8 100.05 276.4 98.35 275.7 96.8 275 95.25 273.85 94.05 272.8 92.9 271.2 92.2 269.65 91.55 267.6 91.55 264.4 91.55 262.45 93
M 265.3 96.5
Q 266.3 95.9 267.6 95.9 268.8 95.9 269.85 96.5 270.85 97.05 271.6 98.35 272.3 99.7 272.7 101.8 273.05 103.95 273.05 106.95 273.05 110.05 272.7 112.2 272.3 114.3 271.6 115.6 270.85 116.95 269.85 117.5 268.8 118.1 267.6 118.1 266.3 118.1 265.3 117.5 264.3 116.95 263.6 115.6 262.85 114.3 262.5 112.2 262.1 110.05 262.1 106.95 262.1 103.95 262.5 101.8 262.85 99.7 263.6 98.35 264.3 97.05 265.3 96.5
M 251.35 92.3
Q 251.35 92.1 251.25 91.95 251.1 91.75 250.85 91.75
L 236.2 91.75
Q 235.6 91.75 235.5 91.9 235.35 92 235.35 92.45
L 235.15 107.2
Q 235.15 108.55 236.7 107.9 237.95 107.45 239.35 107.2 240.75 106.9 242.05 106.9 245.35 106.9 246.75 108.45 248.2 109.95 248.2 112.55 248.2 115.25 246.4 116.75 244.7 118.3 242 118.3 241.3 118.3 240.45 118.2 239.65 118.15 238.8 118 237.95 117.8 237.15 117.6 236.35 117.35 235.8 117.05 234.95 116.65 234.95 117.35
L 234.95 120.6
Q 234.95 120.9 234.95 121.05 235 121.15 235.25 121.35 235.9 121.65 236.85 121.85 237.75 122.1 238.7 122.25 239.65 122.35 240.45 122.45 241.3 122.5 241.7 122.5 244 122.5 246.05 121.85 248.15 121.2 249.55 119.9 252.7 117.1 252.7 112.05 252.7 109.95 251.95 108.3 251.2 106.6 249.9 105.4 248.6 104.25 246.85 103.6 245.1 103 243.1 103 241.15 103 239.55 103.35
L 239.7 95.95 250.85 95.95
Q 251.1 95.95 251.25 95.75 251.35 95.6 251.35 95.35
L 251.35 92.3
M 415.85 130.35
Q 416.65 130.1 417.45 129.95 418.25 129.75 419 129.65 419.7 129.55 420.25 129.55 421.1 129.55 422.05 129.75 423 129.95 423.85 130.45 424.65 130.9 425.2 131.7 425.7 132.45 425.7 133.45 425.7 134.8 424.9 135.7 424.1 136.65 422.9 137.25 421.75 137.85 420.5 138.1 419.25 138.35 418.4 138.35
L 416.5 138.35
Q 416.15 138.35 416.05 138.45 415.95 138.5 415.95 138.9
L 415.95 141.85
Q 415.95 142.15 416.05 142.25 416.15 142.35 416.5 142.35
L 418.45 142.35
Q 420.4 142.35 421.75 142.75 423.15 143.1 424.05 143.8 424.9 144.45 425.35 145.3 425.75 146.15 425.75 147.1 425.75 149.75 423.8 151.1 423.15 151.55 422.4 151.8 421.6 152.1 420.75 152.2 419.9 152.3 419 152.25 418.1 152.2 417.3 152.15 416.2 152.05 415.15 151.75 414.1 151.45 413.05 151.15 412.5 150.9 412.3 151.05 412.1 151.15 412.05 151.5
L 411.7 154.55
Q 411.65 154.9 411.85 155.05 412 155.25 412.4 155.35 413.85 155.9 415.6 156.2 417.35 156.5 419.1 156.5 421.4 156.5 423.55 155.9 425.7 155.35 427.2 154.1 428.7 152.85 429.55 151.1 430.35 149.3 430.35 147.2 430.35 145 429 143.2 427.65 141.45 425 140.3 426.1 139.8 427.05 139.05 428 138.3 428.7 137.3 429.4 136.35 429.8 135.3 430.15 134.2 430.15 133.1 430.15 131.1 429.3 129.6 428.45 128.1 427.1 127.2 425.8 126.3 424.05 125.85 422.3 125.4 420.5 125.4 418.8 125.4 417.15 125.75 415.45 126.15 413.7 126.75 413.3 126.95 413.15 127.15 413 127.3 413.1 127.55
L 413.45 130.5
Q 413.55 130.85 413.75 130.95 413.95 131.05 414.45 130.85 415.05 130.6 415.85 130.35
M 454 130.75
Q 453.3 129.2 452.15 128 451.1 126.85 449.5 126.15 447.95 125.5 445.9 125.5 442.7 125.5 440.75 126.95 438.8 128.45 437.7 130.7 436.6 133 436.2 135.7 435.85 138.45 435.85 140.9 435.85 148.25 438.3 152.3 440.75 156.35 445.9 156.35 448.45 156.35 450.3 155.35 452.15 154.25 453.4 152.3 454.65 150.35 455.25 147.45 455.85 144.55 455.85 140.9 455.85 139.25 455.65 137.5 455.5 135.7 455.1 134 454.7 132.3 454 130.75
M 445.9 129.85
Q 447.1 129.85 448.15 130.45 449.15 131 449.9 132.3 450.6 133.65 451 135.75 451.35 137.9 451.35 140.9 451.35 144 451 146.15 450.6 148.25 449.9 149.55 449.15 150.9 448.15 151.45 447.1 152.05 445.9 152.05 444.6 152.05 443.6 151.45 442.6 150.9 441.9 149.55 441.15 148.25 440.8 146.15 440.4 144 440.4 140.9 440.4 137.9 440.8 135.75 441.15 133.65 441.9 132.3 442.6 131 443.6 130.45 444.6 129.85 445.9 129.85
M 626.85 133.9
Q 626.85 131.8 626.15 130.2 625.45 128.6 624.3 127.55 623.15 126.5 621.5 125.95 619.9 125.4 617.95 125.4 616.1 125.4 614.1 126.05 612.15 126.7 610.65 127.5 610.25 127.7 610.1 127.95 610 128.1 610.1 128.3
L 610.65 131.35
Q 610.75 131.7 611.05 131.75 611.35 131.75 611.7 131.55 613.5 130.5 615 130.05 616.55 129.6 618.2 129.6 619.95 129.6 621.1 130.85 622.3 132.1 622.3 134 622.3 135.7 620.7 138.3 619.1 140.95 615.75 144.9
L 609.65 152.15
Q 609.45 152.45 609.25 152.75 609.1 153.1 609.1 153.4
L 609.1 155.7
Q 609.1 156.2 609.85 156.2
L 626.9 156.2
Q 627.45 156.2 627.45 155.5
L 627.45 152.7
Q 627.45 152.1 626.9 152.1
L 615.15 152.1
Q 616.15 150.95 617.15 149.8 618.15 148.6 619 147.5 620.1 146.2 621.5 144.6 622.85 142.95 624.05 141.2 625.25 139.4 626.05 137.55 626.85 135.7 626.85 133.9
M 503.2 125.75
Q 503.05 125.75 502.85 125.85 502.65 125.9 502.6 126
L 496.45 131.65
Q 496.25 131.85 496.25 132.05 496.2 132.3 496.35 132.45
L 498.15 134.6
Q 498.3 134.75 498.55 134.7 498.8 134.7 499.05 134.55
L 502 131.95 502 155.65
Q 502 156.15 502.55 156.15
L 505.75 156.15
Q 506.25 156.15 506.25 155.65
L 506.25 126.85
Q 506.25 126.05 506.1 125.9 506 125.75 505.3 125.75
L 503.2 125.75
M 561.25 125.4
Q 559.3 125.4 557.6 125.95 555.9 126.5 554.65 127.5 553.4 128.5 552.65 129.9 551.9 131.3 551.9 133 551.9 135.3 553.3 137.1 554.7 138.9 557.1 140.3 555.9 140.9 554.8 141.6 553.7 142.3 552.9 143.2 552.1 144.1 551.55 145.25 551.1 146.4 551.1 147.9 551.1 150.05 552 151.65 552.9 153.3 554.35 154.35 555.8 155.4 557.6 155.95 559.45 156.5 561.25 156.5 563.2 156.5 565 155.95 566.9 155.4 568.3 154.35 569.7 153.3 570.55 151.65 571.45 150.05 571.45 147.9 571.45 146.5 571 145.5 570.6 144.45 569.8 143.55 569 142.65 567.9 141.85 566.75 141.1 565.35 140.25 567.95 138.45 569.2 136.7 570.45 134.9 570.45 132.9 570.45 131.15 569.75 129.75 569.05 128.35 567.85 127.4 566.65 126.45 564.95 125.9 563.25 125.4 561.25 125.4
M 559.55 129.6
Q 560.4 129.3 561.25 129.3 562.2 129.3 563.05 129.65 563.9 129.9 564.55 130.45 565.2 131 565.55 131.7 565.95 132.4 565.95 133.2 565.95 133.9 565.45 134.7 564.95 135.5 564.2 136.25 563.45 136.95 562.65 137.5 561.9 138.05 561.25 138.3 560.75 138.1 559.95 137.6 559.15 137.15 558.35 136.45 557.6 135.75 557.05 134.95 556.45 134.15 556.45 133.3 556.45 132.35 556.9 131.6 557.35 130.9 558.05 130.4 558.7 129.9 559.55 129.6
M 555.55 147.9
Q 555.55 146.65 556.15 145.75 556.75 144.85 557.6 144.2 558.45 143.55 559.5 143.15 560.45 142.7 561.25 142.5 562.25 142.85 563.25 143.45 564.25 144.05 565.1 144.75 565.9 145.5 566.4 146.3 566.9 147.15 566.9 147.9 566.9 148.95 566.4 149.8 565.9 150.65 565.1 151.25 564.3 151.85 563.3 152.15 562.25 152.45 561.25 152.45 560.3 152.45 559.25 152.15 558.25 151.8 557.4 151.2 556.6 150.6 556.1 149.75 555.55 148.9 555.55 147.9
M 794.5 204.2
Q 794.7 204.05 794.7 203.75 794.7 203.45 794.5 203.25
L 792.9 201.55
Q 792.7 201.35 792.45 201.35 792.2 201.35 792 201.55
L 784.7 208.8 777.45 201.65
Q 777 201.2 776.5 201.65
L 774.8 203.4
Q 774.6 203.65 774.6 203.85 774.6 204.1 774.8 204.3
L 782.05 211.45 774.5 219
Q 774.3 219.2 774.3 219.5 774.3 219.75 774.5 219.95
L 776.2 221.65
Q 776.5 222.15 777.1 221.65
L 784.65 214.15 792.1 221.65
Q 792.3 221.8 792.6 221.8 792.85 221.8 793.05 221.65
L 794.7 219.85
Q 794.95 219.65 794.95 219.45 794.95 219.2 794.7 219
L 787.25 211.5 794.5 204.2
M 755.9 197.95
Q 754.85 196.8 753.25 196.1 751.7 195.45 749.65 195.45 746.45 195.45 744.5 196.9 742.55 198.4 741.45 200.65 740.35 202.95 739.95 205.65 739.6 208.4 739.6 210.85 739.6 218.2 742.05 222.25 744.5 226.3 749.65 226.3 752.2 226.3 754.05 225.3 755.9 224.2 757.15 222.25 758.4 220.3 759 217.4 759.6 214.5 759.6 210.85 759.6 209.2 759.4 207.45 759.25 205.65 758.85 203.95 758.45 202.25 757.75 200.7 757.05 199.15 755.9 197.95
M 749.65 199.8
Q 750.85 199.8 751.9 200.4 752.9 200.95 753.65 202.25 754.35 203.6 754.75 205.7 755.1 207.85 755.1 210.85 755.1 213.95 754.75 216.1 754.35 218.2 753.65 219.5 752.9 220.85 751.9 221.4 750.85 222 749.65 222 748.35 222 747.35 221.4 746.35 220.85 745.65 219.5 744.9 218.2 744.55 216.1 744.15 213.95 744.15 210.85 744.15 207.85 744.55 205.7 744.9 203.6 745.65 202.25 746.35 200.95 747.35 200.4 748.35 199.8 749.65 199.8
M 720.9 195.7
Q 719.2 196.1 717.45 196.7 717.05 196.9 716.9 197.1 716.75 197.25 716.85 197.5
L 717.2 200.45
Q 717.3 200.8 717.5 200.9 717.7 201 718.2 200.8 718.8 200.55 719.6 200.3 720.4 200.05 721.2 199.9 722 199.7 722.75 199.6 723.45 199.5 724 199.5 724.85 199.5 725.8 199.7 726.75 199.9 727.6 200.4 728.4 200.85 728.95 201.65 729.45 202.4 729.45 203.4 729.45 204.75 728.65 205.65 727.85 206.6 726.65 207.2 725.5 207.8 724.25 208.05 723 208.3 722.15 208.3
L 720.25 208.3
Q 719.9 208.3 719.8 208.4 719.7 208.45 719.7 208.85
L 719.7 211.8
Q 719.7 212.1 719.8 212.2 719.9 212.3 720.25 212.3
L 722.2 212.3
Q 724.15 212.3 725.5 212.7 726.9 213.05 727.8 213.75 728.65 214.4 729.1 215.25 729.5 216.1 729.5 217.05 729.5 219.7 727.55 221.05 726.9 221.5 726.15 221.75 725.35 222.05 724.5 222.15 723.65 222.25 722.75 222.2 721.85 222.15 721.05 222.1 719.95 222 718.9 221.7 717.85 221.4 716.8 221.1 716.25 220.85 716.05 221 715.85 221.1 715.8 221.45
L 715.45 224.5
Q 715.4 224.85 715.6 225 715.75 225.2 716.15 225.3 717.6 225.85 719.35 226.15 721.1 226.45 722.85 226.45 725.15 226.45 727.3 225.85 729.45 225.3 730.95 224.05 732.45 222.8 733.3 221.05 734.1 219.25 734.1 217.15 734.1 214.95 732.75 213.15 731.4 211.4 728.75 210.25 729.85 209.75 730.8 209 731.75 208.25 732.45 207.25 733.15 206.3 733.55 205.25 733.9 204.15 733.9 203.05 733.9 201.05 733.05 199.55 732.2 198.05 730.85 197.15 729.55 196.25 727.8 195.8 726.05 195.35 724.25 195.35 722.55 195.35 720.9 195.7 Z"/>

<path fill="#E50182" stroke="none" d="
M 155.3 252.55
Q 155.3 252.1 155.15 251.95 155 251.8 154.3 251.8
L 137.3 251.8
Q 136.6 251.8 136.6 252.45
L 136.6 255.25
Q 136.6 255.6 136.8 255.75 137 255.95 137.3 255.95
L 150.05 255.95 139.6 281.5
Q 139.45 281.95 139.6 282.05 139.75 282.2 140.35 282.2
L 143.6 282.2
Q 144 282.2 144.15 282.1 144.3 281.95 144.5 281.65
L 155.05 255.6
Q 155.3 255.3 155.3 254.95
L 155.3 252.55
M 154.8 172.2
Q 153.9 171.85 152.45 171.65 151.05 171.45 149.9 171.45 146.15 171.45 143.6 172.75 141.05 174.1 139.45 176.35 137.9 178.55 137.2 181.6 136.5 184.6 136.5 188 136.5 195.45 139.05 199 141.6 202.55 146.3 202.55 148.6 202.55 150.45 201.75 152.3 200.95 153.6 199.5 154.9 198.15 155.55 196.2 156.25 194.35 156.25 192.15 156.25 189.85 155.55 188.05 154.85 186.2 153.55 184.9 152.3 183.6 150.5 182.9 148.75 182.2 146.55 182.2 145.8 182.2 145 182.45 144.2 182.65 143.45 183 142.7 183.35 142.1 183.8 141.5 184.25 141.15 184.75 141.4 182.8 142 181.1 142.55 179.45 143.55 178.2 144.55 176.95 146 176.25 147.5 175.6 149.55 175.6 150.95 175.6 152.15 175.7 153.3 175.8 154.35 176.2 154.9 176.45 155 175.9
L 155.1 172.7
Q 155.15 172.3 154.8 172.2
M 141.55 194.5
Q 141.15 193.35 141.15 191.95 141.15 189.5 142.65 187.95 144.1 186.4 146.7 186.4 149.15 186.4 150.5 188 151.85 189.55 151.85 192.35 151.85 195.2 150.35 196.9 148.8 198.55 146.4 198.55 145.3 198.55 144.3 198.05 143.35 197.55 142.65 196.65 141.95 195.75 141.55 194.5
M 138.45 91.9
Q 138.3 92 138.3 92.45
L 138.1 107.2
Q 138.1 108.55 139.65 107.9 140.9 107.45 142.3 107.2 143.7 106.9 145 106.9 148.3 106.9 149.7 108.45 151.15 109.95 151.15 112.55 151.15 115.25 149.35 116.75 147.65 118.3 144.95 118.3 144.25 118.3 143.4 118.2 142.6 118.15 141.75 118 140.9 117.8 140.1 117.6 139.3 117.35 138.75 117.05 137.9 116.65 137.9 117.35
L 137.9 120.6
Q 137.9 120.9 137.9 121.05 137.95 121.15 138.2 121.35 138.85 121.65 139.8 121.85 140.7 122.1 141.65 122.25 142.6 122.35 143.4 122.45 144.25 122.5 144.65 122.5 146.95 122.5 149 121.85 151.1 121.2 152.5 119.9 155.65 117.1 155.65 112.05 155.65 109.95 154.9 108.3 154.15 106.6 152.85 105.4 151.55 104.25 149.8 103.6 148.05 103 146.05 103 144.1 103 142.5 103.35
L 142.65 95.95 153.8 95.95
Q 154.05 95.95 154.2 95.75 154.3 95.6 154.3 95.35
L 154.3 92.3
Q 154.3 92.1 154.2 91.95 154.05 91.75 153.8 91.75
L 139.15 91.75
Q 138.55 91.75 138.45 91.9 Z"/>

<path fill="#EC008C" stroke="none" d="
M 700.55 210.7
L 700.55 207.15 674.1 207.15 674.1 203.2 664.1 208.95 674.1 214.7 674.1 210.7 700.55 210.7 Z"/>
</g>

<path id="Layer0_0_1_STROKES" stroke="#DBDBDB" stroke-width="3" stroke-linejoin="round" stroke-linecap="round" fill="none" d="
M 827.65 180.9
L 849.7 180.9 867.65 180.9
Q 882.65 180.9 882.65 195.9
L 882.65 225.95
Q 882.65 240.95 867.65 240.95
L 849.7 240.95 827.65 240.95
Q 812.65 240.95 812.65 225.95
L 812.65 195.9
Q 812.65 180.9 827.65 180.9 Z
M 594.6 38.9
L 616.65 38.9 634.6 38.9
Q 649.6 38.9 649.6 53.9
L 649.6 83.95
Q 649.6 98.95 634.6 98.95
L 616.65 98.95 594.6 98.95
Q 579.6 98.95 579.6 83.95
L 579.6 53.9
Q 579.6 38.9 594.6 38.9 Z
M 595.95 270.9
L 618 270.9 635.95 270.9
Q 650.95 270.9 650.95 285.9
L 650.95 315.95
Q 650.95 330.95 635.95 330.95
L 618 330.95 595.95 330.95
Q 580.95 330.95 580.95 315.95
L 580.95 285.9
Q 580.95 270.9 595.95 270.9 Z
M 485.95 180.9
L 618 180.9 635.95 180.9
Q 650.95 180.9 650.95 195.9
L 650.95 225.95
Q 650.95 240.95 635.95 240.95
L 618 240.95 485.95 240.95
Q 470.95 240.95 470.95 225.95
L 470.95 195.9
Q 470.95 180.9 485.95 180.9 Z"/>

<path id="Layer0_0_2_STROKES" stroke="#CCCCCC" stroke-width="3" stroke-linejoin="round" stroke-linecap="round" fill="none" d="
M 797.95 458.35
L 991.45 458.35
M 447.95 458.35
L 641.45 458.35"/>

<path id="Layer0_0_3_STROKES" stroke="#000000" stroke-width="3" stroke-linejoin="round" stroke-linecap="butt" fill="none" d="
M 649.95 110.55
L 461.35 110.55
Q 462.15 111.75 462.95 113.15 469.2 124 469.2 139.2 469.2 154.5 462.95 165.3 462.35 166.4 461.75 167.3
M 649.95 255.55
L 461.35 255.55"/>
</defs>

<g transform="matrix( 1, 0, 0, 1, 0,0) ">
<use xlink:href="#Layer0_0_FILL"/>

<use xlink:href="#Layer0_0_1_STROKES"/>

<use xlink:href="#Layer0_0_2_STROKES"/>

<use xlink:href="#Layer0_0_3_STROKES"/>
</g>
</svg>
