
<svg xmlns="http://www.w3.org/2000/svg" version="1.1" xmlns:xlink="http://www.w3.org/1999/xlink" preserveAspectRatio="none" x="0px" y="0px" width="1280px" height="720px" viewBox="0 0 1280 720">
<defs>
<g id="Layer0_0_FILL">
<path fill="#1E1E1E" stroke="none" d="
M 507.85 440.35
Q 507.65 440.4 507.6 440.5
L 501.45 446.15
Q 501.25 446.35 501.25 446.55 501.2 446.8 501.35 446.95
L 503.15 449.1
Q 503.3 449.25 503.55 449.2 503.8 449.2 504.05 449.05
L 507 446.45 507 470.15
Q 507 470.65 507.55 470.65
L 510.75 470.65
Q 511.25 470.65 511.25 470.15
L 511.25 441.35
Q 511.25 440.55 511.1 440.4 511 440.25 510.3 440.25
L 508.2 440.25
Q 508.05 440.25 507.85 440.35
M 535.5 441.35
Q 535.5 440.55 535.35 440.4 535.25 440.25 534.55 440.25
L 532.45 440.25
Q 532.3 440.25 532.1 440.35 531.9 440.4 531.85 440.5
L 525.7 446.15
Q 525.5 446.35 525.5 446.55 525.45 446.8 525.6 446.95
L 527.4 449.1
Q 527.55 449.25 527.8 449.2 528.05 449.2 528.3 449.05
L 531.25 446.45 531.25 470.15
Q 531.25 470.65 531.8 470.65
L 535 470.65
Q 535.5 470.65 535.5 470.15
L 535.5 441.35
M 582.65 431.8
Q 583.2 431.8 583.2 431.25
L 583.2 428.15
Q 583.2 427.65 582.65 427.65
L 577 427.65 574.4 427.65 561.5 427.65
Q 561.25 427.65 561.1 427.8 560.95 427.95 560.95 428.15
L 560.95 431.25
Q 560.95 431.45 561.1 431.65 561.25 431.8 561.5 431.8
L 574.4 431.8 577 431.8 582.65 431.8
M 639.2 440.4
Q 639.1 440.25 638.4 440.25
L 636.3 440.25
Q 636.15 440.25 635.95 440.35 635.75 440.4 635.7 440.5
L 629.55 446.15
Q 629.35 446.35 629.35 446.55 629.3 446.8 629.45 446.95
L 631.25 449.1
Q 631.4 449.25 631.65 449.2 631.9 449.2 632.15 449.05
L 635.1 446.45 635.1 470.15
Q 635.1 470.65 635.65 470.65
L 638.85 470.65
Q 639.35 470.65 639.35 470.15
L 639.35 441.35
Q 639.35 440.55 639.2 440.4
M 615.1 441.35
Q 615.1 440.55 614.95 440.4 614.85 440.25 614.15 440.25
L 612.05 440.25
Q 611.9 440.25 611.7 440.35 611.5 440.4 611.45 440.5
L 605.3 446.15
Q 605.1 446.35 605.1 446.55 605.05 446.8 605.2 446.95
L 607 449.1
Q 607.15 449.25 607.4 449.2 607.65 449.2 607.9 449.05
L 610.85 446.45 610.85 470.15
Q 610.85 470.65 611.4 470.65
L 614.6 470.65
Q 615.1 470.65 615.1 470.15
L 615.1 441.35
M 179.45 427.65
Q 179.2 427.65 179.05 427.8 178.9 427.95 178.9 428.15
L 178.9 431.25
Q 178.9 431.45 179.05 431.65 179.2 431.8 179.45 431.8
L 192.35 431.8 194.95 431.8 200.6 431.8
Q 201.15 431.8 201.15 431.25
L 201.15 428.15
Q 201.15 427.65 200.6 427.65
L 194.95 427.65 192.35 427.65 179.45 427.65
M 967.9 427.65
L 965.3 427.65 952.4 427.65
Q 952.15 427.65 952 427.8 951.85 427.95 951.85 428.15
L 951.85 431.25
Q 951.85 431.45 952 431.65 952.15 431.8 952.4 431.8
L 965.3 431.8 967.9 431.8 973.55 431.8
Q 974.1 431.8 974.1 431.25
L 974.1 428.15
Q 974.1 427.65 973.55 427.65
L 967.9 427.65
M 139.15 440.7
Q 137.3 441.5 136 442.9 134.7 444.3 134 446.2 133.35 448.1 133.35 450.3 133.35 452.6 134.05 454.4 134.7 456.2 136 457.5 137.3 458.8 139.1 459.5 140.85 460.2 143 460.2 143.75 460.2 144.55 460 145.35 459.8 146.1 459.45 146.85 459.1 147.5 458.65 148.1 458.2 148.45 457.7 148.2 459.6 147.6 461.3 147 462.95 146 464.2 145 465.45 143.55 466.15 142.1 466.85 140 466.85 138.6 466.85 137.45 466.75 136.25 466.65 135.2 466.2 134.65 466 134.55 466.55
L 134.45 469.75
Q 134.4 470.15 134.75 470.25 135.7 470.6 137.1 470.8 138.55 471 139.7 471 143.4 471 145.95 469.65 148.55 468.35 150.1 466.1 151.7 463.85 152.4 460.85 153.05 457.8 153.05 454.45 153.05 447 150.5 443.45 147.95 439.9 143.25 439.9 140.95 439.9 139.15 440.7
M 143.2 443.85
Q 144.3 443.85 145.25 444.4 146.2 444.9 146.9 445.8 147.6 446.7 148 447.9 148.4 449.1 148.4 450.45 148.4 452.9 146.95 454.5 145.45 456.05 142.85 456.05 140.4 456.05 139.1 454.45 137.75 452.85 137.75 450.1 137.75 447.2 139.25 445.55 140.8 443.85 143.2 443.85
M 244.1 466.1
Q 245.7 463.85 246.4 460.85 247.05 457.8 247.05 454.45 247.05 447 244.5 443.45 241.95 439.9 237.25 439.9 234.95 439.9 233.15 440.7 231.3 441.5 230 442.9 228.7 444.3 228 446.2 227.35 448.1 227.35 450.3 227.35 452.6 228.05 454.4 228.7 456.2 230 457.5 231.3 458.8 233.1 459.5 234.85 460.2 237 460.2 237.75 460.2 238.55 460 239.35 459.8 240.1 459.45 240.85 459.1 241.5 458.65 242.1 458.2 242.45 457.7 242.2 459.6 241.6 461.3 241 462.95 240 464.2 239 465.45 237.55 466.15 236.1 466.85 234 466.85 232.6 466.85 231.45 466.75 230.25 466.65 229.2 466.2 228.65 466 228.55 466.55
L 228.45 469.75
Q 228.4 470.15 228.75 470.25 229.7 470.6 231.1 470.8 232.55 471 233.7 471 237.4 471 239.95 469.65 242.55 468.35 244.1 466.1
M 237.2 443.85
Q 238.3 443.85 239.25 444.4 240.2 444.9 240.9 445.8 241.6 446.7 242 447.9 242.4 449.1 242.4 450.45 242.4 452.9 240.95 454.5 239.45 456.05 236.85 456.05 234.4 456.05 233.1 454.45 231.75 452.85 231.75 450.1 231.75 447.2 233.25 445.55 234.8 443.85 237.2 443.85
M 297.7 432.7
Q 297.55 432.6 297.35 432.6
L 276.25 432.6
Q 276.05 432.6 275.9 432.7 275.75 432.85 275.75 433.05
L 275.75 436.2
Q 275.75 436.45 275.9 436.55 276.05 436.7 276.25 436.7
L 297.35 436.7
Q 297.55 436.7 297.7 436.55 297.85 436.45 297.85 436.2
L 297.85 433.05
Q 297.85 432.85 297.7 432.7
M 297.7 424.4
Q 297.55 424.25 297.35 424.25
L 276.25 424.25
Q 276.05 424.25 275.9 424.4 275.75 424.55 275.75 424.75
L 275.75 427.9
Q 275.75 428.1 275.9 428.25 276.05 428.4 276.25 428.4
L 297.35 428.4
Q 297.55 428.4 297.7 428.25 297.85 428.1 297.85 427.9
L 297.85 424.75
Q 297.85 424.55 297.7 424.4
M 232.35 390.55
Q 230.4 391.2 228.9 392 228.5 392.2 228.35 392.45 228.25 392.6 228.35 392.8
L 228.9 395.85
Q 229 396.2 229.3 396.25 229.6 396.25 229.95 396.05 231.75 395 233.25 394.55 234.8 394.1 236.45 394.1 238.2 394.1 239.35 395.35 240.55 396.6 240.55 398.5 240.55 400.2 238.95 402.8 237.35 405.45 234 409.4
L 227.9 416.65
Q 227.7 416.95 227.5 417.25 227.35 417.6 227.35 417.9
L 227.35 420.2
Q 227.35 420.7 228.1 420.7
L 245.15 420.7
Q 245.7 420.7 245.7 420
L 245.7 417.2
Q 245.7 416.6 245.15 416.6
L 233.4 416.6
Q 234.4 415.45 235.4 414.3 236.4 413.1 237.25 412 238.35 410.7 239.75 409.1 241.1 407.45 242.3 405.7 243.5 403.9 244.3 402.05 245.1 400.2 245.1 398.4 245.1 396.3 244.4 394.7 243.7 393.1 242.55 392.05 241.4 391 239.75 390.45 238.15 389.9 236.2 389.9 234.35 389.9 232.35 390.55
M 133.85 394.2
Q 134.05 394.4 134.35 394.4
L 147.1 394.4 136.65 419.95
Q 136.5 420.4 136.65 420.5 136.8 420.65 137.4 420.65
L 140.65 420.65
Q 141.05 420.65 141.2 420.55 141.35 420.4 141.55 420.1
L 152.1 394.05
Q 152.35 393.75 152.35 393.4
L 152.35 391
Q 152.35 390.55 152.2 390.4 152.05 390.25 151.35 390.25
L 134.35 390.25
Q 133.65 390.25 133.65 390.9
L 133.65 393.7
Q 133.65 394.05 133.85 394.2
M 626.3 390.35
Q 626.2 390.45 626 390.8
L 613.6 409.4
Q 613.45 409.55 613.3 409.85 613.1 410.15 613.1 410.4
L 613.1 413.4
Q 613.1 413.7 613.25 413.75 613.4 413.85 613.75 413.85
L 626.55 413.85 626.55 419.95
Q 626.55 420.35 626.7 420.5 626.85 420.65 627.3 420.65
L 630.2 420.65
Q 630.6 420.65 630.7 420.5 630.85 420.4 630.85 419.95
L 630.85 413.85 634.55 413.85
Q 634.9 413.85 635.05 413.75 635.2 413.65 635.2 413.25
L 635.2 410.35
Q 635.2 409.95 635.05 409.85 634.9 409.75 634.55 409.75
L 630.85 409.75 630.85 390.85
Q 630.85 390.5 630.8 390.4 630.75 390.25 630.45 390.25
L 626.8 390.25
Q 626.4 390.25 626.3 390.35
M 626.55 409.75
L 617.95 409.75 626.55 396.7 626.55 409.75
M 524.2 390.4
Q 522.5 389.9 520.5 389.9 518.55 389.9 516.85 390.45 515.15 391 513.9 392 512.65 393 511.9 394.4 511.15 395.8 511.15 397.5 511.15 399.8 512.55 401.6 513.95 403.4 516.35 404.8 515.15 405.4 514.05 406.1 512.95 406.8 512.15 407.7 511.35 408.6 510.8 409.75 510.35 410.9 510.35 412.4 510.35 414.55 511.25 416.15 512.15 417.8 513.6 418.85 515.05 419.9 516.85 420.45 518.7 421 520.5 421 522.45 421 524.25 420.45 526.15 419.9 527.55 418.85 528.95 417.8 529.8 416.15 530.7 414.55 530.7 412.4 530.7 411 530.25 410 529.85 408.95 529.05 408.05 528.25 407.15 527.15 406.35 526 405.6 524.6 404.75 527.2 402.95 528.45 401.2 529.7 399.4 529.7 397.4 529.7 395.65 529 394.25 528.3 392.85 527.1 391.9 525.9 390.95 524.2 390.4
M 520.5 393.8
Q 521.45 393.8 522.3 394.15 523.15 394.4 523.8 394.95 524.45 395.5 524.8 396.2 525.2 396.9 525.2 397.7 525.2 398.4 524.7 399.2 524.2 400 523.45 400.75 522.7 401.45 521.9 402 521.15 402.55 520.5 402.8 520 402.6 519.2 402.1 518.4 401.65 517.6 400.95 516.85 400.25 516.3 399.45 515.7 398.65 515.7 397.8 515.7 396.85 516.15 396.1 516.6 395.4 517.3 394.9 517.95 394.4 518.8 394.1 519.65 393.8 520.5 393.8
M 518.75 407.65
Q 519.7 407.2 520.5 407 521.5 407.35 522.5 407.95 523.5 408.55 524.35 409.25 525.15 410 525.65 410.8 526.15 411.65 526.15 412.4 526.15 413.45 525.65 414.3 525.15 415.15 524.35 415.75 523.55 416.35 522.55 416.65 521.5 416.95 520.5 416.95 519.55 416.95 518.5 416.65 517.5 416.3 516.65 415.7 515.85 415.1 515.35 414.25 514.8 413.4 514.8 412.4 514.8 411.15 515.4 410.25 516 409.35 516.85 408.7 517.7 408.05 518.75 407.65
M 1018.3 443.8
L 1018.3 440.75
Q 1018.3 440.55 1018.2 440.4 1018.05 440.2 1017.8 440.2
L 1003.15 440.2
Q 1002.55 440.2 1002.45 440.35 1002.3 440.45 1002.3 440.9
L 1002.1 455.65
Q 1002.1 457 1003.65 456.35 1004.9 455.9 1006.3 455.65 1007.7 455.35 1009 455.35 1012.3 455.35 1013.7 456.9 1015.15 458.4 1015.15 461 1015.15 463.7 1013.35 465.2 1011.65 466.75 1008.95 466.75 1008.25 466.75 1007.4 466.65 1006.6 466.6 1005.75 466.45 1004.9 466.25 1004.1 466.05 1003.3 465.8 1002.75 465.5 1001.9 465.1 1001.9 465.8
L 1001.9 469.05
Q 1001.9 469.35 1001.9 469.5 1001.95 469.6 1002.2 469.8 1002.85 470.1 1003.8 470.3 1004.7 470.55 1005.65 470.7 1006.6 470.8 1007.4 470.9 1008.25 470.95 1008.65 470.95 1010.95 470.95 1013 470.3 1015.1 469.65 1016.5 468.35 1019.65 465.55 1019.65 460.5 1019.65 458.4 1018.9 456.75 1018.15 455.05 1016.85 453.85 1015.55 452.7 1013.8 452.05 1012.05 451.45 1010.05 451.45 1008.1 451.45 1006.5 451.8
L 1006.65 444.4 1017.8 444.4
Q 1018.05 444.4 1018.2 444.2 1018.3 444.05 1018.3 443.8
M 1070.3 428.4
Q 1070.5 428.4 1070.65 428.25 1070.8 428.1 1070.8 427.9
L 1070.8 424.75
Q 1070.8 424.55 1070.65 424.4 1070.5 424.25 1070.3 424.25
L 1049.2 424.25
Q 1049 424.25 1048.85 424.4 1048.7 424.55 1048.7 424.75
L 1048.7 427.9
Q 1048.7 428.1 1048.85 428.25 1049 428.4 1049.2 428.4
L 1070.3 428.4
M 1070.8 433.05
Q 1070.8 432.85 1070.65 432.7 1070.5 432.6 1070.3 432.6
L 1049.2 432.6
Q 1049 432.6 1048.85 432.7 1048.7 432.85 1048.7 433.05
L 1048.7 436.2
Q 1048.7 436.45 1048.85 436.55 1049 436.7 1049.2 436.7
L 1070.3 436.7
Q 1070.5 436.7 1070.65 436.55 1070.8 436.45 1070.8 436.2
L 1070.8 433.05
M 689.35 428.4
Q 689.55 428.4 689.7 428.25 689.85 428.1 689.85 427.9
L 689.85 424.75
Q 689.85 424.55 689.7 424.4 689.55 424.25 689.35 424.25
L 668.25 424.25
Q 668.05 424.25 667.9 424.4 667.75 424.55 667.75 424.75
L 667.75 427.9
Q 667.75 428.1 667.9 428.25 668.05 428.4 668.25 428.4
L 689.35 428.4
M 689.85 433.05
Q 689.85 432.85 689.7 432.7 689.55 432.6 689.35 432.6
L 668.25 432.6
Q 668.05 432.6 667.9 432.7 667.75 432.85 667.75 433.05
L 667.75 436.2
Q 667.75 436.45 667.9 436.55 668.05 436.7 668.25 436.7
L 689.35 436.7
Q 689.55 436.7 689.7 436.55 689.85 436.45 689.85 436.2
L 689.85 433.05
M 933 415.4
Q 932.9 415.25 932.2 415.25
L 930.1 415.25
Q 929.95 415.25 929.75 415.35 929.55 415.4 929.5 415.5
L 923.35 421.15
Q 923.15 421.35 923.15 421.55 923.1 421.8 923.25 421.95
L 925.05 424.1
Q 925.2 424.25 925.45 424.2 925.7 424.2 925.95 424.05
L 928.9 421.45 928.9 445.15
Q 928.9 445.65 929.45 445.65
L 932.65 445.65
Q 933.15 445.65 933.15 445.15
L 933.15 416.35
Q 933.15 415.55 933 415.4
M 1009.15 389.9
Q 1007.3 389.9 1005.3 390.55 1003.35 391.2 1001.85 392 1001.45 392.2 1001.3 392.45 1001.2 392.6 1001.3 392.8
L 1001.85 395.85
Q 1001.95 396.2 1002.25 396.25 1002.55 396.25 1002.9 396.05 1004.7 395 1006.2 394.55 1007.75 394.1 1009.4 394.1 1011.15 394.1 1012.3 395.35 1013.5 396.6 1013.5 398.5 1013.5 400.2 1011.9 402.8 1010.3 405.45 1006.95 409.4
L 1000.85 416.65
Q 1000.65 416.95 1000.45 417.25 1000.3 417.6 1000.3 417.9
L 1000.3 420.2
Q 1000.3 420.7 1001.05 420.7
L 1018.1 420.7
Q 1018.65 420.7 1018.65 420
L 1018.65 417.2
Q 1018.65 416.6 1018.1 416.6
L 1006.35 416.6
Q 1007.35 415.45 1008.35 414.3 1009.35 413.1 1010.2 412 1011.3 410.7 1012.7 409.1 1014.05 407.45 1015.25 405.7 1016.45 403.9 1017.25 402.05 1018.05 400.2 1018.05 398.4 1018.05 396.3 1017.35 394.7 1016.65 393.1 1015.5 392.05 1014.35 391 1012.7 390.45 1011.1 389.9 1009.15 389.9 Z"/>

<path fill="#FFFFFF" stroke="none" d="
M 321.55 454.7
L 321.55 484.75
Q 321.55 499.75 336.55 499.75
L 366.55 499.75
Q 381.55 499.75 381.55 484.75
L 381.55 454.7
Q 381.55 439.7 366.55 439.7
L 336.55 439.7
Q 321.55 439.7 321.55 454.7
M 381.55 374.7
Q 381.55 359.7 366.55 359.7
L 336.55 359.7
Q 321.55 359.7 321.55 374.7
L 321.55 404.75
Q 321.55 419.75 336.55 419.75
L 366.55 419.75
Q 381.55 419.75 381.55 404.75
L 381.55 374.7
M 1154.5 484.75
L 1154.5 454.7
Q 1154.5 439.7 1139.5 439.7
L 1109.5 439.7
Q 1094.5 439.7 1094.5 454.7
L 1094.5 484.75
Q 1094.5 499.75 1109.5 499.75
L 1139.5 499.75
Q 1154.5 499.75 1154.5 484.75
M 793.7 484.75
L 793.7 454.7
Q 793.7 439.7 778.7 439.7
L 728.7 439.7
Q 713.7 439.7 713.7 454.7
L 713.7 484.75
Q 713.7 499.75 728.7 499.75
L 778.7 499.75
Q 793.7 499.75 793.7 484.75
M 768.7 359.7
L 738.7 359.7
Q 723.7 359.7 723.7 374.7
L 723.7 404.75
Q 723.7 419.75 738.7 419.75
L 768.7 419.75
Q 783.7 419.75 783.7 404.75
L 783.7 374.7
Q 783.7 359.7 768.7 359.7
M 1109.5 359.7
Q 1094.5 359.7 1094.5 374.7
L 1094.5 404.75
Q 1094.5 419.75 1109.5 419.75
L 1139.5 419.75
Q 1154.5 419.75 1154.5 404.75
L 1154.5 374.7
Q 1154.5 359.7 1139.5 359.7
L 1109.5 359.7 Z"/>
</g>

<path id="Layer0_0_1_STROKES" stroke="#1E1E1E" stroke-width="3" stroke-linejoin="miter" stroke-linecap="butt" stroke-miterlimit="3" fill="none" d="
M 710.9 429.2
L 796.55 429.2
M 991.1 430.2
L 1029.3 430.2
M 1093.15 429.7
L 1155.9 429.7
M 218.15 430.2
L 256.35 430.2
M 124.15 430.2
L 162.35 430.2
M 600.8 430.2
L 647.65 430.2
M 496.95 430.2
L 543.8 430.2
M 320.2 429.7
L 382.95 429.7"/>

<path id="Layer0_0_2_STROKES" stroke="#DBDBDB" stroke-width="3" stroke-linejoin="round" stroke-linecap="round" fill="none" d="
M 1109.5 359.7
L 1139.5 359.7
Q 1154.5 359.7 1154.5 374.7
L 1154.5 404.75
Q 1154.5 419.75 1139.5 419.75
L 1109.5 419.75
Q 1094.5 419.75 1094.5 404.75
L 1094.5 374.7
Q 1094.5 359.7 1109.5 359.7 Z
M 738.7 359.7
L 768.7 359.7
Q 783.7 359.7 783.7 374.7
L 783.7 404.75
Q 783.7 419.75 768.7 419.75
L 738.7 419.75
Q 723.7 419.75 723.7 404.75
L 723.7 374.7
Q 723.7 359.7 738.7 359.7 Z
M 728.7 439.7
L 778.7 439.7
Q 793.7 439.7 793.7 454.7
L 793.7 484.75
Q 793.7 499.75 778.7 499.75
L 728.7 499.75
Q 713.7 499.75 713.7 484.75
L 713.7 454.7
Q 713.7 439.7 728.7 439.7 Z
M 1109.5 439.7
L 1139.5 439.7
Q 1154.5 439.7 1154.5 454.7
L 1154.5 484.75
Q 1154.5 499.75 1139.5 499.75
L 1109.5 499.75
Q 1094.5 499.75 1094.5 484.75
L 1094.5 454.7
Q 1094.5 439.7 1109.5 439.7 Z
M 336.55 359.7
L 366.55 359.7
Q 381.55 359.7 381.55 374.7
L 381.55 404.75
Q 381.55 419.75 366.55 419.75
L 336.55 419.75
Q 321.55 419.75 321.55 404.75
L 321.55 374.7
Q 321.55 359.7 336.55 359.7 Z
M 336.55 439.7
L 366.55 439.7
Q 381.55 439.7 381.55 454.7
L 381.55 484.75
Q 381.55 499.75 366.55 499.75
L 336.55 499.75
Q 321.55 499.75 321.55 484.75
L 321.55 454.7
Q 321.55 439.7 336.55 439.7 Z"/>
</defs>

<g transform="matrix( 1, 0, 0, 1, 0,0) ">
<use xlink:href="#Layer0_0_FILL"/>

<use xlink:href="#Layer0_0_1_STROKES"/>

<use xlink:href="#Layer0_0_2_STROKES"/>
</g>
</svg>
