<?xml version="1.0" encoding="utf-8"?>
<!-- Generator: Adobe Illustrator 23.1.0, SVG Export Plug-In . SVG Version: 6.00 Build 0)  -->
<svg version="1.1" id="레이어_1" xmlns="http://www.w3.org/2000/svg" xmlns:xlink="http://www.w3.org/1999/xlink" x="0px"
	 y="0px" width="1200px" height="500px" viewBox="0 0 1200 500" style="enable-background:new 0 0 1200 500;" xml:space="preserve">
<g>
	<path style="fill:none;stroke:#BD7AB1;stroke-width:7;stroke-linecap:round;stroke-linejoin:round;stroke-miterlimit:10;" d="
		M393.9,167.5c6.6,7.5,13.9,13.3,21.5,17.8"/>
	<path style="fill:none;stroke:#BD7AB1;stroke-width:7;stroke-linecap:round;stroke-linejoin:round;stroke-miterlimit:10;" d="
		M432.8,190.9c15,3.8,30.8,3.4,44.9,0c10.1-2.5,21.5-6.6,32.9-8.2"/>
	<path style="fill:none;stroke:#BD7AB1;stroke-width:7;stroke-linecap:round;stroke-linejoin:round;stroke-miterlimit:10;" d="
		M527.4,183.3c8.2,1.3,16.2,5.1,23.7,13.3"/>
</g>
<g>
	<g>
		<path d="M887.1,418.7c0.2,0.3,0.3,0.7,0.3,1.1s-0.1,0.8-0.3,1.1c-0.2,0.3-0.5,0.5-1,0.5h-5.9v1.7c0,1.2,0.2,2.2,0.6,3
			c0.4,0.8,1,1.6,1.9,2.3c0.8,0.7,1.6,1.3,2.4,1.9c0.7,0.6,1.4,1.1,2,1.5c0.4,0.3,0.6,0.6,0.6,1.1c0,0.4-0.1,0.8-0.4,1.2
			c-0.2,0.3-0.6,0.5-1,0.7s-0.8,0.1-1.3-0.2c-0.4-0.3-1-0.7-1.7-1.3c-0.7-0.5-1.4-1.1-2.2-1.7c-0.9-0.8-1.6-1.4-1.9-1.8
			c-0.4-0.5-0.6-0.9-0.7-1.2l0,0c-0.1,0.4-0.3,0.9-0.8,1.4c-0.4,0.5-1.1,1.1-2,1.8c-0.8,0.6-1.6,1.2-2.3,1.8s-1.5,1.1-2.2,1.6
			c-0.4,0.3-0.8,0.4-1.2,0.2c-0.4-0.1-0.7-0.4-1-0.7c-0.3-0.3-0.4-0.7-0.4-1.2c0-0.4,0.2-0.8,0.6-1.1c0.9-0.6,1.7-1.2,2.5-1.8
			c0.8-0.6,1.6-1.2,2.5-1.9c0.8-0.7,1.4-1.5,1.8-2.3c0.4-0.8,0.6-1.8,0.6-3v-1.8h-6.1c-0.5,0-0.8-0.2-1-0.5s-0.3-0.7-0.3-1.1
			s0.1-0.8,0.3-1.1c0.2-0.3,0.5-0.5,1-0.5h15.6C886.6,418.2,886.9,418.4,887.1,418.7z M892.2,437.8c1.1,0,1.8,0.2,2.2,0.6
			s0.6,1.1,0.6,2.2v8.4c0,0.5-0.2,0.9-0.5,1.2c-0.4,0.2-0.8,0.4-1.3,0.4s-0.9-0.1-1.3-0.4c-0.4-0.2-0.5-0.6-0.5-1.2v-7.3
			c0-0.5-0.3-0.7-0.8-0.7h-16c-0.5,0-0.8-0.2-1-0.5s-0.3-0.7-0.3-1.1s0.1-0.8,0.3-1.1c0.2-0.3,0.5-0.5,1-0.5H892.2z M893.2,416.3
			c0.5,0,0.9,0.1,1.3,0.4c0.4,0.2,0.5,0.6,0.5,1.2v16.8c0,0.5-0.2,0.9-0.5,1.2c-0.4,0.2-0.8,0.4-1.3,0.4s-0.9-0.1-1.3-0.4
			c-0.4-0.2-0.5-0.6-0.5-1.2v-16.8c0-0.5,0.2-0.9,0.5-1.2C892.3,416.4,892.7,416.3,893.2,416.3z"/>
		<path d="M912.9,418.2c1.1,0,1.8,0.2,2.2,0.6s0.6,1.1,0.6,2.2v2.8c0,1.3-0.2,2.4-0.5,3.3s-1,1.8-1.9,2.6c-0.9,0.8-2.3,1.7-3.9,2.6
			c-1.7,0.9-3.9,2-6.6,3.4c-0.4,0.2-0.8,0.2-1.2,0s-0.7-0.5-0.9-0.9s-0.2-0.8-0.2-1.2c0-0.4,0.3-0.8,0.8-1c1.7-0.8,3.1-1.5,4.3-2.1
			s2.2-1.1,3-1.6s1.4-0.9,1.9-1.3s0.8-0.8,1.1-1.2c0.3-0.4,0.4-0.8,0.5-1.3c0.1-0.4,0.1-0.9,0.1-1.5v-1.5c0-0.3-0.1-0.5-0.2-0.6
			c-0.1-0.1-0.3-0.2-0.6-0.2H902c-0.4,0-0.8-0.2-1-0.5s-0.3-0.7-0.3-1.1s0.1-0.8,0.3-1.1c0.2-0.3,0.5-0.5,1-0.5h10.9V418.2z
			 M922.4,437.8c1.1,0,1.8,0.2,2.2,0.6s0.6,1.1,0.6,2.2v8.4c0,0.5-0.2,0.9-0.5,1.2c-0.4,0.2-0.8,0.4-1.3,0.4s-0.9-0.1-1.3-0.4
			c-0.4-0.2-0.5-0.6-0.5-1.2v-7.3c0-0.5-0.3-0.7-0.8-0.7h-15.7c-0.5,0-0.8-0.2-1-0.5s-0.3-0.7-0.3-1.1s0.1-0.8,0.3-1.1
			c0.2-0.3,0.5-0.5,1-0.5H922.4z M923.3,416.3c0.5,0,0.9,0.1,1.3,0.4c0.4,0.2,0.5,0.6,0.5,1.2v6.4h4c0.5,0,0.8,0.2,1,0.5
			s0.3,0.7,0.3,1.1c0,0.5-0.1,0.9-0.3,1.2c-0.2,0.3-0.5,0.5-1,0.5h-4v7.2c0,0.5-0.2,0.9-0.5,1.2c-0.4,0.2-0.8,0.4-1.3,0.4
			s-0.9-0.1-1.3-0.4c-0.4-0.2-0.5-0.6-0.5-1.2V418c0-0.5,0.2-0.9,0.5-1.2C922.4,416.4,922.9,416.3,923.3,416.3z"/>
		<path d="M952.2,438.4c0.4,0,0.7,0.1,1,0.3c0.2,0.3,0.4,0.6,0.4,1.1c0,0.4,0,0.8-0.2,1.1s-0.5,0.5-0.9,0.6c-2.9,0.3-6,0.5-9.3,0.6
			s-6.7,0.2-10.3,0.2c-0.4,0-0.8-0.2-1-0.5s-0.3-0.7-0.3-1.1s0.1-0.8,0.3-1.1s0.5-0.5,1-0.5c3.2,0,6.4,0,9.5-0.1
			S948.9,438.8,952.2,438.4z M942.3,418.2c1.4,0,2.7,0.2,3.8,0.6s2,1,2.7,1.7s1.3,1.6,1.6,2.6c0.4,1,0.6,2,0.6,3.2s-0.2,2.2-0.6,3.2
			c-0.4,1-0.9,1.8-1.6,2.6c-0.7,0.7-1.6,1.3-2.7,1.7s-2.4,0.6-3.8,0.6c-1.4,0-2.7-0.2-3.8-0.6s-2-1-2.7-1.7s-1.3-1.6-1.6-2.6
			c-0.4-1-0.6-2-0.6-3.2c0-1.1,0.2-2.2,0.6-3.2c0.4-1,0.9-1.8,1.6-2.6c0.7-0.7,1.6-1.3,2.7-1.7S940.9,418.2,942.3,418.2z
			 M942.3,421.3c-1.8,0-3.1,0.5-4,1.4s-1.3,2.1-1.3,3.5s0.4,2.6,1.3,3.5c0.9,1,2.2,1.4,4,1.4s3.1-0.5,4-1.4c0.9-1,1.3-2.1,1.3-3.5
			s-0.4-2.6-1.3-3.5C945.5,421.8,944.1,421.3,942.3,421.3z M957.3,416.3c0.5,0,0.9,0.1,1.3,0.4c0.4,0.2,0.5,0.6,0.5,1.2v28.7
			c0,0.5-0.2,0.9-0.5,1.2c-0.4,0.2-0.8,0.4-1.3,0.4s-0.9-0.1-1.2-0.4c-0.4-0.2-0.5-0.6-0.5-1.2v-28.7c0-0.5,0.2-0.9,0.5-1.2
			C956.4,416.4,956.8,416.3,957.3,416.3z"/>
		<path d="M1000.9,436.1c0.2,0.3,0.3,0.7,0.3,1.1s-0.1,0.8-0.3,1.1c-0.2,0.3-0.5,0.5-1,0.5h-12.1v10.3c0,0.5-0.2,0.9-0.5,1.2
			c-0.4,0.2-0.8,0.4-1.3,0.4s-0.9-0.1-1.3-0.4c-0.4-0.2-0.5-0.6-0.5-1.2v-10.3h-12.1c-0.4,0-0.8-0.2-1-0.5s-0.3-0.7-0.3-1.1
			s0.1-0.8,0.3-1.1c0.2-0.3,0.5-0.5,1-0.5h27.7C1000.3,435.6,1000.7,435.8,1000.9,436.1z M986.1,417.2c0.5,0,0.9,0.1,1.3,0.4
			c0.4,0.2,0.6,0.6,0.6,1.2v1.8c0,1.2,0.3,2.2,0.9,3c0.6,0.8,1.4,1.6,2.6,2.2c1.2,0.7,2.4,1.3,3.5,1.8s2.1,1.1,3.1,1.5
			c0.4,0.2,0.6,0.5,0.7,1c0.1,0.5,0,0.9-0.2,1.2c-0.2,0.4-0.5,0.7-0.8,0.8c-0.4,0.2-0.8,0.2-1.2,0c-2.3-1.1-4.5-2.2-6.7-3.3
			c-1.2-0.7-2.1-1.3-2.7-1.9c-0.6-0.6-0.9-1.1-1-1.5l0,0c-0.1,0.5-0.5,1-1,1.6c-0.6,0.6-1.5,1.2-2.7,1.9c-2.1,1.1-4.3,2.2-6.7,3.3
			c-0.4,0.2-0.8,0.2-1.2,0s-0.7-0.5-0.9-0.9s-0.3-0.8-0.2-1.2c0.1-0.5,0.3-0.8,0.7-1c1-0.5,2.1-1,3.1-1.5c1.1-0.5,2.2-1.1,3.5-1.8
			c1.2-0.6,2-1.4,2.6-2.2c0.6-0.8,0.9-1.8,0.9-3v-1.8c0-0.6,0.2-1,0.6-1.2C985.1,417.3,985.6,417.2,986.1,417.2z"/>
		<path d="M1032.6,434c0.2,0.3,0.3,0.7,0.3,1.1s-0.1,0.8-0.3,1.1c-0.2,0.3-0.5,0.5-1,0.5h-27.7c-0.4,0-0.8-0.2-1-0.5
			s-0.3-0.7-0.3-1.1s0.1-0.8,0.3-1.1c0.2-0.3,0.5-0.5,1-0.5h27.7C1032.1,433.6,1032.4,433.7,1032.6,434z M1008.6,439.5
			c0.5,0,0.9,0.1,1.3,0.4c0.4,0.2,0.5,0.6,0.5,1.2v5c0,0.5,0.3,0.8,0.8,0.8h17c0.4,0,0.8,0.2,1,0.5s0.3,0.7,0.3,1.1
			s-0.1,0.8-0.3,1.1c-0.2,0.3-0.5,0.5-1,0.5h-18.6c-1.1,0-1.8-0.2-2.2-0.6s-0.6-1.1-0.6-2.2V441c0-0.5,0.2-0.9,0.5-1.2
			S1008.1,439.5,1008.6,439.5z M1008.6,417.2c0.5,0,0.9,0.1,1.3,0.4c0.4,0.2,0.5,0.6,0.5,1.2v7.1c0,0.5,0.3,0.7,0.8,0.7h16.9
			c0.4,0,0.8,0.2,1,0.5s0.3,0.7,0.3,1.1s-0.1,0.8-0.3,1.1c-0.2,0.3-0.5,0.5-1,0.5h-18.5c-1.1,0-1.8-0.2-2.2-0.6s-0.6-1.1-0.6-2.2
			v-8.2c0-0.6,0.2-1,0.5-1.2S1008.1,417.2,1008.6,417.2z"/>
		<path d="M1042.6,418.2c1.2,0,2.4,0.2,3.3,0.5c1,0.3,1.8,0.8,2.5,1.4s1.2,1.3,1.6,2.1c0.4,0.8,0.6,1.7,0.6,2.7v0.4
			c0,0.6-0.1,1.2-0.2,1.7s-0.4,1.1-0.7,1.6s-0.7,1.1-1.3,1.6s-1.1,1.2-1.9,1.8c-0.6,0.6-1.1,1.1-1.5,1.5s-0.7,0.8-0.9,1.2
			c-0.2,0.4-0.3,0.7-0.4,1s-0.1,0.7-0.1,1.1c0,0.5-0.2,0.8-0.5,1.1c-0.3,0.2-0.7,0.4-1.2,0.4s-0.9-0.1-1.2-0.3
			c-0.3-0.2-0.5-0.6-0.5-1.2s0-1.2,0.1-1.7s0.2-1,0.5-1.5c0.2-0.5,0.6-1,1-1.5s1-1.1,1.7-1.7s1.3-1.2,1.7-1.6c0.4-0.5,0.8-0.9,1-1.3
			c0.3-0.4,0.4-0.8,0.5-1.1s0.1-0.7,0.1-1.1V425c0-1-0.4-1.9-1.1-2.6s-1.9-1-3.4-1c-1.1,0-2,0.2-2.8,0.5c-0.8,0.4-1.5,0.8-2.2,1.4
			c-0.4,0.3-0.7,0.4-1.1,0.3s-0.7-0.3-1-0.7c-0.3-0.3-0.4-0.7-0.4-1.2c0-0.4,0.2-0.8,0.6-1.1c0.8-0.7,1.8-1.3,3-1.8
			C1039.7,418.5,1041.1,418.2,1042.6,418.2z M1042,441.4c0.7,0,1.3,0.2,1.7,0.7c0.4,0.5,0.7,1,0.7,1.7s-0.2,1.3-0.7,1.7
			c-0.4,0.5-1,0.7-1.7,0.7s-1.2-0.2-1.7-0.7c-0.4-0.5-0.7-1-0.7-1.7s0.2-1.3,0.7-1.7C1040.8,441.6,1041.3,441.4,1042,441.4z"/>
	</g>
</g>
<g>
	<path style="fill:#FFFFFF;" d="M1071.2,441.2c-3.5-29.4,17.6-56.1,47-59.6c48-5.6,77.7,49.5,48.4,86.6
		C1137.3,505.4,1076.8,488.9,1071.2,441.2"/>
	<path style="fill:none;stroke:#51BA97;stroke-width:4;stroke-linecap:round;stroke-linejoin:round;stroke-miterlimit:10;" d="
		M1071.2,441.2c-3.5-29.4,17.6-56.1,47-59.6c48-5.6,77.7,49.5,48.4,86.6C1137.3,505.4,1076.8,488.9,1071.2,441.2z"/>
</g>
<g>
	<g>
		<path d="M916.2,301.7c0.2,0.3,0.3,0.7,0.3,1.1s-0.1,0.8-0.3,1.1c-0.2,0.3-0.5,0.5-1,0.5h-27.7c-0.4,0-0.8-0.2-1-0.5
			s-0.3-0.7-0.3-1.1s0.1-0.8,0.3-1.1c0.2-0.3,0.5-0.5,1-0.5h27.7C915.6,301.2,916,301.3,916.2,301.7z M911.5,278.8
			c0.4,0.4,0.6,1.1,0.6,2.2v3.1c0,2.8-0.1,5.2-0.3,7.4s-0.5,4.2-0.9,6.2c-0.1,0.5-0.4,0.8-0.8,1s-0.9,0.3-1.4,0.2
			c-0.4-0.1-0.8-0.3-1-0.6s-0.4-0.7-0.3-1.2c0.2-1.1,0.4-2.1,0.5-3.1s0.3-2,0.3-3l-17.4,0.3c-0.5,0-0.8-0.1-1-0.4s-0.3-0.7-0.3-1.1
			s0.1-0.8,0.3-1.2c0.2-0.3,0.5-0.5,1-0.5l17.6-0.2c0-0.5,0-1,0.1-1.6c0-0.5,0-1.1,0-1.7V282c0-0.5-0.3-0.8-0.8-0.8h-16.2
			c-0.5,0-0.8-0.2-1-0.5s-0.3-0.7-0.3-1.1s0.1-0.8,0.3-1.1c0.2-0.3,0.5-0.5,1-0.5h17.7C910.4,278.2,911.1,278.4,911.5,278.8z"/>
		<path d="M934.3,278.9c0.4,0.4,0.6,1.1,0.6,2.2v4.2c0,1-0.1,2-0.2,2.8c-0.1,0.8-0.3,1.6-0.7,2.3c-0.3,0.7-0.8,1.5-1.4,2.1
			c-0.6,0.7-1.4,1.4-2.3,2.2s-2.1,1.6-3.4,2.5c-1.3,0.9-2.9,1.9-4.8,3.1c-0.4,0.2-0.8,0.3-1.2,0.1c-0.4-0.2-0.7-0.4-1-0.8
			c-0.2-0.3-0.4-0.7-0.3-1.2c0-0.5,0.2-0.8,0.6-1.1c1.7-1.1,3.2-2,4.4-2.8s2.2-1.5,3-2.2c0.8-0.6,1.5-1.2,2-1.8
			c0.5-0.6,0.9-1.1,1.1-1.7s0.4-1.1,0.5-1.8c0.1-0.6,0.1-1.3,0.1-2.1v-2.8c0-0.3-0.1-0.5-0.2-0.6s-0.3-0.2-0.6-0.2h-9.4
			c-0.5,0-0.8-0.2-1-0.5s-0.3-0.7-0.3-1.1s0.1-0.8,0.3-1.1c0.2-0.3,0.5-0.5,1-0.5H932C933.1,278.3,933.9,278.5,934.3,278.9z
			 M943.2,275.8c0.5,0,0.9,0.1,1.3,0.4c0.4,0.2,0.6,0.6,0.6,1.2V306c0,0.5-0.2,0.9-0.6,1.2c-0.4,0.2-0.8,0.4-1.3,0.4
			s-0.9-0.1-1.2-0.4c-0.4-0.2-0.6-0.6-0.6-1.2v-28.7c0-0.5,0.2-0.9,0.6-1.2C942.4,275.9,942.8,275.8,943.2,275.8z"/>
		<path d="M963,278.3c1.1,0,1.8,0.2,2.2,0.6s0.6,1.1,0.6,2.2v4.1c0,1-0.1,2-0.2,2.8c-0.1,0.8-0.3,1.6-0.7,2.3
			c-0.3,0.7-0.8,1.5-1.4,2.1c-0.6,0.7-1.4,1.4-2.3,2.2s-2.1,1.6-3.4,2.5c-1.3,0.9-2.9,1.9-4.8,3.1c-0.4,0.2-0.8,0.3-1.2,0.1
			s-0.7-0.4-1-0.8c-0.2-0.3-0.4-0.7-0.3-1.2c0-0.5,0.2-0.8,0.6-1.1c1.7-1.1,3.1-2,4.3-2.8s2.2-1.5,3-2.2c0.8-0.6,1.5-1.2,2-1.8
			c0.5-0.6,0.9-1.1,1.1-1.7c0.3-0.6,0.4-1.1,0.5-1.8c0.1-0.6,0.1-1.3,0.1-2.1V282c0-0.3-0.1-0.5-0.2-0.6s-0.3-0.2-0.6-0.2H952
			c-0.5,0-0.8-0.2-1-0.5s-0.3-0.7-0.3-1.1s0.1-0.8,0.3-1.1s0.5-0.5,1-0.5h11V278.3z M973.5,275.8c0.5,0,0.9,0.1,1.3,0.4
			c0.4,0.2,0.5,0.6,0.5,1.2v9.6h4c0.5,0,0.8,0.2,1,0.5s0.3,0.7,0.3,1.1s-0.1,0.8-0.3,1.1s-0.5,0.5-1,0.5h-4V306
			c0,0.5-0.2,0.9-0.5,1.2c-0.4,0.2-0.8,0.4-1.3,0.4s-0.9-0.1-1.3-0.4c-0.4-0.2-0.5-0.6-0.5-1.2v-28.7c0-0.5,0.2-0.9,0.5-1.2
			C972.6,275.9,973,275.8,973.5,275.8z"/>
		<path d="M1002.7,277.3c1.1,0,1.8,0.2,2.2,0.6s0.6,1.1,0.6,2.2v2.3c0,0.8-0.1,1.5-0.2,2.1c-0.1,0.6-0.4,1.2-0.7,1.7
			s-0.8,1.1-1.4,1.6c-0.6,0.5-1.4,1-2.3,1.6c-1,0.6-2.1,1.2-3.5,1.8s-3,1.4-4.9,2.3c-0.4,0.2-0.8,0.2-1.2,0s-0.7-0.5-0.9-0.9
			c-0.2-0.3-0.2-0.7-0.2-1.2s0.3-0.8,0.8-1c2.5-1.1,4.5-2,5.9-2.8c1.4-0.7,2.5-1.3,3.3-1.9c0.7-0.6,1.2-1.1,1.4-1.6s0.3-1.2,0.3-1.9
			v-1.1c0-0.3-0.1-0.5-0.2-0.6s-0.3-0.2-0.6-0.2h-9.3c-0.4,0-0.8-0.2-1-0.5s-0.3-0.7-0.3-1.1s0.1-0.8,0.3-1.1s0.5-0.5,1-0.5h10.9
			V277.3z M1014.2,294.9c0.4,0,0.7,0.1,0.9,0.4s0.3,0.6,0.3,1s-0.1,0.8-0.3,1.1c-0.2,0.3-0.5,0.4-0.9,0.4h-15.6
			c-0.5,0-0.8,0.2-0.8,0.7v2.2h16.1c0.4,0,0.7,0.1,0.9,0.4s0.3,0.6,0.3,1s-0.1,0.7-0.3,1s-0.5,0.4-0.9,0.4h-16.1v2.2
			c0,0.5,0.3,0.8,0.8,0.8h16c0.4,0,0.7,0.1,0.9,0.4s0.3,0.6,0.3,1s-0.1,0.7-0.3,1s-0.5,0.4-0.9,0.4h-17.4c-1.1,0-1.8-0.2-2.2-0.6
			s-0.6-1.1-0.6-2.2v-9.2c0-1.1,0.2-1.8,0.6-2.2c0.4-0.4,1.1-0.6,2.2-0.6h17V294.9z M1013.1,275.8c0.5,0,0.9,0.1,1.3,0.4
			c0.4,0.2,0.5,0.6,0.5,1.2v5.4h4c0.5,0,0.8,0.2,1,0.5s0.3,0.7,0.3,1.1c0,0.5-0.1,0.9-0.3,1.2c-0.2,0.3-0.5,0.5-1,0.5h-4v5.7
			c0,0.5-0.2,0.9-0.5,1.2c-0.4,0.2-0.8,0.4-1.3,0.4s-0.9-0.1-1.3-0.4c-0.4-0.2-0.5-0.6-0.5-1.2v-14.3c0-0.5,0.2-0.9,0.5-1.2
			C1012.2,275.9,1012.6,275.8,1013.1,275.8z"/>
		<path d="M1051,293.7c0.2,0.3,0.3,0.7,0.3,1.1s-0.1,0.8-0.3,1.1c-0.2,0.3-0.5,0.5-1,0.5h-27.7c-0.4,0-0.8-0.2-1-0.5
			s-0.3-0.7-0.3-1.1s0.1-0.8,0.3-1.1c0.2-0.3,0.5-0.5,1-0.5h27.7C1050.5,293.2,1050.8,293.3,1051,293.7z M1026.9,299
			c0.5,0,0.9,0.1,1.3,0.4c0.4,0.2,0.5,0.6,0.5,1.2v5c0,0.5,0.3,0.8,0.8,0.8h17c0.4,0,0.8,0.2,1,0.5s0.3,0.7,0.3,1.1
			s-0.1,0.8-0.3,1.1c-0.2,0.3-0.5,0.5-1,0.5h-18.6c-1.1,0-1.8-0.2-2.2-0.6c-0.4-0.4-0.6-1.1-0.6-2.2v-6.1c0-0.5,0.2-0.9,0.5-1.2
			C1026,299.1,1026.5,299,1026.9,299z M1036.2,276.7c3.5,0,6.2,0.6,8.1,1.7s2.9,2.8,2.9,5s-1,3.9-2.9,5s-4.6,1.7-8.1,1.7
			s-6.2-0.6-8.1-1.7s-2.9-2.8-2.9-5s1-3.9,2.9-5C1030,277.2,1032.7,276.7,1036.2,276.7z M1036.2,279.7c-2.6,0-4.5,0.3-5.6,1
			c-1.2,0.6-1.7,1.5-1.7,2.7s0.6,2.1,1.7,2.7c1.2,0.6,3,1,5.6,1s4.5-0.3,5.6-1c1.2-0.6,1.7-1.5,1.7-2.7s-0.6-2.1-1.7-2.7
			C1040.6,280,1038.8,279.7,1036.2,279.7z"/>
		<path d="M912.9,320.9c1.1,0,1.8,0.2,2.2,0.6s0.6,1.1,0.6,2.2v2.8c0,1.3-0.2,2.4-0.5,3.3s-1,1.8-1.9,2.6c-0.9,0.8-2.3,1.7-3.9,2.6
			c-1.7,0.9-3.9,2-6.6,3.4c-0.4,0.2-0.8,0.2-1.2,0s-0.7-0.5-0.9-0.9s-0.2-0.8-0.2-1.2c0-0.4,0.3-0.8,0.8-1c1.7-0.8,3.1-1.5,4.3-2.1
			s2.2-1.1,3-1.6s1.4-0.9,1.9-1.3s0.8-0.8,1.1-1.2c0.3-0.4,0.4-0.8,0.5-1.3c0.1-0.4,0.1-0.9,0.1-1.5v-1.5c0-0.3-0.1-0.5-0.2-0.6
			c-0.1-0.1-0.3-0.2-0.6-0.2H902c-0.4,0-0.8-0.2-1-0.5s-0.3-0.7-0.3-1.1s0.1-0.8,0.3-1.1s0.5-0.5,1-0.5h10.9V320.9z M922.4,340.5
			c1.1,0,1.8,0.2,2.2,0.6s0.6,1.1,0.6,2.2v8.4c0,0.5-0.2,0.9-0.5,1.2c-0.4,0.2-0.8,0.4-1.3,0.4s-0.9-0.1-1.3-0.4
			c-0.4-0.2-0.5-0.6-0.5-1.2v-7.3c0-0.5-0.3-0.7-0.8-0.7h-15.7c-0.5,0-0.8-0.2-1-0.5s-0.3-0.7-0.3-1.1s0.1-0.8,0.3-1.1
			c0.2-0.3,0.5-0.5,1-0.5H922.4z M923.3,319c0.5,0,0.9,0.1,1.3,0.4c0.4,0.2,0.5,0.6,0.5,1.2v6.4h4c0.5,0,0.8,0.2,1,0.5
			s0.3,0.7,0.3,1.1c0,0.5-0.1,0.9-0.3,1.2c-0.2,0.3-0.5,0.5-1,0.5h-4v7.2c0,0.5-0.2,0.9-0.5,1.2c-0.4,0.2-0.8,0.4-1.3,0.4
			s-0.9-0.1-1.3-0.4c-0.4-0.2-0.5-0.6-0.5-1.2v-16.8c0-0.5,0.2-0.9,0.5-1.2C922.4,319.1,922.9,319,923.3,319z"/>
		<path d="M952.2,341.1c0.4,0,0.7,0.1,1,0.3c0.2,0.3,0.4,0.6,0.4,1.1c0,0.4,0,0.8-0.2,1.1s-0.5,0.5-0.9,0.6c-2.9,0.3-6,0.5-9.3,0.6
			s-6.7,0.2-10.3,0.2c-0.4,0-0.8-0.2-1-0.5s-0.3-0.7-0.3-1.1s0.1-0.8,0.3-1.1c0.2-0.3,0.5-0.5,1-0.5c3.2,0,6.4,0,9.5-0.1
			C945.6,341.6,948.9,341.4,952.2,341.1z M942.3,320.9c1.4,0,2.7,0.2,3.8,0.6s2,1,2.7,1.7s1.3,1.6,1.6,2.6s0.6,2,0.6,3.2
			s-0.2,2.2-0.6,3.2c-0.4,1-0.9,1.8-1.6,2.6c-0.7,0.7-1.6,1.3-2.7,1.7c-1.1,0.4-2.4,0.6-3.8,0.6c-1.4,0-2.7-0.2-3.8-0.6
			s-2-1-2.7-1.7s-1.3-1.6-1.6-2.6c-0.4-1-0.6-2-0.6-3.2c0-1.1,0.2-2.2,0.6-3.2c0.4-1,0.9-1.8,1.6-2.6c0.7-0.7,1.6-1.3,2.7-1.7
			S940.9,320.9,942.3,320.9z M942.3,324c-1.8,0-3.1,0.5-4,1.4s-1.3,2.1-1.3,3.5s0.4,2.6,1.3,3.5c0.9,1,2.2,1.4,4,1.4s3.1-0.5,4-1.4
			c0.9-1,1.3-2.1,1.3-3.5s-0.4-2.6-1.3-3.5C945.5,324.5,944.1,324,942.3,324z M957.3,319c0.5,0,0.9,0.1,1.3,0.4
			c0.4,0.2,0.5,0.6,0.5,1.2v28.7c0,0.5-0.2,0.9-0.5,1.2c-0.4,0.2-0.8,0.4-1.3,0.4s-0.9-0.1-1.2-0.4c-0.4-0.2-0.5-0.6-0.5-1.2v-28.7
			c0-0.5,0.2-0.9,0.5-1.2C956.4,319.1,956.8,319,957.3,319z"/>
		<path d="M1000.9,338.8c0.2,0.3,0.3,0.7,0.3,1.1s-0.1,0.8-0.3,1.1c-0.2,0.3-0.5,0.5-1,0.5h-12.1v10.3c0,0.5-0.2,0.9-0.5,1.2
			c-0.4,0.2-0.8,0.4-1.3,0.4s-0.9-0.1-1.3-0.4c-0.4-0.2-0.5-0.6-0.5-1.2v-10.3h-12.1c-0.4,0-0.8-0.2-1-0.5s-0.3-0.7-0.3-1.1
			s0.1-0.8,0.3-1.1c0.2-0.3,0.5-0.5,1-0.5h27.7C1000.3,338.3,1000.7,338.5,1000.9,338.8z M986.1,319.9c0.5,0,0.9,0.1,1.3,0.4
			c0.4,0.2,0.6,0.6,0.6,1.2v1.8c0,1.2,0.3,2.2,0.9,3c0.6,0.8,1.4,1.6,2.6,2.2c1.2,0.7,2.4,1.3,3.5,1.8s2.1,1.1,3.1,1.5
			c0.4,0.2,0.6,0.5,0.7,1c0.1,0.5,0,0.9-0.2,1.2c-0.2,0.4-0.5,0.7-0.8,0.8c-0.4,0.2-0.8,0.2-1.2,0c-2.3-1.1-4.5-2.2-6.7-3.3
			c-1.2-0.7-2.1-1.3-2.7-1.9s-0.9-1.1-1-1.5l0,0c-0.1,0.5-0.5,1-1,1.6c-0.6,0.6-1.5,1.2-2.7,1.9c-2.1,1.1-4.3,2.2-6.7,3.3
			c-0.4,0.2-0.8,0.2-1.2,0s-0.7-0.5-0.9-0.9s-0.3-0.8-0.2-1.2c0.1-0.5,0.3-0.8,0.7-1c1-0.5,2.1-1,3.1-1.5c1.1-0.5,2.2-1.1,3.5-1.8
			c1.2-0.6,2-1.4,2.6-2.2c0.6-0.8,0.9-1.8,0.9-3v-1.8c0-0.6,0.2-1,0.6-1.2S985.6,319.9,986.1,319.9z"/>
		<path d="M1032.6,336.7c0.2,0.3,0.3,0.7,0.3,1.1s-0.1,0.8-0.3,1.1c-0.2,0.3-0.5,0.5-1,0.5h-27.7c-0.4,0-0.8-0.2-1-0.5
			s-0.3-0.7-0.3-1.1s0.1-0.8,0.3-1.1c0.2-0.3,0.5-0.5,1-0.5h27.7C1032.1,336.2,1032.4,336.4,1032.6,336.7z M1008.6,342.2
			c0.5,0,0.9,0.1,1.3,0.4c0.4,0.2,0.5,0.6,0.5,1.2v5c0,0.5,0.3,0.8,0.8,0.8h17c0.4,0,0.8,0.2,1,0.5s0.3,0.7,0.3,1.1
			s-0.1,0.8-0.3,1.1c-0.2,0.3-0.5,0.5-1,0.5h-18.6c-1.1,0-1.8-0.2-2.2-0.6s-0.6-1.1-0.6-2.2v-6.1c0-0.5,0.2-0.9,0.5-1.2
			C1007.7,342.3,1008.1,342.2,1008.6,342.2z M1008.6,319.9c0.5,0,0.9,0.1,1.3,0.4s0.5,0.6,0.5,1.2v7.1c0,0.5,0.3,0.7,0.8,0.7h16.9
			c0.4,0,0.8,0.2,1,0.5s0.3,0.7,0.3,1.1s-0.1,0.8-0.3,1.1c-0.2,0.3-0.5,0.5-1,0.5h-18.5c-1.1,0-1.8-0.2-2.2-0.6s-0.6-1.1-0.6-2.2
			v-8.2c0-0.6,0.2-1,0.5-1.2C1007.7,320,1008.1,319.9,1008.6,319.9z"/>
		<path d="M1042.6,320.9c1.2,0,2.4,0.2,3.3,0.5c1,0.3,1.8,0.8,2.5,1.4s1.2,1.3,1.6,2.1c0.4,0.8,0.6,1.7,0.6,2.7v0.4
			c0,0.6-0.1,1.2-0.2,1.7s-0.4,1.1-0.7,1.6s-0.7,1.1-1.3,1.6c-0.5,0.6-1.1,1.2-1.9,1.8c-0.6,0.6-1.1,1.1-1.5,1.5s-0.7,0.8-0.9,1.2
			c-0.2,0.4-0.3,0.7-0.4,1s-0.1,0.7-0.1,1.1c0,0.5-0.2,0.8-0.5,1.1c-0.3,0.2-0.7,0.4-1.2,0.4s-0.9-0.1-1.2-0.3
			c-0.3-0.2-0.5-0.6-0.5-1.2s0-1.2,0.1-1.7s0.2-1,0.5-1.5c0.2-0.5,0.6-1,1-1.5s1-1.1,1.7-1.7s1.3-1.2,1.7-1.6c0.4-0.5,0.8-0.9,1-1.3
			c0.3-0.4,0.4-0.8,0.5-1.1s0.1-0.7,0.1-1.1v-0.3c0-1-0.4-1.9-1.1-2.6s-1.9-1-3.4-1c-1.1,0-2,0.2-2.8,0.5c-0.8,0.4-1.5,0.8-2.2,1.4
			c-0.4,0.3-0.7,0.4-1.1,0.3s-0.7-0.3-1-0.7c-0.3-0.3-0.4-0.7-0.4-1.2c0-0.4,0.2-0.8,0.6-1.1c0.8-0.7,1.8-1.3,3-1.8
			C1039.7,321.2,1041.1,320.9,1042.6,320.9z M1042,344.1c0.7,0,1.3,0.2,1.7,0.7s0.7,1,0.7,1.7s-0.2,1.3-0.7,1.7
			c-0.4,0.5-1,0.7-1.7,0.7s-1.2-0.2-1.7-0.7c-0.4-0.5-0.7-1-0.7-1.7s0.2-1.3,0.7-1.7S1041.3,344.1,1042,344.1z"/>
	</g>
</g>
<g>
	<path style="fill:#FFFFFF;" d="M1071.2,319.3c-3.5-29.4,17.6-56.1,47-59.6c48-5.6,77.7,49.5,48.4,86.6S1076.8,367,1071.2,319.3"/>
	<path style="fill:none;stroke:#F8B100;stroke-width:4;stroke-linecap:round;stroke-linejoin:round;stroke-miterlimit:10;" d="
		M1071.2,319.3c-3.5-29.4,17.6-56.1,47-59.6c48-5.6,77.7,49.5,48.4,86.6S1076.8,367,1071.2,319.3z"/>
</g>
<g>
	<g>
		<path d="M902.5,156c0.4,0.4,0.6,1.1,0.6,2.2v2.3c0,1.2-0.2,2.2-0.5,3s-0.9,1.6-1.9,2.4c-0.9,0.8-2.2,1.6-4,2.5
			c-1.7,0.9-4,1.9-6.8,3.2c-0.4,0.2-0.8,0.2-1.2,0s-0.7-0.5-0.9-0.9c-0.2-0.3-0.2-0.7-0.2-1.2c0.1-0.5,0.3-0.8,0.8-1
			c1.7-0.7,3.1-1.4,4.3-1.9c1.2-0.6,2.2-1.1,3-1.5s1.4-0.8,1.9-1.2s0.8-0.7,1.1-1.1c0.2-0.4,0.4-0.7,0.5-1.1
			c0.1-0.4,0.1-0.8,0.1-1.3v-1.1c0-0.3-0.1-0.5-0.2-0.6s-0.3-0.2-0.6-0.2h-9.4c-0.4,0-0.8-0.2-1-0.5s-0.3-0.7-0.3-1.1
			c0-0.4,0.1-0.8,0.3-1.1s0.5-0.5,1-0.5h11C901.4,155.4,902.2,155.6,902.5,156z M912.8,173.4c0.4,0.4,0.6,1.1,0.6,2.2v3.4
			c0,1.1-0.2,1.8-0.6,2.2c-0.4,0.4-1.1,0.6-2.2,0.6h-13.9c-0.3,0-0.5,0.1-0.6,0.2c-0.1,0.1-0.2,0.3-0.2,0.6v1.6
			c0,0.5,0.3,0.8,0.8,0.8H913c0.4,0,0.7,0.1,0.9,0.4c0.2,0.3,0.3,0.6,0.3,1s-0.1,0.7-0.3,1s-0.5,0.4-0.9,0.4h-17.8
			c-1.1,0-1.8-0.2-2.2-0.6c-0.4-0.4-0.6-1.1-0.6-2.2v-3.4c0-1.1,0.2-1.8,0.6-2.2c0.4-0.4,1.1-0.6,2.2-0.6h13.9
			c0.3,0,0.5-0.1,0.6-0.2c0.1-0.1,0.2-0.3,0.2-0.6v-1.6c0-0.3-0.1-0.5-0.2-0.6c-0.1-0.1-0.3-0.2-0.6-0.2h-15.6
			c-0.4,0-0.7-0.1-0.9-0.4c-0.2-0.3-0.3-0.6-0.3-1.1c0-0.4,0.1-0.7,0.3-1s0.5-0.4,0.9-0.4h17.1C911.7,172.8,912.4,173,912.8,173.4z
			 M911.6,153.9c0.5,0,0.9,0.1,1.3,0.4c0.4,0.2,0.5,0.6,0.5,1.2v14.3c0,0.5-0.2,0.9-0.5,1.2c-0.4,0.2-0.8,0.4-1.3,0.4
			s-0.9-0.1-1.3-0.4c-0.4-0.2-0.5-0.6-0.5-1.2v-14.3c0-0.5,0.2-0.9,0.5-1.2C910.7,154,911.1,153.9,911.6,153.9z"/>
		<path d="M927.6,155.8c2.8,0,4.9,0.9,6.3,2.8c1.4,1.9,2.1,4.6,2.1,8.2c0,3.6-0.7,6.3-2.1,8.2c-1.4,1.9-3.5,2.8-6.3,2.8
			s-4.9-0.9-6.3-2.8c-1.4-1.9-2.1-4.6-2.1-8.2c0-3.6,0.7-6.3,2.1-8.2C922.7,156.7,924.8,155.8,927.6,155.8z M927.6,159
			c-1.8,0-3,0.7-3.8,2s-1.1,3.2-1.1,5.8c0,2.5,0.4,4.4,1.1,5.8c0.8,1.3,2,2,3.8,2s3.1-0.7,3.8-2s1.1-3.2,1.1-5.8
			c0-2.5-0.4-4.4-1.1-5.8S929.4,159,927.6,159z M943.2,153.9c0.5,0,0.9,0.1,1.3,0.4c0.4,0.2,0.6,0.6,0.6,1.2v28.7
			c0,0.5-0.2,0.9-0.6,1.2c-0.4,0.2-0.8,0.4-1.3,0.4s-0.9-0.1-1.2-0.4c-0.4-0.2-0.6-0.6-0.6-1.2v-28.7c0-0.5,0.2-0.9,0.6-1.2
			C942.4,154,942.8,153.9,943.2,153.9z"/>
		<path d="M963,156.4c1.1,0,1.8,0.2,2.2,0.6c0.4,0.4,0.6,1.1,0.6,2.2v4.1c0,1-0.1,2-0.2,2.8s-0.3,1.6-0.7,2.3
			c-0.3,0.7-0.8,1.5-1.4,2.1s-1.4,1.4-2.3,2.2s-2.1,1.6-3.4,2.5c-1.3,0.9-2.9,1.9-4.8,3.1c-0.4,0.2-0.8,0.3-1.2,0.1s-0.7-0.4-1-0.8
			c-0.2-0.3-0.4-0.7-0.3-1.2c0-0.5,0.2-0.8,0.6-1.1c1.7-1.1,3.1-2,4.3-2.8s2.2-1.5,3-2.2c0.8-0.6,1.5-1.2,2-1.8s0.9-1.1,1.1-1.7
			s0.4-1.1,0.5-1.8c0.1-0.6,0.1-1.3,0.1-2.1v-2.8c0-0.3-0.1-0.5-0.2-0.6s-0.3-0.2-0.6-0.2H952c-0.5,0-0.8-0.2-1-0.5
			s-0.3-0.7-0.3-1.1c0-0.4,0.1-0.8,0.3-1.1s0.5-0.5,1-0.5h11V156.4z M973.5,153.9c0.5,0,0.9,0.1,1.3,0.4c0.4,0.2,0.5,0.6,0.5,1.2
			v9.6h4c0.5,0,0.8,0.2,1,0.5s0.3,0.7,0.3,1.1c0,0.4-0.1,0.8-0.3,1.1s-0.5,0.5-1,0.5h-4v15.9c0,0.5-0.2,0.9-0.5,1.2
			c-0.4,0.2-0.8,0.4-1.3,0.4s-0.9-0.1-1.3-0.4c-0.4-0.2-0.5-0.6-0.5-1.2v-28.7c0-0.5,0.2-0.9,0.5-1.2
			C972.6,154,973,153.9,973.5,153.9z"/>
		<path d="M1002.7,155.4c1.1,0,1.8,0.2,2.2,0.6c0.4,0.4,0.6,1.1,0.6,2.2v2.3c0,0.8-0.1,1.5-0.2,2.1c-0.1,0.6-0.4,1.2-0.7,1.7
			s-0.8,1.1-1.4,1.6c-0.6,0.5-1.4,1-2.3,1.6s-2.1,1.2-3.5,1.8s-3,1.4-4.9,2.3c-0.4,0.2-0.8,0.2-1.2,0s-0.7-0.5-0.9-0.9
			c-0.2-0.3-0.2-0.7-0.2-1.2c0.1-0.5,0.3-0.8,0.8-1c2.5-1.1,4.5-2,5.9-2.8c1.4-0.7,2.5-1.3,3.3-1.9c0.7-0.6,1.2-1.1,1.4-1.6
			s0.3-1.2,0.3-1.9v-1.1c0-0.3-0.1-0.5-0.2-0.6s-0.3-0.2-0.6-0.2h-9.3c-0.4,0-0.8-0.2-1-0.5s-0.3-0.7-0.3-1.1c0-0.4,0.1-0.8,0.3-1.1
			s0.5-0.5,1-0.5h10.9V155.4z M1014.2,173c0.4,0,0.7,0.1,0.9,0.4c0.2,0.3,0.3,0.6,0.3,1s-0.1,0.8-0.3,1.1s-0.5,0.4-0.9,0.4h-15.6
			c-0.5,0-0.8,0.2-0.8,0.7v2.2h16.1c0.4,0,0.7,0.1,0.9,0.4c0.2,0.3,0.3,0.6,0.3,1s-0.1,0.7-0.3,1s-0.5,0.4-0.9,0.4h-16.1v2.2
			c0,0.5,0.3,0.8,0.8,0.8h16c0.4,0,0.7,0.1,0.9,0.4c0.2,0.3,0.3,0.6,0.3,1s-0.1,0.7-0.3,1s-0.5,0.4-0.9,0.4h-17.4
			c-1.1,0-1.8-0.2-2.2-0.6c-0.4-0.4-0.6-1.1-0.6-2.2v-9.2c0-1.1,0.2-1.8,0.6-2.2c0.4-0.4,1.1-0.6,2.2-0.6h17V173z M1013.1,153.9
			c0.5,0,0.9,0.1,1.3,0.4c0.4,0.2,0.5,0.6,0.5,1.2v5.4h4c0.5,0,0.8,0.2,1,0.5s0.3,0.7,0.3,1.1c0,0.5-0.1,0.9-0.3,1.2s-0.5,0.5-1,0.5
			h-4v5.7c0,0.5-0.2,0.9-0.5,1.2c-0.4,0.2-0.8,0.4-1.3,0.4s-0.9-0.1-1.3-0.4c-0.4-0.2-0.5-0.6-0.5-1.2v-14.3c0-0.5,0.2-0.9,0.5-1.2
			C1012.2,154,1012.6,153.9,1013.1,153.9z"/>
		<path d="M1051,171.7c0.2,0.3,0.3,0.7,0.3,1.1s-0.1,0.8-0.3,1.1c-0.2,0.3-0.5,0.5-1,0.5h-27.7c-0.4,0-0.8-0.2-1-0.5
			s-0.3-0.7-0.3-1.1s0.1-0.8,0.3-1.1s0.5-0.5,1-0.5h27.7C1050.5,171.3,1050.8,171.4,1051,171.7z M1026.9,177c0.5,0,0.9,0.1,1.3,0.4
			c0.4,0.2,0.5,0.6,0.5,1.2v5c0,0.5,0.3,0.8,0.8,0.8h17c0.4,0,0.8,0.2,1,0.5s0.3,0.7,0.3,1.1c0,0.4-0.1,0.8-0.3,1.1
			c-0.2,0.3-0.5,0.5-1,0.5h-18.6c-1.1,0-1.8-0.2-2.2-0.6c-0.4-0.4-0.6-1.1-0.6-2.2v-6.1c0-0.5,0.2-0.9,0.5-1.2
			C1026,177.2,1026.5,177,1026.9,177z M1036.2,154.7c3.5,0,6.2,0.6,8.1,1.7c1.9,1.1,2.9,2.8,2.9,5c0,2.3-1,3.9-2.9,5
			s-4.6,1.7-8.1,1.7s-6.2-0.6-8.1-1.7c-1.9-1.1-2.9-2.8-2.9-5c0-2.3,1-3.9,2.9-5C1030,155.3,1032.7,154.7,1036.2,154.7z
			 M1036.2,157.8c-2.6,0-4.5,0.3-5.6,1c-1.2,0.6-1.7,1.5-1.7,2.7s0.6,2.1,1.7,2.7c1.2,0.6,3,1,5.6,1s4.5-0.3,5.6-1
			c1.2-0.6,1.7-1.5,1.7-2.7s-0.6-2.1-1.7-2.7C1040.6,158.1,1038.8,157.8,1036.2,157.8z"/>
		<path d="M903,198.9c0.5,0,0.9,0.1,1.2,0.4c0.4,0.2,0.5,0.6,0.5,1.1v4.5h8v-4.5c0-0.5,0.2-0.9,0.5-1.1c0.4-0.2,0.8-0.4,1.2-0.4
			c0.5,0,0.9,0.1,1.2,0.4c0.4,0.2,0.6,0.6,0.6,1.1v12.7c0,1.1-0.2,1.8-0.6,2.2c-0.4,0.4-1.1,0.6-2.2,0.6H904c-1.1,0-1.8-0.2-2.2-0.6
			c-0.4-0.4-0.6-1.1-0.6-2.2v-12.7c0-0.5,0.2-0.9,0.5-1.1C902.2,199,902.6,198.9,903,198.9z M904.8,212c0,0.5,0.3,0.8,0.8,0.8h6.5
			c0.5,0,0.8-0.3,0.8-0.8v-4.1h-8L904.8,212L904.8,212z M907.6,219.1c0.5,0,0.9,0.1,1.2,0.4c0.4,0.2,0.6,0.6,0.6,1.2v6
			c0,0.3,0.1,0.5,0.2,0.6s0.3,0.2,0.6,0.2h16.3c0.5,0,0.8,0.2,1,0.5s0.3,0.7,0.3,1.1c0,0.4-0.1,0.8-0.3,1.1s-0.5,0.5-1,0.5h-18
			c-1.1,0-1.8-0.2-2.2-0.6c-0.4-0.4-0.6-1.1-0.6-2.2v-7.2c0-0.5,0.2-0.9,0.6-1.2C906.7,219.2,907.1,219.1,907.6,219.1z M925.1,197.1
			c0.5,0,0.9,0.1,1.2,0.4c0.4,0.2,0.5,0.6,0.5,1.2v21.7c0,0.5-0.2,0.9-0.5,1.2c-0.4,0.2-0.8,0.4-1.2,0.4c-0.5,0-0.9-0.1-1.2-0.4
			c-0.4-0.2-0.6-0.6-0.6-1.2v-7.6h-4.2c-0.4,0-0.7-0.2-0.9-0.5s-0.3-0.7-0.3-1.1c0-0.4,0.1-0.8,0.3-1.1s0.5-0.5,0.9-0.5h4.2v-4.2
			h-4.2c-0.4,0-0.7-0.2-0.9-0.5s-0.3-0.7-0.3-1.1c0-0.4,0.1-0.8,0.3-1.1s0.5-0.5,0.9-0.5h4.2v-3.7c0-0.5,0.2-0.9,0.6-1.2
			C924.3,197.2,924.7,197.1,925.1,197.1z"/>
		<path d="M952.2,219.2c0.4,0,0.7,0.1,1,0.3c0.2,0.3,0.4,0.6,0.4,1.1c0,0.4,0,0.8-0.2,1.1s-0.5,0.5-0.9,0.6c-2.9,0.3-6,0.5-9.3,0.6
			s-6.7,0.2-10.3,0.2c-0.4,0-0.8-0.2-1-0.5s-0.3-0.7-0.3-1.1c0-0.4,0.1-0.8,0.3-1.1s0.5-0.5,1-0.5c3.2,0,6.4,0,9.5-0.1
			C945.6,219.7,948.9,219.5,952.2,219.2z M942.3,199c1.4,0,2.7,0.2,3.8,0.6c1.1,0.4,2,1,2.7,1.7s1.3,1.6,1.6,2.6s0.6,2,0.6,3.2
			s-0.2,2.2-0.6,3.2s-0.9,1.8-1.6,2.6c-0.7,0.7-1.6,1.3-2.7,1.7c-1.1,0.4-2.4,0.6-3.8,0.6c-1.4,0-2.7-0.2-3.8-0.6
			c-1.1-0.4-2-1-2.7-1.7s-1.3-1.6-1.6-2.6c-0.4-1-0.6-2-0.6-3.2c0-1.1,0.2-2.2,0.6-3.2c0.4-1,0.9-1.8,1.6-2.6s1.6-1.3,2.7-1.7
			C939.6,199.2,940.9,199,942.3,199z M942.3,202.1c-1.8,0-3.1,0.5-4,1.4s-1.3,2.1-1.3,3.5s0.4,2.6,1.3,3.5c0.9,1,2.2,1.4,4,1.4
			s3.1-0.5,4-1.4c0.9-1,1.3-2.1,1.3-3.5s-0.4-2.6-1.3-3.5C945.5,202.6,944.1,202.1,942.3,202.1z M957.3,197.1c0.5,0,0.9,0.1,1.3,0.4
			c0.4,0.2,0.5,0.6,0.5,1.2v28.7c0,0.5-0.2,0.9-0.5,1.2c-0.4,0.2-0.8,0.4-1.3,0.4s-0.9-0.1-1.2-0.4c-0.4-0.2-0.5-0.6-0.5-1.2v-28.7
			c0-0.5,0.2-0.9,0.5-1.2C956.4,197.2,956.8,197.1,957.3,197.1z"/>
		<path d="M1000.9,216.9c0.2,0.3,0.3,0.7,0.3,1.1c0,0.4-0.1,0.8-0.3,1.1s-0.5,0.5-1,0.5h-12.1v10.3c0,0.5-0.2,0.9-0.5,1.2
			c-0.4,0.2-0.8,0.4-1.3,0.4s-0.9-0.1-1.3-0.4s-0.5-0.6-0.5-1.2v-10.3h-12.1c-0.4,0-0.8-0.2-1-0.5s-0.3-0.7-0.3-1.1
			c0-0.4,0.1-0.8,0.3-1.1s0.5-0.5,1-0.5h27.7C1000.3,216.4,1000.7,216.6,1000.9,216.9z M986.1,197.9c0.5,0,0.9,0.1,1.3,0.4
			c0.4,0.2,0.6,0.6,0.6,1.2v1.8c0,1.2,0.3,2.2,0.9,3c0.6,0.8,1.4,1.6,2.6,2.2c1.2,0.7,2.4,1.3,3.5,1.8s2.1,1.1,3.1,1.5
			c0.4,0.2,0.6,0.5,0.7,1c0.1,0.5,0,0.9-0.2,1.2c-0.2,0.4-0.5,0.7-0.8,0.8c-0.4,0.2-0.8,0.2-1.2,0c-2.3-1.1-4.5-2.2-6.7-3.3
			c-1.2-0.7-2.1-1.3-2.7-1.9c-0.6-0.6-0.9-1.1-1-1.5l0,0c-0.1,0.5-0.5,1-1,1.6c-0.6,0.6-1.5,1.2-2.7,1.9c-2.1,1.1-4.3,2.2-6.7,3.3
			c-0.4,0.2-0.8,0.2-1.2,0s-0.7-0.5-0.9-0.9s-0.3-0.8-0.2-1.2c0.1-0.5,0.3-0.8,0.7-1c1-0.5,2.1-1,3.1-1.5c1.1-0.5,2.2-1.1,3.5-1.8
			c1.2-0.6,2-1.4,2.6-2.2s0.9-1.8,0.9-3v-1.8c0-0.6,0.2-1,0.6-1.2C985.1,198.1,985.6,197.9,986.1,197.9z"/>
		<path d="M1032.6,214.8c0.2,0.3,0.3,0.7,0.3,1.1s-0.1,0.8-0.3,1.1c-0.2,0.3-0.5,0.5-1,0.5h-27.7c-0.4,0-0.8-0.2-1-0.5
			s-0.3-0.7-0.3-1.1s0.1-0.8,0.3-1.1s0.5-0.5,1-0.5h27.7C1032.1,214.3,1032.4,214.5,1032.6,214.8z M1008.6,220.2
			c0.5,0,0.9,0.1,1.3,0.4c0.4,0.2,0.5,0.6,0.5,1.2v5c0,0.5,0.3,0.8,0.8,0.8h17c0.4,0,0.8,0.2,1,0.5s0.3,0.7,0.3,1.1
			c0,0.4-0.1,0.8-0.3,1.1c-0.2,0.3-0.5,0.5-1,0.5h-18.6c-1.1,0-1.8-0.2-2.2-0.6c-0.4-0.4-0.6-1.1-0.6-2.2v-6.1
			c0-0.5,0.2-0.9,0.5-1.2C1007.7,220.4,1008.1,220.2,1008.6,220.2z M1008.6,197.9c0.5,0,0.9,0.1,1.3,0.4c0.4,0.2,0.5,0.6,0.5,1.2
			v7.1c0,0.5,0.3,0.7,0.8,0.7h16.9c0.4,0,0.8,0.2,1,0.5s0.3,0.7,0.3,1.1c0,0.4-0.1,0.8-0.3,1.1c-0.2,0.3-0.5,0.5-1,0.5h-18.5
			c-1.1,0-1.8-0.2-2.2-0.6c-0.4-0.4-0.6-1.1-0.6-2.2v-8.2c0-0.6,0.2-1,0.5-1.2C1007.7,198.1,1008.1,197.9,1008.6,197.9z"/>
		<path d="M1042.6,199c1.2,0,2.4,0.2,3.3,0.5c1,0.3,1.8,0.8,2.5,1.4c0.7,0.6,1.2,1.3,1.6,2.1s0.6,1.7,0.6,2.7v0.4
			c0,0.6-0.1,1.2-0.2,1.7s-0.4,1.1-0.7,1.6c-0.3,0.5-0.7,1.1-1.3,1.6c-0.5,0.6-1.1,1.2-1.9,1.8c-0.6,0.6-1.1,1.1-1.5,1.5
			s-0.7,0.8-0.9,1.2c-0.2,0.4-0.3,0.7-0.4,1s-0.1,0.7-0.1,1.1c0,0.5-0.2,0.8-0.5,1.1c-0.3,0.2-0.7,0.4-1.2,0.4s-0.9-0.1-1.2-0.3
			s-0.5-0.6-0.5-1.2c0-0.6,0-1.2,0.1-1.7s0.2-1,0.5-1.5c0.2-0.5,0.6-1,1-1.5s1-1.1,1.7-1.7c0.7-0.6,1.3-1.2,1.7-1.6
			c0.4-0.5,0.8-0.9,1-1.3s0.4-0.8,0.5-1.1s0.1-0.7,0.1-1.1v-0.3c0-1-0.4-1.9-1.1-2.6s-1.9-1-3.4-1c-1.1,0-2,0.2-2.8,0.5
			c-0.8,0.4-1.5,0.8-2.2,1.4c-0.4,0.3-0.7,0.4-1.1,0.3c-0.4-0.1-0.7-0.3-1-0.7c-0.3-0.3-0.4-0.7-0.4-1.2s0.2-0.8,0.6-1.1
			c0.8-0.7,1.8-1.3,3-1.8S1041.1,199,1042.6,199z M1042,222.2c0.7,0,1.3,0.2,1.7,0.7s0.7,1,0.7,1.7s-0.2,1.3-0.7,1.7
			c-0.4,0.5-1,0.7-1.7,0.7s-1.2-0.2-1.7-0.7c-0.4-0.5-0.7-1-0.7-1.7s0.2-1.3,0.7-1.7S1041.3,222.2,1042,222.2z"/>
	</g>
</g>
<g>
	<path style="fill:#FFFFFF;" d="M1071.2,197.4c-3.5-29.4,17.6-56.1,47-59.6c48-5.6,77.7,49.5,48.4,86.6S1076.8,245.1,1071.2,197.4"
		/>
	<path style="fill:none;stroke:#9CCA48;stroke-width:4;stroke-linecap:round;stroke-linejoin:round;stroke-miterlimit:10;" d="
		M1071.2,197.4c-3.5-29.4,17.6-56.1,47-59.6c48-5.6,77.7,49.5,48.4,86.6S1076.8,245.1,1071.2,197.4z"/>
</g>
<g>
	<g>
		
			<line style="fill:none;stroke:#BD7AB1;stroke-width:5;stroke-linecap:round;stroke-linejoin:round;" x1="601.8" y1="201.1" x2="601.8" y2="164"/>
		<path style="fill:#BD7AB1;" d="M614.3,160.3c0,6.9-5.6,12.5-12.5,12.5s-12.5-5.6-12.5-12.5s5.6-12.5,12.5-12.5
			S614.3,153.4,614.3,160.3"/>
	</g>
	<g>
		<path style="fill:none;stroke:#BD7AB1;stroke-width:4;stroke-linecap:round;stroke-linejoin:round;stroke-miterlimit:10;" d="
			M614.6,138.2c-3.6-3.1-8.3-5-13.4-5c-5.2,0-9.8,1.9-13.4,5 M623.5,128c-6-5.2-13.8-8.4-22.4-8.4c-8.6,0-16.4,3.2-22.4,8.4
			 M633.1,117.1c-8.5-7.4-19.7-12-32-12s-23.4,4.5-32,12 M578.8,128c6-5.2,13.8-8.4,22.4-8.4c8.6,0,16.4,3.2,22.4,8.4"/>
	</g>
	<g>
		<path style="fill:#BD7AB1;" d="M751.5,442.3c0,28-64.2,53.9-143.4,53.9s-143.5-25.9-143.5-53.9 M741.3,302.9
			c77.3,14.4,129.1,40.9,129.1,71.2c0,45.6-117.4,82.6-262.3,82.6c-144.8,0-262.3-37-262.3-82.6c0-30,50.6-56.2,126.4-70.7
			 M744,329.8c0,30.9-60.8,40.7-135.9,40.7c-75,0-135.9-9.8-135.9-40.7c0-75,60.8-129.5,135.9-129.5
			C683.1,200.3,744,254.8,744,329.8"/>
		<path style="fill:#E4CDE3;" d="M864,367.1c0-30.3-51.8-56.8-129.1-71.2l0,0c-12.6-60.8-67.4-102.6-133.2-102.6
			c-65.9,0-120.8,42-133.2,103.1h-2.6c-75.8,14.5-126.4,40.7-126.4,70.7c0,29,47.3,54.4,118.9,69.2c1.6,27.6,65.2,52.8,143.4,52.8
			s141.7-25.2,143.4-52.8C816.7,421.5,864,396,864,367.1"/>
		<path style="fill:none;stroke:#BD7AB1;stroke-width:3;stroke-linecap:round;stroke-linejoin:round;" d="M864,367.1
			c0-30.3-51.8-56.8-129.1-71.2l0,0c-12.6-60.8-67.4-102.6-133.2-102.6c-65.9,0-120.8,42-133.2,103.1h-2.6
			c-75.8,14.5-126.4,40.7-126.4,70.7c0,29,47.3,54.4,118.9,69.2c1.6,27.6,65.2,52.8,143.4,52.8s141.7-25.2,143.4-52.8
			C816.7,421.5,864,396,864,367.1z"/>
	</g>
	<path style="fill:#C58BBB;" d="M601.1,428.4c65.1,0,119.2-41.5,119.2-76.3S667.6,289,602.5,289s-117.8,28.2-117.8,63.1
		S536,428.4,601.1,428.4"/>
	<path style="fill:#FFFFFF;" d="M601.1,436.7c65.1,0,119.2-38.3,119.2-73.1s-52.7-63.1-117.8-63.1s-117.8,28.2-117.8,63.1
		S536,436.7,601.1,436.7"/>
	<g>
		<g>
			<path d="M534.3,238.4c0.3,0.2,0.5,0.6,0.5,1.2c0.1,1.4,0.1,2.8,0.2,4.1c0.1,1.4,0.1,2.8,0.2,4.1c0.1,1.4,0.1,2.7,0.2,3.9
				s0.1,2.4,0.1,3.5c0,0.3,0.1,0.4,0.3,0.4c1.7-0.1,3.5-0.2,5.3-0.3s3.6-0.3,5.3-0.3c0.4,0,0.7,0.1,0.9,0.2c0.2,0.2,0.4,0.6,0.4,1.2
				c0,0.5-0.1,0.8-0.3,1s-0.5,0.4-0.8,0.4c-0.8,0.1-1.7,0.2-2.7,0.3c-1,0.1-2,0.2-3.1,0.3c-1.1,0.1-2.1,0.2-3.2,0.2
				c-1.1,0.1-2.1,0.1-3.2,0.1c-0.8,0-1.3-0.1-1.8-0.5c-0.4-0.3-0.7-0.9-0.8-1.6c0-0.7-0.1-1.4-0.2-2.3c-0.1-0.9-0.1-1.9-0.2-2.9
				s-0.1-2.1-0.2-3.2c-0.1-1.1-0.1-2.2-0.2-3.3c0-1.1-0.1-2-0.1-3c0-0.9-0.1-1.7-0.1-2.4c0-0.3,0-0.5,0-0.7s0.1-0.3,0.2-0.5
				s0.3-0.2,0.6-0.3s0.6-0.1,1-0.2C533.6,238.1,534.1,238.2,534.3,238.4z M555.1,250.5c-0.4,0-0.8,0-1.2,0c-0.1,2-0.2,4-0.3,6
				s-0.2,3.8-0.3,5.6c0,0.7-0.2,1.1-0.5,1.4s-0.7,0.4-1.2,0.3c-0.5,0-0.9-0.2-1.1-0.6c-0.2-0.3-0.4-0.9-0.4-1.6
				c0-7.8,0.1-15.5,0.4-23.1c0-0.6,0.2-1.1,0.5-1.3c0.3-0.3,0.8-0.4,1.5-0.4c1.2,0,1.8,0.6,1.8,1.8c0,1.4,0,2.8-0.1,4.3
				c0,1.5-0.1,2.9-0.1,4.4c0.3,0,0.7,0,1.1,0c0.4,0,0.8,0,1.1,0c0.4,0,0.7,0,1,0s0.5,0,0.6,0c0.5,0,0.8,0.1,1,0.3s0.3,0.6,0.3,1.1
				s-0.1,0.9-0.2,1.2c-0.1,0.3-0.4,0.5-0.9,0.5c-0.2,0-0.4,0-0.8,0.1c-0.3,0-0.7,0-1.1,0S555.5,250.5,555.1,250.5z"/>
			<path d="M579.4,260.2c-0.2,0.2-0.5,0.4-0.9,0.4c-2.8,0.3-5.6,0.6-8.5,0.8c-2.9,0.2-5.9,0.4-8.9,0.6c-0.9,0-1.3-0.5-1.3-1.6
				c0-0.5,0.1-0.9,0.3-1.1s0.5-0.4,1-0.4c1.8-0.1,3.4-0.3,4.9-0.4s2.9-0.2,4.2-0.3s2.7-0.2,4-0.3s2.8-0.2,4.3-0.3
				c0.4,0,0.7,0.1,0.9,0.4s0.3,0.6,0.3,1C579.7,259.5,579.6,259.9,579.4,260.2z M577.8,249.7c-0.5,1-1.1,1.9-2,2.6s-1.8,1.3-2.9,1.6
				c-1.1,0.4-2.3,0.6-3.6,0.6s-2.6-0.1-3.7-0.4c-1.1-0.3-2.1-0.9-2.9-1.6c-0.8-0.7-1.4-1.6-1.9-2.7c-0.5-1.1-0.7-2.3-0.7-3.8
				c0-1.2,0.2-2.3,0.6-3.3s1.1-2,1.9-2.8c0.8-0.8,1.8-1.4,2.9-1.9c1.1-0.5,2.4-0.7,3.8-0.8c1.4,0,2.6,0.1,3.7,0.5s2.1,1,2.9,1.7
				c0.8,0.8,1.4,1.7,1.9,2.8s0.7,2.3,0.7,3.6C578.5,247.4,578.3,248.6,577.8,249.7z M573.2,249.9c0.5-0.5,0.9-1.1,1.2-1.7
				c0.3-0.7,0.4-1.4,0.4-2.2c0-0.9-0.2-1.7-0.5-2.4s-0.7-1.3-1.2-1.7c-0.5-0.5-1.1-0.8-1.8-1s-1.4-0.3-2.2-0.3s-1.6,0.2-2.3,0.5
				s-1.3,0.7-1.8,1.2s-0.9,1.1-1.2,1.8s-0.4,1.4-0.4,2.2c0,0.9,0.1,1.7,0.4,2.4c0.3,0.7,0.7,1.2,1.2,1.7s1.1,0.8,1.7,1
				c0.7,0.2,1.4,0.3,2.2,0.3s1.5-0.1,2.3-0.4C572.1,250.7,572.7,250.4,573.2,249.9z M584.6,260.4c0,0.7-0.2,1.1-0.5,1.4
				s-0.7,0.4-1.2,0.3c-0.5,0-0.9-0.2-1.1-0.6s-0.4-0.9-0.4-1.6c0-1.9,0-3.7,0-5.4c0-1.7,0-3.3,0.1-4.9s0.1-3.2,0.1-4.9
				s0.1-3.4,0.2-5.3c0-0.6,0.2-1.1,0.5-1.3c0.3-0.3,0.8-0.4,1.5-0.4c1.2,0,1.8,0.6,1.8,1.8c0,1.9-0.1,3.7-0.1,5.5
				c0,1.7-0.1,3.5-0.2,5.2s-0.2,3.4-0.3,5.1C584.8,256.9,584.7,258.6,584.6,260.4z"/>
			<path d="M606.8,246.8c0,0.9,0,1.7,0,2.5c1.3,1.1,2.6,2.2,3.8,3.2s2.3,1.9,3.4,2.8c0.3,0.3,0.5,0.6,0.6,1c0.1,0.3,0,0.7-0.3,1.1
				s-0.6,0.7-0.8,0.9c-0.3,0.2-0.6,0.1-1-0.1c-0.5-0.3-1-0.7-1.7-1.2c-0.6-0.5-1.3-0.9-1.9-1.5c-0.6-0.5-1.3-1.1-1.9-1.6
				s-1.2-1.1-1.7-1.6c-1.3,1.5-2.6,2.9-3.7,4.2s-2.1,2.3-2.9,3c-0.3,0.3-0.7,0.4-1.1,0.3c-0.4-0.1-0.8-0.3-1.1-0.7
				c-0.3-0.3-0.4-0.7-0.3-1c0.1-0.3,0.2-0.6,0.5-0.9c0.4-0.5,0.9-1.1,1.5-1.7s1.2-1.4,1.8-2.1c0.6-0.7,1.2-1.4,1.7-2.1
				c0.6-0.7,1-1.3,1.4-1.8c0-0.7,0-1.5-0.1-2.5c0-1-0.1-1.9-0.1-2.9s-0.1-2-0.1-3s-0.1-1.8-0.1-2.5c0-0.5,0.1-0.9,0.4-1.2
				c0.3-0.3,0.8-0.5,1.5-0.5c0.8,0,1.4,0,1.7,0.3s0.4,0.7,0.4,1.3c0,0.8,0,1.7,0,2.6s0,1.9,0.1,2.8S606.8,245.9,606.8,246.8z
				 M621.2,242.9c0,1.4-0.1,2.9-0.1,4.4c0.6,0,1.2,0,1.8,0s1,0,1.2,0c0.5,0,0.8,0.1,1,0.3s0.3,0.6,0.3,1.1s-0.1,0.9-0.2,1.2
				c-0.1,0.3-0.4,0.5-0.9,0.5c-0.3,0-0.7,0-1.4,0.1c-0.6,0-1.3,0-2,0c-0.1,2-0.2,4-0.3,6s-0.2,3.8-0.3,5.6c0,0.7-0.2,1.1-0.5,1.4
				s-0.7,0.4-1.2,0.3c-0.5,0-0.9-0.2-1.1-0.6c-0.2-0.3-0.4-0.9-0.4-1.6c0-7.8,0.1-15.5,0.4-23.1c0-0.6,0.2-1.1,0.5-1.3
				c0.3-0.3,0.8-0.4,1.5-0.4c1.2,0,1.8,0.6,1.8,1.8C621.2,240,621.2,241.5,621.2,242.9z"/>
			<path d="M640.8,252.1c-0.1,0.5-0.3,0.9-0.6,1.2c-0.3,0.2-0.7,0.3-1.2,0.3c-1-0.1-1.4-0.6-1.5-1.5c0-0.3,0-0.7,0-1.3s0-1.3,0-2.1
				s0-1.7,0-2.6c0-0.9,0-1.8,0-2.6s0-1.6,0-2.2c0-0.7,0-1.2,0-1.5c-0.8,0-1.7,0.1-2.7,0.1c-0.9,0-1.9,0-2.9,0.1c-1,0-1.9,0-2.9,0
				s-1.9,0-2.8,0c-0.9,0-1.3-0.5-1.3-1.5c0-0.5,0.1-0.8,0.4-1.1c0.3-0.2,0.6-0.3,0.9-0.4c2.3-0.1,4.6-0.2,7-0.3s4.6-0.1,6.8-0.1
				c0.5,0,0.8,0.1,0.9,0.3c0.2,0.2,0.2,0.5,0.2,1s0,1.1,0,1.8c0,0.8,0,1.6,0,2.5s0,1.8-0.1,2.8c0,1-0.1,1.9-0.1,2.8
				s-0.1,1.7-0.1,2.5C640.9,251.1,640.9,251.7,640.8,252.1z M648,266c-0.1,0.5-0.3,0.9-0.6,1.2c-0.3,0.2-0.7,0.3-1.2,0.3
				s-0.8-0.2-1-0.4s-0.3-0.6-0.3-1s0-1,0-1.6s0-1.3,0-2.1c0-0.7,0-1.4,0-2.1s0-1.3,0-1.8c-0.8,0-1.9,0.1-3.1,0.1
				c-1.2,0-2.4,0.1-3.7,0.1s-2.5,0.1-3.7,0.1s-2.3,0.1-3.2,0.1s-1.3-0.5-1.3-1.5c0-0.5,0.1-0.8,0.4-1.1c0.3-0.2,0.6-0.3,0.9-0.4
				c1.1-0.1,2.4-0.1,3.8-0.2c1.4-0.1,2.9-0.1,4.3-0.2c1.5-0.1,2.9-0.1,4.3-0.1c1.4,0,2.6-0.1,3.7-0.1c0.5,0,0.8,0.1,0.9,0.3
				s0.2,0.5,0.2,1c0,0.7,0,1.5,0,2.3s-0.1,1.7-0.1,2.5s-0.1,1.7-0.1,2.5C648.1,264.6,648.1,265.3,648,266z M649,241.2
				c0,0.9,0,1.8,0,2.8c0.7,0,1.3,0,1.9,0s1.1,0,1.3,0c0.5,0,0.8,0.1,1,0.3s0.3,0.6,0.3,1.1s-0.1,0.9-0.2,1.2
				c-0.1,0.3-0.4,0.5-0.9,0.5c-0.3,0-0.8,0-1.5,0.1c-0.7,0-1.4,0-2.1,0c0,1.1-0.1,2.2-0.1,3.1s-0.1,1.7-0.1,2.3
				c-0.1,0.7-0.3,1.1-0.6,1.3s-0.7,0.3-1.2,0.3s-0.9-0.1-1.2-0.3s-0.4-0.7-0.4-1.4c0-0.5,0-1.3,0-2.4c0-1,0-2.2,0-3.5s0-2.6,0.1-4
				c0-1.4,0-2.8,0.1-4.1c0-0.6,0.1-1.1,0.4-1.3c0.3-0.3,0.8-0.4,1.4-0.4c1.2,0,1.8,0.6,1.8,1.8C649.1,239.4,649,240.3,649,241.2z"/>
			<path d="M664.6,236.6c0,0.4,0,0.9,0,1.5c1.4,0,2.7-0.1,3.9-0.1s2.2-0.1,2.9-0.1c0.5,0,0.8,0.1,1,0.2c0.2,0.2,0.3,0.5,0.4,1.1
				c0,0.5-0.1,0.9-0.3,1.1c-0.2,0.2-0.6,0.3-1,0.4c-0.1,0-0.3,0-0.6,0s-0.5,0-0.8,0s-0.6,0-0.9,0c-0.3,0-0.5,0-0.7,0
				c0.5,0.2,0.8,0.5,1.1,0.9s0.6,0.8,0.8,1.3s0.4,1,0.4,1.6c0.1,0.6,0.1,1.1,0.2,1.7c0,1-0.1,2-0.5,2.9c-0.3,0.9-0.8,1.7-1.5,2.4
				s-1.5,1.2-2.5,1.6c-1,0.4-2.2,0.6-3.5,0.7c-1.3,0-2.5-0.1-3.5-0.4c-1-0.3-1.8-0.8-2.5-1.4c-0.7-0.6-1.2-1.4-1.5-2.3
				c-0.3-0.9-0.5-1.9-0.5-3c0-0.6,0.1-1.1,0.2-1.7s0.3-1.1,0.5-1.6s0.5-0.9,0.8-1.3c0.3-0.4,0.7-0.7,1.1-0.9c-0.3,0-0.5,0-0.9,0.1
				c-0.3,0-0.6,0-1,0c-0.3,0-0.6,0-0.9,0s-0.5,0-0.6,0c-0.4,0-0.7-0.1-1-0.2c-0.2-0.2-0.4-0.5-0.4-1.1s0.1-1,0.3-1.2
				s0.5-0.4,0.9-0.4c0.7,0,1.7-0.1,2.9-0.1s2.5-0.1,3.9-0.2c0-0.5,0-0.9-0.1-1.4c0-0.4,0-0.8,0-1.1c0-0.5,0.1-0.9,0.3-1.2
				s0.7-0.5,1.4-0.5c0.8,0,1.3,0,1.6,0.3c0.2,0.2,0.4,0.7,0.4,1.3C664.6,235.8,664.6,236.2,664.6,236.6z M663,251
				c1.5,0,2.7-0.5,3.5-1.5c0.8-0.9,1.1-2.2,1.1-3.8s-0.5-2.8-1.3-3.7s-1.9-1.3-3.3-1.2c-0.7,0-1.4,0.2-1.9,0.5s-1,0.7-1.4,1.1
				c-0.4,0.5-0.7,1-0.9,1.6s-0.3,1.3-0.3,2c0,1.6,0.4,2.8,1.2,3.6C660.5,250.7,661.6,251.1,663,251z M678.7,263.9
				c-0.4,0.9-0.9,1.6-1.6,2.2c-0.7,0.6-1.6,1.1-2.6,1.5s-2.2,0.6-3.5,0.6c-2.6,0.1-4.7-0.4-6.1-1.7c-1.4-1.2-2.2-2.9-2.2-5
				c0-0.9,0.2-1.8,0.5-2.7c0.3-0.8,0.9-1.6,1.5-2.2c0.7-0.7,1.5-1.2,2.5-1.6c1-0.4,2.2-0.6,3.5-0.7c1.3-0.1,2.4,0,3.5,0.3
				c1,0.3,1.9,0.7,2.6,1.3c0.7,0.6,1.3,1.3,1.7,2.2s0.6,1.8,0.7,2.9C679.3,262.1,679.1,263.1,678.7,263.9z M674.5,264.2
				c0.4-0.4,0.8-0.8,1-1.3s0.3-1.1,0.3-1.7c0-1.3-0.5-2.3-1.5-3c-0.9-0.7-2.1-1-3.4-0.9c-0.7,0-1.4,0.2-2,0.4
				c-0.6,0.2-1.1,0.5-1.5,0.9s-0.7,0.8-0.9,1.3s-0.3,1.1-0.3,1.6c0,1.3,0.5,2.3,1.3,3c0.9,0.7,2,1,3.4,1c0.8,0,1.4-0.1,2-0.4
				S674,264.6,674.5,264.2z M675.8,244.8c-0.7,0-1.4,0.1-1.9,0.1s-0.9,0-1.1,0c-0.5,0-0.8-0.1-1-0.4s-0.3-0.6-0.3-1.2
				c0-1,0.4-1.5,1.2-1.5c0.2,0,0.6,0,1.2-0.1s1.2-0.1,1.9-0.1c0-0.5,0-1.1,0-1.6s0-1,0-1.5c0-0.6,0.1-1.1,0.4-1.3
				c0.3-0.3,0.8-0.4,1.4-0.4c1.2,0,1.8,0.6,1.8,1.8c0,1.1,0,2.4-0.1,3.7c0,1.4,0,2.7-0.1,4.1c0,1.3-0.1,2.6-0.1,3.7
				c0,1.1-0.1,2-0.2,2.6c-0.1,0.7-0.3,1.1-0.6,1.3s-0.7,0.3-1.2,0.3s-0.9-0.1-1.2-0.3s-0.4-0.7-0.4-1.4c0-0.3,0-0.7,0-1.2
				s0-1.1,0-1.6c-0.7,0-1.3,0-1.9,0.1s-0.9,0-1,0c-0.5,0-0.8-0.1-1-0.4c-0.2-0.3-0.3-0.6-0.3-1.2c0-1,0.4-1.5,1.2-1.5
				c0.2,0,0.5,0,1.1,0c0.5,0,1.2-0.1,1.9-0.1v-1.9H675.8z"/>
		</g>
	</g>
	<g>
		<path style="fill:none;stroke:#000000;stroke-width:1.5;stroke-linecap:round;stroke-linejoin:round;stroke-miterlimit:10;" d="
			M406.5,308.6l2.3,2 M406.7,302.8l-0.2,5.8l-1.7,2 M398,312.1l2.3,2 M398.2,306.3l-0.2,5.8l-1.7,2"/>
		<g>
			<path style="fill:#FFE74D;" d="M406.5,288.9c0,0,2.7-8.5,5.5-7c2.7,1.5,0.3,9.8-2.4,12.4"/>
			<path style="fill:none;stroke:#000000;stroke-width:1.5;stroke-linecap:round;stroke-linejoin:round;stroke-miterlimit:10;" d="
				M406.5,288.9c0,0,2.7-8.5,5.5-7c2.7,1.5,0.3,9.8-2.4,12.4"/>
			<path style="fill:#FFE74D;" d="M406.8,285.4c3.8,6.8,7.5,15.2-4.1,21.7c-10.7,6-16.8-1-20.6-7.9c-3.8-6.8-0.2-13.4,6.6-17.3
				C395.5,278.1,403,278.6,406.8,285.4"/>
			<path style="fill:none;stroke:#000000;stroke-width:1.5;stroke-linecap:round;stroke-linejoin:round;stroke-miterlimit:10;" d="
				M406.8,285.4c3.8,6.8,7.5,15.2-4.1,21.7c-10.7,6-16.8-1-20.6-7.9c-3.8-6.8-0.2-13.4,6.6-17.3C395.5,278.1,403,278.6,406.8,285.4z
				"/>
		</g>
		
			<polyline style="fill:none;stroke:#000000;stroke-width:1.5;stroke-linecap:round;stroke-linejoin:round;stroke-miterlimit:10;" points="
			382.4,280.3 387.9,282.4 388.8,276.9 		"/>
		<g>
			<path style="fill:#EA5514;" d="M404.7,292.4c0.9,1.5-1.2,1.6-3.3,2.7c-2,1.1-3.2,2.9-4,1.3c-0.9-1.5,0.1-3.7,2.1-4.8
				C401.5,290.5,403.9,290.8,404.7,292.4"/>
			<path style="fill:none;stroke:#000000;stroke-width:1.5;stroke-linecap:round;stroke-linejoin:round;stroke-miterlimit:10;" d="
				M404.7,292.4c0.9,1.5-1.2,1.6-3.3,2.7c-2,1.1-3.2,2.9-4,1.3c-0.9-1.5,0.1-3.7,2.1-4.8C401.5,290.5,403.9,290.8,404.7,292.4z"/>
			<path style="fill:#EA5514;" d="M399.4,296.9c-0.6-1,0.8-1,2.1-1.8c1.3-0.7,2.1-1.9,2.6-0.9c0.6,1-0.1,2.4-1.4,3.1
				C401.4,298.1,399.9,297.9,399.4,296.9"/>
			<path style="fill:none;stroke:#000000;stroke-width:1.5;stroke-linecap:round;stroke-linejoin:round;stroke-miterlimit:10;" d="
				M399.4,296.9c-0.6-1,0.8-1,2.1-1.8c1.3-0.7,2.1-1.9,2.6-0.9c0.6,1-0.1,2.4-1.4,3.1C401.4,298.1,399.9,297.9,399.4,296.9z"/>
			<path style="fill:#FFE74D;" d="M390.7,301.2c0,0,2.7-8.5,5.5-7c2.7,1.5,1.8,6.9-0.9,9.5"/>
			<path style="fill:none;stroke:#000000;stroke-width:1.5;stroke-linecap:round;stroke-linejoin:round;stroke-miterlimit:10;" d="
				M390.7,301.2c0,0,2.7-8.5,5.5-7c2.7,1.5,1.8,6.9-0.9,9.5"/>
			<path style="fill:#FFE200;" d="M395.8,291.5c0,0-1.8-0.5-2.5,0.1"/>
			<path style="fill:none;stroke:#000000;stroke-width:1.5;stroke-linecap:round;stroke-linejoin:round;stroke-miterlimit:10;" d="
				M395.8,291.5c0,0-1.8-0.5-2.5,0.1"/>
			<path style="fill:#FFE200;" d="M401,288.6c0,0-0.3-1,0.7-1.7"/>
			<path style="fill:none;stroke:#000000;stroke-width:1.5;stroke-linecap:round;stroke-linejoin:round;stroke-miterlimit:10;" d="
				M401,288.6c0,0-0.3-1,0.7-1.7"/>
			<path style="fill:none;stroke:#000000;stroke-width:1.5;stroke-linecap:round;stroke-linejoin:round;stroke-miterlimit:10;" d="
				M378.6,311.2c0.9,1,2.2,1.4,3.5,1.2 M379.6,304.4c0.3,2.3,2.1,3.3,4,4.4"/>
		</g>
	</g>
</g>
<g>
	<g>
		<path style="fill:#BD7AB1;" d="M77.1,281.4c-8.8,1.2-16.9,1.9-24.2,1.9c-15.2,0-25.7-3.1-28.3-8.2c-3.3-6.8,4.3-22.9,27.3-45.2
			c-1.6-5.4-3.1-10.8-4.2-16.3c-0.3-1.5-0.5-3-0.8-4.5c-34.8,31.1-47.9,56-39,74.2c6.1,12.4,21.2,18.7,45,18.7
			c10.9,0,23.5-1.3,37.4-3.8C85.6,292.8,81.1,287.3,77.1,281.4z"/>
		<path style="fill:#BD7AB1;" d="M446.9,69.1c-6.1-12.4-21.2-18.7-45-18.7c-10.9,0-23.5,1.3-37.4,3.8c4.7,5.3,9.2,10.9,13.2,16.7
			c8.8-1.2,16.9-1.9,24.2-1.9c15.2,0,25.7,3.1,28.3,8.2c3.3,6.8-4.3,22.9-27.3,45.2c1.6,5.3,3.1,10.8,4.2,16.3
			c0.3,1.5,0.5,3,0.8,4.5C442.7,112.2,455.8,87.2,446.9,69.1z"/>
	</g>
	<path style="fill:#FFFFFF;stroke:#BD7AB1;stroke-width:3;stroke-linecap:round;stroke-linejoin:round;" d="M398.1,176.7v-0.5
		c0-11.9-1.2-23.5-3.5-34.8c-6.3-30.6-20.9-58.2-41.2-80.4c-8-8.7-16.9-16.6-26.5-23.5c-28-20.1-62.3-32-99.5-32
		C133.3,5.4,57,81.6,56.7,175.6v0.5c0,11.9,1.2,23.5,3.5,34.8c6.3,30.6,20.9,58.2,41.2,80.4c8,8.7,16.9,16.6,26.5,23.5
		c28,20.1,62.3,32,99.5,32C321.5,346.9,397.8,270.7,398.1,176.7z"/>
	<g>
		<g>
			<defs>
				<path id="SVGID_1_" d="M56.7,175.6v0.5c0,11.9,1.2,23.5,3.5,34.8c6.3,30.6,20.9,58.2,41.2,80.4c8,8.7,16.9,16.6,26.5,23.5
					c28,20.1,62.3,32,99.5,32c94.1,0,170.4-76.2,170.7-170.2v-0.5c0-11.9-1.2-23.5-3.5-34.8c-6.3-30.6-20.9-58.2-41.2-80.4
					c-8-8.7-16.9-16.6-26.5-23.5c-28-20.1-62.3-32-99.5-32C133.3,5.4,57,81.6,56.7,175.6"/>
			</defs>
			<clipPath id="SVGID_2_">
				<use xlink:href="#SVGID_1_"  style="overflow:visible;"/>
			</clipPath>
			
				<line style="clip-path:url(#SVGID_2_);fill:none;stroke:#7ECEF4;stroke-dasharray:1.504,1.004;" x1="-251.8" y1="6.1" x2="675.7" y2="6.1"/>
		</g>
		<g>
			<defs>
				<path id="SVGID_3_" d="M56.7,175.6v0.5c0,11.9,1.2,23.5,3.5,34.8c6.3,30.6,20.9,58.2,41.2,80.4c8,8.7,16.9,16.6,26.5,23.5
					c28,20.1,62.3,32,99.5,32c94.1,0,170.4-76.2,170.7-170.2v-0.5c0-11.9-1.2-23.5-3.5-34.8c-6.3-30.6-20.9-58.2-41.2-80.4
					c-8-8.7-16.9-16.6-26.5-23.5c-28-20.1-62.3-32-99.5-32C133.3,5.4,57,81.6,56.7,175.6"/>
			</defs>
			<clipPath id="SVGID_4_">
				<use xlink:href="#SVGID_3_"  style="overflow:visible;"/>
			</clipPath>
			
				<line style="clip-path:url(#SVGID_4_);fill:none;stroke:#7ECEF4;stroke-dasharray:1.504,1.004;" x1="-251.8" y1="37" x2="675.7" y2="37"/>
		</g>
		<g>
			<defs>
				<path id="SVGID_5_" d="M56.7,175.6v0.5c0,11.9,1.2,23.5,3.5,34.8c6.3,30.6,20.9,58.2,41.2,80.4c8,8.7,16.9,16.6,26.5,23.5
					c28,20.1,62.3,32,99.5,32c94.1,0,170.4-76.2,170.7-170.2v-0.5c0-11.9-1.2-23.5-3.5-34.8c-6.3-30.6-20.9-58.2-41.2-80.4
					c-8-8.7-16.9-16.6-26.5-23.5c-28-20.1-62.3-32-99.5-32C133.3,5.4,57,81.6,56.7,175.6"/>
			</defs>
			<clipPath id="SVGID_6_">
				<use xlink:href="#SVGID_5_"  style="overflow:visible;"/>
			</clipPath>
			
				<line style="clip-path:url(#SVGID_6_);fill:none;stroke:#7ECEF4;stroke-dasharray:1.504,1.004;" x1="-251.8" y1="98.9" x2="675.7" y2="98.9"/>
		</g>
		<g>
			<defs>
				<path id="SVGID_7_" d="M56.7,175.6v0.5c0,11.9,1.2,23.5,3.5,34.8c6.3,30.6,20.9,58.2,41.2,80.4c8,8.7,16.9,16.6,26.5,23.5
					c28,20.1,62.3,32,99.5,32c94.1,0,170.4-76.2,170.7-170.2v-0.5c0-11.9-1.2-23.5-3.5-34.8c-6.3-30.6-20.9-58.2-41.2-80.4
					c-8-8.7-16.9-16.6-26.5-23.5c-28-20.1-62.3-32-99.5-32C133.3,5.4,57,81.6,56.7,175.6"/>
			</defs>
			<clipPath id="SVGID_8_">
				<use xlink:href="#SVGID_7_"  style="overflow:visible;"/>
			</clipPath>
			
				<line style="clip-path:url(#SVGID_8_);fill:none;stroke:#7ECEF4;stroke-dasharray:1.504,1.004;" x1="-251.8" y1="160.7" x2="675.7" y2="160.7"/>
		</g>
		<g>
			<defs>
				<path id="SVGID_9_" d="M56.7,175.6v0.5c0,11.9,1.2,23.5,3.5,34.8c6.3,30.6,20.9,58.2,41.2,80.4c8,8.7,16.9,16.6,26.5,23.5
					c28,20.1,62.3,32,99.5,32c94.1,0,170.4-76.2,170.7-170.2v-0.5c0-11.9-1.2-23.5-3.5-34.8c-6.3-30.6-20.9-58.2-41.2-80.4
					c-8-8.7-16.9-16.6-26.5-23.5c-28-20.1-62.3-32-99.5-32C133.3,5.4,57,81.6,56.7,175.6"/>
			</defs>
			<clipPath id="SVGID_10_">
				<use xlink:href="#SVGID_9_"  style="overflow:visible;"/>
			</clipPath>
			
				<line style="clip-path:url(#SVGID_10_);fill:none;stroke:#7ECEF4;stroke-dasharray:1.504,1.004;" x1="-251.8" y1="222.5" x2="675.7" y2="222.5"/>
		</g>
		<g>
			<defs>
				<path id="SVGID_11_" d="M56.7,175.6v0.5c0,11.9,1.2,23.5,3.5,34.8c6.3,30.6,20.9,58.2,41.2,80.4c8,8.7,16.9,16.6,26.5,23.5
					c28,20.1,62.3,32,99.5,32c94.1,0,170.4-76.2,170.7-170.2v-0.5c0-11.9-1.2-23.5-3.5-34.8c-6.3-30.6-20.9-58.2-41.2-80.4
					c-8-8.7-16.9-16.6-26.5-23.5c-28-20.1-62.3-32-99.5-32C133.3,5.4,57,81.6,56.7,175.6"/>
			</defs>
			<clipPath id="SVGID_12_">
				<use xlink:href="#SVGID_11_"  style="overflow:visible;"/>
			</clipPath>
			
				<line style="clip-path:url(#SVGID_12_);fill:none;stroke:#7ECEF4;stroke-dasharray:1.504,1.004;" x1="-251.8" y1="315.3" x2="675.7" y2="315.3"/>
		</g>
		<g>
			<defs>
				<path id="SVGID_13_" d="M56.7,175.6v0.5c0,11.9,1.2,23.5,3.5,34.8c6.3,30.6,20.9,58.2,41.2,80.4c8,8.7,16.9,16.6,26.5,23.5
					c28,20.1,62.3,32,99.5,32c94.1,0,170.4-76.2,170.7-170.2v-0.5c0-11.9-1.2-23.5-3.5-34.8c-6.3-30.6-20.9-58.2-41.2-80.4
					c-8-8.7-16.9-16.6-26.5-23.5c-28-20.1-62.3-32-99.5-32C133.3,5.4,57,81.6,56.7,175.6"/>
			</defs>
			<clipPath id="SVGID_14_">
				<use xlink:href="#SVGID_13_"  style="overflow:visible;"/>
			</clipPath>
			
				<line style="clip-path:url(#SVGID_14_);fill:none;stroke:#7ECEF4;stroke-dasharray:1.504,1.004;" x1="-251.8" y1="284.4" x2="675.7" y2="284.4"/>
		</g>
		<g>
			<defs>
				<path id="SVGID_15_" d="M56.7,175.6v0.5c0,11.9,1.2,23.5,3.5,34.8c6.3,30.6,20.9,58.2,41.2,80.4c8,8.7,16.9,16.6,26.5,23.5
					c28,20.1,62.3,32,99.5,32c94.1,0,170.4-76.2,170.7-170.2v-0.5c0-11.9-1.2-23.5-3.5-34.8c-6.3-30.6-20.9-58.2-41.2-80.4
					c-8-8.7-16.9-16.6-26.5-23.5c-28-20.1-62.3-32-99.5-32C133.3,5.4,57,81.6,56.7,175.6"/>
			</defs>
			<clipPath id="SVGID_16_">
				<use xlink:href="#SVGID_15_"  style="overflow:visible;"/>
			</clipPath>
			
				<line style="clip-path:url(#SVGID_16_);fill:none;stroke:#7ECEF4;stroke-dasharray:1.504,1.004;" x1="-251.8" y1="68" x2="675.7" y2="68"/>
		</g>
		<g>
			<defs>
				<path id="SVGID_17_" d="M56.7,175.6v0.5c0,11.9,1.2,23.5,3.5,34.8c6.3,30.6,20.9,58.2,41.2,80.4c8,8.7,16.9,16.6,26.5,23.5
					c28,20.1,62.3,32,99.5,32c94.1,0,170.4-76.2,170.7-170.2v-0.5c0-11.9-1.2-23.5-3.5-34.8c-6.3-30.6-20.9-58.2-41.2-80.4
					c-8-8.7-16.9-16.6-26.5-23.5c-28-20.1-62.3-32-99.5-32C133.3,5.4,57,81.6,56.7,175.6"/>
			</defs>
			<clipPath id="SVGID_18_">
				<use xlink:href="#SVGID_17_"  style="overflow:visible;"/>
			</clipPath>
			
				<line style="clip-path:url(#SVGID_18_);fill:none;stroke:#7ECEF4;stroke-dasharray:1.504,1.004;" x1="-251.8" y1="129.8" x2="675.7" y2="129.8"/>
		</g>
		<g>
			<defs>
				<path id="SVGID_19_" d="M56.7,175.6v0.5c0,11.9,1.2,23.5,3.5,34.8c6.3,30.6,20.9,58.2,41.2,80.4c8,8.7,16.9,16.6,26.5,23.5
					c28,20.1,62.3,32,99.5,32c94.1,0,170.4-76.2,170.7-170.2v-0.5c0-11.9-1.2-23.5-3.5-34.8c-6.3-30.6-20.9-58.2-41.2-80.4
					c-8-8.7-16.9-16.6-26.5-23.5c-28-20.1-62.3-32-99.5-32C133.3,5.4,57,81.6,56.7,175.6"/>
			</defs>
			<clipPath id="SVGID_20_">
				<use xlink:href="#SVGID_19_"  style="overflow:visible;"/>
			</clipPath>
			
				<line style="clip-path:url(#SVGID_20_);fill:none;stroke:#7ECEF4;stroke-dasharray:1.504,1.004;" x1="-251.8" y1="191.6" x2="675.7" y2="191.6"/>
		</g>
		<g>
			<defs>
				<path id="SVGID_21_" d="M56.7,175.6v0.5c0,11.9,1.2,23.5,3.5,34.8c6.3,30.6,20.9,58.2,41.2,80.4c8,8.7,16.9,16.6,26.5,23.5
					c28,20.1,62.3,32,99.5,32c94.1,0,170.4-76.2,170.7-170.2v-0.5c0-11.9-1.2-23.5-3.5-34.8c-6.3-30.6-20.9-58.2-41.2-80.4
					c-8-8.7-16.9-16.6-26.5-23.5c-28-20.1-62.3-32-99.5-32C133.3,5.4,57,81.6,56.7,175.6"/>
			</defs>
			<clipPath id="SVGID_22_">
				<use xlink:href="#SVGID_21_"  style="overflow:visible;"/>
			</clipPath>
			
				<line style="clip-path:url(#SVGID_22_);fill:none;stroke:#7ECEF4;stroke-dasharray:1.504,1.004;" x1="-251.8" y1="253.4" x2="675.7" y2="253.4"/>
		</g>
		<g>
			<defs>
				<path id="SVGID_23_" d="M56.7,175.6v0.5c0,11.9,1.2,23.5,3.5,34.8c6.3,30.6,20.9,58.2,41.2,80.4c8,8.7,16.9,16.6,26.5,23.5
					c28,20.1,62.3,32,99.5,32c94.1,0,170.4-76.2,170.7-170.2v-0.5c0-11.9-1.2-23.5-3.5-34.8c-6.3-30.6-20.9-58.2-41.2-80.4
					c-8-8.7-16.9-16.6-26.5-23.5c-28-20.1-62.3-32-99.5-32C133.3,5.4,57,81.6,56.7,175.6"/>
			</defs>
			<clipPath id="SVGID_24_">
				<use xlink:href="#SVGID_23_"  style="overflow:visible;"/>
			</clipPath>
			
				<line style="clip-path:url(#SVGID_24_);fill:none;stroke:#7ECEF4;stroke-dasharray:1.504,1.004;" x1="675.7" y1="346.2" x2="-251.8" y2="346.2"/>
		</g>
		<g>
			<defs>
				<path id="SVGID_25_" d="M56.7,175.6v0.5c0,11.9,1.2,23.5,3.5,34.8c6.3,30.6,20.9,58.2,41.2,80.4c8,8.7,16.9,16.6,26.5,23.5
					c28,20.1,62.3,32,99.5,32c94.1,0,170.4-76.2,170.7-170.2v-0.5c0-11.9-1.2-23.5-3.5-34.8c-6.3-30.6-20.9-58.2-41.2-80.4
					c-8-8.7-16.9-16.6-26.5-23.5c-28-20.1-62.3-32-99.5-32C133.3,5.4,57,81.6,56.7,175.6"/>
			</defs>
			<clipPath id="SVGID_26_">
				<use xlink:href="#SVGID_25_"  style="overflow:visible;"/>
			</clipPath>
			
				<line style="clip-path:url(#SVGID_26_);fill:none;stroke:#7ECEF4;stroke-width:0.4;stroke-dasharray:1.495,0.995;" x1="675.7" y1="6.1" x2="675.7" y2="346.2"/>
		</g>
		<g>
			<defs>
				<path id="SVGID_27_" d="M56.7,175.6v0.5c0,11.9,1.2,23.5,3.5,34.8c6.3,30.6,20.9,58.2,41.2,80.4c8,8.7,16.9,16.6,26.5,23.5
					c28,20.1,62.3,32,99.5,32c94.1,0,170.4-76.2,170.7-170.2v-0.5c0-11.9-1.2-23.5-3.5-34.8c-6.3-30.6-20.9-58.2-41.2-80.4
					c-8-8.7-16.9-16.6-26.5-23.5c-28-20.1-62.3-32-99.5-32C133.3,5.4,57,81.6,56.7,175.6"/>
			</defs>
			<clipPath id="SVGID_28_">
				<use xlink:href="#SVGID_27_"  style="overflow:visible;"/>
			</clipPath>
			
				<line style="clip-path:url(#SVGID_28_);fill:none;stroke:#7ECEF4;stroke-width:0.4;stroke-dasharray:1.495,0.995;" x1="582.9" y1="6.1" x2="582.9" y2="346.2"/>
		</g>
		<g>
			<defs>
				<path id="SVGID_29_" d="M56.7,175.6v0.5c0,11.9,1.2,23.5,3.5,34.8c6.3,30.6,20.9,58.2,41.2,80.4c8,8.7,16.9,16.6,26.5,23.5
					c28,20.1,62.3,32,99.5,32c94.1,0,170.4-76.2,170.7-170.2v-0.5c0-11.9-1.2-23.5-3.5-34.8c-6.3-30.6-20.9-58.2-41.2-80.4
					c-8-8.7-16.9-16.6-26.5-23.5c-28-20.1-62.3-32-99.5-32C133.3,5.4,57,81.6,56.7,175.6"/>
			</defs>
			<clipPath id="SVGID_30_">
				<use xlink:href="#SVGID_29_"  style="overflow:visible;"/>
			</clipPath>
			
				<line style="clip-path:url(#SVGID_30_);fill:none;stroke:#7ECEF4;stroke-width:0.4;stroke-dasharray:1.495,0.995;" x1="644.7" y1="6.1" x2="644.7" y2="346.2"/>
		</g>
		<g>
			<defs>
				<path id="SVGID_31_" d="M56.7,175.6v0.5c0,11.9,1.2,23.5,3.5,34.8c6.3,30.6,20.9,58.2,41.2,80.4c8,8.7,16.9,16.6,26.5,23.5
					c28,20.1,62.3,32,99.5,32c94.1,0,170.4-76.2,170.7-170.2v-0.5c0-11.9-1.2-23.5-3.5-34.8c-6.3-30.6-20.9-58.2-41.2-80.4
					c-8-8.7-16.9-16.6-26.5-23.5c-28-20.1-62.3-32-99.5-32C133.3,5.4,57,81.6,56.7,175.6"/>
			</defs>
			<clipPath id="SVGID_32_">
				<use xlink:href="#SVGID_31_"  style="overflow:visible;"/>
			</clipPath>
			
				<line style="clip-path:url(#SVGID_32_);fill:none;stroke:#7ECEF4;stroke-dasharray:1.495,0.995;" x1="459.3" y1="6.1" x2="459.3" y2="346.2"/>
		</g>
		<g>
			<defs>
				<path id="SVGID_33_" d="M56.7,175.6v0.5c0,11.9,1.2,23.5,3.5,34.8c6.3,30.6,20.9,58.2,41.2,80.4c8,8.7,16.9,16.6,26.5,23.5
					c28,20.1,62.3,32,99.5,32c94.1,0,170.4-76.2,170.7-170.2v-0.5c0-11.9-1.2-23.5-3.5-34.8c-6.3-30.6-20.9-58.2-41.2-80.4
					c-8-8.7-16.9-16.6-26.5-23.5c-28-20.1-62.3-32-99.5-32C133.3,5.4,57,81.6,56.7,175.6"/>
			</defs>
			<clipPath id="SVGID_34_">
				<use xlink:href="#SVGID_33_"  style="overflow:visible;"/>
			</clipPath>
			
				<line style="clip-path:url(#SVGID_34_);fill:none;stroke:#7ECEF4;stroke-dasharray:1.495,0.995;" x1="211.9" y1="6.1" x2="211.9" y2="346.2"/>
		</g>
		<g>
			<defs>
				<path id="SVGID_35_" d="M56.7,175.6v0.5c0,11.9,1.2,23.5,3.5,34.8c6.3,30.6,20.9,58.2,41.2,80.4c8,8.7,16.9,16.6,26.5,23.5
					c28,20.1,62.3,32,99.5,32c94.1,0,170.4-76.2,170.7-170.2v-0.5c0-11.9-1.2-23.5-3.5-34.8c-6.3-30.6-20.9-58.2-41.2-80.4
					c-8-8.7-16.9-16.6-26.5-23.5c-28-20.1-62.3-32-99.5-32C133.3,5.4,57,81.6,56.7,175.6"/>
			</defs>
			<clipPath id="SVGID_36_">
				<use xlink:href="#SVGID_35_"  style="overflow:visible;"/>
			</clipPath>
			
				<line style="clip-path:url(#SVGID_36_);fill:none;stroke:#7ECEF4;stroke-width:0.4;stroke-dasharray:1.495,0.995;" x1="521.1" y1="6.1" x2="521.1" y2="346.2"/>
		</g>
		<g>
			<defs>
				<path id="SVGID_37_" d="M56.7,175.6v0.5c0,11.9,1.2,23.5,3.5,34.8c6.3,30.6,20.9,58.2,41.2,80.4c8,8.7,16.9,16.6,26.5,23.5
					c28,20.1,62.3,32,99.5,32c94.1,0,170.4-76.2,170.7-170.2v-0.5c0-11.9-1.2-23.5-3.5-34.8c-6.3-30.6-20.9-58.2-41.2-80.4
					c-8-8.7-16.9-16.6-26.5-23.5c-28-20.1-62.3-32-99.5-32C133.3,5.4,57,81.6,56.7,175.6"/>
			</defs>
			<clipPath id="SVGID_38_">
				<use xlink:href="#SVGID_37_"  style="overflow:visible;"/>
			</clipPath>
			
				<line style="clip-path:url(#SVGID_38_);fill:none;stroke:#7ECEF4;stroke-dasharray:1.495,0.995;" x1="397.4" y1="6.1" x2="397.4" y2="346.2"/>
		</g>
		<g>
			<defs>
				<path id="SVGID_39_" d="M56.7,175.6v0.5c0,11.9,1.2,23.5,3.5,34.8c6.3,30.6,20.9,58.2,41.2,80.4c8,8.7,16.9,16.6,26.5,23.5
					c28,20.1,62.3,32,99.5,32c94.1,0,170.4-76.2,170.7-170.2v-0.5c0-11.9-1.2-23.5-3.5-34.8c-6.3-30.6-20.9-58.2-41.2-80.4
					c-8-8.7-16.9-16.6-26.5-23.5c-28-20.1-62.3-32-99.5-32C133.3,5.4,57,81.6,56.7,175.6"/>
			</defs>
			<clipPath id="SVGID_40_">
				<use xlink:href="#SVGID_39_"  style="overflow:visible;"/>
			</clipPath>
			
				<line style="clip-path:url(#SVGID_40_);fill:none;stroke:#7ECEF4;stroke-dasharray:1.495,0.995;" x1="335.6" y1="6.1" x2="335.6" y2="346.2"/>
		</g>
		<g>
			<defs>
				<path id="SVGID_41_" d="M56.7,175.6v0.5c0,11.9,1.2,23.5,3.5,34.8c6.3,30.6,20.9,58.2,41.2,80.4c8,8.7,16.9,16.6,26.5,23.5
					c28,20.1,62.3,32,99.5,32c94.1,0,170.4-76.2,170.7-170.2v-0.5c0-11.9-1.2-23.5-3.5-34.8c-6.3-30.6-20.9-58.2-41.2-80.4
					c-8-8.7-16.9-16.6-26.5-23.5c-28-20.1-62.3-32-99.5-32C133.3,5.4,57,81.6,56.7,175.6"/>
			</defs>
			<clipPath id="SVGID_42_">
				<use xlink:href="#SVGID_41_"  style="overflow:visible;"/>
			</clipPath>
			
				<line style="clip-path:url(#SVGID_42_);fill:none;stroke:#7ECEF4;stroke-dasharray:1.495,0.995;" x1="-4.5" y1="6.1" x2="-4.5" y2="346.2"/>
		</g>
		<g>
			<defs>
				<path id="SVGID_43_" d="M56.7,175.6v0.5c0,11.9,1.2,23.5,3.5,34.8c6.3,30.6,20.9,58.2,41.2,80.4c8,8.7,16.9,16.6,26.5,23.5
					c28,20.1,62.3,32,99.5,32c94.1,0,170.4-76.2,170.7-170.2v-0.5c0-11.9-1.2-23.5-3.5-34.8c-6.3-30.6-20.9-58.2-41.2-80.4
					c-8-8.7-16.9-16.6-26.5-23.5c-28-20.1-62.3-32-99.5-32C133.3,5.4,57,81.6,56.7,175.6"/>
			</defs>
			<clipPath id="SVGID_44_">
				<use xlink:href="#SVGID_43_"  style="overflow:visible;"/>
			</clipPath>
			
				<line style="clip-path:url(#SVGID_44_);fill:none;stroke:#7ECEF4;stroke-width:0.4;stroke-dasharray:1.495,0.995;" x1="-35.4" y1="6.1" x2="-35.4" y2="346.2"/>
		</g>
		<g>
			<defs>
				<path id="SVGID_45_" d="M56.7,175.6v0.5c0,11.9,1.2,23.5,3.5,34.8c6.3,30.6,20.9,58.2,41.2,80.4c8,8.7,16.9,16.6,26.5,23.5
					c28,20.1,62.3,32,99.5,32c94.1,0,170.4-76.2,170.7-170.2v-0.5c0-11.9-1.2-23.5-3.5-34.8c-6.3-30.6-20.9-58.2-41.2-80.4
					c-8-8.7-16.9-16.6-26.5-23.5c-28-20.1-62.3-32-99.5-32C133.3,5.4,57,81.6,56.7,175.6"/>
			</defs>
			<clipPath id="SVGID_46_">
				<use xlink:href="#SVGID_45_"  style="overflow:visible;"/>
			</clipPath>
			
				<line style="clip-path:url(#SVGID_46_);fill:none;stroke:#7ECEF4;stroke-width:0.4;stroke-dasharray:1.495,0.995;" x1="-66.3" y1="6.1" x2="-66.3" y2="346.2"/>
		</g>
		<g>
			<defs>
				<path id="SVGID_47_" d="M56.7,175.6v0.5c0,11.9,1.2,23.5,3.5,34.8c6.3,30.6,20.9,58.2,41.2,80.4c8,8.7,16.9,16.6,26.5,23.5
					c28,20.1,62.3,32,99.5,32c94.1,0,170.4-76.2,170.7-170.2v-0.5c0-11.9-1.2-23.5-3.5-34.8c-6.3-30.6-20.9-58.2-41.2-80.4
					c-8-8.7-16.9-16.6-26.5-23.5c-28-20.1-62.3-32-99.5-32C133.3,5.4,57,81.6,56.7,175.6"/>
			</defs>
			<clipPath id="SVGID_48_">
				<use xlink:href="#SVGID_47_"  style="overflow:visible;"/>
			</clipPath>
			
				<line style="clip-path:url(#SVGID_48_);fill:none;stroke:#7ECEF4;stroke-dasharray:1.495,0.995;" x1="273.8" y1="6.1" x2="273.8" y2="346.2"/>
		</g>
		<g>
			<defs>
				<path id="SVGID_49_" d="M56.7,175.6v0.5c0,11.9,1.2,23.5,3.5,34.8c6.3,30.6,20.9,58.2,41.2,80.4c8,8.7,16.9,16.6,26.5,23.5
					c28,20.1,62.3,32,99.5,32c94.1,0,170.4-76.2,170.7-170.2v-0.5c0-11.9-1.2-23.5-3.5-34.8c-6.3-30.6-20.9-58.2-41.2-80.4
					c-8-8.7-16.9-16.6-26.5-23.5c-28-20.1-62.3-32-99.5-32C133.3,5.4,57,81.6,56.7,175.6"/>
			</defs>
			<clipPath id="SVGID_50_">
				<use xlink:href="#SVGID_49_"  style="overflow:visible;"/>
			</clipPath>
			
				<line style="clip-path:url(#SVGID_50_);fill:none;stroke:#7ECEF4;stroke-width:0.4;stroke-dasharray:1.495,0.995;" x1="-128.1" y1="6.1" x2="-128.1" y2="346.2"/>
		</g>
		<g>
			<defs>
				<path id="SVGID_51_" d="M56.7,175.6v0.5c0,11.9,1.2,23.5,3.5,34.8c6.3,30.6,20.9,58.2,41.2,80.4c8,8.7,16.9,16.6,26.5,23.5
					c28,20.1,62.3,32,99.5,32c94.1,0,170.4-76.2,170.7-170.2v-0.5c0-11.9-1.2-23.5-3.5-34.8c-6.3-30.6-20.9-58.2-41.2-80.4
					c-8-8.7-16.9-16.6-26.5-23.5c-28-20.1-62.3-32-99.5-32C133.3,5.4,57,81.6,56.7,175.6"/>
			</defs>
			<clipPath id="SVGID_52_">
				<use xlink:href="#SVGID_51_"  style="overflow:visible;"/>
			</clipPath>
			
				<line style="clip-path:url(#SVGID_52_);fill:none;stroke:#7ECEF4;stroke-dasharray:1.495,0.995;" x1="150.1" y1="6.1" x2="150.1" y2="346.2"/>
		</g>
		<g>
			<defs>
				<path id="SVGID_53_" d="M56.7,175.6v0.5c0,11.9,1.2,23.5,3.5,34.8c6.3,30.6,20.9,58.2,41.2,80.4c8,8.7,16.9,16.6,26.5,23.5
					c28,20.1,62.3,32,99.5,32c94.1,0,170.4-76.2,170.7-170.2v-0.5c0-11.9-1.2-23.5-3.5-34.8c-6.3-30.6-20.9-58.2-41.2-80.4
					c-8-8.7-16.9-16.6-26.5-23.5c-28-20.1-62.3-32-99.5-32C133.3,5.4,57,81.6,56.7,175.6"/>
			</defs>
			<clipPath id="SVGID_54_">
				<use xlink:href="#SVGID_53_"  style="overflow:visible;"/>
			</clipPath>
			
				<line style="clip-path:url(#SVGID_54_);fill:none;stroke:#7ECEF4;stroke-dasharray:1.495,0.995;" x1="88.3" y1="6.1" x2="88.3" y2="346.2"/>
		</g>
		<g>
			<defs>
				<path id="SVGID_55_" d="M56.7,175.6v0.5c0,11.9,1.2,23.5,3.5,34.8c6.3,30.6,20.9,58.2,41.2,80.4c8,8.7,16.9,16.6,26.5,23.5
					c28,20.1,62.3,32,99.5,32c94.1,0,170.4-76.2,170.7-170.2v-0.5c0-11.9-1.2-23.5-3.5-34.8c-6.3-30.6-20.9-58.2-41.2-80.4
					c-8-8.7-16.9-16.6-26.5-23.5c-28-20.1-62.3-32-99.5-32C133.3,5.4,57,81.6,56.7,175.6"/>
			</defs>
			<clipPath id="SVGID_56_">
				<use xlink:href="#SVGID_55_"  style="overflow:visible;"/>
			</clipPath>
			
				<line style="clip-path:url(#SVGID_56_);fill:none;stroke:#7ECEF4;stroke-dasharray:1.495,0.995;" x1="57.3" y1="6.1" x2="57.3" y2="346.2"/>
		</g>
		<g>
			<defs>
				<path id="SVGID_57_" d="M56.7,175.6v0.5c0,11.9,1.2,23.5,3.5,34.8c6.3,30.6,20.9,58.2,41.2,80.4c8,8.7,16.9,16.6,26.5,23.5
					c28,20.1,62.3,32,99.5,32c94.1,0,170.4-76.2,170.7-170.2v-0.5c0-11.9-1.2-23.5-3.5-34.8c-6.3-30.6-20.9-58.2-41.2-80.4
					c-8-8.7-16.9-16.6-26.5-23.5c-28-20.1-62.3-32-99.5-32C133.3,5.4,57,81.6,56.7,175.6"/>
			</defs>
			<clipPath id="SVGID_58_">
				<use xlink:href="#SVGID_57_"  style="overflow:visible;"/>
			</clipPath>
			
				<line style="clip-path:url(#SVGID_58_);fill:none;stroke:#7ECEF4;stroke-width:0.4;stroke-dasharray:1.495,0.995;" x1="552" y1="6.1" x2="552" y2="346.2"/>
		</g>
		<g>
			<defs>
				<path id="SVGID_59_" d="M56.7,175.6v0.5c0,11.9,1.2,23.5,3.5,34.8c6.3,30.6,20.9,58.2,41.2,80.4c8,8.7,16.9,16.6,26.5,23.5
					c28,20.1,62.3,32,99.5,32c94.1,0,170.4-76.2,170.7-170.2v-0.5c0-11.9-1.2-23.5-3.5-34.8c-6.3-30.6-20.9-58.2-41.2-80.4
					c-8-8.7-16.9-16.6-26.5-23.5c-28-20.1-62.3-32-99.5-32C133.3,5.4,57,81.6,56.7,175.6"/>
			</defs>
			<clipPath id="SVGID_60_">
				<use xlink:href="#SVGID_59_"  style="overflow:visible;"/>
			</clipPath>
			
				<line style="clip-path:url(#SVGID_60_);fill:none;stroke:#7ECEF4;stroke-width:0.4;stroke-dasharray:1.495,0.995;" x1="613.8" y1="6.1" x2="613.8" y2="346.2"/>
		</g>
		<g>
			<defs>
				<path id="SVGID_61_" d="M56.7,175.6v0.5c0,11.9,1.2,23.5,3.5,34.8c6.3,30.6,20.9,58.2,41.2,80.4c8,8.7,16.9,16.6,26.5,23.5
					c28,20.1,62.3,32,99.5,32c94.1,0,170.4-76.2,170.7-170.2v-0.5c0-11.9-1.2-23.5-3.5-34.8c-6.3-30.6-20.9-58.2-41.2-80.4
					c-8-8.7-16.9-16.6-26.5-23.5c-28-20.1-62.3-32-99.5-32C133.3,5.4,57,81.6,56.7,175.6"/>
			</defs>
			<clipPath id="SVGID_62_">
				<use xlink:href="#SVGID_61_"  style="overflow:visible;"/>
			</clipPath>
			
				<line style="clip-path:url(#SVGID_62_);fill:none;stroke:#7ECEF4;stroke-dasharray:1.495,0.995;" x1="428.3" y1="6.1" x2="428.3" y2="346.2"/>
		</g>
		<g>
			<defs>
				<path id="SVGID_63_" d="M56.7,175.6v0.5c0,11.9,1.2,23.5,3.5,34.8c6.3,30.6,20.9,58.2,41.2,80.4c8,8.7,16.9,16.6,26.5,23.5
					c28,20.1,62.3,32,99.5,32c94.1,0,170.4-76.2,170.7-170.2v-0.5c0-11.9-1.2-23.5-3.5-34.8c-6.3-30.6-20.9-58.2-41.2-80.4
					c-8-8.7-16.9-16.6-26.5-23.5c-28-20.1-62.3-32-99.5-32C133.3,5.4,57,81.6,56.7,175.6"/>
			</defs>
			<clipPath id="SVGID_64_">
				<use xlink:href="#SVGID_63_"  style="overflow:visible;"/>
			</clipPath>
			
				<line style="clip-path:url(#SVGID_64_);fill:none;stroke:#7ECEF4;stroke-dasharray:1.495,0.995;" x1="181" y1="6.1" x2="181" y2="346.2"/>
		</g>
		<g>
			<defs>
				<path id="SVGID_65_" d="M56.7,175.6v0.5c0,11.9,1.2,23.5,3.5,34.8c6.3,30.6,20.9,58.2,41.2,80.4c8,8.7,16.9,16.6,26.5,23.5
					c28,20.1,62.3,32,99.5,32c94.1,0,170.4-76.2,170.7-170.2v-0.5c0-11.9-1.2-23.5-3.5-34.8c-6.3-30.6-20.9-58.2-41.2-80.4
					c-8-8.7-16.9-16.6-26.5-23.5c-28-20.1-62.3-32-99.5-32C133.3,5.4,57,81.6,56.7,175.6"/>
			</defs>
			<clipPath id="SVGID_66_">
				<use xlink:href="#SVGID_65_"  style="overflow:visible;"/>
			</clipPath>
			
				<line style="clip-path:url(#SVGID_66_);fill:none;stroke:#7ECEF4;stroke-width:0.4;stroke-dasharray:1.495,0.995;" x1="490.2" y1="6.1" x2="490.2" y2="346.2"/>
		</g>
		<g>
			<defs>
				<path id="SVGID_67_" d="M56.7,175.6v0.5c0,11.9,1.2,23.5,3.5,34.8c6.3,30.6,20.9,58.2,41.2,80.4c8,8.7,16.9,16.6,26.5,23.5
					c28,20.1,62.3,32,99.5,32c94.1,0,170.4-76.2,170.7-170.2v-0.5c0-11.9-1.2-23.5-3.5-34.8c-6.3-30.6-20.9-58.2-41.2-80.4
					c-8-8.7-16.9-16.6-26.5-23.5c-28-20.1-62.3-32-99.5-32C133.3,5.4,57,81.6,56.7,175.6"/>
			</defs>
			<clipPath id="SVGID_68_">
				<use xlink:href="#SVGID_67_"  style="overflow:visible;"/>
			</clipPath>
			
				<line style="clip-path:url(#SVGID_68_);fill:none;stroke:#7ECEF4;stroke-dasharray:1.495,0.995;" x1="366.5" y1="6.1" x2="366.5" y2="346.2"/>
		</g>
		<g>
			<defs>
				<path id="SVGID_69_" d="M56.7,175.6v0.5c0,11.9,1.2,23.5,3.5,34.8c6.3,30.6,20.9,58.2,41.2,80.4c8,8.7,16.9,16.6,26.5,23.5
					c28,20.1,62.3,32,99.5,32c94.1,0,170.4-76.2,170.7-170.2v-0.5c0-11.9-1.2-23.5-3.5-34.8c-6.3-30.6-20.9-58.2-41.2-80.4
					c-8-8.7-16.9-16.6-26.5-23.5c-28-20.1-62.3-32-99.5-32C133.3,5.4,57,81.6,56.7,175.6"/>
			</defs>
			<clipPath id="SVGID_70_">
				<use xlink:href="#SVGID_69_"  style="overflow:visible;"/>
			</clipPath>
			
				<line style="clip-path:url(#SVGID_70_);fill:none;stroke:#7ECEF4;stroke-dasharray:1.495,0.995;" x1="304.7" y1="6.1" x2="304.7" y2="346.2"/>
		</g>
		<g>
			<defs>
				<path id="SVGID_71_" d="M56.7,175.6v0.5c0,11.9,1.2,23.5,3.5,34.8c6.3,30.6,20.9,58.2,41.2,80.4c8,8.7,16.9,16.6,26.5,23.5
					c28,20.1,62.3,32,99.5,32c94.1,0,170.4-76.2,170.7-170.2v-0.5c0-11.9-1.2-23.5-3.5-34.8c-6.3-30.6-20.9-58.2-41.2-80.4
					c-8-8.7-16.9-16.6-26.5-23.5c-28-20.1-62.3-32-99.5-32C133.3,5.4,57,81.6,56.7,175.6"/>
			</defs>
			<clipPath id="SVGID_72_">
				<use xlink:href="#SVGID_71_"  style="overflow:visible;"/>
			</clipPath>
			
				<line style="clip-path:url(#SVGID_72_);fill:none;stroke:#7ECEF4;stroke-width:0.4;stroke-dasharray:1.495,0.995;" x1="-97.2" y1="6.1" x2="-97.2" y2="346.2"/>
		</g>
		<g>
			<defs>
				<path id="SVGID_73_" d="M56.7,175.6v0.5c0,11.9,1.2,23.5,3.5,34.8c6.3,30.6,20.9,58.2,41.2,80.4c8,8.7,16.9,16.6,26.5,23.5
					c28,20.1,62.3,32,99.5,32c94.1,0,170.4-76.2,170.7-170.2v-0.5c0-11.9-1.2-23.5-3.5-34.8c-6.3-30.6-20.9-58.2-41.2-80.4
					c-8-8.7-16.9-16.6-26.5-23.5c-28-20.1-62.3-32-99.5-32C133.3,5.4,57,81.6,56.7,175.6"/>
			</defs>
			<clipPath id="SVGID_74_">
				<use xlink:href="#SVGID_73_"  style="overflow:visible;"/>
			</clipPath>
			
				<line style="clip-path:url(#SVGID_74_);fill:none;stroke:#7ECEF4;stroke-dasharray:1.495,0.995;" x1="242.8" y1="6.1" x2="242.8" y2="346.2"/>
		</g>
		<g>
			<defs>
				<path id="SVGID_75_" d="M56.7,175.6v0.5c0,11.9,1.2,23.5,3.5,34.8c6.3,30.6,20.9,58.2,41.2,80.4c8,8.7,16.9,16.6,26.5,23.5
					c28,20.1,62.3,32,99.5,32c94.1,0,170.4-76.2,170.7-170.2v-0.5c0-11.9-1.2-23.5-3.5-34.8c-6.3-30.6-20.9-58.2-41.2-80.4
					c-8-8.7-16.9-16.6-26.5-23.5c-28-20.1-62.3-32-99.5-32C133.3,5.4,57,81.6,56.7,175.6"/>
			</defs>
			<clipPath id="SVGID_76_">
				<use xlink:href="#SVGID_75_"  style="overflow:visible;"/>
			</clipPath>
			
				<line style="clip-path:url(#SVGID_76_);fill:none;stroke:#7ECEF4;stroke-width:0.4;stroke-dasharray:1.495,0.995;" x1="-159.1" y1="6.1" x2="-159.1" y2="346.2"/>
		</g>
		<g>
			<defs>
				<path id="SVGID_77_" d="M56.7,175.6v0.5c0,11.9,1.2,23.5,3.5,34.8c6.3,30.6,20.9,58.2,41.2,80.4c8,8.7,16.9,16.6,26.5,23.5
					c28,20.1,62.3,32,99.5,32c94.1,0,170.4-76.2,170.7-170.2v-0.5c0-11.9-1.2-23.5-3.5-34.8c-6.3-30.6-20.9-58.2-41.2-80.4
					c-8-8.7-16.9-16.6-26.5-23.5c-28-20.1-62.3-32-99.5-32C133.3,5.4,57,81.6,56.7,175.6"/>
			</defs>
			<clipPath id="SVGID_78_">
				<use xlink:href="#SVGID_77_"  style="overflow:visible;"/>
			</clipPath>
			
				<line style="clip-path:url(#SVGID_78_);fill:none;stroke:#7ECEF4;stroke-dasharray:1.495,0.995;" x1="119.2" y1="6.1" x2="119.2" y2="346.2"/>
		</g>
		<g>
			<defs>
				<path id="SVGID_79_" d="M56.7,175.6v0.5c0,11.9,1.2,23.5,3.5,34.8c6.3,30.6,20.9,58.2,41.2,80.4c8,8.7,16.9,16.6,26.5,23.5
					c28,20.1,62.3,32,99.5,32c94.1,0,170.4-76.2,170.7-170.2v-0.5c0-11.9-1.2-23.5-3.5-34.8c-6.3-30.6-20.9-58.2-41.2-80.4
					c-8-8.7-16.9-16.6-26.5-23.5c-28-20.1-62.3-32-99.5-32C133.3,5.4,57,81.6,56.7,175.6"/>
			</defs>
			<clipPath id="SVGID_80_">
				<use xlink:href="#SVGID_79_"  style="overflow:visible;"/>
			</clipPath>
			
				<line style="clip-path:url(#SVGID_80_);fill:none;stroke:#7ECEF4;stroke-dasharray:1.495,0.995;" x1="26.4" y1="6.1" x2="26.4" y2="346.2"/>
		</g>
	</g>
	<g>
		<path style="fill:none;stroke:#BD7AB1;stroke-width:3;stroke-linecap:round;stroke-linejoin:round;" d="M398.1,176.7v-0.5
			c0-11.9-1.2-23.5-3.5-34.8c-6.3-30.6-20.9-58.2-41.2-80.4c-8-8.7-16.9-16.6-26.5-23.5c-28-20.1-62.3-32-99.5-32
			C133.3,5.4,57,81.6,56.7,175.6v0.5c0,11.9,1.2,23.5,3.5,34.8c6.3,30.6,20.9,58.2,41.2,80.4c8,8.7,16.9,16.6,26.5,23.5
			c28,20.1,62.3,32,99.5,32C321.5,346.9,397.8,270.7,398.1,176.7z"/>
	</g>
	<g>
		<path d="M189.9,57c0,0.5-0.2,0.9-0.5,1.1c-0.3,0.2-0.7,0.3-1.2,0.3c-1-0.1-1.4-0.5-1.4-1.4c0-0.3,0-0.7,0-1.4c0-0.6,0-1.4,0.1-2.3
			c0-0.9,0-1.8,0.1-2.7c0-1,0.1-1.9,0.1-2.8s0-1.7,0.1-2.4c0-0.7,0-1.2,0-1.5c-0.5,0-1.2,0-2.1,0.1c-0.9,0-1.8,0-2.8,0s-2.1,0-3.2,0
			c-1.1,0-2.2,0-3.2,0s-2,0-2.8,0s-1.6,0-2.2,0c-0.8,0-1.2-0.5-1.2-1.5c0-0.5,0.1-0.8,0.4-1s0.5-0.3,0.8-0.4c0.7,0,1.6-0.1,2.6-0.1
			s2.1-0.1,3.3-0.1s2.4,0,3.6-0.1c1.2,0,2.4,0,3.6,0c1.1,0,2.2,0,3.2,0s1.8,0,2.5,0c0.4,0,0.7,0.1,0.9,0.3s0.2,0.5,0.2,1
			s0,1.1,0,1.9c0,0.8-0.1,1.7-0.1,2.6c0,1-0.1,2-0.1,3s-0.1,2-0.1,3c-0.1,0.9-0.1,1.8-0.2,2.6C190,55.9,189.9,56.5,189.9,57z
			 M191.3,63.6c-0.2,0.2-0.5,0.4-0.9,0.4c-3.1,0.2-6.3,0.5-9.6,0.6c-3.3,0.2-6.6,0.3-9.9,0.4c-0.8,0-1.2-0.5-1.2-1.5
			c0-0.5,0.1-0.9,0.3-1.1s0.5-0.4,1-0.4c3.4-0.2,6.8-0.3,10.1-0.5s6.4-0.3,9.4-0.4c0.4,0,0.7,0.1,0.9,0.4s0.3,0.6,0.3,1
			C191.6,63,191.5,63.4,191.3,63.6z"/>
		<path d="M203.1,61.6c-2,0.2-3.9,0.3-5.7,0.4c-0.6,0-1-0.1-1.4-0.3c-0.3-0.3-0.6-0.7-0.7-1.2c-0.1-0.5-0.2-1.1-0.2-1.7
			c-0.1-0.6-0.1-1.3-0.2-2s-0.1-1.4-0.2-2.2c-0.1-0.7-0.1-1.4-0.1-2.1c0-0.6,0.2-0.9,0.8-1c0.9-0.2,1.8-0.3,2.6-0.4
			c0.8-0.1,1.6-0.3,2.3-0.4c0.8-0.1,1.5-0.3,2.3-0.4c0.8-0.1,1.6-0.3,2.6-0.5c0-1-0.1-2-0.1-3.1c0-1-0.1-2.1-0.1-3.1
			c-1,0-2,0-2.8,0.1c-0.8,0-1.6,0.1-2.4,0.1c-0.7,0-1.5,0-2.2,0.1c-0.7,0-1.5,0-2.3,0.1c-0.3,0-0.6-0.1-0.7-0.4s-0.2-0.7-0.2-1.1
			c0-0.5,0.1-0.9,0.2-1.1c0.1-0.2,0.4-0.3,0.8-0.4c2.2-0.2,4.3-0.3,6.4-0.3c2-0.1,4-0.1,5.9-0.1c0.5,0,0.8,0.3,0.8,0.9
			c0,1.6,0.1,3.2,0.1,4.8s0,3.2,0,4.8c0,0.4-0.1,0.8-0.3,1s-0.6,0.3-1.1,0.4c-0.9,0.2-1.7,0.3-2.4,0.4c-0.7,0.1-1.4,0.3-2.1,0.4
			c-0.7,0.1-1.4,0.3-2.1,0.4s-1.5,0.3-2.4,0.4c0,0.8,0.1,1.6,0.1,2.4c0.1,0.8,0.1,1.5,0.1,2.1c0,0.3,0.2,0.5,0.6,0.4
			c1.5-0.1,3.1-0.2,4.6-0.3s3.1-0.2,4.7-0.4c0.4,0,0.7,0,0.9,0.2s0.3,0.5,0.3,1c0,0.6,0,1-0.2,1.2s-0.4,0.4-0.8,0.4
			C207,61.2,205.1,61.4,203.1,61.6z M212.2,52.8c0.7,0,1.4-0.1,2.3-0.1c0-0.6,0-1.3,0-1.9c0-0.6,0-1.2,0-1.9c-0.9,0-1.6,0-2.3,0.1
			c-0.7,0-1.1,0-1.3,0c-0.5,0-0.8-0.1-0.9-0.4c-0.2-0.2-0.3-0.6-0.3-1.1c0-1,0.3-1.4,1.1-1.5c0.2,0,0.7,0,1.4,0s1.5-0.1,2.3-0.1
			c0-0.7,0.1-1.5,0.1-2.2s0-1.5,0.1-2.2c0-0.6,0.2-1,0.4-1.3c0.3-0.3,0.7-0.4,1.4-0.4c1.1,0,1.7,0.6,1.7,1.8c0,1.8-0.1,3.7-0.1,5.6
			c0,1.9-0.1,3.9-0.2,5.8c-0.1,1.9-0.1,3.8-0.2,5.7c-0.1,1.9-0.2,3.7-0.3,5.3c0,0.6-0.2,1.1-0.5,1.3c-0.3,0.2-0.7,0.3-1.1,0.3
			c-0.5,0-0.8-0.2-1.1-0.5c-0.2-0.3-0.3-0.8-0.3-1.5c0-1.3,0-2.7,0-4s0-2.6,0-4c-0.8,0-1.5,0-2.2,0.1c-0.6,0-1,0-1.2,0
			c-0.5,0-0.8-0.1-0.9-0.4c-0.2-0.2-0.3-0.6-0.3-1.1c0-1,0.3-1.4,1.1-1.5C211.2,52.8,211.6,52.8,212.2,52.8z"/>
		<path d="M243,61.8c1.4-0.1,2.7-0.1,4.1-0.2c1.3-0.1,2.6-0.1,3.9-0.2c0.4,0,0.7,0.1,0.9,0.4s0.3,0.6,0.3,1c0,0.5-0.1,0.9-0.3,1.1
			c-0.2,0.2-0.5,0.4-0.9,0.4c-3.1,0.2-6.3,0.5-9.6,0.6c-3.3,0.2-6.6,0.3-9.9,0.4c-0.8,0-1.2-0.5-1.2-1.5c0-0.5,0.1-0.9,0.3-1.1
			s0.5-0.4,1-0.4c1.4,0,2.7-0.1,4.1-0.2c1.3-0.1,2.7-0.1,4-0.2v-4.6c-1.4,0-2.7,0.1-3.8,0.1s-1.8,0-2.2,0c-0.8,0-1.5-0.2-1.9-0.5
			s-0.6-1-0.7-2c0-0.8-0.1-1.8-0.1-2.9c0-1.1-0.1-2.2-0.1-3.4s-0.1-2.4-0.1-3.6c0-1.2,0-2.4,0-3.5c0-0.4,0.1-0.8,0.4-1.1
			c0.3-0.3,0.7-0.4,1.3-0.4c0.7,0,1.2,0.1,1.4,0.3s0.4,0.6,0.4,1c0,0.8,0,1.6,0.1,2.4s0,1.6,0.1,2.4c2.2-0.1,4.5-0.2,6.9-0.3
			c2.3-0.1,4.6-0.2,6.8-0.3c0-0.7,0-1.3,0-2s0-1.5,0-2.4c0-1,0.6-1.5,1.8-1.5c0.6,0,1,0.1,1.3,0.3s0.4,0.5,0.4,1c0,1,0,2.2,0,3.4
			s0,2.5-0.1,3.8c0,1.3-0.1,2.6-0.1,3.8s-0.1,2.4-0.1,3.5c0,0.5-0.2,0.8-0.4,1s-0.6,0.3-1,0.4c-0.6,0-1.5,0.1-2.7,0.1
			s-2.5,0-3.9,0.1v4.8H243z M234.2,52c0,0.8,0.1,1.6,0.1,2.4c0.2,0,0.6,0,1.3,0s1.4,0,2.3,0c0.9,0,1.8,0,2.8-0.1c1,0,1.9,0,2.8-0.1
			c0.9,0,1.6,0,2.3,0s1.1,0,1.3,0s0.3,0,0.4-0.1c0.1-0.1,0.2-0.3,0.2-0.5c0-0.9,0-1.8,0-2.5s0-1.5,0-2.2c-2.2,0.1-4.5,0.2-6.8,0.3
			s-4.6,0.2-6.8,0.3C234.2,50.3,234.2,51.2,234.2,52z"/>
		<path d="M262.1,49.3c0,0.9,0,1.7,0,2.4c0.9,1.1,1.8,2.1,2.7,3.1c0.9,1,1.7,1.9,2.5,2.7c0.3,0.3,0.5,0.6,0.6,0.9
			c0.1,0.3,0,0.7-0.3,1c-0.3,0.4-0.6,0.7-0.9,0.8s-0.6,0.1-0.9-0.3c-0.9-0.9-1.7-1.7-2.5-2.5s-1.6-1.8-2.6-2.8
			c-0.8,1.4-1.6,2.6-2.4,3.8c-0.7,1.1-1.5,2.2-2.3,3.1c-0.3,0.4-0.6,0.5-1.1,0.4c-0.4-0.1-0.8-0.3-1.1-0.7c-0.3-0.3-0.3-0.6-0.3-0.9
			c0.1-0.3,0.2-0.6,0.4-0.9c0.3-0.5,0.7-1,1-1.6s0.8-1.3,1.2-2s0.9-1.4,1.3-2c0.4-0.7,0.8-1.3,1.1-1.9c0-0.7,0-1.5,0-2.4
			s-0.1-1.8-0.1-2.8s-0.1-1.9-0.1-2.8c0-0.9-0.1-1.7-0.1-2.4c0-0.5,0.1-0.9,0.3-1.2c0.2-0.3,0.7-0.4,1.4-0.5c0.8,0,1.3,0,1.5,0.3
			c0.2,0.2,0.3,0.6,0.3,1.2c0,0.8,0,1.6,0,2.5s0,1.8,0.1,2.7C262.1,47.6,262.1,48.4,262.1,49.3z M268.6,47.8c0.4,0,0.8,0,1.2-0.1
			c0-1.1,0-2.1,0-3.2s0-2.1,0-3.2c0-0.4,0.1-0.8,0.4-1s0.7-0.3,1.3-0.3c0.6,0,1,0.1,1.3,0.3s0.4,0.5,0.4,0.9c0,2.1,0,4.1,0,5.9
			s0,3.6,0,5.4c0,1.8-0.1,3.6-0.1,5.4s-0.1,3.8-0.2,5.9c0,0.5-0.2,0.9-0.4,1.2c-0.3,0.2-0.6,0.4-1.1,0.4c-1,0-1.4-0.5-1.4-1.6
			c0-2.2,0-4.3,0-6.4c0-2.1,0-4.3,0-6.4c-0.4,0-0.8,0-1.2,0c-0.4,0-0.8,0-1.2,0c-0.4,0-0.7,0-0.9,0c-0.3,0-0.5,0-0.6,0
			c-0.5,0-0.8-0.1-0.9-0.4c-0.2-0.3-0.3-0.6-0.3-1.1c0-1,0.3-1.5,1.1-1.5c0.1,0,0.3,0,0.6,0c0.3,0,0.6,0,1,0
			C267.8,47.9,268.2,47.8,268.6,47.8z M279.3,64.3c-0.1,1-0.6,1.5-1.6,1.4c-0.9,0-1.3-0.5-1.3-1.6c0-2.1,0-4.1,0-6s0.1-3.8,0.1-5.6
			c0-1.9,0.1-3.7,0.1-5.6c0.1-1.9,0.1-3.9,0.2-5.9c0-0.4,0.1-0.7,0.4-0.9c0.2-0.2,0.6-0.3,1.3-0.3c0.6,0,1,0.1,1.3,0.4
			c0.3,0.2,0.4,0.5,0.4,0.9c0,2.1,0,4.1-0.1,6c0,1.9-0.1,3.8-0.2,5.6s-0.2,3.7-0.3,5.7S279.5,62.2,279.3,64.3z"/>
		<path d="M300.7,61.6c0.6,0,1.3,0,1.9-0.1c0.6,0,1.2,0,1.8-0.1c0.4,0,0.7,0.1,0.9,0.4s0.3,0.6,0.3,1c0,0.5-0.1,0.9-0.3,1.1
			c-0.2,0.2-0.5,0.4-0.9,0.4c-3.1,0.2-6.3,0.5-9.6,0.6c-3.3,0.2-6.6,0.3-9.9,0.4c-0.8,0-1.2-0.5-1.2-1.5c0-0.5,0.1-0.9,0.3-1.1
			s0.5-0.4,1-0.4c0.6,0,1.2,0,1.8-0.1c0.6,0,1.2-0.1,1.8-0.1l-0.2-5.7c-1.3-0.7-2.3-1.7-3.1-3c-0.7-1.3-1.1-2.8-1.1-4.6
			c0-1.2,0.2-2.4,0.7-3.5s1.2-2,2-2.9s1.9-1.5,3.2-2c1.2-0.5,2.6-0.8,4.2-0.8c1.5,0,2.9,0.2,4.1,0.6c1.2,0.4,2.3,1.1,3.2,1.9
			c0.9,0.8,1.6,1.8,2.1,2.9c0.5,1.1,0.7,2.4,0.7,3.7c0,1.5-0.3,2.9-0.9,4.1c-0.6,1.2-1.5,2.1-2.6,2.9L300.7,61.6z M298.9,52.9
			c0.6-0.5,1.1-1.2,1.4-1.9s0.5-1.5,0.5-2.4s-0.2-1.7-0.5-2.5c-0.3-0.7-0.8-1.4-1.4-1.9s-1.3-0.9-2.1-1.2c-0.8-0.3-1.7-0.4-2.6-0.4
			c-1,0-1.9,0.2-2.7,0.5c-0.8,0.3-1.5,0.8-2.1,1.3s-1,1.2-1.4,1.9c-0.3,0.7-0.5,1.5-0.5,2.3c0,0.9,0.2,1.8,0.5,2.5s0.8,1.3,1.4,1.8
			s1.3,0.9,2.1,1.1c0.8,0.3,1.7,0.4,2.6,0.4c1,0,1.9-0.2,2.7-0.5S298.3,53.4,298.9,52.9z M297.3,57.3c-0.9,0.2-2,0.4-3.1,0.4
			c-0.4,0-0.9,0-1.3,0s-0.8-0.1-1.2-0.1l0.1,4.5c0.9,0,1.8-0.1,2.7-0.1s1.8-0.1,2.6-0.1L297.3,57.3z"/>
		<path d="M312.6,63.9c0,0.6-0.2,1.2-0.7,1.6c-0.4,0.4-1,0.7-1.6,0.7s-1.2-0.2-1.6-0.7c-0.4-0.4-0.7-1-0.7-1.6
			c0-0.7,0.2-1.2,0.7-1.7s1-0.7,1.6-0.7c0.7,0,1.2,0.2,1.6,0.7S312.6,63.2,312.6,63.9z"/>
	</g>
	<g>
		<path style="fill:#FFFFFF;" d="M145.1,60.6l3.4,2.4 M153.2,45.2l7.7,5.2 M153.7,61.1l8.3-11.9c1.1-1.5,0.7-3.6-0.8-4.6l-2.7-1.9
			c-1.5-1.1-3.6-0.7-4.6,0.8l-8.3,11.9c-0.3,0.4-0.2,0.9,0.2,1.2l6.8,4.8C152.9,61.5,153.4,61.4,153.7,61.1 M152.4,61.1l-5.5,2.8
			c-1,0.4-2.1-0.4-2.1-1.5l0.8-6.1"/>
		<path style="fill:none;stroke:#BF7AB1;stroke-linecap:round;stroke-linejoin:round;" d="M145.1,60.6l3.4,2.4 M153.2,45.2l7.7,5.2
			 M153.7,61.1l8.3-11.9c1.1-1.5,0.7-3.6-0.8-4.6l-2.7-1.9c-1.5-1.1-3.6-0.7-4.6,0.8l-8.3,11.9c-0.3,0.4-0.2,0.9,0.2,1.2l6.8,4.8
			C152.9,61.5,153.4,61.4,153.7,61.1z M152.4,61.1l-5.5,2.8c-1,0.4-2.1-0.4-2.1-1.5l0.8-6.1"/>
		<path style="fill:#BF7AB1;" d="M161.1,50.6l1-1.4c1.1-1.5,0.7-3.6-0.8-4.7l-2.8-1.9c-1.5-1.1-3.6-0.7-4.7,0.8l-1,1.4L161.1,50.6z"
			/>
		<path style="fill:#BF7AB1;" d="M145,60.9l-0.2,1.7c0,1.1,1.1,1.9,2.1,1.5l1.8-0.9L145,60.9z"/>
		<path style="fill:#FFFFFF;" d="M145.1,60.6l3.4,2.4 M153.2,45.2l7.7,5.2 M153.7,61.1l8.3-11.9c1.1-1.5,0.7-3.6-0.8-4.6l-2.7-1.9
			c-1.5-1.1-3.6-0.7-4.6,0.8l-8.3,11.9c-0.3,0.4-0.2,0.9,0.2,1.2l6.8,4.8C152.9,61.5,153.4,61.4,153.7,61.1 M152.4,61.1l-5.5,2.8
			c-1,0.4-2.1-0.4-2.1-1.5l0.8-6.1"/>
		<path style="fill:none;stroke:#BF7AB1;stroke-width:1.5;stroke-linecap:round;stroke-linejoin:round;" d="M144.7,60.5l3.4,2.4
			 M152.8,45.1l7.7,5.2 M153.3,60.9l8.3-11.9c1.1-1.5,0.7-3.6-0.8-4.6l-2.7-1.9c-1.5-1.1-3.6-0.7-4.6,0.8l-8.3,11.9
			c-0.3,0.4-0.2,0.9,0.2,1.2l6.8,4.8C152.5,61.4,153,61.3,153.3,60.9z M152,60.9l-5.5,2.8c-1,0.4-2.1-0.4-2.1-1.5l0.8-6.1"/>
		<path style="fill:#BF7AB1;" d="M161.1,50.6l1-1.4c1.1-1.5,0.7-3.6-0.8-4.7l-2.8-1.9c-1.5-1.1-3.6-0.7-4.7,0.8l-1,1.4L161.1,50.6z"
			/>
		<path style="fill:#BF7AB1;" d="M145,60.9l-0.2,1.7c0,1.1,1.1,1.9,2.1,1.5l1.8-0.9L145,60.9z"/>
	</g>
</g>
<path style="fill:none;stroke:#8E8BC2;stroke-width:4;stroke-linecap:round;stroke-linejoin:round;stroke-miterlimit:10;" d="
	M1071.2,75.5c-3.5-29.4,17.6-56.1,47-59.6c48-5.6,77.7,49.5,48.4,86.6S1076.8,123.2,1071.2,75.5z"/>
<g>
	<g>
		<path d="M943.9,34c0.4,0,0.8,0.1,1,0.4s0.3,0.6,0.3,1.1c0,0.4-0.1,0.7-0.3,1s-0.5,0.5-1,0.5h-2.2v10.3c0.5,0,1-0.1,1.5-0.1
			s0.9-0.1,1.4-0.1c0.4,0,0.7,0,1,0.3c0.3,0.2,0.4,0.6,0.5,1c0,0.4,0,0.8-0.2,1.2c-0.2,0.3-0.4,0.5-0.8,0.6c-0.9,0.1-1.9,0.2-3,0.3
			s-2.3,0.1-3.7,0.2c-1.4,0-2.9,0.1-4.6,0.1c-1.7,0-3.7,0-6,0c-0.4,0-0.8-0.1-1-0.4c-0.2-0.3-0.3-0.6-0.3-1.1c0-0.4,0.1-0.7,0.3-1
			s0.5-0.5,1-0.5h2.5V37H928c-0.5,0-0.8-0.2-1-0.5s-0.3-0.7-0.3-1c0-0.4,0.1-0.8,0.3-1.1s0.5-0.4,1-0.4H943.9z M942.9,53.2
			c3.4,0,6,0.6,7.8,1.7c1.8,1.1,2.8,2.7,2.8,4.9s-0.9,3.9-2.8,4.9s-4.4,1.6-7.8,1.6c-3.4,0-6-0.5-7.8-1.6s-2.8-2.7-2.8-4.9
			s0.9-3.9,2.8-4.9C936.9,53.7,939.5,53.2,942.9,53.2z M933.7,47.6c1.5,0,3,0,4.6-0.1V37h-4.6V47.6z M942.9,56.1
			c-2.4,0-4.2,0.3-5.3,1c-1.1,0.6-1.7,1.5-1.7,2.6s0.6,2,1.7,2.6c1.1,0.6,2.9,1,5.3,1s4.2-0.3,5.3-1c1.1-0.6,1.7-1.5,1.7-2.6
			s-0.6-2-1.7-2.6S945.3,56.1,942.9,56.1z M951.5,32c0.5,0,0.9,0.1,1.2,0.4c0.4,0.2,0.5,0.6,0.5,1.2v17.8c0,0.5-0.2,0.9-0.5,1.1
			s-0.8,0.4-1.2,0.4c-0.5,0-0.9-0.1-1.2-0.4c-0.4-0.2-0.6-0.6-0.6-1.1v-5.3h-3.5c-0.4,0-0.7-0.2-0.9-0.5s-0.3-0.7-0.3-1.1
			c0-0.4,0.1-0.8,0.3-1.1s0.5-0.4,0.9-0.4h3.5v-2.5h-3.5c-0.4,0-0.7-0.2-0.9-0.5s-0.3-0.7-0.3-1.1c0-0.4,0.1-0.8,0.3-1.1
			s0.5-0.4,0.9-0.4h3.5v-3.9c0-0.5,0.2-0.9,0.6-1.2C950.6,32.1,951,32,951.5,32z"/>
		<path d="M965.8,31.8c0.5,0,0.9,0.1,1.3,0.4c0.4,0.2,0.5,0.6,0.5,1.1v2.4h5.1c0.4,0,0.8,0.2,1,0.5s0.3,0.7,0.3,1.1
			c0,0.4-0.1,0.8-0.3,1.1s-0.5,0.5-1,0.5h-14.2c-0.5,0-0.8-0.2-1-0.5s-0.3-0.7-0.3-1.1c0-0.4,0.1-0.8,0.3-1.1s0.5-0.5,1-0.5h5.5
			v-2.4c0-0.5,0.2-0.9,0.6-1.1C965,32,965.4,31.8,965.8,31.8z M965.9,40.7c2.2,0,3.8,0.5,5,1.6s1.8,2.5,1.8,4.3s-0.6,3.2-1.8,4.3
			s-2.8,1.6-5,1.6s-3.9-0.5-5-1.6s-1.8-2.5-1.8-4.3s0.6-3.2,1.8-4.3S963.7,40.7,965.9,40.7z M965.9,43.5c-1.2,0-2.1,0.3-2.7,0.8
			c-0.6,0.6-1,1.3-1,2.2s0.3,1.7,1,2.2c0.6,0.6,1.5,0.8,2.7,0.8s2.1-0.3,2.7-0.8c0.6-0.6,1-1.3,1-2.2s-0.3-1.7-1-2.2
			S967,43.5,965.9,43.5z M974.9,53.9c3.4,0,6.1,0.5,8,1.5s2.8,2.6,2.8,4.7s-0.9,3.7-2.8,4.7c-1.9,1-4.6,1.5-8,1.5s-6.1-0.5-8-1.5
			s-2.8-2.6-2.8-4.7s0.9-3.7,2.8-4.7S971.5,53.9,974.9,53.9z M974.9,56.8c-2.5,0-4.4,0.3-5.5,0.9c-1.2,0.6-1.7,1.4-1.7,2.4
			s0.6,1.8,1.7,2.4c1.2,0.6,3,0.9,5.5,0.9s4.4-0.3,5.5-0.9c1.2-0.6,1.7-1.4,1.7-2.4s-0.6-1.8-1.7-2.4S977.4,56.8,974.9,56.8z
			 M984.1,32c0.4,0,0.8,0.1,1.2,0.3c0.3,0.2,0.5,0.6,0.5,1.1v19c0,0.5-0.2,0.9-0.5,1.1c-0.3,0.2-0.7,0.3-1.2,0.3
			c-0.4,0-0.8-0.1-1.1-0.3s-0.5-0.6-0.5-1.1V44h-3.8v6.9c0,0.5-0.2,0.9-0.5,1.1s-0.7,0.3-1.1,0.3s-0.8-0.1-1.1-0.3s-0.5-0.6-0.5-1.1
			V33.6c0-0.5,0.2-0.8,0.5-1.1c0.3-0.2,0.7-0.3,1.1-0.3s0.8,0.1,1.1,0.3s0.5,0.6,0.5,1.1v7.3h3.8v-7.4c0-0.5,0.2-0.9,0.5-1.1
			C983.3,32.1,983.7,32,984.1,32z"/>
		<path d="M999.6,33.4c0.5,0,0.9,0.1,1.3,0.4c0.4,0.2,0.6,0.6,0.6,1.2v3.9c0,1.2,0.2,2.2,0.5,3.1c0.4,0.9,1,1.7,1.8,2.5
			c0.8,0.7,1.6,1.4,2.3,2s1.4,1.1,2,1.6c0.4,0.3,0.6,0.7,0.6,1.1c0,0.4-0.1,0.8-0.4,1.2c-0.2,0.3-0.6,0.6-1,0.7
			c-0.4,0.1-0.8,0-1.2-0.3c-0.6-0.4-1.2-0.9-1.8-1.5s-1.4-1.2-2.2-1.9c-0.9-0.8-1.5-1.4-1.8-1.8c-0.3-0.4-0.5-0.9-0.7-1.2l0,0
			c0,0.2-0.1,0.4-0.2,0.6s-0.2,0.5-0.4,0.7c-0.2,0.3-0.4,0.5-0.7,0.9c-0.3,0.3-0.7,0.7-1.2,1.1c-0.8,0.7-1.5,1.3-2.3,1.9
			s-1.5,1.2-2.3,1.8c-0.4,0.3-0.8,0.4-1.2,0.3s-0.8-0.4-1-0.7s-0.4-0.7-0.4-1.2c0-0.4,0.2-0.8,0.6-1.2c0.8-0.6,1.6-1.2,2.4-1.9
			c0.8-0.6,1.6-1.3,2.4-2.1c0.9-0.8,1.5-1.6,1.8-2.5c0.4-0.9,0.5-1.9,0.5-3.1v-4c0-0.5,0.2-0.9,0.5-1.2
			C998.7,33.5,999.1,33.4,999.6,33.4z M997.4,53.7c0.5,0,0.9,0.1,1.2,0.4c0.4,0.2,0.6,0.6,0.6,1.2v6.2c0,0.3,0.1,0.5,0.2,0.6
			s0.3,0.2,0.6,0.2h16.3c0.5,0,0.8,0.2,1,0.5s0.3,0.7,0.3,1.1c0,0.4-0.1,0.8-0.3,1.1c-0.2,0.3-0.5,0.5-1,0.5h-18
			c-1.1,0-1.8-0.2-2.2-0.6s-0.6-1.1-0.6-2.2v-7.4c0-0.5,0.2-0.9,0.6-1.2S996.9,53.7,997.4,53.7z M1014.9,32c0.5,0,0.9,0.1,1.2,0.4
			c0.4,0.2,0.5,0.6,0.5,1.2v21.7c0,0.5-0.2,0.9-0.5,1.2c-0.4,0.2-0.8,0.4-1.2,0.4c-0.5,0-0.9-0.1-1.3-0.4c-0.4-0.2-0.5-0.6-0.5-1.2
			V42.6h-5.5c-0.5,0-0.8-0.2-1-0.5s-0.3-0.7-0.3-1.1c0-0.4,0.1-0.8,0.3-1.1s0.5-0.5,1-0.5h5.5v-5.9c0-0.5,0.2-0.9,0.5-1.2
			C1014,32.1,1014.4,32,1014.9,32z"/>
		<path d="M1051,49.8c0.2,0.3,0.3,0.7,0.3,1.1s-0.1,0.8-0.3,1.1c-0.2,0.3-0.5,0.5-1,0.5h-27.7c-0.4,0-0.8-0.2-1-0.5
			s-0.3-0.7-0.3-1.1s0.1-0.8,0.3-1.1s0.5-0.5,1-0.5h27.7C1050.5,49.4,1050.8,49.5,1051,49.8z M1026.9,55.1c0.5,0,0.9,0.1,1.3,0.4
			c0.4,0.2,0.5,0.6,0.5,1.2v5c0,0.5,0.3,0.8,0.8,0.8h17c0.4,0,0.8,0.2,1,0.5s0.3,0.7,0.3,1.1c0,0.4-0.1,0.8-0.3,1.1
			c-0.2,0.3-0.5,0.5-1,0.5h-18.6c-1.1,0-1.8-0.2-2.2-0.6c-0.4-0.4-0.6-1.1-0.6-2.2v-6.1c0-0.5,0.2-0.9,0.5-1.2
			C1026,55.2,1026.5,55.1,1026.9,55.1z M1036.2,32.8c3.5,0,6.2,0.6,8.1,1.7c1.9,1.1,2.9,2.8,2.9,5c0,2.3-1,3.9-2.9,5
			s-4.6,1.7-8.1,1.7s-6.2-0.6-8.1-1.7c-1.9-1.1-2.9-2.8-2.9-5c0-2.3,1-3.9,2.9-5S1032.7,32.8,1036.2,32.8z M1036.2,35.8
			c-2.6,0-4.5,0.3-5.6,1c-1.2,0.6-1.7,1.5-1.7,2.7s0.6,2.1,1.7,2.7c1.2,0.6,3,1,5.6,1s4.5-0.3,5.6-1c1.2-0.6,1.7-1.5,1.7-2.7
			s-0.6-2.1-1.7-2.7C1040.6,36.2,1038.8,35.8,1036.2,35.8z"/>
		<path d="M881.8,76.9c1.1,0,1.8,0.2,2.2,0.6s0.6,1.1,0.6,2.2v9.5c0,1.1-0.2,1.8-0.6,2.2c-0.4,0.4-1.1,0.6-2.2,0.6h-9.5
			c-1.1,0-1.8-0.2-2.2-0.6s-0.6-1.1-0.6-2.2v-9.5c0-1.1,0.2-1.8,0.6-2.2c0.4-0.4,1.1-0.6,2.2-0.6H881.8z M884.6,93.5
			c0.5,0,0.9,0.1,1.3,0.4s0.5,0.6,0.5,1.2v2.1h8.5c0.4,0,0.7,0.1,0.9,0.4s0.3,0.6,0.3,1s-0.1,0.7-0.3,1s-0.5,0.4-0.9,0.4h-8.5v0.4
			c0,0.7,0.2,1.3,0.7,1.9c0.5,0.5,1.3,1.1,2.5,1.5c1.1,0.4,2.1,0.8,3.1,1.1c1,0.3,1.9,0.7,2.9,1c0.4,0.1,0.7,0.4,0.8,0.7
			c0.1,0.3,0.1,0.7,0,1.1s-0.4,0.7-0.6,0.9c-0.3,0.2-0.6,0.2-1.1,0.1c-1-0.3-2-0.7-2.9-1s-1.9-0.7-2.8-1c-1.4-0.6-2.4-1.1-3.1-1.6
			c-0.7-0.5-1.1-1-1.2-1.5l0,0c-0.1,0.5-0.6,1-1.2,1.5c-0.7,0.5-1.7,1.1-3.1,1.7c-0.9,0.3-1.8,0.7-2.8,1c-0.9,0.3-1.9,0.7-2.9,1
			c-0.4,0.1-0.8,0.1-1.1-0.1s-0.5-0.5-0.6-0.9s-0.2-0.8,0-1.1c0.1-0.3,0.4-0.6,0.8-0.7c1.9-0.6,3.9-1.3,5.9-2.1c1.2-0.5,2-1,2.5-1.5
			s0.8-1.2,0.8-1.9V100h-8.6c-0.4,0-0.7-0.1-0.9-0.4s-0.3-0.6-0.3-1s0.1-0.7,0.3-1s0.5-0.4,0.9-0.4h8.6V95c0-0.5,0.2-0.9,0.5-1.2
			C883.7,93.6,884.1,93.5,884.6,93.5z M873.8,80c-0.5,0-0.8,0.3-0.8,0.8v7.3c0,0.5,0.3,0.7,0.8,0.7h6.5c0.5,0,0.8-0.2,0.8-0.7v-7.3
			c0-0.5-0.3-0.8-0.8-0.8H873.8z M893.4,75.2c0.5,0,0.9,0.1,1.2,0.4c0.4,0.2,0.5,0.6,0.5,1.2v16.1c0,0.5-0.2,0.9-0.5,1.2
			s-0.8,0.4-1.2,0.4c-0.5,0-0.9-0.1-1.2-0.4c-0.4-0.2-0.6-0.6-0.6-1.2v-3.6h-4.2c-0.4,0-0.7-0.2-0.9-0.5s-0.3-0.7-0.3-1.1
			s0.1-0.8,0.3-1.1c0.2-0.3,0.5-0.5,0.9-0.5h4.2v-3h-4.2c-0.4,0-0.7-0.2-0.9-0.5s-0.3-0.7-0.3-1.1s0.1-0.8,0.3-1.1
			c0.2-0.3,0.5-0.5,0.9-0.5h4.2v-3.2c0-0.5,0.2-0.9,0.6-1.2C892.6,75.3,893,75.2,893.4,75.2z"/>
		<path d="M913.9,76.5c0.4,0,0.8,0.1,1.2,0.4c0.3,0.2,0.5,0.6,0.5,1.1v3.2c0,1.3,0.1,2.3,0.2,3.1c0.1,0.8,0.4,1.5,0.7,2.1
			c0.2,0.4,0.5,0.8,0.6,1.2c0.2,0.3,0.4,0.7,0.7,1.1c0.2,0.3,0.4,0.5,0.6,0.5s0.4-0.2,0.6-0.5c0.3-0.4,0.5-0.7,0.7-1.1
			c0.2-0.3,0.4-0.7,0.6-1.2c0.3-0.7,0.6-1.4,0.7-2.1s0.2-1.8,0.2-3.1V78c0-0.5,0.2-0.9,0.5-1.1s0.7-0.4,1.2-0.4
			c0.4,0,0.8,0.1,1.2,0.4c0.3,0.2,0.5,0.6,0.5,1.1v3.2c0,1.4,0.1,2.6,0.4,3.5c0.3,0.9,0.7,1.8,1.4,2.7c0.4,0.5,0.8,1,1.2,1.5
			s0.9,1,1.4,1.5c0.3,0.4,0.5,0.8,0.4,1.2s-0.2,0.8-0.5,1.1c-0.3,0.3-0.6,0.4-1,0.5s-0.8-0.1-1.2-0.5s-0.8-0.8-1.2-1.3
			c-0.4-0.4-0.8-0.9-1.2-1.4c-0.8-1.1-1.3-2-1.5-2.7l0,0c0,0.3-0.2,0.8-0.4,1.2s-0.5,1-0.9,1.6c-0.6,1-1.3,1.8-2,2.6
			c-0.8,0.9-1.6,0.9-2.4,0c-0.6-0.8-1.3-1.6-2-2.6c-0.4-0.6-0.7-1.1-0.9-1.6s-0.4-0.9-0.4-1.2l0,0c0,0.3-0.2,0.8-0.4,1.2
			c-0.2,0.5-0.6,1-1,1.6c-0.4,0.5-0.8,1-1.2,1.4s-0.8,0.9-1.3,1.4c-0.4,0.4-0.8,0.5-1.2,0.4s-0.8-0.3-1-0.5
			c-0.3-0.3-0.4-0.7-0.5-1.1s0.1-0.8,0.4-1.1c0.6-0.6,1-1.1,1.5-1.6c0.4-0.5,0.9-1,1.3-1.5c0.3-0.4,0.6-0.8,0.8-1.3
			c0.2-0.4,0.4-0.9,0.6-1.4c0.1-0.5,0.2-1,0.3-1.6s0.1-1.2,0.1-1.9v-3.2c0-0.5,0.2-0.9,0.5-1.1C913.1,76.6,913.5,76.5,913.9,76.5z
			 M923.6,95.6c3.4,0,6,0.6,7.9,1.7c1.9,1.2,2.8,2.9,2.8,5.2c0,2.3-0.9,4-2.8,5.2c-1.9,1.2-4.5,1.7-7.9,1.7s-6-0.6-7.9-1.7
			c-1.9-1.2-2.8-2.9-2.8-5.2c0-2.3,0.9-4,2.8-5.2C917.6,96.2,920.2,95.6,923.6,95.6z M923.6,98.6c-2.5,0-4.3,0.4-5.5,1.1
			s-1.7,1.7-1.7,2.9c0,1.2,0.6,2.2,1.7,2.9s3,1.1,5.5,1.1s4.3-0.4,5.4-1.1c1.2-0.7,1.7-1.7,1.7-2.9c0-1.2-0.6-2.2-1.7-2.9
			C927.9,99,926.1,98.6,923.6,98.6z M932.5,75.2c0.5,0,0.9,0.1,1.2,0.4c0.3,0.2,0.5,0.6,0.5,1.1v6.6h3c0.5,0,0.8,0.2,1,0.5
			s0.3,0.7,0.3,1.1s-0.1,0.8-0.3,1.1c-0.2,0.3-0.5,0.5-1,0.5h-3v7.2c0,0.5-0.2,0.9-0.5,1.1s-0.8,0.4-1.2,0.4s-0.8-0.1-1.2-0.4
			c-0.3-0.2-0.5-0.6-0.5-1.1v-17c0-0.5,0.2-0.9,0.5-1.1C931.7,75.3,932.1,75.2,932.5,75.2z"/>
		<path d="M948.9,76.8c1.4,0,2.6,0.2,3.7,0.7c1.1,0.4,1.9,1,2.6,1.8s1.2,1.7,1.6,2.7c0.3,1,0.5,2.2,0.5,3.4c0,1.2-0.2,2.4-0.5,3.4
			s-0.9,1.9-1.6,2.7s-1.6,1.4-2.6,1.8c-1.1,0.4-2.3,0.7-3.7,0.7s-2.6-0.2-3.7-0.7s-1.9-1-2.6-1.8c-0.7-0.8-1.2-1.7-1.6-2.7
			c-0.3-1-0.5-2.2-0.5-3.4c0-1.2,0.2-2.3,0.5-3.4c0.3-1,0.9-1.9,1.6-2.7c0.7-0.8,1.6-1.4,2.6-1.8S947.4,76.8,948.9,76.8z M948.9,80
			c-0.9,0-1.6,0.1-2.3,0.4c-0.6,0.3-1.1,0.7-1.5,1.2s-0.7,1.1-0.9,1.7s-0.3,1.3-0.3,2.1c0,0.7,0.1,1.4,0.3,2.1s0.5,1.2,0.9,1.7
			s0.9,0.9,1.5,1.2s1.4,0.4,2.3,0.4c0.9,0,1.6-0.1,2.3-0.4s1.1-0.7,1.5-1.2s0.7-1.1,0.9-1.7c0.2-0.7,0.3-1.4,0.3-2.1
			s-0.1-1.4-0.3-2.1c-0.2-0.6-0.5-1.2-0.9-1.7s-0.9-0.9-1.5-1.2C950.5,80.1,949.8,80,948.9,80z M947.2,96.9c0.5,0,0.9,0.1,1.2,0.4
			s0.6,0.6,0.6,1.2v6.2c0,0.3,0.1,0.5,0.2,0.6c0.1,0.1,0.3,0.2,0.6,0.2H966c0.5,0,0.8,0.2,1,0.5s0.3,0.7,0.3,1.1s-0.1,0.8-0.3,1.1
			c-0.2,0.3-0.5,0.5-1,0.5h-17.8c-1.1,0-1.8-0.2-2.2-0.6s-0.6-1.1-0.6-2.2v-7.4c0-0.5,0.2-0.9,0.6-1.2
			C946.3,97,946.7,96.9,947.2,96.9z M964.6,75.2c0.5,0,0.9,0.1,1.3,0.4c0.4,0.2,0.5,0.6,0.5,1.2v21.7c0,0.5-0.2,0.9-0.5,1.2
			c-0.4,0.2-0.8,0.4-1.3,0.4s-0.9-0.1-1.3-0.4c-0.4-0.2-0.5-0.6-0.5-1.2V76.7c0-0.5,0.2-0.9,0.5-1.2
			C963.7,75.3,964.1,75.2,964.6,75.2z"/>
		<path d="M984.3,77.7c1.1,0,1.8,0.2,2.2,0.6s0.6,1.1,0.6,2.2v4.1c0,1-0.1,2-0.2,2.8s-0.3,1.6-0.7,2.3c-0.3,0.7-0.8,1.5-1.4,2.1
			s-1.4,1.4-2.3,2.2s-2.1,1.6-3.4,2.5c-1.3,0.9-2.9,1.9-4.8,3.1c-0.4,0.2-0.8,0.3-1.2,0.1c-0.4-0.2-0.7-0.4-1-0.8
			c-0.2-0.3-0.4-0.7-0.3-1.2c0-0.5,0.2-0.8,0.6-1.1c1.7-1.1,3.1-2,4.3-2.8s2.2-1.5,3-2.2c0.8-0.6,1.5-1.2,2-1.8
			c0.5-0.6,0.9-1.1,1.1-1.7s0.4-1.1,0.5-1.8c0.1-0.6,0.1-1.3,0.1-2.1v-2.8c0-0.3-0.1-0.5-0.2-0.6s-0.3-0.2-0.6-0.2h-9.3
			c-0.5,0-0.8-0.2-1-0.5S972,79.4,972,79s0.1-0.8,0.3-1.1c0.2-0.3,0.5-0.5,1-0.5h11V77.7z M994.7,75.2c0.5,0,0.9,0.1,1.3,0.4
			c0.4,0.2,0.5,0.6,0.5,1.2v9.6h4c0.5,0,0.8,0.2,1,0.5s0.3,0.7,0.3,1.1s-0.1,0.8-0.3,1.1c-0.2,0.3-0.5,0.5-1,0.5h-4v15.9
			c0,0.5-0.2,0.9-0.5,1.2c-0.4,0.2-0.8,0.4-1.3,0.4s-0.9-0.1-1.3-0.4c-0.4-0.2-0.5-0.6-0.5-1.2V76.7c0-0.5,0.2-0.9,0.5-1.2
			C993.8,75.3,994.2,75.2,994.7,75.2z"/>
		<path d="M1012.2,94.7c0.5,0,0.9,0.1,1.3,0.4c0.4,0.2,0.5,0.6,0.5,1.1v4.4h7.5v-4.4c0-0.5,0.2-0.9,0.5-1.1c0.4-0.2,0.8-0.4,1.3-0.4
			s0.9,0.1,1.3,0.4c0.4,0.2,0.5,0.6,0.5,1.1v4.4h6.5c0.4,0,0.8,0.1,1,0.4s0.3,0.6,0.3,1.1c0,0.4-0.1,0.8-0.3,1.1
			c-0.2,0.3-0.5,0.5-1,0.5h-27.7c-0.4,0-0.8-0.2-1-0.5s-0.3-0.7-0.3-1.1s0.1-0.8,0.3-1.1c0.2-0.3,0.5-0.4,1-0.4h6.5v-4.4
			c0-0.5,0.2-0.9,0.5-1.1C1011.3,94.8,1011.7,94.7,1012.2,94.7z M1017.8,76.5c1.7,0,3.3,0.2,4.7,0.6s2.5,1,3.5,1.7
			c0.9,0.7,1.7,1.7,2.2,2.8s0.8,2.3,0.8,3.7c0,2.8-1,4.9-2.9,6.4c-2,1.5-4.7,2.3-8.2,2.3s-6.2-0.8-8.1-2.3s-2.9-3.7-2.9-6.4
			c0-1.4,0.3-2.6,0.8-3.7s1.2-2,2.2-2.8c0.9-0.7,2.1-1.3,3.5-1.7C1014.5,76.7,1016,76.5,1017.8,76.5z M1017.8,79.6
			c-1.3,0-2.4,0.1-3.3,0.4c-0.9,0.3-1.7,0.7-2.3,1.2s-1.1,1.1-1.3,1.8c-0.3,0.7-0.4,1.4-0.4,2.2s0.1,1.6,0.4,2.2s0.7,1.3,1.3,1.8
			s1.4,0.9,2.3,1.2c0.9,0.3,2.1,0.4,3.3,0.4s2.4-0.1,3.3-0.4c0.9-0.3,1.7-0.7,2.3-1.2s1.1-1.1,1.4-1.8s0.4-1.4,0.4-2.2
			s-0.1-1.6-0.4-2.2c-0.3-0.7-0.7-1.3-1.4-1.8c-0.6-0.5-1.4-0.9-2.3-1.2C1020.2,79.7,1019.1,79.6,1017.8,79.6z"/>
		<path d="M1042.6,77.1c1.2,0,2.4,0.2,3.3,0.5c1,0.3,1.8,0.8,2.5,1.4s1.2,1.3,1.6,2.1c0.4,0.8,0.6,1.7,0.6,2.7v0.4
			c0,0.6-0.1,1.2-0.2,1.7s-0.4,1.1-0.7,1.6c-0.3,0.5-0.7,1.1-1.3,1.6c-0.5,0.6-1.1,1.2-1.9,1.8c-0.6,0.6-1.1,1.1-1.5,1.5
			s-0.7,0.8-0.9,1.2c-0.2,0.4-0.3,0.7-0.4,1s-0.1,0.7-0.1,1.1c0,0.5-0.2,0.8-0.5,1.1c-0.3,0.2-0.7,0.4-1.2,0.4s-0.9-0.1-1.2-0.3
			s-0.5-0.6-0.5-1.2s0-1.2,0.1-1.7s0.2-1,0.5-1.5c0.2-0.5,0.6-1,1-1.5s1-1.1,1.7-1.7s1.3-1.2,1.7-1.6c0.4-0.5,0.8-0.9,1-1.3
			s0.4-0.8,0.5-1.1c0.1-0.3,0.1-0.7,0.1-1.1V84c0-1-0.4-1.9-1.1-2.6s-1.9-1-3.4-1c-1.1,0-2,0.2-2.8,0.5c-0.8,0.4-1.5,0.8-2.2,1.4
			c-0.4,0.3-0.7,0.4-1.1,0.3s-0.7-0.3-1-0.7c-0.3-0.3-0.4-0.7-0.4-1.2s0.2-0.8,0.6-1.1c0.8-0.7,1.8-1.3,3-1.8
			S1041.1,77.1,1042.6,77.1z M1042,100.3c0.7,0,1.3,0.2,1.7,0.7s0.7,1,0.7,1.7s-0.2,1.3-0.7,1.7c-0.4,0.5-1,0.7-1.7,0.7
			s-1.2-0.2-1.7-0.7c-0.4-0.5-0.7-1-0.7-1.7s0.2-1.3,0.7-1.7S1041.3,100.3,1042,100.3z"/>
	</g>
</g>
<g>
	<g>
		<path style="fill:#FEDD6B;" d="M821.3,236.3c6.3,1.2,12.5-2.8,13.7-9.2c1.2-6.3-2.8-12.5-9.2-13.7c-6.3-1.2-12.5,2.8-13.7,9.2
			C810.9,228.9,814.9,235,821.3,236.3"/>
		<path style="fill:none;stroke:#000000;stroke-width:1.5;stroke-linecap:round;stroke-linejoin:round;" d="M821.3,236.3
			c6.3,1.2,12.5-2.8,13.7-9.2c1.2-6.3-2.8-12.5-9.2-13.7c-6.3-1.2-12.5,2.8-13.7,9.2C810.9,228.9,814.9,235,821.3,236.3z"/>
		<path style="fill:#FEDD6B;" d="M779.8,230.3c6.3,1.2,12.5-2.8,13.7-9.2c1.2-6.3-2.8-12.5-9.2-13.7c-6.3-1.2-12.5,2.8-13.7,9.2
			C769.4,222.9,773.5,229,779.8,230.3"/>
		<path style="fill:none;stroke:#000000;stroke-width:1.5;stroke-linecap:round;stroke-linejoin:round;" d="M779.8,230.3
			c6.3,1.2,12.5-2.8,13.7-9.2c1.2-6.3-2.8-12.5-9.2-13.7c-6.3-1.2-12.5,2.8-13.7,9.2C769.4,222.9,773.5,229,779.8,230.3z"/>
		<path style="fill:#FFFFFF;" d="M798.4,309.1c0,0,2.8,4.6-0.4,5.6c-3.2,1.2-4-2-3.6-4.8L798.4,309.1z"/>
		<path style="fill:none;stroke:#000000;stroke-width:1.5;stroke-linecap:round;stroke-linejoin:round;stroke-miterlimit:10;" d="
			M798.4,309.1c0,0,2.8,4.6-0.4,5.6c-3.2,1.2-4-2-3.6-4.8L798.4,309.1z"/>
		<path style="fill:#FFFFFF;" d="M800,299.3c0,0,0.5,5.6,0,11.1c0,0-3.5,1.1-6.2,0.8c0,0-3.2-7.1-3.2-14L800,299.3z"/>
		<path style="fill:none;stroke:#000000;stroke-width:1.5;stroke-linecap:round;stroke-linejoin:round;stroke-miterlimit:10;" d="
			M800,299.3c0,0,0.5,5.6,0,11.1c0,0-3.5,1.1-6.2,0.8c0,0-3.2-7.1-3.2-14L800,299.3z"/>
		<path style="fill:#FFFFFF;" d="M778.3,304.7c0,0-4.3,3.1-1.8,5.4c2.5,2.3,4.5-0.4,5.1-3L778.3,304.7z"/>
		<path style="fill:none;stroke:#000000;stroke-width:1.5;stroke-linecap:round;stroke-linejoin:round;stroke-miterlimit:10;" d="
			M778.3,304.7c0,0-4.3,3.1-1.8,5.4c2.5,2.3,4.5-0.4,5.1-3L778.3,304.7z"/>
		<path style="fill:#FFFFFF;" d="M780.4,295.5c0,0-2.6,4.9-4.2,10.2c0,0,2.8,2.3,5.4,3.1c0,0,5.6-5.3,8.2-11.7L780.4,295.5z"/>
		<path style="fill:none;stroke:#000000;stroke-width:1.5;stroke-linecap:round;stroke-linejoin:round;stroke-miterlimit:10;" d="
			M780.4,295.5c0,0-2.6,4.9-4.2,10.2c0,0,2.8,2.3,5.4,3.1c0,0,5.6-5.3,8.2-11.7L780.4,295.5z"/>
		<path style="fill:#FFFFFF;" d="M781.1,283.1l-5.8,15.5c0,0,3,4.2,13.6,6.3c10.6,2.1,15-0.7,15-0.7l0.4-16.6"/>
		<path style="fill:none;stroke:#000000;stroke-width:1.5;stroke-linecap:round;stroke-linejoin:round;stroke-miterlimit:10;" d="
			M781.1,283.1l-5.8,15.5c0,0,3,4.2,13.6,6.3c10.6,2.1,15-0.7,15-0.7l0.4-16.6"/>
		<path style="fill:#E60012;" d="M781.2,280.5c-0.8,4.1,3.8,8.6,10.4,9.9c6.6,1.3,12.6-1,13.4-5.2c0.8-4.1-3.8-8.6-10.4-9.9
			C788,274,782,276.3,781.2,280.5"/>
		<path style="fill:none;stroke:#000000;stroke-width:1.5;stroke-linecap:round;stroke-linejoin:round;stroke-miterlimit:10;" d="
			M781.2,280.5c-0.8,4.1,3.8,8.6,10.4,9.9c6.6,1.3,12.6-1,13.4-5.2c0.8-4.1-3.8-8.6-10.4-9.9C788,274,782,276.3,781.2,280.5z"/>
		<path style="fill:#FFFFFF;" d="M821.5,251.4c0,0-2.4-16.5-11.1-16.5c-8.7,0-12,13-12,13s-3.6-13-12.2-13
			c-8.7,0-10.9,16.4-10.9,16.4s-19.9,29.3,22.9,29.5C841,280.8,821.5,251.4,821.5,251.4"/>
		<path style="fill:none;stroke:#000000;stroke-width:1.5;stroke-linecap:round;stroke-linejoin:round;stroke-miterlimit:10;" d="
			M821.5,251.4c0,0-2.4-16.5-11.1-16.5c-8.7,0-12,13-12,13s-3.6-13-12.2-13c-8.7,0-10.9,16.4-10.9,16.4s-19.9,29.3,22.9,29.5
			C841,280.8,821.5,251.4,821.5,251.4z"/>
	</g>
	<path style="fill:none;stroke:#DCDDDD;stroke-width:1.5;stroke-linecap:round;stroke-linejoin:round;stroke-miterlimit:10;" d="
		M810.1,244.3l-0.5,3.2 M787.2,244.5l0.3,3.2"/>
	<g>
		<path d="M804.1,262.2c0.3,1.1,1.3,1.8,2.5,1.5c1.1-0.3,1.8-1.3,1.5-2.5c-0.3-1.1-1.3-1.8-2.5-1.5
			C804.5,260.2,803.8,261.2,804.1,262.2"/>
		<path d="M788.1,261.9c0.2,1,1.2,1.6,2.3,1.3c1-0.2,1.6-1.2,1.3-2.3c-0.2-1-1.2-1.6-2.3-1.3C788.5,259.8,787.9,261,788.1,261.9"/>
	</g>
	
		<line style="fill:none;stroke:#000000;stroke-width:1.5;stroke-linecap:round;stroke-linejoin:round;stroke-miterlimit:10;" x1="826.2" y1="264.4" x2="830.3" y2="263.2"/>
	
		<line style="fill:none;stroke:#000000;stroke-width:1.5;stroke-linecap:round;stroke-linejoin:round;stroke-miterlimit:10;" x1="825.7" y1="268.9" x2="830" y2="270.1"/>
	
		<line style="fill:none;stroke:#000000;stroke-width:1.5;stroke-linecap:round;stroke-linejoin:round;stroke-miterlimit:10;" x1="770.5" y1="263.6" x2="766.3" y2="262.2"/>
	
		<line style="fill:none;stroke:#000000;stroke-width:1.5;stroke-linecap:round;stroke-linejoin:round;stroke-miterlimit:10;" x1="770.9" y1="268.1" x2="766.5" y2="269.1"/>
	<g>
		<path d="M795.6,266c0.1,1,1.3,1.9,2.8,1.7c1.4-0.1,2.6-1.1,2.5-2.1c-0.1-1-1.3-1.9-2.8-1.7C796.7,264,795.5,264.9,795.6,266"/>
		<path style="fill:#E6002F;" d="M794.3,270l4-3l4,3.3c0,0-1.2,2.6-4,2.5C795,272.8,794.3,270,794.3,270"/>
		<path style="fill:none;stroke:#000000;stroke-width:1.5;stroke-linecap:round;stroke-linejoin:round;stroke-miterlimit:10;" d="
			M794.3,270l4-3l4,3.3c0,0-1.2,2.6-4,2.5C795,272.8,794.3,270,794.3,270z"/>
		<path style="fill:#FFFFFF;" d="M793.2,283.4c17.9,3.2,34.5-6.2,37.2-21c2.6-14.8-9.8-29.3-27.7-32.5c-17.9-3.2-34.5,6.2-37.2,21
			C762.9,265.8,775.3,280.2,793.2,283.4 M804.5,220c22.6,4,38.4,22.4,35,41.1c-3.3,18.6-24.3,30.5-47,26.5
			c-22.6-4-38.4-22.4-35-41.1C760.8,227.9,781.9,216,804.5,220"/>
		<path style="fill:none;stroke:#000000;stroke-width:1.5;stroke-linecap:round;stroke-linejoin:round;stroke-miterlimit:10;" d="
			M793.2,283.4c17.9,3.2,34.5-6.2,37.2-21c2.6-14.8-9.8-29.3-27.7-32.5c-17.9-3.2-34.5,6.2-37.2,21
			C762.9,265.8,775.3,280.2,793.2,283.4z M804.5,220c22.6,4,38.4,22.4,35,41.1c-3.3,18.6-24.3,30.5-47,26.5
			c-22.6-4-38.4-22.4-35-41.1C760.8,227.9,781.9,216,804.5,220z"/>
		<path style="fill:#B5B6B6;" d="M793.8,280c15.6,2.8,30.1-5.4,32.4-18.2c2.3-12.8-8.6-25.5-24.1-28.3c-15.6-2.8-30.1,5.4-32.4,18.2
			C767.4,264.6,778.3,277.2,793.8,280 M802.7,230c17.9,3.2,30.4,17.7,27.7,32.5s-19.2,24.2-37.2,21c-17.9-3.2-30.4-17.7-27.7-32.5
			C768.1,236.2,784.8,226.9,802.7,230"/>
		<path style="fill:none;stroke:#000000;stroke-width:1.5;stroke-linecap:round;stroke-linejoin:round;stroke-miterlimit:10;" d="
			M793.8,280c15.6,2.8,30.1-5.4,32.4-18.2c2.3-12.8-8.6-25.5-24.1-28.3c-15.6-2.8-30.1,5.4-32.4,18.2
			C767.4,264.6,778.3,277.2,793.8,280z M802.7,230c17.9,3.2,30.4,17.7,27.7,32.5s-19.2,24.2-37.2,21c-17.9-3.2-30.4-17.7-27.7-32.5
			C768.1,236.2,784.8,226.9,802.7,230z"/>
		<path style="fill:#FFFFFF;" d="M784.3,295.1c-0.3,1.5,0.7,3,2.2,3.2l7,1.3c1.5,0.3,3-0.7,3.2-2.2c0.3-1.5-0.7-3-2.2-3.2l-7-1.3
			C786,292.6,784.6,293.6,784.3,295.1"/>
		<path style="fill:none;stroke:#000000;stroke-width:1.5;stroke-linecap:round;stroke-linejoin:round;stroke-miterlimit:10;" d="
			M784.3,295.1c-0.3,1.5,0.7,3,2.2,3.2l7,1.3c1.5,0.3,3-0.7,3.2-2.2c0.3-1.5-0.7-3-2.2-3.2l-7-1.3
			C786,292.6,784.6,293.6,784.3,295.1z"/>
		<path style="fill:none;stroke:#000000;stroke-width:1.5;stroke-linecap:round;stroke-linejoin:round;stroke-miterlimit:10;" d="
			M760.8,273.8c-0.8,0.7-1.3,1.6-1.4,2.6 M765.4,276c-0.8,0.9-1,2.1-0.7,3.2 M826.4,286.6c0.5,0.9,0.7,1.9,0.3,3 M821.4,287.1
			c0.4,1.1,0.1,2.3-0.7,3.2"/>
		<path style="fill:#FFFFFF;" d="M811.4,287.9c0,0,3.1-4.3,5.4-1.8c2.3,2.5-0.4,4.5-3.1,5.1L811.4,287.9z"/>
		<path style="fill:none;stroke:#000000;stroke-width:1.5;stroke-linecap:round;stroke-linejoin:round;stroke-miterlimit:10;" d="
			M811.4,287.9c0,0,3.1-4.3,5.4-1.8c2.3,2.5-0.4,4.5-3.1,5.1L811.4,287.9z"/>
		<path style="fill:#FFFFFF;" d="M804.1,289.5c0,0,2.5-2.3,8-2.6c0,0,1.3,2.5,1.5,5.1c0,0-2.8,4-9.8,5.2L804.1,289.5z"/>
		<path style="fill:none;stroke:#000000;stroke-width:1.5;stroke-linecap:round;stroke-linejoin:round;stroke-miterlimit:10;" d="
			M804.1,289.5c0,0,2.5-2.3,8-2.6c0,0,1.3,2.5,1.5,5.1c0,0-2.8,4-9.8,5.2L804.1,289.5z"/>
		<path style="fill:#FFFFFF;" d="M774.3,280.4c0,0-1.5-5.1-4.5-3.4c-2.9,1.6-1.1,4.4,1.2,5.9L774.3,280.4z"/>
		<path style="fill:none;stroke:#000000;stroke-width:1.5;stroke-linecap:round;stroke-linejoin:round;stroke-miterlimit:10;" d="
			M774.3,280.4c0,0-1.5-5.1-4.5-3.4c-2.9,1.6-1.1,4.4,1.2,5.9L774.3,280.4z"/>
		<path style="fill:#FFFFFF;" d="M780.4,284.8c0,0-1.5-3-6.4-5.5c0,0-2.1,1.8-3.4,4.2c0,0,1.2,4.8,7,8.5L780.4,284.8z"/>
		<path style="fill:none;stroke:#000000;stroke-width:1.5;stroke-linecap:round;stroke-linejoin:round;stroke-miterlimit:10;" d="
			M780.4,284.8c0,0-1.5-3-6.4-5.5c0,0-2.1,1.8-3.4,4.2c0,0,1.2,4.8,7,8.5L780.4,284.8z"/>
	</g>
</g>
</svg>
