<?xml version="1.0" encoding="utf-8"?>
<!-- Generator: Adobe Illustrator 23.1.0, SVG Export Plug-In . SVG Version: 6.00 Build 0)  -->
<svg version="1.1" id="레이어_1" xmlns="http://www.w3.org/2000/svg" xmlns:xlink="http://www.w3.org/1999/xlink" x="0px"
	 y="0px" width="400px" height="400px" viewBox="0 0 400 400" style="enable-background:new 0 0 400 400;" xml:space="preserve">
<g>
	<g>
		<path style="fill:#231F20;" d="M399,272.5H67c-0.6,0-1.1-0.3-1.4-0.9c-0.3-0.5-0.2-1.2,0.2-1.6L279.7,16.6l2.3,2L70.3,269.5H399
			V272.5z"/>
	</g>
	<g>
		<path style="fill:#231F20;" d="M336,271.5c0,3-2.4,5.4-5.4,5.4c-3,0-5.4-2.4-5.4-5.4c0-3,2.4-5.4,5.4-5.4
			C333.6,266,336,268.5,336,271.5"/>
	</g>
	<g>
		<path style="fill:#231F20;" d="M71.5,271.5c0,3-2.4,5.4-5.4,5.4c-3,0-5.4-2.4-5.4-5.4c0-3,2.4-5.4,5.4-5.4
			C69.1,266,71.5,268.5,71.5,271.5"/>
	</g>
	<g>
		<path style="fill:#231F20;" d="M243.2,68.6c0,3-2.4,5.4-5.4,5.4c-3,0-5.4-2.4-5.4-5.4c0-3,2.4-5.4,5.4-5.4
			C240.8,63.2,243.2,65.6,243.2,68.6"/>
	</g>
	<g>
		<path style="fill:#231F20;" d="M199.8,48.8c-1.5,0-2.8,0.4-3.8,1c-1.1,0.6-3,0.1-5.8-1.5c-0.4-0.3-0.7-0.6-0.8-0.9
			c-0.1-0.4,0.8-0.5,2.8-0.3c1.9,0.3,5.7,0.4,11.6,0.3c5.8-0.1,9.1-0.2,9.9-0.5c0.8-0.2,1.3-0.4,1.5-0.6c0.2-0.1,0.7-0.1,1.4,0.1
			c1.2,0.2,1.6,0.6,1.3,1c-0.4,0.5-0.5,1-0.5,1.7l0,11.7c0,2.5-0.2,4.4-0.5,5.8c-0.3,1.4-0.8,2.1-1.4,2.1c-0.4,0-0.6-0.6-0.7-1.6
			c-0.1-1.1-0.2-2.7-0.2-4.7V48.5L199.8,48.8z"/>
	</g>
	<g>
		<path style="fill:#231F20;" d="M324.4,312.6c-1.2,0-2.3-0.2-3.3-0.6c-1-0.4-1.5-1.4-1.5-2.9v-12.7c0-1.1-0.4-1.8-1.2-2.2
			c-0.8-0.3-1.5-0.5-2-0.7c-0.5-0.1-0.8-0.3-0.9-0.6c-0.1-0.3,0.5-0.5,2-0.7c1.2-0.2,2.1-0.1,2.9,0.2c0.7,0.3,1.4,0.5,2.2,0.5
			c1.2,0.1,3.3,0.2,6.3,0.1c2.9,0,4.5,0,4.8,0c0.9,0,1.6-0.1,2-0.2c0.4-0.2,0.9-0.4,1.4-0.8c0.5-0.3,1.3-0.5,2.4-0.5
			c1.1,0,2,0,2.8,0.2c1.5,0.3,2.1,0.9,1.9,1.6c-0.2,0.8-1,1.1-2.3,1.1h-19.3v14.8c0,0.6,0.2,1,0.6,1.3c0.4,0.2,0.8,0.4,1.2,0.4h11.2
			c0.7,0,1.2-0.1,1.6-0.2c0.4-0.2,0.8-0.4,1.2-0.7c0.4-0.4,1.2-0.6,2.3-0.6c1.1,0,2,0,2.8,0.2c1.5,0.3,2.1,0.8,1.9,1.6
			c-0.2,0.8-0.9,1.2-2.3,1.2H324.4z"/>
	</g>
	<g>
		<path style="fill:#231F20;" d="M23.5,271.6c0-1-0.2-1.7-0.6-2.1c-0.4-0.4-1.2-0.7-2.4-0.9c-0.5-0.1-0.9-0.3-1.2-0.7
			c-0.3-0.4,0.4-0.6,1.9-0.8c0.8,0,1.5,0,2.1,0c0.6,0,1.2,0.1,1.9,0.2c1.2,0.1,1.6,0.5,1.5,0.9c-0.2,0.5-0.3,1.1-0.3,2V285
			c0,0.6,0.2,1,0.6,1.3c0.4,0.2,0.8,0.4,1.2,0.4h11.5c0.8,0,1.4,0,1.8-0.2c0.5-0.1,1-0.4,1.5-0.7c0.4-0.4,1.2-0.6,2.2-0.6
			c1.1,0,2,0,2.7,0.2c1.5,0.3,2.1,0.8,1.9,1.7c-0.2,0.8-0.9,1.2-2.3,1.2H28.2c-1.2,0-2.3-0.2-3.3-0.6c-1-0.4-1.5-1.4-1.5-2.9V271.6z
			"/>
	</g>
	<g>
		<rect x="257.1" y="284.2" style="fill:#EC008C;" width="1.2" height="43.4"/>
	</g>
	<g>
		<path style="fill:#EC008C;" d="M257.7,285.5l-4.5,2.7l-0.1-0.1l2.9-7.4c0.6-2.6,1.1-5.1,1.7-7.7c0.6,2.6,1.1,5.1,1.7,7.7l2.9,7.4
			l-0.1,0.1L257.7,285.5z"/>
	</g>
	<g>
		<rect x="64.8" y="288.7" style="fill:#EC008C;" width="1.1" height="43.4"/>
	</g>
	<g>
		<path style="fill:#EC008C;" d="M65.4,290l-4.5,2.7l-0.1-0.1l2.9-7.4c0.6-2.6,1.1-5.1,1.7-7.7c0.6,2.6,1.1,5.1,1.7,7.7l2.9,7.4
			l-0.1,0.1L65.4,290z"/>
	</g>
	<g>
		
			<rect x="129.1" y="119" transform="matrix(0.6428 -0.7661 0.7661 0.6428 -62.2837 150.0169)" style="fill:#EC008C;" width="1.1" height="45.6"/>
	</g>
	<g>
		<path style="fill:#EC008C;" d="M146.2,155.6l0.8-5.2l0.2,0l3.8,7c1.6,2.1,3.2,4.2,4.8,6.2c-2.3-1.2-4.7-2.4-7-3.6l-7.5-2.5
			l-0.1-0.2L146.2,155.6z"/>
	</g>
	<g>
		<path style="fill:#231F20;" d="M15.5,360.7H12c-2.2,0-3.8-0.1-4.8-0.2c-0.9-0.1-2.1-0.1-3.5-0.2c-1.2,0-2,0.2-2.5,0.4
			c-0.5,0.2-0.1,0.6,1.1,1.1c3.5,1.4,5.7,1.8,6.8,1.4c1.1-0.4,2.2-0.7,3.4-0.7c3.6-0.3,7.3-0.5,10.9-0.6c3.4,0,6.1,0,8.3,0
			c2.2,0,4,0,5.6,0.1c1.2,0,2.3,0,3.4,0c1.1,0,1.6-0.4,1.6-1.1c0.1-1.1-1.2-1.7-3.7-1.7c-2.6,0-4.8,0.2-6.4,0.9
			c-0.3,0.1-1.2,0.2-2.8,0.3c-1.6,0-3.4,0.1-5.4,0.1v-6.3c0-0.7,0.1-1.3,0.3-1.7c0.1-0.4-0.2-0.8-1.1-1c-0.6-0.2-1.2-0.3-1.9-0.4
			c-0.7,0-1.2-0.1-1.6-0.1c-1,0-1.6,0.1-1.8,0.4c-0.2,0.2,0,0.4,0.7,0.6c0.8,0.2,1.4,0.4,1.9,0.7c0.5,0.2,0.8,0.8,0.8,1.6l0,6.3
			H15.5z M19.6,344.9c0.3-0.7,0.5-1.3,0.8-1.8c0.3-0.6-0.1-1-1.3-1.3c-0.6-0.1-1.2-0.2-1.8-0.1c-0.5,0-1.2,0.2-1.8,0.5
			c-0.7,0.3-1.9,0.4-3.5,0.5c-1.6,0-3.1,0-4.5-0.2c-1.8-0.2-2.7-0.1-2.6,0.3c0.1,0.3,0.4,0.6,0.8,0.8c2.4,1.4,4.1,1.8,4.9,1.4
			c0.8-0.4,1.8-0.7,2.8-0.8c0,0,1-0.1,2.9-0.3c-0.1,1.2-0.3,2.3-0.4,3.4c-0.2,1.1-0.5,2.5-0.9,4.3c-0.5,2.1-0.9,3.4-1.2,4
			c-0.2,0.7-0.2,1,0.2,1.2c0.5,0.2,1-0.1,1.5-0.9c0.5-0.8,1.1-2.2,1.8-4.2C18.1,349.8,18.9,347.5,19.6,344.9 M35.9,344.9
			c0.1-0.8,0.4-1.4,0.8-1.9c0.4-0.5,0-0.9-1.3-1.2c-0.7-0.1-1.2-0.2-1.7-0.1c-0.5,0-1.1,0.2-1.7,0.4c-0.7,0.2-1.8,0.4-3.3,0.5
			c-1.5,0.1-3.1,0-4.8-0.2c-1.8-0.2-2.7-0.1-2.5,0.3c0.1,0.4,0.4,0.7,0.8,0.8c2.6,1.4,4.3,1.9,5,1.5c0.7-0.4,1.7-0.7,3.1-0.9
			c0,0,0.9-0.1,2.6-0.3c0,1-0.1,2.1-0.2,3.1c-0.1,1.1-0.4,2.6-0.8,4.6c-0.4,2-0.7,3.4-0.9,4c-0.2,0.7-0.1,1.1,0.3,1.2
			c0.5,0.1,1-0.1,1.4-0.8c0.4-0.7,1-2,1.6-4C34.7,349.6,35.4,347.3,35.9,344.9 M33.5,370.1c0.1-0.7,0.3-1.2,0.6-1.7
			c0.3-0.5-0.1-0.8-1.3-1.1c-0.7-0.1-1.2-0.2-1.7-0.1c-0.4,0.1-1,0.3-1.8,0.5c-0.8,0.2-3.6,0.4-8.7,0.4c-5.1,0.1-8.5,0-10.4-0.3
			c-1.9-0.1-2.7,0-2.6,0.3c0.1,0.3,0.4,0.6,0.8,0.8c2.7,1.4,4.6,2,5.8,1.5c1.1-0.5,2.4-0.7,3.8-0.7c0,0,4.2-0.1,12.6-0.3l0.1,8.7
			c0,1,0,2.2,0.2,3.4c0.1,1.3,0.4,1.9,0.8,1.9c0.5,0,1-0.8,1.3-2.2c0.3-1.5,0.5-3,0.5-4.8V370.1z"/>
	</g>
	<g>
		<path style="fill:#231F20;" d="M64.9,359.3c1.5,1.3,2.7,2.3,3.5,3c1,0.9,1.8,1.3,2.4,1.1c0.6-0.1,0.7-0.8,0.3-1.8
			c-0.1-0.2-0.4-0.8-1.1-1.6c-0.7-0.8-1.3-1.5-2-2c-0.6-0.3-0.9-0.5-1.2-0.4c-0.2,0-0.7-0.1-1.4-0.4c-0.2-0.2-0.7-0.5-1.5-1
			c-0.7-0.5-1.4-1-2.1-1.6c0.9-0.9,1.7-1.9,2.6-3c0.8-1.1,1.7-2.2,2.5-3.5c0.6-0.8,1.1-1.6,1.5-2.2c0.4-0.7,0.2-1.2-0.8-1.5
			c-0.2,0-0.8-0.1-1.7-0.2c-0.9,0-1.6,0-2,0.3c-0.6,0.3-1.7,0.6-3.4,0.7c-1.7,0.1-3.4,0.1-5.1,0.1c-1,0-1.9,0-2.7-0.1
			c-0.8-0.1-1.3-0.1-1.6-0.1c-1.1-0.1-1.7,0-2,0.2c-0.3,0.3,0,0.6,0.8,1c1.8,0.9,3.1,1.3,3.8,1.3c0.7,0,1.4-0.2,2-0.5
			c0.9-0.2,1.6-0.3,2.1-0.4c0.7,0,1.6-0.1,2.8-0.2c1.2-0.1,2.3-0.1,3.5-0.2c-2,4.4-4.8,8.3-8.3,11.7c-3.6,3.3-6.5,5.6-9,6.8
			c-0.5,0.3-0.5,0.5-0.2,0.7c0.4,0.2,1.2,0,2.6-0.7c1.2-0.6,2.8-1.5,4.9-3c2-1.4,4.2-3.3,6.6-5.8C62.1,356.9,63.5,358,64.9,359.3
			 M79.4,344.3c0-1.1,0.1-2,0.4-2.5c0.2-0.6,0-1.1-0.9-1.4c-0.6-0.2-1.4-0.5-2.4-0.7c-1-0.2-1.7-0.4-2-0.4c-1.2-0.1-1.9,0-2,0.3
			c-0.1,0.3,0.2,0.7,0.8,1c1.2,0.5,2.1,1,2.6,1.4c0.5,0.4,0.8,1.2,0.8,2.3l0.2,19.7c0,1,0,2.2,0.2,3.5c0.1,1.4,0.4,2.1,0.8,2
			c0.5,0,0.9-0.8,1.3-2.3c0.4-1.5,0.5-3.2,0.5-5L79.4,344.3z M75,377.6c2.5,2,4.3,3.5,5.3,4.3c1.2,1,2.2,1.3,3,0.9
			c0.8-0.4,0.8-1.2,0.1-2.2c-0.4-0.6-0.9-1.1-1.6-1.7c-0.6-0.6-1.2-1-1.6-1.4c-0.8-0.5-1.3-0.7-1.8-0.7c-0.4,0-1-0.1-1.8-0.7
			c-0.5-0.3-1.6-0.9-3.1-2c-1.6-1.1-2.8-2-3.8-2.7c0.2-0.2,0.3-0.5,0.5-0.7c0.2-0.2,0.3-0.5,0.4-0.7c0.3-0.6,0.6-1,0.8-1.4
			c0.2-0.4,0-0.8-0.8-1.5c-0.6-0.5-1.2-0.9-2-1.4c-0.7-0.5-1.2-0.7-1.7-0.7c-1.4-0.2-2-0.1-2.1,0.1c0,0.2,0.2,0.5,0.7,0.8
			c1,0.6,1.6,1.1,1.7,1.5c0.1,0.4,0.2,0.9,0,1.4c-0.9,2.8-2.7,5.5-5.3,8c-2.6,2.5-5.1,4.3-7.5,5.3c-0.6,0.3-0.8,0.6-0.6,0.8
			c0.3,0.2,1,0.1,2.2-0.3c1.9-0.7,4-1.9,6.3-3.6c2.3-1.7,4.4-3.8,6.3-6.4C70.4,374.1,72.5,375.6,75,377.6"/>
	</g>
	<g>
		<path style="fill:#231F20;" d="M115.9,352.8c-1.8,0.1-3.1,0.1-4.1,0c-1.6-0.2-2.4,0-2.4,0.3c0,0.4,0.3,0.7,0.8,0.8
			c2.1,0.9,3.6,1.3,4.3,1c0.8-0.2,1.2-0.3,1.6-0.4c0.9-0.3,1.6-0.5,2.2-0.6c0.1,0,0.4,0,0.8-0.1c0.4,0,0.8,0,1.1-0.1l0.1,6.3
			c0,1,0.1,2.2,0.2,3.6c0.1,1.4,0.4,2,0.8,2c0.5,0,0.9-0.8,1.3-2.3c0.4-1.5,0.5-3.2,0.5-4.9l-0.2-14c0-1.1,0.1-2,0.3-2.6
			c0.2-0.6,0-1.1-0.9-1.4c-0.6-0.3-1.4-0.5-2.4-0.7c-1-0.2-1.7-0.3-2-0.4c-1.2,0-1.9,0-2,0.4c-0.1,0.3,0.2,0.6,0.8,1
			c1.2,0.5,2.1,1,2.6,1.4c0.5,0.4,0.8,1.2,0.8,2.3l0.1,8.1C119.1,352.6,117.6,352.7,115.9,352.8 M107.9,359.3c1.3,1.4,2.3,2.4,3,3.3
			c0.9,1,1.6,1.4,2.4,1.3c0.7-0.1,0.8-0.7,0.5-1.8c-0.1-0.2-0.4-0.8-0.9-1.7c-0.6-0.9-1.2-1.7-1.8-2.2c-0.5-0.3-0.9-0.5-1.1-0.5
			c-0.3,0-0.7-0.2-1.3-0.6c-0.2-0.1-0.7-0.5-1.3-1.1c-0.7-0.5-1.3-1.1-2-1.6c0.8-0.9,1.6-2,2.4-3c0.8-1.1,1.6-2.2,2.4-3.4
			c0.6-0.8,1.1-1.5,1.5-2.2c0.4-0.7,0.2-1.2-0.8-1.5c-0.2-0.1-0.8-0.1-1.7-0.2c-0.9,0-1.6,0-2,0.3c-0.6,0.3-1.7,0.5-3.3,0.6
			c-1.6,0.1-3.3,0.1-5,0.1c-1,0-1.9,0-2.7-0.1c-0.8,0-1.3-0.1-1.6-0.1c-1.1-0.1-1.7,0-2,0.2c-0.3,0.3,0,0.6,0.8,1
			c1.8,0.9,3.1,1.4,3.8,1.3c0.7,0,1.4-0.2,2-0.5c0.9-0.2,1.6-0.3,2.1-0.3c0.7-0.1,1.6-0.1,2.7-0.2c1.1-0.1,2.2-0.2,3.3-0.2
			c-2,4.5-4.8,8.3-8.2,11.8c-3.5,3.4-6.4,5.7-8.9,7c-0.5,0.2-0.5,0.5-0.2,0.7c0.4,0.2,1.2,0,2.6-0.7c1.2-0.7,2.9-1.7,5-3.2
			c2.1-1.5,4.3-3.5,6.6-6C105.4,356.6,106.6,357.9,107.9,359.3 M103.8,367.2c-0.8-0.2-1.6-0.3-2.7-0.3c-1,0-1.7,0.2-2.1,0.5
			c-0.4,0.3-0.3,0.5,0.2,0.6c0.8,0.2,1.5,0.5,2,0.7c0.5,0.2,0.8,0.7,0.8,1.4l0.9,10.5c0,0.9,0.2,1.6,0.4,2c0.2,0.4,0.4,0.6,0.8,0.6
			s0.6-0.2,0.8-0.5c0.3-0.4,0.4-0.9,0.4-1.6c7.6-0.1,13-0.1,16.1-0.1c0.5,0,1,0,1.4-0.1c0.4,0,0.6-0.3,0.6-0.6
			c0-0.4-0.6-0.7-1.8-0.7l0.9-9.6c0.1-0.7,0.4-1.3,1-1.6c0.5-0.3,0.3-0.7-0.7-1.2c-0.8-0.3-1.4-0.4-2.1-0.3
			c-0.7,0.1-1.3,0.3-1.9,0.5c-0.4,0.1-4.7,0.2-12.9,0.3C105.3,367.5,104.6,367.4,103.8,367.2 M119.5,368.8l-0.1,10.6h-13.9
			l-0.4-10.6L119.5,368.8z"/>
	</g>
	<g>
		<path style="fill:#231F20;" d="M264.9,359.2c-1.7,0.1-3.1,0.1-4.1,0c-0.1,0-0.2,0-0.3,0h-0.3c0-5.5,0.1-8.2,0-8.2
			c1.8,0.6,2.9,0.8,3.6,0.7c0.6-0.1,1-0.3,1.3-0.3c0.8-0.3,1.6-0.5,2.2-0.6c0.1,0,0.3-0.1,0.8-0.1c0.4,0,0.8,0,1.1-0.1
			c0,0,0,1.4,0,4.2v4.3C268,359,266.6,359.1,264.9,359.2 M264.8,349.3c-1.7,0.1-3.1,0.1-4,0c-0.1,0-0.2,0-0.3,0h-0.2v-2.5
			c0-0.8,0-1.3,0.1-1.7c0.1-0.4-0.2-0.8-1-1c-0.7-0.2-1.4-0.4-2-0.6c-0.7-0.1-1.2-0.1-1.6-0.1c-1.2,0-1.7,0.2-1.7,0.5
			c0,0.3,0.2,0.5,0.6,0.6c0.8,0.3,1.6,0.7,2,0.9c0.5,0.3,0.8,0.8,0.8,1.5l0,4.9l-11.6,0.2l0-3.8c0-0.5,0-1,0.1-1.3
			c0.1-0.4-0.3-0.7-1-1c-0.7-0.2-1.3-0.4-2-0.5c-0.6-0.1-1.2-0.2-1.7-0.2c-1.3,0.1-1.9,0.3-1.8,0.5c0,0.2,0.2,0.4,0.5,0.5
			c1,0.3,1.7,0.7,2.3,1.1c0.5,0.4,0.8,0.9,0.8,1.6l0.1,13c0,1.5,0.1,2.5,0.3,3.1c0.2,0.6,0.5,0.9,1,0.9c0.6,0,1.1-0.7,1.5-2.1
			l11.6-0.2c0.2,1.1,0.5,1.6,1.1,1.6c0.6,0,1.1-0.4,1.3-1.3c0.2-0.8,0.3-1.9,0.3-3.2c1.8,0.6,3,0.8,3.6,0.7c0.6-0.1,1-0.2,1.3-0.3
			c0.8-0.3,1.6-0.5,2.2-0.6c0.1,0,0.4,0,0.8,0c0.4,0,0.8,0,1.1-0.1l0,8c0,1,0,2.2,0.2,3.6s0.4,2,0.8,2c0.5,0,1-0.8,1.3-2.3
			c0.3-1.5,0.5-3.2,0.5-5l-0.2-22.2c0-1.1,0.1-2,0.4-2.5c0.2-0.6-0.1-1.1-0.9-1.4c-0.6-0.2-1.4-0.5-2.4-0.7c-1.1-0.2-1.7-0.4-2-0.4
			c-1.2-0.1-1.9,0-2,0.3c-0.1,0.3,0.1,0.7,0.8,1c1.2,0.5,2.1,1,2.6,1.4c0.5,0.4,0.8,1.2,0.8,2.3c0,3.2,0,4.8,0,4.8
			C268,349.1,266.5,349.3,264.8,349.3 M251.7,373.7c0-1-0.2-1.7-0.7-2c-0.4-0.3-1.2-0.6-2.3-0.8c-0.5-0.1-0.8-0.3-1.2-0.7
			c-0.3-0.3,0.4-0.6,1.8-0.7c0.7,0,1.4-0.1,2,0c0.7,0,1.3,0.1,1.9,0.2c1.2,0.2,1.6,0.5,1.5,0.9c-0.2,0.5-0.3,1.1-0.3,1.9v5.8
			c0,0.6,0.2,1,0.6,1.3c0.4,0.2,0.8,0.4,1.2,0.4l9.4-0.1c0.5,0,1.2,0,1.8-0.1c0.6-0.1,1.2-0.3,1.7-0.6c0.4-0.3,1.2-0.5,2.2-0.6
			c1.1,0,2,0,2.7,0.1c1.4,0.3,2,0.8,1.9,1.5c-0.2,0.7-0.9,1.1-2.2,1.1l-17.4,0.2c-1.2,0-2.2-0.2-3.2-0.6c-0.9-0.4-1.4-1.3-1.4-2.8
			V373.7z M245.9,362.1l-0.1-8.5l11.6-0.2l0,8.5L245.9,362.1z"/>
	</g>
	<g>
		<path style="fill:#231F20;" d="M97.5,102.3c-1.7,0.1-3.1,0.1-4.1,0c-0.1,0-0.2,0-0.3,0h-0.3c0-5.5,0.1-8.2,0-8.2
			c1.8,0.6,2.9,0.8,3.6,0.7c0.6-0.1,1-0.3,1.3-0.3c0.8-0.3,1.6-0.5,2.2-0.6c0.1,0,0.3-0.1,0.8-0.1c0.4,0,0.8,0,1.1-0.1
			c0,0,0,1.4,0,4.2v4.3C100.6,102.1,99.2,102.3,97.5,102.3 M97.4,92.5c-1.7,0.1-3.1,0.1-4,0c-0.1,0-0.2,0-0.3,0h-0.2v-2.5
			c0-0.8,0-1.3,0.1-1.7c0.1-0.4-0.2-0.8-1-1c-0.7-0.2-1.4-0.4-2-0.6c-0.7-0.1-1.2-0.1-1.6-0.1c-1.2,0-1.7,0.2-1.7,0.5
			c0,0.3,0.2,0.5,0.6,0.6c0.8,0.3,1.6,0.7,2,0.9c0.5,0.3,0.8,0.8,0.8,1.5l0,4.9l-11.6,0.2l0-3.8c0-0.5,0-1,0.1-1.3
			c0.1-0.4-0.3-0.7-1-1c-0.7-0.2-1.3-0.4-2-0.5c-0.6-0.1-1.2-0.2-1.7-0.2c-1.3,0.1-1.9,0.3-1.8,0.5c0,0.2,0.2,0.4,0.5,0.5
			c1,0.3,1.7,0.7,2.3,1.1c0.5,0.4,0.8,0.9,0.8,1.6l0.1,13c0,1.5,0.1,2.5,0.3,3.1c0.2,0.6,0.5,0.9,1,0.9c0.6,0,1.1-0.7,1.5-2.1
			l11.6-0.2c0.2,1.1,0.5,1.6,1.1,1.6c0.6,0,1.1-0.4,1.3-1.3c0.2-0.8,0.3-1.9,0.3-3.2c1.8,0.6,3,0.8,3.6,0.7c0.6-0.1,1-0.2,1.3-0.3
			c0.8-0.3,1.6-0.5,2.2-0.6c0.1,0,0.4,0,0.8,0c0.4,0,0.8,0,1.1-0.1l0,8c0,1,0,2.2,0.2,3.6c0.1,1.4,0.4,2,0.8,2c0.5,0,1-0.8,1.3-2.3
			c0.3-1.5,0.5-3.2,0.5-5l-0.2-22.2c0-1.1,0.1-2,0.4-2.5c0.2-0.6-0.1-1.1-0.9-1.4c-0.6-0.2-1.4-0.5-2.4-0.7c-1.1-0.2-1.7-0.4-2-0.4
			c-1.2-0.1-1.9,0-2,0.3c-0.1,0.3,0.1,0.7,0.8,1c1.2,0.5,2.1,1,2.6,1.4c0.5,0.4,0.8,1.2,0.8,2.3c0,3.2,0,4.8,0,4.8
			C100.6,92.3,99.1,92.4,97.4,92.5 M84.3,116.8c0-1-0.2-1.7-0.7-2c-0.4-0.3-1.2-0.6-2.3-0.8c-0.5-0.1-0.8-0.3-1.2-0.7
			c-0.3-0.3,0.4-0.6,1.8-0.7c0.7,0,1.4-0.1,2,0c0.7,0,1.3,0.1,1.9,0.2c1.2,0.2,1.6,0.5,1.5,0.9c-0.2,0.5-0.3,1.1-0.3,1.9v5.8
			c0,0.6,0.2,1,0.6,1.3c0.4,0.2,0.8,0.4,1.2,0.4l9.4-0.1c0.5,0,1.2,0,1.8-0.1c0.6-0.1,1.2-0.3,1.7-0.6c0.4-0.3,1.2-0.5,2.2-0.6
			c1.1,0,2,0,2.7,0.1c1.4,0.3,2,0.8,1.9,1.5c-0.2,0.7-0.9,1.1-2.2,1.1l-17.4,0.2c-1.2,0-2.2-0.2-3.2-0.6c-0.9-0.4-1.4-1.3-1.4-2.8
			V116.8z M78.5,105.2l-0.1-8.5l11.6-0.2l0,8.5L78.5,105.2z"/>
	</g>
</g>
<g>
</g>
<g>
</g>
<g>
</g>
<g>
</g>
<g>
</g>
<g>
</g>
<g>
</g>
<g>
</g>
<g>
</g>
<g>
</g>
<g>
</g>
<g>
</g>
<g>
</g>
<g>
</g>
<g>
</g>
</svg>
