
<svg xmlns="http://www.w3.org/2000/svg" version="1.1" xmlns:xlink="http://www.w3.org/1999/xlink" preserveAspectRatio="none" x="0px" y="0px" width="1280px" height="720px" viewBox="0 0 1280 720">
<defs>
<g id="Layer0_0_FILL">
<path fill="#1E1E1E" stroke="none" d="
M 1205.6 566.8
Q 1204.95 566.8 1205 567.3 1205.1 568.1 1205.15 569.5 1205.2 570.9 1205.2 572.45
L 1205.2 588.35
Q 1205.2 588.55 1205.3 588.75 1205.45 588.9 1205.65 588.9
L 1209 588.9
Q 1209.45 588.9 1209.45 588.4
L 1209.45 575.4
Q 1209.45 573 1210.7 571.65 1211.95 570.25 1214.2 570.25 1217.75 570.25 1217.75 574.5
L 1217.75 588.35
Q 1217.75 588.55 1217.9 588.75 1218.05 588.9 1218.25 588.9
L 1221.6 588.9
Q 1222.05 588.9 1222.05 588.4
L 1222.05 576.8
Q 1222.05 575.4 1222.4 574.2 1222.75 573 1223.4 572.15 1224 571.25 1224.95 570.8 1225.9 570.25 1227.1 570.25 1228.8 570.25 1229.65 571.45 1230.55 572.65 1230.55 574.5
L 1230.55 588.35
Q 1230.55 588.55 1230.7 588.75 1230.85 588.9 1231.05 588.9
L 1234.4 588.9
Q 1234.55 588.9 1234.75 588.75 1234.85 588.6 1234.85 588.4
L 1234.85 574
Q 1234.85 570.35 1232.75 568.35 1230.7 566.3 1227.3 566.3 1225.25 566.3 1223.45 567.25 1221.65 568.2 1220.75 570.1 1220 568.25 1218.25 567.25 1216.55 566.3 1214.45 566.3 1212.9 566.3 1211.5 566.95 1210.1 567.6 1209.3 568.5
L 1209.35 567.1
Q 1209.35 566.8 1209 566.8
L 1205.6 566.8
M 1200.65 567.65
Q 1200.7 567.25 1200.65 567.15 1200.55 567.05 1200.4 567 1199.2 566.6 1197.95 566.45 1196.65 566.3 1195.45 566.3 1192.9 566.3 1190.85 567.15 1188.85 568 1187.35 569.55 1185.9 571.05 1185.1 573.2 1184.3 575.3 1184.3 577.85 1184.3 580.25 1184.95 582.3 1185.65 584.35 1186.95 585.9 1188.25 587.4 1190.2 588.35 1192.15 589.25 1194.65 589.45 1195.45 589.45 1196.25 589.45 1197.1 589.45 1197.8 589.35 1198.55 589.25 1199.2 589.15 1199.85 589.05 1200.3 588.85 1200.6 588.8 1200.65 588.65 1200.7 588.5 1200.65 588.2
L 1200.5 585.45
Q 1200.45 585.2 1200.35 585.1 1200.2 584.95 1199.85 585.1 1197.65 585.8 1194.9 585.45 1191.9 585.1 1190.35 583.1 1188.75 581.1 1188.75 577.85 1188.75 574.45 1190.45 572.35 1192.1 570.25 1195.35 570.25 1196.4 570.25 1197.55 570.4 1198.75 570.5 1199.65 570.85 1200 570.9 1200.1 570.8 1200.3 570.65 1200.3 570.4
L 1200.65 567.65 Z"/>

<path fill="#FFFFFF" stroke="none" d="
M 1171.7 588.2
L 1171.7 558.15
Q 1171.7 543.15 1156.7 543.15
L 1086.7 543.15
Q 1071.7 543.15 1071.7 558.15
L 1071.7 588.2
Q 1071.7 591.85 1072.45 594.15 1075.2 603.2 1086.7 603.2
L 1156.7 603.2
Q 1168.4 603.2 1170.95 594.15 1171.7 591.45 1171.7 588.2 Z"/>
</g>

<path id="Layer0_0_1_STROKES" stroke="#BBDECB" stroke-width="5" stroke-linejoin="miter" stroke-linecap="butt" stroke-miterlimit="3" fill="none" d="
M 415.5 238.2
L 767 238.3 866.8 238.3
Q 879.5 239.45 879.5 253.2
L 879.5 262.25 879.5 623.2
Q 879.5 638.2 864.5 638.2
L 801.05 638.2 759.05 638.2 415.5 638.2
Q 400.5 638.2 400.5 623.2
L 400.5 253.2
Q 400.5 238.2 415.5 238.2 Z"/>

<path id="Layer0_0_2_STROKES" stroke="#DBDBDB" stroke-width="3" stroke-linejoin="round" stroke-linecap="round" fill="none" d="
M 1086.7 543.15
L 1156.7 543.15
Q 1171.7 543.15 1171.7 558.15
L 1171.7 588.2
Q 1171.7 591.45 1170.95 594.15 1168.4 603.2 1156.7 603.2
L 1086.7 603.2
Q 1075.2 603.2 1072.45 594.15 1071.7 591.85 1071.7 588.2
L 1071.7 558.15
Q 1071.7 543.15 1086.7 543.15 Z"/>

<path id="Layer0_0_3_STROKES" stroke="#000000" stroke-width="3" stroke-linejoin="miter" stroke-linecap="butt" stroke-miterlimit="3" fill="none" d="
M 515 563.2
L 515 313.2"/>
</defs>

<g transform="matrix( 1, 0, 0, 1, 0,0) ">
<use xlink:href="#Layer0_0_FILL"/>

<use xlink:href="#Layer0_0_1_STROKES"/>

<use xlink:href="#Layer0_0_2_STROKES"/>

<use xlink:href="#Layer0_0_3_STROKES"/>
</g>
</svg>
