
<svg xmlns="http://www.w3.org/2000/svg" version="1.1" xmlns:xlink="http://www.w3.org/1999/xlink" preserveAspectRatio="none" x="0px" y="0px" width="908px" height="449px" viewBox="0 0 908 449">
<defs>
<g id="Layer0_0_FILL">
<path fill="#569ECC" stroke="none" d="
M 450.35 44.5
L 450.35 2.5 50.25 2.5 50.25 44.5
Q 50.25 54.85 57.55 62.15 64.9 69.5 75.25 69.5
L 425.35 69.5
Q 435.75 69.5 443 62.15 450.35 54.9 450.35 44.5
M 103.9 20.1
Q 103.95 20.25 103.95 20.4
L 103.95 25.8
Q 103.95 26.55 103.85 27.1 103.7 27.65 103.45 27.95 103.15 28.3 102.8 28.55 102.4 28.8 101.9 28.9 101.15 29.1 100.3 29.3 99.5 29.45 98.6 29.5 97.7 29.65 96.8 29.7 95.9 29.75 95 29.75 94.2 29.75 93.4 29.7 92.6 29.65 91.85 29.55 91 29.5 90.2 29.3 89.4 29.15 88.55 28.9 88.1 28.8 87.7 28.55 87.35 28.3 87.05 27.9 86.75 27.5 86.65 26.9 86.5 26.3 86.5 25.5
L 86.5 20.4
Q 86.5 20.05 86.65 19.8 86.75 19.55 87.1 19.4 87.35 19.3 87.65 19.25 87.95 19.15 88.2 19.15 88.35 19.15 88.5 19.2 88.65 19.2 88.85 19.25 89.15 19.3 89.35 19.4 89.5 19.5 89.6 19.6 89.7 19.7 89.8 19.8 89.9 19.95 89.95 20.1 90.05 20.25 90.05 20.4
L 90.05 21.45 100.4 21.45 100.4 20.4
Q 100.4 20.05 100.55 19.8 100.65 19.55 101 19.4 101.25 19.3 101.55 19.25 101.8 19.15 102.1 19.15 102.25 19.15 102.4 19.2 102.55 19.2 102.75 19.25 103 19.3 103.25 19.4 103.4 19.5 103.5 19.6 103.65 19.7 103.75 19.8 103.85 19.95 103.9 20.1
M 81.8 32.9
Q 81.8 32.6 81.9 32.35 82 32.05 82.25 31.8 82.45 31.6 82.7 31.45 82.95 31.35 83.25 31.35
L 107.1 31.35
Q 107.5 31.35 107.8 31.45 108.1 31.6 108.3 31.8 108.45 32.05 108.55 32.35 108.65 32.6 108.65 32.9 108.65 33.25 108.55 33.55 108.45 33.8 108.3 34.05 108.1 34.25 107.8 34.35 107.5 34.45 107.1 34.45
L 97.7 34.45 97.7 38.6
Q 97.7 39.4 97.15 39.75 96.9 39.95 96.55 40 96.25 40.1 95.9 40.1 95.55 40.1 95.25 40 94.95 39.95 94.7 39.75 94.4 39.55 94.25 39.25 94.1 39 94.1 38.6
L 94.1 34.45 83.25 34.45
Q 82.95 34.45 82.7 34.35 82.45 34.25 82.25 34.05 82 33.8 81.9 33.55 81.8 33.25 81.8 32.9
M 88.7 37
Q 89 37 89.25 37.1 89.55 37.2 89.8 37.3 90.1 37.5 90.25 37.8 90.4 38.05 90.4 38.5 90.4 38.55 90.4 38.65 90.35 38.75 90.35 38.9 90.3 39.1 90.3 39.45 90.3 39.8 90.3 40.35 90.3 40.6 90.3 40.9 90.3 41.15 90.35 41.4 90.4 41.7 90.4 42 90.45 42.25 90.55 42.5 90.9 42.75 91.45 42.95 91.7 43 92 43.1 92.3 43.15 92.65 43.2 92.95 43.25 93.25 43.25 93.55 43.3 93.9 43.3 94.2 43.35 94.5 43.35 94.8 43.35 95.1 43.35 95.85 43.35 96.55 43.3 97.2 43.25 97.9 43.2 98.55 43.1 99.1 43 99.7 42.9 100.25 42.8 100.7 42.7 101.15 42.6 101.55 42.5 101.85 42.4 102.15 42.35 102.3 42.3 102.45 42.25 102.45 42.2 102.5 42.2 102.6 42.2 102.65 42.15 102.75 42.15 102.8 42.15 102.85 42.15 102.9 42.15 103 42.15 103.6 42.15 103.9 42.55 104.2 42.9 104.2 43.7 104.2 43.95 104.15 44.2 104.1 44.4 104 44.65 103.85 44.85 103.6 45.05 103.35 45.25 103 45.4
L 102.9 45.45
Q 102.75 45.55 102.5 45.65 102.25 45.7 101.85 45.8 101.5 45.9 101 46.05 100.55 46.15 100 46.25 99.45 46.4 98.8 46.5 98.1 46.6 97.4 46.65 96.65 46.7 95.85 46.7 95.1 46.7 94.35 46.65 93.55 46.6 92.7 46.55 91.8 46.45 91 46.3 90.15 46.15 89.45 45.9 89.15 45.75 88.9 45.65 88.65 45.5 88.45 45.3 88.2 45.1 88.05 44.95 87.85 44.7 87.75 44.5 87.6 44.3 87.5 44.1 87.4 43.85 87.35 43.65 87.25 43.4 87.15 43.15 87.1 42.95 87.1 42.65 87.05 42.4 87 42.05 86.95 41.7 86.9 41.25 86.8 40.35 86.8 39.65 86.8 39.35 86.85 39.15 86.85 38.95 86.9 38.8 86.9 38.65 86.9 38.6 86.95 38.5 86.95 38.45 86.95 38.05 87.1 37.75 87.25 37.45 87.55 37.3 88.05 37 88.7 37
M 124.05 19.85
L 124.05 21.1
Q 124.25 22.5 124.85 23.45 125.15 23.9 125.55 24.35 125.95 24.75 126.4 25.05 126.9 25.4 127.45 25.7 128 26.05 128.6 26.3 129.2 26.6 129.85 26.9 130.45 27.15 131.15 27.4 131.4 27.6 131.6 27.85 131.65 28 131.65 28.2 131.7 28.35 131.7 28.5 131.7 28.9 131.6 29.2 131.5 29.5 131.3 29.8 131.1 30.05 130.8 30.2 130.55 30.35 130.15 30.35 130.05 30.35 129.9 30.3 129.8 30.3 129.75 30.2
L 129.75 30.3
Q 128.45 29.85 127.3 29.35 126.25 28.85 125.25 28.2 124.35 27.6 123.55 26.9 122.8 26.2 122.25 25.35 121.65 26.15 120.85 26.85 120.05 27.55 119 28.15 118 28.8 116.85 29.35 115.75 29.85 114.55 30.3 114.4 30.35 114.25 30.35 114.05 30.4 113.9 30.4 113.3 30.4 112.85 29.85 112.6 29.6 112.45 29.25 112.35 28.95 112.35 28.55 112.35 28.15 112.5 27.9 112.65 27.65 112.95 27.45 113.6 27.2 114.25 26.95 114.9 26.65 115.55 26.35 116.15 26.1 116.7 25.8 117.25 25.45 117.75 25.1 118.25 24.75 118.65 24.35 119.1 23.9 119.45 23.45 119.75 22.95 119.95 22.35 120.2 21.75 120.3 21.1
L 120.3 19.85
Q 120.3 19.7 120.35 19.55 120.4 19.4 120.55 19.3 120.65 19.15 120.75 19.1 120.9 19 121.05 18.9 121.15 18.85 121.3 18.75 121.45 18.7 121.65 18.65 121.8 18.65 121.95 18.6 122.1 18.6 122.25 18.6 122.35 18.6 122.5 18.6 122.65 18.65 122.85 18.65 123 18.7 123.15 18.75 123.35 18.85 123.5 18.9 123.6 19 123.7 19.1 123.8 19.15 123.9 19.3 123.95 19.4 124 19.55 124.05 19.7 124.05 19.85
M 135.45 36.35
Q 135.4 36.6 135.3 36.85 135.2 37.05 134.95 37.2 134.7 37.3 134.3 37.3
L 123.95 37.3 123.95 46.05
Q 123.95 46.45 123.8 46.75 123.65 47 123.35 47.15 123.05 47.2 122.75 47.3 122.5 47.35 122.2 47.35 121.8 47.35 121.5 47.3 121.15 47.2 120.85 47.15 120.55 47 120.4 46.75 120.25 46.45 120.25 46.05
L 120.25 37.3 110.1 37.3
Q 109.75 37.3 109.55 37.2 109.3 37.05 109.15 36.85 109 36.6 108.95 36.35 108.85 36.05 108.85 35.75 108.85 35.45 108.95 35.15 109 34.9 109.15 34.65 109.3 34.4 109.55 34.3 109.75 34.15 110.1 34.15
L 134.3 34.15
Q 134.7 34.15 134.95 34.3 135.2 34.4 135.3 34.65 135.4 34.9 135.45 35.15 135.5 35.45 135.5 35.75 135.5 36.05 135.45 36.35
M 142.6 21.15
Q 143.8 20.75 145.4 20.75 148.45 20.75 150.25 22.45 152.05 24.15 152.05 27.2 152.05 30.15 150.25 31.9 148.45 33.6 145.4 33.6 143.8 33.6 142.6 33.2 141.35 32.75 140.4 31.9 138.65 30.15 138.65 27.2 138.65 24.15 140.4 22.45 141.35 21.6 142.6 21.15
M 156.25 19.85
Q 156.25 19.45 156.35 19.2 156.45 18.9 156.6 18.8 156.8 18.7 157.1 18.7 157.4 18.65 157.75 18.65 157.95 18.65 158.1 18.65 158.25 18.65 158.4 18.65 158.55 18.7 158.7 18.7 158.85 18.75 159.05 18.8 159.15 18.9 159.25 19 159.35 19.1 159.45 19.2 159.5 19.35 159.55 19.5 159.6 19.65 159.6 19.85
L 159.6 45.35
Q 159.6 45.75 159.45 46.05 159.3 46.35 159.05 46.55 158.7 46.7 158.45 46.8 158.1 46.9 157.85 46.9 157.05 46.9 156.65 46.55 156.45 46.35 156.35 46.05 156.25 45.75 156.25 45.35
L 156.25 19.85
M 137.95 36.7
L 140.75 36.7
Q 141.55 36.7 142.35 36.7 143.2 36.7 143.95 36.65 144.75 36.65 145.5 36.6 146.2 36.55 146.95 36.45 147.65 36.45 148.4 36.35 149.15 36.3 149.9 36.2 150.65 36.15 151.45 36.05 152.2 35.95 153.05 35.85 153.35 35.8 153.65 35.85 153.95 35.9 154.2 36.1 154.65 36.55 154.75 37.2
L 154.7 37.15
Q 154.75 37.45 154.75 37.75 154.7 38 154.6 38.25 154.3 38.85 153.5 39 152.75 39.15 151.95 39.25 151.2 39.35 150.45 39.4 149.7 39.5 148.9 39.55 148.1 39.6 147.35 39.65 146.55 39.7 145.75 39.75 144.95 39.8 144.15 39.8 143.35 39.85 142.5 39.85 141.65 39.85 140.75 39.85
L 137.95 39.85
Q 137.55 39.85 137.3 39.7 137.05 39.6 136.9 39.35 136.75 39.1 136.7 38.85 136.6 38.6 136.6 38.25 136.6 37.95 136.7 37.7 136.75 37.45 136.9 37.25 137.05 37.05 137.3 36.9 137.55 36.75 137.95 36.7
M 185.35 19.7
Q 185.65 19.45 186.25 19.45 186.6 19.45 186.85 19.5 187.1 19.55 187.2 19.7 187.35 19.85 187.4 20.15 187.5 20.4 187.5 20.85
L 187.5 29
Q 187.5 29.85 187.3 30.4 187.15 31 186.85 31.3 186.5 31.65 185.95 31.8 185.4 32 184.65 32 183.8 32 183.15 31.8 182.55 31.65 182.15 31.3 181.35 30.7 181.35 28.95
L 181.35 20.65
Q 181.35 20.3 181.45 20.05 181.55 19.8 181.7 19.7 181.9 19.55 182.15 19.5 182.45 19.45 182.8 19.45 183.05 19.45 183.25 19.5 183.5 19.55 183.6 19.7 183.75 19.85 183.8 20.15 183.9 20.4 183.9 20.8
L 183.9 22.9 185.05 22.9 185.05 20.8
Q 185.05 20.4 185.15 20.15 185.2 19.85 185.35 19.7
M 190.05 19.25
Q 190.35 19.2 190.75 19.2 191.3 19.2 191.7 19.4 191.9 19.5 192 19.75 192.1 20 192.1 20.45
L 192.1 23.65 193.8 23.65 193.8 19.85
Q 193.8 19.4 193.9 19.15 194 18.9 194.2 18.8 194.4 18.7 194.65 18.65 194.95 18.6 195.3 18.6 195.6 18.6 195.85 18.65 196.15 18.7 196.35 18.8 196.6 18.9 196.7 19.15 196.8 19.4 196.8 19.85
L 196.8 31.15
Q 196.8 31.55 196.7 31.8 196.6 32.05 196.35 32.15 196.15 32.25 195.9 32.3 195.65 32.35 195.3 32.35 194.95 32.35 194.65 32.3 194.4 32.25 194.2 32.15 194 32.05 193.9 31.8 193.8 31.55 193.8 31.15
L 193.8 26.75 192.1 26.75 192.1 30.8
Q 192.1 31.2 192 31.45 191.9 31.7 191.7 31.85 191.5 31.95 191.25 32 191.05 32.1 190.75 32.05 190.35 32.1 190.05 32 189.8 31.95 189.6 31.85 189.4 31.7 189.35 31.45 189.2 31.2 189.2 30.8
L 189.2 20.45
Q 189.2 20 189.35 19.75 189.4 19.45 189.6 19.4 189.8 19.3 190.05 19.25
M 175.05 19.5
Q 175.3 19.45 175.65 19.45 175.95 19.45 176.15 19.5 176.35 19.55 176.55 19.7 176.65 19.85 176.75 20.15 176.85 20.4 176.85 20.8
L 176.85 22.9 178 22.9 178 20.8
Q 178 20.4 178.05 20.15 178.1 19.85 178.25 19.7 178.45 19.45 179.25 19.45 179.5 19.45 179.7 19.5 179.95 19.55 180.1 19.7 180.25 19.85 180.35 20.15 180.45 20.4 180.45 20.85
L 180.45 29
Q 180.45 29.8 180.25 30.4 180.1 31 179.8 31.3 179.45 31.65 178.9 31.8 178.35 32 177.55 32 176.7 32 176.05 31.8 175.45 31.65 175.05 31.3 174.7 31 174.5 30.4 174.3 29.85 174.35 28.95
L 174.35 20.65
Q 174.3 20.3 174.4 20.05 174.45 19.8 174.65 19.7 174.8 19.55 175.05 19.5
M 179.85 33.9
Q 180.25 33.5 180.95 33.5
L 193.65 33.5
Q 194.2 33.5 194.65 33.55 195.1 33.65 195.4 33.85 195.7 34.05 195.9 34.3 196.15 34.55 196.3 34.85 196.45 35.2 196.55 35.6 196.6 35.95 196.65 36.4 196.65 36.85 196.7 37.35 196.7 37.85 196.7 38.4
L 196.65 38.4
Q 196.65 39.1 196.45 39.6 196.2 40.1 195.75 40.45 195.25 40.75 194.75 40.9 194.2 41.05 193.65 41.05
L 183.25 41.05
Q 183.2 41.25 183.15 41.4 183.15 41.55 183.15 41.75
L 183.15 42.1
Q 183.15 42.35 183.2 42.55 183.25 42.75 183.3 42.85 183.5 43 183.75 43.05 184 43.15 184.35 43.2 184.65 43.25 184.95 43.3 185.3 43.35 185.65 43.4 185.95 43.45 186.25 43.45 186.6 43.5 186.9 43.55 187.25 43.55 187.55 43.55 187.9 43.55 188.25 43.55 188.9 43.55 189.55 43.5 190.2 43.5 190.85 43.45 191.45 43.35 192 43.3 192.55 43.25 192.95 43.2 193.4 43.15 193.7 43.1 194.05 43 194.35 42.95 194.55 42.85 194.7 42.8 194.85 42.8 194.9 42.8 195 42.75 195.15 42.75 195.25 42.7 195.4 42.7 195.5 42.7 195.6 42.65 195.7 42.65 195.8 42.65 196 42.65 196.25 42.75 196.45 42.85 196.65 43 196.85 43.2 197 43.5 197.1 43.8 197.1 44.25 197.1 44.45 197 44.7 196.95 44.95 196.85 45.15 196.7 45.4 196.45 45.55 196.2 45.65 195.9 45.7 195.4 45.85 194.9 46 194.4 46.1 193.8 46.25 193.35 46.3 192.8 46.4 192.2 46.5 191.55 46.6 190.85 46.65 190.1 46.7 189.35 46.75 188.6 46.75 188.25 46.75 187.9 46.75 187.5 46.75 187.05 46.75 186.55 46.7 186.1 46.65 185.7 46.65 185.25 46.6 184.8 46.5 184.35 46.45 183.85 46.4 183.4 46.3 182.9 46.25 182.5 46.15 182.1 46 181.75 45.9 181.4 45.75 181.1 45.65 180.85 45.55 180.7 45.4 180.5 45.25 180.3 45.05 180.15 44.9 180 44.75 179.85 44.55 179.8 44.4 179.7 44.2 179.7 44.05 179.6 43.6 179.6 43.15 179.6 42.4 179.6 41.7 179.6 41.4 179.55 41.05 179.55 40.7 179.55 40.35 179.55 39.7 179.8 39.25 180 38.85 180.4 38.6 181.25 38.15 182.5 38.15
L 192.95 38.15
Q 193 38 193.05 37.85 193.1 37.65 193.1 37.45
L 193.1 37.2
Q 193.1 37.05 193.05 36.85 193 36.7 192.95 36.5
L 180.95 36.5
Q 180.6 36.5 180.3 36.4 180.05 36.3 179.85 36.1 179.65 35.9 179.55 35.6 179.45 35.35 179.45 35 179.45 34.7 179.55 34.4 179.65 34.15 179.85 33.9
M 223.7 19.35
Q 223.8 19.6 223.8 20
L 223.8 31.9
Q 223.8 32.6 223.35 32.9 223.1 33 222.8 33.1 222.55 33.15 222.25 33.15 221.9 33.15 221.6 33.1 221.3 33 221.1 32.9 220.65 32.6 220.65 31.9
L 220.65 20
Q 220.65 19.6 220.75 19.35 220.85 19.05 221.1 18.95 221.3 18.85 221.6 18.8 221.9 18.8 222.25 18.8 222.55 18.8 222.8 18.8 223.1 18.85 223.35 18.95 223.55 19.05 223.7 19.35
M 207.15 19.6
Q 207.4 19.65 207.55 19.75 207.85 19.9 208 20.3 208.15 20.7 208.2 21.2 208.2 21.45 208.2 21.75 208.2 22.05 208.25 22.4 208.25 22.8 208.3 23.25 208.4 23.65 208.6 24.1 208.95 25.1 209.5 26 209.8 26.5 210.15 26.95 210.5 27.4 210.9 27.8 211.3 28.25 211.75 28.6 212.15 29 212.65 29.3 212.85 29.55 213 29.7 213.15 29.85 213.3 29.95 213.45 30.1 213.55 30.25 213.6 30.4 213.6 30.65 213.6 30.75 213.55 30.85 213.5 31 213.4 31.1 213.3 31.25 213.2 31.4 213.1 31.5 213 31.6 212.9 31.75 212.75 31.85 212.65 32 212.45 32.05 212.25 32.1 212.1 32.15 211.9 32.2 211.75 32.2 211.65 32.2 211.55 32.15 211.45 32.1 211.4 32.05 211.2 32 210.85 31.9 209.3 30.95 208.3 29.75 207.25 28.55 206.7 27.5 206.55 27.8 206.35 28.2 206.15 28.6 205.85 28.95 205.55 29.4 205.2 29.85 204.85 30.25 204.5 30.65 203.75 31.45 203.05 32 202.65 32.3 202.25 32.45 201.9 32.6 201.6 32.6 201.5 32.6 201.4 32.55 201.3 32.5 201.15 32.45 201 32.35 200.85 32.25 200.7 32.15 200.55 32 200.45 31.85 200.35 31.7 200.25 31.55 200.15 31.35 200.05 31.15 200 31 199.95 30.8 199.95 30.65 199.9 30.4 200 30.2 200.15 29.95 200.35 29.75 201.5 29.05 202.35 28.05 202.75 27.6 203.1 27.1 203.5 26.6 203.8 26.1 204.05 25.6 204.3 25.1 204.5 24.6 204.7 24.1 204.85 23.65 204.95 23.15 205 22.7 205 22.25
L 205 20.9
Q 205 20.55 205.15 20.3 205.3 20.05 205.55 19.85 205.8 19.75 206.1 19.65 206.35 19.55 206.65 19.55 206.95 19.55 207.15 19.6
M 212.8 24.05
L 215.45 24.05 215.45 20.75
Q 215.45 20.25 215.55 19.95 215.7 19.65 215.95 19.55 216.2 19.45 216.5 19.4 216.8 19.4 217.1 19.4 217.8 19.4 218.2 19.55 218.55 19.75 218.55 20.75
L 218.55 31.6
Q 218.55 32 218.45 32.25 218.35 32.5 218.2 32.6 218 32.75 217.75 32.8 217.45 32.85 217.1 32.85 216.8 32.85 216.5 32.8 216.2 32.75 215.95 32.6 215.7 32.5 215.55 32.25 215.45 32 215.45 31.6
L 215.45 26.9 212.8 26.9
Q 212 26.9 211.8 26.45 211.65 26.25 211.6 26 211.55 25.75 211.55 25.45 211.55 25.1 211.6 24.85 211.65 24.55 211.8 24.4 212 24.05 212.8 24.05
M 221.1 34.95
Q 221.65 34.95 222.15 35.1 222.6 35.2 222.95 35.5 223.3 35.8 223.45 36.2 223.65 36.65 223.65 37.2
L 223.65 42.7
Q 223.65 43.3 223.4 43.75 223.2 44.2 222.75 44.55 222.3 44.9 221.8 45.2 221.25 45.45 220.65 45.65 220 45.8 219.35 45.95 218.65 46.05 218 46.1 216.55 46.2 215.5 46.2 214.9 46.2 214.35 46.2 213.8 46.15 213.3 46.1 212.75 46.05 212.3 46 211.85 45.95 211.45 45.9 211 45.85 210.65 45.8 210.3 45.75 210 45.7 209.5 45.55 209.3 45.5 208.65 45.35 208.2 45.1 207.7 44.85 207.4 44.55 207 44.25 206.85 43.75 206.7 43.3 206.7 42.7
L 206.7 37.2
Q 206.7 36.65 206.85 36.2 207 35.8 207.4 35.5 208 34.95 209.2 34.95
L 221.1 34.95
M 243.2 19.15
Q 244.05 19.35 244.75 19.6 245.45 19.8 246.05 20.1 246.6 20.4 247.05 20.8 247.5 21.2 247.8 21.65 248.1 22.05 248.25 22.6 248.4 23.1 248.4 23.7 248.4 24.3 248.25 24.8 248.1 25.3 247.8 25.75 247.5 26.2 247.05 26.55 246.6 26.9 246.1 27.2 245.45 27.5 244.8 27.75 244.1 28 243.35 28.15 241.7 28.5 239.7 28.6 238.7 28.55 237.75 28.45 236.85 28.35 236.05 28.15 235.25 28 234.5 27.8 233.8 27.55 233.25 27.25 232.65 26.95 232.2 26.55 231.75 26.2 231.45 25.75 231.1 25.3 230.95 24.8 230.8 24.3 230.8 23.7 230.8 22.55 231.45 21.65 231.75 21.2 232.2 20.8 232.6 20.4 233.2 20.1 233.8 19.8 234.45 19.6 235.15 19.35 235.95 19.15 236.75 19 237.65 18.9 238.55 18.85 239.6 18.85 240.6 18.85 241.5 18.9 242.4 19 243.2 19.15
M 251.6 30.55
Q 252 30.55 252.25 30.65 252.5 30.75 252.65 30.95 252.75 31.15 252.85 31.4 252.9 31.65 252.9 32 252.9 32.3 252.85 32.55 252.75 32.85 252.65 33.05 252.5 33.3 252.25 33.4 252 33.5 251.6 33.5
L 227.45 33.5
Q 226.75 33.5 226.45 33.05 226.2 32.6 226.2 32 226.2 31.65 226.25 31.4 226.3 31.15 226.45 30.95 226.75 30.55 227.45 30.55
L 251.6 30.55
M 247.15 35.75
Q 247.55 36.05 247.8 36.5 248 36.95 248 37.6
L 248 39.75
Q 248 40.45 247.8 40.85 247.55 41.3 247.15 41.55 246.75 41.75 246.25 41.9 245.75 42 245.2 42
L 234.85 42
Q 234.8 42.15 234.75 42.3 234.75 42.45 234.75 42.65
L 234.75 42.8
Q 234.75 42.9 234.75 43 234.8 43.1 234.85 43.25 234.85 43.3 234.85 43.4 234.85 43.45 234.85 43.55 235.4 43.75 235.95 43.9 236.55 44.05 237.15 44.1 237.75 44.15 238.3 44.2 238.9 44.2 239.45 44.2 240.15 44.2 240.8 44.2 241.45 44.15 242.1 44.1 242.7 44 243.25 43.9 243.8 43.85 244.3 43.75 244.75 43.65 245.1 43.55 245.45 43.5 245.75 43.45 246 43.35 246.15 43.3
L 246.3 43.3
Q 246.5 43.25 246.75 43.2 246.95 43.15 247.15 43.15 247.4 43.15 247.65 43.25 247.9 43.35 248.05 43.55 248.4 43.9 248.4 44.45 248.4 44.65 248.35 44.85 248.25 45.05 248.1 45.3 247.95 45.45 247.75 45.6 247.55 45.7 247.3 45.75
L 247.15 45.8
Q 246.95 45.85 246.65 45.95 245.95 46.05 244.85 46.3 244.25 46.4 243.6 46.5 242.95 46.6 242.2 46.7 241.5 46.8 240.7 46.85 239.95 46.9 239.1 46.9 238.55 46.9 237.95 46.85 237.3 46.8 236.65 46.75 235.9 46.65 235.25 46.55 234.6 46.4 234 46.25 233.4 46.05 232.9 45.8 232.4 45.55 231.95 45.2 231.55 44.85 231.35 44.45 231.15 44 231.15 43.45
L 231.1 43.45 231.1 41.4
Q 231.1 40.85 231.3 40.45 231.5 40.1 231.85 39.9 232.2 39.75 232.7 39.65 233.15 39.55 233.7 39.55
L 244.35 39.55
Q 244.4 39.45 244.45 39.2 244.45 39.1 244.45 39 244.5 38.95 244.5 38.8
L 244.5 38.55
Q 244.5 38.45 244.45 38.35 244.45 38.25 244.45 38.15 244.4 38 244.35 37.8
L 232.55 37.8
Q 231.85 37.8 231.5 37.55 231.25 37.4 231.15 37.15 231.05 36.95 231.05 36.6 231.05 35.95 231.4 35.6 231.8 35.25 232.55 35.25
L 245.2 35.25
Q 245.75 35.25 246.25 35.35 246.7 35.5 247.15 35.75
M 283.8 19.9
Q 283.8 19.55 283.9 19.3 284.05 19.05 284.3 18.9 284.5 18.8 284.8 18.75 285.1 18.7 285.4 18.7 285.75 18.7 286.1 18.75 286.4 18.8 286.65 18.9 286.9 19.05 287 19.3 287.15 19.55 287.15 19.9
L 287.15 45.7
Q 287.15 46.05 287 46.3 286.9 46.6 286.65 46.7 286.4 46.85 286.1 46.9 285.75 46.95 285.4 46.95 285.1 46.95 284.8 46.9 284.5 46.85 284.3 46.7 284.05 46.6 283.9 46.3 283.8 46.05 283.8 45.7
L 283.8 32.05 281.2 32.05 281.2 44.85
Q 281.2 45.25 281.05 45.5 280.95 45.75 280.7 45.9 280.45 46 280.2 46.1 279.95 46.15 279.65 46.15 279.25 46.15 278.95 46.1 278.6 46 278.35 45.9 278.1 45.75 278 45.5 277.85 45.25 277.85 44.85
L 277.85 20.45
Q 277.85 20.1 278 19.85 278.1 19.55 278.35 19.45 278.6 19.35 278.95 19.3 279.25 19.25 279.65 19.25 279.95 19.25 280.2 19.3 280.45 19.35 280.7 19.45 280.95 19.55 281.05 19.85 281.2 20.1 281.2 20.45
L 281.2 28.9 283.8 28.9 283.8 19.9
M 268.8 18.25
Q 269 18.2 269.3 18.1 269.55 18.05 269.95 18.05 270.25 18.05 270.55 18.1 270.8 18.2 271.05 18.25 271.3 18.4 271.4 18.7 271.55 18.95 271.55 19.4
L 271.55 21.95 275.15 21.95
Q 275.95 21.95 276.25 22.4 276.4 22.6 276.45 22.9 276.55 23.15 276.55 23.5 276.55 23.8 276.5 24.05 276.4 24.3 276.3 24.55 276.1 24.8 275.85 24.95 275.6 25.05 275.15 25.05
L 275 25.05
Q 273.7 25.05 272.4 25.05 271.1 25.05 269.75 25 267.1 25 264.45 25 264.1 25 263.85 24.9 263.6 24.8 263.5 24.55 263.35 24.3 263.3 24.05 263.25 23.8 263.25 23.5 263.25 23.15 263.3 22.85 263.35 22.55 263.5 22.35 263.7 21.9 264.45 21.9 265.35 21.9 266.35 21.9 266.85 21.95 267.35 21.95 267.85 21.95 268.3 21.95
L 268.3 19.4
Q 268.3 18.95 268.45 18.7 268.55 18.4 268.8 18.25
M 274 28.45
Q 274.4 28.95 274.7 29.45 275 30 275.2 30.55 275.4 31.15 275.5 31.75 275.6 32.4 275.6 33.1 275.6 33.8 275.5 34.4 275.4 35 275.2 35.6 275 36.15 274.7 36.7 274.4 37.2 274 37.6 273.65 38.05 273.2 38.4 272.75 38.8 272.25 39.05 271.7 39.3 271.1 39.4 270.5 39.55 269.85 39.55 269.25 39.55 268.65 39.4 268.1 39.3 267.55 39.05 267 38.8 266.55 38.45 266.1 38.1 265.8 37.65 265.35 37.25 265.05 36.75 264.7 36.2 264.5 35.6 264.3 35 264.2 34.4 264.1 33.8 264.1 33.1 264.1 32.4 264.2 31.75 264.3 31.1 264.5 30.5 264.95 29.3 265.8 28.4 266.1 28 266.55 27.65 267 27.3 267.55 27 268.1 26.8 268.65 26.65 269.25 26.55 269.85 26.55 270.5 26.55 271.1 26.65 271.7 26.8 272.25 27 272.75 27.3 273.2 27.65 273.65 28 274 28.45
M 324.95 33.7
Q 324.7 33.8 324.3 33.8
L 300.1 33.8
Q 299.8 33.8 299.55 33.7 299.3 33.55 299.15 33.3 299 33.1 298.95 32.85 298.85 32.55 298.85 32.25 298.85 31.95 298.95 31.65 299 31.35 299.15 31.1 299.3 30.9 299.55 30.75 299.8 30.65 300.1 30.65
L 310.45 30.65 310.45 29.35
Q 310.05 29.35 309.65 29.3 309.25 29.3 308.8 29.2 308 29.1 307.2 28.95 306.35 28.8 305.5 28.55 305.05 28.45 304.7 28.2 304.3 27.9 304.05 27.5 303.75 27.15 303.6 26.55 303.45 25.95 303.45 25.1
L 303.45 20.4
Q 303.45 20.05 303.6 19.8 303.75 19.55 304.05 19.4 304.35 19.3 304.65 19.25 304.9 19.15 305.2 19.15 305.3 19.15 305.5 19.2 305.65 19.2 305.8 19.25 306.15 19.3 306.35 19.4 306.5 19.5 306.6 19.6 306.7 19.7 306.8 19.8 306.9 19.95 306.95 20.1 307 20.25 307 20.4
L 307 21.3 317.35 21.3 317.35 20.4
Q 317.35 20.05 317.5 19.8 317.65 19.55 317.95 19.4 318.25 19.3 318.55 19.25 318.8 19.15 319.05 19.15 319.2 19.15 319.35 19.2 319.55 19.2 319.7 19.25 320.05 19.3 320.25 19.4 320.4 19.5 320.5 19.6 320.6 19.7 320.75 19.8 320.8 19.95 320.9 20.1 320.95 20.25 320.95 20.4
L 320.95 25.45
Q 320.95 26.9 320.4 27.65 320.15 28 319.75 28.25 319.35 28.45 318.9 28.55 318.15 28.75 317.3 28.9 316.5 29.05 315.65 29.15 315.2 29.25 314.85 29.3 314.45 29.35 314.05 29.35
L 314.05 30.65 324.3 30.65
Q 325.05 30.65 325.4 31.1 325.5 31.35 325.6 31.65 325.7 31.95 325.7 32.25 325.7 32.55 325.6 32.85 325.5 33.1 325.4 33.3 325.25 33.55 324.95 33.7
M 317.65 35.05
Q 318.25 35.05 318.65 35.15 319.1 35.2 319.4 35.35 319.95 35.65 320.2 36.15 320.35 36.45 320.45 36.75 320.55 37.1 320.6 37.55 320.7 38.4 320.7 39.5
L 320.6 39.5
Q 320.6 39.85 320.55 40.15 320.5 40.45 320.4 40.7 320.25 40.95 320.1 41.1 319.95 41.3 319.8 41.4 319.55 41.55 319.3 41.65 319.05 41.75 318.85 41.8 318.6 41.85 318.3 41.9 318 41.9 317.65 41.9
L 307.55 41.9
Q 307.5 42 307.5 42.05 307.45 42.15 307.45 42.2 307.45 42.3 307.45 42.4 307.45 42.45 307.45 42.55
L 307.45 42.7
Q 307.45 42.95 307.45 43.15 307.5 43.35 307.55 43.5 308.55 43.85 309.8 44.05 310.4 44.1 310.95 44.1 311.55 44.15 312.1 44.15 312.85 44.15 313.5 44.1 314.2 44.1 314.85 44 315.45 43.95 315.95 43.85 316.5 43.75 317 43.7 317.5 43.55 318.05 43.45 318.55 43.35 319 43.2 319.25 43.15 319.45 43.15 319.6 43.15 319.8 43.15 320.1 43.15 320.35 43.2 320.6 43.3 320.75 43.45 321.1 43.8 321.1 44.35 321.1 44.55 321.05 44.8 320.95 45 320.8 45.25 320.5 45.65 320 45.75 318.85 46.05 317.6 46.3 317 46.4 316.4 46.5 315.75 46.6 315.05 46.7 313.6 46.9 312 46.9 311.4 46.9 310.75 46.85 310.1 46.8 309.4 46.75 308.65 46.65 308 46.55 307.35 46.4 306.75 46.25 306.1 46.05 305.6 45.8 305.1 45.55 304.7 45.2 304.3 44.85 304.05 44.4 303.85 43.95 303.85 43.4 303.85 43.15 303.85 42.9 303.85 42.65 303.85 42.4 303.8 42.2 303.8 41.95 303.8 41.7 303.8 41.4
L 303.8 41.2
Q 303.8 40.65 304 40.25 304.2 39.85 304.55 39.65 304.9 39.45 305.35 39.3 305.8 39.2 306.4 39.2
L 317.05 39.2
Q 317.15 39.1 317.2 39 317.2 38.85 317.2 38.65
L 317.2 38.4
Q 317.2 38.25 317.2 38.15 317.15 38 317.05 37.85
L 305.25 37.85
Q 304.5 37.85 304.1 37.55 303.75 37.25 303.75 36.6 303.75 36.25 303.85 36 303.95 35.7 304.2 35.5 304.35 35.3 304.6 35.2 304.9 35.05 305.25 35.05
L 317.65 35.05
M 345.45 19.9
Q 345.45 19.5 345.6 19.25 345.7 19 345.9 18.85 346.1 18.75 346.4 18.65 346.65 18.6 347.05 18.6 347.4 18.6 347.7 18.65 348 18.75 348.25 18.85 348.5 19 348.6 19.25 348.75 19.5 348.75 19.9
L 348.75 28.85 351.65 28.85
Q 352.4 28.85 352.75 29.3 352.9 29.55 353 29.8 353.1 30.1 353.1 30.4 353.1 30.75 353 31 352.9 31.3 352.75 31.55 352.55 31.8 352.3 31.9 352 32.05 351.65 32.05
L 348.75 32.05 348.75 45.65
Q 348.75 46 348.6 46.25 348.5 46.5 348.25 46.65 348 46.75 347.7 46.85 347.4 46.9 347.05 46.9 346.65 46.9 346.4 46.85 346.1 46.75 345.9 46.65 345.7 46.5 345.6 46.25 345.45 46 345.45 45.65
L 345.45 19.9
M 328.3 21.3
Q 328.55 21.15 328.85 21.15
L 331.95 21.15
Q 332.4 21.15 332.75 21.2 333.1 21.25 333.4 21.3 333.7 21.4 333.9 21.5 334.1 21.6 334.3 21.75 334.55 22.05 334.65 22.45 334.75 22.9 334.75 23.45 334.75 24.25 334.7 25.1 334.6 25.95 334.55 26.9 334.4 27.85 334.2 28.8 333.95 29.75 333.65 30.7 333.4 31.65 333 32.55 332.65 33.4 332.15 34.25 331.65 35.05 331.05 35.75 330.45 36.35 329.75 36.85 329.6 36.95 329.45 36.95 329.25 37 329.05 37 328.9 37 328.7 36.95 328.55 36.95 328.4 36.9 328.3 36.85 328.15 36.7 328 36.6 327.9 36.4 327.7 36.2 327.55 35.95 327.45 35.7 327.45 35.4 327.45 34.85 327.9 34.4 328.3 34.05 328.65 33.6 329 33.15 329.3 32.65 329.6 32.2 329.85 31.7 330.15 31.15 330.35 30.65 330.55 30.05 330.7 29.45 330.85 28.85 330.95 28.2 331.05 27.6 331.15 26.95 331.2 26.35 331.3 25.7 331.3 25.6 331.3 25.5 331.3 25.35 331.35 25.25 331.35 25.15 331.35 25.1 331.35 25 331.35 24.85 331.35 24.8 331.35 24.7 331.35 24.65 331.35 24.55 331.3 24.5 331.3 24.45 331.3 24.35 331.3 24.25
L 328.85 24.25
Q 328.55 24.25 328.35 24.15 328.1 24.05 327.9 23.8 327.75 23.6 327.65 23.35 327.55 23.1 327.55 22.8 327.55 22.45 327.65 22.15 327.7 21.9 327.9 21.65 328.05 21.4 328.3 21.3
M 335.9 21.6
Q 336.05 21.35 336.25 21.25 336.5 21.15 336.85 21.15
L 339.55 21.15
Q 340.05 21.15 340.4 21.2 340.8 21.25 341.1 21.3 341.35 21.4 341.6 21.5 341.8 21.65 341.95 21.8 342.05 21.95 342.15 22.15 342.25 22.35 342.3 22.6 342.35 22.85 342.35 23.1 342.4 23.35 342.4 23.65 342.4 24.7 342.3 25.75 342.25 26.8 342.15 27.8 342 28.85 341.8 29.9 341.55 30.9 341.2 31.9 340.95 32.9 340.55 33.8 340.15 34.7 339.7 35.55 339.2 36.45 338.65 37.2 338.1 38 337.45 38.65 337.3 38.9 337.1 38.95 336.9 39.05 336.65 39.05 336.3 39.05 335.95 38.95 335.65 38.85 335.3 38.6 335 38.35 334.85 38.05 334.7 37.7 334.7 37.3 334.7 37.1 334.75 36.95 334.8 36.8 334.9 36.6 335.35 36.1 335.75 35.55 336.15 35 336.5 34.4 336.8 33.8 337.1 33.1 337.4 32.45 337.7 31.7 337.9 31.05 338.1 30.3 338.25 29.6 338.35 28.85 338.5 28.1 338.55 27.35 338.65 26.55 338.75 25.8 338.75 25.75 338.75 25.7 338.75 25.6 338.75 25.55 338.75 25.45 338.75 25.4 338.75 25.35 338.75 25.2 338.75 24.8 338.7 24.35
L 336.85 24.35
Q 336.1 24.35 335.9 23.8 335.75 23.55 335.65 23.25 335.6 22.95 335.6 22.65 335.6 22.4 335.7 22.1 335.75 21.85 335.9 21.6
M 373.85 23.3
Q 374.35 23.85 374.65 24.5 375.3 25.85 375.3 27.5 375.3 29.15 374.65 30.45 374.05 31.75 372.8 32.7 372.55 32.9 372.25 33.05 372 33.2 371.75 33.35 371.9 33.5 371.95 33.7 372.05 33.95 372.05 34.25
L 372.05 38.85 378 38.85
Q 378.5 38.85 378.75 38.95 379.05 39.1 379.15 39.3 379.3 39.55 379.35 39.85 379.4 40.15 379.4 40.45 379.4 40.8 379.35 41.05 379.3 41.3 379.15 41.55 379.05 41.8 378.75 41.9 378.5 42 378 42
L 354.45 42
Q 354.05 42 353.75 41.9 353.5 41.8 353.35 41.55 353.2 41.3 353.15 41.05 353.05 40.8 353.05 40.45 353.05 40.15 353.15 39.85 353.2 39.55 353.35 39.3 353.5 39.1 353.75 38.95 354.05 38.85 354.45 38.85
L 360.75 38.85 360.75 34.25
Q 360.75 34.05 360.8 33.85 360.85 33.65 360.95 33.5 360.45 33.25 360 32.9 359.55 32.55 359.15 32.15 358.65 31.7 358.35 31.15 358 30.6 357.8 30 357.55 29.4 357.4 28.8 357.3 28.15 357.3 27.5 357.3 26.65 357.45 25.95 357.6 25.2 357.95 24.5 358.3 23.85 358.75 23.3 359.2 22.7 359.8 22.25 360.4 21.8 361.1 21.4 361.8 21.05 362.65 20.8 363.45 20.55 364.35 20.4 365.25 20.3 366.3 20.3 367.25 20.3 368.15 20.4 369.05 20.55 369.9 20.8 370.7 21.05 371.45 21.4 372.2 21.8 372.8 22.25 373.4 22.7 373.85 23.3
M 388.7 18.9
Q 388.85 19.2 388.85 19.45 388.85 19.65 388.8 19.8 388.75 19.95 388.7 20.1 388.55 20.45 388.35 20.75 388.15 21.1 387.95 21.5 387.8 21.9 387.6 22.3 387.4 22.7 387.2 23.15 387.05 23.55 386.9 23.95 386.5 24.8 386.25 25.55 386.1 25.95 386 26.3 385.9 26.7 385.85 27 385.65 27.7 385.5 28.35 385.4 29.05 385.35 29.7 385.3 30.3 385.25 30.95 385.25 31.6 385.25 32.2 385.25 32.55 385.25 32.9 385.25 33.25 385.3 33.65 385.3 34.05 385.35 34.5 385.4 34.9 385.45 35.3 385.5 35.75 385.55 36.15 385.6 36.55 385.7 36.95 385.75 37.4 385.85 37.75 385.9 38.15 386 38.45 386.15 39.15 386.35 39.8 386.55 40.45 386.8 41.05 387 41.7 387.35 42.4 387.7 43.1 388.1 43.85 388.2 44 388.3 44.2 388.4 44.35 388.5 44.5 388.55 44.7 388.6 44.85 388.65 45 388.7 45.15 388.7 45.3 388.7 45.4 388.65 45.55 388.55 45.7 388.45 45.8 388.2 45.9 388 46 387.65 46.1 387.4 46.1 387.15 46.05 386.9 45.95 386.7 45.75 386.5 45.55 386.3 45.4 386.15 45.15 386.05 45 385.8 44.55 385.55 44.1 385.3 43.6 385.05 43.1 384.75 42.55 384.4 41.95 384.05 41.3 383.65 40.65 383.5 40.25 383.35 39.8 383.2 39.3 383.05 38.8 382.85 38.3 382.7 37.75 382.55 37.2 382.45 36.65 382.4 36.1 382.3 35.55 382.2 35 382.15 34.4 382.1 33.85 382.05 33.3 382.05 32.75 382.05 32.2 382.05 31.2 382.15 30.2 382.2 29.25 382.4 28.3 382.5 27.4 382.8 26.55 383.1 25.7 383.5 24.85 383.6 24.55 383.75 24.15 383.95 23.8 384.15 23.4 384.35 23.05 384.5 22.65 384.7 22.3 384.85 21.95 385.05 21.6 385.25 21.25 385.45 20.9 385.65 20.6 385.85 20.25 385.95 20 386.1 19.75 386.2 19.5 386.35 19.35 386.5 19.15 386.65 19 386.9 18.8 387.1 18.65 387.3 18.6 387.55 18.55 387.8 18.55 388.1 18.65 388.35 18.75 388.55 18.85 388.7 18.9
M 405.05 21.4
Q 405.2 21.6 405.35 21.8 405.45 22 405.5 22.2 405.55 22.45 405.55 22.6
L 405.65 35.9 406.6 35.9
Q 407.1 35.9 407.4 36 407.75 36.15 407.9 36.4 408 36.65 408.1 36.95 408.2 37.3 408.2 37.6 408.2 38.05 408.1 38.35 408 38.65 407.9 38.9 407.75 39.2 407.4 39.3 407.1 39.4 406.6 39.4
L 405.65 39.4 405.65 40.8
Q 405.65 41.35 405.5 41.7 405.35 42.05 405.1 42.2 404.8 42.4 404.5 42.45 404.2 42.55 403.9 42.55 403.45 42.55 403.15 42.45 402.8 42.4 402.6 42.2 402.35 42.05 402.2 41.7 402.1 41.35 402.1 40.8
L 402.1 39.4 394.55 39.4
Q 394.35 39.4 394.2 39.4 394.05 39.4 393.9 39.35 393.7 39.35 393.55 39.3 393.35 39.25 393.25 39.15 393.05 39.05 392.95 38.95 392.85 38.8 392.75 38.65 392.6 38.3 392.5 37.9 392.45 37.75 392.45 37.55 392.4 37.4 392.45 37.2 392.5 37.05 392.55 36.85 392.65 36.7 392.7 36.5
L 392.8 36.4 392.95 36.05
Q 393.5 35.15 394.1 34.25 394.65 33.35 395.25 32.45 395.75 31.6 396.35 30.75 396.9 29.85 397.45 28.95 398.05 28.1 398.65 27.15 399.2 26.25 399.75 25.35 400.25 24.4 400.75 23.55 401.3 22.7 401.8 21.95
L 402 21.6
Q 402.2 21.3 402.5 21.1 402.8 20.85 403.2 20.75 403.95 20.6 404.65 21.05 404.85 21.2 405.05 21.4
M 413.15 18.6
Q 413.4 18.65 413.6 18.8 413.75 19 413.95 19.15 414.1 19.35 414.25 19.5 414.35 19.75 414.5 20 414.65 20.25 414.85 20.6 415 20.9 415.15 21.25 415.35 21.6 415.6 21.95 415.75 22.3 415.9 22.65 416.1 23.05 416.3 23.4 416.5 23.8 416.65 24.15 416.85 24.55 417.05 24.85 417.35 25.7 417.6 26.55 417.85 27.4 418.05 28.3 418.25 29.25 418.3 30.2 418.4 31.2 418.4 32.2 418.4 32.75 418.4 33.3 418.35 33.85 418.3 34.4 418.25 35 418.15 35.55 418.1 36.1 418 36.65 417.85 37.2 417.7 37.75 417.55 38.3 417.4 38.8 417.25 39.3 417.1 39.8 416.95 40.25 416.75 40.65 416.05 42 415.45 43.1 414.85 44.15 414.45 45 414.3 45.15 414.15 45.4 414 45.55 413.8 45.75 413.55 45.95 413.3 46.05 413.05 46.1 412.8 46.1 412.45 46 412.25 45.9 412 45.8 411.95 45.7 411.65 45.4 411.75 45.15 411.75 45 411.8 44.85 411.85 44.7 411.95 44.5 412.05 44.35 412.15 44.2 412.25 44 412.35 43.85 413.2 42.4 413.7 41.05 414.15 39.8 414.5 38.45 414.55 38.15 414.65 37.75 414.7 37.4 414.8 36.95 414.8 36.55 414.9 36.15 414.95 35.75 415 35.3 415.05 34.9 415.05 34.5 415.1 34.05 415.15 33.65 415.15 33.25 415.15 32.9 415.15 32.55 415.15 32.2 415.15 31.6 415.15 30.95 415.15 30.3 415.1 29.7 415.05 29.05 414.9 28.35 414.8 27.7 414.65 27 414.55 26.7 414.45 26.3 414.3 25.95 414.2 25.55 413.85 24.8 413.55 23.95 413.4 23.55 413.25 23.15 413.1 22.7 412.9 22.3 412.65 21.9 412.5 21.5 412.3 21.1 412.15 20.75 411.95 20.45 411.75 20.1 411.6 19.8 411.6 19.45 411.6 19.35 411.65 19.2 411.7 19.05 411.8 18.9 411.9 18.85 412.1 18.75 412.3 18.65 412.55 18.55 412.85 18.55 413.15 18.6
M 402 27.75
Q 401.8 28.1 401.55 28.55 401.25 28.95 400.95 29.45 400.65 30 400.3 30.5 399.95 31.05 399.55 31.6 399.2 32.2 398.85 32.75 398.55 33.3 398.2 33.85 397.45 35.05 396.8 35.95
L 402 35.95 402 27.75
M 366.35 34.7
Q 366 34.7 365.75 34.65 365.45 34.65 365.2 34.65 364.7 34.65 364.15 34.5
L 364.15 38.85 368.75 38.85 368.75 34.45
Q 368.6 34.45 368.5 34.5 368.4 34.5 368.3 34.5 367.85 34.55 367.35 34.6 366.85 34.65 366.35 34.7
M 368.6 23.75
Q 367.6 23.5 366.3 23.5 365 23.5 364 23.75 363 24.05 362.3 24.55 361.55 25.15 361.2 25.85 360.85 26.6 360.85 27.5 360.85 29.3 362.3 30.35 363 30.9 364 31.15 365 31.45 366.3 31.45 367.6 31.45 368.6 31.15 369.6 30.9 370.3 30.35 371.65 29.3 371.65 27.5 371.65 26.6 371.35 25.85 371 25.15 370.3 24.55 369.6 24.05 368.6 23.75
M 317.35 24.15
L 307 24.15 307 24.85
Q 307 24.95 307 25.05 307.05 25.1 307.05 25.2 307.05 25.3 307.05 25.4 307.05 25.45 307.1 25.55 307.7 25.75 308.35 25.85 308.95 25.95 309.6 26.05 310.25 26.15 310.85 26.15 311.4 26.2 312 26.2 312.7 26.2 313.35 26.15 313.95 26.15 314.45 26.05 314.9 26.05 315.3 25.95 315.75 25.9 316.1 25.8 316.65 25.75 317 25.55 317.15 25.5 317.25 25.45
L 317.35 25.35 317.35 24.15
M 270.75 30
Q 270.3 29.75 269.85 29.75 269.3 29.75 268.9 29.95 268.45 30.2 268.2 30.7 267.85 31.2 267.7 31.8 267.6 32.4 267.6 33.1 267.6 33.8 267.7 34.35 267.85 34.9 268.2 35.35 268.45 35.85 268.9 36.1 269.3 36.35 269.85 36.35 270.3 36.35 270.75 36.05 271 35.95 271.15 35.75 271.3 35.6 271.45 35.35 271.6 35.15 271.7 34.9 271.85 34.65 271.95 34.3 272.05 34.05 272.1 33.75 272.15 33.45 272.15 33.1 272.15 32.75 272.1 32.45 272.05 32.1 271.95 31.8 271.85 31.5 271.7 31.25 271.6 30.95 271.45 30.7 271.3 30.5 271.15 30.3 271 30.15 270.75 30
M 244.45 24.4
Q 244.8 24.1 244.8 23.7 244.8 23.3 244.45 23 244.1 22.65 243.45 22.45 242.75 22.25 241.75 22.15 240.8 22 239.6 22 238.4 22 237.45 22.15 236.5 22.25 235.85 22.45 235.1 22.65 234.75 23 234.4 23.3 234.4 23.7 234.4 24.1 234.75 24.4 235.1 24.7 235.85 24.9 236.5 25.1 237.45 25.2 238.4 25.35 239.6 25.35 240.8 25.35 241.75 25.2 242.75 25.1 243.45 24.9 244.1 24.7 244.45 24.4
M 211.2 38.15
Q 210.95 38.15 210.8 38.2 210.65 38.25 210.55 38.3 210.4 38.4 210.35 38.55 210.3 38.7 210.3 38.9
L 210.3 41.75
Q 210.3 42 210.45 42.15 210.6 42.35 210.85 42.5 211.1 42.65 211.4 42.75 211.7 42.85 212.05 42.95 212.45 43 212.85 43.05 213.2 43.1 213.6 43.15 213.95 43.15 214.3 43.15 214.65 43.15 214.95 43.15 215.35 43.15 215.75 43.15 216.1 43.15 216.55 43.1 216.9 43.05 217.25 43 217.6 43 217.85 42.95 218.2 42.9 218.5 42.8 218.8 42.75 219.1 42.7 219.15 42.65 219.35 42.55 219.5 42.45 219.7 42.35 219.85 42.2 219.95 42.05 220.05 41.9 220.05 41.75
L 220.05 38.9
Q 220.05 38.7 219.95 38.55 219.9 38.4 219.75 38.3 219.65 38.25 219.45 38.2 219.3 38.15 219.1 38.15
L 211.2 38.15
M 178 27.6
L 178 26.05 176.85 26.05 176.85 27.85
Q 176.85 28 176.85 28.1 176.85 28.25 176.85 28.35 176.85 28.5 176.85 28.6 176.85 28.7 176.9 28.75 176.9 28.9 176.95 28.95 177 29.05 177.05 29.1 177.1 29.15 177.15 29.2 177.25 29.2 177.35 29.2 177.45 29.2 177.55 29.2 177.65 29.2 177.75 29.15 177.8 29.15 177.85 29.15 177.85 29.1 177.9 29.1 177.95 28.9 177.95 28.75 178 28.55 178 28.4 178 28.2 178 28 178 27.85 178 27.6
M 185.05 27.7
L 185.05 26.05 183.9 26.05 183.9 28
Q 183.9 28.25 183.9 28.45 183.95 28.65 184 28.85 184 29.05 184.15 29.1 184.3 29.2 184.55 29.2 184.6 29.2 184.65 29.2 184.75 29.2 184.8 29.15 184.85 29.15 184.9 29.15 184.9 29.1 184.95 29.1 185 28.95 185 28.8 185.05 28.6 185.05 28.45 185.05 28.3 185.05 28.1 185.05 27.9 185.05 27.7
M 143.95 23.9
Q 143.35 24.1 142.9 24.55 142 25.5 142 27.2 142 28.8 142.9 29.7 143.35 30.2 143.95 30.4 144.6 30.65 145.45 30.65 146.2 30.65 146.8 30.4 147.4 30.2 147.85 29.7 148.3 29.25 148.5 28.6 148.75 28 148.75 27.2 148.75 26.35 148.5 25.7 148.3 25.05 147.85 24.55 146.95 23.65 145.45 23.65 144.6 23.65 143.95 23.9
M 100.4 24.4
L 90.05 24.4 90.05 25.15
Q 90.05 25.3 90.05 25.35 90.05 25.45 90.05 25.55 90.05 25.65 90.05 25.75 90.05 25.8 90.1 25.9 91.2 26.35 92.5 26.4 93.15 26.5 93.75 26.55 94.35 26.6 94.95 26.6 95.65 26.6 96.3 26.55 96.9 26.55 97.4 26.45 97.9 26.4 98.3 26.35 98.75 26.3 99.1 26.2 99.4 26.2 99.6 26.1 99.85 26.05 100 25.95 100.2 25.9 100.25 25.8 100.35 25.75 100.4 25.7
L 100.4 24.4 Z"/>

<path fill="#FFFFFF" stroke="none" d="
M 413.6 18.8
Q 413.4 18.65 413.15 18.6 412.85 18.55 412.55 18.55 412.3 18.65 412.1 18.75 411.9 18.85 411.8 18.9 411.7 19.05 411.65 19.2 411.6 19.35 411.6 19.45 411.6 19.8 411.75 20.1 411.95 20.45 412.15 20.75 412.3 21.1 412.5 21.5 412.65 21.9 412.9 22.3 413.1 22.7 413.25 23.15 413.4 23.55 413.55 23.95 413.85 24.8 414.2 25.55 414.3 25.95 414.45 26.3 414.55 26.7 414.65 27 414.8 27.7 414.9 28.35 415.05 29.05 415.1 29.7 415.15 30.3 415.15 30.95 415.15 31.6 415.15 32.2 415.15 32.55 415.15 32.9 415.15 33.25 415.15 33.65 415.1 34.05 415.05 34.5 415.05 34.9 415 35.3 414.95 35.75 414.9 36.15 414.8 36.55 414.8 36.95 414.7 37.4 414.65 37.75 414.55 38.15 414.5 38.45 414.15 39.8 413.7 41.05 413.2 42.4 412.35 43.85 412.25 44 412.15 44.2 412.05 44.35 411.95 44.5 411.85 44.7 411.8 44.85 411.75 45 411.75 45.15 411.65 45.4 411.95 45.7 412 45.8 412.25 45.9 412.45 46 412.8 46.1 413.05 46.1 413.3 46.05 413.55 45.95 413.8 45.75 414 45.55 414.15 45.4 414.3 45.15 414.45 45 414.85 44.15 415.45 43.1 416.05 42 416.75 40.65 416.95 40.25 417.1 39.8 417.25 39.3 417.4 38.8 417.55 38.3 417.7 37.75 417.85 37.2 418 36.65 418.1 36.1 418.15 35.55 418.25 35 418.3 34.4 418.35 33.85 418.4 33.3 418.4 32.75 418.4 32.2 418.4 31.2 418.3 30.2 418.25 29.25 418.05 28.3 417.85 27.4 417.6 26.55 417.35 25.7 417.05 24.85 416.85 24.55 416.65 24.15 416.5 23.8 416.3 23.4 416.1 23.05 415.9 22.65 415.75 22.3 415.6 21.95 415.35 21.6 415.15 21.25 415 20.9 414.85 20.6 414.65 20.25 414.5 20 414.35 19.75 414.25 19.5 414.1 19.35 413.95 19.15 413.75 19 413.6 18.8
M 405.35 21.8
Q 405.2 21.6 405.05 21.4 404.85 21.2 404.65 21.05 403.95 20.6 403.2 20.75 402.8 20.85 402.5 21.1 402.2 21.3 402 21.6
L 401.8 21.95
Q 401.3 22.7 400.75 23.55 400.25 24.4 399.75 25.35 399.2 26.25 398.65 27.15 398.05 28.1 397.45 28.95 396.9 29.85 396.35 30.75 395.75 31.6 395.25 32.45 394.65 33.35 394.1 34.25 393.5 35.15 392.95 36.05
L 392.8 36.4 392.7 36.5
Q 392.65 36.7 392.55 36.85 392.5 37.05 392.45 37.2 392.4 37.4 392.45 37.55 392.45 37.75 392.5 37.9 392.6 38.3 392.75 38.65 392.85 38.8 392.95 38.95 393.05 39.05 393.25 39.15 393.35 39.25 393.55 39.3 393.7 39.35 393.9 39.35 394.05 39.4 394.2 39.4 394.35 39.4 394.55 39.4
L 402.1 39.4 402.1 40.8
Q 402.1 41.35 402.2 41.7 402.35 42.05 402.6 42.2 402.8 42.4 403.15 42.45 403.45 42.55 403.9 42.55 404.2 42.55 404.5 42.45 404.8 42.4 405.1 42.2 405.35 42.05 405.5 41.7 405.65 41.35 405.65 40.8
L 405.65 39.4 406.6 39.4
Q 407.1 39.4 407.4 39.3 407.75 39.2 407.9 38.9 408 38.65 408.1 38.35 408.2 38.05 408.2 37.6 408.2 37.3 408.1 36.95 408 36.65 407.9 36.4 407.75 36.15 407.4 36 407.1 35.9 406.6 35.9
L 405.65 35.9 405.55 22.6
Q 405.55 22.45 405.5 22.2 405.45 22 405.35 21.8
M 401.55 28.55
Q 401.8 28.1 402 27.75
L 402 35.95 396.8 35.95
Q 397.45 35.05 398.2 33.85 398.55 33.3 398.85 32.75 399.2 32.2 399.55 31.6 399.95 31.05 400.3 30.5 400.65 30 400.95 29.45 401.25 28.95 401.55 28.55
M 388.85 19.45
Q 388.85 19.2 388.7 18.9 388.55 18.85 388.35 18.75 388.1 18.65 387.8 18.55 387.55 18.55 387.3 18.6 387.1 18.65 386.9 18.8 386.65 19 386.5 19.15 386.35 19.35 386.2 19.5 386.1 19.75 385.95 20 385.85 20.25 385.65 20.6 385.45 20.9 385.25 21.25 385.05 21.6 384.85 21.95 384.7 22.3 384.5 22.65 384.35 23.05 384.15 23.4 383.95 23.8 383.75 24.15 383.6 24.55 383.5 24.85 383.1 25.7 382.8 26.55 382.5 27.4 382.4 28.3 382.2 29.25 382.15 30.2 382.05 31.2 382.05 32.2 382.05 32.75 382.05 33.3 382.1 33.85 382.15 34.4 382.2 35 382.3 35.55 382.4 36.1 382.45 36.65 382.55 37.2 382.7 37.75 382.85 38.3 383.05 38.8 383.2 39.3 383.35 39.8 383.5 40.25 383.65 40.65 384.05 41.3 384.4 41.95 384.75 42.55 385.05 43.1 385.3 43.6 385.55 44.1 385.8 44.55 386.05 45 386.15 45.15 386.3 45.4 386.5 45.55 386.7 45.75 386.9 45.95 387.15 46.05 387.4 46.1 387.65 46.1 388 46 388.2 45.9 388.45 45.8 388.55 45.7 388.65 45.55 388.7 45.4 388.7 45.3 388.7 45.15 388.65 45 388.6 44.85 388.55 44.7 388.5 44.5 388.4 44.35 388.3 44.2 388.2 44 388.1 43.85 387.7 43.1 387.35 42.4 387 41.7 386.8 41.05 386.55 40.45 386.35 39.8 386.15 39.15 386 38.45 385.9 38.15 385.85 37.75 385.75 37.4 385.7 36.95 385.6 36.55 385.55 36.15 385.5 35.75 385.45 35.3 385.4 34.9 385.35 34.5 385.3 34.05 385.3 33.65 385.25 33.25 385.25 32.9 385.25 32.55 385.25 32.2 385.25 31.6 385.25 30.95 385.3 30.3 385.35 29.7 385.4 29.05 385.5 28.35 385.65 27.7 385.85 27 385.9 26.7 386 26.3 386.1 25.95 386.25 25.55 386.5 24.8 386.9 23.95 387.05 23.55 387.2 23.15 387.4 22.7 387.6 22.3 387.8 21.9 387.95 21.5 388.15 21.1 388.35 20.75 388.55 20.45 388.7 20.1 388.75 19.95 388.8 19.8 388.85 19.65 388.85 19.45
M 374.65 24.5
Q 374.35 23.85 373.85 23.3 373.4 22.7 372.8 22.25 372.2 21.8 371.45 21.4 370.7 21.05 369.9 20.8 369.05 20.55 368.15 20.4 367.25 20.3 366.3 20.3 365.25 20.3 364.35 20.4 363.45 20.55 362.65 20.8 361.8 21.05 361.1 21.4 360.4 21.8 359.8 22.25 359.2 22.7 358.75 23.3 358.3 23.85 357.95 24.5 357.6 25.2 357.45 25.95 357.3 26.65 357.3 27.5 357.3 28.15 357.4 28.8 357.55 29.4 357.8 30 358 30.6 358.35 31.15 358.65 31.7 359.15 32.15 359.55 32.55 360 32.9 360.45 33.25 360.95 33.5 360.85 33.65 360.8 33.85 360.75 34.05 360.75 34.25
L 360.75 38.85 354.45 38.85
Q 354.05 38.85 353.75 38.95 353.5 39.1 353.35 39.3 353.2 39.55 353.15 39.85 353.05 40.15 353.05 40.45 353.05 40.8 353.15 41.05 353.2 41.3 353.35 41.55 353.5 41.8 353.75 41.9 354.05 42 354.45 42
L 378 42
Q 378.5 42 378.75 41.9 379.05 41.8 379.15 41.55 379.3 41.3 379.35 41.05 379.4 40.8 379.4 40.45 379.4 40.15 379.35 39.85 379.3 39.55 379.15 39.3 379.05 39.1 378.75 38.95 378.5 38.85 378 38.85
L 372.05 38.85 372.05 34.25
Q 372.05 33.95 371.95 33.7 371.9 33.5 371.75 33.35 372 33.2 372.25 33.05 372.55 32.9 372.8 32.7 374.05 31.75 374.65 30.45 375.3 29.15 375.3 27.5 375.3 25.85 374.65 24.5
M 366.3 23.5
Q 367.6 23.5 368.6 23.75 369.6 24.05 370.3 24.55 371 25.15 371.35 25.85 371.65 26.6 371.65 27.5 371.65 29.3 370.3 30.35 369.6 30.9 368.6 31.15 367.6 31.45 366.3 31.45 365 31.45 364 31.15 363 30.9 362.3 30.35 360.85 29.3 360.85 27.5 360.85 26.6 361.2 25.85 361.55 25.15 362.3 24.55 363 24.05 364 23.75 365 23.5 366.3 23.5
M 365.75 34.65
Q 366 34.7 366.35 34.7 366.85 34.65 367.35 34.6 367.85 34.55 368.3 34.5 368.4 34.5 368.5 34.5 368.6 34.45 368.75 34.45
L 368.75 38.85 364.15 38.85 364.15 34.5
Q 364.7 34.65 365.2 34.65 365.45 34.65 365.75 34.65
M 336.25 21.25
Q 336.05 21.35 335.9 21.6 335.75 21.85 335.7 22.1 335.6 22.4 335.6 22.65 335.6 22.95 335.65 23.25 335.75 23.55 335.9 23.8 336.1 24.35 336.85 24.35
L 338.7 24.35
Q 338.75 24.8 338.75 25.2 338.75 25.35 338.75 25.4 338.75 25.45 338.75 25.55 338.75 25.6 338.75 25.7 338.75 25.75 338.75 25.8 338.65 26.55 338.55 27.35 338.5 28.1 338.35 28.85 338.25 29.6 338.1 30.3 337.9 31.05 337.7 31.7 337.4 32.45 337.1 33.1 336.8 33.8 336.5 34.4 336.15 35 335.75 35.55 335.35 36.1 334.9 36.6 334.8 36.8 334.75 36.95 334.7 37.1 334.7 37.3 334.7 37.7 334.85 38.05 335 38.35 335.3 38.6 335.65 38.85 335.95 38.95 336.3 39.05 336.65 39.05 336.9 39.05 337.1 38.95 337.3 38.9 337.45 38.65 338.1 38 338.65 37.2 339.2 36.45 339.7 35.55 340.15 34.7 340.55 33.8 340.95 32.9 341.2 31.9 341.55 30.9 341.8 29.9 342 28.85 342.15 27.8 342.25 26.8 342.3 25.75 342.4 24.7 342.4 23.65 342.4 23.35 342.35 23.1 342.35 22.85 342.3 22.6 342.25 22.35 342.15 22.15 342.05 21.95 341.95 21.8 341.8 21.65 341.6 21.5 341.35 21.4 341.1 21.3 340.8 21.25 340.4 21.2 340.05 21.15 339.55 21.15
L 336.85 21.15
Q 336.5 21.15 336.25 21.25
M 328.85 21.15
Q 328.55 21.15 328.3 21.3 328.05 21.4 327.9 21.65 327.7 21.9 327.65 22.15 327.55 22.45 327.55 22.8 327.55 23.1 327.65 23.35 327.75 23.6 327.9 23.8 328.1 24.05 328.35 24.15 328.55 24.25 328.85 24.25
L 331.3 24.25
Q 331.3 24.35 331.3 24.45 331.3 24.5 331.35 24.55 331.35 24.65 331.35 24.7 331.35 24.8 331.35 24.85 331.35 25 331.35 25.1 331.35 25.15 331.35 25.25 331.3 25.35 331.3 25.5 331.3 25.6 331.3 25.7 331.2 26.35 331.15 26.95 331.05 27.6 330.95 28.2 330.85 28.85 330.7 29.45 330.55 30.05 330.35 30.65 330.15 31.15 329.85 31.7 329.6 32.2 329.3 32.65 329 33.15 328.65 33.6 328.3 34.05 327.9 34.4 327.45 34.85 327.45 35.4 327.45 35.7 327.55 35.95 327.7 36.2 327.9 36.4 328 36.6 328.15 36.7 328.3 36.85 328.4 36.9 328.55 36.95 328.7 36.95 328.9 37 329.05 37 329.25 37 329.45 36.95 329.6 36.95 329.75 36.85 330.45 36.35 331.05 35.75 331.65 35.05 332.15 34.25 332.65 33.4 333 32.55 333.4 31.65 333.65 30.7 333.95 29.75 334.2 28.8 334.4 27.85 334.55 26.9 334.6 25.95 334.7 25.1 334.75 24.25 334.75 23.45 334.75 22.9 334.65 22.45 334.55 22.05 334.3 21.75 334.1 21.6 333.9 21.5 333.7 21.4 333.4 21.3 333.1 21.25 332.75 21.2 332.4 21.15 331.95 21.15
L 328.85 21.15
M 345.6 19.25
Q 345.45 19.5 345.45 19.9
L 345.45 45.65
Q 345.45 46 345.6 46.25 345.7 46.5 345.9 46.65 346.1 46.75 346.4 46.85 346.65 46.9 347.05 46.9 347.4 46.9 347.7 46.85 348 46.75 348.25 46.65 348.5 46.5 348.6 46.25 348.75 46 348.75 45.65
L 348.75 32.05 351.65 32.05
Q 352 32.05 352.3 31.9 352.55 31.8 352.75 31.55 352.9 31.3 353 31 353.1 30.75 353.1 30.4 353.1 30.1 353 29.8 352.9 29.55 352.75 29.3 352.4 28.85 351.65 28.85
L 348.75 28.85 348.75 19.9
Q 348.75 19.5 348.6 19.25 348.5 19 348.25 18.85 348 18.75 347.7 18.65 347.4 18.6 347.05 18.6 346.65 18.6 346.4 18.65 346.1 18.75 345.9 18.85 345.7 19 345.6 19.25
M 318.65 35.15
Q 318.25 35.05 317.65 35.05
L 305.25 35.05
Q 304.9 35.05 304.6 35.2 304.35 35.3 304.2 35.5 303.95 35.7 303.85 36 303.75 36.25 303.75 36.6 303.75 37.25 304.1 37.55 304.5 37.85 305.25 37.85
L 317.05 37.85
Q 317.15 38 317.2 38.15 317.2 38.25 317.2 38.4
L 317.2 38.65
Q 317.2 38.85 317.2 39 317.15 39.1 317.05 39.2
L 306.4 39.2
Q 305.8 39.2 305.35 39.3 304.9 39.45 304.55 39.65 304.2 39.85 304 40.25 303.8 40.65 303.8 41.2
L 303.8 41.4
Q 303.8 41.7 303.8 41.95 303.8 42.2 303.85 42.4 303.85 42.65 303.85 42.9 303.85 43.15 303.85 43.4 303.85 43.95 304.05 44.4 304.3 44.85 304.7 45.2 305.1 45.55 305.6 45.8 306.1 46.05 306.75 46.25 307.35 46.4 308 46.55 308.65 46.65 309.4 46.75 310.1 46.8 310.75 46.85 311.4 46.9 312 46.9 313.6 46.9 315.05 46.7 315.75 46.6 316.4 46.5 317 46.4 317.6 46.3 318.85 46.05 320 45.75 320.5 45.65 320.8 45.25 320.95 45 321.05 44.8 321.1 44.55 321.1 44.35 321.1 43.8 320.75 43.45 320.6 43.3 320.35 43.2 320.1 43.15 319.8 43.15 319.6 43.15 319.45 43.15 319.25 43.15 319 43.2 318.55 43.35 318.05 43.45 317.5 43.55 317 43.7 316.5 43.75 315.95 43.85 315.45 43.95 314.85 44 314.2 44.1 313.5 44.1 312.85 44.15 312.1 44.15 311.55 44.15 310.95 44.1 310.4 44.1 309.8 44.05 308.55 43.85 307.55 43.5 307.5 43.35 307.45 43.15 307.45 42.95 307.45 42.7
L 307.45 42.55
Q 307.45 42.45 307.45 42.4 307.45 42.3 307.45 42.2 307.45 42.15 307.5 42.05 307.5 42 307.55 41.9
L 317.65 41.9
Q 318 41.9 318.3 41.9 318.6 41.85 318.85 41.8 319.05 41.75 319.3 41.65 319.55 41.55 319.8 41.4 319.95 41.3 320.1 41.1 320.25 40.95 320.4 40.7 320.5 40.45 320.55 40.15 320.6 39.85 320.6 39.5
L 320.7 39.5
Q 320.7 38.4 320.6 37.55 320.55 37.1 320.45 36.75 320.35 36.45 320.2 36.15 319.95 35.65 319.4 35.35 319.1 35.2 318.65 35.15
M 324.3 33.8
Q 324.7 33.8 324.95 33.7 325.25 33.55 325.4 33.3 325.5 33.1 325.6 32.85 325.7 32.55 325.7 32.25 325.7 31.95 325.6 31.65 325.5 31.35 325.4 31.1 325.05 30.65 324.3 30.65
L 314.05 30.65 314.05 29.35
Q 314.45 29.35 314.85 29.3 315.2 29.25 315.65 29.15 316.5 29.05 317.3 28.9 318.15 28.75 318.9 28.55 319.35 28.45 319.75 28.25 320.15 28 320.4 27.65 320.95 26.9 320.95 25.45
L 320.95 20.4
Q 320.95 20.25 320.9 20.1 320.8 19.95 320.75 19.8 320.6 19.7 320.5 19.6 320.4 19.5 320.25 19.4 320.05 19.3 319.7 19.25 319.55 19.2 319.35 19.2 319.2 19.15 319.05 19.15 318.8 19.15 318.55 19.25 318.25 19.3 317.95 19.4 317.65 19.55 317.5 19.8 317.35 20.05 317.35 20.4
L 317.35 21.3 307 21.3 307 20.4
Q 307 20.25 306.95 20.1 306.9 19.95 306.8 19.8 306.7 19.7 306.6 19.6 306.5 19.5 306.35 19.4 306.15 19.3 305.8 19.25 305.65 19.2 305.5 19.2 305.3 19.15 305.2 19.15 304.9 19.15 304.65 19.25 304.35 19.3 304.05 19.4 303.75 19.55 303.6 19.8 303.45 20.05 303.45 20.4
L 303.45 25.1
Q 303.45 25.95 303.6 26.55 303.75 27.15 304.05 27.5 304.3 27.9 304.7 28.2 305.05 28.45 305.5 28.55 306.35 28.8 307.2 28.95 308 29.1 308.8 29.2 309.25 29.3 309.65 29.3 310.05 29.35 310.45 29.35
L 310.45 30.65 300.1 30.65
Q 299.8 30.65 299.55 30.75 299.3 30.9 299.15 31.1 299 31.35 298.95 31.65 298.85 31.95 298.85 32.25 298.85 32.55 298.95 32.85 299 33.1 299.15 33.3 299.3 33.55 299.55 33.7 299.8 33.8 300.1 33.8
L 324.3 33.8
M 307 24.15
L 317.35 24.15 317.35 25.35 317.25 25.45
Q 317.15 25.5 317 25.55 316.65 25.75 316.1 25.8 315.75 25.9 315.3 25.95 314.9 26.05 314.45 26.05 313.95 26.15 313.35 26.15 312.7 26.2 312 26.2 311.4 26.2 310.85 26.15 310.25 26.15 309.6 26.05 308.95 25.95 308.35 25.85 307.7 25.75 307.1 25.55 307.05 25.45 307.05 25.4 307.05 25.3 307.05 25.2 307.05 25.1 307 25.05 307 24.95 307 24.85
L 307 24.15
M 274.7 29.45
Q 274.4 28.95 274 28.45 273.65 28 273.2 27.65 272.75 27.3 272.25 27 271.7 26.8 271.1 26.65 270.5 26.55 269.85 26.55 269.25 26.55 268.65 26.65 268.1 26.8 267.55 27 267 27.3 266.55 27.65 266.1 28 265.8 28.4 264.95 29.3 264.5 30.5 264.3 31.1 264.2 31.75 264.1 32.4 264.1 33.1 264.1 33.8 264.2 34.4 264.3 35 264.5 35.6 264.7 36.2 265.05 36.75 265.35 37.25 265.8 37.65 266.1 38.1 266.55 38.45 267 38.8 267.55 39.05 268.1 39.3 268.65 39.4 269.25 39.55 269.85 39.55 270.5 39.55 271.1 39.4 271.7 39.3 272.25 39.05 272.75 38.8 273.2 38.4 273.65 38.05 274 37.6 274.4 37.2 274.7 36.7 275 36.15 275.2 35.6 275.4 35 275.5 34.4 275.6 33.8 275.6 33.1 275.6 32.4 275.5 31.75 275.4 31.15 275.2 30.55 275 30 274.7 29.45
M 269.85 29.75
Q 270.3 29.75 270.75 30 271 30.15 271.15 30.3 271.3 30.5 271.45 30.7 271.6 30.95 271.7 31.25 271.85 31.5 271.95 31.8 272.05 32.1 272.1 32.45 272.15 32.75 272.15 33.1 272.15 33.45 272.1 33.75 272.05 34.05 271.95 34.3 271.85 34.65 271.7 34.9 271.6 35.15 271.45 35.35 271.3 35.6 271.15 35.75 271 35.95 270.75 36.05 270.3 36.35 269.85 36.35 269.3 36.35 268.9 36.1 268.45 35.85 268.2 35.35 267.85 34.9 267.7 34.35 267.6 33.8 267.6 33.1 267.6 32.4 267.7 31.8 267.85 31.2 268.2 30.7 268.45 30.2 268.9 29.95 269.3 29.75 269.85 29.75
M 269.3 18.1
Q 269 18.2 268.8 18.25 268.55 18.4 268.45 18.7 268.3 18.95 268.3 19.4
L 268.3 21.95
Q 267.85 21.95 267.35 21.95 266.85 21.95 266.35 21.9 265.35 21.9 264.45 21.9 263.7 21.9 263.5 22.35 263.35 22.55 263.3 22.85 263.25 23.15 263.25 23.5 263.25 23.8 263.3 24.05 263.35 24.3 263.5 24.55 263.6 24.8 263.85 24.9 264.1 25 264.45 25 267.1 25 269.75 25 271.1 25.05 272.4 25.05 273.7 25.05 275 25.05
L 275.15 25.05
Q 275.6 25.05 275.85 24.95 276.1 24.8 276.3 24.55 276.4 24.3 276.5 24.05 276.55 23.8 276.55 23.5 276.55 23.15 276.45 22.9 276.4 22.6 276.25 22.4 275.95 21.95 275.15 21.95
L 271.55 21.95 271.55 19.4
Q 271.55 18.95 271.4 18.7 271.3 18.4 271.05 18.25 270.8 18.2 270.55 18.1 270.25 18.05 269.95 18.05 269.55 18.05 269.3 18.1
M 283.9 19.3
Q 283.8 19.55 283.8 19.9
L 283.8 28.9 281.2 28.9 281.2 20.45
Q 281.2 20.1 281.05 19.85 280.95 19.55 280.7 19.45 280.45 19.35 280.2 19.3 279.95 19.25 279.65 19.25 279.25 19.25 278.95 19.3 278.6 19.35 278.35 19.45 278.1 19.55 278 19.85 277.85 20.1 277.85 20.45
L 277.85 44.85
Q 277.85 45.25 278 45.5 278.1 45.75 278.35 45.9 278.6 46 278.95 46.1 279.25 46.15 279.65 46.15 279.95 46.15 280.2 46.1 280.45 46 280.7 45.9 280.95 45.75 281.05 45.5 281.2 45.25 281.2 44.85
L 281.2 32.05 283.8 32.05 283.8 45.7
Q 283.8 46.05 283.9 46.3 284.05 46.6 284.3 46.7 284.5 46.85 284.8 46.9 285.1 46.95 285.4 46.95 285.75 46.95 286.1 46.9 286.4 46.85 286.65 46.7 286.9 46.6 287 46.3 287.15 46.05 287.15 45.7
L 287.15 19.9
Q 287.15 19.55 287 19.3 286.9 19.05 286.65 18.9 286.4 18.8 286.1 18.75 285.75 18.7 285.4 18.7 285.1 18.7 284.8 18.75 284.5 18.8 284.3 18.9 284.05 19.05 283.9 19.3
M 247.8 36.5
Q 247.55 36.05 247.15 35.75 246.7 35.5 246.25 35.35 245.75 35.25 245.2 35.25
L 232.55 35.25
Q 231.8 35.25 231.4 35.6 231.05 35.95 231.05 36.6 231.05 36.95 231.15 37.15 231.25 37.4 231.5 37.55 231.85 37.8 232.55 37.8
L 244.35 37.8
Q 244.4 38 244.45 38.15 244.45 38.25 244.45 38.35 244.5 38.45 244.5 38.55
L 244.5 38.8
Q 244.5 38.95 244.45 39 244.45 39.1 244.45 39.2 244.4 39.45 244.35 39.55
L 233.7 39.55
Q 233.15 39.55 232.7 39.65 232.2 39.75 231.85 39.9 231.5 40.1 231.3 40.45 231.1 40.85 231.1 41.4
L 231.1 43.45 231.15 43.45
Q 231.15 44 231.35 44.45 231.55 44.85 231.95 45.2 232.4 45.55 232.9 45.8 233.4 46.05 234 46.25 234.6 46.4 235.25 46.55 235.9 46.65 236.65 46.75 237.3 46.8 237.95 46.85 238.55 46.9 239.1 46.9 239.95 46.9 240.7 46.85 241.5 46.8 242.2 46.7 242.95 46.6 243.6 46.5 244.25 46.4 244.85 46.3 245.95 46.05 246.65 45.95 246.95 45.85 247.15 45.8
L 247.3 45.75
Q 247.55 45.7 247.75 45.6 247.95 45.45 248.1 45.3 248.25 45.05 248.35 44.85 248.4 44.65 248.4 44.45 248.4 43.9 248.05 43.55 247.9 43.35 247.65 43.25 247.4 43.15 247.15 43.15 246.95 43.15 246.75 43.2 246.5 43.25 246.3 43.3
L 246.15 43.3
Q 246 43.35 245.75 43.45 245.45 43.5 245.1 43.55 244.75 43.65 244.3 43.75 243.8 43.85 243.25 43.9 242.7 44 242.1 44.1 241.45 44.15 240.8 44.2 240.15 44.2 239.45 44.2 238.9 44.2 238.3 44.2 237.75 44.15 237.15 44.1 236.55 44.05 235.95 43.9 235.4 43.75 234.85 43.55 234.85 43.45 234.85 43.4 234.85 43.3 234.85 43.25 234.8 43.1 234.75 43 234.75 42.9 234.75 42.8
L 234.75 42.65
Q 234.75 42.45 234.75 42.3 234.8 42.15 234.85 42
L 245.2 42
Q 245.75 42 246.25 41.9 246.75 41.75 247.15 41.55 247.55 41.3 247.8 40.85 248 40.45 248 39.75
L 248 37.6
Q 248 36.95 247.8 36.5
M 252.25 30.65
Q 252 30.55 251.6 30.55
L 227.45 30.55
Q 226.75 30.55 226.45 30.95 226.3 31.15 226.25 31.4 226.2 31.65 226.2 32 226.2 32.6 226.45 33.05 226.75 33.5 227.45 33.5
L 251.6 33.5
Q 252 33.5 252.25 33.4 252.5 33.3 252.65 33.05 252.75 32.85 252.85 32.55 252.9 32.3 252.9 32 252.9 31.65 252.85 31.4 252.75 31.15 252.65 30.95 252.5 30.75 252.25 30.65
M 244.75 19.6
Q 244.05 19.35 243.2 19.15 242.4 19 241.5 18.9 240.6 18.85 239.6 18.85 238.55 18.85 237.65 18.9 236.75 19 235.95 19.15 235.15 19.35 234.45 19.6 233.8 19.8 233.2 20.1 232.6 20.4 232.2 20.8 231.75 21.2 231.45 21.65 230.8 22.55 230.8 23.7 230.8 24.3 230.95 24.8 231.1 25.3 231.45 25.75 231.75 26.2 232.2 26.55 232.65 26.95 233.25 27.25 233.8 27.55 234.5 27.8 235.25 28 236.05 28.15 236.85 28.35 237.75 28.45 238.7 28.55 239.7 28.6 241.7 28.5 243.35 28.15 244.1 28 244.8 27.75 245.45 27.5 246.1 27.2 246.6 26.9 247.05 26.55 247.5 26.2 247.8 25.75 248.1 25.3 248.25 24.8 248.4 24.3 248.4 23.7 248.4 23.1 248.25 22.6 248.1 22.05 247.8 21.65 247.5 21.2 247.05 20.8 246.6 20.4 246.05 20.1 245.45 19.8 244.75 19.6
M 244.8 23.7
Q 244.8 24.1 244.45 24.4 244.1 24.7 243.45 24.9 242.75 25.1 241.75 25.2 240.8 25.35 239.6 25.35 238.4 25.35 237.45 25.2 236.5 25.1 235.85 24.9 235.1 24.7 234.75 24.4 234.4 24.1 234.4 23.7 234.4 23.3 234.75 23 235.1 22.65 235.85 22.45 236.5 22.25 237.45 22.15 238.4 22 239.6 22 240.8 22 241.75 22.15 242.75 22.25 243.45 22.45 244.1 22.65 244.45 23 244.8 23.3 244.8 23.7
M 222.15 35.1
Q 221.65 34.95 221.1 34.95
L 209.2 34.95
Q 208 34.95 207.4 35.5 207 35.8 206.85 36.2 206.7 36.65 206.7 37.2
L 206.7 42.7
Q 206.7 43.3 206.85 43.75 207 44.25 207.4 44.55 207.7 44.85 208.2 45.1 208.65 45.35 209.3 45.5 209.5 45.55 210 45.7 210.3 45.75 210.65 45.8 211 45.85 211.45 45.9 211.85 45.95 212.3 46 212.75 46.05 213.3 46.1 213.8 46.15 214.35 46.2 214.9 46.2 215.5 46.2 216.55 46.2 218 46.1 218.65 46.05 219.35 45.95 220 45.8 220.65 45.65 221.25 45.45 221.8 45.2 222.3 44.9 222.75 44.55 223.2 44.2 223.4 43.75 223.65 43.3 223.65 42.7
L 223.65 37.2
Q 223.65 36.65 223.45 36.2 223.3 35.8 222.95 35.5 222.6 35.2 222.15 35.1
M 210.8 38.2
Q 210.95 38.15 211.2 38.15
L 219.1 38.15
Q 219.3 38.15 219.45 38.2 219.65 38.25 219.75 38.3 219.9 38.4 219.95 38.55 220.05 38.7 220.05 38.9
L 220.05 41.75
Q 220.05 41.9 219.95 42.05 219.85 42.2 219.7 42.35 219.5 42.45 219.35 42.55 219.15 42.65 219.1 42.7 218.8 42.75 218.5 42.8 218.2 42.9 217.85 42.95 217.6 43 217.25 43 216.9 43.05 216.55 43.1 216.1 43.15 215.75 43.15 215.35 43.15 214.95 43.15 214.65 43.15 214.3 43.15 213.95 43.15 213.6 43.15 213.2 43.1 212.85 43.05 212.45 43 212.05 42.95 211.7 42.85 211.4 42.75 211.1 42.65 210.85 42.5 210.6 42.35 210.45 42.15 210.3 42 210.3 41.75
L 210.3 38.9
Q 210.3 38.7 210.35 38.55 210.4 38.4 210.55 38.3 210.65 38.25 210.8 38.2
M 215.45 24.05
L 212.8 24.05
Q 212 24.05 211.8 24.4 211.65 24.55 211.6 24.85 211.55 25.1 211.55 25.45 211.55 25.75 211.6 26 211.65 26.25 211.8 26.45 212 26.9 212.8 26.9
L 215.45 26.9 215.45 31.6
Q 215.45 32 215.55 32.25 215.7 32.5 215.95 32.6 216.2 32.75 216.5 32.8 216.8 32.85 217.1 32.85 217.45 32.85 217.75 32.8 218 32.75 218.2 32.6 218.35 32.5 218.45 32.25 218.55 32 218.55 31.6
L 218.55 20.75
Q 218.55 19.75 218.2 19.55 217.8 19.4 217.1 19.4 216.8 19.4 216.5 19.4 216.2 19.45 215.95 19.55 215.7 19.65 215.55 19.95 215.45 20.25 215.45 20.75
L 215.45 24.05
M 207.55 19.75
Q 207.4 19.65 207.15 19.6 206.95 19.55 206.65 19.55 206.35 19.55 206.1 19.65 205.8 19.75 205.55 19.85 205.3 20.05 205.15 20.3 205 20.55 205 20.9
L 205 22.25
Q 205 22.7 204.95 23.15 204.85 23.65 204.7 24.1 204.5 24.6 204.3 25.1 204.05 25.6 203.8 26.1 203.5 26.6 203.1 27.1 202.75 27.6 202.35 28.05 201.5 29.05 200.35 29.75 200.15 29.95 200 30.2 199.9 30.4 199.95 30.65 199.95 30.8 200 31 200.05 31.15 200.15 31.35 200.25 31.55 200.35 31.7 200.45 31.85 200.55 32 200.7 32.15 200.85 32.25 201 32.35 201.15 32.45 201.3 32.5 201.4 32.55 201.5 32.6 201.6 32.6 201.9 32.6 202.25 32.45 202.65 32.3 203.05 32 203.75 31.45 204.5 30.65 204.85 30.25 205.2 29.85 205.55 29.4 205.85 28.95 206.15 28.6 206.35 28.2 206.55 27.8 206.7 27.5 207.25 28.55 208.3 29.75 209.3 30.95 210.85 31.9 211.2 32 211.4 32.05 211.45 32.1 211.55 32.15 211.65 32.2 211.75 32.2 211.9 32.2 212.1 32.15 212.25 32.1 212.45 32.05 212.65 32 212.75 31.85 212.9 31.75 213 31.6 213.1 31.5 213.2 31.4 213.3 31.25 213.4 31.1 213.5 31 213.55 30.85 213.6 30.75 213.6 30.65 213.6 30.4 213.55 30.25 213.45 30.1 213.3 29.95 213.15 29.85 213 29.7 212.85 29.55 212.65 29.3 212.15 29 211.75 28.6 211.3 28.25 210.9 27.8 210.5 27.4 210.15 26.95 209.8 26.5 209.5 26 208.95 25.1 208.6 24.1 208.4 23.65 208.3 23.25 208.25 22.8 208.25 22.4 208.2 22.05 208.2 21.75 208.2 21.45 208.2 21.2 208.15 20.7 208 20.3 207.85 19.9 207.55 19.75
M 223.8 20
Q 223.8 19.6 223.7 19.35 223.55 19.05 223.35 18.95 223.1 18.85 222.8 18.8 222.55 18.8 222.25 18.8 221.9 18.8 221.6 18.8 221.3 18.85 221.1 18.95 220.85 19.05 220.75 19.35 220.65 19.6 220.65 20
L 220.65 31.9
Q 220.65 32.6 221.1 32.9 221.3 33 221.6 33.1 221.9 33.15 222.25 33.15 222.55 33.15 222.8 33.1 223.1 33 223.35 32.9 223.8 32.6 223.8 31.9
L 223.8 20
M 180.95 33.5
Q 180.25 33.5 179.85 33.9 179.65 34.15 179.55 34.4 179.45 34.7 179.45 35 179.45 35.35 179.55 35.6 179.65 35.9 179.85 36.1 180.05 36.3 180.3 36.4 180.6 36.5 180.95 36.5
L 192.95 36.5
Q 193 36.7 193.05 36.85 193.1 37.05 193.1 37.2
L 193.1 37.45
Q 193.1 37.65 193.05 37.85 193 38 192.95 38.15
L 182.5 38.15
Q 181.25 38.15 180.4 38.6 180 38.85 179.8 39.25 179.55 39.7 179.55 40.35 179.55 40.7 179.55 41.05 179.6 41.4 179.6 41.7 179.6 42.4 179.6 43.15 179.6 43.6 179.7 44.05 179.7 44.2 179.8 44.4 179.85 44.55 180 44.75 180.15 44.9 180.3 45.05 180.5 45.25 180.7 45.4 180.85 45.55 181.1 45.65 181.4 45.75 181.75 45.9 182.1 46 182.5 46.15 182.9 46.25 183.4 46.3 183.85 46.4 184.35 46.45 184.8 46.5 185.25 46.6 185.7 46.65 186.1 46.65 186.55 46.7 187.05 46.75 187.5 46.75 187.9 46.75 188.25 46.75 188.6 46.75 189.35 46.75 190.1 46.7 190.85 46.65 191.55 46.6 192.2 46.5 192.8 46.4 193.35 46.3 193.8 46.25 194.4 46.1 194.9 46 195.4 45.85 195.9 45.7 196.2 45.65 196.45 45.55 196.7 45.4 196.85 45.15 196.95 44.95 197 44.7 197.1 44.45 197.1 44.25 197.1 43.8 197 43.5 196.85 43.2 196.65 43 196.45 42.85 196.25 42.75 196 42.65 195.8 42.65 195.7 42.65 195.6 42.65 195.5 42.7 195.4 42.7 195.25 42.7 195.15 42.75 195 42.75 194.9 42.8 194.85 42.8 194.7 42.8 194.55 42.85 194.35 42.95 194.05 43 193.7 43.1 193.4 43.15 192.95 43.2 192.55 43.25 192 43.3 191.45 43.35 190.85 43.45 190.2 43.5 189.55 43.5 188.9 43.55 188.25 43.55 187.9 43.55 187.55 43.55 187.25 43.55 186.9 43.55 186.6 43.5 186.25 43.45 185.95 43.45 185.65 43.4 185.3 43.35 184.95 43.3 184.65 43.25 184.35 43.2 184 43.15 183.75 43.05 183.5 43 183.3 42.85 183.25 42.75 183.2 42.55 183.15 42.35 183.15 42.1
L 183.15 41.75
Q 183.15 41.55 183.15 41.4 183.2 41.25 183.25 41.05
L 193.65 41.05
Q 194.2 41.05 194.75 40.9 195.25 40.75 195.75 40.45 196.2 40.1 196.45 39.6 196.65 39.1 196.65 38.4
L 196.7 38.4
Q 196.7 37.85 196.7 37.35 196.65 36.85 196.65 36.4 196.6 35.95 196.55 35.6 196.45 35.2 196.3 34.85 196.15 34.55 195.9 34.3 195.7 34.05 195.4 33.85 195.1 33.65 194.65 33.55 194.2 33.5 193.65 33.5
L 180.95 33.5
M 175.65 19.45
Q 175.3 19.45 175.05 19.5 174.8 19.55 174.65 19.7 174.45 19.8 174.4 20.05 174.3 20.3 174.35 20.65
L 174.35 28.95
Q 174.3 29.85 174.5 30.4 174.7 31 175.05 31.3 175.45 31.65 176.05 31.8 176.7 32 177.55 32 178.35 32 178.9 31.8 179.45 31.65 179.8 31.3 180.1 31 180.25 30.4 180.45 29.8 180.45 29
L 180.45 20.85
Q 180.45 20.4 180.35 20.15 180.25 19.85 180.1 19.7 179.95 19.55 179.7 19.5 179.5 19.45 179.25 19.45 178.45 19.45 178.25 19.7 178.1 19.85 178.05 20.15 178 20.4 178 20.8
L 178 22.9 176.85 22.9 176.85 20.8
Q 176.85 20.4 176.75 20.15 176.65 19.85 176.55 19.7 176.35 19.55 176.15 19.5 175.95 19.45 175.65 19.45
M 178 26.05
L 178 27.6
Q 178 27.85 178 28 178 28.2 178 28.4 178 28.55 177.95 28.75 177.95 28.9 177.9 29.1 177.85 29.1 177.85 29.15 177.8 29.15 177.75 29.15 177.65 29.2 177.55 29.2 177.45 29.2 177.35 29.2 177.25 29.2 177.15 29.2 177.1 29.15 177.05 29.1 177 29.05 176.95 28.95 176.9 28.9 176.9 28.75 176.85 28.7 176.85 28.6 176.85 28.5 176.85 28.35 176.85 28.25 176.85 28.1 176.85 28 176.85 27.85
L 176.85 26.05 178 26.05
M 190.75 19.2
Q 190.35 19.2 190.05 19.25 189.8 19.3 189.6 19.4 189.4 19.45 189.35 19.75 189.2 20 189.2 20.45
L 189.2 30.8
Q 189.2 31.2 189.35 31.45 189.4 31.7 189.6 31.85 189.8 31.95 190.05 32 190.35 32.1 190.75 32.05 191.05 32.1 191.25 32 191.5 31.95 191.7 31.85 191.9 31.7 192 31.45 192.1 31.2 192.1 30.8
L 192.1 26.75 193.8 26.75 193.8 31.15
Q 193.8 31.55 193.9 31.8 194 32.05 194.2 32.15 194.4 32.25 194.65 32.3 194.95 32.35 195.3 32.35 195.65 32.35 195.9 32.3 196.15 32.25 196.35 32.15 196.6 32.05 196.7 31.8 196.8 31.55 196.8 31.15
L 196.8 19.85
Q 196.8 19.4 196.7 19.15 196.6 18.9 196.35 18.8 196.15 18.7 195.85 18.65 195.6 18.6 195.3 18.6 194.95 18.6 194.65 18.65 194.4 18.7 194.2 18.8 194 18.9 193.9 19.15 193.8 19.4 193.8 19.85
L 193.8 23.65 192.1 23.65 192.1 20.45
Q 192.1 20 192 19.75 191.9 19.5 191.7 19.4 191.3 19.2 190.75 19.2
M 186.25 19.45
Q 185.65 19.45 185.35 19.7 185.2 19.85 185.15 20.15 185.05 20.4 185.05 20.8
L 185.05 22.9 183.9 22.9 183.9 20.8
Q 183.9 20.4 183.8 20.15 183.75 19.85 183.6 19.7 183.5 19.55 183.25 19.5 183.05 19.45 182.8 19.45 182.45 19.45 182.15 19.5 181.9 19.55 181.7 19.7 181.55 19.8 181.45 20.05 181.35 20.3 181.35 20.65
L 181.35 28.95
Q 181.35 30.7 182.15 31.3 182.55 31.65 183.15 31.8 183.8 32 184.65 32 185.4 32 185.95 31.8 186.5 31.65 186.85 31.3 187.15 31 187.3 30.4 187.5 29.85 187.5 29
L 187.5 20.85
Q 187.5 20.4 187.4 20.15 187.35 19.85 187.2 19.7 187.1 19.55 186.85 19.5 186.6 19.45 186.25 19.45
M 185.05 26.05
L 185.05 27.7
Q 185.05 27.9 185.05 28.1 185.05 28.3 185.05 28.45 185.05 28.6 185 28.8 185 28.95 184.95 29.1 184.9 29.1 184.9 29.15 184.85 29.15 184.8 29.15 184.75 29.2 184.65 29.2 184.6 29.2 184.55 29.2 184.3 29.2 184.15 29.1 184 29.05 184 28.85 183.95 28.65 183.9 28.45 183.9 28.25 183.9 28
L 183.9 26.05 185.05 26.05
M 140.75 36.7
L 137.95 36.7
Q 137.55 36.75 137.3 36.9 137.05 37.05 136.9 37.25 136.75 37.45 136.7 37.7 136.6 37.95 136.6 38.25 136.6 38.6 136.7 38.85 136.75 39.1 136.9 39.35 137.05 39.6 137.3 39.7 137.55 39.85 137.95 39.85
L 140.75 39.85
Q 141.65 39.85 142.5 39.85 143.35 39.85 144.15 39.8 144.95 39.8 145.75 39.75 146.55 39.7 147.35 39.65 148.1 39.6 148.9 39.55 149.7 39.5 150.45 39.4 151.2 39.35 151.95 39.25 152.75 39.15 153.5 39 154.3 38.85 154.6 38.25 154.7 38 154.75 37.75 154.75 37.45 154.7 37.15
L 154.75 37.2
Q 154.65 36.55 154.2 36.1 153.95 35.9 153.65 35.85 153.35 35.8 153.05 35.85 152.2 35.95 151.45 36.05 150.65 36.15 149.9 36.2 149.15 36.3 148.4 36.35 147.65 36.45 146.95 36.45 146.2 36.55 145.5 36.6 144.75 36.65 143.95 36.65 143.2 36.7 142.35 36.7 141.55 36.7 140.75 36.7
M 156.35 19.2
Q 156.25 19.45 156.25 19.85
L 156.25 45.35
Q 156.25 45.75 156.35 46.05 156.45 46.35 156.65 46.55 157.05 46.9 157.85 46.9 158.1 46.9 158.45 46.8 158.7 46.7 159.05 46.55 159.3 46.35 159.45 46.05 159.6 45.75 159.6 45.35
L 159.6 19.85
Q 159.6 19.65 159.55 19.5 159.5 19.35 159.45 19.2 159.35 19.1 159.25 19 159.15 18.9 159.05 18.8 158.85 18.75 158.7 18.7 158.55 18.7 158.4 18.65 158.25 18.65 158.1 18.65 157.95 18.65 157.75 18.65 157.4 18.65 157.1 18.7 156.8 18.7 156.6 18.8 156.45 18.9 156.35 19.2
M 145.4 20.75
Q 143.8 20.75 142.6 21.15 141.35 21.6 140.4 22.45 138.65 24.15 138.65 27.2 138.65 30.15 140.4 31.9 141.35 32.75 142.6 33.2 143.8 33.6 145.4 33.6 148.45 33.6 150.25 31.9 152.05 30.15 152.05 27.2 152.05 24.15 150.25 22.45 148.45 20.75 145.4 20.75
M 142.9 24.55
Q 143.35 24.1 143.95 23.9 144.6 23.65 145.45 23.65 146.95 23.65 147.85 24.55 148.3 25.05 148.5 25.7 148.75 26.35 148.75 27.2 148.75 28 148.5 28.6 148.3 29.25 147.85 29.7 147.4 30.2 146.8 30.4 146.2 30.65 145.45 30.65 144.6 30.65 143.95 30.4 143.35 30.2 142.9 29.7 142 28.8 142 27.2 142 25.5 142.9 24.55
M 135.3 36.85
Q 135.4 36.6 135.45 36.35 135.5 36.05 135.5 35.75 135.5 35.45 135.45 35.15 135.4 34.9 135.3 34.65 135.2 34.4 134.95 34.3 134.7 34.15 134.3 34.15
L 110.1 34.15
Q 109.75 34.15 109.55 34.3 109.3 34.4 109.15 34.65 109 34.9 108.95 35.15 108.85 35.45 108.85 35.75 108.85 36.05 108.95 36.35 109 36.6 109.15 36.85 109.3 37.05 109.55 37.2 109.75 37.3 110.1 37.3
L 120.25 37.3 120.25 46.05
Q 120.25 46.45 120.4 46.75 120.55 47 120.85 47.15 121.15 47.2 121.5 47.3 121.8 47.35 122.2 47.35 122.5 47.35 122.75 47.3 123.05 47.2 123.35 47.15 123.65 47 123.8 46.75 123.95 46.45 123.95 46.05
L 123.95 37.3 134.3 37.3
Q 134.7 37.3 134.95 37.2 135.2 37.05 135.3 36.85
M 124.05 21.1
L 124.05 19.85
Q 124.05 19.7 124 19.55 123.95 19.4 123.9 19.3 123.8 19.15 123.7 19.1 123.6 19 123.5 18.9 123.35 18.85 123.15 18.75 123 18.7 122.85 18.65 122.65 18.65 122.5 18.6 122.35 18.6 122.25 18.6 122.1 18.6 121.95 18.6 121.8 18.65 121.65 18.65 121.45 18.7 121.3 18.75 121.15 18.85 121.05 18.9 120.9 19 120.75 19.1 120.65 19.15 120.55 19.3 120.4 19.4 120.35 19.55 120.3 19.7 120.3 19.85
L 120.3 21.1
Q 120.2 21.75 119.95 22.35 119.75 22.95 119.45 23.45 119.1 23.9 118.65 24.35 118.25 24.75 117.75 25.1 117.25 25.45 116.7 25.8 116.15 26.1 115.55 26.35 114.9 26.65 114.25 26.95 113.6 27.2 112.95 27.45 112.65 27.65 112.5 27.9 112.35 28.15 112.35 28.55 112.35 28.95 112.45 29.25 112.6 29.6 112.85 29.85 113.3 30.4 113.9 30.4 114.05 30.4 114.25 30.35 114.4 30.35 114.55 30.3 115.75 29.85 116.85 29.35 118 28.8 119 28.15 120.05 27.55 120.85 26.85 121.65 26.15 122.25 25.35 122.8 26.2 123.55 26.9 124.35 27.6 125.25 28.2 126.25 28.85 127.3 29.35 128.45 29.85 129.75 30.3
L 129.75 30.2
Q 129.8 30.3 129.9 30.3 130.05 30.35 130.15 30.35 130.55 30.35 130.8 30.2 131.1 30.05 131.3 29.8 131.5 29.5 131.6 29.2 131.7 28.9 131.7 28.5 131.7 28.35 131.65 28.2 131.65 28 131.6 27.85 131.4 27.6 131.15 27.4 130.45 27.15 129.85 26.9 129.2 26.6 128.6 26.3 128 26.05 127.45 25.7 126.9 25.4 126.4 25.05 125.95 24.75 125.55 24.35 125.15 23.9 124.85 23.45 124.25 22.5 124.05 21.1
M 89.25 37.1
Q 89 37 88.7 37 88.05 37 87.55 37.3 87.25 37.45 87.1 37.75 86.95 38.05 86.95 38.45 86.95 38.5 86.9 38.6 86.9 38.65 86.9 38.8 86.85 38.95 86.85 39.15 86.8 39.35 86.8 39.65 86.8 40.35 86.9 41.25 86.95 41.7 87 42.05 87.05 42.4 87.1 42.65 87.1 42.95 87.15 43.15 87.25 43.4 87.35 43.65 87.4 43.85 87.5 44.1 87.6 44.3 87.75 44.5 87.85 44.7 88.05 44.95 88.2 45.1 88.45 45.3 88.65 45.5 88.9 45.65 89.15 45.75 89.45 45.9 90.15 46.15 91 46.3 91.8 46.45 92.7 46.55 93.55 46.6 94.35 46.65 95.1 46.7 95.85 46.7 96.65 46.7 97.4 46.65 98.1 46.6 98.8 46.5 99.45 46.4 100 46.25 100.55 46.15 101 46.05 101.5 45.9 101.85 45.8 102.25 45.7 102.5 45.65 102.75 45.55 102.9 45.45
L 103 45.4
Q 103.35 45.25 103.6 45.05 103.85 44.85 104 44.65 104.1 44.4 104.15 44.2 104.2 43.95 104.2 43.7 104.2 42.9 103.9 42.55 103.6 42.15 103 42.15 102.9 42.15 102.85 42.15 102.8 42.15 102.75 42.15 102.65 42.15 102.6 42.2 102.5 42.2 102.45 42.2 102.45 42.25 102.3 42.3 102.15 42.35 101.85 42.4 101.55 42.5 101.15 42.6 100.7 42.7 100.25 42.8 99.7 42.9 99.1 43 98.55 43.1 97.9 43.2 97.2 43.25 96.55 43.3 95.85 43.35 95.1 43.35 94.8 43.35 94.5 43.35 94.2 43.35 93.9 43.3 93.55 43.3 93.25 43.25 92.95 43.25 92.65 43.2 92.3 43.15 92 43.1 91.7 43 91.45 42.95 90.9 42.75 90.55 42.5 90.45 42.25 90.4 42 90.4 41.7 90.35 41.4 90.3 41.15 90.3 40.9 90.3 40.6 90.3 40.35 90.3 39.8 90.3 39.45 90.3 39.1 90.35 38.9 90.35 38.75 90.4 38.65 90.4 38.55 90.4 38.5 90.4 38.05 90.25 37.8 90.1 37.5 89.8 37.3 89.55 37.2 89.25 37.1
M 81.9 32.35
Q 81.8 32.6 81.8 32.9 81.8 33.25 81.9 33.55 82 33.8 82.25 34.05 82.45 34.25 82.7 34.35 82.95 34.45 83.25 34.45
L 94.1 34.45 94.1 38.6
Q 94.1 39 94.25 39.25 94.4 39.55 94.7 39.75 94.95 39.95 95.25 40 95.55 40.1 95.9 40.1 96.25 40.1 96.55 40 96.9 39.95 97.15 39.75 97.7 39.4 97.7 38.6
L 97.7 34.45 107.1 34.45
Q 107.5 34.45 107.8 34.35 108.1 34.25 108.3 34.05 108.45 33.8 108.55 33.55 108.65 33.25 108.65 32.9 108.65 32.6 108.55 32.35 108.45 32.05 108.3 31.8 108.1 31.6 107.8 31.45 107.5 31.35 107.1 31.35
L 83.25 31.35
Q 82.95 31.35 82.7 31.45 82.45 31.6 82.25 31.8 82 32.05 81.9 32.35
M 103.95 20.4
Q 103.95 20.25 103.9 20.1 103.85 19.95 103.75 19.8 103.65 19.7 103.5 19.6 103.4 19.5 103.25 19.4 103 19.3 102.75 19.25 102.55 19.2 102.4 19.2 102.25 19.15 102.1 19.15 101.8 19.15 101.55 19.25 101.25 19.3 101 19.4 100.65 19.55 100.55 19.8 100.4 20.05 100.4 20.4
L 100.4 21.45 90.05 21.45 90.05 20.4
Q 90.05 20.25 89.95 20.1 89.9 19.95 89.8 19.8 89.7 19.7 89.6 19.6 89.5 19.5 89.35 19.4 89.15 19.3 88.85 19.25 88.65 19.2 88.5 19.2 88.35 19.15 88.2 19.15 87.95 19.15 87.65 19.25 87.35 19.3 87.1 19.4 86.75 19.55 86.65 19.8 86.5 20.05 86.5 20.4
L 86.5 25.5
Q 86.5 26.3 86.65 26.9 86.75 27.5 87.05 27.9 87.35 28.3 87.7 28.55 88.1 28.8 88.55 28.9 89.4 29.15 90.2 29.3 91 29.5 91.85 29.55 92.6 29.65 93.4 29.7 94.2 29.75 95 29.75 95.9 29.75 96.8 29.7 97.7 29.65 98.6 29.5 99.5 29.45 100.3 29.3 101.15 29.1 101.9 28.9 102.4 28.8 102.8 28.55 103.15 28.3 103.45 27.95 103.7 27.65 103.85 27.1 103.95 26.55 103.95 25.8
L 103.95 20.4
M 90.05 24.4
L 100.4 24.4 100.4 25.7
Q 100.35 25.75 100.25 25.8 100.2 25.9 100 25.95 99.85 26.05 99.6 26.1 99.4 26.2 99.1 26.2 98.75 26.3 98.3 26.35 97.9 26.4 97.4 26.45 96.9 26.55 96.3 26.55 95.65 26.6 94.95 26.6 94.35 26.6 93.75 26.55 93.15 26.5 92.5 26.4 91.2 26.35 90.1 25.9 90.05 25.8 90.05 25.75 90.05 25.65 90.05 25.55 90.05 25.45 90.05 25.35 90.05 25.3 90.05 25.15
L 90.05 24.4
M 905.5 27.5
Q 905.5 17.15 898.15 9.8 890.85 2.5 880.5 2.5
L 450.35 2.5 450.35 44.5
Q 450.35 54.9 443 62.15 435.75 69.5 425.35 69.5
L 75.25 69.5
Q 64.9 69.5 57.55 62.15 50.25 54.85 50.25 44.5
L 50.25 2.5 27.5 2.5
Q 17.2 2.5 9.8 9.8 2.5 17.2 2.5 27.5
L 2.5 421.65
Q 2.5 432 9.8 439.3 17.15 446.65 27.5 446.65
L 880.5 446.65
Q 890.9 446.65 898.15 439.3 905.5 432.05 905.5 421.65
L 905.5 27.5 Z"/>
</g>

<path id="Layer0_0_1_STROKES" stroke="#569ECC" stroke-width="5" stroke-linejoin="round" stroke-linecap="round" fill="none" d="
M 450.35 2.5
L 880.5 2.5
Q 890.85 2.5 898.15 9.8 905.5 17.15 905.5 27.5
L 905.5 421.65
Q 905.5 432.05 898.15 439.3 890.9 446.65 880.5 446.65
L 27.5 446.65
Q 17.15 446.65 9.8 439.3 2.5 432 2.5 421.65
L 2.5 27.5
Q 2.5 17.2 9.8 9.8 17.2 2.5 27.5 2.5
L 50.25 2.5 450.35 2.5 Z"/>
</defs>

<g transform="matrix( 1, 0, 0, 1, 0,0) ">
<use xlink:href="#Layer0_0_FILL"/>

<use xlink:href="#Layer0_0_1_STROKES"/>
</g>
</svg>
