<?xml version="1.0" encoding="utf-8"?>
<!-- Generator: Adobe Illustrator 23.1.0, SVG Export Plug-In . SVG Version: 6.00 Build 0)  -->
<svg version="1.1" id="레이어_1" xmlns="http://www.w3.org/2000/svg" xmlns:xlink="http://www.w3.org/1999/xlink" x="0px"
	 y="0px" width="19px" height="32px" viewBox="0 0 19 32" style="enable-background:new 0 0 19 32;" xml:space="preserve">
<g>
	<path style="fill:#9D85BE;" d="M1.5,22.5c0-1.1,0.3-2.3,0.9-3.4c0.1-0.1,0.1-0.2,0.2-0.3c0-0.1,0.1-0.1,0.1-0.2
		c0.5-0.8,0.9-1.6,0.9-2.5v-0.3c-0.1-0.9-0.5-1.7-0.9-2.3l-0.3-0.6c-0.6-1-0.9-2-0.9-3.2c0-4.4,3.6-8,8-8s7.9,3.6,7.9,7.9v0.2
		c0,1.5-0.6,2.6-1.2,3.5c-0.1,0.2-0.2,0.5-0.3,0.7c-0.2,0.5-0.4,1-0.6,1.5c-0.1,0.2-0.1,0.5-0.1,0.7c0,0.7,0.4,1.4,0.8,2.1l0.2,0.3
		l0.3,0.4c0.7,1,1.1,2.3,1.1,3.7c0,2.1-0.9,4.2-2.4,5.7s-3.5,2.3-5.6,2.2C5.1,30.5,1.5,26.9,1.5,22.5z"/>
	<path style="fill:#FFFFFF;" d="M17,22.6c0,4.1-3.4,7.5-7.5,7.4C5.4,30,2,26.7,2,22.5c0-1.1,0.3-2.2,0.8-3.2C2.9,19.1,3,19,3.1,18.8
		c0.5-0.8,1-1.7,1-2.7c0-0.1,0-0.2,0-0.3c-0.1-1-0.5-1.8-1-2.6C3,13,2.9,12.8,2.8,12.6c-0.6-1-0.8-1.9-0.8-3c0-4.1,3.3-7.5,7.5-7.5
		c4,0,7.4,3.3,7.4,7.4c0,0.1,0,0.1,0,0.2c0,1.3-0.5,2.3-1.1,3.3c-0.3,0.7-0.7,1.5-1,2.3c-0.1,0.3-0.2,0.6-0.2,0.9
		c0,1,0.6,1.8,1.1,2.6l0.3,0.4C16.7,20.2,17,21.4,17,22.6 M18,22.6c0-1.5-0.4-2.9-1.2-4l-0.3-0.4L16.4,18c-0.4-0.6-0.8-1.2-0.8-1.8
		c0-0.2,0-0.4,0.1-0.5c0.2-0.5,0.4-1,0.6-1.4c0.1-0.3,0.2-0.5,0.3-0.7c0.6-1,1.2-2.2,1.2-3.8V9.6c0-2.3-0.9-4.4-2.5-6
		C13.8,2,11.7,1.1,9.5,1.1C4.8,1.1,1,4.9,1,9.6c0,1.3,0.3,2.4,0.9,3.5l0.3,0.6l0,0l0,0C2.6,14.4,3,15,3,15.8v0.3
		c0,0.8-0.4,1.5-0.8,2.2l0,0l0,0c0,0.1-0.1,0.1-0.1,0.1C2,18.5,2,18.6,1.9,18.8C1.3,20,1,21.2,1,22.4c0,4.7,3.8,8.5,8.5,8.5
		c2.2,0.1,4.3-0.8,5.9-2.4C17.1,27,18,24.8,18,22.6L18,22.6z"/>
</g>
<g>
	<path style="fill:#FFFFFF;" d="M8.1,6.3c0.2,0,0.5,0.2,0.7,0.4C9.1,7,9.2,7.5,9.4,7.9h0.2h0.7V7.1c0-0.2,0-0.4,0-0.6
		c0-0.1,0-0.1,0.1-0.2c0.1-0.1,0.1-0.2,0.3-0.3c0.1,0,0.1,0,0.2,0c0.2,0,0.4,0.1,0.5,0.3c0.1,0.2,0.1,0.7,0.1,0.7c0,5.1,0,5.9,0,5.9
		c0,0.3,0,0.5-0.1,0.8c-0.1,0.2-0.2,0.4-0.5,0.4c-0.1,0-0.2,0-0.3-0.1c-0.3-0.2-0.3-0.8-0.3-1v-0.9l-0.9,0C9.2,13,8.8,13.8,7.9,14
		c-0.4,0.1-0.8,0-1.2-0.2c-0.4-0.2-0.6-0.6-0.7-1c-0.1-0.3-0.2-0.7-0.2-1c0-0.6-0.1-1-0.1-1.5c0-0.4,0-0.8,0.1-1.2
		c0-0.3,0.1-0.6,0.1-0.9c0-0.2,0.1-0.5,0.2-0.7C6.1,7.2,6.2,7,6.4,6.8c0.3-0.3,0.6-0.5,1-0.5c0.1,0,0.2,0,0.2,0
		C7.8,6.3,8,6.3,8.1,6.3z M7.9,12.5c0.2-0.2,0.3-0.5,0.3-0.8c0.1-0.6,0.1-1.2,0.1-1.8c0-0.5,0-1.4-0.2-1.9C8,7.7,7.8,7.6,7.6,7.6
		c-0.2,0-0.4,0.2-0.5,0.4c-0.2,0.6-0.2,1.4-0.2,2.1c0,0.7-0.1,2.4,0.7,2.4C7.7,12.6,7.8,12.5,7.9,12.5z M9.6,9.1c0,0.6,0,1.3,0,1.9
		h0.1h0.7V9.1L9.6,9.1z M13.3,10.5V13c0,0.4,0,0.7-0.1,1c0,0.1-0.1,0.2-0.2,0.2c-0.1,0.1-0.2,0.1-0.4,0.1c-0.4-0.1-0.5-0.6-0.5-0.9
		V7.3c0-0.3,0-0.8,0.2-1c0.2-0.1,0.3-0.2,0.5-0.2c0.2,0,0.3,0.1,0.4,0.4c0.1,0.3,0.1,0.6,0.1,0.9C13.3,8.4,13.3,9.5,13.3,10.5z"/>
	<path style="fill:#FFFFFF;" d="M10.6,24.3c0,0.1,0.1,0.3,0,0.5c-0.1,0.2-0.3,0.3-0.5,0.3h0c-0.3,0-0.4-0.2-0.6-0.4
		c-0.2-0.2-0.4-0.5-0.5-0.6c0,0,0-0.1-0.1-0.1c-0.3-0.5-0.5-0.7-0.5-0.7c0,0-0.2,0.2-0.2,0.2c0,0-0.1,0.1-0.1,0.1
		c-0.1,0.1-0.2,0.3-0.3,0.4s-0.2,0.3-0.4,0.4c0,0-0.1,0.1-0.1,0.1c-0.2,0.2-0.4,0.5-0.7,0.6c-0.1,0-0.1,0-0.2,0
		c-0.2,0-0.3-0.1-0.4-0.2c-0.1-0.1-0.2-0.3-0.2-0.4c0-0.3,0.2-0.5,0.3-0.7l0,0c0-0.1,0.1-0.1,0.1-0.2c0,0,0.1-0.1,0.1-0.1
		c0.1-0.1,0.1-0.2,0.2-0.3c0,0,0-0.1,0.1-0.1c0,0,0,0,0-0.1l0,0C6.7,23.1,6.8,23,6.8,23c0.1-0.1,0.2-0.3,0.2-0.4
		c0.1-0.2,0.2-0.3,0.3-0.4c0.1-0.1,0.1-0.2,0.2-0.3l0-0.1c0.1-0.2,0.1-0.3,0.2-0.4c0-0.2,0-0.4,0-0.7v-1.7c0-0.1,0-0.3,0-0.4
		c0-0.1,0-0.3,0.1-0.4c0-0.1,0.1-0.2,0.1-0.3c0.1-0.1,0.2-0.2,0.4-0.2l0,0c0.1,0,0.2,0,0.3,0c0.1,0,0.1,0.1,0.2,0.1
		C8.9,17.8,8.9,17.9,9,18c0.1,0.1,0.1,0.3,0.1,0.5c0.1,0.6,0.1,1.3,0.1,1.8c0,0.4,0,0.7,0,1.1c0,0.3,0.2,0.6,0.3,0.8
		c0.2,0.3,0.3,0.6,0.5,0.9c0.1,0.1,0.1,0.3,0.2,0.4c0,0.1,0.1,0.1,0.1,0.2c0,0.1,0.1,0.1,0.1,0.2l0,0.1l0,0.1
		C10.6,24.2,10.6,24.2,10.6,24.3z M13,25.4c0,0.1,0,0.1-0.1,0.1c0,0.1-0.1,0.2-0.2,0.2c-0.2,0.1-0.4,0.1-0.5,0.1
		c-0.1,0-0.2-0.1-0.3-0.1c-0.2-0.2-0.2-0.8-0.2-0.8v-6.4c0-0.3,0-0.8,0.2-1c0.1-0.1,0.3-0.2,0.5-0.2c0.2,0,0.5,0.1,0.5,0.4
		c0.1,0.3,0.1,0.6,0.1,0.9v0.1c0,1.1,0,2.2,0,3.2v2.6c0,0.1,0,0.3,0,0.4C13.1,25.1,13.1,25.3,13,25.4z"/>
</g>
</svg>
