
<svg xmlns="http://www.w3.org/2000/svg" version="1.1" xmlns:xlink="http://www.w3.org/1999/xlink" preserveAspectRatio="none" x="0px" y="0px" width="1280px" height="490px" viewBox="0 0 1280 490">
<defs>
<g id="Layer1_0_FILL">
<path fill="#3567D7" stroke="none" d="
M 503.05 441.55
Q 501.1 443.05 500 445.3 498.9 447.6 498.5 450.3 498.15 453.05 498.15 455.5 498.15 462.85 500.6 466.9 503.05 470.95 508.2 470.95 510.75 470.95 512.6 469.95 514.45 468.85 515.7 466.9 516.95 464.95 517.55 462.05 518.15 459.15 518.15 455.5 518.15 453.85 517.95 452.1 517.8 450.3 517.4 448.6 517 446.9 516.3 445.35 515.6 443.8 514.45 442.6 513.4 441.45 511.8 440.75 510.25 440.1 508.2 440.1 505 440.1 503.05 441.55
M 508.2 444.45
Q 509.4 444.45 510.45 445.05 511.45 445.6 512.2 446.9 512.9 448.25 513.3 450.35 513.65 452.5 513.65 455.5 513.65 458.6 513.3 460.75 512.9 462.85 512.2 464.15 511.45 465.5 510.45 466.05 509.4 466.65 508.2 466.65 506.9 466.65 505.9 466.05 504.9 465.5 504.2 464.15 503.45 462.85 503.1 460.75 502.7 458.6 502.7 455.5 502.7 452.5 503.1 450.35 503.45 448.25 504.2 446.9 504.9 445.6 505.9 445.05 506.9 444.45 508.2 444.45
M 490.1 440.2
Q 488.7 440 487.55 440 483.8 440 481.25 441.3 478.7 442.65 477.1 444.9 475.55 447.1 474.85 450.15 474.15 453.15 474.15 456.55 474.15 464 476.7 467.55 479.25 471.1 483.95 471.1 486.25 471.1 488.1 470.3 489.95 469.5 491.25 468.05 492.55 466.7 493.2 464.75 493.9 462.9 493.9 460.7 493.9 458.4 493.2 456.6 492.5 454.75 491.2 453.45 489.95 452.15 488.15 451.45 486.4 450.75 484.2 450.75 483.45 450.75 482.65 451 481.85 451.2 481.1 451.55 480.35 451.9 479.75 452.35 479.15 452.8 478.8 453.3 479.05 451.35 479.65 449.65 480.2 448 481.2 446.75 482.2 445.5 483.65 444.8 485.15 444.15 487.2 444.15 488.6 444.15 489.8 444.25 490.95 444.35 492 444.75 492.55 445 492.65 444.45
L 492.75 441.25
Q 492.8 440.85 492.45 440.75 491.55 440.4 490.1 440.2
M 489.5 460.9
Q 489.5 463.75 488 465.45 486.45 467.1 484.05 467.1 482.95 467.1 481.95 466.6 481 466.1 480.3 465.2 479.6 464.3 479.2 463.05 478.8 461.9 478.8 460.5 478.8 458.05 480.3 456.5 481.75 454.95 484.35 454.95 486.8 454.95 488.15 456.55 489.5 458.1 489.5 460.9
M 564.8 445.35
Q 564.1 443.8 562.95 442.6 561.9 441.45 560.3 440.75 558.75 440.1 556.7 440.1 553.5 440.1 551.55 441.55 549.6 443.05 548.5 445.3 547.4 447.6 547 450.3 546.65 453.05 546.65 455.5 546.65 462.85 549.1 466.9 551.55 470.95 556.7 470.95 559.25 470.95 561.1 469.95 562.95 468.85 564.2 466.9 565.45 464.95 566.05 462.05 566.65 459.15 566.65 455.5 566.65 453.85 566.45 452.1 566.3 450.3 565.9 448.6 565.5 446.9 564.8 445.35
M 554.4 445.05
Q 555.4 444.45 556.7 444.45 557.9 444.45 558.95 445.05 559.95 445.6 560.7 446.9 561.4 448.25 561.8 450.35 562.15 452.5 562.15 455.5 562.15 458.6 561.8 460.75 561.4 462.85 560.7 464.15 559.95 465.5 558.95 466.05 557.9 466.65 556.7 466.65 555.4 466.65 554.4 466.05 553.4 465.5 552.7 464.15 551.95 462.85 551.6 460.75 551.2 458.6 551.2 455.5 551.2 452.5 551.6 450.35 551.95 448.25 552.7 446.9 553.4 445.6 554.4 445.05
M 532.45 440.1
Q 529.25 440.1 527.3 441.55 525.35 443.05 524.25 445.3 523.15 447.6 522.75 450.3 522.4 453.05 522.4 455.5 522.4 462.85 524.85 466.9 527.3 470.95 532.45 470.95 535 470.95 536.85 469.95 538.7 468.85 539.95 466.9 541.2 464.95 541.8 462.05 542.4 459.15 542.4 455.5 542.4 453.85 542.2 452.1 542.05 450.3 541.65 448.6 541.25 446.9 540.55 445.35 539.85 443.8 538.7 442.6 537.65 441.45 536.05 440.75 534.5 440.1 532.45 440.1
M 530.15 445.05
Q 531.15 444.45 532.45 444.45 533.65 444.45 534.7 445.05 535.7 445.6 536.45 446.9 537.15 448.25 537.55 450.35 537.9 452.5 537.9 455.5 537.9 458.6 537.55 460.75 537.15 462.85 536.45 464.15 535.7 465.5 534.7 466.05 533.65 466.65 532.45 466.65 531.15 466.65 530.15 466.05 529.15 465.5 528.45 464.15 527.7 462.85 527.35 460.75 526.95 458.6 526.95 455.5 526.95 452.5 527.35 450.35 527.7 448.25 528.45 446.9 529.15 445.6 530.15 445.05 Z"/>
</g>

<g id="bfbd232323_4_Layer1_0_FILL">
<path fill="#C7E09F" stroke="none" d="
M 307 166.05
Q 307 161.05 302 161.05
L 140 161.05
Q 135 161.05 135 166.05
L 135 203.05
Q 135 208.05 140 208.05
L 302 208.05
Q 307 208.05 307 203.05
L 307 166.05 Z"/>
</g>

<g id="bfbd232323_4_Layer0_0_FILL">
<path fill="#1E1E1E" stroke="none" d="
M 6.9 -11.8
Q 6.2 -12.05 5.15 -12.2 4.05 -12.35 3.2 -12.35 0.45 -12.35 -1.5 -11.35 -3.45 -10.35 -4.6 -8.7 -5.8 -7 -6.3 -4.75 -6.8 -2.5 -6.8 0.05 -6.8 5.65 -4.9 8.3 -3 10.95 0.55 10.95 2.25 10.95 3.65 10.35 5 9.75 6 8.7 6.95 7.65 7.45 6.25 8 4.8 8 3.15 8 1.45 7.45 0.1 6.95 -1.3 5.95 -2.25 5 -3.25 3.7 -3.75 2.35 -4.25 0.7 -4.25 0.15 -4.25 -0.45 -4.1 -1.05 -3.95 -1.6 -3.7 -2.15 -3.45 -2.6 -3.1 -3.1 -2.75 -3.35 -2.4 -3.15 -3.85 -2.7 -5.1 -2.3 -6.35 -1.55 -7.3 -0.8 -8.2 0.3 -8.75 1.4 -9.25 2.95 -9.25 4 -9.25 4.9 -9.15 5.8 -9.1 6.55 -8.8 7 -8.6 7.05 -9
L 7.15 -11.4
Q 7.15 -11.7 6.9 -11.8
M 3.7 0.05
Q 4.65 1.25 4.65 3.3 4.65 5.45 3.55 6.75 2.4 8 0.6 8 -0.25 8 -0.95 7.6 -1.7 7.2 -2.2 6.55 -2.7 5.85 -3.05 4.95 -3.3 4.05 -3.3 3.05 -3.3 1.2 -2.25 0 -1.1 -1.15 0.85 -1.15 2.65 -1.15 3.7 0.05 Z"/>
</g>

<g id="bfbd232323_5_Layer1_0_FILL">
<path fill="#C7E09F" stroke="none" d="
M 307 166.05
Q 307 161.05 302 161.05
L 140 161.05
Q 135 161.05 135 166.05
L 135 203.05
Q 135 208.05 140 208.05
L 302 208.05
Q 307 208.05 307 203.05
L 307 166.05 Z"/>
</g>

<g id="bfbd232323_5_Layer0_0_FILL">
<path fill="#1E1E1E" stroke="none" d="
M 6.6 -8.35
Q 6.05 -9.5 5.25 -10.4 4.4 -11.3 3.25 -11.75 2.05 -12.3 0.5 -12.3 -1.85 -12.3 -3.3 -11.15 -4.8 -10.05 -5.6 -8.35 -6.45 -6.65 -6.75 -4.6 -7 -2.55 -7 -0.7 -7 4.8 -5.15 7.85 -3.3 10.85 0.5 10.85 2.45 10.85 3.8 10.1 5.2 9.3 6.15 7.85 7.1 6.35 7.55 4.2 8 2 8 -0.7 8 -1.95 7.85 -3.3 7.75 -4.6 7.45 -5.9 7.15 -7.2 6.6 -8.35
M 0.5 -9
Q 1.45 -9 2.2 -8.6 2.95 -8.15 3.5 -7.15 4.05 -6.15 4.35 -4.6 4.6 -3 4.6 -0.7 4.6 1.6 4.35 3.2 4.05 4.8 3.5 5.75 2.95 6.75 2.2 7.2 1.45 7.65 0.5 7.65 -0.45 7.65 -1.2 7.2 -1.95 6.75 -2.5 5.75 -3.05 4.8 -3.3 3.2 -3.6 1.6 -3.6 -0.7 -3.6 -3 -3.3 -4.6 -3.05 -6.15 -2.5 -7.15 -1.95 -8.15 -1.2 -8.6 -0.45 -9 0.5 -9 Z"/>
</g>
</defs>

<g transform="matrix( 1, 0, 0, 1, 0,0) ">
<use xlink:href="#Layer1_0_FILL"/>
</g>

<g transform="matrix( 1, 0, 0, 1, 640,204.35) ">
<g transform="matrix( 1, 0, 0, 1, -175,25) ">
<g transform="matrix( 1, 0, 0, 1, -221,-184.55) ">
<use xlink:href="#bfbd232323_4_Layer1_0_FILL"/>
</g>

<g transform="matrix( 1, 0, 0, 1, 0,0) ">
<use xlink:href="#bfbd232323_4_Layer0_0_FILL"/>
</g>
</g>

<g transform="matrix( 1, 0, 0, 1, 0,25) ">
<g transform="matrix( 1, 0, 0, 1, -221,-184.55) ">
<use xlink:href="#bfbd232323_5_Layer1_0_FILL"/>
</g>

<g transform="matrix( 1, 0, 0, 1, 0,0) ">
<use xlink:href="#bfbd232323_5_Layer0_0_FILL"/>
</g>
</g>

<g transform="matrix( 1, 0, 0, 1, 175,25) ">
<g transform="matrix( 1, 0, 0, 1, -221,-184.55) ">
<use xlink:href="#bfbd232323_5_Layer1_0_FILL"/>
</g>

<g transform="matrix( 1, 0, 0, 1, 0,0) ">
<use xlink:href="#bfbd232323_5_Layer0_0_FILL"/>
</g>
</g>

<g transform="matrix( 1, 0, 0, 1, 350,25) ">
<g transform="matrix( 1, 0, 0, 1, -221,-184.55) ">
<use xlink:href="#bfbd232323_5_Layer1_0_FILL"/>
</g>

<g transform="matrix( 1, 0, 0, 1, 0,0) ">
<use xlink:href="#bfbd232323_5_Layer0_0_FILL"/>
</g>
</g>
</g>
</svg>
