
<svg xmlns="http://www.w3.org/2000/svg" version="1.1" xmlns:xlink="http://www.w3.org/1999/xlink" preserveAspectRatio="none" x="0px" y="0px" width="1280px" height="490px" viewBox="0 0 1280 490">
<defs>
<g id="Layer1_0_FILL">
<path fill="#3567D7" stroke="none" d="
M 891.05 470.25
L 891.05 441.45
Q 891.05 440.65 890.9 440.5 890.8 440.35 890.1 440.35
L 888 440.35
Q 887.85 440.35 887.65 440.45 887.45 440.5 887.4 440.6
L 881.25 446.25
Q 881.05 446.45 881.05 446.65 881 446.9 881.15 447.05
L 882.95 449.2
Q 883.1 449.35 883.35 449.3 883.6 449.3 883.85 449.15
L 886.8 446.55 886.8 470.25
Q 886.8 470.75 887.35 470.75
L 890.55 470.75
Q 891.05 470.75 891.05 470.25
M 920.55 445.35
Q 919.85 443.8 918.7 442.6 917.65 441.45 916.05 440.75 914.5 440.1 912.45 440.1 909.25 440.1 907.3 441.55 905.35 443.05 904.25 445.3 903.15 447.6 902.75 450.3 902.4 453.05 902.4 455.5 902.4 462.85 904.85 466.9 907.3 470.95 912.45 470.95 915 470.95 916.85 469.95 918.7 468.85 919.95 466.9 921.2 464.95 921.8 462.05 922.4 459.15 922.4 455.5 922.4 453.85 922.2 452.1 922.05 450.3 921.65 448.6 921.25 446.9 920.55 445.35
M 912.45 444.45
Q 913.65 444.45 914.7 445.05 915.7 445.6 916.45 446.9 917.15 448.25 917.55 450.35 917.9 452.5 917.9 455.5 917.9 458.6 917.55 460.75 917.15 462.85 916.45 464.15 915.7 465.5 914.7 466.05 913.65 466.65 912.45 466.65 911.15 466.65 910.15 466.05 909.15 465.5 908.45 464.15 907.7 462.85 907.35 460.75 906.95 458.6 906.95 455.5 906.95 452.5 907.35 450.35 907.7 448.25 908.45 446.9 909.15 445.6 910.15 445.05 911.15 444.45 912.45 444.45 Z"/>
</g>

<g id="bfbd232323_10_Layer1_0_FILL">
<path fill="#CBE9F3" stroke="none" d="
M 307 166.05
Q 307 161.05 302 161.05
L 140 161.05
Q 135 161.05 135 166.05
L 135 203.05
Q 135 208.05 140 208.05
L 302 208.05
Q 307 208.05 307 203.05
L 307 166.05 Z"/>
</g>

<g id="bfbd232323_10_Layer0_0_FILL">
<path fill="#1E1E1E" stroke="none" d="
M 2.65 -11.3
Q 2.65 -11.9 2.55 -12 2.45 -12.1 1.95 -12.1
L 0.35 -12.1
Q 0.25 -12.1 0.1 -12 -0.05 -11.95 -0.1 -11.9
L -4.7 -7.65
Q -4.85 -7.55 -4.85 -7.35 -4.85 -7.2 -4.75 -7.05
L -3.45 -5.45
Q -3.3 -5.35 -3.1 -5.35 -2.9 -5.4 -2.75 -5.5
L -0.55 -7.4 -0.55 10.35
Q -0.55 10.75 -0.1 10.75
L 2.3 10.75
Q 2.65 10.75 2.65 10.35
L 2.65 -11.3 Z"/>
</g>

<g id="bfbd232323_11_Layer1_0_FILL">
<path fill="#CBE9F3" stroke="none" d="
M 307 166.05
Q 307 161.05 302 161.05
L 140 161.05
Q 135 161.05 135 166.05
L 135 203.05
Q 135 208.05 140 208.05
L 302 208.05
Q 307 208.05 307 203.05
L 307 166.05 Z"/>
</g>

<g id="bfbd232323_11_Layer0_0_FILL">
<path fill="#1E1E1E" stroke="none" d="
M 6.6 -8.35
Q 6.05 -9.5 5.25 -10.4 4.4 -11.3 3.25 -11.75 2.05 -12.3 0.5 -12.3 -1.85 -12.3 -3.3 -11.15 -4.8 -10.05 -5.6 -8.35 -6.45 -6.65 -6.75 -4.6 -7 -2.55 -7 -0.7 -7 4.8 -5.15 7.85 -3.3 10.85 0.5 10.85 2.45 10.85 3.8 10.1 5.2 9.3 6.15 7.85 7.1 6.35 7.55 4.2 8 2 8 -0.7 8 -1.95 7.85 -3.3 7.75 -4.6 7.45 -5.9 7.15 -7.2 6.6 -8.35
M 0.5 -9
Q 1.45 -9 2.2 -8.6 2.95 -8.15 3.5 -7.15 4.05 -6.15 4.35 -4.6 4.6 -3 4.6 -0.7 4.6 1.6 4.35 3.2 4.05 4.8 3.5 5.75 2.95 6.75 2.2 7.2 1.45 7.65 0.5 7.65 -0.45 7.65 -1.2 7.2 -1.95 6.75 -2.5 5.75 -3.05 4.8 -3.3 3.2 -3.6 1.6 -3.6 -0.7 -3.6 -3 -3.3 -4.6 -3.05 -6.15 -2.5 -7.15 -1.95 -8.15 -1.2 -8.6 -0.45 -9 0.5 -9 Z"/>
</g>
</defs>

<g transform="matrix( 1, 0, 0, 1, 0,0) ">
<use xlink:href="#Layer1_0_FILL"/>
</g>

<g transform="matrix( 1, 0, 0, 1, 640,204.35) ">
<g transform="matrix( 1, 0, 0, 1, 175,125) ">
<g transform="matrix( 1, 0, 0, 1, -221,-184.55) ">
<use xlink:href="#bfbd232323_10_Layer1_0_FILL"/>
</g>

<g transform="matrix( 1, 0, 0, 1, 0,0) ">
<use xlink:href="#bfbd232323_10_Layer0_0_FILL"/>
</g>
</g>

<g transform="matrix( 1, 0, 0, 1, 350,125) ">
<g transform="matrix( 1, 0, 0, 1, -221,-184.55) ">
<use xlink:href="#bfbd232323_11_Layer1_0_FILL"/>
</g>

<g transform="matrix( 1, 0, 0, 1, 0,0) ">
<use xlink:href="#bfbd232323_11_Layer0_0_FILL"/>
</g>
</g>
</g>
</svg>
