
<svg xmlns="http://www.w3.org/2000/svg" version="1.1" xmlns:xlink="http://www.w3.org/1999/xlink" preserveAspectRatio="none" x="0px" y="0px" width="1280px" height="520px" viewBox="0 0 1280 520">
<defs>
<g id="vsdvsdn_0_Layer0_0_FILL">
<path fill="#000000" stroke="none" d="
M -319.1 49.1
Q -316.75 48.75 -314.75 48.3 -314.05 48.1 -314.1 47.5
L -314.7 44.2
Q -314.8 44 -314.95 43.8 -315.05 43.65 -315.55 43.8 -317 44.1 -318.65 44.35 -320.35 44.6 -322.05 44.8 -323.8 45 -325.45 45.05 -327.15 45.15 -328.5 45.05 -329.4 45.05 -329.4 44.15
L -329.4 25.75
Q -329.4 24.9 -330.25 24.9
L -334.2 24.9
Q -335 24.9 -335 25.75
L -335 46.85
Q -335 48.4 -334.3 49.05 -333.6 49.65 -331.95 49.8 -330.4 49.9 -328.25 49.9 -326.1 49.85 -323.75 49.6 -321.4 49.45 -319.1 49.1
M -312.35 22.65
Q -312.5 22.85 -312.5 23.3
L -312.5 60.1
Q -312.5 60.6 -312.35 60.75 -312.15 60.85 -311.7 60.85
L -307.65 60.85
Q -307.2 60.85 -307.1 60.75 -306.95 60.6 -306.95 60.1
L -306.95 41.5 -302 41.5
Q -301.65 41.5 -301.4 41.35 -301.2 41.25 -301.2 40.75
L -301.2 37.7
Q -301.2 37.15 -301.4 37.05 -301.65 36.95 -302 36.95
L -306.95 36.95 -306.95 23.3
Q -306.95 22.85 -307.1 22.65 -307.2 22.5 -307.65 22.5
L -311.7 22.5
Q -312.15 22.5 -312.35 22.65
M -30.3 -17.8
Q -30.25 -18 -29.85 -18
L -18.8 -18
Q -18.35 -18 -18.2 -18.1 -18 -18.2 -18 -18.65
L -18 -21.8
Q -18 -22.25 -18.2 -22.4 -18.35 -22.55 -18.8 -22.55
L -33.25 -22.55
Q -34.9 -22.55 -35.4 -22.05 -35.95 -21.55 -35.95 -20
L -35.95 -0.7
Q -35.95 1 -35.25 1.45 -34.55 1.95 -33.15 2 -31.4 2.05 -29.15 2 -26.9 2 -24.5 1.8 -22.1 1.6 -19.9 1.3 -17.65 1.05 -15.95 0.6 -15.55 0.5 -15.35 0.35 -15.2 0.2 -15.3 -0.25
L -15.75 -3.15
Q -15.85 -3.5 -16 -3.65 -16.15 -3.8 -16.6 -3.7 -18.2 -3.45 -19.9 -3.2 -21.6 -3 -23.35 -2.85 -25.05 -2.7 -26.7 -2.65 -28.35 -2.65 -29.8 -2.65 -30.4 -2.65 -30.4 -3.3
L -30.4 -17.4
Q -30.4 -17.65 -30.3 -17.8
M -12.45 -25.55
Q -12.9 -25.55 -13.1 -25.4 -13.25 -25.2 -13.25 -24.75
L -13.25 12.05
Q -13.25 12.55 -13.1 12.7 -12.9 12.8 -12.45 12.8
L -8.4 12.8
Q -7.95 12.8 -7.85 12.7 -7.7 12.55 -7.7 12.05
L -7.7 -6.55 -2.75 -6.55
Q -2.4 -6.55 -2.15 -6.75 -1.95 -6.85 -1.95 -7.35
L -1.95 -10.4
Q -1.95 -10.95 -2.15 -11.05 -2.4 -11.15 -2.75 -11.15
L -7.7 -11.15 -7.7 -24.75
Q -7.7 -25.2 -7.85 -25.4 -7.95 -25.55 -8.4 -25.55
L -12.45 -25.55
M -474.35 -17.7
Q -474.35 -18.15 -474.5 -18.35 -474.6 -18.5 -475.05 -18.5
L -479.1 -18.5
Q -479.55 -18.5 -479.75 -18.35 -479.9 -18.15 -479.9 -17.7
L -479.9 19.1
Q -479.9 19.6 -479.75 19.75 -479.55 19.85 -479.1 19.85
L -475.05 19.85
Q -474.6 19.85 -474.5 19.75 -474.35 19.6 -474.35 19.1
L -474.35 0.5 -469.4 0.5
Q -469.05 0.5 -468.8 0.3 -468.6 0.2 -468.6 -0.3
L -468.6 -3.35
Q -468.6 -3.9 -468.8 -4 -469.05 -4.1 -469.4 -4.1
L -474.35 -4.1 -474.35 -17.7
M -502 -15.55
Q -502.45 -15.55 -502.6 -15.4 -502.8 -15.25 -502.8 -14.75
L -502.8 -11.75
Q -502.8 -11.35 -502.65 -11.15 -502.55 -10.95 -502 -10.95
L -490.85 -10.95
Q -490.15 -10.95 -490.25 -10.15 -491 -4.9 -494.45 -0.45 -497.95 4 -504 7.4 -504.35 7.6 -504.45 7.95 -504.55 8.3 -504.25 8.7
L -502.4 11.5
Q -502.05 11.95 -501.75 11.95 -501.45 11.95 -500.9 11.65 -497.2 9.6 -494.2 6.95 -491.25 4.35 -489.1 1.3 -486.95 -1.75 -485.75 -5.15 -484.55 -8.5 -484.3 -12.15 -484.2 -13.9 -484.85 -14.7 -485.45 -15.55 -487.45 -15.55
L -502 -15.55
M 382.95 52.2
Q 382.95 51.55 382.35 51.55
L 379.15 51.55
Q 378.5 51.55 378.5 52.2
L 378.5 58.55 372.65 58.55 372.65 52.25
Q 372.65 51.6 372.05 51.6
L 368.8 51.6
Q 368.25 51.6 368.25 52.25
L 368.25 69.4
Q 368.25 70.15 368.3 70.6 368.4 71.05 368.7 71.3 368.95 71.55 369.45 71.6 369.95 71.7 370.75 71.7
L 380.5 71.7
Q 382 71.7 382.45 71.25 382.95 70.75 382.95 69.5
L 382.95 52.2
M 373.15 68.1
Q 372.65 68.1 372.65 67.6
L 372.65 62.2 378.5 62.2 378.5 67.6
Q 378.5 68.1 378 68.1
L 373.15 68.1
M 395.4 61.55
Q 395.2 61.45 394.9 61.45
L 390.95 61.45 390.95 50.55
Q 390.95 50.2 390.85 50.05 390.75 49.95 390.35 49.95
L 387.15 49.95
Q 386.8 49.95 386.65 50.05 386.5 50.2 386.5 50.55
L 386.5 80
Q 386.5 80.4 386.65 80.5 386.8 80.6 387.15 80.6
L 390.35 80.6
Q 390.75 80.6 390.85 80.5 390.95 80.4 390.95 80
L 390.95 65.1 394.9 65.1
Q 395.2 65.1 395.4 65 395.55 64.85 395.55 64.5
L 395.55 62.05
Q 395.55 61.6 395.4 61.55
M 284.4 -39.8
Q 284.25 -39.6 284.25 -39.15
L 284.25 -2.35
Q 284.25 -1.85 284.4 -1.7 284.6 -1.6 285.05 -1.6
L 289.1 -1.6
Q 289.55 -1.6 289.65 -1.7 289.8 -1.85 289.8 -2.35
L 289.8 -20.95 294.75 -20.95
Q 295.1 -20.95 295.35 -21.15 295.55 -21.25 295.55 -21.75
L 295.55 -24.8
Q 295.55 -25.35 295.35 -25.45 295.1 -25.55 294.75 -25.55
L 289.8 -25.55 289.8 -39.15
Q 289.8 -39.6 289.65 -39.8 289.55 -39.95 289.1 -39.95
L 285.05 -39.95
Q 284.6 -39.95 284.4 -39.8
M 278.95 -36.95
Q 278.4 -37.05 277.55 -37.05
L 264.3 -37.05
Q 262.8 -37.05 262.2 -36.55 261.55 -36.05 261.55 -34.35
L 261.55 -15.6
Q 261.55 -14.65 261.7 -14.1 261.8 -13.6 262.15 -13.3 262.45 -13 263.05 -12.9 263.6 -12.8 264.55 -12.8
L 277.55 -12.8
Q 278.4 -12.8 278.95 -12.9 279.45 -13 279.75 -13.3 280.05 -13.6 280.15 -14.15 280.3 -14.7 280.3 -15.6
L 280.3 -34.35
Q 280.3 -35.25 280.15 -35.75 280.05 -36.3 279.75 -36.6 279.45 -36.85 278.95 -36.95
M 267.1 -31.7
Q 267.1 -32.25 267.25 -32.4 267.35 -32.5 267.9 -32.5
L 274.15 -32.5
Q 274.6 -32.5 274.7 -32.35 274.75 -32.2 274.75 -31.7
L 274.75 -18.1
Q 274.75 -17.55 274.7 -17.45 274.6 -17.3 274.15 -17.3
L 267.9 -17.3
Q 267.35 -17.3 267.25 -17.4 267.1 -17.55 267.1 -18.1
L 267.1 -31.7
M 141.5 -61.55
L 137.45 -61.55
Q 137 -61.55 136.8 -61.4 136.65 -61.2 136.65 -60.75
L 136.65 -23.95
Q 136.65 -23.45 136.8 -23.3 137 -23.2 137.45 -23.2
L 141.5 -23.2
Q 141.95 -23.2 142.05 -23.3 142.2 -23.45 142.2 -23.95
L 142.2 -42.55 147.15 -42.55
Q 147.5 -42.55 147.75 -42.75 147.95 -42.85 147.95 -43.35
L 147.95 -46.4
Q 147.95 -46.95 147.75 -47.05 147.5 -47.15 147.15 -47.15
L 142.2 -47.15 142.2 -60.75
Q 142.2 -61.2 142.05 -61.4 141.95 -61.55 141.5 -61.55
M 131 -58.1
Q 130.75 -58.4 130.2 -58.55 129.65 -58.7 128.75 -58.7
L 114.7 -58.7
Q 114.25 -58.7 114.05 -58.55 113.9 -58.35 113.9 -57.95
L 113.9 -54.9
Q 113.9 -54.15 114.7 -54.15
L 125.4 -54.15
Q 125.75 -54.15 125.85 -54.05 125.95 -53.95 125.95 -53.6
L 125.95 -48.7
Q 125.95 -48.35 125.85 -48.25 125.75 -48.15 125.4 -48.15
L 116.05 -48.15
Q 114.75 -48.15 114.2 -47.6 113.65 -47.1 113.65 -45.8
L 113.65 -35.2
Q 113.65 -33.65 114.25 -33 114.9 -32.4 116.65 -32.35 118.75 -32.25 121.05 -32.3 123.35 -32.35 125.65 -32.5 127.95 -32.7 130.15 -33 132.35 -33.25 134.15 -33.65 134.55 -33.7 134.7 -33.85 134.85 -34 134.75 -34.45
L 134.3 -37.4
Q 134.25 -37.7 134.15 -37.85 134 -38 133.6 -37.9 130.4 -37.35 126.8 -37.05 123.25 -36.75 119.75 -36.85 119.15 -36.85 119.15 -37.4
L 119.15 -43.35
Q 119.15 -43.85 119.65 -43.85
L 128.75 -43.85
Q 130.15 -43.85 130.8 -44.45 131.5 -45 131.5 -46.7
L 131.5 -55.95
Q 131.5 -56.75 131.4 -57.25 131.3 -57.8 131 -58.1 Z"/>
</g>

<g id="Layer0_1_FILL">
<path fill="#FFFFFF" stroke="none" d="
M 663.1 513.75
L 663.1 393.75 133.05 393.75 133.05 413.75 133.15 495.95
Q 134.2 513.75 153.05 513.75
L 167.1 513.75 251.1 513.75 433.1 513.75 473.1 513.75 500.1 513.75 532.15 513.75 626.1 513.75 663.1 513.75
M 826.1 513.75
L 853.1 513.75 918.1 513.75 952.5 513.75 1046.1 513.75 1053.1 513.75 1077.5 513.75 1173.2 513.75
Q 1192 513.75 1193.15 495.95
L 1193.2 413.75 1193.2 393.75 663.1 393.75 663.1 513.75 674.1 513.75 676.1 513.75 703.1 513.75 732.15 513.75 741.15 513.75 826.1 513.75 Z"/>

<path fill="#E2F3F2" stroke="none" d="
M 663.1 393.75
L 663.1 313.65 153.05 313.65
Q 140.4 313.65 135.75 321.65 133.05 326.3 133.05 333.65
L 133.05 350.15 133.05 353.7 133.05 393.75 663.1 393.75
M 1077.5 313.65
L 1053.1 313.65 1046.1 313.65 952.5 313.65 918.1 313.65 853.1 313.65 826.1 313.65 741.15 313.65 663.1 313.65 663.1 393.75 1193.2 393.75 1193.2 333.65
Q 1193.2 313.65 1173.2 313.65
L 1077.5 313.65 Z"/>
</g>

<path id="vsdvsdn_0_Layer1_0_1_STROKES" stroke="#332D2B" stroke-width="3" stroke-linejoin="miter" stroke-linecap="butt" stroke-miterlimit="10" fill="none" d="
M -425.6 85.15
L -255.65 85.15 -298.1 -42.5 -425.6 85.15 Z"/>

<path id="vsdvsdn_0_Layer1_0_2_STROKES" stroke="#332D2B" stroke-width="3" stroke-linejoin="round" stroke-linecap="round" fill="none" d="
M 85.9 -84.95
L 170.95 -84.95 128.5 42.55 85.9 -84.95 Z
M 214.3 -84.95
L 171.85 85.15 469.45 -42.5 214.3 -84.95 Z
M 255.7 85.15
L 510.85 85.15 383.2 42.55 255.7 85.15 Z
M -254.6 -84.95
L 85.6 85.15 43.15 -42.5 -254.6 -84.95 Z
M -510.65 -42.5
L -510.65 42.55 -425.6 0.1 -510.65 -42.5 Z"/>

<path id="Layer0_1_1_STROKES" stroke="#86BA9E" stroke-width="3" stroke-linejoin="round" stroke-linecap="round" fill="none" d="
M 133.05 393.75
L 133.05 353.7 133.05 350.15 133.05 333.65
Q 133.05 326.3 135.75 321.65 140.4 313.65 153.05 313.65
L 663.1 313.65 741.15 313.65 826.1 313.65 853.1 313.65 918.1 313.65 952.5 313.65 1046.1 313.65 1053.1 313.65 1077.5 313.65 1173.2 313.65
Q 1193.2 313.65 1193.2 333.65
L 1193.2 393.75 1193.2 413.75 1193.15 495.95
Q 1192 513.75 1173.2 513.75
L 1077.5 513.75 1053.1 513.75 1046.1 513.75 952.5 513.75 918.1 513.75 853.1 513.75 826.1 513.75 741.15 513.75 732.15 513.75 703.1 513.75 676.1 513.75 674.1 513.75 663.1 513.75 626.1 513.75 532.15 513.75 500.1 513.75 473.1 513.75 433.1 513.75 251.1 513.75 167.1 513.75 153.05 513.75
Q 134.2 513.75 133.15 495.95
L 133.05 413.75 133.05 393.75 Z"/>

<path id="Layer0_1_2_STROKES" stroke="#86BA9E" stroke-width="2" stroke-linejoin="round" stroke-linecap="round" fill="none" d="
M 133.05 393.75
L 663.1 393.75 663.1 313.65
M 663.1 513.75
L 663.1 393.75 1193.2 393.75"/>
</defs>

<g transform="matrix( 1, 0, 0, 1, 640,133.85) ">
<g transform="matrix( 1, 0, 0, 1, 0,0) ">
<use xlink:href="#vsdvsdn_0_Layer1_0_1_STROKES"/>

<use xlink:href="#vsdvsdn_0_Layer1_0_2_STROKES"/>
</g>

<g transform="matrix( 1, 0, 0, 1, 0,0) ">
<use xlink:href="#vsdvsdn_0_Layer0_0_FILL"/>
</g>
</g>

<g transform="matrix( 1, 0, 0, 1, 0,0) ">
<use xlink:href="#Layer0_1_FILL"/>

<use xlink:href="#Layer0_1_1_STROKES"/>

<use xlink:href="#Layer0_1_2_STROKES"/>
</g>
</svg>
