<?xml version="1.0" encoding="utf-8"?>
<!-- Generator: Adobe Illustrator 23.0.0, SVG Export Plug-In . SVG Version: 6.00 Build 0)  -->
<svg version="1.1" id="레이어_1" xmlns="http://www.w3.org/2000/svg" xmlns:xlink="http://www.w3.org/1999/xlink" x="0px"
	 y="0px" width="295.9px" height="301.8px" viewBox="0 0 295.9 301.8" style="enable-background:new 0 0 295.9 301.8;"
	 xml:space="preserve">
<g>
	<g>
		<path style="fill:#A6CCA3;" d="M156.5,217.1v-4.7c0-0.7-3.9-1.3-8.6-1.3c-4.7,0-8.6,0.6-8.6,1.3v4.7"/>
		<path style="fill:none;stroke:#009343;stroke-width:1.2521;" d="M156.5,217.1v-4.7c0-0.7-3.9-1.3-8.6-1.3c-4.7,0-8.6,0.6-8.6,1.3
			v4.7"/>
		<path style="fill:#A6CCA3;" d="M156.5,175v-4.7c0-0.7-3.9-1.3-8.6-1.3c-4.7,0-8.6,0.6-8.6,1.3v4.7"/>
		<path style="fill:none;stroke:#009343;stroke-width:1.2521;" d="M156.5,175v-4.7c0-0.7-3.9-1.3-8.6-1.3c-4.7,0-8.6,0.6-8.6,1.3
			v4.7"/>
		<rect x="126.9" y="174.9" style="fill:#BBD8B8;" width="42" height="42"/>
		<rect x="126.9" y="174.9" style="fill:none;stroke:#009343;stroke-width:1.2521;stroke-linejoin:bevel;" width="42" height="42"/>
		<path style="fill:#9BC698;" d="M148.2,202c-4.2,0-7.7-3-8.4-7c-0.1,0.5-0.2,1.1-0.2,1.6c0,4.8,3.8,8.6,8.6,8.6s8.6-3.9,8.6-8.6
			c0-0.6-0.1-1.1-0.2-1.6C155.8,199,152.4,202,148.2,202"/>
		<path style="fill:none;stroke:#009343;stroke-width:1.2521;stroke-linejoin:bevel;" d="M148.2,202c-4.2,0-7.7-3-8.4-7
			c-0.1,0.5-0.2,1.1-0.2,1.6c0,4.8,3.8,8.6,8.6,8.6s8.6-3.9,8.6-8.6c0-0.6-0.1-1.1-0.2-1.6C155.8,199,152.4,202,148.2,202z"/>
		<path style="fill:#6CB071;" d="M148.2,202c4.2,0,7.7-3,8.4-7c-0.8-4-4.2-7-8.4-7s-7.7,3-8.4,7C140.5,199,144,202,148.2,202"/>
		<ellipse style="fill:none;stroke:#009343;stroke-width:1.2521;" cx="148.2" cy="195.1" rx="8.4" ry="7"/>
		<rect x="84.8" y="132.8" style="fill:#BBD8B8;" width="42" height="42"/>
		<rect x="84.8" y="132.8" style="fill:none;stroke:#009343;stroke-width:1.2521;stroke-linejoin:bevel;" width="42" height="42"/>
		<path style="fill:#9BC698;" d="M106.1,159.9c-4.2,0-7.7-3-8.4-7c-0.1,0.5-0.2,1.1-0.2,1.6c0,4.8,3.8,8.6,8.6,8.6s8.6-3.9,8.6-8.6
			c0-0.6-0.1-1.1-0.2-1.6C113.8,156.9,110.3,159.9,106.1,159.9"/>
		<path style="fill:none;stroke:#009343;stroke-width:1.2521;stroke-linejoin:bevel;" d="M106.1,159.9c-4.2,0-7.7-3-8.4-7
			c-0.1,0.5-0.2,1.1-0.2,1.6c0,4.8,3.8,8.6,8.6,8.6s8.6-3.9,8.6-8.6c0-0.6-0.1-1.1-0.2-1.6C113.8,156.9,110.3,159.9,106.1,159.9z"/>
		<path style="fill:#6CB071;" d="M106.1,159.9c4.2,0,7.7-3,8.4-7c-0.8-4-4.2-7-8.4-7s-7.7,3-8.4,7
			C98.4,156.9,101.9,159.9,106.1,159.9"/>
		<path style="fill:none;stroke:#009343;stroke-width:1.2521;" d="M106.1,159.9c4.2,0,7.7-3,8.4-7c-0.8-4-4.2-7-8.4-7s-7.7,3-8.4,7
			C98.4,156.9,101.9,159.9,106.1,159.9z"/>
		<path style="fill:#A6CCA3;" d="M156.5,132.9v-4.8c0-0.7-3.9-1.3-8.6-1.3c-4.7,0-8.6,0.6-8.6,1.3v4.7"/>
		<path style="fill:none;stroke:#009343;stroke-width:1.2521;" d="M156.5,132.9v-4.8c0-0.7-3.9-1.3-8.6-1.3c-4.7,0-8.6,0.6-8.6,1.3
			v4.7"/>
		<rect x="126.9" y="132.8" style="fill:#BBD8B8;" width="42" height="42"/>
		<rect x="126.9" y="132.8" style="fill:none;stroke:#009343;stroke-width:1.2521;stroke-linejoin:bevel;" width="42" height="42"/>
		<path style="fill:#9BC698;" d="M148.2,159.9c-4.2,0-7.7-3-8.4-7c-0.1,0.5-0.2,1.1-0.2,1.6c0,4.8,3.8,8.6,8.6,8.6s8.6-3.9,8.6-8.6
			c0-0.6-0.1-1.1-0.2-1.6C155.8,156.9,152.4,159.9,148.2,159.9"/>
		<path style="fill:none;stroke:#009343;stroke-width:1.2521;stroke-linejoin:bevel;" d="M148.2,159.9c-4.2,0-7.7-3-8.4-7
			c-0.1,0.5-0.2,1.1-0.2,1.6c0,4.8,3.8,8.6,8.6,8.6s8.6-3.9,8.6-8.6c0-0.6-0.1-1.1-0.2-1.6C155.8,156.9,152.4,159.9,148.2,159.9z"/>
		<path style="fill:#6CB071;" d="M148.2,159.9c4.2,0,7.7-3,8.4-7c-0.8-4-4.2-7-8.4-7s-7.7,3-8.4,7
			C140.5,156.9,144,159.9,148.2,159.9"/>
		<path style="fill:none;stroke:#009343;stroke-width:1.2521;" d="M148.2,159.9c4.2,0,7.7-3,8.4-7c-0.8-4-4.2-7-8.4-7s-7.7,3-8.4,7
			C140.5,156.9,144,159.9,148.2,159.9z"/>
		<path style="fill:#A6CCA3;" d="M156.5,90.8v-4.7c0-0.7-3.9-1.3-8.6-1.3c-4.7,0-8.6,0.6-8.6,1.3v4.7"/>
		<path style="fill:none;stroke:#009343;stroke-width:1.2521;" d="M156.5,90.8v-4.7c0-0.7-3.9-1.3-8.6-1.3c-4.7,0-8.6,0.6-8.6,1.3
			v4.7"/>
		<rect x="126.9" y="90.7" style="fill:#BBD8B8;" width="42" height="42"/>
		<rect x="126.9" y="90.7" style="fill:none;stroke:#009343;stroke-width:1.2521;stroke-linejoin:bevel;" width="42" height="42"/>
		<path style="fill:#9BC698;" d="M148.2,117.8c-4.2,0-7.7-3-8.4-7c-0.1,0.5-0.2,1.1-0.2,1.6c0,4.7,3.8,8.6,8.6,8.6s8.6-3.9,8.6-8.6
			c0-0.6-0.1-1.1-0.2-1.6C155.8,114.8,152.4,117.8,148.2,117.8"/>
		<path style="fill:none;stroke:#009343;stroke-width:1.2521;stroke-linejoin:bevel;" d="M148.2,117.8c-4.2,0-7.7-3-8.4-7
			c-0.1,0.5-0.2,1.1-0.2,1.6c0,4.7,3.8,8.6,8.6,8.6s8.6-3.9,8.6-8.6c0-0.6-0.1-1.1-0.2-1.6C155.8,114.8,152.4,117.8,148.2,117.8z"/>
		<path style="fill:#6CB071;" d="M148.2,117.8c4.2,0,7.7-3,8.4-7c-0.8-4-4.2-7-8.4-7s-7.7,3-8.4,7
			C140.5,114.8,144,117.8,148.2,117.8"/>
		<path style="fill:none;stroke:#009343;stroke-width:1.2521;" d="M148.2,117.8c4.2,0,7.7-3,8.4-7c-0.8-4-4.2-7-8.4-7s-7.7,3-8.4,7
			C140.5,114.8,144,117.8,148.2,117.8z"/>
		<rect x="169" y="132.8" style="fill:#BBD8B8;" width="42" height="42"/>
		<rect x="169" y="132.8" style="fill:none;stroke:#009343;stroke-width:1.2521;stroke-linejoin:bevel;" width="42" height="42"/>
		<path style="fill:#9BC698;" d="M190.3,159.9c-4.2,0-7.7-3-8.4-7c-0.1,0.5-0.2,1.1-0.2,1.6c0,4.8,3.8,8.6,8.6,8.6s8.6-3.9,8.6-8.6
			c0-0.6-0.1-1.1-0.2-1.6C197.9,156.9,194.5,159.9,190.3,159.9"/>
		<path style="fill:none;stroke:#009343;stroke-width:1.2521;stroke-linejoin:bevel;" d="M190.3,159.9c-4.2,0-7.7-3-8.4-7
			c-0.1,0.5-0.2,1.1-0.2,1.6c0,4.8,3.8,8.6,8.6,8.6s8.6-3.9,8.6-8.6c0-0.6-0.1-1.1-0.2-1.6C197.9,156.9,194.5,159.9,190.3,159.9z"/>
		<path style="fill:#6CB071;" d="M190.3,159.9c4.2,0,7.7-3,8.4-7c-0.8-4-4.2-7-8.4-7s-7.7,3-8.4,7
			C182.6,156.9,186.1,159.9,190.3,159.9"/>
		<path style="fill:none;stroke:#009343;stroke-width:1.2521;" d="M190.3,159.9c4.2,0,7.7-3,8.4-7c-0.8-4-4.2-7-8.4-7s-7.7,3-8.4,7
			C182.6,156.9,186.1,159.9,190.3,159.9z"/>
	</g>
</g>
</svg>
