<?xml version="1.0" encoding="utf-8"?>
<!-- Generator: Adobe Illustrator 23.0.0, SVG Export Plug-In . SVG Version: 6.00 Build 0)  -->
<svg version="1.1" id="레이어_1" xmlns="http://www.w3.org/2000/svg" xmlns:xlink="http://www.w3.org/1999/xlink" x="0px"
	 y="0px" width="1016px" height="299.1px" viewBox="0 0 1016 299.1" style="enable-background:new 0 0 1016 299.1;"
	 xml:space="preserve">
<g>
	<rect x="638.3" y="182.7" style="fill:#FBD6AB;" width="42.7" height="42.7"/>
	
		<rect x="638.3" y="182.7" style="fill:none;stroke:#D98700;stroke-width:1.2713;stroke-linejoin:bevel;" width="42.7" height="42.7"/>
	<path style="fill:#F9C385;" d="M659.8,210.2c-4.3,0-7.8-3-8.6-7.1c-0.1,0.5-0.2,1.1-0.2,1.7c0,4.8,3.9,8.7,8.7,8.7
		c4.8,0,8.7-3.9,8.7-8.7c0-0.6-0.1-1.1-0.2-1.7C667.7,207.2,664.2,210.2,659.8,210.2"/>
	<path style="fill:none;stroke:#D98700;stroke-width:1.2713;stroke-linejoin:bevel;" d="M659.8,210.2c-4.3,0-7.8-3-8.6-7.1
		c-0.1,0.5-0.2,1.1-0.2,1.7c0,4.8,3.9,8.7,8.7,8.7c4.8,0,8.7-3.9,8.7-8.7c0-0.6-0.1-1.1-0.2-1.7
		C667.7,207.2,664.2,210.2,659.8,210.2z"/>
	<path style="fill:#F5AA53;" d="M659.8,210.2c4.3,0,7.8-3,8.6-7.1c-0.8-4-4.3-7.1-8.6-7.1c-4.3,0-7.8,3-8.6,7.1
		C652,207.2,655.7,210.2,659.8,210.2"/>
	<path style="fill:none;stroke:#D98700;stroke-width:1.2713;" d="M659.8,210.2c4.3,0,7.8-3,8.6-7.1c-0.8-4-4.3-7.1-8.6-7.1
		c-4.3,0-7.8,3-8.6,7.1C652,207.2,655.7,210.2,659.8,210.2z"/>
	<path style="fill:#F9C992;" d="M711,182.7v-4.8c0-0.7-3.9-1.3-8.7-1.3c-4.8,0-8.7,0.6-8.7,1.3v4.8"/>
	<path style="fill:none;stroke:#D98700;stroke-width:1.2713;" d="M711,182.7v-4.8c0-0.7-3.9-1.3-8.7-1.3c-4.8,0-8.7,0.6-8.7,1.3v4.8
		"/>
	<rect x="680.9" y="182.7" style="fill:#FBD6AB;" width="42.7" height="42.7"/>
	
		<rect x="680.9" y="182.7" style="fill:none;stroke:#D98700;stroke-width:1.2713;stroke-linejoin:bevel;" width="42.7" height="42.7"/>
	<path style="fill:#F9C385;" d="M702.7,210.2c-4.3,0-7.8-3-8.6-7.1c-0.1,0.5-0.2,1.1-0.2,1.7c0,4.8,3.9,8.7,8.7,8.7s8.7-3.9,8.7-8.7
		c0-0.6-0.1-1.1-0.2-1.7C710.3,207.2,706.8,210.2,702.7,210.2"/>
	<path style="fill:none;stroke:#D98700;stroke-width:1.2713;stroke-linejoin:bevel;" d="M702.7,210.2c-4.3,0-7.8-3-8.6-7.1
		c-0.1,0.5-0.2,1.1-0.2,1.7c0,4.8,3.9,8.7,8.7,8.7s8.7-3.9,8.7-8.7c0-0.6-0.1-1.1-0.2-1.7C710.3,207.2,706.8,210.2,702.7,210.2z"/>
	<path style="fill:#F5AA53;" d="M702.7,210.2c4.3,0,7.8-3,8.6-7.1c-0.8-4-4.3-7.1-8.6-7.1c-4.3,0-7.8,3-8.6,7.1
		C694.8,207.2,698.3,210.2,702.7,210.2"/>
	<path style="fill:none;stroke:#D98700;stroke-width:1.2713;" d="M702.7,210.2c4.3,0,7.8-3,8.6-7.1c-0.8-4-4.3-7.1-8.6-7.1
		c-4.3,0-7.8,3-8.6,7.1C694.8,207.2,698.3,210.2,702.7,210.2z"/>
	<path style="fill:#F9C992;" d="M753.8,182.7v-4.8c0-0.7-3.9-1.3-8.7-1.3s-8.7,0.6-8.7,1.3v4.8"/>
	<path style="fill:none;stroke:#D98700;stroke-width:1.2713;" d="M753.8,182.7v-4.8c0-0.7-3.9-1.3-8.7-1.3s-8.7,0.6-8.7,1.3v4.8"/>
	<rect x="723.8" y="182.7" style="fill:#FBD6AB;" width="42.7" height="42.7"/>
	
		<rect x="723.8" y="182.7" style="fill:none;stroke:#D98700;stroke-width:1.2713;stroke-linejoin:bevel;" width="42.7" height="42.7"/>
	<path style="fill:#F9C385;" d="M745.3,210.2c-4.3,0-7.8-3-8.6-7.1c-0.1,0.5-0.2,1.1-0.2,1.7c0,4.8,3.9,8.7,8.7,8.7
		c4.8,0,8.7-3.9,8.7-8.7c0-0.6-0.1-1.1-0.2-1.7C753.1,207.2,749.5,210.2,745.3,210.2"/>
	<path style="fill:none;stroke:#D98700;stroke-width:1.2713;stroke-linejoin:bevel;" d="M745.3,210.2c-4.3,0-7.8-3-8.6-7.1
		c-0.1,0.5-0.2,1.1-0.2,1.7c0,4.8,3.9,8.7,8.7,8.7c4.8,0,8.7-3.9,8.7-8.7c0-0.6-0.1-1.1-0.2-1.7
		C753.1,207.2,749.5,210.2,745.3,210.2z"/>
	<path style="fill:#F5AA53;" d="M745.3,210.2c4.3,0,7.8-3,8.6-7.1c-0.8-4-4.3-7.1-8.6-7.1c-4.3,0-7.8,3-8.6,7.1
		C737.5,207.2,741,210.2,745.3,210.2"/>
	<path style="fill:none;stroke:#D98700;stroke-width:1.2713;" d="M745.3,210.2c4.3,0,7.8-3,8.6-7.1c-0.8-4-4.3-7.1-8.6-7.1
		c-4.3,0-7.8,3-8.6,7.1C737.5,207.2,741,210.2,745.3,210.2z"/>
	<rect x="680.9" y="139.4" style="fill:#FBD6AB;" width="42.7" height="42.7"/>
	
		<rect x="680.9" y="139.4" style="fill:none;stroke:#D98700;stroke-width:1.2713;stroke-linejoin:bevel;" width="42.7" height="42.7"/>
	<path style="fill:#F9C385;" d="M702.7,167c-4.3,0-7.8-3-8.6-7.1c-0.1,0.5-0.2,1.1-0.2,1.7c0,4.8,3.9,8.7,8.7,8.7s8.7-3.9,8.7-8.7
		c0-0.6-0.1-1.1-0.2-1.7C710.3,163.9,706.8,167,702.7,167"/>
	<path style="fill:none;stroke:#D98700;stroke-width:1.2713;stroke-linejoin:bevel;" d="M702.7,167c-4.3,0-7.8-3-8.6-7.1
		c-0.1,0.5-0.2,1.1-0.2,1.7c0,4.8,3.9,8.7,8.7,8.7s8.7-3.9,8.7-8.7c0-0.6-0.1-1.1-0.2-1.7C710.3,163.9,706.8,167,702.7,167z"/>
	<path style="fill:#F5AA53;" d="M702.7,167c4.3,0,7.8-3,8.6-7.1c-0.8-4-4.3-7.1-8.6-7.1c-4.3,0-7.8,3-8.6,7.1
		C694.8,163.9,698.3,167,702.7,167"/>
	<path style="fill:none;stroke:#D98700;stroke-width:1.2713;" d="M702.7,167c4.3,0,7.8-3,8.6-7.1c-0.8-4-4.3-7.1-8.6-7.1
		c-4.3,0-7.8,3-8.6,7.1C694.8,163.9,698.3,167,702.7,167z"/>
	<rect x="723.8" y="139.4" style="fill:#FBD6AB;" width="42.7" height="42.7"/>
	
		<rect x="723.8" y="139.4" style="fill:none;stroke:#D98700;stroke-width:1.2713;stroke-linejoin:bevel;" width="42.7" height="42.7"/>
	<path style="fill:#F9C385;" d="M745.3,167c-4.3,0-7.8-3-8.6-7.1c-0.1,0.5-0.2,1.1-0.2,1.7c0,4.8,3.9,8.7,8.7,8.7
		c4.8,0,8.7-3.9,8.7-8.7c0-0.6-0.1-1.1-0.2-1.7C753.1,163.9,749.5,167,745.3,167"/>
	<path style="fill:none;stroke:#D98700;stroke-width:1.2713;stroke-linejoin:bevel;" d="M745.3,167c-4.3,0-7.8-3-8.6-7.1
		c-0.1,0.5-0.2,1.1-0.2,1.7c0,4.8,3.9,8.7,8.7,8.7c4.8,0,8.7-3.9,8.7-8.7c0-0.6-0.1-1.1-0.2-1.7C753.1,163.9,749.5,167,745.3,167z"
		/>
	<path style="fill:#F5AA53;" d="M745.3,167c4.3,0,7.8-3,8.6-7.1c-0.8-4-4.3-7.1-8.6-7.1c-4.3,0-7.8,3-8.6,7.1
		C737.5,163.9,741,167,745.3,167"/>
	<path style="fill:none;stroke:#D98700;stroke-width:1.2713;" d="M745.3,167c4.3,0,7.8-3,8.6-7.1c-0.8-4-4.3-7.1-8.6-7.1
		c-4.3,0-7.8,3-8.6,7.1C737.5,163.9,741,167,745.3,167z"/>
	<rect x="401.3" y="139.4" style="fill:#FBD6AB;" width="42.7" height="42.7"/>
	
		<rect x="401.3" y="139.4" style="fill:none;stroke:#D98700;stroke-width:1.2713;stroke-linejoin:bevel;" width="42.7" height="42.7"/>
	<path style="fill:#F9C385;" d="M422.9,167c-4.3,0-7.8-3-8.6-7.1c-0.1,0.5-0.2,1.1-0.2,1.7c0,4.8,3.9,8.7,8.7,8.7s8.7-3.9,8.7-8.7
		c0-0.6-0.1-1.1-0.2-1.7C430.8,163.9,427.1,167,422.9,167"/>
	<path style="fill:none;stroke:#D98700;stroke-width:1.2713;stroke-linejoin:bevel;" d="M422.9,167c-4.3,0-7.8-3-8.6-7.1
		c-0.1,0.5-0.2,1.1-0.2,1.7c0,4.8,3.9,8.7,8.7,8.7s8.7-3.9,8.7-8.7c0-0.6-0.1-1.1-0.2-1.7C430.8,163.9,427.1,167,422.9,167z"/>
	<path style="fill:#F5AA53;" d="M422.9,167c4.3,0,7.8-3,8.6-7.1c-0.8-4-4.3-7.1-8.6-7.1s-7.8,3-8.6,7.1
		C415.1,163.9,418.6,167,422.9,167"/>
	<path style="fill:none;stroke:#D98700;stroke-width:1.2713;" d="M422.9,167c4.3,0,7.8-3,8.6-7.1c-0.8-4-4.3-7.1-8.6-7.1
		s-7.8,3-8.6,7.1C415.1,163.9,418.6,167,422.9,167z"/>
	<rect x="444" y="139.4" style="fill:#FBD6AB;" width="42.7" height="42.7"/>
	
		<rect x="444" y="139.4" style="fill:none;stroke:#D98700;stroke-width:1.2713;stroke-linejoin:bevel;" width="42.7" height="42.7"/>
	<path style="fill:#F9C385;" d="M465.6,167c-4.3,0-7.8-3-8.6-7.1c-0.1,0.5-0.2,1.1-0.2,1.7c0,4.8,3.9,8.7,8.7,8.7s8.7-3.9,8.7-8.7
		c0-0.6-0.1-1.1-0.2-1.7C473.4,163.9,469.9,167,465.6,167"/>
	<path style="fill:none;stroke:#D98700;stroke-width:1.2713;stroke-linejoin:bevel;" d="M465.6,167c-4.3,0-7.8-3-8.6-7.1
		c-0.1,0.5-0.2,1.1-0.2,1.7c0,4.8,3.9,8.7,8.7,8.7s8.7-3.9,8.7-8.7c0-0.6-0.1-1.1-0.2-1.7C473.4,163.9,469.9,167,465.6,167z"/>
	<path style="fill:#F5AA53;" d="M465.6,167c4.3,0,7.8-3,8.6-7.1c-0.8-4-4.3-7.1-8.6-7.1s-7.8,3-8.6,7.1
		C457.8,163.9,461.4,167,465.6,167"/>
	<path style="fill:none;stroke:#D98700;stroke-width:1.2713;" d="M465.6,167c4.3,0,7.8-3,8.6-7.1c-0.8-4-4.3-7.1-8.6-7.1
		s-7.8,3-8.6,7.1C457.8,163.9,461.4,167,465.6,167z"/>
</g>
</svg>
