
<svg xmlns="http://www.w3.org/2000/svg" version="1.1" xmlns:xlink="http://www.w3.org/1999/xlink" preserveAspectRatio="none" x="0px" y="0px" width="1280px" height="720px" viewBox="0 0 1280 720">
<defs>
<g id="Layer5_0_FILL">
<path fill="#FFFFFF" stroke="none" d="
M 315.2 501.5
Q 300.2 501.5 300.2 516.5
L 300.2 546.55
Q 300.2 561.55 315.2 561.55
L 445.2 561.55
Q 460.2 561.55 460.2 546.55
L 460.2 516.5
Q 460.2 501.5 445.2 501.5
L 315.2 501.5
M 940.2 546.55
L 940.2 516.5
Q 940.2 501.5 925.2 501.5
L 795.2 501.5
Q 780.2 501.5 780.2 516.5
L 780.2 546.55
Q 780.2 561.55 795.2 561.55
L 925.2 561.55
Q 940.2 561.55 940.2 546.55 Z"/>
</g>

<path id="Layer5_0_1_STROKES" stroke="#DBDBDB" stroke-width="3" stroke-linejoin="round" stroke-linecap="round" fill="none" d="
M 795.2 501.5
L 925.2 501.5
Q 940.2 501.5 940.2 516.5
L 940.2 546.55
Q 940.2 561.55 925.2 561.55
L 795.2 561.55
Q 780.2 561.55 780.2 546.55
L 780.2 516.5
Q 780.2 501.5 795.2 501.5 Z
M 315.2 501.5
L 445.2 501.5
Q 460.2 501.5 460.2 516.5
L 460.2 546.55
Q 460.2 561.55 445.2 561.55
L 315.2 561.55
Q 300.2 561.55 300.2 546.55
L 300.2 516.5
Q 300.2 501.5 315.2 501.5 Z"/>

<path id="Layer5_1_1_STROKES" stroke="#E50182" stroke-width="2" stroke-linejoin="miter" stroke-linecap="butt" stroke-miterlimit="4" fill="none" d="
M 454.4477478027344 436.5704925537109
Q 454.19775085449214 435.4455200195313 454.19775085449214 433.07057800292966 454.19775085449214 426.0707489013672 458.3227005004883 420.4458862304688 462.32265167236324 414.9460205078125 468.8225723266602 412.82107238769527"/>

<path id="Layer5_2_1_STROKES" stroke="#332D2B" stroke-width="3" stroke-linejoin="round" stroke-linecap="butt" fill="none" d="
M 376.1987030029297 252.44998779296873
L 482.5724044799805 436.5704925537109 269.95 436.5704925537109"/>

<path id="Layer5_3_1_STROKES" stroke="#E50182" stroke-width="2" stroke-linejoin="miter" stroke-linecap="butt" stroke-miterlimit="4" fill="none" d="
M 884.7976898193359 267.47497863769536
L 884.5476928710937 270.47490539550785
Q 884.5476928710937 279.7246795654297 891.0476135253906 286.0995239257813 897.5475341796874 292.599365234375 906.6724227905273 292.599365234375 915.1723190307616 292.599365234375 921.6722396850586 286.7245086669922"/>

<path id="Layer5_4_1_STROKES" stroke="#332D2B" stroke-width="3" stroke-linejoin="round" stroke-linecap="butt" fill="none" d="
M 1030.045916748047 441.5957275390625
L 908.1724044799804 267.47497863769536 695.55 267.47497863769536"/>
</defs>

<g transform="matrix( 1, 0, 0, 1, 0,0) ">
<use xlink:href="#Layer5_0_FILL"/>

<use xlink:href="#Layer5_0_1_STROKES"/>
</g>

<g transform="matrix( 2.499969482421875, 0, 0, 2.49993896484375, 269.95,251.95) ">
<use xlink:href="#Layer5_1_1_STROKES" transform="matrix( 0.399993896484375, 0, 0, 0.4000091552734375, -107.95,-100.75) "/>
</g>

<g transform="matrix( 2.499969482421875, 0, 0, 2.49993896484375, 269.95,251.95) ">
<use xlink:href="#Layer5_2_1_STROKES" transform="matrix( 0.399993896484375, 0, 0, 0.4000091552734375, -107.95,-100.75) "/>
</g>

<g transform="matrix( 2.499969482421875, 0, 0, 2.49993896484375, 695.55,266.6) ">
<use xlink:href="#Layer5_3_1_STROKES" transform="matrix( 0.399993896484375, 0, 0, 0.4000091552734375, -278.2,-106.6) "/>
</g>

<g transform="matrix( 2.499969482421875, 0, 0, 2.49993896484375, 695.55,266.6) ">
<use xlink:href="#Layer5_4_1_STROKES" transform="matrix( 0.399993896484375, 0, 0, 0.4000091552734375, -278.2,-106.6) "/>
</g>
</svg>
