
<svg xmlns="http://www.w3.org/2000/svg" version="1.1" xmlns:xlink="http://www.w3.org/1999/xlink" preserveAspectRatio="none" x="0px" y="0px" width="345px" height="252px" viewBox="0 0 345 252">
<defs>
<g id="Duplicate_Items_Folder_vsdvsb_5_Layer2_0_FILL">
<path fill="#8DB0DD" stroke="none" d="
M 50.5 35
L 30.3 35 40.4 52.55 60.65 52.55 50.5 35 Z"/>
</g>

<g id="Duplicate_Items_Folder_vsdvsb_5_Layer2_1_FILL">
<path fill="#8DB0DD" stroke="none" d="
M 30.3 35
L 10.1 35 0 52.55 20.2 52.55 30.3 35 Z"/>
</g>

<g id="Duplicate_Items_Folder_vsdvsb_5_Layer2_2_FILL">
<path fill="#AB78B4" stroke="none" d="
M 40.4 17.5
L 30.3 35 50.5 35 40.4 17.5 Z"/>
</g>

<g id="Duplicate_Items_Folder_vsdvsb_5_Layer2_3_FILL">
<path fill="#AB78B4" stroke="none" d="
M 20.2 52.55
L 40.4 52.55 30.3 35 20.2 52.55 Z"/>
</g>

<g id="Duplicate_Items_Folder_vsdvsb_5_Layer2_4_FILL">
<path fill="#F49AC1" stroke="none" d="
M 30.3 0
L 10.1 35 30.3 35 40.4 17.5 30.3 0 Z"/>
</g>

<path id="Duplicate_Items_Folder_vsdvsb_5_Layer1_0_1_STROKES" stroke="#FFFFFF" stroke-width="1" stroke-linejoin="bevel" stroke-linecap="butt" fill="none" d="
M 70.49075317382812 30.34038696289062
L -0.20554809570312216 30.34038696289062 35.142602539062494 -30.904806518554693"/>

<path id="Duplicate_Items_Folder_vsdvsb_5_Layer1_1_1_STROKES" stroke="#FFFFFF" stroke-width="1" stroke-linejoin="bevel" stroke-linecap="butt" fill="none" d="
M -35.55369873046875 91.76056671142575
L -0.20554809570312216 30.34038696289062 35.142602539062494 91.76056671142575"/>

<path id="Duplicate_Items_Folder_vsdvsb_5_Layer1_2_1_STROKES" stroke="#FFFFFF" stroke-width="1" stroke-linejoin="bevel" stroke-linecap="butt" fill="none" d="
M -70.90184936523437 30.34038696289062
L -0.20554809570312216 30.34038696289062"/>
</defs>

<g transform="matrix( 1, 0, 0, 1, 172.55,126) ">
<g transform="matrix( 3.49981689453125, 0, 0, 3.499725341796875, -106.25,-92.15) ">
<use xlink:href="#Duplicate_Items_Folder_vsdvsb_5_Layer2_0_FILL"/>
</g>

<g transform="matrix( 3.49981689453125, 0, 0, 3.499725341796875, -106.25,-92.15) ">
<use xlink:href="#Duplicate_Items_Folder_vsdvsb_5_Layer2_1_FILL"/>
</g>

<g transform="matrix( 3.49981689453125, 0, 0, 3.499725341796875, -106.25,-92.15) ">
<use xlink:href="#Duplicate_Items_Folder_vsdvsb_5_Layer2_2_FILL"/>
</g>

<g transform="matrix( 3.49981689453125, 0, 0, 3.499725341796875, -106.25,-92.15) ">
<use xlink:href="#Duplicate_Items_Folder_vsdvsb_5_Layer2_3_FILL"/>
</g>

<g transform="matrix( 3.49981689453125, 0, 0, 3.499725341796875, -106.25,-92.15) ">
<use xlink:href="#Duplicate_Items_Folder_vsdvsb_5_Layer2_4_FILL"/>
</g>

<g transform="matrix( 3.49981689453125, 0, 0, 3.499725341796875, -106.25,-92.15) ">
<use xlink:href="#Duplicate_Items_Folder_vsdvsb_5_Layer1_0_1_STROKES" transform="matrix( 0.2857208251953125, 0, 0, 0.285736083984375, 30.35,26.3) "/>
</g>

<g transform="matrix( 3.49981689453125, 0, 0, 3.499725341796875, -106.25,-92.15) ">
<use xlink:href="#Duplicate_Items_Folder_vsdvsb_5_Layer1_1_1_STROKES" transform="matrix( 0.2857208251953125, 0, 0, 0.285736083984375, 30.35,26.3) "/>
</g>

<g transform="matrix( 3.49981689453125, 0, 0, 3.499725341796875, -106.25,-92.15) ">
<use xlink:href="#Duplicate_Items_Folder_vsdvsb_5_Layer1_2_1_STROKES" transform="matrix( 0.2857208251953125, 0, 0, 0.285736083984375, 30.35,26.3) "/>
</g>
</g>
</svg>
