
<svg xmlns="http://www.w3.org/2000/svg" version="1.1" xmlns:xlink="http://www.w3.org/1999/xlink" preserveAspectRatio="none" x="0px" y="0px" width="1085px" height="1354px" viewBox="0 0 1085 1354">
<defs>
<path id="vsdvsb_0_Layer1_0_1_STROKES" stroke="#BBDECB" stroke-width="5" stroke-linejoin="round" stroke-linecap="butt" fill="none" d="
M -195.05 -108.55
L 195.05 -108.55
Q 210.05 -108.55 210.05 -93.55
L 210.05 93.5
Q 210.05 108.5 195.05 108.5
L -195.05 108.5
Q -210.05 108.5 -210.05 93.5
L -210.05 -93.55
Q -210.05 -108.55 -195.05 -108.55 Z"/>

<path id="Duplicate_Items_Folder_vsdvsb_0_Layer9_0_1_STROKES" stroke="#BBDECB" stroke-width="5" stroke-linejoin="round" stroke-linecap="butt" fill="none" d="
M -155.05 -123.5
L 155.05 -123.5
Q 170.05 -123.5 170.05 -108.5
L 170.05 108.55
Q 170.05 123.55 155.05 123.55
L -155.05 123.55
Q -170.05 123.55 -170.05 108.55
L -170.05 -108.5
Q -170.05 -123.5 -155.05 -123.5 Z"/>

<path id="Duplicate_Items_Folder_vsdvsb_2_Layer9_0_1_STROKES" stroke="#BBDECB" stroke-width="5" stroke-linejoin="round" stroke-linecap="butt" fill="none" d="
M -155.05 -123.5
L 155.05 -123.5
Q 170.05 -123.5 170.05 -108.5
L 170.05 108.55
Q 170.05 123.55 155.05 123.55
L -155.05 123.55
Q -170.05 123.55 -170.05 108.55
L -170.05 -108.5
Q -170.05 -123.5 -155.05 -123.5 Z"/>

<path id="Duplicate_Items_Folder_vsdvsb_4_Layer9_0_1_STROKES" stroke="#BBDECB" stroke-width="5" stroke-linejoin="round" stroke-linecap="butt" fill="none" d="
M -155.05 -123.5
L 155.05 -123.5
Q 170.05 -123.5 170.05 -108.5
L 170.05 108.55
Q 170.05 123.55 155.05 123.55
L -155.05 123.55
Q -170.05 123.55 -170.05 108.55
L -170.05 -108.5
Q -170.05 -123.5 -155.05 -123.5 Z"/>

<path id="Duplicate_Items_Folder_vsdvsb_6_Layer9_0_1_STROKES" stroke="#BBDECB" stroke-width="5" stroke-linejoin="round" stroke-linecap="butt" fill="none" d="
M -155.05 -123.5
L 155.05 -123.5
Q 170.05 -123.5 170.05 -108.5
L 170.05 108.55
Q 170.05 123.55 155.05 123.55
L -155.05 123.55
Q -170.05 123.55 -170.05 108.55
L -170.05 -108.5
Q -170.05 -123.5 -155.05 -123.5 Z"/>

<path id="Duplicate_Items_Folder_vsdvsb_8_Layer9_0_1_STROKES" stroke="#BBDECB" stroke-width="5" stroke-linejoin="round" stroke-linecap="butt" fill="none" d="
M -155.05 -123.5
L 155.05 -123.5
Q 170.05 -123.5 170.05 -108.5
L 170.05 108.55
Q 170.05 123.55 155.05 123.55
L -155.05 123.55
Q -170.05 123.55 -170.05 108.55
L -170.05 -108.5
Q -170.05 -123.5 -155.05 -123.5 Z"/>

<path id="Duplicate_Items_Folder_vsdvsb_10_Layer9_0_1_STROKES" stroke="#BBDECB" stroke-width="5" stroke-linejoin="round" stroke-linecap="butt" fill="none" d="
M -155.05 -123.5
L 155.05 -123.5
Q 170.05 -123.5 170.05 -108.5
L 170.05 108.55
Q 170.05 123.55 155.05 123.55
L -155.05 123.55
Q -170.05 123.55 -170.05 108.55
L -170.05 -108.5
Q -170.05 -123.5 -155.05 -123.5 Z"/>

<path id="Duplicate_Items_Folder_vsdvsb_12_Layer9_0_1_STROKES" stroke="#BBDECB" stroke-width="5" stroke-linejoin="round" stroke-linecap="butt" fill="none" d="
M -155.05 -123.5
L 155.05 -123.5
Q 170.05 -123.5 170.05 -108.5
L 170.05 108.55
Q 170.05 123.55 155.05 123.55
L -155.05 123.55
Q -170.05 123.55 -170.05 108.55
L -170.05 -108.5
Q -170.05 -123.5 -155.05 -123.5 Z"/>

<path id="Duplicate_Items_Folder_vsdvsb_14_Layer9_0_1_STROKES" stroke="#BBDECB" stroke-width="5" stroke-linejoin="round" stroke-linecap="butt" fill="none" d="
M -155.05 -123.5
L 155.05 -123.5
Q 170.05 -123.5 170.05 -108.5
L 170.05 108.55
Q 170.05 123.55 155.05 123.55
L -155.05 123.55
Q -170.05 123.55 -170.05 108.55
L -170.05 -108.5
Q -170.05 -123.5 -155.05 -123.5 Z"/>

<path id="Duplicate_Items_Folder_vsdvsb_16_Layer9_0_1_STROKES" stroke="#BBDECB" stroke-width="5" stroke-linejoin="round" stroke-linecap="butt" fill="none" d="
M -155.05 -123.5
L 155.05 -123.5
Q 170.05 -123.5 170.05 -108.5
L 170.05 108.55
Q 170.05 123.55 155.05 123.55
L -155.05 123.55
Q -170.05 123.55 -170.05 108.55
L -170.05 -108.5
Q -170.05 -123.5 -155.05 -123.5 Z"/>
</defs>

<g transform="matrix( 1, 0, 0, 1, 542.55,111.05) ">
<g transform="matrix( 1, 0, 0, 1, 0,0) ">
<use xlink:href="#vsdvsb_0_Layer1_0_1_STROKES"/>
</g>
</g>

<g transform="matrix( 1, 0, 0, 1, 172.55,518.05) ">
<g transform="matrix( 1, 0, 0, 1, 0,0) ">
<use xlink:href="#Duplicate_Items_Folder_vsdvsb_0_Layer9_0_1_STROKES"/>
</g>
</g>

<g transform="matrix( 1, 0, 0, 1, 542.55,518.05) ">
<g transform="matrix( 1, 0, 0, 1, 0,0) ">
<use xlink:href="#Duplicate_Items_Folder_vsdvsb_2_Layer9_0_1_STROKES"/>
</g>
</g>

<g transform="matrix( 1, 0, 0, 1, 912.55,518.05) ">
<g transform="matrix( 1, 0, 0, 1, 0,0) ">
<use xlink:href="#Duplicate_Items_Folder_vsdvsb_4_Layer9_0_1_STROKES"/>
</g>
</g>

<g transform="matrix( 1, 0, 0, 1, 172.55,928) ">
<g transform="matrix( 1, 0, 0, 1, 0,0) ">
<use xlink:href="#Duplicate_Items_Folder_vsdvsb_6_Layer9_0_1_STROKES"/>
</g>
</g>

<g transform="matrix( 1, 0, 0, 1, 542.55,928) ">
<g transform="matrix( 1, 0, 0, 1, 0,0) ">
<use xlink:href="#Duplicate_Items_Folder_vsdvsb_8_Layer9_0_1_STROKES"/>
</g>
</g>

<g transform="matrix( 1, 0, 0, 1, 912.55,928) ">
<g transform="matrix( 1, 0, 0, 1, 0,0) ">
<use xlink:href="#Duplicate_Items_Folder_vsdvsb_10_Layer9_0_1_STROKES"/>
</g>
</g>

<g transform="matrix( 1, 0, 0, 1, 172.55,1228) ">
<g transform="matrix( 1, 0, 0, 1, 0,0) ">
<use xlink:href="#Duplicate_Items_Folder_vsdvsb_12_Layer9_0_1_STROKES"/>
</g>
</g>

<g transform="matrix( 1, 0, 0, 1, 542.55,1228) ">
<g transform="matrix( 1, 0, 0, 1, 0,0) ">
<use xlink:href="#Duplicate_Items_Folder_vsdvsb_14_Layer9_0_1_STROKES"/>
</g>
</g>

<g transform="matrix( 1, 0, 0, 1, 912.55,1228) ">
<g transform="matrix( 1, 0, 0, 1, 0,0) ">
<use xlink:href="#Duplicate_Items_Folder_vsdvsb_16_Layer9_0_1_STROKES"/>
</g>
</g>
</svg>
