
<svg xmlns="http://www.w3.org/2000/svg" version="1.1" xmlns:xlink="http://www.w3.org/1999/xlink" preserveAspectRatio="none" x="0px" y="0px" width="1280px" height="720px" viewBox="0 0 1280 720">
<defs>
<g id="Layer1_0_FILL">
<path fill="#1E1E1E" stroke="none" d="
M 301.85 412.6
Q 302.4 412.6 302.4 412.05
L 302.4 408.95
Q 302.4 408.45 301.85 408.45
L 296.2 408.45 293.6 408.45 280.7 408.45
Q 280.45 408.45 280.3 408.6 280.15 408.75 280.15 408.95
L 280.15 412.05
Q 280.15 412.25 280.3 412.45 280.45 412.6 280.7 412.6
L 293.6 412.6 296.2 412.6 301.85 412.6
M 355.45 421.15
Q 355.25 421.2 355.2 421.3
L 349.05 426.95
Q 348.85 427.15 348.85 427.35 348.8 427.6 348.95 427.75
L 350.75 429.9
Q 350.9 430.05 351.15 430 351.4 430 351.65 429.85
L 354.6 427.25 354.6 450.95
Q 354.6 451.45 355.15 451.45
L 358.35 451.45
Q 358.85 451.45 358.85 450.95
L 358.85 422.15
Q 358.85 421.35 358.7 421.2 358.6 421.05 357.9 421.05
L 355.8 421.05
Q 355.65 421.05 355.45 421.15
M 334.6 422.15
Q 334.6 421.35 334.45 421.2 334.35 421.05 333.65 421.05
L 331.55 421.05
Q 331.4 421.05 331.2 421.15 331 421.2 330.95 421.3
L 324.8 426.95
Q 324.6 427.15 324.6 427.35 324.55 427.6 324.7 427.75
L 326.5 429.9
Q 326.65 430.05 326.9 430 327.15 430 327.4 429.85
L 330.35 427.25 330.35 450.95
Q 330.35 451.45 330.9 451.45
L 334.1 451.45
Q 334.6 451.45 334.6 450.95
L 334.6 422.15
M 446.6 422.15
Q 446.6 421.35 446.45 421.2 446.35 421.05 445.65 421.05
L 443.55 421.05
Q 443.4 421.05 443.2 421.15 443 421.2 442.95 421.3
L 436.8 426.95
Q 436.6 427.15 436.6 427.35 436.55 427.6 436.7 427.75
L 438.5 429.9
Q 438.65 430.05 438.9 430 439.15 430 439.4 429.85
L 442.35 427.25 442.35 450.95
Q 442.35 451.45 442.9 451.45
L 446.1 451.45
Q 446.6 451.45 446.6 450.95
L 446.6 422.15
M 461.05 426.95
Q 460.85 427.15 460.85 427.35 460.8 427.6 460.95 427.75
L 462.75 429.9
Q 462.9 430.05 463.15 430 463.4 430 463.65 429.85
L 466.6 427.25 466.6 450.95
Q 466.6 451.45 467.15 451.45
L 470.35 451.45
Q 470.85 451.45 470.85 450.95
L 470.85 422.15
Q 470.85 421.35 470.7 421.2 470.6 421.05 469.9 421.05
L 467.8 421.05
Q 467.65 421.05 467.45 421.15 467.25 421.2 467.2 421.3
L 461.05 426.95
M 220.85 427.75
L 222.65 429.9
Q 222.8 430.05 223.05 430 223.3 430 223.55 429.85
L 226.5 427.25 226.5 450.95
Q 226.5 451.45 227.05 451.45
L 230.25 451.45
Q 230.75 451.45 230.75 450.95
L 230.75 422.15
Q 230.75 421.35 230.6 421.2 230.5 421.05 229.8 421.05
L 227.7 421.05
Q 227.55 421.05 227.35 421.15 227.15 421.2 227.1 421.3
L 220.95 426.95
Q 220.75 427.15 220.75 427.35 220.7 427.6 220.85 427.75
M 254.85 421.2
Q 254.75 421.05 254.05 421.05
L 251.95 421.05
Q 251.8 421.05 251.6 421.15 251.4 421.2 251.35 421.3
L 245.2 426.95
Q 245 427.15 245 427.35 244.95 427.6 245.1 427.75
L 246.9 429.9
Q 247.05 430.05 247.3 430 247.55 430 247.8 429.85
L 250.75 427.25 250.75 450.95
Q 250.75 451.45 251.3 451.45
L 254.5 451.45
Q 255 451.45 255 450.95
L 255 422.15
Q 255 421.35 254.85 421.2
M 242.45 381
Q 242.1 383.75 242.1 386.2 242.1 393.55 244.55 397.6 247 401.65 252.15 401.65 254.7 401.65 256.55 400.65 258.4 399.55 259.65 397.6 260.9 395.65 261.5 392.75 262.1 389.85 262.1 386.2 262.1 384.55 261.9 382.8 261.75 381 261.35 379.3 260.95 377.6 260.25 376.05 259.55 374.5 258.4 373.3 257.35 372.15 255.75 371.45 254.2 370.8 252.15 370.8 248.95 370.8 247 372.25 245.05 373.75 243.95 376 242.85 378.3 242.45 381
M 256.15 377.6
Q 256.85 378.95 257.25 381.05 257.6 383.2 257.6 386.2 257.6 389.3 257.25 391.45 256.85 393.55 256.15 394.85 255.4 396.2 254.4 396.75 253.35 397.35 252.15 397.35 250.85 397.35 249.85 396.75 248.85 396.2 248.15 394.85 247.4 393.55 247.05 391.45 246.65 389.3 246.65 386.2 246.65 383.2 247.05 381.05 247.4 378.95 248.15 377.6 248.85 376.3 249.85 375.75 250.85 375.15 252.15 375.15 253.35 375.15 254.4 375.75 255.4 376.3 256.15 377.6
M 230.6 371.2
Q 230.5 371.05 229.8 371.05
L 227.7 371.05
Q 227.55 371.05 227.35 371.15 227.15 371.2 227.1 371.3
L 220.95 376.95
Q 220.75 377.15 220.75 377.35 220.7 377.6 220.85 377.75
L 222.65 379.9
Q 222.8 380.05 223.05 380 223.3 380 223.55 379.85
L 226.5 377.25 226.5 400.95
Q 226.5 401.45 227.05 401.45
L 230.25 401.45
Q 230.75 401.45 230.75 400.95
L 230.75 372.15
Q 230.75 371.35 230.6 371.2
M 408.85 417.5
Q 409.05 417.5 409.2 417.35 409.35 417.25 409.35 417
L 409.35 413.85
Q 409.35 413.65 409.2 413.5 409.05 413.4 408.85 413.4
L 387.75 413.4
Q 387.55 413.4 387.4 413.5 387.25 413.65 387.25 413.85
L 387.25 417
Q 387.25 417.25 387.4 417.35 387.55 417.5 387.75 417.5
L 408.85 417.5
M 409.35 405.55
Q 409.35 405.35 409.2 405.2 409.05 405.05 408.85 405.05
L 387.75 405.05
Q 387.55 405.05 387.4 405.2 387.25 405.35 387.25 405.55
L 387.25 408.7
Q 387.25 408.9 387.4 409.05 387.55 409.2 387.75 409.2
L 408.85 409.2
Q 409.05 409.2 409.2 409.05 409.35 408.9 409.35 408.7
L 409.35 405.55
M 459.05 379.3
Q 459.05 381 457.45 383.6 455.85 386.25 452.5 390.2
L 446.4 397.45
Q 446.2 397.75 446 398.05 445.85 398.4 445.85 398.7
L 445.85 401
Q 445.85 401.5 446.6 401.5
L 463.65 401.5
Q 464.2 401.5 464.2 400.8
L 464.2 398
Q 464.2 397.4 463.65 397.4
L 451.9 397.4
Q 452.9 396.25 453.9 395.1 454.9 393.9 455.75 392.8 456.85 391.5 458.25 389.9 459.6 388.25 460.8 386.5 462 384.7 462.8 382.85 463.6 381 463.6 379.2 463.6 377.1 462.9 375.5 462.2 373.9 461.05 372.85 459.9 371.8 458.25 371.25 456.65 370.7 454.7 370.7 452.85 370.7 450.85 371.35 448.9 372 447.4 372.8 447 373 446.85 373.25 446.75 373.4 446.85 373.6
L 447.4 376.65
Q 447.5 377 447.8 377.05 448.1 377.05 448.45 376.85 450.25 375.8 451.75 375.35 453.3 374.9 454.95 374.9 456.7 374.9 457.85 376.15 459.05 377.4 459.05 379.3
M 337.25 372.8
Q 336 373.8 335.25 375.2 334.5 376.6 334.5 378.3 334.5 380.6 335.9 382.4 337.3 384.2 339.7 385.6 338.5 386.2 337.4 386.9 336.3 387.6 335.5 388.5 334.7 389.4 334.15 390.55 333.7 391.7 333.7 393.2 333.7 395.35 334.6 396.95 335.5 398.6 336.95 399.65 338.4 400.7 340.2 401.25 342.05 401.8 343.85 401.8 345.8 401.8 347.6 401.25 349.5 400.7 350.9 399.65 352.3 398.6 353.15 396.95 354.05 395.35 354.05 393.2 354.05 391.8 353.6 390.8 353.2 389.75 352.4 388.85 351.6 387.95 350.5 387.15 349.35 386.4 347.95 385.55 350.55 383.75 351.8 382 353.05 380.2 353.05 378.2 353.05 376.45 352.35 375.05 351.65 373.65 350.45 372.7 349.25 371.75 347.55 371.2 345.85 370.7 343.85 370.7 341.9 370.7 340.2 371.25 338.5 371.8 337.25 372.8
M 342.15 374.9
Q 343 374.6 343.85 374.6 344.8 374.6 345.65 374.95 346.5 375.2 347.15 375.75 347.8 376.3 348.15 377 348.55 377.7 348.55 378.5 348.55 379.2 348.05 380 347.55 380.8 346.8 381.55 346.05 382.25 345.25 382.8 344.5 383.35 343.85 383.6 343.35 383.4 342.55 382.9 341.75 382.45 340.95 381.75 340.2 381.05 339.65 380.25 339.05 379.45 339.05 378.6 339.05 377.65 339.5 376.9 339.95 376.2 340.65 375.7 341.3 375.2 342.15 374.9
M 338.7 395.05
Q 338.15 394.2 338.15 393.2 338.15 391.95 338.75 391.05 339.35 390.15 340.2 389.5 341.05 388.85 342.1 388.45 343.05 388 343.85 387.8 344.85 388.15 345.85 388.75 346.85 389.35 347.7 390.05 348.5 390.8 349 391.6 349.5 392.45 349.5 393.2 349.5 394.25 349 395.1 348.5 395.95 347.7 396.55 346.9 397.15 345.9 397.45 344.85 397.75 343.85 397.75 342.9 397.75 341.85 397.45 340.85 397.1 340 396.5 339.2 395.9 338.7 395.05 Z"/>

<path fill="#C49A6C" stroke="none" d="
M 204.3 299.85
L 204.3 318.9
Q 204.3 328.9 214.3 328.9
L 259.35 328.9
Q 269.35 328.9 269.35 318.9
L 269.35 299.85
Q 269.35 289.85 259.35 289.85
L 214.3 289.85
Q 204.3 289.85 204.3 299.85
M 240.75 301
Q 240.95 300.9 241.25 300.9
L 246.4 300.9
Q 246.75 300.9 247.05 300.95 247.3 301 247.5 301.05 247.7 301.15 247.85 301.25 248 301.35 248.1 301.5 248.2 301.6 248.25 301.75 248.3 301.9 248.3 302.1 248.3 302.3 248.3 302.5 248.3 302.75 248.3 302.95 248.3 303.4 248.3 303.9 248.25 304.35 248.2 304.85 248.1 305.35 247.95 305.8 247.8 306.25 247.6 306.75 247.5 307.2 247.3 307.65 247.15 308.05 246.9 308.45 246.7 308.85 246.4 309.2 246.15 309.6 245.8 309.9 245.55 310.2 245.35 310.45 245.15 310.75 244.95 310.95 244.75 311.15 244.5 311.4 244.3 311.6 244.05 311.75 243.85 311.95 243.55 312.15 243.35 312.3 243 312.45 242.7 312.65 242.3 312.85 241.9 313.05 241.45 313.25 241.2 313.35 241 313.35 240.8 313.3 240.65 313.15 240.45 313.05 240.35 312.85 240.2 312.65 240.1 312.4 240 312.15 239.95 311.9 239.95 311.7 240 311.5 240.05 311.3 240.2 311.15 240.3 311 240.55 310.85 240.95 310.7 241.2 310.55 241.5 310.4 241.75 310.25 241.95 310.15 242.1 310 242.25 309.9 242.4 309.75 242.6 309.65 242.75 309.5 242.9 309.35 243.05 309.2 243.15 309.05 243.3 308.85 243.5 308.7 243.75 308.45 243.85 308.25 244 308 244.2 307.8 244.35 307.55 244.5 307.35 244.65 307.1 244.8 306.85 244.9 306.55 245 306.25 245.1 305.9 245.2 305.6 245.3 305.2 245.35 304.8 245.4 304.35 245.45 303.9 245.5 303.4
L 241.25 303.4
Q 240.95 303.4 240.75 303.3 240.55 303.2 240.4 303 240.3 302.85 240.2 302.6 240.15 302.4 240.15 302.15 240.15 301.65 240.4 301.3 240.55 301.1 240.75 301
M 233.1 301.4
Q 233.1 301.5 233.1 301.65
L 233.1 308.35
Q 233.1 308.95 232.95 309.4 232.8 309.85 232.5 310.15 232.2 310.5 231.75 310.65 231.3 310.8 230.75 310.75
L 228.25 310.75 228.25 313.45 235.1 313.45
Q 235.4 313.45 235.6 313.55 235.8 313.65 235.85 313.85 235.95 314 236 314.25 236.05 314.5 236.05 314.75 236.05 315 236 315.2 235.95 315.4 235.85 315.6 235.8 315.8 235.6 315.9 235.4 315.95 235.1 315.95
L 218.6 315.95
Q 218.3 315.95 218.1 315.9 217.9 315.8 217.8 315.6 217.7 315.4 217.65 315.2 217.65 315 217.65 314.75 217.65 314.5 217.65 314.25 217.7 314 217.8 313.85 217.9 313.65 218.1 313.55 218.3 313.45 218.6 313.45
L 225.45 313.45 225.45 310.75 223.2 310.75
Q 222.1 310.75 221.45 310.15 221.1 309.85 220.95 309.4 220.8 308.95 220.8 308.35
L 220.8 301.65
Q 220.8 301.5 220.85 301.4 220.85 301.3 220.9 301.15 221 301.05 221.05 301 221.15 300.95 221.2 300.9 221.3 300.85 221.4 300.8 221.55 300.75 221.7 300.7 221.8 300.7 221.95 300.7 222.05 300.7 222.15 300.7 222.25 300.7 222.35 300.7 222.5 300.7 222.65 300.7 222.8 300.75 222.9 300.8 223 300.85 223.05 300.9 223.15 300.95 223.25 301 223.35 301.05 223.45 301.15 223.55 301.3 223.55 301.4 223.6 301.5 223.6 301.65
L 223.6 303.5 230.25 303.5 230.25 301.65
Q 230.2 301.5 230.25 301.4 230.3 301.3 230.4 301.15 230.45 301.05 230.55 301 230.65 300.95 230.75 300.9 230.8 300.85 230.9 300.8 231 300.75 231.15 300.7 231.3 300.7 231.4 300.7 231.55 300.7 231.7 300.7 231.75 300.7 231.85 300.7 231.95 300.7 232.1 300.7 232.25 300.75 232.35 300.8 232.5 300.85 232.6 300.9 232.7 300.95 232.75 301 232.85 301.05 232.95 301.15 233.05 301.3 233.1 301.4
M 253.45 299.2
Q 253.9 299.2 254.35 299.4 254.55 299.5 254.65 299.7 254.75 299.9 254.75 300.2
L 254.75 317.95
Q 254.75 318.25 254.65 318.4 254.55 318.65 254.35 318.7 253.9 318.9 253.45 318.9 252.8 318.9 252.45 318.7 252.2 318.65 252.1 318.4 252 318.25 252 317.95
L 252 300.2
Q 252 299.9 252.1 299.7 252.2 299.5 252.45 299.4 252.8 299.2 253.45 299.2
M 223.6 306.05
L 223.6 308.2 230.2 308.2 230.2 306.05 223.6 306.05 Z"/>

<path fill="#FFFFFF" stroke="none" d="
M 254.35 299.4
Q 253.9 299.2 253.45 299.2 252.8 299.2 252.45 299.4 252.2 299.5 252.1 299.7 252 299.9 252 300.2
L 252 317.95
Q 252 318.25 252.1 318.4 252.2 318.65 252.45 318.7 252.8 318.9 253.45 318.9 253.9 318.9 254.35 318.7 254.55 318.65 254.65 318.4 254.75 318.25 254.75 317.95
L 254.75 300.2
Q 254.75 299.9 254.65 299.7 254.55 299.5 254.35 299.4
M 233.1 301.65
Q 233.1 301.5 233.1 301.4 233.05 301.3 232.95 301.15 232.85 301.05 232.75 301 232.7 300.95 232.6 300.9 232.5 300.85 232.35 300.8 232.25 300.75 232.1 300.7 231.95 300.7 231.85 300.7 231.75 300.7 231.7 300.7 231.55 300.7 231.4 300.7 231.3 300.7 231.15 300.7 231 300.75 230.9 300.8 230.8 300.85 230.75 300.9 230.65 300.95 230.55 301 230.45 301.05 230.4 301.15 230.3 301.3 230.25 301.4 230.2 301.5 230.25 301.65
L 230.25 303.5 223.6 303.5 223.6 301.65
Q 223.6 301.5 223.55 301.4 223.55 301.3 223.45 301.15 223.35 301.05 223.25 301 223.15 300.95 223.05 300.9 223 300.85 222.9 300.8 222.8 300.75 222.65 300.7 222.5 300.7 222.35 300.7 222.25 300.7 222.15 300.7 222.05 300.7 221.95 300.7 221.8 300.7 221.7 300.7 221.55 300.75 221.4 300.8 221.3 300.85 221.2 300.9 221.15 300.95 221.05 301 221 301.05 220.9 301.15 220.85 301.3 220.85 301.4 220.8 301.5 220.8 301.65
L 220.8 308.35
Q 220.8 308.95 220.95 309.4 221.1 309.85 221.45 310.15 222.1 310.75 223.2 310.75
L 225.45 310.75 225.45 313.45 218.6 313.45
Q 218.3 313.45 218.1 313.55 217.9 313.65 217.8 313.85 217.7 314 217.65 314.25 217.65 314.5 217.65 314.75 217.65 315 217.65 315.2 217.7 315.4 217.8 315.6 217.9 315.8 218.1 315.9 218.3 315.95 218.6 315.95
L 235.1 315.95
Q 235.4 315.95 235.6 315.9 235.8 315.8 235.85 315.6 235.95 315.4 236 315.2 236.05 315 236.05 314.75 236.05 314.5 236 314.25 235.95 314 235.85 313.85 235.8 313.65 235.6 313.55 235.4 313.45 235.1 313.45
L 228.25 313.45 228.25 310.75 230.75 310.75
Q 231.3 310.8 231.75 310.65 232.2 310.5 232.5 310.15 232.8 309.85 232.95 309.4 233.1 308.95 233.1 308.35
L 233.1 301.65
M 223.6 308.2
L 223.6 306.05 230.2 306.05 230.2 308.2 223.6 308.2
M 241.25 300.9
Q 240.95 300.9 240.75 301 240.55 301.1 240.4 301.3 240.15 301.65 240.15 302.15 240.15 302.4 240.2 302.6 240.3 302.85 240.4 303 240.55 303.2 240.75 303.3 240.95 303.4 241.25 303.4
L 245.5 303.4
Q 245.45 303.9 245.4 304.35 245.35 304.8 245.3 305.2 245.2 305.6 245.1 305.9 245 306.25 244.9 306.55 244.8 306.85 244.65 307.1 244.5 307.35 244.35 307.55 244.2 307.8 244 308 243.85 308.25 243.75 308.45 243.5 308.7 243.3 308.85 243.15 309.05 243.05 309.2 242.9 309.35 242.75 309.5 242.6 309.65 242.4 309.75 242.25 309.9 242.1 310 241.95 310.15 241.75 310.25 241.5 310.4 241.2 310.55 240.95 310.7 240.55 310.85 240.3 311 240.2 311.15 240.05 311.3 240 311.5 239.95 311.7 239.95 311.9 240 312.15 240.1 312.4 240.2 312.65 240.35 312.85 240.45 313.05 240.65 313.15 240.8 313.3 241 313.35 241.2 313.35 241.45 313.25 241.9 313.05 242.3 312.85 242.7 312.65 243 312.45 243.35 312.3 243.55 312.15 243.85 311.95 244.05 311.75 244.3 311.6 244.5 311.4 244.75 311.15 244.95 310.95 245.15 310.75 245.35 310.45 245.55 310.2 245.8 309.9 246.15 309.6 246.4 309.2 246.7 308.85 246.9 308.45 247.15 308.05 247.3 307.65 247.5 307.2 247.6 306.75 247.8 306.25 247.95 305.8 248.1 305.35 248.2 304.85 248.25 304.35 248.3 303.9 248.3 303.4 248.3 302.95 248.3 302.75 248.3 302.5 248.3 302.3 248.3 302.1 248.3 301.9 248.25 301.75 248.2 301.6 248.1 301.5 248 301.35 247.85 301.25 247.7 301.15 247.5 301.05 247.3 301 247.05 300.95 246.75 300.9 246.4 300.9
L 241.25 300.9
M 716.35 490.6
L 716.35 494.95
Q 716.35 495.4 716.45 495.7 716.6 496.05 716.85 496.25 717.1 496.5 717.4 496.6 717.75 496.7 718.2 496.7
L 726.3 496.7
Q 726.7 496.7 727.05 496.6 727.4 496.5 727.65 496.25 727.9 496.05 728 495.7 728.15 495.4 728.15 494.95
L 728.15 490.6
Q 728.15 490.15 728 489.85 727.9 489.5 727.65 489.25 727.4 489 727.05 488.85 726.7 488.75 726.3 488.75
L 718.2 488.75
Q 717.75 488.75 717.4 488.85 717.1 489 716.85 489.25 716.6 489.5 716.45 489.85 716.35 490.15 716.35 490.6
M 719.15 491.9
Q 719.15 491.75 719.2 491.65 719.25 491.5 719.3 491.4 719.35 491.35 719.5 491.3 719.6 491.25 719.75 491.25
L 724.7 491.25
Q 724.85 491.25 724.95 491.3 725.1 491.35 725.15 491.4 725.25 491.5 725.3 491.65 725.3 491.75 725.3 491.9
L 725.3 493.6
Q 725.3 493.75 725.3 493.85 725.25 494 725.15 494.05 725.1 494.1 724.95 494.15 724.85 494.2 724.7 494.2
L 719.75 494.2
Q 719.6 494.2 719.5 494.15 719.35 494.1 719.3 494.05 719.25 494 719.2 493.85 719.15 493.75 719.15 493.6
L 719.15 491.9
M 717.35 478.6
Q 717.25 478.4 717.1 478.3 716.9 478.15 716.7 478.1 716.5 478.05 716.25 478.05 716 478.05 715.75 478.1 715.55 478.15 715.3 478.3 715.1 478.4 715 478.6 714.9 478.8 714.9 479.05
L 714.9 479.95
Q 714.9 480.25 714.85 480.5 714.8 480.8 714.75 481.15 714.65 481.5 714.45 481.85 714.3 482.15 714.1 482.5 713.9 482.9 713.65 483.2 713.45 483.55 713.15 483.9 712.8 484.2 712.5 484.5 712.2 484.8 711.9 485.05 711.65 485.2 711.5 485.35 711.4 485.5 711.45 485.7 711.45 486.1 711.7 486.45 711.8 486.7 711.95 486.9 712.15 487.05 712.3 487.2 712.5 487.3 712.7 487.3 712.9 487.3 713.1 487.2 713.35 487.15 713.55 487 713.8 486.85 714.05 486.65 714.3 486.45 714.5 486.25 714.7 486.05 714.9 485.75 715.35 485.3 715.7 484.75 715.9 484.5 716.05 484.3 716.2 484.05 716.3 483.85 716.45 484.2 716.75 484.6 717 484.95 717.4 485.35 718.15 486.15 719.15 486.8 719.25 486.9 719.35 486.95 719.45 487 719.65 487 719.75 487 719.9 487 720 486.95 720.1 486.9 720.2 486.85 720.35 486.8 720.45 486.75 720.6 486.65 720.7 486.55 720.8 486.5 720.9 486.4 720.95 486.25 721 486.15 721.05 486 721.05 485.9 721.05 485.8 721.05 485.7 721.05 485.6 721.05 485.55 721 485.45 721 485.35 720.9 485.3 720.85 485.2 720.8 485.1 720.7 485.05 720.6 484.95 720.5 484.85 720.4 484.75 720.1 484.55 719.8 484.3 719.55 484.05 719.3 483.7 719 483.45 718.8 483.1 718.55 482.8 718.35 482.45 718.15 482.15 718 481.85 717.85 481.5 717.7 481.2 717.6 480.9 717.55 480.6 717.45 480.3 717.45 480.05
L 717.45 479.05
Q 717.45 478.8 717.35 478.6
M 728.15 478
Q 728.1 477.8 727.95 477.7 727.8 477.6 727.55 477.55 727.35 477.5 727.1 477.5 726.8 477.5 726.55 477.55 726.35 477.6 726.2 477.7 725.9 477.9 725.9 478.5
L 725.9 486.5
Q 725.9 486.8 725.95 487 726.05 487.2 726.2 487.3 726.5 487.45 727.1 487.45 727.35 487.45 727.55 487.4 727.8 487.4 727.95 487.3 728.1 487.2 728.15 487 728.25 486.8 728.25 486.5
L 728.25 478.5
Q 728.25 478.2 728.15 478
M 723.7 477.9
Q 723.6 477.9 723.5 477.9 723.35 477.9 723.2 477.9 723.1 477.9 722.95 477.95 722.7 478 722.6 478.05 722.5 478.15 722.45 478.2 722.35 478.3 722.3 478.4 722.15 478.65 722.15 479.05
L 722.15 480.95 720.55 480.95
Q 720.25 480.95 720.05 481.05 719.85 481.15 719.75 481.3 719.6 481.5 719.55 481.75 719.5 481.95 719.5 482.2 719.5 482.45 719.55 482.7 719.6 482.9 719.75 483.05 719.85 483.25 720.05 483.35 720.25 483.45 720.55 483.45
L 722.15 483.45 722.15 486.3
Q 722.15 486.6 722.25 486.8 722.35 487 722.55 487.1 722.7 487.2 722.95 487.25 723.2 487.3 723.5 487.3 723.75 487.3 723.95 487.25 724.15 487.2 724.3 487.1 724.4 487 724.5 486.8 724.55 486.6 724.55 486.3
L 724.55 479.05
Q 724.55 478.85 724.55 478.7 724.55 478.5 724.5 478.4 724.5 478.3 724.45 478.2 724.35 478.15 724.3 478.05 724.15 478 723.95 477.95 723.8 477.9 723.7 477.9
M 695.6 487.8
Q 695.4 487.85 695.3 488 695.2 488.15 695.15 488.4 695.1 488.6 695.1 488.85 695.1 489.1 695.15 489.3 695.2 489.55 695.3 489.7 695.4 489.85 695.6 489.95 695.8 490 696.1 490
L 704.45 490 704.45 490.9 697.2 490.9
Q 696.8 490.9 696.45 491 696.1 491.1 695.8 491.25 695.5 491.4 695.35 491.7 695.2 492 695.2 492.45
L 695.2 495.3
Q 695.2 495.7 695.35 495.95 695.5 496.25 695.8 496.4 696.1 496.55 696.45 496.6 696.8 496.65 697.2 496.65
L 706.45 496.65
Q 706.8 496.65 707 496.6 707.2 496.55 707.3 496.4 707.4 496.25 707.45 496.05 707.5 495.85 707.5 495.6 707.5 495.05 707.3 494.7 707.2 494.55 707 494.45 706.8 494.4 706.45 494.4
L 698.15 494.4 698.15 493.35 705.15 493.35
Q 705.3 493.35 705.5 493.3 705.65 493.3 705.9 493.25 706.05 493.2 706.25 493.15 706.45 493.1 706.6 493 706.75 492.95 706.85 492.85 706.95 492.75 707.05 492.55 707.1 492.45 707.15 492.25 707.2 492.1 707.2 491.85
L 707.2 489.1
Q 707.2 488.9 707.15 488.75 707.1 488.55 707.05 488.4 706.95 488.3 706.85 488.2 706.75 488.1 706.6 488 706.45 487.95 706.25 487.85 706.05 487.8 705.9 487.8 705.5 487.7 705.15 487.7
L 696.1 487.7
Q 695.8 487.7 695.6 487.8
M 693.3 480.15
L 693.3 478.9
Q 693.3 478.6 693.25 478.4 693.2 478.25 693.1 478.1 693 478.05 692.85 478 692.65 477.95 692.4 477.95 691.95 477.95 691.65 478.1 691.5 478.25 691.4 478.4 691.35 478.6 691.35 478.9
L 691.35 484.45
Q 691.35 484.75 691.35 485 691.35 485.25 691.4 485.5 691.4 485.7 691.45 485.9 691.55 486.05 691.6 486.15 691.75 486.3 691.9 486.4 692.05 486.55 692.25 486.6 692.45 486.65 692.7 486.7 692.9 486.75 693.2 486.75
L 694.4 486.75
Q 694.7 486.75 694.9 486.7 695.15 486.65 695.3 486.6 695.5 486.55 695.55 486.45 695.65 486.35 695.7 486.2 695.75 486.05 695.75 485.9 695.8 485.7 695.8 485.5 695.75 485.25 695.75 485 695.75 484.75 695.75 484.45
L 695.75 478.9
Q 695.75 478.6 695.7 478.4 695.65 478.25 695.55 478.1 695.45 478.05 695.25 478 695.05 477.95 694.8 477.95 694.6 477.95 694.45 478 694.25 478.05 694.15 478.1 694 478.25 693.95 478.4 693.85 478.6 693.85 478.9
L 693.85 480.15 693.3 480.15
M 693.85 482.65
L 693.85 484.3 693.3 484.3 693.3 482.65 693.85 482.65
M 700.8 478.1
Q 700.55 477.95 700.05 477.95 699.85 477.95 699.7 478 699.5 478.05 699.4 478.1 699.25 478.25 699.2 478.4 699.1 478.6 699.1 478.9
L 699.1 480.15 698.45 480.15 698.45 478.9
Q 698.45 478.6 698.4 478.4 698.3 478.25 698.2 478.1 698.05 478.05 697.85 478 697.65 477.95 697.4 477.95 696.95 477.95 696.7 478.1 696.55 478.25 696.45 478.4 696.4 478.6 696.4 478.9
L 696.4 484.45
Q 696.4 484.75 696.4 485 696.4 485.25 696.45 485.5 696.5 485.9 696.65 486.15 696.75 486.3 696.85 486.4 697 486.55 697.2 486.6 697.4 486.65 697.65 486.7 697.9 486.75 698.25 486.75
L 699.2 486.75
Q 699.55 486.75 699.8 486.7 700.1 486.65 700.3 486.6 700.45 486.55 700.6 486.45 700.75 486.35 700.8 486.2 700.9 486.05 700.9 485.9 700.95 485.7 701 485.5 701 485.25 701 485 701.05 484.75 701.05 484.45
L 701.05 478.9
Q 701.05 478.6 700.95 478.4 700.9 478.25 700.8 478.1
M 698.45 484.3
L 698.45 482.65 699.1 482.65 699.1 484.3 698.45 484.3
M 701.9 478.25
Q 701.85 478.45 701.85 478.8
L 701.85 485.85
Q 701.85 486.15 701.9 486.35 702 486.55 702.15 486.65 702.5 486.85 703 486.85 703.5 486.85 703.85 486.65 704 486.55 704.1 486.35 704.2 486.15 704.2 485.85
L 704.2 483.25 705.05 483.25 705.05 486.05
Q 705.05 486.4 705.1 486.6 705.15 486.8 705.3 486.85 705.55 487.05 706.15 487.05 706.75 487.05 707 486.85 707.15 486.8 707.2 486.6 707.3 486.4 707.3 486.05
L 707.3 478.35
Q 707.3 478 707.2 477.8 707.15 477.6 707 477.5 706.75 477.4 706.15 477.4 705.55 477.4 705.3 477.5 705.15 477.6 705.1 477.8 705.05 478 705.05 478.35
L 705.05 480.75 704.2 480.75 704.2 478.8
Q 704.2 478.45 704.1 478.25 704 478 703.85 477.95 703.5 477.8 703 477.8 702.5 477.8 702.15 477.95 702 478 701.9 478.25
M 764.15 478.8
Q 763.75 479.05 763.35 479.35 762.95 479.65 762.6 480.05 762.5 480.3 762.4 480.45 762.3 480.65 762.2 480.8 762.1 480.95 762 481.1 761.95 481.2 761.9 481.3 761.85 481.45 761.8 481.6 761.75 481.7 761.7 481.85 761.65 482 761.65 482.2 761.6 482.35 761.6 482.6 761.55 482.85 761.6 483.1 761.7 483.35 761.9 483.55 762.05 483.75 762.3 483.8 762.5 483.95 762.8 483.95 763.1 483.95 763.35 483.8 763.6 483.75 763.85 483.55 764.05 483.35 764.15 483.1 764.25 482.85 764.25 482.55 764.25 482.45 764.3 482.35 764.35 482.25 764.45 482.1 764.5 481.95 764.6 481.85 764.7 481.7 764.8 481.55 765.05 481.25 765.4 481.15 765.8 481 766.25 481 766.55 481 766.8 481.05 767.05 481.1 767.2 481.15 767.35 481.25 767.5 481.4 767.65 481.5 767.8 481.7 768.1 482 768.25 482.35 768.4 482.7 768.4 483.05 768.35 483.4 768.25 483.75 768.1 484.1 767.85 484.45 767.75 484.6 767.65 484.75 767.55 484.9 767.45 485 767.3 485.15 767.2 485.3 767.05 485.4 766.9 485.5 766.6 485.7 766.35 485.95 766.05 486.15 765.85 486.35 765.55 486.55 765.3 486.75 765.05 486.95 764.8 487.15 763.95 487.8 763.4 488.3 762.8 488.85 762.55 489.35 762.2 489.85 761.95 490.45 761.85 490.7 761.75 491.05 761.65 491.4 761.6 491.8
L 761.6 491.85
Q 761.6 491.9 761.6 491.95
L 761.55 492 761.55 492.1
Q 761.55 492.15 761.55 492.2 761.5 492.2 761.5 492.25 761.5 492.3 761.5 492.35 761.45 492.4 761.45 492.45 761.45 492.5 761.5 492.5
L 761.5 492.7
Q 761.45 493.05 761.55 493.35 761.65 493.6 761.9 493.75 762.1 493.9 762.35 494 762.6 494.1 762.85 494.1
L 769.8 494.1
Q 770.5 494.1 770.85 493.75 771.2 493.4 771.2 492.7 771.2 492.4 771.1 492.2 771 492 770.85 491.85 770.65 491.75 770.4 491.7 770.15 491.65 769.8 491.65
L 764.55 491.65
Q 764.55 491.6 764.55 491.5 764.6 491.4 764.6 491.3 764.6 491.2 764.65 491.15 764.7 491.05 764.75 491 764.85 490.85 764.95 490.65 765.05 490.5 765.2 490.3 765.3 490.1 765.5 489.95 765.65 489.75 765.95 489.6 766.15 489.4 766.4 489.2 766.7 489 767 488.85 767.25 488.65 767.5 488.5 767.75 488.3 768 488.1 768.3 487.9 768.6 487.65 768.9 487.45 769.15 487.2 769.6 486.75 770.1 486.15 770.25 485.85 770.4 485.55 770.55 485.25 770.7 484.9 770.8 484.55 770.9 484.2 770.95 483.8 771 483.4 771.1 482.45 770.75 481.55 770.4 480.65 769.6 479.85 769.25 479.5 768.85 479.2 768.45 478.9 768.05 478.75 767.65 478.55 767.15 478.45 766.7 478.4 766.1 478.4 765.55 478.4 765.05 478.5 764.6 478.6 764.15 478.8
M 738.05 491.35
Q 738.2 491.4 738.45 491.4
L 745.9 491.4 745.9 496.25
Q 745.9 496.7 746.25 497 746.45 497.15 746.7 497.2 746.9 497.3 747.15 497.3 747.25 497.3 747.4 497.25 747.5 497.25 747.65 497.2 747.8 497.15 747.9 497.1 748 497.05 748.1 497 748.2 496.9 748.3 496.85 748.4 496.75 748.5 496.65 748.6 496.6 748.65 496.45 748.7 496.35 748.7 496.25
L 748.7 490.9
Q 748.7 490.5 748.55 490.15 748.45 489.8 748.2 489.5 747.7 488.95 746.9 488.95
L 738.45 488.95
Q 738.2 488.95 738.05 489.05 737.85 489.15 737.75 489.3 737.6 489.5 737.55 489.7 737.5 489.95 737.5 490.2 737.5 490.65 737.75 491.05 737.85 491.25 738.05 491.35
M 748.7 478.2
Q 748.65 478.05 748.6 478 748.55 477.9 748.45 477.8 748.35 477.75 748.2 477.7 748.1 477.65 748 477.6 747.9 477.55 747.75 477.55 747.6 477.55 747.45 477.55 747.3 477.5 747.2 477.5 746.9 477.5 746.7 477.55 746.45 477.6 746.25 477.7 745.9 477.9 745.9 478.5
L 745.9 486.75
Q 745.9 487.05 746 487.25 746.1 487.45 746.25 487.55 746.45 487.65 746.7 487.7 746.9 487.75 747.2 487.75 747.5 487.75 747.75 487.7 748.05 487.65 748.25 487.55 748.5 487.45 748.6 487.25 748.7 487.05 748.75 486.75
L 748.75 478.5
Q 748.75 478.35 748.7 478.2
M 740.1 482
Q 739.9 481.65 739.75 481.3 739.55 480.95 739.45 480.6 739.35 480.25 739.35 479.85
L 739.3 479
Q 739.3 478.7 739.2 478.5 739.1 478.35 738.9 478.25 738.7 478.15 738.45 478.1 738.2 478.05 737.95 478.05 737.8 478.05 737.7 478.05 737.55 478.05 737.45 478.05 737.35 478.1 737.25 478.15 737.1 478.15 737 478.2 736.85 478.3 736.8 478.35 736.7 478.45 736.65 478.5 736.6 478.65 736.55 478.75 736.55 478.85 736.55 479
L 736.55 479.85
Q 736.55 480.15 736.45 480.55 736.4 480.9 736.25 481.25 736.15 481.65 736 482 735.85 482.35 735.7 482.7 735.45 483.05 735.15 483.4 734.9 483.7 734.6 484 734.3 484.35 734 484.55 733.65 484.85 733.3 485.05 733.2 485.1 733.15 485.2 733.05 485.25 733 485.35 732.95 485.45 732.9 485.55 732.9 485.6 732.9 485.7 732.9 485.8 732.9 485.9 732.95 485.95 733 486.05 733 486.15 733.05 486.2 733.1 486.3 733.15 486.4 733.25 486.7 733.4 486.9 733.6 487.05 733.85 487.15 734.1 487.25 734.3 487.25 734.6 487.25 734.85 487.1 735.05 487 735.25 486.8 735.5 486.65 735.7 486.45 735.9 486.25 736.15 486.05 736.35 485.85 736.6 485.6 736.75 485.4 736.9 485.15 737.1 484.95 737.3 484.7 737.45 484.45 737.65 484.2 737.85 484 738 483.75 738.35 484.2 738.7 484.7 739.05 485.1 739.45 485.55 739.85 486 740.4 486.35 740.9 486.7 741.5 486.95 741.7 487.05 741.9 487.05 742.1 487 742.3 486.9 742.5 486.75 742.65 486.55 742.8 486.4 742.9 486.15 743 485.95 743.05 485.75 743.1 485.55 743.1 485.35 743.1 485.2 743 485.05 742.9 484.9 742.7 484.75 742.4 484.55 742.1 484.3 741.8 484.1 741.55 483.8 741.25 483.55 741 483.25 740.7 482.95 740.45 482.65 740.25 482.35 740.1 482
M 740.25 350.15
Q 740.15 350 739.95 349.9 739.75 349.8 739.5 349.75 739.25 349.7 739 349.7 738.85 349.7 738.75 349.7 738.6 349.7 738.5 349.7 738.4 349.75 738.3 349.8 738.15 349.8 738.05 349.85 737.9 349.95 737.85 350 737.75 350.1 737.7 350.15 737.65 350.3 737.6 350.4 737.6 350.5 737.6 350.65
L 737.6 351.5
Q 737.6 351.8 737.5 352.2 737.45 352.55 737.3 352.9 737.2 353.3 737.05 353.65 736.9 354 736.75 354.35 736.5 354.7 736.2 355.05 735.95 355.35 735.65 355.65 735.35 356 735.05 356.2 734.7 356.5 734.35 356.7 734.25 356.75 734.2 356.85 734.1 356.9 734.05 357 734 357.1 733.95 357.2 733.95 357.25 733.95 357.35 733.95 357.45 733.95 357.55 734 357.6 734.05 357.7 734.05 357.8 734.1 357.85 734.15 357.95 734.2 358.05 734.3 358.35 734.45 358.55 734.65 358.7 734.9 358.8 735.15 358.9 735.35 358.9 735.65 358.9 735.9 358.75 736.1 358.65 736.3 358.45 736.55 358.3 736.75 358.1 736.95 357.9 737.2 357.7 737.4 357.5 737.65 357.25 737.8 357.05 737.95 356.8 738.15 356.6 738.35 356.35 738.5 356.1 738.7 355.85 738.9 355.65 739.05 355.4 739.4 355.85 739.75 356.35 740.1 356.75 740.5 357.2 740.9 357.65 741.45 358 741.95 358.35 742.55 358.6 742.75 358.7 742.95 358.7 743.15 358.65 743.35 358.55 743.55 358.4 743.7 358.2 743.85 358.05 743.95 357.8 744.05 357.6 744.1 357.4 744.15 357.2 744.15 357 744.15 356.85 744.05 356.7 743.95 356.55 743.75 356.4 743.45 356.2 743.15 355.95 742.85 355.75 742.6 355.45 742.3 355.2 742.05 354.9 741.75 354.6 741.5 354.3 741.3 354 741.15 353.65 740.95 353.3 740.8 352.95 740.6 352.6 740.5 352.25 740.4 351.9 740.4 351.5
L 740.35 350.65
Q 740.35 350.35 740.25 350.15
M 749.7 368.1
Q 749.75 368 749.75 367.9
L 749.75 362.55
Q 749.75 362.15 749.6 361.8 749.5 361.45 749.25 361.15 748.75 360.6 747.95 360.6
L 739.5 360.6
Q 739.25 360.6 739.1 360.7 738.9 360.8 738.8 360.95 738.65 361.15 738.6 361.35 738.55 361.6 738.55 361.85 738.55 362.3 738.8 362.7 738.9 362.9 739.1 363 739.25 363.05 739.5 363.05
L 746.95 363.05 746.95 367.9
Q 746.95 368.35 747.3 368.65 747.5 368.8 747.75 368.85 747.95 368.95 748.2 368.95 748.3 368.95 748.45 368.9 748.55 368.9 748.7 368.85 748.85 368.8 748.95 368.75 749.05 368.7 749.15 368.65 749.25 368.55 749.35 368.5 749.45 368.4 749.55 368.3 749.65 368.25 749.7 368.1
M 749.5 349.45
Q 749.4 349.4 749.25 349.35 749.15 349.3 749.05 349.25 748.95 349.2 748.8 349.2 748.65 349.2 748.5 349.2 748.35 349.15 748.25 349.15 747.95 349.15 747.75 349.2 747.5 349.25 747.3 349.35 746.95 349.55 746.95 350.15
L 746.95 358.4
Q 746.95 358.7 747.05 358.9 747.15 359.1 747.3 359.2 747.5 359.3 747.75 359.35 747.95 359.4 748.25 359.4 748.55 359.4 748.8 359.35 749.1 359.3 749.3 359.2 749.55 359.1 749.65 358.9 749.75 358.7 749.8 358.4
L 749.8 350.15
Q 749.8 350 749.75 349.85 749.7 349.7 749.65 349.65 749.6 349.55 749.5 349.45
M 766.35 350.45
Q 766.25 350.5 766.2 350.55 766.1 350.65 766.05 350.75 765.95 350.85 765.9 350.95 765.85 351.05 765.85 351.15 765.8 351.25 765.8 351.4 765.8 351.5 765.75 351.65 765.7 351.8 765.65 351.95 765.55 352.1 765.5 352.25 765.4 352.35 765.3 352.45 765.25 352.5 765.15 352.55 765.1 352.6 765 352.65 764.9 352.65 764.8 352.7 764.7 352.75 764.6 352.75 764.55 352.75 764.45 352.75 764.35 352.75 764.25 352.75 764.15 352.8 764.05 352.8 763.9 352.8 763.75 352.8 763.5 352.8 763.3 352.9 763.05 353 762.9 353.2 762.7 353.4 762.65 353.65 762.55 353.85 762.55 354.05 762.55 354.3 762.6 354.55 762.7 354.75 762.85 354.95 763.2 355.4 763.6 355.4
L 765.45 355.4 765.45 364.35
Q 765.45 364.6 765.55 364.85 765.7 365.05 765.9 365.2 766.15 365.4 766.4 365.5 766.65 365.55 766.95 365.55 767 365.55 767.1 365.55 767.2 365.55 767.35 365.5 767.5 365.45 767.6 365.4 767.7 365.35 767.8 365.25 767.9 365.15 767.95 365.05 768.05 364.95 768.1 364.85 768.2 364.7 768.2 364.6 768.25 364.5 768.25 364.35 768.25 362.7 768.25 361.05 768.25 359.45 768.25 357.8 768.2 356.2 768.2 354.6 768.2 353 768.2 351.35 768.2 351.25 768.2 351.15 768.15 351 768.1 350.9 768.05 350.8 768 350.75 767.95 350.65 767.9 350.55 767.8 350.5 767.7 350.45 767.55 350.4 767.45 350.35 767.35 350.3 767.25 350.25 767.1 350.25 767.05 350.25 766.95 350.25 766.85 350.25 766.7 350.3 766.6 350.35 766.45 350.4 766.35 350.45
M 696.15 360.5
Q 696.15 360.75 696.2 360.95 696.25 361.2 696.35 361.35 696.45 361.5 696.65 361.6 696.85 361.65 697.15 361.65
L 705.5 361.65 705.5 362.55 698.25 362.55
Q 697.85 362.55 697.5 362.65 697.15 362.75 696.85 362.9 696.55 363.05 696.4 363.35 696.25 363.65 696.25 364.1
L 696.25 366.95
Q 696.25 367.35 696.4 367.6 696.55 367.9 696.85 368.05 697.15 368.2 697.5 368.25 697.85 368.3 698.25 368.3
L 707.5 368.3
Q 707.85 368.3 708.05 368.25 708.25 368.2 708.35 368.05 708.45 367.9 708.5 367.7 708.55 367.5 708.55 367.25 708.55 366.7 708.35 366.35 708.25 366.2 708.05 366.1 707.85 366.05 707.5 366.05
L 699.2 366.05 699.2 365 706.2 365
Q 706.35 365 706.55 364.95 706.7 364.95 706.95 364.9 707.1 364.85 707.3 364.8 707.5 364.75 707.65 364.65 707.8 364.6 707.9 364.5 708 364.4 708.1 364.2 708.15 364.1 708.2 363.9 708.25 363.75 708.25 363.5
L 708.25 360.75
Q 708.25 360.55 708.2 360.4 708.15 360.2 708.1 360.05 708 359.95 707.9 359.85 707.8 359.75 707.65 359.65 707.5 359.6 707.3 359.5 707.1 359.45 706.95 359.45 706.55 359.35 706.2 359.35
L 697.15 359.35
Q 696.85 359.35 696.65 359.45 696.45 359.5 696.35 359.65 696.25 359.8 696.2 360.05 696.15 360.25 696.15 360.5
M 695 350.05
Q 694.9 350.25 694.9 350.55
L 694.9 351.8 694.35 351.8 694.35 350.55
Q 694.35 350.25 694.3 350.05 694.25 349.9 694.15 349.75 694.05 349.7 693.9 349.65 693.7 349.6 693.45 349.6 693 349.6 692.7 349.75 692.55 349.9 692.45 350.05 692.4 350.25 692.4 350.55
L 692.4 356.1
Q 692.4 356.4 692.4 356.65 692.4 356.9 692.45 357.15 692.45 357.35 692.5 357.55 692.6 357.7 692.65 357.8 692.8 357.95 692.95 358.05 693.1 358.2 693.3 358.25 693.5 358.3 693.75 358.35 693.95 358.4 694.25 358.4
L 695.45 358.4
Q 695.75 358.4 695.95 358.35 696.2 358.3 696.35 358.25 696.55 358.2 696.6 358.1 696.7 358 696.75 357.85 696.8 357.7 696.8 357.55 696.85 357.35 696.85 357.15 696.8 356.9 696.8 356.65 696.8 356.4 696.8 356.1
L 696.8 350.55
Q 696.8 350.25 696.75 350.05 696.7 349.9 696.6 349.75 696.5 349.7 696.3 349.65 696.1 349.6 695.85 349.6 695.65 349.6 695.5 349.65 695.3 349.7 695.2 349.75 695.05 349.9 695 350.05
M 694.35 354.3
L 694.9 354.3 694.9 355.95 694.35 355.95 694.35 354.3
M 700.75 349.65
Q 700.55 349.7 700.45 349.75 700.3 349.9 700.25 350.05 700.15 350.25 700.15 350.55
L 700.15 351.8 699.5 351.8 699.5 350.55
Q 699.5 350.25 699.45 350.05 699.35 349.9 699.25 349.75 699.1 349.7 698.9 349.65 698.7 349.6 698.45 349.6 698 349.6 697.75 349.75 697.6 349.9 697.5 350.05 697.45 350.25 697.45 350.55
L 697.45 356.1
Q 697.45 356.4 697.45 356.65 697.45 356.9 697.5 357.15 697.55 357.55 697.7 357.8 697.8 357.95 697.9 358.05 698.05 358.2 698.25 358.25 698.45 358.3 698.7 358.35 698.95 358.4 699.3 358.4
L 700.25 358.4
Q 700.6 358.4 700.85 358.35 701.15 358.3 701.35 358.25 701.5 358.2 701.65 358.1 701.8 358 701.85 357.85 701.95 357.7 701.95 357.55 702 357.35 702.05 357.15 702.05 356.9 702.05 356.65 702.1 356.4 702.1 356.1
L 702.1 350.55
Q 702.1 350.25 702 350.05 701.95 349.9 701.85 349.75 701.6 349.6 701.1 349.6 700.9 349.6 700.75 349.65
M 699.5 354.3
L 700.15 354.3 700.15 355.95 699.5 355.95 699.5 354.3
M 707.2 349.05
Q 706.6 349.05 706.35 349.15 706.2 349.25 706.15 349.45 706.1 349.65 706.1 350
L 706.1 352.4 705.25 352.4 705.25 350.45
Q 705.25 350.1 705.15 349.9 705.05 349.65 704.9 349.6 704.55 349.45 704.05 349.45 703.55 349.45 703.2 349.6 703.05 349.65 702.95 349.9 702.9 350.1 702.9 350.45
L 702.9 357.5
Q 702.9 357.8 702.95 358 703.05 358.2 703.2 358.3 703.55 358.5 704.05 358.5 704.55 358.5 704.9 358.3 705.05 358.2 705.15 358 705.25 357.8 705.25 357.5
L 705.25 354.9 706.1 354.9 706.1 357.7
Q 706.1 358.05 706.15 358.25 706.2 358.45 706.35 358.5 706.6 358.7 707.2 358.7 707.8 358.7 708.05 358.5 708.2 358.45 708.25 358.25 708.35 358.05 708.35 357.7
L 708.35 350
Q 708.35 349.65 708.25 349.45 708.2 349.25 708.05 349.15 707.8 349.05 707.2 349.05
M 717.9 367.9
Q 718.15 368.15 718.45 368.25 718.8 368.35 719.25 368.35
L 727.35 368.35
Q 727.75 368.35 728.1 368.25 728.45 368.15 728.7 367.9 728.95 367.7 729.05 367.35 729.2 367.05 729.2 366.6
L 729.2 362.25
Q 729.2 361.8 729.05 361.5 728.95 361.15 728.7 360.9 728.45 360.65 728.1 360.5 727.75 360.4 727.35 360.4
L 719.25 360.4
Q 718.8 360.4 718.45 360.5 718.15 360.65 717.9 360.9 717.65 361.15 717.5 361.5 717.4 361.8 717.4 362.25
L 717.4 366.6
Q 717.4 367.05 717.5 367.35 717.65 367.7 717.9 367.9
M 725.75 362.9
Q 725.9 362.9 726 362.95 726.15 363 726.2 363.05 726.3 363.15 726.35 363.3 726.35 363.4 726.35 363.55
L 726.35 365.25
Q 726.35 365.4 726.35 365.5 726.3 365.65 726.2 365.7 726.15 365.75 726 365.8 725.9 365.85 725.75 365.85
L 720.8 365.85
Q 720.65 365.85 720.55 365.8 720.4 365.75 720.35 365.7 720.3 365.65 720.25 365.5 720.2 365.4 720.2 365.25
L 720.2 363.55
Q 720.2 363.4 720.25 363.3 720.3 363.15 720.35 363.05 720.4 363 720.55 362.95 720.65 362.9 720.8 362.9
L 725.75 362.9
M 719.4 354.1
Q 719.2 353.8 719.05 353.5 718.9 353.15 718.75 352.85 718.65 352.55 718.6 352.25 718.5 351.95 718.5 351.7
L 718.5 350.7
Q 718.5 350.45 718.4 350.25 718.3 350.05 718.15 349.95 717.95 349.8 717.75 349.75 717.55 349.7 717.3 349.7 717.05 349.7 716.8 349.75 716.6 349.8 716.35 349.95 716.15 350.05 716.05 350.25 715.95 350.45 715.95 350.7
L 715.95 351.6
Q 715.95 351.9 715.9 352.15 715.85 352.45 715.8 352.8 715.7 353.15 715.5 353.5 715.35 353.8 715.15 354.15 714.95 354.55 714.7 354.85 714.5 355.2 714.2 355.55 713.85 355.85 713.55 356.15 713.25 356.45 712.95 356.7 712.7 356.85 712.55 357 712.45 357.15 712.5 357.35 712.5 357.75 712.75 358.1 712.85 358.35 713 358.55 713.2 358.7 713.35 358.85 713.55 358.95 713.75 358.95 713.95 358.95 714.15 358.85 714.4 358.8 714.6 358.65 714.85 358.5 715.1 358.3 715.35 358.1 715.55 357.9 715.75 357.7 715.95 357.4 716.4 356.95 716.75 356.4 716.95 356.15 717.1 355.95 717.25 355.7 717.35 355.5 717.5 355.85 717.8 356.25 718.05 356.6 718.45 357 719.2 357.8 720.2 358.45 720.3 358.55 720.4 358.6 720.5 358.65 720.7 358.65 720.8 358.65 720.95 358.65 721.05 358.6 721.15 358.55 721.25 358.5 721.4 358.45 721.5 358.4 721.65 358.3 721.75 358.2 721.85 358.15 721.95 358.05 722 357.9 722.05 357.8 722.1 357.65 722.1 357.55 722.1 357.45 722.1 357.35 722.1 357.25 722.1 357.2 722.05 357.1 722.05 357 721.95 356.95 721.9 356.85 721.85 356.75 721.75 356.7 721.65 356.6 721.55 356.5 721.45 356.4 721.15 356.2 720.85 355.95 720.6 355.7 720.35 355.35 720.05 355.1 719.85 354.75 719.6 354.45 719.4 354.1
M 724.75 349.55
Q 724.65 349.55 724.55 349.55 724.4 349.55 724.25 349.55 724.15 349.55 724 349.6 723.75 349.65 723.65 349.7 723.55 349.8 723.5 349.85 723.4 349.95 723.35 350.05 723.2 350.3 723.2 350.7
L 723.2 352.6 721.6 352.6
Q 721.3 352.6 721.1 352.7 720.9 352.8 720.8 352.95 720.65 353.15 720.6 353.4 720.55 353.6 720.55 353.85 720.55 354.1 720.6 354.35 720.65 354.55 720.8 354.7 720.9 354.9 721.1 355 721.3 355.1 721.6 355.1
L 723.2 355.1 723.2 357.95
Q 723.2 358.25 723.3 358.45 723.4 358.65 723.6 358.75 723.75 358.85 724 358.9 724.25 358.95 724.55 358.95 724.8 358.95 725 358.9 725.2 358.85 725.35 358.75 725.45 358.65 725.55 358.45 725.6 358.25 725.6 357.95
L 725.6 350.7
Q 725.6 350.5 725.6 350.35 725.6 350.15 725.55 350.05 725.55 349.95 725.5 349.85 725.4 349.8 725.35 349.7 725.2 349.65 725 349.6 724.85 349.55 724.75 349.55
M 728.15 349.15
Q 727.85 349.15 727.6 349.2 727.4 349.25 727.25 349.35 726.95 349.55 726.95 350.15
L 726.95 358.15
Q 726.95 358.45 727 358.65 727.1 358.85 727.25 358.95 727.55 359.1 728.15 359.1 728.4 359.1 728.6 359.05 728.85 359.05 729 358.95 729.15 358.85 729.2 358.65 729.3 358.45 729.3 358.15
L 729.3 350.15
Q 729.3 349.85 729.2 349.65 729.15 349.45 729 349.35 728.85 349.25 728.6 349.2 728.4 349.15 728.15 349.15 Z"/>

<path fill="#D7C6B3" stroke="none" d="
M 298.3 309.45
Q 298.3 309.1974609375 298.25 308.95 298.11953125 305.76953125 295.8 303.45 293.3 300.95 289.8 300.95 286.3 300.95 283.8 303.45 281.3 305.95 281.3 309.45 281.3 312.95 283.8 315.45 286.3 317.95 289.8 317.95 293.3 317.95 295.8 315.45 298.3 312.95 298.3 309.45
M 185.8 315.45
Q 188.3 312.95 188.3 309.45 188.3 305.95 185.8 303.45 183.3 300.95 179.8 300.95 176.3 300.95 173.8 303.45 171.48046875 305.76953125 171.3 308.95 171.3 309.1974609375 171.3 309.45 171.3 312.95 173.8 315.45 176.3 317.95 179.8 317.95 183.3 317.95 185.8 315.45 Z"/>

<path fill="#7A94C2" stroke="none" d="
M 781.6 478.05
Q 781.6 468.05 771.6 468.05
L 691.55 468.05
Q 681.55 468.05 681.55 478.05
L 681.55 497.1
Q 681.55 507.1 691.55 507.1
L 771.6 507.1
Q 781.6 507.1 781.6 497.1
L 781.6 478.05
M 739.75 481.3
Q 739.9 481.65 740.1 482 740.25 482.35 740.45 482.65 740.7 482.95 741 483.25 741.25 483.55 741.55 483.8 741.8 484.1 742.1 484.3 742.4 484.55 742.7 484.75 742.9 484.9 743 485.05 743.1 485.2 743.1 485.35 743.1 485.55 743.05 485.75 743 485.95 742.9 486.15 742.8 486.4 742.65 486.55 742.5 486.75 742.3 486.9 742.1 487 741.9 487.05 741.7 487.05 741.5 486.95 740.9 486.7 740.4 486.35 739.85 486 739.45 485.55 739.05 485.1 738.7 484.7 738.35 484.2 738 483.75 737.85 484 737.65 484.2 737.45 484.45 737.3 484.7 737.1 484.95 736.9 485.15 736.75 485.4 736.6 485.6 736.35 485.85 736.15 486.05 735.9 486.25 735.7 486.45 735.5 486.65 735.25 486.8 735.05 487 734.85 487.1 734.6 487.25 734.3 487.25 734.1 487.25 733.85 487.15 733.6 487.05 733.4 486.9 733.25 486.7 733.15 486.4 733.1 486.3 733.05 486.2 733 486.15 733 486.05 732.95 485.95 732.9 485.9 732.9 485.8 732.9 485.7 732.9 485.6 732.9 485.55 732.95 485.45 733 485.35 733.05 485.25 733.15 485.2 733.2 485.1 733.3 485.05 733.65 484.85 734 484.55 734.3 484.35 734.6 484 734.9 483.7 735.15 483.4 735.45 483.05 735.7 482.7 735.85 482.35 736 482 736.15 481.65 736.25 481.25 736.4 480.9 736.45 480.55 736.55 480.15 736.55 479.85
L 736.55 479
Q 736.55 478.85 736.55 478.75 736.6 478.65 736.65 478.5 736.7 478.45 736.8 478.35 736.85 478.3 737 478.2 737.1 478.15 737.25 478.15 737.35 478.1 737.45 478.05 737.55 478.05 737.7 478.05 737.8 478.05 737.95 478.05 738.2 478.05 738.45 478.1 738.7 478.15 738.9 478.25 739.1 478.35 739.2 478.5 739.3 478.7 739.3 479
L 739.35 479.85
Q 739.35 480.25 739.45 480.6 739.55 480.95 739.75 481.3
M 748.6 478
Q 748.65 478.05 748.7 478.2 748.75 478.35 748.75 478.5
L 748.75 486.75
Q 748.7 487.05 748.6 487.25 748.5 487.45 748.25 487.55 748.05 487.65 747.75 487.7 747.5 487.75 747.2 487.75 746.9 487.75 746.7 487.7 746.45 487.65 746.25 487.55 746.1 487.45 746 487.25 745.9 487.05 745.9 486.75
L 745.9 478.5
Q 745.9 477.9 746.25 477.7 746.45 477.6 746.7 477.55 746.9 477.5 747.2 477.5 747.3 477.5 747.45 477.55 747.6 477.55 747.75 477.55 747.9 477.55 748 477.6 748.1 477.65 748.2 477.7 748.35 477.75 748.45 477.8 748.55 477.9 748.6 478
M 738.45 491.4
Q 738.2 491.4 738.05 491.35 737.85 491.25 737.75 491.05 737.5 490.65 737.5 490.2 737.5 489.95 737.55 489.7 737.6 489.5 737.75 489.3 737.85 489.15 738.05 489.05 738.2 488.95 738.45 488.95
L 746.9 488.95
Q 747.7 488.95 748.2 489.5 748.45 489.8 748.55 490.15 748.7 490.5 748.7 490.9
L 748.7 496.25
Q 748.7 496.35 748.65 496.45 748.6 496.6 748.5 496.65 748.4 496.75 748.3 496.85 748.2 496.9 748.1 497 748 497.05 747.9 497.1 747.8 497.15 747.65 497.2 747.5 497.25 747.4 497.25 747.25 497.3 747.15 497.3 746.9 497.3 746.7 497.2 746.45 497.15 746.25 497 745.9 496.7 745.9 496.25
L 745.9 491.4 738.45 491.4
M 763.35 479.35
Q 763.75 479.05 764.15 478.8 764.6 478.6 765.05 478.5 765.55 478.4 766.1 478.4 766.7 478.4 767.15 478.45 767.65 478.55 768.05 478.75 768.45 478.9 768.85 479.2 769.25 479.5 769.6 479.85 770.4 480.65 770.75 481.55 771.1 482.45 771 483.4 770.95 483.8 770.9 484.2 770.8 484.55 770.7 484.9 770.55 485.25 770.4 485.55 770.25 485.85 770.1 486.15 769.6 486.75 769.15 487.2 768.9 487.45 768.6 487.65 768.3 487.9 768 488.1 767.75 488.3 767.5 488.5 767.25 488.65 767 488.85 766.7 489 766.4 489.2 766.15 489.4 765.95 489.6 765.65 489.75 765.5 489.95 765.3 490.1 765.2 490.3 765.05 490.5 764.95 490.65 764.85 490.85 764.75 491 764.7 491.05 764.65 491.15 764.6 491.2 764.6 491.3 764.6 491.4 764.55 491.5 764.55 491.6 764.55 491.65
L 769.8 491.65
Q 770.15 491.65 770.4 491.7 770.65 491.75 770.85 491.85 771 492 771.1 492.2 771.2 492.4 771.2 492.7 771.2 493.4 770.85 493.75 770.5 494.1 769.8 494.1
L 762.85 494.1
Q 762.6 494.1 762.35 494 762.1 493.9 761.9 493.75 761.65 493.6 761.55 493.35 761.45 493.05 761.5 492.7
L 761.5 492.5
Q 761.45 492.5 761.45 492.45 761.45 492.4 761.5 492.35 761.5 492.3 761.5 492.25 761.5 492.2 761.55 492.2 761.55 492.15 761.55 492.1
L 761.55 492 761.6 491.95
Q 761.6 491.9 761.6 491.85
L 761.6 491.8
Q 761.65 491.4 761.75 491.05 761.85 490.7 761.95 490.45 762.2 489.85 762.55 489.35 762.8 488.85 763.4 488.3 763.95 487.8 764.8 487.15 765.05 486.95 765.3 486.75 765.55 486.55 765.85 486.35 766.05 486.15 766.35 485.95 766.6 485.7 766.9 485.5 767.05 485.4 767.2 485.3 767.3 485.15 767.45 485 767.55 484.9 767.65 484.75 767.75 484.6 767.85 484.45 768.1 484.1 768.25 483.75 768.35 483.4 768.4 483.05 768.4 482.7 768.25 482.35 768.1 482 767.8 481.7 767.65 481.5 767.5 481.4 767.35 481.25 767.2 481.15 767.05 481.1 766.8 481.05 766.55 481 766.25 481 765.8 481 765.4 481.15 765.05 481.25 764.8 481.55 764.7 481.7 764.6 481.85 764.5 481.95 764.45 482.1 764.35 482.25 764.3 482.35 764.25 482.45 764.25 482.55 764.25 482.85 764.15 483.1 764.05 483.35 763.85 483.55 763.6 483.75 763.35 483.8 763.1 483.95 762.8 483.95 762.5 483.95 762.3 483.8 762.05 483.75 761.9 483.55 761.7 483.35 761.6 483.1 761.55 482.85 761.6 482.6 761.6 482.35 761.65 482.2 761.65 482 761.7 481.85 761.75 481.7 761.8 481.6 761.85 481.45 761.9 481.3 761.95 481.2 762 481.1 762.1 480.95 762.2 480.8 762.3 480.65 762.4 480.45 762.5 480.3 762.6 480.05 762.95 479.65 763.35 479.35
M 701.85 478.8
Q 701.85 478.45 701.9 478.25 702 478 702.15 477.95 702.5 477.8 703 477.8 703.5 477.8 703.85 477.95 704 478 704.1 478.25 704.2 478.45 704.2 478.8
L 704.2 480.75 705.05 480.75 705.05 478.35
Q 705.05 478 705.1 477.8 705.15 477.6 705.3 477.5 705.55 477.4 706.15 477.4 706.75 477.4 707 477.5 707.15 477.6 707.2 477.8 707.3 478 707.3 478.35
L 707.3 486.05
Q 707.3 486.4 707.2 486.6 707.15 486.8 707 486.85 706.75 487.05 706.15 487.05 705.55 487.05 705.3 486.85 705.15 486.8 705.1 486.6 705.05 486.4 705.05 486.05
L 705.05 483.25 704.2 483.25 704.2 485.85
Q 704.2 486.15 704.1 486.35 704 486.55 703.85 486.65 703.5 486.85 703 486.85 702.5 486.85 702.15 486.65 702 486.55 701.9 486.35 701.85 486.15 701.85 485.85
L 701.85 478.8
M 700.05 477.95
Q 700.55 477.95 700.8 478.1 700.9 478.25 700.95 478.4 701.05 478.6 701.05 478.9
L 701.05 484.45
Q 701.05 484.75 701 485 701 485.25 701 485.5 700.95 485.7 700.9 485.9 700.9 486.05 700.8 486.2 700.75 486.35 700.6 486.45 700.45 486.55 700.3 486.6 700.1 486.65 699.8 486.7 699.55 486.75 699.2 486.75
L 698.25 486.75
Q 697.9 486.75 697.65 486.7 697.4 486.65 697.2 486.6 697 486.55 696.85 486.4 696.75 486.3 696.65 486.15 696.5 485.9 696.45 485.5 696.4 485.25 696.4 485 696.4 484.75 696.4 484.45
L 696.4 478.9
Q 696.4 478.6 696.45 478.4 696.55 478.25 696.7 478.1 696.95 477.95 697.4 477.95 697.65 477.95 697.85 478 698.05 478.05 698.2 478.1 698.3 478.25 698.4 478.4 698.45 478.6 698.45 478.9
L 698.45 480.15 699.1 480.15 699.1 478.9
Q 699.1 478.6 699.2 478.4 699.25 478.25 699.4 478.1 699.5 478.05 699.7 478 699.85 477.95 700.05 477.95
M 693.3 478.9
L 693.3 480.15 693.85 480.15 693.85 478.9
Q 693.85 478.6 693.95 478.4 694 478.25 694.15 478.1 694.25 478.05 694.45 478 694.6 477.95 694.8 477.95 695.05 477.95 695.25 478 695.45 478.05 695.55 478.1 695.65 478.25 695.7 478.4 695.75 478.6 695.75 478.9
L 695.75 484.45
Q 695.75 484.75 695.75 485 695.75 485.25 695.8 485.5 695.8 485.7 695.75 485.9 695.75 486.05 695.7 486.2 695.65 486.35 695.55 486.45 695.5 486.55 695.3 486.6 695.15 486.65 694.9 486.7 694.7 486.75 694.4 486.75
L 693.2 486.75
Q 692.9 486.75 692.7 486.7 692.45 486.65 692.25 486.6 692.05 486.55 691.9 486.4 691.75 486.3 691.6 486.15 691.55 486.05 691.45 485.9 691.4 485.7 691.4 485.5 691.35 485.25 691.35 485 691.35 484.75 691.35 484.45
L 691.35 478.9
Q 691.35 478.6 691.4 478.4 691.5 478.25 691.65 478.1 691.95 477.95 692.4 477.95 692.65 477.95 692.85 478 693 478.05 693.1 478.1 693.2 478.25 693.25 478.4 693.3 478.6 693.3 478.9
M 695.3 488
Q 695.4 487.85 695.6 487.8 695.8 487.7 696.1 487.7
L 705.15 487.7
Q 705.5 487.7 705.9 487.8 706.05 487.8 706.25 487.85 706.45 487.95 706.6 488 706.75 488.1 706.85 488.2 706.95 488.3 707.05 488.4 707.1 488.55 707.15 488.75 707.2 488.9 707.2 489.1
L 707.2 491.85
Q 707.2 492.1 707.15 492.25 707.1 492.45 707.05 492.55 706.95 492.75 706.85 492.85 706.75 492.95 706.6 493 706.45 493.1 706.25 493.15 706.05 493.2 705.9 493.25 705.65 493.3 705.5 493.3 705.3 493.35 705.15 493.35
L 698.15 493.35 698.15 494.4 706.45 494.4
Q 706.8 494.4 707 494.45 707.2 494.55 707.3 494.7 707.5 495.05 707.5 495.6 707.5 495.85 707.45 496.05 707.4 496.25 707.3 496.4 707.2 496.55 707 496.6 706.8 496.65 706.45 496.65
L 697.2 496.65
Q 696.8 496.65 696.45 496.6 696.1 496.55 695.8 496.4 695.5 496.25 695.35 495.95 695.2 495.7 695.2 495.3
L 695.2 492.45
Q 695.2 492 695.35 491.7 695.5 491.4 695.8 491.25 696.1 491.1 696.45 491 696.8 490.9 697.2 490.9
L 704.45 490.9 704.45 490 696.1 490
Q 695.8 490 695.6 489.95 695.4 489.85 695.3 489.7 695.2 489.55 695.15 489.3 695.1 489.1 695.1 488.85 695.1 488.6 695.15 488.4 695.2 488.15 695.3 488
M 723.5 477.9
Q 723.6 477.9 723.7 477.9 723.8 477.9 723.95 477.95 724.15 478 724.3 478.05 724.35 478.15 724.45 478.2 724.5 478.3 724.5 478.4 724.55 478.5 724.55 478.7 724.55 478.85 724.55 479.05
L 724.55 486.3
Q 724.55 486.6 724.5 486.8 724.4 487 724.3 487.1 724.15 487.2 723.95 487.25 723.75 487.3 723.5 487.3 723.2 487.3 722.95 487.25 722.7 487.2 722.55 487.1 722.35 487 722.25 486.8 722.15 486.6 722.15 486.3
L 722.15 483.45 720.55 483.45
Q 720.25 483.45 720.05 483.35 719.85 483.25 719.75 483.05 719.6 482.9 719.55 482.7 719.5 482.45 719.5 482.2 719.5 481.95 719.55 481.75 719.6 481.5 719.75 481.3 719.85 481.15 720.05 481.05 720.25 480.95 720.55 480.95
L 722.15 480.95 722.15 479.05
Q 722.15 478.65 722.3 478.4 722.35 478.3 722.45 478.2 722.5 478.15 722.6 478.05 722.7 478 722.95 477.95 723.1 477.9 723.2 477.9 723.35 477.9 723.5 477.9
M 727.95 477.7
Q 728.1 477.8 728.15 478 728.25 478.2 728.25 478.5
L 728.25 486.5
Q 728.25 486.8 728.15 487 728.1 487.2 727.95 487.3 727.8 487.4 727.55 487.4 727.35 487.45 727.1 487.45 726.5 487.45 726.2 487.3 726.05 487.2 725.95 487 725.9 486.8 725.9 486.5
L 725.9 478.5
Q 725.9 477.9 726.2 477.7 726.35 477.6 726.55 477.55 726.8 477.5 727.1 477.5 727.35 477.5 727.55 477.55 727.8 477.6 727.95 477.7
M 717.1 478.3
Q 717.25 478.4 717.35 478.6 717.45 478.8 717.45 479.05
L 717.45 480.05
Q 717.45 480.3 717.55 480.6 717.6 480.9 717.7 481.2 717.85 481.5 718 481.85 718.15 482.15 718.35 482.45 718.55 482.8 718.8 483.1 719 483.45 719.3 483.7 719.55 484.05 719.8 484.3 720.1 484.55 720.4 484.75 720.5 484.85 720.6 484.95 720.7 485.05 720.8 485.1 720.85 485.2 720.9 485.3 721 485.35 721 485.45 721.05 485.55 721.05 485.6 721.05 485.7 721.05 485.8 721.05 485.9 721.05 486 721 486.15 720.95 486.25 720.9 486.4 720.8 486.5 720.7 486.55 720.6 486.65 720.45 486.75 720.35 486.8 720.2 486.85 720.1 486.9 720 486.95 719.9 487 719.75 487 719.65 487 719.45 487 719.35 486.95 719.25 486.9 719.15 486.8 718.15 486.15 717.4 485.35 717 484.95 716.75 484.6 716.45 484.2 716.3 483.85 716.2 484.05 716.05 484.3 715.9 484.5 715.7 484.75 715.35 485.3 714.9 485.75 714.7 486.05 714.5 486.25 714.3 486.45 714.05 486.65 713.8 486.85 713.55 487 713.35 487.15 713.1 487.2 712.9 487.3 712.7 487.3 712.5 487.3 712.3 487.2 712.15 487.05 711.95 486.9 711.8 486.7 711.7 486.45 711.45 486.1 711.45 485.7 711.4 485.5 711.5 485.35 711.65 485.2 711.9 485.05 712.2 484.8 712.5 484.5 712.8 484.2 713.15 483.9 713.45 483.55 713.65 483.2 713.9 482.9 714.1 482.5 714.3 482.15 714.45 481.85 714.65 481.5 714.75 481.15 714.8 480.8 714.85 480.5 714.9 480.25 714.9 479.95
L 714.9 479.05
Q 714.9 478.8 715 478.6 715.1 478.4 715.3 478.3 715.55 478.15 715.75 478.1 716 478.05 716.25 478.05 716.5 478.05 716.7 478.1 716.9 478.15 717.1 478.3
M 716.35 494.95
L 716.35 490.6
Q 716.35 490.15 716.45 489.85 716.6 489.5 716.85 489.25 717.1 489 717.4 488.85 717.75 488.75 718.2 488.75
L 726.3 488.75
Q 726.7 488.75 727.05 488.85 727.4 489 727.65 489.25 727.9 489.5 728 489.85 728.15 490.15 728.15 490.6
L 728.15 494.95
Q 728.15 495.4 728 495.7 727.9 496.05 727.65 496.25 727.4 496.5 727.05 496.6 726.7 496.7 726.3 496.7
L 718.2 496.7
Q 717.75 496.7 717.4 496.6 717.1 496.5 716.85 496.25 716.6 496.05 716.45 495.7 716.35 495.4 716.35 494.95
M 719.2 491.65
Q 719.15 491.75 719.15 491.9
L 719.15 493.6
Q 719.15 493.75 719.2 493.85 719.25 494 719.3 494.05 719.35 494.1 719.5 494.15 719.6 494.2 719.75 494.2
L 724.7 494.2
Q 724.85 494.2 724.95 494.15 725.1 494.1 725.15 494.05 725.25 494 725.3 493.85 725.3 493.75 725.3 493.6
L 725.3 491.9
Q 725.3 491.75 725.3 491.65 725.25 491.5 725.15 491.4 725.1 491.35 724.95 491.3 724.85 491.25 724.7 491.25
L 719.75 491.25
Q 719.6 491.25 719.5 491.3 719.35 491.35 719.3 491.4 719.25 491.5 719.2 491.65
M 693.85 484.3
L 693.85 482.65 693.3 482.65 693.3 484.3 693.85 484.3
M 698.45 482.65
L 698.45 484.3 699.1 484.3 699.1 482.65 698.45 482.65
M 681.55 349.7
L 681.55 368.75
Q 681.55 378.75 691.55 378.75
L 771.6 378.75
Q 781.6 378.75 781.6 368.75
L 781.6 349.7
Q 781.6 339.7 771.6 339.7
L 691.55 339.7
Q 681.55 339.7 681.55 349.7
M 727.6 349.2
Q 727.85 349.15 728.15 349.15 728.4 349.15 728.6 349.2 728.85 349.25 729 349.35 729.15 349.45 729.2 349.65 729.3 349.85 729.3 350.15
L 729.3 358.15
Q 729.3 358.45 729.2 358.65 729.15 358.85 729 358.95 728.85 359.05 728.6 359.05 728.4 359.1 728.15 359.1 727.55 359.1 727.25 358.95 727.1 358.85 727 358.65 726.95 358.45 726.95 358.15
L 726.95 350.15
Q 726.95 349.55 727.25 349.35 727.4 349.25 727.6 349.2
M 724.55 349.55
Q 724.65 349.55 724.75 349.55 724.85 349.55 725 349.6 725.2 349.65 725.35 349.7 725.4 349.8 725.5 349.85 725.55 349.95 725.55 350.05 725.6 350.15 725.6 350.35 725.6 350.5 725.6 350.7
L 725.6 357.95
Q 725.6 358.25 725.55 358.45 725.45 358.65 725.35 358.75 725.2 358.85 725 358.9 724.8 358.95 724.55 358.95 724.25 358.95 724 358.9 723.75 358.85 723.6 358.75 723.4 358.65 723.3 358.45 723.2 358.25 723.2 357.95
L 723.2 355.1 721.6 355.1
Q 721.3 355.1 721.1 355 720.9 354.9 720.8 354.7 720.65 354.55 720.6 354.35 720.55 354.1 720.55 353.85 720.55 353.6 720.6 353.4 720.65 353.15 720.8 352.95 720.9 352.8 721.1 352.7 721.3 352.6 721.6 352.6
L 723.2 352.6 723.2 350.7
Q 723.2 350.3 723.35 350.05 723.4 349.95 723.5 349.85 723.55 349.8 723.65 349.7 723.75 349.65 724 349.6 724.15 349.55 724.25 349.55 724.4 349.55 724.55 349.55
M 719.05 353.5
Q 719.2 353.8 719.4 354.1 719.6 354.45 719.85 354.75 720.05 355.1 720.35 355.35 720.6 355.7 720.85 355.95 721.15 356.2 721.45 356.4 721.55 356.5 721.65 356.6 721.75 356.7 721.85 356.75 721.9 356.85 721.95 356.95 722.05 357 722.05 357.1 722.1 357.2 722.1 357.25 722.1 357.35 722.1 357.45 722.1 357.55 722.1 357.65 722.05 357.8 722 357.9 721.95 358.05 721.85 358.15 721.75 358.2 721.65 358.3 721.5 358.4 721.4 358.45 721.25 358.5 721.15 358.55 721.05 358.6 720.95 358.65 720.8 358.65 720.7 358.65 720.5 358.65 720.4 358.6 720.3 358.55 720.2 358.45 719.2 357.8 718.45 357 718.05 356.6 717.8 356.25 717.5 355.85 717.35 355.5 717.25 355.7 717.1 355.95 716.95 356.15 716.75 356.4 716.4 356.95 715.95 357.4 715.75 357.7 715.55 357.9 715.35 358.1 715.1 358.3 714.85 358.5 714.6 358.65 714.4 358.8 714.15 358.85 713.95 358.95 713.75 358.95 713.55 358.95 713.35 358.85 713.2 358.7 713 358.55 712.85 358.35 712.75 358.1 712.5 357.75 712.5 357.35 712.45 357.15 712.55 357 712.7 356.85 712.95 356.7 713.25 356.45 713.55 356.15 713.85 355.85 714.2 355.55 714.5 355.2 714.7 354.85 714.95 354.55 715.15 354.15 715.35 353.8 715.5 353.5 715.7 353.15 715.8 352.8 715.85 352.45 715.9 352.15 715.95 351.9 715.95 351.6
L 715.95 350.7
Q 715.95 350.45 716.05 350.25 716.15 350.05 716.35 349.95 716.6 349.8 716.8 349.75 717.05 349.7 717.3 349.7 717.55 349.7 717.75 349.75 717.95 349.8 718.15 349.95 718.3 350.05 718.4 350.25 718.5 350.45 718.5 350.7
L 718.5 351.7
Q 718.5 351.95 718.6 352.25 718.65 352.55 718.75 352.85 718.9 353.15 719.05 353.5
M 718.45 368.25
Q 718.15 368.15 717.9 367.9 717.65 367.7 717.5 367.35 717.4 367.05 717.4 366.6
L 717.4 362.25
Q 717.4 361.8 717.5 361.5 717.65 361.15 717.9 360.9 718.15 360.65 718.45 360.5 718.8 360.4 719.25 360.4
L 727.35 360.4
Q 727.75 360.4 728.1 360.5 728.45 360.65 728.7 360.9 728.95 361.15 729.05 361.5 729.2 361.8 729.2 362.25
L 729.2 366.6
Q 729.2 367.05 729.05 367.35 728.95 367.7 728.7 367.9 728.45 368.15 728.1 368.25 727.75 368.35 727.35 368.35
L 719.25 368.35
Q 718.8 368.35 718.45 368.25
M 706.35 349.15
Q 706.6 349.05 707.2 349.05 707.8 349.05 708.05 349.15 708.2 349.25 708.25 349.45 708.35 349.65 708.35 350
L 708.35 357.7
Q 708.35 358.05 708.25 358.25 708.2 358.45 708.05 358.5 707.8 358.7 707.2 358.7 706.6 358.7 706.35 358.5 706.2 358.45 706.15 358.25 706.1 358.05 706.1 357.7
L 706.1 354.9 705.25 354.9 705.25 357.5
Q 705.25 357.8 705.15 358 705.05 358.2 704.9 358.3 704.55 358.5 704.05 358.5 703.55 358.5 703.2 358.3 703.05 358.2 702.95 358 702.9 357.8 702.9 357.5
L 702.9 350.45
Q 702.9 350.1 702.95 349.9 703.05 349.65 703.2 349.6 703.55 349.45 704.05 349.45 704.55 349.45 704.9 349.6 705.05 349.65 705.15 349.9 705.25 350.1 705.25 350.45
L 705.25 352.4 706.1 352.4 706.1 350
Q 706.1 349.65 706.15 349.45 706.2 349.25 706.35 349.15
M 700.45 349.75
Q 700.55 349.7 700.75 349.65 700.9 349.6 701.1 349.6 701.6 349.6 701.85 349.75 701.95 349.9 702 350.05 702.1 350.25 702.1 350.55
L 702.1 356.1
Q 702.1 356.4 702.05 356.65 702.05 356.9 702.05 357.15 702 357.35 701.95 357.55 701.95 357.7 701.85 357.85 701.8 358 701.65 358.1 701.5 358.2 701.35 358.25 701.15 358.3 700.85 358.35 700.6 358.4 700.25 358.4
L 699.3 358.4
Q 698.95 358.4 698.7 358.35 698.45 358.3 698.25 358.25 698.05 358.2 697.9 358.05 697.8 357.95 697.7 357.8 697.55 357.55 697.5 357.15 697.45 356.9 697.45 356.65 697.45 356.4 697.45 356.1
L 697.45 350.55
Q 697.45 350.25 697.5 350.05 697.6 349.9 697.75 349.75 698 349.6 698.45 349.6 698.7 349.6 698.9 349.65 699.1 349.7 699.25 349.75 699.35 349.9 699.45 350.05 699.5 350.25 699.5 350.55
L 699.5 351.8 700.15 351.8 700.15 350.55
Q 700.15 350.25 700.25 350.05 700.3 349.9 700.45 349.75
M 694.9 350.55
Q 694.9 350.25 695 350.05 695.05 349.9 695.2 349.75 695.3 349.7 695.5 349.65 695.65 349.6 695.85 349.6 696.1 349.6 696.3 349.65 696.5 349.7 696.6 349.75 696.7 349.9 696.75 350.05 696.8 350.25 696.8 350.55
L 696.8 356.1
Q 696.8 356.4 696.8 356.65 696.8 356.9 696.85 357.15 696.85 357.35 696.8 357.55 696.8 357.7 696.75 357.85 696.7 358 696.6 358.1 696.55 358.2 696.35 358.25 696.2 358.3 695.95 358.35 695.75 358.4 695.45 358.4
L 694.25 358.4
Q 693.95 358.4 693.75 358.35 693.5 358.3 693.3 358.25 693.1 358.2 692.95 358.05 692.8 357.95 692.65 357.8 692.6 357.7 692.5 357.55 692.45 357.35 692.45 357.15 692.4 356.9 692.4 356.65 692.4 356.4 692.4 356.1
L 692.4 350.55
Q 692.4 350.25 692.45 350.05 692.55 349.9 692.7 349.75 693 349.6 693.45 349.6 693.7 349.6 693.9 349.65 694.05 349.7 694.15 349.75 694.25 349.9 694.3 350.05 694.35 350.25 694.35 350.55
L 694.35 351.8 694.9 351.8 694.9 350.55
M 696.2 360.95
Q 696.15 360.75 696.15 360.5 696.15 360.25 696.2 360.05 696.25 359.8 696.35 359.65 696.45 359.5 696.65 359.45 696.85 359.35 697.15 359.35
L 706.2 359.35
Q 706.55 359.35 706.95 359.45 707.1 359.45 707.3 359.5 707.5 359.6 707.65 359.65 707.8 359.75 707.9 359.85 708 359.95 708.1 360.05 708.15 360.2 708.2 360.4 708.25 360.55 708.25 360.75
L 708.25 363.5
Q 708.25 363.75 708.2 363.9 708.15 364.1 708.1 364.2 708 364.4 707.9 364.5 707.8 364.6 707.65 364.65 707.5 364.75 707.3 364.8 707.1 364.85 706.95 364.9 706.7 364.95 706.55 364.95 706.35 365 706.2 365
L 699.2 365 699.2 366.05 707.5 366.05
Q 707.85 366.05 708.05 366.1 708.25 366.2 708.35 366.35 708.55 366.7 708.55 367.25 708.55 367.5 708.5 367.7 708.45 367.9 708.35 368.05 708.25 368.2 708.05 368.25 707.85 368.3 707.5 368.3
L 698.25 368.3
Q 697.85 368.3 697.5 368.25 697.15 368.2 696.85 368.05 696.55 367.9 696.4 367.6 696.25 367.35 696.25 366.95
L 696.25 364.1
Q 696.25 363.65 696.4 363.35 696.55 363.05 696.85 362.9 697.15 362.75 697.5 362.65 697.85 362.55 698.25 362.55
L 705.5 362.55 705.5 361.65 697.15 361.65
Q 696.85 361.65 696.65 361.6 696.45 361.5 696.35 361.35 696.25 361.2 696.2 360.95
M 766.2 350.55
Q 766.25 350.5 766.35 350.45 766.45 350.4 766.6 350.35 766.7 350.3 766.85 350.25 766.95 350.25 767.05 350.25 767.1 350.25 767.25 350.25 767.35 350.3 767.45 350.35 767.55 350.4 767.7 350.45 767.8 350.5 767.9 350.55 767.95 350.65 768 350.75 768.05 350.8 768.1 350.9 768.15 351 768.2 351.15 768.2 351.25 768.2 351.35 768.2 353 768.2 354.6 768.2 356.2 768.25 357.8 768.25 359.45 768.25 361.05 768.25 362.7 768.25 364.35 768.25 364.5 768.2 364.6 768.2 364.7 768.1 364.85 768.05 364.95 767.95 365.05 767.9 365.15 767.8 365.25 767.7 365.35 767.6 365.4 767.5 365.45 767.35 365.5 767.2 365.55 767.1 365.55 767 365.55 766.95 365.55 766.65 365.55 766.4 365.5 766.15 365.4 765.9 365.2 765.7 365.05 765.55 364.85 765.45 364.6 765.45 364.35
L 765.45 355.4 763.6 355.4
Q 763.2 355.4 762.85 354.95 762.7 354.75 762.6 354.55 762.55 354.3 762.55 354.05 762.55 353.85 762.65 353.65 762.7 353.4 762.9 353.2 763.05 353 763.3 352.9 763.5 352.8 763.75 352.8 763.9 352.8 764.05 352.8 764.15 352.8 764.25 352.75 764.35 352.75 764.45 352.75 764.55 352.75 764.6 352.75 764.7 352.75 764.8 352.7 764.9 352.65 765 352.65 765.1 352.6 765.15 352.55 765.25 352.5 765.3 352.45 765.4 352.35 765.5 352.25 765.55 352.1 765.65 351.95 765.7 351.8 765.75 351.65 765.8 351.5 765.8 351.4 765.8 351.25 765.85 351.15 765.85 351.05 765.9 350.95 765.95 350.85 766.05 350.75 766.1 350.65 766.2 350.55
M 749.25 349.35
Q 749.4 349.4 749.5 349.45 749.6 349.55 749.65 349.65 749.7 349.7 749.75 349.85 749.8 350 749.8 350.15
L 749.8 358.4
Q 749.75 358.7 749.65 358.9 749.55 359.1 749.3 359.2 749.1 359.3 748.8 359.35 748.55 359.4 748.25 359.4 747.95 359.4 747.75 359.35 747.5 359.3 747.3 359.2 747.15 359.1 747.05 358.9 746.95 358.7 746.95 358.4
L 746.95 350.15
Q 746.95 349.55 747.3 349.35 747.5 349.25 747.75 349.2 747.95 349.15 748.25 349.15 748.35 349.15 748.5 349.2 748.65 349.2 748.8 349.2 748.95 349.2 749.05 349.25 749.15 349.3 749.25 349.35
M 749.75 367.9
Q 749.75 368 749.7 368.1 749.65 368.25 749.55 368.3 749.45 368.4 749.35 368.5 749.25 368.55 749.15 368.65 749.05 368.7 748.95 368.75 748.85 368.8 748.7 368.85 748.55 368.9 748.45 368.9 748.3 368.95 748.2 368.95 747.95 368.95 747.75 368.85 747.5 368.8 747.3 368.65 746.95 368.35 746.95 367.9
L 746.95 363.05 739.5 363.05
Q 739.25 363.05 739.1 363 738.9 362.9 738.8 362.7 738.55 362.3 738.55 361.85 738.55 361.6 738.6 361.35 738.65 361.15 738.8 360.95 738.9 360.8 739.1 360.7 739.25 360.6 739.5 360.6
L 747.95 360.6
Q 748.75 360.6 749.25 361.15 749.5 361.45 749.6 361.8 749.75 362.15 749.75 362.55
L 749.75 367.9
M 739.95 349.9
Q 740.15 350 740.25 350.15 740.35 350.35 740.35 350.65
L 740.4 351.5
Q 740.4 351.9 740.5 352.25 740.6 352.6 740.8 352.95 740.95 353.3 741.15 353.65 741.3 354 741.5 354.3 741.75 354.6 742.05 354.9 742.3 355.2 742.6 355.45 742.85 355.75 743.15 355.95 743.45 356.2 743.75 356.4 743.95 356.55 744.05 356.7 744.15 356.85 744.15 357 744.15 357.2 744.1 357.4 744.05 357.6 743.95 357.8 743.85 358.05 743.7 358.2 743.55 358.4 743.35 358.55 743.15 358.65 742.95 358.7 742.75 358.7 742.55 358.6 741.95 358.35 741.45 358 740.9 357.65 740.5 357.2 740.1 356.75 739.75 356.35 739.4 355.85 739.05 355.4 738.9 355.65 738.7 355.85 738.5 356.1 738.35 356.35 738.15 356.6 737.95 356.8 737.8 357.05 737.65 357.25 737.4 357.5 737.2 357.7 736.95 357.9 736.75 358.1 736.55 358.3 736.3 358.45 736.1 358.65 735.9 358.75 735.65 358.9 735.35 358.9 735.15 358.9 734.9 358.8 734.65 358.7 734.45 358.55 734.3 358.35 734.2 358.05 734.15 357.95 734.1 357.85 734.05 357.8 734.05 357.7 734 357.6 733.95 357.55 733.95 357.45 733.95 357.35 733.95 357.25 733.95 357.2 734 357.1 734.05 357 734.1 356.9 734.2 356.85 734.25 356.75 734.35 356.7 734.7 356.5 735.05 356.2 735.35 356 735.65 355.65 735.95 355.35 736.2 355.05 736.5 354.7 736.75 354.35 736.9 354 737.05 353.65 737.2 353.3 737.3 352.9 737.45 352.55 737.5 352.2 737.6 351.8 737.6 351.5
L 737.6 350.65
Q 737.6 350.5 737.6 350.4 737.65 350.3 737.7 350.15 737.75 350.1 737.85 350 737.9 349.95 738.05 349.85 738.15 349.8 738.3 349.8 738.4 349.75 738.5 349.7 738.6 349.7 738.75 349.7 738.85 349.7 739 349.7 739.25 349.7 739.5 349.75 739.75 349.8 739.95 349.9
M 694.9 354.3
L 694.35 354.3 694.35 355.95 694.9 355.95 694.9 354.3
M 700.15 354.3
L 699.5 354.3 699.5 355.95 700.15 355.95 700.15 354.3
M 726 362.95
Q 725.9 362.9 725.75 362.9
L 720.8 362.9
Q 720.65 362.9 720.55 362.95 720.4 363 720.35 363.05 720.3 363.15 720.25 363.3 720.2 363.4 720.2 363.55
L 720.2 365.25
Q 720.2 365.4 720.25 365.5 720.3 365.65 720.35 365.7 720.4 365.75 720.55 365.8 720.65 365.85 720.8 365.85
L 725.75 365.85
Q 725.9 365.85 726 365.8 726.15 365.75 726.2 365.7 726.3 365.65 726.35 365.5 726.35 365.4 726.35 365.25
L 726.35 363.55
Q 726.35 363.4 726.35 363.3 726.3 363.15 726.2 363.05 726.15 363 726 362.95 Z"/>
</g>

<path id="Layer1_0_1_STROKES" stroke="#1E1E1E" stroke-width="3" stroke-linejoin="miter" stroke-linecap="butt" stroke-miterlimit="3" fill="none" d="
M 216.45 411
L 263.3 411
M 432.3 411
L 479.15 411
M 320.3 411
L 367.15 411"/>

<path id="Layer1_0_2_STROKES" stroke="#D7C6B3" stroke-width="4" stroke-linejoin="round" stroke-linecap="round" fill="none" d="
M 298.275 308.95
L 552.4 308.95
Q 572 308.95 572.4 328.15
L 572.4 484.75
Q 572.05 504.05 552.4 504.05
L 143.15 504.05
Q 123.5 504.05 123.15 484.75
L 123.15 328.15
Q 123.55 308.95 143.15 308.95
L 171.325 308.95"/>

<path id="Layer1_0_3_STROKES" stroke="#CCCCCC" stroke-width="3" stroke-linejoin="round" stroke-linecap="round" fill="none" d="
M 792.4 512.15
L 1156.9 512.15
M 792.4 383.8
L 1156.9 383.8"/>
</defs>

<g transform="matrix( 1, 0, 0, 1, 0,0) ">
<use xlink:href="#Layer1_0_FILL"/>

<use xlink:href="#Layer1_0_1_STROKES"/>

<use xlink:href="#Layer1_0_2_STROKES"/>

<use xlink:href="#Layer1_0_3_STROKES"/>
</g>
</svg>
