
<svg xmlns="http://www.w3.org/2000/svg" version="1.1" xmlns:xlink="http://www.w3.org/1999/xlink" preserveAspectRatio="none" x="0px" y="0px" width="1280px" height="720px" viewBox="0 0 1280 720">
<defs>
<g id="Layer0_0_FILL">
<path fill="#1E1E1E" stroke="none" d="
M 198.5 347.55
Q 198.2 347.55 198.05 347.75 197.9 347.95 197.9 348.15
L 197.9 350.75
Q 197.9 351 198.05 351.2 198.2 351.4 198.5 351.4
L 207.1 351.4 207.1 364.35
Q 207.1 364.9 207.7 364.9
L 211.15 364.9
Q 211.7 364.9 211.7 364.35
L 211.7 351.4 220.1 351.4 220.1 364.35
Q 220.1 364.9 220.65 364.9
L 224.1 364.9
Q 224.65 364.9 224.65 364.35
L 224.65 351.4 233.3 351.4
Q 233.5 351.4 233.7 351.2 233.9 351 233.9 350.75
L 233.9 348.15
Q 233.9 347.95 233.7 347.8 233.5 347.55 233.3 347.55
L 198.5 347.55
M 192.55 327.75
Q 192.55 327.2 192 327.2
L 188.5 327.2
Q 188.25 327.2 188.1 327.35 187.9 327.5 187.9 327.75
L 187.9 364.65
Q 187.9 364.9 188.1 365 188.25 365.2 188.5 365.2
L 192 365.2
Q 192.55 365.2 192.55 364.65
L 192.55 327.75
M 220.8 328.2
Q 218.5 327.65 215.9 327.65 213.35 327.65 211 328.2 208.65 328.75 206.8 329.75 205 330.75 203.9 332.3 202.8 333.8 202.8 335.75 202.8 337.75 203.9 339.2 205 340.75 206.8 341.8 208.65 342.8 211 343.35 213.35 343.9 215.9 343.9 218.5 343.9 220.8 343.35 223.2 342.8 225 341.8 226.85 340.75 227.9 339.2 229 337.75 229 335.75 229 333.8 227.9 332.3 226.85 330.75 225 329.75 223.2 328.75 220.8 328.2
M 215.9 331.4
Q 217.45 331.4 218.95 331.7 220.45 332 221.6 332.6 222.75 333.15 223.5 334 224.2 334.8 224.2 335.8 224.2 336.8 223.5 337.6 222.75 338.4 221.6 338.95 220.45 339.55 218.95 339.85 217.45 340.15 215.9 340.15 214.35 340.15 212.85 339.85 211.4 339.55 210.2 338.95 209.05 338.4 208.3 337.6 207.6 336.8 207.6 335.8 207.6 334.8 208.3 334 209.05 333.15 210.2 332.6 211.4 332 212.85 331.7 214.35 331.4 215.9 331.4
M 161.6 352.1
Q 161.3 352.25 161.15 352.55 160.95 352.9 161.25 353.25
L 162.8 355.35
Q 163 355.65 163.35 355.7 163.7 355.75 164 355.55 167.05 353.6 169.6 351.3 172.1 349 174.15 346.5 174.95 347.5 175.95 348.7 176.95 349.85 178 350.9 179 351.95 180 352.8 181 353.65 181.7 354.1 182.5 354.6 183.05 354.05
L 184.75 352.1
Q 185 351.8 184.9 351.45 184.8 351.15 184.5 350.95 183.65 350.35 182.65 349.4 181.6 348.45 180.5 347.35 179.45 346.3 178.45 345.15 177.4 344 176.7 342.95 178.05 340.8 178.95 338.65 179.9 336.55 180.45 334.4 180.6 333.95 180.65 333.4 180.75 332.9 180.75 332.35 180.75 331.4 179.85 330.8 179 330.2 177.4 330.2
L 164.4 330.2
Q 163.85 330.2 163.85 330.75
L 163.85 333.45
Q 163.85 333.7 163.95 333.85 164.1 334.05 164.35 334.05
L 174.65 334.05
Q 175.35 334.05 175.45 334.25 175.6 334.45 175.45 335.15 174.85 337.3 173.6 339.65 172.3 342 170.5 344.2 168.65 346.45 166.4 348.5 164.1 350.55 161.6 352.1
M 598.9 357.2
L 598.9 353.5
Q 598.9 352.1 598.35 351.55 597.8 351 596.1 351
L 575.8 351
Q 575.6 351 575.4 351.2 575.25 351.35 575.25 351.55
L 575.25 354.05
Q 575.25 354.25 575.4 354.4 575.6 354.55 575.8 354.55
L 593.85 354.55
Q 594.25 354.55 594.3 354.6 594.4 354.7 594.4 355.15
L 594.4 355.85
Q 594.4 356.2 594.3 356.3 594.25 356.4 593.9 356.4
L 578 356.4
Q 576.45 356.4 575.85 357 575.3 357.5 575.3 358.8
L 575.3 362.65
Q 575.3 363.95 575.9 364.55 576.5 365.15 578.05 365.15
L 599.35 365.15
Q 599.5 365.15 599.7 364.95 599.85 364.75 599.85 364.55
L 599.85 362.15
Q 599.85 361.95 599.7 361.8 599.5 361.65 599.3 361.65
L 580.4 361.65
Q 580 361.65 579.9 361.6 579.85 361.55 579.85 361.15
L 579.85 360.2
Q 579.85 359.9 579.9 359.8 580 359.7 580.35 359.7
L 596.1 359.7
Q 597.8 359.7 598.35 359.15 598.9 358.6 598.9 357.2
M 598.9 327.75
Q 598.9 327.2 598.35 327.2
L 594.8 327.2
Q 594.25 327.2 594.25 327.75
L 594.25 348.8
Q 594.25 349.05 594.45 349.2 594.6 349.4 594.8 349.4
L 598.35 349.4
Q 598.55 349.4 598.7 349.2 598.9 349.05 598.9 348.85
L 598.9 340.6 604.25 340.6
Q 604.5 340.6 604.7 340.45 604.85 340.3 604.85 340.1
L 604.85 337.3
Q 604.85 337.1 604.7 336.95 604.5 336.8 604.25 336.8
L 598.9 336.8 598.9 327.75
M 574.7 338.45
Q 573.5 339.25 572.85 340.4 572.2 341.55 572.2 342.95 572.2 344.4 572.85 345.55 573.5 346.7 574.7 347.5 575.85 348.3 577.4 348.8 578.95 349.25 580.75 349.25 582.6 349.25 584.15 348.8 585.75 348.3 586.9 347.5 588.1 346.7 588.75 345.55 589.45 344.4 589.45 342.95 589.45 341.55 588.75 340.4 588.1 339.25 586.95 338.45 585.75 337.6 584.15 337.15 582.6 336.7 580.8 336.7 579 336.7 577.45 337.15 575.85 337.6 574.7 338.45
M 580.8 345.9
Q 578.9 345.9 577.7 345.05 576.5 344.2 576.5 342.95 576.5 341.7 577.7 340.9 578.9 340.15 580.8 340.15 582.7 340.15 583.9 340.9 585.1 341.7 585.1 342.95 585.1 344.2 583.9 345.05 582.7 345.9 580.8 345.9
M 569.95 332.15
Q 569.7 332.15 569.5 332.35 569.25 332.5 569.25 332.75
L 569.25 334.8
Q 569.25 335.1 569.45 335.3 569.7 335.5 569.9 335.5
L 591 335.5
Q 591.2 335.5 591.4 335.3 591.6 335.15 591.6 334.85
L 591.6 332.75
Q 591.6 332.5 591.4 332.3 591.2 332.15 591 332.15
L 569.95 332.15
M 586.45 329.95
L 586.45 327.95
Q 586.45 327.7 586.2 327.5 586.05 327.3 585.75 327.3
L 575.4 327.3
Q 575.25 327.3 575 327.45 574.8 327.6 574.8 327.9
L 574.8 330
Q 574.8 330.3 575 330.45 575.25 330.6 575.4 330.6
L 585.75 330.6
Q 586.05 330.6 586.25 330.4 586.45 330.2 586.45 329.95
M 636.5 327.75
Q 636.5 327.5 636.3 327.35 636.1 327.2 635.9 327.2
L 632.4 327.2
Q 631.85 327.2 631.85 327.75
L 631.85 364.65
Q 631.85 365.2 632.4 365.2
L 635.9 365.2
Q 636.1 365.2 636.3 365 636.5 364.9 636.5 364.65
L 636.5 345.7 641.85 345.7
Q 642.05 345.7 642.25 345.55 642.45 345.35 642.45 345.15
L 642.45 342.35
Q 642.45 342.15 642.25 342 642.05 341.85 641.85 341.85
L 636.5 341.85 636.5 327.75
M 624.85 333.15
Q 623.55 331.45 621.75 330.55 619.9 329.6 617.6 329.6 615.3 329.6 613.45 330.55 611.65 331.5 610.35 333.2 609.1 334.9 608.45 337.35 607.75 339.75 607.75 342.8 607.75 345.7 608.45 348.1 609.1 350.5 610.35 352.2 611.65 353.95 613.45 354.85 615.3 355.8 617.6 355.8 619.9 355.8 621.75 354.9 623.55 353.95 624.85 352.25 626.1 350.55 626.8 348.1 627.45 345.7 627.45 342.7 627.45 339.7 626.8 337.25 626.1 334.85 624.85 333.15
M 613.7 336.35
Q 614.4 335.15 615.35 334.4 616.35 333.7 617.6 333.7 618.85 333.7 619.9 334.4 620.85 335.15 621.55 336.35 622.25 337.55 622.6 339.2 622.95 340.85 622.95 342.7 622.95 344.5 622.6 346.15 622.25 347.8 621.55 349 620.85 350.25 619.9 351 618.85 351.7 617.6 351.7 616.35 351.7 615.35 351 614.4 350.25 613.7 349 613 347.8 612.65 346.15 612.3 344.5 612.3 342.7 612.3 340.85 612.65 339.2 613 337.55 613.7 336.35
M 401.05 380.1
Q 401.2 380.2 401.55 380.2
L 414.35 380.2 414.35 386.3
Q 414.35 386.7 414.5 386.85 414.65 387 415.1 387
L 418 387
Q 418.4 387 418.5 386.85 418.65 386.75 418.65 386.3
L 418.65 380.2 422.35 380.2
Q 422.7 380.2 422.85 380.1 423 380 423 379.6
L 423 376.7
Q 423 376.3 422.85 376.2 422.7 376.1 422.35 376.1
L 418.65 376.1 418.65 357.2
Q 418.65 356.85 418.6 356.75 418.55 356.6 418.25 356.6
L 414.6 356.6
Q 414.2 356.6 414.1 356.7 414 356.8 413.8 357.15
L 401.4 375.75
Q 401.25 375.9 401.1 376.2 400.9 376.5 400.9 376.75
L 400.9 379.75
Q 400.9 380.05 401.05 380.1
M 414.35 376.1
L 405.75 376.1 414.35 363.05 414.35 376.1
M 381.85 330.75
Q 381.75 330.6 381.05 330.6
L 378.95 330.6
Q 378.8 330.6 378.6 330.7 378.4 330.75 378.35 330.85
L 372.2 336.5
Q 372 336.7 372 336.9 371.95 337.15 372.1 337.3
L 373.9 339.45
Q 374.05 339.6 374.3 339.55 374.55 339.55 374.8 339.4
L 377.75 336.8 377.75 360.5
Q 377.75 361 378.3 361
L 381.5 361
Q 382 361 382 360.5
L 382 331.7
Q 382 330.9 381.85 330.75
M 404.1 312.6
Q 404.4 312.6 404.75 312.4 406.55 311.35 408.05 310.9 409.6 310.45 411.25 310.45 413 310.45 414.15 311.7 415.35 312.95 415.35 314.85 415.35 316.55 413.75 319.15 412.15 321.8 408.8 325.75
L 402.7 333
Q 402.5 333.3 402.3 333.6 402.15 333.95 402.15 334.25
L 402.15 336.55
Q 402.15 337.05 402.9 337.05
L 419.95 337.05
Q 420.5 337.05 420.5 336.35
L 420.5 333.55
Q 420.5 332.95 419.95 332.95
L 408.2 332.95
Q 409.2 331.8 410.2 330.65 411.2 329.45 412.05 328.35 413.15 327.05 414.55 325.45 415.9 323.8 417.1 322.05 418.3 320.25 419.1 318.4 419.9 316.55 419.9 314.75 419.9 312.65 419.2 311.05 418.5 309.45 417.35 308.4 416.2 307.35 414.55 306.8 412.95 306.25 411 306.25 409.15 306.25 407.15 306.9 405.2 307.55 403.7 308.35 403.3 308.55 403.15 308.8 403.05 308.95 403.15 309.15
L 403.7 312.2
Q 403.8 312.55 404.1 312.6
M 918.05 327.75
Q 918.05 327.2 917.55 327.2
L 914 327.2
Q 913.45 327.2 913.45 327.75
L 913.45 364.65
Q 913.45 365.2 914 365.2
L 917.55 365.2
Q 918.05 365.2 918.05 364.65
L 918.05 346.55 923.3 346.55
Q 923.5 346.55 923.7 346.4 923.85 346.25 923.85 346.05
L 923.85 343.25
Q 923.85 343 923.7 342.85 923.5 342.75 923.3 342.75
L 918.05 342.75 918.05 327.75
M 887.5 354.05
L 887.5 356.7
Q 887.5 356.95 887.65 357.1 887.85 357.3 888.05 357.3 893.85 357.4 899.85 357.15 905.85 356.85 911.45 355.95 911.65 355.9 911.8 355.75 911.95 355.55 911.9 355.2
L 911.65 352.7
Q 911.65 352.35 911.4 352.3 911.15 352.25 910.95 352.3 908.25 352.75 905.5 352.95 902.8 353.2 900 353.35
L 900 342.95
Q 900 342.35 899.4 342.35
L 896 342.35
Q 895.5 342.35 895.5 342.95
L 895.5 353.55
Q 893.6 353.6 891.75 353.6 889.95 353.6 888.05 353.5 887.5 353.5 887.5 354.05
M 880.3 327.75
Q 880.3 327.2 879.75 327.2
L 876.2 327.2
Q 875.65 327.2 875.65 327.75
L 875.65 364.65
Q 875.65 365.2 876.2 365.2
L 879.75 365.2
Q 880.3 365.2 880.3 364.65
L 880.3 345.65 885.7 345.65
Q 885.9 345.65 886.1 345.5 886.25 345.35 886.25 345.1
L 886.25 342.3
Q 886.25 342.1 886.1 341.95 885.9 341.8 885.7 341.8
L 880.3 341.8 880.3 327.75
M 890.65 330.5
Q 890.4 330.5 890.2 330.6 890 330.75 890 331
L 890 333.75
Q 890 333.95 890.2 334.1 890.4 334.25 890.65 334.25
L 903.85 334.25
Q 904.4 334.25 904.7 334.4 905 334.55 905 335.15 905 338.15 904.7 341.1 904.4 344 903.95 346.9 903.85 347.7 904.35 347.75
L 907.55 348
Q 907.9 348.05 908.05 347.75 908.25 347.45 908.3 347.15 908.95 343.6 909.25 340.15 909.5 336.65 909.5 333.35 909.5 331.9 908.8 331.2 908.1 330.5 906.85 330.5
L 890.65 330.5
M 863.9 329.5
Q 863.75 329.3 863.55 329.3
L 860 329.15
Q 859.8 329.15 859.6 329.35 859.45 329.55 859.45 329.75 859.5 331.55 859.4 333.1 859.3 334.7 859.1 336.15 858.9 337.6 858.6 339.05 858.25 340.45 857.75 341.9 856.65 345.2 854.8 348.05 852.95 350.95 850.35 353.3 849.65 353.95 850.25 354.55
L 852.1 356.3
Q 852.75 356.95 853.5 356.35 854.6 355.45 855.7 354.2 856.8 353 857.85 351.6 858.85 350.2 859.8 348.6 860.7 347 861.45 345.3 861.95 346.55 862.8 347.95 863.65 349.35 864.6 350.65 865.6 351.95 866.65 353.05 867.75 354.15 868.7 354.9 869.1 355.2 869.45 355.2 869.8 355.15 870 354.85
L 871.65 352.8
Q 872.25 352.05 871.6 351.55 870.3 350.55 869 349.05 867.7 347.6 866.6 345.85 865.45 344.1 864.65 342.25 863.8 340.35 863.4 338.5 863.75 336.55 863.9 334.45 864.05 332.35 864.05 329.9 864.05 329.65 863.9 329.5
M 664.75 329.75
Q 664.75 329.55 664.55 329.4 664.4 329.2 664.2 329.2
L 660.7 329.2
Q 660.45 329.2 660.3 329.4 660.1 329.55 660.1 329.75
L 660.1 338.55 651.1 338.55 651.1 329.75
Q 651.1 329.55 650.95 329.45 650.75 329.3 650.55 329.3
L 647.05 329.3
Q 646.85 329.3 646.7 329.45 646.5 329.55 646.5 329.75
L 646.5 351.35
Q 646.5 352.95 647.15 353.6 647.8 354.15 649.55 354.15
L 661.7 354.15
Q 663.45 354.15 664.1 353.5 664.75 352.8 664.75 351.5
L 664.75 344.05 671.4 344.05 671.4 364.65
Q 671.4 365.2 671.9 365.2
L 675.45 365.2
Q 676 365.2 676 364.65
L 676 327.75
Q 676 327.2 675.45 327.2
L 671.9 327.2
Q 671.4 327.2 671.4 327.75
L 671.4 340.2 664.75 340.2 664.75 329.75
M 651.1 342.25
L 660.1 342.25 660.1 349.75
Q 660.1 350.4 659.4 350.4
L 651.85 350.4
Q 651.1 350.4 651.1 349.75
L 651.1 342.25
M 713.35 327.75
Q 713.35 327.2 712.8 327.2
L 709.3 327.2
Q 709.05 327.2 708.9 327.35 708.7 327.5 708.7 327.75
L 708.7 364.65
Q 708.7 364.9 708.9 365 709.05 365.2 709.3 365.2
L 712.8 365.2
Q 713.35 365.2 713.35 364.65
L 713.35 327.75
M 701.45 333.4
Q 701.55 332.9 701.55 332.35 701.55 331.4 700.65 330.8 699.8 330.2 698.2 330.2
L 685.2 330.2
Q 684.65 330.2 684.65 330.75
L 684.65 333.45
Q 684.65 333.7 684.75 333.85 684.9 334.05 685.15 334.05
L 695.45 334.05
Q 696.15 334.05 696.25 334.25 696.4 334.45 696.25 335.15 695.65 337.3 694.4 339.65 693.1 342 691.3 344.2 689.45 346.45 687.2 348.5 684.9 350.55 682.4 352.1 682.1 352.25 681.95 352.55 681.75 352.9 682.05 353.25
L 683.6 355.35
Q 683.8 355.65 684.15 355.7 684.5 355.75 684.8 355.55 687.85 353.6 690.4 351.3 692.9 349 694.95 346.5 695.75 347.5 696.75 348.7 697.75 349.85 698.8 350.9 699.8 351.95 700.8 352.8 701.8 353.65 702.5 354.1 703.3 354.6 703.85 354.05
L 705.55 352.1
Q 705.8 351.8 705.7 351.45 705.6 351.15 705.3 350.95 704.45 350.35 703.45 349.4 702.4 348.45 701.3 347.35 700.25 346.3 699.25 345.15 698.2 344 697.5 342.95 698.85 340.8 699.75 338.65 700.7 336.55 701.25 334.4 701.4 333.95 701.45 333.4
M 1092.85 375.75
Q 1092.7 375.9 1092.55 376.2 1092.35 376.5 1092.35 376.75
L 1092.35 379.75
Q 1092.35 380.05 1092.5 380.1 1092.65 380.2 1093 380.2
L 1105.8 380.2 1105.8 386.3
Q 1105.8 386.7 1105.95 386.85 1106.1 387 1106.55 387
L 1109.45 387
Q 1109.85 387 1109.95 386.85 1110.1 386.75 1110.1 386.3
L 1110.1 380.2 1113.8 380.2
Q 1114.15 380.2 1114.3 380.1 1114.45 380 1114.45 379.6
L 1114.45 376.7
Q 1114.45 376.3 1114.3 376.2 1114.15 376.1 1113.8 376.1
L 1110.1 376.1 1110.1 357.2
Q 1110.1 356.85 1110.05 356.75 1110 356.6 1109.7 356.6
L 1106.05 356.6
Q 1105.65 356.6 1105.55 356.7 1105.45 356.8 1105.25 357.15
L 1092.85 375.75
M 1105.8 376.1
L 1097.2 376.1 1105.8 363.05 1105.8 376.1
M 1073 330.8
Q 1071.4 330.25 1069.45 330.25 1067.6 330.25 1065.6 330.9 1063.65 331.55 1062.15 332.35 1061.75 332.55 1061.6 332.8 1061.5 332.95 1061.6 333.15
L 1062.15 336.2
Q 1062.25 336.55 1062.55 336.6 1062.85 336.6 1063.2 336.4 1065 335.35 1066.5 334.9 1068.05 334.45 1069.7 334.45 1071.45 334.45 1072.6 335.7 1073.8 336.95 1073.8 338.85 1073.8 340.55 1072.2 343.15 1070.6 345.8 1067.25 349.75
L 1061.15 357
Q 1060.95 357.3 1060.75 357.6 1060.6 357.95 1060.6 358.25
L 1060.6 360.55
Q 1060.6 361.05 1061.35 361.05
L 1078.4 361.05
Q 1078.95 361.05 1078.95 360.35
L 1078.95 357.55
Q 1078.95 356.95 1078.4 356.95
L 1066.65 356.95
Q 1067.65 355.8 1068.65 354.65 1069.65 353.45 1070.5 352.35 1071.6 351.05 1073 349.45 1074.35 347.8 1075.55 346.05 1076.75 344.25 1077.55 342.4 1078.35 340.55 1078.35 338.75 1078.35 336.65 1077.65 335.05 1076.95 333.45 1075.8 332.4 1074.65 331.35 1073 330.8
M 1109.05 308.05
Q 1107.75 307.15 1106 306.7 1104.25 306.25 1102.45 306.25 1100.75 306.25 1099.1 306.6 1097.4 307 1095.65 307.6 1095.25 307.8 1095.1 308 1094.95 308.15 1095.05 308.4
L 1095.4 311.35
Q 1095.5 311.7 1095.7 311.8 1095.9 311.9 1096.4 311.7 1097 311.45 1097.8 311.2 1098.6 310.95 1099.4 310.8 1100.2 310.6 1100.95 310.5 1101.65 310.4 1102.2 310.4 1103.05 310.4 1104 310.6 1104.95 310.8 1105.8 311.3 1106.6 311.75 1107.15 312.55 1107.65 313.3 1107.65 314.3 1107.65 315.65 1106.85 316.55 1106.05 317.5 1104.85 318.1 1103.7 318.7 1102.45 318.95 1101.2 319.2 1100.35 319.2
L 1098.45 319.2
Q 1098.1 319.2 1098 319.3 1097.9 319.35 1097.9 319.75
L 1097.9 322.7
Q 1097.9 323 1098 323.1 1098.1 323.2 1098.45 323.2
L 1100.4 323.2
Q 1102.35 323.2 1103.7 323.6 1105.1 323.95 1106 324.65 1106.85 325.3 1107.3 326.15 1107.7 327 1107.7 327.95 1107.7 330.6 1105.75 331.95 1105.1 332.4 1104.35 332.65 1103.55 332.95 1102.7 333.05 1101.85 333.15 1100.95 333.1 1100.05 333.05 1099.25 333 1098.15 332.9 1097.1 332.6 1096.05 332.3 1095 332 1094.45 331.75 1094.25 331.9 1094.05 332 1094 332.35
L 1093.65 335.4
Q 1093.6 335.75 1093.8 335.9 1093.95 336.1 1094.35 336.2 1095.8 336.75 1097.55 337.05 1099.3 337.35 1101.05 337.35 1103.35 337.35 1105.5 336.75 1107.65 336.2 1109.15 334.95 1110.65 333.7 1111.5 331.95 1112.3 330.15 1112.3 328.05 1112.3 325.85 1110.95 324.05 1109.6 322.3 1106.95 321.15 1108.05 320.65 1109 319.9 1109.95 319.15 1110.65 318.15 1111.35 317.2 1111.75 316.15 1112.1 315.05 1112.1 313.95 1112.1 311.95 1111.25 310.45 1110.4 308.95 1109.05 308.05 Z"/>

<path fill="#C49A6C" stroke="none" d="
M 246.6 271
L 246.6 251.95
Q 246.6 241.95 236.6 241.95
L 191.55 241.95
Q 181.55 241.95 181.55 251.95
L 181.55 271
Q 181.55 281 191.55 281
L 236.6 281
Q 246.6 281 246.6 271
M 198.1 253.5
Q 198.1 253.4 198.15 253.25 198.25 253.15 198.3 253.1 198.4 253.05 198.45 253 198.55 252.95 198.65 252.9 198.8 252.85 198.95 252.8 199.05 252.8 199.2 252.8 199.3 252.8 199.4 252.8 199.5 252.8 199.6 252.8 199.75 252.8 199.9 252.8 200.05 252.85 200.15 252.9 200.25 252.95 200.3 253 200.4 253.05 200.5 253.1 200.6 253.15 200.7 253.25 200.8 253.4 200.8 253.5 200.85 253.6 200.85 253.75
L 200.85 255.6 207.5 255.6 207.5 253.75
Q 207.45 253.6 207.5 253.5 207.55 253.4 207.65 253.25 207.7 253.15 207.8 253.1 207.9 253.05 208 253 208.05 252.95 208.15 252.9 208.25 252.85 208.4 252.8 208.55 252.8 208.65 252.8 208.8 252.8 208.95 252.8 209 252.8 209.1 252.8 209.2 252.8 209.35 252.8 209.5 252.85 209.6 252.9 209.75 252.95 209.85 253 209.95 253.05 210 253.1 210.1 253.15 210.2 253.25 210.3 253.4 210.35 253.5 210.35 253.6 210.35 253.75
L 210.35 260.45
Q 210.35 261.05 210.2 261.5 210.05 261.95 209.75 262.25 209.45 262.6 209 262.75 208.55 262.9 208 262.85
L 205.5 262.85 205.5 265.55 212.35 265.55
Q 212.65 265.55 212.85 265.65 213.05 265.75 213.1 265.95 213.2 266.1 213.25 266.35 213.3 266.6 213.3 266.85 213.3 267.1 213.25 267.3 213.2 267.5 213.1 267.7 213.05 267.9 212.85 268 212.65 268.05 212.35 268.05
L 195.85 268.05
Q 195.55 268.05 195.35 268 195.15 267.9 195.05 267.7 194.95 267.5 194.9 267.3 194.9 267.1 194.9 266.85 194.9 266.6 194.9 266.35 194.95 266.1 195.05 265.95 195.15 265.75 195.35 265.65 195.55 265.55 195.85 265.55
L 202.7 265.55 202.7 262.85 200.45 262.85
Q 199.35 262.85 198.7 262.25 198.35 261.95 198.2 261.5 198.05 261.05 198.05 260.45
L 198.05 253.75
Q 198.05 253.6 198.1 253.5
M 229.25 252.3
Q 229.25 252 229.35 251.8 229.45 251.6 229.7 251.5 230.05 251.3 230.7 251.3 231.15 251.3 231.6 251.5 231.8 251.6 231.9 251.8 232 252 232 252.3
L 232 270.05
Q 232 270.35 231.9 270.5 231.8 270.75 231.6 270.8 231.15 271 230.7 271 230.05 271 229.7 270.8 229.45 270.75 229.35 270.5 229.25 270.35 229.25 270.05
L 229.25 252.3
M 224.3 253.05
Q 224.55 253.1 224.75 253.15 224.95 253.25 225.1 253.35 225.25 253.45 225.35 253.6 225.45 253.7 225.5 253.85 225.55 254 225.55 254.2 225.55 254.4 225.55 254.6 225.55 254.85 225.55 255.05 225.55 255.5 225.55 256 225.5 256.45 225.45 256.95 225.35 257.45 225.2 257.9 225.05 258.35 224.85 258.85 224.75 259.3 224.55 259.75 224.4 260.15 224.15 260.55 223.95 260.95 223.65 261.3 223.4 261.7 223.05 262 222.8 262.3 222.6 262.55 222.4 262.85 222.2 263.05 222 263.25 221.75 263.5 221.55 263.7 221.3 263.85 221.1 264.05 220.8 264.25 220.6 264.4 220.25 264.55 219.95 264.75 219.55 264.95 219.15 265.15 218.7 265.35 218.45 265.45 218.25 265.45 218.05 265.4 217.9 265.25 217.7 265.15 217.6 264.95 217.45 264.75 217.35 264.5 217.25 264.25 217.2 264 217.2 263.8 217.25 263.6 217.3 263.4 217.45 263.25 217.55 263.1 217.8 262.95 218.2 262.8 218.45 262.65 218.75 262.5 219 262.35 219.2 262.25 219.35 262.1 219.5 262 219.65 261.85 219.85 261.75 220 261.6 220.15 261.45 220.3 261.3 220.4 261.15 220.55 260.95 220.75 260.8 221 260.55 221.1 260.35 221.25 260.1 221.45 259.9 221.6 259.65 221.75 259.45 221.9 259.2 222.05 258.95 222.15 258.65 222.25 258.35 222.35 258 222.45 257.7 222.55 257.3 222.6 256.9 222.65 256.45 222.7 256 222.75 255.5
L 218.5 255.5
Q 218.2 255.5 218 255.4 217.8 255.3 217.65 255.1 217.55 254.95 217.45 254.7 217.4 254.5 217.4 254.25 217.4 253.75 217.65 253.4 217.8 253.2 218 253.1 218.2 253 218.5 253
L 223.65 253
Q 224 253 224.3 253.05
M 200.85 258.15
L 200.85 260.3 207.45 260.3 207.45 258.15 200.85 258.15 Z"/>

<path fill="#FFFFFF" stroke="none" d="
M 224.75 253.15
Q 224.55 253.1 224.3 253.05 224 253 223.65 253
L 218.5 253
Q 218.2 253 218 253.1 217.8 253.2 217.65 253.4 217.4 253.75 217.4 254.25 217.4 254.5 217.45 254.7 217.55 254.95 217.65 255.1 217.8 255.3 218 255.4 218.2 255.5 218.5 255.5
L 222.75 255.5
Q 222.7 256 222.65 256.45 222.6 256.9 222.55 257.3 222.45 257.7 222.35 258 222.25 258.35 222.15 258.65 222.05 258.95 221.9 259.2 221.75 259.45 221.6 259.65 221.45 259.9 221.25 260.1 221.1 260.35 221 260.55 220.75 260.8 220.55 260.95 220.4 261.15 220.3 261.3 220.15 261.45 220 261.6 219.85 261.75 219.65 261.85 219.5 262 219.35 262.1 219.2 262.25 219 262.35 218.75 262.5 218.45 262.65 218.2 262.8 217.8 262.95 217.55 263.1 217.45 263.25 217.3 263.4 217.25 263.6 217.2 263.8 217.2 264 217.25 264.25 217.35 264.5 217.45 264.75 217.6 264.95 217.7 265.15 217.9 265.25 218.05 265.4 218.25 265.45 218.45 265.45 218.7 265.35 219.15 265.15 219.55 264.95 219.95 264.75 220.25 264.55 220.6 264.4 220.8 264.25 221.1 264.05 221.3 263.85 221.55 263.7 221.75 263.5 222 263.25 222.2 263.05 222.4 262.85 222.6 262.55 222.8 262.3 223.05 262 223.4 261.7 223.65 261.3 223.95 260.95 224.15 260.55 224.4 260.15 224.55 259.75 224.75 259.3 224.85 258.85 225.05 258.35 225.2 257.9 225.35 257.45 225.45 256.95 225.5 256.45 225.55 256 225.55 255.5 225.55 255.05 225.55 254.85 225.55 254.6 225.55 254.4 225.55 254.2 225.55 254 225.5 253.85 225.45 253.7 225.35 253.6 225.25 253.45 225.1 253.35 224.95 253.25 224.75 253.15
M 229.35 251.8
Q 229.25 252 229.25 252.3
L 229.25 270.05
Q 229.25 270.35 229.35 270.5 229.45 270.75 229.7 270.8 230.05 271 230.7 271 231.15 271 231.6 270.8 231.8 270.75 231.9 270.5 232 270.35 232 270.05
L 232 252.3
Q 232 252 231.9 251.8 231.8 251.6 231.6 251.5 231.15 251.3 230.7 251.3 230.05 251.3 229.7 251.5 229.45 251.6 229.35 251.8
M 198.15 253.25
Q 198.1 253.4 198.1 253.5 198.05 253.6 198.05 253.75
L 198.05 260.45
Q 198.05 261.05 198.2 261.5 198.35 261.95 198.7 262.25 199.35 262.85 200.45 262.85
L 202.7 262.85 202.7 265.55 195.85 265.55
Q 195.55 265.55 195.35 265.65 195.15 265.75 195.05 265.95 194.95 266.1 194.9 266.35 194.9 266.6 194.9 266.85 194.9 267.1 194.9 267.3 194.95 267.5 195.05 267.7 195.15 267.9 195.35 268 195.55 268.05 195.85 268.05
L 212.35 268.05
Q 212.65 268.05 212.85 268 213.05 267.9 213.1 267.7 213.2 267.5 213.25 267.3 213.3 267.1 213.3 266.85 213.3 266.6 213.25 266.35 213.2 266.1 213.1 265.95 213.05 265.75 212.85 265.65 212.65 265.55 212.35 265.55
L 205.5 265.55 205.5 262.85 208 262.85
Q 208.55 262.9 209 262.75 209.45 262.6 209.75 262.25 210.05 261.95 210.2 261.5 210.35 261.05 210.35 260.45
L 210.35 253.75
Q 210.35 253.6 210.35 253.5 210.3 253.4 210.2 253.25 210.1 253.15 210 253.1 209.95 253.05 209.85 253 209.75 252.95 209.6 252.9 209.5 252.85 209.35 252.8 209.2 252.8 209.1 252.8 209 252.8 208.95 252.8 208.8 252.8 208.65 252.8 208.55 252.8 208.4 252.8 208.25 252.85 208.15 252.9 208.05 252.95 208 253 207.9 253.05 207.8 253.1 207.7 253.15 207.65 253.25 207.55 253.4 207.5 253.5 207.45 253.6 207.5 253.75
L 207.5 255.6 200.85 255.6 200.85 253.75
Q 200.85 253.6 200.8 253.5 200.8 253.4 200.7 253.25 200.6 253.15 200.5 253.1 200.4 253.05 200.3 253 200.25 252.95 200.15 252.9 200.05 252.85 199.9 252.8 199.75 252.8 199.6 252.8 199.5 252.8 199.4 252.8 199.3 252.8 199.2 252.8 199.05 252.8 198.95 252.8 198.8 252.85 198.65 252.9 198.55 252.95 198.45 253 198.4 253.05 198.3 253.1 198.25 253.15 198.15 253.25
M 200.85 260.3
L 200.85 258.15 207.45 258.15 207.45 260.3 200.85 260.3 Z"/>

<path fill="#D7C6B3" stroke="none" d="
M 267.05 270.05
Q 270.55 270.05 273.05 267.55 275.55 265.05 275.55 261.55 275.55 261.2974609375 275.5 261.05 275.36953125 257.86953125 273.05 255.55 270.55 253.05 267.05 253.05 263.55 253.05 261.05 255.55 258.55 258.05 258.55 261.55 258.55 265.05 261.05 267.55 263.55 270.05 267.05 270.05
M 151.05 255.55
Q 148.73046875 257.86953125 148.55 261.05 148.55 261.2974609375 148.55 261.55 148.55 265.05 151.05 267.55 153.55 270.05 157.05 270.05 160.55 270.05 163.05 267.55 165.55 265.05 165.55 261.55 165.55 258.05 163.05 255.55 160.55 253.05 157.05 253.05 153.55 253.05 151.05 255.55 Z"/>
</g>

<path id="Layer0_0_1_STROKES" stroke="#1E1E1E" stroke-width="3" stroke-linejoin="miter" stroke-linecap="butt" stroke-miterlimit="3" fill="none" d="
M 1084.4 346.55
L 1122.6 346.55
M 392.95 346.55
L 431.15 346.55"/>

<path id="Layer0_0_2_STROKES" stroke="#D7C6B3" stroke-width="4" stroke-linejoin="round" stroke-linecap="round" fill="none" d="
M 275.525 261.05
L 1219.65 261.05
Q 1239.65 261.05 1239.65 281.05
L 1239.65 416.15
Q 1239.65 436.15 1219.65 436.15
L 1110.3 436.15 797 436.15 454 436.15 360 436.15 329 436.15 322 436.15 210 436.15 161.05 436.15 151.05 436.15 120.4 436.15
Q 100.4 436.15 100.4 416.15
L 100.4 323.05 100.4 291.05 100.4 281.05
Q 100.4 261.05 120.4 261.05
L 148.575 261.05"/>
</defs>

<g transform="matrix( 1, 0, 0, 1, 0,0) ">
<use xlink:href="#Layer0_0_FILL"/>

<use xlink:href="#Layer0_0_1_STROKES"/>

<use xlink:href="#Layer0_0_2_STROKES"/>
</g>
</svg>
