
<svg xmlns="http://www.w3.org/2000/svg" version="1.1" xmlns:xlink="http://www.w3.org/1999/xlink" preserveAspectRatio="none" x="0px" y="0px" width="1280px" height="720px" viewBox="0 0 1280 720">
<defs>
<g id="Layer0_0_FILL">
<path fill="#1E1E1E" stroke="none" d="
M 759.1 385.35
L 755.7 385.35
Q 755.05 385.35 755.1 385.85 755.2 386.65 755.25 388.05 755.3 389.45 755.3 391
L 755.3 406.9
Q 755.3 407.1 755.4 407.3 755.55 407.45 755.75 407.45
L 759.1 407.45
Q 759.55 407.45 759.55 406.95
L 759.55 393.95
Q 759.55 391.55 760.8 390.2 762.05 388.8 764.3 388.8 767.85 388.8 767.85 393.05
L 767.85 406.9
Q 767.85 407.1 768 407.3 768.15 407.45 768.35 407.45
L 771.7 407.45
Q 772.15 407.45 772.15 406.95
L 772.15 395.35
Q 772.15 393.95 772.5 392.75 772.85 391.55 773.5 390.7 774.1 389.8 775.05 389.35 776 388.8 777.2 388.8 778.9 388.8 779.75 390 780.65 391.2 780.65 393.05
L 780.65 406.9
Q 780.65 407.1 780.8 407.3 780.95 407.45 781.15 407.45
L 784.5 407.45
Q 784.65 407.45 784.85 407.3 784.95 407.15 784.95 406.95
L 784.95 392.55
Q 784.95 388.9 782.85 386.9 780.8 384.85 777.4 384.85 775.35 384.85 773.55 385.8 771.75 386.75 770.85 388.65 770.1 386.8 768.35 385.8 766.65 384.85 764.55 384.85 763 384.85 761.6 385.5 760.2 386.15 759.4 387.05
L 759.45 385.65
Q 759.45 385.35 759.1 385.35
M 740.55 390.9
Q 742.2 388.8 745.45 388.8 746.5 388.8 747.65 388.95 748.85 389.05 749.75 389.4 750.1 389.45 750.2 389.35 750.4 389.2 750.4 388.95
L 750.75 386.2
Q 750.8 385.8 750.75 385.7 750.65 385.6 750.5 385.55 749.3 385.15 748.05 385 746.75 384.85 745.55 384.85 743 384.85 740.95 385.7 738.95 386.55 737.45 388.1 736 389.6 735.2 391.75 734.4 393.85 734.4 396.4 734.4 398.8 735.05 400.85 735.75 402.9 737.05 404.45 738.35 405.95 740.3 406.9 742.25 407.8 744.75 408 745.55 408 746.35 408 747.2 408 747.9 407.9 748.65 407.8 749.3 407.7 749.95 407.6 750.4 407.4 750.7 407.35 750.75 407.2 750.8 407.05 750.75 406.75
L 750.6 404
Q 750.55 403.75 750.45 403.65 750.3 403.5 749.95 403.65 747.75 404.35 745 404 742 403.65 740.45 401.65 738.85 399.65 738.85 396.4 738.85 393 740.55 390.9
M 639.2 616.35
Q 639.2 612.7 637.1 610.7 635.05 608.65 631.65 608.65 629.6 608.65 627.8 609.6 626 610.55 625.1 612.45 624.35 610.6 622.6 609.6 620.9 608.65 618.8 608.65 617.25 608.65 615.85 609.3 614.45 609.95 613.65 610.85
L 613.7 609.45
Q 613.7 609.15 613.35 609.15
L 609.95 609.15
Q 609.3 609.15 609.35 609.65 609.45 610.45 609.5 611.85 609.55 613.25 609.55 614.8
L 609.55 630.7
Q 609.55 630.9 609.65 631.1 609.8 631.25 610 631.25
L 613.35 631.25
Q 613.8 631.25 613.8 630.75
L 613.8 617.75
Q 613.8 615.35 615.05 614 616.3 612.6 618.55 612.6 622.1 612.6 622.1 616.85
L 622.1 630.7
Q 622.1 630.9 622.25 631.1 622.4 631.25 622.6 631.25
L 625.95 631.25
Q 626.4 631.25 626.4 630.75
L 626.4 619.15
Q 626.4 617.75 626.75 616.55 627.1 615.35 627.75 614.5 628.35 613.6 629.3 613.15 630.25 612.6 631.45 612.6 633.15 612.6 634 613.8 634.9 615 634.9 616.85
L 634.9 630.7
Q 634.9 630.9 635.05 631.1 635.2 631.25 635.4 631.25
L 638.75 631.25
Q 638.9 631.25 639.1 631.1 639.2 630.95 639.2 630.75
L 639.2 616.35
M 595.2 609.5
Q 593.2 610.35 591.7 611.9 590.25 613.4 589.45 615.55 588.65 617.65 588.65 620.2 588.65 622.6 589.3 624.65 590 626.7 591.3 628.25 592.6 629.75 594.55 630.7 596.5 631.6 599 631.8 599.8 631.8 600.6 631.8 601.45 631.8 602.15 631.7 602.9 631.6 603.55 631.5 604.2 631.4 604.65 631.2 604.95 631.15 605 631 605.05 630.85 605 630.55
L 604.85 627.8
Q 604.8 627.55 604.7 627.45 604.55 627.3 604.2 627.45 602 628.15 599.25 627.8 596.25 627.45 594.7 625.45 593.1 623.45 593.1 620.2 593.1 616.8 594.8 614.7 596.45 612.6 599.7 612.6 600.75 612.6 601.9 612.75 603.1 612.85 604 613.2 604.35 613.25 604.45 613.15 604.65 613 604.65 612.75
L 605 610
Q 605.05 609.6 605 609.5 604.9 609.4 604.75 609.35 603.55 608.95 602.3 608.8 601 608.65 599.8 608.65 597.25 608.65 595.2 609.5
M 570 601.2
Q 569.95 601.05 569.65 601.05
L 566 601.05
Q 565.6 601.05 565.5 601.15 565.4 601.25 565.2 601.6
L 552.8 620.2
Q 552.65 620.35 552.5 620.65 552.3 620.95 552.3 621.2
L 552.3 624.2
Q 552.3 624.5 552.45 624.55 552.6 624.65 552.95 624.65
L 565.75 624.65 565.75 630.75
Q 565.75 631.15 565.9 631.3 566.05 631.45 566.5 631.45
L 569.4 631.45
Q 569.8 631.45 569.9 631.3 570.05 631.2 570.05 630.75
L 570.05 624.65 573.75 624.65
Q 574.1 624.65 574.25 624.55 574.4 624.45 574.4 624.05
L 574.4 621.15
Q 574.4 620.75 574.25 620.65 574.1 620.55 573.75 620.55
L 570.05 620.55 570.05 601.65
Q 570.05 601.3 570 601.2
M 565.75 620.55
L 557.15 620.55 565.75 607.5 565.75 620.55 Z"/>

<path fill="#FFFFFF" stroke="none" d="
M 677.5 356.65
Q 662.5 356.65 662.5 371.65
L 662.5 401.7
Q 662.5 416.7 677.5 416.7
L 707.5 416.7
Q 722.5 416.7 722.5 401.7
L 722.5 371.65
Q 722.5 356.65 707.5 356.65
L 677.5 356.65 Z"/>
</g>

<g id="Layer0_0_STROKES_1_FILL">
<path fill="#0EA6E9" stroke="none" d="
M 494.9 596.3
Q 494.7849609375 595.9267578125 494.4 595.7
L 491.8 594.25
Q 491.46484375 594.0798828125 491.05 594.2 490.676171875 594.3146484375 490.45 594.65 490.279296875 595.034765625 490.4 595.4 490.51484375 595.8232421875 490.85 596
L 493.45 597.45
Q 493.83515625 597.6701171875 494.2 597.55 494.6240234375 597.4353515625 494.8 597.05 495.020703125 596.715234375 494.9 596.3
M 496.6 598.8
Q 496.7306640625 599.2146484375 497.1 599.4 498.4123046875 600.05 499.75 600.7 500.143359375 600.8837890625 500.5 600.75 500.9171875 600.60546875 501.1 600.2 501.2837890625 599.8578125 501.15 599.45 501.004296875 599.0828125 500.6 598.9 499.2875 598.25 498 597.6 497.6224609375 597.416796875 497.2 597.55 496.834765625 597.6802734375 496.65 598.05 496.46640625 598.4271484375 496.6 598.8
M 515.55 607.4
Q 515.74140625 607.7763671875 516.1 607.9 517.525 608.475 518.9 609 519.3150390625 609.183984375 519.7 609 520.0765625 608.8587890625 520.2 608.45 520.3841796875 608.0853515625 520.2 607.7 520.05859375 607.3236328125 519.65 607.15 518.275 606.625 516.85 606.05 516.4849609375 605.916015625 516.1 606.05 515.7234375 606.2412109375 515.55 606.6 515.4158203125 607.0146484375 515.55 607.4
M 507.45 603.2
Q 507.633984375 602.8279296875 507.45 602.45 507.3259765625 602.054296875 506.95 601.85 505.6125 601.2875 504.3 600.7 503.9427734375 600.5166015625 503.55 600.65 503.16875 600.79609375 503 601.15 502.816015625 601.5568359375 502.95 601.95 503.0962890625 602.3306640625 503.45 602.5 504.7873046875 603.1125 506.15 603.7 506.5232421875 603.883984375 506.9 603.7 507.295703125 603.5771484375 507.45 603.2
M 510.4 603.35
Q 510.012109375 603.2158203125 509.6 603.35 509.240234375 603.5244140625 509.05 603.9 508.9158203125 604.28671875 509.05 604.65 509.2255859375 605.0595703125 509.6 605.2 511 605.825 512.4 606.4 512.787890625 606.583984375 513.15 606.4 513.559765625 606.2755859375 513.7 605.9 513.8841796875 605.5134765625 513.7 605.1 513.5744140625 604.7404296875 513.2 604.55 511.8 603.975 510.4 603.35
M 536.1 613.1
Q 535.7646484375 613.3259765625 535.65 613.7 535.529296875 614.115234375 535.7 614.45 535.9263671875 614.83515625 536.3 614.95 537.8248046875 615.4 539.35 615.85 539.7669921875 615.9703125 540.1 615.75 540.4861328125 615.573046875 540.6 615.15 540.7205078125 614.7833984375 540.5 614.4 540.32265625 614.0638671875 539.9 613.95 538.375 613.4998046875 536.85 613.05 536.484375 612.9294921875 536.1 613.1
M 526.95 610.85
Q 527.0837890625 610.49140625 526.9 610.1 526.7173828125 609.74453125 526.3 609.6 524.8875 609.112109375 523.45 608.55 523.0720703125 608.4291015625 522.7 608.6 522.3224609375 608.7671875 522.15 609.15 522.028515625 609.5287109375 522.2 609.9 522.36640625 610.2771484375 522.75 610.4 524.2125 610.9876953125 525.65 611.5 526.0578125 611.6333984375 526.4 611.45 526.805859375 611.266796875 526.95 610.85
M 533.5 612.3
Q 533.301953125 611.9296875 532.9 611.8 531.5 611.35 530.1 610.9 529.7134765625 610.766796875 529.35 610.95 528.979296875 611.1484375 528.85 611.55 528.71640625 611.9369140625 528.9 612.3 529.098046875 612.6703125 529.5 612.8 530.9 613.25 532.3 613.7 532.686328125 613.833203125 533.05 613.65 533.420703125 613.4515625 533.55 613.05 533.68359375 612.6630859375 533.5 612.3
M 642.35 288.5
Q 641.9439453125 288.4443359375 641.6 288.65 641.255078125 288.9015625 641.15 289.3 641.0943359375 289.7048828125 641.3 290.05 642.175 291.3 643 292.55 643.2515625 292.89375 643.65 292.95 644.0560546875 293.0556640625 644.4 292.8 644.744921875 292.5986328125 644.8 292.2 644.90546875 291.7951171875 644.65 291.45 643.825 290.2 642.95 288.95 642.7484375 288.60625 642.35 288.5
M 634.6 277.55
Q 634.3541015625 277.2140625 633.95 277.15 633.53671875 277.09609375 633.2 277.35 632.8634765625 277.5953125 632.8 278 632.746484375 278.4126953125 633 278.75 633.9 279.95 634.8 281.15 635.0458984375 281.4857421875 635.45 281.55 635.86328125 281.60390625 636.2 281.35 636.5365234375 281.1046875 636.6 280.7 636.6533203125 280.2873046875 636.4 279.95 635.5 278.75 634.6 277.55
M 638.8 283.2
Q 638.5541015625 282.8640625 638.15 282.8 637.73671875 282.74609375 637.4 283 637.0634765625 283.2453125 637 283.65 636.946484375 284.0626953125 637.2 284.4 638.1 285.6 639 286.8 639.2458984375 287.1357421875 639.65 287.2 640.06328125 287.25390625 640.4 287 640.7365234375 286.7546875 640.8 286.35 640.8533203125 285.9373046875 640.6 285.6 639.7 284.4 638.8 283.2
M 627.6 268.75
Q 626.675 267.625 625.7 266.45 625.459765625 266.1474609375 625.05 266.1 624.641796875 266.060546875 624.3 266.3 623.997265625 266.589453125 623.95 267 623.911328125 267.4078125 624.15 267.7 625.125 268.875 626.05 270 626.340234375 270.35234375 626.75 270.4 627.1580078125 270.4392578125 627.45 270.15 627.802734375 269.910546875 627.85 269.5 627.8884765625 269.0921875 627.6 268.75
M 623.35 264.1
Q 623.3751953125 263.7138671875 623.1 263.4 622.4 262.6 621.7 261.8 621.6744140625 261.7751953125 621.65 261.75 621.390234375 261.475 621.15 261.2 620.9091796875 260.884765625 620.5 260.85 620.0787109375 260.8107421875 619.75 261.05 619.434375 261.3400390625 619.4 261.75 619.3615234375 262.1708984375 619.6 262.5 619.8880859375 262.8005859375 620.2 263.1 620.2244140625 263.1255859375 620.25 263.15 620.9232421875 263.9265625 621.6 264.7 621.8685546875 265.0162109375 622.25 265.05 622.687109375 265.075390625 623 264.8 623.3171875 264.5318359375 623.35 264.1
M 613.8 253.65
Q 613.796484375 253.2392578125 613.5 252.95 612.4 251.85 611.35 250.8 611.0607421875 250.503515625 610.65 250.5 610.2392578125 250.503515625 609.95 250.8 609.653515625 251.0892578125 609.65 251.5 609.653515625 251.9107421875 609.95 252.2 611 253.25 612.1 254.35 612.3892578125 254.646484375 612.8 254.65 613.2107421875 254.646484375 613.5 254.35 613.796484375 254.0607421875 613.8 253.65
M 618.7 258.9
Q 618.7240234375 258.4853515625 618.45 258.15 617.3873046875 257.0123046875 616.3 255.9 616.0376953125 255.6056640625 615.6 255.6 615.20625 255.5892578125 614.9 255.85 614.6048828125 256.1619140625 614.6 256.55 614.5896484375 256.9927734375 614.85 257.3 615.9125 258.3875 616.95 259.5 617.2341796875 259.83046875 617.65 259.85 618.065234375 259.8744140625 618.35 259.6 618.68125 259.3162109375 618.7 258.9
M 629.5 271.55
Q 629.1076171875 271.509765625 628.75 271.75 628.448828125 272.023828125 628.4 272.4 628.36015625 272.841796875 628.6 273.15 629.575 274.375 630.5 275.55 630.7744140625 275.9005859375 631.15 275.95 631.5923828125 275.990234375 631.9 275.7 632.251171875 275.476171875 632.3 275.05 632.33984375 274.658203125 632.05 274.3 631.125 273.125 630.15 271.9 629.9255859375 271.5994140625 629.5 271.55
M 604.8 246.05
Q 604.5599609375 246.39453125 604.6 246.8 604.64921875 247.2126953125 604.95 247.45
L 605.45 247.85
Q 606.30078125 248.64921875 607.1 249.4 607.4197265625 249.7099609375 607.8 249.7 608.2388671875 249.682421875 608.5 249.35 608.8109375 249.08046875 608.8 248.65 608.7822265625 248.2623046875 608.45 247.95 607.625 247.175 606.75 246.35 606.7490234375 246.3490234375 606.7 246.3
L 606.2 245.9
Q 605.9046875 245.66015625 605.5 245.7 605.087109375 245.7484375 604.8 246.05
M 601 241.3
Q 600.7150390625 241.0265625 600.3 241.05 599.8837890625 241.06875 599.6 241.35 599.3255859375 241.684765625 599.35 242.1 599.3689453125 242.515234375 599.65 242.8
L 601.9 244.8
Q 602.234765625 245.0734375 602.65 245.05 603.0662109375 245.03125 603.35 244.7 603.6244140625 244.415234375 603.6 244 603.5810546875 243.5845703125 603.25 243.3
L 601 241.3
M 663.65 611.8
Q 663.8341796875 611.43671875 663.65 611.05 663.509765625 610.6744140625 663.1 610.5 662.737890625 610.3658203125 662.35 610.5 660.9623046875 611.124609375 659.55 611.65 659.19140625 611.8236328125 659 612.2 658.8658203125 612.5853515625 659 612.95 659.1734375 613.3587890625 659.55 613.5 659.9349609375 613.683984375 660.3 613.5 661.7373046875 612.9751953125 663.15 612.35 663.5244140625 612.2095703125 663.65 611.8
M 652.4 615.4
Q 652.544140625 615.816796875 652.9 616 653.2921875 616.1833984375 653.65 616.05 655.1373046875 615.5376953125 656.6 614.95 656.98359375 614.8271484375 657.15 614.45 657.321484375 614.0787109375 657.15 613.7 657.027734375 613.3171875 656.65 613.15 656.2779296875 612.9791015625 655.9 613.1 654.4623046875 613.662109375 653 614.15 652.6326171875 614.29453125 652.45 614.65 652.2662109375 615.04140625 652.4 615.4
M 670.1 608.05
Q 669.9171875 607.69453125 669.5 607.55 669.143359375 607.4162109375 668.75 607.6 667.4248046875 608.2498046875 666 608.9 665.646875 609.0689453125 665.5 609.45 665.366015625 609.8431640625 665.55 610.2 665.71875 610.6041015625 666.1 610.75 666.4921875 610.8837890625 666.85 610.7 668.275 610.05 669.6 609.4 670.004296875 609.2169921875 670.15 608.8 670.2837890625 608.4421875 670.1 608.05
M 674.95 604.5
Q 673.699609375 605.2119140625 672.35 605.85 671.995703125 606.0328125 671.85 606.4 671.7162109375 606.8078125 671.9 607.15 672.0828125 607.55546875 672.45 607.7 672.8564453125 607.8337890625 673.2 607.65 674.600390625 606.9876953125 675.9 606.25 676.2849609375 606.0732421875 676.4 605.65 676.520703125 605.284765625 676.3 604.9 676.1240234375 604.5646484375 675.7 604.45 675.33515625 604.3298828125 674.95 604.5
M 681.05 601.05
Q 679.7875 601.8373046875 678.5 602.55 678.13828125 602.7919921875 678 603.2 677.9171875 603.59453125 678.1 603.95 678.3419921875 604.312890625 678.75 604.4 679.1431640625 604.5326171875 679.5 604.3 680.8125 603.5625 682.1 602.75 682.4779296875 602.52890625 682.55 602.1 682.66953125 601.72578125 682.45 601.35 682.229296875 601.021484375 681.8 600.9 681.4263671875 600.8310546875 681.05 601.05
M 687.05 597.3
Q 685.8 598.162109375 684.55 598.95 684.208203125 599.1734375 684.1 599.55 684.0310546875 599.9892578125 684.25 600.35 684.473046875 600.692578125 684.85 600.75 685.288671875 600.8685546875 685.65 600.65 686.9 599.8376953125 688.15 598.95 688.49375 598.7484375 688.55 598.35 688.6556640625 597.9439453125 688.4 597.6 688.1986328125 597.255078125 687.8 597.15 687.3951171875 597.0943359375 687.05 597.3
M 693.55 593.15
Q 693.151953125 593.1087890625 692.8 593.35 691.575 594.25 690.3 595.15 689.9900390625 595.39375 689.9 595.8 689.8580078125 596.198046875 690.1 596.5 690.34296875 596.86015625 690.75 596.9 691.148046875 596.9912109375 691.45 596.75 692.725 595.85 693.95 594.95 694.3099609375 594.70625 694.35 594.3 694.4421875 593.901953125 694.2 593.55 693.9572265625 593.2400390625 693.55 593.15
M 701.35 579.55
Q 701.0130859375 579.8087890625 700.95 580.2 700.762109375 581.7 700.5 583.15 700.4578125 583.5853515625 700.7 583.9 700.9298828125 584.2595703125 701.3 584.3 701.7349609375 584.3923828125 702.05 584.15 702.409375 583.9197265625 702.45 583.5 702.7376953125 581.9998046875 702.95 580.45 703.0033203125 580.0728515625 702.75 579.75 702.491015625 579.412890625 702.05 579.35 701.67265625 579.296484375 701.35 579.55
M 703.9 573.4
Q 703.9533203125 573.0228515625 703.7 572.7 703.441015625 572.362890625 703 572.3 702.62265625 572.246484375 702.3 572.5 701.9630859375 572.7587890625 701.9 573.15 701.7 574.675 701.5 576.15 701.4466796875 576.576953125 701.7 576.9 701.958984375 577.237109375 702.35 577.3 702.7771484375 577.3537109375 703.1 577.1 703.43671875 576.8412109375 703.5 576.4 703.7 574.925 703.9 573.4
M 703.1 565.45
Q 702.7978515625 565.7392578125 702.75 566.15 702.599609375 567.6376953125 702.4 569.15 702.346875 569.577734375 702.6 569.9 702.8595703125 570.2375 703.25 570.3 703.6779296875 570.353515625 704 570.1 704.337109375 569.8404296875 704.4 569.4 704.6001953125 567.8623046875 704.75 566.35 704.7892578125 565.9419921875 704.5 565.6 704.2611328125 565.29765625 703.85 565.25 703.442578125 565.210546875 703.1 565.45
M 704.75 562.95
Q 705.101953125 562.7107421875 705.15 562.3 705.3 560.8 705.45 559.3 705.4892578125 558.8919921875 705.2 558.55 704.9611328125 558.24765625 704.55 558.2 704.142578125 558.160546875 703.8 558.4 703.4978515625 558.6892578125 703.45 559.1 703.3 560.6 703.15 562.1 703.1107421875 562.5078125 703.35 562.8 703.6388671875 563.15234375 704.05 563.2 704.457421875 563.2396484375 704.75 562.95
M 704.45 551.4
Q 704.1478515625 551.6892578125 704.1 552.1 703.95 553.6 703.8 555.1 703.7607421875 555.5078125 704 555.8 704.2888671875 556.15234375 704.7 556.2 705.107421875 556.2396484375 705.4 555.95 705.751953125 555.7107421875 705.8 555.3 705.95 553.8 706.1 552.3 706.1392578125 551.8919921875 705.85 551.55 705.6111328125 551.24765625 705.2 551.2 704.792578125 551.160546875 704.45 551.4
M 705.65 544.2
Q 705.262890625 544.174609375 704.95 544.45 704.633203125 544.7177734375 704.6 545.1 704.5 546.625 704.4 548.1 704.375 548.53671875 704.65 548.85 704.9181640625 549.1671875 705.3 549.2 705.737109375 549.225390625 706.05 548.95 706.366796875 548.6822265625 706.4 548.25 706.5 546.775 706.6 545.25 706.625 544.86328125 706.35 544.55 706.0818359375 544.2328125 705.65 544.2
M 707.1 538.25
Q 707.125 537.86328125 706.85 537.55 706.5818359375 537.2328125 706.15 537.2 705.762890625 537.174609375 705.45 537.45 705.133203125 537.7177734375 705.1 538.1 705 539.625 704.9 541.1 704.875 541.53671875 705.15 541.85 705.4181640625 542.1671875 705.8 542.2 706.237109375 542.225390625 706.55 541.95 706.866796875 541.6822265625 706.9 541.25 707 539.775 707.1 538.25
M 705.75 530.45
Q 705.4681640625 530.7607421875 705.45 531.15 705.399609375 532.65 705.3 534.1 705.275 534.53671875 705.55 534.85 705.8181640625 535.1671875 706.2 535.2 706.637109375 535.225390625 706.95 534.95 707.266796875 534.6822265625 707.3 534.25 707.400390625 532.75 707.45 531.2 707.4607421875 530.819921875 707.15 530.5 706.889453125 530.21796875 706.45 530.2 706.0703125 530.1888671875 705.75 530.45
M 707.7 524.2
Q 707.7107421875 523.819921875 707.4 523.5 707.139453125 523.21796875 706.7 523.2 706.3203125 523.1888671875 706 523.45 705.7181640625 523.7607421875 705.7 524.15 705.65 525.675 705.6 527.15 705.5890625 527.580078125 705.85 527.85 706.160546875 528.18203125 706.55 528.2 706.9798828125 528.2111328125 707.25 527.9 707.5818359375 527.6390625 707.6 527.2 707.65 525.725 707.7 524.2
M 707.9 517.2
Q 707.9107421875 516.819921875 707.6 516.5 707.339453125 516.21796875 706.9 516.2 706.5203125 516.1888671875 706.2 516.45 705.9181640625 516.7607421875 705.9 517.15 705.85 518.675 705.8 520.15 705.7890625 520.580078125 706.05 520.85 706.360546875 521.18203125 706.75 521.2 707.1798828125 521.2111328125 707.45 520.9 707.7818359375 520.6390625 707.8 520.2 707.85 518.725 707.9 517.2
M 707.95 513.2
Q 707.95 511.7 707.95 510.2 707.946484375 509.7892578125 707.65 509.5 707.3607421875 509.203515625 706.95 509.2 706.5392578125 509.203515625 706.25 509.5 705.953515625 509.7892578125 705.95 510.2 705.95 511.7 705.95 513.2 705.953515625 513.6107421875 706.25 513.9 706.5392578125 514.196484375 706.95 514.2 707.3607421875 514.196484375 707.65 513.9 707.946484375 513.6107421875 707.95 513.2
M 706.95 502.2
Q 706.5392578125 502.203515625 706.25 502.5 705.953515625 502.7892578125 705.95 503.2 705.95 504.7 705.95 506.2 705.953515625 506.6107421875 706.25 506.9 706.5392578125 507.196484375 706.95 507.2 707.3607421875 507.196484375 707.65 506.9 707.946484375 506.6107421875 707.95 506.2 707.95 504.7 707.95 503.2 707.946484375 502.7892578125 707.65 502.5 707.3607421875 502.203515625 706.95 502.2
M 707.4 495.45
Q 707.1298828125 495.1888671875 706.7 495.2 706.310546875 495.21796875 706 495.5 705.7390625 495.819921875 705.75 496.2 705.8 497.725 705.85 499.2 705.8681640625 499.6390625 706.15 499.9 706.4703125 500.2111328125 706.85 500.2 707.289453125 500.18203125 707.55 499.85 707.8607421875 499.580078125 707.85 499.15 707.8 497.675 707.75 496.15 707.7318359375 495.7607421875 707.4 495.45
M 707.15 488.45
Q 706.8798828125 488.1888671875 706.45 488.2 706.060546875 488.21796875 705.75 488.5 705.4890625 488.819921875 705.5 489.2 705.55 490.725 705.6 492.2 705.6181640625 492.6390625 705.9 492.9 706.2203125 493.2111328125 706.6 493.2 707.039453125 493.18203125 707.3 492.85 707.6107421875 492.580078125 707.6 492.15 707.55 490.675 707.5 489.15 707.4818359375 488.7607421875 707.15 488.45
M 705.35 481.55
Q 705.075 481.86328125 705.1 482.25 705.2 483.775 705.3 485.25 705.333203125 485.6822265625 705.65 485.95 705.962890625 486.225390625 706.35 486.2 706.7818359375 486.1671875 707.05 485.85 707.325 485.53671875 707.3 485.1 707.2 483.625 707.1 482.1 707.066796875 481.7177734375 706.75 481.45 706.437109375 481.174609375 706 481.2 705.6181640625 481.2328125 705.35 481.55
M 706.65 475.1
Q 706.616796875 474.7177734375 706.3 474.45 705.987109375 474.174609375 705.55 474.2 705.1681640625 474.2328125 704.9 474.55 704.625 474.86328125 704.65 475.25 704.75 476.775 704.85 478.25 704.883203125 478.6822265625 705.2 478.95 705.512890625 479.225390625 705.9 479.2 706.3318359375 479.1671875 706.6 478.85 706.875 478.53671875 706.85 478.1 706.75 476.625 706.65 475.1
M 704.25 467.55
Q 704.0107421875 467.8919921875 704.05 468.3 704.2 469.8 704.35 471.3 704.3978515625 471.7107421875 704.7 471.95 705.042578125 472.2396484375 705.45 472.2 705.8611328125 472.15234375 706.1 471.8 706.3892578125 471.5078125 706.35 471.1 706.2 469.6 706.05 468.1 706.001953125 467.6892578125 705.65 467.4 705.357421875 467.160546875 704.95 467.2 704.5388671875 467.24765625 704.25 467.55
M 705.35 461.1
Q 705.301953125 460.6892578125 704.95 460.4 704.657421875 460.160546875 704.25 460.2 703.8388671875 460.24765625 703.55 460.55 703.3107421875 460.8919921875 703.35 461.3 703.5 462.8 703.65 464.3 703.6978515625 464.7107421875 704 464.95 704.342578125 465.2396484375 704.75 465.2 705.1611328125 465.15234375 705.4 464.8 705.6892578125 464.5078125 705.65 464.1 705.5 462.6 705.35 461.1
M 702.7 453.6
Q 702.4466796875 453.9228515625 702.5 454.3 702.7 455.825 702.9 457.3 702.9630859375 457.7412109375 703.3 458 703.62265625 458.2537109375 704 458.2 704.441015625 458.137109375 704.7 457.8 704.9533203125 457.476953125 704.9 457.05 704.7 455.575 704.5 454.05 704.43671875 453.6587890625 704.1 453.4 703.7771484375 453.146484375 703.35 453.2 702.958984375 453.262890625 702.7 453.6
M 703.8 450.8
Q 704.0533203125 450.476953125 704 450.05 703.8 448.575 703.6 447.05 703.53671875 446.6587890625 703.2 446.4 702.8771484375 446.146484375 702.45 446.2 702.058984375 446.262890625 701.8 446.6 701.5466796875 446.9228515625 701.6 447.3 701.8 448.825 702 450.3 702.0630859375 450.7412109375 702.4 451 702.72265625 451.2537109375 703.1 451.2 703.541015625 451.137109375 703.8 450.8
M 702.8 443.75
Q 703.0421875 443.4353515625 702.95 443 702.725 441.525 702.45 440 702.409375 439.6302734375 702.05 439.4 701.7349609375 439.1576171875 701.3 439.2 700.9298828125 439.2904296875 700.7 439.6 700.4578125 439.9646484375 700.5 440.35 700.775 441.875 701 443.35 701.090625 443.7697265625 701.4 444 701.7650390625 444.2423828125 702.15 444.15 702.5701171875 444.1095703125 702.8 443.75
M 700.05 432.2
Q 699.6724609375 432.3203125 699.45 432.65 699.23125 433.0244140625 699.3 433.4 699.409375 433.8125 699.45 434.2 699.4609375 434.24921875 699.45 434.3 699.575 434.8 699.65 435.3 699.7771484375 435.837109375 699.85 436.35 699.9421875 436.7853515625 700.25 437 700.617578125 437.25546875 701 437.15 701.4349609375 437.108203125 701.65 436.75 701.905078125 436.4318359375 701.8 436 701.725 435.475 701.6 434.9
L 701.6 434.9
Q 701.53515625 434.450390625 701.45 434 701.3904296875 433.4875 701.25 432.95 701.179296875 432.571875 700.8 432.35 700.4763671875 432.130859375 700.05 432.2
M 699.5 425.25
Q 699.1546875 425.0439453125 698.75 425.1 698.3501953125 425.205859375 698.1 425.55 697.8943359375 425.8958984375 697.95 426.3 698.275 427.8 698.55 429.35 698.6552734375 429.7482421875 699 429.95 699.344140625 430.2056640625 699.75 430.1 700.1486328125 430.044921875 700.35 429.7 700.60546875 429.35625 700.5 428.95 700.225 427.4 699.9 425.9 699.84375 425.4998046875 699.5 425.25
M 672 343.65
Q 671.8662109375 344.0421875 672.05 344.4 672.6873046875 345.8125 673.25 347.2 673.4404296875 347.5744140625 673.8 347.7 674.2134765625 347.8841796875 674.6 347.7 674.9755859375 347.559765625 675.1 347.15 675.283984375 346.787890625 675.1 346.4 674.5126953125 344.9873046875 673.85 343.55 673.6810546875 343.196875 673.3 343.05 672.9068359375 342.916015625 672.5 343.1 672.14609375 343.26875 672 343.65
M 671 337.35
Q 670.830078125 336.995703125 670.45 336.85 670.05625 336.716015625 669.65 336.9 669.2955078125 337.069140625 669.15 337.45 669.0166015625 337.8435546875 669.2 338.2 669.8998046875 339.7373046875 670.65 341.25 670.8353515625 341.6193359375 671.2 341.75 671.6228515625 341.88359375 672 341.7 672.3697265625 341.515234375 672.5 341.1 672.633203125 340.7275390625 672.45 340.35 671.7 338.8625 671 337.35
M 668.05 331.3
Q 667.8646484375 330.9306640625 667.45 330.8 667.0771484375 330.66640625 666.7 330.85 666.3302734375 331.034765625 666.2 331.4 666.066796875 331.8224609375 666.25 332.2 667 333.6876953125 667.75 335.2 667.9337890625 335.60546875 668.3 335.75 668.7083984375 335.8837890625 669.05 335.7 669.455859375 335.516796875 669.6 335.1 669.733203125 334.7419921875 669.55 334.35 668.8 332.8123046875 668.05 331.3
M 666.15 327.7
Q 665.45 326.3 664.75 324.9 664.5646484375 324.5306640625 664.15 324.4 663.7771484375 324.26640625 663.4 324.45 663.0302734375 324.634765625 662.9 325 662.766796875 325.4224609375 662.95 325.8 663.65 327.2 664.35 328.6 664.5353515625 328.9693359375 664.9 329.1 665.3228515625 329.23359375 665.7 329.05 666.0697265625 328.865234375 666.2 328.45 666.333203125 328.0775390625 666.15 327.7
M 662.9 321.55
Q 662.225 320.275 661.5 318.95 661.3232421875 318.61484375 660.9 318.5 660.534765625 318.379296875 660.15 318.55 659.8146484375 318.776171875 659.7 319.15 659.5798828125 319.56484375 659.75 319.9 660.475 321.225 661.15 322.5 661.3767578125 322.8849609375 661.75 323 662.165234375 323.120703125 662.5 322.9 662.8853515625 322.7240234375 663 322.3 663.1201171875 321.93515625 662.9 321.55
M 656.25 313.15
Q 656.1671875 313.5431640625 656.35 313.9 657.125 315.1875 657.85 316.5 658.078125 316.886328125 658.45 317 658.8673828125 317.1205078125 659.2 316.9 659.58671875 316.7224609375 659.7 316.3 659.8197265625 315.9328125 659.6 315.55 658.8748046875 314.2123046875 658.1 312.9 657.9080078125 312.53828125 657.5 312.4 657.10546875 312.3171875 656.75 312.5 656.3869140625 312.7419921875 656.25 313.15
M 652.75 307.05
Q 652.6671875 307.4431640625 652.85 307.8 653.625 309.1 654.35 310.4 654.5919921875 310.7615234375 655 310.85 655.39453125 310.9828125 655.75 310.75 656.112890625 310.558203125 656.2 310.15 656.3326171875 309.7568359375 656.1 309.4 655.375 308.1 654.6 306.8 654.4080078125 306.43828125 654 306.3 653.60546875 306.2171875 653.25 306.4 652.8869140625 306.6419921875 652.75 307.05
M 650.9 300.7
Q 650.67890625 300.3720703125 650.25 300.25 649.87578125 300.1806640625 649.5 300.4 649.171484375 300.620703125 649.05 301 648.9810546875 301.4234375 649.2 301.75 650 303.075 650.8 304.35 651.02109375 304.7279296875 651.4 304.8 651.8240234375 304.91953125 652.15 304.7 652.528515625 304.479296875 652.6 304.05 652.7189453125 303.6763671875 652.5 303.3 651.7 302.025 650.9 300.7
M 648.8 298.05
Q 648.90546875 297.6451171875 648.65 297.3 647.825 296.05 646.95 294.8 646.7484375 294.45625 646.35 294.35 645.9439453125 294.2943359375 645.6 294.5 645.255078125 294.7515625 645.15 295.15 645.0943359375 295.5548828125 645.3 295.9 646.175 297.15 647 298.4 647.2515625 298.74375 647.65 298.8 648.0560546875 298.9056640625 648.4 298.65 648.744921875 298.4486328125 648.8 298.05 Z"/>
</g>

<path id="Layer0_0_1_STROKES" stroke="#000000" stroke-width="2.5" stroke-linejoin="miter" stroke-linecap="butt" stroke-miterlimit="10" fill="none" d="
M 594.15 243.95
L 698.4 587.5 489.85 587.5 594.15 243.95 Z"/>

<path id="Layer0_0_2_STROKES" stroke="#DBDBDB" stroke-width="3" stroke-linejoin="round" stroke-linecap="round" fill="none" d="
M 677.5 356.65
L 707.5 356.65
Q 722.5 356.65 722.5 371.65
L 722.5 401.7
Q 722.5 416.7 707.5 416.7
L 677.5 416.7
Q 662.5 416.7 662.5 401.7
L 662.5 371.65
Q 662.5 356.65 677.5 356.65 Z"/>
</defs>

<g transform="matrix( 1, 0, 0, 1, 0,0) ">
<use xlink:href="#Layer0_0_FILL"/>

<use xlink:href="#Layer0_0_1_STROKES"/>

<use xlink:href="#Layer0_0_2_STROKES"/>

<use xlink:href="#Layer0_0_STROKES_1_FILL"/>
</g>
</svg>
