
<svg xmlns="http://www.w3.org/2000/svg" version="1.1" xmlns:xlink="http://www.w3.org/1999/xlink" preserveAspectRatio="none" x="0px" y="0px" width="1280px" height="720px" viewBox="0 0 1280 720">
<defs>
<g id="Layer0_0_FILL">
<path fill="#FFFFFF" stroke="none" d="
M 311.1 459.1
L 311.1 539.1 368.1 539.1 508.1 539.1 535.1 539.1 535.1 459.1 508.1 459.1 368.1 459.1 311.1 459.1
M 311.1 459.1
L 228.1 459.1 88.05 459.1 88.05 479.1 88.05 519.1
Q 88.05 539.1 108.05 539.1
L 228.1 539.1 311.1 539.1 311.1 459.1
M 108.05 379
Q 95.4 379 90.75 387 88.05 391.65 88.05 399
L 88.05 419.05 88.05 459.1 228.1 459.1 311.1 459.1 311.1 379 228.1 379 108.05 379
M 535.1 379
L 508.1 379 368.1 379 311.1 379 311.1 459.1 368.1 459.1 508.1 459.1 535.1 459.1 535.1 379
M 1208.2 479.1
L 1208.2 459.1 1068.1 459.1 983.1 459.1 983.1 539.1 1068.1 539.1 1188.2 539.1
Q 1208.2 539.1 1208.2 519.1
L 1208.2 479.1
M 759.1 539.1
L 759.1 459.1 648.1 459.1 567.15 459.1 535.1 459.1 535.1 539.1 567.15 539.1 648.1 539.1 759.1 539.1
M 826.15 459.1
L 817.15 459.1 788.1 459.1 759.1 459.1 759.1 539.1 788.1 539.1 817.15 539.1 826.15 539.1 928.1 539.1 983.1 539.1 983.1 459.1 928.1 459.1 826.15 459.1
M 759.1 379
L 648.1 379 567.15 379 535.1 379 535.1 459.1 567.15 459.1 648.1 459.1 759.1 459.1 759.1 379
M 788.1 379
L 759.1 379 759.1 459.1 788.1 459.1 817.15 459.1 826.15 459.1 928.1 459.1 983.1 459.1 983.1 379 928.1 379 826.15 379 788.1 379
M 1068.1 379
L 983.1 379 983.1 459.1 1068.1 459.1 1208.2 459.1 1208.2 399
Q 1208.2 379 1188.2 379
L 1068.1 379 Z"/>
</g>

<g id="sdvsdvsdb_0_Layer0_0_FILL">
<path fill="#E50182" stroke="none" d="
M -2.65 -17.95
L -3.05 -25.65 3.6 -29.75 -14.1 -31.45 -2.65 -17.95 Z"/>
</g>

<g id="Layer0_5_FILL">
<path fill="#1E1E1E" stroke="none" d="
M 771.35 299.4
Q 770.55 298.9 769.65 298.65 768.75 298.35 767.75 298.35 766.65 298.4 765.7 298.65 764.75 298.9 763.95 299.35 763.15 299.85 762.45 300.5 761.75 301.2 761.2 302 760.65 302.85 760.3 303.9 759.9 304.95 759.6 306.15 759.3 307.35 759.2 308.7 759.05 310.05 759.05 311.5 759.05 312.9 759.15 314.25 759.3 315.55 759.55 316.75 759.8 317.9 760.15 318.95 760.6 320.05 761.15 320.9 761.75 321.8 762.45 322.45 763.15 323.15 763.9 323.6 764.7 324.1 765.65 324.35 766.6 324.6 767.75 324.6 768.75 324.6 769.65 324.35 770.55 324.1 771.4 323.6 772.2 323.15 772.9 322.45 773.6 321.8 774.15 320.9 774.75 320.05 775.2 318.95 775.65 317.9 775.95 316.75 776.2 315.55 776.35 314.25 776.5 312.9 776.5 311.5 776.5 310.1 776.35 308.8 776.2 307.45 775.95 306.25 775.6 305.05 775.15 304 774.7 303 774.1 302.1 773.5 301.25 772.85 300.6 772.15 299.9 771.35 299.4
M 771.5 306.4
Q 771.7 307.1 771.9 307.95 772.05 308.8 772.15 309.65 772.25 310.55 772.25 311.5 772.25 312.45 772.15 313.35 772.1 314.25 771.95 315.05 771.55 316.75 771.1 317.95 770.85 318.6 770.45 319.1 770.1 319.6 769.65 319.95 769.2 320.35 768.7 320.5 768.25 320.7 767.75 320.7 767.15 320.7 766.65 320.5 766.15 320.35 765.75 319.95 764.9 319.2 764.3 317.95 764 317.3 763.85 316.55 763.65 315.8 763.55 314.95 763.4 314.15 763.3 313.3 763.25 312.4 763.25 311.5 763.25 310.55 763.3 309.65 763.4 308.75 763.55 307.9 763.65 307.1 763.85 306.35 764.05 305.6 764.3 305 764.6 304.4 765 303.9 765.4 303.45 765.8 303.05 766.2 302.75 766.7 302.6 767.2 302.4 767.75 302.4 768.2 302.4 768.7 302.6 769.15 302.75 769.65 303.1 770.05 303.45 770.45 303.95 770.8 304.45 771.1 305.05 771.3 305.7 771.5 306.4
M 751.25 320.9
Q 751.25 318.25 751.25 315.7 751.25 313.1 751.25 310.6 751.2 308.1 751.2 305.55 751.2 303 751.2 300.4 751.2 299.75 750.55 299.25 750.25 299 749.95 298.9 749.65 298.75 749.4 298.75 748.95 298.75 748.65 298.85 748.3 298.95 748.2 299.2 748 299.4 747.9 299.65 747.8 299.95 747.7 300.2 747.55 300.5 747.45 300.8 747.35 301.1 747.25 301.45 747.15 301.75 747.05 302 746.9 302.25 746.75 302.4 746.5 302.6 746.2 302.75 745.85 302.9 745.55 302.95 745.15 303 744.8 303.05 744.4 303.05 744.05 303.05 743.6 303.1 743.25 303.25 742.95 303.4 742.75 303.65 742.45 303.95 742.35 304.25 742.25 304.6 742.25 304.95 742.25 305.35 742.35 305.65 742.45 305.95 742.65 306.25 742.85 306.6 743.15 306.75 743.45 306.9 743.9 306.9
L 747.05 306.9
Q 747.05 308.85 747.05 310.75 747.05 312.7 747.05 314.6 747.05 318.45 747.05 322.35 747.05 322.75 747.25 323 747.4 323.3 747.75 323.55 748.05 323.8 748.45 323.95 748.8 324.1 749.25 324.1 749.35 324.1 749.55 324.05 749.7 324 749.85 323.9 749.95 323.85 750.15 323.8 750.3 323.7 750.45 323.6 750.65 323.5 750.8 323.3 750.95 323.15 751.05 323 751.15 322.85 751.2 322.7 751.25 322.55 751.25 322.35
L 751.25 320.9
M 548.85 300.6
Q 548.15 299.9 547.35 299.4 546.55 298.9 545.65 298.65 544.75 298.35 543.75 298.35 542.65 298.4 541.7 298.65 540.75 298.9 539.95 299.35 539.15 299.85 538.45 300.5 537.75 301.2 537.2 302 536.65 302.85 536.3 303.9 535.9 304.95 535.6 306.15 535.3 307.35 535.2 308.7 535.05 310.05 535.05 311.5 535.05 312.9 535.15 314.25 535.3 315.55 535.55 316.75 535.8 317.9 536.15 318.95 536.6 320.05 537.15 320.9 537.75 321.8 538.45 322.45 539.15 323.15 539.9 323.6 540.7 324.1 541.65 324.35 542.6 324.6 543.75 324.6 544.75 324.6 545.65 324.35 546.55 324.1 547.4 323.6 548.2 323.15 548.9 322.45 549.6 321.8 550.15 320.9 550.75 320.05 551.2 318.95 551.65 317.9 551.95 316.75 552.2 315.55 552.35 314.25 552.5 312.9 552.5 311.5 552.5 310.1 552.35 308.8 552.2 307.45 551.95 306.25 551.6 305.05 551.15 304 550.7 303 550.1 302.1 549.5 301.25 548.85 300.6
M 547.5 306.4
Q 547.7 307.1 547.9 307.95 548.05 308.8 548.15 309.65 548.25 310.55 548.25 311.5 548.25 312.45 548.15 313.35 548.1 314.25 547.95 315.05 547.55 316.75 547.1 317.95 546.85 318.6 546.45 319.1 546.1 319.6 545.65 319.95 545.2 320.35 544.7 320.5 544.25 320.7 543.75 320.7 543.15 320.7 542.65 320.5 542.15 320.35 541.75 319.95 540.9 319.2 540.3 317.95 540 317.3 539.85 316.55 539.65 315.8 539.55 314.95 539.4 314.15 539.3 313.3 539.25 312.4 539.25 311.5 539.25 310.55 539.3 309.65 539.4 308.75 539.55 307.9 539.65 307.1 539.85 306.35 540.05 305.6 540.3 305 540.6 304.4 541 303.9 541.4 303.45 541.8 303.05 542.2 302.75 542.7 302.6 543.2 302.4 543.75 302.4 544.2 302.4 544.7 302.6 545.15 302.75 545.65 303.1 546.05 303.45 546.45 303.95 546.8 304.45 547.1 305.05 547.3 305.7 547.5 306.4
M 527.2 300.4
Q 527.2 299.75 526.55 299.25 526.25 299 525.95 298.9 525.65 298.75 525.4 298.75 524.95 298.75 524.65 298.85 524.3 298.95 524.2 299.2 524 299.4 523.9 299.65 523.8 299.95 523.7 300.2 523.55 300.5 523.45 300.8 523.35 301.1 523.25 301.45 523.15 301.75 523.05 302 522.9 302.25 522.75 302.4 522.5 302.6 522.2 302.75 521.85 302.9 521.55 302.95 521.15 303 520.8 303.05 520.4 303.05 520.05 303.05 519.6 303.1 519.25 303.25 518.95 303.4 518.75 303.65 518.45 303.95 518.35 304.25 518.25 304.6 518.25 304.95 518.25 305.35 518.35 305.65 518.45 305.95 518.65 306.25 518.85 306.6 519.15 306.75 519.45 306.9 519.9 306.9
L 523.05 306.9
Q 523.05 308.85 523.05 310.75 523.05 312.7 523.05 314.6 523.05 318.45 523.05 322.35 523.05 322.75 523.25 323 523.4 323.3 523.75 323.55 524.05 323.8 524.45 323.95 524.8 324.1 525.25 324.1 525.35 324.1 525.55 324.05 525.7 324 525.85 323.9 525.95 323.85 526.15 323.8 526.3 323.7 526.45 323.6 526.65 323.5 526.8 323.3 526.95 323.15 527.05 323 527.15 322.85 527.2 322.7 527.25 322.55 527.25 322.35
L 527.25 320.9
Q 527.25 318.25 527.25 315.7 527.25 313.1 527.25 310.6 527.2 308.1 527.2 305.55 527.2 303 527.2 300.4
M 328.35 308.8
Q 328.2 307.45 327.95 306.25 327.6 305.05 327.15 304 326.7 303 326.1 302.1 325.5 301.25 324.85 300.6 324.15 299.9 323.35 299.4 322.55 298.9 321.65 298.65 320.75 298.35 319.75 298.35 318.65 298.4 317.7 298.65 316.75 298.9 315.95 299.35 315.15 299.85 314.45 300.5 313.75 301.2 313.2 302 312.65 302.85 312.3 303.9 311.9 304.95 311.6 306.15 311.3 307.35 311.2 308.7 311.05 310.05 311.05 311.5 311.05 312.9 311.15 314.25 311.3 315.55 311.55 316.75 311.8 317.9 312.15 318.95 312.6 320.05 313.15 320.9 313.75 321.8 314.45 322.45 315.15 323.15 315.9 323.6 316.7 324.1 317.65 324.35 318.6 324.6 319.75 324.6 320.75 324.6 321.65 324.35 322.55 324.1 323.4 323.6 324.2 323.15 324.9 322.45 325.6 321.8 326.15 320.9 326.75 320.05 327.2 318.95 327.65 317.9 327.95 316.75 328.2 315.55 328.35 314.25 328.5 312.9 328.5 311.5 328.5 310.1 328.35 308.8
M 324.15 309.65
Q 324.25 310.55 324.25 311.5 324.25 312.45 324.15 313.35 324.1 314.25 323.95 315.05 323.55 316.75 323.1 317.95 322.85 318.6 322.45 319.1 322.1 319.6 321.65 319.95 321.2 320.35 320.7 320.5 320.25 320.7 319.75 320.7 319.15 320.7 318.65 320.5 318.15 320.35 317.75 319.95 316.9 319.2 316.3 317.95 316 317.3 315.85 316.55 315.65 315.8 315.55 314.95 315.4 314.15 315.3 313.3 315.25 312.4 315.25 311.5 315.25 310.55 315.3 309.65 315.4 308.75 315.55 307.9 315.65 307.1 315.85 306.35 316.05 305.6 316.3 305 316.6 304.4 317 303.9 317.4 303.45 317.8 303.05 318.2 302.75 318.7 302.6 319.2 302.4 319.75 302.4 320.2 302.4 320.7 302.6 321.15 302.75 321.65 303.1 322.05 303.45 322.45 303.95 322.8 304.45 323.1 305.05 323.3 305.7 323.5 306.4 323.7 307.1 323.9 307.95 324.05 308.8 324.15 309.65
M 302.55 299.25
Q 302.25 299 301.95 298.9 301.65 298.75 301.4 298.75 300.95 298.75 300.65 298.85 300.3 298.95 300.2 299.2 300 299.4 299.9 299.65 299.8 299.95 299.7 300.2 299.55 300.5 299.45 300.8 299.35 301.1 299.25 301.45 299.15 301.75 299.05 302 298.9 302.25 298.75 302.4 298.5 302.6 298.2 302.75 297.85 302.9 297.55 302.95 297.15 303 296.8 303.05 296.4 303.05 296.05 303.05 295.6 303.1 295.25 303.25 294.95 303.4 294.75 303.65 294.45 303.95 294.35 304.25 294.25 304.6 294.25 304.95 294.25 305.35 294.35 305.65 294.45 305.95 294.65 306.25 294.85 306.6 295.15 306.75 295.45 306.9 295.9 306.9
L 299.05 306.9
Q 299.05 308.85 299.05 310.75 299.05 312.7 299.05 314.6 299.05 318.45 299.05 322.35 299.05 322.75 299.25 323 299.4 323.3 299.75 323.55 300.05 323.8 300.45 323.95 300.8 324.1 301.25 324.1 301.35 324.1 301.55 324.05 301.7 324 301.85 323.9 301.95 323.85 302.15 323.8 302.3 323.7 302.45 323.6 302.65 323.5 302.8 323.3 302.95 323.15 303.05 323 303.15 322.85 303.2 322.7 303.25 322.55 303.25 322.35
L 303.25 320.9
Q 303.25 318.25 303.25 315.7 303.25 313.1 303.25 310.6 303.2 308.1 303.2 305.55 303.2 303 303.2 300.4 303.2 299.75 302.55 299.25
M 400.8 406.9
Q 399.75 405.75 398.15 405.05 396.6 404.4 394.55 404.4 391.35 404.4 389.4 405.85 387.45 407.35 386.35 409.6 385.25 411.9 384.85 414.6 384.5 417.35 384.5 419.8 384.5 427.15 386.95 431.2 389.4 435.25 394.55 435.25 397.1 435.25 398.95 434.25 400.8 433.15 402.05 431.2 403.3 429.25 403.9 426.35 404.5 423.45 404.5 419.8 404.5 418.15 404.3 416.4 404.15 414.6 403.75 412.9 403.35 411.2 402.65 409.65 401.95 408.1 400.8 406.9
M 392.25 409.35
Q 393.25 408.75 394.55 408.75 395.75 408.75 396.8 409.35 397.8 409.9 398.55 411.2 399.25 412.55 399.65 414.65 400 416.8 400 419.8 400 422.9 399.65 425.05 399.25 427.15 398.55 428.45 397.8 429.8 396.8 430.35 395.75 430.95 394.55 430.95 393.25 430.95 392.25 430.35 391.25 429.8 390.55 428.45 389.8 427.15 389.45 425.05 389.05 422.9 389.05 419.8 389.05 416.8 389.45 414.65 389.8 412.55 390.55 411.2 391.25 409.9 392.25 409.35
M 414 432.3
Q 413.1 431.4 411.85 431.4 410.55 431.4 409.65 432.3 408.75 433.15 408.75 434.45 408.75 435.75 409.65 436.65 410.55 437.55 411.85 437.55 413.1 437.55 414 436.65 414.85 435.75 414.85 434.45 414.85 433.15 414 432.3
M 435.15 406.9
Q 434.1 405.75 432.5 405.05 430.95 404.4 428.9 404.4 425.7 404.4 423.75 405.85 421.8 407.35 420.7 409.6 419.6 411.9 419.2 414.6 418.85 417.35 418.85 419.8 418.85 427.15 421.3 431.2 423.75 435.25 428.9 435.25 431.45 435.25 433.3 434.25 435.15 433.15 436.4 431.2 437.65 429.25 438.25 426.35 438.85 423.45 438.85 419.8 438.85 418.15 438.65 416.4 438.5 414.6 438.1 412.9 437.7 411.2 437 409.65 436.3 408.1 435.15 406.9
M 428.9 408.75
Q 430.1 408.75 431.15 409.35 432.15 409.9 432.9 411.2 433.6 412.55 434 414.65 434.35 416.8 434.35 419.8 434.35 422.9 434 425.05 433.6 427.15 432.9 428.45 432.15 429.8 431.15 430.35 430.1 430.95 428.9 430.95 427.6 430.95 426.6 430.35 425.6 429.8 424.9 428.45 424.15 427.15 423.8 425.05 423.4 422.9 423.4 419.8 423.4 416.8 423.8 414.65 424.15 412.55 424.9 411.2 425.6 409.9 426.6 409.35 427.6 408.75 428.9 408.75
M 455 405.75
Q 455 404.95 454.85 404.8 454.75 404.65 454.05 404.65
L 451.95 404.65
Q 451.8 404.65 451.6 404.75 451.4 404.8 451.35 404.9
L 445.2 410.55
Q 445 410.75 445 410.95 444.95 411.2 445.1 411.35
L 446.9 413.5
Q 447.05 413.65 447.3 413.6 447.55 413.6 447.8 413.45
L 450.75 410.85 450.75 434.55
Q 450.75 435.05 451.3 435.05
L 454.5 435.05
Q 455 435.05 455 434.55
L 455 405.75
M 633.8 405.05
Q 632.25 404.4 630.2 404.4 627 404.4 625.05 405.85 623.1 407.35 622 409.6 620.9 411.9 620.5 414.6 620.15 417.35 620.15 419.8 620.15 427.15 622.6 431.2 625.05 435.25 630.2 435.25 632.75 435.25 634.6 434.25 636.45 433.15 637.7 431.2 638.95 429.25 639.55 426.35 640.15 423.45 640.15 419.8 640.15 418.15 639.95 416.4 639.8 414.6 639.4 412.9 639 411.2 638.3 409.65 637.6 408.1 636.45 406.9 635.4 405.75 633.8 405.05
M 634.2 411.2
Q 634.9 412.55 635.3 414.65 635.65 416.8 635.65 419.8 635.65 422.9 635.3 425.05 634.9 427.15 634.2 428.45 633.45 429.8 632.45 430.35 631.4 430.95 630.2 430.95 628.9 430.95 627.9 430.35 626.9 429.8 626.2 428.45 625.45 427.15 625.1 425.05 624.7 422.9 624.7 419.8 624.7 416.8 625.1 414.65 625.45 412.55 626.2 411.2 626.9 409.9 627.9 409.35 628.9 408.75 630.2 408.75 631.4 408.75 632.45 409.35 633.45 409.9 634.2 411.2
M 176.25 431.4
Q 174.95 431.4 174.05 432.3 173.15 433.15 173.15 434.45 173.15 435.75 174.05 436.65 174.95 437.55 176.25 437.55 177.5 437.55 178.4 436.65 179.25 435.75 179.25 434.45 179.25 433.15 178.4 432.3 177.5 431.4 176.25 431.4
M 165.2 406.9
Q 164.15 405.75 162.55 405.05 161 404.4 158.95 404.4 155.75 404.4 153.8 405.85 151.85 407.35 150.75 409.6 149.65 411.9 149.25 414.6 148.9 417.35 148.9 419.8 148.9 427.15 151.35 431.2 153.8 435.25 158.95 435.25 161.5 435.25 163.35 434.25 165.2 433.15 166.45 431.2 167.7 429.25 168.3 426.35 168.9 423.45 168.9 419.8 168.9 418.15 168.7 416.4 168.55 414.6 168.15 412.9 167.75 411.2 167.05 409.65 166.35 408.1 165.2 406.9
M 162.95 411.2
Q 163.65 412.55 164.05 414.65 164.4 416.8 164.4 419.8 164.4 422.9 164.05 425.05 163.65 427.15 162.95 428.45 162.2 429.8 161.2 430.35 160.15 430.95 158.95 430.95 157.65 430.95 156.65 430.35 155.65 429.8 154.95 428.45 154.2 427.15 153.85 425.05 153.45 422.9 153.45 419.8 153.45 416.8 153.85 414.65 154.2 412.55 154.95 411.2 155.65 409.9 156.65 409.35 157.65 408.75 158.95 408.75 160.15 408.75 161.2 409.35 162.2 409.9 162.95 411.2
M 203.25 419.8
Q 203.25 418.15 203.05 416.4 202.9 414.6 202.5 412.9 202.1 411.2 201.4 409.65 200.7 408.1 199.55 406.9 198.5 405.75 196.9 405.05 195.35 404.4 193.3 404.4 190.1 404.4 188.15 405.85 186.2 407.35 185.1 409.6 184 411.9 183.6 414.6 183.25 417.35 183.25 419.8 183.25 427.15 185.7 431.2 188.15 435.25 193.3 435.25 195.85 435.25 197.7 434.25 199.55 433.15 200.8 431.2 202.05 429.25 202.65 426.35 203.25 423.45 203.25 419.8
M 189.3 411.2
Q 190 409.9 191 409.35 192 408.75 193.3 408.75 194.5 408.75 195.55 409.35 196.55 409.9 197.3 411.2 198 412.55 198.4 414.65 198.75 416.8 198.75 419.8 198.75 422.9 198.4 425.05 198 427.15 197.3 428.45 196.55 429.8 195.55 430.35 194.5 430.95 193.3 430.95 192 430.95 191 430.35 190 429.8 189.3 428.45 188.55 427.15 188.2 425.05 187.8 422.9 187.8 419.8 187.8 416.8 188.2 414.65 188.55 412.55 189.3 411.2
M 226.5 419.8
Q 226.5 418.15 226.3 416.4 226.15 414.6 225.75 412.9 225.35 411.2 224.65 409.65 223.95 408.1 222.8 406.9 221.75 405.75 220.15 405.05 218.6 404.4 216.55 404.4 213.35 404.4 211.4 405.85 209.45 407.35 208.35 409.6 207.25 411.9 206.85 414.6 206.5 417.35 206.5 419.8 206.5 427.15 208.95 431.2 211.4 435.25 216.55 435.25 219.1 435.25 220.95 434.25 222.8 433.15 224.05 431.2 225.3 429.25 225.9 426.35 226.5 423.45 226.5 419.8
M 211.05 419.8
Q 211.05 416.8 211.45 414.65 211.8 412.55 212.55 411.2 213.25 409.9 214.25 409.35 215.25 408.75 216.55 408.75 217.75 408.75 218.8 409.35 219.8 409.9 220.55 411.2 221.25 412.55 221.65 414.65 222 416.8 222 419.8 222 422.9 221.65 425.05 221.25 427.15 220.55 428.45 219.8 429.8 218.8 430.35 217.75 430.95 216.55 430.95 215.25 430.95 214.25 430.35 213.25 429.8 212.55 428.45 211.8 427.15 211.45 425.05 211.05 422.9 211.05 419.8
M 242.65 405.75
Q 242.65 404.95 242.5 404.8 242.4 404.65 241.7 404.65
L 239.6 404.65
Q 239.45 404.65 239.25 404.75 239.05 404.8 239 404.9
L 232.85 410.55
Q 232.65 410.75 232.65 410.95 232.6 411.2 232.75 411.35
L 234.55 413.5
Q 234.7 413.65 234.95 413.6 235.2 413.6 235.45 413.45
L 238.4 410.85 238.4 434.55
Q 238.4 435.05 238.95 435.05
L 242.15 435.05
Q 242.65 435.05 242.65 434.55
L 242.65 405.75
M 314.55 257.4
Q 314.55 256.75 313.9 256.25 313.6 256 313.3 255.9 313 255.75 312.75 255.75 312.3 255.75 312 255.85 311.65 255.95 311.55 256.2 311.35 256.4 311.25 256.65 311.15 256.95 311.05 257.2 310.9 257.5 310.8 257.8 310.7 258.1 310.6 258.45 310.5 258.75 310.4 259 310.25 259.25 310.1 259.4 309.85 259.6 309.55 259.75 309.2 259.9 308.9 259.95 308.5 260 308.15 260.05 307.75 260.05 307.4 260.05 306.95 260.1 306.6 260.25 306.3 260.4 306.1 260.65 305.8 260.95 305.7 261.25 305.6 261.6 305.6 261.95 305.6 262.35 305.7 262.65 305.8 262.95 306 263.25 306.2 263.6 306.5 263.75 306.8 263.9 307.25 263.9
L 310.4 263.9
Q 310.4 265.85 310.4 267.75 310.4 269.7 310.4 271.6 310.4 275.45 310.4 279.35 310.4 279.75 310.6 280 310.75 280.3 311.1 280.55 311.4 280.8 311.8 280.95 312.15 281.1 312.6 281.1 312.7 281.1 312.9 281.05 313.05 281 313.2 280.9 313.3 280.85 313.5 280.8 313.65 280.7 313.8 280.6 314 280.5 314.15 280.3 314.3 280.15 314.4 280 314.5 279.85 314.55 279.7 314.6 279.55 314.6 279.35
L 314.6 277.9
Q 314.6 275.25 314.6 272.7 314.6 270.1 314.6 267.6 314.55 265.1 314.55 262.55 314.55 260 314.55 257.4
M 538.55 257.4
Q 538.55 256.75 537.9 256.25 537.6 256 537.3 255.9 537 255.75 536.75 255.75 536.3 255.75 536 255.85 535.65 255.95 535.55 256.2 535.35 256.4 535.25 256.65 535.15 256.95 535.05 257.2 534.9 257.5 534.8 257.8 534.7 258.1 534.6 258.45 534.5 258.75 534.4 259 534.25 259.25 534.1 259.4 533.85 259.6 533.55 259.75 533.2 259.9 532.9 259.95 532.5 260 532.15 260.05 531.75 260.05 531.4 260.05 530.95 260.1 530.6 260.25 530.3 260.4 530.1 260.65 529.8 260.95 529.7 261.25 529.6 261.6 529.6 261.95 529.6 262.35 529.7 262.65 529.8 262.95 530 263.25 530.2 263.6 530.5 263.75 530.8 263.9 531.25 263.9
L 534.4 263.9
Q 534.4 265.85 534.4 267.75 534.4 269.7 534.4 271.6 534.4 275.45 534.4 279.35 534.4 279.75 534.6 280 534.75 280.3 535.1 280.55 535.4 280.8 535.8 280.95 536.15 281.1 536.6 281.1 536.7 281.1 536.9 281.05 537.05 281 537.2 280.9 537.3 280.85 537.5 280.8 537.65 280.7 537.8 280.6 538 280.5 538.15 280.3 538.3 280.15 538.4 280 538.5 279.85 538.55 279.7 538.6 279.55 538.6 279.35
L 538.6 277.9
Q 538.6 275.25 538.6 272.7 538.6 270.1 538.6 267.6 538.55 265.1 538.55 262.55 538.55 260 538.55 257.4
M 1084.55 404.65
Q 1084.4 404.65 1084.2 404.75 1084 404.8 1083.95 404.9
L 1077.8 410.55
Q 1077.6 410.75 1077.6 410.95 1077.55 411.2 1077.7 411.35
L 1079.5 413.5
Q 1079.65 413.65 1079.9 413.6 1080.15 413.6 1080.4 413.45
L 1083.35 410.85 1083.35 434.55
Q 1083.35 435.05 1083.9 435.05
L 1087.1 435.05
Q 1087.6 435.05 1087.6 434.55
L 1087.6 405.75
Q 1087.6 404.95 1087.45 404.8 1087.35 404.65 1086.65 404.65
L 1084.55 404.65
M 1117.95 419.8
Q 1117.95 418.15 1117.75 416.4 1117.6 414.6 1117.2 412.9 1116.8 411.2 1116.1 409.65 1115.4 408.1 1114.25 406.9 1113.2 405.75 1111.6 405.05 1110.05 404.4 1108 404.4 1104.8 404.4 1102.85 405.85 1100.9 407.35 1099.8 409.6 1098.7 411.9 1098.3 414.6 1097.95 417.35 1097.95 419.8 1097.95 427.15 1100.4 431.2 1102.85 435.25 1108 435.25 1110.55 435.25 1112.4 434.25 1114.25 433.15 1115.5 431.2 1116.75 429.25 1117.35 426.35 1117.95 423.45 1117.95 419.8
M 1102.5 419.8
Q 1102.5 416.8 1102.9 414.65 1103.25 412.55 1104 411.2 1104.7 409.9 1105.7 409.35 1106.7 408.75 1108 408.75 1109.2 408.75 1110.25 409.35 1111.25 409.9 1112 411.2 1112.7 412.55 1113.1 414.65 1113.45 416.8 1113.45 419.8 1113.45 422.9 1113.1 425.05 1112.7 427.15 1112 428.45 1111.25 429.8 1110.25 430.35 1109.2 430.95 1108 430.95 1106.7 430.95 1105.7 430.35 1104.7 429.8 1104 428.45 1103.25 427.15 1102.9 425.05 1102.5 422.9 1102.5 419.8
M 649.65 436.65
Q 650.5 435.75 650.5 434.45 650.5 433.15 649.65 432.3 648.75 431.4 647.5 431.4 646.2 431.4 645.3 432.3 644.4 433.15 644.4 434.45 644.4 435.75 645.3 436.65 646.2 437.55 647.5 437.55 648.75 437.55 649.65 436.65
M 664.35 404.65
Q 664.2 404.65 664 404.75 663.8 404.8 663.75 404.9
L 657.6 410.55
Q 657.4 410.75 657.4 410.95 657.35 411.2 657.5 411.35
L 659.3 413.5
Q 659.45 413.65 659.7 413.6 659.95 413.6 660.2 413.45
L 663.15 410.85 663.15 434.55
Q 663.15 435.05 663.7 435.05
L 666.9 435.05
Q 667.4 435.05 667.4 434.55
L 667.4 405.75
Q 667.4 404.95 667.25 404.8 667.15 404.65 666.45 404.65
L 664.35 404.65
M 876.45 484.65
L 872.8 484.65
Q 872.4 484.65 872.3 484.75 872.2 484.85 872 485.2
L 859.6 503.8
Q 859.45 503.95 859.3 504.25 859.1 504.55 859.1 504.8
L 859.1 507.8
Q 859.1 508.1 859.25 508.15 859.4 508.25 859.75 508.25
L 872.55 508.25 872.55 514.35
Q 872.55 514.75 872.7 514.9 872.85 515.05 873.3 515.05
L 876.2 515.05
Q 876.6 515.05 876.7 514.9 876.85 514.8 876.85 514.35
L 876.85 508.25 880.55 508.25
Q 880.9 508.25 881.05 508.15 881.2 508.05 881.2 507.65
L 881.2 504.75
Q 881.2 504.35 881.05 504.25 880.9 504.15 880.55 504.15
L 876.85 504.15 876.85 485.25
Q 876.85 484.9 876.8 484.8 876.75 484.65 876.45 484.65
M 872.55 504.15
L 863.95 504.15 872.55 491.1 872.55 504.15
M 839.15 485.65
Q 838.75 485.85 838.6 486.05 838.45 486.2 838.55 486.45
L 838.9 489.4
Q 839 489.75 839.2 489.85 839.4 489.95 839.9 489.75 840.5 489.5 841.3 489.25 842.1 489 842.9 488.85 843.7 488.65 844.45 488.55 845.15 488.45 845.7 488.45 846.55 488.45 847.5 488.65 848.45 488.85 849.3 489.35 850.1 489.8 850.65 490.6 851.15 491.35 851.15 492.35 851.15 493.7 850.35 494.6 849.55 495.55 848.35 496.15 847.2 496.75 845.95 497 844.7 497.25 843.85 497.25
L 841.95 497.25
Q 841.6 497.25 841.5 497.35 841.4 497.4 841.4 497.8
L 841.4 500.75
Q 841.4 501.05 841.5 501.15 841.6 501.25 841.95 501.25
L 843.9 501.25
Q 845.85 501.25 847.2 501.65 848.6 502 849.5 502.7 850.35 503.35 850.8 504.2 851.2 505.05 851.2 506 851.2 508.65 849.25 510 848.6 510.45 847.85 510.7 847.05 511 846.2 511.1 845.35 511.2 844.45 511.15 843.55 511.1 842.75 511.05 841.65 510.95 840.6 510.65 839.55 510.35 838.5 510.05 837.95 509.8 837.75 509.95 837.55 510.05 837.5 510.4
L 837.15 513.45
Q 837.1 513.8 837.3 513.95 837.45 514.15 837.85 514.25 839.3 514.8 841.05 515.1 842.8 515.4 844.55 515.4 846.85 515.4 849 514.8 851.15 514.25 852.65 513 854.15 511.75 855 510 855.8 508.2 855.8 506.1 855.8 503.9 854.45 502.1 853.1 500.35 850.45 499.2 851.55 498.7 852.5 497.95 853.45 497.2 854.15 496.2 854.85 495.25 855.25 494.2 855.6 493.1 855.6 492 855.6 490 854.75 488.5 853.9 487 852.55 486.1 851.25 485.2 849.5 484.75 847.75 484.3 845.95 484.3 844.25 484.3 842.6 484.65 840.9 485.05 839.15 485.65
M 873.2 405.75
Q 873.2 404.95 873.05 404.8 872.95 404.65 872.25 404.65
L 870.15 404.65
Q 870 404.65 869.8 404.75 869.6 404.8 869.55 404.9
L 863.4 410.55
Q 863.2 410.75 863.2 410.95 863.15 411.2 863.3 411.35
L 865.1 413.5
Q 865.25 413.65 865.5 413.6 865.75 413.6 866 413.45
L 868.95 410.85 868.95 434.55
Q 868.95 435.05 869.5 435.05
L 872.7 435.05
Q 873.2 435.05 873.2 434.55
L 873.2 405.75
M 901.1 488.8
Q 901.35 488.8 901.5 488.6 901.6 488.45 901.6 488.2
L 901.6 485.15
Q 901.6 484.95 901.5 484.8 901.35 484.6 901.1 484.6
L 886.45 484.6
Q 885.85 484.6 885.75 484.75 885.6 484.85 885.6 485.3
L 885.4 500.05
Q 885.4 501.4 886.95 500.75 888.2 500.3 889.6 500.05 891 499.75 892.3 499.75 895.6 499.75 897 501.3 898.45 502.8 898.45 505.4 898.45 508.1 896.65 509.6 894.95 511.15 892.25 511.15 891.55 511.15 890.7 511.05 889.9 511 889.05 510.85 888.2 510.65 887.4 510.45 886.6 510.2 886.05 509.9 885.2 509.5 885.2 510.2
L 885.2 513.45
Q 885.2 513.75 885.2 513.9 885.25 514 885.5 514.2 886.15 514.5 887.1 514.7 888 514.95 888.95 515.1 889.9 515.2 890.7 515.3 891.55 515.35 891.95 515.35 894.25 515.35 896.3 514.7 898.4 514.05 899.8 512.75 902.95 509.95 902.95 504.9 902.95 502.8 902.2 501.15 901.45 499.45 900.15 498.25 898.85 497.1 897.1 496.45 895.35 495.85 893.35 495.85 891.4 495.85 889.8 496.2
L 889.95 488.8 901.1 488.8
M 962.55 305.05
Q 962.55 302.9 962.55 300.7 962.55 300.15 962 299.7 961.7 299.5 961.45 299.35 961.2 299.25 961 299.25 960.6 299.25 960.35 299.35 960.1 299.45 959.95 299.65 959.85 299.85 959.75 300.05 959.6 300.25 959.55 300.5 959.4 300.75 959.35 301.05 959.25 301.3 959.2 301.55 959.1 301.8 959 302.05 958.9 302.25 958.75 302.4 958.5 302.55 958.25 302.7 958 302.8 957.7 302.85 957.35 302.9 957.05 302.95 956.7 302.95 956.4 302.95 956.05 303 955.75 303.1 955.5 303.25 955.3 303.45 955.05 303.7 954.95 304 954.85 304.25 954.9 304.55 954.9 304.9 954.95 305.15 955.05 305.45 955.25 305.7 955.4 305.95 955.65 306.1 955.9 306.25 956.3 306.25
L 959 306.25
Q 959 307.9 959 309.55 959 311.2 959 312.85 959 316.15 959 319.5 959 319.8 959.15 320.05 959.3 320.3 959.6 320.5 959.85 320.75 960.2 320.85 960.5 320.95 960.85 320.95 961 320.95 961.1 320.95 961.25 320.9 961.4 320.85 961.5 320.8 961.65 320.75 961.75 320.65 961.9 320.55 962.05 320.45 962.2 320.3 962.35 320.2 962.45 320.05 962.5 319.95 962.55 319.8 962.6 319.65 962.6 319.5
L 962.6 318.25
Q 962.6 316 962.6 313.75 962.6 311.6 962.6 309.4 962.55 307.25 962.55 305.05
M 762.55 257.4
Q 762.55 256.75 761.9 256.25 761.6 256 761.3 255.9 761 255.75 760.75 255.75 760.3 255.75 760 255.85 759.65 255.95 759.55 256.2 759.35 256.4 759.25 256.65 759.15 256.95 759.05 257.2 758.9 257.5 758.8 257.8 758.7 258.1 758.6 258.45 758.5 258.75 758.4 259 758.25 259.25 758.1 259.4 757.85 259.6 757.55 259.75 757.2 259.9 756.9 259.95 756.5 260 756.15 260.05 755.75 260.05 755.4 260.05 754.95 260.1 754.6 260.25 754.3 260.4 754.1 260.65 753.8 260.95 753.7 261.25 753.6 261.6 753.6 261.95 753.6 262.35 753.7 262.65 753.8 262.95 754 263.25 754.2 263.6 754.5 263.75 754.8 263.9 755.25 263.9
L 758.4 263.9
Q 758.4 265.85 758.4 267.75 758.4 269.7 758.4 271.6 758.4 275.45 758.4 279.35 758.4 279.75 758.6 280 758.75 280.3 759.1 280.55 759.4 280.8 759.8 280.95 760.15 281.1 760.6 281.1 760.7 281.1 760.9 281.05 761.05 281 761.2 280.9 761.3 280.85 761.5 280.8 761.65 280.7 761.8 280.6 762 280.5 762.15 280.3 762.3 280.15 762.4 280 762.5 279.85 762.55 279.7 762.6 279.55 762.6 279.35
L 762.6 277.9
Q 762.6 275.25 762.6 272.7 762.6 270.1 762.6 267.6 762.55 265.1 762.55 262.55 762.55 260 762.55 257.4
M 982.95 305.7
Q 982.7 304.65 982.3 303.75 981.9 302.9 981.4 302.15 980.9 301.4 980.3 300.8 979.7 300.25 979.05 299.8 978.35 299.4 977.55 299.15 976.8 298.95 975.9 298.95 975 298.95 974.2 299.15 973.35 299.35 972.7 299.8 972 300.2 971.4 300.75 970.8 301.35 970.3 302 969.85 302.8 969.55 303.7 969.2 304.55 968.95 305.6 968.7 306.65 968.6 307.8 968.5 308.9 968.5 310.2 968.5 311.4 968.6 312.55 968.7 313.65 968.9 314.65 969.1 315.7 969.45 316.6 969.8 317.5 970.3 318.25 970.8 319 971.4 319.55 972 320.15 972.65 320.55 973.3 321 974.1 321.2 974.95 321.4 975.9 321.4 976.8 321.4 977.6 321.2 978.35 321 979.05 320.55 979.8 320.15 980.35 319.55 980.95 319 981.45 318.25 981.95 317.5 982.35 316.6 982.7 315.7 982.95 314.65 983.2 313.65 983.3 312.55 983.4 311.4 983.4 310.2 983.4 308.95 983.3 307.85 983.2 306.75 982.95 305.7
M 974.3 302.95
Q 974.65 302.7 975.05 302.55 975.45 302.4 975.9 302.4 976.35 302.4 976.75 302.55 977.15 302.7 977.55 303 977.95 303.3 978.25 303.7 978.55 304.15 978.8 304.7 979 305.2 979.15 305.8 979.35 306.45 979.5 307.15 979.65 307.85 979.7 308.6 979.8 309.4 979.8 310.2 979.8 311 979.75 311.75 979.65 312.55 979.55 313.2 979.2 314.65 978.8 315.75 978.6 316.3 978.25 316.7 977.95 317.15 977.6 317.45 977.15 317.75 976.75 317.9 976.35 318.1 975.9 318.1 975.45 318.1 975 317.9 974.6 317.75 974.2 317.4 973.5 316.8 972.95 315.7 972.75 315.15 972.6 314.5 972.4 313.9 972.35 313.15 972.2 312.45 972.15 311.7 972.1 310.95 972.1 310.2 972.1 309.35 972.15 308.6 972.2 307.85 972.35 307.1 972.4 306.4 972.6 305.75 972.75 305.15 973 304.6 973.25 304.1 973.6 303.7 973.9 303.25 974.3 302.95
M 998.15 299.55
Q 997.8 299.45 997.55 299.35 997.25 299.25 997.05 299.25 996.65 299.25 996.35 299.35 996.05 299.45 995.85 299.55 995.3 299.9 995.3 300.65
L 995.3 305.4 991.25 305.4 991.25 300.65
Q 991.25 300.25 991.1 300 990.95 299.7 990.65 299.55 990.4 299.45 990.15 299.35 989.9 299.25 989.65 299.25 989.3 299.25 989 299.35 988.7 299.45 988.4 299.55 987.9 299.9 987.9 300.65
L 987.9 313.65
Q 987.9 315.35 988.75 316.15 989.6 316.95 991.3 316.95
L 996.15 316.95
Q 997.5 316.95 998.15 316.05 998.45 315.65 998.6 315.05 998.75 314.45 998.75 313.65
L 998.75 300.65
Q 998.75 300.25 998.6 300 998.45 299.7 998.15 299.55
M 995.25 312.2
Q 995.25 312.4 995.25 312.6 995.25 312.8 995.25 312.95 995.25 313.15 995.2 313.35 995.2 313.5 995.2 313.7 995.05 313.75 994.9 313.75 994.7 313.75 994.5 313.75 994.3 313.75 994.1 313.75 993.9 313.75 993.75 313.75
L 991.45 313.75
Q 991.35 313.45 991.3 313.1 991.25 312.7 991.25 312.2
L 991.25 308.65 995.25 308.65 995.25 312.2
M 1008 297.25
Q 1007.7 297.3 1007.45 297.45 1007.2 297.55 1007.1 297.85 1007 298.1 1007 298.5
L 1007 307.45 1004.65 307.45 1004.65 299
Q 1004.65 298.6 1004.55 298.35 1004.45 298.1 1004.25 298 1004 297.85 1003.65 297.8 1003.35 297.75 1002.95 297.75 1002.65 297.75 1002.35 297.8 1002.05 297.85 1001.8 298 1001.5 298.1 1001.35 298.4 1001.25 298.65 1001.25 299
L 1001.25 323.3
Q 1001.25 323.75 1001.35 324 1001.5 324.25 1001.8 324.4 1002.05 324.5 1002.35 324.55 1002.65 324.6 1002.95 324.65 1003.35 324.6 1003.65 324.55 1004 324.5 1004.25 324.4 1004.45 324.25 1004.55 324 1004.65 323.75 1004.65 323.3
L 1004.65 310.65 1007 310.65 1007 324.15
Q 1007 324.55 1007.1 324.8 1007.2 325.05 1007.45 325.2 1007.7 325.3 1008 325.35 1008.3 325.45 1008.7 325.45 1009.05 325.45 1009.35 325.35 1009.6 325.3 1009.85 325.2 1010.1 325.05 1010.2 324.8 1010.35 324.55 1010.35 324.15
L 1010.35 298.5
Q 1010.35 298.1 1010.2 297.85 1010.1 297.55 1009.85 297.45 1009.6 297.3 1009.35 297.25 1009.05 297.2 1008.7 297.2 1008.3 297.2 1008 297.25 Z"/>
</g>

<path id="Layer0_0_1_STROKES" stroke="#B3DCC0" stroke-width="4" stroke-linejoin="round" stroke-linecap="round" fill="none" d="
M 108.05 379
L 228.1 379 311.1 379 368.1 379 508.1 379 535.1 379 567.15 379 648.1 379 759.1 379 788.1 379 826.15 379 928.1 379 983.1 379 1068.1 379 1188.2 379
Q 1208.2 379 1208.2 399
L 1208.2 459.1 1208.2 479.1 1208.2 519.1
Q 1208.2 539.1 1188.2 539.1
L 1068.1 539.1 983.1 539.1 928.1 539.1 826.15 539.1 817.15 539.1 788.1 539.1 759.1 539.1 648.1 539.1 567.15 539.1 535.1 539.1 508.1 539.1 368.1 539.1 311.1 539.1 228.1 539.1 108.05 539.1
Q 88.05 539.1 88.05 519.1
L 88.05 479.1 88.05 459.1 88.05 419.05 88.05 399
Q 88.05 391.65 90.75 387 95.4 379 108.05 379 Z"/>

<path id="Layer0_0_2_STROKES" stroke="#B3DCC0" stroke-width="2" stroke-linejoin="round" stroke-linecap="round" fill="none" d="
M 759.1 379
L 759.1 459.1 788.1 459.1 817.15 459.1 826.15 459.1 928.1 459.1 983.1 459.1 983.1 379
M 759.1 459.1
L 759.1 539.1
M 535.1 379
L 535.1 459.1 567.15 459.1 648.1 459.1 759.1 459.1
M 983.1 459.1
L 1068.1 459.1 1208.2 459.1
M 983.1 459.1
L 983.1 539.1
M 88.05 459.1
L 228.1 459.1 311.1 459.1 311.1 379
M 535.1 539.1
L 535.1 459.1 508.1 459.1 368.1 459.1 311.1 459.1 311.1 539.1"/>

<path id="sdvsdvsdb_0_Layer0_1_1_STROKES" stroke="#E50182" stroke-width="2" stroke-linejoin="round" stroke-linecap="round" fill="none" d="
M 443 382.35
Q 449.08203125 377.43125 457.2 373 489.45 355.45 535 355.45 580.55 355.45 612.75 373 624.25 379.25 631.65 386.45"/>

<path id="Layer0_5_1_STROKES" stroke="#1E1E1E" stroke-width="3" stroke-linejoin="miter" stroke-linecap="butt" stroke-miterlimit="3" fill="none" d="
M 738.55 290.65
L 779.9 290.65
M 514.55 290.65
L 555.9 290.65
M 290.55 290.65
L 331.9 290.65"/>
</defs>

<g transform="matrix( 1, 0, 0, 1, 0,0) ">
<use xlink:href="#Layer0_0_FILL"/>

<use xlink:href="#Layer0_0_1_STROKES"/>

<use xlink:href="#Layer0_0_2_STROKES"/>
</g>

<g transform="matrix( 1, 0, 0, 1, 534.15,351.3) ">
<g transform="matrix( 0.4294891357421875, -0.9030609130859375, 0.9030609130859375, 0.4294891357421875, -63.05,16.65) ">
<use xlink:href="#sdvsdvsdb_0_Layer0_0_FILL"/>
</g>

<g transform="matrix( 1, 0, 0, 1, -534.15,-371.3) ">
<use xlink:href="#sdvsdvsdb_0_Layer0_1_1_STROKES"/>
</g>
</g>

<g transform="matrix( 1, 0, 0, 1, 314.15,351.3) ">
<g transform="matrix( 0.4294891357421875, -0.9030609130859375, 0.9030609130859375, 0.4294891357421875, -63.05,16.65) ">
<use xlink:href="#sdvsdvsdb_0_Layer0_0_FILL"/>
</g>

<g transform="matrix( 1, 0, 0, 1, -534.15,-371.3) ">
<use xlink:href="#sdvsdvsdb_0_Layer0_1_1_STROKES"/>
</g>
</g>

<g transform="matrix( 1, 0, 0, 1, 754.15,351.3) ">
<g transform="matrix( 0.4294891357421875, -0.9030609130859375, 0.9030609130859375, 0.4294891357421875, -63.05,16.65) ">
<use xlink:href="#sdvsdvsdb_0_Layer0_0_FILL"/>
</g>

<g transform="matrix( 1, 0, 0, 1, -534.15,-371.3) ">
<use xlink:href="#sdvsdvsdb_0_Layer0_1_1_STROKES"/>
</g>
</g>

<g transform="matrix( -1, 0, 0, 1, 985.15,351.3) ">
<g transform="matrix( 0.4294891357421875, -0.9030609130859375, 0.9030609130859375, 0.4294891357421875, -63.05,16.65) ">
<use xlink:href="#sdvsdvsdb_0_Layer0_0_FILL"/>
</g>

<g transform="matrix( 1, 0, 0, 1, -534.15,-371.3) ">
<use xlink:href="#sdvsdvsdb_0_Layer0_1_1_STROKES"/>
</g>
</g>

<g transform="matrix( 1, 0, 0, 1, 0,0) ">
<use xlink:href="#Layer0_5_FILL"/>

<use xlink:href="#Layer0_5_1_STROKES"/>
</g>
</svg>
