<svg xmlns="http://www.w3.org/2000/svg" xmlns:xlink="http://www.w3.org/1999/xlink" viewBox="0 0 369.3 85.84"><defs><style>.cls-1,.cls-4{fill:none;}.cls-2{fill:#d7e7af;}.cls-3{clip-path:url(#clip-path);}.cls-4{stroke:#007e35;stroke-linejoin:bevel;stroke-width:0.8px;}.cls-5{fill:#231815;}</style><clipPath id="clip-path" transform="translate(0)"><rect class="cls-1" width="369.3" height="85.84"/></clipPath></defs><title>자산 2</title><g id="레이어_2" data-name="레이어 2"><g id="레이어_1-2" data-name="레이어 1"><rect class="cls-2" x="0.4" y="0.4" width="368.5" height="85.04"/><g class="cls-3"><path class="cls-4" d="M106.73,85.44,54.24.4m109.16,85L110.9.4m134.5,85V.4m85.5,85V.4m38,85H.4V.4H368.9Z" transform="translate(0)"/><path class="cls-5" d="M41.88,38.1v11h.88V43.6h1.72v-.8H42.76V38.1Zm-7.1,1.3v.77H38.7a9.22,9.22,0,0,1-.4,1.74,7.29,7.29,0,0,1-1,2,7,7,0,0,1-1.47,1.55,10,10,0,0,1-1.66,1.09l.68.56a9.56,9.56,0,0,0,3.29-2.93,7.75,7.75,0,0,0,1.16-2.42,12.5,12.5,0,0,0,.44-2.38Z" transform="translate(0)"/><path class="cls-5" d="M114.93,42.41h-1.71V38.1h-.89v11h.89V43.21h1.71Zm-3.36,2.73c-.4.09-.94.17-1.63.27a16.78,16.78,0,0,1-1.84.16l-2,0V39.15h-.89V46.4l2.84,0a14.73,14.73,0,0,0,2-.18l1.56-.24Z" transform="translate(0)"/><path class="cls-5" d="M199.91,42.57h-1.68V38.1h-.89v11h.89V43.37h1.68Zm-3.33,2.84c-.25.05-.69.11-1.32.17a15.75,15.75,0,0,1-1.74.12l-2.32,0V40.22h4.22v-.78h-5.1v7.07h1c.62,0,1.27,0,1.92,0s1.36-.06,2-.13,1.08-.12,1.33-.17Z" transform="translate(0)"/><path class="cls-5" d="M291.5,38.1v11h.89V43.45h1.68v-.81h-1.68V38.1Zm-.76,7.67c-.31,0-.81.11-1.49.17s-1.3.11-1.85.12l-2.16,0v-2.7h4V39.22h-4.92V40h4v2.62h-4v4.25h1l1.93,0c.61,0,1.26-.06,1.94-.12s1.21-.13,1.54-.19Z" transform="translate(0)"/><path class="cls-5" d="M347.68,40.28h3.26V45.9h-3.26Zm8.93,2.2H354.9V38.1H354v11h.88V43.3h1.71Zm-4.79-3h-5v7.16h5Z" transform="translate(0)"/></g></g></g></svg>