
<svg xmlns="http://www.w3.org/2000/svg" version="1.1" xmlns:xlink="http://www.w3.org/1999/xlink" preserveAspectRatio="none" x="0px" y="0px" width="1280px" height="720px" viewBox="0 0 1280 720">
<defs>
<g id="Layer0_0_FILL">
<path fill="#FFFFFF" stroke="none" d="
M 975.15 556.9
L 975.15 586.95
Q 975.15 601.95 990.15 601.95
L 1100.15 601.95
Q 1108.5 601.95 1112.2 597.3 1115.15 593.6 1115.15 586.95
L 1115.15 556.9
Q 1115.15 550.25 1112.2 546.55 1108.5 541.9 1100.15 541.9
L 990.15 541.9
Q 975.15 541.9 975.15 556.9 Z"/>

<path fill="#1E1E1E" stroke="none" d="
M 1140.4 562.4
Q 1140.35 564.35 1139.5 566.7 1138.65 569 1137.1 571.3 1135.6 573.55 1133.4 575.7 1131.2 577.85 1128.5 579.5 1128.3 579.65 1128.15 579.95 1128 580.25 1128.25 580.6
L 1129.85 582.85
Q 1130.05 583.1 1130.4 583.05 1130.7 583 1131.05 582.85 1134.15 580.8 1136.75 578.3 1139.3 575.8 1141.1 572.9 1142.9 570 1143.9 566.75 1144.9 563.55 1144.95 560.05 1145 558.5 1144.4 557.85 1143.75 557.2 1142 557.2
L 1130.4 557.2
Q 1130.2 557.2 1130 557.35 1129.8 557.5 1129.8 557.7
L 1129.8 560.45
Q 1129.8 560.95 1130.4 560.95
L 1139.25 560.95
Q 1140.05 560.95 1140.25 561.25 1140.45 561.55 1140.4 562.4
M 1156.5 554.6
L 1156.5 568.75 1152.8 568.75 1152.8 555.3
Q 1152.8 554.8 1152.25 554.8
L 1149 554.8
Q 1148.45 554.8 1148.45 555.3
L 1148.45 590
Q 1148.45 590.55 1149 590.55
L 1152.25 590.55
Q 1152.8 590.55 1152.8 590
L 1152.8 572.6 1156.5 572.6 1156.5 591.5
Q 1156.5 592.05 1157 592.05
L 1160.5 592.05
Q 1161.05 592.05 1161.05 591.5
L 1161.05 554.6
Q 1161.05 554.05 1160.5 554.05
L 1157.05 554.05
Q 1156.5 554.05 1156.5 554.6 Z"/>
</g>

<path id="Layer0_0_1_STROKES" stroke="#DBDBDB" stroke-width="3" stroke-linejoin="round" stroke-linecap="round" fill="none" d="
M 1100.15 541.9
Q 1108.5 541.9 1112.2 546.55 1115.15 550.25 1115.15 556.9
L 1115.15 586.95
Q 1115.15 593.6 1112.2 597.3 1108.5 601.95 1100.15 601.95
L 990.15 601.95
Q 975.15 601.95 975.15 586.95
L 975.15 556.9
Q 975.15 541.9 990.15 541.9
L 1100.15 541.9 Z"/>
</defs>

<g transform="matrix( 1, 0, 0, 1, 0,0) ">
<use xlink:href="#Layer0_0_FILL"/>

<use xlink:href="#Layer0_0_1_STROKES"/>
</g>
</svg>
