
<svg xmlns="http://www.w3.org/2000/svg" version="1.1" xmlns:xlink="http://www.w3.org/1999/xlink" preserveAspectRatio="none" x="0px" y="0px" width="1280px" height="720px" viewBox="0 0 1280 720">
<defs>
<filter id="Filter_1" x="-20%" y="-20%" width="140%" height="140%" color-interpolation-filters="sRGB">
<feColorMatrix in="SourceGraphic" type="matrix" values="0 0 0 0 0.9411764705882353 0 0 0 0 0.3843137254901961 0 0 0 0 0.5725490196078431 0 0 0 1 0" result="result1"/>
</filter>

<g id="Layer0_0_FILL">
<path fill="#FFFFFF" stroke="none" d="
M 809.9 485.85
L 809.9 455.8
Q 809.9 440.8 794.9 440.8
L 664.9 440.8
Q 649.9 440.8 649.9 455.8
L 649.9 485.85
Q 649.9 500.85 664.9 500.85
L 794.9 500.85
Q 809.9 500.85 809.9 485.85
M 664.9 350.8
Q 649.9 350.8 649.9 365.8
L 649.9 395.85
Q 649.9 410.85 664.9 410.85
L 794.9 410.85
Q 809.9 410.85 809.9 395.85
L 809.9 365.8
Q 809.9 350.8 794.9 350.8
L 664.9 350.8 Z"/>

<path fill="#1E1E1E" stroke="none" d="
M 1155.15 488.4
Q 1156.05 489.3 1157.35 489.3 1158.6 489.3 1159.5 488.4 1160.35 487.5 1160.35 486.2 1160.35 484.9 1159.5 484.05 1158.6 483.15 1157.35 483.15 1156.05 483.15 1155.15 484.05 1154.25 484.9 1154.25 486.2 1154.25 487.5 1155.15 488.4
M 1135.55 456.55
Q 1135.55 456 1135 456
L 1120.45 456
Q 1118.95 456 1118.4 456.55 1117.8 457.15 1117.8 458.55
L 1117.8 477.5
Q 1117.8 478.95 1118.5 479.5 1119.2 480.1 1120.7 480.2 1122.35 480.3 1124.75 480.2 1127.15 480.15 1129.7 479.9 1132.25 479.7 1134.6 479.35 1137 478.95 1138.6 478.5 1138.8 478.4 1139 478.25 1139.15 478.15 1139.1 477.7
L 1138.65 475.35
Q 1138.5 474.75 1137.9 474.9 1136.1 475.2 1134.15 475.5 1132.1 475.75 1130.2 475.95 1128.3 476.15 1126.55 476.2 1124.85 476.3 1123.6 476.15 1122.85 476.1 1122.6 475.9 1122.4 475.7 1122.4 475.1
L 1122.4 460.55
Q 1122.4 459.85 1123.1 459.85
L 1135 459.85
Q 1135.55 459.85 1135.55 459.35
L 1135.55 456.55
M 1145.7 453.55
Q 1145.7 453 1145.15 453
L 1141.6 453
Q 1141.1 453 1141.1 453.55
L 1141.1 490.45
Q 1141.1 491 1141.6 491
L 1145.15 491
Q 1145.7 491 1145.7 490.45
L 1145.7 471.5 1151.1 471.5
Q 1151.3 471.5 1151.5 471.35 1151.7 471.15 1151.7 470.95
L 1151.7 468.15
Q 1151.7 467.95 1151.5 467.8 1151.3 467.65 1151.1 467.65
L 1145.7 467.65 1145.7 453.55
M 1106.7 453
Q 1106.15 453 1106.15 453.55
L 1106.15 490.45
Q 1106.15 491 1106.7 491
L 1110.25 491
Q 1110.75 491 1110.75 490.45
L 1110.75 453.55
Q 1110.75 453 1110.25 453
L 1106.7 453
M 1086.7 455.9
Q 1086.7 455.7 1086.5 455.5 1086.3 455.35 1086.1 455.35
L 1082.65 455.35
Q 1082.45 455.35 1082.25 455.5 1082.1 455.7 1082.1 455.9
L 1082.1 476.75
Q 1082.1 478.1 1082.75 478.9 1083.45 479.7 1085 479.75 1087.2 479.9 1089.6 479.85 1092.05 479.75 1094.4 479.6 1096.75 479.4 1098.95 479.1 1101.15 478.75 1102.9 478.3 1103.25 478.2 1103.45 477.95 1103.7 477.75 1103.6 477.45
L 1103.1 475.25
Q 1103.05 474.95 1102.85 474.75 1102.7 474.55 1102.25 474.6 1098.15 475.45 1094.4 475.75 1090.65 476.05 1087.45 475.85 1087 475.8 1086.85 475.7 1086.7 475.6 1086.7 475.2
L 1086.7 455.9
M 1069.7 475.05
Q 1069.5 475.05 1069.35 475.2 1069.2 475.35 1069.2 475.55
L 1069.2 479.4 1055.1 479.4 1055.1 475.7
Q 1055.1 475.55 1054.9 475.4 1054.7 475.25 1054.5 475.25
L 1051 475.25
Q 1050.8 475.25 1050.65 475.4 1050.5 475.55 1050.5 475.7
L 1050.5 487.6
Q 1050.5 489.15 1051.1 489.75 1051.75 490.35 1053.5 490.35
L 1070.8 490.35
Q 1072.55 490.35 1073.15 489.7 1073.8 489.05 1073.8 487.7
L 1073.8 475.55
Q 1073.8 475.35 1073.65 475.2 1073.5 475.05 1073.3 475.05
L 1069.7 475.05
M 1055.1 485.95
L 1055.1 483.15 1069.2 483.15 1069.2 485.95
Q 1069.2 486.6 1068.5 486.6
L 1055.8 486.6
Q 1055.1 486.6 1055.1 485.95
M 1057.8 454.85
Q 1056.05 454.1 1053.9 454.1 1051.75 454.1 1049.95 454.85 1048.15 455.55 1046.9 456.8 1045.65 458.05 1044.95 459.7 1044.3 461.35 1044.3 463.15 1044.3 464.9 1044.95 466.5 1045.65 468.15 1046.9 469.4 1048.15 470.6 1049.95 471.35 1051.75 472.1 1053.9 472.1 1056.05 472.1 1057.8 471.35 1059.6 470.6 1060.85 469.4 1062.1 468.15 1062.8 466.5 1063.5 464.9 1063.5 463.15 1063.5 461.35 1062.8 459.7 1062.1 458.05 1060.85 456.8 1059.6 455.55 1057.8 454.85
M 1059.15 463.15
Q 1059.15 464.15 1058.75 465.1 1058.35 466.05 1057.65 466.8 1056.95 467.5 1056 467.9 1055.05 468.3 1053.9 468.3 1052.7 468.3 1051.75 467.9 1050.8 467.5 1050.15 466.8 1049.45 466.05 1049.05 465.1 1048.7 464.15 1048.7 463.15 1048.7 462.1 1049.05 461.15 1049.45 460.2 1050.15 459.45 1050.8 458.75 1051.75 458.3 1052.7 457.85 1053.9 457.85 1055.05 457.85 1056 458.3 1056.95 458.75 1057.65 459.45 1058.35 460.2 1058.75 461.15 1059.15 462.1 1059.15 463.15
M 1073.8 453.55
Q 1073.8 453 1073.3 453
L 1069.7 453
Q 1069.2 453 1069.2 453.55
L 1069.2 472.65
Q 1069.2 473.2 1069.7 473.2
L 1073.3 473.2
Q 1073.8 473.2 1073.8 472.65
L 1073.8 453.55
M 1005.5 473.4
Q 1005.35 473.6 1005.35 473.8
L 1005.35 476.4
Q 1005.35 476.6 1005.5 476.85 1005.65 477.05 1005.95 477.05
L 1021 477.05 1021 490.15
Q 1021 490.7 1021.55 490.7
L 1025.05 490.7
Q 1025.6 490.7 1025.6 490.15
L 1025.6 477.05 1040.75 477.05
Q 1040.95 477.05 1041.15 476.85 1041.35 476.6 1041.35 476.4
L 1041.35 473.8
Q 1041.35 473.6 1041.15 473.4 1040.95 473.2 1040.75 473.2
L 1005.95 473.2
Q 1005.65 473.2 1005.5 473.4
M 1007.95 466.25
Q 1007.85 466.55 1007.95 466.8
L 1009.35 469.4
Q 1009.45 469.55 1009.7 469.6 1010 469.6 1010.3 469.55 1014.85 468.35 1018.3 466.2 1021.75 464 1023.65 460.95 1024.5 462.35 1025.95 463.6 1027.4 464.9 1029.15 466 1030.95 467.05 1032.9 467.85 1034.85 468.6 1036.8 468.95 1037.45 469.1 1037.65 468.6
L 1038.85 465.95
Q 1038.95 465.65 1038.8 465.45 1038.65 465.25 1038.35 465.2 1036.2 464.65 1034.15 463.75 1032.1 462.85 1030.4 461.6 1028.7 460.4 1027.4 458.95 1026.15 457.5 1025.6 455.85 1025.75 454.85 1025.85 453.65 1025.85 453 1025.3 453
L 1021.9 452.9
Q 1021.6 452.9 1021.4 453.1 1021.25 453.3 1021.2 453.6 1020.95 456.1 1020 458.05 1019.05 459.95 1017.4 461.45 1015.75 462.95 1013.5 464.05 1011.25 465.15 1008.4 465.95 1008.1 466 1007.95 466.25
M 968.7 478.5
Q 968.7 478.3 968.55 478.1 968.35 477.95 968.1 477.95
L 964.7 477.95
Q 964.5 477.95 964.3 478.1 964.15 478.3 964.15 478.5
L 964.15 487.2
Q 964.15 488.75 964.75 489.45 965.35 490.1 967.15 490.1
L 989.6 490.1
Q 989.85 490.1 990.05 489.95 990.2 489.85 990.2 489.6
L 990.2 486.75
Q 990.2 486.55 990 486.4 989.8 486.25 989.6 486.25
L 969.5 486.25
Q 969.05 486.25 968.85 486.15 968.7 486 968.7 485.6
L 968.7 478.5
M 964.4 457.55
Q 964.6 457.7 964.8 457.7
L 984 457.7
Q 984.55 457.7 984.8 457.85 985.1 457.95 985.1 458.55 985.1 459.75 984.95 461.95 983.1 462.05 980.75 462.1 978.35 462.15 975.65 462.15 973 462.15 970.2 462.2 967.45 462.2 964.9 462.2 964.35 462.2 964.35 462.8
L 964.35 465.45
Q 964.35 465.7 964.5 465.85 964.7 466.05 964.9 466.05 967.3 466.05 969.95 466.05 972.55 466 975.05 466 977.6 465.95 980.05 465.85 982.55 465.8 984.7 465.7 984.55 467.2 984.4 468.6 984.3 470 984.1 470.85
L 959.15 470.85
Q 958.85 470.85 958.7 471.05 958.55 471.25 958.55 471.5
L 958.55 474.1
Q 958.55 474.3 958.7 474.5 958.85 474.7 959.15 474.7
L 993.95 474.7
Q 994.15 474.7 994.35 474.5 994.55 474.3 994.55 474.1
L 994.55 471.5
Q 994.55 471.3 994.35 471.1 994.15 470.85 993.95 470.85
L 988.35 470.85
Q 988.65 469.4 988.85 467.4 989.1 465.35 989.25 463.3 989.4 461.3 989.5 459.5 989.55 457.75 989.55 456.8 989.55 455.3 988.85 454.6 988.2 453.95 986.9 453.95
L 964.8 453.95
Q 964.6 453.95 964.4 454.05 964.2 454.15 964.2 454.4
L 964.2 457.2
Q 964.2 457.4 964.4 457.55
M 915.65 456.55
Q 915.1 457.15 915.1 458.55
L 915.1 477.5
Q 915.1 478.95 915.8 479.5 916.5 480.1 917.95 480.2 919.6 480.3 922 480.25 924.45 480.2 927 479.95 929.5 479.75 931.9 479.45 934.3 479.1 935.9 478.6 936.1 478.55 936.25 478.4 936.45 478.25 936.35 477.8
L 935.95 475.55
Q 935.85 474.9 935.25 475.1 933.45 475.4 931.45 475.65 929.45 475.9 927.5 476.05 925.55 476.2 923.85 476.25 922.1 476.3 920.9 476.2 920.1 476.15 919.9 475.95 919.65 475.75 919.65 475.15
L 919.65 460.55
Q 919.65 459.85 920.4 459.85
L 931.9 459.85
Q 932.45 459.85 932.45 459.35
L 932.45 456.55
Q 932.45 456 931.9 456
L 917.75 456
Q 916.25 456 915.65 456.55
M 930.5 465.4
Q 930.35 465.4 930.15 465.55 929.95 465.7 929.95 466
L 929.95 468.6
Q 929.95 468.95 930.15 469.1 930.35 469.25 930.5 469.25
L 940 469.25 940 490.45
Q 940 491 940.5 491
L 944.1 491
Q 944.6 491 944.6 490.45
L 944.6 453.55
Q 944.6 453 944.1 453
L 940.5 453
Q 940 453 940 453.55
L 940 465.4 930.5 465.4
M 895.2 487.5
L 895.2 479.75
Q 895.2 478.15 894.55 477.5 893.95 476.9 892.15 476.9
L 873.65 476.9
Q 872.15 476.9 871.4 477.55 870.65 478.2 870.65 479.75
L 870.65 487.5
Q 870.65 489.05 871.25 489.65 871.9 490.3 873.65 490.3
L 892.15 490.3
Q 893.65 490.3 894.4 489.65 895.2 489 895.2 487.5
M 890.05 480.7
Q 890.6 480.7 890.6 481.4
L 890.6 485.95
Q 890.6 486.3 890.5 486.35 890.4 486.45 890.05 486.45
L 875.75 486.45
Q 875.45 486.45 875.35 486.35 875.25 486.3 875.25 485.95
L 875.25 481.35
Q 875.25 481 875.35 480.85 875.45 480.7 875.75 480.7
L 890.05 480.7
M 895.95 456.65
Q 895.95 455.2 895.25 454.5 894.6 453.85 893.3 453.85
L 871.35 453.85
Q 871.1 453.85 870.9 453.95 870.7 454.1 870.7 454.35
L 870.7 457.05
Q 870.7 457.25 870.9 457.4 871.1 457.5 871.35 457.5
L 890.4 457.5
Q 890.95 457.5 891.2 457.7 891.5 457.8 891.5 458.35 891.5 459.05 891.45 459.7 891.45 460.35 891.4 461.15 889.55 461.25 887.15 461.3 884.75 461.35 882.15 461.35 879.45 461.35 876.7 461.4 873.95 461.4 871.4 461.4 870.9 461.4 870.9 461.95
L 870.9 464.45
Q 870.9 464.7 871.05 464.9 871.2 465.1 871.4 465.1 873.9 465.1 876.45 465.1 879.05 465.05 881.6 465 884.1 464.95 886.55 464.9 889 464.8 891.15 464.7 891.05 466 890.9 467.1 890.75 468.25 890.55 469.15
L 865.55 469.15
Q 865.25 469.15 865.1 469.35 864.95 469.55 864.95 469.75
L 864.95 472.35
Q 864.95 472.6 865.1 472.8 865.25 472.95 865.55 472.95
L 900.35 472.95
Q 900.55 472.95 900.75 472.8 900.95 472.6 900.95 472.35
L 900.95 469.75
Q 900.95 469.55 900.75 469.4 900.55 469.15 900.35 469.15
L 894.8 469.15
Q 895.1 467.7 895.3 465.95 895.55 464.15 895.7 462.4 895.85 460.7 895.9 459.15 895.95 457.6 895.95 456.65
M 854.8 453
Q 854.3 453 854.3 453.55
L 854.3 479.45
Q 854.3 479.95 854.8 479.95
L 858.35 479.95
Q 858.9 479.95 858.9 479.45
L 858.9 468.9 864.3 468.9
Q 864.5 468.9 864.7 468.75 864.9 468.6 864.9 468.35
L 864.9 465.55
Q 864.9 465.35 864.7 465.2 864.5 465.05 864.3 465.05
L 858.9 465.05 858.9 453.55
Q 858.9 453 858.35 453
L 854.8 453
M 840.3 478.65
Q 840.3 478.45 840.1 478.25 839.9 478.1 839.7 478.1
L 836.25 478.1
Q 836.05 478.1 835.85 478.25 835.7 478.45 835.7 478.65
L 835.7 487.45
Q 835.7 489 836.3 489.65 836.9 490.3 838.7 490.3
L 859.9 490.3
Q 860.1 490.3 860.25 490.2 860.45 490.05 860.45 489.8
L 860.45 486.95
Q 860.45 486.8 860.25 486.6 860.1 486.45 859.9 486.45
L 841 486.45
Q 840.6 486.45 840.45 486.35 840.3 486.2 840.3 485.8
L 840.3 478.65
M 848.4 455.65
Q 847.75 455.05 846.25 455.05
L 834.25 455.05
Q 832.7 455.05 832.1 455.65 831.5 456.2 831.5 457.75
L 831.5 470.95
Q 831.5 472.45 832.15 473.05 832.85 473.65 834.25 473.65
L 846.25 473.65
Q 847.75 473.65 848.4 473.05 849 472.45 849 470.95
L 849 457.8
Q 849 456.25 848.4 455.65
M 836.55 469.9
Q 836.25 469.9 836.15 469.8 836.05 469.75 836.05 469.4
L 836.05 459.3
Q 836.05 458.95 836.15 458.9 836.25 458.8 836.55 458.8
L 843.95 458.8
Q 844.25 458.8 844.35 458.9 844.45 459 844.45 459.35
L 844.45 469.4
Q 844.45 469.75 844.35 469.8 844.25 469.9 843.95 469.9
L 836.55 469.9
M 634.7 468.15
Q 634.7 467.95 634.5 467.8 634.3 467.65 634.1 467.65
L 628.7 467.65 628.7 453.55
Q 628.7 453 628.15 453
L 624.6 453
Q 624.1 453 624.1 453.55
L 624.1 490.45
Q 624.1 491 624.6 491
L 628.15 491
Q 628.7 491 628.7 490.45
L 628.7 471.5 634.1 471.5
Q 634.3 471.5 634.5 471.35 634.7 471.15 634.7 470.95
L 634.7 468.15
M 603.45 456
Q 601.95 456 601.4 456.55 600.8 457.15 600.8 458.55
L 600.8 477.5
Q 600.8 478.95 601.5 479.5 602.2 480.1 603.7 480.2 605.35 480.3 607.75 480.2 610.15 480.15 612.7 479.9 615.25 479.7 617.6 479.35 620 478.95 621.6 478.5 621.8 478.4 622 478.25 622.15 478.15 622.1 477.7
L 621.65 475.35
Q 621.5 474.75 620.9 474.9 619.1 475.2 617.15 475.5 615.1 475.75 613.2 475.95 611.3 476.15 609.55 476.2 607.85 476.3 606.6 476.15 605.85 476.1 605.6 475.9 605.4 475.7 605.4 475.1
L 605.4 460.55
Q 605.4 459.85 606.1 459.85
L 618 459.85
Q 618.55 459.85 618.55 459.35
L 618.55 456.55
Q 618.55 456 618 456
L 603.45 456
M 592.15 455.2
Q 592.15 454.95 592 454.8 591.85 454.65 591.65 454.65
L 588.1 454.65
Q 587.9 454.65 587.7 454.8 587.55 454.95 587.55 455.2
L 587.55 460.85 571.5 460.85 571.5 455.2
Q 571.5 455 571.3 454.85 571.1 454.75 570.9 454.75
L 567.4 454.75
Q 567.2 454.75 567.05 454.85 566.85 455 566.85 455.2
L 566.85 470.5
Q 566.85 472.15 567.5 472.75 568.15 473.3 569.9 473.3
L 577.25 473.3 577.25 480.65 562.15 480.65
Q 561.85 480.65 561.7 480.85 561.55 481.05 561.55 481.3
L 561.55 483.9
Q 561.55 484.1 561.7 484.3 561.85 484.5 562.15 484.5
L 596.95 484.5
Q 597.15 484.5 597.35 484.3 597.55 484.1 597.55 483.9
L 597.55 481.3
Q 597.55 481.1 597.35 480.85 597.15 480.65 596.95 480.65
L 581.85 480.65 581.85 473.3 589.15 473.3
Q 590.9 473.3 591.5 472.65 592.15 471.95 592.15 470.65
L 592.15 455.2
M 587.55 464.55
L 587.55 468.9
Q 587.55 469.55 586.85 469.55
L 572.2 469.55
Q 571.5 469.55 571.5 468.9
L 571.5 464.55 587.55 464.55
M 536.9 478.65
Q 536.9 478.45 536.7 478.25 536.5 478.1 536.3 478.1
L 532.85 478.1
Q 532.65 478.1 532.45 478.25 532.3 478.45 532.3 478.65
L 532.3 487.45
Q 532.3 489 532.9 489.65 533.5 490.3 535.3 490.3
L 556.5 490.3
Q 556.7 490.3 556.85 490.2 557.05 490.05 557.05 489.8
L 557.05 486.95
Q 557.05 486.8 556.85 486.6 556.7 486.45 556.5 486.45
L 537.6 486.45
Q 537.2 486.45 537.05 486.35 536.9 486.2 536.9 485.8
L 536.9 478.65
M 545 455.65
Q 544.35 455.05 542.85 455.05
L 530.85 455.05
Q 529.3 455.05 528.7 455.65 528.1 456.2 528.1 457.75
L 528.1 470.95
Q 528.1 472.45 528.75 473.05 529.45 473.65 530.85 473.65
L 542.85 473.65
Q 544.35 473.65 545 473.05 545.6 472.45 545.6 470.95
L 545.6 457.8
Q 545.6 456.25 545 455.65
M 533.15 469.9
Q 532.85 469.9 532.75 469.8 532.65 469.75 532.65 469.4
L 532.65 459.3
Q 532.65 458.95 532.75 458.9 532.85 458.8 533.15 458.8
L 540.55 458.8
Q 540.85 458.8 540.95 458.9 541.05 459 541.05 459.35
L 541.05 469.4
Q 541.05 469.75 540.95 469.8 540.85 469.9 540.55 469.9
L 533.15 469.9
M 551.4 453
Q 550.9 453 550.9 453.55
L 550.9 479.45
Q 550.9 479.95 551.4 479.95
L 554.95 479.95
Q 555.5 479.95 555.5 479.45
L 555.5 468.9 560.9 468.9
Q 561.1 468.9 561.3 468.75 561.5 468.6 561.5 468.35
L 561.5 465.55
Q 561.5 465.35 561.3 465.2 561.1 465.05 560.9 465.05
L 555.5 465.05 555.5 453.55
Q 555.5 453 554.95 453
L 551.4 453
M 513.25 456.15
Q 510.05 456.15 508.1 457.6 506.15 459.1 505.05 461.35 503.95 463.65 503.55 466.35 503.2 469.1 503.2 471.55 503.2 478.9 505.65 482.95 508.1 487 513.25 487 515.8 487 517.65 486 519.5 484.9 520.75 482.95 522 481 522.6 478.1 523.2 475.2 523.2 471.55 523.2 469.9 523 468.15 522.85 466.35 522.45 464.65 522.05 462.95 521.35 461.4 520.65 459.85 519.5 458.65 518.45 457.5 516.85 456.8 515.3 456.15 513.25 456.15
M 508.15 466.4
Q 508.5 464.3 509.25 462.95 509.95 461.65 510.95 461.1 511.95 460.5 513.25 460.5 514.45 460.5 515.5 461.1 516.5 461.65 517.25 462.95 517.95 464.3 518.35 466.4 518.7 468.55 518.7 471.55 518.7 474.65 518.35 476.8 517.95 478.9 517.25 480.2 516.5 481.55 515.5 482.1 514.45 482.7 513.25 482.7 511.95 482.7 510.95 482.1 509.95 481.55 509.25 480.2 508.5 478.9 508.15 476.8 507.75 474.65 507.75 471.55 507.75 468.55 508.15 466.4
M 493.6 456.8
Q 492.05 456.15 490 456.15 486.8 456.15 484.85 457.6 482.9 459.1 481.8 461.35 480.7 463.65 480.3 466.35 479.95 469.1 479.95 471.55 479.95 478.9 482.4 482.95 484.85 487 490 487 492.55 487 494.4 486 496.25 484.9 497.5 482.95 498.75 481 499.35 478.1 499.95 475.2 499.95 471.55 499.95 469.9 499.75 468.15 499.6 466.35 499.2 464.65 498.8 462.95 498.1 461.4 497.4 459.85 496.25 458.65 495.2 457.5 493.6 456.8
M 490 460.5
Q 491.2 460.5 492.25 461.1 493.25 461.65 494 462.95 494.7 464.3 495.1 466.4 495.45 468.55 495.45 471.55 495.45 474.65 495.1 476.8 494.7 478.9 494 480.2 493.25 481.55 492.25 482.1 491.2 482.7 490 482.7 488.7 482.7 487.7 482.1 486.7 481.55 486 480.2 485.25 478.9 484.9 476.8 484.5 474.65 484.5 471.55 484.5 468.55 484.9 466.4 485.25 464.3 486 462.95 486.7 461.65 487.7 461.1 488.7 460.5 490 460.5
M 473.9 459.6
Q 471.35 456.05 466.65 456.05 464.35 456.05 462.55 456.85 460.7 457.65 459.4 459.05 458.1 460.45 457.4 462.35 456.75 464.25 456.75 466.45 456.75 468.75 457.45 470.55 458.1 472.35 459.4 473.65 460.7 474.95 462.5 475.65 464.25 476.35 466.4 476.35 467.15 476.35 467.95 476.15 468.75 475.95 469.5 475.6 470.25 475.25 470.9 474.8 471.5 474.35 471.85 473.85 471.6 475.75 471 477.45 470.4 479.1 469.4 480.35 468.4 481.6 466.95 482.3 465.5 483 463.4 483 462 483 460.85 482.9 459.65 482.8 458.6 482.35 458.05 482.15 457.95 482.7
L 457.85 485.9
Q 457.8 486.3 458.15 486.4 459.1 486.75 460.5 486.95 461.95 487.15 463.1 487.15 466.8 487.15 469.35 485.8 471.95 484.5 473.5 482.25 475.1 480 475.8 477 476.45 473.95 476.45 470.6 476.45 463.15 473.9 459.6
M 471.4 464.05
Q 471.8 465.25 471.8 466.6 471.8 469.05 470.35 470.65 468.85 472.2 466.25 472.2 463.8 472.2 462.5 470.6 461.15 469 461.15 466.25 461.15 463.35 462.65 461.7 464.2 460 466.6 460 467.7 460 468.65 460.55 469.6 461.05 470.3 461.95 471 462.85 471.4 464.05
M 443.4 456.05
Q 441.1 456.05 439.3 456.85 437.45 457.65 436.15 459.05 434.85 460.45 434.15 462.35 433.5 464.25 433.5 466.45 433.5 468.75 434.2 470.55 434.85 472.35 436.15 473.65 437.45 474.95 439.25 475.65 441 476.35 443.15 476.35 443.9 476.35 444.7 476.15 445.5 475.95 446.25 475.6 447 475.25 447.65 474.8 448.25 474.35 448.6 473.85 448.35 475.75 447.75 477.45 447.15 479.1 446.15 480.35 445.15 481.6 443.7 482.3 442.25 483 440.15 483 438.75 483 437.6 482.9 436.4 482.8 435.35 482.35 434.8 482.15 434.7 482.7
L 434.6 485.9
Q 434.55 486.3 434.9 486.4 435.85 486.75 437.25 486.95 438.7 487.15 439.85 487.15 443.55 487.15 446.1 485.8 448.7 484.5 450.25 482.25 451.85 480 452.55 477 453.2 473.95 453.2 470.6 453.2 463.15 450.65 459.6 448.1 456.05 443.4 456.05
M 443.35 460
Q 444.45 460 445.4 460.55 446.35 461.05 447.05 461.95 447.75 462.85 448.15 464.05 448.55 465.25 448.55 466.6 448.55 469.05 447.1 470.65 445.6 472.2 443 472.2 440.55 472.2 439.25 470.6 437.9 469 437.9 466.25 437.9 463.35 439.4 461.7 440.95 460 443.35 460
M 1157.35 393.15
Q 1156.05 393.15 1155.15 394.05 1154.25 394.9 1154.25 396.2 1154.25 397.5 1155.15 398.4 1156.05 399.3 1157.35 399.3 1158.6 399.3 1159.5 398.4 1160.35 397.5 1160.35 396.2 1160.35 394.9 1159.5 394.05 1158.6 393.15 1157.35 393.15
M 1141.6 363
Q 1141.1 363 1141.1 363.55
L 1141.1 400.45
Q 1141.1 401 1141.6 401
L 1145.15 401
Q 1145.7 401 1145.7 400.45
L 1145.7 381.5 1151.1 381.5
Q 1151.3 381.5 1151.5 381.35 1151.7 381.15 1151.7 380.95
L 1151.7 378.15
Q 1151.7 377.95 1151.5 377.8 1151.3 377.65 1151.1 377.65
L 1145.7 377.65 1145.7 363.55
Q 1145.7 363 1145.15 363
L 1141.6 363
M 1122.4 370.55
Q 1122.4 369.85 1123.1 369.85
L 1135 369.85
Q 1135.55 369.85 1135.55 369.35
L 1135.55 366.55
Q 1135.55 366 1135 366
L 1120.45 366
Q 1118.95 366 1118.4 366.55 1117.8 367.15 1117.8 368.55
L 1117.8 387.5
Q 1117.8 388.95 1118.5 389.5 1119.2 390.1 1120.7 390.2 1122.35 390.3 1124.75 390.2 1127.15 390.15 1129.7 389.9 1132.25 389.7 1134.6 389.35 1137 388.95 1138.6 388.5 1138.8 388.4 1139 388.25 1139.15 388.15 1139.1 387.7
L 1138.65 385.35
Q 1138.5 384.75 1137.9 384.9 1136.1 385.2 1134.15 385.5 1132.1 385.75 1130.2 385.95 1128.3 386.15 1126.55 386.2 1124.85 386.3 1123.6 386.15 1122.85 386.1 1122.6 385.9 1122.4 385.7 1122.4 385.1
L 1122.4 370.55
M 1106.7 363
Q 1106.15 363 1106.15 363.55
L 1106.15 400.45
Q 1106.15 401 1106.7 401
L 1110.25 401
Q 1110.75 401 1110.75 400.45
L 1110.75 363.55
Q 1110.75 363 1110.25 363
L 1106.7 363
M 1086.7 365.9
Q 1086.7 365.7 1086.5 365.5 1086.3 365.35 1086.1 365.35
L 1082.65 365.35
Q 1082.45 365.35 1082.25 365.5 1082.1 365.7 1082.1 365.9
L 1082.1 386.75
Q 1082.1 388.1 1082.75 388.9 1083.45 389.7 1085 389.75 1087.2 389.9 1089.6 389.85 1092.05 389.75 1094.4 389.6 1096.75 389.4 1098.95 389.1 1101.15 388.75 1102.9 388.3 1103.25 388.2 1103.45 387.95 1103.7 387.75 1103.6 387.45
L 1103.1 385.25
Q 1103.05 384.95 1102.85 384.75 1102.7 384.55 1102.25 384.6 1098.15 385.45 1094.4 385.75 1090.65 386.05 1087.45 385.85 1087 385.8 1086.85 385.7 1086.7 385.6 1086.7 385.2
L 1086.7 365.9
M 1073.8 363.55
Q 1073.8 363 1073.3 363
L 1069.7 363
Q 1069.2 363 1069.2 363.55
L 1069.2 382.65
Q 1069.2 383.2 1069.7 383.2
L 1073.3 383.2
Q 1073.8 383.2 1073.8 382.65
L 1073.8 363.55
M 1051 385.25
Q 1050.8 385.25 1050.65 385.4 1050.5 385.55 1050.5 385.7
L 1050.5 397.6
Q 1050.5 399.15 1051.1 399.75 1051.75 400.35 1053.5 400.35
L 1070.8 400.35
Q 1072.55 400.35 1073.15 399.7 1073.8 399.05 1073.8 397.7
L 1073.8 385.55
Q 1073.8 385.35 1073.65 385.2 1073.5 385.05 1073.3 385.05
L 1069.7 385.05
Q 1069.5 385.05 1069.35 385.2 1069.2 385.35 1069.2 385.55
L 1069.2 389.4 1055.1 389.4 1055.1 385.7
Q 1055.1 385.55 1054.9 385.4 1054.7 385.25 1054.5 385.25
L 1051 385.25
M 1055.1 395.95
L 1055.1 393.15 1069.2 393.15 1069.2 395.95
Q 1069.2 396.6 1068.5 396.6
L 1055.8 396.6
Q 1055.1 396.6 1055.1 395.95
M 1049.95 364.85
Q 1048.15 365.55 1046.9 366.8 1045.65 368.05 1044.95 369.7 1044.3 371.35 1044.3 373.15 1044.3 374.9 1044.95 376.5 1045.65 378.15 1046.9 379.4 1048.15 380.6 1049.95 381.35 1051.75 382.1 1053.9 382.1 1056.05 382.1 1057.8 381.35 1059.6 380.6 1060.85 379.4 1062.1 378.15 1062.8 376.5 1063.5 374.9 1063.5 373.15 1063.5 371.35 1062.8 369.7 1062.1 368.05 1060.85 366.8 1059.6 365.55 1057.8 364.85 1056.05 364.1 1053.9 364.1 1051.75 364.1 1049.95 364.85
M 1050.15 369.45
Q 1050.8 368.75 1051.75 368.3 1052.7 367.85 1053.9 367.85 1055.05 367.85 1056 368.3 1056.95 368.75 1057.65 369.45 1058.35 370.2 1058.75 371.15 1059.15 372.1 1059.15 373.15 1059.15 374.15 1058.75 375.1 1058.35 376.05 1057.65 376.8 1056.95 377.5 1056 377.9 1055.05 378.3 1053.9 378.3 1052.7 378.3 1051.75 377.9 1050.8 377.5 1050.15 376.8 1049.45 376.05 1049.05 375.1 1048.7 374.15 1048.7 373.15 1048.7 372.1 1049.05 371.15 1049.45 370.2 1050.15 369.45
M 1005.95 383.2
Q 1005.65 383.2 1005.5 383.4 1005.35 383.6 1005.35 383.8
L 1005.35 386.4
Q 1005.35 386.6 1005.5 386.85 1005.65 387.05 1005.95 387.05
L 1021 387.05 1021 400.15
Q 1021 400.7 1021.55 400.7
L 1025.05 400.7
Q 1025.6 400.7 1025.6 400.15
L 1025.6 387.05 1040.75 387.05
Q 1040.95 387.05 1041.15 386.85 1041.35 386.6 1041.35 386.4
L 1041.35 383.8
Q 1041.35 383.6 1041.15 383.4 1040.95 383.2 1040.75 383.2
L 1005.95 383.2
M 1008.4 375.95
Q 1008.1 376 1007.95 376.25 1007.85 376.55 1007.95 376.8
L 1009.35 379.4
Q 1009.45 379.55 1009.7 379.6 1010 379.6 1010.3 379.55 1014.85 378.35 1018.3 376.2 1021.75 374 1023.65 370.95 1024.5 372.35 1025.95 373.6 1027.4 374.9 1029.15 376 1030.95 377.05 1032.9 377.85 1034.85 378.6 1036.8 378.95 1037.45 379.1 1037.65 378.6
L 1038.85 375.95
Q 1038.95 375.65 1038.8 375.45 1038.65 375.25 1038.35 375.2 1036.2 374.65 1034.15 373.75 1032.1 372.85 1030.4 371.6 1028.7 370.4 1027.4 368.95 1026.15 367.5 1025.6 365.85 1025.75 364.85 1025.85 363.65 1025.85 363 1025.3 363
L 1021.9 362.9
Q 1021.6 362.9 1021.4 363.1 1021.25 363.3 1021.2 363.6 1020.95 366.1 1020 368.05 1019.05 369.95 1017.4 371.45 1015.75 372.95 1013.5 374.05 1011.25 375.15 1008.4 375.95
M 968.7 395.6
L 968.7 388.5
Q 968.7 388.3 968.55 388.1 968.35 387.95 968.1 387.95
L 964.7 387.95
Q 964.5 387.95 964.3 388.1 964.15 388.3 964.15 388.5
L 964.15 397.2
Q 964.15 398.75 964.75 399.45 965.35 400.1 967.15 400.1
L 989.6 400.1
Q 989.85 400.1 990.05 399.95 990.2 399.85 990.2 399.6
L 990.2 396.75
Q 990.2 396.55 990 396.4 989.8 396.25 989.6 396.25
L 969.5 396.25
Q 969.05 396.25 968.85 396.15 968.7 396 968.7 395.6
M 984.8 367.85
Q 985.1 367.95 985.1 368.55 985.1 369.75 984.95 371.95 983.1 372.05 980.75 372.1 978.35 372.15 975.65 372.15 973 372.15 970.2 372.2 967.45 372.2 964.9 372.2 964.35 372.2 964.35 372.8
L 964.35 375.45
Q 964.35 375.7 964.5 375.85 964.7 376.05 964.9 376.05 967.3 376.05 969.95 376.05 972.55 376 975.05 376 977.6 375.95 980.05 375.85 982.55 375.8 984.7 375.7 984.55 377.2 984.4 378.6 984.3 380 984.1 380.85
L 959.15 380.85
Q 958.85 380.85 958.7 381.05 958.55 381.25 958.55 381.5
L 958.55 384.1
Q 958.55 384.3 958.7 384.5 958.85 384.7 959.15 384.7
L 993.95 384.7
Q 994.15 384.7 994.35 384.5 994.55 384.3 994.55 384.1
L 994.55 381.5
Q 994.55 381.3 994.35 381.1 994.15 380.85 993.95 380.85
L 988.35 380.85
Q 988.65 379.4 988.85 377.4 989.1 375.35 989.25 373.3 989.4 371.3 989.5 369.5 989.55 367.75 989.55 366.8 989.55 365.3 988.85 364.6 988.2 363.95 986.9 363.95
L 964.8 363.95
Q 964.6 363.95 964.4 364.05 964.2 364.15 964.2 364.4
L 964.2 367.2
Q 964.2 367.4 964.4 367.55 964.6 367.7 964.8 367.7
L 984 367.7
Q 984.55 367.7 984.8 367.85
M 930.15 379.1
Q 930.35 379.25 930.5 379.25
L 940 379.25 940 400.45
Q 940 401 940.5 401
L 944.1 401
Q 944.6 401 944.6 400.45
L 944.6 363.55
Q 944.6 363 944.1 363
L 940.5 363
Q 940 363 940 363.55
L 940 375.4 930.5 375.4
Q 930.35 375.4 930.15 375.55 929.95 375.7 929.95 376
L 929.95 378.6
Q 929.95 378.95 930.15 379.1
M 915.65 366.55
Q 915.1 367.15 915.1 368.55
L 915.1 387.5
Q 915.1 388.95 915.8 389.5 916.5 390.1 917.95 390.2 919.6 390.3 922 390.25 924.45 390.2 927 389.95 929.5 389.75 931.9 389.45 934.3 389.1 935.9 388.6 936.1 388.55 936.25 388.4 936.45 388.25 936.35 387.8
L 935.95 385.55
Q 935.85 384.9 935.25 385.1 933.45 385.4 931.45 385.65 929.45 385.9 927.5 386.05 925.55 386.2 923.85 386.25 922.1 386.3 920.9 386.2 920.1 386.15 919.9 385.95 919.65 385.75 919.65 385.15
L 919.65 370.55
Q 919.65 369.85 920.4 369.85
L 931.9 369.85
Q 932.45 369.85 932.45 369.35
L 932.45 366.55
Q 932.45 366 931.9 366
L 917.75 366
Q 916.25 366 915.65 366.55
M 873.65 386.9
Q 872.15 386.9 871.4 387.55 870.65 388.2 870.65 389.75
L 870.65 397.5
Q 870.65 399.05 871.25 399.65 871.9 400.3 873.65 400.3
L 892.15 400.3
Q 893.65 400.3 894.4 399.65 895.2 399 895.2 397.5
L 895.2 389.75
Q 895.2 388.15 894.55 387.5 893.95 386.9 892.15 386.9
L 873.65 386.9
M 875.25 395.95
L 875.25 391.35
Q 875.25 391 875.35 390.85 875.45 390.7 875.75 390.7
L 890.05 390.7
Q 890.6 390.7 890.6 391.4
L 890.6 395.95
Q 890.6 396.3 890.5 396.35 890.4 396.45 890.05 396.45
L 875.75 396.45
Q 875.45 396.45 875.35 396.35 875.25 396.3 875.25 395.95
M 871.35 367.5
L 890.4 367.5
Q 890.95 367.5 891.2 367.7 891.5 367.8 891.5 368.35 891.5 369.05 891.45 369.7 891.45 370.35 891.4 371.15 889.55 371.25 887.15 371.3 884.75 371.35 882.15 371.35 879.45 371.35 876.7 371.4 873.95 371.4 871.4 371.4 870.9 371.4 870.9 371.95
L 870.9 374.45
Q 870.9 374.7 871.05 374.9 871.2 375.1 871.4 375.1 873.9 375.1 876.45 375.1 879.05 375.05 881.6 375 884.1 374.95 886.55 374.9 889 374.8 891.15 374.7 891.05 376 890.9 377.1 890.75 378.25 890.55 379.15
L 865.55 379.15
Q 865.25 379.15 865.1 379.35 864.95 379.55 864.95 379.75
L 864.95 382.35
Q 864.95 382.6 865.1 382.8 865.25 382.95 865.55 382.95
L 900.35 382.95
Q 900.55 382.95 900.75 382.8 900.95 382.6 900.95 382.35
L 900.95 379.75
Q 900.95 379.55 900.75 379.4 900.55 379.15 900.35 379.15
L 894.8 379.15
Q 895.1 377.7 895.3 375.95 895.55 374.15 895.7 372.4 895.85 370.7 895.9 369.15 895.95 367.6 895.95 366.65 895.95 365.2 895.25 364.5 894.6 363.85 893.3 363.85
L 871.35 363.85
Q 871.1 363.85 870.9 363.95 870.7 364.1 870.7 364.35
L 870.7 367.05
Q 870.7 367.25 870.9 367.4 871.1 367.5 871.35 367.5
M 858.9 363.55
Q 858.9 363 858.35 363
L 854.8 363
Q 854.3 363 854.3 363.55
L 854.3 389.45
Q 854.3 389.95 854.8 389.95
L 858.35 389.95
Q 858.9 389.95 858.9 389.45
L 858.9 378.9 864.3 378.9
Q 864.5 378.9 864.7 378.75 864.9 378.6 864.9 378.35
L 864.9 375.55
Q 864.9 375.35 864.7 375.2 864.5 375.05 864.3 375.05
L 858.9 375.05 858.9 363.55
M 840.1 388.25
Q 839.9 388.1 839.7 388.1
L 836.25 388.1
Q 836.05 388.1 835.85 388.25 835.7 388.45 835.7 388.65
L 835.7 397.45
Q 835.7 399 836.3 399.65 836.9 400.3 838.7 400.3
L 859.9 400.3
Q 860.1 400.3 860.25 400.2 860.45 400.05 860.45 399.8
L 860.45 396.95
Q 860.45 396.8 860.25 396.6 860.1 396.45 859.9 396.45
L 841 396.45
Q 840.6 396.45 840.45 396.35 840.3 396.2 840.3 395.8
L 840.3 388.65
Q 840.3 388.45 840.1 388.25
M 834.25 365.05
Q 832.7 365.05 832.1 365.65 831.5 366.2 831.5 367.75
L 831.5 380.95
Q 831.5 382.45 832.15 383.05 832.85 383.65 834.25 383.65
L 846.25 383.65
Q 847.75 383.65 848.4 383.05 849 382.45 849 380.95
L 849 367.8
Q 849 366.25 848.4 365.65 847.75 365.05 846.25 365.05
L 834.25 365.05
M 836.05 369.3
Q 836.05 368.95 836.15 368.9 836.25 368.8 836.55 368.8
L 843.95 368.8
Q 844.25 368.8 844.35 368.9 844.45 369 844.45 369.35
L 844.45 379.4
Q 844.45 379.75 844.35 379.8 844.25 379.9 843.95 379.9
L 836.55 379.9
Q 836.25 379.9 836.15 379.8 836.05 379.75 836.05 379.4
L 836.05 369.3
M 628.7 363.55
Q 628.7 363 628.15 363
L 624.6 363
Q 624.1 363 624.1 363.55
L 624.1 400.45
Q 624.1 401 624.6 401
L 628.15 401
Q 628.7 401 628.7 400.45
L 628.7 381.5 634.1 381.5
Q 634.3 381.5 634.5 381.35 634.7 381.15 634.7 380.95
L 634.7 378.15
Q 634.7 377.95 634.5 377.8 634.3 377.65 634.1 377.65
L 628.7 377.65 628.7 363.55
M 601.4 366.55
Q 600.8 367.15 600.8 368.55
L 600.8 387.5
Q 600.8 388.95 601.5 389.5 602.2 390.1 603.7 390.2 605.35 390.3 607.75 390.2 610.15 390.15 612.7 389.9 615.25 389.7 617.6 389.35 620 388.95 621.6 388.5 621.8 388.4 622 388.25 622.15 388.15 622.1 387.7
L 621.65 385.35
Q 621.5 384.75 620.9 384.9 619.1 385.2 617.15 385.5 615.1 385.75 613.2 385.95 611.3 386.15 609.55 386.2 607.85 386.3 606.6 386.15 605.85 386.1 605.6 385.9 605.4 385.7 605.4 385.1
L 605.4 370.55
Q 605.4 369.85 606.1 369.85
L 618 369.85
Q 618.55 369.85 618.55 369.35
L 618.55 366.55
Q 618.55 366 618 366
L 603.45 366
Q 601.95 366 601.4 366.55
M 562.15 390.65
Q 561.85 390.65 561.7 390.85 561.55 391.05 561.55 391.3
L 561.55 393.9
Q 561.55 394.1 561.7 394.3 561.85 394.5 562.15 394.5
L 596.95 394.5
Q 597.15 394.5 597.35 394.3 597.55 394.1 597.55 393.9
L 597.55 391.3
Q 597.55 391.1 597.35 390.85 597.15 390.65 596.95 390.65
L 581.85 390.65 581.85 383.3 589.15 383.3
Q 590.9 383.3 591.5 382.65 592.15 381.95 592.15 380.65
L 592.15 365.2
Q 592.15 364.95 592 364.8 591.85 364.65 591.65 364.65
L 588.1 364.65
Q 587.9 364.65 587.7 364.8 587.55 364.95 587.55 365.2
L 587.55 370.85 571.5 370.85 571.5 365.2
Q 571.5 365 571.3 364.85 571.1 364.75 570.9 364.75
L 567.4 364.75
Q 567.2 364.75 567.05 364.85 566.85 365 566.85 365.2
L 566.85 380.5
Q 566.85 382.15 567.5 382.75 568.15 383.3 569.9 383.3
L 577.25 383.3 577.25 390.65 562.15 390.65
M 586.85 379.55
L 572.2 379.55
Q 571.5 379.55 571.5 378.9
L 571.5 374.55 587.55 374.55 587.55 378.9
Q 587.55 379.55 586.85 379.55
M 536.3 388.1
L 532.85 388.1
Q 532.65 388.1 532.45 388.25 532.3 388.45 532.3 388.65
L 532.3 397.45
Q 532.3 399 532.9 399.65 533.5 400.3 535.3 400.3
L 556.5 400.3
Q 556.7 400.3 556.85 400.2 557.05 400.05 557.05 399.8
L 557.05 396.95
Q 557.05 396.8 556.85 396.6 556.7 396.45 556.5 396.45
L 537.6 396.45
Q 537.2 396.45 537.05 396.35 536.9 396.2 536.9 395.8
L 536.9 388.65
Q 536.9 388.45 536.7 388.25 536.5 388.1 536.3 388.1
M 530.85 365.05
Q 529.3 365.05 528.7 365.65 528.1 366.2 528.1 367.75
L 528.1 380.95
Q 528.1 382.45 528.75 383.05 529.45 383.65 530.85 383.65
L 542.85 383.65
Q 544.35 383.65 545 383.05 545.6 382.45 545.6 380.95
L 545.6 367.8
Q 545.6 366.25 545 365.65 544.35 365.05 542.85 365.05
L 530.85 365.05
M 532.65 369.3
Q 532.65 368.95 532.75 368.9 532.85 368.8 533.15 368.8
L 540.55 368.8
Q 540.85 368.8 540.95 368.9 541.05 369 541.05 369.35
L 541.05 379.4
Q 541.05 379.75 540.95 379.8 540.85 379.9 540.55 379.9
L 533.15 379.9
Q 532.85 379.9 532.75 379.8 532.65 379.75 532.65 379.4
L 532.65 369.3
M 555.5 363.55
Q 555.5 363 554.95 363
L 551.4 363
Q 550.9 363 550.9 363.55
L 550.9 389.45
Q 550.9 389.95 551.4 389.95
L 554.95 389.95
Q 555.5 389.95 555.5 389.45
L 555.5 378.9 560.9 378.9
Q 561.1 378.9 561.3 378.75 561.5 378.6 561.5 378.35
L 561.5 375.55
Q 561.5 375.35 561.3 375.2 561.1 375.05 560.9 375.05
L 555.5 375.05 555.5 363.55
M 519.5 368.65
Q 518.45 367.5 516.85 366.8 515.3 366.15 513.25 366.15 510.05 366.15 508.1 367.6 506.15 369.1 505.05 371.35 503.95 373.65 503.55 376.35 503.2 379.1 503.2 381.55 503.2 388.9 505.65 392.95 508.1 397 513.25 397 515.8 397 517.65 396 519.5 394.9 520.75 392.95 522 391 522.6 388.1 523.2 385.2 523.2 381.55 523.2 379.9 523 378.15 522.85 376.35 522.45 374.65 522.05 372.95 521.35 371.4 520.65 369.85 519.5 368.65
M 510.95 371.1
Q 511.95 370.5 513.25 370.5 514.45 370.5 515.5 371.1 516.5 371.65 517.25 372.95 517.95 374.3 518.35 376.4 518.7 378.55 518.7 381.55 518.7 384.65 518.35 386.8 517.95 388.9 517.25 390.2 516.5 391.55 515.5 392.1 514.45 392.7 513.25 392.7 511.95 392.7 510.95 392.1 509.95 391.55 509.25 390.2 508.5 388.9 508.15 386.8 507.75 384.65 507.75 381.55 507.75 378.55 508.15 376.4 508.5 374.3 509.25 372.95 509.95 371.65 510.95 371.1
M 481.8 371.35
Q 480.7 373.65 480.3 376.35 479.95 379.1 479.95 381.55 479.95 388.9 482.4 392.95 484.85 397 490 397 492.55 397 494.4 396 496.25 394.9 497.5 392.95 498.75 391 499.35 388.1 499.95 385.2 499.95 381.55 499.95 379.9 499.75 378.15 499.6 376.35 499.2 374.65 498.8 372.95 498.1 371.4 497.4 369.85 496.25 368.65 495.2 367.5 493.6 366.8 492.05 366.15 490 366.15 486.8 366.15 484.85 367.6 482.9 369.1 481.8 371.35
M 484.5 381.55
Q 484.5 378.55 484.9 376.4 485.25 374.3 486 372.95 486.7 371.65 487.7 371.1 488.7 370.5 490 370.5 491.2 370.5 492.25 371.1 493.25 371.65 494 372.95 494.7 374.3 495.1 376.4 495.45 378.55 495.45 381.55 495.45 384.65 495.1 386.8 494.7 388.9 494 390.2 493.25 391.55 492.25 392.1 491.2 392.7 490 392.7 488.7 392.7 487.7 392.1 486.7 391.55 486 390.2 485.25 388.9 484.9 386.8 484.5 384.65 484.5 381.55
M 473 368.65
Q 471.95 367.5 470.35 366.8 468.8 366.15 466.75 366.15 463.55 366.15 461.6 367.6 459.65 369.1 458.55 371.35 457.45 373.65 457.05 376.35 456.7 379.1 456.7 381.55 456.7 388.9 459.15 392.95 461.6 397 466.75 397 469.3 397 471.15 396 473 394.9 474.25 392.95 475.5 391 476.1 388.1 476.7 385.2 476.7 381.55 476.7 379.9 476.5 378.15 476.35 376.35 475.95 374.65 475.55 372.95 474.85 371.4 474.15 369.85 473 368.65
M 466.75 370.5
Q 467.95 370.5 469 371.1 470 371.65 470.75 372.95 471.45 374.3 471.85 376.4 472.2 378.55 472.2 381.55 472.2 384.65 471.85 386.8 471.45 388.9 470.75 390.2 470 391.55 469 392.1 467.95 392.7 466.75 392.7 465.45 392.7 464.45 392.1 463.45 391.55 462.75 390.2 462 388.9 461.65 386.8 461.25 384.65 461.25 381.55 461.25 378.55 461.65 376.4 462 374.3 462.75 372.95 463.45 371.65 464.45 371.1 465.45 370.5 466.75 370.5
M 443.4 366.05
Q 441.1 366.05 439.3 366.85 437.45 367.65 436.15 369.05 434.85 370.45 434.15 372.35 433.5 374.25 433.5 376.45 433.5 378.75 434.2 380.55 434.85 382.35 436.15 383.65 437.45 384.95 439.25 385.65 441 386.35 443.15 386.35 443.9 386.35 444.7 386.15 445.5 385.95 446.25 385.6 447 385.25 447.65 384.8 448.25 384.35 448.6 383.85 448.35 385.75 447.75 387.45 447.15 389.1 446.15 390.35 445.15 391.6 443.7 392.3 442.25 393 440.15 393 438.75 393 437.6 392.9 436.4 392.8 435.35 392.35 434.8 392.15 434.7 392.7
L 434.6 395.9
Q 434.55 396.3 434.9 396.4 435.85 396.75 437.25 396.95 438.7 397.15 439.85 397.15 443.55 397.15 446.1 395.8 448.7 394.5 450.25 392.25 451.85 390 452.55 387 453.2 383.95 453.2 380.6 453.2 373.15 450.65 369.6 448.1 366.05 443.4 366.05
M 443.35 370
Q 444.45 370 445.4 370.55 446.35 371.05 447.05 371.95 447.75 372.85 448.15 374.05 448.55 375.25 448.55 376.6 448.55 379.05 447.1 380.65 445.6 382.2 443 382.2 440.55 382.2 439.25 380.6 437.9 379 437.9 376.25 437.9 373.35 439.4 371.7 440.95 370 443.35 370 Z"/>

<path fill="#F7ECB6" stroke="none" d="
M 135.7 383.3
Q 131.1 383.3 127.55 384.35 115.7 387.9 115.7 403.3
L 115.7 424.2 115.7 448.3
Q 115.7 463.7 127.55 467.25 131.1 468.3 135.7 468.3
L 163.2 468.3 241.8 468.3
Q 261.8 468.3 261.8 448.3
L 261.8 403.3
Q 261.8 383.3 241.8 383.3
L 163.9 383.3 163.2 383.3 135.7 383.3 Z"/>
</g>

<g id="Duplicate_Items_Folder_vsdvs434_0_Layer1_0_FILL">
<path fill="#000000" stroke="none" d="
M 7.5 -19.9
Q 5.25 -19.9 3.75 -18.3
L -11.15 -3.5
Q -12.75 -1.95 -12.75 0.25 -12.75 2.5 -11.15 4.1 -11.07734375 4.175 -11 4.25
L 3.35 18.55
Q 4.95 20.05 7.2 20.05 9.35 20.05 10.95 18.55 12.45 16.9 12.45 14.75 12.45 12.5 10.95 11
L 0.25 0.25 11.25 -10.8
Q 12.8 -12.4 12.8 -14.55 12.8 -16.8 11.25 -18.4 9.75 -19.9 7.5 -19.9 Z"/>
</g>

<g id="Duplicate_Items_Folder_vsdvs434_0_Layer0_0_FILL">
<path fill="#000000" stroke="none" d="
M 34.95 -4.35
Q 33.2 -6.1 30.65 -6.1
L 24.25 -6.1 23.1 -6.1 18.5 -6.1 17.35 -6.1 0.6 -6.1
Q -1.95 -6.1 -3.75 -4.35 -5.5 -2.55 -5.5 0
L -5.5 0.05
Q -5.5 2.6 -3.75 4.35 -1.95 6.15 0.6 6.15
L 17.35 6.15 18.5 6.15 23.1 6.15 24.25 6.15 30.65 6.15
Q 33.25 6.15 34.95 4.35 36.75 2.65 36.75 0.05
L 36.75 0
Q 36.75 -2.55 34.95 -4.35 Z"/>
</g>

<g id="Layer0_2_MEMBER_0_FILL">
<path fill="#FF7786" stroke="none" d="
M 10.75 -118.75
Q 10.75 -120.8 9.25 -122.25 7.85 -123.7 5.8 -123.7 3.75 -123.7 2.3 -122.25 0.85 -120.8 0.85 -118.75 0.85 -116.7 2.3 -115.3 3.75 -113.8 5.8 -113.8 7.85 -113.8 9.25 -115.3 10.75 -116.7 10.75 -118.75 Z"/>
</g>

<g id="Layer0_2_MEMBER_1_FILL">
<path fill="#FF7786" stroke="none" d="
M 10.75 -118.75
Q 10.75 -120.8 9.25 -122.25 7.85 -123.7 5.8 -123.7 3.75 -123.7 2.3 -122.25 0.85 -120.8 0.85 -118.75 0.85 -116.7 2.3 -115.3 3.75 -113.8 5.8 -113.8 7.85 -113.8 9.25 -115.3 10.75 -116.7 10.75 -118.75 Z"/>
</g>

<g id="Layer0_3_FILL">
<path fill="#1E1E1E" stroke="none" d="
M 215.05 432.5
Q 215.05 430.95 214.5 430.3 213.95 429.7 212.4 429.7
L 191.25 429.7
Q 191.05 429.7 190.85 429.8 190.65 429.9 190.65 430.2
L 190.65 433.05
Q 190.65 433.25 190.85 433.4 191.05 433.5 191.25 433.5
L 209.75 433.5
Q 210.15 433.5 210.3 433.65 210.45 433.75 210.45 434.2
L 210.45 443.3
Q 210.45 443.5 210.6 443.65 210.8 443.85 211.05 443.85
L 214.5 443.85
Q 214.7 443.85 214.85 443.65 215.05 443.5 215.05 443.3
L 215.05 432.5
M 215.05 406.5
Q 215.05 405.95 214.6 405.95
L 211.05 405.95
Q 210.85 405.95 210.65 406.1 210.45 406.25 210.45 406.5
L 210.45 414.75 204.35 414.75
Q 204.05 413.15 203.2 411.8 202.4 410.45 201.15 409.45 199.9 408.45 198.25 407.85 196.65 407.35 194.75 407.35 192.65 407.35 190.9 408.05 189.1 408.75 187.85 410 186.55 411.25 185.9 412.95 185.2 414.7 185.2 416.6 185.2 418.6 185.9 420.3 186.55 422 187.85 423.25 189.1 424.45 190.9 425.1 192.65 425.8 194.75 425.8 196.65 425.8 198.25 425.3 199.9 424.75 201.15 423.8 202.4 422.85 203.2 421.55 204.05 420.2 204.35 418.55
L 210.45 418.55 210.45 427.05
Q 210.45 427.6 211 427.6
L 214.55 427.6
Q 215.05 427.6 215.05 427.05
L 215.05 406.5
M 189.6 416.7
Q 189.6 414.3 191.05 412.85 192.5 411.45 194.75 411.45 197.15 411.45 198.55 412.85 200 414.3 200 416.7 200 419.1 198.55 420.55 197.15 421.95 194.75 421.95 192.5 421.95 191.05 420.55 189.6 419.1 189.6 416.7
M 170.7 409.35
Q 170.55 409.35 170.35 409.45 170.15 409.5 170.1 409.6
L 163.95 415.25
Q 163.75 415.45 163.75 415.65 163.7 415.9 163.85 416.05
L 165.65 418.2
Q 165.8 418.35 166.05 418.3 166.3 418.3 166.55 418.15
L 169.5 415.55 169.5 439.25
Q 169.5 439.75 170.05 439.75
L 173.25 439.75
Q 173.75 439.75 173.75 439.25
L 173.75 410.45
Q 173.75 409.65 173.6 409.5 173.5 409.35 172.8 409.35
L 170.7 409.35 Z"/>
</g>

<path id="Layer0_0_1_STROKES" stroke="#DBDBDB" stroke-width="3" stroke-linejoin="round" stroke-linecap="round" fill="none" d="
M 664.9 350.8
L 794.9 350.8
Q 809.9 350.8 809.9 365.8
L 809.9 395.85
Q 809.9 410.85 794.9 410.85
L 664.9 410.85
Q 649.9 410.85 649.9 395.85
L 649.9 365.8
Q 649.9 350.8 664.9 350.8 Z
M 664.9 440.8
L 794.9 440.8
Q 809.9 440.8 809.9 455.8
L 809.9 485.85
Q 809.9 500.85 794.9 500.85
L 664.9 500.85
Q 649.9 500.85 649.9 485.85
L 649.9 455.8
Q 649.9 440.8 664.9 440.8 Z"/>

<path id="Layer0_2_1_STROKES" stroke="#FF7786" stroke-width="3" stroke-linejoin="round" stroke-linecap="round" fill="none" d="
M 440.55 380.15
L 411.25 380.15 411.25 290.15 440.55 290.15"/>
</defs>

<g transform="matrix( 1, 0, 0, 1, 0,0) ">
<use xlink:href="#Layer0_0_FILL"/>

<use xlink:href="#Layer0_0_1_STROKES"/>
</g>

<g transform="matrix( -0.7999725341796875, 0, 0, -0.7999725341796875, 327,425.9) ">
<g transform="matrix( 1, 0, 0, 1, 0,0) ">
<use filter="url(#Filter_1)" xlink:href="#Duplicate_Items_Folder_vsdvs434_0_Layer1_0_FILL"/>
</g>

<g transform="matrix( 1, 0, 0, 1, 0,0) ">
<use filter="url(#Filter_1)" xlink:href="#Duplicate_Items_Folder_vsdvs434_0_Layer0_0_FILL"/>
</g>
</g>

<g transform="matrix( 1, 0, 0, 1, -40.45,88) ">
<use xlink:href="#Layer0_2_1_STROKES"/>
</g>

<g transform="matrix( 1, 0, 0, 1, 396.6,496.65) ">
<use xlink:href="#Layer0_2_MEMBER_0_FILL"/>
</g>

<g transform="matrix( 1, 0, 0, 1, 396.6,586.65) ">
<use xlink:href="#Layer0_2_MEMBER_1_FILL"/>
</g>

<g transform="matrix( 1, 0, 0, 1, 0,0) ">
<use xlink:href="#Layer0_3_FILL"/>
</g>
</svg>
