
<svg xmlns="http://www.w3.org/2000/svg" version="1.1" xmlns:xlink="http://www.w3.org/1999/xlink" preserveAspectRatio="none" x="0px" y="0px" width="1280px" height="720px" viewBox="0 0 1280 720">
<defs>
<g id="Layer0_0_FILL">
<path fill="#000000" stroke="none" d="
M 459.2 582.45
Q 458.6 582.95 458.6 584.95
L 458.6 596.45
Q 458.6 598.3 459.15 599.05 459.65 599.8 461.3 599.8
L 478.3 599.8
Q 478.7 599.8 478.8 599.65 478.95 599.5 478.95 598.85
L 478.95 595.5
Q 478.95 594.65 478.15 594.65
L 463.95 594.65
Q 463.6 594.65 463.6 594.1
L 463.6 587.5
Q 463.6 587 464 587
L 477.6 587
Q 478.3 587 478.3 586.1
L 478.3 582.8
Q 478.3 581.9 477.6 581.9
L 461.3 581.9
Q 459.85 581.9 459.2 582.45
M 420.9 473.5
Q 420.15 473.5 420.15 474.4
L 420.15 488
Q 420.15 488.95 420.25 489.6 420.4 490.2 420.65 490.55 420.9 490.9 421.4 491.1 421.9 491.25 422.65 491.25
L 439.65 491.25
Q 439.9 491.25 440.15 491.15 440.4 491.05 440.4 490.45
L 440.4 486.9
Q 440.4 486.45 440.15 486.25 439.9 486.1 439.65 486.1
L 425.7 486.1
Q 425.2 486.1 425.2 485.45
L 425.2 474.4
Q 425.2 473.5 424.4 473.5
L 420.9 473.5
M 756.85 581.5
Q 756.1 581.5 756.1 582.35
L 756.1 585.35
Q 756.1 585.9 756.3 586.05 756.45 586.25 756.85 586.25
L 770.6 586.25
Q 771 586.25 771 586.8
L 771 589
Q 771 589.5 770.65 589.5
L 758.65 589.5
Q 757.85 589.5 757.35 589.6 756.9 589.75 756.65 590.1 756.35 590.4 756.3 590.95 756.2 591.5 756.2 592.35
L 756.2 598.8
Q 756.2 599.6 756.3 600.2 756.35 600.75 756.65 601.1 756.9 601.4 757.4 601.55 757.9 601.7 758.65 601.7
L 776.1 601.7
Q 776.8 601.7 776.8 600.8
L 776.8 597.8
Q 776.8 597.25 776.65 597.1 776.45 596.95 776.05 596.95
L 761.5 596.95
Q 761.1 596.95 761.1 596.45
L 761.1 594.5
Q 761.1 594.05 761.5 594.05
L 773.4 594.05
Q 774.2 594.05 774.7 593.9 775.2 593.8 775.45 593.5 775.7 593.15 775.8 592.6 775.9 592.05 775.9 591.15
L 775.9 584.4
Q 775.9 582.8 775.4 582.1 774.95 581.5 773.35 581.5
L 756.85 581.5
M 859.3 443.1
Q 859.3 442.15 859.2 441.45 859.1 440.8 858.8 440.45 858.5 440.05 857.95 439.9 857.4 439.75 856.5 439.75
L 841.8 439.75
Q 840.3 439.75 839.75 440.4 839.2 441.1 839.2 443.1
L 839.2 453.85
Q 839.2 454.85 839.35 455.5 839.45 456.15 839.75 456.5 840.05 456.9 840.6 457.05 841.15 457.15 842.05 457.15
L 856.7 457.15
Q 857.45 457.15 857.95 457.05 858.45 456.9 858.75 456.55 859.05 456.15 859.2 455.55 859.3 454.9 859.3 453.9
L 859.3 443.1
M 853.9 444.85
Q 854.3 444.85 854.3 445.35
L 854.3 451.5
Q 854.3 451.95 854.2 452 854.15 452.05 853.9 452.05
L 844.6 452.05
Q 844.15 452.05 844.15 451.55
L 844.15 445.4
Q 844.15 444.85 844.6 444.85
L 853.9 444.85
M 754.85 309.55
Q 754.85 309.05 754.7 308.85 754.55 308.7 754.2 308.7
L 750.6 308.7
Q 750.25 308.7 750.05 308.85 749.85 309.05 749.85 309.55
L 749.85 313.7 739.95 313.7 739.95 309.7
Q 739.95 309.25 739.8 309.1 739.65 308.9 739.25 308.9
L 735.7 308.9
Q 735 308.9 735 309.7
L 735 324.4
Q 735 325.4 735.1 326.05 735.25 326.7 735.55 327.05 735.85 327.35 736.4 327.5 736.95 327.6 737.8 327.6
L 752.15 327.6
Q 753.8 327.6 754.35 326.95 754.85 326.3 754.85 324.5
L 754.85 309.55
M 740.3 322.55
Q 739.95 322.55 739.95 322.15
L 739.95 318.7 749.85 318.7 749.85 322.15
Q 749.85 322.55 749.55 322.55
L 740.3 322.55
M 513.65 361.1
Q 513.65 360.15 513.55 359.45 513.45 358.8 513.15 358.4 512.9 358 512.4 357.85 511.95 357.7 511.15 357.7
L 494.25 357.7
Q 494 357.7 493.75 357.8 493.55 357.9 493.55 358.55
L 493.55 362.05
Q 493.55 362.55 493.75 362.7 494 362.85 494.25 362.85
L 508.15 362.85
Q 508.65 362.85 508.65 363.5
L 508.65 374.8
Q 508.65 375.7 509.45 375.7
L 513 375.7
Q 513.65 375.7 513.65 374.8
L 513.65 361.1 Z"/>

<path fill="#1E1E1E" stroke="none" d="
M 1126.35 601.8
Q 1125.15 601.4 1123.9 601.25 1122.6 601.1 1121.4 601.1 1118.85 601.1 1116.8 601.95 1114.8 602.8 1113.3 604.35 1111.85 605.85 1111.05 608 1110.25 610.1 1110.25 612.65 1110.25 615.05 1110.9 617.1 1111.6 619.15 1112.9 620.7 1114.2 622.2 1116.15 623.15 1118.1 624.05 1120.6 624.25 1121.4 624.25 1122.2 624.25 1123.05 624.25 1123.75 624.15 1124.5 624.05 1125.15 623.95 1125.8 623.85 1126.25 623.65 1126.55 623.6 1126.6 623.45 1126.65 623.3 1126.6 623
L 1126.45 620.25
Q 1126.4 620 1126.3 619.9 1126.15 619.75 1125.8 619.9 1123.6 620.6 1120.85 620.25 1117.85 619.9 1116.3 617.9 1114.7 615.9 1114.7 612.65 1114.7 609.25 1116.4 607.15 1118.05 605.05 1121.3 605.05 1122.35 605.05 1123.5 605.2 1124.7 605.3 1125.6 605.65 1125.95 605.7 1126.05 605.6 1126.25 605.45 1126.25 605.2
L 1126.6 602.45
Q 1126.65 602.05 1126.6 601.95 1126.5 601.85 1126.35 601.8
M 1131.55 601.6
Q 1130.9 601.6 1130.95 602.1 1131.05 602.9 1131.1 604.3 1131.15 605.7 1131.15 607.25
L 1131.15 623.15
Q 1131.15 623.35 1131.25 623.55 1131.4 623.7 1131.6 623.7
L 1134.95 623.7
Q 1135.4 623.7 1135.4 623.2
L 1135.4 610.2
Q 1135.4 607.8 1136.65 606.45 1137.9 605.05 1140.15 605.05 1143.7 605.05 1143.7 609.3
L 1143.7 623.15
Q 1143.7 623.35 1143.85 623.55 1144 623.7 1144.2 623.7
L 1147.55 623.7
Q 1148 623.7 1148 623.2
L 1148 611.6
Q 1148 610.2 1148.35 609 1148.7 607.8 1149.35 606.95 1149.95 606.05 1150.9 605.6 1151.85 605.05 1153.05 605.05 1154.75 605.05 1155.6 606.25 1156.5 607.45 1156.5 609.3
L 1156.5 623.15
Q 1156.5 623.35 1156.65 623.55 1156.8 623.7 1157 623.7
L 1160.35 623.7
Q 1160.5 623.7 1160.7 623.55 1160.8 623.4 1160.8 623.2
L 1160.8 608.8
Q 1160.8 605.15 1158.7 603.15 1156.65 601.1 1153.25 601.1 1151.2 601.1 1149.4 602.05 1147.6 603 1146.7 604.9 1145.95 603.05 1144.2 602.05 1142.5 601.1 1140.4 601.1 1138.85 601.1 1137.45 601.75 1136.05 602.4 1135.25 603.3
L 1135.3 601.9
Q 1135.3 601.6 1134.95 601.6
L 1131.55 601.6 Z"/>

<path fill="#FFFFFF" stroke="none" d="
M 1014.95 577.95
Q 999.95 577.95 999.95 592.95
L 999.95 623
Q 999.95 626.65 1000.7 628.95 1003.45 638 1014.95 638
L 1084.95 638
Q 1096.65 638 1099.2 628.95 1099.95 626.25 1099.95 623
L 1099.95 592.95
Q 1099.95 577.95 1084.95 577.95
L 1014.95 577.95 Z"/>
</g>

<path id="Layer0_0_1_STROKES" stroke="#DBDBDB" stroke-width="3" stroke-linejoin="round" stroke-linecap="round" fill="none" d="
M 1014.95 577.95
L 1084.95 577.95
Q 1099.95 577.95 1099.95 592.95
L 1099.95 623
Q 1099.95 626.25 1099.2 628.95 1096.65 638 1084.95 638
L 1014.95 638
Q 1003.45 638 1000.7 628.95 999.95 626.65 999.95 623
L 999.95 592.95
Q 999.95 577.95 1014.95 577.95 Z"/>

<path id="Layer0_0_2_STROKES" stroke="#1E1E1E" stroke-width="3" stroke-linejoin="round" stroke-linecap="butt" fill="none" d="
M 827.4 448.25
L 756.25 571.1 478.75 571.1 451.3 481.35 506.15 386.8 745.9 338.75 827.4 448.25 Z"/>
</defs>

<g transform="matrix( 1, 0, 0, 1, 0,0) ">
<use xlink:href="#Layer0_0_FILL"/>

<use xlink:href="#Layer0_0_1_STROKES"/>

<use xlink:href="#Layer0_0_2_STROKES"/>
</g>
</svg>
