<?xml version="1.0" encoding="utf-8"?>
<!-- Generator: Adobe Illustrator 23.0.0, SVG Export Plug-In . SVG Version: 6.00 Build 0)  -->
<svg version="1.1" xmlns="http://www.w3.org/2000/svg" xmlns:xlink="http://www.w3.org/1999/xlink" x="0px" y="0px" width="1016px"
	 height="533px" viewBox="0 0 1016 533" enable-background="new 0 0 1016 533" xml:space="preserve">
<g id="Layer_1">
</g>
<g id="레이어_5">
</g>
<g id="레이어_4">
</g>
<g id="레이어_3">
	<g>
		<path fill="#2888BF" d="M346,302.2c-1.2,0-2.3-0.1-3.4-0.4c-1.1-0.3-2.1-0.8-2.9-1.6c-0.3-0.3-0.6-0.7-0.9-1
			c-0.3-0.4-0.5-0.8-0.6-1.2c-0.1-0.4-0.1-0.8,0-1.2c0.1-0.4,0.4-0.7,1-1c0.3-0.2,0.6-0.3,0.9-0.3s0.5,0.1,0.8,0.2
			c0.2,0.1,0.5,0.3,0.7,0.5c0.2,0.2,0.4,0.4,0.7,0.6c0.6,0.5,1.2,0.8,1.9,1c0.7,0.2,1.4,0.2,2.1,0.2c0.8,0,1.6-0.2,2.3-0.6
			c0.7-0.4,1.3-0.9,1.8-1.6c0.5-0.7,0.9-1.4,1.1-2.2s0.3-1.7,0.2-2.5c-0.7,0.4-1.6,0.8-2.5,1c-0.9,0.2-1.8,0.4-2.7,0.4
			c-1.4,0-2.6-0.2-3.7-0.6c-1.1-0.4-2-1-2.8-1.7c-0.8-0.7-1.4-1.6-1.8-2.6c-0.4-1-0.6-2.2-0.6-3.5c0-1.3,0.2-2.5,0.7-3.7
			c0.5-1.1,1.1-2.1,1.9-2.9c0.8-0.8,1.8-1.5,3-1.9c1.2-0.5,2.5-0.7,3.9-0.7c1.6,0,3,0.2,4.1,0.7s2.1,1.2,3,2.1
			c0.9,1,1.6,2.3,2.1,3.9c0.4,1.6,0.7,3.7,0.7,6.3c0,2.1-0.2,4.1-0.7,5.9c-0.5,1.8-1.1,3.3-2,4.6c-0.9,1.3-2,2.2-3.3,2.9
			C349.2,301.9,347.7,302.2,346,302.2z M346.9,279.4c-0.5,0-0.9,0-1.3,0.1c-0.4,0.1-0.8,0.2-1.2,0.3c-0.7,0.3-1.2,0.7-1.6,1.3
			c-0.4,0.6-0.7,1.3-0.8,2c-0.1,0.7,0,1.5,0.2,2.2c0.2,0.7,0.6,1.3,1.2,1.8c0.5,0.5,1.1,0.8,1.7,0.9s1.3,0.2,2,0.1
			c0.7-0.1,1.3-0.3,1.9-0.6s1.1-0.7,1.5-1.2s0.7-1,0.8-1.5c0.1-0.5,0.2-1.1,0.1-1.6c-0.1-0.5-0.3-1.1-0.6-1.6s-0.6-0.9-1-1.3
			c-0.4-0.3-0.8-0.5-1.3-0.7S347.5,279.5,346.9,279.4z"/>
	</g>
	<g>
		<g>
			<g>
				<g>
					<rect x="228.3" y="227" fill="#B2D3E9" width="5.5" height="55"/>
					<polygon fill="#93C6E3" points="233.8,282 236.1,279.7 236.1,224.7 233.8,227 					"/>
					<polygon fill="#D2E3F0" points="234.2,227 236.5,224.7 231,224.7 228.7,227 					"/>
					<path fill="#2888BF" d="M233.8,282.2h-5.5c-0.1,0-0.2-0.1-0.2-0.2v-55c0-0.1,0-0.1,0.1-0.2l2.3-2.3c0.1-0.1,0.1-0.1,0.2-0.1
						l0,0h5.5c0.1,0,0.2,0.1,0.2,0.2v55c0,0.1,0,0.1-0.1,0.2l-2.3,2.3C233.9,282.2,233.9,282.2,233.8,282.2z M228.5,281.7h5v-5h-5
						V281.7z M234.1,276.6v4.8l1.8-1.8v-4.8L234.1,276.6z M228.5,276.3h5v-5h-5V276.3z M234.1,271.1v4.8l1.8-1.8v-4.8L234.1,271.1z
						 M228.5,270.8h5v-5h-5V270.8z M234.1,265.6v4.8l1.8-1.8v-4.8L234.1,265.6z M228.5,265.3h5v-5h-5V265.3z M234.1,260.1v4.8
						l1.8-1.8v-4.8L234.1,260.1z M228.5,259.7h5v-5h-5V259.7z M234.1,254.6v4.8l1.8-1.8v-4.8L234.1,254.6z M228.5,254.2h5v-5h-5
						V254.2z M234.1,249.1v4.8l1.8-1.8v-4.8L234.1,249.1z M228.5,248.8h5v-5h-5V248.8z M234.1,243.6v4.8l1.8-1.8v-4.8L234.1,243.6z
						 M228.5,243.3h5v-5h-5V243.3z M234.1,238.1v4.8l1.8-1.8v-4.8L234.1,238.1z M228.5,237.7h5v-5h-5V237.7z M234.1,232.6v4.8
						l1.8-1.8v-4.8L234.1,232.6z M228.5,232.2h5v-5h-5V232.2z M234.1,227.1v4.8l1.8-1.8v-4.8L234.1,227.1z M228.9,226.7h4.8l1.8-1.8
						h-4.8L228.9,226.7z"/>
				</g>
			</g>
		</g>
		<g>
			<g>
				<g>
					<rect x="244.1" y="227" fill="#B2D3E9" width="5.5" height="55"/>
					<polygon fill="#93C6E3" points="249.6,282 251.9,279.7 251.9,224.7 249.6,227 					"/>
					<polygon fill="#D2E3F0" points="250,227 252.3,224.7 246.8,224.7 244.5,227 					"/>
					<path fill="#2888BF" d="M249.6,282.2h-5.5c-0.1,0-0.2-0.1-0.2-0.2v-55c0-0.1,0-0.1,0.1-0.2l2.3-2.3c0.1-0.1,0.1-0.1,0.2-0.1
						l0,0h5.5c0.1,0,0.2,0.1,0.2,0.2v55c0,0.1,0,0.1-0.1,0.2l-2.3,2.3C249.7,282.2,249.7,282.2,249.6,282.2z M244.3,281.7h5v-5h-5
						V281.7z M249.8,276.6v4.8l1.8-1.8v-4.8L249.8,276.6z M244.3,276.3h5v-5h-5V276.3z M249.8,271.1v4.8l1.8-1.8v-4.8L249.8,271.1z
						 M244.3,270.8h5v-5h-5V270.8z M249.8,265.6v4.8l1.8-1.8v-4.8L249.8,265.6z M244.3,265.3h5v-5h-5V265.3z M249.8,260.1v4.8
						l1.8-1.8v-4.8L249.8,260.1z M244.3,259.7h5v-5h-5V259.7z M249.8,254.6v4.8l1.8-1.8v-4.8L249.8,254.6z M244.3,254.2h5v-5h-5
						V254.2z M249.8,249.1v4.8l1.8-1.8v-4.8L249.8,249.1z M244.3,248.8h5v-5h-5V248.8z M249.8,243.6v4.8l1.8-1.8v-4.8L249.8,243.6z
						 M244.3,243.3h5v-5h-5V243.3z M249.8,238.1v4.8l1.8-1.8v-4.8L249.8,238.1z M244.3,237.7h5v-5h-5V237.7z M249.8,232.6v4.8
						l1.8-1.8v-4.8L249.8,232.6z M244.3,232.2h5v-5h-5V232.2z M249.8,227.1v4.8l1.8-1.8v-4.8L249.8,227.1z M244.6,226.7h4.8l1.8-1.8
						h-4.8L244.6,226.7z"/>
				</g>
			</g>
		</g>
		<g>
			<g>
				<g>
					<rect x="259.9" y="227" fill="#B2D3E9" width="5.5" height="55"/>
					<polygon fill="#93C6E3" points="265.3,282 267.6,279.7 267.6,224.7 265.3,227 					"/>
					<polygon fill="#D2E3F0" points="265.7,227 268,224.7 262.5,224.7 260.3,227 					"/>
					<path fill="#2888BF" d="M265.3,282.2h-5.5c-0.1,0-0.2-0.1-0.2-0.2v-55c0-0.1,0-0.1,0.1-0.2l2.3-2.3c0.1-0.1,0.1-0.1,0.2-0.1
						l0,0h5.5c0.1,0,0.2,0.1,0.2,0.2v55c0,0.1,0,0.1-0.1,0.2l-2.3,2.3C265.5,282.2,265.4,282.2,265.3,282.2z M260.1,281.7h5v-5h-5
						V281.7z M265.6,276.6v4.8l1.8-1.8v-4.8L265.6,276.6z M260.1,276.3h5v-5h-5V276.3z M265.6,271.1v4.8l1.8-1.8v-4.8L265.6,271.1z
						 M260.1,270.8h5v-5h-5V270.8z M265.6,265.6v4.8l1.8-1.8v-4.8L265.6,265.6z M260.1,265.3h5v-5h-5V265.3z M265.6,260.1v4.8
						l1.8-1.8v-4.8L265.6,260.1z M260.1,259.7h5v-5h-5V259.7z M265.6,254.6v4.8l1.8-1.8v-4.8L265.6,254.6z M260.1,254.2h5v-5h-5
						V254.2z M265.6,249.1v4.8l1.8-1.8v-4.8L265.6,249.1z M260.1,248.8h5v-5h-5V248.8z M265.6,243.6v4.8l1.8-1.8v-4.8L265.6,243.6z
						 M260.1,243.3h5v-5h-5V243.3z M265.6,238.1v4.8l1.8-1.8v-4.8L265.6,238.1z M260.1,237.7h5v-5h-5V237.7z M265.6,232.6v4.8
						l1.8-1.8v-4.8L265.6,232.6z M260.1,232.2h5v-5h-5V232.2z M265.6,227.1v4.8l1.8-1.8v-4.8L265.6,227.1z M260.4,226.7h4.8l1.8-1.8
						h-4.8L260.4,226.7z"/>
				</g>
			</g>
		</g>
		<g>
			<g>
				<g>
					<rect x="275.7" y="227" fill="#B2D3E9" width="5.5" height="55"/>
					<polygon fill="#93C6E3" points="281.2,282 283.5,279.7 283.5,224.7 281.2,227 					"/>
					<polygon fill="#D2E3F0" points="281.6,227 283.9,224.7 278.4,224.7 276.1,227 					"/>
					<path fill="#2888BF" d="M281.2,282.2h-5.5c-0.1,0-0.2-0.1-0.2-0.2v-55c0-0.1,0-0.1,0.1-0.2l2.3-2.3c0.1-0.1,0.1-0.1,0.2-0.1
						l0,0h5.5c0.1,0,0.2,0.1,0.2,0.2v55c0,0.1,0,0.1-0.1,0.2l-2.3,2.3C281.4,282.2,281.3,282.2,281.2,282.2z M275.9,281.7h5v-5h-5
						V281.7z M281.5,276.6v4.8l1.8-1.8v-4.8L281.5,276.6z M275.9,276.3h5v-5h-5V276.3z M281.5,271.1v4.8l1.8-1.8v-4.8L281.5,271.1z
						 M275.9,270.8h5v-5h-5V270.8z M281.5,265.6v4.8l1.8-1.8v-4.8L281.5,265.6z M275.9,265.3h5v-5h-5V265.3z M281.5,260.1v4.8
						l1.8-1.8v-4.8L281.5,260.1z M275.9,259.7h5v-5h-5V259.7z M281.5,254.6v4.8l1.8-1.8v-4.8L281.5,254.6z M275.9,254.2h5v-5h-5
						V254.2z M281.5,249.1v4.8l1.8-1.8v-4.8L281.5,249.1z M275.9,248.8h5v-5h-5V248.8z M281.5,243.6v4.8l1.8-1.8v-4.8L281.5,243.6z
						 M275.9,243.3h5v-5h-5V243.3z M281.5,238.1v4.8l1.8-1.8v-4.8L281.5,238.1z M275.9,237.7h5v-5h-5V237.7z M281.5,232.6v4.8
						l1.8-1.8v-4.8L281.5,232.6z M275.9,232.2h5v-5h-5V232.2z M281.5,227.1v4.8l1.8-1.8v-4.8L281.5,227.1z M276.3,226.7h4.8l1.8-1.8
						h-4.8L276.3,226.7z"/>
				</g>
			</g>
		</g>
		<g>
			<g>
				<g>
					<rect x="228.3" y="288.4" fill="#B2D3E9" width="5.5" height="55"/>
					<polygon fill="#93C6E3" points="233.8,343.4 236.1,341.1 236.1,286 233.8,288.4 					"/>
					<polygon fill="#D2E3F0" points="234.2,288.4 236.5,286 231,286 228.7,288.4 					"/>
					<path fill="#2888BF" d="M233.8,343.6h-5.5c-0.1,0-0.2-0.1-0.2-0.2v-55c0-0.1,0-0.1,0.1-0.2l2.3-2.3c0.1-0.1,0.1-0.1,0.2-0.1
						l0,0h5.5c0.1,0,0.2,0.1,0.2,0.2v55c0,0.1,0,0.1-0.1,0.2l-2.3,2.3C233.9,343.6,233.9,343.6,233.8,343.6z M228.5,343.1h5v-5h-5
						V343.1z M234.1,338v4.8l1.8-1.8v-4.8L234.1,338z M228.5,337.7h5v-5h-5V337.7z M234.1,332.5v4.8l1.8-1.8v-4.8L234.1,332.5z
						 M228.5,332.2h5v-5h-5V332.2z M234.1,327v4.8l1.8-1.8v-4.8L234.1,327z M228.5,326.6h5v-5h-5V326.6z M234.1,321.5v4.8l1.8-1.8
						v-4.8L234.1,321.5z M228.5,321.1h5v-5h-5V321.1z M234.1,316v4.8l1.8-1.8v-4.8L234.1,316z M228.5,315.6h5v-5h-5V315.6z
						 M234.1,310.5v4.8l1.8-1.8v-4.8L234.1,310.5z M228.5,310.2h5v-5h-5V310.2z M234.1,305v4.8l1.8-1.8v-4.8L234.1,305z
						 M228.5,304.6h5v-5h-5V304.6z M234.1,299.5v4.8l1.8-1.8v-4.8L234.1,299.5z M228.5,299.1h5v-5h-5V299.1z M234.1,294v4.8l1.8-1.8
						v-4.8L234.1,294z M228.5,293.6h5v-5h-5V293.6z M234.1,288.5v4.8l1.8-1.8v-4.8L234.1,288.5z M228.9,288.1h4.8l1.8-1.8h-4.8
						L228.9,288.1z"/>
				</g>
			</g>
		</g>
		<g>
			<g>
				<g>
					<rect x="244.1" y="288.4" fill="#B2D3E9" width="5.5" height="55"/>
					<polygon fill="#93C6E3" points="249.6,343.4 251.9,341.1 251.9,286 249.6,288.4 					"/>
					<polygon fill="#D2E3F0" points="250,288.4 252.3,286 246.8,286 244.5,288.4 					"/>
					<path fill="#2888BF" d="M249.6,343.6h-5.5c-0.1,0-0.2-0.1-0.2-0.2v-55c0-0.1,0-0.1,0.1-0.2l2.3-2.3c0.1-0.1,0.1-0.1,0.2-0.1
						l0,0h5.5c0.1,0,0.2,0.1,0.2,0.2v55c0,0.1,0,0.1-0.1,0.2l-2.3,2.3C249.7,343.6,249.7,343.6,249.6,343.6z M244.3,343.1h5v-5h-5
						V343.1z M249.8,338v4.8l1.8-1.8v-4.8L249.8,338z M244.3,337.7h5v-5h-5V337.7z M249.8,332.5v4.8l1.8-1.8v-4.8L249.8,332.5z
						 M244.3,332.2h5v-5h-5V332.2z M249.8,327v4.8l1.8-1.8v-4.8L249.8,327z M244.3,326.6h5v-5h-5V326.6z M249.8,321.5v4.8l1.8-1.8
						v-4.8L249.8,321.5z M244.3,321.1h5v-5h-5V321.1z M249.8,316v4.8l1.8-1.8v-4.8L249.8,316z M244.3,315.6h5v-5h-5V315.6z
						 M249.8,310.5v4.8l1.8-1.8v-4.8L249.8,310.5z M244.3,310.2h5v-5h-5V310.2z M249.8,305v4.8l1.8-1.8v-4.8L249.8,305z
						 M244.3,304.6h5v-5h-5V304.6z M249.8,299.5v4.8l1.8-1.8v-4.8L249.8,299.5z M244.3,299.1h5v-5h-5V299.1z M249.8,294v4.8l1.8-1.8
						v-4.8L249.8,294z M244.3,293.6h5v-5h-5V293.6z M249.8,288.5v4.8l1.8-1.8v-4.8L249.8,288.5z M244.6,288.1h4.8l1.8-1.8h-4.8
						L244.6,288.1z"/>
				</g>
			</g>
		</g>
		<g>
			<g>
				<g>
					<rect x="259.9" y="288.4" fill="#B2D3E9" width="5.5" height="55"/>
					<polygon fill="#93C6E3" points="265.3,343.4 267.6,341.1 267.6,286 265.3,288.4 					"/>
					<polygon fill="#D2E3F0" points="265.7,288.4 268,286 262.5,286 260.3,288.4 					"/>
					<path fill="#2888BF" d="M265.3,343.6h-5.5c-0.1,0-0.2-0.1-0.2-0.2v-55c0-0.1,0-0.1,0.1-0.2l2.3-2.3c0.1-0.1,0.1-0.1,0.2-0.1
						l0,0h5.5c0.1,0,0.2,0.1,0.2,0.2v55c0,0.1,0,0.1-0.1,0.2l-2.3,2.3C265.5,343.6,265.4,343.6,265.3,343.6z M260.1,343.1h5v-5h-5
						V343.1z M265.6,338v4.8l1.8-1.8v-4.8L265.6,338z M260.1,337.7h5v-5h-5V337.7z M265.6,332.5v4.8l1.8-1.8v-4.8L265.6,332.5z
						 M260.1,332.2h5v-5h-5V332.2z M265.6,327v4.8l1.8-1.8v-4.8L265.6,327z M260.1,326.6h5v-5h-5V326.6z M265.6,321.5v4.8l1.8-1.8
						v-4.8L265.6,321.5z M260.1,321.1h5v-5h-5V321.1z M265.6,316v4.8l1.8-1.8v-4.8L265.6,316z M260.1,315.6h5v-5h-5V315.6z
						 M265.6,310.5v4.8l1.8-1.8v-4.8L265.6,310.5z M260.1,310.2h5v-5h-5V310.2z M265.6,305v4.8l1.8-1.8v-4.8L265.6,305z
						 M260.1,304.6h5v-5h-5V304.6z M265.6,299.5v4.8l1.8-1.8v-4.8L265.6,299.5z M260.1,299.1h5v-5h-5V299.1z M265.6,294v4.8l1.8-1.8
						v-4.8L265.6,294z M260.1,293.6h5v-5h-5V293.6z M265.6,288.5v4.8l1.8-1.8v-4.8L265.6,288.5z M260.4,288.1h4.8l1.8-1.8h-4.8
						L260.4,288.1z"/>
				</g>
			</g>
		</g>
		<g>
			<g>
				<g>
					<rect x="275.7" y="288.4" fill="#B2D3E9" width="5.5" height="55"/>
					<polygon fill="#93C6E3" points="281.2,343.4 283.5,341.1 283.5,286 281.2,288.4 					"/>
					<polygon fill="#D2E3F0" points="281.6,288.4 283.9,286 278.4,286 276.1,288.4 					"/>
					<path fill="#2888BF" d="M281.2,343.6h-5.5c-0.1,0-0.2-0.1-0.2-0.2v-55c0-0.1,0-0.1,0.1-0.2l2.3-2.3c0.1-0.1,0.1-0.1,0.2-0.1
						l0,0h5.5c0.1,0,0.2,0.1,0.2,0.2v55c0,0.1,0,0.1-0.1,0.2l-2.3,2.3C281.4,343.6,281.3,343.6,281.2,343.6z M275.9,343.1h5v-5h-5
						V343.1z M281.5,338v4.8l1.8-1.8v-4.8L281.5,338z M275.9,337.7h5v-5h-5V337.7z M281.5,332.5v4.8l1.8-1.8v-4.8L281.5,332.5z
						 M275.9,332.2h5v-5h-5V332.2z M281.5,327v4.8l1.8-1.8v-4.8L281.5,327z M275.9,326.6h5v-5h-5V326.6z M281.5,321.5v4.8l1.8-1.8
						v-4.8L281.5,321.5z M275.9,321.1h5v-5h-5V321.1z M281.5,316v4.8l1.8-1.8v-4.8L281.5,316z M275.9,315.6h5v-5h-5V315.6z
						 M281.5,310.5v4.8l1.8-1.8v-4.8L281.5,310.5z M275.9,310.2h5v-5h-5V310.2z M281.5,305v4.8l1.8-1.8v-4.8L281.5,305z
						 M275.9,304.6h5v-5h-5V304.6z M281.5,299.5v4.8l1.8-1.8v-4.8L281.5,299.5z M275.9,299.1h5v-5h-5V299.1z M281.5,294v4.8l1.8-1.8
						v-4.8L281.5,294z M275.9,293.6h5v-5h-5V293.6z M281.5,288.5v4.8l1.8-1.8v-4.8L281.5,288.5z M276.3,288.1h4.8l1.8-1.8h-4.8
						L276.3,288.1z"/>
				</g>
			</g>
		</g>
		<g>
			<g>
				<g>
					<rect x="291.5" y="227" fill="#B2D3E9" width="5.5" height="55"/>
					<polygon fill="#93C6E3" points="297,282 299.3,279.7 299.3,224.7 297,227 					"/>
					<polygon fill="#D2E3F0" points="297.4,227 299.7,224.7 294.2,224.7 291.9,227 					"/>
					<path fill="#2888BF" d="M297,282.2h-5.5c-0.1,0-0.2-0.1-0.2-0.2v-55c0-0.1,0-0.1,0.1-0.2l2.3-2.3c0.1-0.1,0.1-0.1,0.2-0.1l0,0
						h5.5c0.1,0,0.2,0.1,0.2,0.2v55c0,0.1,0,0.1-0.1,0.2l-2.3,2.3C297.1,282.2,297.1,282.2,297,282.2z M291.7,281.7h5v-5h-5V281.7z
						 M297.2,276.6v4.8l1.8-1.8v-4.8L297.2,276.6z M291.7,276.3h5v-5h-5V276.3z M297.2,271.1v4.8l1.8-1.8v-4.8L297.2,271.1z
						 M291.7,270.8h5v-5h-5V270.8z M297.2,265.6v4.8l1.8-1.8v-4.8L297.2,265.6z M291.7,265.3h5v-5h-5V265.3z M297.2,260.1v4.8
						l1.8-1.8v-4.8L297.2,260.1z M291.7,259.7h5v-5h-5V259.7z M297.2,254.6v4.8l1.8-1.8v-4.8L297.2,254.6z M291.7,254.2h5v-5h-5
						V254.2z M297.2,249.1v4.8l1.8-1.8v-4.8L297.2,249.1z M291.7,248.8h5v-5h-5V248.8z M297.2,243.6v4.8l1.8-1.8v-4.8L297.2,243.6z
						 M291.7,243.3h5v-5h-5V243.3z M297.2,238.1v4.8l1.8-1.8v-4.8L297.2,238.1z M291.7,237.7h5v-5h-5V237.7z M297.2,232.6v4.8
						l1.8-1.8v-4.8L297.2,232.6z M291.7,232.2h5v-5h-5V232.2z M297.2,227.1v4.8l1.8-1.8v-4.8L297.2,227.1z M292,226.7h4.8l1.8-1.8
						h-4.8L292,226.7z"/>
				</g>
			</g>
		</g>
	</g>
</g>
<g id="레이어_2">
	<g>
	</g>
	<g>
	</g>
	<g>
	</g>
	<g>
	</g>
	<g>
	</g>
	<g>
	</g>
</g>
</svg>
