<?xml version="1.0" encoding="utf-8"?>
<!-- Generator: Adobe Illustrator 23.0.0, SVG Export Plug-In . SVG Version: 6.00 Build 0)  -->
<svg version="1.1" id="Layer_1" xmlns="http://www.w3.org/2000/svg" xmlns:xlink="http://www.w3.org/1999/xlink" x="0px" y="0px"
	 width="1166px" height="414px" viewBox="0 0 1166 414" style="enable-background:new 0 0 1166 414;" xml:space="preserve">
<g style="display:none;">
	<g style="display:inline;">
		<rect x="167" y="2" style="opacity:5.000000e-02;fill:#000100;" width="62" height="197"/>
		<g>
			
				<line style="fill:none;stroke:#000100;stroke-width:1.5;stroke-linecap:round;stroke-linejoin:round;stroke-miterlimit:10;stroke-dasharray:3,3;" x1="229.1" y1="4.7" x2="229.1" y2="199.3"/>
			
				<line style="fill:none;stroke:#000100;stroke-width:1.5;stroke-linecap:round;stroke-linejoin:round;stroke-miterlimit:10;stroke-dasharray:3,3;" x1="168.5" y1="4.7" x2="168.5" y2="199.3"/>
			
				<line style="fill:none;stroke:#000100;stroke-width:1.5;stroke-linecap:round;stroke-linejoin:round;stroke-miterlimit:10;stroke-dasharray:3,3;" x1="107.9" y1="4.7" x2="107.9" y2="199.3"/>
			<path style="fill:none;stroke:#000100;stroke-width:2;stroke-linecap:round;stroke-linejoin:round;stroke-miterlimit:10;" d="
				M232.1,89.7"/>
		</g>
		<g>
			<path style="fill:#121312;" d="M81.2,17.3c1.6,0,3,0.2,4.2,0.6c1.2,0.4,2.2,1,3,1.7c0.8,0.7,1.4,1.5,1.8,2.5c0.4,0.9,0.6,2,0.6,3
				v0.4c0,1.6-0.3,3.1-1,4.5c-0.7,1.4-1.8,2.8-3.2,4.3l-9.9,10.4h14c0.5,0,0.9,0.2,1.1,0.5c0.2,0.4,0.4,0.8,0.4,1.3
				s-0.1,0.9-0.4,1.3c-0.2,0.4-0.6,0.5-1.1,0.5H74.1c-1.1,0-1.9-0.2-2.4-0.6c-0.5-0.4-0.7-1-0.7-1.8c0-0.4,0.1-0.7,0.3-1.1
				c0.2-0.3,0.5-0.8,1-1.2l10.5-11.1c0.8-0.8,1.4-1.5,1.9-2.1s0.9-1.2,1.1-1.7c0.3-0.5,0.5-1.1,0.6-1.6s0.2-1.1,0.2-1.6v-0.2
				c0-1.3-0.4-2.3-1.3-3c-0.9-0.7-2.2-1.1-3.9-1.1c-1.4,0-2.6,0.3-3.6,0.9c-1,0.6-1.8,1.4-2.6,2.6c-0.3,0.4-0.7,0.7-1.2,0.8
				s-0.9,0-1.4-0.4c-0.5-0.3-0.8-0.7-0.9-1.2c-0.1-0.5,0-1,0.3-1.5c0.9-1.4,2.1-2.6,3.7-3.6C77.1,17.8,78.9,17.3,81.2,17.3z"/>
			<path style="fill:#121312;" d="M139.1,17.3c1.6,0,3.1,0.2,4.3,0.6c1.2,0.4,2.3,1,3.1,1.7c0.8,0.7,1.4,1.5,1.8,2.5
				c0.4,0.9,0.6,2,0.6,3v0.2c0,0.7-0.1,1.5-0.3,2.2c-0.2,0.7-0.5,1.4-1,2c-0.4,0.6-1,1.2-1.7,1.7c-0.7,0.5-1.5,0.9-2.4,1.2
				c0.9,0.1,1.8,0.4,2.6,0.8s1.5,0.8,2.1,1.4c0.6,0.6,1.1,1.3,1.4,2.1c0.3,0.8,0.5,1.7,0.5,2.8v0.4c0,1.2-0.2,2.3-0.7,3.4
				c-0.4,1.1-1.1,2-2,2.9c-0.9,0.8-2,1.5-3.4,2c-1.4,0.5-2.9,0.7-4.8,0.7c-3.4,0-6.4-0.8-8.8-2.5c-0.5-0.3-0.9-0.8-0.9-1.3
				c-0.1-0.5,0-1,0.3-1.5c0.3-0.5,0.7-0.8,1.2-0.9c0.5-0.1,1,0,1.5,0.3c1.1,0.7,2.1,1.2,3.1,1.6c1,0.3,2.2,0.5,3.4,0.5
				c1.2,0,2.2-0.1,3.1-0.4c0.9-0.3,1.6-0.7,2.1-1.1c0.5-0.5,0.9-1,1.2-1.7c0.2-0.6,0.4-1.3,0.4-2v-0.3c0-0.9-0.2-1.7-0.5-2.4
				c-0.3-0.6-0.8-1.1-1.4-1.5c-0.6-0.4-1.3-0.7-2.2-0.8c-0.8-0.2-1.7-0.3-2.7-0.3h-2.5c-0.5,0-0.9-0.2-1.2-0.6
				c-0.2-0.4-0.4-0.8-0.4-1.3s0.1-1,0.4-1.3c0.2-0.4,0.6-0.5,1.2-0.5h2.1c1.7,0,3.2-0.4,4.3-1.2c1.1-0.8,1.7-2.1,1.7-3.9v-0.1
				c0-1.3-0.5-2.4-1.4-3.2c-0.9-0.8-2.3-1.2-4.2-1.2c-1.2,0-2.2,0.2-3.1,0.6c-0.9,0.4-1.7,1.1-2.4,1.9c-0.4,0.4-0.9,0.6-1.4,0.5
				c-0.5,0-0.9-0.3-1.3-0.7c-0.4-0.4-0.5-0.8-0.5-1.3c0-0.5,0.2-0.9,0.5-1.3c0.8-1,1.9-1.9,3.3-2.6
				C135.7,17.6,137.3,17.3,139.1,17.3z"/>
			<path style="fill:#BC3D69;" d="M201.5,17.5c0.8,0,1.5,0.2,2.1,0.6c0.5,0.4,0.8,1,0.8,1.8v26.4c0,0.8-0.3,1.4-0.8,1.8
				c-0.5,0.4-1.2,0.6-1.9,0.6s-1.4-0.2-1.9-0.6c-0.5-0.4-0.8-1-0.8-1.8V24l-5.5,3.2c-0.7,0.4-1.4,0.5-2,0.2
				c-0.6-0.2-1.1-0.7-1.5-1.3c-0.3-0.6-0.4-1.2-0.3-1.8c0.1-0.7,0.5-1.2,1.2-1.5l7.3-4c0.7-0.4,1.4-0.7,1.9-0.9
				C200.5,17.6,201,17.5,201.5,17.5z"/>
		</g>
		<g>
			<g>
				<path style="fill:#BC3D69;" d="M199.4,149c1.7,0,3.3,0.2,4.5,0.6c1.3,0.4,2.3,1,3.1,1.7c0.8,0.7,1.4,1.6,1.8,2.5
					c0.4,1,0.6,2,0.6,3v0.5c0,1.6-0.4,3.2-1.1,4.7c-0.8,1.5-1.9,3-3.3,4.5l-9.1,9h13c0.7,0,1.1,0.2,1.5,0.7c0.3,0.4,0.5,1,0.5,1.6
					c0,0.6-0.2,1.2-0.5,1.6c-0.3,0.4-0.8,0.7-1.5,0.7h-16.4c-1.4,0-2.4-0.2-3-0.7c-0.6-0.5-0.9-1.2-0.9-2.2c0-0.5,0.1-0.9,0.4-1.3
					c0.2-0.4,0.6-0.8,1.1-1.3l10-10.1c0.8-0.8,1.4-1.5,1.9-2.1c0.5-0.6,0.9-1.2,1.2-1.7c0.3-0.5,0.5-1.1,0.6-1.6
					c0.1-0.5,0.2-1,0.2-1.6v-0.2c0-0.9-0.4-1.7-1.1-2.3c-0.7-0.6-1.8-0.9-3.3-0.9c-1.3,0-2.4,0.2-3.2,0.7c-0.9,0.5-1.7,1.2-2.4,2.2
					c-0.4,0.5-0.9,0.9-1.5,0.9c-0.6,0.1-1.2-0.1-1.8-0.5c-0.6-0.4-0.9-0.9-1.1-1.5c-0.2-0.6,0-1.2,0.4-1.9c0.9-1.4,2.2-2.6,3.8-3.5
					S197.1,149,199.4,149z"/>
			</g>
		</g>
		<g>
			<path style="fill:#BC3D69;" d="M197.6,80.6c1.7,0,3.3,0.2,4.5,0.6c1.3,0.4,2.3,1,3.1,1.7c0.8,0.7,1.4,1.6,1.8,2.5
				c0.4,1,0.6,2,0.6,3v0.5c0,1.6-0.4,3.2-1.1,4.7c-0.8,1.5-1.9,3-3.3,4.5l-9.1,9h13c0.7,0,1.1,0.2,1.5,0.7c0.3,0.4,0.5,1,0.5,1.6
				c0,0.6-0.2,1.2-0.5,1.6c-0.3,0.4-0.8,0.7-1.5,0.7h-16.4c-1.4,0-2.4-0.2-3-0.7c-0.6-0.5-0.9-1.2-0.9-2.2c0-0.5,0.1-0.9,0.4-1.3
				c0.2-0.4,0.6-0.8,1.1-1.3l10-10.1c0.8-0.8,1.4-1.5,1.9-2.1c0.5-0.6,0.9-1.2,1.2-1.7c0.3-0.5,0.5-1.1,0.6-1.6
				c0.1-0.5,0.2-1,0.2-1.6v-0.2c0-0.9-0.4-1.7-1.1-2.3c-0.7-0.6-1.8-0.9-3.3-0.9c-1.3,0-2.4,0.2-3.2,0.7c-0.9,0.5-1.7,1.2-2.4,2.2
				c-0.4,0.5-0.9,0.9-1.5,0.9c-0.6,0.1-1.2-0.1-1.8-0.5c-0.6-0.4-0.9-0.9-1.1-1.5c-0.2-0.6,0-1.2,0.4-1.9c0.9-1.4,2.2-2.6,3.8-3.5
				S195.3,80.6,197.6,80.6z"/>
		</g>
		<g>
			
				<line style="fill:none;stroke:#000100;stroke-width:2;stroke-linecap:round;stroke-linejoin:round;stroke-miterlimit:10;" x1="2.6" y1="130.5" x2="239.8" y2="130.5"/>
			<path style="fill:#121312;" d="M29.7,99l7.1-7.1c1-1,1-2.6,0-3.5c-1-0.9-2.6-1-3.5,0l-7.1,7.1l-7.1-7.1c-1-1-2.6-1-3.5,0
				c-0.9,1-1,2.6,0,3.5l7.1,7.1l-7.1,7.1c-1,1-1,2.6,0,3.5c1,0.9,2.6,1,3.5,0l7.1-7.1l7.1,7.1c1,1,2.6,1,3.5,0c0.9-1,1-2.6,0-3.5
				L29.7,99z"/>
		</g>
	</g>
	<g style="display:inline;">
		<g>
			<path style="fill:#FFFFFF;stroke:#241A16;stroke-width:2;stroke-linecap:round;stroke-linejoin:round;stroke-miterlimit:10;" d="
				M207.7,233.2c0,0,58.3-3.7,71.2,13.8c12.9,17.6,0.3,37.1-20.7,41.1c-21,4-75.9,4.3-94.2,2.7c-18.3-1.7-48.7-13.2-49.2-31.1
				c-0.8-28.7,52.5-29.2,77.4-27.2"/>
			<path style="fill:#FFFFFF;stroke:#241A16;stroke-width:2;stroke-linecap:round;stroke-linejoin:round;stroke-miterlimit:10;" d="
				M207.3,236.4c0,0-0.2-17.2-11.4-27.7c0,0,2,20.7-5.4,26.2"/>
		</g>
		<g>
			<g>
				<g>
					<path style="fill:#BC3D69;" d="M149,248.1c0.5,0,1,0.1,1.3,0.4c0.3,0.2,0.5,0.6,0.5,1.2v22.3c0,0.5-0.2,0.9-0.5,1.1
						c-0.4,0.2-0.8,0.4-1.2,0.4s-0.9-0.1-1.2-0.4c-0.3-0.2-0.5-0.6-0.5-1.1v-19.6l-5.3,3.2c-0.4,0.3-0.9,0.3-1.3,0.1
						s-0.7-0.4-0.9-0.8c-0.2-0.4-0.3-0.8-0.2-1.2s0.3-0.7,0.7-1l6.3-3.7c0.5-0.3,0.9-0.4,1.3-0.6C148.3,248.1,148.7,248.1,149,248.1
						z"/>
					<path style="fill:#BC3D69;" d="M194.1,247.9c1.3,0,2.5,0.2,3.4,0.5c1,0.3,1.8,0.8,2.4,1.3c0.7,0.6,1.1,1.2,1.5,2
						c0.3,0.8,0.5,1.6,0.5,2.4v0.4c0,1.3-0.3,2.6-0.8,3.7c-0.6,1.1-1.4,2.3-2.6,3.5l-8,8.5h11.4c0.4,0,0.7,0.1,0.9,0.4
						c0.2,0.3,0.3,0.6,0.3,1c0,0.4-0.1,0.7-0.3,1c-0.2,0.3-0.5,0.4-0.9,0.4h-13.5c-0.9,0-1.6-0.2-2-0.5s-0.6-0.8-0.6-1.4
						c0-0.3,0.1-0.6,0.2-0.9c0.2-0.3,0.4-0.6,0.8-1l8.5-9c0.6-0.7,1.1-1.2,1.5-1.7c0.4-0.5,0.7-1,0.9-1.4s0.4-0.9,0.5-1.3
						c0.1-0.4,0.1-0.9,0.1-1.3v-0.2c0-1-0.4-1.8-1.1-2.4s-1.8-0.9-3.2-0.9c-1.2,0-2.1,0.2-2.9,0.7c-0.8,0.5-1.5,1.2-2.1,2.1
						c-0.3,0.3-0.6,0.6-1,0.6c-0.4,0.1-0.8,0-1.1-0.3s-0.6-0.6-0.7-1c-0.1-0.4,0-0.8,0.2-1.2c0.7-1.2,1.7-2.1,3-2.9
						C190.8,248.2,192.3,247.9,194.1,247.9z"/>
					<path style="fill:#BC3D69;" d="M228,255.6c0.4,0,0.7,0.1,0.9,0.4c0.2,0.3,0.3,0.6,0.3,1c0,0.4-0.1,0.7-0.3,1
						c-0.2,0.3-0.5,0.4-0.9,0.4h-14.1c-0.4,0-0.7-0.1-0.9-0.4s-0.3-0.6-0.3-1c0-0.4,0.1-0.7,0.3-1s0.5-0.4,0.9-0.4H228z M228,263
						c0.4,0,0.7,0.1,0.9,0.4c0.2,0.3,0.3,0.6,0.3,1c0,0.4-0.1,0.7-0.3,1c-0.2,0.3-0.5,0.4-0.9,0.4h-14.1c-0.4,0-0.7-0.1-0.9-0.4
						c-0.2-0.3-0.3-0.6-0.3-1c0-0.4,0.1-0.7,0.3-1c0.2-0.3,0.5-0.4,0.9-0.4H228z"/>
					<path style="fill:#BC3D69;" d="M247.5,247.9c1.3,0,2.5,0.2,3.4,0.5c1,0.3,1.8,0.8,2.4,1.3c0.7,0.6,1.1,1.2,1.5,2
						c0.3,0.8,0.5,1.6,0.5,2.4v0.4c0,1.3-0.3,2.6-0.8,3.7c-0.6,1.1-1.4,2.3-2.6,3.5l-8,8.5h11.4c0.4,0,0.7,0.1,0.9,0.4
						c0.2,0.3,0.3,0.6,0.3,1c0,0.4-0.1,0.7-0.3,1c-0.2,0.3-0.5,0.4-0.9,0.4h-13.5c-0.9,0-1.6-0.2-2-0.5s-0.6-0.8-0.6-1.4
						c0-0.3,0.1-0.6,0.2-0.9c0.2-0.3,0.4-0.6,0.8-1l8.5-9c0.6-0.7,1.1-1.2,1.5-1.7c0.4-0.5,0.7-1,0.9-1.4s0.4-0.9,0.5-1.3
						c0.1-0.4,0.1-0.9,0.1-1.3v-0.2c0-1-0.4-1.8-1.1-2.4s-1.8-0.9-3.2-0.9c-1.2,0-2.1,0.2-2.9,0.7c-0.8,0.5-1.5,1.2-2.1,2.1
						c-0.3,0.3-0.6,0.6-1,0.6c-0.4,0.1-0.8,0-1.1-0.3s-0.6-0.6-0.7-1c-0.1-0.4,0-0.8,0.2-1.2c0.7-1.2,1.7-2.1,3-2.9
						C244.1,248.2,245.6,247.9,247.5,247.9z"/>
				</g>
			</g>
			<path style="fill:#BC3D69;" d="M174.5,260.2l5.1-5.1c0.7-0.7,0.7-1.9,0-2.5c-0.7-0.7-1.9-0.7-2.5,0l-5.1,5.1l-5.1-5.1
				c-0.7-0.7-1.9-0.7-2.5,0c-0.7,0.7-0.7,1.9,0,2.5l5.1,5.1l-5.1,5.1c-0.7,0.7-0.7,1.9,0,2.5c0.7,0.7,1.9,0.7,2.5,0l5.1-5.1l5.1,5.1
				c0.7,0.7,1.9,0.7,2.5,0c0.6-0.7,0.7-1.9,0-2.5L174.5,260.2z"/>
		</g>
	</g>
</g>
<g style="display:none;">
	<g style="display:inline;">
		<rect x="414" y="192" style="opacity:5.000000e-02;fill:#000100;" width="122" height="61"/>
		<rect x="414" y="4" style="opacity:5.000000e-02;fill:#000100;" width="62" height="61"/>
		<rect x="475" y="68" style="opacity:5.000000e-02;fill:#000100;" width="62" height="61"/>
		<g>
			
				<line style="fill:none;stroke:#000100;stroke-width:1.5;stroke-linecap:round;stroke-linejoin:round;stroke-miterlimit:10;stroke-dasharray:3,3;" x1="535.7" y1="4.7" x2="535.7" y2="251.3"/>
			
				<line style="fill:none;stroke:#000100;stroke-width:1.5;stroke-linecap:round;stroke-linejoin:round;stroke-miterlimit:10;stroke-dasharray:3,3;" x1="475.1" y1="4.7" x2="475.1" y2="251.3"/>
			
				<line style="fill:none;stroke:#000100;stroke-width:1.5;stroke-linecap:round;stroke-linejoin:round;stroke-miterlimit:10;stroke-dasharray:3,3;" x1="414.5" y1="4.7" x2="414.5" y2="251.3"/>
			<path style="fill:none;stroke:#000100;stroke-width:2;stroke-linecap:round;stroke-linejoin:round;stroke-miterlimit:10;" d="
				M538.6,112.4"/>
		</g>
		<g>
			<path style="fill:#241A16;" d="M389,17.3c1.6,0,3,0.2,4.2,0.6c1.2,0.4,2.2,1,3,1.7c0.8,0.7,1.4,1.5,1.8,2.5c0.4,0.9,0.6,2,0.6,3
				v0.4c0,1.6-0.3,3.1-1,4.5c-0.7,1.4-1.8,2.8-3.2,4.3l-9.9,10.4h14c0.5,0,0.9,0.2,1.1,0.5c0.2,0.4,0.4,0.8,0.4,1.3
				s-0.1,0.9-0.4,1.3c-0.2,0.4-0.6,0.5-1.1,0.5h-16.6c-1.1,0-1.9-0.2-2.4-0.6c-0.5-0.4-0.7-1-0.7-1.8c0-0.4,0.1-0.7,0.3-1.1
				c0.2-0.3,0.5-0.8,1-1.2l10.5-11.1c0.8-0.8,1.4-1.5,1.9-2.1s0.9-1.2,1.1-1.7c0.3-0.5,0.5-1.1,0.6-1.6s0.2-1.1,0.2-1.6v-0.2
				c0-1.3-0.4-2.3-1.3-3c-0.9-0.7-2.2-1.1-3.9-1.1c-1.4,0-2.6,0.3-3.6,0.9c-1,0.6-1.8,1.4-2.6,2.6c-0.3,0.4-0.7,0.7-1.2,0.8
				s-0.9,0-1.4-0.4c-0.5-0.3-0.8-0.7-0.9-1.2c-0.1-0.5,0-1,0.3-1.5c0.9-1.4,2.1-2.6,3.7-3.6C384.9,17.8,386.8,17.3,389,17.3z"/>
			<path style="fill:#2888BF;" d="M446.9,17.3c1.7,0,3.3,0.2,4.6,0.6c1.3,0.4,2.4,1,3.2,1.7c0.8,0.7,1.5,1.5,1.9,2.5
				c0.4,0.9,0.6,1.9,0.6,3v0.2c0,0.8-0.1,1.5-0.3,2.3c-0.2,0.8-0.6,1.5-1,2.1c-0.4,0.6-1,1.2-1.6,1.7c-0.6,0.5-1.3,0.8-2.2,1.1
				c0.8,0.1,1.6,0.3,2.4,0.6c0.8,0.3,1.5,0.8,2.1,1.3c0.6,0.6,1.1,1.2,1.4,2.1s0.5,1.8,0.5,2.9v0.4c0,1.2-0.2,2.3-0.7,3.4
				s-1.2,2-2.1,2.8c-0.9,0.8-2.1,1.5-3.5,2c-1.4,0.5-3,0.7-4.9,0.7c-1.7,0-3.2-0.2-4.6-0.5c-1.4-0.4-2.7-0.9-4-1.7
				c-0.7-0.4-1-1-1.1-1.7c-0.1-0.7,0-1.3,0.4-1.9c0.4-0.7,0.9-1.1,1.5-1.2s1.2,0,1.8,0.4c1,0.7,1.9,1.1,2.8,1.4s1.8,0.4,2.9,0.4
				c1.1,0,2.1-0.1,2.9-0.3c0.8-0.2,1.4-0.5,1.9-0.9c0.5-0.4,0.8-0.8,1-1.4c0.2-0.5,0.3-1.1,0.3-1.7v-0.3c0-1.5-0.5-2.5-1.5-3.2
				c-1-0.7-2.6-1.1-4.8-1.1h-2.3c-0.7,0-1.2-0.2-1.5-0.7c-0.3-0.5-0.5-1-0.5-1.7c0-0.7,0.2-1.2,0.5-1.7c0.3-0.5,0.8-0.7,1.5-0.7h1.8
				c1.9,0,3.3-0.4,4.2-1.1c0.9-0.7,1.4-1.8,1.4-3.3v-0.1c0-1.1-0.4-2-1.2-2.6c-0.8-0.6-2-1-3.7-1c-1,0-1.9,0.2-2.6,0.5
				c-0.7,0.3-1.5,0.8-2.2,1.5c-0.5,0.5-1.1,0.7-1.8,0.6c-0.6-0.1-1.1-0.4-1.5-0.9c-0.4-0.5-0.6-1.1-0.6-1.7c0-0.6,0.3-1.1,0.7-1.6
				c0.9-1,2-1.8,3.4-2.4C443.5,17.6,445.1,17.3,446.9,17.3z"/>
			<path style="fill:#121312;" d="M509.4,17.6c0.7,0,1.2,0.1,1.6,0.4c0.4,0.3,0.6,0.8,0.6,1.4v27.3c0,0.6-0.2,1.1-0.6,1.4
				s-0.9,0.4-1.5,0.4c-0.6,0-1.1-0.1-1.5-0.4c-0.4-0.3-0.6-0.7-0.6-1.4V22.6l-6.4,4c-0.5,0.3-1.1,0.4-1.5,0.2
				c-0.5-0.2-0.9-0.5-1.2-1c-0.2-0.5-0.3-0.9-0.2-1.4c0.1-0.5,0.4-0.9,0.9-1.2l7.7-4.6c0.6-0.3,1.1-0.6,1.5-0.7
				C508.6,17.6,509,17.6,509.4,17.6z"/>
		</g>
		<g>
			<path style="fill:#2888BF;" d="M506.3,210.2c4,0,6.9,1.3,8.7,3.9s2.7,6.2,2.7,11v1.8c0,4.7-0.9,8.4-2.7,11s-4.7,3.9-8.7,3.9
				c-4,0-6.9-1.3-8.7-3.9s-2.7-6.2-2.7-11V225c0-4.7,0.9-8.4,2.7-11S502.4,210.2,506.3,210.2z M506.3,215.4c-1.1,0-2.1,0.2-2.8,0.6
				c-0.8,0.4-1.4,1-1.8,1.8c-0.4,0.8-0.8,1.9-1,3.1c-0.2,1.3-0.3,2.8-0.3,4.6v1.1c0,1.8,0.1,3.3,0.3,4.6c0.2,1.3,0.5,2.3,1,3.1
				c0.4,0.8,1,1.4,1.8,1.8c0.8,0.4,1.7,0.6,2.8,0.6s2.1-0.2,2.8-0.6c0.8-0.4,1.4-1,1.8-1.8c0.4-0.8,0.8-1.9,1-3.1
				c0.2-1.3,0.3-2.8,0.3-4.6v-1.1c0-1.8-0.1-3.3-0.3-4.6c-0.2-1.3-0.5-2.3-1-3.1c-0.4-0.8-1-1.4-1.8-1.8
				C508.4,215.6,507.5,215.4,506.3,215.4z"/>
		</g>
		<g>
			<path style="fill:#2888BF;" d="M448.3,210.2c1.4,0,2.7,0.1,3.8,0.4c1.2,0.3,2.1,0.6,2.9,1c0.7,0.4,1.1,0.9,1.2,1.4
				c0.1,0.5,0.1,1.1-0.2,1.8c-0.3,0.7-0.7,1.1-1.2,1.4c-0.6,0.2-1.2,0.2-2-0.1c-1.5-0.6-3.2-0.9-4.9-0.9c-0.8,0-1.6,0.1-2.3,0.4
				c-0.7,0.3-1.4,0.8-2,1.4c-0.6,0.7-1.1,1.5-1.4,2.6c-0.4,1.1-0.6,2.4-0.8,4c0.7-0.9,1.8-1.6,3-2c1.3-0.5,2.6-0.7,3.9-0.7
				c1.5,0,2.8,0.2,4,0.7c1.2,0.5,2.2,1.1,3.1,2c0.8,0.9,1.5,1.9,1.9,3.2c0.4,1.2,0.7,2.6,0.7,4.1v0.6c0,1.4-0.3,2.8-0.8,4
				c-0.5,1.2-1.2,2.3-2.2,3.2c-0.9,0.9-2.1,1.6-3.5,2.1c-1.4,0.5-2.9,0.8-4.6,0.8c-2,0-3.7-0.3-5.1-0.9s-2.6-1.5-3.4-2.6
				c-0.9-1.1-1.5-2.5-2-4.2c-0.4-1.6-0.6-3.4-0.6-5.4v-1.5c0-3.4,0.3-6.2,1-8.4c0.6-2.2,1.5-3.9,2.6-5.2c1.1-1.2,2.4-2.1,3.9-2.6
				C445,210.4,446.6,210.2,448.3,210.2z M447.1,225.8c-1,0-1.9,0.1-2.6,0.4s-1.3,0.6-1.7,1.1c-0.5,0.5-0.8,1-1,1.7s-0.3,1.3-0.3,2
				v0.4c0,1.7,0.5,3,1.4,3.9c0.9,0.9,2.3,1.4,4,1.4c1.9,0,3.3-0.5,4.3-1.4c1-0.9,1.4-2.3,1.4-4v-0.3c0-1.8-0.4-3.1-1.3-4
				C450.4,226.2,449,225.8,447.1,225.8z"/>
		</g>
		<g>
			<g>
				<path style="fill:#BC3D69;" d="M506,149c1.6,0,3,0.2,4.2,0.6c1.2,0.4,2.2,1,3,1.7c0.8,0.7,1.4,1.5,1.8,2.5c0.4,0.9,0.6,2,0.6,3
					v0.4c0,1.6-0.3,3.1-1,4.5c-0.7,1.4-1.8,2.8-3.2,4.3l-9.9,10.4h14c0.5,0,0.9,0.2,1.1,0.5c0.2,0.4,0.4,0.8,0.4,1.3
					s-0.1,0.9-0.4,1.3c-0.2,0.4-0.6,0.5-1.1,0.5h-16.6c-1.1,0-1.9-0.2-2.4-0.6c-0.5-0.4-0.7-1-0.7-1.8c0-0.4,0.1-0.7,0.3-1.1
					c0.2-0.3,0.5-0.8,1-1.2l10.5-11.1c0.8-0.8,1.4-1.5,1.9-2.1s0.9-1.2,1.1-1.7c0.3-0.5,0.5-1.1,0.6-1.6s0.2-1.1,0.2-1.6V157
					c0-1.3-0.4-2.3-1.3-3c-0.9-0.7-2.2-1.1-3.9-1.1c-1.4,0-2.6,0.3-3.6,0.9c-1,0.6-1.8,1.4-2.6,2.6c-0.3,0.4-0.7,0.7-1.2,0.8
					s-0.9,0-1.4-0.4c-0.5-0.3-0.8-0.7-0.9-1.2c-0.1-0.5,0-1,0.3-1.5c0.9-1.4,2.1-2.6,3.7-3.6C501.8,149.5,503.7,149,506,149z"/>
			</g>
		</g>
		<g>
			<path style="fill:#2888BF;" d="M505.5,80.6c1.7,0,3.3,0.2,4.5,0.6c1.3,0.4,2.3,1,3.1,1.7c0.8,0.7,1.4,1.6,1.8,2.5
				c0.4,1,0.6,2,0.6,3v0.5c0,1.6-0.4,3.2-1.1,4.7c-0.8,1.5-1.9,3-3.3,4.5l-9.1,9h13c0.7,0,1.1,0.2,1.5,0.7c0.3,0.4,0.5,1,0.5,1.6
				c0,0.6-0.2,1.2-0.5,1.6c-0.3,0.4-0.8,0.7-1.5,0.7h-16.4c-1.4,0-2.4-0.2-3-0.7c-0.6-0.5-0.9-1.2-0.9-2.2c0-0.5,0.1-0.9,0.4-1.3
				c0.2-0.4,0.6-0.8,1.1-1.3l10-10.1c0.8-0.8,1.4-1.5,1.9-2.1c0.5-0.6,0.9-1.2,1.2-1.7c0.3-0.5,0.5-1.1,0.6-1.6
				c0.1-0.5,0.2-1,0.2-1.6v-0.2c0-0.9-0.4-1.7-1.1-2.3c-0.7-0.6-1.8-0.9-3.3-0.9c-1.3,0-2.4,0.2-3.2,0.7c-0.9,0.5-1.7,1.2-2.4,2.2
				c-0.4,0.5-0.9,0.9-1.5,0.9c-0.6,0.1-1.2-0.1-1.8-0.5c-0.6-0.4-0.9-0.9-1.1-1.5c-0.2-0.6,0-1.2,0.4-1.9c0.9-1.4,2.2-2.6,3.8-3.5
				S503.3,80.6,505.5,80.6z"/>
		</g>
		<g>
			
				<line style="fill:none;stroke:#000100;stroke-width:2;stroke-linecap:round;stroke-linejoin:round;stroke-miterlimit:10;" x1="308.6" y1="130.5" x2="545.8" y2="130.5"/>
			<path style="fill:#121312;" d="M335.7,99l7.1-7.1c1-1,1-2.6,0-3.5c-1-0.9-2.6-1-3.5,0l-7.1,7.1l-7.1-7.1c-1-1-2.6-1-3.5,0
				c-0.9,1-1,2.6,0,3.5l7.1,7.1l-7.1,7.1c-1,1-1,2.6,0,3.5c1,0.9,2.6,1,3.5,0l7.1-7.1l7.1,7.1c1,1,2.6,1,3.5,0c0.9-1,1-2.6,0-3.5
				L335.7,99z"/>
		</g>
	</g>
	<g style="display:inline;">
		<g>
			<path style="fill:#FFFFFF;stroke:#241A16;stroke-width:2;stroke-linecap:round;stroke-linejoin:round;stroke-miterlimit:10;" d="
				M485.5,289.2c0,0,80.8-4.1,98.7,15.3c17.9,19.4,0.4,41-28.7,45.4c-29.1,4.4-105.2,4.8-130.6,2.9c-25.4-1.8-67.5-14.6-68.2-34.4
				c-1.1-31.7,77.4-32.3,111.9-30.1"/>
			<path style="fill:#FFFFFF;stroke:#241A16;stroke-width:2;stroke-linecap:round;stroke-linejoin:round;stroke-miterlimit:10;" d="
				M485.4,292.2c0,0-0.3-17.1-12.7-27.5c0,0,2.2,20.5-6.1,26"/>
		</g>
		<g>
			<g>
				<g>
					<path style="fill:#2888BF;" d="M406.4,308.9c1.3,0,2.5,0.2,3.5,0.5c1,0.3,1.8,0.8,2.5,1.4s1.2,1.3,1.5,2
						c0.3,0.8,0.5,1.6,0.5,2.5v0.2c0,0.6-0.1,1.2-0.3,1.8c-0.2,0.6-0.4,1.1-0.8,1.7c-0.3,0.5-0.8,1-1.3,1.4c-0.5,0.4-1.2,0.7-1.9,1
						c0.7,0.1,1.4,0.3,2.1,0.6c0.7,0.3,1.2,0.7,1.7,1.1c0.5,0.5,0.9,1,1.1,1.7c0.3,0.7,0.4,1.4,0.4,2.3v0.3c0,1-0.2,1.9-0.5,2.8
						s-0.9,1.7-1.6,2.3c-0.7,0.7-1.7,1.2-2.8,1.6s-2.4,0.6-3.9,0.6c-2.8,0-5.2-0.7-7.2-2c-0.4-0.3-0.7-0.6-0.8-1.1
						c-0.1-0.4,0-0.8,0.3-1.2c0.3-0.4,0.6-0.7,1-0.8c0.4-0.1,0.8,0,1.2,0.2c0.9,0.6,1.7,1,2.6,1.3c0.8,0.3,1.8,0.4,2.8,0.4
						c1,0,1.8-0.1,2.5-0.3c0.7-0.2,1.3-0.5,1.7-0.9c0.4-0.4,0.7-0.8,0.9-1.3c0.2-0.5,0.3-1,0.3-1.6v-0.3c0-0.8-0.1-1.4-0.4-1.9
						s-0.7-0.9-1.2-1.2c-0.5-0.3-1.1-0.5-1.8-0.7c-0.7-0.1-1.4-0.2-2.2-0.2h-2c-0.4,0-0.8-0.2-1-0.5c-0.2-0.3-0.3-0.7-0.3-1.1
						c0-0.4,0.1-0.8,0.3-1.1c0.2-0.3,0.5-0.4,1-0.4h1.7c1.4,0,2.6-0.3,3.5-1s1.4-1.7,1.4-3.2v-0.1c0-1.1-0.4-1.9-1.1-2.6
						s-1.9-1-3.4-1c-1,0-1.8,0.2-2.5,0.5c-0.7,0.3-1.4,0.9-2,1.5c-0.3,0.3-0.7,0.5-1.1,0.4c-0.4,0-0.8-0.2-1-0.5
						c-0.3-0.3-0.4-0.7-0.4-1.1s0.2-0.7,0.4-1.1c0.7-0.8,1.6-1.5,2.7-2.1C403.6,309.1,404.9,308.9,406.4,308.9z"/>
					<path style="fill:#2888BF;" d="M426.6,308.9c3.2,0,5.4,1,6.8,3.1c1.4,2.1,2.1,5,2.1,8.9v1.7c0,3.9-0.7,6.8-2.1,8.9
						c-1.4,2.1-3.7,3.1-6.8,3.1c-3.1,0-5.4-1-6.8-3.1c-1.4-2.1-2.1-5-2.1-8.9v-1.7c0-3.9,0.7-6.8,2.1-8.9
						C421.2,309.9,423.5,308.9,426.6,308.9z M426.6,312.1c-1,0-1.9,0.2-2.6,0.5c-0.7,0.3-1.3,0.9-1.7,1.6c-0.4,0.7-0.7,1.7-0.9,2.8
						c-0.2,1.1-0.3,2.5-0.3,4v1.2c0,1.6,0.1,2.9,0.3,4c0.2,1.1,0.5,2,0.9,2.8c0.4,0.7,1,1.3,1.7,1.6c0.7,0.4,1.6,0.5,2.6,0.5
						s1.9-0.2,2.6-0.5c0.7-0.3,1.3-0.9,1.7-1.6c0.4-0.7,0.7-1.7,0.9-2.8c0.2-1.1,0.3-2.5,0.3-4v-1.2c0-1.6-0.1-2.9-0.3-4
						c-0.2-1.1-0.5-2-0.9-2.8c-0.4-0.7-1-1.3-1.7-1.6C428.5,312.3,427.6,312.1,426.6,312.1z"/>
					<path style="fill:#2888BF;" d="M474,308.9c1.3,0,2.5,0.2,3.4,0.5c1,0.3,1.8,0.8,2.4,1.3c0.7,0.6,1.1,1.2,1.5,2
						c0.3,0.8,0.5,1.6,0.5,2.4v0.4c0,1.3-0.3,2.6-0.8,3.7c-0.6,1.1-1.4,2.3-2.6,3.5l-8,8.5h11.4c0.4,0,0.7,0.1,0.9,0.4
						c0.2,0.3,0.3,0.6,0.3,1c0,0.4-0.1,0.7-0.3,1c-0.2,0.3-0.5,0.4-0.9,0.4h-13.5c-0.9,0-1.6-0.2-2-0.5s-0.6-0.8-0.6-1.4
						c0-0.3,0.1-0.6,0.2-0.9c0.2-0.3,0.4-0.6,0.8-1l8.5-9c0.6-0.7,1.1-1.2,1.5-1.7c0.4-0.5,0.7-1,0.9-1.4s0.4-0.9,0.5-1.3
						c0.1-0.4,0.1-0.9,0.1-1.3v-0.2c0-1-0.4-1.8-1.1-2.4s-1.8-0.9-3.2-0.9c-1.2,0-2.1,0.2-2.9,0.7c-0.8,0.5-1.5,1.2-2.1,2.1
						c-0.3,0.3-0.6,0.6-1,0.6c-0.4,0.1-0.8,0-1.1-0.3s-0.6-0.6-0.7-1c-0.1-0.4,0-0.8,0.2-1.2c0.7-1.2,1.7-2.1,3-2.9
						C470.7,309.2,472.2,308.9,474,308.9z"/>
					<path style="fill:#2888BF;" d="M507.9,316.6c0.4,0,0.7,0.1,0.9,0.4c0.2,0.3,0.3,0.6,0.3,1c0,0.4-0.1,0.7-0.3,1
						c-0.2,0.3-0.5,0.4-0.9,0.4h-14.1c-0.4,0-0.7-0.1-0.9-0.4s-0.3-0.6-0.3-1c0-0.4,0.1-0.7,0.3-1s0.5-0.4,0.9-0.4H507.9z
						 M507.9,324c0.4,0,0.7,0.1,0.9,0.4c0.2,0.3,0.3,0.6,0.3,1c0,0.4-0.1,0.7-0.3,1c-0.2,0.3-0.5,0.4-0.9,0.4h-14.1
						c-0.4,0-0.7-0.1-0.9-0.4c-0.2-0.3-0.3-0.6-0.3-1c0-0.4,0.1-0.7,0.3-1c0.2-0.3,0.5-0.4,0.9-0.4H507.9z"/>
					<path style="fill:#2888BF;" d="M528.8,308.9c1.1,0,2.2,0.1,3.2,0.4c1,0.2,1.8,0.5,2.4,0.9c0.4,0.3,0.6,0.6,0.8,0.9
						c0.1,0.4,0.1,0.7-0.1,1.1c-0.2,0.4-0.5,0.7-0.8,0.8c-0.4,0.1-0.8,0.1-1.2-0.1c-0.6-0.3-1.3-0.5-2-0.7c-0.7-0.2-1.5-0.2-2.3-0.2
						c-3.7,0-5.8,2.9-6.1,8.7c0.6-0.9,1.4-1.6,2.6-2.1s2.3-0.8,3.5-0.8c1.2,0,2.3,0.2,3.3,0.6c1,0.4,1.8,0.9,2.5,1.6
						s1.2,1.5,1.6,2.5c0.4,1,0.5,2.1,0.5,3.3v0.6c0,1.2-0.2,2.3-0.6,3.3c-0.4,1-1,1.8-1.8,2.6c-0.8,0.7-1.7,1.3-2.7,1.7
						c-1.1,0.4-2.2,0.6-3.5,0.6c-2.9,0-5.1-0.9-6.5-2.7c-1.5-1.8-2.2-4.4-2.2-7.9v-1c0-2.7,0.2-5,0.7-6.8c0.5-1.8,1.2-3.2,2-4.3
						s1.9-1.8,3.1-2.3C526.1,309.1,527.4,308.9,528.8,308.9z M527.9,320.9c-0.9,0-1.6,0.1-2.3,0.4c-0.7,0.3-1.2,0.6-1.6,1
						c-0.4,0.4-0.8,1-1,1.6c-0.2,0.6-0.3,1.2-0.3,1.9v0.3c0,1.6,0.5,2.9,1.4,3.8s2.2,1.4,3.7,1.4c1.6,0,2.9-0.4,3.8-1.3
						c0.9-0.9,1.4-2.1,1.4-3.8V326C533,322.6,531.3,320.9,527.9,320.9z"/>
					<path style="fill:#2888BF;" d="M547.1,308.9c3.2,0,5.4,1,6.8,3.1c1.4,2.1,2.1,5,2.1,8.9v1.7c0,3.9-0.7,6.8-2.1,8.9
						c-1.4,2.1-3.7,3.1-6.8,3.1c-3.1,0-5.4-1-6.8-3.1c-1.4-2.1-2.1-5-2.1-8.9v-1.7c0-3.9,0.7-6.8,2.1-8.9
						C541.7,309.9,544,308.9,547.1,308.9z M547.1,312.1c-1,0-1.9,0.2-2.6,0.5c-0.7,0.3-1.3,0.9-1.7,1.6c-0.4,0.7-0.7,1.7-0.9,2.8
						c-0.2,1.1-0.3,2.5-0.3,4v1.2c0,1.6,0.1,2.9,0.3,4c0.2,1.1,0.5,2,0.9,2.8c0.4,0.7,1,1.3,1.7,1.6c0.7,0.4,1.6,0.5,2.6,0.5
						s1.9-0.2,2.6-0.5c0.7-0.3,1.3-0.9,1.7-1.6c0.4-0.7,0.7-1.7,0.9-2.8c0.2-1.1,0.3-2.5,0.3-4v-1.2c0-1.6-0.1-2.9-0.3-4
						c-0.2-1.1-0.5-2-0.9-2.8c-0.4-0.7-1-1.3-1.7-1.6C549,312.3,548.1,312.1,547.1,312.1z"/>
				</g>
			</g>
			<path style="fill:#2888BF;" d="M453.4,322l5.1-5.1c0.7-0.7,0.7-1.9,0-2.5c-0.7-0.7-1.9-0.7-2.5,0l-5.1,5.1l-5.1-5.1
				c-0.7-0.7-1.9-0.7-2.5,0c-0.7,0.7-0.7,1.9,0,2.5l5.1,5.1l-5.1,5.1c-0.7,0.7-0.7,1.9,0,2.5c0.7,0.7,1.9,0.7,2.5,0l5.1-5.1l5.1,5.1
				c0.7,0.7,1.9,0.7,2.5,0c0.6-0.7,0.7-1.9,0-2.5L453.4,322z"/>
		</g>
	</g>
</g>
<g style="display:none;">
	<g style="display:inline;">
		
			<line style="fill:none;stroke:#000100;stroke-width:1.5;stroke-linecap:round;stroke-linejoin:round;stroke-miterlimit:10;stroke-dasharray:3,3;" x1="1154.2" y1="4.7" x2="1154.2" y2="196.1"/>
		
			<line style="fill:none;stroke:#000100;stroke-width:1.5;stroke-linecap:round;stroke-linejoin:round;stroke-miterlimit:10;stroke-dasharray:3,3;" x1="1094.6" y1="4.7" x2="1094.6" y2="196.1"/>
		
			<line style="fill:none;stroke:#000100;stroke-width:1.5;stroke-linecap:round;stroke-linejoin:round;stroke-miterlimit:10;stroke-dasharray:3,3;" x1="1035" y1="4.7" x2="1035" y2="196.1"/>
		
			<line style="fill:none;stroke:#000100;stroke-width:1.5;stroke-linecap:round;stroke-linejoin:round;stroke-miterlimit:10;stroke-dasharray:3,3;" x1="975.4" y1="4.7" x2="975.4" y2="196.1"/>
		<path style="fill:none;stroke:#000100;stroke-width:2;stroke-linecap:round;stroke-linejoin:round;stroke-miterlimit:10;" d="
			M1157.2,139"/>
	</g>
	<g style="display:inline;">
		
			<line style="fill:none;stroke:#000100;stroke-width:2;stroke-linecap:round;stroke-linejoin:round;stroke-miterlimit:10;" x1="926.7" y1="130.4" x2="1163.8" y2="130.4"/>
		<path style="fill:#121312;" d="M953.8,98.9l7.1-7.1c1-1,1-2.6,0-3.5c-1-0.9-2.6-1-3.5,0l-7.1,7.1l-7.1-7.1c-1-1-2.6-1-3.5,0
			c-0.9,1-1,2.6,0,3.5l7.1,7.1l-7.1,7.1c-1,1-1,2.6,0,3.5c1,0.9,2.6,1,3.5,0l7.1-7.1l7.1,7.1c1,1,2.6,1,3.5,0c0.9-1,1-2.6,0-3.5
			L953.8,98.9z"/>
	</g>
	<g style="display:inline;">
		<path style="fill:#377F45;" d="M1007.6,17.3c1.7,0,3.3,0.2,4.5,0.6c1.3,0.4,2.3,1,3.1,1.7c0.8,0.7,1.4,1.6,1.8,2.5
			c0.4,1,0.6,2,0.6,3v0.5c0,1.6-0.4,3.2-1.1,4.7c-0.8,1.5-1.9,3-3.3,4.5l-9.1,9h13c0.7,0,1.1,0.2,1.5,0.7c0.3,0.4,0.5,1,0.5,1.6
			c0,0.6-0.2,1.2-0.5,1.6c-0.3,0.4-0.8,0.7-1.5,0.7h-16.4c-1.4,0-2.4-0.2-3-0.7c-0.6-0.5-0.9-1.2-0.9-2.2c0-0.5,0.1-0.9,0.4-1.3
			c0.2-0.4,0.6-0.8,1.1-1.3l10-10.1c0.8-0.8,1.4-1.5,1.9-2.1c0.5-0.6,0.9-1.2,1.2-1.7c0.3-0.5,0.5-1.1,0.6-1.6
			c0.1-0.5,0.2-1,0.2-1.6v-0.2c0-0.9-0.4-1.7-1.1-2.3c-0.7-0.6-1.8-0.9-3.3-0.9c-1.3,0-2.4,0.2-3.2,0.7c-0.9,0.5-1.7,1.2-2.4,2.2
			c-0.4,0.5-0.9,0.9-1.5,0.9c-0.6,0.1-1.2-0.1-1.8-0.5c-0.6-0.4-0.9-0.9-1.1-1.5c-0.2-0.6,0-1.2,0.4-1.9c0.9-1.4,2.2-2.6,3.8-3.5
			S1005.3,17.3,1007.6,17.3z"/>
		<path style="fill:#2888BF;" d="M1065.9,17.3c1.7,0,3.3,0.2,4.6,0.6c1.3,0.4,2.4,1,3.2,1.7c0.8,0.7,1.5,1.5,1.9,2.5
			c0.4,0.9,0.6,1.9,0.6,3v0.2c0,0.8-0.1,1.5-0.3,2.3c-0.2,0.8-0.6,1.5-1,2.1c-0.4,0.6-1,1.2-1.6,1.7c-0.6,0.5-1.3,0.8-2.2,1.1
			c0.8,0.1,1.6,0.3,2.4,0.6c0.8,0.3,1.5,0.8,2.1,1.3c0.6,0.6,1.1,1.2,1.4,2.1s0.5,1.8,0.5,2.9v0.4c0,1.2-0.2,2.3-0.7,3.4
			s-1.2,2-2.1,2.8c-0.9,0.8-2.1,1.5-3.5,2c-1.4,0.5-3,0.7-4.9,0.7c-1.7,0-3.2-0.2-4.6-0.5c-1.4-0.4-2.7-0.9-4-1.7
			c-0.7-0.4-1-1-1.1-1.7c-0.1-0.7,0-1.3,0.4-1.9c0.4-0.7,0.9-1.1,1.5-1.2s1.2,0,1.8,0.4c1,0.7,1.9,1.1,2.8,1.4s1.8,0.4,2.9,0.4
			c1.1,0,2.1-0.1,2.9-0.3c0.8-0.2,1.4-0.5,1.9-0.9c0.5-0.4,0.8-0.8,1-1.4c0.2-0.5,0.3-1.1,0.3-1.7v-0.3c0-1.5-0.5-2.5-1.5-3.2
			c-1-0.7-2.6-1.1-4.8-1.1h-2.3c-0.7,0-1.2-0.2-1.5-0.7c-0.3-0.5-0.5-1-0.5-1.7c0-0.7,0.2-1.2,0.5-1.7c0.3-0.5,0.8-0.7,1.5-0.7h1.8
			c1.9,0,3.3-0.4,4.2-1.1c0.9-0.7,1.4-1.8,1.4-3.3v-0.1c0-1.1-0.4-2-1.2-2.6c-0.8-0.6-2-1-3.7-1c-1,0-1.9,0.2-2.6,0.5
			c-0.7,0.3-1.5,0.8-2.2,1.5c-0.5,0.5-1.1,0.7-1.8,0.6c-0.6-0.1-1.1-0.4-1.5-0.9c-0.4-0.5-0.6-1.1-0.6-1.7c0-0.6,0.3-1.1,0.7-1.6
			c0.9-1,2-1.8,3.4-2.4C1062.5,17.6,1064.1,17.3,1065.9,17.3z"/>
		<path style="fill:#BC3D69;" d="M1128.7,17.5c0.8,0,1.5,0.2,2.1,0.6c0.5,0.4,0.8,1,0.8,1.8v26.4c0,0.8-0.3,1.4-0.8,1.8
			c-0.5,0.4-1.2,0.6-1.9,0.6s-1.4-0.2-1.9-0.6c-0.5-0.4-0.8-1-0.8-1.8V24l-5.5,3.2c-0.7,0.4-1.4,0.5-2,0.2c-0.6-0.2-1.1-0.7-1.5-1.3
			c-0.3-0.6-0.4-1.2-0.3-1.8c0.1-0.7,0.5-1.2,1.2-1.5l7.3-4c0.7-0.4,1.4-0.7,1.9-0.9C1127.7,17.6,1128.2,17.5,1128.7,17.5z"/>
	</g>
	<g style="display:inline;">
		<g>
			<path style="fill:#000100;" d="M1124.1,80.6c1.6,0,3,0.2,4.2,0.6c1.2,0.4,2.2,1,3,1.7c0.8,0.7,1.4,1.5,1.8,2.5
				c0.4,0.9,0.6,2,0.6,3v0.4c0,1.6-0.3,3.1-1,4.5c-0.7,1.4-1.8,2.8-3.2,4.3l-9.9,10.4h14c0.5,0,0.9,0.2,1.1,0.5
				c0.2,0.4,0.4,0.8,0.4,1.3s-0.1,0.9-0.4,1.3c-0.2,0.4-0.6,0.5-1.1,0.5H1117c-1.1,0-1.9-0.2-2.4-0.6c-0.5-0.4-0.7-1-0.7-1.8
				c0-0.4,0.1-0.7,0.3-1.1c0.2-0.3,0.5-0.8,1-1.2l10.5-11.1c0.8-0.8,1.4-1.5,1.9-2.1s0.9-1.2,1.1-1.7c0.3-0.5,0.5-1.1,0.6-1.6
				s0.2-1.1,0.2-1.6v-0.2c0-1.3-0.4-2.3-1.3-3c-0.9-0.7-2.2-1.1-3.9-1.1c-1.4,0-2.6,0.3-3.6,0.9c-1,0.6-1.8,1.4-2.6,2.6
				c-0.3,0.4-0.7,0.7-1.2,0.8s-0.9,0-1.4-0.4c-0.5-0.3-0.8-0.7-0.9-1.2c-0.1-0.5,0-1,0.3-1.5c0.9-1.4,2.1-2.6,3.7-3.6
				C1120,81.1,1121.9,80.6,1124.1,80.6z"/>
		</g>
	</g>
	<g style="display:inline;">
		<g>
			<path style="fill:#000100;" d="M1011.3,147c0.6,0.4,1,0.9,1.1,1.5c0.2,0.6,0,1.3-0.5,2l-11.2,16.2h8.9v-7.1
				c0-0.8,0.3-1.4,0.8-1.8c0.5-0.4,1.2-0.6,1.9-0.6s1.3,0.2,1.9,0.6c0.5,0.4,0.8,1,0.8,1.8v7.1h2.6c0.7,0,1.1,0.2,1.4,0.7
				c0.3,0.4,0.4,1,0.4,1.6c0,0.6-0.1,1.1-0.4,1.5c-0.3,0.4-0.8,0.7-1.4,0.7h-2.6v4.3c0,0.8-0.3,1.4-0.8,1.8
				c-0.5,0.4-1.2,0.6-1.9,0.6s-1.3-0.2-1.9-0.6c-0.5-0.4-0.8-1-0.8-1.8v-4.3h-12c-1.2,0-2.1-0.2-2.6-0.6c-0.5-0.4-0.8-1.1-0.8-2
				c0-0.1,0-0.3,0-0.5c0-0.2,0.1-0.3,0.2-0.6c0.1-0.2,0.2-0.5,0.4-0.8s0.4-0.7,0.7-1.1l12.3-17.8c0.4-0.6,1-1,1.6-1.1
				C1010.1,146.5,1010.7,146.6,1011.3,147z"/>
			<path style="fill:#000100;" d="M1067.1,146.3c1.4,0,2.7,0.1,3.8,0.4c1.2,0.3,2.1,0.6,2.9,1c0.7,0.4,1.1,0.9,1.2,1.4
				c0.1,0.5,0.1,1.1-0.2,1.8c-0.3,0.7-0.7,1.1-1.2,1.4c-0.6,0.2-1.2,0.2-2-0.1c-1.5-0.6-3.2-0.9-4.9-0.9c-0.8,0-1.6,0.1-2.3,0.4
				c-0.7,0.3-1.4,0.8-2,1.4c-0.6,0.7-1.1,1.5-1.4,2.6c-0.4,1.1-0.6,2.4-0.8,4c0.7-0.9,1.8-1.6,3-2c1.3-0.5,2.6-0.7,3.9-0.7
				c1.5,0,2.8,0.2,4,0.7c1.2,0.5,2.2,1.1,3.1,2c0.8,0.9,1.5,1.9,1.9,3.2c0.4,1.2,0.7,2.6,0.7,4.1v0.6c0,1.4-0.3,2.8-0.8,4
				c-0.5,1.2-1.2,2.3-2.2,3.2c-0.9,0.9-2.1,1.6-3.5,2.1c-1.4,0.5-2.9,0.8-4.6,0.8c-2,0-3.7-0.3-5.1-0.9s-2.6-1.5-3.4-2.6
				c-0.9-1.1-1.5-2.5-2-4.2c-0.4-1.6-0.6-3.4-0.6-5.4v-1.5c0-3.4,0.3-6.2,1-8.4c0.6-2.2,1.5-3.9,2.6-5.2c1.1-1.2,2.4-2.1,3.9-2.6
				C1063.8,146.6,1065.4,146.3,1067.1,146.3z M1066,161.9c-1,0-1.9,0.1-2.6,0.4s-1.3,0.6-1.7,1.1c-0.5,0.5-0.8,1-1,1.7
				s-0.3,1.3-0.3,2v0.4c0,1.7,0.5,3,1.4,3.9c0.9,0.9,2.3,1.4,4,1.4c1.9,0,3.3-0.5,4.3-1.4c1-0.9,1.4-2.3,1.4-4v-0.3
				c0-1.8-0.4-3.1-1.3-4C1069.3,162.3,1067.9,161.9,1066,161.9z"/>
			<path style="fill:#000100;" d="M1124,146.3c1.7,0,3.3,0.2,4.5,0.6c1.3,0.4,2.3,1,3.1,1.7c0.8,0.7,1.4,1.6,1.8,2.5
				c0.4,1,0.6,2,0.6,3v0.5c0,1.6-0.4,3.2-1.1,4.7c-0.8,1.5-1.9,3-3.3,4.5l-9.1,9h13c0.7,0,1.1,0.2,1.5,0.7c0.3,0.4,0.5,1,0.5,1.6
				c0,0.6-0.2,1.2-0.5,1.6c-0.3,0.4-0.8,0.7-1.5,0.7h-16.4c-1.4,0-2.4-0.2-3-0.7c-0.6-0.5-0.9-1.2-0.9-2.2c0-0.5,0.1-0.9,0.4-1.3
				c0.2-0.4,0.6-0.8,1.1-1.3l10-10.1c0.8-0.8,1.4-1.5,1.9-2.1c0.5-0.6,0.9-1.2,1.2-1.7c0.3-0.5,0.5-1.1,0.6-1.6
				c0.1-0.5,0.2-1,0.2-1.6v-0.2c0-0.9-0.4-1.7-1.1-2.3c-0.7-0.6-1.8-0.9-3.3-0.9c-1.3,0-2.4,0.2-3.2,0.7c-0.9,0.5-1.7,1.2-2.4,2.2
				c-0.4,0.5-0.9,0.9-1.5,0.9c-0.6,0.1-1.2-0.1-1.8-0.5c-0.6-0.4-0.9-0.9-1.1-1.5c-0.2-0.6,0-1.2,0.4-1.9c0.9-1.4,2.2-2.6,3.8-3.5
				S1121.7,146.3,1124,146.3z"/>
		</g>
	</g>
</g>
<g>
	<g>
		<rect x="667" y="252" style="opacity:5.000000e-02;fill:#000100;" width="179" height="61"/>
		<rect x="667" y="4" style="opacity:5.000000e-02;fill:#000100;" width="58" height="61"/>
		<rect x="785" y="68" style="opacity:5.000000e-02;fill:#000100;" width="62" height="61"/>
		<g>
			
				<line style="fill:none;stroke:#000100;stroke-width:1.5;stroke-linecap:round;stroke-linejoin:round;stroke-miterlimit:10;stroke-dasharray:3,3;" x1="845.7" y1="4.7" x2="845.7" y2="312.2"/>
			
				<line style="fill:none;stroke:#000100;stroke-width:1.5;stroke-linecap:round;stroke-linejoin:round;stroke-miterlimit:10;stroke-dasharray:3,3;" x1="785.8" y1="4.7" x2="785.8" y2="312.2"/>
			
				<line style="fill:none;stroke:#000100;stroke-width:1.5;stroke-linecap:round;stroke-linejoin:round;stroke-miterlimit:10;stroke-dasharray:3,3;" x1="726" y1="4.7" x2="726" y2="312.2"/>
			
				<line style="fill:none;stroke:#000100;stroke-width:1.5;stroke-linecap:round;stroke-linejoin:round;stroke-miterlimit:10;stroke-dasharray:3,3;" x1="666.2" y1="4.7" x2="666.2" y2="312.2"/>
			<path style="fill:none;stroke:#000100;stroke-width:2;stroke-linecap:round;stroke-linejoin:round;stroke-miterlimit:10;" d="
				M848.6,139"/>
		</g>
		<g>
			<path style="fill:#377F45;" d="M699,17.3c1.7,0,3.3,0.2,4.5,0.6c1.3,0.4,2.3,1,3.1,1.7c0.8,0.7,1.4,1.6,1.8,2.5
				c0.4,1,0.6,2,0.6,3v0.5c0,1.6-0.4,3.2-1.1,4.7c-0.8,1.5-1.9,3-3.3,4.5l-9.1,9h13c0.7,0,1.1,0.2,1.5,0.7c0.3,0.4,0.5,1,0.5,1.6
				c0,0.6-0.2,1.2-0.5,1.6c-0.3,0.4-0.8,0.7-1.5,0.7h-16.4c-1.4,0-2.4-0.2-3-0.7c-0.6-0.5-0.9-1.2-0.9-2.2c0-0.5,0.1-0.9,0.4-1.3
				c0.2-0.4,0.6-0.8,1.1-1.3l10-10.1c0.8-0.8,1.4-1.5,1.9-2.1c0.5-0.6,0.9-1.2,1.2-1.7c0.3-0.5,0.5-1.1,0.6-1.6
				c0.1-0.5,0.2-1,0.2-1.6v-0.2c0-0.9-0.4-1.7-1.1-2.3c-0.7-0.6-1.8-0.9-3.3-0.9c-1.3,0-2.4,0.2-3.2,0.7c-0.9,0.5-1.7,1.2-2.4,2.2
				c-0.4,0.5-0.9,0.9-1.5,0.9c-0.6,0.1-1.2-0.1-1.8-0.5c-0.6-0.4-0.9-0.9-1.1-1.5c-0.2-0.6,0-1.2,0.4-1.9c0.9-1.4,2.2-2.6,3.8-3.5
				S696.7,17.3,699,17.3z"/>
			<path d="M757.4,17.3c1.6,0,3.1,0.2,4.3,0.6c1.2,0.4,2.3,1,3.1,1.7c0.8,0.7,1.4,1.5,1.8,2.5c0.4,0.9,0.6,2,0.6,3v0.2
				c0,0.7-0.1,1.5-0.3,2.2c-0.2,0.7-0.5,1.4-1,2c-0.4,0.6-1,1.2-1.7,1.7c-0.7,0.5-1.5,0.9-2.4,1.2c0.9,0.1,1.8,0.4,2.6,0.8
				s1.5,0.8,2.1,1.4c0.6,0.6,1.1,1.3,1.4,2.1c0.3,0.8,0.5,1.7,0.5,2.8v0.4c0,1.2-0.2,2.3-0.7,3.4c-0.4,1.1-1.1,2-2,2.9
				c-0.9,0.8-2,1.5-3.4,2c-1.4,0.5-2.9,0.7-4.8,0.7c-3.4,0-6.4-0.8-8.8-2.5c-0.5-0.3-0.9-0.8-0.9-1.3c-0.1-0.5,0-1,0.3-1.5
				c0.3-0.5,0.7-0.8,1.2-0.9c0.5-0.1,1,0,1.5,0.3c1.1,0.7,2.1,1.2,3.1,1.6c1,0.3,2.2,0.5,3.4,0.5c1.2,0,2.2-0.1,3.1-0.4
				c0.9-0.3,1.6-0.7,2.1-1.1c0.5-0.5,0.9-1,1.2-1.7c0.2-0.6,0.4-1.3,0.4-2v-0.3c0-0.9-0.2-1.7-0.5-2.4c-0.3-0.6-0.8-1.1-1.4-1.5
				c-0.6-0.4-1.3-0.7-2.2-0.8c-0.8-0.2-1.7-0.3-2.7-0.3h-2.5c-0.5,0-0.9-0.2-1.2-0.6c-0.2-0.4-0.4-0.8-0.4-1.3s0.1-1,0.4-1.3
				c0.2-0.4,0.6-0.5,1.2-0.5h2.1c1.7,0,3.2-0.4,4.3-1.2c1.1-0.8,1.7-2.1,1.7-3.9v-0.1c0-1.3-0.5-2.4-1.4-3.2
				c-0.9-0.8-2.3-1.2-4.2-1.2c-1.2,0-2.2,0.2-3.1,0.6c-0.9,0.4-1.7,1.1-2.4,1.9c-0.4,0.4-0.9,0.6-1.4,0.5c-0.5,0-0.9-0.3-1.3-0.7
				c-0.4-0.4-0.5-0.8-0.5-1.3c0-0.5,0.2-0.9,0.5-1.3c0.8-1,1.9-1.9,3.3-2.6C753.9,17.6,755.5,17.3,757.4,17.3z"/>
			<path style="fill:#121312;" d="M819.4,17.6c0.7,0,1.2,0.1,1.6,0.4c0.4,0.3,0.6,0.8,0.6,1.4v27.3c0,0.6-0.2,1.1-0.6,1.4
				s-0.9,0.4-1.5,0.4c-0.6,0-1.1-0.1-1.5-0.4c-0.4-0.3-0.6-0.7-0.6-1.4V22.6l-6.4,4c-0.5,0.3-1.1,0.4-1.5,0.2
				c-0.5-0.2-0.9-0.5-1.2-1c-0.2-0.5-0.3-0.9-0.2-1.4c0.1-0.5,0.4-0.9,0.9-1.2l7.7-4.6c0.6-0.3,1.1-0.6,1.5-0.7
				C818.6,17.6,819,17.6,819.4,17.6z"/>
		</g>
		<g>
			<path style="fill:#2888BF;" d="M816.1,210.2c3.9,0,6.7,1.3,8.4,3.8s2.6,6.2,2.6,10.9v2.1c0,4.8-0.9,8.4-2.6,10.9
				c-1.7,2.5-4.5,3.8-8.4,3.8s-6.7-1.3-8.4-3.8c-1.7-2.5-2.6-6.2-2.6-10.9v-2.1c0-4.8,0.9-8.4,2.6-10.9
				C809.5,211.5,812.3,210.2,816.1,210.2z M816.1,214.2c-1.3,0-2.3,0.2-3.2,0.6c-0.9,0.4-1.5,1.1-2.1,2c-0.5,0.9-0.9,2-1.1,3.4
				s-0.3,3-0.3,4.9v1.4c0,1.9,0.1,3.6,0.3,4.9s0.6,2.5,1.1,3.4c0.5,0.9,1.2,1.6,2.1,2c0.9,0.4,1.9,0.6,3.2,0.6
				c1.3,0,2.3-0.2,3.2-0.6c0.9-0.4,1.5-1.1,2.1-2c0.5-0.9,0.9-2,1.1-3.4c0.2-1.4,0.3-3,0.3-4.9v-1.4c0-1.9-0.1-3.6-0.3-4.9
				c-0.2-1.4-0.6-2.5-1.1-3.4c-0.5-0.9-1.2-1.6-2.1-2C818.5,214.5,817.4,214.2,816.1,214.2z"/>
		</g>
		<g>
			<path style="fill:#2888BF;" d="M758,210.2c1.4,0,2.7,0.1,3.9,0.4c1.2,0.3,2.2,0.7,3,1.1c0.5,0.3,0.8,0.7,0.9,1.1s0.1,0.9-0.2,1.4
				c-0.2,0.5-0.6,0.9-1,1c-0.4,0.2-1,0.1-1.5-0.1c-0.8-0.4-1.6-0.7-2.5-0.8s-1.8-0.3-2.8-0.3c-4.6,0-7.1,3.6-7.5,10.7
				c0.7-1.1,1.8-2,3.1-2.6s2.8-0.9,4.3-0.9c1.5,0,2.8,0.2,4,0.7c1.2,0.5,2.2,1.1,3,2c0.8,0.9,1.5,1.9,1.9,3.1s0.7,2.6,0.7,4v0.7
				c0,1.5-0.3,2.8-0.8,4.1s-1.2,2.3-2.1,3.1c-0.9,0.9-2,1.6-3.4,2c-1.3,0.5-2.7,0.7-4.3,0.7c-3.5,0-6.2-1.1-8-3.4
				c-1.8-2.2-2.8-5.5-2.8-9.7v-1.2c0-3.4,0.3-6.1,0.9-8.3c0.6-2.2,1.4-4,2.5-5.3c1.1-1.3,2.3-2.3,3.8-2.8
				C754.7,210.5,756.3,210.2,758,210.2z M757,225c-1.1,0-2,0.2-2.8,0.5c-0.8,0.3-1.5,0.7-2,1.3c-0.5,0.5-1,1.2-1.2,1.9
				c-0.3,0.7-0.4,1.5-0.4,2.3v0.3c0,2,0.6,3.5,1.7,4.7c1.1,1.2,2.7,1.7,4.6,1.7c2,0,3.6-0.5,4.7-1.6c1.1-1.1,1.7-2.6,1.7-4.6v-0.3
				C763.2,227.1,761.1,225,757,225z"/>
		</g>
		<g>
			<g>
				<path style="fill:#BC3D69;" d="M816,149c1.6,0,3,0.2,4.2,0.6c1.2,0.4,2.2,1,3,1.7c0.8,0.7,1.4,1.5,1.8,2.5c0.4,0.9,0.6,2,0.6,3
					v0.4c0,1.6-0.3,3.1-1,4.5c-0.7,1.4-1.8,2.8-3.2,4.3l-9.9,10.4h14c0.5,0,0.9,0.2,1.1,0.5c0.2,0.4,0.4,0.8,0.4,1.3
					s-0.1,0.9-0.4,1.3c-0.2,0.4-0.6,0.5-1.1,0.5h-16.6c-1.1,0-1.9-0.2-2.4-0.6c-0.5-0.4-0.7-1-0.7-1.8c0-0.4,0.1-0.7,0.3-1.1
					c0.2-0.3,0.5-0.8,1-1.2l10.5-11.1c0.8-0.8,1.4-1.5,1.9-2.1s0.9-1.2,1.1-1.7c0.3-0.5,0.5-1.1,0.6-1.6s0.2-1.1,0.2-1.6V157
					c0-1.3-0.4-2.3-1.3-3c-0.9-0.7-2.2-1.1-3.9-1.1c-1.4,0-2.6,0.3-3.6,0.9c-1,0.6-1.8,1.4-2.6,2.6c-0.3,0.4-0.7,0.7-1.2,0.8
					s-0.9,0-1.4-0.4c-0.5-0.3-0.8-0.7-0.9-1.2c-0.1-0.5,0-1,0.3-1.5c0.9-1.4,2.1-2.6,3.7-3.6C811.8,149.5,813.7,149,816,149z"/>
			</g>
		</g>
		<g>
			<g>
				<path style="fill:#377F45;" d="M815.5,80.6c1.7,0,3.3,0.2,4.5,0.6c1.3,0.4,2.3,1,3.1,1.7c0.8,0.7,1.4,1.6,1.8,2.5
					c0.4,1,0.6,2,0.6,3v0.5c0,1.6-0.4,3.2-1.1,4.7c-0.8,1.5-1.9,3-3.3,4.5l-9.1,9h13c0.7,0,1.1,0.2,1.5,0.7c0.3,0.4,0.5,1,0.5,1.6
					c0,0.6-0.2,1.2-0.5,1.6c-0.3,0.4-0.8,0.7-1.5,0.7h-16.4c-1.4,0-2.4-0.2-3-0.7c-0.6-0.5-0.9-1.2-0.9-2.2c0-0.5,0.1-0.9,0.4-1.3
					c0.2-0.4,0.6-0.8,1.1-1.3l10-10.1c0.8-0.8,1.4-1.5,1.9-2.1c0.5-0.6,0.9-1.2,1.2-1.7c0.3-0.5,0.5-1.1,0.6-1.6
					c0.1-0.5,0.2-1,0.2-1.6v-0.2c0-0.9-0.4-1.7-1.1-2.3c-0.7-0.6-1.8-0.9-3.3-0.9c-1.3,0-2.4,0.2-3.2,0.7c-0.9,0.5-1.7,1.2-2.4,2.2
					c-0.4,0.5-0.9,0.9-1.5,0.9c-0.6,0.1-1.2-0.1-1.8-0.5c-0.6-0.4-0.9-0.9-1.1-1.5c-0.2-0.6,0-1.2,0.4-1.9c0.9-1.4,2.2-2.6,3.8-3.5
					S813.3,80.6,815.5,80.6z"/>
			</g>
		</g>
		<g>
			<path style="fill:#377F45;" d="M703.6,267.7c0.6,0.4,1,0.9,1.1,1.5s0,1.3-0.5,2l-11.2,16.2h8.9v-7.1c0-0.8,0.3-1.4,0.8-1.8
				c0.5-0.4,1.2-0.6,1.9-0.6s1.3,0.2,1.9,0.6c0.5,0.4,0.8,1,0.8,1.8v7.1h2.6c0.7,0,1.1,0.2,1.4,0.7c0.3,0.4,0.4,1,0.4,1.6
				c0,0.6-0.1,1.1-0.4,1.5c-0.3,0.4-0.8,0.7-1.4,0.7h-2.6v4.3c0,0.8-0.3,1.4-0.8,1.8c-0.5,0.4-1.2,0.6-1.9,0.6s-1.3-0.2-1.9-0.6
				c-0.5-0.4-0.8-1-0.8-1.8v-4.3h-12c-1.2,0-2.1-0.2-2.6-0.6c-0.5-0.4-0.8-1.1-0.8-2c0-0.1,0-0.3,0-0.5c0-0.2,0.1-0.3,0.2-0.6
				s0.2-0.5,0.4-0.8s0.4-0.7,0.7-1.1l12.3-17.8c0.4-0.6,1-1,1.6-1.1C702.5,267.2,703.1,267.3,703.6,267.7z"/>
			<path style="fill:#377F45;" d="M757.9,267c4,0,6.9,1.3,8.7,3.9s2.7,6.2,2.7,11v1.8c0,4.7-0.9,8.4-2.7,11s-4.7,3.9-8.7,3.9
				c-4,0-6.9-1.3-8.7-3.9s-2.7-6.2-2.7-11v-1.8c0-4.7,0.9-8.4,2.7-11S753.9,267,757.9,267z M757.9,272.2c-1.1,0-2.1,0.2-2.8,0.6
				c-0.8,0.4-1.4,1-1.8,1.8s-0.8,1.9-1,3.1c-0.2,1.3-0.3,2.8-0.3,4.6v1.1c0,1.8,0.1,3.3,0.3,4.6c0.2,1.3,0.5,2.3,1,3.1
				s1,1.4,1.8,1.8c0.8,0.4,1.7,0.6,2.8,0.6s2.1-0.2,2.8-0.6c0.8-0.4,1.4-1,1.8-1.8s0.8-1.9,1-3.1c0.2-1.3,0.3-2.8,0.3-4.6v-1.1
				c0-1.8-0.1-3.3-0.3-4.6c-0.2-1.3-0.5-2.3-1-3.1s-1-1.4-1.8-1.8C759.9,272.4,759,272.2,757.9,272.2z"/>
			<path style="fill:#377F45;" d="M816.8,267c4,0,6.9,1.3,8.7,3.9s2.7,6.2,2.7,11v1.8c0,4.7-0.9,8.4-2.7,11s-4.7,3.9-8.7,3.9
				c-4,0-6.9-1.3-8.7-3.9s-2.7-6.2-2.7-11v-1.8c0-4.7,0.9-8.4,2.7-11S812.8,267,816.8,267z M816.8,272.2c-1.1,0-2.1,0.2-2.8,0.6
				c-0.8,0.4-1.4,1-1.8,1.8s-0.8,1.9-1,3.1c-0.2,1.3-0.3,2.8-0.3,4.6v1.1c0,1.8,0.1,3.3,0.3,4.6c0.2,1.3,0.5,2.3,1,3.1
				s1,1.4,1.8,1.8c0.8,0.4,1.7,0.6,2.8,0.6s2.1-0.2,2.8-0.6c0.8-0.4,1.4-1,1.8-1.8s0.8-1.9,1-3.1c0.2-1.3,0.3-2.8,0.3-4.6v-1.1
				c0-1.8-0.1-3.3-0.3-4.6c-0.2-1.3-0.5-2.3-1-3.1s-1-1.4-1.8-1.8C818.8,272.4,817.9,272.2,816.8,272.2z"/>
		</g>
		<g>
			
				<line style="fill:none;stroke:#000100;stroke-width:2;stroke-linecap:round;stroke-linejoin:round;stroke-miterlimit:10;" x1="619.6" y1="129.8" x2="856.7" y2="129.8"/>
			<path style="fill:#121312;" d="M646.7,98.3l7.1-7.1c1-1,1-2.6,0-3.5c-1-0.9-2.6-1-3.5,0l-7.1,7.1l-7.1-7.1c-1-1-2.6-1-3.5,0
				c-0.9,1-1,2.6,0,3.5l7.1,7.1l-7.1,7.1c-1,1-1,2.6,0,3.5c1,0.9,2.6,1,3.5,0l7.1-7.1l7.1,7.1c1,1,2.6,1,3.5,0c0.9-1,1-2.6,0-3.5
				L646.7,98.3z"/>
		</g>
	</g>
	<g>
		<g>
			<path style="fill:#FFFFFF;stroke:#241A16;stroke-width:2;stroke-linecap:round;stroke-linejoin:round;stroke-miterlimit:10;" d="
				M760.5,345.2c0,0,80.8-3.1,98.7,16.3c17.9,19.4,0.4,41-28.7,45.4c-29.1,4.4-105.2,4.8-130.6,2.9c-25.4-1.8-67.5-14.6-68.2-34.4
				C630.6,343.7,726,345.2,760.5,345.2"/>
			<path style="fill:#FFFFFF;stroke:#241A16;stroke-width:2;stroke-linecap:round;stroke-linejoin:round;stroke-miterlimit:10;" d="
				M710.4,349.2c0,0-0.3-17.1-12.7-27.5c0,0,1.2,21.5-7.1,27"/>
		</g>
		<g>
			<g>
				<g>
					<path style="fill:#377F45;" d="M663.8,365.9c1.3,0,2.5,0.2,3.4,0.5c1,0.3,1.8,0.8,2.4,1.3c0.7,0.6,1.1,1.2,1.5,2
						c0.3,0.8,0.5,1.6,0.5,2.4v0.4c0,1.3-0.3,2.6-0.8,3.7c-0.6,1.1-1.4,2.3-2.6,3.5l-8,8.5h11.4c0.4,0,0.7,0.1,0.9,0.4
						c0.2,0.3,0.3,0.6,0.3,1c0,0.4-0.1,0.7-0.3,1c-0.2,0.3-0.5,0.4-0.9,0.4H658c-0.9,0-1.6-0.2-2-0.5s-0.6-0.8-0.6-1.4
						c0-0.3,0.1-0.6,0.2-0.9c0.2-0.3,0.4-0.6,0.8-1l8.5-9c0.6-0.7,1.1-1.2,1.5-1.7c0.4-0.5,0.7-1,0.9-1.4s0.4-0.9,0.5-1.3
						c0.1-0.4,0.1-0.9,0.1-1.3v-0.2c0-1-0.4-1.8-1.1-2.4s-1.8-0.9-3.2-0.9c-1.2,0-2.1,0.2-2.9,0.7c-0.8,0.5-1.5,1.2-2.1,2.1
						c-0.3,0.3-0.6,0.6-1,0.6c-0.4,0.1-0.8,0-1.1-0.3s-0.6-0.6-0.7-1c-0.1-0.4,0-0.8,0.2-1.2c0.7-1.2,1.7-2.1,3-2.9
						C660.4,366.2,662,365.9,663.8,365.9z"/>
					<path style="fill:#377F45;" d="M683.5,365.9c3.2,0,5.4,1,6.8,3.1c1.4,2.1,2.1,5,2.1,8.9v1.7c0,3.9-0.7,6.8-2.1,8.9
						c-1.4,2.1-3.7,3.1-6.8,3.1c-3.1,0-5.4-1-6.8-3.1c-1.4-2.1-2.1-5-2.1-8.9v-1.7c0-3.9,0.7-6.8,2.1-8.9
						C678.1,366.9,680.4,365.9,683.5,365.9z M683.5,369.1c-1,0-1.9,0.2-2.6,0.5c-0.7,0.3-1.3,0.9-1.7,1.6c-0.4,0.7-0.7,1.7-0.9,2.8
						c-0.2,1.1-0.3,2.5-0.3,4v1.2c0,1.6,0.1,2.9,0.3,4c0.2,1.1,0.5,2,0.9,2.8c0.4,0.7,1,1.3,1.7,1.6c0.7,0.4,1.6,0.5,2.6,0.5
						s1.9-0.2,2.6-0.5c0.7-0.3,1.3-0.9,1.7-1.6c0.4-0.7,0.7-1.7,0.9-2.8c0.2-1.1,0.3-2.5,0.3-4v-1.2c0-1.6-0.1-2.9-0.3-4
						c-0.2-1.1-0.5-2-0.9-2.8c-0.4-0.7-1-1.3-1.7-1.6C685.4,369.3,684.6,369.1,683.5,369.1z"/>
					<path style="fill:#377F45;" d="M703.1,365.9c3.2,0,5.4,1,6.8,3.1c1.4,2.1,2.1,5,2.1,8.9v1.7c0,3.9-0.7,6.8-2.1,8.9
						c-1.4,2.1-3.7,3.1-6.8,3.1c-3.1,0-5.4-1-6.8-3.1c-1.4-2.1-2.1-5-2.1-8.9v-1.7c0-3.9,0.7-6.8,2.1-8.9
						C697.7,366.9,700,365.9,703.1,365.9z M703.1,369.1c-1,0-1.9,0.2-2.6,0.5c-0.7,0.3-1.3,0.9-1.7,1.6c-0.4,0.7-0.7,1.7-0.9,2.8
						c-0.2,1.1-0.3,2.5-0.3,4v1.2c0,1.6,0.1,2.9,0.3,4c0.2,1.1,0.5,2,0.9,2.8c0.4,0.7,1,1.3,1.7,1.6c0.7,0.4,1.6,0.5,2.6,0.5
						s1.9-0.2,2.6-0.5c0.7-0.3,1.3-0.9,1.7-1.6c0.4-0.7,0.7-1.7,0.9-2.8c0.2-1.1,0.3-2.5,0.3-4v-1.2c0-1.6-0.1-2.9-0.3-4
						c-0.2-1.1-0.5-2-0.9-2.8c-0.4-0.7-1-1.3-1.7-1.6C705,369.3,704.2,369.1,703.1,369.1z"/>
					<path style="fill:#377F45;" d="M750.6,365.9c1.3,0,2.5,0.2,3.4,0.5c1,0.3,1.8,0.8,2.4,1.3c0.7,0.6,1.1,1.2,1.5,2
						c0.3,0.8,0.5,1.6,0.5,2.4v0.4c0,1.3-0.3,2.6-0.8,3.7c-0.6,1.1-1.4,2.3-2.6,3.5l-8,8.5h11.4c0.4,0,0.7,0.1,0.9,0.4
						c0.2,0.3,0.3,0.6,0.3,1c0,0.4-0.1,0.7-0.3,1c-0.2,0.3-0.5,0.4-0.9,0.4h-13.5c-0.9,0-1.6-0.2-2-0.5s-0.6-0.8-0.6-1.4
						c0-0.3,0.1-0.6,0.2-0.9c0.2-0.3,0.4-0.6,0.8-1l8.5-9c0.6-0.7,1.1-1.2,1.5-1.7c0.4-0.5,0.7-1,0.9-1.4s0.4-0.9,0.5-1.3
						c0.1-0.4,0.1-0.9,0.1-1.3v-0.2c0-1-0.4-1.8-1.1-2.4s-1.8-0.9-3.2-0.9c-1.2,0-2.1,0.2-2.9,0.7c-0.8,0.5-1.5,1.2-2.1,2.1
						c-0.3,0.3-0.6,0.6-1,0.6c-0.4,0.1-0.8,0-1.1-0.3s-0.6-0.6-0.7-1c-0.1-0.4,0-0.8,0.2-1.2c0.7-1.2,1.7-2.1,3-2.9
						C747.2,366.2,748.7,365.9,750.6,365.9z"/>
					<path style="fill:#377F45;" d="M784.4,373.6c0.4,0,0.7,0.1,0.9,0.4c0.2,0.3,0.3,0.6,0.3,1c0,0.4-0.1,0.7-0.3,1
						c-0.2,0.3-0.5,0.4-0.9,0.4h-14.1c-0.4,0-0.7-0.1-0.9-0.4s-0.3-0.6-0.3-1c0-0.4,0.1-0.7,0.3-1s0.5-0.4,0.9-0.4H784.4z
						 M784.4,381c0.4,0,0.7,0.1,0.9,0.4c0.2,0.3,0.3,0.6,0.3,1c0,0.4-0.1,0.7-0.3,1c-0.2,0.3-0.5,0.4-0.9,0.4h-14.1
						c-0.4,0-0.7-0.1-0.9-0.4c-0.2-0.3-0.3-0.6-0.3-1c0-0.4,0.1-0.7,0.3-1c0.2-0.3,0.5-0.4,0.9-0.4H784.4z"/>
					<path style="fill:#377F45;" d="M808.1,366.3c0.4,0.3,0.6,0.6,0.7,1c0.1,0.4,0,0.8-0.3,1.3l-9.9,14.3h8.5v-6.4
						c0-0.5,0.2-0.9,0.5-1.1c0.3-0.2,0.7-0.4,1.2-0.4c0.5,0,0.9,0.1,1.2,0.4c0.3,0.2,0.5,0.6,0.5,1.1v6.4h2.6c0.4,0,0.8,0.1,0.9,0.4
						c0.2,0.3,0.3,0.6,0.3,1s-0.1,0.7-0.3,1c-0.2,0.3-0.5,0.4-0.9,0.4h-2.6v4.1c0,0.5-0.2,0.9-0.5,1.1c-0.4,0.2-0.8,0.4-1.2,0.4
						c-0.4,0-0.8-0.1-1.2-0.4c-0.4-0.2-0.5-0.6-0.5-1.1v-4.1h-10.4c-0.8,0-1.4-0.1-1.8-0.4c-0.4-0.3-0.5-0.7-0.5-1.3
						c0-0.2,0-0.5,0.1-0.7c0.1-0.2,0.4-0.7,0.8-1.3l10.6-15.2c0.3-0.4,0.6-0.6,1-0.7C807.4,366,807.7,366.1,808.1,366.3z"/>
					<path style="fill:#377F45;" d="M823.6,365.9c3.2,0,5.4,1,6.8,3.1c1.4,2.1,2.1,5,2.1,8.9v1.7c0,3.9-0.7,6.8-2.1,8.9
						c-1.4,2.1-3.7,3.1-6.8,3.1c-3.1,0-5.4-1-6.8-3.1c-1.4-2.1-2.1-5-2.1-8.9v-1.7c0-3.9,0.7-6.8,2.1-8.9
						C818.2,366.9,820.5,365.9,823.6,365.9z M823.6,369.1c-1,0-1.9,0.2-2.6,0.5c-0.7,0.3-1.3,0.9-1.7,1.6c-0.4,0.7-0.7,1.7-0.9,2.8
						c-0.2,1.1-0.3,2.5-0.3,4v1.2c0,1.6,0.1,2.9,0.3,4c0.2,1.1,0.5,2,0.9,2.8c0.4,0.7,1,1.3,1.7,1.6c0.7,0.4,1.6,0.5,2.6,0.5
						s1.9-0.2,2.6-0.5c0.7-0.3,1.3-0.9,1.7-1.6c0.4-0.7,0.7-1.7,0.9-2.8c0.2-1.1,0.3-2.5,0.3-4v-1.2c0-1.6-0.1-2.9-0.3-4
						c-0.2-1.1-0.5-2-0.9-2.8c-0.4-0.7-1-1.3-1.7-1.6C825.5,369.3,824.7,369.1,823.6,369.1z"/>
					<path style="fill:#377F45;" d="M843.2,365.9c3.2,0,5.4,1,6.8,3.1c1.4,2.1,2.1,5,2.1,8.9v1.7c0,3.9-0.7,6.8-2.1,8.9
						c-1.4,2.1-3.7,3.1-6.8,3.1c-3.1,0-5.4-1-6.8-3.1c-1.4-2.1-2.1-5-2.1-8.9v-1.7c0-3.9,0.7-6.8,2.1-8.9
						C837.8,366.9,840.1,365.9,843.2,365.9z M843.2,369.1c-1,0-1.9,0.2-2.6,0.5c-0.7,0.3-1.3,0.9-1.7,1.6c-0.4,0.7-0.7,1.7-0.9,2.8
						c-0.2,1.1-0.3,2.5-0.3,4v1.2c0,1.6,0.1,2.9,0.3,4c0.2,1.1,0.5,2,0.9,2.8c0.4,0.7,1,1.3,1.7,1.6c0.7,0.4,1.6,0.5,2.6,0.5
						s1.9-0.2,2.6-0.5c0.7-0.3,1.3-0.9,1.7-1.6c0.4-0.7,0.7-1.7,0.9-2.8c0.2-1.1,0.3-2.5,0.3-4v-1.2c0-1.6-0.1-2.9-0.3-4
						c-0.2-1.1-0.5-2-0.9-2.8c-0.4-0.7-1-1.3-1.7-1.6C845.1,369.3,844.3,369.1,843.2,369.1z"/>
				</g>
			</g>
			<path style="fill:#377F45;" d="M730,379l5.1-5.1c0.7-0.7,0.7-1.9,0-2.5c-0.7-0.7-1.9-0.7-2.5,0l-5.1,5.1l-5.1-5.1
				c-0.7-0.7-1.9-0.7-2.5,0c-0.7,0.7-0.7,1.9,0,2.5l5.1,5.1l-5.1,5.1c-0.7,0.7-0.7,1.9,0,2.5c0.7,0.7,1.9,0.7,2.5,0l5.1-5.1l5.1,5.1
				c0.7,0.7,1.9,0.7,2.5,0c0.6-0.7,0.7-1.9,0-2.5L730,379z"/>
		</g>
	</g>
</g>
<g>
</g>
<g>
</g>
<g>
</g>
<g>
</g>
<g>
</g>
<g>
</g>
</svg>
