
<svg xmlns="http://www.w3.org/2000/svg" version="1.1" xmlns:xlink="http://www.w3.org/1999/xlink" preserveAspectRatio="none" x="0px" y="0px" width="1280px" height="720px" viewBox="0 0 1280 720">
<defs>
<g id="Layer1_0_FILL">
<path fill="#4BAEF3" stroke="none" d="
M 235.35 289.55
L 211.55 289.55
Q 201.05 289.55 201.05 300.05
L 201.05 320.05
Q 201.05 330.55 211.55 330.55
L 235.35 330.55
Q 245.85 330.55 245.85 320.05
L 245.85 300.05
Q 245.85 289.55 235.35 289.55
M 231.15 300.05
Q 231.25 300.25 231.25 300.55
L 231.25 318.55
Q 231.25 319.15 230.85 319.4 230.65 319.5 230.4 319.55 230.1 319.6 229.8 319.6 229.55 319.6 229.35 319.55 229.1 319.5 228.95 319.4 228.55 319.15 228.55 318.55
L 228.55 300.55
Q 228.55 300.25 228.65 300.05 228.75 299.85 228.95 299.7 229.1 299.6 229.35 299.55 229.55 299.45 229.8 299.45 230.1 299.45 230.4 299.55 230.65 299.6 230.85 299.7 231.05 299.85 231.15 300.05
M 227.35 300.1
Q 227.75 300.3 227.75 300.95
L 227.75 317.95
Q 227.75 318.2 227.65 318.45 227.55 318.65 227.35 318.8 227.15 318.9 226.85 319 226.6 319.05 226.3 319.05 226.05 319.05 225.85 319 225.6 318.9 225.4 318.8 225.2 318.65 225.1 318.45 225 318.2 225 317.95
L 225 311.4 222.85 311.4
Q 222.7 311.7 222.55 312 222.4 312.25 222.25 312.5 221.6 313.35 220.75 313.8 219.9 314.3 218.8 314.3 218.3 314.3 217.85 314.15 217.35 314.05 216.9 313.8 216.5 313.6 216.15 313.25 215.8 312.95 215.5 312.5 215.2 312.05 214.95 311.55 214.7 311.05 214.55 310.4 214.35 309.8 214.3 309.1 214.2 308.4 214.2 307.6 214.2 306.8 214.3 306.1 214.35 305.4 214.55 304.75 214.7 304.15 214.95 303.65 215.2 303.15 215.5 302.7 215.8 302.3 216.15 301.95 216.5 301.6 216.9 301.35 217.35 301.15 217.85 301 218.3 300.9 218.8 300.9 219.9 300.9 220.75 301.35 221.15 301.6 221.55 301.95 221.95 302.3 222.25 302.7 222.4 302.9 222.5 303.15 222.65 303.4 222.75 303.65
L 225 303.65 225 300.95
Q 225 300.3 225.4 300.1 225.6 300 225.85 299.95 226.05 299.85 226.3 299.85 226.6 299.85 226.85 299.95 227.15 300 227.35 300.1
M 216.9 307.6
Q 216.9 308.55 217 309.3 217.15 310.05 217.4 310.6 217.65 311.15 218 311.4 218.4 311.7 218.85 311.7 219.25 311.7 219.6 311.4 219.95 311.15 220.25 310.6 220.5 310.05 220.6 309.3 220.75 308.55 220.75 307.6 220.75 306.65 220.6 305.85 220.5 305.1 220.25 304.55 219.95 304.05 219.6 303.75 219.25 303.5 218.85 303.5 218.4 303.5 218 303.75 217.65 304.05 217.4 304.55 216.9 305.65 216.9 307.6
M 223.45 307.6
Q 223.45 307.9 223.45 308.2 223.45 308.5 223.4 308.8
L 225 308.8 225 306.2 223.4 306.2
Q 223.4 306.55 223.45 306.9 223.45 307.25 223.45 307.6 Z"/>

<path fill="#FFFFFF" stroke="none" d="
M 227.75 300.95
Q 227.75 300.3 227.35 300.1 227.15 300 226.85 299.95 226.6 299.85 226.3 299.85 226.05 299.85 225.85 299.95 225.6 300 225.4 300.1 225 300.3 225 300.95
L 225 303.65 222.75 303.65
Q 222.65 303.4 222.5 303.15 222.4 302.9 222.25 302.7 221.95 302.3 221.55 301.95 221.15 301.6 220.75 301.35 219.9 300.9 218.8 300.9 218.3 300.9 217.85 301 217.35 301.15 216.9 301.35 216.5 301.6 216.15 301.95 215.8 302.3 215.5 302.7 215.2 303.15 214.95 303.65 214.7 304.15 214.55 304.75 214.35 305.4 214.3 306.1 214.2 306.8 214.2 307.6 214.2 308.4 214.3 309.1 214.35 309.8 214.55 310.4 214.7 311.05 214.95 311.55 215.2 312.05 215.5 312.5 215.8 312.95 216.15 313.25 216.5 313.6 216.9 313.8 217.35 314.05 217.85 314.15 218.3 314.3 218.8 314.3 219.9 314.3 220.75 313.8 221.6 313.35 222.25 312.5 222.4 312.25 222.55 312 222.7 311.7 222.85 311.4
L 225 311.4 225 317.95
Q 225 318.2 225.1 318.45 225.2 318.65 225.4 318.8 225.6 318.9 225.85 319 226.05 319.05 226.3 319.05 226.6 319.05 226.85 319 227.15 318.9 227.35 318.8 227.55 318.65 227.65 318.45 227.75 318.2 227.75 317.95
L 227.75 300.95
M 223.45 308.2
Q 223.45 307.9 223.45 307.6 223.45 307.25 223.45 306.9 223.4 306.55 223.4 306.2
L 225 306.2 225 308.8 223.4 308.8
Q 223.45 308.5 223.45 308.2
M 217 309.3
Q 216.9 308.55 216.9 307.6 216.9 305.65 217.4 304.55 217.65 304.05 218 303.75 218.4 303.5 218.85 303.5 219.25 303.5 219.6 303.75 219.95 304.05 220.25 304.55 220.5 305.1 220.6 305.85 220.75 306.65 220.75 307.6 220.75 308.55 220.6 309.3 220.5 310.05 220.25 310.6 219.95 311.15 219.6 311.4 219.25 311.7 218.85 311.7 218.4 311.7 218 311.4 217.65 311.15 217.4 310.6 217.15 310.05 217 309.3
M 231.25 300.55
Q 231.25 300.25 231.15 300.05 231.05 299.85 230.85 299.7 230.65 299.6 230.4 299.55 230.1 299.45 229.8 299.45 229.55 299.45 229.35 299.55 229.1 299.6 228.95 299.7 228.75 299.85 228.65 300.05 228.55 300.25 228.55 300.55
L 228.55 318.55
Q 228.55 319.15 228.95 319.4 229.1 319.5 229.35 319.55 229.55 319.6 229.8 319.6 230.1 319.6 230.4 319.55 230.65 319.5 230.85 319.4 231.25 319.15 231.25 318.55
L 231.25 300.55 Z"/>
</g>

<path id="Layer1_1_1_STROKES" stroke="#BBDECB" stroke-width="5" stroke-linejoin="round" stroke-linecap="butt" fill="none" d="
M 740.85 297.6
L 1086.85 297.6
Q 1090.25 297.6 1092.85 298.35 1101.55 300.9 1101.85 311.9
L 1101.85 608.6
Q 1101.85 623.6 1086.85 623.6
L 740.85 623.6
Q 725.85 623.6 725.85 608.6
L 725.85 312.6
Q 725.85 297.6 740.85 297.6 Z"/>

<path id="Layer1_2_1_STROKES" stroke="#1E1E1E" stroke-width="3" stroke-linejoin="round" stroke-linecap="round" fill="none" d="
M 306.65 493.15
L 266.4 332.9 425.75 374.05"/>

<path id="Layer1_3_1_STROKES" stroke="#3567D7" stroke-width="3" stroke-linejoin="round" stroke-linecap="round" fill="none" d="
M 425.75 374.05
L 466 534.3 306.65 493.15"/>
</defs>

<g transform="matrix( 1, 0, 0, 1, 0,0) ">
<use xlink:href="#Layer1_0_FILL"/>
</g>

<g transform="matrix( 1, 0, 0, 1, -547.65,-27) ">
<use xlink:href="#Layer1_1_1_STROKES"/>
</g>

<g transform="matrix( 1, 0, 0, 1, 0,0) ">
<use xlink:href="#Layer1_2_1_STROKES"/>
</g>

<g transform="matrix( 1, 0, 0, 1, 0,0) ">
<use xlink:href="#Layer1_3_1_STROKES"/>
</g>
</svg>
