<?xml version="1.0" encoding="utf-8"?>
<!-- Generator: Adobe Illustrator 23.0.0, SVG Export Plug-In . SVG Version: 6.00 Build 0)  -->
<svg version="1.1" id="레이어_1" xmlns="http://www.w3.org/2000/svg" xmlns:xlink="http://www.w3.org/1999/xlink" x="0px"
	 y="0px" width="804px" height="466.2px" viewBox="0 0 804 466.2" style="enable-background:new 0 0 804 466.2;"
	 xml:space="preserve">
<g>
	<path d="M278.1,7.1c0.6,0,1.1,0.2,1.6,0.5c0.4,0.3,0.7,0.8,0.7,1.5V13h8c0.5,0,0.9,0.2,1.2,0.6c0.3,0.4,0.4,0.8,0.4,1.4
		s-0.1,1-0.4,1.4c-0.3,0.4-0.6,0.6-1.2,0.6h-21c-0.5,0-0.9-0.2-1.2-0.6c-0.3-0.4-0.4-0.9-0.4-1.4s0.1-1,0.4-1.4
		c0.3-0.4,0.6-0.6,1.2-0.6h8.5V9c0-0.7,0.2-1.2,0.7-1.5C277,7.3,277.5,7.1,278.1,7.1z M278.1,19.9c1.5,0,2.8,0.2,4,0.7
		c1.2,0.4,2.2,1.1,3,1.9c0.8,0.8,1.4,1.7,1.9,2.8c0.4,1.1,0.7,2.3,0.7,3.7c0,1.3-0.2,2.6-0.7,3.7s-1.1,2-1.9,2.8
		c-0.8,0.8-1.8,1.4-3,1.9c-1.2,0.4-2.5,0.7-4,0.7s-2.8-0.2-4-0.7c-1.2-0.4-2.2-1.1-3-1.9c-0.8-0.8-1.5-1.7-1.9-2.8
		c-0.4-1.1-0.6-2.3-0.6-3.7c0-1.3,0.2-2.6,0.6-3.7c0.4-1.1,1.1-2,1.9-2.8c0.8-0.8,1.8-1.4,3-1.9C275.3,20.1,276.6,19.9,278.1,19.9z
		 M278.1,23.6c-1.7,0-3,0.5-4,1.4s-1.5,2.3-1.5,3.9c0,1.6,0.5,2.9,1.5,3.9c1,1,2.3,1.5,4,1.5c1.7,0,3-0.5,4-1.5c1-1,1.5-2.3,1.5-3.9
		c0-1.6-0.5-2.9-1.5-3.9C281.1,24.1,279.8,23.6,278.1,23.6z M295.4,7.2c0.6,0,1.1,0.2,1.6,0.5c0.4,0.3,0.7,0.8,0.7,1.5v12.4h4.9
		c0.6,0,1,0.2,1.3,0.6c0.3,0.4,0.4,0.8,0.4,1.4s-0.1,1-0.4,1.4c-0.3,0.4-0.7,0.6-1.3,0.6h-4.9v19.4c0,0.7-0.2,1.2-0.7,1.5
		c-0.4,0.3-1,0.5-1.6,0.5c-0.6,0-1.1-0.2-1.5-0.5c-0.4-0.3-0.7-0.8-0.7-1.5V9.1c0-0.7,0.2-1.2,0.7-1.5
		C294.3,7.4,294.8,7.2,295.4,7.2z"/>
	<path d="M321.4,23.6c0.6,0,1.1,0.2,1.6,0.5c0.4,0.3,0.7,0.8,0.7,1.5V39h17.7c0.5,0,0.9,0.2,1.2,0.6c0.3,0.4,0.4,0.8,0.4,1.4
		s-0.1,1-0.4,1.4c-0.3,0.4-0.6,0.6-1.2,0.6h-34.3c-0.5,0-0.9-0.2-1.2-0.6c-0.3-0.4-0.4-0.9-0.4-1.4s0.1-1,0.4-1.4
		c0.3-0.4,0.6-0.6,1.2-0.6h12.1V25.5c0-0.7,0.2-1.2,0.7-1.5S320.9,23.6,321.4,23.6z M334.5,10.1c1.3,0,2.2,0.2,2.7,0.7
		c0.5,0.5,0.7,1.4,0.7,2.7v4.2c0,2.8-0.1,5.3-0.4,7.5s-0.6,4.4-1,6.5c-0.1,0.6-0.5,1-1,1.3c-0.5,0.3-1.1,0.3-1.7,0.2
		c-0.5-0.1-1-0.3-1.3-0.7c-0.3-0.4-0.5-0.9-0.3-1.5c0.4-2.2,0.7-4.3,1-6.5c0.2-2.1,0.4-4.5,0.4-7v-2.6c0-0.6-0.3-1-0.9-1h-20.9
		c-0.6,0-1-0.2-1.2-0.6c-0.2-0.4-0.4-0.8-0.4-1.4c0-0.6,0.1-1,0.4-1.4c0.2-0.4,0.6-0.6,1.2-0.6H334.5z"/>
	<path d="M368.5,8.6c0.6,0,1.1,0.2,1.6,0.5c0.5,0.3,0.7,0.8,0.7,1.5v4c0,1.4,0.2,2.6,0.7,3.7c0.4,1.1,1.2,2,2.3,2.9
		c1,0.9,2,1.7,2.9,2.4c0.9,0.7,1.8,1.3,2.5,1.9c0.5,0.4,0.8,0.8,0.8,1.4c0,0.5-0.1,1-0.4,1.4c-0.3,0.4-0.7,0.7-1.2,0.9
		c-0.5,0.2-1,0.1-1.6-0.3c-0.6-0.4-1.3-1-2.2-1.6c-0.8-0.7-1.8-1.4-2.7-2.2c-1.1-0.9-1.9-1.7-2.4-2.3s-0.8-1.1-0.9-1.6h0
		c-0.1,0.5-0.4,1.1-0.9,1.7c-0.5,0.6-1.3,1.4-2.4,2.3c-1,0.8-1.9,1.6-2.9,2.3c-0.9,0.7-1.9,1.4-2.8,2.1c-0.5,0.4-1,0.5-1.5,0.3
		s-0.9-0.5-1.2-0.9c-0.3-0.4-0.4-0.9-0.4-1.5c0-0.6,0.3-1,0.8-1.4c1.1-0.8,2.1-1.6,3.1-2.3c1-0.7,2-1.5,3-2.4c1-0.9,1.8-1.9,2.2-2.9
		c0.4-1.1,0.7-2.3,0.7-3.7v-4.1c0-0.7,0.2-1.2,0.7-1.5C367.4,8.7,367.9,8.6,368.5,8.6z M388.3,33.3c0.5,0,0.9,0.2,1.2,0.6
		c0.3,0.4,0.4,0.8,0.4,1.3c0,0.5-0.1,1-0.4,1.3c-0.3,0.4-0.6,0.6-1.2,0.6h-4v8.4h4.4c0.5,0,0.9,0.2,1.2,0.6c0.3,0.4,0.4,0.8,0.4,1.3
		s-0.1,1-0.4,1.3c-0.3,0.4-0.6,0.5-1.2,0.5h-25.6c-0.5,0-0.9-0.2-1.2-0.5c-0.3-0.4-0.4-0.8-0.4-1.3s0.1-1,0.4-1.3s0.6-0.6,1.2-0.6
		h4.5v-8.4h-4c-0.5,0-0.9-0.2-1.2-0.6s-0.4-0.8-0.4-1.3c0-0.5,0.1-1,0.4-1.3s0.6-0.6,1.2-0.6H388.3z M380,45.4v-8.4h-8.1v8.4H380z
		 M386.7,7.2c0.6,0,1.1,0.2,1.6,0.5c0.4,0.3,0.7,0.8,0.7,1.5v20.1c0,0.7-0.2,1.2-0.7,1.5c-0.4,0.3-1,0.5-1.6,0.5s-1.1-0.2-1.6-0.5
		c-0.4-0.3-0.7-0.8-0.7-1.5V9.1c0-0.7,0.2-1.2,0.7-1.5C385.6,7.4,386.1,7.2,386.7,7.2z"/>
	<path d="M432,29.5c0.3,0.4,0.4,0.9,0.4,1.4c0,0.5-0.1,1-0.4,1.4c-0.3,0.4-0.6,0.6-1.2,0.6h-34.3c-0.5,0-0.9-0.2-1.2-0.6
		c-0.3-0.4-0.4-0.8-0.4-1.4c0-0.5,0.1-1,0.4-1.4c0.3-0.4,0.6-0.6,1.2-0.6h34.3C431.4,28.9,431.8,29.1,432,29.5z M402.3,36.1
		c0.6,0,1.1,0.2,1.6,0.5c0.4,0.3,0.7,0.8,0.7,1.5v6.2c0,0.6,0.3,1,0.9,1h21.1c0.5,0,0.9,0.2,1.2,0.6c0.3,0.4,0.4,0.8,0.4,1.4
		c0,0.5-0.1,1-0.4,1.4s-0.6,0.6-1.2,0.6h-23.1c-1.3,0-2.2-0.2-2.7-0.7c-0.5-0.5-0.7-1.4-0.7-2.7V38c0-0.7,0.2-1.2,0.7-1.5
		C401.2,36.3,401.7,36.1,402.3,36.1z M413.7,8.3c4.3,0,7.6,0.7,10,2.1c2.4,1.4,3.5,3.5,3.5,6.3c0,2.8-1.2,4.9-3.5,6.3
		c-2.4,1.4-5.7,2.1-10,2.1c-4.3,0-7.6-0.7-10-2.1c-2.4-1.4-3.5-3.5-3.5-6.3c0-2.8,1.2-4.9,3.5-6.3C406.1,8.9,409.4,8.3,413.7,8.3z
		 M413.7,12c-3.2,0-5.5,0.4-7,1.2c-1.4,0.8-2.2,1.9-2.2,3.4c0,1.4,0.7,2.6,2.2,3.4c1.4,0.8,3.8,1.2,7,1.2c3.2,0,5.5-0.4,7-1.2
		c1.4-0.8,2.2-1.9,2.2-3.4c0-1.4-0.7-2.6-2.2-3.4C419.2,12.4,416.9,12,413.7,12z"/>
	<path d="M481.9,29.1c0.3,0.4,0.4,0.8,0.4,1.4s-0.1,1-0.4,1.4c-0.3,0.4-0.6,0.6-1.2,0.6h-14.4v6.4c0,0.6-0.2,1.1-0.6,1.3
		c-0.4,0.3-1,0.4-1.6,0.4c-0.6,0-1.1-0.1-1.5-0.4c-0.4-0.3-0.6-0.7-0.6-1.3v-6.4h-15.4c-0.5,0-0.9-0.2-1.2-0.6
		c-0.3-0.4-0.4-0.8-0.4-1.4s0.1-1,0.4-1.4c0.3-0.4,0.6-0.6,1.2-0.6h34.3C481.2,28.5,481.6,28.7,481.9,29.1z M452.2,36.1
		c0.6,0,1.1,0.2,1.6,0.5c0.4,0.3,0.7,0.8,0.7,1.5v6.2c0,0.6,0.3,1,0.9,1h21.1c0.5,0,0.9,0.2,1.2,0.6c0.3,0.4,0.4,0.8,0.4,1.4
		c0,0.5-0.1,1-0.4,1.4s-0.6,0.6-1.2,0.6h-23.1c-1.3,0-2.2-0.2-2.7-0.7c-0.5-0.5-0.7-1.4-0.7-2.7V38c0-0.7,0.2-1.2,0.7-1.5
		C451,36.3,451.6,36.1,452.2,36.1z M463.5,8.3c4.3,0,7.6,0.7,10,2.1c2.4,1.4,3.5,3.5,3.5,6.3c0,2.8-1.2,4.9-3.5,6.3
		c-2.4,1.4-5.7,2.1-10,2.1c-4.3,0-7.6-0.7-10-2.1c-2.4-1.4-3.5-3.5-3.5-6.3c0-2.8,1.2-4.9,3.5-6.3C455.9,8.9,459.2,8.3,463.5,8.3z
		 M463.5,12c-3.2,0-5.5,0.4-7,1.2c-1.4,0.8-2.2,1.9-2.2,3.4c0,1.4,0.7,2.6,2.2,3.4c1.4,0.8,3.8,1.2,7,1.2c3.2,0,5.5-0.4,7-1.2
		c1.4-0.8,2.2-1.9,2.2-3.4c0-1.4-0.7-2.6-2.2-3.4C469.1,12.4,466.8,12,463.5,12z"/>
	<path d="M505.3,27.8h15c0.5,0,0.9,0.2,1.1,0.6c0.3,0.4,0.4,0.8,0.4,1.4c0,0.5-0.1,1-0.4,1.4c-0.3,0.4-0.6,0.6-1.1,0.6H486
		c-0.5,0-0.9-0.2-1.1-0.6c-0.3-0.4-0.4-0.8-0.4-1.4c0-0.5,0.1-1,0.4-1.4c0.3-0.4,0.6-0.6,1.1-0.6h15v-6.5h4.4V27.8z M503.2,34.5
		c4.3,0,7.6,0.6,10,1.9s3.6,3.3,3.6,6c0,2.7-1.2,4.7-3.6,6s-5.7,1.9-10,1.9c-4.3,0-7.6-0.6-10-1.9c-2.4-1.3-3.6-3.3-3.6-6
		c0-2.7,1.2-4.7,3.6-6C495.5,35.1,498.9,34.5,503.2,34.5z M516.2,9.2c0.3,0.4,0.4,0.8,0.4,1.4c0,0.5-0.1,1-0.4,1.3
		c-0.3,0.4-0.6,0.6-1.1,0.6h-20c-0.6,0-0.9,0.3-0.9,1v5c0,0.6,0.3,1,0.9,1h20.5c0.5,0,0.9,0.2,1.1,0.6c0.3,0.4,0.4,0.8,0.4,1.3
		c0,0.5-0.1,1-0.4,1.4c-0.3,0.4-0.6,0.6-1.1,0.6H493c-1.3,0-2.2-0.2-2.7-0.7c-0.5-0.5-0.7-1.4-0.7-2.7v-7.7c0-1.3,0.2-2.2,0.7-2.7
		c0.5-0.5,1.4-0.7,2.7-0.7h22C515.5,8.6,515.9,8.8,516.2,9.2z M503.2,38.2c-3.2,0-5.6,0.4-7,1.1c-1.5,0.7-2.2,1.8-2.2,3.1
		s0.7,2.4,2.2,3.1c1.5,0.7,3.8,1.1,7,1.1c3.2,0,5.6-0.4,7-1.1c1.5-0.7,2.2-1.8,2.2-3.1s-0.7-2.4-2.2-3.1
		C508.7,38.5,506.4,38.2,503.2,38.2z"/>
</g>
<g>
	<defs>
		<rect id="SVGID_1_" x="2" y="63.5" width="800" height="401.5"/>
	</defs>
	<clipPath id="SVGID_2_">
		<use xlink:href="#SVGID_1_"  style="overflow:visible;"/>
	</clipPath>
	<path style="clip-path:url(#SVGID_2_);fill:#B6D56A;" d="M801.8,450.9c0,7.8-6.3,14.1-14.1,14.1l-771.5,0C8.3,465,2,458.7,2,450.9
		V77.6c0-7.8,6.3-14.2,14.2-14.2l771.7,0c7.8,0,14.1,6.3,14.1,14.2L801.8,450.9z"/>
	<path style="clip-path:url(#SVGID_2_);fill:#BDD978;" d="M16.6,464.2c-7.6,0-13.7-6.1-13.7-13.7l0-372.3c0-0.3,0-0.7,0-1.1
		C3.4,70,9.3,64.4,16.6,64.4h770.8c0.3,0,0.7,0,1.1,0c7.1,0.5,12.7,6.4,12.7,13.7l-0.2,372.3c0,0.3,0,0.7,0,1.1
		c-0.5,7.1-6.4,12.7-13.7,12.7H16.6z"/>
	<path style="clip-path:url(#SVGID_2_);fill:#C4DD87;" d="M17,463.4c-7.3,0-13.3-6-13.3-13.3l0-371.4c0-0.3,0-0.7,0-1
		C4.2,70.7,10,65.2,17,65.2h769.9c0.3,0,0.7,0,1,0c6.9,0.5,12.4,6.2,12.4,13.3l-0.2,371.4c0,0.3,0,0.7,0,1
		c-0.5,6.9-6.2,12.4-13.2,12.4H17z"/>
	<path style="clip-path:url(#SVGID_2_);fill:#CBE196;" d="M17.4,462.5c-7.1,0-12.9-5.8-12.9-12.9l0-370.5c0-0.3,0-0.7,0-1
		c0.4-6.7,6-12.1,12.8-12.1h769c0.3,0,0.7,0,1,0c6.7,0.4,12,6,12,12.8l-0.2,370.5c0,0.3,0,0.7,0,1c-0.4,6.7-6,12.1-12.8,12.1H17.4z"
		/>
	<path style="clip-path:url(#SVGID_2_);fill:#D2E5A4;" d="M17.8,461.7c-6.9,0-12.4-5.6-12.4-12.4V79.6c0-0.2,0-0.7,0-0.9
		c0.3-6.5,5.8-11.7,12.4-11.7h768.1c0.2,0,0.7,0,0.9,0c6.5,0.4,11.7,5.8,11.7,12.4L798.4,449c0,0.2,0,0.7,0,0.9
		c-0.3,6.5-5.8,11.7-12.4,11.7H17.8z"/>
	<path style="clip-path:url(#SVGID_2_);fill:#D9E9B3;" d="M18.2,460.9c-6.6,0-12-5.4-12-12l0-368.8c0-0.2,0-0.7,0-0.9
		c0.3-6.4,5.5-11.4,12-11.4h767.3c0.2,0,0.7,0,0.9,0c6.3,0.3,11.4,5.5,11.4,12l-0.2,368.8c0,0.2,0,0.7,0,0.9
		c-0.3,6.4-5.6,11.4-12,11.4L18.2,460.9z"/>
	<path style="clip-path:url(#SVGID_2_);fill:#E0EDC1;" d="M18.6,460c-6.4,0-11.6-5.2-11.6-11.6V80.6c0-0.2,0-0.7,0-0.9
		c0.3-6.2,5.3-11.1,11.6-11.1H785c0.2,0,0.7,0,0.9,0c6.1,0.3,11.1,5.3,11.1,11.6l-0.2,367.9c0,0.2,0,0.7,0,0.9
		c-0.3,6.1-5.3,11.1-11.5,11.1H18.6z"/>
	<path style="clip-path:url(#SVGID_2_);fill:#E7F0CE;" d="M19.1,459.2c-6.1,0-11.1-5-11.1-11.2v-367c0-0.1,0-0.7,0-0.8
		c0.2-6,5.1-10.7,11.1-10.7l765.5,0c0.1,0,0.7,0,0.8,0c6,0.2,10.7,5.1,10.7,11.1l-0.2,367c0,0.1,0,0.7,0,0.8
		c-0.2,6-5.1,10.7-11.1,10.7H19.1z"/>
	<path style="clip-path:url(#SVGID_2_);fill:#EDF4DB;" d="M19.5,458.4c-5.9,0-10.7-4.8-10.7-10.7V81.6c0-0.1,0-0.7,0-0.8
		c0.1-5.8,4.9-10.4,10.7-10.4H784c0.1,0,0.7,0,0.8,0c5.8,0.2,10.4,4.9,10.4,10.7L795,447.2v0.8c-0.2,5.8-4.9,10.4-10.7,10.4
		L19.5,458.4z"/>
	<path style="clip-path:url(#SVGID_2_);fill:#F3F8E8;" d="M19.9,457.5c-5.7,0-10.3-4.6-10.3-10.3V82.1v-0.8
		c0.1-5.6,4.7-10.1,10.3-10.1h763.7c0.1,0,0.7,0,0.7,0c5.6,0.1,10.1,4.7,10.1,10.3l-0.2,365.2c0,0.1,0,0.7,0,0.7
		c-0.1,5.6-4.7,10.1-10.2,10.1H19.9z"/>
	<path style="clip-path:url(#SVGID_2_);fill:#FAFCF4;" d="M20.3,456.7c-5.5,0-9.9-4.4-9.9-9.9V82.5c0,0,0-0.7,0-0.7
		c0-5.4,4.5-9.8,9.9-9.8h762.8c0,0,0.7,0,0.7,0c5.4,0,9.7,4.4,9.7,9.9l-0.2,364.3v0.7c0,5.4-4.4,9.8-9.9,9.8H20.3z"/>
	<path style="clip-path:url(#SVGID_2_);fill:#FFFFFF;" d="M792.5,446.4c0,5.2-4.2,9.4-9.4,9.4H20.7c-5.2,0-9.4-4.2-9.4-9.4V82.4
		c0-5.2,4.2-9.4,9.4-9.4h762.5c5.2,0,9.4,4.2,9.4,9.4L792.5,446.4z"/>
	<path style="clip-path:url(#SVGID_2_);fill:#E7F1CF;" d="M238.8,342.4v113.4H783c5.2,0,9.4-4.2,9.4-9.4v-104H238.8z"/>
	<path style="clip-path:url(#SVGID_2_);fill:#E7F1CF;" d="M16,454.6c1.4,0.8,3,1.3,4.7,1.3h218.1V342.4L16,454.6z"/>
	<path style="clip-path:url(#SVGID_2_);fill:#F1F7E3;" d="M238.8,71.6H20.7c-5.2,0-9.4,4.2-9.4,9.4v261.4h227.5V71.6z"/>
	<path style="clip-path:url(#SVGID_2_);fill:#F1F7E3;" d="M11.3,342.4v104c0,3.5,1.9,6.5,4.7,8.1l222.8-112.1H11.3z"/>
	<path style="clip-path:url(#SVGID_2_);fill:#FFFFFF;" d="M792.5,342.4l0.2-260.1c0-5.2-4.2-9.4-9.4-9.4H238.8v269.5H792.5z"/>
</g>
<g>
	<path d="M29,353.2c0,0.6,0,1.3,0,2c1.9-0.1,3.7-0.1,5.3-0.2c1.6-0.1,3-0.1,3.9-0.2c0.6,0,1.1,0.1,1.4,0.3c0.3,0.3,0.5,0.8,0.5,1.6
		c0,0.8-0.1,1.3-0.4,1.6c-0.3,0.3-0.8,0.5-1.4,0.5c-0.2,0-0.5,0-0.8,0c-0.3,0-0.7,0-1.1,0c-0.4,0-0.8,0-1.2,0c-0.4,0-0.7,0-1,0
		c0.6,0.3,1.2,0.8,1.7,1.3c0.5,0.6,0.9,1.2,1.2,1.9c0.3,0.7,0.6,1.5,0.8,2.3c0.2,0.8,0.3,1.7,0.3,2.5c0,1.5-0.2,2.9-0.7,4.2
		c-0.5,1.3-1.2,2.4-2.2,3.4c-1,1-2.2,1.8-3.6,2.4c-1.4,0.6-3,0.9-4.9,1c-1.8,0.1-3.5-0.1-4.9-0.6c-1.4-0.5-2.6-1.2-3.6-2.1
		c-1-0.9-1.7-2-2.2-3.3c-0.5-1.3-0.8-2.7-0.8-4.3c0-0.8,0.1-1.6,0.3-2.4c0.2-0.8,0.4-1.6,0.8-2.3c0.3-0.7,0.7-1.4,1.2-1.9
		c0.4-0.6,0.9-1,1.5-1.3c-0.3,0-0.7,0.1-1.2,0.1c-0.4,0-0.9,0-1.3,0c-0.4,0-0.9,0-1.3,0s-0.7,0-0.9,0c-0.6,0-1-0.1-1.4-0.3
		c-0.3-0.3-0.5-0.8-0.5-1.5c0-0.8,0.1-1.4,0.5-1.7s0.8-0.6,1.3-0.6c1-0.1,2.4-0.1,4.1-0.2s3.6-0.2,5.5-0.2c0-0.7-0.1-1.3-0.1-1.9
		c0-0.6,0-1.1,0-1.5c0-0.8,0.1-1.4,0.4-1.8c0.3-0.4,1-0.7,2-0.7c1.1-0.1,1.9,0.1,2.2,0.4c0.3,0.3,0.5,0.9,0.5,1.8
		C29,352.1,29,352.6,29,353.2z M26.7,374.1c2.1-0.1,3.8-0.8,5-2.1c1.2-1.3,1.7-3.2,1.6-5.5c-0.1-2.3-0.7-4-1.9-5.2
		c-1.2-1.2-2.8-1.8-4.7-1.7c-1,0.1-1.9,0.3-2.7,0.7c-0.8,0.4-1.5,0.9-2,1.6c-0.6,0.7-1,1.4-1.3,2.3s-0.4,1.8-0.4,2.9
		c0,2.2,0.6,4,1.8,5.2C23.3,373.6,24.8,374.2,26.7,374.1z M46.5,394.7c-0.1,0.8-0.4,1.3-0.8,1.6c-0.4,0.3-1,0.5-1.7,0.4
		c-0.7-0.1-1.2-0.3-1.4-0.6c-0.3-0.3-0.4-0.8-0.4-1.5c0-0.6,0-1.3,0-2.1s0-1.6,0-2.5c0-0.9,0-1.7,0-2.6c0-0.9,0-1.7,0-2.4
		c-1.2,0.1-2.6,0.1-4.2,0.2s-3.4,0.1-5.1,0.2c-1.8,0.1-3.5,0.1-5.2,0.2c-1.7,0-3.2,0.1-4.4,0.1c-0.6,0-1.1-0.2-1.4-0.5
		s-0.4-0.9-0.4-1.6c0-0.7,0.2-1.2,0.5-1.5c0.4-0.3,0.8-0.5,1.2-0.5c1.5-0.1,3.3-0.2,5.3-0.3c2-0.1,4-0.2,6-0.3c2-0.1,4-0.1,5.9-0.2
		c1.9,0,3.6-0.1,5.1-0.1c0.6,0,1.1,0.1,1.3,0.4c0.2,0.3,0.3,0.8,0.3,1.4c0,2,0,4.1-0.1,6.1S46.7,392.8,46.5,394.7z M48,359.3
		c0,1.3,0,2.7,0,4.1c0.8,0,1.6,0,2.4,0c0.8,0,1.3,0,1.6,0c0.7,0,1.1,0.1,1.4,0.4c0.3,0.3,0.4,0.8,0.4,1.5s-0.1,1.3-0.3,1.8
		c-0.2,0.4-0.6,0.7-1.2,0.7c-0.4,0-1,0.1-1.8,0.1c-0.8,0-1.7,0-2.6,0c0,1.9-0.1,3.7-0.1,5.3c0,1.6-0.1,2.8-0.2,3.7
		c-0.1,1-0.4,1.6-0.8,1.9c-0.4,0.3-1,0.4-1.6,0.4c-0.7,0-1.2-0.2-1.6-0.5c-0.4-0.3-0.6-0.9-0.6-1.9c0-0.8,0-2,0-3.6
		c0-1.6,0-3.4,0-5.5c0-2,0.1-4.1,0.1-6.3c0-2.2,0-4.2,0.1-6c0-0.9,0.2-1.5,0.6-1.9c0.4-0.4,1-0.6,2-0.6c1.7,0,2.5,0.9,2.5,2.6
		C48,356.7,48,357.9,48,359.3z"/>
	<path d="M65.1,358.7c0.1,1.7,0.1,3.4,0.1,5.1c1.3,1.4,2.7,2.8,4,4.1s2.5,2.5,3.6,3.5c0.4,0.5,0.7,0.9,0.8,1.4c0.1,0.5,0,1-0.4,1.5
		c-0.4,0.6-0.9,1-1.3,1.1c-0.5,0.2-0.9,0-1.4-0.4c-1.3-1.1-2.5-2.2-3.6-3.3c-1.1-1-2.3-2.3-3.7-3.6c-1.2,1.9-2.3,3.6-3.4,5.1
		c-1.1,1.5-2.2,2.9-3.3,4.2c-0.4,0.5-1,0.7-1.6,0.6c-0.6-0.1-1.1-0.5-1.5-1c-0.4-0.5-0.5-1-0.4-1.4c0.1-0.4,0.3-0.9,0.6-1.3
		c0.4-0.6,0.9-1.3,1.5-2.1c0.6-0.8,1.2-1.7,1.8-2.6c0.6-0.9,1.2-1.8,1.8-2.7c0.6-0.9,1.2-1.8,1.6-2.6c-0.1-1.8-0.1-3.5-0.2-5.2
		c-0.1-1.7-0.2-3.4-0.2-5c0-0.8,0.1-1.4,0.4-1.8c0.3-0.4,1-0.7,2-0.7c1.1-0.1,1.9,0.1,2.2,0.4c0.3,0.3,0.5,0.9,0.5,1.8
		C65,355.3,65.1,357,65.1,358.7z M88.7,391.5c-0.5,1.3-1.2,2.4-2.2,3.3c-1,0.9-2.2,1.7-3.6,2.3c-1.5,0.6-3.1,0.9-4.9,0.9
		c-1.9,0.1-3.5-0.1-5-0.6c-1.4-0.4-2.6-1.1-3.6-2c-1-0.9-1.7-1.9-2.2-3.2c-0.5-1.3-0.7-2.7-0.7-4.2c0-1.3,0.2-2.6,0.7-3.9
		c0.5-1.2,1.2-2.4,2.1-3.3c0.9-1,2.1-1.8,3.5-2.4c1.4-0.6,3.1-1,5-1.1c1.8-0.1,3.5,0.1,4.9,0.5c1.4,0.4,2.7,1.1,3.6,2
		c1,0.9,1.8,2,2.3,3.2s0.8,2.7,0.9,4.2C89.4,388.9,89.2,390.3,88.7,391.5z M82.9,392c1.2-1.2,1.8-2.7,1.8-4.5
		c-0.1-1.9-0.7-3.4-1.9-4.4c-1.2-1-2.9-1.5-4.9-1.4c-1.1,0.1-2,0.3-2.8,0.6c-0.8,0.3-1.5,0.8-2.1,1.4c-0.6,0.6-1,1.2-1.3,2
		s-0.4,1.5-0.4,2.4c0,1.9,0.6,3.3,1.8,4.4c1.2,1.1,2.8,1.6,4.9,1.5C80,393.8,81.7,393.2,82.9,392z M83.4,361.7c1.1,0,2,0,2.7,0
		c0-1.2,0.1-2.4,0.1-3.6c0-1.2,0.1-2.3,0.1-3.4c0-0.6,0.2-1.1,0.5-1.4c0.3-0.3,0.9-0.4,1.8-0.4c0.9,0,1.5,0.2,1.9,0.5
		c0.4,0.3,0.5,0.8,0.5,1.3c-0.1,3.7-0.2,7.3-0.3,11.1c-0.1,3.7-0.3,7.2-0.5,10.3c-0.1,1.5-0.9,2.2-2.4,2.1c-1.4,0-2-0.8-2-2.3
		c0-1.4,0-2.9,0-4.5c0-1.6,0-3.3,0.1-5.1c-0.8,0-1.8,0-2.8,0c-1.1,0-2,0-2.9,0c0,1.2-0.1,2.4-0.1,3.6c0,1.2,0,2.4-0.1,3.7
		c0,1.4-0.8,2.1-2.2,2.1c-1.4,0-2.1-0.8-2.2-2.3c-0.1-3-0.1-5.9-0.2-8.9c-0.1-3-0.1-6.1-0.1-9.5c0-0.6,0.2-1.1,0.5-1.4
		c0.3-0.3,0.9-0.4,1.8-0.5c0.9,0,1.5,0.1,1.9,0.5c0.4,0.3,0.6,0.8,0.6,1.4c0,1.2,0,2.4,0,3.5c0,1.1,0,2.2,0,3.2
		C81.3,361.7,82.4,361.7,83.4,361.7z"/>
	<path d="M120.8,354.4c0,2.4,0,5.1,0,7.9c1,0.6,2.3,1.2,3.6,1.9c1.4,0.7,2.8,1.4,4.2,2.1c1.4,0.7,2.8,1.4,4.1,2
		c1.3,0.6,2.4,1.2,3.2,1.6c0.4,0.2,0.7,0.6,0.8,1.1c0.1,0.5,0,1.1-0.4,1.7c-0.4,0.7-0.8,1.2-1.4,1.3c-0.5,0.1-1.1,0-1.6-0.2
		c-0.8-0.3-1.8-0.8-3.1-1.4c-1.3-0.6-2.7-1.3-4.1-1.9c-1.4-0.7-2.8-1.4-4.2-2c-1.4-0.7-2.5-1.3-3.3-1.7c-0.8,0.8-1.8,1.6-2.8,2.4
		c-1,0.8-2.1,1.7-3.2,2.5c-1.1,0.8-2.1,1.6-3.2,2.4c-1,0.7-1.9,1.4-2.7,1.9c-1.2,0.8-2.2,0.6-3-0.5c-0.4-0.5-0.6-1-0.6-1.4
		c0-0.5,0.2-0.9,0.6-1.2c0.9-0.7,1.8-1.5,2.9-2.4c1-0.8,2.1-1.7,3.2-2.6c1.1-0.9,2.1-1.8,3.1-2.7s1.9-1.7,2.7-2.5
		c0-1.3-0.1-2.6-0.1-4.1c0-1.4-0.1-2.7-0.1-3.8c0-0.8,0.1-1.4,0.5-1.8c0.3-0.4,1-0.7,2-0.7c1.1-0.1,1.9,0.1,2.3,0.4
		C120.6,352.9,120.8,353.5,120.8,354.4z M134.8,382.6c-4,0.4-8.1,0.7-12.2,0.9c0,1.7,0,3.3,0,5s-0.1,3.2-0.2,4.6
		c-0.1,1-0.3,1.6-0.8,2c-0.5,0.3-1,0.5-1.7,0.5c-0.7,0-1.2-0.2-1.6-0.6c-0.3-0.4-0.5-1-0.6-2c-0.1-1.3-0.1-2.8-0.1-4.4
		c0-1.6,0-3.2,0-4.9c-1.8,0.1-3.7,0.2-5.5,0.2c-1.8,0-3.7,0.1-5.5,0.2c-1.2,0-1.8-0.8-1.8-2.3c0-0.7,0.1-1.3,0.4-1.6
		c0.3-0.4,0.8-0.6,1.4-0.6c5-0.2,9.9-0.5,14.6-0.7c4.8-0.2,9.3-0.4,13.6-0.6c0.6,0,1,0.1,1.3,0.5c0.3,0.4,0.4,0.9,0.4,1.5
		c0,0.8-0.2,1.3-0.5,1.7C135.7,382.3,135.3,382.5,134.8,382.6z"/>
</g>
<g>
	<path d="M175.2,434.6c0-0.9,0-1.8,0-2.8c-2.4,0.1-4.8,0.1-7.2,0.2c-2.3,0.1-4.6,0.1-6.7,0.2c-1.2,0.1-1.8-0.6-1.8-2.1
		c0-0.7,0.1-1.3,0.4-1.6s0.8-0.6,1.4-0.6c2.5-0.1,5.1-0.2,7.8-0.3s5.5-0.2,8.3-0.2s5.4-0.2,8-0.2s5-0.1,7.1-0.2c0.6,0,1,0.1,1.3,0.5
		c0.3,0.4,0.4,0.9,0.4,1.5c0,0.8-0.2,1.3-0.5,1.6c-0.3,0.3-0.7,0.5-1.3,0.5c-1.8,0.1-3.8,0.2-5.9,0.3c-2.1,0.1-4.2,0.2-6.4,0.3
		c0,1-0.1,1.9-0.1,2.8c0,0.9-0.1,1.8-0.2,2.5c-0.1,1-0.4,1.6-0.8,2c-0.5,0.3-1,0.5-1.7,0.5c-0.7,0-1.2-0.2-1.5-0.6
		c-0.3-0.4-0.5-1-0.6-2C175.2,436.3,175.2,435.5,175.2,434.6z M188.1,417.7c-0.6,1.4-1.5,2.6-2.6,3.6c-1.1,1-2.5,1.8-4.1,2.3
		c-1.6,0.6-3.4,0.8-5.3,0.8c-1.8,0-3.4-0.3-4.9-0.8s-2.7-1.3-3.7-2.2c-1-1-1.8-2.1-2.3-3.4c-0.6-1.3-0.8-2.8-0.8-4.4
		c0-1.5,0.3-2.9,0.9-4.3c0.6-1.4,1.4-2.6,2.5-3.7c1.1-1.1,2.4-1.9,4-2.6c1.6-0.6,3.4-1,5.4-1c1.7,0,3.3,0.3,4.8,0.8
		c1.5,0.5,2.7,1.3,3.8,2.2c1.1,1,1.9,2.1,2.5,3.4c0.6,1.3,0.9,2.8,0.9,4.3C189,414.6,188.7,416.2,188.1,417.7z M190.3,444.4
		c0,0.7-0.2,1.2-0.5,1.5c-0.4,0.3-0.8,0.5-1.2,0.5c-1.6,0.1-3.3,0.2-5.2,0.3c-1.9,0.1-3.8,0.2-5.7,0.3c-1.9,0.1-3.8,0.1-5.6,0.2
		c-1.8,0-3.5,0.1-4.9,0.1c-0.8,0-1.4-0.3-1.8-0.8c-0.4-0.5-0.7-1.2-0.8-2.1c-0.1-1.5-0.2-2.9-0.3-4c0-1.1-0.1-2.1-0.1-3.1
		c0-0.8,0.2-1.3,0.5-1.5c0.3-0.3,1-0.4,1.9-0.5c0.9-0.1,1.6,0,2,0.3c0.4,0.3,0.7,0.8,0.7,1.5c0,0.6,0,1.1,0,1.5c0,0.4,0,0.8,0,1.2
		s0,0.8,0,1.1c0,0.4,0,0.8,0,1.3c0,0.4,0.2,0.6,0.5,0.6c1.2,0,2.6-0.1,4.3-0.1c1.6,0,3.3-0.1,5-0.2c1.7-0.1,3.4-0.1,5-0.2
		c1.6,0,3-0.1,4.2-0.1c0.6,0,1.1,0.2,1.4,0.5C190.2,443.1,190.3,443.6,190.3,444.4z M176.4,420.3c2.5,0,4.3-0.7,5.6-2.1
		c1.3-1.3,1.9-3.1,1.8-5.2c0-0.9-0.2-1.8-0.6-2.6s-0.8-1.5-1.4-2.1c-0.6-0.6-1.4-1-2.2-1.4c-0.9-0.3-1.8-0.5-2.9-0.5
		c-1.2,0-2.2,0.2-3.1,0.6c-0.9,0.4-1.7,0.9-2.3,1.6c-0.6,0.7-1.1,1.4-1.4,2.3s-0.5,1.7-0.5,2.7c0,1,0.2,1.9,0.5,2.7
		c0.3,0.8,0.8,1.5,1.4,2.1c0.6,0.6,1.3,1.1,2.2,1.4C174.3,420.1,175.3,420.3,176.4,420.3z"/>
	<path d="M215.2,424.9c2.4-0.1,4.8-0.1,7-0.2c2.3-0.1,4.4-0.1,6.3-0.2c0.6,0,1,0.1,1.3,0.5c0.3,0.4,0.4,0.8,0.4,1.4
		c0,0.8-0.2,1.3-0.5,1.7c-0.3,0.3-0.7,0.5-1.3,0.6c-2.2,0.1-4.7,0.3-7.3,0.4c-2.6,0.1-5.3,0.2-8,0.3c-2.7,0.1-5.5,0.2-8.2,0.2
		c-2.7,0.1-5.3,0.1-7.7,0.2c-1.2,0.1-1.8-0.7-1.8-2.2c0-0.7,0.1-1.3,0.4-1.6c0.3-0.3,0.8-0.5,1.4-0.6c2-0.1,4.1-0.1,6.2-0.2
		c2.2-0.1,4.4-0.1,6.6-0.2v-3.7c-1.7,0.1-3.4,0.1-4.9,0.1c-1.5,0-2.9,0-4,0c-0.9,0-1.7-0.3-2.3-0.8c-0.6-0.6-1-1.4-1-2.4
		c-0.1-2-0.1-4.1,0-6.2c0-2.2,0.1-4.2,0.1-6.2c0-0.7,0.1-1.1,0.3-1.4c0.2-0.3,0.6-0.4,1.3-0.4c2.1,0,4.2-0.1,6.4-0.1
		c2.2-0.1,4.5-0.1,6.8-0.1c2.3,0,4.5-0.1,6.7-0.1c2.2,0,4.3,0,6.4,0c1,0,1.5,0.7,1.5,2c0,0.8-0.1,1.3-0.3,1.7
		c-0.2,0.4-0.6,0.6-1.3,0.6c-0.8,0-1.8,0.1-3,0.1c-1.2,0-2.5,0.1-3.9,0.1c-1.4,0-2.9,0-4.4,0.1c-1.5,0-3,0.1-4.4,0.1
		c-1.4,0-2.8,0.1-4,0.1c-1.2,0-2.3,0-3.2,0c0,1.2-0.1,2.5-0.1,4c0,1.5,0,2.9-0.1,4.1c0,0.4,0.2,0.6,0.5,0.6c0.8,0,1.8,0,3,0
		c1.2,0,2.5-0.1,3.9-0.1c1.4,0,2.8-0.1,4.3-0.1c1.5,0,2.9-0.1,4.3-0.1c1.4,0,2.7-0.1,3.9-0.1c1.2,0,2.2-0.1,3-0.1
		c0.6,0,1.1,0.1,1.3,0.3s0.4,0.7,0.5,1.5c0.1,0.8-0.1,1.4-0.4,1.7c-0.3,0.3-0.8,0.5-1.3,0.6c-1.4,0.1-3,0.2-4.8,0.3
		s-3.8,0.2-5.8,0.3V424.9z M223.5,444.4c-0.5,1.2-1.2,2.2-2.2,3s-2.2,1.6-3.6,2.1c-1.4,0.5-3,0.8-4.8,0.9c-1.8,0.1-3.5-0.1-4.9-0.5
		c-1.4-0.4-2.6-1-3.6-1.8c-1-0.8-1.7-1.8-2.2-2.9c-0.5-1.1-0.7-2.4-0.7-3.8c0-1.2,0.2-2.4,0.7-3.5c0.5-1.1,1.1-2.1,2.1-3
		c0.9-0.9,2.1-1.6,3.4-2.2c1.4-0.6,3-0.9,4.9-1c1.8-0.1,3.4,0,4.8,0.4c1.4,0.4,2.6,1,3.6,1.8c1,0.8,1.8,1.8,2.3,2.9s0.8,2.5,0.9,3.9
		C224.2,442,224,443.2,223.5,444.4z M217.8,444.6c1.1-1.1,1.6-2.4,1.6-3.9c-0.1-1.6-0.7-2.9-1.8-3.8c-1.1-0.9-2.7-1.3-4.8-1.2
		c-2.2,0.1-3.8,0.7-4.9,1.8c-1.1,1.1-1.6,2.3-1.5,3.8c0,1.6,0.6,2.9,1.6,3.8c1.1,0.9,2.6,1.4,4.8,1.3
		C215,446.2,216.7,445.7,217.8,444.6z"/>
</g>
<g>
	<path d="M192.1,102c1.1,0.2,1.6,0.7,1.7,1.6c0.1,1.9,0.1,4.1,0.1,6.5c0,2.4,0.1,5,0.1,7.6c0,2.6,0,5.2,0,7.7c0,2.5-0.1,4.9-0.1,7
		c0,0.7,0,1.3,0,1.8c0,0.5-0.1,1-0.2,1.3c-0.1,0.4-0.4,0.7-0.7,0.9c-0.4,0.2-0.9,0.3-1.6,0.4c-0.8,0-1.3,0-1.6-0.2s-0.5-0.5-0.6-0.8
		c-0.1-0.4-0.1-0.9-0.1-1.4c0-0.6,0-1.2,0-2c-0.1-1.7-0.1-3.7-0.1-5.8c0-2.1-0.1-4.3-0.1-6.5c0-2.2,0-4.4-0.1-6.5
		c0-2.1-0.1-4.1-0.1-5.8c-0.4,0.3-0.9,0.6-1.7,1c-0.7,0.4-1.5,0.9-2.3,1.4c-0.8,0.5-1.6,0.9-2.4,1.4s-1.5,0.8-2,1.1
		c-0.5,0.3-1,0.4-1.5,0.3c-0.5-0.1-0.9-0.4-1.2-0.9c-0.3-0.4-0.4-1-0.4-1.6s0.2-1,0.5-1.3c0.6-0.4,1.3-0.9,2.2-1.4
		c0.9-0.6,1.8-1.2,2.8-1.8c1-0.6,1.9-1.2,2.8-1.8c0.9-0.6,1.6-1,2.2-1.4c0.6-0.4,1.3-0.7,2-0.8C190.2,101.8,191,101.9,192.1,102z"/>
	<path d="M222.5,132.2c-1.3,1.4-2.8,2.5-4.5,3.3c-1.7,0.8-3.6,1.2-5.5,1.3c-1.9,0.1-3.7-0.3-5.4-1c-1.7-0.7-3.2-1.8-4.5-3.2
		s-2.3-3.2-3.1-5.4c-0.8-2.2-1.1-4.7-1.1-7.5c0-2.6,0.3-4.9,1-7c0.7-2.1,1.6-3.9,2.8-5.5c1.2-1.5,2.7-2.8,4.5-3.7
		c1.8-0.9,3.7-1.4,5.9-1.6c2.1-0.2,4.1,0.1,5.8,0.9c1.8,0.8,3.3,1.9,4.5,3.4c1.2,1.5,2.2,3.4,2.9,5.7c0.7,2.3,1,4.8,1,7.7
		c0,2.7-0.4,5.1-1.1,7.2C224.9,129,223.8,130.8,222.5,132.2z M216,131.5c1.1-0.6,2.1-1.4,3-2.5c0.8-1.1,1.5-2.4,2-4
		c0.5-1.6,0.7-3.5,0.7-5.6c0-2.2-0.2-4.2-0.7-5.9s-1.2-3-2-4.1c-0.8-1.1-1.8-1.9-2.9-2.3c-1.1-0.5-2.3-0.7-3.5-0.6
		c-2.7,0.2-5,1.4-6.7,3.6c-1.7,2.2-2.5,5.4-2.5,9.6c0,2.2,0.2,4.2,0.7,5.8c0.5,1.6,1.2,3,2,4s1.8,1.8,2.9,2.3
		c1.1,0.5,2.2,0.7,3.4,0.6C213.6,132.4,214.9,132.1,216,131.5z"/>
</g>
<g>
	<path d="M225.8,329.4c-1.3,1.4-2.8,2.5-4.5,3.3c-1.7,0.8-3.6,1.2-5.5,1.3c-1.9,0.1-3.7-0.3-5.4-1c-1.7-0.7-3.2-1.8-4.5-3.2
		s-2.3-3.2-3.1-5.4c-0.8-2.2-1.1-4.7-1.1-7.5c0-2.6,0.3-4.9,1-7c0.7-2.1,1.6-3.9,2.8-5.5c1.2-1.5,2.7-2.8,4.5-3.7
		c1.8-0.9,3.7-1.4,5.9-1.6c2.1-0.2,4.1,0.1,5.8,0.9c1.8,0.8,3.3,1.9,4.5,3.4c1.2,1.5,2.2,3.4,2.9,5.7c0.7,2.3,1,4.8,1,7.7
		c0,2.7-0.4,5.1-1.1,7.2C228.1,326.2,227.1,328,225.8,329.4z M219.3,328.7c1.1-0.6,2.1-1.4,3-2.5s1.5-2.4,2-4
		c0.5-1.6,0.7-3.5,0.7-5.6c0-2.2-0.2-4.2-0.7-5.9s-1.2-3-2-4.1c-0.8-1.1-1.8-1.9-2.9-2.3c-1.1-0.5-2.3-0.7-3.5-0.6
		c-2.7,0.2-5,1.4-6.7,3.6c-1.7,2.2-2.5,5.4-2.5,9.6c0,2.2,0.2,4.2,0.7,5.8c0.5,1.6,1.2,3,2,4s1.8,1.8,2.9,2.3
		c1.1,0.5,2.2,0.7,3.4,0.6C216.9,329.6,218.1,329.3,219.3,328.7z"/>
</g>
<g>
	<path d="M33.1,122.8c-0.2,0.3-0.5,0.6-0.9,0.9c-0.9,0.5-1.5,0.5-2.1,0.2c-0.5-0.4-1.1-0.9-1.7-1.6c-0.8-1-1.6-2.2-2.4-3.6
		c-0.8-1.4-1.5-3.1-2.1-4.9c-0.6-1.8-1.1-3.8-1.4-5.9c-0.4-2.1-0.5-4.3-0.5-6.6c0-2.3,0.2-4.4,0.6-6.6c0.4-2.1,0.9-4.1,1.5-5.9
		c0.6-1.8,1.4-3.4,2.2-4.9c0.8-1.4,1.6-2.7,2.4-3.6c0.6-0.7,1.2-1.3,1.8-1.6c0.6-0.3,1.2-0.3,2,0.1c0.5,0.3,0.9,0.6,1.1,0.9
		c0.2,0.3,0.3,0.6,0.2,1c0,0.3-0.2,0.7-0.4,1.1c-0.2,0.4-0.4,0.7-0.6,1.1c-0.9,1.4-1.7,2.7-2.4,4.1c-0.7,1.4-1.4,2.9-1.9,4.4
		c-0.5,1.5-1,3.1-1.3,4.7c-0.3,1.6-0.5,3.4-0.5,5.2c0,3.7,0.5,7,1.6,9.9c1.1,3,2.5,5.8,4.2,8.5c0.2,0.4,0.4,0.7,0.6,1.1
		c0.2,0.4,0.3,0.7,0.3,1.1C33.3,122.2,33.2,122.5,33.1,122.8z"/>
	<path d="M65.3,83.8c0-0.9,0.2-1.5,0.6-1.9c0.4-0.4,1-0.6,2-0.6c1.7,0,2.5,0.9,2.5,2.6c0,1.6-0.1,3.4-0.1,5.3c0,1.9,0,3.8-0.1,5.6
		c0,1.8-0.1,3.5-0.1,5.1c-0.1,1.6-0.1,2.8-0.2,3.7c-0.1,1-0.4,1.6-0.8,1.9c-0.4,0.3-1,0.4-1.6,0.4c-0.7,0-1.2-0.2-1.6-0.5
		c-0.4-0.3-0.6-0.9-0.6-1.9c0-0.6,0-1.3,0-2.3c0-1,0-2.1,0-3.2C64,98,62.7,98,61.4,98s-2.5,0.1-3.4,0.1c0,0.5,0,0.9,0,1.4
		c0,0.4,0,0.9,0,1.4c0,0.9-0.2,1.4-0.4,1.7c-0.2,0.3-0.7,0.5-1.3,0.5c-0.5,0-1.2,0.1-2.1,0.1c-0.9,0.1-1.9,0.1-3,0.2
		c-1.1,0-2.2,0.1-3.4,0.2c-1.2,0.1-2.3,0.1-3.4,0.1c-1.1,0-2.1,0.1-2.9,0.1c-0.9,0-1.6,0-2,0c-0.9,0-1.6-0.3-2.1-0.9
		c-0.5-0.6-0.8-1.4-0.9-2.4c-0.1-1.2-0.1-2.5-0.1-4c0-1.5-0.1-3-0.1-4.6c0-1.6,0-3.2,0-4.7c0-1.6,0-3,0-4.2c0-1.4,0.6-2.2,1.8-2.2
		c0.6,0,1.3-0.1,2.3-0.1c1,0,2-0.1,3.2-0.1c1.2,0,2.4-0.1,3.6-0.1c1.2,0,2.5,0,3.6-0.1s2.3,0,3.2,0c1,0,1.8,0,2.4,0
		c1.1,0,1.6,0.5,1.6,1.6c0,0.5,0,0.9,0,1.4c0,0.5,0,0.9,0,1.4c0.5,0,1.1,0,1.7,0c0.6,0,1.3,0,2-0.1c0.7,0,1.3-0.1,2-0.1
		c0.6,0,1.2,0,1.7,0V83.8z M52.5,99.2c0.4,0,0.6-0.2,0.6-0.7c0-0.8,0-1.8,0-3c0-1.1,0-2.3-0.1-3.6c0-1.2-0.1-2.5-0.1-3.7
		c0-1.2-0.1-2.4-0.1-3.4L41,85.2c0,1,0,2.1,0,3.3c0,1.2,0,2.4,0,3.7c0,1.3,0,2.6,0,3.8c0,1.3,0,2.5,0,3.7L52.5,99.2z M69.3,119.8
		c-0.5,1.3-1.2,2.4-2.2,3.3c-1,0.9-2.2,1.7-3.6,2.3c-1.4,0.6-3,0.9-4.8,0.9c-1.8,0.1-3.5-0.1-4.9-0.6c-1.4-0.4-2.6-1.1-3.5-2
		c-0.9-0.9-1.7-1.9-2.2-3.2c-0.5-1.3-0.7-2.7-0.7-4.2c0-1.3,0.2-2.6,0.7-3.9c0.5-1.2,1.1-2.4,2-3.3c0.9-1,2-1.8,3.4-2.4s3-1,4.9-1.1
		c1.8-0.1,3.4,0.1,4.8,0.5c1.4,0.4,2.6,1.1,3.6,2s1.7,2,2.3,3.2c0.5,1.3,0.8,2.7,0.9,4.2C69.9,117.2,69.7,118.6,69.3,119.8z
		 M63.4,120.3c0.6-0.6,1-1.2,1.3-2c0.3-0.8,0.4-1.6,0.4-2.5c-0.1-1.9-0.7-3.4-1.9-4.4c-1.2-1-2.7-1.5-4.6-1.4
		c-1,0.1-1.9,0.3-2.7,0.6s-1.4,0.8-2,1.4c-0.6,0.6-1,1.2-1.2,2c-0.3,0.7-0.4,1.5-0.4,2.4c0,1.9,0.6,3.3,1.7,4.4
		c1.1,1.1,2.6,1.6,4.6,1.5c1,0,2-0.2,2.8-0.6C62.1,121.3,62.8,120.8,63.4,120.3z M57.9,93.7c0.5,0,1-0.1,1.7-0.1
		c0.6,0,1.3,0,1.9-0.1c0.6,0,1.3-0.1,1.9-0.1s1.2,0,1.7-0.1c0-0.7,0-1.4,0-2.1c0-0.7,0-1.5,0-2.2c-0.5,0-1.1,0.1-1.8,0.1
		c-0.6,0-1.3,0-2,0.1c-0.7,0-1.3,0.1-1.9,0.1c-0.6,0-1.1,0-1.6,0V93.7z"/>
	<path d="M79.4,122.2c-0.3,0.4-0.6,0.7-0.9,1c-0.3,0.3-0.5,0.5-0.8,0.7c-0.3,0.2-0.6,0.2-0.9,0.2c-0.3,0-0.7-0.1-1.1-0.4
		c-0.5-0.3-0.8-0.6-1-0.9c-0.2-0.3-0.3-0.6-0.2-1c0-0.3,0.1-0.7,0.3-1.1c0.2-0.4,0.4-0.7,0.6-1.1c1.7-2.7,3.1-5.5,4.2-8.5
		c1.1-3,1.6-6.3,1.6-9.9c0-1.8-0.2-3.5-0.5-5.2c-0.3-1.6-0.7-3.2-1.3-4.7c-0.5-1.5-1.2-3-1.9-4.4c-0.7-1.4-1.5-2.8-2.4-4.1
		c-0.2-0.4-0.4-0.7-0.6-1.1c-0.2-0.4-0.3-0.7-0.4-1.1c0-0.3,0-0.7,0.2-1c0.2-0.3,0.6-0.6,1.1-0.9c0.8-0.4,1.5-0.4,2-0.1
		c0.6,0.3,1.1,0.9,1.8,1.6c0.8,1,1.6,2.2,2.4,3.6c0.8,1.4,1.5,3.1,2.2,4.9c0.6,1.8,1.1,3.8,1.5,5.9c0.4,2.1,0.6,4.3,0.6,6.6
		c0,2.3-0.2,4.5-0.5,6.6c-0.4,2.1-0.8,4.1-1.4,5.9c-0.6,1.8-1.3,3.4-2.1,4.9C81.1,120,80.3,121.2,79.4,122.2z"/>
</g>
<g>
	<defs>
		<rect id="SVGID_3_" x="2" y="63.5" width="800" height="401.5"/>
	</defs>
	<clipPath id="SVGID_4_">
		<use xlink:href="#SVGID_3_"  style="overflow:visible;"/>
	</clipPath>
	<polyline style="clip-path:url(#SVGID_4_);fill:#EDC6C9;" points="285.2,342.4 285.2,207.2 336.5,207.2 336.5,342.4 	"/>
	<polygon style="clip-path:url(#SVGID_4_);fill:#C8245B;" points="338.1,342.4 334.9,342.4 334.9,208.8 286.8,208.8 286.8,342.4 
		283.6,342.4 283.6,207.2 285.2,205.7 336.5,205.7 338.1,207.2 	"/>
	<polyline style="clip-path:url(#SVGID_4_);fill:#EDC6C9;" points="423.9,342.4 423.9,117.4 475.3,117.4 475.3,342.4 	"/>
	<polygon style="clip-path:url(#SVGID_4_);fill:#C8245B;" points="476.9,342.4 473.7,342.4 473.7,119 425.5,119 425.5,342.4 
		422.3,342.4 422.3,117.4 423.9,115.8 475.3,115.8 476.9,117.4 	"/>
	<polyline style="clip-path:url(#SVGID_4_);fill:#EDC6C9;" points="562.7,342.4 562.7,252.5 614.1,252.5 614.1,342.4 	"/>
	<polygon style="clip-path:url(#SVGID_4_);fill:#C8245B;" points="615.7,342.4 612.5,342.4 612.5,254.1 564.3,254.1 564.3,342.4 
		561.1,342.4 561.1,252.5 562.7,250.9 614.1,250.9 615.7,252.5 	"/>
	<polyline style="clip-path:url(#SVGID_4_);fill:#EDC6C9;" points="701.5,342.4 701.5,297.6 752.8,297.6 752.8,342.4 	"/>
	<polygon style="clip-path:url(#SVGID_4_);fill:#C8245B;" points="754.4,342.4 751.2,342.4 751.2,299.2 703,299.2 703,342.4 
		699.9,342.4 699.9,297.6 701.5,296 752.8,296 754.4,297.6 	"/>
	<path style="clip-path:url(#SVGID_4_);fill:#B5B6B6;" d="M794,207.9H238.8v-1.2H794V207.9z M794,162.8H238.8v-1.2H794V162.8z"/>
	<rect x="238.8" y="115.7" style="clip-path:url(#SVGID_4_);fill:#B5B6B6;" width="555.1" height="2.8"/>
	<path style="clip-path:url(#SVGID_4_);fill:#B5B6B6;" d="M794,343H238.8v-1.2H794V343z M794,298H238.8v-1.2H794V298z M794,252.9
		H238.8v-1.2H794V252.9z"/>
	<polygon style="clip-path:url(#SVGID_4_);fill:#00924F;" points="240.4,462.1 237.2,462.1 237.2,344 8.6,344 8.6,340.8 
		237.2,340.8 237.2,67.7 240.4,67.7 240.4,340.8 792.5,340.8 792.5,344 240.4,344 	"/>
	
		<rect x="2.7" y="397.7" transform="matrix(0.8934 -0.4492 0.4492 0.8934 -165.4134 99.6965)" style="clip-path:url(#SVGID_4_);fill:#00924F;" width="249.4" height="1.6"/>
	<path style="clip-path:url(#SVGID_4_);fill:#00924F;" d="M656.7,460.3h-3.2V67.8h3.2V460.3z M518.2,460.3H515V67.8h3.2V460.3z
		 M379.7,460.3h-3.2V67.8h3.2V460.3z"/>
</g>
<g>
	<path d="M294,416.9c1.7-0.1,3.3-0.1,4.9-0.1c1.5,0,2.9,0,4.1,0c0.6,0,1.1,0.1,1.3,0.4c0.2,0.3,0.3,0.8,0.3,1.4c0,1,0,1.9,0,2.6
		s0,1.5-0.1,2.1c0,0.7-0.1,1.4-0.2,2.1c-0.1,0.7-0.2,1.6-0.3,2.5c-0.1,0.8-0.4,1.3-0.8,1.6c-0.4,0.3-1,0.5-1.7,0.4
		c-0.7-0.1-1.2-0.3-1.4-0.6s-0.4-0.8-0.4-1.5c-0.1-1.2-0.1-2.2-0.1-3.2c0-1,0-2.2,0-3.6c-1.2,0.1-2.6,0.1-4.4,0.2
		c-1.8,0.1-3.6,0.1-5.4,0.2c-1.9,0-3.7,0.1-5.5,0.1c-1.8,0-3.3,0.1-4.5,0.1c-0.6,0-1.1-0.1-1.4-0.4c-0.3-0.3-0.4-0.8-0.4-1.6
		c0-0.7,0.2-1.2,0.5-1.5s0.7-0.5,1.3-0.5c1.2-0.1,2.6-0.1,4.2-0.2c1.6-0.1,3.2-0.2,4.9-0.2v-3.8c-2.3,0.1-4.5,0.1-6.7,0.2
		c-2.2,0-4.2,0.1-6.2,0.2c-1.2,0.1-1.8-0.6-1.8-2.1c0-0.7,0.1-1.3,0.4-1.6c0.3-0.3,0.8-0.5,1.4-0.6c2.5-0.1,5.1-0.2,7.8-0.3
		c2.8-0.1,5.5-0.2,8.3-0.2s5.4-0.2,8-0.2c2.6-0.1,5-0.1,7.1-0.2c0.6,0,1,0.1,1.3,0.5c0.3,0.4,0.4,0.9,0.4,1.5c0,0.8-0.2,1.3-0.5,1.6
		c-0.3,0.3-0.7,0.4-1.3,0.5c-2,0.1-4.1,0.3-6.3,0.3c-2.2,0.1-4.5,0.2-6.9,0.3V416.9z M292.5,388.3c1.3-0.1,2.6-0.1,3.9-0.2
		c1.3,0,2.4-0.1,3.5-0.1c1.1,0,2.1-0.1,3-0.1c0.9,0,1.6-0.1,2.1-0.1c0.6,0,1.1,0.1,1.4,0.4c0.3,0.3,0.5,0.9,0.5,1.7
		c0,0.8-0.1,1.3-0.4,1.6c-0.3,0.3-0.8,0.5-1.4,0.6c-0.5,0-1.2,0.1-2.1,0.1c-0.9,0-1.9,0.1-3,0.1s-2.3,0.1-3.6,0.1
		c-1.3,0-2.6,0.1-3.9,0.2c0,0.8,0,1.5,0,2.2c0,0.7,0,1.3,0,1.7c1,0.4,2.2,0.9,3.5,1.4c1.3,0.5,2.6,1,3.9,1.5s2.6,1,3.8,1.5
		c1.2,0.5,2.2,0.9,3.1,1.2c0.4,0.2,0.7,0.5,0.8,1c0.1,0.5,0,1.1-0.4,1.7c-0.4,0.7-0.8,1.2-1.4,1.3s-1.1,0.1-1.6-0.1
		c-0.8-0.3-1.7-0.6-2.9-1.1c-1.2-0.5-2.4-1-3.7-1.5c-1.3-0.5-2.6-1.1-3.8-1.6s-2.4-1-3.4-1.3c-0.8,0.5-1.8,1-2.8,1.6
		c-1,0.6-2.1,1.2-3.2,1.7s-2.1,1.1-3.1,1.7c-1,0.5-1.9,1-2.7,1.4c-0.6,0.3-1.2,0.4-1.7,0.3c-0.5,0-1-0.3-1.4-0.8
		c-0.4-0.5-0.6-1-0.6-1.4s0.2-0.8,0.6-1.1c0.9-0.5,1.8-1.1,2.9-1.7c1-0.6,2.1-1.2,3.1-1.8c1-0.6,2.1-1.2,3.1-1.8
		c1-0.6,1.9-1.1,2.7-1.6c0-0.4,0-1,0-1.7s0-1.5,0-2.3c-2.3,0.1-4.4,0.2-6.3,0.2c-1.9,0.1-3.3,0.1-4.2,0.2c-0.6,0-1-0.1-1.3-0.4
		c-0.3-0.3-0.5-0.9-0.5-1.6c0-0.8,0.1-1.4,0.4-1.8c0.3-0.4,0.7-0.6,1.2-0.6c1,0,2.5-0.1,4.4-0.2s4-0.2,6.3-0.3c0-0.6,0-1.2,0-1.7
		c0-0.5,0-0.9,0-1.1c0-0.8,0.1-1.4,0.5-1.8c0.3-0.4,1-0.7,2-0.7c1.1-0.1,1.9,0.1,2.3,0.4c0.4,0.3,0.6,0.9,0.6,1.8V388.3z"/>
	<path d="M340.6,403.2c-0.2,1.9-0.3,3.5-0.5,4.8c0.3,0,0.5,0,0.8,0s0.5,0,0.8,0c0.6,0,1,0.1,1.3,0.5s0.4,0.9,0.4,1.5
		c0,0.8-0.2,1.3-0.5,1.7c-0.3,0.3-0.7,0.6-1.3,0.6c-1.9,0.2-3.8,0.3-5.7,0.5c-1.9,0.2-3.9,0.3-5.9,0.4c0,1.1,0,2.2,0,3.5
		c0,1.2,0,2.5-0.1,3.7c0,1.2-0.1,2.4-0.1,3.4c0,1.1-0.1,2-0.1,2.7c-0.1,1-0.3,1.6-0.8,2c-0.5,0.3-1,0.5-1.7,0.5
		c-0.7,0-1.2-0.2-1.6-0.6c-0.3-0.4-0.5-1-0.6-2c0-0.7,0-1.6,0-2.6c0-1,0-2.1,0-3.3c0-1.2,0-2.4,0-3.6s0-2.4,0-3.4
		c-1.9,0.1-3.9,0.2-5.8,0.2c-1.9,0.1-3.9,0.1-5.9,0.2c-1.2,0-1.8-0.8-1.8-2.3c0-0.7,0.1-1.3,0.4-1.6c0.3-0.4,0.8-0.6,1.4-0.6
		c3.8-0.2,7.5-0.3,11.2-0.5s7.3-0.4,10.8-0.5c0.1-0.7,0.1-1.6,0.2-2.6c0.1-1,0.2-2.1,0.2-3.3c0.1-1.2,0.2-2.3,0.3-3.5
		s0.2-2.3,0.3-3.4c0.1-1.1,0.1-2,0.2-2.9c0.1-0.8,0.1-1.5,0.1-1.9c-0.8,0-1.8,0.1-3,0.1c-1.2,0-2.6,0.1-4.1,0.1s-3,0-4.6,0
		c-1.6,0-3.1,0-4.6,0s-2.8,0-4.1,0c-1.3,0-2.3,0-3.1,0c-1.2,0-1.8-0.7-1.8-2.2c0-0.7,0.2-1.2,0.5-1.5c0.4-0.3,0.8-0.5,1.2-0.5
		c1-0.1,2.3-0.1,3.8-0.2s3-0.1,4.7-0.1c1.7,0,3.4-0.1,5.2-0.1c1.8,0,3.5-0.1,5.1-0.1c1.7,0,3.2,0,4.6,0c1.4,0,2.6,0,3.6,0
		c1.2,0,1.7,0.6,1.6,1.9c-0.1,0.9-0.2,2.2-0.3,3.9c-0.1,1.7-0.3,3.6-0.5,5.5C340.9,399.3,340.8,401.3,340.6,403.2z"/>
</g>
<g>
	<path d="M431.6,402.7c-0.1,3.6-0.1,7.2-0.2,10.8c0.8-0.1,1.6-0.1,2.3-0.1c0.7,0,1.3,0,1.8-0.1c0.6,0,1.1,0.1,1.4,0.3
		c0.3,0.3,0.5,0.8,0.5,1.6c0.1,1.5-0.5,2.3-1.8,2.4c-0.7,0.1-1.7,0.1-3,0.2c-1.3,0.1-2.7,0.2-4.2,0.3s-3.1,0.2-4.8,0.3
		c-1.7,0.1-3.3,0.2-4.8,0.3s-2.9,0.2-4.2,0.3c-1.3,0.1-2.3,0.1-3,0.2c-1.2,0.1-1.9-0.6-2-2.1c-0.1-0.8,0.1-1.4,0.4-1.8
		c0.3-0.4,0.7-0.6,1.2-0.6s1-0.1,1.7-0.1c0.6,0,1.4-0.1,2.2-0.1c-0.1-3.6-0.1-7.3-0.2-11c-0.1-3.7-0.1-7.4-0.2-11
		c-0.7,0-1.3,0.1-1.8,0.1s-1.1,0-1.5,0c-0.6,0-1-0.1-1.3-0.5c-0.3-0.4-0.5-0.9-0.5-1.7c0-0.8,0.1-1.4,0.4-1.7
		c0.3-0.4,0.7-0.6,1.2-0.6c0.8,0,1.9-0.1,3.1-0.1c1.3,0,2.6-0.1,4.1-0.1c1.5,0,3-0.1,4.5-0.1s3.1-0.1,4.5-0.1c1.5,0,2.8,0,4,0
		c1.2,0,2.3,0,3.1,0c0.6,0,1.1,0.1,1.4,0.4c0.3,0.3,0.5,0.8,0.5,1.6c0,1.5-0.6,2.3-1.8,2.3c-0.3,0-0.8,0.1-1.2,0.1c-0.5,0-1,0-1.5,0
		C431.7,395.5,431.7,399.1,431.6,402.7z M419.9,403.2c0,3.7,0,7.3,0,10.9c1.1-0.1,2.2-0.1,3.3-0.2c1.1-0.1,2.2-0.1,3.3-0.2
		c0-3.6,0-7.2,0-10.8s0-7.2,0.1-10.8c-1.1,0-2.2,0.1-3.4,0.1c-1.2,0-2.3,0.1-3.4,0.1C419.9,395.9,419.9,399.6,419.9,403.2z
		 M444.9,422.4c-0.1,1-0.3,1.6-0.8,2c-0.4,0.4-1,0.5-1.7,0.4c-0.7-0.1-1.2-0.3-1.5-0.8c-0.3-0.5-0.5-1.2-0.5-2.3
		c0-11.1,0.2-22.1,0.6-33.1c0-0.9,0.2-1.5,0.6-1.9c0.4-0.4,1.1-0.6,2-0.6c1.6,0,2.5,0.9,2.5,2.6c0,2.7-0.1,5.5-0.1,8.4
		s-0.1,5.8-0.2,8.7c-0.1,2.9-0.2,5.7-0.4,8.5C445.3,417.2,445.1,419.8,444.9,422.4z"/>
	<path d="M480.2,403.2c-0.2,1.9-0.3,3.5-0.5,4.8c0.3,0,0.5,0,0.8,0s0.5,0,0.8,0c0.6,0,1,0.1,1.3,0.5s0.4,0.9,0.4,1.5
		c0,0.8-0.2,1.3-0.5,1.7c-0.3,0.3-0.7,0.6-1.3,0.6c-1.9,0.2-3.8,0.3-5.7,0.5c-1.9,0.2-3.9,0.3-5.9,0.4c0,1.1,0,2.2,0,3.5
		c0,1.2,0,2.5-0.1,3.7c0,1.2-0.1,2.4-0.1,3.4c0,1.1-0.1,2-0.1,2.7c-0.1,1-0.3,1.6-0.8,2c-0.5,0.3-1,0.5-1.7,0.5
		c-0.7,0-1.2-0.2-1.6-0.6c-0.3-0.4-0.5-1-0.6-2c0-0.7,0-1.6,0-2.6c0-1,0-2.1,0-3.3c0-1.2,0-2.4,0-3.6s0-2.4,0-3.4
		c-1.9,0.1-3.9,0.2-5.8,0.2c-1.9,0.1-3.9,0.1-5.9,0.2c-1.2,0-1.8-0.8-1.8-2.3c0-0.7,0.1-1.3,0.4-1.6c0.3-0.4,0.8-0.6,1.4-0.6
		c3.8-0.2,7.5-0.3,11.2-0.5s7.3-0.4,10.8-0.5c0.1-0.7,0.1-1.6,0.2-2.6c0.1-1,0.2-2.1,0.2-3.3c0.1-1.2,0.2-2.3,0.3-3.5
		s0.2-2.3,0.3-3.4c0.1-1.1,0.1-2,0.2-2.9c0.1-0.8,0.1-1.5,0.1-1.9c-0.8,0-1.8,0.1-3,0.1c-1.2,0-2.6,0.1-4.1,0.1s-3,0-4.6,0
		c-1.6,0-3.1,0-4.6,0s-2.8,0-4.1,0c-1.3,0-2.3,0-3.1,0c-1.2,0-1.8-0.7-1.8-2.2c0-0.7,0.2-1.2,0.5-1.5c0.4-0.3,0.8-0.5,1.2-0.5
		c1-0.1,2.3-0.1,3.8-0.2s3-0.1,4.7-0.1c1.7,0,3.4-0.1,5.2-0.1c1.8,0,3.5-0.1,5.1-0.1c1.7,0,3.2,0,4.6,0c1.4,0,2.6,0,3.6,0
		c1.2,0,1.7,0.6,1.6,1.9c-0.1,0.9-0.2,2.2-0.3,3.9c-0.1,1.7-0.3,3.6-0.5,5.5C480.6,399.3,480.4,401.3,480.2,403.2z"/>
</g>
<g>
	<path d="M555.7,407c-0.3,0.3-0.8,0.4-1.4,0.5c-0.7,0-1.4,0.1-2.3,0.1s-1.8,0.1-2.8,0.2c-1,0-2,0.1-3,0.1s-2,0.1-2.9,0.1
		s-1.7,0.1-2.4,0.1c-0.7,0-1.3,0-1.7,0c-1,0-1.9-0.3-2.5-0.8c-0.6-0.6-1-1.5-1-2.9c-0.1-2.5-0.3-5.2-0.4-8.2c-0.2-3-0.3-6.2-0.4-9.5
		c0-0.7,0.1-1.2,0.5-1.6c0.3-0.4,0.9-0.6,1.8-0.6c1,0,1.6,0.1,1.9,0.4c0.3,0.3,0.5,0.8,0.5,1.5c0,1.2,0.1,2.3,0.1,3.3
		c0,1,0.1,2.1,0.1,3.1c0.8-0.1,1.8-0.1,2.8-0.2c1-0.1,2.1-0.2,3.2-0.2c1.1-0.1,2.2-0.2,3.2-0.3c1-0.1,2-0.2,2.9-0.3c0-1,0-1.9,0-2.9
		c0-1,0-1.9,0-2.7c0-0.8,0.2-1.3,0.6-1.6c0.4-0.3,1-0.5,1.8-0.5c0.8,0,1.4,0.2,1.8,0.5c0.3,0.3,0.5,0.8,0.5,1.5
		c0,3.1-0.1,6.3-0.2,9.6c-0.1,3.3-0.2,6.6-0.3,9.8C556.2,406.2,556,406.7,555.7,407z M540.1,400.5c0.1,1.1,0.1,2.2,0.2,3.4
		c0.4,0,1.1,0,2.1-0.1c1,0,2.1-0.1,3.2-0.1c1.1,0,2.2-0.1,3.2-0.1c1,0,1.7-0.1,2.2-0.1c0.2,0,0.4-0.1,0.6-0.2
		c0.2-0.1,0.2-0.4,0.2-0.7c0-0.9,0.1-1.9,0.1-3c0-1.1,0-2.2,0-3.4c-0.9,0.1-1.8,0.1-2.9,0.2c-1.1,0.1-2.1,0.2-3.2,0.2
		c-1.1,0.1-2.2,0.2-3.2,0.3s-1.9,0.2-2.7,0.2C540,398.3,540.1,399.4,540.1,400.5z M556.9,418.3c1.5-0.1,2.8-0.1,4-0.2
		c0-0.6,0-1.1,0-1.7c0-0.6,0-1.2,0-1.8c-1.3,0.1-2.7,0.1-4.2,0.2s-3,0.1-4.5,0.2c-1.5,0.1-3,0.1-4.5,0.2c-1.5,0.1-2.9,0.1-4.2,0.1
		c-0.5,0-0.8-0.1-1-0.4c-0.2-0.3-0.3-0.8-0.4-1.6c0-0.8,0.1-1.3,0.3-1.6c0.2-0.3,0.6-0.5,1.1-0.5c3.3-0.2,6.7-0.4,10.1-0.5
		c3.4-0.2,7-0.3,10.8-0.4c0.3,0,0.6,0.1,0.8,0.3c0.2,0.2,0.3,0.5,0.3,1c0,0.6,0,1.3,0,2c0,0.7,0,1.4-0.1,2.2s-0.1,1.5-0.1,2.2
		c0,0.7-0.1,1.4-0.1,2c-0.1,0.7-0.2,1.1-0.4,1.4c-0.2,0.3-0.7,0.4-1.3,0.5c-2.5,0.1-5.1,0.2-7.7,0.3c-2.7,0.1-5.4,0.2-8.1,0.3
		c0,0.5,0,1,0,1.5c0,0.5,0,1,0,1.6c2.8,0,5.5-0.1,8.3-0.1c2.8-0.1,5.6-0.1,8.6-0.2c0.4,0,0.8,0.2,0.9,0.5s0.3,0.8,0.3,1.3
		s-0.1,1.1-0.2,1.5c-0.1,0.4-0.5,0.6-1,0.7c-1.8,0.1-3.4,0.1-4.9,0.2c-1.5,0-2.9,0.1-4.4,0.1c-1.5,0-2.9,0.1-4.4,0.1
		c-1.5,0-3.1,0-4.9,0c-1,0-1.8-0.2-2.2-0.6c-0.4-0.4-0.6-1.2-0.7-2.2c-0.1-1-0.1-2.1-0.2-3.3c0-1.2-0.1-2.3-0.1-3.3
		c0-0.4,0.1-0.7,0.2-0.9c0.1-0.2,0.3-0.4,0.7-0.4c1.2-0.1,2.5-0.1,4-0.2c1.5-0.1,3-0.1,4.5-0.2C553.9,418.4,555.5,418.3,556.9,418.3
		z M566.5,391.9c0,1,0,2.1,0,3.1c0.8,0,1.5,0,2.3,0c0.7,0,1.3,0,1.5,0c0.6,0,1.1,0.1,1.3,0.4c0.3,0.3,0.4,0.8,0.4,1.5
		c0,0.7-0.1,1.3-0.3,1.7c-0.2,0.4-0.6,0.6-1.1,0.7c-0.4,0-0.9,0.1-1.7,0.1c-0.8,0-1.6,0-2.5,0c0,1.5-0.1,2.9-0.1,4.1
		c-0.1,1.3-0.1,2.3-0.2,3.1c-0.1,1-0.3,1.6-0.7,1.9c-0.4,0.3-0.9,0.4-1.5,0.4c-0.7,0-1.2-0.2-1.5-0.5c-0.4-0.3-0.6-0.9-0.6-1.9
		c0-0.8,0-1.8,0-3.1c0-1.3,0-2.7,0-4.3c0-1.6,0.1-3.3,0.1-5.1c0-1.8,0-3.6,0.1-5.5c0-0.9,0.2-1.5,0.5-1.9c0.4-0.4,1-0.6,1.9-0.6
		c1.6,0,2.4,0.9,2.3,2.6C566.5,389.8,566.5,390.8,566.5,391.9z"/>
	<path d="M585.6,414.9c-1.4,0.6-3,0.9-4.8,0.9c-3.7,0.1-6.5-0.9-8.6-3.1s-3.2-5.5-3.2-9.9c0-1.8,0.3-3.5,0.8-5.1
		c0.5-1.6,1.3-3,2.3-4.2c1-1.2,2.3-2.2,3.7-2.9c1.5-0.7,3.1-1.1,5-1.2c1.8-0.1,3.5,0.2,4.9,0.8s2.7,1.5,3.7,2.7
		c1,1.2,1.8,2.6,2.4,4.3c0.5,1.7,0.8,3.5,0.8,5.6c0,2.1-0.3,3.9-0.9,5.5c-0.6,1.6-1.4,3-2.4,4.1C588.3,413.5,587,414.3,585.6,414.9z
		 M583.7,410.7c0.9-0.4,1.7-1,2.3-1.8c0.6-0.8,1.1-1.7,1.5-2.7c0.3-1,0.5-2.2,0.5-3.5c0-1.4-0.2-2.6-0.5-3.7c-0.3-1.1-0.8-2-1.5-2.7
		c-0.6-0.7-1.4-1.3-2.3-1.7c-0.9-0.4-1.8-0.6-2.9-0.5c-1.1,0-2.1,0.3-3,0.7s-1.6,1.1-2.2,1.9s-1.1,1.7-1.4,2.8
		c-0.3,1.1-0.5,2.2-0.5,3.4c0,2.8,0.6,4.9,1.8,6.3c1.2,1.4,2.9,2.1,5.1,2.1C581.8,411.3,582.8,411.1,583.7,410.7z M603.8,406.5
		c0.7,0,1.3,0,1.6,0c0.6,0.1,1.1,0.3,1.3,0.5c0.3,0.3,0.4,0.8,0.3,1.5c-0.1,0.7-0.2,1.3-0.4,1.7c-0.2,0.4-0.6,0.6-1.2,0.6
		c-0.4,0-0.9,0-1.7-0.1c-0.8,0-1.6-0.1-2.4-0.1c-0.1,2-0.2,4-0.3,6c-0.1,1.9-0.2,3.8-0.3,5.6c-0.1,1-0.3,1.6-0.7,2
		c-0.4,0.4-0.9,0.5-1.6,0.4c-0.7-0.1-1.1-0.3-1.5-0.8c-0.3-0.5-0.5-1.2-0.5-2.3c0-11.1,0.2-22.1,0.5-33.1c0-0.9,0.2-1.5,0.6-1.9
		c0.4-0.4,1-0.6,1.9-0.6c1.6,0,2.3,0.9,2.3,2.6c0,1.1,0,2.3,0,3.4c0,1.1,0,2.3,0,3.5c0.8,0,1.5,0,2.3,0s1.3,0,1.5,0
		c0.6,0,1.1,0.1,1.3,0.4s0.4,0.8,0.4,1.5c0,0.7-0.1,1.3-0.3,1.7c-0.2,0.4-0.6,0.7-1.1,0.7c-0.4,0-0.9,0.1-1.8,0.1
		c-0.8,0-1.6,0-2.5,0c0,1.1-0.1,2.1-0.1,3.1c0,1-0.1,2-0.1,3.1C602.3,406.4,603.1,406.4,603.8,406.5z"/>
	<path d="M633.2,403.2c-0.1,1.9-0.3,3.5-0.4,4.8c0.2,0,0.5,0,0.7,0s0.5,0,0.7,0c0.6,0,1,0.1,1.2,0.5c0.2,0.4,0.4,0.9,0.4,1.5
		c0,0.8-0.1,1.3-0.4,1.7c-0.3,0.3-0.7,0.6-1.2,0.6c-1.8,0.2-3.6,0.3-5.4,0.5c-1.8,0.2-3.7,0.3-5.6,0.4c0,1.1,0,2.2,0,3.5
		c0,1.2,0,2.5-0.1,3.7c0,1.2-0.1,2.4-0.1,3.4c0,1.1-0.1,2-0.1,2.7c-0.1,1-0.3,1.6-0.8,2c-0.4,0.3-1,0.5-1.6,0.5
		c-0.7,0-1.2-0.2-1.5-0.6c-0.3-0.4-0.5-1-0.5-2c0-0.7,0-1.6,0-2.6c0-1,0-2.1,0-3.3c0-1.2,0-2.4,0-3.6s0-2.4,0-3.4
		c-1.8,0.1-3.7,0.2-5.5,0.2c-1.8,0.1-3.7,0.1-5.5,0.2c-1.1,0-1.7-0.8-1.7-2.3c0-0.7,0.1-1.3,0.4-1.6c0.3-0.4,0.7-0.6,1.3-0.6
		c3.6-0.2,7.1-0.3,10.6-0.5c3.5-0.2,6.9-0.4,10.2-0.5c0.1-0.7,0.1-1.6,0.2-2.6c0.1-1,0.1-2.1,0.2-3.3s0.2-2.3,0.2-3.5
		s0.2-2.3,0.2-3.4c0.1-1.1,0.1-2,0.2-2.9c0.1-0.8,0.1-1.5,0.1-1.9c-0.7,0-1.7,0.1-2.9,0.1s-2.4,0.1-3.8,0.1c-1.4,0-2.8,0-4.3,0
		s-2.9,0-4.3,0s-2.7,0-3.9,0c-1.2,0-2.2,0-3,0c-1.1,0-1.7-0.7-1.7-2.2c0-0.7,0.2-1.2,0.5-1.5c0.3-0.3,0.7-0.5,1.1-0.5
		c1-0.1,2.2-0.1,3.6-0.2s2.9-0.1,4.5-0.1c1.6,0,3.2-0.1,4.9-0.1c1.7,0,3.3-0.1,4.9-0.1c1.6,0,3,0,4.4,0c1.4,0,2.5,0,3.4,0
		c1.1,0,1.6,0.6,1.5,1.9c-0.1,0.9-0.2,2.2-0.3,3.9c-0.1,1.7-0.3,3.6-0.4,5.5C633.6,399.3,633.4,401.3,633.2,403.2z"/>
</g>
<g>
	<path d="M699.3,399.7c1.5-0.2,3-0.4,4.3-0.5c0-1.8,0-3.5,0-5.2c0-1.7,0-3.3,0-4.9c0-1.5,0.8-2.2,2.5-2.2c0.9,0,1.5,0.2,1.8,0.5
		c0.3,0.3,0.5,0.8,0.5,1.5c0,1,0,2.3,0,3.8c0,1.5,0,3.1,0,4.9c0,1.7,0,3.5-0.1,5.4c0,1.8-0.1,3.6-0.1,5.4c0,1.8-0.1,3.4-0.1,4.9
		c0,1.5-0.1,2.8-0.1,3.9c0,0.7-0.2,1.2-0.6,1.5c-0.3,0.3-0.9,0.5-1.5,0.5c-1,0.1-2.1,0.1-3.2,0.2c-1.1,0-2.2,0.1-3.3,0.1
		c-1.1,0-2.1,0.1-3,0.1c-0.9,0-1.7,0-2.3,0c-1.2,0-2.1-0.2-2.6-0.7s-0.8-1.5-0.9-3c0-0.8-0.1-1.9-0.1-3.2c0-1.3-0.1-2.7-0.1-4.3
		c0-1.6-0.1-3.2-0.1-5c0-1.7-0.1-3.4-0.1-5.1c0-1.7-0.1-3.2-0.1-4.7c0-1.5,0-2.8,0-3.9c0-0.7,0.2-1.2,0.5-1.6c0.3-0.4,1-0.6,1.9-0.6
		c1,0,1.7,0.1,2,0.4c0.3,0.3,0.5,0.8,0.5,1.5c0,1.4,0.1,3.1,0.1,5c0,1.9,0.1,3.9,0.1,6C696.4,400.1,697.8,399.9,699.3,399.7z
		 M695.3,410.6c0,1.7,0.1,3.2,0.1,4.3c0.4,0,1,0,1.6,0c0.6,0,1.3,0,2-0.1c0.7,0,1.3-0.1,2-0.1c0.6,0,1.2-0.1,1.6-0.1
		c0.3,0,0.5-0.1,0.6-0.2c0.2-0.1,0.3-0.4,0.3-0.7c0-1.5,0-3.1,0-4.8c0-1.7,0-3.4,0-5.1c-1.3,0.2-2.8,0.3-4.3,0.5
		c-1.5,0.2-2.9,0.4-4.1,0.5C695.3,406.9,695.3,408.8,695.3,410.6z M717.4,404.8c-0.1,2.7-0.1,5.4-0.2,8.1c-0.1,2.7-0.1,5.7-0.2,8.9
		c0,0.8-0.2,1.4-0.6,1.7c-0.4,0.3-0.9,0.5-1.6,0.5c-1.4,0-2.1-0.8-2.1-2.3c0-5.6-0.1-11.2-0.1-16.7c0-5.6,0-11.1,0-16.7
		c0-0.7,0.2-1.2,0.5-1.5c0.4-0.3,1-0.5,1.9-0.5c0.9,0,1.5,0.1,1.8,0.4c0.4,0.3,0.5,0.7,0.5,1.4c0,2.2,0,4.3,0,6.3c0,2,0,3.9,0,5.8
		c0.9,0,1.7,0,2.7,0c0.9,0,1.7,0,2.3,0c0.1-2,0.1-4,0.2-6c0.1-2,0.1-4.1,0.2-6.3c0-0.6,0.2-1.1,0.5-1.4c0.3-0.3,0.9-0.4,1.8-0.4
		c0.9,0,1.5,0.2,1.9,0.5c0.4,0.3,0.5,0.8,0.5,1.3c0,3.2,0,6.2-0.1,9c-0.1,2.8-0.1,5.6-0.2,8.4c-0.1,2.8-0.2,5.6-0.4,8.5
		c-0.2,2.9-0.3,5.9-0.5,9c-0.1,1.5-0.9,2.2-2.3,2.1c-1.3,0-1.9-0.8-1.9-2.3c0-3.2,0-6.3,0-9.2c0-2.9,0.1-5.7,0.1-8.6H717.4z"/>
	<path d="M760.5,403.2c-0.2,1.9-0.3,3.5-0.5,4.8c0.3,0,0.5,0,0.8,0s0.5,0,0.8,0c0.6,0,1,0.1,1.3,0.5s0.4,0.9,0.4,1.5
		c0,0.8-0.2,1.3-0.5,1.7c-0.3,0.3-0.7,0.6-1.3,0.6c-1.9,0.2-3.8,0.3-5.7,0.5c-1.9,0.2-3.9,0.3-5.9,0.4c0,1.1,0,2.2,0,3.5
		c0,1.2,0,2.5-0.1,3.7c0,1.2-0.1,2.4-0.1,3.4c0,1.1-0.1,2-0.1,2.7c-0.1,1-0.3,1.6-0.8,2c-0.5,0.3-1,0.5-1.7,0.5
		c-0.7,0-1.2-0.2-1.6-0.6c-0.3-0.4-0.5-1-0.6-2c0-0.7,0-1.6,0-2.6c0-1,0-2.1,0-3.3c0-1.2,0-2.4,0-3.6s0-2.4,0-3.4
		c-1.9,0.1-3.9,0.2-5.8,0.2c-1.9,0.1-3.9,0.1-5.9,0.2c-1.2,0-1.8-0.8-1.8-2.3c0-0.7,0.1-1.3,0.4-1.6c0.3-0.4,0.8-0.6,1.4-0.6
		c3.8-0.2,7.5-0.3,11.2-0.5s7.3-0.4,10.8-0.5c0.1-0.7,0.1-1.6,0.2-2.6c0.1-1,0.2-2.1,0.2-3.3c0.1-1.2,0.2-2.3,0.3-3.5
		s0.2-2.3,0.3-3.4c0.1-1.1,0.1-2,0.2-2.9c0.1-0.8,0.1-1.5,0.1-1.9c-0.8,0-1.8,0.1-3,0.1c-1.2,0-2.6,0.1-4.1,0.1s-3,0-4.6,0
		c-1.6,0-3.1,0-4.6,0s-2.8,0-4.1,0c-1.3,0-2.3,0-3.1,0c-1.2,0-1.8-0.7-1.8-2.2c0-0.7,0.2-1.2,0.5-1.5c0.4-0.3,0.8-0.5,1.2-0.5
		c1-0.1,2.3-0.1,3.8-0.2s3-0.1,4.7-0.1c1.7,0,3.4-0.1,5.2-0.1c1.8,0,3.5-0.1,5.1-0.1c1.7,0,3.2,0,4.6,0c1.4,0,2.6,0,3.6,0
		c1.2,0,1.7,0.6,1.6,1.9c-0.1,0.9-0.2,2.2-0.3,3.9c-0.1,1.7-0.3,3.6-0.5,5.5C760.9,399.3,760.7,401.3,760.5,403.2z"/>
</g>
<g>
</g>
<g>
</g>
<g>
</g>
<g>
</g>
<g>
</g>
<g>
</g>
<g>
</g>
<g>
</g>
<g>
</g>
<g>
</g>
<g>
</g>
<g>
</g>
<g>
</g>
<g>
</g>
<g>
</g>
</svg>
