
<svg xmlns="http://www.w3.org/2000/svg" version="1.1" xmlns:xlink="http://www.w3.org/1999/xlink" preserveAspectRatio="none" x="0px" y="0px" width="1280px" height="720px" viewBox="0 0 1280 720">
<defs>
<g id="Layer0_0_FILL">
<path fill="#1E1E1E" stroke="none" d="
M 911.4 240.4
Q 911.4 240.2 911.25 240.05 911.1 239.95 910.9 239.95
L 889.8 239.95
Q 889.6 239.95 889.45 240.05 889.3 240.2 889.3 240.4
L 889.3 243.55
Q 889.3 243.8 889.45 243.9 889.6 244.05 889.8 244.05
L 910.9 244.05
Q 911.1 244.05 911.25 243.9 911.4 243.8 911.4 243.55
L 911.4 240.4
M 911.4 232.1
Q 911.4 231.9 911.25 231.75 911.1 231.6 910.9 231.6
L 889.8 231.6
Q 889.6 231.6 889.45 231.75 889.3 231.9 889.3 232.1
L 889.3 235.25
Q 889.3 235.45 889.45 235.6 889.6 235.75 889.8 235.75
L 910.9 235.75
Q 911.1 235.75 911.25 235.6 911.4 235.45 911.4 235.25
L 911.4 232.1
M 870.25 224.85
Q 869.2 223.7 867.6 223 866.05 222.35 864 222.35 860.8 222.35 858.85 223.8 856.9 225.3 855.8 227.55 854.7 229.85 854.3 232.55 853.95 235.3 853.95 237.75 853.95 245.1 856.4 249.15 858.85 253.2 864 253.2 866.55 253.2 868.4 252.2 870.25 251.1 871.5 249.15 872.75 247.2 873.35 244.3 873.95 241.4 873.95 237.75 873.95 236.1 873.75 234.35 873.6 232.55 873.2 230.85 872.8 229.15 872.1 227.6 871.4 226.05 870.25 224.85
M 864 226.7
Q 865.2 226.7 866.25 227.3 867.25 227.85 868 229.15 868.7 230.5 869.1 232.6 869.45 234.75 869.45 237.75 869.45 240.85 869.1 243 868.7 245.1 868 246.4 867.25 247.75 866.25 248.3 865.2 248.9 864 248.9 862.7 248.9 861.7 248.3 860.7 247.75 860 246.4 859.25 245.1 858.9 243 858.5 240.85 858.5 237.75 858.5 234.75 858.9 232.6 859.25 230.5 860 229.15 860.7 227.85 861.7 227.3 862.7 226.7 864 226.7
M 842.15 222.7
Q 840.4 222.25 838.6 222.25 836.9 222.25 835.25 222.6 833.55 223 831.8 223.6 831.4 223.8 831.25 224 831.1 224.15 831.2 224.4
L 831.55 227.35
Q 831.65 227.7 831.85 227.8 832.05 227.9 832.55 227.7 833.15 227.45 833.95 227.2 834.75 226.95 835.55 226.8 836.35 226.6 837.1 226.5 837.8 226.4 838.35 226.4 839.2 226.4 840.15 226.6 841.1 226.8 841.95 227.3 842.75 227.75 843.3 228.55 843.8 229.3 843.8 230.3 843.8 231.65 843 232.55 842.2 233.5 841 234.1 839.85 234.7 838.6 234.95 837.35 235.2 836.5 235.2
L 834.6 235.2
Q 834.25 235.2 834.15 235.3 834.05 235.35 834.05 235.75
L 834.05 238.7
Q 834.05 239 834.15 239.1 834.25 239.2 834.6 239.2
L 836.55 239.2
Q 838.5 239.2 839.85 239.6 841.25 239.95 842.15 240.65 843 241.3 843.45 242.15 843.85 243 843.85 243.95 843.85 246.6 841.9 247.95 841.25 248.4 840.5 248.65 839.7 248.95 838.85 249.05 838 249.15 837.1 249.1 836.2 249.05 835.4 249 834.3 248.9 833.25 248.6 832.2 248.3 831.15 248 830.6 247.75 830.4 247.9 830.2 248 830.15 248.35
L 829.8 251.4
Q 829.75 251.75 829.95 251.9 830.1 252.1 830.5 252.2 831.95 252.75 833.7 253.05 835.45 253.35 837.2 253.35 839.5 253.35 841.65 252.75 843.8 252.2 845.3 250.95 846.8 249.7 847.65 247.95 848.45 246.15 848.45 244.05 848.45 241.85 847.1 240.05 845.75 238.3 843.1 237.15 844.2 236.65 845.15 235.9 846.1 235.15 846.8 234.15 847.5 233.2 847.9 232.15 848.25 231.05 848.25 229.95 848.25 227.95 847.4 226.45 846.55 224.95 845.2 224.05 843.9 223.15 842.15 222.7
M 794.4 230.75
Q 794.4 231 794.6 231.2
L 801.85 238.35 794.3 245.9
Q 794.1 246.1 794.1 246.4 794.1 246.65 794.3 246.85
L 796 248.55
Q 796.3 249.05 796.9 248.55
L 804.45 241.05 811.9 248.55
Q 812.1 248.7 812.4 248.7 812.65 248.7 812.85 248.55
L 814.5 246.75
Q 814.75 246.55 814.75 246.35 814.75 246.1 814.5 245.9
L 807.05 238.4 814.3 231.1
Q 814.5 230.95 814.5 230.65 814.5 230.35 814.3 230.15
L 812.7 228.45
Q 812.5 228.25 812.25 228.25 812 228.25 811.8 228.45
L 804.5 235.7 797.25 228.55
Q 796.8 228.1 796.3 228.55
L 794.6 230.3
Q 794.4 230.55 794.4 230.75
M 779.2 234.35
Q 779.05 232.55 778.65 230.85 778.25 229.15 777.55 227.6 776.85 226.05 775.7 224.85 774.65 223.7 773.05 223 771.5 222.35 769.45 222.35 766.25 222.35 764.3 223.8 762.35 225.3 761.25 227.55 760.15 229.85 759.75 232.55 759.4 235.3 759.4 237.75 759.4 245.1 761.85 249.15 764.3 253.2 769.45 253.2 772 253.2 773.85 252.2 775.7 251.1 776.95 249.15 778.2 247.2 778.8 244.3 779.4 241.4 779.4 237.75 779.4 236.1 779.2 234.35
M 771.7 227.3
Q 772.7 227.85 773.45 229.15 774.15 230.5 774.55 232.6 774.9 234.75 774.9 237.75 774.9 240.85 774.55 243 774.15 245.1 773.45 246.4 772.7 247.75 771.7 248.3 770.65 248.9 769.45 248.9 768.15 248.9 767.15 248.3 766.15 247.75 765.45 246.4 764.7 245.1 764.35 243 763.95 240.85 763.95 237.75 763.95 234.75 764.35 232.6 764.7 230.5 765.45 229.15 766.15 227.85 767.15 227.3 768.15 226.7 769.45 226.7 770.65 226.7 771.7 227.3
M 747.65 222.6
Q 747.25 222.6 747.15 222.7 747.05 222.8 746.85 223.15
L 734.45 241.75
Q 734.3 241.9 734.15 242.2 733.95 242.5 733.95 242.75
L 733.95 245.75
Q 733.95 246.05 734.1 246.1 734.25 246.2 734.6 246.2
L 747.4 246.2 747.4 252.3
Q 747.4 252.7 747.55 252.85 747.7 253 748.15 253
L 751.05 253
Q 751.45 253 751.55 252.85 751.7 252.75 751.7 252.3
L 751.7 246.2 755.4 246.2
Q 755.75 246.2 755.9 246.1 756.05 246 756.05 245.6
L 756.05 242.7
Q 756.05 242.3 755.9 242.2 755.75 242.1 755.4 242.1
L 751.7 242.1 751.7 223.2
Q 751.7 222.85 751.65 222.75 751.6 222.6 751.3 222.6
L 747.65 222.6
M 747.4 242.1
L 738.8 242.1 747.4 229.05 747.4 242.1
M 731.15 244.75
Q 731.15 243.35 730.7 242.35 730.3 241.3 729.5 240.4 728.7 239.5 727.6 238.7 726.45 237.95 725.05 237.1 727.65 235.3 728.9 233.55 730.15 231.75 730.15 229.75 730.15 228 729.45 226.6 728.75 225.2 727.55 224.25 726.35 223.3 724.65 222.75 722.95 222.25 720.95 222.25 719 222.25 717.3 222.8 715.6 223.35 714.35 224.35 713.1 225.35 712.35 226.75 711.6 228.15 711.6 229.85 711.6 232.15 713 233.95 714.4 235.75 716.8 237.15 715.6 237.75 714.5 238.45 713.4 239.15 712.6 240.05 711.8 240.95 711.25 242.1 710.8 243.25 710.8 244.75 710.8 246.9 711.7 248.5 712.6 250.15 714.05 251.2 715.5 252.25 717.3 252.8 719.15 253.35 720.95 253.35 722.9 253.35 724.7 252.8 726.6 252.25 728 251.2 729.4 250.15 730.25 248.5 731.15 246.9 731.15 244.75
M 724.25 227.3
Q 724.9 227.85 725.25 228.55 725.65 229.25 725.65 230.05 725.65 230.75 725.15 231.55 724.65 232.35 723.9 233.1 723.15 233.8 722.35 234.35 721.6 234.9 720.95 235.15 720.45 234.95 719.65 234.45 718.85 234 718.05 233.3 717.3 232.6 716.75 231.8 716.15 231 716.15 230.15 716.15 229.2 716.6 228.45 717.05 227.75 717.75 227.25 718.4 226.75 719.25 226.45 720.1 226.15 720.95 226.15 721.9 226.15 722.75 226.5 723.6 226.75 724.25 227.3
M 715.8 246.6
Q 715.25 245.75 715.25 244.75 715.25 243.5 715.85 242.6 716.45 241.7 717.3 241.05 718.15 240.4 719.2 240 720.15 239.55 720.95 239.35 721.95 239.7 722.95 240.3 723.95 240.9 724.8 241.6 725.6 242.35 726.1 243.15 726.6 244 726.6 244.75 726.6 245.8 726.1 246.65 725.6 247.5 724.8 248.1 724 248.7 723 249 721.95 249.3 720.95 249.3 720 249.3 718.95 249 717.95 248.65 717.1 248.05 716.3 247.45 715.8 246.6
M 339.6 239.95
Q 339.4 239.95 339.25 240.05 339.1 240.2 339.1 240.4
L 339.1 243.55
Q 339.1 243.8 339.25 243.9 339.4 244.05 339.6 244.05
L 360.7 244.05
Q 360.9 244.05 361.05 243.9 361.2 243.8 361.2 243.55
L 361.2 240.4
Q 361.2 240.2 361.05 240.05 360.9 239.95 360.7 239.95
L 339.6 239.95
M 339.6 231.6
Q 339.4 231.6 339.25 231.75 339.1 231.9 339.1 232.1
L 339.1 235.25
Q 339.1 235.45 339.25 235.6 339.4 235.75 339.6 235.75
L 360.7 235.75
Q 360.9 235.75 361.05 235.6 361.2 235.45 361.2 235.25
L 361.2 232.1
Q 361.2 231.9 361.05 231.75 360.9 231.6 360.7 231.6
L 339.6 231.6
M 320.05 224.85
Q 319 223.7 317.4 223 315.85 222.35 313.8 222.35 310.6 222.35 308.65 223.8 306.7 225.3 305.6 227.55 304.5 229.85 304.1 232.55 303.75 235.3 303.75 237.75 303.75 245.1 306.2 249.15 308.65 253.2 313.8 253.2 316.35 253.2 318.2 252.2 320.05 251.1 321.3 249.15 322.55 247.2 323.15 244.3 323.75 241.4 323.75 237.75 323.75 236.1 323.55 234.35 323.4 232.55 323 230.85 322.6 229.15 321.9 227.6 321.2 226.05 320.05 224.85
M 317.8 229.15
Q 318.5 230.5 318.9 232.6 319.25 234.75 319.25 237.75 319.25 240.85 318.9 243 318.5 245.1 317.8 246.4 317.05 247.75 316.05 248.3 315 248.9 313.8 248.9 312.5 248.9 311.5 248.3 310.5 247.75 309.8 246.4 309.05 245.1 308.7 243 308.3 240.85 308.3 237.75 308.3 234.75 308.7 232.6 309.05 230.5 309.8 229.15 310.5 227.85 311.5 227.3 312.5 226.7 313.8 226.7 315 226.7 316.05 227.3 317.05 227.85 317.8 229.15
M 296.6 227.05
Q 295.9 225.45 294.75 224.4 293.6 223.35 291.95 222.8 290.35 222.25 288.4 222.25 286.55 222.25 284.55 222.9 282.6 223.55 281.1 224.35 280.7 224.55 280.55 224.8 280.45 224.95 280.55 225.15
L 281.1 228.2
Q 281.2 228.55 281.5 228.6 281.8 228.6 282.15 228.4 283.95 227.35 285.45 226.9 287 226.45 288.65 226.45 290.4 226.45 291.55 227.7 292.75 228.95 292.75 230.85 292.75 232.55 291.15 235.15 289.55 237.8 286.2 241.75
L 280.1 249
Q 279.9 249.3 279.7 249.6 279.55 249.95 279.55 250.25
L 279.55 252.55
Q 279.55 253.05 280.3 253.05
L 297.35 253.05
Q 297.9 253.05 297.9 252.35
L 297.9 249.55
Q 297.9 248.95 297.35 248.95
L 285.6 248.95
Q 286.6 247.8 287.6 246.65 288.6 245.45 289.45 244.35 290.55 243.05 291.95 241.45 293.3 239.8 294.5 238.05 295.7 236.25 296.5 234.4 297.3 232.55 297.3 230.75 297.3 228.65 296.6 227.05
M 262.5 228.45
Q 262.3 228.25 262.05 228.25 261.8 228.25 261.6 228.45
L 254.3 235.7 247.05 228.55
Q 246.6 228.1 246.1 228.55
L 244.4 230.3
Q 244.2 230.55 244.2 230.75 244.2 231 244.4 231.2
L 251.65 238.35 244.1 245.9
Q 243.9 246.1 243.9 246.4 243.9 246.65 244.1 246.85
L 245.8 248.55
Q 246.1 249.05 246.7 248.55
L 254.25 241.05 261.7 248.55
Q 261.9 248.7 262.2 248.7 262.45 248.7 262.65 248.55
L 264.3 246.75
Q 264.55 246.55 264.55 246.35 264.55 246.1 264.3 245.9
L 256.85 238.4 264.1 231.1
Q 264.3 230.95 264.3 230.65 264.3 230.35 264.1 230.15
L 262.5 228.45
M 211.05 227.55
Q 209.95 229.85 209.55 232.55 209.2 235.3 209.2 237.75 209.2 245.1 211.65 249.15 214.1 253.2 219.25 253.2 221.8 253.2 223.65 252.2 225.5 251.1 226.75 249.15 228 247.2 228.6 244.3 229.2 241.4 229.2 237.75 229.2 236.1 229 234.35 228.85 232.55 228.45 230.85 228.05 229.15 227.35 227.6 226.65 226.05 225.5 224.85 224.45 223.7 222.85 223 221.3 222.35 219.25 222.35 216.05 222.35 214.1 223.8 212.15 225.3 211.05 227.55
M 219.25 226.7
Q 220.45 226.7 221.5 227.3 222.5 227.85 223.25 229.15 223.95 230.5 224.35 232.6 224.7 234.75 224.7 237.75 224.7 240.85 224.35 243 223.95 245.1 223.25 246.4 222.5 247.75 221.5 248.3 220.45 248.9 219.25 248.9 217.95 248.9 216.95 248.3 215.95 247.75 215.25 246.4 214.5 245.1 214.15 243 213.75 240.85 213.75 237.75 213.75 234.75 214.15 232.6 214.5 230.5 215.25 229.15 215.95 227.85 216.95 227.3 217.95 226.7 219.25 226.7
M 204.25 247
Q 204.95 245.15 204.95 242.95 204.95 240.65 204.25 238.85 203.55 237 202.25 235.7 201 234.4 199.2 233.7 197.45 233 195.25 233 194.5 233 193.7 233.25 192.9 233.45 192.15 233.8 191.4 234.15 190.8 234.6 190.2 235.05 189.85 235.55 190.1 233.6 190.7 231.9 191.25 230.25 192.25 229 193.25 227.75 194.7 227.05 196.2 226.4 198.25 226.4 199.65 226.4 200.85 226.5 202 226.6 203.05 227 203.6 227.25 203.7 226.7
L 203.8 223.5
Q 203.85 223.1 203.5 223 202.6 222.65 201.15 222.45 199.75 222.25 198.6 222.25 194.85 222.25 192.3 223.55 189.75 224.9 188.15 227.15 186.6 229.35 185.9 232.4 185.2 235.4 185.2 238.8 185.2 246.25 187.75 249.8 190.3 253.35 195 253.35 197.3 253.35 199.15 252.55 201 251.75 202.3 250.3 203.6 248.95 204.25 247
M 191.35 247.45
Q 190.65 246.55 190.25 245.3 189.85 244.15 189.85 242.75 189.85 240.3 191.35 238.75 192.8 237.2 195.4 237.2 197.85 237.2 199.2 238.8 200.55 240.35 200.55 243.15 200.55 246 199.05 247.7 197.5 249.35 195.1 249.35 194 249.35 193 248.85 192.05 248.35 191.35 247.45
M 161.75 224.8
Q 161.65 224.95 161.75 225.15
L 162.3 228.2
Q 162.4 228.55 162.7 228.6 163 228.6 163.35 228.4 165.15 227.35 166.65 226.9 168.2 226.45 169.85 226.45 171.6 226.45 172.75 227.7 173.95 228.95 173.95 230.85 173.95 232.55 172.35 235.15 170.75 237.8 167.4 241.75
L 161.3 249
Q 161.1 249.3 160.9 249.6 160.75 249.95 160.75 250.25
L 160.75 252.55
Q 160.75 253.05 161.5 253.05
L 178.55 253.05
Q 179.1 253.05 179.1 252.35
L 179.1 249.55
Q 179.1 248.95 178.55 248.95
L 166.8 248.95
Q 167.8 247.8 168.8 246.65 169.8 245.45 170.65 244.35 171.75 243.05 173.15 241.45 174.5 239.8 175.7 238.05 176.9 236.25 177.7 234.4 178.5 232.55 178.5 230.75 178.5 228.65 177.8 227.05 177.1 225.45 175.95 224.4 174.8 223.35 173.15 222.8 171.55 222.25 169.6 222.25 167.75 222.25 165.75 222.9 163.8 223.55 162.3 224.35 161.9 224.55 161.75 224.8
M 373.35 408.05
Q 373.35 406.05 372.5 404.55 371.65 403.05 370.3 402.15 369 401.25 367.25 400.8 365.5 400.35 363.7 400.35 362 400.35 360.35 400.7 358.65 401.1 356.9 401.7 356.5 401.9 356.35 402.1 356.2 402.25 356.3 402.5
L 356.65 405.45
Q 356.75 405.8 356.95 405.9 357.15 406 357.65 405.8 358.25 405.55 359.05 405.3 359.85 405.05 360.65 404.9 361.45 404.7 362.2 404.6 362.9 404.5 363.45 404.5 364.3 404.5 365.25 404.7 366.2 404.9 367.05 405.4 367.85 405.85 368.4 406.65 368.9 407.4 368.9 408.4 368.9 409.75 368.1 410.65 367.3 411.6 366.1 412.2 364.95 412.8 363.7 413.05 362.45 413.3 361.6 413.3
L 359.7 413.3
Q 359.35 413.3 359.25 413.4 359.15 413.45 359.15 413.85
L 359.15 416.8
Q 359.15 417.1 359.25 417.2 359.35 417.3 359.7 417.3
L 361.65 417.3
Q 363.6 417.3 364.95 417.7 366.35 418.05 367.25 418.75 368.1 419.4 368.55 420.25 368.95 421.1 368.95 422.05 368.95 424.7 367 426.05 366.35 426.5 365.6 426.75 364.8 427.05 363.95 427.15 363.1 427.25 362.2 427.2 361.3 427.15 360.5 427.1 359.4 427 358.35 426.7 357.3 426.4 356.25 426.1 355.7 425.85 355.5 426 355.3 426.1 355.25 426.45
L 354.9 429.5
Q 354.85 429.85 355.05 430 355.2 430.2 355.6 430.3 357.05 430.85 358.8 431.15 360.55 431.45 362.3 431.45 364.6 431.45 366.75 430.85 368.9 430.3 370.4 429.05 371.9 427.8 372.75 426.05 373.55 424.25 373.55 422.15 373.55 419.95 372.2 418.15 370.85 416.4 368.2 415.25 369.3 414.75 370.25 414 371.2 413.25 371.9 412.25 372.6 411.3 373 410.25 373.35 409.15 373.35 408.05
M 474.05 468.95
Q 473.65 467.25 472.95 465.7 472.25 464.15 471.1 462.95 470.05 461.8 468.45 461.1 466.9 460.45 464.85 460.45 461.65 460.45 459.7 461.9 457.75 463.4 456.65 465.65 455.55 467.95 455.15 470.65 454.8 473.4 454.8 475.85 454.8 483.2 457.25 487.25 459.7 491.3 464.85 491.3 467.4 491.3 469.25 490.3 471.1 489.2 472.35 487.25 473.6 485.3 474.2 482.4 474.8 479.5 474.8 475.85 474.8 474.2 474.6 472.45 474.45 470.65 474.05 468.95
M 467.1 465.4
Q 468.1 465.95 468.85 467.25 469.55 468.6 469.95 470.7 470.3 472.85 470.3 475.85 470.3 478.95 469.95 481.1 469.55 483.2 468.85 484.5 468.1 485.85 467.1 486.4 466.05 487 464.85 487 463.55 487 462.55 486.4 461.55 485.85 460.85 484.5 460.1 483.2 459.75 481.1 459.35 478.95 459.35 475.85 459.35 472.85 459.75 470.7 460.1 468.6 460.85 467.25 461.55 465.95 462.55 465.4 463.55 464.8 464.85 464.8 466.05 464.8 467.1 465.4
M 421.35 461.3
Q 421.35 460.95 421.3 460.85 421.25 460.7 420.95 460.7
L 417.3 460.7
Q 416.9 460.7 416.8 460.8 416.7 460.9 416.5 461.25
L 404.1 479.85
Q 403.95 480 403.8 480.3 403.6 480.6 403.6 480.85
L 403.6 483.85
Q 403.6 484.15 403.75 484.2 403.9 484.3 404.25 484.3
L 417.05 484.3 417.05 490.4
Q 417.05 490.8 417.2 490.95 417.35 491.1 417.8 491.1
L 420.7 491.1
Q 421.1 491.1 421.2 490.95 421.35 490.85 421.35 490.4
L 421.35 484.3 425.05 484.3
Q 425.4 484.3 425.55 484.2 425.7 484.1 425.7 483.7
L 425.7 480.8
Q 425.7 480.4 425.55 480.3 425.4 480.2 425.05 480.2
L 421.35 480.2 421.35 461.3
M 417.05 480.2
L 408.45 480.2 417.05 467.15 417.05 480.2
M 424.05 407.85
Q 424.05 406.1 423.35 404.7 422.65 403.3 421.45 402.35 420.25 401.4 418.55 400.85 416.85 400.35 414.85 400.35 412.9 400.35 411.2 400.9 409.5 401.45 408.25 402.45 407 403.45 406.25 404.85 405.5 406.25 405.5 407.95 405.5 410.25 406.9 412.05 408.3 413.85 410.7 415.25 409.5 415.85 408.4 416.55 407.3 417.25 406.5 418.15 405.7 419.05 405.15 420.2 404.7 421.35 404.7 422.85 404.7 425 405.6 426.6 406.5 428.25 407.95 429.3 409.4 430.35 411.2 430.9 413.05 431.45 414.85 431.45 416.8 431.45 418.6 430.9 420.5 430.35 421.9 429.3 423.3 428.25 424.15 426.6 425.05 425 425.05 422.85 425.05 421.45 424.6 420.45 424.2 419.4 423.4 418.5 422.6 417.6 421.5 416.8 420.35 416.05 418.95 415.2 421.55 413.4 422.8 411.65 424.05 409.85 424.05 407.85
M 416.65 404.6
Q 417.5 404.85 418.15 405.4 418.8 405.95 419.15 406.65 419.55 407.35 419.55 408.15 419.55 408.85 419.05 409.65 418.55 410.45 417.8 411.2 417.05 411.9 416.25 412.45 415.5 413 414.85 413.25 414.35 413.05 413.55 412.55 412.75 412.1 411.95 411.4 411.2 410.7 410.65 409.9 410.05 409.1 410.05 408.25 410.05 407.3 410.5 406.55 410.95 405.85 411.65 405.35 412.3 404.85 413.15 404.55 414 404.25 414.85 404.25 415.8 404.25 416.65 404.6
M 413.1 418.1
Q 414.05 417.65 414.85 417.45 415.85 417.8 416.85 418.4 417.85 419 418.7 419.7 419.5 420.45 420 421.25 420.5 422.1 420.5 422.85 420.5 423.9 420 424.75 419.5 425.6 418.7 426.2 417.9 426.8 416.9 427.1 415.85 427.4 414.85 427.4 413.9 427.4 412.85 427.1 411.85 426.75 411 426.15 410.2 425.55 409.7 424.7 409.15 423.85 409.15 422.85 409.15 421.6 409.75 420.7 410.35 419.8 411.2 419.15 412.05 418.5 413.1 418.1
M 473.65 401.6
Q 473.7 401.2 473.35 401.1 472.45 400.75 471 400.55 469.6 400.35 468.45 400.35 464.7 400.35 462.15 401.65 459.6 403 458 405.25 456.45 407.45 455.75 410.5 455.05 413.5 455.05 416.9 455.05 424.35 457.6 427.9 460.15 431.45 464.85 431.45 467.15 431.45 469 430.65 470.85 429.85 472.15 428.4 473.45 427.05 474.1 425.1 474.8 423.25 474.8 421.05 474.8 418.75 474.1 416.95 473.4 415.1 472.1 413.8 470.85 412.5 469.05 411.8 467.3 411.1 465.1 411.1 464.35 411.1 463.55 411.35 462.75 411.55 462 411.9 461.25 412.25 460.65 412.7 460.05 413.15 459.7 413.65 459.95 411.7 460.55 410 461.1 408.35 462.1 407.1 463.1 405.85 464.55 405.15 466.05 404.5 468.1 404.5 469.5 404.5 470.7 404.6 471.85 404.7 472.9 405.1 473.45 405.35 473.55 404.8
L 473.65 401.6
M 461.2 416.85
Q 462.65 415.3 465.25 415.3 467.7 415.3 469.05 416.9 470.4 418.45 470.4 421.25 470.4 424.1 468.9 425.8 467.35 427.45 464.95 427.45 463.85 427.45 462.85 426.95 461.9 426.45 461.2 425.55 460.5 424.65 460.1 423.4 459.7 422.25 459.7 420.85 459.7 418.4 461.2 416.85
M 322.65 466.55
Q 322.45 466.35 322.2 466.35 321.95 466.35 321.75 466.55
L 314.45 473.8 307.2 466.65
Q 306.75 466.2 306.25 466.65
L 304.55 468.4
Q 304.35 468.65 304.35 468.85 304.35 469.1 304.55 469.3
L 311.8 476.45 304.25 484
Q 304.05 484.2 304.05 484.5 304.05 484.75 304.25 484.95
L 305.95 486.65
Q 306.25 487.15 306.85 486.65
L 314.4 479.15 321.85 486.65
Q 322.05 486.8 322.35 486.8 322.6 486.8 322.8 486.65
L 324.45 484.85
Q 324.7 484.65 324.7 484.45 324.7 484.2 324.45 484
L 317 476.5 324.25 469.2
Q 324.45 469.05 324.45 468.75 324.45 468.45 324.25 468.25
L 322.65 466.55
M 814.25 469.2
Q 814.45 469.05 814.45 468.75 814.45 468.45 814.25 468.25
L 812.65 466.55
Q 812.45 466.35 812.2 466.35 811.95 466.35 811.75 466.55
L 804.45 473.8 797.2 466.65
Q 796.75 466.2 796.25 466.65
L 794.55 468.4
Q 794.35 468.65 794.35 468.85 794.35 469.1 794.55 469.3
L 801.8 476.45 794.25 484
Q 794.05 484.2 794.05 484.5 794.05 484.75 794.25 484.95
L 795.95 486.65
Q 796.25 487.15 796.85 486.65
L 804.4 479.15 811.85 486.65
Q 812.05 486.8 812.35 486.8 812.6 486.8 812.8 486.65
L 814.45 484.85
Q 814.7 484.65 814.7 484.45 814.7 484.2 814.45 484
L 807 476.5 814.25 469.2
M 862.75 400.85
Q 862.6 400.65 862.35 400.65
L 847.7 400.65
Q 847.1 400.65 847 400.8 846.85 400.9 846.85 401.35
L 846.65 416.1
Q 846.65 417.45 848.2 416.8 849.45 416.35 850.85 416.1 852.25 415.8 853.55 415.8 856.85 415.8 858.25 417.35 859.7 418.85 859.7 421.45 859.7 424.15 857.9 425.65 856.2 427.2 853.5 427.2 852.8 427.2 851.95 427.1 851.15 427.05 850.3 426.9 849.45 426.7 848.65 426.5 847.85 426.25 847.3 425.95 846.45 425.55 846.45 426.25
L 846.45 429.5
Q 846.45 429.8 846.45 429.95 846.5 430.05 846.75 430.25 847.4 430.55 848.35 430.75 849.25 431 850.2 431.15 851.15 431.25 851.95 431.35 852.8 431.4 853.2 431.4 855.5 431.4 857.55 430.75 859.65 430.1 861.05 428.8 864.2 426 864.2 420.95 864.2 418.85 863.45 417.2 862.7 415.5 861.4 414.3 860.1 413.15 858.35 412.5 856.6 411.9 854.6 411.9 852.65 411.9 851.05 412.25
L 851.2 404.85 862.35 404.85
Q 862.6 404.85 862.75 404.65 862.85 404.5 862.85 404.25
L 862.85 401.2
Q 862.85 401 862.75 400.85
M 964.05 468.95
Q 963.65 467.25 962.95 465.7 962.25 464.15 961.1 462.95 960.05 461.8 958.45 461.1 956.9 460.45 954.85 460.45 951.65 460.45 949.7 461.9 947.75 463.4 946.65 465.65 945.55 467.95 945.15 470.65 944.8 473.4 944.8 475.85 944.8 483.2 947.25 487.25 949.7 491.3 954.85 491.3 957.4 491.3 959.25 490.3 961.1 489.2 962.35 487.25 963.6 485.3 964.2 482.4 964.8 479.5 964.8 475.85 964.8 474.2 964.6 472.45 964.45 470.65 964.05 468.95
M 954.85 464.8
Q 956.05 464.8 957.1 465.4 958.1 465.95 958.85 467.25 959.55 468.6 959.95 470.7 960.3 472.85 960.3 475.85 960.3 478.95 959.95 481.1 959.55 483.2 958.85 484.5 958.1 485.85 957.1 486.4 956.05 487 954.85 487 953.55 487 952.55 486.4 951.55 485.85 950.85 484.5 950.1 483.2 949.75 481.1 949.35 478.95 949.35 475.85 949.35 472.85 949.75 470.7 950.1 468.6 950.85 467.25 951.55 465.95 952.55 465.4 953.55 464.8 954.85 464.8
M 911.35 461.3
Q 911.35 460.95 911.3 460.85 911.25 460.7 910.95 460.7
L 907.3 460.7
Q 906.9 460.7 906.8 460.8 906.7 460.9 906.5 461.25
L 894.1 479.85
Q 893.95 480 893.8 480.3 893.6 480.6 893.6 480.85
L 893.6 483.85
Q 893.6 484.15 893.75 484.2 893.9 484.3 894.25 484.3
L 907.05 484.3 907.05 490.4
Q 907.05 490.8 907.2 490.95 907.35 491.1 907.8 491.1
L 910.7 491.1
Q 911.1 491.1 911.2 490.95 911.35 490.85 911.35 490.4
L 911.35 484.3 915.05 484.3
Q 915.4 484.3 915.55 484.2 915.7 484.1 915.7 483.7
L 915.7 480.8
Q 915.7 480.4 915.55 480.3 915.4 480.2 915.05 480.2
L 911.35 480.2 911.35 461.3
M 907.05 480.2
L 898.45 480.2 907.05 467.15 907.05 480.2
M 911.8 412.5
Q 912.6 410.65 912.6 408.85 912.6 406.75 911.9 405.15 911.2 403.55 910.05 402.5 908.9 401.45 907.25 400.9 905.65 400.35 903.7 400.35 901.85 400.35 899.85 401 897.9 401.65 896.4 402.45 896 402.65 895.85 402.9 895.75 403.05 895.85 403.25
L 896.4 406.3
Q 896.5 406.65 896.8 406.7 897.1 406.7 897.45 406.5 899.25 405.45 900.75 405 902.3 404.55 903.95 404.55 905.7 404.55 906.85 405.8 908.05 407.05 908.05 408.95 908.05 410.65 906.45 413.25 904.85 415.9 901.5 419.85
L 895.4 427.1
Q 895.2 427.4 895 427.7 894.85 428.05 894.85 428.35
L 894.85 430.65
Q 894.85 431.15 895.6 431.15
L 912.65 431.15
Q 913.2 431.15 913.2 430.45
L 913.2 427.65
Q 913.2 427.05 912.65 427.05
L 900.9 427.05
Q 901.9 425.9 902.9 424.75 903.9 423.55 904.75 422.45 905.85 421.15 907.25 419.55 908.6 417.9 909.8 416.15 911 414.35 911.8 412.5
M 956.8 400.8
Q 956.7 400.9 956.5 401.25
L 944.1 419.85
Q 943.95 420 943.8 420.3 943.6 420.6 943.6 420.85
L 943.6 423.85
Q 943.6 424.15 943.75 424.2 943.9 424.3 944.25 424.3
L 957.05 424.3 957.05 430.4
Q 957.05 430.8 957.2 430.95 957.35 431.1 957.8 431.1
L 960.7 431.1
Q 961.1 431.1 961.2 430.95 961.35 430.85 961.35 430.4
L 961.35 424.3 965.05 424.3
Q 965.4 424.3 965.55 424.2 965.7 424.1 965.7 423.7
L 965.7 420.8
Q 965.7 420.4 965.55 420.3 965.4 420.2 965.05 420.2
L 961.35 420.2 961.35 401.3
Q 961.35 400.95 961.3 400.85 961.25 400.7 960.95 400.7
L 957.3 400.7
Q 956.9 400.7 956.8 400.8
M 957.05 407.15
L 957.05 420.2 948.45 420.2 957.05 407.15 Z"/>

<path fill="#FFFFFF" stroke="none" d="
M 237.5 543
L 237.5 573.05
Q 237.5 588.05 252.5 588.05
L 414.55 588.05 454.55 588.05 482.5 588.05
Q 497.5 588.05 497.5 573.05
L 497.5 543
Q 497.5 528 482.5 528
L 454.55 528 414.55 528 252.5 528
Q 237.5 528 237.5 543
M 394.05 209.9
Q 379.05 209.9 379.05 224.9
L 379.05 254.95
Q 379.05 269.95 394.05 269.95
L 486.1 269.95 526.1 269.95 554.05 269.95
Q 569.05 269.95 569.05 254.95
L 569.05 224.9
Q 569.05 209.9 554.05 209.9
L 526.1 209.9 486.1 209.9 394.05 209.9
M 944.55 528
L 904.55 528 742.5 528
Q 727.5 528 727.5 543
L 727.5 573.05
Q 727.5 588.05 742.5 588.05
L 904.55 588.05 944.55 588.05 972.5 588.05
Q 987.5 588.05 987.5 573.05
L 987.5 543
Q 987.5 528 972.5 528
L 944.55 528
M 1119.05 224.9
Q 1119.05 209.9 1104.05 209.9
L 1076.1 209.9 1036.1 209.9 944.05 209.9
Q 929.05 209.9 929.05 224.9
L 929.05 254.95
Q 929.05 269.95 944.05 269.95
L 1036.1 269.95 1076.1 269.95 1104.05 269.95
Q 1119.05 269.95 1119.05 254.95
L 1119.05 224.9 Z"/>
</g>

<path id="Layer0_0_1_STROKES" stroke="#DBDBDB" stroke-width="3" stroke-linejoin="round" stroke-linecap="round" fill="none" d="
M 944.05 209.9
L 1036.1 209.9 1076.1 209.9 1104.05 209.9
Q 1119.05 209.9 1119.05 224.9
L 1119.05 254.95
Q 1119.05 269.95 1104.05 269.95
L 1076.1 269.95 1036.1 269.95 944.05 269.95
Q 929.05 269.95 929.05 254.95
L 929.05 224.9
Q 929.05 209.9 944.05 209.9 Z
M 742.5 528
L 904.55 528 944.55 528 972.5 528
Q 987.5 528 987.5 543
L 987.5 573.05
Q 987.5 588.05 972.5 588.05
L 944.55 588.05 904.55 588.05 742.5 588.05
Q 727.5 588.05 727.5 573.05
L 727.5 543
Q 727.5 528 742.5 528 Z
M 394.05 209.9
L 486.1 209.9 526.1 209.9 554.05 209.9
Q 569.05 209.9 569.05 224.9
L 569.05 254.95
Q 569.05 269.95 554.05 269.95
L 526.1 269.95 486.1 269.95 394.05 269.95
Q 379.05 269.95 379.05 254.95
L 379.05 224.9
Q 379.05 209.9 394.05 209.9 Z
M 252.5 528
L 414.55 528 454.55 528 482.5 528
Q 497.5 528 497.5 543
L 497.5 573.05
Q 497.5 588.05 482.5 588.05
L 454.55 588.05 414.55 588.05 252.5 588.05
Q 237.5 588.05 237.5 573.05
L 237.5 543
Q 237.5 528 252.5 528 Z"/>

<path id="Layer0_0_2_STROKES" stroke="#1E1E1E" stroke-width="3" stroke-linejoin="round" stroke-linecap="butt" fill="none" d="
M 722.4 513.5
L 990.55 513.5
M 232.4 513.5
L 500.55 513.5"/>
</defs>

<g transform="matrix( 1, 0, 0, 1, 0,0) ">
<use xlink:href="#Layer0_0_FILL"/>

<use xlink:href="#Layer0_0_1_STROKES"/>

<use xlink:href="#Layer0_0_2_STROKES"/>
</g>
</svg>
