
<svg xmlns="http://www.w3.org/2000/svg" version="1.1" xmlns:xlink="http://www.w3.org/1999/xlink" preserveAspectRatio="none" x="0px" y="0px" width="1280px" height="720px" viewBox="0 0 1280 720">
<defs>
<filter id="Filter_1" x="-20%" y="-20%" width="140%" height="140%" color-interpolation-filters="sRGB">
<feColorMatrix in="SourceGraphic" type="matrix" values="0 0 0 0 0.8980392156862745 0 0 0 0 0.00392156862745098 0 0 0 0 0.5098039215686274 0 0 0 1 0" result="result1"/>
</filter>

<filter id="Filter_2" x="-20%" y="-20%" width="140%" height="140%" color-interpolation-filters="sRGB">
<feColorMatrix in="SourceGraphic" type="matrix" values="0 0 0 0 1 0 0 0 0 0.4 0 0 0 0 0.4 0 0 0 1 0" result="result1"/>
</filter>

<g id="fdbd44545_0_Layer1_0_FILL">
<path fill="#EC3131" stroke="none" d="
M 534 344.5
L 539.4 335.1 528.55 335.1 534 344.5 Z"/>
</g>

<g id="vsdvs434_0_Layer1_0_FILL">
<path fill="#000000" stroke="none" d="
M 7.5 -19.9
Q 5.25 -19.9 3.75 -18.3
L -11.15 -3.5
Q -12.75 -1.95 -12.75 0.25 -12.75 2.5 -11.15 4.1 -11.07734375 4.175 -11 4.25
L 3.35 18.55
Q 4.95 20.05 7.2 20.05 9.35 20.05 10.95 18.55 12.45 16.9 12.45 14.75 12.45 12.5 10.95 11
L 0.25 0.25 11.25 -10.8
Q 12.8 -12.4 12.8 -14.55 12.8 -16.8 11.25 -18.4 9.75 -19.9 7.5 -19.9 Z"/>
</g>

<g id="vsdvs434_0_Layer0_0_FILL">
<path fill="#000000" stroke="none" d="
M 34.95 -4.35
Q 33.2 -6.1 30.65 -6.1
L 24.25 -6.1 23.1 -6.1 18.5 -6.1 17.35 -6.1 0.6 -6.1
Q -1.95 -6.1 -3.75 -4.35 -5.5 -2.55 -5.5 0
L -5.5 0.05
Q -5.5 2.6 -3.75 4.35 -1.95 6.15 0.6 6.15
L 17.35 6.15 18.5 6.15 23.1 6.15 24.25 6.15 30.65 6.15
Q 33.25 6.15 34.95 4.35 36.75 2.65 36.75 0.05
L 36.75 0
Q 36.75 -2.55 34.95 -4.35 Z"/>
</g>

<g id="Layer0_2_FILL">
<path fill="#1E1E1E" stroke="none" d="
M 398.5 423.8
Q 398.3 423.85 398.25 423.95
L 392.1 429.6
Q 391.9 429.8 391.9 430 391.85 430.25 392 430.4
L 393.8 432.55
Q 393.95 432.7 394.2 432.65 394.45 432.65 394.7 432.5
L 397.65 429.9 397.65 453.6
Q 397.65 454.1 398.2 454.1
L 401.4 454.1
Q 401.9 454.1 401.9 453.6
L 401.9 424.8
Q 401.9 424 401.75 423.85 401.65 423.7 400.95 423.7
L 398.85 423.7
Q 398.7 423.7 398.5 423.8
M 423.05 434.9
Q 421.1 434.9 419.5 435.25
L 419.65 427.85 430.8 427.85
Q 431.05 427.85 431.2 427.65 431.3 427.5 431.3 427.25
L 431.3 424.2
Q 431.3 424 431.2 423.85 431.05 423.65 430.8 423.65
L 416.15 423.65
Q 415.55 423.65 415.45 423.8 415.3 423.9 415.3 424.35
L 415.1 439.1
Q 415.1 440.45 416.65 439.8 417.9 439.35 419.3 439.1 420.7 438.8 422 438.8 425.3 438.8 426.7 440.35 428.15 441.85 428.15 444.45 428.15 447.15 426.35 448.65 424.65 450.2 421.95 450.2 421.25 450.2 420.4 450.1 419.6 450.05 418.75 449.9 417.9 449.7 417.1 449.5 416.3 449.25 415.75 448.95 414.9 448.55 414.9 449.25
L 414.9 452.5
Q 414.9 452.8 414.9 452.95 414.95 453.05 415.2 453.25 415.85 453.55 416.8 453.75 417.7 454 418.65 454.15 419.6 454.25 420.4 454.35 421.25 454.4 421.65 454.4 423.95 454.4 426 453.75 428.1 453.1 429.5 451.8 432.65 449 432.65 443.95 432.65 441.85 431.9 440.2 431.15 438.5 429.85 437.3 428.55 436.15 426.8 435.5 425.05 434.9 423.05 434.9
M 459.45 445.4
Q 458.6 444.6 457.35 444.6 456.05 444.6 455.25 445.4 454.45 446.2 454.45 447.45 454.45 448.75 455.25 449.55 456.1 450.4 457.35 450.4 458.6 450.4 459.45 449.55 460.3 448.75 460.3 447.45 460.3 446.2 459.45 445.4
M 445.9 440.55
Q 445.9 441.05 446.5 441.05
L 468.35 441.05
Q 468.85 441.05 468.85 440.55
L 468.85 438
Q 468.85 437.45 468.35 437.45
L 446.5 437.45
Q 445.9 437.45 445.9 438
L 445.9 440.55
M 459.45 429
Q 458.6 428.15 457.35 428.15 456.05 428.15 455.25 429 454.45 429.8 454.45 431.05 454.45 432.3 455.25 433.15 456.1 433.95 457.35 433.95 458.6 433.95 459.45 433.15 460.3 432.3 460.3 431.05 460.3 429.8 459.45 429
M 501.55 431.05
Q 501.55 429.05 500.7 427.55 499.85 426.05 498.5 425.15 497.2 424.25 495.45 423.8 493.7 423.35 491.9 423.35 490.2 423.35 488.55 423.7 486.85 424.1 485.1 424.7 484.7 424.9 484.55 425.1 484.4 425.25 484.5 425.5
L 484.85 428.45
Q 484.95 428.8 485.15 428.9 485.35 429 485.85 428.8 486.45 428.55 487.25 428.3 488.05 428.05 488.85 427.9 489.65 427.7 490.4 427.6 491.1 427.5 491.65 427.5 492.5 427.5 493.45 427.7 494.4 427.9 495.25 428.4 496.05 428.85 496.6 429.65 497.1 430.4 497.1 431.4 497.1 432.75 496.3 433.65 495.5 434.6 494.3 435.2 493.15 435.8 491.9 436.05 490.65 436.3 489.8 436.3
L 487.9 436.3
Q 487.55 436.3 487.45 436.4 487.35 436.45 487.35 436.85
L 487.35 439.8
Q 487.35 440.1 487.45 440.2 487.55 440.3 487.9 440.3
L 489.85 440.3
Q 491.8 440.3 493.15 440.7 494.55 441.05 495.45 441.75 496.3 442.4 496.75 443.25 497.15 444.1 497.15 445.05 497.15 447.7 495.2 449.05 494.55 449.5 493.8 449.75 493 450.05 492.15 450.15 491.3 450.25 490.4 450.2 489.5 450.15 488.7 450.1 487.6 450 486.55 449.7 485.5 449.4 484.45 449.1 483.9 448.85 483.7 449 483.5 449.1 483.45 449.45
L 483.1 452.5
Q 483.05 452.85 483.25 453 483.4 453.2 483.8 453.3 485.25 453.85 487 454.15 488.75 454.45 490.5 454.45 492.8 454.45 494.95 453.85 497.1 453.3 498.6 452.05 500.1 450.8 500.95 449.05 501.75 447.25 501.75 445.15 501.75 442.95 500.4 441.15 499.05 439.4 496.4 438.25 497.5 437.75 498.45 437 499.4 436.25 500.1 435.25 500.8 434.3 501.2 433.25 501.55 432.15 501.55 431.05
M 535.5 445.15
Q 535.7 445.15 535.85 445 536 444.9 536 444.65
L 536 441.5
Q 536 441.3 535.85 441.15 535.7 441.05 535.5 441.05
L 514.4 441.05
Q 514.2 441.05 514.05 441.15 513.9 441.3 513.9 441.5
L 513.9 444.65
Q 513.9 444.9 514.05 445 514.2 445.15 514.4 445.15
L 535.5 445.15
M 535.85 432.85
Q 535.7 432.7 535.5 432.7
L 514.4 432.7
Q 514.2 432.7 514.05 432.85 513.9 433 513.9 433.2
L 513.9 436.35
Q 513.9 436.55 514.05 436.7 514.2 436.85 514.4 436.85
L 535.5 436.85
Q 535.7 436.85 535.85 436.7 536 436.55 536 436.35
L 536 433.2
Q 536 433 535.85 432.85
M 583.8 437.1
Q 581.85 437.1 580.25 437.45
L 580.4 430.05 591.55 430.05
Q 591.8 430.05 591.95 429.85 592.05 429.7 592.05 429.45
L 592.05 426.4
Q 592.05 426.2 591.95 426.05 591.8 425.85 591.55 425.85
L 576.9 425.85
Q 576.3 425.85 576.2 426 576.05 426.1 576.05 426.55
L 575.85 441.3
Q 575.85 442.65 577.4 442 578.65 441.55 580.05 441.3 581.45 441 582.75 441 586.05 441 587.45 442.55 588.9 444.05 588.9 446.65 588.9 449.35 587.1 450.85 585.4 452.4 582.7 452.4 582 452.4 581.15 452.3 580.35 452.25 579.5 452.1 578.65 451.9 577.85 451.7 577.05 451.45 576.5 451.15 575.65 450.75 575.65 451.45
L 575.65 454.7
Q 575.65 455 575.65 455.15 575.7 455.25 575.95 455.45 576.6 455.75 577.55 455.95 578.45 456.2 579.4 456.35 580.35 456.45 581.15 456.55 582 456.6 582.4 456.6 584.7 456.6 586.75 455.95 588.85 455.3 590.25 454 593.4 451.2 593.4 446.15 593.4 444.05 592.65 442.4 591.9 440.7 590.6 439.5 589.3 438.35 587.55 437.7 585.8 437.1 583.8 437.1
M 202.55 218.2
Q 202.75 218.2 202.9 218.05 203.05 217.9 203.05 217.7
L 203.05 214.55
Q 203.05 214.35 202.9 214.2 202.75 214.05 202.55 214.05
L 181.45 214.05
Q 181.25 214.05 181.1 214.2 180.95 214.35 180.95 214.55
L 180.95 217.7
Q 180.95 217.9 181.1 218.05 181.25 218.2 181.45 218.2
L 202.55 218.2
M 202.9 222.5
Q 202.75 222.4 202.55 222.4
L 181.45 222.4
Q 181.25 222.4 181.1 222.5 180.95 222.65 180.95 222.85
L 180.95 226
Q 180.95 226.25 181.1 226.35 181.25 226.5 181.45 226.5
L 202.55 226.5
Q 202.75 226.5 202.9 226.35 203.05 226.25 203.05 226
L 203.05 222.85
Q 203.05 222.65 202.9 222.5
M 225.25 209.2
Q 225.5 209.2 225.65 209 225.75 208.85 225.75 208.6
L 225.75 205.55
Q 225.75 205.35 225.65 205.2 225.5 205 225.25 205
L 210.6 205
Q 210 205 209.9 205.15 209.75 205.25 209.75 205.7
L 209.55 220.45
Q 209.55 221.8 211.1 221.15 212.35 220.7 213.75 220.45 215.15 220.15 216.45 220.15 219.75 220.15 221.15 221.7 222.6 223.2 222.6 225.8 222.6 228.5 220.8 230 219.1 231.55 216.4 231.55 215.7 231.55 214.85 231.45 214.05 231.4 213.2 231.25 212.35 231.05 211.55 230.85 210.75 230.6 210.2 230.3 209.35 229.9 209.35 230.6
L 209.35 233.85
Q 209.35 234.15 209.35 234.3 209.4 234.4 209.65 234.6 210.3 234.9 211.25 235.1 212.15 235.35 213.1 235.5 214.05 235.6 214.85 235.7 215.7 235.75 216.1 235.75 218.4 235.75 220.45 235.1 222.55 234.45 223.95 233.15 227.1 230.35 227.1 225.3 227.1 223.2 226.35 221.55 225.6 219.85 224.3 218.65 223 217.5 221.25 216.85 219.5 216.25 217.5 216.25 215.55 216.25 213.95 216.6
L 214.1 209.2 225.25 209.2
M 302.95 274.7
L 300.85 274.7
Q 300.7 274.7 300.5 274.8 300.3 274.85 300.25 274.95
L 294.1 280.6
Q 293.9 280.8 293.9 281 293.85 281.25 294 281.4
L 295.8 283.55
Q 295.95 283.7 296.2 283.65 296.45 283.65 296.7 283.5
L 299.65 280.9 299.65 304.6
Q 299.65 305.1 300.2 305.1
L 303.4 305.1
Q 303.9 305.1 303.9 304.6
L 303.9 275.8
Q 303.9 275 303.75 274.85 303.65 274.7 302.95 274.7
M 262.8 224.2
Q 262.8 224 262.65 223.85 262.5 223.7 262.3 223.7
L 258.7 223.7
Q 258.5 223.7 258.35 223.85 258.2 224 258.2 224.2
L 258.2 228.05 244.1 228.05 244.1 224.35
Q 244.1 224.2 243.9 224.05 243.7 223.9 243.5 223.9
L 240 223.9
Q 239.8 223.9 239.65 224.05 239.5 224.2 239.5 224.35
L 239.5 236.25
Q 239.5 237.8 240.1 238.4 240.75 239 242.5 239
L 259.8 239
Q 261.55 239 262.15 238.35 262.8 237.7 262.8 236.35
L 262.8 224.2
M 258.2 231.8
L 258.2 234.6
Q 258.2 235.25 257.5 235.25
L 244.8 235.25
Q 244.1 235.25 244.1 234.6
L 244.1 231.8 258.2 231.8
M 251.8 208.35
Q 251.1 206.7 249.85 205.45 248.6 204.2 246.8 203.5 245.05 202.75 242.9 202.75 240.75 202.75 238.95 203.5 237.15 204.2 235.9 205.45 234.65 206.7 233.95 208.35 233.3 210 233.3 211.8 233.3 213.55 233.95 215.15 234.65 216.8 235.9 218.05 237.15 219.25 238.95 220 240.75 220.75 242.9 220.75 245.05 220.75 246.8 220 248.6 219.25 249.85 218.05 251.1 216.8 251.8 215.15 252.5 213.55 252.5 211.8 252.5 210 251.8 208.35
M 245 206.95
Q 245.95 207.4 246.65 208.1 247.35 208.85 247.75 209.8 248.15 210.75 248.15 211.8 248.15 212.8 247.75 213.75 247.35 214.7 246.65 215.45 245.95 216.15 245 216.55 244.05 216.95 242.9 216.95 241.7 216.95 240.75 216.55 239.8 216.15 239.15 215.45 238.45 214.7 238.05 213.75 237.7 212.8 237.7 211.8 237.7 210.75 238.05 209.8 238.45 208.85 239.15 208.1 239.8 207.4 240.75 206.95 241.7 206.5 242.9 206.5 244.05 206.5 245 206.95
M 262.8 202.2
Q 262.8 201.65 262.3 201.65
L 258.7 201.65
Q 258.2 201.65 258.2 202.2
L 258.2 221.3
Q 258.2 221.85 258.7 221.85
L 262.3 221.85
Q 262.8 221.85 262.8 221.3
L 262.8 202.2
M 293.95 226.6
Q 294.2 226.4 294.1 226.1
L 293.6 223.9
Q 293.55 223.6 293.35 223.4 293.2 223.2 292.75 223.25 288.65 224.1 284.9 224.4 281.15 224.7 277.95 224.5 277.5 224.45 277.35 224.35 277.2 224.25 277.2 223.85
L 277.2 204.55
Q 277.2 204.35 277 204.15 276.8 204 276.6 204
L 273.15 204
Q 272.95 204 272.75 204.15 272.6 204.35 272.6 204.55
L 272.6 225.4
Q 272.6 226.75 273.25 227.55 273.95 228.35 275.5 228.4 277.7 228.55 280.1 228.5 282.55 228.4 284.9 228.25 287.25 228.05 289.45 227.75 291.65 227.4 293.4 226.95 293.75 226.85 293.95 226.6
M 297.2 201.65
Q 296.65 201.65 296.65 202.2
L 296.65 239.1
Q 296.65 239.65 297.2 239.65
L 300.75 239.65
Q 301.25 239.65 301.25 239.1
L 301.25 202.2
Q 301.25 201.65 300.75 201.65
L 297.2 201.65
M 93.05 205.2
Q 92.95 205.05 92.25 205.05
L 90.15 205.05
Q 90 205.05 89.8 205.15 89.6 205.2 89.55 205.3
L 83.4 210.95
Q 83.2 211.15 83.2 211.35 83.15 211.6 83.3 211.75
L 85.1 213.9
Q 85.25 214.05 85.5 214 85.75 214 86 213.85
L 88.95 211.25 88.95 234.95
Q 88.95 235.45 89.5 235.45
L 92.7 235.45
Q 93.2 235.45 93.2 234.95
L 93.2 206.15
Q 93.2 205.35 93.05 205.2
M 140.5 226.15
Q 139.2 226.15 138.4 226.95 137.6 227.75 137.6 229 137.6 230.3 138.4 231.1 139.25 231.95 140.5 231.95 141.75 231.95 142.6 231.1 143.45 230.3 143.45 229 143.45 227.75 142.6 226.95 141.75 226.15 140.5 226.15
M 122.6 209.2
Q 122.85 209.2 123 209 123.1 208.85 123.1 208.6
L 123.1 205.55
Q 123.1 205.35 123 205.2 122.85 205 122.6 205
L 107.95 205
Q 107.35 205 107.25 205.15 107.1 205.25 107.1 205.7
L 106.9 220.45
Q 106.9 221.8 108.45 221.15 109.7 220.7 111.1 220.45 112.5 220.15 113.8 220.15 117.1 220.15 118.5 221.7 119.95 223.2 119.95 225.8 119.95 228.5 118.15 230 116.45 231.55 113.75 231.55 113.05 231.55 112.2 231.45 111.4 231.4 110.55 231.25 109.7 231.05 108.9 230.85 108.1 230.6 107.55 230.3 106.7 229.9 106.7 230.6
L 106.7 233.85
Q 106.7 234.15 106.7 234.3 106.75 234.4 107 234.6 107.65 234.9 108.6 235.1 109.5 235.35 110.45 235.5 111.4 235.6 112.2 235.7 113.05 235.75 113.45 235.75 115.75 235.75 117.8 235.1 119.9 234.45 121.3 233.15 124.45 230.35 124.45 225.3 124.45 223.2 123.7 221.55 122.95 219.85 121.65 218.65 120.35 217.5 118.6 216.85 116.85 216.25 114.85 216.25 112.9 216.25 111.3 216.6
L 111.45 209.2 122.6 209.2
M 152 222.1
L 152 219.55
Q 152 219 151.5 219
L 129.65 219
Q 129.05 219 129.05 219.55
L 129.05 222.1
Q 129.05 222.6 129.65 222.6
L 151.5 222.6
Q 152 222.6 152 222.1
M 143.45 212.6
Q 143.45 211.35 142.6 210.55 141.75 209.7 140.5 209.7 139.2 209.7 138.4 210.55 137.6 211.35 137.6 212.6 137.6 213.85 138.4 214.7 139.25 215.5 140.5 215.5 141.75 215.5 142.6 214.7 143.45 213.85 143.45 212.6
M 161.85 205.05
Q 160.15 205.45 158.4 206.05 158 206.25 157.85 206.45 157.7 206.6 157.8 206.85
L 158.15 209.8
Q 158.25 210.15 158.45 210.25 158.65 210.35 159.15 210.15 159.75 209.9 160.55 209.65 161.35 209.4 162.15 209.25 162.95 209.05 163.7 208.95 164.4 208.85 164.95 208.85 165.8 208.85 166.75 209.05 167.7 209.25 168.55 209.75 169.35 210.2 169.9 211 170.4 211.75 170.4 212.75 170.4 214.1 169.6 215 168.8 215.95 167.6 216.55 166.45 217.15 165.2 217.4 163.95 217.65 163.1 217.65
L 161.2 217.65
Q 160.85 217.65 160.75 217.75 160.65 217.8 160.65 218.2
L 160.65 221.15
Q 160.65 221.45 160.75 221.55 160.85 221.65 161.2 221.65
L 163.15 221.65
Q 165.1 221.65 166.45 222.05 167.85 222.4 168.75 223.1 169.6 223.75 170.05 224.6 170.45 225.45 170.45 226.4 170.45 229.05 168.5 230.4 167.85 230.85 167.1 231.1 166.3 231.4 165.45 231.5 164.6 231.6 163.7 231.55 162.8 231.5 162 231.45 160.9 231.35 159.85 231.05 158.8 230.75 157.75 230.45 157.2 230.2 157 230.35 156.8 230.45 156.75 230.8
L 156.4 233.85
Q 156.35 234.2 156.55 234.35 156.7 234.55 157.1 234.65 158.55 235.2 160.3 235.5 162.05 235.8 163.8 235.8 166.1 235.8 168.25 235.2 170.4 234.65 171.9 233.4 173.4 232.15 174.25 230.4 175.05 228.6 175.05 226.5 175.05 224.3 173.7 222.5 172.35 220.75 169.7 219.6 170.8 219.1 171.75 218.35 172.7 217.6 173.4 216.6 174.1 215.65 174.5 214.6 174.85 213.5 174.85 212.4 174.85 210.4 174 208.9 173.15 207.4 171.8 206.5 170.5 205.6 168.75 205.15 167 204.7 165.2 204.7 163.5 204.7 161.85 205.05
M 93.05 149.2
Q 92.95 149.05 92.25 149.05
L 90.15 149.05
Q 90 149.05 89.8 149.15 89.6 149.2 89.55 149.3
L 83.4 154.95
Q 83.2 155.15 83.2 155.35 83.15 155.6 83.3 155.75
L 85.1 157.9
Q 85.25 158.05 85.5 158 85.75 158 86 157.85
L 88.95 155.25 88.95 178.95
Q 88.95 179.45 89.5 179.45
L 92.7 179.45
Q 93.2 179.45 93.2 178.95
L 93.2 150.15
Q 93.2 149.35 93.05 149.2
M 118.6 160.85
Q 116.85 160.25 114.85 160.25 112.9 160.25 111.3 160.6
L 111.45 153.2 122.6 153.2
Q 122.85 153.2 123 153 123.1 152.85 123.1 152.6
L 123.1 149.55
Q 123.1 149.35 123 149.2 122.85 149 122.6 149
L 107.95 149
Q 107.35 149 107.25 149.15 107.1 149.25 107.1 149.7
L 106.9 164.45
Q 106.9 165.8 108.45 165.15 109.7 164.7 111.1 164.45 112.5 164.15 113.8 164.15 117.1 164.15 118.5 165.7 119.95 167.2 119.95 169.8 119.95 172.5 118.15 174 116.45 175.55 113.75 175.55 113.05 175.55 112.2 175.45 111.4 175.4 110.55 175.25 109.7 175.05 108.9 174.85 108.1 174.6 107.55 174.3 106.7 173.9 106.7 174.6
L 106.7 177.85
Q 106.7 178.15 106.7 178.3 106.75 178.4 107 178.6 107.65 178.9 108.6 179.1 109.5 179.35 110.45 179.5 111.4 179.6 112.2 179.7 113.05 179.75 113.45 179.75 115.75 179.75 117.8 179.1 119.9 178.45 121.3 177.15 124.45 174.35 124.45 169.3 124.45 167.2 123.7 165.55 122.95 163.85 121.65 162.65 120.35 161.5 118.6 160.85
M 154.5 146.85
Q 154.5 146.35 154 146.35
L 150.7 146.35
Q 150.15 146.35 150.15 146.85
L 150.15 159.15 146.6 159.15
Q 146.45 156.4 145.7 154.35 145 152.3 143.85 150.95 142.65 149.6 141.15 148.95 139.65 148.3 137.85 148.3 136.05 148.3 134.5 149.05 132.95 149.8 131.85 151.4 130.7 152.95 130.05 155.3 129.45 157.65 129.45 160.8 129.45 163.75 130.05 166.05 130.65 168.35 131.75 170 132.8 171.6 134.4 172.5 135.95 173.35 137.85 173.35 139.6 173.35 141.05 172.65 142.55 171.95 143.7 170.6 144.85 169.25 145.6 167.35 146.3 165.45 146.5 163
L 150.15 163 150.15 181.75
Q 150.15 182.35 150.7 182.35
L 154 182.35
Q 154.5 182.35 154.5 181.75
L 154.5 146.85
M 141.95 157.85
Q 142.2 159.35 142.2 160.85 142.2 162.35 141.95 163.85 141.65 165.4 141.15 166.6 140.65 167.85 139.85 168.65 139.05 169.45 137.9 169.45 136.85 169.45 136.1 168.65 135.35 167.85 134.85 166.6 134.4 165.35 134.15 163.8 133.9 162.3 133.9 160.85 133.9 159.4 134.15 157.85 134.4 156.35 134.85 155.1 135.35 153.85 136.1 153.1 136.85 152.3 137.9 152.3 139.05 152.3 139.85 153.05 140.7 153.8 141.2 155.05 141.7 156.3 141.95 157.85
M 310.2 149.2
Q 310.05 149 309.8 149
L 295.15 149
Q 294.55 149 294.45 149.15 294.3 149.25 294.3 149.7
L 294.1 164.45
Q 294.1 165.8 295.65 165.15 296.9 164.7 298.3 164.45 299.7 164.15 301 164.15 304.3 164.15 305.7 165.7 307.15 167.2 307.15 169.8 307.15 172.5 305.35 174 303.65 175.55 300.95 175.55 300.25 175.55 299.4 175.45 298.6 175.4 297.75 175.25 296.9 175.05 296.1 174.85 295.3 174.6 294.75 174.3 293.9 173.9 293.9 174.6
L 293.9 177.85
Q 293.9 178.15 293.9 178.3 293.95 178.4 294.2 178.6 294.85 178.9 295.8 179.1 296.7 179.35 297.65 179.5 298.6 179.6 299.4 179.7 300.25 179.75 300.65 179.75 302.95 179.75 305 179.1 307.1 178.45 308.5 177.15 311.65 174.35 311.65 169.3 311.65 167.2 310.9 165.55 310.15 163.85 308.85 162.65 307.55 161.5 305.8 160.85 304.05 160.25 302.05 160.25 300.1 160.25 298.5 160.6
L 298.65 153.2 309.8 153.2
Q 310.05 153.2 310.2 153 310.3 152.85 310.3 152.6
L 310.3 149.55
Q 310.3 149.35 310.2 149.2
M 272.85 170.35
Q 272.3 169.75 270.75 169.75
L 249.25 169.75
Q 249.05 169.75 248.85 169.85 248.7 170 248.7 170.25
L 248.7 173.05
Q 248.7 173.25 248.85 173.4 249.05 173.55 249.25 173.55
L 268.05 173.55
Q 268.5 173.55 268.65 173.65 268.8 173.8 268.8 174.2
L 268.8 183
Q 268.8 183.2 269 183.35 269.15 183.55 269.4 183.55
L 272.85 183.55
Q 273.05 183.55 273.25 183.35 273.4 183.2 273.4 183
L 273.4 172.5
Q 273.4 170.95 272.85 170.35
M 273.45 146.2
Q 273.45 145.65 272.9 145.65
L 269.55 145.65
Q 269.05 145.65 269.05 146.2
L 269.05 167.1
Q 269.05 167.6 269.55 167.6
L 272.9 167.6
Q 273.45 167.6 273.45 167.1
L 273.45 146.2
M 162.25 183.15
L 162.25 146.2
Q 162.25 145.65 161.7 145.65
L 158.25 145.65
Q 157.7 145.65 157.7 146.2
L 157.7 183.15
Q 157.7 183.65 158.25 183.65
L 161.7 183.65
Q 162.25 183.65 162.25 183.15
M 241.2 161.4
Q 240.5 162.05 241.1 162.6
L 242.6 164.2
Q 242.85 164.45 243.25 164.4 243.6 164.4 244 164.1 247.35 161.6 249.25 158.1 249.7 159 250.55 159.95 251.4 160.9 252.3 161.6 251.7 162.15 251.15 162.65 250.55 163.2 249.9 163.75 249.15 164.35 249.75 164.95
L 251.35 166.6
Q 251.6 166.85 251.95 166.8 252.35 166.75 252.7 166.4 256.85 163.2 258.95 159.25 259.45 160 260.05 160.7 260.7 161.4 261.35 162.05 262 162.7 262.7 163.2 263.35 163.75 263.9 164.05 264.8 164.6 265.25 164
L 266.55 162.4
Q 266.85 162.05 266.85 161.7 266.9 161.35 266.55 161.1 265.6 160.6 264.75 159.85 263.85 159.1 263.15 158.25 262.35 157.4 261.75 156.5 261.1 155.6 260.75 154.75 261.2 153.15 261.35 151.4 261.55 149.65 261.55 147.75 261.55 147.5 261.4 147.3 261.25 147.1 261.05 147.1
L 257.9 147.05
Q 257.7 147.05 257.55 147.2 257.35 147.4 257.35 147.65 257.35 151.05 256.75 153.65 256.15 156.25 254.75 158.45 253.6 157.4 252.6 156.1 251.6 154.75 251.15 153.45 251.9 150.8 251.9 147.75 251.9 147.5 251.7 147.3 251.55 147.1 251.35 147.1
L 248.3 147.05
Q 248.05 147.05 247.9 147.2 247.7 147.4 247.7 147.65 247.7 149.85 247.35 151.7 247.05 153.6 246.25 155.25 245.5 156.85 244.3 158.35 243.05 159.9 241.2 161.4
M 234.8 160.6
Q 235.5 159.65 235.9 158.6 236.25 157.5 236.25 156.4 236.25 154.4 235.4 152.9 234.55 151.4 233.2 150.5 231.9 149.6 230.15 149.15 228.4 148.7 226.6 148.7 224.9 148.7 223.25 149.05 221.55 149.45 219.8 150.05 219.4 150.25 219.25 150.45 219.1 150.6 219.2 150.85
L 219.55 153.8
Q 219.65 154.15 219.85 154.25 220.05 154.35 220.55 154.15 221.15 153.9 221.95 153.65 222.75 153.4 223.55 153.25 224.35 153.05 225.1 152.95 225.8 152.85 226.35 152.85 227.2 152.85 228.15 153.05 229.1 153.25 229.95 153.75 230.75 154.2 231.3 155 231.8 155.75 231.8 156.75 231.8 158.1 231 159 230.2 159.95 229 160.55 227.85 161.15 226.6 161.4 225.35 161.65 224.5 161.65
L 222.6 161.65
Q 222.25 161.65 222.15 161.75 222.05 161.8 222.05 162.2
L 222.05 165.15
Q 222.05 165.45 222.15 165.55 222.25 165.65 222.6 165.65
L 224.55 165.65
Q 226.5 165.65 227.85 166.05 229.25 166.4 230.15 167.1 231 167.75 231.45 168.6 231.85 169.45 231.85 170.4 231.85 173.05 229.9 174.4 229.25 174.85 228.5 175.1 227.7 175.4 226.85 175.5 226 175.6 225.1 175.55 224.2 175.5 223.4 175.45 222.3 175.35 221.25 175.05 220.2 174.75 219.15 174.45 218.6 174.2 218.4 174.35 218.2 174.45 218.15 174.8
L 217.8 177.85
Q 217.75 178.2 217.95 178.35 218.1 178.55 218.5 178.65 219.95 179.2 221.7 179.5 223.45 179.8 225.2 179.8 227.5 179.8 229.65 179.2 231.8 178.65 233.3 177.4 234.8 176.15 235.65 174.4 236.45 172.6 236.45 170.5 236.45 168.3 235.1 166.5 233.75 164.75 231.1 163.6 232.2 163.1 233.15 162.35 234.1 161.6 234.8 160.6
M 199.3 146.2
Q 199.3 145.65 198.8 145.65
L 195.2 145.65
Q 194.7 145.65 194.7 146.2
L 194.7 158.1 186.45 158.1
Q 186.25 158.1 186.1 158.25 185.9 158.35 185.9 158.6
L 185.9 161.4
Q 185.9 161.6 186.1 161.75 186.25 161.95 186.45 161.95
L 194.7 161.95 194.7 183.1
Q 194.7 183.65 195.2 183.65
L 198.8 183.65
Q 199.3 183.65 199.3 183.1
L 199.3 146.2
M 181.2 148.35
Q 181.2 148.1 181.05 147.95 180.9 147.75 180.7 147.75
L 177.15 147.6
Q 176.95 147.6 176.75 147.8 176.55 148 176.55 148.2 176.65 151.75 176.3 154.8 175.9 157.85 174.9 160.75 173.8 164 171.95 166.9 170.1 169.8 167.5 172.2 166.8 172.85 167.35 173.35
L 169.25 175.15
Q 169.9 175.8 170.65 175.15 171.7 174.3 172.85 173.1 173.95 171.95 174.95 170.5 175.95 169.1 176.9 167.55 177.8 165.95 178.5 164.3 179 165.6 179.85 167.05 180.7 168.45 181.7 169.8 182.7 171.15 183.8 172.3 184.9 173.45 185.9 174.2 186.3 174.5 186.65 174.45 187 174.45 187.15 174.15
L 188.85 172.1
Q 189.4 171.3 188.8 170.8 187.45 169.8 186.15 168.25 184.8 166.75 183.7 164.95 182.55 163.2 181.7 161.25 180.85 159.3 180.5 157.4 181.2 153.25 181.2 148.35
M 506.9 387.7
Q 506.7 387.9 506.7 388.05
L 506.7 395.7
Q 506.7 397.1 507.25 397.65 507.8 398.2 509.4 398.2
L 527.6 398.2
Q 527.8 398.2 527.95 398.1 528.1 398 528.1 397.8
L 528.1 395.3
Q 528.1 395.15 527.95 395 527.8 394.85 527.6 394.85
L 511.4 394.85
Q 511.05 394.85 510.9 394.75 510.75 394.65 510.75 394.3
L 510.75 388.05
Q 510.75 387.9 510.6 387.7 510.45 387.55 510.2 387.55
L 507.2 387.55
Q 507.05 387.55 506.9 387.7
M 513.3 367.05
Q 513.15 367.2 513.15 367.4
L 513.15 372.75 505.7 372.75 505.7 367.4
Q 505.7 367.2 505.55 367.1 505.4 367 505.25 367
L 502.2 367
Q 502 367 501.85 367.1 501.75 367.2 501.75 367.4
L 501.75 381.5
Q 501.75 382.9 502.3 383.4 502.85 383.9 504.4 383.9
L 514.5 383.9
Q 516 383.9 516.55 383.35 517.15 382.8 517.15 381.6
L 517.15 377.15 523.05 377.15 523.05 388.7
Q 523.05 389.15 523.5 389.15
L 526.6 389.15
Q 527.1 389.15 527.1 388.7
L 527.1 366
Q 527.1 365.5 526.6 365.5
L 523.5 365.5
Q 523.05 365.5 523.05 366
L 523.05 373.85 517.15 373.85 517.15 367.4
Q 517.15 367.2 517 367.05 516.85 366.9 516.65 366.9
L 513.6 366.9
Q 513.45 366.9 513.3 367.05
M 505.7 380.05
L 505.7 376 513.15 376 513.15 380.05
Q 513.15 380.65 512.5 380.65
L 506.35 380.65
Q 505.7 380.65 505.7 380.05
M 524.05 291.35
Q 524.15 291.5 524.35 291.5
L 545.5 291.5
Q 546 291.5 546 291
L 546 287.9
Q 546 287.4 545.5 287.4
L 524.35 287.4
Q 524.15 287.4 524.05 287.55 523.9 287.7 523.9 287.9
L 523.9 291
Q 523.9 291.2 524.05 291.35
M 505.3 274.35
Q 503.6 274.35 501.95 274.7 500.25 275.1 498.5 275.7 498.1 275.9 497.95 276.1 497.8 276.25 497.9 276.5
L 498.25 279.45
Q 498.35 279.8 498.55 279.9 498.75 280 499.25 279.8 499.85 279.55 500.65 279.3 501.45 279.05 502.25 278.9 503.05 278.7 503.8 278.6 504.5 278.5 505.05 278.5 505.9 278.5 506.85 278.7 507.8 278.9 508.65 279.4 509.45 279.85 510 280.65 510.5 281.4 510.5 282.4 510.5 283.75 509.7 284.65 508.9 285.6 507.7 286.2 506.55 286.8 505.3 287.05 504.05 287.3 503.2 287.3
L 501.3 287.3
Q 500.95 287.3 500.85 287.4 500.75 287.45 500.75 287.85
L 500.75 290.8
Q 500.75 291.1 500.85 291.2 500.95 291.3 501.3 291.3
L 503.25 291.3
Q 505.2 291.3 506.55 291.7 507.95 292.05 508.85 292.75 509.7 293.4 510.15 294.25 510.55 295.1 510.55 296.05 510.55 298.7 508.6 300.05 507.95 300.5 507.2 300.75 506.4 301.05 505.55 301.15 504.7 301.25 503.8 301.2 502.9 301.15 502.1 301.1 501 301 499.95 300.7 498.9 300.4 497.85 300.1 497.3 299.85 497.1 300 496.9 300.1 496.85 300.45
L 496.5 303.5
Q 496.45 303.85 496.65 304 496.8 304.2 497.2 304.3 498.65 304.85 500.4 305.15 502.15 305.45 503.9 305.45 506.2 305.45 508.35 304.85 510.5 304.3 512 303.05 513.5 301.8 514.35 300.05 515.15 298.25 515.15 296.15 515.15 293.95 513.8 292.15 512.45 290.4 509.8 289.25 510.9 288.75 511.85 288 512.8 287.25 513.5 286.25 514.2 285.3 514.6 284.25 514.95 283.15 514.95 282.05 514.95 280.05 514.1 278.55 513.25 277.05 511.9 276.15 510.6 275.25 508.85 274.8 507.1 274.35 505.3 274.35
M 621.95 274.7
Q 620.25 275.1 618.5 275.7 618.1 275.9 617.95 276.1 617.8 276.25 617.9 276.5
L 618.25 279.45
Q 618.35 279.8 618.55 279.9 618.75 280 619.25 279.8 619.85 279.55 620.65 279.3 621.45 279.05 622.25 278.9 623.05 278.7 623.8 278.6 624.5 278.5 625.05 278.5 625.9 278.5 626.85 278.7 627.8 278.9 628.65 279.4 629.45 279.85 630 280.65 630.5 281.4 630.5 282.4 630.5 283.75 629.7 284.65 628.9 285.6 627.7 286.2 626.55 286.8 625.3 287.05 624.05 287.3 623.2 287.3
L 621.3 287.3
Q 620.95 287.3 620.85 287.4 620.75 287.45 620.75 287.85
L 620.75 290.8
Q 620.75 291.1 620.85 291.2 620.95 291.3 621.3 291.3
L 623.25 291.3
Q 625.2 291.3 626.55 291.7 627.95 292.05 628.85 292.75 629.7 293.4 630.15 294.25 630.55 295.1 630.55 296.05 630.55 298.7 628.6 300.05 627.95 300.5 627.2 300.75 626.4 301.05 625.55 301.15 624.7 301.25 623.8 301.2 622.9 301.15 622.1 301.1 621 301 619.95 300.7 618.9 300.4 617.85 300.1 617.3 299.85 617.1 300 616.9 300.1 616.85 300.45
L 616.5 303.5
Q 616.45 303.85 616.65 304 616.8 304.2 617.2 304.3 618.65 304.85 620.4 305.15 622.15 305.45 623.9 305.45 626.2 305.45 628.35 304.85 630.5 304.3 632 303.05 633.5 301.8 634.35 300.05 635.15 298.25 635.15 296.15 635.15 293.95 633.8 292.15 632.45 290.4 629.8 289.25 630.9 288.75 631.85 288 632.8 287.25 633.5 286.25 634.2 285.3 634.6 284.25 634.95 283.15 634.95 282.05 634.95 280.05 634.1 278.55 633.25 277.05 631.9 276.15 630.6 275.25 628.85 274.8 627.1 274.35 625.3 274.35 623.6 274.35 621.95 274.7
M 584.05 291.35
Q 584.15 291.5 584.35 291.5
L 605.5 291.5
Q 606 291.5 606 291
L 606 287.9
Q 606 287.4 605.5 287.4
L 584.35 287.4
Q 584.15 287.4 584.05 287.55 583.9 287.7 583.9 287.9
L 583.9 291
Q 583.9 291.2 584.05 291.35
M 574.6 284.25
Q 574.95 283.15 574.95 282.05 574.95 280.05 574.1 278.55 573.25 277.05 571.9 276.15 570.6 275.25 568.85 274.8 567.1 274.35 565.3 274.35 563.6 274.35 561.95 274.7 560.25 275.1 558.5 275.7 558.1 275.9 557.95 276.1 557.8 276.25 557.9 276.5
L 558.25 279.45
Q 558.35 279.8 558.55 279.9 558.75 280 559.25 279.8 559.85 279.55 560.65 279.3 561.45 279.05 562.25 278.9 563.05 278.7 563.8 278.6 564.5 278.5 565.05 278.5 565.9 278.5 566.85 278.7 567.8 278.9 568.65 279.4 569.45 279.85 570 280.65 570.5 281.4 570.5 282.4 570.5 283.75 569.7 284.65 568.9 285.6 567.7 286.2 566.55 286.8 565.3 287.05 564.05 287.3 563.2 287.3
L 561.3 287.3
Q 560.95 287.3 560.85 287.4 560.75 287.45 560.75 287.85
L 560.75 290.8
Q 560.75 291.1 560.85 291.2 560.95 291.3 561.3 291.3
L 563.25 291.3
Q 565.2 291.3 566.55 291.7 567.95 292.05 568.85 292.75 569.7 293.4 570.15 294.25 570.55 295.1 570.55 296.05 570.55 298.7 568.6 300.05 567.95 300.5 567.2 300.75 566.4 301.05 565.55 301.15 564.7 301.25 563.8 301.2 562.9 301.15 562.1 301.1 561 301 559.95 300.7 558.9 300.4 557.85 300.1 557.3 299.85 557.1 300 556.9 300.1 556.85 300.45
L 556.5 303.5
Q 556.45 303.85 556.65 304 556.8 304.2 557.2 304.3 558.65 304.85 560.4 305.15 562.15 305.45 563.9 305.45 566.2 305.45 568.35 304.85 570.5 304.3 572 303.05 573.5 301.8 574.35 300.05 575.15 298.25 575.15 296.15 575.15 293.95 573.8 292.15 572.45 290.4 569.8 289.25 570.9 288.75 571.85 288 572.8 287.25 573.5 286.25 574.2 285.3 574.6 284.25
M 481.55 368.45
Q 481.05 368.45 480.95 368.55 480.85 368.65 480.8 369.05
L 480.6 381.95
Q 480.6 383.15 482 382.6 483.1 382.2 484.3 381.95 485.55 381.7 486.65 381.7 489.55 381.7 490.8 383.05 492.05 384.4 492.05 386.65 492.05 389 490.5 390.35 489 391.65 486.65 391.65 486 391.65 485.3 391.6 484.55 391.55 483.85 391.4 483.1 391.25 482.4 391.05 481.7 390.85 481.2 390.55 480.45 390.25 480.45 390.85
L 480.45 393.7
Q 480.45 393.95 480.45 394.05 480.5 394.15 480.7 394.35 481.3 394.6 482.1 394.8 482.95 395 483.75 395.1 484.55 395.25 485.3 395.3 486 395.35 486.35 395.35 488.35 395.35 490.2 394.75 492 394.2 493.25 393.05 496 390.6 496 386.2 496 384.4 495.35 382.9 494.7 381.45 493.55 380.4 492.4 379.35 490.9 378.85 489.35 378.3 487.6 378.3 485.85 378.3 484.5 378.6
L 484.65 372.1 494.4 372.1
Q 494.6 372.1 494.7 371.95 494.8 371.8 494.8 371.6
L 494.8 368.9
Q 494.8 368.75 494.7 368.6 494.6 368.45 494.4 368.45
L 481.55 368.45
M 377.95 276.1
Q 377.8 276.25 377.9 276.5
L 378.25 279.45
Q 378.35 279.8 378.55 279.9 378.75 280 379.25 279.8 379.85 279.55 380.65 279.3 381.45 279.05 382.25 278.9 383.05 278.7 383.8 278.6 384.5 278.5 385.05 278.5 385.9 278.5 386.85 278.7 387.8 278.9 388.65 279.4 389.45 279.85 390 280.65 390.5 281.4 390.5 282.4 390.5 283.75 389.7 284.65 388.9 285.6 387.7 286.2 386.55 286.8 385.3 287.05 384.05 287.3 383.2 287.3
L 381.3 287.3
Q 380.95 287.3 380.85 287.4 380.75 287.45 380.75 287.85
L 380.75 290.8
Q 380.75 291.1 380.85 291.2 380.95 291.3 381.3 291.3
L 383.25 291.3
Q 385.2 291.3 386.55 291.7 387.95 292.05 388.85 292.75 389.7 293.4 390.15 294.25 390.55 295.1 390.55 296.05 390.55 298.7 388.6 300.05 387.95 300.5 387.2 300.75 386.4 301.05 385.55 301.15 384.7 301.25 383.8 301.2 382.9 301.15 382.1 301.1 381 301 379.95 300.7 378.9 300.4 377.85 300.1 377.3 299.85 377.1 300 376.9 300.1 376.85 300.45
L 376.5 303.5
Q 376.45 303.85 376.65 304 376.8 304.2 377.2 304.3 378.65 304.85 380.4 305.15 382.15 305.45 383.9 305.45 386.2 305.45 388.35 304.85 390.5 304.3 392 303.05 393.5 301.8 394.35 300.05 395.15 298.25 395.15 296.15 395.15 293.95 393.8 292.15 392.45 290.4 389.8 289.25 390.9 288.75 391.85 288 392.8 287.25 393.5 286.25 394.2 285.3 394.6 284.25 394.95 283.15 394.95 282.05 394.95 280.05 394.1 278.55 393.25 277.05 391.9 276.15 390.6 275.25 388.85 274.8 387.1 274.35 385.3 274.35 383.6 274.35 381.95 274.7 380.25 275.1 378.5 275.7 378.1 275.9 377.95 276.1
M 343.9 291
Q 343.9 291.2 344.05 291.35 344.15 291.5 344.35 291.5
L 365.5 291.5
Q 366 291.5 366 291
L 366 287.9
Q 366 287.4 365.5 287.4
L 344.35 287.4
Q 344.15 287.4 344.05 287.55 343.9 287.7 343.9 287.9
L 343.9 291
M 332.8 278.85
Q 333.05 278.85 333.2 278.65 333.3 278.5 333.3 278.25
L 333.3 275.2
Q 333.3 275 333.2 274.85 333.05 274.65 332.8 274.65
L 318.15 274.65
Q 317.55 274.65 317.45 274.8 317.3 274.9 317.3 275.35
L 317.1 290.1
Q 317.1 291.45 318.65 290.8 319.9 290.35 321.3 290.1 322.7 289.8 324 289.8 327.3 289.8 328.7 291.35 330.15 292.85 330.15 295.45 330.15 298.15 328.35 299.65 326.65 301.2 323.95 301.2 323.25 301.2 322.4 301.1 321.6 301.05 320.75 300.9 319.9 300.7 319.1 300.5 318.3 300.25 317.75 299.95 316.9 299.55 316.9 300.25
L 316.9 303.5
Q 316.9 303.8 316.9 303.95 316.95 304.05 317.2 304.25 317.85 304.55 318.8 304.75 319.7 305 320.65 305.15 321.6 305.25 322.4 305.35 323.25 305.4 323.65 305.4 325.95 305.4 328 304.75 330.1 304.1 331.5 302.8 334.65 300 334.65 294.95 334.65 292.85 333.9 291.2 333.15 289.5 331.85 288.3 330.55 287.15 328.8 286.5 327.05 285.9 325.05 285.9 323.1 285.9 321.5 286.25
L 321.65 278.85 332.8 278.85
M 348.65 237.05
Q 349.55 237.95 350.85 237.95 352.1 237.95 353 237.05 353.85 236.15 353.85 234.85 353.85 233.55 353 232.7 352.1 231.8 350.85 231.8 349.55 231.8 348.65 232.7 347.75 233.55 347.75 234.85 347.75 236.15 348.65 237.05
M 327 208.5
Q 327.55 208.5 327.55 208
L 327.55 205.2
Q 327.55 204.65 327 204.65
L 312.45 204.65
Q 310.95 204.65 310.4 205.2 309.8 205.8 309.8 207.2
L 309.8 226.15
Q 309.8 227.6 310.5 228.15 311.2 228.75 312.7 228.85 314.35 228.95 316.75 228.85 319.15 228.8 321.7 228.55 324.25 228.35 326.6 228 329 227.6 330.6 227.15 330.8 227.05 331 226.9 331.15 226.8 331.1 226.35
L 330.65 224
Q 330.5 223.4 329.9 223.55 328.1 223.85 326.15 224.15 324.1 224.4 322.2 224.6 320.3 224.8 318.55 224.85 316.85 224.95 315.6 224.8 314.85 224.75 314.6 224.55 314.4 224.35 314.4 223.75
L 314.4 209.2
Q 314.4 208.5 315.1 208.5
L 327 208.5
M 337.7 202.2
Q 337.7 201.65 337.15 201.65
L 333.6 201.65
Q 333.1 201.65 333.1 202.2
L 333.1 239.1
Q 333.1 239.65 333.6 239.65
L 337.15 239.65
Q 337.7 239.65 337.7 239.1
L 337.7 220.15 343.1 220.15
Q 343.3 220.15 343.5 220 343.7 219.8 343.7 219.6
L 343.7 216.8
Q 343.7 216.6 343.5 216.45 343.3 216.3 343.1 216.3
L 337.7 216.3 337.7 202.2
M 464.05 291.35
Q 464.15 291.5 464.35 291.5
L 485.5 291.5
Q 486 291.5 486 291
L 486 287.9
Q 486 287.4 485.5 287.4
L 464.35 287.4
Q 464.15 287.4 464.05 287.55 463.9 287.7 463.9 287.9
L 463.9 291
Q 463.9 291.2 464.05 291.35
M 425.5 291.5
Q 426 291.5 426 291
L 426 287.9
Q 426 287.4 425.5 287.4
L 404.35 287.4
Q 404.15 287.4 404.05 287.55 403.9 287.7 403.9 287.9
L 403.9 291
Q 403.9 291.2 404.05 291.35 404.15 291.5 404.35 291.5
L 425.5 291.5
M 445.3 274.35
Q 443.6 274.35 441.95 274.7 440.25 275.1 438.5 275.7 438.1 275.9 437.95 276.1 437.8 276.25 437.9 276.5
L 438.25 279.45
Q 438.35 279.8 438.55 279.9 438.75 280 439.25 279.8 439.85 279.55 440.65 279.3 441.45 279.05 442.25 278.9 443.05 278.7 443.8 278.6 444.5 278.5 445.05 278.5 445.9 278.5 446.85 278.7 447.8 278.9 448.65 279.4 449.45 279.85 450 280.65 450.5 281.4 450.5 282.4 450.5 283.75 449.7 284.65 448.9 285.6 447.7 286.2 446.55 286.8 445.3 287.05 444.05 287.3 443.2 287.3
L 441.3 287.3
Q 440.95 287.3 440.85 287.4 440.75 287.45 440.75 287.85
L 440.75 290.8
Q 440.75 291.1 440.85 291.2 440.95 291.3 441.3 291.3
L 443.25 291.3
Q 445.2 291.3 446.55 291.7 447.95 292.05 448.85 292.75 449.7 293.4 450.15 294.25 450.55 295.1 450.55 296.05 450.55 298.7 448.6 300.05 447.95 300.5 447.2 300.75 446.4 301.05 445.55 301.15 444.7 301.25 443.8 301.2 442.9 301.15 442.1 301.1 441 301 439.95 300.7 438.9 300.4 437.85 300.1 437.3 299.85 437.1 300 436.9 300.1 436.85 300.45
L 436.5 303.5
Q 436.45 303.85 436.65 304 436.8 304.2 437.2 304.3 438.65 304.85 440.4 305.15 442.15 305.45 443.9 305.45 446.2 305.45 448.35 304.85 450.5 304.3 452 303.05 453.5 301.8 454.35 300.05 455.15 298.25 455.15 296.15 455.15 293.95 453.8 292.15 452.45 290.4 449.8 289.25 450.9 288.75 451.85 288 452.8 287.25 453.5 286.25 454.2 285.3 454.6 284.25 454.95 283.15 454.95 282.05 454.95 280.05 454.1 278.55 453.25 277.05 451.9 276.15 450.6 275.25 448.85 274.8 447.1 274.35 445.3 274.35
M 472.85 154.05
Q 472.15 152.5 471 151.3 469.95 150.15 468.35 149.45 466.8 148.8 464.75 148.8 461.55 148.8 459.6 150.25 457.65 151.75 456.55 154 455.45 156.3 455.05 159 454.7 161.75 454.7 164.2 454.7 171.55 457.15 175.6 459.6 179.65 464.75 179.65 467.3 179.65 469.15 178.65 471 177.55 472.25 175.6 473.5 173.65 474.1 170.75 474.7 167.85 474.7 164.2 474.7 162.55 474.5 160.8 474.35 159 473.95 157.3 473.55 155.6 472.85 154.05
M 467 153.75
Q 468 154.3 468.75 155.6 469.45 156.95 469.85 159.05 470.2 161.2 470.2 164.2 470.2 167.3 469.85 169.45 469.45 171.55 468.75 172.85 468 174.2 467 174.75 465.95 175.35 464.75 175.35 463.45 175.35 462.45 174.75 461.45 174.2 460.75 172.85 460 171.55 459.65 169.45 459.25 167.3 459.25 164.2 459.25 161.2 459.65 159.05 460 156.95 460.75 155.6 461.45 154.3 462.45 153.75 463.45 153.15 464.75 153.15 465.95 153.15 467 153.75
M 412.95 171.25
Q 412.75 171.25 412.55 171.45 412.4 171.65 412.4 171.85
L 412.4 180.1
Q 412.4 181.65 413 182.3 413.65 182.95 415.45 182.95
L 436.25 182.95
Q 436.45 182.95 436.65 182.85 436.8 182.7 436.8 182.45
L 436.8 179.6
Q 436.8 179.45 436.65 179.25 436.45 179.1 436.25 179.1
L 417.75 179.1
Q 417.35 179.1 417.15 179 417 178.85 417 178.45
L 417 171.85
Q 417 171.65 416.85 171.45 416.65 171.25 416.35 171.25
L 412.95 171.25
M 435.65 146.2
Q 435.65 145.65 435.15 145.65
L 431.6 145.65
Q 431.05 145.65 431.05 146.2
L 431.05 152.05 424.25 152.05 424.25 150.5
Q 424.25 148.9 423.65 148.35 423 147.85 421.5 147.85
L 409.4 147.85
Q 407.9 147.85 407.3 148.4 406.65 149 406.65 150.5
L 406.65 164.3
Q 406.65 165.85 407.3 166.45 407.9 167.05 409.6 167.05
L 421.5 167.05
Q 423 167.05 423.65 166.45 424.25 165.85 424.25 164.3
L 424.25 163.55 431.05 163.55 431.05 172.5
Q 431.05 173 431.6 173
L 435.15 173
Q 435.65 173 435.65 172.5
L 435.65 146.2
M 431.05 155.7
L 431.05 159.85 424.25 159.85 424.25 155.7 431.05 155.7
M 419.2 151.5
Q 419.55 151.5 419.6 151.6 419.75 151.7 419.75 152.05
L 419.75 162.85
Q 419.75 163.25 419.6 163.35 419.55 163.4 419.2 163.4
L 411.7 163.4
Q 411.35 163.4 411.25 163.35 411.15 163.25 411.15 162.85
L 411.15 152
Q 411.15 151.65 411.25 151.6 411.35 151.5 411.7 151.5
L 419.2 151.5
M 329.1 171.4
Q 329.1 171.25 328.95 171.05 328.75 170.85 328.45 170.85
L 325.05 170.85
Q 324.85 170.85 324.65 171.05 324.5 171.25 324.5 171.4
L 324.5 180.15
Q 324.5 181.75 325.1 182.4 325.75 183 327.55 183
L 348.35 183
Q 348.55 183 348.75 182.9 348.9 182.8 348.9 182.55
L 348.9 179.7
Q 348.9 179.5 348.75 179.35 348.55 179.2 348.35 179.2
L 329.85 179.2
Q 329.45 179.2 329.25 179.05 329.1 178.95 329.1 178.55
L 329.1 171.4
M 347.75 146.2
Q 347.75 145.65 347.25 145.65
L 343.7 145.65
Q 343.15 145.65 343.15 146.2
L 343.15 155.15 336.4 155.15 336.4 147.8
Q 336.4 147.55 336.25 147.4 336.1 147.25 335.85 147.25
L 332.35 147.25
Q 332.15 147.25 332 147.4 331.85 147.55 331.85 147.8
L 331.85 153.95 323.35 153.95 323.35 147.85
Q 323.35 147.6 323.15 147.5 323 147.35 322.8 147.35
L 319.3 147.35
Q 319.1 147.35 318.95 147.5 318.8 147.6 318.8 147.85
L 318.8 163.9
Q 318.8 165.5 319.45 166.1 320.05 166.7 321.85 166.7
L 333.4 166.7
Q 335.1 166.7 335.75 166.05 336.4 165.4 336.4 164
L 336.4 159 343.15 159 343.15 172.15
Q 343.15 172.65 343.7 172.65
L 347.25 172.65
Q 347.75 172.65 347.75 172.15
L 347.75 146.2
M 331.85 162.25
Q 331.85 162.95 331.1 162.95
L 324.05 162.95
Q 323.35 162.95 323.35 162.25
L 323.35 157.65 331.85 157.65 331.85 162.25
M 396.2 145.65
Q 395.6 145.65 395.6 146.2
L 395.6 160.35 393 160.35 393 146.8
Q 393 146.3 392.5 146.3
L 389.45 146.3
Q 388.85 146.3 388.85 146.8
L 388.85 181.75
Q 388.85 182.35 389.45 182.35
L 392.5 182.35
Q 393 182.35 393 181.75
L 393 164.1 395.6 164.1 395.6 183.2
Q 395.6 183.7 396.15 183.7
L 399.3 183.7
Q 399.8 183.7 399.8 183.2
L 399.8 146.2
Q 399.8 145.65 399.3 145.65
L 396.2 145.65
M 383.55 148.25
Q 383.35 148.25 383.2 148.4 383.05 148.6 383.05 148.8
L 383.05 157.05 380.6 157.05 380.6 148.8
Q 380.6 148.65 380.45 148.45 380.25 148.35 380.1 148.35
L 377.4 148.35
Q 377.25 148.35 377.05 148.45 376.9 148.65 376.9 148.8
L 376.9 169.65
Q 376.9 171.25 377.55 171.85 378.2 172.5 380 172.5
L 383.75 172.5
Q 385.45 172.5 386.1 171.8 386.75 171.15 386.75 169.8
L 386.75 148.8
Q 386.75 148.6 386.6 148.4 386.45 148.25 386.25 148.25
L 383.55 148.25
M 380.6 160.75
L 383.05 160.75 383.05 168.05
Q 383.05 168.75 382.3 168.75
L 381.35 168.75
Q 380.6 168.75 380.6 168.05
L 380.6 160.75
M 368.85 148.45
Q 368.65 148.35 368.5 148.35
L 365.9 148.35
Q 365.65 148.35 365.5 148.45 365.35 148.65 365.35 148.8
L 365.35 169.65
Q 365.35 171.25 366 171.85 366.65 172.5 368.4 172.5
L 372.2 172.5
Q 373.9 172.5 374.55 171.8 375.2 171.15 375.2 169.8
L 375.2 148.8
Q 375.2 148.6 375.05 148.4 374.85 148.25 374.65 148.25
L 372.05 148.25
Q 371.85 148.25 371.7 148.4 371.5 148.6 371.5 148.8
L 371.5 157.05 369 157.05 369 148.8
Q 369 148.65 368.85 148.45
M 369 160.75
L 371.5 160.75 371.5 168.05
Q 371.5 168.75 370.75 168.75
L 369.8 168.75
Q 369 168.75 369 168.05
L 369 160.75
M 607.2 149.2
Q 606.6 149.8 606.6 151.2
L 606.6 170.15
Q 606.6 171.6 607.3 172.15 608 172.75 609.5 172.85 611.15 172.95 613.55 172.85 615.95 172.8 618.5 172.55 621.05 172.35 623.4 172 625.8 171.6 627.4 171.15 627.6 171.05 627.8 170.9 627.95 170.8 627.9 170.35
L 627.45 168
Q 627.3 167.4 626.7 167.55 624.9 167.85 622.95 168.15 620.9 168.4 619 168.6 617.1 168.8 615.35 168.85 613.65 168.95 612.4 168.8 611.65 168.75 611.4 168.55 611.2 168.35 611.2 167.75
L 611.2 153.2
Q 611.2 152.5 611.9 152.5
L 623.8 152.5
Q 624.35 152.5 624.35 152
L 624.35 149.2
Q 624.35 148.65 623.8 148.65
L 609.25 148.65
Q 607.75 148.65 607.2 149.2
M 598.05 146.2
Q 598.05 145.65 597.55 145.65
L 594 145.65
Q 593.45 145.65 593.45 146.2
L 593.45 183.1
Q 593.45 183.65 594 183.65
L 597.55 183.65
Q 598.05 183.65 598.05 183.1
L 598.05 146.2
M 573.8 148.15
Q 573.6 148 573.4 148
L 569.95 148
Q 569.75 148 569.55 148.15 569.4 148.35 569.4 148.55
L 569.4 169.4
Q 569.4 170.75 570.05 171.55 570.75 172.35 572.3 172.4 574.5 172.55 576.9 172.5 579.35 172.4 581.7 172.25 584.05 172.05 586.25 171.75 588.45 171.4 590.2 170.95 590.55 170.85 590.75 170.6 591 170.4 590.9 170.1
L 590.4 167.9
Q 590.35 167.6 590.15 167.4 590 167.2 589.55 167.25 585.45 168.1 581.7 168.4 577.95 168.7 574.75 168.5 574.3 168.45 574.15 168.35 574 168.25 574 167.85
L 574 148.55
Q 574 148.35 573.8 148.15
M 634.5 146.2
Q 634.5 145.65 633.95 145.65
L 630.4 145.65
Q 629.9 145.65 629.9 146.2
L 629.9 183.1
Q 629.9 183.65 630.4 183.65
L 633.95 183.65
Q 634.5 183.65 634.5 183.1
L 634.5 164.15 639.9 164.15
Q 640.1 164.15 640.3 164 640.5 163.8 640.5 163.6
L 640.5 160.8
Q 640.5 160.6 640.3 160.45 640.1 160.3 639.9 160.3
L 634.5 160.3 634.5 146.2
M 555.95 169.2
Q 555.75 169.2 555.55 169.35 555.4 169.55 555.4 169.8
L 555.4 173.2 540.15 173.2 540.15 169.9
Q 540.15 169.7 539.95 169.55 539.75 169.4 539.55 169.4
L 536.05 169.4
Q 535.85 169.4 535.65 169.55 535.5 169.7 535.5 169.9
L 535.5 180.55
Q 535.5 182.15 536.15 182.75 536.8 183.35 538.55 183.35
L 557 183.35
Q 558.7 183.35 559.4 182.65 560.05 182.05 560.05 180.65
L 560.05 169.8
Q 560.05 169.55 559.85 169.35 559.7 169.2 559.5 169.2
L 555.95 169.2
M 540.85 179.6
Q 540.15 179.6 540.15 178.95
L 540.15 176.85 555.4 176.85 555.4 178.95
Q 555.4 179.6 554.7 179.6
L 540.85 179.6
M 499.55 155.8
Q 498.9 153.35 497.65 151.65 496.35 149.95 494.55 149 492.75 148.05 490.4 148.05 488.1 148.05 486.3 149 484.45 149.95 483.2 151.65 481.95 153.35 481.25 155.8 480.55 158.2 480.55 161.25 480.55 164.15 481.25 166.6 481.95 169 483.2 170.75 484.45 172.5 486.3 173.45 488.1 174.45 490.4 174.45 492.75 174.45 494.55 173.45 496.35 172.55 497.65 170.8 498.9 169.1 499.55 166.65 500.25 164.2 500.25 161.25 500.25 158.2 499.55 155.8
M 486.5 154.8
Q 487.15 153.6 488.15 152.85 489.1 152.15 490.4 152.15 491.65 152.15 492.65 152.85 493.65 153.6 494.35 154.8 495 156.05 495.35 157.75 495.7 159.4 495.7 161.25 495.7 163 495.35 164.7 495 166.35 494.35 167.6 493.65 168.85 492.65 169.6 491.65 170.35 490.4 170.35 489.1 170.35 488.15 169.6 487.15 168.85 486.5 167.6 485.8 166.35 485.45 164.7 485.05 163 485.05 161.25 485.05 159.4 485.45 157.75 485.8 156.05 486.5 154.8
M 510.15 146.2
Q 510.15 145.65 509.65 145.65
L 506.1 145.65
Q 505.55 145.65 505.55 146.2
L 505.55 183.1
Q 505.55 183.65 506.1 183.65
L 509.65 183.65
Q 510.15 183.65 510.15 183.1
L 510.15 146.2
M 550 147.9
Q 550 147.4 549.45 147.4
L 534.4 147.4
Q 532.9 147.4 532.2 147.95 531.5 148.45 531.5 150
L 531.5 156.6
Q 531.5 158 532.15 158.75 532.8 159.5 534.4 159.5
L 539.05 159.5 539.05 163.55
Q 536.45 163.6 533.95 163.6 531.45 163.6 529.05 163.5 528.45 163.5 528.45 164.05
L 528.45 166.6
Q 528.45 166.85 528.6 167.05 528.75 167.2 529.05 167.2 531.85 167.25 534.95 167.25 538 167.2 541.15 167.1 544.3 167.05 547.4 166.8 550.5 166.6 553.35 166.3 553.55 166.25 553.75 166.1 553.9 165.95 553.9 165.6
L 553.65 163.2
Q 553.6 162.85 553.35 162.8 553.05 162.75 552.9 162.8 550.7 163 548.35 163.2 545.95 163.35 543.5 163.4
L 543.5 159.5 550.05 159.5
Q 550.25 159.5 550.4 159.35 550.5 159.2 550.5 158.85
L 550.5 156.3
Q 550.5 155.95 550.35 155.9 550.2 155.8 549.85 155.8
L 536.9 155.8
Q 536.45 155.8 536.3 155.65 536.15 155.45 536.15 155.1
L 536.15 151.75
Q 536.15 151.3 536.35 151.15 536.5 151 536.9 151
L 549.45 151
Q 550 151 550 150.5
L 550 147.9
M 560 146.2
Q 560 145.65 559.45 145.65
L 555.95 145.65
Q 555.7 145.65 555.55 145.8 555.35 145.95 555.35 146.2
L 555.35 166.75
Q 555.35 167.05 555.55 167.15 555.7 167.3 555.95 167.3
L 559.45 167.3
Q 560 167.3 560 166.75
L 560 146.2
M 1039.15 567.7
Q 1039.3 568 1039.65 568.2 1039.9 568.35 1040.2 568.45 1040.5 568.55 1040.8 568.55 1041.15 568.55 1041.5 568.45 1041.8 568.35 1042.1 568.2 1042.35 568 1042.5 567.7 1042.65 567.4 1042.65 567
L 1042.65 558.55 1052.75 558.55
Q 1053.45 558.55 1053.85 558.15 1054.2 557.7 1054.2 557.15 1054.2 556.8 1054.1 556.45 1054.05 556.15 1053.85 555.9 1053.65 555.7 1053.35 555.55 1053.1 555.45 1052.75 555.4
L 1029.1 555.4
Q 1028.7 555.45 1028.4 555.55 1028.1 555.7 1027.95 555.9 1027.6 556.4 1027.6 557 1027.6 557.35 1027.7 557.6 1027.8 557.9 1027.95 558.15 1028.1 558.35 1028.4 558.45 1028.7 558.55 1029.1 558.55
L 1039.05 558.55 1039.05 567
Q 1039.05 567.4 1039.15 567.7
M 999.3 561.05
Q 1000.1 561 1000.9 561 1002.4 560.9 1003.9 560.7 1004.6 560.65 1005.35 560.55 1006.1 560.45 1006.9 560.3 1007.3 560.25 1007.65 560.1 1007.95 559.9 1008.15 559.65 1008.35 559.35 1008.45 559.1 1008.55 558.8 1008.55 558.5
L 1008.6 558.5
Q 1008.55 558.2 1008.4 557.95 1008.25 557.65 1008.05 557.4 1007.8 557.2 1007.5 557.15 1007.2 557.1 1006.8 557.15 1006 557.25 1005.25 557.35 1004.5 557.45 1003.75 557.5 1003.05 557.6 1002.3 557.65 1001.55 557.7 1000.85 557.75 1000.05 557.8 999.3 557.85 998.5 557.9 997.8 557.9 997 557.95 996.25 557.95 995.45 557.95 994.65 557.95
L 991.5 557.95
Q 991.2 558 990.95 558.1 990.75 558.25 990.6 558.45 990.35 558.9 990.35 559.65 990.35 560.15 990.6 560.6 990.75 560.85 990.95 561 991.2 561.15 991.5 561.15
L 994.3 561.15
Q 995.25 561.15 996.1 561.15 996.95 561.15 997.75 561.1 998.5 561.1 999.3 561.05
M 996.45 542.4
Q 995.25 542.85 994.35 543.7 993.4 544.55 992.95 545.75 992.5 546.95 992.5 548.45 992.5 549.95 992.95 551.15 993.4 552.3 994.35 553.15 995.25 554 996.45 554.45 997.65 554.85 999.2 554.85 1000.8 554.85 1002.05 554.4 1002.65 554.2 1003.2 553.9 1003.7 553.6 1004.1 553.15 1004.55 552.75 1004.9 552.25 1005.3 551.75 1005.55 551.15 1005.75 550.55 1005.85 549.9 1005.95 549.25 1005.95 548.45 1005.95 547.7 1005.85 547.05 1005.75 546.35 1005.55 545.75 1005.3 545.15 1004.9 544.65 1004.55 544.15 1004.1 543.7 1003.7 543.3 1003.2 542.95 1002.65 542.65 1002.05 542.45 1000.8 542 999.2 542 997.65 542 996.45 542.4
M 997.8 545.15
Q 998.4 544.95 999.2 544.95 1000 544.95 1000.65 545.15 1001.25 545.4 1001.75 545.85 1002.15 546.35 1002.35 547 1002.6 547.65 1002.6 548.45 1002.6 549.3 1002.35 549.9 1002.15 550.55 1001.75 551 1001.25 551.45 1000.65 551.7 1000 551.9 999.2 551.9 998.4 551.9 997.8 551.7 997.15 551.45 996.75 551 996.3 550.55 996.1 549.9 995.85 549.3 995.85 548.45 995.85 547.65 996.1 547 996.3 546.35 996.75 545.85 997.15 545.4 997.8 545.15
M 1041.8 540.05
Q 1041.65 539.95 1041.5 539.95 1041.35 539.9 1041.2 539.9 1041.05 539.85 1040.85 539.85 1040.7 539.85 1040.6 539.9 1040.45 539.9 1040.3 539.95 1040.2 539.95 1040 540.05 1039.85 540.1 1039.65 540.15 1039.5 540.25 1039.4 540.35 1039.3 540.45 1039.2 540.55 1039.1 540.7 1039.1 540.8 1039.05 540.95 1039.05 541.1
L 1039.05 542.35
Q 1038.95 543.05 1038.75 543.6 1038.5 544.2 1038.2 544.65 1037.85 545.15 1037.4 545.6 1037 546 1036.5 546.35 1035.95 546.75 1035.4 547.1 1034.85 547.4 1034.2 547.65 1033.55 547.9 1032.95 548.2 1032.35 548.45 1031.7 548.7 1031.35 548.9 1031.15 549.15 1030.95 549.45 1030.95 549.8 1030.95 550.15 1031.1 550.5 1031.2 550.8 1031.45 551.05 1031.65 551.35 1031.95 551.5 1032.25 551.65 1032.7 551.65 1032.8 551.65 1032.95 551.65 1033.05 551.6 1033.15 551.55 1034.35 551.1 1035.45 550.55 1036.6 550.05 1037.6 549.4 1038.65 548.75 1039.45 548.05 1040.3 547.35 1040.85 546.6 1041.4 547.45 1042.2 548.15 1042.95 548.9 1043.9 549.45 1044.85 550.05 1045.95 550.6 1047.05 551.1 1048.35 551.55
L 1048.35 551.45
Q 1048.45 551.55 1048.6 551.55 1048.8 551.6 1048.95 551.6 1049.2 551.6 1049.45 551.45 1049.75 551.3 1050 551.05 1050.2 550.8 1050.35 550.45 1050.45 550.15 1050.45 549.75 1050.45 549.6 1050.4 549.45 1050.4 549.3 1050.35 549.15 1050.25 549 1050.1 548.9 1050 548.75 1049.85 548.7 1049.1 548.4 1048.45 548.15 1047.8 547.85 1047.25 547.55 1046.1 547.05 1045.2 546.3 1044.7 546 1044.3 545.55 1043.9 545.15 1043.6 544.65 1043.25 544.2 1043.1 543.65 1042.85 543.05 1042.8 542.35
L 1042.8 541.1
Q 1042.8 540.8 1042.6 540.55 1042.55 540.45 1042.4 540.35 1042.25 540.25 1042.1 540.15 1041.95 540.1 1041.8 540.05
M 1012.85 540.1
Q 1012.7 540.05 1012.6 540 1012.5 539.95 1012.35 539.95 1012.2 539.9 1012 539.9 1011.85 539.9 1011.65 539.9 1011.35 539.9 1011.05 539.95 1010.8 540 1010.55 540.1 1010.3 540.2 1010.2 540.5 1010.1 540.75 1010.1 541.15
L 1010.1 566.6
Q 1010.1 567 1010.2 567.3 1010.3 567.6 1010.6 567.75 1010.8 567.9 1011.1 568 1011.35 568.05 1011.7 568.05 1012.05 568.05 1012.4 568 1012.7 567.9 1013 567.75 1013.25 567.6 1013.35 567.3 1013.45 567 1013.45 566.6
L 1013.45 541.15
Q 1013.45 540.95 1013.45 540.8 1013.4 540.65 1013.3 540.5 1013.2 540.4 1013.1 540.3 1012.95 540.2 1012.85 540.1
M 784.5 556.7
Q 784.05 556.5 783.55 556.5
L 771.25 556.5
Q 770.85 556.5 770.6 556.65 770.35 556.75 770.2 556.95 770.05 557.2 770 557.45 769.9 557.75 769.9 558.1 769.9 558.4 770 558.7 770.05 558.95 770.2 559.15 770.35 559.4 770.6 559.55 770.85 559.65 771.25 559.65
L 782.4 559.65 782.4 566.95
Q 782.4 567.25 782.55 567.5 782.65 567.75 782.95 567.9 783.2 568.05 783.4 568.15 783.65 568.25 783.9 568.25 784.05 568.25 784.2 568.2 784.4 568.2 784.6 568.15 784.8 568.1 784.95 568.05 785.1 568 785.2 567.9 785.35 567.8 785.45 567.7 785.6 567.6 785.7 567.5 785.8 567.35 785.85 567.2 785.9 567.1 785.9 566.95
L 785.9 559.15
Q 785.9 558.1 785.3 557.25 784.95 556.9 784.5 556.7
M 747.7 543.35
Q 747.25 543.7 746.85 544.15 746.5 544.55 746.2 545.05 745.9 545.55 745.75 546.15 745.55 546.7 745.55 547.3 745.55 547.75 745.65 548.05 745.75 548.35 746.05 548.5 746.25 548.65 746.6 548.75 747 548.85 747.45 548.85 747.7 548.85 747.9 548.75 748.05 548.7 748.2 548.5 748.3 548.4 748.45 548.25 748.6 548.05 748.75 547.85 748.85 547.65 748.9 547.4 749.05 547.2 749.1 546.9 749.2 546.65 749.3 546.45 749.4 546.2 749.5 546 749.75 545.75 750 545.6 750.2 545.4 750.5 545.25 751 545 751.95 545 752.85 545 753.45 545.25 753.75 545.4 753.95 545.6 754.15 545.75 754.3 546 754.5 546.2 754.6 546.45 754.75 546.7 754.85 546.95 754.95 547.2 755 547.45 755.05 547.75 755.05 547.95 755 548.45 754.9 548.8 754.8 549.2 754.6 549.45 754.35 549.75 754.1 550 753.8 550.25 753.45 550.4 753.2 550.6 752.85 550.7 752.55 550.8 752.15 550.85 751.75 550.95 751.35 550.95 750.95 551 750.55 551 750.45 551.8 750.45 552.6 750.4 553 750.4 553.4 750.4 553.8 750.4 554.15 750.45 554.25 750.65 554.3 750.8 554.35 751.1 554.35 751.35 554.35 751.6 554.35 751.85 554.4 752.1 554.4 752.45 554.45 752.75 554.5 753.1 554.55 753.4 554.6 753.7 554.7 753.95 554.8 754.2 554.95 754.4 555.1 754.7 555.3 754.95 555.55 755.15 555.75 755.35 556.05 755.45 556.4 755.5 556.75 755.6 557.15 755.6 557.65 755.55 558.3 755.3 558.9 755.05 559.5 754.55 559.95 754 560.4 753.4 560.65 752.7 560.9 751.95 560.9 751.4 560.9 750.95 560.8 750.55 560.75 750.3 560.6 749.95 560.45 749.7 560.25 749.45 560.1 749.3 559.8 748.95 559.35 748.65 558.65 748.5 558.3 748.35 557.95 748.2 557.6 748.05 557.2 747.95 557.05 747.75 556.95 747.6 556.85 747.45 556.8 747.2 556.75 747 556.7 746.85 556.65 746.7 556.65 746.2 556.65 745.85 556.8 745.55 556.9 745.35 557.15 745.15 557.4 745.1 557.7 745 558 745 558.35
L 745 558.55
Q 745.1 559.25 745.3 559.85 745.5 560.4 745.85 560.9 746.15 561.45 746.55 561.9 746.95 562.35 747.45 562.7 747.85 563.1 748.35 563.4 748.85 563.65 749.45 563.85 750.05 564.05 750.7 564.15 751.3 564.25 751.95 564.2 752.75 564.2 753.45 564.1 754.2 563.95 754.9 563.7 755.55 563.45 756.1 563.05 756.65 562.7 757.1 562.25 757.55 561.85 757.95 561.3 758.35 560.75 758.6 560.15 759.15 558.95 759.15 557.55 759.15 557.1 759.1 556.75 759 556.3 758.85 555.95 758.7 555.6 758.5 555.25 758.35 554.9 758.15 554.55 757.8 553.95 757.25 553.4 756.95 553.15 756.65 552.9 756.3 552.7 756 552.5 756.2 552.4 756.4 552.25 756.6 552.1 756.75 551.9 756.9 551.75 757.15 551.5 757.35 551.3 757.6 551 758 550.4 758.2 549.6 758.4 548.8 758.4 547.8 758.4 547.2 758.3 546.65 758.2 546.1 758 545.55 757.75 545 757.45 544.5 757.15 544.05 756.75 543.6 755.75 542.8 754.55 542.25 753.95 542.05 753.3 541.9 752.6 541.8 751.9 541.8 751.25 541.8 750.7 541.9 750.1 542 749.55 542.15 749 542.4 748.55 542.7 748.05 543 747.7 543.35
M 786.4 541.2
Q 786.4 540.8 786.25 540.55 786.1 540.25 785.8 540.15 785.5 540 785.2 539.95 784.9 539.9 784.6 539.9 784.2 539.9 783.9 539.95 783.55 540 783.3 540.15 783.05 540.25 782.9 540.55 782.75 540.8 782.75 541.2
L 782.75 553.55
Q 782.75 553.95 782.9 554.2 783.05 554.45 783.3 554.6 783.55 554.7 783.9 554.8 784.2 554.85 784.6 554.85 784.9 554.85 785.2 554.8 785.5 554.7 785.8 554.6 786.1 554.45 786.25 554.2 786.4 553.95 786.4 553.55
L 786.4 541.2
M 770.05 542.4
Q 770.05 542 769.9 541.75 769.75 541.5 769.5 541.3 769.2 541.15 768.9 541.1 768.6 541 768.4 541 768.05 541.05 767.8 541.15 767.5 541.25 767.3 541.4 766.75 541.75 766.75 542.4
L 766.75 544.7
Q 766.75 545.3 766.65 545.85 766.6 546.4 766.45 546.9 766.3 547.45 766.1 547.9 765.95 548.4 765.7 548.85 765.35 549.3 765.05 549.75 764.75 550.15 764.45 550.5 764.1 550.9 763.75 551.25 763.4 551.6 763 551.85 762.8 552.05 762.7 552.2 762.65 552.4 762.65 552.6 762.65 552.7 762.7 552.85 762.7 553 762.8 553.1 762.9 553.5 763.25 553.65 763.35 553.8 763.5 553.9 763.65 554 763.8 554.1 763.9 554.15 764.1 554.2 764.3 554.25 764.55 554.25 764.85 554.25 765.1 554.15 765.4 554.1 765.7 553.85 766 553.7 766.25 553.45 766.55 553.15 766.75 552.85 767.05 552.55 767.3 552.25 767.6 551.9 767.8 551.6 768.05 551.3 768.25 550.95 768.45 550.6 768.6 550.3 768.8 550.65 769 551 769.05 551.2 769.2 551.35 769.35 551.5 769.55 551.65 769.6 551.7 769.65 551.75 769.7 551.8 769.8 551.85 769.75 551.9 769.7 552 769.7 552.05 769.65 552.1 769.6 552.25 769.6 552.4 769.55 552.55 769.55 552.65 769.55 553 769.65 553.25 769.8 553.55 770 553.8 770.2 554.05 770.55 554.2 770.85 554.35 771.3 554.35 771.8 554.35 772.4 553.85 772.65 553.65 772.95 553.4 773.3 553.1 773.6 552.75 773.8 552.45 774.05 552.15 774.25 551.8 774.55 551.45 774.8 551.1 774.95 550.8 775.15 550.5 775.2 550.25 775.35 550.5 775.55 550.8 775.75 551.1 776 551.45 776.25 551.8 776.55 552.15 776.85 552.45 777.15 552.75 777.4 553.1 777.65 553.35 777.95 553.65 778.2 553.85 778.5 554.05 778.7 554.15 778.9 554.25 779.05 554.25 779.3 554.25 779.5 554.2 779.65 554.15 779.85 554.05 780 553.95 780.1 553.85 780.25 553.7 780.4 553.55 780.6 553.45 780.7 553.3 780.85 553.2 780.95 553 781 552.85 781.05 552.7 781.1 552.55 781.1 552.4 781.1 552.3 781 552.15 780.95 552 780.75 551.8 780.4 551.45 780.05 551 779.85 550.75 779.7 550.5 779.5 550.25 779.25 550 779 549.75 778.8 549.5 778.65 549.25 778.5 549 778.05 548.4 777.75 547.75 777.5 547.15 777.35 546.55 777.2 545.95 777.1 545.3 777.05 544.65 777.05 544
L 777.05 542.4
Q 777.05 542.05 776.9 541.75 776.8 541.5 776.5 541.35 776.25 541.15 775.9 541.05 775.6 540.95 775.2 540.95 774.95 540.95 774.75 541.05 774.5 541.15 774.3 541.3 774.05 541.5 773.95 541.75 773.8 541.95 773.8 542.25
L 773.8 544.7
Q 773.8 545.2 773.7 545.7 773.6 546.2 773.4 546.65 773.2 547.2 773 547.65 772.75 548.15 772.55 548.6 772.4 548.85 772.25 549.1 772.05 549.35 771.9 549.6 771.5 549.1 771.2 548.55 770.9 548.05 770.7 547.5 770.4 546.9 770.2 546.2 770.05 545.55 770.05 544.85
L 770.05 542.4
M 938.45 557.35
Q 938.15 557.35 937.9 557.45 937.7 557.55 937.5 557.75 937.35 558 937.25 558.3 937.15 558.55 937.15 558.9 937.15 559.2 937.25 559.5 937.35 559.75 937.55 559.95 937.7 560.15 938 560.25 938.25 560.35 938.65 560.35
L 941.8 560.35
Q 941.85 560.6 941.85 560.9 941.85 561.15 941.85 561.4
L 941.85 566.3
Q 941.85 566.6 942 566.85 942.15 567.05 942.45 567.25 942.7 567.4 943 567.5 943.25 567.6 943.5 567.6 943.85 567.6 944.15 567.5 944.45 567.4 944.75 567.25 945 567.05 945.1 566.8 945.2 566.6 945.2 566.3
L 945.2 559.9
Q 945.2 559.25 945.05 558.8 944.85 558.3 944.55 557.95 943.8 557.35 942.65 557.35
L 938.45 557.35
M 967.65 557.6
Q 967.2 557.8 966.95 558.15 966.65 558.5 966.5 558.95 966.4 559.4 966.4 559.95
L 966.4 565.1
Q 966.4 566.25 966.95 566.85 967.5 567.45 968.65 567.45
L 980.35 567.45
Q 981.5 567.45 982.1 566.85 982.65 566.25 982.65 565.1
L 982.65 559.95
Q 982.65 559.4 982.5 558.95 982.35 558.5 982.1 558.15 981.8 557.8 981.35 557.6 980.95 557.45 980.35 557.45
L 968.65 557.45
Q 968.05 557.45 967.65 557.6
M 969.95 561.5
Q 969.95 561.35 970.05 561.2 970.1 561 970.2 560.9 970.3 560.75 970.4 560.7 970.55 560.65 970.75 560.65
L 978.1 560.65
Q 978.35 560.65 978.5 560.7 978.7 560.75 978.85 560.9 978.95 561 979 561.2 979.05 561.35 979.05 561.5
L 979.05 563.45
Q 979.05 563.65 979 563.85 978.95 564 978.85 564.05 978.7 564.2 978.5 564.25 978.35 564.3 978.1 564.3
L 970.75 564.3
Q 970.55 564.3 970.4 564.25 970.3 564.2 970.2 564.05 970.1 564 970.05 563.85 969.95 563.65 969.95 563.45
L 969.95 561.5
M 954.3 559.9
Q 954.3 559.3 954.15 558.85 953.95 558.4 953.65 558.05 953.3 557.7 952.85 557.55 952.4 557.35 951.85 557.35
L 948.05 557.35
Q 947.3 557.35 946.95 557.7 946.6 558.1 946.6 558.8 946.55 559.15 946.65 559.4 946.75 559.65 946.9 559.9 947.2 560.35 948.1 560.35
L 950.15 560.35
Q 950.25 560.35 950.35 560.35 950.5 560.4 950.55 560.4 950.75 560.4 950.95 560.45
L 950.95 566.3
Q 950.95 566.6 951.05 566.8 951.2 567.05 951.45 567.25 951.7 567.4 952 567.5 952.3 567.6 952.6 567.6 952.85 567.6 953.15 567.5 953.4 567.4 953.7 567.25 954 567.05 954.15 566.8 954.3 566.6 954.3 566.3
L 954.3 559.9
M 959.3 552.95
Q 959.25 552.75 959.15 552.55 959 552.4 958.75 552.3 958.5 552.2 958.15 552.2
L 933.9 552.2
Q 933.3 552.2 933 552.55 932.75 552.9 932.75 553.5 932.75 553.85 932.8 554.1 932.85 554.4 933 554.55 933.1 554.8 933.3 554.9 933.55 555 933.9 555
L 944.35 555 944.35 556.4
Q 944.35 556.8 944.45 557 944.6 557.25 944.85 557.4 945.1 557.5 945.4 557.6 945.65 557.65 946 557.65 946.75 557.65 947.35 557.4 947.6 557.25 947.75 557 947.9 556.8 947.9 556.4
L 947.9 555 958.15 555
Q 958.5 555 958.75 554.9 959 554.8 959.15 554.55 959.25 554.4 959.3 554.1 959.35 553.85 959.35 553.5 959.35 553.2 959.3 552.95
M 961.75 552.4
Q 961.5 552.5 961.45 552.75 961.3 553 961.25 553.25 961.2 553.55 961.2 553.9 961.2 554.2 961.25 554.45 961.3 554.7 961.45 554.9 961.5 555.1 961.75 555.2 962 555.3 962.45 555.3
L 986.6 555.3
Q 987 555.3 987.3 555.2 987.55 555.1 987.7 554.9 987.85 554.55 987.85 553.9 987.85 553.25 987.7 552.75 987.55 552.5 987.3 552.4 987 552.25 986.6 552.25
L 962.45 552.25
Q 962 552.25 961.75 552.4
M 911.6 541.1
Q 911.5 541.35 911.5 541.75
L 911.5 566.05
Q 911.5 566.45 911.6 566.75 911.75 567 912.05 567.15 912.35 567.25 912.6 567.3 912.9 567.35 913.2 567.4 913.6 567.35 913.85 567.3 914.1 567.25 914.25 567.15 914.4 567 914.45 566.75 914.5 566.45 914.5 566.05
L 914.5 553.4 916.35 553.4 916.35 566.9
Q 916.35 567.25 916.45 567.5 916.6 567.75 916.85 567.9 917.1 568 917.4 568.1 917.65 568.15 917.95 568.15 918.35 568.15 918.6 568.1 918.9 568 919.05 567.9 919.2 567.75 919.25 567.5 919.35 567.25 919.35 566.9
L 919.35 541.25
Q 919.35 540.85 919.25 540.6 919.2 540.3 919.05 540.2 918.9 540.05 918.6 540 918.35 539.95 917.95 539.95 917.65 539.95 917.4 540 917.1 540.05 916.85 540.2 916.6 540.3 916.45 540.6 916.35 540.85 916.35 541.25
L 916.35 550.2 914.5 550.2 914.5 541.75
Q 914.5 541.35 914.45 541.1 914.4 540.85 914.25 540.75 914.1 540.6 913.85 540.55 913.6 540.5 913.2 540.5 912.9 540.5 912.6 540.55 912.35 540.6 912.05 540.75 911.75 540.85 911.6 541.1
M 905.45 542.55
Q 904.95 542.7 904.55 543.1 904.15 543.45 903.95 543.95 903.8 544.45 903.8 545.1
L 903.8 557.45
Q 903.8 558 903.95 558.45 904.15 558.85 904.5 559.1 904.85 559.4 905.35 559.55 905.85 559.7 906.5 559.7 906.75 559.7 907.1 559.7 907.4 559.7 907.85 559.65 908.2 559.65 908.55 559.6 908.9 559.55 909.2 559.4 909.55 559.35 909.8 559.2 910.1 559.1 910.3 558.9 910.45 558.75 910.6 558.45 910.7 558.2 910.7 557.85 910.7 557.55 910.6 557.3 910.5 557.1 910.4 556.85 910.2 556.7 909.9 556.6 909.65 556.5 909.25 556.5 909.1 556.5 909 556.5 908.9 556.5 908.8 556.5 908.7 556.55 908.6 556.55 908.5 556.55 908.4 556.55 908.25 556.6 908.1 556.6 907.95 556.65 907.85 556.65 907.65 556.65 907.4 556.7 907.15 556.7 906.75 556.7 906.7 556.5 906.7 556.15 906.65 555.85 906.65 555.5
L 906.65 546.65
Q 906.65 546.5 906.65 546.35 906.65 546.2 906.7 546.05 906.7 545.9 906.7 545.75 906.75 545.6 906.75 545.45
L 908.65 545.45
Q 908.9 545.45 909.1 545.35 909.35 545.25 909.55 545.05 909.75 544.85 909.85 544.6 909.95 544.3 909.95 543.95 909.95 543.6 909.85 543.3 909.75 543.05 909.55 542.8 909.35 542.6 909.1 542.45 908.9 542.35 908.65 542.35
L 906.55 542.35
Q 905.95 542.35 905.45 542.55
M 899.2 542.3
Q 898.65 542.35 898.2 542.5 897.75 542.65 897.4 542.95 897.1 543.3 896.9 543.75 896.75 544.2 896.75 544.75
L 896.75 557
Q 896.75 558.1 897.35 558.6 898 559.15 899.2 559.15 899.5 559.15 899.8 559.15 900.1 559.15 900.45 559.1 900.75 559.1 901.1 559.05 901.4 559.05 901.65 558.95 902 558.85 902.3 558.75 902.55 558.6 902.8 558.4 902.95 558.2 903.1 557.95 903.2 557.65 903.2 557.3 903.2 556.95 903.1 556.7 903 556.45 902.9 556.25 902.7 556.15 902.5 556.05 902.3 555.95 902 555.95 901.75 555.95 901.6 556 901.45 556 901.4 556 901.3 556.05 901.15 556.05 901 556.05 900.8 556.05 900.65 556.05 900.55 556.05 900.4 556.05 900.35 556 900.2 556 900.1 556 899.95 556 899.85 556
L 899.85 545.55
Q 900 545.5 900.15 545.5 900.3 545.45 900.4 545.45
L 901.45 545.45
Q 901.95 545.45 902.35 545 902.55 544.8 902.65 544.5 902.75 544.25 902.75 543.9 902.75 543.55 902.65 543.25 902.55 542.95 902.35 542.75 902.15 542.55 901.95 542.45 901.7 542.3 901.45 542.3
L 899.2 542.3
M 970.95 540.5
Q 970.1 540.7 969.4 540.95 968.7 541.2 968.1 541.5 967.55 541.85 967.1 542.25 966.65 542.65 966.35 543.1 966.05 543.55 965.85 544.1 965.75 544.65 965.75 545.25 965.7 546.3 966.15 547.15 966.6 548 967.5 548.65 968.35 549.25 969.6 549.65 970.85 550.1 972.5 550.25 972.7 550.3 972.9 550.3 973.1 550.35 973.3 550.35 973.55 550.35 973.7 550.35 973.9 550.4 974.1 550.4 974.35 550.4 974.6 550.35 974.85 550.35 975.15 550.35 975.4 550.35 975.7 550.35 976 550.3 976.3 550.25 977.95 550.15 979.25 549.75 980.5 549.35 981.45 548.7 982.4 548.05 982.85 547.15 983.35 546.3 983.35 545.25 983.35 544.65 983.15 544.1 983.05 543.55 982.75 543.1 982.4 542.6 982 542.2 981.6 541.8 981.05 541.45 979.9 540.8 978.25 540.45 977.45 540.3 976.5 540.2 975.55 540.1 974.5 540.1 973.55 540.1 972.65 540.2 971.75 540.3 970.95 540.5
M 969.7 544.4
Q 970.05 544.05 970.8 543.8 971.5 543.55 972.45 543.45 973.35 543.3 974.5 543.3 975.75 543.3 976.7 543.45 977.65 543.55 978.4 543.8 979.8 544.3 979.8 545.25 979.8 546.2 978.4 546.65 977.65 546.95 976.7 547.05 975.75 547.2 974.5 547.2 973.35 547.2 972.45 547.05 971.5 546.95 970.8 546.65 970.05 546.4 969.7 546.05 969.3 545.7 969.3 545.25 969.3 544.75 969.7 544.4
M 937.55 541.95
Q 937.4 542.2 937.25 542.4 937 542.95 937 543.5
L 937 548.05
Q 937 548.35 937.05 548.65 937.1 548.9 937.3 549.15 937.4 549.4 937.6 549.6 937.8 549.75 938.05 549.9 938.2 550.1 938.4 550.2 938.65 550.35 938.9 550.4 939.15 550.45 939.45 550.5 939.75 550.55 940.15 550.55
L 952.25 550.55
Q 952.8 550.55 953.3 550.35 953.8 550.2 954.25 549.85 954.65 549.5 954.9 549.05 955.1 548.6 955.1 548.05
L 955.1 543.5
Q 955.1 543.2 955 542.9 954.95 542.6 954.8 542.3 954.65 542.05 954.5 541.85 954.3 541.65 954.15 541.45 953.9 541.25 953.65 541.15 953.35 541 953.1 540.9 952.6 540.7 951.95 540.7
L 939.75 540.7
Q 939.55 540.7 939.3 540.75 939 540.8 938.75 540.9 938.45 541.05 938.25 541.2 938.05 541.35 937.9 541.55 937.7 541.75 937.55 541.95
M 940.6 544.05
Q 941 544 941.35 544 941.75 543.95 942.15 543.9 942.5 543.9 942.85 543.9 943.2 543.9 943.6 543.9
L 948.45 543.9
Q 949.25 543.9 949.95 543.9 950.3 543.9 950.65 543.95 951.05 543.95 951.45 543.95 951.45 544.1 951.5 544.3 951.5 544.45 951.5 544.55 951.5 544.75 951.5 544.9 951.5 545.05 951.5 545.25
L 951.5 547.25
Q 951.1 547.25 950.7 547.3 950.35 547.3 950 547.3 949.65 547.3 949.25 547.3 948.85 547.35 948.45 547.3
L 940.75 547.3
Q 940.65 547 940.65 546.7 940.6 546.35 940.6 546.05
L 940.6 544.05
M 877.65 556.7
Q 877.5 556.6 877.25 556.5 877 556.45 876.75 556.4 876.15 556.3 875.7 556.3
L 863.4 556.3
Q 863 556.3 862.75 556.4 862.5 556.5 862.4 556.7 862.25 556.95 862.15 557.2 862.1 557.5 862.1 557.8 862.1 558.1 862.15 558.35 862.25 558.6 862.4 558.75 862.65 559.1 863.4 559.1
L 874.9 559.1
Q 874.95 559.25 874.95 559.35 875 559.5 875 559.7
L 875 559.95
Q 875 560.2 874.95 560.3 874.95 560.45 874.9 560.55
L 865.05 560.55
Q 864.75 560.55 864.5 560.55 864.25 560.6 864 560.6 863.75 560.7 863.5 560.75 863.25 560.85 863.1 561 862.8 561.1 862.65 561.3 862.5 561.45 862.4 561.7 862.25 561.95 862.25 562.2 862.2 562.45 862.2 562.7
L 862.2 565.9
Q 862.2 566.2 862.25 566.4 862.25 566.65 862.4 566.85 862.5 567 862.65 567.15 862.8 567.3 863.1 567.4 863.25 567.5 863.5 567.55 863.75 567.65 864 567.7 864.25 567.75 864.5 567.75 864.75 567.75 865.05 567.75
L 877.6 567.75
Q 878.25 567.75 878.55 567.4 878.9 567.1 878.9 566.4 878.9 565.65 878.55 565.3 878.25 564.95 877.6 564.95
L 865.85 564.95
Q 865.75 564.8 865.7 564.65 865.7 564.5 865.7 564.3
L 865.7 563.95
Q 865.7 563.75 865.7 563.6 865.75 563.4 865.85 563.25
L 876 563.25
Q 876.5 563.25 877 563.2 877.45 563.1 877.85 562.9 878.25 562.8 878.4 562.45 878.6 562.1 878.6 561.55
L 878.6 558.45
Q 878.6 558.1 878.55 557.85 878.5 557.55 878.4 557.35 878.1 557 877.65 556.7
M 883.2 551.65
Q 882.95 551.55 882.5 551.55
L 858.25 551.55
Q 857.8 551.55 857.55 551.65 857.3 551.8 857.25 552 857.1 552.2 857.05 552.5 857 552.8 857 553.1 857 553.45 857.05 553.7 857.1 553.95 857.25 554.15 857.3 554.35 857.55 554.45 857.8 554.55 858.25 554.55
L 882.5 554.55
Q 882.95 554.55 883.2 554.45 883.45 554.35 883.55 554.15 883.6 553.95 883.6 553.7 883.65 553.45 883.65 553.1 883.65 552.8 883.6 552.5 883.6 552.2 883.55 552 883.45 551.8 883.2 551.65
M 812.5 559.9
Q 812.5 559.25 812.35 558.8 812.15 558.3 811.85 557.95 811.1 557.35 809.95 557.35
L 805.75 557.35
Q 805.45 557.35 805.2 557.45 805 557.55 804.8 557.75 804.65 558 804.55 558.3 804.45 558.55 804.45 558.9 804.45 559.2 804.55 559.5 804.65 559.75 804.85 559.95 805 560.15 805.3 560.25 805.55 560.35 805.95 560.35
L 809.1 560.35
Q 809.15 560.6 809.15 560.9 809.15 561.15 809.15 561.4
L 809.15 566.3
Q 809.15 566.6 809.3 566.85 809.45 567.05 809.75 567.25 810 567.4 810.3 567.5 810.55 567.6 810.8 567.6 811.15 567.6 811.45 567.5 811.75 567.4 812.05 567.25 812.3 567.05 812.4 566.8 812.5 566.6 812.5 566.3
L 812.5 559.9
M 819.15 557.35
L 815.35 557.35
Q 814.6 557.35 814.25 557.7 813.9 558.1 813.9 558.8 813.85 559.15 813.95 559.4 814.05 559.65 814.2 559.9 814.5 560.35 815.4 560.35
L 817.45 560.35
Q 817.55 560.35 817.65 560.35 817.8 560.4 817.85 560.4 818.05 560.4 818.25 560.45
L 818.25 566.3
Q 818.25 566.6 818.35 566.8 818.5 567.05 818.75 567.25 819 567.4 819.3 567.5 819.6 567.6 819.9 567.6 820.15 567.6 820.45 567.5 820.7 567.4 821 567.25 821.3 567.05 821.45 566.8 821.6 566.6 821.6 566.3
L 821.6 559.9
Q 821.6 559.3 821.45 558.85 821.25 558.4 820.95 558.05 820.6 557.7 820.15 557.55 819.7 557.35 819.15 557.35
M 826.65 553.5
Q 826.65 553.2 826.6 552.95 826.55 552.75 826.45 552.55 826.3 552.4 826.05 552.3 825.8 552.2 825.45 552.2
L 801.2 552.2
Q 800.6 552.2 800.3 552.55 800.05 552.9 800.05 553.5 800.05 553.85 800.1 554.1 800.15 554.4 800.3 554.55 800.4 554.8 800.6 554.9 800.85 555 801.2 555
L 811.65 555 811.65 556.4
Q 811.65 556.8 811.75 557 811.9 557.25 812.15 557.4 812.4 557.5 812.7 557.6 812.95 557.65 813.3 557.65 814.05 557.65 814.65 557.4 814.9 557.25 815.05 557 815.2 556.8 815.2 556.4
L 815.2 555 825.45 555
Q 825.8 555 826.05 554.9 826.3 554.8 826.45 554.55 826.55 554.4 826.6 554.1 826.65 553.85 826.65 553.5
M 839 555.8
Q 838.75 555.8 838.5 555.9 838.2 556 838 556.15 837.7 556.35 837.6 556.6 837.45 556.85 837.45 557.25
L 837.45 558.55
Q 837.45 559.6 837.2 560.45 836.9 561.3 836.4 561.95
L 836.35 562.1
Q 836 562.45 835.75 562.7 835.45 562.95 835.3 563.2 835.1 563.4 834.85 563.65 834.55 563.9 834.2 564.15 833.65 564.45 833.4 564.85 833.15 565.25 833.15 565.75 833.15 566.05 833.3 566.3 833.4 566.55 833.65 566.8 833.8 566.95 834.05 567.05 834.3 567.15 834.6 567.2 834.9 567.2 835.2 567.1 835.55 566.95 835.9 566.75 836.25 566.5 836.6 566.2 836.95 565.95 837.3 565.65 837.55 565.3 837.85 565 838.1 564.7 838.35 564.35 838.6 564.05 838.8 563.8 838.95 563.55 839.05 563.4
L 839.1 563.4
Q 839.15 563.45 839.2 563.5 839.2 563.55 839.25 563.6 839.3 563.65 839.3 563.7 839.7 564.05 840.05 564.2 840.15 564.3 840.4 564.35 840.55 564.45 840.8 564.45 841.1 564.45 841.35 564.3 841.6 564.2 841.9 564 842.15 563.75 842.3 563.5 842.4 563.3 842.4 562.95 842.4 562.75 842.35 562.55 842.25 562.35 842.1 562.1 841.9 561.95 841.75 561.7 841.55 561.5 841.4 561.25 841.3 561.1 841.15 560.85 841.05 560.55 840.95 560.2 840.8 559.85 840.75 559.5 840.65 559.15 840.65 558.8
L 840.65 557.3
Q 840.65 556.95 840.55 556.65 840.45 556.35 840.25 556.2 840.05 556 839.7 555.9 839.4 555.8 839 555.8
M 847.95 555.9
L 847.85 555.9
Q 847.8 555.9 847.75 555.9
L 847.7 555.9
Q 847.25 555.95 846.95 556.15 846.7 556.3 846.6 556.55 846.5 556.85 846.45 557.2 846.35 557.5 846.3 557.85 846.2 558.7 846.05 559.65 845.95 560.2 845.7 560.7 845.4 561.25 845 561.8 844.7 562.2 844.4 562.5 844.15 562.8 843.9 563.05 843.65 563.3 843.3 563.55 843 563.8 842.65 564.05 842.5 564.15 842.4 564.25 842.3 564.35 842.15 564.45 842.05 564.5 841.95 564.6 841.8 564.65 841.75 564.75 841.65 564.75 841.6 564.85 841.55 564.95 841.5 565.05 841.45 565.15 841.4 565.3 841.4 565.4 841.4 565.6 841.4 565.9 841.5 566.2 841.65 566.45 841.95 566.6 842.45 567 842.75 567 843.05 567 843.4 566.9 843.75 566.8 844.1 566.6 844.45 566.4 844.75 566.15 845.05 565.9 845.35 565.65 845.75 565.3 846.1 565 846.4 564.7 846.75 564.35 847.05 564 847.25 563.7 847.5 563.4 847.7 563.1 847.8 563.55 848.4 564.25 848.7 564.6 849.05 564.95 849.4 565.3 849.8 565.65 850.1 565.95 850.4 566.25 850.75 566.55 851.1 566.8 851.45 567 851.75 567.15 852.05 567.25 852.25 567.25 852.75 567.25 853.25 566.8 853.55 566.55 853.7 566.3 853.8 566 853.8 565.65 853.8 565.45 853.7 565.2 853.6 565 853.4 564.8 853.15 564.6 852.95 564.4 852.75 564.15 852.55 563.9 852.3 563.7 852.05 563.45 851.75 563.2 851.5 562.9 851.2 562.7 850.95 562.4 850.7 562.15 850.45 561.85 850 561.1 849.75 560.3 849.5 559.45 849.45 558.5
L 849.45 557.25
Q 849.45 556.9 849.35 556.65 849.25 556.4 849.05 556.2 848.9 556.05 848.6 555.95 848.3 555.9 847.95 555.9
M 822.4 543.5
Q 822.4 543.2 822.3 542.9 822.25 542.6 822.1 542.3 821.95 542.05 821.8 541.85 821.6 541.65 821.45 541.45 821.2 541.25 820.95 541.15 820.65 541 820.4 540.9 819.9 540.7 819.25 540.7
L 807.05 540.7
Q 806.85 540.7 806.6 540.75 806.3 540.8 806.05 540.9 805.75 541.05 805.55 541.2 805.35 541.35 805.2 541.55 805 541.75 804.85 541.95 804.7 542.2 804.55 542.4 804.3 542.95 804.3 543.5
L 804.3 548.05
Q 804.3 548.35 804.35 548.65 804.4 548.9 804.6 549.15 804.7 549.4 804.9 549.6 805.1 549.75 805.35 549.9 805.5 550.1 805.7 550.2 805.95 550.35 806.2 550.4 806.45 550.45 806.75 550.5 807.05 550.55 807.45 550.55
L 819.55 550.55
Q 820.1 550.55 820.6 550.35 821.1 550.2 821.55 549.85 821.95 549.5 822.2 549.05 822.4 548.6 822.4 548.05
L 822.4 543.5
M 810.15 543.9
Q 810.5 543.9 810.9 543.9
L 815.75 543.9
Q 816.55 543.9 817.25 543.9 817.6 543.9 817.95 543.95 818.35 543.95 818.75 543.95 818.75 544.1 818.8 544.3 818.8 544.45 818.8 544.55 818.8 544.75 818.8 544.9 818.8 545.05 818.8 545.25
L 818.8 547.25
Q 818.4 547.25 818 547.3 817.65 547.3 817.3 547.3 816.95 547.3 816.55 547.3 816.15 547.35 815.75 547.3
L 808.05 547.3
Q 807.95 547 807.95 546.7 807.9 546.35 807.9 546.05
L 807.9 544.05
Q 808.3 544 808.65 544 809.05 543.95 809.45 543.9 809.8 543.9 810.15 543.9
M 862.9 542.05
Q 862.45 542.45 862.15 542.9 861.55 543.8 861.55 544.95 861.55 545.55 861.65 546.05 861.85 546.6 862.15 547 862.45 547.45 862.9 547.8 863.35 548.2 863.95 548.5 864.55 548.8 865.25 549.05 866 549.25 866.85 549.45 867.65 549.6 868.55 549.7 869.45 549.8 870.45 549.85 871.4 549.8 872.35 549.7 873.25 549.6 874.1 549.4 874.9 549.25 875.6 549 876.3 548.8 876.9 548.45 877.4 548.15 877.8 547.8 878.2 547.45 878.55 547 878.85 546.6 878.95 546.05 879.15 545.55 879.15 544.95 879.15 544.4 878.95 543.85 878.85 543.35 878.55 542.9 878.2 542.45 877.8 542.05 877.4 541.65 876.85 541.35 876.25 541.05 875.55 540.85 874.85 540.6 874.05 540.4 873.25 540.3 872.3 540.2 871.35 540.1 870.3 540.1 869.35 540.1 868.45 540.2 867.55 540.3 866.75 540.4 865.9 540.6 865.2 540.85 864.5 541.05 863.9 541.35 863.35 541.65 862.9 542.05
M 866.6 543.75
Q 867.3 543.55 868.25 543.4 869.15 543.3 870.3 543.3 871.55 543.3 872.5 543.4 873.45 543.55 874.2 543.75 874.9 543.95 875.25 544.25 875.6 544.55 875.6 544.95 875.6 545.35 875.25 545.65 874.9 545.95 874.2 546.15 873.45 546.4 872.5 546.5 871.55 546.6 870.3 546.6 869.15 546.6 868.25 546.5 867.3 546.4 866.6 546.15 865.85 545.95 865.5 545.65 865.1 545.35 865.1 544.95 865.1 544.55 865.5 544.25 865.85 543.95 866.6 543.75
M 852.25 541.35
Q 852.25 541 852.15 540.7 852.05 540.45 851.8 540.3 851.25 540.05 850.55 540.05 850.2 540.05 849.95 540.1 849.7 540.2 849.45 540.3 849.15 540.45 849.05 540.7 848.9 541 848.9 541.35
L 848.9 545.85 844.4 545.85
Q 844.35 545.6 844.3 545.35 844.2 545.15 844.15 544.9 843.9 544.3 843.55 543.8 843.2 543.25 842.7 542.8 842.2 542.4 841.65 542.05 841.1 541.75 840.45 541.5 839.8 541.3 839.1 541.15 838.35 541.05 837.6 541.05 836.8 541.05 836.05 541.15 835.35 541.3 834.7 541.5 834.05 541.75 833.5 542.05 832.95 542.4 832.5 542.8 832 543.25 831.6 543.8 831.25 544.3 831 544.9 830.75 545.55 830.6 546.2 830.5 546.95 830.5 547.7 830.5 548.45 830.6 549.15 830.75 549.85 831 550.45 831.25 551.05 831.6 551.6 832 552.1 832.5 552.5 832.95 553 833.5 553.3 834.05 553.65 834.7 553.85 835.35 554.05 836.05 554.2 836.8 554.3 837.6 554.3 838.35 554.3 839.1 554.2 839.8 554.05 840.45 553.85 841.1 553.65 841.65 553.3 842.2 553 842.7 552.5 843.2 552.1 843.55 551.6 843.9 551.05 844.15 550.45 844.3 550.1 844.4 549.75 844.5 549.35 844.55 548.95
L 848.9 548.95 848.9 553.75
Q 848.9 554.15 849.05 554.45 849.15 554.7 849.45 554.8 849.7 554.95 849.95 555 850.2 555.05 850.55 555.05 851.3 555.05 851.8 554.8 852.05 554.7 852.15 554.45 852.25 554.15 852.25 553.75
L 852.25 541.35
M 836.1 544.45
Q 836.75 544.2 837.65 544.2 839.25 544.2 840.35 545.1 840.85 545.55 841.15 546.2 841.4 546.85 841.4 547.7 841.4 548.5 841.15 549.15 840.85 549.75 840.35 550.2 839.8 550.7 839.1 550.9 838.45 551.15 837.65 551.15 836.75 551.15 836.1 550.9 835.4 550.7 834.9 550.2 834.4 549.75 834.15 549.15 833.9 548.5 833.9 547.7 833.9 546.85 834.15 546.2 834.4 545.55 834.9 545.1 835.4 544.65 836.1 544.45
M 668.4 292.5
Q 668.4 292.3 668.25 292.15 668.1 292.05 667.9 292.05
L 646.8 292.05
Q 646.6 292.05 646.45 292.15 646.3 292.3 646.3 292.5
L 646.3 295.65
Q 646.3 295.9 646.45 296 646.6 296.15 646.8 296.15
L 667.9 296.15
Q 668.1 296.15 668.25 296 668.4 295.9 668.4 295.65
L 668.4 292.5
M 668.4 284.2
Q 668.4 284 668.25 283.85 668.1 283.7 667.9 283.7
L 646.8 283.7
Q 646.6 283.7 646.45 283.85 646.3 284 646.3 284.2
L 646.3 287.35
Q 646.3 287.55 646.45 287.7 646.6 287.85 646.8 287.85
L 667.9 287.85
Q 668.1 287.85 668.25 287.7 668.4 287.55 668.4 287.35
L 668.4 284.2
M 686.2 275.1
Q 684.65 274.45 682.6 274.45 679.4 274.45 677.45 275.9 675.5 277.4 674.4 279.65 673.3 281.95 672.9 284.65 672.55 287.4 672.55 289.85 672.55 297.2 675 301.25 677.45 305.3 682.6 305.3 685.15 305.3 687 304.3 688.85 303.2 690.1 301.25 691.35 299.3 691.95 296.4 692.55 293.5 692.55 289.85 692.55 288.2 692.35 286.45 692.2 284.65 691.8 282.95 691.4 281.25 690.7 279.7 690 278.15 688.85 276.95 687.8 275.8 686.2 275.1
M 678.6 281.25
Q 679.3 279.95 680.3 279.4 681.3 278.8 682.6 278.8 683.8 278.8 684.85 279.4 685.85 279.95 686.6 281.25 687.3 282.6 687.7 284.7 688.05 286.85 688.05 289.85 688.05 292.95 687.7 295.1 687.3 297.2 686.6 298.5 685.85 299.85 684.85 300.4 683.8 301 682.6 301 681.3 301 680.3 300.4 679.3 299.85 678.6 298.5 677.85 297.2 677.5 295.1 677.1 292.95 677.1 289.85 677.1 286.85 677.5 284.7 677.85 282.6 678.6 281.25
M 742.55 164.5
Q 742.55 165.05 743.15 165.05
L 777.95 165.05
Q 778.15 165.05 778.35 164.9 778.55 164.7 778.55 164.5
L 778.55 161.95
Q 778.55 161.75 778.35 161.55 778.15 161.35 777.95 161.35
L 743.15 161.35
Q 742.85 161.35 742.7 161.5 742.55 161.7 742.55 161.95
L 742.55 164.5
M 767.8 171.3
Q 768.15 171.3 768.25 171.4 768.3 171.5 768.3 171.95
L 768.3 173.15
Q 768.3 173.55 768.25 173.6 768.15 173.65 767.85 173.65
L 750.9 173.65
Q 749.3 173.65 748.75 174.2 748.25 174.8 748.25 176.05
L 748.25 180.75
Q 748.25 182.05 748.8 182.55 749.35 183.15 750.9 183.15
L 773.25 183.15
Q 773.4 183.15 773.6 182.95 773.75 182.8 773.75 182.55
L 773.75 180
Q 773.75 179.75 773.6 179.6 773.4 179.45 773.2 179.45
L 753.3 179.45
Q 752.9 179.45 752.85 179.35 752.75 179.3 752.75 178.95
L 752.75 177.55
Q 752.75 177.2 752.85 177.1 752.9 177.05 753.25 177.05
L 770.1 177.05
Q 771.75 177.05 772.3 176.55 772.85 176.05 772.85 174.65
L 772.85 170
Q 772.85 168.65 772.3 168.1 771.75 167.6 770.1 167.6
L 748.7 167.6
Q 748.5 167.6 748.35 167.8 748.15 167.95 748.15 168.15
L 748.15 170.8
Q 748.15 171 748.35 171.15 748.5 171.3 748.7 171.3
L 767.8 171.3
M 766 145.8
Q 763.65 145.25 760.6 145.25 757.55 145.25 755.2 145.8 752.85 146.35 751.25 147.25 749.65 148.2 748.85 149.45 748.05 150.75 748.05 152.2 748.05 153.65 748.85 154.9 749.65 156.15 751.25 157.05 752.85 157.95 755.2 158.45 757.55 159 760.6 159 763.65 159 766 158.45 768.3 157.95 769.95 157.05 771.55 156.15 772.35 154.9 773.15 153.65 773.15 152.2 773.15 150.75 772.35 149.45 771.55 148.2 769.95 147.25 768.3 146.35 766 145.8
M 766.3 149.75
Q 767.35 150.25 767.95 150.85 768.5 151.45 768.5 152.2 768.5 152.9 767.95 153.5 767.35 154.15 766.3 154.6 765.25 155.05 763.75 155.3 762.35 155.55 760.6 155.55 758.85 155.55 757.4 155.3 755.95 155.05 754.9 154.6 753.85 154.15 753.25 153.55 752.7 152.95 752.7 152.2 752.7 151.5 753.25 150.85 753.85 150.25 754.9 149.75 755.95 149.25 757.4 149 758.85 148.75 760.6 148.75 762.35 148.75 763.75 149 765.25 149.25 766.3 149.75
M 726.8 170.95
Q 726.85 170.55 726.95 170.15 727 169.75 727.1 169.3 727.15 169 727.05 168.8 727 168.55 726.45 168.5
L 723.3 168.3
Q 723 168.25 722.8 168.5 722.65 168.75 722.6 169 722.15 172.9 719.2 175.55 716.2 178.2 710.5 179.95 710.2 180.05 710.1 180.3 710 180.55 710.1 180.8
L 711.1 183.15
Q 711.4 183.8 712.15 183.65 716.2 182.55 719.5 180.5 722.8 178.35 724.8 175.4 725.85 176.85 727.25 178.2 728.7 179.5 730.35 180.55 732 181.6 733.75 182.35 735.5 183.1 737.05 183.35 737.8 183.5 738.1 182.9
L 739.15 180.55
Q 739.25 180.25 739.05 180 738.9 179.75 738.65 179.65 736.85 179.3 734.95 178.45 733.05 177.55 731.4 176.4 729.75 175.15 728.55 173.8 727.3 172.4 726.8 170.95
M 724.35 160.3
Q 724.35 160.5 724.5 160.65 724.7 160.8 724.9 160.8
L 732.1 160.8 732.1 169.05
Q 732.1 169.6 732.65 169.6
L 736.2 169.6
Q 736.7 169.6 736.7 169.05
L 736.7 146.2
Q 736.7 145.65 736.2 145.65
L 732.65 145.65
Q 732.1 145.65 732.1 146.2
L 732.1 156.95 724.9 156.95
Q 724.7 156.95 724.5 157.1 724.35 157.2 724.35 157.4
L 724.35 160.3
M 649.8 181.05
Q 650.65 180.15 650.65 178.85 650.65 177.55 649.8 176.7 648.9 175.8 647.65 175.8 646.35 175.8 645.45 176.7 644.55 177.55 644.55 178.85 644.55 180.15 645.45 181.05 646.35 181.95 647.65 181.95 648.9 181.95 649.8 181.05
M 687.95 155.8
Q 687.3 153.35 686.05 151.65 684.75 149.95 682.95 149 681.15 148.05 678.8 148.05 676.5 148.05 674.7 149 672.85 149.95 671.6 151.65 670.35 153.35 669.65 155.8 668.95 158.2 668.95 161.25 668.95 164.15 669.65 166.6 670.35 169 671.6 170.75 672.85 172.5 674.7 173.45 676.5 174.45 678.8 174.45 681.15 174.45 682.95 173.45 684.75 172.55 686.05 170.8 687.3 169.1 687.95 166.65 688.65 164.2 688.65 161.25 688.65 158.2 687.95 155.8
M 678.8 152.15
Q 680.05 152.15 681.05 152.85 682.05 153.6 682.75 154.8 683.4 156.05 683.75 157.75 684.1 159.4 684.1 161.25 684.1 163 683.75 164.7 683.4 166.35 682.75 167.6 682.05 168.85 681.05 169.6 680.05 170.35 678.8 170.35 677.5 170.35 676.55 169.6 675.55 168.85 674.9 167.6 674.2 166.35 673.85 164.7 673.45 163 673.45 161.25 673.45 159.4 673.85 157.75 674.2 156.05 674.9 154.8 675.55 153.6 676.55 152.85 677.5 152.15 678.8 152.15
M 698.55 146.2
Q 698.55 145.65 698.05 145.65
L 694.5 145.65
Q 693.95 145.65 693.95 146.2
L 693.95 183.1
Q 693.95 183.65 694.5 183.65
L 698.05 183.65
Q 698.55 183.65 698.55 183.1
L 698.55 146.2
M 724.35 148.4
Q 723.65 147.85 721.9 147.85
L 708.45 147.85
Q 707.9 147.85 707.9 148.4
L 707.9 151.05
Q 707.9 151.3 708.05 151.5 708.15 151.7 708.45 151.7
L 719.2 151.7
Q 720 151.7 719.95 151.95 719.95 152.2 719.75 152.85 718.6 156.7 715.45 159.85 712.3 163 707 165.4 706.65 165.6 706.55 165.9 706.5 166.25 706.65 166.6
L 707.7 168.65
Q 708.05 169.4 708.95 169 715.4 166.25 719.25 162.2 723.05 158.1 724.7 152.4 724.75 152.3 724.8 152.05 724.85 151.75 724.9 151.45 725 151.1 725.05 150.8 725.05 150.45 725.05 150.25 725.05 149 724.35 148.4
M 914.45 172.95
Q 914.6 173.1 914.85 173.1
L 933.2 173.1
Q 933.6 173.1 933.75 173.2 933.9 173.35 933.9 173.75
L 933.9 183
Q 933.9 183.2 934.1 183.35 934.3 183.55 934.55 183.55
L 937.95 183.55
Q 938.2 183.55 938.35 183.35 938.55 183.2 938.55 183
L 938.55 172.05
Q 938.55 170.55 937.95 169.9 937.4 169.25 935.85 169.25
L 914.85 169.25
Q 914.6 169.25 914.45 169.4 914.25 169.5 914.25 169.8
L 914.25 172.6
Q 914.25 172.85 914.45 172.95
M 917.25 146.65
Q 917 146.85 917 147.15 917 150.35 916.45 152.8 915.9 155.25 914.75 157.2 913.6 159.2 911.95 160.8 910.25 162.4 908.05 163.95 907.6 164.2 907.5 164.45 907.4 164.75 907.85 165.15
L 909.45 167.05
Q 909.75 167.35 910 167.4 910.3 167.5 910.8 167.2 913.55 165.25 915.65 163.25 917.7 161.25 919.1 158.75 920.6 161 922.6 162.8 924.65 164.6 927.05 165.65 927.8 165.95 928.2 165.3
L 929.55 163.1
Q 930 162.4 929.3 162.15 928.25 161.65 927.05 160.85 925.9 160.05 924.75 159 923.6 157.95 922.6 156.65 921.6 155.4 920.95 153.95 921.65 151 921.65 147.2 921.65 146.6 921.15 146.6
L 917.6 146.45
Q 917.4 146.45 917.25 146.65
M 898.5 145.65
Q 897.95 145.65 897.95 146.2
L 897.95 166.9
Q 897.95 167.1 898.1 167.3 898.3 167.45 898.5 167.45
L 901.95 167.45
Q 902.15 167.45 902.3 167.3 902.5 167.1 902.5 166.9
L 902.5 146.2
Q 902.5 145.65 901.95 145.65
L 898.5 145.65
M 938.55 146.2
Q 938.55 145.65 938 145.65
L 934.45 145.65
Q 934.25 145.65 934.1 145.8 933.9 145.95 933.9 146.2
L 933.9 166.7
Q 933.9 166.95 934.1 167.1 934.25 167.25 934.45 167.25
L 938 167.25
Q 938.55 167.25 938.55 166.75
L 938.55 146.2
M 880 169.45
Q 878.5 169.45 877.8 170.1 877.15 170.8 877.15 172.3
L 877.15 180.15
Q 877.15 181.75 877.8 182.4 878.4 183 880.2 183
L 899.65 183
Q 901.15 183 901.8 182.4 902.5 181.75 902.5 180.25
L 902.5 172.35
Q 902.5 170.75 901.85 170.1 901.25 169.45 899.45 169.45
L 880 169.45
M 881.8 173.2
Q 881.9 173.1 882.25 173.1
L 897.4 173.1
Q 897.7 173.1 897.8 173.2 897.9 173.3 897.9 173.65
L 897.9 178.8
Q 897.9 179.2 897.8 179.25 897.7 179.35 897.4 179.35
L 882.25 179.35
Q 881.9 179.35 881.8 179.25 881.75 179.2 881.75 178.8
L 881.75 173.65
Q 881.75 173.25 881.8 173.2
M 885.95 157.45
L 890.85 157.45 890.85 166.6
Q 890.85 167.15 891.4 167.15
L 894.65 167.15
Q 895.2 167.15 895.2 166.6
L 895.2 146.8
Q 895.2 146.3 894.65 146.3
L 891.4 146.3
Q 890.85 146.3 890.85 146.8
L 890.85 153.7 885.95 153.7
Q 885.75 153.7 885.55 153.85 885.35 154 885.35 154.2
L 885.35 156.95
Q 885.35 157.15 885.55 157.3 885.75 157.45 885.95 157.45
M 815.8 170.6
Q 816.15 170.55 816.35 170.3 816.55 170.05 816.5 169.8
L 816.05 167.55
Q 815.95 167.3 815.8 167.1 815.6 166.85 815.15 166.95 813.5 167.35 811.6 167.65 809.75 168 807.75 168.25 805.85 168.45 804 168.5 802.2 168.6 800.75 168.45 800.35 168.4 800.2 168.3 800.05 168.2 800.05 167.85
L 800.05 148.55
Q 800.05 148.35 799.85 148.15 799.7 148 799.45 148
L 796 148
Q 795.8 148 795.6 148.15 795.45 148.35 795.45 148.55
L 795.45 169.35
Q 795.45 170.7 796.1 171.45 796.8 172.2 798.35 172.4 800.05 172.55 802.4 172.45 804.8 172.35 807.3 172.05 809.75 171.75 812.05 171.4 814.3 171 815.8 170.6
M 831.05 162.85
Q 830.75 162.85 830.6 163.05 830.45 163.2 830.45 163.45
L 830.45 166.1
Q 830.45 166.3 830.6 166.5 830.75 166.7 831.05 166.7
L 846.05 166.7 846.05 170.15
Q 845.85 172.1 844.85 173.65 843.85 175.25 842.25 176.4 840.65 177.6 838.55 178.5 836.4 179.4 834 180 833.75 180.1 833.65 180.35 833.5 180.55 833.65 180.8
L 834.6 183.15
Q 834.7 183.45 834.9 183.6 835.05 183.75 835.5 183.65 839.65 182.9 843.05 180.95 846.45 179 848.45 176.2 849.3 177.4 850.7 178.6 852.1 179.8 853.8 180.75 855.55 181.75 857.45 182.45 859.45 183.2 861.4 183.45 861.85 183.55 862 183.45 862.2 183.35 862.3 183.05
L 863.3 180.6
Q 863.4 180.35 863.3 180.1 863.2 179.85 863 179.8 861 179.45 859 178.65 857 177.85 855.3 176.7 853.6 175.6 852.3 174.3 851.05 173 850.45 171.6 850.55 171.25 850.6 170.95 850.6 170.65 850.65 170.35
L 850.65 166.7 865.85 166.7
Q 866.05 166.7 866.25 166.5 866.45 166.3 866.45 166.1
L 866.45 163.45
Q 866.45 163.25 866.25 163.05 866.05 162.85 865.85 162.85
L 831.05 162.85
M 822.9 146.2
Q 822.9 145.65 822.35 145.65
L 818.8 145.65
Q 818.3 145.65 818.3 146.2
L 818.3 183.1
Q 818.3 183.65 818.8 183.65
L 822.35 183.65
Q 822.9 183.65 822.9 183.1
L 822.9 164.15 828.3 164.15
Q 828.5 164.15 828.7 164 828.9 163.8 828.9 163.6
L 828.9 160.8
Q 828.9 160.6 828.7 160.45 828.5 160.3 828.3 160.3
L 822.9 160.3 822.9 146.2
M 841.05 146.7
Q 841.05 146.5 840.85 146.3 840.7 146.15 840.45 146.15
L 837 146.15
Q 836.8 146.15 836.6 146.3 836.4 146.5 836.4 146.7
L 836.4 156.6
Q 836.4 158.2 837.05 158.8 837.65 159.45 839.5 159.45
L 860.9 159.45
Q 861.1 159.45 861.3 159.35 861.45 159.2 861.45 159
L 861.45 156.15
Q 861.45 155.95 861.3 155.8 861.1 155.6 860.9 155.6
L 841.85 155.6
Q 841.4 155.6 841.2 155.5 841.05 155.4 841.05 155
L 841.05 146.7
M 881.85 147.65
Q 881.85 147.05 881.3 147.05
L 877.95 146.85
Q 877.75 146.85 877.6 147.05 877.4 147.25 877.4 147.55 877.4 149.9 877.05 152.1 876.7 154.25 875.8 156.25 874.9 158.2 873.35 160.05 871.85 161.85 869.5 163.55 868.75 164.1 869.35 164.8
L 870.85 166.5
Q 871.1 166.8 871.45 166.8 871.85 166.75 872.15 166.6 874.5 165.05 876.3 163.15 878.05 161.25 879.3 158.9 879.85 159.95 880.55 160.85 881.3 161.8 882.1 162.65 882.95 163.5 883.85 164.2 884.7 164.95 885.55 165.45 886.25 165.9 886.75 165.25
L 888.25 163.2
Q 888.45 162.95 888.45 162.75 888.5 162.5 888.15 162.3 885.75 160.7 883.85 158.45 881.95 156.25 881.2 153.8 881.85 151.05 881.85 147.65
M 1090.6 152.5
Q 1091.15 152.5 1091.15 152
L 1091.15 149.2
Q 1091.15 148.65 1090.6 148.65
L 1076.05 148.65
Q 1074.55 148.65 1074 149.2 1073.4 149.8 1073.4 151.2
L 1073.4 171.05
Q 1073.4 172.35 1074.1 173 1074.8 173.65 1076.3 173.75 1077.95 173.9 1080.4 173.85 1082.85 173.8 1085.4 173.6 1087.95 173.35 1090.2 173.05 1092.5 172.75 1093.8 172.3 1094 172.2 1094.2 172.05 1094.35 171.9 1094.3 171.45
L 1093.9 169.2
Q 1093.75 168.65 1093.15 168.75 1091.35 169.05 1089.4 169.3 1087.5 169.55 1085.65 169.7 1083.75 169.8 1082.1 169.85 1080.45 169.9 1079.2 169.8 1078.45 169.8 1078.2 169.55 1078 169.35 1078 168.7
L 1078 163.15
Q 1079.45 163.15 1081.1 163.15 1082.75 163.15 1084.4 163.1 1086 163.05 1087.55 163 1089.1 162.95 1090.45 162.85 1090.9 162.85 1090.9 162.2
L 1090.9 159.45
Q 1090.9 159.25 1090.65 159.2 1090.45 159.1 1090.25 159.1 1089 159.2 1087.5 159.2 1086.05 159.25 1084.45 159.25 1082.85 159.3 1081.2 159.3 1079.55 159.3 1078 159.3
L 1078 153.2
Q 1078 152.5 1078.7 152.5
L 1090.6 152.5
M 1063.2 146.2
Q 1063.2 145.65 1062.65 145.65
L 1059.1 145.65
Q 1058.6 145.65 1058.6 146.2
L 1058.6 183.1
Q 1058.6 183.65 1059.1 183.65
L 1062.65 183.65
Q 1063.2 183.65 1063.2 183.1
L 1063.2 164.15 1068.6 164.15
Q 1068.8 164.15 1069 164 1069.2 163.8 1069.2 163.6
L 1069.2 160.8
Q 1069.2 160.6 1069 160.45 1068.8 160.3 1068.6 160.3
L 1063.2 160.3 1063.2 146.2
M 1101.3 146.2
Q 1101.3 145.65 1100.75 145.65
L 1097.2 145.65
Q 1096.7 145.65 1096.7 146.2
L 1096.7 183.1
Q 1096.7 183.65 1097.2 183.65
L 1100.75 183.65
Q 1101.3 183.65 1101.3 183.1
L 1101.3 164.15 1106.7 164.15
Q 1106.9 164.15 1107.1 164 1107.3 163.8 1107.3 163.6
L 1107.3 160.8
Q 1107.3 160.6 1107.1 160.45 1106.9 160.3 1106.7 160.3
L 1101.3 160.3 1101.3 146.2
M 1115.45 148.35
L 1112.15 148.35
Q 1111.9 148.35 1111.7 148.55 1111.55 148.75 1111.55 148.95
L 1111.55 169.55
Q 1111.55 170.9 1112.3 171.7 1113.05 172.45 1114.5 172.55 1116.05 172.6 1117.85 172.55 1119.6 172.5 1121.45 172.35 1123.25 172.2 1124.95 171.9 1126.65 171.6 1128.05 171.2 1128.35 171.1 1128.55 170.95 1128.75 170.8 1128.7 170.55
L 1128.3 168
Q 1128.25 167.7 1128 167.6 1127.7 167.55 1127.5 167.55 1126.2 167.9 1124.7 168.15 1123.25 168.35 1121.85 168.55 1120.4 168.7 1119.1 168.75 1117.85 168.8 1116.8 168.65 1116.1 168.65 1116.1 168
L 1116.1 148.95
Q 1116.1 148.75 1115.9 148.55 1115.7 148.35 1115.45 148.35
M 980.55 173.2
Q 980.35 173 980.15 173
L 945.35 173
Q 945.05 173 944.9 173.2 944.75 173.35 944.75 173.65
L 944.75 176.25
Q 944.75 176.45 944.9 176.65 945.05 176.85 945.35 176.85
L 980.15 176.85
Q 980.35 176.85 980.55 176.65 980.75 176.45 980.75 176.25
L 980.75 173.65
Q 980.75 173.4 980.55 173.2
M 975.85 157.3
Q 975.85 155.25 974.85 153.55 973.9 151.85 972.15 150.65 970.35 149.45 967.95 148.8 965.55 148.2 962.75 148.2 959.95 148.2 957.55 148.8 955.15 149.45 953.4 150.65 951.65 151.85 950.65 153.55 949.65 155.25 949.65 157.3 949.65 159.4 950.65 161.05 951.65 162.75 953.4 163.95 955.15 165.15 957.55 165.8 959.95 166.4 962.75 166.4 965.55 166.4 967.95 165.8 970.35 165.15 972.15 163.95 973.9 162.75 974.85 161.05 975.85 159.4 975.85 157.3
M 971.1 157.3
Q 971.1 158.5 970.45 159.5 969.75 160.5 968.65 161.2 967.5 161.9 965.95 162.3 964.45 162.65 962.75 162.65 961.1 162.65 959.55 162.3 958.05 161.9 956.9 161.2 955.75 160.5 955.05 159.5 954.4 158.5 954.4 157.3 954.4 156.1 955.05 155.1 955.75 154.15 956.9 153.45 958.05 152.75 959.55 152.35 961.1 152 962.75 152 964.45 152 965.95 152.35 967.5 152.75 968.65 153.45 969.75 154.15 970.45 155.1 971.1 156.1 971.1 157.3
M 1010.25 147.6
L 989.25 147.6
Q 989 147.6 988.85 147.8 988.7 147.95 988.7 148.15
L 988.7 150.8
Q 988.7 151 988.85 151.2 989 151.4 989.25 151.4
L 1008.05 151.4
Q 1008.45 151.4 1008.55 151.45 1008.65 151.5 1008.65 151.95
L 1008.65 155.05
Q 1008.65 155.5 1008.55 155.6 1008.45 155.7 1008.05 155.7
L 991.4 155.7
Q 990.55 155.7 989.95 155.8 989.4 155.9 989.1 156.2 988.8 156.5 988.65 157 988.55 157.5 988.55 158.3
L 988.55 164.75
Q 988.55 165.55 988.65 166.05 988.8 166.55 989.1 166.85 989.4 167.2 989.95 167.3 990.55 167.4 991.4 167.4
L 998.6 167.4 998.6 173.35 983.45 173.35
Q 983.15 173.35 983 173.6 982.85 173.8 982.85 174
L 982.85 176.55
Q 982.85 176.75 983 176.95 983.15 177.15 983.45 177.15
L 1018.25 177.15
Q 1018.45 177.15 1018.65 176.95 1018.85 176.75 1018.85 176.55
L 1018.85 174
Q 1018.85 173.8 1018.65 173.6 1018.45 173.35 1018.25 173.35
L 1003.15 173.35 1003.15 167.4 1013.45 167.4
Q 1013.6 167.4 1013.8 167.25 1014 167.1 1014 166.9
L 1014 164.2
Q 1014 164 1013.8 163.9 1013.65 163.75 1013.45 163.75
L 993.6 163.75
Q 993.2 163.75 993.1 163.65 993 163.55 993 163.1
L 993 159.95
Q 993 159.55 993.1 159.45 993.15 159.4 993.6 159.4
L 1010.25 159.4
Q 1011.95 159.4 1012.55 158.85 1013.15 158.3 1013.15 156.75
L 1013.15 150.25
Q 1013.15 148.7 1012.55 148.15 1011.95 147.6 1010.25 147.6
M 1040.15 148.15
Q 1040 148 1039.75 148
L 1036.3 148
Q 1036.1 148 1035.9 148.15 1035.75 148.35 1035.75 148.55
L 1035.75 169.35
Q 1035.75 170.7 1036.4 171.45 1037.1 172.2 1038.65 172.4 1040.35 172.55 1042.7 172.45 1045.1 172.35 1047.6 172.05 1050.05 171.75 1052.35 171.4 1054.6 171 1056.1 170.6 1056.45 170.55 1056.65 170.3 1056.85 170.05 1056.8 169.8
L 1056.35 167.55
Q 1056.25 167.3 1056.1 167.1 1055.9 166.85 1055.45 166.95 1053.8 167.35 1051.9 167.65 1050.05 168 1048.05 168.25 1046.15 168.45 1044.3 168.5 1042.5 168.6 1041.05 168.45 1040.65 168.4 1040.5 168.3 1040.35 168.2 1040.35 167.85
L 1040.35 148.55
Q 1040.35 148.35 1040.15 148.15
M 1156.5 171.25
Q 1156.3 171.25 1156.1 171.45 1155.95 171.65 1155.95 171.85
L 1155.95 180.1
Q 1155.95 181.65 1156.55 182.3 1157.2 182.95 1159 182.95
L 1179.8 182.95
Q 1180 182.95 1180.2 182.85 1180.35 182.7 1180.35 182.45
L 1180.35 179.6
Q 1180.35 179.45 1180.2 179.25 1180 179.1 1179.8 179.1
L 1161.3 179.1
Q 1160.9 179.1 1160.7 179 1160.55 178.85 1160.55 178.45
L 1160.55 171.85
Q 1160.55 171.65 1160.4 171.45 1160.2 171.25 1159.9 171.25
L 1156.5 171.25
M 1134.45 146.9
Q 1134.45 146.7 1134.25 146.55 1134.05 146.4 1133.85 146.4
L 1130.6 146.4
Q 1130.4 146.4 1130.2 146.55 1130 146.7 1130 146.9
L 1130 181.6
Q 1130 181.8 1130.2 182 1130.4 182.15 1130.6 182.15
L 1133.85 182.15
Q 1134.05 182.15 1134.25 182 1134.45 181.8 1134.45 181.6
L 1134.45 164.2 1138.2 164.2 1138.2 183.1
Q 1138.2 183.3 1138.4 183.45 1138.6 183.65 1138.8 183.65
L 1142.2 183.65
Q 1142.8 183.65 1142.8 183.1
L 1142.8 146.2
Q 1142.8 145.65 1142.2 145.65
L 1138.8 145.65
Q 1138.6 145.65 1138.4 145.8 1138.2 145.95 1138.2 146.2
L 1138.2 160.35 1134.45 160.35 1134.45 146.9
M 1179.2 146.2
Q 1179.2 145.65 1178.7 145.65
L 1175.15 145.65
Q 1174.6 145.65 1174.6 146.2
L 1174.6 152.05 1167.8 152.05 1167.8 150.5
Q 1167.8 148.9 1167.2 148.35 1166.55 147.85 1165.05 147.85
L 1152.95 147.85
Q 1151.45 147.85 1150.85 148.4 1150.2 149 1150.2 150.5
L 1150.2 164.3
Q 1150.2 165.85 1150.85 166.45 1151.45 167.05 1153.15 167.05
L 1165.05 167.05
Q 1166.55 167.05 1167.2 166.45 1167.8 165.85 1167.8 164.3
L 1167.8 163.55 1174.6 163.55 1174.6 172.5
Q 1174.6 173 1175.15 173
L 1178.7 173
Q 1179.2 173 1179.2 172.5
L 1179.2 146.2
M 1167.8 159.85
L 1167.8 155.7 1174.6 155.7 1174.6 159.85 1167.8 159.85
M 1163.15 151.6
Q 1163.3 151.7 1163.3 152.05
L 1163.3 162.85
Q 1163.3 163.25 1163.15 163.35 1163.1 163.4 1162.75 163.4
L 1155.25 163.4
Q 1154.9 163.4 1154.8 163.35 1154.7 163.25 1154.7 162.85
L 1154.7 152
Q 1154.7 151.65 1154.8 151.6 1154.9 151.5 1155.25 151.5
L 1162.75 151.5
Q 1163.1 151.5 1163.15 151.6 Z"/>

<path fill="#008542" stroke="none" d="
M 675.65 513
Q 675.15 512.8 674.5 512.8
L 670.25 512.8
Q 669.85 512.8 669.55 512.9 669.25 513 669 513.25 668.75 513.55 668.6 513.85 668.5 514.2 668.5 514.65 668.5 515.05 668.6 515.35 668.7 515.65 668.95 515.85 669.15 516.1 669.5 516.2 669.8 516.3 670.25 516.3
L 673.05 516.3
Q 673.1 516.45 673.1 516.6 673.15 516.75 673.15 516.9 673.15 517.05 673.2 517.2 673.2 517.35 673.2 517.55
L 673.2 523.1
Q 673.2 523.45 673.35 523.7 673.5 524 673.85 524.2 674.1 524.4 674.45 524.5 674.8 524.6 675.15 524.6 675.45 524.6 675.75 524.5 676.05 524.4 676.4 524.2 676.75 524 676.9 523.75 677.1 523.45 677.1 523.1
L 677.1 515.9
Q 677.1 514.6 676.45 513.7 676.15 513.25 675.65 513
M 691 522.65
Q 691 522.35 690.9 522.05 690.8 521.8 690.65 521.65 690.4 521.4 690.25 521.2 690.05 521 689.9 520.7 689.55 520.5 689.3 520.25 689.05 520.05 688.8 519.75 688.55 519.55 688.3 519.3 688.05 519 687.85 518.7 687.35 517.85 687.15 517.05 686.9 516.2 686.9 515.35
L 686.9 514.1
Q 686.9 513.5 686.6 513.15 686.3 512.8 685.7 512.7
L 684.9 512.7
Q 684.6 512.7 684.3 512.8 684 512.85 683.7 513 683.35 513.15 683.2 513.4 683.05 513.65 683.05 514
L 683.05 515.2
Q 682.95 516 682.75 516.75 682.55 517.5 682.2 518.15 681.85 518.85 681.4 519.45 680.9 520 680.3 520.45
L 679.95 520.9
Q 679.75 521.05 679.6 521.2 679.45 521.4 679.4 521.6 679.3 521.75 679.3 521.95 679.25 522.15 679.25 522.45 679.25 522.9 679.4 523.2 679.55 523.55 679.9 523.75 680.2 523.95 680.55 524.05 680.85 524.15 681.25 524.15 681.5 524.05 681.8 523.85 682.1 523.7 682.45 523.45 682.8 523.2 683.1 522.9 683.45 522.6 683.75 522.35 684 522 684.2 521.75 684.4 521.5 684.55 521.25 684.65 521.05 684.75 520.9 684.85 520.75 684.9 520.65 685.1 520.95 685.3 521.25 685.5 521.5 685.75 521.75 685.9 522 686.15 522.3 686.45 522.5 686.75 522.75 686.95 523 687.25 523.25 687.5 523.45 687.85 523.65 688.1 523.85 688.4 523.95 688.7 524.1 688.95 524.15 689.35 524.15 689.7 524.05 690.05 523.95 690.35 523.8 690.7 523.6 690.85 523.3 691 523.05 691 522.65
M 688.45 494
Q 688.15 493.8 687.85 493.7 687.55 493.55 687.25 493.45 686.95 493.35 686.6 493.35 686.25 493.3 685.9 493.3
L 671.7 493.3
Q 671 493.3 670.45 493.5 669.9 493.7 669.4 494.1 668.9 494.55 668.65 495.05 668.45 495.6 668.45 496.2
L 668.45 502.1
Q 668.45 502.8 668.65 503.25 668.9 503.75 669.4 504.05 669.9 504.4 670.45 504.55 671 504.75 671.7 504.75
L 677.2 504.75 677.2 506.9 664.9 506.9
Q 664.45 506.9 664.15 507.05 663.85 507.2 663.75 507.45 663.6 507.75 663.55 508.05 663.5 508.4 663.5 508.75 663.5 509.15 663.55 509.45 663.6 509.8 663.75 510.05 663.95 510.55 664.9 510.55
L 693.1 510.55
Q 693.6 510.55 693.9 510.45 694.2 510.3 694.35 510.05 694.45 509.8 694.5 509.45 694.55 509.15 694.55 508.75 694.55 508.4 694.5 508.05 694.45 507.75 694.35 507.45 694.2 507.2 693.9 507.05 693.6 506.9 693.1 506.9
L 681.4 506.9 681.4 504.75 686.2 504.75
Q 686.85 504.75 687.45 504.55 688.05 504.4 688.55 504.05 689.05 503.75 689.3 503.25 689.55 502.8 689.55 502.1
L 689.55 496.2
Q 689.55 495.85 689.5 495.5 689.4 495.15 689.25 494.9 689 494.65 688.8 494.4 688.65 494.2 688.45 494
M 685.35 497.45
Q 685.35 497.65 685.35 497.8 685.35 498 685.35 498.2 685.35 498.35 685.35 498.55
L 685.35 500.85
Q 684.9 500.9 684.45 500.9 684 500.95 683.6 500.95 683.2 501 682.75 501 682.3 501 681.8 501
L 672.8 501
Q 672.75 500.85 672.75 500.65 672.7 500.45 672.7 500.25 672.7 500.1 672.65 499.85 672.65 499.7 672.65 499.45
L 672.65 497.15
Q 673.1 497.15 673.55 497.1 674 497.05 674.45 497 674.85 497 675.3 497 675.7 497 676.15 497
L 681.8 497
Q 682.75 497 683.6 497 683.95 497 684.4 497.05 684.85 497.05 685.35 497.05 685.35 497.25 685.35 497.45 Z"/>
</g>

<path id="fdbd44545_0_Layer0_0_1_STROKES" stroke="#EC3131" stroke-width="2.5" stroke-linejoin="miter" stroke-linecap="butt" stroke-miterlimit="3" fill="none" d="
M 2.5 8.4
L 2.5 -16.7 2.5 -20.95 20.2 -20.95"/>

<path id="Layer0_2_1_STROKES" stroke="#BBDECB" stroke-width="5" stroke-linejoin="round" stroke-linecap="round" fill="none" d="
M 59 112.05
L 1116.95 112.05 1222 112.05
Q 1237 112.05 1237 127.05
L 1237 623
Q 1237 638 1222 638
L 258 638 236.05 638 59 638
Q 44 638 44 623
L 44 603 44 429.9 44 405.95 44 127.05
Q 44 112.05 59 112.05 Z"/>

<path id="Layer0_2_2_STROKES" stroke="#1E1E1E" stroke-width="3" stroke-linejoin="miter" stroke-linecap="butt" stroke-miterlimit="3" fill="none" d="
M 624 317
L 624 350 583 350 572 350 565 350 505 350 445 350 385 350 385 317
M 445 350
L 445 317
M 565 350
L 565 317
M 505 350
L 505 317"/>
</defs>

<g transform="matrix( 0, -1.4296875, 1.4296875, 0, 612.4,513.25) ">
<g transform="matrix( 1, 0, 0, 1, -531.45,-328.6) ">
<use filter="url(#Filter_1)" xlink:href="#fdbd44545_0_Layer1_0_FILL"/>
</g>

<g transform="matrix( 1, 0, 0, 1, 0,0) ">
<use filter="url(#Filter_1)" xlink:href="#fdbd44545_0_Layer0_0_1_STROKES"/>
</g>
</g>

<g transform="matrix( -0.7999725341796875, 0, 0, -0.7999725341796875, 367.85,440.05) ">
<g transform="matrix( 1, 0, 0, 1, 0,0) ">
<use filter="url(#Filter_2)" xlink:href="#vsdvs434_0_Layer1_0_FILL"/>
</g>

<g transform="matrix( 1, 0, 0, 1, 0,0) ">
<use filter="url(#Filter_2)" xlink:href="#vsdvs434_0_Layer0_0_FILL"/>
</g>
</g>

<g transform="matrix( 1, 0, 0, 1, 0,0) ">
<use xlink:href="#Layer0_2_FILL"/>

<use xlink:href="#Layer0_2_1_STROKES"/>

<use xlink:href="#Layer0_2_2_STROKES"/>
</g>
</svg>
