<?xml version="1.0" encoding="utf-8"?>
<!-- Generator: Adobe Illustrator 23.0.0, SVG Export Plug-In . SVG Version: 6.00 Build 0)  -->
<svg version="1.1" id="Layer_1" xmlns="http://www.w3.org/2000/svg" xmlns:xlink="http://www.w3.org/1999/xlink" x="0px" y="0px"
	 width="1220px" height="450px" viewBox="0 0 1220 450" style="enable-background:new 0 0 1220 450;" xml:space="preserve">
<style type="text/css">
	.st0{fill:none;stroke:#000000;stroke-width:2;stroke-linecap:round;stroke-linejoin:round;stroke-miterlimit:10;}
	.st1{fill:#000111;}
	.st2{fill:none;stroke:#000000;stroke-width:2;stroke-linecap:round;stroke-linejoin:round;}
	.st3{fill:none;stroke:#000000;stroke-width:2;stroke-linecap:round;stroke-linejoin:round;stroke-dasharray:5.0666,4.0533;}
	.st4{fill:#008CCF;}
	.st5{fill:#C83164;}
</style>
<g>
	<line class="st0" x1="856" y1="178.4" x2="1050" y2="178.4"/>
	<path class="st1" d="M891.9,147l-6.3-6.3l6.3-6.3c1-1,1-2.5,0-3.5s-2.5-1-3.5,0l-6.3,6.3l-6.3-6.3c-1-1-2.5-1-3.5,0s-1,2.5,0,3.5
		l6.3,6.3l-6.3,6.3c-1,1-1,2.5,0,3.5s2.5,1,3.5,0l6.3-6.3l6.3,6.3c1,1,2.5,1,3.5,0C892.8,149.5,892.8,147.9,891.9,147z"/>
	<g>
		<g>
			<line class="st2" x1="1039.7" y1="35" x2="1039.7" y2="37.5"/>
			<line class="st3" x1="1039.7" y1="41.6" x2="1039.7" y2="240.2"/>
			<line class="st2" x1="1039.7" y1="242.2" x2="1039.7" y2="244.7"/>
		</g>
	</g>
	<g>
		<g>
			<line class="st2" x1="979.4" y1="35" x2="979.4" y2="37.5"/>
			<line class="st3" x1="979.4" y1="41.6" x2="979.4" y2="240.2"/>
			<line class="st2" x1="979.4" y1="242.2" x2="979.4" y2="244.7"/>
		</g>
	</g>
	<g>
		<g>
			<line class="st2" x1="919.2" y1="35" x2="919.2" y2="37.5"/>
			<line class="st3" x1="919.2" y1="41.6" x2="919.2" y2="240.2"/>
			<line class="st2" x1="919.2" y1="242.2" x2="919.2" y2="244.7"/>
		</g>
	</g>
	<g>
		<g>
			<path class="st4" d="M949.2,48.8c1.9,0,3.5,0.2,4.9,0.7s2.5,1.1,3.5,1.9c0.9,0.8,1.6,1.8,2.1,2.9s0.7,2.3,0.7,3.5v0.5
				c0,1.9-0.4,3.6-1.2,5.2s-2,3.3-3.7,5L944,80.6h16.2c0.6,0,1,0.2,1.3,0.6s0.4,0.9,0.4,1.5s-0.1,1.1-0.4,1.5s-0.7,0.6-1.3,0.6H941
				c-1.3,0-2.2-0.2-2.8-0.6s-0.8-1.1-0.8-2c0-0.4,0.1-0.8,0.3-1.2c0.2-0.4,0.6-0.9,1.1-1.4L951,66.8c0.9-0.9,1.6-1.8,2.2-2.5
				c0.5-0.7,1-1.4,1.3-2s0.6-1.2,0.7-1.8c0.1-0.6,0.2-1.2,0.2-1.9v-0.2c0-1.5-0.5-2.6-1.5-3.5s-2.5-1.3-4.5-1.3
				c-1.7,0-3.1,0.3-4.2,1s-2.1,1.7-3,3c-0.4,0.5-0.8,0.8-1.4,0.9s-1.1-0.1-1.6-0.4c-0.5-0.4-0.9-0.8-1-1.4c-0.1-0.6,0-1.1,0.3-1.7
				c1.1-1.7,2.5-3,4.3-4.2C944.4,49.4,946.6,48.8,949.2,48.8z"/>
		</g>
	</g>
	<g>
		<g>
			<path class="st5" d="M951.1,3.4c0.5,0,0.8,0.1,1.1,0.3s0.4,0.5,0.4,1v19.1c0,0.4-0.2,0.8-0.5,1s-0.7,0.3-1,0.3
				c-0.4,0-0.8-0.1-1.1-0.3c-0.3-0.2-0.4-0.5-0.4-1V6.9l-4.5,2.8c-0.4,0.2-0.7,0.3-1.1,0.1c-0.3-0.1-0.6-0.4-0.8-0.7s-0.2-0.7-0.2-1
				s0.3-0.6,0.6-0.8l5.4-3.2c0.4-0.2,0.8-0.4,1.1-0.5C950.5,3.4,950.8,3.4,951.1,3.4z"/>
		</g>
	</g>
	<g>
		<g>
			<path class="st5" d="M1009.3,48.8c1.9,0,3.6,0.2,5,0.7s2.6,1.1,3.6,1.9s1.7,1.8,2.1,2.9s0.7,2.3,0.7,3.5V58
				c0,0.9-0.1,1.7-0.4,2.5c-0.2,0.8-0.6,1.6-1.1,2.4c-0.5,0.7-1.1,1.4-1.9,2c-0.8,0.6-1.7,1-2.8,1.4c1.1,0.2,2.1,0.5,3,0.9
				s1.7,1,2.4,1.6s1.2,1.5,1.6,2.4s0.6,2,0.6,3.2v0.5c0,1.4-0.3,2.7-0.8,3.9c-0.5,1.3-1.3,2.4-2.3,3.3s-2.4,1.7-3.9,2.3
				c-1.6,0.6-3.4,0.8-5.5,0.8c-4,0-7.4-1-10.2-2.9c-0.6-0.4-1-0.9-1.1-1.5s0-1.2,0.4-1.8c0.4-0.6,0.8-1,1.4-1.1
				c0.5-0.1,1.1,0,1.7,0.3c1.2,0.8,2.4,1.4,3.6,1.8c1.2,0.4,2.5,0.6,3.9,0.6s2.6-0.2,3.6-0.5s1.8-0.8,2.4-1.3
				c0.6-0.5,1.1-1.2,1.3-1.9c0.3-0.7,0.4-1.5,0.4-2.3v-0.4c0-1.1-0.2-2-0.6-2.7s-0.9-1.3-1.6-1.8s-1.5-0.8-2.5-1s-2-0.3-3.1-0.3
				h-2.8c-0.6,0-1.1-0.2-1.4-0.6c-0.3-0.4-0.4-0.9-0.4-1.5s0.1-1.1,0.4-1.5c0.3-0.4,0.7-0.6,1.4-0.6h2.4c2,0,3.7-0.5,5-1.4
				s2-2.4,2-4.5v-0.1c0-1.5-0.5-2.8-1.6-3.7s-2.7-1.4-4.9-1.4c-1.4,0-2.6,0.2-3.6,0.7s-2,1.2-2.8,2.2c-0.5,0.5-1,0.7-1.6,0.6
				s-1.1-0.3-1.5-0.8s-0.6-1-0.6-1.5s0.2-1.1,0.6-1.5c1-1.2,2.2-2.2,3.9-3C1005.3,49.2,1007.2,48.8,1009.3,48.8z"/>
		</g>
	</g>
	<g>
		<g>
			<path d="M1020.3,124c0.3,0.4,0.4,0.9,0.4,1.5s-0.1,1.1-0.4,1.5c-0.3,0.4-0.7,0.6-1.3,0.6h-13.5l-0.6,11c0.9-0.6,1.9-1.2,3-1.6
				s2.5-0.7,4.1-0.7c1.7,0,3.3,0.3,4.6,0.8c1.3,0.6,2.4,1.3,3.4,2.3c0.9,1,1.6,2.1,2.1,3.4c0.5,1.3,0.7,2.7,0.7,4.3v0.5
				c0,1.4-0.2,2.8-0.7,4.2s-1.2,2.6-2.2,3.7s-2.3,2-3.9,2.7c-1.6,0.7-3.5,1-5.8,1s-4.3-0.3-6.1-0.8s-3.3-1.2-4.7-2.1
				c-0.6-0.4-0.9-0.9-1-1.5s0-1.2,0.4-1.7c0.8-1.3,1.8-1.5,3-0.7c1.2,0.7,2.4,1.3,3.7,1.7s2.9,0.6,4.6,0.6c1.3,0,2.5-0.2,3.4-0.6
				s1.8-0.9,2.4-1.5c0.6-0.6,1.1-1.4,1.3-2.2s0.4-1.8,0.4-2.7v-0.3c0-2.3-0.6-4-1.9-5.2s-3-1.7-5.3-1.7c-1.3,0-2.5,0.2-3.5,0.6
				s-2,1-2.8,1.7c-0.4,0.4-0.8,0.6-1.1,0.7s-0.7,0.2-1.2,0.2c-0.6,0-1.1-0.1-1.5-0.4s-0.6-0.7-0.5-1.3l0.8-14.8
				c0-0.8,0.1-1.4,0.3-1.9s0.4-0.9,0.6-1.2c0.3-0.3,0.7-0.5,1.1-0.6c0.5-0.1,1.1-0.2,1.8-0.2h14.4
				C1019.6,123.4,1020,123.6,1020.3,124z"/>
		</g>
	</g>
	<g>
		<path d="M952.7,194.1c0.8,0,1.4,0.2,1.9,0.5s0.7,0.9,0.7,1.6v31.7c0,0.7-0.2,1.3-0.7,1.6s-1.1,0.5-1.7,0.5s-1.2-0.2-1.7-0.5
			s-0.7-0.9-0.7-1.6V200l-7.5,4.6c-0.6,0.4-1.2,0.4-1.8,0.2s-1-0.6-1.3-1.2c-0.3-0.5-0.4-1.1-0.3-1.7s0.4-1,1-1.4l8.9-5.3
			c0.7-0.4,1.3-0.6,1.8-0.8C951.7,194.2,952.2,194.1,952.7,194.1z"/>
	</g>
	<g>
		<path d="M892.7,194.1c0.8,0,1.4,0.2,1.9,0.5s0.7,0.9,0.7,1.6v31.7c0,0.7-0.2,1.3-0.7,1.6s-1.1,0.5-1.7,0.5s-1.2-0.2-1.7-0.5
			s-0.7-0.9-0.7-1.6V200l-7.5,4.6c-0.6,0.4-1.2,0.4-1.8,0.2s-1-0.6-1.3-1.2c-0.3-0.5-0.4-1.1-0.3-1.7s0.4-1,1-1.4l8.9-5.3
			c0.7-0.4,1.3-0.6,1.8-0.8C891.7,194.2,892.2,194.1,892.7,194.1z"/>
	</g>
	<g>
		<path d="M1020.3,195c0.3,0.4,0.4,0.9,0.4,1.5s-0.1,1.1-0.4,1.5c-0.3,0.4-0.7,0.6-1.3,0.6h-13.5l-0.6,11c0.9-0.6,1.9-1.2,3-1.6
			s2.5-0.7,4.1-0.7c1.7,0,3.3,0.3,4.6,0.8c1.3,0.6,2.4,1.3,3.4,2.3c0.9,1,1.6,2.1,2.1,3.4c0.5,1.3,0.7,2.7,0.7,4.3v0.5
			c0,1.4-0.2,2.8-0.7,4.2s-1.2,2.6-2.2,3.7c-1,1.1-2.3,2-3.9,2.7c-1.6,0.7-3.5,1-5.8,1s-4.3-0.3-6.1-0.8s-3.3-1.2-4.7-2.1
			c-0.6-0.4-0.9-0.9-1-1.5s0-1.2,0.4-1.7c0.8-1.3,1.8-1.5,3-0.7c1.2,0.7,2.4,1.3,3.7,1.7s2.9,0.6,4.6,0.6c1.3,0,2.5-0.2,3.4-0.6
			s1.8-0.9,2.4-1.5c0.6-0.6,1.1-1.4,1.3-2.2s0.4-1.8,0.4-2.7v-0.3c0-2.3-0.6-4-1.9-5.2s-3-1.7-5.3-1.7c-1.3,0-2.5,0.2-3.5,0.6
			s-2,1-2.8,1.7c-0.4,0.4-0.8,0.6-1.1,0.7s-0.7,0.2-1.2,0.2c-0.6,0-1.1-0.1-1.5-0.4s-0.6-0.7-0.5-1.3l0.8-14.8
			c0-0.8,0.1-1.4,0.3-1.9s0.4-0.9,0.6-1.2c0.3-0.3,0.7-0.5,1.1-0.6c0.5-0.1,1.1-0.2,1.8-0.2h14.4
			C1019.6,194.4,1020,194.6,1020.3,195z"/>
	</g>
</g>
</svg>
