
<svg xmlns="http://www.w3.org/2000/svg" version="1.1" xmlns:xlink="http://www.w3.org/1999/xlink" preserveAspectRatio="none" x="0px" y="0px" width="1280px" height="720px" viewBox="0 0 1280 720">
<defs>
<g id="Layer0_0_FILL">
<path fill="#1E1E1E" stroke="none" d="
M 1003.3 562.25
Q 1003 562.25 1002.85 562.45 1002.7 562.6 1002.7 562.85
L 1002.7 565.5
Q 1002.7 565.65 1002.85 565.9 1003 566.1 1003.3 566.1
L 1018.4 566.1 1018.4 578.3
Q 1018.4 578.85 1018.95 578.85
L 1022.45 578.85
Q 1023 578.85 1023 578.3
L 1023 566.1 1038.1 566.1
Q 1038.3 566.1 1038.5 565.9 1038.7 565.65 1038.7 565.5
L 1038.7 562.85
Q 1038.7 562.65 1038.5 562.45 1038.3 562.25 1038.1 562.25
L 1003.3 562.25
M 1033.3 541.8
Q 1033.3 541.6 1033.1 541.45 1032.95 541.3 1032.75 541.3
L 1029.2 541.3
Q 1029 541.3 1028.85 541.45 1028.65 541.6 1028.65 541.8
L 1028.65 546.3 1012.65 546.3 1012.65 541.75
Q 1012.65 541.55 1012.5 541.4 1012.3 541.3 1012.1 541.3
L 1008.6 541.3
Q 1008.4 541.3 1008.25 541.4 1008.05 541.55 1008.05 541.75
L 1008.05 554.95
Q 1008.05 556.55 1008.7 557.15 1009.35 557.75 1011.1 557.75
L 1030.25 557.75
Q 1032 557.75 1032.65 557.1 1033.3 556.4 1033.3 555.1
L 1033.3 541.8
M 1028.65 550.1
L 1028.65 553.35
Q 1028.65 553.7 1028.55 553.8 1028.4 553.9 1028 553.9
L 1013.3 553.9
Q 1012.95 553.9 1012.8 553.8 1012.65 553.7 1012.65 553.35
L 1012.65 550.1 1028.65 550.1
M 965.7 561.75
Q 965.4 561.75 965.25 561.95 965.1 562.1 965.1 562.35
L 965.1 564.95
Q 965.1 565.15 965.25 565.4 965.4 565.6 965.7 565.6
L 980.85 565.6 980.85 578.3
Q 980.85 578.85 981.45 578.85
L 984.9 578.85
Q 985.45 578.85 985.45 578.3
L 985.45 565.6 1000.5 565.6
Q 1000.7 565.6 1000.9 565.4 1001.1 565.15 1001.1 564.95
L 1001.1 562.35
Q 1001.1 562.15 1000.9 561.95 1000.7 561.75 1000.5 561.75
L 965.7 561.75
M 970.4 544.6
L 970.4 554.8
Q 970.4 556.2 971.05 556.95 971.7 557.7 973.3 557.7
L 995.45 557.7
Q 995.7 557.7 995.8 557.55 995.95 557.4 995.95 557.05
L 995.95 554.3
Q 995.95 554 995.8 553.9 995.65 553.85 995.3 553.85
L 975.75 553.85
Q 975.05 553.85 975.05 553.1
L 975.05 546.5
Q 975.05 545.85 975.75 545.85
L 995.1 545.85
Q 995.7 545.85 995.7 545.3
L 995.7 542.55
Q 995.7 542 995.1 542
L 973.3 542
Q 971.8 542 971.1 542.55 970.4 543.05 970.4 544.6
M 928.1 569.1
Q 927.9 568.85 927.65 568.85
L 924.2 568.85
Q 924.05 568.85 923.85 569.1 923.65 569.3 923.65 569.5
L 923.65 575.65
Q 923.65 577.25 924.25 577.9 924.9 578.5 926.7 578.5
L 947.85 578.5
Q 948.05 578.5 948.25 578.4 948.4 578.3 948.4 578.05
L 948.4 575.2
Q 948.4 575 948.25 574.85 948.05 574.7 947.85 574.7
L 929 574.7
Q 928.6 574.7 928.4 574.55 928.25 574.45 928.25 574.05
L 928.25 569.5
Q 928.25 569.3 928.1 569.1
M 917.9 547.35
Q 917.7 547.35 917.45 547.55 917.25 547.75 917.25 547.95
L 917.25 550.3
Q 917.25 550.6 917.45 550.8 917.65 551 917.85 551
L 939.05 551
Q 939.3 551 939.5 550.85 939.65 550.65 939.65 550.35
L 939.65 547.95
Q 939.65 547.7 939.5 547.55 939.3 547.35 939.05 547.35
L 917.9 547.35
M 925.4 552.95
Q 923.85 553.5 922.65 554.5 921.45 555.45 920.8 556.75 920.1 558.05 920.1 559.5 920.1 561.05 920.8 562.35 921.45 563.65 922.65 564.6 923.85 565.55 925.4 566.1 926.95 566.7 928.75 566.7 930.6 566.7 932.2 566.1 933.8 565.55 934.95 564.6 936.15 563.65 936.85 562.35 937.5 561.05 937.5 559.5 937.5 558.05 936.85 556.75 936.15 555.45 934.95 554.5 933.8 553.5 932.2 552.95 930.6 552.4 928.8 552.4 927 552.4 925.4 552.95
M 928.8 563.2
Q 926.9 563.2 925.65 562.1 924.45 561.05 924.45 559.5 924.45 558.05 925.65 557 926.9 555.95 928.8 555.95 930.7 555.95 931.95 557 933.15 558.05 933.15 559.5 933.15 561.05 931.95 562.1 930.7 563.2 928.8 563.2
M 934.5 542.7
Q 934.5 542.45 934.3 542.25 934.1 542.05 933.85 542.05
L 923.4 542.05
Q 923.25 542.05 923 542.2 922.8 542.35 922.8 542.7
L 922.8 545.05
Q 922.8 545.3 923 545.5 923.25 545.65 923.4 545.65
L 933.85 545.65
Q 934.15 545.65 934.35 545.45 934.5 545.25 934.5 545
L 934.5 542.7
M 946.9 541.7
Q 946.9 541.15 946.35 541.15
L 942.8 541.15
Q 942.25 541.15 942.25 541.7
L 942.25 569.95
Q 942.25 570.45 942.8 570.45
L 946.35 570.45
Q 946.9 570.45 946.9 569.95
L 946.9 558.4 952.25 558.4
Q 952.5 558.4 952.7 558.25 952.85 558.1 952.85 557.9
L 952.85 555.1
Q 952.85 554.9 952.7 554.7 952.5 554.55 952.25 554.55
L 946.9 554.55 946.9 541.7
M 884.85 569.7
Q 884 570.95 884 572.45 884 573.95 884.85 575.2 885.7 576.45 887.35 577.35 888.95 578.3 891.35 578.8 893.7 579.3 896.7 579.3 899.7 579.3 902.1 578.8 904.45 578.3 906.1 577.35 907.7 576.45 908.6 575.2 909.45 573.95 909.45 572.45 909.45 570.95 908.6 569.7 907.7 568.45 906.1 567.55 904.45 566.65 902.1 566.15 899.7 565.65 896.7 565.65 893.7 565.65 891.35 566.15 888.95 566.65 887.35 567.55 885.7 568.45 884.85 569.7
M 890.65 574.8
Q 889.65 574.3 889.1 573.7 888.55 573.1 888.55 572.5 888.55 571.85 889.1 571.25 889.65 570.65 890.65 570.15 891.65 569.7 893.2 569.4 894.7 569.15 896.7 569.15 898.65 569.15 900.2 569.4 901.75 569.7 902.75 570.15 903.8 570.65 904.35 571.25 904.85 571.85 904.85 572.5 904.85 573.1 904.35 573.7 903.8 574.3 902.75 574.8 901.75 575.3 900.2 575.55 898.65 575.85 896.7 575.85 894.7 575.85 893.2 575.55 891.65 575.3 890.65 574.8
M 885 545.95
Q 884.05 547.25 884.05 548.85 884.05 550.6 885.1 551.95 886.1 553.35 887.9 554.25
L 887.9 559.7 879.3 559.7
Q 879 559.7 878.85 559.85 878.7 560.05 878.7 560.3
L 878.7 562.8
Q 878.7 563 878.85 563.2 879 563.4 879.3 563.4
L 914.1 563.4
Q 914.3 563.4 914.5 563.2 914.7 563 914.7 562.8
L 914.7 560.3
Q 914.7 560.1 914.5 559.85 914.3 559.7 914.1 559.7
L 905.45 559.7 905.45 554.35
Q 907.4 553.4 908.45 552 909.45 550.65 909.45 548.85 909.45 547.25 908.55 545.95 907.6 544.6 905.9 543.65 904.25 542.7 901.9 542.2 899.6 541.75 896.8 541.75 894 541.75 891.65 542.2 889.3 542.7 887.65 543.65 885.95 544.6 885 545.95
M 889.45 550.3
Q 888.85 549.65 888.85 548.85 888.85 548.1 889.45 547.5 890.05 546.85 891.1 546.35 892.1 545.9 893.6 545.6 895.05 545.35 896.8 545.4 898.5 545.4 899.95 545.65 901.45 545.95 902.45 546.4 903.5 546.9 904.1 547.5 904.7 548.1 904.7 548.85 904.7 549.65 904.1 550.3 903.5 550.95 902.45 551.4 901.45 551.9 899.95 552.15 898.5 552.4 896.8 552.4 895.05 552.4 893.6 552.15 892.1 551.9 891.1 551.4 890.05 550.95 889.45 550.3
M 892.4 555.75
Q 893.5 555.9 894.55 555.95 895.6 556.05 896.8 556.05 897.9 556.05 898.95 555.95 899.95 555.9 900.95 555.75
L 900.95 559.7 892.4 559.7 892.4 555.75
M 871.7 541.7
Q 871.7 541.15 871.15 541.15
L 867.6 541.15
Q 867.05 541.15 867.05 541.7
L 867.05 578.6
Q 867.05 579.15 867.6 579.15
L 871.15 579.15
Q 871.7 579.15 871.7 578.6
L 871.7 559.6 877.1 559.6
Q 877.3 559.6 877.5 559.45 877.65 559.3 877.65 559.05
L 877.65 556.25
Q 877.65 556.05 877.5 555.9 877.3 555.75 877.1 555.75
L 871.7 555.75 871.7 541.7
M 855.45 543.85
Q 855.45 543.6 855.3 543.45 855.15 543.25 854.95 543.25
L 851.4 543.1
Q 851.2 543.1 851 543.3 850.85 543.5 850.85 543.7 850.9 545.5 850.8 547.05 850.7 548.65 850.5 550.1 850.3 551.55 850 553 849.65 554.4 849.15 555.85 848.05 559.15 846.2 562 844.35 564.9 841.75 567.25 841.05 567.9 841.65 568.5
L 843.5 570.25
Q 844.15 570.9 844.9 570.3 846 569.4 847.1 568.15 848.2 566.95 849.25 565.55 850.25 564.15 851.2 562.55 852.1 560.95 852.85 559.25 853.35 560.5 854.2 561.9 855.05 563.3 856 564.6 857 565.9 858.05 567 859.15 568.1 860.1 568.85 860.5 569.15 860.85 569.15 861.2 569.1 861.4 568.8
L 863.05 566.75
Q 863.65 566 863 565.5 861.7 564.5 860.4 563 859.1 561.55 858 559.8 856.85 558.05 856.05 556.2 855.2 554.3 854.8 552.45 855.15 550.5 855.3 548.4 855.45 546.3 855.45 543.85
M 818.5 542.35
Q 818.5 541.85 818 541.85
L 814.7 541.85
Q 814.15 541.85 814.15 542.35
L 814.15 554.65 810.6 554.65
Q 810.45 551.9 809.7 549.85 809 547.8 807.85 546.45 806.65 545.1 805.15 544.45 803.65 543.8 801.85 543.8 800.05 543.8 798.5 544.55 796.95 545.3 795.85 546.9 794.7 548.45 794.05 550.8 793.45 553.15 793.45 556.3 793.45 559.25 794.05 561.55 794.65 563.85 795.75 565.5 796.8 567.1 798.4 568 799.95 568.85 801.85 568.85 803.6 568.85 805.05 568.15 806.55 567.45 807.7 566.1 808.85 564.75 809.6 562.85 810.3 560.95 810.5 558.5
L 814.15 558.5 814.15 577.25
Q 814.15 577.85 814.7 577.85
L 818 577.85
Q 818.5 577.85 818.5 577.25
L 818.5 542.35
M 805.95 553.35
Q 806.2 554.85 806.2 556.35 806.2 557.85 805.95 559.35 805.65 560.9 805.15 562.1 804.65 563.35 803.85 564.15 803.05 564.95 801.9 564.95 800.85 564.95 800.1 564.15 799.35 563.35 798.85 562.1 798.4 560.85 798.15 559.3 797.9 557.8 797.9 556.35 797.9 554.9 798.15 553.35 798.4 551.85 798.85 550.6 799.35 549.35 800.1 548.6 800.85 547.8 801.9 547.8 803.05 547.8 803.85 548.55 804.7 549.3 805.2 550.55 805.7 551.8 805.95 553.35
M 826.25 541.7
Q 826.25 541.15 825.7 541.15
L 822.25 541.15
Q 821.7 541.15 821.7 541.7
L 821.7 578.65
Q 821.7 579.15 822.25 579.15
L 825.7 579.15
Q 826.25 579.15 826.25 578.65
L 826.25 541.7
M 754.85 568.7
Q 754.7 568.85 754.7 569.15
L 754.7 571.75
Q 754.7 571.95 754.85 572.15 755 572.35 755.3 572.35
L 790.1 572.35
Q 790.3 572.35 790.5 572.15 790.7 571.95 790.7 571.75
L 790.7 569.15
Q 790.7 568.9 790.5 568.7 790.3 568.5 790.1 568.5
L 755.3 568.5
Q 755 568.5 754.85 568.7
M 785.35 544.35
Q 785.35 543.85 784.8 543.85
L 762.85 543.85
Q 761.3 543.85 760.65 544.4 759.95 544.95 759.95 546.45
L 759.95 558.05
Q 759.95 559.45 760.65 560.25 761.4 561.05 763 561.05
L 785.15 561.05
Q 785.35 561.05 785.5 560.9 785.65 560.75 785.65 560.45
L 785.65 557.7
Q 785.65 557.4 785.45 557.3 785.3 557.25 785 557.25
L 765.3 557.25
Q 764.85 557.25 764.7 557.05 764.55 556.9 764.55 556.5
L 764.55 548.35
Q 764.55 547.7 765.3 547.7
L 784.8 547.7
Q 785.35 547.7 785.35 547.15
L 785.35 544.35
M 749.6 541.7
Q 749.6 541.15 749.05 541.15
L 745.5 541.15
Q 745 541.15 745 541.7
L 745 554.85 738.5 554.85
Q 738.25 554.85 738.1 555 737.95 555.15 737.95 555.35
L 737.95 558.2
Q 737.95 558.4 738.1 558.55 738.25 558.7 738.5 558.7
L 745 558.7 745 578.6
Q 745 579.15 745.5 579.15
L 749.05 579.15
Q 749.6 579.15 749.6 578.6
L 749.6 541.7
M 720.8 544.1
Q 720.65 544.1 720.45 544.25 720.3 544.35 720.3 544.55
L 720.3 547.3
Q 720.3 547.55 720.45 547.7 720.65 547.85 720.8 547.85
L 730.9 547.85
Q 731.3 547.85 731.4 547.95 731.45 548.05 731.45 548.4
L 731.45 554.15
Q 731.45 554.5 731.35 554.6 731.25 554.7 730.9 554.7
L 722.9 554.7
Q 721.5 554.7 720.8 555.35 720.1 556 720.1 557.45
L 720.1 567.1
Q 720.1 568.65 720.75 569.3 721.45 569.95 723.2 570 724.75 570.05 726.9 570 729 569.95 731.2 569.8 733.45 569.65 735.55 569.4 737.7 569.15 739.3 568.8 739.65 568.7 739.85 568.5 740 568.3 740 568.05
L 739.6 565.75
Q 739.5 565.4 739.35 565.2 739.15 565.05 738.85 565.1 735.1 565.65 731.8 565.9 728.5 566.15 725.45 566.1 724.7 566.1 724.7 565.45
L 724.7 559
Q 724.7 558.45 725.3 558.45
L 733.25 558.45
Q 734.8 558.45 735.45 557.9 736.1 557.3 736.1 555.8
L 736.1 546.8
Q 736.1 545.35 735.55 544.7 735 544.1 733.3 544.1
L 720.8 544.1
M 688.25 563.65
Q 688.05 563.8 688.05 564
L 688.05 566.65
Q 688.05 566.85 688.25 567 688.45 567.1 688.65 567.1
L 708.45 567.1
Q 708.8 567.1 708.85 567.2 708.95 567.3 708.95 567.75
L 708.95 568.9
Q 708.95 569.3 708.85 569.4 708.8 569.5 708.5 569.5
L 690.8 569.5
Q 689.25 569.5 688.7 570.1 688.15 570.65 688.15 571.9
L 688.15 576.55
Q 688.15 577.85 688.7 578.45 689.3 579.05 690.85 579.05
L 713.9 579.05
Q 714.05 579.05 714.25 578.85 714.45 578.7 714.45 578.5
L 714.45 575.95
Q 714.45 575.65 714.25 575.5 714.05 575.35 713.85 575.35
L 693.2 575.35
Q 692.85 575.35 692.75 575.3 692.7 575.25 692.7 574.9
L 692.7 573.5
Q 692.7 573.1 692.75 573 692.85 572.9 693.15 572.9
L 710.7 572.9
Q 712.35 572.9 712.9 572.4 713.45 571.9 713.45 570.5
L 713.45 565.95
Q 713.45 564.55 712.9 564 712.35 563.5 710.7 563.5
L 688.65 563.5
Q 688.45 563.5 688.25 563.65
M 688.9 542.2
Q 688.7 542.2 688.55 542.4 688.35 542.55 688.35 542.9 688.35 545.25 688 547.25 687.65 549.3 686.75 551.1 685.85 552.9 684.3 554.6 682.8 556.3 680.45 557.9 679.7 558.5 680.3 559.2
L 681.75 560.9
Q 682.05 561.25 682.4 561.2 682.8 561.2 683.1 560.95 685.55 559.35 687.35 557.55 689.2 555.75 690.45 553.5 691.5 555.35 693.15 556.9 694.8 558.5 696.45 559.5 697.1 559.95 697.6 559.35
L 699.1 557.3
Q 699.3 557 699.35 556.8 699.35 556.55 699 556.35 696.75 554.9 694.9 552.8 693.1 550.75 692.25 548.45 692.5 547.15 692.65 545.85 692.8 544.5 692.8 543 692.8 542.35 692.25 542.35
L 688.9 542.2
M 701.5 541.8
Q 700.95 541.8 700.95 542.3
L 700.95 560.8
Q 700.95 561.35 701.5 561.35
L 704.8 561.35
Q 705.3 561.35 705.3 560.8
L 705.3 553.8 708.9 553.8 708.9 561.25
Q 708.9 561.75 709.45 561.75
L 712.9 561.75
Q 713.45 561.75 713.45 561.25
L 713.45 541.7
Q 713.45 541.15 712.9 541.15
L 709.45 541.15
Q 708.9 541.15 708.9 541.7
L 708.9 549.95 705.3 549.95 705.3 542.3
Q 705.3 541.8 704.8 541.8
L 701.5 541.8
M 460.65 541.4
Q 460.45 541.55 460.45 541.75
L 460.45 554.95
Q 460.45 556.55 461.1 557.15 461.75 557.75 463.5 557.75
L 482.65 557.75
Q 484.4 557.75 485.05 557.1 485.7 556.4 485.7 555.1
L 485.7 541.8
Q 485.7 541.6 485.5 541.45 485.35 541.3 485.15 541.3
L 481.6 541.3
Q 481.4 541.3 481.25 541.45 481.05 541.6 481.05 541.8
L 481.05 546.3 465.05 546.3 465.05 541.75
Q 465.05 541.55 464.9 541.4 464.7 541.3 464.5 541.3
L 461 541.3
Q 460.8 541.3 460.65 541.4
M 481.05 550.1
L 481.05 553.35
Q 481.05 553.7 480.95 553.8 480.8 553.9 480.4 553.9
L 465.7 553.9
Q 465.35 553.9 465.2 553.8 465.05 553.7 465.05 553.35
L 465.05 550.1 481.05 550.1
M 491.1 565.5
L 491.1 562.85
Q 491.1 562.65 490.9 562.45 490.7 562.25 490.5 562.25
L 455.7 562.25
Q 455.4 562.25 455.25 562.45 455.1 562.6 455.1 562.85
L 455.1 565.5
Q 455.1 565.65 455.25 565.9 455.4 566.1 455.7 566.1
L 470.8 566.1 470.8 578.3
Q 470.8 578.85 471.35 578.85
L 474.85 578.85
Q 475.4 578.85 475.4 578.3
L 475.4 566.1 490.5 566.1
Q 490.7 566.1 490.9 565.9 491.1 565.65 491.1 565.5
M 417.5 564.95
Q 417.5 565.15 417.65 565.4 417.8 565.6 418.1 565.6
L 433.25 565.6 433.25 578.3
Q 433.25 578.85 433.85 578.85
L 437.3 578.85
Q 437.85 578.85 437.85 578.3
L 437.85 565.6 452.9 565.6
Q 453.1 565.6 453.3 565.4 453.5 565.15 453.5 564.95
L 453.5 562.35
Q 453.5 562.15 453.3 561.95 453.1 561.75 452.9 561.75
L 418.1 561.75
Q 417.8 561.75 417.65 561.95 417.5 562.1 417.5 562.35
L 417.5 564.95
M 448.1 542.55
Q 448.1 542 447.5 542
L 425.7 542
Q 424.2 542 423.5 542.55 422.8 543.05 422.8 544.6
L 422.8 554.8
Q 422.8 556.2 423.45 556.95 424.1 557.7 425.7 557.7
L 447.85 557.7
Q 448.1 557.7 448.2 557.55 448.35 557.4 448.35 557.05
L 448.35 554.3
Q 448.35 554 448.2 553.9 448.05 553.85 447.7 553.85
L 428.15 553.85
Q 427.45 553.85 427.45 553.1
L 427.45 546.5
Q 427.45 545.85 428.15 545.85
L 447.5 545.85
Q 448.1 545.85 448.1 545.3
L 448.1 542.55
M 376.6 568.85
Q 376.45 568.85 376.25 569.1 376.05 569.3 376.05 569.5
L 376.05 575.65
Q 376.05 577.25 376.65 577.9 377.3 578.5 379.1 578.5
L 400.25 578.5
Q 400.45 578.5 400.65 578.4 400.8 578.3 400.8 578.05
L 400.8 575.2
Q 400.8 575 400.65 574.85 400.45 574.7 400.25 574.7
L 381.4 574.7
Q 381 574.7 380.8 574.55 380.65 574.45 380.65 574.05
L 380.65 569.5
Q 380.65 569.3 380.5 569.1 380.3 568.85 380.05 568.85
L 376.6 568.85
M 389.25 556.75
Q 388.55 555.45 387.35 554.5 386.2 553.5 384.6 552.95 383 552.4 381.2 552.4 379.4 552.4 377.8 552.95 376.25 553.5 375.05 554.5 373.85 555.45 373.2 556.75 372.5 558.05 372.5 559.5 372.5 561.05 373.2 562.35 373.85 563.65 375.05 564.6 376.25 565.55 377.8 566.1 379.35 566.7 381.15 566.7 383 566.7 384.6 566.1 386.2 565.55 387.35 564.6 388.55 563.65 389.25 562.35 389.9 561.05 389.9 559.5 389.9 558.05 389.25 556.75
M 376.85 559.5
Q 376.85 558.05 378.05 557 379.3 555.95 381.2 555.95 383.1 555.95 384.35 557 385.55 558.05 385.55 559.5 385.55 561.05 384.35 562.1 383.1 563.2 381.2 563.2 379.3 563.2 378.05 562.1 376.85 561.05 376.85 559.5
M 391.9 547.55
Q 391.7 547.35 391.45 547.35
L 370.3 547.35
Q 370.1 547.35 369.85 547.55 369.65 547.75 369.65 547.95
L 369.65 550.3
Q 369.65 550.6 369.85 550.8 370.05 551 370.25 551
L 391.45 551
Q 391.7 551 391.9 550.85 392.05 550.65 392.05 550.35
L 392.05 547.95
Q 392.05 547.7 391.9 547.55
M 386.9 542.7
Q 386.9 542.45 386.7 542.25 386.5 542.05 386.25 542.05
L 375.8 542.05
Q 375.65 542.05 375.4 542.2 375.2 542.35 375.2 542.7
L 375.2 545.05
Q 375.2 545.3 375.4 545.5 375.65 545.65 375.8 545.65
L 386.25 545.65
Q 386.55 545.65 386.75 545.45 386.9 545.25 386.9 545
L 386.9 542.7
M 399.3 541.7
Q 399.3 541.15 398.75 541.15
L 395.2 541.15
Q 394.65 541.15 394.65 541.7
L 394.65 569.95
Q 394.65 570.45 395.2 570.45
L 398.75 570.45
Q 399.3 570.45 399.3 569.95
L 399.3 558.4 404.65 558.4
Q 404.9 558.4 405.1 558.25 405.25 558.1 405.25 557.9
L 405.25 555.1
Q 405.25 554.9 405.1 554.7 404.9 554.55 404.65 554.55
L 399.3 554.55 399.3 541.7
M 358.5 567.55
Q 356.85 566.65 354.5 566.15 352.1 565.65 349.1 565.65 346.1 565.65 343.75 566.15 341.35 566.65 339.75 567.55 338.1 568.45 337.25 569.7 336.4 570.95 336.4 572.45 336.4 573.95 337.25 575.2 338.1 576.45 339.75 577.35 341.35 578.3 343.75 578.8 346.1 579.3 349.1 579.3 352.1 579.3 354.5 578.8 356.85 578.3 358.5 577.35 360.1 576.45 361 575.2 361.85 573.95 361.85 572.45 361.85 570.95 361 569.7 360.1 568.45 358.5 567.55
M 343.05 574.8
Q 342.05 574.3 341.5 573.7 340.95 573.1 340.95 572.5 340.95 571.85 341.5 571.25 342.05 570.65 343.05 570.15 344.05 569.7 345.6 569.4 347.1 569.15 349.1 569.15 351.05 569.15 352.6 569.4 354.15 569.7 355.15 570.15 356.2 570.65 356.75 571.25 357.25 571.85 357.25 572.5 357.25 573.1 356.75 573.7 356.2 574.3 355.15 574.8 354.15 575.3 352.6 575.55 351.05 575.85 349.1 575.85 347.1 575.85 345.6 575.55 344.05 575.3 343.05 574.8
M 358.3 543.65
Q 356.65 542.7 354.3 542.2 352 541.75 349.2 541.75 346.4 541.75 344.05 542.2 341.7 542.7 340.05 543.65 338.35 544.6 337.4 545.95 336.45 547.25 336.45 548.85 336.45 550.6 337.5 551.95 338.5 553.35 340.3 554.25
L 340.3 559.7 331.7 559.7
Q 331.4 559.7 331.25 559.85 331.1 560.05 331.1 560.3
L 331.1 562.8
Q 331.1 563 331.25 563.2 331.4 563.4 331.7 563.4
L 366.5 563.4
Q 366.7 563.4 366.9 563.2 367.1 563 367.1 562.8
L 367.1 560.3
Q 367.1 560.1 366.9 559.85 366.7 559.7 366.5 559.7
L 357.85 559.7 357.85 554.35
Q 359.8 553.4 360.85 552 361.85 550.65 361.85 548.85 361.85 547.25 360.95 545.95 360 544.6 358.3 543.65
M 356.5 550.3
Q 355.9 550.95 354.85 551.4 353.85 551.9 352.35 552.15 350.9 552.4 349.2 552.4 347.45 552.4 346 552.15 344.5 551.9 343.5 551.4 342.45 550.95 341.85 550.3 341.25 549.65 341.25 548.85 341.25 548.1 341.85 547.5 342.45 546.85 343.5 546.35 344.5 545.9 346 545.6 347.45 545.35 349.2 545.4 350.9 545.4 352.35 545.65 353.85 545.95 354.85 546.4 355.9 546.9 356.5 547.5 357.1 548.1 357.1 548.85 357.1 549.65 356.5 550.3
M 349.2 556.05
Q 350.3 556.05 351.35 555.95 352.35 555.9 353.35 555.75
L 353.35 559.7 344.8 559.7 344.8 555.75
Q 345.9 555.9 346.95 555.95 348 556.05 349.2 556.05
M 323.55 541.15
L 320 541.15
Q 319.45 541.15 319.45 541.7
L 319.45 578.6
Q 319.45 579.15 320 579.15
L 323.55 579.15
Q 324.1 579.15 324.1 578.6
L 324.1 559.6 329.5 559.6
Q 329.7 559.6 329.9 559.45 330.05 559.3 330.05 559.05
L 330.05 556.25
Q 330.05 556.05 329.9 555.9 329.7 555.75 329.5 555.75
L 324.1 555.75 324.1 541.7
Q 324.1 541.15 323.55 541.15
M 307.85 543.85
Q 307.85 543.6 307.7 543.45 307.55 543.25 307.35 543.25
L 303.8 543.1
Q 303.6 543.1 303.4 543.3 303.25 543.5 303.25 543.7 303.3 545.5 303.2 547.05 303.1 548.65 302.9 550.1 302.7 551.55 302.4 553 302.05 554.4 301.55 555.85 300.45 559.15 298.6 562 296.75 564.9 294.15 567.25 293.45 567.9 294.05 568.5
L 295.9 570.25
Q 296.55 570.9 297.3 570.3 298.4 569.4 299.5 568.15 300.6 566.95 301.65 565.55 302.65 564.15 303.6 562.55 304.5 560.95 305.25 559.25 305.75 560.5 306.6 561.9 307.45 563.3 308.4 564.6 309.4 565.9 310.45 567 311.55 568.1 312.5 568.85 312.9 569.15 313.25 569.15 313.6 569.1 313.8 568.8
L 315.45 566.75
Q 316.05 566 315.4 565.5 314.1 564.5 312.8 563 311.5 561.55 310.4 559.8 309.25 558.05 308.45 556.2 307.6 554.3 307.2 552.45 307.55 550.5 307.7 548.4 307.85 546.3 307.85 543.85
M 270.9 542.35
Q 270.9 541.85 270.4 541.85
L 267.1 541.85
Q 266.55 541.85 266.55 542.35
L 266.55 554.65 263 554.65
Q 262.85 551.9 262.1 549.85 261.4 547.8 260.25 546.45 259.05 545.1 257.55 544.45 256.05 543.8 254.25 543.8 252.45 543.8 250.9 544.55 249.35 545.3 248.25 546.9 247.1 548.45 246.45 550.8 245.85 553.15 245.85 556.3 245.85 559.25 246.45 561.55 247.05 563.85 248.15 565.5 249.2 567.1 250.8 568 252.35 568.85 254.25 568.85 256 568.85 257.45 568.15 258.95 567.45 260.1 566.1 261.25 564.75 262 562.85 262.7 560.95 262.9 558.5
L 266.55 558.5 266.55 577.25
Q 266.55 577.85 267.1 577.85
L 270.4 577.85
Q 270.9 577.85 270.9 577.25
L 270.9 542.35
M 254.3 547.8
Q 255.45 547.8 256.25 548.55 257.1 549.3 257.6 550.55 258.1 551.8 258.35 553.35 258.6 554.85 258.6 556.35 258.6 557.85 258.35 559.35 258.05 560.9 257.55 562.1 257.05 563.35 256.25 564.15 255.45 564.95 254.3 564.95 253.25 564.95 252.5 564.15 251.75 563.35 251.25 562.1 250.8 560.85 250.55 559.3 250.3 557.8 250.3 556.35 250.3 554.9 250.55 553.35 250.8 551.85 251.25 550.6 251.75 549.35 252.5 548.6 253.25 547.8 254.3 547.8
M 278.65 541.7
Q 278.65 541.15 278.1 541.15
L 274.65 541.15
Q 274.1 541.15 274.1 541.7
L 274.1 578.65
Q 274.1 579.15 274.65 579.15
L 278.1 579.15
Q 278.65 579.15 278.65 578.65
L 278.65 541.7
M 238.3 566.75
Q 237.7 566.1 235.9 566.1
L 218.5 566.1
Q 216.95 566.1 216.3 566.8 215.65 567.5 215.65 569
L 215.65 575.6
Q 215.65 577.15 216.25 577.8 216.9 578.45 218.65 578.45
L 236.1 578.45
Q 237.65 578.45 238.3 577.8 238.95 577.15 238.95 575.65
L 238.95 569.05
Q 238.95 567.4 238.3 566.75
M 220.7 574.75
Q 220.4 574.75 220.3 574.7 220.2 574.6 220.2 574.25
L 220.2 570.3
Q 220.2 569.95 220.3 569.9 220.4 569.8 220.7 569.8
L 233.85 569.8
Q 234.2 569.8 234.3 569.9 234.4 570 234.4 570.3
L 234.4 574.25
Q 234.4 574.6 234.3 574.7 234.2 574.75 233.85 574.75
L 220.7 574.75
M 228 550.25
Q 228.2 549.65 228.2 549.25 228.2 548.15 227.35 547.7 226.45 547.25 224.85 547.25
L 211.45 547.25
Q 210.9 547.25 210.9 547.7
L 210.9 550.3
Q 210.9 550.95 211.45 550.95
L 221.7 550.95
Q 222.35 550.95 222.35 551.1 222.3 551.3 222.15 551.55 221.6 552.65 220.35 553.9 219.15 555.15 217.5 556.4 215.8 557.7 213.8 558.85 211.8 560.05 209.6 561 209.3 561.1 209.15 561.4 209 561.7 209.2 562
L 210.3 564.1
Q 210.45 564.45 210.85 564.5 211.25 564.5 211.45 564.45 214.35 563.3 216.9 561.7 219.5 560.1 221.6 558.35 222.4 559 223.35 559.7 224.3 560.4 225.3 561 226.25 561.65 227.2 562.15 228.1 562.7 228.85 562.95 229.7 563.35 230.05 562.6
L 231.25 560.65
Q 231.45 560.3 231.35 560.05 231.25 559.7 230.8 559.55 230.1 559.3 229.3 558.9 228.5 558.5 227.6 557.95 226.75 557.45 225.95 556.85 225.1 556.3 224.45 555.65 226.6 553.35 227.6 551.3 227.8 550.85 228 550.25
M 234.85 541.15
Q 234.35 541.15 234.35 541.7
L 234.35 563.55
Q 234.35 564.15 234.85 564.15
L 238.45 564.15
Q 238.95 564.15 238.95 563.6
L 238.95 541.7
Q 238.95 541.15 238.45 541.15
L 234.85 541.15
M 214.4 541.75
Q 214.2 541.9 214.2 542.2
L 214.2 544.5
Q 214.2 544.8 214.4 544.95 214.65 545.1 214.85 545.1
L 224.15 545.1
Q 224.45 545.1 224.6 544.95 224.8 544.7 224.8 544.45
L 224.8 542.25
Q 224.8 542 224.6 541.8 224.4 541.6 224.15 541.6
L 214.85 541.6
Q 214.65 541.6 214.4 541.75
M 170.1 562.25
Q 169.8 562.25 169.65 562.45 169.5 562.6 169.5 562.85
L 169.5 565.5
Q 169.5 565.65 169.65 565.9 169.8 566.1 170.1 566.1
L 185.2 566.1 185.2 578.3
Q 185.2 578.85 185.75 578.85
L 189.25 578.85
Q 189.8 578.85 189.8 578.3
L 189.8 566.1 204.9 566.1
Q 205.1 566.1 205.3 565.9 205.5 565.65 205.5 565.5
L 205.5 562.85
Q 205.5 562.65 205.3 562.45 205.1 562.25 204.9 562.25
L 170.1 562.25
M 175.05 541.4
Q 174.85 541.55 174.85 541.75
L 174.85 554.95
Q 174.85 556.55 175.5 557.15 176.15 557.75 177.9 557.75
L 197.05 557.75
Q 198.8 557.75 199.45 557.1 200.1 556.4 200.1 555.1
L 200.1 541.8
Q 200.1 541.6 199.9 541.45 199.75 541.3 199.55 541.3
L 196 541.3
Q 195.8 541.3 195.65 541.45 195.45 541.6 195.45 541.8
L 195.45 546.3 179.45 546.3 179.45 541.75
Q 179.45 541.55 179.3 541.4 179.1 541.3 178.9 541.3
L 175.4 541.3
Q 175.2 541.3 175.05 541.4
M 195.35 553.8
Q 195.2 553.9 194.8 553.9
L 180.1 553.9
Q 179.75 553.9 179.6 553.8 179.45 553.7 179.45 553.35
L 179.45 550.1 195.45 550.1 195.45 553.35
Q 195.45 553.7 195.35 553.8 Z"/>

<path fill="#FFFFFF" stroke="none" d="
M 519.9 572.5
Q 504.9 572.5 504.9 587.5
L 504.9 617.55
Q 504.9 632.55 519.9 632.55
L 549.9 632.55
Q 564.9 632.55 564.9 617.55
L 564.9 587.5
Q 564.9 572.5 549.9 572.5
L 519.9 572.5
M 549.9 492.5
L 519.9 492.5
Q 504.9 492.5 504.9 507.5
L 504.9 537.55
Q 504.9 552.55 519.9 552.55
L 549.9 552.55
Q 564.9 552.55 564.9 537.55
L 564.9 507.5
Q 564.9 492.5 549.9 492.5
M 1112.9 587.5
Q 1112.9 572.5 1097.9 572.5
L 1067.9 572.5
Q 1052.9 572.5 1052.9 587.5
L 1052.9 617.55
Q 1052.9 632.55 1067.9 632.55
L 1097.9 632.55
Q 1112.9 632.55 1112.9 617.55
L 1112.9 587.5
M 1097.9 492.5
L 1067.9 492.5
Q 1052.9 492.5 1052.9 507.5
L 1052.9 537.55
Q 1052.9 552.55 1067.9 552.55
L 1097.9 552.55
Q 1112.9 552.55 1112.9 537.55
L 1112.9 507.5
Q 1112.9 492.5 1097.9 492.5 Z"/>
</g>

<path id="Layer0_0_1_STROKES" stroke="#DBDBDB" stroke-width="3" stroke-linejoin="round" stroke-linecap="round" fill="none" d="
M 1067.9 492.5
L 1097.9 492.5
Q 1112.9 492.5 1112.9 507.5
L 1112.9 537.55
Q 1112.9 552.55 1097.9 552.55
L 1067.9 552.55
Q 1052.9 552.55 1052.9 537.55
L 1052.9 507.5
Q 1052.9 492.5 1067.9 492.5 Z
M 1067.9 572.5
L 1097.9 572.5
Q 1112.9 572.5 1112.9 587.5
L 1112.9 617.55
Q 1112.9 632.55 1097.9 632.55
L 1067.9 632.55
Q 1052.9 632.55 1052.9 617.55
L 1052.9 587.5
Q 1052.9 572.5 1067.9 572.5 Z
M 519.9 492.5
L 549.9 492.5
Q 564.9 492.5 564.9 507.5
L 564.9 537.55
Q 564.9 552.55 549.9 552.55
L 519.9 552.55
Q 504.9 552.55 504.9 537.55
L 504.9 507.5
Q 504.9 492.5 519.9 492.5 Z
M 519.9 572.5
L 549.9 572.5
Q 564.9 572.5 564.9 587.5
L 564.9 617.55
Q 564.9 632.55 549.9 632.55
L 519.9 632.55
Q 504.9 632.55 504.9 617.55
L 504.9 587.5
Q 504.9 572.5 519.9 572.5 Z"/>

<path id="Layer0_0_2_STROKES" stroke="#1E1E1E" stroke-width="3" stroke-linejoin="miter" stroke-linecap="butt" stroke-miterlimit="3" fill="none" d="
M 1050.55 562
L 1113.3 562
M 502.55 562
L 565.3 562"/>
</defs>

<g transform="matrix( 1, 0, 0, 1, 0,0) ">
<use xlink:href="#Layer0_0_FILL"/>

<use xlink:href="#Layer0_0_1_STROKES"/>

<use xlink:href="#Layer0_0_2_STROKES"/>
</g>
</svg>
