<?xml version="1.0" encoding="utf-8"?>
<!-- Generator: Adobe Illustrator 23.0.0, SVG Export Plug-In . SVG Version: 6.00 Build 0)  -->
<svg version="1.1" xmlns="http://www.w3.org/2000/svg" xmlns:xlink="http://www.w3.org/1999/xlink" x="0px" y="0px" width="470px"
	 height="310px" viewBox="0 0 470 310" style="enable-background:new 0 0 470 310;" xml:space="preserve">
<g id="Layer_1" style="display:none;">
</g>
<g id="레이어_3">
	<g style="display:none;">
		<polygon style="display:inline;fill:none;stroke:#231815;stroke-width:4.1356;stroke-linejoin:round;" points="45.3,224.1 
			235,85.9 424.7,224.1 		"/>
		<path style="display:inline;fill:#231815;" d="M247.8,144.9v56.9h4.5v-28.5h8.9V169h-8.9v-24.1H247.8z M211.1,151.7v4h20.3
			c-0.4,3-1.1,5.9-2.1,8.8c-1.2,3.7-2.9,7.2-5.2,10.3c-2.2,3-4.7,5.7-7.7,8c-2.7,2.2-5.5,4-8.6,5.6l3.6,2.9c3.1-1.7,6.1-3.8,8.8-6.2
			c3.1-2.6,5.8-5.7,8.2-9c2.7-3.7,4.8-7.9,6-12.4c1.2-4,2-8.1,2.3-12.3L211.1,151.7z"/>
	</g>
	<g style="display:none;">
		<path style="display:inline;fill:#231815;" d="M219.3,198.8h-8.7v-22.3H206v56.9h4.6V203h8.8L219.3,198.8z M201.9,213
			c-2,0.4-4.9,0.9-8.4,1.4s-6.7,0.7-9.6,0.8h-10.3V182h-4.3v37.5H184c3.5-0.1,6.9-0.4,10.3-0.9l8-1.3L201.9,213z"/>
		<polygon style="display:inline;fill:none;stroke:#231815;stroke-width:4.1356;stroke-linejoin:round;" points="345,264.9 
			125,264.9 125,45.1 		"/>
	</g>
	<g>
		<path style="fill:#231815;" d="M220,147.7h-8.7v-23.1h-4.7v56.9h4.7v-29.6h8.7V147.7z M202.7,162.6c-1.3,0.3-3.6,0.6-6.8,0.9
			c-3.2,0.3-6.2,0.6-9,0.7h-12v-28.6h22v-3.9h-26.4v36.5h5.2c3.2,0,6.6,0,9.9,0s7-0.3,10.3-0.7s5.5-0.6,6.9-0.9L202.7,162.6z"/>
		<polygon style="fill:none;stroke:#231815;stroke-width:4.1356;stroke-linejoin:bevel;" points="343.1,155.2 126.9,280 126.9,30 		
			"/>
	</g>
	<g style="display:none;">
		<path style="display:inline;fill:none;stroke:#231815;stroke-width:4.1356;stroke-linejoin:round;" d="M33.9,42.6h250.8
			l151.3,224.9L33.9,42.6z"/>
		<path style="display:inline;fill:#231815;" d="M255.3,68.4v56.9h4.6V95.9h8.7v-4.2h-8.7V68.4H255.3z M251.4,108.1
			c-1.6,0-4.2,0.6-7.7,0.9c-3.5,0.3-6.7,0.6-9.6,0.6H223v-14h20.7V74h-25.2v4h20.7v13.6h-20.7v22h5.2c3.2,0,6.5,0,10,0
			s6.5-0.3,10-0.6c3.6-0.3,6.3-0.6,8-0.9L251.4,108.1z"/>
	</g>
	<g style="display:none;">
		<path style="display:inline;fill:#231815;" d="M219.6,159h16.9V188h-16.9V159z M265.8,170.3H257v-22.6h-4.4v56.9h4.5v-30h8.8
			L265.8,170.3z M241,154.8h-25.8V192H241V154.8z"/>
		<path style="display:inline;fill:none;stroke:#231815;stroke-width:4.1356;stroke-linejoin:bevel;" d="M235.2,72.9l143.5,164.2
			H91.4L235.2,72.9z"/>
	</g>
	<g style="display:none;">
		<path style="display:inline;fill:#231815;" d="M253.4,206.8h17.2v16.9h-17.3L253.4,206.8z M299.6,205.6h-8.8v-22.5h-4.6v56.9h4.5
			v-30h8.8L299.6,205.6z M275.2,188.4h-4.6v14.2h-17.3v-14.1h-4.6v39.1h26.4L275.2,188.4z"/>
		<path style="display:inline;fill:none;stroke:#231815;stroke-width:4.1356;stroke-linejoin:round;" d="M130.3,273.2h209.4V36.8
			L130.3,273.2z"/>
	</g>
</g>
<g id="레이어_2" style="display:none;">
	<g style="display:inline;">
		<polygon style="fill:none;stroke:#231815;stroke-width:3.3077;stroke-linejoin:round;" points="18.4,235.2 234.7,75.2 
			450.9,235.2 		"/>
		<path style="fill:#231815;" d="M245.5,148.7v45.5h3.6v-22.7h7.1v-3.3h-7.1v-19.4H245.5z M216.1,154.1v3.3h16.2
			c-0.3,2.4-0.9,4.9-1.7,7.2c-0.9,3-2.3,5.7-4.1,8.3c-1.7,2.4-3.7,4.6-6.1,6.4c-2.1,1.7-4.4,3.2-6.9,4.5l2.8,2.3
			c2.5-1.4,4.9-3,7.1-4.9c2.4-2.1,4.6-4.6,6.4-7.3c2.2-3,3.8-6.4,4.8-10c0.9-3.2,1.5-6.5,1.8-9.8L216.1,154.1z"/>
	</g>
	<g style="display:inline;">
		<path style="fill:#231815;" d="M254.9,191.5h-7v-17.8h-3.6v45.5h3.7v-24.4h7L254.9,191.5z M241,202.7c-1.6,0.4-3.9,0.7-6.7,1.1
			c-2.5,0.4-5.1,0.6-7.6,0.7h-8.3V178h-3.7v30h11.8c2.7-0.1,5.4-0.3,8-0.7l6.4-1L241,202.7z"/>
		<polygon style="fill:none;stroke:#231815;stroke-width:3.3077;stroke-linejoin:bevel;" points="234.8,49.6 356.8,260.9 
			112.5,260.9 		"/>
	</g>
	<g style="display:inline;">
		<path style="fill:#231815;" d="M213.7,153.1h-6.9v-18.5h-3.7V180h3.7v-23.6h6.9V153.1z M200,164.8c-1.1,0-2.9,0.5-5.5,0.7
			c-2.6,0.2-5,0.5-7.2,0.5h-9.6v-22.7h17.4v-3.2H174v29.2h4.1c2.6,0,5.3,0,7.9,0s5.6-0.2,8.3-0.5l5.5-0.7L200,164.8z"/>
		<path style="fill:none;stroke:#231815;stroke-width:3.3077;stroke-linejoin:bevel;" d="M360.5,155.4L108.8,300.7V9.8L360.5,155.4z
			"/>
	</g>
	<g style="display:inline;">
		<path style="fill:none;stroke:#231815;stroke-width:3.3077;stroke-linejoin:round;" d="M72.4,64.6h253.8L397,245.8L72.4,64.6z"/>
		<path style="fill:#231815;" d="M293.3,100.6V146h3.7v-23.4h7v-3.3h-7v-18.8H293.3z M290.2,132.3c-1.3,0-3.3,0.5-6.2,0.7
			c-2.9,0.2-5.4,0.5-7.6,0.5h-8.9v-11.2H284v-17.1h-20.2v3.2h16.5v10.8h-16.5v17.6h4.1h8c2.5,0,5.2-0.3,8-0.5c2.8-0.2,5-0.5,6.4-0.7
			L290.2,132.3z"/>
	</g>
	<g style="display:inline;">
		<path style="fill:#231815;" d="M166.3,195h13.5v23.2h-13.5V195z M203.3,204.1h-7v-18.2h-3.6v45.5h3.6v-24h7V204.1z M183.5,191.6
			h-20.7v29.6h20.7V191.6z"/>
		<polygon style="fill:none;stroke:#231815;stroke-width:3.3077;stroke-linejoin:round;" points="356.4,277 112.9,277 112.9,33.4 		
			"/>
	</g>
	<g style="display:inline;">
		<path style="fill:#231815;" d="M257.2,206.5h13.9V220h-13.9V206.5z M294.1,205.7h-7v-18.2h-3.7V233h3.7v-24h7V205.7z M274.7,191.9
			h-3.6v11.3h-13.9v-11.3h-3.6v31.3h21.1V191.9z"/>
		<path style="fill:none;stroke:#231815;stroke-width:3.3077;stroke-linejoin:round;" d="M128.8,274.8h211.8V35.6L128.8,274.8z"/>
	</g>
</g>
</svg>
