
<svg xmlns="http://www.w3.org/2000/svg" version="1.1" xmlns:xlink="http://www.w3.org/1999/xlink" preserveAspectRatio="none" x="0px" y="0px" width="1035px" height="566px" viewBox="0 0 1035 566">
<defs>
<g id="Layer0_0_FILL">
<path fill="#1E1E1E" stroke="none" d="
M 621.95 501.1
Q 622.15 501.1 622.3 500.95 622.45 500.85 622.45 500.6
L 622.45 497.45
Q 622.45 497.25 622.3 497.1 622.15 497 621.95 497
L 600.85 497
Q 600.65 497 600.5 497.1 600.35 497.25 600.35 497.45
L 600.35 500.6
Q 600.35 500.85 600.5 500.95 600.65 501.1 600.85 501.1
L 621.95 501.1
M 600.85 488.65
Q 600.65 488.65 600.5 488.8 600.35 488.95 600.35 489.15
L 600.35 492.3
Q 600.35 492.5 600.5 492.65 600.65 492.8 600.85 492.8
L 621.95 492.8
Q 622.15 492.8 622.3 492.65 622.45 492.5 622.45 492.3
L 622.45 489.15
Q 622.45 488.95 622.3 488.8 622.15 488.65 621.95 488.65
L 600.85 488.65
M 1011.95 191.05
Q 1011.4 191.9 1010.9 192.75 1010.35 193.7 1009.8 194.6 1009.25 195.55 1008.65 196.45 1007.5 198.25 1006.45 199.95 1005.85 200.85 1005.3 201.7 1004.7 202.6 1004.1 203.5
L 1004 203.9 1003.95 203.9 1003.9 203.95
Q 1003.85 204.15 1003.75 204.3 1003.7 204.45 1003.65 204.6 1003.6 204.85 1003.65 205 1003.65 205.2 1003.7 205.4 1003.75 205.6 1003.8 205.75 1003.85 205.95 1003.95 206.1 1004 206.3 1004.1 206.4 1004.25 206.55 1004.4 206.6 1004.55 206.7 1004.7 206.75 1004.85 206.8 1005.05 206.85 1005.2 206.9 1005.35 206.9 1005.5 206.9 1005.7 206.9
L 1013.25 206.9 1013.25 208.3
Q 1013.25 208.8 1013.4 209.15 1013.5 209.5 1013.75 209.65 1014.2 210 1015.1 210 1015.7 210 1016.3 209.65 1016.8 209.35 1016.8 208.3
L 1016.8 206.9 1017.8 206.9
Q 1018.3 206.9 1018.6 206.75 1018.95 206.65 1019.1 206.35 1019.2 206.1 1019.3 205.8 1019.35 205.5 1019.35 205.1 1019.35 204.75 1019.3 204.45 1019.2 204.15 1019.1 203.9 1018.95 203.6 1018.6 203.5 1018.3 203.35 1017.8 203.35
L 1016.8 203.35 1016.7 190.1
Q 1016.7 189.85 1016.65 189.65 1016.65 189.45 1016.55 189.25 1016.4 189.05 1016.25 188.85 1016.05 188.65 1015.8 188.5 1015.45 188.25 1015.1 188.2 1014.75 188.15 1014.4 188.2 1014 188.35 1013.7 188.55 1013.4 188.75 1013.15 189.05
L 1012.95 189.4
Q 1012.45 190.2 1011.95 191.05
M 1011.5 197.95
Q 1011.85 197.45 1012.15 196.9 1012.8 195.95 1013.15 195.2
L 1013.15 203.4 1008 203.4
Q 1008.3 202.95 1008.65 202.45 1009 201.9 1009.4 201.35 1009.75 200.75 1010.05 200.2 1010.4 199.65 1010.7 199.05 1011.1 198.5 1011.5 197.95
M 759.2 188.2
Q 758.65 188.45 758.2 188.75 757.7 189.05 757.35 189.4 756.9 189.75 756.5 190.2 756.15 190.6 755.85 191.1 755.55 191.6 755.4 192.2 755.2 192.75 755.2 193.35 755.2 193.8 755.3 194.1 755.4 194.4 755.7 194.55 755.9 194.7 756.25 194.8 756.65 194.9 757.1 194.9 757.35 194.9 757.55 194.8 757.7 194.75 757.85 194.55 757.95 194.45 758.1 194.3 758.25 194.1 758.4 193.9 758.5 193.7 758.55 193.45 758.7 193.25 758.75 192.95 758.85 192.7 758.95 192.5 759.05 192.25 759.15 192.05 759.4 191.8 759.65 191.65 759.85 191.45 760.15 191.3 760.65 191.05 761.6 191.05 762.5 191.05 763.1 191.3 763.4 191.45 763.6 191.65 763.8 191.8 763.95 192.05 764.15 192.25 764.25 192.5 764.4 192.75 764.5 193 764.6 193.25 764.65 193.5 764.7 193.8 764.7 194 764.65 194.5 764.55 194.85 764.45 195.25 764.25 195.5 764 195.8 763.75 196.05 763.45 196.3 763.1 196.45 762.85 196.65 762.5 196.75 762.2 196.85 761.8 196.9 761.4 197 761 197 760.6 197.05 760.2 197.05 760.1 197.85 760.1 198.65 760.05 199.05 760.05 199.45 760.05 199.85 760.05 200.2 760.1 200.3 760.3 200.35 760.45 200.4 760.75 200.4 761 200.4 761.25 200.4 761.5 200.45 761.75 200.45 762.1 200.5 762.4 200.55 762.75 200.6 763.05 200.65 763.35 200.75 763.6 200.85 763.85 201 764.05 201.15 764.35 201.35 764.6 201.6 764.8 201.8 765 202.1 765.1 202.45 765.15 202.8 765.25 203.2 765.25 203.7 765.2 204.35 764.95 204.95 764.7 205.55 764.2 206 763.65 206.45 763.05 206.7 762.35 206.95 761.6 206.95 761.05 206.95 760.6 206.85 760.2 206.8 759.95 206.65 759.6 206.5 759.35 206.3 759.1 206.15 758.95 205.85 758.6 205.4 758.3 204.7 758.15 204.35 758 204 757.85 203.65 757.7 203.25 757.6 203.1 757.4 203 757.25 202.9 757.1 202.85 756.85 202.8 756.65 202.75 756.5 202.7 756.35 202.7 755.85 202.7 755.5 202.85 755.2 202.95 755 203.2 754.8 203.45 754.75 203.75 754.65 204.05 754.65 204.4
L 754.65 204.6
Q 754.75 205.3 754.95 205.9 755.15 206.45 755.5 206.95 755.8 207.5 756.2 207.95 756.6 208.4 757.1 208.75 757.5 209.15 758 209.45 758.5 209.7 759.1 209.9 759.7 210.1 760.35 210.2 760.95 210.3 761.6 210.25 762.4 210.25 763.1 210.15 763.85 210 764.55 209.75 765.2 209.5 765.75 209.1 766.3 208.75 766.75 208.3 767.2 207.9 767.6 207.35 768 206.8 768.25 206.2 768.8 205 768.8 203.6 768.8 203.15 768.75 202.8 768.65 202.35 768.5 202 768.35 201.65 768.15 201.3 768 200.95 767.8 200.6 767.45 200 766.9 199.45 766.6 199.2 766.3 198.95 765.95 198.75 765.65 198.55 765.85 198.45 766.05 198.3 766.25 198.15 766.4 197.95 766.55 197.8 766.8 197.55 767 197.35 767.25 197.05 767.65 196.45 767.85 195.65 768.05 194.85 768.05 193.85 768.05 193.25 767.95 192.7 767.85 192.15 767.65 191.6 767.4 191.05 767.1 190.55 766.8 190.1 766.4 189.65 765.4 188.85 764.2 188.3 763.6 188.1 762.95 187.95 762.25 187.85 761.55 187.85 760.9 187.85 760.35 187.95 759.75 188.05 759.2 188.2
M 505.75 191.9
Q 505.5 192.45 505.4 193 505.3 193.5 505.3 194.05 505.3 194.35 505.4 194.6 505.5 194.85 505.75 195.05 506 195.25 506.25 195.3 506.5 195.4 506.75 195.4 507.15 195.4 507.5 195.3 507.9 195.15 508.2 194.85 508.45 194.55 508.6 194.25 508.75 193.9 508.75 193.5 508.75 193.35 508.85 193.15 508.9 192.95 509.05 192.7 509.1 192.5 509.25 192.3 509.4 192.15 509.6 191.95 509.85 191.8 510.1 191.65 510.4 191.5 510.7 191.35 510.95 191.3 511.2 191.2 511.5 191.15 511.8 191.15 512.2 191.15 512.55 191.25 512.95 191.3 513.25 191.45 513.55 191.6 513.8 191.8 514.05 191.95 514.25 192.2 514.45 192.4 514.6 192.65 514.75 192.95 514.9 193.2 515 193.5 515.1 193.75 515.15 194.05 515.15 194.3 515.15 194.55 515.1 194.85 515.05 195.1 514.9 195.35 514.8 195.65 514.65 195.9 514.45 196.15 514.35 196.4 514.2 196.7 514.05 196.95 513.85 197.2 513.65 197.35 513.4 197.6 513.2 197.75 513 197.9 512.85 198 512.45 198.3 512.05 198.6 511.65 198.9 511.3 199.2 510.9 199.5 510.5 199.8 510.1 200.1 509.7 200.4 509.2 200.8 508.75 201.2 508.25 201.6 507.85 201.95 507.45 202.35 507.15 202.7 506.85 203.1 506.65 203.45 506.3 203.85 506.1 204.25 505.9 204.65 505.75 205.05 505.6 205.5 505.5 206 505.4 206.5 505.35 207.05 505.35 207.1 505.35 207.15 505.35 207.25 505.3 207.35 505.25 207.45 505.25 207.55 505.25 207.65 505.25 207.7
L 505.25 207.8
Q 505.25 207.9 505.25 208 505.25 208.1 505.25 208.2 505.2 208.65 505.35 208.95 505.5 209.3 505.85 209.45 506.1 209.65 506.45 209.75 506.75 209.85 507.15 209.85
L 517.1 209.85
Q 518.9 209.85 518.9 208.25 518.9 207.8 518.8 207.5 518.65 207.2 518.4 207.05 518.2 206.9 517.8 206.85 517.4 206.75 516.9 206.75
L 509.2 206.75
Q 509.2 206.3 509.35 205.85 509.5 205.4 509.8 205 510.05 204.6 510.4 204.2 510.75 203.85 511.2 203.5 511.55 203.15 511.95 202.85 512.4 202.55 512.85 202.25 513.3 202 513.65 201.75 514.05 201.5 514.3 201.25 514.75 200.95 515.2 200.65 515.6 200.3 516 199.95 516.35 199.6 516.65 199.2 516.95 198.8 517.2 198.4 517.55 198 517.8 197.55 518 197.1 518.15 196.55 518.3 196.05 518.35 195.5 518.4 194.9 518.4 194.25 518.4 193.7 518.3 193.1 518.2 192.5 517.95 191.95 517.75 191.35 517.4 190.85 517.1 190.35 516.65 189.85 516.15 189.4 515.6 189.05 515.05 188.7 514.45 188.4 513.85 188.15 513.15 188 512.5 187.85 511.8 187.85
L 511.75 187.85
Q 511 187.85 510.35 188 509.75 188.15 509.15 188.4 508.55 188.7 508 189.1 507.45 189.45 507 189.9 506.2 190.8 505.75 191.9
M 262.95 188.05
Q 262.55 188.05 262.3 188.15 262.05 188.25 261.9 188.45 261.8 188.65 261.7 188.85 261.55 189.05 261.5 189.3 261.35 189.55 261.3 189.85 261.2 190.1 261.15 190.35 261.05 190.6 260.95 190.85 260.85 191.05 260.7 191.2 260.45 191.35 260.2 191.5 259.95 191.6 259.65 191.65 259.3 191.7 259 191.75 258.65 191.75 258.35 191.75 258 191.8 257.7 191.9 257.45 192.05 257.25 192.25 257 192.5 256.9 192.8 256.8 193.05 256.85 193.35 256.85 193.7 256.9 193.95 257 194.25 257.2 194.5 257.35 194.75 257.6 194.9 257.85 195.05 258.25 195.05
L 260.95 195.05
Q 260.95 196.7 260.95 198.35 260.95 200 260.95 201.65 260.95 204.95 260.95 208.3 260.95 208.6 261.1 208.85 261.25 209.1 261.55 209.3 261.8 209.55 262.15 209.65 262.45 209.75 262.8 209.75 262.95 209.75 263.05 209.75 263.2 209.7 263.35 209.65 263.45 209.6 263.6 209.55 263.7 209.45 263.85 209.35 264 209.25 264.15 209.1 264.3 209 264.4 208.85 264.45 208.75 264.5 208.6 264.55 208.45 264.55 208.3
L 264.55 207.05
Q 264.55 204.8 264.55 202.55 264.55 200.4 264.55 198.2 264.5 196.05 264.5 193.85 264.5 191.7 264.5 189.5 264.5 188.95 263.95 188.5 263.65 188.3 263.4 188.15 263.15 188.05 262.95 188.05
M 7.2 189.55
Q 6.6 190.15 6.1 190.8 5.65 191.6 5.35 192.5 5 193.35 4.75 194.4 4.5 195.45 4.4 196.6 4.3 197.7 4.3 199 4.3 200.2 4.4 201.35 4.5 202.45 4.7 203.45 4.9 204.5 5.25 205.4 5.6 206.3 6.1 207.05 6.6 207.8 7.2 208.35 7.8 208.95 8.45 209.35 9.1 209.8 9.9 210 10.75 210.2 11.7 210.2 12.6 210.2 13.4 210 14.15 209.8 14.85 209.35 15.6 208.95 16.15 208.35 16.75 207.8 17.25 207.05 17.75 206.3 18.15 205.4 18.5 204.5 18.75 203.45 19 202.45 19.1 201.35 19.2 200.2 19.2 199 19.2 197.75 19.1 196.65 19 195.55 18.75 194.5 18.5 193.45 18.1 192.55 17.7 191.7 17.2 190.95 16.7 190.2 16.1 189.6 15.5 189.05 14.85 188.6 14.15 188.2 13.35 187.95 12.6 187.75 11.7 187.75 10.8 187.75 10 187.95 9.15 188.15 8.5 188.6 7.8 189 7.2 189.55
M 8.4 194.55
Q 8.55 193.95 8.8 193.4 9.05 192.9 9.4 192.5 9.7 192.05 10.1 191.75 10.45 191.5 10.85 191.35 11.25 191.2 11.7 191.2 12.15 191.2 12.55 191.35 12.95 191.5 13.35 191.8 13.75 192.1 14.05 192.5 14.35 192.95 14.6 193.5 14.8 194 14.95 194.6 15.15 195.25 15.3 195.95 15.45 196.65 15.5 197.4 15.6 198.2 15.6 199 15.6 199.8 15.55 200.55 15.45 201.35 15.35 202 15 203.45 14.6 204.55 14.4 205.1 14.05 205.5 13.75 205.95 13.4 206.25 12.95 206.55 12.55 206.7 12.15 206.9 11.7 206.9 11.25 206.9 10.8 206.7 10.4 206.55 10 206.2 9.3 205.6 8.75 204.5 8.55 203.95 8.4 203.3 8.2 202.7 8.15 201.95 8 201.25 7.95 200.5 7.9 199.75 7.9 199 7.9 198.15 7.95 197.4 8 196.65 8.15 195.9 8.2 195.2 8.4 194.55
M 415.7 492.95
Q 415.55 493.1 415.55 493.3
L 415.55 496.4
Q 415.55 496.6 415.7 496.75 415.8 496.9 416 496.9
L 437.15 496.9
Q 437.65 496.9 437.65 496.4
L 437.65 493.3
Q 437.65 492.8 437.15 492.8
L 416 492.8
Q 415.8 492.8 415.7 492.95 Z"/>
</g>

<g id="Duplicate_Items_Folder_fnfmf343434_copy_0_Layer1_0_FILL">
<path fill="#FFFFFF" stroke="none" d="
M 30 -15
Q 30 -30 15 -30
L -15 -30
Q -30 -30 -30 -15
L -30 15.05
Q -30 30.05 -15 30.05
L 15 30.05
Q 30 30.05 30 15.05
L 30 -15 Z"/>
</g>

<g id="Duplicate_Items_Folder_fnfmf343434_copy_3_0_Layer1_0_FILL">
<path fill="#FFFFFF" stroke="none" d="
M 30 -15
Q 30 -30 15 -30
L -15 -30
Q -30 -30 -30 -15
L -30 15.05
Q -30 30.05 -15 30.05
L 15 30.05
Q 30 30.05 30 15.05
L 30 -15 Z"/>
</g>

<g id="Duplicate_Items_Folder_fnfmf343434_copy_73_0_Layer1_0_FILL">
<path fill="#FFFFFF" stroke="none" d="
M 30 -15
Q 30 -30 15 -30
L -15 -30
Q -30 -30 -30 -15
L -30 15.05
Q -30 30.05 -15 30.05
L 15 30.05
Q 30 30.05 30 15.05
L 30 -15 Z"/>
</g>

<g id="Layer0_32_STROKES_1_FILL">
<path fill="#0EA6E9" stroke="none" d="
M 144.25 430.7
Q 144.6548828125 430.80546875 145 430.55 146.25 429.725 147.55 428.85 147.8923828125 428.6505859375 147.95 428.25 148.05625 427.8466796875 147.8 427.5 147.60078125 427.156640625 147.2 427.05 146.79765625 426.9939453125 146.45 427.2 145.1498046875 428.075 143.9 428.9 143.55625 429.1515625 143.45 429.55 143.3943359375 429.9560546875 143.6 430.3 143.8515625 430.644921875 144.25 430.7
M 153.65 425.1
Q 154.0134765625 424.89375 154.1 424.5 154.219921875 424.103515625 154 423.75 153.794140625 423.3857421875 153.4 423.25 153.004296875 423.18046875 152.65 423.4 151.287109375 424.1998046875 149.95 425 149.6220703125 425.22109375 149.5 425.6 149.4306640625 426.0240234375 149.65 426.35 149.870703125 426.728515625 150.25 426.8 150.6734375 426.9189453125 151 426.7 152.3125 425.9 153.65 425.1
M 136.1 435.75
Q 135.8599609375 435.434375 135.45 435.4 135.02890625 435.3615234375 134.7 435.6 133.48671875 436.6373046875 132.35 437.65 132.0689453125 437.9345703125 132.05 438.35 132.0255859375 438.765234375 132.3 439.05 132.5837890625 439.38125 133 439.4 133.4150390625 439.4234375 133.7 439.15 134.81328125 438.1625 136 437.15 136.315234375 436.9091796875 136.35 436.5 136.3890625 436.0787109375 136.1 435.75
M 141.2 431.05
Q 140.801953125 431.0087890625 140.45 431.25 139.2123046875 432.1498046875 138 433.05 137.6640625 433.2958984375 137.6 433.7 137.54609375 434.11328125 137.8 434.45 138.0453125 434.7865234375 138.45 434.85 138.8626953125 434.9033203125 139.2 434.65 140.3876953125 433.7498046875 141.6 432.85 141.9599609375 432.60625 142 432.2 142.0921875 431.801953125 141.85 431.45 141.6072265625 431.1400390625 141.2 431.05
M 160.2 420.3
Q 160.0224609375 419.96328125 159.6 419.85 159.2328125 419.730078125 158.85 419.9 157.525 420.6748046875 156.2 421.35 155.86484375 421.5767578125 155.75 421.95 155.629296875 422.365234375 155.8 422.7 156.026171875 423.0853515625 156.4 423.2 156.81484375 423.3201171875 157.15 423.1 158.4748046875 422.4251953125 159.8 421.65 160.186328125 421.4716796875 160.3 421.05 160.4205078125 420.6826171875 160.2 420.3
M 178.8 410.55
Q 178.437890625 410.4158203125 178.05 410.55 176.6498046875 411.175 175.3 411.75 174.9240234375 411.954296875 174.75 412.35 174.616015625 412.7279296875 174.75 413.1 174.9541015625 413.4771484375 175.35 413.6 175.7267578125 413.783984375 176.1 413.6 177.45 413.025 178.85 412.4 179.2244140625 412.2595703125 179.35 411.85 179.5341796875 411.48671875 179.35 411.1 179.209765625 410.7244140625 178.8 410.55
M 168.95 416.65
Q 169.3564453125 416.7837890625 169.7 416.6 171.075 415.95 172.45 415.3 172.853125 415.1310546875 173 414.75 173.133984375 414.3568359375 172.95 413.95 172.78125 413.59609375 172.4 413.45 172.0078125 413.3162109375 171.6 413.5 170.2248046875 414.1498046875 168.85 414.8 168.495703125 414.9828125 168.35 415.35 168.2162109375 415.7578125 168.4 416.1 168.5828125 416.50546875 168.95 416.65
M 166.6 417.05
Q 166.415234375 416.6802734375 166 416.55 165.6275390625 416.416796875 165.25 416.6 163.8498046875 417.3 162.5 418 162.1298828125 418.19921875 162 418.6 161.8791015625 418.9876953125 162.05 419.35 162.2615234375 419.72109375 162.65 419.85 163.03671875 419.983203125 163.4 419.8 164.75 419.1 166.15 418.4 166.5193359375 418.2146484375 166.65 417.8 166.78359375 417.4271484375 166.6 417.05
M 191.75 405.1
Q 191.3650390625 404.966015625 190.95 405.1 189.575 405.675 188.15 406.2 187.79140625 406.3736328125 187.6 406.75 187.4658203125 407.1353515625 187.6 407.5 187.7734375 407.9087890625 188.15 408.05 188.5349609375 408.233984375 188.9 408.05 190.325 407.525 191.7 406.95 192.10859375 406.8263671875 192.25 406.45 192.4341796875 406.0646484375 192.25 405.65 192.1265625 405.2912109375 191.75 405.1
M 185.8 408.3
Q 185.659765625 407.9244140625 185.25 407.75 184.887890625 407.6158203125 184.5 407.75 183.1 408.375 181.7 408.95 181.3255859375 409.1404296875 181.15 409.5 181.0158203125 409.9134765625 181.15 410.3 181.340234375 410.6755859375 181.7 410.8 182.112109375 410.983984375 182.5 410.8 183.9 410.225 185.3 409.6 185.6744140625 409.4595703125 185.8 409.05 185.9841796875 408.68671875 185.8 408.3
M 194.7 403.6
Q 194.33984375 403.7876953125 194.15 404.15 194.0158203125 404.55 194.15 404.9 194.3375 405.3103515625 194.7 405.45 195.0998046875 405.633984375 195.45 405.45 196.825 404.9248046875 198.2 404.35 198.60859375 404.2263671875 198.75 403.85 198.9341796875 403.4646484375 198.75 403.05 198.6265625 402.6912109375 198.25 402.5 197.8650390625 402.366015625 197.45 402.5 196.075 403.075 194.7 403.6
M 204.8 401.75
Q 205.20859375 401.6263671875 205.35 401.25 205.5341796875 400.8646484375 205.35 400.45 205.2265625 400.0912109375 204.85 399.9 204.4650390625 399.766015625 204.05 399.9 202.675 400.475 201.25 401 200.89140625 401.1736328125 200.7 401.55 200.5658203125 401.9353515625 200.7 402.3 200.8734375 402.7087890625 201.25 402.85 201.6349609375 403.033984375 202 402.85 203.425 402.325 204.8 401.75
M 212.7 398.45
Q 212.83359375 398.0771484375 212.65 397.7 212.465234375 397.3302734375 212.05 397.2 211.6775390625 397.066796875 211.3 397.25 211.25 397.275 211.2 397.3 209.5498046875 397.9125 207.95 398.5 207.5671875 398.672265625 207.4 399.05 207.228515625 399.420703125 207.35 399.8 207.521875 400.1822265625 207.9 400.35 208.27109375 400.52109375 208.65 400.35 210.25 399.7875 211.9 399.2 211.9509765625 399.176953125 212 399.15 212.1 399.1 212.2 399.05 212.5693359375 398.8646484375 212.7 398.45
M 292.4 373.55
Q 290.9248046875 373.925 289.45 374.25 289.0697265625 374.372265625 288.85 374.7 288.63046875 375.0765625 288.7 375.45 288.821875 375.8798828125 289.15 376.1 289.526953125 376.319140625 289.9 376.2 291.375 375.8748046875 292.85 375.5 293.27890625 375.428515625 293.5 375.05 293.7193359375 374.725 293.6 374.3 293.52890625 373.9212890625 293.15 373.7 292.8248046875 373.4810546875 292.4 373.55
M 300.4 372.85
Q 300.34375 372.449609375 300 372.2 299.6541015625 371.994140625 299.25 372.05 297.8 372.375 296.35 372.65 295.9498046875 372.7564453125 295.7 373.1 295.4939453125 373.44609375 295.55 373.85 295.65625 374.250390625 296 374.45 296.3458984375 374.705859375 296.75 374.6 298.2 374.325 299.65 374 300.05 373.9435546875 300.25 373.6 300.5060546875 373.25390625 300.4 372.85
M 316.95 368.45
Q 316.5498046875 368.5564453125 316.3 368.9 316.0939453125 369.24609375 316.15 369.65 316.25625 370.050390625 316.6 370.25 316.9458984375 370.505859375 317.35 370.4 318.8 370.125 320.3 369.8 320.7001953125 369.74375 320.9 369.4 321.1560546875 369.0546875 321.05 368.65 320.994140625 368.2501953125 320.65 368 320.3041015625 367.7943359375 319.9 367.85 318.3998046875 368.1748046875 316.95 368.45
M 306.85 370.8
Q 306.5041015625 370.5943359375 306.1 370.65 304.5998046875 370.9748046875 303.15 371.25 302.7498046875 371.3564453125 302.5 371.7 302.2939453125 372.04609375 302.35 372.45 302.45625 372.850390625 302.8 373.05 303.1458984375 373.305859375 303.55 373.2 305 372.925 306.5 372.6 306.9001953125 372.54375 307.1 372.2 307.3560546875 371.8546875 307.25 371.45 307.194140625 371.0501953125 306.85 370.8
M 309.4 370.3
Q 309.1939453125 370.64609375 309.25 371.05 309.35625 371.450390625 309.7 371.65 310.0458984375 371.905859375 310.45 371.8 311.9 371.525 313.4 371.2 313.8001953125 371.14375 314 370.8 314.2560546875 370.4546875 314.15 370.05 314.094140625 369.6501953125 313.75 369.4 313.4041015625 369.1943359375 313 369.25 311.4998046875 369.5748046875 310.05 369.85 309.6498046875 369.9564453125 309.4 370.3
M 272.7 378.65
Q 272.373046875 378.430859375 271.95 378.5 270.4998046875 378.874609375 269 379.25 268.62890625 379.3876953125 268.4 379.75 268.2171875 380.1189453125 268.3 380.5 268.4375 380.9212890625 268.8 381.1 269.1685546875 381.332421875 269.55 381.2 271 380.8251953125 272.4 380.45 272.8302734375 380.377734375 273.05 380 273.26953125 379.6734375 273.15 379.25 273.078125 378.8701171875 272.7 378.65
M 282.05 376.3
Q 281.83046875 376.6765625 281.9 377.05 282.021875 377.4798828125 282.35 377.7 282.726953125 377.919140625 283.1 377.8 284.575 377.475 286 377.1 286.4302734375 377.027734375 286.65 376.65 286.86953125 376.3234375 286.75 375.9 286.678125 375.5201171875 286.3 375.3 285.973046875 375.080859375 285.55 375.15 284.125 375.525 282.65 375.85 282.2697265625 375.972265625 282.05 376.3
M 279.5 376.95
Q 279.173046875 376.730859375 278.75 376.8 277.325 377.175 275.85 377.5 275.4697265625 377.622265625 275.25 377.95 275.03046875 378.3265625 275.1 378.7 275.221875 379.1298828125 275.55 379.35 275.926953125 379.569140625 276.3 379.45 277.775 379.125 279.2 378.75 279.6302734375 378.677734375 279.85 378.3 280.06953125 377.9734375 279.95 377.55 279.878125 377.1701171875 279.5 376.95
M 252.85 384.75
Q 252.7625 384.3787109375 252.4 384.15 252.0314453125 383.9673828125 251.6 384.05 250.1625 384.4873046875 248.7 384.95 248.3130859375 385.065625 248.1 385.4 247.9291015625 385.7986328125 248.05 386.2 248.1654296875 386.5876953125 248.5 386.75 248.898046875 386.970703125 249.3 386.85 250.7375 386.4126953125 252.15 386 252.5708984375 385.9123046875 252.75 385.55 252.9828125 385.18125 252.85 384.75
M 262.2 381.05
Q 261.82890625 381.1876953125 261.6 381.55 261.4171875 381.9189453125 261.5 382.3 261.6375 382.7212890625 262 382.9 262.3685546875 383.132421875 262.75 383 264.225 382.625 265.65 382.2 266.0708984375 382.1123046875 266.25 381.75 266.4828125 381.38125 266.35 380.95 266.2625 380.5787109375 265.9 380.35 265.5314453125 380.1673828125 265.1 380.25 263.675 380.675 262.2 381.05
M 259.15 382.25
Q 258.7814453125 382.0673828125 258.35 382.15 256.925 382.575 255.45 382.95 255.07890625 383.0876953125 254.85 383.45 254.6671875 383.8189453125 254.75 384.2 254.8875 384.6212890625 255.25 384.8 255.6185546875 385.032421875 256 384.9 257.475 384.525 258.9 384.1 259.3208984375 384.0123046875 259.5 383.65 259.7328125 383.28125 259.6 382.85 259.5125 382.4787109375 259.15 382.25
M 238.85 388.25
Q 238.501953125 388.079296875 238.1 388.2 236.65 388.65 235.2 389.1 234.8130859375 389.215625 234.6 389.55 234.4291015625 389.9486328125 234.55 390.35 234.6654296875 390.7376953125 235 390.9 235.398046875 391.120703125 235.8 391 237.25 390.55 238.7 390.1 239.0869140625 389.984375 239.25 389.6 239.4708984375 389.2513671875 239.35 388.85 239.234375 388.4625 238.85 388.25
M 241.95 387
Q 241.5630859375 387.115625 241.35 387.45 241.1791015625 387.8486328125 241.3 388.25 241.4154296875 388.6376953125 241.75 388.8 242.148046875 389.020703125 242.55 388.9 244 388.45 245.45 388 245.8369140625 387.884375 246 387.5 246.2208984375 387.1513671875 246.1 386.75 245.984375 386.3625 245.6 386.15 245.251953125 385.979296875 244.85 386.1 243.4 386.55 241.95 387
M 232.15 390.35
Q 231.801953125 390.179296875 231.4 390.3 229.9498046875 390.75 228.55 391.2 228.148046875 391.3296875 227.95 391.7 227.76640625 392.0630859375 227.9 392.45 228.029296875 392.8515625 228.4 393.05 228.7634765625 393.233203125 229.15 393.1 230.55 392.65 232 392.2 232.3869140625 392.084375 232.55 391.7 232.7708984375 391.3513671875 232.65 390.95 232.534375 390.5625 232.15 390.35
M 221.85 393.5
Q 221.4822265625 393.6453125 221.3 394 221.116015625 394.39296875 221.25 394.75 221.3951171875 395.1677734375 221.75 395.35 222.14296875 395.53359375 222.5 395.4 223.925 394.9 225.35 394.4 225.7673828125 394.2552734375 225.95 393.85 226.1337890625 393.50859375 226 393.1 225.855859375 392.7333984375 225.45 392.55 225.1078125 392.3666015625 224.7 392.5 223.2748046875 393 221.85 393.5
M 218.8 394.85
Q 218.4578125 394.6666015625 218.05 394.8 216.6248046875 395.3 215.2 395.8 214.8322265625 395.9453125 214.65 396.3 214.466015625 396.69296875 214.6 397.05 214.7451171875 397.4677734375 215.1 397.65 215.49296875 397.83359375 215.85 397.7 217.275 397.2 218.7 396.7 219.1173828125 396.5552734375 219.3 396.15 219.4837890625 395.80859375 219.35 395.4 219.205859375 395.0333984375 218.8 394.85
M 633.4 351.3
Q 633.83671875 351.325 634.15 351.05 634.4671875 350.7818359375 634.5 350.35 634.525390625 349.962890625 634.25 349.65 633.9822265625 349.333203125 633.55 349.3 631.325 349.15 629.05 349 628.66328125 348.975 628.35 349.25 628.0328125 349.5181640625 628 349.9 627.974609375 350.337109375 628.25 350.65 628.5177734375 350.966796875 628.9 351 631.175 351.15 633.4 351.3
M 641.15 351.5
Q 641.4671875 351.2318359375 641.5 350.8 641.525390625 350.412890625 641.25 350.1 640.9822265625 349.783203125 640.55 349.75 639.075 349.65 637.55 349.55 637.16328125 349.525 636.85 349.8 636.5328125 350.0681640625 636.5 350.45 636.474609375 350.887109375 636.75 351.2 637.0177734375 351.516796875 637.4 351.55 638.925 351.65 640.4 351.75 640.83671875 351.775 641.15 351.5
M 453.7 351
Q 453.38671875 350.725 452.95 350.75 451.4625 350.8498046875 449.95 351 449.5392578125 351.0478515625 449.25 351.35 449.010546875 351.692578125 449.05 352.1 449.09765625 352.5111328125 449.4 352.75 449.7419921875 353.0392578125 450.15 353 451.6375 352.8501953125 453.1 352.75 453.5322265625 352.716796875 453.8 352.4 454.075390625 352.087109375 454.05 351.65 454.0171875 351.2681640625 453.7 351
M 461.05 351.15
Q 461.0171875 350.7681640625 460.7 350.5 460.38671875 350.225 459.95 350.25 458.475 350.35 456.95 350.45 456.5677734375 350.483203125 456.3 350.8 456.024609375 351.112890625 456.05 351.5 456.0828125 351.9318359375 456.4 352.2 456.71328125 352.475 457.1 352.45 458.625 352.35 460.1 352.25 460.5322265625 352.216796875 460.8 351.9 461.075390625 351.587109375 461.05 351.15
M 468.1 350.65
Q 468.0671875 350.2681640625 467.75 350 467.43671875 349.725 467 349.75 465.525 349.85 464 349.95 463.6177734375 349.983203125 463.35 350.3 463.074609375 350.612890625 463.1 351 463.1328125 351.4318359375 463.45 351.7 463.76328125 351.975 464.15 351.95 465.675 351.85 467.15 351.75 467.5822265625 351.716796875 467.85 351.4 468.125390625 351.087109375 468.1 350.65
M 407.75 354.95
Q 407.3392578125 354.9978515625 407.05 355.3 406.810546875 355.642578125 406.85 356.05 406.89765625 356.4611328125 407.2 356.7 407.5419921875 356.9892578125 407.95 356.95 409.45 356.8 410.95 356.65 411.3607421875 356.601953125 411.6 356.25 411.8896484375 355.957421875 411.85 355.55 411.80234375 355.1388671875 411.45 354.85 411.1578125 354.6107421875 410.75 354.65 409.25 354.8 407.75 354.95
M 417.95 355.95
Q 418.3607421875 355.901953125 418.6 355.55 418.8896484375 355.257421875 418.85 354.85 418.80234375 354.4388671875 418.45 354.15 418.1578125 353.9107421875 417.75 353.95 416.25 354.1 414.75 354.25 414.3392578125 354.2978515625 414.05 354.6 413.810546875 354.942578125 413.85 355.35 413.89765625 355.7611328125 414.2 356 414.5419921875 356.2892578125 414.95 356.25 416.45 356.1 417.95 355.95
M 425.9 354.15
Q 425.85234375 353.7388671875 425.5 353.45 425.2078125 353.2107421875 424.8 353.25 423.3 353.4 421.8 353.55 421.3892578125 353.5978515625 421.1 353.9 420.860546875 354.242578125 420.9 354.65 420.94765625 355.0611328125 421.25 355.3 421.5919921875 355.5892578125 422 355.55 423.5 355.4 425 355.25 425.4107421875 355.201953125 425.65 354.85 425.9396484375 354.557421875 425.9 354.15
M 428.3 354.6
Q 428.6419921875 354.8892578125 429.05 354.85 430.55 354.6998046875 432.1 354.55 432.51171875 354.501953125 432.75 354.15 433.039453125 353.857421875 433 353.45 432.95234375 353.0388671875 432.6 352.75 432.3068359375 352.5107421875 431.9 352.55 430.35 352.7 428.85 352.85 428.4392578125 352.8978515625 428.15 353.2 427.910546875 353.542578125 427.95 353.95 427.99765625 354.3611328125 428.3 354.6
M 439.6 352.05
Q 439.3078125 351.8107421875 438.9 351.85 437.4 352 435.9 352.15 435.4892578125 352.1978515625 435.2 352.5 434.960546875 352.842578125 435 353.25 435.04765625 353.6611328125 435.35 353.9 435.6919921875 354.1892578125 436.1 354.15 437.6 354 439.1 353.85 439.5107421875 353.801953125 439.75 353.45 440.0396484375 353.157421875 440 352.75 439.95234375 352.3388671875 439.6 352.05
M 442.95 351.55
Q 442.5392578125 351.5978515625 442.25 351.9 442.010546875 352.242578125 442.05 352.65 442.09765625 353.0611328125 442.4 353.3 442.7419921875 353.5892578125 443.15 353.55 444.6375 353.4001953125 446.1 353.3 446.5322265625 353.266796875 446.8 352.95 447.075390625 352.637109375 447.05 352.2 447.0171875 351.8181640625 446.7 351.55 446.38671875 351.275 445.95 351.3 444.4625 351.3998046875 442.95 351.55
M 372.25 361.05
Q 372.5728515625 361.3033203125 372.95 361.25 374.475 361.05 375.95 360.85 376.3912109375 360.78671875 376.65 360.45 376.9037109375 360.1271484375 376.85 359.7 376.787109375 359.308984375 376.45 359.05 376.126953125 358.7966796875 375.7 358.85 374.225 359.05 372.7 359.25 372.3087890625 359.3130859375 372.05 359.65 371.796484375 359.97265625 371.85 360.35 371.912890625 360.791015625 372.25 361.05
M 369.65 361.45
Q 369.9037109375 361.1271484375 369.85 360.7 369.787109375 360.308984375 369.45 360.05 369.126953125 359.7966796875 368.7 359.85 367.225 360.05 365.7 360.25 365.3087890625 360.3130859375 365.05 360.65 364.796484375 360.97265625 364.85 361.35 364.912890625 361.791015625 365.25 362.05 365.5728515625 362.3033203125 365.95 362.25 367.475 362.05 368.95 361.85 369.3912109375 361.78671875 369.65 361.45
M 382.7 357.95
Q 381.225 358.15 379.7 358.35 379.3087890625 358.4130859375 379.05 358.75 378.796484375 359.07265625 378.85 359.45 378.912890625 359.891015625 379.25 360.15 379.5728515625 360.4033203125 379.95 360.35 381.475 360.15 382.95 359.95 383.3912109375 359.88671875 383.65 359.55 383.9037109375 359.2271484375 383.85 358.8 383.787109375 358.408984375 383.45 358.15 383.126953125 357.8966796875 382.7 357.95
M 389.7 357.05
Q 388.225 357.25 386.7 357.45 386.3087890625 357.5130859375 386.05 357.85 385.796484375 358.17265625 385.85 358.55 385.912890625 358.991015625 386.25 359.25 386.5728515625 359.5033203125 386.95 359.45 388.475 359.25 389.95 359.05 390.3912109375 358.98671875 390.65 358.65 390.9037109375 358.3271484375 390.85 357.9 390.787109375 357.508984375 390.45 357.25 390.126953125 356.9966796875 389.7 357.05
M 400.2 357.4
Q 400.5419921875 357.6892578125 400.95 357.65 402.45 357.5 403.95 357.35 404.3607421875 357.301953125 404.6 356.95 404.8896484375 356.657421875 404.85 356.25 404.80234375 355.8388671875 404.45 355.55 404.1578125 355.3107421875 403.75 355.35 402.25 355.5 400.75 355.65 400.3392578125 355.6978515625 400.05 356 399.810546875 356.342578125 399.85 356.75 399.89765625 357.1611328125 400.2 357.4
M 397.45 356.35
Q 397.126953125 356.0966796875 396.7 356.15 395.225 356.35 393.7 356.55 393.3087890625 356.6130859375 393.05 356.95 392.796484375 357.27265625 392.85 357.65 392.912890625 358.091015625 393.25 358.35 393.5728515625 358.6033203125 393.95 358.55 395.475 358.35 396.95 358.15 397.3912109375 358.08671875 397.65 357.75 397.9037109375 357.4271484375 397.85 357 397.787109375 356.608984375 397.45 356.35
M 341.5 364.35
Q 341.1853515625 364.1078125 340.75 364.15 339.275 364.425 337.75 364.65 337.3802734375 364.740625 337.15 365.05 336.9076171875 365.4150390625 336.95 365.8 337.0404296875 366.2201171875 337.35 366.45 337.7146484375 366.6921875 338.1 366.6 339.625 366.375 341.1 366.1 341.5197265625 366.059375 341.75 365.7 341.9923828125 365.3849609375 341.9 364.95 341.8595703125 364.5798828125 341.5 364.35
M 330.8 365.85
Q 330.415625 365.94140625 330.15 366.25 329.944921875 366.6162109375 330 367 330.091015625 367.4337890625 330.4 367.65 330.766796875 367.9046875 331.15 367.8 332.625 367.575 334.1 367.3 334.5197265625 367.259375 334.75 366.9 334.9923828125 366.5849609375 334.9 366.15 334.8595703125 365.7798828125 334.5 365.55 334.1853515625 365.3078125 333.75 365.35 332.2748046875 365.625 330.8 365.85
M 324.25 369.05
Q 325.7375 368.7751953125 327.2 368.5 327.6197265625 368.459375 327.85 368.1 328.0923828125 367.7849609375 328 367.35 327.9595703125 366.9798828125 327.6 366.75 327.2853515625 366.5078125 326.85 366.55 325.3625 366.824609375 323.85 367.1 323.4498046875 367.20625 323.2 367.55 322.9939453125 367.8953125 323.05 368.3 323.155859375 368.699609375 323.5 368.9 323.8458984375 369.15546875 324.25 369.05
M 362.45 361.05
Q 362.126953125 360.7966796875 361.7 360.85 360.225 361.05 358.7 361.25 358.3087890625 361.3130859375 358.05 361.65 357.796484375 361.97265625 357.85 362.35 357.912890625 362.791015625 358.25 363.05 358.5728515625 363.3033203125 358.95 363.25 360.475 363.05 361.95 362.85 362.3912109375 362.78671875 362.65 362.45 362.9037109375 362.1271484375 362.85 361.7 362.787109375 361.308984375 362.45 361.05
M 348.85 363.75
Q 348.8095703125 363.3798828125 348.45 363.15 348.1353515625 362.9078125 347.7 362.95 346.225 363.225 344.7 363.45 344.3302734375 363.540625 344.1 363.85 343.8576171875 364.2150390625 343.9 364.6 343.9904296875 365.0201171875 344.3 365.25 344.6646484375 365.4921875 345.05 365.4 346.575 365.175 348.05 364.9 348.4697265625 364.859375 348.7 364.5 348.9423828125 364.1849609375 348.85 363.75
M 351.7 362.35
Q 351.3302734375 362.440625 351.1 362.75 350.8576171875 363.1150390625 350.9 363.5 350.9904296875 363.9201171875 351.3 364.15 351.6646484375 364.3921875 352.05 364.3 353.575 364.075 355.05 363.8 355.4697265625 363.759375 355.7 363.4 355.9423828125 363.0849609375 355.85 362.65 355.8095703125 362.2798828125 355.45 362.05 355.1353515625 361.8078125 354.7 361.85 353.225 362.125 351.7 362.35
M 903.25 399.75
Q 903.067578125 399.3953125 902.65 399.25 901.2873046875 398.7623046875 899.85 398.2 899.4720703125 398.0791015625 899.1 398.25 898.7224609375 398.4171875 898.55 398.8 898.428515625 399.1787109375 898.6 399.55 898.76640625 399.9271484375 899.15 400.05 900.6126953125 400.6375 902 401.15 902.40703125 401.28359375 902.75 401.1 903.1548828125 400.9177734375 903.3 400.5 903.433984375 400.14296875 903.25 399.75
M 909.2 401.75
Q 907.825 401.225 906.4 400.65 906.0349609375 400.516015625 905.65 400.65 905.2734375 400.8412109375 905.1 401.2 904.9658203125 401.6146484375 905.1 402 905.29140625 402.3763671875 905.65 402.5 907.075 403.075 908.45 403.6 908.8650390625 403.783984375 909.25 403.6 909.6265625 403.4587890625 909.75 403.05 909.9341796875 402.6853515625 909.75 402.3 909.60859375 401.9236328125 909.2 401.75
M 927.9 411.6
Q 928.2732421875 411.783984375 928.65 411.6 929.045703125 411.4771484375 929.2 411.1 929.383984375 410.7279296875 929.2 410.35 929.0759765625 409.954296875 928.7 409.75 927.3501953125 409.175 925.95 408.55 925.562109375 408.4158203125 925.15 408.55 924.790234375 408.7244140625 924.6 409.1 924.4658203125 409.48671875 924.6 409.85 924.7755859375 410.2595703125 925.15 410.4 926.55 411.025 927.9 411.6
M 916.25 404.85
Q 916.11015625 404.4876953125 915.7 404.3 914.375 403.775 912.95 403.2 912.5849609375 403.066015625 912.2 403.2 911.8234375 403.3912109375 911.65 403.75 911.5158203125 404.1646484375 911.65 404.55 911.84140625 404.9263671875 912.2 405.05 913.625 405.6248046875 914.95 406.15 915.3501953125 406.333984375 915.7 406.15 916.1126953125 406.0103515625 916.25 405.6 916.4341796875 405.25 916.25 404.85
M 922.8 407.5
Q 922.65859375 407.1236328125 922.25 406.95 920.8875 406.424609375 919.5 405.8 919.112109375 405.6658203125 918.7 405.8 918.340234375 405.9744140625 918.15 406.35 918.0158203125 406.73671875 918.15 407.1 918.3255859375 407.5095703125 918.7 407.65 920.1125 408.2751953125 921.5 408.8 921.9150390625 408.983984375 922.3 408.8 922.6765625 408.6587890625 922.8 408.25 922.9841796875 407.8853515625 922.8 407.5
M 960.1 425.9
Q 958.8375 425.1 957.5 424.3 957.1734375 424.0810546875 956.75 424.15 956.370703125 424.271484375 956.15 424.6 955.9306640625 424.97578125 956 425.35 956.1220703125 425.77890625 956.45 426 957.7623046875 426.8 959 427.6 959.361328125 427.8185546875 959.75 427.7 960.176953125 427.642578125 960.4 427.3 960.619140625 426.9392578125 960.5 426.5 960.441796875 426.1234375 960.1 425.9
M 969.35 432.15
Q 969.048046875 431.9087890625 968.65 431.95 968.24296875 432.0400390625 968 432.35 967.7580078125 432.701953125 967.8 433.1 967.8900390625 433.50625 968.2 433.75 969.44921875 434.65 970.55 435.55 970.90859375 435.8021484375 971.3 435.75 971.7267578125 435.70078125 971.95 435.35 972.240625 435.0416015625 972.2 434.6 972.1505859375 434.2240234375 971.8 433.95 970.6505859375 433.0623046875 969.35 432.15
M 963.5 428.1
Q 963.1521484375 427.8939453125 962.75 427.95 962.34921875 428.056640625 962.1 428.4 961.89375 428.7466796875 961.95 429.15 962.0576171875 429.5505859375 962.4 429.75 963.6998046875 430.625 964.95 431.45 965.2951171875 431.70546875 965.7 431.6 966.0986328125 431.544921875 966.3 431.2 966.5556640625 430.8560546875 966.45 430.45 966.39375 430.0515625 966.05 429.8 964.8 428.975 963.5 428.1
M 949.9 421.9
Q 950.0134765625 422.3216796875 950.35 422.5 951.7123046875 423.2748046875 953 424 953.3568359375 424.2326171875 953.75 424.1 954.158203125 424.012890625 954.35 423.65 954.5828125 423.29453125 954.45 422.9 954.3615234375 422.4919921875 954 422.25 952.6875 421.525 951.3 420.75 950.9669921875 420.580078125 950.55 420.7 950.1775390625 420.81328125 949.95 421.15 949.7794921875 421.5326171875 949.9 421.9
M 943.75 417.9
Q 943.5791015625 418.2625 943.7 418.65 943.8298828125 419.05078125 944.2 419.25 945.5373046875 419.9375 946.8 420.6 947.18515625 420.8201171875 947.55 420.7 947.9740234375 420.5853515625 948.15 420.2 948.370703125 419.865234375 948.25 419.45 948.1349609375 419.0767578125 947.75 418.85 946.4626953125 418.1623046875 945.1 417.45 944.73671875 417.266796875 944.35 417.4 943.9615234375 417.52890625 943.75 417.9
M 931.5 413.2
Q 932.9375 413.8625 934.3 414.45 934.6732421875 414.633984375 935.05 414.45 935.445703125 414.3271484375 935.6 413.95 935.783984375 413.5779296875 935.6 413.2 935.4759765625 412.804296875 935.1 412.6 933.7623046875 412.0373046875 932.35 411.4 931.9921875 411.2162109375 931.6 411.35 931.21875 411.49609375 931.05 411.85 930.866015625 412.2568359375 931 412.65 931.146875 413.0310546875 931.5 413.2
M 938.75 414.35
Q 938.4064453125 414.1662109375 938 414.3 937.6328125 414.44453125 937.45 414.8 937.2662109375 415.1921875 937.4 415.55 937.545703125 415.9669921875 937.9 416.15 939.275 416.8 940.6 417.45 940.993359375 417.6337890625 941.35 417.5 941.7671875 417.35546875 941.95 416.95 942.1337890625 416.6078125 942 416.2 941.854296875 415.8328125 941.45 415.65 940.125 415 938.75 414.35
M 892.05 395.4
Q 891.69296875 395.2662109375 891.3 395.45 890.9451171875 395.6322265625 890.8 396 890.666015625 396.40703125 890.85 396.75 891.0322265625 397.1546875 891.4 397.3 892.825 397.8 894.2 398.3 894.60703125 398.43359375 894.95 398.25 895.3548828125 398.0677734375 895.5 397.65 895.633984375 397.29296875 895.45 396.9 895.267578125 396.5453125 894.85 396.4 893.475 395.9 892.05 395.4
M 884.25 394.45
Q 884.4322265625 394.8546875 884.8 395 886.225 395.5 887.6 396 888.00703125 396.13359375 888.35 395.95 888.7548828125 395.7677734375 888.9 395.35 889.033984375 394.99296875 888.85 394.6 888.667578125 394.2453125 888.25 394.1 886.875 393.6 885.45 393.1 885.09296875 392.9662109375 884.7 393.15 884.3451171875 393.3322265625 884.2 393.7 884.066015625 394.10703125 884.25 394.45
M 878.8 390.85
Q 878.398046875 390.729296875 878 390.9 877.6654296875 391.1125 877.55 391.5 877.4291015625 391.9013671875 877.6 392.25 877.8130859375 392.634375 878.2 392.75 879.637109375 393.200390625 881 393.7 881.40703125 393.83359375 881.75 393.65 882.1548828125 393.4677734375 882.3 393.05 882.433984375 392.69296875 882.25 392.3 882.067578125 391.9453125 881.65 391.8 880.262890625 391.299609375 878.8 390.85
M 871.35 388.75
Q 871.0154296875 388.9625 870.9 389.35 870.7791015625 389.7513671875 870.95 390.1 871.1630859375 390.484375 871.55 390.6 872.9998046875 391.05 874.4 391.5 874.786328125 391.633203125 875.15 391.45 875.520703125 391.2515625 875.65 390.85 875.78359375 390.4630859375 875.6 390.1 875.401953125 389.7296875 875 389.6 873.6 389.15 872.15 388.7 871.748046875 388.579296875 871.35 388.75
M 868.9 387.95
Q 868.7369140625 387.615625 868.35 387.5 866.9 387.05 865.45 386.6 865.048046875 386.479296875 864.65 386.65 864.3154296875 386.8625 864.2 387.25 864.0791015625 387.6513671875 864.25 388 864.4630859375 388.384375 864.85 388.5 866.3 388.95 867.75 389.4 868.151953125 389.520703125 868.5 389.3 868.884375 389.1376953125 869 388.75 869.1208984375 388.3486328125 868.9 387.95
M 857.55 386.05
Q 857.77890625 386.4123046875 858.15 386.5 859.6125 386.9126953125 861.05 387.35 861.451953125 387.470703125 861.8 387.25 862.184375 387.0876953125 862.3 386.7 862.4208984375 386.2986328125 862.2 385.9 862.0369140625 385.565625 861.65 385.45 860.1875 384.9873046875 858.7 384.55 858.3185546875 384.4673828125 857.95 384.65 857.5875 384.8787109375 857.45 385.25 857.3671875 385.68125 857.55 386.05
M 851.2 382.75
Q 850.8375 382.9787109375 850.7 383.35 850.6171875 383.78125 850.8 384.15 851.02890625 384.5123046875 851.4 384.6 852.875 385.025 854.3 385.4 854.7314453125 385.532421875 855.1 385.3 855.4625 385.1212890625 855.55 384.7 855.6828125 384.3189453125 855.45 383.95 855.2708984375 383.5876953125 854.85 383.45 853.425 383.075 851.95 382.65 851.5685546875 382.5673828125 851.2 382.75
M 831.5 377.25
Q 831.126953125 377.180859375 830.75 377.4 830.421875 377.6201171875 830.3 378 830.23046875 378.4234375 830.45 378.75 830.6697265625 379.127734375 831.05 379.2 832.525 379.575 833.95 379.9 834.373046875 380.019140625 834.7 379.8 835.078125 379.5798828125 835.15 379.15 835.26953125 378.7765625 835.05 378.4 834.8302734375 378.072265625 834.4 377.95 832.975 377.625 831.5 377.25
M 841.85 380.25
Q 841.6708984375 379.8876953125 841.25 379.75 839.825 379.375 838.35 378.95 837.9685546875 378.8673828125 837.6 379.05 837.2375 379.2787109375 837.1 379.65 837.0171875 380.08125 837.2 380.45 837.42890625 380.8123046875 837.8 380.9 839.275 381.325 840.7 381.7 841.1314453125 381.832421875 841.5 381.6 841.8625 381.4212890625 841.95 381 842.0828125 380.6189453125 841.85 380.25
M 843.9 381.45
Q 843.8171875 381.88125 844 382.25 844.22890625 382.6123046875 844.6 382.7 846.075 383.125 847.5 383.5 847.9314453125 383.632421875 848.3 383.4 848.6625 383.2212890625 848.75 382.8 848.8828125 382.4189453125 848.65 382.05 848.4708984375 381.6876953125 848.05 381.55 846.625 381.175 845.15 380.75 844.7685546875 380.6673828125 844.4 380.85 844.0375 381.0787109375 843.9 381.45
M 814.3 374.9
Q 814.678125 374.6798828125 814.75 374.25 814.86953125 373.8765625 814.65 373.5 814.4302734375 373.172265625 814 373.05 812.575 372.725 811.1 372.35 810.726953125 372.280859375 810.35 372.5 810.021875 372.7201171875 809.9 373.1 809.83046875 373.5234375 810.05 373.85 810.2697265625 374.227734375 810.65 374.3 812.125 374.675 813.55 375 813.973046875 375.119140625 814.3 374.9
M 820.35 376.6
Q 820.773046875 376.719140625 821.1 376.5 821.478125 376.2798828125 821.55 375.85 821.66953125 375.4765625 821.45 375.1 821.2302734375 374.772265625 820.8 374.65 819.375 374.325 817.9 373.95 817.526953125 373.880859375 817.15 374.1 816.821875 374.3201171875 816.7 374.7 816.63046875 375.1234375 816.85 375.45 817.0697265625 375.827734375 817.45 375.9 818.925 376.275 820.35 376.6
M 828.25 376.7
Q 828.0302734375 376.372265625 827.6 376.25 826.175 375.925 824.7 375.55 824.326953125 375.480859375 823.95 375.7 823.621875 375.9201171875 823.5 376.3 823.43046875 376.7234375 823.65 377.05 823.8697265625 377.427734375 824.25 377.5 825.725 377.875 827.15 378.2 827.573046875 378.319140625 827.9 378.1 828.278125 377.8798828125 828.35 377.45 828.46953125 377.0765625 828.25 376.7
M 782.65 367.5
Q 782.5939453125 367.9046875 782.8 368.25 783.0498046875 368.59375 783.45 368.65 784.9498046875 368.975 786.4 369.25 786.8041015625 369.355859375 787.15 369.1 787.49375 368.900390625 787.55 368.5 787.6560546875 368.09609375 787.4 367.75 787.2 367.4064453125 786.8 367.3 785.35 367.0248046875 783.85 366.7 783.4458984375 366.6443359375 783.1 366.85 782.755859375 367.1001953125 782.65 367.5
M 776.6 367.45
Q 778.125 367.725 779.55 367.95 779.9830078125 368.0546875 780.3 367.8 780.658984375 367.5837890625 780.7 367.15 780.805078125 366.7662109375 780.55 366.4 780.334375 366.09140625 779.9 366 778.4751953125 365.775 776.95 365.5 776.5646484375 365.4578125 776.2 365.7 775.8904296875 365.9298828125 775.8 366.3 775.7576171875 366.7349609375 776 367.05 776.2302734375 367.409375 776.6 367.45
M 804.3 370.9
Q 803.8958984375 370.844140625 803.55 371.05 803.20625 371.299609375 803.1 371.7 803.0439453125 372.10390625 803.25 372.45 803.4998046875 372.7935546875 803.9 372.85 805.35 373.175 806.8 373.45 807.2041015625 373.555859375 807.55 373.3 807.89375 373.100390625 807.95 372.7 808.0560546875 372.29609375 807.8 371.95 807.6 371.6064453125 807.2 371.5 805.75 371.225 804.3 370.9
M 797.5 369.5
Q 797.0958984375 369.444140625 796.75 369.65 796.40625 369.899609375 796.3 370.3 796.2439453125 370.70390625 796.45 371.05 796.6998046875 371.3935546875 797.1 371.45 798.55 371.775 800 372.05 800.4041015625 372.155859375 800.75 371.9 801.09375 371.700390625 801.15 371.3 801.2560546875 370.89609375 801 370.55 800.8 370.2064453125 800.4 370.1 798.95 369.825 797.5 369.5
M 790.7 368.1
Q 790.2958984375 368.044140625 789.95 368.25 789.60625 368.499609375 789.5 368.9 789.4439453125 369.30390625 789.65 369.65 789.8998046875 369.9935546875 790.3 370.05 791.75 370.375 793.2 370.65 793.6041015625 370.755859375 793.95 370.5 794.29375 370.300390625 794.35 369.9 794.4560546875 369.49609375 794.2 369.15 794 368.8064453125 793.6 368.7 792.15 368.425 790.7 368.1
M 745.95 360.7
Q 745.6912109375 360.3630859375 745.25 360.3 743.775 360.1 742.25 359.9 741.8728515625 359.8466796875 741.55 360.1 741.212890625 360.358984375 741.15 360.75 741.096484375 361.1771484375 741.35 361.5 741.6087890625 361.83671875 742 361.9 743.525 362.1 745 362.3 745.426953125 362.3533203125 745.75 362.1 746.087109375 361.841015625 746.15 361.4 746.2037109375 361.02265625 745.95 360.7
M 735 360.9
Q 736.525 361.1 738 361.3 738.426953125 361.3533203125 738.75 361.1 739.087109375 360.841015625 739.15 360.4 739.2037109375 360.02265625 738.95 359.7 738.6912109375 359.3630859375 738.25 359.3 736.775 359.1 735.25 358.9 734.8728515625 358.8466796875 734.55 359.1 734.212890625 359.358984375 734.15 359.75 734.096484375 360.1771484375 734.35 360.5 734.6087890625 360.83671875 735 360.9
M 768.9 365.1
Q 768.8576171875 365.5349609375 769.1 365.85 769.3302734375 366.209375 769.7 366.25 771.225 366.525 772.65 366.75 773.0830078125 366.8546875 773.4 366.6 773.758984375 366.3837890625 773.8 365.95 773.905078125 365.5662109375 773.65 365.2 773.434375 364.89140625 773 364.8 771.5751953125 364.575 770.05 364.3 769.6646484375 364.2578125 769.3 364.5 768.9904296875 364.7298828125 768.9 365.1
M 766.85 364.75
Q 766.9423828125 364.3650390625 766.7 364 766.4697265625 363.690625 766.05 363.6 764.575 363.375 763.05 363.1 762.6646484375 363.0578125 762.3 363.3 761.9904296875 363.5298828125 761.9 363.9 761.8576171875 364.3349609375 762.1 364.65 762.3302734375 365.009375 762.7 365.05 764.225 365.325 765.7 365.55 766.1353515625 365.6421875 766.45 365.4 766.8095703125 365.1701171875 766.85 364.75
M 752.95 362.5
Q 753.055078125 362.1162109375 752.8 361.75 752.584375 361.44140625 752.15 361.35 750.7001953125 361.112109375 749.15 360.9 748.7728515625 360.8466796875 748.45 361.1 748.112890625 361.358984375 748.05 361.75 747.996484375 362.1771484375 748.25 362.5 748.5087890625 362.83671875 748.9 362.9 750.399609375 363.0876953125 751.8 363.3 752.2330078125 363.4046875 752.55 363.15 752.908984375 362.9337890625 752.95 362.5
M 755.15 363.5
Q 755.3802734375 363.859375 755.75 363.9 757.275 364.175 758.75 364.4 759.1853515625 364.4921875 759.5 364.25 759.8595703125 364.0201171875 759.9 363.6 759.9923828125 363.2150390625 759.75 362.85 759.5197265625 362.540625 759.1 362.45 757.625 362.225 756.1 361.95 755.7146484375 361.9078125 755.35 362.15 755.0404296875 362.3798828125 754.95 362.75 754.9076171875 363.1849609375 755.15 363.5
M 692.6 355.65
Q 692.8892578125 356.001953125 693.3 356.05 694.8 356.2 696.3 356.35 696.7078125 356.3892578125 697 356.1 697.35234375 355.8611328125 697.4 355.45 697.4396484375 355.042578125 697.15 354.7 696.9107421875 354.3978515625 696.5 354.35 695 354.2 693.5 354.05 693.0919921875 354.0107421875 692.75 354.25 692.44765625 354.5388671875 692.4 354.95 692.360546875 355.357421875 692.6 355.65
M 699.5 356.35
Q 699.7892578125 356.701953125 700.2 356.75 701.7 356.9 703.2 357.05 703.6078125 357.0892578125 703.9 356.8 704.25234375 356.5611328125 704.3 356.15 704.3396484375 355.742578125 704.05 355.4 703.8107421875 355.0978515625 703.4 355.05 701.9 354.9 700.4 354.75 699.9919921875 354.7107421875 699.65 354.95 699.34765625 355.2388671875 699.3 355.65 699.260546875 356.057421875 699.5 356.35
M 713.55 356.45
Q 713.24765625 356.7388671875 713.2 357.15 713.160546875 357.557421875 713.4 357.85 713.6892578125 358.201953125 714.1 358.25 715.5875 358.4001953125 717.05 358.6 717.476953125 358.6533203125 717.8 358.4 718.137109375 358.141015625 718.2 357.7 718.2537109375 357.32265625 718 357 717.7412109375 356.6630859375 717.3 356.6 715.8125 356.3998046875 714.3 356.25 713.8919921875 356.2107421875 713.55 356.45
M 710.95 356.1
Q 710.7107421875 355.7978515625 710.3 355.75 708.8 355.6 707.3 355.45 706.8919921875 355.4107421875 706.55 355.65 706.24765625 355.9388671875 706.2 356.35 706.160546875 356.757421875 706.4 357.05 706.6892578125 357.401953125 707.1 357.45 708.6 357.6 710.1 357.75 710.5078125 357.7892578125 710.8 357.5 711.15234375 357.2611328125 711.2 356.85 711.2396484375 356.442578125 710.95 356.1
M 720.2 357.95
Q 720.146484375 358.3771484375 720.4 358.7 720.6587890625 359.03671875 721.05 359.1 722.575 359.3 724.05 359.5 724.476953125 359.5533203125 724.8 359.3 725.137109375 359.041015625 725.2 358.6 725.2537109375 358.22265625 725 357.9 724.7412109375 357.5630859375 724.3 357.5 722.825 357.3 721.3 357.1 720.9228515625 357.0466796875 720.6 357.3 720.262890625 357.558984375 720.2 357.95
M 728.3 358
Q 727.9228515625 357.9466796875 727.6 358.2 727.262890625 358.458984375 727.2 358.85 727.146484375 359.2771484375 727.4 359.6 727.6587890625 359.93671875 728.05 360 729.575 360.2 731.05 360.4 731.476953125 360.4533203125 731.8 360.2 732.137109375 359.941015625 732.2 359.5 732.2537109375 359.12265625 732 358.8 731.7412109375 358.4630859375 731.3 358.4 729.825 358.2 728.3 358
M 648.15 352
Q 648.4671875 351.7318359375 648.5 351.3 648.525390625 350.912890625 648.25 350.6 647.9822265625 350.283203125 647.55 350.25 646.075 350.15 644.55 350.05 644.16328125 350.025 643.85 350.3 643.5328125 350.5681640625 643.5 350.95 643.474609375 351.387109375 643.75 351.7 644.0177734375 352.016796875 644.4 352.05 645.925 352.15 647.4 352.25 647.83671875 352.275 648.15 352
M 655.1 352.5
Q 655.4171875 352.2318359375 655.45 351.8 655.475390625 351.412890625 655.2 351.1 654.9322265625 350.783203125 654.5 350.75 653.025 350.65 651.5 350.55 651.11328125 350.525 650.8 350.8 650.4828125 351.0681640625 650.45 351.45 650.424609375 351.887109375 650.7 352.2 650.9677734375 352.516796875 651.35 352.55 652.875 352.65 654.35 352.75 654.78671875 352.775 655.1 352.5
M 662.15 351.6
Q 661.8822265625 351.283203125 661.45 351.25 659.975 351.15 658.45 351.05 658.06328125 351.025 657.75 351.3 657.4328125 351.5681640625 657.4 351.95 657.374609375 352.387109375 657.65 352.7 657.9177734375 353.016796875 658.3 353.05 659.825 353.15 661.3 353.25 661.73671875 353.275 662.05 353 662.3671875 352.7318359375 662.4 352.3 662.425390625 351.912890625 662.15 351.6
M 672.5 352.05
Q 672.0919921875 352.0107421875 671.75 352.25 671.44765625 352.5388671875 671.4 352.95 671.360546875 353.357421875 671.6 353.65 671.8892578125 354.001953125 672.3 354.05 673.8 354.2 675.3 354.35 675.7078125 354.3892578125 676 354.1 676.35234375 353.8611328125 676.4 353.45 676.4396484375 353.042578125 676.15 352.7 675.9107421875 352.3978515625 675.5 352.35 674 352.2 672.5 352.05
M 669.15 352.1
Q 668.8822265625 351.783203125 668.45 351.75 666.975 351.65 665.45 351.55 665.06328125 351.525 664.75 351.8 664.4328125 352.0681640625 664.4 352.45 664.374609375 352.887109375 664.65 353.2 664.9177734375 353.516796875 665.3 353.55 666.825 353.65 668.3 353.75 668.73671875 353.775 669.05 353.5 669.3671875 353.2318359375 669.4 352.8 669.425390625 352.412890625 669.15 352.1
M 686.5 353.35
Q 686.0919921875 353.3107421875 685.75 353.55 685.44765625 353.8388671875 685.4 354.25 685.360546875 354.657421875 685.6 354.95 685.8892578125 355.301953125 686.3 355.35 687.8 355.5 689.3 355.65 689.7078125 355.6892578125 690 355.4 690.35234375 355.1611328125 690.4 354.75 690.4396484375 354.342578125 690.15 354 689.9107421875 353.6978515625 689.5 353.65 688 353.5 686.5 353.35
M 678.4 353.55
Q 678.360546875 353.957421875 678.6 354.25 678.8892578125 354.601953125 679.3 354.65 680.8 354.8 682.3 354.95 682.7078125 354.9892578125 683 354.7 683.35234375 354.4611328125 683.4 354.05 683.4396484375 353.642578125 683.15 353.3 682.9107421875 352.9978515625 682.5 352.95 681 352.8 679.5 352.65 679.0919921875 352.6107421875 678.75 352.85 678.44765625 353.1388671875 678.4 353.55 Z"/>
</g>

<g id="Layer0_33_STROKES_1_FILL">
<path fill="#E50182" stroke="none" d="
M 975.7 446.7
Q 975.5587890625 446.3234375 975.15 446.15 974.7853515625 446.0158203125 974.4 446.15 974.0236328125 446.34140625 973.85 446.7 973.324609375 448.1123046875 972.7 449.5 972.5658203125 449.887890625 972.7 450.25 972.8744140625 450.659765625 973.25 450.8 973.63671875 450.9841796875 974 450.8 974.4095703125 450.6744140625 974.55 450.3 975.1751953125 448.8873046875 975.7 447.45 975.883984375 447.0849609375 975.7 446.7
M 897.65 536.8
Q 897.991796875 536.5765625 898.05 536.15 898.169140625 535.760546875 897.95 535.4 897.726953125 535.057421875 897.3 534.95 896.911328125 534.8814453125 896.55 535.1 895.3125 535.8998046875 894.05 536.65 893.723828125 536.856640625 893.6 537.25 893.5302734375 537.6470703125 893.75 538 893.956640625 538.36484375 894.35 538.45 894.7583984375 538.5697265625 895.1 538.35 896.3875 537.6001953125 897.65 536.8
M 903.1 531.05
Q 902.6951171875 530.9943359375 902.35 531.2 901.1 532.075 899.85 532.9 899.50625 533.1515625 899.4 533.55 899.3443359375 533.9560546875 899.55 534.3 899.8015625 534.644921875 900.2 534.7 900.6048828125 534.80546875 900.95 534.55 902.2 533.725 903.45 532.85 903.79375 532.6484375 903.85 532.25 903.9556640625 531.8439453125 903.7 531.5 903.4986328125 531.155078125 903.1 531.05
M 905.55 528.85
Q 905.241015625 529.1173828125 905.15 529.5 905.0951171875 529.9341796875 905.3 530.25 905.566796875 530.609375 905.95 530.65 906.383984375 530.754296875 906.7 530.5 907.9373046875 529.6626953125 909.15 528.75 909.4857421875 528.5041015625 909.55 528.1 909.60390625 527.68671875 909.35 527.35 909.1046875 527.0134765625 908.7 526.95 908.2873046875 526.896484375 907.95 527.15 906.7625 528.0373046875 905.55 528.85
M 911.1 524.75
Q 910.7640625 524.9958984375 910.7 525.4 910.64609375 525.81328125 910.9 526.15 911.1453125 526.4865234375 911.55 526.55 911.9626953125 526.6033203125 912.3 526.35 913.512890625 525.437890625 914.65 524.45 915.00234375 524.209765625 915.05 523.8 915.0892578125 523.391796875 914.8 523.05 914.560546875 522.747265625 914.15 522.7 913.7421875 522.661328125 913.4 522.9 912.2869140625 523.8619140625 911.1 524.75
M 924.75 513.6
Q 924.334765625 513.5765625 924 513.85 922.9373046875 514.85 921.8 515.85 921.4828125 516.119140625 921.45 516.5 921.4244140625 516.937109375 921.7 517.25 921.9681640625 517.5671875 922.35 517.6 922.7869140625 517.6244140625 923.1 517.35 924.2626953125 516.3501953125 925.35 515.35 925.6810546875 515.065234375 925.7 514.65 925.7244140625 514.234765625 925.45 513.9 925.1662109375 513.61875 924.75 513.6
M 929.8 508.8
Q 929.40703125 508.7896484375 929.1 509.05 928 510.125 926.9 511.15 926.6056640625 511.4623046875 926.6 511.85 926.5892578125 512.2935546875 926.85 512.6 927.1619140625 512.8951171875 927.55 512.9 927.9927734375 512.91015625 928.3 512.6 929.4 511.575 930.5 510.5 930.7943359375 510.2376953125 930.8 509.8 930.810546875 509.40625 930.5 509.1 930.2380859375 508.8048828125 929.8 508.8
M 920.45 519.25
Q 920.4755859375 518.8630859375 920.2 518.55 919.9318359375 518.2328125 919.5 518.2 919.1130859375 518.175390625 918.8 518.45 917.6625 519.437109375 916.5 520.35 916.1974609375 520.640234375 916.15 521.05 916.110546875 521.4580078125 916.35 521.75 916.639453125 522.102734375 917.05 522.15 917.4578125 522.1884765625 917.75 521.9 918.9375 520.9626953125 920.1 519.95 920.4169921875 519.680859375 920.45 519.25
M 932 506.25
Q 931.703515625 506.5392578125 931.7 506.95 931.703515625 507.3607421875 932 507.65 932.2892578125 507.946484375 932.7 507.95 933.1107421875 507.946484375 933.4 507.65 934.45 506.6 935.5 505.55 935.796484375 505.2607421875 935.8 504.85 935.796484375 504.4392578125 935.5 504.15 935.2107421875 503.853515625 934.8 503.85 934.3892578125 503.853515625 934.1 504.15 933.05 505.2 932 506.25
M 939.05 499
Q 937.9875 500.049609375 936.9 501.15 936.6396484375 501.45703125 936.65 501.85 936.6548828125 502.2880859375 936.95 502.55 937.25625 502.860546875 937.65 502.85 938.0876953125 502.8443359375 938.35 502.55 939.4125 501.4501953125 940.45 500.4 940.746484375 500.1107421875 940.75 499.7 940.746484375 499.2892578125 940.45 499 940.1607421875 498.703515625 939.75 498.7 939.3392578125 498.703515625 939.05 499
M 861 555.5
Q 861.1841796875 555.1146484375 861 554.7 860.8765625 554.3412109375 860.5 554.15 860.1150390625 554.016015625 859.7 554.15 858.325 554.725 856.9 555.25 856.54140625 555.4236328125 856.35 555.8 856.2158203125 556.1853515625 856.35 556.55 856.5234375 556.9587890625 856.9 557.1 857.2849609375 557.283984375 857.65 557.1 859.075 556.575 860.45 556 860.85859375 555.8763671875 861 555.5
M 863.45 554.5
Q 863.8267578125 554.683984375 864.2 554.5 865.55 553.925 866.9 553.3 867.2759765625 553.145703125 867.4 552.75 867.583984375 552.3720703125 867.4 552 867.245703125 551.6228515625 866.85 551.45 866.4732421875 551.316015625 866.1 551.45 864.75 552.075 863.4 552.65 863.0240234375 552.854296875 862.85 553.25 862.716015625 553.6279296875 862.85 554 863.0541015625 554.3771484375 863.45 554.5
M 873.25 550.35
Q 873.654296875 550.1669921875 873.8 549.75 873.9337890625 549.3921875 873.75 549 873.5671875 548.64453125 873.15 548.5 872.793359375 548.3662109375 872.4 548.55 871.075 549.2 869.7 549.85 869.345703125 550.0328125 869.2 550.4 869.0662109375 550.8078125 869.25 551.15 869.4328125 551.55546875 869.8 551.7 870.2064453125 551.8337890625 870.55 551.65 871.925 551 873.25 550.35
M 876.1 548.65
Q 876.5064453125 548.7837890625 876.85 548.6 878.2375 547.9501953125 879.6 547.25 879.9701171875 547.05078125 880.1 546.65 880.22109375 546.2625 880 545.9 879.838671875 545.52890625 879.45 545.4 879.06328125 545.266796875 878.7 545.45 877.3625 546.1498046875 876 546.8 875.645703125 546.9828125 875.5 547.35 875.3662109375 547.7578125 875.55 548.1 875.7328125 548.50546875 876.1 548.65
M 823.8 565.35
L 823.75 565.35
Q 823.55 565.425 823.35 565.45 822.955859375 565.585546875 822.75 565.95 822.5302734375 566.3029296875 822.6 566.7 822.73515625 567.093359375 823.1 567.3 823.453515625 567.5193359375 823.85 567.4 824.05 567.375 824.25 567.3
L 824.2 567.3
Q 825.6625 567.0251953125 827.1 566.65 827.5302734375 566.577734375 827.75 566.2 827.96953125 565.8734375 827.85 565.45 827.778125 565.0701171875 827.4 564.85 827.073046875 564.630859375 826.65 564.7 825.2375 565.074609375 823.8 565.35
M 816.85 568.85
Q 818.35 568.575 819.85 568.25 820.2501953125 568.19375 820.45 567.85 820.7060546875 567.5046875 820.6 567.1 820.544140625 566.7001953125 820.2 566.45 819.8541015625 566.2443359375 819.45 566.3 817.95 566.625 816.45 566.9 816.0498046875 567.00625 815.8 567.35 815.5939453125 567.6953125 815.65 568.1 815.755859375 568.499609375 816.1 568.7 816.4458984375 568.95546875 816.85 568.85
M 812.4 567.7
Q 812.31484375 567.7041015625 812.2 567.7 810.875 567.975 809.5 568.2 809.115625 568.2919921875 808.85 568.6 808.64453125 568.9677734375 808.7 569.35 808.7919921875 569.7849609375 809.1 570 809.4669921875 570.2552734375 809.85 570.15 811.157421875 569.9375 812.45 569.7 812.519921875 569.7 812.6 569.7 813.0107421875 569.696484375 813.3 569.4 813.596484375 569.1107421875 813.6 568.7 813.596484375 568.2892578125 813.3 568 813.0107421875 567.703515625 812.6 567.7 812.5 567.7 812.4 567.7
M 847.35 560.85
Q 847.767578125 560.7046875 847.95 560.3 848.133984375 559.95703125 848 559.55 847.8548828125 559.1822265625 847.45 559 847.10703125 558.8162109375 846.7 558.95 845.337109375 559.449609375 843.9 559.9 843.5130859375 560.015625 843.3 560.35 843.1291015625 560.7486328125 843.25 561.15 843.3654296875 561.5376953125 843.7 561.7 844.098046875 561.920703125 844.5 561.8 845.962890625 561.350390625 847.35 560.85
M 849.85 558.9
Q 849.9951171875 559.3177734375 850.35 559.5 850.74296875 559.68359375 851.1 559.55 852.525 559.05 853.9 558.55 854.317578125 558.4046875 854.5 558 854.683984375 557.65703125 854.55 557.25 854.4048828125 556.8822265625 854 556.7 853.65703125 556.5162109375 853.25 556.65 851.875 557.15 850.45 557.65 850.0822265625 557.7953125 849.9 558.15 849.716015625 558.54296875 849.85 558.9
M 834.7 563.65
Q 834.6125 563.2787109375 834.25 563.05 833.8814453125 562.8673828125 833.45 562.95 832.0373046875 563.375 830.55 563.75 830.142578125 563.88671875 829.9 564.25 829.7173828125 564.605078125 829.8 565 829.9365234375 565.4076171875 830.3 565.6 830.6546875 565.832421875 831.05 565.7 832.5625 565.3248046875 834 564.9 834.4208984375 564.8123046875 834.6 564.45 834.8328125 564.08125 834.7 563.65
M 837.3 561.9
Q 836.9279296875 562.0134765625 836.7 562.35 836.5294921875 562.7326171875 836.65 563.1 836.76328125 563.5224609375 837.1 563.7 837.4822265625 563.9203125 837.85 563.8 839.275 563.4 840.65 563 841.0720703125 562.8865234375 841.25 562.5 841.4705078125 562.1673828125 841.35 561.75 841.23671875 561.3775390625 840.85 561.15 840.5177734375 560.9796875 840.1 561.1 838.725 561.5 837.3 561.9
M 888.45 542.05
Q 888.8431640625 542.1826171875 889.2 541.95 890.5125 541.2125 891.75 540.45 892.126171875 540.243359375 892.2 539.85 892.3197265625 539.4529296875 892.1 539.1 891.893359375 538.73515625 891.5 538.6 891.0916015625 538.5302734375 890.7 538.75 889.487109375 539.4873046875 888.2 540.2 887.83828125 540.4419921875 887.7 540.85 887.6171875 541.24453125 887.8 541.6 888.0419921875 541.962890625 888.45 542.05
M 884.75 542.15
Q 883.4625 542.924609375 882.15 543.6 881.81484375 543.8267578125 881.7 544.2 881.579296875 544.615234375 881.75 544.95 881.976171875 545.3353515625 882.35 545.45 882.76484375 545.5701171875 883.1 545.35 884.4375 544.6751953125 885.75 543.9 886.1115234375 543.7080078125 886.2 543.3 886.3328125 542.90546875 886.1 542.55 885.908203125 542.1869140625 885.5 542.05 885.1068359375 541.9671875 884.75 542.15
M 954.9 480.45
Q 954.9634765625 480.8546875 955.3 481.1 955.63671875 481.35390625 956.05 481.3 956.4541015625 481.2357421875 956.7 480.9 957.6 479.7 958.5 478.5 958.7533203125 478.1626953125 958.7 477.75 958.6365234375 477.3453125 958.3 477.1 957.96328125 476.84609375 957.55 476.9 957.1458984375 476.9640625 956.9 477.3 956 478.5 955.1 479.7 954.846484375 480.0373046875 954.9 480.45
M 962.7 471.9
Q 962.644921875 471.5015625 962.3 471.25 961.9560546875 471.0443359375 961.55 471.1 961.1515625 471.20625 960.9 471.55 960.075 472.8 959.2 474.05 958.9943359375 474.3951171875 959.05 474.8 959.155078125 475.1986328125 959.5 475.4 959.8439453125 475.6556640625 960.25 475.55 960.6484375 475.49375 960.85 475.15 961.725 473.9 962.55 472.65 962.80546875 472.3048828125 962.7 471.9
M 944.35 493.4
Q 943.969140625 493.4328125 943.7 493.75 942.6998046875 494.8875 941.65 496 941.3759765625 496.3353515625 941.4 496.75 941.41875 497.1662109375 941.7 497.45 942.0345703125 497.7244140625 942.45 497.7 942.865625 497.68046875 943.15 497.35 944.2 496.2125 945.2 495.05 945.4744140625 494.7369140625 945.45 494.3 945.4171875 493.9181640625 945.1 493.65 944.787109375 493.3744140625 944.35 493.4
M 949.65 488.2
Q 949.3580078125 487.960546875 948.95 488 948.540234375 488.0474609375 948.25 488.35 947.337109375 489.5125 946.35 490.65 946.075390625 490.9630859375 946.1 491.35 946.1328125 491.7818359375 946.45 492.05 946.7630859375 492.3255859375 947.15 492.3 947.580859375 492.2669921875 947.85 491.95 948.8626953125 490.7875 949.8 489.6 950.0884765625 489.3078125 950.05 488.9 950.002734375 488.489453125 949.65 488.2
M 950.8 485.25
Q 950.56015625 485.608203125 950.6 486 950.648828125 486.426171875 950.95 486.65 951.3076171875 486.940234375 951.7 486.9 952.1255859375 486.8505859375 952.35 486.5 953.3376953125 485.3125 954.25 484.1 954.5033203125 483.7626953125 954.45 483.35 954.3865234375 482.9453125 954.05 482.7 953.71328125 482.44609375 953.3 482.5 952.8958984375 482.5640625 952.65 482.9 951.7623046875 484.0875 950.8 485.25
M 965.2 465.1
Q 964.7919921875 465.23828125 964.55 465.6 963.8373046875 466.8875 963.05 468.15 962.8310546875 468.5263671875 962.9 468.9 963.021484375 469.329296875 963.35 469.55 963.72578125 469.76953125 964.1 469.65 964.52890625 469.5779296875 964.75 469.2 965.5625 467.9125 966.3 466.6 966.5326171875 466.2431640625 966.4 465.85 966.312890625 465.4419921875 965.95 465.2 965.59453125 465.0171875 965.2 465.1
M 967.7 463.55
Q 968.1216796875 463.436328125 968.3 463.05 969.0751953125 461.7248046875 969.75 460.4 969.9701171875 460.06484375 969.85 459.65 969.7353515625 459.276171875 969.35 459.05 969.015234375 458.879296875 968.6 459 968.2267578125 459.11484375 968 459.45 967.3248046875 460.775 966.55 462.1 966.380078125 462.4828125 966.5 462.85 966.61328125 463.2724609375 966.95 463.45 967.3326171875 463.6705078125 967.7 463.55
M 971 457.3
Q 971.4146484375 457.1693359375 971.6 456.8 972.3001953125 455.3873046875 972.95 454 973.1337890625 453.6564453125 973 453.25 972.85546875 452.8828125 972.45 452.7 972.1078125 452.5162109375 971.7 452.65 971.3328125 452.795703125 971.15 453.15 970.4998046875 454.5125 969.8 455.9 969.616796875 456.2775390625 969.75 456.65 969.8802734375 457.065234375 970.25 457.25 970.6271484375 457.43359375 971 457.3 Z"/>
</g>

<g id="Duplicate_Items_Folder_fnfmf343434_copy_4_0_Layer1_0_FILL">
<path fill="#FFFFFF" stroke="none" d="
M 30 -15
Q 30 -30 15 -30
L -15 -30
Q -30 -30 -30 -15
L -30 15.05
Q -30 30.05 -15 30.05
L 15 30.05
Q 30 30.05 30 15.05
L 30 -15 Z"/>
</g>

<g id="Duplicate_Items_Folder_fnfmf343434_copy_6_0_Layer1_0_FILL">
<path fill="#FFFFFF" stroke="none" d="
M 30 -15
Q 30 -30 15 -30
L -15 -30
Q -30 -30 -30 -15
L -30 15.05
Q -30 30.05 -15 30.05
L 15 30.05
Q 30 30.05 30 15.05
L 30 -15 Z"/>
</g>

<g id="Duplicate_Items_Folder_fnfmf343434_copy_5_0_Layer1_0_FILL">
<path fill="#FFFFFF" stroke="none" d="
M 30 -15
Q 30 -30 15 -30
L -15 -30
Q -30 -30 -30 -15
L -30 15.05
Q -30 30.05 -15 30.05
L 15 30.05
Q 30 30.05 30 15.05
L 30 -15 Z"/>
</g>

<g id="Layer0_38_STROKES_1_FILL">
<path fill="#E50182" stroke="none" d="
M 626.05 562.65
Q 624.625 562.275 623.15 561.85 622.7685546875 561.7673828125 622.4 561.95 622.0375 562.1787109375 621.9 562.55 621.8171875 562.98125 622 563.35 622.22890625 563.7123046875 622.6 563.8 624.075 564.225 625.5 564.6 625.9314453125 564.732421875 626.3 564.5 626.6625 564.3212890625 626.75 563.9 626.8828125 563.5189453125 626.65 563.15 626.4708984375 562.7876953125 626.05 562.65
M 615.25 561.25
Q 615.4630859375 561.634375 615.85 561.75 617.3 562.2 618.75 562.65 619.151953125 562.770703125 619.5 562.55 619.884375 562.3876953125 620 562 620.1208984375 561.5986328125 619.9 561.2 619.7369140625 560.865625 619.35 560.75 617.9 560.3 616.45 559.85 616.048046875 559.729296875 615.65 559.9 615.3154296875 560.1125 615.2 560.5 615.0791015625 560.9013671875 615.25 561.25
M 613.3 559.85
Q 613.4337890625 559.49140625 613.25 559.1 613.0673828125 558.74453125 612.65 558.6 611.225 558.1 609.75 557.6 609.3921875 557.4666015625 609 557.65 608.644140625 557.8333984375 608.5 558.2 608.3662109375 558.60859375 608.55 558.95 608.7326171875 559.3552734375 609.1 559.5 610.575 560 612 560.5 612.4078125 560.6333984375 612.75 560.45 613.155859375 560.266796875 613.3 559.85
M 642.25 568.3
Q 642.4998046875 568.64375 642.9 568.7 644.4125 569.0251953125 645.9 569.25 646.3353515625 569.3421875 646.65 569.1 647.0095703125 568.8701171875 647.05 568.45 647.1423828125 568.0650390625 646.9 567.7 646.6697265625 567.390625 646.25 567.3 644.7875 567.074609375 643.3 566.75 642.8958984375 566.6943359375 642.55 566.9 642.205859375 567.1501953125 642.1 567.55 642.0439453125 567.9546875 642.25 568.3
M 636.7 565.35
Q 636.323828125 565.280859375 635.95 565.5 635.6208984375 565.7216796875 635.5 566.1 635.4306640625 566.525390625 635.65 566.85 635.8724609375 567.2291015625 636.25 567.3 637.5875 567.6251953125 638.9 567.85 639.3060546875 567.95546875 639.65 567.7 639.994921875 567.4986328125 640.05 567.1 640.1556640625 566.694140625 639.9 566.35 639.6984375 566.00546875 639.3 565.9 638.0125 565.674609375 636.7 565.35
M 628.8 565.2
Q 629.042578125 565.56328125 629.45 565.65 630.962109375 566.0751953125 632.5 566.4 632.9267578125 566.5189453125 633.25 566.3 633.6296875 566.0775390625 633.7 565.65 633.819140625 565.273828125 633.6 564.9 633.376953125 564.5705078125 632.95 564.45 631.4376953125 564.124609375 629.95 563.7 629.5546875 563.617578125 629.2 563.8 628.8365234375 564.0423828125 628.7 564.45 628.6173828125 564.8451171875 628.8 565.2
M 583.95 546.7
Q 583.58671875 546.516796875 583.2 546.65 582.8115234375 546.77890625 582.6 547.15 582.4291015625 547.5125 582.55 547.9 582.6798828125 548.30078125 583.05 548.5 584.4125 549.2001953125 585.75 549.85 586.143359375 550.0337890625 586.5 549.9 586.9171875 549.75546875 587.1 549.35 587.2837890625 549.0078125 587.15 548.6 587.004296875 548.2328125 586.6 548.05 585.2875 547.3998046875 583.95 546.7
M 589.55 549.75
Q 589.1828125 549.89453125 589 550.25 588.8162109375 550.6421875 588.95 551 589.095703125 551.4169921875 589.45 551.6 590.837109375 552.262890625 592.25 552.85 592.637890625 553.033984375 593 552.85 593.409765625 552.7255859375 593.55 552.35 593.7341796875 551.9634765625 593.55 551.55 593.4244140625 551.1904296875 593.05 551 591.662890625 550.4369140625 590.3 549.8 589.9564453125 549.6162109375 589.55 549.75
M 601.9 555.75
Q 601.7658203125 556.1646484375 601.9 556.55 602.09140625 556.9263671875 602.45 557.05 603.9 557.6375 605.3 558.15 605.70703125 558.28359375 606.05 558.1 606.4548828125 557.9177734375 606.6 557.5 606.733984375 557.14296875 606.55 556.75 606.367578125 556.3953125 605.95 556.25 604.6 555.762109375 603.2 555.2 602.8349609375 555.066015625 602.45 555.2 602.0734375 555.3912109375 601.9 555.75
M 600.05 554.3
Q 599.90859375 553.9236328125 599.5 553.75 598.1375 553.224609375 596.75 552.6 596.362109375 552.4658203125 595.95 552.6 595.590234375 552.7744140625 595.4 553.15 595.2658203125 553.53671875 595.4 553.9 595.5755859375 554.3095703125 595.95 554.45 597.3625 555.0751953125 598.75 555.6 599.1650390625 555.783984375 599.55 555.6 599.9265625 555.4587890625 600.05 555.05 600.2341796875 554.6853515625 600.05 554.3
M 576.9 543.4
Q 576.5115234375 543.52890625 576.3 543.9 576.1291015625 544.2625 576.25 544.65 576.3798828125 545.05078125 576.75 545.25 578.1 545.95 579.45 546.65 579.81328125 546.833203125 580.2 546.7 580.588671875 546.57109375 580.75 546.2 580.97109375 545.8376953125 580.85 545.45 580.7201171875 545.04921875 580.35 544.85 579 544.15 577.65 543.45 577.28671875 543.266796875 576.9 543.4
M 571.55 540
Q 571.1931640625 539.8171875 570.8 539.9 570.3919921875 540.0369140625 570.15 540.4 569.9671875 540.75546875 570.05 541.15 570.18828125 541.5580078125 570.55 541.75 571.85 542.525 573.15 543.25 573.5068359375 543.4826171875 573.9 543.35 574.308203125 543.262890625 574.5 542.9 574.7328125 542.54453125 574.6 542.15 574.5115234375 541.7419921875 574.15 541.5 572.85 540.775 571.55 540
M 525.2 503.95
Q 525.196484375 503.5392578125 524.9 503.25 524.25 502.6 523.6 501.95 523.25 501.6 522.9 501.25 522.6107421875 500.953515625 522.2 500.95 521.7892578125 500.953515625 521.5 501.25 521.203515625 501.5392578125 521.2 501.95 521.203515625 502.3607421875 521.5 502.65 521.85 503 522.2 503.35 522.85 504 523.5 504.65 523.7892578125 504.946484375 524.2 504.95 524.6107421875 504.946484375 524.9 504.65 525.196484375 504.3607421875 525.2 503.95
M 520.4 498.95
Q 520.41015625 498.55703125 520.1 498.25 519.0876953125 497.1623046875 518.1 496.05 517.815234375 495.7689453125 517.4 495.75 516.984765625 495.7255859375 516.65 496 516.36875 496.2837890625 516.35 496.7 516.3265625 497.1150390625 516.6 497.4 517.6123046875 498.5375 518.65 499.65 518.9623046875 499.9443359375 519.35 499.95 519.7935546875 499.960546875 520.1 499.65 520.3951171875 499.3880859375 520.4 498.95
M 563 535.05
Q 562.941796875 534.6734375 562.6 534.45 561.35 533.65 560.1 532.85 559.738671875 532.6314453125 559.3 532.7 558.923046875 532.807421875 558.7 533.15 558.4810546875 533.510546875 558.55 533.9 558.658203125 534.3265625 559 534.55 560.25 535.35 561.5 536.15 561.861328125 536.3685546875 562.25 536.25 562.676953125 536.192578125 562.9 535.85 563.119140625 535.4892578125 563 535.05
M 566.1 536.7
Q 565.753515625 536.494140625 565.35 536.55 564.9501953125 536.655859375 564.7 537 564.4939453125 537.3453125 564.55 537.75 564.6568359375 538.1494140625 565 538.35 565.7625 538.8880859375 566.5 539.35 566.775 539.5 567 539.65 567.3916015625 539.8697265625 567.8 539.75 568.193359375 539.66484375 568.4 539.3 568.6197265625 538.9470703125 568.5 538.55 568.426171875 538.156640625 568.05 537.95 567.825 537.8 567.55 537.65 566.8375 537.21171875 566.1 536.7
M 548.7 524.6
Q 548.391796875 524.36015625 547.95 524.4 547.573828125 524.448828125 547.3 524.75 547.059765625 525.1076171875 547.1 525.5 547.1494140625 525.9255859375 547.45 526.15 548.6875 527.1376953125 549.9 528.05 550.2373046875 528.3033203125 550.65 528.25 551.0546875 528.1865234375 551.3 527.85 551.55390625 527.51328125 551.5 527.1 551.4357421875 526.6958984375 551.1 526.45 549.9125 525.5623046875 548.7 524.6
M 557.1 532
Q 557.3421875 531.698046875 557.25 531.3 557.2099609375 530.89375 556.85 530.65 555.625 529.75 554.35 528.85 554.048046875 528.6087890625 553.65 528.65 553.24296875 528.7400390625 553 529.05 552.7580078125 529.401953125 552.8 529.8 552.8900390625 530.20625 553.2 530.45 554.475 531.35 555.7 532.25 556.051953125 532.4912109375 556.45 532.4 556.8572265625 532.36015625 557.1 532
M 545.9 522.75
Q 545.85234375 522.340234375 545.5 522.05 544.375 521.125 543.2 520.15 542.9078125 519.911328125 542.5 519.95 542.089453125 519.997265625 541.8 520.3 541.560546875 520.641796875 541.6 521.05 541.6474609375 521.459765625 541.95 521.7 543.125 522.675 544.25 523.6 544.5921875 523.8884765625 545 523.85 545.410546875 523.802734375 545.65 523.45 545.9392578125 523.1580078125 545.9 522.75
M 536.25 516.45
Q 536.2828125 516.880859375 536.6 517.15 537.75 518.15 538.9 519.15 539.2130859375 519.4244140625 539.6 519.4 540.0318359375 519.3671875 540.3 519.05 540.5755859375 518.737109375 540.55 518.3 540.5169921875 517.919140625 540.2 517.65 539.05 516.65 537.9 515.65 537.5869140625 515.375390625 537.15 515.4 536.7681640625 515.4328125 536.5 515.75 536.2244140625 516.0630859375 536.25 516.45
M 534.9 513
Q 533.8375 512.0123046875 532.75 510.95 532.4427734375 510.6896484375 532 510.7 531.6119140625 510.7048828125 531.3 511 531.0392578125 511.30625 531.05 511.7 531.0556640625 512.1376953125 531.35 512.4 532.4623046875 513.4876953125 533.55 514.5 533.884765625 514.7734375 534.3 514.75 534.7162109375 514.73125 535 514.4 535.2744140625 514.115234375 535.25 513.7 535.2310546875 513.2845703125 534.9 513
M 527.7 506.1
Q 527.4107421875 505.803515625 527 505.8 526.5892578125 505.803515625 526.3 506.1 526.003515625 506.3892578125 526 506.8 526.003515625 507.2107421875 526.3 507.5 527.349609375 508.5625 528.45 509.6 528.75703125 509.91015625 529.15 509.9 529.5880859375 509.8951171875 529.85 509.6 530.160546875 509.2935546875 530.15 508.85 530.1443359375 508.4623046875 529.85 508.15 528.7501953125 507.1375 527.7 506.1
M 512 490.7
Q 511.6828125 490.9681640625 511.65 491.35 511.625390625 491.7869140625 511.9 492.1 512.8998046875 493.2625 513.95 494.4 514.2341796875 494.73046875 514.65 494.75 515.065234375 494.7744140625 515.35 494.5 515.68125 494.2162109375 515.7 493.8 515.7240234375 493.3853515625 515.45 493.05 514.4 491.9375 513.4 490.8 513.130859375 490.4828125 512.7 490.45 512.3130859375 490.4244140625 512 490.7
M 511 488.45
Q 511.03984375 488.058203125 510.75 487.7 509.825 486.5248046875 508.85 485.35 508.609765625 485.0474609375 508.2 485 507.791796875 484.960546875 507.45 485.2 507.147265625 485.489453125 507.1 485.9 507.061328125 486.3078125 507.3 486.6 508.275 487.775 509.2 488.95 509.4744140625 489.3005859375 509.85 489.35 510.2923828125 489.390234375 510.6 489.1 510.951171875 488.876171875 511 488.45
M 504.6 479.8
Q 504.3541015625 479.4640625 503.95 479.4 503.53671875 479.34609375 503.2 479.6 502.8634765625 479.8453125 502.8 480.25 502.746484375 480.6626953125 503 481 503.9123046875 482.2125 504.85 483.4 505.1244140625 483.7505859375 505.5 483.8 505.9423828125 483.840234375 506.25 483.55 506.601171875 483.326171875 506.65 482.9 506.68984375 482.508203125 506.4 482.15 505.4876953125 480.9875 504.6 479.8
M 500.5 474.05
Q 500.2984375 473.70625 499.9 473.6 499.4939453125 473.5443359375 499.15 473.75 498.805078125 474.0015625 498.7 474.4 498.6443359375 474.8048828125 498.85 475.15 499.737109375 476.4123046875 500.65 477.65 500.89375 478.0099609375 501.3 478.05 501.698046875 478.1421875 502 477.9 502.36015625 477.6572265625 502.4 477.25 502.4912109375 476.851953125 502.25 476.5 501.3625 475.2873046875 500.5 474.05
M 496 467.7
Q 495.610546875 467.6310546875 495.25 467.85 494.907421875 468.073046875 494.8 468.45 494.7314453125 468.888671875 494.95 469.25 495.7623046875 470.5 496.6 471.75 496.8515625 472.09375 497.25 472.15 497.6560546875 472.2556640625 498 472 498.344921875 471.7986328125 498.4 471.4 498.50546875 470.9951171875 498.25 470.65 497.437890625 469.4 496.65 468.15 496.4265625 467.808203125 496 467.7
M 493.05 462.1
Q 492.8580078125 461.73828125 492.45 461.6 492.05546875 461.5171875 491.7 461.7 491.3369140625 461.9419921875 491.2 462.35 491.1171875 462.7431640625 491.3 463.1 492.075 464.4 492.8 465.7 493.0419921875 466.0615234375 493.45 466.15 493.84453125 466.2828125 494.2 466.05 494.562890625 465.858203125 494.65 465.45 494.7826171875 465.0568359375 494.55 464.7 493.825 463.4 493.05 462.1
M 489.8 455.85
Q 489.6169921875 455.495703125 489.2 455.35 488.8421875 455.2162109375 488.45 455.4 488.09453125 455.5828125 487.95 455.95 487.8162109375 456.3564453125 488 456.7 488.6498046875 458.0875 489.35 459.45 489.54921875 459.8201171875 489.95 459.95 490.3376953125 460.07109375 490.7 459.85 491.07109375 459.688671875 491.2 459.3 491.333203125 458.91328125 491.15 458.55 490.4501953125 457.2125 489.8 455.85
M 486.8 449.4
Q 486.6595703125 449.0255859375 486.25 448.85 485.88671875 448.7158203125 485.5 448.85 485.1244140625 449.040234375 484.95 449.4 484.8158203125 449.812109375 484.95 450.2 485.5873046875 451.6125 486.25 453 486.4189453125 453.403125 486.8 453.55 487.1931640625 453.683984375 487.55 453.5 487.9541015625 453.33125 488.1 452.95 488.2337890625 452.5578125 488.05 452.15 487.4126953125 450.7873046875 486.8 449.4
M 651.1 568.35
Q 650.8107421875 568.053515625 650.4 568.05 650.25 568.05 650.1 568.05 649.6892578125 568.053515625 649.4 568.35 649.103515625 568.6392578125 649.1 569.05 649.103515625 569.4607421875 649.4 569.75 649.6892578125 570.046484375 650.1 570.05 650.25 570.05 650.4 570.05 650.8107421875 570.046484375 651.1 569.75 651.396484375 569.4607421875 651.4 569.05 651.396484375 568.6392578125 651.1 568.35 Z"/>
</g>

<g id="Duplicate_Items_Folder_fnfmf343434_copy_7_0_Layer1_0_FILL">
<path fill="#FFFFFF" stroke="none" d="
M 30 -15
Q 30 -30 15 -30
L -15 -30
Q -30 -30 -30 -15
L -30 15.05
Q -30 30.05 -15 30.05
L 15 30.05
Q 30 30.05 30 15.05
L 30 -15 Z"/>
</g>

<g id="Duplicate_Items_Folder_fnfmf343434_copy_9_0_Layer1_0_FILL">
<path fill="#FFFFFF" stroke="none" d="
M 30 -15
Q 30 -30 15 -30
L -15 -30
Q -30 -30 -30 -15
L -30 15.05
Q -30 30.05 -15 30.05
L 15 30.05
Q 30 30.05 30 15.05
L 30 -15 Z"/>
</g>

<g id="Duplicate_Items_Folder_fnfmf343434_copy_75_0_Layer1_0_FILL">
<path fill="#FFFFFF" stroke="none" d="
M 30 -15
Q 30 -30 15 -30
L -15 -30
Q -30 -30 -30 -15
L -30 15.05
Q -30 30.05 -15 30.05
L 15 30.05
Q 30 30.05 30 15.05
L 30 -15 Z"/>
</g>

<g id="Duplicate_Items_Folder_fnfmf343434_copy_10_0_Layer1_0_FILL">
<path fill="#FFFFFF" stroke="none" d="
M 30 -15
Q 30 -30 15 -30
L -15 -30
Q -30 -30 -30 -15
L -30 15.05
Q -30 30.05 -15 30.05
L 15 30.05
Q 30 30.05 30 15.05
L 30 -15 Z"/>
</g>

<g id="Duplicate_Items_Folder_fnfmf343434_copy_12_0_Layer1_0_FILL">
<path fill="#FFFFFF" stroke="none" d="
M 30 -15
Q 30 -30 15 -30
L -15 -30
Q -30 -30 -30 -15
L -30 15.05
Q -30 30.05 -15 30.05
L 15 30.05
Q 30 30.05 30 15.05
L 30 -15 Z"/>
</g>

<g id="Duplicate_Items_Folder_fnfmf343434_copy_11_0_Layer1_0_FILL">
<path fill="#FFFFFF" stroke="none" d="
M 30 -15
Q 30 -30 15 -30
L -15 -30
Q -30 -30 -30 -15
L -30 15.05
Q -30 30.05 -15 30.05
L 15 30.05
Q 30 30.05 30 15.05
L 30 -15 Z"/>
</g>

<g id="Duplicate_Items_Folder_fnfmf343434_copy_13_0_Layer1_0_FILL">
<path fill="#FFFFFF" stroke="none" d="
M 30 -15
Q 30 -30 15 -30
L -15 -30
Q -30 -30 -30 -15
L -30 15.05
Q -30 30.05 -15 30.05
L 15 30.05
Q 30 30.05 30 15.05
L 30 -15 Z"/>
</g>

<g id="Duplicate_Items_Folder_fnfmf343434_copy_18_0_Layer1_0_FILL">
<path fill="#FFFFFF" stroke="none" d="
M 30 -15
Q 30 -30 15 -30
L -15 -30
Q -30 -30 -30 -15
L -30 15.05
Q -30 30.05 -15 30.05
L 15 30.05
Q 30 30.05 30 15.05
L 30 -15 Z"/>
</g>

<g id="Duplicate_Items_Folder_fnfmf343434_copy_79_0_Layer1_0_FILL">
<path fill="#FFFFFF" stroke="none" d="
M 30 -15
Q 30 -30 15 -30
L -15 -30
Q -30 -30 -30 -15
L -30 15.05
Q -30 30.05 -15 30.05
L 15 30.05
Q 30 30.05 30 15.05
L 30 -15 Z"/>
</g>

<g id="Layer0_51_FILL">
<path fill="#0EA6E9" stroke="none" d="
M 276.9 -11.5
L 270.65 -8.45 286.25 -4.9 277.6 -18.5 276.9 -11.5 Z"/>
</g>

<g id="Layer0_52_FILL">
<path fill="#E50182" stroke="none" d="
M 56.05 13.25
L 43.65 3.15 45.3 19.15 49.1 13.2 56.05 13.25 Z"/>
</g>

<path id="Layer0_0_1_STROKES" stroke="#332D2B" stroke-width="3" stroke-linejoin="round" stroke-linecap="butt" fill="none" d="
M 11.15 148.55
L 11.15 163.4 1033.75 163.4
M 11.15 163.4
L 11.15 178.25"/>

<path id="Layer0_1_1_STROKES" stroke="#332D2B" stroke-width="2" stroke-linejoin="round" stroke-linecap="butt" fill="none" d="
M 266.5 320.8
L 266.5 342.1"/>

<path id="Layer0_2_1_STROKES" stroke="#332D2B" stroke-width="2" stroke-linejoin="round" stroke-linecap="butt" fill="none" d="
M 266.5 320.8
L 266.5 342.1"/>

<path id="Layer0_3_1_STROKES" stroke="#332D2B" stroke-width="3" stroke-linejoin="round" stroke-linecap="butt" fill="none" d="
M 1060.45 316.6
L 1060.45 346.3"/>

<path id="Layer0_4_1_STROKES" stroke="#332D2B" stroke-width="2" stroke-linejoin="round" stroke-linecap="butt" fill="none" d="
M 266.5 320.8
L 266.5 342.1"/>

<path id="Layer0_5_1_STROKES" stroke="#332D2B" stroke-width="2" stroke-linejoin="round" stroke-linecap="butt" fill="none" d="
M 266.5 320.8
L 266.5 342.1"/>

<path id="Layer0_6_1_STROKES" stroke="#332D2B" stroke-width="2" stroke-linejoin="round" stroke-linecap="butt" fill="none" d="
M 266.5 320.8
L 266.5 342.1"/>

<path id="Layer0_7_1_STROKES" stroke="#332D2B" stroke-width="2" stroke-linejoin="round" stroke-linecap="butt" fill="none" d="
M 266.5 320.8
L 266.5 342.1"/>

<path id="Layer0_8_1_STROKES" stroke="#332D2B" stroke-width="2" stroke-linejoin="round" stroke-linecap="butt" fill="none" d="
M 266.5 320.8
L 266.5 342.1"/>

<path id="Layer0_9_1_STROKES" stroke="#332D2B" stroke-width="2" stroke-linejoin="round" stroke-linecap="butt" fill="none" d="
M 266.5 320.8
L 266.5 342.1"/>

<path id="Layer0_10_1_STROKES" stroke="#332D2B" stroke-width="2" stroke-linejoin="round" stroke-linecap="butt" fill="none" d="
M 266.5 320.8
L 266.5 342.1"/>

<path id="Layer0_11_1_STROKES" stroke="#332D2B" stroke-width="2" stroke-linejoin="round" stroke-linecap="butt" fill="none" d="
M 266.5 320.8
L 266.5 342.1"/>

<path id="Layer0_12_1_STROKES" stroke="#332D2B" stroke-width="2" stroke-linejoin="round" stroke-linecap="butt" fill="none" d="
M 266.5 320.8
L 266.5 342.1"/>

<path id="Layer0_13_1_STROKES" stroke="#332D2B" stroke-width="2" stroke-linejoin="round" stroke-linecap="butt" fill="none" d="
M 266.5 320.8
L 266.5 342.1"/>

<path id="Layer0_14_1_STROKES" stroke="#332D2B" stroke-width="2" stroke-linejoin="round" stroke-linecap="butt" fill="none" d="
M 266.5 320.8
L 266.5 342.1"/>

<path id="Layer0_15_1_STROKES" stroke="#332D2B" stroke-width="2" stroke-linejoin="round" stroke-linecap="butt" fill="none" d="
M 266.5 320.8
L 266.5 342.1"/>

<path id="Layer0_16_1_STROKES" stroke="#332D2B" stroke-width="2" stroke-linejoin="round" stroke-linecap="butt" fill="none" d="
M 266.5 320.8
L 266.5 342.1"/>

<path id="Layer0_17_1_STROKES" stroke="#332D2B" stroke-width="2" stroke-linejoin="round" stroke-linecap="butt" fill="none" d="
M 266.5 320.8
L 266.5 342.1"/>

<path id="Layer0_18_1_STROKES" stroke="#332D2B" stroke-width="2" stroke-linejoin="round" stroke-linecap="butt" fill="none" d="
M 266.5 320.8
L 266.5 342.1"/>

<path id="Layer0_19_1_STROKES" stroke="#332D2B" stroke-width="2" stroke-linejoin="round" stroke-linecap="butt" fill="none" d="
M 266.5 320.8
L 266.5 342.1"/>

<path id="Layer0_20_1_STROKES" stroke="#332D2B" stroke-width="2" stroke-linejoin="round" stroke-linecap="butt" fill="none" d="
M 266.5 320.8
L 266.5 342.1"/>

<path id="Layer0_21_1_STROKES" stroke="#332D2B" stroke-width="2" stroke-linejoin="round" stroke-linecap="butt" fill="none" d="
M 266.5 320.8
L 266.5 342.1"/>

<path id="Layer0_22_1_STROKES" stroke="#332D2B" stroke-width="3" stroke-linejoin="round" stroke-linecap="butt" fill="none" d="
M 1060.45 316.6
L 1060.45 346.3"/>

<path id="Layer0_23_1_STROKES" stroke="#332D2B" stroke-width="3" stroke-linejoin="round" stroke-linecap="butt" fill="none" d="
M 1060.45 316.6
L 1060.45 346.3"/>

<path id="Layer0_24_1_STROKES" stroke="#332D2B" stroke-width="3" stroke-linejoin="round" stroke-linecap="butt" fill="none" d="
M 1060.45 316.6
L 1060.45 346.3"/>

<path id="Layer0_25_1_STROKES" stroke="#332D2B" stroke-width="3" stroke-linejoin="round" stroke-linecap="butt" fill="none" d="
M 1060.45 316.6
L 1060.45 346.3"/>

<path id="Layer0_26_1_STROKES" stroke="#332D2B" stroke-width="3" stroke-linejoin="round" stroke-linecap="butt" fill="none" d="
M 1060.45 316.6
L 1060.45 346.3"/>

<path id="Layer0_27_1_STROKES" stroke="#332D2B" stroke-width="3" stroke-linejoin="round" stroke-linecap="butt" fill="none" d="
M 1060.45 316.6
L 1060.45 346.3"/>

<path id="Duplicate_Items_Folder_fnfmf343434_copy_0_Layer1_0_1_STROKES" stroke="#DBDBDB" stroke-width="3" stroke-linejoin="round" stroke-linecap="round" fill="none" d="
M -15 -30
L 15 -30
Q 30 -30 30 -15
L 30 15.05
Q 30 30.05 15 30.05
L -15 30.05
Q -30 30.05 -30 15.05
L -30 -15
Q -30 -30 -15 -30 Z"/>

<path id="Layer0_29_1_STROKES" stroke="#1E1E1E" stroke-width="3" stroke-linejoin="miter" stroke-linecap="butt" stroke-miterlimit="3" fill="none" d="
M 434.50104980468745 71
L 497.27057189941434 71"/>

<path id="Duplicate_Items_Folder_fnfmf343434_copy_3_0_Layer1_0_1_STROKES" stroke="#DBDBDB" stroke-width="3" stroke-linejoin="round" stroke-linecap="round" fill="none" d="
M -15 -30
L 15 -30
Q 30 -30 30 -15
L 30 15.05
Q 30 30.05 15 30.05
L -15 30.05
Q -30 30.05 -30 15.05
L -30 -15
Q -30 -30 -15 -30 Z"/>

<path id="Duplicate_Items_Folder_fnfmf343434_copy_73_0_Layer1_0_1_STROKES" stroke="#DBDBDB" stroke-width="3" stroke-linejoin="round" stroke-linecap="round" fill="none" d="
M -15 -30
L 15 -30
Q 30 -30 30 -15
L 30 15.05
Q 30 30.05 15 30.05
L -15 30.05
Q -30 30.05 -30 15.05
L -30 -15
Q -30 -30 -15 -30 Z"/>

<path id="Duplicate_Items_Folder_fnfmf343434_copy_4_0_Layer1_0_1_STROKES" stroke="#DBDBDB" stroke-width="3" stroke-linejoin="round" stroke-linecap="round" fill="none" d="
M -15 -30
L 15 -30
Q 30 -30 30 -15
L 30 15.05
Q 30 30.05 15 30.05
L -15 30.05
Q -30 30.05 -30 15.05
L -30 -15
Q -30 -30 -15 -30 Z"/>

<path id="Layer0_35_1_STROKES" stroke="#1E1E1E" stroke-width="3" stroke-linejoin="miter" stroke-linecap="butt" stroke-miterlimit="3" fill="none" d="
M 593.2010498046873 291.95
L 655.9705718994142 291.95"/>

<path id="Duplicate_Items_Folder_fnfmf343434_copy_6_0_Layer1_0_1_STROKES" stroke="#DBDBDB" stroke-width="3" stroke-linejoin="round" stroke-linecap="round" fill="none" d="
M -15 -30
L 15 -30
Q 30 -30 30 -15
L 30 15.05
Q 30 30.05 15 30.05
L -15 30.05
Q -30 30.05 -30 15.05
L -30 -15
Q -30 -30 -15 -30 Z"/>

<path id="Duplicate_Items_Folder_fnfmf343434_copy_5_0_Layer1_0_1_STROKES" stroke="#DBDBDB" stroke-width="3" stroke-linejoin="round" stroke-linecap="round" fill="none" d="
M -15 -30
L 15 -30
Q 30 -30 30 -15
L 30 15.05
Q 30 30.05 15 30.05
L -15 30.05
Q -30 30.05 -30 15.05
L -30 -15
Q -30 -30 -15 -30 Z"/>

<path id="Duplicate_Items_Folder_fnfmf343434_copy_7_0_Layer1_0_1_STROKES" stroke="#DBDBDB" stroke-width="3" stroke-linejoin="round" stroke-linecap="round" fill="none" d="
M -15 -30
L 15 -30
Q 30 -30 30 -15
L 30 15.05
Q 30 30.05 15 30.05
L -15 30.05
Q -30 30.05 -30 15.05
L -30 -15
Q -30 -30 -15 -30 Z"/>

<path id="Layer0_40_1_STROKES" stroke="#1E1E1E" stroke-width="3" stroke-linejoin="miter" stroke-linecap="butt" stroke-miterlimit="3" fill="none" d="
M 340.0510498046874 494.7
L 402.8205718994143 494.7"/>

<path id="Duplicate_Items_Folder_fnfmf343434_copy_9_0_Layer1_0_1_STROKES" stroke="#DBDBDB" stroke-width="3" stroke-linejoin="round" stroke-linecap="round" fill="none" d="
M -15 -30
L 15 -30
Q 30 -30 30 -15
L 30 15.05
Q 30 30.05 15 30.05
L -15 30.05
Q -30 30.05 -30 15.05
L -30 -15
Q -30 -30 -15 -30 Z"/>

<path id="Duplicate_Items_Folder_fnfmf343434_copy_75_0_Layer1_0_1_STROKES" stroke="#DBDBDB" stroke-width="3" stroke-linejoin="round" stroke-linecap="round" fill="none" d="
M -15 -30
L 15 -30
Q 30 -30 30 -15
L 30 15.05
Q 30 30.05 15 30.05
L -15 30.05
Q -30 30.05 -30 15.05
L -30 -15
Q -30 -30 -15 -30 Z"/>

<path id="Duplicate_Items_Folder_fnfmf343434_copy_10_0_Layer1_0_1_STROKES" stroke="#DBDBDB" stroke-width="3" stroke-linejoin="round" stroke-linecap="round" fill="none" d="
M -15 -30
L 15 -30
Q 30 -30 30 -15
L 30 15.05
Q 30 30.05 15 30.05
L -15 30.05
Q -30 30.05 -30 15.05
L -30 -15
Q -30 -30 -15 -30 Z"/>

<path id="Layer0_44_1_STROKES" stroke="#1E1E1E" stroke-width="3" stroke-linejoin="miter" stroke-linecap="butt" stroke-miterlimit="3" fill="none" d="
M 519.9010498046873 494.7
L 582.6705718994142 494.7"/>

<path id="Duplicate_Items_Folder_fnfmf343434_copy_12_0_Layer1_0_1_STROKES" stroke="#DBDBDB" stroke-width="3" stroke-linejoin="round" stroke-linecap="round" fill="none" d="
M -15 -30
L 15 -30
Q 30 -30 30 -15
L 30 15.05
Q 30 30.05 15 30.05
L -15 30.05
Q -30 30.05 -30 15.05
L -30 -15
Q -30 -30 -15 -30 Z"/>

<path id="Duplicate_Items_Folder_fnfmf343434_copy_11_0_Layer1_0_1_STROKES" stroke="#DBDBDB" stroke-width="3" stroke-linejoin="round" stroke-linecap="round" fill="none" d="
M -15 -30
L 15 -30
Q 30 -30 30 -15
L 30 15.05
Q 30 30.05 15 30.05
L -15 30.05
Q -30 30.05 -30 15.05
L -30 -15
Q -30 -30 -15 -30 Z"/>

<path id="Duplicate_Items_Folder_fnfmf343434_copy_13_0_Layer1_0_1_STROKES" stroke="#DBDBDB" stroke-width="3" stroke-linejoin="round" stroke-linecap="round" fill="none" d="
M -15 -30
L 15 -30
Q 30 -30 30 -15
L 30 15.05
Q 30 30.05 15 30.05
L -15 30.05
Q -30 30.05 -30 15.05
L -30 -15
Q -30 -30 -15 -30 Z"/>

<path id="Layer0_48_1_STROKES" stroke="#1E1E1E" stroke-width="3" stroke-linejoin="miter" stroke-linecap="butt" stroke-miterlimit="3" fill="none" d="
M 708.8510498046874 494.7
L 771.6205718994142 494.7"/>

<path id="Duplicate_Items_Folder_fnfmf343434_copy_18_0_Layer1_0_1_STROKES" stroke="#DBDBDB" stroke-width="3" stroke-linejoin="round" stroke-linecap="round" fill="none" d="
M -15 -30
L 15 -30
Q 30 -30 30 -15
L 30 15.05
Q 30 30.05 15 30.05
L -15 30.05
Q -30 30.05 -30 15.05
L -30 -15
Q -30 -30 -15 -30 Z"/>

<path id="Duplicate_Items_Folder_fnfmf343434_copy_79_0_Layer1_0_1_STROKES" stroke="#DBDBDB" stroke-width="3" stroke-linejoin="round" stroke-linecap="round" fill="none" d="
M -15 -30
L 15 -30
Q 30 -30 30 -15
L 30 15.05
Q 30 30.05 15 30.05
L -15 30.05
Q -30 30.05 -30 15.05
L -30 -15
Q -30 -30 -15 -30 Z"/>
</defs>

<g transform="matrix( 1, 0, 0, 1, 0,0) ">
<use xlink:href="#Layer0_0_FILL"/>

<use xlink:href="#Layer0_0_1_STROKES"/>
</g>

<g transform="matrix( 1, 0, 0, 1, -205,-168.05) ">
<use xlink:href="#Layer0_1_1_STROKES"/>
</g>

<g transform="matrix( 1, 0, 0, 1, 646,-168.05) ">
<use xlink:href="#Layer0_2_1_STROKES"/>
</g>

<g transform="matrix( 1, 0, 0, 1, -799,-168.05) ">
<use xlink:href="#Layer0_3_1_STROKES"/>
</g>

<g transform="matrix( 1, 0, 0, 1, -155,-168.05) ">
<use xlink:href="#Layer0_4_1_STROKES"/>
</g>

<g transform="matrix( 1, 0, 0, 1, -105,-168.05) ">
<use xlink:href="#Layer0_5_1_STROKES"/>
</g>

<g transform="matrix( 1, 0, 0, 1, -55,-168.05) ">
<use xlink:href="#Layer0_6_1_STROKES"/>
</g>

<g transform="matrix( 1, 0, 0, 1, -5,-168.05) ">
<use xlink:href="#Layer0_7_1_STROKES"/>
</g>

<g transform="matrix( 1, 0, 0, 1, 45,-168.05) ">
<use xlink:href="#Layer0_8_1_STROKES"/>
</g>

<g transform="matrix( 1, 0, 0, 1, 95,-168.05) ">
<use xlink:href="#Layer0_9_1_STROKES"/>
</g>

<g transform="matrix( 1, 0, 0, 1, 145,-168.05) ">
<use xlink:href="#Layer0_10_1_STROKES"/>
</g>

<g transform="matrix( 1, 0, 0, 1, 195,-168.05) ">
<use xlink:href="#Layer0_11_1_STROKES"/>
</g>

<g transform="matrix( 1, 0, 0, 1, 245,-168.05) ">
<use xlink:href="#Layer0_12_1_STROKES"/>
</g>

<g transform="matrix( 1, 0, 0, 1, 295,-168.05) ">
<use xlink:href="#Layer0_13_1_STROKES"/>
</g>

<g transform="matrix( 1, 0, 0, 1, 345,-168.05) ">
<use xlink:href="#Layer0_14_1_STROKES"/>
</g>

<g transform="matrix( 1, 0, 0, 1, 395,-168.05) ">
<use xlink:href="#Layer0_15_1_STROKES"/>
</g>

<g transform="matrix( 1, 0, 0, 1, 445,-168.05) ">
<use xlink:href="#Layer0_16_1_STROKES"/>
</g>

<g transform="matrix( 1, 0, 0, 1, 495,-168.05) ">
<use xlink:href="#Layer0_17_1_STROKES"/>
</g>

<g transform="matrix( 1, 0, 0, 1, 545,-168.05) ">
<use xlink:href="#Layer0_18_1_STROKES"/>
</g>

<g transform="matrix( 1, 0, 0, 1, 595,-168.05) ">
<use xlink:href="#Layer0_19_1_STROKES"/>
</g>

<g transform="matrix( 1, 0, 0, 1, 695,-168.05) ">
<use xlink:href="#Layer0_20_1_STROKES"/>
</g>

<g transform="matrix( 1, 0, 0, 1, 745,-168.05) ">
<use xlink:href="#Layer0_21_1_STROKES"/>
</g>

<g transform="matrix( 1, 0, 0, 1, -549,-168.05) ">
<use xlink:href="#Layer0_22_1_STROKES"/>
</g>

<g transform="matrix( 1, 0, 0, 1, -549,-168.05) ">
<use xlink:href="#Layer0_23_1_STROKES"/>
</g>

<g transform="matrix( 1, 0, 0, 1, -299,-168.05) ">
<use xlink:href="#Layer0_24_1_STROKES"/>
</g>

<g transform="matrix( 1, 0, 0, 1, -299,-168.05) ">
<use xlink:href="#Layer0_25_1_STROKES"/>
</g>

<g transform="matrix( 1, 0, 0, 1, -49,-168.05) ">
<use xlink:href="#Layer0_26_1_STROKES"/>
</g>

<g transform="matrix( 1, 0, 0, 1, -49,-168.05) ">
<use xlink:href="#Layer0_27_1_STROKES"/>
</g>

<g transform="matrix( 1, 0, 0, 1, 396.85,71.5) ">
<g transform="matrix( 1, 0, 0, 1, 0,0) ">
<use xlink:href="#Duplicate_Items_Folder_fnfmf343434_copy_0_Layer1_0_FILL"/>

<use xlink:href="#Duplicate_Items_Folder_fnfmf343434_copy_0_Layer1_0_1_STROKES"/>
</g>
</g>

<g transform="matrix( 1.51800537109375, 0, 0, 1, -1331.85,-300.5) ">
<use xlink:href="#Layer0_29_1_STROKES" transform="matrix( 0.65875244140625, 0, 0, 0.9999847412109375, 877.35,300.45) "/>
</g>

<g transform="matrix( 1, 0, 0, 1, 466.85,111.5) ">
<g transform="matrix( 1, 0, 0, 1, 0,0) ">
<use xlink:href="#Duplicate_Items_Folder_fnfmf343434_copy_3_0_Layer1_0_FILL"/>

<use xlink:href="#Duplicate_Items_Folder_fnfmf343434_copy_3_0_Layer1_0_1_STROKES"/>
</g>
</g>

<g transform="matrix( 1, 0, 0, 1, 466.85,31.5) ">
<g transform="matrix( 1, 0, 0, 1, 0,0) ">
<use xlink:href="#Duplicate_Items_Folder_fnfmf343434_copy_73_0_Layer1_0_FILL"/>

<use xlink:href="#Duplicate_Items_Folder_fnfmf343434_copy_73_0_Layer1_0_1_STROKES"/>
</g>
</g>

<g transform="matrix( 1, 0, 0, 1, -118.2,-278.05) ">
<use xlink:href="#Layer0_32_STROKES_1_FILL"/>
</g>

<g transform="matrix( 1.1279296875, 0, 0, 1, -243.05,-278.05) ">
<use xlink:href="#Layer0_33_STROKES_1_FILL"/>
</g>

<g transform="matrix( 1, 0, 0, 1, 555.55,292.45) ">
<g transform="matrix( 1, 0, 0, 1, 0,0) ">
<use xlink:href="#Duplicate_Items_Folder_fnfmf343434_copy_4_0_Layer1_0_FILL"/>

<use xlink:href="#Duplicate_Items_Folder_fnfmf343434_copy_4_0_Layer1_0_1_STROKES"/>
</g>
</g>

<g transform="matrix( 1.51800537109375, 0, 0, 1, -1173.15,-79.55) ">
<use xlink:href="#Layer0_35_1_STROKES" transform="matrix( 0.65875244140625, 0, 0, 0.9999847412109375, 772.8,79.5) "/>
</g>

<g transform="matrix( 1, 0, 0, 1, 625.55,332.45) ">
<g transform="matrix( 1, 0, 0, 1, 0,0) ">
<use xlink:href="#Duplicate_Items_Folder_fnfmf343434_copy_6_0_Layer1_0_FILL"/>

<use xlink:href="#Duplicate_Items_Folder_fnfmf343434_copy_6_0_Layer1_0_1_STROKES"/>
</g>
</g>

<g transform="matrix( 1, 0, 0, 1, 625.55,252.45) ">
<g transform="matrix( 1, 0, 0, 1, 0,0) ">
<use xlink:href="#Duplicate_Items_Folder_fnfmf343434_copy_5_0_Layer1_0_FILL"/>

<use xlink:href="#Duplicate_Items_Folder_fnfmf343434_copy_5_0_Layer1_0_1_STROKES"/>
</g>
</g>

<g transform="matrix( 1.1696624755859375, 0, 0, 1, -250.45,-278.05) ">
<use xlink:href="#Layer0_38_STROKES_1_FILL"/>
</g>

<g transform="matrix( 1, 0, 0, 1, 302.05,495.2) ">
<g transform="matrix( 1, 0, 0, 1, 0,0) ">
<use xlink:href="#Duplicate_Items_Folder_fnfmf343434_copy_7_0_Layer1_0_FILL"/>

<use xlink:href="#Duplicate_Items_Folder_fnfmf343434_copy_7_0_Layer1_0_1_STROKES"/>
</g>
</g>

<g transform="matrix( 1.51800537109375, 0, 0, 1, -1426.3,123.2) ">
<use xlink:href="#Layer0_40_1_STROKES" transform="matrix( 0.65875244140625, 0, 0, 0.9999847412109375, 939.55,-123.2) "/>
</g>

<g transform="matrix( 1, 0, 0, 1, 372.4,535.2) ">
<g transform="matrix( 1, 0, 0, 1, 0,0) ">
<use xlink:href="#Duplicate_Items_Folder_fnfmf343434_copy_9_0_Layer1_0_FILL"/>

<use xlink:href="#Duplicate_Items_Folder_fnfmf343434_copy_9_0_Layer1_0_1_STROKES"/>
</g>
</g>

<g transform="matrix( 1, 0, 0, 1, 372.4,455.2) ">
<g transform="matrix( 1, 0, 0, 1, 0,0) ">
<use xlink:href="#Duplicate_Items_Folder_fnfmf343434_copy_75_0_Layer1_0_FILL"/>

<use xlink:href="#Duplicate_Items_Folder_fnfmf343434_copy_75_0_Layer1_0_1_STROKES"/>
</g>
</g>

<g transform="matrix( 1, 0, 0, 1, 481.9,495.2) ">
<g transform="matrix( 1, 0, 0, 1, 0,0) ">
<use xlink:href="#Duplicate_Items_Folder_fnfmf343434_copy_10_0_Layer1_0_FILL"/>

<use xlink:href="#Duplicate_Items_Folder_fnfmf343434_copy_10_0_Layer1_0_1_STROKES"/>
</g>
</g>

<g transform="matrix( 1.51800537109375, 0, 0, 1, -1246.45,123.2) ">
<use xlink:href="#Layer0_44_1_STROKES" transform="matrix( 0.65875244140625, 0, 0, 0.9999847412109375, 821.1,-123.2) "/>
</g>

<g transform="matrix( 1, 0, 0, 1, 552.25,535.2) ">
<g transform="matrix( 1, 0, 0, 1, 0,0) ">
<use xlink:href="#Duplicate_Items_Folder_fnfmf343434_copy_12_0_Layer1_0_FILL"/>

<use xlink:href="#Duplicate_Items_Folder_fnfmf343434_copy_12_0_Layer1_0_1_STROKES"/>
</g>
</g>

<g transform="matrix( 1, 0, 0, 1, 552.25,455.2) ">
<g transform="matrix( 1, 0, 0, 1, 0,0) ">
<use xlink:href="#Duplicate_Items_Folder_fnfmf343434_copy_11_0_Layer1_0_FILL"/>

<use xlink:href="#Duplicate_Items_Folder_fnfmf343434_copy_11_0_Layer1_0_1_STROKES"/>
</g>
</g>

<g transform="matrix( 1, 0, 0, 1, 670.85,495.2) ">
<g transform="matrix( 1, 0, 0, 1, 0,0) ">
<use xlink:href="#Duplicate_Items_Folder_fnfmf343434_copy_13_0_Layer1_0_FILL"/>

<use xlink:href="#Duplicate_Items_Folder_fnfmf343434_copy_13_0_Layer1_0_1_STROKES"/>
</g>
</g>

<g transform="matrix( 1.51800537109375, 0, 0, 1, -1057.5,123.2) ">
<use xlink:href="#Layer0_48_1_STROKES" transform="matrix( 0.65875244140625, 0, 0, 0.9999847412109375, 696.6,-123.2) "/>
</g>

<g transform="matrix( 1, 0, 0, 1, 741.2,535.2) ">
<g transform="matrix( 1, 0, 0, 1, 0,0) ">
<use xlink:href="#Duplicate_Items_Folder_fnfmf343434_copy_18_0_Layer1_0_FILL"/>

<use xlink:href="#Duplicate_Items_Folder_fnfmf343434_copy_18_0_Layer1_0_1_STROKES"/>
</g>
</g>

<g transform="matrix( 1, 0, 0, 1, 741.2,455.2) ">
<g transform="matrix( 1, 0, 0, 1, 0,0) ">
<use xlink:href="#Duplicate_Items_Folder_fnfmf343434_copy_79_0_Layer1_0_FILL"/>

<use xlink:href="#Duplicate_Items_Folder_fnfmf343434_copy_79_0_Layer1_0_1_STROKES"/>
</g>
</g>

<g transform="matrix( 0.9997406005859375, -0.0180816650390625, 0.0180816650390625, 0.9997406005859375, 573.1,170.65) ">
<use xlink:href="#Layer0_51_FILL"/>
</g>

<g transform="matrix( 0.999603271484375, -0.024993896484375, 0.024993896484375, 0.999603271484375, 270.7,164) ">
<use xlink:href="#Layer0_52_FILL"/>
</g>
</svg>
