<?xml version="1.0" encoding="utf-8"?>
<!-- Generator: Adobe Illustrator 24.2.3, SVG Export Plug-In . SVG Version: 6.00 Build 0)  -->
<svg version="1.1" id="Layer_1" xmlns="http://www.w3.org/2000/svg" xmlns:xlink="http://www.w3.org/1999/xlink" x="0px" y="0px"
	 width="55px" height="30px" viewBox="0 0 55 30" enable-background="new 0 0 55 30" xml:space="preserve">
<g id="Layer_2_1_">
	<g id="Layer_6">
		<path fill="#82B889" d="M51.6,15.3c-0.2-1.5-1.4-2.4-2.4-3.2c-1.3-1.2-2.6-2.3-4.1-3.3c-1.8-1.2-3.5-2.4-5.4-3.5
			c-0.5-0.3-1.1-0.6-1.7-0.9l-0.4-0.2c-1-0.5-2.4-1.1-3.2-0.3c-1.1,1.1-0.4,3.3-0.1,4c0,0.2,0.3,1,0.5,1.7c-1.3-0.2-2.7-0.6-4-0.9
			c-1.5-0.5-3.1-0.8-4.7-1.1C22.9,7.2,19.7,7,16.5,7h-1.1c-2,0-4,0-5.9,0.2c-1,0.1-2,0.2-2.9,0.4L6.1,7.7c-0.7,0-1.5,0.3-2,0.8
			C3.2,9.6,3.3,11.2,3.4,12c0.1,0.8,0.1,1.8,0.1,2.8c0,1.6,0.2,3.1,0.3,4.7C4,21,4.1,22.9,5.6,23.8c1.3,0.8,3,0.3,4.3-0.2
			c1.3-0.5,2.7-1.2,4.1-1.8c1.4-0.5,2.9-0.9,4.3-1.3c1.1-0.3,2.3-0.6,3.4-0.9c3.9-1.1,7.9-1.5,11.9-1.2c0.6,0.1,1,0,1.4,0.1
			c0,0.2-0.1,0.4-0.1,0.6c-0.3,0.9-0.4,1.8-0.3,2.7c0.2,0.7,0.6,1.4,1.2,1.9c0.7,0.8,1.4,1.5,2.3,2.1c0.5,0.3,1.3,0.9,2,0.7
			c1.5-0.4,2.5-1.8,3.5-2.9c0.7-0.7,1.4-1.5,2.2-2.2c1.2-1.2,2.6-2.3,4-3.1c0.9-0.4,1.6-1.1,2.1-2C51.7,16,51.7,15.6,51.6,15.3
			L51.6,15.3"/>
		<path fill="#FFFFFF" stroke="#82B889" stroke-width="2" d="M48.6,12.6c0.2,0.4,0.1,0.9-0.1,1.3c-0.4,0.6-1,1-1.6,1.3
			c-0.3,0.2-0.7,0.4-1,0.5c-1.4,0.9-2.6,1.9-3.7,3.1c-1,1.1-2.1,2.2-3.3,3.1c-0.8,0.5-2.3,1.2-3.1,0.4c-0.4-0.6-0.5-1.3-0.3-1.9
			c0.1-0.8,0.4-1.6,0.5-2.4c0.2-1.5-1.3-2-2.5-2.3c-3.3-0.7-6.9-0.3-10.2,0.3c-1.7,0.3-3.4,0.7-5.1,1.1c-1.6,0.4-3.3,0.9-4.8,1.5
			c-2.1,0.9-6.1,3.3-8,0.8c-0.7-1.2-1-2.6-0.8-4c0-0.9,0-1.8-0.1-2.6c-0.1-0.8-0.1-1.5-0.1-2.3c0.3-1.7,1.9-1.7,3.3-1.9
			c1.8-0.2,3.5-0.4,5.3-0.4c3.5-0.1,7.1,0,10.6,0.3c3.5,0.4,6.9,1.1,10.3,2c0.7,0.3,1.4,0.4,2.2,0.3c0-1-2.7-6.2,0-6
			c0.6,0.1,1.2,0.3,1.7,0.6c0.6,0.3,1.2,0.6,1.8,1c1.2,0.7,2.4,1.4,3.6,2.2c0.9,0.6,1.9,1.2,2.8,1.8c0.8,0.5,1.5,1,2.2,1.6
			C48.3,12.2,48.5,12.4,48.6,12.6"/>
	</g>
</g>
</svg>
