<?xml version="1.0" encoding="utf-8"?>
<!-- Generator: Adobe Illustrator 25.2.1, SVG Export Plug-In . SVG Version: 6.00 Build 0)  -->
<svg version="1.1" id="레이어_1" xmlns="http://www.w3.org/2000/svg" xmlns:xlink="http://www.w3.org/1999/xlink" x="0px"
	 y="0px" width="251px" height="324.1px" viewBox="0 0 251 324.1" style="enable-background:new 0 0 251 324.1;"
	 xml:space="preserve">
<g>
	<g id="레이어_1-2">
		<path style="fill:#231815;" d="M170.5,1.1c0.6,0,1,0,1.6,0.3c0.3,0.3,0.6,1,0.6,1.3v26.6c0,0.6-0.3,1-0.6,1.3
			c-0.3,0.3-1,0.3-1.6,0.3s-1,0-1.6-0.3c-0.3-0.3-0.6-0.6-0.6-1.3V5.9l-6.4,3.8c-0.3,0.3-1,0.3-1.6,0c-0.3-0.3-1-0.6-1-1
			c-0.3-0.3-0.3-1,0-1.3c0-0.6,0.3-1,1-1.3l7.4-4.5c0.6-0.3,1-0.6,1.6-0.6C169.5,1.1,170.2,1.1,170.5,1.1z"/>
		<path style="fill:#231815;" d="M230.6,1.7C231,2,231,2.7,231,3s0,1-0.3,1.3c-0.3,0.3-0.6,0.6-1,0.6h-11.2l-0.6,9.3
			c0.6-0.6,1.6-1,2.6-1.3c1-0.3,2.2-0.6,3.5-0.6c1.3,0,2.6,0.3,3.8,0.6c1,0.3,1.9,1,2.9,1.9c0.6,1,1.3,1.9,1.9,2.9
			c0.3,1.3,0.6,2.2,0.6,3.5v0.6c0,1.3-0.3,2.2-0.6,3.5c-0.3,1.3-1,2.2-1.9,3.2s-1.9,1.6-3.2,2.2c-1.6,0.6-3.2,1-4.8,1
			s-3.5-0.3-5.1-0.6c-1.3-0.3-2.9-1-3.8-1.9c-0.3-0.3-0.6-0.6-1-1.3c0-0.6,0-1,0.3-1.6c0.3-1,1.3-1.3,2.2-1c0.3,0,0.3,0,0.3,0.3
			c1,0.6,1.9,1,3.2,1.3c1.3,0.3,2.6,0.6,3.8,0.6c1,0,1.9,0,2.9-0.3c0.6-0.3,1.3-0.6,1.9-1.3c0.3-0.6,0.6-1.3,1-1.9
			c0.3-0.6,0.3-1.6,0.3-2.2v-0.6c0-1.6-0.3-3.2-1.6-4.2s-2.9-1.6-4.5-1.6c-1,0-1.9,0.3-2.9,0.6c-1.3,0.3-1.9,1-2.6,1.6
			c-0.3,0.3-0.6,0.3-1,0.6c-0.3,0-0.6,0-1,0c-0.3,0-1,0-1.3-0.3c-0.3-0.3-0.6-0.6-0.3-1l0.6-12.8c0-0.6,0-1,0.3-1.6
			c0-0.3,0.3-0.6,0.6-1c0.3-0.3,0.6-0.3,1-0.6c0.6,0,1,0,1.6,0H230C230,1.4,230.3,1.4,230.6,1.7z"/>
		<path style="fill:#231815;" d="M19.1,56.1c0.3,0.3,0.3,1,0.3,1.3c0,0.3,0,1-0.3,1.3c-0.3,0.3-0.6,0.6-1,0.6H6.6l-0.3,9
			c0.6-0.6,1.6-1,2.6-1.3c1-0.3,2.2-0.6,3.5-0.6s2.6,0.3,3.8,0.6c1,0.3,1.9,1,2.9,1.9c0.6,1,1.3,1.9,1.6,2.9
			c0.3,1.3,0.6,2.2,0.6,3.5v0.3c0,1.3-0.3,2.2-0.6,3.5c-0.3,1.3-1,2.2-1.9,3.2c-1,1-1.9,1.6-3.2,2.2c-1.6,0.6-3.2,1-4.8,1
			s-3.5-0.3-5.1-0.6c-1.3-0.3-2.9-1-3.8-1.9c-0.6,0-1-0.3-1-1c0-0.6,0-1,0.3-1.6c0.3-1,1.3-1.3,2.2-1c0,0,0.3,0,0.3,0.3
			c1,0.6,1.9,1,3.2,1.6c1.3,0.3,2.6,0.6,3.8,0.6c1,0,1.9,0,2.9-0.3c0.6-0.3,1.3-0.6,1.9-1.3c0.6-0.6,1-1.3,1-1.9
			c0.3-0.6,0.3-1.6,0.3-2.2V76c0-1.6-0.6-3.2-1.6-4.2c-1.3-1-2.9-1.6-4.5-1.6c-1,0-1.9,0.3-2.9,0.6c-0.6,0-1.6,0.6-2.2,1.3
			c-0.3,0.3-0.6,0.3-1,0.6c-0.3,0-0.6,0.3-1,0.3s-1,0-1.3-0.3s-0.6-0.6-0.6-1l0.6-12.5c0-0.6,0-1,0.3-1.6c0-0.3,0.3-0.6,0.6-1
			c0.3-0.3,0.6-0.3,1-0.3s1-0.3,1.6,0h12.2C18.4,55.8,18.8,55.8,19.1,56.1z"/>
		<path style="fill:#231815;" d="M35.7,55.2c2.9-0.3,5.8,1,7.7,3.2c1.9,2.9,2.9,6.1,2.6,9.3v1.3c0,2.9-0.3,5.4-1,8.3
			c-0.3,1.9-1.3,3.5-2.2,5.1c-1,1.3-2.2,2.2-3.5,2.6c-1.6,0.6-3.2,0.6-4.8,0.6c-1.3,0-2.6,0-3.5-0.3c-1-0.3-1.9-0.6-2.9-1
			c-0.3-0.3-0.6-0.6-1-1.3c0-0.3,0-1,0-1.3c0.3-0.3,0.6-1,1-1c0.3-0.3,1-0.3,1.6,0c0.6,0.3,1.6,0.6,2.6,1c1,0.3,1.9,0.3,2.9,0.3
			c1,0,1.9,0,2.9-0.6c1-0.3,1.6-1,2.2-1.6c0.6-1,1.3-1.9,1.3-3.2c0.3-1.6,0.6-3.2,0.6-4.8c-0.6,1.3-1.9,1.9-3.2,2.6
			c-1.3,0.6-2.9,1-4.2,1c-1.3,0-2.6-0.3-3.8-0.6c-1-0.3-2.2-1-2.9-1.9c-1-1-1.6-1.9-1.9-2.9c-0.3-1.3-0.6-2.6-0.6-3.8v-1
			c0-1.3,0.3-2.6,0.6-3.8C26.4,60,27.4,59,28,58c1-1,1.9-1.6,3.2-1.9C32.5,55.5,34.1,55.2,35.7,55.2z M35.7,59
			c-1.6,0-3.2,0.3-4.5,1.6c-1.3,1.3-1.6,2.9-1.6,4.5v0.3c-0.3,2.9,1.6,5.8,4.5,6.1c0.6,0,1,0,1.6,0c1,0,1.9,0,2.6-0.3
			c0.6-0.3,1.3-0.6,1.9-1.3c0.6-0.6,1-1.3,1.3-1.9c0.3-0.6,0.3-1.6,0.3-2.2v-0.3c0-1.6-0.3-3.2-1.6-4.5C39.2,59.6,37.6,59,35.7,59
			L35.7,59z"/>
		<path style="fill:#231815;" d="M112.9,55.2c2.9-0.3,5.8,1,8,3.2c1.9,2.9,2.9,6.1,2.6,9.3v1.3c0,2.9-0.3,5.4-1,8.3
			c-0.3,1.9-1.3,3.5-2.2,5.1c-1,1.3-2.2,2.2-3.5,2.6c-1.6,0.6-3.2,0.6-4.8,0.6c-1.3,0-2.6,0-3.8-0.3c-1-0.3-1.9-0.6-2.9-1
			c-0.3-0.3-1-0.6-1-1.3c-0.3-0.3-0.3-1,0-1.3c0.3-0.3,0.6-1,1-1c0.3-0.3,1-0.3,1.6,0c0.6,0.3,1.6,0.6,2.6,1c1,0.3,1.9,0.3,2.9,0.3
			c1,0,1.9,0,3.2-0.6c1-0.3,1.6-1,2.2-1.6c0.6-1,1.3-1.9,1.3-3.2c0.3-1.6,0.6-3.2,0.6-4.8c-0.6,1.3-1.9,1.9-3.2,2.6
			c-1.3,0.6-2.9,1-4.2,1c-1.3,0-2.6-0.3-3.8-0.6c-2.2-1-3.8-2.6-4.5-4.8c-0.3-1.3-0.6-2.6-0.6-3.8v-1c0-1.3,0.3-2.6,0.6-3.8
			c0.3-1.3,1.3-2.2,2.2-3.2c1-1,1.9-1.6,3.2-1.9C110,55.5,111.6,55.2,112.9,55.2z M112.9,59c-1.6,0-3.2,0.3-4.5,1.6
			c-1.3,1.3-1.9,2.9-1.9,4.5v0.3c-0.3,2.9,1.6,5.8,4.5,6.1c0.6,0,1.3,0,1.9,0c1,0,1.9,0,2.6-0.3c1.6-0.6,2.6-1.6,3.2-3.2
			c0.3-0.6,0.3-1.6,0.3-2.2v-0.6c0-1.6-0.3-3.2-1.6-4.5C116.4,59.6,114.8,59,112.9,59L112.9,59z"/>
		<path style="fill:#231815;" d="M167.6,55.2c1.3,0,2.9,0.3,4.2,0.6c1,0.3,1.9,1,2.9,1.6c0.6,0.6,1.3,1.6,1.6,2.6s0.6,1.9,0.6,2.9
			v0.3c0,1.6-0.3,2.9-1,4.5c-1,1.6-1.9,2.9-3.2,4.2l-9.6,9.9h13.4c0.3,0,1,0,1,0.6c0.3,0.3,0.3,1,0.3,1.3c0,0.3,0,1-0.3,1.3
			c-0.3,0.3-0.6,0.6-1,0.6h-16c-1,0-1.6,0-2.2-0.6c-0.6-0.6-1-1.9-0.3-2.9c0.3-0.3,0.6-1,1-1.3l10.2-10.9c0.6-0.6,1.3-1.3,1.9-1.9
			c0.3-0.6,0.6-1,1-1.6c0.3-0.3,0.3-1,0.6-1.6c0-0.6,0-1,0-1.6v-0.3c0-1-0.3-2.2-1.3-2.9c-1-0.6-2.6-1.3-3.8-1c-1.3,0-2.6,0.3-3.5,1
			c-1,0.6-1.9,1.6-2.6,2.6c-0.3,0.3-0.6,0.6-1.3,0.6c-0.3,0-1,0-1.3-0.3c-0.3-0.3-0.6-0.6-1-1.3c0-0.6,0-1,0.3-1.3
			c1-1.3,2.2-2.6,3.5-3.5C163.4,55.5,165.3,55.2,167.6,55.2z"/>
		<path style="fill:#231815;" d="M231.9,56.1c0.3,0.3,0.6,1,0.6,1.6c0,0.3,0,0.3,0,0.6c0,0.3,0,0.3,0,0.6l-0.3,1
			c0,0.3-0.3,0.6-0.6,1.3l-10.6,23c-0.3,0.6-0.6,1-1.3,1c-0.3,0-1,0-1.3,0c-0.3-0.3-1-0.6-1-1c-0.3-0.6-0.3-1,0-1.6l10.6-23.4h-15
			c-0.3,0-1-0.3-1-0.6c-0.3-0.6-0.3-1.6,0-2.6c0.3-0.3,0.6-0.6,1-0.6h16.6C230.3,55.8,231.3,55.8,231.9,56.1z"/>
		<path style="fill:#231815;" d="M121.8,110.5c0.3,0.3,0.3,1,0.3,1.3c0,0.3,0,1-0.3,1.3c-0.3,0.3-0.6,0.6-1,0.6h-11.2L109,123
			c0.6-0.6,1.6-1,2.6-1.3c1-0.3,2.2-0.6,3.5-0.6c1.3,0,2.6,0.3,3.8,0.6c1,0.3,1.9,1,2.9,1.9c0.6,1,1.3,1.9,1.6,2.9
			c0.3,1.3,0.6,2.2,0.6,3.5v0.3c0,1.3-0.3,2.2-0.6,3.5c-0.3,1.3-1,2.2-1.9,3.2s-1.9,1.6-3.2,2.2c-1.6,0.6-3.2,1-4.8,1
			s-3.5-0.3-5.1-0.6c-1.3-0.3-2.6-1-3.8-1.6c-0.3-0.3-0.6-0.6-1-1.3c0-0.6,0-1,0.3-1.6c0.3-1,1.3-1.3,2.2-1c0,0,0.3,0,0.3,0.3
			c1,0.6,1.9,1,3.2,1.3c1.3,0.3,2.6,0.6,3.8,0.6c1,0,1.9,0,2.9-0.6c0.6-0.3,1.3-0.6,1.9-1.3c0.6-0.6,1-1.3,1-1.9
			c0.3-0.6,0.3-1.6,0.3-2.2v-0.3c0-1.6-0.6-3.2-1.6-4.5c-1.3-1-2.9-1.6-4.5-1.6c-1,0-1.9,0.3-2.9,0.6c-1,0.3-1.6,1-2.2,1.3
			c-0.3,0.3-0.6,0.3-1,0.6c-0.3,0-0.6,0-1,0s-1,0-1.3-0.3c-0.3-0.3-0.6-0.6-0.3-1l0.6-12.5c0-0.6,0-1,0.3-1.6c0-0.3,0.3-0.6,0.6-1
			c0.3-0.3,0.6-0.3,1-0.6c0.6,0,1,0,1.6,0h12.2C120.9,110.2,121.5,110.2,121.8,110.5z"/>
		<path style="fill:#231815;" d="M167.3,109.6c2.9-0.3,5.8,1,8,3.2c1.9,2.9,2.9,6.1,2.6,9.3v1.3c0,2.9-0.3,5.4-1,8.3
			c-0.3,1.9-1.3,3.5-2.2,5.1c-1,1.3-2.2,2.2-3.5,2.6c-1.6,0.6-3.2,0.6-4.8,0.6c-1.3,0-2.6,0-3.8-0.3c-1-0.3-1.9-0.6-2.9-1
			c-0.3-0.3-1-0.6-1-1c0-0.3,0-1,0-1.3c0.3-0.3,0.6-1,1-1c0.3-0.3,1-0.3,1.6,0c0.6,0.3,1.6,0.6,2.6,1c1,0.3,1.9,0.3,2.9,0.3
			c1,0,2.2,0,3.2-0.6c1-0.3,1.6-1,2.2-1.9c0.6-1,1.3-1.9,1.3-3.2c0.3-1.6,0.6-3.2,0.6-4.8c-0.6,1-1.9,1.9-3.2,2.6
			c-1.3,0.6-2.9,1-4.2,1s-2.6-0.3-3.8-0.6c-1-0.3-2.2-1-2.9-1.9c-1-1-1.6-1.9-1.9-2.9c-0.3-1.3-0.6-2.6-0.6-3.8v-1
			c0-1.3,0.3-2.6,0.6-3.8c0.3-1.3,1.3-2.2,2.2-3.2c1-1,1.9-1.6,3.2-1.9C164.4,109.9,166,109.6,167.3,109.6z M167.3,113.4
			c-1.6,0-3.2,0.3-4.5,1.6c-1,1.3-1.6,2.9-1.6,4.5v0.3c-0.3,2.9,1.6,5.8,4.5,6.1c0.6,0,1,0,1.6,0c1,0,1.9,0,2.6-0.6
			c0.6-0.3,1.3-0.6,1.9-1.3c0.6-0.6,1-1.3,1.3-1.9c0.3-0.6,0.3-1.6,0.3-2.2v-0.3c0-1.6-0.3-3.5-1.6-4.8
			C170.8,114.1,169.2,113.4,167.3,113.4L167.3,113.4z"/>
		<path style="fill:#231815;" d="M222,109.6c3.2-0.3,6.1,1,8,3.5c1.9,3.2,2.9,7,2.6,10.6v2.2c0.3,3.8-0.6,7.4-2.6,10.6
			c-4.2,4.5-10.9,4.8-15.4,1c-0.3-0.3-0.6-0.6-1-1c-1.9-3.2-2.9-7-2.6-10.6V124c-0.3-3.8,0.6-7.4,2.6-10.6
			C215.9,110.9,218.8,109.3,222,109.6z M222,113.7c-1,0-2.2,0.3-3.2,0.6c-1,0.3-1.6,1-1.9,1.9c-0.6,1-1,1.9-1,3.2
			c-0.3,1.6-0.3,3.2-0.3,4.8v1.3c0,1.6,0,3.2,0.3,4.8c0,1.3,0.6,2.2,1,3.2c0.3,1,1.3,1.6,1.9,1.9c1,0.3,2.2,0.6,3.2,0.6
			s2.2-0.3,3.2-0.6c1-0.3,1.6-1,1.9-1.9c0.6-1,1-1.9,1-3.2c0.3-1.6,0.3-3.2,0.3-4.8v-1.3c0-1.6-0.3-3.2-0.6-4.5c0-1.3-0.6-2.2-1-3.2
			c-0.3-1-1.3-1.6-1.9-1.9C224.2,113.7,223,113.7,222,113.7z"/>
		<path style="fill:#231815;" d="M112.5,164c1.3,0,2.9,0.3,4.2,0.6c1,0.3,2.2,1,2.9,1.6c0.6,0.6,1.3,1.6,1.9,2.6
			c0.3,1,0.6,1.9,0.6,2.9v0.3c0,2.2-1,4.5-2.9,5.8c-0.6,0.6-1.6,1-2.2,1.3c1,0,1.6,0.3,2.6,0.6c0.6,0.3,1.3,0.6,1.9,1.3
			c0.6,0.6,1,1.3,1.3,1.9c0.3,1,0.6,1.9,0.6,2.6v0.3c0,1-0.3,2.2-0.6,3.2c-0.3,1-1,1.9-1.9,2.9c-1,1-1.9,1.6-3.2,1.9
			c-1.6,0.6-3.2,0.6-4.5,0.6c-2.9,0-6.1-0.6-8.6-2.6c-0.3-0.3-1-0.6-1-1.3c0-0.6,0-1,0.3-1.6c0.3-0.3,0.6-0.6,1.3-1
			c0.6,0,1,0,1.6,0.3c1,0.6,1.9,1.3,3.2,1.6c1,0.3,2.2,0.6,3.2,0.6s1.9,0,2.9-0.3c0.6-0.3,1.3-0.6,1.9-1c0.6-0.3,1-1,1-1.6
			c0.3-0.6,0.3-1.3,0.3-1.9v-0.3c0-0.6,0-1.6-0.6-2.2c-0.3-0.6-1-1-1.3-1.6c-0.6-0.3-1.3-0.6-2.2-1c-1-0.3-1.6-0.3-2.6-0.3h-2.2
			c-0.3,0-1-0.3-1.3-0.6c-0.3-0.3-0.3-1-0.3-1.3s0-1,0.3-1.3c0.3-0.3,0.6-0.6,1.3-0.6h1.9c1.6,0,2.9-0.3,4.2-1.3
			c1.3-1,1.9-2.2,1.6-3.8l0,0c0-1.3-0.3-2.6-1.3-3.2c-1.3-1-2.6-1.3-4.2-1.3c-1,0-1.9,0.3-2.9,0.6c-1,0.3-1.6,1-2.2,1.9
			c-0.6,1-1,1.3-1.6,1.3s-1-0.3-1.3-0.6c-0.3-0.3-0.6-1-0.6-1.3c0-0.3,0.3-1,0.6-1.3c1-1,1.9-1.9,3.2-2.6
			C109.3,164.3,110.9,164,112.5,164z"/>
		<path style="fill:#231815;" d="M167,164c1.3,0,2.9,0.3,4.2,0.6c1,0.3,2.2,1,2.9,1.6c0.6,0.6,1.3,1.6,1.9,2.6
			c0.3,1,0.6,1.9,0.6,2.9v0.3c0,1.6-0.3,2.9-1.3,4.2c-0.3,0.6-1,1.3-1.6,1.6c-0.6,0.6-1.6,1-2.2,1.3c1,0,1.6,0.3,2.6,0.6
			c0.6,0.3,1.3,0.6,1.9,1.3c0.6,0.6,1,1.3,1.3,1.9c0.3,1,0.6,1.9,0.6,2.6v0.3c0,1-0.3,2.2-0.6,3.2c-0.3,1-1,1.9-1.9,2.9
			c-1,1-1.9,1.6-3.2,1.9c-1.6,0.6-3.2,0.6-4.5,0.6c-2.9,0-6.1-0.6-8.6-2.6c-0.6-0.3-1-0.6-1-1.3c0-0.6,0-1,0.3-1.6
			c0.3-0.3,0.6-0.6,1-1c0.6,0,1,0,1.6,0.3c1,0.6,1.9,1.3,3.2,1.6c1,0.3,2.2,0.6,3.2,0.6s1.9,0,2.9-0.3c0.6-0.3,1.6-0.6,1.9-1
			c0.6-0.3,1-1,1-1.6c0.3-0.6,0.3-1.3,0.3-1.9v-0.3c0-0.6,0-1.6-0.6-2.2c-0.3-0.6-1-1-1.3-1.6c-0.6-0.3-1.3-0.6-2.2-1
			c-1-0.3-1.6-0.3-2.6-0.3h-2.2c-0.3,0-1-0.3-1.3-0.6c-0.3-0.3-0.3-1-0.3-1.3s0-1,0.3-1.3c0.3-0.3,0.6-0.6,1.3-0.6h1.9
			c1.6,0,2.9-0.3,4.2-1.3c1.3-1,1.9-2.2,1.6-3.8l0,0c0-1.3-0.3-2.6-1.3-3.2c-1.3-1-2.6-1.3-4.2-1.3c-1,0-2.2,0.3-3.2,0.6
			c-1,0.3-1.6,1-2.2,1.9c0,1-0.3,1.3-1,1.3c-0.3,0-1-0.3-1.3-0.6c-0.3-0.3-0.6-0.6-0.6-1.3c0-0.3,0.3-1,0.6-1.3c1-1,1.9-1.9,3.2-2.6
			C163.7,164.3,165.3,164,167,164z"/>
		<path style="fill:#231815;" d="M231.9,165.3c0.3,0.3,0.6,1,0.6,1.6c0,0.3,0,0.3,0,0.6c0,0.3,0,0.3-0.3,0.6c0,0.3-0.3,0.6-0.3,1
			l-0.6,1.3L221,193.1c-0.3,0.6-0.6,1-1.3,1c-0.6,0-1,0-1.6-0.3c-0.3-0.3-1-0.6-1-1c-0.3-0.6-0.3-1,0-1.6l10.9-23.4h-15
			c-0.3,0-1-0.3-1-0.6c-0.3-0.3-0.3-1-0.3-1.3c0-0.3,0-1,0.3-1.3c0.3-0.3,0.6-0.6,1-0.6h16.6C230.3,164.6,231.3,164.6,231.9,165.3z"
			/>
		<path style="fill:#231815;" d="M172.4,293c0.3,0.3,0.6,0.6,1,1c0,0.6,0,1-0.3,1.6l-11.8,17h10.2v-7.7c0-0.6,0.3-1,0.6-1.3
			c0.3-0.3,1-0.3,1.3-0.3c0.6,0,1,0,1.6,0.3c0.3,0.3,0.6,1,0.6,1.3v7.7h3.2c0.3,0,1,0,1,0.6c0.3,0.6,0.3,1.6,0,2.6
			c-0.3,0.3-0.6,0.6-1,0.6h-3.2v4.8c0,0.6-0.3,1-0.6,1.3c-0.3,0.3-1,0.3-1.6,0.3s-1,0-1.3-0.3c-0.3-0.3-0.6-1-0.6-1.3v-4.8h-12.5
			c-0.6,0-1.6,0-2.2-0.6c-0.3-0.3-0.6-1-0.6-1.6c0-0.3,0-0.6,0-1c0.3-0.6,0.6-1,1-1.6l12.5-18.2c0.3-0.3,0.6-0.6,1.3-1
			C171.8,292.3,172.1,292.7,172.4,293z"/>
		<path style="fill:#231815;" d="M222,292.3c1.3,0,2.9,0.3,4.2,0.6c1,0.3,1.9,1,2.9,1.6c0.6,0.6,1.3,1.6,1.6,2.6
			c0.3,1,0.6,1.9,0.6,2.9v0.3c0,1.6-0.3,2.9-1,4.5c-1,1.6-1.9,2.9-3.2,4.2l-9.6,10.2H231c0.3,0,1,0,1,0.6c0.3,0.3,0.3,1,0.3,1.3
			c0,0.3,0,1-0.3,1.3c-0.3,0.3-0.6,0.6-1,0.6h-16c-1,0-1.6,0-2.2-0.6c-0.6-0.3-0.6-1-0.6-1.6c0-0.3,0-0.6,0.3-1c0.3-0.3,0.6-1,1-1.3
			l10.2-10.9c0.6-0.6,1.3-1.3,1.9-1.9c0.3-0.6,0.6-1,1-1.6c0.3-0.3,0.3-1,0.6-1.6c0-0.6,0-1,0-1.6v-0.3c0-1-0.3-2.2-1.3-2.9
			c-1-0.6-2.6-1.3-3.8-1c-1.3,0-2.6,0.3-3.5,1c-1,0.6-1.9,1.6-2.6,2.6c-0.6,0.6-1.6,1-2.6,0.3l0,0c-0.3-0.3-0.6-0.6-1-1.3
			c0-0.6,0-1,0.3-1.3c1-1.3,2.2-2.6,3.5-3.5C217.8,292.7,219.8,292.3,222,292.3z"/>
		<line style="fill:none;stroke:#231815;stroke-width:0.9602;stroke-miterlimit:10;" x1="74.4" y1="41.7" x2="250.2" y2="41.7"/>
		<line style="fill:none;stroke:#231815;stroke-width:0.9602;stroke-miterlimit:10;" x1="74.4" y1="151.8" x2="250.2" y2="151.8"/>
		<line style="fill:none;stroke:#231815;stroke-width:0.9602;stroke-miterlimit:10;" x1="74.4" y1="268.7" x2="250.2" y2="268.7"/>
		<path style="fill:none;stroke:#231815;stroke-width:0.8002;stroke-miterlimit:10;" d="M74.8,41.7c4.8,5.1,8,17,8,26.2
			s-2.9,18.6-8,26.6"/>
	</g>
</g>
</svg>
