
<svg xmlns="http://www.w3.org/2000/svg" version="1.1" xmlns:xlink="http://www.w3.org/1999/xlink" preserveAspectRatio="none" x="0px" y="0px" width="1101px" height="541px" viewBox="0 0 1101 541">
<defs>
<g id="Layer0_0_FILL">
<path fill="#FFFFFF" stroke="none" d="
M 1098.9 341.05
Q 1098.9 326.05 1083.9 326.05
L 218.65 326.05
Q 203.65 326.05 203.65 341.05
L 203.65 524.1
Q 203.65 539.1 218.65 539.1
L 1083.9 539.1
Q 1098.9 539.1 1098.9 524.1
L 1098.9 341.05
M 993.45 361.3
Q 993.45 359.8 994.1 359.2 994.7 358.65 996.2 358.65
L 1008.3 358.65
Q 1009.8 358.65 1010.45 359.15 1011.05 359.7 1011.05 361.3
L 1011.05 362.85 1017.85 362.85 1017.85 357
Q 1017.85 356.45 1018.4 356.45
L 1021.95 356.45
Q 1022.45 356.45 1022.45 357
L 1022.45 383.3
Q 1022.45 383.8 1021.95 383.8
L 1018.4 383.8
Q 1017.85 383.8 1017.85 383.3
L 1017.85 374.35 1011.05 374.35 1011.05 375.1
Q 1011.05 376.65 1010.45 377.25 1009.8 377.85 1008.3 377.85
L 996.4 377.85
Q 994.7 377.85 994.1 377.25 993.45 376.65 993.45 375.1
L 993.45 361.3
M 981.65 356.45
Q 982.2 356.45 982.2 357
L 982.2 371.55 987.55 371.55
Q 987.8 371.55 988 371.65 988.15 371.8 988.15 372.05
L 988.15 374.85
Q 988.15 375.05 988 375.25 987.8 375.4 987.55 375.4
L 982.2 375.4 982.2 393.9
Q 982.2 394.45 981.65 394.45
L 978.1 394.45
Q 977.55 394.45 977.55 393.9
L 977.55 357
Q 977.55 356.45 978.1 356.45
L 981.65 356.45
M 975.3 365.3
L 975.3 367.8
Q 975.3 368 975.15 368.2 974.95 368.4 974.75 368.4
L 953.05 368.4
Q 952.8 368.4 952.6 368.2 952.35 368 952.35 367.75
L 952.35 365.3
Q 952.35 365.1 952.6 364.9 952.8 364.7 953.05 364.7
L 974.75 364.7
Q 974.95 364.7 975.15 364.9 975.3 365.05 975.3 365.3
M 972.4 375.15
Q 973.05 376.6 973.05 378.4 973.05 380.25 972.4 381.75 971.75 383.25 970.55 384.35 969.35 385.45 967.75 386.1 966.1 386.75 964.15 386.75 962.2 386.75 960.55 386.15 958.95 385.5 957.75 384.4 956.6 383.25 955.95 381.75 955.3 380.25 955.3 378.4 955.3 376.65 955.95 375.15 956.6 373.7 957.8 372.65 959 371.6 960.6 370.95 962.2 370.4 964.15 370.4 966.1 370.4 967.75 370.95 969.4 371.55 970.6 372.6 971.75 373.65 972.4 375.15
M 1003.15 382.05
Q 1003.45 382.05 1003.65 382.25 1003.8 382.45 1003.8 382.65
L 1003.8 389.25
Q 1003.8 389.65 1003.95 389.8 1004.15 389.9 1004.55 389.9
L 1023.05 389.9
Q 1023.25 389.9 1023.45 390.05 1023.6 390.25 1023.6 390.4
L 1023.6 393.25
Q 1023.6 393.5 1023.45 393.65 1023.25 393.75 1023.05 393.75
L 1002.25 393.75
Q 1000.45 393.75 999.8 393.1 999.2 392.45 999.2 390.9
L 999.2 382.65
Q 999.2 382.45 999.35 382.25 999.55 382.05 999.75 382.05
L 1003.15 382.05
M 688.15 360.65
L 688.15 357.85
Q 688.15 357.6 688.35 357.5 688.55 357.4 688.75 357.4
L 710.85 357.4
Q 712.15 357.4 712.8 358.05 713.5 358.75 713.5 360.25 713.5 361.2 713.45 362.95 713.35 364.75 713.2 366.75 713.05 368.8 712.8 370.85 712.6 372.85 712.3 374.3
L 717.9 374.3
Q 718.1 374.3 718.3 374.55 718.5 374.75 718.5 374.95
L 718.5 377.55
Q 718.5 377.75 718.3 377.95 718.1 378.15 717.9 378.15
L 683.1 378.15
Q 682.8 378.15 682.65 377.95 682.5 377.75 682.5 377.55
L 682.5 374.95
Q 682.5 374.7 682.65 374.5 682.8 374.3 683.1 374.3
L 708.05 374.3
Q 708.25 373.45 708.35 372.05 708.5 370.65 708.65 369.15 706.5 369.25 704 369.3 701.55 369.4 699 369.45 696.5 369.45 693.9 369.5 691.25 369.5 688.85 369.5 688.65 369.5 688.45 369.3 688.3 369.15 688.3 368.9
L 688.3 366.25
Q 688.3 365.65 688.85 365.65 691.4 365.65 694.15 365.65 696.95 365.6 699.6 365.6 702.3 365.6 704.7 365.55 707.05 365.5 708.9 365.4 709.05 363.2 709.05 362 709.05 361.4 708.75 361.3 708.5 361.15 707.95 361.15
L 688.75 361.15
Q 688.55 361.15 688.35 361 688.15 360.85 688.15 360.65
M 652.1 362.8
Q 652.1 363.3 651.55 363.3
L 639.65 363.3
Q 638.95 363.3 638.95 364
L 638.95 378.55
Q 638.95 379.15 639.15 379.35 639.4 379.55 640.15 379.6 641.4 379.75 643.1 379.65 644.85 379.6 646.75 379.4 648.65 379.2 650.7 378.95 652.65 378.65 654.45 378.35 655.05 378.2 655.2 378.8
L 655.65 381.15
Q 655.7 381.6 655.55 381.7 655.35 381.85 655.15 381.95 653.55 382.4 651.15 382.8 648.8 383.15 646.25 383.35 643.7 383.6 641.3 383.65 638.9 383.75 637.25 383.65 635.75 383.55 635.05 382.95 634.35 382.4 634.35 380.95
L 634.35 362
Q 634.35 360.6 634.95 360 635.5 359.45 637 359.45
L 651.55 359.45
Q 652.1 359.45 652.1 360
L 652.1 362.8
M 662.25 357
L 662.25 371.1 667.65 371.1
Q 667.85 371.1 668.05 371.25 668.25 371.4 668.25 371.6
L 668.25 374.4
Q 668.25 374.6 668.05 374.8 667.85 374.95 667.65 374.95
L 662.25 374.95 662.25 393.9
Q 662.25 394.45 661.7 394.45
L 658.15 394.45
Q 657.65 394.45 657.65 393.9
L 657.65 357
Q 657.65 356.45 658.15 356.45
L 661.7 356.45
Q 662.25 356.45 662.25 357
M 688.1 390.65
L 688.1 381.95
Q 688.1 381.75 688.25 381.55 688.45 381.4 688.65 381.4
L 692.05 381.4
Q 692.3 381.4 692.5 381.55 692.65 381.75 692.65 381.95
L 692.65 389.05
Q 692.65 389.45 692.8 389.6 693 389.7 693.45 389.7
L 713.55 389.7
Q 713.75 389.7 713.95 389.85 714.15 390 714.15 390.2
L 714.15 393.05
Q 714.15 393.3 714 393.4 713.8 393.55 713.55 393.55
L 691.1 393.55
Q 689.3 393.55 688.7 392.9 688.1 392.2 688.1 390.65
M 749.45 358.2
L 752.95 358.35
Q 753.6 358.35 753.6 359.2 753.55 360.25 753.35 361.2 753.85 363.1 755.05 364.85 756.2 366.6 758 368.1 759.7 369.55 761.85 370.65 763.95 371.75 766.2 372.4 766.5 372.5 766.55 372.75 766.65 373 766.5 373.2
L 765.2 375.8
Q 764.85 376.4 764.25 376.25 762.4 375.75 760.55 374.85 758.65 374 756.95 372.8 755.25 371.6 753.8 370.15 752.35 368.7 751.35 367.05 749.35 370.55 745.9 373 742.45 375.5 738 377 737.8 377.05 737.55 377 737.3 376.95 737.1 376.6
L 735.7 374.15
Q 735.5 373.8 735.65 373.55 735.8 373.3 736.05 373.2 739.05 372.1 741.35 370.8 743.6 369.5 745.15 367.85 746.7 366.15 747.65 364 748.55 361.8 748.85 359 748.9 358.7 749 358.4 749.15 358.15 749.45 358.2
M 733.3 387.35
L 733.3 384.7
Q 733.3 384.45 733.45 384.25 733.6 384.1 733.9 384.1
L 748.9 384.1 748.9 375.55
Q 748.9 375 749.45 375
L 752.95 375
Q 753.2 375 753.35 375.15 753.55 375.3 753.55 375.55
L 753.55 384.1 768.7 384.1
Q 768.9 384.1 769.1 384.3 769.3 384.5 769.3 384.7
L 769.3 387.35
Q 769.3 387.55 769.1 387.75 768.9 387.95 768.7 387.95
L 733.9 387.95
Q 733.6 387.95 733.45 387.75 733.3 387.55 733.3 387.35
M 791.85 356.45
Q 792.4 356.45 792.4 357.1 792.3 358.3 792.15 359.3 792.7 360.95 793.95 362.4 795.25 363.85 796.95 365.05 798.65 366.3 800.7 367.2 802.75 368.1 804.9 368.65 805.2 368.7 805.35 368.9 805.5 369.1 805.4 369.4
L 804.2 372.05
Q 804 372.55 803.35 372.4 801.4 372.05 799.45 371.3 797.5 370.5 795.7 369.45 793.95 368.35 792.5 367.05 791.05 365.8 790.2 364.4 788.3 367.45 784.85 369.65 781.4 371.8 776.85 373 776.55 373.05 776.25 373.05 776 373 775.9 372.85
L 774.5 370.25
Q 774.4 370 774.5 369.7 774.65 369.45 774.95 369.4 777.8 368.6 780.05 367.5 782.3 366.4 783.95 364.9 785.6 363.4 786.55 361.5 787.5 359.55 787.75 357.05 787.8 356.75 787.95 356.55 788.15 356.35 788.45 356.35
L 791.85 356.45
M 772.05 376.85
Q 772.2 376.65 772.5 376.65
L 807.3 376.65
Q 807.5 376.65 807.7 376.85 807.9 377.05 807.9 377.25
L 807.9 379.85
Q 807.9 380.05 807.7 380.3 807.5 380.5 807.3 380.5
L 792.15 380.5 792.15 393.6
Q 792.15 394.15 791.6 394.15
L 788.1 394.15
Q 787.55 394.15 787.55 393.6
L 787.55 380.5 772.5 380.5
Q 772.2 380.5 772.05 380.3 771.9 380.05 771.9 379.85
L 771.9 377.25
Q 771.9 377.05 772.05 376.85
M 840.5 356.45
Q 840.7 356.45 840.9 356.6 841.1 356.75 841.1 357
L 841.1 365.9 846.45 365.9
Q 846.65 365.9 846.85 366.05 847.05 366.2 847.05 366.4
L 847.05 369.2
Q 847.05 369.45 846.85 369.6 846.65 369.75 846.45 369.75
L 841.1 369.75 841.1 377.1 846.45 377.1
Q 846.65 377.1 846.85 377.25 847.05 377.4 847.05 377.55
L 847.05 380.4
Q 847.05 380.6 846.85 380.8 846.65 380.95 846.45 380.95
L 841.1 380.95 841.1 393.9
Q 841.1 394.15 840.9 394.25 840.7 394.45 840.5 394.45
L 837 394.45
Q 836.45 394.45 836.45 393.9
L 836.45 357
Q 836.45 356.45 837 356.45
L 840.5 356.45
M 814.95 362.4
Q 816.25 360.7 818.05 359.8 819.9 358.85 822.2 358.85 824.5 358.85 826.35 359.8 828.15 360.7 829.45 362.4 830.7 364.1 831.4 366.5 832.05 368.95 832.05 371.95 832.05 374.95 831.4 377.35 830.7 379.8 829.45 381.5 828.15 383.2 826.35 384.15 824.5 385.05 822.2 385.05 819.9 385.05 818.05 384.1 816.25 383.15 814.95 381.4 813.7 379.7 813.05 377.3 812.35 374.85 812.35 371.95 812.35 368.95 813.05 366.5 813.7 364.1 814.95 362.4
M 875.45 368.5
Q 875.45 366.7 876.15 365.15 876.85 363.65 878.05 362.5 879.25 361.35 880.85 360.7 882.4 360.05 884.2 360.05 886 360.05 887.6 360.7 889.2 361.35 890.35 362.5 891.6 363.65 892.25 365.15 892.95 366.7 892.95 368.5 892.95 369.95 892.5 371.25 891.95 372.55 891.1 373.6 890.25 374.6 889.05 375.35 887.85 376.05 886.5 376.4
L 886.5 382.2
Q 888.75 382.05 890.55 381.9 892.35 381.75 893.75 381.5 893.95 381.45 894.2 381.5 894.45 381.6 894.5 381.9
L 894.75 384.45
Q 894.8 384.75 894.6 384.9 894.4 385.1 894.2 385.15 892.05 385.55 889.65 385.75 887.25 385.95 884.75 386.1 882.25 386.25 879.7 386.25 877.2 386.25 874.8 386.25 874.55 386.25 874.4 386.1 874.25 385.9 874.25 385.65
L 874.25 383
Q 874.25 382.75 874.4 382.55 874.55 382.4 874.8 382.4 876.75 382.4 878.55 382.4 880.35 382.4 882 382.35
L 882 376.45
Q 880.6 376.15 879.45 375.4 878.25 374.7 877.35 373.65 876.45 372.6 875.95 371.3 875.45 370 875.45 368.5
M 854.7 392.75
Q 853.4 392.75 852.5 391.85 851.6 390.95 851.6 389.65 851.6 388.35 852.5 387.5 853.4 386.6 854.7 386.6 855.95 386.6 856.85 387.5 857.7 388.35 857.7 389.65 857.7 390.95 856.85 391.85 855.95 392.75 854.7 392.75
M 916.65 358.8
L 920.1 358.8
Q 920.35 358.8 920.5 358.95 920.7 359.15 920.7 359.35
L 920.7 378.65
Q 920.7 379 920.85 379.1 921 379.2 921.4 379.25 922.85 379.4 924.65 379.3 926.5 379.25 928.4 379.05 930.4 378.8 932.25 378.45 934.15 378.15 935.8 377.75 936.25 377.65 936.45 377.9 936.6 378.1 936.7 378.35
L 937.15 380.6
Q 937.2 380.85 937 381.1 936.8 381.35 936.45 381.4 934.95 381.8 932.7 382.2 930.4 382.55 927.95 382.85 925.45 383.15 923.05 383.25 920.7 383.35 919 383.2 917.45 383 916.75 382.25 916.1 381.5 916.1 380.15
L 916.1 359.35
Q 916.1 359.15 916.25 358.95 916.45 358.8 916.65 358.8
M 907.65 356.45
Q 908.15 356.45 908.15 357
L 908.15 394
Q 908.15 394.5 907.65 394.5
L 904.2 394.5
Q 903.65 394.5 903.65 394
L 903.65 376.05 900.35 376.05 900.35 392.2
Q 900.35 392.7 899.8 392.7
L 896.6 392.7
Q 895.95 392.7 895.95 392.2
L 895.95 357.6
Q 895.95 357.1 896.6 357.1
L 899.8 357.1
Q 900.35 357.1 900.35 357.6
L 900.35 372.2 903.65 372.2 903.65 357
Q 903.65 356.45 904.2 356.45
L 907.65 356.45
M 970 358.35
Q 970.2 358.6 970.2 358.8
L 970.2 361.4
Q 970.2 361.6 970.05 361.8 969.85 362.05 969.55 362.05
L 958.35 362.05
Q 958.15 362.05 957.95 361.85 957.75 361.7 957.75 361.4
L 957.75 358.8
Q 957.75 358.5 957.95 358.35 958.15 358.2 958.35 358.2
L 969.55 358.2
Q 969.8 358.2 970 358.35
M 943 356.45
Q 943.55 356.45 943.55 357
L 943.55 365.9 948.95 365.9
Q 949.15 365.9 949.35 366.05 949.55 366.2 949.55 366.4
L 949.55 369.2
Q 949.55 369.45 949.35 369.6 949.15 369.75 948.95 369.75
L 943.55 369.75 943.55 377.1 948.95 377.1
Q 949.15 377.1 949.35 377.25 949.55 377.4 949.55 377.55
L 949.55 380.4
Q 949.55 380.6 949.35 380.8 949.15 380.95 948.95 380.95
L 943.55 380.95 943.55 393.9
Q 943.55 394.45 943 394.45
L 939.45 394.45
Q 938.95 394.45 938.95 393.9
L 938.95 357
Q 938.95 356.45 939.45 356.45
L 943 356.45
M 355.95 356.45
Q 356.15 356.45 356.35 356.6 356.55 356.75 356.55 357
L 356.55 365.9 361.9 365.9
Q 362.1 365.9 362.3 366.05 362.5 366.2 362.5 366.4
L 362.5 369.2
Q 362.5 369.45 362.3 369.6 362.1 369.75 361.9 369.75
L 356.55 369.75 356.55 377.1 361.9 377.1
Q 362.1 377.1 362.3 377.25 362.5 377.4 362.5 377.55
L 362.5 380.4
Q 362.5 380.6 362.3 380.8 362.1 380.95 361.9 380.95
L 356.55 380.95 356.55 393.9
Q 356.55 394.15 356.35 394.25 356.15 394.45 355.95 394.45
L 352.45 394.45
Q 351.9 394.45 351.9 393.9
L 351.9 357
Q 351.9 356.45 352.45 356.45
L 355.95 356.45
M 344.9 362.4
Q 346.15 364.1 346.85 366.5 347.5 368.95 347.5 371.95 347.5 374.95 346.85 377.35 346.15 379.8 344.9 381.5 343.6 383.2 341.8 384.15 339.95 385.05 337.65 385.05 335.35 385.05 333.5 384.1 331.7 383.15 330.4 381.4 329.15 379.7 328.5 377.3 327.8 374.85 327.8 371.95 327.8 368.95 328.5 366.5 329.15 364.1 330.4 362.4 331.7 360.7 333.5 359.8 335.35 358.85 337.65 358.85 339.95 358.85 341.8 359.8 343.6 360.7 344.9 362.4
M 391.7 369.8
Q 392.1 367.1 393.2 364.8 394.3 362.55 396.25 361.05 398.2 359.6 401.4 359.6 403.45 359.6 405 360.25 406.6 360.95 407.65 362.1 408.8 363.3 409.5 364.85 410.2 366.4 410.6 368.1 411 369.8 411.15 371.6 411.35 373.35 411.35 375 411.35 378.65 410.75 381.55 410.15 384.45 408.9 386.4 407.65 388.35 405.8 389.45 403.95 390.45 401.4 390.45 396.25 390.45 393.8 386.4 391.35 382.35 391.35 375 391.35 372.55 391.7 369.8
M 370.15 392.75
Q 368.85 392.75 367.95 391.85 367.05 390.95 367.05 389.65 367.05 388.35 367.95 387.5 368.85 386.6 370.15 386.6 371.4 386.6 372.3 387.5 373.15 388.35 373.15 389.65 373.15 390.95 372.3 391.85 371.4 392.75 370.15 392.75
M 431.15 364
Q 431.9 362.6 433.15 361.6 434.4 360.6 436.1 360.05 437.8 359.5 439.75 359.5 441.75 359.5 443.45 360 445.15 360.55 446.35 361.5 447.55 362.45 448.25 363.85 448.95 365.25 448.95 367 448.95 369 447.7 370.8 446.45 372.55 443.85 374.35 445.25 375.2 446.4 375.95 447.5 376.75 448.3 377.65 449.1 378.55 449.5 379.6 449.95 380.6 449.95 382 449.95 384.15 449.05 385.75 448.2 387.4 446.8 388.45 445.4 389.5 443.5 390.05 441.7 390.6 439.75 390.6 437.95 390.6 436.1 390.05 434.3 389.5 432.85 388.45 431.4 387.4 430.5 385.75 429.6 384.15 429.6 382 429.6 380.5 430.05 379.35 430.6 378.2 431.4 377.3 432.2 376.4 433.3 375.7 434.4 375 435.6 374.4 433.2 373 431.8 371.2 430.4 369.4 430.4 367.1 430.4 365.4 431.15 364
M 420.7 392.75
Q 419.4 392.75 418.5 391.85 417.6 390.95 417.6 389.65 417.6 388.35 418.5 387.5 419.4 386.6 420.7 386.6 421.95 386.6 422.85 387.5 423.7 388.35 423.7 389.65 423.7 390.95 422.85 391.85 421.95 392.75 420.7 392.75
M 485.15 356.45
Q 485.65 356.45 485.65 357
L 485.65 393.9
Q 485.65 394.45 485.15 394.45
L 481.6 394.45
Q 481.05 394.45 481.05 393.9
L 481.05 357
Q 481.05 356.45 481.6 356.45
L 485.15 356.45
M 470.05 359.8
Q 471.85 360.75 473.15 362.45 474.4 364.15 475.05 366.6 475.75 369 475.75 372.05 475.75 375 475.05 377.45 474.4 379.9 473.15 381.6 471.85 383.35 470.05 384.25 468.25 385.25 465.9 385.25 463.6 385.25 461.8 384.25 459.95 383.3 458.7 381.55 457.45 379.8 456.75 377.4 456.05 374.95 456.05 372.05 456.05 369 456.75 366.6 457.45 364.15 458.7 362.45 459.95 360.75 461.8 359.8 463.6 358.85 465.9 358.85 468.25 358.85 470.05 359.8
M 507.6 364.8
Q 508.7 362.55 510.65 361.05 512.6 359.6 515.8 359.6 517.85 359.6 519.4 360.25 521 360.95 522.05 362.1 523.2 363.3 523.9 364.85 524.6 366.4 525 368.1 525.4 369.8 525.55 371.6 525.75 373.35 525.75 375 525.75 378.65 525.15 381.55 524.55 384.45 523.3 386.4 522.05 388.35 520.2 389.45 518.35 390.45 515.8 390.45 510.65 390.45 508.2 386.4 505.75 382.35 505.75 375 505.75 372.55 506.1 369.8 506.5 367.1 507.6 364.8
M 562.15 359.85
Q 562.85 359.85 563 360 563.15 360.15 563.15 360.6
L 563.15 363
Q 563.15 363.35 562.9 363.65
L 552.35 389.7
Q 552.15 390 552 390.15 551.85 390.25 551.45 390.25
L 548.2 390.25
Q 547.6 390.25 547.45 390.1 547.3 390 547.45 389.55
L 557.9 364 545.15 364
Q 544.85 364 544.65 363.8 544.45 363.65 544.45 363.3
L 544.45 360.5
Q 544.45 359.85 545.15 359.85
L 562.15 359.85
M 537.25 391.85
Q 536.35 392.75 535.1 392.75 533.8 392.75 532.9 391.85 532 390.95 532 389.65 532 388.35 532.9 387.5 533.8 386.6 535.1 386.6 536.35 386.6 537.25 387.5 538.1 388.35 538.1 389.65 538.1 390.95 537.25 391.85
M 602.45 358.2
Q 602.65 358.2 602.85 358.3 603.05 358.45 603.05 358.65
L 603.05 364.3 619.1 364.3 619.1 358.65
Q 619.1 358.4 619.25 358.25 619.45 358.1 619.65 358.1
L 623.2 358.1
Q 623.4 358.1 623.55 358.25 623.7 358.4 623.7 358.65
L 623.7 374.1
Q 623.7 375.4 623.05 376.1 622.45 376.75 620.7 376.75
L 613.4 376.75 613.4 384.1 628.5 384.1
Q 628.7 384.1 628.9 384.3 629.1 384.55 629.1 384.75
L 629.1 387.35
Q 629.1 387.55 628.9 387.75 628.7 387.95 628.5 387.95
L 593.7 387.95
Q 593.4 387.95 593.25 387.75 593.1 387.55 593.1 387.35
L 593.1 384.75
Q 593.1 384.5 593.25 384.3 593.4 384.1 593.7 384.1
L 608.8 384.1 608.8 376.75 601.45 376.75
Q 599.7 376.75 599.05 376.2 598.4 375.6 598.4 373.95
L 598.4 358.65
Q 598.4 358.45 598.6 358.3 598.75 358.2 598.95 358.2
L 602.45 358.2
M 588.1 363.95
Q 588 364.5 587.45 364.25 586.4 363.85 585.25 363.75 584.05 363.65 582.65 363.65 580.6 363.65 579.1 364.3 577.65 365 576.65 366.25 575.65 367.5 575.1 369.15 574.5 370.85 574.25 372.8 574.6 372.3 575.2 371.85 575.8 371.4 576.55 371.05 577.3 370.7 578.1 370.5 578.9 370.25 579.65 370.25 581.85 370.25 583.6 370.95 585.4 371.65 586.65 372.95 587.95 374.25 588.65 376.1 589.35 377.9 589.35 380.2 589.35 382.4 588.65 384.25 588 386.2 586.7 387.55 585.4 389 583.55 389.8 581.7 390.6 579.4 390.6 574.7 390.6 572.15 387.05 569.6 383.5 569.6 376.05 569.6 372.65 570.3 369.65 571 366.6 572.55 364.4 574.15 362.15 576.7 360.8 579.25 359.5 583 359.5 584.15 359.5 585.55 359.7 587 359.9 587.9 360.25 588.25 360.35 588.2 360.75
L 588.1 363.95
M 278.75 356.45
Q 278.95 356.45 279.15 356.6 279.35 356.75 279.35 357
L 279.35 371.1 284.7 371.1
Q 284.9 371.1 285.1 371.25 285.3 371.4 285.3 371.6
L 285.3 374.4
Q 285.3 374.6 285.1 374.8 284.9 374.95 284.7 374.95
L 279.35 374.95 279.35 393.9
Q 279.35 394.15 279.15 394.25 278.95 394.45 278.75 394.45
L 275.25 394.45
Q 274.7 394.45 274.7 393.9
L 274.7 357
Q 274.7 356.45 275.25 356.45
L 278.75 356.45
M 264.6 359.8
Q 266.4 360.7 267.7 362.4 268.95 364.1 269.65 366.5 270.3 368.95 270.3 371.95 270.3 374.95 269.65 377.35 268.95 379.8 267.7 381.5 266.4 383.2 264.6 384.15 262.75 385.05 260.45 385.05 258.15 385.05 256.3 384.1 254.5 383.2 253.2 381.45 251.95 379.75 251.3 377.35 250.6 374.95 250.6 372.05 250.6 369 251.3 366.6 251.95 364.15 253.2 362.45 254.5 360.75 256.3 359.8 258.15 358.85 260.45 358.85 262.75 358.85 264.6 359.8
M 319.05 356.45
Q 319.55 356.45 319.55 357
L 319.55 393.9
Q 319.55 394.45 319.05 394.45
L 315.5 394.45
Q 314.95 394.45 314.95 393.9
L 314.95 357
Q 314.95 356.45 315.5 356.45
L 319.05 356.45
M 290.9 359.35
Q 290.9 359.15 291.05 358.95 291.25 358.8 291.45 358.8
L 294.9 358.8
Q 295.1 358.8 295.3 358.95 295.5 359.15 295.5 359.35
L 295.5 378.65
Q 295.5 379.05 295.65 379.15 295.8 379.25 296.25 379.3 299.45 379.5 303.2 379.2 306.95 378.9 311.05 378.05 311.5 378 311.65 378.2 311.85 378.4 311.9 378.7
L 312.4 380.9
Q 312.5 381.2 312.25 381.4 312.05 381.65 311.7 381.75 309.95 382.2 307.75 382.55 305.55 382.85 303.2 383.05 300.85 383.2 298.4 383.3 296 383.35 293.8 383.2 292.25 383.15 291.55 382.35 290.9 381.55 290.9 380.2
L 290.9 359.35
M 244.55 515.8
L 1057.95 515.8 244.55 515.8
M 244.55 455.8
L 1057.95 455.8 244.55 455.8
M 265.45 368.45
Q 265.1 366.8 264.4 365.6 263.7 364.4 262.75 363.65 261.7 362.95 260.45 362.95 259.2 362.95 258.2 363.65 257.25 364.4 256.55 365.6 255.85 366.8 255.5 368.45 255.15 370.1 255.15 371.95 255.15 373.75 255.5 375.4 255.85 377.05 256.55 378.25 257.25 379.5 258.2 380.25 259.2 380.95 260.45 380.95 261.7 380.95 262.75 380.25 263.7 379.5 264.4 378.25 265.1 377.05 265.45 375.4 265.8 373.75 265.8 371.95 265.8 370.1 265.45 368.45
M 583.6 376.05
Q 582.25 374.45 579.8 374.45 577.2 374.45 575.75 376 574.25 377.55 574.25 380 574.25 381.4 574.65 382.55 575.05 383.8 575.75 384.7 576.45 385.6 577.4 386.1 578.4 386.6 579.5 386.6 581.9 386.6 583.45 384.95 584.95 383.25 584.95 380.4 584.95 377.6 583.6 376.05
M 603.05 372.35
Q 603.05 373 603.75 373
L 618.4 373
Q 619.1 373 619.1 372.35
L 619.1 368 603.05 368 603.05 372.35
M 511.8 366.4
Q 511.05 367.75 510.7 369.85 510.3 372 510.3 375 510.3 378.1 510.7 380.25 511.05 382.35 511.8 383.65 512.5 385 513.5 385.55 514.5 386.15 515.8 386.15 517 386.15 518.05 385.55 519.05 385 519.8 383.65 520.5 382.35 520.9 380.25 521.25 378.1 521.25 375 521.25 372 520.9 369.85 520.5 367.75 519.8 366.4 519.05 365.1 518.05 364.55 517 363.95 515.8 363.95 514.5 363.95 513.5 364.55 512.5 365.1 511.8 366.4
M 468.15 363.65
Q 467.15 362.95 465.9 362.95 464.6 362.95 463.65 363.65 462.65 364.4 462 365.6 461.3 366.85 460.95 368.55 460.55 370.2 460.55 372.05 460.55 373.8 460.95 375.5 461.3 377.15 462 378.4 462.65 379.65 463.65 380.4 464.6 381.15 465.9 381.15 467.15 381.15 468.15 380.4 469.15 379.65 469.85 378.4 470.5 377.15 470.85 375.5 471.2 373.8 471.2 372.05 471.2 370.2 470.85 368.55 470.5 366.85 469.85 365.6 469.15 364.4 468.15 363.65
M 438 377.25
Q 436.95 377.65 436.1 378.3 435.25 378.95 434.65 379.85 434.05 380.75 434.05 382 434.05 383 434.6 383.85 435.1 384.7 435.9 385.3 436.75 385.9 437.75 386.25 438.8 386.55 439.75 386.55 440.75 386.55 441.8 386.25 442.8 385.95 443.6 385.35 444.4 384.75 444.9 383.9 445.4 383.05 445.4 382 445.4 381.25 444.9 380.4 444.4 379.6 443.6 378.85 442.75 378.15 441.75 377.55 440.75 376.95 439.75 376.6 438.95 376.8 438 377.25
M 443.05 364.55
Q 442.4 364 441.55 363.75 440.7 363.4 439.75 363.4 438.9 363.4 438.05 363.7 437.2 364 436.55 364.5 435.85 365 435.4 365.7 434.95 366.45 434.95 367.4 434.95 368.25 435.55 369.05 436.1 369.85 436.85 370.55 437.65 371.25 438.45 371.7 439.25 372.2 439.75 372.4 440.4 372.15 441.15 371.6 441.95 371.05 442.7 370.35 443.45 369.6 443.95 368.8 444.45 368 444.45 367.3 444.45 366.5 444.05 365.8 443.7 365.1 443.05 364.55
M 399.1 364.55
Q 398.1 365.1 397.4 366.4 396.65 367.75 396.3 369.85 395.9 372 395.9 375 395.9 378.1 396.3 380.25 396.65 382.35 397.4 383.65 398.1 385 399.1 385.55 400.1 386.15 401.4 386.15 402.6 386.15 403.65 385.55 404.65 385 405.4 383.65 406.1 382.35 406.5 380.25 406.85 378.1 406.85 375 406.85 372 406.5 369.85 406.1 367.75 405.4 366.4 404.65 365.1 403.65 364.55 402.6 363.95 401.4 363.95 400.1 363.95 399.1 364.55
M 333.75 365.6
Q 333.05 366.8 332.7 368.45 332.35 370.1 332.35 371.95 332.35 373.75 332.7 375.4 333.05 377.05 333.75 378.25 334.45 379.5 335.4 380.25 336.4 380.95 337.65 380.95 338.9 380.95 339.95 380.25 340.9 379.5 341.6 378.25 342.3 377.05 342.65 375.4 343 373.75 343 371.95 343 370.1 342.65 368.45 342.3 366.8 341.6 365.6 340.9 364.4 339.95 363.65 338.9 362.95 337.65 362.95 336.4 362.95 335.4 363.65 334.45 364.4 333.75 365.6
M 879.85 368.5
Q 879.85 369.45 880.2 370.35 880.55 371.2 881.15 371.8 881.75 372.4 882.5 372.8 883.3 373.15 884.2 373.15 885.1 373.15 885.9 372.8 886.7 372.4 887.3 371.8 887.9 371.2 888.25 370.35 888.55 369.45 888.55 368.5 888.55 367.5 888.25 366.65 887.9 365.8 887.3 365.2 886.7 364.55 885.9 364.15 885.1 363.8 884.2 363.8 883.3 363.8 882.5 364.15 881.75 364.55 881.15 365.2 880.55 365.8 880.2 366.65 879.85 367.5 879.85 368.5
M 819.95 363.65
Q 819 364.4 818.3 365.6 817.6 366.8 817.25 368.45 816.9 370.1 816.9 371.95 816.9 373.75 817.25 375.4 817.6 377.05 818.3 378.25 819 379.5 819.95 380.25 820.95 380.95 822.2 380.95 823.45 380.95 824.5 380.25 825.45 379.5 826.15 378.25 826.85 377.05 827.2 375.4 827.55 373.75 827.55 371.95 827.55 370.1 827.2 368.45 826.85 366.8 826.15 365.6 825.45 364.4 824.5 363.65 823.45 362.95 822.2 362.95 820.95 362.95 819.95 363.65
M 967.5 375.3
Q 966.3 374 964.15 374 962.15 374 960.9 375.3 959.7 376.55 959.7 378.55 959.7 380.5 960.9 381.75 962.15 383.05 964.15 383.05 966.3 383.05 967.5 381.75 968.7 380.5 968.7 378.55 968.7 376.55 967.5 375.3
M 1011.05 366.5
L 1011.05 370.65 1017.85 370.65 1017.85 366.5 1011.05 366.5
M 998.05 362.4
Q 997.95 362.45 997.95 362.8
L 997.95 373.65
Q 997.95 374.05 998.05 374.15 998.15 374.2 998.5 374.2
L 1006 374.2
Q 1006.35 374.2 1006.4 374.15 1006.55 374.05 1006.55 373.65
L 1006.55 362.85
Q 1006.55 362.5 1006.4 362.4 1006.35 362.3 1006 362.3
L 998.5 362.3
Q 998.15 362.3 998.05 362.4 Z"/>

<path fill="#1E1E1E" stroke="none" d="
M 291.05 358.95
Q 290.9 359.15 290.9 359.35
L 290.9 380.2
Q 290.9 381.55 291.55 382.35 292.25 383.15 293.8 383.2 296 383.35 298.4 383.3 300.85 383.2 303.2 383.05 305.55 382.85 307.75 382.55 309.95 382.2 311.7 381.75 312.05 381.65 312.25 381.4 312.5 381.2 312.4 380.9
L 311.9 378.7
Q 311.85 378.4 311.65 378.2 311.5 378 311.05 378.05 306.95 378.9 303.2 379.2 299.45 379.5 296.25 379.3 295.8 379.25 295.65 379.15 295.5 379.05 295.5 378.65
L 295.5 359.35
Q 295.5 359.15 295.3 358.95 295.1 358.8 294.9 358.8
L 291.45 358.8
Q 291.25 358.8 291.05 358.95
M 319.55 357
Q 319.55 356.45 319.05 356.45
L 315.5 356.45
Q 314.95 356.45 314.95 357
L 314.95 393.9
Q 314.95 394.45 315.5 394.45
L 319.05 394.45
Q 319.55 394.45 319.55 393.9
L 319.55 357
M 267.7 362.4
Q 266.4 360.7 264.6 359.8 262.75 358.85 260.45 358.85 258.15 358.85 256.3 359.8 254.5 360.75 253.2 362.45 251.95 364.15 251.3 366.6 250.6 369 250.6 372.05 250.6 374.95 251.3 377.35 251.95 379.75 253.2 381.45 254.5 383.2 256.3 384.1 258.15 385.05 260.45 385.05 262.75 385.05 264.6 384.15 266.4 383.2 267.7 381.5 268.95 379.8 269.65 377.35 270.3 374.95 270.3 371.95 270.3 368.95 269.65 366.5 268.95 364.1 267.7 362.4
M 264.4 365.6
Q 265.1 366.8 265.45 368.45 265.8 370.1 265.8 371.95 265.8 373.75 265.45 375.4 265.1 377.05 264.4 378.25 263.7 379.5 262.75 380.25 261.7 380.95 260.45 380.95 259.2 380.95 258.2 380.25 257.25 379.5 256.55 378.25 255.85 377.05 255.5 375.4 255.15 373.75 255.15 371.95 255.15 370.1 255.5 368.45 255.85 366.8 256.55 365.6 257.25 364.4 258.2 363.65 259.2 362.95 260.45 362.95 261.7 362.95 262.75 363.65 263.7 364.4 264.4 365.6
M 279.15 356.6
Q 278.95 356.45 278.75 356.45
L 275.25 356.45
Q 274.7 356.45 274.7 357
L 274.7 393.9
Q 274.7 394.45 275.25 394.45
L 278.75 394.45
Q 278.95 394.45 279.15 394.25 279.35 394.15 279.35 393.9
L 279.35 374.95 284.7 374.95
Q 284.9 374.95 285.1 374.8 285.3 374.6 285.3 374.4
L 285.3 371.6
Q 285.3 371.4 285.1 371.25 284.9 371.1 284.7 371.1
L 279.35 371.1 279.35 357
Q 279.35 356.75 279.15 356.6
M 587.45 364.25
Q 588 364.5 588.1 363.95
L 588.2 360.75
Q 588.25 360.35 587.9 360.25 587 359.9 585.55 359.7 584.15 359.5 583 359.5 579.25 359.5 576.7 360.8 574.15 362.15 572.55 364.4 571 366.6 570.3 369.65 569.6 372.65 569.6 376.05 569.6 383.5 572.15 387.05 574.7 390.6 579.4 390.6 581.7 390.6 583.55 389.8 585.4 389 586.7 387.55 588 386.2 588.65 384.25 589.35 382.4 589.35 380.2 589.35 377.9 588.65 376.1 587.95 374.25 586.65 372.95 585.4 371.65 583.6 370.95 581.85 370.25 579.65 370.25 578.9 370.25 578.1 370.5 577.3 370.7 576.55 371.05 575.8 371.4 575.2 371.85 574.6 372.3 574.25 372.8 574.5 370.85 575.1 369.15 575.65 367.5 576.65 366.25 577.65 365 579.1 364.3 580.6 363.65 582.65 363.65 584.05 363.65 585.25 363.75 586.4 363.85 587.45 364.25
M 579.8 374.45
Q 582.25 374.45 583.6 376.05 584.95 377.6 584.95 380.4 584.95 383.25 583.45 384.95 581.9 386.6 579.5 386.6 578.4 386.6 577.4 386.1 576.45 385.6 575.75 384.7 575.05 383.8 574.65 382.55 574.25 381.4 574.25 380 574.25 377.55 575.75 376 577.2 374.45 579.8 374.45
M 602.85 358.3
Q 602.65 358.2 602.45 358.2
L 598.95 358.2
Q 598.75 358.2 598.6 358.3 598.4 358.45 598.4 358.65
L 598.4 373.95
Q 598.4 375.6 599.05 376.2 599.7 376.75 601.45 376.75
L 608.8 376.75 608.8 384.1 593.7 384.1
Q 593.4 384.1 593.25 384.3 593.1 384.5 593.1 384.75
L 593.1 387.35
Q 593.1 387.55 593.25 387.75 593.4 387.95 593.7 387.95
L 628.5 387.95
Q 628.7 387.95 628.9 387.75 629.1 387.55 629.1 387.35
L 629.1 384.75
Q 629.1 384.55 628.9 384.3 628.7 384.1 628.5 384.1
L 613.4 384.1 613.4 376.75 620.7 376.75
Q 622.45 376.75 623.05 376.1 623.7 375.4 623.7 374.1
L 623.7 358.65
Q 623.7 358.4 623.55 358.25 623.4 358.1 623.2 358.1
L 619.65 358.1
Q 619.45 358.1 619.25 358.25 619.1 358.4 619.1 358.65
L 619.1 364.3 603.05 364.3 603.05 358.65
Q 603.05 358.45 602.85 358.3
M 603.75 373
Q 603.05 373 603.05 372.35
L 603.05 368 619.1 368 619.1 372.35
Q 619.1 373 618.4 373
L 603.75 373
M 535.1 392.75
Q 536.35 392.75 537.25 391.85 538.1 390.95 538.1 389.65 538.1 388.35 537.25 387.5 536.35 386.6 535.1 386.6 533.8 386.6 532.9 387.5 532 388.35 532 389.65 532 390.95 532.9 391.85 533.8 392.75 535.1 392.75
M 563 360
Q 562.85 359.85 562.15 359.85
L 545.15 359.85
Q 544.45 359.85 544.45 360.5
L 544.45 363.3
Q 544.45 363.65 544.65 363.8 544.85 364 545.15 364
L 557.9 364 547.45 389.55
Q 547.3 390 547.45 390.1 547.6 390.25 548.2 390.25
L 551.45 390.25
Q 551.85 390.25 552 390.15 552.15 390 552.35 389.7
L 562.9 363.65
Q 563.15 363.35 563.15 363
L 563.15 360.6
Q 563.15 360.15 563 360
M 510.65 361.05
Q 508.7 362.55 507.6 364.8 506.5 367.1 506.1 369.8 505.75 372.55 505.75 375 505.75 382.35 508.2 386.4 510.65 390.45 515.8 390.45 518.35 390.45 520.2 389.45 522.05 388.35 523.3 386.4 524.55 384.45 525.15 381.55 525.75 378.65 525.75 375 525.75 373.35 525.55 371.6 525.4 369.8 525 368.1 524.6 366.4 523.9 364.85 523.2 363.3 522.05 362.1 521 360.95 519.4 360.25 517.85 359.6 515.8 359.6 512.6 359.6 510.65 361.05
M 510.7 369.85
Q 511.05 367.75 511.8 366.4 512.5 365.1 513.5 364.55 514.5 363.95 515.8 363.95 517 363.95 518.05 364.55 519.05 365.1 519.8 366.4 520.5 367.75 520.9 369.85 521.25 372 521.25 375 521.25 378.1 520.9 380.25 520.5 382.35 519.8 383.65 519.05 385 518.05 385.55 517 386.15 515.8 386.15 514.5 386.15 513.5 385.55 512.5 385 511.8 383.65 511.05 382.35 510.7 380.25 510.3 378.1 510.3 375 510.3 372 510.7 369.85
M 473.15 362.45
Q 471.85 360.75 470.05 359.8 468.25 358.85 465.9 358.85 463.6 358.85 461.8 359.8 459.95 360.75 458.7 362.45 457.45 364.15 456.75 366.6 456.05 369 456.05 372.05 456.05 374.95 456.75 377.4 457.45 379.8 458.7 381.55 459.95 383.3 461.8 384.25 463.6 385.25 465.9 385.25 468.25 385.25 470.05 384.25 471.85 383.35 473.15 381.6 474.4 379.9 475.05 377.45 475.75 375 475.75 372.05 475.75 369 475.05 366.6 474.4 364.15 473.15 362.45
M 465.9 362.95
Q 467.15 362.95 468.15 363.65 469.15 364.4 469.85 365.6 470.5 366.85 470.85 368.55 471.2 370.2 471.2 372.05 471.2 373.8 470.85 375.5 470.5 377.15 469.85 378.4 469.15 379.65 468.15 380.4 467.15 381.15 465.9 381.15 464.6 381.15 463.65 380.4 462.65 379.65 462 378.4 461.3 377.15 460.95 375.5 460.55 373.8 460.55 372.05 460.55 370.2 460.95 368.55 461.3 366.85 462 365.6 462.65 364.4 463.65 363.65 464.6 362.95 465.9 362.95
M 485.65 357
Q 485.65 356.45 485.15 356.45
L 481.6 356.45
Q 481.05 356.45 481.05 357
L 481.05 393.9
Q 481.05 394.45 481.6 394.45
L 485.15 394.45
Q 485.65 394.45 485.65 393.9
L 485.65 357
M 418.5 391.85
Q 419.4 392.75 420.7 392.75 421.95 392.75 422.85 391.85 423.7 390.95 423.7 389.65 423.7 388.35 422.85 387.5 421.95 386.6 420.7 386.6 419.4 386.6 418.5 387.5 417.6 388.35 417.6 389.65 417.6 390.95 418.5 391.85
M 433.15 361.6
Q 431.9 362.6 431.15 364 430.4 365.4 430.4 367.1 430.4 369.4 431.8 371.2 433.2 373 435.6 374.4 434.4 375 433.3 375.7 432.2 376.4 431.4 377.3 430.6 378.2 430.05 379.35 429.6 380.5 429.6 382 429.6 384.15 430.5 385.75 431.4 387.4 432.85 388.45 434.3 389.5 436.1 390.05 437.95 390.6 439.75 390.6 441.7 390.6 443.5 390.05 445.4 389.5 446.8 388.45 448.2 387.4 449.05 385.75 449.95 384.15 449.95 382 449.95 380.6 449.5 379.6 449.1 378.55 448.3 377.65 447.5 376.75 446.4 375.95 445.25 375.2 443.85 374.35 446.45 372.55 447.7 370.8 448.95 369 448.95 367 448.95 365.25 448.25 363.85 447.55 362.45 446.35 361.5 445.15 360.55 443.45 360 441.75 359.5 439.75 359.5 437.8 359.5 436.1 360.05 434.4 360.6 433.15 361.6
M 441.55 363.75
Q 442.4 364 443.05 364.55 443.7 365.1 444.05 365.8 444.45 366.5 444.45 367.3 444.45 368 443.95 368.8 443.45 369.6 442.7 370.35 441.95 371.05 441.15 371.6 440.4 372.15 439.75 372.4 439.25 372.2 438.45 371.7 437.65 371.25 436.85 370.55 436.1 369.85 435.55 369.05 434.95 368.25 434.95 367.4 434.95 366.45 435.4 365.7 435.85 365 436.55 364.5 437.2 364 438.05 363.7 438.9 363.4 439.75 363.4 440.7 363.4 441.55 363.75
M 436.1 378.3
Q 436.95 377.65 438 377.25 438.95 376.8 439.75 376.6 440.75 376.95 441.75 377.55 442.75 378.15 443.6 378.85 444.4 379.6 444.9 380.4 445.4 381.25 445.4 382 445.4 383.05 444.9 383.9 444.4 384.75 443.6 385.35 442.8 385.95 441.8 386.25 440.75 386.55 439.75 386.55 438.8 386.55 437.75 386.25 436.75 385.9 435.9 385.3 435.1 384.7 434.6 383.85 434.05 383 434.05 382 434.05 380.75 434.65 379.85 435.25 378.95 436.1 378.3
M 367.95 391.85
Q 368.85 392.75 370.15 392.75 371.4 392.75 372.3 391.85 373.15 390.95 373.15 389.65 373.15 388.35 372.3 387.5 371.4 386.6 370.15 386.6 368.85 386.6 367.95 387.5 367.05 388.35 367.05 389.65 367.05 390.95 367.95 391.85
M 393.2 364.8
Q 392.1 367.1 391.7 369.8 391.35 372.55 391.35 375 391.35 382.35 393.8 386.4 396.25 390.45 401.4 390.45 403.95 390.45 405.8 389.45 407.65 388.35 408.9 386.4 410.15 384.45 410.75 381.55 411.35 378.65 411.35 375 411.35 373.35 411.15 371.6 411 369.8 410.6 368.1 410.2 366.4 409.5 364.85 408.8 363.3 407.65 362.1 406.6 360.95 405 360.25 403.45 359.6 401.4 359.6 398.2 359.6 396.25 361.05 394.3 362.55 393.2 364.8
M 397.4 366.4
Q 398.1 365.1 399.1 364.55 400.1 363.95 401.4 363.95 402.6 363.95 403.65 364.55 404.65 365.1 405.4 366.4 406.1 367.75 406.5 369.85 406.85 372 406.85 375 406.85 378.1 406.5 380.25 406.1 382.35 405.4 383.65 404.65 385 403.65 385.55 402.6 386.15 401.4 386.15 400.1 386.15 399.1 385.55 398.1 385 397.4 383.65 396.65 382.35 396.3 380.25 395.9 378.1 395.9 375 395.9 372 396.3 369.85 396.65 367.75 397.4 366.4
M 346.85 366.5
Q 346.15 364.1 344.9 362.4 343.6 360.7 341.8 359.8 339.95 358.85 337.65 358.85 335.35 358.85 333.5 359.8 331.7 360.7 330.4 362.4 329.15 364.1 328.5 366.5 327.8 368.95 327.8 371.95 327.8 374.85 328.5 377.3 329.15 379.7 330.4 381.4 331.7 383.15 333.5 384.1 335.35 385.05 337.65 385.05 339.95 385.05 341.8 384.15 343.6 383.2 344.9 381.5 346.15 379.8 346.85 377.35 347.5 374.95 347.5 371.95 347.5 368.95 346.85 366.5
M 332.7 368.45
Q 333.05 366.8 333.75 365.6 334.45 364.4 335.4 363.65 336.4 362.95 337.65 362.95 338.9 362.95 339.95 363.65 340.9 364.4 341.6 365.6 342.3 366.8 342.65 368.45 343 370.1 343 371.95 343 373.75 342.65 375.4 342.3 377.05 341.6 378.25 340.9 379.5 339.95 380.25 338.9 380.95 337.65 380.95 336.4 380.95 335.4 380.25 334.45 379.5 333.75 378.25 333.05 377.05 332.7 375.4 332.35 373.75 332.35 371.95 332.35 370.1 332.7 368.45
M 356.35 356.6
Q 356.15 356.45 355.95 356.45
L 352.45 356.45
Q 351.9 356.45 351.9 357
L 351.9 393.9
Q 351.9 394.45 352.45 394.45
L 355.95 394.45
Q 356.15 394.45 356.35 394.25 356.55 394.15 356.55 393.9
L 356.55 380.95 361.9 380.95
Q 362.1 380.95 362.3 380.8 362.5 380.6 362.5 380.4
L 362.5 377.55
Q 362.5 377.4 362.3 377.25 362.1 377.1 361.9 377.1
L 356.55 377.1 356.55 369.75 361.9 369.75
Q 362.1 369.75 362.3 369.6 362.5 369.45 362.5 369.2
L 362.5 366.4
Q 362.5 366.2 362.3 366.05 362.1 365.9 361.9 365.9
L 356.55 365.9 356.55 357
Q 356.55 356.75 356.35 356.6
M 943.55 357
Q 943.55 356.45 943 356.45
L 939.45 356.45
Q 938.95 356.45 938.95 357
L 938.95 393.9
Q 938.95 394.45 939.45 394.45
L 943 394.45
Q 943.55 394.45 943.55 393.9
L 943.55 380.95 948.95 380.95
Q 949.15 380.95 949.35 380.8 949.55 380.6 949.55 380.4
L 949.55 377.55
Q 949.55 377.4 949.35 377.25 949.15 377.1 948.95 377.1
L 943.55 377.1 943.55 369.75 948.95 369.75
Q 949.15 369.75 949.35 369.6 949.55 369.45 949.55 369.2
L 949.55 366.4
Q 949.55 366.2 949.35 366.05 949.15 365.9 948.95 365.9
L 943.55 365.9 943.55 357
M 970.2 358.8
Q 970.2 358.6 970 358.35 969.8 358.2 969.55 358.2
L 958.35 358.2
Q 958.15 358.2 957.95 358.35 957.75 358.5 957.75 358.8
L 957.75 361.4
Q 957.75 361.7 957.95 361.85 958.15 362.05 958.35 362.05
L 969.55 362.05
Q 969.85 362.05 970.05 361.8 970.2 361.6 970.2 361.4
L 970.2 358.8
M 908.15 357
Q 908.15 356.45 907.65 356.45
L 904.2 356.45
Q 903.65 356.45 903.65 357
L 903.65 372.2 900.35 372.2 900.35 357.6
Q 900.35 357.1 899.8 357.1
L 896.6 357.1
Q 895.95 357.1 895.95 357.6
L 895.95 392.2
Q 895.95 392.7 896.6 392.7
L 899.8 392.7
Q 900.35 392.7 900.35 392.2
L 900.35 376.05 903.65 376.05 903.65 394
Q 903.65 394.5 904.2 394.5
L 907.65 394.5
Q 908.15 394.5 908.15 394
L 908.15 357
M 920.1 358.8
L 916.65 358.8
Q 916.45 358.8 916.25 358.95 916.1 359.15 916.1 359.35
L 916.1 380.15
Q 916.1 381.5 916.75 382.25 917.45 383 919 383.2 920.7 383.35 923.05 383.25 925.45 383.15 927.95 382.85 930.4 382.55 932.7 382.2 934.95 381.8 936.45 381.4 936.8 381.35 937 381.1 937.2 380.85 937.15 380.6
L 936.7 378.35
Q 936.6 378.1 936.45 377.9 936.25 377.65 935.8 377.75 934.15 378.15 932.25 378.45 930.4 378.8 928.4 379.05 926.5 379.25 924.65 379.3 922.85 379.4 921.4 379.25 921 379.2 920.85 379.1 920.7 379 920.7 378.65
L 920.7 359.35
Q 920.7 359.15 920.5 358.95 920.35 358.8 920.1 358.8
M 852.5 391.85
Q 853.4 392.75 854.7 392.75 855.95 392.75 856.85 391.85 857.7 390.95 857.7 389.65 857.7 388.35 856.85 387.5 855.95 386.6 854.7 386.6 853.4 386.6 852.5 387.5 851.6 388.35 851.6 389.65 851.6 390.95 852.5 391.85
M 876.15 365.15
Q 875.45 366.7 875.45 368.5 875.45 370 875.95 371.3 876.45 372.6 877.35 373.65 878.25 374.7 879.45 375.4 880.6 376.15 882 376.45
L 882 382.35
Q 880.35 382.4 878.55 382.4 876.75 382.4 874.8 382.4 874.55 382.4 874.4 382.55 874.25 382.75 874.25 383
L 874.25 385.65
Q 874.25 385.9 874.4 386.1 874.55 386.25 874.8 386.25 877.2 386.25 879.7 386.25 882.25 386.25 884.75 386.1 887.25 385.95 889.65 385.75 892.05 385.55 894.2 385.15 894.4 385.1 894.6 384.9 894.8 384.75 894.75 384.45
L 894.5 381.9
Q 894.45 381.6 894.2 381.5 893.95 381.45 893.75 381.5 892.35 381.75 890.55 381.9 888.75 382.05 886.5 382.2
L 886.5 376.4
Q 887.85 376.05 889.05 375.35 890.25 374.6 891.1 373.6 891.95 372.55 892.5 371.25 892.95 369.95 892.95 368.5 892.95 366.7 892.25 365.15 891.6 363.65 890.35 362.5 889.2 361.35 887.6 360.7 886 360.05 884.2 360.05 882.4 360.05 880.85 360.7 879.25 361.35 878.05 362.5 876.85 363.65 876.15 365.15
M 880.2 370.35
Q 879.85 369.45 879.85 368.5 879.85 367.5 880.2 366.65 880.55 365.8 881.15 365.2 881.75 364.55 882.5 364.15 883.3 363.8 884.2 363.8 885.1 363.8 885.9 364.15 886.7 364.55 887.3 365.2 887.9 365.8 888.25 366.65 888.55 367.5 888.55 368.5 888.55 369.45 888.25 370.35 887.9 371.2 887.3 371.8 886.7 372.4 885.9 372.8 885.1 373.15 884.2 373.15 883.3 373.15 882.5 372.8 881.75 372.4 881.15 371.8 880.55 371.2 880.2 370.35
M 818.05 359.8
Q 816.25 360.7 814.95 362.4 813.7 364.1 813.05 366.5 812.35 368.95 812.35 371.95 812.35 374.85 813.05 377.3 813.7 379.7 814.95 381.4 816.25 383.15 818.05 384.1 819.9 385.05 822.2 385.05 824.5 385.05 826.35 384.15 828.15 383.2 829.45 381.5 830.7 379.8 831.4 377.35 832.05 374.95 832.05 371.95 832.05 368.95 831.4 366.5 830.7 364.1 829.45 362.4 828.15 360.7 826.35 359.8 824.5 358.85 822.2 358.85 819.9 358.85 818.05 359.8
M 818.3 365.6
Q 819 364.4 819.95 363.65 820.95 362.95 822.2 362.95 823.45 362.95 824.5 363.65 825.45 364.4 826.15 365.6 826.85 366.8 827.2 368.45 827.55 370.1 827.55 371.95 827.55 373.75 827.2 375.4 826.85 377.05 826.15 378.25 825.45 379.5 824.5 380.25 823.45 380.95 822.2 380.95 820.95 380.95 819.95 380.25 819 379.5 818.3 378.25 817.6 377.05 817.25 375.4 816.9 373.75 816.9 371.95 816.9 370.1 817.25 368.45 817.6 366.8 818.3 365.6
M 840.9 356.6
Q 840.7 356.45 840.5 356.45
L 837 356.45
Q 836.45 356.45 836.45 357
L 836.45 393.9
Q 836.45 394.45 837 394.45
L 840.5 394.45
Q 840.7 394.45 840.9 394.25 841.1 394.15 841.1 393.9
L 841.1 380.95 846.45 380.95
Q 846.65 380.95 846.85 380.8 847.05 380.6 847.05 380.4
L 847.05 377.55
Q 847.05 377.4 846.85 377.25 846.65 377.1 846.45 377.1
L 841.1 377.1 841.1 369.75 846.45 369.75
Q 846.65 369.75 846.85 369.6 847.05 369.45 847.05 369.2
L 847.05 366.4
Q 847.05 366.2 846.85 366.05 846.65 365.9 846.45 365.9
L 841.1 365.9 841.1 357
Q 841.1 356.75 840.9 356.6
M 772.5 376.65
Q 772.2 376.65 772.05 376.85 771.9 377.05 771.9 377.25
L 771.9 379.85
Q 771.9 380.05 772.05 380.3 772.2 380.5 772.5 380.5
L 787.55 380.5 787.55 393.6
Q 787.55 394.15 788.1 394.15
L 791.6 394.15
Q 792.15 394.15 792.15 393.6
L 792.15 380.5 807.3 380.5
Q 807.5 380.5 807.7 380.3 807.9 380.05 807.9 379.85
L 807.9 377.25
Q 807.9 377.05 807.7 376.85 807.5 376.65 807.3 376.65
L 772.5 376.65
M 792.4 357.1
Q 792.4 356.45 791.85 356.45
L 788.45 356.35
Q 788.15 356.35 787.95 356.55 787.8 356.75 787.75 357.05 787.5 359.55 786.55 361.5 785.6 363.4 783.95 364.9 782.3 366.4 780.05 367.5 777.8 368.6 774.95 369.4 774.65 369.45 774.5 369.7 774.4 370 774.5 370.25
L 775.9 372.85
Q 776 373 776.25 373.05 776.55 373.05 776.85 373 781.4 371.8 784.85 369.65 788.3 367.45 790.2 364.4 791.05 365.8 792.5 367.05 793.95 368.35 795.7 369.45 797.5 370.5 799.45 371.3 801.4 372.05 803.35 372.4 804 372.55 804.2 372.05
L 805.4 369.4
Q 805.5 369.1 805.35 368.9 805.2 368.7 804.9 368.65 802.75 368.1 800.7 367.2 798.65 366.3 796.95 365.05 795.25 363.85 793.95 362.4 792.7 360.95 792.15 359.3 792.3 358.3 792.4 357.1
M 733.3 384.7
L 733.3 387.35
Q 733.3 387.55 733.45 387.75 733.6 387.95 733.9 387.95
L 768.7 387.95
Q 768.9 387.95 769.1 387.75 769.3 387.55 769.3 387.35
L 769.3 384.7
Q 769.3 384.5 769.1 384.3 768.9 384.1 768.7 384.1
L 753.55 384.1 753.55 375.55
Q 753.55 375.3 753.35 375.15 753.2 375 752.95 375
L 749.45 375
Q 748.9 375 748.9 375.55
L 748.9 384.1 733.9 384.1
Q 733.6 384.1 733.45 384.25 733.3 384.45 733.3 384.7
M 752.95 358.35
L 749.45 358.2
Q 749.15 358.15 749 358.4 748.9 358.7 748.85 359 748.55 361.8 747.65 364 746.7 366.15 745.15 367.85 743.6 369.5 741.35 370.8 739.05 372.1 736.05 373.2 735.8 373.3 735.65 373.55 735.5 373.8 735.7 374.15
L 737.1 376.6
Q 737.3 376.95 737.55 377 737.8 377.05 738 377 742.45 375.5 745.9 373 749.35 370.55 751.35 367.05 752.35 368.7 753.8 370.15 755.25 371.6 756.95 372.8 758.65 374 760.55 374.85 762.4 375.75 764.25 376.25 764.85 376.4 765.2 375.8
L 766.5 373.2
Q 766.65 373 766.55 372.75 766.5 372.5 766.2 372.4 763.95 371.75 761.85 370.65 759.7 369.55 758 368.1 756.2 366.6 755.05 364.85 753.85 363.1 753.35 361.2 753.55 360.25 753.6 359.2 753.6 358.35 752.95 358.35
M 688.1 381.95
L 688.1 390.65
Q 688.1 392.2 688.7 392.9 689.3 393.55 691.1 393.55
L 713.55 393.55
Q 713.8 393.55 714 393.4 714.15 393.3 714.15 393.05
L 714.15 390.2
Q 714.15 390 713.95 389.85 713.75 389.7 713.55 389.7
L 693.45 389.7
Q 693 389.7 692.8 389.6 692.65 389.45 692.65 389.05
L 692.65 381.95
Q 692.65 381.75 692.5 381.55 692.3 381.4 692.05 381.4
L 688.65 381.4
Q 688.45 381.4 688.25 381.55 688.1 381.75 688.1 381.95
M 662.25 371.1
L 662.25 357
Q 662.25 356.45 661.7 356.45
L 658.15 356.45
Q 657.65 356.45 657.65 357
L 657.65 393.9
Q 657.65 394.45 658.15 394.45
L 661.7 394.45
Q 662.25 394.45 662.25 393.9
L 662.25 374.95 667.65 374.95
Q 667.85 374.95 668.05 374.8 668.25 374.6 668.25 374.4
L 668.25 371.6
Q 668.25 371.4 668.05 371.25 667.85 371.1 667.65 371.1
L 662.25 371.1
M 651.55 363.3
Q 652.1 363.3 652.1 362.8
L 652.1 360
Q 652.1 359.45 651.55 359.45
L 637 359.45
Q 635.5 359.45 634.95 360 634.35 360.6 634.35 362
L 634.35 380.95
Q 634.35 382.4 635.05 382.95 635.75 383.55 637.25 383.65 638.9 383.75 641.3 383.65 643.7 383.6 646.25 383.35 648.8 383.15 651.15 382.8 653.55 382.4 655.15 381.95 655.35 381.85 655.55 381.7 655.7 381.6 655.65 381.15
L 655.2 378.8
Q 655.05 378.2 654.45 378.35 652.65 378.65 650.7 378.95 648.65 379.2 646.75 379.4 644.85 379.6 643.1 379.65 641.4 379.75 640.15 379.6 639.4 379.55 639.15 379.35 638.95 379.15 638.95 378.55
L 638.95 364
Q 638.95 363.3 639.65 363.3
L 651.55 363.3
M 688.15 357.85
L 688.15 360.65
Q 688.15 360.85 688.35 361 688.55 361.15 688.75 361.15
L 707.95 361.15
Q 708.5 361.15 708.75 361.3 709.05 361.4 709.05 362 709.05 363.2 708.9 365.4 707.05 365.5 704.7 365.55 702.3 365.6 699.6 365.6 696.95 365.6 694.15 365.65 691.4 365.65 688.85 365.65 688.3 365.65 688.3 366.25
L 688.3 368.9
Q 688.3 369.15 688.45 369.3 688.65 369.5 688.85 369.5 691.25 369.5 693.9 369.5 696.5 369.45 699 369.45 701.55 369.4 704 369.3 706.5 369.25 708.65 369.15 708.5 370.65 708.35 372.05 708.25 373.45 708.05 374.3
L 683.1 374.3
Q 682.8 374.3 682.65 374.5 682.5 374.7 682.5 374.95
L 682.5 377.55
Q 682.5 377.75 682.65 377.95 682.8 378.15 683.1 378.15
L 717.9 378.15
Q 718.1 378.15 718.3 377.95 718.5 377.75 718.5 377.55
L 718.5 374.95
Q 718.5 374.75 718.3 374.55 718.1 374.3 717.9 374.3
L 712.3 374.3
Q 712.6 372.85 712.8 370.85 713.05 368.8 713.2 366.75 713.35 364.75 713.45 362.95 713.5 361.2 713.5 360.25 713.5 358.75 712.8 358.05 712.15 357.4 710.85 357.4
L 688.75 357.4
Q 688.55 357.4 688.35 357.5 688.15 357.6 688.15 357.85
M 1003.65 382.25
Q 1003.45 382.05 1003.15 382.05
L 999.75 382.05
Q 999.55 382.05 999.35 382.25 999.2 382.45 999.2 382.65
L 999.2 390.9
Q 999.2 392.45 999.8 393.1 1000.45 393.75 1002.25 393.75
L 1023.05 393.75
Q 1023.25 393.75 1023.45 393.65 1023.6 393.5 1023.6 393.25
L 1023.6 390.4
Q 1023.6 390.25 1023.45 390.05 1023.25 389.9 1023.05 389.9
L 1004.55 389.9
Q 1004.15 389.9 1003.95 389.8 1003.8 389.65 1003.8 389.25
L 1003.8 382.65
Q 1003.8 382.45 1003.65 382.25
M 973.05 378.4
Q 973.05 376.6 972.4 375.15 971.75 373.65 970.6 372.6 969.4 371.55 967.75 370.95 966.1 370.4 964.15 370.4 962.2 370.4 960.6 370.95 959 371.6 957.8 372.65 956.6 373.7 955.95 375.15 955.3 376.65 955.3 378.4 955.3 380.25 955.95 381.75 956.6 383.25 957.75 384.4 958.95 385.5 960.55 386.15 962.2 386.75 964.15 386.75 966.1 386.75 967.75 386.1 969.35 385.45 970.55 384.35 971.75 383.25 972.4 381.75 973.05 380.25 973.05 378.4
M 964.15 374
Q 966.3 374 967.5 375.3 968.7 376.55 968.7 378.55 968.7 380.5 967.5 381.75 966.3 383.05 964.15 383.05 962.15 383.05 960.9 381.75 959.7 380.5 959.7 378.55 959.7 376.55 960.9 375.3 962.15 374 964.15 374
M 975.3 367.8
L 975.3 365.3
Q 975.3 365.05 975.15 364.9 974.95 364.7 974.75 364.7
L 953.05 364.7
Q 952.8 364.7 952.6 364.9 952.35 365.1 952.35 365.3
L 952.35 367.75
Q 952.35 368 952.6 368.2 952.8 368.4 953.05 368.4
L 974.75 368.4
Q 974.95 368.4 975.15 368.2 975.3 368 975.3 367.8
M 982.2 357
Q 982.2 356.45 981.65 356.45
L 978.1 356.45
Q 977.55 356.45 977.55 357
L 977.55 393.9
Q 977.55 394.45 978.1 394.45
L 981.65 394.45
Q 982.2 394.45 982.2 393.9
L 982.2 375.4 987.55 375.4
Q 987.8 375.4 988 375.25 988.15 375.05 988.15 374.85
L 988.15 372.05
Q 988.15 371.8 988 371.65 987.8 371.55 987.55 371.55
L 982.2 371.55 982.2 357
M 994.1 359.2
Q 993.45 359.8 993.45 361.3
L 993.45 375.1
Q 993.45 376.65 994.1 377.25 994.7 377.85 996.4 377.85
L 1008.3 377.85
Q 1009.8 377.85 1010.45 377.25 1011.05 376.65 1011.05 375.1
L 1011.05 374.35 1017.85 374.35 1017.85 383.3
Q 1017.85 383.8 1018.4 383.8
L 1021.95 383.8
Q 1022.45 383.8 1022.45 383.3
L 1022.45 357
Q 1022.45 356.45 1021.95 356.45
L 1018.4 356.45
Q 1017.85 356.45 1017.85 357
L 1017.85 362.85 1011.05 362.85 1011.05 361.3
Q 1011.05 359.7 1010.45 359.15 1009.8 358.65 1008.3 358.65
L 996.2 358.65
Q 994.7 358.65 994.1 359.2
M 997.95 362.8
Q 997.95 362.45 998.05 362.4 998.15 362.3 998.5 362.3
L 1006 362.3
Q 1006.35 362.3 1006.4 362.4 1006.55 362.5 1006.55 362.85
L 1006.55 373.65
Q 1006.55 374.05 1006.4 374.15 1006.35 374.2 1006 374.2
L 998.5 374.2
Q 998.15 374.2 998.05 374.15 997.95 374.05 997.95 373.65
L 997.95 362.8
M 1011.05 370.65
L 1011.05 366.5 1017.85 366.5 1017.85 370.65 1011.05 370.65
M 264.75 200.25
Q 264.6 200.1 263.9 200.1
L 246.9 200.1
Q 246.2 200.1 246.2 200.75
L 246.2 203.55
Q 246.2 203.9 246.4 204.05 246.6 204.25 246.9 204.25
L 259.65 204.25 249.2 229.8
Q 249.05 230.25 249.2 230.35 249.35 230.5 249.95 230.5
L 253.2 230.5
Q 253.6 230.5 253.75 230.4 253.9 230.25 254.1 229.95
L 264.65 203.9
Q 264.9 203.6 264.9 203.25
L 264.9 200.85
Q 264.9 200.4 264.75 200.25
M 285 204
Q 286.15 204.1 287.2 204.5 287.75 204.75 287.85 204.2
L 287.95 201
Q 288 200.6 287.65 200.5 286.75 200.15 285.3 199.95 283.9 199.75 282.75 199.75 279 199.75 276.45 201.05 273.9 202.4 272.3 204.65 270.75 206.85 270.05 209.9 269.35 212.9 269.35 216.3 269.35 223.75 271.9 227.3 274.45 230.85 279.15 230.85 281.45 230.85 283.3 230.05 285.15 229.25 286.45 227.8 287.75 226.45 288.4 224.5 289.1 222.65 289.1 220.45 289.1 218.15 288.4 216.35 287.7 214.5 286.4 213.2 285.15 211.9 283.35 211.2 281.6 210.5 279.4 210.5 278.65 210.5 277.85 210.75 277.05 210.95 276.3 211.3 275.55 211.65 274.95 212.1 274.35 212.55 274 213.05 274.25 211.1 274.85 209.4 275.4 207.75 276.4 206.5 277.4 205.25 278.85 204.55 280.35 203.9 282.4 203.9 283.8 203.9 285 204
M 279.55 214.7
Q 282 214.7 283.35 216.3 284.7 217.85 284.7 220.65 284.7 223.5 283.2 225.2 281.65 226.85 279.25 226.85 278.15 226.85 277.15 226.35 276.2 225.85 275.5 224.95 274.8 224.05 274.4 222.8 274 221.65 274 220.25 274 217.8 275.5 216.25 276.95 214.7 279.55 214.7
M 312.45 206.85
Q 311.8 204.4 310.55 202.7 309.25 201 307.45 200.05 305.65 199.1 303.3 199.1 301 199.1 299.2 200.05 297.35 201 296.1 202.7 294.85 204.4 294.15 206.85 293.45 209.25 293.45 212.3 293.45 215.2 294.15 217.65 294.85 220.05 296.1 221.8 297.35 223.55 299.2 224.5 301 225.5 303.3 225.5 305.65 225.5 307.45 224.5 309.25 223.6 310.55 221.85 311.8 220.15 312.45 217.7 313.15 215.25 313.15 212.3 313.15 209.25 312.45 206.85
M 307.25 205.85
Q 307.9 207.1 308.25 208.8 308.6 210.45 308.6 212.3 308.6 214.05 308.25 215.75 307.9 217.4 307.25 218.65 306.55 219.9 305.55 220.65 304.55 221.4 303.3 221.4 302 221.4 301.05 220.65 300.05 219.9 299.4 218.65 298.7 217.4 298.35 215.75 297.95 214.05 297.95 212.3 297.95 210.45 298.35 208.8 298.7 207.1 299.4 205.85 300.05 204.65 301.05 203.9 302 203.2 303.3 203.2 304.55 203.2 305.55 203.9 306.55 204.65 307.25 205.85
M 319 196.7
Q 318.45 196.7 318.45 197.25
L 318.45 234.15
Q 318.45 234.7 319 234.7
L 322.55 234.7
Q 323.05 234.7 323.05 234.15
L 323.05 197.25
Q 323.05 196.7 322.55 196.7
L 319 196.7
M 529.25 202.65
Q 529.25 201.15 528.65 200.5 528.05 199.8 526.45 199.8
L 519.2 199.8
Q 518.65 199.8 518.65 200.25
L 518.65 202.75
Q 518.65 203.3 519.2 203.3
L 523.9 203.3
Q 524.6 203.3 524.8 203.55 524.9 203.85 524.9 204.65 524.9 206.2 524.35 208.15 523.85 210.15 522.85 212.25 521.9 214.35 520.6 216.4 519.25 218.4 517.6 219.95 517.4 220.15 517.35 220.5 517.3 220.85 517.55 221.1
L 519.3 222.65
Q 519.6 222.95 520 222.9 520.4 222.8 520.7 222.55 522.75 220.5 524.35 218.05 525.95 215.6 527.05 213 528.15 210.45 528.7 207.8 529.25 205.15 529.25 202.65
M 540.2 202.5
Q 540.2 201 539.55 200.4 538.95 199.8 537.4 199.8
L 530.9 199.8
Q 530.35 199.8 530.35 200.25
L 530.35 202.75
Q 530.35 203.3 530.9 203.3
L 534.7 203.3
Q 535.35 203.3 535.5 203.55 535.65 203.85 535.65 204.65 535.65 206.9 535 209.5 534.4 212.15 533.25 214.75 532.15 217.3 530.6 219.7 529.05 222.1 527.25 224.05 527.05 224.2 526.95 224.6 526.85 225 527.15 225.25
L 529.15 226.95
Q 529.45 227.2 529.8 227.1 530.2 227 530.4 226.85 532.8 224.4 534.6 221.45 536.5 218.45 537.7 215.3 538.95 212.1 539.55 208.85 540.2 205.6 540.2 202.5
M 593.15 226.85
Q 591.85 226.85 590.95 227.75 590.05 228.6 590.05 229.9 590.05 231.2 590.95 232.1 591.85 233 593.15 233 594.4 233 595.3 232.1 596.15 231.2 596.15 229.9 596.15 228.6 595.3 227.75 594.4 226.85 593.15 226.85
M 585.05 208.35
Q 584.65 206.65 583.95 205.1 583.25 203.55 582.1 202.35 581.05 201.2 579.45 200.5 577.9 199.85 575.85 199.85 572.65 199.85 570.7 201.3 568.75 202.8 567.65 205.05 566.55 207.35 566.15 210.05 565.8 212.8 565.8 215.25 565.8 222.6 568.25 226.65 570.7 230.7 575.85 230.7 578.4 230.7 580.25 229.7 582.1 228.6 583.35 226.65 584.6 224.7 585.2 221.8 585.8 218.9 585.8 215.25 585.8 213.6 585.6 211.85 585.45 210.05 585.05 208.35
M 578.1 204.8
Q 579.1 205.35 579.85 206.65 580.55 208 580.95 210.1 581.3 212.25 581.3 215.25 581.3 218.35 580.95 220.5 580.55 222.6 579.85 223.9 579.1 225.25 578.1 225.8 577.05 226.4 575.85 226.4 574.55 226.4 573.55 225.8 572.55 225.25 571.85 223.9 571.1 222.6 570.75 220.5 570.35 218.35 570.35 215.25 570.35 212.25 570.75 210.1 571.1 208 571.85 206.65 572.55 205.35 573.55 204.8 574.55 204.2 575.85 204.2 577.05 204.2 578.1 204.8
M 618.95 203.9
Q 619.2 203.6 619.2 203.25
L 619.2 200.85
Q 619.2 200.4 619.05 200.25 618.9 200.1 618.2 200.1
L 601.2 200.1
Q 600.5 200.1 600.5 200.75
L 600.5 203.55
Q 600.5 203.9 600.7 204.05 600.9 204.25 601.2 204.25
L 613.95 204.25 603.5 229.8
Q 603.35 230.25 603.5 230.35 603.65 230.5 604.25 230.5
L 607.5 230.5
Q 607.9 230.5 608.05 230.4 608.2 230.25 608.4 229.95
L 618.95 203.9
M 641.5 204.5
Q 642.05 204.75 642.15 204.2
L 642.25 201
Q 642.3 200.6 641.95 200.5 641.05 200.15 639.6 199.95 638.2 199.75 637.05 199.75 633.3 199.75 630.75 201.05 628.2 202.4 626.6 204.65 625.05 206.85 624.35 209.9 623.65 212.9 623.65 216.3 623.65 223.75 626.2 227.3 628.75 230.85 633.45 230.85 635.75 230.85 637.6 230.05 639.45 229.25 640.75 227.8 642.05 226.45 642.7 224.5 643.4 222.65 643.4 220.45 643.4 218.15 642.7 216.35 642 214.5 640.7 213.2 639.45 211.9 637.65 211.2 635.9 210.5 633.7 210.5 632.95 210.5 632.15 210.75 631.35 210.95 630.6 211.3 629.85 211.65 629.25 212.1 628.65 212.55 628.3 213.05 628.55 211.1 629.15 209.4 629.7 207.75 630.7 206.5 631.7 205.25 633.15 204.55 634.65 203.9 636.7 203.9 638.1 203.9 639.3 204 640.45 204.1 641.5 204.5
M 628.3 220.25
Q 628.3 217.8 629.8 216.25 631.25 214.7 633.85 214.7 636.3 214.7 637.65 216.3 639 217.85 639 220.65 639 223.5 637.5 225.2 635.95 226.85 633.55 226.85 632.45 226.85 631.45 226.35 630.5 225.85 629.8 224.95 629.1 224.05 628.7 222.8 628.3 221.65 628.3 220.25
M 358.4 207.25
Q 358.4 205.5 357.7 204.1 357 202.7 355.8 201.75 354.6 200.8 352.9 200.25 351.2 199.75 349.2 199.75 347.25 199.75 345.55 200.3 343.85 200.85 342.6 201.85 341.35 202.85 340.6 204.25 339.85 205.65 339.85 207.35 339.85 209.65 341.25 211.45 342.65 213.25 345.05 214.65 343.85 215.25 342.75 215.95 341.65 216.65 340.85 217.55 340.05 218.45 339.5 219.6 339.05 220.75 339.05 222.25 339.05 224.4 339.95 226 340.85 227.65 342.3 228.7 343.75 229.75 345.55 230.3 347.4 230.85 349.2 230.85 351.15 230.85 352.95 230.3 354.85 229.75 356.25 228.7 357.65 227.65 358.5 226 359.4 224.4 359.4 222.25 359.4 220.85 358.95 219.85 358.55 218.8 357.75 217.9 356.95 217 355.85 216.2 354.7 215.45 353.3 214.6 355.9 212.8 357.15 211.05 358.4 209.25 358.4 207.25
M 347.5 203.95
Q 348.35 203.65 349.2 203.65 350.15 203.65 351 204 351.85 204.25 352.5 204.8 353.15 205.35 353.5 206.05 353.9 206.75 353.9 207.55 353.9 208.25 353.4 209.05 352.9 209.85 352.15 210.6 351.4 211.3 350.6 211.85 349.85 212.4 349.2 212.65 348.7 212.45 347.9 211.95 347.1 211.5 346.3 210.8 345.55 210.1 345 209.3 344.4 208.5 344.4 207.65 344.4 206.7 344.85 205.95 345.3 205.25 346 204.75 346.65 204.25 347.5 203.95
M 345.55 218.55
Q 346.4 217.9 347.45 217.5 348.4 217.05 349.2 216.85 350.2 217.2 351.2 217.8 352.2 218.4 353.05 219.1 353.85 219.85 354.35 220.65 354.85 221.5 354.85 222.25 354.85 223.3 354.35 224.15 353.85 225 353.05 225.6 352.25 226.2 351.25 226.5 350.2 226.8 349.2 226.8 348.25 226.8 347.2 226.5 346.2 226.15 345.35 225.55 344.55 224.95 344.05 224.1 343.5 223.25 343.5 222.25 343.5 221 344.1 220.1 344.7 219.2 345.55 218.55
M 391.35 198.5
Q 391.2 198.35 391 198.35
L 387.45 198.35
Q 387.25 198.35 387.05 198.5 386.9 198.65 386.9 198.9
L 386.9 204.55 370.85 204.55 370.85 198.9
Q 370.85 198.7 370.65 198.55 370.45 198.45 370.25 198.45
L 366.75 198.45
Q 366.55 198.45 366.4 198.55 366.2 198.7 366.2 198.9
L 366.2 214.2
Q 366.2 215.85 366.85 216.45 367.5 217 369.25 217
L 376.6 217 376.6 224.35 361.5 224.35
Q 361.2 224.35 361.05 224.55 360.9 224.75 360.9 225
L 360.9 227.6
Q 360.9 227.8 361.05 228 361.2 228.2 361.5 228.2
L 396.3 228.2
Q 396.5 228.2 396.7 228 396.9 227.8 396.9 227.6
L 396.9 225
Q 396.9 224.8 396.7 224.55 396.5 224.35 396.3 224.35
L 381.2 224.35 381.2 217 388.5 217
Q 390.25 217 390.85 216.35 391.5 215.65 391.5 214.35
L 391.5 198.9
Q 391.5 198.65 391.35 198.5
M 386.9 212.6
Q 386.9 213.25 386.2 213.25
L 371.55 213.25
Q 370.85 213.25 370.85 212.6
L 370.85 208.25 386.9 208.25 386.9 212.6
M 417.35 203.55
Q 417.9 203.55 417.9 203.05
L 417.9 200.25
Q 417.9 199.7 417.35 199.7
L 402.8 199.7
Q 401.3 199.7 400.75 200.25 400.15 200.85 400.15 202.25
L 400.15 221.2
Q 400.15 222.65 400.85 223.2 401.55 223.8 403.05 223.9 404.7 224 407.1 223.9 409.5 223.85 412.05 223.6 414.6 223.4 416.95 223.05 419.35 222.65 420.95 222.2 421.15 222.1 421.35 221.95 421.5 221.85 421.45 221.4
L 421 219.05
Q 420.85 218.45 420.25 218.6 418.45 218.9 416.5 219.2 414.45 219.45 412.55 219.65 410.65 219.85 408.9 219.9 407.2 220 405.95 219.85 405.2 219.8 404.95 219.6 404.75 219.4 404.75 218.8
L 404.75 204.25
Q 404.75 203.55 405.45 203.55
L 417.35 203.55
M 474.25 199.7
Q 473.7 199.4 472.85 199.4
L 450.1 199.4
Q 449.9 199.4 449.75 199.6 449.6 199.8 449.6 200
L 449.6 202.65
Q 449.6 202.8 449.75 203 449.9 203.2 450.1 203.2
L 469.9 203.2
Q 470.55 203.2 470.7 203.5 470.85 203.8 470.85 204.4 470.85 205.65 470.85 207.25 470.8 208.8 470.7 210.55 468.8 210.65 466.4 210.75 464.05 210.8 461.35 210.8 458.7 210.85 455.9 210.85 453.1 210.85 450.45 210.85 449.9 210.85 449.9 211.45
L 449.9 214.05
Q 449.9 214.3 450.05 214.5 450.25 214.7 450.45 214.7 456.4 214.7 461.3 214.6 466.25 214.5 470.45 214.3 470.25 217.2 470 219.8 469.75 222.45 469.45 224.1
L 444.9 224.1
Q 444.6 224.1 444.45 224.3 444.3 224.45 444.3 224.7
L 444.3 227.35
Q 444.3 227.55 444.45 227.75 444.6 227.95 444.9 227.95
L 479.7 227.95
Q 479.9 227.95 480.1 227.75 480.3 227.55 480.3 227.35
L 480.3 224.7
Q 480.3 224.5 480.1 224.3 479.9 224.1 479.7 224.1
L 474 224.1
Q 474.9 217.6 475.3 212 475.75 206.5 475.65 202.7 475.6 202 475.5 201.4 475.4 200.75 475.1 200.3 474.8 199.9 474.25 199.7
M 484.6 199.2
Q 484.45 199.4 484.45 199.6
L 484.45 220.45
Q 484.45 221.8 485.1 222.6 485.8 223.4 487.35 223.45 489.55 223.6 491.95 223.55 494.4 223.45 496.75 223.3 499.1 223.1 501.3 222.8 503.5 222.45 505.25 222 505.6 221.9 505.8 221.65 506.05 221.45 505.95 221.15
L 505.45 218.95
Q 505.4 218.65 505.2 218.45 505.05 218.25 504.6 218.3 500.5 219.15 496.75 219.45 493 219.75 489.8 219.55 489.35 219.5 489.2 219.4 489.05 219.3 489.05 218.9
L 489.05 199.6
Q 489.05 199.4 488.85 199.2 488.65 199.05 488.45 199.05
L 485 199.05
Q 484.8 199.05 484.6 199.2
M 428.05 197.25
Q 428.05 196.7 427.5 196.7
L 423.95 196.7
Q 423.45 196.7 423.45 197.25
L 423.45 234.15
Q 423.45 234.7 423.95 234.7
L 427.5 234.7
Q 428.05 234.7 428.05 234.15
L 428.05 215.2 433.45 215.2
Q 433.65 215.2 433.85 215.05 434.05 214.85 434.05 214.65
L 434.05 211.85
Q 434.05 211.65 433.85 211.5 433.65 211.35 433.45 211.35
L 428.05 211.35 428.05 197.25
M 548.1 197.25
Q 548.1 196.7 547.55 196.7
L 544.15 196.7
Q 543.65 196.7 543.65 197.25
L 543.65 234.15
Q 543.65 234.7 544.15 234.7
L 547.55 234.7
Q 548.1 234.7 548.1 234.15
L 548.1 215.25 553.5 215.25
Q 553.7 215.25 553.9 215.1 554.05 214.95 554.05 214.75
L 554.05 211.9
Q 554.05 211.7 553.9 211.55 553.7 211.45 553.5 211.45
L 548.1 211.45 548.1 197.25
M 513.1 197.25
Q 513.1 196.7 512.6 196.7
L 509.05 196.7
Q 508.5 196.7 508.5 197.25
L 508.5 234.15
Q 508.5 234.7 509.05 234.7
L 512.6 234.7
Q 513.1 234.7 513.1 234.15
L 513.1 197.25
M 864.6 233.3
L 864.6 230.45
Q 864.6 230.25 864.4 230.1 864.2 229.95 864 229.95
L 843.9 229.95
Q 843.45 229.95 843.25 229.85 843.1 229.7 843.1 229.3
L 843.1 222.2
Q 843.1 222 842.95 221.8 842.75 221.65 842.5 221.65
L 839.1 221.65
Q 838.9 221.65 838.7 221.8 838.55 222 838.55 222.2
L 838.55 230.9
Q 838.55 232.45 839.15 233.15 839.75 233.8 841.55 233.8
L 864 233.8
Q 864.25 233.8 864.45 233.65 864.6 233.55 864.6 233.3
M 895.9 215.25
Q 895.35 215.25 895.35 215.8
L 895.35 224.35 880.35 224.35
Q 880.05 224.35 879.9 224.5 879.75 224.7 879.75 224.95
L 879.75 227.6
Q 879.75 227.8 879.9 228 880.05 228.2 880.35 228.2
L 915.15 228.2
Q 915.35 228.2 915.55 228 915.75 227.8 915.75 227.6
L 915.75 224.95
Q 915.75 224.75 915.55 224.55 915.35 224.35 915.15 224.35
L 900 224.35 900 215.8
Q 900 215.55 899.8 215.4 899.65 215.25 899.4 215.25
L 895.9 215.25
M 912.95 213.45
Q 913.1 213.25 913 213 912.95 212.75 912.65 212.65 910.4 212 908.3 210.9 906.15 209.8 904.45 208.35 902.65 206.85 901.5 205.1 900.3 203.35 899.8 201.45 900 200.5 900.05 199.45 900.05 198.6 899.4 198.6
L 895.9 198.45
Q 895.6 198.4 895.45 198.65 895.35 198.95 895.3 199.25 895 202.05 894.1 204.25 893.15 206.4 891.6 208.1 890.05 209.75 887.8 211.05 885.5 212.35 882.5 213.45 882.25 213.55 882.1 213.8 881.95 214.05 882.15 214.4
L 883.55 216.85
Q 883.75 217.2 884 217.25 884.25 217.3 884.45 217.25 888.9 215.75 892.35 213.25 895.8 210.8 897.8 207.3 898.8 208.95 900.25 210.4 901.7 211.85 903.4 213.05 905.1 214.25 907 215.1 908.85 216 910.7 216.5 911.3 216.65 911.65 216.05
L 912.95 213.45
M 952.35 220.1
L 952.35 217.5
Q 952.35 217.3 952.15 217.1 951.95 216.9 951.75 216.9
L 916.95 216.9
Q 916.65 216.9 916.5 217.1 916.35 217.3 916.35 217.5
L 916.35 220.1
Q 916.35 220.3 916.5 220.55 916.65 220.75 916.95 220.75
L 932 220.75 932 233.85
Q 932 234.4 932.55 234.4
L 936.05 234.4
Q 936.6 234.4 936.6 233.85
L 936.6 220.75 951.75 220.75
Q 951.95 220.75 952.15 220.55 952.35 220.3 952.35 220.1
M 666.75 206.85
Q 666.1 204.4 664.85 202.7 663.55 201 661.75 200.05 659.95 199.1 657.6 199.1 655.3 199.1 653.5 200.05 651.65 201 650.4 202.7 649.15 204.4 648.45 206.85 647.75 209.25 647.75 212.3 647.75 215.2 648.45 217.65 649.15 220.05 650.4 221.8 651.65 223.55 653.5 224.5 655.3 225.5 657.6 225.5 659.95 225.5 661.75 224.5 663.55 223.6 664.85 221.85 666.1 220.15 666.75 217.7 667.45 215.25 667.45 212.3 667.45 209.25 666.75 206.85
M 659.85 203.9
Q 660.85 204.65 661.55 205.85 662.2 207.1 662.55 208.8 662.9 210.45 662.9 212.3 662.9 214.05 662.55 215.75 662.2 217.4 661.55 218.65 660.85 219.9 659.85 220.65 658.85 221.4 657.6 221.4 656.3 221.4 655.35 220.65 654.35 219.9 653.7 218.65 653 217.4 652.65 215.75 652.25 214.05 652.25 212.3 652.25 210.45 652.65 208.8 653 207.1 653.7 205.85 654.35 204.65 655.35 203.9 656.3 203.2 657.6 203.2 658.85 203.2 659.85 203.9
M 718.6 232.1
Q 719.5 233 720.8 233 722.05 233 722.95 232.1 723.8 231.2 723.8 229.9 723.8 228.6 722.95 227.75 722.05 226.85 720.8 226.85 719.5 226.85 718.6 227.75 717.7 228.6 717.7 229.9 717.7 231.2 718.6 232.1
M 711.6 205.1
Q 710.9 203.55 709.75 202.35 708.7 201.2 707.1 200.5 705.55 199.85 703.5 199.85 700.3 199.85 698.35 201.3 696.4 202.8 695.3 205.05 694.2 207.35 693.8 210.05 693.45 212.8 693.45 215.25 693.45 222.6 695.9 226.65 698.35 230.7 703.5 230.7 706.05 230.7 707.9 229.7 709.75 228.6 711 226.65 712.25 224.7 712.85 221.8 713.45 218.9 713.45 215.25 713.45 213.6 713.25 211.85 713.1 210.05 712.7 208.35 712.3 206.65 711.6 205.1
M 705.75 204.8
Q 706.75 205.35 707.5 206.65 708.2 208 708.6 210.1 708.95 212.25 708.95 215.25 708.95 218.35 708.6 220.5 708.2 222.6 707.5 223.9 706.75 225.25 705.75 225.8 704.7 226.4 703.5 226.4 702.2 226.4 701.2 225.8 700.2 225.25 699.5 223.9 698.75 222.6 698.4 220.5 698 218.35 698 215.25 698 212.25 698.4 210.1 698.75 208 699.5 206.65 700.2 205.35 701.2 204.8 702.2 204.2 703.5 204.2 704.7 204.2 705.75 204.8
M 747.05 207.25
Q 747.05 205.5 746.35 204.1 745.65 202.7 744.45 201.75 743.25 200.8 741.55 200.25 739.85 199.75 737.85 199.75 735.9 199.75 734.2 200.3 732.5 200.85 731.25 201.85 730 202.85 729.25 204.25 728.5 205.65 728.5 207.35 728.5 209.65 729.9 211.45 731.3 213.25 733.7 214.65 732.5 215.25 731.4 215.95 730.3 216.65 729.5 217.55 728.7 218.45 728.15 219.6 727.7 220.75 727.7 222.25 727.7 224.4 728.6 226 729.5 227.65 730.95 228.7 732.4 229.75 734.2 230.3 736.05 230.85 737.85 230.85 739.8 230.85 741.6 230.3 743.5 229.75 744.9 228.7 746.3 227.65 747.15 226 748.05 224.4 748.05 222.25 748.05 220.85 747.6 219.85 747.2 218.8 746.4 217.9 745.6 217 744.5 216.2 743.35 215.45 741.95 214.6 744.55 212.8 745.8 211.05 747.05 209.25 747.05 207.25
M 739.65 204
Q 740.5 204.25 741.15 204.8 741.8 205.35 742.15 206.05 742.55 206.75 742.55 207.55 742.55 208.25 742.05 209.05 741.55 209.85 740.8 210.6 740.05 211.3 739.25 211.85 738.5 212.4 737.85 212.65 737.35 212.45 736.55 211.95 735.75 211.5 734.95 210.8 734.2 210.1 733.65 209.3 733.05 208.5 733.05 207.65 733.05 206.7 733.5 205.95 733.95 205.25 734.65 204.75 735.3 204.25 736.15 203.95 737 203.65 737.85 203.65 738.8 203.65 739.65 204
M 732.15 222.25
Q 732.15 221 732.75 220.1 733.35 219.2 734.2 218.55 735.05 217.9 736.1 217.5 737.05 217.05 737.85 216.85 738.85 217.2 739.85 217.8 740.85 218.4 741.7 219.1 742.5 219.85 743 220.65 743.5 221.5 743.5 222.25 743.5 223.3 743 224.15 742.5 225 741.7 225.6 740.9 226.2 739.9 226.5 738.85 226.8 737.85 226.8 736.9 226.8 735.85 226.5 734.85 226.15 734 225.55 733.2 224.95 732.7 224.1 732.15 223.25 732.15 222.25
M 780.15 198.9
Q 780.15 198.65 780 198.5 779.85 198.35 779.65 198.35
L 776.1 198.35
Q 775.9 198.35 775.7 198.5 775.55 198.65 775.55 198.9
L 775.55 204.55 759.5 204.55 759.5 198.9
Q 759.5 198.7 759.3 198.55 759.1 198.45 758.9 198.45
L 755.4 198.45
Q 755.2 198.45 755.05 198.55 754.85 198.7 754.85 198.9
L 754.85 214.2
Q 754.85 215.85 755.5 216.45 756.15 217 757.9 217
L 765.25 217 765.25 224.35 750.15 224.35
Q 749.85 224.35 749.7 224.55 749.55 224.75 749.55 225
L 749.55 227.6
Q 749.55 227.8 749.7 228 749.85 228.2 750.15 228.2
L 784.95 228.2
Q 785.15 228.2 785.35 228 785.55 227.8 785.55 227.6
L 785.55 225
Q 785.55 224.8 785.35 224.55 785.15 224.35 784.95 224.35
L 769.85 224.35 769.85 217 777.15 217
Q 778.9 217 779.5 216.35 780.15 215.65 780.15 214.35
L 780.15 198.9
M 775.55 212.6
Q 775.55 213.25 774.85 213.25
L 760.2 213.25
Q 759.5 213.25 759.5 212.6
L 759.5 208.25 775.55 208.25 775.55 212.6
M 806 203.55
Q 806.55 203.55 806.55 203.05
L 806.55 200.25
Q 806.55 199.7 806 199.7
L 791.45 199.7
Q 789.95 199.7 789.4 200.25 788.8 200.85 788.8 202.25
L 788.8 221.2
Q 788.8 222.65 789.5 223.2 790.2 223.8 791.7 223.9 793.35 224 795.75 223.9 798.15 223.85 800.7 223.6 803.25 223.4 805.6 223.05 808 222.65 809.6 222.2 809.8 222.1 810 221.95 810.15 221.85 810.1 221.4
L 809.65 219.05
Q 809.5 218.45 808.9 218.6 807.1 218.9 805.15 219.2 803.1 219.45 801.2 219.65 799.3 219.85 797.55 219.9 795.85 220 794.6 219.85 793.85 219.8 793.6 219.6 793.4 219.4 793.4 218.8
L 793.4 204.25
Q 793.4 203.55 794.1 203.55
L 806 203.55
M 677.35 197.25
Q 677.35 196.7 676.85 196.7
L 673.3 196.7
Q 672.75 196.7 672.75 197.25
L 672.75 234.15
Q 672.75 234.7 673.3 234.7
L 676.85 234.7
Q 677.35 234.7 677.35 234.15
L 677.35 197.25
M 936.85 197.35
Q 936.85 196.7 936.3 196.7
L 932.9 196.6
Q 932.6 196.6 932.4 196.8 932.25 197 932.2 197.3 931.95 199.8 931 201.75 930.05 203.65 928.4 205.15 926.75 206.65 924.5 207.75 922.25 208.85 919.4 209.65 919.1 209.7 918.95 209.95 918.85 210.25 918.95 210.5
L 920.35 213.1
Q 920.45 213.25 920.7 213.3 921 213.3 921.3 213.25 925.85 212.05 929.3 209.9 932.75 207.7 934.65 204.65 935.5 206.05 936.95 207.3 938.4 208.6 940.15 209.7 941.95 210.75 943.9 211.55 945.85 212.3 947.8 212.65 948.45 212.8 948.65 212.3
L 949.85 209.65
Q 949.95 209.35 949.8 209.15 949.65 208.95 949.35 208.9 947.2 208.35 945.15 207.45 943.1 206.55 941.4 205.3 939.7 204.1 938.4 202.65 937.15 201.2 936.6 199.55 936.75 198.55 936.85 197.35
M 816.7 197.25
Q 816.7 196.7 816.15 196.7
L 812.6 196.7
Q 812.1 196.7 812.1 197.25
L 812.1 234.15
Q 812.1 234.7 812.6 234.7
L 816.15 234.7
Q 816.7 234.7 816.7 234.15
L 816.7 215.2 822.1 215.2
Q 822.3 215.2 822.5 215.05 822.7 214.85 822.7 214.65
L 822.7 211.85
Q 822.7 211.65 822.5 211.5 822.3 211.35 822.1 211.35
L 816.7 211.35 816.7 197.25
M 839.2 197.65
Q 839 197.65 838.8 197.75 838.6 197.85 838.6 198.1
L 838.6 200.9
Q 838.6 201.1 838.8 201.25 839 201.4 839.2 201.4
L 858.4 201.4
Q 858.95 201.4 859.2 201.55 859.5 201.65 859.5 202.25 859.5 203.45 859.35 205.65 857.5 205.75 855.15 205.8 852.75 205.85 850.05 205.85 847.4 205.85 844.6 205.9 841.85 205.9 839.3 205.9 838.75 205.9 838.75 206.5
L 838.75 209.15
Q 838.75 209.4 838.9 209.55 839.1 209.75 839.3 209.75 841.7 209.75 844.35 209.75 846.95 209.7 849.45 209.7 852 209.65 854.45 209.55 856.95 209.5 859.1 209.4 858.95 210.9 858.8 212.3 858.7 213.7 858.5 214.55
L 833.55 214.55
Q 833.25 214.55 833.1 214.75 832.95 214.95 832.95 215.2
L 832.95 217.8
Q 832.95 218 833.1 218.2 833.25 218.4 833.55 218.4
L 868.35 218.4
Q 868.55 218.4 868.75 218.2 868.95 218 868.95 217.8
L 868.95 215.2
Q 868.95 215 868.75 214.8 868.55 214.55 868.35 214.55
L 862.75 214.55
Q 863.05 213.1 863.25 211.1 863.5 209.05 863.65 207 863.8 205 863.9 203.2 863.95 201.45 863.95 200.5 863.95 199 863.25 198.3 862.6 197.65 861.3 197.65
L 839.2 197.65
M 992.95 232.1
Q 993.85 233 995.15 233 996.4 233 997.3 232.1 998.15 231.2 998.15 229.9 998.15 228.6 997.3 227.75 996.4 226.85 995.15 226.85 993.85 226.85 992.95 227.75 992.05 228.6 992.05 229.9 992.05 231.2 992.95 232.1
M 973.85 217.6
Q 974.5 215.2 974.5 212.2 974.5 209.2 973.85 206.75 973.15 204.35 971.9 202.65 970.6 200.95 968.8 200.05 966.95 199.1 964.65 199.1 962.35 199.1 960.5 200.05 958.7 200.95 957.4 202.65 956.15 204.35 955.5 206.75 954.8 209.2 954.8 212.2 954.8 215.1 955.5 217.55 956.15 219.95 957.4 221.65 958.7 223.4 960.5 224.35 962.35 225.3 964.65 225.3 966.95 225.3 968.8 224.4 970.6 223.45 971.9 221.75 973.15 220.05 973.85 217.6
M 968.6 205.85
Q 969.3 207.05 969.65 208.7 970 210.35 970 212.2 970 214 969.65 215.65 969.3 217.3 968.6 218.5 967.9 219.75 966.95 220.5 965.9 221.2 964.65 221.2 963.4 221.2 962.4 220.5 961.45 219.75 960.75 218.5 960.05 217.3 959.7 215.65 959.35 214 959.35 212.2 959.35 210.35 959.7 208.7 960.05 207.05 960.75 205.85 961.45 204.65 962.4 203.9 963.4 203.2 964.65 203.2 965.9 203.2 966.95 203.9 967.9 204.65 968.6 205.85
M 983.55 197.25
Q 983.55 197 983.35 196.85 983.15 196.7 982.95 196.7
L 979.45 196.7
Q 978.9 196.7 978.9 197.25
L 978.9 234.15
Q 978.9 234.7 979.45 234.7
L 982.95 234.7
Q 983.15 234.7 983.35 234.5 983.55 234.4 983.55 234.15
L 983.55 221.2 988.9 221.2
Q 989.1 221.2 989.3 221.05 989.5 220.85 989.5 220.65
L 989.5 217.8
Q 989.5 217.65 989.3 217.5 989.1 217.35 988.9 217.35
L 983.55 217.35 983.55 210 988.9 210
Q 989.1 210 989.3 209.85 989.5 209.7 989.5 209.45
L 989.5 206.65
Q 989.5 206.45 989.3 206.3 989.1 206.15 988.9 206.15
L 983.55 206.15 983.55 197.25 Z"/>
</g>

<g id="Layer0_2_FILL">
<path fill="#E4E7D8" stroke="none" d="
M 809.25 215.45
Q 809.25 201.95 795.75 201.95
L 484.25 201.95
Q 470.75 201.95 470.75 215.45
L 470.75 317.6
Q 470.75 331.1 484.25 331.1
L 795.75 331.1
Q 809.25 331.1 809.25 317.6
L 809.25 215.45 Z"/>
</g>

<g id="Layer0_3_FILL">
<path fill="#1E1E1E" stroke="none" d="
M 986.75 53.95
Q 987.9 54.05 988.95 54.45 989.5 54.7 989.6 54.15
L 989.7 50.95
Q 989.75 50.55 989.4 50.45 988.5 50.1 987.05 49.9 985.65 49.7 984.5 49.7 980.75 49.7 978.2 51 975.65 52.35 974.05 54.6 972.5 56.8 971.8 59.85 971.1 62.85 971.1 66.25 971.1 73.7 973.65 77.25 976.2 80.8 980.9 80.8 983.2 80.8 985.05 80 986.9 79.2 988.2 77.75 989.5 76.4 990.15 74.45 990.85 72.6 990.85 70.4 990.85 68.1 990.15 66.3 989.45 64.45 988.15 63.15 986.9 61.85 985.1 61.15 983.35 60.45 981.15 60.45 980.4 60.45 979.6 60.7 978.8 60.9 978.05 61.25 977.3 61.6 976.7 62.05 976.1 62.5 975.75 63 976 61.05 976.6 59.35 977.15 57.7 978.15 56.45 979.15 55.2 980.6 54.5 982.1 53.85 984.15 53.85 985.55 53.85 986.75 53.95
M 976.15 72.75
Q 975.75 71.6 975.75 70.2 975.75 67.75 977.25 66.2 978.7 64.65 981.3 64.65 983.75 64.65 985.1 66.25 986.45 67.8 986.45 70.6 986.45 73.45 984.95 75.15 983.4 76.8 981 76.8 979.9 76.8 978.9 76.3 977.95 75.8 977.25 74.9 976.55 74 976.15 72.75
M 966.3 50.2
Q 966.15 50.05 965.45 50.05
L 948.45 50.05
Q 947.75 50.05 947.75 50.7
L 947.75 53.5
Q 947.75 53.85 947.95 54 948.15 54.2 948.45 54.2
L 961.2 54.2 950.75 79.75
Q 950.6 80.2 950.75 80.3 950.9 80.45 951.5 80.45
L 954.75 80.45
Q 955.15 80.45 955.3 80.35 955.45 80.2 955.65 79.9
L 966.2 53.85
Q 966.45 53.55 966.45 53.2
L 966.45 50.8
Q 966.45 50.35 966.3 50.2
M 940.2 82.95
Q 941.45 82.95 942.35 82.05 943.2 81.15 943.2 79.85 943.2 78.55 942.35 77.7 941.45 76.8 940.2 76.8 938.9 76.8 938 77.7 937.1 78.55 937.1 79.85 937.1 81.15 938 82.05 938.9 82.95 940.2 82.95
M 930.8 55.05
Q 930.1 53.5 928.95 52.3 927.9 51.15 926.3 50.45 924.75 49.8 922.7 49.8 919.5 49.8 917.55 51.25 915.6 52.75 914.5 55 913.4 57.3 913 60 912.65 62.75 912.65 65.2 912.65 72.55 915.1 76.6 917.55 80.65 922.7 80.65 925.25 80.65 927.1 79.65 928.95 78.55 930.2 76.6 931.45 74.65 932.05 71.75 932.65 68.85 932.65 65.2 932.65 63.55 932.45 61.8 932.3 60 931.9 58.3 931.5 56.6 930.8 55.05
M 922.7 54.15
Q 923.9 54.15 924.95 54.75 925.95 55.3 926.7 56.6 927.4 57.95 927.8 60.05 928.15 62.2 928.15 65.2 928.15 68.3 927.8 70.45 927.4 72.55 926.7 73.85 925.95 75.2 924.95 75.75 923.9 76.35 922.7 76.35 921.4 76.35 920.4 75.75 919.4 75.2 918.7 73.85 917.95 72.55 917.6 70.45 917.2 68.3 917.2 65.2 917.2 62.2 917.6 60.05 917.95 57.95 918.7 56.6 919.4 55.3 920.4 54.75 921.4 54.15 922.7 54.15
M 1163.6 54.05
Q 1162.9 52.65 1161.7 51.7 1160.5 50.75 1158.8 50.2 1157.1 49.7 1155.1 49.7 1153.15 49.7 1151.45 50.25 1149.75 50.8 1148.5 51.8 1147.25 52.8 1146.5 54.2 1145.75 55.6 1145.75 57.3 1145.75 59.6 1147.15 61.4 1148.55 63.2 1150.95 64.6 1149.75 65.2 1148.65 65.9 1147.55 66.6 1146.75 67.5 1145.95 68.4 1145.4 69.55 1144.95 70.7 1144.95 72.2 1144.95 74.35 1145.85 75.95 1146.75 77.6 1148.2 78.65 1149.65 79.7 1151.45 80.25 1153.3 80.8 1155.1 80.8 1157.05 80.8 1158.85 80.25 1160.75 79.7 1162.15 78.65 1163.55 77.6 1164.4 75.95 1165.3 74.35 1165.3 72.2 1165.3 70.8 1164.85 69.8 1164.45 68.75 1163.65 67.85 1162.85 66.95 1161.75 66.15 1160.6 65.4 1159.2 64.55 1161.8 62.75 1163.05 61 1164.3 59.2 1164.3 57.2 1164.3 55.45 1163.6 54.05
M 1156.9 53.95
Q 1157.75 54.2 1158.4 54.75 1159.05 55.3 1159.4 56 1159.8 56.7 1159.8 57.5 1159.8 58.2 1159.3 59 1158.8 59.8 1158.05 60.55 1157.3 61.25 1156.5 61.8 1155.75 62.35 1155.1 62.6 1154.6 62.4 1153.8 61.9 1153 61.45 1152.2 60.75 1151.45 60.05 1150.9 59.25 1150.3 58.45 1150.3 57.6 1150.3 56.65 1150.75 55.9 1151.2 55.2 1151.9 54.7 1152.55 54.2 1153.4 53.9 1154.25 53.6 1155.1 53.6 1156.05 53.6 1156.9 53.95
M 1155.1 66.8
Q 1156.1 67.15 1157.1 67.75 1158.1 68.35 1158.95 69.05 1159.75 69.8 1160.25 70.6 1160.75 71.45 1160.75 72.2 1160.75 73.25 1160.25 74.1 1159.75 74.95 1158.95 75.55 1158.15 76.15 1157.15 76.45 1156.1 76.75 1155.1 76.75 1154.15 76.75 1153.1 76.45 1152.1 76.1 1151.25 75.5 1150.45 74.9 1149.95 74.05 1149.4 73.2 1149.4 72.2 1149.4 70.95 1150 70.05 1150.6 69.15 1151.45 68.5 1152.3 67.85 1153.35 67.45 1154.3 67 1155.1 66.8
M 1137.85 82.95
Q 1139.1 82.95 1140 82.05 1140.85 81.15 1140.85 79.85 1140.85 78.55 1140 77.7 1139.1 76.8 1137.85 76.8 1136.55 76.8 1135.65 77.7 1134.75 78.55 1134.75 79.85 1134.75 81.15 1135.65 82.05 1136.55 82.95 1137.85 82.95
M 1128.45 55.05
Q 1127.75 53.5 1126.6 52.3 1125.55 51.15 1123.95 50.45 1122.4 49.8 1120.35 49.8 1117.15 49.8 1115.2 51.25 1113.25 52.75 1112.15 55 1111.05 57.3 1110.65 60 1110.3 62.75 1110.3 65.2 1110.3 72.55 1112.75 76.6 1115.2 80.65 1120.35 80.65 1122.9 80.65 1124.75 79.65 1126.6 78.55 1127.85 76.6 1129.1 74.65 1129.7 71.75 1130.3 68.85 1130.3 65.2 1130.3 63.55 1130.1 61.8 1129.95 60 1129.55 58.3 1129.15 56.6 1128.45 55.05
M 1124.35 56.6
Q 1125.05 57.95 1125.45 60.05 1125.8 62.2 1125.8 65.2 1125.8 68.3 1125.45 70.45 1125.05 72.55 1124.35 73.85 1123.6 75.2 1122.6 75.75 1121.55 76.35 1120.35 76.35 1119.05 76.35 1118.05 75.75 1117.05 75.2 1116.35 73.85 1115.6 72.55 1115.25 70.45 1114.85 68.3 1114.85 65.2 1114.85 62.2 1115.25 60.05 1115.6 57.95 1116.35 56.6 1117.05 55.3 1118.05 54.75 1119.05 54.15 1120.35 54.15 1121.55 54.15 1122.6 54.75 1123.6 55.3 1124.35 56.6 Z"/>

<path fill="#FFFFFF" stroke="none" d="
M 1073.05 41.5
Q 1072.3 40.75 1071.6 40.1
L 1028.6 40.1
Q 1027.85 40.75 1027.1 41.5 1017.55 51 1017.55 64.5 1017.55 68.45 1018.4 72.1
L 1081.75 72.1
Q 1082.55 68.5 1082.55 64.5 1082.55 51 1073.05 41.5 Z"/>
</g>

<g id="Layer0_3_MEMBER_0_FILL">
<path fill="#FFFFFF" stroke="none" d="
M 430.5 385.95
Q 438.6 385.95 444.3 380.25 450 374.55 450 366.45 450 358.35 444.3 352.65 438.6 346.95 430.5 346.95 422.4 346.95 416.7 352.65 411 358.35 411 366.45 411 374.55 416.7 380.25 422.4 385.95 430.5 385.95 Z"/>
</g>

<g id="db55535_0_Layer1_0_FILL">
<path fill="#CEE4FC" stroke="none" d="
M 37.25 -16.95
Q 31.05 -24 22.3 -24
L -22.3 -24
Q -31.1 -24 -37.3 -16.95 -43.5 -9.9 -43.5 0 -43.5 9.95 -37.3 17 -31.1 24 -22.3 24
L 22.3 24
Q 31.05 24 37.25 17 43.5 9.95 43.5 0 43.5 -9.9 37.25 -16.95 Z"/>
</g>

<g id="db55535_0_Layer0_0_FILL">
<path fill="#1E1E1E" stroke="none" d="
M -5.3 -13.05
Q -5.55 -12.9 -5.7 -12.65 -5.8 -12.4 -5.8 -12.05
L -5.8 11.2
Q -5.8 11.55 -5.7 11.75 -5.55 12.05 -5.3 12.15 -5.05 12.3 -4.8 12.35 -4.55 12.45 -4.25 12.45 -3.95 12.45 -3.65 12.35 -3.35 12.3 -3.1 12.15 -2.9 12.05 -2.8 11.75 -2.65 11.55 -2.65 11.2
L -2.65 -12.05
Q -2.65 -12.4 -2.8 -12.65 -2.9 -12.9 -3.1 -13.05 -3.35 -13.15 -3.65 -13.2 -3.95 -13.25 -4.25 -13.25 -4.55 -13.25 -4.8 -13.2 -5.05 -13.15 -5.3 -13.05
M -20.85 -10.85
Q -21.4 -10.6 -21.85 -10.15 -22.25 -9.75 -22.6 -9.2 -23 -8.65 -23.3 -7.95 -23.6 -7.3 -23.8 -6.55 -24.05 -5.75 -24.15 -4.8 -24.25 -3.95 -24.25 -2.95 -24.25 -1.95 -24.15 -1.05 -24.05 -0.15 -23.8 0.6 -23.6 1.4 -23.3 2.05 -23 2.7 -22.6 3.25 -22.25 3.8 -21.85 4.25 -21.4 4.65 -20.85 4.9 -20.35 5.2 -19.75 5.35 -19.15 5.5 -18.45 5.5 -17.8 5.5 -17.2 5.35 -16.6 5.2 -16.05 4.9 -15.5 4.65 -15.05 4.25 -14.55 3.8 -14.15 3.25 -13.95 2.95 -13.75 2.55 -13.55 2.2 -13.35 1.75
L -10.35 1.75 -10.35 10.4
Q -10.35 10.75 -10.25 11 -10.1 11.25 -9.85 11.4 -9.65 11.5 -9.35 11.6 -9.1 11.65 -8.8 11.7 -8.5 11.65 -8.2 11.6 -7.9 11.5 -7.65 11.4 -7.45 11.25 -7.35 11 -7.25 10.75 -7.2 10.4
L -7.2 -11.55
Q -7.25 -11.9 -7.35 -12.15 -7.45 -12.35 -7.65 -12.5 -7.9 -12.65 -8.2 -12.7 -8.5 -12.75 -8.8 -12.75 -9.1 -12.75 -9.35 -12.7 -9.65 -12.65 -9.85 -12.5 -10.1 -12.35 -10.25 -12.15 -10.35 -11.9 -10.35 -11.55
L -10.35 -7.95 -13.5 -7.95
Q -13.65 -8.25 -13.8 -8.6 -13.95 -8.9 -14.15 -9.2 -14.55 -9.75 -15.05 -10.15 -15.5 -10.6 -16.05 -10.85 -16.6 -11.15 -17.2 -11.3 -17.8 -11.45 -18.45 -11.45 -19.15 -11.45 -19.75 -11.3 -20.35 -11.15 -20.85 -10.85
M -20.95 -0.6
Q -21.1 -1.65 -21.1 -2.95 -21.1 -4.25 -20.95 -5.25 -20.75 -6.25 -20.4 -7.05 -20.05 -7.75 -19.6 -8.15 -19.05 -8.5 -18.45 -8.5 -17.8 -8.5 -17.3 -8.15 -16.8 -7.75 -16.4 -7.05 -16.05 -6.25 -15.85 -5.25 -15.65 -4.25 -15.65 -2.95 -15.65 -1.65 -15.85 -0.6 -16.05 0.4 -16.4 1.15 -16.8 1.9 -17.3 2.25 -17.8 2.65 -18.45 2.65 -19.05 2.65 -19.6 2.25 -20.05 1.9 -20.4 1.15 -20.75 0.4 -20.95 -0.6
M -12.75 -1.15
Q -12.7 -1.55 -12.7 -2 -12.65 -2.45 -12.65 -2.95 -12.65 -3.5 -12.7 -4 -12.75 -4.5 -12.75 -5
L -10.35 -5 -10.35 -1.15 -12.75 -1.15
M 23.2 -11.85
Q 23.2 -12.2 23.1 -12.45 23 -12.75 22.75 -12.9 22.5 -13.1 22.3 -13.2 22.05 -13.25 21.75 -13.25 21.4 -13.25 21.1 -13.2 20.85 -13.1 20.65 -12.9 20.45 -12.75 20.35 -12.45 20.25 -12.2 20.25 -11.85
L 20.25 11
Q 20.25 11.4 20.35 11.65 20.45 11.9 20.65 12.1 20.85 12.25 21.1 12.35 21.4 12.45 21.75 12.45 22.3 12.45 22.75 12.1 23 11.9 23.1 11.65 23.2 11.4 23.2 11
L 23.2 -11.85
M 5.1 5.05
L 5.1 5
Q 5.0751953125 5.03125 5.05 5.05
L 5.1 5.05
M 7.95 -8
L 7.95 -6.2
Q 7.95 -3.5 6.75 -1.4 6.2 -0.35 5.35 0.6 4.55 1.5 3.45 2.35
L 3.5 2.35
Q 3.3 2.5 3.15 2.6 3 2.75 2.9 2.85 2.75 3 2.65 3.1 2.6 3.25 2.6 3.4 2.6 3.55 2.65 3.7 2.7 3.85 2.8 3.95 2.95 4.3 3.2 4.55 3.3 4.7 3.45 4.8 3.55 4.9 3.75 5 3.9 5.1 4.1 5.15 4.3 5.2 4.45 5.2 4.6 5.2 4.75 5.15 4.95 5.1 5.1 5 5.871875 4.4296875 6.55 3.8 7.25 3.15 7.85 2.45 8.4 1.75 8.85 1 9.35 0.2 9.75 -0.65 10.15 0.15 10.6 0.9 11.1 1.65 11.65 2.4 12.25 3.15 12.95 3.75 13.65 4.35 14.45 4.8
L 14.5 4.8 14.55 4.85
Q 14.7 4.95 14.9 5.05 15.05 5.1 15.2 5.1 15.35 5.1 15.55 5.05 15.7 5 15.85 4.9 16 4.85 16.05 4.75 16.2 4.6 16.25 4.45 16.5 4.25 16.7 3.9 16.75 3.75 16.8 3.6 16.9 3.45 16.9 3.25 16.9 3.05 16.75 2.85 16.6 2.65 16.3 2.45 15.15 1.6 14.25 0.65 13.35 -0.35 12.7 -1.45 11.45 -3.6 11.45 -6.15
L 11.45 -8 14.95 -8
Q 15.3 -8 15.5 -8.1 15.75 -8.2 15.9 -8.45 16 -8.65 16.05 -8.95 16.15 -9.2 16.15 -9.5 16.15 -9.75 16.05 -10 16 -10.3 15.9 -10.5 15.75 -10.7 15.5 -10.85 15.3 -10.9 14.95 -10.9
L 4.45 -10.9
Q 4.05 -10.9 3.8 -10.85 3.6 -10.7 3.45 -10.5 3.35 -10.3 3.3 -10 3.25 -9.75 3.25 -9.5 3.25 -9.15 3.3 -8.9 3.35 -8.65 3.45 -8.45 3.6 -8.2 3.8 -8.1 4.05 -8 4.45 -8
L 7.95 -8 Z"/>
</g>

<g id="db55535_1_Layer1_0_FILL">
<path fill="#C4E9B2" stroke="none" d="
M 37.25 -16.95
Q 31.05 -24 22.3 -24
L -22.3 -24
Q -31.1 -24 -37.3 -16.95 -43.5 -9.9 -43.5 0 -43.5 9.95 -37.3 17 -31.1 24 -22.3 24
L 22.3 24
Q 31.05 24 37.25 17 43.5 9.95 43.5 0 43.5 -9.9 37.25 -16.95 Z"/>
</g>

<g id="db55535_1_Layer0_0_FILL">
<path fill="#1E1E1E" stroke="none" d="
M -3.5 -12.45
Q -3.6 -12.75 -3.85 -12.9 -4.1 -13.1 -4.3 -13.2 -4.55 -13.25 -4.85 -13.25 -5.2 -13.25 -5.5 -13.2 -5.75 -13.1 -5.95 -12.9 -6.15 -12.75 -6.25 -12.45 -6.35 -12.2 -6.35 -11.85
L -6.35 11
Q -6.35 11.4 -6.25 11.65 -6.15 11.9 -5.95 12.1 -5.75 12.25 -5.5 12.35 -5.2 12.45 -4.85 12.45 -4.3 12.45 -3.85 12.1 -3.6 11.9 -3.5 11.65 -3.4 11.4 -3.4 11
L -3.4 -11.85
Q -3.4 -12.2 -3.5 -12.45
M -21.5 5.05
L -21.5 5
Q -21.5248046875 5.03125 -21.55 5.05
L -21.5 5.05
M -22.15 -10.9
Q -22.55 -10.9 -22.8 -10.85 -23 -10.7 -23.15 -10.5 -23.25 -10.3 -23.3 -10 -23.35 -9.75 -23.35 -9.5 -23.35 -9.15 -23.3 -8.9 -23.25 -8.65 -23.15 -8.45 -23 -8.2 -22.8 -8.1 -22.55 -8 -22.15 -8
L -18.65 -8 -18.65 -6.2
Q -18.65 -3.5 -19.85 -1.4 -20.4 -0.35 -21.25 0.6 -22.05 1.5 -23.15 2.35
L -23.1 2.35
Q -23.3 2.5 -23.45 2.6 -23.6 2.75 -23.7 2.85 -23.85 3 -23.95 3.1 -24 3.25 -24 3.4 -24 3.55 -23.95 3.7 -23.9 3.85 -23.8 3.95 -23.65 4.3 -23.4 4.55 -23.3 4.7 -23.15 4.8 -23.05 4.9 -22.85 5 -22.7 5.1 -22.5 5.15 -22.3 5.2 -22.15 5.2 -22 5.2 -21.85 5.15 -21.65 5.1 -21.5 5 -20.728125 4.4296875 -20.05 3.8 -19.35 3.15 -18.75 2.45 -18.2 1.75 -17.75 1 -17.25 0.2 -16.85 -0.65 -16.45 0.15 -16 0.9 -15.5 1.65 -14.95 2.4 -14.35 3.15 -13.65 3.75 -12.95 4.35 -12.15 4.8
L -12.1 4.8 -12.05 4.85
Q -11.9 4.95 -11.7 5.05 -11.55 5.1 -11.4 5.1 -11.25 5.1 -11.05 5.05 -10.9 5 -10.75 4.9 -10.6 4.85 -10.55 4.75 -10.4 4.6 -10.35 4.45 -10.1 4.25 -9.9 3.9 -9.85 3.75 -9.8 3.6 -9.7 3.45 -9.7 3.25 -9.7 3.05 -9.85 2.85 -10 2.65 -10.3 2.45 -11.45 1.6 -12.35 0.65 -13.25 -0.35 -13.9 -1.45 -15.15 -3.6 -15.15 -6.15
L -15.15 -8 -11.65 -8
Q -11.3 -8 -11.1 -8.1 -10.85 -8.2 -10.7 -8.45 -10.6 -8.65 -10.55 -8.95 -10.45 -9.2 -10.45 -9.5 -10.45 -9.75 -10.55 -10 -10.6 -10.3 -10.7 -10.5 -10.85 -10.7 -11.1 -10.85 -11.3 -10.9 -11.65 -10.9
L -22.15 -10.9
M 25.3 4
Q 25.9 4 26.3 3.6 26.65 3.25 26.65 2.7 26.65 2.35 26.55 2.05 26.45 1.75 26.3 1.55 26.1 1.35 25.85 1.2 25.6 1.1 25.3 1.1
L 3.2 1.1
Q 2.8 1.1 2.55 1.2 2.3 1.35 2.15 1.55 1.8 2 1.8 2.55 1.8 2.85 1.9 3.15 1.95 3.4 2.15 3.6 2.3 3.8 2.55 3.95 2.8 4 3.2 4
L 12.45 4 12.45 11.9
Q 12.45 12.25 12.6 12.55 12.7 12.8 13 13 13.25 13.15 13.55 13.25 13.8 13.35 14.1 13.35 14.45 13.35 14.75 13.25 15.05 13.15 15.3 13 15.55 12.8 15.7 12.55 15.85 12.25 15.85 11.9
L 15.85 4 25.3 4
M 12.65 -12.8
Q 12.55 -12.65 12.5 -12.55 12.5 -12.45 12.5 -12.3
L 12.5 -11.15
Q 12.4 -10.5 12.15 -9.95 11.95 -9.4 11.65 -8.95 11.35 -8.5 10.95 -8.1 10.55 -7.7 10.1 -7.35 9.6 -7 9.05 -6.7 8.55 -6.4 7.95 -6.15 7.35 -5.9 6.75 -5.65 6.2 -5.4 5.65 -5.2 5.25 -5 5.1 -4.75 4.95 -4.5 4.95 -4.2 4.95 -3.85 5.05 -3.5 5.15 -3.2 5.4 -3 5.6 -2.7 5.85 -2.55 6.15 -2.45 6.55 -2.45 6.65 -2.45 6.75 -2.45 6.85 -2.5 6.95 -2.55 8.1 -2.95 9.15 -3.45 10.2 -3.95 11.15 -4.55 12.1 -5.1 12.85 -5.8 13.6 -6.45 14.15 -7.2 14.7 -6.35 15.4 -5.7 16.1 -5.05 17 -4.5 17.9 -3.9 18.9 -3.45 19.95 -2.95 21.15 -2.55
L 21.15 -2.6
Q 21.25 -2.55 21.4 -2.55 21.55 -2.5 21.7 -2.5 21.95 -2.5 22.2 -2.6 22.45 -2.75 22.65 -3 22.9 -3.25 23 -3.55 23.15 -3.85 23.15 -4.2 23.15 -4.35 23.1 -4.5 23.05 -4.65 23 -4.8 22.95 -4.9 22.8 -5.05 22.7 -5.1 22.55 -5.2 21.85 -5.45 21.25 -5.75 20.65 -6 20.15 -6.25 19.05 -6.7 18.2 -7.4 17.75 -7.75 17.35 -8.1 17 -8.5 16.7 -8.95 16.4 -9.4 16.25 -9.9 16.05 -10.45 16 -11.15
L 16 -12.3
Q 16 -12.55 15.8 -12.8 15.75 -12.9 15.6 -13 15.5 -13.1 15.3 -13.15 15.15 -13.25 15.05 -13.3 14.9 -13.35 14.8 -13.4 14.65 -13.4 14.5 -13.4 14.35 -13.45 14.15 -13.45 14.05 -13.45 13.9 -13.4 13.8 -13.4 13.65 -13.4 13.55 -13.35 13.4 -13.3 13.2 -13.25 13.05 -13.15 12.9 -13.1 12.8 -13 12.7 -12.9 12.65 -12.8 Z"/>
</g>

<path id="Layer0_0_1_STROKES" stroke="#BBDECB" stroke-width="5" stroke-linejoin="miter" stroke-linecap="butt" stroke-miterlimit="3" fill="none" d="
M 218.65 158.05
L 1084.85 158.05
Q 1098.9 158.5 1098.9 173.05
L 1098.9 256.1
Q 1098.9 270.65 1084.85 271.1
L 218.65 271.1
Q 203.65 271.1 203.65 256.1
L 203.65 173.05
Q 203.65 158.05 218.65 158.05 Z
M 218.65 326.05
L 1083.9 326.05
Q 1098.9 326.05 1098.9 341.05
L 1098.9 524.1
Q 1098.9 539.1 1083.9 539.1
L 218.65 539.1
Q 203.65 539.1 203.65 524.1
L 203.65 341.05
Q 203.65 326.05 218.65 326.05 Z"/>

<path id="Layer0_0_2_STROKES" stroke="#CCCCCC" stroke-width="3" stroke-linejoin="round" stroke-linecap="round" fill="none" d="
M 244.55 515.8
L 1057.95 515.8
M 244.55 455.8
L 1057.95 455.8"/>
</defs>

<g transform="matrix( 1, 0, 0, 1, 0,0) ">
<use xlink:href="#Layer0_0_FILL"/>

<use xlink:href="#Layer0_0_1_STROKES"/>

<use xlink:href="#Layer0_0_2_STROKES"/>
</g>

<g transform="matrix( 1, 0, 0, 1, -10.45,500.6) "/>

<g transform="matrix( 1, 0, 0, 1, -51.5,-201.95) ">
<use xlink:href="#Layer0_2_FILL"/>
</g>

<g transform="matrix( 1, 0, 0, 1, -449.8,0) ">
<use xlink:href="#Layer0_3_FILL"/>
</g>

<g transform="matrix( 1.6669921875, 0, 0, 1.66571044921875, -117.4,-545.85) ">
<use xlink:href="#Layer0_3_MEMBER_0_FILL"/>
</g>

<g transform="matrix( 1, 0, 0, 1, 123.35,274.55) ">
<g transform="matrix( 1, 0, 0, 1, 0,0) ">
<use xlink:href="#db55535_0_Layer1_0_FILL"/>
</g>

<g transform="matrix( 1, 0, 0, 1, 0,0) ">
<use xlink:href="#db55535_0_Layer0_0_FILL"/>
</g>
</g>

<g transform="matrix( 1, 0, 0, 1, 123.35,492.55) ">
<g transform="matrix( 1, 0, 0, 1, 0,0) ">
<use xlink:href="#db55535_1_Layer1_0_FILL"/>
</g>

<g transform="matrix( 1, 0, 0, 1, 0,0) ">
<use xlink:href="#db55535_1_Layer0_0_FILL"/>
</g>
</g>
</svg>
