<?xml version="1.0" encoding="utf-8"?>
<!-- Generator: Adobe Illustrator 23.0.0, SVG Export Plug-In . SVG Version: 6.00 Build 0)  -->
<svg version="1.1" id="Layer_1" xmlns="http://www.w3.org/2000/svg" xmlns:xlink="http://www.w3.org/1999/xlink" x="0px" y="0px"
	 width="869.3px" height="415.5px" viewBox="0 0 869.3 415.5" enable-background="new 0 0 869.3 415.5" xml:space="preserve">
<g>
	<path fill="#C8BCA3" d="M850.1,392c0,10.7-9.3,19.4-20.3,19.4H87c-11,0-19.9-8.7-19.9-19.4v-59.2c0-10.7,8.9-19.4,19.9-19.4h742.8
		c11,0,20.3,8.6,20.3,19.4V392z"/>
	<path fill="#FFFFFF" stroke="#C8BCA3" stroke-width="5" stroke-miterlimit="10" d="M841.6,389.9c0,8.3-6.7,15-15,15h-750
		c-8.3,0-15-6.7-15-15v-63c0-8.3,6.7-15,15-15h750c8.3,0,15,6.7,15,15V389.9z"/>
</g>
<g>
	<g>
		<path fill="#121312" d="M106.3,348.1c-0.3-0.3-0.5-0.8-0.5-1.4c0-0.3,0.1-0.5,0.2-0.8c0.1-0.3,0.2-0.5,0.4-0.7
			c0.6-0.5,1.1-0.8,1.8-0.9c0.6-0.1,1.3-0.1,2-0.2c0.6,0,1.1,0,1.6,0c0.5,0,1,0,1.6,0c0.9,0,1.8,0,2.9,0c1,0,2,0.1,3,0.1
			c0.4,0,0.8,0.1,1.1,0.2c0.4,0.1,0.7,0.2,1,0.4s0.5,0.4,0.7,0.7c0.2,0.3,0.3,0.7,0.3,1.1c0,0.5,0,1-0.2,1.4
			c-0.2,0.5-0.4,0.9-0.7,1.3c-0.3,0.4-0.6,0.8-0.9,1.2c-0.3,0.4-0.7,0.7-1,1c-0.6,0.6-1.2,1.2-1.9,1.9c-0.7,0.7-1.3,1.3-1.9,1.9
			c1,0.1,1.9,0.4,2.9,0.7c0.9,0.3,1.7,0.8,2.4,1.4c0.7,0.6,1.3,1.3,1.7,2.2c0.4,0.9,0.6,1.9,0.6,3.1s-0.2,2.3-0.7,3.4
			c-0.5,1-1.1,1.9-1.9,2.7s-1.8,1.4-3,1.8c-1.1,0.4-2.4,0.6-3.7,0.6c-0.6,0-1.2-0.1-1.9-0.2c-0.7-0.1-1.3-0.3-2-0.5
			c-0.7-0.2-1.3-0.5-1.9-0.8c-0.6-0.3-1.1-0.7-1.5-1.2c-0.3-0.3-0.6-0.7-0.8-1.1c-0.2-0.4-0.3-0.8-0.4-1.3c0-0.4,0-0.8,0.2-1.2
			c0.2-0.4,0.6-0.6,1.1-0.8c0.4-0.1,0.7-0.2,1.1-0.2c0.4,0,0.7,0.1,1,0.2c0.3,0.1,0.6,0.3,1,0.5c0.3,0.2,0.6,0.4,0.9,0.5
			c0.9,0.6,1.9,0.9,2.9,1c1,0.1,2-0.1,3-0.7c0.6-0.3,1-0.7,1.2-1.2c0.3-0.5,0.4-1,0.3-1.5s-0.2-1-0.5-1.4s-0.7-0.8-1.2-1.1
			c-0.5-0.3-1-0.5-1.6-0.6s-1.2-0.2-1.7-0.3c-0.6-0.1-1.1-0.2-1.7-0.4c-0.5-0.2-1-0.5-1.4-0.9c-0.4-0.5-0.6-1-0.4-1.6
			c0.2-0.6,0.4-1.1,0.9-1.6c0.4-0.5,0.9-1,1.4-1.5c0.5-0.5,0.9-0.9,1.2-1.2c0.2-0.2,0.4-0.4,0.6-0.6c0.2-0.3,0.5-0.5,0.7-0.8
			c0.2-0.3,0.4-0.5,0.6-0.7c0.2-0.2,0.3-0.5,0.3-0.7c0.1-0.2,0-0.3-0.1-0.4c-0.2-0.1-0.3-0.1-0.6-0.2c-0.2,0-0.5,0-0.7,0
			c-0.3,0-0.5,0-0.6,0h-2.5c-0.4,0-0.7,0-1.2,0s-0.9,0-1.3,0c-0.4,0-0.9-0.1-1.3-0.2C106.9,348.5,106.5,348.3,106.3,348.1z"/>
		<path fill="#121312" d="M139.8,371.2c-0.8,0-1.5,0-2.3-0.1c-0.8-0.1-1.6-0.2-2.3-0.5c-0.7-0.2-1.4-0.6-2.1-1
			c-0.6-0.4-1.2-1-1.6-1.7c-0.5-0.7-0.8-1.5-1-2.4c-0.2-0.8-0.3-1.7-0.2-2.6c0.1-1.4,0.6-2.5,1.4-3.5c0.8-1,1.8-1.7,3-2.2
			c-0.1,0-0.3-0.1-0.5-0.2c-0.2-0.1-0.4-0.3-0.7-0.5c-0.2-0.2-0.4-0.3-0.6-0.5c-0.2-0.2-0.3-0.3-0.4-0.3c-0.3-0.3-0.5-0.7-0.7-1.1
			c-0.2-0.4-0.3-0.9-0.5-1.3c-0.3-1.1-0.4-2.3-0.1-3.6s0.8-2.3,1.6-3.3c0.3-0.4,0.7-0.8,1.2-1.1s1-0.6,1.6-0.8
			c0.6-0.2,1.2-0.4,1.8-0.5c0.6-0.1,1.1-0.2,1.6-0.2c0.7,0,1.3,0,1.9,0c0.6,0,1.3,0,1.9,0.1c0.8,0.1,1.5,0.4,2.2,0.8
			c0.7,0.4,1.3,0.8,1.8,1.4c1,1.1,1.7,2.4,1.9,3.7c0.3,1.4,0.2,2.8-0.1,4.2c-0.1,0.4-0.3,0.8-0.6,1.1s-0.5,0.7-0.9,1
			c-0.1,0.1-0.2,0.1-0.4,0.3s-0.4,0.3-0.6,0.4s-0.4,0.3-0.6,0.3c-0.2,0.1-0.4,0.1-0.5,0.1c0.6,0.4,1.2,0.8,1.7,1.1
			c0.6,0.4,1,0.9,1.4,1.5c0.4,0.7,0.6,1.4,0.8,2.1c0.2,0.7,0.2,1.5,0.2,2.2c0,0.7-0.2,1.4-0.4,2.1c-0.3,0.7-0.6,1.3-1.1,1.9
			c-0.5,0.6-1,1-1.6,1.4c-0.6,0.4-1.3,0.7-1.9,0.9c-0.7,0.2-1.4,0.4-2.1,0.5C141.2,371.1,140.5,371.2,139.8,371.2z M139.9,360.1
			c-0.6,0-1.1,0.1-1.7,0.2c-0.6,0.1-1.1,0.3-1.6,0.6c-0.5,0.3-0.9,0.6-1.2,1.1c-0.3,0.4-0.5,1-0.6,1.6c-0.1,0.5,0,1,0.2,1.3
			c0.2,0.4,0.4,0.7,0.8,1c0.3,0.3,0.7,0.5,1.1,0.7s0.9,0.3,1.3,0.3c1,0.2,2,0.1,2.9,0c0.4-0.1,0.7-0.1,1-0.2
			c0.3-0.1,0.6-0.2,0.9-0.3c0.3-0.1,0.5-0.3,0.7-0.5c0.2-0.2,0.4-0.5,0.5-0.9c0.2-0.5,0.3-1.1,0.3-1.8c0-0.7-0.2-1.2-0.6-1.6
			c-0.6-0.7-1.2-1.1-1.8-1.3S140.7,360.1,139.9,360.1z M139.9,348.1c-0.6,0.1-1.1,0.1-1.7,0.3c-0.5,0.1-1,0.3-1.4,0.6
			c-0.4,0.3-0.7,0.6-0.9,1.1s-0.3,1-0.3,1.7c0,0.5,0.1,0.9,0.2,1.3c0.1,0.4,0.4,0.8,0.7,1.2c0.4,0.5,0.9,0.8,1.6,0.9
			c0.6,0.1,1.2,0.1,1.8,0.1c0.9,0,1.7-0.1,2.4-0.4c0.7-0.3,1.3-0.9,1.7-1.8c0.3-0.7,0.4-1.4,0.3-2s-0.4-1.2-0.9-1.6
			c-0.4-0.4-1-0.8-1.6-1C141.2,348.2,140.6,348.1,139.9,348.1z"/>
		<path fill="#45A0D9" d="M200.2,352.8c-0.4,0.6-0.8,0.9-1.3,1.1c-0.5,0.1-1,0.1-1.5-0.1c-0.5-0.2-0.9-0.5-1.2-1
			c-0.3-0.5-0.4-1-0.4-1.6c0-0.4,0.1-0.8,0.3-1.3s0.4-0.9,0.7-1.4s0.6-0.9,0.9-1.2c0.3-0.4,0.6-0.7,1-1c0.6-0.5,1.3-0.9,2.1-1.2
			c0.8-0.4,1.6-0.6,2.4-0.8c0.8-0.2,1.7-0.3,2.5-0.2c0.8,0,1.6,0.2,2.4,0.4c2,0.6,3.6,1.6,4.7,3c1.1,1.4,1.7,3.1,1.7,5.3
			c0,1-0.1,2-0.3,2.8c-0.2,0.8-0.5,1.6-1,2.4c-0.5,0.8-1.1,1.5-1.9,2.3c-0.8,0.8-1.7,1.6-2.9,2.6c-0.4,0.3-0.8,0.7-1.2,1
			c-0.4,0.3-0.8,0.7-1.2,1c-0.1,0.1-0.4,0.3-0.7,0.5c-0.4,0.2-0.7,0.4-0.9,0.6c-0.3,0.2-0.4,0.4-0.5,0.6c-0.1,0.2,0.2,0.3,0.6,0.3
			c0.6,0.1,1,0.1,1.3,0c0.3,0,0.8,0,1.3,0c0.7,0,1.3,0,1.9,0c0.6,0,1.3,0,1.9,0c0.3,0,0.5,0,0.8,0s0.6,0,0.9,0s0.6,0.1,0.9,0.1
			c0.3,0.1,0.5,0.2,0.7,0.4c0.2,0.2,0.4,0.4,0.5,0.7c0.1,0.3,0.2,0.6,0.2,1c0,0.3,0,0.7-0.1,1c-0.1,0.3-0.2,0.6-0.4,0.7
			c-0.3,0.4-0.7,0.6-1.2,0.5c-0.5,0-0.9,0-1.4,0h-13.6c-0.3,0-0.5,0-0.8,0c-0.3,0-0.5,0-0.8-0.1c-0.5-0.1-0.7-0.4-0.7-0.7
			c0-0.4,0-0.7,0-1.1c0-0.6,0.2-1.2,0.5-1.8s0.7-1,1.2-1.5c0.5-0.5,1-0.9,1.5-1.3c0.5-0.4,1-0.8,1.5-1.2c0.7-0.6,1.4-1.2,2.1-1.7
			c0.8-0.6,1.5-1.2,2.2-1.7c0.9-0.7,1.6-1.4,2.3-2s1.1-1.2,1.5-1.7c0.4-0.5,0.7-1.1,0.8-1.6c0.2-0.5,0.3-1.1,0.3-1.6
			c0-1.3-0.4-2.3-1.2-3c-0.8-0.7-1.8-1-3-1c-0.9,0-1.7,0.2-2.5,0.6c-0.8,0.4-1.4,0.9-1.9,1.7c-0.2,0.3-0.3,0.6-0.4,0.9
			S200.4,352.5,200.2,352.8z"/>
		<path fill="#BC3D69" d="M224,344.8c0.2-0.2,0.5-0.4,0.9-0.4c0.4-0.1,0.8-0.1,1.3-0.1h9.3c0.3,0,0.7,0,1.1,0c0.4,0,0.8,0,1.2,0.1
			c0.4,0.1,0.7,0.2,1,0.4c0.3,0.2,0.5,0.5,0.6,0.9c0.1,0.3,0.1,0.5,0.1,0.9c0,0.3-0.1,0.6-0.2,0.9c-0.1,0.3-0.3,0.5-0.5,0.8
			s-0.5,0.3-0.8,0.4c-0.7,0.1-1.3,0.2-2,0.1c-0.7-0.1-1.4-0.1-2-0.1c-0.7,0-1.4,0-1.9,0.1c-0.6,0.1-1.2,0.1-1.9,0.1
			c-0.3,0-0.6,0-1.1,0c-0.4,0-0.8,0-1,0.1c-0.2,0.1-0.4,0.2-0.5,0.3c-0.1,0.2-0.2,0.3-0.2,0.5c-0.1,0.2-0.1,0.4-0.1,0.6s0,0.4,0,0.5
			c0,0.4,0,0.9-0.1,1.3c0,0.4-0.1,0.9-0.1,1.3c-0.1,0.6,0,0.9,0.2,1c0.2,0.1,0.6,0,1.1-0.1c0.9-0.2,1.8-0.3,2.8-0.3
			c1.3,0,2.5,0.2,3.6,0.5c1.1,0.3,2.1,0.9,2.9,1.6c0.8,0.7,1.5,1.6,1.9,2.6c0.5,1,0.7,2.3,0.7,3.7c0,0.3,0,0.5,0,0.7
			c0,0.2,0,0.5-0.1,0.7c-0.2,1.6-0.8,3-1.8,4.2c-1,1.2-2.2,2.1-3.7,2.6c-1.8,0.7-3.6,1-5.6,0.9c-1.9-0.1-3.7-0.6-5.3-1.6
			c-0.5-0.3-0.9-0.6-1.2-1c-0.4-0.4-0.7-0.8-0.8-1.3c-0.2-0.5-0.3-1.1-0.2-1.6c0.1-0.6,0.4-1,1-1.3c0.4-0.2,0.8-0.3,1.2-0.2
			c0.4,0.1,0.7,0.2,1,0.4c0.3,0.2,0.6,0.4,1,0.7c0.3,0.3,0.6,0.5,1,0.7c0.6,0.3,1.2,0.5,1.8,0.7c0.6,0.2,1.3,0.3,2,0.3
			c1.6,0,2.8-0.4,3.8-1.2c0.9-0.8,1.4-2,1.4-3.4c0-1.4-0.5-2.4-1.5-3.2c-1-0.8-2.3-1.2-4-1.2c-0.4,0-0.9,0-1.3,0.1
			c-0.4,0.1-0.9,0.1-1.3,0.3c-0.4,0.1-0.8,0.2-1.2,0.3c-0.4,0.1-0.8,0.2-1.2,0.2c-0.4,0-0.8,0-1.1-0.1c-0.4-0.1-0.7-0.4-1-0.8
			c-0.3-0.4-0.5-0.8-0.5-1.3c0-0.5,0-1,0.1-1.4c0.1-0.7,0.1-1.5,0.1-2.2c0-0.7,0.1-1.5,0.1-2.2c0.1-0.7,0.1-1.5,0.1-2.2
			c0-0.7,0.1-1.4,0.1-2.2c0-0.4,0.1-0.8,0.2-1C223.7,345.2,223.9,344.9,224,344.8z"/>
	</g>
	<path fill="#121312" d="M176,358l7.1-7.1c1-1,1-2.6,0-3.5c-1-0.9-2.6-1-3.5,0l-7.1,7.1l-7.1-7.1c-1-1-2.6-1-3.5,0
		c-0.9,1-1,2.6,0,3.5l7.1,7.1l-7.1,7.1c-1,1-1,2.6,0,3.5c1,0.9,2.6,1,3.5,0l7.1-7.1l7.1,7.1c1,1,2.6,1,3.5,0c0.9-1,1-2.6,0-3.5
		L176,358z"/>
</g>
<path fill="#A1CCE6" d="M395.4,323.7H286.8c0,0-8.5,0-8.5,8.5V383c0,0,0,8.5,8.5,8.5h108.6c0,0,8.5,0,8.5-8.5v-50.8
	C403.9,332.2,403.9,323.7,395.4,323.7"/>
<path fill="#E0B1B8" d="M576.1,323.7H467.5c0,0-8.5,0-8.5,8.5V383c0,0,0,8.5,8.5,8.5h108.6c0,0,8.5,0,8.5-8.5v-50.8
	C584.5,332.2,584.5,323.7,576.1,323.7"/>
<g>
	<g>
		<g>
			<path fill="#121312" d="M265.4,354h-18.9c-1.4,0-2.5-1.1-2.5-2.5l0,0c0-1.4,1.1-2.5,2.5-2.5h18.9c1.4,0,2.5,1.1,2.5,2.5l0,0
				C267.9,352.9,266.8,354,265.4,354z"/>
		</g>
		<g>
			<path fill="#121312" d="M265.4,365.9h-18.9c-1.4,0-2.5-1.1-2.5-2.5l0,0c0-1.4,1.1-2.5,2.5-2.5h18.9c1.4,0,2.5,1.1,2.5,2.5l0,0
				C267.9,364.8,266.8,365.9,265.4,365.9z"/>
		</g>
	</g>
</g>
<g>
	<path fill="#121312" d="M432.9,355.5l0-10c0-1.4-1.1-2.5-2.5-2.5c-1.3,0.1-2.5,1.1-2.5,2.5l0,10l-10,0c-1.4,0-2.5,1.1-2.5,2.5
		c0.1,1.3,1.1,2.5,2.5,2.5l10,0l0,10c0,1.4,1.1,2.5,2.5,2.5c1.3-0.1,2.5-1.1,2.5-2.5l0-10l10,0c1.4,0,2.5-1.1,2.5-2.5
		c-0.1-1.3-1.1-2.5-2.5-2.5L432.9,355.5z"/>
</g>
<g>
	<g>
		<g>
			<path fill="#121312" d="M625.2,354h-18.9c-1.4,0-2.5-1.1-2.5-2.5l0,0c0-1.4,1.1-2.5,2.5-2.5h18.9c1.4,0,2.5,1.1,2.5,2.5l0,0
				C627.7,352.9,626.6,354,625.2,354z"/>
		</g>
		<g>
			<path fill="#121312" d="M625.2,365.9h-18.9c-1.4,0-2.5-1.1-2.5-2.5l0,0c0-1.4,1.1-2.5,2.5-2.5h18.9c1.4,0,2.5,1.1,2.5,2.5l0,0
				C627.7,364.8,626.6,365.9,625.2,365.9z"/>
		</g>
	</g>
</g>
<g>
	
		<polygon fill="#45A0D9" stroke="#45A0D9" stroke-width="3" stroke-linecap="round" stroke-linejoin="round" stroke-miterlimit="10" points="
		529.6,122.7 529.6,114.9 533.7,118.9 	"/>
	<path fill="#45A0D9" d="M529.1,118.9c0-0.8-0.7-1.5-1.5-1.5h-44.1c-0.8,0-1.5,0.7-1.5,1.5v0.1c0,0.8,0.7,1.5,1.5,1.5h44.1
		C528.5,120.4,529.1,119.8,529.1,118.9L529.1,118.9z"/>
</g>
<g>
	
		<polygon fill="#BC3D69" stroke="#BC3D69" stroke-width="3" stroke-linecap="round" stroke-linejoin="round" stroke-miterlimit="10" points="
		549.6,251.7 549.6,244 553.7,247.9 	"/>
	<path fill="#BC3D69" d="M551.1,247.9c0-0.8-0.7-1.5-1.5-1.5h-65.1c-0.8,0-1.5,0.7-1.5,1.5v0.1c0,0.8,0.7,1.5,1.5,1.5h65.1
		C550.5,249.4,551.1,248.8,551.1,247.9L551.1,247.9z"/>
</g>
<g>
	<g>
		<g>
			<path fill="#121312" d="M546.2,109.1c-0.3-0.3-0.5-0.8-0.5-1.4c0-0.3,0.1-0.5,0.2-0.8c0.1-0.3,0.2-0.5,0.4-0.7
				c0.6-0.5,1.1-0.8,1.8-0.9c0.6-0.1,1.3-0.1,2-0.2c0.6,0,1.1,0,1.6,0c0.5,0,1,0,1.6,0c0.9,0,1.8,0,2.9,0s2,0.1,3,0.1
				c0.4,0,0.8,0.1,1.1,0.2c0.4,0.1,0.7,0.2,1,0.4s0.5,0.4,0.7,0.7c0.2,0.3,0.3,0.7,0.3,1.1c0,0.5,0,1-0.2,1.4
				c-0.2,0.5-0.4,0.9-0.7,1.3c-0.3,0.4-0.6,0.8-0.9,1.2c-0.3,0.4-0.7,0.7-1,1c-0.6,0.6-1.2,1.2-1.9,1.9c-0.7,0.7-1.3,1.3-1.9,1.9
				c1,0.1,1.9,0.4,2.9,0.7c0.9,0.3,1.7,0.8,2.4,1.4c0.7,0.6,1.3,1.3,1.7,2.2c0.4,0.9,0.6,1.9,0.6,3.1s-0.2,2.3-0.7,3.4
				c-0.5,1-1.1,1.9-1.9,2.7c-0.8,0.8-1.8,1.4-3,1.8c-1.1,0.4-2.4,0.6-3.7,0.6c-0.6,0-1.2-0.1-1.9-0.2c-0.7-0.1-1.3-0.3-2-0.5
				c-0.7-0.2-1.3-0.5-1.9-0.8s-1.1-0.7-1.5-1.2c-0.3-0.3-0.6-0.7-0.8-1.1c-0.2-0.4-0.3-0.8-0.4-1.3s0-0.8,0.2-1.2
				c0.2-0.4,0.6-0.6,1.1-0.8c0.4-0.1,0.7-0.2,1.1-0.2c0.4,0,0.7,0.1,1,0.2s0.6,0.3,1,0.5c0.3,0.2,0.6,0.4,0.9,0.5
				c0.9,0.6,1.9,0.9,2.9,1c1,0.1,2-0.1,3-0.7c0.6-0.3,1-0.7,1.2-1.2c0.3-0.5,0.4-1,0.3-1.5c0-0.5-0.2-1-0.5-1.4
				c-0.3-0.5-0.7-0.8-1.2-1.1c-0.5-0.3-1-0.5-1.6-0.6s-1.2-0.2-1.7-0.3c-0.6-0.1-1.1-0.2-1.7-0.4c-0.5-0.2-1-0.5-1.4-0.9
				c-0.4-0.5-0.6-1-0.4-1.6c0.2-0.6,0.4-1.1,0.9-1.6c0.4-0.5,0.9-1,1.4-1.5c0.5-0.5,0.9-0.9,1.2-1.2c0.2-0.2,0.4-0.4,0.6-0.6
				c0.2-0.3,0.5-0.5,0.7-0.8c0.2-0.3,0.4-0.5,0.6-0.7c0.2-0.2,0.3-0.5,0.3-0.7c0.1-0.2,0-0.3-0.1-0.4c-0.2-0.1-0.3-0.1-0.6-0.2
				c-0.2,0-0.5,0-0.7,0c-0.3,0-0.5,0-0.6,0H551c-0.4,0-0.7,0-1.2,0c-0.4,0-0.9,0-1.3,0c-0.4,0-0.9-0.1-1.3-0.2
				C546.8,109.5,546.5,109.3,546.2,109.1z"/>
			<path fill="#121312" d="M579.7,132.1c-0.8,0-1.5,0-2.3-0.1c-0.8-0.1-1.6-0.2-2.3-0.5c-0.7-0.2-1.4-0.6-2.1-1
				c-0.6-0.4-1.2-1-1.6-1.7c-0.5-0.7-0.8-1.5-1-2.4c-0.2-0.8-0.3-1.7-0.2-2.6c0.1-1.4,0.6-2.5,1.4-3.5c0.8-1,1.8-1.7,3-2.2
				c-0.1,0-0.3-0.1-0.5-0.2c-0.2-0.1-0.4-0.3-0.7-0.5c-0.2-0.2-0.4-0.3-0.6-0.5c-0.2-0.2-0.3-0.3-0.4-0.3c-0.3-0.3-0.5-0.7-0.7-1.1
				c-0.2-0.4-0.3-0.9-0.5-1.3c-0.3-1.1-0.4-2.3-0.1-3.6c0.3-1.2,0.8-2.3,1.6-3.3c0.3-0.4,0.7-0.8,1.2-1.1c0.5-0.3,1-0.6,1.6-0.8
				c0.6-0.2,1.2-0.4,1.8-0.5s1.1-0.2,1.6-0.2c0.7,0,1.3,0,1.9,0c0.6,0,1.3,0,1.9,0.1c0.8,0.1,1.5,0.4,2.2,0.8
				c0.7,0.4,1.3,0.8,1.8,1.4c1,1.1,1.7,2.4,1.9,3.7c0.3,1.4,0.2,2.8-0.1,4.2c-0.1,0.4-0.3,0.8-0.6,1.1c-0.3,0.3-0.5,0.7-0.9,1
				c-0.1,0.1-0.2,0.1-0.4,0.3c-0.2,0.1-0.4,0.3-0.6,0.4c-0.2,0.1-0.4,0.3-0.6,0.3c-0.2,0.1-0.4,0.1-0.5,0.1c0.6,0.4,1.2,0.8,1.7,1.1
				c0.6,0.4,1,0.9,1.4,1.5c0.4,0.7,0.6,1.4,0.8,2.1c0.2,0.7,0.2,1.5,0.2,2.2c0,0.7-0.2,1.4-0.4,2.1s-0.6,1.3-1.1,1.9s-1,1-1.6,1.4
				c-0.6,0.4-1.3,0.7-1.9,0.9c-0.7,0.2-1.4,0.4-2.1,0.5C581.1,132.1,580.4,132.1,579.7,132.1z M579.8,121.1c-0.6,0-1.1,0.1-1.7,0.2
				s-1.1,0.3-1.6,0.6c-0.5,0.3-0.9,0.6-1.2,1.1s-0.5,1-0.6,1.6c-0.1,0.5,0,1,0.2,1.3c0.2,0.4,0.4,0.7,0.8,1c0.3,0.3,0.7,0.5,1.1,0.7
				c0.4,0.2,0.9,0.3,1.3,0.3c1,0.2,2,0.1,2.9,0c0.4-0.1,0.7-0.1,1-0.2c0.3-0.1,0.6-0.2,0.9-0.3c0.3-0.1,0.5-0.3,0.7-0.5
				c0.2-0.2,0.4-0.5,0.5-0.9c0.2-0.5,0.3-1.1,0.3-1.8c0-0.7-0.2-1.2-0.6-1.6c-0.6-0.7-1.2-1.1-1.8-1.3S580.6,121,579.8,121.1z
				 M579.8,109.1c-0.6,0.1-1.1,0.1-1.7,0.3c-0.5,0.1-1,0.3-1.4,0.6s-0.7,0.6-0.9,1.1c-0.2,0.5-0.3,1-0.3,1.7c0,0.5,0.1,0.9,0.2,1.3
				c0.1,0.4,0.4,0.8,0.7,1.2c0.4,0.5,0.9,0.8,1.6,0.9c0.6,0.1,1.2,0.1,1.8,0.1c0.9,0,1.7-0.1,2.4-0.4c0.7-0.3,1.3-0.9,1.7-1.8
				c0.3-0.7,0.4-1.4,0.3-2s-0.4-1.2-0.9-1.6c-0.4-0.4-1-0.8-1.6-1C581.1,109.1,580.5,109,579.8,109.1z"/>
			<path fill="#45A0D9" d="M640.1,113.7c-0.4,0.6-0.8,0.9-1.3,1.1s-1,0.1-1.5-0.1c-0.5-0.2-0.9-0.5-1.2-1c-0.3-0.5-0.4-1-0.4-1.6
				c0-0.4,0.1-0.8,0.3-1.3c0.2-0.5,0.4-0.9,0.7-1.4c0.3-0.4,0.6-0.9,0.9-1.2c0.3-0.4,0.6-0.7,1-1c0.6-0.5,1.3-0.9,2.1-1.2
				s1.6-0.6,2.4-0.8c0.8-0.2,1.7-0.3,2.5-0.2c0.8,0,1.6,0.2,2.4,0.4c2,0.6,3.6,1.6,4.7,3c1.1,1.4,1.7,3.1,1.7,5.3c0,1-0.1,2-0.3,2.8
				c-0.2,0.8-0.5,1.6-1,2.4s-1.1,1.5-1.9,2.3s-1.7,1.6-2.9,2.6c-0.4,0.3-0.8,0.7-1.2,1c-0.4,0.3-0.8,0.7-1.2,1
				c-0.1,0.1-0.4,0.3-0.7,0.5c-0.4,0.2-0.7,0.4-0.9,0.6c-0.3,0.2-0.4,0.4-0.5,0.6c-0.1,0.2,0.2,0.3,0.6,0.3c0.6,0.1,1,0.1,1.3,0
				c0.3,0,0.8,0,1.3,0c0.7,0,1.3,0,1.9,0s1.3,0,1.9,0c0.3,0,0.5,0,0.8,0s0.6,0,0.9,0c0.3,0,0.6,0.1,0.9,0.1c0.3,0.1,0.5,0.2,0.7,0.4
				c0.2,0.2,0.4,0.4,0.5,0.7c0.1,0.3,0.2,0.6,0.2,1s0,0.7-0.1,1c-0.1,0.3-0.2,0.6-0.4,0.7c-0.3,0.4-0.7,0.6-1.2,0.5s-0.9,0-1.4,0
				h-13.6c-0.3,0-0.5,0-0.8,0c-0.3,0-0.5,0-0.8-0.1c-0.5-0.1-0.7-0.4-0.7-0.7c0-0.4,0-0.7,0-1.1c0-0.6,0.2-1.2,0.5-1.8
				c0.3-0.5,0.7-1,1.2-1.5c0.5-0.5,1-0.9,1.5-1.3c0.5-0.4,1-0.8,1.5-1.2c0.7-0.6,1.4-1.2,2.1-1.7c0.8-0.6,1.5-1.2,2.2-1.7
				c0.9-0.7,1.6-1.4,2.3-2c0.6-0.6,1.1-1.2,1.5-1.7c0.4-0.5,0.7-1.1,0.8-1.6s0.3-1.1,0.3-1.6c0-1.3-0.4-2.3-1.2-3
				c-0.8-0.7-1.8-1-3-1c-0.9,0-1.7,0.2-2.5,0.6c-0.8,0.4-1.4,0.9-1.9,1.7c-0.2,0.3-0.3,0.6-0.4,0.9
				C640.5,113.2,640.3,113.5,640.1,113.7z"/>
			<path fill="#45A0D9" d="M671.7,132.1c-0.5,0-0.9,0-1.4-0.1c-0.5-0.1-0.9-0.2-1.4-0.4c-0.7-0.3-1.3-0.7-1.9-1.1s-1.2-1-1.7-1.6
				c-1.2-1.4-2.1-3-2.8-4.8c-0.6-1.9-0.9-3.7-0.9-5.7c0-2.6,0.5-5.2,1.5-7.6c0.2-0.4,0.4-0.9,0.7-1.4s0.6-0.9,1-1.4
				c0.4-0.4,0.7-0.8,1.1-1.2c0.4-0.4,0.8-0.6,1.2-0.8c0.6-0.3,1.2-0.5,1.8-0.8c0.8-0.3,1.7-0.4,2.7-0.3c1,0,1.9,0.1,2.8,0.3
				c1.2,0.3,2.2,0.8,3,1.5c0.8,0.7,1.5,1.6,2.1,2.6s1,2.1,1.4,3.3c0.3,1.2,0.6,2.4,0.7,3.6c0.1,0.8,0.1,1.6,0.1,2.4
				c0,0.8-0.1,1.6-0.2,2.4c-0.1,0.7-0.2,1.5-0.4,2.2c-0.1,0.7-0.3,1.4-0.5,2.1c-0.2,0.7-0.5,1.3-0.9,1.9c-0.4,0.6-0.8,1.2-1.3,1.7
				c-1,0.9-2,1.7-3.1,2.2C674.2,131.7,673,132,671.7,132.1z M671.7,110c-0.4,0-0.7,0-1,0.1c-0.3,0.1-0.7,0.2-1,0.4
				c-0.4,0.2-0.7,0.5-0.9,0.8c-0.3,0.3-0.5,0.7-0.7,1c-0.5,0.9-0.9,1.9-1.1,2.9s-0.3,2.1-0.3,3.1c0,1.1,0.1,2.2,0.4,3.4
				c0.2,1.2,0.7,2.2,1.3,3.2c0.3,0.5,0.7,0.9,1.1,1.2c0.4,0.3,0.9,0.6,1.5,0.7c0.5,0.1,1,0.2,1.5,0.1c0.5,0,1-0.2,1.5-0.5
				c0.7-0.5,1.3-1.1,1.7-1.8c0.4-0.8,0.8-1.6,1-2.5c0.2-0.9,0.3-1.8,0.4-2.7c0-0.9,0-1.8,0-2.5s-0.2-1.6-0.4-2.4
				c-0.2-0.8-0.5-1.6-0.9-2.3c-0.4-0.7-0.9-1.2-1.6-1.7S672.6,110,671.7,110z"/>
		</g>
		<path fill="#121312" d="M617.3,118.9l7.1-7.1c1-1,1-2.6,0-3.5c-1-0.9-2.6-1-3.5,0l-7.1,7.1l-7.1-7.1c-1-1-2.6-1-3.5,0
			c-0.9,1-1,2.6,0,3.5l7.1,7.1l-7.1,7.1c-1,1-1,2.6,0,3.5c1,0.9,2.6,1,3.5,0l7.1-7.1l7.1,7.1c1,1,2.6,1,3.5,0c0.9-1,1-2.6,0-3.5
			L617.3,118.9z"/>
	</g>
	<path fill="#A1CCE6" d="M831.4,84.7H732c0,0-8.5,0-8.5,8.5v50.8c0,0,0,8.5,8.5,8.5h99.4c0,0,8.5,0,8.5-8.5V93.1
		C839.9,93.1,839.9,84.7,831.4,84.7"/>
	<path fill="#E0B1B8" d="M831.4,213.7H732c0,0-8.5,0-8.5,8.5v50.8c0,0,0,8.5,8.5,8.5h99.4c0,0,8.5,0,8.5-8.5v-50.8
		C839.9,222.1,839.9,213.7,831.4,213.7"/>
	<g>
		<g>
			<g>
				<path fill="#121312" d="M707.5,114.9h-18.9c-1.4,0-2.5-1.1-2.5-2.5l0,0c0-1.4,1.1-2.5,2.5-2.5h18.9c1.4,0,2.5,1.1,2.5,2.5l0,0
					C710,113.8,708.9,114.9,707.5,114.9z"/>
			</g>
			<g>
				<path fill="#121312" d="M707.5,126.9h-18.9c-1.4,0-2.5-1.1-2.5-2.5l0,0c0-1.4,1.1-2.5,2.5-2.5h18.9c1.4,0,2.5,1.1,2.5,2.5l0,0
					C710,125.8,708.9,126.9,707.5,126.9z"/>
			</g>
		</g>
	</g>
</g>
<g>
	<g>
		<g>
			<path fill="#121312" d="M566.4,237.6c-0.3-0.3-0.5-0.8-0.5-1.4c0-0.3,0.1-0.5,0.2-0.8c0.1-0.3,0.2-0.5,0.4-0.7
				c0.6-0.5,1.1-0.8,1.8-0.9c0.6-0.1,1.3-0.1,2-0.2c0.6,0,1.1,0,1.6,0c0.5,0,1,0,1.6,0c0.9,0,1.8,0,2.9,0c1,0,2,0.1,3,0.1
				c0.4,0,0.8,0.1,1.1,0.2c0.4,0.1,0.7,0.2,1,0.4s0.5,0.4,0.7,0.7c0.2,0.3,0.3,0.7,0.3,1.1c0,0.5,0,1-0.2,1.4
				c-0.2,0.5-0.4,0.9-0.7,1.3c-0.3,0.4-0.6,0.8-0.9,1.2c-0.3,0.4-0.7,0.7-1,1c-0.6,0.6-1.2,1.2-1.9,1.9c-0.7,0.7-1.3,1.3-1.9,1.9
				c1,0.1,1.9,0.4,2.9,0.7c0.9,0.3,1.7,0.8,2.4,1.4c0.7,0.6,1.3,1.3,1.7,2.2c0.4,0.9,0.6,1.9,0.6,3.1s-0.2,2.3-0.7,3.4
				c-0.5,1-1.1,1.9-1.9,2.7c-0.8,0.8-1.8,1.4-3,1.8c-1.1,0.4-2.4,0.6-3.7,0.6c-0.6,0-1.2-0.1-1.9-0.2c-0.7-0.1-1.3-0.3-2-0.5
				c-0.7-0.2-1.3-0.5-1.9-0.8s-1.1-0.7-1.5-1.2c-0.3-0.3-0.6-0.7-0.8-1.1c-0.2-0.4-0.3-0.8-0.4-1.3c0-0.4,0-0.8,0.2-1.2
				c0.2-0.4,0.6-0.6,1.1-0.8c0.4-0.1,0.7-0.2,1.1-0.2c0.4,0,0.7,0.1,1,0.2c0.3,0.1,0.6,0.3,1,0.5c0.3,0.2,0.6,0.4,0.9,0.5
				c0.9,0.6,1.9,0.9,2.9,1c1,0.1,2-0.1,3-0.7c0.6-0.3,1-0.7,1.2-1.2c0.3-0.5,0.4-1,0.3-1.5s-0.2-1-0.5-1.4s-0.7-0.8-1.2-1.1
				c-0.5-0.3-1-0.5-1.6-0.6c-0.6-0.1-1.2-0.2-1.7-0.3c-0.6-0.1-1.1-0.2-1.7-0.4c-0.5-0.2-1-0.5-1.4-0.9c-0.4-0.5-0.6-1-0.4-1.6
				c0.2-0.6,0.4-1.1,0.9-1.6c0.4-0.5,0.9-1,1.4-1.5c0.5-0.5,0.9-0.9,1.2-1.2c0.2-0.2,0.4-0.4,0.6-0.6c0.2-0.3,0.5-0.5,0.7-0.8
				c0.2-0.3,0.4-0.5,0.6-0.7c0.2-0.2,0.3-0.5,0.3-0.7c0.1-0.2,0-0.3-0.1-0.4c-0.2-0.1-0.3-0.1-0.6-0.2c-0.2,0-0.5,0-0.7,0
				c-0.3,0-0.5,0-0.6,0h-2.5c-0.4,0-0.7,0-1.2,0s-0.9,0-1.3,0c-0.4,0-0.9-0.1-1.3-0.2C567,238,566.7,237.9,566.4,237.6z"/>
			<path fill="#121312" d="M600,260.7c-0.8,0-1.5,0-2.3-0.1c-0.8-0.1-1.6-0.2-2.3-0.5c-0.7-0.2-1.4-0.6-2.1-1
				c-0.6-0.4-1.2-1-1.6-1.7c-0.5-0.7-0.8-1.5-1-2.4c-0.2-0.8-0.3-1.7-0.2-2.6c0.1-1.4,0.6-2.5,1.4-3.5c0.8-1,1.8-1.7,3-2.2
				c-0.1,0-0.3-0.1-0.5-0.2c-0.2-0.1-0.4-0.3-0.7-0.5s-0.4-0.3-0.6-0.5c-0.2-0.2-0.3-0.3-0.4-0.3c-0.3-0.3-0.5-0.7-0.7-1.1
				c-0.2-0.4-0.3-0.9-0.5-1.3c-0.3-1.1-0.4-2.3-0.1-3.6s0.8-2.3,1.6-3.3c0.3-0.4,0.7-0.8,1.2-1.1s1-0.6,1.6-0.8
				c0.6-0.2,1.2-0.4,1.8-0.5s1.1-0.2,1.6-0.2c0.7,0,1.3,0,1.9,0c0.6,0,1.3,0,1.9,0.1c0.8,0.1,1.5,0.4,2.2,0.8
				c0.7,0.4,1.3,0.8,1.8,1.4c1,1.1,1.7,2.4,1.9,3.7c0.3,1.4,0.2,2.8-0.1,4.2c-0.1,0.4-0.3,0.8-0.6,1.1s-0.5,0.7-0.9,1
				c-0.1,0.1-0.2,0.1-0.4,0.3s-0.4,0.3-0.6,0.4c-0.2,0.1-0.4,0.3-0.6,0.3c-0.2,0.1-0.4,0.1-0.5,0.1c0.6,0.4,1.2,0.8,1.7,1.1
				c0.6,0.4,1,0.9,1.4,1.5c0.4,0.7,0.6,1.4,0.8,2.1c0.2,0.7,0.2,1.5,0.2,2.2c0,0.7-0.2,1.4-0.4,2.1c-0.3,0.7-0.6,1.3-1.1,1.9
				c-0.5,0.6-1,1-1.6,1.4c-0.6,0.4-1.3,0.7-1.9,0.9c-0.7,0.2-1.4,0.4-2.1,0.5S600.6,260.7,600,260.7z M600,249.7
				c-0.6,0-1.1,0.1-1.7,0.2c-0.6,0.1-1.1,0.3-1.6,0.6c-0.5,0.3-0.9,0.6-1.2,1.1c-0.3,0.4-0.5,1-0.6,1.6c-0.1,0.5,0,1,0.2,1.3
				c0.2,0.4,0.4,0.7,0.8,1c0.3,0.3,0.7,0.5,1.1,0.7s0.9,0.3,1.3,0.3c1,0.2,2,0.1,2.9,0c0.4-0.1,0.7-0.1,1-0.2
				c0.3-0.1,0.6-0.2,0.9-0.3c0.3-0.1,0.5-0.3,0.7-0.5c0.2-0.2,0.4-0.5,0.5-0.9c0.2-0.5,0.3-1.1,0.3-1.8c0-0.7-0.2-1.2-0.6-1.6
				c-0.6-0.7-1.2-1.1-1.8-1.3C601.6,249.7,600.8,249.6,600,249.7z M600.1,237.7c-0.6,0.1-1.1,0.1-1.7,0.3c-0.5,0.1-1,0.3-1.4,0.6
				c-0.4,0.3-0.7,0.6-0.9,1.1s-0.3,1-0.3,1.7c0,0.5,0.1,0.9,0.2,1.3c0.1,0.4,0.4,0.8,0.7,1.2c0.4,0.5,0.9,0.8,1.6,0.9
				c0.6,0.1,1.2,0.1,1.8,0.1c0.9,0,1.7-0.1,2.4-0.4c0.7-0.3,1.3-0.9,1.7-1.8c0.3-0.7,0.4-1.4,0.3-2s-0.4-1.2-0.9-1.6
				c-0.4-0.4-1-0.8-1.6-1C601.4,237.7,600.7,237.6,600.1,237.7z"/>
			<path fill="#BC3D69" d="M658.3,234.3c0.2-0.2,0.5-0.4,0.9-0.4c0.4-0.1,0.8-0.1,1.3-0.1h9.3c0.3,0,0.7,0,1.1,0
				c0.4,0,0.8,0,1.2,0.1c0.4,0.1,0.7,0.2,1,0.4s0.5,0.5,0.6,0.9c0.1,0.3,0.1,0.5,0.1,0.9c0,0.3-0.1,0.6-0.2,0.9s-0.3,0.5-0.5,0.8
				c-0.2,0.2-0.5,0.3-0.8,0.4c-0.7,0.1-1.3,0.2-2,0.1c-0.7-0.1-1.4-0.1-2-0.1c-0.7,0-1.4,0-1.9,0.1c-0.6,0.1-1.2,0.1-1.9,0.1
				c-0.3,0-0.6,0-1.1,0c-0.4,0-0.8,0-1,0.1c-0.2,0.1-0.4,0.2-0.5,0.3c-0.1,0.2-0.2,0.3-0.2,0.5s-0.1,0.4-0.1,0.6s0,0.4,0,0.5
				c0,0.4,0,0.9-0.1,1.3c0,0.4-0.1,0.9-0.1,1.3c-0.1,0.6,0,0.9,0.2,1c0.2,0.1,0.6,0,1.1-0.1c0.9-0.2,1.8-0.3,2.8-0.3
				c1.3,0,2.5,0.2,3.6,0.5c1.1,0.3,2.1,0.9,2.9,1.6s1.5,1.6,1.9,2.6c0.5,1,0.7,2.3,0.7,3.7c0,0.3,0,0.5,0,0.7c0,0.2,0,0.5-0.1,0.7
				c-0.2,1.6-0.8,3-1.8,4.2c-1,1.2-2.2,2.1-3.7,2.6c-1.8,0.7-3.6,1-5.6,0.9c-1.9-0.1-3.7-0.6-5.3-1.6c-0.5-0.3-0.9-0.6-1.2-1
				c-0.4-0.4-0.7-0.8-0.8-1.3c-0.2-0.5-0.3-1.1-0.2-1.6c0.1-0.6,0.4-1,1-1.3c0.4-0.2,0.8-0.3,1.2-0.2c0.4,0.1,0.7,0.2,1,0.4
				c0.3,0.2,0.6,0.4,1,0.7c0.3,0.3,0.6,0.5,1,0.7c0.6,0.3,1.2,0.5,1.8,0.7c0.6,0.2,1.3,0.3,2,0.3c1.6,0,2.8-0.4,3.8-1.2
				c0.9-0.8,1.4-2,1.4-3.4c0-1.4-0.5-2.4-1.5-3.2c-1-0.8-2.3-1.2-4-1.2c-0.4,0-0.9,0-1.3,0.1c-0.4,0.1-0.9,0.1-1.3,0.3
				c-0.4,0.1-0.8,0.2-1.2,0.3c-0.4,0.1-0.8,0.2-1.2,0.2c-0.4,0-0.8,0-1.1-0.1c-0.4-0.1-0.7-0.4-1-0.8c-0.3-0.4-0.5-0.8-0.5-1.3
				c0-0.5,0-1,0.1-1.4c0.1-0.7,0.1-1.5,0.1-2.2c0-0.7,0.1-1.5,0.1-2.2c0-0.7,0.1-1.5,0.1-2.2c0-0.7,0.1-1.4,0.1-2.2
				c0-0.4,0.1-0.8,0.2-1C658,234.7,658.1,234.5,658.3,234.3z"/>
		</g>
		<path fill="#121312" d="M636.2,247.5l7.1-7.1c1-1,1-2.6,0-3.5c-1-0.9-2.6-1-3.5,0l-7.1,7.1l-7.1-7.1c-1-1-2.6-1-3.5,0
			c-0.9,1-1,2.6,0,3.5l7.1,7.1l-7.1,7.1c-1,1-1,2.6,0,3.5c1,0.9,2.6,1,3.5,0l7.1-7.1l7.1,7.1c1,1,2.6,1,3.5,0c0.9-1,1-2.6,0-3.5
			L636.2,247.5z"/>
	</g>
	<g>
		<g>
			<g>
				<path fill="#121312" d="M706.5,243.5h-18.9c-1.4,0-2.5-1.1-2.5-2.5l0,0c0-1.4,1.1-2.5,2.5-2.5h18.9c1.4,0,2.5,1.1,2.5,2.5l0,0
					C709,242.4,707.9,243.5,706.5,243.5z"/>
			</g>
			<g>
				<path fill="#121312" d="M706.5,255.4h-18.9c-1.4,0-2.5-1.1-2.5-2.5l0,0c0-1.4,1.1-2.5,2.5-2.5h18.9c1.4,0,2.5,1.1,2.5,2.5l0,0
					C709,254.4,707.9,255.4,706.5,255.4z"/>
			</g>
		</g>
	</g>
</g>
<g>
	<rect x="69.1" y="239.4" fill="#ECBEC6" width="107" height="44"/>
	<g>
		<rect x="68.1" y="50.4" fill="#C0E7F8" width="107" height="94"/>
		<line fill="none" stroke="#53BADD" stroke-miterlimit="10" stroke-dasharray="2,2" x1="77.6" y1="52.4" x2="77.6" y2="144.4"/>
		<line fill="none" stroke="#53BADD" stroke-miterlimit="10" stroke-dasharray="2,2" x1="89.6" y1="52.4" x2="89.6" y2="144.4"/>
		<line fill="none" stroke="#53BADD" stroke-miterlimit="10" stroke-dasharray="2,2" x1="100.6" y1="52.4" x2="100.6" y2="144.4"/>
		<line fill="none" stroke="#53BADD" stroke-miterlimit="10" stroke-dasharray="2,2" x1="111.6" y1="52.4" x2="111.6" y2="144.4"/>
		<line fill="none" stroke="#53BADD" stroke-miterlimit="10" stroke-dasharray="2,2" x1="122.6" y1="52.4" x2="122.6" y2="144.4"/>
		<line fill="none" stroke="#53BADD" stroke-miterlimit="10" stroke-dasharray="2,2" x1="134.6" y1="52.4" x2="134.6" y2="144.4"/>
		<line fill="none" stroke="#53BADD" stroke-miterlimit="10" stroke-dasharray="2,2" x1="146.6" y1="52.4" x2="146.6" y2="144.4"/>
		<line fill="none" stroke="#53BADD" stroke-miterlimit="10" stroke-dasharray="2,2" x1="155.6" y1="52.4" x2="155.6" y2="144.4"/>
		<line fill="none" stroke="#53BADD" stroke-miterlimit="10" stroke-dasharray="2,2" x1="165.6" y1="52.4" x2="165.6" y2="144.4"/>
		<line fill="none" stroke="#53BADD" stroke-miterlimit="10" stroke-dasharray="2,2" x1="70.1" y1="58.9" x2="177.1" y2="58.9"/>
		<line fill="none" stroke="#53BADD" stroke-miterlimit="10" stroke-dasharray="2,2" x1="70.1" y1="69.9" x2="177.1" y2="69.9"/>
		<line fill="none" stroke="#53BADD" stroke-miterlimit="10" stroke-dasharray="2,2" x1="70.1" y1="78.9" x2="177.1" y2="78.9"/>
		<line fill="none" stroke="#53BADD" stroke-miterlimit="10" stroke-dasharray="2,2" x1="70.1" y1="86.9" x2="177.1" y2="86.9"/>
		<line fill="none" stroke="#53BADD" stroke-miterlimit="10" stroke-dasharray="2,2" x1="70.1" y1="97.9" x2="177.1" y2="97.9"/>
		<line fill="none" stroke="#53BADD" stroke-miterlimit="10" stroke-dasharray="2,2" x1="70.1" y1="106.9" x2="177.1" y2="106.9"/>
		<line fill="none" stroke="#53BADD" stroke-miterlimit="10" stroke-dasharray="2,2" x1="70.1" y1="115.9" x2="177.1" y2="115.9"/>
		<line fill="none" stroke="#53BADD" stroke-miterlimit="10" stroke-dasharray="2,2" x1="70.1" y1="125.9" x2="177.1" y2="125.9"/>
		<line fill="none" stroke="#53BADD" stroke-miterlimit="10" stroke-dasharray="2,2" x1="70.1" y1="134.9" x2="177.1" y2="134.9"/>
		<rect x="68.1" y="50.4" fill="none" stroke="#53BADD" stroke-width="2" stroke-miterlimit="10" width="108" height="95"/>
	</g>
	<g>
		<rect x="68.1" y="145.4" fill="#C0E7F8" width="107" height="93"/>
		<line fill="none" stroke="#53BADD" stroke-miterlimit="10" stroke-dasharray="2,2" x1="77.6" y1="147.4" x2="77.6" y2="284.4"/>
		<line fill="none" stroke="#53BADD" stroke-miterlimit="10" stroke-dasharray="2,2" x1="89.6" y1="147.4" x2="89.6" y2="284.4"/>
		<line fill="none" stroke="#53BADD" stroke-miterlimit="10" stroke-dasharray="2,2" x1="100.6" y1="147.4" x2="100.6" y2="284.4"/>
		<line fill="none" stroke="#53BADD" stroke-miterlimit="10" stroke-dasharray="2,2" x1="111.6" y1="147.4" x2="111.6" y2="284.4"/>
		<line fill="none" stroke="#53BADD" stroke-miterlimit="10" stroke-dasharray="2,2" x1="122.6" y1="147.4" x2="122.6" y2="284.4"/>
		<line fill="none" stroke="#53BADD" stroke-miterlimit="10" stroke-dasharray="2,2" x1="134.6" y1="147.4" x2="134.6" y2="284.4"/>
		<line fill="none" stroke="#53BADD" stroke-miterlimit="10" stroke-dasharray="2,2" x1="146.6" y1="147.4" x2="146.6" y2="284.4"/>
		<line fill="none" stroke="#53BADD" stroke-miterlimit="10" stroke-dasharray="2,2" x1="155.6" y1="147.4" x2="155.6" y2="284.4"/>
		<line fill="none" stroke="#53BADD" stroke-miterlimit="10" stroke-dasharray="2,2" x1="165.6" y1="147.4" x2="165.6" y2="284.4"/>
		<line fill="none" stroke="#53BADD" stroke-miterlimit="10" stroke-dasharray="2,2" x1="70.1" y1="154.9" x2="177.1" y2="154.9"/>
		<line fill="none" stroke="#53BADD" stroke-miterlimit="10" stroke-dasharray="2,2" x1="70.1" y1="164.9" x2="177.1" y2="164.9"/>
		<line fill="none" stroke="#53BADD" stroke-miterlimit="10" stroke-dasharray="2,2" x1="70.1" y1="173.9" x2="177.1" y2="173.9"/>
		<line fill="none" stroke="#53BADD" stroke-miterlimit="10" stroke-dasharray="2,2" x1="70.1" y1="182.9" x2="177.1" y2="182.9"/>
		<line fill="none" stroke="#53BADD" stroke-miterlimit="10" stroke-dasharray="2,2" x1="70.1" y1="192.9" x2="177.1" y2="192.9"/>
		<line fill="none" stroke="#53BADD" stroke-miterlimit="10" stroke-dasharray="2,2" x1="70.1" y1="201.9" x2="177.1" y2="201.9"/>
		<line fill="none" stroke="#53BADD" stroke-miterlimit="10" stroke-dasharray="2,2" x1="70.1" y1="211.9" x2="177.1" y2="211.9"/>
		<line fill="none" stroke="#53BADD" stroke-miterlimit="10" stroke-dasharray="2,2" x1="70.1" y1="219.9" x2="177.1" y2="219.9"/>
		<line fill="none" stroke="#53BADD" stroke-miterlimit="10" stroke-dasharray="2,2" x1="70.1" y1="228.9" x2="177.1" y2="228.9"/>
		<line fill="none" stroke="#53BADD" stroke-miterlimit="10" stroke-dasharray="2,2" x1="70.1" y1="247.9" x2="177.1" y2="247.9"/>
		<line fill="none" stroke="#53BADD" stroke-miterlimit="10" stroke-dasharray="2,2" x1="70.1" y1="256.9" x2="177.1" y2="256.9"/>
		<line fill="none" stroke="#53BADD" stroke-miterlimit="10" stroke-dasharray="2,2" x1="70.1" y1="265.9" x2="177.1" y2="265.9"/>
		<line fill="none" stroke="#53BADD" stroke-miterlimit="10" stroke-dasharray="2,2" x1="70.1" y1="274.9" x2="177.1" y2="274.9"/>
		<rect x="68.1" y="145.4" fill="none" stroke="#53BADD" stroke-width="2" stroke-miterlimit="10" width="108" height="139"/>
	</g>
	<line fill="none" stroke="#53BADD" stroke-width="2" stroke-miterlimit="10" x1="68.1" y1="239.4" x2="176.1" y2="239.4"/>
</g>
<g>
	<rect x="177.1" y="239.4" fill="#ECBEC6" width="108" height="44"/>
	<g>
		<rect x="176.1" y="50.4" fill="#C0E7F8" width="108" height="94"/>
		<line fill="none" stroke="#53BADD" stroke-miterlimit="10" stroke-dasharray="2,2" x1="186.6" y1="52.4" x2="186.6" y2="144.4"/>
		<line fill="none" stroke="#53BADD" stroke-miterlimit="10" stroke-dasharray="2,2" x1="197.6" y1="52.4" x2="197.6" y2="144.4"/>
		<line fill="none" stroke="#53BADD" stroke-miterlimit="10" stroke-dasharray="2,2" x1="209.6" y1="52.4" x2="209.6" y2="144.4"/>
		<line fill="none" stroke="#53BADD" stroke-miterlimit="10" stroke-dasharray="2,2" x1="219.6" y1="52.4" x2="219.6" y2="144.4"/>
		<line fill="none" stroke="#53BADD" stroke-miterlimit="10" stroke-dasharray="2,2" x1="231.6" y1="52.4" x2="231.6" y2="144.4"/>
		<line fill="none" stroke="#53BADD" stroke-miterlimit="10" stroke-dasharray="2,2" x1="243.6" y1="52.4" x2="243.6" y2="144.4"/>
		<line fill="none" stroke="#53BADD" stroke-miterlimit="10" stroke-dasharray="2,2" x1="254.6" y1="52.4" x2="254.6" y2="144.4"/>
		<line fill="none" stroke="#53BADD" stroke-miterlimit="10" stroke-dasharray="2,2" x1="264.6" y1="52.4" x2="264.6" y2="144.4"/>
		<line fill="none" stroke="#53BADD" stroke-miterlimit="10" stroke-dasharray="2,2" x1="274.6" y1="52.4" x2="274.6" y2="144.4"/>
		<line fill="none" stroke="#53BADD" stroke-miterlimit="10" stroke-dasharray="2,2" x1="178.1" y1="58.9" x2="286.1" y2="58.9"/>
		<line fill="none" stroke="#53BADD" stroke-miterlimit="10" stroke-dasharray="2,2" x1="178.1" y1="69.9" x2="286.1" y2="69.9"/>
		<line fill="none" stroke="#53BADD" stroke-miterlimit="10" stroke-dasharray="2,2" x1="178.1" y1="78.9" x2="286.1" y2="78.9"/>
		<line fill="none" stroke="#53BADD" stroke-miterlimit="10" stroke-dasharray="2,2" x1="178.1" y1="86.9" x2="286.1" y2="86.9"/>
		<line fill="none" stroke="#53BADD" stroke-miterlimit="10" stroke-dasharray="2,2" x1="178.1" y1="97.9" x2="286.1" y2="97.9"/>
		<line fill="none" stroke="#53BADD" stroke-miterlimit="10" stroke-dasharray="2,2" x1="178.1" y1="106.9" x2="286.1" y2="106.9"/>
		<line fill="none" stroke="#53BADD" stroke-miterlimit="10" stroke-dasharray="2,2" x1="178.1" y1="115.9" x2="286.1" y2="115.9"/>
		<line fill="none" stroke="#53BADD" stroke-miterlimit="10" stroke-dasharray="2,2" x1="178.1" y1="125.9" x2="286.1" y2="125.9"/>
		<line fill="none" stroke="#53BADD" stroke-miterlimit="10" stroke-dasharray="2,2" x1="178.1" y1="134.9" x2="286.1" y2="134.9"/>
		<rect x="176.1" y="50.4" fill="none" stroke="#53BADD" stroke-width="2" stroke-miterlimit="10" width="109" height="95"/>
	</g>
	<g>
		<rect x="176.1" y="145.4" fill="#C0E7F8" width="108" height="93"/>
		<line fill="none" stroke="#53BADD" stroke-miterlimit="10" stroke-dasharray="2,2" x1="186.6" y1="147.4" x2="186.6" y2="284.4"/>
		<line fill="none" stroke="#53BADD" stroke-miterlimit="10" stroke-dasharray="2,2" x1="197.6" y1="147.4" x2="197.6" y2="284.4"/>
		<line fill="none" stroke="#53BADD" stroke-miterlimit="10" stroke-dasharray="2,2" x1="209.6" y1="147.4" x2="209.6" y2="284.4"/>
		<line fill="none" stroke="#53BADD" stroke-miterlimit="10" stroke-dasharray="2,2" x1="219.6" y1="147.4" x2="219.6" y2="284.4"/>
		<line fill="none" stroke="#53BADD" stroke-miterlimit="10" stroke-dasharray="2,2" x1="231.6" y1="147.4" x2="231.6" y2="284.4"/>
		<line fill="none" stroke="#53BADD" stroke-miterlimit="10" stroke-dasharray="2,2" x1="243.6" y1="147.4" x2="243.6" y2="284.4"/>
		<line fill="none" stroke="#53BADD" stroke-miterlimit="10" stroke-dasharray="2,2" x1="254.6" y1="147.4" x2="254.6" y2="284.4"/>
		<line fill="none" stroke="#53BADD" stroke-miterlimit="10" stroke-dasharray="2,2" x1="264.6" y1="147.4" x2="264.6" y2="284.4"/>
		<line fill="none" stroke="#53BADD" stroke-miterlimit="10" stroke-dasharray="2,2" x1="274.6" y1="147.4" x2="274.6" y2="284.4"/>
		<line fill="none" stroke="#53BADD" stroke-miterlimit="10" stroke-dasharray="2,2" x1="178.1" y1="154.9" x2="286.1" y2="154.9"/>
		<line fill="none" stroke="#53BADD" stroke-miterlimit="10" stroke-dasharray="2,2" x1="178.1" y1="164.9" x2="286.1" y2="164.9"/>
		<line fill="none" stroke="#53BADD" stroke-miterlimit="10" stroke-dasharray="2,2" x1="178.1" y1="173.9" x2="286.1" y2="173.9"/>
		<line fill="none" stroke="#53BADD" stroke-miterlimit="10" stroke-dasharray="2,2" x1="178.1" y1="182.9" x2="286.1" y2="182.9"/>
		<line fill="none" stroke="#53BADD" stroke-miterlimit="10" stroke-dasharray="2,2" x1="178.1" y1="192.9" x2="286.1" y2="192.9"/>
		<line fill="none" stroke="#53BADD" stroke-miterlimit="10" stroke-dasharray="2,2" x1="178.1" y1="201.9" x2="286.1" y2="201.9"/>
		<line fill="none" stroke="#53BADD" stroke-miterlimit="10" stroke-dasharray="2,2" x1="178.1" y1="211.9" x2="286.1" y2="211.9"/>
		<line fill="none" stroke="#53BADD" stroke-miterlimit="10" stroke-dasharray="2,2" x1="178.1" y1="219.9" x2="286.1" y2="219.9"/>
		<line fill="none" stroke="#53BADD" stroke-miterlimit="10" stroke-dasharray="2,2" x1="178.1" y1="228.9" x2="286.1" y2="228.9"/>
		<line fill="none" stroke="#53BADD" stroke-miterlimit="10" stroke-dasharray="2,2" x1="178.1" y1="247.9" x2="286.1" y2="247.9"/>
		<line fill="none" stroke="#53BADD" stroke-miterlimit="10" stroke-dasharray="2,2" x1="178.1" y1="256.9" x2="286.1" y2="256.9"/>
		<line fill="none" stroke="#53BADD" stroke-miterlimit="10" stroke-dasharray="2,2" x1="178.1" y1="265.9" x2="286.1" y2="265.9"/>
		<line fill="none" stroke="#53BADD" stroke-miterlimit="10" stroke-dasharray="2,2" x1="178.1" y1="274.9" x2="286.1" y2="274.9"/>
		<rect x="176.1" y="145.4" fill="none" stroke="#53BADD" stroke-width="2" stroke-miterlimit="10" width="109" height="139"/>
	</g>
	<line fill="none" stroke="#53BADD" stroke-width="2" stroke-miterlimit="10" x1="176.1" y1="239.4" x2="285.1" y2="239.4"/>
</g>
<g>
	<rect x="286.1" y="239.4" fill="#ECBEC6" width="108" height="44"/>
	<g>
		<rect x="285.1" y="50.4" fill="#C0E7F8" width="108" height="94"/>
		<line fill="none" stroke="#53BADD" stroke-miterlimit="10" stroke-dasharray="2,2" x1="294.6" y1="52.4" x2="294.6" y2="144.4"/>
		<line fill="none" stroke="#53BADD" stroke-miterlimit="10" stroke-dasharray="2,2" x1="305.6" y1="52.4" x2="305.6" y2="144.4"/>
		<line fill="none" stroke="#53BADD" stroke-miterlimit="10" stroke-dasharray="2,2" x1="317.6" y1="52.4" x2="317.6" y2="144.4"/>
		<line fill="none" stroke="#53BADD" stroke-miterlimit="10" stroke-dasharray="2,2" x1="329.6" y1="52.4" x2="329.6" y2="144.4"/>
		<line fill="none" stroke="#53BADD" stroke-miterlimit="10" stroke-dasharray="2,2" x1="339.6" y1="52.4" x2="339.6" y2="144.4"/>
		<line fill="none" stroke="#53BADD" stroke-miterlimit="10" stroke-dasharray="2,2" x1="351.6" y1="52.4" x2="351.6" y2="144.4"/>
		<line fill="none" stroke="#53BADD" stroke-miterlimit="10" stroke-dasharray="2,2" x1="362.6" y1="52.4" x2="362.6" y2="144.4"/>
		<line fill="none" stroke="#53BADD" stroke-miterlimit="10" stroke-dasharray="2,2" x1="373.6" y1="52.4" x2="373.6" y2="144.4"/>
		<line fill="none" stroke="#53BADD" stroke-miterlimit="10" stroke-dasharray="2,2" x1="383.6" y1="52.4" x2="383.6" y2="144.4"/>
		<line fill="none" stroke="#53BADD" stroke-miterlimit="10" stroke-dasharray="2,2" x1="287.1" y1="58.9" x2="394.1" y2="58.9"/>
		<line fill="none" stroke="#53BADD" stroke-miterlimit="10" stroke-dasharray="2,2" x1="287.1" y1="69.9" x2="394.1" y2="69.9"/>
		<line fill="none" stroke="#53BADD" stroke-miterlimit="10" stroke-dasharray="2,2" x1="287.1" y1="78.9" x2="394.1" y2="78.9"/>
		<line fill="none" stroke="#53BADD" stroke-miterlimit="10" stroke-dasharray="2,2" x1="287.1" y1="86.9" x2="394.1" y2="86.9"/>
		<line fill="none" stroke="#53BADD" stroke-miterlimit="10" stroke-dasharray="2,2" x1="287.1" y1="97.9" x2="394.1" y2="97.9"/>
		<line fill="none" stroke="#53BADD" stroke-miterlimit="10" stroke-dasharray="2,2" x1="287.1" y1="106.9" x2="394.1" y2="106.9"/>
		<line fill="none" stroke="#53BADD" stroke-miterlimit="10" stroke-dasharray="2,2" x1="287.1" y1="115.9" x2="394.1" y2="115.9"/>
		<line fill="none" stroke="#53BADD" stroke-miterlimit="10" stroke-dasharray="2,2" x1="287.1" y1="125.9" x2="394.1" y2="125.9"/>
		<line fill="none" stroke="#53BADD" stroke-miterlimit="10" stroke-dasharray="2,2" x1="287.1" y1="134.9" x2="394.1" y2="134.9"/>
		<rect x="285.1" y="50.4" fill="none" stroke="#53BADD" stroke-width="2" stroke-miterlimit="10" width="109" height="95"/>
	</g>
	<g>
		<rect x="285.1" y="145.4" fill="#C0E7F8" width="108" height="93"/>
		<line fill="none" stroke="#53BADD" stroke-miterlimit="10" stroke-dasharray="2,2" x1="294.6" y1="147.4" x2="294.6" y2="284.4"/>
		<line fill="none" stroke="#53BADD" stroke-miterlimit="10" stroke-dasharray="2,2" x1="305.6" y1="147.4" x2="305.6" y2="284.4"/>
		<line fill="none" stroke="#53BADD" stroke-miterlimit="10" stroke-dasharray="2,2" x1="317.6" y1="147.4" x2="317.6" y2="284.4"/>
		<line fill="none" stroke="#53BADD" stroke-miterlimit="10" stroke-dasharray="2,2" x1="329.6" y1="147.4" x2="329.6" y2="284.4"/>
		<line fill="none" stroke="#53BADD" stroke-miterlimit="10" stroke-dasharray="2,2" x1="339.6" y1="147.4" x2="339.6" y2="284.4"/>
		<line fill="none" stroke="#53BADD" stroke-miterlimit="10" stroke-dasharray="2,2" x1="351.6" y1="147.4" x2="351.6" y2="284.4"/>
		<line fill="none" stroke="#53BADD" stroke-miterlimit="10" stroke-dasharray="2,2" x1="362.6" y1="147.4" x2="362.6" y2="284.4"/>
		<line fill="none" stroke="#53BADD" stroke-miterlimit="10" stroke-dasharray="2,2" x1="373.6" y1="147.4" x2="373.6" y2="284.4"/>
		<line fill="none" stroke="#53BADD" stroke-miterlimit="10" stroke-dasharray="2,2" x1="383.6" y1="147.4" x2="383.6" y2="284.4"/>
		<line fill="none" stroke="#53BADD" stroke-miterlimit="10" stroke-dasharray="2,2" x1="287.1" y1="154.9" x2="394.1" y2="154.9"/>
		<line fill="none" stroke="#53BADD" stroke-miterlimit="10" stroke-dasharray="2,2" x1="287.1" y1="164.9" x2="394.1" y2="164.9"/>
		<line fill="none" stroke="#53BADD" stroke-miterlimit="10" stroke-dasharray="2,2" x1="287.1" y1="173.9" x2="394.1" y2="173.9"/>
		<line fill="none" stroke="#53BADD" stroke-miterlimit="10" stroke-dasharray="2,2" x1="287.1" y1="182.9" x2="394.1" y2="182.9"/>
		<line fill="none" stroke="#53BADD" stroke-miterlimit="10" stroke-dasharray="2,2" x1="287.1" y1="192.9" x2="394.1" y2="192.9"/>
		<line fill="none" stroke="#53BADD" stroke-miterlimit="10" stroke-dasharray="2,2" x1="287.1" y1="201.9" x2="394.1" y2="201.9"/>
		<line fill="none" stroke="#53BADD" stroke-miterlimit="10" stroke-dasharray="2,2" x1="287.1" y1="211.9" x2="394.1" y2="211.9"/>
		<line fill="none" stroke="#53BADD" stroke-miterlimit="10" stroke-dasharray="2,2" x1="287.1" y1="219.9" x2="394.1" y2="219.9"/>
		<line fill="none" stroke="#53BADD" stroke-miterlimit="10" stroke-dasharray="2,2" x1="287.1" y1="228.9" x2="394.1" y2="228.9"/>
		<line fill="none" stroke="#53BADD" stroke-miterlimit="10" stroke-dasharray="2,2" x1="287.1" y1="247.9" x2="394.1" y2="247.9"/>
		<line fill="none" stroke="#53BADD" stroke-miterlimit="10" stroke-dasharray="2,2" x1="287.1" y1="256.9" x2="394.1" y2="256.9"/>
		<line fill="none" stroke="#53BADD" stroke-miterlimit="10" stroke-dasharray="2,2" x1="287.1" y1="265.9" x2="394.1" y2="265.9"/>
		<line fill="none" stroke="#53BADD" stroke-miterlimit="10" stroke-dasharray="2,2" x1="287.1" y1="274.9" x2="394.1" y2="274.9"/>
		<rect x="285.1" y="145.4" fill="none" stroke="#53BADD" stroke-width="2" stroke-miterlimit="10" width="109" height="139"/>
	</g>
	<line fill="none" stroke="#53BADD" stroke-width="2" stroke-miterlimit="10" x1="285.1" y1="239.4" x2="394.1" y2="239.4"/>
</g>
<g>
	<rect x="394.1" y="239.4" fill="#ECBEC6" width="85" height="44"/>
	<g>
		<rect x="393.1" y="50.4" fill="#C0E7F8" width="86" height="94"/>
		<line fill="none" stroke="#53BADD" stroke-miterlimit="10" stroke-dasharray="2,2" x1="403.6" y1="52.4" x2="403.6" y2="144.4"/>
		<line fill="none" stroke="#53BADD" stroke-miterlimit="10" stroke-dasharray="2,2" x1="413.6" y1="52.4" x2="413.6" y2="144.4"/>
		<line fill="none" stroke="#53BADD" stroke-miterlimit="10" stroke-dasharray="2,2" x1="425.6" y1="52.4" x2="425.6" y2="144.4"/>
		<line fill="none" stroke="#53BADD" stroke-miterlimit="10" stroke-dasharray="2,2" x1="436.6" y1="52.4" x2="436.6" y2="144.4"/>
		<line fill="none" stroke="#53BADD" stroke-miterlimit="10" stroke-dasharray="2,2" x1="447.6" y1="52.4" x2="447.6" y2="144.4"/>
		<line fill="none" stroke="#53BADD" stroke-miterlimit="10" stroke-dasharray="2,2" x1="459.6" y1="52.4" x2="459.6" y2="144.4"/>
		<line fill="none" stroke="#53BADD" stroke-miterlimit="10" stroke-dasharray="2,2" x1="470.6" y1="52.4" x2="470.6" y2="144.4"/>
		<line fill="none" stroke="#53BADD" stroke-miterlimit="10" stroke-dasharray="2,2" x1="480.6" y1="52.4" x2="480.6" y2="144.4"/>
		<line fill="none" stroke="#53BADD" stroke-miterlimit="10" stroke-dasharray="2,2" x1="394.1" y1="58.9" x2="479.1" y2="58.9"/>
		<line fill="none" stroke="#53BADD" stroke-miterlimit="10" stroke-dasharray="2,2" x1="394.1" y1="69.9" x2="479.1" y2="69.9"/>
		<line fill="none" stroke="#53BADD" stroke-miterlimit="10" stroke-dasharray="2,2" x1="394.1" y1="78.9" x2="479.1" y2="78.9"/>
		<line fill="none" stroke="#53BADD" stroke-miterlimit="10" stroke-dasharray="2,2" x1="394.1" y1="86.9" x2="479.1" y2="86.9"/>
		<line fill="none" stroke="#53BADD" stroke-miterlimit="10" stroke-dasharray="2,2" x1="394.1" y1="97.9" x2="479.1" y2="97.9"/>
		<line fill="none" stroke="#53BADD" stroke-miterlimit="10" stroke-dasharray="2,2" x1="394.1" y1="106.9" x2="479.1" y2="106.9"/>
		<line fill="none" stroke="#53BADD" stroke-miterlimit="10" stroke-dasharray="2,2" x1="394.1" y1="115.9" x2="479.1" y2="115.9"/>
		<line fill="none" stroke="#53BADD" stroke-miterlimit="10" stroke-dasharray="2,2" x1="394.1" y1="125.9" x2="479.1" y2="125.9"/>
		<line fill="none" stroke="#53BADD" stroke-miterlimit="10" stroke-dasharray="2,2" x1="394.1" y1="134.9" x2="479.1" y2="134.9"/>
		<rect x="393.1" y="50.4" fill="none" stroke="#53BADD" stroke-width="2" stroke-miterlimit="10" width="87" height="95"/>
	</g>
	<g>
		<rect x="393.1" y="145.4" fill="#C0E7F8" width="86" height="93"/>
		<line fill="none" stroke="#53BADD" stroke-miterlimit="10" stroke-dasharray="2,2" x1="403.6" y1="147.4" x2="403.6" y2="284.4"/>
		<line fill="none" stroke="#53BADD" stroke-miterlimit="10" stroke-dasharray="2,2" x1="413.6" y1="147.4" x2="413.6" y2="284.4"/>
		<line fill="none" stroke="#53BADD" stroke-miterlimit="10" stroke-dasharray="2,2" x1="425.6" y1="147.4" x2="425.6" y2="284.4"/>
		<line fill="none" stroke="#53BADD" stroke-miterlimit="10" stroke-dasharray="2,2" x1="436.6" y1="147.4" x2="436.6" y2="284.4"/>
		<line fill="none" stroke="#53BADD" stroke-miterlimit="10" stroke-dasharray="2,2" x1="447.6" y1="147.4" x2="447.6" y2="284.4"/>
		<line fill="none" stroke="#53BADD" stroke-miterlimit="10" stroke-dasharray="2,2" x1="459.6" y1="147.4" x2="459.6" y2="284.4"/>
		<line fill="none" stroke="#53BADD" stroke-miterlimit="10" stroke-dasharray="2,2" x1="470.6" y1="147.4" x2="470.6" y2="284.4"/>
		<line fill="none" stroke="#53BADD" stroke-miterlimit="10" stroke-dasharray="2,2" x1="480.6" y1="147.4" x2="480.6" y2="284.4"/>
		<line fill="none" stroke="#53BADD" stroke-miterlimit="10" stroke-dasharray="2,2" x1="394.1" y1="154.9" x2="480.1" y2="154.9"/>
		<line fill="none" stroke="#53BADD" stroke-miterlimit="10" stroke-dasharray="2,2" x1="394.1" y1="164.9" x2="480.1" y2="164.9"/>
		<line fill="none" stroke="#53BADD" stroke-miterlimit="10" stroke-dasharray="2,2" x1="394.1" y1="173.9" x2="480.1" y2="173.9"/>
		<line fill="none" stroke="#53BADD" stroke-miterlimit="10" stroke-dasharray="2,2" x1="394.1" y1="182.9" x2="480.1" y2="182.9"/>
		<line fill="none" stroke="#53BADD" stroke-miterlimit="10" stroke-dasharray="2,2" x1="394.1" y1="192.9" x2="480.1" y2="192.9"/>
		<line fill="none" stroke="#53BADD" stroke-miterlimit="10" stroke-dasharray="2,2" x1="394.1" y1="201.9" x2="480.1" y2="201.9"/>
		<line fill="none" stroke="#53BADD" stroke-miterlimit="10" stroke-dasharray="2,2" x1="394.1" y1="211.9" x2="480.1" y2="211.9"/>
		<line fill="none" stroke="#53BADD" stroke-miterlimit="10" stroke-dasharray="2,2" x1="394.1" y1="219.9" x2="480.1" y2="219.9"/>
		<line fill="none" stroke="#53BADD" stroke-miterlimit="10" stroke-dasharray="2,2" x1="394.1" y1="228.9" x2="480.1" y2="228.9"/>
		<line fill="none" stroke="#53BADD" stroke-miterlimit="10" stroke-dasharray="2,2" x1="394.1" y1="247.9" x2="479.1" y2="247.9"/>
		<line fill="none" stroke="#53BADD" stroke-miterlimit="10" stroke-dasharray="2,2" x1="394.1" y1="256.9" x2="479.1" y2="256.9"/>
		<line fill="none" stroke="#53BADD" stroke-miterlimit="10" stroke-dasharray="2,2" x1="394.1" y1="265.9" x2="479.1" y2="265.9"/>
		<line fill="none" stroke="#53BADD" stroke-miterlimit="10" stroke-dasharray="2,2" x1="394.1" y1="274.9" x2="479.1" y2="274.9"/>
		<rect x="393.1" y="145.4" fill="none" stroke="#53BADD" stroke-width="2" stroke-miterlimit="10" width="87" height="139"/>
	</g>
	<line fill="none" stroke="#53BADD" stroke-width="2" stroke-miterlimit="10" x1="393.1" y1="239.4" x2="480.1" y2="239.4"/>
</g>
<path fill="none" stroke="#949599" stroke-miterlimit="10" stroke-dasharray="4,4" d="M485.8,48.9c-40.4-17-118.6-27.5-208.3-27.5
	c-89.8,0-167.9,10.5-208.3,27.5"/>
<path fill="none" stroke="#949599" stroke-miterlimit="10" stroke-dasharray="4,4" d="M63.8,52.1c0,0-59.5,94.3,2.5,192.6"/>
<path fill="none" stroke="#949599" stroke-miterlimit="10" stroke-dasharray="4,4" d="M65.1,244.9c0,0-30.9,20.1,0.6,43.6"/>
<g>
	<rect x="23.1" y="246.4" fill="#FFFFFF" width="31" height="39"/>
	<g>
		<path fill="#121312" d="M48.8,248.8c0.3,0.4,0.4,0.9,0.4,1.5c0,0.6-0.1,1.1-0.4,1.5c-0.3,0.4-0.7,0.6-1.4,0.6H33.9l-0.6,11
			c0.9-0.6,1.9-1.2,3.1-1.6c1.2-0.4,2.5-0.7,4.1-0.7c1.7,0,3.3,0.3,4.6,0.9c1.3,0.6,2.5,1.3,3.4,2.3c0.9,1,1.6,2.1,2.1,3.5
			c0.5,1.3,0.7,2.7,0.7,4.3v0.5c0,1.4-0.2,2.8-0.7,4.2c-0.5,1.4-1.2,2.6-2.2,3.7c-1,1.1-2.3,2-3.9,2.7s-3.5,1-5.8,1
			c-2.3,0-4.3-0.3-6.1-0.8c-1.8-0.5-3.4-1.2-4.7-2.1c-0.6-0.4-0.9-0.9-1-1.5c-0.1-0.6,0-1.2,0.4-1.8c0.8-1.3,1.8-1.5,3.1-0.8
			c1.2,0.7,2.4,1.3,3.8,1.7c1.3,0.4,2.9,0.6,4.6,0.6c1.3,0,2.5-0.2,3.5-0.6c1-0.4,1.8-0.9,2.4-1.5c0.6-0.6,1.1-1.4,1.4-2.3
			c0.3-0.8,0.4-1.8,0.4-2.7v-0.4c0-2.3-0.6-4-1.9-5.2c-1.3-1.2-3-1.8-5.4-1.8c-1.3,0-2.5,0.2-3.5,0.6c-1.1,0.4-2,1-2.8,1.7
			c-0.4,0.4-0.8,0.6-1.1,0.8c-0.3,0.1-0.7,0.2-1.2,0.2c-0.6,0-1.1-0.2-1.5-0.5c-0.4-0.3-0.6-0.7-0.6-1.3l0.9-14.9
			c0-0.8,0.1-1.4,0.3-1.9s0.4-0.9,0.6-1.2s0.7-0.5,1.1-0.6c0.5-0.1,1.1-0.2,1.8-0.2h14.4C48.1,248.2,48.5,248.4,48.8,248.8z"/>
	</g>
</g>
<g>
	<rect x="235.1" y="7.4" fill="#FFFFFF" width="61" height="39"/>
	<g>
		<path fill="#121312" d="M249.1,3.6c1.9,0,3.6,0.2,5,0.7c1.4,0.5,2.6,1.1,3.6,1.9c1,0.8,1.7,1.8,2.2,2.9c0.5,1.1,0.7,2.3,0.7,3.5
			v0.3c0,0.9-0.1,1.7-0.4,2.5c-0.3,0.8-0.6,1.6-1.1,2.4s-1.1,1.4-1.9,2c-0.8,0.6-1.7,1-2.8,1.4c1.1,0.2,2.1,0.5,3,0.9
			c0.9,0.4,1.7,1,2.4,1.6c0.7,0.7,1.2,1.5,1.6,2.4c0.4,1,0.6,2,0.6,3.2v0.5c0,1.4-0.3,2.7-0.8,4c-0.5,1.3-1.3,2.4-2.4,3.3
			c-1,1-2.4,1.7-4,2.3c-1.6,0.6-3.4,0.8-5.5,0.8c-4,0-7.4-1-10.3-2.9c-0.6-0.4-1-0.9-1.1-1.5c-0.1-0.6,0-1.2,0.4-1.8
			c0.4-0.6,0.8-1,1.4-1.1c0.5-0.1,1.1,0,1.7,0.4c1.2,0.8,2.5,1.4,3.7,1.8c1.2,0.4,2.5,0.6,3.9,0.6c1.4,0,2.6-0.2,3.6-0.5
			c1-0.3,1.8-0.8,2.4-1.3c0.6-0.6,1.1-1.2,1.4-1.9c0.3-0.7,0.4-1.5,0.4-2.3v-0.4c0-1.1-0.2-2-0.6-2.8s-1-1.3-1.6-1.8
			c-0.7-0.5-1.5-0.8-2.5-1c-1-0.2-2-0.3-3.2-0.3h-2.8c-0.6,0-1.1-0.2-1.4-0.6c-0.3-0.4-0.4-1-0.4-1.5c0-0.6,0.1-1.1,0.4-1.5
			c0.3-0.4,0.7-0.6,1.4-0.6h2.4c2,0,3.7-0.5,5-1.4c1.3-0.9,2-2.4,2-4.5v-0.1c0-1.5-0.5-2.8-1.6-3.7c-1.1-0.9-2.7-1.4-4.9-1.4
			c-1.4,0-2.6,0.3-3.6,0.8c-1,0.5-2,1.2-2.8,2.2c-0.5,0.5-1,0.7-1.6,0.6c-0.6,0-1.1-0.3-1.5-0.8c-0.4-0.5-0.6-1-0.6-1.5
			c0-0.5,0.2-1.1,0.6-1.5c1-1.2,2.3-2.2,3.9-3C245.1,4,246.9,3.6,249.1,3.6z"/>
		<path fill="#121312" d="M277.9,3.6c1.8,0,3.3,0.3,4.7,0.8c1.4,0.5,2.6,1.2,3.5,2.1c1,0.9,1.7,1.9,2.2,3c0.5,1.1,0.8,2.4,0.8,3.7
			v0.5c0,1.5-0.4,3-1.3,4.4c-0.9,1.4-2.2,2.6-4,3.5c1.8,0.5,3.4,1.5,4.6,3c1.2,1.5,1.8,3.3,1.8,5.3v0.6c0,1.4-0.3,2.8-0.8,4
			c-0.6,1.2-1.3,2.3-2.4,3.1c-1,0.9-2.3,1.5-3.8,2c-1.5,0.5-3.2,0.8-5.1,0.8c-1.9,0-3.7-0.3-5.2-0.8c-1.5-0.5-2.8-1.2-3.8-2
			c-1.1-0.9-1.9-1.9-2.4-3.1c-0.5-1.2-0.8-2.5-0.8-4v-0.6c0-1,0.2-1.9,0.5-2.8c0.3-0.9,0.8-1.7,1.4-2.4c0.6-0.7,1.2-1.4,2-1.9
			c0.8-0.5,1.6-0.9,2.5-1.2c-1.7-0.8-3.1-2-4-3.4c-0.9-1.5-1.4-2.9-1.4-4.4v-0.5c0-1.3,0.2-2.5,0.7-3.7c0.5-1.2,1.2-2.2,2.1-3
			c0.9-0.9,2.1-1.6,3.5-2.1C274.5,3.9,276.1,3.6,277.9,3.6z M278,23.8c-1,0-1.9,0.1-2.7,0.4c-0.9,0.3-1.6,0.6-2.3,1.1
			c-0.7,0.5-1.2,1.1-1.6,1.9c-0.4,0.8-0.6,1.7-0.6,2.7v0.3c0,1.7,0.6,3.1,1.9,4.1c1.3,1.1,3,1.6,5.2,1.6c2.2,0,3.9-0.5,5.2-1.6
			c1.2-1.1,1.8-2.4,1.8-4.1v-0.3c0-1-0.2-1.9-0.5-2.6c-0.4-0.8-0.9-1.4-1.5-1.9c-0.6-0.5-1.4-0.9-2.2-1.2
			C280,23.9,279,23.8,278,23.8z M278,8c-1.8,0-3.3,0.5-4.4,1.5c-1.1,1-1.7,2.3-1.7,4v0.3c0,0.9,0.2,1.7,0.5,2.4
			c0.3,0.7,0.8,1.3,1.3,1.8c0.5,0.5,1.2,0.9,1.9,1.1s1.5,0.4,2.4,0.4c1.7,0,3.1-0.5,4.3-1.5c1.2-1,1.8-2.3,1.8-4.2v-0.3
			c0-1.7-0.6-3-1.6-4C281.3,8.5,279.8,8,278,8z"/>
	</g>
</g>
<g>
	<rect x="5.1" y="146.4" fill="#FFFFFF" width="51" height="44"/>
	<g>
		<path fill="#121312" d="M14.9,148.6c1.9,0,3.5,0.2,4.9,0.7c1.4,0.5,2.5,1.1,3.5,1.9c0.9,0.8,1.6,1.8,2.1,2.9
			c0.4,1.1,0.7,2.3,0.7,3.5v0.5c0,1.9-0.4,3.6-1.2,5.3c-0.8,1.6-2.1,3.3-3.8,5L9.6,180.5h16.3c0.6,0,1,0.2,1.3,0.6
			c0.3,0.4,0.4,0.9,0.4,1.5c0,0.6-0.1,1.1-0.4,1.5c-0.3,0.4-0.7,0.6-1.3,0.6H6.7c-1.3,0-2.2-0.2-2.8-0.6C3.3,183.6,3,183,3,182
			c0-0.4,0.1-0.8,0.4-1.3c0.2-0.4,0.6-0.9,1.1-1.4l12.2-12.9c0.9-0.9,1.6-1.8,2.2-2.5c0.5-0.7,1-1.4,1.3-2c0.3-0.6,0.6-1.3,0.7-1.8
			c0.1-0.6,0.2-1.2,0.2-1.9v-0.3c0-1.5-0.5-2.6-1.5-3.5c-1-0.9-2.5-1.3-4.5-1.3c-1.7,0-3.1,0.3-4.2,1c-1.1,0.7-2.1,1.7-3,3
			c-0.4,0.5-0.8,0.8-1.4,0.9c-0.6,0.1-1.1-0.1-1.6-0.4c-0.5-0.4-0.9-0.8-1-1.4c-0.2-0.6,0-1.1,0.3-1.7c1.1-1.7,2.5-3.1,4.3-4.2
			C10.1,149.2,12.3,148.6,14.9,148.6z"/>
		<path fill="#121312" d="M43.2,148.6c4.5,0,7.8,1.5,9.8,4.4c2,2.9,3,7.2,3,12.7v2.5c0,5.5-1,9.8-3,12.7c-2,2.9-5.3,4.4-9.8,4.4
			s-7.8-1.5-9.8-4.4c-2-2.9-3-7.2-3-12.7v-2.5c0-5.5,1-9.8,3-12.7C35.4,150.1,38.7,148.6,43.2,148.6z M43.2,153.3
			c-1.5,0-2.7,0.3-3.7,0.8s-1.8,1.3-2.4,2.3c-0.6,1.1-1,2.4-1.3,4c-0.3,1.6-0.4,3.5-0.4,5.8v1.6c0,2.2,0.1,4.2,0.4,5.8
			c0.3,1.6,0.7,2.9,1.3,4s1.4,1.8,2.4,2.3s2.2,0.8,3.7,0.8c1.5,0,2.7-0.3,3.7-0.8s1.8-1.3,2.4-2.3s1-2.4,1.3-4
			c0.3-1.6,0.4-3.5,0.4-5.8v-1.6c0-2.2-0.1-4.2-0.4-5.8c-0.3-1.6-0.7-2.9-1.3-4c-0.6-1-1.4-1.8-2.4-2.3S44.6,153.3,43.2,153.3z"/>
	</g>
</g>
<g>
</g>
<g>
</g>
<g>
</g>
<g>
</g>
<g>
</g>
<g>
</g>
</svg>
