<?xml version="1.0" encoding="utf-8"?>
<!-- Generator: Adobe Illustrator 23.0.0, SVG Export Plug-In . SVG Version: 6.00 Build 0)  -->
<svg version="1.1" id="Layer_1" xmlns="http://www.w3.org/2000/svg" xmlns:xlink="http://www.w3.org/1999/xlink" x="0px" y="0px"
	 width="824.5px" height="357.8px" viewBox="0 0 824.5 357.8" style="enable-background:new 0 0 824.5 357.8;" xml:space="preserve"
	>
<g>
	<g>
		
			<line style="fill:none;stroke:#000100;stroke-width:1.5;stroke-linecap:round;stroke-linejoin:round;stroke-miterlimit:10;stroke-dasharray:3,3;" x1="808" y1="3.7" x2="808" y2="315.4"/>
		
			<line style="fill:none;stroke:#000100;stroke-width:1.5;stroke-linecap:round;stroke-linejoin:round;stroke-miterlimit:10;stroke-dasharray:3,3;" x1="747.4" y1="3.7" x2="747.4" y2="315.4"/>
		
			<line style="fill:none;stroke:#000100;stroke-width:1.5;stroke-linecap:round;stroke-linejoin:round;stroke-miterlimit:10;stroke-dasharray:3,3;" x1="686.8" y1="3.7" x2="686.8" y2="315.4"/>
		<path style="fill:none;stroke:#000100;stroke-width:2;stroke-linecap:round;stroke-linejoin:round;stroke-miterlimit:10;" d="
			M811,139.8"/>
	</g>
	<g>
		
			<line style="fill:none;stroke:#000100;stroke-width:2;stroke-linecap:round;stroke-linejoin:round;stroke-miterlimit:10;" x1="620.2" y1="129.4" x2="817.6" y2="129.4"/>
		
			<line style="fill:none;stroke:#000100;stroke-width:2;stroke-linecap:round;stroke-linejoin:round;stroke-miterlimit:10;" x1="620.2" y1="255.1" x2="817.6" y2="255.1"/>
		<path style="fill:#121312;" d="M657.6,97.9l7.1-7.1c1-1,1-2.6,0-3.5s-2.6-1-3.5,0l-7.1,7.1l-7.1-7.1c-1-1-2.6-1-3.5,0
			s-1,2.6,0,3.5l7.1,7.1l-7.1,7.1c-1,1-1,2.6,0,3.5s2.6,1,3.5,0l7.1-7.1l7.1,7.1c1,1,2.6,1,3.5,0s1-2.6,0-3.5L657.6,97.9z"/>
	</g>
	<g>
		<g>
			<path style="fill:#121312;" d="M784.1,16.9c0.5,0.3,0.8,0.7,0.9,1.2s0,1-0.4,1.6l-12.2,17.6h10.4v-7.9c0-0.6,0.2-1.1,0.6-1.4
				c0.4-0.3,0.9-0.4,1.5-0.4s1.1,0.1,1.5,0.4s0.6,0.7,0.6,1.4v7.9h3.1c0.5,0,0.9,0.2,1.1,0.5c0.2,0.3,0.3,0.8,0.3,1.2
				s-0.1,0.9-0.3,1.2s-0.6,0.5-1.1,0.5H787v5c0,0.6-0.2,1.1-0.6,1.4c-0.4,0.3-0.9,0.4-1.5,0.4c-0.5,0-1-0.1-1.5-0.4
				s-0.6-0.7-0.6-1.4v-5H770c-1,0-1.7-0.2-2.2-0.5c-0.4-0.3-0.6-0.9-0.6-1.6c0-0.3,0.1-0.6,0.2-0.9c0.1-0.3,0.4-0.9,1-1.7l13-18.7
				c0.3-0.5,0.8-0.8,1.2-0.8C783.2,16.5,783.6,16.6,784.1,16.9z"/>
		</g>
	</g>
	<g>
		<g>
			<path style="fill:#121312;" d="M717.7,16.3c1.6,0,3.1,0.2,4.3,0.6s2.3,1,3.1,1.7s1.4,1.5,1.8,2.5c0.4,0.9,0.6,2,0.6,3v0.2
				c0,0.7-0.1,1.5-0.3,2.2s-0.5,1.4-1,2c-0.4,0.6-1,1.2-1.7,1.7s-1.5,0.9-2.4,1.2c0.9,0.1,1.8,0.4,2.6,0.8s1.5,0.8,2.1,1.4
				c0.6,0.6,1.1,1.3,1.4,2.1c0.3,0.8,0.5,1.7,0.5,2.8v0.4c0,1.2-0.2,2.3-0.7,3.4c-0.4,1.1-1.1,2-2,2.9c-0.9,0.8-2,1.5-3.4,2
				s-2.9,0.7-4.8,0.7c-3.4,0-6.4-0.8-8.8-2.5c-0.5-0.3-0.9-0.8-0.9-1.3c-0.1-0.5,0-1,0.3-1.5s0.7-0.8,1.2-0.9c0.5-0.1,1,0,1.5,0.3
				c1.1,0.7,2.1,1.2,3.1,1.6c1,0.3,2.2,0.5,3.4,0.5s2.2-0.1,3.1-0.4c0.9-0.3,1.6-0.7,2.1-1.1c0.5-0.5,0.9-1,1.2-1.7
				c0.2-0.6,0.4-1.3,0.4-2v-0.3c0-0.9-0.2-1.7-0.5-2.4c-0.3-0.6-0.8-1.1-1.4-1.5c-0.6-0.4-1.3-0.7-2.2-0.8c-0.8-0.2-1.7-0.3-2.7-0.3
				h-2.5c-0.5,0-0.9-0.2-1.2-0.6c-0.2-0.4-0.4-0.8-0.4-1.3s0.1-1,0.4-1.3c0.2-0.4,0.6-0.5,1.2-0.5h2.1c1.7,0,3.2-0.4,4.3-1.2
				c1.1-0.8,1.7-2.1,1.7-3.9v-0.1c0-1.3-0.5-2.4-1.4-3.2c-0.9-0.8-2.3-1.2-4.2-1.2c-1.2,0-2.2,0.2-3.1,0.6c-0.9,0.4-1.7,1.1-2.4,1.9
				c-0.4,0.4-0.9,0.6-1.4,0.5c-0.5,0-0.9-0.3-1.3-0.7c-0.4-0.4-0.5-0.8-0.5-1.3s0.2-0.9,0.5-1.3c0.8-1,1.9-1.9,3.3-2.6
				C714.2,16.6,715.8,16.3,717.7,16.3z"/>
		</g>
	</g>
	<g>
		<g>
			<path style="fill:#BC3D69;" d="M726,148.5c1.3,0,2.3,0.2,2.8,0.7c0.6,0.5,0.8,1.2,0.8,2.3c0,0.3,0,0.5,0,0.7s-0.1,0.5-0.2,0.7
				c-0.1,0.3-0.2,0.6-0.4,1s-0.4,1-0.7,1.7l-10.1,22.3c-0.3,0.8-0.9,1.2-1.5,1.4s-1.3,0-2-0.2c-0.6-0.3-1.1-0.7-1.4-1.3
				s-0.3-1.3,0.2-2.2l10.3-22.4h-14.7c-0.7,0-1.1-0.2-1.5-0.7c-0.3-0.5-0.5-1-0.5-1.6s0.2-1.2,0.5-1.6c0.3-0.5,0.8-0.7,1.5-0.7
				L726,148.5L726,148.5z"/>
		</g>
	</g>
	<g>
		<g>
			<path style="fill:#BC3D69;" d="M658.9,148.2c0.8,0,1.5,0.2,2.1,0.6c0.5,0.4,0.8,1,0.8,1.8V177c0,0.8-0.3,1.4-0.8,1.8
				c-0.5,0.4-1.2,0.6-1.9,0.6s-1.4-0.2-1.9-0.6c-0.5-0.4-0.8-1-0.8-1.8v-22.3l-5.5,3.2c-0.7,0.4-1.4,0.5-2,0.2
				c-0.6-0.2-1.1-0.7-1.5-1.3c-0.3-0.6-0.4-1.2-0.3-1.8c0.1-0.7,0.5-1.2,1.2-1.5l7.3-4c0.7-0.4,1.4-0.7,1.9-0.9
				C657.8,148.3,658.4,148.2,658.9,148.2z"/>
		</g>
	</g>
	<g>
		<g>
			<path style="fill:#BC3D69;" d="M780.1,148c4,0,6.9,1.3,8.7,3.9s2.7,6.2,2.7,11v1.8c0,4.7-0.9,8.4-2.7,11s-4.7,3.9-8.7,3.9
				s-6.9-1.3-8.7-3.9s-2.7-6.2-2.7-11v-1.8c0-4.7,0.9-8.4,2.7-11S776.1,148,780.1,148z M780.1,153.2c-1.1,0-2.1,0.2-2.8,0.6
				c-0.8,0.4-1.4,1-1.8,1.8c-0.4,0.8-0.8,1.9-1,3.1c-0.2,1.3-0.3,2.8-0.3,4.6v1.1c0,1.8,0.1,3.3,0.3,4.6s0.5,2.3,1,3.1
				c0.4,0.8,1,1.4,1.8,1.8c0.8,0.4,1.7,0.6,2.8,0.6s2.1-0.2,2.8-0.6c0.8-0.4,1.4-1,1.8-1.8c0.4-0.8,0.8-1.9,1-3.1
				c0.2-1.3,0.3-2.8,0.3-4.6v-1.1c0-1.8-0.1-3.3-0.3-4.6s-0.5-2.3-1-3.1c-0.4-0.8-1-1.4-1.8-1.8
				C782.2,153.4,781.2,153.2,780.1,153.2z"/>
		</g>
	</g>
	<g>
		<path style="fill:#2888BF;" d="M718,79.6c1.7,0,3.3,0.2,4.5,0.6c1.3,0.4,2.3,1,3.1,1.7s1.4,1.6,1.8,2.5c0.4,1,0.6,2,0.6,3v0.5
			c0,1.6-0.4,3.2-1.1,4.7c-0.8,1.5-1.9,3-3.3,4.5l-9.1,9h13c0.7,0,1.1,0.2,1.5,0.7c0.3,0.4,0.5,1,0.5,1.6s-0.2,1.2-0.5,1.6
			s-0.8,0.7-1.5,0.7h-16.4c-1.4,0-2.4-0.2-3-0.7s-0.9-1.2-0.9-2.2c0-0.5,0.1-0.9,0.4-1.3c0.2-0.4,0.6-0.8,1.1-1.3l10-10.1
			c0.8-0.8,1.4-1.5,1.9-2.1s0.9-1.2,1.2-1.7s0.5-1.1,0.6-1.6s0.2-1,0.2-1.6v-0.2c0-0.9-0.4-1.7-1.1-2.3c-0.7-0.6-1.8-0.9-3.3-0.9
			c-1.3,0-2.4,0.2-3.2,0.7c-0.9,0.5-1.7,1.2-2.4,2.2c-0.4,0.5-0.9,0.9-1.5,0.9c-0.6,0.1-1.2-0.1-1.8-0.5s-0.9-0.9-1.1-1.5
			c-0.2-0.6,0-1.2,0.4-1.9c0.9-1.4,2.2-2.6,3.8-3.5S715.7,79.6,718,79.6z"/>
	</g>
	<g>
		<g>
			<path style="fill:#BC3D69;" d="M787.4,80.1c0.7,0,1.1,0.2,1.5,0.7c0.3,0.5,0.5,1,0.5,1.6c0,0.7-0.2,1.2-0.5,1.7
				c-0.3,0.4-0.8,0.7-1.5,0.7h-10.9l-0.3,7.8c0.7-0.4,1.5-0.8,2.5-1.1c0.9-0.3,2-0.5,3.3-0.5c1.5,0,2.8,0.3,4,0.8
				c1.1,0.5,2.1,1.2,2.9,2.1c0.8,0.9,1.4,1.9,1.8,3c0.4,1.1,0.6,2.3,0.6,3.6v0.4c0,1.2-0.2,2.5-0.6,3.7c-0.4,1.2-1.1,2.3-2,3.3
				s-2,1.8-3.4,2.4s-3.1,0.9-5.1,0.9s-3.8-0.2-5.3-0.6s-2.8-1-4-1.7c-0.7-0.4-1-1-1.1-1.7s0-1.3,0.4-1.9c0.4-0.7,0.9-1.1,1.5-1.2
				s1.2,0,1.8,0.4c0.9,0.5,1.9,1,2.9,1.2c1,0.3,2.3,0.4,3.8,0.4c1.9,0,3.3-0.5,4.2-1.5s1.4-2.3,1.4-3.9v-0.3c0-1.7-0.5-2.9-1.4-3.8
				c-1-0.9-2.3-1.3-4-1.3c-1,0-1.9,0.2-2.8,0.5s-1.6,0.7-2.3,1.3c-0.4,0.3-0.8,0.6-1.1,0.7S773.5,98,773,98c-0.7,0-1.2-0.2-1.6-0.5
				c-0.4-0.3-0.6-0.8-0.6-1.4l0.7-12.4c0-0.7,0.1-1.4,0.2-1.8s0.3-0.9,0.6-1.1s0.6-0.5,1.1-0.6s1-0.2,1.7-0.2h12.3V80.1z"/>
		</g>
	</g>
	<g>
		<path style="fill:#2888BF;" d="M779.8,209.2c4,0,6.9,1.3,8.7,3.9s2.7,6.2,2.7,11v1.8c0,4.7-0.9,8.4-2.7,11s-4.7,3.9-8.7,3.9
			s-6.9-1.3-8.7-3.9s-2.7-6.2-2.7-11V224c0-4.7,0.9-8.4,2.7-11S775.8,209.2,779.8,209.2z M779.8,214.4c-1.1,0-2.1,0.2-2.8,0.6
			c-0.8,0.4-1.4,1-1.8,1.8c-0.4,0.8-0.8,1.9-1,3.1c-0.2,1.3-0.3,2.8-0.3,4.6v1.1c0,1.8,0.1,3.3,0.3,4.6s0.5,2.3,1,3.1
			c0.4,0.8,1,1.4,1.8,1.8c0.8,0.4,1.7,0.6,2.8,0.6s2.1-0.2,2.8-0.6c0.8-0.4,1.4-1,1.8-1.8c0.4-0.8,0.8-1.9,1-3.1
			c0.2-1.3,0.3-2.8,0.3-4.6v-1.1c0-1.8-0.1-3.3-0.3-4.6s-0.5-2.3-1-3.1c-0.4-0.8-1-1.4-1.8-1.8C781.8,214.6,780.9,214.4,779.8,214.4
			z"/>
	</g>
	<g>
		<path style="fill:#2888BF;" d="M718.4,209.2c1.7,0,3.1,0.2,4.4,0.7c1.2,0.5,2.3,1.1,3.1,1.9c0.8,0.8,1.5,1.7,1.9,2.7
			s0.6,2.1,0.6,3.2v0.3c0,0.5-0.1,1.1-0.2,1.6c-0.2,0.6-0.4,1.1-0.8,1.7c-0.3,0.6-0.8,1.1-1.3,1.7c-0.5,0.5-1.2,1-1.9,1.5
			c0.7,0.2,1.3,0.5,1.9,1c0.6,0.4,1.2,1,1.6,1.6c0.5,0.6,0.8,1.3,1.1,2c0.3,0.8,0.4,1.6,0.4,2.4v0.5c0,1.2-0.2,2.4-0.7,3.4
			c-0.5,1.1-1.1,2-2,2.8s-2,1.4-3.3,1.8c-1.3,0.4-2.8,0.7-4.6,0.7s-3.3-0.2-4.7-0.7c-1.4-0.4-2.5-1.1-3.4-1.8
			c-0.9-0.8-1.6-1.7-2.1-2.8s-0.7-2.2-0.7-3.4v-0.5c0-0.9,0.1-1.7,0.4-2.4c0.3-0.8,0.7-1.4,1.1-2.1c0.5-0.6,1-1.1,1.6-1.6
			c0.6-0.4,1.2-0.7,1.9-0.9c-0.7-0.4-1.4-0.8-1.9-1.4c-0.5-0.5-1-1.1-1.3-1.7c-0.3-0.6-0.6-1.2-0.8-1.8s-0.3-1.2-0.3-1.7v-0.3
			c0-1.1,0.2-2.2,0.6-3.2s1-1.9,1.8-2.7s1.8-1.4,3.1-1.9C715.2,209.4,716.7,209.2,718.4,209.2z M718.5,227c-0.7,0-1.3,0.1-2,0.3
			c-0.6,0.2-1.2,0.4-1.6,0.8c-0.5,0.4-0.9,0.8-1.1,1.4c-0.3,0.6-0.4,1.2-0.4,2v0.2c0,1.3,0.5,2.4,1.4,3.1c0.9,0.7,2.2,1.1,3.7,1.1
			s2.8-0.4,3.7-1.1c0.9-0.7,1.3-1.8,1.3-3.1v-0.2c0-0.8-0.1-1.4-0.4-2c-0.3-0.5-0.6-1-1.1-1.4c-0.4-0.4-1-0.6-1.6-0.8
			C719.8,227.1,719.2,227,718.5,227z M718.4,214c-1.2,0-2.2,0.3-3.1,1c-0.8,0.7-1.2,1.7-1.2,3v0.2c0,0.7,0.1,1.3,0.4,1.8
			c0.3,0.5,0.6,0.9,1,1.2s0.9,0.6,1.4,0.7c0.5,0.2,1,0.2,1.5,0.2s1.1-0.1,1.6-0.2c0.5-0.2,1-0.4,1.4-0.7s0.7-0.7,1-1.2
			c0.2-0.5,0.4-1.1,0.4-1.8V218c0-1.3-0.4-2.4-1.2-3C720.8,214.3,719.7,214,718.4,214z"/>
	</g>
	<g>
		<path style="fill:#2888BF;" d="M657.2,209.2c1.4,0,2.7,0.1,3.8,0.4c1.2,0.3,2.1,0.6,2.9,1c0.7,0.4,1.1,0.9,1.2,1.4
			c0.1,0.5,0.1,1.1-0.2,1.8s-0.7,1.1-1.2,1.4c-0.6,0.2-1.2,0.2-2-0.1c-1.5-0.6-3.2-0.9-4.9-0.9c-0.8,0-1.6,0.1-2.3,0.4
			c-0.7,0.3-1.4,0.8-2,1.4c-0.6,0.7-1.1,1.5-1.4,2.6c-0.4,1.1-0.6,2.4-0.8,4c0.7-0.9,1.8-1.6,3-2c1.3-0.5,2.6-0.7,3.9-0.7
			c1.5,0,2.8,0.2,4,0.7s2.2,1.1,3.1,2c0.8,0.9,1.5,1.9,1.9,3.2c0.4,1.2,0.7,2.6,0.7,4.1v0.6c0,1.4-0.3,2.8-0.8,4s-1.2,2.3-2.2,3.2
			c-0.9,0.9-2.1,1.6-3.5,2.1s-2.9,0.8-4.6,0.8c-2,0-3.7-0.3-5.1-0.9s-2.6-1.5-3.4-2.6c-0.9-1.1-1.5-2.5-2-4.2
			c-0.4-1.6-0.6-3.4-0.6-5.4V226c0-3.4,0.3-6.2,1-8.4c0.6-2.2,1.5-3.9,2.6-5.2c1.1-1.2,2.4-2.1,3.9-2.6
			C653.9,209.4,655.5,209.2,657.2,209.2z M656.1,224.8c-1,0-1.9,0.1-2.6,0.4s-1.3,0.6-1.7,1.1c-0.5,0.5-0.8,1-1,1.7s-0.3,1.3-0.3,2
			v0.4c0,1.7,0.5,3,1.4,3.9s2.3,1.4,4,1.4c1.9,0,3.3-0.5,4.3-1.4s1.4-2.3,1.4-4V230c0-1.8-0.4-3.1-1.3-4
			C659.4,225.2,658,224.8,656.1,224.8z"/>
	</g>
	<g>
		<g>
			<path style="fill:#121312;" d="M779.9,270.5c3.9,0,6.7,1.3,8.4,3.8s2.6,6.2,2.6,10.9v2.1c0,4.8-0.9,8.4-2.6,10.9
				c-1.7,2.5-4.5,3.8-8.4,3.8s-6.7-1.3-8.4-3.8s-2.6-6.2-2.6-10.9v-2.1c0-4.8,0.9-8.4,2.6-10.9C773.2,271.8,776,270.5,779.9,270.5z
				 M779.9,274.6c-1.3,0-2.3,0.2-3.2,0.6s-1.5,1.1-2.1,2c-0.5,0.9-0.9,2-1.1,3.4s-0.3,3-0.3,4.9v1.4c0,1.9,0.1,3.6,0.3,4.9
				s0.6,2.5,1.1,3.4s1.2,1.6,2.1,2c0.9,0.4,1.9,0.6,3.2,0.6s2.3-0.2,3.2-0.6s1.5-1.1,2.1-2c0.5-0.9,0.9-2,1.1-3.4
				c0.2-1.4,0.3-3,0.3-4.9v-1.4c0-1.9-0.1-3.6-0.3-4.9c-0.2-1.4-0.6-2.5-1.1-3.4s-1.2-1.6-2.1-2
				C782.2,274.8,781.2,274.6,779.9,274.6z"/>
		</g>
	</g>
	<g>
		<g>
			<path style="fill:#121312;" d="M727.2,271.6c0.2,0.4,0.3,0.8,0.3,1.3s-0.1,1-0.3,1.3c-0.2,0.4-0.6,0.5-1.2,0.5h-11.7l-0.5,9.5
				c0.7-0.5,1.6-1,2.6-1.4s2.2-0.6,3.6-0.6c1.5,0,2.8,0.2,4,0.7c1.1,0.5,2.1,1.2,2.9,2c0.8,0.8,1.4,1.8,1.8,3
				c0.4,1.1,0.6,2.4,0.6,3.7v0.5c0,1.2-0.2,2.4-0.6,3.6c-0.4,1.2-1,2.3-1.9,3.2s-2,1.7-3.4,2.3c-1.4,0.6-3,0.9-5,0.9
				s-3.7-0.2-5.2-0.7c-1.5-0.4-2.9-1.1-4.1-1.8c-0.5-0.3-0.8-0.8-0.9-1.3c-0.1-0.5,0-1,0.3-1.5c0.7-1.1,1.6-1.3,2.6-0.6
				c1,0.6,2.1,1.1,3.2,1.5c1.1,0.4,2.5,0.5,4,0.5c1.1,0,2.1-0.2,3-0.5c0.8-0.3,1.5-0.8,2-1.3c0.5-0.6,0.9-1.2,1.2-1.9
				c0.2-0.7,0.4-1.5,0.4-2.3v-0.3c0-2-0.5-3.5-1.6-4.5s-2.6-1.5-4.6-1.5c-1.1,0-2.1,0.2-3.1,0.6c-0.9,0.4-1.7,0.9-2.4,1.5
				c-0.4,0.3-0.7,0.5-1,0.6s-0.6,0.2-1,0.2c-0.5,0-1-0.1-1.3-0.4s-0.5-0.6-0.5-1.1l0.7-12.8c0-0.7,0.1-1.2,0.2-1.6
				c0.1-0.4,0.3-0.8,0.6-1s0.6-0.4,1-0.5s0.9-0.2,1.5-0.2H726C726.5,271,726.9,271.2,727.2,271.6z"/>
		</g>
	</g>
	<g>
		<g>
			<path style="fill:#121312;" d="M655.7,270.5c1.5,0,2.9,0.2,4.1,0.7c1.2,0.4,2.2,1,3,1.8s1.4,1.6,1.9,2.6c0.4,1,0.6,2,0.6,3.2v0.4
				c0,1.3-0.4,2.5-1.1,3.8c-0.8,1.2-1.9,2.2-3.4,3c1.6,0.5,2.9,1.3,3.9,2.6c1,1.3,1.5,2.8,1.5,4.5v0.5c0,1.2-0.2,2.4-0.7,3.4
				s-1.2,1.9-2,2.7c-0.9,0.7-2,1.3-3.2,1.8c-1.3,0.4-2.7,0.6-4.4,0.6s-3.1-0.2-4.5-0.6c-1.3-0.4-2.4-1-3.3-1.8
				c-0.9-0.7-1.6-1.6-2.1-2.7c-0.5-1-0.7-2.2-0.7-3.4V293c0-0.9,0.1-1.7,0.4-2.4s0.7-1.5,1.2-2.1s1.1-1.2,1.7-1.6s1.4-0.8,2.2-1
				c-1.5-0.7-2.6-1.7-3.4-2.9c-0.8-1.2-1.2-2.5-1.2-3.8v-0.4c0-1.1,0.2-2.2,0.6-3.2c0.4-1,1-1.9,1.8-2.6s1.8-1.3,3-1.8
				S654.1,270.5,655.7,270.5z M655.8,287.9c-0.8,0-1.6,0.1-2.3,0.3c-0.7,0.2-1.4,0.5-1.9,1c-0.6,0.4-1,1-1.3,1.6
				c-0.3,0.7-0.5,1.4-0.5,2.3v0.3c0,1.5,0.5,2.7,1.6,3.6s2.6,1.4,4.5,1.4s3.4-0.5,4.4-1.4c1.1-0.9,1.6-2.1,1.6-3.6v-0.3
				c0-0.9-0.2-1.6-0.5-2.3c-0.3-0.6-0.7-1.2-1.3-1.6c-0.5-0.4-1.2-0.8-1.9-1C657.4,288,656.6,287.9,655.8,287.9z M655.7,274.3
				c-1.6,0-2.8,0.4-3.8,1.2c-1,0.8-1.4,2-1.4,3.4v0.3c0,0.8,0.1,1.5,0.4,2c0.3,0.6,0.7,1.1,1.1,1.5c0.5,0.4,1,0.7,1.7,0.9
				c0.6,0.2,1.3,0.3,2,0.3c1.5,0,2.7-0.4,3.7-1.2c1-0.8,1.5-2,1.5-3.6V279c0-1.5-0.5-2.6-1.4-3.4
				C658.6,274.7,657.3,274.3,655.7,274.3z"/>
		</g>
	</g>
</g>
<g style="display:none;">
	<g style="display:inline;">
		<rect x="142" y="3.6" style="opacity:5.000000e-02;fill:#000100;enable-background:new    ;" width="62" height="125"/>
		<rect x="82" y="3.6" style="opacity:5.000000e-02;fill:#000100;enable-background:new    ;" width="61.3" height="61.4"/>
		<rect x="24.7" y="130" style="opacity:5.000000e-02;fill:#000100;enable-background:new    ;" width="180" height="63"/>
		<g>
			
				<line style="fill:none;stroke:#000100;stroke-width:1.5;stroke-linecap:round;stroke-linejoin:round;stroke-miterlimit:10;stroke-dasharray:3,3;" x1="204.1" y1="3.7" x2="204.1" y2="198.3"/>
			
				<line style="fill:none;stroke:#000100;stroke-width:1.5;stroke-linecap:round;stroke-linejoin:round;stroke-miterlimit:10;stroke-dasharray:3,3;" x1="143.5" y1="3.7" x2="143.5" y2="198.3"/>
			
				<line style="fill:none;stroke:#000100;stroke-width:1.5;stroke-linecap:round;stroke-linejoin:round;stroke-miterlimit:10;stroke-dasharray:3,3;" x1="82.9" y1="3.7" x2="82.9" y2="198.3"/>
			<path style="fill:none;stroke:#000100;stroke-width:2;stroke-linecap:round;stroke-linejoin:round;stroke-miterlimit:10;" d="
				M207.1,88.7"/>
		</g>
		<g>
			
				<line style="fill:none;stroke:#000100;stroke-width:2;stroke-linecap:round;stroke-linejoin:round;stroke-miterlimit:10;" x1="25.6" y1="129.4" x2="213.7" y2="129.4"/>
			<path style="fill:#121312;" d="M53.7,97.9l7.1-7.1c1-1,1-2.6,0-3.5s-2.6-1-3.5,0l-7.1,7.1l-7.1-7.1c-1-1-2.6-1-3.5,0
				s-1,2.6,0,3.5l7.1,7.1l-7.1,7.1c-1,1-1,2.6,0,3.5s2.6,1,3.5,0l7.1-7.1l7.1,7.1c1,1,2.6,1,3.5,0s1-2.6,0-3.5L53.7,97.9z"/>
		</g>
		<g>
			<path style="fill:#BC3D69;" d="M178.3,16.9c0.6,0.4,1,0.9,1.1,1.5c0.2,0.6,0,1.3-0.5,2l-11.2,16.2h8.9v-7.1
				c0-0.8,0.3-1.4,0.8-1.8s1.2-0.6,1.9-0.6s1.3,0.2,1.9,0.6c0.5,0.4,0.8,1,0.8,1.8v7.1h2.6c0.7,0,1.1,0.2,1.4,0.7
				c0.3,0.4,0.4,1,0.4,1.6s-0.1,1.1-0.4,1.5c-0.3,0.4-0.8,0.7-1.4,0.7H182v4.3c0,0.8-0.3,1.4-0.8,1.8c-0.5,0.4-1.2,0.6-1.9,0.6
				s-1.3-0.2-1.9-0.6c-0.5-0.4-0.8-1-0.8-1.8V41h-12c-1.2,0-2.1-0.2-2.6-0.6c-0.5-0.4-0.8-1.1-0.8-2c0-0.1,0-0.3,0-0.5
				s0.1-0.3,0.2-0.6c0.1-0.2,0.2-0.5,0.4-0.8s0.4-0.7,0.7-1.1l12.3-17.8c0.4-0.6,1-1,1.6-1.1C177.1,16.5,177.7,16.6,178.3,16.9z"/>
		</g>
		<g>
			<path style="fill:#BC3D69;" d="M115.3,16.3c1.7,0,3.3,0.2,4.6,0.6c1.3,0.4,2.4,1,3.2,1.7c0.8,0.7,1.5,1.5,1.9,2.5
				c0.4,0.9,0.6,1.9,0.6,3v0.2c0,0.8-0.1,1.5-0.3,2.3c-0.2,0.8-0.6,1.5-1,2.1s-1,1.2-1.6,1.7s-1.3,0.8-2.2,1.1
				c0.8,0.1,1.6,0.3,2.4,0.6c0.8,0.3,1.5,0.8,2.1,1.3c0.6,0.6,1.1,1.2,1.4,2.1s0.5,1.8,0.5,2.9v0.4c0,1.2-0.2,2.3-0.7,3.4
				s-1.2,2-2.1,2.8s-2.1,1.5-3.5,2s-3,0.7-4.9,0.7c-1.7,0-3.2-0.2-4.6-0.5c-1.4-0.4-2.7-0.9-4-1.7c-0.7-0.4-1-1-1.1-1.7
				s0-1.3,0.4-1.9c0.4-0.7,0.9-1.1,1.5-1.2s1.2,0,1.8,0.4c1,0.7,1.9,1.1,2.8,1.4s1.8,0.4,2.9,0.4s2.1-0.1,2.9-0.3s1.4-0.5,1.9-0.9
				s0.8-0.8,1-1.4c0.2-0.5,0.3-1.1,0.3-1.7v-0.3c0-1.5-0.5-2.5-1.5-3.2s-2.6-1.1-4.8-1.1h-2.3c-0.7,0-1.2-0.2-1.5-0.7
				s-0.5-1-0.5-1.7s0.2-1.2,0.5-1.7s0.8-0.7,1.5-0.7h1.8c1.9,0,3.3-0.4,4.2-1.1c0.9-0.7,1.4-1.8,1.4-3.3v-0.1c0-1.1-0.4-2-1.2-2.6
				c-0.8-0.6-2-1-3.7-1c-1,0-1.9,0.2-2.6,0.5s-1.5,0.8-2.2,1.5c-0.5,0.5-1.1,0.7-1.8,0.6c-0.6-0.1-1.1-0.4-1.5-0.9s-0.6-1.1-0.6-1.7
				s0.3-1.1,0.7-1.6c0.9-1,2-1.8,3.4-2.4C111.9,16.6,113.5,16.3,115.3,16.3z"/>
		</g>
		<g>
			<path style="fill:#BC3D69;" d="M180.4,80.1c0.7,0,1.1,0.2,1.5,0.7c0.3,0.5,0.5,1,0.5,1.6c0,0.7-0.2,1.2-0.5,1.7
				c-0.3,0.4-0.8,0.7-1.5,0.7h-10.9l-0.3,7.8c0.7-0.4,1.5-0.8,2.5-1.1c0.9-0.3,2-0.5,3.3-0.5c1.5,0,2.8,0.3,4,0.8
				c1.1,0.5,2.1,1.2,2.9,2.1c0.8,0.9,1.4,1.9,1.8,3c0.4,1.1,0.6,2.3,0.6,3.6v0.4c0,1.2-0.2,2.5-0.6,3.7c-0.4,1.2-1.1,2.3-2,3.3
				s-2,1.8-3.4,2.4s-3.1,0.9-5.1,0.9s-3.8-0.2-5.3-0.6s-2.8-1-4-1.7c-0.7-0.4-1-1-1.1-1.7s0-1.3,0.4-1.9c0.4-0.7,0.9-1.1,1.5-1.2
				s1.2,0,1.8,0.4c0.9,0.5,1.9,1,2.9,1.2c1,0.3,2.3,0.4,3.8,0.4c1.9,0,3.3-0.5,4.2-1.5s1.4-2.3,1.4-3.9v-0.3c0-1.7-0.5-2.9-1.4-3.8
				c-1-0.9-2.3-1.3-4-1.3c-1,0-1.9,0.2-2.8,0.5s-1.6,0.7-2.3,1.3c-0.4,0.3-0.8,0.6-1.1,0.7S166.5,98,166,98c-0.7,0-1.2-0.2-1.6-0.5
				c-0.4-0.3-0.6-0.8-0.6-1.4l0.7-12.4c0-0.7,0.1-1.4,0.2-1.8s0.3-0.9,0.6-1.1s0.6-0.5,1.1-0.6s1-0.2,1.7-0.2h12.3V80.1z"/>
		</g>
		<g>
			<path style="fill:#BC3D69;" d="M173,144.7c4,0,6.9,1.3,8.7,3.9s2.7,6.2,2.7,11v1.8c0,4.7-0.9,8.4-2.7,11s-4.7,3.9-8.7,3.9
				s-6.9-1.3-8.7-3.9s-2.7-6.2-2.7-11v-1.8c0-4.7,0.9-8.4,2.7-11S169,144.7,173,144.7z M173,149.9c-1.1,0-2.1,0.2-2.8,0.6
				c-0.8,0.4-1.4,1-1.8,1.8c-0.4,0.8-0.8,1.9-1,3.1c-0.2,1.3-0.3,2.8-0.3,4.6v1.1c0,1.8,0.1,3.3,0.3,4.6s0.5,2.3,1,3.1
				c0.4,0.8,1,1.4,1.8,1.8c0.8,0.4,1.7,0.6,2.8,0.6s2.1-0.2,2.8-0.6c0.8-0.4,1.4-1,1.8-1.8c0.4-0.8,0.8-1.9,1-3.1
				c0.2-1.3,0.3-2.8,0.3-4.6V160c0-1.8-0.1-3.3-0.3-4.6s-0.5-2.3-1-3.1c-0.4-0.8-1-1.4-1.8-1.8C175.1,150,174.1,149.9,173,149.9z"/>
		</g>
		<g>
			<path style="fill:#BC3D69;" d="M121.7,145.1c1.3,0,2.3,0.2,2.8,0.7c0.6,0.5,0.8,1.2,0.8,2.3c0,0.3,0,0.5,0,0.7s-0.1,0.5-0.2,0.7
				c-0.1,0.3-0.2,0.6-0.4,1c-0.2,0.4-0.4,1-0.7,1.7l-10,22.3c-0.3,0.8-0.9,1.2-1.5,1.4s-1.3,0-2-0.2c-0.6-0.3-1.1-0.7-1.4-1.3
				s-0.3-1.3,0.2-2.2l10.3-22.4h-14.7c-0.7,0-1.1-0.2-1.5-0.7c-0.3-0.5-0.5-1-0.5-1.6s0.2-1.2,0.5-1.6c0.3-0.5,0.8-0.7,1.5-0.7
				L121.7,145.1L121.7,145.1z"/>
		</g>
		<g>
			<path style="fill:#BC3D69;" d="M53.3,144.9c0.8,0,1.5,0.2,2.1,0.6c0.5,0.4,0.8,1,0.8,1.8v26.4c0,0.8-0.3,1.4-0.8,1.8
				c-0.5,0.4-1.2,0.6-1.9,0.6s-1.4-0.2-1.9-0.6c-0.5-0.4-0.8-1-0.8-1.8v-22.3l-5.5,3.2c-0.7,0.4-1.4,0.5-2,0.2
				c-0.6-0.2-1.1-0.7-1.5-1.3c-0.3-0.6-0.4-1.2-0.3-1.8c0.1-0.7,0.5-1.2,1.2-1.5l7.3-4c0.7-0.4,1.4-0.7,1.9-0.9
				C52.3,145,52.8,144.9,53.3,144.9z"/>
		</g>
		<g>
			<path style="fill:#121312;" d="M112.6,79.6c1.6,0,3,0.2,4.2,0.6s2.2,1,3,1.7s1.4,1.5,1.8,2.5c0.4,0.9,0.6,2,0.6,3v0.4
				c0,1.6-0.3,3.1-1,4.5s-1.8,2.8-3.2,4.3L108,107h14c0.5,0,0.9,0.2,1.1,0.5c0.2,0.4,0.4,0.8,0.4,1.3s-0.1,0.9-0.4,1.3
				c-0.2,0.4-0.6,0.5-1.1,0.5h-16.6c-1.1,0-1.9-0.2-2.4-0.6s-0.7-1-0.7-1.8c0-0.4,0.1-0.7,0.3-1.1c0.2-0.3,0.5-0.8,1-1.2l10.5-11.1
				c0.8-0.8,1.4-1.5,1.9-2.1s0.9-1.2,1.1-1.7c0.3-0.5,0.5-1.1,0.6-1.6s0.2-1.1,0.2-1.6v-0.2c0-1.3-0.4-2.3-1.3-3s-2.2-1.1-3.9-1.1
				c-1.4,0-2.6,0.3-3.6,0.9s-1.8,1.4-2.6,2.6c-0.3,0.4-0.7,0.7-1.2,0.8s-0.9,0-1.4-0.4c-0.5-0.3-0.8-0.7-0.9-1.2s0-1,0.3-1.5
				c0.9-1.4,2.1-2.6,3.7-3.6C108.5,80.1,110.4,79.6,112.6,79.6z"/>
		</g>
	</g>
	<g style="display:inline;">
		<g>
			<path style="fill:#FFFFFF;stroke:#241A16;stroke-width:2;stroke-linecap:round;stroke-linejoin:round;stroke-miterlimit:10;" d="
				M120.6,231.9c0,0,75.4-3.5,91.7,14.1s0.4,37.1-26.2,41.1c-26.5,4-95.9,4.3-119,2.7c-23-1.7-61.5-13.2-62.1-31.2
				c-1-28.7,68.4-28.9,99.8-26.9"/>
			<path style="fill:#FFFFFF;stroke:#241A16;stroke-width:2;stroke-linecap:round;stroke-linejoin:round;stroke-miterlimit:10;" d="
				M120.3,235.4c0,0-0.2-17.2-11.4-27.7c0,0,2,20.7-5.4,26.2"/>
		</g>
		<g>
			<g>
				<g>
					<path style="fill:#BC3D69;" d="M36.5,246.9c1.3,0,2.5,0.2,3.5,0.5s1.8,0.8,2.5,1.4s1.2,1.3,1.5,2c0.3,0.8,0.5,1.6,0.5,2.5v0.2
						c0,0.6-0.1,1.2-0.3,1.8s-0.4,1.1-0.8,1.7c-0.3,0.5-0.8,1-1.3,1.4s-1.2,0.7-1.9,1c0.7,0.1,1.4,0.3,2.1,0.6
						c0.7,0.3,1.2,0.7,1.7,1.1c0.5,0.5,0.9,1,1.1,1.7c0.3,0.7,0.4,1.4,0.4,2.3v0.3c0,1-0.2,1.9-0.5,2.8s-0.9,1.7-1.6,2.3
						c-0.7,0.7-1.7,1.2-2.8,1.6s-2.4,0.6-3.9,0.6c-2.8,0-5.2-0.7-7.2-2c-0.4-0.3-0.7-0.6-0.8-1.1c-0.1-0.4,0-0.8,0.3-1.2
						c0.3-0.4,0.6-0.7,1-0.8c0.4-0.1,0.8,0,1.2,0.2c0.9,0.6,1.7,1,2.6,1.3c0.8,0.3,1.8,0.4,2.8,0.4s1.8-0.1,2.5-0.3
						c0.7-0.2,1.3-0.5,1.7-0.9s0.7-0.8,0.9-1.3s0.3-1,0.3-1.6v-0.3c0-0.8-0.1-1.4-0.4-1.9s-0.7-0.9-1.2-1.2
						c-0.5-0.3-1.1-0.5-1.8-0.7c-0.7-0.1-1.4-0.2-2.2-0.2h-2c-0.4,0-0.8-0.2-1-0.5s-0.3-0.7-0.3-1.1s0.1-0.8,0.3-1.1
						c0.2-0.3,0.5-0.4,1-0.4h1.7c1.4,0,2.6-0.3,3.5-1s1.4-1.7,1.4-3.2v-0.1c0-1.1-0.4-1.9-1.1-2.6s-1.9-1-3.4-1
						c-1,0-1.8,0.2-2.5,0.5s-1.4,0.9-2,1.5c-0.3,0.3-0.7,0.5-1.1,0.4c-0.4,0-0.8-0.2-1-0.5c-0.3-0.3-0.4-0.7-0.4-1.1
						s0.2-0.7,0.4-1.1c0.7-0.8,1.6-1.5,2.7-2.1C33.7,247.1,35,246.9,36.5,246.9z"/>
					<path style="fill:#BC3D69;" d="M60.8,247.3c0.4,0.3,0.6,0.6,0.7,1c0.1,0.4,0,0.8-0.3,1.3l-9.9,14.3h8.5v-6.4
						c0-0.5,0.2-0.9,0.5-1.1s0.7-0.4,1.2-0.4s0.9,0.1,1.2,0.4c0.3,0.2,0.5,0.6,0.5,1.1v6.4h2.6c0.4,0,0.8,0.1,0.9,0.4
						c0.2,0.3,0.3,0.6,0.3,1s-0.1,0.7-0.3,1c-0.2,0.3-0.5,0.4-0.9,0.4h-2.6v4.1c0,0.5-0.2,0.9-0.5,1.1c-0.4,0.2-0.8,0.4-1.2,0.4
						s-0.8-0.1-1.2-0.4c-0.4-0.2-0.5-0.6-0.5-1.1v-4.1H49.4c-0.8,0-1.4-0.1-1.8-0.4c-0.4-0.3-0.5-0.7-0.5-1.3c0-0.2,0-0.5,0.1-0.7
						s0.4-0.7,0.8-1.3l10.6-15.2c0.3-0.4,0.6-0.6,1-0.7C60.1,247,60.4,247.1,60.8,247.3z"/>
					<path style="fill:#BC3D69;" d="M111.5,247.7c0.2,0.3,0.3,0.7,0.3,1.1c0,0.4-0.1,0.8-0.3,1.1c-0.2,0.3-0.5,0.4-0.9,0.4H101
						l-0.4,7.7c0.6-0.4,1.3-0.8,2.1-1.1c0.8-0.3,1.8-0.5,2.9-0.5c1.2,0,2.3,0.2,3.2,0.6c0.9,0.4,1.7,0.9,2.4,1.6
						c0.6,0.7,1.1,1.5,1.5,2.4c0.3,0.9,0.5,1.9,0.5,3v0.4c0,1-0.2,2-0.5,2.9c-0.3,1-0.8,1.8-1.5,2.6c-0.7,0.8-1.6,1.4-2.7,1.9
						s-2.5,0.7-4.1,0.7s-3-0.2-4.3-0.5c-1.2-0.4-2.4-0.9-3.3-1.5c-0.4-0.3-0.7-0.6-0.7-1c-0.1-0.4,0-0.8,0.3-1.2
						c0.6-0.9,1.3-1.1,2.1-0.5c0.8,0.5,1.7,0.9,2.6,1.2c0.9,0.3,2,0.4,3.2,0.4c0.9,0,1.7-0.1,2.4-0.4c0.7-0.3,1.2-0.6,1.7-1.1
						s0.7-1,0.9-1.6c0.2-0.6,0.3-1.2,0.3-1.9v-0.2c0-1.6-0.4-2.8-1.3-3.6c-0.9-0.8-2.1-1.2-3.7-1.2c-0.9,0-1.7,0.2-2.5,0.5
						c-0.7,0.3-1.4,0.7-2,1.2c-0.3,0.3-0.6,0.4-0.8,0.5c-0.2,0.1-0.5,0.1-0.8,0.1c-0.4,0-0.8-0.1-1.1-0.3c-0.3-0.2-0.4-0.5-0.4-0.9
						l0.6-10.4c0-0.5,0.1-1,0.2-1.3s0.3-0.6,0.5-0.8s0.5-0.3,0.8-0.4c0.3-0.1,0.7-0.1,1.3-0.1h10.1
						C111,247.2,111.3,247.4,111.5,247.7z"/>
					<path style="fill:#BC3D69;" d="M138.1,254.6c0.4,0,0.7,0.1,0.9,0.4c0.2,0.3,0.3,0.6,0.3,1s-0.1,0.7-0.3,1s-0.5,0.4-0.9,0.4H124
						c-0.4,0-0.7-0.1-0.9-0.4s-0.3-0.6-0.3-1s0.1-0.7,0.3-1s0.5-0.4,0.9-0.4H138.1z M138.1,262c0.4,0,0.7,0.1,0.9,0.4s0.3,0.6,0.3,1
						s-0.1,0.7-0.3,1s-0.5,0.4-0.9,0.4H124c-0.4,0-0.7-0.1-0.9-0.4c-0.2-0.3-0.3-0.6-0.3-1s0.1-0.7,0.3-1c0.2-0.3,0.5-0.4,0.9-0.4
						H138.1z"/>
					<path style="fill:#BC3D69;" d="M160,247.1c0.5,0,1,0.1,1.3,0.4c0.3,0.2,0.5,0.6,0.5,1.2V271c0,0.5-0.2,0.9-0.5,1.1
						c-0.4,0.2-0.8,0.4-1.2,0.4s-0.9-0.1-1.2-0.4c-0.3-0.2-0.5-0.6-0.5-1.1v-19.6l-5.3,3.2c-0.4,0.3-0.9,0.3-1.3,0.1
						s-0.7-0.4-0.9-0.8c-0.2-0.4-0.3-0.8-0.2-1.2s0.3-0.7,0.7-1l6.3-3.7c0.5-0.3,0.9-0.4,1.3-0.6C159.3,247.1,159.6,247.1,160,247.1
						z"/>
					<path style="fill:#BC3D69;" d="M185.5,247.7c0.4,0.3,0.6,0.8,0.6,1.4c0,0.2,0,0.3,0,0.5s-0.1,0.3-0.1,0.5
						c-0.1,0.2-0.2,0.4-0.3,0.7s-0.3,0.6-0.5,1.1l-8.8,19.5c-0.2,0.5-0.5,0.8-1,0.9c-0.4,0.1-0.8,0-1.2-0.2s-0.7-0.5-0.9-0.8
						s-0.2-0.8,0.1-1.3l9.1-19.7h-12.8c-0.4,0-0.7-0.2-0.9-0.5s-0.3-0.7-0.3-1s0.1-0.7,0.3-1.1c0.2-0.3,0.5-0.5,0.9-0.5h14
						C184.5,247.2,185.1,247.4,185.5,247.7z"/>
					<path style="fill:#BC3D69;" d="M196.9,246.9c3.2,0,5.4,1,6.8,3.1c1.4,2.1,2.1,5,2.1,8.9v1.7c0,3.9-0.7,6.8-2.1,8.9
						c-1.4,2.1-3.7,3.1-6.8,3.1s-5.4-1-6.8-3.1c-1.4-2.1-2.1-5-2.1-8.9v-1.7c0-3.9,0.7-6.8,2.1-8.9
						C191.4,247.9,193.7,246.9,196.9,246.9z M196.9,250.1c-1,0-1.9,0.2-2.6,0.5c-0.7,0.3-1.3,0.9-1.7,1.6c-0.4,0.7-0.7,1.7-0.9,2.8
						c-0.2,1.1-0.3,2.5-0.3,4v1.2c0,1.6,0.1,2.9,0.3,4s0.5,2,0.9,2.8c0.4,0.7,1,1.3,1.7,1.6c0.7,0.4,1.6,0.5,2.6,0.5
						s1.9-0.2,2.6-0.5c0.7-0.3,1.3-0.9,1.7-1.6s0.7-1.7,0.9-2.8c0.2-1.1,0.3-2.5,0.3-4V259c0-1.6-0.1-2.9-0.3-4s-0.5-2-0.9-2.8
						c-0.4-0.7-1-1.3-1.7-1.6C198.7,250.3,197.9,250.1,196.9,250.1z"/>
				</g>
			</g>
			<path style="fill:#BC3D69;" d="M83,259.2l5.1-5.1c0.7-0.7,0.7-1.9,0-2.5c-0.7-0.7-1.9-0.7-2.5,0l-5.1,5.1l-5.1-5.1
				c-0.7-0.7-1.9-0.7-2.5,0c-0.7,0.7-0.7,1.9,0,2.5l5.1,5.1l-5.1,5.1c-0.7,0.7-0.7,1.9,0,2.5c0.7,0.7,1.9,0.7,2.5,0l5.1-5.1l5.1,5.1
				c0.7,0.7,1.9,0.7,2.5,0s0.7-1.9,0-2.5L83,259.2z"/>
		</g>
	</g>
</g>
<g style="display:none;">
	<g style="display:inline;">
		<g>
			<path style="fill:#FFFFFF;stroke:#241A16;stroke-width:2;stroke-linecap:round;stroke-linejoin:round;stroke-miterlimit:10;" d="
				M420.5,288.2c0,0,80.8-4.1,98.7,15.3s0.4,41-28.7,45.4c-29.1,4.4-105.2,4.8-130.6,2.9c-25.4-1.8-67.5-14.6-68.2-34.4
				c-1.1-31.7,77.4-32.3,111.9-30.1"/>
			<path style="fill:#FFFFFF;stroke:#241A16;stroke-width:2;stroke-linecap:round;stroke-linejoin:round;stroke-miterlimit:10;" d="
				M420.4,291.2c0,0-0.3-17.1-12.7-27.5c0,0,2.2,20.5-6.1,26"/>
		</g>
		<g>
			<g>
				<g>
					<path style="fill:#2888BF;" d="M321.6,305.9c1.3,0,2.5,0.2,3.5,0.5s1.8,0.8,2.5,1.4s1.2,1.3,1.5,2c0.3,0.8,0.5,1.6,0.5,2.5v0.2
						c0,0.6-0.1,1.2-0.3,1.8c-0.2,0.6-0.4,1.1-0.8,1.7c-0.3,0.5-0.8,1-1.3,1.4s-1.2,0.7-1.9,1c0.7,0.1,1.4,0.3,2.1,0.6
						c0.7,0.3,1.2,0.7,1.7,1.1c0.5,0.5,0.9,1,1.1,1.7c0.3,0.7,0.4,1.4,0.4,2.3v0.3c0,1-0.2,1.9-0.5,2.8s-0.9,1.7-1.6,2.3
						c-0.7,0.7-1.7,1.2-2.8,1.6s-2.4,0.6-3.9,0.6c-2.8,0-5.2-0.7-7.2-2c-0.4-0.3-0.7-0.6-0.8-1.1c-0.1-0.4,0-0.8,0.3-1.2
						c0.3-0.4,0.6-0.7,1-0.8c0.4-0.1,0.8,0,1.2,0.2c0.9,0.6,1.7,1,2.6,1.3c0.8,0.3,1.8,0.4,2.8,0.4s1.8-0.1,2.5-0.3
						c0.7-0.2,1.3-0.5,1.7-0.9c0.4-0.4,0.7-0.8,0.9-1.3c0.2-0.5,0.3-1,0.3-1.6v-0.3c0-0.8-0.1-1.4-0.4-1.9s-0.7-0.9-1.2-1.2
						c-0.5-0.3-1.1-0.5-1.8-0.7c-0.7-0.1-1.4-0.2-2.2-0.2h-2c-0.4,0-0.8-0.2-1-0.5s-0.3-0.7-0.3-1.1s0.1-0.8,0.3-1.1
						c0.2-0.3,0.5-0.4,1-0.4h1.7c1.4,0,2.6-0.3,3.5-1s1.4-1.7,1.4-3.2v-0.1c0-1.1-0.4-1.9-1.1-2.6s-1.9-1-3.4-1
						c-1,0-1.8,0.2-2.5,0.5s-1.4,0.9-2,1.5c-0.3,0.3-0.7,0.5-1.1,0.4c-0.4,0-0.8-0.2-1-0.5c-0.3-0.3-0.4-0.7-0.4-1.1
						s0.2-0.7,0.4-1.1c0.7-0.8,1.6-1.5,2.7-2.1C318.8,306.1,320.1,305.9,321.6,305.9z"/>
					<path style="fill:#2888BF;" d="M345.9,306.3c0.4,0.3,0.6,0.6,0.7,1s0,0.8-0.3,1.3l-9.9,14.3h8.5v-6.4c0-0.5,0.2-0.9,0.5-1.1
						s0.7-0.4,1.2-0.4s0.9,0.1,1.2,0.4c0.3,0.2,0.5,0.6,0.5,1.1v6.4h2.6c0.4,0,0.8,0.1,0.9,0.4c0.2,0.3,0.3,0.6,0.3,1
						s-0.1,0.7-0.3,1c-0.2,0.3-0.5,0.4-0.9,0.4h-2.6v4.1c0,0.5-0.2,0.9-0.5,1.1c-0.4,0.2-0.8,0.4-1.2,0.4c-0.4,0-0.8-0.1-1.2-0.4
						c-0.4-0.2-0.5-0.6-0.5-1.1v-4.1h-10.4c-0.8,0-1.4-0.1-1.8-0.4s-0.5-0.7-0.5-1.3c0-0.2,0-0.5,0.1-0.7s0.4-0.7,0.8-1.3l10.6-15.2
						c0.3-0.4,0.6-0.6,1-0.7C345.1,306,345.5,306.1,345.9,306.3z"/>
					<path style="fill:#2888BF;" d="M389.2,305.9c1.3,0,2.5,0.2,3.4,0.5c1,0.3,1.8,0.8,2.4,1.3c0.7,0.6,1.1,1.2,1.5,2
						c0.3,0.8,0.5,1.6,0.5,2.4v0.4c0,1.3-0.3,2.6-0.8,3.7c-0.6,1.1-1.4,2.3-2.6,3.5l-8,8.5H397c0.4,0,0.7,0.1,0.9,0.4
						c0.2,0.3,0.3,0.6,0.3,1s-0.1,0.7-0.3,1c-0.2,0.3-0.5,0.4-0.9,0.4h-13.5c-0.9,0-1.6-0.2-2-0.5s-0.6-0.8-0.6-1.4
						c0-0.3,0.1-0.6,0.2-0.9c0.2-0.3,0.4-0.6,0.8-1l8.5-9c0.6-0.7,1.1-1.2,1.5-1.7s0.7-1,0.9-1.4s0.4-0.9,0.5-1.3s0.1-0.9,0.1-1.3
						v-0.2c0-1-0.4-1.8-1.1-2.4s-1.8-0.9-3.2-0.9c-1.2,0-2.1,0.2-2.9,0.7s-1.5,1.2-2.1,2.1c-0.3,0.3-0.6,0.6-1,0.6
						c-0.4,0.1-0.8,0-1.1-0.3s-0.6-0.6-0.7-1s0-0.8,0.2-1.2c0.7-1.2,1.7-2.1,3-2.9C385.9,306.2,387.4,305.9,389.2,305.9z"/>
					<path style="fill:#2888BF;" d="M409,305.9c3.2,0,5.4,1,6.8,3.1s2.1,5,2.1,8.9v1.7c0,3.9-0.7,6.8-2.1,8.9s-3.7,3.1-6.8,3.1
						c-3.1,0-5.4-1-6.8-3.1s-2.1-5-2.1-8.9v-1.7c0-3.9,0.7-6.8,2.1-8.9S405.9,305.9,409,305.9z M409,309.1c-1,0-1.9,0.2-2.6,0.5
						s-1.3,0.9-1.7,1.6c-0.4,0.7-0.7,1.7-0.9,2.8c-0.2,1.1-0.3,2.5-0.3,4v1.2c0,1.6,0.1,2.9,0.3,4c0.2,1.1,0.5,2,0.9,2.8
						c0.4,0.7,1,1.3,1.7,1.6c0.7,0.4,1.6,0.5,2.6,0.5s1.9-0.2,2.6-0.5s1.3-0.9,1.7-1.6c0.4-0.7,0.7-1.7,0.9-2.8
						c0.2-1.1,0.3-2.5,0.3-4V318c0-1.6-0.1-2.9-0.3-4c-0.2-1.1-0.5-2-0.9-2.8c-0.4-0.7-1-1.3-1.7-1.6S410,309.1,409,309.1z"/>
					<path style="fill:#2888BF;" d="M442.7,313.6c0.4,0,0.7,0.1,0.9,0.4c0.2,0.3,0.3,0.6,0.3,1s-0.1,0.7-0.3,1
						c-0.2,0.3-0.5,0.4-0.9,0.4h-14.1c-0.4,0-0.7-0.1-0.9-0.4s-0.3-0.6-0.3-1s0.1-0.7,0.3-1s0.5-0.4,0.9-0.4H442.7z M442.7,321
						c0.4,0,0.7,0.1,0.9,0.4c0.2,0.3,0.3,0.6,0.3,1s-0.1,0.7-0.3,1c-0.2,0.3-0.5,0.4-0.9,0.4h-14.1c-0.4,0-0.7-0.1-0.9-0.4
						c-0.2-0.3-0.3-0.6-0.3-1s0.1-0.7,0.3-1c0.2-0.3,0.5-0.4,0.9-0.4H442.7z"/>
					<path style="fill:#2888BF;" d="M463.6,305.9c1.1,0,2.2,0.1,3.2,0.4c1,0.2,1.8,0.5,2.4,0.9c0.4,0.3,0.6,0.6,0.8,0.9
						c0.1,0.4,0.1,0.7-0.1,1.1s-0.5,0.7-0.8,0.8c-0.4,0.1-0.8,0.1-1.2-0.1c-0.6-0.3-1.3-0.5-2-0.7s-1.5-0.2-2.3-0.2
						c-3.7,0-5.8,2.9-6.1,8.7c0.6-0.9,1.4-1.6,2.6-2.1s2.3-0.8,3.5-0.8s2.3,0.2,3.3,0.6s1.8,0.9,2.5,1.6s1.2,1.5,1.6,2.5
						s0.5,2.1,0.5,3.3v0.6c0,1.2-0.2,2.3-0.6,3.3s-1,1.8-1.8,2.6c-0.8,0.7-1.7,1.3-2.7,1.7c-1.1,0.4-2.2,0.6-3.5,0.6
						c-2.9,0-5.1-0.9-6.5-2.7c-1.5-1.8-2.2-4.4-2.2-7.9v-1c0-2.7,0.2-5,0.7-6.8s1.2-3.2,2-4.3s1.9-1.8,3.1-2.3
						C460.9,306.1,462.2,305.9,463.6,305.9z M462.7,317.9c-0.9,0-1.6,0.1-2.3,0.4c-0.7,0.3-1.2,0.6-1.6,1s-0.8,1-1,1.6
						s-0.3,1.2-0.3,1.9v0.3c0,1.6,0.5,2.9,1.4,3.8s2.2,1.4,3.7,1.4c1.6,0,2.9-0.4,3.8-1.3s1.4-2.1,1.4-3.8V323
						C467.8,319.6,466.1,317.9,462.7,317.9z"/>
					<path style="fill:#2888BF;" d="M481.9,305.9c1.2,0,2.3,0.2,3.3,0.5c1,0.4,1.8,0.8,2.5,1.5c0.7,0.6,1.2,1.3,1.5,2.1
						c0.3,0.8,0.5,1.7,0.5,2.6v0.3c0,1-0.3,2.1-0.9,3.1s-1.5,1.8-2.8,2.4c1.3,0.4,2.3,1.1,3.2,2.1s1.3,2.3,1.3,3.7v0.4
						c0,1-0.2,1.9-0.6,2.8s-0.9,1.6-1.7,2.2c-0.7,0.6-1.6,1.1-2.6,1.4c-1,0.4-2.2,0.5-3.6,0.5s-2.6-0.2-3.6-0.5
						c-1.1-0.3-2-0.8-2.7-1.4s-1.3-1.3-1.7-2.2c-0.4-0.9-0.6-1.8-0.6-2.8v-0.4c0-0.7,0.1-1.4,0.3-2s0.5-1.2,0.9-1.7s0.9-1,1.4-1.3
						c0.5-0.4,1.1-0.6,1.8-0.8c-1.2-0.6-2.1-1.4-2.8-2.4s-1-2-1-3.1v-0.3c0-0.9,0.2-1.8,0.5-2.6c0.3-0.8,0.8-1.5,1.5-2.1
						s1.5-1.1,2.4-1.5C479.5,306,480.6,305.9,481.9,305.9z M481.9,320c-0.7,0-1.3,0.1-1.9,0.3c-0.6,0.2-1.1,0.4-1.6,0.8
						c-0.5,0.3-0.8,0.8-1.1,1.3c-0.3,0.5-0.4,1.2-0.4,1.9v0.2c0,1.2,0.4,2.2,1.3,2.9c0.9,0.7,2.1,1.1,3.6,1.1s2.7-0.4,3.6-1.1
						s1.3-1.7,1.3-2.9v-0.2c0-0.7-0.1-1.3-0.4-1.8s-0.6-1-1-1.3c-0.4-0.4-0.9-0.6-1.5-0.8C483.3,320.1,482.6,320,481.9,320z
						 M481.9,308.9c-1.3,0-2.3,0.3-3.1,1c-0.8,0.7-1.2,1.6-1.2,2.8v0.2c0,0.6,0.1,1.2,0.3,1.7c0.2,0.5,0.5,0.9,0.9,1.2
						c0.4,0.3,0.8,0.6,1.4,0.8c0.5,0.2,1.1,0.3,1.7,0.3c1.2,0,2.2-0.3,3-1s1.2-1.6,1.2-2.9v-0.2c0-1.2-0.4-2.1-1.2-2.8
						C484.3,309.3,483.2,308.9,481.9,308.9z"/>
					<path style="fill:#2888BF;" d="M501.5,305.9c3.2,0,5.4,1,6.8,3.1s2.1,5,2.1,8.9v1.7c0,3.9-0.7,6.8-2.1,8.9s-3.7,3.1-6.8,3.1
						c-3.1,0-5.4-1-6.8-3.1s-2.1-5-2.1-8.9v-1.7c0-3.9,0.7-6.8,2.1-8.9S498.4,305.9,501.5,305.9z M501.5,309.1c-1,0-1.9,0.2-2.6,0.5
						s-1.3,0.9-1.7,1.6c-0.4,0.7-0.7,1.7-0.9,2.8c-0.2,1.1-0.3,2.5-0.3,4v1.2c0,1.6,0.1,2.9,0.3,4c0.2,1.1,0.5,2,0.9,2.8
						c0.4,0.7,1,1.3,1.7,1.6c0.7,0.4,1.6,0.5,2.6,0.5s1.9-0.2,2.6-0.5s1.3-0.9,1.7-1.6c0.4-0.7,0.7-1.7,0.9-2.8
						c0.2-1.1,0.3-2.5,0.3-4V318c0-1.6-0.1-2.9-0.3-4c-0.2-1.1-0.5-2-0.9-2.8c-0.4-0.7-1-1.3-1.7-1.6S502.5,309.1,501.5,309.1z"/>
				</g>
			</g>
			<path style="fill:#2888BF;" d="M368.9,319l5.1-5.1c0.7-0.7,0.7-1.9,0-2.5c-0.7-0.7-1.9-0.7-2.5,0l-5.1,5.1l-5.1-5.1
				c-0.7-0.7-1.9-0.7-2.5,0c-0.7,0.7-0.7,1.9,0,2.5l5.1,5.1l-5.1,5.1c-0.7,0.7-0.7,1.9,0,2.5c0.7,0.7,1.9,0.7,2.5,0l5.1-5.1l5.1,5.1
				c0.7,0.7,1.9,0.7,2.5,0s0.7-1.9,0-2.5L368.9,319z"/>
		</g>
	</g>
	
		<rect x="376.9" y="4.2" style="display:inline;opacity:5.000000e-02;fill:#000100;enable-background:new    ;" width="123" height="61"/>
	
		<rect x="376.9" y="65.2" style="display:inline;opacity:5.000000e-02;fill:#000100;enable-background:new    ;" width="61" height="63"/>
	<g style="display:inline;">
		<rect x="315.9" y="197.2" style="opacity:5.000000e-02;fill:#000100;enable-background:new    ;" width="183" height="57"/>
		<g>
			
				<line style="fill:none;stroke:#000100;stroke-width:1.5;stroke-linecap:round;stroke-linejoin:round;stroke-miterlimit:10;stroke-dasharray:3,3;" x1="498.7" y1="3.7" x2="498.7" y2="250.3"/>
			
				<line style="fill:none;stroke:#000100;stroke-width:1.5;stroke-linecap:round;stroke-linejoin:round;stroke-miterlimit:10;stroke-dasharray:3,3;" x1="438.1" y1="3.7" x2="438.1" y2="250.3"/>
			
				<line style="fill:none;stroke:#000100;stroke-width:1.5;stroke-linecap:round;stroke-linejoin:round;stroke-miterlimit:10;stroke-dasharray:3,3;" x1="377.5" y1="3.7" x2="377.5" y2="250.3"/>
			<path style="fill:none;stroke:#000100;stroke-width:2;stroke-linecap:round;stroke-linejoin:round;stroke-miterlimit:10;" d="
				M501.6,111.4"/>
		</g>
		<g>
			
				<line style="fill:none;stroke:#000100;stroke-width:2;stroke-linecap:round;stroke-linejoin:round;stroke-miterlimit:10;" x1="320.1" y1="129.4" x2="508.2" y2="129.4"/>
			<path style="fill:#121312;" d="M348.2,97.9l7.1-7.1c1-1,1-2.6,0-3.5s-2.6-1-3.5,0l-7.1,7.1l-7.1-7.1c-1-1-2.6-1-3.5,0
				s-1,2.6,0,3.5l7.1,7.1l-7.1,7.1c-1,1-1,2.6,0,3.5s2.6,1,3.5,0l7.1-7.1l7.1,7.1c1,1,2.6,1,3.5,0s1-2.6,0-3.5L348.2,97.9z"/>
		</g>
		<g>
			<path style="fill:#2888BF;" d="M474.1,16.9c0.6,0.4,1,0.9,1.1,1.5c0.2,0.6,0,1.3-0.5,2l-11.2,16.2h8.9v-7.1
				c0-0.8,0.3-1.4,0.8-1.8s1.2-0.6,1.9-0.6s1.3,0.2,1.9,0.6c0.5,0.4,0.8,1,0.8,1.8v7.1h2.6c0.7,0,1.1,0.2,1.4,0.7
				c0.3,0.4,0.4,1,0.4,1.6s-0.1,1.1-0.4,1.5s-0.8,0.7-1.4,0.7h-2.6v4.3c0,0.8-0.3,1.4-0.8,1.8c-0.5,0.4-1.2,0.6-1.9,0.6
				s-1.3-0.2-1.9-0.6c-0.5-0.4-0.8-1-0.8-1.8V41h-12c-1.2,0-2.1-0.2-2.6-0.6c-0.5-0.4-0.8-1.1-0.8-2c0-0.1,0-0.3,0-0.5
				s0.1-0.3,0.2-0.6c0.1-0.2,0.2-0.5,0.4-0.8s0.4-0.7,0.7-1.1l12.3-17.8c0.4-0.6,1-1,1.6-1.1C472.9,16.5,473.5,16.6,474.1,16.9z"/>
		</g>
		<g>
			<path style="fill:#2888BF;" d="M407.6,16.3c1.7,0,3.3,0.2,4.6,0.6c1.3,0.4,2.4,1,3.2,1.7c0.8,0.7,1.5,1.5,1.9,2.5
				c0.4,0.9,0.6,1.9,0.6,3v0.2c0,0.8-0.1,1.5-0.3,2.3c-0.2,0.8-0.6,1.5-1,2.1s-1,1.2-1.6,1.7s-1.3,0.8-2.2,1.1
				c0.8,0.1,1.6,0.3,2.4,0.6c0.8,0.3,1.5,0.8,2.1,1.3c0.6,0.6,1.1,1.2,1.4,2.1s0.5,1.8,0.5,2.9v0.4c0,1.2-0.2,2.3-0.7,3.4
				s-1.2,2-2.1,2.8s-2.1,1.5-3.5,2s-3,0.7-4.9,0.7c-1.7,0-3.2-0.2-4.6-0.5c-1.4-0.4-2.7-0.9-4-1.7c-0.7-0.4-1-1-1.1-1.7
				s0-1.3,0.4-1.9c0.4-0.7,0.9-1.1,1.5-1.2s1.2,0,1.8,0.4c1,0.7,1.9,1.1,2.8,1.4s1.8,0.4,2.9,0.4s2.1-0.1,2.9-0.3s1.4-0.5,1.9-0.9
				s0.8-0.8,1-1.4c0.2-0.5,0.3-1.1,0.3-1.7v-0.3c0-1.5-0.5-2.5-1.5-3.2s-2.6-1.1-4.8-1.1H405c-0.7,0-1.2-0.2-1.5-0.7s-0.5-1-0.5-1.7
				s0.2-1.2,0.5-1.7s0.8-0.7,1.5-0.7h1.8c1.9,0,3.3-0.4,4.2-1.1c0.9-0.7,1.4-1.8,1.4-3.3v-0.1c0-1.1-0.4-2-1.2-2.6
				c-0.8-0.6-2-1-3.7-1c-1,0-1.9,0.2-2.6,0.5s-1.5,0.8-2.2,1.5c-0.5,0.5-1.1,0.7-1.8,0.6c-0.6-0.1-1.1-0.4-1.5-0.9s-0.6-1.1-0.6-1.7
				s0.3-1.1,0.7-1.6c0.9-1,2-1.8,3.4-2.4C404.2,16.6,405.8,16.3,407.6,16.3z"/>
		</g>
		<g>
			<path style="fill:#2888BF;" d="M406.2,79.5c1.7,0,3.3,0.2,4.5,0.6c1.3,0.4,2.3,1,3.1,1.7c0.8,0.7,1.4,1.6,1.8,2.5
				c0.4,1,0.6,2,0.6,3v0.5c0,1.6-0.4,3.2-1.1,4.7c-0.8,1.5-1.9,3-3.3,4.5l-9.1,9h13c0.7,0,1.1,0.2,1.5,0.7c0.3,0.4,0.5,1,0.5,1.6
				s-0.2,1.2-0.5,1.6s-0.8,0.7-1.5,0.7h-16.4c-1.4,0-2.4-0.2-3-0.7s-0.9-1.2-0.9-2.2c0-0.5,0.1-0.9,0.4-1.3c0.2-0.4,0.6-0.8,1.1-1.3
				l10-10.1c0.8-0.8,1.4-1.5,1.9-2.1s0.9-1.2,1.2-1.7c0.3-0.5,0.5-1.1,0.6-1.6s0.2-1,0.2-1.6v-0.2c0-0.9-0.4-1.7-1.1-2.3
				c-0.7-0.6-1.8-0.9-3.3-0.9c-1.3,0-2.4,0.2-3.2,0.7c-0.9,0.5-1.7,1.2-2.4,2.2c-0.4,0.5-0.9,0.9-1.5,0.9c-0.6,0.1-1.2-0.1-1.8-0.5
				c-0.6-0.4-0.9-0.9-1.1-1.5s0-1.2,0.4-1.9c0.9-1.4,2.2-2.6,3.8-3.5S404,79.5,406.2,79.5z"/>
		</g>
		<g>
			<path style="fill:#2888BF;" d="M471.3,209.2c4,0,6.9,1.3,8.7,3.9s2.7,6.2,2.7,11v1.8c0,4.7-0.9,8.4-2.7,11s-4.7,3.9-8.7,3.9
				s-6.9-1.3-8.7-3.9s-2.7-6.2-2.7-11V224c0-4.7,0.9-8.4,2.7-11S467.4,209.2,471.3,209.2z M471.3,214.4c-1.1,0-2.1,0.2-2.8,0.6
				c-0.8,0.4-1.4,1-1.8,1.8s-0.8,1.9-1,3.1c-0.2,1.3-0.3,2.8-0.3,4.6v1.1c0,1.8,0.1,3.3,0.3,4.6c0.2,1.3,0.5,2.3,1,3.1
				c0.4,0.8,1,1.4,1.8,1.8c0.8,0.4,1.7,0.6,2.8,0.6s2.1-0.2,2.8-0.6c0.8-0.4,1.4-1,1.8-1.8s0.8-1.9,1-3.1c0.2-1.3,0.3-2.8,0.3-4.6
				v-1.1c0-1.8-0.1-3.3-0.3-4.6c-0.2-1.3-0.5-2.3-1-3.1c-0.4-0.8-1-1.4-1.8-1.8C473.4,214.6,472.5,214.4,471.3,214.4z"/>
		</g>
		<g>
			<path style="fill:#2888BF;" d="M409.6,209.2c1.7,0,3.1,0.2,4.4,0.7c1.2,0.5,2.3,1.1,3.1,1.9c0.8,0.8,1.5,1.7,1.9,2.7
				s0.6,2.1,0.6,3.2v0.3c0,0.5-0.1,1.1-0.2,1.6c-0.2,0.6-0.4,1.1-0.8,1.7c-0.3,0.6-0.8,1.1-1.3,1.7c-0.5,0.5-1.2,1-1.9,1.5
				c0.7,0.2,1.3,0.5,1.9,1c0.6,0.4,1.2,1,1.6,1.6c0.5,0.6,0.8,1.3,1.1,2c0.3,0.8,0.4,1.6,0.4,2.4v0.5c0,1.2-0.2,2.4-0.7,3.4
				c-0.5,1.1-1.1,2-2,2.8s-2,1.4-3.3,1.8c-1.3,0.4-2.8,0.7-4.6,0.7c-1.8,0-3.3-0.2-4.7-0.7c-1.4-0.4-2.5-1.1-3.4-1.8
				c-0.9-0.8-1.6-1.7-2.1-2.8s-0.7-2.2-0.7-3.4v-0.5c0-0.9,0.1-1.7,0.4-2.4c0.3-0.8,0.7-1.4,1.1-2.1c0.5-0.6,1-1.1,1.6-1.6
				c0.6-0.4,1.2-0.7,1.9-0.9c-0.7-0.4-1.4-0.8-1.9-1.4c-0.5-0.5-1-1.1-1.3-1.7c-0.3-0.6-0.6-1.2-0.8-1.8c-0.2-0.6-0.3-1.2-0.3-1.7
				v-0.3c0-1.1,0.2-2.2,0.6-3.2s1-1.9,1.8-2.7s1.8-1.4,3.1-1.9C406.5,209.4,407.9,209.2,409.6,209.2z M409.7,227
				c-0.7,0-1.3,0.1-2,0.3c-0.6,0.2-1.2,0.4-1.6,0.8c-0.5,0.4-0.9,0.8-1.1,1.4c-0.3,0.6-0.4,1.2-0.4,2v0.2c0,1.3,0.5,2.4,1.4,3.1
				c0.9,0.7,2.2,1.1,3.7,1.1s2.8-0.4,3.7-1.1c0.9-0.7,1.3-1.8,1.3-3.1v-0.2c0-0.8-0.1-1.4-0.4-2c-0.3-0.5-0.6-1-1.1-1.4
				c-0.4-0.4-1-0.6-1.6-0.8C411.1,227.1,410.4,227,409.7,227z M409.7,214c-1.2,0-2.2,0.3-3.1,1c-0.8,0.7-1.2,1.7-1.2,3v0.2
				c0,0.7,0.1,1.3,0.4,1.8s0.6,0.9,1,1.2s0.9,0.6,1.4,0.7c0.5,0.2,1,0.2,1.5,0.2s1.1-0.1,1.6-0.2c0.5-0.2,1-0.4,1.4-0.7
				s0.7-0.7,1-1.2c0.2-0.5,0.4-1.1,0.4-1.8V218c0-1.3-0.4-2.4-1.2-3C412,214.3,411,214,409.7,214z"/>
		</g>
		<g>
			<path style="fill:#2888BF;" d="M346.8,209.2c1.4,0,2.7,0.1,3.8,0.4c1.2,0.3,2.1,0.6,2.9,1c0.7,0.4,1.1,0.9,1.2,1.4
				s0.1,1.1-0.2,1.8c-0.3,0.7-0.7,1.1-1.2,1.4c-0.6,0.2-1.2,0.2-2-0.1c-1.5-0.6-3.2-0.9-4.9-0.9c-0.8,0-1.6,0.1-2.3,0.4
				c-0.7,0.3-1.4,0.8-2,1.4c-0.6,0.7-1.1,1.5-1.4,2.6c-0.4,1.1-0.6,2.4-0.8,4c0.7-0.9,1.8-1.6,3-2c1.3-0.5,2.6-0.7,3.9-0.7
				c1.5,0,2.8,0.2,4,0.7s2.2,1.1,3.1,2c0.8,0.9,1.5,1.9,1.9,3.2c0.4,1.2,0.7,2.6,0.7,4.1v0.6c0,1.4-0.3,2.8-0.8,4s-1.2,2.3-2.2,3.2
				c-0.9,0.9-2.1,1.6-3.5,2.1s-2.9,0.8-4.6,0.8c-2,0-3.7-0.3-5.1-0.9s-2.6-1.5-3.4-2.6c-0.9-1.1-1.5-2.5-2-4.2
				c-0.4-1.6-0.6-3.4-0.6-5.4V226c0-3.4,0.3-6.2,1-8.4c0.6-2.2,1.5-3.9,2.6-5.2c1.1-1.2,2.4-2.1,3.9-2.6
				C343.6,209.4,345.1,209.2,346.8,209.2z M345.7,224.8c-1,0-1.9,0.1-2.6,0.4s-1.3,0.6-1.7,1.1c-0.5,0.5-0.8,1-1,1.7s-0.3,1.3-0.3,2
				v0.4c0,1.7,0.5,3,1.4,3.9s2.3,1.4,4,1.4c1.9,0,3.3-0.5,4.3-1.4s1.4-2.3,1.4-4V230c0-1.8-0.4-3.1-1.3-4
				C349,225.2,347.6,224.8,345.7,224.8z"/>
		</g>
		<g>
			<g>
				<path style="fill:#121312;" d="M417.6,149c0.5,0.4,0.7,1,0.7,1.8c0,0.2,0,0.4,0,0.6c0,0.2-0.1,0.4-0.2,0.6
					c-0.1,0.2-0.2,0.5-0.3,0.9c-0.1,0.3-0.3,0.8-0.6,1.3l-10.8,23.9c-0.3,0.6-0.7,1-1.2,1.1s-1,0-1.5-0.2s-0.9-0.6-1.1-1
					s-0.2-1,0.1-1.6l11.1-24.2H398c-0.5,0-0.9-0.2-1.1-0.6c-0.2-0.4-0.4-0.8-0.4-1.3s0.1-0.9,0.4-1.3c0.2-0.4,0.6-0.6,1.1-0.6h17.2
					C416.4,148.5,417.2,148.6,417.6,149z"/>
			</g>
		</g>
		<g>
			<g>
				<path style="fill:#121312;" d="M347.3,148.2c0.7,0,1.2,0.1,1.6,0.4c0.4,0.3,0.6,0.8,0.6,1.4v27.3c0,0.6-0.2,1.1-0.6,1.4
					s-0.9,0.4-1.5,0.4s-1.1-0.1-1.5-0.4c-0.4-0.3-0.6-0.7-0.6-1.4v-24.1l-6.4,4c-0.5,0.3-1.1,0.4-1.5,0.2c-0.5-0.2-0.9-0.5-1.2-1
					c-0.2-0.5-0.3-0.9-0.2-1.4c0.1-0.5,0.4-0.9,0.9-1.2l7.7-4.6c0.6-0.3,1.1-0.6,1.5-0.7C346.4,148.3,346.9,148.2,347.3,148.2z"/>
			</g>
		</g>
		<g>
			<g>
				<path style="fill:#121312;" d="M467.4,148c3.9,0,6.7,1.3,8.4,3.8s2.6,6.2,2.6,10.9v2.1c0,4.8-0.9,8.4-2.6,10.9s-4.5,3.8-8.4,3.8
					s-6.7-1.3-8.4-3.8c-1.7-2.5-2.6-6.2-2.6-10.9v-2.1c0-4.8,0.9-8.4,2.6-10.9C460.8,149.2,463.6,148,467.4,148z M467.4,152
					c-1.3,0-2.3,0.2-3.2,0.6c-0.9,0.4-1.5,1.1-2.1,2c-0.5,0.9-0.9,2-1.1,3.4s-0.3,3-0.3,4.9v1.4c0,1.9,0.1,3.6,0.3,4.9
					s0.6,2.5,1.1,3.4s1.2,1.6,2.1,2s1.9,0.6,3.2,0.6c1.3,0,2.3-0.2,3.2-0.6c0.9-0.4,1.5-1.1,2.1-2c0.5-0.9,0.9-2,1.1-3.4
					s0.3-3,0.3-4.9V163c0-1.9-0.1-3.6-0.3-4.9c-0.2-1.4-0.6-2.5-1.1-3.4s-1.2-1.6-2.1-2C469.8,152.2,468.7,152,467.4,152z"/>
			</g>
		</g>
		<g>
			<path style="fill:#121312;" d="M476.1,80.6c0.2,0.4,0.3,0.8,0.3,1.3s-0.1,1-0.3,1.3c-0.2,0.4-0.6,0.5-1.2,0.5h-11.7l-0.5,9.5
				c0.7-0.5,1.6-1,2.6-1.4s2.2-0.6,3.6-0.6c1.5,0,2.8,0.2,4,0.7c1.1,0.5,2.1,1.2,2.9,2s1.4,1.8,1.8,3c0.4,1.1,0.6,2.4,0.6,3.7v0.5
				c0,1.2-0.2,2.4-0.6,3.6s-1,2.3-1.9,3.2s-2,1.7-3.4,2.3c-1.4,0.6-3,0.9-5,0.9s-3.7-0.2-5.2-0.7c-1.5-0.4-2.9-1.1-4.1-1.8
				c-0.5-0.3-0.8-0.8-0.9-1.3s0-1,0.3-1.5c0.7-1.1,1.6-1.3,2.6-0.6c1,0.6,2.1,1.1,3.2,1.5s2.5,0.5,4,0.5c1.1,0,2.1-0.2,3-0.5
				c0.8-0.3,1.5-0.8,2-1.3c0.5-0.6,0.9-1.2,1.2-1.9c0.2-0.7,0.4-1.5,0.4-2.3v-0.3c0-2-0.5-3.5-1.6-4.5s-2.6-1.5-4.6-1.5
				c-1.1,0-2.1,0.2-3.1,0.6c-0.9,0.4-1.7,0.9-2.4,1.5c-0.4,0.3-0.7,0.5-1,0.6s-0.6,0.2-1,0.2c-0.5,0-1-0.1-1.3-0.4s-0.5-0.6-0.5-1.1
				l0.7-12.8c0-0.7,0.1-1.2,0.2-1.6s0.3-0.8,0.6-1s0.6-0.4,1-0.5s0.9-0.2,1.5-0.2h12.4C475.5,80.1,475.8,80.3,476.1,80.6z"/>
		</g>
	</g>
</g>
<line style="fill:none;stroke:#000100;stroke-width:1.5;stroke-linecap:round;stroke-linejoin:round;stroke-miterlimit:10;stroke-dasharray:3,3;" x1="625.8" y1="3.7" x2="625.8" y2="315.4"/>
</svg>
