<svg xmlns="http://www.w3.org/2000/svg" xmlns:xlink="http://www.w3.org/1999/xlink" viewBox="0 0 91.21 91.21"><defs><style>.cls-1,.cls-6,.cls-7,.cls-8{fill:none;}.cls-2{clip-path:url(#clip-path);}.cls-3{fill:#fff;}.cls-4{fill:#c1dff5;}.cls-5{fill:#d7e7af;}.cls-6{stroke:#7ecef4;stroke-width:0.4px;stroke-dasharray:1.5 1;}.cls-7{stroke:#00a0e9;}.cls-7,.cls-8{stroke-width:0.5px;}.cls-8{stroke:#e4007f;stroke-linejoin:bevel;}</style><clipPath id="clip-path" transform="translate(0 0)"><rect class="cls-1" width="91.21" height="91.21"/></clipPath></defs><title>자산 1</title><g id="레이어_2" data-name="레이어 2"><g id="레이어_1-2" data-name="레이어 1"><g class="cls-2"><rect class="cls-3" x="63.75" y="45.6" width="9.07" height="9.07"/><rect class="cls-3" x="63.75" y="36.53" width="9.07" height="9.07"/><rect class="cls-3" x="63.75" y="27.46" width="9.07" height="9.08"/><rect class="cls-4" x="18.39" y="54.67" width="9.07" height="9.07"/><rect class="cls-3" x="63.75" y="54.67" width="9.07" height="9.07"/><rect class="cls-4" x="36.53" y="63.74" width="9.07" height="9.07"/><rect class="cls-4" x="27.46" y="63.74" width="9.07" height="9.07"/><rect class="cls-5" x="63.75" y="9.32" width="9.07" height="9.07"/><rect class="cls-4" x="18.39" y="63.74" width="9.07" height="9.07"/><rect class="cls-4" x="45.61" y="63.74" width="9.07" height="9.07"/><rect class="cls-4" x="54.68" y="63.74" width="9.07" height="9.07"/><rect class="cls-3" x="63.75" y="63.74" width="9.07" height="9.07"/><rect class="cls-3" x="63.75" y="18.39" width="9.07" height="9.07"/><rect class="cls-4" x="9.32" y="36.53" width="9.07" height="9.07"/><rect class="cls-4" x="9.32" y="27.46" width="9.07" height="9.08"/><rect class="cls-4" x="54.67" y="9.32" width="9.07" height="9.07"/><rect class="cls-4" x="9.32" y="54.67" width="9.07" height="9.07"/><rect class="cls-4" x="9.32" y="63.74" width="9.07" height="9.07"/><rect class="cls-4" x="9.32" y="45.6" width="9.07" height="9.07"/><rect class="cls-4" x="9.32" y="18.39" width="9.07" height="9.07"/><rect class="cls-4" x="36.54" y="9.32" width="9.07" height="9.07"/><rect class="cls-4" x="27.46" y="9.32" width="9.07" height="9.07"/><rect class="cls-4" x="9.32" y="9.32" width="9.07" height="9.07"/><rect class="cls-4" x="18.39" y="9.32" width="9.07" height="9.07"/><rect class="cls-4" x="18.39" y="27.46" width="9.07" height="9.08"/><rect class="cls-4" x="27.46" y="36.53" width="9.07" height="9.07"/><rect class="cls-4" x="18.39" y="45.6" width="9.07" height="9.07"/><rect class="cls-4" x="27.46" y="27.46" width="9.07" height="9.08"/><rect class="cls-4" x="27.46" y="45.6" width="9.07" height="9.07"/><rect class="cls-4" x="27.46" y="54.67" width="9.07" height="9.07"/><rect class="cls-4" x="36.54" y="36.53" width="9.07" height="9.07"/><rect class="cls-4" x="45.61" y="27.46" width="9.07" height="9.08"/><rect class="cls-4" x="45.61" y="54.67" width="9.07" height="9.07"/><rect class="cls-4" x="36.53" y="45.6" width="9.07" height="9.07"/><rect class="cls-4" x="36.53" y="54.72" width="9.07" height="9.07"/><rect class="cls-4" x="45.61" y="45.6" width="9.07" height="9.07"/><rect class="cls-4" x="45.61" y="36.53" width="9.07" height="9.07"/><rect class="cls-4" x="36.54" y="27.46" width="9.07" height="9.08"/><rect class="cls-4" x="27.46" y="18.39" width="9.07" height="9.07"/><rect class="cls-4" x="18.39" y="18.39" width="9.07" height="9.07"/><rect class="cls-4" x="36.54" y="18.39" width="9.07" height="9.07"/><rect class="cls-4" x="9.32" y="72.82" width="9.07" height="9.07"/><rect class="cls-4" x="18.39" y="36.53" width="9.07" height="9.07"/><rect class="cls-4" x="54.68" y="27.46" width="9.07" height="9.08"/><rect class="cls-4" x="54.68" y="36.53" width="9.07" height="9.07"/><rect class="cls-4" x="54.68" y="45.6" width="9.07" height="9.07"/><rect class="cls-4" x="54.68" y="54.67" width="9.07" height="9.07"/><rect class="cls-4" x="45.61" y="18.39" width="9.07" height="9.07"/><rect class="cls-4" x="54.67" y="18.39" width="9.07" height="9.07"/><rect class="cls-4" x="45.61" y="9.32" width="9.07" height="9.07"/><rect class="cls-4" x="27.46" y="81.89" width="9.07" height="9.07"/><rect class="cls-4" x="18.39" y="72.82" width="9.07" height="9.07"/><rect class="cls-4" x="0.25" y="81.89" width="9.07" height="9.07"/><rect class="cls-4" x="9.32" y="81.89" width="9.07" height="9.07"/><rect class="cls-4" x="45.61" y="81.89" width="9.07" height="9.07"/><rect class="cls-4" x="0.25" y="27.46" width="9.07" height="9.08"/><rect class="cls-4" x="54.68" y="81.89" width="9.07" height="9.07"/><rect class="cls-4" x="0.25" y="45.6" width="9.07" height="9.07"/><rect class="cls-4" x="0.25" y="36.53" width="9.07" height="9.07"/><rect class="cls-4" x="0.25" y="63.74" width="9.07" height="9.07"/><rect class="cls-4" x="0.25" y="54.67" width="9.07" height="9.07"/><rect class="cls-4" x="0.25" y="72.82" width="9.07" height="9.07"/><rect class="cls-4" x="36.53" y="81.89" width="9.07" height="9.07"/><rect class="cls-3" x="81.89" y="18.39" width="9.07" height="9.07"/><rect class="cls-3" x="81.89" y="27.46" width="9.07" height="9.08"/><rect class="cls-3" x="81.89" y="36.53" width="9.07" height="9.07"/><rect class="cls-3" x="81.89" y="45.6" width="9.07" height="9.07"/><rect class="cls-3" x="81.89" y="9.32" width="9.07" height="9.07"/><rect class="cls-3" x="81.89" y="0.25" width="9.07" height="9.07"/><rect class="cls-3" x="81.89" y="72.82" width="9.07" height="9.07"/><rect class="cls-3" x="81.89" y="81.89" width="9.07" height="9.07"/><rect class="cls-3" x="72.82" y="81.89" width="9.07" height="9.07"/><rect class="cls-3" x="81.89" y="54.67" width="9.07" height="9.07"/><rect class="cls-3" x="81.89" y="63.74" width="9.07" height="9.07"/><rect class="cls-3" x="63.75" y="81.89" width="9.07" height="9.07"/><rect class="cls-4" x="18.39" y="81.89" width="9.07" height="9.07"/><rect class="cls-3" x="72.82" y="18.39" width="9.07" height="9.07"/><rect class="cls-3" x="72.82" y="54.67" width="9.07" height="9.07"/><rect class="cls-3" x="72.82" y="63.74" width="9.07" height="9.07"/><rect class="cls-3" x="72.82" y="72.82" width="9.07" height="9.07"/><rect class="cls-3" x="72.82" y="27.46" width="9.07" height="9.08"/><rect class="cls-3" x="72.82" y="36.53" width="9.07" height="9.07"/><rect class="cls-3" x="72.82" y="45.6" width="9.07" height="9.07"/><rect class="cls-4" x="0.25" y="18.39" width="9.07" height="9.07"/><rect class="cls-4" x="36.53" y="72.82" width="9.07" height="9.07"/><rect class="cls-4" x="45.61" y="72.82" width="9.07" height="9.07"/><rect class="cls-4" x="54.68" y="72.82" width="9.07" height="9.07"/><rect class="cls-3" x="63.75" y="72.82" width="9.07" height="9.07"/><rect class="cls-4" x="27.46" y="72.82" width="9.07" height="9.07"/><rect class="cls-4" x="9.32" y="0.25" width="9.07" height="9.07"/><rect class="cls-4" x="18.39" y="0.25" width="9.07" height="9.07"/><rect class="cls-4" x="0.25" y="9.32" width="9.07" height="9.07"/><rect class="cls-4" x="27.46" y="0.25" width="9.07" height="9.07"/><rect class="cls-4" x="0.25" y="0.25" width="9.07" height="9.07"/><rect class="cls-5" x="63.75" y="0.25" width="9.07" height="9.07"/><rect class="cls-3" x="72.82" y="9.32" width="9.07" height="9.07"/><rect class="cls-3" x="72.82" y="0.25" width="9.07" height="9.07"/><rect class="cls-4" x="54.67" y="0.25" width="9.07" height="9.07"/><rect class="cls-4" x="36.54" y="0.25" width="9.07" height="9.07"/><rect class="cls-4" x="45.61" y="0.25" width="9.07" height="9.07"/><path class="cls-6" d="M.25,91V.25m9.07,0V91M54.68.25V91M36.53.25V91M18.39.25V91M27.46.25V91M45.6.25V91M63.75.25V91M72.82.25V91M81.89.25V91M91,.25V91m0,0H.25m0-36.29H91M.25,63.74H91M.25,72.82H91M.25,81.89H91M.25,45.6H91M.25,36.53H91M.25,27.46H91M.25,18.39H91M.25,9.32H91M.25.25H91" transform="translate(0 0)"/><rect class="cls-7" x="0.25" y="0.25" width="90.71" height="90.71"/><path class="cls-8" d="M54.39,90.7l-8.92-8.92m0,8.92,8.92-8.92m9.19,8.92-8.92-8.92m0,8.92,8.92-8.92m-9.19-.12-8.92-8.92m0,8.92,8.92-8.92m9.19,8.92-8.92-8.92m0,8.92,8.92-8.92m0-.12L54.66,63.7m0,8.92,8.92-8.92m0-.12-8.92-8.91m0,8.91,8.92-8.91m0-.13-8.92-8.91m0,8.91,8.92-8.91m0-.12-8.92-8.92m0,8.92,8.92-8.92m0-.12-8.92-8.92m0,8.92,8.92-8.92m0-.12-8.92-8.92m0,8.92,8.92-8.92m0-.12L54.66,9.48m0,8.91,8.92-8.91m9.19,8.91L63.86,9.48m0,8.91,8.91-8.91m-9.19-.12L54.66.44m0,8.92L63.58.44m9.19,8.92L63.86.44m0,8.92L72.77.44" transform="translate(0 0)"/></g></g></g></svg>