
<svg xmlns="http://www.w3.org/2000/svg" version="1.1" xmlns:xlink="http://www.w3.org/1999/xlink" preserveAspectRatio="none" x="0px" y="0px" width="1280px" height="720px" viewBox="0 0 1280 720">
<defs>
<filter id="Filter_1" x="-20%" y="-20%" width="140%" height="140%" color-interpolation-filters="sRGB">
<feColorMatrix in="SourceGraphic" type="matrix" values="0 0 0 0 1 0 0 0 0 0.4 0 0 0 0 0.4 0 0 0 1 0" result="result1"/>
</filter>

<g id="bd565_1_Layer6_0_FILL">
<path fill="#000000" stroke="none" d="
M -354.4 122.75
Q -352.25 119.7 -351.05 116.3 -349.85 112.95 -349.6 109.3 -349.5 107.55 -350.15 106.75 -350.75 105.9 -352.75 105.9
L -367.3 105.9
Q -367.75 105.9 -367.9 106.05 -368.1 106.2 -368.1 106.7
L -368.1 109.7
Q -368.1 110.1 -367.95 110.3 -367.85 110.5 -367.3 110.5
L -356.15 110.5
Q -355.45 110.5 -355.55 111.3 -356.3 116.55 -359.75 121 -363.25 125.45 -369.3 128.85 -369.65 129.05 -369.75 129.4 -369.85 129.75 -369.55 130.15
L -367.7 132.95
Q -367.35 133.4 -367.05 133.4 -366.75 133.4 -366.2 133.1 -362.5 131.05 -359.5 128.4 -356.55 125.8 -354.4 122.75
M -339.8 103.1
Q -339.9 102.95 -340.35 102.95
L -344.4 102.95
Q -344.85 102.95 -345.05 103.1 -345.2 103.3 -345.2 103.75
L -345.2 140.55
Q -345.2 141.05 -345.05 141.2 -344.85 141.3 -344.4 141.3
L -340.35 141.3
Q -339.9 141.3 -339.8 141.2 -339.65 141.05 -339.65 140.55
L -339.65 121.95 -334.7 121.95
Q -334.35 121.95 -334.1 121.75 -333.9 121.65 -333.9 121.15
L -333.9 118.1
Q -333.9 117.55 -334.1 117.45 -334.35 117.35 -334.7 117.35
L -339.65 117.35 -339.65 103.75
Q -339.65 103.3 -339.8 103.1
M 5.95 128.75
Q 6.65 128.55 6.6 127.95
L 6 124.65
Q 5.9 124.45 5.75 124.25 5.65 124.1 5.15 124.25 3.7 124.55 2.05 124.8 0.35 125.05 -1.35 125.25 -3.1 125.45 -4.75 125.5 -6.45 125.6 -7.8 125.5 -8.7 125.5 -8.7 124.6
L -8.7 106.2
Q -8.7 105.35 -9.55 105.35
L -13.5 105.35
Q -14.3 105.35 -14.3 106.2
L -14.3 127.3
Q -14.3 128.85 -13.6 129.5 -12.9 130.1 -11.25 130.25 -9.7 130.35 -7.55 130.35 -5.4 130.3 -3.05 130.05 -0.7 129.9 1.6 129.55 3.95 129.2 5.95 128.75
M 13.6 103.1
Q 13.5 102.95 13.05 102.95
L 9 102.95
Q 8.55 102.95 8.35 103.1 8.2 103.3 8.2 103.75
L 8.2 140.55
Q 8.2 141.05 8.35 141.2 8.55 141.3 9 141.3
L 13.05 141.3
Q 13.5 141.3 13.6 141.2 13.75 141.05 13.75 140.55
L 13.75 121.95 18.7 121.95
Q 19.05 121.95 19.3 121.8 19.5 121.7 19.5 121.2
L 19.5 118.15
Q 19.5 117.6 19.3 117.5 19.05 117.4 18.7 117.4
L 13.75 117.4 13.75 103.75
Q 13.75 103.3 13.6 103.1 Z"/>
</g>

<g id="bd565_1_Layer5_0_MEMBER_0_FILL">
<path fill="#B893C2" stroke="none" d="
M 152.5 57.8
L 134.15 64.5 153.7 64.5
Q 153.7 60.95 152.5 57.8 Z"/>
</g>

<g id="bd565_1_Layer5_1_MEMBER_0_FILL">
<path fill="#B893C2" stroke="none" d="
M 300.1 54.8
Q 298.3 51.75 295.7 49.6
L 283.15 64.6 300.1 54.8 Z"/>
</g>

<g id="bd565_1_Layer5_2_MEMBER_0_FILL">
<path fill="#F7B871" stroke="none" d="
M 0.4 64.6
L 14.9 64.6 15 63.1
Q 15 60.1 13.45 57.6 11.95 55.15 9.4 53.8
L 0.4 64.6 Z"/>
</g>

<g id="bd565_1_Layer5_5_MEMBER_0_FILL">
<path fill="#F7B871" stroke="none" d="
M 296.2 57.6
Q 294.7 55.15 292.2 53.8
L 283.15 64.6 297.65 64.6 297.75 63.1
Q 297.75 60.1 296.2 57.6 Z"/>
</g>

<g id="bd565_1_Layer5_8_MEMBER_0_MEMBER_1_MEMBER_0_FILL">
<path fill="#E50182" stroke="none" d="
M 316.5 50.1
L 318.85 50.1 314.6 46.8 315.35 52.15 316.5 50.1 Z"/>
</g>

<g id="bd565_1_Layer5_8_MEMBER_0_MEMBER_2_MEMBER_0_FILL">
<path fill="#E50182" stroke="none" d="
M 318.65 64.3
L 321 59.5 318.9 60.5 316.95 59.2 318.65 64.3 Z"/>
</g>

<g id="bd565_1_Layer5_9_MEMBER_0_MEMBER_1_MEMBER_0_FILL">
<path fill="#009C4D" stroke="none" d="
M 310.5 48.75
L 309.2 43.55 308.25 45.7 305.9 45.95 310.5 48.75 Z"/>
</g>

<g id="bd565_1_Layer5_10_MEMBER_0_MEMBER_1_MEMBER_0_FILL">
<path fill="#00A3E9" stroke="none" d="
M 303.85 47.2
L 298.5 46.6 301.9 50.75 301.85 48.4 303.85 47.2 Z"/>
</g>

<g id="vsdvs434_0_Layer1_0_FILL">
<path fill="#000000" stroke="none" d="
M 7.5 -19.9
Q 5.25 -19.9 3.75 -18.3
L -11.15 -3.5
Q -12.75 -1.95 -12.75 0.25 -12.75 2.5 -11.15 4.1 -11.07734375 4.175 -11 4.25
L 3.35 18.55
Q 4.95 20.05 7.2 20.05 9.35 20.05 10.95 18.55 12.45 16.9 12.45 14.75 12.45 12.5 10.95 11
L 0.25 0.25 11.25 -10.8
Q 12.8 -12.4 12.8 -14.55 12.8 -16.8 11.25 -18.4 9.75 -19.9 7.5 -19.9 Z"/>
</g>

<g id="vsdvs434_0_Layer0_0_FILL">
<path fill="#000000" stroke="none" d="
M 34.95 -4.35
Q 33.2 -6.1 30.65 -6.1
L 24.25 -6.1 23.1 -6.1 18.5 -6.1 17.35 -6.1 0.6 -6.1
Q -1.95 -6.1 -3.75 -4.35 -5.5 -2.55 -5.5 0
L -5.5 0.05
Q -5.5 2.6 -3.75 4.35 -1.95 6.15 0.6 6.15
L 17.35 6.15 18.5 6.15 23.1 6.15 24.25 6.15 30.65 6.15
Q 33.25 6.15 34.95 4.35 36.75 2.65 36.75 0.05
L 36.75 0
Q 36.75 -2.55 34.95 -4.35 Z"/>
</g>

<path id="bd565_1_Layer5_3_1_STROKES" stroke="#332D2B" stroke-width="3" stroke-linejoin="round" stroke-linecap="butt" fill="none" d="
M -295.1765380859375 -112.65006103515626
L -457.0001953125 80.38422851562498 -205.04121093749998 80.38422851562498"/>

<path id="bd565_1_Layer5_4_1_STROKES" stroke="#332D2B" stroke-width="3" stroke-linejoin="round" stroke-linecap="butt" fill="none" d="
M 106.907738494873 -5.8521881103515625
L -129.7766105651856 80.39605712890622 122.20672683715816 80.39605712890622"/>

<path id="bd565_1_Layer5_6_1_STROKES" stroke="#332D2B" stroke-width="3" stroke-linejoin="round" stroke-linecap="butt" fill="none" d="
M 409.935400390625 -112.65006103515626
L 248.11174316406243 80.38422851562498 500.0707275390623 80.38422851562498"/>

<path id="bd565_1_Layer5_7_1_STROKES" stroke="#332D2B" stroke-width="3" stroke-linejoin="round" stroke-linecap="butt" fill="none" d="
M 248.11174316406243 80.38422851562498
L 466.3262207031248 -45.75550537109375"/>

<path id="bd565_1_Layer5_8_MEMBER_0_MEMBER_0_1_STROKES" stroke="#E50182" stroke-width="2" stroke-linejoin="round" stroke-linecap="butt" fill="none" d="
M 347.7634338378905 36.13478698730469
Q 355.4115272521972 51.73320007324219 355.4115272521972 68.38150634765626"/>

<path id="bd565_1_Layer5_9_MEMBER_0_MEMBER_0_1_STROKES" stroke="#009C4D" stroke-width="2" stroke-linejoin="round" stroke-linecap="butt" fill="none" d="
M 306.6736770629882 9.887457275390616
Q 316.7211723327637 15.586877441406244 323.91937789916983 24.136007690429693"/>

<path id="bd565_1_Layer5_10_MEMBER_0_MEMBER_0_1_STROKES" stroke="#00A3E9" stroke-width="2" stroke-linejoin="round" stroke-linecap="butt" fill="none" d="
M 303.5244621276854 31.335275268554682
Q 312.8221443176269 37.63463439941407 318.0708358764648 47.53362731933592 323.6194526672364 57.73258972167969 323.6194526672364 69.28141479492186 323.6194526672364 74.68086547851561 322.1198265075684 80.68025512695311"/>
</defs>

<g transform="matrix( 1, 0, 0, 1, 660,322.6) ">
<g transform="matrix( 1, 0, 0, 1, 0,0) ">
<use xlink:href="#bd565_1_Layer6_0_FILL"/>
</g>

<g transform="matrix( 2.9992523193359375, 0, 0, 2.999481201171875, -532.2,-113.4) ">
<use xlink:href="#bd565_1_Layer5_0_MEMBER_0_FILL"/>
</g>

<g transform="matrix( 2.9992523193359375, 0, 0, 2.999481201171875, -601.2,-113.4) ">
<use xlink:href="#bd565_1_Layer5_1_MEMBER_0_FILL"/>
</g>

<g transform="matrix( 2.9989166259765625, 0, 0, 2.9996185302734375, -458.2,-113.4) ">
<use xlink:href="#bd565_1_Layer5_2_MEMBER_0_FILL"/>
</g>

<g transform="matrix( 2.99951171875, 0, 0, 2.999755859375, -458.2,-113.4) ">
<use xlink:href="#bd565_1_Layer5_3_1_STROKES" transform="matrix( 0.3333740234375, 0, 0, 0.3333587646484375, 152.75,37.8) "/>
</g>

<g transform="matrix( 2.9998016357421875, 0, 0, 2.99993896484375, -532.2,-113.4) ">
<use xlink:href="#bd565_1_Layer5_4_1_STROKES" transform="matrix( 0.333343505859375, 0, 0, 0.3333282470703125, 177.4,37.8) "/>
</g>

<g transform="matrix( 2.9989166259765625, 0, 0, 2.9996185302734375, -601.2,-113.4) ">
<use xlink:href="#bd565_1_Layer5_5_MEMBER_0_FILL"/>
</g>

<g transform="matrix( 2.99951171875, 0, 0, 2.999755859375, -601.2,-113.4) ">
<use xlink:href="#bd565_1_Layer5_6_1_STROKES" transform="matrix( 0.3333740234375, 0, 0, 0.3333587646484375, 200.4,37.8) "/>
</g>

<g transform="matrix( 2.99951171875, 0, 0, 2.999755859375, -601.2,-113.4) ">
<use xlink:href="#bd565_1_Layer5_7_1_STROKES" transform="matrix( 0.3333740234375, 0, 0, 0.3333587646484375, 200.4,37.8) "/>
</g>

<g transform="matrix( 2.9992523193359375, 0, 0, 2.99969482421875, -601.2,-113.4) ">
<use xlink:href="#bd565_1_Layer5_8_MEMBER_0_MEMBER_0_1_STROKES" transform="matrix( 0.333404541015625, 0, 0, 0.3333587646484375, 200.4,37.8) "/>
</g>

<g transform="matrix( 2.9987030029296875, 0, 0, 2.999420166015625, -601.2,-113.4) ">
<use xlink:href="#bd565_1_Layer5_8_MEMBER_0_MEMBER_1_MEMBER_0_FILL"/>
</g>

<g transform="matrix( 2.9987030029296875, 0, 0, 2.999420166015625, -601.2,-113.4) ">
<use xlink:href="#bd565_1_Layer5_8_MEMBER_0_MEMBER_2_MEMBER_0_FILL"/>
</g>

<g transform="matrix( 2.9992523193359375, 0, 0, 2.99969482421875, -601.2,-113.4) ">
<use xlink:href="#bd565_1_Layer5_9_MEMBER_0_MEMBER_0_1_STROKES" transform="matrix( 0.333404541015625, 0, 0, 0.3333587646484375, 200.4,37.8) "/>
</g>

<g transform="matrix( 2.9987030029296875, 0, 0, 2.999420166015625, -601.2,-113.4) ">
<use xlink:href="#bd565_1_Layer5_9_MEMBER_0_MEMBER_1_MEMBER_0_FILL"/>
</g>

<g transform="matrix( 2.9992523193359375, 0, 0, 2.99969482421875, -601.2,-113.4) ">
<use xlink:href="#bd565_1_Layer5_10_MEMBER_0_MEMBER_0_1_STROKES" transform="matrix( 0.333404541015625, 0, 0, 0.3333587646484375, 200.4,37.8) "/>
</g>

<g transform="matrix( 2.9987030029296875, 0, 0, 2.999420166015625, -601.2,-113.4) ">
<use xlink:href="#bd565_1_Layer5_10_MEMBER_0_MEMBER_1_MEMBER_0_FILL"/>
</g>

<g transform="matrix( -0.7999725341796875, 0, 0, -0.7999725341796875, 195.2,28.25) ">
<g transform="matrix( 1, 0, 0, 1, 0,0) ">
<use filter="url(#Filter_1)" xlink:href="#vsdvs434_0_Layer1_0_FILL"/>
</g>

<g transform="matrix( 1, 0, 0, 1, 0,0) ">
<use filter="url(#Filter_1)" xlink:href="#vsdvs434_0_Layer0_0_FILL"/>
</g>
</g>
</g>
</svg>
