<?xml version="1.0" encoding="utf-8"?>
<!-- Generator: Adobe Illustrator 23.0.0, SVG Export Plug-In . SVG Version: 6.00 Build 0)  -->
<svg version="1.1" id="Layer_1" xmlns="http://www.w3.org/2000/svg" xmlns:xlink="http://www.w3.org/1999/xlink" x="0px" y="0px"
	 width="34px" height="70px" viewBox="0 0 34 70" style="enable-background:new 0 0 34 70;" xml:space="preserve">
<style type="text/css">
	.st0{stroke:#000000;stroke-width:0.8;stroke-linecap:round;stroke-linejoin:round;stroke-miterlimit:10;}
</style>
<g>
	<rect x="1.4" y="33.3" width="31.3" height="1"/>
	<g>
		<path class="st0" d="M14.9,65.9c1.3,0,2.1-0.1,2.6-0.3c0.5-0.2,0.8-0.6,0.8-1.2v-4.3H8.8v-1l10.5-17.4h1V59h4.4v1.1h-4.4v4.4
			c0,0.6,0.3,1,0.8,1.2c0.4,0.2,1.3,0.3,2.4,0.3v0.8h-8.7V65.9z M9.9,59h8.3V45.3L9.9,59z"/>
	</g>
	<g>
		<path class="st0" d="M14.3,13.9c-0.3-0.1-0.4-0.3-0.4-0.6c0-0.3,0.1-0.5,0.4-0.6c0.2,0,0.6,0,1.1,0.1c2,0,3.5-0.5,4.6-1.5
			c1.1-1,1.7-2.3,1.7-4.1c0-1.5-0.4-2.7-1.1-3.6c-0.8-1-2-1.5-3.5-1.5c-2,0-3.2,0.4-3.8,1.1c-0.3,0.4-0.4,1.1-0.3,2.1L13,6.1
			c0,0.5-0.1,0.9-0.4,1.3c-0.3,0.3-0.6,0.5-0.9,0.5c-0.4,0-0.8-0.1-1.1-0.4c-0.4-0.3-0.5-0.8-0.5-1.4c0-1.2,0.6-2.2,1.7-3.2
			c1.3-1,3.1-1.6,5.2-1.6c2.2,0,3.9,0.5,5,1.6c1.2,1,1.8,2.5,1.8,4.3c0,1.5-0.5,2.8-1.6,3.9c-1,1-2.2,1.7-3.8,2.1
			c1.9,0.3,3.5,1.1,4.5,2.3c1,1.1,1.5,2.4,1.5,3.9c0,2.1-0.6,3.9-1.9,5.2C21.1,26.2,19,27,16.3,27c-2.3,0-4.1-0.5-5.4-1.6
			c-1.2-1-1.8-2.3-1.8-3.8c0-0.7,0.2-1.2,0.5-1.5c0.3-0.3,0.7-0.4,1.1-0.4c0.4,0,0.7,0.1,1,0.4c0.4,0.3,0.5,0.7,0.5,1.2L12.1,22
			c-0.1,1.3,0,2.2,0.4,2.7c0.6,1,1.8,1.5,3.8,1.5c2,0,3.5-0.7,4.5-2c1-1.2,1.4-2.8,1.4-4.7c0-1.8-0.6-3.2-1.7-4.2
			c-1.2-1-2.9-1.6-5.2-1.6l0,0C14.9,13.9,14.5,13.9,14.3,13.9z"/>
	</g>
</g>
</svg>
