<?xml version="1.0" encoding="utf-8"?>
<!-- Generator: Adobe Illustrator 23.1.0, SVG Export Plug-In . SVG Version: 6.00 Build 0)  -->
<svg version="1.1" id="Layer_1" xmlns="http://www.w3.org/2000/svg" xmlns:xlink="http://www.w3.org/1999/xlink" x="0px" y="0px"
	 width="1000px" height="286px" viewBox="0 0 1000 286" style="enable-background:new 0 0 1000 286;" xml:space="preserve">
<g>
	<g>
		<path style="fill:#111111;" d="M26.3,131.4c0,2-0.2,3.6-0.8,4.8c-0.6,1.2-1.2,1.8-1.8,1.8c-0.5,0-1-0.4-1.3-1.3
			c-0.4-1-0.5-2.2-0.5-3.7v-13.4c-0.7,0-1.6,0-2.5,0.1c-1,0-1.9,0-2.9,0.1c-1,0-1.9,0.1-2.9,0.1s-1.7,0.1-2.4,0.1
			c-0.2,0-0.5,0.1-0.7,0.1c-0.2,0-0.4,0.1-0.6,0.1c-0.1,0-0.4,0.1-0.5,0.2c-0.1,0.1-0.4,0.1-0.5,0.2c-0.4,0.1-0.6,0.1-1,0.2
			c-0.4,0-0.7,0-1.2-0.1c-0.5-0.1-1.1-0.4-1.7-0.6s-1.3-0.7-2.2-1.2c-0.7-0.5-1.1-1-0.8-1.4c0.2-0.5,0.8-0.6,1.8-0.4
			c0.5,0.1,1.2,0.1,2.2,0.2s1.9,0.1,2.9,0.1h6.4c1.1,0,2-0.1,3-0.1s1.8-0.1,2.4-0.2c0.1,0,0.1,0,0.2-0.1c0.1,0,0.2-0.1,0.4-0.1
			s0.2-0.1,0.4-0.1c0.1,0,0.2-0.1,0.4-0.1c0.2,0,0.6,0,1,0c0.4,0,0.6,0,1,0h0.8c0.2,0,0.5,0,0.7,0c0.6,0.1,0.8,0.4,1.1,0.7
			c0.1,0.4,0.1,0.7,0.1,1.1c-0.1,0.2-0.1,0.6-0.2,0.8c-0.1,0.4-0.1,0.6-0.1,1V131.4L26.3,131.4z"/>
	</g>
	<g>
		<path style="fill:#111111;" d="M302.6,120.7v11.6c0,0.5,0.1,0.8,0.5,1.1c0.4,0.2,0.7,0.2,1.1,0.2l10.4-0.1c0.5,0,1,0,1.6-0.1
			c0.6-0.1,1.1-0.2,1.6-0.6c0.1-0.1,0.2-0.1,0.4-0.2c0.1,0,0.4-0.1,0.5-0.1c0.6,0,1.3-0.1,2-0.1c0.8,0,1.4,0,1.9,0.1
			c0.7,0.1,1.2,0.4,1.4,0.7s0.4,0.7,0.4,1c0,0.5-0.2,0.8-0.6,1.1c-0.4,0.4-0.8,0.5-1.6,0.5l-20,0.1c-0.5,0-1.1,0-1.6-0.1
			s-1-0.2-1.3-0.5c-0.4-0.2-0.7-0.5-1-1c-0.2-0.4-0.4-1-0.4-1.6v-11.9c0-0.4,0-0.7-0.1-1.1c-0.1-0.4-0.2-0.6-0.5-0.7
			c-0.4-0.2-0.7-0.4-1.2-0.5c-0.5-0.1-1-0.2-1.6-0.4c-0.2,0-0.4-0.1-0.5-0.4c-0.1-0.2-0.1-0.4-0.1-0.6c0-0.2,0.1-0.5,0.4-0.6
			c0.1-0.1,0.4-0.2,0.6-0.4c0.4,0,0.8,0,1.4,0c0.7,0,1.4,0,2.2,0c0.7,0,1.4,0.1,2.2,0.1c0.7,0,1.2,0.1,1.6,0.2
			c0.1,0.1,0.2,0.2,0.4,0.5c0.1,0.2,0.1,0.5,0,0.7c-0.1,0.4-0.1,0.7-0.2,1.2C302.6,120,302.6,120.3,302.6,120.7z"/>
	</g>
	<path style="fill:#111111;" d="M313.5,89.6c0,3.4-2.8,6.1-6.1,6.1c-3.4,0-6.1-2.8-6.1-6.1s2.8-6.1,6.1-6.1
		C310.7,83.6,313.5,86.3,313.5,89.6z"/>
	<path style="fill:#111111;" d="M22,89.6c0,3.4-2.8,6.1-6.1,6.1S9.8,93,9.8,89.6s2.8-6.1,6.1-6.1C19.2,83.6,22,86.3,22,89.6z"/>
	<rect x="13" y="87.9" style="fill:#111111;" width="336" height="2.4"/>
	<g>
		<g>
			<path style="fill:#FFFFFF;" d="M93.2,225C79.2,225,68,213.7,68,199.8v-11.2c0-13.9,11.3-25.2,25.2-25.2h156
				c13.9,0,25.2,11.3,25.2,25.2v11.2c0,13.9-11.3,25.2-25.2,25.2H93.2z"/>
			<g>
				<path style="fill:#F5B3BA;" d="M249.2,164.6c13.2,0,24,10.8,24,24v11.2c0,13.2-10.8,24-24,24h-156c-13.2,0-24-10.8-24-24v-11.2
					c0-13.2,10.8-24,24-24H249.2 M249.2,162.2h-156c-14.6,0-26.4,11.8-26.4,26.4v11.2c0,14.6,11.8,26.4,26.4,26.4h156
					c14.6,0,26.4-11.8,26.4-26.4v-11.2C275.6,174.1,263.7,162.2,249.2,162.2L249.2,162.2z"/>
			</g>
		</g>
		<g>
			<path style="fill:#E6286E;" d="M107.4,194.5h-15v-16.6H95v6.1h10v-6.1h2.5V194.5L107.4,194.5z M95,192.5h10v-6H95V192.5z
				 M99.5,207h18.2v2.3H96.9v-10.7h2.5L99.5,207L99.5,207z M116.8,186.1h5v2.3h-5V200h-2.5v-23.8h2.5V186.1z"/>
			<path style="fill:#E6286E;" d="M132.9,187.8c-0.1,0.2-0.4,0.7-0.8,1.2c-0.5,0.6-1.2,1.2-1.9,1.8c-0.4,0.2-0.7,0.6-1.2,1
				c-0.5,0.4-1,0.7-1.4,1.2c-0.5,0.4-1,0.8-1.6,1.2c-0.5,0.4-1,0.7-1.4,1.1l-1.6-1.8c1.1-0.7,2.2-1.6,3.4-2.5c1.1-0.8,2.2-1.8,3-2.6
				c0.5-0.5,0.8-0.8,1.1-1.2s0.5-0.7,0.7-1.2c0.1-0.4,0.2-0.8,0.4-1.2c0.1-0.5,0.1-0.8,0.1-1.3v-2.8H124v-2.2h17.4v2.2h-7.2v2.6
				c0,0.5,0,1,0.1,1.4c0.1,0.5,0.1,0.8,0.4,1.2c0.2,0.4,0.5,0.7,0.8,1.2c0.4,0.4,0.8,0.8,1.4,1.3c0.6,0.5,1.3,1.1,2.3,1.8
				c1,0.7,1.9,1.4,3,2.2l-1.4,1.8c-0.7-0.5-1.4-1.1-2.3-1.7c-0.8-0.6-1.4-1.1-2-1.6c-0.8-0.7-1.6-1.3-2.2-1.9
				C133.2,188.4,132.9,188,132.9,187.8L132.9,187.8z M128,197.5h21.4v12.2h-2.5v-10H128V197.5z M149.3,195.6h-2.5v-19.2h2.5V195.6z"
				/>
			<path style="fill:#E6286E;" d="M163.2,188.4c0,0.4-0.4,0.7-0.8,1.3c-0.5,0.6-1.2,1.2-1.9,1.9c-0.6,0.6-1.4,1.3-2.4,2.2
				s-1.9,1.7-3,2.4l-1.6-1.8c1-0.7,2-1.6,3.1-2.4s2-1.7,2.8-2.5c0.6-0.6,1.1-1.1,1.3-1.6c0.4-0.5,0.6-0.8,0.7-1.3
				c0.2-0.5,0.2-0.8,0.4-1.3c0-0.5,0.1-1.1,0.1-1.8v-5.4h2.6v5.4c0,0.7,0,1.2,0.1,1.7c0,0.5,0.1,1,0.4,1.3c0.2,0.4,0.5,0.8,0.8,1.2
				c0.4,0.5,0.8,1,1.4,1.4c0.8,0.7,1.8,1.6,2.8,2.3c1,0.7,1.8,1.4,2.5,1.9l-1.6,1.8c-1-0.7-1.8-1.4-2.6-2c-0.8-0.6-1.4-1.2-2.2-1.8
				C164.4,189.8,163.5,188.9,163.2,188.4L163.2,188.4z M162.9,207h18.5v2.3h-21.1v-11.2h2.5v8.8h0.1V207z M180.5,200H178v-13.4h-7.4
				v-2.3h7.4v-7.8h2.5V200z"/>
			<path style="fill:#E6286E;" d="M214.1,202.4v-15.1h-18.2v-2.4h20.9v17.4h-2.6V202.4z"/>
			<path style="fill:#E6286E;" d="M230.8,184.8v15.4h18.6v2.4h-21.2v-17.8H230.8z"/>
		</g>
	</g>
	<g>
		<path style="fill:#111111;" d="M556.5,131.4c0,2-0.2,3.6-0.8,4.8c-0.6,1.2-1.2,1.8-1.8,1.8c-0.5,0-1-0.4-1.3-1.3
			c-0.4-1-0.5-2.2-0.5-3.7v-13.4c-0.7,0-1.6,0-2.5,0.1c-1,0-1.9,0-2.9,0.1c-1,0-1.9,0.1-2.9,0.1c-1,0-1.7,0.1-2.4,0.1
			c-0.2,0-0.5,0.1-0.7,0.1c-0.2,0-0.4,0.1-0.6,0.1c-0.1,0-0.4,0.1-0.5,0.2c-0.1,0.1-0.4,0.1-0.5,0.2c-0.4,0.1-0.6,0.1-1,0.2
			c-0.4,0.1-0.7,0-1.2-0.1c-0.5-0.1-1.1-0.4-1.7-0.6c-0.6-0.2-1.3-0.7-2.2-1.2c-0.7-0.5-1.1-1-0.8-1.4c0.2-0.5,0.8-0.6,1.8-0.4
			c0.5,0.1,1.2,0.1,2.2,0.2c1,0.1,1.9,0.1,2.9,0.1h6.4c1.1,0,2-0.1,3-0.1c1,0,1.8-0.1,2.4-0.2c0.1,0,0.1,0,0.2-0.1
			c0.1,0,0.2-0.1,0.4-0.1c0.1,0,0.2-0.1,0.4-0.1c0.1,0,0.2-0.1,0.4-0.1c0.2,0,0.6,0,1,0s0.6,0,1,0h0.8c0.2,0,0.5,0,0.7,0
			c0.6,0.1,0.8,0.4,1,0.7c0.1,0.4,0.1,0.7,0.1,1.1c-0.1,0.2-0.1,0.6-0.2,0.8s-0.1,0.6-0.1,1v11L556.5,131.4L556.5,131.4z"/>
	</g>
	<g>
		<path style="fill:#111111;" d="M830.1,120.7v11.6c0,0.5,0.1,0.8,0.5,1.1c0.4,0.2,0.7,0.2,1.1,0.2l10.4-0.1c0.5,0,1,0,1.6-0.1
			c0.6-0.1,1.1-0.2,1.6-0.6c0.1-0.1,0.2-0.1,0.4-0.2c0.1,0,0.4-0.1,0.5-0.1c0.6,0,1.3-0.1,2-0.1c0.8,0,1.4,0,1.9,0.1
			c0.7,0.1,1.2,0.4,1.4,0.7s0.4,0.7,0.4,1c0,0.5-0.2,0.8-0.6,1.1c-0.4,0.4-0.8,0.5-1.6,0.5l-20,0.1c-0.5,0-1.1,0-1.6-0.1
			s-1-0.2-1.3-0.5c-0.4-0.2-0.7-0.5-1-1c-0.2-0.4-0.4-1-0.4-1.6v-11.9c0-0.4,0-0.7-0.1-1.1c-0.1-0.4-0.2-0.6-0.5-0.7
			c-0.4-0.2-0.7-0.4-1.2-0.5c-0.5-0.1-1-0.2-1.6-0.4c-0.2,0-0.4-0.1-0.5-0.4c-0.1-0.2-0.1-0.4-0.1-0.6c0-0.2,0.1-0.5,0.4-0.6
			c0.1-0.1,0.4-0.2,0.6-0.4c0.4,0,0.8,0,1.4,0c0.7,0,1.4,0,2.2,0s1.4,0.1,2.2,0.1s1.2,0.1,1.6,0.2c0.1,0.1,0.2,0.2,0.4,0.5
			c0.1,0.2,0.1,0.5,0,0.7c-0.1,0.4-0.1,0.7-0.2,1.2C830.1,120,830.1,120.3,830.1,120.7z"/>
	</g>
	<path style="fill:#111111;" d="M840.9,89.6c0,3.4-2.8,6.1-6.1,6.1s-6.1-2.8-6.1-6.1s2.8-6.1,6.1-6.1S840.9,86.3,840.9,89.6z"/>
	<path style="fill:#111111;" d="M552.2,89.6c0,3.4-2.8,6.1-6.1,6.1c-3.4,0-6.1-2.8-6.1-6.1s2.8-6.1,6.1-6.1
		C549.4,83.6,552.2,86.3,552.2,89.6z"/>
	<rect x="498.4" y="87.9" style="fill:#111111;" width="336" height="2.4"/>
	<g>
		<g>
			<path style="fill:#FFFFFF;" d="M578.6,225c-13.9,0-25.2-11.3-25.2-25.2v-11.2c0-13.9,11.3-25.2,25.2-25.2h156
				c13.9,0,25.2,11.3,25.2,25.2v11.2c0,13.9-11.3,25.2-25.2,25.2H578.6z"/>
			<g>
				<path style="fill:#F5B3BA;" d="M734.6,164.6c13.2,0,24,10.8,24,24v11.2c0,13.2-10.8,24-24,24h-156c-13.2,0-24-10.8-24-24v-11.2
					c0-13.2,10.8-24,24-24H734.6 M734.6,162.2h-156c-14.6,0-26.4,11.8-26.4,26.4v11.2c0,14.6,11.8,26.4,26.4,26.4h156
					c14.6,0,26.4-11.8,26.4-26.4v-11.2C761,174.1,749.1,162.2,734.6,162.2L734.6,162.2z"/>
			</g>
		</g>
		<g>
			<path style="fill:#E6286E;" d="M592.8,194.5h-15v-16.6h2.5v6.1h10v-6.1h2.5V194.5L592.8,194.5z M580.4,192.5h10v-6h-10V192.5z
				 M585,207h18.2v2.3h-20.9v-10.7h2.5L585,207L585,207z M602.3,186.1h5v2.3h-5V200h-2.5v-23.8h2.5V186.1z"/>
			<path style="fill:#E6286E;" d="M618.3,187.8c-0.1,0.2-0.4,0.7-0.8,1.2c-0.5,0.6-1.2,1.2-1.9,1.8c-0.4,0.2-0.7,0.6-1.2,1
				c-0.5,0.4-1,0.7-1.4,1.2c-0.5,0.4-1,0.8-1.6,1.2c-0.6,0.4-1,0.7-1.4,1.1l-1.6-1.8c1.1-0.7,2.2-1.6,3.4-2.5c1.1-0.8,2.2-1.8,3-2.6
				c0.5-0.5,0.8-0.8,1.1-1.2c0.2-0.4,0.5-0.7,0.7-1.2c0.1-0.4,0.2-0.8,0.4-1.2c0.1-0.5,0.1-0.8,0.1-1.3v-2.8h-7.6v-2.2h17.4v2.2
				h-7.2v2.6c0,0.5,0,1,0.1,1.4c0,0.4,0.1,0.8,0.4,1.2c0.2,0.4,0.5,0.7,0.8,1.2c0.4,0.4,0.8,0.8,1.4,1.3c0.6,0.5,1.3,1.1,2.3,1.8
				c1,0.7,1.9,1.4,3,2.2l-1.4,1.8c-0.7-0.5-1.4-1.1-2.3-1.7c-0.8-0.6-1.4-1.1-2-1.6c-0.8-0.7-1.6-1.3-2.2-1.9
				C618.8,188.4,618.4,188,618.3,187.8L618.3,187.8z M613.5,197.5h21.4v12.2h-2.5v-10h-18.8L613.5,197.5L613.5,197.5z M634.7,195.6
				h-2.5v-19.2h2.5V195.6z"/>
			<path style="fill:#E6286E;" d="M648.8,188.4c0,0.4-0.4,0.7-0.8,1.3c-0.5,0.6-1.2,1.2-1.9,1.9c-0.6,0.6-1.4,1.3-2.4,2.2
				c-1,0.8-1.9,1.7-3,2.4l-1.6-1.8c1-0.7,2-1.6,3.1-2.4c1.1-0.8,2-1.7,2.8-2.5c0.6-0.6,1.1-1.1,1.3-1.6c0.4-0.5,0.6-0.8,0.7-1.3
				c0.2-0.5,0.2-0.8,0.4-1.3c0.1-0.5,0.1-1.1,0.1-1.8v-5.4h2.6v5.4c0,0.7,0,1.2,0.1,1.7c0,0.5,0.1,1,0.4,1.3
				c0.2,0.4,0.5,0.8,0.8,1.2c0.4,0.5,0.8,1,1.4,1.4c0.8,0.7,1.8,1.6,2.8,2.3c1,0.7,1.8,1.4,2.5,1.9l-1.6,1.8c-1-0.7-1.8-1.4-2.6-2
				c-0.8-0.6-1.4-1.2-2.2-1.8C649.8,189.8,648.9,188.9,648.8,188.4L648.8,188.4z M648.3,207h18.6v2.3h-21.1v-11.2h2.5V207z M666,200
				h-2.5v-13.4h-7.4v-2.3h7.4v-7.8h2.5V200z"/>
			<path style="fill:#E6286E;" d="M685,184.8v15.4h18.6v2.4h-21.2v-17.8H685z"/>
			<path style="fill:#E6286E;" d="M730.7,202.4v-15.1h-18.2v-2.4h20.9v17.4h-2.6V202.4z"/>
		</g>
	</g>
</g>
</svg>
