
<svg xmlns="http://www.w3.org/2000/svg" version="1.1" xmlns:xlink="http://www.w3.org/1999/xlink" preserveAspectRatio="none" x="0px" y="0px" width="1280px" height="720px" viewBox="0 0 1280 720">
<defs>
<g id="Layer0_0_FILL">
<path fill="#E1EDF5" stroke="none" d="
M 933.85 288.8
Q 933.85 270.55 915.65 270.55
L 364.4 270.55
Q 361.69765625 270.55 359.4 270.95 346.15 273.25234375 346.15 288.8
L 346.15 453.95 346.15 591.3
Q 346.15 592.118359375 346.15 592.9 346.970703125 609.5 364.4 609.5
L 915.65 609.5
Q 933.031640625 609.5 933.8 592.9 933.85 592.118359375 933.85 591.3
L 933.85 288.8 Z"/>
</g>

<g id="__________xc343434_0_Layer2_0_FILL">
<path fill="#FFFFFF" stroke="none" d="
M -214.55 -122.05
L -214.55 122 214.55 122 214.55 -122.05 -214.55 -122.05 Z"/>
</g>

<path id="__________xc343434_0_Layer1_0_1_STROKES" stroke="#EC3131" stroke-width="4" stroke-linejoin="miter" stroke-linecap="butt" stroke-miterlimit="3" fill="none" d="
M -112.5 59.55
L -77.5 59.55 -77.5 94.55"/>

<path id="__________xc343434_0_Layer1_1_1_STROKES" stroke="#EC3131" stroke-width="4" stroke-linejoin="miter" stroke-linecap="butt" stroke-miterlimit="3" fill="none" d="
M 214.55 87
L 179.55 87 179.55 122"/>

<path id="__________xc343434_0_Layer1_2_1_STROKES" stroke="#EC3131" stroke-width="4" stroke-linejoin="miter" stroke-linecap="butt" stroke-miterlimit="3" fill="none" d="
M 214.55 -87.05
L 179.55 -87.05 179.55 -122.05"/>

<path id="__________xc343434_0_Layer1_3_1_STROKES" stroke="#EC3131" stroke-width="4" stroke-linejoin="miter" stroke-linecap="butt" stroke-miterlimit="3" fill="none" d="
M -112.5 59.55
L -77.5 59.55 -77.5 94.55"/>

<path id="__________xc343434_0_Layer0_0_1_STROKES" stroke="#000000" stroke-width="2.5" stroke-linejoin="round" stroke-linecap="round" fill="none" d="
M -214.55 -122.05
L 214.55 -122.05 214.55 122 -214.55 122 -214.55 -122.05 Z"/>
</defs>

<g transform="matrix( 1, 0, 0, 1, 0,0) ">
<use xlink:href="#Layer0_0_FILL"/>
</g>

<g transform="matrix( 1, 0, 0, 1, 640,440) ">
<g transform="matrix( 1, 0, 0, 1, 0,0) ">
<use xlink:href="#__________xc343434_0_Layer2_0_FILL"/>
</g>

<g transform="matrix( 1, 0, 0, 1, -102.05,27.45) ">
<use xlink:href="#__________xc343434_0_Layer1_0_1_STROKES"/>
</g>

<g transform="matrix( -1, 0, 0, 1, 102.05,27.45) ">
<use xlink:href="#__________xc343434_0_Layer1_1_1_STROKES" transform="matrix( -1, 0, 0, 1, 102.05,-27.45) "/>
</g>

<g transform="matrix( -1, 0, 0, -1, 102.05,-27.5) ">
<use xlink:href="#__________xc343434_0_Layer1_2_1_STROKES" transform="matrix( -1, 0, 0, -1, 102.05,-27.5) "/>
</g>

<g transform="matrix( 1, 0, 0, -1, -102.05,-27.5) ">
<use xlink:href="#__________xc343434_0_Layer1_3_1_STROKES"/>
</g>

<g transform="matrix( 1, 0, 0, 1, 0,0) ">
<use xlink:href="#__________xc343434_0_Layer0_0_1_STROKES"/>
</g>
</g>
</svg>
