
<svg xmlns="http://www.w3.org/2000/svg" version="1.1" xmlns:xlink="http://www.w3.org/1999/xlink" preserveAspectRatio="none" x="0px" y="0px" width="1280px" height="720px" viewBox="0 0 1280 720">
<defs>
<g id="Layer0_0_FILL">
<path fill="#FFFFFF" stroke="none" d="
M 1001.3 374.2
Q 1001.3 359.2 986.3 359.2
L 876.3 359.2
Q 861.3 359.2 861.3 374.2
L 861.3 404.25
Q 861.3 419.25 876.3 419.25
L 986.3 419.25
Q 1001.3 419.25 1001.3 404.25
L 1001.3 374.2 Z"/>

<path fill="#1E1E1E" stroke="none" d="
M 1124.7 405.85
Q 1125.6 406.75 1126.9 406.75 1128.15 406.75 1129.05 405.85 1129.9 404.95 1129.9 403.65 1129.9 402.35 1129.05 401.5 1128.15 400.6 1126.9 400.6 1125.6 400.6 1124.7 401.5 1123.8 402.35 1123.8 403.65 1123.8 404.95 1124.7 405.85
M 1110.15 370.45
Q 1109.65 370.45 1109.65 371
L 1109.65 407.9
Q 1109.65 408.45 1110.15 408.45
L 1113.7 408.45
Q 1114.25 408.45 1114.25 407.9
L 1114.25 388.95 1119.65 388.95
Q 1119.85 388.95 1120.05 388.8 1120.25 388.6 1120.25 388.4
L 1120.25 385.6
Q 1120.25 385.4 1120.05 385.25 1119.85 385.1 1119.65 385.1
L 1114.25 385.1 1114.25 371
Q 1114.25 370.45 1113.7 370.45
L 1110.15 370.45
M 1092.15 393.6
Q 1091.4 393.55 1091.15 393.35 1090.95 393.15 1090.95 392.55
L 1090.95 378
Q 1090.95 377.3 1091.65 377.3
L 1103.55 377.3
Q 1104.1 377.3 1104.1 376.8
L 1104.1 374
Q 1104.1 373.45 1103.55 373.45
L 1089 373.45
Q 1087.5 373.45 1086.95 374 1086.35 374.6 1086.35 376
L 1086.35 394.95
Q 1086.35 396.4 1087.05 396.95 1087.75 397.55 1089.25 397.65 1090.9 397.75 1093.3 397.65 1095.7 397.6 1098.25 397.35 1100.8 397.15 1103.15 396.8 1105.55 396.4 1107.15 395.95 1107.35 395.85 1107.55 395.7 1107.7 395.6 1107.65 395.15
L 1107.2 392.8
Q 1107.05 392.2 1106.45 392.35 1104.65 392.65 1102.7 392.95 1100.65 393.2 1098.75 393.4 1096.85 393.6 1095.1 393.65 1093.4 393.75 1092.15 393.6
M 1074.25 370.45
Q 1073.7 370.45 1073.7 371
L 1073.7 407.9
Q 1073.7 408.45 1074.25 408.45
L 1077.8 408.45
Q 1078.3 408.45 1078.3 407.9
L 1078.3 371
Q 1078.3 370.45 1077.8 370.45
L 1074.25 370.45
M 1050.2 372.8
Q 1050 372.8 1049.8 372.95 1049.65 373.15 1049.65 373.35
L 1049.65 394.2
Q 1049.65 395.55 1050.3 396.35 1051 397.15 1052.55 397.2 1054.75 397.35 1057.15 397.3 1059.6 397.2 1061.95 397.05 1064.3 396.85 1066.5 396.55 1068.7 396.2 1070.45 395.75 1070.8 395.65 1071 395.4 1071.25 395.2 1071.15 394.9
L 1070.65 392.7
Q 1070.6 392.4 1070.4 392.2 1070.25 392 1069.8 392.05 1065.7 392.9 1061.95 393.2 1058.2 393.5 1055 393.3 1054.55 393.25 1054.4 393.15 1054.25 393.05 1054.25 392.65
L 1054.25 373.35
Q 1054.25 373.15 1054.05 372.95 1053.85 372.8 1053.65 372.8
L 1050.2 372.8
M 1017.55 392.7
Q 1017.35 392.7 1017.2 392.85 1017.05 393 1017.05 393.15
L 1017.05 405.05
Q 1017.05 406.6 1017.65 407.2 1018.3 407.8 1020.05 407.8
L 1037.35 407.8
Q 1039.1 407.8 1039.7 407.15 1040.35 406.5 1040.35 405.15
L 1040.35 393
Q 1040.35 392.8 1040.2 392.65 1040.05 392.5 1039.85 392.5
L 1036.25 392.5
Q 1036.05 392.5 1035.9 392.65 1035.75 392.8 1035.75 393
L 1035.75 396.85 1021.65 396.85 1021.65 393.15
Q 1021.65 393 1021.45 392.85 1021.25 392.7 1021.05 392.7
L 1017.55 392.7
M 1035.75 403.4
Q 1035.75 404.05 1035.05 404.05
L 1022.35 404.05
Q 1021.65 404.05 1021.65 403.4
L 1021.65 400.6 1035.75 400.6 1035.75 403.4
M 1036.25 370.45
Q 1035.75 370.45 1035.75 371
L 1035.75 390.1
Q 1035.75 390.65 1036.25 390.65
L 1039.85 390.65
Q 1040.35 390.65 1040.35 390.1
L 1040.35 371
Q 1040.35 370.45 1039.85 370.45
L 1036.25 370.45
M 1011.5 377.15
Q 1010.85 378.8 1010.85 380.6 1010.85 382.35 1011.5 383.95 1012.2 385.6 1013.45 386.85 1014.7 388.05 1016.5 388.8 1018.3 389.55 1020.45 389.55 1022.6 389.55 1024.35 388.8 1026.15 388.05 1027.4 386.85 1028.65 385.6 1029.35 383.95 1030.05 382.35 1030.05 380.6 1030.05 378.8 1029.35 377.15 1028.65 375.5 1027.4 374.25 1026.15 373 1024.35 372.3 1022.6 371.55 1020.45 371.55 1018.3 371.55 1016.5 372.3 1014.7 373 1013.45 374.25 1012.2 375.5 1011.5 377.15
M 1025.7 380.6
Q 1025.7 381.6 1025.3 382.55 1024.9 383.5 1024.2 384.25 1023.5 384.95 1022.55 385.35 1021.6 385.75 1020.45 385.75 1019.25 385.75 1018.3 385.35 1017.35 384.95 1016.7 384.25 1016 383.5 1015.6 382.55 1015.25 381.6 1015.25 380.6 1015.25 379.55 1015.6 378.6 1016 377.65 1016.7 376.9 1017.35 376.2 1018.3 375.75 1019.25 375.3 1020.45 375.3 1021.6 375.3 1022.55 375.75 1023.5 376.2 1024.2 376.9 1024.9 377.65 1025.3 378.6 1025.7 379.55 1025.7 380.6
M 816.8 395.4
L 813.4 395.4
Q 813.15 395.4 813 395.6 812.8 395.75 812.8 396
L 812.8 404.65
Q 812.8 406.2 813.45 406.85 814.05 407.5 815.9 407.5
L 837.9 407.5
Q 838.1 407.5 838.3 407.35 838.5 407.25 838.5 407
L 838.5 404.15
Q 838.5 403.95 838.3 403.8 838.1 403.65 837.9 403.65
L 818.15 403.65
Q 817.75 403.65 817.6 403.55 817.4 403.45 817.4 403
L 817.4 396
Q 817.4 395.75 817.25 395.6 817.05 395.4 816.8 395.4
M 816.95 371.2
L 813.5 371.2
Q 813.3 371.2 813.1 371.35 812.95 371.55 812.95 371.75
L 812.95 381.8
Q 812.95 383.35 813.55 384 814.2 384.65 816 384.65
L 837.45 384.65
Q 837.65 384.65 837.85 384.55 838 384.4 838 384.15
L 838 381.3
Q 838 381.1 837.85 380.95 837.65 380.8 837.45 380.8
L 818.35 380.8
Q 817.9 380.8 817.75 380.7 817.6 380.6 817.6 380.2
L 817.6 371.75
Q 817.6 371.55 817.4 371.35 817.2 371.2 816.95 371.2
M 807.6 388.8
Q 807 388.8 807 389.35
L 807 392
Q 807 392.2 807.15 392.4 807.3 392.65 807.6 392.65
L 842.35 392.65
Q 842.6 392.65 842.75 392.4 842.95 392.2 842.95 392
L 842.95 389.35
Q 842.95 389.15 842.75 388.95 842.6 388.8 842.35 388.8
L 807.6 388.8
M 789.35 370.45
L 785.95 370.35
Q 785.65 370.35 785.45 370.55 785.3 370.75 785.25 371.05 785 373.55 784.05 375.5 783.1 377.4 781.45 378.9 779.8 380.4 777.55 381.5 775.3 382.6 772.45 383.4 772.15 383.45 772 383.7 771.9 384 772 384.25
L 773.4 386.85
Q 773.5 387 773.75 387.05 774.05 387.05 774.35 387 778.9 385.8 782.35 383.65 785.8 381.45 787.7 378.4 788.55 379.8 790 381.05 791.45 382.35 793.2 383.45 795 384.5 796.95 385.3 798.9 386.05 800.85 386.4 801.5 386.55 801.7 386.05
L 802.9 383.4
Q 803 383.1 802.85 382.9 802.7 382.7 802.4 382.65 800.25 382.1 798.2 381.2 796.15 380.3 794.45 379.05 792.75 377.85 791.45 376.4 790.2 374.95 789.65 373.3 789.8 372.3 789.9 371.1 789.9 370.45 789.35 370.45
M 769.4 391.25
L 769.4 393.85
Q 769.4 394.05 769.55 394.3 769.7 394.5 770 394.5
L 785.05 394.5 785.05 407.6
Q 785.05 408.15 785.6 408.15
L 789.1 408.15
Q 789.65 408.15 789.65 407.6
L 789.65 394.5 804.8 394.5
Q 805 394.5 805.2 394.3 805.4 394.05 805.4 393.85
L 805.4 391.25
Q 805.4 391.05 805.2 390.85 805 390.65 804.8 390.65
L 770 390.65
Q 769.7 390.65 769.55 390.85 769.4 391.05 769.4 391.25
M 729.5 395.4
Q 729.3 395.6 729.3 395.75
L 729.3 404.8
Q 729.3 406.4 729.95 407 730.55 407.65 732.35 407.65
L 753.1 407.65
Q 753.3 407.65 753.5 407.55 753.7 407.4 753.7 407.2
L 753.7 404.3
Q 753.7 404.1 753.5 403.95 753.3 403.8 753.1 403.8
L 734.7 403.8
Q 734.3 403.8 734.15 403.7 733.95 403.6 733.95 403.15
L 733.95 395.75
Q 733.95 395.6 733.8 395.4 733.6 395.25 733.35 395.25
L 729.9 395.25
Q 729.7 395.25 729.5 395.4
M 752.45 371
Q 752.45 370.45 751.95 370.45
L 748.35 370.45
Q 747.85 370.45 747.85 371
L 747.85 396.85
Q 747.85 397.4 748.35 397.4
L 751.95 397.4
Q 752.45 397.4 752.45 396.9
L 752.45 371
M 723.4 378.1
Q 722.7 379.8 722.7 381.75 722.7 383.75 723.4 385.5 724.15 387.25 725.4 388.55 726.7 389.85 728.45 390.6 730.2 391.4 732.35 391.4 734.55 391.4 736.35 390.6 738.15 389.85 739.45 388.55 740.75 387.25 741.45 385.5 742.15 383.75 742.15 381.75 742.15 379.8 741.45 378.1 740.75 376.35 739.45 375 738.15 373.65 736.35 372.9 734.55 372.1 732.35 372.1 730.2 372.1 728.45 372.9 726.7 373.65 725.4 375 724.15 376.35 723.4 378.1
M 727.6 379.65
Q 728 378.6 728.65 377.85 729.3 377.1 730.3 376.65 731.2 376.2 732.35 376.2 733.5 376.2 734.5 376.65 735.45 377.1 736.15 377.85 736.85 378.6 737.25 379.65 737.6 380.65 737.6 381.85 737.6 383 737.25 384.05 736.85 385.1 736.15 385.85 735.45 386.6 734.5 387.05 733.5 387.5 732.35 387.5 731.2 387.5 730.3 387.05 729.3 386.6 728.65 385.85 728 385.1 727.6 384.05 727.2 383 727.2 381.85 727.2 380.65 727.6 379.65
M 713 370.45
Q 712.45 370.45 712.45 371
L 712.45 385.15 708.75 385.15 708.75 371.7
Q 708.75 371.2 708.2 371.2
L 704.95 371.2
Q 704.4 371.2 704.4 371.7
L 704.4 406.4
Q 704.4 406.95 704.95 406.95
L 708.2 406.95
Q 708.75 406.95 708.75 406.4
L 708.75 389 712.45 389 712.45 407.9
Q 712.45 408.45 712.95 408.45
L 716.45 408.45
Q 717 408.45 717 407.9
L 717 371
Q 717 370.45 716.45 370.45
L 713 370.45
M 686.35 373.6
Q 686.15 373.6 685.95 373.75 685.75 373.9 685.75 374.1
L 685.75 376.85
Q 685.75 377.35 686.35 377.35
L 695.2 377.35
Q 696 377.35 696.2 377.65 696.4 377.95 696.35 378.8 696.3 380.75 695.45 383.1 694.6 385.4 693.05 387.7 691.55 389.95 689.35 392.1 687.15 394.25 684.45 395.9 684.25 396.05 684.1 396.35 683.95 396.65 684.2 397
L 685.8 399.25
Q 686 399.5 686.35 399.45 686.65 399.4 687 399.25 690.1 397.2 692.7 394.7 695.25 392.2 697.05 389.3 698.85 386.4 699.85 383.15 700.85 379.95 700.9 376.45 700.95 374.9 700.35 374.25 699.7 373.6 697.95 373.6
L 686.35 373.6
M 667.45 385.05
Q 666.7 385.4 666.1 385.85 665.5 386.3 665.15 386.8 665.4 384.85 666 383.15 666.55 381.5 667.55 380.25 668.55 379 670 378.3 671.5 377.65 673.55 377.65 674.95 377.65 676.15 377.75 677.3 377.85 678.35 378.25 678.9 378.5 679 377.95
L 679.1 374.75
Q 679.15 374.35 678.8 374.25 677.9 373.9 676.45 373.7 675.05 373.5 673.9 373.5 670.15 373.5 667.6 374.8 665.05 376.15 663.45 378.4 661.9 380.6 661.2 383.65 660.5 386.65 660.5 390.05 660.5 397.5 663.05 401.05 665.6 404.6 670.3 404.6 672.6 404.6 674.45 403.8 676.3 403 677.6 401.55 678.9 400.2 679.55 398.25 680.25 396.4 680.25 394.2 680.25 391.9 679.55 390.1 678.85 388.25 677.55 386.95 676.3 385.65 674.5 384.95 672.75 384.25 670.55 384.25 669.8 384.25 669 384.5 668.2 384.7 667.45 385.05
M 665.15 394
Q 665.15 391.55 666.65 390 668.1 388.45 670.7 388.45 673.15 388.45 674.5 390.05 675.85 391.6 675.85 394.4 675.85 397.25 674.35 398.95 672.8 400.6 670.4 400.6 669.3 400.6 668.3 400.1 667.35 399.6 666.65 398.7 665.95 397.8 665.55 396.55 665.15 395.4 665.15 394
M 626.55 373.8
Q 624.75 372.85 622.4 372.85 620.1 372.85 618.3 373.8 616.45 374.75 615.2 376.45 613.95 378.15 613.25 380.6 612.55 383 612.55 386.05 612.55 388.95 613.25 391.4 613.95 393.8 615.2 395.55 616.45 397.3 618.3 398.25 620.1 399.25 622.4 399.25 624.75 399.25 626.55 398.25 628.35 397.35 629.65 395.6 630.9 393.9 631.55 391.45 632.25 389 632.25 386.05 632.25 383 631.55 380.6 630.9 378.15 629.65 376.45 628.35 374.75 626.55 373.8
M 618.5 379.6
Q 619.15 378.4 620.15 377.65 621.1 376.95 622.4 376.95 623.65 376.95 624.65 377.65 625.65 378.4 626.35 379.6 627 380.85 627.35 382.55 627.7 384.2 627.7 386.05 627.7 387.8 627.35 389.5 627 391.15 626.35 392.4 625.65 393.65 624.65 394.4 623.65 395.15 622.4 395.15 621.1 395.15 620.15 394.4 619.15 393.65 618.5 392.4 617.8 391.15 617.45 389.5 617.05 387.8 617.05 386.05 617.05 384.2 617.45 382.55 617.8 380.85 618.5 379.6
M 638.1 370.45
Q 637.55 370.45 637.55 371
L 637.55 407.9
Q 637.55 408.45 638.1 408.45
L 641.65 408.45
Q 642.15 408.45 642.15 407.9
L 642.15 371
Q 642.15 370.45 641.65 370.45
L 638.1 370.45
M 486.25 402.05
Q 486.3 401.85 486.25 401.55 486.25 401.3 485.75 401.3
L 481.85 401.3
Q 481.4 401.3 481.25 401.5 481.1 401.75 481 401.95
L 479.05 409.25
Q 478.95 409.45 479.1 409.6 479.2 409.75 479.4 409.75
L 482.6 409.75
Q 482.85 409.75 483.15 409.65 483.35 409.55 483.5 409.25
L 486.25 402.05
M 532.85 401.5
Q 531.95 400.6 530.7 400.6 529.4 400.6 528.5 401.5 527.6 402.35 527.6 403.65 527.6 404.95 528.5 405.85 529.4 406.75 530.7 406.75 531.95 406.75 532.85 405.85 533.7 404.95 533.7 403.65 533.7 402.35 532.85 401.5
M 599.95 374
Q 599.85 373.85 599.15 373.85
L 597.05 373.85
Q 596.9 373.85 596.7 373.95 596.5 374 596.45 374.1
L 590.3 379.75
Q 590.1 379.95 590.1 380.15 590.05 380.4 590.2 380.55
L 592 382.7
Q 592.15 382.85 592.4 382.8 592.65 382.8 592.9 382.65
L 595.85 380.05 595.85 403.75
Q 595.85 404.25 596.4 404.25
L 599.6 404.25
Q 600.1 404.25 600.1 403.75
L 600.1 374.95
Q 600.1 374.15 599.95 374
M 563.3 383.8
Q 562.95 386.55 562.95 389 562.95 396.35 565.4 400.4 567.85 404.45 573 404.45 575.55 404.45 577.4 403.45 579.25 402.35 580.5 400.4 581.75 398.45 582.35 395.55 582.95 392.65 582.95 389 582.95 387.35 582.75 385.6 582.6 383.8 582.2 382.1 581.8 380.4 581.1 378.85 580.4 377.3 579.25 376.1 578.2 374.95 576.6 374.25 575.05 373.6 573 373.6 569.8 373.6 567.85 375.05 565.9 376.55 564.8 378.8 563.7 381.1 563.3 383.8
M 570.7 378.55
Q 571.7 377.95 573 377.95 574.2 377.95 575.25 378.55 576.25 379.1 577 380.4 577.7 381.75 578.1 383.85 578.45 386 578.45 389 578.45 392.1 578.1 394.25 577.7 396.35 577 397.65 576.25 399 575.25 399.55 574.2 400.15 573 400.15 571.7 400.15 570.7 399.55 569.7 399 569 397.65 568.25 396.35 567.9 394.25 567.5 392.1 567.5 389 567.5 386 567.9 383.85 568.25 381.75 569 380.4 569.7 379.1 570.7 378.55
M 539.05 383.8
Q 538.7 386.55 538.7 389 538.7 396.35 541.15 400.4 543.6 404.45 548.75 404.45 551.3 404.45 553.15 403.45 555 402.35 556.25 400.4 557.5 398.45 558.1 395.55 558.7 392.65 558.7 389 558.7 387.35 558.5 385.6 558.35 383.8 557.95 382.1 557.55 380.4 556.85 378.85 556.15 377.3 555 376.1 553.95 374.95 552.35 374.25 550.8 373.6 548.75 373.6 545.55 373.6 543.6 375.05 541.65 376.55 540.55 378.8 539.45 381.1 539.05 383.8
M 543.65 394.25
Q 543.25 392.1 543.25 389 543.25 386 543.65 383.85 544 381.75 544.75 380.4 545.45 379.1 546.45 378.55 547.45 377.95 548.75 377.95 549.95 377.95 551 378.55 552 379.1 552.75 380.4 553.45 381.75 553.85 383.85 554.2 386 554.2 389 554.2 392.1 553.85 394.25 553.45 396.35 552.75 397.65 552 399 551 399.55 549.95 400.15 548.75 400.15 547.45 400.15 546.45 399.55 545.45 399 544.75 397.65 544 396.35 543.65 394.25
M 502.7 383.8
Q 502.35 386.55 502.35 389 502.35 396.35 504.8 400.4 507.25 404.45 512.4 404.45 514.95 404.45 516.8 403.45 518.65 402.35 519.9 400.4 521.15 398.45 521.75 395.55 522.35 392.65 522.35 389 522.35 387.35 522.15 385.6 522 383.8 521.6 382.1 521.2 380.4 520.5 378.85 519.8 377.3 518.65 376.1 517.6 374.95 516 374.25 514.45 373.6 512.4 373.6 509.2 373.6 507.25 375.05 505.3 376.55 504.2 378.8 503.1 381.1 502.7 383.8
M 510.1 378.55
Q 511.1 377.95 512.4 377.95 513.6 377.95 514.65 378.55 515.65 379.1 516.4 380.4 517.1 381.75 517.5 383.85 517.85 386 517.85 389 517.85 392.1 517.5 394.25 517.1 396.35 516.4 397.65 515.65 399 514.65 399.55 513.6 400.15 512.4 400.15 511.1 400.15 510.1 399.55 509.1 399 508.4 397.65 507.65 396.35 507.3 394.25 506.9 392.1 506.9 389 506.9 386 507.3 383.85 507.65 381.75 508.4 380.4 509.1 379.1 510.1 378.55
M 469.95 370.45
Q 469.4 370.45 469.4 371
L 469.4 385.15 465.7 385.15 465.7 371.7
Q 465.7 371.2 465.15 371.2
L 461.9 371.2
Q 461.35 371.2 461.35 371.7
L 461.35 406.4
Q 461.35 406.95 461.9 406.95
L 465.15 406.95
Q 465.7 406.95 465.7 406.4
L 465.7 389 469.4 389 469.4 407.9
Q 469.4 408.45 469.9 408.45
L 473.4 408.45
Q 473.95 408.45 473.95 407.9
L 473.95 371
Q 473.95 370.45 473.4 370.45
L 469.95 370.45
M 443.3 373.6
Q 443.1 373.6 442.9 373.75 442.7 373.9 442.7 374.1
L 442.7 376.85
Q 442.7 377.35 443.3 377.35
L 452.15 377.35
Q 452.95 377.35 453.15 377.65 453.35 377.95 453.3 378.8 453.25 380.75 452.4 383.1 451.55 385.4 450 387.7 448.5 389.95 446.3 392.1 444.1 394.25 441.4 395.9 441.2 396.05 441.05 396.35 440.9 396.65 441.15 397
L 442.75 399.25
Q 442.95 399.5 443.3 399.45 443.6 399.4 443.95 399.25 447.05 397.2 449.65 394.7 452.2 392.2 454 389.3 455.8 386.4 456.8 383.15 457.8 379.95 457.85 376.45 457.9 374.9 457.3 374.25 456.65 373.6 454.9 373.6
L 443.3 373.6
M 418.75 375.25
Q 418.6 375.4 418.7 375.65
L 419.05 378.6
Q 419.15 378.95 419.35 379.05 419.55 379.15 420.05 378.95 420.65 378.7 421.45 378.45 422.25 378.2 423.05 378.05 423.85 377.85 424.6 377.75 425.3 377.65 425.85 377.65 426.7 377.65 427.65 377.85 428.6 378.05 429.45 378.55 430.25 379 430.8 379.8 431.3 380.55 431.3 381.55 431.3 382.9 430.5 383.8 429.7 384.75 428.5 385.35 427.35 385.95 426.1 386.2 424.85 386.45 424 386.45
L 422.1 386.45
Q 421.75 386.45 421.65 386.55 421.55 386.6 421.55 387
L 421.55 389.95
Q 421.55 390.25 421.65 390.35 421.75 390.45 422.1 390.45
L 424.05 390.45
Q 426 390.45 427.35 390.85 428.75 391.2 429.65 391.9 430.5 392.55 430.95 393.4 431.35 394.25 431.35 395.2 431.35 397.85 429.4 399.2 428.75 399.65 428 399.9 427.2 400.2 426.35 400.3 425.5 400.4 424.6 400.35 423.7 400.3 422.9 400.25 421.8 400.15 420.75 399.85 419.7 399.55 418.65 399.25 418.1 399 417.9 399.15 417.7 399.25 417.65 399.6
L 417.3 402.65
Q 417.25 403 417.45 403.15 417.6 403.35 418 403.45 419.45 404 421.2 404.3 422.95 404.6 424.7 404.6 427 404.6 429.15 404 431.3 403.45 432.8 402.2 434.3 400.95 435.15 399.2 435.95 397.4 435.95 395.3 435.95 393.1 434.6 391.3 433.25 389.55 430.6 388.4 431.7 387.9 432.65 387.15 433.6 386.4 434.3 385.4 435 384.45 435.4 383.4 435.75 382.3 435.75 381.2 435.75 379.2 434.9 377.7 434.05 376.2 432.7 375.3 431.4 374.4 429.65 373.95 427.9 373.5 426.1 373.5 424.4 373.5 422.75 373.85 421.05 374.25 419.3 374.85 418.9 375.05 418.75 375.25
M 383.5 373.8
Q 381.7 372.85 379.35 372.85 377.05 372.85 375.25 373.8 373.4 374.75 372.15 376.45 370.9 378.15 370.2 380.6 369.5 383 369.5 386.05 369.5 388.95 370.2 391.4 370.9 393.8 372.15 395.55 373.4 397.3 375.25 398.25 377.05 399.25 379.35 399.25 381.7 399.25 383.5 398.25 385.3 397.35 386.6 395.6 387.85 393.9 388.5 391.45 389.2 389 389.2 386.05 389.2 383 388.5 380.6 387.85 378.15 386.6 376.45 385.3 374.75 383.5 373.8
M 375.45 379.6
Q 376.1 378.4 377.1 377.65 378.05 376.95 379.35 376.95 380.6 376.95 381.6 377.65 382.6 378.4 383.3 379.6 383.95 380.85 384.3 382.55 384.65 384.2 384.65 386.05 384.65 387.8 384.3 389.5 383.95 391.15 383.3 392.4 382.6 393.65 381.6 394.4 380.6 395.15 379.35 395.15 378.05 395.15 377.1 394.4 376.1 393.65 375.45 392.4 374.75 391.15 374.4 389.5 374 387.8 374 386.05 374 384.2 374.4 382.55 374.75 380.85 375.45 379.6
M 395.05 370.45
Q 394.5 370.45 394.5 371
L 394.5 407.9
Q 394.5 408.45 395.05 408.45
L 398.6 408.45
Q 399.1 408.45 399.1 407.9
L 399.1 371
Q 399.1 370.45 398.6 370.45
L 395.05 370.45
M 336.15 406.75
Q 337.4 406.75 338.3 405.85 339.15 404.95 339.15 403.65 339.15 402.35 338.3 401.5 337.4 400.6 336.15 400.6 334.85 400.6 333.95 401.5 333.05 402.35 333.05 403.65 333.05 404.95 333.95 405.85 334.85 406.75 336.15 406.75
M 356.9 374
Q 356.8 373.85 356.1 373.85
L 354 373.85
Q 353.85 373.85 353.65 373.95 353.45 374 353.4 374.1
L 347.25 379.75
Q 347.05 379.95 347.05 380.15 347 380.4 347.15 380.55
L 348.95 382.7
Q 349.1 382.85 349.35 382.8 349.6 382.8 349.85 382.65
L 352.8 380.05 352.8 403.75
Q 352.8 404.25 353.35 404.25
L 356.55 404.25
Q 357.05 404.25 357.05 403.75
L 357.05 374.95
Q 357.05 374.15 356.9 374
M 327.2 395.55
Q 327.8 392.65 327.8 389 327.8 387.35 327.6 385.6 327.45 383.8 327.05 382.1 326.65 380.4 325.95 378.85 325.25 377.3 324.1 376.1 323.05 374.95 321.45 374.25 319.9 373.6 317.85 373.6 314.65 373.6 312.7 375.05 310.75 376.55 309.65 378.8 308.55 381.1 308.15 383.8 307.8 386.55 307.8 389 307.8 396.35 310.25 400.4 312.7 404.45 317.85 404.45 320.4 404.45 322.25 403.45 324.1 402.35 325.35 400.4 326.6 398.45 327.2 395.55
M 317.85 377.95
Q 319.05 377.95 320.1 378.55 321.1 379.1 321.85 380.4 322.55 381.75 322.95 383.85 323.3 386 323.3 389 323.3 392.1 322.95 394.25 322.55 396.35 321.85 397.65 321.1 399 320.1 399.55 319.05 400.15 317.85 400.15 316.55 400.15 315.55 399.55 314.55 399 313.85 397.65 313.1 396.35 312.75 394.25 312.35 392.1 312.35 389 312.35 386 312.75 383.85 313.1 381.75 313.85 380.4 314.55 379.1 315.55 378.55 316.55 377.95 317.85 377.95
M 291.7 402.05
Q 291.75 401.85 291.7 401.55 291.7 401.3 291.2 401.3
L 287.3 401.3
Q 286.85 401.3 286.7 401.5 286.55 401.75 286.45 401.95
L 284.5 409.25
Q 284.4 409.45 284.55 409.6 284.65 409.75 284.85 409.75
L 288.05 409.75
Q 288.3 409.75 288.6 409.65 288.8 409.55 288.95 409.25
L 291.7 402.05
M 262.75 374.25
Q 262.1 373.6 260.35 373.6
L 248.75 373.6
Q 248.55 373.6 248.35 373.75 248.15 373.9 248.15 374.1
L 248.15 376.85
Q 248.15 377.35 248.75 377.35
L 257.6 377.35
Q 258.4 377.35 258.6 377.65 258.8 377.95 258.75 378.8 258.7 380.75 257.85 383.1 257 385.4 255.45 387.7 253.95 389.95 251.75 392.1 249.55 394.25 246.85 395.9 246.65 396.05 246.5 396.35 246.35 396.65 246.6 397
L 248.2 399.25
Q 248.4 399.5 248.75 399.45 249.05 399.4 249.4 399.25 252.5 397.2 255.1 394.7 257.65 392.2 259.45 389.3 261.25 386.4 262.25 383.15 263.25 379.95 263.3 376.45 263.35 374.9 262.75 374.25
M 275.4 370.45
Q 274.85 370.45 274.85 371
L 274.85 385.15 271.15 385.15 271.15 371.7
Q 271.15 371.2 270.6 371.2
L 267.35 371.2
Q 266.8 371.2 266.8 371.7
L 266.8 406.4
Q 266.8 406.95 267.35 406.95
L 270.6 406.95
Q 271.15 406.95 271.15 406.4
L 271.15 389 274.85 389 274.85 407.9
Q 274.85 408.45 275.35 408.45
L 278.85 408.45
Q 279.4 408.45 279.4 407.9
L 279.4 371
Q 279.4 370.45 278.85 370.45
L 275.4 370.45
M 240.45 382
Q 240.45 379.9 239.75 378.3 239.05 376.7 237.9 375.65 236.75 374.6 235.1 374.05 233.5 373.5 231.55 373.5 229.7 373.5 227.7 374.15 225.75 374.8 224.25 375.6 223.85 375.8 223.7 376.05 223.6 376.2 223.7 376.4
L 224.25 379.45
Q 224.35 379.8 224.65 379.85 224.95 379.85 225.3 379.65 227.1 378.6 228.6 378.15 230.15 377.7 231.8 377.7 233.55 377.7 234.7 378.95 235.9 380.2 235.9 382.1 235.9 383.8 234.3 386.4 232.7 389.05 229.35 393
L 223.25 400.25
Q 223.05 400.55 222.85 400.85 222.7 401.2 222.7 401.5
L 222.7 403.8
Q 222.7 404.3 223.45 404.3
L 240.5 404.3
Q 241.05 404.3 241.05 403.6
L 241.05 400.8
Q 241.05 400.2 240.5 400.2
L 228.75 400.2
Q 229.75 399.05 230.75 397.9 231.75 396.7 232.6 395.6 233.7 394.3 235.1 392.7 236.45 391.05 237.65 389.3 238.85 387.5 239.65 385.65 240.45 383.8 240.45 382
M 177.6 376.45
Q 176.35 378.15 175.65 380.6 174.95 383 174.95 386.05 174.95 388.95 175.65 391.4 176.35 393.8 177.6 395.55 178.85 397.3 180.7 398.25 182.5 399.25 184.8 399.25 187.15 399.25 188.95 398.25 190.75 397.35 192.05 395.6 193.3 393.9 193.95 391.45 194.65 389 194.65 386.05 194.65 383 193.95 380.6 193.3 378.15 192.05 376.45 190.75 374.75 188.95 373.8 187.15 372.85 184.8 372.85 182.5 372.85 180.7 373.8 178.85 374.75 177.6 376.45
M 179.85 382.55
Q 180.2 380.85 180.9 379.6 181.55 378.4 182.55 377.65 183.5 376.95 184.8 376.95 186.05 376.95 187.05 377.65 188.05 378.4 188.75 379.6 189.4 380.85 189.75 382.55 190.1 384.2 190.1 386.05 190.1 387.8 189.75 389.5 189.4 391.15 188.75 392.4 188.05 393.65 187.05 394.4 186.05 395.15 184.8 395.15 183.5 395.15 182.55 394.4 181.55 393.65 180.9 392.4 180.2 391.15 179.85 389.5 179.45 387.8 179.45 386.05 179.45 384.2 179.85 382.55
M 200.5 370.45
Q 199.95 370.45 199.95 371
L 199.95 407.9
Q 199.95 408.45 200.5 408.45
L 204.05 408.45
Q 204.55 408.45 204.55 407.9
L 204.55 371
Q 204.55 370.45 204.05 370.45
L 200.5 370.45
M 161.55 373.85
L 159.45 373.85
Q 159.3 373.85 159.1 373.95 158.9 374 158.85 374.1
L 152.7 379.75
Q 152.5 379.95 152.5 380.15 152.45 380.4 152.6 380.55
L 154.4 382.7
Q 154.55 382.85 154.8 382.8 155.05 382.8 155.3 382.65
L 158.25 380.05 158.25 403.75
Q 158.25 404.25 158.8 404.25
L 162 404.25
Q 162.5 404.25 162.5 403.75
L 162.5 374.95
Q 162.5 374.15 162.35 374 162.25 373.85 161.55 373.85 Z"/>
</g>

<path id="Layer0_0_1_STROKES" stroke="#DBDBDB" stroke-width="3" stroke-linejoin="round" stroke-linecap="round" fill="none" d="
M 876.3 359.2
L 986.3 359.2
Q 1001.3 359.2 1001.3 374.2
L 1001.3 404.25
Q 1001.3 419.25 986.3 419.25
L 876.3 419.25
Q 861.3 419.25 861.3 404.25
L 861.3 374.2
Q 861.3 359.2 876.3 359.2 Z"/>
</defs>

<g transform="matrix( 1, 0, 0, 1, 0,0) ">
<use xlink:href="#Layer0_0_FILL"/>

<use xlink:href="#Layer0_0_1_STROKES"/>
</g>
</svg>
