<?xml version="1.0" encoding="utf-8"?>
<!-- Generator: Adobe Illustrator 23.1.0, SVG Export Plug-In . SVG Version: 6.00 Build 0)  -->
<svg version="1.1" id="레이어_1" xmlns="http://www.w3.org/2000/svg" xmlns:xlink="http://www.w3.org/1999/xlink" x="0px"
	 y="0px" width="556px" height="294px" viewBox="0 0 556 294" style="enable-background:new 0 0 556 294;" xml:space="preserve">
<path style="fill:#FFFFFF;" d="M547.6,290.6H12.3c-2.6,0-4.7-2.1-4.7-4.7V8c0-2.6,2.1-4.7,4.7-4.7h535.3c2.6,0,4.7,2.1,4.7,4.7
	v277.8C552.3,288.5,550.2,290.6,547.6,290.6z"/>
<g>
	<g>
		<path style="fill:#E3BEA2;" d="M547.3,291.9H12.9c-5.8,0-7.3-4.8-7.3-7.3V66.4c0-0.8,0.7-1.5,1.5-1.5s1.5,0.7,1.5,1.5v218.1
			c0,0.7,0.3,4.2,4.2,4.2h534.4c0.7,0,4.2-0.3,4.2-4.2V8.3c0-0.7-0.3-4.2-4.2-4.2H12.9c-0.7,0-4.2,0.3-4.2,4.2v6.6
			c0,0.8-0.7,1.5-1.5,1.5s-1.5-0.7-1.5-1.5V8.3c0-5.8,4.8-7.3,7.3-7.3h534.4c5.8,0,7.3,4.8,7.3,7.3v276.3
			C554.6,290.3,549.8,291.9,547.3,291.9z M7.2,54.9c-0.8,0-1.5-0.7-1.5-1.5v-6.6c0-0.8,0.7-1.5,1.5-1.5s1.5,0.7,1.5,1.5v6.6
			C8.7,54.2,8,54.9,7.2,54.9z M7.2,36.2c-0.8,0-1.5-0.7-1.5-1.5v-6.3c0-0.8,0.7-1.5,1.5-1.5s1.5,0.7,1.5,1.5v6.3
			C8.7,35.6,8,36.2,7.2,36.2z"/>
	</g>
	<g>
		<path style="fill:#E3BEA2;" d="M11,61.7H3.3c-1.3,0-2.3-1-2.3-2.3s1-2.3,2.3-2.3H11c1.3,0,2.3,1,2.3,2.3S12.3,61.7,11,61.7z
			 M11,43H3.3C2,43,1,41.9,1,40.7c0-1.3,1-2.3,2.3-2.3H11c1.3,0,2.3,1,2.3,2.3C13.3,41.9,12.3,43,11,43z M11,24.8H3.3
			c-1.3,0-2.3-1-2.3-2.3s1-2.3,2.3-2.3H11c1.3,0,2.3,1,2.3,2.3S12.3,24.8,11,24.8z"/>
	</g>
</g>
</svg>
