<?xml version="1.0" encoding="utf-8"?>
<!-- Generator: Adobe Illustrator 23.0.0, SVG Export Plug-In . SVG Version: 6.00 Build 0)  -->
<svg version="1.1" id="레이어_1" xmlns="http://www.w3.org/2000/svg" xmlns:xlink="http://www.w3.org/1999/xlink" x="0px"
	 y="0px" width="305px" height="304px" viewBox="0 0 305 304" style="enable-background:new 0 0 305 304;" xml:space="preserve">
<g>
	
		<linearGradient id="SVGID_1_" gradientUnits="userSpaceOnUse" x1="-918.6747" y1="85.3932" x2="-917.544" y2="85.3932" gradientTransform="matrix(126.5508 0 0 126.5508 116263.8203 -10654.6787)">
		<stop  offset="0" style="stop-color:#71BF45"/>
		<stop  offset="1" style="stop-color:#409F4F"/>
	</linearGradient>
	<polygon style="fill:url(#SVGID_1_);" points="4.8,8.8 147.9,150.4 147.9,152.4 4.8,295 	"/>
	<path style="fill:#379342;" d="M7.7,15.7l65,65l4-4l-4,4L144,152L7.7,288.3V15.7z M2,2v300l150-150L76.7,76.7l0,0l0,0L2,2z"/>
</g>
<g>
	<g>
		<defs>
			<polygon id="SVGID_2_" points="9.7,299.2 296.2,299.2 153,156 			"/>
		</defs>
		<clipPath id="SVGID_3_">
			<use xlink:href="#SVGID_2_"  style="overflow:visible;"/>
		</clipPath>
		
			<linearGradient id="SVGID_4_" gradientUnits="userSpaceOnUse" x1="-847.1299" y1="160.5242" x2="-845.9991" y2="160.5242" gradientTransform="matrix(253.2725 0 0 253.2725 214564.4063 -40428.7773)">
			<stop  offset="0" style="stop-color:#7DE7FF"/>
			<stop  offset="7.843140e-03" style="stop-color:#7DE7FF"/>
			<stop  offset="0.9961" style="stop-color:#3AB0E6"/>
			<stop  offset="1" style="stop-color:#3AB0E6"/>
		</linearGradient>
		<rect x="9.7" y="156" style="clip-path:url(#SVGID_3_);fill:url(#SVGID_4_);" width="286.4" height="143.2"/>
	</g>
</g>
<g>
	<path style="fill:#17AACC;" d="M153,160l136.4,136.4H16.6L153,160z M153,152L3,301.9v0.1h300L153,152z"/>
</g>
</svg>
