<?xml version="1.0" encoding="utf-8"?>
<!-- Generator: Adobe Illustrator 24.1.1, SVG Export Plug-In . SVG Version: 6.00 Build 0)  -->
<svg version="1.1" id="레이어_1" xmlns="http://www.w3.org/2000/svg" xmlns:xlink="http://www.w3.org/1999/xlink" x="0px"
	 y="0px" width="332px" height="150px" viewBox="0 0 332 150" style="enable-background:new 0 0 332 150;" xml:space="preserve">
<g>
	<g>
		<g>
			<linearGradient id="SVGID_1_" gradientUnits="userSpaceOnUse" x1="12.2" y1="120.45" x2="326.5" y2="120.45">
				<stop  offset="0" style="stop-color:#B5B6B6"/>
				<stop  offset="1" style="stop-color:#FFFFFF"/>
			</linearGradient>
			<polygon style="fill:url(#SVGID_1_);" points="12.2,142.4 326.5,148.3 310.4,122.9 16,92.6 			"/>
		</g>
	</g>
	<path style="fill:#FFFFFF;" d="M319.5,141.5H18.3c-6.7,0-12.1-4.7-12.1-10.5V12.5C6.3,6.7,11.7,2,18.3,2h301.2
		c6.7,0,10.7,4.7,10.7,10.5V131C330.2,136.8,326.2,141.5,319.5,141.5"/>
	<path style="fill:none;stroke:#B0ADD5;stroke-width:2;stroke-linecap:round;stroke-linejoin:round;stroke-miterlimit:10;" d="
		M319.5,141.5H18.3c-6.7,0-12.1-4.7-12.1-10.5V12.5C6.3,6.7,11.7,2,18.3,2h301.2c6.7,0,10.7,4.7,10.7,10.5V131
		C330.2,136.8,326.2,141.5,319.5,141.5z"/>
	<path style="fill:#B0ADD5;" d="M19.1,141.5h-6.4C6,141.5,2,136.8,2,131V12.5C2,6.7,6,2,12.7,2h6.4V141.5z"/>
	<path style="fill:none;stroke:#B0ADD5;stroke-width:2;stroke-linecap:round;stroke-linejoin:round;stroke-miterlimit:10;" d="
		M19.1,141.5h-6.4C6,141.5,2,136.8,2,131V12.5C2,6.7,6,2,12.7,2h6.4V141.5z"/>
</g>
<g>
	<path d="M53.5,41.3c-0.1,0.8-0.4,1.3-0.9,1.6c-0.5,0.3-1.1,0.5-1.8,0.4c-1.4-0.1-2.1-0.8-2.1-2.1c0-0.4,0-1,0-1.9c0-0.9,0-1.9,0-3
		s0-2.4,0-3.7c0-1.3,0-2.5,0.1-3.7c0-1.2,0-2.3,0-3.2c0-0.9,0-1.7,0-2.2c-1.2,0.1-2.5,0.1-3.9,0.1c-1.4,0-2.8,0.1-4.2,0.1
		c-1.4,0-2.8,0-4.2,0c-1.4,0-2.8,0-4.1,0c-1.3,0-1.9-0.7-1.9-2.2c0-0.7,0.2-1.2,0.6-1.5c0.4-0.3,0.8-0.5,1.3-0.5
		c3.3-0.2,6.7-0.3,10.2-0.4s6.8-0.1,9.9-0.1c0.7,0,1.1,0.1,1.3,0.4c0.2,0.3,0.4,0.8,0.4,1.5c0,0.7,0,1.5,0,2.6c0,1.1,0,2.3,0,3.6
		c0,1.3,0,2.6-0.1,4c0,1.4-0.1,2.7-0.1,4c0,1.3-0.1,2.5-0.2,3.6C53.6,39.8,53.6,40.7,53.5,41.3z M64,61.2c-0.1,0.8-0.4,1.3-0.9,1.6
		c-0.5,0.3-1.1,0.5-1.8,0.4c-0.7-0.1-1.2-0.3-1.5-0.6c-0.3-0.3-0.4-0.8-0.5-1.5c0-0.6,0-1.4,0-2.3c0-0.9,0-1.9,0-2.9
		c0-1,0-2.1,0-3.1c0-1,0-1.9,0-2.6c-1.2,0.1-2.7,0.1-4.5,0.2c-1.8,0.1-3.6,0.1-5.4,0.2c-1.9,0-3.7,0.1-5.5,0.1
		c-1.8,0.1-3.3,0.1-4.6,0.1c-1.3,0-1.9-0.7-1.9-2.2c0-0.7,0.2-1.2,0.6-1.5c0.4-0.3,0.8-0.5,1.3-0.5c1.6-0.1,3.5-0.2,5.6-0.3
		c2.1-0.1,4.2-0.2,6.4-0.3c2.1-0.1,4.2-0.1,6.3-0.2c2-0.1,3.8-0.1,5.4-0.1c0.7,0,1.1,0.1,1.3,0.5c0.2,0.3,0.4,0.8,0.4,1.4
		c0,1,0,2.1,0,3.3c0,1.2-0.1,2.4-0.1,3.6c-0.1,1.2-0.1,2.4-0.2,3.6C64.2,59.1,64.1,60.2,64,61.2z M65.6,25.6c0,1.3,0,2.6,0,3.9
		c1,0,1.9,0,2.8,0c0.9,0,1.6,0,1.9,0c0.7,0,1.2,0.1,1.5,0.4c0.3,0.3,0.5,0.8,0.5,1.6c0,0.7-0.1,1.3-0.3,1.8
		c-0.2,0.5-0.6,0.7-1.3,0.7c-0.4,0-1.2,0.1-2.2,0.1c-1,0-2,0-3,0c0,1.6-0.1,3.1-0.1,4.5c-0.1,1.4-0.1,2.4-0.2,3.3
		c-0.1,1-0.4,1.6-0.8,1.9c-0.5,0.3-1,0.4-1.7,0.4c-0.7,0-1.3-0.2-1.7-0.5c-0.4-0.3-0.6-1-0.6-2c0-0.8,0-1.9,0-3.4c0-1.5,0-3.1,0-4.9
		c0-1.8,0.1-3.7,0.1-5.8c0-2,0-4,0.1-5.8c0-0.9,0.2-1.5,0.6-1.9c0.4-0.4,1.1-0.6,2.1-0.6c1.8,0,2.6,0.9,2.6,2.6
		C65.6,23.1,65.6,24.3,65.6,25.6z"/>
	<path d="M81.7,29.1c0,0.9-0.3,1.7-1,2.3c-0.6,0.6-1.4,1-2.4,1c-0.9,0-1.7-0.3-2.4-1c-0.6-0.6-1-1.4-1-2.3c0-1,0.3-1.8,1-2.4
		c0.6-0.6,1.4-0.9,2.4-0.9c1,0,1.8,0.3,2.4,0.9C81.4,27.3,81.7,28.1,81.7,29.1z M81.7,47.6c0,0.9-0.3,1.7-1,2.3
		c-0.6,0.6-1.4,1-2.4,1c-0.9,0-1.7-0.3-2.4-1c-0.6-0.6-1-1.4-1-2.3c0-1,0.3-1.8,1-2.4c0.6-0.6,1.4-0.9,2.4-0.9c1,0,1.8,0.3,2.4,0.9
		C81.4,45.8,81.7,46.6,81.7,47.6z"/>
</g>
</svg>
