<svg xmlns="http://www.w3.org/2000/svg" viewBox="0 0 62 75"><defs><style>.cls-1,.cls-2{fill:#6bc1a1;}.cls-2{stroke:#6bc1a1;stroke-linecap:round;stroke-linejoin:round;stroke-width:8px;}.cls-3{fill:#fff;}</style></defs><g id="레이어_2" data-name="레이어 2"><g id="레이어_2-2" data-name="레이어 2"><rect class="cls-1" width="47" height="75" rx="5.311"/><polygon class="cls-2" points="43 4.5 58 38.98 43 70.783 43 4.5"/><path class="cls-3" d="M25.028,19.843a15.472,15.472,0,0,1,4.925.7,10.148,10.148,0,0,1,3.476,1.926A7.618,7.618,0,0,1,35.5,25.343a9.166,9.166,0,0,1,.675,3.5v.5a11.592,11.592,0,0,1-1.2,5.25,21.172,21.172,0,0,1-3.75,5.05l-11.5,12.1h16.3a1.493,1.493,0,0,1,1.326.625,2.778,2.778,0,0,1,0,2.95,1.49,1.49,0,0,1-1.326.625H16.778a4.672,4.672,0,0,1-2.8-.65,2.411,2.411,0,0,1-.85-2.05,2.446,2.446,0,0,1,.35-1.25,8.516,8.516,0,0,1,1.15-1.45l12.2-12.9A29.724,29.724,0,0,0,29,35.167a14.3,14.3,0,0,0,1.324-2.024A6.77,6.77,0,0,0,31,31.292a9.983,9.983,0,0,0,.175-1.9v-.25a4.363,4.363,0,0,0-1.526-3.5,6.811,6.811,0,0,0-4.524-1.3,8.011,8.011,0,0,0-4.2,1.024,10.086,10.086,0,0,0-3.05,2.976,2.05,2.05,0,0,1-1.375.875,2.216,2.216,0,0,1-1.625-.426,2.418,2.418,0,0,1-1.025-1.4,2.058,2.058,0,0,1,.325-1.7,13.475,13.475,0,0,1,4.274-4.174A12.156,12.156,0,0,1,25.028,19.843Z"/></g></g></svg>