
<svg xmlns="http://www.w3.org/2000/svg" version="1.1" xmlns:xlink="http://www.w3.org/1999/xlink" preserveAspectRatio="none" x="0px" y="0px" width="1280px" height="720px" viewBox="0 0 1280 720">
<defs>
<g id="Layer0_0_FILL">
<path fill="#1E1E1E" stroke="none" d="
M 960.75 389.9
Q 960.75 391.2 961.65 392.1 962.55 393 963.85 393 965.1 393 966 392.1 966.85 391.2 966.85 389.9 966.85 388.6 966 387.75 965.1 386.85 963.85 386.85 962.55 386.85 961.65 387.75 960.75 388.6 960.75 389.9
M 951.2 357.25
Q 951.2 356.7 950.65 356.7
L 947.1 356.7
Q 946.6 356.7 946.6 357.25
L 946.6 394.15
Q 946.6 394.7 947.1 394.7
L 950.65 394.7
Q 951.2 394.7 951.2 394.15
L 951.2 375.2 956.6 375.2
Q 956.8 375.2 957 375.05 957.2 374.85 957.2 374.65
L 957.2 371.85
Q 957.2 371.65 957 371.5 956.8 371.35 956.6 371.35
L 951.2 371.35 951.2 357.25
M 927.9 364.25
Q 927.9 363.55 928.6 363.55
L 940.5 363.55
Q 941.05 363.55 941.05 363.05
L 941.05 360.25
Q 941.05 359.7 940.5 359.7
L 925.95 359.7
Q 924.45 359.7 923.9 360.25 923.3 360.85 923.3 362.25
L 923.3 381.2
Q 923.3 382.65 924 383.2 924.7 383.8 926.2 383.9 927.85 384 930.25 383.9 932.65 383.85 935.2 383.6 937.75 383.4 940.1 383.05 942.5 382.65 944.1 382.2 944.3 382.1 944.5 381.95 944.65 381.85 944.6 381.4
L 944.15 379.05
Q 944 378.45 943.4 378.6 941.6 378.9 939.65 379.2 937.6 379.45 935.7 379.65 933.8 379.85 932.05 379.9 930.35 380 929.1 379.85 928.35 379.8 928.1 379.6 927.9 379.4 927.9 378.8
L 927.9 364.25
M 915.25 357.25
Q 915.25 356.7 914.75 356.7
L 911.2 356.7
Q 910.65 356.7 910.65 357.25
L 910.65 394.15
Q 910.65 394.7 911.2 394.7
L 914.75 394.7
Q 915.25 394.7 915.25 394.15
L 915.25 357.25
M 890.6 359.05
L 887.15 359.05
Q 886.95 359.05 886.75 359.2 886.6 359.4 886.6 359.6
L 886.6 380.45
Q 886.6 381.8 887.25 382.6 887.95 383.4 889.5 383.45 891.7 383.6 894.1 383.55 896.55 383.45 898.9 383.3 901.25 383.1 903.45 382.8 905.65 382.45 907.4 382 907.75 381.9 907.95 381.65 908.2 381.45 908.1 381.15
L 907.6 378.95
Q 907.55 378.65 907.35 378.45 907.2 378.25 906.75 378.3 902.65 379.15 898.9 379.45 895.15 379.75 891.95 379.55 891.5 379.5 891.35 379.4 891.2 379.3 891.2 378.9
L 891.2 359.6
Q 891.2 359.4 891 359.2 890.8 359.05 890.6 359.05
M 854.5 378.95
Q 854.3 378.95 854.15 379.1 854 379.25 854 379.4
L 854 391.3
Q 854 392.85 854.6 393.45 855.25 394.05 857 394.05
L 874.3 394.05
Q 876.05 394.05 876.65 393.4 877.3 392.75 877.3 391.4
L 877.3 379.25
Q 877.3 379.05 877.15 378.9 877 378.75 876.8 378.75
L 873.2 378.75
Q 873 378.75 872.85 378.9 872.7 379.05 872.7 379.25
L 872.7 383.1 858.6 383.1 858.6 379.4
Q 858.6 379.25 858.4 379.1 858.2 378.95 858 378.95
L 854.5 378.95
M 858.6 389.65
L 858.6 386.85 872.7 386.85 872.7 389.65
Q 872.7 390.3 872 390.3
L 859.3 390.3
Q 858.6 390.3 858.6 389.65
M 873.2 356.7
Q 872.7 356.7 872.7 357.25
L 872.7 376.35
Q 872.7 376.9 873.2 376.9
L 876.8 376.9
Q 877.3 376.9 877.3 376.35
L 877.3 357.25
Q 877.3 356.7 876.8 356.7
L 873.2 356.7
M 850.4 360.5
Q 849.15 361.75 848.45 363.4 847.8 365.05 847.8 366.85 847.8 368.6 848.45 370.2 849.15 371.85 850.4 373.1 851.65 374.3 853.45 375.05 855.25 375.8 857.4 375.8 859.55 375.8 861.3 375.05 863.1 374.3 864.35 373.1 865.6 371.85 866.3 370.2 867 368.6 867 366.85 867 365.05 866.3 363.4 865.6 361.75 864.35 360.5 863.1 359.25 861.3 358.55 859.55 357.8 857.4 357.8 855.25 357.8 853.45 358.55 851.65 359.25 850.4 360.5
M 853.65 370.5
Q 852.95 369.75 852.55 368.8 852.2 367.85 852.2 366.85 852.2 365.8 852.55 364.85 852.95 363.9 853.65 363.15 854.3 362.45 855.25 362 856.2 361.55 857.4 361.55 858.55 361.55 859.5 362 860.45 362.45 861.15 363.15 861.85 363.9 862.25 364.85 862.65 365.8 862.65 366.85 862.65 367.85 862.25 368.8 861.85 369.75 861.15 370.5 860.45 371.2 859.5 371.6 858.55 372 857.4 372 856.2 372 855.25 371.6 854.3 371.2 853.65 370.5
M 828.15 381.3
Q 825.4 381.3 823.2 381.75 821.05 382.25 819.45 383.1 817.9 384 817.05 385.2 816.2 386.4 816.2 387.85 816.2 389.35 817.05 390.6 817.9 391.85 819.45 392.7 821.05 393.6 823.2 394.05 825.4 394.55 828.15 394.55 830.75 394.55 832.95 394.05 835.2 393.6 836.8 392.7 838.45 391.85 839.35 390.6 840.25 389.35 840.25 387.85 840.25 386.4 839.35 385.2 838.45 384 836.8 383.1 835.2 382.25 832.95 381.75 830.75 381.3 828.15 381.3
M 825.25 384.9
Q 826.55 384.7 828.15 384.7 829.65 384.7 831 384.9 832.3 385.1 833.3 385.55 834.3 385.95 834.9 386.55 835.5 387.2 835.5 388 835.5 388.8 834.9 389.35 834.3 389.9 833.3 390.3 832.3 390.7 831 390.9 829.65 391.05 828.15 391.05 826.6 391.05 825.3 390.9 824 390.7 823 390.3 822 389.9 821.5 389.35 820.95 388.8 820.95 388 820.95 387.2 821.5 386.55 822 385.95 823 385.55 823.95 385.1 825.25 384.9
M 814.45 368.7
Q 813.3 369.55 812.65 370.7 812 371.85 812 373.35 812 374.85 812.65 376.1 813.3 377.35 814.45 378.25 815.6 379.15 817.1 379.65 818.65 380.15 820.45 380.15 822.3 380.15 823.85 379.7 825.4 379.2 826.55 378.35 827.75 377.45 828.4 376.25 829.05 375.05 829.05 373.55 829.05 372.05 828.4 370.85 827.75 369.7 826.6 368.8 825.45 367.95 823.9 367.5 822.3 367 820.5 367 818.7 367 817.15 367.45 815.6 367.9 814.45 368.7
M 823.55 371.35
Q 824.7 372.15 824.7 373.55 824.7 374.95 823.55 375.85 822.4 376.7 820.5 376.7 818.6 376.7 817.45 375.85 816.3 374.95 816.3 373.55 816.3 372.15 817.45 371.35 818.6 370.55 820.5 370.55 822.4 370.55 823.55 371.35
M 826.2 357.7
Q 826.2 357.45 826.05 357.3 825.8 357.05 825.55 357.05
L 815.35 357.05
Q 815.2 357.05 814.95 357.25 814.75 357.4 814.75 357.65
L 814.75 359.95
Q 814.75 360.25 814.95 360.4 815.2 360.6 815.35 360.6
L 825.55 360.6
Q 825.85 360.6 826.05 360.35 826.2 360.15 826.2 359.9
L 826.2 357.7
M 836.05 356.65
Q 835.5 356.65 835.5 357.2
L 835.5 367.45 830.75 367.45
Q 830.6 367.45 830.4 367.55 830.25 367.7 830.25 367.9
L 830.25 370.65
Q 830.25 370.85 830.4 370.95 830.6 371.1 830.75 371.1
L 835.5 371.1 835.5 373.8 830.75 373.8
Q 830.6 373.8 830.4 373.95 830.25 374.05 830.25 374.25
L 830.25 377
Q 830.25 377.2 830.4 377.35 830.6 377.45 830.75 377.45
L 835.5 377.45 835.5 380.25
Q 835.5 380.5 835.65 380.65 835.8 380.85 836.05 380.85
L 839.6 380.85
Q 839.8 380.85 839.95 380.65 840.15 380.5 840.15 380.25
L 840.15 357.2
Q 840.15 357 839.95 356.85 839.8 356.65 839.6 356.65
L 836.05 356.65
M 809.9 362.2
Q 809.7 362.2 809.45 362.4 809.25 362.65 809.25 362.8
L 809.25 365.05
Q 809.25 365.3 809.45 365.5 809.65 365.7 809.85 365.7
L 830.75 365.7
Q 831 365.7 831.15 365.55 831.35 365.35 831.35 365.1
L 831.35 362.8
Q 831.35 362.6 831.15 362.4 831 362.2 830.75 362.2
L 809.9 362.2
M 776.95 380.55
Q 776.8 380.65 776.8 380.95
L 776.8 383.8
Q 776.8 384 776.95 384.15 777.15 384.25 777.35 384.25
L 795.4 384.25
Q 795.85 384.25 796 384.4 796.15 384.5 796.15 384.95
L 796.15 394.05
Q 796.15 394.25 796.35 394.4 796.55 394.6 796.8 394.6
L 800.2 394.6
Q 800.4 394.6 800.6 394.4 800.8 394.25 800.8 394.05
L 800.8 383.25
Q 800.8 381.7 800.2 381.05 799.6 380.45 798.1 380.45
L 777.35 380.45
Q 777.15 380.45 776.95 380.55
M 789.8 362.95
Q 789.85 362.8 789.95 362.55 790 362.3 790.05 362 790.1 361.65 790.15 361.4 790.2 361.05 790.2 360.9 790.2 359.65 789.5 359.05 788.8 358.5 787 358.5
L 773.45 358.5
Q 772.9 358.5 772.9 359.05
L 772.9 361.7
Q 772.9 361.95 773.05 362.15 773.15 362.3 773.45 362.3
L 784.3 362.3
Q 785.05 362.3 785.05 362.55 785.05 362.8 784.85 363.45 783.75 367.1 780.4 370.1 777 373.1 772.1 375.25 771.65 375.45 771.6 375.75 771.55 376.05 771.7 376.4
L 772.75 378.45
Q 773.05 379.25 774 378.85 780.35 376.2 784.3 372.35 788.3 368.45 789.8 362.95
M 800.85 357.25
Q 800.85 356.7 800.25 356.7
L 796.75 356.7
Q 796.55 356.7 796.35 356.85 796.2 357 796.2 357.25
L 796.2 377.85
Q 796.2 378.1 796.35 378.25 796.55 378.45 796.75 378.45
L 800.25 378.45
Q 800.85 378.45 800.85 377.9
L 800.85 370.15 806.2 370.15
Q 806.45 370.15 806.65 370 806.8 369.85 806.8 369.65
L 806.8 366.85
Q 806.8 366.65 806.65 366.5 806.45 366.3 806.2 366.3
L 800.85 366.3 800.85 357.25
M 742.6 380.35
Q 741.05 380.35 740.4 381.05 739.7 381.7 739.7 383.25
L 739.7 391.2
Q 739.7 392.8 740.35 393.45 741 394.05 742.8 394.05
L 760.4 394.05
Q 761.95 394.05 762.6 393.45 763.25 392.8 763.25 391.3
L 763.25 383.25
Q 763.25 381.65 762.65 381 762 380.35 760.2 380.35
L 742.6 380.35
M 744.85 390.4
Q 744.5 390.4 744.4 390.3 744.3 390.25 744.3 389.85
L 744.3 384.5
Q 744.3 384.2 744.4 384.1 744.5 384.05 744.85 384.05
L 758.2 384.05
Q 758.5 384.05 758.6 384.15 758.7 384.25 758.7 384.6
L 758.7 389.85
Q 758.7 390.25 758.6 390.3 758.5 390.4 758.2 390.4
L 744.85 390.4
M 748.05 367.2
Q 747.05 365.85 746.4 364.3 747 361.55 747 358.1 747 357.45 746.5 357.45
L 742.95 357.3
Q 742.8 357.3 742.6 357.5 742.4 357.7 742.4 358 742.4 361.2 741.8 363.65 741.25 366.1 740.15 368.1 739.05 370.05 737.4 371.65 735.7 373.25 733.45 374.8 733.1 375.05 733 375.3 732.9 375.6 733.3 376.05
L 734.95 377.9
Q 735.2 378.2 735.45 378.3 735.75 378.4 736.25 378.05 739.1 376.1 741.2 374.05 743.25 371.95 744.6 369.4 746.1 371.7 748.2 373.55 750.3 375.4 752.75 376.5 753.45 376.85 753.8 376.15
L 755.2 373.95
Q 755.65 373.25 755 373 753.9 372.5 752.7 371.65 751.45 370.8 750.3 369.7 749.1 368.55 748.05 367.2
M 763.25 357.25
Q 763.25 356.7 762.7 356.7
L 759.15 356.7
Q 758.6 356.7 758.6 357.25
L 758.6 377.8
Q 758.6 378.35 759.15 378.35
L 762.7 378.35
Q 763.25 378.35 763.25 377.8
L 763.25 370.3 768.65 370.3
Q 768.85 370.3 769.05 370.15 769.2 369.95 769.2 369.75
L 769.2 366.95
Q 769.2 366.75 769.05 366.6 768.85 366.5 768.65 366.5
L 763.25 366.5 763.25 357.25
M 692.75 381.65
Q 692.55 381.85 692.55 382
L 692.55 391.05
Q 692.55 392.65 693.2 393.25 693.8 393.9 695.6 393.9
L 716.35 393.9
Q 716.55 393.9 716.75 393.8 716.95 393.65 716.95 393.45
L 716.95 390.55
Q 716.95 390.35 716.75 390.2 716.55 390.05 716.35 390.05
L 697.95 390.05
Q 697.55 390.05 697.4 389.95 697.2 389.85 697.2 389.4
L 697.2 382
Q 697.2 381.85 697.05 381.65 696.85 381.5 696.6 381.5
L 693.15 381.5
Q 692.95 381.5 692.75 381.65
M 715.7 357.25
Q 715.7 356.7 715.2 356.7
L 711.6 356.7
Q 711.1 356.7 711.1 357.25
L 711.1 383.1
Q 711.1 383.65 711.6 383.65
L 715.2 383.65
Q 715.7 383.65 715.7 383.15
L 715.7 357.25
M 686.65 364.35
Q 685.95 366.05 685.95 368 685.95 370 686.65 371.75 687.4 373.5 688.65 374.8 689.95 376.1 691.7 376.85 693.45 377.65 695.6 377.65 697.8 377.65 699.6 376.85 701.4 376.1 702.7 374.8 704 373.5 704.7 371.75 705.4 370 705.4 368 705.4 366.05 704.7 364.35 704 362.6 702.7 361.25 701.4 359.9 699.6 359.15 697.8 358.35 695.6 358.35 693.45 358.35 691.7 359.15 689.95 359.9 688.65 361.25 687.4 362.6 686.65 364.35
M 690.85 370.3
Q 690.45 369.25 690.45 368.1 690.45 366.9 690.85 365.9 691.25 364.85 691.9 364.1 692.55 363.35 693.55 362.9 694.45 362.45 695.6 362.45 696.75 362.45 697.75 362.9 698.7 363.35 699.4 364.1 700.1 364.85 700.5 365.9 700.85 366.9 700.85 368.1 700.85 369.25 700.5 370.3 700.1 371.35 699.4 372.1 698.7 372.85 697.75 373.3 696.75 373.75 695.6 373.75 694.45 373.75 693.55 373.3 692.55 372.85 691.9 372.1 691.25 371.35 690.85 370.3
M 533.9 356.7
Q 533.35 356.7 533.35 357.25
L 533.35 394.15
Q 533.35 394.7 533.9 394.7
L 537.45 394.7
Q 537.95 394.7 537.95 394.15
L 537.95 357.25
Q 537.95 356.7 537.45 356.7
L 533.9 356.7
M 514.1 360.05
Q 512.25 361 511 362.7 509.75 364.4 509.05 366.85 508.35 369.25 508.35 372.3 508.35 375.2 509.05 377.65 509.75 380.05 511 381.8 512.25 383.55 514.1 384.5 515.9 385.5 518.2 385.5 520.55 385.5 522.35 384.5 524.15 383.6 525.45 381.85 526.7 380.15 527.35 377.7 528.05 375.25 528.05 372.3 528.05 369.25 527.35 366.85 526.7 364.4 525.45 362.7 524.15 361 522.35 360.05 520.55 359.1 518.2 359.1 515.9 359.1 514.1 360.05
M 514.3 365.85
Q 514.95 364.65 515.95 363.9 516.9 363.2 518.2 363.2 519.45 363.2 520.45 363.9 521.45 364.65 522.15 365.85 522.8 367.1 523.15 368.8 523.5 370.45 523.5 372.3 523.5 374.05 523.15 375.75 522.8 377.4 522.15 378.65 521.45 379.9 520.45 380.65 519.45 381.4 518.2 381.4 516.9 381.4 515.95 380.65 514.95 379.9 514.3 378.65 513.6 377.4 513.25 375.75 512.85 374.05 512.85 372.3 512.85 370.45 513.25 368.8 513.6 367.1 514.3 365.85
M 498.75 357.25
Q 498.75 356.7 498.15 356.7
L 494.65 356.7
Q 494.45 356.7 494.25 356.85 494.1 357 494.1 357.25
L 494.1 377.85
Q 494.1 378.1 494.25 378.25 494.45 378.45 494.65 378.45
L 498.15 378.45
Q 498.75 378.45 498.75 377.9
L 498.75 370.15 504.1 370.15
Q 504.35 370.15 504.55 370 504.7 369.85 504.7 369.65
L 504.7 366.85
Q 504.7 366.65 504.55 366.5 504.35 366.3 504.1 366.3
L 498.75 366.3 498.75 357.25
M 475.25 380.45
Q 475.05 380.45 474.85 380.55 474.7 380.65 474.7 380.95
L 474.7 383.8
Q 474.7 384 474.85 384.15 475.05 384.25 475.25 384.25
L 493.3 384.25
Q 493.75 384.25 493.9 384.4 494.05 384.5 494.05 384.95
L 494.05 394.05
Q 494.05 394.25 494.25 394.4 494.45 394.6 494.7 394.6
L 498.1 394.6
Q 498.3 394.6 498.5 394.4 498.7 394.25 498.7 394.05
L 498.7 383.25
Q 498.7 381.7 498.1 381.05 497.5 380.45 496 380.45
L 475.25 380.45
M 470.8 359.05
L 470.8 361.7
Q 470.8 361.95 470.95 362.15 471.05 362.3 471.35 362.3
L 482.2 362.3
Q 482.95 362.3 482.95 362.55 482.95 362.8 482.75 363.45 481.65 367.1 478.3 370.1 474.9 373.1 470 375.25 469.55 375.45 469.5 375.75 469.45 376.05 469.6 376.4
L 470.65 378.45
Q 470.95 379.25 471.9 378.85 478.25 376.2 482.2 372.35 486.2 368.45 487.7 362.95 487.75 362.8 487.85 362.55 487.9 362.3 487.95 362 488 361.65 488.05 361.4 488.1 361.05 488.1 360.9 488.1 359.65 487.4 359.05 486.7 358.5 484.9 358.5
L 471.35 358.5
Q 470.8 358.5 470.8 359.05
M 345.9 375.25
Q 345.75 375.45 345.75 375.65
L 345.75 378.25
Q 345.75 378.5 345.9 378.7 346.05 378.9 346.35 378.9
L 381.15 378.9
Q 381.35 378.9 381.55 378.7 381.75 378.45 381.75 378.25
L 381.75 375.65
Q 381.75 375.5 381.55 375.25 381.35 375.05 381.15 375.05
L 346.35 375.05
Q 346.05 375.05 345.9 375.25
M 356.05 382
Q 356.05 381.8 355.9 381.6 355.7 381.45 355.5 381.45
L 352.05 381.45
Q 351.85 381.45 351.65 381.6 351.5 381.8 351.5 382
L 351.5 390.65
Q 351.5 392.3 352.1 392.9 352.7 393.55 354.5 393.55
L 376.8 393.55
Q 377.05 393.55 377.25 393.45 377.4 393.3 377.4 393.1
L 377.4 390.2
Q 377.4 390 377.2 389.85 377 389.7 376.8 389.7
L 356.85 389.7
Q 356.4 389.7 356.25 389.6 356.05 389.45 356.05 389.05
L 356.05 382
M 363.85 357.3
Q 361.05 357.3 358.7 357.75 356.35 358.25 354.7 359.2 353 360.1 352.05 361.5 351.1 362.85 351.1 364.6 351.1 366.3 352.05 367.65 353 369.05 354.7 369.95 356.35 370.85 358.7 371.4 361.05 371.85 363.85 371.85 366.65 371.85 368.95 371.4 371.3 370.85 372.95 369.95 374.65 369.05 375.6 367.65 376.5 366.3 376.5 364.6 376.5 362.85 375.6 361.5 374.65 360.1 372.95 359.2 371.3 358.25 368.95 357.75 366.65 357.3 363.85 357.3
M 363.85 368.2
Q 362.1 368.2 360.65 367.95 359.2 367.65 358.15 367.2 357.1 366.7 356.5 366.05 355.9 365.4 355.9 364.6 355.9 363.8 356.5 363.1 357.1 362.45 358.15 361.95 359.2 361.5 360.65 361.2 362.1 360.95 363.85 360.95 365.55 360.95 367 361.2 368.45 361.5 369.5 361.95 370.55 362.45 371.15 363.1 371.7 363.8 371.7 364.6 371.7 365.4 371.15 366.05 370.55 366.7 369.5 367.2 368.45 367.65 367 367.95 365.55 368.2 363.85 368.2
M 333.25 381.75
Q 331.05 381.3 328.45 381.3 325.7 381.3 323.5 381.75 321.35 382.25 319.75 383.1 318.2 384 317.35 385.2 316.5 386.4 316.5 387.85 316.5 389.35 317.35 390.6 318.2 391.85 319.75 392.7 321.35 393.6 323.5 394.05 325.7 394.55 328.45 394.55 331.05 394.55 333.25 394.05 335.5 393.6 337.1 392.7 338.75 391.85 339.65 390.6 340.55 389.35 340.55 387.85 340.55 386.4 339.65 385.2 338.75 384 337.1 383.1 335.5 382.25 333.25 381.75
M 333.6 390.3
Q 332.6 390.7 331.3 390.9 329.95 391.05 328.45 391.05 326.9 391.05 325.6 390.9 324.3 390.7 323.3 390.3 322.3 389.9 321.8 389.35 321.25 388.8 321.25 388 321.25 387.2 321.8 386.55 322.3 385.95 323.3 385.55 324.25 385.1 325.55 384.9 326.85 384.7 328.45 384.7 329.95 384.7 331.3 384.9 332.6 385.1 333.6 385.55 334.6 385.95 335.2 386.55 335.8 387.2 335.8 388 335.8 388.8 335.2 389.35 334.6 389.9 333.6 390.3
M 328.7 370.85
Q 328.05 369.7 326.9 368.8 325.75 367.95 324.2 367.5 322.6 367 320.8 367 319 367 317.45 367.45 315.9 367.9 314.75 368.7 313.6 369.55 312.95 370.7 312.3 371.85 312.3 373.35 312.3 374.85 312.95 376.1 313.6 377.35 314.75 378.25 315.9 379.15 317.4 379.65 318.95 380.15 320.75 380.15 322.6 380.15 324.15 379.7 325.7 379.2 326.85 378.35 328.05 377.45 328.7 376.25 329.35 375.05 329.35 373.55 329.35 372.05 328.7 370.85
M 323.85 375.85
Q 322.7 376.7 320.8 376.7 318.9 376.7 317.75 375.85 316.6 374.95 316.6 373.55 316.6 372.15 317.75 371.35 318.9 370.55 320.8 370.55 322.7 370.55 323.85 371.35 325 372.15 325 373.55 325 374.95 323.85 375.85
M 331.65 362.8
Q 331.65 362.6 331.45 362.4 331.3 362.2 331.05 362.2
L 310.2 362.2
Q 310 362.2 309.75 362.4 309.55 362.65 309.55 362.8
L 309.55 365.05
Q 309.55 365.3 309.75 365.5 309.95 365.7 310.15 365.7
L 331.05 365.7
Q 331.3 365.7 331.45 365.55 331.65 365.35 331.65 365.1
L 331.65 362.8
M 326.5 357.7
Q 326.5 357.45 326.35 357.3 326.1 357.05 325.85 357.05
L 315.65 357.05
Q 315.5 357.05 315.25 357.25 315.05 357.4 315.05 357.65
L 315.05 359.95
Q 315.05 360.25 315.25 360.4 315.5 360.6 315.65 360.6
L 325.85 360.6
Q 326.15 360.6 326.35 360.35 326.5 360.15 326.5 359.9
L 326.5 357.7
M 340.45 357.2
Q 340.45 357 340.25 356.85 340.1 356.65 339.9 356.65
L 336.35 356.65
Q 335.8 356.65 335.8 357.2
L 335.8 367.45 331.05 367.45
Q 330.9 367.45 330.7 367.55 330.55 367.7 330.55 367.9
L 330.55 370.65
Q 330.55 370.85 330.7 370.95 330.9 371.1 331.05 371.1
L 335.8 371.1 335.8 373.8 331.05 373.8
Q 330.9 373.8 330.7 373.95 330.55 374.05 330.55 374.25
L 330.55 377
Q 330.55 377.2 330.7 377.35 330.9 377.45 331.05 377.45
L 335.8 377.45 335.8 380.25
Q 335.8 380.5 335.95 380.65 336.1 380.85 336.35 380.85
L 339.9 380.85
Q 340.1 380.85 340.25 380.65 340.45 380.5 340.45 380.25
L 340.45 357.2
M 307.1 369.65
L 307.1 366.85
Q 307.1 366.65 306.95 366.5 306.75 366.3 306.5 366.3
L 301.15 366.3 301.15 357.25
Q 301.15 356.7 300.55 356.7
L 297.05 356.7
Q 296.85 356.7 296.65 356.85 296.5 357 296.5 357.25
L 296.5 377.85
Q 296.5 378.1 296.65 378.25 296.85 378.45 297.05 378.45
L 300.55 378.45
Q 301.15 378.45 301.15 377.9
L 301.15 370.15 306.5 370.15
Q 306.75 370.15 306.95 370 307.1 369.85 307.1 369.65
M 277.25 380.55
Q 277.1 380.65 277.1 380.95
L 277.1 383.8
Q 277.1 384 277.25 384.15 277.45 384.25 277.65 384.25
L 295.7 384.25
Q 296.15 384.25 296.3 384.4 296.45 384.5 296.45 384.95
L 296.45 394.05
Q 296.45 394.25 296.65 394.4 296.85 394.6 297.1 394.6
L 300.5 394.6
Q 300.7 394.6 300.9 394.4 301.1 394.25 301.1 394.05
L 301.1 383.25
Q 301.1 381.7 300.5 381.05 299.9 380.45 298.4 380.45
L 277.65 380.45
Q 277.45 380.45 277.25 380.55
M 273.2 359.05
L 273.2 361.7
Q 273.2 361.95 273.35 362.15 273.45 362.3 273.75 362.3
L 284.6 362.3
Q 285.35 362.3 285.35 362.55 285.35 362.8 285.15 363.45 284.05 367.1 280.7 370.1 277.3 373.1 272.4 375.25 271.95 375.45 271.9 375.75 271.85 376.05 272 376.4
L 273.05 378.45
Q 273.35 379.25 274.3 378.85 280.65 376.2 284.6 372.35 288.6 368.45 290.1 362.95 290.15 362.8 290.25 362.55 290.3 362.3 290.35 362 290.4 361.65 290.45 361.4 290.5 361.05 290.5 360.9 290.5 359.65 289.8 359.05 289.1 358.5 287.3 358.5
L 273.75 358.5
Q 273.2 358.5 273.2 359.05
M 269.5 369.75
L 269.5 366.95
Q 269.5 366.75 269.35 366.6 269.15 366.5 268.95 366.5
L 263.55 366.5 263.55 357.25
Q 263.55 356.7 263 356.7
L 259.45 356.7
Q 258.9 356.7 258.9 357.25
L 258.9 377.8
Q 258.9 378.35 259.45 378.35
L 263 378.35
Q 263.55 378.35 263.55 377.8
L 263.55 370.3 268.95 370.3
Q 269.15 370.3 269.35 370.15 269.5 369.95 269.5 369.75
M 242.9 380.35
Q 241.35 380.35 240.7 381.05 240 381.7 240 383.25
L 240 391.2
Q 240 392.8 240.65 393.45 241.3 394.05 243.1 394.05
L 260.7 394.05
Q 262.25 394.05 262.9 393.45 263.55 392.8 263.55 391.3
L 263.55 383.25
Q 263.55 381.65 262.95 381 262.3 380.35 260.5 380.35
L 242.9 380.35
M 244.6 389.85
L 244.6 384.5
Q 244.6 384.2 244.7 384.1 244.8 384.05 245.15 384.05
L 258.5 384.05
Q 258.8 384.05 258.9 384.15 259 384.25 259 384.6
L 259 389.85
Q 259 390.25 258.9 390.3 258.8 390.4 258.5 390.4
L 245.15 390.4
Q 244.8 390.4 244.7 390.3 244.6 390.25 244.6 389.85
M 242.9 357.5
Q 242.7 357.7 242.7 358 242.7 361.2 242.1 363.65 241.55 366.1 240.45 368.1 239.35 370.05 237.7 371.65 236 373.25 233.75 374.8 233.4 375.05 233.3 375.3 233.2 375.6 233.6 376.05
L 235.25 377.9
Q 235.5 378.2 235.75 378.3 236.05 378.4 236.55 378.05 239.4 376.1 241.5 374.05 243.55 371.95 244.9 369.4 246.4 371.7 248.5 373.55 250.6 375.4 253.05 376.5 253.75 376.85 254.1 376.15
L 255.5 373.95
Q 255.95 373.25 255.3 373 254.2 372.5 253 371.65 251.75 370.8 250.6 369.7 249.4 368.55 248.35 367.2 247.35 365.85 246.7 364.3 247.3 361.55 247.3 358.1 247.3 357.45 246.8 357.45
L 243.25 357.3
Q 243.1 357.3 242.9 357.5
M 225.95 357.25
Q 225.95 356.7 225.35 356.7
L 221.85 356.7
Q 221.65 356.7 221.45 356.85 221.3 357 221.3 357.25
L 221.3 377.85
Q 221.3 378.1 221.45 378.25 221.65 378.45 221.85 378.45
L 225.35 378.45
Q 225.95 378.45 225.95 377.9
L 225.95 370.15 231.3 370.15
Q 231.55 370.15 231.75 370 231.9 369.85 231.9 369.65
L 231.9 366.85
Q 231.9 366.65 231.75 366.5 231.55 366.3 231.3 366.3
L 225.95 366.3 225.95 357.25
M 202.05 380.55
Q 201.9 380.65 201.9 380.95
L 201.9 383.8
Q 201.9 384 202.05 384.15 202.25 384.25 202.45 384.25
L 220.5 384.25
Q 220.95 384.25 221.1 384.4 221.25 384.5 221.25 384.95
L 221.25 394.05
Q 221.25 394.25 221.45 394.4 221.65 394.6 221.9 394.6
L 225.3 394.6
Q 225.5 394.6 225.7 394.4 225.9 394.25 225.9 394.05
L 225.9 383.25
Q 225.9 381.7 225.3 381.05 224.7 380.45 223.2 380.45
L 202.45 380.45
Q 202.25 380.45 202.05 380.55
M 198.15 362.15
Q 198.25 362.3 198.55 362.3
L 209.4 362.3
Q 210.15 362.3 210.15 362.55 210.15 362.8 209.95 363.45 208.85 367.1 205.5 370.1 202.1 373.1 197.2 375.25 196.75 375.45 196.7 375.75 196.65 376.05 196.8 376.4
L 197.85 378.45
Q 198.15 379.25 199.1 378.85 205.45 376.2 209.4 372.35 213.4 368.45 214.9 362.95 214.95 362.8 215.05 362.55 215.1 362.3 215.15 362 215.2 361.65 215.25 361.4 215.3 361.05 215.3 360.9 215.3 359.65 214.6 359.05 213.9 358.5 212.1 358.5
L 198.55 358.5
Q 198 358.5 198 359.05
L 198 361.7
Q 198 361.95 198.15 362.15
M 166.25 380.85
Q 166.05 380.85 165.85 381 165.65 381.1 165.65 381.35
L 165.65 384.2
Q 165.65 384.4 165.85 384.5 166.05 384.7 166.25 384.7
L 184.3 384.7
Q 184.7 384.7 184.85 384.8 185 384.9 185 385.35
L 185 394.05
Q 185 394.25 185.2 394.4 185.35 394.6 185.6 394.6
L 189.05 394.6
Q 189.25 394.6 189.4 394.4 189.6 394.25 189.6 394.05
L 189.6 383.6
Q 189.6 382.1 189.05 381.5 188.5 380.85 186.95 380.85
L 166.25 380.85
M 189.6 357.25
Q 189.6 356.7 189.1 356.7
L 185.5 356.7
Q 185 356.7 185 357.25
L 185 378.3
Q 185 378.5 185.15 378.7 185.3 378.9 185.5 378.9
L 189.1 378.9
Q 189.3 378.9 189.45 378.7 189.6 378.5 189.6 378.3
L 189.6 357.25
M 161.9 358.9
Q 161.35 358.9 161.35 359.4
L 161.35 362.05
Q 161.35 362.7 161.9 362.7
L 171.8 362.7
Q 172.45 362.7 172.45 363 172.5 363.25 172.3 363.6 171.7 365.25 170.5 366.9 169.3 368.5 167.65 370 166.05 371.5 164.05 372.75 162.05 374.05 159.8 375.05 159.45 375.25 159.35 375.6 159.25 375.95 159.45 376.3
L 160.6 378.25
Q 160.85 378.65 161.25 378.7 161.65 378.7 161.9 378.55 164.75 377.2 167.25 375.5 169.75 373.8 171.8 371.75 172.65 372.6 173.65 373.4 174.65 374.25 175.65 374.95 176.65 375.7 177.6 376.3 178.5 376.85 179.25 377.25 180.1 377.65 180.4 377
L 181.75 374.8
Q 182.15 374.05 181.35 373.6 180.55 373.25 179.65 372.75 178.7 372.2 177.8 371.55 176.9 370.9 176 370.2 175.15 369.45 174.4 368.75 176.35 366.05 177.35 363.25 177.55 362.85 177.65 362.4 177.75 361.9 177.85 361.5 178.05 360.15 177.2 359.5 176.3 358.9 174.55 358.9
L 161.9 358.9 Z"/>

<path fill="#FFFFFF" stroke="none" d="
M 680.7 358.4
Q 680.7 358.2 680.55 358.05 680.4 357.9 680.2 357.9
L 676.85 357.9
Q 676.65 357.9 676.5 358.05 676.35 358.2 676.35 358.4
L 676.35 389.9
Q 676.35 390.4 676.8 390.4
L 680.2 390.4
Q 680.4 390.4 680.55 390.25 680.7 390.1 680.7 389.9
L 680.7 358.4
M 662.6 367.6
Q 660.45 367.6 659 368.05 657.6 368.45 656.25 369.15 655.75 369.4 655.65 369.6 655.55 369.7 655.6 369.9 655.6 370.05 655.6 370.25
L 655.6 373.25
Q 655.6 373.65 655.8 373.7 656.05 373.75 656.7 373.35 657.95 372.55 659.4 372.05 660.9 371.6 662.65 371.6 663.75 371.6 664.4 371.95 665.1 372.35 665.45 372.95 665.85 373.55 666 374.3 666.15 375.05 666.15 375.85 662.75 375.85 660.35 376.35 657.95 376.85 656.4 377.85 654.9 378.9 654.15 380.4 653.45 381.95 653.45 384 653.45 385.7 654 387 654.55 388.3 655.55 389.2 656.5 390.05 657.9 390.5 659.3 390.95 660.9 390.95 662.5 390.95 664 390.25 665.55 389.55 666.55 388.15
L 666.55 389.95
Q 666.55 390.2 666.65 390.25 666.7 390.3 667 390.3
L 670.25 390.3
Q 670.75 390.3 670.7 389.7 670.55 388.75 670.55 387.55 670.55 386.3 670.55 385.2
L 670.55 375.7
Q 670.55 371.5 668.55 369.55 666.65 367.6 662.6 367.6
M 659.9 380.7
Q 661.85 379.65 666.3 379.65
L 666.3 380.05
Q 666.3 383.6 664.9 385.3 663.5 387 661.25 387 659.75 387 658.9 386.2 658 385.5 658 383.95 658 381.8 659.9 380.7
M 648.45 390.3
Q 648.95 390.3 648.9 389.7 648.75 388.75 648.75 387.55 648.75 386.3 648.75 385.2
L 648.75 375.7
Q 648.75 371.5 646.75 369.55 644.85 367.6 640.8 367.6 638.65 367.6 637.2 368.05 635.8 368.45 634.45 369.15 633.95 369.4 633.85 369.6 633.75 369.7 633.8 369.9 633.8 370.05 633.8 370.25
L 633.8 373.25
Q 633.8 373.65 634 373.7 634.25 373.75 634.9 373.35 636.15 372.55 637.6 372.05 639.1 371.6 640.85 371.6 641.95 371.6 642.6 371.95 643.3 372.35 643.65 372.95 644.05 373.55 644.2 374.3 644.35 375.05 644.35 375.85 640.95 375.85 638.55 376.35 636.15 376.85 634.6 377.85 633.1 378.9 632.35 380.4 631.65 381.95 631.65 384 631.65 385.7 632.2 387 632.75 388.3 633.75 389.2 634.7 390.05 636.1 390.5 637.5 390.95 639.1 390.95 640.7 390.95 642.2 390.25 643.75 389.55 644.75 388.15
L 644.75 389.95
Q 644.75 390.2 644.85 390.25 644.9 390.3 645.2 390.3
L 648.45 390.3
M 638.1 380.7
Q 640.05 379.65 644.5 379.65
L 644.5 380.05
Q 644.5 383.6 643.1 385.3 641.7 387 639.45 387 637.95 387 637.1 386.2 636.2 385.5 636.2 383.95 636.2 381.8 638.1 380.7
M 624.95 369.55
Q 623.05 367.6 619 367.6 616.85 367.6 615.4 368.05 614 368.45 612.65 369.15 612.15 369.4 612.05 369.6 611.95 369.7 612 369.9 612 370.05 612 370.25
L 612 373.25
Q 612 373.65 612.2 373.7 612.45 373.75 613.1 373.35 614.35 372.55 615.8 372.05 617.3 371.6 619.05 371.6 620.15 371.6 620.8 371.95 621.5 372.35 621.85 372.95 622.25 373.55 622.4 374.3 622.55 375.05 622.55 375.85 619.15 375.85 616.75 376.35 614.35 376.85 612.8 377.85 611.3 378.9 610.55 380.4 609.85 381.95 609.85 384 609.85 385.7 610.4 387 610.95 388.3 611.95 389.2 612.9 390.05 614.3 390.5 615.7 390.95 617.3 390.95 618.9 390.95 620.4 390.25 621.95 389.55 622.95 388.15
L 622.95 389.95
Q 622.95 390.2 623.05 390.25 623.1 390.3 623.4 390.3
L 626.65 390.3
Q 627.15 390.3 627.1 389.7 626.95 388.75 626.95 387.55 626.95 386.3 626.95 385.2
L 626.95 375.7
Q 626.95 371.5 624.95 369.55
M 622.7 379.65
L 622.7 380.05
Q 622.7 383.6 621.3 385.3 619.9 387 617.65 387 616.15 387 615.3 386.2 614.4 385.5 614.4 383.95 614.4 381.8 616.3 380.7 618.25 379.65 622.7 379.65
M 590.2 369.9
Q 590.2 370.05 590.2 370.25
L 590.2 373.25
Q 590.2 373.65 590.4 373.7 590.65 373.75 591.3 373.35 592.55 372.55 594 372.05 595.5 371.6 597.25 371.6 598.35 371.6 599 371.95 599.7 372.35 600.05 372.95 600.45 373.55 600.6 374.3 600.75 375.05 600.75 375.85 597.35 375.85 594.95 376.35 592.55 376.85 591 377.85 589.5 378.9 588.75 380.4 588.05 381.95 588.05 384 588.05 385.7 588.6 387 589.15 388.3 590.15 389.2 591.1 390.05 592.5 390.5 593.9 390.95 595.5 390.95 597.1 390.95 598.6 390.25 600.15 389.55 601.15 388.15
L 601.15 389.95
Q 601.15 390.2 601.25 390.25 601.3 390.3 601.6 390.3
L 604.85 390.3
Q 605.35 390.3 605.3 389.7 605.15 388.75 605.15 387.55 605.15 386.3 605.15 385.2
L 605.15 375.7
Q 605.15 371.5 603.15 369.55 601.25 367.6 597.2 367.6 595.05 367.6 593.6 368.05 592.2 368.45 590.85 369.15 590.35 369.4 590.25 369.6 590.15 369.7 590.2 369.9
M 600.9 379.65
L 600.9 380.05
Q 600.9 383.6 599.5 385.3 598.1 387 595.85 387 594.35 387 593.5 386.2 592.6 385.5 592.6 383.95 592.6 381.8 594.5 380.7 596.45 379.65 600.9 379.65
M 566.25 384
Q 566.25 385.7 566.8 387 567.35 388.3 568.35 389.2 569.3 390.05 570.7 390.5 572.1 390.95 573.7 390.95 575.3 390.95 576.8 390.25 578.35 389.55 579.35 388.15
L 579.35 389.95
Q 579.35 390.2 579.45 390.25 579.5 390.3 579.8 390.3
L 583.05 390.3
Q 583.55 390.3 583.5 389.7 583.35 388.75 583.35 387.55 583.35 386.3 583.35 385.2
L 583.35 375.7
Q 583.35 371.5 581.35 369.55 579.45 367.6 575.4 367.6 573.25 367.6 571.8 368.05 570.4 368.45 569.05 369.15 568.55 369.4 568.45 369.6 568.35 369.7 568.4 369.9 568.4 370.05 568.4 370.25
L 568.4 373.25
Q 568.4 373.65 568.6 373.7 568.85 373.75 569.5 373.35 570.75 372.55 572.2 372.05 573.7 371.6 575.45 371.6 576.55 371.6 577.2 371.95 577.9 372.35 578.25 372.95 578.65 373.55 578.8 374.3 578.95 375.05 578.95 375.85 575.55 375.85 573.15 376.35 570.75 376.85 569.2 377.85 567.7 378.9 566.95 380.4 566.25 381.95 566.25 384
M 579.1 379.65
L 579.1 380.05
Q 579.1 383.6 577.7 385.3 576.3 387 574.05 387 572.55 387 571.7 386.2 570.8 385.5 570.8 383.95 570.8 381.8 572.7 380.7 574.65 379.65 579.1 379.65
M 550 368.05
Q 548.6 368.45 547.25 369.15 546.75 369.4 546.65 369.6 546.55 369.7 546.6 369.9 546.6 370.05 546.6 370.25
L 546.6 373.25
Q 546.6 373.65 546.8 373.7 547.05 373.75 547.7 373.35 548.95 372.55 550.4 372.05 551.9 371.6 553.65 371.6 554.75 371.6 555.4 371.95 556.1 372.35 556.45 372.95 556.85 373.55 557 374.3 557.15 375.05 557.15 375.85 553.75 375.85 551.35 376.35 548.95 376.85 547.4 377.85 545.9 378.9 545.15 380.4 544.45 381.95 544.45 384 544.45 385.7 545 387 545.55 388.3 546.55 389.2 547.5 390.05 548.9 390.5 550.3 390.95 551.9 390.95 553.5 390.95 555 390.25 556.55 389.55 557.55 388.15
L 557.55 389.95
Q 557.55 390.2 557.65 390.25 557.7 390.3 558 390.3
L 561.25 390.3
Q 561.75 390.3 561.7 389.7 561.55 388.75 561.55 387.55 561.55 386.3 561.55 385.2
L 561.55 375.7
Q 561.55 371.5 559.55 369.55 557.65 367.6 553.6 367.6 551.45 367.6 550 368.05
M 557.3 379.65
L 557.3 380.05
Q 557.3 383.6 555.9 385.3 554.5 387 552.25 387 550.75 387 549.9 386.2 549 385.5 549 383.95 549 381.8 550.9 380.7 552.85 379.65 557.3 379.65
M 451.1 358.05
Q 450.95 358.2 450.95 358.4
L 450.95 389.9
Q 450.95 390.4 451.4 390.4
L 454.8 390.4
Q 455 390.4 455.15 390.25 455.3 390.1 455.3 389.9
L 455.3 358.4
Q 455.3 358.2 455.15 358.05 455 357.9 454.8 357.9
L 451.45 357.9
Q 451.25 357.9 451.1 358.05
M 464.85 358.05
Q 464.7 357.9 464.5 357.9
L 461.15 357.9
Q 460.95 357.9 460.8 358.05 460.65 358.2 460.65 358.4
L 460.65 389.9
Q 460.65 390.4 461.1 390.4
L 464.5 390.4
Q 464.7 390.4 464.85 390.25 465 390.1 465 389.9
L 465 358.4
Q 465 358.2 464.85 358.05
M 430.2 369.9
Q 430.2 370.05 430.2 370.25
L 430.2 373.25
Q 430.2 373.65 430.4 373.7 430.65 373.75 431.3 373.35 432.55 372.55 434 372.05 435.5 371.6 437.25 371.6 438.35 371.6 439 371.95 439.7 372.35 440.05 372.95 440.45 373.55 440.6 374.3 440.75 375.05 440.75 375.85 437.35 375.85 434.95 376.35 432.55 376.85 431 377.85 429.5 378.9 428.75 380.4 428.05 381.95 428.05 384 428.05 385.7 428.6 387 429.15 388.3 430.15 389.2 431.1 390.05 432.5 390.5 433.9 390.95 435.5 390.95 437.1 390.95 438.6 390.25 440.15 389.55 441.15 388.15
L 441.15 389.95
Q 441.15 390.2 441.25 390.25 441.3 390.3 441.6 390.3
L 444.85 390.3
Q 445.35 390.3 445.3 389.7 445.15 388.75 445.15 387.55 445.15 386.3 445.15 385.2
L 445.15 375.7
Q 445.15 371.5 443.15 369.55 441.25 367.6 437.2 367.6 435.05 367.6 433.6 368.05 432.2 368.45 430.85 369.15 430.35 369.4 430.25 369.6 430.15 369.7 430.2 369.9
M 440.9 379.65
L 440.9 380.05
Q 440.9 383.6 439.5 385.3 438.1 387 435.85 387 434.35 387 433.5 386.2 432.6 385.5 432.6 383.95 432.6 381.8 434.5 380.7 436.45 379.65 440.9 379.65
M 421.35 369.55
Q 419.45 367.6 415.4 367.6 413.25 367.6 411.8 368.05 410.4 368.45 409.05 369.15 408.55 369.4 408.45 369.6 408.35 369.7 408.4 369.9 408.4 370.05 408.4 370.25
L 408.4 373.25
Q 408.4 373.65 408.6 373.7 408.85 373.75 409.5 373.35 410.75 372.55 412.2 372.05 413.7 371.6 415.45 371.6 416.55 371.6 417.2 371.95 417.9 372.35 418.25 372.95 418.65 373.55 418.8 374.3 418.95 375.05 418.95 375.85 415.55 375.85 413.15 376.35 410.75 376.85 409.2 377.85 407.7 378.9 406.95 380.4 406.25 381.95 406.25 384 406.25 385.7 406.8 387 407.35 388.3 408.35 389.2 409.3 390.05 410.7 390.5 412.1 390.95 413.7 390.95 415.3 390.95 416.8 390.25 418.35 389.55 419.35 388.15
L 419.35 389.95
Q 419.35 390.2 419.45 390.25 419.5 390.3 419.8 390.3
L 423.05 390.3
Q 423.55 390.3 423.5 389.7 423.35 388.75 423.35 387.55 423.35 386.3 423.35 385.2
L 423.35 375.7
Q 423.35 371.5 421.35 369.55
M 419.1 379.65
L 419.1 380.05
Q 419.1 383.6 417.7 385.3 416.3 387 414.05 387 412.55 387 411.7 386.2 410.8 385.5 410.8 383.95 410.8 381.8 412.7 380.7 414.65 379.65 419.1 379.65
M 386.6 369.9
Q 386.6 370.05 386.6 370.25
L 386.6 373.25
Q 386.6 373.65 386.8 373.7 387.05 373.75 387.7 373.35 388.95 372.55 390.4 372.05 391.9 371.6 393.65 371.6 394.75 371.6 395.4 371.95 396.1 372.35 396.45 372.95 396.85 373.55 397 374.3 397.15 375.05 397.15 375.85 393.75 375.85 391.35 376.35 388.95 376.85 387.4 377.85 385.9 378.9 385.15 380.4 384.45 381.95 384.45 384 384.45 385.7 385 387 385.55 388.3 386.55 389.2 387.5 390.05 388.9 390.5 390.3 390.95 391.9 390.95 393.5 390.95 395 390.25 396.55 389.55 397.55 388.15
L 397.55 389.95
Q 397.55 390.2 397.65 390.25 397.7 390.3 398 390.3
L 401.25 390.3
Q 401.75 390.3 401.7 389.7 401.55 388.75 401.55 387.55 401.55 386.3 401.55 385.2
L 401.55 375.7
Q 401.55 371.5 399.55 369.55 397.65 367.6 393.6 367.6 391.45 367.6 390 368.05 388.6 368.45 387.25 369.15 386.75 369.4 386.65 369.6 386.55 369.7 386.6 369.9
M 397.3 379.65
L 397.3 380.05
Q 397.3 383.6 395.9 385.3 394.5 387 392.25 387 390.75 387 389.9 386.2 389 385.5 389 383.95 389 381.8 390.9 380.7 392.85 379.65 397.3 379.65 Z"/>
</g>

<g id="Duplicate_Items_Folder_fnfmf343434_copy_5_0_Layer1_0_FILL">
<path fill="#FFFFFF" stroke="none" d="
M 30 -15
Q 30 -30 15 -30
L -15 -30
Q -30 -30 -30 -15
L -30 15.05
Q -30 30.05 -15 30.05
L 15 30.05
Q 30 30.05 30 15.05
L 30 -15 Z"/>
</g>

<g id="Duplicate_Items_Folder_fnfmf343434_copy_0_Layer1_0_FILL">
<path fill="#FFFFFF" stroke="none" d="
M 60 -15
Q 60 -30 45 -30
L -45 -30
Q -60 -30 -60 -15
L -60 15.05
Q -60 30.05 -45 30.05
L 45 30.05
Q 60 30.05 60 15.05
L 60 -15 Z"/>
</g>

<path id="Duplicate_Items_Folder_fnfmf343434_copy_5_0_Layer1_0_1_STROKES" stroke="#DBDBDB" stroke-width="3" stroke-linejoin="round" stroke-linecap="round" fill="none" d="
M -15 -30
L 15 -30
Q 30 -30 30 -15
L 30 15.05
Q 30 30.05 15 30.05
L -15 30.05
Q -30 30.05 -30 15.05
L -30 -15
Q -30 -30 -15 -30 Z"/>

<path id="Duplicate_Items_Folder_fnfmf343434_copy_0_Layer1_0_1_STROKES" stroke="#DBDBDB" stroke-width="3" stroke-linejoin="round" stroke-linecap="round" fill="none" d="
M -45 -30
L 45 -30
Q 60 -30 60 -15
L 60 15.05
Q 60 30.05 45 30.05
L -45 30.05
Q -60 30.05 -60 15.05
L -60 -15
Q -60 -30 -45 -30 Z"/>

<path id="Layer0_3_1_STROKES" stroke="#BBDECB" stroke-width="5" stroke-linejoin="miter" stroke-linecap="butt" stroke-miterlimit="3" fill="none" d="
M 109.05 273.05
L 1182.3 273.05
Q 1197.3 273.05 1197.3 288.05
L 1197.3 438.1
Q 1197.3 453.1 1182.3 453.1
L 109.05 453.1
Q 94.05 453.1 94.05 438.1
L 94.05 288.05
Q 94.05 273.05 109.05 273.05 Z"/>
</defs>

<g transform="matrix( 1, 0, 0, 1, 0,0) ">
<use xlink:href="#Layer0_0_FILL"/>
</g>

<g transform="matrix( 1, 0, 0, 1, 426.4,374.9) ">
<g transform="matrix( 1, 0, 0, 1, 0,0) ">
<use xlink:href="#Duplicate_Items_Folder_fnfmf343434_copy_5_0_Layer1_0_FILL"/>

<use xlink:href="#Duplicate_Items_Folder_fnfmf343434_copy_5_0_Layer1_0_1_STROKES"/>
</g>
</g>

<g transform="matrix( 1, 0, 0, 1, 617.7,374.9) ">
<g transform="matrix( 1, 0, 0, 1, 0,0) ">
<use xlink:href="#Duplicate_Items_Folder_fnfmf343434_copy_0_Layer1_0_FILL"/>

<use xlink:href="#Duplicate_Items_Folder_fnfmf343434_copy_0_Layer1_0_1_STROKES"/>
</g>
</g>

<g transform="matrix( 1, 0, 0, 1, -5.65,15) ">
<use xlink:href="#Layer0_3_1_STROKES"/>
</g>
</svg>
