<svg xmlns="http://www.w3.org/2000/svg" xmlns:xlink="http://www.w3.org/1999/xlink" viewBox="0 0 362 48.38"><defs><style>.cls-1,.cls-3{fill:none;}.cls-2{clip-path:url(#clip-path);}.cls-3{stroke:#231815;stroke-linejoin:round;stroke-width:0.8px;}.cls-4{fill:#231815;}</style><clipPath id="clip-path" transform="translate(0)"><rect class="cls-1" width="362" height="48.38"/></clipPath></defs><title>자산 1</title><g id="레이어_2" data-name="레이어 2"><g id="레이어_1-2" data-name="레이어 1"><g class="cls-2"><path class="cls-3" d="M229.15,48V20.4L258.08,2.53,287,20.4V48ZM213.43,7.24V47.77h-63V15.25S181.2,23.69,213.43,7.24ZM134.67,5.41V47.93H78V5.41h47.58M63,46.69H.4L43.33,6.92Z" transform="translate(0)"/><path class="cls-4" d="M40.73,28.25v11h.88V33.76h1.72V33H41.61v-4.7Zm-7.1,1.3v.77h3.92a9.08,9.08,0,0,1-.39,1.74,7.53,7.53,0,0,1-1,2,7.42,7.42,0,0,1-1.47,1.55A10.13,10.13,0,0,1,33,36.72l.69.57a10,10,0,0,0,1.7-1.19A9.1,9.1,0,0,0,37,34.35a7.8,7.8,0,0,0,1.16-2.41,12.59,12.59,0,0,0,.44-2.39Z" transform="translate(0)"/><path class="cls-4" d="M111.75,26.81H110V22.5h-.89v11H110V27.61h1.71Zm-3.37,2.73c-.39.09-.94.18-1.62.27a16.78,16.78,0,0,1-1.84.16l-2,0V23.55H102V30.8l2.84,0a16.69,16.69,0,0,0,2-.19l1.55-.24Z" transform="translate(0)"/><path class="cls-4" d="M186.58,31.13H184.9V26.66H184v11h.89V31.94h1.68ZM183.25,34c-.25.05-.69.11-1.32.17s-1.19.11-1.74.12l-2.32,0V28.79h4.22V28H177v7.07h1c.63,0,1.28,0,1.93,0s1.35-.06,2-.13,1.08-.12,1.33-.17Z" transform="translate(0)"/><polygon class="cls-3" points="361.6 0.4 361.6 47.77 302.96 47.77 321.39 9.73 361.6 0.4"/><path class="cls-4" d="M334.35,25.18h3.26V30.8h-3.26Zm8.93,2.2h-1.7V23h-.88V34h.88V28.2h1.7Zm-4.79-3h-5v7.16h5Z" transform="translate(0)"/><path class="cls-4" d="M260.63,23.66v11h.89V29h1.69v-.8h-1.69V23.66Zm-.75,7.67c-.32.05-.82.11-1.5.17s-1.3.11-1.84.13l-2.16,0V29h4V24.79H253.5v.77h4v2.62h-4v4.25h1l1.94,0c.6,0,1.25-.07,1.93-.13s1.21-.12,1.55-.18Z" transform="translate(0)"/></g></g></g></svg>