
<svg xmlns="http://www.w3.org/2000/svg" version="1.1" xmlns:xlink="http://www.w3.org/1999/xlink" preserveAspectRatio="none" x="0px" y="0px" width="1280px" height="720px" viewBox="0 0 1280 720">
<defs>
<g id="Layer5_0_FILL">
<path fill="#1E1E1E" stroke="none" d="
M 999.5 512.6
Q 997.8 507.85 994 503.15 993.8 502.8 993.45 502.8
L 990.5 502.8
Q 990 502.8 990.25 503.25 993.45 508.3 995 513 996.5 517.7 996.5 522.4 996.5 527.1 995 531.75 993.5 536.45 990.25 541.5 990.15 541.65 990.2 541.8 990.2 541.95 990.5 541.95
L 993.45 541.95
Q 993.8 541.95 994 541.6 997.8 536.95 999.5 532.2 1001.2 527.45 1001.2 522.4 1001.2 517.3 999.5 512.6
M 792.15 503.25
Q 792.45 502.8 791.9 502.8
L 788.95 502.8
Q 788.65 502.8 788.4 503.15 784.65 507.85 782.95 512.6 781.25 517.3 781.25 522.4 781.25 527.45 782.95 532.2 784.65 536.95 788.4 541.6 788.65 541.95 788.95 541.95
L 791.9 541.95
Q 792.2 541.95 792.25 541.8 792.3 541.65 792.15 541.5 788.9 536.45 787.4 531.75 785.9 527.1 785.9 522.4 785.9 517.7 787.45 513 788.95 508.3 792.15 503.25
M 472.35 512.6
Q 470.65 507.85 466.85 503.15 466.65 502.8 466.3 502.8
L 463.35 502.8
Q 462.85 502.8 463.1 503.25 466.3 508.3 467.85 513 469.35 517.7 469.35 522.4 469.35 527.1 467.85 531.75 466.35 536.45 463.1 541.5 463 541.65 463.05 541.8 463.05 541.95 463.35 541.95
L 466.3 541.95
Q 466.65 541.95 466.85 541.6 470.65 536.95 472.35 532.2 474.05 527.45 474.05 522.4 474.05 517.3 472.35 512.6
M 265 503.25
Q 265.3 502.8 264.75 502.8
L 261.8 502.8
Q 261.5 502.8 261.25 503.15 257.5 507.85 255.8 512.6 254.1 517.3 254.1 522.4 254.1 527.45 255.8 532.2 257.5 536.95 261.25 541.6 261.5 541.95 261.8 541.95
L 264.75 541.95
Q 265.05 541.95 265.1 541.8 265.15 541.65 265 541.5 261.75 536.45 260.25 531.75 258.75 527.1 258.75 522.4 258.75 517.7 260.3 513 261.8 508.3 265 503.25 Z"/>
</g>

<path id="Layer5_0_1_STROKES" stroke="#E50182" stroke-width="2" stroke-linejoin="round" stroke-linecap="round" fill="none" d="
M 859.1 431
Q 856.65 420.3 848.35 412 836.6 400.3 820 400.3 814.85 400.3 810.15 401.45
M 271.1 357
Q 273.75 364.95 273.75 374 273.75 377.9 273.25 381.65"/>

<path id="Layer5_0_2_STROKES" stroke="#000000" stroke-width="3" stroke-linejoin="round" stroke-linecap="round" fill="none" d="
M 810.15 401.45
L 825.3 431 859.1 431
M 740.75 266.05
L 810.15 401.45
M 859.1 431
L 1040.7 431
M 273.25 381.65
L 487.75 427
M 271.1 357
L 239.35 374.45 273.25 381.65
M 425.75 272.05
L 271.1 357"/>
</defs>

<g transform="matrix( 1, 0, 0, 1, 0,0) ">
<use xlink:href="#Layer5_0_FILL"/>

<use xlink:href="#Layer5_0_1_STROKES"/>

<use xlink:href="#Layer5_0_2_STROKES"/>
</g>
</svg>
