
<svg xmlns="http://www.w3.org/2000/svg" version="1.1" xmlns:xlink="http://www.w3.org/1999/xlink" preserveAspectRatio="none" x="0px" y="0px" width="450px" height="170px" viewBox="0 0 450 170">
<defs>
<g id="Layer0_0_FILL">
<path fill="#1E1E1E" stroke="none" d="
M 429.5 12
Q 429.35 11.75 429.15 11.55 428.95 11.3 428.65 11.1 428.2 10.85 427.8 10.75 427.4 10.7 427 10.8 426.55 10.9 426.2 11.15 425.8 11.4 425.55 11.8
L 425.3 12.2
Q 424.7 13.1 424.1 14.05 423.5 15.05 422.9 16.1 422.25 17.2 421.65 18.25 421 19.35 420.3 20.35 418.95 22.5 417.7 24.5 417 25.5 416.35 26.55 415.65 27.55 415 28.6
L 414.85 29.05 414.8 29.05 414.8 29.1 414.75 29.15
Q 414.65 29.35 414.55 29.55 414.5 29.7 414.45 29.95 414.4 30.15 414.4 30.4 414.45 30.6 414.5 30.8 414.55 31.05 414.6 31.25 414.7 31.45 414.8 31.65 414.85 31.85 415 32 415.1 32.15 415.3 32.25 415.5 32.35 415.65 32.4 415.85 32.45 416.1 32.55 416.25 32.6 416.45 32.6 416.65 32.6 416.85 32.55
L 425.65 32.55 425.65 34.2
Q 425.65 34.8 425.8 35.2 425.95 35.6 426.25 35.75 426.75 36.2 427.8 36.2 428.5 36.2 429.15 35.75 429.8 35.4 429.8 34.2
L 429.8 32.55 430.95 32.55
Q 431.55 32.55 431.9 32.4 432.25 32.3 432.45 31.95 432.6 31.65 432.7 31.3 432.75 30.95 432.75 30.45 432.75 30.1 432.7 29.75 432.6 29.4 432.45 29.05 432.25 28.75 431.9 28.6 431.55 28.4 430.95 28.4
L 429.8 28.4 429.7 12.95
Q 429.7 12.7 429.65 12.5 429.6 12.25 429.5 12
M 422.7 23.45
Q 423.15 22.8 423.6 22.15 424 21.55 424.35 20.95 425.1 19.8 425.55 18.95
L 425.55 28.5 419.5 28.5
Q 419.9 28 420.3 27.35 420.7 26.75 421.1 26.1 421.55 25.45 421.95 24.75 422.3 24.1 422.7 23.45
M 410.1 24.65
Q 410.2 24.4 410.2 24.15 410.2 24.1 410.2 23.95 410.15 23.85 410.15 23.65 410.1 23.5 410.05 23.35 410 23.25 409.95 23.15 408.9 21.45 407.9 19.7 406.85 18.05 405.9 16.3 404.95 14.65 403.95 12.95 402.95 11.25 401.9 9.55 401.8 9.3 401.65 9.05 401.5 8.85 401.3 8.7 401.05 8.55 400.85 8.5 400.6 8.4 400.35 8.4 400 8.4 399.65 8.55 399.35 8.7 399.1 9 398.8 9.3 398.65 9.55 398.5 9.85 398.5 10.1 398.5 10.35 398.55 10.55 398.55 10.8 398.65 11.05 399.6 12.65 400.6 14.3 401.55 15.9 402.5 17.5 403.5 19.15 404.4 20.75 405.35 22.35 406.25 24 405.85 24.7 405.45 25.5 405 26.3 404.5 27.15 404 28 403.55 28.85 403.05 29.7 402.65 30.55 402.05 31.4 401.6 32.25 401.1 33.1 400.65 33.95 400.2 34.8 399.75 35.6 399.25 36.35 398.8 37.1 398.65 37.3 398.65 37.5 398.6 37.7 398.6 37.95 398.6 38.25 398.75 38.5 398.9 38.8 399.2 39.1 399.45 39.4 399.8 39.5 400.15 39.65 400.5 39.65 400.95 39.65 401.3 39.45 401.65 39.2 401.85 38.8 403.95 35.45 405.85 31.95 406.8 30.3 407.8 28.55 408.75 26.85 409.8 25.05 410 24.9 410.1 24.65
M 393.3 12.25
Q 393.25 12 393.1 11.7 392.95 11.45 392.7 11.3 392.5 11.15 392.25 11.15 390.4 11.15 388.55 11.15 386.75 11.15 385 11.15 383.15 11.15 381.35 11.15 379.6 11.2 377.85 11.2 377.3 11.25 377 11.4 376.65 11.55 376.5 11.9 376.3 12.2 376.25 12.55 376.15 12.9 376.15 13.3 376.15 13.75 376.25 14.1 376.3 14.45 376.5 14.75 376.65 15.05 377 15.2 377.35 15.35 377.85 15.35
L 388.15 15.35
Q 387.7 16 387.2 16.8 386.7 17.6 386.2 18.55 385.65 19.45 385.1 20.5 384.5 21.5 383.9 22.6 383.35 23.7 382.9 24.8 382.4 25.9 381.95 27 381 29.35 380.65 31.35 380.55 31.85 380.45 32.35 380.3 32.8 380.2 33.25 380.05 33.65 379.95 34.05 379.9 34.45 379.85 34.75 379.85 35.2 380.05 35.5 380.25 35.8 380.55 36 380.9 36.2 381.25 36.3 381.7 36.35 382.2 36.35 382.7 36.35 383.05 36.25 383.45 36.15 383.7 35.95 383.9 35.75 384.05 35.5 384.2 35.2 384.35 34.75 384.5 34.4 384.6 33.95 384.7 33.5 384.8 32.9 384.85 32.35 384.95 31.75 385.05 31.15 385.2 30.45 385.35 29.65 385.6 28.85 385.8 28.05 386.15 27.2 386.4 26.3 386.75 25.5 387.1 24.65 387.5 23.9 387.8 23.1 388.15 22.35 388.45 21.6 388.85 20.9 389.15 20.25 389.4 19.7 389.7 19.15 389.95 18.7 390.3 18.15 390.65 17.75 391.05 17.3 391.35 16.9 391.65 16.6 391.9 16.25 392.15 15.95 392.4 15.6 392.55 15.4 392.7 15.15 392.9 14.85 393.05 14.55 393.35 14.05 393.35 13.3
L 393.35 12.9
Q 393.35 12.6 393.3 12.25
M 434.85 93.6
Q 434.45 93.55 434.05 93.65 433.6 93.75 433.25 94 432.85 94.25 432.6 94.65
L 432.35 95.05
Q 431.75 95.95 431.15 96.9 430.55 97.9 429.95 98.95 429.3 100.05 428.7 101.1 428.05 102.2 427.35 103.2 426 105.35 424.75 107.35 424.05 108.35 423.4 109.4 422.7 110.4 422.05 111.45
L 421.9 111.9 421.85 111.9 421.85 111.95 421.8 112
Q 421.7 112.2 421.6 112.4 421.55 112.55 421.5 112.8 421.45 113 421.45 113.25 421.5 113.45 421.55 113.65 421.6 113.9 421.65 114.1 421.75 114.3 421.85 114.5 421.9 114.7 422.05 114.85 422.15 115 422.35 115.1 422.55 115.2 422.7 115.25 422.9 115.3 423.15 115.4 423.3 115.45 423.5 115.45 423.7 115.45 423.9 115.4
L 432.7 115.4 432.7 117.05
Q 432.7 117.65 432.85 118.05 433 118.45 433.3 118.6 433.8 119.05 434.85 119.05 435.55 119.05 436.2 118.6 436.85 118.25 436.85 117.05
L 436.85 115.4 438 115.4
Q 438.6 115.4 438.95 115.25 439.3 115.15 439.5 114.8 439.65 114.5 439.75 114.15 439.8 113.8 439.8 113.3 439.8 112.95 439.75 112.6 439.65 112.25 439.5 111.9 439.3 111.6 438.95 111.45 438.6 111.25 438 111.25
L 436.85 111.25 436.75 95.8
Q 436.75 95.55 436.7 95.35 436.65 95.1 436.55 94.85 436.4 94.6 436.2 94.4 436 94.15 435.7 93.95 435.25 93.7 434.85 93.6
M 430.65 105
Q 431.05 104.4 431.4 103.8 432.15 102.65 432.6 101.8
L 432.6 111.35 426.55 111.35
Q 426.95 110.85 427.35 110.2 427.75 109.6 428.15 108.95 428.6 108.3 429 107.6 429.35 106.95 429.75 106.3 430.2 105.65 430.65 105
M 425.05 133.95
Q 424.55 134.45 424.15 135 423.75 135.55 423.45 136.15 423.1 136.85 422.95 137.55 422.8 138.25 422.8 139 422.8 139.85 423 140.65 423.2 141.45 423.65 142.15 424.05 142.9 424.6 143.5 425.15 144.1 425.9 144.6 424.15 145.65 423.05 147.2 422.45 148 422.15 148.9 421.85 149.8 421.8 150.75 421.8 151.65 422 152.45 422.15 153.2 422.5 153.95 422.85 154.7 423.35 155.3 423.85 155.95 424.5 156.5 425.1 157 425.8 157.45 426.55 157.9 427.3 158.2 428.1 158.55 428.95 158.7 429.8 158.85 430.8 158.85 432.65 158.85 434.35 158.2 435.95 157.6 437.15 156.55 437.8 156 438.3 155.4 438.8 154.8 439.15 154.1 439.85 152.75 439.85 151.05 439.85 150.05 439.6 149.15 439.3 148.2 438.75 147.35 438.2 146.55 437.5 145.85 436.8 145.15 435.95 144.6 436.5 144.15 437 143.6 437.5 143.05 437.9 142.4 438.3 141.7 438.55 141 438.8 140.3 438.9 139.5 438.95 139.4 439 139.25 439.05 139.15 439.05 139 439.05 138.25 438.9 137.6 438.75 136.9 438.4 136.25 437.65 135 436.65 134.05 436.1 133.55 435.5 133.15 434.85 132.75 434.15 132.45 433.4 132.2 432.55 132.05 431.7 131.9 430.8 131.9 429.1 131.9 427.6 132.45 426.9 132.7 426.25 133.1 425.6 133.5 425.05 133.95
M 434.6 140.65
Q 434.35 141.25 433.95 141.75 433.45 142.25 432.65 142.5 431.85 142.7 430.8 142.7 429.75 142.7 429.05 142.5 428.3 142.25 427.85 141.75 427.35 141.25 427.1 140.65 426.85 140 426.85 139.3 426.85 138.6 427.1 138 427.35 137.45 427.8 136.9 428.25 136.45 429 136.2 429.75 135.95 430.8 135.95 431.85 135.95 432.65 136.2 433.45 136.45 433.95 136.9 434.35 137.4 434.6 138 434.85 138.6 434.85 139.3 434.85 140 434.6 140.65
M 427.3 147.9
Q 427.95 147.35 428.8 147.05 429.65 146.8 430.8 146.8 432 146.8 432.9 147.05 433.85 147.35 434.5 147.95 435.1 148.5 435.4 149.25 435.7 149.95 435.7 150.85 435.7 151.65 435.4 152.4 435.1 153.05 434.5 153.65 433.85 154.25 432.9 154.55 432 154.85 430.8 154.85 428.6 154.85 427.3 153.65 426.65 153.1 426.35 152.4 426 151.65 426 150.85 426 149.95 426.35 149.2 426.65 148.5 427.3 147.9
M 400.7 110.75
Q 400.35 110.75 400 110.9 399.7 111.05 399.45 111.35 399.15 111.65 399 111.9 398.85 112.2 398.85 112.45 398.85 112.7 398.9 112.9 398.9 113.15 399 113.4 399.95 115 400.95 116.65 401.9 118.25 402.85 119.85 403.85 121.5 404.75 123.1 405.7 124.7 406.6 126.35 406.2 127.05 405.8 127.85 405.35 128.65 404.85 129.5 404.35 130.35 403.9 131.2 403.4 132.05 403 132.9 402.4 133.75 401.95 134.6 401.45 135.45 401 136.3 400.55 137.15 400.1 137.95 399.6 138.7 399.15 139.45 399 139.65 399 139.85 398.95 140.05 398.95 140.3 398.95 140.6 399.1 140.85 399.25 141.15 399.55 141.45 399.8 141.75 400.15 141.85 400.5 142 400.85 142 401.3 142 401.65 141.8 402 141.55 402.2 141.15 404.3 137.8 406.2 134.3 407.15 132.65 408.15 130.9 409.1 129.2 410.15 127.4 410.35 127.25 410.45 127 410.55 126.75 410.55 126.5 410.55 126.45 410.55 126.3 410.5 126.2 410.5 126 410.45 125.85 410.4 125.7 410.35 125.6 410.3 125.5 409.25 123.8 408.25 122.05 407.2 120.4 406.25 118.65 405.3 117 404.3 115.3 403.3 113.6 402.25 111.9 402.15 111.65 402 111.4 401.85 111.2 401.65 111.05 401.4 110.9 401.2 110.85 400.95 110.75 400.7 110.75
M 371.9 94.05
Q 371.35 94.1 371.05 94.25 370.7 94.4 370.55 94.75 370.35 95.05 370.3 95.4 370.2 95.75 370.2 96.15 370.2 96.6 370.3 96.95 370.35 97.3 370.55 97.6 370.7 97.9 371.05 98.05 371.4 98.2 371.9 98.2
L 382.2 98.2
Q 381.75 98.85 381.25 99.65 380.75 100.45 380.25 101.4 379.7 102.3 379.15 103.35 378.55 104.35 377.95 105.45 377.4 106.55 376.95 107.65 376.45 108.75 376 109.85 375.05 112.2 374.7 114.2 374.6 114.7 374.5 115.2 374.35 115.65 374.25 116.1 374.1 116.5 374 116.9 373.95 117.3 373.9 117.6 373.9 118.05 374.1 118.35 374.3 118.65 374.6 118.85 374.95 119.05 375.3 119.15 375.75 119.2 376.25 119.2 376.75 119.2 377.1 119.1 377.5 119 377.75 118.8 377.95 118.6 378.1 118.35 378.25 118.05 378.4 117.6 378.55 117.25 378.65 116.8 378.75 116.35 378.85 115.75 378.9 115.2 379 114.6 379.1 114 379.25 113.3 379.4 112.5 379.65 111.7 379.85 110.9 380.2 110.05 380.45 109.15 380.8 108.35 381.15 107.5 381.55 106.75 381.85 105.95 382.2 105.2 382.5 104.45 382.9 103.75 383.2 103.1 383.45 102.55 383.75 102 384 101.55 384.35 101 384.7 100.6 385.1 100.15 385.4 99.75 385.7 99.45 385.95 99.1 386.2 98.8 386.45 98.45 386.6 98.25 386.75 98 386.95 97.7 387.1 97.4 387.4 96.9 387.4 96.15
L 387.4 95.75
Q 387.4 95.45 387.35 95.1 387.3 94.85 387.15 94.55 387 94.3 386.75 94.15 386.55 94 386.3 94 384.45 94 382.6 94 380.8 94 379.05 94 377.2 94 375.4 94 373.65 94.05 371.9 94.05
M 384.45 134.05
Q 383.9 133.55 383.3 133.15 382.65 132.75 381.95 132.45 381.2 132.2 380.35 132.05 379.5 131.9 378.6 131.9 376.9 131.9 375.4 132.45 374.7 132.7 374.05 133.1 373.4 133.5 372.85 133.95 372.35 134.45 371.95 135 371.55 135.55 371.25 136.15 370.9 136.85 370.75 137.55 370.6 138.25 370.6 139 370.6 139.85 370.8 140.65 371 141.45 371.45 142.15 371.85 142.9 372.4 143.5 372.95 144.1 373.7 144.6 371.95 145.65 370.85 147.2 370.25 148 369.95 148.9 369.65 149.8 369.6 150.75 369.6 151.65 369.8 152.45 369.95 153.2 370.3 153.95 370.65 154.7 371.15 155.3 371.65 155.95 372.3 156.5 372.9 157 373.6 157.45 374.35 157.9 375.1 158.2 375.9 158.55 376.75 158.7 377.6 158.85 378.6 158.85 380.45 158.85 382.15 158.2 383.75 157.6 384.95 156.55 385.6 156 386.1 155.4 386.6 154.8 386.95 154.1 387.65 152.75 387.65 151.05 387.65 150.05 387.4 149.15 387.1 148.2 386.55 147.35 386 146.55 385.3 145.85 384.6 145.15 383.75 144.6 384.3 144.15 384.8 143.6 385.3 143.05 385.7 142.4 386.1 141.7 386.35 141 386.6 140.3 386.7 139.5 386.75 139.4 386.8 139.25 386.85 139.15 386.85 139 386.85 138.25 386.7 137.6 386.55 136.9 386.2 136.25 385.45 135 384.45 134.05
M 382.4 140.65
Q 382.15 141.25 381.75 141.75 381.25 142.25 380.45 142.5 379.65 142.7 378.6 142.7 377.55 142.7 376.85 142.5 376.1 142.25 375.65 141.75 375.15 141.25 374.9 140.65 374.65 140 374.65 139.3 374.65 138.6 374.9 138 375.15 137.45 375.6 136.9 376.05 136.45 376.8 136.2 377.55 135.95 378.6 135.95 379.65 135.95 380.45 136.2 381.25 136.45 381.75 136.9 382.15 137.4 382.4 138 382.65 138.6 382.65 139.3 382.65 140 382.4 140.65
M 375.1 147.9
Q 375.75 147.35 376.6 147.05 377.45 146.8 378.6 146.8 379.8 146.8 380.7 147.05 381.65 147.35 382.3 147.95 382.9 148.5 383.2 149.25 383.5 149.95 383.5 150.85 383.5 151.65 383.2 152.4 382.9 153.05 382.3 153.65 381.65 154.25 380.7 154.55 379.8 154.85 378.6 154.85 376.4 154.85 375.1 153.65 374.45 153.1 374.15 152.4 373.8 151.65 373.8 150.85 373.8 149.95 374.15 149.2 374.45 148.5 375.1 147.9
M 250.95 12.35
Q 249.8 11.25 248.45 10.65 247.05 10.1 245.5 10.1 244.3 10.1 243.3 10.35 242.3 10.6 241.45 11.1 240.6 11.55 239.85 12.25 239.1 12.95 238.5 13.85 237.85 14.75 237.4 15.8 236.95 16.9 236.65 18.15 236.3 19.4 236.15 20.8 236 22.2 236 23.75 236 25.25 236.15 26.6 236.25 27.9 236.55 29.1 236.8 30.3 237.25 31.35 237.7 32.4 238.35 33.25 238.9 34.1 239.6 34.8 240.3 35.45 241.15 35.95 242.8 36.85 245.25 36.85 246.15 36.85 247 36.7 247.85 36.5 248.55 36.15 249.3 35.8 249.95 35.35 250.6 34.85 251.25 34.2 251.75 33.6 252.15 32.9 252.6 32.2 252.85 31.35 253.1 30.6 253.25 29.7 253.4 28.8 253.4 27.9 253.4 27 253.25 26.2 253.15 25.4 252.9 24.6 252.65 23.85 252.25 23.2 251.9 22.5 251.4 21.9 250.8 21.3 250.2 20.85 249.6 20.4 248.95 20.05 248.25 19.7 247.55 19.55 246.85 19.35 246.1 19.35 245.95 19.35 245.85 19.4 245.75 19.4 245.65 19.4 245.55 19.45 245.45 19.45 245.35 19.5 245.25 19.5 243.5 19.55 242.3 20.15 241.7 20.45 241.25 20.75 240.75 21.1 240.35 21.45 240.35 21 240.4 20.45 240.45 19.9 240.6 19.25 240.7 18.6 240.9 18 241.1 17.4 241.3 16.75 241.85 15.6 242.9 14.8 243.4 14.4 244 14.2 244.65 14 245.45 14 245.95 14 246.35 14.05 246.8 14.1 247.1 14.25 247.4 14.4 247.65 14.6 247.95 14.8 248.25 15.05 248.4 15.25 248.55 15.5 248.7 15.75 248.85 16 249.05 16.6 249.45 16.95 249.55 17.2 249.7 17.35 249.85 17.55 250 17.75 250.25 18.05 250.95 18.05 251.25 18.05 251.6 17.95 251.95 17.8 252.3 17.6 252.65 17.35 252.8 17.1 252.95 16.75 252.95 16.35 252.95 15.9 252.8 15.4 252.65 14.85 252.3 14.3 251.95 13.8 251.6 13.3 251.3 12.8 250.95 12.35
M 243.2 23.5
Q 244.05 23.2 245.15 23.2 246.05 23.2 246.85 23.5 247.6 23.85 248.25 24.5 248.8 25.15 249.1 26.05 249.45 26.9 249.45 28.05 249.45 29.2 249.1 30.1 248.8 31 248.25 31.65 247.6 32.35 246.85 32.65 246.05 33 245.15 33 244.1 33 243.25 32.65 242.45 32.3 241.9 31.6 240.75 30.3 240.75 28.05 240.75 26.95 241 26.05 241.3 25.2 241.9 24.5 242.4 23.85 243.2 23.5
M 230.25 9
Q 229.95 8.7 229.6 8.55 229.25 8.4 228.95 8.4 228.7 8.4 228.5 8.45 228.3 8.5 228.2 8.6 228 8.7 227.85 8.9 227.7 9.1 227.6 9.3 226.5 11 225.45 12.75 224.45 14.45 223.5 16.2 222.5 17.95 221.5 19.65 220.45 21.4 219.4 23.15 219.35 23.2 219.3 23.3 219.25 23.35 219.25 23.45 219.2 23.55 219.2 23.6 219.2 23.7 219.2 23.75
L 219.2 23.9
Q 219.15 23.95 219.15 24 219.15 24.1 219.15 24.2 219.15 24.45 219.25 24.7 219.35 24.9 219.5 25.05 220.55 26.85 221.55 28.55 222.55 30.3 223.5 31.95 224.45 33.7 225.45 35.4 226.4 37.1 227.45 38.8 227.65 39.2 228 39.45 228.35 39.65 228.8 39.65 229.2 39.65 229.55 39.5 229.85 39.4 230.2 39.1 230.45 38.8 230.6 38.5 230.8 38.2 230.8 37.95 230.8 37.7 230.7 37.5 230.65 37.3 230.55 37.1 230.05 36.35 229.6 35.6 229.1 34.8 228.65 33.95 228.2 33.1 227.7 32.25 227.25 31.4 226.7 30.55 226.25 29.7 225.8 28.85 225.3 28 224.85 27.15 223.75 25.45 223.05 24 224 22.35 224.95 20.75 225.9 19.15 226.85 17.5 227.8 15.9 228.75 14.3 229.7 12.65 230.65 11.05 230.75 10.8 230.8 10.6 230.85 10.35 230.85 10.1 230.85 9.85 230.7 9.55 230.55 9.25 230.25 9
M 207.85 15.15
Q 209.95 15.15 211.9 15.15 212.85 15.15 213.2 14.5 213.35 14.2 213.45 13.85 213.55 13.5 213.55 13.05 213.55 12.15 213.05 11.7 212.6 11.2 211.7 11.1
L 200.05 11.1
Q 199.8 12.8 199.6 14.5 199.4 16.2 199.15 17.85 198.9 19.55 198.7 21.25 198.45 22.95 198.3 24.6 198.3 24.65 198.3 24.7
L 198.35 24.7 198.35 24.8
Q 198.35 24.95 198.5 25.15 198.65 25.3 199 25.4 199.3 25.55 199.6 25.6 199.95 25.65 200.25 25.65 200.65 25.65 200.95 25.65 201.2 25.6 201.4 25.5 201.55 25.45 201.7 25.4 201.85 25.3 202 25.2 202.15 25.05 202.25 24.95 202.35 24.85 202.5 24.7 202.55 24.6 202.65 24.5 202.75 24.4 202.85 24.3 203.25 23.6 204.2 23.25 205.1 22.95 206.1 22.95 207.8 22.95 209 24.2 209.6 24.85 209.9 25.65 210.2 26.5 210.2 27.5 210.2 28.1 210.15 28.6 210.1 29.1 209.95 29.6 209.85 30.1 209.6 30.5 209.4 30.9 209.05 31.25 208.85 31.65 208.5 31.95 208.2 32.2 207.85 32.4 207.4 32.65 206.95 32.75 206.45 32.85 205.9 32.85 205.55 32.85 205.2 32.8 204.9 32.75 204.55 32.6 204.25 32.5 203.9 32.3 203.6 32.15 203.35 31.95 203.05 31.7 202.85 31.5 202.7 31.25 202.5 31 202.35 30.75 202.2 30.45 202.05 30.2 201.95 29.9 201.8 29.75 201.75 29.65 201.7 29.5 201.7 29.4
L 201.65 29.4 201.65 29.35
Q 201.55 29.05 201.45 28.85 201.3 28.65 201.1 28.5 200.85 28.4 200.6 28.3 200.3 28.25 199.95 28.25 199.5 28.25 199.1 28.35 198.75 28.5 198.45 28.7 198.15 28.95 198 29.25 197.85 29.55 197.85 29.95 197.85 30 197.85 30.15 197.85 30.25 197.95 30.4 197.95 30.55 197.95 30.7 198 30.85 198.1 31.05 198.2 31.3 198.3 31.55 198.4 31.8 198.5 32.05 198.65 32.4 198.85 32.7 199 32.95 199.25 33.25 199.45 33.55 199.7 33.85 199.9 34.1 200.1 34.4 201.2 35.6 202.7 36.2 204.15 36.85 205.9 36.85 206.7 36.85 207.45 36.7 208.2 36.55 208.95 36.25 210.4 35.65 211.7 34.45 212.3 33.9 212.85 33.2 213.35 32.55 213.7 31.7 214.1 30.85 214.25 29.95 214.45 29 214.5 27.95 214.5 26.85 214.3 25.9 214.15 24.95 213.8 24.1 213.45 23.35 212.95 22.65 212.45 22 211.9 21.45 210.85 20.35 209.6 19.85 208.9 19.6 208.25 19.5 207.65 19.35 207.05 19.35 206.3 19.35 205.65 19.45 205.05 19.5 204.5 19.65 203.95 19.8 203.55 20 203.1 20.2 202.85 20.4 202.95 19.05 203.15 17.8 203.25 17.2 203.35 16.55 203.5 15.9 203.65 15.15 204.7 15.15 205.75 15.15 206.8 15.15 207.85 15.15
M 249.65 97.65
Q 250.15 97.25 250.75 97.05 251.4 96.85 252.2 96.85 252.7 96.85 253.1 96.9 253.55 96.95 253.85 97.1 254.15 97.25 254.4 97.45 254.7 97.65 255 97.9 255.15 98.1 255.3 98.35 255.45 98.6 255.6 98.85 255.8 99.45 256.2 99.8 256.3 100.05 256.45 100.2 256.6 100.4 256.75 100.6 257 100.9 257.7 100.9 258 100.9 258.35 100.8 258.7 100.65 259.05 100.45 259.4 100.2 259.55 99.95 259.7 99.6 259.7 99.2 259.7 98.75 259.55 98.25 259.4 97.7 259.05 97.15 258.7 96.65 258.35 96.15 258.05 95.65 257.7 95.2 256.55 94.1 255.2 93.5 253.8 92.95 252.25 92.95 251.05 92.95 250.05 93.2 249.05 93.45 248.2 93.95 247.35 94.4 246.6 95.1 245.85 95.8 245.25 96.7 244.6 97.6 244.15 98.65 243.7 99.75 243.4 101 243.05 102.25 242.9 103.65 242.75 105.05 242.75 106.6 242.75 108.1 242.9 109.45 243 110.75 243.3 111.95 243.55 113.15 244 114.2 244.45 115.25 245.1 116.1 245.65 116.95 246.35 117.65 247.05 118.3 247.9 118.8 249.55 119.7 252 119.7 252.9 119.7 253.75 119.55 254.6 119.35 255.3 119 256.05 118.65 256.7 118.2 257.35 117.7 258 117.05 258.5 116.45 258.9 115.75 259.35 115.05 259.6 114.2 259.85 113.45 260 112.55 260.15 111.65 260.15 110.75 260.15 109.85 260 109.05 259.9 108.25 259.65 107.45 259.4 106.7 259 106.05 258.65 105.35 258.15 104.75 257.55 104.15 256.95 103.7 256.35 103.25 255.7 102.9 255 102.55 254.3 102.4 253.6 102.2 252.85 102.2 252.7 102.2 252.6 102.25 252.5 102.25 252.4 102.25 252.3 102.3 252.2 102.3 252.1 102.35 252 102.35 250.25 102.4 249.05 103 248.45 103.3 248 103.6 247.5 103.95 247.1 104.3 247.1 103.85 247.15 103.3 247.2 102.75 247.35 102.1 247.45 101.45 247.65 100.85 247.85 100.25 248.05 99.6 248.6 98.45 249.65 97.65
M 253.6 106.35
Q 254.35 106.7 255 107.35 255.55 108 255.85 108.9 256.2 109.75 256.2 110.9 256.2 112.05 255.85 112.95 255.55 113.85 255 114.5 254.35 115.2 253.6 115.5 252.8 115.85 251.9 115.85 250.85 115.85 250 115.5 249.2 115.15 248.65 114.45 247.5 113.15 247.5 110.9 247.5 109.8 247.75 108.9 248.05 108.05 248.65 107.35 249.15 106.7 249.95 106.35 250.8 106.05 251.9 106.05 252.8 106.05 253.6 106.35
M 260.15 135.15
L 260.15 134.75
Q 260.15 134.45 260.1 134.1 260.05 133.85 259.9 133.55 259.75 133.3 259.5 133.15 259.3 133 259.05 133 257.2 133 255.35 133 253.55 133 251.8 133 249.95 133 248.15 133 246.4 133.05 244.65 133.05 244.1 133.1 243.8 133.25 243.45 133.4 243.3 133.75 243.1 134.05 243.05 134.4 242.95 134.75 242.95 135.15 242.95 135.6 243.05 135.95 243.1 136.3 243.3 136.6 243.45 136.9 243.8 137.05 244.15 137.2 244.65 137.2
L 254.95 137.2
Q 254.5 137.85 254 138.65 253.5 139.45 253 140.4 252.45 141.3 251.9 142.35 251.3 143.35 250.7 144.45 250.15 145.55 249.7 146.65 249.2 147.75 248.75 148.85 247.8 151.2 247.45 153.2 247.35 153.7 247.25 154.2 247.1 154.65 247 155.1 246.85 155.5 246.75 155.9 246.7 156.3 246.65 156.6 246.65 157.05 246.85 157.35 247.05 157.65 247.35 157.85 247.7 158.05 248.05 158.15 248.5 158.2 249 158.2 249.5 158.2 249.85 158.1 250.25 158 250.5 157.8 250.7 157.6 250.85 157.35 251 157.05 251.15 156.6 251.3 156.25 251.4 155.8 251.5 155.35 251.6 154.75 251.65 154.2 251.75 153.6 251.85 153 252 152.3 252.15 151.5 252.4 150.7 252.6 149.9 252.95 149.05 253.2 148.15 253.55 147.35 253.9 146.5 254.3 145.75 254.6 144.95 254.95 144.2 255.25 143.45 255.65 142.75 255.95 142.1 256.2 141.55 256.5 141 256.75 140.55 257.1 140 257.45 139.6 257.85 139.15 258.15 138.75 258.45 138.45 258.7 138.1 258.95 137.8 259.2 137.45 259.35 137.25 259.5 137 259.7 136.7 259.85 136.4 260.15 135.9 260.15 135.15
M 230.6 111.35
Q 230.3 111.05 229.95 110.9 229.6 110.75 229.3 110.75 229.05 110.75 228.85 110.8 228.65 110.85 228.55 110.95 228.35 111.05 228.2 111.25 228.05 111.45 227.95 111.65 226.85 113.35 225.8 115.1 224.8 116.8 223.85 118.55 222.85 120.3 221.85 122 220.8 123.75 219.75 125.5 219.7 125.55 219.65 125.65 219.6 125.7 219.6 125.8 219.55 125.9 219.55 125.95 219.55 126.05 219.55 126.1
L 219.55 126.25
Q 219.5 126.3 219.5 126.35 219.5 126.45 219.5 126.55 219.5 126.8 219.6 127.05 219.7 127.25 219.85 127.4 220.9 129.2 221.9 130.9 222.9 132.65 223.85 134.3 224.8 136.05 225.8 137.75 226.75 139.45 227.8 141.15 228 141.55 228.35 141.8 228.7 142 229.15 142 229.55 142 229.9 141.85 230.2 141.75 230.55 141.45 230.8 141.15 230.95 140.85 231.15 140.55 231.15 140.3 231.15 140.05 231.05 139.85 231 139.65 230.9 139.45 230.4 138.7 229.95 137.95 229.45 137.15 229 136.3 228.55 135.45 228.05 134.6 227.6 133.75 227.05 132.9 226.6 132.05 226.15 131.2 225.65 130.35 225.2 129.5 224.1 127.8 223.4 126.35 224.35 124.7 225.3 123.1 226.25 121.5 227.2 119.85 228.15 118.25 229.1 116.65 230.05 115 231 113.4 231.1 113.15 231.15 112.95 231.2 112.7 231.2 112.45 231.2 112.2 231.05 111.9 230.9 111.6 230.6 111.35
M 196.8 98
Q 197.85 98 198.9 98 199.95 98 201 98 203.1 98 205.05 98 206 98 206.35 97.35 206.5 97.05 206.6 96.7 206.7 96.35 206.7 95.9 206.7 95 206.2 94.55 205.75 94.05 204.85 93.95
L 193.2 93.95
Q 192.95 95.65 192.75 97.35 192.55 99.05 192.3 100.7 192.05 102.4 191.85 104.1 191.6 105.8 191.45 107.45 191.45 107.5 191.45 107.55
L 191.5 107.55 191.5 107.65
Q 191.5 107.8 191.65 108 191.8 108.15 192.15 108.25 192.45 108.4 192.75 108.45 193.1 108.5 193.4 108.5 193.8 108.5 194.1 108.5 194.35 108.45 194.55 108.35 194.7 108.3 194.85 108.25 195 108.15 195.15 108.05 195.3 107.9 195.4 107.8 195.5 107.7 195.65 107.55 195.7 107.45 195.8 107.35 195.9 107.25 196 107.15 196.4 106.45 197.35 106.1 198.25 105.8 199.25 105.8 200.95 105.8 202.15 107.05 202.75 107.7 203.05 108.5 203.35 109.35 203.35 110.35 203.35 110.95 203.3 111.45 203.25 111.95 203.1 112.45 203 112.95 202.75 113.35 202.55 113.75 202.2 114.1 202 114.5 201.65 114.8 201.35 115.05 201 115.25 200.55 115.5 200.1 115.6 199.6 115.7 199.05 115.7 198.7 115.7 198.35 115.65 198.05 115.6 197.7 115.45 197.4 115.35 197.05 115.15 196.75 115 196.5 114.8 196.2 114.55 196 114.35 195.85 114.1 195.65 113.85 195.5 113.6 195.35 113.3 195.2 113.05 195.1 112.75 194.95 112.6 194.9 112.5 194.85 112.35 194.85 112.25
L 194.8 112.25 194.8 112.2
Q 194.7 111.9 194.6 111.7 194.45 111.5 194.25 111.35 194 111.25 193.75 111.15 193.45 111.1 193.1 111.1 192.65 111.1 192.25 111.2 191.9 111.35 191.6 111.55 191.3 111.8 191.15 112.1 191 112.4 191 112.8 191 112.85 191 113 191 113.1 191.1 113.25 191.1 113.4 191.1 113.55 191.15 113.7 191.25 113.9 191.35 114.15 191.45 114.4 191.55 114.65 191.65 114.9 191.8 115.25 192 115.55 192.15 115.8 192.4 116.1 192.6 116.4 192.85 116.7 193.05 116.95 193.25 117.25 194.35 118.45 195.85 119.05 197.3 119.7 199.05 119.7 199.85 119.7 200.6 119.55 201.35 119.4 202.1 119.1 203.55 118.5 204.85 117.3 205.45 116.75 206 116.05 206.5 115.4 206.85 114.55 207.25 113.7 207.4 112.8 207.6 111.85 207.65 110.8 207.65 109.7 207.45 108.75 207.3 107.8 206.95 106.95 206.6 106.2 206.1 105.5 205.6 104.85 205.05 104.3 204 103.2 202.75 102.7 202.05 102.45 201.4 102.35 200.8 102.2 200.2 102.2 199.45 102.2 198.8 102.3 198.2 102.35 197.65 102.5 197.1 102.65 196.7 102.85 196.25 103.05 196 103.25 196.1 101.9 196.3 100.65 196.4 100.05 196.5 99.4 196.65 98.75 196.8 98
M 207.95 135.15
L 207.95 134.75
Q 207.95 134.45 207.9 134.1 207.85 133.85 207.7 133.55 207.55 133.3 207.3 133.15 207.1 133 206.85 133 205 133 203.15 133 201.35 133 199.6 133 197.75 133 195.95 133 194.2 133.05 192.45 133.05 191.9 133.1 191.6 133.25 191.25 133.4 191.1 133.75 190.9 134.05 190.85 134.4 190.75 134.75 190.75 135.15 190.75 135.6 190.85 135.95 190.9 136.3 191.1 136.6 191.25 136.9 191.6 137.05 191.95 137.2 192.45 137.2
L 202.75 137.2
Q 202.3 137.85 201.8 138.65 201.3 139.45 200.8 140.4 200.25 141.3 199.7 142.35 199.1 143.35 198.5 144.45 197.95 145.55 197.5 146.65 197 147.75 196.55 148.85 195.6 151.2 195.25 153.2 195.15 153.7 195.05 154.2 194.9 154.65 194.8 155.1 194.65 155.5 194.55 155.9 194.5 156.3 194.45 156.6 194.45 157.05 194.65 157.35 194.85 157.65 195.15 157.85 195.5 158.05 195.85 158.15 196.3 158.2 196.8 158.2 197.3 158.2 197.65 158.1 198.05 158 198.3 157.8 198.5 157.6 198.65 157.35 198.8 157.05 198.95 156.6 199.1 156.25 199.2 155.8 199.3 155.35 199.4 154.75 199.45 154.2 199.55 153.6 199.65 153 199.8 152.3 199.95 151.5 200.2 150.7 200.4 149.9 200.75 149.05 201 148.15 201.35 147.35 201.7 146.5 202.1 145.75 202.4 144.95 202.75 144.2 203.05 143.45 203.45 142.75 203.75 142.1 204 141.55 204.3 141 204.55 140.55 204.9 140 205.25 139.6 205.65 139.15 205.95 138.75 206.25 138.45 206.5 138.1 206.75 137.8 207 137.45 207.15 137.25 207.3 137 207.5 136.7 207.65 136.4 207.95 135.9 207.95 135.15
M 62.2 10.8
Q 61.55 11.05 61 11.4 60.45 11.75 60 12.2 59.5 12.6 59.05 13.1 58.6 13.55 58.25 14.15 57.9 14.75 57.75 15.4 57.5 16.05 57.5 16.75 57.5 17.3 57.65 17.65 57.8 18 58.1 18.15 58.35 18.35 58.75 18.5 59.2 18.55 59.7 18.55 60 18.55 60.25 18.5 60.45 18.4 60.6 18.2 60.75 18.05 60.9 17.85 61.05 17.65 61.25 17.4 61.35 17.2 61.45 16.9 61.55 16.65 61.7 16.3 61.8 16.05 61.9 15.75 62 15.5 62.15 15.25 62.4 15 62.7 14.8 62.95 14.6 63.3 14.4 63.85 14.1 64.95 14.1 66 14.1 66.75 14.4 67.05 14.6 67.3 14.8 67.55 15 67.75 15.25 67.95 15.5 68.1 15.8 68.25 16.05 68.4 16.35 68.5 16.65 68.55 16.95 68.6 17.3 68.6 17.55 68.55 18.1 68.4 18.55 68.3 18.95 68.05 19.3 67.8 19.65 67.5 19.95 67.15 20.2 66.75 20.35 66.45 20.6 66.05 20.7 65.65 20.85 65.2 20.9 64.75 21 64.25 21.05 63.85 21.05 63.35 21.05 63.25 22.05 63.25 22.95 63.2 23.45 63.2 23.9 63.2 24.35 63.2 24.8 63.25 24.85 63.45 24.9 63.65 24.95 64 24.95 64.25 25 64.55 25 64.85 25.05 65.15 25.05 65.55 25.15 65.95 25.2 66.3 25.25 66.7 25.3 67 25.4 67.3 25.5 67.6 25.65 67.85 25.9 68.2 26.1 68.5 26.35 68.75 26.65 68.9 27 69.1 27.35 69.15 27.85 69.25 28.25 69.25 28.85 69.2 29.65 68.9 30.3 68.6 31 68 31.5 67.4 32.1 66.65 32.35 65.9 32.65 64.95 32.65 64.3 32.65 63.85 32.55 63.35 32.45 63.05 32.3 62.65 32.15 62.4 31.9 62.1 31.7 61.9 31.35 61.5 30.85 61.15 30 60.95 29.65 60.75 29.2 60.6 28.8 60.45 28.3 60.3 28.15 60.1 28.05 59.9 27.9 59.7 27.85 59.45 27.75 59.25 27.75 59 27.7 58.85 27.7 58.25 27.7 57.9 27.85 57.5 28 57.3 28.25 57.1 28.55 57 28.9 56.85 29.25 56.85 29.7
L 56.85 29.95
Q 57 30.75 57.2 31.4 57.45 32.1 57.85 32.65 58.2 33.3 58.7 33.8 59.15 34.3 59.7 34.75 60.2 35.2 60.8 35.55 61.4 35.85 62.1 36.05 62.75 36.3 63.5 36.4 64.25 36.5 65 36.5 65.9 36.5 66.75 36.35 67.6 36.2 68.45 35.9 69.2 35.6 69.85 35.15 70.5 34.75 70.95 34.25 71.55 33.7 72 33.1 72.4 32.5 72.75 31.75 73.4 30.4 73.4 28.7 73.4 28.25 73.3 27.75 73.2 27.3 73.05 26.85 72.85 26.45 72.65 26.05 72.45 25.6 72.2 25.25 71.8 24.5 71.15 23.9 70.8 23.6 70.45 23.35 70.1 23.05 69.7 22.85 69.95 22.75 70.15 22.55 70.4 22.35 70.6 22.15 70.8 21.95 71 21.7 71.25 21.45 71.55 21.1 72.05 20.35 72.3 19.45 72.55 18.55 72.55 17.35 72.55 16.7 72.4 16.05 72.25 15.35 72.05 14.7 71.8 14.1 71.4 13.5 71.05 12.95 70.55 12.45 69.4 11.5 68.05 10.9 67.35 10.65 66.55 10.5 65.75 10.35 64.9 10.35 64.2 10.35 63.5 10.45 62.8 10.6 62.2 10.8
M 51.25 11.05
Q 51.35 10.8 51.4 10.6 51.45 10.35 51.45 10.1 51.45 9.85 51.3 9.55 51.15 9.25 50.85 9 50.55 8.7 50.2 8.55 49.85 8.4 49.55 8.4 49.3 8.4 49.1 8.45 48.9 8.5 48.8 8.6 48.6 8.7 48.45 8.9 48.3 9.1 48.2 9.3 47.1 11 46.05 12.75 45.05 14.45 44.1 16.2 43.1 17.95 42.1 19.65 41.05 21.4 40 23.15 39.95 23.2 39.9 23.3 39.85 23.35 39.85 23.45 39.8 23.55 39.8 23.6 39.8 23.7 39.8 23.75
L 39.8 23.9
Q 39.75 23.95 39.75 24 39.75 24.1 39.75 24.2 39.75 24.45 39.85 24.7 39.95 24.9 40.1 25.05 41.15 26.85 42.15 28.55 43.15 30.3 44.1 31.95 45.05 33.7 46.05 35.4 47 37.1 48.05 38.8 48.25 39.2 48.6 39.45 48.95 39.65 49.4 39.65 49.8 39.65 50.15 39.5 50.45 39.4 50.8 39.1 51.05 38.8 51.2 38.5 51.4 38.2 51.4 37.95 51.4 37.7 51.3 37.5 51.25 37.3 51.15 37.1 50.65 36.35 50.2 35.6 49.7 34.8 49.25 33.95 48.8 33.1 48.3 32.25 47.85 31.4 47.3 30.55 46.85 29.7 46.4 28.85 45.9 28 45.45 27.15 44.35 25.45 43.65 24 44.6 22.35 45.55 20.75 46.5 19.15 47.45 17.5 48.4 15.9 49.35 14.3 50.3 12.65 51.25 11.05
M 29.5 11
Q 28.8 10.7 28 10.55 27.25 10.35 26.4 10.35
L 26.35 10.35
Q 25.5 10.35 24.75 10.5 24 10.7 23.35 11 22.6 11.35 22 11.8 21.35 12.2 20.85 12.75 19.9 13.8 19.35 15.05 19.1 15.7 18.95 16.35 18.8 16.95 18.8 17.6 18.8 17.95 18.95 18.25 19.1 18.55 19.35 18.75 19.65 18.95 19.95 19.1 20.2 19.2 20.55 19.2 21 19.2 21.4 19 21.85 18.85 22.2 18.55 22.5 18.2 22.7 17.8 22.85 17.4 22.85 16.9 22.85 16.75 22.95 16.55 23 16.3 23.2 16.05 23.3 15.8 23.45 15.55 23.65 15.35 23.85 15.15 24.15 14.95 24.45 14.8 24.75 14.6 25.1 14.45 25.45 14.35 25.75 14.3 26.05 14.2 26.4 14.2 26.9 14.2 27.3 14.3 27.75 14.4 28.1 14.55 28.45 14.7 28.75 14.95 29.05 15.15 29.3 15.4 29.5 15.65 29.65 16 29.85 16.3 30 16.6 30.15 16.95 30.25 17.25 30.3 17.6 30.3 17.9 30.3 18.2 30.25 18.5 30.2 18.8 30.05 19.15 29.9 19.45 29.7 19.75 29.55 20.05 29.4 20.35 29.2 20.7 29.05 20.95 28.85 21.25 28.55 21.45 28.3 21.7 28.05 21.9 27.8 22.1 27.65 22.2 27.2 22.55 26.75 22.9 26.25 23.25 25.8 23.6 25.35 23.95 24.9 24.3 24.45 24.65 24 24.95 23.35 25.5 22.85 25.95 22.3 26.4 21.8 26.8 21.35 27.25 21 27.7 20.65 28.15 20.4 28.6 20 29 19.75 29.5 19.55 29.95 19.35 30.4 19.2 30.95 19.1 31.55 18.95 32.1 18.9 32.75 18.9 32.8 18.9 32.9 18.85 33 18.85 33.1 18.8 33.2 18.8 33.35 18.75 33.45 18.8 33.5
L 18.8 33.65
Q 18.75 33.75 18.75 33.9 18.75 34 18.75 34.1 18.75 34.65 18.9 35 19.05 35.35 19.45 35.55 19.75 35.8 20.15 35.9 20.55 36.05 21 36.05
L 32.6 36.05
Q 34.7 36.05 34.7 34.15 34.7 33.65 34.55 33.3 34.4 32.95 34.15 32.75 33.85 32.6 33.4 32.5 32.95 32.4 32.4 32.4
L 23.4 32.4
Q 23.4 31.9 23.55 31.35 23.7 30.85 24.05 30.35 24.35 29.9 24.8 29.45 25.2 29 25.7 28.6 26.15 28.25 26.6 27.9 27.1 27.5 27.65 27.2 28.15 26.85 28.6 26.55 29.05 26.25 29.35 26 29.85 25.65 30.35 25.3 30.85 24.9 31.3 24.5 31.7 24.05 32.1 23.6 32.45 23.15 32.75 22.65 33.1 22.2 33.4 21.65 33.65 21.15 33.8 20.55 33.95 19.95 34.05 19.25 34.15 18.6 34.15 17.85 34.15 17.15 34 16.5 33.85 15.8 33.6 15.15 33.35 14.45 32.95 13.85 32.55 13.25 32.1 12.7 31.5 12.2 30.85 11.75 30.2 11.35 29.5 11
M 65.2 97
Q 64.85 97.6 64.7 98.25 64.45 98.9 64.45 99.6 64.45 100.15 64.6 100.5 64.75 100.85 65.05 101 65.3 101.2 65.7 101.35 66.15 101.4 66.65 101.4 66.95 101.4 67.2 101.35 67.4 101.25 67.55 101.05 67.7 100.9 67.85 100.7 68 100.5 68.2 100.25 68.3 100.05 68.4 99.75 68.5 99.5 68.65 99.15 68.75 98.9 68.85 98.6 68.95 98.35 69.1 98.1 69.35 97.85 69.65 97.65 69.9 97.45 70.25 97.25 70.8 96.95 71.9 96.95 72.95 96.95 73.7 97.25 74 97.45 74.25 97.65 74.5 97.85 74.7 98.1 74.9 98.35 75.05 98.65 75.2 98.9 75.35 99.2 75.45 99.5 75.5 99.8 75.55 100.15 75.55 100.4 75.5 100.95 75.35 101.4 75.25 101.8 75 102.15 74.75 102.5 74.45 102.8 74.1 103.05 73.7 103.2 73.4 103.45 73 103.55 72.6 103.7 72.15 103.75 71.7 103.85 71.2 103.9 70.8 103.9 70.3 103.9 70.2 104.9 70.2 105.8 70.15 106.3 70.15 106.75 70.15 107.2 70.15 107.65 70.2 107.7 70.4 107.75 70.6 107.8 70.95 107.8 71.2 107.85 71.5 107.85 71.8 107.9 72.1 107.9 72.5 108 72.9 108.05 73.25 108.1 73.65 108.15 73.95 108.25 74.25 108.35 74.55 108.5 74.8 108.75 75.15 108.95 75.45 109.2 75.7 109.5 75.85 109.85 76.05 110.2 76.1 110.7 76.2 111.1 76.2 111.7 76.15 112.5 75.85 113.15 75.55 113.85 74.95 114.35 74.35 114.95 73.6 115.2 72.85 115.5 71.9 115.5 71.25 115.5 70.8 115.4 70.3 115.3 70 115.15 69.6 115 69.35 114.75 69.05 114.55 68.85 114.2 68.45 113.7 68.1 112.85 67.9 112.5 67.7 112.05 67.55 111.65 67.4 111.15 67.25 111 67.05 110.9 66.85 110.75 66.65 110.7 66.4 110.6 66.2 110.6 65.95 110.55 65.8 110.55 65.2 110.55 64.85 110.7 64.45 110.85 64.25 111.1 64.05 111.4 63.95 111.75 63.8 112.1 63.8 112.55
L 63.8 112.8
Q 63.95 113.6 64.15 114.25 64.4 114.95 64.8 115.5 65.15 116.15 65.65 116.65 66.1 117.15 66.65 117.6 67.15 118.05 67.75 118.4 68.35 118.7 69.05 118.9 69.7 119.15 70.45 119.25 71.2 119.35 71.95 119.35 72.85 119.35 73.7 119.2 74.55 119.05 75.4 118.75 76.15 118.45 76.8 118 77.45 117.6 77.9 117.1 78.5 116.55 78.95 115.95 79.35 115.35 79.7 114.6 80.35 113.25 80.35 111.55 80.35 111.1 80.25 110.6 80.15 110.15 80 109.7 79.8 109.3 79.6 108.9 79.4 108.45 79.15 108.1 78.75 107.35 78.1 106.75 77.75 106.45 77.4 106.2 77.05 105.9 76.65 105.7 76.9 105.6 77.1 105.4 77.35 105.2 77.55 105 77.75 104.8 77.95 104.55 78.2 104.3 78.5 103.95 79 103.2 79.25 102.3 79.5 101.4 79.5 100.2 79.5 99.55 79.35 98.9 79.2 98.2 79 97.55 78.75 96.95 78.35 96.35 78 95.8 77.5 95.3 76.35 94.35 75 93.75 74.3 93.5 73.5 93.35 72.7 93.2 71.85 93.2 71.15 93.2 70.45 93.3 69.75 93.45 69.15 93.65 68.5 93.9 67.95 94.25 67.4 94.6 66.95 95.05 66.45 95.45 66 95.95 65.55 96.4 65.2 97
M 75.2 132.65
Q 74.75 132.75 74.4 133 74 133.25 73.75 133.65
L 73.5 134.05
Q 72.9 134.95 72.3 135.9 71.7 136.9 71.1 137.95 70.45 139.05 69.85 140.1 69.2 141.2 68.5 142.2 67.15 144.35 65.9 146.35 65.2 147.35 64.55 148.4 63.85 149.4 63.2 150.45
L 63.05 150.9 63 150.9 63 150.95 62.95 151
Q 62.85 151.2 62.75 151.4 62.7 151.55 62.65 151.8 62.6 152 62.6 152.25 62.65 152.45 62.7 152.65 62.75 152.9 62.8 153.1 62.9 153.3 63 153.5 63.05 153.7 63.2 153.85 63.3 154 63.5 154.1 63.7 154.2 63.85 154.25 64.05 154.3 64.3 154.4 64.45 154.45 64.65 154.45 64.85 154.45 65.05 154.4
L 73.85 154.4 73.85 156.05
Q 73.85 156.65 74 157.05 74.15 157.45 74.45 157.6 74.95 158.05 76 158.05 76.7 158.05 77.35 157.6 78 157.25 78 156.05
L 78 154.4 79.15 154.4
Q 79.75 154.4 80.1 154.25 80.45 154.15 80.65 153.8 80.8 153.5 80.9 153.15 80.95 152.8 80.95 152.3 80.95 151.95 80.9 151.6 80.8 151.25 80.65 150.9 80.45 150.6 80.1 150.45 79.75 150.25 79.15 150.25
L 78 150.25 77.9 134.8
Q 77.9 134.55 77.85 134.35 77.8 134.1 77.7 133.85 77.55 133.6 77.35 133.4 77.15 133.15 76.85 132.95 76.4 132.7 76 132.6 75.6 132.55 75.2 132.65
M 69.3 147.95
Q 69.75 147.3 70.15 146.6 70.5 145.95 70.9 145.3 71.35 144.65 71.8 144 72.2 143.4 72.55 142.8 73.3 141.65 73.75 140.8
L 73.75 150.35 67.7 150.35
Q 68.1 149.85 68.5 149.2 68.9 148.6 69.3 147.95
M 49.45 110.8
Q 49.25 110.85 49.15 110.95 48.95 111.05 48.8 111.25 48.65 111.45 48.55 111.65 47.45 113.35 46.4 115.1 45.4 116.8 44.45 118.55 43.45 120.3 42.45 122 41.4 123.75 40.35 125.5 40.3 125.55 40.25 125.65 40.2 125.7 40.2 125.8 40.15 125.9 40.15 125.95 40.15 126.05 40.15 126.1
L 40.15 126.25
Q 40.1 126.3 40.1 126.35 40.1 126.45 40.1 126.55 40.1 126.8 40.2 127.05 40.3 127.25 40.45 127.4 41.5 129.2 42.5 130.9 43.5 132.65 44.45 134.3 45.4 136.05 46.4 137.75 47.35 139.45 48.4 141.15 48.6 141.55 48.95 141.8 49.3 142 49.75 142 50.15 142 50.5 141.85 50.8 141.75 51.15 141.45 51.4 141.15 51.55 140.85 51.75 140.55 51.75 140.3 51.75 140.05 51.65 139.85 51.6 139.65 51.5 139.45 51 138.7 50.55 137.95 50.05 137.15 49.6 136.3 49.15 135.45 48.65 134.6 48.2 133.75 47.65 132.9 47.2 132.05 46.75 131.2 46.25 130.35 45.8 129.5 44.7 127.8 44 126.35 44.95 124.7 45.9 123.1 46.85 121.5 47.8 119.85 48.75 118.25 49.7 116.65 50.65 115 51.6 113.4 51.7 113.15 51.75 112.95 51.8 112.7 51.8 112.45 51.8 112.2 51.65 111.9 51.5 111.6 51.2 111.35 50.9 111.05 50.55 110.9 50.2 110.75 49.9 110.75 49.65 110.75 49.45 110.8
M 14.35 95.6
Q 13.4 96.65 12.85 97.9 12.6 98.55 12.45 99.2 12.3 99.8 12.3 100.45 12.3 100.8 12.45 101.1 12.6 101.4 12.85 101.6 13.15 101.8 13.45 101.95 13.7 102.05 14.05 102.05 14.5 102.05 14.9 101.85 15.35 101.7 15.7 101.4 16 101.05 16.2 100.65 16.35 100.25 16.35 99.75 16.35 99.6 16.45 99.4 16.5 99.15 16.7 98.9 16.8 98.65 16.95 98.4 17.15 98.2 17.35 98 17.65 97.8 17.95 97.65 18.25 97.45 18.6 97.3 18.95 97.2 19.25 97.15 19.55 97.05 19.9 97.05 20.4 97.05 20.8 97.15 21.25 97.25 21.6 97.4 21.95 97.55 22.25 97.8 22.55 98 22.8 98.25 23 98.5 23.15 98.85 23.35 99.15 23.5 99.45 23.65 99.8 23.75 100.1 23.8 100.45 23.8 100.75 23.8 101.05 23.75 101.35 23.7 101.65 23.55 102 23.4 102.3 23.2 102.6 23.05 102.9 22.9 103.2 22.7 103.55 22.55 103.8 22.35 104.1 22.05 104.3 21.8 104.55 21.55 104.75 21.3 104.95 21.15 105.05 20.7 105.4 20.25 105.75 19.75 106.1 19.3 106.45 18.85 106.8 18.4 107.15 17.95 107.5 17.5 107.8 16.85 108.35 16.35 108.8 15.8 109.25 15.3 109.65 14.85 110.1 14.5 110.55 14.15 111 13.9 111.45 13.5 111.85 13.25 112.35 13.05 112.8 12.85 113.25 12.7 113.8 12.6 114.4 12.45 114.95 12.4 115.6 12.4 115.65 12.4 115.75 12.35 115.85 12.35 115.95 12.3 116.05 12.3 116.2 12.25 116.3 12.3 116.35
L 12.3 116.5
Q 12.25 116.6 12.25 116.75 12.25 116.85 12.25 116.95 12.25 117.5 12.4 117.85 12.55 118.2 12.95 118.4 13.25 118.65 13.65 118.75 14.05 118.9 14.5 118.9
L 26.1 118.9
Q 28.2 118.9 28.2 117 28.2 116.5 28.05 116.15 27.9 115.8 27.65 115.6 27.35 115.45 26.9 115.35 26.45 115.25 25.9 115.25
L 16.9 115.25
Q 16.9 114.75 17.05 114.2 17.2 113.7 17.55 113.2 17.85 112.75 18.3 112.3 18.7 111.85 19.2 111.45 19.65 111.1 20.1 110.75 20.6 110.35 21.15 110.05 21.65 109.7 22.1 109.4 22.55 109.1 22.85 108.85 23.35 108.5 23.85 108.15 24.35 107.75 24.8 107.35 25.2 106.9 25.6 106.45 25.95 106 26.25 105.5 26.6 105.05 26.9 104.5 27.15 104 27.3 103.4 27.45 102.8 27.55 102.1 27.65 101.45 27.65 100.7 27.65 100 27.5 99.35 27.35 98.65 27.1 98 26.85 97.3 26.45 96.7 26.05 96.1 25.6 95.55 25 95.05 24.35 94.6 23.7 94.2 23 93.85 22.3 93.55 21.5 93.4 20.75 93.2 19.9 93.2
L 19.85 93.2
Q 19 93.2 18.25 93.35 17.5 93.55 16.85 93.85 16.1 94.2 15.5 94.65 14.85 95.05 14.35 95.6
M 13.7 146.35
Q 13 147.35 12.35 148.4 11.65 149.4 11 150.45
L 10.85 150.9 10.8 150.9 10.8 150.95 10.75 151
Q 10.65 151.2 10.55 151.4 10.5 151.55 10.45 151.8 10.4 152 10.4 152.25 10.45 152.45 10.5 152.65 10.55 152.9 10.6 153.1 10.7 153.3 10.8 153.5 10.85 153.7 11 153.85 11.1 154 11.3 154.1 11.5 154.2 11.65 154.25 11.85 154.3 12.1 154.4 12.25 154.45 12.45 154.45 12.65 154.45 12.85 154.4
L 21.65 154.4 21.65 156.05
Q 21.65 156.65 21.8 157.05 21.95 157.45 22.25 157.6 22.75 158.05 23.8 158.05 24.5 158.05 25.15 157.6 25.8 157.25 25.8 156.05
L 25.8 154.4 26.95 154.4
Q 27.55 154.4 27.9 154.25 28.25 154.15 28.45 153.8 28.6 153.5 28.7 153.15 28.75 152.8 28.75 152.3 28.75 151.95 28.7 151.6 28.6 151.25 28.45 150.9 28.25 150.6 27.9 150.45 27.55 150.25 26.95 150.25
L 25.8 150.25 25.7 134.8
Q 25.7 134.55 25.65 134.35 25.6 134.1 25.5 133.85 25.35 133.6 25.15 133.4 24.95 133.15 24.65 132.95 24.2 132.7 23.8 132.6 23.4 132.55 23 132.65 22.55 132.75 22.2 133 21.8 133.25 21.55 133.65
L 21.3 134.05
Q 20.7 134.95 20.1 135.9 19.5 136.9 18.9 137.95 18.25 139.05 17.65 140.1 17 141.2 16.3 142.2 14.95 144.35 13.7 146.35
M 17.1 147.95
Q 17.55 147.3 17.95 146.6 18.3 145.95 18.7 145.3 19.15 144.65 19.6 144 20 143.4 20.35 142.8 21.1 141.65 21.55 140.8
L 21.55 150.35 15.5 150.35
Q 15.9 149.85 16.3 149.2 16.7 148.6 17.1 147.95 Z"/>
</g>

<path id="Layer0_0_1_STROKES" stroke="#1E1E1E" stroke-width="3" stroke-linejoin="miter" stroke-linecap="butt" stroke-miterlimit="3" fill="none" d="
M 363.7 126.5
L 394 126.5
M 415.9 126.5
L 446.2 126.5
M 184.25 126.5
L 214.55 126.5
M 236.45 126.5
L 266.75 126.5
M 4.85 126.5
L 35.15 126.5
M 57.05 126.5
L 87.35 126.5"/>

<path id="Layer0_0_2_STROKES" stroke="#FF6666" stroke-width="3" stroke-linejoin="round" stroke-linecap="round" fill="none" d="
M 369.55 74.7
L 378.4 74.7 378.4 56.6 431.2 56.6 431.2 74.7 440.1 74.7
M 422.35 74.7
L 431.2 74.7
M 378.4 74.7
L 387.3 74.7
M 190.1 74.7
L 198.95 74.7 198.95 56.6 251.75 56.6 251.75 74.7 260.65 74.7
M 198.95 74.7
L 207.85 74.7
M 242.9 74.7
L 251.75 74.7
M 10.7 74.45
L 19.55 74.45 19.55 56.35 72.35 56.35 72.35 74.45 81.25 74.45
M 19.55 74.45
L 28.45 74.45
M 63.5 74.45
L 72.35 74.45"/>
</defs>

<g transform="matrix( 1, 0, 0, 1, 0,0) ">
<use xlink:href="#Layer0_0_FILL"/>

<use xlink:href="#Layer0_0_1_STROKES"/>

<use xlink:href="#Layer0_0_2_STROKES"/>
</g>
</svg>
