
<svg xmlns="http://www.w3.org/2000/svg" version="1.1" xmlns:xlink="http://www.w3.org/1999/xlink" preserveAspectRatio="none" x="0px" y="0px" width="380px" height="90px" viewBox="0 0 380 90">
<defs>
<linearGradient id="Gradient_1" gradientUnits="userSpaceOnUse" x1="109.14999999999999" y1="681.45" x2="-190.05" y2="-358.25" spreadMethod="pad">
<stop  offset="0.39215686274509803%" stop-color="#77B6DB"/>

<stop  offset="25.88235294117647%" stop-color="#D1E5F3"/>

<stop  offset="51.76470588235294%" stop-color="#BBE5FF"/>

<stop  offset="76.07843137254902%" stop-color="#FFFFFF"/>

<stop  offset="100%" stop-color="#7ACEFC"/>
</linearGradient>

<filter id="Filter_1" x="-20%" y="-20%" width="140%" height="140%" color-interpolation-filters="sRGB">
<feColorMatrix in="SourceGraphic" type="matrix" values="1 0 0 0 0 0 1 0 0 0 0 0 1 0 0 0 0 0 0.4 0" result="result1"/>
</filter>

<g id="Duplicate_Items_Folder_gff45464_0_Layer0_0_FILL">
<path fill="url(#Gradient_1)" stroke="none" d="
M -444.5 -72.3
L -444.5 -14.2 -185.45 -14.2 -185.45 -72.3 -444.5 -72.3 Z"/>
</g>

<g id="Mask_Mask_Duplicate_Items_Folder_gff45464_0_Layer0_0_FILL">
<path fill="#FFFFFF" stroke="none" d="
M -444.5 -72.3
L -444.5 -14.2 -185.45 -14.2 -185.45 -72.3 -444.5 -72.3 Z"/>
</g>

<g id="fdbd446fdsgfgfd_copy_0_Layer2_0_FILL">
<path fill="#332D2B" stroke="none" d="
M 80.85 387.8
Q 80.3 388.2 80 388.85 79.8 389.3 79.6 390.2
L 79.5 391.65
Q 79.5 393.6 80.2 394.75 80.9 395.9 82.25 395.9 83 395.9 83.5 395.6 83.9 395.35 84.35 394.75 84.7 394.1 84.85 393.4 85 392.65 85 391.65
L 84.95 390.7
Q 84.95 390.2 84.8 389.75 84.75 389.25 84.5 388.85 84.25 388.35 84 388.1 83.75 387.8 83.25 387.55 82.9 387.4 82.25 387.4 81.3 387.4 80.85 387.8
M 80.85 393.05
L 80.75 391.65 80.85 390.2 81.15 389.25
Q 81.35 388.9 81.65 388.75 81.95 388.6 82.25 388.6 82.6 388.6 82.9 388.75 83.2 388.9 83.35 389.25 83.6 389.65 83.65 390.2 83.8 390.8 83.8 391.65 83.8 392.45 83.65 393.05 83.6 393.6 83.35 394 83.25 394.3 82.9 394.55 82.6 394.7 82.25 394.7 81.95 394.7 81.65 394.55 81.35 394.3 81.15 394
L 80.85 393.05 Z"/>
</g>

<g id="fdbd446fdsgfgfd_copy_0_Layer2_1_FILL">
<path fill="#332D2B" stroke="none" d="
M 105 387.5
L 104.75 387.45 104.15 387.45 104.1 387.5 104 387.55 102.3 389.1 102.25 389.2 102.3 389.3 102.8 389.9 102.9 389.95 103.05 389.85 103.85 389.15 103.85 395.7
Q 103.85 395.8 104 395.8
L 104.85 395.8
Q 105 395.8 105 395.7
L 105 387.5 Z"/>
</g>

<g id="fdbd446fdsgfgfd_copy_0_Layer2_2_FILL">
<path fill="#332D2B" stroke="none" d="
M 131.05 387.55
L 130.1 387.95 129.95 388.05 129.95 388.15 130.1 389 130.2 389.1 130.4 389.05
Q 130.55 388.95 131.3 388.65 131.75 388.5 132.2 388.5 132.55 388.5 133 388.85 133.3 389.25 133.3 389.75 133.3 390.25 132.85 390.9 132.45 391.55 131.5 392.75
L 129.85 394.7 129.75 394.9 129.7 395.05 129.7 395.7
Q 129.7 395.85 129.9 395.85
L 134.55 395.85
Q 134.75 395.85 134.75 395.65
L 134.75 394.9
Q 134.75 394.7 134.55 394.7
L 131.35 394.7 133.8 391.7 134.35 390.7
Q 134.55 390.25 134.55 389.7 134.55 389.1 134.35 388.7 134.2 388.2 133.85 387.95 133.55 387.65 133.1 387.5
L 132.1 387.35
Q 131.5 387.35 131.05 387.55 Z"/>
</g>

<g id="fdbd446fdsgfgfd_copy_0_Layer2_3_FILL">
<path fill="#332D2B" stroke="none" d="
M 159.4 387.45
Q 158.75 387.6 158.45 387.75 158.3 387.75 158.3 387.85 158.2 387.85 158.3 387.95
L 158.4 388.75 158.45 388.9 159.5 388.6 160.25 388.5 160.75 388.55 161.25 388.75 161.6 389.1
Q 161.75 389.35 161.75 389.6 161.75 390 161.55 390.2
L 161 390.6
Q 160.75 390.75 160.3 390.85
L 159.75 390.95 159.1 390.95 159.05 391.05 159.05 391.9 159.1 392 159.2 392.05 159.75 392.05
Q 160.4 392.05 160.65 392.15
L 161.3 392.4 161.65 392.85 161.75 393.35
Q 161.75 394.1 161.25 394.45
L 160.85 394.65 160.4 394.75 159.9 394.75 158.05 394.4 158 394.55 157.9 395.35 157.95 395.5
Q 157.95 395.6 158.1 395.6
L 158.95 395.85
Q 159.3 395.9 159.9 395.9 160.55 395.9 161.15 395.75 161.8 395.6 162.15 395.25 162.6 394.9 162.8 394.45 163.05 393.85 163.05 393.35 163.05 392.8 162.65 392.25 162.2 391.7 161.55 391.45
L 162.1 391.1
Q 162.2 391.05 162.6 390.65
L 162.85 390.1
Q 162.95 389.9 162.95 389.5 162.95 388.9 162.75 388.5 162.55 388.15 162.15 387.85 161.65 387.55 161.3 387.5 160.85 387.35 160.3 387.35
L 159.4 387.45 Z"/>
</g>

<g id="fdbd446fdsgfgfd_copy_0_Layer2_4_FILL">
<path fill="#332D2B" stroke="none" d="
M 190.65 387.65
L 190.6 387.5 190.5 387.45 189.5 387.45 189.4 387.5 189.3 387.6 185.9 392.75 185.8 392.85 185.75 393 185.75 393.8 185.8 393.95 189.45 393.95 189.45 395.6 189.5 395.8 190.6 395.8 190.65 395.6 190.65 393.95 191.65 393.95 191.8 393.9 191.8 392.85 191.65 392.8 190.65 392.8 190.65 387.65
M 187.1 392.8
L 189.45 389.25 189.45 392.8 187.1 392.8 Z"/>
</g>

<g id="fdbd446fdsgfgfd_copy_0_Layer2_5_FILL">
<path fill="#332D2B" stroke="none" d="
M 219.1 388.6
L 219.2 388.55 219.25 388.45 219.25 387.6 219.2 387.5 219.1 387.45 215.1 387.45
Q 214.9 387.45 214.9 387.5
L 214.85 387.65 214.8 391.7
Q 214.8 392.05 215.2 391.9
L 215.95 391.7 216.7 391.6
Q 217.55 391.6 218 392.05 218.35 392.4 218.35 393.15 218.35 393.9 217.9 394.35 217.4 394.75 216.7 394.75
L 215.8 394.65 215.35 394.55 214.95 394.4
Q 214.75 394.35 214.75 394.5
L 214.75 395.5 214.8 395.6 215.25 395.75 216.25 395.9 216.6 395.9
Q 217.25 395.9 217.8 395.7 218.45 395.5 218.75 395.2 219.6 394.4 219.6 393.05 219.6 392.4 219.4 392 219.25 391.5 218.85 391.2
L 218 390.7
Q 217.55 390.55 217 390.55
L 216 390.65 216.05 388.6 219.1 388.6 Z"/>
</g>

<path id="fdbd446fdsgfgfd_copy_0_Layer4_0_1_STROKES" stroke="#332D2B" stroke-width="0.5" stroke-linejoin="round" stroke-linecap="butt" fill="none" d="
M -412.3 -80.4
L -412.3 -57.95
M -425.15 -80.4
L -425.15 -57.95
M -420.85 -80.4
L -420.85 -57.95
M -416.55 -80.4
L -416.55 -57.95
M -356.45 -80.4
L -356.45 -57.95
M -352.15 -80.4
L -352.15 -57.95
M -347.85 -80.4
L -347.85 -57.95
M -339.25 -80.4
L -339.25 -57.95
M -334.95 -80.4
L -334.95 -57.95
M -330.7 -80.4
L -330.7 -57.95
M -326.4 -80.4
L -326.4 -57.95
M -360.7 -80.4
L -360.7 -57.95
M -399.4 -80.4
L -399.4 -57.95
M -395.1 -80.4
L -395.1 -57.95
M -390.8 -80.4
L -390.8 -57.95
M -382.2 -80.4
L -382.2 -57.95
M -377.9 -80.4
L -377.9 -57.95
M -373.6 -80.4
L -373.6 -57.95
M -369.35 -80.4
L -369.35 -57.95
M -403.65 -80.4
L -403.65 -57.95
M -274.9 -80.4
L -274.9 -57.95
M -270.55 -80.4
L -270.55 -57.95
M -266.25 -80.4
L -266.25 -57.95
M -261.95 -80.4
L -261.95 -57.95
M -253.35 -80.4
L -253.35 -57.95
M -249.05 -80.4
L -249.05 -57.95
M -244.8 -80.4
L -244.8 -57.95
M -283.45 -80.4
L -283.45 -57.95
M -309.2 -80.4
L -309.2 -57.95
M -304.9 -80.4
L -304.9 -57.95
M -296.3 -80.4
L -296.3 -57.95
M -292 -80.4
L -292 -57.95
M -287.75 -80.4
L -287.75 -57.95
M -317.75 -80.4
L -317.75 -57.95
M -313.5 -80.4
L -313.5 -57.95
M -197.55 -80.4
L -197.55 -57.95
M -201.85 -80.4
L -201.85 -57.95
M -227.6 -80.4
L -227.6 -57.95
M -223.3 -80.4
L -223.3 -57.95
M -219.05 -80.4
L -219.05 -57.95
M -210.4 -80.4
L -210.4 -57.95
M -206.1 -80.4
L -206.1 -57.95
M -240.5 -80.4
L -240.5 -57.95
M -231.95 -80.4
L -231.95 -57.95"/>

<path id="fdbd446fdsgfgfd_copy_0_Layer3_0_1_STROKES" stroke="#332D2B" stroke-width="1" stroke-linejoin="round" stroke-linecap="butt" fill="none" d="
M -429.4 -80.4
L -429.4 -51
M -343.6 -80.4
L -343.6 -51
M -386.55 -80.4
L -386.55 -51
M -257.7 -80.4
L -257.7 -51
M -300.65 -80.4
L -300.65 -51
M -214.75 -80.4
L -214.75 -51"/>

<path id="fdbd446fdsgfgfd_copy_0_Layer3_1_1_STROKES" stroke="#332D2B" stroke-width="1" stroke-linejoin="round" stroke-linecap="butt" fill="none" d="
M -408 -80.4
L -408 -54.45
M -365.05 -80.4
L -365.05 -54.45
M -279.1 -80.4
L -279.1 -54.45
M -322.1 -80.4
L -322.1 -54.45
M -236.15 -80.4
L -236.15 -54.45"/>

<path id="fdbd446fdsgfgfd_copy_0_Layer0_0_1_STROKES" stroke="#00A3E9" stroke-width="2" stroke-linejoin="miter" stroke-linecap="butt" stroke-miterlimit="10" fill="none" d="
M -444.5 -13.6
L -444.5 -71.8 -185.45 -71.8 -185.45 -13.6 -444.5 -13.6 Z"/>
</defs>

<g transform="matrix( 1, 0, 0, 1, 334.4,45) ">
<g transform="matrix( 1.4399871826171875, 0, 0, 1.4399871826171875, 309.15,61.5) ">
<g transform="matrix( 1, 0, 0, 1, 0,0.5) ">
<g transform="matrix( 1, 0, 0, 1, 0,0) ">
<use filter="url(#Filter_1)" xlink:href="#Duplicate_Items_Folder_gff45464_0_Layer0_0_FILL"/>
</g>
</g>

<mask id="Mask_Mask_1">
<g transform="matrix( 1, 0, 0, 1, 0,0.5) ">
<g transform="matrix( 1, 0, 0, 1, 0,0) ">
<use xlink:href="#Mask_Mask_Duplicate_Items_Folder_gff45464_0_Layer0_0_FILL"/>
</g>
</g>
</mask>

<g mask="url(#Mask_Mask_1)">
<g transform="matrix( 1, 0, 0, 1, 0,0) ">
<use xlink:href="#fdbd446fdsgfgfd_copy_0_Layer4_0_1_STROKES"/>
</g>
</g>

<g mask="url(#Mask_Mask_1)">
<g transform="matrix( 1, 0, 0, 1, 0,0) ">
<use xlink:href="#fdbd446fdsgfgfd_copy_0_Layer3_0_1_STROKES"/>
</g>

<g transform="matrix( 1, 0, 0, 1, 0,0) ">
<use xlink:href="#fdbd446fdsgfgfd_copy_0_Layer3_1_1_STROKES"/>
</g>
</g>

<g mask="url(#Mask_Mask_1)">
<g transform="matrix( 1.5150146484375, 0, 0, 1.5150146484375, -549.1,-635.1) ">
<use xlink:href="#fdbd446fdsgfgfd_copy_0_Layer2_0_FILL"/>
</g>

<g transform="matrix( 1.5150146484375, 0, 0, 1.5150146484375, -544.7,-635.1) ">
<use xlink:href="#fdbd446fdsgfgfd_copy_0_Layer2_1_FILL"/>
</g>

<g transform="matrix( 1.5150146484375, 0, 0, 1.5150146484375, -544.7,-635.1) ">
<use xlink:href="#fdbd446fdsgfgfd_copy_0_Layer2_2_FILL"/>
</g>

<g transform="matrix( 1.5150146484375, 0, 0, 1.5150146484375, -544.2,-635.1) ">
<use xlink:href="#fdbd446fdsgfgfd_copy_0_Layer2_3_FILL"/>
</g>

<g transform="matrix( 1.5150146484375, 0, 0, 1.5150146484375, -544.7,-635.1) ">
<use xlink:href="#fdbd446fdsgfgfd_copy_0_Layer2_4_FILL"/>
</g>

<g transform="matrix( 1.5150146484375, 0, 0, 1.5150146484375, -544.2,-635.1) ">
<use xlink:href="#fdbd446fdsgfgfd_copy_0_Layer2_5_FILL"/>
</g>
</g>

<g transform="matrix( 1, 0, 0, 1, 0,0) ">
<use xlink:href="#fdbd446fdsgfgfd_copy_0_Layer0_0_1_STROKES"/>
</g>
</g>
</g>
</svg>
