
<svg xmlns="http://www.w3.org/2000/svg" version="1.1" xmlns:xlink="http://www.w3.org/1999/xlink" preserveAspectRatio="none" x="0px" y="0px" width="1123px" height="183px" viewBox="0 0 1123 183">
<defs>
<g id="Layer0_0_FILL">
<path fill="#FFFFFF" stroke="none" d="
M 374.55 181.6
L 374.55 81.6 1.5 81.6 1.5 101.6 1.6 163.8
Q 2.65 181.6 21.5 181.6
L 35.55 181.6 219.55 181.6 374.55 181.6
M 741.55 181.6
L 747.55 181.6 747.55 81.6 561.55 81.6 374.55 81.6 374.55 181.6 381.55 181.6 421.55 181.6 448.55 181.6 480.6 181.6 524.55 181.6 561.55 181.6 572.55 181.6 574.55 181.6 601.55 181.6 630.6 181.6 639.6 181.6 724.55 181.6 741.55 181.6
M 981.55 181.6
L 1005.95 181.6 1101.65 181.6
Q 1120.45 181.6 1121.6 163.8
L 1121.65 101.6 1121.65 81.6 747.55 81.6 747.55 181.6 796.55 181.6 830.95 181.6 874.55 181.6 981.55 181.6 Z"/>

<path fill="#E2F3F2" stroke="none" d="
M 374.55 81.6
L 374.55 1.5 21.5 1.5
Q 8.85 1.5 4.2 9.5 1.5 14.15 1.5 21.5
L 1.5 38 1.5 41.55 1.5 81.6 374.55 81.6
M 136.6 23.75
Q 137.15 23.75 137.15 24.3
L 137.15 61.3
Q 137.15 61.8 136.6 61.8
L 133.15 61.8
Q 132.6 61.8 132.6 61.3
L 132.6 24.3
Q 132.6 23.75 133.15 23.75
L 136.6 23.75
M 128.95 24.4
Q 129.45 24.4 129.45 24.9
L 129.45 59.85
Q 129.45 60.45 128.95 60.45
L 125.65 60.45
Q 125.1 60.45 125.1 59.85
L 125.1 46.75 120.1 46.75
Q 118.95 49.25 117.15 50.4 115.3 51.55 112.9 51.55 111 51.55 109.45 50.75 107.9 50 106.75 48.45 105.6 46.9 105 44.5 104.35 42.1 104.35 38.9 104.35 35.7 105 33.35 105.6 31 106.75 29.45 107.9 27.9 109.45 27.1 111 26.3 112.9 26.3 115.4 26.3 117.35 27.7 119.3 29.05 120.4 31.85
L 125.1 31.85 125.1 24.9
Q 125.1 24.4 125.65 24.4
L 128.95 24.4
M 168.8 23.75
Q 169.4 23.75 169.4 24.3
L 169.4 33.35 174.75 33.35
Q 175 33.35 175.2 33.55 175.35 33.7 175.35 33.9
L 175.35 36.7
Q 175.35 36.9 175.2 37.05 175 37.2 174.75 37.2
L 169.4 37.2 169.4 44.95
Q 169.4 45.5 168.8 45.5
L 165.3 45.5
Q 165.1 45.5 164.9 45.3 164.75 45.15 164.75 44.9
L 164.75 24.3
Q 164.75 24.05 164.9 23.9 165.1 23.75 165.3 23.75
L 168.8 23.75
M 166.65 47.5
Q 168.15 47.5 168.75 48.1 169.35 48.75 169.35 50.3
L 169.35 61.1
Q 169.35 61.3 169.15 61.45 168.95 61.65 168.75 61.65
L 165.35 61.65
Q 165.1 61.65 164.9 61.45 164.7 61.3 164.7 61.1
L 164.7 52
Q 164.7 51.55 164.55 51.45 164.4 51.3 163.95 51.3
L 145.9 51.3
Q 145.7 51.3 145.5 51.2 145.35 51.05 145.35 50.85
L 145.35 48
Q 145.35 47.7 145.5 47.6 145.7 47.5 145.9 47.5
L 166.65 47.5
M 140.15 42.8
Q 140.2 42.5 140.65 42.3 145.55 40.15 148.95 37.15 152.3 34.15 153.4 30.5 153.6 29.85 153.6 29.6 153.6 29.35 152.85 29.35
L 142 29.35
Q 141.7 29.35 141.6 29.2 141.45 29 141.45 28.75
L 141.45 26.1
Q 141.45 25.55 142 25.55
L 155.55 25.55
Q 157.35 25.55 158.05 26.1 158.75 26.7 158.75 27.95 158.75 28.1 158.7 28.45 158.65 28.7 158.6 29.05 158.55 29.35 158.5 29.6 158.4 29.85 158.35 30 156.85 35.5 152.85 39.4 148.9 43.25 142.55 45.9 141.6 46.3 141.3 45.5
L 140.25 43.45
Q 140.1 43.1 140.15 42.8
M 204.45 23.75
Q 205 23.75 205 24.3
L 205 33.55 210.4 33.55
Q 210.6 33.55 210.8 33.65 210.95 33.8 210.95 34
L 210.95 36.8
Q 210.95 37 210.8 37.2 210.6 37.35 210.4 37.35
L 205 37.35 205 44.85
Q 205 45.4 204.45 45.4
L 200.9 45.4
Q 200.35 45.4 200.35 44.85
L 200.35 24.3
Q 200.35 23.75 200.9 23.75
L 204.45 23.75
M 184.35 24.55
Q 184.55 24.35 184.7 24.35
L 188.25 24.5
Q 188.75 24.5 188.75 25.15 188.75 28.6 188.15 31.35 188.8 32.9 189.8 34.25 190.85 35.6 192.05 36.75 193.2 37.85 194.45 38.7 195.65 39.55 196.75 40.05 197.4 40.3 196.95 41
L 195.55 43.2
Q 195.2 43.9 194.5 43.55 192.05 42.45 189.95 40.6 187.85 38.75 186.35 36.45 185 39 182.95 41.1 180.85 43.15 178 45.1 177.5 45.45 177.2 45.35 176.95 45.25 176.7 44.95
L 175.05 43.1
Q 174.65 42.65 174.75 42.35 174.85 42.1 175.2 41.85 177.45 40.3 179.15 38.7 180.8 37.1 181.9 35.15 183 33.15 183.55 30.7 184.15 28.25 184.15 25.05 184.15 24.75 184.35 24.55
M 184.35 47.4
L 201.95 47.4
Q 203.75 47.4 204.4 48.05 205 48.7 205 50.3
L 205 58.35
Q 205 59.85 204.35 60.5 203.7 61.1 202.15 61.1
L 184.55 61.1
Q 182.75 61.1 182.1 60.5 181.45 59.85 181.45 58.25
L 181.45 50.3
Q 181.45 48.75 182.15 48.1 182.8 47.4 184.35 47.4
M 246.55 33.9
L 246.55 36.7
Q 246.55 36.9 246.4 37.05 246.2 37.2 245.95 37.2
L 240.6 37.2 240.6 44.95
Q 240.6 45.5 240 45.5
L 236.5 45.5
Q 236.3 45.5 236.1 45.3 235.95 45.15 235.95 44.9
L 235.95 24.3
Q 235.95 24.05 236.1 23.9 236.3 23.75 236.5 23.75
L 240 23.75
Q 240.6 23.75 240.6 24.3
L 240.6 33.35 245.95 33.35
Q 246.2 33.35 246.4 33.55 246.55 33.7 246.55 33.9
M 212.65 26.1
Q 212.65 25.55 213.2 25.55
L 226.75 25.55
Q 228.55 25.55 229.25 26.1 229.95 26.7 229.95 27.95 229.95 28.1 229.9 28.45 229.85 28.7 229.8 29.05 229.75 29.35 229.7 29.6 229.6 29.85 229.55 30 228.05 35.5 224.05 39.4 220.1 43.25 213.75 45.9 212.8 46.3 212.5 45.5
L 211.45 43.45
Q 211.3 43.1 211.35 42.8 211.4 42.5 211.85 42.3 216.75 40.15 220.15 37.15 223.5 34.15 224.6 30.5 224.8 29.85 224.8 29.6 224.8 29.35 224.05 29.35
L 213.2 29.35
Q 212.9 29.35 212.8 29.2 212.65 29 212.65 28.75
L 212.65 26.1
M 216.55 48
Q 216.55 47.7 216.7 47.6 216.9 47.5 217.1 47.5
L 237.85 47.5
Q 239.35 47.5 239.95 48.1 240.55 48.75 240.55 50.3
L 240.55 61.1
Q 240.55 61.3 240.35 61.45 240.15 61.65 239.95 61.65
L 236.55 61.65
Q 236.3 61.65 236.1 61.45 235.9 61.3 235.9 61.1
L 235.9 52
Q 235.9 51.55 235.75 51.45 235.6 51.3 235.15 51.3
L 217.1 51.3
Q 216.9 51.3 216.7 51.2 216.55 51.05 216.55 50.85
L 216.55 48
M 273.25 24.25
Q 273.25 23.7 273.8 23.7
L 277.35 23.7
Q 277.55 23.7 277.7 23.9 277.9 24.05 277.9 24.25
L 277.9 47.3
Q 277.9 47.55 277.7 47.7 277.55 47.9 277.35 47.9
L 273.8 47.9
Q 273.55 47.9 273.4 47.7 273.25 47.55 273.25 47.3
L 273.25 44.5 268.5 44.5
Q 268.35 44.5 268.15 44.4 268 44.25 268 44.05
L 268 41.3
Q 268 41.1 268.15 41 268.35 40.85 268.5 40.85
L 273.25 40.85 273.25 38.15 268.5 38.15
Q 268.35 38.15 268.15 38 268 37.9 268 37.7
L 268 34.95
Q 268 34.75 268.15 34.6 268.35 34.5 268.5 34.5
L 273.25 34.5 273.25 24.25
M 263.3 24.1
Q 263.55 24.1 263.8 24.35 263.95 24.5 263.95 24.75
L 263.95 26.95
Q 263.95 27.2 263.8 27.4 263.6 27.65 263.3 27.65
L 253.1 27.65
Q 252.95 27.65 252.7 27.45 252.5 27.3 252.5 27
L 252.5 24.7
Q 252.5 24.45 252.7 24.3 252.95 24.1 253.1 24.1
L 263.3 24.1
M 258.25 34.05
Q 260.05 34.05 261.65 34.55 263.2 35 264.35 35.85 265.5 36.75 266.15 37.9 266.8 39.1 266.8 40.6 266.8 42.1 266.15 43.3 265.5 44.5 264.3 45.4 263.15 46.25 261.6 46.75 260.05 47.2 258.2 47.2 256.4 47.2 254.85 46.7 253.35 46.2 252.2 45.3 251.05 44.4 250.4 43.15 249.75 41.9 249.75 40.4 249.75 38.9 250.4 37.75 251.05 36.6 252.2 35.75 253.35 34.95 254.9 34.5 256.45 34.05 258.25 34.05
M 247.2 29.45
Q 247.45 29.25 247.65 29.25
L 268.5 29.25
Q 268.75 29.25 268.9 29.45 269.1 29.65 269.1 29.85
L 269.1 32.15
Q 269.1 32.4 268.9 32.6 268.75 32.75 268.5 32.75
L 247.6 32.75
Q 247.4 32.75 247.2 32.55 247 32.35 247 32.1
L 247 29.85
Q 247 29.7 247.2 29.45
M 265.9 48.35
Q 268.5 48.35 270.7 48.8 272.95 49.3 274.55 50.15 276.2 51.05 277.1 52.25 278 53.45 278 54.9 278 56.4 277.1 57.65 276.2 58.9 274.55 59.75 272.95 60.65 270.7 61.1 268.5 61.6 265.9 61.6 263.15 61.6 260.95 61.1 258.8 60.65 257.2 59.75 255.65 58.9 254.8 57.65 253.95 56.4 253.95 54.9 253.95 53.45 254.8 52.25 255.65 51.05 257.2 50.15 258.8 49.3 260.95 48.8 263.15 48.35 265.9 48.35
M 271.05 52.6
Q 270.05 52.15 268.75 51.95 267.4 51.75 265.9 51.75 264.3 51.75 263 51.95 261.7 52.15 260.75 52.6 259.75 53 259.25 53.6 258.7 54.25 258.7 55.05 258.7 55.85 259.25 56.4 259.75 56.95 260.75 57.35 261.75 57.75 263.05 57.95 264.35 58.1 265.9 58.1 267.4 58.1 268.75 57.95 270.05 57.75 271.05 57.35 272.05 56.95 272.65 56.4 273.25 55.85 273.25 55.05 273.25 54.25 272.65 53.6 272.05 53 271.05 52.6
M 261.3 38.4
Q 260.15 37.6 258.25 37.6 256.35 37.6 255.2 38.4 254.05 39.2 254.05 40.6 254.05 42 255.2 42.9 256.35 43.75 258.25 43.75 260.15 43.75 261.3 42.9 262.45 42 262.45 40.6 262.45 39.2 261.3 38.4
M 200.45 51.65
Q 200.45 51.3 200.35 51.2 200.25 51.1 199.95 51.1
L 186.6 51.1
Q 186.25 51.1 186.15 51.15 186.05 51.25 186.05 51.55
L 186.05 56.9
Q 186.05 57.3 186.15 57.35 186.25 57.45 186.6 57.45
L 199.95 57.45
Q 200.25 57.45 200.35 57.35 200.45 57.3 200.45 56.9
L 200.45 51.65
M 114.8 31.1
Q 114 30.3 112.95 30.3 111.9 30.3 111.1 31.1 110.3 31.9 109.85 33.15 109.35 34.4 109.1 35.95 108.85 37.45 108.85 38.9 108.85 40.4 109.1 41.95 109.35 43.5 109.85 44.7 110.3 45.95 111.1 46.75 111.9 47.55 112.95 47.55 114 47.55 114.8 46.75 115.6 45.95 116.05 44.7 116.55 43.5 116.8 41.95 117.05 40.4 117.05 38.9 117.05 37.45 116.8 35.95 116.55 34.4 116.05 33.15 115.6 31.9 114.8 31.1
M 125.1 42.95
L 125.1 35.55 121.25 35.55
Q 121.35 36.35 121.4 37.2 121.45 38.05 121.45 38.9 121.45 40.1 121.4 41.05 121.3 42.05 121.1 42.95
L 125.1 42.95
M 747.55 1.5
L 741.55 1.5 724.55 1.5 639.6 1.5 561.55 1.5 374.55 1.5 374.55 81.6 561.55 81.6 747.55 81.6 747.55 1.5
M 504.55 23.75
Q 505.05 23.75 505.05 24.3
L 505.05 45.35
Q 505.05 45.55 504.9 45.75 504.75 45.95 504.55 45.95
L 500.95 45.95
Q 500.75 45.95 500.6 45.75 500.45 45.55 500.45 45.35
L 500.45 24.3
Q 500.45 23.75 500.95 23.75
L 504.55 23.75
M 492.8 30.3
Q 491.8 33.1 489.85 35.8 490.6 36.5 491.45 37.25 492.35 37.95 493.25 38.6 494.15 39.25 495.1 39.8 496 40.3 496.8 40.65 497.6 41.1 497.2 41.85
L 495.85 44.05
Q 495.55 44.7 494.7 44.3 493.95 43.9 493.05 43.35 492.1 42.75 491.1 42 490.1 41.3 489.1 40.45 488.1 39.65 487.25 38.8 485.2 40.85 482.7 42.55 480.2 44.25 477.35 45.6 477.1 45.75 476.7 45.75 476.3 45.7 476.05 45.3
L 474.9 43.35
Q 474.7 43 474.8 42.65 474.9 42.3 475.25 42.1 477.5 41.1 479.5 39.8 481.5 38.55 483.1 37.05 484.75 35.55 485.95 33.95 487.15 32.3 487.75 30.65 487.95 30.3 487.9 30.05 487.9 29.75 487.25 29.75
L 477.35 29.75
Q 476.8 29.75 476.8 29.1
L 476.8 26.45
Q 476.8 25.95 477.35 25.95
L 490 25.95
Q 491.75 25.95 492.65 26.55 493.5 27.2 493.3 28.55 493.2 28.95 493.1 29.45 493 29.9 492.8 30.3
M 502.4 47.9
Q 503.95 47.9 504.5 48.55 505.05 49.15 505.05 50.65
L 505.05 61.1
Q 505.05 61.3 504.85 61.45 504.7 61.65 504.5 61.65
L 501.05 61.65
Q 500.8 61.65 500.65 61.45 500.45 61.3 500.45 61.1
L 500.45 52.4
Q 500.45 51.95 500.3 51.85 500.15 51.75 499.75 51.75
L 481.7 51.75
Q 481.5 51.75 481.3 51.55 481.1 51.45 481.1 51.25
L 481.1 48.4
Q 481.1 48.15 481.3 48.05 481.5 47.9 481.7 47.9
L 502.4 47.9
M 538.8 23.75
Q 539.4 23.75 539.4 24.3
L 539.4 33.35 544.75 33.35
Q 545 33.35 545.2 33.55 545.35 33.7 545.35 33.9
L 545.35 36.7
Q 545.35 36.9 545.2 37.05 545 37.2 544.75 37.2
L 539.4 37.2 539.4 44.95
Q 539.4 45.5 538.8 45.5
L 535.3 45.5
Q 535.1 45.5 534.9 45.3 534.75 45.15 534.75 44.9
L 534.75 24.3
Q 534.75 24.05 534.9 23.9 535.1 23.75 535.3 23.75
L 538.8 23.75
M 528.75 27.95
Q 528.75 28.1 528.7 28.45 528.65 28.7 528.6 29.05 528.55 29.35 528.5 29.6 528.4 29.85 528.35 30 526.85 35.5 522.85 39.4 518.9 43.25 512.55 45.9 511.6 46.3 511.3 45.5
L 510.25 43.45
Q 510.1 43.1 510.15 42.8 510.2 42.5 510.65 42.3 515.55 40.15 518.95 37.15 522.3 34.15 523.4 30.5 523.6 29.85 523.6 29.6 523.6 29.35 522.85 29.35
L 512 29.35
Q 511.7 29.35 511.6 29.2 511.45 29 511.45 28.75
L 511.45 26.1
Q 511.45 25.55 512 25.55
L 525.55 25.55
Q 527.35 25.55 528.05 26.1 528.75 26.7 528.75 27.95
M 536.65 47.5
Q 538.15 47.5 538.75 48.1 539.35 48.75 539.35 50.3
L 539.35 61.1
Q 539.35 61.3 539.15 61.45 538.95 61.65 538.75 61.65
L 535.35 61.65
Q 535.1 61.65 534.9 61.45 534.7 61.3 534.7 61.1
L 534.7 52
Q 534.7 51.55 534.55 51.45 534.4 51.3 533.95 51.3
L 515.9 51.3
Q 515.7 51.3 515.5 51.2 515.35 51.05 515.35 50.85
L 515.35 48
Q 515.35 47.7 515.5 47.6 515.7 47.5 515.9 47.5
L 536.65 47.5
M 574.45 23.75
Q 575 23.75 575 24.3
L 575 33.55 580.4 33.55
Q 580.6 33.55 580.8 33.65 580.95 33.8 580.95 34
L 580.95 36.8
Q 580.95 37 580.8 37.2 580.6 37.35 580.4 37.35
L 575 37.35 575 44.85
Q 575 45.4 574.45 45.4
L 570.9 45.4
Q 570.35 45.4 570.35 44.85
L 570.35 24.3
Q 570.35 23.75 570.9 23.75
L 574.45 23.75
M 571.95 47.4
Q 573.75 47.4 574.4 48.05 575 48.7 575 50.3
L 575 58.35
Q 575 59.85 574.35 60.5 573.7 61.1 572.15 61.1
L 554.55 61.1
Q 552.75 61.1 552.1 60.5 551.45 59.85 551.45 58.25
L 551.45 50.3
Q 551.45 48.75 552.15 48.1 552.8 47.4 554.35 47.4
L 571.95 47.4
M 554.35 24.55
Q 554.55 24.35 554.7 24.35
L 558.25 24.5
Q 558.75 24.5 558.75 25.15 558.75 28.6 558.15 31.35 558.8 32.9 559.8 34.25 560.85 35.6 562.05 36.75 563.2 37.85 564.45 38.7 565.65 39.55 566.75 40.05 567.4 40.3 566.95 41
L 565.55 43.2
Q 565.2 43.9 564.5 43.55 562.05 42.45 559.95 40.6 557.85 38.75 556.35 36.45 555 39 552.95 41.1 550.85 43.15 548 45.1 547.5 45.45 547.2 45.35 546.95 45.25 546.7 44.95
L 545.05 43.1
Q 544.65 42.65 544.75 42.35 544.85 42.1 545.2 41.85 547.45 40.3 549.15 38.7 550.8 37.1 551.9 35.15 553 33.15 553.55 30.7 554.15 28.25 554.15 25.05 554.15 24.75 554.35 24.55
M 610 23.75
Q 610.6 23.75 610.6 24.3
L 610.6 33.35 615.95 33.35
Q 616.2 33.35 616.4 33.55 616.55 33.7 616.55 33.9
L 616.55 36.7
Q 616.55 36.9 616.4 37.05 616.2 37.2 615.95 37.2
L 610.6 37.2 610.6 44.95
Q 610.6 45.5 610 45.5
L 606.5 45.5
Q 606.3 45.5 606.1 45.3 605.95 45.15 605.95 44.9
L 605.95 24.3
Q 605.95 24.05 606.1 23.9 606.3 23.75 606.5 23.75
L 610 23.75
M 607.85 47.5
Q 609.35 47.5 609.95 48.1 610.55 48.75 610.55 50.3
L 610.55 61.1
Q 610.55 61.3 610.35 61.45 610.15 61.65 609.95 61.65
L 606.55 61.65
Q 606.3 61.65 606.1 61.45 605.9 61.3 605.9 61.1
L 605.9 52
Q 605.9 51.55 605.75 51.45 605.6 51.3 605.15 51.3
L 587.1 51.3
Q 586.9 51.3 586.7 51.2 586.55 51.05 586.55 50.85
L 586.55 48
Q 586.55 47.7 586.7 47.6 586.9 47.5 587.1 47.5
L 607.85 47.5
M 582.65 26.1
Q 582.65 25.55 583.2 25.55
L 596.75 25.55
Q 598.55 25.55 599.25 26.1 599.95 26.7 599.95 27.95 599.95 28.1 599.9 28.45 599.85 28.7 599.8 29.05 599.75 29.35 599.7 29.6 599.6 29.85 599.55 30 598.05 35.5 594.05 39.4 590.1 43.25 583.75 45.9 582.8 46.3 582.5 45.5
L 581.45 43.45
Q 581.3 43.1 581.35 42.8 581.4 42.5 581.85 42.3 586.75 40.15 590.15 37.15 593.5 34.15 594.6 30.5 594.8 29.85 594.8 29.6 594.8 29.35 594.05 29.35
L 583.2 29.35
Q 582.9 29.35 582.8 29.2 582.65 29 582.65 28.75
L 582.65 26.1
M 643.25 24.25
Q 643.25 23.7 643.8 23.7
L 647.35 23.7
Q 647.55 23.7 647.7 23.9 647.9 24.05 647.9 24.25
L 647.9 47.3
Q 647.9 47.55 647.7 47.7 647.55 47.9 647.35 47.9
L 643.8 47.9
Q 643.55 47.9 643.4 47.7 643.25 47.55 643.25 47.3
L 643.25 44.5 638.5 44.5
Q 638.35 44.5 638.15 44.4 638 44.25 638 44.05
L 638 41.3
Q 638 41.1 638.15 41 638.35 40.85 638.5 40.85
L 643.25 40.85 643.25 38.15 638.5 38.15
Q 638.35 38.15 638.15 38 638 37.9 638 37.7
L 638 34.95
Q 638 34.75 638.15 34.6 638.35 34.5 638.5 34.5
L 643.25 34.5 643.25 24.25
M 633.3 24.1
Q 633.55 24.1 633.8 24.35 633.95 24.5 633.95 24.75
L 633.95 26.95
Q 633.95 27.2 633.8 27.4 633.6 27.65 633.3 27.65
L 623.1 27.65
Q 622.95 27.65 622.7 27.45 622.5 27.3 622.5 27
L 622.5 24.7
Q 622.5 24.45 622.7 24.3 622.95 24.1 623.1 24.1
L 633.3 24.1
M 622.2 35.75
Q 623.35 34.95 624.9 34.5 626.45 34.05 628.25 34.05 630.05 34.05 631.65 34.55 633.2 35 634.35 35.85 635.5 36.75 636.15 37.9 636.8 39.1 636.8 40.6 636.8 42.1 636.15 43.3 635.5 44.5 634.3 45.4 633.15 46.25 631.6 46.75 630.05 47.2 628.2 47.2 626.4 47.2 624.85 46.7 623.35 46.2 622.2 45.3 621.05 44.4 620.4 43.15 619.75 41.9 619.75 40.4 619.75 38.9 620.4 37.75 621.05 36.6 622.2 35.75
M 617 29.85
Q 617 29.7 617.2 29.45 617.45 29.25 617.65 29.25
L 638.5 29.25
Q 638.75 29.25 638.9 29.45 639.1 29.65 639.1 29.85
L 639.1 32.15
Q 639.1 32.4 638.9 32.6 638.75 32.75 638.5 32.75
L 617.6 32.75
Q 617.4 32.75 617.2 32.55 617 32.35 617 32.1
L 617 29.85
M 630.95 48.8
Q 633.15 48.35 635.9 48.35 638.5 48.35 640.7 48.8 642.95 49.3 644.55 50.15 646.2 51.05 647.1 52.25 648 53.45 648 54.9 648 56.4 647.1 57.65 646.2 58.9 644.55 59.75 642.95 60.65 640.7 61.1 638.5 61.6 635.9 61.6 633.15 61.6 630.95 61.1 628.8 60.65 627.2 59.75 625.65 58.9 624.8 57.65 623.95 56.4 623.95 54.9 623.95 53.45 624.8 52.25 625.65 51.05 627.2 50.15 628.8 49.3 630.95 48.8
M 641.05 52.6
Q 640.05 52.15 638.75 51.95 637.4 51.75 635.9 51.75 634.3 51.75 633 51.95 631.7 52.15 630.75 52.6 629.75 53 629.25 53.6 628.7 54.25 628.7 55.05 628.7 55.85 629.25 56.4 629.75 56.95 630.75 57.35 631.75 57.75 633.05 57.95 634.35 58.1 635.9 58.1 637.4 58.1 638.75 57.95 640.05 57.75 641.05 57.35 642.05 56.95 642.65 56.4 643.25 55.85 643.25 55.05 643.25 54.25 642.65 53.6 642.05 53 641.05 52.6
M 625.2 38.4
Q 624.05 39.2 624.05 40.6 624.05 42 625.2 42.9 626.35 43.75 628.25 43.75 630.15 43.75 631.3 42.9 632.45 42 632.45 40.6 632.45 39.2 631.3 38.4 630.15 37.6 628.25 37.6 626.35 37.6 625.2 38.4
M 570.45 56.9
L 570.45 51.65
Q 570.45 51.3 570.35 51.2 570.25 51.1 569.95 51.1
L 556.6 51.1
Q 556.25 51.1 556.15 51.15 556.05 51.25 556.05 51.55
L 556.05 56.9
Q 556.05 57.3 556.15 57.35 556.25 57.45 556.6 57.45
L 569.95 57.45
Q 570.25 57.45 570.35 57.35 570.45 57.3 570.45 56.9
M 1121.65 21.5
Q 1121.65 1.5 1101.65 1.5
L 1005.95 1.5 981.55 1.5 874.55 1.5 830.95 1.5 796.55 1.5 747.55 1.5 747.55 81.6 1121.65 81.6 1121.65 21.5
M 853.8 34.6
Q 853.95 34.8 854.4 34.8
L 873.15 34.8
Q 873.45 34.8 873.6 34.85 873.8 34.95 873.8 35.3
L 873.8 38
Q 873.8 38.35 873.6 38.45 873.5 38.6 873.3 38.6
L 851.9 38.6
Q 850.3 38.6 849.65 37.9 849 37.15 849 35.75
L 849 27.5
Q 849 25.95 849.7 25.4 850.4 24.85 851.9 24.85
L 872.95 24.85
Q 873.5 24.85 873.5 25.4
L 873.5 28.15
Q 873.5 28.7 872.95 28.7
L 854.4 28.7
Q 853.65 28.7 853.65 29.35
L 853.65 34.1
Q 853.65 34.45 853.8 34.6
M 852.55 49
Q 852.8 49 853 49.2 853.15 49.35 853.15 49.55
L 853.15 56.3
Q 853.15 56.7 853.35 56.8 853.5 56.9 853.9 56.9
L 874.25 56.9
Q 874.45 56.9 874.65 57.05 874.85 57.2 874.85 57.4
L 874.85 60.3
Q 874.85 60.5 874.7 60.65 874.5 60.75 874.25 60.75
L 851.6 60.75
Q 849.8 60.75 849.2 60.1 848.55 59.45 848.55 57.9
L 848.55 49.55
Q 848.55 49.35 848.75 49.2 848.95 49 849.15 49
L 852.55 49
M 879 42.3
Q 879.2 42.55 879.2 42.7
L 879.2 45.3
Q 879.2 45.5 879 45.75 878.8 45.95 878.6 45.95
L 863.8 45.95 863.8 53.1
Q 863.8 53.65 863.25 53.65
L 859.75 53.65
Q 859.2 53.65 859.2 53.1
L 859.2 45.95 843.8 45.95
Q 843.5 45.95 843.35 45.75 843.2 45.5 843.2 45.3
L 843.2 42.7
Q 843.2 42.5 843.35 42.3 843.5 42.1 843.8 42.1
L 878.6 42.1
Q 878.8 42.1 879 42.3
M 908.8 23.75
Q 909.4 23.75 909.4 24.3
L 909.4 33.35 914.75 33.35
Q 915 33.35 915.2 33.55 915.35 33.7 915.35 33.9
L 915.35 36.7
Q 915.35 36.9 915.2 37.05 915 37.2 914.75 37.2
L 909.4 37.2 909.4 44.95
Q 909.4 45.5 908.8 45.5
L 905.3 45.5
Q 905.1 45.5 904.9 45.3 904.75 45.15 904.75 44.9
L 904.75 24.3
Q 904.75 24.05 904.9 23.9 905.1 23.75 905.3 23.75
L 908.8 23.75
M 898.5 29.6
Q 898.4 29.85 898.35 30 896.85 35.5 892.85 39.4 888.9 43.25 882.55 45.9 881.6 46.3 881.3 45.5
L 880.25 43.45
Q 880.1 43.1 880.15 42.8 880.2 42.5 880.65 42.3 885.55 40.15 888.95 37.15 892.3 34.15 893.4 30.5 893.6 29.85 893.6 29.6 893.6 29.35 892.85 29.35
L 882 29.35
Q 881.7 29.35 881.6 29.2 881.45 29 881.45 28.75
L 881.45 26.1
Q 881.45 25.55 882 25.55
L 895.55 25.55
Q 897.35 25.55 898.05 26.1 898.75 26.7 898.75 27.95 898.75 28.1 898.7 28.45 898.65 28.7 898.6 29.05 898.55 29.35 898.5 29.6
M 906.65 47.5
Q 908.15 47.5 908.75 48.1 909.35 48.75 909.35 50.3
L 909.35 61.1
Q 909.35 61.3 909.15 61.45 908.95 61.65 908.75 61.65
L 905.35 61.65
Q 905.1 61.65 904.9 61.45 904.7 61.3 904.7 61.1
L 904.7 52
Q 904.7 51.55 904.55 51.45 904.4 51.3 903.95 51.3
L 885.9 51.3
Q 885.7 51.3 885.5 51.2 885.35 51.05 885.35 50.85
L 885.35 48
Q 885.35 47.7 885.5 47.6 885.7 47.5 885.9 47.5
L 906.65 47.5
M 944.45 23.75
Q 945 23.75 945 24.3
L 945 33.55 950.4 33.55
Q 950.6 33.55 950.8 33.65 950.95 33.8 950.95 34
L 950.95 36.8
Q 950.95 37 950.8 37.2 950.6 37.35 950.4 37.35
L 945 37.35 945 44.85
Q 945 45.4 944.45 45.4
L 940.9 45.4
Q 940.35 45.4 940.35 44.85
L 940.35 24.3
Q 940.35 23.75 940.9 23.75
L 944.45 23.75
M 935.55 43.2
Q 935.2 43.9 934.5 43.55 932.05 42.45 929.95 40.6 927.85 38.75 926.35 36.45 925 39 922.95 41.1 920.85 43.15 918 45.1 917.5 45.45 917.2 45.35 916.95 45.25 916.7 44.95
L 915.05 43.1
Q 914.65 42.65 914.75 42.35 914.85 42.1 915.2 41.85 917.45 40.3 919.15 38.7 920.8 37.1 921.9 35.15 923 33.15 923.55 30.7 924.15 28.25 924.15 25.05 924.15 24.75 924.35 24.55 924.55 24.35 924.7 24.35
L 928.25 24.5
Q 928.75 24.5 928.75 25.15 928.75 28.6 928.15 31.35 928.8 32.9 929.8 34.25 930.85 35.6 932.05 36.75 933.2 37.85 934.45 38.7 935.65 39.55 936.75 40.05 937.4 40.3 936.95 41
L 935.55 43.2
M 941.95 47.4
Q 943.75 47.4 944.4 48.05 945 48.7 945 50.3
L 945 58.35
Q 945 59.85 944.35 60.5 943.7 61.1 942.15 61.1
L 924.55 61.1
Q 922.75 61.1 922.1 60.5 921.45 59.85 921.45 58.25
L 921.45 50.3
Q 921.45 48.75 922.15 48.1 922.8 47.4 924.35 47.4
L 941.95 47.4
M 980 23.75
Q 980.6 23.75 980.6 24.3
L 980.6 33.35 985.95 33.35
Q 986.2 33.35 986.4 33.55 986.55 33.7 986.55 33.9
L 986.55 36.7
Q 986.55 36.9 986.4 37.05 986.2 37.2 985.95 37.2
L 980.6 37.2 980.6 44.95
Q 980.6 45.5 980 45.5
L 976.5 45.5
Q 976.3 45.5 976.1 45.3 975.95 45.15 975.95 44.9
L 975.95 24.3
Q 975.95 24.05 976.1 23.9 976.3 23.75 976.5 23.75
L 980 23.75
M 977.85 47.5
Q 979.35 47.5 979.95 48.1 980.55 48.75 980.55 50.3
L 980.55 61.1
Q 980.55 61.3 980.35 61.45 980.15 61.65 979.95 61.65
L 976.55 61.65
Q 976.3 61.65 976.1 61.45 975.9 61.3 975.9 61.1
L 975.9 52
Q 975.9 51.55 975.75 51.45 975.6 51.3 975.15 51.3
L 957.1 51.3
Q 956.9 51.3 956.7 51.2 956.55 51.05 956.55 50.85
L 956.55 48
Q 956.55 47.7 956.7 47.6 956.9 47.5 957.1 47.5
L 977.85 47.5
M 951.45 43.45
Q 951.3 43.1 951.35 42.8 951.4 42.5 951.85 42.3 956.75 40.15 960.15 37.15 963.5 34.15 964.6 30.5 964.8 29.85 964.8 29.6 964.8 29.35 964.05 29.35
L 953.2 29.35
Q 952.9 29.35 952.8 29.2 952.65 29 952.65 28.75
L 952.65 26.1
Q 952.65 25.55 953.2 25.55
L 966.75 25.55
Q 968.55 25.55 969.25 26.1 969.95 26.7 969.95 27.95 969.95 28.1 969.9 28.45 969.85 28.7 969.8 29.05 969.75 29.35 969.7 29.6 969.6 29.85 969.55 30 968.05 35.5 964.05 39.4 960.1 43.25 953.75 45.9 952.8 46.3 952.5 45.5
L 951.45 43.45
M 1013.25 24.25
Q 1013.25 23.7 1013.8 23.7
L 1017.35 23.7
Q 1017.55 23.7 1017.7 23.9 1017.9 24.05 1017.9 24.25
L 1017.9 47.3
Q 1017.9 47.55 1017.7 47.7 1017.55 47.9 1017.35 47.9
L 1013.8 47.9
Q 1013.55 47.9 1013.4 47.7 1013.25 47.55 1013.25 47.3
L 1013.25 44.5 1008.5 44.5
Q 1008.35 44.5 1008.15 44.4 1008 44.25 1008 44.05
L 1008 41.3
Q 1008 41.1 1008.15 41 1008.35 40.85 1008.5 40.85
L 1013.25 40.85 1013.25 38.15 1008.5 38.15
Q 1008.35 38.15 1008.15 38 1008 37.9 1008 37.7
L 1008 34.95
Q 1008 34.75 1008.15 34.6 1008.35 34.5 1008.5 34.5
L 1013.25 34.5 1013.25 24.25
M 992.5 24.7
Q 992.5 24.45 992.7 24.3 992.95 24.1 993.1 24.1
L 1003.3 24.1
Q 1003.55 24.1 1003.8 24.35 1003.95 24.5 1003.95 24.75
L 1003.95 26.95
Q 1003.95 27.2 1003.8 27.4 1003.6 27.65 1003.3 27.65
L 993.1 27.65
Q 992.95 27.65 992.7 27.45 992.5 27.3 992.5 27
L 992.5 24.7
M 987.2 29.45
Q 987.45 29.25 987.65 29.25
L 1008.5 29.25
Q 1008.75 29.25 1008.9 29.45 1009.1 29.65 1009.1 29.85
L 1009.1 32.15
Q 1009.1 32.4 1008.9 32.6 1008.75 32.75 1008.5 32.75
L 987.6 32.75
Q 987.4 32.75 987.2 32.55 987 32.35 987 32.1
L 987 29.85
Q 987 29.7 987.2 29.45
M 989.75 40.4
Q 989.75 38.9 990.4 37.75 991.05 36.6 992.2 35.75 993.35 34.95 994.9 34.5 996.45 34.05 998.25 34.05 1000.05 34.05 1001.65 34.55 1003.2 35 1004.35 35.85 1005.5 36.75 1006.15 37.9 1006.8 39.1 1006.8 40.6 1006.8 42.1 1006.15 43.3 1005.5 44.5 1004.3 45.4 1003.15 46.25 1001.6 46.75 1000.05 47.2 998.2 47.2 996.4 47.2 994.85 46.7 993.35 46.2 992.2 45.3 991.05 44.4 990.4 43.15 989.75 41.9 989.75 40.4
M 1005.9 48.35
Q 1008.5 48.35 1010.7 48.8 1012.95 49.3 1014.55 50.15 1016.2 51.05 1017.1 52.25 1018 53.45 1018 54.9 1018 56.4 1017.1 57.65 1016.2 58.9 1014.55 59.75 1012.95 60.65 1010.7 61.1 1008.5 61.6 1005.9 61.6 1003.15 61.6 1000.95 61.1 998.8 60.65 997.2 59.75 995.65 58.9 994.8 57.65 993.95 56.4 993.95 54.9 993.95 53.45 994.8 52.25 995.65 51.05 997.2 50.15 998.8 49.3 1000.95 48.8 1003.15 48.35 1005.9 48.35
M 1011.05 52.6
Q 1010.05 52.15 1008.75 51.95 1007.4 51.75 1005.9 51.75 1004.3 51.75 1003 51.95 1001.7 52.15 1000.75 52.6 999.75 53 999.25 53.6 998.7 54.25 998.7 55.05 998.7 55.85 999.25 56.4 999.75 56.95 1000.75 57.35 1001.75 57.75 1003.05 57.95 1004.35 58.1 1005.9 58.1 1007.4 58.1 1008.75 57.95 1010.05 57.75 1011.05 57.35 1012.05 56.95 1012.65 56.4 1013.25 55.85 1013.25 55.05 1013.25 54.25 1012.65 53.6 1012.05 53 1011.05 52.6
M 1001.3 38.4
Q 1000.15 37.6 998.25 37.6 996.35 37.6 995.2 38.4 994.05 39.2 994.05 40.6 994.05 42 995.2 42.9 996.35 43.75 998.25 43.75 1000.15 43.75 1001.3 42.9 1002.45 42 1002.45 40.6 1002.45 39.2 1001.3 38.4
M 926.15 57.35
Q 926.25 57.45 926.6 57.45
L 939.95 57.45
Q 940.25 57.45 940.35 57.35 940.45 57.3 940.45 56.9
L 940.45 51.65
Q 940.45 51.3 940.35 51.2 940.25 51.1 939.95 51.1
L 926.6 51.1
Q 926.25 51.1 926.15 51.15 926.05 51.25 926.05 51.55
L 926.05 56.9
Q 926.05 57.3 926.15 57.35 Z"/>

<path fill="#1E1E1E" stroke="none" d="
M 270.7 48.8
Q 268.5 48.35 265.9 48.35 263.15 48.35 260.95 48.8 258.8 49.3 257.2 50.15 255.65 51.05 254.8 52.25 253.95 53.45 253.95 54.9 253.95 56.4 254.8 57.65 255.65 58.9 257.2 59.75 258.8 60.65 260.95 61.1 263.15 61.6 265.9 61.6 268.5 61.6 270.7 61.1 272.95 60.65 274.55 59.75 276.2 58.9 277.1 57.65 278 56.4 278 54.9 278 53.45 277.1 52.25 276.2 51.05 274.55 50.15 272.95 49.3 270.7 48.8
M 268.75 51.95
Q 270.05 52.15 271.05 52.6 272.05 53 272.65 53.6 273.25 54.25 273.25 55.05 273.25 55.85 272.65 56.4 272.05 56.95 271.05 57.35 270.05 57.75 268.75 57.95 267.4 58.1 265.9 58.1 264.35 58.1 263.05 57.95 261.75 57.75 260.75 57.35 259.75 56.95 259.25 56.4 258.7 55.85 258.7 55.05 258.7 54.25 259.25 53.6 259.75 53 260.75 52.6 261.7 52.15 263 51.95 264.3 51.75 265.9 51.75 267.4 51.75 268.75 51.95
M 247.65 29.25
Q 247.45 29.25 247.2 29.45 247 29.7 247 29.85
L 247 32.1
Q 247 32.35 247.2 32.55 247.4 32.75 247.6 32.75
L 268.5 32.75
Q 268.75 32.75 268.9 32.6 269.1 32.4 269.1 32.15
L 269.1 29.85
Q 269.1 29.65 268.9 29.45 268.75 29.25 268.5 29.25
L 247.65 29.25
M 261.65 34.55
Q 260.05 34.05 258.25 34.05 256.45 34.05 254.9 34.5 253.35 34.95 252.2 35.75 251.05 36.6 250.4 37.75 249.75 38.9 249.75 40.4 249.75 41.9 250.4 43.15 251.05 44.4 252.2 45.3 253.35 46.2 254.85 46.7 256.4 47.2 258.2 47.2 260.05 47.2 261.6 46.75 263.15 46.25 264.3 45.4 265.5 44.5 266.15 43.3 266.8 42.1 266.8 40.6 266.8 39.1 266.15 37.9 265.5 36.75 264.35 35.85 263.2 35 261.65 34.55
M 258.25 37.6
Q 260.15 37.6 261.3 38.4 262.45 39.2 262.45 40.6 262.45 42 261.3 42.9 260.15 43.75 258.25 43.75 256.35 43.75 255.2 42.9 254.05 42 254.05 40.6 254.05 39.2 255.2 38.4 256.35 37.6 258.25 37.6
M 263.8 24.35
Q 263.55 24.1 263.3 24.1
L 253.1 24.1
Q 252.95 24.1 252.7 24.3 252.5 24.45 252.5 24.7
L 252.5 27
Q 252.5 27.3 252.7 27.45 252.95 27.65 253.1 27.65
L 263.3 27.65
Q 263.6 27.65 263.8 27.4 263.95 27.2 263.95 26.95
L 263.95 24.75
Q 263.95 24.5 263.8 24.35
M 273.8 23.7
Q 273.25 23.7 273.25 24.25
L 273.25 34.5 268.5 34.5
Q 268.35 34.5 268.15 34.6 268 34.75 268 34.95
L 268 37.7
Q 268 37.9 268.15 38 268.35 38.15 268.5 38.15
L 273.25 38.15 273.25 40.85 268.5 40.85
Q 268.35 40.85 268.15 41 268 41.1 268 41.3
L 268 44.05
Q 268 44.25 268.15 44.4 268.35 44.5 268.5 44.5
L 273.25 44.5 273.25 47.3
Q 273.25 47.55 273.4 47.7 273.55 47.9 273.8 47.9
L 277.35 47.9
Q 277.55 47.9 277.7 47.7 277.9 47.55 277.9 47.3
L 277.9 24.25
Q 277.9 24.05 277.7 23.9 277.55 23.7 277.35 23.7
L 273.8 23.7
M 216.7 47.6
Q 216.55 47.7 216.55 48
L 216.55 50.85
Q 216.55 51.05 216.7 51.2 216.9 51.3 217.1 51.3
L 235.15 51.3
Q 235.6 51.3 235.75 51.45 235.9 51.55 235.9 52
L 235.9 61.1
Q 235.9 61.3 236.1 61.45 236.3 61.65 236.55 61.65
L 239.95 61.65
Q 240.15 61.65 240.35 61.45 240.55 61.3 240.55 61.1
L 240.55 50.3
Q 240.55 48.75 239.95 48.1 239.35 47.5 237.85 47.5
L 217.1 47.5
Q 216.9 47.5 216.7 47.6
M 213.2 25.55
Q 212.65 25.55 212.65 26.1
L 212.65 28.75
Q 212.65 29 212.8 29.2 212.9 29.35 213.2 29.35
L 224.05 29.35
Q 224.8 29.35 224.8 29.6 224.8 29.85 224.6 30.5 223.5 34.15 220.15 37.15 216.75 40.15 211.85 42.3 211.4 42.5 211.35 42.8 211.3 43.1 211.45 43.45
L 212.5 45.5
Q 212.8 46.3 213.75 45.9 220.1 43.25 224.05 39.4 228.05 35.5 229.55 30 229.6 29.85 229.7 29.6 229.75 29.35 229.8 29.05 229.85 28.7 229.9 28.45 229.95 28.1 229.95 27.95 229.95 26.7 229.25 26.1 228.55 25.55 226.75 25.55
L 213.2 25.55
M 246.55 36.7
L 246.55 33.9
Q 246.55 33.7 246.4 33.55 246.2 33.35 245.95 33.35
L 240.6 33.35 240.6 24.3
Q 240.6 23.75 240 23.75
L 236.5 23.75
Q 236.3 23.75 236.1 23.9 235.95 24.05 235.95 24.3
L 235.95 44.9
Q 235.95 45.15 236.1 45.3 236.3 45.5 236.5 45.5
L 240 45.5
Q 240.6 45.5 240.6 44.95
L 240.6 37.2 245.95 37.2
Q 246.2 37.2 246.4 37.05 246.55 36.9 246.55 36.7
M 201.95 47.4
L 184.35 47.4
Q 182.8 47.4 182.15 48.1 181.45 48.75 181.45 50.3
L 181.45 58.25
Q 181.45 59.85 182.1 60.5 182.75 61.1 184.55 61.1
L 202.15 61.1
Q 203.7 61.1 204.35 60.5 205 59.85 205 58.35
L 205 50.3
Q 205 48.7 204.4 48.05 203.75 47.4 201.95 47.4
M 200.35 51.2
Q 200.45 51.3 200.45 51.65
L 200.45 56.9
Q 200.45 57.3 200.35 57.35 200.25 57.45 199.95 57.45
L 186.6 57.45
Q 186.25 57.45 186.15 57.35 186.05 57.3 186.05 56.9
L 186.05 51.55
Q 186.05 51.25 186.15 51.15 186.25 51.1 186.6 51.1
L 199.95 51.1
Q 200.25 51.1 200.35 51.2
M 184.7 24.35
Q 184.55 24.35 184.35 24.55 184.15 24.75 184.15 25.05 184.15 28.25 183.55 30.7 183 33.15 181.9 35.15 180.8 37.1 179.15 38.7 177.45 40.3 175.2 41.85 174.85 42.1 174.75 42.35 174.65 42.65 175.05 43.1
L 176.7 44.95
Q 176.95 45.25 177.2 45.35 177.5 45.45 178 45.1 180.85 43.15 182.95 41.1 185 39 186.35 36.45 187.85 38.75 189.95 40.6 192.05 42.45 194.5 43.55 195.2 43.9 195.55 43.2
L 196.95 41
Q 197.4 40.3 196.75 40.05 195.65 39.55 194.45 38.7 193.2 37.85 192.05 36.75 190.85 35.6 189.8 34.25 188.8 32.9 188.15 31.35 188.75 28.6 188.75 25.15 188.75 24.5 188.25 24.5
L 184.7 24.35
M 205 24.3
Q 205 23.75 204.45 23.75
L 200.9 23.75
Q 200.35 23.75 200.35 24.3
L 200.35 44.85
Q 200.35 45.4 200.9 45.4
L 204.45 45.4
Q 205 45.4 205 44.85
L 205 37.35 210.4 37.35
Q 210.6 37.35 210.8 37.2 210.95 37 210.95 36.8
L 210.95 34
Q 210.95 33.8 210.8 33.65 210.6 33.55 210.4 33.55
L 205 33.55 205 24.3
M 140.65 42.3
Q 140.2 42.5 140.15 42.8 140.1 43.1 140.25 43.45
L 141.3 45.5
Q 141.6 46.3 142.55 45.9 148.9 43.25 152.85 39.4 156.85 35.5 158.35 30 158.4 29.85 158.5 29.6 158.55 29.35 158.6 29.05 158.65 28.7 158.7 28.45 158.75 28.1 158.75 27.95 158.75 26.7 158.05 26.1 157.35 25.55 155.55 25.55
L 142 25.55
Q 141.45 25.55 141.45 26.1
L 141.45 28.75
Q 141.45 29 141.6 29.2 141.7 29.35 142 29.35
L 152.85 29.35
Q 153.6 29.35 153.6 29.6 153.6 29.85 153.4 30.5 152.3 34.15 148.95 37.15 145.55 40.15 140.65 42.3
M 168.75 48.1
Q 168.15 47.5 166.65 47.5
L 145.9 47.5
Q 145.7 47.5 145.5 47.6 145.35 47.7 145.35 48
L 145.35 50.85
Q 145.35 51.05 145.5 51.2 145.7 51.3 145.9 51.3
L 163.95 51.3
Q 164.4 51.3 164.55 51.45 164.7 51.55 164.7 52
L 164.7 61.1
Q 164.7 61.3 164.9 61.45 165.1 61.65 165.35 61.65
L 168.75 61.65
Q 168.95 61.65 169.15 61.45 169.35 61.3 169.35 61.1
L 169.35 50.3
Q 169.35 48.75 168.75 48.1
M 169.4 24.3
Q 169.4 23.75 168.8 23.75
L 165.3 23.75
Q 165.1 23.75 164.9 23.9 164.75 24.05 164.75 24.3
L 164.75 44.9
Q 164.75 45.15 164.9 45.3 165.1 45.5 165.3 45.5
L 168.8 45.5
Q 169.4 45.5 169.4 44.95
L 169.4 37.2 174.75 37.2
Q 175 37.2 175.2 37.05 175.35 36.9 175.35 36.7
L 175.35 33.9
Q 175.35 33.7 175.2 33.55 175 33.35 174.75 33.35
L 169.4 33.35 169.4 24.3
M 129.45 24.9
Q 129.45 24.4 128.95 24.4
L 125.65 24.4
Q 125.1 24.4 125.1 24.9
L 125.1 31.85 120.4 31.85
Q 119.3 29.05 117.35 27.7 115.4 26.3 112.9 26.3 111 26.3 109.45 27.1 107.9 27.9 106.75 29.45 105.6 31 105 33.35 104.35 35.7 104.35 38.9 104.35 42.1 105 44.5 105.6 46.9 106.75 48.45 107.9 50 109.45 50.75 111 51.55 112.9 51.55 115.3 51.55 117.15 50.4 118.95 49.25 120.1 46.75
L 125.1 46.75 125.1 59.85
Q 125.1 60.45 125.65 60.45
L 128.95 60.45
Q 129.45 60.45 129.45 59.85
L 129.45 24.9
M 125.1 35.55
L 125.1 42.95 121.1 42.95
Q 121.3 42.05 121.4 41.05 121.45 40.1 121.45 38.9 121.45 38.05 121.4 37.2 121.35 36.35 121.25 35.55
L 125.1 35.55
M 112.95 30.3
Q 114 30.3 114.8 31.1 115.6 31.9 116.05 33.15 116.55 34.4 116.8 35.95 117.05 37.45 117.05 38.9 117.05 40.4 116.8 41.95 116.55 43.5 116.05 44.7 115.6 45.95 114.8 46.75 114 47.55 112.95 47.55 111.9 47.55 111.1 46.75 110.3 45.95 109.85 44.7 109.35 43.5 109.1 41.95 108.85 40.4 108.85 38.9 108.85 37.45 109.1 35.95 109.35 34.4 109.85 33.15 110.3 31.9 111.1 31.1 111.9 30.3 112.95 30.3
M 137.15 24.3
Q 137.15 23.75 136.6 23.75
L 133.15 23.75
Q 132.6 23.75 132.6 24.3
L 132.6 61.3
Q 132.6 61.8 133.15 61.8
L 136.6 61.8
Q 137.15 61.8 137.15 61.3
L 137.15 24.3
M 635.9 48.35
Q 633.15 48.35 630.95 48.8 628.8 49.3 627.2 50.15 625.65 51.05 624.8 52.25 623.95 53.45 623.95 54.9 623.95 56.4 624.8 57.65 625.65 58.9 627.2 59.75 628.8 60.65 630.95 61.1 633.15 61.6 635.9 61.6 638.5 61.6 640.7 61.1 642.95 60.65 644.55 59.75 646.2 58.9 647.1 57.65 648 56.4 648 54.9 648 53.45 647.1 52.25 646.2 51.05 644.55 50.15 642.95 49.3 640.7 48.8 638.5 48.35 635.9 48.35
M 638.75 51.95
Q 640.05 52.15 641.05 52.6 642.05 53 642.65 53.6 643.25 54.25 643.25 55.05 643.25 55.85 642.65 56.4 642.05 56.95 641.05 57.35 640.05 57.75 638.75 57.95 637.4 58.1 635.9 58.1 634.35 58.1 633.05 57.95 631.75 57.75 630.75 57.35 629.75 56.95 629.25 56.4 628.7 55.85 628.7 55.05 628.7 54.25 629.25 53.6 629.75 53 630.75 52.6 631.7 52.15 633 51.95 634.3 51.75 635.9 51.75 637.4 51.75 638.75 51.95
M 617.2 29.45
Q 617 29.7 617 29.85
L 617 32.1
Q 617 32.35 617.2 32.55 617.4 32.75 617.6 32.75
L 638.5 32.75
Q 638.75 32.75 638.9 32.6 639.1 32.4 639.1 32.15
L 639.1 29.85
Q 639.1 29.65 638.9 29.45 638.75 29.25 638.5 29.25
L 617.65 29.25
Q 617.45 29.25 617.2 29.45
M 624.9 34.5
Q 623.35 34.95 622.2 35.75 621.05 36.6 620.4 37.75 619.75 38.9 619.75 40.4 619.75 41.9 620.4 43.15 621.05 44.4 622.2 45.3 623.35 46.2 624.85 46.7 626.4 47.2 628.2 47.2 630.05 47.2 631.6 46.75 633.15 46.25 634.3 45.4 635.5 44.5 636.15 43.3 636.8 42.1 636.8 40.6 636.8 39.1 636.15 37.9 635.5 36.75 634.35 35.85 633.2 35 631.65 34.55 630.05 34.05 628.25 34.05 626.45 34.05 624.9 34.5
M 624.05 40.6
Q 624.05 39.2 625.2 38.4 626.35 37.6 628.25 37.6 630.15 37.6 631.3 38.4 632.45 39.2 632.45 40.6 632.45 42 631.3 42.9 630.15 43.75 628.25 43.75 626.35 43.75 625.2 42.9 624.05 42 624.05 40.6
M 633.8 24.35
Q 633.55 24.1 633.3 24.1
L 623.1 24.1
Q 622.95 24.1 622.7 24.3 622.5 24.45 622.5 24.7
L 622.5 27
Q 622.5 27.3 622.7 27.45 622.95 27.65 623.1 27.65
L 633.3 27.65
Q 633.6 27.65 633.8 27.4 633.95 27.2 633.95 26.95
L 633.95 24.75
Q 633.95 24.5 633.8 24.35
M 643.8 23.7
Q 643.25 23.7 643.25 24.25
L 643.25 34.5 638.5 34.5
Q 638.35 34.5 638.15 34.6 638 34.75 638 34.95
L 638 37.7
Q 638 37.9 638.15 38 638.35 38.15 638.5 38.15
L 643.25 38.15 643.25 40.85 638.5 40.85
Q 638.35 40.85 638.15 41 638 41.1 638 41.3
L 638 44.05
Q 638 44.25 638.15 44.4 638.35 44.5 638.5 44.5
L 643.25 44.5 643.25 47.3
Q 643.25 47.55 643.4 47.7 643.55 47.9 643.8 47.9
L 647.35 47.9
Q 647.55 47.9 647.7 47.7 647.9 47.55 647.9 47.3
L 647.9 24.25
Q 647.9 24.05 647.7 23.9 647.55 23.7 647.35 23.7
L 643.8 23.7
M 583.2 25.55
Q 582.65 25.55 582.65 26.1
L 582.65 28.75
Q 582.65 29 582.8 29.2 582.9 29.35 583.2 29.35
L 594.05 29.35
Q 594.8 29.35 594.8 29.6 594.8 29.85 594.6 30.5 593.5 34.15 590.15 37.15 586.75 40.15 581.85 42.3 581.4 42.5 581.35 42.8 581.3 43.1 581.45 43.45
L 582.5 45.5
Q 582.8 46.3 583.75 45.9 590.1 43.25 594.05 39.4 598.05 35.5 599.55 30 599.6 29.85 599.7 29.6 599.75 29.35 599.8 29.05 599.85 28.7 599.9 28.45 599.95 28.1 599.95 27.95 599.95 26.7 599.25 26.1 598.55 25.55 596.75 25.55
L 583.2 25.55
M 609.95 48.1
Q 609.35 47.5 607.85 47.5
L 587.1 47.5
Q 586.9 47.5 586.7 47.6 586.55 47.7 586.55 48
L 586.55 50.85
Q 586.55 51.05 586.7 51.2 586.9 51.3 587.1 51.3
L 605.15 51.3
Q 605.6 51.3 605.75 51.45 605.9 51.55 605.9 52
L 605.9 61.1
Q 605.9 61.3 606.1 61.45 606.3 61.65 606.55 61.65
L 609.95 61.65
Q 610.15 61.65 610.35 61.45 610.55 61.3 610.55 61.1
L 610.55 50.3
Q 610.55 48.75 609.95 48.1
M 610.6 24.3
Q 610.6 23.75 610 23.75
L 606.5 23.75
Q 606.3 23.75 606.1 23.9 605.95 24.05 605.95 24.3
L 605.95 44.9
Q 605.95 45.15 606.1 45.3 606.3 45.5 606.5 45.5
L 610 45.5
Q 610.6 45.5 610.6 44.95
L 610.6 37.2 615.95 37.2
Q 616.2 37.2 616.4 37.05 616.55 36.9 616.55 36.7
L 616.55 33.9
Q 616.55 33.7 616.4 33.55 616.2 33.35 615.95 33.35
L 610.6 33.35 610.6 24.3
M 554.7 24.35
Q 554.55 24.35 554.35 24.55 554.15 24.75 554.15 25.05 554.15 28.25 553.55 30.7 553 33.15 551.9 35.15 550.8 37.1 549.15 38.7 547.45 40.3 545.2 41.85 544.85 42.1 544.75 42.35 544.65 42.65 545.05 43.1
L 546.7 44.95
Q 546.95 45.25 547.2 45.35 547.5 45.45 548 45.1 550.85 43.15 552.95 41.1 555 39 556.35 36.45 557.85 38.75 559.95 40.6 562.05 42.45 564.5 43.55 565.2 43.9 565.55 43.2
L 566.95 41
Q 567.4 40.3 566.75 40.05 565.65 39.55 564.45 38.7 563.2 37.85 562.05 36.75 560.85 35.6 559.8 34.25 558.8 32.9 558.15 31.35 558.75 28.6 558.75 25.15 558.75 24.5 558.25 24.5
L 554.7 24.35
M 574.4 48.05
Q 573.75 47.4 571.95 47.4
L 554.35 47.4
Q 552.8 47.4 552.15 48.1 551.45 48.75 551.45 50.3
L 551.45 58.25
Q 551.45 59.85 552.1 60.5 552.75 61.1 554.55 61.1
L 572.15 61.1
Q 573.7 61.1 574.35 60.5 575 59.85 575 58.35
L 575 50.3
Q 575 48.7 574.4 48.05
M 570.45 51.65
L 570.45 56.9
Q 570.45 57.3 570.35 57.35 570.25 57.45 569.95 57.45
L 556.6 57.45
Q 556.25 57.45 556.15 57.35 556.05 57.3 556.05 56.9
L 556.05 51.55
Q 556.05 51.25 556.15 51.15 556.25 51.1 556.6 51.1
L 569.95 51.1
Q 570.25 51.1 570.35 51.2 570.45 51.3 570.45 51.65
M 575 24.3
Q 575 23.75 574.45 23.75
L 570.9 23.75
Q 570.35 23.75 570.35 24.3
L 570.35 44.85
Q 570.35 45.4 570.9 45.4
L 574.45 45.4
Q 575 45.4 575 44.85
L 575 37.35 580.4 37.35
Q 580.6 37.35 580.8 37.2 580.95 37 580.95 36.8
L 580.95 34
Q 580.95 33.8 580.8 33.65 580.6 33.55 580.4 33.55
L 575 33.55 575 24.3
M 538.75 48.1
Q 538.15 47.5 536.65 47.5
L 515.9 47.5
Q 515.7 47.5 515.5 47.6 515.35 47.7 515.35 48
L 515.35 50.85
Q 515.35 51.05 515.5 51.2 515.7 51.3 515.9 51.3
L 533.95 51.3
Q 534.4 51.3 534.55 51.45 534.7 51.55 534.7 52
L 534.7 61.1
Q 534.7 61.3 534.9 61.45 535.1 61.65 535.35 61.65
L 538.75 61.65
Q 538.95 61.65 539.15 61.45 539.35 61.3 539.35 61.1
L 539.35 50.3
Q 539.35 48.75 538.75 48.1
M 528.7 28.45
Q 528.75 28.1 528.75 27.95 528.75 26.7 528.05 26.1 527.35 25.55 525.55 25.55
L 512 25.55
Q 511.45 25.55 511.45 26.1
L 511.45 28.75
Q 511.45 29 511.6 29.2 511.7 29.35 512 29.35
L 522.85 29.35
Q 523.6 29.35 523.6 29.6 523.6 29.85 523.4 30.5 522.3 34.15 518.95 37.15 515.55 40.15 510.65 42.3 510.2 42.5 510.15 42.8 510.1 43.1 510.25 43.45
L 511.3 45.5
Q 511.6 46.3 512.55 45.9 518.9 43.25 522.85 39.4 526.85 35.5 528.35 30 528.4 29.85 528.5 29.6 528.55 29.35 528.6 29.05 528.65 28.7 528.7 28.45
M 539.4 24.3
Q 539.4 23.75 538.8 23.75
L 535.3 23.75
Q 535.1 23.75 534.9 23.9 534.75 24.05 534.75 24.3
L 534.75 44.9
Q 534.75 45.15 534.9 45.3 535.1 45.5 535.3 45.5
L 538.8 45.5
Q 539.4 45.5 539.4 44.95
L 539.4 37.2 544.75 37.2
Q 545 37.2 545.2 37.05 545.35 36.9 545.35 36.7
L 545.35 33.9
Q 545.35 33.7 545.2 33.55 545 33.35 544.75 33.35
L 539.4 33.35 539.4 24.3
M 504.5 48.55
Q 503.95 47.9 502.4 47.9
L 481.7 47.9
Q 481.5 47.9 481.3 48.05 481.1 48.15 481.1 48.4
L 481.1 51.25
Q 481.1 51.45 481.3 51.55 481.5 51.75 481.7 51.75
L 499.75 51.75
Q 500.15 51.75 500.3 51.85 500.45 51.95 500.45 52.4
L 500.45 61.1
Q 500.45 61.3 500.65 61.45 500.8 61.65 501.05 61.65
L 504.5 61.65
Q 504.7 61.65 504.85 61.45 505.05 61.3 505.05 61.1
L 505.05 50.65
Q 505.05 49.15 504.5 48.55
M 489.85 35.8
Q 491.8 33.1 492.8 30.3 493 29.9 493.1 29.45 493.2 28.95 493.3 28.55 493.5 27.2 492.65 26.55 491.75 25.95 490 25.95
L 477.35 25.95
Q 476.8 25.95 476.8 26.45
L 476.8 29.1
Q 476.8 29.75 477.35 29.75
L 487.25 29.75
Q 487.9 29.75 487.9 30.05 487.95 30.3 487.75 30.65 487.15 32.3 485.95 33.95 484.75 35.55 483.1 37.05 481.5 38.55 479.5 39.8 477.5 41.1 475.25 42.1 474.9 42.3 474.8 42.65 474.7 43 474.9 43.35
L 476.05 45.3
Q 476.3 45.7 476.7 45.75 477.1 45.75 477.35 45.6 480.2 44.25 482.7 42.55 485.2 40.85 487.25 38.8 488.1 39.65 489.1 40.45 490.1 41.3 491.1 42 492.1 42.75 493.05 43.35 493.95 43.9 494.7 44.3 495.55 44.7 495.85 44.05
L 497.2 41.85
Q 497.6 41.1 496.8 40.65 496 40.3 495.1 39.8 494.15 39.25 493.25 38.6 492.35 37.95 491.45 37.25 490.6 36.5 489.85 35.8
M 505.05 24.3
Q 505.05 23.75 504.55 23.75
L 500.95 23.75
Q 500.45 23.75 500.45 24.3
L 500.45 45.35
Q 500.45 45.55 500.6 45.75 500.75 45.95 500.95 45.95
L 504.55 45.95
Q 504.75 45.95 504.9 45.75 505.05 45.55 505.05 45.35
L 505.05 24.3
M 1010.7 48.8
Q 1008.5 48.35 1005.9 48.35 1003.15 48.35 1000.95 48.8 998.8 49.3 997.2 50.15 995.65 51.05 994.8 52.25 993.95 53.45 993.95 54.9 993.95 56.4 994.8 57.65 995.65 58.9 997.2 59.75 998.8 60.65 1000.95 61.1 1003.15 61.6 1005.9 61.6 1008.5 61.6 1010.7 61.1 1012.95 60.65 1014.55 59.75 1016.2 58.9 1017.1 57.65 1018 56.4 1018 54.9 1018 53.45 1017.1 52.25 1016.2 51.05 1014.55 50.15 1012.95 49.3 1010.7 48.8
M 1008.75 51.95
Q 1010.05 52.15 1011.05 52.6 1012.05 53 1012.65 53.6 1013.25 54.25 1013.25 55.05 1013.25 55.85 1012.65 56.4 1012.05 56.95 1011.05 57.35 1010.05 57.75 1008.75 57.95 1007.4 58.1 1005.9 58.1 1004.35 58.1 1003.05 57.95 1001.75 57.75 1000.75 57.35 999.75 56.95 999.25 56.4 998.7 55.85 998.7 55.05 998.7 54.25 999.25 53.6 999.75 53 1000.75 52.6 1001.7 52.15 1003 51.95 1004.3 51.75 1005.9 51.75 1007.4 51.75 1008.75 51.95
M 990.4 37.75
Q 989.75 38.9 989.75 40.4 989.75 41.9 990.4 43.15 991.05 44.4 992.2 45.3 993.35 46.2 994.85 46.7 996.4 47.2 998.2 47.2 1000.05 47.2 1001.6 46.75 1003.15 46.25 1004.3 45.4 1005.5 44.5 1006.15 43.3 1006.8 42.1 1006.8 40.6 1006.8 39.1 1006.15 37.9 1005.5 36.75 1004.35 35.85 1003.2 35 1001.65 34.55 1000.05 34.05 998.25 34.05 996.45 34.05 994.9 34.5 993.35 34.95 992.2 35.75 991.05 36.6 990.4 37.75
M 998.25 37.6
Q 1000.15 37.6 1001.3 38.4 1002.45 39.2 1002.45 40.6 1002.45 42 1001.3 42.9 1000.15 43.75 998.25 43.75 996.35 43.75 995.2 42.9 994.05 42 994.05 40.6 994.05 39.2 995.2 38.4 996.35 37.6 998.25 37.6
M 987.65 29.25
Q 987.45 29.25 987.2 29.45 987 29.7 987 29.85
L 987 32.1
Q 987 32.35 987.2 32.55 987.4 32.75 987.6 32.75
L 1008.5 32.75
Q 1008.75 32.75 1008.9 32.6 1009.1 32.4 1009.1 32.15
L 1009.1 29.85
Q 1009.1 29.65 1008.9 29.45 1008.75 29.25 1008.5 29.25
L 987.65 29.25
M 992.7 24.3
Q 992.5 24.45 992.5 24.7
L 992.5 27
Q 992.5 27.3 992.7 27.45 992.95 27.65 993.1 27.65
L 1003.3 27.65
Q 1003.6 27.65 1003.8 27.4 1003.95 27.2 1003.95 26.95
L 1003.95 24.75
Q 1003.95 24.5 1003.8 24.35 1003.55 24.1 1003.3 24.1
L 993.1 24.1
Q 992.95 24.1 992.7 24.3
M 1013.8 23.7
Q 1013.25 23.7 1013.25 24.25
L 1013.25 34.5 1008.5 34.5
Q 1008.35 34.5 1008.15 34.6 1008 34.75 1008 34.95
L 1008 37.7
Q 1008 37.9 1008.15 38 1008.35 38.15 1008.5 38.15
L 1013.25 38.15 1013.25 40.85 1008.5 40.85
Q 1008.35 40.85 1008.15 41 1008 41.1 1008 41.3
L 1008 44.05
Q 1008 44.25 1008.15 44.4 1008.35 44.5 1008.5 44.5
L 1013.25 44.5 1013.25 47.3
Q 1013.25 47.55 1013.4 47.7 1013.55 47.9 1013.8 47.9
L 1017.35 47.9
Q 1017.55 47.9 1017.7 47.7 1017.9 47.55 1017.9 47.3
L 1017.9 24.25
Q 1017.9 24.05 1017.7 23.9 1017.55 23.7 1017.35 23.7
L 1013.8 23.7
M 951.35 42.8
Q 951.3 43.1 951.45 43.45
L 952.5 45.5
Q 952.8 46.3 953.75 45.9 960.1 43.25 964.05 39.4 968.05 35.5 969.55 30 969.6 29.85 969.7 29.6 969.75 29.35 969.8 29.05 969.85 28.7 969.9 28.45 969.95 28.1 969.95 27.95 969.95 26.7 969.25 26.1 968.55 25.55 966.75 25.55
L 953.2 25.55
Q 952.65 25.55 952.65 26.1
L 952.65 28.75
Q 952.65 29 952.8 29.2 952.9 29.35 953.2 29.35
L 964.05 29.35
Q 964.8 29.35 964.8 29.6 964.8 29.85 964.6 30.5 963.5 34.15 960.15 37.15 956.75 40.15 951.85 42.3 951.4 42.5 951.35 42.8
M 979.95 48.1
Q 979.35 47.5 977.85 47.5
L 957.1 47.5
Q 956.9 47.5 956.7 47.6 956.55 47.7 956.55 48
L 956.55 50.85
Q 956.55 51.05 956.7 51.2 956.9 51.3 957.1 51.3
L 975.15 51.3
Q 975.6 51.3 975.75 51.45 975.9 51.55 975.9 52
L 975.9 61.1
Q 975.9 61.3 976.1 61.45 976.3 61.65 976.55 61.65
L 979.95 61.65
Q 980.15 61.65 980.35 61.45 980.55 61.3 980.55 61.1
L 980.55 50.3
Q 980.55 48.75 979.95 48.1
M 980.6 24.3
Q 980.6 23.75 980 23.75
L 976.5 23.75
Q 976.3 23.75 976.1 23.9 975.95 24.05 975.95 24.3
L 975.95 44.9
Q 975.95 45.15 976.1 45.3 976.3 45.5 976.5 45.5
L 980 45.5
Q 980.6 45.5 980.6 44.95
L 980.6 37.2 985.95 37.2
Q 986.2 37.2 986.4 37.05 986.55 36.9 986.55 36.7
L 986.55 33.9
Q 986.55 33.7 986.4 33.55 986.2 33.35 985.95 33.35
L 980.6 33.35 980.6 24.3
M 944.4 48.05
Q 943.75 47.4 941.95 47.4
L 924.35 47.4
Q 922.8 47.4 922.15 48.1 921.45 48.75 921.45 50.3
L 921.45 58.25
Q 921.45 59.85 922.1 60.5 922.75 61.1 924.55 61.1
L 942.15 61.1
Q 943.7 61.1 944.35 60.5 945 59.85 945 58.35
L 945 50.3
Q 945 48.7 944.4 48.05
M 926.6 57.45
Q 926.25 57.45 926.15 57.35 926.05 57.3 926.05 56.9
L 926.05 51.55
Q 926.05 51.25 926.15 51.15 926.25 51.1 926.6 51.1
L 939.95 51.1
Q 940.25 51.1 940.35 51.2 940.45 51.3 940.45 51.65
L 940.45 56.9
Q 940.45 57.3 940.35 57.35 940.25 57.45 939.95 57.45
L 926.6 57.45
M 934.5 43.55
Q 935.2 43.9 935.55 43.2
L 936.95 41
Q 937.4 40.3 936.75 40.05 935.65 39.55 934.45 38.7 933.2 37.85 932.05 36.75 930.85 35.6 929.8 34.25 928.8 32.9 928.15 31.35 928.75 28.6 928.75 25.15 928.75 24.5 928.25 24.5
L 924.7 24.35
Q 924.55 24.35 924.35 24.55 924.15 24.75 924.15 25.05 924.15 28.25 923.55 30.7 923 33.15 921.9 35.15 920.8 37.1 919.15 38.7 917.45 40.3 915.2 41.85 914.85 42.1 914.75 42.35 914.65 42.65 915.05 43.1
L 916.7 44.95
Q 916.95 45.25 917.2 45.35 917.5 45.45 918 45.1 920.85 43.15 922.95 41.1 925 39 926.35 36.45 927.85 38.75 929.95 40.6 932.05 42.45 934.5 43.55
M 945 24.3
Q 945 23.75 944.45 23.75
L 940.9 23.75
Q 940.35 23.75 940.35 24.3
L 940.35 44.85
Q 940.35 45.4 940.9 45.4
L 944.45 45.4
Q 945 45.4 945 44.85
L 945 37.35 950.4 37.35
Q 950.6 37.35 950.8 37.2 950.95 37 950.95 36.8
L 950.95 34
Q 950.95 33.8 950.8 33.65 950.6 33.55 950.4 33.55
L 945 33.55 945 24.3
M 908.75 48.1
Q 908.15 47.5 906.65 47.5
L 885.9 47.5
Q 885.7 47.5 885.5 47.6 885.35 47.7 885.35 48
L 885.35 50.85
Q 885.35 51.05 885.5 51.2 885.7 51.3 885.9 51.3
L 903.95 51.3
Q 904.4 51.3 904.55 51.45 904.7 51.55 904.7 52
L 904.7 61.1
Q 904.7 61.3 904.9 61.45 905.1 61.65 905.35 61.65
L 908.75 61.65
Q 908.95 61.65 909.15 61.45 909.35 61.3 909.35 61.1
L 909.35 50.3
Q 909.35 48.75 908.75 48.1
M 898.35 30
Q 898.4 29.85 898.5 29.6 898.55 29.35 898.6 29.05 898.65 28.7 898.7 28.45 898.75 28.1 898.75 27.95 898.75 26.7 898.05 26.1 897.35 25.55 895.55 25.55
L 882 25.55
Q 881.45 25.55 881.45 26.1
L 881.45 28.75
Q 881.45 29 881.6 29.2 881.7 29.35 882 29.35
L 892.85 29.35
Q 893.6 29.35 893.6 29.6 893.6 29.85 893.4 30.5 892.3 34.15 888.95 37.15 885.55 40.15 880.65 42.3 880.2 42.5 880.15 42.8 880.1 43.1 880.25 43.45
L 881.3 45.5
Q 881.6 46.3 882.55 45.9 888.9 43.25 892.85 39.4 896.85 35.5 898.35 30
M 909.4 24.3
Q 909.4 23.75 908.8 23.75
L 905.3 23.75
Q 905.1 23.75 904.9 23.9 904.75 24.05 904.75 24.3
L 904.75 44.9
Q 904.75 45.15 904.9 45.3 905.1 45.5 905.3 45.5
L 908.8 45.5
Q 909.4 45.5 909.4 44.95
L 909.4 37.2 914.75 37.2
Q 915 37.2 915.2 37.05 915.35 36.9 915.35 36.7
L 915.35 33.9
Q 915.35 33.7 915.2 33.55 915 33.35 914.75 33.35
L 909.4 33.35 909.4 24.3
M 879.2 42.7
Q 879.2 42.55 879 42.3 878.8 42.1 878.6 42.1
L 843.8 42.1
Q 843.5 42.1 843.35 42.3 843.2 42.5 843.2 42.7
L 843.2 45.3
Q 843.2 45.5 843.35 45.75 843.5 45.95 843.8 45.95
L 859.2 45.95 859.2 53.1
Q 859.2 53.65 859.75 53.65
L 863.25 53.65
Q 863.8 53.65 863.8 53.1
L 863.8 45.95 878.6 45.95
Q 878.8 45.95 879 45.75 879.2 45.5 879.2 45.3
L 879.2 42.7
M 853 49.2
Q 852.8 49 852.55 49
L 849.15 49
Q 848.95 49 848.75 49.2 848.55 49.35 848.55 49.55
L 848.55 57.9
Q 848.55 59.45 849.2 60.1 849.8 60.75 851.6 60.75
L 874.25 60.75
Q 874.5 60.75 874.7 60.65 874.85 60.5 874.85 60.3
L 874.85 57.4
Q 874.85 57.2 874.65 57.05 874.45 56.9 874.25 56.9
L 853.9 56.9
Q 853.5 56.9 853.35 56.8 853.15 56.7 853.15 56.3
L 853.15 49.55
Q 853.15 49.35 853 49.2
M 854.4 34.8
Q 853.95 34.8 853.8 34.6 853.65 34.45 853.65 34.1
L 853.65 29.35
Q 853.65 28.7 854.4 28.7
L 872.95 28.7
Q 873.5 28.7 873.5 28.15
L 873.5 25.4
Q 873.5 24.85 872.95 24.85
L 851.9 24.85
Q 850.4 24.85 849.7 25.4 849 25.95 849 27.5
L 849 35.75
Q 849 37.15 849.65 37.9 850.3 38.6 851.9 38.6
L 873.3 38.6
Q 873.5 38.6 873.6 38.45 873.8 38.35 873.8 38
L 873.8 35.3
Q 873.8 34.95 873.6 34.85 873.45 34.8 873.15 34.8
L 854.4 34.8 Z"/>
</g>

<path id="Layer0_0_1_STROKES" stroke="#86BA9E" stroke-width="3" stroke-linejoin="round" stroke-linecap="round" fill="none" d="
M 1.5 81.6
L 1.5 41.55 1.5 38 1.5 21.5
Q 1.5 14.15 4.2 9.5 8.85 1.5 21.5 1.5
L 374.55 1.5 561.55 1.5 639.6 1.5 724.55 1.5 741.55 1.5 747.55 1.5 796.55 1.5 830.95 1.5 874.55 1.5 981.55 1.5 1005.95 1.5 1101.65 1.5
Q 1121.65 1.5 1121.65 21.5
L 1121.65 81.6 1121.65 101.6 1121.6 163.8
Q 1120.45 181.6 1101.65 181.6
L 1005.95 181.6 981.55 181.6 874.55 181.6 830.95 181.6 796.55 181.6 747.55 181.6 741.55 181.6 724.55 181.6 639.6 181.6 630.6 181.6 601.55 181.6 574.55 181.6 572.55 181.6 561.55 181.6 524.55 181.6 480.6 181.6 448.55 181.6 421.55 181.6 381.55 181.6 374.55 181.6 219.55 181.6 35.55 181.6 21.5 181.6
Q 2.65 181.6 1.6 163.8
L 1.5 101.6 1.5 81.6 Z"/>

<path id="Layer0_0_2_STROKES" stroke="#86BA9E" stroke-width="2" stroke-linejoin="round" stroke-linecap="round" fill="none" d="
M 1.5 81.6
L 374.55 81.6 374.55 1.5
M 747.55 1.5
L 747.55 81.6 1121.65 81.6
M 747.55 81.6
L 747.55 181.6
M 374.55 181.6
L 374.55 81.6 561.55 81.6 747.55 81.6"/>
</defs>

<g transform="matrix( 1, 0, 0, 1, 0,0) ">
<use xlink:href="#Layer0_0_FILL"/>

<use xlink:href="#Layer0_0_1_STROKES"/>

<use xlink:href="#Layer0_0_2_STROKES"/>
</g>
</svg>
