
<svg xmlns="http://www.w3.org/2000/svg" version="1.1" xmlns:xlink="http://www.w3.org/1999/xlink" preserveAspectRatio="none" x="0px" y="0px" width="1280px" height="720px" viewBox="0 0 1280 720">
<defs>
<g id="Layer1_0_FILL">
<path fill="#4BAEF3" stroke="none" d="
M 94.7 293.45
Q 94.7 282.95 84.2 282.95
L 60.4 282.95
Q 49.9 282.95 49.9 293.45
L 49.9 313.45
Q 49.9 323.95 60.4 323.95
L 84.2 323.95
Q 94.7 323.95 94.7 313.45
L 94.7 293.45
M 69.6 294.75
Q 70 295 70.4 295.35 70.8 295.7 71.1 296.1 71.25 296.3 71.35 296.55 71.5 296.8 71.6 297.05
L 73.85 297.05 73.85 294.35
Q 73.85 293.7 74.25 293.5 74.45 293.4 74.7 293.35 74.9 293.25 75.15 293.25 75.45 293.25 75.7 293.35 76 293.4 76.2 293.5 76.6 293.7 76.6 294.35
L 76.6 311.35
Q 76.6 311.6 76.5 311.85 76.4 312.05 76.2 312.2 76 312.3 75.7 312.4 75.45 312.45 75.15 312.45 74.9 312.45 74.7 312.4 74.45 312.3 74.25 312.2 74.05 312.05 73.95 311.85 73.85 311.6 73.85 311.35
L 73.85 304.8 71.7 304.8
Q 71.55 305.1 71.4 305.4 71.25 305.65 71.1 305.9 70.45 306.75 69.6 307.2 68.75 307.7 67.65 307.7 67.15 307.7 66.7 307.55 66.2 307.45 65.75 307.2 65.35 307 65 306.65 64.65 306.35 64.35 305.9 64.05 305.45 63.8 304.95 63.55 304.45 63.4 303.8 63.2 303.2 63.15 302.5 63.05 301.8 63.05 301 63.05 300.2 63.15 299.5 63.2 298.8 63.4 298.15 63.55 297.55 63.8 297.05 64.05 296.55 64.35 296.1 64.65 295.7 65 295.35 65.35 295 65.75 294.75 66.2 294.55 66.7 294.4 67.15 294.3 67.65 294.3 68.75 294.3 69.6 294.75
M 78.65 292.85
Q 78.95 292.85 79.25 292.95 79.5 293 79.7 293.1 79.9 293.25 80 293.45 80.1 293.65 80.1 293.95
L 80.1 311.95
Q 80.1 312.55 79.7 312.8 79.5 312.9 79.25 312.95 78.95 313 78.65 313 78.4 313 78.2 312.95 77.95 312.9 77.8 312.8 77.4 312.55 77.4 311.95
L 77.4 293.95
Q 77.4 293.65 77.5 293.45 77.6 293.25 77.8 293.1 77.95 293 78.2 292.95 78.4 292.85 78.65 292.85
M 69.45 302.7
Q 69.6 301.95 69.6 301 69.6 300.05 69.45 299.25 69.35 298.5 69.1 297.95 68.8 297.45 68.45 297.15 68.1 296.9 67.7 296.9 67.25 296.9 66.85 297.15 66.5 297.45 66.25 297.95 65.75 299.05 65.75 301 65.75 301.95 65.85 302.7 66 303.45 66.25 304 66.5 304.55 66.85 304.8 67.25 305.1 67.7 305.1 68.1 305.1 68.45 304.8 68.8 304.55 69.1 304 69.35 303.45 69.45 302.7
M 72.3 301
Q 72.3 301.3 72.3 301.6 72.3 301.9 72.25 302.2
L 73.85 302.2 73.85 299.6 72.25 299.6
Q 72.25 299.95 72.3 300.3 72.3 300.65 72.3 301 Z"/>

<path fill="#FFFFFF" stroke="none" d="
M 79.25 292.95
Q 78.95 292.85 78.65 292.85 78.4 292.85 78.2 292.95 77.95 293 77.8 293.1 77.6 293.25 77.5 293.45 77.4 293.65 77.4 293.95
L 77.4 311.95
Q 77.4 312.55 77.8 312.8 77.95 312.9 78.2 312.95 78.4 313 78.65 313 78.95 313 79.25 312.95 79.5 312.9 79.7 312.8 80.1 312.55 80.1 311.95
L 80.1 293.95
Q 80.1 293.65 80 293.45 79.9 293.25 79.7 293.1 79.5 293 79.25 292.95
M 70.4 295.35
Q 70 295 69.6 294.75 68.75 294.3 67.65 294.3 67.15 294.3 66.7 294.4 66.2 294.55 65.75 294.75 65.35 295 65 295.35 64.65 295.7 64.35 296.1 64.05 296.55 63.8 297.05 63.55 297.55 63.4 298.15 63.2 298.8 63.15 299.5 63.05 300.2 63.05 301 63.05 301.8 63.15 302.5 63.2 303.2 63.4 303.8 63.55 304.45 63.8 304.95 64.05 305.45 64.35 305.9 64.65 306.35 65 306.65 65.35 307 65.75 307.2 66.2 307.45 66.7 307.55 67.15 307.7 67.65 307.7 68.75 307.7 69.6 307.2 70.45 306.75 71.1 305.9 71.25 305.65 71.4 305.4 71.55 305.1 71.7 304.8
L 73.85 304.8 73.85 311.35
Q 73.85 311.6 73.95 311.85 74.05 312.05 74.25 312.2 74.45 312.3 74.7 312.4 74.9 312.45 75.15 312.45 75.45 312.45 75.7 312.4 76 312.3 76.2 312.2 76.4 312.05 76.5 311.85 76.6 311.6 76.6 311.35
L 76.6 294.35
Q 76.6 293.7 76.2 293.5 76 293.4 75.7 293.35 75.45 293.25 75.15 293.25 74.9 293.25 74.7 293.35 74.45 293.4 74.25 293.5 73.85 293.7 73.85 294.35
L 73.85 297.05 71.6 297.05
Q 71.5 296.8 71.35 296.55 71.25 296.3 71.1 296.1 70.8 295.7 70.4 295.35
M 72.3 301.6
Q 72.3 301.3 72.3 301 72.3 300.65 72.3 300.3 72.25 299.95 72.25 299.6
L 73.85 299.6 73.85 302.2 72.25 302.2
Q 72.3 301.9 72.3 301.6
M 69.6 301
Q 69.6 301.95 69.45 302.7 69.35 303.45 69.1 304 68.8 304.55 68.45 304.8 68.1 305.1 67.7 305.1 67.25 305.1 66.85 304.8 66.5 304.55 66.25 304 66 303.45 65.85 302.7 65.75 301.95 65.75 301 65.75 299.05 66.25 297.95 66.5 297.45 66.85 297.15 67.25 296.9 67.7 296.9 68.1 296.9 68.45 297.15 68.8 297.45 69.1 297.95 69.35 298.5 69.45 299.25 69.6 300.05 69.6 301 Z"/>

<path fill="#A1D9F7" stroke="none" d="
M 448.15 493.75
L 448.15 396.9 334.2 396.9 334.2 493.75 334.2 510.85 448.15 510.85 448.15 493.75
M 562.1 493.75
L 562.1 396.9 448.15 396.9 448.15 493.75 448.15 510.85 562.1 510.85 562.1 493.75
M 220.25 493.75
L 220.25 396.9 123.35 396.9 106.3 396.9 106.3 510.85 220.25 510.85 220.25 493.75
M 220.25 396.9
L 220.25 493.75 220.25 510.85 334.2 510.85 334.2 493.75 334.2 396.9 220.25 396.9 Z"/>

<path fill="#D4EDFB" stroke="none" d="
M 220.25 300
L 220.25 282.95 106.3 282.95 106.3 396.9 123.35 396.9 220.25 396.9 220.25 300
M 448.15 282.95
L 448.15 300 448.15 396.9 562.1 396.9 562.1 300 562.1 282.95 448.15 282.95
M 334.2 282.95
L 334.2 300 334.2 396.9 448.15 396.9 448.15 300 448.15 282.95 334.2 282.95
M 334.2 300
L 334.2 282.95 220.25 282.95 220.25 300 220.25 396.9 334.2 396.9 334.2 300
M 676.1 282.95
L 676.1 300 676.1 396.9 772.95 396.9 790.05 396.9 790.05 282.95 676.1 282.95
M 676.1 300
L 676.1 282.95 562.1 282.95 562.1 300 562.1 396.9 676.1 396.9 676.1 300 Z"/>
</g>

<g id="Layer1_0_STROKES_1_FILL">
<path fill="#3567D7" stroke="none" d="
M 333.2 490.9
Q 333.203515625 491.3107421875 333.5 491.6 333.7892578125 491.896484375 334.2 491.9 334.6107421875 491.896484375 334.9 491.6 335.196484375 491.3107421875 335.2 490.9
L 335.2 487.9
Q 335.196484375 487.4892578125 334.9 487.2 334.6107421875 486.903515625 334.2 486.9 333.7892578125 486.903515625 333.5 487.2 333.203515625 487.4892578125 333.2 487.9
L 333.2 490.9
M 334.9 477.6
Q 335.196484375 477.3107421875 335.2 476.9
L 335.2 473.9
Q 335.196484375 473.4892578125 334.9 473.2 334.6107421875 472.903515625 334.2 472.9 333.7892578125 472.903515625 333.5 473.2 333.203515625 473.4892578125 333.2 473.9
L 333.2 476.9
Q 333.203515625 477.3107421875 333.5 477.6 333.7892578125 477.896484375 334.2 477.9 334.6107421875 477.896484375 334.9 477.6
M 335.2 480.9
Q 335.196484375 480.4892578125 334.9 480.2 334.6107421875 479.903515625 334.2 479.9 333.7892578125 479.903515625 333.5 480.2 333.203515625 480.4892578125 333.2 480.9
L 333.2 483.9
Q 333.203515625 484.3107421875 333.5 484.6 333.7892578125 484.896484375 334.2 484.9 334.6107421875 484.896484375 334.9 484.6 335.196484375 484.3107421875 335.2 483.9
L 335.2 480.9
M 333.2 466.9
L 333.2 469.9
Q 333.203515625 470.3107421875 333.5 470.6 333.7892578125 470.896484375 334.2 470.9 334.6107421875 470.896484375 334.9 470.6 335.196484375 470.3107421875 335.2 469.9
L 335.2 466.9
Q 335.196484375 466.4892578125 334.9 466.2 334.6107421875 465.903515625 334.2 465.9 333.7892578125 465.903515625 333.5 466.2 333.203515625 466.4892578125 333.2 466.9
M 333.2 462.9
Q 333.203515625 463.3107421875 333.5 463.6 333.7892578125 463.896484375 334.2 463.9 334.6107421875 463.896484375 334.9 463.6 335.196484375 463.3107421875 335.2 462.9
L 335.2 459.9
Q 335.196484375 459.4892578125 334.9 459.2 334.6107421875 458.903515625 334.2 458.9 333.7892578125 458.903515625 333.5 459.2 333.203515625 459.4892578125 333.2 459.9
L 333.2 462.9
M 334.9 456.6
Q 335.196484375 456.3107421875 335.2 455.9
L 335.2 452.9
Q 335.196484375 452.4892578125 334.9 452.2 334.6107421875 451.903515625 334.2 451.9 333.7892578125 451.903515625 333.5 452.2 333.203515625 452.4892578125 333.2 452.9
L 333.2 455.9
Q 333.203515625 456.3107421875 333.5 456.6 333.7892578125 456.896484375 334.2 456.9 334.6107421875 456.896484375 334.9 456.6
M 334.9 445.2
Q 334.6107421875 444.903515625 334.2 444.9 333.7892578125 444.903515625 333.5 445.2 333.203515625 445.4892578125 333.2 445.9
L 333.2 448.9
Q 333.203515625 449.3107421875 333.5 449.6 333.7892578125 449.896484375 334.2 449.9 334.6107421875 449.896484375 334.9 449.6 335.196484375 449.3107421875 335.2 448.9
L 335.2 445.9
Q 335.196484375 445.4892578125 334.9 445.2
M 333.2 441.9
Q 333.203515625 442.3107421875 333.5 442.6 333.7892578125 442.896484375 334.2 442.9 334.6107421875 442.896484375 334.9 442.6 335.196484375 442.3107421875 335.2 441.9
L 335.2 438.9
Q 335.196484375 438.4892578125 334.9 438.2 334.6107421875 437.903515625 334.2 437.9 333.7892578125 437.903515625 333.5 438.2 333.203515625 438.4892578125 333.2 438.9
L 333.2 441.9
M 335.2 431.9
Q 335.196484375 431.4892578125 334.9 431.2 334.6107421875 430.903515625 334.2 430.9 333.7892578125 430.903515625 333.5 431.2 333.203515625 431.4892578125 333.2 431.9
L 333.2 434.9
Q 333.203515625 435.3107421875 333.5 435.6 333.7892578125 435.896484375 334.2 435.9 334.6107421875 435.896484375 334.9 435.6 335.196484375 435.3107421875 335.2 434.9
L 335.2 431.9
M 334.9 424.2
Q 334.6107421875 423.903515625 334.2 423.9 333.7892578125 423.903515625 333.5 424.2 333.203515625 424.4892578125 333.2 424.9
L 333.2 427.9
Q 333.203515625 428.3107421875 333.5 428.6 333.7892578125 428.896484375 334.2 428.9 334.6107421875 428.896484375 334.9 428.6 335.196484375 428.3107421875 335.2 427.9
L 335.2 424.9
Q 335.196484375 424.4892578125 334.9 424.2
M 333.5 417.2
Q 333.203515625 417.4892578125 333.2 417.9
L 333.2 420.9
Q 333.203515625 421.3107421875 333.5 421.6 333.7892578125 421.896484375 334.2 421.9 334.6107421875 421.896484375 334.9 421.6 335.196484375 421.3107421875 335.2 420.9
L 335.2 417.9
Q 335.196484375 417.4892578125 334.9 417.2 334.6107421875 416.903515625 334.2 416.9 333.7892578125 416.903515625 333.5 417.2
M 333.2 413.9
Q 333.203515625 414.3107421875 333.5 414.6 333.7892578125 414.896484375 334.2 414.9 334.6107421875 414.896484375 334.9 414.6 335.196484375 414.3107421875 335.2 413.9
L 335.2 410.9
Q 335.196484375 410.4892578125 334.9 410.2 334.6107421875 409.903515625 334.2 409.9 333.7892578125 409.903515625 333.5 410.2 333.203515625 410.4892578125 333.2 410.9
L 333.2 413.9
M 335.2 406.9
L 335.2 403.9
Q 335.196484375 403.4892578125 334.9 403.2 334.6107421875 402.903515625 334.2 402.9 333.7892578125 402.903515625 333.5 403.2 333.203515625 403.4892578125 333.2 403.9
L 333.2 406.9
Q 333.203515625 407.3107421875 333.5 407.6 333.7892578125 407.896484375 334.2 407.9 334.6107421875 407.896484375 334.9 407.6 335.196484375 407.3107421875 335.2 406.9
M 449.15 487.9
Q 449.146484375 487.4892578125 448.85 487.2 448.5607421875 486.903515625 448.15 486.9 447.7392578125 486.903515625 447.45 487.2 447.153515625 487.4892578125 447.15 487.9
L 447.15 490.9
Q 447.153515625 491.3107421875 447.45 491.6 447.7392578125 491.896484375 448.15 491.9 448.5607421875 491.896484375 448.85 491.6 449.146484375 491.3107421875 449.15 490.9
L 449.15 487.9
M 447.45 480.2
Q 447.153515625 480.4892578125 447.15 480.9
L 447.15 483.9
Q 447.153515625 484.3107421875 447.45 484.6 447.7392578125 484.896484375 448.15 484.9 448.5607421875 484.896484375 448.85 484.6 449.146484375 484.3107421875 449.15 483.9
L 449.15 480.9
Q 449.146484375 480.4892578125 448.85 480.2 448.5607421875 479.903515625 448.15 479.9 447.7392578125 479.903515625 447.45 480.2
M 449.15 473.9
Q 449.146484375 473.4892578125 448.85 473.2 448.5607421875 472.903515625 448.15 472.9 447.7392578125 472.903515625 447.45 473.2 447.153515625 473.4892578125 447.15 473.9
L 447.15 476.9
Q 447.153515625 477.3107421875 447.45 477.6 447.7392578125 477.896484375 448.15 477.9 448.5607421875 477.896484375 448.85 477.6 449.146484375 477.3107421875 449.15 476.9
L 449.15 473.9
M 449.15 469.9
L 449.15 466.9
Q 449.146484375 466.4892578125 448.85 466.2 448.5607421875 465.903515625 448.15 465.9 447.7392578125 465.903515625 447.45 466.2 447.153515625 466.4892578125 447.15 466.9
L 447.15 469.9
Q 447.153515625 470.3107421875 447.45 470.6 447.7392578125 470.896484375 448.15 470.9 448.5607421875 470.896484375 448.85 470.6 449.146484375 470.3107421875 449.15 469.9
M 448.85 459.2
Q 448.5607421875 458.903515625 448.15 458.9 447.7392578125 458.903515625 447.45 459.2 447.153515625 459.4892578125 447.15 459.9
L 447.15 462.9
Q 447.153515625 463.3107421875 447.45 463.6 447.7392578125 463.896484375 448.15 463.9 448.5607421875 463.896484375 448.85 463.6 449.146484375 463.3107421875 449.15 462.9
L 449.15 459.9
Q 449.146484375 459.4892578125 448.85 459.2
M 448.85 452.2
Q 448.5607421875 451.903515625 448.15 451.9 447.7392578125 451.903515625 447.45 452.2 447.153515625 452.4892578125 447.15 452.9
L 447.15 455.9
Q 447.153515625 456.3107421875 447.45 456.6 447.7392578125 456.896484375 448.15 456.9 448.5607421875 456.896484375 448.85 456.6 449.146484375 456.3107421875 449.15 455.9
L 449.15 452.9
Q 449.146484375 452.4892578125 448.85 452.2
M 448.15 444.9
Q 447.7392578125 444.903515625 447.45 445.2 447.153515625 445.4892578125 447.15 445.9
L 447.15 448.9
Q 447.153515625 449.3107421875 447.45 449.6 447.7392578125 449.896484375 448.15 449.9 448.5607421875 449.896484375 448.85 449.6 449.146484375 449.3107421875 449.15 448.9
L 449.15 445.9
Q 449.146484375 445.4892578125 448.85 445.2 448.5607421875 444.903515625 448.15 444.9
M 449.15 438.9
Q 449.146484375 438.4892578125 448.85 438.2 448.5607421875 437.903515625 448.15 437.9 447.7392578125 437.903515625 447.45 438.2 447.153515625 438.4892578125 447.15 438.9
L 447.15 441.9
Q 447.153515625 442.3107421875 447.45 442.6 447.7392578125 442.896484375 448.15 442.9 448.5607421875 442.896484375 448.85 442.6 449.146484375 442.3107421875 449.15 441.9
L 449.15 438.9
M 447.45 431.2
Q 447.153515625 431.4892578125 447.15 431.9
L 447.15 434.9
Q 447.153515625 435.3107421875 447.45 435.6 447.7392578125 435.896484375 448.15 435.9 448.5607421875 435.896484375 448.85 435.6 449.146484375 435.3107421875 449.15 434.9
L 449.15 431.9
Q 449.146484375 431.4892578125 448.85 431.2 448.5607421875 430.903515625 448.15 430.9 447.7392578125 430.903515625 447.45 431.2
M 449.15 424.9
Q 449.146484375 424.4892578125 448.85 424.2 448.5607421875 423.903515625 448.15 423.9 447.7392578125 423.903515625 447.45 424.2 447.153515625 424.4892578125 447.15 424.9
L 447.15 427.9
Q 447.153515625 428.3107421875 447.45 428.6 447.7392578125 428.896484375 448.15 428.9 448.5607421875 428.896484375 448.85 428.6 449.146484375 428.3107421875 449.15 427.9
L 449.15 424.9
M 449.15 417.9
Q 449.146484375 417.4892578125 448.85 417.2 448.5607421875 416.903515625 448.15 416.9 447.7392578125 416.903515625 447.45 417.2 447.153515625 417.4892578125 447.15 417.9
L 447.15 420.9
Q 447.153515625 421.3107421875 447.45 421.6 447.7392578125 421.896484375 448.15 421.9 448.5607421875 421.896484375 448.85 421.6 449.146484375 421.3107421875 449.15 420.9
L 449.15 417.9
M 449.15 413.9
L 449.15 410.9
Q 449.146484375 410.4892578125 448.85 410.2 448.5607421875 409.903515625 448.15 409.9 447.7392578125 409.903515625 447.45 410.2 447.153515625 410.4892578125 447.15 410.9
L 447.15 413.9
Q 447.153515625 414.3107421875 447.45 414.6 447.7392578125 414.896484375 448.15 414.9 448.5607421875 414.896484375 448.85 414.6 449.146484375 414.3107421875 449.15 413.9
M 448.85 403.2
Q 448.5607421875 402.903515625 448.15 402.9 447.7392578125 402.903515625 447.45 403.2 447.153515625 403.4892578125 447.15 403.9
L 447.15 406.9
Q 447.153515625 407.3107421875 447.45 407.6 447.7392578125 407.896484375 448.15 407.9 448.5607421875 407.896484375 448.85 407.6 449.146484375 407.3107421875 449.15 406.9
L 449.15 403.9
Q 449.146484375 403.4892578125 448.85 403.2
M 563.1 487.9
Q 563.096484375 487.4892578125 562.8 487.2 562.5107421875 486.903515625 562.1 486.9 561.6892578125 486.903515625 561.4 487.2 561.103515625 487.4892578125 561.1 487.9
L 561.1 490.9
Q 561.103515625 491.3107421875 561.4 491.6 561.6892578125 491.896484375 562.1 491.9 562.5107421875 491.896484375 562.8 491.6 563.096484375 491.3107421875 563.1 490.9
L 563.1 487.9
M 561.4 480.2
Q 561.103515625 480.4892578125 561.1 480.9
L 561.1 483.9
Q 561.103515625 484.3107421875 561.4 484.6 561.6892578125 484.896484375 562.1 484.9 562.5107421875 484.896484375 562.8 484.6 563.096484375 484.3107421875 563.1 483.9
L 563.1 480.9
Q 563.096484375 480.4892578125 562.8 480.2 562.5107421875 479.903515625 562.1 479.9 561.6892578125 479.903515625 561.4 480.2
M 563.1 473.9
Q 563.096484375 473.4892578125 562.8 473.2 562.5107421875 472.903515625 562.1 472.9 561.6892578125 472.903515625 561.4 473.2 561.103515625 473.4892578125 561.1 473.9
L 561.1 476.9
Q 561.103515625 477.3107421875 561.4 477.6 561.6892578125 477.896484375 562.1 477.9 562.5107421875 477.896484375 562.8 477.6 563.096484375 477.3107421875 563.1 476.9
L 563.1 473.9
M 561.1 466.9
L 561.1 469.9
Q 561.103515625 470.3107421875 561.4 470.6 561.6892578125 470.896484375 562.1 470.9 562.5107421875 470.896484375 562.8 470.6 563.096484375 470.3107421875 563.1 469.9
L 563.1 466.9
Q 563.096484375 466.4892578125 562.8 466.2 562.5107421875 465.903515625 562.1 465.9 561.6892578125 465.903515625 561.4 466.2 561.103515625 466.4892578125 561.1 466.9
M 562.8 463.6
Q 563.096484375 463.3107421875 563.1 462.9
L 563.1 459.9
Q 563.096484375 459.4892578125 562.8 459.2 562.5107421875 458.903515625 562.1 458.9 561.6892578125 458.903515625 561.4 459.2 561.103515625 459.4892578125 561.1 459.9
L 561.1 462.9
Q 561.103515625 463.3107421875 561.4 463.6 561.6892578125 463.896484375 562.1 463.9 562.5107421875 463.896484375 562.8 463.6
M 561.1 452.9
L 561.1 455.9
Q 561.103515625 456.3107421875 561.4 456.6 561.6892578125 456.896484375 562.1 456.9 562.5107421875 456.896484375 562.8 456.6 563.096484375 456.3107421875 563.1 455.9
L 563.1 452.9
Q 563.096484375 452.4892578125 562.8 452.2 562.5107421875 451.903515625 562.1 451.9 561.6892578125 451.903515625 561.4 452.2 561.103515625 452.4892578125 561.1 452.9
M 562.8 445.2
Q 562.5107421875 444.903515625 562.1 444.9 561.6892578125 444.903515625 561.4 445.2 561.103515625 445.4892578125 561.1 445.9
L 561.1 448.9
Q 561.103515625 449.3107421875 561.4 449.6 561.6892578125 449.896484375 562.1 449.9 562.5107421875 449.896484375 562.8 449.6 563.096484375 449.3107421875 563.1 448.9
L 563.1 445.9
Q 563.096484375 445.4892578125 562.8 445.2
M 563.1 438.9
Q 563.096484375 438.4892578125 562.8 438.2 562.5107421875 437.903515625 562.1 437.9 561.6892578125 437.903515625 561.4 438.2 561.103515625 438.4892578125 561.1 438.9
L 561.1 441.9
Q 561.103515625 442.3107421875 561.4 442.6 561.6892578125 442.896484375 562.1 442.9 562.5107421875 442.896484375 562.8 442.6 563.096484375 442.3107421875 563.1 441.9
L 563.1 438.9
M 561.4 431.2
Q 561.103515625 431.4892578125 561.1 431.9
L 561.1 434.9
Q 561.103515625 435.3107421875 561.4 435.6 561.6892578125 435.896484375 562.1 435.9 562.5107421875 435.896484375 562.8 435.6 563.096484375 435.3107421875 563.1 434.9
L 563.1 431.9
Q 563.096484375 431.4892578125 562.8 431.2 562.5107421875 430.903515625 562.1 430.9 561.6892578125 430.903515625 561.4 431.2
M 563.1 424.9
Q 563.096484375 424.4892578125 562.8 424.2 562.5107421875 423.903515625 562.1 423.9 561.6892578125 423.903515625 561.4 424.2 561.103515625 424.4892578125 561.1 424.9
L 561.1 427.9
Q 561.103515625 428.3107421875 561.4 428.6 561.6892578125 428.896484375 562.1 428.9 562.5107421875 428.896484375 562.8 428.6 563.096484375 428.3107421875 563.1 427.9
L 563.1 424.9
M 561.4 417.2
Q 561.103515625 417.4892578125 561.1 417.9
L 561.1 420.9
Q 561.103515625 421.3107421875 561.4 421.6 561.6892578125 421.896484375 562.1 421.9 562.5107421875 421.896484375 562.8 421.6 563.096484375 421.3107421875 563.1 420.9
L 563.1 417.9
Q 563.096484375 417.4892578125 562.8 417.2 562.5107421875 416.903515625 562.1 416.9 561.6892578125 416.903515625 561.4 417.2
M 563.1 413.9
L 563.1 410.9
Q 563.096484375 410.4892578125 562.8 410.2 562.5107421875 409.903515625 562.1 409.9 561.6892578125 409.903515625 561.4 410.2 561.103515625 410.4892578125 561.1 410.9
L 561.1 413.9
Q 561.103515625 414.3107421875 561.4 414.6 561.6892578125 414.896484375 562.1 414.9 562.5107421875 414.896484375 562.8 414.6 563.096484375 414.3107421875 563.1 413.9
M 561.1 403.9
L 561.1 406.9
Q 561.103515625 407.3107421875 561.4 407.6 561.6892578125 407.896484375 562.1 407.9 562.5107421875 407.896484375 562.8 407.6 563.096484375 407.3107421875 563.1 406.9
L 563.1 403.9
Q 563.096484375 403.4892578125 562.8 403.2 562.5107421875 402.903515625 562.1 402.9 561.6892578125 402.903515625 561.4 403.2 561.103515625 403.4892578125 561.1 403.9
M 221.25 487.9
Q 221.246484375 487.4892578125 220.95 487.2 220.6607421875 486.903515625 220.25 486.9 219.8392578125 486.903515625 219.55 487.2 219.253515625 487.4892578125 219.25 487.9
L 219.25 490.9
Q 219.253515625 491.3107421875 219.55 491.6 219.8392578125 491.896484375 220.25 491.9 220.6607421875 491.896484375 220.95 491.6 221.246484375 491.3107421875 221.25 490.9
L 221.25 487.9
M 219.55 480.2
Q 219.253515625 480.4892578125 219.25 480.9
L 219.25 483.9
Q 219.253515625 484.3107421875 219.55 484.6 219.8392578125 484.896484375 220.25 484.9 220.6607421875 484.896484375 220.95 484.6 221.246484375 484.3107421875 221.25 483.9
L 221.25 480.9
Q 221.246484375 480.4892578125 220.95 480.2 220.6607421875 479.903515625 220.25 479.9 219.8392578125 479.903515625 219.55 480.2
M 221.25 473.9
Q 221.246484375 473.4892578125 220.95 473.2 220.6607421875 472.903515625 220.25 472.9 219.8392578125 472.903515625 219.55 473.2 219.253515625 473.4892578125 219.25 473.9
L 219.25 476.9
Q 219.253515625 477.3107421875 219.55 477.6 219.8392578125 477.896484375 220.25 477.9 220.6607421875 477.896484375 220.95 477.6 221.246484375 477.3107421875 221.25 476.9
L 221.25 473.9
M 221.25 469.9
L 221.25 466.9
Q 221.246484375 466.4892578125 220.95 466.2 220.6607421875 465.903515625 220.25 465.9 219.8392578125 465.903515625 219.55 466.2 219.253515625 466.4892578125 219.25 466.9
L 219.25 469.9
Q 219.253515625 470.3107421875 219.55 470.6 219.8392578125 470.896484375 220.25 470.9 220.6607421875 470.896484375 220.95 470.6 221.246484375 470.3107421875 221.25 469.9
M 220.95 459.2
Q 220.6607421875 458.903515625 220.25 458.9 219.8392578125 458.903515625 219.55 459.2 219.253515625 459.4892578125 219.25 459.9
L 219.25 462.9
Q 219.253515625 463.3107421875 219.55 463.6 219.8392578125 463.896484375 220.25 463.9 220.6607421875 463.896484375 220.95 463.6 221.246484375 463.3107421875 221.25 462.9
L 221.25 459.9
Q 221.246484375 459.4892578125 220.95 459.2
M 220.95 452.2
Q 220.6607421875 451.903515625 220.25 451.9 219.8392578125 451.903515625 219.55 452.2 219.253515625 452.4892578125 219.25 452.9
L 219.25 455.9
Q 219.253515625 456.3107421875 219.55 456.6 219.8392578125 456.896484375 220.25 456.9 220.6607421875 456.896484375 220.95 456.6 221.246484375 456.3107421875 221.25 455.9
L 221.25 452.9
Q 221.246484375 452.4892578125 220.95 452.2
M 220.25 444.9
Q 219.8392578125 444.903515625 219.55 445.2 219.253515625 445.4892578125 219.25 445.9
L 219.25 448.9
Q 219.253515625 449.3107421875 219.55 449.6 219.8392578125 449.896484375 220.25 449.9 220.6607421875 449.896484375 220.95 449.6 221.246484375 449.3107421875 221.25 448.9
L 221.25 445.9
Q 221.246484375 445.4892578125 220.95 445.2 220.6607421875 444.903515625 220.25 444.9
M 221.25 438.9
Q 221.246484375 438.4892578125 220.95 438.2 220.6607421875 437.903515625 220.25 437.9 219.8392578125 437.903515625 219.55 438.2 219.253515625 438.4892578125 219.25 438.9
L 219.25 441.9
Q 219.253515625 442.3107421875 219.55 442.6 219.8392578125 442.896484375 220.25 442.9 220.6607421875 442.896484375 220.95 442.6 221.246484375 442.3107421875 221.25 441.9
L 221.25 438.9
M 219.55 431.2
Q 219.253515625 431.4892578125 219.25 431.9
L 219.25 434.9
Q 219.253515625 435.3107421875 219.55 435.6 219.8392578125 435.896484375 220.25 435.9 220.6607421875 435.896484375 220.95 435.6 221.246484375 435.3107421875 221.25 434.9
L 221.25 431.9
Q 221.246484375 431.4892578125 220.95 431.2 220.6607421875 430.903515625 220.25 430.9 219.8392578125 430.903515625 219.55 431.2
M 221.25 424.9
Q 221.246484375 424.4892578125 220.95 424.2 220.6607421875 423.903515625 220.25 423.9 219.8392578125 423.903515625 219.55 424.2 219.253515625 424.4892578125 219.25 424.9
L 219.25 427.9
Q 219.253515625 428.3107421875 219.55 428.6 219.8392578125 428.896484375 220.25 428.9 220.6607421875 428.896484375 220.95 428.6 221.246484375 428.3107421875 221.25 427.9
L 221.25 424.9
M 221.25 417.9
Q 221.246484375 417.4892578125 220.95 417.2 220.6607421875 416.903515625 220.25 416.9 219.8392578125 416.903515625 219.55 417.2 219.253515625 417.4892578125 219.25 417.9
L 219.25 420.9
Q 219.253515625 421.3107421875 219.55 421.6 219.8392578125 421.896484375 220.25 421.9 220.6607421875 421.896484375 220.95 421.6 221.246484375 421.3107421875 221.25 420.9
L 221.25 417.9
M 221.25 413.9
L 221.25 410.9
Q 221.246484375 410.4892578125 220.95 410.2 220.6607421875 409.903515625 220.25 409.9 219.8392578125 409.903515625 219.55 410.2 219.253515625 410.4892578125 219.25 410.9
L 219.25 413.9
Q 219.253515625 414.3107421875 219.55 414.6 219.8392578125 414.896484375 220.25 414.9 220.6607421875 414.896484375 220.95 414.6 221.246484375 414.3107421875 221.25 413.9
M 220.95 403.2
Q 220.6607421875 402.903515625 220.25 402.9 219.8392578125 402.903515625 219.55 403.2 219.253515625 403.4892578125 219.25 403.9
L 219.25 406.9
Q 219.253515625 407.3107421875 219.55 407.6 219.8392578125 407.896484375 220.25 407.9 220.6607421875 407.896484375 220.95 407.6 221.246484375 407.3107421875 221.25 406.9
L 221.25 403.9
Q 221.246484375 403.4892578125 220.95 403.2
M 243.2 395.9
L 240.2 395.9
Q 239.7892578125 395.903515625 239.5 396.2 239.203515625 396.4892578125 239.2 396.9 239.203515625 397.3107421875 239.5 397.6 239.7892578125 397.896484375 240.2 397.9
L 243.2 397.9
Q 243.6107421875 397.896484375 243.9 397.6 244.196484375 397.3107421875 244.2 396.9 244.196484375 396.4892578125 243.9 396.2 243.6107421875 395.903515625 243.2 395.9
M 285.2 395.9
L 282.2 395.9
Q 281.7892578125 395.903515625 281.5 396.2 281.203515625 396.4892578125 281.2 396.9 281.203515625 397.3107421875 281.5 397.6 281.7892578125 397.896484375 282.2 397.9
L 285.2 397.9
Q 285.6107421875 397.896484375 285.9 397.6 286.196484375 397.3107421875 286.2 396.9 286.196484375 396.4892578125 285.9 396.2 285.6107421875 395.903515625 285.2 395.9
M 292.2 395.9
L 289.2 395.9
Q 288.7892578125 395.903515625 288.5 396.2 288.203515625 396.4892578125 288.2 396.9 288.203515625 397.3107421875 288.5 397.6 288.7892578125 397.896484375 289.2 397.9
L 292.2 397.9
Q 292.6107421875 397.896484375 292.9 397.6 293.196484375 397.3107421875 293.2 396.9 293.196484375 396.4892578125 292.9 396.2 292.6107421875 395.903515625 292.2 395.9
M 299.2 395.9
L 296.2 395.9
Q 295.7892578125 395.903515625 295.5 396.2 295.203515625 396.4892578125 295.2 396.9 295.203515625 397.3107421875 295.5 397.6 295.7892578125 397.896484375 296.2 397.9
L 299.2 397.9
Q 299.6107421875 397.896484375 299.9 397.6 300.196484375 397.3107421875 300.2 396.9 300.196484375 396.4892578125 299.9 396.2 299.6107421875 395.903515625 299.2 395.9
M 306.2 395.9
L 303.2 395.9
Q 302.7892578125 395.903515625 302.5 396.2 302.203515625 396.4892578125 302.2 396.9 302.203515625 397.3107421875 302.5 397.6 302.7892578125 397.896484375 303.2 397.9
L 306.2 397.9
Q 306.6107421875 397.896484375 306.9 397.6 307.196484375 397.3107421875 307.2 396.9 307.196484375 396.4892578125 306.9 396.2 306.6107421875 395.903515625 306.2 395.9
M 313.2 395.9
L 310.2 395.9
Q 309.7892578125 395.903515625 309.5 396.2 309.203515625 396.4892578125 309.2 396.9 309.203515625 397.3107421875 309.5 397.6 309.7892578125 397.896484375 310.2 397.9
L 313.2 397.9
Q 313.6107421875 397.896484375 313.9 397.6 314.196484375 397.3107421875 314.2 396.9 314.196484375 396.4892578125 313.9 396.2 313.6107421875 395.903515625 313.2 395.9
M 320.2 395.9
L 317.2 395.9
Q 316.7892578125 395.903515625 316.5 396.2 316.203515625 396.4892578125 316.2 396.9 316.203515625 397.3107421875 316.5 397.6 316.7892578125 397.896484375 317.2 397.9
L 320.2 397.9
Q 320.6107421875 397.896484375 320.9 397.6 321.196484375 397.3107421875 321.2 396.9 321.196484375 396.4892578125 320.9 396.2 320.6107421875 395.903515625 320.2 395.9
M 250.2 395.9
L 247.2 395.9
Q 246.7892578125 395.903515625 246.5 396.2 246.203515625 396.4892578125 246.2 396.9 246.203515625 397.3107421875 246.5 397.6 246.7892578125 397.896484375 247.2 397.9
L 250.2 397.9
Q 250.6107421875 397.896484375 250.9 397.6 251.196484375 397.3107421875 251.2 396.9 251.196484375 396.4892578125 250.9 396.2 250.6107421875 395.903515625 250.2 395.9
M 257.2 395.9
L 254.2 395.9
Q 253.7892578125 395.903515625 253.5 396.2 253.203515625 396.4892578125 253.2 396.9 253.203515625 397.3107421875 253.5 397.6 253.7892578125 397.896484375 254.2 397.9
L 257.2 397.9
Q 257.6107421875 397.896484375 257.9 397.6 258.196484375 397.3107421875 258.2 396.9 258.196484375 396.4892578125 257.9 396.2 257.6107421875 395.903515625 257.2 395.9
M 264.2 395.9
L 261.2 395.9
Q 260.7892578125 395.903515625 260.5 396.2 260.203515625 396.4892578125 260.2 396.9 260.203515625 397.3107421875 260.5 397.6 260.7892578125 397.896484375 261.2 397.9
L 264.2 397.9
Q 264.6107421875 397.896484375 264.9 397.6 265.196484375 397.3107421875 265.2 396.9 265.196484375 396.4892578125 264.9 396.2 264.6107421875 395.903515625 264.2 395.9
M 271.2 395.9
L 268.2 395.9
Q 267.7892578125 395.903515625 267.5 396.2 267.203515625 396.4892578125 267.2 396.9 267.203515625 397.3107421875 267.5 397.6 267.7892578125 397.896484375 268.2 397.9
L 271.2 397.9
Q 271.6107421875 397.896484375 271.9 397.6 272.196484375 397.3107421875 272.2 396.9 272.196484375 396.4892578125 271.9 396.2 271.6107421875 395.903515625 271.2 395.9
M 278.2 395.9
L 275.2 395.9
Q 274.7892578125 395.903515625 274.5 396.2 274.203515625 396.4892578125 274.2 396.9 274.203515625 397.3107421875 274.5 397.6 274.7892578125 397.896484375 275.2 397.9
L 278.2 397.9
Q 278.6107421875 397.896484375 278.9 397.6 279.196484375 397.3107421875 279.2 396.9 279.196484375 396.4892578125 278.9 396.2 278.6107421875 395.903515625 278.2 395.9
M 203.35 395.9
L 200.35 395.9
Q 199.9392578125 395.903515625 199.65 396.2 199.353515625 396.4892578125 199.35 396.9 199.353515625 397.3107421875 199.65 397.6 199.9392578125 397.896484375 200.35 397.9
L 203.35 397.9
Q 203.7607421875 397.896484375 204.05 397.6 204.346484375 397.3107421875 204.35 396.9 204.346484375 396.4892578125 204.05 396.2 203.7607421875 395.903515625 203.35 395.9
M 229.2 395.9
L 226.2 395.9
Q 225.7892578125 395.903515625 225.5 396.2 225.203515625 396.4892578125 225.2 396.9 225.203515625 397.3107421875 225.5 397.6 225.7892578125 397.896484375 226.2 397.9
L 229.2 397.9
Q 229.6107421875 397.896484375 229.9 397.6 230.196484375 397.3107421875 230.2 396.9 230.196484375 396.4892578125 229.9 396.2 229.6107421875 395.903515625 229.2 395.9
M 236.2 395.9
L 233.2 395.9
Q 232.7892578125 395.903515625 232.5 396.2 232.203515625 396.4892578125 232.2 396.9 232.203515625 397.3107421875 232.5 397.6 232.7892578125 397.896484375 233.2 397.9
L 236.2 397.9
Q 236.6107421875 397.896484375 236.9 397.6 237.196484375 397.3107421875 237.2 396.9 237.196484375 396.4892578125 236.9 396.2 236.6107421875 395.903515625 236.2 395.9
M 222.2 395.9
L 220.25 395.9
Q 219.8392578125 395.903515625 219.55 396.2 219.253515625 396.4892578125 219.25 396.9
L 219.25 399.9
Q 219.253515625 400.3107421875 219.55 400.6 219.8392578125 400.896484375 220.25 400.9 220.6607421875 400.896484375 220.95 400.6 221.246484375 400.3107421875 221.25 399.9
L 221.25 397.9 222.2 397.9
Q 222.6107421875 397.896484375 222.9 397.6 223.196484375 397.3107421875 223.2 396.9 223.196484375 396.4892578125 222.9 396.2 222.6107421875 395.903515625 222.2 395.9
M 220.95 390.3
Q 220.6607421875 390.003515625 220.25 390 219.8392578125 390.003515625 219.55 390.3 219.253515625 390.5892578125 219.25 391
L 219.25 394
Q 219.253515625 394.4107421875 219.55 394.7 219.8392578125 394.996484375 220.25 395 220.6607421875 394.996484375 220.95 394.7 221.246484375 394.4107421875 221.25 394
L 221.25 391
Q 221.246484375 390.5892578125 220.95 390.3
M 217.35 395.9
L 214.35 395.9
Q 213.9392578125 395.903515625 213.65 396.2 213.353515625 396.4892578125 213.35 396.9 213.353515625 397.3107421875 213.65 397.6 213.9392578125 397.896484375 214.35 397.9
L 217.35 397.9
Q 217.7607421875 397.896484375 218.05 397.6 218.346484375 397.3107421875 218.35 396.9 218.346484375 396.4892578125 218.05 396.2 217.7607421875 395.903515625 217.35 395.9
M 210.35 395.9
L 207.35 395.9
Q 206.9392578125 395.903515625 206.65 396.2 206.353515625 396.4892578125 206.35 396.9 206.353515625 397.3107421875 206.65 397.6 206.9392578125 397.896484375 207.35 397.9
L 210.35 397.9
Q 210.7607421875 397.896484375 211.05 397.6 211.346484375 397.3107421875 211.35 396.9 211.346484375 396.4892578125 211.05 396.2 210.7607421875 395.903515625 210.35 395.9
M 220.25 383
Q 219.8392578125 383.003515625 219.55 383.3 219.253515625 383.5892578125 219.25 384
L 219.25 387
Q 219.253515625 387.4107421875 219.55 387.7 219.8392578125 387.996484375 220.25 388 220.6607421875 387.996484375 220.95 387.7 221.246484375 387.4107421875 221.25 387
L 221.25 384
Q 221.246484375 383.5892578125 220.95 383.3 220.6607421875 383.003515625 220.25 383
M 219.55 376.3
Q 219.253515625 376.5892578125 219.25 377
L 219.25 380
Q 219.253515625 380.4107421875 219.55 380.7 219.8392578125 380.996484375 220.25 381 220.6607421875 380.996484375 220.95 380.7 221.246484375 380.4107421875 221.25 380
L 221.25 377
Q 221.246484375 376.5892578125 220.95 376.3 220.6607421875 376.003515625 220.25 376 219.8392578125 376.003515625 219.55 376.3
M 221.25 370
Q 221.246484375 369.5892578125 220.95 369.3 220.6607421875 369.003515625 220.25 369 219.8392578125 369.003515625 219.55 369.3 219.253515625 369.5892578125 219.25 370
L 219.25 373
Q 219.253515625 373.4107421875 219.55 373.7 219.8392578125 373.996484375 220.25 374 220.6607421875 373.996484375 220.95 373.7 221.246484375 373.4107421875 221.25 373
L 221.25 370
M 221.25 363
Q 221.246484375 362.5892578125 220.95 362.3 220.6607421875 362.003515625 220.25 362 219.8392578125 362.003515625 219.55 362.3 219.253515625 362.5892578125 219.25 363
L 219.25 366
Q 219.253515625 366.4107421875 219.55 366.7 219.8392578125 366.996484375 220.25 367 220.6607421875 366.996484375 220.95 366.7 221.246484375 366.4107421875 221.25 366
L 221.25 363
M 219.55 355.3
Q 219.253515625 355.5892578125 219.25 356
L 219.25 359
Q 219.253515625 359.4107421875 219.55 359.7 219.8392578125 359.996484375 220.25 360 220.6607421875 359.996484375 220.95 359.7 221.246484375 359.4107421875 221.25 359
L 221.25 356
Q 221.246484375 355.5892578125 220.95 355.3 220.6607421875 355.003515625 220.25 355 219.8392578125 355.003515625 219.55 355.3
M 221.25 352
L 221.25 349
Q 221.246484375 348.5892578125 220.95 348.3 220.6607421875 348.003515625 220.25 348 219.8392578125 348.003515625 219.55 348.3 219.253515625 348.5892578125 219.25 349
L 219.25 352
Q 219.253515625 352.4107421875 219.55 352.7 219.8392578125 352.996484375 220.25 353 220.6607421875 352.996484375 220.95 352.7 221.246484375 352.4107421875 221.25 352
M 196.35 395.9
L 193.35 395.9
Q 192.9392578125 395.903515625 192.65 396.2 192.353515625 396.4892578125 192.35 396.9 192.353515625 397.3107421875 192.65 397.6 192.9392578125 397.896484375 193.35 397.9
L 196.35 397.9
Q 196.7607421875 397.896484375 197.05 397.6 197.346484375 397.3107421875 197.35 396.9 197.346484375 396.4892578125 197.05 396.2 196.7607421875 395.903515625 196.35 395.9
M 189.35 395.9
L 186.35 395.9
Q 185.9392578125 395.903515625 185.65 396.2 185.353515625 396.4892578125 185.35 396.9 185.353515625 397.3107421875 185.65 397.6 185.9392578125 397.896484375 186.35 397.9
L 189.35 397.9
Q 189.7607421875 397.896484375 190.05 397.6 190.346484375 397.3107421875 190.35 396.9 190.346484375 396.4892578125 190.05 396.2 189.7607421875 395.903515625 189.35 395.9
M 182.35 395.9
L 179.35 395.9
Q 178.9392578125 395.903515625 178.65 396.2 178.353515625 396.4892578125 178.35 396.9 178.353515625 397.3107421875 178.65 397.6 178.9392578125 397.896484375 179.35 397.9
L 182.35 397.9
Q 182.7607421875 397.896484375 183.05 397.6 183.346484375 397.3107421875 183.35 396.9 183.346484375 396.4892578125 183.05 396.2 182.7607421875 395.903515625 182.35 395.9
M 175.35 395.9
L 172.35 395.9
Q 171.9392578125 395.903515625 171.65 396.2 171.353515625 396.4892578125 171.35 396.9 171.353515625 397.3107421875 171.65 397.6 171.9392578125 397.896484375 172.35 397.9
L 175.35 397.9
Q 175.7607421875 397.896484375 176.05 397.6 176.346484375 397.3107421875 176.35 396.9 176.346484375 396.4892578125 176.05 396.2 175.7607421875 395.903515625 175.35 395.9
M 168.35 395.9
L 165.35 395.9
Q 164.9392578125 395.903515625 164.65 396.2 164.353515625 396.4892578125 164.35 396.9 164.353515625 397.3107421875 164.65 397.6 164.9392578125 397.896484375 165.35 397.9
L 168.35 397.9
Q 168.7607421875 397.896484375 169.05 397.6 169.346484375 397.3107421875 169.35 396.9 169.346484375 396.4892578125 169.05 396.2 168.7607421875 395.903515625 168.35 395.9
M 220.95 341.3
Q 220.6607421875 341.003515625 220.25 341 219.8392578125 341.003515625 219.55 341.3 219.253515625 341.5892578125 219.25 342
L 219.25 345
Q 219.253515625 345.4107421875 219.55 345.7 219.8392578125 345.996484375 220.25 346 220.6607421875 345.996484375 220.95 345.7 221.246484375 345.4107421875 221.25 345
L 221.25 342
Q 221.246484375 341.5892578125 220.95 341.3
M 220.95 338.7
Q 221.246484375 338.4107421875 221.25 338
L 221.25 335
Q 221.246484375 334.5892578125 220.95 334.3 220.6607421875 334.003515625 220.25 334 219.8392578125 334.003515625 219.55 334.3 219.253515625 334.5892578125 219.25 335
L 219.25 338
Q 219.253515625 338.4107421875 219.55 338.7 219.8392578125 338.996484375 220.25 339 220.6607421875 338.996484375 220.95 338.7
M 220.95 327.3
Q 220.6607421875 327.003515625 220.25 327 219.8392578125 327.003515625 219.55 327.3 219.253515625 327.5892578125 219.25 328
L 219.25 331
Q 219.253515625 331.4107421875 219.55 331.7 219.8392578125 331.996484375 220.25 332 220.6607421875 331.996484375 220.95 331.7 221.246484375 331.4107421875 221.25 331
L 221.25 328
Q 221.246484375 327.5892578125 220.95 327.3
M 221.25 321
Q 221.246484375 320.5892578125 220.95 320.3 220.6607421875 320.003515625 220.25 320 219.8392578125 320.003515625 219.55 320.3 219.253515625 320.5892578125 219.25 321
L 219.25 324
Q 219.253515625 324.4107421875 219.55 324.7 219.8392578125 324.996484375 220.25 325 220.6607421875 324.996484375 220.95 324.7 221.246484375 324.4107421875 221.25 324
L 221.25 321
M 221.25 314
Q 221.246484375 313.5892578125 220.95 313.3 220.6607421875 313.003515625 220.25 313 219.8392578125 313.003515625 219.55 313.3 219.253515625 313.5892578125 219.25 314
L 219.25 317
Q 219.253515625 317.4107421875 219.55 317.7 219.8392578125 317.996484375 220.25 318 220.6607421875 317.996484375 220.95 317.7 221.246484375 317.4107421875 221.25 317
L 221.25 314
M 219.55 306.3
Q 219.253515625 306.5892578125 219.25 307
L 219.25 310
Q 219.253515625 310.4107421875 219.55 310.7 219.8392578125 310.996484375 220.25 311 220.6607421875 310.996484375 220.95 310.7 221.246484375 310.4107421875 221.25 310
L 221.25 307
Q 221.246484375 306.5892578125 220.95 306.3 220.6607421875 306.003515625 220.25 306 219.8392578125 306.003515625 219.55 306.3
M 221.25 303
L 221.25 300
Q 221.246484375 299.5892578125 220.95 299.3 220.6607421875 299.003515625 220.25 299 219.8392578125 299.003515625 219.55 299.3 219.253515625 299.5892578125 219.25 300
L 219.25 303
Q 219.253515625 303.4107421875 219.55 303.7 219.8392578125 303.996484375 220.25 304 220.6607421875 303.996484375 220.95 303.7 221.246484375 303.4107421875 221.25 303
M 161.35 395.9
L 158.35 395.9
Q 157.9392578125 395.903515625 157.65 396.2 157.353515625 396.4892578125 157.35 396.9 157.353515625 397.3107421875 157.65 397.6 157.9392578125 397.896484375 158.35 397.9
L 161.35 397.9
Q 161.7607421875 397.896484375 162.05 397.6 162.346484375 397.3107421875 162.35 396.9 162.346484375 396.4892578125 162.05 396.2 161.7607421875 395.903515625 161.35 395.9
M 154.35 395.9
L 151.35 395.9
Q 150.9392578125 395.903515625 150.65 396.2 150.353515625 396.4892578125 150.35 396.9 150.353515625 397.3107421875 150.65 397.6 150.9392578125 397.896484375 151.35 397.9
L 154.35 397.9
Q 154.7607421875 397.896484375 155.05 397.6 155.346484375 397.3107421875 155.35 396.9 155.346484375 396.4892578125 155.05 396.2 154.7607421875 395.903515625 154.35 395.9
M 147.35 395.9
L 144.35 395.9
Q 143.9392578125 395.903515625 143.65 396.2 143.353515625 396.4892578125 143.35 396.9 143.353515625 397.3107421875 143.65 397.6 143.9392578125 397.896484375 144.35 397.9
L 147.35 397.9
Q 147.7607421875 397.896484375 148.05 397.6 148.346484375 397.3107421875 148.35 396.9 148.346484375 396.4892578125 148.05 396.2 147.7607421875 395.903515625 147.35 395.9
M 140.35 395.9
L 137.35 395.9
Q 136.9392578125 395.903515625 136.65 396.2 136.353515625 396.4892578125 136.35 396.9 136.353515625 397.3107421875 136.65 397.6 136.9392578125 397.896484375 137.35 397.9
L 140.35 397.9
Q 140.7607421875 397.896484375 141.05 397.6 141.346484375 397.3107421875 141.35 396.9 141.346484375 396.4892578125 141.05 396.2 140.7607421875 395.903515625 140.35 395.9
M 133.35 395.9
L 130.35 395.9
Q 129.9392578125 395.903515625 129.65 396.2 129.353515625 396.4892578125 129.35 396.9 129.353515625 397.3107421875 129.65 397.6 129.9392578125 397.896484375 130.35 397.9
L 133.35 397.9
Q 133.7607421875 397.896484375 134.05 397.6 134.346484375 397.3107421875 134.35 396.9 134.346484375 396.4892578125 134.05 396.2 133.7607421875 395.903515625 133.35 395.9
M 126.35 395.9
L 123.35 395.9
Q 122.9392578125 395.903515625 122.65 396.2 122.353515625 396.4892578125 122.35 396.9 122.353515625 397.3107421875 122.65 397.6 122.9392578125 397.896484375 123.35 397.9
L 126.35 397.9
Q 126.7607421875 397.896484375 127.05 397.6 127.346484375 397.3107421875 127.35 396.9 127.346484375 396.4892578125 127.05 396.2 126.7607421875 395.903515625 126.35 395.9
M 642.1 395.9
L 639.1 395.9
Q 638.6892578125 395.903515625 638.4 396.2 638.103515625 396.4892578125 638.1 396.9 638.103515625 397.3107421875 638.4 397.6 638.6892578125 397.896484375 639.1 397.9
L 642.1 397.9
Q 642.5107421875 397.896484375 642.8 397.6 643.096484375 397.3107421875 643.1 396.9 643.096484375 396.4892578125 642.8 396.2 642.5107421875 395.903515625 642.1 395.9
M 635.1 395.9
L 632.1 395.9
Q 631.6892578125 395.903515625 631.4 396.2 631.103515625 396.4892578125 631.1 396.9 631.103515625 397.3107421875 631.4 397.6 631.6892578125 397.896484375 632.1 397.9
L 635.1 397.9
Q 635.5107421875 397.896484375 635.8 397.6 636.096484375 397.3107421875 636.1 396.9 636.096484375 396.4892578125 635.8 396.2 635.5107421875 395.903515625 635.1 395.9
M 628.1 395.9
L 625.1 395.9
Q 624.6892578125 395.903515625 624.4 396.2 624.103515625 396.4892578125 624.1 396.9 624.103515625 397.3107421875 624.4 397.6 624.6892578125 397.896484375 625.1 397.9
L 628.1 397.9
Q 628.5107421875 397.896484375 628.8 397.6 629.096484375 397.3107421875 629.1 396.9 629.096484375 396.4892578125 628.8 396.2 628.5107421875 395.903515625 628.1 395.9
M 621.1 395.9
L 618.1 395.9
Q 617.6892578125 395.903515625 617.4 396.2 617.103515625 396.4892578125 617.1 396.9 617.103515625 397.3107421875 617.4 397.6 617.6892578125 397.896484375 618.1 397.9
L 621.1 397.9
Q 621.5107421875 397.896484375 621.8 397.6 622.096484375 397.3107421875 622.1 396.9 622.096484375 396.4892578125 621.8 396.2 621.5107421875 395.903515625 621.1 395.9
M 614.1 395.9
L 611.1 395.9
Q 610.6892578125 395.903515625 610.4 396.2 610.103515625 396.4892578125 610.1 396.9 610.103515625 397.3107421875 610.4 397.6 610.6892578125 397.896484375 611.1 397.9
L 614.1 397.9
Q 614.5107421875 397.896484375 614.8 397.6 615.096484375 397.3107421875 615.1 396.9 615.096484375 396.4892578125 614.8 396.2 614.5107421875 395.903515625 614.1 395.9
M 607.1 395.9
L 604.1 395.9
Q 603.6892578125 395.903515625 603.4 396.2 603.103515625 396.4892578125 603.1 396.9 603.103515625 397.3107421875 603.4 397.6 603.6892578125 397.896484375 604.1 397.9
L 607.1 397.9
Q 607.5107421875 397.896484375 607.8 397.6 608.096484375 397.3107421875 608.1 396.9 608.096484375 396.4892578125 607.8 396.2 607.5107421875 395.903515625 607.1 395.9
M 600.1 395.9
L 597.1 395.9
Q 596.6892578125 395.903515625 596.4 396.2 596.103515625 396.4892578125 596.1 396.9 596.103515625 397.3107421875 596.4 397.6 596.6892578125 397.896484375 597.1 397.9
L 600.1 397.9
Q 600.5107421875 397.896484375 600.8 397.6 601.096484375 397.3107421875 601.1 396.9 601.096484375 396.4892578125 600.8 396.2 600.5107421875 395.903515625 600.1 395.9
M 593.1 395.9
L 590.1 395.9
Q 589.6892578125 395.903515625 589.4 396.2 589.103515625 396.4892578125 589.1 396.9 589.103515625 397.3107421875 589.4 397.6 589.6892578125 397.896484375 590.1 397.9
L 593.1 397.9
Q 593.5107421875 397.896484375 593.8 397.6 594.096484375 397.3107421875 594.1 396.9 594.096484375 396.4892578125 593.8 396.2 593.5107421875 395.903515625 593.1 395.9
M 586.1 395.9
L 583.1 395.9
Q 582.6892578125 395.903515625 582.4 396.2 582.103515625 396.4892578125 582.1 396.9 582.103515625 397.3107421875 582.4 397.6 582.6892578125 397.896484375 583.1 397.9
L 586.1 397.9
Q 586.5107421875 397.896484375 586.8 397.6 587.096484375 397.3107421875 587.1 396.9 587.096484375 396.4892578125 586.8 396.2 586.5107421875 395.903515625 586.1 395.9
M 579.1 395.9
L 576.1 395.9
Q 575.6892578125 395.903515625 575.4 396.2 575.103515625 396.4892578125 575.1 396.9 575.103515625 397.3107421875 575.4 397.6 575.6892578125 397.896484375 576.1 397.9
L 579.1 397.9
Q 579.5107421875 397.896484375 579.8 397.6 580.096484375 397.3107421875 580.1 396.9 580.096484375 396.4892578125 579.8 396.2 579.5107421875 395.903515625 579.1 395.9
M 572.1 395.9
L 569.1 395.9
Q 568.6892578125 395.903515625 568.4 396.2 568.103515625 396.4892578125 568.1 396.9 568.103515625 397.3107421875 568.4 397.6 568.6892578125 397.896484375 569.1 397.9
L 572.1 397.9
Q 572.5107421875 397.896484375 572.8 397.6 573.096484375 397.3107421875 573.1 396.9 573.096484375 396.4892578125 572.8 396.2 572.5107421875 395.903515625 572.1 395.9
M 527.1 395.9
L 524.1 395.9
Q 523.6892578125 395.903515625 523.4 396.2 523.103515625 396.4892578125 523.1 396.9 523.103515625 397.3107421875 523.4 397.6 523.6892578125 397.896484375 524.1 397.9
L 527.1 397.9
Q 527.5107421875 397.896484375 527.8 397.6 528.096484375 397.3107421875 528.1 396.9 528.096484375 396.4892578125 527.8 396.2 527.5107421875 395.903515625 527.1 395.9
M 548.1 395.9
L 545.1 395.9
Q 544.6892578125 395.903515625 544.4 396.2 544.103515625 396.4892578125 544.1 396.9 544.103515625 397.3107421875 544.4 397.6 544.6892578125 397.896484375 545.1 397.9
L 548.1 397.9
Q 548.5107421875 397.896484375 548.8 397.6 549.096484375 397.3107421875 549.1 396.9 549.096484375 396.4892578125 548.8 396.2 548.5107421875 395.903515625 548.1 395.9
M 565.1 395.9
L 559.1 395.9
Q 558.6892578125 395.903515625 558.4 396.2 558.103515625 396.4892578125 558.1 396.9 558.103515625 397.3107421875 558.4 397.6 558.6892578125 397.896484375 559.1 397.9
L 561.1 397.9 561.1 399.9
Q 561.103515625 400.3107421875 561.4 400.6 561.6892578125 400.896484375 562.1 400.9 562.5107421875 400.896484375 562.8 400.6 563.096484375 400.3107421875 563.1 399.9
L 563.1 397.9 565.1 397.9
Q 565.5107421875 397.896484375 565.8 397.6 566.096484375 397.3107421875 566.1 396.9 566.096484375 396.4892578125 565.8 396.2 565.5107421875 395.903515625 565.1 395.9
M 561.1 394
Q 561.103515625 394.4107421875 561.4 394.7 561.6892578125 394.996484375 562.1 395 562.5107421875 394.996484375 562.8 394.7 563.096484375 394.4107421875 563.1 394
L 563.1 391
Q 563.096484375 390.5892578125 562.8 390.3 562.5107421875 390.003515625 562.1 390 561.6892578125 390.003515625 561.4 390.3 561.103515625 390.5892578125 561.1 391
L 561.1 394
M 555.1 395.9
L 552.1 395.9
Q 551.6892578125 395.903515625 551.4 396.2 551.103515625 396.4892578125 551.1 396.9 551.103515625 397.3107421875 551.4 397.6 551.6892578125 397.896484375 552.1 397.9
L 555.1 397.9
Q 555.5107421875 397.896484375 555.8 397.6 556.096484375 397.3107421875 556.1 396.9 556.096484375 396.4892578125 555.8 396.2 555.5107421875 395.903515625 555.1 395.9
M 562.8 383.3
Q 562.5107421875 383.003515625 562.1 383 561.6892578125 383.003515625 561.4 383.3 561.103515625 383.5892578125 561.1 384
L 561.1 387
Q 561.103515625 387.4107421875 561.4 387.7 561.6892578125 387.996484375 562.1 388 562.5107421875 387.996484375 562.8 387.7 563.096484375 387.4107421875 563.1 387
L 563.1 384
Q 563.096484375 383.5892578125 562.8 383.3
M 563.1 377
Q 563.096484375 376.5892578125 562.8 376.3 562.5107421875 376.003515625 562.1 376 561.6892578125 376.003515625 561.4 376.3 561.103515625 376.5892578125 561.1 377
L 561.1 380
Q 561.103515625 380.4107421875 561.4 380.7 561.6892578125 380.996484375 562.1 381 562.5107421875 380.996484375 562.8 380.7 563.096484375 380.4107421875 563.1 380
L 563.1 377
M 541.1 395.9
L 538.1 395.9
Q 537.6892578125 395.903515625 537.4 396.2 537.103515625 396.4892578125 537.1 396.9 537.103515625 397.3107421875 537.4 397.6 537.6892578125 397.896484375 538.1 397.9
L 541.1 397.9
Q 541.5107421875 397.896484375 541.8 397.6 542.096484375 397.3107421875 542.1 396.9 542.096484375 396.4892578125 541.8 396.2 541.5107421875 395.903515625 541.1 395.9
M 534.1 395.9
L 531.1 395.9
Q 530.6892578125 395.903515625 530.4 396.2 530.103515625 396.4892578125 530.1 396.9 530.103515625 397.3107421875 530.4 397.6 530.6892578125 397.896484375 531.1 397.9
L 534.1 397.9
Q 534.5107421875 397.896484375 534.8 397.6 535.096484375 397.3107421875 535.1 396.9 535.096484375 396.4892578125 534.8 396.2 534.5107421875 395.903515625 534.1 395.9
M 561.4 369.3
Q 561.103515625 369.5892578125 561.1 370
L 561.1 373
Q 561.103515625 373.4107421875 561.4 373.7 561.6892578125 373.996484375 562.1 374 562.5107421875 373.996484375 562.8 373.7 563.096484375 373.4107421875 563.1 373
L 563.1 370
Q 563.096484375 369.5892578125 562.8 369.3 562.5107421875 369.003515625 562.1 369 561.6892578125 369.003515625 561.4 369.3
M 563.1 363
Q 563.096484375 362.5892578125 562.8 362.3 562.5107421875 362.003515625 562.1 362 561.6892578125 362.003515625 561.4 362.3 561.103515625 362.5892578125 561.1 363
L 561.1 366
Q 561.103515625 366.4107421875 561.4 366.7 561.6892578125 366.996484375 562.1 367 562.5107421875 366.996484375 562.8 366.7 563.096484375 366.4107421875 563.1 366
L 563.1 363
M 561.4 355.3
Q 561.103515625 355.5892578125 561.1 356
L 561.1 359
Q 561.103515625 359.4107421875 561.4 359.7 561.6892578125 359.996484375 562.1 360 562.5107421875 359.996484375 562.8 359.7 563.096484375 359.4107421875 563.1 359
L 563.1 356
Q 563.096484375 355.5892578125 562.8 355.3 562.5107421875 355.003515625 562.1 355 561.6892578125 355.003515625 561.4 355.3
M 563.1 352
L 563.1 349
Q 563.096484375 348.5892578125 562.8 348.3 562.5107421875 348.003515625 562.1 348 561.6892578125 348.003515625 561.4 348.3 561.103515625 348.5892578125 561.1 349
L 561.1 352
Q 561.103515625 352.4107421875 561.4 352.7 561.6892578125 352.996484375 562.1 353 562.5107421875 352.996484375 562.8 352.7 563.096484375 352.4107421875 563.1 352
M 492.1 395.9
L 489.1 395.9
Q 488.6892578125 395.903515625 488.4 396.2 488.103515625 396.4892578125 488.1 396.9 488.103515625 397.3107421875 488.4 397.6 488.6892578125 397.896484375 489.1 397.9
L 492.1 397.9
Q 492.5107421875 397.896484375 492.8 397.6 493.096484375 397.3107421875 493.1 396.9 493.096484375 396.4892578125 492.8 396.2 492.5107421875 395.903515625 492.1 395.9
M 499.1 395.9
L 496.1 395.9
Q 495.6892578125 395.903515625 495.4 396.2 495.103515625 396.4892578125 495.1 396.9 495.103515625 397.3107421875 495.4 397.6 495.6892578125 397.896484375 496.1 397.9
L 499.1 397.9
Q 499.5107421875 397.896484375 499.8 397.6 500.096484375 397.3107421875 500.1 396.9 500.096484375 396.4892578125 499.8 396.2 499.5107421875 395.903515625 499.1 395.9
M 506.1 395.9
L 503.1 395.9
Q 502.6892578125 395.903515625 502.4 396.2 502.103515625 396.4892578125 502.1 396.9 502.103515625 397.3107421875 502.4 397.6 502.6892578125 397.896484375 503.1 397.9
L 506.1 397.9
Q 506.5107421875 397.896484375 506.8 397.6 507.096484375 397.3107421875 507.1 396.9 507.096484375 396.4892578125 506.8 396.2 506.5107421875 395.903515625 506.1 395.9
M 513.1 395.9
L 510.1 395.9
Q 509.6892578125 395.903515625 509.4 396.2 509.103515625 396.4892578125 509.1 396.9 509.103515625 397.3107421875 509.4 397.6 509.6892578125 397.896484375 510.1 397.9
L 513.1 397.9
Q 513.5107421875 397.896484375 513.8 397.6 514.096484375 397.3107421875 514.1 396.9 514.096484375 396.4892578125 513.8 396.2 513.5107421875 395.903515625 513.1 395.9
M 520.1 395.9
L 517.1 395.9
Q 516.6892578125 395.903515625 516.4 396.2 516.103515625 396.4892578125 516.1 396.9 516.103515625 397.3107421875 516.4 397.6 516.6892578125 397.896484375 517.1 397.9
L 520.1 397.9
Q 520.5107421875 397.896484375 520.8 397.6 521.096484375 397.3107421875 521.1 396.9 521.096484375 396.4892578125 520.8 396.2 520.5107421875 395.903515625 520.1 395.9
M 561.1 342
L 561.1 345
Q 561.103515625 345.4107421875 561.4 345.7 561.6892578125 345.996484375 562.1 346 562.5107421875 345.996484375 562.8 345.7 563.096484375 345.4107421875 563.1 345
L 563.1 342
Q 563.096484375 341.5892578125 562.8 341.3 562.5107421875 341.003515625 562.1 341 561.6892578125 341.003515625 561.4 341.3 561.103515625 341.5892578125 561.1 342
M 562.8 338.7
Q 563.096484375 338.4107421875 563.1 338
L 563.1 335
Q 563.096484375 334.5892578125 562.8 334.3 562.5107421875 334.003515625 562.1 334 561.6892578125 334.003515625 561.4 334.3 561.103515625 334.5892578125 561.1 335
L 561.1 338
Q 561.103515625 338.4107421875 561.4 338.7 561.6892578125 338.996484375 562.1 339 562.5107421875 338.996484375 562.8 338.7
M 562.8 327.3
Q 562.5107421875 327.003515625 562.1 327 561.6892578125 327.003515625 561.4 327.3 561.103515625 327.5892578125 561.1 328
L 561.1 331
Q 561.103515625 331.4107421875 561.4 331.7 561.6892578125 331.996484375 562.1 332 562.5107421875 331.996484375 562.8 331.7 563.096484375 331.4107421875 563.1 331
L 563.1 328
Q 563.096484375 327.5892578125 562.8 327.3
M 561.4 320.3
Q 561.103515625 320.5892578125 561.1 321
L 561.1 324
Q 561.103515625 324.4107421875 561.4 324.7 561.6892578125 324.996484375 562.1 325 562.5107421875 324.996484375 562.8 324.7 563.096484375 324.4107421875 563.1 324
L 563.1 321
Q 563.096484375 320.5892578125 562.8 320.3 562.5107421875 320.003515625 562.1 320 561.6892578125 320.003515625 561.4 320.3
M 563.1 314
Q 563.096484375 313.5892578125 562.8 313.3 562.5107421875 313.003515625 562.1 313 561.6892578125 313.003515625 561.4 313.3 561.103515625 313.5892578125 561.1 314
L 561.1 317
Q 561.103515625 317.4107421875 561.4 317.7 561.6892578125 317.996484375 562.1 318 562.5107421875 317.996484375 562.8 317.7 563.096484375 317.4107421875 563.1 317
L 563.1 314
M 561.4 306.3
Q 561.103515625 306.5892578125 561.1 307
L 561.1 310
Q 561.103515625 310.4107421875 561.4 310.7 561.6892578125 310.996484375 562.1 311 562.5107421875 310.996484375 562.8 310.7 563.096484375 310.4107421875 563.1 310
L 563.1 307
Q 563.096484375 306.5892578125 562.8 306.3 562.5107421875 306.003515625 562.1 306 561.6892578125 306.003515625 561.4 306.3
M 563.1 303
L 563.1 300
Q 563.096484375 299.5892578125 562.8 299.3 562.5107421875 299.003515625 562.1 299 561.6892578125 299.003515625 561.4 299.3 561.103515625 299.5892578125 561.1 300
L 561.1 303
Q 561.103515625 303.4107421875 561.4 303.7 561.6892578125 303.996484375 562.1 304 562.5107421875 303.996484375 562.8 303.7 563.096484375 303.4107421875 563.1 303
M 406.15 395.9
L 403.15 395.9
Q 402.7392578125 395.903515625 402.45 396.2 402.153515625 396.4892578125 402.15 396.9 402.153515625 397.3107421875 402.45 397.6 402.7392578125 397.896484375 403.15 397.9
L 406.15 397.9
Q 406.5607421875 397.896484375 406.85 397.6 407.146484375 397.3107421875 407.15 396.9 407.146484375 396.4892578125 406.85 396.2 406.5607421875 395.903515625 406.15 395.9
M 450.1 395.9
L 445.15 395.9
Q 444.7392578125 395.903515625 444.45 396.2 444.153515625 396.4892578125 444.15 396.9 444.153515625 397.3107421875 444.45 397.6 444.7392578125 397.896484375 445.15 397.9
L 447.15 397.9 447.15 399.9
Q 447.153515625 400.3107421875 447.45 400.6 447.7392578125 400.896484375 448.15 400.9 448.5607421875 400.896484375 448.85 400.6 449.146484375 400.3107421875 449.15 399.9
L 449.15 397.9 450.1 397.9
Q 450.5107421875 397.896484375 450.8 397.6 451.096484375 397.3107421875 451.1 396.9 451.096484375 396.4892578125 450.8 396.2 450.5107421875 395.903515625 450.1 395.9
M 485.1 395.9
L 482.1 395.9
Q 481.6892578125 395.903515625 481.4 396.2 481.103515625 396.4892578125 481.1 396.9 481.103515625 397.3107421875 481.4 397.6 481.6892578125 397.896484375 482.1 397.9
L 485.1 397.9
Q 485.5107421875 397.896484375 485.8 397.6 486.096484375 397.3107421875 486.1 396.9 486.096484375 396.4892578125 485.8 396.2 485.5107421875 395.903515625 485.1 395.9
M 478.1 395.9
L 475.1 395.9
Q 474.6892578125 395.903515625 474.4 396.2 474.103515625 396.4892578125 474.1 396.9 474.103515625 397.3107421875 474.4 397.6 474.6892578125 397.896484375 475.1 397.9
L 478.1 397.9
Q 478.5107421875 397.896484375 478.8 397.6 479.096484375 397.3107421875 479.1 396.9 479.096484375 396.4892578125 478.8 396.2 478.5107421875 395.903515625 478.1 395.9
M 471.1 395.9
L 468.1 395.9
Q 467.6892578125 395.903515625 467.4 396.2 467.103515625 396.4892578125 467.1 396.9 467.103515625 397.3107421875 467.4 397.6 467.6892578125 397.896484375 468.1 397.9
L 471.1 397.9
Q 471.5107421875 397.896484375 471.8 397.6 472.096484375 397.3107421875 472.1 396.9 472.096484375 396.4892578125 471.8 396.2 471.5107421875 395.903515625 471.1 395.9
M 457.1 395.9
L 454.1 395.9
Q 453.6892578125 395.903515625 453.4 396.2 453.103515625 396.4892578125 453.1 396.9 453.103515625 397.3107421875 453.4 397.6 453.6892578125 397.896484375 454.1 397.9
L 457.1 397.9
Q 457.5107421875 397.896484375 457.8 397.6 458.096484375 397.3107421875 458.1 396.9 458.096484375 396.4892578125 457.8 396.2 457.5107421875 395.903515625 457.1 395.9
M 464.1 395.9
L 461.1 395.9
Q 460.6892578125 395.903515625 460.4 396.2 460.103515625 396.4892578125 460.1 396.9 460.103515625 397.3107421875 460.4 397.6 460.6892578125 397.896484375 461.1 397.9
L 464.1 397.9
Q 464.5107421875 397.896484375 464.8 397.6 465.096484375 397.3107421875 465.1 396.9 465.096484375 396.4892578125 464.8 396.2 464.5107421875 395.903515625 464.1 395.9
M 448.85 390.3
Q 448.5607421875 390.003515625 448.15 390 447.7392578125 390.003515625 447.45 390.3 447.153515625 390.5892578125 447.15 391
L 447.15 394
Q 447.153515625 394.4107421875 447.45 394.7 447.7392578125 394.996484375 448.15 395 448.5607421875 394.996484375 448.85 394.7 449.146484375 394.4107421875 449.15 394
L 449.15 391
Q 449.146484375 390.5892578125 448.85 390.3
M 448.15 383
Q 447.7392578125 383.003515625 447.45 383.3 447.153515625 383.5892578125 447.15 384
L 447.15 387
Q 447.153515625 387.4107421875 447.45 387.7 447.7392578125 387.996484375 448.15 388 448.5607421875 387.996484375 448.85 387.7 449.146484375 387.4107421875 449.15 387
L 449.15 384
Q 449.146484375 383.5892578125 448.85 383.3 448.5607421875 383.003515625 448.15 383
M 447.45 376.3
Q 447.153515625 376.5892578125 447.15 377
L 447.15 380
Q 447.153515625 380.4107421875 447.45 380.7 447.7392578125 380.996484375 448.15 381 448.5607421875 380.996484375 448.85 380.7 449.146484375 380.4107421875 449.15 380
L 449.15 377
Q 449.146484375 376.5892578125 448.85 376.3 448.5607421875 376.003515625 448.15 376 447.7392578125 376.003515625 447.45 376.3
M 449.15 370
Q 449.146484375 369.5892578125 448.85 369.3 448.5607421875 369.003515625 448.15 369 447.7392578125 369.003515625 447.45 369.3 447.153515625 369.5892578125 447.15 370
L 447.15 373
Q 447.153515625 373.4107421875 447.45 373.7 447.7392578125 373.996484375 448.15 374 448.5607421875 373.996484375 448.85 373.7 449.146484375 373.4107421875 449.15 373
L 449.15 370
M 449.15 363
Q 449.146484375 362.5892578125 448.85 362.3 448.5607421875 362.003515625 448.15 362 447.7392578125 362.003515625 447.45 362.3 447.153515625 362.5892578125 447.15 363
L 447.15 366
Q 447.153515625 366.4107421875 447.45 366.7 447.7392578125 366.996484375 448.15 367 448.5607421875 366.996484375 448.85 366.7 449.146484375 366.4107421875 449.15 366
L 449.15 363
M 447.45 355.3
Q 447.153515625 355.5892578125 447.15 356
L 447.15 359
Q 447.153515625 359.4107421875 447.45 359.7 447.7392578125 359.996484375 448.15 360 448.5607421875 359.996484375 448.85 359.7 449.146484375 359.4107421875 449.15 359
L 449.15 356
Q 449.146484375 355.5892578125 448.85 355.3 448.5607421875 355.003515625 448.15 355 447.7392578125 355.003515625 447.45 355.3
M 447.45 348.3
Q 447.153515625 348.5892578125 447.15 349
L 447.15 352
Q 447.153515625 352.4107421875 447.45 352.7 447.7392578125 352.996484375 448.15 353 448.5607421875 352.996484375 448.85 352.7 449.146484375 352.4107421875 449.15 352
L 449.15 349
Q 449.146484375 348.5892578125 448.85 348.3 448.5607421875 348.003515625 448.15 348 447.7392578125 348.003515625 447.45 348.3
M 413.15 395.9
L 410.15 395.9
Q 409.7392578125 395.903515625 409.45 396.2 409.153515625 396.4892578125 409.15 396.9 409.153515625 397.3107421875 409.45 397.6 409.7392578125 397.896484375 410.15 397.9
L 413.15 397.9
Q 413.5607421875 397.896484375 413.85 397.6 414.146484375 397.3107421875 414.15 396.9 414.146484375 396.4892578125 413.85 396.2 413.5607421875 395.903515625 413.15 395.9
M 420.15 395.9
L 417.15 395.9
Q 416.7392578125 395.903515625 416.45 396.2 416.153515625 396.4892578125 416.15 396.9 416.153515625 397.3107421875 416.45 397.6 416.7392578125 397.896484375 417.15 397.9
L 420.15 397.9
Q 420.5607421875 397.896484375 420.85 397.6 421.146484375 397.3107421875 421.15 396.9 421.146484375 396.4892578125 420.85 396.2 420.5607421875 395.903515625 420.15 395.9
M 427.15 395.9
L 424.15 395.9
Q 423.7392578125 395.903515625 423.45 396.2 423.153515625 396.4892578125 423.15 396.9 423.153515625 397.3107421875 423.45 397.6 423.7392578125 397.896484375 424.15 397.9
L 427.15 397.9
Q 427.5607421875 397.896484375 427.85 397.6 428.146484375 397.3107421875 428.15 396.9 428.146484375 396.4892578125 427.85 396.2 427.5607421875 395.903515625 427.15 395.9
M 434.15 395.9
L 431.15 395.9
Q 430.7392578125 395.903515625 430.45 396.2 430.153515625 396.4892578125 430.15 396.9 430.153515625 397.3107421875 430.45 397.6 430.7392578125 397.896484375 431.15 397.9
L 434.15 397.9
Q 434.5607421875 397.896484375 434.85 397.6 435.146484375 397.3107421875 435.15 396.9 435.146484375 396.4892578125 434.85 396.2 434.5607421875 395.903515625 434.15 395.9
M 441.15 395.9
L 438.15 395.9
Q 437.7392578125 395.903515625 437.45 396.2 437.153515625 396.4892578125 437.15 396.9 437.153515625 397.3107421875 437.45 397.6 437.7392578125 397.896484375 438.15 397.9
L 441.15 397.9
Q 441.5607421875 397.896484375 441.85 397.6 442.146484375 397.3107421875 442.15 396.9 442.146484375 396.4892578125 441.85 396.2 441.5607421875 395.903515625 441.15 395.9
M 448.85 341.3
Q 448.5607421875 341.003515625 448.15 341 447.7392578125 341.003515625 447.45 341.3 447.153515625 341.5892578125 447.15 342
L 447.15 345
Q 447.153515625 345.4107421875 447.45 345.7 447.7392578125 345.996484375 448.15 346 448.5607421875 345.996484375 448.85 345.7 449.146484375 345.4107421875 449.15 345
L 449.15 342
Q 449.146484375 341.5892578125 448.85 341.3
M 448.85 338.7
Q 449.146484375 338.4107421875 449.15 338
L 449.15 335
Q 449.146484375 334.5892578125 448.85 334.3 448.5607421875 334.003515625 448.15 334 447.7392578125 334.003515625 447.45 334.3 447.153515625 334.5892578125 447.15 335
L 447.15 338
Q 447.153515625 338.4107421875 447.45 338.7 447.7392578125 338.996484375 448.15 339 448.5607421875 338.996484375 448.85 338.7
M 448.85 327.3
Q 448.5607421875 327.003515625 448.15 327 447.7392578125 327.003515625 447.45 327.3 447.153515625 327.5892578125 447.15 328
L 447.15 331
Q 447.153515625 331.4107421875 447.45 331.7 447.7392578125 331.996484375 448.15 332 448.5607421875 331.996484375 448.85 331.7 449.146484375 331.4107421875 449.15 331
L 449.15 328
Q 449.146484375 327.5892578125 448.85 327.3
M 449.15 321
Q 449.146484375 320.5892578125 448.85 320.3 448.5607421875 320.003515625 448.15 320 447.7392578125 320.003515625 447.45 320.3 447.153515625 320.5892578125 447.15 321
L 447.15 324
Q 447.153515625 324.4107421875 447.45 324.7 447.7392578125 324.996484375 448.15 325 448.5607421875 324.996484375 448.85 324.7 449.146484375 324.4107421875 449.15 324
L 449.15 321
M 449.15 314
Q 449.146484375 313.5892578125 448.85 313.3 448.5607421875 313.003515625 448.15 313 447.7392578125 313.003515625 447.45 313.3 447.153515625 313.5892578125 447.15 314
L 447.15 317
Q 447.153515625 317.4107421875 447.45 317.7 447.7392578125 317.996484375 448.15 318 448.5607421875 317.996484375 448.85 317.7 449.146484375 317.4107421875 449.15 317
L 449.15 314
M 447.45 306.3
Q 447.153515625 306.5892578125 447.15 307
L 447.15 310
Q 447.153515625 310.4107421875 447.45 310.7 447.7392578125 310.996484375 448.15 311 448.5607421875 310.996484375 448.85 310.7 449.146484375 310.4107421875 449.15 310
L 449.15 307
Q 449.146484375 306.5892578125 448.85 306.3 448.5607421875 306.003515625 448.15 306 447.7392578125 306.003515625 447.45 306.3
M 449.15 303
L 449.15 300
Q 449.146484375 299.5892578125 448.85 299.3 448.5607421875 299.003515625 448.15 299 447.7392578125 299.003515625 447.45 299.3 447.153515625 299.5892578125 447.15 300
L 447.15 303
Q 447.153515625 303.4107421875 447.45 303.7 447.7392578125 303.996484375 448.15 304 448.5607421875 303.996484375 448.85 303.7 449.146484375 303.4107421875 449.15 303
M 371.15 395.9
L 368.15 395.9
Q 367.7392578125 395.903515625 367.45 396.2 367.153515625 396.4892578125 367.15 396.9 367.153515625 397.3107421875 367.45 397.6 367.7392578125 397.896484375 368.15 397.9
L 371.15 397.9
Q 371.5607421875 397.896484375 371.85 397.6 372.146484375 397.3107421875 372.15 396.9 372.146484375 396.4892578125 371.85 396.2 371.5607421875 395.903515625 371.15 395.9
M 378.15 395.9
L 375.15 395.9
Q 374.7392578125 395.903515625 374.45 396.2 374.153515625 396.4892578125 374.15 396.9 374.153515625 397.3107421875 374.45 397.6 374.7392578125 397.896484375 375.15 397.9
L 378.15 397.9
Q 378.5607421875 397.896484375 378.85 397.6 379.146484375 397.3107421875 379.15 396.9 379.146484375 396.4892578125 378.85 396.2 378.5607421875 395.903515625 378.15 395.9
M 385.15 395.9
L 382.15 395.9
Q 381.7392578125 395.903515625 381.45 396.2 381.153515625 396.4892578125 381.15 396.9 381.153515625 397.3107421875 381.45 397.6 381.7392578125 397.896484375 382.15 397.9
L 385.15 397.9
Q 385.5607421875 397.896484375 385.85 397.6 386.146484375 397.3107421875 386.15 396.9 386.146484375 396.4892578125 385.85 396.2 385.5607421875 395.903515625 385.15 395.9
M 392.15 395.9
L 389.15 395.9
Q 388.7392578125 395.903515625 388.45 396.2 388.153515625 396.4892578125 388.15 396.9 388.153515625 397.3107421875 388.45 397.6 388.7392578125 397.896484375 389.15 397.9
L 392.15 397.9
Q 392.5607421875 397.896484375 392.85 397.6 393.146484375 397.3107421875 393.15 396.9 393.146484375 396.4892578125 392.85 396.2 392.5607421875 395.903515625 392.15 395.9
M 399.15 395.9
L 396.15 395.9
Q 395.7392578125 395.903515625 395.45 396.2 395.153515625 396.4892578125 395.15 396.9 395.153515625 397.3107421875 395.45 397.6 395.7392578125 397.896484375 396.15 397.9
L 399.15 397.9
Q 399.5607421875 397.896484375 399.85 397.6 400.146484375 397.3107421875 400.15 396.9 400.146484375 396.4892578125 399.85 396.2 399.5607421875 395.903515625 399.15 395.9
M 364.15 395.9
L 361.15 395.9
Q 360.7392578125 395.903515625 360.45 396.2 360.153515625 396.4892578125 360.15 396.9 360.153515625 397.3107421875 360.45 397.6 360.7392578125 397.896484375 361.15 397.9
L 364.15 397.9
Q 364.5607421875 397.896484375 364.85 397.6 365.146484375 397.3107421875 365.15 396.9 365.146484375 396.4892578125 364.85 396.2 364.5607421875 395.903515625 364.15 395.9
M 357.15 395.9
L 354.15 395.9
Q 353.7392578125 395.903515625 353.45 396.2 353.153515625 396.4892578125 353.15 396.9 353.153515625 397.3107421875 353.45 397.6 353.7392578125 397.896484375 354.15 397.9
L 357.15 397.9
Q 357.5607421875 397.896484375 357.85 397.6 358.146484375 397.3107421875 358.15 396.9 358.146484375 396.4892578125 357.85 396.2 357.5607421875 395.903515625 357.15 395.9
M 350.15 395.9
L 347.15 395.9
Q 346.7392578125 395.903515625 346.45 396.2 346.153515625 396.4892578125 346.15 396.9 346.153515625 397.3107421875 346.45 397.6 346.7392578125 397.896484375 347.15 397.9
L 350.15 397.9
Q 350.5607421875 397.896484375 350.85 397.6 351.146484375 397.3107421875 351.15 396.9 351.146484375 396.4892578125 350.85 396.2 350.5607421875 395.903515625 350.15 395.9
M 336.15 395.9
L 331.2 395.9
Q 330.7892578125 395.903515625 330.5 396.2 330.203515625 396.4892578125 330.2 396.9 330.203515625 397.3107421875 330.5 397.6 330.7892578125 397.896484375 331.2 397.9
L 333.2 397.9 333.2 399.9
Q 333.203515625 400.3107421875 333.5 400.6 333.7892578125 400.896484375 334.2 400.9 334.6107421875 400.896484375 334.9 400.6 335.196484375 400.3107421875 335.2 399.9
L 335.2 397.9 336.15 397.9
Q 336.5607421875 397.896484375 336.85 397.6 337.146484375 397.3107421875 337.15 396.9 337.146484375 396.4892578125 336.85 396.2 336.5607421875 395.903515625 336.15 395.9
M 343.15 395.9
L 340.15 395.9
Q 339.7392578125 395.903515625 339.45 396.2 339.153515625 396.4892578125 339.15 396.9 339.153515625 397.3107421875 339.45 397.6 339.7392578125 397.896484375 340.15 397.9
L 343.15 397.9
Q 343.5607421875 397.896484375 343.85 397.6 344.146484375 397.3107421875 344.15 396.9 344.146484375 396.4892578125 343.85 396.2 343.5607421875 395.903515625 343.15 395.9
M 333.2 394
Q 333.203515625 394.4107421875 333.5 394.7 333.7892578125 394.996484375 334.2 395 334.6107421875 394.996484375 334.9 394.7 335.196484375 394.4107421875 335.2 394
L 335.2 391
Q 335.196484375 390.5892578125 334.9 390.3 334.6107421875 390.003515625 334.2 390 333.7892578125 390.003515625 333.5 390.3 333.203515625 390.5892578125 333.2 391
L 333.2 394
M 327.2 395.9
L 324.2 395.9
Q 323.7892578125 395.903515625 323.5 396.2 323.203515625 396.4892578125 323.2 396.9 323.203515625 397.3107421875 323.5 397.6 323.7892578125 397.896484375 324.2 397.9
L 327.2 397.9
Q 327.6107421875 397.896484375 327.9 397.6 328.196484375 397.3107421875 328.2 396.9 328.196484375 396.4892578125 327.9 396.2 327.6107421875 395.903515625 327.2 395.9
M 335.2 380
L 335.2 377
Q 335.196484375 376.5892578125 334.9 376.3 334.6107421875 376.003515625 334.2 376 333.7892578125 376.003515625 333.5 376.3 333.203515625 376.5892578125 333.2 377
L 333.2 380
Q 333.203515625 380.4107421875 333.5 380.7 333.7892578125 380.996484375 334.2 381 334.6107421875 380.996484375 334.9 380.7 335.196484375 380.4107421875 335.2 380
M 334.9 383.3
Q 334.6107421875 383.003515625 334.2 383 333.7892578125 383.003515625 333.5 383.3 333.203515625 383.5892578125 333.2 384
L 333.2 387
Q 333.203515625 387.4107421875 333.5 387.7 333.7892578125 387.996484375 334.2 388 334.6107421875 387.996484375 334.9 387.7 335.196484375 387.4107421875 335.2 387
L 335.2 384
Q 335.196484375 383.5892578125 334.9 383.3
M 333.5 369.3
Q 333.203515625 369.5892578125 333.2 370
L 333.2 373
Q 333.203515625 373.4107421875 333.5 373.7 333.7892578125 373.996484375 334.2 374 334.6107421875 373.996484375 334.9 373.7 335.196484375 373.4107421875 335.2 373
L 335.2 370
Q 335.196484375 369.5892578125 334.9 369.3 334.6107421875 369.003515625 334.2 369 333.7892578125 369.003515625 333.5 369.3
M 333.2 366
Q 333.203515625 366.4107421875 333.5 366.7 333.7892578125 366.996484375 334.2 367 334.6107421875 366.996484375 334.9 366.7 335.196484375 366.4107421875 335.2 366
L 335.2 363
Q 335.196484375 362.5892578125 334.9 362.3 334.6107421875 362.003515625 334.2 362 333.7892578125 362.003515625 333.5 362.3 333.203515625 362.5892578125 333.2 363
L 333.2 366
M 334.9 355.3
Q 334.6107421875 355.003515625 334.2 355 333.7892578125 355.003515625 333.5 355.3 333.203515625 355.5892578125 333.2 356
L 333.2 359
Q 333.203515625 359.4107421875 333.5 359.7 333.7892578125 359.996484375 334.2 360 334.6107421875 359.996484375 334.9 359.7 335.196484375 359.4107421875 335.2 359
L 335.2 356
Q 335.196484375 355.5892578125 334.9 355.3
M 335.2 352
L 335.2 349
Q 335.196484375 348.5892578125 334.9 348.3 334.6107421875 348.003515625 334.2 348 333.7892578125 348.003515625 333.5 348.3 333.203515625 348.5892578125 333.2 349
L 333.2 352
Q 333.203515625 352.4107421875 333.5 352.7 333.7892578125 352.996484375 334.2 353 334.6107421875 352.996484375 334.9 352.7 335.196484375 352.4107421875 335.2 352
M 333.2 345
Q 333.203515625 345.4107421875 333.5 345.7 333.7892578125 345.996484375 334.2 346 334.6107421875 345.996484375 334.9 345.7 335.196484375 345.4107421875 335.2 345
L 335.2 342
Q 335.196484375 341.5892578125 334.9 341.3 334.6107421875 341.003515625 334.2 341 333.7892578125 341.003515625 333.5 341.3 333.203515625 341.5892578125 333.2 342
L 333.2 345
M 333.2 338
Q 333.203515625 338.4107421875 333.5 338.7 333.7892578125 338.996484375 334.2 339 334.6107421875 338.996484375 334.9 338.7 335.196484375 338.4107421875 335.2 338
L 335.2 335
Q 335.196484375 334.5892578125 334.9 334.3 334.6107421875 334.003515625 334.2 334 333.7892578125 334.003515625 333.5 334.3 333.203515625 334.5892578125 333.2 335
L 333.2 338
M 334.9 331.7
Q 335.196484375 331.4107421875 335.2 331
L 335.2 328
Q 335.196484375 327.5892578125 334.9 327.3 334.6107421875 327.003515625 334.2 327 333.7892578125 327.003515625 333.5 327.3 333.203515625 327.5892578125 333.2 328
L 333.2 331
Q 333.203515625 331.4107421875 333.5 331.7 333.7892578125 331.996484375 334.2 332 334.6107421875 331.996484375 334.9 331.7
M 333.5 320.3
Q 333.203515625 320.5892578125 333.2 321
L 333.2 324
Q 333.203515625 324.4107421875 333.5 324.7 333.7892578125 324.996484375 334.2 325 334.6107421875 324.996484375 334.9 324.7 335.196484375 324.4107421875 335.2 324
L 335.2 321
Q 335.196484375 320.5892578125 334.9 320.3 334.6107421875 320.003515625 334.2 320 333.7892578125 320.003515625 333.5 320.3
M 333.2 317
Q 333.203515625 317.4107421875 333.5 317.7 333.7892578125 317.996484375 334.2 318 334.6107421875 317.996484375 334.9 317.7 335.196484375 317.4107421875 335.2 317
L 335.2 314
Q 335.196484375 313.5892578125 334.9 313.3 334.6107421875 313.003515625 334.2 313 333.7892578125 313.003515625 333.5 313.3 333.203515625 313.5892578125 333.2 314
L 333.2 317
M 334.9 306.3
Q 334.6107421875 306.003515625 334.2 306 333.7892578125 306.003515625 333.5 306.3 333.203515625 306.5892578125 333.2 307
L 333.2 310
Q 333.203515625 310.4107421875 333.5 310.7 333.7892578125 310.996484375 334.2 311 334.6107421875 310.996484375 334.9 310.7 335.196484375 310.4107421875 335.2 310
L 335.2 307
Q 335.196484375 306.5892578125 334.9 306.3
M 334.9 303.7
Q 335.196484375 303.4107421875 335.2 303
L 335.2 300
Q 335.196484375 299.5892578125 334.9 299.3 334.6107421875 299.003515625 334.2 299 333.7892578125 299.003515625 333.5 299.3 333.203515625 299.5892578125 333.2 300
L 333.2 303
Q 333.203515625 303.4107421875 333.5 303.7 333.7892578125 303.996484375 334.2 304 334.6107421875 303.996484375 334.9 303.7
M 677.1 487.9
Q 677.096484375 487.4892578125 676.8 487.2 676.5107421875 486.903515625 676.1 486.9 675.6892578125 486.903515625 675.4 487.2 675.103515625 487.4892578125 675.1 487.9
L 675.1 490.9
Q 675.103515625 491.3107421875 675.4 491.6 675.6892578125 491.896484375 676.1 491.9 676.5107421875 491.896484375 676.8 491.6 677.096484375 491.3107421875 677.1 490.9
L 677.1 487.9
M 675.4 480.2
Q 675.103515625 480.4892578125 675.1 480.9
L 675.1 483.9
Q 675.103515625 484.3107421875 675.4 484.6 675.6892578125 484.896484375 676.1 484.9 676.5107421875 484.896484375 676.8 484.6 677.096484375 484.3107421875 677.1 483.9
L 677.1 480.9
Q 677.096484375 480.4892578125 676.8 480.2 676.5107421875 479.903515625 676.1 479.9 675.6892578125 479.903515625 675.4 480.2
M 677.1 473.9
Q 677.096484375 473.4892578125 676.8 473.2 676.5107421875 472.903515625 676.1 472.9 675.6892578125 472.903515625 675.4 473.2 675.103515625 473.4892578125 675.1 473.9
L 675.1 476.9
Q 675.103515625 477.3107421875 675.4 477.6 675.6892578125 477.896484375 676.1 477.9 676.5107421875 477.896484375 676.8 477.6 677.096484375 477.3107421875 677.1 476.9
L 677.1 473.9
M 677.1 469.9
L 677.1 466.9
Q 677.096484375 466.4892578125 676.8 466.2 676.5107421875 465.903515625 676.1 465.9 675.6892578125 465.903515625 675.4 466.2 675.103515625 466.4892578125 675.1 466.9
L 675.1 469.9
Q 675.103515625 470.3107421875 675.4 470.6 675.6892578125 470.896484375 676.1 470.9 676.5107421875 470.896484375 676.8 470.6 677.096484375 470.3107421875 677.1 469.9
M 676.8 459.2
Q 676.5107421875 458.903515625 676.1 458.9 675.6892578125 458.903515625 675.4 459.2 675.103515625 459.4892578125 675.1 459.9
L 675.1 462.9
Q 675.103515625 463.3107421875 675.4 463.6 675.6892578125 463.896484375 676.1 463.9 676.5107421875 463.896484375 676.8 463.6 677.096484375 463.3107421875 677.1 462.9
L 677.1 459.9
Q 677.096484375 459.4892578125 676.8 459.2
M 676.8 452.2
Q 676.5107421875 451.903515625 676.1 451.9 675.6892578125 451.903515625 675.4 452.2 675.103515625 452.4892578125 675.1 452.9
L 675.1 455.9
Q 675.103515625 456.3107421875 675.4 456.6 675.6892578125 456.896484375 676.1 456.9 676.5107421875 456.896484375 676.8 456.6 677.096484375 456.3107421875 677.1 455.9
L 677.1 452.9
Q 677.096484375 452.4892578125 676.8 452.2
M 676.1 444.9
Q 675.6892578125 444.903515625 675.4 445.2 675.103515625 445.4892578125 675.1 445.9
L 675.1 448.9
Q 675.103515625 449.3107421875 675.4 449.6 675.6892578125 449.896484375 676.1 449.9 676.5107421875 449.896484375 676.8 449.6 677.096484375 449.3107421875 677.1 448.9
L 677.1 445.9
Q 677.096484375 445.4892578125 676.8 445.2 676.5107421875 444.903515625 676.1 444.9
M 677.1 438.9
Q 677.096484375 438.4892578125 676.8 438.2 676.5107421875 437.903515625 676.1 437.9 675.6892578125 437.903515625 675.4 438.2 675.103515625 438.4892578125 675.1 438.9
L 675.1 441.9
Q 675.103515625 442.3107421875 675.4 442.6 675.6892578125 442.896484375 676.1 442.9 676.5107421875 442.896484375 676.8 442.6 677.096484375 442.3107421875 677.1 441.9
L 677.1 438.9
M 675.4 431.2
Q 675.103515625 431.4892578125 675.1 431.9
L 675.1 434.9
Q 675.103515625 435.3107421875 675.4 435.6 675.6892578125 435.896484375 676.1 435.9 676.5107421875 435.896484375 676.8 435.6 677.096484375 435.3107421875 677.1 434.9
L 677.1 431.9
Q 677.096484375 431.4892578125 676.8 431.2 676.5107421875 430.903515625 676.1 430.9 675.6892578125 430.903515625 675.4 431.2
M 677.1 424.9
Q 677.096484375 424.4892578125 676.8 424.2 676.5107421875 423.903515625 676.1 423.9 675.6892578125 423.903515625 675.4 424.2 675.103515625 424.4892578125 675.1 424.9
L 675.1 427.9
Q 675.103515625 428.3107421875 675.4 428.6 675.6892578125 428.896484375 676.1 428.9 676.5107421875 428.896484375 676.8 428.6 677.096484375 428.3107421875 677.1 427.9
L 677.1 424.9
M 649.1 397.9
Q 649.5107421875 397.896484375 649.8 397.6 650.096484375 397.3107421875 650.1 396.9 650.096484375 396.4892578125 649.8 396.2 649.5107421875 395.903515625 649.1 395.9
L 646.1 395.9
Q 645.6892578125 395.903515625 645.4 396.2 645.103515625 396.4892578125 645.1 396.9 645.103515625 397.3107421875 645.4 397.6 645.6892578125 397.896484375 646.1 397.9
L 649.1 397.9
M 677.1 417.9
Q 677.096484375 417.4892578125 676.8 417.2 676.5107421875 416.903515625 676.1 416.9 675.6892578125 416.903515625 675.4 417.2 675.103515625 417.4892578125 675.1 417.9
L 675.1 420.9
Q 675.103515625 421.3107421875 675.4 421.6 675.6892578125 421.896484375 676.1 421.9 676.5107421875 421.896484375 676.8 421.6 677.096484375 421.3107421875 677.1 420.9
L 677.1 417.9
M 677.1 413.9
L 677.1 410.9
Q 677.096484375 410.4892578125 676.8 410.2 676.5107421875 409.903515625 676.1 409.9 675.6892578125 409.903515625 675.4 410.2 675.103515625 410.4892578125 675.1 410.9
L 675.1 413.9
Q 675.103515625 414.3107421875 675.4 414.6 675.6892578125 414.896484375 676.1 414.9 676.5107421875 414.896484375 676.8 414.6 677.096484375 414.3107421875 677.1 413.9
M 676.8 403.2
Q 676.5107421875 402.903515625 676.1 402.9 675.6892578125 402.903515625 675.4 403.2 675.103515625 403.4892578125 675.1 403.9
L 675.1 406.9
Q 675.103515625 407.3107421875 675.4 407.6 675.6892578125 407.896484375 676.1 407.9 676.5107421875 407.896484375 676.8 407.6 677.096484375 407.3107421875 677.1 406.9
L 677.1 403.9
Q 677.096484375 403.4892578125 676.8 403.2
M 770.1 395.9
L 767.1 395.9
Q 766.6892578125 395.903515625 766.4 396.2 766.103515625 396.4892578125 766.1 396.9 766.103515625 397.3107421875 766.4 397.6 766.6892578125 397.896484375 767.1 397.9
L 770.1 397.9
Q 770.5107421875 397.896484375 770.8 397.6 771.096484375 397.3107421875 771.1 396.9 771.096484375 396.4892578125 770.8 396.2 770.5107421875 395.903515625 770.1 395.9
M 763.1 395.9
L 760.1 395.9
Q 759.6892578125 395.903515625 759.4 396.2 759.103515625 396.4892578125 759.1 396.9 759.103515625 397.3107421875 759.4 397.6 759.6892578125 397.896484375 760.1 397.9
L 763.1 397.9
Q 763.5107421875 397.896484375 763.8 397.6 764.096484375 397.3107421875 764.1 396.9 764.096484375 396.4892578125 763.8 396.2 763.5107421875 395.903515625 763.1 395.9
M 756.1 395.9
L 753.1 395.9
Q 752.6892578125 395.903515625 752.4 396.2 752.103515625 396.4892578125 752.1 396.9 752.103515625 397.3107421875 752.4 397.6 752.6892578125 397.896484375 753.1 397.9
L 756.1 397.9
Q 756.5107421875 397.896484375 756.8 397.6 757.096484375 397.3107421875 757.1 396.9 757.096484375 396.4892578125 756.8 396.2 756.5107421875 395.903515625 756.1 395.9
M 749.1 395.9
L 746.1 395.9
Q 745.6892578125 395.903515625 745.4 396.2 745.103515625 396.4892578125 745.1 396.9 745.103515625 397.3107421875 745.4 397.6 745.6892578125 397.896484375 746.1 397.9
L 749.1 397.9
Q 749.5107421875 397.896484375 749.8 397.6 750.096484375 397.3107421875 750.1 396.9 750.096484375 396.4892578125 749.8 396.2 749.5107421875 395.903515625 749.1 395.9
M 742.1 395.9
L 739.1 395.9
Q 738.6892578125 395.903515625 738.4 396.2 738.103515625 396.4892578125 738.1 396.9 738.103515625 397.3107421875 738.4 397.6 738.6892578125 397.896484375 739.1 397.9
L 742.1 397.9
Q 742.5107421875 397.896484375 742.8 397.6 743.096484375 397.3107421875 743.1 396.9 743.096484375 396.4892578125 742.8 396.2 742.5107421875 395.903515625 742.1 395.9
M 735.1 395.9
L 732.1 395.9
Q 731.6892578125 395.903515625 731.4 396.2 731.103515625 396.4892578125 731.1 396.9 731.103515625 397.3107421875 731.4 397.6 731.6892578125 397.896484375 732.1 397.9
L 735.1 397.9
Q 735.5107421875 397.896484375 735.8 397.6 736.096484375 397.3107421875 736.1 396.9 736.096484375 396.4892578125 735.8 396.2 735.5107421875 395.903515625 735.1 395.9
M 728.1 395.9
L 725.1 395.9
Q 724.6892578125 395.903515625 724.4 396.2 724.103515625 396.4892578125 724.1 396.9 724.103515625 397.3107421875 724.4 397.6 724.6892578125 397.896484375 725.1 397.9
L 728.1 397.9
Q 728.5107421875 397.896484375 728.8 397.6 729.096484375 397.3107421875 729.1 396.9 729.096484375 396.4892578125 728.8 396.2 728.5107421875 395.903515625 728.1 395.9
M 721.1 395.9
L 718.1 395.9
Q 717.6892578125 395.903515625 717.4 396.2 717.103515625 396.4892578125 717.1 396.9 717.103515625 397.3107421875 717.4 397.6 717.6892578125 397.896484375 718.1 397.9
L 721.1 397.9
Q 721.5107421875 397.896484375 721.8 397.6 722.096484375 397.3107421875 722.1 396.9 722.096484375 396.4892578125 721.8 396.2 721.5107421875 395.903515625 721.1 395.9
M 714.1 395.9
L 711.1 395.9
Q 710.6892578125 395.903515625 710.4 396.2 710.103515625 396.4892578125 710.1 396.9 710.103515625 397.3107421875 710.4 397.6 710.6892578125 397.896484375 711.1 397.9
L 714.1 397.9
Q 714.5107421875 397.896484375 714.8 397.6 715.096484375 397.3107421875 715.1 396.9 715.096484375 396.4892578125 714.8 396.2 714.5107421875 395.903515625 714.1 395.9
M 707.1 395.9
L 704.1 395.9
Q 703.6892578125 395.903515625 703.4 396.2 703.103515625 396.4892578125 703.1 396.9 703.103515625 397.3107421875 703.4 397.6 703.6892578125 397.896484375 704.1 397.9
L 707.1 397.9
Q 707.5107421875 397.896484375 707.8 397.6 708.096484375 397.3107421875 708.1 396.9 708.096484375 396.4892578125 707.8 396.2 707.5107421875 395.903515625 707.1 395.9
M 700.1 395.9
L 697.1 395.9
Q 696.6892578125 395.903515625 696.4 396.2 696.103515625 396.4892578125 696.1 396.9 696.103515625 397.3107421875 696.4 397.6 696.6892578125 397.896484375 697.1 397.9
L 700.1 397.9
Q 700.5107421875 397.896484375 700.8 397.6 701.096484375 397.3107421875 701.1 396.9 701.096484375 396.4892578125 700.8 396.2 700.5107421875 395.903515625 700.1 395.9
M 693.1 395.9
L 690.1 395.9
Q 689.6892578125 395.903515625 689.4 396.2 689.103515625 396.4892578125 689.1 396.9 689.103515625 397.3107421875 689.4 397.6 689.6892578125 397.896484375 690.1 397.9
L 693.1 397.9
Q 693.5107421875 397.896484375 693.8 397.6 694.096484375 397.3107421875 694.1 396.9 694.096484375 396.4892578125 693.8 396.2 693.5107421875 395.903515625 693.1 395.9
M 670.1 395.9
L 667.1 395.9
Q 666.6892578125 395.903515625 666.4 396.2 666.103515625 396.4892578125 666.1 396.9 666.103515625 397.3107421875 666.4 397.6 666.6892578125 397.896484375 667.1 397.9
L 670.1 397.9
Q 670.5107421875 397.896484375 670.8 397.6 671.096484375 397.3107421875 671.1 396.9 671.096484375 396.4892578125 670.8 396.2 670.5107421875 395.903515625 670.1 395.9
M 679.1 395.9
L 674.1 395.9
Q 673.6892578125 395.903515625 673.4 396.2 673.103515625 396.4892578125 673.1 396.9 673.103515625 397.3107421875 673.4 397.6 673.6892578125 397.896484375 674.1 397.9
L 675.1 397.9 675.1 399.9
Q 675.103515625 400.3107421875 675.4 400.6 675.6892578125 400.896484375 676.1 400.9 676.5107421875 400.896484375 676.8 400.6 677.096484375 400.3107421875 677.1 399.9
L 677.1 397.9 679.1 397.9
Q 679.5107421875 397.896484375 679.8 397.6 680.096484375 397.3107421875 680.1 396.9 680.096484375 396.4892578125 679.8 396.2 679.5107421875 395.903515625 679.1 395.9
M 686.1 395.9
L 683.1 395.9
Q 682.6892578125 395.903515625 682.4 396.2 682.103515625 396.4892578125 682.1 396.9 682.103515625 397.3107421875 682.4 397.6 682.6892578125 397.896484375 683.1 397.9
L 686.1 397.9
Q 686.5107421875 397.896484375 686.8 397.6 687.096484375 397.3107421875 687.1 396.9 687.096484375 396.4892578125 686.8 396.2 686.5107421875 395.903515625 686.1 395.9
M 676.8 390.3
Q 676.5107421875 390.003515625 676.1 390 675.6892578125 390.003515625 675.4 390.3 675.103515625 390.5892578125 675.1 391
L 675.1 394
Q 675.103515625 394.4107421875 675.4 394.7 675.6892578125 394.996484375 676.1 395 676.5107421875 394.996484375 676.8 394.7 677.096484375 394.4107421875 677.1 394
L 677.1 391
Q 677.096484375 390.5892578125 676.8 390.3
M 676.1 383
Q 675.6892578125 383.003515625 675.4 383.3 675.103515625 383.5892578125 675.1 384
L 675.1 387
Q 675.103515625 387.4107421875 675.4 387.7 675.6892578125 387.996484375 676.1 388 676.5107421875 387.996484375 676.8 387.7 677.096484375 387.4107421875 677.1 387
L 677.1 384
Q 677.096484375 383.5892578125 676.8 383.3 676.5107421875 383.003515625 676.1 383
M 675.4 376.3
Q 675.103515625 376.5892578125 675.1 377
L 675.1 380
Q 675.103515625 380.4107421875 675.4 380.7 675.6892578125 380.996484375 676.1 381 676.5107421875 380.996484375 676.8 380.7 677.096484375 380.4107421875 677.1 380
L 677.1 377
Q 677.096484375 376.5892578125 676.8 376.3 676.5107421875 376.003515625 676.1 376 675.6892578125 376.003515625 675.4 376.3
M 663.1 395.9
L 660.1 395.9
Q 659.6892578125 395.903515625 659.4 396.2 659.103515625 396.4892578125 659.1 396.9 659.103515625 397.3107421875 659.4 397.6 659.6892578125 397.896484375 660.1 397.9
L 663.1 397.9
Q 663.5107421875 397.896484375 663.8 397.6 664.096484375 397.3107421875 664.1 396.9 664.096484375 396.4892578125 663.8 396.2 663.5107421875 395.903515625 663.1 395.9
M 656.1 395.9
L 653.1 395.9
Q 652.6892578125 395.903515625 652.4 396.2 652.103515625 396.4892578125 652.1 396.9 652.103515625 397.3107421875 652.4 397.6 652.6892578125 397.896484375 653.1 397.9
L 656.1 397.9
Q 656.5107421875 397.896484375 656.8 397.6 657.096484375 397.3107421875 657.1 396.9 657.096484375 396.4892578125 656.8 396.2 656.5107421875 395.903515625 656.1 395.9
M 677.1 370
Q 677.096484375 369.5892578125 676.8 369.3 676.5107421875 369.003515625 676.1 369 675.6892578125 369.003515625 675.4 369.3 675.103515625 369.5892578125 675.1 370
L 675.1 373
Q 675.103515625 373.4107421875 675.4 373.7 675.6892578125 373.996484375 676.1 374 676.5107421875 373.996484375 676.8 373.7 677.096484375 373.4107421875 677.1 373
L 677.1 370
M 677.1 363
Q 677.096484375 362.5892578125 676.8 362.3 676.5107421875 362.003515625 676.1 362 675.6892578125 362.003515625 675.4 362.3 675.103515625 362.5892578125 675.1 363
L 675.1 366
Q 675.103515625 366.4107421875 675.4 366.7 675.6892578125 366.996484375 676.1 367 676.5107421875 366.996484375 676.8 366.7 677.096484375 366.4107421875 677.1 366
L 677.1 363
M 675.4 355.3
Q 675.103515625 355.5892578125 675.1 356
L 675.1 359
Q 675.103515625 359.4107421875 675.4 359.7 675.6892578125 359.996484375 676.1 360 676.5107421875 359.996484375 676.8 359.7 677.096484375 359.4107421875 677.1 359
L 677.1 356
Q 677.096484375 355.5892578125 676.8 355.3 676.5107421875 355.003515625 676.1 355 675.6892578125 355.003515625 675.4 355.3
M 677.1 352
L 677.1 349
Q 677.096484375 348.5892578125 676.8 348.3 676.5107421875 348.003515625 676.1 348 675.6892578125 348.003515625 675.4 348.3 675.103515625 348.5892578125 675.1 349
L 675.1 352
Q 675.103515625 352.4107421875 675.4 352.7 675.6892578125 352.996484375 676.1 353 676.5107421875 352.996484375 676.8 352.7 677.096484375 352.4107421875 677.1 352
M 676.8 341.3
Q 676.5107421875 341.003515625 676.1 341 675.6892578125 341.003515625 675.4 341.3 675.103515625 341.5892578125 675.1 342
L 675.1 345
Q 675.103515625 345.4107421875 675.4 345.7 675.6892578125 345.996484375 676.1 346 676.5107421875 345.996484375 676.8 345.7 677.096484375 345.4107421875 677.1 345
L 677.1 342
Q 677.096484375 341.5892578125 676.8 341.3
M 676.8 338.7
Q 677.096484375 338.4107421875 677.1 338
L 677.1 335
Q 677.096484375 334.5892578125 676.8 334.3 676.5107421875 334.003515625 676.1 334 675.6892578125 334.003515625 675.4 334.3 675.103515625 334.5892578125 675.1 335
L 675.1 338
Q 675.103515625 338.4107421875 675.4 338.7 675.6892578125 338.996484375 676.1 339 676.5107421875 338.996484375 676.8 338.7
M 676.8 327.3
Q 676.5107421875 327.003515625 676.1 327 675.6892578125 327.003515625 675.4 327.3 675.103515625 327.5892578125 675.1 328
L 675.1 331
Q 675.103515625 331.4107421875 675.4 331.7 675.6892578125 331.996484375 676.1 332 676.5107421875 331.996484375 676.8 331.7 677.096484375 331.4107421875 677.1 331
L 677.1 328
Q 677.096484375 327.5892578125 676.8 327.3
M 677.1 321
Q 677.096484375 320.5892578125 676.8 320.3 676.5107421875 320.003515625 676.1 320 675.6892578125 320.003515625 675.4 320.3 675.103515625 320.5892578125 675.1 321
L 675.1 324
Q 675.103515625 324.4107421875 675.4 324.7 675.6892578125 324.996484375 676.1 325 676.5107421875 324.996484375 676.8 324.7 677.096484375 324.4107421875 677.1 324
L 677.1 321
M 677.1 314
Q 677.096484375 313.5892578125 676.8 313.3 676.5107421875 313.003515625 676.1 313 675.6892578125 313.003515625 675.4 313.3 675.103515625 313.5892578125 675.1 314
L 675.1 317
Q 675.103515625 317.4107421875 675.4 317.7 675.6892578125 317.996484375 676.1 318 676.5107421875 317.996484375 676.8 317.7 677.096484375 317.4107421875 677.1 317
L 677.1 314
M 675.4 306.3
Q 675.103515625 306.5892578125 675.1 307
L 675.1 310
Q 675.103515625 310.4107421875 675.4 310.7 675.6892578125 310.996484375 676.1 311 676.5107421875 310.996484375 676.8 310.7 677.096484375 310.4107421875 677.1 310
L 677.1 307
Q 677.096484375 306.5892578125 676.8 306.3 676.5107421875 306.003515625 676.1 306 675.6892578125 306.003515625 675.4 306.3
M 677.1 303
L 677.1 300
Q 677.096484375 299.5892578125 676.8 299.3 676.5107421875 299.003515625 676.1 299 675.6892578125 299.003515625 675.4 299.3 675.103515625 299.5892578125 675.1 300
L 675.1 303
Q 675.103515625 303.4107421875 675.4 303.7 675.6892578125 303.996484375 676.1 304 676.5107421875 303.996484375 676.8 303.7 677.096484375 303.4107421875 677.1 303 Z"/>
</g>

<path id="Layer1_0_1_STROKES" stroke="#EA5B70" stroke-width="3" stroke-linejoin="round" stroke-linecap="butt" fill="none" d="
M 676.1 300
L 676.1 282.95 562.1 282.95 562.1 300
M 772.95 396.9
L 790.05 396.9 790.05 282.95 676.1 282.95
M 676.1 493.75
L 676.1 510.85 790.05 510.85 790.05 396.9
M 334.2 300
L 334.2 282.95 220.25 282.95 220.25 300
M 334.2 282.95
L 448.15 282.95 448.15 300
M 562.1 282.95
L 448.15 282.95
M 220.25 282.95
L 106.3 282.95 106.3 396.9 123.35 396.9
M 220.25 493.75
L 220.25 510.85 334.2 510.85 334.2 493.75
M 106.3 396.9
L 106.3 510.85 220.25 510.85
M 562.1 493.75
L 562.1 510.85 676.1 510.85
M 448.15 493.75
L 448.15 510.85 562.1 510.85
M 334.2 510.85
L 448.15 510.85"/>
</defs>

<g transform="matrix( 1, 0, 0, 1, 0,0) ">
<use xlink:href="#Layer1_0_FILL"/>

<use xlink:href="#Layer1_0_1_STROKES"/>

<use xlink:href="#Layer1_0_STROKES_1_FILL"/>
</g>
</svg>
