
<svg xmlns="http://www.w3.org/2000/svg" version="1.1" xmlns:xlink="http://www.w3.org/1999/xlink" preserveAspectRatio="none" x="0px" y="0px" width="1280px" height="720px" viewBox="0 0 1280 720">
<defs>
<path id="Layer1_0_1_STROKES" stroke="#EA5B70" stroke-width="3" stroke-linejoin="round" stroke-linecap="butt" fill="none" d="
M 676.1 282.95
L 790.05 282.95 790.05 396.9 790.05 510.85 676.1 510.85 562.1 510.85 448.15 510.85 334.2 510.85 220.25 510.85 106.3 510.85 106.3 396.9 106.3 282.95 220.25 282.95 334.2 282.95 448.15 282.95 562.1 282.95 676.1 282.95 676.1 300
M 790.05 396.9
L 772.95 396.9
M 676.1 510.85
L 676.1 493.75
M 334.2 300
L 334.2 282.95
M 448.15 300
L 448.15 282.95
M 562.1 300
L 562.1 282.95
M 220.25 300
L 220.25 282.95
M 220.25 510.85
L 220.25 493.75
M 123.35 396.9
L 106.3 396.9
M 562.1 510.85
L 562.1 493.75
M 448.15 510.85
L 448.15 493.75
M 334.2 510.85
L 334.2 493.75"/>
</defs>

<g transform="matrix( 1, 0, 0, 1, 0,0) ">
<use xlink:href="#Layer1_0_1_STROKES"/>
</g>
</svg>
