<svg xmlns="http://www.w3.org/2000/svg" xmlns:xlink="http://www.w3.org/1999/xlink" viewBox="0 0 300.41 63.09"><defs><style>.cls-1,.cls-3,.cls-8,.cls-9{fill:none;}.cls-2{clip-path:url(#clip-path);}.cls-3{stroke:#231815;}.cls-3,.cls-8{stroke-linejoin:round;stroke-width:0.8px;}.cls-4{clip-path:url(#clip-path-2);}.cls-5{clip-path:url(#clip-path-3);}.cls-6{fill:#e18824;}.cls-7{font-size:9.8px;font-family:NanumSquareRoundB, NanumSquareRound;}.cls-8{stroke:#00a0e9;}.cls-9{stroke:#e4007f;stroke-width:0.3px;}</style><clipPath id="clip-path"><rect class="cls-1" y="62.19" width="70.86" height="0.8"/></clipPath><clipPath id="clip-path-2"><rect class="cls-1" x="135.25" y="6.3" width="0.8" height="56.69"/></clipPath><clipPath id="clip-path-3"><rect class="cls-1" x="200.43" y="62.19" width="70.87" height="0.8"/></clipPath></defs><title>자산 2</title><g id="레이어_2" data-name="레이어 2"><g id="레이어_1-2" data-name="레이어 1"><g id="레이어_1-2-2" data-name="레이어 1-2"><g class="cls-2"><line class="cls-3" y1="62.59" x2="70.87" y2="62.59"/></g><g class="cls-4"><line class="cls-3" x1="135.65" y1="6.3" x2="135.65" y2="62.99"/></g><g class="cls-5"><line class="cls-3" x1="200.43" y1="62.59" x2="271.3" y2="62.59"/></g></g><path class="cls-6" d="M8,10.78A4.42,4.42,0,0,1,3.58,6.3,4.45,4.45,0,0,1,8,1.83a4.4,4.4,0,0,1,4.4,4.48A4.41,4.41,0,0,1,8,10.78ZM7.82,7.51l.31,0,0,1.57h.52A1,1,0,0,0,9.05,9S9,7.49,9,6.31V3.74c0-.09.16-.41,0-.46a7.44,7.44,0,0,0-.9,0s0,.45,0,.74v.79l-.29,0-.41,0-.28-.37a1.29,1.29,0,0,0-1-.53c-.24,0-1.43,0-1.43,2.2S6,8.24,6.15,8.25a1.12,1.12,0,0,0,1-.48c.24-.3.26-.24.26-.24ZM6.7,6.08c0,1.33-.45,1.31-.55,1.31s-.56,0-.59-1.31S6,4.7,6.15,4.7,6.69,4.68,6.7,6.08Zm1.15-.49.28,0V6.73l-.24,0-.36,0s0-.32,0-.54,0-.57,0-.58ZM9.59,9.54H10c.3,0,.56-.06.57-.06s0-1.86,0-3.47c0-1,0-2.45,0-2.49s.12-.31,0-.4a3.27,3.27,0,0,0-.91-.05l0,3C9.61,7.45,9.59,9.54,9.59,9.54Z"/><text class="cls-7" transform="translate(48.14 12.32) scale(1 1.02)"> </text><line class="cls-8" x1="21.2" y1="3.9" x2="70.45" y2="62.59"/><line class="cls-8" x1="300.05" y1="0.17" x2="270.94" y2="62.72"/><line class="cls-8" x1="197.94" y1="62.69" x2="136.2" y2="62.69"/><path class="cls-9" d="M259.22,63a9.67,9.67,0,0,1-.12-1.53,10.12,10.12,0,0,1,16.19-8.1"/><path class="cls-9" d="M52.9,62.57A10.31,10.31,0,0,1,59.9,50"/><polyline class="cls-9" points="135.71 50.66 147.52 50.66 147.52 62.46"/></g></g></svg>