<?xml version="1.0" encoding="utf-8"?>
<!-- Generator: Adobe Illustrator 24.1.1, SVG Export Plug-In . SVG Version: 6.00 Build 0)  -->
<svg version="1.1" id="레이어_1" xmlns="http://www.w3.org/2000/svg" xmlns:xlink="http://www.w3.org/1999/xlink" x="0px"
	 y="0px" width="768px" height="205px" viewBox="0 0 768 205" style="enable-background:new 0 0 768 205;" xml:space="preserve">
<g>
	<g style="opacity:0.3;">
		<path style="fill:#FFFFFF;" d="M747.3,202H20.7C11,202,3,194,3,184.3V20.7C3,11,11,3,20.7,3h726.6C757,3,765,11,765,20.7v163.6
			C765,194,757,202,747.3,202z"/>
	</g>
	<g>
		<path d="M747.3,204H20.7C9.8,204,1,195.2,1,184.3V20.7C1,9.8,9.8,1,20.7,1h726.6C758.2,1,767,9.8,767,20.7v163.6
			C767,195.2,758.2,204,747.3,204z M20.7,5C12.1,5,5,12.1,5,20.7v163.6c0,8.7,7.1,15.7,15.7,15.7h726.6c8.7,0,15.7-7.1,15.7-15.7
			V20.7c0-8.7-7.1-15.7-15.7-15.7H20.7z"/>
	</g>
	<g>
		<g>
			<path d="M49,57c-1.4,0-2.5-1.1-2.5-2.5v-50C46.5,3.1,47.6,2,49,2s2.5,1.1,2.5,2.5v50C51.5,55.9,50.3,57,49,57z"/>
		</g>
		<g>
			<path d="M91.8,31c-1.4,0-2.5-1.1-2.5-2.5v-24c0-1.4,1.1-2.5,2.5-2.5s2.5,1.1,2.5,2.5v24C94.3,29.9,93.2,31,91.8,31z"/>
		</g>
		<g>
			<path d="M138.6,57c-1.4,0-2.5-1.1-2.5-2.5v-50c0-1.4,1.1-2.5,2.5-2.5s2.5,1.1,2.5,2.5v50C141.1,55.9,139.9,57,138.6,57z"/>
		</g>
		<g>
			<path d="M181.4,31c-1.4,0-2.5-1.1-2.5-2.5v-24c0-1.4,1.1-2.5,2.5-2.5s2.5,1.1,2.5,2.5v24C183.9,29.9,182.8,31,181.4,31z"/>
		</g>
		<g>
			<path d="M228.2,57c-1.4,0-2.5-1.1-2.5-2.5v-50c0-1.4,1.1-2.5,2.5-2.5s2.5,1.1,2.5,2.5v50C230.7,55.9,229.6,57,228.2,57z"/>
		</g>
		<g>
			<path d="M271,31c-1.4,0-2.5-1.1-2.5-2.5v-24c0-1.4,1.1-2.5,2.5-2.5s2.5,1.1,2.5,2.5v24C273.5,29.9,272.4,31,271,31z"/>
		</g>
		<g>
			<path d="M317.8,57c-1.4,0-2.5-1.1-2.5-2.5v-50c0-1.4,1.1-2.5,2.5-2.5s2.5,1.1,2.5,2.5v50C320.3,55.9,319.2,57,317.8,57z"/>
		</g>
		<g>
			<path d="M360.6,31c-1.4,0-2.5-1.1-2.5-2.5v-24c0-1.4,1.1-2.5,2.5-2.5s2.5,1.1,2.5,2.5v24C363.1,29.9,362,31,360.6,31z"/>
		</g>
		<g>
			<path d="M407.4,57c-1.4,0-2.5-1.1-2.5-2.5v-50c0-1.4,1.1-2.5,2.5-2.5s2.5,1.1,2.5,2.5v50C409.9,55.9,408.8,57,407.4,57z"/>
		</g>
		<g>
			<path d="M450.2,31c-1.4,0-2.5-1.1-2.5-2.5v-24c0-1.4,1.1-2.5,2.5-2.5s2.5,1.1,2.5,2.5v24C452.7,29.9,451.6,31,450.2,31z"/>
		</g>
		<g>
			<path d="M497,57c-1.4,0-2.5-1.1-2.5-2.5v-50c0-1.4,1.1-2.5,2.5-2.5s2.5,1.1,2.5,2.5v50C499.5,55.9,498.4,57,497,57z"/>
		</g>
		<g>
			<path d="M539.8,31c-1.4,0-2.5-1.1-2.5-2.5v-24c0-1.4,1.1-2.5,2.5-2.5s2.5,1.1,2.5,2.5v24C542.3,29.9,541.2,31,539.8,31z"/>
		</g>
		<g>
			<path d="M586.6,57c-1.4,0-2.5-1.1-2.5-2.5v-50c0-1.4,1.1-2.5,2.5-2.5s2.5,1.1,2.5,2.5v50C589.1,55.9,588,57,586.6,57z"/>
		</g>
		<g>
			<path d="M629.4,31c-1.4,0-2.5-1.1-2.5-2.5v-24c0-1.4,1.1-2.5,2.5-2.5s2.5,1.1,2.5,2.5v24C631.9,29.9,630.8,31,629.4,31z"/>
		</g>
		<g>
			<path d="M676.2,57c-1.4,0-2.5-1.1-2.5-2.5v-50c0-1.4,1.1-2.5,2.5-2.5s2.5,1.1,2.5,2.5v50C678.7,55.9,677.6,57,676.2,57z"/>
		</g>
		<g>
			<path d="M719,31c-1.4,0-2.5-1.1-2.5-2.5v-24c0-1.4,1.1-2.5,2.5-2.5s2.5,1.1,2.5,2.5v24C721.5,29.9,720.4,31,719,31z"/>
		</g>
	</g>
	<g>
		<path style="fill:#FFA1B4;" d="M222.6,122c-4.3,0-8.8-0.7-13-2.2c-3.8-1.4-6.6-3.6-7.8-6.2c-0.9-2-1-4.2-0.1-6.6
			c1.4-3.7,5.1-6,11.3-7.2c5.1-1,10.4-0.5,15.3,1.3c3.5,1.3,5.9,3.9,6.6,7.1c0.4,2.1-0.1,4-1.6,5.4c-4.1,3.9-13.7,2.6-15.9,2.1
			c-1.3-0.3-2.9-0.8-4.1-2c-1.5-1.5-1.9-3.7-0.9-5.3c1.8-3.2,6.2-4,12.5-2.3c0.8,0.2,1.3,1,1,1.8c-0.2,0.8-1,1.3-1.8,1
			c-2.2-0.6-7.6-1.8-9.1,0.9c-0.2,0.4,0,1.2,0.5,1.7c0.7,0.7,1.8,1,2.7,1.2c3.3,0.8,10.7,1,13.1-1.3c0.4-0.4,1-1.2,0.7-2.6
			c-0.4-2.2-2.1-4-4.7-4.9c-4.3-1.6-9-2-13.7-1.1c-5.1,1-8.1,2.7-9,5.3c-0.6,1.6-0.6,3,0,4.2c0.9,1.9,3,3.5,6.1,4.6
			c6.6,2.3,16.5,3.1,23.9-0.4c2.6-1.2,4.5-3.1,5.4-5.3c0.3-0.8,1.2-1.1,2-0.8c0.8,0.3,1.1,1.2,0.8,2c-1.2,2.9-3.6,5.3-6.9,6.8
			C232.1,121.1,227.4,122,222.6,122z"/>
	</g>
	<g>
		<path style="fill:#FFA1B4;" d="M559.7,126.7c-4.3,0-8.8-0.7-13-2.2c-3.8-1.4-6.6-3.6-7.8-6.2c-0.9-2-1-4.2-0.1-6.6
			c1.4-3.7,5.1-6,11.3-7.2c5.1-1,10.4-0.5,15.3,1.3c3.5,1.3,5.9,3.9,6.6,7.1c0.4,2.1-0.1,4-1.6,5.4c-4.1,3.9-13.7,2.6-15.9,2.1
			c-1.3-0.3-2.9-0.8-4.1-2c-1.5-1.5-1.9-3.7-0.9-5.3c1.8-3.2,6.2-4,12.5-2.3c0.8,0.2,1.3,1,1,1.8c-0.2,0.8-1,1.3-1.8,1
			c-2.2-0.6-7.6-1.8-9.1,0.9c-0.2,0.4,0,1.2,0.5,1.7c0.7,0.7,1.8,1,2.7,1.2c3.3,0.8,10.7,1,13.1-1.3c0.4-0.4,1-1.1,0.7-2.6
			c-0.4-2.2-2.1-4-4.7-4.9c-4.3-1.6-9-2-13.7-1.1c-5.1,1-8.1,2.7-9,5.3c-0.6,1.6-0.6,3,0,4.2c0.9,1.9,3,3.5,6.1,4.6
			c6.6,2.3,16.5,3.1,23.9-0.4c2.6-1.2,4.5-3.1,5.4-5.3c0.3-0.8,1.2-1.1,2-0.8c0.8,0.3,1.1,1.2,0.8,2c-1.2,2.9-3.6,5.3-6.9,6.8
			C569.1,125.8,564.5,126.7,559.7,126.7z"/>
	</g>
	<g>
		<path d="M395.9,107.4c-0.1,0-0.1,0-0.2,0c-1.1-0.1-1.9-1.1-1.8-2.2c0.3-3.2,4.2-7.7,8.5-8.4c2.2-0.4,6.4-0.1,9.3,6.2
			c0.5,1,0,2.2-1,2.7c-1,0.5-2.2,0-2.7-1c-1.4-3-3.1-4.3-5-4c-2.6,0.4-5.1,3.5-5.2,4.9C397.8,106.6,397,107.4,395.9,107.4z"/>
	</g>
	<g>
		<path d="M309.1,74.3c-0.2,0-0.5,0-0.7-0.1c-1-0.4-1.6-1.5-1.2-2.6c1.1-3,4-5,7.5-5.2c3.4-0.1,6.3,1.5,7.6,4.2c0.5,1,0,2.2-1,2.6
			c-1,0.5-2.2,0-2.6-1c-0.7-1.5-2.4-2-3.8-1.9c-1.5,0.1-3.2,0.8-3.9,2.5C310.7,73.8,309.9,74.3,309.1,74.3z"/>
	</g>
	<g>
		<path d="M476.3,73.6c-0.1,0-0.2,0-0.3,0c-1.1-0.2-1.8-1.2-1.6-2.3c0.5-3,3.2-5.2,6.8-5.7c3.7-0.4,7.1,1.3,8.3,4.2
			c0.4,1-0.1,2.2-1.1,2.6c-1,0.4-2.2-0.1-2.6-1.1c-0.6-1.5-2.6-2-4.2-1.8c-1.5,0.2-3.1,1-3.4,2.3C478.2,72.9,477.3,73.6,476.3,73.6z
			"/>
	</g>
	<g>
		<ellipse style="fill:#000100;" cx="317.5" cy="99.7" rx="5.9" ry="7"/>
	</g>
	<g>
		<ellipse style="fill:#000100;" cx="481.8" cy="98" rx="5.9" ry="7"/>
	</g>
	<g>
		<path d="M319,136.5c-0.8,0-1.7-0.4-2.1-1.2c-0.7-1.2-0.4-2.7,0.8-3.4l17.4-10.8c1.2-0.7,2.7-0.4,3.4,0.8c0.7,1.2,0.4,2.7-0.8,3.4
			l-17.4,10.8C319.9,136.4,319.5,136.5,319,136.5z"/>
	</g>
	<g>
		<path d="M482.4,137.7c-0.5,0-0.9-0.1-1.4-0.4l-17.6-11.3c-1.2-0.7-1.5-2.3-0.7-3.5c0.7-1.2,2.3-1.5,3.5-0.7l17.6,11.3
			c1.2,0.7,1.5,2.3,0.7,3.5C484,137.2,483.2,137.7,482.4,137.7z"/>
	</g>
	<g>
		<path d="M403.6,164.7c-67.7,0-77.2-34.1-77.6-35.5c-0.3-1.3,0.5-2.7,1.8-3c1.3-0.3,2.7,0.5,3,1.8c0,0.2,2.3,8,12.1,15.8
			c9.2,7.3,27.3,16,60.6,16c56.3,0,68-30.9,68.1-31.2c0.5-1.3,1.9-2,3.2-1.5c1.3,0.5,2,1.9,1.5,3.2
			C475.9,131.5,463.3,164.7,403.6,164.7z"/>
	</g>
</g>
<g>
</g>
<g>
</g>
<g>
</g>
<g>
</g>
<g>
</g>
<g>
</g>
<g>
</g>
<g>
</g>
<g>
</g>
<g>
</g>
<g>
</g>
<g>
</g>
<g>
</g>
<g>
</g>
<g>
</g>
</svg>
