<?xml version="1.0" encoding="utf-8"?>
<!-- Generator: Adobe Illustrator 23.0.0, SVG Export Plug-In . SVG Version: 6.00 Build 0)  -->
<svg version="1.1" id="레이어_1" xmlns="http://www.w3.org/2000/svg" xmlns:xlink="http://www.w3.org/1999/xlink" x="0px"
	 y="0px" width="1260.5px" height="900px" viewBox="0 0 1260.5 900" style="enable-background:new 0 0 1260.5 900;"
	 xml:space="preserve">
<rect x="669.4" y="184.5" transform="matrix(5.305319e-02 -0.9986 0.9986 5.305319e-02 220.6158 1064.0399)" style="fill:#E4007F;" width="3.8" height="462.5"/>
<g>
	<defs>
		<rect id="SVGID_1_" x="355.5" y="156" width="739.7" height="483"/>
	</defs>
	<clipPath id="SVGID_2_">
		<use xlink:href="#SVGID_1_"  style="overflow:visible;"/>
	</clipPath>
	<path style="clip-path:url(#SVGID_2_);" d="M445.7,402.9c0,3-2.4,5.4-5.4,5.4c-3,0-5.4-2.4-5.4-5.4c0-3,2.4-5.4,5.4-5.4
		C443.3,397.5,445.7,399.9,445.7,402.9"/>
	<path style="clip-path:url(#SVGID_2_);" d="M366.3,187c0,3-2.4,5.4-5.4,5.4c-3,0-5.4-2.4-5.4-5.4c0-3,2.4-5.4,5.4-5.4
		C363.9,181.6,366.3,184,366.3,187"/>
	<path style="clip-path:url(#SVGID_2_);" d="M472.2,633.7c0,3-2.4,5.4-5.4,5.4c-3,0-5.4-2.4-5.4-5.4c0-3,2.4-5.4,5.4-5.4
		C469.8,628.3,472.2,630.7,472.2,633.7"/>
	<path style="clip-path:url(#SVGID_2_);" d="M878.6,242c0,3-2.4,5.4-5.4,5.4c-3,0-5.4-2.4-5.4-5.4c0-3,2.4-5.4,5.4-5.4
		C876.2,236.6,878.6,239.1,878.6,242"/>
	<path style="clip-path:url(#SVGID_2_);" d="M1095.2,161.4c0,3-2.4,5.4-5.4,5.4c-3,0-5.4-2.4-5.4-5.4c0-3,2.4-5.4,5.4-5.4
		C1092.8,156,1095.2,158.4,1095.2,161.4"/>
	<path style="clip-path:url(#SVGID_2_);" d="M662.7,321.4c0,3-2.4,5.4-5.4,5.4c-3,0-5.4-2.4-5.4-5.4c0-3,2.4-5.4,5.4-5.4
		C660.3,316,662.7,318.4,662.7,321.4"/>
	<path style="clip-path:url(#SVGID_2_);" d="M907.4,427.3c0,3-2.4,5.4-5.4,5.4c-3,0-5.4-2.4-5.4-5.4c0-3,2.4-5.4,5.4-5.4
		C905,421.9,907.4,424.3,907.4,427.3"/>
</g>
<g>
	<path d="M527.1,132.9c0,0.7,0,1.4,0,2.1c1.4,1.1,2.8,2.1,4.1,3s2.5,1.7,3.7,2.6c0.3,0.3,0.6,0.6,0.6,1c0.1,0.4,0,0.8-0.3,1.2
		c-0.3,0.5-0.6,0.8-0.9,1c-0.3,0.2-0.7,0.1-1.1-0.1c-0.5-0.3-1.1-0.7-1.8-1.1c-0.7-0.4-1.3-0.8-2-1.3c-0.7-0.5-1.4-1-2.1-1.4
		c-0.7-0.5-1.3-1-1.9-1.5c-1.5,1.7-2.8,3.1-4,4.2c-1.2,1.2-2.3,2.1-3.2,2.9c-0.4,0.3-0.8,0.4-1.2,0.3c-0.4-0.1-0.8-0.4-1.1-0.8
		c-0.3-0.4-0.4-0.7-0.4-1.1c0.1-0.3,0.2-0.7,0.5-1c0.5-0.5,1-1.1,1.6-1.8c0.6-0.7,1.3-1.3,1.9-2c0.7-0.7,1.3-1.4,1.9-2
		c0.6-0.7,1.1-1.3,1.6-1.8c0-1.3-0.1-2.8-0.2-4.3c-0.1-1.5-0.1-2.9-0.2-4.1c0-0.6,0.1-1,0.4-1.4c0.3-0.3,0.8-0.5,1.6-0.6
		c0.9-0.1,1.5,0.1,1.8,0.3c0.3,0.3,0.4,0.7,0.5,1.4c0,0.5,0,1.1,0,1.8c0,0.7,0,1.4,0.1,2.1C527.1,131.3,527.1,132.1,527.1,132.9z
		 M542.5,157.8c-0.1,0.6-0.3,1-0.6,1.3c-0.3,0.3-0.8,0.4-1.3,0.3c-0.5-0.1-0.9-0.2-1.1-0.5c-0.2-0.3-0.3-0.6-0.3-1.1
		c0-0.5,0-1,0-1.7c0-0.6,0-1.3,0-2.1c0-0.7,0-1.4,0-2.2c0-0.7,0-1.3,0-1.9c-0.9,0.1-2,0.1-3.4,0.2c-1.3,0.1-2.7,0.1-4.1,0.1
		c-1.4,0-2.8,0.1-4.2,0.1c-1.4,0-2.5,0.1-3.5,0.1c-0.9,0-1.4-0.6-1.4-1.7c0-0.5,0.1-0.9,0.4-1.2c0.3-0.2,0.6-0.4,0.9-0.4
		c1.2-0.1,2.6-0.2,4.2-0.2c1.6-0.1,3.2-0.1,4.8-0.2c1.6-0.1,3.2-0.1,4.7-0.2c1.5,0,2.9-0.1,4-0.1c0.5,0,0.8,0.1,1,0.3
		c0.2,0.2,0.3,0.6,0.3,1.1c0,1.5,0,3.2-0.1,5C542.8,154.7,542.7,156.3,542.5,157.8z M543.3,143.7c-0.1,0.7-0.3,1.2-0.6,1.4
		c-0.3,0.2-0.8,0.3-1.3,0.3c-0.5,0-1-0.2-1.3-0.4c-0.3-0.2-0.5-0.7-0.5-1.5c0-0.6,0-1.5,0-2.6s0-2.5,0-4c0-1.5,0-3,0.1-4.6
		c0-1.6,0-3.1,0.1-4.5c0-0.7,0.1-1.2,0.4-1.5c0.3-0.3,0.8-0.4,1.6-0.4c1.3,0,1.9,0.7,1.9,2c0,1.2,0,2.6-0.1,4.1c0,1.5,0,3-0.1,4.5
		c0,1.5-0.1,2.9-0.1,4.1C543.4,142,543.3,143,543.3,143.7z"/>
	<path d="M562.8,145.7c1.4-0.1,2.7-0.1,4-0.1c1.3,0,2.6-0.1,3.9-0.1c0.3,0,0.5,0.1,0.6,0.2c0.2,0.1,0.2,0.4,0.2,0.7
		c0,0.9,0,1.9-0.1,3c-0.1,1.1-0.1,2-0.2,2.9c0,0.5-0.2,0.9-0.4,1.1c-0.2,0.2-0.6,0.3-1.1,0.4c-1,0.1-2.2,0.1-3.4,0.1
		c-1.3,0-2.6,0.1-3.9,0.1c-1.3,0.1-2.7,0.1-4,0.1s-2.6,0.1-3.7,0.1c0,0.4,0,0.7,0,0.9s0,0.5,0,0.9c1.1,0,2.4,0,3.7,0
		c1.3,0,2.7,0,4.1-0.1c1.4,0,2.8,0,4.2-0.1c1.4,0,2.7-0.1,3.9-0.1c0.4,0,0.6,0.1,0.8,0.3s0.2,0.6,0.2,1c0,0.4-0.1,0.8-0.2,1.1
		c-0.1,0.3-0.4,0.5-0.9,0.5c-2.9,0.1-5.8,0.2-8.6,0.2c-2.8,0-5.7,0.1-8.6,0.1c-0.9,0-1.5-0.2-1.8-0.5c-0.3-0.3-0.5-0.9-0.6-1.7
		c0-0.8-0.1-1.5-0.1-2.1c0-0.7-0.1-1.4-0.1-2.1c0-0.3,0-0.5,0.1-0.7c0.1-0.2,0.3-0.3,0.5-0.3c1-0.1,2.2-0.1,3.6-0.2
		c1.4-0.1,2.9-0.1,4.4-0.2c1.5-0.1,3-0.1,4.4-0.1c1.4,0,2.6-0.1,3.6-0.1c0-0.4,0-0.8,0-1.2s0-0.7,0-1.2c-1.1,0.1-2.3,0.1-3.8,0.2
		c-1.4,0.1-2.9,0.1-4.4,0.2c-1.5,0.1-2.9,0.1-4.4,0.2c-1.4,0.1-2.7,0.1-3.8,0.1c-0.4,0-0.7-0.1-0.9-0.3c-0.2-0.2-0.3-0.6-0.3-1.2
		c0-0.6,0.1-1,0.3-1.2c0.2-0.2,0.5-0.4,0.9-0.4c1.1-0.1,2.3-0.1,3.5-0.2c1.2-0.1,2.5-0.1,3.8-0.2v-2.8c-1.8,0.1-3.5,0.1-5.2,0.1
		c-1.7,0-3.3,0.1-4.9,0.1c-0.9,0.1-1.4-0.5-1.4-1.6c0-0.6,0.1-1,0.3-1.2c0.2-0.2,0.6-0.4,1.1-0.4c1.9-0.1,4-0.1,6.1-0.2
		c2.2-0.1,4.3-0.1,6.4-0.2s4.2-0.1,6.2-0.2c2-0.1,3.9-0.1,5.5-0.2c0.9,0,1.3,0.4,1.3,1.4c0,0.6-0.1,1-0.4,1.2
		c-0.2,0.2-0.6,0.4-1,0.4c-1.6,0.1-3.2,0.2-4.9,0.3c-1.7,0.1-3.5,0.1-5.4,0.2V145.7z M572,136.9c-0.2,0.2-0.5,0.4-1,0.4
		c-0.4,0-1.1,0.1-2.1,0.1c-1,0.1-2.2,0.1-3.5,0.1c-1.3,0-2.7,0.1-4.2,0.1c-1.5,0.1-2.8,0.1-4.1,0.1c-1.3,0-2.4,0.1-3.4,0.1
		c-1,0-1.7,0-2.1,0c-0.7,0-1.3-0.2-1.7-0.6c-0.4-0.4-0.6-1-0.7-1.8c0-0.7,0-1.3-0.1-2c0-0.6,0-1.3-0.1-1.9c0-0.6,0-1.3-0.1-2
		c0-0.7,0-1.4,0-2.2c0-1.1,0.5-1.7,1.4-1.7c0.4,0,1.2-0.1,2.3-0.1c1.1,0,2.3-0.1,3.6-0.1c1.4,0,2.8,0,4.3-0.1c1.5,0,3,0,4.4-0.1
		c1.4,0,2.6,0,3.7,0c1.1,0,1.9,0,2.4,0c0.8,0,1.3,0.4,1.3,1.3c0,1,0,1.9,0,2.6c0,0.7,0,1.4,0,2c0,0.6,0,1.2,0,1.9
		c0,0.6,0,1.4-0.1,2.3C572.3,136.2,572.2,136.7,572,136.9z M568.1,134.2c0.3,0,0.5-0.2,0.5-0.5c0-0.4,0-0.8,0-1.2s0-0.7,0-1
		s0-0.7,0-1.2c0-0.4,0-1-0.1-1.6l-15.5,0.3c0,0.7,0,1.3,0,1.7c0,0.5,0,0.9,0,1.3c0,0.4,0,0.8,0,1.2c0,0.4,0,0.9,0,1.4L568.1,134.2z"
		/>
	<path d="M584.8,145.8c0-0.5,0-1.1,0-1.7c-1.2,0.1-2.3,0.1-3.5,0.2c-1.1,0.1-2.2,0.1-3.3,0.2c-0.9,0-1.4-0.6-1.4-1.7
		c0-0.6,0.1-1,0.3-1.2s0.6-0.4,1.1-0.5c3.5-0.2,6.8-0.4,9.8-0.5c3-0.2,5.9-0.3,8.7-0.4c0.5,0,0.8,0.1,1,0.4c0.2,0.3,0.3,0.7,0.3,1.1
		c0,0.6-0.1,1-0.4,1.2c-0.2,0.2-0.6,0.4-1,0.4c-1.2,0.1-2.4,0.2-3.7,0.3c-1.3,0.1-2.7,0.2-4.1,0.3c0,1.3-0.1,2.5-0.2,3.6
		c-0.1,0.7-0.3,1.2-0.6,1.5c-0.4,0.3-0.8,0.4-1.3,0.4c-0.5,0-0.9-0.2-1.2-0.5c-0.3-0.3-0.4-0.8-0.5-1.5
		C584.8,146.8,584.8,146.3,584.8,145.8z M595.8,134.5c-0.5,0.9-1.1,1.6-2,2.2c-0.8,0.6-1.8,1-3,1.4c-1.1,0.3-2.4,0.5-3.8,0.6
		c-1.4,0.1-2.7-0.1-3.8-0.3c-1.2-0.3-2.2-0.7-3-1.3c-0.8-0.6-1.5-1.4-1.9-2.3s-0.7-2-0.7-3.3c0-1,0.2-2,0.6-2.9s1.1-1.7,1.9-2.4
		s1.8-1.2,3-1.7c1.2-0.4,2.5-0.7,3.9-0.7c1.4-0.1,2.7,0.1,3.9,0.4c1.2,0.3,2.1,0.8,3,1.5c0.8,0.7,1.5,1.5,1.9,2.4
		c0.4,1,0.7,2,0.7,3.2C596.5,132.6,596.3,133.6,595.8,134.5z M591.1,134.3c1-0.8,1.6-1.8,1.6-3c0-0.7-0.1-1.3-0.4-1.9
		c-0.3-0.6-0.7-1-1.2-1.4c-0.5-0.4-1.1-0.6-1.8-0.8c-0.7-0.2-1.4-0.3-2.2-0.2c-1.7,0.1-3.1,0.5-4,1.4c-1,0.9-1.5,1.9-1.5,3.2
		c0,1.5,0.5,2.5,1.5,3.1c1,0.6,2.3,0.9,3.9,0.9C588.7,135.5,590.1,135.1,591.1,134.3z M604,156.6c0,0.5-0.1,0.9-0.4,1.2
		c-0.3,0.2-0.6,0.4-0.9,0.4c-1.2,0.1-2.6,0.2-4.1,0.3s-3,0.1-4.5,0.2c-1.5,0.1-3,0.1-4.4,0.1s-2.7,0.1-3.9,0.1
		c-0.6,0-1.1-0.2-1.4-0.6c-0.3-0.4-0.5-0.9-0.6-1.6c-0.1-0.8-0.2-1.6-0.2-2.4s-0.1-1.6-0.1-2.3c0-0.6,0.1-1,0.4-1.2
		c0.3-0.2,0.7-0.3,1.5-0.4c0.7-0.1,1.2,0,1.6,0.2c0.3,0.2,0.5,0.6,0.6,1.2c0,0.4,0,0.8,0,1c0,0.2,0,0.5,0,0.7s0,0.4,0,0.6
		c0,0.2,0,0.5,0,0.9c0,0.3,0.1,0.5,0.4,0.5c0.9,0,2.1-0.1,3.3-0.1s2.6-0.1,4-0.1c1.4-0.1,2.7-0.1,4-0.1c1.3,0,2.4-0.1,3.3-0.1
		c0.5,0,0.9,0.1,1.1,0.3S604,156,604,156.6z M600.2,148.1c-0.7,0.1-1.5,0.1-2.2,0.2c-0.8,0.1-1.5,0.1-2.2,0.2
		c-0.7,0.1-1.3,0.1-1.8,0.1c-0.5,0-0.8,0.1-1,0.1c-0.5,0-0.9-0.1-1.1-0.4c-0.2-0.3-0.3-0.7-0.3-1.3c0-0.6,0.1-1,0.2-1.3
		c0.2-0.3,0.5-0.4,1-0.5c0.2,0,0.5,0,1.1-0.1c0.5-0.1,1.1-0.1,1.8-0.2c0.7-0.1,1.4-0.1,2.2-0.2c0.8-0.1,1.5-0.1,2.3-0.2
		c0-2.8,0-5.6,0-8.4c0-2.8,0.1-5.6,0.2-8.4c0-0.7,0.2-1.2,0.5-1.5c0.3-0.3,0.8-0.4,1.6-0.4c1.3,0,1.9,0.7,1.9,2
		c0,1.7-0.1,3.4-0.1,5.2c0,1.8-0.1,3.6-0.1,5.3c0,1.8-0.1,3.5-0.2,5.2c-0.1,1.7-0.2,3.3-0.3,4.9c0,0.7-0.2,1.2-0.6,1.5
		c-0.3,0.3-0.8,0.4-1.3,0.3c-0.5-0.1-0.9-0.3-1.2-0.6C600.3,149.5,600.2,148.9,600.2,148.1L600.2,148.1z"/>
</g>
<g>
	<path d="M185.9,333.5c-0.1,0.6-0.3,1-0.6,1.3c-0.3,0.3-0.8,0.4-1.3,0.3c-1-0.1-1.5-0.6-1.6-1.6c0-0.5,0-1.1,0-2.1
		c0-0.9,0-1.9,0.1-3c0-1,0-2.1,0.1-3c0-1,0-1.8,0-2.3c-0.9,0.1-1.9,0.1-3,0.1s-2.2,0-3.3,0.1c-1.1,0-2.2,0-3.3,0c-1.1,0-2.1,0-3.1,0
		c-0.9,0-1.4-0.6-1.4-1.7c0-0.5,0.1-0.9,0.4-1.2c0.3-0.2,0.6-0.4,0.9-0.4c1.2-0.1,2.5-0.1,3.8-0.2s2.7-0.1,4-0.1
		c1.3,0,2.7-0.1,3.9-0.1c1.3,0,2.5,0,3.7,0c0.5,0,0.8,0.1,1,0.3c0.2,0.2,0.3,0.6,0.3,1.1c0,0.8,0,1.7-0.1,2.8c0,1.1-0.1,2.3-0.1,3.4
		s-0.1,2.3-0.2,3.4C186,331.8,185.9,332.7,185.9,333.5z M177.8,334c0,1.1,0.1,2.2,0.1,3.5c0.7-0.1,1.3-0.1,2-0.1
		c0.6,0,1.3-0.1,2-0.1s1.4-0.1,2.2-0.1c0.8-0.1,1.6-0.1,2.6-0.2c0.5,0,0.8,0.1,1,0.4c0.2,0.3,0.3,0.6,0.3,1.1c0,0.6-0.1,1-0.4,1.3
		c-0.2,0.3-0.6,0.4-1,0.5c-1.5,0.2-2.9,0.3-4.2,0.4c-1.3,0.1-2.6,0.2-3.9,0.3c-1.3,0.1-2.6,0.2-4,0.3c-1.4,0.1-2.9,0.2-4.5,0.3
		c-0.9,0-1.4-0.6-1.4-1.8c0-0.6,0.1-1,0.3-1.2c0.2-0.3,0.6-0.4,1.1-0.5c0.8-0.1,1.5-0.1,2.2-0.1c0.7,0,1.3-0.1,1.9-0.1
		c0-1.2-0.1-2.4-0.1-3.5c0-1.1-0.1-2.2-0.1-3.4c0-0.7,0.1-1.2,0.4-1.5c0.3-0.3,0.8-0.5,1.6-0.5c0.7,0,1.1,0.1,1.4,0.4
		c0.3,0.3,0.5,0.8,0.5,1.5C177.7,331.9,177.7,332.9,177.8,334z M193.5,350.5c0,0.5-0.1,0.9-0.4,1.2c-0.3,0.2-0.6,0.4-0.9,0.4
		c-1.2,0.1-2.6,0.2-4,0.3c-1.5,0.1-2.9,0.1-4.4,0.2c-1.5,0.1-3,0.1-4.4,0.1c-1.4,0-2.7,0.1-3.8,0.1c-0.6,0-1.1-0.2-1.4-0.6
		c-0.3-0.4-0.5-0.9-0.6-1.6c0-0.4-0.1-0.8-0.1-1.3c0-0.5-0.1-1-0.1-1.5c0-0.5,0-1,0-1.4c0-0.5,0-0.9,0-1.2c0-0.6,0.1-1,0.4-1.2
		c0.3-0.2,0.7-0.3,1.5-0.4c0.7-0.1,1.2,0,1.6,0.2c0.3,0.2,0.5,0.6,0.6,1.2c0,0.8,0,1.5,0,2.1s0,1.2,0,1.9c0,0.3,0.1,0.5,0.4,0.5
		c0.9,0,2-0.1,3.3-0.1s2.6-0.1,3.9-0.1c1.3-0.1,2.6-0.1,3.9-0.1c1.3,0,2.4-0.1,3.3-0.1c0.5,0,0.8,0.1,1.1,0.3
		C193.4,349.5,193.5,350,193.5,350.5z M194.4,332.6c-0.4,0-0.7,0-1,0c0,1,0,2.1-0.1,3c0,1,0,1.9-0.1,2.7c0,0.8-0.1,1.6-0.1,2.2
		c0,0.6-0.1,1.1-0.1,1.5c-0.1,0.7-0.3,1.2-0.6,1.4c-0.3,0.2-0.8,0.3-1.3,0.3c-0.5,0-1-0.2-1.3-0.4c-0.3-0.2-0.5-0.7-0.5-1.5
		c0-0.4,0-1,0-1.9c0-0.9,0-1.9,0-3.1c0-1.2,0-2.5,0-3.8s0-2.7,0-4.1c0-1.4,0-2.7,0-3.9c0-1.3,0-2.4,0.1-3.3c0-0.7,0.1-1.2,0.4-1.5
		c0.3-0.3,0.8-0.4,1.6-0.4c1.3,0,1.9,0.7,1.9,2c0,0.9,0,1.9,0,3.2c0,1.3,0,2.6,0,4c0.6,0,1.3,0,2,0c0.7,0,1.2,0,1.5,0
		c0.5,0,0.9,0.1,1.1,0.3c0.2,0.2,0.3,0.6,0.3,1.2c0,0.6-0.1,1-0.2,1.4c-0.2,0.3-0.5,0.5-0.9,0.6c-0.2,0-0.4,0-0.7,0.1
		c-0.3,0-0.6,0-1,0C195.2,332.6,194.8,332.6,194.4,332.6z"/>
	<path d="M207,328.3c2.1-0.3,4.2-0.6,6.2-0.9c0-0.5,0-0.9-0.1-1.3c0-0.4,0-0.8-0.1-1.1c0-0.4,0-0.7-0.1-1.1c0-0.4,0-0.8-0.1-1.3
		c-2.4,0.1-4.6,0.1-6.6,0.2c-2,0.1-3.9,0.1-5.8,0.2c-0.4,0-0.7-0.1-0.8-0.4c-0.1-0.3-0.2-0.7-0.2-1.2c0-0.6,0.1-1,0.2-1.2
		s0.5-0.4,0.9-0.4c1.3-0.1,2.6-0.1,3.9-0.2c1.3-0.1,2.7-0.1,4-0.2c1.3,0,2.6-0.1,3.9-0.1c1.3,0,2.4,0,3.5,0c0.6,0,0.9,0.3,0.9,1
		c0,1.4,0.1,2.9,0.1,4.4c0,1.5,0,2.8,0,4.1c0,0.5-0.1,0.9-0.4,1.1c-0.2,0.2-0.7,0.4-1.2,0.5c-2,0.3-3.9,0.6-5.9,0.9
		c-1.9,0.3-3.9,0.6-5.9,0.8c0,0.2,0,0.4,0,0.6c0,0.3,0,0.5,0,0.8c0,0.3,0,0.6,0.1,0.8c0,0.3,0,0.5,0,0.6c0,0.3,0.2,0.5,0.6,0.5
		c0.9-0.1,1.8-0.1,2.8-0.2c1-0.1,2-0.1,3-0.2c1-0.1,2-0.2,3-0.2c1-0.1,2-0.2,2.9-0.2c0.5-0.1,0.8,0,1,0.2c0.2,0.2,0.3,0.6,0.4,1.1
		c0,0.6,0,1.1-0.2,1.4c-0.2,0.3-0.5,0.4-0.9,0.5c-1,0.1-2,0.2-3.2,0.4c-1.2,0.1-2.4,0.2-3.7,0.3c-1.2,0.1-2.5,0.2-3.7,0.3
		s-2.3,0.1-3.3,0.2c-0.6,0.1-1.2-0.1-1.6-0.4c-0.4-0.3-0.7-0.7-0.7-1.3c-0.1-0.9-0.2-2-0.3-3.1c-0.1-1.2-0.1-2.3-0.2-3.5
		c0-0.7,0.2-1.1,0.9-1.1C202.8,328.9,204.9,328.6,207,328.3z M224.5,346.4c0,1.5-0.1,2.9-0.1,4.4c0,0.6-0.2,1-0.3,1.3
		c-0.2,0.3-0.5,0.4-1,0.5c-0.4,0-1,0.1-1.8,0.1c-0.8,0-1.7,0.1-2.7,0.1c-1,0-2,0.1-3.1,0.1s-2.1,0.1-3.1,0.1c-1,0-1.8,0-2.6,0.1
		c-0.8,0-1.3,0-1.7,0c-1.4,0-2.1-0.8-2.2-2.3c0-0.5-0.1-1.1-0.1-1.8c0-0.7-0.1-1.4-0.1-2.2c0-0.8-0.1-1.5-0.1-2.3
		c0-0.7-0.1-1.4-0.1-2c0-1.1,0.5-1.7,1.4-1.7c0.4,0,1.1-0.1,2-0.1c0.9,0,1.8-0.1,2.9-0.1s2.2-0.1,3.4-0.1c1.2-0.1,2.3-0.1,3.4-0.1
		c1.1,0,2.1,0,3-0.1c0.9,0,1.6,0,2.1,0c0.4,0,0.6,0.1,0.8,0.3c0.1,0.2,0.2,0.5,0.2,0.9C224.6,343.2,224.5,344.9,224.5,346.4z
		 M220.3,349.5c0.3,0,0.5-0.2,0.5-0.5c0-0.4,0-0.8,0-1.3c0-0.5,0-0.9,0-1.4c0-0.5,0-1,0-1.5c0-0.5,0-1,0-1.4l-11.5,0.5
		c0,0.5,0,1,0.1,1.5c0,0.5,0,1.1,0.1,1.6c0,0.5,0,1,0.1,1.5c0,0.5,0,0.9,0.1,1.2L220.3,349.5z M225.3,324.5c0,0.9,0,1.8,0,2.8
		c0.6,0,1.3,0,1.9,0c0.6,0,1,0,1.3,0c0.5,0,0.9,0.1,1.1,0.3s0.3,0.6,0.3,1.2c0,0.6-0.1,1-0.2,1.4c-0.2,0.3-0.5,0.5-0.9,0.6
		c-0.3,0-0.8,0-1.4,0.1c-0.7,0-1.3,0-2.1,0c0,1.3-0.1,2.5-0.1,3.6c0,1.1-0.1,2-0.1,2.6c-0.1,0.7-0.3,1.2-0.6,1.4s-0.8,0.3-1.3,0.3
		c-0.5,0-1-0.2-1.3-0.4s-0.5-0.7-0.5-1.5c0-0.6,0-1.4,0-2.5s0-2.3,0-3.7c0-1.4,0-2.8,0.1-4.3c0-1.5,0-3,0.1-4.4
		c0-0.7,0.1-1.2,0.4-1.5c0.3-0.3,0.8-0.4,1.6-0.4c1.3,0,1.9,0.7,1.9,2C225.3,322.7,225.3,323.6,225.3,324.5z"/>
	<path d="M242.2,333.4c0,0.6,0,1.1,0,1.5c1.4,1.2,2.7,2.2,3.9,3.1c1.2,0.9,2.4,1.8,3.5,2.8c0.3,0.3,0.6,0.6,0.6,1
		c0.1,0.4,0,0.7-0.3,1.2c-0.3,0.5-0.6,0.8-0.9,1c-0.3,0.2-0.7,0.1-1.1-0.1c-0.5-0.4-1.1-0.8-1.7-1.2c-0.6-0.5-1.3-0.9-1.9-1.4
		c-0.6-0.5-1.3-1-1.9-1.5c-0.7-0.5-1.3-1-1.8-1.5c-1.5,1.6-2.8,3-4.1,4.2c-1.3,1.3-2.4,2.3-3.3,3.1c-0.4,0.3-0.8,0.4-1.2,0.3
		c-0.4-0.1-0.8-0.4-1.1-0.8c-0.3-0.4-0.4-0.7-0.3-1c0.1-0.3,0.2-0.6,0.5-1c0.5-0.5,1-1.1,1.7-1.8c0.7-0.7,1.3-1.4,2.1-2.1
		c0.7-0.7,1.4-1.4,2-2.1c0.6-0.7,1.2-1.3,1.6-1.8c0-0.4,0-0.9,0-1.5c0-0.6,0-1.4-0.1-2.2c0-0.8,0-1.7-0.1-2.6s0-1.8-0.1-2.7
		c-1.5,0.1-2.9,0.1-4.1,0.2c-1.3,0.1-2.3,0.1-3,0.1c-0.4,0-0.8-0.1-1.1-0.4c-0.3-0.3-0.4-0.7-0.4-1.3c0-0.6,0.1-1.1,0.3-1.4
		c0.2-0.3,0.5-0.5,0.9-0.5c0.8,0,1.8-0.1,3.1-0.1c1.3-0.1,2.7-0.1,4.2-0.2c0-0.7,0-1.3-0.1-1.9c0-0.6,0-1,0-1.4c0-0.6,0.1-1,0.4-1.4
		c0.3-0.3,0.8-0.5,1.6-0.6c0.9-0.1,1.5,0.1,1.7,0.3s0.4,0.7,0.4,1.4c0,0.4,0,0.8,0,1.4c0,0.6,0,1.2,0,1.9c1.4-0.1,2.8-0.1,4-0.2
		c1.2-0.1,2.2-0.1,3-0.1c0.5,0,0.9,0.1,1.1,0.3c0.2,0.2,0.4,0.7,0.4,1.3c0,1.1-0.5,1.7-1.4,1.8c-0.7,0.1-1.7,0.1-2.9,0.2
		c-1.2,0.1-2.6,0.1-4.1,0.2c0,0.9,0,1.8,0,2.7c0,0.9,0,1.7,0,2.5C242.2,332,242.2,332.7,242.2,333.4z M256.9,326.5
		c0,1.5-0.1,3.1-0.1,4.7c0.7,0,1.3,0,1.9,0c0.6,0,1.1,0,1.3,0c0.5,0,0.9,0.1,1.1,0.3c0.2,0.2,0.3,0.6,0.3,1.2c0,0.6-0.1,1-0.2,1.4
		c-0.2,0.3-0.5,0.5-0.9,0.6c-0.3,0-0.8,0-1.5,0.1c-0.7,0-1.4,0-2.1,0c-0.1,2.3-0.2,4.5-0.3,6.7c-0.1,2.2-0.2,4.2-0.4,6.2
		c0,0.7-0.2,1.2-0.6,1.5c-0.3,0.3-0.8,0.4-1.3,0.3c-0.5-0.1-0.9-0.3-1.2-0.6c-0.3-0.4-0.4-0.9-0.4-1.8c0-8.5,0.1-16.9,0.4-25.3
		c0-0.7,0.2-1.2,0.5-1.5c0.3-0.3,0.8-0.4,1.6-0.4c1.3,0,1.9,0.7,1.9,2C257,323.4,257,324.9,256.9,326.5z"/>
</g>
<g>
	<path d="M167.8,387c0,0.3,0.1,0.5,0.4,0.5c0.9-0.1,1.9-0.2,3-0.2c1.1-0.1,2.1-0.2,3.2-0.2c1.1-0.1,2.2-0.2,3.2-0.2s2.1-0.2,3-0.2
		c0.5-0.1,0.8,0,1,0.2c0.2,0.2,0.3,0.6,0.4,1.2c0,0.6-0.1,1-0.3,1.3c-0.3,0.2-0.6,0.4-1,0.4c-2.5,0.3-4.8,0.5-7.1,0.7
		c-2.3,0.2-4.6,0.3-6.9,0.4c-0.7,0-1.3-0.2-1.8-0.6s-0.7-1.1-0.8-1.9c0-0.5,0-1.3-0.1-2.3c0-1,0-2.2-0.1-3.5c0-1.3,0-2.7,0-4.2
		c0-1.4,0-2.8,0-4.2c0-1.3,0-2.5,0-3.5c0-1,0-1.8,0-2.3c0-0.5,0.1-0.9,0.3-1.1c0.2-0.2,0.5-0.3,1-0.4c2.3-0.1,4.7-0.2,7.3-0.3
		s5.1-0.2,7.5-0.2c0.8,0,1.2,0.5,1.2,1.6c0,0.6-0.1,1-0.2,1.2c-0.2,0.2-0.5,0.4-1,0.4c-1,0.1-2,0.1-3,0.2s-2.1,0.1-3.1,0.2
		s-2.1,0.1-3.1,0.2c-1,0.1-2,0.1-2.9,0.1c0,0.2,0,0.5,0,1c0,0.5,0,1,0,1.7c0,0.7,0,1.4,0,2.2c0,0.8,0,1.6,0,2.5
		c0.9,0,1.9-0.1,2.8-0.1c1,0,2-0.1,3-0.1c1,0,2-0.1,2.9-0.1s1.9-0.1,2.7-0.1c0.4,0,0.8,0.1,0.9,0.4c0.2,0.3,0.3,0.6,0.2,1.2
		c0,0.6-0.1,1-0.3,1.2c-0.2,0.2-0.5,0.4-1,0.4c-0.8,0.1-1.7,0.1-2.6,0.2c-0.9,0.1-1.9,0.1-2.9,0.2c-1,0.1-2,0.1-3,0.2
		c-1,0.1-1.9,0.1-2.8,0.1c0,1.4,0,2.7,0,3.8C167.7,386.1,167.8,386.7,167.8,387z M189.6,372.3c0,1.6-0.1,3.2-0.1,4.8
		c0.7,0,1.3,0,1.9,0c0.6,0,1.1,0,1.3,0c0.5,0,0.9,0.1,1.1,0.3c0.2,0.2,0.3,0.6,0.3,1.2c0,0.6-0.1,1-0.2,1.4
		c-0.2,0.3-0.5,0.5-0.9,0.6c-0.3,0-0.8,0-1.5,0.1s-1.4,0-2.1,0c-0.1,2.2-0.2,4.4-0.3,6.6c-0.1,2.1-0.2,4.2-0.4,6.2
		c0,0.7-0.2,1.2-0.6,1.5c-0.3,0.3-0.8,0.4-1.3,0.3c-0.5-0.1-0.9-0.3-1.2-0.6c-0.3-0.4-0.4-0.9-0.4-1.8c0-8.5,0.1-16.9,0.4-25.3
		c0-0.7,0.2-1.2,0.5-1.5c0.3-0.3,0.8-0.4,1.6-0.4c1.3,0,1.9,0.7,1.9,2C189.6,369.2,189.6,370.7,189.6,372.3z"/>
	<path d="M201.6,386.4c-2.1,0.1-4.1,0.1-6,0.2c-0.9,0.1-1.4-0.5-1.4-1.6c0-0.6,0.1-1,0.3-1.3c0.2-0.3,0.6-0.4,1.1-0.5
		c1.9-0.1,4-0.1,6.1-0.2c2.2-0.1,4.3-0.1,6.4-0.2s4.2-0.1,6.2-0.2c2-0.1,3.9-0.1,5.5-0.2c0.5,0,0.8,0.1,1,0.4s0.3,0.7,0.3,1.1
		c0,0.6-0.1,1-0.4,1.3c-0.2,0.3-0.6,0.4-1,0.4c-1.8,0.1-3.6,0.2-5.7,0.3c-2,0.1-4.1,0.2-6.3,0.2
		C205.9,386.3,203.8,386.3,201.6,386.4z M197,365.7c0.3-0.1,0.6-0.1,1.1-0.2c0.8-0.1,1.3,0,1.6,0.3c0.3,0.2,0.5,0.6,0.5,1.3
		c0,0.6,0,1.4,0.1,2.2c0,0.9,0,1.7,0.1,2.6c0,0.9,0,1.6,0.1,2.4c0,0.7,0,1.3,0,1.6c0,0.3,0.1,0.4,0.4,0.4c0.6,0,1.4-0.1,2.3-0.1
		c0.9,0,1.9-0.1,3-0.1c1.1-0.1,2.2-0.1,3.3-0.2c1.1-0.1,2.2-0.1,3.3-0.2c1.1-0.1,2-0.1,3-0.2c0.9-0.1,1.7-0.1,2.3-0.1
		c0.4,0,0.8,0.1,1,0.2c0.3,0.2,0.4,0.6,0.4,1.3c0,0.5-0.1,0.9-0.3,1.1c-0.2,0.2-0.5,0.4-0.9,0.4c-0.6,0.1-1.4,0.2-2.3,0.2
		c-0.9,0.1-2,0.2-3.1,0.3c-1.1,0.1-2.3,0.2-3.6,0.2c-1.2,0.1-2.5,0.1-3.7,0.2c-1.2,0.1-2.3,0.1-3.4,0.2s-1.9,0.1-2.7,0.1
		c-0.8,0-1.5-0.2-2-0.6c-0.5-0.4-0.8-1-0.8-1.8c-0.1-1.5-0.2-3.1-0.3-4.7c0-1.6-0.1-3.4-0.2-5.2c0-0.3,0-0.5,0-0.7
		c0-0.2,0.1-0.4,0.2-0.5C196.5,365.9,196.7,365.8,197,365.7z M218.3,396.3c0,0.5-0.1,0.9-0.4,1.2c-0.3,0.2-0.6,0.4-0.9,0.4
		c-1.2,0.1-2.6,0.2-4,0.3c-1.5,0.1-2.9,0.1-4.4,0.2c-1.5,0.1-3,0.1-4.4,0.1c-1.4,0-2.7,0.1-3.8,0.1c-0.6,0-1.1-0.2-1.4-0.6
		c-0.3-0.4-0.5-0.9-0.6-1.6c-0.1-1.2-0.2-2.3-0.2-3.4c0-1.1-0.1-2-0.1-2.7c0-0.6,0.1-1,0.4-1.2c0.3-0.2,0.7-0.3,1.5-0.4
		c0.7-0.1,1.2,0,1.6,0.2c0.3,0.2,0.5,0.6,0.6,1.2c0,0.8,0,1.6,0,2.4s0,1.5,0,2.2c0,0.3,0.1,0.5,0.4,0.5c0.9,0,2-0.1,3.3-0.1
		c1.3,0,2.6-0.1,3.9-0.1c1.3-0.1,2.6-0.1,3.9-0.1c1.3,0,2.4-0.1,3.3-0.1c0.5,0,0.9,0.1,1.1,0.4C218.2,395.3,218.3,395.7,218.3,396.3
		z"/>
	<path d="M237.3,382.3c1.5-0.1,2.9-0.1,4.4-0.2c0-1.2,0-2.4,0-3.6c0-1.2,0-2.3,0-3.2c0-0.7,0.2-1.2,0.5-1.5c0.3-0.3,0.8-0.4,1.6-0.4
		c0.7,0,1.1,0.2,1.4,0.5c0.3,0.3,0.5,0.8,0.5,1.5c0,0.9,0,1.9,0,3.1c0,1.2,0,2.3,0,3.5c2.1-0.1,4.2-0.1,6.2-0.2
		c2-0.1,3.8-0.1,5.5-0.2c0.5,0,0.8,0.1,1,0.4c0.2,0.3,0.3,0.7,0.3,1.1c0,0.6-0.1,1-0.4,1.3c-0.2,0.3-0.6,0.4-1,0.4
		c-1.7,0.1-3.6,0.2-5.7,0.3c-2,0.1-4.1,0.2-6.3,0.2c-2.1,0.1-4.3,0.1-6.4,0.2c-2.1,0.1-4.1,0.1-6,0.2c-0.9,0.1-1.4-0.5-1.4-1.6
		c0-0.6,0.1-1,0.3-1.3c0.2-0.3,0.6-0.4,1.1-0.5C234.5,382.3,235.9,382.3,237.3,382.3z M256,378.3c0,0.6-0.2,1-0.6,1.3
		c-0.3,0.3-0.8,0.4-1.3,0.3c-1.1-0.1-1.6-0.6-1.6-1.6c0-0.5,0-1.1,0-1.9c0-0.8,0-1.7,0.1-2.7c0-1,0-1.9,0.1-2.8c0-0.9,0-1.6,0-2.2
		c-0.6,0-1.4,0.1-2.3,0.1c-0.9,0-2,0-3.1,0.1s-2.3,0-3.5,0c-1.2,0-2.4,0-3.6,0c-1.1,0-2.2,0-3.2,0c-1,0-1.8,0-2.4,0
		c-0.9,0-1.4-0.6-1.4-1.7c0-0.5,0.1-0.9,0.4-1.2c0.3-0.2,0.6-0.4,0.9-0.4c0.8-0.1,1.8-0.1,2.9-0.1c1.1,0,2.4-0.1,3.7-0.1
		c1.3,0,2.6-0.1,4-0.1c1.4,0,2.7,0,4-0.1c1.3,0,2.5,0,3.6,0c1.1,0,2,0,2.8,0c0.5,0,0.8,0.1,1,0.3c0.2,0.2,0.3,0.6,0.3,1.1
		c0,0.8,0,1.7-0.1,2.7c0,1-0.1,2.1-0.2,3.2s-0.1,2.1-0.2,3.1C256.2,376.7,256.1,377.5,256,378.3z M247.2,389.8c0,0.6,0,1.2,0,1.7
		c1.6,0.7,3.3,1.3,4.9,1.9c1.7,0.6,3.1,1.2,4.5,1.8c0.3,0.2,0.5,0.4,0.6,0.8c0.1,0.4,0,0.8-0.3,1.3c-0.3,0.5-0.6,0.8-0.9,0.9
		c-0.3,0.1-0.7,0.1-1.1-0.1c-0.6-0.2-1.3-0.5-2.1-0.8c-0.8-0.3-1.7-0.6-2.6-1s-1.8-0.7-2.6-1c-0.9-0.3-1.6-0.7-2.3-0.9
		c-0.6,0.4-1.3,0.7-2.1,1.1c-0.8,0.4-1.5,0.7-2.3,1.1c-0.8,0.4-1.5,0.7-2.3,1c-0.7,0.3-1.4,0.6-2,0.9c-0.5,0.2-0.9,0.3-1.3,0.2
		c-0.4,0-0.7-0.3-1.1-0.7c-0.3-0.4-0.4-0.7-0.4-1.1c0-0.3,0.2-0.6,0.6-0.8c1.4-0.8,2.8-1.6,4.3-2.3c1.5-0.7,2.9-1.5,4.2-2.1
		c0-0.2,0-0.4,0-0.7c0-0.3,0-0.6,0-0.9c0-0.3,0-0.6,0-0.8c0-0.3,0-0.4,0-0.6c0-0.6,0.1-1,0.4-1.2c0.3-0.2,0.8-0.4,1.6-0.4
		c0.9-0.1,1.5,0,1.8,0.2c0.3,0.2,0.5,0.6,0.5,1.2C247.2,388.8,247.2,389.2,247.2,389.8z"/>
</g>
<g>
	<path d="M318.5,589.1c0.3-0.1,0.6-0.1,1.1-0.2c0.8-0.1,1.3,0,1.7,0.3c0.3,0.2,0.5,0.6,0.5,1.3c0.1,2.2,0.2,4.4,0.2,6.6
		c0,2.2,0.1,4.1,0.1,5.7c0,0.3,0.1,0.4,0.4,0.4c0.9-0.1,1.9-0.1,2.9-0.2c1-0.1,2.1-0.1,3.1-0.2c1-0.1,2.1-0.1,3.1-0.2
		c1-0.1,2-0.1,2.9-0.2c0.4,0,0.8,0.1,1,0.3s0.4,0.6,0.4,1.3c0,0.5-0.1,0.9-0.3,1.1c-0.2,0.3-0.5,0.4-0.9,0.5c-0.9,0.1-1.9,0.2-3,0.4
		s-2.3,0.2-3.5,0.3c-1.2,0.1-2.4,0.2-3.7,0.2s-2.4,0.1-3.5,0.1c-0.8,0-1.5-0.1-2-0.5c-0.5-0.4-0.8-0.9-0.8-1.7
		c-0.2-2.1-0.3-4.4-0.4-6.9c-0.1-2.4-0.2-4.8-0.2-6.9c0-0.3,0-0.5,0-0.7c0-0.2,0.1-0.4,0.2-0.5C318,589.3,318.2,589.2,318.5,589.1z
		 M341.6,615.4c0,1.7-0.1,3.2-0.1,4.6c0,0.6-0.2,1-0.3,1.3s-0.5,0.4-1,0.5c-0.4,0-1,0.1-1.8,0.1s-1.7,0.1-2.7,0.1c-1,0-2,0-3.1,0.1
		c-1.1,0-2.1,0.1-3.1,0.1c-1,0-1.8,0-2.6,0.1c-0.8,0-1.3,0-1.7,0c-1.4,0-2.1-0.8-2.2-2.3c0-0.5-0.1-1.1-0.1-1.9
		c0-0.8-0.1-1.6-0.1-2.4c0-0.8-0.1-1.7-0.1-2.5c0-0.8-0.1-1.5-0.1-2.1c0-1.1,0.5-1.7,1.4-1.7c0.4,0,1.1-0.1,2-0.1
		c0.9,0,1.8-0.1,2.9-0.1c1.1,0,2.2-0.1,3.4-0.1c1.2-0.1,2.3-0.1,3.4-0.1c1.1,0,2.1,0,3-0.1c0.9,0,1.6,0,2.1,0c0.4,0,0.6,0.1,0.8,0.3
		s0.2,0.5,0.2,0.9C341.7,612,341.7,613.7,341.6,615.4z M337.4,618.7c0.3,0,0.5-0.2,0.5-0.5c0-0.4,0-0.8,0-1.3c0-0.5,0-1,0-1.6
		c0-0.5,0-1.1,0-1.6c0-0.5,0-1,0-1.5l-11.5,0.5c0,0.5,0,1,0.1,1.6c0,0.6,0,1.2,0.1,1.8c0,0.6,0,1.1,0.1,1.7c0,0.5,0,0.9,0.1,1.3
		L337.4,618.7z M343.5,599.5c-0.4,0-0.8,0-1.1,0c0,1.3-0.1,2.5-0.1,3.6c0,1.1-0.1,2-0.2,2.6c-0.1,0.7-0.3,1.2-0.6,1.4
		c-0.3,0.2-0.8,0.3-1.3,0.3c-0.5,0-1-0.2-1.3-0.4c-0.3-0.2-0.5-0.7-0.5-1.5c0-0.6,0-1.4,0-2.5c0-1.1,0-2.2,0-3.5
		c0-1.3,0-2.7,0.1-4.1c0-1.5,0-2.9,0.1-4.3c0-0.7,0.1-1.2,0.4-1.5s0.8-0.4,1.6-0.4c1.3,0,1.9,0.7,1.9,2c0,0.7,0,1.5,0,2.3
		c0,0.8,0,1.6,0,2.5c0.4,0,0.7,0,1.1,0c0.4,0,0.7,0,1.1,0c0.3,0,0.6,0,0.9,0c0.3,0,0.5,0,0.6,0c0.5,0,0.9,0.1,1.1,0.3
		s0.3,0.6,0.3,1.2c0,0.6-0.1,1-0.2,1.4c-0.2,0.3-0.5,0.5-0.9,0.6c-0.2,0-0.4,0-0.7,0.1s-0.6,0-1,0S343.9,599.5,343.5,599.5z"/>
	<path d="M369,609.8c-1.6,0.1-3.3,0.1-5,0.2c0,0.7-0.1,1.5-0.1,2.2c0,0.7-0.1,1.4-0.1,2c-0.1,0.7-0.3,1.2-0.6,1.5
		c-0.4,0.3-0.8,0.4-1.3,0.4c-0.5,0-0.9-0.2-1.2-0.5c-0.3-0.3-0.4-0.8-0.5-1.5c0-0.5-0.1-1.1-0.1-1.8s0-1.4,0-2.2
		c-1.9,0.1-3.8,0.1-5.6,0.2c-1.8,0.1-3.6,0.1-5.2,0.2c-0.9,0.1-1.4-0.5-1.4-1.6c0-0.6,0.1-1,0.3-1.3s0.6-0.4,1.1-0.5
		c1.9-0.1,4-0.1,6.1-0.2c2.2-0.1,4.3-0.1,6.4-0.2s4.2-0.1,6.2-0.2c2,0,3.9-0.1,5.5-0.2c0.5,0,0.8,0.1,1,0.4s0.3,0.7,0.3,1.1
		c0,0.6-0.1,1-0.4,1.3c-0.2,0.3-0.6,0.4-1,0.4C372.2,609.6,370.6,609.7,369,609.8z M372.5,602.8c-0.2,0.2-0.5,0.4-1,0.4
		c-0.4,0-1.1,0.1-2.1,0.1c-1,0.1-2.2,0.1-3.5,0.1c-1.3,0-2.7,0.1-4.2,0.1c-1.5,0.1-2.8,0.1-4.1,0.1c-1.3,0-2.4,0.1-3.4,0.1
		c-1,0-1.7,0-2.1,0c-0.7,0-1.3-0.2-1.7-0.6s-0.6-1-0.7-1.8c0-0.7,0-1.5-0.1-2.4s0-1.9-0.1-2.8c0-1,0-1.9-0.1-2.9c0-1,0-1.8,0-2.6
		c0-1.1,0.5-1.7,1.4-1.7c0.4,0,1.2-0.1,2.3-0.1c1.1,0,2.3-0.1,3.6-0.1c1.4,0,2.8,0,4.3-0.1c1.5,0,3,0,4.4-0.1c1.4,0,2.6,0,3.7,0
		c1.1,0,1.9,0,2.4,0c0.8,0,1.3,0.4,1.3,1.3c0,2.1,0,4,0,5.9c0,1.9-0.1,3.7-0.1,5.6C372.8,602.1,372.7,602.6,372.5,602.8z
		 M371.9,619.8c0,0.5-0.1,0.9-0.4,1.2c-0.3,0.2-0.6,0.4-0.9,0.4c-1.2,0.1-2.6,0.2-4,0.3c-1.5,0.1-2.9,0.1-4.4,0.2
		c-1.5,0-3,0.1-4.4,0.1c-1.4,0-2.7,0.1-3.8,0.1c-0.6,0-1.1-0.2-1.4-0.6c-0.3-0.4-0.5-0.9-0.6-1.6c-0.1-1.2-0.2-2.2-0.2-3.2
		c0-1-0.1-1.8-0.1-2.5c0-0.6,0.1-1,0.4-1.2c0.3-0.2,0.7-0.3,1.5-0.4c0.7-0.1,1.2,0,1.6,0.2c0.3,0.2,0.5,0.6,0.6,1.2
		c0,0.8,0,1.6,0,2.2c0,0.6,0,1.3,0,2c0,0.3,0.1,0.5,0.4,0.5c0.9,0,2-0.1,3.3-0.1c1.3,0,2.6-0.1,3.9-0.1c1.3-0.1,2.6-0.1,3.9-0.1
		c1.3,0,2.4-0.1,3.3-0.1c0.5,0,0.9,0.1,1.1,0.4C371.8,618.8,371.9,619.2,371.9,619.8z M368.6,600c0.3,0,0.5-0.2,0.5-0.5
		c0-0.4,0-0.9,0-1.5s0-1.2,0-1.9s0-1.3,0-2c0-0.7,0-1.3-0.1-1.9l-15.5,0.3c0,0.7,0,1.4,0,2.1s0,1.4,0,2.1c0,0.7,0,1.4,0,2
		c0,0.6,0,1.2,0,1.8L368.6,600z"/>
</g>
<g>
	<path d="M987.6,369.4c1.9-0.1,3.7-0.1,5.5-0.2c1.8-0.1,3.4-0.1,4.9-0.2c0.5,0,0.8,0.1,1,0.4c0.2,0.3,0.3,0.6,0.3,1.1
		c0,0.6-0.1,1-0.4,1.3c-0.2,0.3-0.6,0.4-1,0.4c-1.8,0.1-3.6,0.2-5.7,0.3c-2,0.1-4.1,0.2-6.3,0.2c-2.1,0.1-4.3,0.1-6.4,0.2
		c-2.1,0.1-4.1,0.1-6,0.2c-0.9,0.1-1.4-0.5-1.4-1.7c0-0.6,0.1-1,0.3-1.2s0.6-0.4,1.1-0.4c1.6-0.1,3.2-0.1,4.9-0.2
		c1.7-0.1,3.4-0.1,5.2-0.2v-2.8c-1.4,0.1-2.6,0.1-3.8,0.1c-1.2,0-2.2,0-3.1,0c-0.7,0-1.3-0.2-1.8-0.6c-0.5-0.4-0.7-1.1-0.8-1.9
		c0-1.5-0.1-3.1,0-4.8c0-1.7,0-3.2,0.1-4.8c0-0.5,0.1-0.9,0.3-1.1s0.5-0.3,1-0.3c1.6,0,3.3-0.1,5-0.1c1.7,0,3.5-0.1,5.3-0.1
		c1.8,0,3.5,0,5.2-0.1c1.7,0,3.4,0,5,0c0.8,0,1.2,0.5,1.2,1.5c0,0.6-0.1,1-0.2,1.3s-0.5,0.5-1,0.5c-0.6,0-1.4,0.1-2.3,0.1
		c-0.9,0-2,0-3,0.1c-1.1,0-2.2,0-3.4,0.1c-1.2,0-2.3,0.1-3.5,0.1c-1.1,0-2.2,0.1-3.1,0.1c-1,0-1.8,0-2.5,0c0,0.9,0,1.9-0.1,3
		c0,1.1,0,2.2-0.1,3.2c0,0.3,0.1,0.5,0.4,0.5c0.6,0,1.4,0,2.3,0c0.9,0,1.9-0.1,3-0.1c1.1,0,2.2-0.1,3.4-0.1c1.2,0,2.3-0.1,3.4-0.1
		c1.1,0,2.1-0.1,3-0.1c0.9,0,1.7-0.1,2.3-0.1c0.5,0,0.8,0.1,1,0.2c0.2,0.2,0.3,0.6,0.4,1.1c0,0.6-0.1,1-0.3,1.3s-0.6,0.4-1,0.5
		c-1.1,0.1-2.3,0.2-3.8,0.3c-1.4,0.1-2.9,0.1-4.5,0.2V369.4z M994.1,384.3c-0.4,0.9-0.9,1.7-1.7,2.3c-0.8,0.7-1.7,1.2-2.8,1.6
		c-1.1,0.4-2.4,0.6-3.8,0.7c-1.4,0.1-2.7-0.1-3.8-0.4c-1.1-0.3-2-0.8-2.8-1.4c-0.8-0.6-1.3-1.4-1.7-2.2c-0.4-0.9-0.6-1.8-0.6-2.9
		c0-0.9,0.2-1.8,0.5-2.7c0.4-0.9,0.9-1.6,1.6-2.3c0.7-0.7,1.6-1.2,2.7-1.7c1.1-0.4,2.3-0.7,3.8-0.8c1.4-0.1,2.6,0,3.7,0.3
		c1.1,0.3,2,0.7,2.8,1.4c0.8,0.6,1.4,1.4,1.8,2.2c0.4,0.9,0.7,1.9,0.7,3C994.7,382.4,994.5,383.4,994.1,384.3z M989.7,384.4
		c0.9-0.8,1.3-1.8,1.3-3c0-1.2-0.5-2.2-1.4-2.9c-0.9-0.7-2.1-1-3.8-0.9c-1.7,0.1-3,0.5-3.8,1.4c-0.8,0.8-1.2,1.8-1.2,2.9
		c0,1.2,0.4,2.2,1.3,2.9c0.8,0.7,2.1,1,3.7,1C987.5,385.7,988.8,385.3,989.7,384.4z"/>
	<path d="M1022.1,374.3c-1.6,0.1-3.3,0.1-5,0.2c0,0.7-0.1,1.5-0.1,2.2c0,0.7-0.1,1.4-0.1,2c-0.1,0.7-0.3,1.2-0.6,1.5
		c-0.4,0.3-0.8,0.4-1.3,0.4c-0.5,0-0.9-0.2-1.2-0.5c-0.3-0.3-0.4-0.8-0.5-1.5c0-0.5-0.1-1.1-0.1-1.8c0-0.7,0-1.4,0-2.2
		c-1.9,0.1-3.8,0.1-5.6,0.2c-1.8,0.1-3.6,0.1-5.2,0.2c-0.9,0.1-1.4-0.5-1.4-1.6c0-0.6,0.1-1,0.3-1.3c0.2-0.3,0.6-0.4,1.1-0.5
		c1.9-0.1,4-0.1,6.1-0.2c2.2-0.1,4.3-0.1,6.4-0.2c2.1-0.1,4.2-0.1,6.2-0.2c2-0.1,3.9-0.1,5.5-0.2c0.5,0,0.8,0.1,1,0.4
		c0.2,0.3,0.3,0.7,0.3,1.1c0,0.6-0.1,1-0.4,1.3c-0.2,0.3-0.6,0.4-1,0.4C1025.2,374.1,1023.7,374.2,1022.1,374.3z M1025.6,367.3
		c-0.2,0.2-0.5,0.4-1,0.4c-0.4,0-1.1,0.1-2.1,0.1c-1,0.1-2.2,0.1-3.5,0.1c-1.3,0-2.7,0.1-4.2,0.1c-1.5,0.1-2.8,0.1-4.1,0.1
		c-1.3,0-2.4,0.1-3.4,0.1c-1,0-1.7,0-2.1,0c-0.7,0-1.3-0.2-1.7-0.6c-0.4-0.4-0.6-1-0.7-1.8c0-0.7,0-1.5-0.1-2.4s0-1.9-0.1-2.8
		c0-1,0-1.9-0.1-2.9c0-1,0-1.8,0-2.6c0-1.1,0.5-1.7,1.4-1.7c0.4,0,1.2-0.1,2.3-0.1c1.1,0,2.3-0.1,3.6-0.1c1.4,0,2.8,0,4.3-0.1
		c1.5,0,3,0,4.4-0.1c1.4,0,2.6,0,3.7,0c1.1,0,1.9,0,2.4,0c0.8,0,1.3,0.4,1.3,1.3c0,2.1,0,4,0,5.9c0,1.9-0.1,3.7-0.1,5.6
		C1025.9,366.6,1025.8,367.1,1025.6,367.3z M1025,384.3c0,0.5-0.1,0.9-0.4,1.2c-0.3,0.2-0.6,0.4-0.9,0.4c-1.2,0.1-2.6,0.2-4,0.3
		c-1.5,0.1-2.9,0.1-4.4,0.2c-1.5,0.1-3,0.1-4.4,0.1c-1.4,0-2.7,0.1-3.8,0.1c-0.6,0-1.1-0.2-1.4-0.6c-0.3-0.4-0.5-0.9-0.6-1.6
		c-0.1-1.2-0.2-2.2-0.2-3.2c0-1-0.1-1.8-0.1-2.5c0-0.6,0.1-1,0.4-1.2c0.3-0.2,0.7-0.3,1.5-0.4c0.7-0.1,1.2,0,1.6,0.2
		c0.3,0.2,0.5,0.6,0.6,1.2c0,0.8,0,1.6,0,2.2c0,0.6,0,1.3,0,2c0,0.3,0.1,0.5,0.4,0.5c0.9,0,2-0.1,3.3-0.1c1.3,0,2.6-0.1,3.9-0.1
		c1.3-0.1,2.6-0.1,3.9-0.1c1.3,0,2.4-0.1,3.3-0.1c0.5,0,0.9,0.1,1.1,0.4C1024.9,383.3,1025,383.7,1025,384.3z M1021.7,364.5
		c0.3,0,0.5-0.2,0.5-0.5c0-0.4,0-0.9,0-1.5c0-0.6,0-1.2,0-1.9c0-0.6,0-1.3,0-2c0-0.7,0-1.3-0.1-1.9l-15.5,0.3c0,0.7,0,1.4,0,2.1
		c0,0.7,0,1.4,0,2.1c0,0.7,0,1.4,0,2c0,0.6,0,1.2,0,1.8L1021.7,364.5z"/>
</g>
<g>
	<path d="M760.6,182.4c0-0.7,0-1.4,0-2.1c-1.9,0.1-3.8,0.1-5.6,0.2c-1.8,0.1-3.6,0.1-5.2,0.2c-0.9,0.1-1.4-0.5-1.4-1.6
		c0-0.6,0.1-1,0.3-1.3c0.2-0.3,0.6-0.4,1.1-0.5c1.9-0.1,4-0.1,6.1-0.2c2.2-0.1,4.3-0.1,6.4-0.2c2.1-0.1,4.2-0.1,6.2-0.2
		c2-0.1,3.9-0.1,5.5-0.2c0.5,0,0.8,0.1,1,0.4c0.2,0.3,0.3,0.7,0.3,1.1c0,0.6-0.1,1-0.4,1.3c-0.2,0.3-0.6,0.4-1,0.4
		c-1.5,0.1-3,0.2-4.6,0.2c-1.6,0.1-3.3,0.1-5,0.2c0,0.7-0.1,1.4-0.1,2.1c0,0.7-0.1,1.3-0.1,1.9c-0.1,0.7-0.3,1.2-0.6,1.5
		c-0.4,0.3-0.8,0.4-1.3,0.4c-0.5,0-0.9-0.2-1.2-0.5c-0.3-0.3-0.4-0.8-0.5-1.5C760.6,183.6,760.6,183,760.6,182.4z M761.8,163.5
		c2.6-0.1,5.2-0.2,7.7-0.3c0-0.4,0-0.8,0-1.3c0-0.5,0-1.3,0-2.4c0-1.1,0.7-1.7,2-1.7c0.7,0,1.2,0.1,1.5,0.4c0.3,0.2,0.4,0.6,0.4,1.1
		c0,0.8,0,1.8,0,2.9c0,1.1-0.1,2.3-0.1,3.4c0,1.2-0.1,2.3-0.1,3.5c0,1.1-0.1,2.1-0.1,3c0,0.5-0.2,0.9-0.4,1.1
		c-0.3,0.2-0.7,0.3-1.2,0.4c-0.5,0-1.3,0.1-2.3,0.1c-1,0-2.1,0.1-3.4,0.1c-1.2,0-2.5,0.1-3.9,0.1c-1.3,0-2.6,0-3.8,0.1
		c-1.2,0-2.2,0-3.1,0c-0.9,0-1.5,0-1.8,0c-0.9,0-1.6-0.2-2.1-0.6c-0.5-0.4-0.7-1.2-0.8-2.3c0-0.7-0.1-1.5-0.1-2.5c0-1-0.1-2-0.1-3.1
		c0-1.1-0.1-2.1-0.1-3.1c0-1-0.1-1.9-0.1-2.6c0-0.5,0.1-0.9,0.4-1.2c0.3-0.3,0.8-0.5,1.5-0.5c0.8,0,1.3,0.1,1.6,0.3
		c0.3,0.3,0.4,0.6,0.4,1.1c0,0.9,0,1.6,0.1,2.3c0,0.7,0,1.3,0.1,1.9C756.6,163.7,759.2,163.6,761.8,163.5z M772.5,189.6
		c0,0.5-0.1,0.9-0.4,1.2c-0.3,0.2-0.6,0.4-0.9,0.4c-1.2,0.1-2.6,0.2-4,0.3c-1.5,0.1-2.9,0.1-4.4,0.2c-1.5,0.1-3,0.1-4.4,0.1
		c-1.4,0-2.7,0.1-3.8,0.1c-0.6,0-1.1-0.2-1.4-0.6c-0.3-0.4-0.5-0.9-0.6-1.6c-0.1-1.2-0.2-2.2-0.2-3c0-0.9-0.1-1.6-0.1-2.3
		c0-0.6,0.1-1,0.4-1.2c0.3-0.2,0.7-0.3,1.5-0.4c0.7-0.1,1.2,0,1.6,0.2c0.3,0.2,0.5,0.6,0.6,1.2c0,0.4,0,0.8,0,1.1c0,0.3,0,0.6,0,0.9
		s0,0.6,0,0.9c0,0.3,0,0.6,0,1c0,0.3,0.1,0.5,0.4,0.5c0.9,0,2-0.1,3.3-0.1c1.3,0,2.6-0.1,3.9-0.1c1.3-0.1,2.6-0.1,3.9-0.1
		c1.3,0,2.4-0.1,3.3-0.1c0.5,0,0.9,0.1,1.1,0.4C772.3,188.6,772.5,189,772.5,189.6z M754.2,168.9c0,0.5,0,1.1,0.1,1.8
		c0.2,0,0.7,0,1.4,0c0.7,0,1.6,0,2.6,0s2.1,0,3.2-0.1c1.1,0,2.2-0.1,3.2-0.1c1,0,1.8,0,2.6-0.1c0.7,0,1.2,0,1.5,0
		c0.2,0,0.4-0.1,0.5-0.2c0.1-0.1,0.2-0.3,0.2-0.6c0-0.7,0-1.3,0-1.7s0-0.9,0-1.2c-2.5,0.1-5.1,0.2-7.7,0.3c-2.6,0.1-5.1,0.2-7.6,0.3
		C754.2,167.8,754.2,168.3,754.2,168.9z"/>
	<path d="M790.5,160.1c0,1.9,0,3.9,0,6c0.8,0.4,1.8,0.9,2.8,1.4c1.1,0.5,2.2,1.1,3.3,1.6c1.1,0.5,2.1,1.1,3.2,1.6
		c1,0.5,1.8,0.9,2.5,1.2c0.3,0.2,0.6,0.5,0.6,0.8c0.1,0.4,0,0.8-0.3,1.3c-0.3,0.6-0.7,0.9-1.1,1c-0.4,0.1-0.8,0-1.3-0.2
		c-0.6-0.3-1.4-0.6-2.4-1.1c-1-0.5-2.1-1-3.2-1.5c-1.1-0.5-2.2-1-3.3-1.6c-1.1-0.5-1.9-1-2.6-1.3c-0.6,0.6-1.4,1.2-2.2,1.8
		c-0.8,0.6-1.6,1.3-2.5,1.9c-0.9,0.6-1.7,1.2-2.5,1.8c-0.8,0.6-1.5,1-2.1,1.4c-0.9,0.6-1.7,0.5-2.4-0.4c-0.3-0.4-0.5-0.7-0.5-1.1
		c0-0.4,0.1-0.7,0.5-1c0.7-0.6,1.4-1.2,2.3-1.8s1.6-1.3,2.5-2c0.8-0.7,1.6-1.4,2.4-2c0.8-0.7,1.5-1.3,2.1-1.9c0-1-0.1-2-0.1-3.1
		c0-1.1-0.1-2.1-0.1-2.9c0-0.6,0.1-1,0.4-1.4c0.3-0.3,0.8-0.5,1.6-0.6c0.9-0.1,1.5,0.1,1.8,0.3C790.3,158.9,790.5,159.4,790.5,160.1
		z M801.3,181.6c-3.1,0.3-6.3,0.5-9.5,0.7c0,1.3,0,2.6,0,3.8c0,1.3-0.1,2.5-0.1,3.5c0,0.7-0.3,1.2-0.6,1.5c-0.4,0.3-0.8,0.4-1.3,0.4
		c-0.5,0-0.9-0.2-1.2-0.5c-0.3-0.3-0.4-0.8-0.4-1.5c0-1-0.1-2.1-0.1-3.4c0-1.2,0-2.5,0-3.7c-1.4,0.1-2.9,0.1-4.3,0.2
		c-1.4,0-2.9,0.1-4.3,0.1c-0.9,0-1.4-0.6-1.4-1.8c0-0.6,0.1-1,0.3-1.3c0.2-0.3,0.6-0.4,1.1-0.5c3.9-0.2,7.7-0.4,11.4-0.5
		c3.7-0.2,7.3-0.3,10.6-0.5c0.5,0,0.8,0.1,1,0.4c0.2,0.3,0.3,0.7,0.3,1.1c0,0.6-0.1,1-0.4,1.3C802.1,181.4,801.7,181.5,801.3,181.6z
		"/>
	<path d="M813.3,183.6c-1.7,0.2-3.5,0.3-5.2,0.3c-0.7,0.1-1.3-0.2-1.8-0.6c-0.5-0.5-0.7-1.1-0.8-1.9c0-0.5,0-1.3-0.1-2.3
		c0-1,0-2.2-0.1-3.5c0-1.3,0-2.6,0-4.1c0-1.4,0-2.8,0-4.1c0-1.3,0-2.5,0-3.5c0-1,0-1.8,0-2.3c0-0.5,0.1-0.9,0.3-1.1
		c0.2-0.2,0.5-0.3,1-0.4c1.8-0.1,3.6-0.2,5.6-0.3c1.9-0.1,3.8-0.1,5.7-0.2c0.8,0,1.2,0.5,1.2,1.6c0,0.6-0.1,1-0.2,1.3
		c-0.2,0.3-0.5,0.4-1,0.5c-1.4,0.1-2.9,0.2-4.4,0.3c-1.6,0.1-3,0.2-4.3,0.2c0,0.3,0,0.9,0,1.7c0,0.9,0,1.8,0,3s0,2.3,0,3.6
		c0,1.3,0,2.5,0,3.5c0,1.1,0,2,0,2.8c0,0.8,0,1.3,0,1.5c0,0.3,0.1,0.5,0.4,0.5c1.5-0.1,3.1-0.2,4.6-0.4c1.5-0.1,3.1-0.2,4.6-0.4
		c0.5-0.1,0.8,0,1,0.2c0.2,0.2,0.3,0.6,0.4,1.2c0,0.6-0.1,1-0.3,1.3c-0.3,0.3-0.6,0.4-1,0.5C816.8,183.2,815,183.4,813.3,183.6z
		 M825.7,173.2c0,2.1-0.1,4.1-0.1,6.2c0,2.1-0.1,4.4-0.2,6.8c0,0.6-0.2,1-0.5,1.3c-0.3,0.3-0.7,0.4-1.3,0.4c-1.1,0-1.6-0.6-1.6-1.8
		c0-4.3,0-8.5-0.1-12.8c0-4.2,0-8.5,0-12.8c0-0.5,0.1-0.9,0.4-1.1c0.3-0.2,0.8-0.4,1.5-0.4c0.7,0,1.1,0.1,1.4,0.3
		c0.3,0.2,0.4,0.6,0.4,1c0,1.7,0,3.3,0,4.8c0,1.5,0,3,0,4.4c0.7,0,1.4,0,2.2,0c0.8,0,1.5,0,2,0c0-1.5,0.1-3.1,0.1-4.6
		c0-1.5,0.1-3.2,0.1-4.8c0-0.5,0.2-0.8,0.4-1.1s0.7-0.3,1.4-0.3c0.7,0,1.2,0.2,1.5,0.4c0.3,0.2,0.4,0.6,0.4,1c0,2.4,0,4.7-0.1,6.9
		c0,2.2-0.1,4.3-0.2,6.4c-0.1,2.1-0.2,4.3-0.3,6.5c-0.1,2.2-0.3,4.5-0.4,6.9c-0.1,1.1-0.7,1.7-1.8,1.6c-1,0-1.5-0.6-1.5-1.8
		c0-2.5,0-4.8,0-7c0-2.2,0.1-4.4,0.1-6.5H825.7z"/>
</g>
<g>
	<path d="M970.6,119.7c0,0.5,0,1.1,0,1.8c1.6-0.1,3.1-0.1,4.5-0.2c1.4-0.1,2.5-0.1,3.3-0.2c0.5,0,0.9,0.1,1.1,0.2
		c0.2,0.2,0.4,0.6,0.4,1.2c0,0.6-0.1,1-0.3,1.2c-0.2,0.2-0.6,0.3-1.1,0.4c-0.1,0-0.4,0-0.7,0c-0.3,0-0.7,0-1.1,0c-0.4,0-0.8,0-1.1,0
		c-0.4,0-0.6,0-0.9,0c0.5,0.3,0.9,0.6,1.3,1c0.4,0.4,0.7,0.9,1,1.5s0.5,1.1,0.6,1.8c0.1,0.6,0.2,1.3,0.2,1.9c0,1.1-0.1,2.2-0.5,3.2
		s-0.9,1.9-1.7,2.6c-0.8,0.8-1.7,1.4-2.8,1.8c-1.1,0.5-2.4,0.7-3.8,0.8c-1.4,0.1-2.7-0.1-3.8-0.5c-1.1-0.4-2-0.9-2.8-1.6
		c-0.8-0.7-1.3-1.5-1.7-2.5c-0.4-1-0.6-2.1-0.6-3.3c0-0.6,0.1-1.2,0.2-1.8c0.1-0.6,0.3-1.2,0.6-1.8c0.3-0.5,0.6-1,0.9-1.5
		c0.3-0.4,0.7-0.8,1.1-1c-0.3,0-0.6,0-1,0.1c-0.4,0-0.8,0-1.2,0c-0.4,0-0.8,0-1.2,0c-0.4,0-0.6,0-0.8,0c-0.4,0-0.8-0.1-1.1-0.2
		s-0.4-0.6-0.4-1.2c0-0.6,0.1-1.1,0.4-1.3c0.3-0.3,0.6-0.4,1-0.5c0.8-0.1,1.9-0.1,3.4-0.2c1.5-0.1,3-0.1,4.7-0.2c0-0.6,0-1.2,0-1.7
		c0-0.5,0-1,0-1.3c0-0.6,0.1-1,0.3-1.4c0.2-0.3,0.8-0.5,1.6-0.6c0.9-0.1,1.5,0.1,1.7,0.3c0.2,0.3,0.4,0.7,0.4,1.4
		C970.6,118.7,970.6,119.2,970.6,119.7z M979.4,144.2c-0.2,0.3-0.6,0.4-1,0.5c-3,0.4-6,0.6-9.2,0.9s-6.4,0.4-9.6,0.6
		c-0.9,0-1.4-0.6-1.4-1.8c0-0.6,0.1-1,0.3-1.2s0.6-0.4,1.1-0.5c1.9-0.2,3.7-0.3,5.2-0.4c1.6-0.1,3.1-0.2,4.5-0.3
		c1.5-0.1,2.9-0.2,4.4-0.3c1.5-0.1,3-0.2,4.7-0.3c0.5,0,0.8,0.1,1,0.4c0.2,0.3,0.3,0.7,0.3,1.1C979.8,143.5,979.7,143.9,979.4,144.2
		z M968.8,135.9c1.7-0.1,3-0.6,3.9-1.6c0.9-1,1.3-2.4,1.3-4.2c0-1.7-0.6-3.1-1.5-4c-1-0.9-2.2-1.4-3.7-1.3c-0.8,0.1-1.5,0.2-2.1,0.5
		c-0.6,0.3-1.1,0.7-1.6,1.2c-0.4,0.5-0.8,1.1-1,1.8c-0.2,0.7-0.3,1.4-0.3,2.2c0,1.7,0.5,3,1.4,4C966.1,135.5,967.3,136,968.8,135.9z
		 M985.1,144.2c0,0.7-0.2,1.2-0.6,1.5c-0.3,0.3-0.8,0.4-1.3,0.3c-0.5-0.1-0.9-0.3-1.2-0.6s-0.4-0.9-0.4-1.8c0-2.1,0-4.1,0-5.9
		c0-1.8,0-3.6,0.1-5.4c0-1.8,0.1-3.5,0.1-5.3c0.1-1.8,0.1-3.7,0.2-5.8c0-0.7,0.2-1.2,0.5-1.5c0.3-0.3,0.8-0.4,1.6-0.4
		c1.3,0,1.9,0.7,1.9,2c0,2.1-0.1,4.1-0.1,6c0,1.9-0.1,3.8-0.2,5.6c-0.1,1.9-0.2,3.7-0.3,5.5C985.3,140.4,985.2,142.3,985.1,144.2z"
		/>
	<path d="M1006.1,117.8c0.8,0,1.3,0.4,1.3,1.3c0,2.5,0.1,4.9,0.1,7.2c0,2.4,0,4.7-0.1,7.1c0,0.7-0.1,1.1-0.3,1.3
		c-0.2,0.2-0.5,0.4-1,0.4c-0.4,0-0.9,0.1-1.7,0.1c-0.7,0.1-1.5,0.1-2.4,0.1c-0.9,0-1.8,0.1-2.7,0.1c-0.9,0.1-1.8,0.1-2.7,0.1
		c-0.9,0-1.6,0.1-2.3,0.1c-0.7,0-1.2,0-1.6,0c-0.7,0-1.3-0.2-1.7-0.7c-0.4-0.5-0.6-1.1-0.7-1.8c0-0.9-0.1-1.9-0.1-3
		c0-1.1,0-2.3-0.1-3.5c0-1.2,0-2.4,0-3.6c0-1.2,0-2.3,0-3.2c0-1.1,0.5-1.7,1.4-1.7c0.4,0,1-0.1,1.8-0.1c0.8,0,1.6-0.1,2.5-0.1
		c0.9,0,1.9,0,2.9-0.1c1,0,2,0,2.9-0.1c0.9,0,1.8,0,2.6,0C1005,117.8,1005.6,117.8,1006.1,117.8z M1003.2,132.1
		c0.3,0,0.5-0.2,0.5-0.5c0-0.6,0-1.4,0-2.3c0-0.9,0-1.8-0.1-2.7c0-1,0-1.9-0.1-2.9c0-1,0-1.8-0.1-2.6l-9.4,0.3c0,0.8,0,1.6,0,2.5
		s0,1.9,0,2.8c0,1,0,2,0,2.9c0,1,0,1.9,0,2.8L1003.2,132.1z M1015,147.9c-0.4,1-0.9,1.8-1.7,2.5c-0.8,0.7-1.7,1.3-2.8,1.7
		c-1.1,0.4-2.3,0.7-3.8,0.7c-1.4,0.1-2.7-0.1-3.8-0.4c-1.1-0.3-2-0.8-2.8-1.5c-0.7-0.7-1.3-1.5-1.7-2.4c-0.4-1-0.6-2-0.6-3.2
		c0-1,0.2-2,0.5-3c0.4-1,0.9-1.8,1.6-2.6c0.7-0.7,1.6-1.4,2.7-1.8c1.1-0.5,2.3-0.7,3.8-0.8c1.4-0.1,2.6,0.1,3.7,0.4
		c1.1,0.3,2,0.8,2.8,1.5c0.8,0.7,1.4,1.5,1.8,2.5c0.4,1,0.7,2,0.7,3.2C1015.5,145.9,1015.3,146.9,1015,147.9z M1010.4,148.2
		c0.4-0.4,0.8-0.9,1-1.5c0.2-0.6,0.3-1.2,0.3-1.9c0-1.4-0.5-2.6-1.5-3.4c-0.9-0.8-2.1-1.2-3.6-1.1c-0.8,0.1-1.5,0.2-2.1,0.5
		c-0.6,0.3-1.1,0.6-1.6,1.1c-0.4,0.4-0.8,1-1,1.5c-0.2,0.6-0.3,1.2-0.3,1.8c0,1.4,0.5,2.5,1.3,3.4c0.9,0.8,2.1,1.2,3.6,1.2
		c0.8,0,1.5-0.2,2.2-0.4C1009.4,149,1009.9,148.7,1010.4,148.2z M1015.7,122.9c0,0.8,0,1.7,0,2.6c0.6,0,1.3,0,1.9,0c0.6,0,1,0,1.3,0
		c0.5,0,0.9,0.1,1.1,0.3c0.2,0.2,0.3,0.6,0.3,1.2c0,0.6-0.1,1-0.2,1.4s-0.5,0.5-0.9,0.6c-0.3,0-0.8,0-1.4,0.1c-0.7,0-1.3,0-2,0
		c0,1.4-0.1,2.6-0.1,3.8c0,1.2-0.1,2.1-0.2,2.7c-0.1,0.7-0.3,1.2-0.6,1.4s-0.8,0.3-1.3,0.3c-0.5,0-1-0.2-1.3-0.4s-0.5-0.7-0.5-1.5
		c0-0.6,0-1.4,0-2.5s0-2.3,0-3.7c0-1.4,0-2.8,0.1-4.3c0-1.5,0-3,0.1-4.4c0-0.7,0.1-1.2,0.4-1.5c0.3-0.3,0.8-0.4,1.6-0.4
		c1.3,0,1.9,0.7,1.9,2C1015.7,121.2,1015.7,122,1015.7,122.9z"/>
	<path d="M1043.4,148.3c0.9,0,1.3,0.4,1.3,1.3c0,0.6-0.1,1-0.4,1.2c-0.2,0.2-0.6,0.4-1,0.4c-1.8,0.1-3.3,0.1-4.7,0.2
		c-1.4,0.1-2.8,0.1-4.2,0.1c-1.4,0-2.8,0.1-4.3,0.1c-1.5,0-3.2,0.1-5,0.1c-0.5,0-0.8-0.1-1.1-0.3c-0.2-0.2-0.4-0.6-0.4-1.2
		c0-0.6,0.1-0.9,0.3-1.2c0.2-0.2,0.6-0.3,1.1-0.4c0.4,0,0.8,0,1.3,0c0.4,0,0.8,0,1.2,0l-0.3-5.4c-0.5,0-1,0-1.5,0.1
		c-0.5,0-1,0-1.5,0c-0.5,0-0.8-0.1-1.1-0.3c-0.2-0.2-0.4-0.6-0.4-1.2c0-0.6,0.1-1,0.3-1.2c0.2-0.2,0.6-0.4,1.1-0.4
		c1.4-0.1,2.7-0.1,4-0.1c1.3,0,2.5-0.1,3.7-0.1v-3.1c-1.8,0.1-3.5,0.1-5.2,0.1c-1.7,0-3.3,0.1-4.9,0.1c-0.9,0.1-1.4-0.5-1.4-1.7
		c0-0.6,0.1-1,0.3-1.2c0.2-0.3,0.6-0.4,1.1-0.4c1.9-0.1,4-0.1,6.1-0.2c2.2-0.1,4.3-0.1,6.4-0.2s4.2-0.1,6.2-0.2
		c2-0.1,3.9-0.1,5.5-0.2c0.5,0,0.8,0.1,1,0.4c0.2,0.3,0.3,0.6,0.3,1.1c0,0.6-0.1,1-0.4,1.3c-0.2,0.3-0.6,0.4-1,0.4
		c-1.6,0.1-3.2,0.2-4.9,0.3c-1.7,0.1-3.5,0.1-5.4,0.2v3.2c1.3,0,2.6-0.1,4-0.1c1.3,0,2.7-0.1,4.1-0.1c0.9,0,1.3,0.4,1.3,1.4
		c0,0.6-0.1,1-0.4,1.2c-0.2,0.2-0.6,0.3-1,0.3c-0.5,0.1-0.9,0.1-1.4,0.1c-0.4,0-0.9,0-1.3,0.1l-0.3,5.6H1043.4z M1034.6,121.8
		c0,0.3,0,0.8,0,1.3c0.8,0.4,1.7,0.8,2.8,1.3c1,0.5,2.1,1,3.2,1.4c1.1,0.5,2.1,0.9,3.1,1.4c1,0.4,1.8,0.8,2.5,1.1
		c0.3,0.2,0.6,0.4,0.6,0.8s0,0.8-0.3,1.3c-0.3,0.6-0.7,0.9-1.1,1c-0.4,0.1-0.8,0.1-1.3-0.1c-0.6-0.2-1.4-0.5-2.3-0.9s-2-0.9-3-1.4
		c-1.1-0.5-2.1-1-3.2-1.5c-1-0.5-1.9-0.9-2.7-1.2c-0.6,0.5-1.4,1-2.2,1.5c-0.8,0.5-1.6,1.1-2.4,1.6c-0.8,0.5-1.6,1-2.4,1.5
		c-0.8,0.5-1.5,0.9-2.1,1.2c-0.4,0.3-0.9,0.4-1.3,0.3c-0.4-0.1-0.8-0.3-1.1-0.7c-0.3-0.4-0.5-0.7-0.5-1.1c0-0.3,0.1-0.6,0.5-0.9
		c0.7-0.5,1.4-1,2.2-1.6c0.8-0.5,1.6-1.1,2.4-1.6c0.8-0.5,1.6-1.1,2.3-1.6c0.8-0.5,1.5-1,2.1-1.5c0-0.9-0.1-1.7-0.1-2.3
		c0-0.6-0.1-1.3-0.1-2.1c0-0.6,0.1-1,0.4-1.4c0.3-0.3,0.8-0.5,1.6-0.6c0.9-0.1,1.5,0.1,1.8,0.3c0.3,0.3,0.5,0.7,0.5,1.4
		c0,0.5,0,0.9,0,1.2c0,0.3,0,0.6,0,0.9C1034.7,121.2,1034.6,121.5,1034.6,121.8z M1037.4,142.9c-1,0.1-2,0.1-3,0.1s-2,0-3,0.1l0,5.4
		c1.1,0,2.1,0,3.1-0.1c1,0,1.9,0,2.9-0.1L1037.4,142.9z"/>
</g>
<g>
	<path d="M631.1,375.8c-0.5,1.1-1.1,2.1-2,2.9c-0.9,0.8-1.9,1.4-3,1.8s-2.5,0.7-3.8,0.7c-1.5,0.1-2.8-0.1-4-0.5
		c-1.2-0.4-2.2-0.9-3-1.7c-0.8-0.8-1.5-1.7-1.9-2.9c-0.5-1.2-0.7-2.5-0.7-4.1c0-1.3,0.2-2.5,0.6-3.7s1.1-2.1,1.9-3
		c0.8-0.9,1.8-1.5,3-2.1c1.2-0.5,2.5-0.8,4-0.8c1.5-0.1,2.8,0.1,4,0.6c1.2,0.4,2.2,1.1,3,1.9c0.8,0.8,1.5,1.8,1.9,3
		c0.5,1.2,0.7,2.5,0.7,4C631.8,373.3,631.6,374.7,631.1,375.8z M624.4,377.3c0.7-0.3,1.3-0.7,1.8-1.3c0.5-0.5,0.9-1.2,1.2-1.9
		c0.3-0.7,0.4-1.5,0.4-2.4c0-1-0.1-1.8-0.4-2.6c-0.3-0.7-0.7-1.4-1.2-1.9c-0.5-0.5-1.1-0.9-1.8-1.1s-1.4-0.4-2.2-0.3
		c-0.9,0-1.6,0.2-2.3,0.5c-0.7,0.3-1.3,0.7-1.8,1.3c-0.5,0.5-0.9,1.2-1.1,1.9c-0.3,0.7-0.4,1.5-0.4,2.4c0,2,0.5,3.5,1.6,4.4
		c1,1,2.4,1.4,4,1.4C622.9,377.7,623.7,377.6,624.4,377.3z M638.3,394.8c-0.1,0.6-0.3,1-0.6,1.3c-0.3,0.3-0.8,0.4-1.3,0.3
		c-0.5-0.1-0.9-0.2-1.1-0.5c-0.2-0.3-0.3-0.6-0.3-1.1c0-0.5,0-1,0-1.7c0-0.6,0-1.3,0-2.1c0-0.7,0-1.4,0-2.2c0-0.7,0-1.3,0-1.9
		c-0.9,0.1-2,0.1-3.3,0.2c-1.3,0.1-2.6,0.1-4,0.1c-1.4,0-2.7,0.1-4,0.1c-1.3,0-2.5,0.1-3.4,0.1c-0.9,0-1.4-0.6-1.4-1.7
		c0-0.5,0.1-0.9,0.4-1.2c0.3-0.2,0.6-0.4,0.9-0.4c1.2-0.1,2.6-0.2,4.1-0.2c1.5-0.1,3.1-0.1,4.7-0.2c1.6-0.1,3.1-0.1,4.6-0.2
		c1.5,0,2.8-0.1,4-0.1c0.5,0,0.8,0.1,1,0.3c0.2,0.2,0.3,0.6,0.3,1.1c0,1.5,0,3.2-0.1,5C638.6,391.7,638.5,393.3,638.3,394.8z
		 M639.4,372.2c0,0.5,0,1.1,0,1.6c0.7,0,1.3,0,1.9,0c0.6,0,1,0,1.3,0c0.5,0,0.9,0.1,1.1,0.3s0.3,0.6,0.3,1.2c0,0.6-0.1,1-0.3,1.3
		c-0.2,0.3-0.5,0.5-0.9,0.5c-0.3,0-0.8,0-1.4,0c-0.7,0-1.4,0-2.1,0c0,0.7,0,1.4-0.1,2c0,0.6-0.1,1.1-0.1,1.5
		c-0.1,0.7-0.3,1.2-0.6,1.4c-0.3,0.2-0.8,0.3-1.3,0.3c-0.5,0-1-0.2-1.3-0.4c-0.3-0.2-0.5-0.7-0.5-1.5c0-0.6,0-1.5,0-2.6s0-2.5,0-4
		c0-1.5,0-3,0.1-4.6c0-1.6,0-3.1,0.1-4.5c0-0.7,0.1-1.2,0.4-1.5c0.3-0.3,0.8-0.4,1.6-0.4c1.3,0,1.9,0.7,1.9,2c0,0.4,0,0.7,0,1.1
		s0,0.8,0,1.2c0.6-0.1,1.3-0.1,1.9-0.1c0.6,0,1,0,1.3-0.1c0.5,0,0.9,0.1,1.1,0.3c0.2,0.2,0.3,0.6,0.4,1.2c0,0.6,0,1-0.2,1.3
		c-0.2,0.3-0.5,0.5-0.9,0.6c-0.3,0.1-0.8,0.1-1.5,0.1c-0.7,0-1.4,0.1-2.1,0.1C639.4,371.1,639.4,371.6,639.4,372.2z"/>
</g>
<g>
	<path d="M663.8,383.4c1.5,0,2.2-0.3,2.7-1.1c0.3-0.5,0.7-1.4,0.8-1.9c0.2-0.5,0.4-0.6,1-0.5c0.5,0.1,0.7,0.3,0.6,0.8
		c-0.2,1.9-0.6,3.5-1.1,5.4c-0.1,0.3-0.3,0.5-0.7,0.5h-12c-0.8,0-1.6,0-2.3,0.1c-0.6,0-0.9-0.4-0.5-1c1-1.3,3.8-4.4,6.1-7.6
		c2.6-3.5,4.8-7.4,4.8-10.1c0-3.1-1.5-4.7-4.5-4.7c-2.2,0-3.9,1.8-4.9,3.9c-0.2,0.6-0.5,0.7-1.2,0.6c-0.5-0.2-0.7-0.6-0.5-1.1
		c1.1-3.6,3.3-5.9,7.7-5.9c4.5,0,7.4,2.5,7.4,6.3c0,3.1-2.3,6.2-5.1,9.9c-1.1,1.5-3.4,4.5-4.4,6.1c-0.2,0.2-0.1,0.3,0.2,0.3H663.8z"
		/>
</g>
<g>
	<path d="M693.7,384.6c0.7,0.7,1.4,0.8,1.9,0.9c0.5,0,0.8,0,0.8,0.7s-0.3,0.6-0.8,0.6c-0.2,0-2.5-0.1-3.1-0.1
		c-0.8,0-3.5,0.1-3.7,0.1c-0.5,0-0.8,0.1-0.8-0.6s0.2-0.7,0.8-0.7c0.5,0,0.8-0.1,0.9-0.2c0.2-0.2,0-0.6-0.6-1.2l-5-5.3
		c-0.1-0.2-0.3-0.1-0.3,0.1v4.8c0.1,1,0.2,1.4,0.5,1.5c0.4,0.2,0.8,0.2,1.3,0.3c0.5,0,0.8,0,0.8,0.7s-0.3,0.6-0.8,0.6
		c-0.2,0-2.8-0.1-3.4-0.1c-0.8,0-3.5,0.1-3.7,0.1c-0.5,0-0.8,0.1-0.8-0.6s0.2-0.7,0.8-0.7c0.5,0,1-0.1,1.5-0.3
		c0.3-0.1,0.6-0.5,0.6-1.5v-21.4c0-0.6-0.6-0.7-1.4-0.8c-0.6-0.1-0.9,0-0.9-0.6c0-0.5,0.2-0.5,0.8-0.7c1.4-0.4,3.1-1,4.4-1.7
		c0.4-0.2,0.7,0,0.7,0.4c-0.1,1.1-0.2,2.3-0.2,3.5v14.5c0,0.2,0.1,0.3,0.3,0.1l4.8-3.9c1.2-0.9,1.6-1.5,1.5-1.7
		c-0.1-0.1-0.7-0.2-1.2-0.2c-0.5,0-0.8,0-0.8-0.7c0-0.7,0.2-0.6,0.8-0.6c0.2,0,2.2,0.1,3,0.1c0.7,0,2.7-0.1,2.9-0.1
		c0.5,0,0.8-0.1,0.8,0.6c0,0.7-0.2,0.7-0.8,0.7c-0.5,0-0.9,0-1.3,0.3c-2.5,1.3-4.8,3.3-7.2,5.4c-0.1,0.1-0.1,0.2,0,0.3L693.7,384.6z
		"/>
	<path d="M725,383.8c0,1,0.3,1.4,0.6,1.5c0.4,0.2,1,0.2,1.5,0.3c0.5,0,0.8,0,0.8,0.7s-0.2,0.6-0.8,0.6c-0.2,0-2.9-0.1-3.7-0.1
		c-0.7,0-3.4,0.1-3.6,0.1c-0.5,0-0.8,0.1-0.8-0.6s0.2-0.7,0.8-0.7c0.5,0,0.9-0.1,1.3-0.3c0.3-0.1,0.5-0.5,0.5-1.5v-8.2
		c0-2.8-1.2-3.9-3.7-3.9c-1.4,0-2.2,0.4-3,1.6c-0.1,0.2-0.3,0.7-0.3,1.1v9.4c0,1,0.3,1.4,0.6,1.5c0.4,0.2,1,0.2,1.5,0.3
		c0.5,0,0.8,0,0.8,0.7s-0.2,0.6-0.8,0.6c-0.2,0-2.9-0.1-3.7-0.1c-0.7,0-3.4,0.1-3.6,0.1c-0.5,0-0.8,0.1-0.8-0.6s0.2-0.7,0.8-0.7
		c0.5,0,0.9-0.1,1.3-0.3c0.3-0.1,0.5-0.5,0.5-1.5v-8.2c0-2.8-1.4-3.9-3.9-3.9c-1.4,0-2.2,0.4-3,1.6c-0.1,0.2-0.3,0.7-0.3,1.1v9.4
		c0.1,1,0.2,1.4,0.5,1.5c0.4,0.2,0.9,0.2,1.3,0.3c0.5,0,0.8,0,0.8,0.7s-0.3,0.6-0.8,0.6c-0.2,0-2.9-0.1-3.6-0.1
		c-0.8,0-3.5,0.1-3.7,0.1c-0.5,0-0.8,0.1-0.8-0.6s0.2-0.7,0.8-0.7c0.5,0,1-0.1,1.5-0.3c0.3-0.1,0.6-0.5,0.6-1.5v-10.5
		c0-0.6-0.6-0.7-1.4-0.8c-0.6-0.1-0.9,0-0.9-0.6c0-0.5,0.2-0.5,0.8-0.7c1.4-0.4,3.1-1,4.4-1.7c0.4-0.2,0.7,0,0.7,0.4
		c-0.1,0.7-0.1,1.1-0.1,1.8c1.1-1.3,2.6-2.4,4.9-2.4c2.4,0,4.1,0.9,5.1,2.7c1-1.5,3-2.7,5.4-2.7c3.6,0,5.9,1.9,5.9,5.5V383.8z"/>
</g>
<g>
	<path d="M443.2,400.8l-1-3c0.1,0,3.2-1.1,9.1-2.8l0.9,3.1C446.3,399.7,443.2,400.7,443.2,400.8z M458.1,396.3l-0.8-3.1
		c2.9-0.8,6-1.6,9.1-2.4l0.8,3.1C464,394.8,461,395.6,458.1,396.3z M473.1,392.5l-0.7-3.1c3-0.7,6.1-1.4,9.2-2.1l0.7,3.1
		C479.2,391.1,476.1,391.8,473.1,392.5z M488.3,389.2l-0.6-3.1c3-0.6,6.1-1.2,9.2-1.8l0.6,3.1C494.4,387.9,491.3,388.5,488.3,389.2z
		 M503.6,386.2l-0.6-3.1c3.1-0.6,6.2-1.1,9.3-1.6l0.5,3.1C509.7,385.1,506.6,385.6,503.6,386.2z M518.9,383.6l-0.5-3.1
		c3-0.5,6.1-0.9,9.3-1.4l0.4,3.1C525,382.7,521.9,383.1,518.9,383.6z M534.3,381.4l-0.4-3.1c3-0.4,6.2-0.8,9.3-1.2l0.4,3.2
		C540.4,380.6,537.3,381,534.3,381.4z M549.7,379.5l-0.4-3.2c3.1-0.3,6.2-0.7,9.4-1l0.3,3.2C555.9,378.8,552.8,379.1,549.7,379.5z
		 M565.2,377.9l-0.3-3.2c3.1-0.3,6.2-0.5,9.4-0.8l0.2,3.2C571.4,377.4,568.3,377.7,565.2,377.9z M580.7,376.7l-0.2-3.2
		c3.1-0.2,6.2-0.4,9.4-0.6l0.2,3.2C586.9,376.3,583.8,376.5,580.7,376.7z M596.2,375.8l-0.1-3.2c3.1-0.1,6.2-0.3,9.4-0.4l0.1,3.2
		C602.4,375.6,599.3,375.7,596.2,375.8z"/>
	<path d="M898.3,427c-3-1.2-5.9-2.4-8.9-3.5l1.2-3c3,1.2,6,2.3,8.9,3.5L898.3,427z M883.5,421.2c-3-1.1-6-2.2-9-3.3l1.1-3
		c3,1.1,6,2.2,9,3.3L883.5,421.2z M868.4,415.7c-3-1.1-6-2.1-9.1-3.1l1-3c3,1,6.1,2.1,9.1,3.1L868.4,415.7z M853.3,410.5
		c-3-1-6.1-2-9.1-2.9l0.9-3c3,1,6.1,1.9,9.2,2.9L853.3,410.5z M838,405.7c-3.1-0.9-6.1-1.8-9.2-2.7l0.9-3.1c3.1,0.9,6.1,1.8,9.2,2.7
		L838,405.7z M822.7,401.3c-3.1-0.9-6.2-1.7-9.2-2.5l0.8-3.1c3.1,0.8,6.2,1.7,9.3,2.5L822.7,401.3z M807.2,397.1
		c-3.1-0.8-6.2-1.6-9.3-2.3l0.7-3.1c3.1,0.7,6.2,1.5,9.3,2.3L807.2,397.1z M791.7,393.4c-3.1-0.7-6.2-1.4-9.4-2.1l0.7-3.1
		c3.1,0.7,6.3,1.4,9.4,2.1L791.7,393.4z M776.1,390c-3.1-0.6-6.3-1.3-9.4-1.9l0.6-3.1c3.1,0.6,6.3,1.2,9.4,1.9L776.1,390z
		 M760.4,386.9c-3.2-0.6-6.3-1.1-9.4-1.7l0.5-3.1c3.1,0.5,6.3,1.1,9.5,1.7L760.4,386.9z M744.6,384.2c-3.2-0.5-6.3-1-9.5-1.5
		l0.5-3.1c3.2,0.5,6.3,0.9,9.5,1.5L744.6,384.2z"/>
</g>
<g>
	<path d="M534.6,292.6c0,0.7,0,1.4,0,2.1c1.4,1.1,2.8,2.1,4.1,3s2.5,1.7,3.7,2.6c0.3,0.3,0.6,0.6,0.6,1c0.1,0.4,0,0.8-0.3,1.2
		c-0.3,0.5-0.6,0.8-0.9,1c-0.3,0.2-0.7,0.1-1.1-0.1c-0.5-0.3-1.1-0.7-1.8-1.1c-0.7-0.4-1.3-0.8-2-1.3c-0.7-0.5-1.4-1-2.1-1.4
		c-0.7-0.5-1.3-1-1.9-1.5c-1.5,1.7-2.8,3.1-4,4.2c-1.2,1.2-2.3,2.1-3.2,2.9c-0.4,0.3-0.8,0.4-1.2,0.3c-0.4-0.1-0.8-0.4-1.1-0.8
		c-0.3-0.4-0.4-0.7-0.4-1.1c0.1-0.3,0.2-0.7,0.5-1c0.5-0.5,1-1.1,1.6-1.8c0.6-0.7,1.3-1.3,1.9-2c0.7-0.7,1.3-1.4,1.9-2
		c0.6-0.7,1.1-1.3,1.6-1.8c0-1.3-0.1-2.8-0.2-4.3c-0.1-1.5-0.1-2.9-0.2-4.1c0-0.6,0.1-1,0.4-1.4c0.3-0.3,0.8-0.5,1.6-0.6
		c0.9-0.1,1.5,0.1,1.8,0.3c0.3,0.3,0.4,0.7,0.5,1.4c0,0.5,0,1.1,0,1.8c0,0.7,0,1.4,0.1,2.1C534.6,291.1,534.6,291.8,534.6,292.6z
		 M550,317.5c-0.1,0.6-0.3,1-0.6,1.3c-0.3,0.3-0.8,0.4-1.3,0.3c-0.5-0.1-0.9-0.2-1.1-0.5c-0.2-0.3-0.3-0.6-0.3-1.1c0-0.5,0-1,0-1.7
		c0-0.6,0-1.3,0-2.1c0-0.7,0-1.4,0-2.2c0-0.7,0-1.3,0-1.9c-0.9,0.1-2,0.1-3.4,0.2c-1.3,0.1-2.7,0.1-4.1,0.1c-1.4,0-2.8,0.1-4.2,0.1
		c-1.4,0-2.5,0.1-3.5,0.1c-0.9,0-1.4-0.6-1.4-1.7c0-0.5,0.1-0.9,0.4-1.2c0.3-0.2,0.6-0.4,0.9-0.4c1.2-0.1,2.6-0.2,4.2-0.2
		c1.6-0.1,3.2-0.1,4.8-0.2c1.6-0.1,3.2-0.1,4.7-0.2c1.5,0,2.9-0.1,4-0.1c0.5,0,0.8,0.1,1,0.3c0.2,0.2,0.3,0.6,0.3,1.1
		c0,1.5,0,3.2-0.1,5C550.3,314.4,550.2,316.1,550,317.5z M550.8,303.4c-0.1,0.7-0.3,1.2-0.6,1.4c-0.3,0.2-0.8,0.3-1.3,0.3
		c-0.5,0-1-0.2-1.3-0.4c-0.3-0.2-0.5-0.7-0.5-1.5c0-0.6,0-1.5,0-2.6s0-2.5,0-4c0-1.5,0-3,0.1-4.6c0-1.6,0-3.1,0.1-4.5
		c0-0.7,0.1-1.2,0.4-1.5c0.3-0.3,0.8-0.4,1.6-0.4c1.3,0,1.9,0.7,1.9,2c0,1.2,0,2.6-0.1,4.1c0,1.5,0,3-0.1,4.5c0,1.5-0.1,2.9-0.1,4.1
		C551,301.7,550.9,302.7,550.8,303.4z"/>
	<path d="M560,299.3c0,0.3,0.1,0.5,0.4,0.5c0.9-0.1,1.9-0.2,3-0.2c1.1-0.1,2.1-0.2,3.2-0.2c1.1-0.1,2.1-0.2,3.2-0.2s2-0.2,3-0.2
		c0.5-0.1,0.8,0,1,0.2c0.2,0.2,0.3,0.6,0.4,1.2c0,0.6-0.1,1-0.3,1.3c-0.3,0.3-0.6,0.4-1,0.5c-2.5,0.3-4.9,0.5-7.2,0.7
		c-2.3,0.2-4.6,0.3-6.9,0.4c-0.8,0-1.4-0.2-1.8-0.5c-0.4-0.4-0.7-0.9-0.7-1.6c0-0.8-0.1-1.8-0.1-3.1c0-1.3,0-2.6-0.1-4
		c0-1.4,0-2.7,0-4c0-1.3,0-2.3,0-3.1c0-0.5,0.1-0.9,0.3-1.1c0.2-0.2,0.5-0.3,1-0.4c2.3-0.1,4.7-0.2,7.3-0.3c2.6-0.1,5.1-0.2,7.5-0.2
		c0.8,0,1.2,0.5,1.2,1.6c0,0.6-0.1,1-0.2,1.3s-0.5,0.4-1,0.5c-1,0.1-2,0.1-3,0.2c-1,0.1-2.1,0.1-3.1,0.2c-1,0.1-2.1,0.1-3.1,0.2
		c-1,0.1-2,0.1-2.9,0.1c0,0.3,0,0.7,0,1.3c0,0.6,0,1.2,0,1.9c0,0.7,0,1.4,0,2.2c0,0.7,0,1.5,0,2.1c0,0.7,0,1.3,0,1.8
		C560,298.8,560,299.1,560,299.3z M580.8,315.1c-0.4,1-0.9,1.8-1.7,2.5c-0.8,0.7-1.7,1.3-2.8,1.7c-1.1,0.4-2.3,0.7-3.8,0.7
		c-1.4,0.1-2.7-0.1-3.8-0.4c-1.1-0.3-2-0.8-2.8-1.5c-0.7-0.7-1.3-1.5-1.7-2.4c-0.4-1-0.6-2-0.6-3.2c0-1,0.2-2,0.5-3
		c0.4-1,0.9-1.8,1.6-2.6c0.7-0.7,1.6-1.4,2.7-1.8c1.1-0.5,2.3-0.7,3.8-0.8c1.4-0.1,2.6,0.1,3.7,0.4c1.1,0.3,2,0.8,2.8,1.5
		c0.8,0.7,1.4,1.5,1.8,2.5c0.4,1,0.7,2,0.7,3.2C581.3,313.1,581.1,314.1,580.8,315.1z M576.2,315.4c0.4-0.4,0.8-0.9,1-1.5
		c0.2-0.6,0.3-1.2,0.3-1.9c0-1.4-0.5-2.6-1.5-3.4c-0.9-0.8-2.1-1.2-3.6-1.1c-0.8,0.1-1.5,0.2-2.1,0.5c-0.6,0.3-1.1,0.6-1.6,1.1
		c-0.4,0.4-0.8,1-1,1.5c-0.2,0.6-0.3,1.2-0.3,1.8c0,1.4,0.5,2.5,1.3,3.4c0.9,0.8,2.1,1.2,3.6,1.2c0.8,0,1.5-0.2,2.2-0.4
		C575.2,316.2,575.7,315.9,576.2,315.4z M581.5,290.1c0,0.8,0,1.7,0,2.6c0.6,0,1.3,0,1.9,0c0.6,0,1,0,1.3,0c0.5,0,0.9,0.1,1.1,0.3
		c0.2,0.2,0.3,0.6,0.3,1.2c0,0.6-0.1,1-0.2,1.4s-0.5,0.5-0.9,0.6c-0.3,0-0.8,0-1.4,0.1c-0.7,0-1.3,0-2,0c0,1.4-0.1,2.6-0.1,3.8
		c0,1.2-0.1,2.1-0.2,2.7c-0.1,0.7-0.3,1.2-0.6,1.4s-0.8,0.3-1.3,0.3c-0.5,0-1-0.2-1.3-0.4s-0.5-0.7-0.5-1.5c0-0.6,0-1.4,0-2.5
		s0-2.3,0-3.7c0-1.4,0-2.8,0.1-4.3c0-1.5,0-3,0.1-4.4c0-0.7,0.1-1.2,0.4-1.5c0.3-0.3,0.8-0.4,1.6-0.4c1.3,0,1.9,0.7,1.9,2
		C581.5,288.4,581.5,289.2,581.5,290.1z"/>
</g>
</svg>
