<?xml version="1.0" encoding="utf-8"?>
<!-- Generator: Adobe Illustrator 23.0.0, SVG Export Plug-In . SVG Version: 6.00 Build 0)  -->
<svg version="1.1" id="레이어_1" xmlns="http://www.w3.org/2000/svg" xmlns:xlink="http://www.w3.org/1999/xlink" x="0px"
	 y="0px" width="847.7px" height="616.5px" viewBox="0 0 847.7 616.5" style="enable-background:new 0 0 847.7 616.5;"
	 xml:space="preserve">
<g>
	<g>
		<path d="M558.8,118c1.9,0,4.1,0,6.4-0.1c2.3,0,4.7-0.1,7.1-0.1s4.8-0.1,7.2-0.1s4.6-0.1,6.7-0.1c0.6,0,1.1,0.2,1.3,0.6
			c0.3,0.4,0.4,1,0.4,1.7c0,0.7-0.1,1.4-0.3,1.9c-0.2,0.5-0.7,0.8-1.5,0.9c-5,0.2-9.9,0.4-14.8,0.4c-4.9,0.1-9.8,0.1-14.8,0.1
			c-1.5,0-2.5-0.3-3-0.8c-0.5-0.6-0.9-1.5-0.9-2.9c-0.1-1.3-0.2-2.5-0.2-3.5s-0.1-2.2-0.1-3.5c0-0.5,0.1-0.9,0.2-1.2
			c0.1-0.3,0.5-0.5,0.9-0.5c1.7-0.1,3.8-0.2,6.2-0.3c2.4-0.1,5-0.2,7.6-0.3c2.6-0.1,5.1-0.2,7.6-0.2c2.4-0.1,4.5-0.1,6.1-0.2
			c0-0.7,0.1-1.3,0.1-1.8c0-0.5,0-1.1,0-1.9c-1.9,0.1-4,0.2-6.5,0.3c-2.4,0.1-4.9,0.2-7.5,0.3c-2.5,0.1-5,0.2-7.5,0.3
			c-2.4,0.1-4.6,0.1-6.5,0.2c-0.7,0.1-1.2-0.1-1.5-0.5c-0.3-0.3-0.5-1-0.5-2c0-1,0.1-1.7,0.4-2.1c0.3-0.4,0.9-0.6,1.6-0.7
			c1.9-0.1,3.9-0.2,6-0.3c2.1-0.1,4.3-0.2,6.5-0.3v-4c-3,0.1-6,0.2-8.9,0.2c-2.9,0.1-5.7,0.1-8.3,0.2c-1.6,0.1-2.4-0.8-2.4-2.7
			c0-1,0.2-1.6,0.6-2.1c0.4-0.4,1-0.6,1.9-0.7c3.3-0.1,6.8-0.3,10.5-0.4c3.7-0.1,7.4-0.2,11-0.3c3.7-0.1,7.2-0.2,10.7-0.3
			c3.5-0.1,6.6-0.2,9.5-0.3c1.5,0,2.2,0.8,2.2,2.4c0,1-0.2,1.7-0.6,2.1s-1,0.6-1.7,0.7c-2.7,0.2-5.5,0.3-8.5,0.5
			c-3,0.1-6,0.2-9.2,0.3v4c2.3-0.1,4.6-0.2,6.9-0.2c2.3-0.1,4.5-0.1,6.6-0.2c0.5,0,0.8,0.1,1.1,0.4c0.3,0.2,0.4,0.7,0.4,1.3
			c0,1.6-0.1,3.2-0.2,4.9c-0.1,1.7-0.2,3.3-0.3,4.9c-0.1,0.9-0.3,1.5-0.6,1.9c-0.3,0.4-1,0.6-1.9,0.6c-1.7,0.1-3.7,0.2-5.9,0.2
			s-4.4,0.1-6.7,0.2c-2.3,0.1-4.6,0.2-6.9,0.2c-2.3,0.1-4.4,0.1-6.3,0.2L558.8,118z M584.1,81.1c-0.8,1.7-2,3.1-3.5,4.2
			c-1.5,1.1-3.3,2-5.5,2.6c-2.1,0.6-4.5,0.9-7.1,0.9c-4.9,0.1-8.7-1-11.5-3.3s-4.2-5.4-4.2-9.4c0-1.9,0.4-3.6,1.2-5.3
			c0.8-1.7,1.9-3.1,3.4-4.3c1.5-1.2,3.2-2.2,5.3-2.9c2.1-0.7,4.5-1.1,7.2-1.1c2.3,0,4.4,0.3,6.4,0.8c1.9,0.6,3.6,1.4,5,2.5
			c1.4,1.1,2.5,2.4,3.3,4c0.8,1.6,1.2,3.3,1.2,5.3C585.3,77.4,584.9,79.3,584.1,81.1z M576,81.3c1.7-1.4,2.5-3.4,2.4-6
			c-0.1-2.3-1-4-2.7-5.3c-1.7-1.3-3.9-1.9-6.8-1.9c-1.6,0-2.9,0.2-4.1,0.6c-1.2,0.4-2.2,1-3.1,1.7c-0.8,0.7-1.5,1.6-1.9,2.5
			c-0.4,1-0.7,2-0.7,3.1c0,2.3,0.8,4.1,2.5,5.5c1.6,1.3,3.9,2,6.9,2C571.8,83.4,574.3,82.7,576,81.3z"/>
		<path d="M607.9,100.3c-3.6,0.1-7,0.2-10.3,0.3c-1.6,0.1-2.4-0.8-2.4-2.8c0-1,0.2-1.7,0.6-2.1c0.4-0.4,1-0.7,1.9-0.7
			c3.3-0.1,6.8-0.3,10.5-0.4s7.4-0.2,11-0.3c3.7-0.1,7.2-0.2,10.7-0.3c3.5-0.1,6.6-0.2,9.5-0.3c0.8,0,1.4,0.2,1.7,0.6
			c0.3,0.5,0.5,1.1,0.5,1.9c0,1-0.2,1.7-0.6,2.2c-0.4,0.5-1,0.7-1.7,0.8c-3,0.2-6.2,0.3-9.7,0.5c-3.5,0.1-7.1,0.3-10.7,0.4
			C615.1,100.1,611.5,100.2,607.9,100.3z M630.5,69.9c-1.3,0-2.8,0.1-4.6,0.1c-1.7,0-3.6,0.1-5.5,0.2s-4,0.1-6,0.2
			c-2,0.1-4,0.1-5.9,0.2c-1.9,0.1-3.6,0.1-5.2,0.2c-1.6,0-2.9,0.1-3.9,0.1c-0.6,0-1.1-0.2-1.3-0.6c-0.3-0.4-0.4-1.1-0.4-2.3
			c0-1.1,0.2-1.8,0.5-2.2c0.3-0.4,0.9-0.6,1.7-0.6c2.8-0.1,5.8-0.2,8.8-0.3c3.1-0.1,6.1-0.2,9.2-0.3c3.1-0.1,6.1-0.2,9.2-0.3
			c3-0.1,5.9-0.1,8.7-0.1c1,0,1.5,0.6,1.5,1.9c0,1.7-0.1,3.5-0.1,5.4c0,2-0.1,3.8-0.2,5.4c0,0.8-0.3,1.4-0.6,1.9
			c-0.4,0.4-1.1,0.7-2,0.8c-1.2,0.1-2.6,0.2-4.2,0.3c-1.6,0.1-3.4,0.2-5.2,0.3c-1.9,0.1-3.8,0.2-5.7,0.4c-1.9,0.1-3.8,0.3-5.6,0.4
			s-3.5,0.2-5.1,0.3c-1.6,0.1-2.8,0.2-3.9,0.3c0,0.6,0,1.1,0,1.5c0,0.5,0.1,0.9,0.1,1.4c0,0.3,0.1,0.5,0.2,0.6
			c0.1,0.1,0.3,0.2,0.7,0.2c2.2,0,4.6-0.1,7.1-0.2c2.5-0.1,5-0.2,7.6-0.3c2.6-0.1,5.2-0.2,7.8-0.2c2.6-0.1,5.1-0.1,7.6-0.2
			c0.7,0,1.3,0.1,1.6,0.4c0.4,0.3,0.6,1,0.6,2c0,1.7-0.7,2.5-2,2.5c-5.5,0.3-10.9,0.6-16.3,0.9c-5.4,0.2-10.8,0.5-16.3,0.6
			c-1.7,0.1-2.9-0.2-3.5-0.8c-0.7-0.6-1.1-1.5-1.3-2.8c-0.1-1.2-0.2-2.6-0.3-4.2c-0.1-1.6-0.1-3-0.1-4.4c0-1.2,0.5-1.8,1.4-1.9
			c1.1-0.1,2.4-0.2,4-0.3c1.6-0.1,3.4-0.2,5.3-0.4c1.9-0.1,3.9-0.2,5.9-0.4c2.1-0.1,4.1-0.2,6-0.4c1.9-0.1,3.8-0.3,5.4-0.4
			c1.7-0.1,3.1-0.2,4.3-0.3V69.9z M632.7,119.2c-0.6,1.5-1.6,2.8-2.9,3.8c-1.3,1.1-2.9,1.9-4.8,2.5c-1.9,0.6-4.1,1-6.5,1.1
			c-4.9,0.2-8.6-0.7-11.2-2.7c-2.6-2-3.9-4.9-3.9-8.6c0-1.6,0.3-3.1,0.9-4.6c0.6-1.4,1.5-2.7,2.8-3.8c1.2-1.1,2.8-2,4.6-2.7
			c1.8-0.7,4-1.1,6.5-1.2c4.8-0.3,8.5,0.6,11.2,2.6c2.7,2,4.1,4.9,4.3,8.7C633.7,116.1,633.4,117.7,632.7,119.2z M625.2,119.3
			c1.5-1.3,2.2-2.9,2.1-5c-0.1-2.1-0.9-3.7-2.4-4.8c-1.5-1.1-3.7-1.5-6.5-1.4c-2.9,0.1-5.1,0.8-6.5,2.2c-1.4,1.3-2.1,2.9-2.1,4.8
			c0,2.1,0.8,3.7,2.2,4.8c1.4,1.1,3.5,1.6,6.4,1.5C621.4,121.3,623.7,120.6,625.2,119.3z"/>
		<path d="M671.1,108.9c2.7-0.1,5.3-0.3,7.8-0.4c2.6-0.1,5.1-0.2,7.6-0.3c0.8,0,1.4,0.2,1.7,0.7c0.3,0.5,0.5,1.1,0.5,1.9
			c0,1-0.2,1.7-0.6,2.2c-0.4,0.5-1,0.7-1.7,0.8c-6,0.5-12.2,0.9-18.5,1.2c-6.3,0.4-12.7,0.6-19.2,0.8c-1.6,0-2.4-1-2.4-3
			c0-1,0.2-1.7,0.6-2.1c0.4-0.5,1-0.7,1.9-0.8c2.7-0.1,5.3-0.2,7.8-0.3c2.6-0.1,5.1-0.3,7.7-0.4v-9.5c-2.4,0.1-4.6,0.2-6.7,0.3
			c-2.1,0.1-3.9,0.1-5.4,0.2c-1.2,0-2.2-0.3-3.1-1.1c-0.8-0.8-1.3-1.8-1.4-3.2c0-1.3-0.1-3.1-0.1-5.3s0-4.6,0-7c0-2.4,0-4.8,0.1-7
			s0.1-4,0.1-5.3c0-0.9,0.1-1.5,0.4-1.9c0.3-0.4,0.9-0.6,1.7-0.6c2.7,0,5.6-0.1,8.5-0.2c3-0.1,5.9-0.1,8.9-0.2c3,0,5.9-0.1,8.8-0.1
			c2.9,0,5.7,0,8.5,0c1.4,0,2,1,2,2.9c0,1-0.1,1.8-0.4,2.3c-0.3,0.5-0.8,0.8-1.7,0.8c-1.1,0-2.4,0.1-4,0.1c-1.6,0-3.3,0.1-5.1,0.1
			c-1.8,0-3.7,0.1-5.7,0.1s-3.9,0.1-5.8,0.1c-1.9,0-3.6,0.1-5.3,0.1c-1.6,0-3,0.1-4.2,0.1c0,0.8,0,2-0.1,3.7c0,1.7-0.1,3.5-0.1,5.4
			c0,1.9-0.1,3.7-0.1,5.5c0,1.7-0.1,3-0.1,3.8c0,0.5,0.2,0.8,0.6,0.8c1.1,0,2.4-0.1,4-0.2c1.6-0.1,3.3-0.2,5.1-0.3
			c1.8-0.1,3.7-0.2,5.7-0.3c1.9-0.1,3.8-0.2,5.6-0.3c1.8-0.1,3.5-0.2,5.1-0.3c1.6-0.1,2.9-0.2,4-0.3c0.8-0.1,1.4,0.1,1.8,0.4
			c0.3,0.4,0.5,1.1,0.6,2c0.1,1-0.1,1.8-0.5,2.3c-0.4,0.5-1,0.8-1.7,0.8c-1.8,0.2-3.8,0.4-6.2,0.6c-2.3,0.2-4.8,0.4-7.3,0.5V108.9z"
			/>
	</g>
	<g>
		<path d="M711.3,257.6c3.2-0.1,6.4-0.2,9.4-0.3c3-0.1,5.8-0.2,8.4-0.3c0.8,0,1.4,0.2,1.7,0.6c0.3,0.5,0.5,1.1,0.5,1.9
			c0,1-0.2,1.7-0.6,2.2c-0.4,0.5-1,0.7-1.7,0.8c-3,0.2-6.2,0.3-9.7,0.5c-3.5,0.2-7.1,0.3-10.7,0.4c-3.7,0.1-7.3,0.2-10.9,0.3
			c-3.6,0.1-7,0.2-10.3,0.3c-1.6,0.1-2.4-0.9-2.4-2.9c0-1,0.2-1.7,0.6-2.1c0.4-0.5,1-0.7,1.9-0.7c2.7-0.1,5.4-0.2,8.3-0.3
			c2.9-0.1,5.8-0.2,8.8-0.3V253c-2.3,0.1-4.5,0.1-6.6,0.2c-2.1,0.1-3.8,0.1-5.3,0.1c-1.2,0-2.2-0.4-3.1-1.1
			c-0.8-0.7-1.3-1.8-1.4-3.2c-0.1-2.6-0.1-5.3-0.1-8.2c0-2.8,0.1-5.5,0.1-8.2c0-0.9,0.1-1.5,0.4-1.9c0.3-0.4,0.9-0.6,1.7-0.6
			c2.7,0,5.6-0.1,8.6-0.2c3-0.1,6-0.1,9.1-0.2c3,0,6-0.1,9-0.1s5.8,0,8.5,0c1.4,0,2,0.9,2,2.6c0,1-0.1,1.8-0.4,2.3
			c-0.3,0.5-0.8,0.8-1.7,0.8c-1.1,0-2.4,0.1-4,0.1c-1.6,0.1-3.3,0.1-5.2,0.1c-1.9,0-3.8,0.1-5.9,0.1c-2,0-4,0.1-5.9,0.1
			s-3.7,0.1-5.4,0.1c-1.7,0.1-3.1,0.1-4.2,0.1c0,1.5-0.1,3.3-0.1,5.2c0,2-0.1,3.8-0.1,5.4c0,0.5,0.2,0.8,0.6,0.8c1.1,0,2.4,0,4-0.1
			c1.6,0,3.3-0.1,5.2-0.1c1.9,0,3.8-0.1,5.8-0.2c2-0.1,3.9-0.1,5.8-0.2c1.9,0,3.6-0.1,5.2-0.2c1.6-0.1,2.9-0.1,4-0.2
			c0.8,0,1.4,0.1,1.8,0.4c0.3,0.3,0.5,1,0.6,2c0.1,1-0.1,1.8-0.5,2.2c-0.4,0.4-1,0.7-1.7,0.8c-1.8,0.2-4,0.3-6.4,0.5
			c-2.5,0.1-5,0.2-7.7,0.3V257.6z M722.4,283.2c-0.6,1.5-1.6,2.9-2.9,4c-1.3,1.1-2.9,2-4.8,2.7c-1.9,0.7-4.1,1.1-6.5,1.1
			c-2.4,0.1-4.6-0.1-6.5-0.7c-1.9-0.5-3.5-1.3-4.7-2.3s-2.3-2.3-2.9-3.8c-0.7-1.5-1-3.2-1-5c0-1.6,0.3-3.2,0.9-4.6
			c0.6-1.5,1.5-2.8,2.8-4c1.2-1.2,2.8-2.1,4.6-2.9c1.8-0.7,4-1.2,6.5-1.3c2.4-0.1,4.5,0.1,6.4,0.6c1.9,0.5,3.5,1.3,4.8,2.3
			s2.4,2.3,3.1,3.8c0.7,1.5,1.1,3.2,1.2,5.1C723.4,280,723.1,281.6,722.4,283.2z M714.8,283.4c1.5-1.4,2.2-3.1,2.2-5.2
			c-0.1-2.1-0.9-3.8-2.4-5c-1.5-1.2-3.7-1.7-6.5-1.6c-2.9,0.1-5.1,0.9-6.5,2.3c-1.4,1.4-2.1,3.1-2.1,4.9c0,2.1,0.8,3.7,2.2,5
			c1.4,1.2,3.5,1.8,6.4,1.7C711.1,285.6,713.3,284.8,714.8,283.4z"/>
		<path d="M763.8,240.8c-0.4,0.4-1,0.7-1.9,0.8c-1,0-2.2,0.1-3.6,0.2c-1.4,0.1-2.9,0.1-4.6,0.2c-1.6,0.1-3.3,0.1-5,0.2
			c-1.7,0.1-3.4,0.1-5.1,0.2c-1.6,0-3.2,0.1-4.6,0.1c-1.4,0-2.6,0.1-3.6,0.1c-0.8,0-1.4-0.1-1.8-0.6c-0.4-0.4-0.7-1.2-0.7-2.2
			c0-1,0.1-1.8,0.5-2.3c0.4-0.5,0.9-0.8,1.6-0.8c1.3,0,2.8-0.1,4.6-0.1c1.7,0,3.6-0.1,5.6-0.2c0-1.4-0.1-2.7-0.1-3.8
			c0-1.1-0.1-2-0.1-2.7c0-1,0.2-1.8,0.6-2.3c0.4-0.5,1.3-0.9,2.7-0.9c1.5-0.1,2.5,0.1,2.9,0.5c0.4,0.4,0.7,1.2,0.7,2.3
			c0,0.7,0.1,1.6,0.1,2.8c0,1.2,0,2.5,0,3.9c1.9-0.1,3.7-0.1,5.4-0.2c1.7,0,3.2-0.1,4.4-0.1c0.8,0,1.5,0.1,1.9,0.6
			c0.4,0.4,0.6,1.1,0.7,2.2C764.4,239.6,764.2,240.3,763.8,240.8z M759.6,270.8c-1.2,1.3-2.7,2.4-4.6,3.2c-1.8,0.8-3.9,1.2-6.1,1.3
			c-2.3,0.1-4.4-0.2-6.2-0.8c-1.8-0.6-3.3-1.6-4.6-2.8c-1.2-1.2-2.2-2.8-2.8-4.5c-0.6-1.8-1-3.8-1-5.9c0-1.9,0.3-3.8,0.9-5.5
			c0.6-1.8,1.5-3.4,2.7-4.8s2.6-2.5,4.4-3.4c1.7-0.9,3.8-1.3,6.2-1.4c2.2-0.1,4.3,0.2,6.1,0.8c1.8,0.6,3.4,1.6,4.6,2.8
			c1.3,1.2,2.2,2.8,2.9,4.5c0.7,1.8,1.1,3.8,1.2,6c0,2.1-0.3,4.1-0.9,5.9C761.9,267.9,760.9,269.5,759.6,270.8z M748.8,270.2
			c2.7-0.1,4.8-1.1,6.3-2.9c1.5-1.8,2.2-4.2,2.1-7c-0.1-3-0.9-5.2-2.4-6.8c-1.5-1.6-3.5-2.3-6-2.2c-1.4,0.1-2.5,0.4-3.5,0.9
			c-1,0.5-1.9,1.2-2.5,2.1c-0.7,0.9-1.2,1.9-1.5,3c-0.3,1.2-0.5,2.4-0.5,3.8c0,2.9,0.8,5.2,2.2,6.8
			C744.2,269.5,746.2,270.3,748.8,270.2z M774.1,256.7c0,3.3-0.1,6.6-0.2,9.9s-0.2,7-0.3,10.8c0,1-0.3,1.8-0.8,2.3
			c-0.5,0.5-1.2,0.7-2.2,0.7c-1.9,0-2.8-1-2.8-3.1c0-7.3-0.1-14.6-0.1-21.9c0-7.3,0-14.5,0.1-21.9c0-0.9,0.2-1.5,0.7-1.9
			c0.5-0.4,1.3-0.6,2.5-0.6c1.1,0,2,0.2,2.4,0.6c0.5,0.4,0.7,1,0.7,1.8c0,3.2,0.1,6.2,0.1,9c0,2.8,0,5.6-0.1,8.3
			c1.1,0,2.2-0.1,3.3-0.1c1.1,0,2,0,2.8,0c0.1-2.9,0.2-5.8,0.3-8.6c0.1-2.9,0.2-5.9,0.3-9.1c0-0.8,0.3-1.4,0.7-1.8
			c0.4-0.4,1.3-0.6,2.4-0.6c1.2,0,2,0.3,2.5,0.7c0.5,0.4,0.7,1,0.7,1.7c0,4.1,0,8-0.1,11.7c-0.1,3.7-0.2,7.4-0.3,11
			c-0.1,3.6-0.3,7.3-0.5,11.1c-0.2,3.7-0.4,7.7-0.7,11.8c-0.1,2-1.1,2.9-3,2.8c-1.7,0-2.6-1.1-2.6-3.1c0-4,0-7.7,0.1-11.2
			c0-3.5,0.1-7,0.2-10.4H774.1z"/>
	</g>
	<g>
		<path d="M761.2,62.2c3.2-0.1,6.4-0.2,9.4-0.3c3-0.1,5.8-0.2,8.4-0.3c0.8,0,1.4,0.2,1.7,0.7c0.3,0.5,0.5,1.1,0.5,1.9
			c0,1-0.2,1.7-0.6,2.2c-0.4,0.4-1,0.7-1.7,0.7c-3,0.2-6.2,0.3-9.7,0.5c-3.5,0.1-7.1,0.3-10.7,0.4c-3.7,0.1-7.3,0.2-10.9,0.3
			c-3.6,0.1-7,0.2-10.3,0.3c-1.6,0.1-2.4-0.8-2.4-2.8c0-1,0.2-1.7,0.6-2.2c0.4-0.5,1-0.7,1.9-0.8c2.7-0.1,5.4-0.2,8.3-0.3
			c2.9-0.1,5.8-0.2,8.8-0.3v-5.3c-2.3,0.1-4.5,0.1-6.6,0.2c-2.1,0-3.8,0.1-5.3,0.1c-1.2,0-2.2-0.4-3.1-1.1c-0.8-0.7-1.3-1.8-1.4-3.2
			c0-1.3-0.1-2.7-0.1-4.3c0-1.5,0-3.1,0-4.7c0-1.6,0-3.2,0.1-4.7c0-1.6,0.1-3,0.1-4.3c0-0.9,0.1-1.5,0.4-1.9
			c0.3-0.4,0.9-0.6,1.7-0.6c2.7,0,5.6-0.1,8.6-0.2c3-0.1,6-0.1,9.1-0.2s6-0.1,9-0.1s5.8,0,8.5,0c1.4,0,2,0.9,2,2.6
			c0,1-0.1,1.8-0.4,2.3c-0.3,0.5-0.8,0.8-1.7,0.9c-1.1,0.1-2.4,0.1-4,0.1c-1.6,0-3.3,0.1-5.2,0.1c-1.9,0-3.8,0.1-5.9,0.1
			c-2,0-4,0.1-5.9,0.1c-1.9,0.1-3.7,0.1-5.4,0.1c-1.7,0-3.1,0.1-4.2,0.1c0,0.8,0,1.7,0,2.7c0,1,0,2.1-0.1,3.2c0,1.1,0,2.2-0.1,3.3
			c0,1.1,0,2,0,2.8c0,0.5,0.2,0.8,0.6,0.8c1.1,0,2.4,0,4-0.1c1.6,0,3.3-0.1,5.2-0.1c1.9,0,3.8-0.1,5.8-0.2c2-0.1,3.9-0.1,5.8-0.2
			c1.9,0,3.6-0.1,5.2-0.2c1.6-0.1,2.9-0.1,4-0.2c0.8,0,1.4,0.1,1.8,0.5c0.3,0.4,0.5,1,0.6,2c0.1,1-0.1,1.8-0.5,2.2
			c-0.4,0.4-1,0.7-1.7,0.8c-1.8,0.2-4,0.3-6.4,0.5c-2.5,0.1-5,0.2-7.7,0.3V62.2z M774.7,87.5c-0.1,1-0.5,1.7-1.1,2.2
			c-0.6,0.4-1.4,0.6-2.3,0.5c-0.9-0.1-1.6-0.4-1.9-0.8c-0.3-0.4-0.5-1.1-0.6-2c-0.1-1.5-0.1-3-0.1-4.6c0-1.5,0-3.3,0-5.2
			c-1.6,0.1-3.5,0.2-5.9,0.3c-2.3,0.1-4.8,0.2-7.3,0.2c-2.5,0.1-5,0.1-7.3,0.2c-2.4,0.1-4.4,0.1-6,0.1c-0.8,0-1.5-0.2-1.8-0.6
			c-0.4-0.4-0.6-1.1-0.6-2.1c0-1.7,0.8-2.7,2.3-2.7c2.1-0.1,4.5-0.3,7.2-0.4c2.8-0.1,5.6-0.3,8.4-0.4c2.9-0.1,5.6-0.2,8.3-0.3
			c2.7-0.1,5-0.1,7-0.1c0.8,0,1.4,0.2,1.7,0.6c0.3,0.4,0.4,1,0.4,1.9c0,1.3,0,2.5,0,3.6c0,1.1-0.1,2.1-0.1,3.1c0,1-0.1,2-0.2,3.1
			C774.9,85.1,774.8,86.3,774.7,87.5z"/>
		<path d="M810.7,75.5c2.7-0.1,5.3-0.2,7.8-0.4c2.6-0.1,5.1-0.2,7.6-0.3c0.8,0,1.4,0.2,1.7,0.7s0.5,1.1,0.5,1.9c0,1-0.2,1.7-0.6,2.2
			c-0.4,0.5-1,0.7-1.7,0.8c-6,0.5-12.2,0.9-18.5,1.2c-6.3,0.4-12.7,0.6-19.2,0.8c-1.6,0-2.4-1-2.4-3c0-1,0.2-1.7,0.6-2.2
			c0.4-0.5,1-0.7,1.9-0.8c2.7-0.1,5.3-0.2,7.8-0.3c2.6-0.1,5.1-0.3,7.7-0.4v-9.5c-2.4,0.1-4.6,0.2-6.7,0.3c-2.1,0.1-3.9,0.2-5.4,0.2
			c-1.2,0-2.2-0.3-3.1-1.1c-0.8-0.8-1.3-1.8-1.4-3.2c0-1.3-0.1-3.1-0.1-5.3s0-4.6,0-7c0-2.4,0-4.8,0.1-7c0-2.2,0.1-4,0.1-5.3
			c0-0.9,0.1-1.5,0.4-1.9c0.3-0.4,0.9-0.6,1.7-0.6c2.7,0,5.6-0.1,8.5-0.2c3-0.1,5.9-0.1,8.9-0.2c3,0,5.9-0.1,8.8-0.1
			c2.9,0,5.7,0,8.5,0c1.3,0,2,1,2,2.9c0,1-0.1,1.8-0.4,2.3c-0.3,0.5-0.8,0.8-1.7,0.8c-1.1,0-2.4,0.1-4,0.1c-1.6,0-3.3,0.1-5.1,0.1
			c-1.8,0-3.7,0.1-5.7,0.1c-2,0-3.9,0.1-5.8,0.1c-1.9,0-3.6,0.1-5.3,0.1c-1.6,0-3,0.1-4.2,0.1c0,0.8,0,2-0.1,3.7
			c0,1.7-0.1,3.5-0.1,5.4s-0.1,3.7-0.1,5.5c0,1.7-0.1,3-0.1,3.9c0,0.5,0.2,0.8,0.6,0.8c1.1,0,2.4-0.1,4-0.2c1.6-0.1,3.3-0.2,5.1-0.3
			c1.8-0.1,3.7-0.2,5.7-0.3c1.9-0.1,3.8-0.2,5.6-0.3c1.8-0.1,3.5-0.2,5.1-0.3c1.6-0.1,2.9-0.2,4-0.3c0.8-0.1,1.4,0.1,1.8,0.4
			c0.3,0.4,0.5,1.1,0.6,2.1c0.1,1-0.1,1.8-0.5,2.3c-0.4,0.5-1,0.8-1.7,0.8c-1.8,0.2-3.8,0.4-6.2,0.6c-2.3,0.2-4.8,0.4-7.3,0.5V75.5z
			"/>
	</g>
	<g>
		
			<path style="fill:none;stroke:#E4007F;stroke-width:1.6312;stroke-linecap:round;stroke-linejoin:round;stroke-miterlimit:10;" d="
			M660.5,122.3c0,0,26.8,32,51.4-13.4"/>
		<polygon style="fill:#E4007F;" points="718.2,97.2 704.3,109.6 711.9,108.9 715.5,115.7 		"/>
		
			<path style="fill:none;stroke:#E4007F;stroke-width:1.6312;stroke-linecap:round;stroke-linejoin:round;stroke-miterlimit:10;" d="
			M809,97.4c0,0,22.5-5.1,6-20.2"/>
		<polygon style="fill:#E4007F;" points="796.1,100.3 814.6,102.7 809,97.4 811.8,90.2 		"/>
	</g>
</g>
</svg>
