
<svg xmlns="http://www.w3.org/2000/svg" version="1.1" xmlns:xlink="http://www.w3.org/1999/xlink" preserveAspectRatio="none" x="0px" y="0px" width="1280px" height="720px" viewBox="0 0 1280 720">
<defs>
<g id="Layer0_0_FILL">
<path fill="#E8EEDA" stroke="none" d="
M 431.45 374.95
Q 425.3 371.45 415.65 371.45
L 246.7 371.45
Q 237.05 371.45 230.95 374.95 220.25 381.1 220.25 397.9
L 220.25 440.2
Q 220.25 466.65 246.7 466.65
L 415.65 466.65
Q 430.85 466.65 437.35 457.9 442.1 451.45 442.1 440.2
L 442.1 420.1 442.1 409.6 442.1 397.9
Q 442.1 381.1 431.45 374.95
M 263.45 407.25
Q 264.75 405.85 266.6 405.05 268.4 404.25 270.7 404.25 275.4 404.25 277.95 407.8 280.5 411.35 280.5 418.8 280.5 422.15 279.85 425.2 279.15 428.2 277.55 430.45 276 432.7 273.4 434 270.85 435.35 267.15 435.35 266 435.35 264.55 435.15 263.15 434.95 262.2 434.6 261.85 434.5 261.9 434.1
L 262 430.9
Q 262.1 430.35 262.65 430.55 263.7 431 264.9 431.1 266.05 431.2 267.45 431.2 269.55 431.2 271 430.5 272.45 429.8 273.45 428.55 274.45 427.3 275.05 425.65 275.65 423.95 275.9 422.05 275.55 422.55 274.95 423 274.3 423.45 273.55 423.8 272.8 424.15 272 424.35 271.2 424.55 270.45 424.55 268.3 424.55 266.55 423.85 264.75 423.15 263.45 421.85 262.15 420.55 261.5 418.75 260.8 416.95 260.8 414.65 260.8 412.45 261.45 410.55 262.15 408.65 263.45 407.25
M 297.45 404.7
Q 299.2 405.15 300.5 406.05 301.85 406.95 302.7 408.45 303.55 409.95 303.55 411.95 303.55 413.05 303.2 414.15 302.8 415.2 302.1 416.15 301.4 417.15 300.45 417.9 299.5 418.65 298.4 419.15 301.05 420.3 302.4 422.05 303.75 423.85 303.75 426.05 303.75 428.15 302.95 429.95 302.1 431.7 300.6 432.95 299.1 434.2 296.95 434.75 294.8 435.35 292.5 435.35 290.75 435.35 289 435.05 287.25 434.75 285.8 434.2 285.4 434.1 285.25 433.9 285.05 433.75 285.1 433.4
L 285.45 430.35
Q 285.5 430 285.7 429.9 285.9 429.75 286.45 430 287.5 430.3 288.55 430.6 289.6 430.9 290.7 431 291.5 431.05 292.4 431.1 293.3 431.15 294.15 431.05 295 430.95 295.8 430.65 296.55 430.4 297.2 429.95 299.15 428.6 299.15 425.95 299.15 425 298.75 424.15 298.3 423.3 297.45 422.65 296.55 421.95 295.15 421.6 293.8 421.2 291.85 421.2
L 289.9 421.2
Q 289.55 421.2 289.45 421.1 289.35 421 289.35 420.7
L 289.35 417.75
Q 289.35 417.35 289.45 417.3 289.55 417.2 289.9 417.2
L 291.8 417.2
Q 292.65 417.2 293.9 416.95 295.15 416.7 296.3 416.1 297.5 415.5 298.3 414.55 299.1 413.65 299.1 412.3 299.1 411.3 298.6 410.55 298.05 409.75 297.25 409.3 296.4 408.8 295.45 408.6 294.5 408.4 293.65 408.4 293.1 408.4 292.4 408.5 291.65 408.6 290.85 408.8 290.05 408.95 289.25 409.2 288.45 409.45 287.85 409.7 287.35 409.9 287.15 409.8 286.95 409.7 286.85 409.35
L 286.5 406.4
Q 286.4 406.15 286.55 406 286.7 405.8 287.1 405.6 288.85 405 290.55 404.6 292.2 404.25 293.9 404.25 295.7 404.25 297.45 404.7
M 319.7 419.1
Q 319.7 418.55 320.3 418.55
L 342.15 418.55
Q 342.65 418.55 342.65 419.1
L 342.65 421.65
Q 342.65 422.15 342.15 422.15
L 320.3 422.15
Q 319.7 422.15 319.7 421.65
L 319.7 419.1
M 329.05 414.25
Q 328.25 413.4 328.25 412.15 328.25 410.9 329.05 410.1 329.85 409.25 331.15 409.25 332.4 409.25 333.25 410.1 334.1 410.9 334.1 412.15 334.1 413.4 333.25 414.25 332.4 415.05 331.15 415.05 329.9 415.05 329.05 414.25
M 331.15 425.7
Q 332.4 425.7 333.25 426.5 334.1 427.3 334.1 428.55 334.1 429.85 333.25 430.65 332.4 431.5 331.15 431.5 329.9 431.5 329.05 430.65 328.25 429.85 328.25 428.55 328.25 427.3 329.05 426.5 329.85 425.7 331.15 425.7
M 370.1 404.7
Q 371.85 405.15 373.15 406.05 374.5 406.95 375.35 408.45 376.2 409.95 376.2 411.95 376.2 413.05 375.85 414.15 375.45 415.2 374.75 416.15 374.05 417.15 373.1 417.9 372.15 418.65 371.05 419.15 373.7 420.3 375.05 422.05 376.4 423.85 376.4 426.05 376.4 428.15 375.6 429.95 374.75 431.7 373.25 432.95 371.75 434.2 369.6 434.75 367.45 435.35 365.15 435.35 363.4 435.35 361.65 435.05 359.9 434.75 358.45 434.2 358.05 434.1 357.9 433.9 357.7 433.75 357.75 433.4
L 358.1 430.35
Q 358.15 430 358.35 429.9 358.55 429.75 359.1 430 360.15 430.3 361.2 430.6 362.25 430.9 363.35 431 364.15 431.05 365.05 431.1 365.95 431.15 366.8 431.05 367.65 430.95 368.45 430.65 369.2 430.4 369.85 429.95 371.8 428.6 371.8 425.95 371.8 425 371.4 424.15 370.95 423.3 370.1 422.65 369.2 421.95 367.8 421.6 366.45 421.2 364.5 421.2
L 362.55 421.2
Q 362.2 421.2 362.1 421.1 362 421 362 420.7
L 362 417.75
Q 362 417.35 362.1 417.3 362.2 417.2 362.55 417.2
L 364.45 417.2
Q 365.3 417.2 366.55 416.95 367.8 416.7 368.95 416.1 370.15 415.5 370.95 414.55 371.75 413.65 371.75 412.3 371.75 411.3 371.25 410.55 370.7 409.75 369.9 409.3 369.05 408.8 368.1 408.6 367.15 408.4 366.3 408.4 365.75 408.4 365.05 408.5 364.3 408.6 363.5 408.8 362.7 408.95 361.9 409.2 361.1 409.45 360.5 409.7 360 409.9 359.8 409.8 359.6 409.7 359.5 409.35
L 359.15 406.4
Q 359.05 406.15 359.2 406 359.35 405.8 359.75 405.6 361.5 405 363.2 404.6 364.85 404.25 366.55 404.25 368.35 404.25 370.1 404.7
M 390.8 404.25
Q 392.75 404.25 394.35 404.8 396 405.35 397.15 406.4 398.3 407.45 399 409.05 399.7 410.65 399.7 412.75 399.7 414.55 398.9 416.4 398.1 418.25 396.9 420.05 395.7 421.8 394.35 423.45 392.95 425.05 391.85 426.35 391 427.45 390 428.65 389 429.8 388 430.95
L 399.75 430.95
Q 400.3 430.95 400.3 431.55
L 400.3 434.35
Q 400.3 435.05 399.75 435.05
L 382.7 435.05
Q 381.95 435.05 381.95 434.55
L 381.95 432.25
Q 381.95 431.95 382.1 431.6 382.3 431.3 382.5 431
L 388.6 423.75
Q 391.95 419.8 393.55 417.15 395.15 414.55 395.15 412.85 395.15 410.95 393.95 409.7 392.8 408.45 391.05 408.45 389.4 408.45 387.85 408.9 386.35 409.35 384.55 410.4 384.2 410.6 383.9 410.6 383.6 410.55 383.5 410.2
L 382.95 407.15
Q 382.85 406.95 382.95 406.8 383.1 406.55 383.5 406.35 385 405.55 386.95 404.9 388.95 404.25 390.8 404.25
M 266.7 409.9
Q 265.2 411.55 265.2 414.45 265.2 417.2 266.55 418.8 267.85 420.4 270.3 420.4 272.9 420.4 274.4 418.85 275.85 417.25 275.85 414.8 275.85 413.45 275.45 412.25 275.05 411.05 274.35 410.15 273.65 409.25 272.7 408.75 271.75 408.2 270.65 408.2 268.25 408.2 266.7 409.9 Z"/>

<path fill="#1E1E1E" stroke="none" d="
M 394.35 404.8
Q 392.75 404.25 390.8 404.25 388.95 404.25 386.95 404.9 385 405.55 383.5 406.35 383.1 406.55 382.95 406.8 382.85 406.95 382.95 407.15
L 383.5 410.2
Q 383.6 410.55 383.9 410.6 384.2 410.6 384.55 410.4 386.35 409.35 387.85 408.9 389.4 408.45 391.05 408.45 392.8 408.45 393.95 409.7 395.15 410.95 395.15 412.85 395.15 414.55 393.55 417.15 391.95 419.8 388.6 423.75
L 382.5 431
Q 382.3 431.3 382.1 431.6 381.95 431.95 381.95 432.25
L 381.95 434.55
Q 381.95 435.05 382.7 435.05
L 399.75 435.05
Q 400.3 435.05 400.3 434.35
L 400.3 431.55
Q 400.3 430.95 399.75 430.95
L 388 430.95
Q 389 429.8 390 428.65 391 427.45 391.85 426.35 392.95 425.05 394.35 423.45 395.7 421.8 396.9 420.05 398.1 418.25 398.9 416.4 399.7 414.55 399.7 412.75 399.7 410.65 399 409.05 398.3 407.45 397.15 406.4 396 405.35 394.35 404.8
M 373.15 406.05
Q 371.85 405.15 370.1 404.7 368.35 404.25 366.55 404.25 364.85 404.25 363.2 404.6 361.5 405 359.75 405.6 359.35 405.8 359.2 406 359.05 406.15 359.15 406.4
L 359.5 409.35
Q 359.6 409.7 359.8 409.8 360 409.9 360.5 409.7 361.1 409.45 361.9 409.2 362.7 408.95 363.5 408.8 364.3 408.6 365.05 408.5 365.75 408.4 366.3 408.4 367.15 408.4 368.1 408.6 369.05 408.8 369.9 409.3 370.7 409.75 371.25 410.55 371.75 411.3 371.75 412.3 371.75 413.65 370.95 414.55 370.15 415.5 368.95 416.1 367.8 416.7 366.55 416.95 365.3 417.2 364.45 417.2
L 362.55 417.2
Q 362.2 417.2 362.1 417.3 362 417.35 362 417.75
L 362 420.7
Q 362 421 362.1 421.1 362.2 421.2 362.55 421.2
L 364.5 421.2
Q 366.45 421.2 367.8 421.6 369.2 421.95 370.1 422.65 370.95 423.3 371.4 424.15 371.8 425 371.8 425.95 371.8 428.6 369.85 429.95 369.2 430.4 368.45 430.65 367.65 430.95 366.8 431.05 365.95 431.15 365.05 431.1 364.15 431.05 363.35 431 362.25 430.9 361.2 430.6 360.15 430.3 359.1 430 358.55 429.75 358.35 429.9 358.15 430 358.1 430.35
L 357.75 433.4
Q 357.7 433.75 357.9 433.9 358.05 434.1 358.45 434.2 359.9 434.75 361.65 435.05 363.4 435.35 365.15 435.35 367.45 435.35 369.6 434.75 371.75 434.2 373.25 432.95 374.75 431.7 375.6 429.95 376.4 428.15 376.4 426.05 376.4 423.85 375.05 422.05 373.7 420.3 371.05 419.15 372.15 418.65 373.1 417.9 374.05 417.15 374.75 416.15 375.45 415.2 375.85 414.15 376.2 413.05 376.2 411.95 376.2 409.95 375.35 408.45 374.5 406.95 373.15 406.05
M 333.25 426.5
Q 332.4 425.7 331.15 425.7 329.85 425.7 329.05 426.5 328.25 427.3 328.25 428.55 328.25 429.85 329.05 430.65 329.9 431.5 331.15 431.5 332.4 431.5 333.25 430.65 334.1 429.85 334.1 428.55 334.1 427.3 333.25 426.5
M 328.25 412.15
Q 328.25 413.4 329.05 414.25 329.9 415.05 331.15 415.05 332.4 415.05 333.25 414.25 334.1 413.4 334.1 412.15 334.1 410.9 333.25 410.1 332.4 409.25 331.15 409.25 329.85 409.25 329.05 410.1 328.25 410.9 328.25 412.15
M 320.3 418.55
Q 319.7 418.55 319.7 419.1
L 319.7 421.65
Q 319.7 422.15 320.3 422.15
L 342.15 422.15
Q 342.65 422.15 342.65 421.65
L 342.65 419.1
Q 342.65 418.55 342.15 418.55
L 320.3 418.55
M 300.5 406.05
Q 299.2 405.15 297.45 404.7 295.7 404.25 293.9 404.25 292.2 404.25 290.55 404.6 288.85 405 287.1 405.6 286.7 405.8 286.55 406 286.4 406.15 286.5 406.4
L 286.85 409.35
Q 286.95 409.7 287.15 409.8 287.35 409.9 287.85 409.7 288.45 409.45 289.25 409.2 290.05 408.95 290.85 408.8 291.65 408.6 292.4 408.5 293.1 408.4 293.65 408.4 294.5 408.4 295.45 408.6 296.4 408.8 297.25 409.3 298.05 409.75 298.6 410.55 299.1 411.3 299.1 412.3 299.1 413.65 298.3 414.55 297.5 415.5 296.3 416.1 295.15 416.7 293.9 416.95 292.65 417.2 291.8 417.2
L 289.9 417.2
Q 289.55 417.2 289.45 417.3 289.35 417.35 289.35 417.75
L 289.35 420.7
Q 289.35 421 289.45 421.1 289.55 421.2 289.9 421.2
L 291.85 421.2
Q 293.8 421.2 295.15 421.6 296.55 421.95 297.45 422.65 298.3 423.3 298.75 424.15 299.15 425 299.15 425.95 299.15 428.6 297.2 429.95 296.55 430.4 295.8 430.65 295 430.95 294.15 431.05 293.3 431.15 292.4 431.1 291.5 431.05 290.7 431 289.6 430.9 288.55 430.6 287.5 430.3 286.45 430 285.9 429.75 285.7 429.9 285.5 430 285.45 430.35
L 285.1 433.4
Q 285.05 433.75 285.25 433.9 285.4 434.1 285.8 434.2 287.25 434.75 289 435.05 290.75 435.35 292.5 435.35 294.8 435.35 296.95 434.75 299.1 434.2 300.6 432.95 302.1 431.7 302.95 429.95 303.75 428.15 303.75 426.05 303.75 423.85 302.4 422.05 301.05 420.3 298.4 419.15 299.5 418.65 300.45 417.9 301.4 417.15 302.1 416.15 302.8 415.2 303.2 414.15 303.55 413.05 303.55 411.95 303.55 409.95 302.7 408.45 301.85 406.95 300.5 406.05
M 266.6 405.05
Q 264.75 405.85 263.45 407.25 262.15 408.65 261.45 410.55 260.8 412.45 260.8 414.65 260.8 416.95 261.5 418.75 262.15 420.55 263.45 421.85 264.75 423.15 266.55 423.85 268.3 424.55 270.45 424.55 271.2 424.55 272 424.35 272.8 424.15 273.55 423.8 274.3 423.45 274.95 423 275.55 422.55 275.9 422.05 275.65 423.95 275.05 425.65 274.45 427.3 273.45 428.55 272.45 429.8 271 430.5 269.55 431.2 267.45 431.2 266.05 431.2 264.9 431.1 263.7 431 262.65 430.55 262.1 430.35 262 430.9
L 261.9 434.1
Q 261.85 434.5 262.2 434.6 263.15 434.95 264.55 435.15 266 435.35 267.15 435.35 270.85 435.35 273.4 434 276 432.7 277.55 430.45 279.15 428.2 279.85 425.2 280.5 422.15 280.5 418.8 280.5 411.35 277.95 407.8 275.4 404.25 270.7 404.25 268.4 404.25 266.6 405.05
M 265.2 414.45
Q 265.2 411.55 266.7 409.9 268.25 408.2 270.65 408.2 271.75 408.2 272.7 408.75 273.65 409.25 274.35 410.15 275.05 411.05 275.45 412.25 275.85 413.45 275.85 414.8 275.85 417.25 274.4 418.85 272.9 420.4 270.3 420.4 267.85 420.4 266.55 418.8 265.2 417.2 265.2 414.45
M 966.05 405
Q 964.5 404.35 962.45 404.35 959.25 404.35 957.3 405.8 955.35 407.3 954.25 409.55 953.15 411.85 952.75 414.55 952.4 417.3 952.4 419.75 952.4 427.1 954.85 431.15 957.3 435.2 962.45 435.2 965 435.2 966.85 434.2 968.7 433.1 969.95 431.15 971.2 429.2 971.8 426.3 972.4 423.4 972.4 419.75 972.4 418.1 972.2 416.35 972.05 414.55 971.65 412.85 971.25 411.15 970.55 409.6 969.85 408.05 968.7 406.85 967.65 405.7 966.05 405
M 958.45 411.15
Q 959.15 409.85 960.15 409.3 961.15 408.7 962.45 408.7 963.65 408.7 964.7 409.3 965.7 409.85 966.45 411.15 967.15 412.5 967.55 414.6 967.9 416.75 967.9 419.75 967.9 422.85 967.55 425 967.15 427.1 966.45 428.4 965.7 429.75 964.7 430.3 963.65 430.9 962.45 430.9 961.15 430.9 960.15 430.3 959.15 429.75 958.45 428.4 957.7 427.1 957.35 425 956.95 422.85 956.95 419.75 956.95 416.75 957.35 414.6 957.7 412.5 958.45 411.15
M 947 405.5
Q 947.05 405.1 946.7 405 945.8 404.65 944.35 404.45 942.95 404.25 941.8 404.25 938.05 404.25 935.5 405.55 932.95 406.9 931.35 409.15 929.8 411.35 929.1 414.4 928.4 417.4 928.4 420.8 928.4 428.25 930.95 431.8 933.5 435.35 938.2 435.35 940.5 435.35 942.35 434.55 944.2 433.75 945.5 432.3 946.8 430.95 947.45 429 948.15 427.15 948.15 424.95 948.15 422.65 947.45 420.85 946.75 419 945.45 417.7 944.2 416.4 942.4 415.7 940.65 415 938.45 415 937.7 415 936.9 415.25 936.1 415.45 935.35 415.8 934.6 416.15 934 416.6 933.4 417.05 933.05 417.55 933.3 415.6 933.9 413.9 934.45 412.25 935.45 411 936.45 409.75 937.9 409.05 939.4 408.4 941.45 408.4 942.85 408.4 944.05 408.5 945.2 408.6 946.25 409 946.8 409.25 946.9 408.7
L 947 405.5
M 942.4 420.8
Q 943.75 422.35 943.75 425.15 943.75 428 942.25 429.7 940.7 431.35 938.3 431.35 937.2 431.35 936.2 430.85 935.25 430.35 934.55 429.45 933.85 428.55 933.45 427.3 933.05 426.15 933.05 424.75 933.05 422.3 934.55 420.75 936 419.2 938.6 419.2 941.05 419.2 942.4 420.8
M 857.45 406.85
Q 856.4 405.7 854.8 405 853.25 404.35 851.2 404.35 848 404.35 846.05 405.8 844.1 407.3 843 409.55 841.9 411.85 841.5 414.55 841.15 417.3 841.15 419.75 841.15 427.1 843.6 431.15 846.05 435.2 851.2 435.2 853.75 435.2 855.6 434.2 857.45 433.1 858.7 431.15 859.95 429.2 860.55 426.3 861.15 423.4 861.15 419.75 861.15 418.1 860.95 416.35 860.8 414.55 860.4 412.85 860 411.15 859.3 409.6 858.6 408.05 857.45 406.85
M 851.2 408.7
Q 852.4 408.7 853.45 409.3 854.45 409.85 855.2 411.15 855.9 412.5 856.3 414.6 856.65 416.75 856.65 419.75 856.65 422.85 856.3 425 855.9 427.1 855.2 428.4 854.45 429.75 853.45 430.3 852.4 430.9 851.2 430.9 849.9 430.9 848.9 430.3 847.9 429.75 847.2 428.4 846.45 427.1 846.1 425 845.7 422.85 845.7 419.75 845.7 416.75 846.1 414.6 846.45 412.5 847.2 411.15 847.9 409.85 848.9 409.3 849.9 408.7 851.2 408.7
M 830.3 419.15
Q 831.4 418.65 832.35 417.9 833.3 417.15 834 416.15 834.7 415.2 835.1 414.15 835.45 413.05 835.45 411.95 835.45 409.95 834.6 408.45 833.75 406.95 832.4 406.05 831.1 405.15 829.35 404.7 827.6 404.25 825.8 404.25 824.1 404.25 822.45 404.6 820.75 405 819 405.6 818.6 405.8 818.45 406 818.3 406.15 818.4 406.4
L 818.75 409.35
Q 818.85 409.7 819.05 409.8 819.25 409.9 819.75 409.7 820.35 409.45 821.15 409.2 821.95 408.95 822.75 408.8 823.55 408.6 824.3 408.5 825 408.4 825.55 408.4 826.4 408.4 827.35 408.6 828.3 408.8 829.15 409.3 829.95 409.75 830.5 410.55 831 411.3 831 412.3 831 413.65 830.2 414.55 829.4 415.5 828.2 416.1 827.05 416.7 825.8 416.95 824.55 417.2 823.7 417.2
L 821.8 417.2
Q 821.45 417.2 821.35 417.3 821.25 417.35 821.25 417.75
L 821.25 420.7
Q 821.25 421 821.35 421.1 821.45 421.2 821.8 421.2
L 823.75 421.2
Q 825.7 421.2 827.05 421.6 828.45 421.95 829.35 422.65 830.2 423.3 830.65 424.15 831.05 425 831.05 425.95 831.05 428.6 829.1 429.95 828.45 430.4 827.7 430.65 826.9 430.95 826.05 431.05 825.2 431.15 824.3 431.1 823.4 431.05 822.6 431 821.5 430.9 820.45 430.6 819.4 430.3 818.35 430 817.8 429.75 817.6 429.9 817.4 430 817.35 430.35
L 817 433.4
Q 816.95 433.75 817.15 433.9 817.3 434.1 817.7 434.2 819.15 434.75 820.9 435.05 822.65 435.35 824.4 435.35 826.7 435.35 828.85 434.75 831 434.2 832.5 432.95 834 431.7 834.85 429.95 835.65 428.15 835.65 426.05 835.65 423.85 834.3 422.05 832.95 420.3 830.3 419.15
M 662.2 406.1
Q 660.9 405.2 659.15 404.75 657.4 404.3 655.6 404.3 653.9 404.3 652.25 404.65 650.55 405.05 648.8 405.65 648.4 405.85 648.25 406.05 648.1 406.2 648.2 406.45
L 648.55 409.4
Q 648.65 409.75 648.85 409.85 649.05 409.95 649.55 409.75 650.15 409.5 650.95 409.25 651.75 409 652.55 408.85 653.35 408.65 654.1 408.55 654.8 408.45 655.35 408.45 656.2 408.45 657.15 408.65 658.1 408.85 658.95 409.35 659.75 409.8 660.3 410.6 660.8 411.35 660.8 412.35 660.8 413.7 660 414.6 659.2 415.55 658 416.15 656.85 416.75 655.6 417 654.35 417.25 653.5 417.25
L 651.6 417.25
Q 651.25 417.25 651.15 417.35 651.05 417.4 651.05 417.8
L 651.05 420.75
Q 651.05 421.05 651.15 421.15 651.25 421.25 651.6 421.25
L 653.55 421.25
Q 655.5 421.25 656.85 421.65 658.25 422 659.15 422.7 660 423.35 660.45 424.2 660.85 425.05 660.85 426 660.85 428.65 658.9 430 658.25 430.45 657.5 430.7 656.7 431 655.85 431.1 655 431.2 654.1 431.15 653.2 431.1 652.4 431.05 651.3 430.95 650.25 430.65 649.2 430.35 648.15 430.05 647.6 429.8 647.4 429.95 647.2 430.05 647.15 430.4
L 646.8 433.45
Q 646.75 433.8 646.95 433.95 647.1 434.15 647.5 434.25 648.95 434.8 650.7 435.1 652.45 435.4 654.2 435.4 656.5 435.4 658.65 434.8 660.8 434.25 662.3 433 663.8 431.75 664.65 430 665.45 428.2 665.45 426.1 665.45 423.9 664.1 422.1 662.75 420.35 660.1 419.2 661.2 418.7 662.15 417.95 663.1 417.2 663.8 416.2 664.5 415.25 664.9 414.2 665.25 413.1 665.25 412 665.25 410 664.4 408.5 663.55 407 662.2 406.1
M 750.95 409.05
Q 751.5 409.3 751.6 408.75
L 751.7 405.55
Q 751.75 405.15 751.4 405.05 750.5 404.7 749.05 404.5 747.65 404.3 746.5 404.3 742.75 404.3 740.2 405.6 737.65 406.95 736.05 409.2 734.5 411.4 733.8 414.45 733.1 417.45 733.1 420.85 733.1 428.3 735.65 431.85 738.2 435.4 742.9 435.4 745.2 435.4 747.05 434.6 748.9 433.8 750.2 432.35 751.5 431 752.15 429.05 752.85 427.2 752.85 425 752.85 422.7 752.15 420.9 751.45 419.05 750.15 417.75 748.9 416.45 747.1 415.75 745.35 415.05 743.15 415.05 742.4 415.05 741.6 415.3 740.8 415.5 740.05 415.85 739.3 416.2 738.7 416.65 738.1 417.1 737.75 417.6 738 415.65 738.6 413.95 739.15 412.3 740.15 411.05 741.15 409.8 742.6 409.1 744.1 408.45 746.15 408.45 747.55 408.45 748.75 408.55 749.9 408.65 750.95 409.05
M 747.1 420.85
Q 748.45 422.4 748.45 425.2 748.45 428.05 746.95 429.75 745.4 431.4 743 431.4 741.9 431.4 740.9 430.9 739.95 430.4 739.25 429.5 738.55 428.6 738.15 427.35 737.75 426.2 737.75 424.8 737.75 422.35 739.25 420.8 740.7 419.25 743.3 419.25 745.75 419.25 747.1 420.85 Z"/>

<path fill="#FFFFFF" stroke="none" d="
M 1046.3 363.15
Q 1038.5 358.7 1026.25 358.7
L 592.6 358.7
Q 580.4 358.7 572.65 363.15 559.1 370.95 559.1 392.2
L 559.1 445.85
Q 559.1 479.4 592.6 479.4
L 1026.25 479.4
Q 1045.55 479.4 1053.75 468.3 1059.8 460.1 1059.8 445.85
L 1059.8 420.35 1059.8 407.05 1059.8 392.2
Q 1059.8 370.95 1046.3 363.15
M 751.6 408.75
Q 751.5 409.3 750.95 409.05 749.9 408.65 748.75 408.55 747.55 408.45 746.15 408.45 744.1 408.45 742.6 409.1 741.15 409.8 740.15 411.05 739.15 412.3 738.6 413.95 738 415.65 737.75 417.6 738.1 417.1 738.7 416.65 739.3 416.2 740.05 415.85 740.8 415.5 741.6 415.3 742.4 415.05 743.15 415.05 745.35 415.05 747.1 415.75 748.9 416.45 750.15 417.75 751.45 419.05 752.15 420.9 752.85 422.7 752.85 425 752.85 427.2 752.15 429.05 751.5 431 750.2 432.35 748.9 433.8 747.05 434.6 745.2 435.4 742.9 435.4 738.2 435.4 735.65 431.85 733.1 428.3 733.1 420.85 733.1 417.45 733.8 414.45 734.5 411.4 736.05 409.2 737.65 406.95 740.2 405.6 742.75 404.3 746.5 404.3 747.65 404.3 749.05 404.5 750.5 404.7 751.4 405.05 751.75 405.15 751.7 405.55
L 751.6 408.75
M 659.15 404.75
Q 660.9 405.2 662.2 406.1 663.55 407 664.4 408.5 665.25 410 665.25 412 665.25 413.1 664.9 414.2 664.5 415.25 663.8 416.2 663.1 417.2 662.15 417.95 661.2 418.7 660.1 419.2 662.75 420.35 664.1 422.1 665.45 423.9 665.45 426.1 665.45 428.2 664.65 430 663.8 431.75 662.3 433 660.8 434.25 658.65 434.8 656.5 435.4 654.2 435.4 652.45 435.4 650.7 435.1 648.95 434.8 647.5 434.25 647.1 434.15 646.95 433.95 646.75 433.8 646.8 433.45
L 647.15 430.4
Q 647.2 430.05 647.4 429.95 647.6 429.8 648.15 430.05 649.2 430.35 650.25 430.65 651.3 430.95 652.4 431.05 653.2 431.1 654.1 431.15 655 431.2 655.85 431.1 656.7 431 657.5 430.7 658.25 430.45 658.9 430 660.85 428.65 660.85 426 660.85 425.05 660.45 424.2 660 423.35 659.15 422.7 658.25 422 656.85 421.65 655.5 421.25 653.55 421.25
L 651.6 421.25
Q 651.25 421.25 651.15 421.15 651.05 421.05 651.05 420.75
L 651.05 417.8
Q 651.05 417.4 651.15 417.35 651.25 417.25 651.6 417.25
L 653.5 417.25
Q 654.35 417.25 655.6 417 656.85 416.75 658 416.15 659.2 415.55 660 414.6 660.8 413.7 660.8 412.35 660.8 411.35 660.3 410.6 659.75 409.8 658.95 409.35 658.1 408.85 657.15 408.65 656.2 408.45 655.35 408.45 654.8 408.45 654.1 408.55 653.35 408.65 652.55 408.85 651.75 409 650.95 409.25 650.15 409.5 649.55 409.75 649.05 409.95 648.85 409.85 648.65 409.75 648.55 409.4
L 648.2 406.45
Q 648.1 406.2 648.25 406.05 648.4 405.85 648.8 405.65 650.55 405.05 652.25 404.65 653.9 404.3 655.6 404.3 657.4 404.3 659.15 404.75
M 832.35 417.9
Q 831.4 418.65 830.3 419.15 832.95 420.3 834.3 422.05 835.65 423.85 835.65 426.05 835.65 428.15 834.85 429.95 834 431.7 832.5 432.95 831 434.2 828.85 434.75 826.7 435.35 824.4 435.35 822.65 435.35 820.9 435.05 819.15 434.75 817.7 434.2 817.3 434.1 817.15 433.9 816.95 433.75 817 433.4
L 817.35 430.35
Q 817.4 430 817.6 429.9 817.8 429.75 818.35 430 819.4 430.3 820.45 430.6 821.5 430.9 822.6 431 823.4 431.05 824.3 431.1 825.2 431.15 826.05 431.05 826.9 430.95 827.7 430.65 828.45 430.4 829.1 429.95 831.05 428.6 831.05 425.95 831.05 425 830.65 424.15 830.2 423.3 829.35 422.65 828.45 421.95 827.05 421.6 825.7 421.2 823.75 421.2
L 821.8 421.2
Q 821.45 421.2 821.35 421.1 821.25 421 821.25 420.7
L 821.25 417.75
Q 821.25 417.35 821.35 417.3 821.45 417.2 821.8 417.2
L 823.7 417.2
Q 824.55 417.2 825.8 416.95 827.05 416.7 828.2 416.1 829.4 415.5 830.2 414.55 831 413.65 831 412.3 831 411.3 830.5 410.55 829.95 409.75 829.15 409.3 828.3 408.8 827.35 408.6 826.4 408.4 825.55 408.4 825 408.4 824.3 408.5 823.55 408.6 822.75 408.8 821.95 408.95 821.15 409.2 820.35 409.45 819.75 409.7 819.25 409.9 819.05 409.8 818.85 409.7 818.75 409.35
L 818.4 406.4
Q 818.3 406.15 818.45 406 818.6 405.8 819 405.6 820.75 405 822.45 404.6 824.1 404.25 825.8 404.25 827.6 404.25 829.35 404.7 831.1 405.15 832.4 406.05 833.75 406.95 834.6 408.45 835.45 409.95 835.45 411.95 835.45 413.05 835.1 414.15 834.7 415.2 834 416.15 833.3 417.15 832.35 417.9
M 854.8 405
Q 856.4 405.7 857.45 406.85 858.6 408.05 859.3 409.6 860 411.15 860.4 412.85 860.8 414.55 860.95 416.35 861.15 418.1 861.15 419.75 861.15 423.4 860.55 426.3 859.95 429.2 858.7 431.15 857.45 433.1 855.6 434.2 853.75 435.2 851.2 435.2 846.05 435.2 843.6 431.15 841.15 427.1 841.15 419.75 841.15 417.3 841.5 414.55 841.9 411.85 843 409.55 844.1 407.3 846.05 405.8 848 404.35 851.2 404.35 853.25 404.35 854.8 405
M 946.7 405
Q 947.05 405.1 947 405.5
L 946.9 408.7
Q 946.8 409.25 946.25 409 945.2 408.6 944.05 408.5 942.85 408.4 941.45 408.4 939.4 408.4 937.9 409.05 936.45 409.75 935.45 411 934.45 412.25 933.9 413.9 933.3 415.6 933.05 417.55 933.4 417.05 934 416.6 934.6 416.15 935.35 415.8 936.1 415.45 936.9 415.25 937.7 415 938.45 415 940.65 415 942.4 415.7 944.2 416.4 945.45 417.7 946.75 419 947.45 420.85 948.15 422.65 948.15 424.95 948.15 427.15 947.45 429 946.8 430.95 945.5 432.3 944.2 433.75 942.35 434.55 940.5 435.35 938.2 435.35 933.5 435.35 930.95 431.8 928.4 428.25 928.4 420.8 928.4 417.4 929.1 414.4 929.8 411.35 931.35 409.15 932.95 406.9 935.5 405.55 938.05 404.25 941.8 404.25 942.95 404.25 944.35 404.45 945.8 404.65 946.7 405
M 962.45 404.35
Q 964.5 404.35 966.05 405 967.65 405.7 968.7 406.85 969.85 408.05 970.55 409.6 971.25 411.15 971.65 412.85 972.05 414.55 972.2 416.35 972.4 418.1 972.4 419.75 972.4 423.4 971.8 426.3 971.2 429.2 969.95 431.15 968.7 433.1 966.85 434.2 965 435.2 962.45 435.2 957.3 435.2 954.85 431.15 952.4 427.1 952.4 419.75 952.4 417.3 952.75 414.55 953.15 411.85 954.25 409.55 955.35 407.3 957.3 405.8 959.25 404.35 962.45 404.35
M 960.15 409.3
Q 959.15 409.85 958.45 411.15 957.7 412.5 957.35 414.6 956.95 416.75 956.95 419.75 956.95 422.85 957.35 425 957.7 427.1 958.45 428.4 959.15 429.75 960.15 430.3 961.15 430.9 962.45 430.9 963.65 430.9 964.7 430.3 965.7 429.75 966.45 428.4 967.15 427.1 967.55 425 967.9 422.85 967.9 419.75 967.9 416.75 967.55 414.6 967.15 412.5 966.45 411.15 965.7 409.85 964.7 409.3 963.65 408.7 962.45 408.7 961.15 408.7 960.15 409.3
M 943.75 425.15
Q 943.75 422.35 942.4 420.8 941.05 419.2 938.6 419.2 936 419.2 934.55 420.75 933.05 422.3 933.05 424.75 933.05 426.15 933.45 427.3 933.85 428.55 934.55 429.45 935.25 430.35 936.2 430.85 937.2 431.35 938.3 431.35 940.7 431.35 942.25 429.7 943.75 428 943.75 425.15
M 853.45 409.3
Q 852.4 408.7 851.2 408.7 849.9 408.7 848.9 409.3 847.9 409.85 847.2 411.15 846.45 412.5 846.1 414.6 845.7 416.75 845.7 419.75 845.7 422.85 846.1 425 846.45 427.1 847.2 428.4 847.9 429.75 848.9 430.3 849.9 430.9 851.2 430.9 852.4 430.9 853.45 430.3 854.45 429.75 855.2 428.4 855.9 427.1 856.3 425 856.65 422.85 856.65 419.75 856.65 416.75 856.3 414.6 855.9 412.5 855.2 411.15 854.45 409.85 853.45 409.3
M 748.45 425.2
Q 748.45 422.4 747.1 420.85 745.75 419.25 743.3 419.25 740.7 419.25 739.25 420.8 737.75 422.35 737.75 424.8 737.75 426.2 738.15 427.35 738.55 428.6 739.25 429.5 739.95 430.4 740.9 430.9 741.9 431.4 743 431.4 745.4 431.4 746.95 429.75 748.45 428.05 748.45 425.2 Z"/>
</g>

<path id="Layer0_0_1_STROKES" stroke="#BBDECB" stroke-width="5" stroke-linejoin="round" stroke-linecap="round" fill="none" d="
M 592.6 358.7
L 1026.25 358.7
Q 1038.5 358.7 1046.3 363.15 1059.8 370.95 1059.8 392.2
L 1059.8 407.05 1059.8 420.35 1059.8 445.85
Q 1059.8 460.1 1053.75 468.3 1045.55 479.4 1026.25 479.4
L 592.6 479.4
Q 559.1 479.4 559.1 445.85
L 559.1 392.2
Q 559.1 370.95 572.65 363.15 580.4 358.7 592.6 358.7 Z"/>
</defs>

<g transform="matrix( 1, 0, 0, 1, 0,0) ">
<use xlink:href="#Layer0_0_FILL"/>

<use xlink:href="#Layer0_0_1_STROKES"/>
</g>
</svg>
