
<svg xmlns="http://www.w3.org/2000/svg" version="1.1" xmlns:xlink="http://www.w3.org/1999/xlink" preserveAspectRatio="none" x="0px" y="0px" width="1280px" height="720px" viewBox="0 0 1280 720">
<defs>
<path id="fdbfdbfdn_0_Layer0_0_1_STROKES" stroke="#332D2B" stroke-width="2" stroke-linejoin="round" stroke-linecap="butt" fill="none" d="
M -137.6751953124999 -138.1554214477539
L -64.01922607421875 -138.1554214477539 -0.22271728515625 -101.32608032226562 -73.87868652343741 -101.32608032226562 -137.6751953124999 -138.1554214477539 Z"/>

<path id="fdbfdbfdn_0_Layer0_1_1_STROKES" stroke="#332D2B" stroke-width="2" stroke-linejoin="round" stroke-linecap="butt" fill="none" d="
M 100.83675231933603 -0.2628883361816179
L 100.6917602539063 -73.92157058715816 137.37475280761714 -137.72042922973628 137.51974487304688 -64.06174697875974 100.83675231933603 -0.2628883361816179 Z"/>

<path id="fdbfdbfdn_0_Layer0_2_1_STROKES" stroke="#332D2B" stroke-width="2" stroke-linejoin="round" stroke-linecap="butt" fill="none" d="
M -138.1101715087891 137.194652557373
L -138.1101715087891 63.53597030639651 -101.2821868896483 -0.2628883361816179 -101.2821868896483 73.39579391479487 -138.1101715087891 137.194652557373 Z"/>

<path id="fdbfdbfdn_0_Layer0_3_1_STROKES" stroke="#332D2B" stroke-width="2" stroke-linejoin="round" stroke-linecap="butt" fill="none" d="
M 0.3572509765624545 100.94530105590815
L 74.01322021484384 100.94530105590815 137.6647369384766 137.77464218139647 64.15375976562495 137.77464218139647 0.3572509765624545 100.94530105590815 Z"/>

<path id="fdbfdbfdn_0_Layer0_4_1_STROKES" stroke="#332D2B" stroke-width="2" stroke-linejoin="round" stroke-linecap="butt" fill="none" d="
M 36.75025939941406 36.71145019531252
L -37.19569396972656 36.71145019531252 -37.19569396972656 -37.23722686767576 36.75025939941406 -37.23722686767576 36.75025939941406 36.71145019531252 Z"/>

<path id="fdbfdbfdn_0_Layer0_5_1_STROKES" stroke="#332D2B" stroke-width="2" stroke-linejoin="round" stroke-linecap="butt" fill="none" d="
M 137.95472106933607 63.82596511840825
L 74.01322021484384 100.94530105590815 36.895251464843795 36.85644760131834 100.83675231933603 -0.2628883361816179 137.95472106933607 63.82596511840825 Z"/>

<path id="fdbfdbfdn_0_Layer0_6_1_STROKES" stroke="#332D2B" stroke-width="2" stroke-linejoin="round" stroke-linecap="butt" fill="none" d="
M -0.22271728515625 100.80030364990233
L -64.30921020507799 137.77464218139647 -101.2821868896483 73.83078613281253 -37.19569396972656 36.71145019531252 -0.22271728515625 100.80030364990233 Z"/>

<path id="fdbfdbfdn_0_Layer0_7_1_STROKES" stroke="#332D2B" stroke-width="2" stroke-linejoin="round" stroke-linecap="butt" fill="none" d="
M 100.83675231933603 -74.2115653991699
L 36.75025939941406 -37.23722686767576 -0.22271728515625 -101.32608032226562 63.863775634765716 -138.30041885375977 100.83675231933603 -74.2115653991699 Z"/>

<path id="fdbfdbfdn_0_Layer0_8_1_STROKES" stroke="#332D2B" stroke-width="2" stroke-linejoin="round" stroke-linecap="butt" fill="none" d="
M 63.863775634765716 -138.30041885375977
L 100.83675231933603 -74.2115653991699 137.80972900390634 -138.30041885375977 63.863775634765716 -138.30041885375977 Z"/>

<path id="fdbfdbfdn_0_Layer0_9_1_STROKES" stroke="#332D2B" stroke-width="2" stroke-linejoin="round" stroke-linecap="butt" fill="none" d="
M -73.58870239257817 -101.18108291625975
L -137.6751953124999 -138.1554214477539 -137.6751953124999 -64.06174697875974 -73.58870239257817 -101.18108291625975 Z"/>

<path id="fdbfdbfdn_0_Layer0_10_1_STROKES" stroke="#332D2B" stroke-width="2" stroke-linejoin="round" stroke-linecap="butt" fill="none" d="
M -138.2551635742186 137.48464736938485
L -101.2821868896483 73.39579391479487 -64.30921020507799 137.48464736938485 -138.2551635742186 137.48464736938485 Z"/>

<path id="fdbfdbfdn_0_Layer0_11_1_STROKES" stroke="#332D2B" stroke-width="2" stroke-linejoin="round" stroke-linecap="butt" fill="none" d="
M 137.95472106933607 63.82596511840825
L 73.86822814941411 100.80030364990233 137.95472106933607 137.77464218139647 137.95472106933607 63.82596511840825 Z"/>

<path id="fdbfdbfdn_0_Layer0_12_1_STROKES" stroke="#332D2B" stroke-width="2" stroke-linejoin="round" stroke-linecap="butt" fill="none" d="
M 63.863775634765716 -138.30041885375977
L -64.30921020507799 -212.10409851074218 -64.30921020507799 -138.30041885375977 -0.22271728515625 -101.32608032226562 63.863775634765716 -138.30041885375977 Z"/>

<path id="fdbfdbfdn_0_Layer0_13_1_STROKES" stroke="#332D2B" stroke-width="2" stroke-linejoin="round" stroke-linecap="butt" fill="none" d="
M 64.29875183105469 138.20963439941414
L 0.3572509765624545 100.94530105590815 -63.87423400878902 137.62964477539066 63.863775634765716 212.15831146240242 64.29875183105469 138.20963439941414 Z"/>

<path id="fdbfdbfdn_0_Layer0_14_1_STROKES" stroke="#332D2B" stroke-width="2" stroke-linejoin="round" stroke-linecap="butt" fill="none" d="
M -36.9057098388671 -37.23722686767576
L -100.84721069335933 -0.2628883361816179 -137.96517944335938 -64.35174179077148 -73.87868652343741 -101.32608032226562 -36.9057098388671 -37.23722686767576 Z"/>

<path id="fdbfdbfdn_0_Layer0_15_1_STROKES" stroke="#332D2B" stroke-width="2" stroke-linejoin="round" stroke-linecap="butt" fill="none" d="
M -100.99220275878906 0.1721038818359375
L -137.6751953124999 -64.06174697875974 -211.62114868164053 -64.64173660278323 -138.40015563964835 63.97096252441406 -100.99220275878906 0.1721038818359375 Z"/>

<path id="fdbfdbfdn_0_Layer0_16_1_STROKES" stroke="#332D2B" stroke-width="2" stroke-linejoin="round" stroke-linecap="butt" fill="none" d="
M 137.6647369384766 -64.35174179077148
L 100.83675231933603 -0.2628883361816179 137.95472106933607 63.82596511840825 211.61069030761723 -64.4967391967773 137.6647369384766 -64.35174179077148 Z"/>

<path id="fdbfdbfdn_0_Layer0_17_1_STROKES" stroke="#332D2B" stroke-width="2" stroke-linejoin="round" stroke-linecap="butt" fill="none" d="
M -37.19569396972656 -37.23722686767576
L -74.16867065429688 -101.32608032226562 -0.22271728515625 -101.32608032226562 36.75025939941406 -37.23722686767576 -37.19569396972656 -37.23722686767576 Z"/>

<path id="fdbfdbfdn_0_Layer0_18_1_STROKES" stroke="#332D2B" stroke-width="2" stroke-linejoin="round" stroke-linecap="butt" fill="none" d="
M -37.19569396972656 36.71145019531252
L -37.19569396972656 -37.23722686767576 -101.2821868896483 -0.2628883361816179 -101.2821868896483 73.83078613281253 -37.19569396972656 36.71145019531252 Z"/>

<path id="fdbfdbfdn_0_Layer0_19_1_STROKES" stroke="#332D2B" stroke-width="2" stroke-linejoin="round" stroke-linecap="butt" fill="none" d="
M 100.83675231933603 -0.2628883361816179
L 100.83675231933603 -74.2115653991699 36.75025939941406 -37.23722686767576 36.75025939941406 36.71145019531252 100.83675231933603 -0.2628883361816179 Z"/>
</defs>

<g transform="matrix( 1, 0, 0, 1, 640,428.9) ">
<g transform="matrix( 2.89984130859375, 0, 0, 2.8999481201171875, -963.55,-441.2) ">
<use xlink:href="#fdbfdbfdn_0_Layer0_0_1_STROKES" transform="matrix( 0.3448333740234375, 0, 0, 0.3448333740234375, 332.25,152.1) "/>
</g>

<g transform="matrix( 2.89984130859375, 0, 0, 2.8999481201171875, -963.55,-441.2) ">
<use xlink:href="#fdbfdbfdn_0_Layer0_1_1_STROKES" transform="matrix( 0.3448333740234375, 0, 0, 0.3448333740234375, 332.25,152.1) "/>
</g>

<g transform="matrix( 2.89984130859375, 0, 0, 2.8999481201171875, -963.55,-441.2) ">
<use xlink:href="#fdbfdbfdn_0_Layer0_2_1_STROKES" transform="matrix( 0.3448333740234375, 0, 0, 0.3448333740234375, 332.25,152.1) "/>
</g>

<g transform="matrix( 2.89984130859375, 0, 0, 2.8999481201171875, -963.55,-441.2) ">
<use xlink:href="#fdbfdbfdn_0_Layer0_3_1_STROKES" transform="matrix( 0.3448333740234375, 0, 0, 0.3448333740234375, 332.25,152.1) "/>
</g>

<g transform="matrix( 2.89984130859375, 0, 0, 2.8999481201171875, -963.55,-441.2) ">
<use xlink:href="#fdbfdbfdn_0_Layer0_4_1_STROKES" transform="matrix( 0.3448333740234375, 0, 0, 0.3448333740234375, 332.25,152.1) "/>
</g>

<g transform="matrix( 2.89984130859375, 0, 0, 2.8999481201171875, -963.55,-441.2) ">
<use xlink:href="#fdbfdbfdn_0_Layer0_5_1_STROKES" transform="matrix( 0.3448333740234375, 0, 0, 0.3448333740234375, 332.25,152.1) "/>
</g>

<g transform="matrix( 2.89984130859375, 0, 0, 2.8999481201171875, -963.55,-441.2) ">
<use xlink:href="#fdbfdbfdn_0_Layer0_6_1_STROKES" transform="matrix( 0.3448333740234375, 0, 0, 0.3448333740234375, 332.25,152.1) "/>
</g>

<g transform="matrix( 2.89984130859375, 0, 0, 2.8999481201171875, -963.55,-441.2) ">
<use xlink:href="#fdbfdbfdn_0_Layer0_7_1_STROKES" transform="matrix( 0.3448333740234375, 0, 0, 0.3448333740234375, 332.25,152.1) "/>
</g>

<g transform="matrix( 2.89984130859375, 0, 0, 2.8999481201171875, -963.55,-441.2) ">
<use xlink:href="#fdbfdbfdn_0_Layer0_8_1_STROKES" transform="matrix( 0.3448333740234375, 0, 0, 0.3448333740234375, 332.25,152.1) "/>
</g>

<g transform="matrix( 2.89984130859375, 0, 0, 2.8999481201171875, -963.55,-441.2) ">
<use xlink:href="#fdbfdbfdn_0_Layer0_9_1_STROKES" transform="matrix( 0.3448333740234375, 0, 0, 0.3448333740234375, 332.25,152.1) "/>
</g>

<g transform="matrix( 2.89984130859375, 0, 0, 2.8999481201171875, -963.55,-441.2) ">
<use xlink:href="#fdbfdbfdn_0_Layer0_10_1_STROKES" transform="matrix( 0.3448333740234375, 0, 0, 0.3448333740234375, 332.25,152.1) "/>
</g>

<g transform="matrix( 2.89984130859375, 0, 0, 2.8999481201171875, -963.55,-441.2) ">
<use xlink:href="#fdbfdbfdn_0_Layer0_11_1_STROKES" transform="matrix( 0.3448333740234375, 0, 0, 0.3448333740234375, 332.25,152.1) "/>
</g>

<g transform="matrix( 2.89984130859375, 0, 0, 2.8999481201171875, -963.55,-441.2) ">
<use xlink:href="#fdbfdbfdn_0_Layer0_12_1_STROKES" transform="matrix( 0.3448333740234375, 0, 0, 0.3448333740234375, 332.25,152.1) "/>
</g>

<g transform="matrix( 2.89984130859375, 0, 0, 2.8999481201171875, -963.55,-441.2) ">
<use xlink:href="#fdbfdbfdn_0_Layer0_13_1_STROKES" transform="matrix( 0.3448333740234375, 0, 0, 0.3448333740234375, 332.25,152.1) "/>
</g>

<g transform="matrix( 2.89984130859375, 0, 0, 2.8999481201171875, -963.55,-441.2) ">
<use xlink:href="#fdbfdbfdn_0_Layer0_14_1_STROKES" transform="matrix( 0.3448333740234375, 0, 0, 0.3448333740234375, 332.25,152.1) "/>
</g>

<g transform="matrix( 2.89984130859375, 0, 0, 2.8999481201171875, -963.55,-441.2) ">
<use xlink:href="#fdbfdbfdn_0_Layer0_15_1_STROKES" transform="matrix( 0.3448333740234375, 0, 0, 0.3448333740234375, 332.25,152.1) "/>
</g>

<g transform="matrix( 2.89984130859375, 0, 0, 2.8999481201171875, -963.55,-441.2) ">
<use xlink:href="#fdbfdbfdn_0_Layer0_16_1_STROKES" transform="matrix( 0.3448333740234375, 0, 0, 0.3448333740234375, 332.25,152.1) "/>
</g>

<g transform="matrix( 2.89984130859375, 0, 0, 2.8999481201171875, -963.55,-441.2) ">
<use xlink:href="#fdbfdbfdn_0_Layer0_17_1_STROKES" transform="matrix( 0.3448333740234375, 0, 0, 0.3448333740234375, 332.25,152.1) "/>
</g>

<g transform="matrix( 2.89984130859375, 0, 0, 2.8999481201171875, -963.55,-441.2) ">
<use xlink:href="#fdbfdbfdn_0_Layer0_18_1_STROKES" transform="matrix( 0.3448333740234375, 0, 0, 0.3448333740234375, 332.25,152.1) "/>
</g>

<g transform="matrix( 2.89984130859375, 0, 0, 2.8999481201171875, -963.55,-441.2) ">
<use xlink:href="#fdbfdbfdn_0_Layer0_19_1_STROKES" transform="matrix( 0.3448333740234375, 0, 0, 0.3448333740234375, 332.25,152.1) "/>
</g>
</g>
</svg>
