<svg xmlns="http://www.w3.org/2000/svg" viewBox="0 0 92.13 42.36"><defs><style>.cls-1{fill:#fff;}.cls-2,.cls-3{fill:none;stroke:#a6c6e9;}.cls-2{stroke-linecap:round;stroke-linejoin:round;stroke-width:1.2px;}.cls-3{stroke-width:0.72px;}.cls-4{fill:#f4f8fd;}.cls-5{font-size:14.11px;fill:#231815;font-family:NanumSquareRoundB, NanumSquareRound;font-weight:700;}</style></defs><title>자산 2</title><g id="레이어_2" data-name="레이어 2"><g id="레이어_1-2" data-name="레이어 1"><path class="cls-1" d="M17.6,4.06s-17,0-17,17v3.7s0,17,17,17h56s17,0,17-17v-3.7s0-17-17-17Z"/><path class="cls-2" d="M17.6,4.06s-17,0-17,17v3.7s0,17,17,17h56s17,0,17-17v-3.7s0-17-17-17Z"/><line class="cls-3" x1="83.06" y1="38.96" x2="88.11" y2="31.06"/><line class="cls-3" x1="78.52" y1="40.94" x2="81.12" y2="36.35"/><line class="cls-3" x1="74.63" y1="42.04" x2="77.27" y2="36.71"/><line class="cls-3" x1="71.44" y1="41.76" x2="74.12" y2="36.04"/><line class="cls-3" x1="67.79" y1="41.88" x2="70.97" y2="35.38"/><line class="cls-3" x1="64.17" y1="41.9" x2="70.8" y2="29.4"/><line class="cls-3" x1="60.55" y1="41.75" x2="67.52" y2="28.82"/><line class="cls-3" x1="57.15" y1="41.63" x2="61.51" y2="33.37"/><line class="cls-3" x1="53.65" y1="41.54" x2="58.36" y2="32.7"/><line class="cls-3" x1="50.31" y1="41.47" x2="55.2" y2="32.03"/><line class="cls-3" x1="46.81" y1="41.38" x2="52.05" y2="31.37"/><line class="cls-3" x1="43.32" y1="41.3" x2="48.9" y2="30.7"/><line class="cls-3" x1="39.67" y1="41.22" x2="45.74" y2="30.03"/><line class="cls-3" x1="36.17" y1="41.54" x2="42.59" y2="29.36"/><line class="cls-3" x1="32.52" y1="41.46" x2="39.44" y2="28.69"/><line class="cls-3" x1="29.18" y1="41.38" x2="36.29" y2="28.02"/><line class="cls-3" x1="25.37" y1="41.49" x2="33.13" y2="27.35"/><line class="cls-3" x1="22.08" y1="41.29" x2="31.35" y2="24.15"/><line class="cls-3" x1="18.84" y1="41.14" x2="26.83" y2="26.02"/><line class="cls-3" x1="14.8" y1="41.82" x2="23.67" y2="25.35"/><line class="cls-3" x1="11.91" y1="40.94" x2="20.52" y2="24.68"/><line class="cls-3" x1="8.5" y1="39.52" x2="18.21" y2="23.36"/><line class="cls-3" x1="5.35" y1="37.82" x2="13.8" y2="21.88"/><line class="cls-3" x1="2.83" y1="33" x2="10.9" y2="17.88"/><path class="cls-4" d="M18.51.6s-17,0-17,17v3.7s0,17,17,17h56s17,0,17-17V17.6s0-17-17-17Z"/><path class="cls-2" d="M18.51.6s-17,0-17,17v3.7s0,17,17,17h56s17,0,17-17V17.6s0-17-17-17Z"/><text class="cls-5" transform="translate(42.24 25.12) scale(1 1.02)"> </text></g></g></svg>