<?xml version="1.0" encoding="utf-8"?>
<!-- Generator: Adobe Illustrator 23.0.0, SVG Export Plug-In . SVG Version: 6.00 Build 0)  -->
<svg version="1.1" id="레이어_1" xmlns="http://www.w3.org/2000/svg" xmlns:xlink="http://www.w3.org/1999/xlink" x="0px"
	 y="0px" width="292.6px" height="100.6px" viewBox="0 0 292.6 100.6" style="enable-background:new 0 0 292.6 100.6;"
	 xml:space="preserve">
<path style="fill:none;stroke:#C8245B;stroke-width:0.5;stroke-linejoin:bevel;" d="M106.4,95.6L22.3,7.8 M12.6,95.6L81.9,7.8"/>
<title>자산 1</title>
<path style="fill:none;stroke:#F2A1AC;stroke-width:1.2;stroke-linecap:round;stroke-linejoin:round;stroke-dasharray:2.07,2.07;" d="
	M223.7,12.7c2.4-0.2,4.8,0.7,7,1.5"/>
<path style="fill:none;stroke:#F2A1AC;stroke-width:1.2;stroke-linecap:round;stroke-linejoin:round;stroke-dasharray:2.17,2.17;" d="
	M235.9,15.6c2.5,0.4,5.1,0,7.4-1.3"/>
<path style="fill:none;stroke:#F2A1AC;stroke-width:1.2;stroke-linecap:round;stroke-linejoin:round;" d="M244.2,13.7
	c0.3-0.2,0.6-0.4,0.9-0.6 M231.8,14.5l1,0.3l1,0.3 M220.8,13.5c0.3-0.2,0.6-0.3,0.9-0.4"/>
<path style="fill:#FFFFFF;" d="M281.1,2.3c0,0,11,0,11,11v3.5c0,0,0,11-11,11h-27c0,0-11,0-11-11v-3.5c0,0,0-11,11-11L281.1,2.3z"/>
<path style="fill:none;stroke:#F2A1AC;stroke-linecap:round;stroke-linejoin:round;" d="M281.1,2.3c0,0,11,0,11,11v3.5
	c0,0,0,11-11,11h-27c0,0-11,0-11-11v-3.5c0,0,0-11,11-11L281.1,2.3z"/>
<line style="fill:none;stroke:#F2A1AC;stroke-width:0.72;" x1="286.7" y1="26.8" x2="291" y2="16.3"/>
<line style="fill:none;stroke:#F2A1AC;stroke-width:0.72;" x1="283.1" y1="27.7" x2="288.1" y2="15.6"/>
<line style="fill:none;stroke:#F2A1AC;stroke-width:0.72;" x1="279.7" y1="27.6" x2="285.3" y2="14.8"/>
<line style="fill:none;stroke:#F2A1AC;stroke-width:0.72;" x1="276.7" y1="27.4" x2="282.4" y2="14.1"/>
<line style="fill:none;stroke:#F2A1AC;stroke-width:0.72;" x1="273.1" y1="28" x2="279.6" y2="13.4"/>
<line style="fill:none;stroke:#F2A1AC;stroke-width:0.72;" x1="270.2" y1="27.7" x2="276.8" y2="12.7"/>
<line style="fill:none;stroke:#F2A1AC;stroke-width:0.72;" x1="266.7" y1="27.8" x2="273.9" y2="11.9"/>
<line style="fill:none;stroke:#F2A1AC;stroke-width:0.72;" x1="263.9" y1="27.6" x2="272.3" y2="8.5"/>
<line style="fill:none;stroke:#F2A1AC;stroke-width:0.72;" x1="260.9" y1="27.5" x2="268.2" y2="10.5"/>
<line style="fill:none;stroke:#F2A1AC;stroke-width:0.72;" x1="257.5" y1="27.9" x2="265.4" y2="9.8"/>
<line style="fill:none;stroke:#F2A1AC;stroke-width:0.72;" x1="254" y1="27.8" x2="261.8" y2="9.8"/>
<line style="fill:none;stroke:#F2A1AC;stroke-width:0.72;" x1="251" y1="27" x2="260.5" y2="7.6"/>
<line style="fill:none;stroke:#F2A1AC;stroke-width:0.72;" x1="247.9" y1="25.5" x2="255.2" y2="8.9"/>
<line style="fill:none;stroke:#F2A1AC;stroke-width:0.72;" x1="246.7" y1="18.1" x2="253.9" y2="8.1"/>
<path style="fill:#FFFFFF;" d="M280.6,0.5c0,0,11,0,11,11v2.1c0,0,0,11-11,11h-27c0,0-11,0-11-11v-2.1c0,0,0-11,11-11L280.6,0.5z"/>
<path style="fill:none;stroke:#F2A1AC;stroke-linecap:round;stroke-linejoin:round;" d="M280.6,0.5c0,0,11,0,11,11v2.1
	c0,0,0,11-11,11h-27c0,0-11,0-11-11v-2.1c0,0,0-11,11-11L280.6,0.5z"/>
<path style="fill:#FFFFFF;" d="M211.9,2.3c0,0,11,0,11,11v3.5c0,0,0,11-11,11h-61.5c0,0-11,0-11-11v-3.5c0,0,0-11,11-11L211.9,2.3z"
	/>
<path style="fill:none;stroke:#F2A1AC;stroke-linecap:round;stroke-linejoin:round;" d="M211.9,2.3c0,0,11,0,11,11v3.5
	c0,0,0,11-11,11h-61.5c0,0-11,0-11-11v-3.5c0,0,0-11,11-11L211.9,2.3z"/>
<line style="fill:none;stroke:#F2A1AC;stroke-width:0.72;" x1="213.3" y1="27.5" x2="219" y2="16"/>
<line style="fill:none;stroke:#F2A1AC;stroke-width:0.72;" x1="216.4" y1="27" x2="222.6" y2="14.4"/>
<line style="fill:none;stroke:#F2A1AC;stroke-width:0.72;" x1="210.3" y1="27.8" x2="213" y2="21.7"/>
<line style="fill:none;stroke:#F2A1AC;stroke-width:0.72;" x1="207.4" y1="27.5" x2="209.5" y2="22.1"/>
<line style="fill:none;stroke:#F2A1AC;stroke-width:0.72;" x1="204.4" y1="27.6" x2="206.7" y2="21.4"/>
<line style="fill:none;stroke:#F2A1AC;stroke-width:0.72;" x1="201.1" y1="27.8" x2="203.8" y2="20.6"/>
<line style="fill:none;stroke:#F2A1AC;stroke-width:0.72;" x1="197.8" y1="27.8" x2="203.7" y2="14.2"/>
<line style="fill:none;stroke:#F2A1AC;stroke-width:0.72;" x1="194.5" y1="27.6" x2="200.7" y2="13.5"/>
<line style="fill:none;stroke:#F2A1AC;stroke-width:0.72;" x1="191.5" y1="27.5" x2="195.3" y2="18.5"/>
<line style="fill:none;stroke:#F2A1AC;stroke-width:0.72;" x1="188.2" y1="27.8" x2="192.5" y2="17.7"/>
<line style="fill:none;stroke:#F2A1AC;stroke-width:0.72;" x1="184.9" y1="28" x2="189.6" y2="17"/>
<line style="fill:none;stroke:#F2A1AC;stroke-width:0.72;" x1="181.8" y1="27.7" x2="186.8" y2="16.3"/>
<line style="fill:none;stroke:#F2A1AC;stroke-width:0.72;" x1="178.9" y1="27.7" x2="183.9" y2="15.6"/>
<line style="fill:none;stroke:#F2A1AC;stroke-width:0.72;" x1="175.5" y1="27.6" x2="181.1" y2="14.8"/>
<line style="fill:none;stroke:#F2A1AC;stroke-width:0.72;" x1="172.6" y1="27.4" x2="178.3" y2="14.1"/>
<line style="fill:none;stroke:#F2A1AC;stroke-width:0.72;" x1="168.9" y1="28" x2="175.4" y2="13.4"/>
<line style="fill:none;stroke:#F2A1AC;stroke-width:0.72;" x1="166" y1="27.7" x2="172.6" y2="12.7"/>
<line style="fill:none;stroke:#F2A1AC;stroke-width:0.72;" x1="162.5" y1="27.8" x2="169.7" y2="11.9"/>
<line style="fill:none;stroke:#F2A1AC;stroke-width:0.72;" x1="159.7" y1="27.6" x2="168.1" y2="8.5"/>
<line style="fill:none;stroke:#F2A1AC;stroke-width:0.72;" x1="156.7" y1="27.5" x2="164.1" y2="10.5"/>
<line style="fill:none;stroke:#F2A1AC;stroke-width:0.72;" x1="153.3" y1="27.9" x2="161.2" y2="9.8"/>
<line style="fill:none;stroke:#F2A1AC;stroke-width:0.72;" x1="149.9" y1="27.8" x2="157.7" y2="9.8"/>
<line style="fill:none;stroke:#F2A1AC;stroke-width:0.72;" x1="146.8" y1="27" x2="156.3" y2="7.6"/>
<line style="fill:none;stroke:#F2A1AC;stroke-width:0.72;" x1="143.7" y1="25.5" x2="151.1" y2="8.9"/>
<line style="fill:none;stroke:#F2A1AC;stroke-width:0.72;" x1="142.5" y1="18.1" x2="149.7" y2="8.1"/>
<path style="fill:#FCEBEC;" d="M211,0.5c0,0,11,0,11,11v2.1c0,0,0,11-11,11h-61.5c0,0-11,0-11-11v-2.1c0,0,0-11,11-11L211,0.5z"/>
<path style="fill:none;stroke:#F2A1AC;stroke-linecap:round;stroke-linejoin:round;" d="M211,0.5c0,0,11,0,11,11v2.1c0,0,0,11-11,11
	h-61.5c0,0-11,0-11-11v-2.1c0,0,0-11,11-11L211,0.5z"/>
<path style="fill:#231815;" d="M160.2,8.6v1.3c0,0.7,0.3,1.4,0.8,1.9c0.6,0.5,1.1,0.9,1.5,1.2c0.2,0.2,0.2,0.6,0,0.8
	c-0.2,0.2-0.5,0.2-0.7,0.1c-0.4-0.3-0.9-0.7-1.4-1.1c-0.4-0.2-0.7-0.6-0.8-1l0,0c-0.1,0.3-0.2,0.6-0.9,1.1s-1,0.9-1.6,1.3
	c-0.2,0.2-0.6,0.1-0.7-0.1c0,0,0,0,0,0c-0.2-0.2-0.2-0.6,0.1-0.8c0,0,0,0,0,0c0.6-0.4,1.1-0.9,1.7-1.4c0.6-0.5,0.9-1.2,0.8-1.9V8.6
	c0-0.4,0.3-0.5,0.6-0.5S160.2,8.2,160.2,8.6z M159.5,15.5v2.1c0,0.2,0.1,0.3,0.3,0.3h5.6c0.3,0,0.4,0.3,0.4,0.5s-0.1,0.5-0.4,0.5
	h-6.1c-0.7,0-0.9-0.2-0.9-0.9v-2.5c0-0.4,0.3-0.5,0.6-0.5C159.2,14.9,159.4,15.1,159.5,15.5C159.5,15.4,159.5,15.5,159.5,15.5
	L159.5,15.5z M165.5,8.1v7.4c0,0.3-0.2,0.5-0.5,0.5c0,0,0,0-0.1,0c-0.3,0-0.6-0.2-0.6-0.5v-4.3h-1.9c-0.3,0-0.4-0.3-0.4-0.5
	s0.1-0.5,0.4-0.5h1.9v-2c0-0.4,0.3-0.5,0.6-0.5C165.2,7.5,165.4,7.8,165.5,8.1C165.4,8.1,165.4,8.1,165.5,8.1L165.5,8.1z"/>
<path style="fill:#231815;" d="M177.2,14c0,0.3-0.1,0.5-0.4,0.5h-4v1.6c0,0.3-0.3,0.5-0.6,0.5s-0.6-0.1-0.6-0.5v-1.6h-4.2
	c-0.3,0-0.4-0.2-0.4-0.5s0.1-0.5,0.4-0.5h9.4C177.1,13.5,177.2,13.8,177.2,14z M169.5,16v1.6c0,0.2,0.1,0.3,0.3,0.3h5.8
	c0.3,0,0.4,0.2,0.4,0.5s-0.1,0.5-0.4,0.5h-6.4c-0.7,0-0.9-0.2-0.9-0.9v-2c0.1-0.3,0.4-0.6,0.7-0.5C169.3,15.6,169.5,15.8,169.5,16
	L169.5,16z M169.5,8.3v0.9h5.1V8.3c0-0.3,0.3-0.5,0.6-0.5c0,0,0,0,0,0c0.3,0,0.6,0.2,0.6,0.5c0,0,0,0,0,0v3.1c0,0.7-0.2,0.9-0.9,0.9
	h-5.6c-0.7,0-0.9-0.2-0.9-0.9V8.3c0-0.3,0.3-0.6,0.7-0.5C169.3,7.9,169.5,8.1,169.5,8.3L169.5,8.3z M169.7,11.3h4.7
	c0.1,0,0.2,0,0.2-0.2v-0.9h-5.1v0.9C169.5,11.3,169.6,11.4,169.7,11.3L169.7,11.3z"/>
<path style="fill:#231815;" d="M189,11.1V16c0,0.4-0.3,0.5-0.6,0.5s-0.6-0.2-0.6-0.5v-4.4c0-0.2-0.1-0.3-0.3-0.3h-5.4
	c-0.3,0-0.4-0.2-0.4-0.5s0.1-0.6,0.4-0.6h6C188.8,10.2,189,10.4,189,11.1z"/>
<path style="fill:#231815;" d="M200.1,10.7c0,0.3-0.1,0.5-0.4,0.5h-5.4c-0.2,0-0.3,0.1-0.3,0.3V15c0,0.2,0.1,0.3,0.3,0.3h5.5
	c0.3,0,0.4,0.2,0.4,0.5s-0.1,0.5-0.4,0.5h-6c-0.7,0-0.9-0.2-0.9-0.9v-4.2c0-0.7,0.2-0.9,0.9-0.9h5.9
	C199.9,10.2,200.1,10.4,200.1,10.7z"/>
<path style="fill:none;stroke:#A7D6BB;stroke-width:1.2;stroke-linecap:round;stroke-linejoin:round;stroke-dasharray:2.07,2.07;" d="
	M223.7,48.8c2.4-0.2,4.8,0.7,7,1.5"/>
<path style="fill:none;stroke:#A7D6BB;stroke-width:1.2;stroke-linecap:round;stroke-linejoin:round;stroke-dasharray:2.17,2.17;" d="
	M235.9,51.7c2.5,0.4,5.1,0,7.4-1.3"/>
<path style="fill:none;stroke:#A7D6BB;stroke-width:1.2;stroke-linecap:round;stroke-linejoin:round;" d="M244.2,49.9
	c0.3-0.2,0.6-0.4,0.9-0.6 M231.8,50.7l1,0.3c0.4,0.1,0.7,0.2,1,0.3 M220.8,49.7c0.3-0.2,0.6-0.3,0.9-0.4"/>
<path style="fill:#FFFFFF;" d="M281.1,38.5c0,0,11,0,11,11V53c0,0,0,11-11,11h-27c0,0-11,0-11-11v-3.5c0,0,0-11,11-11L281.1,38.5z"
	/>
<path style="fill:none;stroke:#A7D6BB;stroke-linecap:round;stroke-linejoin:round;" d="M281.1,38.5c0,0,11,0,11,11V53
	c0,0,0,11-11,11h-27c0,0-11,0-11-11v-3.5c0,0,0-11,11-11L281.1,38.5z"/>
<line style="fill:none;stroke:#A7D6BB;stroke-width:0.72;" x1="286.4" y1="63.1" x2="291" y2="52.4"/>
<line style="fill:none;stroke:#A7D6BB;stroke-width:0.72;" x1="283.1" y1="63.9" x2="288.1" y2="51.7"/>
<line style="fill:none;stroke:#A7D6BB;stroke-width:0.72;" x1="279.7" y1="63.7" x2="285.3" y2="51"/>
<line style="fill:none;stroke:#A7D6BB;stroke-width:0.72;" x1="276.7" y1="63.5" x2="282.4" y2="50.3"/>
<line style="fill:none;stroke:#A7D6BB;stroke-width:0.72;" x1="273.1" y1="64.2" x2="279.6" y2="49.5"/>
<line style="fill:none;stroke:#A7D6BB;stroke-width:0.72;" x1="270.2" y1="63.9" x2="276.8" y2="48.8"/>
<line style="fill:none;stroke:#A7D6BB;stroke-width:0.72;" x1="266.7" y1="63.9" x2="273.9" y2="48.1"/>
<line style="fill:none;stroke:#A7D6BB;stroke-width:0.72;" x1="263.9" y1="63.7" x2="272.3" y2="44.6"/>
<line style="fill:none;stroke:#A7D6BB;stroke-width:0.72;" x1="260.9" y1="63.7" x2="268.2" y2="46.6"/>
<line style="fill:none;stroke:#A7D6BB;stroke-width:0.72;" x1="257.5" y1="64" x2="265.4" y2="45.9"/>
<line style="fill:none;stroke:#A7D6BB;stroke-width:0.72;" x1="254" y1="64" x2="261.8" y2="45.9"/>
<line style="fill:none;stroke:#A7D6BB;stroke-width:0.72;" x1="251" y1="63.2" x2="260.5" y2="43.8"/>
<line style="fill:none;stroke:#A7D6BB;stroke-width:0.72;" x1="247.9" y1="61.6" x2="255.2" y2="45"/>
<line style="fill:none;stroke:#A7D6BB;stroke-width:0.72;" x1="246.7" y1="54.3" x2="253.9" y2="44.2"/>
<path style="fill:#FFFFFF;" d="M280.6,36.6c0,0,11,0,11,11v2.1c0,0,0,11-11,11h-27c0,0-11,0-11-11v-2.1c0,0,0-11,11-11H280.6z"/>
<path style="fill:none;stroke:#A7D6BB;stroke-linecap:round;stroke-linejoin:round;" d="M280.6,36.6c0,0,11,0,11,11v2.1
	c0,0,0,11-11,11h-27c0,0-11,0-11-11v-2.1c0,0,0-11,11-11H280.6z"/>
<path style="fill:#FFFFFF;" d="M211.9,38.5c0,0,11,0,11,11V53c0,0,0,11-11,11h-61.5c0,0-11,0-11-11v-3.5c0,0,0-11,11-11L211.9,38.5z
	"/>
<path style="fill:none;stroke:#A7D6BB;stroke-linecap:round;stroke-linejoin:round;" d="M211.9,38.5c0,0,11,0,11,11V53
	c0,0,0,11-11,11h-61.5c0,0-11,0-11-11v-3.5c0,0,0-11,11-11L211.9,38.5z"/>
<line style="fill:none;stroke:#A7D6BB;stroke-width:0.72;" x1="213.3" y1="63.7" x2="219" y2="52.2"/>
<line style="fill:none;stroke:#A7D6BB;stroke-width:0.72;" x1="216.4" y1="63.2" x2="222.6" y2="50.6"/>
<line style="fill:none;stroke:#A7D6BB;stroke-width:0.72;" x1="210.3" y1="63.9" x2="213" y2="57.8"/>
<line style="fill:none;stroke:#A7D6BB;stroke-width:0.72;" x1="207.4" y1="63.6" x2="209.5" y2="58.2"/>
<line style="fill:none;stroke:#A7D6BB;stroke-width:0.72;" x1="204.4" y1="63.8" x2="206.7" y2="57.5"/>
<line style="fill:none;stroke:#A7D6BB;stroke-width:0.72;" x1="201.1" y1="63.9" x2="203.8" y2="56.8"/>
<line style="fill:none;stroke:#A7D6BB;stroke-width:0.72;" x1="197.8" y1="63.9" x2="203.7" y2="50.3"/>
<line style="fill:none;stroke:#A7D6BB;stroke-width:0.72;" x1="194.5" y1="63.8" x2="200.7" y2="49.7"/>
<line style="fill:none;stroke:#A7D6BB;stroke-width:0.72;" x1="191.5" y1="63.6" x2="195.3" y2="54.6"/>
<line style="fill:none;stroke:#A7D6BB;stroke-width:0.72;" x1="188.2" y1="63.9" x2="192.5" y2="53.9"/>
<line style="fill:none;stroke:#A7D6BB;stroke-width:0.72;" x1="184.9" y1="64.2" x2="189.6" y2="53.2"/>
<line style="fill:none;stroke:#A7D6BB;stroke-width:0.72;" x1="181.8" y1="63.9" x2="186.8" y2="52.4"/>
<line style="fill:none;stroke:#A7D6BB;stroke-width:0.72;" x1="178.9" y1="63.9" x2="183.9" y2="51.7"/>
<line style="fill:none;stroke:#A7D6BB;stroke-width:0.72;" x1="175.5" y1="63.7" x2="181.1" y2="51"/>
<line style="fill:none;stroke:#A7D6BB;stroke-width:0.72;" x1="172.6" y1="63.5" x2="178.3" y2="50.3"/>
<line style="fill:none;stroke:#A7D6BB;stroke-width:0.72;" x1="168.9" y1="64.2" x2="175.4" y2="49.5"/>
<line style="fill:none;stroke:#A7D6BB;stroke-width:0.72;" x1="166" y1="63.9" x2="172.6" y2="48.8"/>
<line style="fill:none;stroke:#A7D6BB;stroke-width:0.72;" x1="162.5" y1="63.9" x2="169.7" y2="48.1"/>
<line style="fill:none;stroke:#A7D6BB;stroke-width:0.72;" x1="159.7" y1="63.7" x2="168.1" y2="44.6"/>
<line style="fill:none;stroke:#A7D6BB;stroke-width:0.72;" x1="156.7" y1="63.7" x2="164.1" y2="46.6"/>
<line style="fill:none;stroke:#A7D6BB;stroke-width:0.72;" x1="153.3" y1="64" x2="161.2" y2="45.9"/>
<line style="fill:none;stroke:#A7D6BB;stroke-width:0.72;" x1="149.9" y1="64" x2="157.7" y2="45.9"/>
<line style="fill:none;stroke:#A7D6BB;stroke-width:0.72;" x1="146.8" y1="63.2" x2="156.3" y2="43.8"/>
<line style="fill:none;stroke:#A7D6BB;stroke-width:0.72;" x1="143.7" y1="61.6" x2="151.1" y2="45"/>
<line style="fill:none;stroke:#A7D6BB;stroke-width:0.72;" x1="142.5" y1="54.3" x2="149.7" y2="44.2"/>
<path style="fill:#ECF6EF;" d="M211,36.6c0,0,11,0,11,11v2.1c0,0,0,11-11,11h-61.5c0,0-11,0-11-11v-2.1c0,0,0-11,11-11H211z"/>
<path style="fill:none;stroke:#A7D6BB;stroke-linecap:round;stroke-linejoin:round;" d="M211,36.6c0,0,11,0,11,11v2.1
	c0,0,0,11-11,11h-61.5c0,0-11,0-11-11v-2.1c0,0,0-11,11-11H211z"/>
<path style="fill:#231815;" d="M160.2,44.7V46c0,0.7,0.3,1.4,0.8,1.9c0.6,0.5,1.1,0.9,1.5,1.2c0.2,0.2,0.2,0.6,0,0.8
	c-0.2,0.2-0.5,0.2-0.7,0.1c-0.4-0.3-0.9-0.7-1.4-1.1s-0.8-0.8-0.8-1l0,0c-0.1,0.3-0.2,0.6-0.9,1.1s-1,0.9-1.6,1.3
	c-0.2,0.2-0.6,0.1-0.7-0.1c0,0,0,0,0,0c-0.2-0.2-0.2-0.6,0.1-0.8c0,0,0,0,0,0c0.6-0.4,1.1-0.8,1.7-1.3c0.6-0.5,0.9-1.2,0.8-1.9v-1.4
	c0-0.4,0.3-0.5,0.6-0.5S160.2,44.3,160.2,44.7z M159.5,51.6v2.1c0,0.2,0.1,0.3,0.3,0.3h5.6c0.3,0,0.4,0.3,0.4,0.5s-0.1,0.5-0.4,0.5
	h-6.1c-0.7,0-0.9-0.2-0.9-0.9v-2.5c0-0.4,0.3-0.5,0.6-0.5C159.2,51.1,159.4,51.3,159.5,51.6C159.5,51.6,159.5,51.6,159.5,51.6
	L159.5,51.6z M165.5,44.2v7.4c0,0.3-0.2,0.5-0.5,0.5c0,0,0,0-0.1,0c-0.3,0-0.6-0.2-0.6-0.5v-4.3h-1.9c-0.3,0-0.4-0.3-0.4-0.5
	s0.1-0.5,0.4-0.5h1.9v-2c0-0.4,0.3-0.5,0.6-0.5C165.2,43.7,165.4,43.9,165.5,44.2C165.4,44.2,165.4,44.2,165.5,44.2L165.5,44.2z"/>
<path style="fill:#231815;" d="M177.2,50.2c0,0.3-0.1,0.5-0.4,0.5h-4v1.6c0,0.3-0.3,0.5-0.6,0.5s-0.6-0.1-0.6-0.5v-1.6h-4.2
	c-0.3,0-0.4-0.2-0.4-0.5s0.1-0.5,0.4-0.5h9.4C177.1,49.6,177.2,49.9,177.2,50.2z M169.5,52.2v1.6c0,0.2,0.1,0.3,0.3,0.3h5.8
	c0.3,0,0.4,0.2,0.4,0.5s-0.1,0.5-0.4,0.5h-6.4c-0.7,0-0.9-0.2-0.9-0.9v-2c0-0.4,0.3-0.5,0.6-0.5S169.5,51.8,169.5,52.2L169.5,52.2z
	 M169.5,44.5v0.9h5.1v-0.9c0-0.3,0.3-0.5,0.6-0.5c0,0,0,0,0,0c0.3,0,0.6,0.2,0.6,0.5c0,0,0,0,0,0v3.1c0,0.7-0.2,0.9-0.9,0.9h-5.6
	c-0.7,0-0.9-0.2-0.9-0.9v-3.1c0-0.3,0.3-0.6,0.7-0.5C169.3,44,169.5,44.2,169.5,44.5L169.5,44.5z M169.7,47.5h4.7
	c0.1,0,0.2,0,0.2-0.2v-0.9h-5.1v0.9C169.5,47.5,169.6,47.5,169.7,47.5L169.7,47.5z"/>
<path style="fill:#231815;" d="M189.3,47.1V49c0,0.7-0.2,0.9-0.9,0.9h-5c-0.2,0-0.3,0.1-0.3,0.3v1.1c0,0.2,0.1,0.3,0.3,0.3h5.8
	c0.3,0,0.4,0.3,0.4,0.5s-0.1,0.5-0.4,0.5h-6.3c-0.7,0-0.9-0.2-0.9-0.9v-1.8c0-0.7,0.2-0.9,0.9-0.9h5c0.2,0,0.3-0.1,0.3-0.3v-1
	c0-0.2-0.1-0.3-0.3-0.3h-5.5c-0.3,0-0.4-0.2-0.4-0.5s0.1-0.5,0.4-0.5h6.1C189,46.2,189.3,46.4,189.3,47.1z"/>
<path style="fill:#231815;" d="M200.1,46.9c0,0.3-0.1,0.5-0.4,0.5h-5.4c-0.2,0-0.3,0.1-0.3,0.3v3.5c0,0.2,0.1,0.3,0.3,0.3h5.5
	c0.3,0,0.4,0.2,0.4,0.5s-0.1,0.5-0.4,0.5h-6c-0.7,0-0.9-0.2-0.9-0.9v-4.2c0-0.7,0.2-0.9,0.9-0.9h5.9
	C199.9,46.4,200.1,46.6,200.1,46.9z"/>
<path style="fill:none;stroke:#ADBEE1;stroke-width:1.2;stroke-linecap:round;stroke-linejoin:round;stroke-dasharray:2.07,2.07;" d="
	M223.7,85c2.4-0.2,4.8,0.7,7,1.5"/>
<path style="fill:none;stroke:#ADBEE1;stroke-width:1.2;stroke-linecap:round;stroke-linejoin:round;stroke-dasharray:2.17,2.17;" d="
	M235.9,87.8c2.5,0.4,5.1,0,7.4-1.3"/>
<path style="fill:none;stroke:#ADBEE1;stroke-width:1.2;stroke-linecap:round;stroke-linejoin:round;" d="M244.2,86
	c0.3-0.2,0.6-0.4,0.9-0.6 M231.8,86.8l1,0.3l1,0.3 M220.8,85.8c0.3-0.2,0.6-0.3,0.9-0.4"/>
<path style="fill:#FFFFFF;" d="M281.1,74.6c0,0,11,0,11,11v3.5c0,0,0,11-11,11h-27c0,0-11,0-11-11v-3.5c0,0,0-11,11-11H281.1z"/>
<path style="fill:none;stroke:#ADBEE1;stroke-linecap:round;stroke-linejoin:round;" d="M281.1,74.6c0,0,11,0,11,11v3.5
	c0,0,0,11-11,11h-27c0,0-11,0-11-11v-3.5c0,0,0-11,11-11H281.1z"/>
<line style="fill:none;stroke:#ADBEE1;stroke-width:0.72;" x1="286.4" y1="99.3" x2="291" y2="88.6"/>
<line style="fill:none;stroke:#ADBEE1;stroke-width:0.72;" x1="283.1" y1="100" x2="288.1" y2="87.8"/>
<line style="fill:none;stroke:#ADBEE1;stroke-width:0.72;" x1="279.7" y1="99.9" x2="285.3" y2="87.1"/>
<line style="fill:none;stroke:#ADBEE1;stroke-width:0.72;" x1="276.7" y1="99.7" x2="282.4" y2="86.4"/>
<line style="fill:none;stroke:#ADBEE1;stroke-width:0.72;" x1="273.1" y1="100.3" x2="279.6" y2="85.7"/>
<line style="fill:none;stroke:#ADBEE1;stroke-width:0.72;" x1="270.2" y1="100" x2="276.8" y2="84.9"/>
<line style="fill:none;stroke:#ADBEE1;stroke-width:0.72;" x1="266.7" y1="100" x2="273.9" y2="84.2"/>
<line style="fill:none;stroke:#ADBEE1;stroke-width:0.72;" x1="263.9" y1="99.9" x2="272.3" y2="80.8"/>
<line style="fill:none;stroke:#ADBEE1;stroke-width:0.72;" x1="260.9" y1="99.8" x2="268.2" y2="82.8"/>
<line style="fill:none;stroke:#ADBEE1;stroke-width:0.72;" x1="257.5" y1="100.2" x2="265.4" y2="82.1"/>
<line style="fill:none;stroke:#ADBEE1;stroke-width:0.72;" x1="254" y1="100.1" x2="261.8" y2="82"/>
<line style="fill:none;stroke:#ADBEE1;stroke-width:0.72;" x1="251" y1="99.3" x2="260.5" y2="79.9"/>
<line style="fill:none;stroke:#ADBEE1;stroke-width:0.72;" x1="247.9" y1="97.8" x2="255.2" y2="81.2"/>
<line style="fill:none;stroke:#ADBEE1;stroke-width:0.72;" x1="246.7" y1="90.4" x2="253.9" y2="80.3"/>
<path style="fill:#FFFFFF;" d="M280.6,72.8c0,0,11,0,11,11v2.1c0,0,0,11-11,11h-27c0,0-11,0-11-11v-2.1c0,0,0-11,11-11H280.6z"/>
<path style="fill:none;stroke:#ADBEE1;stroke-linecap:round;stroke-linejoin:round;" d="M280.6,72.8c0,0,11,0,11,11v2.1
	c0,0,0,11-11,11h-27c0,0-11,0-11-11v-2.1c0,0,0-11,11-11H280.6z"/>
<path style="fill:#FFFFFF;" d="M211.9,74.6c0,0,11,0,11,11v3.5c0,0,0,11-11,11h-61.5c0,0-11,0-11-11v-3.5c0,0,0-11,11-11H211.9z"/>
<path style="fill:none;stroke:#ADBEE1;stroke-linecap:round;stroke-linejoin:round;" d="M211.9,74.6c0,0,11,0,11,11v3.5
	c0,0,0,11-11,11h-61.5c0,0-11,0-11-11v-3.5c0,0,0-11,11-11H211.9z"/>
<line style="fill:none;stroke:#ADBEE1;stroke-width:0.72;" x1="213.3" y1="99.8" x2="219" y2="88.3"/>
<line style="fill:none;stroke:#ADBEE1;stroke-width:0.72;" x1="216.4" y1="99.3" x2="222.6" y2="86.7"/>
<line style="fill:none;stroke:#ADBEE1;stroke-width:0.72;" x1="210.3" y1="100" x2="213" y2="94"/>
<line style="fill:none;stroke:#ADBEE1;stroke-width:0.72;" x1="207.4" y1="99.8" x2="209.5" y2="94.4"/>
<line style="fill:none;stroke:#ADBEE1;stroke-width:0.72;" x1="204.4" y1="99.9" x2="206.7" y2="93.7"/>
<line style="fill:none;stroke:#ADBEE1;stroke-width:0.72;" x1="201.1" y1="100.1" x2="203.8" y2="92.9"/>
<line style="fill:none;stroke:#ADBEE1;stroke-width:0.72;" x1="197.8" y1="100.1" x2="203.7" y2="86.4"/>
<line style="fill:none;stroke:#ADBEE1;stroke-width:0.72;" x1="194.5" y1="99.9" x2="200.7" y2="85.8"/>
<line style="fill:none;stroke:#ADBEE1;stroke-width:0.72;" x1="191.5" y1="99.8" x2="195.3" y2="90.8"/>
<line style="fill:none;stroke:#ADBEE1;stroke-width:0.72;" x1="188.2" y1="100" x2="192.5" y2="90"/>
<line style="fill:none;stroke:#ADBEE1;stroke-width:0.72;" x1="184.9" y1="100.3" x2="189.6" y2="89.3"/>
<line style="fill:none;stroke:#ADBEE1;stroke-width:0.72;" x1="181.8" y1="100" x2="186.8" y2="88.6"/>
<line style="fill:none;stroke:#ADBEE1;stroke-width:0.72;" x1="178.9" y1="100" x2="183.9" y2="87.8"/>
<line style="fill:none;stroke:#ADBEE1;stroke-width:0.72;" x1="175.5" y1="99.9" x2="181.1" y2="87.1"/>
<line style="fill:none;stroke:#ADBEE1;stroke-width:0.72;" x1="172.6" y1="99.7" x2="178.3" y2="86.4"/>
<line style="fill:none;stroke:#ADBEE1;stroke-width:0.72;" x1="168.9" y1="100.3" x2="175.4" y2="85.7"/>
<line style="fill:none;stroke:#ADBEE1;stroke-width:0.72;" x1="166" y1="100" x2="172.6" y2="84.9"/>
<line style="fill:none;stroke:#ADBEE1;stroke-width:0.72;" x1="162.5" y1="100" x2="169.7" y2="84.2"/>
<line style="fill:none;stroke:#ADBEE1;stroke-width:0.72;" x1="159.7" y1="99.9" x2="168.1" y2="80.8"/>
<line style="fill:none;stroke:#ADBEE1;stroke-width:0.72;" x1="156.7" y1="99.8" x2="164.1" y2="82.8"/>
<line style="fill:none;stroke:#ADBEE1;stroke-width:0.72;" x1="153.3" y1="100.2" x2="161.2" y2="82.1"/>
<line style="fill:none;stroke:#ADBEE1;stroke-width:0.72;" x1="149.9" y1="100.1" x2="157.7" y2="82"/>
<line style="fill:none;stroke:#ADBEE1;stroke-width:0.72;" x1="146.8" y1="99.3" x2="156.3" y2="79.9"/>
<line style="fill:none;stroke:#ADBEE1;stroke-width:0.72;" x1="143.7" y1="97.8" x2="151.1" y2="81.2"/>
<line style="fill:none;stroke:#ADBEE1;stroke-width:0.72;" x1="142.5" y1="90.4" x2="149.7" y2="80.3"/>
<path style="fill:#ECEFF8;" d="M211,72.8c0,0,11,0,11,11v2.1c0,0,0,11-11,11h-61.5c0,0-11,0-11-11v-2.1c0,0,0-11,11-11H211z"/>
<path style="fill:none;stroke:#ADBEE1;stroke-linecap:round;stroke-linejoin:round;" d="M211,72.8c0,0,11,0,11,11v2.1
	c0,0,0,11-11,11h-61.5c0,0-11,0-11-11v-2.1c0,0,0-11,11-11H211z"/>
<path style="fill:#231815;" d="M160.2,80.8v1.3c0,0.7,0.3,1.4,0.8,1.9c0.6,0.5,1.1,0.9,1.5,1.2c0.2,0.2,0.3,0.5,0.1,0.7c0,0,0,0,0,0
	c-0.2,0.3-0.5,0.3-0.7,0.2c0,0,0,0,0,0c-0.4-0.3-0.9-0.7-1.4-1.1s-0.8-0.8-0.8-1l0,0c-0.1,0.3-0.2,0.6-0.9,1.1s-1,0.9-1.6,1.3
	c-0.2,0.2-0.6,0.1-0.7-0.1c0,0,0,0,0,0c-0.2-0.2-0.2-0.6,0.1-0.8c0,0,0,0,0,0c0.6-0.4,1.1-0.8,1.7-1.3c0.6-0.5,0.9-1.2,0.8-1.9v-1.4
	c0-0.4,0.3-0.5,0.6-0.5S160.2,80.5,160.2,80.8z M159.5,87.8v2.1c0,0.2,0.1,0.3,0.3,0.3h5.6c0.3,0,0.4,0.3,0.4,0.6s-0.1,0.5-0.4,0.5
	h-6.1c-0.7,0-0.9-0.2-0.9-0.9v-2.5c0-0.4,0.3-0.5,0.6-0.5C159.2,87.2,159.4,87.4,159.5,87.8C159.5,87.7,159.5,87.7,159.5,87.8
	L159.5,87.8z M165.5,80.4v7.4c0,0.3-0.2,0.5-0.5,0.5c0,0,0,0-0.1,0c-0.3,0-0.6-0.2-0.6-0.5v-4.3h-1.9c-0.3,0-0.4-0.3-0.4-0.5
	s0.1-0.5,0.4-0.5h1.9v-2c0-0.3,0.3-0.6,0.7-0.5C165.2,79.9,165.4,80.1,165.5,80.4L165.5,80.4z"/>
<path style="fill:#231815;" d="M177.2,86.3c0,0.3-0.1,0.5-0.4,0.5h-4v1.6c0,0.3-0.3,0.5-0.6,0.5s-0.6-0.1-0.6-0.5v-1.6h-4.2
	c-0.3,0-0.4-0.2-0.4-0.5s0.1-0.5,0.4-0.5h9.4C177.1,85.8,177.2,86,177.2,86.3z M169.5,88.3v1.6c0,0.2,0.1,0.3,0.3,0.3h5.8
	c0.3,0,0.4,0.2,0.4,0.5s-0.1,0.5-0.4,0.5h-6.4c-0.7,0-0.9-0.2-0.9-0.9v-2c0-0.4,0.3-0.5,0.6-0.5S169.5,88,169.5,88.3L169.5,88.3z
	 M169.5,80.6v1h5.1v-1c0-0.3,0.3-0.5,0.5-0.5c0,0,0,0,0,0c0.3,0,0.6,0.2,0.6,0.5v3.1c0,0.7-0.2,0.9-0.9,0.9h-5.6
	c-0.7,0-0.9-0.2-0.9-0.9v-3.1c0-0.3,0.3-0.5,0.5-0.5c0,0,0,0,0,0C169.2,80.1,169.5,80.3,169.5,80.6L169.5,80.6z M169.7,83.6h4.7
	c0.1,0,0.2,0,0.2-0.2v-0.8h-5.1v0.9C169.5,83.6,169.6,83.7,169.7,83.6L169.7,83.6z"/>
<path style="fill:#231815;" d="M183.4,82.9v4.4c0,0.2,0.1,0.3,0.3,0.3h5.4c0.3,0,0.4,0.3,0.4,0.5s-0.1,0.5-0.4,0.5h-5.9
	c-0.7,0-0.9-0.2-0.9-0.9v-4.8c0-0.4,0.3-0.5,0.6-0.5S183.4,82.5,183.4,82.9z"/>
<path style="fill:#231815;" d="M200.1,83.3v1.8c0,0.7-0.2,0.9-0.9,0.9h-5c-0.2,0-0.3,0.1-0.3,0.3v1.1c0,0.2,0.1,0.3,0.3,0.3h5.8
	c0.3,0,0.4,0.3,0.4,0.5s-0.1,0.5-0.4,0.5h-6.3c-0.7,0-0.9-0.2-0.9-0.9v-1.8c0-0.7,0.2-0.9,0.9-0.9h5c0.2,0,0.3-0.1,0.3-0.3v-1.1
	c0-0.2-0.1-0.3-0.3-0.3H193c-0.3,0-0.4-0.2-0.4-0.5s0.1-0.5,0.4-0.5h6.1C199.9,82.3,200.1,82.6,200.1,83.3z"/>
<g>
	<g>
		<path style="fill:#231815;" d="M13.4,2.8c-0.4,0-0.7,0.1-1,0.3c-0.3,0.2-0.8,0-1.5-0.4c-0.1-0.1-0.2-0.1-0.2-0.3
			c0-0.1,0.2-0.1,0.7-0.1c1,0.1,2,0.1,3,0.1c0.9,0,1.7,0,2.6-0.1c0.1,0,0.3-0.1,0.4-0.2c0.1,0,0.2,0,0.4,0c0.3,0.1,0.4,0.2,0.4,0.3
			C18,2.6,18,2.7,18,2.9v3c0,0.5,0,1.1-0.1,1.6C17.8,7.8,17.6,8,17.5,8s-0.1-0.1-0.2-0.4c0-0.4-0.1-0.8-0.1-1.2V2.7L13.4,2.8z"/>
		<path style="fill:#231815;" d="M1.1,94.9c0-0.2,0-0.4-0.2-0.5c-0.2-0.1-0.4-0.2-0.6-0.2c-0.1,0-0.2-0.1-0.3-0.2
			c-0.1-0.1,0.1-0.2,0.5-0.2H1c0.2,0,0.3,0,0.5,0.1c0.3,0,0.4,0.1,0.4,0.2c-0.1,0.2-0.1,0.3-0.1,0.5v3.8c0,0.1,0,0.3,0.2,0.3
			c0.1,0.1,0.2,0.1,0.3,0.1h3c0.2,0,0.3,0,0.5-0.1c0.1,0,0.3-0.1,0.4-0.2c0.2-0.1,0.4-0.2,0.6-0.2c0.2,0,0.5,0,0.7,0.1
			C7.9,98.6,8,98.7,8,98.9c-0.1,0.2-0.2,0.3-0.6,0.3h-5c-0.3,0-0.6,0-0.9-0.2c-0.3-0.1-0.4-0.4-0.4-0.8L1.1,94.9z"/>
		<path style="fill:#231815;" d="M111.3,98.8c-0.3,0-0.6-0.1-0.9-0.2c-0.3-0.1-0.4-0.4-0.4-0.8v-3.3c0-0.2-0.1-0.5-0.3-0.6l-0.5-0.2
			c-0.1,0-0.2-0.1-0.3-0.2c0-0.1,0.1-0.1,0.5-0.2c0.2-0.1,0.5-0.1,0.8,0c0.2,0.1,0.4,0.1,0.6,0.1c0.5,0,1.1,0,1.7,0h1.2
			c0.2,0,0.4,0,0.5-0.1c0.1-0.1,0.2-0.1,0.4-0.2c0.2-0.1,0.4-0.1,0.6-0.1c0.2,0,0.5,0,0.7,0c0.4,0.1,0.6,0.2,0.5,0.4
			s-0.3,0.3-0.6,0.3h-5v3.9c0,0.1,0,0.3,0.2,0.3c0.1,0.1,0.2,0.1,0.3,0.1h2.9c0.1,0,0.3,0,0.4-0.1c0.1-0.1,0.2-0.1,0.3-0.2
			c0.2-0.1,0.4-0.2,0.6-0.2c0.2,0,0.5,0,0.7,0.1c0.4,0.1,0.5,0.2,0.5,0.4s-0.2,0.3-0.6,0.3L111.3,98.8z"/>
		<path style="fill:#231815;" d="M86.6,5.8c0-0.1,0-0.3-0.1-0.3c-0.1-0.1-0.3-0.1-0.4-0.2c-0.2-0.1-0.3-0.1-0.3-0.2s0.2-0.1,0.4-0.1
			c0.2,0,0.4,0,0.6,0l0.6,0.1h4.3V2.9h-3.3c-0.1,0-0.3,0-0.4,0.1h-0.2c-0.2,0-0.3,0.1-0.5,0.1C87,3.2,86.6,3.1,86,2.8
			c-0.1,0-0.1-0.1-0.1-0.2s0.2-0.1,0.5-0.1l0.7,0.1c0.2,0,0.4,0,0.7,0h1.8c0.6,0,1.3,0,1.9-0.1c0.1-0.1,0.3-0.1,0.4-0.1
			c0.2,0,0.3,0,0.5,0.1c0.2,0.1,0.3,0.2,0.2,0.3c-0.1,0.1-0.2,0.2-0.2,0.3l-0.2,2h0.2c0.1,0,0.2,0,0.2,0.2c0,0.1-0.1,0.1-0.1,0.2
			c-0.1,0-0.3,0-0.4,0h-4.7v1.9c0,0.1,0,0.3,0.2,0.3c0.1,0.1,0.2,0.1,0.4,0.1h2.9c0.1,0,0.3,0,0.4-0.1c0.1,0,0.3-0.1,0.4-0.2
			c0.2-0.1,0.4-0.1,0.6-0.1c0.2,0,0.5,0,0.7,0.1c0.4,0.1,0.5,0.2,0.5,0.4S93,8,92.6,8h-4.8c-0.3,0-0.6,0-0.8-0.1
			c-0.3-0.1-0.4-0.3-0.4-0.7L86.6,5.8z"/>
		<polygon style="fill:none;stroke:#231815;stroke-width:0.8;stroke-linejoin:round;" points="106.1,95.5 12.3,95.5 22,7.6 
			81.6,7.6 		"/>
	</g>
</g>
</svg>
