<?xml version="1.0" encoding="utf-8"?>
<!-- Generator: Adobe Illustrator 23.0.0, SVG Export Plug-In . SVG Version: 6.00 Build 0)  -->
<svg version="1.1" id="레이어_1" xmlns="http://www.w3.org/2000/svg" xmlns:xlink="http://www.w3.org/1999/xlink" x="0px"
	 y="0px" width="93.1px" height="32.6px" viewBox="0 0 93.1 32.6" style="enable-background:new 0 0 93.1 32.6;"
	 xml:space="preserve">
<g>
	<path style="fill:#00A4AF;" d="M2.5,25.7V14.4c0,0,0-5.7,5.7-5.7h68.8l-0.6-5.3c0.1-0.3,0.2-1,0.6-1.2c0.1-0.1,0.2-0.3,0.4-0.4
		c0.5-0.2,1.2,0.3,1.5,0.7l4.6,6.3h3c0,0,5.7,0,5.7,5.7v11.3c0,0,0,5.7-5.7,5.7H8.2C8.2,31.4,2.5,31.4,2.5,25.7"/>
	<path style="fill:none;stroke:#00A4AF;stroke-linecap:round;stroke-linejoin:round;" d="M2.5,25.7V14.4c0,0,0-5.7,5.7-5.7h68.8
		l-0.6-5.3c0.1-0.3,0.2-1,0.6-1.2c0.1-0.1,0.2-0.3,0.4-0.4c0.5-0.2,1.2,0.3,1.5,0.7l4.6,6.3h3c0,0,5.7,0,5.7,5.7v11.3
		c0,0,0,5.7-5.7,5.7H8.2C8.2,31.4,2.5,31.4,2.5,25.7z"/>
	<path style="fill:#FFFFFF;" d="M1.2,24.9V13.6c0,0,0-5.7,5.7-5.7h68.8L75,2.5c0.1-0.3,0.2-1,0.6-1.2c0.1-0.1,0.6-0.2,0.8-0.2
		c0.5-0.2,0.9,0.2,1.1,0.5L82,7.9h3c0,0,5.7,0,5.7,5.7v11.3c0,0,0,5.7-5.7,5.7H6.8C6.8,30.6,1.2,30.6,1.2,24.9"/>
	<path style="fill:none;stroke:#00A4AF;stroke-linecap:round;stroke-linejoin:round;" d="M1.2,24.9V13.6c0,0,0-5.7,5.7-5.7h68.8
		L75,2.5c0.1-0.3,0.2-1,0.6-1.2c0.1-0.1,0.6-0.2,0.8-0.2c0.5-0.2,0.9,0.2,1.1,0.5L82,7.9h3c0,0,5.7,0,5.7,5.7v11.3
		c0,0,0,5.7-5.7,5.7H6.8C6.8,30.6,1.2,30.6,1.2,24.9z"/>
</g>
<g>
</g>
<g>
</g>
<g>
</g>
<g>
</g>
<g>
</g>
</svg>
