
<svg xmlns="http://www.w3.org/2000/svg" version="1.1" xmlns:xlink="http://www.w3.org/1999/xlink" preserveAspectRatio="none" x="0px" y="0px" width="1280px" height="720px" viewBox="0 0 1280 720">
<defs>
<g id="Layer0_0_FILL">
<path fill="#1E1E1E" stroke="none" d="
M 367.05 443.7
Q 367.65 440.8 367.65 437.15 367.65 435.5 367.45 433.75 367.3 431.95 366.9 430.25 366.5 428.55 365.8 427 365.1 425.45 363.95 424.25 362.9 423.1 361.3 422.4 359.75 421.75 357.7 421.75 354.5 421.75 352.55 423.2 350.6 424.7 349.5 426.95 348.4 429.25 348 431.95 347.65 434.7 347.65 437.15 347.65 444.5 350.1 448.55 352.55 452.6 357.7 452.6 360.25 452.6 362.1 451.6 363.95 450.5 365.2 448.55 366.45 446.6 367.05 443.7
M 357.7 426.1
Q 358.9 426.1 359.95 426.7 360.95 427.25 361.7 428.55 362.4 429.9 362.8 432 363.15 434.15 363.15 437.15 363.15 440.25 362.8 442.4 362.4 444.5 361.7 445.8 360.95 447.15 359.95 447.7 358.9 448.3 357.7 448.3 356.4 448.3 355.4 447.7 354.4 447.15 353.7 445.8 352.95 444.5 352.6 442.4 352.2 440.25 352.2 437.15 352.2 434.15 352.6 432 352.95 429.9 353.7 428.55 354.4 427.25 355.4 426.7 356.4 426.1 357.7 426.1
M 169.5 445.3
L 162.05 437.8 169.3 430.5
Q 169.5 430.35 169.5 430.05 169.5 429.75 169.3 429.55
L 167.7 427.85
Q 167.5 427.65 167.25 427.65 167 427.65 166.8 427.85
L 159.5 435.1 152.25 427.95
Q 151.8 427.5 151.3 427.95
L 149.6 429.7
Q 149.4 429.95 149.4 430.15 149.4 430.4 149.6 430.6
L 156.85 437.75 149.3 445.3
Q 149.1 445.5 149.1 445.8 149.1 446.05 149.3 446.25
L 151 447.95
Q 151.3 448.45 151.9 447.95
L 159.45 440.45 166.9 447.95
Q 167.1 448.1 167.4 448.1 167.65 448.1 167.85 447.95
L 169.5 446.15
Q 169.75 445.95 169.75 445.75 169.75 445.5 169.5 445.3
M 298.2 425.95
Q 298.4 426.15 298.7 426.15
L 311.45 426.15 301 451.7
Q 300.85 452.15 301 452.25 301.15 452.4 301.75 452.4
L 305 452.4
Q 305.4 452.4 305.55 452.3 305.7 452.15 305.9 451.85
L 316.45 425.8
Q 316.7 425.5 316.7 425.15
L 316.7 422.75
Q 316.7 422.3 316.55 422.15 316.4 422 315.7 422
L 298.7 422
Q 298 422 298 422.65
L 298 425.45
Q 298 425.8 298.2 425.95
M 316.9 370.25
Q 316.5 368.55 315.8 367 315.1 365.45 313.95 364.25 312.9 363.1 311.3 362.4 309.75 361.75 307.7 361.75 304.5 361.75 302.55 363.2 300.6 364.7 299.5 366.95 298.4 369.25 298 371.95 297.65 374.7 297.65 377.15 297.65 384.5 300.1 388.55 302.55 392.6 307.7 392.6 310.25 392.6 312.1 391.6 313.95 390.5 315.2 388.55 316.45 386.6 317.05 383.7 317.65 380.8 317.65 377.15 317.65 375.5 317.45 373.75 317.3 371.95 316.9 370.25
M 307.7 366.1
Q 308.9 366.1 309.95 366.7 310.95 367.25 311.7 368.55 312.4 369.9 312.8 372 313.15 374.15 313.15 377.15 313.15 380.25 312.8 382.4 312.4 384.5 311.7 385.8 310.95 387.15 309.95 387.7 308.9 388.3 307.7 388.3 306.4 388.3 305.4 387.7 304.4 387.15 303.7 385.8 302.95 384.5 302.6 382.4 302.2 380.25 302.2 377.15 302.2 374.15 302.6 372 302.95 369.9 303.7 368.55 304.4 367.25 305.4 366.7 306.4 366.1 307.7 366.1
M 263.55 365.9
Q 264.7 366 265.75 366.4 266.3 366.65 266.4 366.1
L 266.5 362.9
Q 266.55 362.5 266.2 362.4 265.3 362.05 263.85 361.85 262.45 361.65 261.3 361.65 257.55 361.65 255 362.95 252.45 364.3 250.85 366.55 249.3 368.75 248.6 371.8 247.9 374.8 247.9 378.2 247.9 385.65 250.45 389.2 253 392.75 257.7 392.75 260 392.75 261.85 391.95 263.7 391.15 265 389.7 266.3 388.35 266.95 386.4 267.65 384.55 267.65 382.35 267.65 380.05 266.95 378.25 266.25 376.4 264.95 375.1 263.7 373.8 261.9 373.1 260.15 372.4 257.95 372.4 257.2 372.4 256.4 372.65 255.6 372.85 254.85 373.2 254.1 373.55 253.5 374 252.9 374.45 252.55 374.95 252.8 373 253.4 371.3 253.95 369.65 254.95 368.4 255.95 367.15 257.4 366.45 258.9 365.8 260.95 365.8 262.35 365.8 263.55 365.9
M 258.1 376.6
Q 260.55 376.6 261.9 378.2 263.25 379.75 263.25 382.55 263.25 385.4 261.75 387.1 260.2 388.75 257.8 388.75 256.7 388.75 255.7 388.25 254.75 387.75 254.05 386.85 253.35 385.95 252.95 384.7 252.55 383.55 252.55 382.15 252.55 379.7 254.05 378.15 255.5 376.6 258.1 376.6
M 352.55 363.2
Q 350.6 364.7 349.5 366.95 348.4 369.25 348 371.95 347.65 374.7 347.65 377.15 347.65 384.5 350.1 388.55 352.55 392.6 357.7 392.6 360.25 392.6 362.1 391.6 363.95 390.5 365.2 388.55 366.45 386.6 367.05 383.7 367.65 380.8 367.65 377.15 367.65 375.5 367.45 373.75 367.3 371.95 366.9 370.25 366.5 368.55 365.8 367 365.1 365.45 363.95 364.25 362.9 363.1 361.3 362.4 359.75 361.75 357.7 361.75 354.5 361.75 352.55 363.2
M 357.7 366.1
Q 358.9 366.1 359.95 366.7 360.95 367.25 361.7 368.55 362.4 369.9 362.8 372 363.15 374.15 363.15 377.15 363.15 380.25 362.8 382.4 362.4 384.5 361.7 385.8 360.95 387.15 359.95 387.7 358.9 388.3 357.7 388.3 356.4 388.3 355.4 387.7 354.4 387.15 353.7 385.8 352.95 384.5 352.6 382.4 352.2 380.25 352.2 377.15 352.2 374.15 352.6 372 352.95 369.9 353.7 368.55 354.4 367.25 355.4 366.7 356.4 366.1 357.7 366.1
M 546.65 427.85
Q 546.45 427.65 546.2 427.65 545.95 427.65 545.75 427.85
L 538.45 435.1 531.2 427.95
Q 530.75 427.5 530.25 427.95
L 528.55 429.7
Q 528.35 429.95 528.35 430.15 528.35 430.4 528.55 430.6
L 535.8 437.75 528.25 445.3
Q 528.05 445.5 528.05 445.8 528.05 446.05 528.25 446.25
L 529.95 447.95
Q 530.25 448.45 530.85 447.95
L 538.4 440.45 545.85 447.95
Q 546.05 448.1 546.35 448.1 546.6 448.1 546.8 447.95
L 548.45 446.15
Q 548.7 445.95 548.7 445.75 548.7 445.5 548.45 445.3
L 541 437.8 548.25 430.5
Q 548.45 430.35 548.45 430.05 548.45 429.75 548.25 429.55
L 546.65 427.85
M 628.8 362.1
Q 628.65 362.2 628.65 362.65
L 628.45 377.4
Q 628.45 378.75 630 378.1 631.25 377.65 632.65 377.4 634.05 377.1 635.35 377.1 638.65 377.1 640.05 378.65 641.5 380.15 641.5 382.75 641.5 385.45 639.7 386.95 638 388.5 635.3 388.5 634.6 388.5 633.75 388.4 632.95 388.35 632.1 388.2 631.25 388 630.45 387.8 629.65 387.55 629.1 387.25 628.25 386.85 628.25 387.55
L 628.25 390.8
Q 628.25 391.1 628.25 391.25 628.3 391.35 628.55 391.55 629.2 391.85 630.15 392.05 631.05 392.3 632 392.45 632.95 392.55 633.75 392.65 634.6 392.7 635 392.7 637.3 392.7 639.35 392.05 641.45 391.4 642.85 390.1 646 387.3 646 382.25 646 380.15 645.25 378.5 644.5 376.8 643.2 375.6 641.9 374.45 640.15 373.8 638.4 373.2 636.4 373.2 634.45 373.2 632.85 373.55
L 633 366.15 644.15 366.15
Q 644.4 366.15 644.55 365.95 644.65 365.8 644.65 365.55
L 644.65 362.5
Q 644.65 362.3 644.55 362.15 644.4 361.95 644.15 361.95
L 629.5 361.95
Q 628.9 361.95 628.8 362.1
M 694.6 432.95
Q 695.85 431.15 695.85 429.15 695.85 427.4 695.15 426 694.45 424.6 693.25 423.65 692.05 422.7 690.35 422.15 688.65 421.65 686.65 421.65 684.7 421.65 683 422.2 681.3 422.75 680.05 423.75 678.8 424.75 678.05 426.15 677.3 427.55 677.3 429.25 677.3 431.55 678.7 433.35 680.1 435.15 682.5 436.55 681.3 437.15 680.2 437.85 679.1 438.55 678.3 439.45 677.5 440.35 676.95 441.5 676.5 442.65 676.5 444.15 676.5 446.3 677.4 447.9 678.3 449.55 679.75 450.6 681.2 451.65 683 452.2 684.85 452.75 686.65 452.75 688.6 452.75 690.4 452.2 692.3 451.65 693.7 450.6 695.1 449.55 695.95 447.9 696.85 446.3 696.85 444.15 696.85 442.75 696.4 441.75 696 440.7 695.2 439.8 694.4 438.9 693.3 438.1 692.15 437.35 690.75 436.5 693.35 434.7 694.6 432.95
M 690.95 427.95
Q 691.35 428.65 691.35 429.45 691.35 430.15 690.85 430.95 690.35 431.75 689.6 432.5 688.85 433.2 688.05 433.75 687.3 434.3 686.65 434.55 686.15 434.35 685.35 433.85 684.55 433.4 683.75 432.7 683 432 682.45 431.2 681.85 430.4 681.85 429.55 681.85 428.6 682.3 427.85 682.75 427.15 683.45 426.65 684.1 426.15 684.95 425.85 685.8 425.55 686.65 425.55 687.6 425.55 688.45 425.9 689.3 426.15 689.95 426.7 690.6 427.25 690.95 427.95
M 688.65 439.7
Q 689.65 440.3 690.5 441 691.3 441.75 691.8 442.55 692.3 443.4 692.3 444.15 692.3 445.2 691.8 446.05 691.3 446.9 690.5 447.5 689.7 448.1 688.7 448.4 687.65 448.7 686.65 448.7 685.7 448.7 684.65 448.4 683.65 448.05 682.8 447.45 682 446.85 681.5 446 680.95 445.15 680.95 444.15 680.95 442.9 681.55 442 682.15 441.1 683 440.45 683.85 439.8 684.9 439.4 685.85 438.95 686.65 438.75 687.65 439.1 688.65 439.7
M 745.85 430.25
Q 745.45 428.55 744.75 427 744.05 425.45 742.9 424.25 741.85 423.1 740.25 422.4 738.7 421.75 736.65 421.75 733.45 421.75 731.5 423.2 729.55 424.7 728.45 426.95 727.35 429.25 726.95 431.95 726.6 434.7 726.6 437.15 726.6 444.5 729.05 448.55 731.5 452.6 736.65 452.6 739.2 452.6 741.05 451.6 742.9 450.5 744.15 448.55 745.4 446.6 746 443.7 746.6 440.8 746.6 437.15 746.6 435.5 746.4 433.75 746.25 431.95 745.85 430.25
M 740.65 428.55
Q 741.35 429.9 741.75 432 742.1 434.15 742.1 437.15 742.1 440.25 741.75 442.4 741.35 444.5 740.65 445.8 739.9 447.15 738.9 447.7 737.85 448.3 736.65 448.3 735.35 448.3 734.35 447.7 733.35 447.15 732.65 445.8 731.9 444.5 731.55 442.4 731.15 440.25 731.15 437.15 731.15 434.15 731.55 432 731.9 429.9 732.65 428.55 733.35 427.25 734.35 426.7 735.35 426.1 736.65 426.1 737.85 426.1 738.9 426.7 739.9 427.25 740.65 428.55
M 726.95 371.95
Q 726.6 374.7 726.6 377.15 726.6 384.5 729.05 388.55 731.5 392.6 736.65 392.6 739.2 392.6 741.05 391.6 742.9 390.5 744.15 388.55 745.4 386.6 746 383.7 746.6 380.8 746.6 377.15 746.6 375.5 746.4 373.75 746.25 371.95 745.85 370.25 745.45 368.55 744.75 367 744.05 365.45 742.9 364.25 741.85 363.1 740.25 362.4 738.7 361.75 736.65 361.75 733.45 361.75 731.5 363.2 729.55 364.7 728.45 366.95 727.35 369.25 726.95 371.95
M 734.35 366.7
Q 735.35 366.1 736.65 366.1 737.85 366.1 738.9 366.7 739.9 367.25 740.65 368.55 741.35 369.9 741.75 372 742.1 374.15 742.1 377.15 742.1 380.25 741.75 382.4 741.35 384.5 740.65 385.8 739.9 387.15 738.9 387.7 737.85 388.3 736.65 388.3 735.35 388.3 734.35 387.7 733.35 387.15 732.65 385.8 731.9 384.5 731.55 382.4 731.15 380.25 731.15 377.15 731.15 374.15 731.55 372 731.9 369.9 732.65 368.55 733.35 367.25 734.35 366.7
M 678.15 363.4
Q 678 363.55 678.1 363.8
L 678.45 366.75
Q 678.55 367.1 678.75 367.2 678.95 367.3 679.45 367.1 680.05 366.85 680.85 366.6 681.65 366.35 682.45 366.2 683.25 366 684 365.9 684.7 365.8 685.25 365.8 686.1 365.8 687.05 366 688 366.2 688.85 366.7 689.65 367.15 690.2 367.95 690.7 368.7 690.7 369.7 690.7 371.05 689.9 371.95 689.1 372.9 687.9 373.5 686.75 374.1 685.5 374.35 684.25 374.6 683.4 374.6
L 681.5 374.6
Q 681.15 374.6 681.05 374.7 680.95 374.75 680.95 375.15
L 680.95 378.1
Q 680.95 378.4 681.05 378.5 681.15 378.6 681.5 378.6
L 683.45 378.6
Q 685.4 378.6 686.75 379 688.15 379.35 689.05 380.05 689.9 380.7 690.35 381.55 690.75 382.4 690.75 383.35 690.75 386 688.8 387.35 688.15 387.8 687.4 388.05 686.6 388.35 685.75 388.45 684.9 388.55 684 388.5 683.1 388.45 682.3 388.4 681.2 388.3 680.15 388 679.1 387.7 678.05 387.4 677.5 387.15 677.3 387.3 677.1 387.4 677.05 387.75
L 676.7 390.8
Q 676.65 391.15 676.85 391.3 677 391.5 677.4 391.6 678.85 392.15 680.6 392.45 682.35 392.75 684.1 392.75 686.4 392.75 688.55 392.15 690.7 391.6 692.2 390.35 693.7 389.1 694.55 387.35 695.35 385.55 695.35 383.45 695.35 381.25 694 379.45 692.65 377.7 690 376.55 691.1 376.05 692.05 375.3 693 374.55 693.7 373.55 694.4 372.6 694.8 371.55 695.15 370.45 695.15 369.35 695.15 367.35 694.3 365.85 693.45 364.35 692.1 363.45 690.8 362.55 689.05 362.1 687.3 361.65 685.5 361.65 683.8 361.65 682.15 362 680.45 362.4 678.7 363 678.3 363.2 678.15 363.4
M 1072.8 425.2
Q 1070.25 421.65 1065.55 421.65 1063.25 421.65 1061.45 422.45 1059.6 423.25 1058.3 424.65 1057 426.05 1056.3 427.95 1055.65 429.85 1055.65 432.05 1055.65 434.35 1056.35 436.15 1057 437.95 1058.3 439.25 1059.6 440.55 1061.4 441.25 1063.15 441.95 1065.3 441.95 1066.05 441.95 1066.85 441.75 1067.65 441.55 1068.4 441.2 1069.15 440.85 1069.8 440.4 1070.4 439.95 1070.75 439.45 1070.5 441.35 1069.9 443.05 1069.3 444.7 1068.3 445.95 1067.3 447.2 1065.85 447.9 1064.4 448.6 1062.3 448.6 1060.9 448.6 1059.75 448.5 1058.55 448.4 1057.5 447.95 1056.95 447.75 1056.85 448.3
L 1056.75 451.5
Q 1056.7 451.9 1057.05 452 1058 452.35 1059.4 452.55 1060.85 452.75 1062 452.75 1065.7 452.75 1068.25 451.4 1070.85 450.1 1072.4 447.85 1074 445.6 1074.7 442.6 1075.35 439.55 1075.35 436.2 1075.35 428.75 1072.8 425.2
M 1065.5 425.6
Q 1066.6 425.6 1067.55 426.15 1068.5 426.65 1069.2 427.55 1069.9 428.45 1070.3 429.65 1070.7 430.85 1070.7 432.2 1070.7 434.65 1069.25 436.25 1067.75 437.8 1065.15 437.8 1062.7 437.8 1061.4 436.2 1060.05 434.6 1060.05 431.85 1060.05 428.95 1061.55 427.3 1063.1 425.6 1065.5 425.6
M 1105.95 431.95
Q 1105.6 434.7 1105.6 437.15 1105.6 444.5 1108.05 448.55 1110.5 452.6 1115.65 452.6 1118.2 452.6 1120.05 451.6 1121.9 450.5 1123.15 448.55 1124.4 446.6 1125 443.7 1125.6 440.8 1125.6 437.15 1125.6 435.5 1125.4 433.75 1125.25 431.95 1124.85 430.25 1124.45 428.55 1123.75 427 1123.05 425.45 1121.9 424.25 1120.85 423.1 1119.25 422.4 1117.7 421.75 1115.65 421.75 1112.45 421.75 1110.5 423.2 1108.55 424.7 1107.45 426.95 1106.35 429.25 1105.95 431.95
M 1110.55 442.4
Q 1110.15 440.25 1110.15 437.15 1110.15 434.15 1110.55 432 1110.9 429.9 1111.65 428.55 1112.35 427.25 1113.35 426.7 1114.35 426.1 1115.65 426.1 1116.85 426.1 1117.9 426.7 1118.9 427.25 1119.65 428.55 1120.35 429.9 1120.75 432 1121.1 434.15 1121.1 437.15 1121.1 440.25 1120.75 442.4 1120.35 444.5 1119.65 445.8 1118.9 447.15 1117.9 447.7 1116.85 448.3 1115.65 448.3 1114.35 448.3 1113.35 447.7 1112.35 447.15 1111.65 445.8 1110.9 444.5 1110.55 442.4
M 907.35 430.15
Q 907.35 430.4 907.55 430.6
L 914.8 437.75 907.25 445.3
Q 907.05 445.5 907.05 445.8 907.05 446.05 907.25 446.25
L 908.95 447.95
Q 909.25 448.45 909.85 447.95
L 917.4 440.45 924.85 447.95
Q 925.05 448.1 925.35 448.1 925.6 448.1 925.8 447.95
L 927.45 446.15
Q 927.7 445.95 927.7 445.75 927.7 445.5 927.45 445.3
L 920 437.8 927.25 430.5
Q 927.45 430.35 927.45 430.05 927.45 429.75 927.25 429.55
L 925.65 427.85
Q 925.45 427.65 925.2 427.65 924.95 427.65 924.75 427.85
L 917.45 435.1 910.2 427.95
Q 909.75 427.5 909.25 427.95
L 907.55 429.7
Q 907.35 429.95 907.35 430.15
M 1115.35 366.45
Q 1116.85 365.8 1118.9 365.8 1120.3 365.8 1121.5 365.9 1122.65 366 1123.7 366.4 1124.25 366.65 1124.35 366.1
L 1124.45 362.9
Q 1124.5 362.5 1124.15 362.4 1123.25 362.05 1121.8 361.85 1120.4 361.65 1119.25 361.65 1115.5 361.65 1112.95 362.95 1110.4 364.3 1108.8 366.55 1107.25 368.75 1106.55 371.8 1105.85 374.8 1105.85 378.2 1105.85 385.65 1108.4 389.2 1110.95 392.75 1115.65 392.75 1117.95 392.75 1119.8 391.95 1121.65 391.15 1122.95 389.7 1124.25 388.35 1124.9 386.4 1125.6 384.55 1125.6 382.35 1125.6 380.05 1124.9 378.25 1124.2 376.4 1122.9 375.1 1121.65 373.8 1119.85 373.1 1118.1 372.4 1115.9 372.4 1115.15 372.4 1114.35 372.65 1113.55 372.85 1112.8 373.2 1112.05 373.55 1111.45 374 1110.85 374.45 1110.5 374.95 1110.75 373 1111.35 371.3 1111.9 369.65 1112.9 368.4 1113.9 367.15 1115.35 366.45
M 1110.5 382.15
Q 1110.5 379.7 1112 378.15 1113.45 376.6 1116.05 376.6 1118.5 376.6 1119.85 378.2 1121.2 379.75 1121.2 382.55 1121.2 385.4 1119.7 387.1 1118.15 388.75 1115.75 388.75 1114.65 388.75 1113.65 388.25 1112.7 387.75 1112 386.85 1111.3 385.95 1110.9 384.7 1110.5 383.55 1110.5 382.15
M 1072.8 365.2
Q 1070.25 361.65 1065.55 361.65 1063.25 361.65 1061.45 362.45 1059.6 363.25 1058.3 364.65 1057 366.05 1056.3 367.95 1055.65 369.85 1055.65 372.05 1055.65 374.35 1056.35 376.15 1057 377.95 1058.3 379.25 1059.6 380.55 1061.4 381.25 1063.15 381.95 1065.3 381.95 1066.05 381.95 1066.85 381.75 1067.65 381.55 1068.4 381.2 1069.15 380.85 1069.8 380.4 1070.4 379.95 1070.75 379.45 1070.5 381.35 1069.9 383.05 1069.3 384.7 1068.3 385.95 1067.3 387.2 1065.85 387.9 1064.4 388.6 1062.3 388.6 1060.9 388.6 1059.75 388.5 1058.55 388.4 1057.5 387.95 1056.95 387.75 1056.85 388.3
L 1056.75 391.5
Q 1056.7 391.9 1057.05 392 1058 392.35 1059.4 392.55 1060.85 392.75 1062 392.75 1065.7 392.75 1068.25 391.4 1070.85 390.1 1072.4 387.85 1074 385.6 1074.7 382.6 1075.35 379.55 1075.35 376.2 1075.35 368.75 1072.8 365.2
M 1065.5 365.6
Q 1066.6 365.6 1067.55 366.15 1068.5 366.65 1069.2 367.55 1069.9 368.45 1070.3 369.65 1070.7 370.85 1070.7 372.2 1070.7 374.65 1069.25 376.25 1067.75 377.8 1065.15 377.8 1062.7 377.8 1061.4 376.2 1060.05 374.6 1060.05 371.85 1060.05 368.95 1061.55 367.3 1063.1 365.6 1065.5 365.6
M 1004.9 381.15
Q 1004.75 381.3 1004.6 381.6 1004.4 381.9 1004.4 382.15
L 1004.4 385.15
Q 1004.4 385.45 1004.55 385.5 1004.7 385.6 1005.05 385.6
L 1017.85 385.6 1017.85 391.7
Q 1017.85 392.1 1018 392.25 1018.15 392.4 1018.6 392.4
L 1021.5 392.4
Q 1021.9 392.4 1022 392.25 1022.15 392.15 1022.15 391.7
L 1022.15 385.6 1025.85 385.6
Q 1026.2 385.6 1026.35 385.5 1026.5 385.4 1026.5 385
L 1026.5 382.1
Q 1026.5 381.7 1026.35 381.6 1026.2 381.5 1025.85 381.5
L 1022.15 381.5 1022.15 362.6
Q 1022.15 362.25 1022.1 362.15 1022.05 362 1021.75 362
L 1018.1 362
Q 1017.7 362 1017.6 362.1 1017.5 362.2 1017.3 362.55
L 1004.9 381.15
M 1017.85 368.45
L 1017.85 381.5 1009.25 381.5 1017.85 368.45 Z"/>

<path fill="#FFFFFF" stroke="none" d="
M 351 266.55
Q 337.5 266.55 328 276.05 318.5 285.55 318.5 299.05 318.5 312.55 328 322.05 337.5 331.55 351 331.55 364.5 331.55 374 322.05 383.5 312.55 383.5 299.05 383.5 285.55 374 276.05 364.5 266.55 351 266.55
M 752.95 276.05
Q 743.45 266.55 729.95 266.55 716.45 266.55 706.95 276.05 697.45 285.55 697.45 299.05 697.45 312.55 706.95 322.05 716.45 331.55 729.95 331.55 743.45 331.55 752.95 322.05 762.45 312.55 762.45 299.05 762.45 285.55 752.95 276.05
M 1131.95 276.05
Q 1122.45 266.55 1108.95 266.55 1095.45 266.55 1085.95 276.05 1076.45 285.55 1076.45 299.05 1076.45 312.55 1085.95 322.05 1095.45 331.55 1108.95 331.55 1122.45 331.55 1131.95 322.05 1141.45 312.55 1141.45 299.05 1141.45 285.55 1131.95 276.05 Z"/>
</g>

<path id="Layer0_0_1_STROKES" stroke="#BBDECB" stroke-width="5" stroke-linejoin="round" stroke-linecap="butt" fill="none" d="
M 1076.45 299.05
Q 1076.45 285.55 1085.95 276.05 1095.45 266.55 1108.95 266.55 1122.45 266.55 1131.95 276.05 1141.45 285.55 1141.45 299.05
M 1076.45 299.05
Q 1076.45 312.55 1085.95 322.05 1095.45 331.55 1108.95 331.55 1122.45 331.55 1131.95 322.05 1141.45 312.55 1141.45 299.05
M 697.45 299.05
Q 697.45 285.55 706.95 276.05 716.45 266.55 729.95 266.55 743.45 266.55 752.95 276.05 762.45 285.55 762.45 299.05
M 697.45 299.05
Q 697.45 312.55 706.95 322.05 716.45 331.55 729.95 331.55 743.45 331.55 752.95 322.05 762.45 312.55 762.45 299.05
M 318.5 299.05
Q 318.5 285.55 328 276.05 337.5 266.55 351 266.55 364.5 266.55 374 276.05 383.5 285.55 383.5 299.05
M 318.5 299.05
Q 318.5 312.55 328 322.05 337.5 331.55 351 331.55 364.5 331.55 374 322.05 383.5 312.55 383.5 299.05"/>

<path id="Layer0_0_2_STROKES" stroke="#BBDECB" stroke-width="5" stroke-linejoin="round" stroke-linecap="round" fill="none" d="
M 1141.45 299.05
L 1158.5 299.05
Q 1173.5 299.05 1173.5 314.05
L 1173.5 576.9
Q 1173.5 587.45 1166 590.65 1162.9 591.9 1158.5 591.9
L 879.5 591.9
Q 874.55 591.9 871 590.15 864.5 586.95 864.5 576.9
L 864.5 314.05
Q 864.5 299.05 879.5 299.05
L 1076.45 299.05
M 762.45 299.05
L 779.2 299.05
Q 794.2 299.05 794.2 314.05
L 794.2 576.9
Q 794.2 587.45 786.7 590.65 783.6 591.9 779.2 591.9
L 500.2 591.9
Q 495.25 591.9 491.7 590.15 485.2 586.95 485.2 576.9
L 485.2 314.05
Q 485.2 299.05 500.2 299.05
L 697.45 299.05
M 383.5 299.05
L 400.25 299.05
Q 415.25 299.05 415.25 314.05
L 415.25 576.9
Q 415.25 587.45 407.75 590.65 404.65 591.9 400.25 591.9
L 121.25 591.9
Q 116.3 591.9 112.75 590.15 106.25 586.95 106.25 576.9
L 106.25 314.05
Q 106.25 299.05 121.25 299.05
L 318.5 299.05"/>

<path id="Layer0_0_3_STROKES" stroke="#1E1E1E" stroke-width="3" stroke-linejoin="round" stroke-linecap="butt" fill="none" d="
M 889.15 474.8
L 1148.3 474.8
M 131.2 474.8
L 390.35 474.8
M 510.15 474.8
L 769.3 474.8"/>
</defs>

<g transform="matrix( 1, 0, 0, 1, 0,0) ">
<use xlink:href="#Layer0_0_FILL"/>

<use xlink:href="#Layer0_0_1_STROKES"/>

<use xlink:href="#Layer0_0_2_STROKES"/>

<use xlink:href="#Layer0_0_3_STROKES"/>
</g>
</svg>
