<?xml version="1.0" encoding="utf-8"?>
<!-- Generator: Adobe Illustrator 23.1.0, SVG Export Plug-In . SVG Version: 6.00 Build 0)  -->
<svg version="1.1" id="레이어_1" xmlns="http://www.w3.org/2000/svg" xmlns:xlink="http://www.w3.org/1999/xlink" x="0px"
	 y="0px" width="79px" height="164px" viewBox="0 0 79 164" style="enable-background:new 0 0 79 164;" xml:space="preserve">
<g>
	<path style="fill:#FAF3D6;" d="M55,119.6h5l0,0c0,0,7.3-16.7,6.1-36.1c-1-16.8-4.7-29.4-5.6-32.4h-6.1C68.2,83.6,55,119.6,55,119.6
		"/>
	<path style="fill:#E7CA44;" d="M2,122.3c1.2,5.8,20.7,30.2,32.2,37.5c20-10.6,32.1-30.7,36.6-39.3H60.5l-0.5-0.9h-5
		c0,0,13.2-36-0.7-68.6h6.1c-0.1-0.4-0.2-0.6-0.2-0.7h-0.3c0,0,10.6-7.3,9.6-13.9c-1.1-6.6-5.6-23.5-7.9-27.1
		c-1.1-1.8-3-3.4-5.1-4.4c-6.2,5.1-14.3,14.9-17,14.9C35.9,19.8,22.8,2.2,17.2,2S7.1,18.2,5.6,27.4C4.9,31.9,3.3,38.1,6,42.3
		c2.7,4.2,12.7,7.9,12.7,7.9S14,64,12.8,83.3c-1.1,19.6,6.1,36.3,6.1,36.3l-0.5,0.9H4.3C1.9,120.5,2,122.3,2,122.3"/>
	<path style="fill:#FAF3D6;" d="M34.2,159.8c2.1,1.3,3.9,2.1,5.3,2.1c9,0,36-32.8,37.4-39.7c0,0,0.1-1.7-2.4-1.7h-3.8
		C66.3,129.1,54.2,149.2,34.2,159.8"/>
	<path style="fill:#FAF3D6;" d="M61.6,9.4c2.2,3.6,6.8,20.5,7.9,27.1c1.1,6.6-9.6,13.8-9.6,13.8h0.4l0,0c0,0,10-3.6,12.7-7.9
		c2.7-4.2,1.2-10.4,0.4-14.9c-1.5-9.2-6.1-25.6-11.6-25.4c-1.4,0-3.2,1.2-5.3,2.9C58.6,6.1,60.5,7.6,61.6,9.4"/>
	<path style="fill:none;stroke:#595757;stroke-width:1.5;" d="M39.5,19.9c-3.6,0-16.7-17.6-22.3-17.8S7.1,18.3,5.6,27.5
		C4.9,32,3.3,38.2,6,42.4c2.7,4.2,12.7,7.9,12.7,7.9S14,64.1,12.8,83.4c-1.1,19.5,6.1,36.2,6.1,36.2l-0.5,0.9H4.3
		c-2.5,0-2.3,1.7-2.3,1.7c1.5,6.9,28.4,39.7,37.5,39.7c9,0,36-32.8,37.4-39.6c0,0,0.1-1.7-2.3-1.7H60.5l-0.5-0.9
		c0,0,7.3-16.7,6.1-36.1c-1.1-19.4-5.9-33.1-5.9-33.1s10-3.6,12.7-7.9c2.7-4.2,1.2-10.4,0.4-14.9c-1.5-9.2-6.1-25.6-11.6-25.4
		C56.2,2.3,43.1,19.9,39.5,19.9z"/>
	<path style="fill:none;stroke:#9FA0A0;stroke-width:1.5;" d="M15.8,18.2c0,0,6.5,6,12.5,8 M11.7,29.3c0,0,6.5,6,12.5,8 M63.8,18.2
		c0,0-6.5,6-12.5,8 M67.9,29.3c0,0-6.5,6-12.5,8"/>
	<path style="fill:#B298C7;" d="M24.3,85.4c0-7.6,6.2-13.8,13.8-13.8s13.8,6.2,13.8,13.8c0,7.6-6.2,13.8-13.8,13.8
		S24.3,93,24.3,85.4"/>
	<path style="fill:none;stroke:#595757;stroke-width:1.5;" d="M24.3,85.4c0-7.6,6.2-13.8,13.8-13.8s13.8,6.2,13.8,13.8
		c0,7.6-6.2,13.8-13.8,13.8S24.3,93,24.3,85.4z"/>
	<path style="fill:#E0BE00;" d="M32.6,85.4c0-3,2.5-5.5,5.5-5.5s5.5,2.5,5.5,5.5s-2.5,5.5-5.5,5.5C35,90.9,32.6,88.4,32.6,85.4"/>
	<ellipse style="fill:none;stroke:#595757;stroke-width:1.4999;stroke-miterlimit:3.9999;" cx="38.1" cy="85.3" rx="5.5" ry="5.5"/>
</g>
</svg>
