<?xml version="1.0" encoding="utf-8"?>
<!-- Generator: Adobe Illustrator 23.0.0, SVG Export Plug-In . SVG Version: 6.00 Build 0)  -->
<svg version="1.1" id="레이어_1" xmlns="http://www.w3.org/2000/svg" xmlns:xlink="http://www.w3.org/1999/xlink" x="0px"
	 y="0px" width="904px" height="904px" viewBox="0 0 904 904" style="enable-background:new 0 0 904 904;" xml:space="preserve">
<g>
	
		<line style="fill:none;stroke:#BFBFBF;stroke-width:4.3186;stroke-dasharray:6.4779,4.3186;" x1="3.1" y1="4.3" x2="3.1" y2="897.8"/>
	
		<line style="fill:none;stroke:#BFBFBF;stroke-width:4.3186;stroke-dasharray:6.4779,4.3186;" x1="247.9" y1="4.3" x2="247.9" y2="897.8"/>
	
		<line style="fill:none;stroke:#BFBFBF;stroke-width:4.3186;stroke-dasharray:6.4779,4.3186;" x1="656.1" y1="4.3" x2="656.1" y2="897.8"/>
	
		<line style="fill:none;stroke:#BFBFBF;stroke-width:4.3186;stroke-dasharray:6.4779,4.3186;" x1="84.7" y1="4.3" x2="84.7" y2="897.8"/>
	
		<line style="fill:none;stroke:#BFBFBF;stroke-width:4.3186;stroke-dasharray:6.4779,4.3186;" x1="166.3" y1="4.3" x2="166.3" y2="897.8"/>
	
		<line style="fill:none;stroke:#BFBFBF;stroke-width:4.3186;stroke-dasharray:6.4779,4.3186;" x1="329.6" y1="4.3" x2="329.6" y2="897.8"/>
	
		<line style="fill:none;stroke:#BFBFBF;stroke-width:4.3186;stroke-dasharray:6.4779,4.3186;" x1="411.2" y1="4.3" x2="411.2" y2="897.8"/>
	
		<line style="fill:none;stroke:#BFBFBF;stroke-width:4.3186;stroke-dasharray:6.4779,4.3186;" x1="492.8" y1="4.3" x2="492.8" y2="897.8"/>
	
		<line style="fill:none;stroke:#BFBFBF;stroke-width:4.3186;stroke-dasharray:6.4779,4.3186;" x1="574.4" y1="4.3" x2="574.4" y2="897.8"/>
	
		<line style="fill:none;stroke:#BFBFBF;stroke-width:4.3186;stroke-dasharray:6.4779,4.3186;" x1="737.7" y1="4.3" x2="737.7" y2="897.8"/>
	
		<line style="fill:none;stroke:#BFBFBF;stroke-width:4.3186;stroke-dasharray:6.4779,4.3186;" x1="819.3" y1="4.3" x2="819.3" y2="897.8"/>
	
		<line style="fill:none;stroke:#BFBFBF;stroke-width:4.3186;stroke-dasharray:6.4779,4.3186;" x1="900.9" y1="4.3" x2="900.9" y2="897.8"/>
	
		<line style="fill:none;stroke:#BFBFBF;stroke-width:4.3186;stroke-dasharray:6.4779,4.3186;" x1="5.2" y1="736.8" x2="898.8" y2="736.8"/>
	
		<line style="fill:none;stroke:#BFBFBF;stroke-width:4.3186;stroke-dasharray:6.4779,4.3186;" x1="5.2" y1="410.3" x2="898.8" y2="410.3"/>
	
		<line style="fill:none;stroke:#BFBFBF;stroke-width:4.3186;stroke-dasharray:6.4779,4.3186;" x1="0.9" y1="2.2" x2="894.4" y2="2.2"/>
	
		<line style="fill:none;stroke:#BFBFBF;stroke-width:4.3186;stroke-dasharray:6.4779,4.3186;" x1="0.9" y1="900" x2="894.4" y2="900"/>
	
		<line style="fill:none;stroke:#BFBFBF;stroke-width:4.3186;stroke-dasharray:6.4779,4.3186;" x1="5.2" y1="818.4" x2="898.8" y2="818.4"/>
	
		<line style="fill:none;stroke:#BFBFBF;stroke-width:4.3186;stroke-dasharray:6.4779,4.3186;" x1="5.2" y1="655.1" x2="898.8" y2="655.1"/>
	
		<line style="fill:none;stroke:#BFBFBF;stroke-width:4.3186;stroke-dasharray:6.4779,4.3186;" x1="5.2" y1="573.5" x2="898.8" y2="573.5"/>
	
		<line style="fill:none;stroke:#BFBFBF;stroke-width:4.3186;stroke-dasharray:6.4779,4.3186;" x1="5.2" y1="491.9" x2="898.8" y2="491.9"/>
	
		<line style="fill:none;stroke:#BFBFBF;stroke-width:4.3186;stroke-dasharray:6.4779,4.3186;" x1="5.2" y1="328.6" x2="898.8" y2="328.6"/>
	
		<line style="fill:none;stroke:#BFBFBF;stroke-width:4.3186;stroke-dasharray:6.4779,4.3186;" x1="5.2" y1="247" x2="898.8" y2="247"/>
	
		<line style="fill:none;stroke:#BFBFBF;stroke-width:4.3186;stroke-dasharray:6.4779,4.3186;" x1="5.2" y1="165.4" x2="898.8" y2="165.4"/>
	
		<line style="fill:none;stroke:#BFBFBF;stroke-width:4.3186;stroke-dasharray:6.4779,4.3186;" x1="5.2" y1="83.8" x2="898.8" y2="83.8"/>
</g>
<g>
	<path style="fill:none;stroke:#7ECEF4;stroke-width:4.3186;stroke-dasharray:6.4779,4.3186;" d="M247.9,573.5h408.1 M247.9,491.9
		h408.1 M247.9,410.3h408.1 M247.9,328.6h408.1"/>
	<path style="fill:none;stroke:#00A0E9;stroke-width:4.3186;stroke-dasharray:6.4779,4.3186;" d="M656.1,247v408.1 M656.1,655.1
		H247.9"/>
	<path style="fill:none;stroke:#7ECEF4;stroke-width:4.3186;stroke-dasharray:6.4779,4.3186;" d="M329.6,247v408.1 M411.2,247v408.1
		 M574.4,247v408.1 M492.8,247v408.1"/>
	
		<line style="fill:none;stroke:#00A0E9;stroke-width:4.3186;stroke-dasharray:6.4779,4.3186;" x1="247.9" y1="655.1" x2="247.9" y2="247"/>
	
		<line style="fill:none;stroke:#00A0E9;stroke-width:4.3186;stroke-dasharray:6.4779,4.3186;" x1="247.9" y1="247" x2="656.1" y2="247"/>
</g>
<path style="fill:none;stroke:#000000;stroke-width:4.3186;stroke-dasharray:6.4779,4.3186;" d="M662.1,592.1"/>
<g>
	<path style="fill:#FFE893;" d="M771.4,448.7c0,24.2-19.4,43.6-43.6,43.6c-24.2,0-43.6-19.4-43.6-43.6s19.4-43.6,43.6-43.6
		C751.9,405.1,771.4,424.5,771.4,448.7"/>
	<path style="fill:none;stroke:#E4007F;stroke-width:4.3186;" d="M727.7,405.1c21.6,0,39.7,15.5,43.2,36.3"/>
	<polygon style="fill:#E4007F;" points="772.2,448.7 764.9,437 770.5,439.2 775.2,435.3 	"/>
	
		<line style="fill:none;stroke:#00A0E9;stroke-width:4.3186;stroke-dasharray:6.4779,4.3186;" x1="727.7" y1="492.3" x2="727.7" y2="448.7"/>
	<line style="fill:none;stroke:#000000;stroke-width:4.3186;" x1="727.7" y1="448.7" x2="771.4" y2="448.7"/>
	
		<line style="fill:none;stroke:#00A0E9;stroke-width:4.3186;stroke-dasharray:6.4779,4.3186;" x1="727.7" y1="448.7" x2="684.1" y2="448.7"/>
	<line style="fill:none;stroke:#000000;stroke-width:4.3186;" x1="727.7" y1="405.1" x2="727.7" y2="448.7"/>
	<path style="fill:#FFE893;" d="M219.9,453.5c0,24.2-19.4,43.6-43.6,43.6s-43.6-19.4-43.6-43.6c0-24.2,19.4-43.6,43.6-43.6
		C200,409.8,219.9,429.3,219.9,453.5"/>
	<path style="fill:none;stroke:#00A0E9;stroke-width:4.3186;stroke-dasharray:6.4779,4.3186;" d="M176.3,453.5h43.6 M176.3,497.1
		v-43.6"/>
	<path style="fill:none;stroke:#000000;stroke-width:4.3186;" d="M176.3,409.8v43.6 M176.3,453.5h-43.6"/>
	<path style="fill:#FFE893;" d="M496.7,758.3c0,24.2-19.4,43.6-43.6,43.6s-43.6-19.4-43.6-43.6c0-24.2,19.4-43.6,43.6-43.6
		S496.7,734.2,496.7,758.3"/>
	<line style="fill:none;stroke:#000000;stroke-width:4.3186;" x1="453.1" y1="802" x2="453.1" y2="758.3"/>
	<path style="fill:none;stroke:#00A0E9;stroke-width:4.3186;stroke-dasharray:6.4779,4.3186;" d="M453.1,758.3h-43.6 M453.1,758.3
		h43.6"/>
	<line style="fill:none;stroke:#000000;stroke-width:4.3186;" x1="453.1" y1="714.7" x2="453.1" y2="758.3"/>
	<path style="fill:#FFE893;" d="M496.7,146.8c0,24.2-19.4,43.6-43.6,43.6s-43.6-19.4-43.6-43.6s19.4-43.6,43.6-43.6
		S496.7,122.6,496.7,146.8"/>
	<path style="fill:none;stroke:#00A0E9;stroke-width:4.3186;stroke-dasharray:6.4779,4.3186;" d="M453.1,146.8h-43.6 M453.1,146.8
		h43.6 M453.1,190.5v-43.6"/>
	<line style="fill:none;stroke:#000000;stroke-width:4.3186;" x1="453.1" y1="103.2" x2="453.1" y2="146.8"/>
	<path style="fill:none;stroke:#E4007F;stroke-width:4.3186;" d="M453.1,714.7c24.2,0,43.6,19.4,43.6,43.6c0,22.5-16.8,41-38.9,43.2
		"/>
	<polygon style="fill:#E4007F;" points="452.6,802 464.7,795.5 462.6,801.1 466,805.9 	"/>
</g>
<g>
	<path style="fill:none;stroke:#E4007F;stroke-width:4.3186;" d="M176.3,409.8c24.2,0,43.6,19.4,43.6,43.6
		c0,24.2-19.4,43.6-43.6,43.6c-21.2,0-38.9-15.1-42.8-35"/>
	<polygon style="fill:#E4007F;" points="131.3,453 139.1,464.7 133.5,462.5 128.8,466.8 	"/>
	<path style="fill:none;stroke:#E4007F;stroke-width:4.3186;" d="M453.1,103.2c24.2,0,43.6,19.4,43.6,43.6s-19.4,43.6-43.6,43.6
		s-43.6-19.4-43.6-43.6c0-21.2,15.1-38.9,35-42.8"/>
	<polygon style="fill:#E4007F;" points="453.5,101.9 441.9,109.7 444,104.1 440.1,99.3 	"/>
</g>
<g>
	<line style="fill:none;stroke:#0086CD;stroke-width:4.3186;stroke-linejoin:round;" x1="493.2" y1="572.6" x2="329.1" y2="328.6"/>
	<line style="fill:none;stroke:#C8245B;stroke-width:4.3186;stroke-linejoin:round;" x1="493.2" y1="328.6" x2="493.2" y2="572.6"/>
	<line style="fill:none;stroke:#007E35;stroke-width:4.3186;stroke-linejoin:round;" x1="329.1" y1="328.6" x2="493.2" y2="328.6"/>
</g>
<g>
	<path d="M420.4,41.8c2,0,3.7,0.2,5.2,0.7c1.5,0.5,2.7,1.2,3.7,2c1,0.9,1.7,1.9,2.2,3c0.5,1.1,0.8,2.3,0.8,3.6v0.3
		c0,0.9-0.1,1.8-0.4,2.6c-0.3,0.9-0.6,1.7-1.2,2.5c-0.5,0.8-1.2,1.5-2,2.1c-0.8,0.6-1.8,1.1-2.9,1.4c1.1,0.2,2.1,0.5,3.1,0.9
		c1,0.4,1.8,1,2.5,1.7c0.7,0.7,1.3,1.5,1.7,2.5c0.4,1,0.6,2.1,0.6,3.3V69c0,1.4-0.3,2.8-0.8,4.1c-0.5,1.3-1.3,2.5-2.4,3.4
		c-1.1,1-2.5,1.8-4.1,2.4c-1.6,0.6-3.6,0.9-5.7,0.9c-4.1,0-7.7-1-10.6-3c-0.7-0.4-1-0.9-1.1-1.6c-0.1-0.6,0-1.3,0.4-1.8
		c0.4-0.6,0.9-1,1.4-1.1c0.6-0.1,1.2,0,1.8,0.4c1.3,0.9,2.5,1.5,3.8,1.9c1.2,0.4,2.6,0.6,4.1,0.6c1.5,0,2.7-0.2,3.7-0.5
		c1-0.3,1.9-0.8,2.5-1.4c0.6-0.6,1.1-1.2,1.4-2c0.3-0.8,0.4-1.6,0.4-2.4v-0.4c0-1.1-0.2-2.1-0.6-2.9c-0.4-0.8-1-1.4-1.7-1.8
		c-0.7-0.5-1.6-0.8-2.6-1c-1-0.2-2.1-0.3-3.3-0.3h-3c-0.7,0-1.1-0.2-1.4-0.7c-0.3-0.4-0.4-1-0.4-1.6s0.1-1.1,0.4-1.6
		c0.3-0.4,0.8-0.6,1.4-0.6h2.5c2.1,0,3.8-0.5,5.2-1.5c1.4-1,2-2.5,2-4.7v-0.2c0-1.6-0.6-2.9-1.7-3.8c-1.1-1-2.8-1.5-5.1-1.5
		c-1.5,0-2.7,0.3-3.8,0.8s-2,1.3-2.9,2.3c-0.5,0.5-1,0.7-1.6,0.6c-0.6-0.1-1.1-0.3-1.5-0.8c-0.5-0.5-0.7-1-0.6-1.6
		c0-0.6,0.2-1.1,0.6-1.6c1-1.2,2.3-2.3,4-3.1C416.3,42.2,418.2,41.8,420.4,41.8z"/>
	<path d="M454.9,41.8c1.7,0,3.2,0.2,4.7,0.5c1.4,0.3,2.6,0.8,3.6,1.3c0.6,0.4,1,0.8,1.1,1.4c0.2,0.5,0.1,1.1-0.2,1.7
		c-0.3,0.6-0.7,1-1.2,1.2c-0.5,0.2-1.2,0.2-1.8-0.1c-0.9-0.4-1.9-0.8-3-1c-1-0.2-2.2-0.3-3.4-0.3c-5.5,0-8.5,4.3-9.1,12.9
		c0.9-1.3,2.1-2.4,3.8-3.1c1.7-0.7,3.4-1.1,5.2-1.1c1.8,0,3.4,0.3,4.8,0.8s2.7,1.3,3.7,2.4c1,1,1.8,2.3,2.3,3.7
		c0.5,1.5,0.8,3.1,0.8,4.9v0.8c0,1.8-0.3,3.4-0.9,4.9c-0.6,1.5-1.5,2.7-2.6,3.8c-1.1,1.1-2.5,1.9-4,2.5c-1.6,0.6-3.3,0.9-5.2,0.9
		c-4.3,0-7.5-1.3-9.7-4c-2.2-2.7-3.3-6.6-3.3-11.7v-1.5c0-4,0.4-7.4,1.1-10.1c0.7-2.7,1.7-4.8,3-6.4c1.3-1.6,2.8-2.7,4.6-3.4
		C450.9,42.2,452.8,41.8,454.9,41.8z M453.6,59.7c-1.3,0-2.4,0.2-3.4,0.6c-1,0.4-1.8,0.9-2.4,1.6c-0.7,0.7-1.1,1.4-1.5,2.3
		c-0.3,0.9-0.5,1.8-0.5,2.8v0.4c0,2.4,0.7,4.3,2,5.7c1.3,1.4,3.2,2.1,5.5,2.1c2.4,0,4.3-0.6,5.7-1.9c1.4-1.3,2.1-3.1,2.1-5.6v-0.4
		C461.2,62.2,458.7,59.7,453.6,59.7z"/>
	<path d="M484.6,41.8c4.7,0,8,1.5,10.1,4.6c2.1,3,3.1,7.4,3.1,13.2v2.5c0,5.7-1,10.1-3.1,13.2c-2.1,3-5.5,4.6-10.1,4.6
		c-4.7,0-8-1.5-10.1-4.6c-2.1-3-3.1-7.4-3.1-13.2v-2.5c0-5.7,1-10.1,3.1-13.2C476.6,43.4,479.9,41.8,484.6,41.8z M484.6,46.7
		c-1.5,0-2.8,0.3-3.8,0.8c-1,0.5-1.9,1.3-2.5,2.4c-0.6,1.1-1.1,2.5-1.3,4.1c-0.3,1.7-0.4,3.6-0.4,6v1.7c0,2.3,0.1,4.3,0.4,6
		c0.3,1.7,0.7,3,1.3,4.1c0.6,1.1,1.5,1.9,2.5,2.4c1,0.5,2.3,0.8,3.8,0.8c1.5,0,2.8-0.3,3.8-0.8c1-0.5,1.9-1.3,2.5-2.4
		c0.6-1.1,1.1-2.5,1.3-4.1c0.3-1.7,0.4-3.6,0.4-6V60c0-2.3-0.1-4.3-0.4-6c-0.3-1.7-0.7-3-1.3-4.1s-1.5-1.9-2.5-2.4
		C487.4,47,486.1,46.7,484.6,46.7z"/>
	<path d="M507.7,43.9c1.9,0,3.4,0.5,4.5,1.6c1.1,1.1,1.6,2.6,1.6,4.7v0.9c0,2.1-0.5,3.7-1.6,4.7c-1.1,1.1-2.6,1.6-4.5,1.6
		c-1.9,0-3.4-0.5-4.5-1.6c-1.1-1.1-1.6-2.7-1.6-4.7v-0.9c0-2.1,0.5-3.6,1.6-4.7C504.3,44.5,505.8,43.9,507.7,43.9z M507.7,46.3
		c-1.1,0-2,0.3-2.5,1c-0.5,0.7-0.8,1.7-0.8,3.1v0.7c0,1.4,0.3,2.4,0.9,3.1c0.6,0.7,1.4,1,2.5,1c1.1,0,1.9-0.3,2.5-1
		c0.6-0.7,0.9-1.7,0.9-3.1v-0.7c0-1.4-0.3-2.4-0.8-3.1C509.7,46.6,508.8,46.3,507.7,46.3z"/>
</g>
<g>
	<path d="M28.7,433.3c2,0,3.7,0.2,5.1,0.7c1.4,0.5,2.6,1.1,3.6,2c1,0.8,1.7,1.8,2.2,3c0.5,1.1,0.7,2.4,0.7,3.6v0.5
		c0,2-0.4,3.8-1.2,5.4c-0.8,1.7-2.1,3.4-3.9,5.2l-11.9,12.5h16.9c0.6,0,1.1,0.2,1.4,0.6c0.3,0.4,0.4,0.9,0.4,1.5
		c0,0.6-0.1,1.1-0.4,1.5c-0.3,0.4-0.8,0.6-1.4,0.6h-20c-1.3,0-2.3-0.2-2.9-0.7c-0.6-0.4-0.9-1.2-0.9-2.1c0-0.5,0.1-0.9,0.4-1.3
		c0.2-0.4,0.6-0.9,1.2-1.5l12.6-13.4c0.9-1,1.7-1.8,2.3-2.6c0.6-0.7,1-1.4,1.4-2.1c0.3-0.7,0.6-1.3,0.7-1.9c0.1-0.6,0.2-1.3,0.2-2
		V443c0-1.5-0.5-2.7-1.6-3.6c-1.1-0.9-2.6-1.3-4.7-1.3c-1.7,0-3.2,0.4-4.4,1.1c-1.2,0.7-2.2,1.7-3.2,3.1c-0.4,0.5-0.9,0.8-1.4,0.9
		s-1.1-0.1-1.7-0.4c-0.6-0.4-0.9-0.9-1.1-1.5s0-1.2,0.3-1.8c1.1-1.7,2.6-3.2,4.4-4.3C23.7,433.9,26,433.3,28.7,433.3z"/>
	<path d="M72.8,434.6c0.6,0.4,0.8,1.2,0.8,2.1c0,0.2,0,0.5-0.1,0.7c0,0.2-0.1,0.5-0.2,0.8c-0.1,0.3-0.2,0.6-0.4,1.1
		c-0.2,0.4-0.4,1-0.7,1.6l-13.1,28.8c-0.3,0.7-0.8,1.1-1.4,1.3c-0.6,0.1-1.3,0-1.8-0.2c-0.6-0.3-1-0.7-1.3-1.2
		c-0.3-0.5-0.3-1.2,0.1-2l13.4-29.2H49.2c-0.6,0-1.1-0.2-1.4-0.7c-0.3-0.4-0.4-1-0.4-1.6c0-0.6,0.1-1.1,0.4-1.6
		c0.3-0.4,0.8-0.7,1.4-0.7H70C71.3,433.9,72.2,434.1,72.8,434.6z"/>
	<path d="M92.2,433.3c4.7,0,8,1.5,10.1,4.6c2.1,3,3.1,7.4,3.1,13.2v2.5c0,5.7-1,10.1-3.1,13.2c-2.1,3-5.5,4.6-10.1,4.6
		s-8-1.5-10.1-4.6c-2.1-3-3.1-7.4-3.1-13.2V451c0-5.7,1-10.1,3.1-13.2C84.1,434.8,87.5,433.3,92.2,433.3z M92.2,438.2
		c-1.5,0-2.8,0.3-3.8,0.8c-1,0.5-1.9,1.3-2.5,2.4c-0.6,1.1-1.1,2.5-1.3,4.1c-0.3,1.7-0.4,3.6-0.4,6v1.7c0,2.3,0.1,4.3,0.4,6
		c0.3,1.7,0.7,3,1.3,4.1c0.6,1.1,1.5,1.9,2.5,2.4c1,0.5,2.3,0.8,3.8,0.8c1.5,0,2.8-0.3,3.8-0.8s1.9-1.3,2.5-2.4
		c0.6-1.1,1.1-2.5,1.3-4.1c0.3-1.7,0.4-3.6,0.4-6v-1.7c0-2.3-0.1-4.3-0.4-6c-0.3-1.7-0.7-3-1.3-4.1c-0.6-1.1-1.5-1.9-2.5-2.4
		C95,438.5,93.7,438.2,92.2,438.2z"/>
	<path d="M115.2,435.4c1.9,0,3.4,0.5,4.5,1.6c1.1,1.1,1.6,2.6,1.6,4.7v0.9c0,2.1-0.5,3.7-1.6,4.7c-1.1,1.1-2.6,1.6-4.5,1.6
		c-1.9,0-3.4-0.5-4.5-1.6c-1.1-1.1-1.6-2.7-1.6-4.7v-0.9c0-2.1,0.5-3.6,1.6-4.7C111.8,435.9,113.3,435.4,115.2,435.4z M115.2,437.8
		c-1.1,0-2,0.3-2.5,1c-0.5,0.7-0.8,1.7-0.8,3.1v0.7c0,1.4,0.3,2.4,0.9,3.1c0.6,0.7,1.4,1,2.5,1c1.1,0,1.9-0.3,2.5-1
		c0.6-0.7,0.9-1.7,0.9-3.1v-0.7c0-1.4-0.3-2.4-0.8-3.1C117.3,438.1,116.4,437.8,115.2,437.8z"/>
</g>
<g>
	<path d="M810.3,424.7c4.3,0,7.6,1.3,9.7,4c2.2,2.7,3.3,6.6,3.3,11.6v1.5c0,4.1-0.3,7.5-1,10.2c-0.7,2.7-1.6,4.8-2.9,6.4
		s-2.8,2.7-4.5,3.3c-1.8,0.6-3.8,0.9-6,0.9c-1.7,0-3.2-0.2-4.6-0.5c-1.4-0.3-2.6-0.8-3.6-1.4c-0.7-0.4-1.1-0.8-1.2-1.4
		s-0.1-1.1,0.2-1.7c0.3-0.6,0.7-1,1.2-1.3c0.5-0.2,1.1-0.2,1.8,0.1c0.9,0.5,1.9,0.8,3,1c1.1,0.2,2.2,0.4,3.4,0.4
		c1.5,0,2.7-0.2,3.8-0.7c1.1-0.4,2-1.2,2.7-2.2c0.7-1,1.3-2.3,1.7-4c0.4-1.6,0.6-3.6,0.8-6c-0.9,1.3-2.1,2.4-3.8,3.1
		c-1.7,0.7-3.4,1.1-5.2,1.1c-1.8,0-3.4-0.3-4.8-0.8c-1.4-0.6-2.7-1.3-3.7-2.4c-1-1-1.8-2.3-2.3-3.7c-0.5-1.5-0.8-3.1-0.8-4.9v-0.9
		c0-1.8,0.3-3.4,0.9-4.9c0.6-1.5,1.5-2.7,2.6-3.8c1.1-1.1,2.4-1.9,4-2.5C806.6,425,808.4,424.7,810.3,424.7z M810.4,429.4
		c-2.4,0-4.3,0.6-5.7,1.9c-1.4,1.3-2.1,3.1-2.1,5.6v0.4c0,5,2.5,7.5,7.6,7.5c1.3,0,2.4-0.2,3.4-0.6c1-0.4,1.8-0.9,2.4-1.6
		c0.7-0.7,1.1-1.4,1.5-2.3c0.3-0.9,0.5-1.8,0.5-2.8v-0.4c0-2.5-0.7-4.4-2-5.8C814.6,430.1,812.8,429.4,810.4,429.4z"/>
	<path d="M842.2,424.7c4.7,0,8,1.5,10.1,4.6c2.1,3,3.1,7.4,3.1,13.2v2.5c0,5.7-1,10.1-3.1,13.2c-2.1,3-5.5,4.6-10.1,4.6
		c-4.7,0-8-1.5-10.1-4.6c-2.1-3-3.1-7.4-3.1-13.2v-2.5c0-5.7,1-10.1,3.1-13.2C834.2,426.2,837.5,424.7,842.2,424.7z M842.2,429.6
		c-1.5,0-2.8,0.3-3.8,0.8c-1,0.5-1.9,1.3-2.5,2.4c-0.6,1.1-1.1,2.5-1.3,4.1c-0.3,1.7-0.4,3.6-0.4,6v1.7c0,2.3,0.1,4.3,0.4,6
		c0.3,1.7,0.7,3,1.3,4.1c0.6,1.1,1.5,1.9,2.5,2.4c1,0.5,2.3,0.8,3.8,0.8c1.5,0,2.8-0.3,3.8-0.8s1.9-1.3,2.5-2.4
		c0.6-1.1,1.1-2.5,1.3-4.1c0.3-1.7,0.4-3.6,0.4-6v-1.7c0-2.3-0.1-4.3-0.4-6c-0.3-1.7-0.7-3-1.3-4.1c-0.6-1.1-1.5-1.9-2.5-2.4
		C845,429.8,843.7,429.6,842.2,429.6z"/>
	<path d="M865.3,426.8c1.9,0,3.4,0.5,4.5,1.6c1.1,1.1,1.6,2.6,1.6,4.7v0.9c0,2.1-0.5,3.7-1.6,4.7c-1.1,1.1-2.6,1.6-4.5,1.6
		c-1.9,0-3.4-0.5-4.5-1.6c-1.1-1.1-1.6-2.7-1.6-4.7v-0.9c0-2.1,0.5-3.6,1.6-4.7C861.9,427.3,863.4,426.8,865.3,426.8z M865.3,429.1
		c-1.1,0-2,0.3-2.5,1c-0.5,0.7-0.8,1.7-0.8,3.1v0.7c0,1.4,0.3,2.4,0.9,3.1c0.6,0.7,1.4,1,2.5,1c1.1,0,1.9-0.3,2.5-1
		c0.6-0.7,0.9-1.7,0.9-3.1v-0.7c0-1.4-0.3-2.4-0.8-3.1C867.3,429.5,866.5,429.1,865.3,429.1z"/>
</g>
<g>
	<path d="M424.8,823.8c0.8,0,1.4,0.2,1.9,0.5c0.5,0.3,0.8,0.9,0.8,1.7v33c0,0.8-0.3,1.3-0.8,1.7c-0.5,0.3-1.1,0.5-1.8,0.5
		s-1.3-0.2-1.8-0.5s-0.8-0.9-0.8-1.7v-29.1l-7.8,4.8c-0.7,0.4-1.3,0.4-1.9,0.2c-0.6-0.2-1.1-0.7-1.4-1.2c-0.3-0.6-0.4-1.1-0.3-1.7
		c0.1-0.6,0.4-1.1,1.1-1.4l9.3-5.5c0.7-0.4,1.3-0.7,1.9-0.9C423.7,823.9,424.3,823.8,424.8,823.8z"/>
	<path d="M452.9,823.5c1.8,0,3.5,0.3,4.9,0.8c1.4,0.5,2.6,1.3,3.6,2.2c1,0.9,1.7,1.9,2.3,3.1c0.5,1.2,0.8,2.5,0.8,3.8v0.5
		c0,1.6-0.5,3.1-1.4,4.5c-0.9,1.5-2.3,2.7-4.1,3.6c1.9,0.6,3.5,1.6,4.7,3.2c1.2,1.6,1.9,3.4,1.9,5.4v0.6c0,1.5-0.3,2.9-0.9,4.1
		s-1.4,2.3-2.5,3.2c-1.1,0.9-2.4,1.6-3.9,2.1c-1.5,0.5-3.3,0.8-5.3,0.8c-2,0-3.8-0.3-5.4-0.8c-1.6-0.5-2.9-1.2-4-2.1
		c-1.1-0.9-1.9-2-2.5-3.2c-0.6-1.3-0.9-2.6-0.9-4.1v-0.6c0-1,0.2-2,0.5-2.9c0.3-0.9,0.8-1.8,1.4-2.5c0.6-0.8,1.3-1.4,2.1-1.9
		c0.8-0.5,1.7-0.9,2.6-1.2c-1.8-0.9-3.2-2-4.1-3.5c-1-1.5-1.4-3-1.4-4.6v-0.5c0-1.3,0.2-2.6,0.8-3.8c0.5-1.2,1.2-2.2,2.2-3.1
		c1-0.9,2.2-1.6,3.6-2.2C449.4,823.8,451.1,823.5,452.9,823.5z M453,844.4c-1,0-1.9,0.1-2.8,0.4c-0.9,0.3-1.7,0.6-2.3,1.2
		c-0.7,0.5-1.2,1.2-1.6,2c-0.4,0.8-0.6,1.7-0.6,2.7v0.3c0,1.8,0.7,3.2,2,4.3s3.1,1.7,5.4,1.7c2.3,0,4.1-0.6,5.3-1.7
		c1.3-1.1,1.9-2.5,1.9-4.3v-0.3c0-1-0.2-1.9-0.6-2.7c-0.4-0.8-0.9-1.4-1.5-1.9c-0.6-0.5-1.4-0.9-2.3-1.2
		C455,844.5,454.1,844.4,453,844.4z M453,828.1c-1.9,0-3.4,0.5-4.6,1.5c-1.2,1-1.7,2.4-1.7,4.1v0.3c0,0.9,0.2,1.8,0.5,2.5
		c0.3,0.7,0.8,1.3,1.4,1.8c0.6,0.5,1.2,0.9,2,1.1c0.8,0.3,1.6,0.4,2.5,0.4c1.8,0,3.2-0.5,4.5-1.5c1.2-1,1.8-2.4,1.8-4.3v-0.3
		c0-1.8-0.6-3.1-1.7-4.1C456.5,828.6,454.9,828.1,453,828.1z"/>
	<path d="M484.6,823.5c4.7,0,8,1.5,10.1,4.6c2.1,3,3.1,7.4,3.1,13.2v2.5c0,5.7-1,10.1-3.1,13.2c-2.1,3-5.5,4.6-10.1,4.6
		c-4.7,0-8-1.5-10.1-4.6c-2.1-3-3.1-7.4-3.1-13.2v-2.5c0-5.7,1-10.1,3.1-13.2C476.6,825,479.9,823.5,484.6,823.5z M484.6,828.4
		c-1.5,0-2.8,0.3-3.8,0.8c-1,0.5-1.9,1.3-2.5,2.4c-0.6,1.1-1.1,2.5-1.3,4.1c-0.3,1.7-0.4,3.6-0.4,6v1.7c0,2.3,0.1,4.3,0.4,6
		c0.3,1.7,0.7,3,1.3,4.1c0.6,1.1,1.5,1.9,2.5,2.4c1,0.5,2.3,0.8,3.8,0.8c1.5,0,2.8-0.3,3.8-0.8c1-0.5,1.9-1.3,2.5-2.4
		c0.6-1.1,1.1-2.5,1.3-4.1c0.3-1.7,0.4-3.6,0.4-6v-1.7c0-2.3-0.1-4.3-0.4-6c-0.3-1.7-0.7-3-1.3-4.1c-0.6-1.1-1.5-1.9-2.5-2.4
		C487.4,828.6,486.1,828.4,484.6,828.4z"/>
	<path d="M507.7,825.6c1.9,0,3.4,0.5,4.5,1.6c1.1,1.1,1.6,2.6,1.6,4.7v0.9c0,2.1-0.5,3.7-1.6,4.7c-1.1,1.1-2.6,1.6-4.5,1.6
		c-1.9,0-3.4-0.5-4.5-1.6c-1.1-1.1-1.6-2.7-1.6-4.7v-0.9c0-2.1,0.5-3.6,1.6-4.7C504.3,826.1,505.8,825.6,507.7,825.6z M507.7,828
		c-1.1,0-2,0.3-2.5,1c-0.5,0.7-0.8,1.7-0.8,3.1v0.7c0,1.4,0.3,2.4,0.9,3.1c0.6,0.7,1.4,1,2.5,1c1.1,0,1.9-0.3,2.5-1
		c0.6-0.7,0.9-1.7,0.9-3.1V832c0-1.4-0.3-2.4-0.8-3.1C509.7,828.3,508.8,828,507.7,828z"/>
</g>
<g>
	<path d="M313.2,298.3l-15.5,0.5c-0.8,0.1-1.6,0.4-2.3,0.8c-0.7,0.4-1.4,0.7-1.7,0.5c-0.9-0.2-2-0.8-3.1-1.4s-2.2-1.3-3-1.8
		c-0.6-0.3-0.8-0.8-0.7-1.4c0.2-0.6,0.5-0.9,1.1-0.8c0.9,0.2,2.2,0.4,3.7,0.6c1.5,0.3,3.3,0.4,5.3,0.4h4.9c2.1,0,4.2-0.1,4.8-0.2
		c2.3,0,4.1-0.2,5.1-0.4l1.2-0.8c0.6,0,2.1,0.2,2.9,0.3c0.2,0.1,0.3,0.2,0.5,0.2l0.4,0.1c0.2,0.1,0.4,0.2,0.5,0.2
		c0.7,0.4,0.7,1,0.7,1.7c-0.1,0.2-0.1,0.4-0.1,0.6c-0.1,0.2-0.1,0.4-0.2,0.6c-0.2,0.4-0.2,0.7-0.2,1.1v13.6c0,2.1-0.3,4.5-0.7,6
		c-1,2.9-2.5,3.4-3.3-0.2c-0.2-0.6-0.2-1.7-0.3-2.7c-0.1-0.6-0.1-1.1-0.1-1.6V298.3z"/>
</g>
<g>
	<path d="M536.6,318.4l-22.6,0.1c-1.5,0-3-0.1-4.2-0.7c-1.1-0.6-1.9-1.6-1.9-3.4v-13.1c0-1.2-0.4-2.2-1-2.9
		c-0.3-0.3-0.7-0.5-1.1-0.7s-0.9-0.4-1.2-0.6c-1.1-0.6-0.6-2.1,0.3-2.1c2.5,0.1,5,0.5,7.7,1h17.1c0.4-0.1,0.9-0.4,1.4-0.7
		c0.5-0.4,0.9-0.6,1.4-0.6c3.2-0.1,4.8,0.1,6.2,0.5c0.8,0.4,1.3,1.1,1.3,1.8c0,1-0.5,1.8-1.8,2c-0.6,0.1-1,0.2-1.4,0.2h-24.3v14.9
		c0,1,1,1.5,1.9,1.5h16.9c0.4-0.1,0.9-0.4,1.4-0.7c0.5-0.3,1-0.6,1.4-0.6c3.1-0.1,4.8,0.1,6.1,0.5c0.9,0.4,1.4,1.1,1.4,1.8
		c0,1-0.5,1.8-1.8,2c-0.6,0.1-1.1,0.2-1.7,0.2H536.6z"/>
</g>
<g>
	<path d="M514.3,607.4c-1.5,0-2.7-0.3-3.7-0.7c-1-0.5-1.5-1.6-1.5-3.3v-13c0-0.4,0-0.8-0.1-1.1c-0.1-0.7-0.2-1.4-0.6-1.7
		c-0.6-0.4-1.2-0.8-1.8-1c-0.5-0.3-1-0.4-1.4-0.6c-1.1-0.6-0.6-2,0.3-2c1.2,0.1,2.6,0.2,4.2,0.3c1.6,0.2,2.9,0.3,3.8,0.4
		c0.6,0.2,0.6,0.6,0.6,1c-0.1,0.4-0.2,0.8-0.2,1.1c-0.1,0.4-0.1,0.7-0.1,0.9v15.4c0,1,1,1.4,1.8,1.4h10.9c1.3,0,2,0,2.3-0.1
		c0.6,0,2.3-0.1,2.9-0.3c0.3,0,0.7-0.3,1.1-0.6c0.5-0.3,0.9-0.6,1.5-0.6c1.2,0,3.8,0.1,5.3,0.3c1.5,0.4,2.1,1,2.1,2.1
		c0,1-0.7,2-2.2,2c-1.7,0-6.5,0.1-11.7,0.1c-2.5,0-5.1,0-7.6,0.1H514.3z"/>
</g>
</svg>
