
<svg xmlns="http://www.w3.org/2000/svg" version="1.1" xmlns:xlink="http://www.w3.org/1999/xlink" preserveAspectRatio="none" x="0px" y="0px" width="1280px" height="720px" viewBox="0 0 1280 720">
<defs>
<g id="Layer0_0_FILL">
<path fill="#E4E7D8" stroke="none" d="
M 533.45 458.95
Q 533.45 456.15 533.1 453.65 530.6 434.8 509.3 434.8
L 380.35 434.8
Q 369.65 434.8 363.7 439.55 357.75 444.2 356.55 453.65 356.2 456.15 356.2 458.95
L 356.2 523.35
Q 356.2 547.5 380.35 547.5
L 509.3 547.5
Q 512.5 547.5 515.3 547.1 533.45 544.3 533.45 523.35
L 533.45 458.95
M 419.8 478.35
Q 420.95 479.4 421.65 481 422.35 482.6 422.35 484.7 422.35 486.5 421.55 488.35 420.75 490.2 419.55 492 418.35 493.75 417 495.4 415.6 497 414.5 498.3 413.65 499.4 412.65 500.6 411.65 501.75 410.65 502.9
L 422.4 502.9
Q 422.95 502.9 422.95 503.5
L 422.95 506.3
Q 422.95 507 422.4 507
L 405.35 507
Q 404.6 507 404.6 506.5
L 404.6 504.2
Q 404.6 503.9 404.75 503.55 404.95 503.25 405.15 502.95
L 411.25 495.7
Q 414.6 491.75 416.2 489.1 417.8 486.5 417.8 484.8 417.8 482.9 416.6 481.65 415.45 480.4 413.7 480.4 412.05 480.4 410.5 480.85 409 481.3 407.2 482.35 406.85 482.55 406.55 482.55 406.25 482.5 406.15 482.15
L 405.6 479.1
Q 405.5 478.9 405.6 478.75 405.75 478.5 406.15 478.3 407.65 477.5 409.6 476.85 411.6 476.2 413.45 476.2 415.4 476.2 417 476.75 418.65 477.3 419.8 478.35
M 432.9 509.45
Q 431.6 509.45 430.7 508.55 429.8 507.65 429.8 506.35 429.8 505.05 430.7 504.2 431.6 503.3 432.9 503.3 434.15 503.3 435.05 504.2 435.9 505.05 435.9 506.35 435.9 507.65 435.05 508.55 434.15 509.45 432.9 509.45
M 443.1 476.65
Q 443.2 476.5 443.8 476.5
L 458.45 476.5
Q 458.7 476.5 458.85 476.7 458.95 476.85 458.95 477.05
L 458.95 480.1
Q 458.95 480.35 458.85 480.5 458.7 480.7 458.45 480.7
L 447.3 480.7 447.15 488.1
Q 448.75 487.75 450.7 487.75 452.7 487.75 454.45 488.35 456.2 489 457.5 490.15 458.8 491.35 459.55 493.05 460.3 494.7 460.3 496.8 460.3 501.85 457.15 504.65 455.75 505.95 453.65 506.6 451.6 507.25 449.3 507.25 448.9 507.25 448.05 507.2 447.25 507.1 446.3 507 445.35 506.85 444.45 506.6 443.5 506.4 442.85 506.1 442.6 505.9 442.55 505.8 442.55 505.65 442.55 505.35
L 442.55 502.1
Q 442.55 501.4 443.4 501.8 443.95 502.1 444.75 502.35 445.55 502.55 446.4 502.75 447.25 502.9 448.05 502.95 448.9 503.05 449.6 503.05 452.3 503.05 454 501.5 455.8 500 455.8 497.3 455.8 494.7 454.35 493.2 452.95 491.65 449.65 491.65 448.35 491.65 446.95 491.95 445.55 492.2 444.3 492.65 442.75 493.3 442.75 491.95
L 442.95 477.2
Q 442.95 476.75 443.1 476.65
M 465.85 482.5
Q 466.55 480.6 467.85 479.2 469.15 477.8 471 477 472.8 476.2 475.1 476.2 479.8 476.2 482.35 479.75 484.9 483.3 484.9 490.75 484.9 494.1 484.25 497.15 483.55 500.15 481.95 502.4 480.4 504.65 477.8 505.95 475.25 507.3 471.55 507.3 470.4 507.3 468.95 507.1 467.55 506.9 466.6 506.55 466.25 506.45 466.3 506.05
L 466.4 502.85
Q 466.5 502.3 467.05 502.5 468.1 502.95 469.3 503.05 470.45 503.15 471.85 503.15 473.95 503.15 475.4 502.45 476.85 501.75 477.85 500.5 478.85 499.25 479.45 497.6 480.05 495.9 480.3 494 479.95 494.5 479.35 494.95 478.7 495.4 477.95 495.75 477.2 496.1 476.4 496.3 475.6 496.5 474.85 496.5 472.7 496.5 470.95 495.8 469.15 495.1 467.85 493.8 466.55 492.5 465.9 490.7 465.2 488.9 465.2 486.6 465.2 484.4 465.85 482.5
M 478.75 482.1
Q 478.05 481.2 477.1 480.7 476.15 480.15 475.05 480.15 472.65 480.15 471.1 481.85 469.6 483.5 469.6 486.4 469.6 489.15 470.95 490.75 472.25 492.35 474.7 492.35 477.3 492.35 478.8 490.8 480.25 489.2 480.25 486.75 480.25 485.4 479.85 484.2 479.45 483 478.75 482.1
M 363.2 255.55
Q 357.25 260.2 356.05 269.65 355.7 272.15 355.7 274.95
L 355.7 339.35
Q 355.7 363.5 379.85 363.5
L 508.8 363.5
Q 512 363.5 514.8 363.1 532.95 360.3 532.95 339.35
L 532.95 274.95
Q 532.95 272.15 532.6 269.65 530.1 250.8 508.8 250.8
L 379.85 250.8
Q 369.15 250.8 363.2 255.55
M 417.7 292.95
Q 419.3 293.65 420.35 294.8 421.5 296 422.2 297.55 422.9 299.1 423.3 300.8 423.7 302.5 423.85 304.3 424.05 306.05 424.05 307.7 424.05 311.35 423.45 314.25 422.85 317.15 421.6 319.1 420.35 321.05 418.5 322.15 416.65 323.15 414.1 323.15 408.95 323.15 406.5 319.1 404.05 315.05 404.05 307.7 404.05 305.25 404.4 302.5 404.8 299.8 405.9 297.5 407 295.25 408.95 293.75 410.9 292.3 414.1 292.3 416.15 292.3 417.7 292.95
M 432.4 319.3
Q 433.65 319.3 434.55 320.2 435.4 321.05 435.4 322.35 435.4 323.65 434.55 324.55 433.65 325.45 432.4 325.45 431.1 325.45 430.2 324.55 429.3 323.65 429.3 322.35 429.3 321.05 430.2 320.2 431.1 319.3 432.4 319.3
M 454.05 292.95
Q 455.65 293.65 456.7 294.8 457.85 296 458.55 297.55 459.25 299.1 459.65 300.8 460.05 302.5 460.2 304.3 460.4 306.05 460.4 307.7 460.4 311.35 459.8 314.25 459.2 317.15 457.95 319.1 456.7 321.05 454.85 322.15 453 323.15 450.45 323.15 445.3 323.15 442.85 319.1 440.4 315.05 440.4 307.7 440.4 305.25 440.75 302.5 441.15 299.8 442.25 297.5 443.35 295.25 445.3 293.75 447.25 292.3 450.45 292.3 452.5 292.3 454.05 292.95
M 472 293.5
Q 474.55 292.2 478.3 292.2 479.45 292.2 480.85 292.4 482.3 292.6 483.2 292.95 483.55 293.05 483.5 293.45
L 483.4 296.65
Q 483.3 297.2 482.75 296.95 481.7 296.55 480.55 296.45 479.35 296.35 477.95 296.35 475.9 296.35 474.4 297 472.95 297.7 471.95 298.95 470.95 300.2 470.4 301.85 469.8 303.55 469.55 305.5 469.9 305 470.5 304.55 471.1 304.1 471.85 303.75 472.6 303.4 473.4 303.2 474.2 302.95 474.95 302.95 477.15 302.95 478.9 303.65 480.7 304.35 481.95 305.65 483.25 306.95 483.95 308.8 484.65 310.6 484.65 312.9 484.65 315.1 483.95 316.95 483.3 318.9 482 320.25 480.7 321.7 478.85 322.5 477 323.3 474.7 323.3 470 323.3 467.45 319.75 464.9 316.2 464.9 308.75 464.9 305.35 465.6 302.35 466.3 299.3 467.85 297.1 469.45 294.85 472 293.5
M 475.1 307.15
Q 472.5 307.15 471.05 308.7 469.55 310.25 469.55 312.7 469.55 314.1 469.95 315.25 470.35 316.5 471.05 317.4 471.75 318.3 472.7 318.8 473.7 319.3 474.8 319.3 477.2 319.3 478.75 317.65 480.25 315.95 480.25 313.1 480.25 310.3 478.9 308.75 477.55 307.15 475.1 307.15
M 454.45 299.1
Q 453.7 297.8 452.7 297.25 451.65 296.65 450.45 296.65 449.15 296.65 448.15 297.25 447.15 297.8 446.45 299.1 445.7 300.45 445.35 302.55 444.95 304.7 444.95 307.7 444.95 310.8 445.35 312.95 445.7 315.05 446.45 316.35 447.15 317.7 448.15 318.25 449.15 318.85 450.45 318.85 451.65 318.85 452.7 318.25 453.7 317.7 454.45 316.35 455.15 315.05 455.55 312.95 455.9 310.8 455.9 307.7 455.9 304.7 455.55 302.55 455.15 300.45 454.45 299.1
M 418.1 299.1
Q 417.35 297.8 416.35 297.25 415.3 296.65 414.1 296.65 412.8 296.65 411.8 297.25 410.8 297.8 410.1 299.1 409.35 300.45 409 302.55 408.6 304.7 408.6 307.7 408.6 310.8 409 312.95 409.35 315.05 410.1 316.35 410.8 317.7 411.8 318.25 412.8 318.85 414.1 318.85 415.3 318.85 416.35 318.25 417.35 317.7 418.1 316.35 418.8 315.05 419.2 312.95 419.55 310.8 419.55 307.7 419.55 304.7 419.2 302.55 418.8 300.45 418.1 299.1 Z"/>

<path fill="#1E1E1E" stroke="none" d="
M 467.85 479.2
Q 466.55 480.6 465.85 482.5 465.2 484.4 465.2 486.6 465.2 488.9 465.9 490.7 466.55 492.5 467.85 493.8 469.15 495.1 470.95 495.8 472.7 496.5 474.85 496.5 475.6 496.5 476.4 496.3 477.2 496.1 477.95 495.75 478.7 495.4 479.35 494.95 479.95 494.5 480.3 494 480.05 495.9 479.45 497.6 478.85 499.25 477.85 500.5 476.85 501.75 475.4 502.45 473.95 503.15 471.85 503.15 470.45 503.15 469.3 503.05 468.1 502.95 467.05 502.5 466.5 502.3 466.4 502.85
L 466.3 506.05
Q 466.25 506.45 466.6 506.55 467.55 506.9 468.95 507.1 470.4 507.3 471.55 507.3 475.25 507.3 477.8 505.95 480.4 504.65 481.95 502.4 483.55 500.15 484.25 497.15 484.9 494.1 484.9 490.75 484.9 483.3 482.35 479.75 479.8 476.2 475.1 476.2 472.8 476.2 471 477 469.15 477.8 467.85 479.2
M 477.1 480.7
Q 478.05 481.2 478.75 482.1 479.45 483 479.85 484.2 480.25 485.4 480.25 486.75 480.25 489.2 478.8 490.8 477.3 492.35 474.7 492.35 472.25 492.35 470.95 490.75 469.6 489.15 469.6 486.4 469.6 483.5 471.1 481.85 472.65 480.15 475.05 480.15 476.15 480.15 477.1 480.7
M 443.8 476.5
Q 443.2 476.5 443.1 476.65 442.95 476.75 442.95 477.2
L 442.75 491.95
Q 442.75 493.3 444.3 492.65 445.55 492.2 446.95 491.95 448.35 491.65 449.65 491.65 452.95 491.65 454.35 493.2 455.8 494.7 455.8 497.3 455.8 500 454 501.5 452.3 503.05 449.6 503.05 448.9 503.05 448.05 502.95 447.25 502.9 446.4 502.75 445.55 502.55 444.75 502.35 443.95 502.1 443.4 501.8 442.55 501.4 442.55 502.1
L 442.55 505.35
Q 442.55 505.65 442.55 505.8 442.6 505.9 442.85 506.1 443.5 506.4 444.45 506.6 445.35 506.85 446.3 507 447.25 507.1 448.05 507.2 448.9 507.25 449.3 507.25 451.6 507.25 453.65 506.6 455.75 505.95 457.15 504.65 460.3 501.85 460.3 496.8 460.3 494.7 459.55 493.05 458.8 491.35 457.5 490.15 456.2 489 454.45 488.35 452.7 487.75 450.7 487.75 448.75 487.75 447.15 488.1
L 447.3 480.7 458.45 480.7
Q 458.7 480.7 458.85 480.5 458.95 480.35 458.95 480.1
L 458.95 477.05
Q 458.95 476.85 458.85 476.7 458.7 476.5 458.45 476.5
L 443.8 476.5
M 430.7 508.55
Q 431.6 509.45 432.9 509.45 434.15 509.45 435.05 508.55 435.9 507.65 435.9 506.35 435.9 505.05 435.05 504.2 434.15 503.3 432.9 503.3 431.6 503.3 430.7 504.2 429.8 505.05 429.8 506.35 429.8 507.65 430.7 508.55
M 421.65 481
Q 420.95 479.4 419.8 478.35 418.65 477.3 417 476.75 415.4 476.2 413.45 476.2 411.6 476.2 409.6 476.85 407.65 477.5 406.15 478.3 405.75 478.5 405.6 478.75 405.5 478.9 405.6 479.1
L 406.15 482.15
Q 406.25 482.5 406.55 482.55 406.85 482.55 407.2 482.35 409 481.3 410.5 480.85 412.05 480.4 413.7 480.4 415.45 480.4 416.6 481.65 417.8 482.9 417.8 484.8 417.8 486.5 416.2 489.1 414.6 491.75 411.25 495.7
L 405.15 502.95
Q 404.95 503.25 404.75 503.55 404.6 503.9 404.6 504.2
L 404.6 506.5
Q 404.6 507 405.35 507
L 422.4 507
Q 422.95 507 422.95 506.3
L 422.95 503.5
Q 422.95 502.9 422.4 502.9
L 410.65 502.9
Q 411.65 501.75 412.65 500.6 413.65 499.4 414.5 498.3 415.6 497 417 495.4 418.35 493.75 419.55 492 420.75 490.2 421.55 488.35 422.35 486.5 422.35 484.7 422.35 482.6 421.65 481
M 478.3 292.2
Q 474.55 292.2 472 293.5 469.45 294.85 467.85 297.1 466.3 299.3 465.6 302.35 464.9 305.35 464.9 308.75 464.9 316.2 467.45 319.75 470 323.3 474.7 323.3 477 323.3 478.85 322.5 480.7 321.7 482 320.25 483.3 318.9 483.95 316.95 484.65 315.1 484.65 312.9 484.65 310.6 483.95 308.8 483.25 306.95 481.95 305.65 480.7 304.35 478.9 303.65 477.15 302.95 474.95 302.95 474.2 302.95 473.4 303.2 472.6 303.4 471.85 303.75 471.1 304.1 470.5 304.55 469.9 305 469.55 305.5 469.8 303.55 470.4 301.85 470.95 300.2 471.95 298.95 472.95 297.7 474.4 297 475.9 296.35 477.95 296.35 479.35 296.35 480.55 296.45 481.7 296.55 482.75 296.95 483.3 297.2 483.4 296.65
L 483.5 293.45
Q 483.55 293.05 483.2 292.95 482.3 292.6 480.85 292.4 479.45 292.2 478.3 292.2
M 471.05 308.7
Q 472.5 307.15 475.1 307.15 477.55 307.15 478.9 308.75 480.25 310.3 480.25 313.1 480.25 315.95 478.75 317.65 477.2 319.3 474.8 319.3 473.7 319.3 472.7 318.8 471.75 318.3 471.05 317.4 470.35 316.5 469.95 315.25 469.55 314.1 469.55 312.7 469.55 310.25 471.05 308.7
M 456.7 294.8
Q 455.65 293.65 454.05 292.95 452.5 292.3 450.45 292.3 447.25 292.3 445.3 293.75 443.35 295.25 442.25 297.5 441.15 299.8 440.75 302.5 440.4 305.25 440.4 307.7 440.4 315.05 442.85 319.1 445.3 323.15 450.45 323.15 453 323.15 454.85 322.15 456.7 321.05 457.95 319.1 459.2 317.15 459.8 314.25 460.4 311.35 460.4 307.7 460.4 306.05 460.2 304.3 460.05 302.5 459.65 300.8 459.25 299.1 458.55 297.55 457.85 296 456.7 294.8
M 452.7 297.25
Q 453.7 297.8 454.45 299.1 455.15 300.45 455.55 302.55 455.9 304.7 455.9 307.7 455.9 310.8 455.55 312.95 455.15 315.05 454.45 316.35 453.7 317.7 452.7 318.25 451.65 318.85 450.45 318.85 449.15 318.85 448.15 318.25 447.15 317.7 446.45 316.35 445.7 315.05 445.35 312.95 444.95 310.8 444.95 307.7 444.95 304.7 445.35 302.55 445.7 300.45 446.45 299.1 447.15 297.8 448.15 297.25 449.15 296.65 450.45 296.65 451.65 296.65 452.7 297.25
M 434.55 320.2
Q 433.65 319.3 432.4 319.3 431.1 319.3 430.2 320.2 429.3 321.05 429.3 322.35 429.3 323.65 430.2 324.55 431.1 325.45 432.4 325.45 433.65 325.45 434.55 324.55 435.4 323.65 435.4 322.35 435.4 321.05 434.55 320.2
M 420.35 294.8
Q 419.3 293.65 417.7 292.95 416.15 292.3 414.1 292.3 410.9 292.3 408.95 293.75 407 295.25 405.9 297.5 404.8 299.8 404.4 302.5 404.05 305.25 404.05 307.7 404.05 315.05 406.5 319.1 408.95 323.15 414.1 323.15 416.65 323.15 418.5 322.15 420.35 321.05 421.6 319.1 422.85 317.15 423.45 314.25 424.05 311.35 424.05 307.7 424.05 306.05 423.85 304.3 423.7 302.5 423.3 300.8 422.9 299.1 422.2 297.55 421.5 296 420.35 294.8
M 416.35 297.25
Q 417.35 297.8 418.1 299.1 418.8 300.45 419.2 302.55 419.55 304.7 419.55 307.7 419.55 310.8 419.2 312.95 418.8 315.05 418.1 316.35 417.35 317.7 416.35 318.25 415.3 318.85 414.1 318.85 412.8 318.85 411.8 318.25 410.8 317.7 410.1 316.35 409.35 315.05 409 312.95 408.6 310.8 408.6 307.7 408.6 304.7 409 302.55 409.35 300.45 410.1 299.1 410.8 297.8 411.8 297.25 412.8 296.65 414.1 296.65 415.3 296.65 416.35 297.25 Z"/>
</g>

<g id="__________fdnd454535_____1_Layer4_0_FILL">
<path fill="#FFFFFF" stroke="none" d="
M 74.5 -27.5
L 1.5 -27.5
Q -9.9 -27.5 -17.95 -19.45 -26 -11.4 -26 0 -26 11.4 -17.95 19.45 -9.9 27.5 1.5 27.5
L 74.5 27.5
Q 85.9 27.5 93.95 19.45 96.95 16.45 98.9 12.85 102 7.1 102 0 102 -11.4 93.95 -19.45 85.9 -27.5 74.5 -27.5 Z"/>
</g>

<g id="Mask___________fdnd454535_____1_3_MASK_0_FILL">
<path fill="#FFFFFF" stroke="none" d="
M 74.5 -27.5
L 1.5 -27.5
Q -9.9 -27.5 -17.95 -19.45 -26 -11.4 -26 0 -26 11.4 -17.95 19.45 -9.9 27.5 1.5 27.5
L 74.5 27.5
Q 85.9 27.5 93.95 19.45 96.95 16.45 98.9 12.85 102 7.1 102 0 102 -11.4 93.95 -19.45 85.9 -27.5 74.5 -27.5 Z"/>
</g>

<g id="__________fdnd454535_____1_Layer3_0_FILL">
<path fill="#9875B1" stroke="none" d="
M 21.95 -19.45
Q 13.9 -27.5 2.5 -27.5
L -43.5 -27.5
Q -54.9 -27.5 -62.95 -19.45 -71 -11.4 -71 0 -71 11.4 -62.95 19.45 -54.9 27.5 -43.5 27.5
L 2.5 27.5
Q 13.9 27.5 21.95 19.45 30 11.4 30 0 30 -11.4 21.95 -19.45 Z"/>
</g>

<g id="__________bs232323_____3_Layer4_0_FILL">
<path fill="#FFFFFF" stroke="none" d="
M 12.1 -22.45
Q 12.1 -23.25 11.5 -23.85
L 9.55 -25.8 3.7 -19.95 5.65 -18
Q 6.25 -17.4 7.1 -17.45 7.95 -17.4 8.55 -18
L 11.55 -21
Q 12.15 -21.6 12.1 -22.45
M 8.5 -26.85
L 6.15 -36.3
Q 5.9 -37.45 5.05 -37.7 4.35 -37.9 3.5 -37.05
L -7.55 -26
Q -8.35 -25.2 -8.2 -24.45 -7.95 -23.6 -6.8 -23.35
L 2.65 -21 8.5 -26.85 Z"/>
</g>

<g id="__________fdnd454535_____1_Layer0_0_FILL">
<path fill="#9875B1" stroke="none" d="
M 74.5 -29.5
L 1.5 -29.5
Q -10.75 -29.5 -19.35 -20.85 -28 -12.25 -28 0 -28 12.25 -19.35 20.9 -10.75 29.5 1.5 29.5
L 74.5 29.5
Q 86.75 29.5 95.4 20.9 98.55 17.65 100.65 13.8 104 7.6 104 0 104 -12.25 95.4 -20.85 86.75 -29.5 74.5 -29.5
M 1.5 -25.5
L 74.5 -25.5
Q 85.05 -25.5 92.55 -18 100 -10.55 100 0 100 6.6 97.15 11.9 95.35 15.25 92.55 18.05 85.05 25.5 74.5 25.5
L 1.5 25.5
Q -9.05 25.5 -16.5 18.05 -24 10.55 -24 0 -24 -10.55 -16.5 -18 -9.05 -25.5 1.5 -25.5 Z"/>
</g>

<g id="__________sbs43434_____1_Layer1_0_FILL">
<path fill="#684880" stroke="none" d="
M 10.4 8.3
Q 10.4 8.05 10.3 7.9 10.25 7.7 10.1 7.55 9.95 7.4 9.75 7.35 9.55 7.3 9.25 7.3 8.8 7.4 8.4 7.45 8 7.5 7.6 7.5 7.25 7.55 6.85 7.6 6.45 7.6 6 7.6
L 6 6.5 7.9 6.5
Q 8.1 6.5 8.3 6.5 8.5 6.45 8.7 6.35 9.05 6.2 9.25 5.9 9.35 5.75 9.5 5.6 9.6 5.45 9.7 5.25 9.75 5.05 9.85 4.85 9.9 4.65 9.9 4.45
L 9.9 2.9
Q 9.9 2.65 9.85 2.5 9.75 2.3 9.7 2.1 9.6 1.95 9.5 1.75 9.35 1.6 9.25 1.45 9.15 1.3 9 1.25 8.85 1.15 8.7 1.05 8.5 0.95 8.3 0.9 8.1 0.9 7.9 0.9
L 4.75 0.9
Q 4.5 0.9 4.3 0.95 4.1 1.05 4 1.2 3.85 1.4 3.8 1.65 3.75 1.85 3.75 2.1 3.75 2.4 3.8 2.55 3.85 2.75 4 2.9 4.1 3.05 4.3 3.15 4.5 3.2 4.75 3.2
L 7.5 3.2 7.5 4.2 5.75 4.2
Q 5.3 4.2 4.95 4.35 4.6 4.45 4.35 4.75 4.05 5 3.95 5.35 3.8 5.7 3.8 6.1
L 3.8 8.2
Q 3.8 8.65 3.95 8.95 4.1 9.3 4.35 9.5 4.65 9.7 5 9.8 5.3 9.9 5.75 9.9 6.1 9.85 6.35 9.85 6.65 9.85 6.9 9.85 7.15 9.85 7.35 9.8 7.6 9.8 7.75 9.8 8 9.75 8.25 9.75 8.5 9.7 8.7 9.7 9.15 9.65 9.65 9.6
L 9.55 9.6
Q 9.8 9.55 10 9.45 10.25 9.35 10.35 9.2 10.45 9 10.5 8.8 10.5 8.55 10.4 8.3
M 16.05 2.9
Q 16 2.45 15.9 2.1 15.75 1.75 15.5 1.45 15.25 1.15 14.9 1 14.55 0.9 14.15 0.9
L 11.8 0.9
Q 11.5 0.9 11.3 0.95 11.1 1.05 11 1.2 10.9 1.4 10.85 1.65 10.8 1.85 10.8 2.1 10.8 2.4 10.85 2.6 10.9 2.8 11 2.95 11.1 3.15 11.3 3.25 11.5 3.3 11.8 3.3
L 13.4 3.3 13.4 8.85
Q 13.4 9.1 13.5 9.3 13.6 9.45 13.8 9.6 14.05 9.75 14.2 9.8 14.45 9.9 14.65 9.9 14.9 9.9 15.15 9.8 15.4 9.75 15.6 9.6 15.8 9.45 15.9 9.3 16.05 9.1 16.05 8.85
L 16.05 2.9
M 35.6 -8.4
Q 35.6 -8.7 35.5 -8.9 35.4 -9.1 35.2 -9.2 34.75 -9.4 34.3 -9.4 33.65 -9.4 33.3 -9.2 33.05 -9.1 32.95 -8.9 32.85 -8.7 32.85 -8.4
L 32.85 9.35
Q 32.85 9.65 32.95 9.8 33.05 10.05 33.3 10.1 33.65 10.3 34.3 10.3 34.75 10.3 35.2 10.1 35.4 10.05 35.5 9.8 35.6 9.65 35.6 9.35
L 35.6 -8.4
M 29.15 -6.5
Q 29.15 -6.7 29.1 -6.85 29.05 -7 28.95 -7.1 28.85 -7.25 28.7 -7.35 28.55 -7.45 28.35 -7.55 28.15 -7.6 27.9 -7.65 27.6 -7.7 27.25 -7.7
L 22.1 -7.7
Q 21.8 -7.7 21.6 -7.6 21.4 -7.5 21.25 -7.3 21 -6.95 21 -6.45 21 -6.2 21.05 -6 21.15 -5.75 21.25 -5.6 21.4 -5.4 21.6 -5.3 21.8 -5.2 22.1 -5.2
L 26.35 -5.2
Q 26.3 -4.7 26.25 -4.25 26.2 -3.8 26.15 -3.4 26.05 -3 25.95 -2.7 25.85 -2.35 25.75 -2.05 25.65 -1.75 25.5 -1.5 25.35 -1.25 25.2 -1.05 25.05 -0.8 24.85 -0.6 24.7 -0.35 24.6 -0.15 24.35 0.1 24.15 0.25 24 0.45 23.9 0.6 23.75 0.75 23.6 0.9 23.45 1.05 23.25 1.15 23.1 1.3 22.95 1.4 22.8 1.55 22.6 1.65 22.35 1.8 22.05 1.95 21.8 2.1 21.4 2.25 21.15 2.4 21.05 2.55 20.9 2.7 20.85 2.9 20.8 3.1 20.8 3.3 20.85 3.55 20.95 3.8 21.05 4.05 21.2 4.25 21.3 4.45 21.5 4.55 21.65 4.7 21.85 4.75 22.05 4.75 22.3 4.65 22.75 4.45 23.15 4.25 23.55 4.05 23.85 3.85 24.2 3.7 24.4 3.55 24.7 3.35 24.9 3.15 25.15 3 25.35 2.8 25.6 2.55 25.8 2.35 26 2.15 26.2 1.85 26.4 1.6 26.65 1.3 27 1 27.25 0.6 27.55 0.25 27.75 -0.15 28 -0.55 28.15 -0.95 28.35 -1.4 28.45 -1.85 28.65 -2.35 28.8 -2.8 28.95 -3.25 29.05 -3.75 29.1 -4.25 29.15 -4.7 29.15 -5.2 29.15 -5.65 29.15 -5.85 29.15 -6.1 29.15 -6.3 29.15 -6.5
M 16.05 -8.3
Q 16.05 -8.45 16 -8.55 15.95 -8.7 15.9 -8.8 15.85 -8.9 15.75 -9 15.65 -9.05 15.5 -9.1 15.4 -9.15 15.3 -9.2 15.2 -9.25 15.05 -9.25 14.9 -9.25 14.75 -9.25 14.6 -9.3 14.5 -9.3 14.2 -9.3 14 -9.25 13.75 -9.2 13.55 -9.1 13.4 -9 13.3 -8.8 13.2 -8.6 13.2 -8.3
L 13.2 -0.6
Q 13.2 -0.3 13.3 -0.1 13.4 0.1 13.55 0.25 13.75 0.35 14 0.4 14.2 0.45 14.5 0.45 14.8 0.45 15.05 0.4 15.35 0.35 15.55 0.25 15.8 0.1 15.9 -0.1 16 -0.3 16.05 -0.6
L 16.05 -8.3
M 9.9 -6.4
Q 9.7 -6.8 9.5 -7.15 9.25 -7.5 8.95 -7.8 8.3 -8.4 7.4 -8.7 6.9 -8.85 6.4 -8.95 5.9 -9 5.35 -9 4.75 -9 4.2 -8.95 3.65 -8.85 3.2 -8.7 2.25 -8.4 1.65 -7.8 1.35 -7.5 1.1 -7.15 0.85 -6.8 0.7 -6.4 0.55 -5.95 0.45 -5.45 0.35 -5 0.35 -4.45 0.35 -3.95 0.45 -3.5 0.55 -3 0.7 -2.6 0.85 -2.2 1.1 -1.85 1.35 -1.5 1.65 -1.2 2.25 -0.6 3.2 -0.3 3.65 -0.15 4.2 -0.05 4.75 0 5.35 0 5.9 0 6.4 -0.05 6.9 -0.15 7.4 -0.3 8.3 -0.6 8.95 -1.2 9.25 -1.5 9.5 -1.85 9.7 -2.2 9.9 -2.6 10.05 -3 10.15 -3.5 10.25 -3.95 10.25 -4.45 10.25 -5 10.15 -5.45 10.05 -5.95 9.9 -6.4
M 5.35 -6.5
Q 5.9 -6.5 6.35 -6.35 6.75 -6.25 7.1 -6 7.35 -5.7 7.55 -5.35 7.7 -4.95 7.7 -4.45 7.7 -4 7.55 -3.6 7.35 -3.25 7.1 -3 6.75 -2.75 6.35 -2.6 5.9 -2.45 5.35 -2.45 4.75 -2.45 4.3 -2.6 3.85 -2.75 3.55 -3 3.25 -3.25 3.1 -3.6 2.95 -4 2.95 -4.45 2.95 -4.95 3.1 -5.35 3.25 -5.7 3.55 -6 3.85 -6.25 4.3 -6.35 4.75 -6.5 5.35 -6.5 Z"/>
</g>

<path id="Layer0_0_1_STROKES" stroke="#CCCCCC" stroke-width="3" stroke-linejoin="round" stroke-linecap="round" fill="none" d="
M 670.45 333.95
L 924.35 333.95
M 670.45 517.95
L 924.35 517.95"/>
</defs>

<g transform="matrix( 1, 0, 0, 1, 0,0) ">
<use xlink:href="#Layer0_0_FILL"/>

<use xlink:href="#Layer0_0_1_STROKES"/>
</g>

<g transform="matrix( 1, 0, 0, 1, 607.15,307.15) ">
<g transform="matrix( 0.7999725341796875, 0, 0, 0.79998779296875, -30.4,0) ">
<g transform="matrix( 1, 0, 0, 1, 0,0) ">
<use xlink:href="#__________fdnd454535_____1_Layer4_0_FILL"/>
</g>

<mask id="Mask_Mask_1">
<g transform="matrix( 1, 0, 0, 1, 0,0) ">
<use xlink:href="#Mask___________fdnd454535_____1_3_MASK_0_FILL"/>
</g>
</mask>

<g mask="url(#Mask_Mask_1)">
<g transform="matrix( 1, 0, 0, 1, 0,0) ">
<use xlink:href="#__________fdnd454535_____1_Layer3_0_FILL"/>
</g>
</g>

<g mask="url(#Mask_Mask_1)">
<g transform="matrix( -0.56134033203125, 0.56134033203125, -0.56134033203125, -0.56134033203125, -0.05,0) ">
<g transform="matrix( 1.67486572265625, 0, 0, 1.67486572265625, -5.95,43.5) ">
<use xlink:href="#__________bs232323_____3_Layer4_0_FILL"/>
</g>
</g>
</g>

<g transform="matrix( 1, 0, 0, 1, 0,0) ">
<use xlink:href="#__________fdnd454535_____1_Layer0_0_FILL"/>
</g>
</g>

<g transform="matrix( 1, 0, 0, 1, 0,0) ">
<use xlink:href="#__________sbs43434_____1_Layer1_0_FILL"/>
</g>
</g>

<g transform="matrix( 1, 0, 0, 1, 607.65,491.15) ">
<g transform="matrix( 0.7999725341796875, 0, 0, 0.79998779296875, -30.4,0) ">
<g transform="matrix( 1, 0, 0, 1, 0,0) ">
<use xlink:href="#__________fdnd454535_____1_Layer4_0_FILL"/>
</g>

<mask id="Mask_Mask_2">
<g transform="matrix( 1, 0, 0, 1, 0,0) ">
<use xlink:href="#Mask___________fdnd454535_____1_3_MASK_0_FILL"/>
</g>
</mask>

<g mask="url(#Mask_Mask_2)">
<g transform="matrix( 1, 0, 0, 1, 0,0) ">
<use xlink:href="#__________fdnd454535_____1_Layer3_0_FILL"/>
</g>
</g>

<g mask="url(#Mask_Mask_2)">
<g transform="matrix( -0.56134033203125, 0.56134033203125, -0.56134033203125, -0.56134033203125, -0.05,0) ">
<g transform="matrix( 1.67486572265625, 0, 0, 1.67486572265625, -5.95,43.5) ">
<use xlink:href="#__________bs232323_____3_Layer4_0_FILL"/>
</g>
</g>
</g>

<g transform="matrix( 1, 0, 0, 1, 0,0) ">
<use xlink:href="#__________fdnd454535_____1_Layer0_0_FILL"/>
</g>
</g>

<g transform="matrix( 1, 0, 0, 1, 0,0) ">
<use xlink:href="#__________sbs43434_____1_Layer1_0_FILL"/>
</g>
</g>
</svg>
