<svg xmlns="http://www.w3.org/2000/svg" viewBox="0 0 1100 218.35"><defs><style>.cls-1,.cls-2,.cls-9{fill:none;stroke-linecap:round;stroke-linejoin:round;stroke-width:2px;}.cls-1{stroke:#d2c6a6;}.cls-2{stroke:#58595b;stroke-dasharray:3 5;}.cls-3{fill:#e8e1ce;}.cls-4{fill:#f3f0e8;}.cls-5{font-size:30.14px;fill:#231f20;letter-spacing:-0.05em;}.cls-5,.cls-7{font-family:MaplestoryLight, Maplestory;}.cls-6{font-size:47.09px;font-family:NanumSquareRoundB, NanumSquareRound;letter-spacing:-0.05em;}.cls-6,.cls-7{fill:#111;}.cls-7{font-size:39.56px;}.cls-8{fill:#f4ad0f;}.cls-9{stroke:#f4ad0f;}</style></defs><g id="Layer_2" data-name="Layer 2"><g id="Layer_7" data-name="Layer 7"><line class="cls-1" x1="165.67" y1="217.35" x2="1097.93" y2="217.35"/><line class="cls-2" x1="321.06" y1="211.56" x2="321.06" y2="144.83"/><line class="cls-2" x1="477.4" y1="211.56" x2="477.4" y2="144.83"/><line class="cls-2" x1="633.74" y1="211.56" x2="633.74" y2="144.83"/><line class="cls-2" x1="790.08" y1="211.56" x2="790.08" y2="144.83"/><rect class="cls-3" y="71.38" width="160.11" height="70.63" rx="15"/><rect class="cls-3" x="165.76" y="71.85" width="150.69" height="70.63" rx="14.13"/><rect class="cls-3" x="323.98" y="70.43" width="150.69" height="70.63" rx="15"/><rect class="cls-3" x="480.32" y="70.91" width="150.69" height="70.63" rx="15"/><rect class="cls-3" x="636.65" y="70.43" width="150.69" height="70.63" rx="14.13"/><rect class="cls-3" x="792.99" y="70.91" width="150.69" height="70.63" rx="15"/><rect class="cls-4" y="146.72" width="160.11" height="70.63" rx="15"/><text class="cls-5" transform="translate(20.68 192.85) scale(1 1.03)">학생 수(명)</text><text class="cls-5" transform="translate(58.59 118.45) scale(1 1.03)">활동</text><text class="cls-5" transform="translate(852.4 117.51) scale(1 1.03)">책</text><text class="cls-5" transform="translate(703.5 117.51) scale(1 1.03)">옷</text><text class="cls-5" transform="translate(530.21 117.51) scale(1 1.03)">신발</text><text class="cls-5" transform="translate(363.51 117.51) scale(1 1.03)">책가방</text><text class="cls-5" transform="translate(215.18 117.51) scale(1 1.03)">인형</text><line class="cls-2" x1="946.4" y1="211.56" x2="946.4" y2="144.83"/><rect class="cls-3" x="949.31" y="70.91" width="150.69" height="70.63" rx="15"/><text class="cls-5" transform="translate(998.37 117.51) scale(1 1.03)">합계</text><text class="cls-6" transform="translate(227.43 198.5)">3</text><text class="cls-6" transform="translate(386.54 198.5)">4</text><text class="cls-6" transform="translate(542.64 198.5)">8</text><text class="cls-6" transform="translate(699.53 198.5)">1</text><text class="cls-6" transform="translate(852.4 198.5)">2</text><text class="cls-6" transform="translate(998.53 198.5)">18</text><text class="cls-7" transform="translate(439.8 31.64)">받고 싶은 선물</text><path class="cls-8" d="M409.9,14.14l-.09,3.68a1.69,1.69,0,0,0,1.13,1.64l3.47,1.23a1.7,1.7,0,0,1-.09,3.23l-3.52,1a1.68,1.68,0,0,0-1.21,1.58l-.1,3.68a1.7,1.7,0,0,1-3.1.92l-2.08-3a1.71,1.71,0,0,0-1.89-.66l-3.52,1.05a1.71,1.71,0,0,1-1.84-2.67l2.24-2.92a1.7,1.7,0,0,0,.05-2l-2.09-3a1.7,1.7,0,0,1,2-2.57l3.47,1.22a1.68,1.68,0,0,0,1.91-.57l2.24-2.92A1.7,1.7,0,0,1,409.9,14.14Z"/><line class="cls-9" x1="400.25" y1="21.93" x2="4.7" y2="21.93"/><path class="cls-8" d="M690.1,14.14l.09,3.68a1.69,1.69,0,0,1-1.13,1.64l-3.47,1.23a1.7,1.7,0,0,0,.09,3.23l3.52,1a1.68,1.68,0,0,1,1.21,1.58l.1,3.68a1.7,1.7,0,0,0,3.1.92l2.08-3a1.71,1.71,0,0,1,1.89-.66l3.52,1.05a1.71,1.71,0,0,0,1.84-2.67l-2.24-2.92a1.7,1.7,0,0,1-.05-2l2.09-3a1.7,1.7,0,0,0-2-2.57l-3.47,1.22a1.68,1.68,0,0,1-1.91-.57l-2.24-2.92A1.7,1.7,0,0,0,690.1,14.14Z"/><line class="cls-9" x1="699.75" y1="21.93" x2="1095.3" y2="21.93"/></g></g></svg>