<svg xmlns="http://www.w3.org/2000/svg" viewBox="0 0 819 490.94"><defs><style>.cls-1{fill:#edc6c9;stroke:#c8245b;stroke-linejoin:bevel;}.cls-1,.cls-3,.cls-4,.cls-5{stroke-width:2px;}.cls-2{fill:#eef6fc;}.cls-3,.cls-4,.cls-5{fill:none;}.cls-3,.cls-5{stroke:#329ad7;}.cls-4{stroke:#b5b6b6;}.cls-5{stroke-linecap:round;stroke-linejoin:round;}.cls-6{fill:#a4d1f0;}.cls-7{font-size:26px;letter-spacing:-0.05em;}.cls-7,.cls-8,.cls-9{fill:#111;font-family:MaplestoryLight, Maplestory;}.cls-8{font-size:32px;letter-spacing:-0.05em;}.cls-9{font-size:42px;}.cls-10{letter-spacing:-0.02em;}.cls-11{fill:#c8245b;}</style></defs><g id="Layer_2" data-name="Layer 2"><g id="Layer_10" data-name="Layer 10"><polyline class="cls-1" points="211 96.06 668.4 96.06 668.4 128.94 211 128.94"/><polyline class="cls-1" points="211 268.83 515.36 268.83 515.36 301.71 211 301.71"/><path class="cls-2" d="M812,488.94H212v-75H817v70A5,5,0,0,1,812,488.94Z"/><path class="cls-2" d="M211,488.94H7a5,5,0,0,1-5-5v-410a5,5,0,0,1,5-5H211Z"/><path class="cls-3" d="M817,241.6H2m815-85.32H2M817,327H2"/><line class="cls-4" x1="719.41" y1="69.51" x2="719.41" y2="414.06"/><line class="cls-4" x1="770.43" y1="69.51" x2="770.43" y2="414.06"/><path class="cls-4" d="M566.37,69.51V414.06m51-344.55V414.06m51-344.55V414.06"/><line class="cls-4" x1="515.36" y1="69.51" x2="515.36" y2="414.06"/><path class="cls-4" d="M260.28,68.94V413.49m51-344V414.06m51-344.55V414.06m102-344.55V414.06m-51-344.55V414.06"/><path class="cls-3" d="M211.53,68.8V488.61m605.26-74.55H2"/><line class="cls-5" x1="212" y1="415.1" x2="4.47" y2="487.99"/><path class="cls-6" d="M812,68.94a5,5,0,0,1,5,5v410a5,5,0,0,1-5,5H7a5,5,0,0,1-5-5v-410a5,5,0,0,1,5-5H812m0-2H7a7,7,0,0,0-7,7v410a7,7,0,0,0,7,7H812a7,7,0,0,0,7-7v-410a7,7,0,0,0-7-7Z"/><text class="cls-7" transform="translate(758.82 478.23)">( 명 )</text><text class="cls-8" transform="translate(5.67 447.16)">민속놀이</text><text class="cls-8" transform="translate(119.5 475.27)">학생 수</text><text class="cls-8" transform="translate(69.78 123.94)">윷놀이</text><text class="cls-8" transform="translate(52.78 212.92)">연날리기</text><text class="cls-8" transform="translate(52.78 297.23)">제기차기</text><text class="cls-8" transform="translate(67.78 381.84)">널뛰기</text><text class="cls-8" transform="translate(221.46 443.75)">0</text><text class="cls-8" transform="translate(456.61 443.75)">5</text><text class="cls-8" transform="translate(703.49 443.75)">10</text><text class="cls-9" transform="translate(209.96 34.64) scale(1 1.03)"><tspan class="cls-10">여름 방학에 가고 싶은 장</tspan><tspan x="394.04" y="0">소</tspan></text><path class="cls-11" d="M187.86,14.57l-.09,3.9a1.79,1.79,0,0,0,1.2,1.75l3.68,1.3a1.81,1.81,0,0,1-.09,3.44l-3.74,1.11a1.8,1.8,0,0,0-1.29,1.68l-.1,3.91a1.8,1.8,0,0,1-3.29,1l-2.21-3.21a1.82,1.82,0,0,0-2-.71l-3.74,1.11a1.8,1.8,0,0,1-2-2.82l2.38-3.1a1.82,1.82,0,0,0,0-2.13l-2.21-3.21a1.81,1.81,0,0,1,2.09-2.73l3.68,1.3a1.8,1.8,0,0,0,2-.6l2.37-3.1A1.8,1.8,0,0,1,187.86,14.57Z"/><path class="cls-11" d="M655.38,14.57l.1,3.9a1.79,1.79,0,0,1-1.2,1.75l-3.68,1.3a1.81,1.81,0,0,0,.08,3.44l3.75,1.11a1.8,1.8,0,0,1,1.29,1.68l.09,3.91a1.81,1.81,0,0,0,3.3,1l2.21-3.21a1.8,1.8,0,0,1,2-.71l3.74,1.11A1.8,1.8,0,0,0,669,27l-2.37-3.1a1.8,1.8,0,0,1,0-2.13l2.21-3.21a1.81,1.81,0,0,0-2.09-2.73L663,17.13a1.81,1.81,0,0,1-2-.6l-2.37-3.1A1.81,1.81,0,0,0,655.38,14.57Z"/></g></g></svg>