<svg xmlns="http://www.w3.org/2000/svg" viewBox="0 0 789 324"><defs><style>.cls-1{fill:#edc6c9;stroke:#c8245b;stroke-linejoin:bevel;}.cls-1,.cls-5,.cls-6,.cls-8{stroke-width:2px;}.cls-2{fill:#eef6fc;}.cls-10,.cls-3{font-size:32px;}.cls-3{font-family:MaplestoryLight, Maplestory;}.cls-4{letter-spacing:-0.05em;}.cls-5,.cls-6,.cls-7,.cls-8{fill:none;}.cls-5,.cls-8{stroke:#329ad7;}.cls-6,.cls-7{stroke:#b5b6b6;}.cls-7{stroke-width:3px;}.cls-8{stroke-linecap:round;stroke-linejoin:round;}.cls-9{fill:#a4d1f0;}.cls-10{fill:#0065de;font-family:NanumSquareRoundB, NanumSquareRound;letter-spacing:-0.05em;}</style></defs><g id="Layer_2" data-name="Layer 2"><g id="Layer_7" data-name="Layer 7"><polyline class="cls-1" points="349.77 247.24 349.77 158.31 375.27 158.31 375.27 247.24"/><polyline class="cls-1" points="471.25 247.24 471.25 69.52 496.74 69.52 496.74 247.24"/><polyline class="cls-1" points="229.3 247.24 229.3 180.51 254.79 180.51 254.79 247.24"/><polyline class="cls-1" points="594.36 247.24 594.36 224.92 619.85 224.92 619.85 247.24"/><polyline class="cls-1" points="713.36 247.24 713.36 202.78 738.85 202.78 738.85 247.24"/><path class="cls-2" d="M782,322H182V247H787v70A5,5,0,0,1,782,322Z"/><path class="cls-2" d="M181,322H7a5,5,0,0,1-5-5V7A5,5,0,0,1,7,2H181Z"/><text class="cls-3" transform="translate(8.67 38.24) scale(1 1.05)"><tspan class="cls-4" xml:space="preserve">(         </tspan><tspan x="71.97" y="0">)</tspan></text><path class="cls-5" d="M545.71,2.49V321.67M424.05,2.49V321.67M302.39,2.49V321.67M667.51,2.49V321.67"/><text class="cls-3" transform="translate(147.69 237.26)">0</text><line class="cls-6" x1="182.53" y1="47.32" x2="787.45" y2="47.32"/><line class="cls-7" x1="182.53" y1="25.12" x2="787.45" y2="25.12"/><path class="cls-6" d="M182.53,113.92H787.45M182.53,91.72H787.45M182.53,69.51H787.45"/><line class="cls-7" x1="182.53" y1="136.12" x2="787.45" y2="136.12"/><path class="cls-6" d="M181.53,247.12H786.45m-603.92-22.2H787.45M182.53,202.71H787.45m-604.92-44.4H787.45M182.53,180.52H787.45"/><path class="cls-5" d="M181.53,1.86V321.67m604.26-74.55H2"/><line class="cls-8" x1="182" y1="248.16" x2="4.47" y2="321.04"/><path class="cls-9" d="M782,2a5,5,0,0,1,5,5V317a5,5,0,0,1-5,5H7a5,5,0,0,1-5-5V7A5,5,0,0,1,7,2H782m0-2H7A7,7,0,0,0,0,7V317a7,7,0,0,0,7,7H782a7,7,0,0,0,7-7V7a7,7,0,0,0-7-7Z"/><text class="cls-10" transform="translate(33.82 38.32)">명</text><text class="cls-10" transform="translate(138.18 37.32)">10</text><text class="cls-10" transform="translate(152.21 146.91)">5</text><text class="cls-10" transform="translate(5.67 280.21)">학생수</text><text class="cls-10" transform="translate(113.5 308.32)">선물</text><text class="cls-10" transform="translate(213.56 297.32)">인형</text><text class="cls-10" transform="translate(321.53 297.32)">책가방</text><text class="cls-10" transform="translate(457.36 297.32)">신발</text><text class="cls-10" transform="translate(594.36 297.32)">옷</text><text class="cls-10" transform="translate(713.36 297.32)">책</text></g></g></svg>