
<svg xmlns="http://www.w3.org/2000/svg" version="1.1" xmlns:xlink="http://www.w3.org/1999/xlink" preserveAspectRatio="none" x="0px" y="0px" width="965px" height="95px" viewBox="0 0 965 95">
<defs>
<g id="Layer0_0_FILL">
<path fill="#1E1E1E" stroke="none" d="
M 438.25 85.95
Q 437.85 86.05 437.65 86.25 437.45 86.45 437.3 86.8 437.2 87.2 437.2 87.7
L 437.2 89.2
Q 437.2 89.7 437.3 90.05 437.45 90.4 437.65 90.6 437.85 90.8 438.25 90.85 438.6 91 439.15 91
L 440.6 91
Q 441.5 91 442 90.55 442.45 90.1 442.45 89.2
L 442.45 87.7
Q 442.45 87.2 442.35 86.85 442.2 86.55 441.95 86.3 441.7 86.05 441.35 85.95 441 85.85 440.5 85.85
L 439.15 85.85
Q 438.6 85.85 438.25 85.95
M 408.65 67.2
Q 408.65 66.8 408.7 66.6 408.8 66.4 408.95 66.4
L 417.3 66.4
Q 418 66.4 418.6 65.95 418.85 65.75 419 65.4 419.1 65.05 419.1 64.5 419.1 63.95 419 63.55 418.85 63.15 418.6 63 418 62.7 417.3 62.7
L 409.1 62.7
Q 408.4 62.7 407.85 62.75 407.3 62.75 406.95 62.8 406.5 62.85 406.1 63 405.75 63.1 405.4 63.3 405.15 63.5 404.95 63.75 404.75 64.05 404.7 64.4 404.6 64.8 404.55 65.3 404.5 65.8 404.5 66.45
L 404.5 79.35
Q 404.5 80 404.55 80.5 404.6 81 404.7 81.3 404.75 81.7 404.95 81.95 405.15 82.25 405.4 82.4 405.75 82.6 406.1 82.7 406.5 82.85 406.95 82.85 407.35 82.9 407.9 82.95 408.45 82.95 409.15 82.95 410.5 82.9 411.8 82.8 413.1 82.75 414.3 82.6 416.7 82.35 419.55 81.95 420.3 81.85 420.7 81.45 421.05 81.05 421.05 80.4 421.05 80.35 421.05 80.25 421.05 80.15 421.05 80 421 79.7 420.95 79.7
L 420.9 79.7
Q 420.85 79.7 420.85 79.75 420.8 79.3 420.65 79.05 420.55 78.75 420.35 78.6 420.15 78.5 419.9 78.45 419.7 78.4 419.45 78.4 419.4 78.4 419.35 78.4 419.3 78.4 419.2 78.4 419.1 78.4 419 78.45 418.9 78.45 418.8 78.5 417.6 78.65 416.4 78.75 415.15 78.9 413.9 79 412.65 79.1 411.4 79.15 410.1 79.2 408.85 79.2 408.75 79.2 408.7 79.15 408.65 79.05 408.65 78.85
L 408.65 67.2
M 432.6 73.7
Q 432.6 73.3 432.5 72.95 432.45 72.6 432.25 72.35 431.9 71.85 431 71.85
L 427.5 71.85 427.5 61.6
Q 427.5 61.15 427.35 60.85 427.15 60.5 426.85 60.25 426.15 59.85 425.25 59.85 424.9 59.85 424.6 59.95 424.25 60.05 423.95 60.25 423.35 60.75 423.35 61.6
L 423.35 90.95
Q 423.35 91.4 423.5 91.75 423.65 92.05 423.95 92.25 424.25 92.5 424.6 92.6 424.9 92.7 425.25 92.7 426.15 92.7 426.85 92.25 427.15 92.05 427.35 91.75 427.5 91.4 427.5 90.95
L 427.5 75.6 431 75.6
Q 431.45 75.6 431.75 75.45 432.1 75.3 432.25 75 432.45 74.7 432.5 74.4 432.6 74.05 432.6 73.7
M 373.05 62.6
Q 372.9 62.55 372.75 62.55 372.35 62.55 372 62.65 371.65 62.75 371.35 62.95 371 63.15 370.85 63.5 370.7 63.8 370.7 64.25
L 370.7 78.2
Q 370.7 78.75 370.8 79.25 370.95 79.75 371.15 80.1 371.35 80.45 371.6 80.75 371.8 81.05 372.05 81.2 372.7 81.65 373.45 81.75 373.75 81.8 374.05 81.85 374.35 81.9 374.6 81.9
L 374.95 81.9
Q 375.800390625 81.893359375 376.5 81.85 377.3 81.85 378.1 81.8 378.95 81.75 379.75 81.7 380.55 81.65 381.35 81.6 382.1 81.6 382.85 81.5 383.6 81.45 384.35 81.35 385.05 81.3 385.75 81.2 386.35 81.15 387 81.05 387.4 81.05 387.7 80.9 388 80.75 388.2 80.5 388.4 80.25 388.5 80 388.6 79.7 388.6 79.4 388.6 79 388.5 78.6 388.35 78.3 388.15 77.95 387.95 77.65 387.65 77.55 387.4 77.35 387.1 77.35 386.95 77.35 386.8 77.4 386.65 77.4 386.45 77.45
L 386.5 77.45
Q 385.9 77.55 385.25 77.6 384.6 77.7 383.95 77.75 383.3 77.85 382.6 77.9 381.85 78 381.15 78.05 380.4 78.1 379.65 78.1 378.9 78.2 378.1 78.2 377.35 78.25 376.6 78.25 375.9 78.25 375.25 78.25 375.15 78 375.1 77.75 375 77.45 375 77.2 374.9 76.95 374.9 76.65 374.9 76.35 374.9 76.05
L 374.9 64.1
Q 374.85 63.9 374.8 63.7 374.75 63.55 374.7 63.4 374.6 63.25 374.45 63.15 374.3 63 374.15 62.9 373.95 62.85 373.75 62.75 373.6 62.7 373.45 62.6 373.2 62.6 373.05 62.6
M 391.45 60.75
Q 391.3 61.05 391.3 61.5
L 391.3 90.65
Q 391.3 91.6 391.85 91.95 392.1 92.05 392.4 92.1 392.75 92.15 393.25 92.15 393.55 92.15 393.85 92.1 394.15 92.05 394.45 91.95 394.75 91.75 394.85 91.45 395 91.15 395 90.65
L 395 61.5
Q 395 61.05 394.85 60.75 394.75 60.45 394.45 60.3 394.15 60.15 393.85 60.1 393.55 60 393.25 60 392.75 60 392.4 60.1 392.1 60.15 391.85 60.3 391.55 60.45 391.45 60.75
M 343.8 78.25
Q 343.45 78.35 343.15 78.5 342.8 78.75 342.65 79 342.5 79.3 342.5 79.65
L 342.5 89.15
Q 342.5 89.8 342.65 90.3 342.8 90.8 343.15 91.25 343.45 91.6 343.95 91.8 344.45 92 345.1 92 346.8 92 348.45 92 350.15 92 351.75 92 353.35 91.95 355.05 91.95 356.75 91.95 358.5 91.95
L 358.5 92
Q 359.1 92 359.65 91.8 360.15 91.6 360.5 91.2 360.9 90.75 361.05 90.25 361.25 89.75 361.25 89.15
L 361.25 79.65
Q 361.25 79.45 361.15 79.3 361.1 79.15 361 79 360.85 78.9 360.7 78.75 360.55 78.65 360.4 78.55 360.2 78.35 359.75 78.25 359.35 78.15 359.05 78.15 358.75 78.15 358.4 78.25 358.1 78.35 357.8 78.5 357.5 78.75 357.35 79 357.2 79.3 357.2 79.65
L 357.2 82 346.55 82 346.55 79.65
Q 346.55 79.45 346.5 79.3 346.4 79.15 346.3 79 346.15 78.9 346.05 78.75 345.9 78.65 345.75 78.55 345.65 78.45 345.5 78.35 345.35 78.3 345.15 78.25 344.75 78.15 344.4 78.15 344.1 78.15 343.8 78.25
M 356.1 85.4
Q 356.4 85.4 356.6 85.45 356.8 85.45 356.95 85.5 357.05 85.55 357.1 85.75 357.2 85.9 357.2 86.2
L 357.2 87.9
Q 357.2 88.15 357.15 88.3 357.1 88.45 357 88.5 356.85 88.55 356.7 88.6 356.45 88.65 356.2 88.65
L 347.3 88.65
Q 347.15 88.6 347 88.55 346.85 88.5 346.75 88.45 346.65 88.45 346.6 88.3 346.55 88.15 346.55 87.9
L 346.55 86.2
Q 346.55 85.95 346.6 85.75 346.65 85.6 346.75 85.5 346.85 85.45 347 85.45 347.2 85.4 347.4 85.4
L 356.1 85.4
M 348.2 66.8
Q 346.85 66.4 345.15 66.4 343.4 66.4 342.05 66.8 340.65 67.15 339.6 67.9 338.45 68.65 337.9 69.55 337.3 70.5 337.3 71.55 337.3 72.65 337.9 73.55 338.45 74.45 339.6 75.2 340.65 75.95 342.05 76.3 343.4 76.65 345.15 76.65 348.5 76.65 350.6 75.2 351.75 74.5 352.35 73.6 352.9 72.65 352.9 71.55 352.9 70.45 352.35 69.55 351.75 68.65 350.6 67.9 349.55 67.15 348.2 66.8
M 348.4 72.2
Q 348.15 72.5 347.65 72.75 347.15 73 346.5 73.1 345.9 73.25 345.15 73.25 344.4 73.25 343.75 73.1 343.15 73 342.6 72.75 342.05 72.5 341.8 72.2 341.5 71.9 341.5 71.55 341.5 71.2 341.8 70.9 342.05 70.6 342.6 70.35 343.15 70.1 343.75 69.95 344.4 69.85 345.15 69.85 345.9 69.85 346.5 69.95 347.15 70.1 347.65 70.35 348.15 70.6 348.4 70.9 348.65 71.2 348.65 71.55 348.65 71.9 348.4 72.2
M 347.1 61
Q 347.1 60.45 346.9 60.1 346.75 59.75 346.5 59.6 346.15 59.45 345.85 59.35 345.5 59.25 345.2 59.25 344.7 59.25 344.35 59.35 344 59.45 343.75 59.6 343.45 59.75 343.35 60.1 343.2 60.45 343.2 61
L 343.2 62.45 337.25 62.4
Q 336.5 62.4 336.2 62.8 336 63 335.9 63.3 335.8 63.65 335.8 64 335.8 64.4 335.9 64.65 336 64.95 336.2 65.1 336.5 65.55 337.25 65.55
L 352.9 65.55
Q 353.35 65.55 353.65 65.45 353.95 65.3 354.1 65.1 354.25 64.95 354.3 64.65 354.4 64.4 354.4 64 354.4 63.65 354.3 63.35 354.25 63.05 354.1 62.85 353.95 62.65 353.65 62.55 353.35 62.45 352.9 62.45
L 347.1 62.45 347.1 61
M 361.35 61.3
Q 361.35 60.85 361.2 60.55 361.05 60.25 360.75 60.05 360.45 59.85 360.05 59.8 359.65 59.7 359.25 59.7 358.9 59.7 358.55 59.8 358.2 59.85 357.9 60.05 357.55 60.25 357.4 60.55 357.25 60.85 357.25 61.3
L 357.25 74.9
Q 357.25 75.4 357.4 75.7 357.55 76 357.9 76.2 358.2 76.4 358.55 76.45 358.9 76.55 359.25 76.55 359.65 76.55 360.05 76.45 360.45 76.4 360.75 76.2 361.05 76 361.2 75.7 361.35 75.4 361.35 74.9
L 361.35 69.75 364.65 69.75
Q 365.15 69.75 365.5 69.6 365.8 69.45 366 69.15 366.1 68.85 366.15 68.55 366.2 68.2 366.2 67.85 366.2 67.5 366.15 67.15 366.1 66.8 366 66.5 365.8 66.25 365.5 66.15 365.15 66 364.65 66
L 361.35 66 361.35 61.3
M 309.95 61.35
Q 309.75 61.45 309.65 61.6 309.55 61.75 309.5 61.9 309.45 62.1 309.45 62.3
L 309.45 63.9
Q 309.45 65.1 309 66.35 308.8 66.95 308.55 67.6 308.3 68.2 308 68.8 307.6 69.4 307.2 69.95 306.75 70.5 306.25 71 305.7 71.5 305.15 71.95 304.55 72.4 303.95 72.75
L 303.75 72.8
Q 303.6 72.95 303.5 73.05 303.4 73.15 303.35 73.25 303.25 73.4 303.2 73.55 303.15 73.65 303.15 73.8 303.15 74 303.2 74.25 303.25 74.45 303.35 74.65 303.55 75.1 303.8 75.4 303.95 75.55 304.1 75.7 304.3 75.8 304.55 75.9 304.95 76.1 305.2 76.1 305.25 76.1 305.4 76.1 305.5 76.1 305.7 76.05 305.85 76.05 305.95 76 306.1 75.95 306.15 75.85
L 306.2 75.85
Q 307.05 75.4 307.8 74.7 308.55 74.05 309.3 73.25 309.95 72.4 310.6 71.6 311.2 70.75 311.7 69.9 312.2 70.75 312.85 71.55 313.45 72.35 314.2 73.1 314.95 73.9 315.85 74.5 316.75 75.15 317.8 75.7 317.95 75.75 318.05 75.75 318.1 75.75 318.2 75.75 318.35 75.75 318.55 75.7 318.75 75.65 318.95 75.5 319.15 75.4 319.35 75.25 319.5 75.1 319.65 74.9 319.75 74.75 319.85 74.55 319.95 74.35 320.05 74.1 320.15 73.9 320.2 73.7 320.25 73.5 320.25 73.3 320.25 73.1 320.2 72.95 320.15 72.85 320.05 72.75 319.95 72.75 319.8 72.6 319.7 72.5 319.55 72.25 319 71.95 318.45 71.55 318 71.2 317.5 70.7 317 70.3 316.55 69.8 316.1 69.3 315.65 68.75 314.9 67.7 314.4 66.45 314.1 65.85 313.95 65.25 313.75 64.6 313.75 64
L 313.75 63.95
Q 313.75 63.5 313.75 63.1 313.7 62.75 313.7 62.4 313.65 62.15 313.55 61.9 313.5 61.65 313.4 61.5 313.3 61.3 313.15 61.2 313 61.05 312.8 61 312.55 60.95 312.3 60.9 312 60.85 311.65 60.85 311.45 60.85 311.25 60.85 311.05 60.9 310.9 60.9 310.6 61 310.3 61.1 310.1 61.2 309.95 61.35
M 326.5 79.95
Q 325.8 79.45 325 79.1 324.2 78.7 323.25 78.45 322.25 78.2 321.2 78.1 320.2 77.95 319.05 77.95 317.9 77.95 316.85 78.1 315.8 78.2 314.85 78.45 313.9 78.7 313.1 79.1 312.35 79.45 311.75 79.95 311.05 80.45 310.6 81 310.05 81.55 309.7 82.25 309 83.65 309 85.4 309 87.1 309.7 88.45 310.05 89.1 310.6 89.7 311.05 90.25 311.75 90.75 312.35 91.2 313.15 91.55 313.95 91.95 314.85 92.2 315.8 92.45 316.85 92.55 317.9 92.7 319.05 92.7 320.2 92.7 321.2 92.55 322.25 92.45 323.2 92.2 325.1 91.7 326.45 90.75 327.1 90.25 327.65 89.7 328.15 89.1 328.5 88.45 328.85 87.75 329.05 87 329.2 86.25 329.2 85.4 329.2 84.5 329.05 83.75 328.85 82.95 328.5 82.25 328.15 81.55 327.65 81 327.1 80.45 326.5 79.95
M 324.65 83.8
Q 325.05 84.5 325.05 85.4 325.05 87.1 323.4 88 322.5 88.5 321.45 88.7 320.35 88.95 319.1 88.95 316.4 88.95 314.8 88 314 87.55 313.6 86.85 313.2 86.2 313.2 85.4 313.2 84.5 313.6 83.8 314 83.1 314.8 82.65 316.4 81.7 319.1 81.7 321.75 81.7 323.4 82.65 324.25 83.1 324.65 83.8
M 329.25 61.2
Q 329.25 60.8 329.1 60.45 328.95 60.15 328.7 60 328.4 59.85 328.05 59.8 327.7 59.7 327.25 59.7 326.9 59.7 326.55 59.8 326.2 59.85 325.85 60 325.5 60.15 325.35 60.45 325.15 60.8 325.15 61.2
L 325.15 65.75 320.9 65.75
Q 320.4 65.75 320.1 65.85 319.8 66 319.7 66.25 319.55 66.55 319.5 66.9 319.45 67.25 319.45 67.6 319.45 67.95 319.5 68.3 319.55 68.6 319.7 68.85 319.8 69.1 320.1 69.25 320.4 69.4 320.9 69.4
L 325.15 69.4 325.15 75.5
Q 325.15 75.95 325.35 76.25 325.5 76.55 325.85 76.7 326.2 76.9 326.55 76.95 326.9 77.05 327.25 77.05 327.7 77.05 328.05 76.95 328.4 76.9 328.7 76.7 328.95 76.55 329.1 76.25 329.25 75.95 329.25 75.5
L 329.25 61.2
M 279.4 60.8
Q 277.65 60.8 276.25 61.15 274.85 61.55 273.8 62.3 272.7 63.05 272.2 64.15 271.65 65.2 271.65 66.6 271.65 67.25 271.8 67.85 271.95 68.45 272.2 68.95 272.75 70 273.7 70.75 274.2 71.1 274.85 71.4 275.45 71.7 276.2 71.85 276.45 71.95 276.75 72 277.05 72.05 277.4 72.1 277.3 72.3 277.3 72.45 277.25 72.65 277.25 72.85
L 277.25 75.6 270.2 75.6
Q 269.85 75.7 269.5 75.7 269.25 75.75 269.1 75.8 268.95 75.85 268.9 75.95 268.75 76.05 268.65 76.15 268.55 76.25 268.5 76.4 268.4 76.6 268.35 76.8 268.3 77.05 268.3 77.3 268.3 77.6 268.35 77.85 268.4 78.05 268.45 78.2 268.5 78.35 268.6 78.5 268.7 78.6 268.8 78.65 268.85 78.75 268.95 78.8 269.05 78.9 269.25 78.9 269.35 78.95 269.55 79 269.75 79.05 270 79.1
L 278.5 79.1
Q 279.25 79.1 279.95 79.1 280.6 79.1 281.2 79.1 281.8 79.1 282.35 79.05 282.9 79.05 283.5 79 284.1 78.95 284.65 78.9 285.2 78.85 285.75 78.7 286.3 78.65 286.85 78.6 287.4 78.5 288.05 78.35 288.8 78.25 289.3 77.7 289.5 77.45 289.6 77.2 289.75 76.9 289.75 76.5
L 289.75 76.4 289.85 76.4
Q 289.9 76.35 289.9 76.3 289.85 76 289.65 75.75 289.5 75.45 289.2 75.25 288.95 75 288.6 74.9 288.3 74.75 287.95 74.75 287.9 74.75 287.85 74.8
L 287.8 74.8
Q 287.25 74.9 286.75 75 286.25 75.05 285.85 75.15 285 75.3 284.4 75.35 283.95 75.4 283.55 75.45 283.15 75.5 282.8 75.5 282.4 75.55 281.95 75.6 281.5 75.6 280.95 75.6
L 280.95 72.85
Q 280.95 72.7 280.9 72.5 280.9 72.35 280.8 72.2 283.55 71.95 285.2 70.7 286.3 69.95 286.85 68.95 287.35 67.9 287.35 66.6 287.35 63.85 285.25 62.3 284.2 61.55 282.75 61.15 281.3 60.8 279.4 60.8
M 282.45 64.75
Q 282.95 65.05 283.2 65.55 283.5 65.95 283.5 66.55 283.5 67.1 283.2 67.55 282.95 68 282.45 68.3 281.85 68.65 281.15 68.8 280.4 68.95 279.45 68.95 278.55 68.95 277.85 68.8 277.15 68.65 276.65 68.3 276.1 68 275.8 67.55 275.55 67.1 275.55 66.55 275.55 65.95 275.8 65.55 276.1 65.05 276.65 64.75 277.15 64.4 277.85 64.25 278.55 64.05 279.45 64.05 280.4 64.05 281.15 64.25 281.85 64.4 282.45 64.75
M 294.85 61.8
Q 294.85 61.4 294.7 61.1 294.55 60.75 294.3 60.5 293.95 60.25 293.65 60.15 293.35 60 293.05 60 292.6 60 292.3 60.15 291.95 60.25 291.7 60.5 291.4 60.75 291.25 61.1 291.15 61.4 291.15 61.8
L 291.15 80.5
Q 291.15 80.95 291.25 81.3 291.4 81.65 291.7 81.9 291.95 82.15 292.3 82.25 292.6 82.4 293.05 82.35 293.35 82.4 293.65 82.25 293.95 82.15 294.3 81.9 294.55 81.65 294.7 81.3 294.85 80.95 294.85 80.5
L 294.85 72.45 298 72.45
Q 298.4 72.45 298.75 72.35 299.05 72.2 299.25 71.85 299.7 71.35 299.7 70.6 299.7 70.25 299.6 69.9 299.5 69.55 299.25 69.3 299.05 69 298.75 68.85 298.4 68.7 298 68.7
L 294.85 68.7 294.85 61.8
M 278.4 82
Q 278.05 81.8 277.7 81.7 277.4 81.6 277.1 81.6 276.7 81.6 276.3 81.7 275.95 81.8 275.6 82 275.25 82.2 275.05 82.5 274.9 82.75 274.9 83.1
L 274.9 88.4
Q 274.9 89.3 275.15 89.95 275.4 90.6 275.85 90.95 276.3 91.3 277.05 91.45 277.75 91.65 278.75 91.65
L 293.55 91.65
Q 293.85 91.65 294.15 91.5 294.45 91.4 294.65 91.2 295.05 90.7 295.05 89.95 295.05 89.55 294.95 89.2 294.85 88.85 294.65 88.55 294.45 88.2 294.15 88.05 293.85 87.85 293.55 87.85
L 280.9 87.85
Q 279.95 87.85 279.1 87.65
L 279.1 83.1
Q 279.1 82.75 278.9 82.5 278.75 82.2 278.4 82
M 249.25 80.2
Q 248.9 79.8 248.4 79.45 248.2 79.35 247.95 79.25 247.65 79.15 247.35 79.1 246.6 79 246.1 79
L 231.75 79
Q 231.3 79 231 79.1 230.75 79.25 230.6 79.45 230.4 79.75 230.3 80.05 230.2 80.35 230.25 80.7 230.2 81.1 230.3 81.35 230.4 81.65 230.6 81.85 230.9 82.25 231.75 82.25
L 245.2 82.25
Q 245.25 82.4 245.25 82.55 245.3 82.7 245.3 82.95
L 245.3 83.25
Q 245.3 83.5 245.25 83.65 245.25 83.85 245.2 83.9
L 233.65 83.9
Q 233.35 83.9 233.05 83.95 232.75 83.95 232.5 84 232.15 84.1 231.9 84.2 231.6 84.3 231.4 84.45 231.1 84.6 230.85 84.8 230.7 85 230.6 85.25 230.45 85.55 230.4 85.85 230.35 86.1 230.35 86.45
L 230.35 90.15
Q 230.35 90.5 230.4 90.75 230.45 91.05 230.6 91.25 230.7 91.45 230.85 91.65 231.1 91.8 231.4 91.95 231.6 92.05 231.9 92.1 232.15 92.2 232.5 92.25 232.75 92.3 233.05 92.35 233.35 92.35 233.65 92.35
L 248.3 92.35
Q 249.05 92.35 249.45 91.95 249.8 91.55 249.8 90.75 249.8 89.9 249.45 89.45 249.05 89.05 248.3 89.05
L 234.6 89.05
Q 234.5 88.9 234.45 88.7 234.45 88.55 234.45 88.35
L 234.45 87.9
Q 234.45 87.7 234.45 87.5 234.5 87.3 234.6 87.1
L 246.45 87.1
Q 247.05 87.1 247.6 87 248.15 86.95 248.6 86.7 249.05 86.55 249.3 86.15 249.5 85.75 249.5 85.1
L 249.5 81.45
Q 249.5 81.05 249.45 80.75 249.35 80.45 249.25 80.2
M 255.25 73.95
Q 255.15 73.7 254.9 73.6 254.6 73.45 254.05 73.45
L 225.75 73.45
Q 225.25 73.45 224.95 73.6 224.65 73.7 224.55 73.95 224.45 74.2 224.4 74.55 224.3 74.9 224.3 75.25 224.3 75.65 224.4 75.9 224.45 76.25 224.55 76.45 224.65 76.7 224.95 76.85 225.25 76.95 225.75 76.95
L 254.05 76.95
Q 254.6 76.95 254.9 76.85 255.15 76.7 255.25 76.45 255.3 76.25 255.35 75.9 255.4 75.65 255.4 75.25 255.4 74.9 255.35 74.55 255.3 74.2 255.25 73.95
M 245.95 60.95
Q 245.15 60.7 244.2 60.45 243.25 60.3 242.15 60.2 241 60.1 239.85 60.1 238.7 60.1 237.65 60.2 236.6 60.3 235.65 60.45 234.65 60.7 233.85 60.95 233 61.2 232.35 61.55 231.65 61.9 231.15 62.35 230.65 62.8 230.3 63.3 229.55 64.4 229.55 65.75 229.55 66.45 229.75 67.05 229.95 67.65 230.3 68.15 230.65 68.65 231.2 69.1 231.75 69.55 232.4 69.85 233.1 70.25 233.95 70.5 234.75 70.8 235.75 70.95 236.75 71.15 237.8 71.3 238.85 71.4 239.95 71.45 241.1 71.4 242.2 71.25 243.25 71.15 244.25 70.95 245.2 70.75 246 70.45 246.8 70.2 247.5 69.85 248.05 69.5 248.55 69.05 249.05 68.65 249.4 68.15 249.75 67.65 249.95 67.05 250.1 66.45 250.1 65.75 250.1 65.05 249.95 64.45 249.75 63.85 249.4 63.3 249.05 62.8 248.55 62.35 248.05 61.9 247.45 61.55 246.75 61.2 245.95 60.95
M 246 65.75
Q 246 66.2 245.6 66.55 245.2 66.9 244.35 67.15 243.5 67.4 242.35 67.55 241.25 67.65 239.85 67.65 238.5 67.65 237.4 67.55 236.3 67.4 235.5 67.15 234.6 66.9 234.2 66.55 233.75 66.2 233.75 65.75 233.75 65.25 234.2 64.95 234.6 64.55 235.5 64.3 236.3 64.1 237.4 63.95 238.5 63.8 239.85 63.8 241.25 63.8 242.35 63.95 243.5 64.1 244.35 64.3 245.2 64.55 245.6 64.95 246 65.25 246 65.75
M 218.85 61.6
Q 218.85 61.1 218.7 60.8 218.5 60.45 218.2 60.3 217.8 60.15 217.45 60.1 217 60 216.55 60 216.2 60 215.9 60.1 215.55 60.15 215.3 60.3 214.95 60.45 214.85 60.8 214.7 61.1 214.7 61.6
L 214.7 75.6
Q 214.7 76.05 214.85 76.35 214.95 76.65 215.3 76.8 215.55 76.95 215.9 77.05 216.2 77.1 216.55 77.1 217 77.1 217.45 77.05 217.8 76.95 218.2 76.8 218.5 76.65 218.7 76.35 218.85 76.05 218.85 75.6
L 218.85 61.6
M 201.2 79.75
Q 200.7 79.9 200.25 80.25 199.85 80.55 199.6 81.1 199.4 81.6 199.4 82.25
L 199.4 89.25
Q 199.4 89.9 199.6 90.35 199.85 90.85 200.25 91.15 200.7 91.4 201.2 91.55 201.7 91.7 202.35 91.7
L 215.6 91.7
Q 216.2 91.7 216.75 91.55 217.25 91.4 217.65 91.15 218.1 90.85 218.3 90.35 218.5 89.9 218.5 89.25
L 218.5 82.25
Q 218.5 80.9 217.65 80.25 217.25 79.9 216.75 79.75 216.2 79.6 215.6 79.6
L 202.35 79.6
Q 201.7 79.6 201.2 79.75
M 213.35 83.3
Q 213.5 83.3 213.65 83.35 213.8 83.4 214 83.5 214.15 83.65 214.25 83.8 214.35 84 214.35 84.25
L 214.35 87.25
Q 214.35 87.45 214.25 87.6 214.15 87.75 214 87.85 213.8 87.95 213.65 87.95 213.5 88 213.35 88
L 204.65 88
Q 204.45 88 204.25 87.95 204.1 87.95 203.95 87.85 203.75 87.75 203.65 87.6 203.6 87.45 203.6 87.25
L 203.6 84.25
Q 203.6 84 203.65 83.8 203.75 83.65 203.95 83.5 204.1 83.4 204.25 83.35 204.45 83.3 204.65 83.3
L 213.35 83.3
M 196.1 61.15
Q 195.15 61.15 194.55 61.5 194.2 61.65 194.05 62.05 193.85 62.45 193.85 63.1 193.85 63.4 193.9 63.6 193.95 63.8 194.1 63.95 194.25 64.35 194.5 64.5 194.65 64.6 194.85 64.65 195.05 64.75 195.3 64.75 195.5 64.8 195.7 64.85 195.9 64.85 196.1 64.85
L 203.6 64.85
Q 203.6 64.95 203.6 65.1 203.6 65.2 203.65 65.3 203.65 65.6 203.65 65.85
L 203.65 66.3
Q 203.65 66.6 203.65 66.85 203.6 66.95 203.6 67.05 203.6 67.2 203.6 67.3 203.45 67.3 203.3 67.3 203.15 67.3 203.05 67.3 202.9 67.3 202.7 67.3 202.5 67.3 202.25 67.3
L 197.35 67.3
Q 195.45 67.3 194.7 67.95 194.35 68.25 194.15 68.9 193.95 69.5 193.95 70.45
L 193.95 73.95
Q 193.95 74.55 194 75 194.1 75.5 194.2 75.8 194.4 76.5 194.7 76.85 194.95 77.05 195.25 77.15 195.5 77.3 195.85 77.35 196.1 77.4 196.5 77.4 196.85 77.45 197.35 77.45 198.05 77.45 198.85 77.4 199.6 77.4 200.45 77.35 201.25 77.3 202.05 77.25 202.9 77.2 203.7 77.15 204.55 77.15 205.35 77.1 206.15 77.05 206.9 76.95 207.65 76.9 208.3 76.8 208.95 76.7 209.55 76.6 209.9 76.6 210.2 76.45 210.45 76.35 210.65 76.1 210.85 75.9 210.9 75.6 211 75.3 211 74.9
L 211 74.85
Q 211 74.8 211 74.75 211 74.7 211 74.65 211 74.6 211 74.55 210.8 73.6 210.55 73.25 210.4 73.15 210.15 73.05 209.95 73 209.6 73 209.55 73 209.5 73 209.45 73 209.35 73 209.3 73 209.2 73 209.15 73.05 209.1 73.05 207.85 73.25 206.6 73.35 205.25 73.5 203.9 73.6 202.45 73.7 201.15 73.75 199.8 73.8 198.55 73.8 198.25 73.8 198.1 73.7 197.95 73.65 197.95 73.45 197.95 73.15 197.95 72.7
L 197.95 72.15
Q 197.95 72 197.95 71.85 197.95 71.7 197.95 71.55 197.95 71.45 198 71.3 198.05 71.2 198.15 71.05 198.3 71.05 198.5 71 198.65 71 198.85 71 199 71 199.25 71 199.45 71 199.7 71
L 204.65 71
Q 205.25 71 205.65 70.95 206.1 70.95 206.4 70.85 206.75 70.8 207 70.65 207.25 70.55 207.4 70.35 207.5 70.2 207.6 69.95 207.7 69.7 207.8 69.4 207.85 69.05 207.85 68.65 207.95 68.25 208 67.75
L 208 64.8
Q 208 64.2 207.95 63.75 207.95 63.25 207.85 62.9 207.8 62.55 207.7 62.25 207.6 62 207.45 61.8 207.25 61.6 206.95 61.5 206.7 61.35 206.35 61.25 206 61.2 205.5 61.2 205 61.15 204.4 61.15
L 196.1 61.15
M 187.8 83.9
Q 187.55 83.75 187.2 83.75
L 159.6 83.75
Q 159.2 83.75 158.9 83.9 158.65 84.05 158.45 84.3 158.3 84.55 158.2 84.9 158.15 85.2 158.15 85.6 158.15 85.95 158.2 86.3 158.3 86.6 158.45 86.9 158.65 87.15 158.9 87.3 159.2 87.45 159.6 87.45
L 187.2 87.45
Q 187.55 87.45 187.8 87.3 188.1 87.15 188.3 86.9 188.5 86.6 188.6 86.3 188.7 85.95 188.7 85.6 188.7 85.2 188.6 84.9 188.5 84.55 188.3 84.3 188.1 84.05 187.8 83.9
M 183.55 66.45
Q 183.5 65.8 183.3 65.2 183.15 64.65 182.85 64.15 182.5 63.7 182.05 63.45 181.6 63.2 181 63.2
L 164.1 63.2
Q 163.8 63.25 163.55 63.4 163.3 63.55 163.15 63.8 162.95 64.05 162.85 64.35 162.75 64.65 162.75 65 162.75 65.85 163.1 66.35 163.45 66.85 164.1 66.95
L 177.65 66.95
Q 177.95 66.95 178.2 66.95 178.45 66.95 178.7 66.95 178.9 66.95 179.15 67 179.4 67 179.7 67.05 179.7 68.45 179.65 69.9 179.6 71.35 179.5 72.9 179.2 75.95 178.75 79
L 178.75 79.15
Q 178.75 79.6 178.9 79.85 179.05 80.15 179.4 80.35 179.7 80.55 180.1 80.65 180.45 80.7 180.95 80.7 181.25 80.7 181.55 80.65 181.85 80.55 182.2 80.4 182.45 80.3 182.6 80.05 182.8 79.8 182.85 79.45 183 77.8 183.15 76.1 183.3 74.45 183.4 72.8 183.45 71.2 183.5 69.6 183.55 68 183.55 66.45
M 116.55 66.65
Q 116.2 67.45 115.95 68.45 115.65 69.45 115.5 70.55 115.4 71.7 115.4 72.9 115.4 74.2 115.5 75.3 115.65 76.4 115.95 77.35 116.2 78.35 116.55 79.2 116.95 80 117.4 80.7 117.95 81.35 118.6 81.9 119.25 82.4 119.95 82.75 120.7 83.1 121.5 83.3 122.3 83.5 123.2 83.5 124.15 83.5 125 83.3 125.85 83.1 126.6 82.75 127.3 82.4 127.9 81.9 128.45 81.35 128.9 80.7 129.5 80 129.9 79.2 130.3 78.35 130.6 77.35 130.75 76.75 130.9 76.1 131 75.45 131.1 74.7
L 137.05 74.7 137.05 91.15
Q 137.05 91.6 137.2 91.9 137.4 92.2 137.75 92.4 138.1 92.5 138.45 92.6 138.8 92.65 139.15 92.65 139.6 92.65 139.95 92.6 140.3 92.5 140.6 92.4 140.9 92.2 141 91.9 141.15 91.6 141.15 91.15
L 141.15 61.2
Q 141.15 60.8 141 60.45 140.9 60.15 140.6 60 140.3 59.85 139.95 59.8 139.6 59.7 139.15 59.7 138.8 59.7 138.45 59.8 138.1 59.85 137.75 60 137.4 60.15 137.2 60.45 137.05 60.8 137.05 61.2
L 137.05 71.05 131.05 71.05
Q 131 70.35 130.9 69.7 130.75 69.05 130.6 68.45 130.3 67.45 129.9 66.65 129.5 65.8 128.9 65.1 128.45 64.45 127.9 63.9 127.3 63.4 126.6 63 125.85 62.65 125 62.45 124.15 62.3 123.2 62.3 122.3 62.3 121.5 62.45 120.7 62.65 119.95 63 119.25 63.4 118.6 63.9 117.95 64.45 117.4 65.1 116.95 65.8 116.55 66.65
M 119.4 70
Q 119.65 68.75 120.25 67.8 120.8 66.9 121.55 66.4 122.3 65.95 123.2 65.95 124.2 65.95 124.95 66.4 125.7 66.9 126.25 67.8 126.75 68.75 127 70 127.25 71.3 127.25 72.9 127.25 74.55 127 75.85 126.75 77.1 126.25 78.05 125.7 79 124.95 79.4 124.2 79.9 123.2 79.9 122.3 79.9 121.55 79.4 120.8 79 120.25 78.05 119.65 77.1 119.4 75.85 119.1 74.55 119.1 72.9 119.1 71.3 119.4 70
M 89.4 62.3
Q 88.45 62.3 87.6 62.45 86.8 62.65 86.05 63 85.3 63.4 84.65 63.9 84 64.45 83.5 65.1 82.9 65.8 82.5 66.65 82.05 67.45 81.8 68.45 81.45 69.45 81.35 70.55 81.2 71.7 81.2 72.9 81.2 74.2 81.35 75.3 81.45 76.4 81.8 77.35 82.05 78.35 82.5 79.2 82.9 80 83.5 80.7 84 81.35 84.65 81.9 85.3 82.4 86.05 82.75 86.8 83.1 87.6 83.3 88.45 83.5 89.4 83.5 91.1 83.5 92.65 82.75 93.35 82.4 94.05 81.9 94.7 81.35 95.25 80.7 95.75 80 96.2 79.2 96.6 78.35 96.85 77.35 97.05 76.4 97.2 75.3 97.35 74.2 97.35 72.9 97.35 71.7 97.2 70.55 97.05 69.45 96.85 68.45 96.6 67.45 96.2 66.65 95.75 65.8 95.25 65.1 94.1 63.75 92.65 63 91.1 62.3 89.4 62.3
M 86.3 67.8
Q 86.85 66.9 87.65 66.4 88.4 65.95 89.4 65.95 90.3 65.95 91.05 66.4 91.8 66.9 92.4 67.8 93 68.75 93.3 70 93.55 71.3 93.55 72.9 93.55 74.55 93.3 75.85 93 77.1 92.4 78.05 91.8 79 91.05 79.4 90.3 79.9 89.4 79.9 88.4 79.9 87.65 79.4 86.85 79 86.3 78.05 85.7 77.1 85.45 75.85 85.15 74.55 85.15 72.9 85.15 71.3 85.45 70 85.7 68.75 86.3 67.8
M 103.8 60.65
Q 103.65 60.95 103.65 61.4
L 103.65 91.1
Q 103.65 91.55 103.8 91.9 103.9 92.2 104.2 92.4 104.45 92.55 104.85 92.6 105.2 92.7 105.65 92.7 106.05 92.7 106.4 92.6 106.75 92.55 107.05 92.4 107.3 92.2 107.45 91.9 107.6 91.55 107.6 91.1
L 107.6 61.4
Q 107.6 60.95 107.45 60.65 107.3 60.35 107.05 60.15 106.75 60 106.4 59.9 106.05 59.85 105.65 59.85 105.2 59.85 104.85 59.9 104.45 60 104.2 60.15 103.9 60.35 103.8 60.65
M 60.35 79.45
Q 60.15 79.35 59.9 79.25 59.6 79.15 59.3 79.1 58.55 79 58.05 79
L 43.7 79
Q 43.25 79 42.95 79.1 42.7 79.25 42.55 79.45 42.35 79.75 42.25 80.05 42.15 80.35 42.2 80.7 42.15 81.1 42.25 81.35 42.35 81.65 42.55 81.85 42.85 82.25 43.7 82.25
L 57.15 82.25
Q 57.2 82.4 57.2 82.55 57.25 82.7 57.25 82.95
L 57.25 83.25
Q 57.25 83.5 57.2 83.65 57.2 83.85 57.15 83.9
L 45.6 83.9
Q 45.3 83.9 45 83.95 44.7 83.95 44.45 84 44.1 84.1 43.85 84.2 43.55 84.3 43.35 84.45 43.05 84.6 42.8 84.8 42.65 85 42.55 85.25 42.4 85.55 42.35 85.85 42.3 86.1 42.3 86.45
L 42.3 90.15
Q 42.3 90.5 42.35 90.75 42.4 91.05 42.55 91.25 42.65 91.45 42.8 91.65 43.05 91.8 43.35 91.95 43.55 92.05 43.85 92.1 44.1 92.2 44.45 92.25 44.7 92.3 45 92.35 45.3 92.35 45.6 92.35
L 60.25 92.35
Q 61 92.35 61.4 91.95 61.75 91.55 61.75 90.75 61.75 89.9 61.4 89.45 61 89.05 60.25 89.05
L 46.55 89.05
Q 46.45 88.9 46.4 88.7 46.4 88.55 46.4 88.35
L 46.4 87.9
Q 46.4 87.7 46.4 87.5 46.45 87.3 46.55 87.1
L 58.4 87.1
Q 59 87.1 59.55 87 60.1 86.95 60.55 86.7 61 86.55 61.25 86.15 61.45 85.75 61.45 85.1
L 61.45 81.45
Q 61.45 81.05 61.4 80.75 61.3 80.45 61.2 80.2 60.85 79.8 60.35 79.45
M 61.35 68.15
Q 61.7 67.65 61.9 67.05 62.05 66.45 62.05 65.75 62.05 65.05 61.9 64.45 61.7 63.85 61.35 63.3 61 62.8 60.5 62.35 60 61.9 59.4 61.55 58.7 61.2 57.9 60.95 57.1 60.7 56.15 60.45 55.2 60.3 54.1 60.2 52.95 60.1 51.8 60.1 50.65 60.1 49.6 60.2 48.55 60.3 47.6 60.45 46.6 60.7 45.8 60.95 44.95 61.2 44.3 61.55 43.6 61.9 43.1 62.35 42.6 62.8 42.25 63.3 41.5 64.4 41.5 65.75 41.5 66.45 41.7 67.05 41.9 67.65 42.25 68.15 42.6 68.65 43.15 69.1 43.7 69.55 44.35 69.85 45.05 70.25 45.9 70.5 46.7 70.8 47.7 70.95 48.7 71.15 49.75 71.3 50.8 71.4 51.9 71.45 53.05 71.4 54.15 71.25 55.2 71.15 56.2 70.95 57.15 70.75 57.95 70.45 58.75 70.2 59.45 69.85 60 69.5 60.5 69.05 61 68.65 61.35 68.15
M 49.35 67.55
Q 48.25 67.4 47.45 67.15 46.55 66.9 46.15 66.55 45.7 66.2 45.7 65.75 45.7 65.25 46.15 64.95 46.55 64.55 47.45 64.3 48.25 64.1 49.35 63.95 50.45 63.8 51.8 63.8 53.2 63.8 54.3 63.95 55.45 64.1 56.3 64.3 57.15 64.55 57.55 64.95 57.95 65.25 57.95 65.75 57.95 66.2 57.55 66.55 57.15 66.9 56.3 67.15 55.45 67.4 54.3 67.55 53.2 67.65 51.8 67.65 50.45 67.65 49.35 67.55
M 37.7 73.45
Q 37.2 73.45 36.9 73.6 36.6 73.7 36.5 73.95 36.4 74.2 36.35 74.55 36.25 74.9 36.25 75.25 36.25 75.65 36.35 75.9 36.4 76.25 36.5 76.45 36.6 76.7 36.9 76.85 37.2 76.95 37.7 76.95
L 66 76.95
Q 66.55 76.95 66.85 76.85 67.1 76.7 67.2 76.45 67.25 76.25 67.3 75.9 67.35 75.65 67.35 75.25 67.35 74.9 67.3 74.55 67.25 74.2 67.2 73.95 67.1 73.7 66.85 73.6 66.55 73.45 66 73.45
L 37.7 73.45
M 14.75 80.4
Q 14.65 80.3 14.5 80.15 14.25 80.1 14.05 80.05 13.9 79.95 13.7 79.9 13.55 79.85 13.4 79.8 13.2 79.8 13.05 79.8 12.65 79.8 12.3 79.9 11.95 80 11.6 80.15 11.3 80.4 11.15 80.65 10.95 80.95 10.95 81.3
L 10.95 88.85
Q 10.95 89.55 11.2 90.1 11.45 90.65 12 91 12.45 91.35 13 91.55 13.6 91.7 14.3 91.7
L 28.8 91.7
Q 29.2 91.7 29.55 91.55 29.85 91.4 30.05 91.15 30.25 90.85 30.35 90.55 30.45 90.2 30.45 89.85 30.45 89.45 30.35 89.15 30.25 88.8 30.05 88.55 29.65 88.05 28.8 88.05
L 17.15 88.05
Q 16.7 88.05 16.2 88 15.7 87.95 15.15 87.85
L 15.15 81.3
Q 15.15 81.15 15.1 81 15.05 80.8 15 80.65 14.9 80.5 14.75 80.4
M 21.35 72.75
Q 21.25 72.75 21.1 72.6 21 72.5 20.85 72.25 20.3 71.95 19.75 71.55 19.3 71.2 18.8 70.7 18.3 70.3 17.85 69.8 17.4 69.3 16.95 68.75 16.2 67.7 15.7 66.45 15.4 65.85 15.25 65.25 15.05 64.6 15.05 64
L 15.05 63.95
Q 15.05 63.5 15.05 63.1 15 62.75 15 62.4 14.95 62.15 14.85 61.9 14.8 61.65 14.7 61.5 14.6 61.3 14.45 61.2 14.3 61.05 14.1 61 13.85 60.95 13.6 60.9 13.3 60.85 12.95 60.85 12.75 60.85 12.55 60.85 12.35 60.9 12.2 60.9 11.9 61 11.6 61.1 11.4 61.2 11.25 61.35 11.05 61.45 10.95 61.6 10.85 61.75 10.8 61.9 10.75 62.1 10.75 62.3
L 10.75 63.9
Q 10.75 65.1 10.3 66.35 10.1 66.95 9.85 67.6 9.6 68.2 9.3 68.8 8.9 69.4 8.5 69.95 8.05 70.5 7.55 71 7 71.5 6.45 71.95 5.85 72.4 5.25 72.75
L 5.05 72.8
Q 4.9 72.95 4.8 73.05 4.7 73.15 4.65 73.25 4.55 73.4 4.5 73.55 4.45 73.65 4.45 73.8 4.45 74 4.5 74.25 4.55 74.45 4.65 74.65 4.85 75.1 5.1 75.4 5.25 75.55 5.4 75.7 5.6 75.8 5.85 75.9 6.25 76.1 6.5 76.1 6.55 76.1 6.7 76.1 6.8 76.1 7 76.05 7.15 76.05 7.25 76 7.4 75.95 7.45 75.85
L 7.5 75.85
Q 8.35 75.4 9.1 74.7 9.85 74.05 10.6 73.25 11.25 72.4 11.9 71.6 12.5 70.75 13 69.9 13.5 70.75 14.15 71.55 14.75 72.35 15.5 73.1 16.25 73.9 17.15 74.5 18.05 75.15 19.1 75.7 19.25 75.75 19.35 75.75 19.4 75.75 19.5 75.75 19.65 75.75 19.85 75.7 20.05 75.65 20.25 75.5 20.45 75.4 20.65 75.25 20.8 75.1 20.95 74.9 21.05 74.75 21.15 74.55 21.25 74.35 21.35 74.1 21.45 73.9 21.5 73.7 21.55 73.5 21.55 73.3 21.55 73.1 21.5 72.95 21.45 72.85 21.35 72.75
M 30.55 61.2
Q 30.55 60.8 30.4 60.45 30.25 60.15 30 60 29.7 59.85 29.35 59.8 29 59.7 28.55 59.7 28.2 59.7 27.85 59.8 27.5 59.85 27.15 60 26.8 60.15 26.65 60.45 26.45 60.8 26.45 61.2
L 26.45 65.75 22.25 65.75
Q 21.8 65.75 21.5 65.85 21.2 66 21.05 66.25 20.9 66.55 20.85 66.9 20.75 67.25 20.75 67.6 20.75 68.35 21.05 68.85 21.2 69.1 21.5 69.25 21.8 69.4 22.25 69.4
L 26.45 69.4 26.45 80.2
Q 26.45 80.65 26.65 80.95 26.8 81.25 27.15 81.4 27.5 81.55 27.85 81.65 28.2 81.7 28.55 81.7 29 81.7 29.35 81.65 29.7 81.55 30 81.4 30.25 81.25 30.4 80.95 30.55 80.65 30.55 80.2
L 30.55 61.2
M 956 8.35
Q 955.9 8.1 955.75 7.85 955.55 7.6 955.35 7.35 955.1 7.15 954.85 7 954.6 6.85 954.35 6.7 954.1 6.6 953.8 6.55 953.45 6.45 953.15 6.45
L 937.9 6.45
Q 937.45 6.45 937.1 6.6 936.75 6.7 936.5 7 936.25 7.3 936.1 7.6 936 7.95 936 8.3 936 9.05 936.5 9.6 936.75 9.85 937.1 9.95 937.45 10.1 937.9 10.1
L 951.85 10.1
Q 951.95 10.45 952 10.8 952.05 11.15 952.05 11.5
L 952.05 12.05
Q 952.05 12.45 952 12.75 951.95 13.15 951.85 13.45
L 939.3 13.45
Q 938.65 13.45 938.1 13.7 937.55 13.9 937.05 14.3 936.55 14.7 936.35 15.25 936.1 15.8 936.1 16.5
L 936.1 21.2
Q 936.1 21.85 936.35 22.35 936.55 22.85 937.1 23.25 937.6 23.65 938.1 23.85 938.65 24.05 939.3 24.05
L 944.3 24.05
Q 944.2 24.2 944.15 24.45 944.15 24.65 944.15 24.85
L 944.15 28.4 932.6 28.4
Q 932.15 28.4 931.85 28.55 931.6 28.65 931.4 28.9 931.25 29.15 931.15 29.5 931.1 29.85 931.1 30.25 931.1 30.6 931.15 30.9 931.25 31.25 931.4 31.5 931.6 31.8 931.85 31.9 932.15 32.05 932.6 32.05
L 960.2 32.05
Q 960.5 32.05 960.8 31.9 961.1 31.8 961.3 31.5 961.75 30.95 961.75 30.25 961.75 29.85 961.65 29.5 961.55 29.15 961.3 28.9 961.1 28.65 960.8 28.55 960.5 28.4 960.2 28.4
L 948.55 28.4 948.55 24.85
Q 948.55 24.35 948.35 24.05
L 955 24.05
Q 955.45 24.05 955.8 23.95 956.15 23.85 956.45 23.6 956.65 23.4 956.8 23.1 956.9 22.8 956.9 22.4 956.9 22 956.8 21.65 956.65 21.3 956.45 21.05 956.15 20.8 955.8 20.7 955.45 20.55 955 20.55
L 940.35 20.55
Q 940.3 20.45 940.3 20.25 940.25 20.1 940.25 19.9 940.25 19.75 940.25 19.55 940.2 19.35 940.2 19.15
L 940.2 18.45
Q 940.2 18.3 940.25 18.1 940.25 17.9 940.25 17.7 940.25 17.55 940.3 17.35 940.3 17.2 940.35 17
L 953.15 17
Q 953.8 17 954.35 16.8 954.9 16.6 955.35 16.2 955.75 15.85 955.95 15.3 956.15 14.75 956.2 14.1
L 956.2 9.6
Q 956.2 8.95 956 8.35
M 912.05 9.45
Q 912.15 9.1 912.15 8.6 912.15 8 912.05 7.65 911.95 7.25 911.75 7.1 911.25 6.75 910.45 6.75
L 905.15 6.75
Q 904.45 6.75 903.9 6.8 903.35 6.8 903 6.9 902.55 6.95 902.2 7.05 901.85 7.2 901.6 7.35 901.25 7.6 901.05 7.85 900.85 8.1 900.75 8.5 900.65 8.9 900.6 9.4 900.55 9.95 900.55 10.55
L 900.55 23.45
Q 900.55 24.8 900.75 25.45 900.85 25.85 901.05 26.1 901.25 26.35 901.6 26.5 902.15 26.9 903 26.95 903.8 27.05 905.2 27.05 905.8 27.05 906.35 27 906.9 26.95 907.35 26.9 907.8 26.85 908.25 26.8 908.7 26.75 909.15 26.7 909.5 26.65 909.9 26.6 910.3 26.55 910.7 26.45 911.55 26.35 912.7 26.15 913.15 26.1 913.45 25.95 913.75 25.85 913.9 25.65 914.05 25.5 914.1 25.3 914.15 25.1 914.15 24.75 914.15 24.1 914.1 23.65 914 23.2 913.85 22.9 913.65 22.7 913.4 22.55 913.15 22.45 912.85 22.45 912.7 22.45 912.55 22.45 912.4 22.5 912.25 22.55 911.6 22.65 911.1 22.75 910.6 22.8 910.2 22.85 909.75 22.95 909.35 23 908.9 23.1 908.45 23.15 908.1 23.2 907.75 23.25 907.35 23.25 906.9 23.3 906.5 23.35 905.95 23.4 905.4 23.4 904.8 23.4 904.75 23.45 904.7 23.45
L 904.65 23.45
Q 904.55 23.45 904.45 23.05 904.4 22.6 904.4 21.75 904.4 20.05 904.4 16.6 904.4 16 904.4 15.35 904.45 14.7 904.5 14 904.5 13.3 904.55 12.5 904.55 11.7 904.55 10.85 904.9 10.65 905.3 10.55 905.75 10.45 906.25 10.45
L 910.45 10.45
Q 911.25 10.45 911.75 10.05 911.95 9.85 912.05 9.45
M 924.2 4
Q 923.7 4 923.35 4.1 922.95 4.15 922.7 4.3 922.45 4.45 922.3 4.75 922.15 5.05 922.15 5.55
L 922.15 15.9 919.45 15.9 919.45 6.15
Q 919.45 5.7 919.3 5.4 919.1 5.1 918.8 4.95 918.45 4.85 918.05 4.75 917.65 4.7 917.2 4.7 916.85 4.7 916.55 4.75 916.25 4.85 916 4.95 915.7 5.1 915.55 5.4 915.45 5.7 915.45 6.15
L 915.45 34.35
Q 915.45 34.8 915.6 35.1 915.75 35.4 916.05 35.55 916.4 35.7 916.7 35.75 917 35.85 917.4 35.85 917.8 35.85 918.2 35.75 918.55 35.7 918.85 35.55 919.15 35.4 919.3 35.1 919.45 34.8 919.45 34.35
L 919.45 19.65 922.15 19.65 922.15 35.4
Q 922.15 35.85 922.3 36.1 922.45 36.4 922.7 36.55 922.95 36.7 923.35 36.75 923.7 36.85 924.2 36.85 924.6 36.85 924.9 36.75 925.25 36.7 925.55 36.55 925.8 36.4 925.95 36.1 926.1 35.85 926.1 35.4
L 926.1 5.55
Q 926.1 5.05 925.95 4.75 925.8 4.45 925.55 4.3 925.25 4.15 924.9 4.1 924.6 4 924.2 4
M 874.95 5.9
Q 874.6 5.9 874.2 6 873.85 6.1 873.5 6.25 873.15 6.45 872.95 6.7 872.75 7 872.75 7.35
L 872.75 11.55
Q 872.75 15.05 871.1 17.95 870.2 19.4 869.05 20.75 867.8 22.05 866.3 23.25 866.2 23.25 866.15 23.3 866.1 23.35 866.05 23.45 866 23.55 865.95 23.65 865.9 23.75 865.9 23.85 865.8 24 865.8 24.1 865.75 24.25 865.75 24.3 865.7 24.45 865.7 24.5 865.65 24.6 865.65 24.65 865.65 25.4 866.2 26 866.45 26.3 866.8 26.45 867.15 26.6 867.65 26.6 867.85 26.6 868.15 26.5 868.45 26.45 868.75 26.25
L 868.8 26.25 868.8 26.2
Q 869.7255859375 25.42578125 870.6 24.6 871.5 23.75 872.25 22.8 873.05 21.85 873.75 20.85 874.4 19.85 874.9 18.75 875.45 19.8 876.1 20.75 876.75 21.7 877.55 22.6 878.25 23.5 879.15 24.35 880 25.15 880.9 25.9 881.15 26.15 881.55 26.2 881.9 26.3 882.2 26.3 882.6 26.3 882.95 26.15 883.3 26 883.6 25.65 883.85 25.35 884 25 884.1 24.7 884.1 24.3 884.1 24.2 884.05 24.05 884 23.85 883.95 23.7 883.85 23.5 883.7 23.35 883.6 23.2 883.5 23.05 880.5 20.8 878.75 17.9 877.85 16.5 877.4 14.95 876.95 13.45 876.95 11.8
L 876.95 7.35
Q 876.95 7.05 876.85 6.75 876.7 6.5 876.5 6.3 876.2 6.1 875.85 6 875.45 5.9 874.95 5.9
M 891.2 36.55
Q 891.5 36.35 891.6 36.05 891.75 35.75 891.75 35.3
L 891.75 5.35
Q 891.75 4.95 891.6 4.6 891.5 4.3 891.2 4.15 890.9 4 890.55 3.95 890.2 3.85 889.75 3.85 889.4 3.85 889.05 3.95 888.7 4 888.35 4.15 888 4.3 887.8 4.6 887.65 4.95 887.65 5.35
L 887.65 14.1 883.1 14.1
Q 882.65 14.1 882.3 14.25 882 14.4 881.75 14.65 881.5 14.95 881.4 15.3 881.3 15.65 881.3 16 881.3 16.4 881.4 16.75 881.5 17.05 881.75 17.3 882 17.55 882.3 17.7 882.65 17.8 883.1 17.8
L 887.65 17.8 887.65 35.3
Q 887.65 35.75 887.8 36.05 888 36.35 888.35 36.55 888.7 36.65 889.05 36.75 889.4 36.8 889.75 36.8 890.2 36.8 890.55 36.75 890.9 36.65 891.2 36.55
M 855.2 35.85
Q 855.6 35.85 855.95 35.75 856.25 35.6 856.4 35.35 856.55 35.05 856.65 34.75 856.7 34.4 856.7 34.05 856.7 33.65 856.65 33.35 856.55 33 856.4 32.7 856.25 32.45 855.95 32.3 855.6 32.15 855.2 32.15
L 843.15 32.15
Q 842.95 32.15 842.75 32.15 842.55 32.15 842.3 32.1 842.05 32.1 841.85 32.05 841.65 32.05 841.5 32
L 841.5 26.85
Q 841.5 26.5 841.25 26.2 841.15 26.05 841 25.95 840.85 25.85 840.65 25.7 840.5 25.65 840.3 25.6 840.15 25.55 840 25.45 839.85 25.4 839.65 25.35 839.45 25.35 839.25 25.35 838.9 25.35 838.6 25.45 838.3 25.55 838 25.7 837.6 25.95 837.45 26.2 837.3 26.5 837.3 26.85
L 837.3 33.05
Q 837.3 33.7 837.5 34.25 837.7 34.75 838.2 35.15 838.65 35.5 839.2 35.7 839.7 35.85 840.35 35.85
L 855.2 35.85
M 861.05 22.2
Q 861.35 22.05 861.6 21.8 861.85 21.55 862 21.25 862.1 20.9 862.1 20.55 862.1 20.2 862 19.85 861.85 19.5 861.6 19.2 861.35 18.9 861.05 18.75 860.75 18.6 860.4 18.6
L 832.8 18.6
Q 832.4 18.6 832.05 18.75 831.75 18.9 831.5 19.2 831.25 19.5 831.15 19.85 831 20.2 831 20.55 831 20.9 831.15 21.25 831.25 21.55 831.5 21.8 831.75 22.05 832.05 22.2 832.4 22.35 832.8 22.35
L 845.4 22.35 845.4 26.8
Q 845.4 27.2 845.55 27.55 845.7 27.85 846 28.15 846.25 28.4 846.65 28.55 847 28.7 847.45 28.7 847.85 28.7 848.2 28.55 848.6 28.4 848.9 28.15 849.2 27.85 849.35 27.55 849.5 27.2 849.5 26.8
L 849.5 22.35 860.4 22.35
Q 860.75 22.35 861.05 22.2
M 856.7 12.15
Q 856.15 11.95 855.5 11.7 854.85 11.45 854.15 11.1 853.4 10.85 852.8 10.5 852.15 10.15 851.55 9.7 850.95 9.35 850.45 8.9 849.95 8.45 849.6 7.95 849.15 7.5 849 7 848.8 6.5 848.8 5.9
L 848.8 4.9
Q 848.8 4.75 848.75 4.55 848.7 4.4 848.65 4.25 848.5 4.1 848.35 4 848.2 3.9 848 3.8 847.8 3.75 847.65 3.7 847.5 3.6 847.35 3.55 847.2 3.5 846.95 3.45 846.75 3.4 846.55 3.4 846.25 3.4 845.95 3.55 845.75 3.6 845.55 3.7 845.35 3.75 845.15 3.8 844.95 3.9 844.85 4 844.7 4.1 844.65 4.25 844.55 4.4 844.5 4.55 844.45 4.75 844.45 4.9
L 844.45 6.1
Q 844.35 6.7 844.15 7.2 843.95 7.7 843.6 8.1 843.2 8.6 842.7 9 842.25 9.4 841.65 9.7 841.05 10.1 840.5 10.4 839.9 10.75 839.3 11 838.65 11.35 838.05 11.6 837.45 11.85 836.9 12.1 836.5 12.25 836.2 12.45 835.9 12.6 835.8 12.85 835.65 13.1 835.6 13.35 835.5 13.65 835.55 13.95 835.5 14.35 835.6 14.65 835.7 14.95 835.9 15.2 836.05 15.5 836.35 15.65 836.65 15.8 837 15.8 837.1 15.8 837.2 15.8 837.25 15.8 837.3 15.75 837.35 15.75 837.4 15.7 838.05 15.6 838.75 15.4 839.4 15.2 840.05 14.95 841.3 14.4 842.45 13.7 843 13.35 843.5 12.95 844.05 12.55 844.65 12.1 845.15 11.7 845.6 11.25 846.1 10.8 846.55 10.35 847.4 11.25 848.45 12.05 849.5 12.9 850.7 13.65 851.85 14.4 853.15 14.95 854.45 15.45 855.85 15.7
L 855.8 15.7
Q 855.85 15.75 855.95 15.75 856 15.75 856.05 15.75
L 856.1 15.75
Q 856.15 15.8 856.2 15.8 856.7 15.8 857.25 15.25 857.55 15 857.65 14.65 857.8 14.3 857.8 13.75 857.8 13.5 857.75 13.25 857.7 13 857.6 12.8 857.5 12.65 857.3 12.5 857.05 12.35 856.7 12.15
M 803.6 24.15
Q 802.65 24.25 801.75 24.35 800.9 24.45 800.05 24.55 799.2 24.65 798.35 24.7 797.5 24.75 796.65 24.8 795.7 24.9 794.8 24.95 793.9 24.95 793.05 24.95 792.2 25.05 791.25 25.05 790.35 25.05 789.4 25.05
L 785.75 25.05
Q 785.35 25.1 785.1 25.25 784.85 25.4 784.7 25.65 784.4 26.15 784.4 27 784.4 27.65 784.7 28.15 784.85 28.45 785.1 28.6 785.35 28.75 785.75 28.8
L 789 28.8
Q 790.1 28.8 791.1 28.8 792.1 28.75 793 28.7 793.9 28.7 794.85 28.7 795.8 28.65 796.7 28.6 798.45 28.5 800.2 28.25 801 28.2 801.9 28.1 802.75 27.95 803.7 27.8 804.2 27.75 804.55 27.55 804.95 27.35 805.2 27 805.4 26.7 805.5 26.4 805.65 26.05 805.65 25.65
L 805.7 25.7
Q 805.65 25.35 805.45 25.05 805.3 24.7 805.05 24.45 804.75 24.15 804.4 24.1 804.05 24.05 803.6 24.15
M 801.4 9.55
Q 801 8.95 800.4 8.45 799.95 7.95 799.35 7.6 798.75 7.2 798.05 6.95 796.6 6.45 794.7 6.45 792.9 6.45 791.5 6.95 790.1 7.4 789.05 8.45 788 9.4 787.45 10.8 786.9 12.2 786.9 14 786.9 15.75 787.45 17.1 788 18.5 789.05 19.45 790.1 20.45 791.5 20.95 792.9 21.45 794.7 21.45 796.6 21.45 798.05 20.9 798.75 20.7 799.35 20.3 799.95 19.95 800.4 19.45 801 19 801.4 18.4 801.8 17.8 802.1 17.1 802.35 16.45 802.5 15.65 802.65 14.85 802.65 14 802.65 13.1 802.5 12.3 802.35 11.5 802.1 10.8 801.8 10.1 801.4 9.55
M 793.05 10.15
Q 793.8 9.85 794.75 9.85 795.65 9.85 796.4 10.15 797.15 10.4 797.65 10.95 798.15 11.5 798.4 12.25 798.7 13 798.7 14 798.7 14.95 798.4 15.7 798.15 16.4 797.65 16.9 797.15 17.45 796.4 17.75 795.65 18 794.75 18 793.8 18 793.05 17.75 792.35 17.45 791.85 16.9 791.35 16.4 791.1 15.7 790.85 14.95 790.85 14 790.85 13 791.1 12.25 791.35 11.5 791.85 10.95 792.35 10.4 793.05 10.15
M 810.35 4.1
Q 810.2 4.05 810.05 4 809.9 4 809.7 4 809.5 4 809.25 4 808.9 4 808.6 4.05 808.25 4.1 808 4.25 807.7 4.35 807.55 4.65 807.45 5 807.45 5.45
L 807.45 35.15
Q 807.45 35.6 807.55 35.95 807.7 36.3 808.05 36.5 808.3 36.65 808.6 36.75 808.9 36.85 809.3 36.85 809.75 36.85 810.1 36.75 810.45 36.65 810.8 36.5 811.1 36.3 811.2 35.95 811.4 35.6 811.4 35.15
L 811.4 5.45
Q 811.4 5.2 811.35 5.05 811.3 4.85 811.15 4.7 811.05 4.55 810.9 4.45 810.8 4.35 810.65 4.25 810.5 4.2 810.35 4.1
M 773.8 6.4
Q 773.05 6.2 772.2 6.2
L 772.15 6.2
Q 771.3 6.2 770.55 6.35 769.8 6.55 769.15 6.85 768.4 7.2 767.8 7.65 767.15 8.05 766.65 8.6 765.7 9.65 765.15 10.9 764.9 11.55 764.75 12.2 764.6 12.8 764.6 13.45 764.6 13.8 764.75 14.1 764.9 14.4 765.15 14.6 765.45 14.8 765.75 14.95 766 15.05 766.35 15.05 766.8 15.05 767.2 14.85 767.65 14.7 768 14.4 768.3 14.05 768.5 13.65 768.65 13.25 768.65 12.75 768.65 12.6 768.75 12.4 768.8 12.15 769 11.9 769.1 11.65 769.25 11.4 769.45 11.2 769.65 11 769.95 10.8 770.25 10.65 770.55 10.45 770.9 10.3 771.25 10.2 771.55 10.15 771.85 10.05 772.2 10.05 772.7 10.05 773.1 10.15 773.55 10.25 773.9 10.4 774.25 10.55 774.55 10.8 774.85 11 775.1 11.25 775.3 11.5 775.45 11.85 775.65 12.15 775.8 12.45 775.95 12.8 776.05 13.1 776.1 13.45 776.1 13.75 776.1 14.05 776.05 14.35 776 14.65 775.85 15 775.7 15.3 775.5 15.6 775.35 15.9 775.2 16.2 775 16.55 774.85 16.8 774.65 17.1 774.35 17.3 774.1 17.55 773.85 17.75 773.6 17.95 773.45 18.05 773 18.4 772.55 18.75 772.05 19.1 771.6 19.45 771.15 19.8 770.7 20.15 770.25 20.5 769.8 20.8 769.15 21.35 768.65 21.8 768.1 22.25 767.6 22.65 767.15 23.1 766.8 23.55 766.45 24 766.2 24.45 765.8 24.85 765.55 25.35 765.35 25.8 765.15 26.25 765 26.8 764.9 27.4 764.75 27.95 764.7 28.6 764.7 28.65 764.7 28.75 764.65 28.85 764.65 28.95 764.6 29.05 764.6 29.2 764.55 29.3 764.6 29.35
L 764.6 29.5
Q 764.55 29.6 764.55 29.75 764.55 29.85 764.55 29.95 764.55 30.5 764.7 30.85 764.85 31.2 765.25 31.4 765.55 31.65 765.95 31.75 766.35 31.9 766.8 31.9
L 778.4 31.9
Q 780.5 31.9 780.5 30 780.5 29.5 780.35 29.15 780.2 28.8 779.95 28.6 779.65 28.45 779.2 28.35 778.75 28.25 778.2 28.25
L 769.2 28.25
Q 769.2 27.75 769.35 27.2 769.5 26.7 769.85 26.2 770.15 25.75 770.6 25.3 771 24.85 771.5 24.45 771.95 24.1 772.4 23.75 772.9 23.35 773.45 23.05 773.95 22.7 774.4 22.4 774.85 22.1 775.15 21.85 775.65 21.5 776.15 21.15 776.65 20.75 777.1 20.35 777.5 19.9 777.9 19.45 778.25 19 778.55 18.5 778.9 18.05 779.2 17.5 779.45 17 779.6 16.4 779.75 15.8 779.85 15.1 779.95 14.45 779.95 13.7 779.95 13 779.8 12.35 779.65 11.65 779.4 11 779.15 10.3 778.75 9.7 778.35 9.1 777.9 8.55 777.3 8.05 776.65 7.6 776 7.2 775.3 6.85 774.6 6.55 773.8 6.4
M 754.1 7.1
Q 753.3 6.6 752.4 6.35 751.5 6.05 750.5 6.05 749.4 6.1 748.45 6.35 747.5 6.6 746.7 7.05 745.9 7.55 745.2 8.2 744.5 8.9 743.95 9.7 743.4 10.55 743.05 11.6 742.65 12.65 742.35 13.85 742.05 15.05 741.95 16.4 741.8 17.75 741.8 19.2 741.8 20.6 741.9 21.95 742.05 23.25 742.3 24.45 742.55 25.6 742.9 26.65 743.35 27.75 743.9 28.6 744.5 29.5 745.2 30.15 745.9 30.85 746.65 31.3 747.45 31.8 748.4 32.05 749.35 32.3 750.5 32.3 751.5 32.3 752.4 32.05 753.3 31.8 754.15 31.3 754.95 30.85 755.65 30.15 756.35 29.5 756.9 28.6 757.5 27.75 757.95 26.65 758.4 25.6 758.7 24.45 758.95 23.25 759.1 21.95 759.25 20.6 759.25 19.2 759.25 17.8 759.1 16.5 758.95 15.15 758.7 13.95 758.35 12.75 757.9 11.7 757.45 10.7 756.85 9.8 756.25 8.95 755.6 8.3 754.9 7.6 754.1 7.1
M 749.45 10.3
Q 749.95 10.1 750.5 10.1 750.95 10.1 751.45 10.3 751.9 10.45 752.4 10.8 752.8 11.15 753.2 11.65 753.55 12.15 753.85 12.75 754.05 13.4 754.25 14.1 754.45 14.8 754.65 15.65 754.8 16.5 754.9 17.35 755 18.25 755 19.2 755 20.15 754.9 21.05 754.85 21.95 754.7 22.75 754.3 24.45 753.85 25.65 753.6 26.3 753.2 26.8 752.85 27.3 752.4 27.65 751.95 28.05 751.45 28.2 751 28.4 750.5 28.4 749.9 28.4 749.4 28.2 748.9 28.05 748.5 27.65 747.65 26.9 747.05 25.65 746.75 25 746.6 24.25 746.4 23.5 746.3 22.65 746.15 21.85 746.05 21 746 20.1 746 19.2 746 18.25 746.05 17.35 746.15 16.45 746.3 15.6 746.4 14.8 746.6 14.05 746.8 13.3 747.05 12.7 747.35 12.1 747.75 11.6 748.15 11.15 748.55 10.75 748.95 10.45 749.45 10.3
M 733.65 30.1
Q 733.3 30 732.8 30
L 731.45 30
Q 730.9 30 730.55 30.1 730.15 30.2 729.95 30.4 729.75 30.6 729.6 30.95 729.5 31.35 729.5 31.85
L 729.5 33.35
Q 729.5 33.85 729.6 34.2 729.75 34.55 729.95 34.75 730.15 34.95 730.55 35 730.9 35.15 731.45 35.15
L 732.9 35.15
Q 733.8 35.15 734.3 34.7 734.75 34.25 734.75 33.35
L 734.75 31.85
Q 734.75 31.35 734.65 31 734.5 30.7 734.25 30.45 734 30.2 733.65 30.1
M 721.95 11.7
Q 721.5 10.7 720.9 9.8 720.3 8.95 719.65 8.3 718.95 7.6 718.15 7.1 717.35 6.6 716.45 6.35 715.55 6.05 714.55 6.05 713.45 6.1 712.5 6.35 711.55 6.6 710.75 7.05 709.95 7.55 709.25 8.2 708.55 8.9 708 9.7 707.45 10.55 707.1 11.6 706.7 12.65 706.4 13.85 706.1 15.05 706 16.4 705.85 17.75 705.85 19.2 705.85 20.6 705.95 21.95 706.1 23.25 706.35 24.45 706.6 25.6 706.95 26.65 707.4 27.75 707.95 28.6 708.55 29.5 709.25 30.15 709.95 30.85 710.7 31.3 711.5 31.8 712.45 32.05 713.4 32.3 714.55 32.3 715.55 32.3 716.45 32.05 717.35 31.8 718.2 31.3 719 30.85 719.7 30.15 720.4 29.5 720.95 28.6 721.55 27.75 722 26.65 722.45 25.6 722.75 24.45 723 23.25 723.15 21.95 723.3 20.6 723.3 19.2 723.3 17.8 723.15 16.5 723 15.15 722.75 13.95 722.4 12.75 721.95 11.7
M 711.8 11.6
Q 712.2 11.15 712.6 10.75 713 10.45 713.5 10.3 714 10.1 714.55 10.1 715 10.1 715.5 10.3 715.95 10.45 716.45 10.8 716.85 11.15 717.25 11.65 717.6 12.15 717.9 12.75 718.1 13.4 718.3 14.1 718.5 14.8 718.7 15.65 718.85 16.5 718.95 17.35 719.05 18.25 719.05 19.2 719.05 20.15 718.95 21.05 718.9 21.95 718.75 22.75 718.35 24.45 717.9 25.65 717.65 26.3 717.25 26.8 716.9 27.3 716.45 27.65 716 28.05 715.5 28.2 715.05 28.4 714.55 28.4 713.95 28.4 713.45 28.2 712.95 28.05 712.55 27.65 711.7 26.9 711.1 25.65 710.8 25 710.65 24.25 710.45 23.5 710.35 22.65 710.2 21.85 710.1 21 710.05 20.1 710.05 19.2 710.05 18.25 710.1 17.35 710.2 16.45 710.35 15.6 710.45 14.8 710.65 14.05 710.85 13.3 711.1 12.7 711.4 12.1 711.8 11.6
M 684.1 29.05
Q 683.8 28.8 683.45 28.7 683.1 28.6 682.7 28.6
L 681.35 28.6
Q 680.8 28.6 680.45 28.7 680.1 28.8 679.9 29 679.7 29.25 679.55 29.6 679.45 29.95 679.45 30.4
L 679.45 32
Q 679.45 32.5 679.55 32.8 679.7 33.15 679.9 33.3 680.1 33.4 680.45 33.5 680.8 33.55 681.35 33.55
L 682.05 33.55
Q 681.95 33.75 681.65 34.3 681.45 34.5 681.25 34.7 681 34.9 680.65 35.1 680.5 35.2 680.35 35.35 680.15 35.45 680.05 35.6 679.9 35.7 679.85 35.8 679.75 35.9 679.75 36.1 679.75 36.3 679.85 36.55 679.9 36.75 680.05 36.9 680.15 37.05 680.25 37.2 680.4 37.25 680.55 37.25 680.65 37.25 680.85 37.25 681.05 37.2 681.25 37.15 681.5 37 681.6 36.95 681.75 36.9 681.8 36.85 682.05 36.75 682.25 36.6 682.5 36.45 682.75 36.25 683 36.05 683.25 35.8 683.45 35.55 683.7 35.25 684.15 34.6 684.45 33.9 684.55 33.45 684.6 33.05 684.65 32.65 684.65 32.2
L 684.65 30.4
Q 684.65 29.95 684.5 29.6 684.4 29.3 684.1 29.05
M 672.45 11.5
Q 672 10.5 671.5 9.6 670.85 8.75 670.15 8.05 669.45 7.4 668.6 6.9 667.75 6.4 666.7 6.2 665.7 5.95 664.45 5.95 663.6 5.95 662.75 6.1 661.95 6.3 661.2 6.65 660.4 7 659.75 7.5 659.1 8 658.6 8.6 658 9.25 657.55 9.95 657.1 10.7 656.8 11.5 656.5 12.35 656.35 13.2 656.2 14.05 656.2 15 656.2 15.9 656.35 16.7 656.5 17.55 656.8 18.3 657.05 19.1 657.5 19.75 657.9 20.4 658.45 20.95 658.9 21.55 659.5 22 660.05 22.45 660.75 22.75 661.35 23.15 662.05 23.3 662.75 23.45 663.5 23.45 663.65 23.45 663.8 23.45 663.95 23.45 664.1 23.45 664.2 23.45 664.3 23.45 664.35 23.45 664.45 23.4 665.3 23.4 666.05 23.2 666.8 23.05 667.45 22.7 668.05 22.4 668.5 22.1 668.95 21.75 669.25 21.35 669.25 21.85 669.2 22.4 669.15 22.95 669.05 23.6 668.95 24.25 668.8 24.85 668.6 25.5 668.4 26.05 668.05 26.65 667.65 27.15 667.25 27.6 666.8 28.05 666.35 28.45 665.7 28.65 665.1 28.85 664.35 28.85 663.65 28.85 663.05 28.7 662.5 28.55 662.1 28.2 661.65 27.9 661.3 27.5 660.95 27.15 660.7 26.65 660.35 26.05 660.05 25.4 659.85 25.15 659.55 25 659.2 24.85 658.75 24.85 658.1 24.85 657.45 25.25 657.1 25.45 656.95 25.8 656.75 26.1 656.75 26.5 656.75 26.8 656.8 27 656.85 27.25 656.95 27.5 657 27.75 657.1 28.05 657.2 28.3 657.35 28.6 657.45 28.85 657.65 29.1 657.8 29.35 658.05 29.55 658.25 29.85 658.4 30.05 658.55 30.25 658.75 30.5 659.3 31.05 659.95 31.45 660.6 31.9 661.35 32.15 662 32.45 662.75 32.6 663.5 32.7 664.35 32.7 665.4 32.7 666.35 32.5 667.35 32.25 668.25 31.75 669.15 31.25 669.9 30.6 670.65 29.9 671.25 29 671.8 28.1 672.25 27.05 672.65 25.95 673 24.7 673.3 23.45 673.45 22.05 673.6 20.65 673.6 19.1 673.6 17.65 673.5 16.3 673.35 14.95 673.1 13.75 672.85 12.55 672.45 11.5
M 668.65 12.8
Q 668.95 13.7 668.95 14.8 668.95 15.9 668.65 16.8 668.4 17.7 667.85 18.35 666.65 19.75 664.55 19.75 663.65 19.75 662.85 19.4 662.1 19.1 661.5 18.4 660.85 17.75 660.55 16.85 660.25 15.95 660.25 14.8 660.25 12.6 661.55 11.2 662.75 9.85 664.55 9.85 666.65 9.85 667.85 11.2 668.4 11.9 668.65 12.8
M 648.95 8.1
Q 648.95 7.45 648.3 6.95 648 6.7 647.7 6.6 647.4 6.45 647.15 6.45 646.7 6.45 646.4 6.55 646.05 6.65 645.95 6.9 645.75 7.1 645.65 7.35 645.55 7.65 645.45 7.9 645.3 8.2 645.2 8.5 645.1 8.8 645 9.15 644.9 9.45 644.8 9.7 644.65 9.95 644.5 10.1 644.25 10.3 643.95 10.45 643.6 10.6 643.3 10.65 642.9 10.7 642.55 10.75 642.15 10.75 641.8 10.75 641.35 10.8 641 10.95 640.7 11.1 640.5 11.35 640.2 11.65 640.1 11.95 640 12.3 640 12.65 640 13.05 640.1 13.35 640.2 13.65 640.4 13.95 640.6 14.3 640.9 14.45 641.2 14.6 641.65 14.6
L 644.8 14.6
Q 644.8 16.55 644.8 18.45 644.8 20.4 644.8 22.3 644.8 26.15 644.8 30.05 644.8 30.45 645 30.7 645.15 31 645.5 31.25 645.8 31.5 646.2 31.65 646.55 31.8 647 31.8 647.1 31.8 647.3 31.75 647.45 31.7 647.6 31.6 647.7 31.55 647.9 31.5 648.05 31.4 648.2 31.3 648.4 31.2 648.55 31 648.7 30.85 648.8 30.7 648.9 30.55 648.95 30.4 649 30.25 649 30.05
L 649 28.6
Q 649 25.95 649 23.4 649 20.8 649 18.3 648.95 15.8 648.95 13.25 648.95 10.7 648.95 8.1
M 631.05 8.3
Q 630.35 7.6 629.55 7.1 628.75 6.6 627.85 6.35 626.95 6.05 625.95 6.05 624.85 6.1 623.9 6.35 622.95 6.6 622.15 7.05 621.35 7.55 620.65 8.2 619.95 8.9 619.4 9.7 618.85 10.55 618.5 11.6 618.1 12.65 617.8 13.85 617.5 15.05 617.4 16.4 617.25 17.75 617.25 19.2 617.25 20.6 617.35 21.95 617.5 23.25 617.75 24.45 618 25.6 618.35 26.65 618.8 27.75 619.35 28.6 619.95 29.5 620.65 30.15 621.35 30.85 622.1 31.3 622.9 31.8 623.85 32.05 624.8 32.3 625.95 32.3 626.95 32.3 627.85 32.05 628.75 31.8 629.6 31.3 630.4 30.85 631.1 30.15 631.8 29.5 632.35 28.6 632.95 27.75 633.4 26.65 633.85 25.6 634.15 24.45 634.4 23.25 634.55 21.95 634.7 20.6 634.7 19.2 634.7 17.8 634.55 16.5 634.4 15.15 634.15 13.95 633.8 12.75 633.35 11.7 632.9 10.7 632.3 9.8 631.7 8.95 631.05 8.3
M 627.85 10.8
Q 628.25 11.15 628.65 11.65 629 12.15 629.3 12.75 629.5 13.4 629.7 14.1 629.9 14.8 630.1 15.65 630.25 16.5 630.35 17.35 630.45 18.25 630.45 19.2 630.45 20.15 630.35 21.05 630.3 21.95 630.15 22.75 629.75 24.45 629.3 25.65 629.05 26.3 628.65 26.8 628.3 27.3 627.85 27.65 627.4 28.05 626.9 28.2 626.45 28.4 625.95 28.4 625.35 28.4 624.85 28.2 624.35 28.05 623.95 27.65 623.1 26.9 622.5 25.65 622.2 25 622.05 24.25 621.85 23.5 621.75 22.65 621.6 21.85 621.5 21 621.45 20.1 621.45 19.2 621.45 18.25 621.5 17.35 621.6 16.45 621.75 15.6 621.85 14.8 622.05 14.05 622.25 13.3 622.5 12.7 622.8 12.1 623.2 11.6 623.6 11.15 624 10.75 624.4 10.45 624.9 10.3 625.4 10.1 625.95 10.1 626.4 10.1 626.9 10.3 627.35 10.45 627.85 10.8
M 609.1 30.1
Q 608.75 30 608.25 30
L 606.9 30
Q 606.35 30 606 30.1 605.6 30.2 605.4 30.4 605.2 30.6 605.05 30.95 604.95 31.35 604.95 31.85
L 604.95 33.35
Q 604.95 33.85 605.05 34.2 605.2 34.55 605.4 34.75 605.6 34.95 606 35 606.35 35.15 606.9 35.15
L 608.35 35.15
Q 609.25 35.15 609.75 34.7 610.2 34.25 610.2 33.35
L 610.2 31.85
Q 610.2 31.35 610.1 31 609.95 30.7 609.7 30.45 609.45 30.2 609.1 30.1
M 595.1 8.3
Q 594.4 7.6 593.6 7.1 592.8 6.6 591.9 6.35 591 6.05 590 6.05 588.9 6.1 587.95 6.35 587 6.6 586.2 7.05 585.4 7.55 584.7 8.2 584 8.9 583.45 9.7 582.9 10.55 582.55 11.6 582.15 12.65 581.85 13.85 581.55 15.05 581.45 16.4 581.3 17.75 581.3 19.2 581.3 20.6 581.4 21.95 581.55 23.25 581.8 24.45 582.05 25.6 582.4 26.65 582.85 27.75 583.4 28.6 584 29.5 584.7 30.15 585.4 30.85 586.15 31.3 586.95 31.8 587.9 32.05 588.85 32.3 590 32.3 591 32.3 591.9 32.05 592.8 31.8 593.65 31.3 594.45 30.85 595.15 30.15 595.85 29.5 596.4 28.6 597 27.75 597.45 26.65 597.9 25.6 598.2 24.45 598.45 23.25 598.6 21.95 598.75 20.6 598.75 19.2 598.75 17.8 598.6 16.5 598.45 15.15 598.2 13.95 597.85 12.75 597.4 11.7 596.95 10.7 596.35 9.8 595.75 8.95 595.1 8.3
M 587.25 11.6
Q 587.65 11.15 588.05 10.75 588.45 10.45 588.95 10.3 589.45 10.1 590 10.1 590.45 10.1 590.95 10.3 591.4 10.45 591.9 10.8 592.3 11.15 592.7 11.65 593.05 12.15 593.35 12.75 593.55 13.4 593.75 14.1 593.95 14.8 594.15 15.65 594.3 16.5 594.4 17.35 594.5 18.25 594.5 19.2 594.5 20.15 594.4 21.05 594.35 21.95 594.2 22.75 593.8 24.45 593.35 25.65 593.1 26.3 592.7 26.8 592.35 27.3 591.9 27.65 591.45 28.05 590.95 28.2 590.5 28.4 590 28.4 589.4 28.4 588.9 28.2 588.4 28.05 588 27.65 587.15 26.9 586.55 25.65 586.25 25 586.1 24.25 585.9 23.5 585.8 22.65 585.65 21.85 585.55 21 585.5 20.1 585.5 19.2 585.5 18.25 585.55 17.35 585.65 16.45 585.8 15.6 585.9 14.8 586.1 14.05 586.3 13.3 586.55 12.7 586.85 12.1 587.25 11.6
M 560.1 30.4
Q 560.1 29.95 559.95 29.6 559.85 29.3 559.55 29.05 559.25 28.8 558.9 28.7 558.55 28.6 558.15 28.6
L 556.8 28.6
Q 556.25 28.6 555.9 28.7 555.55 28.8 555.35 29 555.15 29.25 555 29.6 554.9 29.95 554.9 30.4
L 554.9 32
Q 554.9 32.5 555 32.8 555.15 33.15 555.35 33.3 555.55 33.4 555.9 33.5 556.25 33.55 556.8 33.55
L 557.5 33.55
Q 557.4 33.75 557.1 34.3 556.9 34.5 556.7 34.7 556.45 34.9 556.1 35.1 555.95 35.2 555.8 35.35 555.6 35.45 555.5 35.6 555.35 35.7 555.3 35.8 555.2 35.9 555.2 36.1 555.2 36.3 555.3 36.55 555.35 36.75 555.5 36.9 555.6 37.05 555.7 37.2 555.85 37.25 556 37.25 556.1 37.25 556.3 37.25 556.5 37.2 556.7 37.15 556.95 37 557.05 36.95 557.2 36.9 557.25 36.85 557.5 36.75 557.7 36.6 557.95 36.45 558.2 36.25 558.45 36.05 558.7 35.8 558.9 35.55 559.15 35.25 559.6 34.6 559.9 33.9 560 33.45 560.05 33.05 560.1 32.65 560.1 32.2
L 560.1 30.4
M 548.35 13.5
Q 548.4 13.4 548.45 13.25 548.5 13.15 548.5 13 548.5 12.25 548.35 11.6 548.2 10.9 547.85 10.25 547.1 9 546.1 8.05 545.55 7.55 544.95 7.15 544.3 6.75 543.6 6.45 542.85 6.2 542 6.05 541.15 5.9 540.25 5.9 538.55 5.9 537.05 6.45 536.35 6.7 535.7 7.1 535.05 7.5 534.5 7.95 534 8.45 533.6 9 533.2 9.55 532.9 10.15 532.55 10.85 532.4 11.55 532.25 12.25 532.25 13 532.25 13.85 532.45 14.65 532.65 15.45 533.1 16.15 533.5 16.9 534.05 17.5 534.6 18.1 535.35 18.6 533.6 19.65 532.5 21.2 531.9 22 531.6 22.9 531.3 23.8 531.25 24.75 531.25 25.65 531.45 26.45 531.6 27.2 531.95 27.95 532.3 28.7 532.8 29.3 533.3 29.95 533.95 30.5 534.55 31 535.25 31.45 536 31.9 536.75 32.2 537.55 32.55 538.4 32.7 539.25 32.85 540.25 32.85 542.1 32.85 543.8 32.2 545.4 31.6 546.6 30.55 547.25 30 547.75 29.4 548.25 28.8 548.6 28.1 549.3 26.75 549.3 25.05 549.3 24.05 549.05 23.15 548.75 22.2 548.2 21.35 547.65 20.55 546.95 19.85 546.25 19.15 545.4 18.6 545.95 18.15 546.45 17.6 546.95 17.05 547.35 16.4 547.75 15.7 548 15 548.25 14.3 548.35 13.5
M 537.25 10.9
Q 537.7 10.45 538.45 10.2 539.2 9.95 540.25 9.95 541.3 9.95 542.1 10.2 542.9 10.45 543.4 10.9 543.8 11.4 544.05 12 544.3 12.6 544.3 13.3 544.3 14 544.05 14.65 543.8 15.25 543.4 15.75 542.9 16.25 542.1 16.5 541.3 16.7 540.25 16.7 539.2 16.7 538.5 16.5 537.75 16.25 537.3 15.75 536.8 15.25 536.55 14.65 536.3 14 536.3 13.3 536.3 12.6 536.55 12 536.8 11.45 537.25 10.9
M 536.75 21.9
Q 537.4 21.35 538.25 21.05 539.1 20.8 540.25 20.8 541.45 20.8 542.35 21.05 543.3 21.35 543.95 21.95 544.55 22.5 544.85 23.25 545.15 23.95 545.15 24.85 545.15 25.65 544.85 26.4 544.55 27.05 543.95 27.65 543.3 28.25 542.35 28.55 541.45 28.85 540.25 28.85 538.05 28.85 536.75 27.65 536.1 27.1 535.8 26.4 535.45 25.65 535.45 24.85 535.45 23.95 535.8 23.2 536.1 22.5 536.75 21.9
M 521.25 6.9
Q 521.05 7.1 520.95 7.35 520.85 7.65 520.75 7.9 520.6 8.2 520.5 8.5 520.4 8.8 520.3 9.15 520.2 9.45 520.1 9.7 519.95 9.95 519.8 10.1 519.55 10.3 519.25 10.45 518.9 10.6 518.6 10.65 518.2 10.7 517.85 10.75 517.45 10.75 517.1 10.75 516.65 10.8 516.3 10.95 516 11.1 515.8 11.35 515.5 11.65 515.4 11.95 515.3 12.3 515.3 12.65 515.3 13.05 515.4 13.35 515.5 13.65 515.7 13.95 515.9 14.3 516.2 14.45 516.5 14.6 516.95 14.6
L 520.1 14.6
Q 520.1 16.55 520.1 18.45 520.1 20.4 520.1 22.3 520.1 26.15 520.1 30.05 520.1 30.45 520.3 30.7 520.45 31 520.8 31.25 521.1 31.5 521.5 31.65 521.85 31.8 522.3 31.8 522.4 31.8 522.6 31.75 522.75 31.7 522.9 31.6 523 31.55 523.2 31.5 523.35 31.4 523.5 31.3 523.7 31.2 523.85 31 524 30.85 524.1 30.7 524.2 30.55 524.25 30.4 524.3 30.25 524.3 30.05
L 524.3 28.6
Q 524.3 25.95 524.3 23.4 524.3 20.8 524.3 18.3 524.25 15.8 524.25 13.25 524.25 10.7 524.25 8.1 524.25 7.45 523.6 6.95 523.3 6.7 523 6.6 522.7 6.45 522.45 6.45 522 6.45 521.7 6.55 521.35 6.65 521.25 6.9
M 509.45 24.45
Q 509.7 23.25 509.85 21.95 510 20.6 510 19.2 510 17.8 509.85 16.5 509.7 15.15 509.45 13.95 509.1 12.75 508.65 11.7 508.2 10.7 507.6 9.8 507 8.95 506.35 8.3 505.65 7.6 504.85 7.1 504.05 6.6 503.15 6.35 502.25 6.05 501.25 6.05 500.15 6.1 499.2 6.35 498.25 6.6 497.45 7.05 496.65 7.55 495.95 8.2 495.25 8.9 494.7 9.7 494.15 10.55 493.8 11.6 493.4 12.65 493.1 13.85 492.8 15.05 492.7 16.4 492.55 17.75 492.55 19.2 492.55 20.6 492.65 21.95 492.8 23.25 493.05 24.45 493.3 25.6 493.65 26.65 494.1 27.75 494.65 28.6 495.25 29.5 495.95 30.15 496.65 30.85 497.4 31.3 498.2 31.8 499.15 32.05 500.1 32.3 501.25 32.3 502.25 32.3 503.15 32.05 504.05 31.8 504.9 31.3 505.7 30.85 506.4 30.15 507.1 29.5 507.65 28.6 508.25 27.75 508.7 26.65 509.15 25.6 509.45 24.45
M 499.3 10.75
Q 499.7 10.45 500.2 10.3 500.7 10.1 501.25 10.1 501.7 10.1 502.2 10.3 502.65 10.45 503.15 10.8 503.55 11.15 503.95 11.65 504.3 12.15 504.6 12.75 504.8 13.4 505 14.1 505.2 14.8 505.4 15.65 505.55 16.5 505.65 17.35 505.75 18.25 505.75 19.2 505.75 20.15 505.65 21.05 505.6 21.95 505.45 22.75 505.05 24.45 504.6 25.65 504.35 26.3 503.95 26.8 503.6 27.3 503.15 27.65 502.7 28.05 502.2 28.2 501.75 28.4 501.25 28.4 500.65 28.4 500.15 28.2 499.65 28.05 499.25 27.65 498.4 26.9 497.8 25.65 497.5 25 497.35 24.25 497.15 23.5 497.05 22.65 496.9 21.85 496.8 21 496.75 20.1 496.75 19.2 496.75 18.25 496.8 17.35 496.9 16.45 497.05 15.6 497.15 14.8 497.35 14.05 497.55 13.3 497.8 12.7 498.1 12.1 498.5 11.6 498.9 11.15 499.3 10.75
M 484.4 30.1
Q 484.05 30 483.55 30
L 482.2 30
Q 481.65 30 481.3 30.1 480.9 30.2 480.7 30.4 480.5 30.6 480.35 30.95 480.25 31.35 480.25 31.85
L 480.25 33.35
Q 480.25 33.85 480.35 34.2 480.5 34.55 480.7 34.75 480.9 34.95 481.3 35 481.65 35.15 482.2 35.15
L 483.65 35.15
Q 484.55 35.15 485.05 34.7 485.5 34.25 485.5 33.35
L 485.5 31.85
Q 485.5 31.35 485.4 31 485.25 30.7 485 30.45 484.75 30.2 484.4 30.1
M 472.7 11.7
Q 472.25 10.7 471.65 9.8 471.05 8.95 470.4 8.3 469.7 7.6 468.9 7.1 468.1 6.6 467.2 6.35 466.3 6.05 465.3 6.05 464.2 6.1 463.25 6.35 462.3 6.6 461.5 7.05 460.7 7.55 460 8.2 459.3 8.9 458.75 9.7 458.2 10.55 457.85 11.6 457.45 12.65 457.15 13.85 456.85 15.05 456.75 16.4 456.6 17.75 456.6 19.2 456.6 20.6 456.7 21.95 456.85 23.25 457.1 24.45 457.35 25.6 457.7 26.65 458.15 27.75 458.7 28.6 459.3 29.5 460 30.15 460.7 30.85 461.45 31.3 462.25 31.8 463.2 32.05 464.15 32.3 465.3 32.3 466.3 32.3 467.2 32.05 468.1 31.8 468.95 31.3 469.75 30.85 470.45 30.15 471.15 29.5 471.7 28.6 472.3 27.75 472.75 26.65 473.2 25.6 473.5 24.45 473.75 23.25 473.9 21.95 474.05 20.6 474.05 19.2 474.05 17.8 473.9 16.5 473.75 15.15 473.5 13.95 473.15 12.75 472.7 11.7
M 466.25 10.3
Q 466.7 10.45 467.2 10.8 467.6 11.15 468 11.65 468.35 12.15 468.65 12.75 468.85 13.4 469.05 14.1 469.25 14.8 469.45 15.65 469.6 16.5 469.7 17.35 469.8 18.25 469.8 19.2 469.8 20.15 469.7 21.05 469.65 21.95 469.5 22.75 469.1 24.45 468.65 25.65 468.4 26.3 468 26.8 467.65 27.3 467.2 27.65 466.75 28.05 466.25 28.2 465.8 28.4 465.3 28.4 464.7 28.4 464.2 28.2 463.7 28.05 463.3 27.65 462.45 26.9 461.85 25.65 461.55 25 461.4 24.25 461.2 23.5 461.1 22.65 460.95 21.85 460.85 21 460.8 20.1 460.8 19.2 460.8 18.25 460.85 17.35 460.95 16.45 461.1 15.6 461.2 14.8 461.4 14.05 461.6 13.3 461.85 12.7 462.15 12.1 462.55 11.6 462.95 11.15 463.35 10.75 463.75 10.45 464.25 10.3 464.75 10.1 465.3 10.1 465.75 10.1 466.25 10.3
M 435.4 32.2
L 435.4 30.4
Q 435.4 29.95 435.25 29.6 435.15 29.3 434.85 29.05 434.55 28.8 434.2 28.7 433.85 28.6 433.45 28.6
L 432.1 28.6
Q 431.55 28.6 431.2 28.7 430.85 28.8 430.65 29 430.45 29.25 430.3 29.6 430.2 29.95 430.2 30.4
L 430.2 32
Q 430.2 32.5 430.3 32.8 430.45 33.15 430.65 33.3 430.85 33.4 431.2 33.5 431.55 33.55 432.1 33.55
L 432.8 33.55
Q 432.7 33.75 432.4 34.3 432.2 34.5 432 34.7 431.75 34.9 431.4 35.1 431.25 35.2 431.1 35.35 430.9 35.45 430.8 35.6 430.65 35.7 430.6 35.8 430.5 35.9 430.5 36.1 430.5 36.3 430.6 36.55 430.65 36.75 430.8 36.9 430.9 37.05 431 37.2 431.15 37.25 431.3 37.25 431.4 37.25 431.6 37.25 431.8 37.2 432 37.15 432.25 37 432.35 36.95 432.5 36.9 432.55 36.85 432.8 36.75 433 36.6 433.25 36.45 433.5 36.25 433.75 36.05 434 35.8 434.2 35.55 434.45 35.25 434.9 34.6 435.2 33.9 435.3 33.45 435.35 33.05 435.4 32.65 435.4 32.2
M 395.25 34.7
Q 395.7 34.25 395.7 33.35
L 395.7 31.85
Q 395.7 31.35 395.6 31 395.45 30.7 395.2 30.45 394.95 30.2 394.6 30.1 394.25 30 393.75 30
L 392.4 30
Q 391.85 30 391.5 30.1 391.1 30.2 390.9 30.4 390.7 30.6 390.55 30.95 390.45 31.35 390.45 31.85
L 390.45 33.35
Q 390.45 33.85 390.55 34.2 390.7 34.55 390.9 34.75 391.1 34.95 391.5 35 391.85 35.15 392.4 35.15
L 393.85 35.15
Q 394.75 35.15 395.25 34.7
M 407 30
L 405.65 30
Q 405.1 30 404.75 30.1 404.35 30.2 404.15 30.4 403.95 30.6 403.8 30.95 403.7 31.35 403.7 31.85
L 403.7 33.35
Q 403.7 33.85 403.8 34.2 403.95 34.55 404.15 34.75 404.35 34.95 404.75 35 405.1 35.15 405.65 35.15
L 407.1 35.15
Q 408 35.15 408.5 34.7 408.95 34.25 408.95 33.35
L 408.95 31.85
Q 408.95 31.35 408.85 31 408.7 30.7 408.45 30.45 408.2 30.2 407.85 30.1 407.5 30 407 30
M 421.7 30.45
Q 421.45 30.2 421.1 30.1 420.75 30 420.25 30
L 418.9 30
Q 418.35 30 418 30.1 417.6 30.2 417.4 30.4 417.2 30.6 417.05 30.95 416.95 31.35 416.95 31.85
L 416.95 33.35
Q 416.95 33.85 417.05 34.2 417.2 34.55 417.4 34.75 417.6 34.95 418 35 418.35 35.15 418.9 35.15
L 420.35 35.15
Q 421.25 35.15 421.75 34.7 422.2 34.25 422.2 33.35
L 422.2 31.85
Q 422.2 31.35 422.1 31 421.95 30.7 421.7 30.45
M 366.35 28.6
L 365 28.6
Q 364.45 28.6 364.1 28.7 363.75 28.8 363.55 29 363.35 29.25 363.2 29.6 363.1 29.95 363.1 30.4
L 363.1 32
Q 363.1 32.5 363.2 32.8 363.35 33.15 363.55 33.3 363.75 33.4 364.1 33.5 364.45 33.55 365 33.55
L 365.7 33.55
Q 365.6 33.75 365.3 34.3 365.1 34.5 364.9 34.7 364.65 34.9 364.3 35.1 364.15 35.2 364 35.35 363.8 35.45 363.7 35.6 363.55 35.7 363.5 35.8 363.4 35.9 363.4 36.1 363.4 36.3 363.5 36.55 363.55 36.75 363.7 36.9 363.8 37.05 363.9 37.2 364.05 37.25 364.2 37.25 364.3 37.25 364.5 37.25 364.7 37.2 364.9 37.15 365.15 37 365.25 36.95 365.4 36.9 365.45 36.85 365.7 36.75 365.9 36.6 366.15 36.45 366.4 36.25 366.65 36.05 366.9 35.8 367.1 35.55 367.35 35.25 367.8 34.6 368.1 33.9 368.2 33.45 368.25 33.05 368.3 32.65 368.3 32.2
L 368.3 30.4
Q 368.3 29.95 368.15 29.6 368.05 29.3 367.75 29.05 367.45 28.8 367.1 28.7 366.75 28.6 366.35 28.6
M 355.75 10.55
Q 355.5 9.95 355.1 9.35 354.75 8.8 354.25 8.3 353.1 7.35 351.75 6.75 351.05 6.5 350.25 6.35 349.45 6.2 348.6 6.2 347.9 6.2 347.2 6.3 346.5 6.45 345.9 6.65 345.25 6.9 344.7 7.25 344.15 7.6 343.7 8.05 343.2 8.45 342.75 8.95 342.3 9.4 341.95 10 341.6 10.6 341.45 11.25 341.2 11.9 341.2 12.6 341.2 13.15 341.35 13.5 341.5 13.85 341.8 14 342.05 14.2 342.45 14.35 342.9 14.4 343.4 14.4 343.7 14.4 343.95 14.35 344.15 14.25 344.3 14.05 344.45 13.9 344.6 13.7 344.75 13.5 344.95 13.25 345.05 13.05 345.15 12.75 345.25 12.5 345.4 12.15 345.5 11.9 345.6 11.6 345.7 11.35 345.85 11.1 346.1 10.85 346.4 10.65 346.65 10.45 347 10.25 347.55 9.95 348.65 9.95 349.7 9.95 350.45 10.25 350.75 10.45 351 10.65 351.25 10.85 351.45 11.1 351.65 11.35 351.8 11.65 351.95 11.9 352.1 12.2 352.2 12.5 352.25 12.8 352.3 13.15 352.3 13.4 352.25 13.95 352.1 14.4 352 14.8 351.75 15.15 351.5 15.5 351.2 15.8 350.85 16.05 350.45 16.2 350.15 16.45 349.75 16.55 349.35 16.7 348.9 16.75 348.45 16.85 347.95 16.9 347.55 16.9 347.05 16.9 346.95 17.9 346.95 18.8 346.9 19.3 346.9 19.75 346.9 20.2 346.9 20.65 346.95 20.7 347.15 20.75 347.35 20.8 347.7 20.8 347.95 20.85 348.25 20.85 348.55 20.9 348.85 20.9 349.25 21 349.65 21.05 350 21.1 350.4 21.15 350.7 21.25 351 21.35 351.3 21.5 351.55 21.75 351.9 21.95 352.2 22.2 352.45 22.5 352.6 22.85 352.8 23.2 352.85 23.7 352.95 24.1 352.95 24.7 352.9 25.5 352.6 26.15 352.3 26.85 351.7 27.35 351.1 27.95 350.35 28.2 349.6 28.5 348.65 28.5 348 28.5 347.55 28.4 347.05 28.3 346.75 28.15 346.35 28 346.1 27.75 345.8 27.55 345.6 27.2 345.2 26.7 344.85 25.85 344.65 25.5 344.45 25.05 344.3 24.65 344.15 24.15 344 24 343.8 23.9 343.6 23.75 343.4 23.7 343.15 23.6 342.95 23.6 342.7 23.55 342.55 23.55 341.95 23.55 341.6 23.7 341.2 23.85 341 24.1 340.8 24.4 340.7 24.75 340.55 25.1 340.55 25.55
L 340.55 25.8
Q 340.7 26.6 340.9 27.25 341.15 27.95 341.55 28.5 341.9 29.15 342.4 29.65 342.85 30.15 343.4 30.6 343.9 31.05 344.5 31.4 345.1 31.7 345.8 31.9 346.45 32.15 347.2 32.25 347.95 32.35 348.7 32.35 349.6 32.35 350.45 32.2 351.3 32.05 352.15 31.75 352.9 31.45 353.55 31 354.2 30.6 354.65 30.1 355.25 29.55 355.7 28.95 356.1 28.35 356.45 27.6 357.1 26.25 357.1 24.55 357.1 24.1 357 23.6 356.9 23.15 356.75 22.7 356.55 22.3 356.35 21.9 356.15 21.45 355.9 21.1 355.5 20.35 354.85 19.75 354.5 19.45 354.15 19.2 353.8 18.9 353.4 18.7 353.65 18.6 353.85 18.4 354.1 18.2 354.3 18 354.5 17.8 354.7 17.55 354.95 17.3 355.25 16.95 355.75 16.2 356 15.3 356.25 14.4 356.25 13.2 356.25 12.55 356.1 11.9 355.95 11.2 355.75 10.55
M 331.95 8.3
Q 331.25 7.6 330.45 7.1 329.65 6.6 328.75 6.35 327.85 6.05 326.85 6.05 325.75 6.1 324.8 6.35 323.85 6.6 323.05 7.05 322.25 7.55 321.55 8.2 320.85 8.9 320.3 9.7 319.75 10.55 319.4 11.6 319 12.65 318.7 13.85 318.4 15.05 318.3 16.4 318.15 17.75 318.15 19.2 318.15 20.6 318.25 21.95 318.4 23.25 318.65 24.45 318.9 25.6 319.25 26.65 319.7 27.75 320.25 28.6 320.85 29.5 321.55 30.15 322.25 30.85 323 31.3 323.8 31.8 324.75 32.05 325.7 32.3 326.85 32.3 327.85 32.3 328.75 32.05 329.65 31.8 330.5 31.3 331.3 30.85 332 30.15 332.7 29.5 333.25 28.6 333.85 27.75 334.3 26.65 334.75 25.6 335.05 24.45 335.3 23.25 335.45 21.95 335.6 20.6 335.6 19.2 335.6 17.8 335.45 16.5 335.3 15.15 335.05 13.95 334.7 12.75 334.25 11.7 333.8 10.7 333.2 9.8 332.6 8.95 331.95 8.3
M 324.1 11.6
Q 324.5 11.15 324.9 10.75 325.3 10.45 325.8 10.3 326.3 10.1 326.85 10.1 327.3 10.1 327.8 10.3 328.25 10.45 328.75 10.8 329.15 11.15 329.55 11.65 329.9 12.15 330.2 12.75 330.4 13.4 330.6 14.1 330.8 14.8 331 15.65 331.15 16.5 331.25 17.35 331.35 18.25 331.35 19.2 331.35 20.15 331.25 21.05 331.2 21.95 331.05 22.75 330.65 24.45 330.2 25.65 329.95 26.3 329.55 26.8 329.2 27.3 328.75 27.65 328.3 28.05 327.8 28.2 327.35 28.4 326.85 28.4 326.25 28.4 325.75 28.2 325.25 28.05 324.85 27.65 324 26.9 323.4 25.65 323.1 25 322.95 24.25 322.75 23.5 322.65 22.65 322.5 21.85 322.4 21 322.35 20.1 322.35 19.2 322.35 18.25 322.4 17.35 322.5 16.45 322.65 15.6 322.75 14.8 322.95 14.05 323.15 13.3 323.4 12.7 323.7 12.1 324.1 11.6
M 306.05 6.35
Q 305.15 6.05 304.15 6.05 303.05 6.1 302.1 6.35 301.15 6.6 300.35 7.05 299.55 7.55 298.85 8.2 298.15 8.9 297.6 9.7 297.05 10.55 296.7 11.6 296.3 12.65 296 13.85 295.7 15.05 295.6 16.4 295.45 17.75 295.45 19.2 295.45 20.6 295.55 21.95 295.7 23.25 295.95 24.45 296.2 25.6 296.55 26.65 297 27.75 297.55 28.6 298.15 29.5 298.85 30.15 299.55 30.85 300.3 31.3 301.1 31.8 302.05 32.05 303 32.3 304.15 32.3 305.15 32.3 306.05 32.05 306.95 31.8 307.8 31.3 308.6 30.85 309.3 30.15 310 29.5 310.55 28.6 311.15 27.75 311.6 26.65 312.05 25.6 312.35 24.45 312.6 23.25 312.75 21.95 312.9 20.6 312.9 19.2 312.9 17.8 312.75 16.5 312.6 15.15 312.35 13.95 312 12.75 311.55 11.7 311.1 10.7 310.5 9.8 309.9 8.95 309.25 8.3 308.55 7.6 307.75 7.1 306.95 6.6 306.05 6.35
M 306.05 10.8
Q 306.45 11.15 306.85 11.65 307.2 12.15 307.5 12.75 307.7 13.4 307.9 14.1 308.1 14.8 308.3 15.65 308.45 16.5 308.55 17.35 308.65 18.25 308.65 19.2 308.65 20.15 308.55 21.05 308.5 21.95 308.35 22.75 307.95 24.45 307.5 25.65 307.25 26.3 306.85 26.8 306.5 27.3 306.05 27.65 305.6 28.05 305.1 28.2 304.65 28.4 304.15 28.4 303.55 28.4 303.05 28.2 302.55 28.05 302.15 27.65 301.3 26.9 300.7 25.65 300.4 25 300.25 24.25 300.05 23.5 299.95 22.65 299.8 21.85 299.7 21 299.65 20.1 299.65 19.2 299.65 18.25 299.7 17.35 299.8 16.45 299.95 15.6 300.05 14.8 300.25 14.05 300.45 13.3 300.7 12.7 301 12.1 301.4 11.6 301.8 11.15 302.2 10.75 302.6 10.45 303.1 10.3 303.6 10.1 304.15 10.1 304.6 10.1 305.1 10.3 305.55 10.45 306.05 10.8
M 284.2 30.1
Q 283.8 30.2 283.6 30.4 283.4 30.6 283.25 30.95 283.15 31.35 283.15 31.85
L 283.15 33.35
Q 283.15 33.85 283.25 34.2 283.4 34.55 283.6 34.75 283.8 34.95 284.2 35 284.55 35.15 285.1 35.15
L 286.55 35.15
Q 287.45 35.15 287.95 34.7 288.4 34.25 288.4 33.35
L 288.4 31.85
Q 288.4 31.35 288.3 31 288.15 30.7 287.9 30.45 287.65 30.2 287.3 30.1 286.95 30 286.45 30
L 285.1 30
Q 284.55 30 284.2 30.1
M 275.6 11.7
Q 275.15 10.7 274.55 9.8 273.95 8.95 273.3 8.3 272.6 7.6 271.8 7.1 271 6.6 270.1 6.35 269.2 6.05 268.2 6.05 267.1 6.1 266.15 6.35 265.2 6.6 264.4 7.05 263.6 7.55 262.9 8.2 262.2 8.9 261.65 9.7 261.1 10.55 260.75 11.6 260.35 12.65 260.05 13.85 259.75 15.05 259.65 16.4 259.5 17.75 259.5 19.2 259.5 20.6 259.6 21.95 259.75 23.25 260 24.45 260.25 25.6 260.6 26.65 261.05 27.75 261.6 28.6 262.2 29.5 262.9 30.15 263.6 30.85 264.35 31.3 265.15 31.8 266.1 32.05 267.05 32.3 268.2 32.3 269.2 32.3 270.1 32.05 271 31.8 271.85 31.3 272.65 30.85 273.35 30.15 274.05 29.5 274.6 28.6 275.2 27.75 275.65 26.65 276.1 25.6 276.4 24.45 276.65 23.25 276.8 21.95 276.95 20.6 276.95 19.2 276.95 17.8 276.8 16.5 276.65 15.15 276.4 13.95 276.05 12.75 275.6 11.7
M 265.45 11.6
Q 265.85 11.15 266.25 10.75 266.65 10.45 267.15 10.3 267.65 10.1 268.2 10.1 268.65 10.1 269.15 10.3 269.6 10.45 270.1 10.8 270.5 11.15 270.9 11.65 271.25 12.15 271.55 12.75 271.75 13.4 271.95 14.1 272.15 14.8 272.35 15.65 272.5 16.5 272.6 17.35 272.7 18.25 272.7 19.2 272.7 20.15 272.6 21.05 272.55 21.95 272.4 22.75 272 24.45 271.55 25.65 271.3 26.3 270.9 26.8 270.55 27.3 270.1 27.65 269.65 28.05 269.15 28.2 268.7 28.4 268.2 28.4 267.6 28.4 267.1 28.2 266.6 28.05 266.2 27.65 265.35 26.9 264.75 25.65 264.45 25 264.3 24.25 264.1 23.5 264 22.65 263.85 21.85 263.75 21 263.7 20.1 263.7 19.2 263.7 18.25 263.75 17.35 263.85 16.45 264 15.6 264.1 14.8 264.3 14.05 264.5 13.3 264.75 12.7 265.05 12.1 265.45 11.6
M 238.3 30.4
Q 238.3 29.95 238.15 29.6 238.05 29.3 237.75 29.05 237.45 28.8 237.1 28.7 236.75 28.6 236.35 28.6
L 235 28.6
Q 234.45 28.6 234.1 28.7 233.75 28.8 233.55 29 233.35 29.25 233.2 29.6 233.1 29.95 233.1 30.4
L 233.1 32
Q 233.1 32.5 233.2 32.8 233.35 33.15 233.55 33.3 233.75 33.4 234.1 33.5 234.45 33.55 235 33.55
L 235.7 33.55
Q 235.6 33.75 235.3 34.3 235.1 34.5 234.9 34.7 234.65 34.9 234.3 35.1 234.15 35.2 234 35.35 233.8 35.45 233.7 35.6 233.55 35.7 233.5 35.8 233.4 35.9 233.4 36.1 233.4 36.3 233.5 36.55 233.55 36.75 233.7 36.9 233.8 37.05 233.9 37.2 234.05 37.25 234.2 37.25 234.3 37.25 234.5 37.25 234.7 37.2 234.9 37.15 235.15 37 235.25 36.95 235.4 36.9 235.45 36.85 235.7 36.75 235.9 36.6 236.15 36.45 236.4 36.25 236.65 36.05 236.9 35.8 237.1 35.55 237.35 35.25 237.8 34.6 238.1 33.9 238.2 33.45 238.25 33.05 238.3 32.65 238.3 32.2
L 238.3 30.4
M 226.75 12.35
Q 226.6 11.65 226.35 11 226.1 10.3 225.7 9.7 225.3 9.1 224.85 8.55 224.25 8.05 223.6 7.6 222.95 7.2 222.25 6.85 221.55 6.55 220.75 6.4 220 6.2 219.15 6.2
L 219.1 6.2
Q 218.25 6.2 217.5 6.35 216.75 6.55 216.1 6.85 215.35 7.2 214.75 7.65 214.1 8.05 213.6 8.6 212.65 9.65 212.1 10.9 211.85 11.55 211.7 12.2 211.55 12.8 211.55 13.45 211.55 13.8 211.7 14.1 211.85 14.4 212.1 14.6 212.4 14.8 212.7 14.95 212.95 15.05 213.3 15.05 213.75 15.05 214.15 14.85 214.6 14.7 214.95 14.4 215.25 14.05 215.45 13.65 215.6 13.25 215.6 12.75 215.6 12.6 215.7 12.4 215.75 12.15 215.95 11.9 216.05 11.65 216.2 11.4 216.4 11.2 216.6 11 216.9 10.8 217.2 10.65 217.5 10.45 217.85 10.3 218.2 10.2 218.5 10.15 218.8 10.05 219.15 10.05 219.65 10.05 220.05 10.15 220.5 10.25 220.85 10.4 221.2 10.55 221.5 10.8 221.8 11 222.05 11.25 222.25 11.5 222.4 11.85 222.6 12.15 222.75 12.45 222.9 12.8 223 13.1 223.05 13.45 223.05 13.75 223.05 14.05 223 14.35 222.95 14.65 222.8 15 222.65 15.3 222.45 15.6 222.3 15.9 222.15 16.2 221.95 16.55 221.8 16.8 221.6 17.1 221.3 17.3 221.05 17.55 220.8 17.75 220.55 17.95 220.4 18.05 219.95 18.4 219.5 18.75 219 19.1 218.55 19.45 218.1 19.8 217.65 20.15 217.2 20.5 216.75 20.8 216.1 21.35 215.6 21.8 215.05 22.25 214.55 22.65 214.1 23.1 213.75 23.55 213.4 24 213.15 24.45 212.75 24.85 212.5 25.35 212.3 25.8 212.1 26.25 211.95 26.8 211.85 27.4 211.7 27.95 211.65 28.6 211.65 28.65 211.65 28.75 211.6 28.85 211.6 28.95 211.55 29.05 211.55 29.2 211.5 29.3 211.55 29.35
L 211.55 29.5
Q 211.5 29.6 211.5 29.75 211.5 29.85 211.5 29.95 211.5 30.5 211.65 30.85 211.8 31.2 212.2 31.4 212.5 31.65 212.9 31.75 213.3 31.9 213.75 31.9
L 225.35 31.9
Q 227.45 31.9 227.45 30 227.45 29.5 227.3 29.15 227.15 28.8 226.9 28.6 226.6 28.45 226.15 28.35 225.7 28.25 225.15 28.25
L 216.15 28.25
Q 216.15 27.75 216.3 27.2 216.45 26.7 216.8 26.2 217.1 25.75 217.55 25.3 217.95 24.85 218.45 24.45 218.9 24.1 219.35 23.75 219.85 23.35 220.4 23.05 220.9 22.7 221.35 22.4 221.8 22.1 222.1 21.85 222.6 21.5 223.1 21.15 223.6 20.75 224.05 20.35 224.45 19.9 224.85 19.45 225.2 19 225.5 18.5 225.85 18.05 226.15 17.5 226.4 17 226.55 16.4 226.7 15.8 226.8 15.1 226.9 14.45 226.9 13.7 226.9 13 226.75 12.35
M 203.8 9.8
Q 203.2 8.95 202.55 8.3 201.85 7.6 201.05 7.1 200.25 6.6 199.35 6.35 198.45 6.05 197.45 6.05 196.35 6.1 195.4 6.35 194.45 6.6 193.65 7.05 192.85 7.55 192.15 8.2 191.45 8.9 190.9 9.7 190.35 10.55 190 11.6 189.6 12.65 189.3 13.85 189 15.05 188.9 16.4 188.75 17.75 188.75 19.2 188.75 20.6 188.85 21.95 189 23.25 189.25 24.45 189.5 25.6 189.85 26.65 190.3 27.75 190.85 28.6 191.45 29.5 192.15 30.15 192.85 30.85 193.6 31.3 194.4 31.8 195.35 32.05 196.3 32.3 197.45 32.3 198.45 32.3 199.35 32.05 200.25 31.8 201.1 31.3 201.9 30.85 202.6 30.15 203.3 29.5 203.85 28.6 204.45 27.75 204.9 26.65 205.35 25.6 205.65 24.45 205.9 23.25 206.05 21.95 206.2 20.6 206.2 19.2 206.2 17.8 206.05 16.5 205.9 15.15 205.65 13.95 205.3 12.75 204.85 11.7 204.4 10.7 203.8 9.8
M 195.5 10.75
Q 195.9 10.45 196.4 10.3 196.9 10.1 197.45 10.1 197.9 10.1 198.4 10.3 198.85 10.45 199.35 10.8 199.75 11.15 200.15 11.65 200.5 12.15 200.8 12.75 201 13.4 201.2 14.1 201.4 14.8 201.6 15.65 201.75 16.5 201.85 17.35 201.95 18.25 201.95 19.2 201.95 20.15 201.85 21.05 201.8 21.95 201.65 22.75 201.25 24.45 200.8 25.65 200.55 26.3 200.15 26.8 199.8 27.3 199.35 27.65 198.9 28.05 198.4 28.2 197.95 28.4 197.45 28.4 196.85 28.4 196.35 28.2 195.85 28.05 195.45 27.65 194.6 26.9 194 25.65 193.7 25 193.55 24.25 193.35 23.5 193.25 22.65 193.1 21.85 193 21 192.95 20.1 192.95 19.2 192.95 18.25 193 17.35 193.1 16.45 193.25 15.6 193.35 14.8 193.55 14.05 193.75 13.3 194 12.7 194.3 12.1 194.7 11.6 195.1 11.15 195.5 10.75
M 182.95 24.45
Q 183.2 23.25 183.35 21.95 183.5 20.6 183.5 19.2 183.5 17.8 183.35 16.5 183.2 15.15 182.95 13.95 182.6 12.75 182.15 11.7 181.7 10.7 181.1 9.8 180.5 8.95 179.85 8.3 179.15 7.6 178.35 7.1 177.55 6.6 176.65 6.35 175.75 6.05 174.75 6.05 173.65 6.1 172.7 6.35 171.75 6.6 170.95 7.05 170.15 7.55 169.45 8.2 168.75 8.9 168.2 9.7 167.65 10.55 167.3 11.6 166.9 12.65 166.6 13.85 166.3 15.05 166.2 16.4 166.05 17.75 166.05 19.2 166.05 20.6 166.15 21.95 166.3 23.25 166.55 24.45 166.8 25.6 167.15 26.65 167.6 27.75 168.15 28.6 168.75 29.5 169.45 30.15 170.15 30.85 170.9 31.3 171.7 31.8 172.65 32.05 173.6 32.3 174.75 32.3 175.75 32.3 176.65 32.05 177.55 31.8 178.4 31.3 179.2 30.85 179.9 30.15 180.6 29.5 181.15 28.6 181.75 27.75 182.2 26.65 182.65 25.6 182.95 24.45
M 172.8 10.75
Q 173.2 10.45 173.7 10.3 174.2 10.1 174.75 10.1 175.2 10.1 175.7 10.3 176.15 10.45 176.65 10.8 177.05 11.15 177.45 11.65 177.8 12.15 178.1 12.75 178.3 13.4 178.5 14.1 178.7 14.8 178.9 15.65 179.05 16.5 179.15 17.35 179.25 18.25 179.25 19.2 179.25 20.15 179.15 21.05 179.1 21.95 178.95 22.75 178.55 24.45 178.1 25.65 177.85 26.3 177.45 26.8 177.1 27.3 176.65 27.65 176.2 28.05 175.7 28.2 175.25 28.4 174.75 28.4 174.15 28.4 173.65 28.2 173.15 28.05 172.75 27.65 171.9 26.9 171.3 25.65 171 25 170.85 24.25 170.65 23.5 170.55 22.65 170.4 21.85 170.3 21 170.25 20.1 170.25 19.2 170.25 18.25 170.3 17.35 170.4 16.45 170.55 15.6 170.65 14.8 170.85 14.05 171.05 13.3 171.3 12.7 171.6 12.1 172 11.6 172.4 11.15 172.8 10.75
M 157.9 30.1
Q 157.55 30 157.05 30
L 155.7 30
Q 155.15 30 154.8 30.1 154.4 30.2 154.2 30.4 154 30.6 153.85 30.95 153.75 31.35 153.75 31.85
L 153.75 33.35
Q 153.75 33.85 153.85 34.2 154 34.55 154.2 34.75 154.4 34.95 154.8 35 155.15 35.15 155.7 35.15
L 157.15 35.15
Q 158.05 35.15 158.55 34.7 159 34.25 159 33.35
L 159 31.85
Q 159 31.35 158.9 31 158.75 30.7 158.5 30.45 158.25 30.2 157.9 30.1
M 146.2 11.7
Q 145.75 10.7 145.15 9.8 144.55 8.95 143.9 8.3 143.2 7.6 142.4 7.1 141.6 6.6 140.7 6.35 139.8 6.05 138.8 6.05 137.7 6.1 136.75 6.35 135.8 6.6 135 7.05 134.2 7.55 133.5 8.2 132.8 8.9 132.25 9.7 131.7 10.55 131.35 11.6 130.95 12.65 130.65 13.85 130.35 15.05 130.25 16.4 130.1 17.75 130.1 19.2 130.1 20.6 130.2 21.95 130.35 23.25 130.6 24.45 130.85 25.6 131.2 26.65 131.65 27.75 132.2 28.6 132.8 29.5 133.5 30.15 134.2 30.85 134.95 31.3 135.75 31.8 136.7 32.05 137.65 32.3 138.8 32.3 139.8 32.3 140.7 32.05 141.6 31.8 142.45 31.3 143.25 30.85 143.95 30.15 144.65 29.5 145.2 28.6 145.8 27.75 146.25 26.65 146.7 25.6 147 24.45 147.25 23.25 147.4 21.95 147.55 20.6 147.55 19.2 147.55 17.8 147.4 16.5 147.25 15.15 147 13.95 146.65 12.75 146.2 11.7
M 142.15 12.75
Q 142.35 13.4 142.55 14.1 142.75 14.8 142.95 15.65 143.1 16.5 143.2 17.35 143.3 18.25 143.3 19.2 143.3 20.15 143.2 21.05 143.15 21.95 143 22.75 142.6 24.45 142.15 25.65 141.9 26.3 141.5 26.8 141.15 27.3 140.7 27.65 140.25 28.05 139.75 28.2 139.3 28.4 138.8 28.4 138.2 28.4 137.7 28.2 137.2 28.05 136.8 27.65 135.95 26.9 135.35 25.65 135.05 25 134.9 24.25 134.7 23.5 134.6 22.65 134.45 21.85 134.35 21 134.3 20.1 134.3 19.2 134.3 18.25 134.35 17.35 134.45 16.45 134.6 15.6 134.7 14.8 134.9 14.05 135.1 13.3 135.35 12.7 135.65 12.1 136.05 11.6 136.45 11.15 136.85 10.75 137.25 10.45 137.75 10.3 138.25 10.1 138.8 10.1 139.25 10.1 139.75 10.3 140.2 10.45 140.7 10.8 141.1 11.15 141.5 11.65 141.85 12.15 142.15 12.75
M 107.7 28.7
Q 107.35 28.6 106.95 28.6
L 105.6 28.6
Q 105.05 28.6 104.7 28.7 104.35 28.8 104.15 29 103.95 29.25 103.8 29.6 103.7 29.95 103.7 30.4
L 103.7 32
Q 103.7 32.5 103.8 32.8 103.95 33.15 104.15 33.3 104.35 33.4 104.7 33.5 105.05 33.55 105.6 33.55
L 106.3 33.55
Q 106.2 33.75 105.9 34.3 105.7 34.5 105.5 34.7 105.25 34.9 104.9 35.1 104.75 35.2 104.6 35.35 104.4 35.45 104.3 35.6 104.15 35.7 104.1 35.8 104 35.9 104 36.1 104 36.3 104.1 36.55 104.15 36.75 104.3 36.9 104.4 37.05 104.5 37.2 104.65 37.25 104.8 37.25 104.9 37.25 105.1 37.25 105.3 37.2 105.5 37.15 105.75 37 105.85 36.95 106 36.9 106.05 36.85 106.3 36.75 106.5 36.6 106.75 36.45 107 36.25 107.25 36.05 107.5 35.8 107.7 35.55 107.95 35.25 108.4 34.6 108.7 33.9 108.8 33.45 108.85 33.05 108.9 32.65 108.9 32.2
L 108.9 30.4
Q 108.9 29.95 108.75 29.6 108.65 29.3 108.35 29.05 108.05 28.8 107.7 28.7
M 94.9 8.1
Q 94.9 7.45 94.25 6.95 93.95 6.7 93.65 6.6 93.35 6.45 93.1 6.45 92.65 6.45 92.35 6.55 92 6.65 91.9 6.9 91.7 7.1 91.6 7.35 91.5 7.65 91.4 7.9 91.25 8.2 91.15 8.5 91.05 8.8 90.95 9.15 90.85 9.45 90.75 9.7 90.6 9.95 90.45 10.1 90.2 10.3 89.9 10.45 89.55 10.6 89.25 10.65 88.85 10.7 88.5 10.75 88.1 10.75 87.75 10.75 87.3 10.8 86.95 10.95 86.65 11.1 86.45 11.35 86.15 11.65 86.05 11.95 85.95 12.3 85.95 12.65 85.95 13.05 86.05 13.35 86.15 13.65 86.35 13.95 86.55 14.3 86.85 14.45 87.15 14.6 87.6 14.6
L 90.75 14.6
Q 90.75 16.55 90.75 18.45 90.75 20.4 90.75 22.3 90.75 26.15 90.75 30.05 90.75 30.45 90.95 30.7 91.1 31 91.45 31.25 91.75 31.5 92.15 31.65 92.5 31.8 92.95 31.8 93.05 31.8 93.25 31.75 93.4 31.7 93.55 31.6 93.65 31.55 93.85 31.5 94 31.4 94.15 31.3 94.35 31.2 94.5 31 94.65 30.85 94.75 30.7 94.85 30.55 94.9 30.4 94.95 30.25 94.95 30.05
L 94.95 28.6
Q 94.95 25.95 94.95 23.4 94.95 20.8 94.95 18.3 94.9 15.8 94.9 13.25 94.9 10.7 94.9 8.1
M 73.8 6.35
Q 72.9 6.05 71.9 6.05 70.8 6.1 69.85 6.35 68.9 6.6 68.1 7.05 67.3 7.55 66.6 8.2 65.9 8.9 65.35 9.7 64.8 10.55 64.45 11.6 64.05 12.65 63.75 13.85 63.45 15.05 63.35 16.4 63.2 17.75 63.2 19.2 63.2 20.6 63.3 21.95 63.45 23.25 63.7 24.45 63.95 25.6 64.3 26.65 64.75 27.75 65.3 28.6 65.9 29.5 66.6 30.15 67.3 30.85 68.05 31.3 68.85 31.8 69.8 32.05 70.75 32.3 71.9 32.3 72.9 32.3 73.8 32.05 74.7 31.8 75.55 31.3 76.35 30.85 77.05 30.15 77.75 29.5 78.3 28.6 78.9 27.75 79.35 26.65 79.8 25.6 80.1 24.45 80.35 23.25 80.5 21.95 80.65 20.6 80.65 19.2 80.65 17.8 80.5 16.5 80.35 15.15 80.1 13.95 79.75 12.75 79.3 11.7 78.85 10.7 78.25 9.8 77.65 8.95 77 8.3 76.3 7.6 75.5 7.1 74.7 6.6 73.8 6.35
M 73.8 10.8
Q 74.2 11.15 74.6 11.65 74.95 12.15 75.25 12.75 75.45 13.4 75.65 14.1 75.85 14.8 76.05 15.65 76.2 16.5 76.3 17.35 76.4 18.25 76.4 19.2 76.4 20.15 76.3 21.05 76.25 21.95 76.1 22.75 75.7 24.45 75.25 25.65 75 26.3 74.6 26.8 74.25 27.3 73.8 27.65 73.35 28.05 72.85 28.2 72.4 28.4 71.9 28.4 71.3 28.4 70.8 28.2 70.3 28.05 69.9 27.65 69.05 26.9 68.45 25.65 68.15 25 68 24.25 67.8 23.5 67.7 22.65 67.55 21.85 67.45 21 67.4 20.1 67.4 19.2 67.4 18.25 67.45 17.35 67.55 16.45 67.7 15.6 67.8 14.8 68 14.05 68.2 13.3 68.45 12.7 68.75 12.1 69.15 11.6 69.55 11.15 69.95 10.75 70.35 10.45 70.85 10.3 71.35 10.1 71.9 10.1 72.35 10.1 72.85 10.3 73.3 10.45 73.8 10.8
M 56.6 11.7
Q 56.15 10.7 55.55 9.8 54.95 8.95 54.3 8.3 53.6 7.6 52.8 7.1 52 6.6 51.1 6.35 50.2 6.05 49.2 6.05 48.1 6.1 47.15 6.35 46.2 6.6 45.4 7.05 44.6 7.55 43.9 8.2 43.2 8.9 42.65 9.7 42.1 10.55 41.75 11.6 41.35 12.65 41.05 13.85 40.75 15.05 40.65 16.4 40.5 17.75 40.5 19.2 40.5 20.6 40.6 21.95 40.75 23.25 41 24.45 41.25 25.6 41.6 26.65 42.05 27.75 42.6 28.6 43.2 29.5 43.9 30.15 44.6 30.85 45.35 31.3 46.15 31.8 47.1 32.05 48.05 32.3 49.2 32.3 50.2 32.3 51.1 32.05 52 31.8 52.85 31.3 53.65 30.85 54.35 30.15 55.05 29.5 55.6 28.6 56.2 27.75 56.65 26.65 57.1 25.6 57.4 24.45 57.65 23.25 57.8 21.95 57.95 20.6 57.95 19.2 57.95 17.8 57.8 16.5 57.65 15.15 57.4 13.95 57.05 12.75 56.6 11.7
M 51.1 10.8
Q 51.5 11.15 51.9 11.65 52.25 12.15 52.55 12.75 52.75 13.4 52.95 14.1 53.15 14.8 53.35 15.65 53.5 16.5 53.6 17.35 53.7 18.25 53.7 19.2 53.7 20.15 53.6 21.05 53.55 21.95 53.4 22.75 53 24.45 52.55 25.65 52.3 26.3 51.9 26.8 51.55 27.3 51.1 27.65 50.65 28.05 50.15 28.2 49.7 28.4 49.2 28.4 48.6 28.4 48.1 28.2 47.6 28.05 47.2 27.65 46.35 26.9 45.75 25.65 45.45 25 45.3 24.25 45.1 23.5 45 22.65 44.85 21.85 44.75 21 44.7 20.1 44.7 19.2 44.7 18.25 44.75 17.35 44.85 16.45 45 15.6 45.1 14.8 45.3 14.05 45.5 13.3 45.75 12.7 46.05 12.1 46.45 11.6 46.85 11.15 47.25 10.75 47.65 10.45 48.15 10.3 48.65 10.1 49.2 10.1 49.65 10.1 50.15 10.3 50.6 10.45 51.1 10.8
M 32.35 30.1
Q 32 30 31.5 30
L 30.15 30
Q 29.6 30 29.25 30.1 28.85 30.2 28.65 30.4 28.45 30.6 28.3 30.95 28.2 31.35 28.2 31.85
L 28.2 33.35
Q 28.2 33.85 28.3 34.2 28.45 34.55 28.65 34.75 28.85 34.95 29.25 35 29.6 35.15 30.15 35.15
L 31.6 35.15
Q 32.5 35.15 33 34.7 33.45 34.25 33.45 33.35
L 33.45 31.85
Q 33.45 31.35 33.35 31 33.2 30.7 32.95 30.45 32.7 30.2 32.35 30.1
M 21.45 24.45
Q 21.7 23.25 21.85 21.95 22 20.6 22 19.2 22 17.8 21.85 16.5 21.7 15.15 21.45 13.95 21.1 12.75 20.65 11.7 20.2 10.7 19.6 9.8 19 8.95 18.35 8.3 17.65 7.6 16.85 7.1 16.05 6.6 15.15 6.35 14.25 6.05 13.25 6.05 12.15 6.1 11.2 6.35 10.25 6.6 9.45 7.05 8.65 7.55 7.95 8.2 7.25 8.9 6.7 9.7 6.15 10.55 5.8 11.6 5.4 12.65 5.1 13.85 4.8 15.05 4.7 16.4 4.55 17.75 4.55 19.2 4.55 20.6 4.65 21.95 4.8 23.25 5.05 24.45 5.3 25.6 5.65 26.65 6.1 27.75 6.65 28.6 7.25 29.5 7.95 30.15 8.65 30.85 9.4 31.3 10.2 31.8 11.15 32.05 12.1 32.3 13.25 32.3 14.25 32.3 15.15 32.05 16.05 31.8 16.9 31.3 17.7 30.85 18.4 30.15 19.1 29.5 19.65 28.6 20.25 27.75 20.7 26.65 21.15 25.6 21.45 24.45
M 13.25 10.1
Q 13.7 10.1 14.2 10.3 14.65 10.45 15.15 10.8 15.55 11.15 15.95 11.65 16.3 12.15 16.6 12.75 16.8 13.4 17 14.1 17.2 14.8 17.4 15.65 17.55 16.5 17.65 17.35 17.75 18.25 17.75 19.2 17.75 20.15 17.65 21.05 17.6 21.95 17.45 22.75 17.05 24.45 16.6 25.65 16.35 26.3 15.95 26.8 15.6 27.3 15.15 27.65 14.7 28.05 14.2 28.2 13.75 28.4 13.25 28.4 12.65 28.4 12.15 28.2 11.65 28.05 11.25 27.65 10.4 26.9 9.8 25.65 9.5 25 9.35 24.25 9.15 23.5 9.05 22.65 8.9 21.85 8.8 21 8.75 20.1 8.75 19.2 8.75 18.25 8.8 17.35 8.9 16.45 9.05 15.6 9.15 14.8 9.35 14.05 9.55 13.3 9.8 12.7 10.1 12.1 10.5 11.6 10.9 11.15 11.3 10.75 11.7 10.45 12.2 10.3 12.7 10.1 13.25 10.1 Z"/>
</g>
</defs>

<g transform="matrix( 1, 0, 0, 1, 0,0) ">
<use xlink:href="#Layer0_0_FILL"/>
</g>
</svg>
