
<svg xmlns="http://www.w3.org/2000/svg" version="1.1" xmlns:xlink="http://www.w3.org/1999/xlink" preserveAspectRatio="none" x="0px" y="0px" width="1201px" height="324px" viewBox="0 0 1201 324">
<defs>
<path id="Layer0_0_1_STROKES" stroke="#332D2B" stroke-width="3" stroke-linejoin="round" stroke-linecap="butt" fill="none" d="
M 971.95 56.1
L 865.7 56.1 865.7 268.75 971.95 268.75 971.95 56.1 Z
M 611.95 97.35
L 745.55 144.6 630.7 227.5 497.1 180.35 611.95 97.35 Z
M 282.6 109.6
L 69.95 109.6 164.45 215.35 376.95 215.35 282.6 109.6 Z"/>

<path id="Layer0_0_2_STROKES" stroke="#BBDECB" stroke-width="5" stroke-linejoin="round" stroke-linecap="butt" fill="none" d="
M 17.5 2.5
L 1184.45 2.5
Q 1199.45 2.5 1199.45 17.5
L 1199.45 307.45
Q 1199.45 322.45 1184.45 322.45
L 17.5 322.45
Q 2.5 322.45 2.5 307.45
L 2.5 17.5
Q 2.5 2.5 17.5 2.5 Z"/>
</defs>

<g transform="matrix( 1, 0, 0, 1, 0,0) ">
<use xlink:href="#Layer0_0_1_STROKES"/>

<use xlink:href="#Layer0_0_2_STROKES"/>
</g>
</svg>
