
<svg xmlns="http://www.w3.org/2000/svg" version="1.1" xmlns:xlink="http://www.w3.org/1999/xlink" preserveAspectRatio="none" x="0px" y="0px" width="389px" height="116px" viewBox="0 0 389 116">
<defs>
<g id="Layer0_0_FILL">
<path fill="#1E1E1E" stroke="none" d="
M 373.55 107.5
Q 373.25 107.4 372.85 107.4
L 371.65 107.4
Q 371.2 107.4 370.9 107.45 370.55 107.55 370.4 107.75 370.2 107.9 370.1 108.25 370 108.55 370 108.95
L 370 110.25
Q 370 110.7 370.1 111 370.2 111.3 370.4 111.45 370.55 111.65 370.9 111.7 371.2 111.8 371.65 111.8
L 372.9 111.8
Q 373.7 111.8 374.1 111.4 374.5 111 374.5 110.25
L 374.5 108.95
Q 374.5 108.55 374.4 108.25 374.3 108 374.1 107.75 373.85 107.6 373.55 107.5
M 355.25 85.95
Q 354.95 86.05 354.85 86.3 354.75 86.55 354.75 86.9
L 354.75 111.25
Q 354.75 111.7 354.85 111.95 354.95 112.2 355.25 112.35 355.5 112.45 355.75 112.5 356.05 112.55 356.35 112.6 356.7 112.55 357 112.5 357.35 112.45 357.6 112.35 357.8 112.2 357.9 111.95 358.05 111.7 358.05 111.25
L 358.05 98.6 360.65 98.6 360.65 112.1
Q 360.65 112.5 360.75 112.75 360.85 113 361.05 113.15 361.25 113.25 361.55 113.3 361.85 113.4 362.25 113.4 362.6 113.4 362.9 113.3 363.15 113.25 363.4 113.15 363.6 113 363.75 112.75 363.85 112.5 363.85 112.1
L 363.85 86.4
Q 363.85 86 363.75 85.75 363.6 85.5 363.4 85.35 363.15 85.25 362.9 85.2 362.6 85.15 362.25 85.15 361.85 85.15 361.55 85.2 361.25 85.25 361.05 85.35 360.85 85.5 360.75 85.75 360.65 86 360.65 86.4
L 360.65 95.4 358.05 95.4 358.05 86.9
Q 358.05 86.2 357.6 85.95 357.35 85.8 357 85.75 356.7 85.7 356.35 85.7 356.05 85.7 355.75 85.75 355.5 85.8 355.25 85.95
M 343.35 94.1
Q 342.9 94.45 342.5 94.9 342.15 95.3 341.85 95.85 341.6 96.35 341.4 96.95 341.15 97.55 341.05 98.2 340.95 98.85 340.95 99.55 340.95 100.2 341.05 100.85 341.15 101.45 341.4 102.05 341.6 102.65 341.85 103.15 342.15 103.7 342.5 104.1 342.9 104.55 343.35 104.9 343.85 105.25 344.35 105.5 344.85 105.8 345.45 105.9 346.05 106.05 346.65 106.05 347.3 106.05 347.9 105.9 348.45 105.75 348.95 105.5 349.45 105.25 349.95 104.9 350.4 104.55 350.85 104.1 351.5 103.25 351.95 102 352.1 101.45 352.25 100.8 352.35 100.2 352.35 99.55 352.35 98.85 352.25 98.2 352.1 97.6 351.95 97 351.7 96.4 351.45 95.9 351.15 95.4 350.85 94.95 349.95 94.05 348.95 93.5 348.45 93.25 347.9 93.1 347.3 93 346.65 93 346.05 93 345.45 93.1 344.85 93.25 344.35 93.5 343.85 93.75 343.35 94.1
M 344.6 98.25
Q 344.75 97.65 345.05 97.15 345.3 96.7 345.7 96.45 346.1 96.2 346.65 96.2 346.9 96.2 347.15 96.25 347.35 96.35 347.6 96.45 348 96.75 348.3 97.2 348.4 97.45 348.5 97.7 348.6 97.95 348.7 98.25 348.75 98.55 348.8 98.9 348.85 99.2 348.85 99.55 348.85 99.85 348.8 100.15 348.75 100.5 348.7 100.8 348.6 101.1 348.5 101.35 348.4 101.6 348.3 101.85 348 102.35 347.6 102.55 347.35 102.7 347.15 102.75 346.9 102.8 346.65 102.8 346.15 102.8 345.75 102.55 345.35 102.3 345.05 101.85 344.75 101.4 344.6 100.8 344.45 100.2 344.45 99.55 344.45 98.8 344.6 98.25
M 344.15 88.35
Q 343.65 88.35 343.15 88.35 342.7 88.35 342.2 88.35 341.7 88.35 341.15 88.35 340.85 88.35 340.6 88.45 340.4 88.55 340.25 88.75 340.1 89 340 89.3 339.95 89.6 339.95 89.95 339.95 90.25 340 90.5 340.1 90.8 340.25 91 340.4 91.25 340.6 91.35 340.85 91.5 341.15 91.5 342.5 91.5 343.85 91.5 345.2 91.5 346.55 91.5 347.85 91.5 349.2 91.5 350.55 91.5 351.85 91.5
L 352.05 91.5
Q 352.35 91.5 352.6 91.4 352.85 91.25 353.05 91 353.25 90.8 353.3 90.5 353.4 90.25 353.4 89.95 353.4 89.65 353.3 89.35 353.25 89.05 353.05 88.8 352.85 88.6 352.6 88.45 352.35 88.35 352.05 88.35
L 348.4 88.35 348.4 85.8
Q 348.4 85 347.85 84.75 347.55 84.6 347.3 84.55 347.05 84.5 346.75 84.5 346.35 84.5 346.05 84.55 345.75 84.6 345.5 84.75 345.25 84.85 345.15 85.15 345.05 85.4 345.05 85.8
L 345.05 88.35
Q 344.6 88.35 344.15 88.35
M 306.9 88
Q 306.65 88.05 306.45 88.15 306.25 88.3 306.1 88.5 305.9 88.7 305.8 89 305.75 89.25 305.75 89.55 305.75 90.25 306.05 90.65 306.35 91.1 306.9 91.2
L 318.5 91.2
Q 318.75 91.2 319 91.2 319.2 91.2 319.45 91.2 319.6 91.2 319.8 91.2 320.05 91.25 320.3 91.25 320.3 92.5 320.25 93.7 320.2 94.95 320.1 96.25 319.85 98.9 319.45 101.5
L 319.45 101.65
Q 319.45 102 319.6 102.25 319.75 102.5 320 102.65 320.25 102.85 320.6 102.9 320.95 103 321.35 103 321.6 103 321.9 102.95 322.1 102.85 322.4 102.75 322.6 102.6 322.75 102.4 322.95 102.2 322.95 101.9 323.1 100.5 323.25 99.05 323.35 97.6 323.45 96.2 323.5 94.8 323.55 93.45 323.55 92.1 323.55 90.75 323.55 90.2 323.4 89.7 323.25 89.2 322.95 88.8 322.7 88.4 322.3 88.2 321.9 88 321.4 88
L 306.9 88
M 326.8 108.8
Q 327.1 108.8 327.3 108.7 327.55 108.55 327.7 108.3 327.85 108.1 327.95 107.85 328 107.55 328 107.25 328 106.9 327.95 106.65 327.85 106.35 327.7 106.1 327.35 105.65 326.8 105.65
L 314.6 105.65 314.6 98.6
Q 314.6 98.2 314.45 97.95 314.35 97.7 314.1 97.6 313.8 97.45 313.55 97.4 313.3 97.35 313 97.35 312.55 97.35 312.25 97.4 311.9 97.45 311.65 97.6 311.35 97.7 311.2 97.95 311.05 98.2 311.05 98.6
L 311.05 105.65 303.1 105.65
Q 302.35 105.65 302.1 106.1 301.95 106.35 301.85 106.65 301.8 106.9 301.8 107.25 301.8 107.55 301.85 107.85 301.95 108.1 302.1 108.3 302.25 108.55 302.45 108.7 302.7 108.8 303.1 108.8
L 326.8 108.8
M 294.85 85.2
Q 294.55 85.1 294.25 85.05 293.9 84.95 293.55 84.95 293.25 84.95 292.95 85.05 292.65 85.1 292.35 85.2 292.05 85.35 291.95 85.6 291.8 85.85 291.8 86.25
L 291.8 112
Q 291.8 112.4 291.95 112.65 292.05 112.9 292.35 113 292.65 113.15 292.95 113.2 293.25 113.25 293.55 113.25 293.9 113.25 294.25 113.2 294.55 113.15 294.85 113 295.05 112.9 295.2 112.65 295.35 112.4 295.35 112
L 295.35 98.6 298.55 98.6
Q 298.95 98.6 299.25 98.45 299.5 98.35 299.6 98.1 299.7 97.85 299.75 97.55 299.8 97.3 299.8 97 299.8 96.65 299.75 96.35 299.7 96.05 299.6 95.85 299.5 95.6 299.25 95.5 298.95 95.4 298.55 95.4
L 295.35 95.4 295.35 86.25
Q 295.35 85.85 295.2 85.6 295.05 85.35 294.85 85.2
M 283.1 90.7
Q 283.35 90.7 283.35 90.95
L 283.35 94.65
Q 283.35 94.8 283.35 94.9 283.3 94.95 283.2 94.95
L 279.15 94.95
Q 278.25 94.95 277.6 95.15 276.9 95.3 276.45 95.6 275.95 96 275.75 96.55 275.5 97.1 275.5 97.9
L 275.5 102.35
Q 275.5 102.9 275.55 103.35 275.6 103.8 275.75 104.15 275.85 104.55 276.05 104.85 276.25 105.15 276.55 105.3 276.75 105.55 277.05 105.7 277.35 105.8 277.7 105.9 278 106 278.4 106.05 278.75 106.1 279.2 106.1 281.7 106.05 283.95 105.85 285.05 105.8 286.15 105.65 287.25 105.55 288.4 105.35 288.75 105.35 289.05 105.25 289.35 105.15 289.5 104.9 289.7 104.7 289.75 104.4 289.85 104.1 289.85 103.7
L 289.85 103.55
Q 289.85 103.5 289.85 103.45
L 289.8 103.4 289.75 103.4
Q 289.7 103.05 289.55 102.8 289.45 102.55 289.25 102.4 289.05 102.3 288.8 102.2 288.55 102.15 288.35 102.15 288.25 102.15 288.2 102.15 288.1 102.2 288.05 102.2 288 102.2 287.95 102.2 286.85 102.35 285.75 102.5 284.65 102.6 283.55 102.7 282.4 102.8 281.35 102.9 280.25 102.95 279.2 102.95 279.1 102.75 279 102.45 278.95 102.3 278.95 102.15 278.9 102 278.9 101.85
L 278.9 99.25
Q 278.9 98.7 279.1 98.15 279.25 98.15 279.4 98.15 279.55 98.15 279.7 98.1 279.95 98.1 280.4 98.1
L 283.25 98.1
Q 283.55 98.1 283.9 98.05 284.2 98 284.55 97.85 284.85 97.75 285.15 97.6 285.45 97.45 285.75 97.2 285.95 97 286.15 96.75 286.35 96.5 286.5 96.15 286.7 95.85 286.75 95.55 286.85 95.2 286.9 94.85
L 286.9 91.4
Q 286.9 90.45 286.65 89.7 286.45 88.95 286 88.5 285.55 88.05 284.85 87.8 284.15 87.55 283.2 87.55
L 277.05 87.55
Q 276.55 87.55 276.25 87.6 275.95 87.7 275.8 87.8 275.6 88 275.5 88.3 275.45 88.65 275.45 89.15 275.45 89.6 275.5 89.9 275.6 90.2 275.8 90.35 275.95 90.5 276.25 90.6 276.55 90.7 277.05 90.7
L 283.1 90.7
M 264.55 85.8
Q 264.45 86.05 264.45 86.45
L 264.45 111.9
Q 264.45 112.3 264.55 112.55 264.65 112.85 264.9 113 265.15 113.1 265.45 113.2 265.75 113.25 266.15 113.25 266.5 113.25 266.8 113.2 267.1 113.1 267.35 113 267.55 112.85 267.7 112.55 267.85 112.3 267.85 111.9
L 267.85 86.45
Q 267.85 86.05 267.7 85.8 267.55 85.5 267.35 85.35 267.1 85.25 266.8 85.15 266.5 85.1 266.15 85.1 265.75 85.1 265.45 85.15 265.15 85.25 264.9 85.35 264.65 85.5 264.55 85.8
M 252.2 87.2
Q 251.4 87.2 250.7 87.35 250 87.5 249.35 87.8 248.7 88.15 248.15 88.6 247.6 89.05 247.15 89.6 246.65 90.2 246.3 90.95 245.9 91.65 245.7 92.45 245.4 93.35 245.3 94.3 245.15 95.25 245.15 96.3 245.15 97.4 245.3 98.35 245.4 99.3 245.7 100.15 245.9 101 246.3 101.7 246.65 102.4 247.15 102.95 247.6 103.55 248.15 104 248.7 104.45 249.35 104.75 250 105.05 250.7 105.2 251.4 105.35 252.2 105.35 253.7 105.35 255 104.75 255.6 104.45 256.2 104 256.75 103.55 257.25 102.95 257.7 102.4 258.05 101.7 258.35 101 258.6 100.15 258.8 99.3 258.9 98.35 259 97.4 259 96.3 259 95.25 258.9 94.3 258.8 93.35 258.6 92.45 258.35 91.65 258.05 90.95 257.7 90.2 257.25 89.6 256.25 88.45 255 87.8 253.7 87.2 252.2 87.2
M 250.7 90.75
Q 251.35 90.35 252.25 90.35 253 90.35 253.65 90.75 254.3 91.15 254.8 91.9 255.3 92.75 255.55 93.85 255.8 94.9 255.8 96.3 255.8 97.7 255.55 98.8 255.3 99.9 254.8 100.7 254.3 101.5 253.65 101.9 253 102.3 252.25 102.3 251.35 102.3 250.7 101.9 250.05 101.5 249.55 100.7 249.05 99.9 248.8 98.8 248.55 97.7 248.55 96.3 248.55 94.9 248.8 93.85 249.05 92.75 249.55 91.9 250.05 91.15 250.7 90.75
M 219.65 86.2
Q 219.25 86.2 219 86.35 218.75 86.45 218.65 86.7 218.5 86.9 218.4 87.2 218.35 87.5 218.35 87.8 218.35 88.15 218.4 88.4 218.5 88.65 218.65 88.9 218.75 89.15 219 89.25 219.25 89.35 219.65 89.35
L 226.5 89.35
Q 226.45 89.8 226.35 90.25 226.25 90.65 226.1 91.05 225.95 91.5 225.6 92 225.25 92.5 224.75 93.05 224.4 93.4 224.1 93.7 223.8 94 223.55 94.25 223.25 94.5 223 94.75 222.7 95 222.45 95.2 222.05 95.4 221.7 95.65 221.3 95.85 220.95 96.05 220.55 96.3 220.05 96.5 219.6 96.75 219 97 218.85 97.05 218.7 97.2 218.55 97.3 218.5 97.45 218.4 97.65 218.35 97.8 218.3 98 218.3 98.2 218.3 98.6 218.4 98.9 218.5 99.2 218.7 99.5 218.85 99.75 219.1 99.9 219.35 100.05 219.7 100.05
L 219.9 100.05
Q 219.95 100.05 220 100.05 220.05 100.05 220.1 100 221.25 99.7 222.25 99.2 223.3 98.7 224.3 98.05 225.2 97.4 226.05 96.65 226.85 95.95 227.55 95.15 228.9 93.6 229.6 91.9 229.95 91.05 230.15 90.3 230.35 89.55 230.35 88.9 230.35 87.55 229.6 86.9 229.25 86.6 228.75 86.4 228.3 86.2 227.65 86.2
L 219.65 86.2
M 238.55 104.35
Q 238.55 103.75 238.35 103.25 238.15 102.75 237.7 102.4 237.2 102.05 236.65 101.9 236.15 101.7 235.55 101.7
L 223.9 101.7
Q 223.5 101.7 223.25 101.85 223 101.95 222.85 102.15 222.7 102.4 222.65 102.65 222.55 102.95 222.55 103.3 222.55 103.6 222.65 103.9 222.7 104.15 222.85 104.35 223 104.6 223.25 104.75 223.5 104.85 223.9 104.85
L 233.4 104.85
Q 233.75 104.85 234.15 104.9 234.55 104.95 235.05 104.95
L 235.05 112.15
Q 235.05 112.45 235.15 112.7 235.3 112.95 235.6 113.1 235.9 113.25 236.15 113.35 236.4 113.45 236.65 113.45 236.85 113.45 237 113.4 237.2 113.4 237.35 113.35 237.5 113.3 237.6 113.25 237.75 113.2 237.9 113.1 238.05 113 238.15 112.9 238.25 112.8 238.35 112.7 238.45 112.55 238.5 112.4 238.55 112.3 238.55 112.15
L 238.55 104.35
M 238.65 86.25
Q 238.65 85.85 238.5 85.6 238.4 85.4 238.15 85.25 237.9 85.15 237.6 85.05 237.25 85 236.9 85 236.6 85 236.3 85.05 236 85.15 235.7 85.25 235.4 85.4 235.25 85.6 235.05 85.85 235.05 86.25
L 235.05 98.75
Q 235.05 99.15 235.2 99.4 235.3 99.65 235.6 99.75 235.8 99.9 236.05 99.95 236.3 100 236.5 100 236.65 100.05 236.85 100 237.05 100 237.25 99.95 237.45 99.95 237.6 99.95 237.75 99.9 237.85 99.8 238 99.75 238.15 99.6 238.25 99.45 238.4 99.3 238.5 99.15 238.55 99 238.65 98.8 238.65 98.6
L 238.65 94.15 241.55 94.15
Q 241.95 94.15 242.25 94.05 242.5 93.9 242.6 93.65 242.8 93.25 242.8 92.6 242.8 92.25 242.75 91.95 242.7 91.65 242.6 91.45 242.5 91.25 242.25 91.15 241.95 91.05 241.55 91.05
L 238.65 91.05 238.65 86.25
M 368.25 64.15
Q 368.25 63.95 368.2 63.8 368.15 63.65 368.05 63.55 367.95 63.4 367.85 63.3 367.7 63.2 367.55 63.1 367.4 63.05 367.25 63 367.1 62.95 367 62.9 366.8 62.85 366.65 62.85 366.5 62.8 366.3 62.8 366.05 62.8 365.8 62.9 365.5 63 365.25 63.15 364.95 63.3 364.8 63.55 364.65 63.8 364.65 64.15
L 364.65 69.4
Q 364.65 69.95 364.8 70.4 364.95 70.85 365.3 71.15 365.6 71.5 366.1 71.65 366.55 71.8 367.15 71.8
L 380 71.8
Q 380.35 71.8 380.6 71.7 380.9 71.6 381 71.35 381.15 71.15 381.2 70.85 381.3 70.55 381.3 70.25 381.3 69.95 381.2 69.65 381.15 69.35 381 69.15 380.9 68.9 380.6 68.75 380.35 68.65 380 68.65
L 369.65 68.65
Q 369.5 68.65 369.3 68.65 369.15 68.6 368.95 68.55 368.7 68.55 368.55 68.55 368.4 68.5 368.25 68.5
L 368.25 64.15
M 359.25 58.7
Q 359.25 59 359.3 59.25 359.4 59.5 359.5 59.7 359.6 59.9 359.9 60 360.15 60.1 360.65 60.1
L 384.65 60.1
Q 385.05 60.1 385.3 60 385.6 59.9 385.7 59.7 385.8 59.5 385.85 59.25 385.9 59 385.9 58.7 385.9 58.35 385.85 58.05 385.8 57.75 385.7 57.55 385.6 57.3 385.3 57.2 385.05 57.05 384.65 57.05
L 360.65 57.05
Q 360.15 57.05 359.9 57.2 359.6 57.3 359.5 57.55 359.4 57.75 359.3 58.05 359.25 58.35 359.25 58.7
M 367.65 46.4
Q 367.65 46.05 367.45 45.75 367.35 45.65 367.3 45.55 367.2 45.45 367.1 45.4 366.95 45.25 366.8 45.2 366.65 45.1 366.45 45.05 366.3 45 366.15 45 366 44.95 365.9 44.95 365.6 44.95 365.3 45.05 365 45.15 364.75 45.3 364.45 45.45 364.35 45.75 364.2 46.05 364.2 46.4
L 364.2 50.55
Q 364.2 51.4 364.4 52 364.6 52.6 365.05 52.95 365.45 53.35 366.1 53.55 366.7 53.75 367.55 53.7 369.15 53.7 370.8 53.7 372.4 53.7 373.95 53.7 375.5 53.75 377.1 53.75 378.65 53.75 380.2 53.75 380.55 53.75 380.85 53.65 381.15 53.5 381.3 53.3 381.45 53.1 381.55 52.8 381.65 52.55 381.65 52.15 381.65 51.9 381.55 51.65 381.45 51.4 381.3 51.15 381.15 50.9 380.85 50.8 380.55 50.7 380.2 50.7 378.8 50.7 377.45 50.7 376.1 50.7 374.8 50.65 373.45 50.65 372.05 50.65 370.7 50.65 369.35 50.65 368.35 50.65 367.65 50.5
L 367.65 46.4
M 345.85 60.15
Q 346 59.5 346 58.85 346 58.15 345.85 57.5 345.7 56.85 345.45 56.25 345.15 55.65 344.8 55.15 344.45 54.6 344.05 54.15 343.65 53.75 343.15 53.4 342.65 53 342.05 52.75 341.4 52.55 340.75 52.4 340.05 52.3 339.35 52.3 338.55 52.3 337.85 52.4 337.2 52.55 336.6 52.8 335.95 53.05 335.45 53.4 334.95 53.75 334.55 54.2 334.1 54.6 333.75 55.15 333.4 55.65 333.15 56.25 332.9 56.85 332.8 57.5 332.65 58.15 332.65 58.85 332.65 59.5 332.8 60.15 332.9 60.75 333.15 61.35 333.4 61.95 333.75 62.45 334.1 63 334.55 63.4 334.95 63.85 335.45 64.2 335.95 64.55 336.6 64.8 337.2 65.1 337.85 65.2 338.55 65.35 339.35 65.35 340.05 65.35 340.75 65.2 341.4 65.1 342.05 64.8 342.65 64.55 343.15 64.25 343.65 63.9 344.05 63.45 344.45 63 344.8 62.5 345.15 61.95 345.45 61.35 345.7 60.8 345.85 60.15
M 338 61.85
Q 337.45 61.6 337.05 61.15 336.65 60.65 336.45 60.05 336.25 59.5 336.25 58.85 336.25 58.15 336.45 57.55 336.65 56.95 337.05 56.45 337.45 56 338 55.75 338.6 55.5 339.35 55.5 340 55.5 340.55 55.75 341.1 55.95 341.55 56.4 341.95 56.9 342.15 57.5 342.4 58.1 342.4 58.85 342.4 59.55 342.15 60.15 341.95 60.7 341.55 61.15 341.1 61.65 340.55 61.85 340 62.1 339.35 62.1 338.6 62.1 338 61.85
M 349.7 44.9
Q 349.55 45.15 349.55 45.55
L 349.55 71.25
Q 349.55 71.65 349.7 71.9 349.8 72.15 350.1 72.3 350.65 72.55 351.3 72.55 351.65 72.55 352 72.5 352.3 72.4 352.6 72.3 352.8 72.15 352.95 71.9 353.1 71.65 353.1 71.25
L 353.1 57.9 356.3 57.9
Q 356.7 57.9 357 57.75 357.25 57.65 357.35 57.4 357.45 57.15 357.5 56.85 357.55 56.6 357.55 56.3 357.55 55.95 357.5 55.65 357.45 55.35 357.35 55.15 357.25 54.9 357 54.8 356.7 54.7 356.3 54.7
L 353.1 54.7 353.1 45.55
Q 353.1 45.15 352.95 44.9 352.8 44.65 352.6 44.5 352.3 44.4 352 44.35 351.65 44.25 351.3 44.25 351 44.25 350.7 44.35 350.4 44.4 350.1 44.5 349.8 44.65 349.7 44.9
M 332.45 47.65
Q 332.15 47.65 331.9 47.8 331.7 47.95 331.55 48.2 331.35 48.45 331.3 48.75 331.2 49.05 331.2 49.4 331.2 49.7 331.3 49.95 331.35 50.25 331.55 50.45 331.7 50.7 331.9 50.8 332.15 50.95 332.45 50.95 334.2 50.95 335.9 50.95 337.55 50.95 339.25 50.95 340.85 50.95 342.55 50.95 344.25 50.95 346 50.95
L 346.15 50.95
Q 346.55 50.95 346.75 50.85 347 50.7 347.15 50.5 347.25 50.25 347.35 50 347.4 49.7 347.4 49.4 347.4 49.05 347.35 48.75 347.25 48.45 347.15 48.2 347 47.95 346.75 47.8 346.55 47.7 346.15 47.7
L 341.15 47.7 341.15 45.65
Q 341.15 45.25 341 44.95 340.85 44.7 340.6 44.55 340.25 44.4 340 44.3 339.7 44.25 339.4 44.25 339.05 44.25 338.7 44.3 338.35 44.4 338.05 44.55 337.75 44.7 337.6 44.95 337.45 45.25 337.45 45.65
L 337.45 47.7
Q 336.85 47.7 336.2 47.7 335.6 47.7 334.95 47.65 333.7 47.65 332.45 47.65
M 324.15 71.8
Q 324.4 71.75 324.65 71.6 324.9 71.45 325.05 71.15 325.15 70.9 325.15 70.5 325.15 70.3 325.1 70.1 325.05 69.85 324.95 69.7 324.85 69.45 324.65 69.35 324.45 69.2 324.15 69.15 323.55 68.95 322.95 68.75 322.35 68.5 321.8 68.25 321.15 68.05 320.65 67.8 320.1 67.5 319.65 67.15 319.15 66.85 318.75 66.5 318.35 66.15 318.05 65.75 317.75 65.35 317.55 64.9 317.45 64.5 317.45 64 317.45 62.9 317.05 62.3 316.65 61.75 315.9 61.75 315.75 61.75 315.6 61.75 315.45 61.8 315.3 61.8 315.15 61.8 315 61.85 314.8 61.95 314.65 62.05 314.2 62.25 314.05 62.65 313.9 62.9 313.85 63.2 313.8 63.5 313.8 63.85
L 313.8 63.95
Q 313.65 64.5 313.4 65 313.2 65.45 312.85 65.85 312.5 66.3 312.15 66.65 311.75 67 311.3 67.25 310.8 67.55 310.25 67.85 309.7 68.1 309.15 68.3 308.55 68.5 307.95 68.75 307.35 69 306.75 69.2
L 306.7 69.2
Q 306.25 69.35 306 69.65 305.8 69.95 305.8 70.45 305.8 70.8 305.9 71.05 306 71.35 306.25 71.55 306.45 71.75 306.7 71.9 306.95 72 307.3 72 307.35 72 307.4 72 307.5 71.95 307.55 71.95 307.6 71.9 307.65 71.9 307.7 71.9 307.75 71.9 308.5 71.65 309.15 71.4 309.8 71.2 310.4 71 311 70.8 311.5 70.55 312.1 70.3 312.6 70.1 313.05 69.85 313.45 69.6 313.85 69.3 314.2 69.05 314.55 68.8 314.9 68.45 315.15 68.1 315.45 67.7 316 68.4 316.75 69 317.5 69.55 318.4 69.95 319.25 70.35 320.25 70.75 321.25 71.15 322.45 71.65 322.75 71.75 323.1 71.8 323.4 71.85 323.8 71.9 323.95 71.9 324.15 71.8
M 324.2 50.85
Q 324.4 50.35 324.4 49.75 324.4 49.15 324.2 48.6 324.1 48.05 323.8 47.6 323.45 47.1 323.05 46.7 322.65 46.3 322.1 45.95 320.95 45.3 319.3 44.95 318.5 44.8 317.55 44.7 316.6 44.6 315.55 44.6 314.6 44.6 313.7 44.7 312.8 44.8 312 44.95 311.15 45.15 310.45 45.4 309.75 45.65 309.15 45.95 308.6 46.3 308.15 46.7 307.7 47.1 307.4 47.6 306.8 48.55 306.8 49.75 306.8 50.95 307.4 51.9 307.7 52.4 308.15 52.8 308.6 53.15 309.15 53.45 309.75 53.8 310.45 54.05 311.15 54.3 312 54.45 312.8 54.65 313.7 54.7 314.6 54.8 315.55 54.8 316.6 54.8 317.55 54.7 318.5 54.65 319.3 54.45 320.1 54.3 320.8 54.05 321.5 53.8 322.1 53.45 322.65 53.15 323.05 52.8 323.45 52.4 323.8 51.9 324.1 51.4 324.2 50.85
M 311.85 48.3
Q 312.55 48.05 313.5 47.95 314.4 47.8 315.55 47.8 316.8 47.8 317.75 47.95 318.7 48.05 319.45 48.3 320.85 48.8 320.85 49.75 320.85 50.2 320.5 50.55 320.15 50.9 319.45 51.15 318 51.7 315.55 51.7 314.4 51.7 313.5 51.55 312.55 51.4 311.85 51.15 311.1 50.9 310.75 50.55 310.35 50.2 310.35 49.75 310.35 49.25 310.75 48.9 311.1 48.55 311.85 48.3
M 327.8 59.3
Q 328.15 59.3 328.4 59.2 328.65 59.1 328.75 58.9 328.9 58.55 328.9 57.9 328.9 57.6 328.85 57.35 328.8 57.1 328.75 56.9 328.65 56.75 328.4 56.65 328.15 56.55 327.8 56.55
L 303.45 56.55
Q 303.1 56.55 302.85 56.65 302.6 56.75 302.5 56.9 302.4 57.1 302.3 57.35 302.25 57.6 302.25 57.9 302.25 58.25 302.3 58.5 302.4 58.7 302.5 58.9 302.6 59.1 302.85 59.2 303.1 59.3 303.45 59.3
L 313.85 59.3 313.85 60.25
Q 313.85 61 314.4 61.15 314.65 61.3 314.95 61.35 315.2 61.4 315.55 61.4 315.9 61.4 316.25 61.35 316.6 61.3 316.9 61.15 317.15 61.05 317.3 60.85 317.45 60.65 317.45 60.25
L 317.45 59.3 327.8 59.3
M 297.1 45.75
Q 297.1 45.35 296.95 45.1 296.8 44.8 296.6 44.65 296.35 44.55 296.05 44.45 295.75 44.4 295.4 44.4 295 44.4 294.7 44.45 294.4 44.55 294.15 44.65 293.9 44.8 293.8 45.1 293.7 45.35 293.7 45.75
L 293.7 71.2
Q 293.7 71.6 293.8 71.85 293.9 72.15 294.15 72.3 294.4 72.4 294.7 72.5 295 72.55 295.4 72.55 295.75 72.55 296.05 72.5 296.35 72.4 296.6 72.3 296.8 72.15 296.95 71.85 297.1 71.6 297.1 71.2
L 297.1 45.75
M 286.5 48.9
Q 285.5 47.75 284.25 47.1 282.95 46.5 281.45 46.5 280.65 46.5 279.95 46.65 279.25 46.8 278.6 47.1 277.95 47.45 277.4 47.9 276.85 48.35 276.4 48.9 275.9 49.5 275.55 50.25 275.15 50.95 274.95 51.75 274.65 52.65 274.55 53.6 274.4 54.55 274.4 55.6 274.4 56.7 274.55 57.65 274.65 58.6 274.95 59.45 275.15 60.3 275.55 61 275.9 61.7 276.4 62.25 276.85 62.85 277.4 63.3 277.95 63.75 278.6 64.05 279.25 64.35 279.95 64.5 280.65 64.65 281.45 64.65 282.95 64.65 284.25 64.05 284.85 63.75 285.45 63.3 286 62.85 286.5 62.25 286.95 61.7 287.3 61 287.6 60.3 287.85 59.45 288.05 58.6 288.15 57.65 288.25 56.7 288.25 55.6 288.25 54.55 288.15 53.6 288.05 52.65 287.85 51.75 287.6 50.95 287.3 50.25 286.95 49.5 286.5 48.9
M 278.8 51.2
Q 279.3 50.45 279.95 50.05 280.6 49.65 281.5 49.65 282.25 49.65 282.9 50.05 283.55 50.45 284.05 51.2 284.55 52.05 284.8 53.15 285.05 54.2 285.05 55.6 285.05 57 284.8 58.1 284.55 59.2 284.05 60 283.55 60.8 282.9 61.2 282.25 61.6 281.5 61.6 280.6 61.6 279.95 61.2 279.3 60.8 278.8 60 278.3 59.2 278.05 58.1 277.8 57 277.8 55.6 277.8 54.2 278.05 53.15 278.3 52.05 278.8 51.2
M 261.4 59.05
Q 261.85 59.05 262.1 58.95 262.35 58.85 262.45 58.65 262.5 58.45 262.5 58.2 262.55 57.95 262.55 57.6 262.55 57.3 262.5 57 262.5 56.7 262.45 56.5 262.35 56.3 262.1 56.15 261.85 56.05 261.4 56.05
L 237.15 56.05
Q 236.7 56.05 236.45 56.15 236.2 56.3 236.15 56.5 236 56.7 235.95 57 235.9 57.3 235.9 57.6 235.9 57.95 235.95 58.2 236 58.45 236.15 58.65 236.2 58.85 236.45 58.95 236.7 59.05 237.15 59.05
L 261.4 59.05
M 255.65 60.9
Q 255.05 60.8 254.6 60.8
L 242.3 60.8
Q 241.9 60.8 241.65 60.9 241.4 61 241.3 61.2 241.15 61.45 241.05 61.7 241 62 241 62.3 241 62.6 241.05 62.85 241.15 63.1 241.3 63.25 241.55 63.6 242.3 63.6
L 253.8 63.6
Q 253.85 63.75 253.85 63.85 253.9 64 253.9 64.2
L 253.9 64.45
Q 253.9 64.7 253.85 64.8 253.85 64.95 253.8 65.05
L 243.95 65.05
Q 243.65 65.05 243.4 65.05 243.15 65.1 242.9 65.1 242.65 65.2 242.4 65.25 242.15 65.35 242 65.5 241.7 65.6 241.55 65.8 241.4 65.95 241.3 66.2 241.15 66.45 241.15 66.7 241.1 66.95 241.1 67.2
L 241.1 70.4
Q 241.1 70.7 241.15 70.9 241.15 71.15 241.3 71.35 241.4 71.5 241.55 71.65 241.7 71.8 242 71.9 242.15 72 242.4 72.05 242.65 72.15 242.9 72.2 243.15 72.25 243.4 72.25 243.65 72.25 243.95 72.25
L 256.5 72.25
Q 257.15 72.25 257.45 71.9 257.8 71.6 257.8 70.9 257.8 70.15 257.45 69.8 257.15 69.45 256.5 69.45
L 244.75 69.45
Q 244.65 69.3 244.6 69.15 244.6 69 244.6 68.8
L 244.6 68.45
Q 244.6 68.25 244.6 68.1 244.65 67.9 244.75 67.75
L 254.9 67.75
Q 255.4 67.75 255.9 67.7 256.35 67.6 256.75 67.4 257.15 67.3 257.3 66.95 257.5 66.6 257.5 66.05
L 257.5 62.95
Q 257.5 62.6 257.45 62.35 257.4 62.05 257.3 61.85 257 61.5 256.55 61.2 256.4 61.1 256.15 61 255.9 60.95 255.65 60.9
M 245.65 44.9
Q 244.8 45.1 244.1 45.35 243.4 45.55 242.8 45.85 242.25 46.15 241.8 46.55 241.35 46.95 241.05 47.4 240.45 48.3 240.45 49.45 240.45 50.05 240.55 50.55 240.75 51.1 241.05 51.5 241.35 51.95 241.8 52.3 242.25 52.7 242.85 53 243.45 53.3 244.15 53.55 244.9 53.75 245.75 53.95 246.55 54.1 247.45 54.2 248.35 54.3 249.35 54.35 250.3 54.3 251.25 54.2 252.15 54.1 253 53.9 253.8 53.75 254.5 53.5 255.2 53.3 255.8 52.95 256.3 52.65 256.7 52.3 257.1 51.95 257.45 51.5 257.75 51.1 257.85 50.55 258.05 50.05 258.05 49.45 258.05 48.9 257.85 48.35 257.75 47.85 257.45 47.4 257.1 46.95 256.7 46.55 256.3 46.15 255.75 45.85 255.15 45.55 254.45 45.35 253.75 45.1 252.95 44.9 252.15 44.8 251.2 44.7 250.25 44.6 249.2 44.6 248.25 44.6 247.35 44.7 246.45 44.8 245.65 44.9
M 244 49.45
Q 244 49.05 244.4 48.75 244.75 48.45 245.5 48.25 246.2 48.05 247.15 47.9 248.05 47.8 249.2 47.8 250.45 47.8 251.4 47.9 252.35 48.05 253.1 48.25 253.8 48.45 254.15 48.75 254.5 49.05 254.5 49.45 254.5 49.85 254.15 50.15 253.8 50.45 253.1 50.65 252.35 50.9 251.4 51 250.45 51.1 249.2 51.1 248.05 51.1 247.15 51 246.2 50.9 245.5 50.65 244.75 50.45 244.4 50.15 244 49.85 244 49.45
M 211.05 45.5
Q 210.65 45.5 210.4 45.65 210.15 45.75 210.05 46 209.9 46.2 209.8 46.5 209.75 46.8 209.75 47.1 209.75 47.45 209.8 47.7 209.9 47.95 210.05 48.2 210.15 48.45 210.4 48.55 210.65 48.65 211.05 48.65
L 217.9 48.65
Q 217.85 49.1 217.75 49.55 217.65 49.95 217.5 50.35 217.35 50.8 217 51.3 216.65 51.8 216.15 52.35 215.8 52.7 215.5 53 215.2 53.3 214.95 53.55 214.65 53.8 214.4 54.05 214.1 54.3 213.85 54.5 213.45 54.7 213.1 54.95 212.7 55.15 212.35 55.35 211.95 55.6 211.45 55.8 211 56.05 210.4 56.3 210.25 56.35 210.1 56.5 209.95 56.6 209.9 56.75 209.8 56.95 209.75 57.1 209.7 57.3 209.7 57.5 209.7 57.9 209.8 58.2 209.9 58.5 210.1 58.8 210.25 59.05 210.5 59.2 210.75 59.35 211.1 59.35
L 211.3 59.35
Q 211.35 59.35 211.4 59.35 211.45 59.35 211.5 59.3 212.65 59 213.65 58.5 214.7 58 215.7 57.35 216.6 56.7 217.45 55.95 218.25 55.25 218.95 54.45 220.3 52.9 221 51.2 221.35 50.35 221.55 49.6 221.75 48.85 221.75 48.2 221.75 46.85 221 46.2 220.65 45.9 220.15 45.7 219.7 45.5 219.05 45.5
L 211.05 45.5
M 229.1 61.7
Q 228.6 61.35 228.05 61.2 227.55 61 226.95 61
L 215.3 61
Q 214.9 61 214.65 61.15 214.4 61.25 214.25 61.45 214.1 61.7 214.05 61.95 213.95 62.25 213.95 62.6 213.95 62.9 214.05 63.2 214.1 63.45 214.25 63.65 214.4 63.9 214.65 64.05 214.9 64.15 215.3 64.15
L 224.8 64.15
Q 225.15 64.15 225.55 64.2 225.95 64.25 226.45 64.25
L 226.45 71.45
Q 226.45 71.75 226.55 72 226.7 72.25 227 72.4 227.3 72.55 227.55 72.65 227.8 72.75 228.05 72.75 228.25 72.75 228.4 72.7 228.6 72.7 228.75 72.65 228.9 72.6 229 72.55 229.15 72.5 229.3 72.4 229.45 72.3 229.55 72.2 229.65 72.1 229.75 72 229.85 71.85 229.9 71.7 229.95 71.6 229.95 71.45
L 229.95 63.65
Q 229.95 63.05 229.75 62.55 229.55 62.05 229.1 61.7
M 230.05 45.55
Q 230.05 45.15 229.9 44.9 229.8 44.7 229.55 44.55 229.3 44.45 229 44.35 228.65 44.3 228.3 44.3 228 44.3 227.7 44.35 227.4 44.45 227.1 44.55 226.8 44.7 226.65 44.9 226.45 45.15 226.45 45.55
L 226.45 58.05
Q 226.45 58.45 226.6 58.7 226.7 58.95 227 59.05 227.2 59.2 227.45 59.25 227.7 59.3 227.9 59.3 228.05 59.35 228.25 59.3 228.45 59.3 228.65 59.25 228.85 59.25 229 59.25 229.15 59.2 229.25 59.1 229.4 59.05 229.55 58.9 229.65 58.75 229.8 58.6 229.9 58.45 229.95 58.3 230.05 58.1 230.05 57.9
L 230.05 53.45 232.95 53.45
Q 233.35 53.45 233.65 53.35 233.9 53.2 234 52.95 234.2 52.55 234.2 51.9 234.2 51.55 234.15 51.25 234.1 50.95 234 50.75 233.9 50.55 233.65 50.45 233.35 50.35 232.95 50.35
L 230.05 50.35 230.05 45.55
M 368.35 21.65
Q 368.2 21.6 368 21.55 367.85 21.5 367.65 21.45 367.5 21.45 367.35 21.45 367.05 21.45 366.8 21.55 366.5 21.65 366.25 21.8 365.9 22 365.75 22.25 365.6 22.5 365.65 22.75
L 365.65 28.3
Q 365.65 28.85 365.8 29.35 365.95 29.8 366.3 30.2 366.6 30.6 367.05 30.8 367.45 31 368 31
L 380.95 31
Q 381.3 31 381.55 30.85 381.8 30.7 382 30.45 382.25 29.95 382.25 29.3 382.25 29 382.15 28.75 382.1 28.5 381.95 28.25 381.75 28.05 381.5 27.95 381.25 27.85 380.95 27.85
L 370.8 27.85
Q 370.4 27.85 370 27.8 369.65 27.8 369.3 27.7
L 369.3 22.75
Q 369.3 22.6 369.25 22.5 369.2 22.35 369.1 22.2 369 22.1 368.85 22 368.75 21.9 368.6 21.75 368.5 21.7 368.35 21.65
M 368 9.8
Q 366.55 9.8 365.4 10.15 364.8 10.3 364.25 10.55 363.75 10.8 363.3 11.1 362.8 11.45 362.4 11.85 362.05 12.2 361.8 12.65 361.5 13.1 361.4 13.55 361.25 14 361.3 14.5 361.25 15.05 361.4 15.55 361.5 16 361.8 16.45 362.05 16.9 362.4 17.3 362.8 17.65 363.3 17.95 363.75 18.3 364.25 18.55 364.8 18.75 365.4 18.95 366 19.1 366.65 19.2 367.3 19.3 368 19.3 368.7 19.3 369.4 19.2 370.05 19.1 370.7 18.9 371.3 18.75 371.8 18.45 372.35 18.2 372.8 17.9 373.2 17.6 373.5 17.2 373.85 16.85 374.1 16.4 374.4 15.95 374.55 15.5 374.65 15 374.65 14.5 374.65 14.05 374.55 13.6 374.4 13.15 374.1 12.7 373.85 12.25 373.5 11.9 373.2 11.5 372.8 11.15 372.35 10.85 371.8 10.6 371.3 10.35 370.7 10.15 369.45 9.8 368 9.8
M 370.75 13.8
Q 370.95 14.15 370.95 14.5 370.95 14.9 370.75 15.25 370.55 15.55 370.15 15.8 369.3 16.35 368 16.35 367.35 16.35 366.8 16.25 366.25 16.1 365.8 15.85 365.35 15.6 365.1 15.25 364.85 14.95 364.85 14.5 364.85 14.15 365.1 13.8 365.35 13.5 365.8 13.25 366.25 13 366.8 12.85 367.35 12.7 368 12.7 368.6 12.7 369.15 12.85 369.7 13 370.15 13.25 370.55 13.5 370.75 13.8
M 374.65 8.8
L 374.7 8.8
Q 375.55 8.8 375.8 8.45 375.9 8.25 375.95 8.05 376 7.8 376 7.5 376 7.15 375.95 6.9 375.9 6.65 375.8 6.5 375.7 6.3 375.4 6.25 375.15 6.15 374.7 6.15
L 369.65 6.15 369.65 4.7
Q 369.65 4.3 369.5 4.05 369.4 3.75 369.15 3.6 368.9 3.5 368.65 3.45 368.4 3.35 368.15 3.35 367.7 3.35 367.4 3.4 367.1 3.5 366.85 3.6 366.6 3.75 366.5 4 366.4 4.25 366.4 4.7
L 366.4 6.15
Q 365.75 6.15 365.15 6.15 364.55 6.15 363.95 6.1 362.8 6.1 361.45 6.1 361.1 6.1 360.85 6.2 360.6 6.25 360.4 6.4 360.05 6.7 360.05 7.5 360.05 7.8 360.15 8 360.2 8.25 360.35 8.4 360.5 8.55 360.75 8.7 360.95 8.75 361.3 8.75 364.6 8.75 367.95 8.75 369.55 8.8 371.25 8.8 372.95 8.8 374.65 8.8
M 385.4 14.05
Q 385.7 13.95 385.8 13.7 385.95 13.5 386 13.2 386.05 12.95 386.05 12.65 386.05 12.3 386 12 385.95 11.7 385.8 11.5 385.7 11.25 385.4 11.15 385.1 11.05 384.7 11.05
L 381.9 11.05 381.9 5.15
Q 381.9 4.75 381.75 4.5 381.6 4.25 381.35 4.1 380.75 3.85 380 3.85 379.7 3.85 379.4 3.9 379.15 4 378.85 4.1 378.6 4.25 378.45 4.5 378.3 4.75 378.3 5.15
L 378.3 21.2
Q 378.3 22 378.85 22.3 379.15 22.45 379.4 22.5 379.7 22.6 380 22.6 380.4 22.6 380.7 22.5 381.05 22.45 381.35 22.3 381.9 22 381.9 21.2
L 381.9 14.2 384.7 14.2
Q 385.1 14.2 385.4 14.05
M 347.1 20.6
Q 347 20.45 346.85 20.3 346.7 20.2 346.55 20.05 345.25 19.1 344.25 18 343.25 16.9 342.55 15.65 341.85 14.45 341.5 13.15 341.1 11.85 341.1 10.4
L 341.1 6.55
Q 341.1 6.3 341 6.05 340.85 5.8 340.6 5.65 340.3 5.45 339.95 5.35 339.65 5.3 339.3 5.3 338.95 5.3 338.6 5.35 338.3 5.45 338 5.65 337.7 5.8 337.55 6.05 337.4 6.3 337.4 6.55
L 337.4 10.15
Q 337.4 11.7 337 13.1 336.65 14.5 335.9 15.8 335.1 17.15 334 18.35 332.9 19.5 331.55 20.5 331.4 20.6 331.35 20.7 331.3 20.8 331.25 20.9 331.2 21.05 331.2 21.15 331.15 21.25 331.15 21.35 331.15 21.6 331.25 21.8 331.3 22 331.5 22.2 331.65 22.4 331.85 22.6 332 22.75 332.25 22.85 332.4 23 332.6 23.05 332.8 23.15 333.1 23.15 333.35 23.15 333.55 23.1 333.7 23 333.85 22.85 334.8 22.2 335.6 21.45 336.4 20.7 337.1 19.85 337.75 19.05 338.3 18.15 338.85 17.3 339.3 16.35 339.75 17.25 340.25 18.05 340.75 18.9 341.4 19.65 342.05 20.45 342.85 21.2 343.65 21.9 344.6 22.55 344.75 22.7 344.95 22.75 345.15 22.85 345.4 22.85 345.8 22.85 346.1 22.7 346.4 22.55 346.7 22.25 346.95 22 347.1 21.7 347.25 21.45 347.25 21.1 347.25 21 347.2 20.9 347.15 20.75 347.1 20.6
M 350.7 4.6
Q 350.7 4.75 350.7 4.95
L 350.7 30.6
Q 350.7 30.8 350.7 30.95 350.75 31.15 350.85 31.25 350.9 31.35 351 31.45 351.1 31.55 351.15 31.65 351.4 31.75 351.8 31.85 352 31.85 352.1 31.85 352.25 31.85 352.4 31.85 352.55 31.85 352.75 31.85 352.9 31.85 353.1 31.85 353.5 31.75 353.65 31.65 353.8 31.55 353.9 31.45 354 31.35 354.1 31.25 354.2 31.15 354.25 30.95 354.3 30.8 354.3 30.6
L 354.3 4.95
Q 354.3 4.75 354.25 4.6 354.2 4.45 354.1 4.3 354 4.2 353.9 4.1 353.8 4 353.65 3.9 353.5 3.8 353.1 3.75 352.9 3.7 352.75 3.7 352.55 3.7 352.4 3.7 352.25 3.7 352.1 3.7 352 3.7 351.8 3.75 351.4 3.8 351.15 3.9 351.1 4 351 4.1 350.9 4.2 350.85 4.3 350.75 4.45 350.7 4.6
M 325.05 16.75
Q 324.75 16.65 324.4 16.65
L 321.05 16.65
Q 321.1 16 321.15 15.35 321.15 14.7 321.2 14 321.2 13.4 321.2 12.75 321.2 12.1 321.25 11.45
L 321.25 11.25
Q 321.25 10.85 321.15 10.55 321 10.3 320.7 10.15 320.45 10.05 320.15 10 319.9 9.95 319.6 9.95 319.25 9.95 319 10 318.7 10.05 318.45 10.15 318.15 10.3 318.05 10.55 317.9 10.85 317.9 11.2 317.85 11.95 317.85 12.65 317.8 13.3 317.8 13.9 317.75 14.55 317.7 15.25 317.65 15.95 317.65 16.65
L 313 16.65
Q 312.95 16.25 312.95 15.85 312.95 15.45 312.95 15.1 312.95 14.8 312.9 14.5 312.9 14.15 312.9 13.85 312.85 13.55 312.85 13.2 312.85 12.9 312.85 12.55 312.8 12.25 312.8 11.9 312.75 11.55 312.75 11.1 312.75 10.75 312.6 10.5 312.45 10.25 312.2 10.15 311.95 10.05 311.7 10 311.45 9.95 311.2 9.95 310.85 9.95 310.55 10 310.3 10.05 310.05 10.15 309.8 10.3 309.7 10.55 309.6 10.85 309.6 11.25 309.6 12.7 309.7 13.9 309.7 14.55 309.7 15.25 309.75 15.95 309.75 16.65
L 306.7 16.65
Q 306.35 16.65 306.15 16.75 305.9 16.85 305.7 17.05 305.55 17.25 305.45 17.55 305.4 17.85 305.4 18.2 305.4 18.6 305.45 18.9 305.55 19.2 305.7 19.4 305.9 19.6 306.15 19.7 306.35 19.8 306.7 19.8
L 310.1 19.8 310.1 23.95 303.8 23.95
Q 303.1 23.95 302.8 24.4 302.65 24.6 302.6 24.9 302.5 25.2 302.5 25.5 302.5 25.8 302.6 26.1 302.65 26.35 302.8 26.6 302.95 26.85 303.2 26.95 303.45 27.05 303.8 27.05
L 327.45 27.05
Q 327.7 27.05 327.95 26.95 328.2 26.85 328.4 26.6 328.75 26.1 328.75 25.5 328.75 25.2 328.7 24.9 328.55 24.6 328.4 24.4 328.2 24.15 327.95 24.05 327.7 23.95 327.45 23.95
L 321 23.95 321 19.8 324.4 19.8
Q 324.75 19.8 325.05 19.7 325.3 19.6 325.5 19.4 325.65 19.2 325.7 18.9 325.8 18.6 325.8 18.2 325.8 17.85 325.7 17.55 325.65 17.25 325.5 17.05 325.3 16.85 325.05 16.75
M 313.6 23.95
L 313.6 19.8 317.5 19.8 317.5 23.95 313.6 23.95
M 324.65 8.55
Q 324.8 8.35 324.9 8.05 325 7.75 325 7.4 325 7.05 324.9 6.75 324.8 6.5 324.65 6.25 324.45 6.1 324.2 6 323.95 5.9 323.65 5.9
L 307.65 5.9
Q 306.95 5.9 306.65 6.25 306.3 6.65 306.3 7.4 306.3 7.75 306.4 8.05 306.45 8.35 306.6 8.55 306.75 8.8 307 8.9 307.25 9 307.65 9
L 323.65 9
Q 324.3 9 324.65 8.55
M 280.15 4.9
Q 280 5.15 280 5.55
L 280 12.2 276.55 12.2
Q 276.75 11.35 276.9 10.55 277 9.7 277.05 8.85
L 277.05 8.65
Q 277.05 8.1 276.9 7.65 276.75 7.2 276.45 6.85 276.15 6.5 275.7 6.3 275.3 6.1 274.75 6.1
L 267.8 6.1
Q 267.25 6.1 266.9 6.55 266.65 6.75 266.55 7.05 266.45 7.35 266.45 7.65 266.45 8 266.55 8.3 266.65 8.6 266.9 8.8 267.05 9 267.3 9.1 267.5 9.2 267.8 9.2
L 273.55 9.2 273.55 9.8
Q 273.55 10.6 273.4 11.45 273.25 12.25 272.95 13.1 272.6 13.95 272.2 14.7 271.8 15.45 271.3 16.2 270.8 16.9 270.25 17.55 269.75 18.2 269.2 18.75 268.65 19.35 268.1 19.8 267.6 20.25 267.1 20.6 266.65 20.8 266.45 21.1 266.25 21.4 266.25 21.75 266.25 22.1 266.4 22.45 266.5 22.75 266.8 23.05 267.3 23.55 268.05 23.55 268.1 23.55 268.15 23.55 268.2 23.55 268.25 23.55 268.3 23.55 268.35 23.55 268.4 23.55 268.45 23.5 269.3 23.1 270.05 22.5 270.85 21.9 271.6 21.15 273.15 19.7 274.3 17.75 274.65 17.15 274.95 16.55 275.25 15.95 275.55 15.25 275.6 15.3 275.7 15.3 275.75 15.3 275.85 15.3
L 280 15.3 280 29.75
Q 280 30.1 280.15 30.35 280.25 30.6 280.55 30.75 280.8 30.85 281.1 30.95 281.4 31 281.8 31 282.05 31 282.35 30.95 282.65 30.85 282.95 30.75 283.2 30.6 283.35 30.35 283.45 30.1 283.45 29.75
L 283.45 5.55
Q 283.45 5.15 283.35 4.9 283.2 4.65 282.95 4.55 282.65 4.4 282.35 4.35 282.05 4.3 281.8 4.3 281.4 4.3 281.1 4.35 280.8 4.4 280.55 4.55 280.25 4.65 280.15 4.9
M 288.9 5
Q 288.9 4.6 288.8 4.35 288.65 4.1 288.45 3.95 288.2 3.85 287.9 3.8 287.6 3.75 287.3 3.75 286.85 3.75 286.6 3.8 286.3 3.85 286.1 3.95 285.85 4.1 285.75 4.35 285.65 4.6 285.65 5
L 285.65 30.5
Q 285.65 30.9 285.75 31.15 285.85 31.4 286.1 31.55 286.3 31.65 286.6 31.7 286.85 31.75 287.3 31.75 287.6 31.75 287.9 31.7 288.2 31.65 288.45 31.55 288.65 31.4 288.8 31.15 288.9 30.9 288.9 30.5
L 288.9 5
M 246.95 23.85
Q 246.15 24.05 245.5 24.25 244.85 24.5 244.3 24.75 243.8 25 243.45 25.35 243 25.7 242.75 26.05 242.4 26.45 242.25 26.85 242.15 27.25 242.15 27.7 242.15 28.15 242.25 28.55 242.4 28.95 242.75 29.35 243 29.7 243.45 30.05 243.8 30.35 244.3 30.65 244.85 30.95 245.5 31.15 246.15 31.35 246.95 31.55 247.7 31.7 248.5 31.8 249.3 31.85 250.15 31.85 251.1 31.85 251.95 31.8 252.8 31.7 253.55 31.55 254.3 31.35 254.95 31.15 255.55 30.95 256.1 30.65 256.65 30.35 257.05 30.05 257.5 29.7 257.8 29.35 258.1 28.95 258.25 28.55 258.4 28.15 258.4 27.7 258.4 27.25 258.25 26.85 258.1 26.45 257.8 26.05 257.5 25.7 257.05 25.35 256.65 25 256.1 24.75 255.55 24.5 254.95 24.25 254.25 24.05 253.55 23.85 252.75 23.7 251.95 23.65 251.1 23.55 250.15 23.55 249.3 23.55 248.55 23.65 247.7 23.7 246.95 23.85
M 254.8 27.7
Q 254.8 28.25 253.55 28.6 252.9 28.75 252.05 28.85 251.2 28.9 250.15 28.9 249.2 28.9 248.4 28.85 247.6 28.75 247 28.55 246.35 28.4 246.05 28.15 245.75 27.95 245.75 27.7 245.75 27.45 246.05 27.25 246.35 27.05 246.95 26.85 247.55 26.65 248.4 26.6 249.2 26.5 250.15 26.5 251.2 26.5 252.05 26.6 252.95 26.65 253.55 26.85 254.15 27.05 254.45 27.25 254.8 27.45 254.8 27.7
M 249.1 17.9
Q 248.8 18 248.75 18.25 248.65 18.35 248.65 18.5 248.6 18.65 248.6 18.8
L 248.6 19.8 242.5 19.8
Q 241.65 19.8 241.45 20.15 241.3 20.35 241.25 20.65 241.15 20.9 241.15 21.25 241.15 22 241.45 22.35 241.55 22.55 241.8 22.65 242.1 22.75 242.5 22.75
L 258.2 22.75
Q 258.55 22.75 258.75 22.65 259 22.55 259.2 22.35 259.35 22.15 259.45 21.9 259.55 21.65 259.55 21.25 259.55 20.9 259.45 20.65 259.35 20.35 259.2 20.15 258.85 19.8 258.2 19.8
L 252.1 19.8 252.1 18.8
Q 252.1 18.65 252.05 18.5 252 18.35 251.9 18.25 251.8 18.15 251.7 18.05 251.55 17.95 251.45 17.9 251.35 17.85 251.2 17.8 251.1 17.8 250.9 17.75 250.75 17.75 250.6 17.75 250.45 17.75 250.3 17.75 250.15 17.75 250 17.75 249.85 17.75 249.7 17.75 249.5 17.8 249.35 17.8 249.2 17.85 249.1 17.9
M 249.55 5.5
Q 249.15 5.2 248.65 5 248.15 4.8 247.55 4.8
L 239.6 4.8
Q 239.2 4.8 238.9 4.95 238.65 5.05 238.55 5.25 238.25 5.7 238.25 6.35 238.25 6.65 238.35 6.95 238.4 7.25 238.55 7.5 238.65 7.75 238.9 7.85 239.2 8 239.6 7.95
L 245.25 7.95
Q 245.5 8 245.7 8 245.9 8 246.05 8 246.2 8.05 246.35 8.05 246.55 8.1 246.7 8.1 246.25 9.25 245.5 10.2 244.8 11.15 243.85 11.9 242.9 12.7 241.7 13.3 240.45 13.95 239 14.5 238.85 14.6 238.7 14.75 238.55 14.85 238.45 15 238.4 15.2 238.35 15.35 238.3 15.55 238.3 15.75 238.3 16.6 238.65 17.1 238.85 17.35 239.05 17.5 239.3 17.6 239.6 17.6 239.8 17.6 240.05 17.5 241 17.25 241.9 16.85 242.8 16.45 243.6 15.95 245.2 15 246.55 13.6 247.25 13 247.85 12.3 248.4 11.55 248.95 10.8 249.45 10.05 249.75 9.3 250.1 8.55 250.3 7.8
L 250.3 7.5
Q 250.3 6.85 250.1 6.35 249.9 5.8 249.55 5.5
M 258.55 4.85
Q 258.55 4.45 258.4 4.2 258.3 3.95 258.05 3.8 257.8 3.7 257.5 3.65 257.2 3.55 256.85 3.55 256.5 3.55 256.2 3.65 255.9 3.7 255.65 3.85 255.3 4 255.15 4.25 255 4.5 255 4.85
L 255 16
Q 255 16.2 255.05 16.3 255.05 16.45 255.15 16.6 255.2 16.7 255.3 16.85 255.4 16.95 255.55 17 255.7 17.1 255.9 17.15 256.05 17.2 256.2 17.2 256.35 17.25 256.5 17.3 256.65 17.3 256.85 17.3 257.2 17.3 257.5 17.2 257.8 17.15 258.05 17 258.3 16.9 258.4 16.6 258.55 16.35 258.55 16
L 258.55 12.2 261.5 12.2
Q 261.9 12.2 262.2 12.05 262.45 11.95 262.55 11.65 262.6 11.4 262.65 11.15 262.7 10.85 262.7 10.55 262.7 10.25 262.65 9.95 262.6 9.65 262.55 9.4 262.45 9.2 262.2 9.1 261.9 8.95 261.5 8.95
L 258.55 8.95 258.55 4.85
M 215.75 4.6
Q 215.5 4.5 215.2 4.5 214.85 4.5 214.6 4.55 214.35 4.65 214.15 4.75 214 4.9 213.9 5.15 213.85 5.4 213.85 5.75
L 213.85 8 212.2 8 212.2 5.75
Q 212.2 5.4 212.1 5.15 211.95 4.9 211.75 4.75 211.55 4.65 211.25 4.55 211 4.5 210.65 4.5 210.35 4.5 210.1 4.55 209.85 4.65 209.6 4.75 209.35 4.9 209.25 5.15 209.15 5.4 209.15 5.75
L 209.15 13.85
Q 209.15 14.65 209.25 15.25 209.4 15.85 209.75 16.25 210 16.6 210.55 16.8 211.1 17 211.95 17
L 213.9 17
Q 214.35 17 214.7 16.95 215.1 16.9 215.4 16.8 215.7 16.75 215.9 16.6 216.1 16.45 216.3 16.3 216.4 16.15 216.5 15.9 216.6 15.7 216.65 15.35 216.65 15.1 216.7 14.7 216.7 14.35 216.7 13.9
L 216.7 5.95
Q 216.7 5.55 216.6 5.3 216.5 5 216.3 4.8 216.05 4.7 215.75 4.6
M 212.6 13.9
Q 212.55 13.9 212.5 13.9 212.4 13.9 212.3 13.9 212.25 13.9 212.2 13.85
L 212.2 11.05 213.85 11.05 213.85 13.85
Q 213.75 13.9 213.65 13.9 213.6 13.9 213.5 13.9 213.4 13.9 213.3 13.9 213.2 13.9 213.15 13.9
L 212.8 13.9
Q 212.7 13.9 212.6 13.9
M 226.05 21.5
Q 226.1 21.65 226.15 21.85 226.2 22.05 226.2 22.25
L 226.2 22.6
Q 226.2 22.85 226.15 23 226.1 23.2 226.05 23.45
L 216.2 23.45
Q 215.65 23.45 215.2 23.55 214.7 23.65 214.35 23.85 213.95 24.05 213.75 24.45 213.55 24.85 213.55 25.4
L 213.55 29.15
Q 213.55 29.7 213.75 30.1 214 30.5 214.4 30.8 214.75 31 215.2 31.15 215.7 31.25 216.2 31.25
L 228.8 31.25
Q 229.1 31.25 229.35 31.15 229.6 31.05 229.75 30.8 229.95 30.6 230 30.3 230.1 30.05 230.1 29.75 230.1 29.05 229.75 28.7 229.45 28.4 228.8 28.4
L 217.2 28.4
Q 217.1 28.3 217.05 28.2 217 28.1 217 28 217 27.9 217 27.8 217 27.7 217 27.55
L 217 27.05
Q 217 26.95 217 26.85 217 26.75 217 26.65 217 26.55 217.05 26.5 217.1 26.4 217.2 26.3
L 226.7 26.3
Q 227 26.3 227.3 26.3 227.65 26.25 227.9 26.2 228.15 26.15 228.4 26.05 228.65 25.95 228.85 25.8 229 25.7 229.15 25.5 229.3 25.4 229.45 25.15 229.6 25 229.65 24.75 229.75 24.45 229.75 24.15
L 229.75 20.75
Q 229.75 20.2 229.5 19.75 229.3 19.35 228.9 19.1 228.05 18.55 227 18.55
L 214.75 18.55
Q 214.05 18.55 213.8 19 213.65 19.25 213.55 19.55 213.5 19.8 213.5 20.15 213.5 20.45 213.55 20.7 213.65 20.95 213.8 21.1 214.05 21.5 214.75 21.5
L 226.05 21.5
M 224.5 4.6
Q 224.2 4.5 223.95 4.5 223.25 4.5 222.85 4.75 222.5 5.05 222.5 5.75
L 222.5 8 220.75 8 220.75 5.75
Q 220.75 5.4 220.65 5.15 220.55 4.9 220.4 4.75 220.15 4.6 219.9 4.55 219.65 4.5 219.3 4.5 218.75 4.5 218.3 4.75 218.05 4.9 217.95 5.15 217.85 5.4 217.85 5.75
L 217.85 13.85
Q 217.85 14.3 217.85 14.65 217.9 15.05 217.95 15.35 218 15.65 218.1 15.85 218.25 16.1 218.45 16.25 218.6 16.45 218.8 16.55 219.05 16.7 219.3 16.8 219.55 16.9 219.9 16.95 220.2 17 220.65 17
L 222.6 17
Q 223 17 223.4 16.95 223.75 16.9 224.05 16.8 224.3 16.75 224.5 16.6 224.75 16.45 224.95 16.3 225.1 16.15 225.2 15.9 225.3 15.7 225.35 15.35 225.35 15.1 225.35 14.7 225.4 14.35 225.4 13.9
L 225.4 5.95
Q 225.4 5.55 225.3 5.3 225.15 5 224.95 4.8 224.75 4.65 224.5 4.6
M 220.75 11.05
L 222.5 11.05 222.5 13.85
Q 222.45 13.9 222.35 13.9 222.25 13.9 222.2 13.9 222.05 13.9 221.95 13.9 221.85 13.9 221.8 13.9
L 221.5 13.9
Q 221.3 13.9 221.2 13.9 221.05 13.85 221 13.8 220.85 13.75 220.8 13.7 220.75 13.6 220.75 13.55 220.7 13.45 220.7 13.35 220.7 13.25 220.75 13.1 220.75 13 220.75 12.9 220.75 12.75 220.75 12.65
L 220.75 11.05
M 232.95 12.2
Q 233.35 12.2 233.6 12.05 233.9 11.95 234 11.65 234.1 11.45 234.15 11.2 234.2 10.9 234.2 10.6 234.2 10.25 234.15 9.95 234.1 9.65 234 9.4 233.9 9.2 233.6 9.1 233.35 8.95 232.95 8.95
L 230.05 8.95 230.05 4.95
Q 230.05 4.55 229.95 4.3 229.8 4 229.6 3.9 229.35 3.8 229.1 3.75 228.8 3.7 228.5 3.7 228.15 3.7 227.85 3.75 227.55 3.8 227.35 3.9 227.1 4 226.95 4.3 226.85 4.55 226.85 4.95
L 226.85 16.2
Q 226.85 16.55 226.95 16.8 227.1 17.1 227.35 17.2 227.8 17.45 228.5 17.45 229.1 17.45 229.6 17.2 229.8 17.1 229.95 16.8 230.05 16.55 230.05 16.2
L 230.05 12.2 232.95 12.2 Z"/>
</g>

<path id="Layer0_0_1_STROKES" stroke="#332D2B" stroke-width="3" stroke-linejoin="round" stroke-linecap="butt" fill="none" d="
M 161.1 20.7
L 66.9 20.7
M 171.125 38.4
L 181.35 20.7 161.1 20.7
M 66.9 20.7
L 51.15 20.7 1.5 106.95 131.55 106.95 171.125 38.4"/>

<path id="Layer0_0_2_STROKES" stroke="#E50182" stroke-width="2" stroke-linejoin="round" stroke-linecap="butt" fill="none" d="
M 171.125 38.4
Q 166.6447265625 36.7427734375 163.8 32.85 160.8 28.8 160.8 23.85 160.8 21.75 161.1 20.7
M 66.9 20.7
Q 67.35 22.35 67.35 24 67.35 29.7 63.45 33.6 59.55 37.5 53.85 37.5 48 37.5 44.25 33.45"/>
</defs>

<g transform="matrix( 1, 0, 0, 1, 0,0) ">
<use xlink:href="#Layer0_0_FILL"/>

<use xlink:href="#Layer0_0_1_STROKES"/>

<use xlink:href="#Layer0_0_2_STROKES"/>
</g>
</svg>
