<?xml version="1.0" encoding="utf-8"?>
<!-- Generator: Adobe Illustrator 24.1.1, SVG Export Plug-In . SVG Version: 6.00 Build 0)  -->
<svg version="1.1" id="레이어_1" xmlns="http://www.w3.org/2000/svg" xmlns:xlink="http://www.w3.org/1999/xlink" x="0px"
	 y="0px" width="1280px" height="1400px" viewBox="0 0 1280 1400" style="enable-background:new 0 0 1280 1400;"
	 xml:space="preserve">
<style type="text/css">
	.st0{fill:#F7E3C3;}
	.st1{opacity:0.95;}
	.st2{fill:#F7CAB2;}
	.st3{fill:#CAE2BC;}
	.st4{fill:#E6D3EF;}
	.st5{fill:#ACE2DD;}
	.st6{fill:#C3CEEA;}
	.st7{fill:#AEEAF5;}
</style>
<g>
	<path class="st0" d="M0,0v133.7c42,0.5,65,3.1,89.1,5.8c28.1,3.2,57.1,6.5,114.8,6.5s86.7-3.3,114.8-6.5c26.7-3,52-5.9,103.3-5.9
		c51.4,0,76.6,2.9,103.3,5.9c28.1,3.2,57.1,6.5,114.8,6.5s86.7-3.3,114.8-6.5c26.7-3,52-5.9,103.3-5.9c51.4,0,76.6,2.9,103.3,5.9
		c28.1,3.2,57.1,6.5,114.8,6.5c57.7,0,86.7-3.3,114.8-6.5c24.1-2.7,47-5.3,88.9-5.8V0H0z"/>
</g>
<g class="st1">
	<path class="st2" d="M0,1000v133.7c42,0.5,65,3.1,89.1,5.8c28.1,3.2,57.1,6.5,114.8,6.5s86.7-3.3,114.8-6.5
		c26.7-3,52-5.9,103.3-5.9c51.4,0,76.6,2.9,103.3,5.9c28.1,3.2,57.1,6.5,114.8,6.5s86.7-3.3,114.8-6.5c26.7-3,52-5.9,103.3-5.9
		c51.4,0,76.6,2.9,103.3,5.9c28.1,3.2,57.1,6.5,114.8,6.5c57.7,0,86.7-3.3,114.8-6.5c24.1-2.7,47-5.3,88.9-5.8V1000H0z"/>
</g>
<g class="st1">
	<path class="st3" d="M0,800v133.7c42,0.5,65,3.1,89.1,5.8c28.1,3.2,57.1,6.5,114.8,6.5s86.7-3.3,114.8-6.5c26.7-3,52-5.9,103.3-5.9
		c51.4,0,76.6,2.9,103.3,5.9c28.1,3.2,57.1,6.5,114.8,6.5s86.7-3.3,114.8-6.5c26.7-3,52-5.9,103.3-5.9c51.4,0,76.6,2.9,103.3,5.9
		c28.1,3.2,57.1,6.5,114.8,6.5c57.7,0,86.7-3.3,114.8-6.5c24.1-2.7,47-5.3,88.9-5.8V800H0z"/>
</g>
<g class="st1">
	<path class="st4" d="M0,600v133.7c42,0.5,65,3.1,89.1,5.8c28.1,3.2,57.1,6.5,114.8,6.5s86.7-3.3,114.8-6.5c26.7-3,52-5.9,103.3-5.9
		c51.4,0,76.6,2.9,103.3,5.9c28.1,3.2,57.1,6.5,114.8,6.5s86.7-3.3,114.8-6.5c26.7-3,52-5.9,103.3-5.9c51.4,0,76.6,2.9,103.3,5.9
		c28.1,3.2,57.1,6.5,114.8,6.5c57.7,0,86.7-3.3,114.8-6.5c24.1-2.7,47-5.3,88.9-5.8V600H0z"/>
</g>
<g class="st1">
	<path class="st5" d="M0,400v133.7c42,0.5,65,3.1,89.1,5.8c28.1,3.2,57.1,6.5,114.8,6.5s86.7-3.3,114.8-6.5c26.7-3,52-5.9,103.3-5.9
		c51.4,0,76.6,2.9,103.3,5.9c28.1,3.2,57.1,6.5,114.8,6.5s86.7-3.3,114.8-6.5c26.7-3,52-5.9,103.3-5.9c51.4,0,76.6,2.9,103.3,5.9
		c28.1,3.2,57.1,6.5,114.8,6.5c57.7,0,86.7-3.3,114.8-6.5c24.1-2.7,47-5.3,88.9-5.8V400H0z"/>
</g>
<g class="st1">
	<path class="st6" d="M0,200v133.7c42,0.5,65,3.1,89.1,5.8c28.1,3.2,57.1,6.5,114.8,6.5s86.7-3.3,114.8-6.5c26.7-3,52-5.9,103.3-5.9
		c51.4,0,76.6,2.9,103.3,5.9c28.1,3.2,57.1,6.5,114.8,6.5s86.7-3.3,114.8-6.5c26.7-3,52-5.9,103.3-5.9c51.4,0,76.6,2.9,103.3,5.9
		c28.1,3.2,57.1,6.5,114.8,6.5c57.7,0,86.7-3.3,114.8-6.5c24.1-2.7,47-5.3,88.9-5.8V200H0z"/>
</g>
<g class="st1">
	<path class="st7" d="M0,1200v133.7c42,0.5,65,3.1,89.1,5.8c28.1,3.2,57.1,6.5,114.8,6.5s86.7-3.3,114.8-6.5
		c26.7-3,52-5.9,103.3-5.9c51.4,0,76.6,2.9,103.3,5.9c28.1,3.2,57.1,6.5,114.8,6.5s86.7-3.3,114.8-6.5c26.7-3,52-5.9,103.3-5.9
		c51.4,0,76.6,2.9,103.3,5.9c28.1,3.2,57.1,6.5,114.8,6.5c57.7,0,86.7-3.3,114.8-6.5c24.1-2.7,47-5.3,88.9-5.8V1200H0z"/>
</g>
</svg>
