<?xml version="1.0" encoding="utf-8"?>
<!-- Generator: Adobe Illustrator 23.1.0, SVG Export Plug-In . SVG Version: 6.00 Build 0)  -->
<svg version="1.1" id="레이어_1" xmlns="http://www.w3.org/2000/svg" xmlns:xlink="http://www.w3.org/1999/xlink" x="0px"
	 y="0px" width="534px" height="110px" viewBox="0 0 534 110" style="enable-background:new 0 0 534 110;" xml:space="preserve">
<g>
	<g>
		<path style="fill:#FFFFFF;" d="M51.8,97.5h430.4c25.4,0,46-20.6,46-46l0,0c0-25.4-20.6-46-46-46H51.8c-25.4,0-46,20.6-46,46l0,0
			C5.8,76.9,26.4,97.5,51.8,97.5z"/>
		<path style="fill:#F7DA66;" d="M482.2,101.5H51.8c-27.6,0-50-22.4-50-50s22.4-50,50-50h430.4c27.6,0,50,22.4,50,50
			S509.8,101.5,482.2,101.5z M51.8,9.5c-23.1,0-42,18.8-42,42s18.8,42,42,42h430.4c23.1,0,42-18.8,42-42s-18.8-42-42-42H51.8z"/>
	</g>
	<g>
		<g>
			<path style="fill:#FFFFFF;" d="M509.4,81c0.8-1.9,1.4-4,1.6-6.3c0.3-3.7-0.2-6.9-1.4-9.7c1.5-1.2,2.5-3,2.7-5.1
				c0.2-2-0.5-3.9-1.6-5.4c-0.4-0.4-0.8-0.8-1.2-1.1c-1.1-0.9-2.4-1.4-3.9-1.6c-3.1-0.3-5.9,1.4-7.2,3.9c-1.8-0.6-3.8-1-6-1.2
				c-2.4-0.2-4.6-0.2-6.6,0.1c-0.8-2.8-3.3-5-6.4-5.3c-0.3,0-0.7,0-1,0c-2.7,1.4-5,3.2-6.8,5.3c-0.1,0.4-0.2,0.9-0.3,1.4
				c-0.2,2.3,0.6,4.4,2.1,5.9c-1.6,2.4-2.6,5.4-3,8.9c-0.2,1.8-0.1,3.5,0.1,5.2c3.9,5.7,11,9.8,19.3,10.6
				C497.4,87.4,504.5,85.1,509.4,81z"/>
		</g>
		<path style="fill:#C49A6C;" d="M482.2,55.5c-0.5-1.4-1.7-2.4-3.3-2.6c-2.1-0.2-4,1.4-4.2,3.5c-0.1,1.1,0.2,2.1,0.9,2.8
			C477.4,57.6,479.6,56.3,482.2,55.5z"/>
		<path style="fill:#C49A6C;" d="M507.7,61.9c0.6-0.6,1-1.4,1.1-2.3c0.2-2.1-1.4-4-3.5-4.2c-1.5-0.1-2.8,0.6-3.6,1.8
			C504.1,58.4,506.1,60,507.7,61.9z"/>
		<g>
			<path style="fill:#231F20;" d="M495.3,75.3c0.2,0.9,1,1.5,1.9,1.3s1.5-1,1.3-1.9s-1-1.5-1.9-1.3
				C495.7,73.6,495.1,74.4,495.3,75.3"/>
		</g>
		<g>
			<path style="fill:#231F20;" d="M482.5,74c0.1,0.8,0.9,1.4,1.7,1.2c0.8-0.1,1.4-0.9,1.2-1.7c-0.1-0.8-0.9-1.4-1.8-1.2
				C483,72.4,482.4,73.2,482.5,74"/>
		</g>
		<g>
			<path style="fill:#C49A6C;" d="M496.2,80.8c-0.3,3.2-3.3,5.6-6.7,5.2c-3.4-0.3-6-3.2-5.7-6.4c0.3-3.2,3.3-5.6,6.8-5.2
				C493.9,74.7,496.5,77.6,496.2,80.8"/>
		</g>
		<g>
			<path style="fill:#ED1C24;" d="M488.5,81.7l1.4-0.5l1.4,0.7c0,0-0.6,1.9-1.6,1.8C488.7,83.7,488.5,81.7,488.5,81.7"/>
		</g>
		<path style="fill:#231F20;" d="M493.9,77.9c0.1-1.4-1.4-2.6-3.5-2.8c-2-0.2-3.8,0.8-3.9,2.1c-0.1,1.2,1.2,2.4,3,2.7l-0.1,1
			l-1.1,0.4l0,0l-0.8,0.3c-0.3,0.1-0.4,0.4-0.3,0.6c0.1,0.3,0.4,0.4,0.6,0.3l0.3-0.1c0.2,0.7,0.6,1.8,1.6,1.9c0.1,0,0.2,0,0.3,0
			c0.8-0.1,1.3-1,1.6-1.6l0.4,0.2c0.1,0,0.2,0.1,0.3,0c0.2,0,0.3-0.1,0.4-0.3c0.1-0.2,0-0.5-0.2-0.6l-0.8-0.4l0,0l-1.1-0.6l0.1-1
			C492.3,80,493.8,79.1,493.9,77.9z M489.7,83.3c-0.3,0-0.6-0.6-0.7-1.2l0.8-0.3l0.8,0.4C490.4,82.7,490.1,83.3,489.7,83.3z"/>
		<path style="fill:#F9A060;" d="M462.2,47.2c3.7-4.6,9.1-8.2,15.3-10.3c-1.1-3.6-4.3-6.4-8.3-6.8c-5.3-0.5-10,3.4-10.5,8.7
			C458.5,42.2,459.9,45.3,462.2,47.2z"/>
		<g>
			<path style="fill:#F9A060;" d="M520.2,35.5c-3.8-0.3-7.3,1.6-9.1,4.6c5.8,3.3,10.4,7.9,13.2,13.2c2.5-1.5,4.3-4.2,4.6-7.3
				C529.4,40.7,525.5,36,520.2,35.5z"/>
			<path style="fill:#F9A060;" d="M511.9,51.3c0.4,0.5,0.9,1,1.4,1.4C512.9,52.2,512.4,51.7,511.9,51.3z"/>
		</g>
		<g>
			<path style="fill:#A7A9AC;" d="M493.7,43.6c15.4,1.4,27,12.9,25.9,25.6c-1.2,12.7-14.6,21.9-30.1,20.5
				c-15.4-1.4-27-12.9-25.9-25.6C464.8,51.4,478.3,42.2,493.7,43.6 M489.8,86.7C503.3,87.9,515,80,516,68.9s-9.1-21-22.5-22.3
				c-13.4-1.2-25.2,6.8-26.2,17.8C466.3,75.5,476.4,85.5,489.8,86.7"/>
		</g>
		<polygon style="fill:#FFFFFF;" points="491.9,105.4 485.3,107.8 486.7,100.9 		"/>
		<polygon style="fill:#1B75BC;" points="487.5,107 485.7,105.5 485.3,107.8 		"/>
		<path style="fill:#FFFFFF;" d="M494.5,35c-19.5-1.8-36.5,9.8-38,25.9c-1,11.3,5.9,21.8,16.8,27.6h-0.6c-4.7,2.8-8,10.9,0.9,11.1
			c3.4,0.5,5.6-0.4,5.6-0.4c0.1-0.2,0.2-0.4,0.3-0.7v0.1c2.2,0.9,5.1,0.7,4.7-2.2c-0.3-2-2.5-1.9-3.8-1.6c0-0.1,0-0.1,0-0.1
			c-1.3-0.6-2.4-1-3.4-1.3l0,0c2.3,0.1,5.6-1.1,5.6-1.1c-0.2,0-0.5-0.1-0.7-0.3c2.3,0.6,4.7,1,7.1,1.3c19.5,1.8,36.5-9.8,38-25.9
			C528.7,51.3,514,36.8,494.5,35z M519.6,69.2c-1.2,12.7-14.6,21.9-30.1,20.5c-15.4-1.4-27-12.9-25.9-25.6
			c1.2-12.7,14.6-21.9,30.1-20.5C509.2,45,520.8,56.5,519.6,69.2z"/>
		<g>
			<path style="fill:#FFD773;" d="M500,85.3l-13.4,15.5l5.3,4.5l13.5-15.6C505.4,89.8,504.4,86.2,500,85.3"/>
		</g>
		<path style="fill:#FFFFFF;" d="M503.5,92.2l-4,4.6l2,0.4c-1.2,0.2-3,0.6-5.1,1.8v0.1c-1.3-0.2-3.5-0.4-3.7,1.7
			c-0.3,2.9,2.6,3,4.7,2l0,0c0.1,0.2,0.2,0.4,0.3,0.6c0,0,2.2,0.9,5.7,0.3C512.2,103.2,508.2,94.9,503.5,92.2z"/>
		<path style="fill:#231F20;" d="M529.6,46c0.5-5.7-3.7-10.7-9.4-11.3c-3.8-0.4-7.3,1.4-9.4,4.4c-4.9-2.6-10.4-4.3-16.3-4.8
			c-5.8-0.5-11.4,0.1-16.6,1.7c-1.4-3.5-4.7-6.2-8.7-6.6c-2.7-0.3-5.4,0.6-7.6,2.3c-2.1,1.8-3.4,4.3-3.7,7c-0.3,3.3,1,6.3,3.2,8.5
			c-3.1,4-5,8.6-5.4,13.6c-1,11.1,5.4,21.4,15.8,27.5c-2.7,2-4.9,5.6-4.1,8.4c0.4,1.5,1.8,3.4,6,3.5c1.4,0.2,2.7,0.2,3.7,0.1
			c1.4-0.2,2.3-0.5,2.4-0.5c0.2-0.1,0.3-0.2,0.4-0.3v-0.1c0.8,0.2,1.6,0.4,2.4,0.3c0.6-0.1,1.1-0.3,1.6-0.6c0.5-0.4,1.1-1.2,0.9-2.7
			c-0.1-0.8-0.5-1.5-1.1-1.9c-0.9-0.5-2-0.5-2.9-0.4c0,0,0,0-0.1,0c-0.2-0.1-0.4-0.2-0.6-0.3c1.5-0.3,2.7-0.8,2.8-0.8l0,0
			c2,0.5,4,0.8,6.1,1c0.8,0.1,1.6,0.1,2.5,0.1l-5.5,6.3c-0.1,0.1-0.2,0.3-0.2,0.5l-1.4,6.8c0,0.2,0,0.4,0.2,0.6
			c0.1,0.1,0.3,0.2,0.5,0.1h0.1l6.5-2.4l0,0l0,0c0.2,0,0.3-0.1,0.4-0.2l1.7-1.9c0.5,0.1,1,0.1,1.6,0.1c0.5-0.1,0.9-0.2,1.3-0.3v0.1
			c0.1,0.2,0.2,0.3,0.4,0.3c0.1,0,2.5,0.9,6,0.3c0.3,0,0.5,0,0.8-0.1c3.5-0.4,4.7-2.1,5-3.5c0.7-2.8-1.5-6.3-4.2-8.4
			c3.7-1.1,7.2-2.7,10.3-4.8c7.4-5,11.8-12.2,12.5-20.2c0.4-4.8-0.5-9.5-2.7-13.9c0.2-0.2,0.5-0.3,0.7-0.5
			C528.1,51.3,529.4,48.8,529.6,46z M481.2,95.4c0.7-0.1,1.5-0.1,2,0.2c0.3,0.2,0.5,0.5,0.5,0.9c0.1,0.7,0,1.2-0.4,1.5
			c-0.5,0.4-1.6,0.5-2.7,0.1C480.9,97.1,481.1,96,481.2,95.4z M459.5,39c0.2-2.4,1.3-4.5,3.2-6c1.3-1.1,2.9-1.8,4.6-2
			c0.6-0.1,1.2-0.1,1.9,0c3.5,0.3,6.2,2.6,7.4,5.6c-2.9,1.1-5.7,2.4-8.2,4.2c-2.4,1.6-4.4,3.5-6.2,5.5
			C460.3,44.4,459.2,41.8,459.5,39z M477.3,92.7c-0.7-0.2-1.3-0.3-1.8-0.3c-0.4,0-0.8,0.2-0.8,0.6s0.2,0.8,0.6,0.8
			c0.5,0.1,1,0.1,1.7,0.3l0,0c0.8,0.2,1.7,0.5,2.7,1c-0.1,0.7-0.3,2.1-0.9,3.5c-0.6,0.2-2.5,0.7-5.1,0.3c-1.9-0.1-4.2-0.5-4.8-2.5
			c-0.5-2.1,1.3-5.4,3.9-7.1l5.7,2.5c0.1,0,0.7,0.3,1.6,0.5C479.2,92.6,478.1,92.8,477.3,92.7z M486.1,106.9l0.1-0.4l0.3,0.3
			L486.1,106.9z M487.5,106.4l-1.1-0.9l0.7-3.4l3.7,3.1L487.5,106.4z M493.8,102.4c-0.4-0.3-0.5-0.8-0.5-1.5c0-0.4,0.2-0.7,0.5-0.9
			c0.2-0.2,0.5-0.2,0.8-0.3c0.4,0,0.7,0,1.1,0c0.1,0.6,0.3,1.7,0.7,2.8C495.4,102.8,494.3,102.8,493.8,102.4z M496.1,98.3
			C496,98.3,496,98.4,496.1,98.3c-1-0.1-2.1-0.1-2.9,0.5c-0.6,0.4-1,1.1-1.1,1.9c-0.1,1.4,0.4,2.2,0.9,2.6l-1,1.2l-4.3-3.7L500.3,86
			c3,0.7,4.1,2.8,4.4,3.6l-6.7,7.8C497.3,97.7,496.7,98,496.1,98.3z M504.4,86.9c-0.4-0.4-0.9-0.8-1.6-1.2c1.8-0.7,3.6-1.6,5.2-2.7
			c5.1-3.5,8.2-8.5,8.7-14c1-11.4-9.3-21.8-23.1-23c-6.7-0.6-13.1,1-18.2,4.4c-5.1,3.5-8.2,8.5-8.7,14c-0.5,5.6,1.6,11,6,15.4
			c4.4,4.3,10.4,7,17.1,7.6c2.1,0.2,4.3,0.2,6.3-0.1c0.5-0.1,1.1-0.1,1.6-0.2l-1.6,1.8c-2.1,0.2-4.3,0.3-6.5,0.1
			c-7.3-0.7-14-3.6-18.7-8.3c-4.7-4.7-7-10.5-6.5-16.5c0.9-10.4,10.5-18.3,22.4-19.8c2.2-0.3,4.5-0.3,6.9-0.1
			c7.3,0.7,14,3.6,18.7,8.3s7,10.5,6.5,16.5c-0.5,5.9-3.9,11.3-9.4,15C507.9,85.3,506.2,86.1,504.4,86.9z M510.5,65.3
			c1.5-1.4,2.4-3.2,2.6-5.3c0-0.3,0-0.6,0-0.9c1.7,3,2.5,6.3,2.2,9.7c-0.3,3.5-1.8,6.7-4.1,9.4c0.3-1.1,0.5-2.3,0.6-3.5
			C512.1,71.2,511.6,68,510.5,65.3z M511.5,59.9c-0.1,1.5-0.7,2.8-1.7,3.9c-2-3.8-5.5-6.6-10.2-8.3c0.3-0.4,0.7-0.9,1.1-1.2
			c1-0.8,2.2-1.3,3.4-1.5c0.5-0.1,0.9-0.1,1.4,0C509.1,53,511.8,56.2,511.5,59.9z M499.6,52.9c-0.7,0.6-1.2,1.2-1.7,1.9
			c-1.7-0.5-3.6-0.9-5.6-1c-2.2-0.2-4.2-0.2-6.2,0c-0.3-0.8-0.8-1.6-1.3-2.3c-1-1.2-2.4-2.1-3.9-2.6c2-0.8,4.2-1.3,6.4-1.6
			c2-0.2,4-0.3,6-0.1c4.3,0.4,8.3,1.7,11.6,3.7C503.1,51,501.2,51.7,499.6,52.9z M483.6,52.6c0.4,0.5,0.7,1,0.9,1.5
			c-3,0.6-5.8,1.6-8,3.3c-1.3,0.9-2.4,2.1-3.3,3.3c-1-1.3-1.4-2.9-1.3-4.5c0-0.5,0.1-0.9,0.3-1.3c1.1-1.2,2.4-2.4,3.9-3.4
			c0.7-0.5,1.4-0.9,2.1-1.3c0.3,0,0.6,0,0.9,0C480.9,50.4,482.5,51.3,483.6,52.6z M472.3,62.1L472.3,62.1c-1.5,2.5-2.4,5.5-2.7,8.8
			c-0.1,0.7-0.1,1.3-0.1,2c-1.2-2.6-1.7-5.5-1.4-8.3c0.2-2.5,1-4.9,2.4-7.1C470.5,59.1,471.2,60.7,472.3,62.1z M471.2,71
			c0.5-5.4,2.7-9.6,6.4-12.3c2.4-1.7,5.3-2.8,8.7-3.2c1.9-0.2,3.9-0.2,6,0c12.2,1.1,18.9,8.3,17.9,19.2c-0.2,2.3-0.7,4.3-1.5,6.1
			c-0.5,0.4-1,0.8-1.5,1.1c-1.9,1.3-4,2.3-6.3,3c-0.2-0.1-0.4-0.1-0.7-0.2c-0.2,0-0.5,0-0.6,0.2l-0.4,0.4c-2.9,0.7-6.1,1-9.3,0.7
			l0,0c-6.3-0.6-12.1-3.1-16.2-7.2c-0.9-0.9-1.7-1.8-2.4-2.8C471,74.4,471,72.8,471.2,71z M507.8,100.5c-0.4,1.9-2.7,2.4-4.5,2.5
			c-2.6,0.4-4.4,0-5-0.2c-0.6-1.3-0.9-2.7-1-3.5c1.5-0.8,3-1.3,4.4-1.4c0.4-0.1,0.7-0.4,0.6-0.8s-0.4-0.6-0.8-0.6
			c-0.3,0-0.5,0.1-0.8,0.1l3-3.5C506.1,94.8,508.4,98.2,507.8,100.5z M526.5,67.3c-0.7,7.6-4.9,14.3-11.9,19.1
			c-2.8,1.9-5.9,3.4-9.2,4.4l0.6-0.7c0.1-0.2,0.2-0.4,0.1-0.6c0-0.1-0.2-0.7-0.7-1.5c1.8-0.7,3.5-1.6,5-2.7c5.9-4,9.4-9.7,10-16.1
			s-1.9-12.6-6.9-17.6c-5-4.9-12-8.1-19.6-8.8C478,41.5,464.2,51,463,64c-0.6,6.4,1.9,12.6,6.9,17.6c5,4.9,12,8.1,19.6,8.8
			c1.8,0.2,3.5,0.2,5.3,0.1l-1.9,2.2c-1.2,0-2.4,0-3.5-0.2c-19.1-1.7-33.5-15.9-32-31.6c0.7-7.6,4.9-14.3,11.9-19.1
			c4.8-3.3,10.5-5.3,16.5-6c2.9-0.3,5.8-0.4,8.8-0.1c9.3,0.8,17.7,4.6,23.8,10.6C524.3,52.3,527.2,59.7,526.5,67.3z M525,51.9
			c-0.1,0.1-0.3,0.2-0.4,0.3c-1.4-2.5-3.2-4.8-5.3-6.9c-2.1-2.1-4.5-3.9-7.1-5.5c1.4-2,3.7-3.3,6.2-3.6c0.6-0.1,1.2-0.1,1.9,0
			c4.9,0.5,8.5,4.8,8.1,9.7C528,48.3,526.9,50.4,525,51.9z"/>
	</g>
	<g>
		<path style="fill:#FFFFFF;" d="M85,71.1c-1.1,0-2-0.1-2.8-0.3c-0.7-0.2-1.3-0.5-1.7-1s-0.7-1.1-0.9-1.8c-0.2-0.7-0.3-1.6-0.3-2.7
			V38.8c0-1.4,0.3-2.4,1-3s1.6-0.9,2.8-0.9c1.1,0,2,0.3,2.7,0.9c0.7,0.6,1,1.6,1,2.9v6.6h3.8v-6.6c0-1.4,0.3-2.4,1-3
			s1.6-0.9,2.7-0.9s2.1,0.3,2.7,0.9c0.7,0.6,1,1.6,1,2.9v32.3H85V71.1z M90.7,64.8V52h-3.8v11.8c0,0.4,0.1,0.7,0.2,0.8
			s0.4,0.2,0.9,0.2C88,64.8,90.7,64.8,90.7,64.8z M109.9,55.6h-2.1v17.3h-7.3V37c0-1.2,0.4-2.1,1.1-2.7c0.7-0.6,1.6-0.9,2.6-0.9
			s1.8,0.3,2.5,0.9c0.7,0.6,1.1,1.5,1.1,2.7v11.6h2.1V37c0-1.2,0.4-2.1,1.1-2.7s1.6-0.9,2.6-0.9c0.5,0,0.9,0.1,1.4,0.2
			c0.4,0.2,0.8,0.4,1.2,0.7c0.3,0.3,0.6,0.7,0.8,1.1c0.2,0.4,0.3,0.9,0.3,1.5v35.9h-7.5V55.6H109.9z"/>
		<path style="fill:#FFFFFF;" d="M127,72.9c-0.9,0-1.7-0.1-2.4-0.4s-1.2-0.7-1.7-1.2c-0.4-0.5-0.8-1.1-1-1.7s-0.3-1.3-0.3-2.1v-0.1
			c0-1.5,0.4-2.7,1.3-3.6c0.8-0.9,2.2-1.4,4-1.4h22.5v-0.8c0-0.4-0.3-0.7-0.9-0.7h-24.1c-0.8,0-1.4-0.2-1.8-0.7s-0.6-1-0.6-1.6
			s0.2-1.1,0.6-1.6s1-0.8,1.8-0.8h11.4v-1.8h-12.4c-1.1,0-1.9-0.3-2.3-0.8c-0.5-0.5-0.7-1.2-0.7-1.9s0.2-1.4,0.7-2
			c0.4-0.6,1.2-0.9,2.4-0.9h33.3c1.1,0,1.9,0.3,2.4,0.9c0.4,0.6,0.7,1.2,0.7,2s-0.2,1.4-0.7,1.9s-1.2,0.8-2.3,0.8h-12.4v1.8h9
			c1.8,0,3,0.3,3.7,1s1,1.6,1,2.9v6.5h-26.6c-0.3,0-0.5,0.1-0.6,0.2s-0.2,0.3-0.2,0.5s0.1,0.4,0.2,0.5c0.1,0.1,0.3,0.2,0.6,0.2H157
			c0.8,0,1.4,0.2,1.7,0.7s0.5,1,0.5,1.6c0,0.5-0.2,1-0.5,1.6c-0.3,0.5-0.9,0.8-1.8,0.8H127V72.9z M158.5,40.6c0,1-0.2,1.8-0.5,2.6
			s-0.8,1.5-1.4,2.1c-0.6,0.6-1.4,1.1-2.4,1.4c-1,0.4-2.1,0.5-3.4,0.5h-21.3c-1.3,0-2.5-0.2-3.4-0.5c-1-0.3-1.7-0.8-2.4-1.4
			c-0.6-0.6-1.1-1.3-1.4-2.1s-0.5-1.7-0.5-2.6c0-1,0.2-1.8,0.5-2.6s0.8-1.5,1.4-2.1s1.4-1.1,2.4-1.4c1-0.4,2.1-0.5,3.4-0.5h21.3
			c1.3,0,2.4,0.2,3.4,0.5c1,0.4,1.7,0.8,2.4,1.4c0.6,0.6,1.1,1.3,1.4,2.1C158.3,38.8,158.5,39.7,158.5,40.6z M149.8,40.6
			c0-0.4-0.1-0.7-0.4-0.9c-0.2-0.2-0.7-0.4-1.3-0.4h-16c-0.6,0-1.1,0.1-1.3,0.4s-0.4,0.6-0.4,0.9c0,0.4,0.1,0.7,0.4,0.9
			c0.2,0.2,0.7,0.4,1.3,0.4h16c0.6,0,1.1-0.1,1.3-0.4C149.7,41.3,149.8,41,149.8,40.6z"/>
		<path style="fill:#FFFFFF;" d="M181.4,71c-1.3,0-2.3-0.1-3.1-0.3c-0.8-0.2-1.4-0.6-1.9-1c-0.4-0.5-0.8-1.1-0.9-1.9
			c-0.2-0.8-0.3-1.8-0.3-3V39c0-1.4,0.4-2.5,1.2-3.1s1.7-1,2.9-1s2.1,0.3,2.9,1c0.7,0.6,1.1,1.7,1.1,3.1v23.9c0,0.5,0.1,0.8,0.2,0.9
			c0.2,0.1,0.5,0.2,0.9,0.2h6.3c0.7,0,1.2,0.1,1.7,0.3c0.5,0.2,0.8,0.5,1.1,0.8s0.5,0.7,0.6,1.1s0.2,0.9,0.2,1.3s-0.1,0.9-0.2,1.3
			s-0.3,0.8-0.6,1.1c-0.3,0.3-0.6,0.6-1.1,0.8c-0.5,0.2-1,0.3-1.7,0.3L181.4,71L181.4,71z M195.8,37c0-1.2,0.4-2.1,1.1-2.7
			s1.6-0.9,2.6-0.9c0.5,0,0.9,0.1,1.4,0.2c0.4,0.2,0.9,0.4,1.2,0.7c0.4,0.3,0.7,0.7,0.9,1.1c0.2,0.4,0.3,0.9,0.3,1.5v11.8h2.2V37
			c0-1.2,0.4-2.1,1.1-2.7s1.6-0.9,2.6-0.9c0.5,0,0.9,0.1,1.4,0.2c0.4,0.2,0.9,0.4,1.2,0.7c0.4,0.3,0.7,0.7,0.9,1.1
			c0.2,0.4,0.3,0.9,0.3,1.5v35.9h-7.5v-17h-2.2v17.1h-7.5V37z"/>
		<path style="fill:#FFFFFF;" d="M224,50.8V48c-2.2-0.3-3.8-1-4.9-2.3c-1.1-1.3-1.6-2.8-1.6-4.6V41c0-1,0.2-1.9,0.5-2.8
			c0.3-0.9,0.8-1.6,1.5-2.2s1.5-1.1,2.5-1.5s2.2-0.5,3.5-0.5h20.7c1.3,0,2.5,0.2,3.5,0.5c1,0.4,1.8,0.8,2.5,1.5s1.2,1.4,1.5,2.2
			c0.3,0.9,0.5,1.8,0.5,2.8v0.1c0,1.8-0.5,3.3-1.6,4.6s-2.7,2-4.9,2.3v2.8h4.5c1.2,0,2.1,0.3,2.5,1c0.5,0.6,0.7,1.4,0.7,2.1
			c0,0.8-0.3,1.5-0.8,2.1s-1.3,0.9-2.5,0.9h-32.8c-1.2,0-2-0.3-2.5-0.9c-0.5-0.6-0.8-1.3-0.8-2.1s0.2-1.5,0.7-2.1s1.3-1,2.5-1
			C219.2,50.8,224,50.8,224,50.8z M246.3,58.8c1.3,0,2.5,0.2,3.4,0.5c1,0.4,1.8,0.9,2.5,1.5s1.1,1.4,1.5,2.2
			c0.3,0.9,0.5,1.8,0.5,2.8s-0.2,1.9-0.5,2.8s-0.8,1.6-1.5,2.2s-1.5,1.1-2.5,1.5s-2.1,0.5-3.4,0.5h-20.8c-1.3,0-2.5-0.2-3.5-0.5
			c-1-0.4-1.8-0.9-2.5-1.5c-0.6-0.6-1.1-1.4-1.4-2.2c-0.3-0.9-0.5-1.8-0.5-2.8s0.2-1.9,0.5-2.8c0.3-0.9,0.8-1.6,1.4-2.2
			c0.6-0.6,1.5-1.1,2.5-1.5s2.1-0.5,3.5-0.5C225.5,58.8,246.3,58.8,246.3,58.8z M226,41.1c0,0.4,0.1,0.7,0.4,0.9
			c0.3,0.2,0.8,0.3,1.5,0.3h16c0.8,0,1.3-0.1,1.5-0.3c0.3-0.2,0.4-0.5,0.4-0.9v-0.2c0-0.3-0.1-0.6-0.4-0.8c-0.3-0.2-0.8-0.4-1.5-0.4
			h-16c-0.8,0-1.3,0.1-1.5,0.4c-0.3,0.2-0.4,0.5-0.4,0.8V41.1z M243.7,67.4c0.8,0,1.3-0.2,1.6-0.5c0.2-0.3,0.3-0.6,0.3-0.9
			s-0.1-0.6-0.3-0.9s-0.7-0.5-1.6-0.5h-15.6c-0.8,0-1.3,0.2-1.6,0.5c-0.2,0.3-0.3,0.6-0.3,0.9s0.1,0.6,0.3,0.9s0.7,0.5,1.6,0.5
			H243.7z M232,50.8h7.8V48H232V50.8z"/>
		<path style="fill:#FFFFFF;" d="M272.4,47c2.2-0.4,3.7-1.5,4.7-3.1s1.5-3.7,1.5-6.3v-0.2c0-0.6,0.1-1.2,0.4-1.7
			c0.2-0.5,0.6-0.9,1-1.2s0.9-0.5,1.4-0.7c0.5-0.1,1.1-0.2,1.6-0.2c1.1,0,2,0.3,2.8,0.9s1.2,1.5,1.2,2.8v0.2c0,1.1-0.1,2.2-0.3,3.2
			c1.5,0.1,2.8,0.4,4,1s2.2,1.4,3.1,2.4c0.8,1,1.5,2.3,1.9,3.8s0.6,3.3,0.5,5.3H288c0.2-1.8,0-3.2-0.6-4.3s-1.5-1.7-2.8-1.9
			c-1.2,2.1-2.7,3.7-4.6,4.8c-1.8,1.1-3.8,1.7-5.9,1.8c-1.1,0.1-2-0.2-2.7-0.7s-1.2-1.2-1.4-2c-0.2-1-0.1-1.9,0.3-2.6
			C270.8,47.7,271.5,47.2,272.4,47z M278.5,72.9c-1,0-1.8-0.2-2.5-0.5s-1.4-0.7-1.9-1.3c-0.5-0.5-0.9-1.1-1.2-1.8
			c-0.3-0.7-0.4-1.4-0.4-2.2v-0.5c0-1.5,0.5-2.7,1.5-3.6c1-0.9,2.5-1.3,4.4-1.3h20.3v-1.1c0-0.3,0-0.4-0.1-0.5s-0.3-0.1-0.5-0.1
			h-22.8c-0.8,0-1.4-0.3-1.8-0.8s-0.5-1.1-0.5-1.7c0-0.6,0.2-1.1,0.5-1.7c0.4-0.5,1-0.8,1.8-0.8h26.9c1.9,0,3.2,0.3,4,1
			c0.8,0.6,1.2,1.8,1.2,3.4v6.7h-25c-0.3,0-0.5,0.1-0.7,0.2c-0.2,0.2-0.2,0.3-0.2,0.6V67c0,0.2,0.1,0.4,0.2,0.6
			c0.2,0.2,0.4,0.2,0.7,0.2H306c0.8,0,1.4,0.3,1.8,0.8s0.6,1.1,0.6,1.8c0,0.6-0.2,1.1-0.5,1.7c-0.4,0.5-1,0.8-1.8,0.8H278.5z
			 M298.7,37.6c0-1.4,0.4-2.4,1.2-3.1c0.8-0.7,1.8-1.1,2.9-1.1s2.1,0.4,2.9,1.1c0.8,0.7,1.3,1.7,1.3,3.1v2.6h1.3
			c0.6,0,1.2,0.1,1.6,0.3s0.8,0.5,1,0.8c0.3,0.4,0.4,0.7,0.5,1.2c0.1,0.4,0.2,0.8,0.2,1.3s-0.1,0.8-0.2,1.3
			c-0.1,0.4-0.3,0.8-0.5,1.2s-0.6,0.6-1,0.8s-1,0.3-1.6,0.3H307v6.3h-8.3V37.6z"/>
		<path style="fill:#FFFFFF;" d="M314.9,71.2c-0.5,0-1-0.1-1.4-0.3c-0.4-0.2-0.7-0.5-1-0.8s-0.5-0.7-0.6-1.1s-0.2-0.8-0.2-1.2
			c0-0.8,0.3-1.6,0.8-2.2c0.5-0.7,1.3-1,2.4-1h0.8V47.1c0-1.3,0.4-2.2,1.1-2.8s1.7-0.9,2.9-0.9c1.2,0,2.2,0.3,2.9,0.9
			c0.7,0.6,1.1,1.5,1.1,2.8v17.5h2.9V47.1c0-1.3,0.4-2.2,1.1-2.8s1.7-0.9,2.9-0.9c1.2,0,2.2,0.3,2.9,0.9c0.7,0.6,1.1,1.5,1.1,2.8
			v17.5h1.5c1.1,0,1.9,0.3,2.4,1s0.8,1.4,0.8,2.2c0,0.4-0.1,0.8-0.2,1.2c-0.1,0.4-0.3,0.7-0.6,1.1c-0.3,0.3-0.6,0.6-1,0.8
			c-0.4,0.2-0.9,0.3-1.4,0.3H314.9z M315.4,41.8c-0.5,0-1-0.1-1.4-0.3s-0.7-0.5-1-0.8s-0.5-0.7-0.6-1.1s-0.2-0.8-0.2-1.2
			s0.1-0.8,0.2-1.2s0.3-0.8,0.6-1.1c0.3-0.3,0.6-0.6,1-0.8s0.9-0.3,1.4-0.3h19.3c0.6,0,1,0.1,1.4,0.3s0.7,0.5,1,0.8s0.5,0.7,0.6,1.1
			c0.1,0.4,0.2,0.8,0.2,1.2s-0.1,0.8-0.2,1.2s-0.4,0.8-0.6,1.1c-0.3,0.3-0.6,0.6-1,0.8s-0.9,0.3-1.4,0.3H315.4z M341.8,62.6h-2
			c-0.6,0-1.2-0.1-1.6-0.3s-0.8-0.5-1.1-0.8c-0.3-0.3-0.5-0.7-0.6-1.2c-0.1-0.4-0.2-0.9-0.2-1.3s0.1-0.8,0.2-1.3
			c0.1-0.4,0.3-0.8,0.6-1.2c0.3-0.3,0.6-0.6,1.1-0.8c0.4-0.2,1-0.3,1.6-0.3h2v-3.9h-2c-0.6,0-1.2-0.1-1.6-0.3s-0.8-0.5-1.1-0.8
			c-0.3-0.4-0.5-0.7-0.6-1.2c-0.1-0.4-0.2-0.9-0.2-1.3s0.1-0.8,0.2-1.3c0.1-0.4,0.3-0.8,0.6-1.2c0.3-0.3,0.6-0.6,1.1-0.8
			c0.4-0.2,1-0.3,1.6-0.3h2v-6.7c0-1.3,0.4-2.4,1.3-3s1.8-1,2.9-1c0.5,0,1,0.1,1.6,0.3c0.5,0.2,1,0.4,1.3,0.8
			c0.4,0.3,0.7,0.8,0.9,1.3c0.2,0.5,0.4,1.1,0.4,1.8v35.4h-8.4L341.8,62.6L341.8,62.6z"/>
		<path style="fill:#FFFFFF;" d="M369.4,65.3V58h-7.2c-1.3,0-2.3-0.1-3.1-0.3s-1.4-0.6-1.9-1.1c-0.4-0.5-0.8-1.2-0.9-2
			c-0.2-0.8-0.2-1.9-0.2-3.1V38c0-0.7,0.1-1.2,0.4-1.7c0.2-0.5,0.6-0.9,1-1.2s0.9-0.5,1.4-0.7c0.5-0.1,1.1-0.2,1.6-0.2
			s1.1,0.1,1.6,0.2s1,0.4,1.4,0.7s0.7,0.7,1,1.2s0.4,1.1,0.4,1.7v1.6h17.9V38c0-0.7,0.1-1.2,0.4-1.7c0.2-0.5,0.6-0.9,0.9-1.2
			c0.4-0.3,0.8-0.5,1.4-0.7c0.5-0.1,1.1-0.2,1.6-0.2s1.1,0.1,1.6,0.2s1,0.4,1.4,0.7s0.7,0.7,1,1.2s0.4,1.1,0.4,1.7v19.9h-13.2v7.3
			h11.8c0.6,0,1.2,0.1,1.6,0.3c0.4,0.2,0.8,0.5,1.1,0.8c0.3,0.3,0.5,0.7,0.6,1.1s0.2,0.8,0.2,1.2c0,0.9-0.3,1.7-0.8,2.4
			s-1.4,1.1-2.7,1.1h-32.3c-1.3,0-2.2-0.4-2.7-1.1s-0.8-1.5-0.8-2.4c0-0.4,0.1-0.8,0.2-1.2c0.1-0.4,0.3-0.8,0.6-1.1
			c0.3-0.3,0.6-0.6,1.1-0.8c0.4-0.2,1-0.3,1.6-0.3L369.4,65.3L369.4,65.3z M382.6,51.2v-5h-17.9v3.7c0,0.4,0.1,0.7,0.3,0.9
			c0.2,0.2,0.5,0.3,1,0.3L382.6,51.2L382.6,51.2z"/>
		<path style="fill:#FFFFFF;" d="M399.8,64.3c1.8-0.2,3.4-0.5,4.8-1s2.7-1.3,3.7-2.4c1-1.1,1.8-2.5,2.3-4.2s0.8-3.9,0.8-6.5v-6.8
			c0-0.3-0.1-0.6-0.3-0.8c-0.2-0.2-0.4-0.3-0.8-0.3h-9.6c-0.6,0-1.2-0.1-1.7-0.3s-0.8-0.5-1.2-0.8c-0.3-0.3-0.5-0.7-0.7-1.2
			c-0.2-0.4-0.2-0.9-0.2-1.3c0-0.4,0.1-0.8,0.2-1.3c0.2-0.4,0.4-0.8,0.7-1.2c0.3-0.3,0.7-0.6,1.2-0.9c0.5-0.2,1-0.3,1.7-0.3h12.4
			c2.4,0,4.1,0.5,5.1,1.6s1.5,2.6,1.5,4.5v9c0,3.8-0.5,6.9-1.5,9.6c-1,2.6-2.4,4.8-4.1,6.5s-3.8,2.9-6.1,3.7
			c-2.3,0.8-4.9,1.2-7.5,1.3c-0.5,0-1-0.1-1.5-0.2s-0.9-0.4-1.3-0.7s-0.7-0.7-0.9-1.1c-0.2-0.4-0.3-1-0.3-1.6
			c0.1-0.9,0.3-1.7,0.9-2.3C398,64.7,398.8,64.4,399.8,64.3z M425.8,72.9V37.6c0-1.4,0.4-2.4,1.3-3.1c0.8-0.7,1.8-1.1,2.9-1.1
			s2.1,0.4,2.9,1.1c0.8,0.7,1.3,1.7,1.3,3.1v35.3C434.2,72.9,425.8,72.9,425.8,72.9z"/>
	</g>
</g>
</svg>
