<?xml version="1.0" encoding="utf-8"?>
<!-- Generator: Adobe Illustrator 23.1.0, SVG Export Plug-In . SVG Version: 6.00 Build 0)  -->
<svg version="1.1" id="레이어_1" xmlns="http://www.w3.org/2000/svg" xmlns:xlink="http://www.w3.org/1999/xlink" x="0px"
	 y="0px" width="50px" height="50px" viewBox="0 0 50 50" style="enable-background:new 0 0 50 50;" xml:space="preserve">
<g>
	<path style="opacity:0.2;" d="M47,31.8c-3,11.7-14.9,18.7-26.6,15.6C8.7,44.4,1.7,32.5,4.7,20.8C7.8,9.1,19.7,2.1,31.4,5.2
		C43,8.2,50,20.1,47,31.8z"/>
	<path style="fill:#E95157;" d="M45.3,29.2c-3,11.7-14.9,18.7-26.6,15.6C7,41.8,0,29.9,3,18.2C6,6.5,17.9-0.5,29.6,2.6
		C41.3,5.6,48.3,17.5,45.3,29.2z"/>
	<path style="fill:#E84853;" d="M2.7,28c6.2,0.2,23.1-0.4,42.3-10.8c-0.7-2.4-1.9-4.7-3.4-6.7c-6.2,4.3-20.5,12.3-39.2,11.1
		C2.2,23.9,2.3,26,2.7,28z"/>
	<path style="fill:#E84853;" d="M45.3,29.2c0.6-2.2,0.8-4.5,0.7-6.7C41,26.2,25.9,36,5.4,34.9c0.9,1.6,2.1,3.1,3.4,4.4
		c6.5,0,20.1-0.9,35.9-8.3C44.9,30.4,45.1,29.8,45.3,29.2z"/>
	<path style="fill:#E84853;" d="M22.6,45.5c5.2,0.4,10.2-1.1,14.2-4C32.8,43.1,28,44.6,22.6,45.5z"/>
	<path style="fill:#E84853;" d="M37.6,6.5c-2.3-1.8-5-3.1-7.9-3.9C19.1-0.2,8.4,5.2,4.2,14.8C11.3,14.6,23.6,13,37.6,6.5z"/>
	<path style="fill:#D73A4E;" d="M37.4,17.7c-0.6,2.2-2.8,3.5-5.1,3c-2.2-0.6-3.5-2.8-3-5.1c0.6-2.2,2.8-3.5,5.1-3
		C36.6,13.3,37.9,15.5,37.4,17.7z"/>
	<path d="M35.1,14c0.9,0.2,1.6,0.7,2.2,1.4c-0.4-1.3-1.5-2.3-2.9-2.7c-2.2-0.6-4.5,0.8-5.1,3c-0.3,1.3,0,2.7,0.8,3.7
		c-0.3-0.7-0.3-1.6-0.1-2.4C30.6,14.7,32.9,13.4,35.1,14z"/>
	<path style="fill:#D73A4E;" d="M23.7,27c-0.4,1.5-1.9,2.4-3.4,2c-1.5-0.4-2.4-1.9-2-3.4c0.4-1.5,1.9-2.4,3.4-2
		C23.2,24,24.1,25.5,23.7,27z"/>
	<path d="M22.2,24.5c0.6,0.2,1.1,0.5,1.5,0.9c-0.3-0.9-1-1.6-2-1.8c-1.5-0.4-3.1,0.5-3.4,2c-0.2,0.9,0,1.8,0.6,2.5
		c-0.2-0.5-0.2-1.1-0.1-1.6C19.1,25,20.7,24.1,22.2,24.5z"/>
	<path style="fill:#D73A4E;" d="M33.4,7.8c-0.3,1-1.3,1.6-2.2,1.3c-1-0.3-1.6-1.3-1.3-2.2c0.3-1,1.3-1.6,2.2-1.3
		C33.1,5.8,33.7,6.9,33.4,7.8z"/>
	<path d="M32.4,6.2c0.4,0.1,0.7,0.3,1,0.6c-0.2-0.6-0.7-1-1.3-1.2c-1-0.3-2,0.3-2.2,1.3c-0.2,0.6,0,1.2,0.4,1.6
		c-0.1-0.3-0.1-0.7,0-1.1C30.4,6.5,31.4,5.9,32.4,6.2z"/>
	<path style="fill:#D73A4E;" d="M13.3,24.3c-0.4,1.5-1.9,2.4-3.4,2c-1.5-0.4-2.4-1.9-2-3.4s1.9-2.4,3.4-2
		C12.8,21.3,13.7,22.8,13.3,24.3z"/>
	<path d="M11.8,21.8c0.6,0.2,1.1,0.5,1.5,0.9c-0.3-0.9-1-1.6-2-1.8c-1.5-0.4-3.1,0.5-3.4,2c-0.2,0.9,0,1.8,0.6,2.5
		c-0.2-0.5-0.2-1.1-0.1-1.6C8.7,22.3,10.3,21.4,11.8,21.8z"/>
	<path style="fill:#D73A4E;" d="M23.2,40.5c-0.4,1.5-1.9,2.4-3.4,2c-1.5-0.4-2.4-1.9-2-3.4c0.4-1.5,1.9-2.4,3.4-2
		C22.6,37.4,23.5,38.9,23.2,40.5z"/>
	<path d="M21.6,37.9c0.6,0.2,1.1,0.5,1.5,0.9c-0.3-0.9-1-1.6-2-1.8c-1.5-0.4-3.1,0.5-3.4,2c-0.2,0.9,0,1.8,0.6,2.5
		c-0.2-0.5-0.2-1.1-0.1-1.6C18.6,38.4,20.1,37.5,21.6,37.9z"/>
	<path style="fill:#D73A4E;" d="M33.6,38.7c-0.4,1.5-1.9,2.4-3.4,2c-1.5-0.4-2.4-1.9-2-3.4c0.4-1.5,1.9-2.4,3.4-2
		C33.1,35.6,34,37.2,33.6,38.7z"/>
	<path d="M32.1,36.1c0.6,0.2,1.1,0.5,1.5,0.9c-0.3-0.9-1-1.6-2-1.8c-1.5-0.4-3.1,0.5-3.4,2c-0.2,0.9,0,1.8,0.6,2.5
		c-0.2-0.5-0.2-1.1-0.1-1.6C29,36.6,30.6,35.7,32.1,36.1z"/>
	<path style="fill:#D73A4E;" d="M40.7,28.3c-0.2,0.9-1.1,1.4-2,1.2c-0.9-0.2-1.4-1.1-1.2-2c0.2-0.9,1.1-1.4,2-1.2
		C40.4,26.6,40.9,27.4,40.7,28.3z"/>
	<path d="M39.8,26.8c0.3,0.1,0.6,0.3,0.8,0.5c-0.2-0.5-0.6-0.9-1.1-1c-0.9-0.2-1.7,0.3-2,1.2c-0.1,0.5,0,1,0.3,1.4
		c-0.1-0.3-0.1-0.6,0-0.9C38.1,27.1,39,26.6,39.8,26.8z"/>
	<path style="fill:#D73A4E;" d="M20.5,9.6c-0.2,0.9-1.1,1.4-2,1.2c-0.9-0.2-1.4-1.1-1.2-2c0.2-0.9,1.1-1.4,2-1.2
		C20.2,7.8,20.7,8.7,20.5,9.6z"/>
	<path d="M19.6,8.1c0.3,0.1,0.6,0.3,0.8,0.5c-0.2-0.5-0.6-0.9-1.1-1c-0.9-0.2-1.7,0.3-2,1.2c-0.1,0.5,0,1,0.3,1.4
		c-0.1-0.3-0.1-0.6,0-0.9C17.9,8.4,18.8,7.9,19.6,8.1z"/>
	<path style="fill:#D73A4E;" d="M10.1,11.6c-0.1,0.5-0.6,0.7-1,0.6c-0.5-0.1-0.7-0.6-0.6-1c0.1-0.5,0.6-0.7,1-0.6
		C9.9,10.7,10.2,11.2,10.1,11.6z"/>
	<path d="M9.6,10.8c0.2,0,0.3,0.1,0.4,0.3c-0.1-0.3-0.3-0.5-0.6-0.5c-0.5-0.1-0.9,0.2-1,0.6c-0.1,0.3,0,0.6,0.2,0.8
		c-0.1-0.2-0.1-0.3,0-0.5C8.7,11,9.1,10.7,9.6,10.8z"/>
	<path style="fill:#D73A4E;" d="M44.7,23.2c-0.1,0.5-0.6,0.7-1,0.6c-0.5-0.1-0.7-0.6-0.6-1c0.1-0.5,0.6-0.7,1-0.6
		C44.6,22.3,44.8,22.8,44.7,23.2z"/>
	<path d="M44.3,22.5c0.2,0,0.3,0.1,0.4,0.3c-0.1-0.3-0.3-0.5-0.6-0.5c-0.5-0.1-0.9,0.2-1,0.6c-0.1,0.3,0,0.6,0.2,0.8
		c-0.1-0.2-0.1-0.3,0-0.5C43.3,22.6,43.8,22.3,44.3,22.5z"/>
	<path style="fill:#D73A4E;" d="M8.8,30.7c-0.1,0.5-0.6,0.7-1,0.6c-0.5-0.1-0.7-0.6-0.6-1c0.1-0.5,0.6-0.7,1-0.6
		C8.6,29.8,8.9,30.2,8.8,30.7z"/>
	<path d="M8.3,29.9c0.2,0,0.3,0.1,0.4,0.3c-0.1-0.3-0.3-0.5-0.6-0.5c-0.5-0.1-0.9,0.2-1,0.6c-0.1,0.3,0,0.6,0.2,0.8
		c-0.1-0.2-0.1-0.3,0-0.5C7.4,30.1,7.8,29.8,8.3,29.9z"/>
	<path style="fill:#D73A4E;" d="M14.9,38.4c-0.1,0.5-0.6,0.7-1,0.6c-0.5-0.1-0.7-0.6-0.6-1c0.1-0.5,0.6-0.7,1-0.6
		C14.8,37.5,15,37.9,14.9,38.4z"/>
	<path d="M14.5,37.6c0.2,0,0.3,0.1,0.4,0.3c-0.1-0.3-0.3-0.5-0.6-0.5c-0.5-0.1-0.9,0.2-1,0.6c-0.1,0.3,0,0.6,0.2,0.8
		c-0.1-0.2-0.1-0.3,0-0.5C13.5,37.8,14,37.5,14.5,37.6z"/>
	<path style="opacity:0.1;" d="M38.1,6.9c1.5,4,1.8,8.6,0.6,13c-3,11.7-14.9,18.7-26.6,15.6c-3.2-0.8-6-2.3-8.4-4.3
		c2.4,6.5,7.8,11.7,15,13.6c11.7,3,23.6-4,26.6-15.6C47.5,20.7,44.4,12.1,38.1,6.9z"/>
</g>
<g>
</g>
<g>
</g>
<g>
</g>
<g>
</g>
<g>
</g>
<g>
</g>
<g>
</g>
<g>
</g>
<g>
</g>
<g>
</g>
<g>
</g>
<g>
</g>
<g>
</g>
<g>
</g>
<g>
</g>
</svg>
