
<svg xmlns="http://www.w3.org/2000/svg" version="1.1" xmlns:xlink="http://www.w3.org/1999/xlink" preserveAspectRatio="none" x="0px" y="0px" width="1190px" height="438px" viewBox="0 0 1190 438">
<defs>
<g id="Layer0_0_FILL">
<path fill="#569ECC" stroke="none" d="
M 551.35 45.95
L 551.35 3.95 51.25 3.95 51.25 45.95
Q 51.25 56.3 58.55 63.6 65.9 70.95 76.25 70.95
L 526.35 70.95
Q 536.75 70.95 544 63.6 551.35 56.35 551.35 45.95 Z"/>

<path fill="#FFFFFF" stroke="none" d="
M 1186.5 28.95
Q 1186.5 18.6 1179.15 11.25 1171.85 3.95 1161.5 3.95
L 551.35 3.95 551.35 45.95
Q 551.35 56.35 544 63.6 536.75 70.95 526.35 70.95
L 76.25 70.95
Q 65.9 70.95 58.55 63.6 51.25 56.3 51.25 45.95
L 51.25 3.95 28.5 3.95
Q 18.2 3.95 10.8 11.25 3.5 18.65 3.5 28.95
L 3.5 409.1
Q 3.5 419.45 10.8 426.75 18.15 434.1 28.5 434.1
L 1161.5 434.1
Q 1171.9 434.1 1179.15 426.75 1186.5 419.5 1186.5 409.1
L 1186.5 28.95 Z"/>
</g>

<g id="Layer0_1_FILL">
<path fill="#FFFFFF" stroke="none" d="
M 508.5 22.8
Q 507.75 22.45 506.95 22.2 506.1 21.95 505.2 21.8 504.3 21.7 503.35 21.7 502.3 21.7 501.4 21.8 500.5 21.95 499.7 22.2 498.85 22.45 498.15 22.8 497.45 23.2 496.85 23.65 496.25 24.1 495.8 24.7 495.35 25.25 495 25.9 494.65 26.6 494.5 27.35 494.35 28.05 494.35 28.9 494.35 29.55 494.45 30.2 494.6 30.8 494.85 31.4 495.05 32 495.4 32.55 495.7 33.1 496.2 33.55 496.6 33.95 497.05 34.3 497.5 34.65 498 34.9 497.9 35.05 497.85 35.25 497.8 35.45 497.8 35.65
L 497.8 40.25 491.5 40.25
Q 491.1 40.25 490.8 40.35 490.55 40.5 490.4 40.7 490.25 40.95 490.2 41.25 490.1 41.55 490.1 41.85 490.1 42.2 490.2 42.45 490.25 42.7 490.4 42.95 490.55 43.2 490.8 43.3 491.1 43.4 491.5 43.4
L 515.05 43.4
Q 515.55 43.4 515.8 43.3 516.1 43.2 516.2 42.95 516.35 42.7 516.4 42.45 516.45 42.2 516.45 41.85 516.45 41.55 516.4 41.25 516.35 40.95 516.2 40.7 516.1 40.5 515.8 40.35 515.55 40.25 515.05 40.25
L 509.1 40.25 509.1 35.65
Q 509.1 35.35 509 35.1 508.95 34.9 508.8 34.75 509.05 34.6 509.3 34.45 509.6 34.3 509.85 34.1 511.1 33.15 511.7 31.85 512.35 30.55 512.35 28.9 512.35 27.25 511.7 25.9 511.4 25.25 510.9 24.7 510.45 24.1 509.85 23.65 509.25 23.2 508.5 22.8
M 503.35 24.9
Q 504.65 24.9 505.65 25.15 506.65 25.45 507.35 25.95 508.05 26.55 508.4 27.25 508.7 28 508.7 28.9 508.7 30.75 507.35 31.75 506.65 32.3 505.65 32.55 504.65 32.85 503.35 32.85 502.05 32.85 501.05 32.55 500.05 32.3 499.35 31.75 497.9 30.75 497.9 28.9 497.9 28 498.25 27.25 498.6 26.55 499.35 25.95 500.05 25.45 501.05 25.15 502.05 24.9 503.35 24.9
M 502.8 36.05
Q 503.05 36.1 503.4 36.1 503.9 36.05 504.4 36 504.9 35.95 505.35 35.9 505.45 35.9 505.55 35.9 505.65 35.85 505.8 35.85
L 505.8 40.25 501.2 40.25 501.2 35.95
Q 501.75 36.05 502.25 36.05 502.5 36.05 502.8 36.05
M 472.75 23.5
Q 472.65 23.8 472.65 24.05 472.65 24.35 472.7 24.65 472.8 24.95 472.95 25.2 473.15 25.75 473.9 25.75
L 475.75 25.75
Q 475.8 26.2 475.8 26.6 475.8 26.75 475.8 26.8 475.8 26.85 475.8 26.95 475.8 27 475.8 27.1 475.8 27.15 475.8 27.2 475.7 27.95 475.6 28.75 475.55 29.5 475.4 30.25 475.3 31 475.15 31.7 474.95 32.45 474.75 33.1 474.45 33.85 474.15 34.5 473.85 35.2 473.55 35.8 473.2 36.4 472.8 36.95 472.4 37.5 471.95 38 471.85 38.2 471.8 38.35 471.75 38.5 471.75 38.7 471.75 39.1 471.9 39.45 472.05 39.75 472.35 40 472.7 40.25 473 40.35 473.35 40.45 473.7 40.45 473.95 40.45 474.15 40.35 474.35 40.3 474.5 40.05 475.15 39.4 475.7 38.6 476.25 37.85 476.75 36.95 477.2 36.1 477.6 35.2 478 34.3 478.25 33.3 478.6 32.3 478.85 31.3 479.05 30.25 479.2 29.2 479.3 28.2 479.35 27.15 479.45 26.1 479.45 25.05 479.45 24.75 479.4 24.5 479.4 24.25 479.35 24 479.3 23.75 479.2 23.55 479.1 23.35 479 23.2 478.85 23.05 478.65 22.9 478.4 22.8 478.15 22.7 477.85 22.65 477.45 22.6 477.1 22.55 476.6 22.55
L 473.9 22.55
Q 473.55 22.55 473.3 22.65 473.1 22.75 472.95 23 472.8 23.25 472.75 23.5
M 470.45 22.7
Q 470.15 22.65 469.8 22.6 469.45 22.55 469 22.55
L 465.9 22.55
Q 465.6 22.55 465.35 22.7 465.1 22.8 464.95 23.05 464.75 23.3 464.7 23.55 464.6 23.85 464.6 24.2 464.6 24.5 464.7 24.75 464.8 25 464.95 25.2 465.15 25.45 465.4 25.55 465.6 25.65 465.9 25.65
L 468.35 25.65
Q 468.35 25.75 468.35 25.85 468.35 25.9 468.4 25.95 468.4 26.05 468.4 26.15 468.4 26.2 468.4 26.25 468.4 26.4 468.4 26.5 468.4 26.55 468.4 26.65 468.35 26.75 468.35 26.9 468.35 27 468.35 27.1 468.25 27.75 468.2 28.35 468.1 29 468 29.6 467.9 30.25 467.75 30.85 467.6 31.45 467.4 32.05 467.2 32.55 466.9 33.1 466.65 33.6 466.35 34.05 466.05 34.55 465.7 35 465.35 35.45 464.95 35.8 464.5 36.25 464.5 36.8 464.5 37.1 464.6 37.35 464.75 37.6 464.95 37.8 465.05 38 465.2 38.1 465.35 38.25 465.45 38.3 465.6 38.35 465.75 38.35 465.95 38.4 466.1 38.4 466.3 38.4 466.5 38.35 466.65 38.35 466.8 38.25 467.5 37.75 468.1 37.15 468.7 36.45 469.2 35.65 469.7 34.8 470.05 33.95 470.45 33.05 470.7 32.1 471 31.15 471.25 30.2 471.45 29.25 471.6 28.3 471.65 27.35 471.75 26.5 471.8 25.65 471.8 24.85 471.8 24.3 471.7 23.85 471.6 23.45 471.35 23.15 471.15 23 470.95 22.9 470.75 22.8 470.45 22.7
M 488.7 33.45
Q 489.05 33.45 489.35 33.3 489.6 33.2 489.8 32.95 489.95 32.7 490.05 32.4 490.15 32.15 490.15 31.8 490.15 31.5 490.05 31.2 489.95 30.95 489.8 30.7 489.45 30.25 488.7 30.25
L 485.8 30.25 485.8 21.3
Q 485.8 20.9 485.65 20.65 485.55 20.4 485.3 20.25 485.05 20.15 484.75 20.05 484.45 20 484.1 20 483.7 20 483.45 20.05 483.15 20.15 482.95 20.25 482.75 20.4 482.65 20.65 482.5 20.9 482.5 21.3
L 482.5 47.05
Q 482.5 47.4 482.65 47.65 482.75 47.9 482.95 48.05 483.15 48.15 483.45 48.25 483.7 48.3 484.1 48.3 484.45 48.3 484.75 48.25 485.05 48.15 485.3 48.05 485.55 47.9 485.65 47.65 485.8 47.4 485.8 47.05
L 485.8 33.45 488.7 33.45
M 456.45 36.75
Q 456.15 36.6 455.7 36.55 455.3 36.45 454.7 36.45
L 442.3 36.45
Q 441.95 36.45 441.65 36.6 441.4 36.7 441.25 36.9 441 37.1 440.9 37.4 440.8 37.65 440.8 38 440.8 38.65 441.15 38.95 441.55 39.25 442.3 39.25
L 454.1 39.25
Q 454.2 39.4 454.25 39.55 454.25 39.65 454.25 39.8
L 454.25 40.05
Q 454.25 40.25 454.25 40.4 454.2 40.5 454.1 40.6
L 443.45 40.6
Q 442.85 40.6 442.4 40.7 441.95 40.85 441.6 41.05 441.25 41.25 441.05 41.65 440.85 42.05 440.85 42.6
L 440.85 42.8
Q 440.85 43.1 440.85 43.35 440.85 43.6 440.9 43.8 440.9 44.05 440.9 44.3 440.9 44.55 440.9 44.8 440.9 45.35 441.1 45.8 441.35 46.25 441.75 46.6 442.15 46.95 442.65 47.2 443.15 47.45 443.8 47.65 444.4 47.8 445.05 47.95 445.7 48.05 446.45 48.15 447.15 48.2 447.8 48.25 448.45 48.3 449.05 48.3 450.65 48.3 452.1 48.1 452.8 48 453.45 47.9 454.05 47.8 454.65 47.7 455.9 47.45 457.05 47.15 457.55 47.05 457.85 46.65 458 46.4 458.1 46.2 458.15 45.95 458.15 45.75 458.15 45.2 457.8 44.85 457.65 44.7 457.4 44.6 457.15 44.55 456.85 44.55 456.65 44.55 456.5 44.55 456.3 44.55 456.05 44.6 455.6 44.75 455.1 44.85 454.55 44.95 454.05 45.1 453.55 45.15 453 45.25 452.5 45.35 451.9 45.4 451.25 45.5 450.55 45.5 449.9 45.55 449.15 45.55 448.6 45.55 448 45.5 447.45 45.5 446.85 45.45 445.6 45.25 444.6 44.9 444.55 44.75 444.5 44.55 444.5 44.35 444.5 44.1
L 444.5 43.95
Q 444.5 43.85 444.5 43.8 444.5 43.7 444.5 43.6 444.5 43.55 444.55 43.45 444.55 43.4 444.6 43.3
L 454.7 43.3
Q 455.05 43.3 455.35 43.3 455.65 43.25 455.9 43.2 456.1 43.15 456.35 43.05 456.6 42.95 456.85 42.8 457 42.7 457.15 42.5 457.3 42.35 457.45 42.1 457.55 41.85 457.6 41.55 457.65 41.25 457.65 40.9
L 457.75 40.9
Q 457.75 39.8 457.65 38.95 457.6 38.5 457.5 38.15 457.4 37.85 457.25 37.55 457 37.05 456.45 36.75
M 454.4 21.8
L 454.4 22.7 444.05 22.7 444.05 21.8
Q 444.05 21.65 444 21.5 443.95 21.35 443.85 21.2 443.75 21.1 443.65 21 443.55 20.9 443.4 20.8 443.2 20.7 442.85 20.65 442.7 20.6 442.55 20.6 442.35 20.55 442.25 20.55 441.95 20.55 441.7 20.65 441.4 20.7 441.1 20.8 440.8 20.95 440.65 21.2 440.5 21.45 440.5 21.8
L 440.5 26.5
Q 440.5 27.35 440.65 27.95 440.8 28.55 441.1 28.9 441.35 29.3 441.75 29.6 442.1 29.85 442.55 29.95 443.4 30.2 444.25 30.35 445.05 30.5 445.85 30.6 446.3 30.7 446.7 30.75 447.1 30.75 447.5 30.75
L 447.5 32.05 437.15 32.05
Q 436.85 32.05 436.6 32.2 436.35 32.3 436.2 32.5 436.05 32.75 436 33.05 435.9 33.35 435.9 33.65 435.9 33.95 436 34.25 436.05 34.5 436.2 34.7 436.35 34.95 436.6 35.1 436.85 35.2 437.15 35.2
L 461.35 35.2
Q 461.75 35.2 462 35.1 462.3 34.95 462.45 34.7 462.55 34.5 462.65 34.25 462.75 33.95 462.75 33.65 462.75 33.35 462.65 33.05 462.55 32.75 462.45 32.5 462.1 32.05 461.35 32.05
L 451.1 32.05 451.1 30.75
Q 451.5 30.75 451.9 30.7 452.25 30.65 452.7 30.55 453.55 30.45 454.35 30.3 455.2 30.15 455.95 29.95 456.4 29.9 456.8 29.65 457.2 29.4 457.45 29.05 458 28.3 458 26.85
L 458 21.8
Q 458 21.65 457.95 21.5 457.85 21.35 457.8 21.2 457.65 21.1 457.55 21 457.45 20.9 457.3 20.8 457.1 20.7 456.75 20.65 456.6 20.6 456.4 20.6 456.25 20.55 456.1 20.55 455.85 20.55 455.6 20.65 455.3 20.7 455 20.8 454.7 20.95 454.55 21.2 454.4 21.45 454.4 21.8
M 454.05 26.95
Q 453.7 27.15 453.15 27.2 452.8 27.3 452.35 27.35 451.95 27.45 451.5 27.45 451 27.55 450.4 27.55 449.75 27.6 449.05 27.6 448.45 27.6 447.9 27.55 447.3 27.55 446.65 27.45 446 27.35 445.4 27.25 444.75 27.15 444.15 26.95 444.1 26.85 444.1 26.8 444.1 26.7 444.1 26.6 444.1 26.5 444.05 26.45 444.05 26.35 444.05 26.25
L 444.05 25.55 454.4 25.55 454.4 26.75 454.3 26.85
Q 454.2 26.9 454.05 26.95
M 411.75 30.85
Q 411.45 30.35 411.05 29.85 410.7 29.4 410.25 29.05 409.8 28.7 409.3 28.45 408.75 28.2 408.15 28.05 407.55 27.95 406.9 27.95 406.3 27.95 405.7 28.05 405.15 28.2 404.6 28.45 404.05 28.7 403.6 29.05 403.15 29.4 402.85 29.8 402 30.7 401.55 31.9 401.35 32.5 401.25 33.15 401.15 33.8 401.15 34.5 401.15 35.2 401.25 35.8 401.35 36.4 401.55 37 401.75 37.6 402.1 38.15 402.4 38.65 402.85 39.05 403.15 39.5 403.6 39.85 404.05 40.2 404.6 40.45 405.15 40.7 405.7 40.8 406.3 40.95 406.9 40.95 407.55 40.95 408.15 40.8 408.75 40.7 409.3 40.45 409.8 40.2 410.25 39.8 410.7 39.45 411.05 39 411.45 38.6 411.75 38.1 412.05 37.55 412.25 37 412.45 36.4 412.55 35.8 412.65 35.2 412.65 34.5 412.65 33.8 412.55 33.15 412.45 32.55 412.25 31.95 412.05 31.4 411.75 30.85
M 409 33.2
Q 409.1 33.5 409.15 33.85 409.2 34.15 409.2 34.5 409.2 34.85 409.15 35.15 409.1 35.45 409 35.7 408.9 36.05 408.75 36.3 408.65 36.55 408.5 36.75 408.35 37 408.2 37.15 408.05 37.35 407.8 37.45 407.35 37.75 406.9 37.75 406.35 37.75 405.95 37.5 405.5 37.25 405.25 36.75 404.9 36.3 404.75 35.75 404.65 35.2 404.65 34.5 404.65 33.8 404.75 33.2 404.9 32.6 405.25 32.1 405.5 31.6 405.95 31.35 406.35 31.15 406.9 31.15 407.35 31.15 407.8 31.4 408.05 31.55 408.2 31.7 408.35 31.9 408.5 32.1 408.65 32.35 408.75 32.65 408.9 32.9 409 33.2
M 415.05 21.25
Q 414.9 21.5 414.9 21.85
L 414.9 46.25
Q 414.9 46.65 415.05 46.9 415.15 47.15 415.4 47.3 415.65 47.4 416 47.5 416.3 47.55 416.7 47.55 417 47.55 417.25 47.5 417.5 47.4 417.75 47.3 418 47.15 418.1 46.9 418.25 46.65 418.25 46.25
L 418.25 33.45 420.85 33.45 420.85 47.1
Q 420.85 47.45 420.95 47.7 421.1 48 421.35 48.1 421.55 48.25 421.85 48.3 422.15 48.35 422.45 48.35 422.8 48.35 423.15 48.3 423.45 48.25 423.7 48.1 423.95 48 424.05 47.7 424.2 47.45 424.2 47.1
L 424.2 21.3
Q 424.2 20.95 424.05 20.7 423.95 20.45 423.7 20.3 423.45 20.2 423.15 20.15 422.8 20.1 422.45 20.1 422.15 20.1 421.85 20.15 421.55 20.2 421.35 20.3 421.1 20.45 420.95 20.7 420.85 20.95 420.85 21.3
L 420.85 30.3 418.25 30.3 418.25 21.85
Q 418.25 21.5 418.1 21.25 418 20.95 417.75 20.85 417.5 20.75 417.25 20.7 417 20.65 416.7 20.65 416.3 20.65 416 20.7 415.65 20.75 415.4 20.85 415.15 20.95 415.05 21.25
M 408.6 20.8
Q 408.6 20.35 408.45 20.1 408.35 19.8 408.1 19.65 407.85 19.6 407.6 19.5 407.3 19.45 407 19.45 406.6 19.45 406.35 19.5 406.05 19.6 405.85 19.65 405.6 19.8 405.5 20.1 405.35 20.35 405.35 20.8
L 405.35 23.35
Q 404.9 23.35 404.4 23.35 403.9 23.35 403.4 23.3 402.4 23.3 401.5 23.3 400.75 23.3 400.55 23.75 400.4 23.95 400.35 24.25 400.3 24.55 400.3 24.9 400.3 25.2 400.35 25.45 400.4 25.7 400.55 25.95 400.65 26.2 400.9 26.3 401.15 26.4 401.5 26.4 404.15 26.4 406.8 26.4 408.15 26.45 409.45 26.45 410.75 26.45 412.05 26.45
L 412.2 26.45
Q 412.65 26.45 412.9 26.35 413.15 26.2 413.35 25.95 413.45 25.7 413.55 25.45 413.6 25.2 413.6 24.9 413.6 24.55 413.5 24.3 413.45 24 413.3 23.8 413 23.35 412.2 23.35
L 408.6 23.35 408.6 20.8
M 388.65 34.9
Q 389.05 34.9 389.3 34.8 389.55 34.7 389.7 34.45 389.8 34.25 389.9 33.95 389.95 33.7 389.95 33.4 389.95 33.05 389.9 32.8 389.8 32.55 389.7 32.35 389.55 32.15 389.3 32.05 389.05 31.95 388.65 31.95
L 364.5 31.95
Q 363.8 31.95 363.5 32.35 363.35 32.55 363.3 32.8 363.25 33.05 363.25 33.4 363.25 34 363.5 34.45 363.8 34.9 364.5 34.9
L 388.65 34.9
M 383.3 36.75
Q 382.8 36.65 382.25 36.65
L 369.6 36.65
Q 368.85 36.65 368.45 37 368.1 37.35 368.1 38 368.1 38.35 368.2 38.55 368.3 38.8 368.55 38.95 368.9 39.2 369.6 39.2
L 381.4 39.2
Q 381.45 39.4 381.5 39.55 381.5 39.65 381.5 39.75 381.55 39.85 381.55 39.95
L 381.55 40.2
Q 381.55 40.35 381.5 40.4 381.5 40.5 381.5 40.6 381.45 40.85 381.4 40.95
L 370.75 40.95
Q 370.2 40.95 369.75 41.05 369.25 41.15 368.9 41.3 368.55 41.5 368.35 41.85 368.15 42.25 368.15 42.8
L 368.15 44.85 368.2 44.85
Q 368.2 45.4 368.4 45.85 368.6 46.25 369 46.6 369.45 46.95 369.95 47.2 370.45 47.45 371.05 47.65 371.65 47.8 372.3 47.95 372.95 48.05 373.7 48.15 374.35 48.2 375 48.25 375.6 48.3 376.15 48.3 377 48.3 377.75 48.25 378.55 48.2 379.25 48.1 380 48 380.65 47.9 381.3 47.8 381.9 47.7 383 47.45 383.7 47.35 384 47.25 384.2 47.2
L 384.35 47.15
Q 384.6 47.1 384.8 47 385 46.85 385.15 46.7 385.3 46.45 385.4 46.25 385.45 46.05 385.45 45.85 385.45 45.3 385.1 44.95 384.95 44.75 384.7 44.65 384.45 44.55 384.2 44.55 384 44.55 383.8 44.6 383.55 44.65 383.35 44.7
L 383.2 44.7
Q 383.05 44.75 382.8 44.85 382.5 44.9 382.15 44.95 381.8 45.05 381.35 45.15 380.85 45.25 380.3 45.3 379.75 45.4 379.15 45.5 378.5 45.55 377.85 45.6 377.2 45.6 376.5 45.6 375.95 45.6 375.35 45.6 374.8 45.55 374.2 45.5 373.6 45.45 373 45.3 372.45 45.15 371.9 44.95 371.9 44.85 371.9 44.8 371.9 44.7 371.9 44.65 371.85 44.5 371.8 44.4 371.8 44.3 371.8 44.2
L 371.8 44.05
Q 371.8 43.85 371.8 43.7 371.85 43.55 371.9 43.4
L 382.25 43.4
Q 382.8 43.4 383.3 43.3 383.8 43.15 384.2 42.95 384.6 42.7 384.85 42.25 385.05 41.85 385.05 41.15
L 385.05 39
Q 385.05 38.35 384.85 37.9 384.6 37.45 384.2 37.15 383.75 36.9 383.3 36.75
M 385.3 24
Q 385.15 23.45 384.85 23.05 384.55 22.6 384.1 22.2 383.65 21.8 383.1 21.5 382.5 21.2 381.8 21 381.1 20.75 380.25 20.55 379.45 20.4 378.55 20.35 377.65 20.25 376.65 20.25 375.6 20.25 374.7 20.35 373.8 20.4 373 20.55 372.2 20.75 371.5 21 370.85 21.2 370.25 21.5 369.65 21.8 369.25 22.2 368.8 22.6 368.5 23.05 367.85 23.95 367.85 25.1 367.85 25.7 368 26.2 368.15 26.7 368.5 27.15 368.8 27.6 369.25 27.95 369.7 28.35 370.3 28.65 370.85 28.95 371.55 29.2 372.3 29.4 373.1 29.55 373.9 29.75 374.8 29.85 375.75 29.95 376.75 30 378.75 29.9 380.4 29.55 381.15 29.4 381.85 29.15 382.5 28.9 383.15 28.6 383.65 28.3 384.1 27.95 384.55 27.6 384.85 27.15 385.15 26.7 385.3 26.2 385.45 25.7 385.45 25.1 385.45 24.5 385.3 24
M 371.8 24.4
Q 372.15 24.05 372.9 23.85 373.55 23.65 374.5 23.55 375.45 23.4 376.65 23.4 377.85 23.4 378.8 23.55 379.8 23.65 380.5 23.85 381.15 24.05 381.5 24.4 381.85 24.7 381.85 25.1 381.85 25.5 381.5 25.8 381.15 26.1 380.5 26.3 379.8 26.5 378.8 26.6 377.85 26.75 376.65 26.75 375.45 26.75 374.5 26.6 373.55 26.5 372.9 26.3 372.15 26.1 371.8 25.8 371.45 25.5 371.45 25.1 371.45 24.7 371.8 24.4
M 343.9 37.6
Q 343.75 38.05 343.75 38.6
L 343.75 44.1
Q 343.75 44.7 343.9 45.15 344.05 45.65 344.45 45.95 344.75 46.25 345.25 46.5 345.7 46.75 346.35 46.9 346.55 46.95 347.05 47.1 347.35 47.15 347.7 47.2 348.05 47.25 348.5 47.3 348.9 47.35 349.35 47.4 349.8 47.45 350.35 47.5 350.85 47.55 351.4 47.6 351.95 47.6 352.55 47.6 353.6 47.6 355.05 47.5 355.7 47.45 356.4 47.35 357.05 47.2 357.7 47.05 358.3 46.85 358.85 46.6 359.35 46.3 359.8 45.95 360.25 45.6 360.45 45.15 360.7 44.7 360.7 44.1
L 360.7 38.6
Q 360.7 38.05 360.5 37.6 360.35 37.2 360 36.9 359.65 36.6 359.2 36.5 358.7 36.35 358.15 36.35
L 346.25 36.35
Q 345.05 36.35 344.45 36.9 344.05 37.2 343.9 37.6
M 347.35 43.15
L 347.35 40.3
Q 347.35 40.1 347.4 39.95 347.45 39.8 347.6 39.7 347.7 39.65 347.85 39.6 348 39.55 348.25 39.55
L 356.15 39.55
Q 356.35 39.55 356.5 39.6 356.7 39.65 356.8 39.7 356.95 39.8 357 39.95 357.1 40.1 357.1 40.3
L 357.1 43.15
Q 357.1 43.3 357 43.45 356.9 43.6 356.75 43.75 356.55 43.85 356.4 43.95 356.2 44.05 356.15 44.1 355.85 44.15 355.55 44.2 355.25 44.3 354.9 44.35 354.65 44.4 354.3 44.4 353.95 44.45 353.6 44.5 353.15 44.55 352.8 44.55 352.4 44.55 352 44.55 351.7 44.55 351.35 44.55 351 44.55 350.65 44.55 350.25 44.5 349.9 44.45 349.5 44.4 349.1 44.35 348.75 44.25 348.45 44.15 348.15 44.05 347.9 43.9 347.65 43.75 347.5 43.55 347.35 43.4 347.35 43.15
M 357.8 20.75
Q 357.7 21 357.7 21.4
L 357.7 33.3
Q 357.7 34 358.15 34.3 358.35 34.4 358.65 34.5 358.95 34.55 359.3 34.55 359.6 34.55 359.85 34.5 360.15 34.4 360.4 34.3 360.85 34 360.85 33.3
L 360.85 21.4
Q 360.85 21 360.75 20.75 360.6 20.45 360.4 20.35 360.15 20.25 359.85 20.2 359.6 20.2 359.3 20.2 358.95 20.2 358.65 20.2 358.35 20.25 358.15 20.35 357.9 20.45 357.8 20.75
M 352.6 21.35
Q 352.5 21.65 352.5 22.15
L 352.5 25.45 349.85 25.45
Q 349.05 25.45 348.85 25.8 348.7 25.95 348.65 26.25 348.6 26.5 348.6 26.85 348.6 27.15 348.65 27.4 348.7 27.65 348.85 27.85 349.05 28.3 349.85 28.3
L 352.5 28.3 352.5 33
Q 352.5 33.4 352.6 33.65 352.75 33.9 353 34 353.25 34.15 353.55 34.2 353.85 34.25 354.15 34.25 354.5 34.25 354.8 34.2 355.05 34.15 355.25 34 355.4 33.9 355.5 33.65 355.6 33.4 355.6 33
L 355.6 22.15
Q 355.6 21.15 355.25 20.95 354.85 20.8 354.15 20.8 353.85 20.8 353.55 20.8 353.25 20.85 353 20.95 352.75 21.05 352.6 21.35
M 345.35 24.65
Q 345.3 24.2 345.3 23.8 345.25 23.45 345.25 23.15 345.25 22.85 345.25 22.6 345.2 22.1 345.05 21.7 344.9 21.3 344.6 21.15 344.45 21.05 344.2 21 344 20.95 343.7 20.95 343.4 20.95 343.15 21.05 342.85 21.15 342.6 21.25 342.35 21.45 342.2 21.7 342.05 21.95 342.05 22.3
L 342.05 23.65
Q 342.05 24.1 342 24.55 341.9 25.05 341.75 25.55 341.55 26 341.35 26.5 341.1 27 340.85 27.5 340.55 28 340.15 28.5 339.8 29 339.4 29.45 338.55 30.45 337.4 31.15 337.2 31.35 337.05 31.6 336.95 31.8 337 32.05 337 32.2 337.05 32.4 337.1 32.55 337.2 32.75 337.3 32.95 337.4 33.1 337.5 33.25 337.6 33.4 337.75 33.55 337.9 33.65 338.05 33.75 338.2 33.85 338.35 33.9 338.45 33.95 338.55 34 338.65 34 338.95 34 339.3 33.85 339.7 33.7 340.1 33.4 340.8 32.85 341.55 32.05 341.9 31.65 342.25 31.25 342.6 30.8 342.9 30.35 343.2 30 343.4 29.6 343.6 29.2 343.75 28.9 344.3 29.95 345.35 31.15 346.35 32.35 347.9 33.3 348.25 33.4 348.45 33.45 348.5 33.5 348.6 33.55 348.7 33.6 348.8 33.6 348.95 33.6 349.15 33.55 349.3 33.5 349.5 33.45 349.7 33.4 349.8 33.25 349.95 33.15 350.05 33 350.15 32.9 350.25 32.8 350.35 32.65 350.45 32.5 350.55 32.4 350.6 32.25 350.65 32.15 350.65 32.05 350.65 31.8 350.6 31.65 350.5 31.5 350.35 31.35 350.2 31.25 350.05 31.1 349.9 30.95 349.7 30.7 349.2 30.4 348.8 30 348.35 29.65 347.95 29.2 347.55 28.8 347.2 28.35 346.85 27.9 346.55 27.4 346 26.5 345.65 25.55 345.45 25.05 345.35 24.65
M 313.2 20.9
Q 313 20.85 312.7 20.85 312.35 20.85 312.1 20.9 311.85 20.95 311.7 21.1 311.5 21.2 311.45 21.45 311.35 21.7 311.4 22.05
L 311.4 30.35
Q 311.35 31.25 311.55 31.8 311.75 32.4 312.1 32.7 312.5 33.05 313.1 33.2 313.75 33.4 314.6 33.4 315.4 33.4 315.95 33.2 316.5 33.05 316.85 32.7 317.15 32.4 317.3 31.8 317.5 31.2 317.5 30.4
L 317.5 22.25
Q 317.5 21.8 317.4 21.55 317.3 21.25 317.15 21.1 317 20.95 316.75 20.9 316.55 20.85 316.3 20.85 315.5 20.85 315.3 21.1 315.15 21.25 315.1 21.55 315.05 21.8 315.05 22.2
L 315.05 24.3 313.9 24.3 313.9 22.2
Q 313.9 21.8 313.8 21.55 313.7 21.25 313.6 21.1 313.4 20.95 313.2 20.9
M 313.9 27.45
L 315.05 27.45 315.05 29
Q 315.05 29.25 315.05 29.4 315.05 29.6 315.05 29.8 315.05 29.95 315 30.15 315 30.3 314.95 30.5 314.9 30.5 314.9 30.55 314.85 30.55 314.8 30.55 314.7 30.6 314.6 30.6 314.5 30.6 314.4 30.6 314.3 30.6 314.2 30.6 314.15 30.55 314.1 30.5 314.05 30.45 314 30.35 313.95 30.3 313.95 30.15 313.9 30.1 313.9 30 313.9 29.9 313.9 29.75 313.9 29.65 313.9 29.5 313.9 29.4 313.9 29.25
L 313.9 27.45
M 333.35 36.25
Q 333.2 35.95 332.95 35.7 332.75 35.45 332.45 35.25 332.15 35.05 331.7 34.95 331.25 34.9 330.7 34.9
L 318 34.9
Q 317.3 34.9 316.9 35.3 316.7 35.55 316.6 35.8 316.5 36.1 316.5 36.4 316.5 36.75 316.6 37 316.7 37.3 316.9 37.5 317.1 37.7 317.35 37.8 317.65 37.9 318 37.9
L 330 37.9
Q 330.05 38.1 330.1 38.25 330.15 38.45 330.15 38.6
L 330.15 38.85
Q 330.15 39.05 330.1 39.25 330.05 39.4 330 39.55
L 319.55 39.55
Q 318.3 39.55 317.45 40 317.05 40.25 316.85 40.65 316.6 41.1 316.6 41.75 316.6 42.1 316.6 42.45 316.65 42.8 316.65 43.1 316.65 43.8 316.65 44.55 316.65 45 316.75 45.45 316.75 45.6 316.85 45.8 316.9 45.95 317.05 46.15 317.2 46.3 317.35 46.45 317.55 46.65 317.75 46.8 317.9 46.95 318.15 47.05 318.45 47.15 318.8 47.3 319.15 47.4 319.55 47.55 319.95 47.65 320.45 47.7 320.9 47.8 321.4 47.85 321.85 47.9 322.3 48 322.75 48.05 323.15 48.05 323.6 48.1 324.1 48.15 324.55 48.15 324.95 48.15 325.3 48.15 325.65 48.15 326.4 48.15 327.15 48.1 327.9 48.05 328.6 48 329.25 47.9 329.85 47.8 330.4 47.7 330.85 47.65 331.45 47.5 331.95 47.4 332.45 47.25 332.95 47.1 333.25 47.05 333.5 46.95 333.75 46.8 333.9 46.55 334 46.35 334.05 46.1 334.15 45.85 334.15 45.65 334.15 45.2 334.05 44.9 333.9 44.6 333.7 44.4 333.5 44.25 333.3 44.15 333.05 44.05 332.85 44.05 332.75 44.05 332.65 44.05 332.55 44.1 332.45 44.1 332.3 44.1 332.2 44.15 332.05 44.15 331.95 44.2 331.9 44.2 331.75 44.2 331.6 44.25 331.4 44.35 331.1 44.4 330.75 44.5 330.45 44.55 330 44.6 329.6 44.65 329.05 44.7 328.5 44.75 327.9 44.85 327.25 44.9 326.6 44.9 325.95 44.95 325.3 44.95 324.95 44.95 324.6 44.95 324.3 44.95 323.95 44.95 323.65 44.9 323.3 44.85 323 44.85 322.7 44.8 322.35 44.75 322 44.7 321.7 44.65 321.4 44.6 321.05 44.55 320.8 44.45 320.55 44.4 320.35 44.25 320.3 44.15 320.25 43.95 320.2 43.75 320.2 43.5
L 320.2 43.15
Q 320.2 42.95 320.2 42.8 320.25 42.65 320.3 42.45
L 330.7 42.45
Q 331.25 42.45 331.8 42.3 332.3 42.15 332.8 41.85 333.25 41.5 333.5 41 333.7 40.5 333.7 39.8
L 333.75 39.8
Q 333.75 39.25 333.75 38.75 333.7 38.25 333.7 37.8 333.65 37.4 333.6 37 333.5 36.6 333.35 36.25
M 324.55 22.25
Q 324.55 21.8 324.45 21.55 324.4 21.25 324.25 21.1 324.15 20.95 323.9 20.9 323.65 20.85 323.3 20.85 322.7 20.85 322.4 21.1 322.25 21.25 322.2 21.55 322.1 21.8 322.1 22.2
L 322.1 24.3 320.95 24.3 320.95 22.2
Q 320.95 21.8 320.85 21.55 320.8 21.25 320.65 21.1 320.55 20.95 320.3 20.9 320.1 20.85 319.85 20.85 319.5 20.85 319.2 20.9 318.95 20.95 318.75 21.1 318.6 21.2 318.5 21.45 318.4 21.7 318.4 22.05
L 318.4 30.35
Q 318.4 32.1 319.2 32.7 319.6 33.05 320.2 33.2 320.85 33.4 321.7 33.4 322.45 33.4 323 33.2 323.55 33.05 323.9 32.7 324.2 32.4 324.35 31.8 324.55 31.25 324.55 30.4
L 324.55 22.25
M 321.2 30.5
Q 321.05 30.45 321.05 30.25 321 30.05 320.95 29.85 320.95 29.65 320.95 29.4
L 320.95 27.45 322.1 27.45 322.1 29.1
Q 322.1 29.3 322.1 29.5 322.1 29.7 322.1 29.85 322.1 30 322.05 30.2 322.05 30.35 322 30.5 321.95 30.5 321.95 30.55 321.9 30.55 321.85 30.55 321.8 30.6 321.7 30.6 321.65 30.6 321.6 30.6 321.35 30.6 321.2 30.5
M 329.05 21.15
Q 328.95 20.9 328.75 20.8 328.35 20.6 327.8 20.6 327.4 20.6 327.1 20.65 326.85 20.7 326.65 20.8 326.45 20.85 326.4 21.15 326.25 21.4 326.25 21.85
L 326.25 32.2
Q 326.25 32.6 326.4 32.85 326.45 33.1 326.65 33.25 326.85 33.35 327.1 33.4 327.4 33.5 327.8 33.45 328.1 33.5 328.3 33.4 328.55 33.35 328.75 33.25 328.95 33.1 329.05 32.85 329.15 32.6 329.15 32.2
L 329.15 28.15 330.85 28.15 330.85 32.55
Q 330.85 32.95 330.95 33.2 331.05 33.45 331.25 33.55 331.45 33.65 331.7 33.7 332 33.75 332.35 33.75 332.7 33.75 332.95 33.7 333.2 33.65 333.4 33.55 333.65 33.45 333.75 33.2 333.85 32.95 333.85 32.55
L 333.85 21.25
Q 333.85 20.8 333.75 20.55 333.65 20.3 333.4 20.2 333.2 20.1 332.9 20.05 332.65 20 332.35 20 332 20 331.7 20.05 331.45 20.1 331.25 20.2 331.05 20.3 330.95 20.55 330.85 20.8 330.85 21.25
L 330.85 25.05 329.15 25.05 329.15 21.85
Q 329.15 21.4 329.05 21.15
M 291.75 38.55
L 291.8 38.6
Q 291.7 37.95 291.25 37.5 291 37.3 290.7 37.25 290.4 37.2 290.1 37.25 289.25 37.35 288.5 37.45 287.7 37.55 286.95 37.6 286.2 37.7 285.45 37.75 284.7 37.85 284 37.85 283.25 37.95 282.55 38 281.8 38.05 281 38.05 280.25 38.1 279.4 38.1 278.6 38.1 277.8 38.1
L 275 38.1
Q 274.6 38.15 274.35 38.3 274.1 38.45 273.95 38.65 273.8 38.85 273.75 39.1 273.65 39.35 273.65 39.65 273.65 40 273.75 40.25 273.8 40.5 273.95 40.75 274.1 41 274.35 41.1 274.6 41.25 275 41.25
L 277.8 41.25
Q 278.7 41.25 279.55 41.25 280.4 41.25 281.2 41.2 282 41.2 282.8 41.15 283.6 41.1 284.4 41.05 285.15 41 285.95 40.95 286.75 40.9 287.5 40.8 288.25 40.75 289 40.65 289.8 40.55 290.55 40.4 291.35 40.25 291.65 39.65 291.75 39.4 291.8 39.15 291.8 38.85 291.75 38.55
M 287.3 33.3
Q 289.1 31.55 289.1 28.6 289.1 25.55 287.3 23.85 285.5 22.15 282.45 22.15 280.85 22.15 279.65 22.55 278.4 23 277.45 23.85 275.7 25.55 275.7 28.6 275.7 31.55 277.45 33.3 278.4 34.15 279.65 34.6 280.85 35 282.45 35 285.5 35 287.3 33.3
M 285.8 28.6
Q 285.8 29.4 285.55 30 285.35 30.65 284.9 31.1 284.45 31.6 283.85 31.8 283.25 32.05 282.5 32.05 281.65 32.05 281 31.8 280.4 31.6 279.95 31.1 279.05 30.2 279.05 28.6 279.05 26.9 279.95 25.95 280.4 25.55 281 25.3 281.65 25.05 282.5 25.05 284 25.05 284.9 25.95 285.35 26.45 285.55 27.1 285.8 27.75 285.8 28.6
M 293.4 20.6
Q 293.3 20.85 293.3 21.25
L 293.3 46.75
Q 293.3 47.15 293.4 47.45 293.5 47.75 293.7 47.95 294.1 48.3 294.9 48.3 295.15 48.3 295.5 48.2 295.75 48.1 296.1 47.95 296.35 47.75 296.5 47.45 296.65 47.15 296.65 46.75
L 296.65 21.25
Q 296.65 21.05 296.6 20.9 296.55 20.75 296.5 20.6 296.4 20.5 296.3 20.4 296.2 20.3 296.1 20.2 295.9 20.15 295.75 20.1 295.6 20.1 295.45 20.05 295.3 20.05 295.15 20.05 295 20.05 294.8 20.05 294.45 20.05 294.15 20.1 293.85 20.1 293.65 20.2 293.5 20.35 293.4 20.6
M 247.15 35.55
Q 246.8 35.55 246.6 35.7 246.35 35.8 246.2 36.05 246.05 36.3 246 36.55 245.9 36.85 245.9 37.15 245.9 37.45 246 37.75 246.05 38 246.2 38.25 246.35 38.45 246.6 38.6 246.8 38.7 247.15 38.7
L 257.3 38.7 257.3 47.45
Q 257.3 47.85 257.45 48.15 257.6 48.4 257.9 48.55 258.2 48.6 258.55 48.7 258.85 48.75 259.25 48.75 259.55 48.75 259.8 48.7 260.1 48.6 260.4 48.55 260.7 48.4 260.85 48.15 261 47.85 261 47.45
L 261 38.7 271.35 38.7
Q 271.75 38.7 272 38.6 272.25 38.45 272.35 38.25 272.45 38 272.5 37.75 272.55 37.45 272.55 37.15 272.55 36.85 272.5 36.55 272.45 36.3 272.35 36.05 272.25 35.8 272 35.7 271.75 35.55 271.35 35.55
L 247.15 35.55
M 258.1 20.3
Q 257.95 20.4 257.8 20.5 257.7 20.55 257.6 20.7 257.45 20.8 257.4 20.95 257.35 21.1 257.35 21.25
L 257.35 22.5
Q 257.25 23.15 257 23.75 256.8 24.35 256.5 24.85 256.15 25.3 255.7 25.75 255.3 26.15 254.8 26.5 254.3 26.85 253.75 27.2 253.2 27.5 252.6 27.75 251.95 28.05 251.3 28.35 250.65 28.6 250 28.85 249.7 29.05 249.55 29.3 249.4 29.55 249.4 29.95 249.4 30.35 249.5 30.65 249.65 31 249.9 31.25 250.35 31.8 250.95 31.8 251.1 31.8 251.3 31.75 251.45 31.75 251.6 31.7 252.8 31.25 253.9 30.75 255.05 30.2 256.05 29.55 257.1 28.95 257.9 28.25 258.7 27.55 259.3 26.75 259.85 27.6 260.6 28.3 261.4 29 262.3 29.6 263.3 30.25 264.35 30.75 265.5 31.25 266.8 31.7
L 266.8 31.6
Q 266.85 31.7 266.95 31.7 267.1 31.75 267.2 31.75 267.6 31.75 267.85 31.6 268.15 31.45 268.35 31.2 268.55 30.9 268.65 30.6 268.75 30.3 268.75 29.9 268.75 29.75 268.7 29.6 268.7 29.4 268.65 29.3 268.45 29 268.2 28.8 267.5 28.55 266.9 28.3 266.25 28 265.65 27.7 265.05 27.45 264.5 27.1 263.95 26.8 263.45 26.45 263 26.15 262.6 25.75 262.2 25.3 261.9 24.85 261.3 23.9 261.1 22.5
L 261.1 21.25
Q 261.1 21.1 261.05 20.95 261 20.8 260.95 20.7 260.85 20.55 260.75 20.5 260.65 20.4 260.55 20.3 260.4 20.25 260.2 20.15 260.05 20.1 259.9 20.05 259.7 20.05 259.55 20 259.4 20 259.3 20 259.15 20 259 20 258.85 20.05 258.7 20.05 258.5 20.1 258.35 20.15 258.2 20.25 258.1 20.3
M 223.75 24.3
Q 223.55 23.6 223.15 23.25 222.75 22.85 222.1 22.7 221.45 22.5 220.5 22.5
L 213.3 22.5
Q 212.9 22.5 212.55 22.55 212.3 22.65 212.1 22.8 211.75 23.1 211.75 24.05 211.75 24.5 211.85 24.8 211.95 25.15 212.1 25.3 212.3 25.45 212.55 25.55 212.9 25.6 213.3 25.6
L 220.15 25.6
Q 220.3 25.6 220.35 25.7 220.45 25.75 220.45 25.9
L 220.45 28.65
Q 220.45 28.8 220.4 29 220.4 29.15 220.35 29.35 220.3 29.5 220.3 29.65 220.25 29.8 220.2 29.9
L 215.2 29.9
Q 214.35 29.9 213.7 30.05 213.05 30.2 212.65 30.5 212.25 30.75 212.05 31.3 211.8 31.8 211.8 32.55
L 211.8 36.9
Q 211.8 37.6 211.9 38.15 212 38.7 212.25 39.1 212.4 39.5 212.8 39.8 213.15 40.1 213.6 40.3 214.25 40.6 214.85 40.75 215.5 40.9 216.15 40.95 216.75 41.05 217.4 41.1 218.05 41.15 218.7 41.15 220.15 41.15 221.3 40.95 221.85 40.9 222.4 40.8 222.9 40.7 223.4 40.6 223.9 40.45 224.3 40.35 224.7 40.2 225.05 40.05 225.35 39.95 225.6 39.8 225.8 39.7 225.9 39.6 226.2 39.35 226.4 39.05 226.55 38.8 226.55 38.4 226.55 38.35 226.55 38.3 226.5 38.2 226.5 38.1 226.5 38.05 226.45 37.95 226.45 37.9 226.45 37.8 226.35 37.5 226.2 37.35 226.1 37.15 225.95 37 225.8 36.9 225.6 36.85 225.45 36.8 225.25 36.8 225.05 36.8 224.9 36.8 224.75 36.85 224.6 36.9 224.45 36.95 224.3 37 224.15 37 224 37.05 223.45 37.25 222.9 37.45 222.35 37.6 221.75 37.75 221.15 37.9 220.5 38 219.85 38.05 219.15 38.05 218.65 38.05 218.2 38.05 217.75 38 217.35 37.9 216.9 37.85 216.4 37.75 215.95 37.6 215.5 37.45 215.3 37.15 215.3 36.8 215.3 36.65 215.3 36.45 215.25 36.3 215.25 36.05
L 215.25 34.3
Q 215.25 34.15 215.3 34 215.3 33.85 215.3 33.7 215.3 33.55 215.3 33.4 215.3 33.25 215.3 33.1 215.6 33.05 215.95 33.05 216.25 33 216.65 33
L 220.7 33
Q 221.4 33 222 32.8 222.55 32.6 223 32.2 223.45 31.8 223.65 31.25 223.9 30.7 223.95 29.95
L 223.95 25.9
Q 223.95 24.95 223.75 24.3
M 233 21.3
Q 233 20.95 232.85 20.7 232.7 20.4 232.45 20.25 231.9 20 231.2 20 230.55 20 230.05 20.25 229.75 20.4 229.6 20.7 229.45 20.95 229.45 21.3
L 229.45 47.05
Q 229.45 47.4 229.6 47.65 229.75 47.9 230.05 48 230.55 48.3 231.2 48.3 231.9 48.3 232.45 48 232.7 47.9 232.85 47.65 233 47.4 233 47.05
L 233 21.3
M 184.2 23.65
Q 184.1 23.95 184.1 24.25 184.1 24.6 184.2 24.85 184.25 25.15 184.45 25.35 184.55 25.6 184.8 25.75 185.05 25.85 185.4 25.85
L 189.2 25.85 189.2 27.75
Q 189.2 30.65 187.95 32.9 187.3 34.05 186.45 35.05 185.55 36.05 184.5 36.9
L 184.45 36.9
Q 184.2 37.1 184.05 37.2 183.85 37.35 183.75 37.45 183.65 37.6 183.6 37.75 183.55 37.9 183.55 38.05 183.55 38.2 183.6 38.35 183.6 38.5 183.7 38.65 183.7 38.85 183.85 39 183.95 39.15 184.1 39.3 184.2 39.45 184.4 39.55 184.55 39.65 184.75 39.8 184.85 39.9 185.05 39.95 185.2 40 185.4 40 185.65 40 185.8 39.9 185.9658203125 39.9 186.1 39.8
L 186.15 39.8 186.15 39.75
Q 186.970703125 39.129296875 187.65 38.45 188.4 37.75 189.05 37 189.6 36.25 190.15 35.45 190.7 34.65 191.15 33.7 191.6 34.55 192.1 35.35 192.65 36.2 193.3 36.95 193.9 37.75 194.6 38.4 195.35 39.05 196.2 39.55
L 196.2 39.6
Q 196.4 39.7 196.6 39.8 196.8 39.85 197.05 39.85 197.2 39.85 197.35 39.8 197.5 39.8 197.65 39.65 197.75 39.6 197.9 39.5 198.05 39.4 198.2 39.2 198.3 39.05 198.4 38.95 198.5 38.8 198.6 38.6 198.65 38.45 198.65 38.3 198.7 38.1 198.7 37.9 198.7 37.7 198.6 37.45 198.5 37.25 198.25 37.05 197 36.15 196 35.1 195.05 34.05 194.35 32.85 193.65 31.7 193.3 30.45 192.95 29.2 192.95 27.8
L 192.95 25.85 196.65 25.85
Q 197.05 25.85 197.25 25.75 197.5 25.6 197.65 25.35 197.75 25.1 197.85 24.85 197.9 24.55 197.9 24.25 197.9 23.95 197.85 23.65 197.8 23.4 197.7 23.15 197.55 22.95 197.3 22.8 197.05 22.7 196.65 22.7
L 185.4 22.7
Q 185.05 22.7 184.8 22.8 184.55 22.95 184.45 23.15 184.25 23.4 184.2 23.65
M 203.65 20.15
Q 203.35 20.05 203 20.05 202.7 20.05 202.4 20.15 202.1 20.25 201.85 20.45 201.55 20.6 201.4 20.9 201.25 21.2 201.25 21.55
L 201.25 46.75
Q 201.25 47.1 201.4 47.4 201.55 47.7 201.85 47.9 202.1 48.1 202.4 48.2 202.7 48.3 203 48.3 203.35 48.3 203.65 48.2 204 48.1 204.3 47.9 204.6 47.7 204.75 47.4 204.9 47.1 204.9 46.75
L 204.9 33.45 207.85 33.45
Q 208.25 33.45 208.55 33.35 208.85 33.25 209.05 33 209.2 32.75 209.25 32.5 209.35 32.2 209.35 31.9 209.35 31.55 209.25 31.3 209.2 31 209.05 30.75 208.85 30.55 208.55 30.45 208.25 30.3 207.85 30.3
L 204.9 30.3 204.9 21.55
Q 204.9 21.2 204.75 20.9 204.6 20.6 204.3 20.45 204 20.25 203.65 20.15
M 158.7 26.95
Q 158.15 26.7 157.6 26.5 156.3 26.15 154.9 26.15 154.2 26.15 153.55 26.2 152.95 26.3 152.35 26.5 151.1 26.85 150.2 27.45 149.75 27.8 149.4 28.15 149.05 28.55 148.8 28.95 148.55 29.4 148.45 29.9 148.3 30.35 148.35 30.85 148.3 31.4 148.45 31.9 148.55 32.35 148.8 32.8 149.3 33.7 150.2 34.3 150.65 34.6 151.15 34.85 151.7 35.1 152.35 35.25 152.95 35.45 153.6 35.55 154.2 35.65 154.9 35.65 155.6 35.65 156.25 35.55 156.95 35.45 157.55 35.25 158.15 35.05 158.7 34.8 159.25 34.55 159.75 34.25 160.2 33.9 160.5 33.55 160.85 33.15 161.1 32.7 161.3 32.3 161.45 31.8 161.55 31.35 161.55 30.85 161.55 30.4 161.45 29.95 161.3 29.5 161.1 29.05 160.6 28.2 159.75 27.5 159.25 27.2 158.7 26.95
M 157.8 30.15
Q 158 30.5 158 30.85 158 31.25 157.8 31.6 157.55 31.9 157.1 32.15 156.65 32.4 156.1 32.55 155.55 32.7 154.9 32.7 154.25 32.7 153.7 32.55 153.15 32.45 152.75 32.2 152.35 31.95 152.1 31.6 151.9 31.25 151.9 30.85 151.9 30.5 152.1 30.15 152.35 29.85 152.75 29.55 153.15 29.3 153.7 29.2 154.25 29.05 154.9 29.05 155.5 29.05 156.1 29.2 156.65 29.3 157.1 29.55 157.55 29.85 157.8 30.15
M 166.6 43.8
Q 166.3 43.9 165.95 44 165.55 44.1 165.05 44.2 164.6 44.3 164.05 44.4 163.5 44.5 162.9 44.55 162.25 44.65 161.6 44.7 160.9 44.7 160.25 44.7 159.75 44.7 159.2 44.7 158.65 44.65 158.15 44.65 157.55 44.6 157.05 44.45 156.55 44.35 156.05 44.1 155.9 44.05 155.8 43.8 155.7 43.55 155.65 43.2 155.6 42.8 155.6 42.45 155.6 42.1 155.6 41.75 155.6 41.25 155.6 40.9 155.6 40.5 155.65 40.25 155.65 40 155.65 39.8 155.65 39.65 155.65 39.6 155.65 39.1 155.55 38.75 155.4 38.4 155.1 38.25 154.85 38.1 154.55 38 154.25 37.9 153.9 37.9 153.55 37.9 153.3 38 153 38.1 152.9 38.25 152.7 38.4 152.55 38.7 152.35 38.95 152.2 39.4 152.2 39.45 152.2 39.6 152.15 39.75 152.15 39.9 152.15 40.05 152.15 40.2 152.15 40.35 152.15 40.55 152.15 40.75 152.15 41 152.15 41.25 152.15 41.5 152.15 41.8 152.15 42.15 152.15 42.55 152.2 42.95 152.2 43.4 152.25 43.8 152.3 44.25 152.4 44.65 152.5 45.05 152.7 45.45 152.9 45.85 153.2 46.2 153.4 46.55 153.8 46.8 154.2 47.1 154.75 47.3 155.4 47.5 156.2 47.65 156.95 47.8 157.75 47.9 159.35 48.1 160.7 48.1 162.35 48.1 163.6 47.9 164.2 47.8 164.8 47.7 165.35 47.6 165.85 47.5 166.35 47.35 166.85 47.2 167.3 47.05 167.7 46.85 168.05 46.7 168.25 46.45 168.5 46.25 168.65 46.05 168.75 45.8 168.8 45.55 168.85 45.3 168.85 45.05 168.85 44.3 168.55 43.9 168.25 43.55 167.6 43.55 167.55 43.55 167.5 43.55 167.45 43.55 167.4 43.55 167.35 43.55 167.25 43.6 167.2 43.6 167.15 43.6
L 166.6 43.8
M 162.75 22.8
Q 162.6 22.65 162.35 22.6 162.15 22.5 161.75 22.5
L 156.65 22.5 156.65 20.95
Q 156.65 20.6 156.5 20.35 156.4 20.1 156.2 19.95 155.7 19.65 155 19.65 154.7 19.65 154.4 19.75 154.15 19.8 153.9 19.9 153.65 20.05 153.55 20.3 153.4 20.55 153.4 20.95
L 153.4 22.5
Q 152.8 22.5 152.15 22.5 151.55 22.5 150.95 22.45 150.35 22.45 149.7 22.45 149.1 22.45 148.45 22.45 147.65 22.45 147.4 22.75 147.25 22.9 147.15 23.15 147.1 23.45 147.1 23.8 147.1 24.1 147.15 24.35 147.2 24.6 147.35 24.75 147.5 25.1 148.35 25.1 149.95 25.1 151.6 25.1 153.3 25.1 154.95 25.1 156.6 25.15 158.25 25.15 159.9 25.15 161.55 25.15
L 161.75 25.15
Q 162.15 25.15 162.35 25.05 162.6 25 162.75 24.8 162.9 24.65 162.95 24.4 163 24.15 163 23.85 163 23.5 162.95 23.25 162.9 23 162.75 22.8
M 167.05 20.2
Q 166.65 20.2 166.35 20.25 166 20.35 165.75 20.5 165.2 20.8 165.2 21.45
L 165.2 37.55
Q 165.2 38.35 165.75 38.65 166 38.8 166.35 38.85 166.65 38.95 167.05 38.95 167.35 38.95 167.65 38.85 167.95 38.8 168.25 38.65 168.8 38.35 168.8 37.55
L 168.8 30.55 171.65 30.55
Q 172.05 30.55 172.3 30.4 172.6 30.3 172.75 30.05 172.9 29.85 173 29.55 173.1 29.3 173.1 28.95 173.1 28.65 173 28.35 172.9 28.05 172.75 27.8 172.6 27.6 172.3 27.45 172.05 27.35 171.65 27.35
L 168.8 27.35 168.8 21.45
Q 168.8 20.8 168.25 20.5 167.95 20.35 167.65 20.25 167.35 20.2 167.05 20.2
M 135.95 35.7
Q 135.7 35.55 135.3 35.55
L 111.1 35.55
Q 110.75 35.55 110.55 35.7 110.3 35.8 110.15 36.05 110 36.3 109.95 36.55 109.85 36.85 109.85 37.15 109.85 37.45 109.95 37.75 110 38 110.15 38.25 110.3 38.45 110.55 38.6 110.75 38.7 111.1 38.7
L 121.25 38.7 121.25 47.45
Q 121.25 47.85 121.4 48.15 121.55 48.4 121.85 48.55 122.15 48.6 122.5 48.7 122.8 48.75 123.2 48.75 123.5 48.75 123.75 48.7 124.05 48.6 124.35 48.55 124.65 48.4 124.8 48.15 124.95 47.85 124.95 47.45
L 124.95 38.7 135.3 38.7
Q 135.7 38.7 135.95 38.6 136.2 38.45 136.3 38.25 136.4 38 136.45 37.75 136.5 37.45 136.5 37.15 136.5 36.85 136.45 36.55 136.4 36.3 136.3 36.05 136.2 35.8 135.95 35.7
M 125.05 21.25
Q 125.05 21.1 125 20.95 124.95 20.8 124.9 20.7 124.8 20.55 124.7 20.5 124.6 20.4 124.5 20.3 124.35 20.25 124.15 20.15 124 20.1 123.85 20.05 123.65 20.05 123.5 20 123.35 20 123.25 20 123.1 20 122.95 20 122.8 20.05 122.65 20.05 122.45 20.1 122.3 20.15 122.15 20.25 122.05 20.3 121.9 20.4 121.75 20.5 121.65 20.55 121.55 20.7 121.4 20.8 121.35 20.95 121.3 21.1 121.3 21.25
L 121.3 22.5
Q 121.2 23.15 120.95 23.75 120.75 24.35 120.45 24.85 120.1 25.3 119.65 25.75 119.25 26.15 118.75 26.5 118.25 26.85 117.7 27.2 117.15 27.5 116.55 27.75 115.9 28.05 115.25 28.35 114.6 28.6 113.95 28.85 113.65 29.05 113.5 29.3 113.35 29.55 113.35 29.95 113.35 30.35 113.45 30.65 113.6 31 113.85 31.25 114.3 31.8 114.9 31.8 115.05 31.8 115.25 31.75 115.4 31.75 115.55 31.7 116.75 31.25 117.85 30.75 119 30.2 120 29.55 121.05 28.95 121.85 28.25 122.65 27.55 123.25 26.75 123.8 27.6 124.55 28.3 125.35 29 126.25 29.6 127.25 30.25 128.3 30.75 129.45 31.25 130.75 31.7
L 130.75 31.6
Q 130.8 31.7 130.9 31.7 131.05 31.75 131.15 31.75 131.55 31.75 131.8 31.6 132.1 31.45 132.3 31.2 132.5 30.9 132.6 30.6 132.7 30.3 132.7 29.9 132.7 29.75 132.65 29.6 132.65 29.4 132.6 29.3 132.4 29 132.15 28.8 131.45 28.55 130.85 28.3 130.2 28 129.6 27.7 129 27.45 128.45 27.1 127.9 26.8 127.4 26.45 126.95 26.15 126.55 25.75 126.15 25.3 125.85 24.85 125.25 23.9 125.05 22.5
L 125.05 21.25
M 95.6 34.65
Q 95.25 34.7 95 34.8 94.7 34.9 94.55 35.15 94.4 35.45 94.4 35.85
L 94.4 40.8 84.25 40.8
Q 83.9 40.8 83.7 40.9 83.45 41 83.3 41.2 83.15 41.45 83.1 41.75 83 42 83 42.35 83 42.65 83.1 42.95 83.15 43.2 83.3 43.4 83.45 43.65 83.7 43.8 83.9 43.9 84.25 43.9
L 108.1 43.9
Q 108.5 43.9 108.75 43.8 109.05 43.65 109.15 43.4 109.25 43.2 109.3 42.95 109.35 42.65 109.35 42.35 109.35 42 109.3 41.75 109.25 41.45 109.15 41.2 109.05 41 108.75 40.9 108.5 40.8 108.1 40.8
L 98 40.8 98 35.85
Q 98 35.45 97.85 35.15 97.75 34.9 97.5 34.8 97.2 34.7 96.9 34.65 96.6 34.6 96.3 34.6 95.95 34.6 95.6 34.65
M 98.05 24
L 98.05 22.6
Q 98.05 22.3 97.9 22 97.8 21.75 97.5 21.55 96.95 21.1 96.25 21.1 95.45 21.1 94.9 21.55 94.6 21.75 94.45 22 94.3 22.3 94.35 22.6
L 94.35 24
Q 94.3 24.45 94.2 24.95 94.05 25.4 93.9 25.85 93.75 26.35 93.4 26.8 93.1 27.2 92.7 27.6 92.15 28.1 91.55 28.5 90.95 28.95 90.2 29.3 89.45 29.7 88.65 30.05 87.85 30.4 86.95 30.7 86.7 30.85 86.55 31.05 86.35 31.3 86.35 31.55 86.3 31.85 86.35 32.15 86.35 32.4 86.5 32.7 86.6 33.05 86.8 33.25 87.05 33.45 87.35 33.55 87.65 33.65 87.95 33.65 88.25 33.65 88.55 33.5 89.8 33.05 90.95 32.5 92.1 31.95 93.1 31.25 94.1 30.6 94.9 29.9 95.65 29.15 96.25 28.4 96.8 29.2 97.55 29.95 98.35 30.7 99.4 31.3 100.35 31.95 101.55 32.55 102.7 33.1 104 33.55
L 103.95 33.5
Q 104.2 33.65 104.45 33.65 104.7 33.65 105.05 33.55 105.35 33.45 105.55 33.25 105.8 33.05 105.95 32.7 106.2 32.15 106.15 31.55 106.1 31.3 105.9 31.05 105.75 30.85 105.45 30.7 103.65 30.1 102.2 29.3 101.45 28.9 100.85 28.5 100.25 28.05 99.8 27.6 99.4 27.2 99.05 26.75 98.7 26.35 98.5 25.85 98.3 25.4 98.15 24.95 98.05 24.5 98.05 24 Z"/>
</g>

<path id="Layer0_0_1_STROKES" stroke="#569ECC" stroke-width="5" stroke-linejoin="round" stroke-linecap="round" fill="none" d="
M 551.35 3.95
L 1161.5 3.95
Q 1171.85 3.95 1179.15 11.25 1186.5 18.6 1186.5 28.95
L 1186.5 409.1
Q 1186.5 419.5 1179.15 426.75 1171.9 434.1 1161.5 434.1
L 28.5 434.1
Q 18.15 434.1 10.8 426.75 3.5 419.45 3.5 409.1
L 3.5 28.95
Q 3.5 18.65 10.8 11.25 18.2 3.95 28.5 3.95
L 51.25 3.95 551.35 3.95 Z"/>
</defs>

<g transform="matrix( 1, 0, 0, 1, 0,0) ">
<use xlink:href="#Layer0_0_FILL"/>

<use xlink:href="#Layer0_0_1_STROKES"/>
</g>

<g transform="matrix( 1, 0, 0, 1, 0,0) ">
<use xlink:href="#Layer0_1_FILL"/>
</g>
</svg>
