
<svg xmlns="http://www.w3.org/2000/svg" version="1.1" xmlns:xlink="http://www.w3.org/1999/xlink" preserveAspectRatio="none" x="0px" y="0px" width="1280px" height="720px" viewBox="0 0 1280 720">
<defs>
<g id="Layer0_0_FILL">
<path fill="#1E1E1E" stroke="none" d="
M 454.75 383.15
Q 454.75 382.8 454.7 382.7 454.65 382.55 454.35 382.55
L 450.7 382.55
Q 450.3 382.55 450.2 382.65 450.1 382.75 449.9 383.1
L 437.5 401.7
Q 437.35 401.85 437.2 402.15 437 402.45 437 402.7
L 437 405.7
Q 437 406 437.15 406.05 437.3 406.15 437.65 406.15
L 450.45 406.15 450.45 412.25
Q 450.45 412.65 450.6 412.8 450.75 412.95 451.2 412.95
L 454.1 412.95
Q 454.5 412.95 454.6 412.8 454.75 412.7 454.75 412.25
L 454.75 406.15 458.45 406.15
Q 458.8 406.15 458.95 406.05 459.1 405.95 459.1 405.55
L 459.1 402.65
Q 459.1 402.25 458.95 402.15 458.8 402.05 458.45 402.05
L 454.75 402.05 454.75 383.15
M 450.45 402.05
L 441.85 402.05 450.45 389 450.45 402.05
M 381.05 389.8
Q 381.05 392.1 382.45 393.9 383.85 395.7 386.25 397.1 385.05 397.7 383.95 398.4 382.85 399.1 382.05 400 381.25 400.9 380.7 402.05 380.25 403.2 380.25 404.7 380.25 406.85 381.15 408.45 382.05 410.1 383.5 411.15 384.95 412.2 386.75 412.75 388.6 413.3 390.4 413.3 392.35 413.3 394.15 412.75 396.05 412.2 397.45 411.15 398.85 410.1 399.7 408.45 400.6 406.85 400.6 404.7 400.6 403.3 400.15 402.3 399.75 401.25 398.95 400.35 398.15 399.45 397.05 398.65 395.9 397.9 394.5 397.05 397.1 395.25 398.35 393.5 399.6 391.7 399.6 389.7 399.6 387.95 398.9 386.55 398.2 385.15 397 384.2 395.8 383.25 394.1 382.7 392.4 382.2 390.4 382.2 388.45 382.2 386.75 382.75 385.05 383.3 383.8 384.3 382.55 385.3 381.8 386.7 381.05 388.1 381.05 389.8
M 390.4 386.1
Q 391.35 386.1 392.2 386.45 393.05 386.7 393.7 387.25 394.35 387.8 394.7 388.5 395.1 389.2 395.1 390 395.1 390.7 394.6 391.5 394.1 392.3 393.35 393.05 392.6 393.75 391.8 394.3 391.05 394.85 390.4 395.1 389.9 394.9 389.1 394.4 388.3 393.95 387.5 393.25 386.75 392.55 386.2 391.75 385.6 390.95 385.6 390.1 385.6 389.15 386.05 388.4 386.5 387.7 387.2 387.2 387.85 386.7 388.7 386.4 389.55 386.1 390.4 386.1
M 395.55 403.1
Q 396.05 403.95 396.05 404.7 396.05 405.75 395.55 406.6 395.05 407.45 394.25 408.05 393.45 408.65 392.45 408.95 391.4 409.25 390.4 409.25 389.45 409.25 388.4 408.95 387.4 408.6 386.55 408 385.75 407.4 385.25 406.55 384.7 405.7 384.7 404.7 384.7 403.45 385.3 402.55 385.9 401.65 386.75 401 387.6 400.35 388.65 399.95 389.6 399.5 390.4 399.3 391.4 399.65 392.4 400.25 393.4 400.85 394.25 401.55 395.05 402.3 395.55 403.1
M 331.75 382.2
Q 329.9 382.2 327.9 382.85 325.95 383.5 324.45 384.3 324.05 384.5 323.9 384.75 323.8 384.9 323.9 385.1
L 324.45 388.15
Q 324.55 388.5 324.85 388.55 325.15 388.55 325.5 388.35 327.3 387.3 328.8 386.85 330.35 386.4 332 386.4 333.75 386.4 334.9 387.65 336.1 388.9 336.1 390.8 336.1 392.5 334.5 395.1 332.9 397.75 329.55 401.7
L 323.45 408.95
Q 323.25 409.25 323.05 409.55 322.9 409.9 322.9 410.2
L 322.9 412.5
Q 322.9 413 323.65 413
L 340.7 413
Q 341.25 413 341.25 412.3
L 341.25 409.5
Q 341.25 408.9 340.7 408.9
L 328.95 408.9
Q 329.95 407.75 330.95 406.6 331.95 405.4 332.8 404.3 333.9 403 335.3 401.4 336.65 399.75 337.85 398 339.05 396.2 339.85 394.35 340.65 392.5 340.65 390.7 340.65 388.6 339.95 387 339.25 385.4 338.1 384.35 336.95 383.3 335.3 382.75 333.7 382.2 331.75 382.2
M 303.65 382.85
Q 301.7 383.5 300.2 384.3 299.8 384.5 299.65 384.75 299.55 384.9 299.65 385.1
L 300.2 388.15
Q 300.3 388.5 300.6 388.55 300.9 388.55 301.25 388.35 303.05 387.3 304.55 386.85 306.1 386.4 307.75 386.4 309.5 386.4 310.65 387.65 311.85 388.9 311.85 390.8 311.85 392.5 310.25 395.1 308.65 397.75 305.3 401.7
L 299.2 408.95
Q 299 409.25 298.8 409.55 298.65 409.9 298.65 410.2
L 298.65 412.5
Q 298.65 413 299.4 413
L 316.45 413
Q 317 413 317 412.3
L 317 409.5
Q 317 408.9 316.45 408.9
L 304.7 408.9
Q 305.7 407.75 306.7 406.6 307.7 405.4 308.55 404.3 309.65 403 311.05 401.4 312.4 399.75 313.6 398 314.8 396.2 315.6 394.35 316.4 392.5 316.4 390.7 316.4 388.6 315.7 387 315 385.4 313.85 384.35 312.7 383.3 311.05 382.75 309.45 382.2 307.5 382.2 305.65 382.2 303.65 382.85
M 950.55 382.55
Q 948.85 382.95 947.1 383.55 946.7 383.75 946.55 383.95 946.4 384.1 946.5 384.35
L 946.85 387.3
Q 946.95 387.65 947.15 387.75 947.35 387.85 947.85 387.65 948.45 387.4 949.25 387.15 950.05 386.9 950.85 386.75 951.65 386.55 952.4 386.45 953.1 386.35 953.65 386.35 954.5 386.35 955.45 386.55 956.4 386.75 957.25 387.25 958.05 387.7 958.6 388.5 959.1 389.25 959.1 390.25 959.1 391.6 958.3 392.5 957.5 393.45 956.3 394.05 955.15 394.65 953.9 394.9 952.65 395.15 951.8 395.15
L 949.9 395.15
Q 949.55 395.15 949.45 395.25 949.35 395.3 949.35 395.7
L 949.35 398.65
Q 949.35 398.95 949.45 399.05 949.55 399.15 949.9 399.15
L 951.85 399.15
Q 953.8 399.15 955.15 399.55 956.55 399.9 957.45 400.6 958.3 401.25 958.75 402.1 959.15 402.95 959.15 403.9 959.15 406.55 957.2 407.9 956.55 408.35 955.8 408.6 955 408.9 954.15 409 953.3 409.1 952.4 409.05 951.5 409 950.7 408.95 949.6 408.85 948.55 408.55 947.5 408.25 946.45 407.95 945.9 407.7 945.7 407.85 945.5 407.95 945.45 408.3
L 945.1 411.35
Q 945.05 411.7 945.25 411.85 945.4 412.05 945.8 412.15 947.25 412.7 949 413 950.75 413.3 952.5 413.3 954.8 413.3 956.95 412.7 959.1 412.15 960.6 410.9 962.1 409.65 962.95 407.9 963.75 406.1 963.75 404 963.75 401.8 962.4 400 961.05 398.25 958.4 397.1 959.5 396.6 960.45 395.85 961.4 395.1 962.1 394.1 962.8 393.15 963.2 392.1 963.55 391 963.55 389.9 963.55 387.9 962.7 386.4 961.85 384.9 960.5 384 959.2 383.1 957.45 382.65 955.7 382.2 953.9 382.2 952.2 382.2 950.55 382.55
M 890.35 387.1
Q 888.8 389.3 888.1 392.35 887.4 395.35 887.4 398.75 887.4 406.2 889.95 409.75 892.5 413.3 897.2 413.3 899.5 413.3 901.35 412.5 903.2 411.7 904.5 410.25 905.8 408.9 906.45 406.95 907.15 405.1 907.15 402.9 907.15 400.6 906.45 398.8 905.75 396.95 904.45 395.65 903.2 394.35 901.4 393.65 899.65 392.95 897.45 392.95 896.7 392.95 895.9 393.2 895.1 393.4 894.35 393.75 893.6 394.1 893 394.55 892.4 395 892.05 395.5 892.3 393.55 892.9 391.85 893.45 390.2 894.45 388.95 895.45 387.7 896.9 387 898.4 386.35 900.45 386.35 901.85 386.35 903.05 386.45 904.2 386.55 905.25 386.95 905.8 387.2 905.9 386.65
L 906 383.45
Q 906.05 383.05 905.7 382.95 904.8 382.6 903.35 382.4 901.95 382.2 900.8 382.2 897.05 382.2 894.5 383.5 891.95 384.85 890.35 387.1
M 901.4 398.75
Q 902.75 400.3 902.75 403.1 902.75 405.95 901.25 407.65 899.7 409.3 897.3 409.3 896.2 409.3 895.2 408.8 894.25 408.3 893.55 407.4 892.85 406.5 892.45 405.25 892.05 404.1 892.05 402.7 892.05 400.25 893.55 398.7 895 397.15 897.6 397.15 900.05 397.15 901.4 398.75
M 847.35 383.05
Q 847.35 382.85 847.25 382.7 847.1 382.5 846.85 382.5
L 832.2 382.5
Q 831.6 382.5 831.5 382.65 831.35 382.75 831.35 383.2
L 831.15 397.95
Q 831.15 399.3 832.7 398.65 833.95 398.2 835.35 397.95 836.75 397.65 838.05 397.65 841.35 397.65 842.75 399.2 844.2 400.7 844.2 403.3 844.2 406 842.4 407.5 840.7 409.05 838 409.05 837.3 409.05 836.45 408.95 835.65 408.9 834.8 408.75 833.95 408.55 833.15 408.35 832.35 408.1 831.8 407.8 830.95 407.4 830.95 408.1
L 830.95 411.35
Q 830.95 411.65 830.95 411.8 831 411.9 831.25 412.1 831.9 412.4 832.85 412.6 833.75 412.85 834.7 413 835.65 413.1 836.45 413.2 837.3 413.25 837.7 413.25 840 413.25 842.05 412.6 844.15 411.95 845.55 410.65 848.7 407.85 848.7 402.8 848.7 400.7 847.95 399.05 847.2 397.35 845.9 396.15 844.6 395 842.85 394.35 841.1 393.75 839.1 393.75 837.15 393.75 835.55 394.1
L 835.7 386.7 846.85 386.7
Q 847.1 386.7 847.25 386.5 847.35 386.35 847.35 386.1
L 847.35 383.05
M 788 382.4
Q 786.6 382.2 785.45 382.2 781.7 382.2 779.15 383.5 776.6 384.85 775 387.1 773.45 389.3 772.75 392.35 772.05 395.35 772.05 398.75 772.05 406.2 774.6 409.75 777.15 413.3 781.85 413.3 784.15 413.3 786 412.5 787.85 411.7 789.15 410.25 790.45 408.9 791.1 406.95 791.8 405.1 791.8 402.9 791.8 400.6 791.1 398.8 790.4 396.95 789.1 395.65 787.85 394.35 786.05 393.65 784.3 392.95 782.1 392.95 781.35 392.95 780.55 393.2 779.75 393.4 779 393.75 778.25 394.1 777.65 394.55 777.05 395 776.7 395.5 776.95 393.55 777.55 391.85 778.1 390.2 779.1 388.95 780.1 387.7 781.55 387 783.05 386.35 785.1 386.35 786.5 386.35 787.7 386.45 788.85 386.55 789.9 386.95 790.45 387.2 790.55 386.65
L 790.65 383.45
Q 790.7 383.05 790.35 382.95 789.45 382.6 788 382.4
M 782.25 397.15
Q 784.7 397.15 786.05 398.75 787.4 400.3 787.4 403.1 787.4 405.95 785.9 407.65 784.35 409.3 781.95 409.3 780.85 409.3 779.85 408.8 778.9 408.3 778.2 407.4 777.5 406.5 777.1 405.25 776.7 404.1 776.7 402.7 776.7 400.25 778.2 398.7 779.65 397.15 782.25 397.15
M 766.4 383.45
Q 766.45 383.05 766.1 382.95 765.2 382.6 763.75 382.4 762.35 382.2 761.2 382.2 757.45 382.2 754.9 383.5 752.35 384.85 750.75 387.1 749.2 389.3 748.5 392.35 747.8 395.35 747.8 398.75 747.8 406.2 750.35 409.75 752.9 413.3 757.6 413.3 759.9 413.3 761.75 412.5 763.6 411.7 764.9 410.25 766.2 408.9 766.85 406.95 767.55 405.1 767.55 402.9 767.55 400.6 766.85 398.8 766.15 396.95 764.85 395.65 763.6 394.35 761.8 393.65 760.05 392.95 757.85 392.95 757.1 392.95 756.3 393.2 755.5 393.4 754.75 393.75 754 394.1 753.4 394.55 752.8 395 752.45 395.5 752.7 393.55 753.3 391.85 753.85 390.2 754.85 388.95 755.85 387.7 757.3 387 758.8 386.35 760.85 386.35 762.25 386.35 763.45 386.45 764.6 386.55 765.65 386.95 766.2 387.2 766.3 386.65
L 766.4 383.45
M 761.8 398.75
Q 763.15 400.3 763.15 403.1 763.15 405.95 761.65 407.65 760.1 409.3 757.7 409.3 756.6 409.3 755.6 408.8 754.65 408.3 753.95 407.4 753.25 406.5 752.85 405.25 752.45 404.1 752.45 402.7 752.45 400.25 753.95 398.7 755.4 397.15 758 397.15 760.45 397.15 761.8 398.75 Z"/>
</g>

<path id="Layer0_0_1_STROKES" stroke="#000000" stroke-width="3" stroke-linejoin="round" stroke-linecap="butt" fill="none" d="
M 985.9 367.35
L 797.3 367.35
Q 798.1 368.55 798.9 369.95 805.15 380.8 805.15 396 805.15 411.3 798.9 422.1 798.3 423.2 797.7 424.1
M 482.5 367.35
L 348.35 367.35
Q 349.15 368.55 349.95 369.95 356.2 380.8 356.2 396 356.2 411.3 349.95 422.1 349.35 423.2 348.75 424.1"/>
</defs>

<g transform="matrix( 1, 0, 0, 1, 0,0) ">
<use xlink:href="#Layer0_0_FILL"/>

<use xlink:href="#Layer0_0_1_STROKES"/>
</g>
</svg>
