
<svg xmlns="http://www.w3.org/2000/svg" version="1.1" xmlns:xlink="http://www.w3.org/1999/xlink" preserveAspectRatio="none" x="0px" y="0px" width="1280px" height="720px" viewBox="0 0 1280 720">
<defs>
<g id="Layer0_0_FILL">
<path fill="#1E1E1E" stroke="none" d="
M 443.25 353.85
Q 441.3 354.5 439.8 355.3 439.4 355.5 439.25 355.75 439.15 355.9 439.25 356.1
L 439.8 359.15
Q 439.9 359.5 440.2 359.55 440.5 359.55 440.85 359.35 442.65 358.3 444.15 357.85 445.7 357.4 447.35 357.4 449.1 357.4 450.25 358.65 451.45 359.9 451.45 361.8 451.45 363.5 449.85 366.1 448.25 368.75 444.9 372.7
L 438.8 379.95
Q 438.6 380.25 438.4 380.55 438.25 380.9 438.25 381.2
L 438.25 383.5
Q 438.25 384 439 384
L 456.05 384
Q 456.6 384 456.6 383.3
L 456.6 380.5
Q 456.6 379.9 456.05 379.9
L 444.3 379.9
Q 445.3 378.75 446.3 377.6 447.3 376.4 448.15 375.3 449.25 374 450.65 372.4 452 370.75 453.2 369 454.4 367.2 455.2 365.35 456 363.5 456 361.7 456 359.6 455.3 358 454.6 356.4 453.45 355.35 452.3 354.3 450.65 353.75 449.05 353.2 447.1 353.2 445.25 353.2 443.25 353.85
M 399.15 357.35
Q 399.4 357.05 399.4 356.7
L 399.4 354.3
Q 399.4 353.85 399.25 353.7 399.1 353.55 398.4 353.55
L 381.4 353.55
Q 380.7 353.55 380.7 354.2
L 380.7 357
Q 380.7 357.35 380.9 357.5 381.1 357.7 381.4 357.7
L 394.15 357.7 383.7 383.25
Q 383.55 383.7 383.7 383.8 383.85 383.95 384.45 383.95
L 387.7 383.95
Q 388.1 383.95 388.25 383.85 388.4 383.7 388.6 383.4
L 399.15 357.35
M 339.5 355.2
Q 338.3 354.25 336.6 353.7 334.9 353.2 332.9 353.2 330.95 353.2 329.25 353.75 327.55 354.3 326.3 355.3 325.05 356.3 324.3 357.7 323.55 359.1 323.55 360.8 323.55 363.1 324.95 364.9 326.35 366.7 328.75 368.1 327.55 368.7 326.45 369.4 325.35 370.1 324.55 371 323.75 371.9 323.2 373.05 322.75 374.2 322.75 375.7 322.75 377.85 323.65 379.45 324.55 381.1 326 382.15 327.45 383.2 329.25 383.75 331.1 384.3 332.9 384.3 334.85 384.3 336.65 383.75 338.55 383.2 339.95 382.15 341.35 381.1 342.2 379.45 343.1 377.85 343.1 375.7 343.1 374.3 342.65 373.3 342.25 372.25 341.45 371.35 340.65 370.45 339.55 369.65 338.4 368.9 337 368.05 339.6 366.25 340.85 364.5 342.1 362.7 342.1 360.7 342.1 358.95 341.4 357.55 340.7 356.15 339.5 355.2
M 334.7 357.45
Q 335.55 357.7 336.2 358.25 336.85 358.8 337.2 359.5 337.6 360.2 337.6 361 337.6 361.7 337.1 362.5 336.6 363.3 335.85 364.05 335.1 364.75 334.3 365.3 333.55 365.85 332.9 366.1 332.4 365.9 331.6 365.4 330.8 364.95 330 364.25 329.25 363.55 328.7 362.75 328.1 361.95 328.1 361.1 328.1 360.15 328.55 359.4 329 358.7 329.7 358.2 330.35 357.7 331.2 357.4 332.05 357.1 332.9 357.1 333.85 357.1 334.7 357.45
M 331.15 370.95
Q 332.1 370.5 332.9 370.3 333.9 370.65 334.9 371.25 335.9 371.85 336.75 372.55 337.55 373.3 338.05 374.1 338.55 374.95 338.55 375.7 338.55 376.75 338.05 377.6 337.55 378.45 336.75 379.05 335.95 379.65 334.95 379.95 333.9 380.25 332.9 380.25 331.95 380.25 330.9 379.95 329.9 379.6 329.05 379 328.25 378.4 327.75 377.55 327.2 376.7 327.2 375.7 327.2 374.45 327.8 373.55 328.4 372.65 329.25 372 330.1 371.35 331.15 370.95
M 311.5 354.65
Q 311.5 353.85 311.35 353.7 311.25 353.55 310.55 353.55
L 308.45 353.55
Q 308.3 353.55 308.1 353.65 307.9 353.7 307.85 353.8
L 301.7 359.45
Q 301.5 359.65 301.5 359.85 301.45 360.1 301.6 360.25
L 303.4 362.4
Q 303.55 362.55 303.8 362.5 304.05 362.5 304.3 362.35
L 307.25 359.75 307.25 383.45
Q 307.25 383.95 307.8 383.95
L 311 383.95
Q 311.5 383.95 311.5 383.45
L 311.5 354.65
M 962.95 353.7
Q 962.8 353.5 962.55 353.5
L 947.9 353.5
Q 947.3 353.5 947.2 353.65 947.05 353.75 947.05 354.2
L 946.85 368.95
Q 946.85 370.3 948.4 369.65 949.65 369.2 951.05 368.95 952.45 368.65 953.75 368.65 957.05 368.65 958.45 370.2 959.9 371.7 959.9 374.3 959.9 377 958.1 378.5 956.4 380.05 953.7 380.05 953 380.05 952.15 379.95 951.35 379.9 950.5 379.75 949.65 379.55 948.85 379.35 948.05 379.1 947.5 378.8 946.65 378.4 946.65 379.1
L 946.65 382.35
Q 946.65 382.65 946.65 382.8 946.7 382.9 946.95 383.1 947.6 383.4 948.55 383.6 949.45 383.85 950.4 384 951.35 384.1 952.15 384.2 953 384.25 953.4 384.25 955.7 384.25 957.75 383.6 959.85 382.95 961.25 381.65 964.4 378.85 964.4 373.8 964.4 371.7 963.65 370.05 962.9 368.35 961.6 367.15 960.3 366 958.55 365.35 956.8 364.75 954.8 364.75 952.85 364.75 951.25 365.1
L 951.4 357.7 962.55 357.7
Q 962.8 357.7 962.95 357.5 963.05 357.35 963.05 357.1
L 963.05 354.05
Q 963.05 353.85 962.95 353.7
M 889.25 354.55
Q 888.85 354.75 888.7 354.95 888.55 355.1 888.65 355.35
L 889 358.3
Q 889.1 358.65 889.3 358.75 889.5 358.85 890 358.65 890.6 358.4 891.4 358.15 892.2 357.9 893 357.75 893.8 357.55 894.55 357.45 895.25 357.35 895.8 357.35 896.65 357.35 897.6 357.55 898.55 357.75 899.4 358.25 900.2 358.7 900.75 359.5 901.25 360.25 901.25 361.25 901.25 362.6 900.45 363.5 899.65 364.45 898.45 365.05 897.3 365.65 896.05 365.9 894.8 366.15 893.95 366.15
L 892.05 366.15
Q 891.7 366.15 891.6 366.25 891.5 366.3 891.5 366.7
L 891.5 369.65
Q 891.5 369.95 891.6 370.05 891.7 370.15 892.05 370.15
L 894 370.15
Q 895.95 370.15 897.3 370.55 898.7 370.9 899.6 371.6 900.45 372.25 900.9 373.1 901.3 373.95 901.3 374.9 901.3 377.55 899.35 378.9 898.7 379.35 897.95 379.6 897.15 379.9 896.3 380 895.45 380.1 894.55 380.05 893.65 380 892.85 379.95 891.75 379.85 890.7 379.55 889.65 379.25 888.6 378.95 888.05 378.7 887.85 378.85 887.65 378.95 887.6 379.3
L 887.25 382.35
Q 887.2 382.7 887.4 382.85 887.55 383.05 887.95 383.15 889.4 383.7 891.15 384 892.9 384.3 894.65 384.3 896.95 384.3 899.1 383.7 901.25 383.15 902.75 381.9 904.25 380.65 905.1 378.9 905.9 377.1 905.9 375 905.9 372.8 904.55 371 903.2 369.25 900.55 368.1 901.65 367.6 902.6 366.85 903.55 366.1 904.25 365.1 904.95 364.15 905.35 363.1 905.7 362 905.7 360.9 905.7 358.9 904.85 357.4 904 355.9 902.65 355 901.35 354.1 899.6 353.65 897.85 353.2 896.05 353.2 894.35 353.2 892.7 353.55 891 353.95 889.25 354.55
M 846.4 358
Q 845.7 356.4 844.55 355.35 843.4 354.3 841.75 353.75 840.15 353.2 838.2 353.2 836.35 353.2 834.35 353.85 832.4 354.5 830.9 355.3 830.5 355.5 830.35 355.75 830.25 355.9 830.35 356.1
L 830.9 359.15
Q 831 359.5 831.3 359.55 831.6 359.55 831.95 359.35 833.75 358.3 835.25 357.85 836.8 357.4 838.45 357.4 840.2 357.4 841.35 358.65 842.55 359.9 842.55 361.8 842.55 363.5 840.95 366.1 839.35 368.75 836 372.7
L 829.9 379.95
Q 829.7 380.25 829.5 380.55 829.35 380.9 829.35 381.2
L 829.35 383.5
Q 829.35 384 830.1 384
L 847.15 384
Q 847.7 384 847.7 383.3
L 847.7 380.5
Q 847.7 379.9 847.15 379.9
L 835.4 379.9
Q 836.4 378.75 837.4 377.6 838.4 376.4 839.25 375.3 840.35 374 841.75 372.4 843.1 370.75 844.3 369 845.5 367.2 846.3 365.35 847.1 363.5 847.1 361.7 847.1 359.6 846.4 358
M 790.6 357.35
Q 790.85 357.05 790.85 356.7
L 790.85 354.3
Q 790.85 353.85 790.7 353.7 790.55 353.55 789.85 353.55
L 772.85 353.55
Q 772.15 353.55 772.15 354.2
L 772.15 357
Q 772.15 357.35 772.35 357.5 772.55 357.7 772.85 357.7
L 785.6 357.7 775.15 383.25
Q 775 383.7 775.15 383.8 775.3 383.95 775.9 383.95
L 779.15 383.95
Q 779.55 383.95 779.7 383.85 779.85 383.7 780.05 383.4
L 790.6 357.35
M 765.25 357.4
Q 764.4 355.9 763.05 355 761.75 354.1 760 353.65 758.25 353.2 756.45 353.2 754.75 353.2 753.1 353.55 751.4 353.95 749.65 354.55 749.25 354.75 749.1 354.95 748.95 355.1 749.05 355.35
L 749.4 358.3
Q 749.5 358.65 749.7 358.75 749.9 358.85 750.4 358.65 751 358.4 751.8 358.15 752.6 357.9 753.4 357.75 754.2 357.55 754.95 357.45 755.65 357.35 756.2 357.35 757.05 357.35 758 357.55 758.95 357.75 759.8 358.25 760.6 358.7 761.15 359.5 761.65 360.25 761.65 361.25 761.65 362.6 760.85 363.5 760.05 364.45 758.85 365.05 757.7 365.65 756.45 365.9 755.2 366.15 754.35 366.15
L 752.45 366.15
Q 752.1 366.15 752 366.25 751.9 366.3 751.9 366.7
L 751.9 369.65
Q 751.9 369.95 752 370.05 752.1 370.15 752.45 370.15
L 754.4 370.15
Q 756.35 370.15 757.7 370.55 759.1 370.9 760 371.6 760.85 372.25 761.3 373.1 761.7 373.95 761.7 374.9 761.7 377.55 759.75 378.9 759.1 379.35 758.35 379.6 757.55 379.9 756.7 380 755.85 380.1 754.95 380.05 754.05 380 753.25 379.95 752.15 379.85 751.1 379.55 750.05 379.25 749 378.95 748.45 378.7 748.25 378.85 748.05 378.95 748 379.3
L 747.65 382.35
Q 747.6 382.7 747.8 382.85 747.95 383.05 748.35 383.15 749.8 383.7 751.55 384 753.3 384.3 755.05 384.3 757.35 384.3 759.5 383.7 761.65 383.15 763.15 381.9 764.65 380.65 765.5 378.9 766.3 377.1 766.3 375 766.3 372.8 764.95 371 763.6 369.25 760.95 368.1 762.05 367.6 763 366.85 763.95 366.1 764.65 365.1 765.35 364.15 765.75 363.1 766.1 362 766.1 360.9 766.1 358.9 765.25 357.4 Z"/>
</g>

<path id="Layer0_0_1_STROKES" stroke="#000000" stroke-width="3" stroke-linejoin="round" stroke-linecap="butt" fill="none" d="
M 985.9 338.35
L 797.3 338.35
Q 798.1 339.55 798.9 340.95 805.15 351.8 805.15 367 805.15 382.3 798.9 393.1 798.3 394.2 797.7 395.1
M 482.5 338.35
L 348.35 338.35
Q 349.15 339.55 349.95 340.95 356.2 351.8 356.2 367 356.2 382.3 349.95 393.1 349.35 394.2 348.75 395.1"/>
</defs>

<g transform="matrix( 1, 0, 0, 1, 0,0) ">
<use xlink:href="#Layer0_0_FILL"/>

<use xlink:href="#Layer0_0_1_STROKES"/>
</g>
</svg>
