<?xml version="1.0" encoding="utf-8"?>
<!-- Generator: Adobe Illustrator 23.1.0, SVG Export Plug-In . SVG Version: 6.00 Build 0)  -->
<svg version="1.1" id="Layer_3" xmlns="http://www.w3.org/2000/svg" xmlns:xlink="http://www.w3.org/1999/xlink" x="0px" y="0px"
	 width="1000px" height="316.1px" viewBox="0 0 1000 316.1" style="enable-background:new 0 0 1000 316.1;" xml:space="preserve">
<g>
	<g>
		<path style="fill:#111111;" d="M22.6,122.2c1.4,0,2.6,0.4,3.6,1c1,0.7,1.4,1.7,1.4,3.2v46.7c0,1.4-0.5,2.5-1.4,3.2
			c-1,0.7-2,1-3.4,1c-1.3,0-2.4-0.4-3.4-1c-1-0.6-1.4-1.7-1.4-3.2v-39.5l-9.5,5.6c-1.2,0.7-2.4,0.8-3.5,0.4
			c-1.1-0.5-1.9-1.2-2.5-2.3c-0.6-1-0.7-2.2-0.5-3.2c0.2-1.2,0.8-2,2-2.8l12.5-7.2c1.3-0.7,2.4-1.2,3.4-1.6
			C20.8,122.2,21.7,122.2,22.6,122.2z"/>
		<path style="fill:#111111;" d="M62.6,121.9c3,0,5.6,0.4,7.8,1.2c2.2,0.7,4,1.8,5.4,3c1.4,1.3,2.4,2.8,3.1,4.4s1,3.5,1,5.3v0.8
			c0,2.9-0.6,5.6-1.9,8.4c-1.3,2.6-3.2,5.3-5.8,7.9l-15.6,16H79c1.1,0,1.9,0.4,2.5,1.2s0.8,1.8,0.8,2.9c0,1.1-0.2,2-0.8,2.9
			s-1.3,1.2-2.5,1.2H50.8c-2.4,0-4.1-0.5-5-1.3c-1.1-0.8-1.6-2.2-1.6-4c0-0.8,0.2-1.6,0.6-2.3c0.4-0.7,1.1-1.4,1.8-2.4l17.2-18
			c1.3-1.4,2.5-2.6,3.4-3.7c0.8-1.1,1.6-2.2,2-3.1c0.5-1,0.8-1.9,1-2.8c0.1-0.8,0.2-1.8,0.2-2.8v-0.4c0-1.7-0.6-3-1.9-4.2
			c-1.2-1.1-3.1-1.7-5.8-1.7c-2.2,0-4.1,0.5-5.5,1.3c-1.4,0.8-2.9,2.2-4.1,3.8c-0.7,1-1.6,1.6-2.6,1.7c-1.1,0.1-2-0.1-3-0.8
			c-1-0.7-1.7-1.6-1.9-2.6c-0.2-1.1-0.1-2.2,0.7-3.4c1.7-2.5,3.8-4.6,6.5-6.2C55.4,122.6,58.8,121.9,62.6,121.9z"/>
		<path style="fill:#E1358A;" d="M143.4,145.9c1.1,0,1.9,0.4,2.4,1.2s0.7,1.8,0.7,2.9c0,1.1-0.2,2-0.7,2.9s-1.3,1.2-2.4,1.2h-32.6
			c-1.1,0-1.9-0.4-2.4-1.2s-0.7-1.7-0.7-2.9c0-1.1,0.2-2,0.7-2.9s1.3-1.2,2.4-1.2H143.4z M127,129.1c1.6,0,2.8,0.5,3.8,1.6
			s1.6,2.4,1.6,4c0,1.6-0.5,2.9-1.6,4c-1.1,1.1-2.3,1.6-3.8,1.6c-1.6,0-2.8-0.5-3.8-1.6c-1.1-1.1-1.6-2.4-1.6-4c0-1.6,0.5-2.9,1.6-4
			C124.2,129.7,125.5,129.1,127,129.1z M127,159.4c1.6,0,2.8,0.5,3.8,1.6c1.1,1.1,1.6,2.4,1.6,4c0,1.6-0.5,2.9-1.6,4
			s-2.3,1.6-3.8,1.6c-1.6,0-2.8-0.5-3.8-1.6c-1.1-1.1-1.6-2.4-1.6-4c0-1.6,0.5-2.9,1.6-4C124.2,160,125.5,159.4,127,159.4z"/>
		<path style="fill:#111111;" d="M198.8,122.8c1,0.7,1.7,1.6,1.9,2.6c0.4,1.1,0.1,2.3-0.7,3.5l-19.3,28.7h15.2v-12.5
			c0-1.4,0.5-2.5,1.4-3.1c1-0.6,2-1,3.2-1s2.3,0.4,3.2,1c1,0.7,1.4,1.7,1.4,3.1v12.5h4.6c1.1,0,1.9,0.4,2.4,1.2
			c0.5,0.8,0.7,1.7,0.7,2.8c0,1-0.2,1.9-0.7,2.8s-1.3,1.2-2.4,1.2h-4.6v7.6c0,1.4-0.5,2.5-1.4,3.1c-1,0.7-2,1-3.2,1s-2.3-0.4-3.2-1
			c-1-0.6-1.4-1.7-1.4-3.1v-7.6h-20.6c-2,0-3.6-0.4-4.4-1.2c-1-0.7-1.3-1.9-1.3-3.6c0-0.2,0-0.5,0.1-0.8c0-0.2,0.1-0.6,0.2-1
			c0.1-0.4,0.4-0.8,0.7-1.3c0.2-0.5,0.7-1.2,1.2-2L193,124c0.7-1.1,1.7-1.7,2.8-1.9C196.8,122,197.8,122.2,198.8,122.8z"/>
		<path style="fill:#111111;" d="M269.7,137.8c1.1,0,1.9,0.4,2.4,1.2c0.5,0.8,0.7,1.7,0.7,2.8c0,1.1-0.2,2-0.7,2.8
			c-0.5,0.8-1.3,1.2-2.4,1.2h-29.4c-1.1,0-1.9-0.4-2.4-1.2s-0.7-1.7-0.7-2.8c0-1.1,0.2-2,0.7-2.8c0.5-0.8,1.3-1.2,2.4-1.2H269.7z
			 M269.7,154c1.1,0,1.9,0.4,2.4,1.2c0.5,0.8,0.7,1.7,0.7,2.8c0,1.1-0.2,2-0.7,2.8c-0.5,0.8-1.3,1.2-2.4,1.2h-29.4
			c-1.1,0-1.9-0.4-2.4-1.2s-0.7-1.7-0.7-2.8c0-1.1,0.2-2,0.7-2.8s1.3-1.2,2.4-1.2H269.7z"/>
		<path style="fill:#111111;" d="M299.1,121.9c3,0,5.6,0.4,7.8,1.2c2.2,0.7,4.1,1.8,5.5,3c1.4,1.3,2.5,2.8,3.2,4.4
			c0.7,1.7,1.1,3.5,1.1,5.3v0.4c0,1.3-0.2,2.8-0.6,4.1c-0.4,1.3-1,2.6-1.7,3.7c-0.7,1.2-1.7,2.2-2.8,3c-1.1,0.8-2.3,1.4-3.7,1.9
			c1.3,0.2,2.8,0.6,4.1,1.2s2.5,1.3,3.6,2.3c1.1,1,1.8,2.2,2.5,3.6c0.6,1.4,1,3.1,1,5.2v0.7c0,2.2-0.4,4.2-1.2,6
			c-0.8,1.9-2,3.6-3.7,5c-1.7,1.4-3.6,2.6-6,3.5s-5.2,1.3-8.4,1.3c-2.9,0-5.5-0.4-8-1c-2.4-0.6-4.7-1.7-6.8-3.1
			c-1.1-0.7-1.8-1.7-1.9-2.9c-0.1-1.2,0.1-2.3,0.7-3.4c0.7-1.2,1.6-1.9,2.5-2.2c1-0.2,2,0,3.1,0.7c1.7,1.2,3.4,2,4.8,2.4
			c1.4,0.5,3.1,0.7,4.9,0.7c1.9,0,3.6-0.2,4.9-0.6s2.4-1,3.2-1.6c0.8-0.7,1.4-1.4,1.8-2.4c0.4-1,0.6-1.9,0.6-3v-0.6
			c0-2.6-0.8-4.6-2.5-5.8s-4.4-1.9-8.2-1.9h-4c-1.2,0-2-0.4-2.6-1.2s-0.8-1.8-0.8-3c0-1.2,0.2-2.2,0.8-3s1.4-1.2,2.6-1.2h3.1
			c3.4,0,5.8-0.6,7.3-1.9s2.3-3.2,2.3-5.9v-0.2c0-1.9-0.7-3.5-2-4.6c-1.3-1.2-3.5-1.7-6.5-1.7c-1.8,0-3.2,0.4-4.6,1
			c-1.2,0.6-2.5,1.4-3.8,2.6c-1,0.8-1.9,1.2-3,1.1c-1.1-0.1-1.9-0.6-2.6-1.6s-1.1-1.9-1-3c0.1-1.1,0.5-2,1.2-2.9
			c1.6-1.8,3.5-3.2,5.9-4.2C293.2,122.2,296,121.9,299.1,121.9z"/>
	</g>
	<g>
		<g>
			<line style="fill:none;stroke:#E22284;stroke-width:2;stroke-miterlimit:10;" x1="198.8" y1="65.2" x2="198.8" y2="99.8"/>
			<g>
				<polygon style="fill:#E22284;" points="191.7,94.4 198.8,97.4 205.9,94.4 198.8,111.4 				"/>
			</g>
		</g>
	</g>
	<g>
		<g>
			<path style="fill:#E22084;" d="M127.4,22.5c0.4,0.2,0.6,0.7,0.6,1.4c0.1,1.7,0.1,3.4,0.2,5.2c0.1,1.7,0.1,3.5,0.2,5.2
				c0.1,1.7,0.1,3.4,0.2,4.9c0,1.6,0.1,3,0.1,4.4c0,0.4,0.1,0.5,0.5,0.5c2.2-0.1,4.4-0.2,6.7-0.5c2.3-0.1,4.6-0.4,6.7-0.5
				c0.5,0,0.8,0.1,1.2,0.4c0.4,0.2,0.5,0.7,0.5,1.6c0,0.6-0.1,1-0.4,1.3c-0.2,0.2-0.6,0.5-1,0.5c-1.1,0.1-2.2,0.2-3.4,0.5
				c-1.2,0.1-2.5,0.2-3.8,0.4c-1.3,0.1-2.6,0.2-4.1,0.4c-1.3,0.1-2.8,0.1-4,0.1c-1,0-1.7-0.1-2.3-0.6c-0.6-0.4-0.8-1.1-1-1.9
				c0-0.8-0.1-1.8-0.2-2.9c-0.1-1.1-0.1-2.3-0.2-3.6c-0.1-1.3-0.1-2.6-0.2-4c-0.1-1.4-0.1-2.8-0.2-4.1c0-1.3-0.1-2.5-0.1-3.7
				c0-1.1-0.1-2.2-0.1-3c0-0.4,0-0.6,0-0.8c0-0.2,0.1-0.5,0.2-0.6c0.1-0.1,0.4-0.4,0.7-0.4c0.4-0.1,0.7-0.1,1.2-0.2
				C126.4,22.3,127.2,22.4,127.4,22.5z M153.7,37.4c-0.5,0-1,0-1.4,0c-0.1,2.5-0.2,5-0.4,7.4c-0.1,2.4-0.2,4.8-0.4,7
				c0,0.8-0.2,1.4-0.7,1.7c-0.4,0.4-1,0.5-1.6,0.4c-0.6,0-1.1-0.2-1.4-0.7c-0.4-0.4-0.5-1.1-0.5-2c0-9.6,0.1-19.2,0.5-28.7
				c0-0.7,0.2-1.3,0.6-1.7c0.4-0.4,1-0.5,1.8-0.5c1.4,0,2.3,0.7,2.3,2.3c0,1.7,0,3.5-0.1,5.3c0,1.8-0.1,3.6-0.1,5.4c0.5,0,1,0,1.4,0
				s1,0,1.4,0c0.5,0,0.8,0,1.2,0c0.4,0,0.6,0,0.8,0c0.6,0,1.1,0.1,1.3,0.4s0.4,0.7,0.4,1.3c0,0.6-0.1,1.2-0.2,1.6
				c-0.1,0.4-0.6,0.6-1.1,0.6c-0.2,0-0.6,0-1,0.1c-0.4,0-0.8,0-1.3,0C154.8,37.4,154.2,37.4,153.7,37.4z"/>
			<path style="fill:#E22084;" d="M183.8,46.6c-1.8,0.1-3.6,0.2-5.4,0.4c0,1.4,0,2.9-0.1,4.3c0,1.4-0.1,2.8-0.1,4.1
				c0,0.8-0.4,1.4-0.7,1.7c-0.4,0.2-1,0.5-1.6,0.4c-0.6,0-1.1-0.2-1.4-0.5c-0.4-0.4-0.5-0.8-0.5-1.7c0-1.2-0.1-2.5-0.1-3.8
				c0-1.3,0-2.8,0-4.2c-1.8,0.1-3.5,0.1-5.3,0.2c-1.8,0-3.6,0.1-5.3,0.1c-1.1,0-1.7-0.7-1.7-2c0-0.6,0.1-1.1,0.4-1.4
				c0.2-0.4,0.7-0.5,1.3-0.5c4.6-0.2,9-0.4,13.3-0.6c4.3-0.2,8.5-0.4,12.5-0.5c0.6,0,1,0.1,1.2,0.5c0.2,0.4,0.4,0.7,0.4,1.3
				c0,0.7-0.1,1.2-0.5,1.4c-0.2,0.4-0.7,0.5-1.2,0.6C187.3,46.4,185.5,46.4,183.8,46.6z M163.3,21.2c0.4-0.1,0.7-0.1,1.2-0.2
				c1,0,1.6,0,1.9,0.4c0.4,0.2,0.5,0.7,0.6,1.4c0,1.1,0.1,2.2,0.1,3.2s0.1,2.3,0.1,3.4c0,1.1,0.1,2.2,0.1,3.1c0,1,0,1.8,0,2.5
				c0,0.4,0.1,0.5,0.5,0.5c0.7,0,1.6-0.1,2.6-0.1c1.1,0,2.2-0.1,3.5-0.1c1.2,0,2.5-0.1,3.8-0.1c1.3-0.1,2.6-0.1,3.8-0.1
				s2.4-0.1,3.5-0.1s1.9-0.1,2.6-0.1c0.5,0,0.8,0.1,1.2,0.4s0.5,0.7,0.5,1.6c0,0.6-0.1,1-0.4,1.3c-0.2,0.2-0.6,0.5-1,0.5
				c-0.7,0.1-1.6,0.2-2.8,0.4s-2.3,0.2-3.7,0.2c-1.3,0.1-2.8,0.2-4.2,0.2c-1.4,0-2.9,0.1-4.3,0.2s-2.8,0.1-4,0.1s-2.3,0.1-3.1,0.1
				c-1,0-1.7-0.2-2.3-0.7c-0.6-0.5-0.8-1.2-1-2c-0.1-2.2-0.4-4.2-0.5-6.4c-0.1-2.2-0.2-4.6-0.4-7.3c0-0.4,0-0.6,0-0.8
				c0-0.2,0.1-0.5,0.2-0.6C162.8,21.3,163,21.2,163.3,21.2z"/>
			<path style="fill:#E22084;" d="M203,44c-2.5,0-4.8,0.1-7,0.1c-1.1,0-1.7-0.6-1.7-1.8c0-0.6,0.1-1.1,0.4-1.4
				c0.2-0.4,0.7-0.5,1.3-0.5c2.3-0.1,4.7-0.1,7.2-0.2s5-0.1,7.6-0.2c2.5-0.1,4.9-0.1,7.3-0.2c2.4,0,4.6-0.1,6.5-0.1
				c0.6,0,1,0.1,1.2,0.5c0.2,0.4,0.4,0.7,0.4,1.3c0,0.7-0.1,1.1-0.5,1.4c-0.2,0.2-0.7,0.5-1.2,0.5c-2,0.1-4.3,0.2-6.6,0.4
				s-4.8,0.2-7.3,0.2S205.5,44,203,44z M197.6,20.7c0.4-0.1,0.7-0.1,1.2-0.2c1,0,1.6,0,1.9,0.4s0.5,0.7,0.6,1.4c0,0.7,0,1.6,0.1,2.5
				c0,1,0,1.9,0.1,2.9c0,1,0,1.8,0.1,2.6c0,0.8,0,1.4,0,1.8c0,0.4,0.1,0.5,0.5,0.5c0.7,0,1.6-0.1,2.6-0.1c1.1,0,2.2-0.1,3.5-0.1
				c1.2,0,2.5-0.1,3.8-0.1s2.6-0.1,3.8-0.1s2.4-0.1,3.5-0.1s1.9-0.1,2.6-0.1c0.5,0,0.8,0.1,1.2,0.2c0.4,0.2,0.5,0.7,0.5,1.4
				c0,0.6-0.1,1-0.4,1.3c-0.2,0.2-0.6,0.5-1,0.5c-0.7,0.1-1.6,0.1-2.8,0.2c-1.1,0.1-2.3,0.2-3.7,0.4c-1.3,0.1-2.8,0.2-4.2,0.2
				c-1.4,0.1-2.9,0.1-4.3,0.2s-2.8,0.1-4,0.1s-2.3,0.1-3.1,0.1c-1,0-1.7-0.2-2.3-0.7c-0.6-0.5-0.8-1.2-1-2c-0.1-1.7-0.2-3.5-0.4-5.3
				c0-1.8-0.1-3.8-0.2-6c0-0.4,0-0.6,0-0.8c0-0.2,0.1-0.5,0.2-0.6C197.1,20.8,197.4,20.7,197.6,20.7z M222.4,55.3
				c0,0.6-0.1,1.1-0.5,1.3c-0.4,0.2-0.7,0.5-1.1,0.5c-1.4,0.1-3,0.2-4.7,0.4s-3.5,0.1-5.2,0.2c-1.8,0-3.5,0.1-5.2,0.1
				s-3.1,0.1-4.4,0.1c-0.7,0-1.2-0.2-1.7-0.7c-0.4-0.5-0.6-1.1-0.7-1.8c-0.1-1.3-0.2-2.6-0.2-3.8c0-1.2-0.1-2.3-0.1-3
				c0-0.7,0.1-1.1,0.5-1.3c0.4-0.2,0.8-0.4,1.7-0.5c0.8,0,1.4,0,1.8,0.2s0.6,0.7,0.6,1.3c0,1,0,1.8,0,2.8c0,0.8,0,1.7,0,2.5
				c0,0.4,0.1,0.5,0.5,0.5c1.1,0,2.4-0.1,3.8-0.1c1.4,0,3-0.1,4.6-0.1s3.1-0.1,4.6-0.1c1.4,0,2.8-0.1,3.8-0.1c0.6,0,1,0.1,1.2,0.4
				C222.3,54.2,222.4,54.7,222.4,55.3z"/>
			<path style="fill:#E22084;" d="M256.3,21.8c0,2.2,0,4.3,0,6.8c1,0.5,2,1.1,3.4,1.7c1.3,0.6,2.5,1.2,3.8,1.8
				c1.3,0.6,2.5,1.2,3.7,1.8c1.2,0.6,2.2,1.1,2.9,1.4c0.4,0.2,0.6,0.5,0.7,1c0.1,0.5,0,1-0.4,1.6c-0.4,0.6-0.7,1-1.2,1.1
				c-0.5,0.1-1,0-1.4-0.2c-0.7-0.2-1.7-0.7-2.8-1.2c-1.2-0.5-2.4-1.1-3.7-1.7c-1.3-0.6-2.5-1.2-3.8-1.8c-1.2-0.6-2.3-1.1-3-1.4
				c-0.7,0.7-1.6,1.3-2.5,2c-1,0.7-1.9,1.4-2.9,2.2c-1,0.7-1.9,1.4-2.9,2c-1,0.6-1.8,1.2-2.5,1.6c-1.1,0.7-2,0.5-2.8-0.5
				c-0.4-0.5-0.5-0.8-0.6-1.2c0-0.4,0.1-0.7,0.6-1.1c0.8-0.6,1.7-1.3,2.6-2c1-0.7,1.9-1.4,2.9-2.3c1-0.7,1.9-1.6,2.9-2.3
				c1-0.7,1.8-1.6,2.5-2.2c0-1.1-0.1-2.3-0.1-3.5c0-1.2-0.1-2.3-0.1-3.2c0-0.7,0.1-1.2,0.5-1.6c0.4-0.4,1-0.6,1.8-0.6
				c1.1,0,1.7,0,2,0.4C256.3,20.6,256.3,21.1,256.3,21.8z M268.9,46.3c-3.6,0.4-7.3,0.6-11.2,0.7c0,1.4,0,2.9,0,4.3
				c0,1.4-0.1,2.8-0.1,4c0,0.8-0.4,1.4-0.7,1.7c-0.4,0.2-1,0.5-1.6,0.4c-0.6,0-1.1-0.2-1.4-0.5c-0.4-0.4-0.5-0.8-0.5-1.7
				c0-1.2-0.1-2.4-0.1-3.8s0-2.8,0-4.2c-1.7,0.1-3.4,0.1-5,0.2s-3.4,0.1-5,0.1c-1.1,0-1.7-0.7-1.7-2c0-0.6,0.1-1.1,0.4-1.4
				c0.2-0.4,0.7-0.5,1.3-0.5c4.6-0.2,9-0.4,13.3-0.6c4.3-0.2,8.5-0.4,12.5-0.5c0.6,0,1,0.1,1.2,0.5c0.2,0.4,0.4,0.7,0.4,1.3
				c0,0.7-0.1,1.2-0.5,1.4C269.7,45.8,269.5,46,268.9,46.3z"/>
		</g>
	</g>
</g>
</svg>
