
<svg xmlns="http://www.w3.org/2000/svg" version="1.1" xmlns:xlink="http://www.w3.org/1999/xlink" preserveAspectRatio="none" x="0px" y="0px" width="1280px" height="720px" viewBox="0 0 1280 720">
<defs>
<path id="vsdvsb_0_Layer6_0_1_STROKES" stroke="#BBDECB" stroke-width="5" stroke-linejoin="round" stroke-linecap="butt" fill="none" d="
M 107.05 296.1
L 557.15 296.1
Q 572.15 296.1 572.15 311.1
L 572.15 528.15
Q 572.15 543.15 557.15 543.15
L 107.05 543.15
Q 92.05 543.15 92.05 528.15
L 92.05 311.1
Q 92.05 296.1 107.05 296.1 Z"/>

<path id="vsdvsb_2_Layer6_0_1_STROKES" stroke="#BBDECB" stroke-width="5" stroke-linejoin="round" stroke-linecap="butt" fill="none" d="
M 107.05 296.1
L 557.15 296.1
Q 572.15 296.1 572.15 311.1
L 572.15 528.15
Q 572.15 543.15 557.15 543.15
L 107.05 543.15
Q 92.05 543.15 92.05 528.15
L 92.05 311.1
Q 92.05 296.1 107.05 296.1 Z"/>
</defs>

<g transform="matrix( 1, 0, 0, 1, 382.1,439.6) ">
<g transform="matrix( 1, 0, 0, 1, -332.1,-419.6) ">
<use xlink:href="#vsdvsb_0_Layer6_0_1_STROKES"/>
</g>
</g>

<g transform="matrix( 1, 0, 0, 1, 912.1,439.6) ">
<g transform="matrix( 1, 0, 0, 1, -332.1,-419.6) ">
<use xlink:href="#vsdvsb_2_Layer6_0_1_STROKES"/>
</g>
</g>
</svg>
