
<svg xmlns="http://www.w3.org/2000/svg" version="1.1" xmlns:xlink="http://www.w3.org/1999/xlink" preserveAspectRatio="none" x="0px" y="0px" width="1200px" height="220px" viewBox="0 0 1200 220">
<defs>
<g id="Layer0_0_FILL">
<path fill="#FFFFFF" stroke="none" d="
M 919.7 27.15
Q 919.7 12.15 904.7 12.15
L 724.7 12.15
Q 709.7 12.15 709.7 27.15
L 709.7 57.2
Q 709.7 60.85 710.45 63.15 713.2 72.2 724.7 72.2
L 904.7 72.2
Q 916.4 72.2 918.95 63.15 919.7 60.45 919.7 57.2
L 919.7 27.15
M 78.8 126.15
Q 78.75 126.45 78.75 126.85
L 78.75 130.65
Q 78.75 131.45 78.9 131.9 78.95 132.15 79.1 132.3 79.2 132.45 79.45 132.55 79.6 132.7 79.8 132.75 80.05 132.8 80.3 132.85 80.55 132.85 80.85 132.85 81.2 132.9 81.6 132.9 82.45 132.85 83.25 132.8 84.05 132.75 84.85 132.65 85.65 132.6 86.45 132.5 87.25 132.4 88.05 132.25 88.7 132.2 88.95 131.85 89.05 131.65 89.05 131.4 89.05 131.15 88.95 130.8 88.9 130.6 88.85 130.45 88.85 130.3 88.8 130.2 88.7 130.1 88.7 130.05 88.6 129.95 88.6 129.9 88.5 129.9 88.4 129.85 88.35 129.85 88.2 129.85 88.1 129.85 87.95 129.85 87.85 129.85 87.75 129.85 87 130 86.25 130.05 85.5 130.15 84.7 130.2 83.9 130.3 83.1 130.3 82.35 130.35 81.6 130.35 81.6 130.22265625 81.6 129.9
L 81.6 127 86.75 127
Q 87.05 127 87.25 126.95 87.45 126.9 87.55 126.75 87.65 126.6 87.7 126.35 87.75 126.1 87.75 125.8 87.75 125.4 87.7 125.1 87.65 124.85 87.55 124.75 87.45 124.65 87.25 124.6 87.05 124.55 86.75 124.55
L 81.6 124.55
Q 81.2 124.55 80.85 124.55 80.55 124.55 80.3 124.6 80.05 124.6 79.8 124.7 79.6 124.75 79.45 124.85 79.2 125 79.1 125.2 78.95 125.35 78.9 125.6 78.85 125.85 78.8 126.15
M 91.85 134.15
Q 91.55 134.05 91.15 134.05
L 88.6 134.05
Q 88.3 134.05 88.1 134.1 87.9 134.2 87.8 134.35 87.7 134.55 87.65 134.8 87.6 135 87.6 135.25 87.6 135.55 87.65 135.75 87.7 135.95 87.8 136.1 87.9 136.3 88.1 136.4 88.3 136.45 88.6 136.45
L 90.2 136.45 90.2 142
Q 90.2 142.5 90.65 142.75 90.85 142.9 91.05 142.95 91.3 143.05 91.5 143.05 91.75 143.05 92 142.95 92.25 142.9 92.45 142.75 92.6 142.6 92.75 142.45 92.85 142.25 92.85 142
L 92.85 135.8
Q 92.85 135.4 92.75 135.1 92.6 134.75 92.4 134.5 92.2 134.3 91.85 134.15
M 92 123.7
Q 91.75 123.65 91.5 123.65 91.35 123.65 91.2 123.65 91.1 123.7 90.95 123.7 90.85 123.75 90.7 123.75 90.6 123.8 90.5 123.85 90.4 123.9 90.3 124 90.25 124.05 90.2 124.15 90.1 124.25 90.1 124.4 90.05 124.5 90.05 124.65
L 90.05 132.25
Q 90.05 132.4 90.1 132.5 90.1 132.6 90.2 132.7 90.25 132.8 90.3 132.9 90.4 133 90.5 133.05 90.6 133.1 90.7 133.15 90.85 133.2 90.95 133.2 91.1 133.2 91.2 133.25 91.35 133.25 91.5 133.25 91.75 133.25 92 133.2 92.25 133.15 92.45 133.05 92.65 132.95 92.75 132.75 92.85 132.55 92.85 132.25
L 92.85 129.8 94.75 129.8
Q 95.4 129.8 95.55 129.4 95.6 129.2 95.65 129 95.65 128.8 95.65 128.55 95.65 128.05 95.55 127.65 95.45 127.5 95.25 127.4 95.05 127.3 94.75 127.3
L 92.85 127.3 92.85 124.65
Q 92.85 124.05 92.45 123.85 92.25 123.75 92 123.7
M 80.55 135.25
Q 80.55 135.55 80.6 135.7 80.7 135.9 80.8 136.05 80.9 136.2 81.1 136.3 81.3 136.35 81.6 136.35
L 84.3 136.35 84.3 137.35 82.55 137.35
Q 81.7 137.35 81.15 137.65 80.85 137.85 80.75 138.1 80.6 138.4 80.6 138.8
L 80.6 141.8
Q 80.6 142.2 80.75 142.5 80.8 142.6 80.9 142.7 81.05 142.8 81.2 142.85 81.3 142.9 81.5 142.95 81.65 143 81.85 143 82 143 82.2 143.05 82.35 143.05 82.55 143.05 82.9 143 83.2 143 83.45 143 83.7 143 83.95 143 84.15 142.95 84.4 142.95 84.6 142.95 84.85 142.9 85.05 142.9 85.3 142.85 85.55 142.85 85.95 142.8 86.45 142.75
L 86.35 142.75
Q 86.6 142.7 86.85 142.6 87.05 142.5 87.15 142.35 87.25 142.15 87.3 141.95 87.35 141.7 87.3 141.45 87.25 141.2 87.15 141.05 87.05 140.85 86.9 140.7 86.75 140.55 86.55 140.5 86.35 140.45 86.05 140.45 85.6 140.55 85.2 140.6 84.8 140.65 84.45 140.65 84.05 140.7 83.65 140.75 83.25 140.75 82.8 140.75
L 82.8 139.65 84.7 139.65
Q 85.1 139.65 85.4 139.55 85.75 139.45 86.05 139.25 86.35 139.05 86.55 138.75 86.7 138.45 86.7 138
L 86.7 135.6
Q 86.7 135.2 86.55 134.9 86.35 134.6 86.05 134.4 85.75 134.2 85.4 134.15 85.1 134.05 84.7 134.05
L 81.6 134.05
Q 81.3 134.05 81.1 134.1 80.9 134.2 80.8 134.35 80.7 134.55 80.6 134.8 80.55 135 80.55 135.25
M 66.75 125.6
Q 66.6 125.55 66.3 125.5 66.05 125.45 65.75 125.45
L 63.8 125.45
Q 63.5 125.45 63.3 125.55 63.1 125.65 63 125.85 62.8 126 62.75 126.25 62.7 126.45 62.7 126.75 62.7 127 62.75 127.2 62.8 127.4 63 127.6 63.1 127.8 63.3 127.85 63.5 127.95 63.8 127.95
L 64.85 127.95
Q 64.8 128.55 64.75 129.1 64.7 129.7 64.6 130.25 64.55 130.8 64.4 131.35 64.3 131.9 64.15 132.4 64.05 132.95 63.85 133.45 63.7 133.95 63.5 134.4 63.25 134.85 63 135.3 62.7 135.7 62.4 136.1 62.25 136.35 62.2 136.55 62.15 136.8 62.25 137 62.35 137.25 62.45 137.4 62.6 137.6 62.75 137.7 63 137.85 63.2 137.9 63.45 138 63.65 138 63.9 138.05 64.05 138 64.25 137.9 64.35 137.75 64.8 137.25 65.15 136.7 65.55 136.2 65.85 135.6 66.2 135 66.4 134.4 66.65 133.8 66.8 133.15 67.05 132.45 67.2 131.8 67.35 131.1 67.45 130.4 67.55 129.7 67.6 128.95 67.65 128.25 67.65 127.5 67.65 127.3 67.65 127.1 67.6 126.85 67.6 126.7 67.6 126.5 67.55 126.35 67.5 126.2 67.4 126.05 67.25 125.9 67.1 125.8 66.95 125.7 66.75 125.6
M 71.95 124.25
Q 71.8 124.05 71.6 123.95 71.15 123.75 70.75 123.75 70.45 123.75 70.2 123.8 70 123.85 69.8 123.95 69.6 124.05 69.5 124.25 69.4 124.45 69.4 124.75
L 69.4 142.5
Q 69.4 142.8 69.5 142.95 69.6 143.2 69.8 143.25 70 143.35 70.2 143.4 70.45 143.45 70.75 143.45 71.15 143.45 71.6 143.25 71.8 143.2 71.95 142.95 72.05 142.8 72.05 142.5
L 72.05 133.3 73.8 133.3
Q 74.15 133.3 74.35 133.2 74.6 133.1 74.7 132.9 74.8 132.7 74.85 132.45 74.95 132.25 74.95 132 74.95 131.75 74.85 131.55 74.8 131.3 74.7 131.1 74.6 130.95 74.35 130.85 74.15 130.75 73.8 130.75
L 72.05 130.75 72.05 124.75
Q 72.05 124.45 71.95 124.25
M 58.15 125.45
Q 57.9 125.45 57.7 125.55 57.55 125.65 57.4 125.85 57.3 126 57.2 126.25 57.15 126.45 57.15 126.7 57.15 126.95 57.2 127.15 57.3 127.4 57.4 127.55 57.55 127.75 57.7 127.85 57.9 127.95 58.15 127.95
L 59.7 127.95
Q 59.65 128.45 59.6 128.9 59.55 129.4 59.45 129.85 59.4 130.35 59.3 130.8 59.2 131.25 59.05 131.65 58.95 132.1 58.8 132.5 58.65 132.9 58.5 133.3 58.3 133.65 58.05 134 57.8 134.3 57.5 134.6 57.3 134.8 57.25 135 57.15 135.2 57.15 135.45 57.15 135.65 57.25 135.85 57.35 136.05 57.5 136.2
L 57.45 136.2
Q 57.65 136.4 57.9 136.55 58.1 136.65 58.3 136.65 58.55 136.7 58.7 136.65 58.85 136.6 58.95 136.55 59.45 136.2 59.8 135.8 60.2 135.35 60.55 134.8 60.9 134.25 61.15 133.65 61.4 133.05 61.55 132.4 61.75 131.8 61.9 131.15 62.05 130.5 62.15 129.85 62.25 129.2 62.3 128.65 62.35 128.05 62.35 127.5 62.35 127.3 62.3 127.05 62.3 126.85 62.3 126.65 62.25 126.3 62.05 126.05 61.9 125.9 61.75 125.8 61.55 125.7 61.4 125.6 61.2 125.55 60.95 125.5 60.65 125.45 60.35 125.45
L 58.15 125.45 Z"/>

<path fill="#1E1E1E" stroke="none" d="
M 690 25.55
Q 690 25.05 689.45 25.05
L 686.2 25.05
Q 685.65 25.05 685.65 25.55
L 685.65 33.45 681.35 33.45
Q 681.45 32.7 681.5 31.9 681.6 31.1 681.6 30.3 681.65 28.7 681.05 28.05 680.4 27.4 678.65 27.4
L 667.05 27.4
Q 666.85 27.4 666.65 27.55 666.45 27.7 666.45 27.9
L 666.45 30.65
Q 666.45 31.15 667.05 31.15
L 675.9 31.15
Q 676.7 31.15 676.9 31.45 677.1 31.75 677.05 32.6 677 34.6 676.15 36.9 675.3 39.25 673.75 41.55 672.25 43.85 670.05 46 667.85 48.15 665.15 49.8 664.95 49.95 664.8 50.25 664.65 50.55 664.9 50.9
L 666.5 53.15
Q 666.7 53.4 667.05 53.35 667.35 53.3 667.7 53.15 672.4 50.1 675.7 46.05 679 41.95 680.55 37.1
L 685.65 37.1 685.65 42.4 679.9 42.4
Q 679.7 42.4 679.55 42.55 679.35 42.7 679.35 42.9
L 679.35 45.5
Q 679.35 45.75 679.55 45.9 679.7 46.05 679.9 46.05
L 685.65 46.05 685.65 60.45
Q 685.65 61.05 686.2 61.05
L 689.45 61.05
Q 690 61.05 690 60.45
L 690 25.55
M 697.65 24.9
Q 697.65 24.35 697.1 24.35
L 693.65 24.35
Q 693.1 24.35 693.1 24.9
L 693.1 61.9
Q 693.1 62.4 693.65 62.4
L 697.1 62.4
Q 697.65 62.4 697.65 61.9
L 697.65 24.9
M 658.35 24.9
Q 658.35 24.35 657.8 24.35
L 654.3 24.35
Q 654.05 24.35 653.9 24.5 653.7 24.65 653.7 24.9
L 653.7 61.8
Q 653.7 62.05 653.9 62.15 654.05 62.35 654.3 62.35
L 657.8 62.35
Q 658.35 62.35 658.35 61.8
L 658.35 24.9
M 640.6 35.5
Q 640.95 33.6 641.15 31.55 641.3 29.45 641.3 27.05 641.3 26.8 641.15 26.65 641 26.45 640.8 26.45
L 637.25 26.3
Q 637.05 26.3 636.85 26.5 636.7 26.7 636.7 26.9 636.7 28.7 636.65 30.25 636.55 31.85 636.35 33.3 636.1 34.75 635.8 36.2 635.45 37.6 634.95 39.05 633.85 42.35 631.95 45.2 630.1 48.1 627.55 50.45 626.8 51.1 627.45 51.7
L 629.3 53.45
Q 629.95 54.1 630.65 53.5 631.75 52.6 632.85 51.35 634 50.15 635.05 48.7 636.1 47.3 637.05 45.7 637.95 44.1 638.65 42.4 639.2 43.7 640.05 45.05 640.9 46.45 641.9 47.75 642.9 49.1 644 50.2 645.1 51.3 646.05 52.05 646.4 52.35 646.8 52.35 647.1 52.3 647.3 52
L 649 49.95
Q 649.55 49.2 648.9 48.7 647.65 47.7 646.3 46.2 645 44.7 643.85 42.95 642.7 41.25 641.85 39.3 641 37.4 640.6 35.5
M 586.45 49.15
Q 586.3 49.15 586.1 49.3 585.9 49.5 585.9 49.65
L 585.9 58.7
Q 585.9 60.3 586.55 60.9 587.15 61.55 589 61.55
L 609.8 61.55
Q 610 61.55 610.15 61.45 610.35 61.3 610.35 61.1
L 610.35 58.2
Q 610.35 58 610.15 57.85 610 57.7 609.8 57.7
L 591.3 57.7
Q 590.9 57.7 590.75 57.6 590.55 57.5 590.55 57.05
L 590.55 49.65
Q 590.55 49.5 590.4 49.3 590.2 49.15 589.95 49.15
L 586.45 49.15
M 581.5 26.5
Q 581.3 26.7 581.3 26.9
L 581.3 42
Q 581.3 43.35 581.9 44.1 582.45 44.8 584.2 44.9 585.95 44.95 588.25 44.95 590.6 44.95 593.05 44.8 595.5 44.65 597.8 44.35 600.15 44.1 601.95 43.6 602.15 43.55 602.3 43.4 602.45 43.3 602.4 43.05
L 602 40.4
Q 601.95 40.2 601.75 40.1 601.5 40 601.3 40.05 599.4 40.45 597.4 40.65 595.35 40.9 593.4 41 591.45 41.1 589.7 41.1 587.95 41.1 586.65 41 586.25 40.95 586.05 40.85 585.9 40.75 585.9 40.35
L 585.9 26.9
Q 585.9 26.7 585.75 26.5 585.55 26.3 585.3 26.3
L 581.85 26.3
Q 581.65 26.3 581.5 26.5
M 609.15 24.9
Q 609.15 24.65 608.95 24.5 608.8 24.35 608.6 24.35
L 605.05 24.35
Q 604.5 24.35 604.5 24.9
L 604.5 50.55
Q 604.5 51.1 605.05 51.1
L 608.6 51.1
Q 608.8 51.1 608.95 50.95 609.15 50.8 609.15 50.6
L 609.15 24.9
M 544.15 30.35
Q 542.9 32.05 542.25 34.5 541.55 36.9 541.55 39.95 541.55 42.85 542.25 45.25 542.9 47.65 544.15 49.35 545.45 51.1 547.25 52 549.1 52.95 551.4 52.95 553.7 52.95 555.55 52.05 557.35 51.1 558.65 49.4 559.9 47.7 560.6 45.25 561.25 42.85 561.25 39.85 561.25 36.85 560.6 34.4 559.9 32 558.65 30.3 557.35 28.6 555.55 27.7 553.7 26.75 551.4 26.75 549.1 26.75 547.25 27.7 545.45 28.65 544.15 30.35
M 546.45 43.3
Q 546.1 41.65 546.1 39.85 546.1 38 546.45 36.35 546.8 34.7 547.5 33.5 548.2 32.3 549.15 31.55 550.15 30.85 551.4 30.85 552.65 30.85 553.7 31.55 554.65 32.3 555.35 33.5 556.05 34.7 556.4 36.35 556.75 38 556.75 39.85 556.75 41.65 556.4 43.3 556.05 44.95 555.35 46.15 554.65 47.4 553.7 48.15 552.65 48.85 551.4 48.85 550.15 48.85 549.15 48.15 548.2 47.4 547.5 46.15 546.8 44.95 546.45 43.3
M 570.1 24.5
Q 569.9 24.35 569.7 24.35
L 566.2 24.35
Q 565.65 24.35 565.65 24.9
L 565.65 61.8
Q 565.65 62.35 566.2 62.35
L 569.7 62.35
Q 569.9 62.35 570.1 62.15 570.3 62.05 570.3 61.8
L 570.3 42.85 575.65 42.85
Q 575.85 42.85 576.05 42.7 576.25 42.5 576.25 42.3
L 576.25 39.5
Q 576.25 39.3 576.05 39.15 575.85 39 575.65 39
L 570.3 39 570.3 24.9
Q 570.3 24.65 570.1 24.5
M 503.35 26.75
Q 501.05 26.75 499.25 27.7 497.4 28.65 496.15 30.35 494.9 32.05 494.2 34.5 493.5 36.9 493.5 39.95 493.5 42.85 494.2 45.3 494.9 47.7 496.15 49.45 497.4 51.2 499.25 52.15 501.05 53.15 503.35 53.15 505.7 53.15 507.5 52.15 509.3 51.25 510.6 49.5 511.85 47.8 512.5 45.35 513.2 42.9 513.2 39.95 513.2 36.9 512.5 34.5 511.85 32.05 510.6 30.35 509.3 28.65 507.5 27.7 505.7 26.75 503.35 26.75
M 499.45 33.5
Q 500.1 32.3 501.1 31.55 502.05 30.85 503.35 30.85 504.6 30.85 505.6 31.55 506.6 32.3 507.3 33.5 507.95 34.75 508.3 36.45 508.65 38.1 508.65 39.95 508.65 41.7 508.3 43.4 507.95 45.05 507.3 46.3 506.6 47.55 505.6 48.3 504.6 49.05 503.35 49.05 502.05 49.05 501.1 48.3 500.1 47.55 499.45 46.3 498.75 45.05 498.4 43.4 498 41.7 498 39.95 498 38.1 498.4 36.45 498.75 34.75 499.45 33.5
M 522.6 24.35
L 519.05 24.35
Q 518.5 24.35 518.5 24.9
L 518.5 61.8
Q 518.5 62.35 519.05 62.35
L 522.6 62.35
Q 523.1 62.35 523.1 61.8
L 523.1 24.9
Q 523.1 24.35 522.6 24.35
M 472.3 47.05
Q 469.5 47.05 467.35 47.65 465.15 48.2 463.6 49.2 462.05 50.2 461.25 51.6 460.4 53 460.4 54.65 460.4 56.4 461.25 57.8 462.05 59.2 463.6 60.2 465.15 61.2 467.35 61.75 469.5 62.35 472.3 62.35 474.85 62.35 477 61.75 479.25 61.2 480.85 60.2 482.45 59.2 483.35 57.8 484.25 56.35 484.25 54.65 484.25 52.95 483.35 51.55 482.45 50.15 480.85 49.15 479.25 48.15 477 47.6 474.85 47.05 472.3 47.05
M 478.9 53.05
Q 479.45 53.8 479.45 54.8 479.45 55.75 478.9 56.5 478.3 57.2 477.35 57.7 476.35 58.15 475.05 58.4 473.75 58.7 472.3 58.7 470.7 58.7 469.4 58.4 468.1 58.15 467.15 57.7 466.2 57.2 465.7 56.5 465.15 55.75 465.15 54.8 465.15 52.8 467.1 51.75 469.05 50.75 472.3 50.75 473.75 50.75 475.05 51 476.35 51.25 477.35 51.75 478.3 52.3 478.9 53.05
M 458.1 28.4
Q 456.85 29.65 456.1 31.35 455.4 33.05 455.4 34.95 455.4 36.95 456.1 38.65 456.85 40.35 458.1 41.6 459.35 42.8 461.1 43.5 462.85 44.15 465.05 44.15 467.2 44.15 469 43.5 470.8 42.8 472.1 41.6 473.4 40.35 474.1 38.65 474.85 36.95 474.85 34.95 474.85 33.05 474.1 31.35 473.4 29.65 472.1 28.4 470.8 27.1 469 26.4 467.2 25.7 465.05 25.7 462.85 25.7 461.1 26.4 459.35 27.1 458.1 28.4
M 459.85 35.05
Q 459.85 32.65 461.3 31.2 462.75 29.8 465.05 29.8 467.4 29.8 468.85 31.2 470.25 32.65 470.25 35.05 470.25 37.45 468.85 38.85 467.4 40.3 465.05 40.3 462.75 40.3 461.3 38.85 459.85 37.45 459.85 35.05
M 489.25 34.3
Q 489.45 34.3 489.65 34.15 489.85 33.95 489.85 33.75
L 489.85 30.95
Q 489.85 30.75 489.65 30.65 489.45 30.45 489.25 30.45
L 483.85 30.45 483.85 24.9
Q 483.85 24.35 483.3 24.35
L 479.75 24.35
Q 479.25 24.35 479.25 24.9
L 479.25 45.9
Q 479.25 46.15 479.4 46.35 479.55 46.55 479.75 46.55
L 483.3 46.55
Q 483.5 46.55 483.65 46.35 483.85 46.15 483.85 45.95
L 483.85 42.1 489.25 42.1
Q 489.45 42.1 489.65 41.95 489.85 41.8 489.85 41.6
L 489.85 38.8
Q 489.85 38.6 489.65 38.45 489.45 38.3 489.25 38.3
L 483.85 38.3 483.85 34.3 489.25 34.3
M 446.3 41.65
L 446.3 29.7
Q 446.3 28.15 445.7 27.5 445.05 26.9 443.25 26.9
L 423.85 26.9
Q 422.3 26.9 421.65 27.55 421 28.15 421 29.65
L 421 41.6
Q 421 43.15 421.6 43.75 422.25 44.4 424.05 44.4
L 431.45 44.4 431.45 52 416.3 52
Q 415.7 52 415.7 52.65
L 415.7 55.25
Q 415.7 55.45 415.85 55.65 416 55.85 416.3 55.85
L 451.1 55.85
Q 451.3 55.85 451.5 55.65 451.7 55.45 451.7 55.25
L 451.7 52.65
Q 451.7 52.4 451.5 52.2 451.3 52 451.1 52
L 436 52 436 44.4 443.45 44.4
Q 445 44.4 445.65 43.75 446.3 43.15 446.3 41.65
M 441.6 30.85
Q 441.7 30.95 441.7 31.25
L 441.7 40.05
Q 441.7 40.45 441.6 40.5 441.5 40.6 441.2 40.6
L 426.15 40.6
Q 425.85 40.6 425.75 40.5 425.65 40.45 425.65 40.05
L 425.65 31.25
Q 425.65 30.9 425.75 30.85 425.85 30.75 426.15 30.75
L 441.2 30.75
Q 441.5 30.75 441.6 30.85
M 392 49.4
Q 389.8 48.95 387.2 48.95 384.45 48.95 382.25 49.4 380.1 49.9 378.5 50.75 376.95 51.65 376.1 52.85 375.25 54.05 375.25 55.5 375.25 57 376.1 58.25 376.95 59.5 378.5 60.35 380.1 61.25 382.25 61.7 384.45 62.2 387.2 62.2 389.8 62.2 392 61.7 394.25 61.25 395.85 60.35 397.5 59.5 398.4 58.25 399.3 57 399.3 55.5 399.3 54.05 398.4 52.85 397.5 51.65 395.85 50.75 394.25 49.9 392 49.4
M 394.55 55.65
Q 394.55 56.45 393.95 57 393.35 57.55 392.35 57.95 391.35 58.35 390.05 58.55 388.7 58.7 387.2 58.7 385.65 58.7 384.35 58.55 383.05 58.35 382.05 57.95 381.05 57.55 380.55 57 380 56.45 380 55.65 380 54.85 380.55 54.2 381.05 53.6 382.05 53.2 383 52.75 384.3 52.55 385.6 52.35 387.2 52.35 388.7 52.35 390.05 52.55 391.35 52.75 392.35 53.2 393.35 53.6 393.95 54.2 394.55 54.85 394.55 55.65
M 368.95 29.85
Q 368.75 29.85 368.5 30.05 368.3 30.3 368.3 30.45
L 368.3 32.7
Q 368.3 32.95 368.5 33.15 368.7 33.35 368.9 33.35
L 389.8 33.35
Q 390.05 33.35 390.2 33.2 390.4 33 390.4 32.75
L 390.4 30.45
Q 390.4 30.25 390.2 30.05 390.05 29.85 389.8 29.85
L 368.95 29.85
M 382.95 35.15
Q 381.35 34.65 379.55 34.65 377.75 34.65 376.2 35.1 374.65 35.55 373.5 36.35 372.35 37.2 371.7 38.35 371.05 39.5 371.05 41 371.05 42.5 371.7 43.75 372.35 45 373.5 45.9 374.65 46.8 376.15 47.3 377.7 47.8 379.5 47.8 381.35 47.8 382.9 47.35 384.45 46.85 385.6 46 386.8 45.1 387.45 43.9 388.1 42.7 388.1 41.2 388.1 39.7 387.45 38.5 386.8 37.35 385.65 36.45 384.5 35.6 382.95 35.15
M 382.6 39
Q 383.75 39.8 383.75 41.2 383.75 42.6 382.6 43.5 381.45 44.35 379.55 44.35 377.65 44.35 376.5 43.5 375.35 42.6 375.35 41.2 375.35 39.8 376.5 39 377.65 38.2 379.55 38.2 381.45 38.2 382.6 39
M 384.6 24.7
L 374.4 24.7
Q 374.25 24.7 374 24.9 373.8 25.05 373.8 25.3
L 373.8 27.6
Q 373.8 27.9 374 28.05 374.25 28.25 374.4 28.25
L 384.6 28.25
Q 384.9 28.25 385.1 28 385.25 27.8 385.25 27.55
L 385.25 25.35
Q 385.25 25.1 385.1 24.95 384.85 24.7 384.6 24.7
M 399 24.5
Q 398.85 24.3 398.65 24.3
L 395.1 24.3
Q 394.55 24.3 394.55 24.85
L 394.55 35.1 389.8 35.1
Q 389.65 35.1 389.45 35.2 389.3 35.35 389.3 35.55
L 389.3 38.3
Q 389.3 38.5 389.45 38.6 389.65 38.75 389.8 38.75
L 394.55 38.75 394.55 41.45 389.8 41.45
Q 389.65 41.45 389.45 41.6 389.3 41.7 389.3 41.9
L 389.3 44.65
Q 389.3 44.85 389.45 45 389.65 45.1 389.8 45.1
L 394.55 45.1 394.55 47.9
Q 394.55 48.15 394.7 48.3 394.85 48.5 395.1 48.5
L 398.65 48.5
Q 398.85 48.5 399 48.3 399.2 48.15 399.2 47.9
L 399.2 24.85
Q 399.2 24.65 399 24.5
M 336.4 48.1
Q 336.2 48.1 336 48.2 335.85 48.3 335.85 48.6
L 335.85 51.45
Q 335.85 51.65 336 51.8 336.2 51.9 336.4 51.9
L 354.45 51.9
Q 354.9 51.9 355.05 52.05 355.2 52.15 355.2 52.6
L 355.2 61.7
Q 355.2 61.9 355.4 62.05 355.6 62.25 355.85 62.25
L 359.25 62.25
Q 359.45 62.25 359.65 62.05 359.85 61.9 359.85 61.7
L 359.85 50.9
Q 359.85 49.35 359.25 48.7 358.65 48.1 357.15 48.1
L 336.4 48.1
M 343.35 29.95
Q 344.1 29.95 344.1 30.2 344.1 30.45 343.9 31.1 342.8 34.75 339.45 37.75 336.05 40.75 331.15 42.9 330.7 43.1 330.65 43.4 330.6 43.7 330.75 44.05
L 331.8 46.1
Q 332.1 46.9 333.05 46.5 339.4 43.85 343.35 40 347.35 36.1 348.85 30.6 348.9 30.45 349 30.2 349.05 29.95 349.1 29.65 349.15 29.3 349.2 29.05 349.25 28.7 349.25 28.55 349.25 27.3 348.55 26.7 347.85 26.15 346.05 26.15
L 332.5 26.15
Q 331.95 26.15 331.95 26.7
L 331.95 29.35
Q 331.95 29.6 332.1 29.8 332.2 29.95 332.5 29.95
L 343.35 29.95
M 365.85 37.3
L 365.85 34.5
Q 365.85 34.3 365.7 34.15 365.5 33.95 365.25 33.95
L 359.9 33.95 359.9 24.9
Q 359.9 24.35 359.3 24.35
L 355.8 24.35
Q 355.6 24.35 355.4 24.5 355.25 24.65 355.25 24.9
L 355.25 45.5
Q 355.25 45.75 355.4 45.9 355.6 46.1 355.8 46.1
L 359.3 46.1
Q 359.9 46.1 359.9 45.55
L 359.9 37.8 365.25 37.8
Q 365.5 37.8 365.7 37.65 365.85 37.5 365.85 37.3
M 303.1 47.55
Q 301.4 47.65 300.15 47.5 299.4 47.45 299.15 47.25 298.95 47.05 298.95 46.45
L 298.95 31.9
Q 298.95 31.2 299.65 31.2
L 311.55 31.2
Q 312.1 31.2 312.1 30.7
L 312.1 27.9
Q 312.1 27.35 311.55 27.35
L 297 27.35
Q 295.5 27.35 294.95 27.9 294.35 28.5 294.35 29.9
L 294.35 48.85
Q 294.35 50.3 295.05 50.85 295.75 51.45 297.25 51.55 298.9 51.65 301.3 51.55 303.7 51.5 306.25 51.25 308.8 51.05 311.15 50.7 313.55 50.3 315.15 49.85 315.35 49.75 315.55 49.6 315.7 49.5 315.65 49.05
L 315.2 46.7
Q 315.05 46.1 314.45 46.25 312.65 46.55 310.7 46.85 308.65 47.1 306.75 47.3 304.85 47.5 303.1 47.55
M 328.25 42.3
L 328.25 39.5
Q 328.25 39.3 328.05 39.15 327.85 39 327.65 39
L 322.25 39 322.25 24.9
Q 322.25 24.35 321.7 24.35
L 318.15 24.35
Q 317.65 24.35 317.65 24.9
L 317.65 61.8
Q 317.65 62.35 318.15 62.35
L 321.7 62.35
Q 322.25 62.35 322.25 61.8
L 322.25 42.85 327.65 42.85
Q 327.85 42.85 328.05 42.7 328.25 42.5 328.25 42.3 Z"/>

<path fill="#7A94C2" stroke="none" d="
M 42.85 124.4
L 42.85 143.45
Q 42.85 153.45 52.85 153.45
L 97.9 153.45
Q 107.9 153.45 107.9 143.45
L 107.9 124.4
Q 107.9 114.4 97.9 114.4
L 52.85 114.4
Q 42.85 114.4 42.85 124.4
M 57.7 125.55
Q 57.9 125.45 58.15 125.45
L 60.35 125.45
Q 60.65 125.45 60.95 125.5 61.2 125.55 61.4 125.6 61.55 125.7 61.75 125.8 61.9 125.9 62.05 126.05 62.25 126.3 62.3 126.65 62.3 126.85 62.3 127.05 62.35 127.3 62.35 127.5 62.35 128.05 62.3 128.65 62.25 129.2 62.15 129.85 62.05 130.5 61.9 131.15 61.75 131.8 61.55 132.4 61.4 133.05 61.15 133.65 60.9 134.25 60.55 134.8 60.2 135.35 59.8 135.8 59.45 136.2 58.95 136.55 58.85 136.6 58.7 136.65 58.55 136.7 58.3 136.65 58.1 136.65 57.9 136.55 57.65 136.4 57.45 136.2
L 57.5 136.2
Q 57.35 136.05 57.25 135.85 57.15 135.65 57.15 135.45 57.15 135.2 57.25 135 57.3 134.8 57.5 134.6 57.8 134.3 58.05 134 58.3 133.65 58.5 133.3 58.65 132.9 58.8 132.5 58.95 132.1 59.05 131.65 59.2 131.25 59.3 130.8 59.4 130.35 59.45 129.85 59.55 129.4 59.6 128.9 59.65 128.45 59.7 127.95
L 58.15 127.95
Q 57.9 127.95 57.7 127.85 57.55 127.75 57.4 127.55 57.3 127.4 57.2 127.15 57.15 126.95 57.15 126.7 57.15 126.45 57.2 126.25 57.3 126 57.4 125.85 57.55 125.65 57.7 125.55
M 71.6 123.95
Q 71.8 124.05 71.95 124.25 72.05 124.45 72.05 124.75
L 72.05 130.75 73.8 130.75
Q 74.15 130.75 74.35 130.85 74.6 130.95 74.7 131.1 74.8 131.3 74.85 131.55 74.95 131.75 74.95 132 74.95 132.25 74.85 132.45 74.8 132.7 74.7 132.9 74.6 133.1 74.35 133.2 74.15 133.3 73.8 133.3
L 72.05 133.3 72.05 142.5
Q 72.05 142.8 71.95 142.95 71.8 143.2 71.6 143.25 71.15 143.45 70.75 143.45 70.45 143.45 70.2 143.4 70 143.35 69.8 143.25 69.6 143.2 69.5 142.95 69.4 142.8 69.4 142.5
L 69.4 124.75
Q 69.4 124.45 69.5 124.25 69.6 124.05 69.8 123.95 70 123.85 70.2 123.8 70.45 123.75 70.75 123.75 71.15 123.75 71.6 123.95
M 66.3 125.5
Q 66.6 125.55 66.75 125.6 66.95 125.7 67.1 125.8 67.25 125.9 67.4 126.05 67.5 126.2 67.55 126.35 67.6 126.5 67.6 126.7 67.6 126.85 67.65 127.1 67.65 127.3 67.65 127.5 67.65 128.25 67.6 128.95 67.55 129.7 67.45 130.4 67.35 131.1 67.2 131.8 67.05 132.45 66.8 133.15 66.65 133.8 66.4 134.4 66.2 135 65.85 135.6 65.55 136.2 65.15 136.7 64.8 137.25 64.35 137.75 64.25 137.9 64.05 138 63.9 138.05 63.65 138 63.45 138 63.2 137.9 63 137.85 62.75 137.7 62.6 137.6 62.45 137.4 62.35 137.25 62.25 137 62.15 136.8 62.2 136.55 62.25 136.35 62.4 136.1 62.7 135.7 63 135.3 63.25 134.85 63.5 134.4 63.7 133.95 63.85 133.45 64.05 132.95 64.15 132.4 64.3 131.9 64.4 131.35 64.55 130.8 64.6 130.25 64.7 129.7 64.75 129.1 64.8 128.55 64.85 127.95
L 63.8 127.95
Q 63.5 127.95 63.3 127.85 63.1 127.8 63 127.6 62.8 127.4 62.75 127.2 62.7 127 62.7 126.75 62.7 126.45 62.75 126.25 62.8 126 63 125.85 63.1 125.65 63.3 125.55 63.5 125.45 63.8 125.45
L 65.75 125.45
Q 66.05 125.45 66.3 125.5
M 80.6 135.7
Q 80.55 135.55 80.55 135.25 80.55 135 80.6 134.8 80.7 134.55 80.8 134.35 80.9 134.2 81.1 134.1 81.3 134.05 81.6 134.05
L 84.7 134.05
Q 85.1 134.05 85.4 134.15 85.75 134.2 86.05 134.4 86.35 134.6 86.55 134.9 86.7 135.2 86.7 135.6
L 86.7 138
Q 86.7 138.45 86.55 138.75 86.35 139.05 86.05 139.25 85.75 139.45 85.4 139.55 85.1 139.65 84.7 139.65
L 82.8 139.65 82.8 140.75
Q 83.25 140.75 83.65 140.75 84.05 140.7 84.45 140.65 84.8 140.65 85.2 140.6 85.6 140.55 86.05 140.45 86.35 140.45 86.55 140.5 86.75 140.55 86.9 140.7 87.05 140.85 87.15 141.05 87.25 141.2 87.3 141.45 87.35 141.7 87.3 141.95 87.25 142.15 87.15 142.35 87.05 142.5 86.85 142.6 86.6 142.7 86.35 142.75
L 86.45 142.75
Q 85.95 142.8 85.55 142.85 85.3 142.85 85.05 142.9 84.85 142.9 84.6 142.95 84.4 142.95 84.15 142.95 83.95 143 83.7 143 83.45 143 83.2 143 82.9 143 82.55 143.05 82.35 143.05 82.2 143.05 82 143 81.85 143 81.65 143 81.5 142.95 81.3 142.9 81.2 142.85 81.05 142.8 80.9 142.7 80.8 142.6 80.75 142.5 80.6 142.2 80.6 141.8
L 80.6 138.8
Q 80.6 138.4 80.75 138.1 80.85 137.85 81.15 137.65 81.7 137.35 82.55 137.35
L 84.3 137.35 84.3 136.35 81.6 136.35
Q 81.3 136.35 81.1 136.3 80.9 136.2 80.8 136.05 80.7 135.9 80.6 135.7
M 91.5 123.65
Q 91.75 123.65 92 123.7 92.25 123.75 92.45 123.85 92.85 124.05 92.85 124.65
L 92.85 127.3 94.75 127.3
Q 95.05 127.3 95.25 127.4 95.45 127.5 95.55 127.65 95.65 128.05 95.65 128.55 95.65 128.8 95.65 129 95.6 129.2 95.55 129.4 95.4 129.8 94.75 129.8
L 92.85 129.8 92.85 132.25
Q 92.85 132.55 92.75 132.75 92.65 132.95 92.45 133.05 92.25 133.15 92 133.2 91.75 133.25 91.5 133.25 91.35 133.25 91.2 133.25 91.1 133.2 90.95 133.2 90.85 133.2 90.7 133.15 90.6 133.1 90.5 133.05 90.4 133 90.3 132.9 90.25 132.8 90.2 132.7 90.1 132.6 90.1 132.5 90.05 132.4 90.05 132.25
L 90.05 124.65
Q 90.05 124.5 90.1 124.4 90.1 124.25 90.2 124.15 90.25 124.05 90.3 124 90.4 123.9 90.5 123.85 90.6 123.8 90.7 123.75 90.85 123.75 90.95 123.7 91.1 123.7 91.2 123.65 91.35 123.65 91.5 123.65
M 91.15 134.05
Q 91.55 134.05 91.85 134.15 92.2 134.3 92.4 134.5 92.6 134.75 92.75 135.1 92.85 135.4 92.85 135.8
L 92.85 142
Q 92.85 142.25 92.75 142.45 92.6 142.6 92.45 142.75 92.25 142.9 92 142.95 91.75 143.05 91.5 143.05 91.3 143.05 91.05 142.95 90.85 142.9 90.65 142.75 90.2 142.5 90.2 142
L 90.2 136.45 88.6 136.45
Q 88.3 136.45 88.1 136.4 87.9 136.3 87.8 136.1 87.7 135.95 87.65 135.75 87.6 135.55 87.6 135.25 87.6 135 87.65 134.8 87.7 134.55 87.8 134.35 87.9 134.2 88.1 134.1 88.3 134.05 88.6 134.05
L 91.15 134.05
M 78.75 126.85
Q 78.75 126.45 78.8 126.15 78.85 125.85 78.9 125.6 78.95 125.35 79.1 125.2 79.2 125 79.45 124.85 79.6 124.75 79.8 124.7 80.05 124.6 80.3 124.6 80.55 124.55 80.85 124.55 81.2 124.55 81.6 124.55
L 86.75 124.55
Q 87.05 124.55 87.25 124.6 87.45 124.65 87.55 124.75 87.65 124.85 87.7 125.1 87.75 125.4 87.75 125.8 87.75 126.1 87.7 126.35 87.65 126.6 87.55 126.75 87.45 126.9 87.25 126.95 87.05 127 86.75 127
L 81.6 127 81.6 129.9
Q 81.6 130.22265625 81.6 130.35 82.35 130.35 83.1 130.3 83.9 130.3 84.7 130.2 85.5 130.15 86.25 130.05 87 130 87.75 129.85 87.85 129.85 87.95 129.85 88.1 129.85 88.2 129.85 88.35 129.85 88.4 129.85 88.5 129.9 88.6 129.9 88.6 129.95 88.7 130.05 88.7 130.1 88.8 130.2 88.85 130.3 88.85 130.45 88.9 130.6 88.95 130.8 89.05 131.15 89.05 131.4 89.05 131.65 88.95 131.85 88.7 132.2 88.05 132.25 87.25 132.4 86.45 132.5 85.65 132.6 84.85 132.65 84.05 132.75 83.25 132.8 82.45 132.85 81.6 132.9 81.2 132.9 80.85 132.85 80.55 132.85 80.3 132.85 80.05 132.8 79.8 132.75 79.6 132.7 79.45 132.55 79.2 132.45 79.1 132.3 78.95 132.15 78.9 131.9 78.75 131.45 78.75 130.65
L 78.75 126.85 Z"/>
</g>

<path id="Layer0_0_1_STROKES" stroke="#DBDBDB" stroke-width="3" stroke-linejoin="round" stroke-linecap="round" fill="none" d="
M 724.7 12.15
L 904.7 12.15
Q 919.7 12.15 919.7 27.15
L 919.7 57.2
Q 919.7 60.45 918.95 63.15 916.4 72.2 904.7 72.2
L 724.7 72.2
Q 713.2 72.2 710.45 63.15 709.7 60.85 709.7 57.2
L 709.7 27.15
Q 709.7 12.15 724.7 12.15 Z"/>

<path id="Layer0_1_1_STROKES" stroke="#CCCCCC" stroke-width="3" stroke-linejoin="round" stroke-linecap="round" fill="none" d="
M 116.71716232299805 158.5
L 1155.6623939514159 158.5"/>

<path id="Layer0_2_1_STROKES" stroke="#CCCCCC" stroke-width="3" stroke-linejoin="round" stroke-linecap="round" fill="none" d="
M 116.71716232299805 218.5
L 1155.6623939514159 218.5"/>
</defs>

<g transform="matrix( 1, 0, 0, 1, 0,0) ">
<use xlink:href="#Layer0_0_FILL"/>

<use xlink:href="#Layer0_0_1_STROKES"/>
</g>

<g transform="matrix( 0.9332122802734375, 0, 0, 1, 17.75,-464.6) ">
<use xlink:href="#Layer0_1_1_STROKES" transform="matrix( 1.071563720703125, 0, 0, 1, -19,464.6) "/>
</g>

<g transform="matrix( 0.9332122802734375, 0, 0, 1, 17.75,-404.6) ">
<use xlink:href="#Layer0_2_1_STROKES" transform="matrix( 1.071563720703125, 0, 0, 1, -19,404.6) "/>
</g>
</svg>
