
<svg xmlns="http://www.w3.org/2000/svg" version="1.1" xmlns:xlink="http://www.w3.org/1999/xlink" preserveAspectRatio="none" x="0px" y="0px" width="1280px" height="720px" viewBox="0 0 1280 720">
<defs>
<g id="Layer0_0_FILL">
<path fill="#1E1E1E" stroke="none" d="
M 1082.95 420.15
Q 1082.95 419.35 1082.8 419.2 1082.7 419.05 1082 419.05
L 1079.9 419.05
Q 1079.75 419.05 1079.55 419.15 1079.35 419.2 1079.3 419.3
L 1073.15 424.95
Q 1072.95 425.15 1072.95 425.35 1072.9 425.6 1073.05 425.75
L 1074.85 427.9
Q 1075 428.05 1075.25 428 1075.5 428 1075.75 427.85
L 1078.7 425.25 1078.7 448.95
Q 1078.7 449.45 1079.25 449.45
L 1082.45 449.45
Q 1082.95 449.45 1082.95 448.95
L 1082.95 420.15
M 1104.35 418.8
Q 1101.15 418.8 1099.2 420.25 1097.25 421.75 1096.15 424 1095.05 426.3 1094.65 429 1094.3 431.75 1094.3 434.2 1094.3 441.55 1096.75 445.6 1099.2 449.65 1104.35 449.65 1106.9 449.65 1108.75 448.65 1110.6 447.55 1111.85 445.6 1113.1 443.65 1113.7 440.75 1114.3 437.85 1114.3 434.2 1114.3 432.55 1114.1 430.8 1113.95 429 1113.55 427.3 1113.15 425.6 1112.45 424.05 1111.75 422.5 1110.6 421.3 1109.55 420.15 1107.95 419.45 1106.4 418.8 1104.35 418.8
M 1108.35 425.6
Q 1109.05 426.95 1109.45 429.05 1109.8 431.2 1109.8 434.2 1109.8 437.3 1109.45 439.45 1109.05 441.55 1108.35 442.85 1107.6 444.2 1106.6 444.75 1105.55 445.35 1104.35 445.35 1103.05 445.35 1102.05 444.75 1101.05 444.2 1100.35 442.85 1099.6 441.55 1099.25 439.45 1098.85 437.3 1098.85 434.2 1098.85 431.2 1099.25 429.05 1099.6 426.95 1100.35 425.6 1101.05 424.3 1102.05 423.75 1103.05 423.15 1104.35 423.15 1105.55 423.15 1106.6 423.75 1107.6 424.3 1108.35 425.6
M 398.7 419.65
Q 398.7 419.3 398.65 419.2 398.6 419.05 398.3 419.05
L 394.65 419.05
Q 394.25 419.05 394.15 419.15 394.05 419.25 393.85 419.6
L 381.45 438.2
Q 381.3 438.35 381.15 438.65 380.95 438.95 380.95 439.2
L 380.95 442.2
Q 380.95 442.5 381.1 442.55 381.25 442.65 381.6 442.65
L 394.4 442.65 394.4 448.75
Q 394.4 449.15 394.55 449.3 394.7 449.45 395.15 449.45
L 398.05 449.45
Q 398.45 449.45 398.55 449.3 398.7 449.2 398.7 448.75
L 398.7 442.65 402.4 442.65
Q 402.75 442.65 402.9 442.55 403.05 442.45 403.05 442.05
L 403.05 439.15
Q 403.05 438.75 402.9 438.65 402.75 438.55 402.4 438.55
L 398.7 438.55 398.7 419.65
M 394.4 438.55
L 385.8 438.55 394.4 425.5 394.4 438.55
M 584.6 419.25
Q 583 418.7 581.05 418.7 579.2 418.7 577.2 419.35 575.25 420 573.75 420.8 573.35 421 573.2 421.25 573.1 421.4 573.2 421.6
L 573.75 424.65
Q 573.85 425 574.15 425.05 574.45 425.05 574.8 424.85 576.6 423.8 578.1 423.35 579.65 422.9 581.3 422.9 583.05 422.9 584.2 424.15 585.4 425.4 585.4 427.3 585.4 429 583.8 431.6 582.2 434.25 578.85 438.2
L 572.75 445.45
Q 572.55 445.75 572.35 446.05 572.2 446.4 572.2 446.7
L 572.2 449
Q 572.2 449.5 572.95 449.5
L 590 449.5
Q 590.55 449.5 590.55 448.8
L 590.55 446
Q 590.55 445.4 590 445.4
L 578.25 445.4
Q 579.25 444.25 580.25 443.1 581.25 441.9 582.1 440.8 583.2 439.5 584.6 437.9 585.95 436.25 587.15 434.5 588.35 432.7 589.15 430.85 589.95 429 589.95 427.2 589.95 425.1 589.25 423.5 588.55 421.9 587.4 420.85 586.25 419.8 584.6 419.25
M 232.1 418.7
Q 229.8 418.7 228 419.5 226.15 420.3 224.85 421.7 223.55 423.1 222.85 425 222.2 426.9 222.2 429.1 222.2 431.4 222.9 433.2 223.55 435 224.85 436.3 226.15 437.6 227.95 438.3 229.7 439 231.85 439 232.6 439 233.4 438.8 234.2 438.6 234.95 438.25 235.7 437.9 236.35 437.45 236.95 437 237.3 436.5 237.05 438.4 236.45 440.1 235.85 441.75 234.85 443 233.85 444.25 232.4 444.95 230.95 445.65 228.85 445.65 227.45 445.65 226.3 445.55 225.1 445.45 224.05 445 223.5 444.8 223.4 445.35
L 223.3 448.55
Q 223.25 448.95 223.6 449.05 224.55 449.4 225.95 449.6 227.4 449.8 228.55 449.8 232.25 449.8 234.8 448.45 237.4 447.15 238.95 444.9 240.55 442.65 241.25 439.65 241.9 436.6 241.9 433.25 241.9 425.8 239.35 422.25 236.8 418.7 232.1 418.7
M 234.1 423.2
Q 235.05 423.7 235.75 424.6 236.45 425.5 236.85 426.7 237.25 427.9 237.25 429.25 237.25 431.7 235.8 433.3 234.3 434.85 231.7 434.85 229.25 434.85 227.95 433.25 226.6 431.65 226.6 428.9 226.6 426 228.1 424.35 229.65 422.65 232.05 422.65 233.15 422.65 234.1 423.2
M 235.05 370.15
Q 235.05 369.35 234.9 369.2 234.8 369.05 234.1 369.05
L 232 369.05
Q 231.85 369.05 231.65 369.15 231.45 369.2 231.4 369.3
L 225.25 374.95
Q 225.05 375.15 225.05 375.35 225 375.6 225.15 375.75
L 226.95 377.9
Q 227.1 378.05 227.35 378 227.6 378 227.85 377.85
L 230.8 375.25 230.8 398.95
Q 230.8 399.45 231.35 399.45
L 234.55 399.45
Q 235.05 399.45 235.05 398.95
L 235.05 370.15
M 585.05 370.15
Q 585.05 369.35 584.9 369.2 584.8 369.05 584.1 369.05
L 582 369.05
Q 581.85 369.05 581.65 369.15 581.45 369.2 581.4 369.3
L 575.25 374.95
Q 575.05 375.15 575.05 375.35 575 375.6 575.15 375.75
L 576.95 377.9
Q 577.1 378.05 577.35 378 577.6 378 577.85 377.85
L 580.8 375.25 580.8 398.95
Q 580.8 399.45 581.35 399.45
L 584.55 399.45
Q 585.05 399.45 585.05 398.95
L 585.05 370.15
M 395.05 370.15
Q 395.05 369.35 394.9 369.2 394.8 369.05 394.1 369.05
L 392 369.05
Q 391.85 369.05 391.65 369.15 391.45 369.2 391.4 369.3
L 385.25 374.95
Q 385.05 375.15 385.05 375.35 385 375.6 385.15 375.75
L 386.95 377.9
Q 387.1 378.05 387.35 378 387.6 378 387.85 377.85
L 390.8 375.25 390.8 398.95
Q 390.8 399.45 391.35 399.45
L 394.55 399.45
Q 395.05 399.45 395.05 398.95
L 395.05 370.15
M 750.2 419.55
Q 750.2 419.35 750.1 419.2 749.95 419 749.7 419
L 735.05 419
Q 734.45 419 734.35 419.15 734.2 419.25 734.2 419.7
L 734 434.45
Q 734 435.8 735.55 435.15 736.8 434.7 738.2 434.45 739.6 434.15 740.9 434.15 744.2 434.15 745.6 435.7 747.05 437.2 747.05 439.8 747.05 442.5 745.25 444 743.55 445.55 740.85 445.55 740.15 445.55 739.3 445.45 738.5 445.4 737.65 445.25 736.8 445.05 736 444.85 735.2 444.6 734.65 444.3 733.8 443.9 733.8 444.6
L 733.8 447.85
Q 733.8 448.15 733.8 448.3 733.85 448.4 734.1 448.6 734.75 448.9 735.7 449.1 736.6 449.35 737.55 449.5 738.5 449.6 739.3 449.7 740.15 449.75 740.55 449.75 742.85 449.75 744.9 449.1 747 448.45 748.4 447.15 751.55 444.35 751.55 439.3 751.55 437.2 750.8 435.55 750.05 433.85 748.75 432.65 747.45 431.5 745.7 430.85 743.95 430.25 741.95 430.25 740 430.25 738.4 430.6
L 738.55 423.2 749.7 423.2
Q 749.95 423.2 750.1 423 750.2 422.85 750.2 422.6
L 750.2 419.55
M 935.9 419.2
Q 934.2 418.7 932.2 418.7 930.25 418.7 928.55 419.25 926.85 419.8 925.6 420.8 924.35 421.8 923.6 423.2 922.85 424.6 922.85 426.3 922.85 428.6 924.25 430.4 925.65 432.2 928.05 433.6 926.85 434.2 925.75 434.9 924.65 435.6 923.85 436.5 923.05 437.4 922.5 438.55 922.05 439.7 922.05 441.2 922.05 443.35 922.95 444.95 923.85 446.6 925.3 447.65 926.75 448.7 928.55 449.25 930.4 449.8 932.2 449.8 934.15 449.8 935.95 449.25 937.85 448.7 939.25 447.65 940.65 446.6 941.5 444.95 942.4 443.35 942.4 441.2 942.4 439.8 941.95 438.8 941.55 437.75 940.75 436.85 939.95 435.95 938.85 435.15 937.7 434.4 936.3 433.55 938.9 431.75 940.15 430 941.4 428.2 941.4 426.2 941.4 424.45 940.7 423.05 940 421.65 938.8 420.7 937.6 419.75 935.9 419.2
M 932.2 422.6
Q 933.15 422.6 934 422.95 934.85 423.2 935.5 423.75 936.15 424.3 936.5 425 936.9 425.7 936.9 426.5 936.9 427.2 936.4 428 935.9 428.8 935.15 429.55 934.4 430.25 933.6 430.8 932.85 431.35 932.2 431.6 931.7 431.4 930.9 430.9 930.1 430.45 929.3 429.75 928.55 429.05 928 428.25 927.4 427.45 927.4 426.6 927.4 425.65 927.85 424.9 928.3 424.2 929 423.7 929.65 423.2 930.5 422.9 931.35 422.6 932.2 422.6
M 934.2 436.75
Q 935.2 437.35 936.05 438.05 936.85 438.8 937.35 439.6 937.85 440.45 937.85 441.2 937.85 442.25 937.35 443.1 936.85 443.95 936.05 444.55 935.25 445.15 934.25 445.45 933.2 445.75 932.2 445.75 931.25 445.75 930.2 445.45 929.2 445.1 928.35 444.5 927.55 443.9 927.05 443.05 926.5 442.2 926.5 441.2 926.5 439.95 927.1 439.05 927.7 438.15 928.55 437.5 929.4 436.85 930.45 436.45 931.4 436 932.2 435.8 933.2 436.15 934.2 436.75
M 927.85 377.85
L 930.8 375.25 930.8 398.95
Q 930.8 399.45 931.35 399.45
L 934.55 399.45
Q 935.05 399.45 935.05 398.95
L 935.05 370.15
Q 935.05 369.35 934.9 369.2 934.8 369.05 934.1 369.05
L 932 369.05
Q 931.85 369.05 931.65 369.15 931.45 369.2 931.4 369.3
L 925.25 374.95
Q 925.05 375.15 925.05 375.35 925 375.6 925.15 375.75
L 926.95 377.9
Q 927.1 378.05 927.35 378 927.6 378 927.85 377.85
M 745.05 370.15
Q 745.05 369.35 744.9 369.2 744.8 369.05 744.1 369.05
L 742 369.05
Q 741.85 369.05 741.65 369.15 741.45 369.2 741.4 369.3
L 735.25 374.95
Q 735.05 375.15 735.05 375.35 735 375.6 735.15 375.75
L 736.95 377.9
Q 737.1 378.05 737.35 378 737.6 378 737.85 377.85
L 740.8 375.25 740.8 398.95
Q 740.8 399.45 741.35 399.45
L 744.55 399.45
Q 745.05 399.45 745.05 398.95
L 745.05 370.15
M 1091.65 369.15
Q 1091.45 369.2 1091.4 369.3
L 1085.25 374.95
Q 1085.05 375.15 1085.05 375.35 1085 375.6 1085.15 375.75
L 1086.95 377.9
Q 1087.1 378.05 1087.35 378 1087.6 378 1087.85 377.85
L 1090.8 375.25 1090.8 398.95
Q 1090.8 399.45 1091.35 399.45
L 1094.55 399.45
Q 1095.05 399.45 1095.05 398.95
L 1095.05 370.15
Q 1095.05 369.35 1094.9 369.2 1094.8 369.05 1094.1 369.05
L 1092 369.05
Q 1091.85 369.05 1091.65 369.15 Z"/>
</g>

<path id="Layer0_0_1_STROKES" stroke="#1E1E1E" stroke-width="3" stroke-linejoin="miter" stroke-linecap="butt" stroke-miterlimit="3" fill="none" d="
M 913 409
L 951.2 409
M 723 409
L 761.2 409
M 1073 409
L 1111.2 409
M 213 409
L 251.2 409
M 563 409
L 601.2 409
M 373 409
L 411.2 409"/>
</defs>

<g transform="matrix( 1, 0, 0, 1, 0,0) ">
<use xlink:href="#Layer0_0_FILL"/>

<use xlink:href="#Layer0_0_1_STROKES"/>
</g>
</svg>
