<?xml version="1.0" encoding="utf-8"?>
<!-- Generator: Adobe Illustrator 16.0.0, SVG Export Plug-In . SVG Version: 6.00 Build 0)  -->
<!DOCTYPE svg PUBLIC "-//W3C//DTD SVG 1.1//EN" "http://www.w3.org/Graphics/SVG/1.1/DTD/svg11.dtd">
<svg version="1.1" id="Layer_1" xmlns="http://www.w3.org/2000/svg" xmlns:xlink="http://www.w3.org/1999/xlink" x="0px" y="0px"
	 width="1200px" height="300px" viewBox="0 0 1200 300" enable-background="new 0 0 1200 300" xml:space="preserve">
<g transform="matrix( 1, 0, 0, 1, 22.45,8) ">
	<g transform="matrix( 1, 0, 0, 1, 0,0) ">
		<g>
			<g id="___3_0_Layer0_0_FILL">
				<path fill="#1E1E1E" d="M185.4,257.7c-0.367-0.366-1.083-0.55-2.15-0.55h-20.2c-0.167,0-0.3,0.065-0.4,0.199
					c-0.133,0.101-0.2,0.217-0.2,0.351v2.649c0,0.133,0.067,0.25,0.2,0.351c0.1,0.1,0.233,0.149,0.4,0.149h17.9
					c0.233,0,0.383,0.018,0.45,0.051c0.066,0.065,0.1,0.25,0.1,0.55v1.35c0,0.267-0.034,0.435-0.1,0.5
					c-0.067,0.067-0.2,0.101-0.4,0.101h-15.8c-1.066,0-1.767,0.199-2.1,0.601c-0.367,0.367-0.55,0.983-0.55,1.851v4.801
					c0,0.865,0.183,1.5,0.55,1.898c0.367,0.4,1.083,0.602,2.15,0.602h21.2c0.1,0,0.217-0.066,0.35-0.2
					c0.133-0.101,0.2-0.218,0.2-0.351v-2.551c0-0.199-0.067-0.35-0.2-0.449c-0.133-0.101-0.267-0.149-0.4-0.149h-18.8
					c-0.233,0-0.383-0.017-0.45-0.05s-0.1-0.168-0.1-0.4v-1.65c0-0.231,0.033-0.383,0.1-0.448c0.066-0.066,0.2-0.102,0.4-0.102h15.7
					c1.066,0,1.783-0.167,2.15-0.5c0.367-0.333,0.55-0.966,0.55-1.898V259.6C185.95,258.7,185.767,258.066,185.4,257.7
					 M181.85,235.25c-0.333,0-0.5,0.184-0.5,0.55v18.95c0,0.166,0.05,0.3,0.15,0.4c0.1,0.133,0.216,0.199,0.35,0.199h3.6
					c0.133,0,0.25-0.066,0.35-0.199c0.1-0.102,0.15-0.234,0.15-0.4V235.8c0-0.366-0.167-0.55-0.5-0.55H181.85 M219.85,235.25
					c-0.367,0-0.55,0.184-0.55,0.55v36.9c0,0.366,0.183,0.55,0.55,0.55h3.55c0.333,0,0.5-0.184,0.5-0.55v-36.9
					c0-0.366-0.167-0.55-0.5-0.55H219.85 M208.3,238.6c-1.2-0.633-2.583-0.949-4.15-0.949c-1.534,0-2.9,0.316-4.1,0.949
					c-1.233,0.635-2.267,1.519-3.1,2.65s-1.483,2.518-1.95,4.15c-0.467,1.6-0.7,3.416-0.7,5.449c0,1.934,0.233,3.717,0.7,5.351
					c0.466,1.6,1.116,2.983,1.95,4.149c0.833,1.166,1.867,2.065,3.1,2.699c1.2,0.667,2.566,1,4.1,1c1.566,0,2.95-0.333,4.15-1
					c1.2-0.6,2.233-1.482,3.1-2.648c0.833-1.135,1.466-2.519,1.9-4.15c0.467-1.633,0.7-3.434,0.7-5.4c0-2.033-0.233-3.85-0.7-5.449
					c-0.434-1.633-1.067-3.018-1.9-4.149C210.533,240.117,209.5,239.232,208.3,238.6 M204.15,241.75c0.833,0,1.583,0.232,2.25,0.7
					c0.667,0.5,1.233,1.149,1.7,1.95c0.434,0.832,0.767,1.815,1,2.949c0.233,1.101,0.35,2.268,0.35,3.5
					c0,1.166-0.117,2.315-0.35,3.449c-0.233,1.102-0.566,2.067-1,2.9c-0.466,0.833-1.033,1.5-1.7,2s-1.417,0.75-2.25,0.75
					c-0.867,0-1.617-0.25-2.25-0.75c-0.667-0.5-1.217-1.167-1.65-2c-0.467-0.833-0.817-1.801-1.05-2.9
					c-0.267-1.134-0.4-2.283-0.4-3.449c0-1.232,0.133-2.399,0.4-3.5c0.233-1.134,0.583-2.117,1.05-2.949
					c0.433-0.801,0.983-1.45,1.65-1.95C202.533,241.982,203.283,241.75,204.15,241.75 M259,258.55c-0.367-0.333-1.1-0.5-2.2-0.5
					h-21.2c-0.133,0-0.267,0.067-0.4,0.2c-0.1,0.1-0.15,0.217-0.15,0.35v2.551c0,0.134,0.05,0.232,0.15,0.301
					c0.133,0.134,0.267,0.199,0.4,0.199h18.9c0.267,0,0.417,0.017,0.45,0.051c0.067,0.066,0.1,0.232,0.1,0.5v1.148
					c0,0.234-0.033,0.367-0.1,0.4c-0.033,0.033-0.167,0.05-0.4,0.05h-16.8c-1.034,0-1.733,0.2-2.1,0.601
					c-0.367,0.367-0.55,0.968-0.55,1.801v4.3c0,0.867,0.2,1.483,0.6,1.851c0.367,0.366,1.067,0.551,2.1,0.551h22.05
					c0.1,0,0.2-0.066,0.3-0.2c0.133-0.101,0.2-0.218,0.2-0.351V269.9c0-0.168-0.066-0.301-0.2-0.4c-0.1-0.066-0.217-0.1-0.35-0.1
					h-19.6c-0.267,0-0.433-0.033-0.5-0.102c-0.066-0.033-0.1-0.183-0.1-0.449v-1.199c0-0.234,0.034-0.385,0.1-0.45
					c0.067-0.067,0.2-0.101,0.4-0.101h16.7c1.1,0,1.833-0.149,2.2-0.449c0.333-0.334,0.5-0.967,0.5-1.9v-4.35
					C259.5,259.5,259.333,258.883,259,258.55 M265.25,255.15v-2.45c0-0.134-0.067-0.25-0.2-0.351c-0.1-0.134-0.233-0.199-0.4-0.199
					H229.9c-0.4,0-0.6,0.184-0.6,0.55v2.45c0,0.166,0.05,0.3,0.15,0.398c0.1,0.135,0.25,0.2,0.45,0.2h34.75
					c0.167,0,0.3-0.065,0.4-0.2C265.183,255.416,265.25,255.283,265.25,255.15 M259.45,237.45c0-0.935-0.183-1.567-0.55-1.9
					c-0.333-0.333-1.05-0.5-2.15-0.5h-20.8c-0.133,0-0.267,0.05-0.4,0.15c-0.1,0.134-0.15,0.25-0.15,0.35v2.55
					c0,0.135,0.05,0.25,0.15,0.352c0.133,0.1,0.267,0.148,0.4,0.148h18.5c0.267,0,0.417,0.019,0.45,0.051
					c0.066,0.033,0.1,0.166,0.1,0.399v1.2c0,0.268-0.034,0.434-0.1,0.5c-0.034,0.066-0.167,0.1-0.4,0.1h-16.65
					c-1.033,0-1.716,0.185-2.05,0.551c-0.367,0.399-0.55,1.017-0.55,1.851v4.149c0,0.834,0.183,1.435,0.55,1.801
					c0.367,0.365,1.066,0.55,2.1,0.55h21.7c0.1,0,0.217-0.05,0.35-0.149c0.1-0.134,0.15-0.267,0.15-0.399v-2.45
					c0-0.166-0.05-0.3-0.15-0.4c-0.133-0.1-0.267-0.148-0.4-0.148H240.3c-0.267,0-0.417-0.018-0.45-0.051
					c-0.066-0.032-0.1-0.166-0.1-0.399v-1.101c0-0.199,0.033-0.334,0.1-0.399c0.034-0.065,0.167-0.101,0.4-0.101h16.5
					c1.1,0,1.816-0.166,2.15-0.5c0.367-0.301,0.55-0.916,0.55-1.851V237.45 M295.65,247.1c-0.065-0.065-0.148-0.115-0.25-0.148
					c-0.8-0.268-1.615-0.45-2.448-0.551c-0.867-0.101-1.7-0.149-2.5-0.149c-1.7,0-3.233,0.283-4.602,0.851
					c-1.333,0.565-2.5,1.366-3.5,2.399c-0.967,1-1.717,2.217-2.25,3.649c-0.533,1.399-0.8,2.949-0.8,4.649
					c0,1.601,0.217,3.083,0.65,4.45c0.466,1.367,1.133,2.566,2,3.6c0.865,1,1.948,1.816,3.25,2.45
					c1.3,0.601,2.782,0.968,4.448,1.101c0.534,0,1.067,0,1.602,0c0.565,0,1.083-0.032,1.55-0.101c0.5-0.065,0.967-0.134,1.4-0.2
					c0.433-0.065,0.8-0.166,1.1-0.3c0.2-0.032,0.316-0.1,0.35-0.2c0.034-0.1,0.034-0.25,0-0.449l-0.148-2.75
					c-0.033-0.166-0.084-0.282-0.15-0.351c-0.1-0.1-0.267-0.1-0.5,0c-1.467,0.468-3.116,0.583-4.95,0.351
					c-2-0.233-3.517-1.018-4.55-2.351c-1.065-1.333-1.6-3.083-1.6-5.25c0-2.267,0.565-4.1,1.7-5.5c1.1-1.399,2.732-2.1,4.898-2.1
					c0.7,0,1.435,0.05,2.2,0.149c0.8,0.065,1.5,0.217,2.1,0.449c0.233,0.034,0.385,0.018,0.45-0.05c0.134-0.101,0.2-0.233,0.2-0.399
					l0.35-2.75C295.684,247.334,295.684,247.166,295.65,247.1 M37.2,259c-0.133,0-0.267,0.033-0.4,0.1c-0.133,0.067-0.2,0.2-0.2,0.4
					v2.85c0,0.135,0.067,0.25,0.2,0.352c0.133,0.066,0.267,0.1,0.4,0.1h18.05c0.3,0,0.5,0.051,0.6,0.15
					c0.1,0.066,0.15,0.25,0.15,0.55v9.101c0,0.133,0.05,0.25,0.15,0.351c0.133,0.134,0.283,0.2,0.45,0.2h3.45
					c0.133,0,0.25-0.066,0.35-0.2c0.133-0.101,0.2-0.218,0.2-0.351v-10.801c0-1.033-0.183-1.767-0.55-2.199
					c-0.4-0.399-1.1-0.601-2.1-0.601L37.2,259 M60.65,235.8c0-0.366-0.184-0.55-0.55-0.55h-3.55c-0.333,0-0.5,0.184-0.5,0.55V256.4
					c0,0.398,0.167,0.6,0.5,0.6h3.55c0.367,0,0.55-0.184,0.55-0.55v-7.95h5.4c0.133,0,0.267-0.05,0.4-0.15
					c0.133-0.1,0.2-0.231,0.2-0.398v-2.75c0-0.167-0.067-0.301-0.2-0.4c-0.133-0.1-0.267-0.148-0.4-0.148h-5.4V235.8 M50.1,237.7
					c-0.433-0.366-1.15-0.55-2.15-0.55H36c-1.034,0-1.75,0.199-2.15,0.6c-0.4,0.4-0.6,1.1-0.6,2.1V252c0,1.066,0.2,1.8,0.6,2.2
					c0.434,0.366,1.217,0.55,2.35,0.55h11.75c1,0,1.717-0.184,2.15-0.55c0.4-0.4,0.6-1.134,0.6-2.2v-12.15
					C50.7,238.783,50.5,238.066,50.1,237.7 M45.7,240.85c0.2,0,0.333,0.019,0.4,0.051c0.067,0.066,0.1,0.218,0.1,0.449v9.2
					c0,0.267-0.033,0.417-0.1,0.45c-0.066,0.066-0.2,0.1-0.4,0.1h-7.4c-0.233,0-0.383-0.033-0.45-0.1
					c-0.066-0.033-0.1-0.184-0.1-0.45v-9.2c0-0.231,0.033-0.383,0.1-0.449c0.067-0.032,0.217-0.051,0.45-0.051H45.7 M105.9,261.8
					v2.7c0,0.166,0.05,0.316,0.15,0.45c0.1,0.1,0.233,0.149,0.4,0.149c1.9,0.032,3.967,0.018,6.2-0.051c2.2-0.066,4.4-0.167,6.6-0.3
					c2.2-0.133,4.3-0.3,6.3-0.5c2-0.166,3.75-0.367,5.25-0.601c0.133-0.032,0.25-0.101,0.35-0.199c0.133-0.135,0.183-0.301,0.15-0.5
					l-0.25-2.602c0-0.199-0.1-0.332-0.3-0.398c-0.167-0.034-0.317-0.034-0.45,0c-1.633,0.199-3.45,0.384-5.45,0.55
					c-1.966,0.2-4,0.351-6.1,0.45c-2.1,0.1-4.184,0.183-6.25,0.25c-2.133,0.033-4.15,0.033-6.05,0c-0.167,0-0.3,0.05-0.4,0.148
					C105.95,261.482,105.9,261.633,105.9,261.8 M89.6,236c-0.367,0-0.55,0.166-0.55,0.5v34.7c0,0.366,0.183,0.55,0.55,0.55h3.25
					c0.367,0,0.55-0.184,0.55-0.55v-17.4h3.7v18.9c0,0.366,0.184,0.55,0.55,0.55h3.45c0.367,0,0.55-0.184,0.55-0.55v-36.9
					c0-0.366-0.184-0.55-0.55-0.55h-3.45c-0.367,0-0.55,0.184-0.55,0.55v14.15h-3.7V236.5c0-0.334-0.184-0.5-0.55-0.5H89.6
					 M84.4,239c0-0.4-0.184-0.6-0.55-0.6H72.2c-1,0-1.683,0.199-2.05,0.6c-0.4,0.367-0.6,1.018-0.6,1.95v18.899
					c0,0.934,0.25,1.601,0.75,2s1.233,0.633,2.2,0.699c1,0.067,2.15,0.083,3.45,0.051c1.3-0.033,2.617-0.101,3.95-0.199
					c1.3-0.135,2.566-0.283,3.8-0.45c1.2-0.167,2.25-0.366,3.15-0.601c0.133-0.066,0.267-0.149,0.4-0.25
					c0.167-0.101,0.233-0.283,0.2-0.551l-0.5-2.398c-0.066-0.234-0.167-0.367-0.3-0.4c-0.167-0.066-0.35-0.066-0.55,0
					c-0.733,0.133-1.6,0.283-2.6,0.45c-1,0.134-2.017,0.233-3.05,0.3c-1.033,0.1-2,0.166-2.9,0.2c-0.9,0.032-1.633,0-2.2-0.101
					c-0.5-0.033-0.833-0.117-1-0.25c-0.133-0.101-0.2-0.367-0.2-0.801v-14.6c0-0.467,0.25-0.7,0.75-0.7h8.95
					c0.367,0,0.55-0.166,0.55-0.5V239 M157.4,237v2.55c0,0.134,0.05,0.267,0.15,0.4c0.066,0.134,0.183,0.2,0.35,0.2h11
					c0.467,0,0.7,0.082,0.7,0.25c0,0.133-0.066,0.434-0.2,0.898c-0.267,1.102-0.767,2.15-1.5,3.15
					c-0.733,1.033-1.65,2.017-2.75,2.949c-1.133,0.935-2.4,1.834-3.8,2.699c-1.433,0.834-3,1.617-4.7,2.352
					c-0.3,0.1-0.467,0.267-0.5,0.5c-0.033,0.267,0.017,0.5,0.15,0.699l0.95,1.949c0.233,0.5,0.65,0.635,1.25,0.4
					c2.1-0.867,4.017-1.8,5.75-2.8c1.733-1.034,3.25-2.15,4.55-3.351c1.3-1.199,2.4-2.517,3.3-3.949c0.9-1.4,1.617-2.967,2.15-4.7
					c0-0.101,0.033-0.25,0.1-0.45c0.034-0.2,0.083-0.416,0.15-0.65c0.066-0.231,0.116-0.467,0.15-0.699
					c0.033-0.233,0.05-0.434,0.05-0.601c0-0.833-0.25-1.433-0.75-1.8c-0.5-0.4-1.333-0.6-2.5-0.6h-13.5
					C157.583,236.4,157.4,236.6,157.4,237 M126.95,243.05c-0.5-1.134-1.2-2.116-2.1-2.95c-0.867-0.8-1.883-1.416-3.05-1.85
					c-1.2-0.434-2.483-0.65-3.85-0.65c-1.367,0-2.65,0.217-3.85,0.65c-1.167,0.434-2.183,1.05-3.05,1.85
					c-0.867,0.834-1.55,1.816-2.05,2.95c-0.534,1.134-0.8,2.4-0.8,3.8c0,1.435,0.267,2.717,0.8,3.852
					c0.5,1.134,1.183,2.083,2.05,2.85c0.867,0.801,1.883,1.417,3.05,1.852c1.2,0.398,2.467,0.6,3.8,0.6c1.4,0,2.7-0.2,3.9-0.6
					c1.167-0.435,2.183-1.051,3.05-1.852c0.9-0.767,1.6-1.716,2.1-2.85c0.5-1.135,0.75-2.417,0.75-3.852
					C127.7,245.45,127.45,244.184,126.95,243.05 M121.8,242.85c0.967,1,1.45,2.334,1.45,4c0,1.7-0.483,3.051-1.45,4.051
					c-1,1-2.283,1.5-3.85,1.5c-1.533,0-2.783-0.5-3.75-1.5c-1-1-1.5-2.351-1.5-4.051c0-1.666,0.5-3,1.5-4
					c0.967-1,2.217-1.5,3.75-1.5C119.517,241.35,120.8,241.85,121.8,242.85 M137.55,235.8c0-0.366-0.183-0.55-0.55-0.55h-3.5
					c-0.167,0-0.3,0.05-0.4,0.15c-0.133,0.1-0.2,0.231-0.2,0.398v36.9c0,0.167,0.066,0.283,0.2,0.35c0.1,0.135,0.233,0.2,0.4,0.2
					h3.5c0.367,0,0.55-0.185,0.55-0.55V235.8 M126.7,134.25c-1.367,0-2.65,0.316-3.85,0.95c-1.2,0.633-2.1,1.583-2.7,2.85
					c-0.5-1.233-1.333-2.183-2.5-2.85c-1.133-0.634-2.4-0.95-3.8-0.95c-1.033,0-2.017,0.217-2.95,0.65
					c-0.934,0.434-1.667,0.95-2.2,1.55l0.05-1.4c0-0.2-0.117-0.3-0.35-0.3H105c-0.434,0-0.633,0.167-0.6,0.5
					c0.066,0.533,0.117,1.267,0.15,2.2c0.033,0.933,0.05,1.917,0.05,2.95v15.9c0,0.134,0.034,0.267,0.1,0.4
					c0.1,0.1,0.217,0.149,0.35,0.149h3.35c0.3,0,0.45-0.166,0.45-0.5v-13c0-1.601,0.417-2.851,1.25-3.75c0.833-0.934,2-1.4,3.5-1.4
					c2.367,0,3.55,1.417,3.55,4.25v13.85c0,0.135,0.05,0.268,0.15,0.4c0.1,0.1,0.217,0.148,0.35,0.148H121
					c0.3,0,0.45-0.166,0.45-0.5v-11.6c0-0.934,0.117-1.8,0.35-2.6c0.233-0.8,0.567-1.483,1-2.05c0.4-0.6,0.917-1.05,1.55-1.35
					c0.633-0.367,1.35-0.55,2.15-0.55c1.133,0,1.983,0.4,2.55,1.2c0.6,0.8,0.9,1.817,0.9,3.05v13.85c0,0.134,0.05,0.267,0.15,0.4
					c0.1,0.1,0.217,0.149,0.35,0.149h3.35c0.1,0,0.217-0.051,0.35-0.149c0.066-0.101,0.1-0.218,0.1-0.351V141.95
					c0-2.434-0.7-4.317-2.1-5.65C130.783,134.934,128.966,134.25,126.7,134.25 M77.55,134.25c-1.033,0-2.017,0.217-2.95,0.65
					c-0.933,0.434-1.667,0.95-2.2,1.55l0.05-1.4c0-0.2-0.117-0.3-0.35-0.3h-3.4c-0.433,0-0.633,0.167-0.6,0.5
					c0.067,0.533,0.117,1.267,0.15,2.2c0.033,0.933,0.05,1.917,0.05,2.95v15.9c0,0.134,0.033,0.267,0.1,0.4
					c0.1,0.1,0.217,0.149,0.35,0.149h3.35c0.3,0,0.45-0.166,0.45-0.5v-13c0-1.601,0.417-2.851,1.25-3.75c0.833-0.934,2-1.4,3.5-1.4
					c2.367,0,3.55,1.417,3.55,4.25v13.85c0,0.135,0.05,0.268,0.15,0.4c0.1,0.1,0.216,0.148,0.35,0.148h3.35
					c0.3,0,0.45-0.166,0.45-0.5v-11.6c0-0.934,0.117-1.8,0.35-2.6c0.233-0.8,0.566-1.483,1-2.05c0.4-0.6,0.917-1.05,1.55-1.35
					c0.633-0.367,1.35-0.55,2.15-0.55c1.133,0,1.983,0.4,2.55,1.2c0.6,0.8,0.9,1.817,0.9,3.05v13.85c0,0.134,0.05,0.267,0.15,0.4
					c0.1,0.1,0.217,0.149,0.35,0.149h3.35c0.1,0,0.216-0.051,0.35-0.149c0.067-0.101,0.1-0.218,0.1-0.351V141.95
					c0-2.434-0.7-4.317-2.1-5.65c-1.367-1.366-3.183-2.05-5.45-2.05c-1.367,0-2.65,0.316-3.85,0.95c-1.2,0.633-2.1,1.583-2.7,2.85
					c-0.5-1.233-1.333-2.183-2.5-2.85C80.216,134.566,78.95,134.25,77.55,134.25 M50.65,129.8v-2.4c0-0.3-0.05-0.5-0.15-0.6
					c-0.1-0.1-0.383-0.15-0.85-0.15h-17c-0.467,0-0.7,0.217-0.7,0.65v2.8c0,0.233,0.067,0.4,0.2,0.5c0.133,0.133,0.3,0.2,0.5,0.2
					H45.4l-10.45,25.55c-0.1,0.301-0.1,0.484,0,0.551c0.1,0.101,0.35,0.149,0.75,0.149h3.25c0.267,0,0.45-0.032,0.55-0.1
					c0.1-0.101,0.216-0.25,0.35-0.45l10.55-26.05C50.567,130.25,50.65,130.033,50.65,129.8 M60.05,35.6c-0.4-0.4-1.1-0.6-2.1-0.6
					H37.2c-0.133,0-0.267,0.033-0.4,0.1c-0.133,0.066-0.2,0.2-0.2,0.4v2.85c0,0.133,0.067,0.25,0.2,0.35
					c0.133,0.066,0.267,0.1,0.4,0.1h18.05c0.3,0,0.5,0.05,0.6,0.15C55.95,39.017,56,39.2,56,39.5v9.1c0,0.133,0.05,0.25,0.15,0.35
					c0.133,0.133,0.283,0.2,0.45,0.2h3.45c0.133,0,0.25-0.066,0.35-0.2c0.133-0.1,0.2-0.217,0.2-0.35V37.8
					C60.6,36.767,60.417,36.033,60.05,35.6 M50.1,13.7c-0.433-0.367-1.15-0.55-2.15-0.55H36c-1.034,0-1.75,0.2-2.15,0.6
					c-0.4,0.4-0.6,1.1-0.6,2.1V28c0,1.066,0.2,1.8,0.6,2.2c0.434,0.366,1.217,0.55,2.35,0.55h11.75c1,0,1.717-0.184,2.15-0.55
					c0.4-0.4,0.6-1.134,0.6-2.2V15.85C50.7,14.783,50.5,14.066,50.1,13.7 M45.7,16.85c0.2,0,0.333,0.017,0.4,0.05
					c0.067,0.067,0.1,0.217,0.1,0.45v9.2c0,0.267-0.033,0.417-0.1,0.45c-0.066,0.066-0.2,0.1-0.4,0.1h-7.4
					c-0.233,0-0.383-0.034-0.45-0.1c-0.066-0.033-0.1-0.184-0.1-0.45v-9.2c0-0.233,0.033-0.383,0.1-0.45
					c0.067-0.033,0.217-0.05,0.45-0.05H45.7 M66.65,23.95V21.2c0-0.167-0.067-0.3-0.2-0.4c-0.133-0.1-0.267-0.15-0.4-0.15h-5.4V11.8
					c0-0.366-0.184-0.55-0.55-0.55h-3.55c-0.333,0-0.5,0.184-0.5,0.55v20.6c0,0.4,0.167,0.6,0.5,0.6h3.55
					c0.367,0,0.55-0.184,0.55-0.55V24.5h5.4c0.133,0,0.267-0.05,0.4-0.15C66.583,24.25,66.65,24.117,66.65,23.95 M84.4,17.75V15
					c0-0.4-0.184-0.6-0.55-0.6H72.2c-1,0-1.683,0.2-2.05,0.6c-0.4,0.367-0.6,1.017-0.6,1.95v18.9c0,0.933,0.25,1.6,0.75,2
					s1.233,0.633,2.2,0.7c1,0.067,2.15,0.083,3.45,0.05c1.3-0.034,2.617-0.1,3.95-0.2c1.3-0.133,2.566-0.283,3.8-0.45
					c1.2-0.167,2.25-0.367,3.15-0.6c0.133-0.067,0.267-0.15,0.4-0.25c0.167-0.1,0.233-0.284,0.2-0.55l-0.5-2.4
					c-0.066-0.233-0.167-0.367-0.3-0.4c-0.167-0.066-0.35-0.066-0.55,0c-0.733,0.133-1.6,0.283-2.6,0.45
					c-1,0.133-2.017,0.233-3.05,0.3c-1.033,0.1-2,0.167-2.9,0.2c-0.9,0.033-1.633,0-2.2-0.1c-0.5-0.034-0.833-0.117-1-0.25
					c-0.133-0.1-0.2-0.367-0.2-0.8v-14.6c0-0.467,0.25-0.7,0.75-0.7h8.95C84.216,18.25,84.4,18.083,84.4,17.75 M92.85,12H89.6
					c-0.367,0-0.55,0.167-0.55,0.5v34.7c0,0.366,0.183,0.55,0.55,0.55h3.25c0.367,0,0.55-0.184,0.55-0.55V29.8h3.7v18.9
					c0,0.366,0.184,0.55,0.55,0.55h3.45c0.367,0,0.55-0.184,0.55-0.55V11.8c0-0.366-0.184-0.55-0.55-0.55h-3.45
					c-0.367,0-0.55,0.184-0.55,0.55v14.15h-3.7V12.5C93.4,12.167,93.216,12,92.85,12 M131.05,36.35c0-0.2-0.1-0.333-0.3-0.4
					c-0.167-0.034-0.317-0.034-0.45,0c-1.633,0.2-3.45,0.383-5.45,0.55c-1.966,0.2-4,0.35-6.1,0.45c-2.1,0.1-4.184,0.183-6.25,0.25
					c-2.133,0.033-4.15,0.033-6.05,0c-0.167,0-0.3,0.05-0.4,0.15c-0.1,0.133-0.15,0.283-0.15,0.45v2.7c0,0.167,0.05,0.316,0.15,0.45
					c0.1,0.1,0.233,0.15,0.4,0.15c1.9,0.033,3.967,0.017,6.2-0.05c2.2-0.066,4.4-0.167,6.6-0.3c2.2-0.133,4.3-0.3,6.3-0.5
					c2-0.167,3.75-0.367,5.25-0.6c0.133-0.033,0.25-0.1,0.35-0.2c0.133-0.134,0.183-0.3,0.15-0.5L131.05,36.35 M126.95,19.05
					c-0.5-1.133-1.2-2.116-2.1-2.95c-0.867-0.8-1.883-1.417-3.05-1.85c-1.2-0.434-2.483-0.65-3.85-0.65
					c-1.367,0-2.65,0.216-3.85,0.65c-1.167,0.434-2.183,1.05-3.05,1.85c-0.867,0.833-1.55,1.816-2.05,2.95
					c-0.534,1.134-0.8,2.4-0.8,3.8c0,1.433,0.267,2.716,0.8,3.85c0.5,1.133,1.183,2.083,2.05,2.85c0.867,0.8,1.883,1.417,3.05,1.85
					c1.2,0.4,2.467,0.6,3.8,0.6c1.4,0,2.7-0.2,3.9-0.6c1.167-0.433,2.183-1.05,3.05-1.85c0.9-0.767,1.6-1.716,2.1-2.85
					c0.5-1.134,0.75-2.417,0.75-3.85C127.7,21.45,127.45,20.184,126.95,19.05 M121.8,18.85c0.967,1,1.45,2.333,1.45,4
					c0,1.7-0.483,3.05-1.45,4.05c-1,1-2.283,1.5-3.85,1.5c-1.533,0-2.783-0.5-3.75-1.5c-1-1-1.5-2.35-1.5-4.05c0-1.667,0.5-3,1.5-4
					c0.967-1,2.217-1.5,3.75-1.5C119.517,17.35,120.8,17.85,121.8,18.85 M133.1,11.4c-0.133,0.1-0.2,0.233-0.2,0.4v36.9
					c0,0.167,0.066,0.283,0.2,0.35c0.1,0.134,0.233,0.2,0.4,0.2h3.5c0.367,0,0.55-0.184,0.55-0.55V11.8
					c0-0.366-0.183-0.55-0.55-0.55h-3.5C133.333,11.25,133.2,11.3,133.1,11.4 M294.65,125.75c-0.1,0.133-0.148,0.267-0.148,0.4v20.8
					c0,0.899,0.217,1.6,0.648,2.1c0.468,0.5,1.218,0.817,2.25,0.95c1.135,0.1,2.483,0.117,4.052,0.05
					c1.6-0.065,3.232-0.2,4.898-0.399c1.634-0.199,3.217-0.416,4.75-0.649c1.5-0.267,2.75-0.533,3.75-0.8
					c0.233-0.034,0.417-0.135,0.55-0.301c0.135-0.166,0.185-0.334,0.15-0.5l-0.45-2.25c-0.065-0.166-0.148-0.315-0.25-0.449
					c-0.133-0.167-0.35-0.217-0.648-0.15c-1.102,0.268-2.284,0.5-3.552,0.7c-1.232,0.233-2.517,0.435-3.85,0.601
					c-1.267,0.133-2.517,0.217-3.75,0.25c-1.2,0.065-2.283,0.051-3.25-0.051c-0.267-0.033-0.45-0.083-0.55-0.148
					c-0.102-0.066-0.15-0.217-0.15-0.45v-19.3c0-0.133-0.065-0.267-0.2-0.4c-0.1-0.1-0.232-0.15-0.398-0.15h-3.45
					C294.916,125.6,294.783,125.65,294.65,125.75 M242.75,151.2c-0.1,0.134-0.15,0.267-0.15,0.399v2.551
					c0,0.133,0.05,0.266,0.15,0.398c0.1,0.135,0.25,0.2,0.45,0.2H278c0.133,0,0.267-0.065,0.398-0.2
					c0.135-0.134,0.2-0.267,0.2-0.398V151.6c0-0.133-0.065-0.266-0.2-0.398c-0.133-0.167-0.267-0.25-0.398-0.25h-15.1V145h10.3
					c0.1,0,0.217-0.05,0.35-0.15c0.133-0.1,0.2-0.217,0.2-0.35v-2.7c0-0.133-0.067-0.233-0.2-0.3c-0.1-0.1-0.217-0.15-0.35-0.15
					h-19.85c-0.267,0-0.433-0.034-0.5-0.1c-0.066-0.066-0.1-0.25-0.1-0.55v-3.15c0-0.267,0.033-0.433,0.1-0.5
					c0.034-0.033,0.2-0.05,0.5-0.05H270c1.133,0,1.9-0.184,2.3-0.55c0.4-0.367,0.6-1.067,0.6-2.1v-6.5c0-1.034-0.2-1.733-0.6-2.1
					s-1.167-0.55-2.3-0.55h-21c-0.167,0-0.3,0.066-0.4,0.2c-0.1,0.1-0.15,0.217-0.15,0.35v2.65c0,0.133,0.05,0.267,0.15,0.4
					c0.1,0.134,0.233,0.2,0.4,0.2h18.8c0.267,0,0.434,0.017,0.5,0.05c0.067,0.034,0.1,0.2,0.1,0.5v3.1c0,0.3-0.033,0.483-0.1,0.55
					c-0.066,0.066-0.233,0.1-0.5,0.1h-16.65c-0.567,0-1.05,0.034-1.45,0.1c-0.367,0.067-0.65,0.2-0.85,0.4
					c-0.2,0.2-0.35,0.467-0.45,0.8c-0.067,0.333-0.1,0.767-0.1,1.3v6.45c0,0.533,0.033,0.966,0.1,1.3c0.1,0.332,0.25,0.6,0.45,0.8
					c0.2,0.233,0.483,0.384,0.85,0.45c0.4,0.065,0.883,0.1,1.45,0.1h7.2v5.95H243.2C243,150.95,242.85,151.033,242.75,151.2
					 M174.1,143.15v-2.45c0-0.134-0.066-0.25-0.2-0.35c-0.1-0.133-0.233-0.2-0.4-0.2h-34.75c-0.4,0-0.6,0.184-0.6,0.55v2.45
					c0,0.166,0.05,0.3,0.15,0.398c0.1,0.135,0.25,0.2,0.45,0.2h34.75c0.167,0,0.3-0.065,0.4-0.2
					C174.033,143.416,174.1,143.283,174.1,143.15 M168.35,148.4c0-0.9-0.167-1.519-0.5-1.852c-0.367-0.333-1.1-0.5-2.2-0.5h-21.2
					c-0.133,0-0.267,0.067-0.4,0.2c-0.1,0.101-0.15,0.217-0.15,0.351v2.551c0,0.133,0.05,0.231,0.15,0.3
					c0.133,0.134,0.267,0.2,0.4,0.2h18.9c0.267,0,0.417,0.016,0.45,0.05c0.066,0.065,0.1,0.233,0.1,0.5v1.149
					c0,0.233-0.034,0.366-0.1,0.399c-0.033,0.033-0.167,0.05-0.4,0.05h-16.8c-1.033,0-1.733,0.2-2.1,0.602
					c-0.367,0.365-0.55,0.967-0.55,1.8v4.3c0,0.867,0.2,1.482,0.6,1.85c0.367,0.367,1.067,0.551,2.1,0.551h22.05
					c0.1,0,0.2-0.065,0.3-0.199c0.133-0.102,0.2-0.217,0.2-0.352V157.9c0-0.168-0.066-0.301-0.2-0.4c-0.1-0.066-0.217-0.1-0.35-0.1
					h-19.6c-0.267,0-0.434-0.033-0.5-0.102c-0.067-0.033-0.1-0.183-0.1-0.449v-1.199c0-0.234,0.033-0.385,0.1-0.45
					c0.066-0.067,0.2-0.101,0.4-0.101h16.7c1.1,0,1.833-0.149,2.2-0.449c0.333-0.334,0.5-0.967,0.5-1.9V148.4 M167.75,123.55
					c-0.333-0.333-1.05-0.5-2.15-0.5h-20.8c-0.133,0-0.267,0.05-0.4,0.15c-0.1,0.133-0.15,0.25-0.15,0.35v2.55
					c0,0.133,0.05,0.25,0.15,0.35c0.133,0.1,0.267,0.15,0.4,0.15h18.5c0.267,0,0.417,0.017,0.45,0.05c0.066,0.034,0.1,0.167,0.1,0.4
					v1.2c0,0.267-0.033,0.434-0.1,0.5c-0.034,0.066-0.167,0.1-0.4,0.1H146.7c-1.033,0-1.717,0.183-2.05,0.55
					c-0.367,0.4-0.55,1.017-0.55,1.85v4.15c0,0.833,0.184,1.434,0.55,1.8c0.367,0.366,1.066,0.55,2.1,0.55h21.7
					c0.1,0,0.217-0.05,0.35-0.15c0.1-0.133,0.15-0.267,0.15-0.4v-2.45c0-0.167-0.05-0.3-0.15-0.4c-0.133-0.1-0.267-0.15-0.4-0.15
					h-19.25c-0.267,0-0.417-0.017-0.45-0.05c-0.066-0.033-0.1-0.167-0.1-0.4v-1.1c0-0.2,0.034-0.333,0.1-0.4
					c0.033-0.066,0.167-0.1,0.4-0.1h16.5c1.1,0,1.817-0.167,2.15-0.5c0.367-0.3,0.55-0.917,0.55-1.85v-4.35
					C168.3,124.517,168.117,123.883,167.75,123.55 M204.5,135.1c-0.067-0.067-0.15-0.117-0.25-0.15c-0.8-0.267-1.617-0.45-2.45-0.55
					c-0.867-0.1-1.7-0.15-2.5-0.15c-1.7,0-3.233,0.283-4.6,0.85c-1.333,0.566-2.5,1.367-3.5,2.4c-0.967,1-1.717,2.217-2.25,3.65
					c-0.533,1.4-0.8,2.95-0.8,4.65c0,1.601,0.216,3.083,0.65,4.45c0.467,1.367,1.133,2.566,2,3.6c0.867,1,1.95,1.816,3.25,2.45
					c1.3,0.601,2.783,0.968,4.45,1.101c0.533,0,1.066,0,1.6,0c0.567,0,1.083-0.032,1.55-0.101c0.5-0.065,0.966-0.134,1.4-0.2
					c0.433-0.065,0.8-0.166,1.1-0.3c0.2-0.032,0.316-0.1,0.35-0.2c0.033-0.1,0.033-0.25,0-0.449l-0.15-2.75
					c-0.033-0.166-0.083-0.282-0.15-0.351c-0.1-0.1-0.267-0.1-0.5,0c-1.467,0.468-3.117,0.583-4.95,0.351
					c-2-0.233-3.517-1.018-4.55-2.351c-1.066-1.333-1.6-3.083-1.6-5.25c0-2.267,0.567-4.1,1.7-5.5c1.1-1.4,2.733-2.1,4.9-2.1
					c0.7,0,1.434,0.05,2.2,0.15c0.8,0.066,1.5,0.216,2.1,0.45c0.233,0.034,0.383,0.017,0.45-0.05c0.133-0.1,0.2-0.233,0.2-0.4
					l0.35-2.75C204.533,135.333,204.533,135.167,204.5,135.1 M222.1,135.2c-1.133-0.634-2.4-0.95-3.8-0.95
					c-1.033,0-2.017,0.217-2.95,0.65c-0.933,0.434-1.667,0.95-2.2,1.55l0.05-1.4c0-0.2-0.117-0.3-0.35-0.3h-3.4
					c-0.433,0-0.633,0.167-0.6,0.5c0.067,0.533,0.117,1.267,0.15,2.2c0.033,0.933,0.05,1.917,0.05,2.95v15.9
					c0,0.134,0.033,0.267,0.1,0.4c0.1,0.1,0.216,0.149,0.35,0.149h3.35c0.3,0,0.45-0.166,0.45-0.5v-13
					c0-1.601,0.417-2.851,1.25-3.75c0.833-0.934,2-1.4,3.5-1.4c2.367,0,3.55,1.417,3.55,4.25v13.85c0,0.135,0.05,0.268,0.15,0.4
					c0.1,0.1,0.216,0.148,0.35,0.148h3.35c0.3,0,0.45-0.166,0.45-0.5v-11.6c0-0.934,0.117-1.8,0.35-2.6
					c0.233-0.8,0.566-1.483,1-2.05c0.4-0.6,0.917-1.05,1.55-1.35c0.633-0.367,1.35-0.55,2.15-0.55c1.133,0,1.983,0.4,2.55,1.2
					c0.6,0.8,0.9,1.817,0.9,3.05v13.85c0,0.134,0.05,0.267,0.15,0.4c0.1,0.1,0.217,0.149,0.35,0.149h3.35
					c0.1,0,0.216-0.051,0.35-0.149c0.067-0.101,0.1-0.218,0.1-0.351V141.95c0-2.434-0.7-4.317-2.1-5.65
					c-1.366-1.366-3.183-2.05-5.45-2.05c-1.367,0-2.65,0.316-3.85,0.95c-1.2,0.633-2.1,1.583-2.7,2.85
					C224.1,136.816,223.267,135.867,222.1,135.2 M180.95,36.85c0.233,0,0.383,0.017,0.45,0.05c0.066,0.067,0.1,0.25,0.1,0.55v1.35
					c0,0.267-0.034,0.434-0.1,0.5c-0.067,0.067-0.2,0.1-0.4,0.1h-15.8c-1.066,0-1.767,0.2-2.1,0.6
					c-0.367,0.367-0.55,0.983-0.55,1.85v4.8c0,0.867,0.183,1.5,0.55,1.9c0.367,0.4,1.083,0.6,2.15,0.6h21.2
					c0.1,0,0.217-0.066,0.35-0.2c0.133-0.1,0.2-0.217,0.2-0.35v-2.55c0-0.2-0.067-0.35-0.2-0.45s-0.267-0.15-0.4-0.15h-18.8
					c-0.233,0-0.383-0.017-0.45-0.05c-0.067-0.033-0.1-0.167-0.1-0.4v-1.65c0-0.233,0.033-0.383,0.1-0.45
					c0.066-0.066,0.2-0.1,0.4-0.1h15.7c1.066,0,1.783-0.167,2.15-0.5c0.367-0.333,0.55-0.966,0.55-1.9v-4.8
					c0-0.9-0.183-1.534-0.55-1.9c-0.367-0.367-1.083-0.55-2.15-0.55h-20.2c-0.167,0-0.3,0.067-0.4,0.2
					c-0.133,0.1-0.2,0.216-0.2,0.35v2.65c0,0.133,0.067,0.25,0.2,0.35c0.1,0.1,0.233,0.15,0.4,0.15H180.95 M167.9,20.45
					c-0.733,1.033-1.65,2.017-2.75,2.95c-1.133,0.934-2.4,1.833-3.8,2.7c-1.433,0.833-3,1.617-4.7,2.35
					c-0.3,0.1-0.467,0.267-0.5,0.5c-0.033,0.267,0.017,0.5,0.15,0.7l0.95,1.95c0.233,0.5,0.65,0.633,1.25,0.4
					c2.1-0.867,4.017-1.8,5.75-2.8c1.733-1.034,3.25-2.15,4.55-3.35c1.3-1.2,2.4-2.517,3.3-3.95c0.9-1.4,1.617-2.966,2.15-4.7
					c0-0.1,0.033-0.25,0.1-0.45c0.034-0.2,0.083-0.417,0.15-0.65c0.066-0.233,0.116-0.467,0.15-0.7c0.033-0.233,0.05-0.433,0.05-0.6
					c0-0.833-0.25-1.433-0.75-1.8c-0.5-0.4-1.333-0.6-2.5-0.6h-13.5c-0.367,0-0.55,0.2-0.55,0.6v2.55c0,0.134,0.05,0.267,0.15,0.4
					c0.066,0.133,0.183,0.2,0.35,0.2h11c0.467,0,0.7,0.083,0.7,0.25c0,0.133-0.066,0.434-0.2,0.9
					C169.133,18.4,168.633,19.45,167.9,20.45 M185.95,11.8c0-0.366-0.167-0.55-0.5-0.55h-3.6c-0.333,0-0.5,0.184-0.5,0.55v18.95
					c0,0.167,0.05,0.3,0.15,0.4c0.1,0.133,0.216,0.2,0.35,0.2h3.6c0.133,0,0.25-0.067,0.35-0.2c0.1-0.1,0.15-0.233,0.15-0.4V11.8
					 M211.4,17.25c-0.867-1.133-1.9-2.017-3.1-2.65c-1.2-0.633-2.583-0.95-4.15-0.95c-1.534,0-2.9,0.317-4.1,0.95
					c-1.233,0.633-2.267,1.517-3.1,2.65s-1.483,2.517-1.95,4.15c-0.467,1.6-0.7,3.417-0.7,5.45c0,1.933,0.233,3.716,0.7,5.35
					c0.466,1.6,1.116,2.983,1.95,4.15s1.867,2.066,3.1,2.7c1.2,0.667,2.566,1,4.1,1c1.566,0,2.95-0.333,4.15-1
					c1.2-0.6,2.233-1.483,3.1-2.65c0.833-1.133,1.466-2.517,1.9-4.15c0.467-1.633,0.7-3.434,0.7-5.4c0-2.034-0.233-3.85-0.7-5.45
					C212.866,19.767,212.233,18.383,211.4,17.25 M208.1,20.4c0.434,0.833,0.767,1.817,1,2.95c0.233,1.1,0.35,2.267,0.35,3.5
					c0,1.167-0.117,2.316-0.35,3.45c-0.233,1.1-0.566,2.067-1,2.9c-0.466,0.833-1.033,1.5-1.7,2s-1.417,0.75-2.25,0.75
					c-0.867,0-1.617-0.25-2.25-0.75c-0.667-0.5-1.217-1.167-1.65-2c-0.467-0.833-0.817-1.8-1.05-2.9
					c-0.267-1.133-0.4-2.283-0.4-3.45c0-1.233,0.133-2.4,0.4-3.5c0.233-1.133,0.583-2.117,1.05-2.95c0.433-0.8,0.983-1.45,1.65-1.95
					c0.633-0.467,1.383-0.7,2.25-0.7c0.833,0,1.583,0.233,2.25,0.7C207.067,18.95,207.633,19.6,208.1,20.4 M223.9,11.8
					c0-0.366-0.167-0.55-0.5-0.55h-3.55c-0.367,0-0.55,0.184-0.55,0.55v36.9c0,0.366,0.183,0.55,0.55,0.55h3.55
					c0.333,0,0.5-0.184,0.5-0.55V11.8 M265.25,32.8v-2.65c0-0.133-0.067-0.267-0.2-0.4c-0.1-0.1-0.233-0.15-0.4-0.15H229.9
					c-0.4,0-0.6,0.183-0.6,0.55v2.65c0,0.134,0.05,0.267,0.15,0.4c0.1,0.167,0.25,0.25,0.45,0.25h34.75c0.167,0,0.3-0.083,0.4-0.25
					C265.183,33.066,265.25,32.934,265.25,32.8 M260.6,48.15c0.133-0.066,0.2-0.183,0.2-0.35v-2.85c0-0.134-0.067-0.25-0.2-0.35
					c-0.133-0.1-0.267-0.15-0.4-0.15h-19.75c-0.267,0-0.45-0.034-0.55-0.1c-0.133-0.067-0.2-0.25-0.2-0.55v-7
					c0-0.167-0.05-0.3-0.15-0.4c-0.133-0.133-0.283-0.2-0.45-0.2h-3.4c-0.167,0-0.3,0.066-0.4,0.2c-0.133,0.1-0.2,0.233-0.2,0.4
					v8.65c0,1.033,0.217,1.767,0.65,2.2c0.4,0.434,1.216,0.65,2.45,0.65h22C260.333,48.3,260.466,48.25,260.6,48.15 M260.15,21.75
					c-0.133-0.1-0.267-0.15-0.4-0.15h-19.1c-0.3,0-0.5-0.034-0.6-0.1s-0.15-0.233-0.15-0.5v-8.45c0-0.133-0.067-0.267-0.2-0.4
					c-0.133-0.1-0.283-0.15-0.45-0.15h-3.45c-0.133,0-0.267,0.05-0.4,0.15c-0.1,0.133-0.15,0.267-0.15,0.4V22.6
					c0,1.033,0.2,1.767,0.6,2.2c0.434,0.434,1.25,0.65,2.45,0.65h21.45c0.133,0,0.267-0.034,0.4-0.1c0.1-0.1,0.15-0.233,0.15-0.4
					V22.1C260.3,21.967,260.25,21.85,260.15,21.75 M289.55,14.3c-1.533,0-2.9,0.267-4.1,0.8c-1.233,0.533-2.284,1.267-3.15,2.2
					c-0.866,0.934-1.533,2.034-2,3.3c-0.434,1.267-0.65,2.633-0.65,4.1c0,1.533,0.233,2.9,0.7,4.1c0.435,1.2,1.084,2.233,1.95,3.1
					c0.866,0.867,1.9,1.534,3.1,2c1.167,0.467,2.468,0.7,3.9,0.7c0.5,0,1.017-0.067,1.55-0.2c0.533-0.133,1.05-0.316,1.55-0.55
					s0.968-0.5,1.4-0.8c0.4-0.3,0.717-0.616,0.95-0.95c-0.167,1.267-0.45,2.466-0.852,3.6c-0.398,1.1-0.933,2.066-1.6,2.9
					s-1.483,1.483-2.45,1.95c-0.967,0.467-2.148,0.7-3.55,0.7c-0.934,0-1.783-0.033-2.55-0.1c-0.8-0.066-1.55-0.25-2.25-0.55
					c-0.367-0.133-0.584-0.017-0.65,0.35l-0.1,3.2c-0.033,0.267,0.065,0.434,0.3,0.5c0.634,0.233,1.417,0.417,2.35,0.55
					c0.968,0.133,1.834,0.2,2.602,0.2c2.467,0,4.55-0.45,6.25-1.35c1.732-0.866,3.116-2.05,4.148-3.55
					c1.067-1.5,1.834-3.25,2.302-5.25c0.433-2.033,0.648-4.167,0.648-6.4c0-4.967-0.85-8.633-2.55-11
					C295.099,15.483,292.684,14.3,289.55,14.3 M289.5,18.25c0.732,0,1.416,0.184,2.05,0.55c0.634,0.333,1.184,0.8,1.65,1.4
					c0.466,0.6,0.833,1.3,1.1,2.1c0.267,0.8,0.4,1.65,0.4,2.55c0,1.633-0.483,2.983-1.45,4.05c-1,1.034-2.367,1.55-4.102,1.55
					c-1.633,0-2.883-0.534-3.75-1.6c-0.898-1.067-1.35-2.517-1.35-4.35c0-1.934,0.5-3.45,1.5-4.55
					C286.583,18.816,287.9,18.25,289.5,18.25 M574.4,235.9h-3.25c-0.433,0-0.648,0.166-0.648,0.5v11.449h-6
					c-0.102,0-0.217,0.051-0.352,0.149c-0.133,0.101-0.198,0.217-0.198,0.351v2.699c0,0.167,0.065,0.301,0.198,0.4
					c0.135,0.134,0.25,0.199,0.352,0.199h6v19.699c0,0.4,0.217,0.602,0.648,0.602h3.25c0.334,0,0.5-0.2,0.5-0.602V236.4
					C574.9,236.066,574.734,235.9,574.4,235.9 M557.05,238.05c0,2.534-0.133,4.917-0.4,7.15c-0.231,2.2-0.648,4.25-1.25,6.149
					c-0.6,1.934-1.365,3.717-2.3,5.351c-0.967,1.634-2.166,3.134-3.6,4.5c-0.435,0.399-0.45,0.8-0.05,1.2l1.8,1.75
					c0.434,0.398,0.85,0.398,1.25,0c1.434-1.435,2.667-2.867,3.7-4.301c1.032-1.5,1.916-3.101,2.648-4.801
					c0.333,0.801,0.717,1.616,1.15,2.45c0.467,0.8,0.982,1.55,1.55,2.25c0.533,0.733,1.083,1.416,1.65,2.05
					c0.565,0.602,1.133,1.102,1.698,1.5c0.435,0.4,0.852,0.385,1.25-0.05l1.802-1.899c0.333-0.334,0.3-0.666-0.102-1
					c-0.667-0.566-1.366-1.283-2.1-2.149c-0.7-0.9-1.384-1.866-2.05-2.9c-0.667-1.065-1.268-2.183-1.802-3.35
					c-0.532-1.167-0.933-2.317-1.198-3.45c0.3-1.5,0.5-3.1,0.6-4.8c0.134-1.667,0.2-3.5,0.2-5.5c0-0.167-0.066-0.317-0.2-0.45
					c-0.133-0.1-0.283-0.15-0.45-0.15l-3.3-0.148C557.217,237.45,557.05,237.65,557.05,238.05 M541.75,237.45
					c0-0.167-0.05-0.3-0.15-0.4c-0.1-0.1-0.217-0.149-0.35-0.149h-3.55c-0.135,0-0.268,0.051-0.4,0.149
					c-0.1,0.101-0.15,0.233-0.15,0.4v5.649H521.1v-5.649c0-0.134-0.065-0.25-0.2-0.351c-0.133-0.066-0.267-0.101-0.398-0.101H517
					c-0.134,0-0.25,0.033-0.352,0.101c-0.133,0.101-0.198,0.217-0.198,0.351v15.3c0,1.1,0.217,1.85,0.648,2.25
					c0.435,0.367,1.233,0.55,2.4,0.55h7.35v7.351h-15.1c-0.2,0-0.352,0.066-0.45,0.199c-0.1,0.135-0.15,0.283-0.15,0.45v2.601
					c0,0.134,0.052,0.267,0.15,0.399c0.099,0.134,0.25,0.2,0.45,0.2h34.8c0.134,0,0.267-0.066,0.4-0.2
					c0.133-0.134,0.198-0.267,0.198-0.399v-2.601c0-0.134-0.065-0.282-0.198-0.45c-0.135-0.133-0.268-0.199-0.4-0.199h-15.1v-7.351
					h7.3c1.167,0,1.95-0.216,2.35-0.649c0.435-0.467,0.65-1.133,0.65-2L541.75,237.45 M537.15,251.15
					c0,0.434-0.231,0.648-0.698,0.648H521.8c-0.467,0-0.7-0.216-0.7-0.648V246.8h16.05V251.15 M582.7,235.8
					c0-0.366-0.185-0.55-0.552-0.55H578.7c-0.367,0-0.552,0.184-0.552,0.55v37c0,0.333,0.185,0.5,0.552,0.5h3.448
					c0.367,0,0.552-0.167,0.552-0.5V235.8 M324.65,251.4c0.602,0.8,0.9,1.815,0.9,3.05v13.85c0,0.134,0.05,0.267,0.15,0.4
					c0.1,0.1,0.216,0.149,0.35,0.149h3.35c0.102,0,0.218-0.051,0.352-0.149c0.065-0.101,0.1-0.218,0.1-0.351V253.95
					c0-2.435-0.7-4.317-2.1-5.65c-1.367-1.366-3.185-2.05-5.45-2.05c-1.366,0-2.65,0.316-3.85,0.95c-1.2,0.634-2.102,1.583-2.7,2.85
					c-0.5-1.233-1.334-2.183-2.5-2.85c-1.134-0.634-2.4-0.95-3.8-0.95c-1.034,0-2.018,0.217-2.95,0.65
					c-0.934,0.433-1.667,0.949-2.2,1.55l0.05-1.4c0-0.2-0.116-0.3-0.35-0.3h-3.4c-0.434,0-0.633,0.166-0.6,0.5
					c0.065,0.533,0.116,1.268,0.148,2.2c0.034,0.933,0.052,1.917,0.052,2.95V268.3c0,0.134,0.032,0.267,0.1,0.4
					c0.1,0.1,0.217,0.149,0.35,0.149H304c0.3,0,0.45-0.166,0.45-0.5v-13c0-1.601,0.416-2.851,1.25-3.75
					c0.833-0.935,2-1.399,3.5-1.399c2.365,0,3.55,1.417,3.55,4.25v13.85c0,0.134,0.05,0.267,0.148,0.4
					c0.102,0.1,0.218,0.149,0.352,0.149h3.35c0.3,0,0.45-0.166,0.45-0.5v-11.601c0-0.935,0.116-1.8,0.35-2.601s0.567-1.483,1-2.051
					c0.4-0.6,0.917-1.05,1.552-1.35c0.633-0.367,1.35-0.551,2.148-0.551C323.234,250.2,324.083,250.6,324.65,251.4 M340.15,237.2
					c-0.166,0-0.3,0.065-0.398,0.2c-0.102,0.1-0.15,0.217-0.15,0.35v2.65c0,0.133,0.05,0.266,0.15,0.398
					c0.1,0.135,0.232,0.2,0.398,0.2h18.802c0.267,0,0.433,0.017,0.5,0.05c0.065,0.034,0.1,0.2,0.1,0.5v3.102
					c0,0.3-0.033,0.481-0.1,0.55c-0.067,0.065-0.233,0.1-0.5,0.1H342.3c-0.566,0-1.05,0.034-1.45,0.101
					c-0.366,0.066-0.648,0.199-0.85,0.399s-0.352,0.468-0.45,0.8c-0.066,0.334-0.1,0.769-0.1,1.301v6.449
					c0,0.533,0.032,0.967,0.1,1.301c0.1,0.334,0.25,0.601,0.45,0.801c0.2,0.232,0.482,0.384,0.85,0.449
					c0.4,0.066,0.884,0.101,1.45,0.101h7.2v5.95h-15.15c-0.2,0-0.35,0.083-0.45,0.25c-0.1,0.134-0.148,0.267-0.148,0.398v2.551
					c0,0.134,0.05,0.267,0.148,0.399c0.102,0.134,0.25,0.2,0.45,0.2h34.8c0.135,0,0.268-0.066,0.4-0.2s0.2-0.267,0.2-0.399V263.6
					c0-0.133-0.066-0.266-0.2-0.398c-0.134-0.167-0.267-0.25-0.4-0.25h-15.1V257h10.3c0.102,0,0.217-0.05,0.352-0.15
					c0.133-0.1,0.198-0.217,0.198-0.35v-2.7c0-0.134-0.065-0.233-0.198-0.3c-0.102-0.1-0.218-0.15-0.352-0.15H344.5
					c-0.268,0-0.435-0.033-0.5-0.1c-0.066-0.066-0.101-0.25-0.101-0.55v-3.15c0-0.267,0.034-0.433,0.102-0.5
					c0.033-0.032,0.2-0.05,0.5-0.05h16.648c1.135,0,1.9-0.184,2.302-0.55c0.398-0.366,0.6-1.067,0.6-2.101v-6.5
					c0-1.033-0.2-1.732-0.6-2.101c-0.4-0.367-1.167-0.55-2.302-0.55L340.15,237.2 M406,256.7c-0.134-0.167-0.352-0.218-0.65-0.15
					c-1.1,0.267-2.283,0.5-3.55,0.7c-1.233,0.232-2.517,0.434-3.85,0.6c-1.268,0.135-2.518,0.217-3.75,0.25
					c-1.2,0.066-2.284,0.051-3.25-0.05c-0.268-0.032-0.45-0.083-0.552-0.149c-0.1-0.065-0.148-0.217-0.148-0.449V238.15
					c0-0.133-0.066-0.268-0.2-0.399c-0.1-0.101-0.233-0.149-0.4-0.149H386.2c-0.135,0-0.268,0.051-0.4,0.149
					c-0.1,0.133-0.15,0.267-0.15,0.399v20.801c0,0.898,0.218,1.6,0.65,2.1c0.467,0.5,1.217,0.817,2.25,0.95
					c1.134,0.101,2.483,0.117,4.05,0.05c1.602-0.066,3.233-0.199,4.9-0.398c1.633-0.2,3.217-0.417,4.75-0.65
					c1.5-0.267,2.75-0.533,3.75-0.8c0.232-0.034,0.416-0.134,0.55-0.3c0.134-0.167,0.184-0.334,0.15-0.5l-0.45-2.25
					C406.184,256.982,406.1,256.834,406,256.7 M423.4,238.8c-0.398,0.4-0.6,1.067-0.6,2v19.851c0,0.867,0.233,1.517,0.7,1.949
					c0.467,0.434,1.2,0.685,2.2,0.75c1.1,0.102,2.466,0.135,4.1,0.102c1.634-0.034,3.3-0.116,5-0.25c1.7-0.167,3.3-0.352,4.8-0.551
					c1.533-0.199,2.733-0.449,3.602-0.75c0.133-0.065,0.267-0.149,0.398-0.25c0.102-0.101,0.134-0.301,0.102-0.601l-0.4-2.25
					c-0.1-0.366-0.35-0.517-0.75-0.45c-1.2,0.2-2.45,0.385-3.75,0.551c-1.267,0.166-2.517,0.301-3.75,0.399
					c-1.267,0.067-2.45,0.116-3.55,0.15c-1.102,0.032-2.066,0.017-2.9-0.05c-0.5,0-0.833-0.084-1-0.25
					c-0.133-0.135-0.2-0.418-0.2-0.852v-5.55c0.968,0,2,0,3.102,0c1.1,0,2.2-0.017,3.3-0.05c1.066-0.034,2.116-0.067,3.15-0.102
					c1.032-0.033,2-0.082,2.898-0.148c0.3,0,0.45-0.217,0.45-0.65v-2.75c0-0.134-0.083-0.216-0.25-0.25
					c-0.134-0.066-0.267-0.1-0.4-0.1c-0.833,0.066-1.75,0.1-2.75,0.1c-0.966,0.034-1.982,0.051-3.05,0.051
					c-1.065,0.032-2.148,0.051-3.25,0.051c-1.1,0-2.166,0-3.2,0V242.8c0-0.466,0.233-0.7,0.7-0.7H440c0.366,0,0.55-0.166,0.55-0.5
					v-2.8c0-0.366-0.184-0.55-0.55-0.55h-14.55C424.45,238.25,423.767,238.434,423.4,238.8 M413.1,235.8
					c0-0.366-0.184-0.55-0.55-0.55H409c-0.334,0-0.5,0.184-0.5,0.55v36.9c0,0.366,0.166,0.55,0.5,0.55h3.55
					c0.366,0,0.55-0.184,0.55-0.55v-18.95h5.4c0.133,0,0.267-0.05,0.398-0.15c0.135-0.133,0.2-0.266,0.2-0.398V250.4
					c0-0.133-0.065-0.25-0.2-0.351c-0.133-0.1-0.267-0.149-0.398-0.149h-5.4V235.8 M483.35,236.5c0-0.133-0.065-0.25-0.2-0.35
					c-0.133-0.102-0.267-0.15-0.398-0.15h-3.25c-0.134,0-0.268,0.05-0.4,0.15c-0.133,0.1-0.2,0.217-0.2,0.35v34.7
					c0,0.134,0.067,0.267,0.2,0.399c0.134,0.101,0.268,0.149,0.4,0.149h3.25c0.133,0,0.267-0.05,0.398-0.149
					c0.135-0.134,0.2-0.267,0.2-0.399v-17.4h3.75v18.9c0,0.134,0.066,0.25,0.2,0.35c0.134,0.134,0.267,0.2,0.4,0.2h3.398
					c0.4,0,0.602-0.184,0.602-0.55v-36.9c0-0.366-0.2-0.55-0.602-0.55H487.7c-0.135,0-0.268,0.05-0.4,0.15
					c-0.134,0.1-0.2,0.231-0.2,0.398v14.15h-3.75V236.5 M465,238.55c0-0.134-0.066-0.267-0.2-0.399s-0.283-0.199-0.45-0.199h-3.3
					c-0.167,0-0.316,0.066-0.45,0.199c-0.1,0.134-0.148,0.267-0.148,0.399v20.601c0,0.899,0.25,1.617,0.75,2.149
					c0.5,0.5,1.232,0.784,2.198,0.851c1.034,0.033,2.15,0.033,3.352,0c1.166-0.032,2.366-0.101,3.6-0.199
					c1.2-0.102,2.367-0.25,3.5-0.45c1.134-0.2,2.167-0.435,3.102-0.7c0.198-0.066,0.365-0.148,0.5-0.25
					c0.133-0.1,0.183-0.232,0.148-0.398l-0.4-2.553c-0.034-0.199-0.135-0.332-0.302-0.398c-0.198-0.034-0.365-0.051-0.5-0.051
					c-0.865,0.232-1.8,0.435-2.8,0.601c-0.967,0.133-1.916,0.267-2.85,0.399c-0.967,0.101-1.884,0.166-2.75,0.199
					c-0.834,0.033-1.602,0-2.3-0.1c-0.468,0-0.7-0.217-0.7-0.65L465,238.55 M450.7,235.8c0-0.366-0.185-0.55-0.552-0.55h-3.55
					c-0.333,0-0.5,0.184-0.5,0.55v36.9c0,0.366,0.167,0.55,0.5,0.55h3.55c0.367,0,0.552-0.184,0.552-0.55v-18.95h5.398
					c0.134,0,0.268-0.05,0.4-0.15c0.133-0.133,0.2-0.266,0.2-0.398V250.4c0-0.133-0.067-0.25-0.2-0.351
					c-0.134-0.1-0.268-0.149-0.4-0.149H450.7V235.8 M327.95,141.2v-2.8c0-0.133-0.067-0.25-0.2-0.35c-0.134-0.1-0.268-0.15-0.4-0.15
					h-5.398v-14.1c0-0.366-0.185-0.55-0.552-0.55h-3.55c-0.333,0-0.5,0.184-0.5,0.55v36.9c0,0.366,0.167,0.55,0.5,0.55h3.55
					c0.367,0,0.552-0.184,0.552-0.55v-18.95h5.398c0.134,0,0.268-0.05,0.4-0.15C327.883,141.467,327.95,141.333,327.95,141.2
					 M336.25,130.8c0-0.466,0.232-0.7,0.7-0.7h11.898c0.367,0,0.55-0.167,0.55-0.5v-2.8c0-0.366-0.183-0.55-0.55-0.55H334.3
					c-1,0-1.684,0.184-2.05,0.55c-0.4,0.4-0.602,1.067-0.602,2v19.851c0,0.867,0.233,1.517,0.7,1.949
					c0.467,0.434,1.2,0.685,2.2,0.75c1.1,0.102,2.467,0.135,4.1,0.102c1.635-0.034,3.302-0.116,5-0.25
					c1.7-0.167,3.302-0.352,4.802-0.551c1.532-0.199,2.732-0.449,3.6-0.75c0.134-0.065,0.267-0.149,0.4-0.25
					c0.1-0.101,0.133-0.301,0.1-0.601l-0.4-2.25c-0.1-0.366-0.35-0.517-0.75-0.45c-1.198,0.2-2.448,0.385-3.75,0.551
					c-1.267,0.166-2.517,0.301-3.75,0.399c-1.267,0.067-2.448,0.116-3.55,0.15c-1.1,0.032-2.065,0.017-2.898-0.05
					c-0.5,0-0.834-0.084-1-0.25c-0.135-0.135-0.2-0.418-0.2-0.852v-5.55c0.967,0,2,0,3.1,0c1.102,0,2.2-0.017,3.3-0.05
					c1.067-0.034,2.117-0.067,3.15-0.1c1.033-0.034,2-0.083,2.9-0.15c0.3,0,0.448-0.217,0.448-0.65v-2.75
					c0-0.133-0.083-0.216-0.25-0.25c-0.133-0.066-0.267-0.1-0.398-0.1c-0.834,0.066-1.75,0.1-2.75,0.1
					c-0.967,0.034-1.983,0.05-3.05,0.05c-1.067,0.033-2.15,0.05-3.25,0.05c-1.102,0-2.167,0-3.2,0L336.25,130.8 M365.55,141.2v-2.8
					c0-0.133-0.066-0.25-0.2-0.35c-0.133-0.1-0.267-0.15-0.398-0.15h-5.4v-14.1c0-0.366-0.184-0.55-0.55-0.55h-3.55
					c-0.334,0-0.5,0.184-0.5,0.55v36.9c0,0.366,0.166,0.55,0.5,0.55H359c0.366,0,0.55-0.184,0.55-0.55v-18.95h5.4
					c0.133,0,0.267-0.05,0.398-0.15C365.484,141.467,365.55,141.333,365.55,141.2 M373.85,126.55c0-0.133-0.065-0.267-0.2-0.4
					c-0.133-0.133-0.282-0.2-0.448-0.2H369.9c-0.166,0-0.315,0.066-0.448,0.2c-0.102,0.133-0.15,0.267-0.15,0.4v20.601
					c0,0.899,0.25,1.617,0.75,2.149c0.5,0.5,1.233,0.784,2.2,0.851c1.033,0.033,2.148,0.033,3.35,0
					c1.167-0.032,2.367-0.101,3.602-0.199c1.198-0.102,2.365-0.25,3.5-0.45c1.133-0.2,2.166-0.435,3.1-0.7
					c0.2-0.066,0.366-0.148,0.5-0.25c0.134-0.1,0.184-0.232,0.15-0.398l-0.4-2.551c-0.033-0.199-0.134-0.334-0.3-0.399
					c-0.2-0.034-0.367-0.05-0.5-0.05c-0.867,0.231-1.8,0.434-2.8,0.6c-0.967,0.133-1.917,0.268-2.852,0.4
					c-0.967,0.1-1.883,0.166-2.75,0.199c-0.833,0.032-1.6,0-2.3-0.101c-0.467,0-0.7-0.217-0.7-0.649L373.85,126.55 M399.95,123.25
					h-3.4c-0.134,0-0.267,0.05-0.4,0.15c-0.133,0.1-0.198,0.233-0.198,0.4v14.15h-3.75V124.5c0-0.133-0.067-0.25-0.2-0.35
					c-0.134-0.1-0.268-0.15-0.4-0.15h-3.25c-0.133,0-0.267,0.05-0.398,0.15c-0.135,0.1-0.2,0.217-0.2,0.35v34.7
					c0,0.134,0.065,0.267,0.2,0.399c0.133,0.101,0.267,0.149,0.398,0.149h3.25c0.134,0,0.268-0.05,0.4-0.149
					c0.133-0.134,0.2-0.267,0.2-0.399v-17.4h3.75v18.9c0,0.134,0.065,0.25,0.198,0.35c0.135,0.134,0.268,0.2,0.4,0.2h3.4
					c0.398,0,0.6-0.184,0.6-0.55v-36.9C400.55,123.434,400.35,123.25,399.95,123.25 M328.4,22.4c-0.865-0.1-1.698-0.15-2.5-0.15
					c-1.698,0-3.232,0.283-4.6,0.85c-1.333,0.566-2.5,1.367-3.5,2.4c-0.967,1-1.717,2.217-2.25,3.65c-0.533,1.4-0.8,2.95-0.8,4.65
					c0,1.6,0.217,3.083,0.648,4.45c0.468,1.367,1.135,2.566,2,3.6c0.867,1,1.95,1.816,3.25,2.45c1.302,0.6,2.784,0.967,4.45,1.1
					c0.533,0,1.066,0,1.602,0c0.565,0,1.083-0.033,1.55-0.1c0.5-0.066,0.967-0.133,1.398-0.2c0.435-0.067,0.802-0.167,1.102-0.3
					c0.2-0.033,0.315-0.1,0.35-0.2s0.033-0.25,0-0.45l-0.148-2.75c-0.034-0.167-0.084-0.283-0.15-0.35c-0.1-0.1-0.267-0.1-0.5,0
					c-1.467,0.467-3.116,0.583-4.95,0.35c-2-0.233-3.517-1.017-4.55-2.35c-1.066-1.333-1.6-3.083-1.6-5.25
					c0-2.267,0.565-4.1,1.698-5.5c1.102-1.4,2.733-2.1,4.9-2.1c0.7,0,1.434,0.05,2.2,0.15c0.8,0.066,1.5,0.216,2.1,0.45
					c0.233,0.034,0.384,0.017,0.45-0.05c0.134-0.1,0.2-0.233,0.2-0.4l0.35-2.75c0.033-0.267,0.033-0.434,0-0.5
					c-0.065-0.067-0.148-0.117-0.25-0.15C330.05,22.684,329.234,22.5,328.4,22.4 M365.2,44.7c0.065-0.1,0.1-0.217,0.1-0.35v-14.4
					c0-2.434-0.7-4.317-2.1-5.65c-1.367-1.366-3.185-2.05-5.45-2.05c-1.367,0-2.65,0.316-3.852,0.95
					c-1.198,0.633-2.1,1.583-2.698,2.85c-0.5-1.233-1.334-2.183-2.5-2.85c-1.135-0.634-2.4-0.95-3.802-0.95
					c-1.032,0-2.017,0.217-2.948,0.65c-0.935,0.434-1.667,0.95-2.2,1.55l0.05-1.4c0-0.2-0.116-0.3-0.35-0.3h-3.4
					c-0.434,0-0.634,0.167-0.6,0.5c0.065,0.533,0.115,1.267,0.148,2.2c0.033,0.933,0.05,1.917,0.05,2.95v15.9
					c0,0.134,0.034,0.267,0.102,0.4c0.1,0.1,0.217,0.15,0.35,0.15h3.352c0.3,0,0.448-0.167,0.448-0.5v-13
					c0-1.6,0.417-2.85,1.25-3.75c0.834-0.934,2-1.4,3.5-1.4c2.367,0,3.552,1.417,3.552,4.25V44.3c0,0.134,0.05,0.267,0.148,0.4
					c0.102,0.1,0.217,0.15,0.352,0.15h3.35c0.3,0,0.45-0.167,0.45-0.5v-11.6c0-0.934,0.116-1.8,0.35-2.6
					c0.233-0.8,0.566-1.483,1-2.05c0.4-0.6,0.917-1.05,1.55-1.35c0.635-0.367,1.352-0.55,2.15-0.55c1.134,0,1.983,0.4,2.55,1.2
					c0.602,0.8,0.9,1.817,0.9,3.05V44.3c0,0.134,0.05,0.267,0.148,0.4c0.102,0.1,0.218,0.15,0.352,0.15h3.35
					C364.95,44.85,365.067,44.8,365.2,44.7 M405.2,39.55c0-0.133-0.067-0.283-0.2-0.45c-0.134-0.133-0.268-0.2-0.4-0.2h-15.1v-7.35
					h7.3c1.167,0,1.95-0.216,2.35-0.65c0.435-0.466,0.65-1.133,0.65-2V13.45c0-0.167-0.05-0.3-0.15-0.4
					c-0.1-0.1-0.216-0.15-0.35-0.15h-3.55c-0.134,0-0.268,0.05-0.4,0.15c-0.1,0.1-0.148,0.233-0.148,0.4v5.65H379.15v-5.65
					c0-0.134-0.065-0.25-0.198-0.35c-0.135-0.067-0.268-0.1-0.4-0.1h-3.5c-0.134,0-0.25,0.033-0.35,0.1
					c-0.135,0.1-0.2,0.216-0.2,0.35v15.3c0,1.1,0.217,1.85,0.648,2.25c0.435,0.367,1.233,0.55,2.4,0.55h7.35v7.35h-15.1
					c-0.2,0-0.35,0.067-0.45,0.2c-0.1,0.133-0.148,0.283-0.148,0.45v2.6c0,0.133,0.05,0.267,0.148,0.4
					c0.102,0.134,0.25,0.2,0.45,0.2h34.8c0.134,0,0.268-0.066,0.4-0.2c0.133-0.133,0.2-0.267,0.2-0.4V39.55 M379.85,27.8
					c-0.467,0-0.7-0.216-0.7-0.65V22.8H395.2v4.35c0,0.434-0.233,0.65-0.7,0.65H379.85 M436.8,11.25h-3.55
					c-0.334,0-0.5,0.184-0.5,0.55v36.9c0,0.366,0.166,0.55,0.5,0.55h3.55c0.366,0,0.55-0.184,0.55-0.55V29.75h5.4
					c0.133,0,0.267-0.05,0.398-0.15c0.135-0.133,0.2-0.267,0.2-0.4v-2.8c0-0.133-0.065-0.25-0.2-0.35
					c-0.133-0.1-0.267-0.15-0.398-0.15h-5.4V11.8C437.35,11.434,437.166,11.25,436.8,11.25 M427.2,14.8
					c0-0.366-0.185-0.55-0.552-0.55H412.1c-1,0-1.684,0.184-2.05,0.55c-0.4,0.4-0.6,1.067-0.6,2v18.95c0,0.967,0.232,1.633,0.698,2
					c0.468,0.4,1.2,0.633,2.2,0.7c1.102,0.066,2.45,0.066,4.05,0c1.602-0.034,3.25-0.134,4.95-0.3c1.7-0.133,3.334-0.316,4.9-0.55
					c1.6-0.267,2.934-0.55,4-0.85c0.133-0.066,0.267-0.15,0.398-0.25c0.102-0.066,0.135-0.25,0.102-0.55l-0.45-2.35
					c-0.1-0.4-0.35-0.55-0.75-0.45c-1.2,0.2-2.45,0.4-3.75,0.6c-1.366,0.167-2.684,0.316-3.95,0.45
					c-1.267,0.133-2.482,0.216-3.648,0.25c-1.135,0.066-2.117,0.05-2.95-0.05c-0.5-0.033-0.834-0.117-1-0.25
					c-0.134-0.133-0.2-0.4-0.2-0.8V18.8c0-0.466,0.233-0.7,0.7-0.7h11.898c0.367,0,0.552-0.167,0.552-0.5V14.8 M536.2,154.3
					c-0.602,0.567-0.9,1.284-0.9,2.15s0.3,1.6,0.9,2.2c0.6,0.6,1.333,0.898,2.198,0.898c0.834,0,1.552-0.3,2.15-0.898
					c0.566-0.602,0.85-1.334,0.85-2.2s-0.282-1.583-0.85-2.15c-0.6-0.6-1.316-0.899-2.15-0.899
					C537.533,153.4,536.8,153.7,536.2,154.3 M456,154.15v-2.602c0-0.134-0.066-0.283-0.2-0.449c-0.134-0.134-0.267-0.199-0.4-0.199
					h-15.1v-7.352h7.3c1.167,0,1.95-0.216,2.352-0.648c0.433-0.467,0.648-1.134,0.648-2v-15.45c0-0.167-0.05-0.3-0.148-0.4
					c-0.102-0.1-0.218-0.15-0.352-0.15h-3.55c-0.134,0-0.267,0.05-0.4,0.15c-0.1,0.1-0.148,0.233-0.148,0.4v5.65h-16.05v-5.65
					c0-0.134-0.067-0.25-0.2-0.35c-0.134-0.067-0.268-0.1-0.4-0.1h-3.5c-0.133,0-0.25,0.033-0.35,0.1c-0.134,0.1-0.2,0.216-0.2,0.35
					v15.3c0,1.1,0.217,1.85,0.65,2.25c0.433,0.367,1.232,0.55,2.398,0.55h7.352v7.351H420.6c-0.2,0-0.35,0.066-0.45,0.199
					c-0.1,0.135-0.148,0.283-0.148,0.45v2.601c0,0.134,0.05,0.267,0.148,0.399c0.102,0.134,0.25,0.2,0.45,0.2h34.8
					c0.135,0,0.268-0.066,0.4-0.2S456,154.283,456,154.15 M430.65,139.8c-0.466,0-0.698-0.216-0.698-0.65v-4.35H446v4.35
					c0,0.434-0.233,0.65-0.7,0.65H430.65 M472.8,139.05c0,0.167,0.066,0.3,0.2,0.4c0.133,0.133,0.25,0.2,0.35,0.2h6v19.7
					c0,0.4,0.217,0.602,0.65,0.602h3.25c0.333,0,0.5-0.2,0.5-0.602V124.4c0-0.333-0.167-0.5-0.5-0.5H480
					c-0.435,0-0.65,0.167-0.65,0.5v11.45h-6c-0.1,0-0.217,0.05-0.35,0.15c-0.134,0.1-0.2,0.217-0.2,0.35V139.05 M465.9,126.05
					c0,2.534-0.133,4.917-0.398,7.15c-0.233,2.2-0.65,4.25-1.25,6.15c-0.602,1.933-1.367,3.716-2.3,5.35
					c-0.968,1.634-2.167,3.134-3.602,4.5c-0.434,0.399-0.45,0.8-0.05,1.2l1.8,1.75c0.435,0.398,0.852,0.398,1.25,0
					c1.435-1.435,2.667-2.867,3.7-4.301c1.033-1.5,1.917-3.101,2.65-4.801c0.333,0.801,0.716,1.616,1.148,2.45
					c0.467,0.8,0.983,1.55,1.55,2.25c0.534,0.733,1.084,1.416,1.65,2.05c0.566,0.602,1.134,1.102,1.7,1.5
					c0.434,0.4,0.85,0.385,1.25-0.05l1.8-1.899c0.333-0.334,0.3-0.666-0.1-1c-0.667-0.566-1.367-1.283-2.102-2.149
					c-0.7-0.9-1.383-1.866-2.05-2.9c-0.667-1.066-1.267-2.183-1.8-3.35s-0.935-2.317-1.2-3.45c0.3-1.5,0.5-3.1,0.6-4.8
					c0.135-1.667,0.2-3.5,0.2-5.5c0-0.167-0.065-0.317-0.2-0.45c-0.133-0.1-0.282-0.15-0.448-0.15l-3.302-0.15
					C466.067,125.45,465.9,125.65,465.9,126.05 M491,123.25h-3.45c-0.366,0-0.55,0.184-0.55,0.55v37c0,0.333,0.184,0.5,0.55,0.5H491
					c0.366,0,0.55-0.167,0.55-0.5v-37C491.55,123.434,491.366,123.25,491,123.25 M508.4,144.65c0-0.367-0.198-0.551-0.6-0.551h-3.45
					c-0.398,0-0.6,0.184-0.6,0.551v6.25h-7.95c-0.4,0-0.6,0.217-0.6,0.648v2.602c0,0.133,0.05,0.266,0.148,0.398
					c0.102,0.135,0.25,0.2,0.45,0.2h34.8c0.134,0,0.268-0.065,0.4-0.2c0.133-0.134,0.2-0.267,0.2-0.398v-2.602
					c0-0.167-0.067-0.316-0.2-0.449c-0.134-0.134-0.268-0.199-0.4-0.199h-8v-6.25c0-0.168-0.05-0.301-0.148-0.4
					c-0.135-0.1-0.283-0.15-0.45-0.15h-3.45c-0.4,0-0.6,0.185-0.6,0.551v6.25H508.4V144.65 M508.15,125.95
					c-1.565,0.366-2.948,0.917-4.148,1.65c-1.2,0.767-2.15,1.683-2.852,2.75c-0.666,1.1-1,2.333-1,3.7c0,1.434,0.334,2.7,1,3.8
					c0.7,1.066,1.65,1.966,2.852,2.7c1.201,0.734,2.583,1.284,4.148,1.65c1.567,0.366,3.233,0.55,5,0.55
					c1.802,0,3.5-0.184,5.102-0.55c1.565-0.367,2.95-0.917,4.148-1.65c1.2-0.733,2.135-1.633,2.802-2.7
					c0.698-1.1,1.05-2.367,1.05-3.8c0-1.366-0.352-2.6-1.05-3.7c-0.667-1.067-1.602-1.983-2.802-2.75
					c-1.198-0.733-2.583-1.284-4.148-1.65c-1.602-0.367-3.3-0.55-5.102-0.55C511.383,125.4,509.717,125.583,508.15,125.95
					 M504.9,134.1c0-0.767,0.233-1.45,0.7-2.05c0.467-0.633,1.084-1.15,1.852-1.55c0.767-0.434,1.648-0.75,2.648-0.95
					c1-0.233,2.033-0.35,3.102-0.35c1.032,0,2.05,0.116,3.05,0.35c1,0.2,1.883,0.517,2.648,0.95c0.802,0.4,1.435,0.917,1.9,1.55
					c0.467,0.6,0.7,1.284,0.7,2.05c0,0.8-0.233,1.517-0.7,2.15c-0.467,0.6-1.1,1.1-1.9,1.5c-0.767,0.434-1.648,0.767-2.648,1
					c-1,0.2-2.018,0.3-3.05,0.3c-1.067,0-2.102-0.1-3.102-0.3c-1-0.233-1.883-0.566-2.648-1c-0.768-0.4-1.385-0.9-1.852-1.5
					C505.133,135.617,504.9,134.9,504.9,134.1 M487.8,35.6c0-0.9-0.184-1.55-0.55-1.95c-0.367-0.367-1.102-0.55-2.2-0.55H464.6
					c-0.2,0-0.35,0.05-0.45,0.15c-0.133,0.133-0.198,0.267-0.198,0.4v2.65c0,0.134,0.065,0.25,0.198,0.35
					c0.102,0.1,0.25,0.15,0.45,0.15h18.2c0.233,0,0.366,0.034,0.4,0.1c0.065,0.067,0.1,0.233,0.1,0.5v1.4
					c0,0.267-0.033,0.434-0.1,0.5c-0.034,0.067-0.167,0.1-0.4,0.1h-16.05c-1.066,0-1.783,0.2-2.15,0.6
					c-0.366,0.367-0.55,0.983-0.55,1.85v4.8c0,0.867,0.2,1.5,0.6,1.9c0.367,0.4,1.067,0.6,2.102,0.6h21.5
					c0.1,0,0.217-0.066,0.35-0.2c0.135-0.1,0.2-0.217,0.2-0.35v-2.55c0-0.2-0.065-0.35-0.2-0.45c-0.133-0.1-0.267-0.15-0.398-0.15
					H469.15c-0.232,0-0.383-0.017-0.448-0.05c-0.067-0.033-0.102-0.167-0.102-0.4v-1.65c0-0.233,0.033-0.383,0.102-0.45
					c0.065-0.066,0.198-0.1,0.398-0.1h15.95c1.1,0,1.833-0.167,2.2-0.5c0.366-0.333,0.55-0.966,0.55-1.9V35.6 M487.85,11.8
					c0-0.366-0.166-0.55-0.5-0.55h-3.55c-0.366,0-0.55,0.184-0.55,0.55v7.45H477c-0.268-0.967-0.667-1.883-1.2-2.75
					c-0.533-0.833-1.2-1.55-2-2.15s-1.717-1.083-2.75-1.45c-1.033-0.367-2.167-0.55-3.4-0.55c-1.433,0-2.75,0.233-3.948,0.7
					c-1.167,0.5-2.167,1.15-3,1.95c-0.834,0.8-1.468,1.75-1.9,2.85c-0.467,1.066-0.7,2.2-0.7,3.4c0,1.167,0.233,2.283,0.7,3.35
					c0.434,1.066,1.066,2.017,1.9,2.85c0.833,0.8,1.833,1.45,3,1.95c1.198,0.467,2.517,0.7,3.948,0.7c1.268,0,2.417-0.184,3.45-0.55
					c1.066-0.366,2-0.866,2.8-1.5c0.802-0.633,1.468-1.383,2-2.25c0.534-0.866,0.9-1.8,1.102-2.8h6.25v7.75
					c0,0.367,0.184,0.55,0.55,0.55h3.55c0.334,0,0.5-0.183,0.5-0.55L487.85,11.8 M472.8,21.25c0,0.7-0.116,1.35-0.35,1.95
					c-0.233,0.633-0.584,1.167-1.052,1.6c-0.433,0.467-0.982,0.85-1.648,1.15c-0.634,0.267-1.334,0.4-2.102,0.4
					c-0.767,0-1.466-0.133-2.1-0.4c-0.634-0.3-1.167-0.684-1.6-1.15c-0.468-0.433-0.817-0.966-1.052-1.6
					c-0.232-0.6-0.35-1.25-0.35-1.95s0.116-1.35,0.35-1.95c0.233-0.633,0.584-1.183,1.052-1.65c0.433-0.466,0.966-0.85,1.6-1.15
					c0.634-0.267,1.333-0.4,2.1-0.4c0.768,0,1.468,0.133,2.102,0.4c0.666,0.3,1.217,0.684,1.648,1.15
					c0.468,0.467,0.817,1.017,1.052,1.65C472.684,19.9,472.8,20.55,472.8,21.25 M513.6,14.75c-0.398-0.333-1.116-0.5-2.148-0.5
					H498.7c-1,0-1.718,0.184-2.15,0.55c-0.4,0.4-0.6,1.1-0.6,2.1v18.3c0,1.066,0.198,1.8,0.6,2.2c0.434,0.4,1.217,0.6,2.35,0.6
					h12.552c1.032,0,1.75-0.2,2.148-0.6c0.435-0.4,0.65-1.133,0.65-2.2V16.9C514.25,15.833,514.033,15.117,513.6,14.75 M509.55,18.1
					c0.066,0.033,0.1,0.167,0.1,0.4v15.25c0,0.233-0.032,0.383-0.1,0.45c-0.066,0.033-0.2,0.05-0.4,0.05H501
					c-0.2,0-0.334-0.017-0.4-0.05c-0.065-0.067-0.1-0.217-0.1-0.45v-15.3c0-0.2,0.033-0.333,0.1-0.4c0.066-0.033,0.2-0.05,0.4-0.05
					h8.148C509.35,18,509.484,18.033,509.55,18.1 M529.55,29.5c0.134-0.1,0.2-0.233,0.2-0.4v-2.8c0-0.133-0.066-0.25-0.2-0.35
					c-0.133-0.067-0.267-0.1-0.4-0.1h-5.398V11.8c0-0.366-0.185-0.55-0.55-0.55h-3.552c-0.333,0-0.5,0.184-0.5,0.55v36.9
					c0,0.366,0.167,0.55,0.5,0.55h3.552c0.365,0,0.55-0.184,0.55-0.55V29.65h5.398C529.283,29.65,529.417,29.6,529.55,29.5
					 M538.5,14.15c0-0.133-0.066-0.267-0.2-0.4c-0.1-0.1-0.233-0.15-0.4-0.15h-3.448c-0.135,0-0.268,0.05-0.4,0.15
					c-0.1,0.133-0.15,0.267-0.15,0.4v20.8c0,0.9,0.218,1.6,0.65,2.1c0.467,0.5,1.217,0.817,2.25,0.95
					c1.134,0.1,2.483,0.117,4.05,0.05c1.602-0.066,3.233-0.2,4.9-0.4c1.633-0.2,3.217-0.417,4.75-0.65
					c1.5-0.267,2.75-0.533,3.75-0.8c0.232-0.034,0.417-0.134,0.55-0.3c0.134-0.167,0.184-0.333,0.15-0.5l-0.45-2.25
					c-0.066-0.167-0.15-0.316-0.25-0.45c-0.134-0.167-0.352-0.217-0.65-0.15c-1.1,0.267-2.283,0.5-3.55,0.7
					c-1.233,0.233-2.517,0.434-3.85,0.6c-1.268,0.133-2.518,0.216-3.75,0.25c-1.2,0.066-2.283,0.05-3.25-0.05
					c-0.268-0.033-0.45-0.083-0.552-0.15c-0.1-0.066-0.148-0.216-0.148-0.45L538.5,14.15 M567.15,29.6
					c0.135-0.133,0.2-0.267,0.2-0.4v-2.8c0-0.133-0.065-0.25-0.2-0.35c-0.133-0.1-0.267-0.15-0.398-0.15h-5.4V11.8
					c0-0.366-0.183-0.55-0.55-0.55h-3.55c-0.333,0-0.5,0.184-0.5,0.55v36.9c0,0.366,0.167,0.55,0.5,0.55h3.55
					c0.367,0,0.55-0.184,0.55-0.55V29.75h5.4C566.883,29.75,567.017,29.7,567.15,29.6 M600.3,14.8c0-0.366-0.184-0.55-0.55-0.55
					H585.6c-1,0-1.7,0.184-2.1,0.55c-0.367,0.4-0.55,1.067-0.55,2v18.95c0,0.967,0.232,1.633,0.698,2
					c0.468,0.4,1.185,0.633,2.15,0.7c1.1,0.066,2.45,0.083,4.05,0.05c1.634-0.033,3.3-0.133,5-0.3c1.667-0.134,3.3-0.3,4.9-0.5
					c1.6-0.233,2.934-0.517,4-0.85c0.133-0.034,0.25-0.1,0.35-0.2c0.134-0.1,0.167-0.3,0.102-0.6l-0.4-2.25
					c-0.066-0.433-0.3-0.583-0.7-0.45c-1.2,0.2-2.467,0.383-3.8,0.55s-2.65,0.3-3.95,0.4c-1.3,0.1-2.517,0.167-3.648,0.2
					c-1.167,0.033-2.15,0.017-2.95-0.05c-0.533-0.034-0.867-0.117-1-0.25c-0.167-0.134-0.25-0.4-0.25-0.8V18.8
					c0-0.466,0.25-0.7,0.75-0.7h11.5c0.366,0,0.55-0.167,0.55-0.5L600.3,14.8 M607.85,11.8v11.85h-9.5c-0.1,0-0.217,0.05-0.35,0.15
					c-0.134,0.1-0.2,0.25-0.2,0.45v2.6c0,0.233,0.066,0.4,0.2,0.5c0.133,0.1,0.25,0.15,0.35,0.15h9.5v21.2
					c0,0.366,0.167,0.55,0.5,0.55h3.602c0.333,0,0.5-0.184,0.5-0.55V11.8c0-0.366-0.167-0.55-0.5-0.55h-3.602
					C608.017,11.25,607.85,11.434,607.85,11.8 M626.45,268.45c0,0.866,0.3,1.6,0.898,2.2c0.602,0.6,1.334,0.898,2.2,0.898
					c0.833,0,1.55-0.3,2.15-0.898c0.565-0.602,0.85-1.334,0.85-2.2s-0.283-1.583-0.85-2.15c-0.602-0.6-1.317-0.899-2.15-0.899
					c-0.866,0-1.6,0.301-2.2,0.899C626.75,266.867,626.45,267.584,626.45,268.45 M622.35,266.15v-2.602
					c0-0.167-0.065-0.316-0.2-0.449c-0.133-0.134-0.267-0.199-0.398-0.199h-8v-6.25c0-0.168-0.05-0.301-0.15-0.4
					c-0.133-0.1-0.283-0.15-0.45-0.15h-3.45c-0.4,0-0.602,0.185-0.602,0.551v6.25h-9.55v-6.25c0-0.366-0.2-0.551-0.6-0.551h-3.45
					c-0.4,0-0.602,0.185-0.602,0.551v6.25h-7.948c-0.4,0-0.602,0.218-0.602,0.649v2.601c0,0.134,0.05,0.267,0.15,0.399
					c0.1,0.134,0.25,0.2,0.45,0.2h34.8c0.133,0,0.267-0.066,0.398-0.2C622.283,266.416,622.35,266.283,622.35,266.15 M617.4,246.05
					c0-1.366-0.35-2.6-1.05-3.7c-0.667-1.065-1.6-1.981-2.8-2.75c-1.2-0.731-2.583-1.283-4.15-1.648c-1.6-0.366-3.3-0.551-5.1-0.551
					c-1.767,0-3.434,0.185-5,0.551c-1.566,0.365-2.95,0.917-4.15,1.648c-1.198,0.769-2.148,1.685-2.85,2.75
					c-0.667,1.102-1,2.334-1,3.7c0,1.435,0.333,2.7,1,3.8c0.7,1.066,1.65,1.967,2.85,2.7c1.2,0.733,2.584,1.284,4.15,1.65
					s3.233,0.55,5,0.55c1.8,0,3.5-0.184,5.1-0.55c1.567-0.366,2.95-0.917,4.15-1.65s2.133-1.634,2.8-2.7
					C617.05,248.75,617.4,247.482,617.4,246.05 M601.25,241.55c1-0.233,2.033-0.35,3.1-0.35c1.033,0,2.05,0.116,3.05,0.35
					c1,0.2,1.885,0.517,2.65,0.95c0.8,0.4,1.434,0.916,1.9,1.55c0.467,0.601,0.698,1.284,0.698,2.05c0,0.801-0.231,1.519-0.698,2.15
					c-0.468,0.6-1.102,1.1-1.9,1.5c-0.767,0.434-1.65,0.768-2.65,1c-1,0.2-2.017,0.3-3.05,0.3c-1.065,0-2.1-0.1-3.1-0.3
					c-1-0.232-1.884-0.566-2.65-1c-0.767-0.4-1.383-0.9-1.85-1.5c-0.467-0.633-0.7-1.35-0.7-2.15c0-0.766,0.233-1.449,0.7-2.05
					c0.467-0.634,1.083-1.149,1.85-1.55C599.366,242.066,600.25,241.75,601.25,241.55 M661.45,48.05V45.2
					c0-0.1-0.067-0.217-0.2-0.35c-0.134-0.1-0.268-0.15-0.4-0.15H642.45c-0.268,0-0.45-0.034-0.552-0.1
					c-0.1-0.1-0.148-0.284-0.148-0.55V36.5c0-0.133-0.066-0.267-0.2-0.4c-0.133-0.1-0.267-0.15-0.4-0.15H637.7
					c-0.135,0-0.268,0.05-0.4,0.15c-0.133,0.133-0.2,0.267-0.2,0.4v9.2c0,1.033,0.217,1.767,0.65,2.2
					c0.398,0.434,1.2,0.65,2.398,0.65h20.7c0.134,0,0.268-0.033,0.4-0.1C661.383,48.35,661.45,48.217,661.45,48.05 M648.7,17.1
					c0.032-0.2,0.065-0.417,0.1-0.65c0.033-0.2,0.05-0.367,0.05-0.5c0-0.867-0.232-1.483-0.7-1.85
					c-0.466-0.367-1.282-0.55-2.448-0.55h-13.45c-0.367,0-0.55,0.184-0.55,0.55v2.7c0,0.134,0.05,0.267,0.148,0.4
					c0.067,0.1,0.185,0.15,0.352,0.15H643c0.5,0,0.75,0.1,0.75,0.3c0,0.133-0.066,0.417-0.2,0.85c-0.767,2.566-2.2,4.917-4.3,7.05
					c-2.102,2.134-4.9,4-8.4,5.6c-0.3,0.133-0.467,0.3-0.5,0.5c-0.033,0.233,0,0.45,0.102,0.65l1,2.05
					c0.232,0.5,0.666,0.617,1.3,0.35c4.267-1.8,7.684-4.067,10.25-6.8c2.565-2.733,4.398-6,5.5-9.8c0.033-0.067,0.065-0.2,0.1-0.4
					C648.633,17.533,648.667,17.333,648.7,17.1 M659.75,11.25h-3.602c-0.333,0-0.5,0.184-0.5,0.55v25.7c0,0.333,0.167,0.5,0.5,0.5
					h3.602c0.333,0,0.5-0.167,0.5-0.5V11.8C660.25,11.434,660.083,11.25,659.75,11.25 M669.1,14.25c-0.366,0-0.55,0.167-0.55,0.5
					v2.8c0,0.367,0.184,0.55,0.55,0.55h11.25c0.5,0,0.817,0.083,0.95,0.25c0.167,0.167,0.2,0.517,0.1,1.05
					c-0.532,3.633-2.017,7-4.448,10.1c-2.468,3.1-5.685,5.7-9.65,7.8c-0.2,0.134-0.316,0.3-0.35,0.5
					c-0.067,0.233-0.033,0.45,0.1,0.65l1.6,2.25c0.135,0.233,0.317,0.35,0.552,0.35c0.233,0,0.448-0.05,0.648-0.15
					c2.467-1.367,4.7-2.917,6.7-4.65c1.967-1.733,3.65-3.6,5.05-5.6c1.4-2,2.5-4.117,3.3-6.35c0.802-2.267,1.283-4.616,1.45-7.05
					c0.102-1-0.05-1.75-0.45-2.25c-0.365-0.5-1.148-0.75-2.35-0.75H669.1 M692.5,11.25c-0.367,0-0.55,0.184-0.55,0.55v36.9
					c0,0.366,0.183,0.55,0.55,0.55h3.55c0.367,0,0.55-0.184,0.55-0.55v-19h5.352c0.166,0,0.315-0.05,0.448-0.15
					c0.102-0.1,0.15-0.233,0.15-0.4v-2.8c0-0.133-0.05-0.25-0.15-0.35c-0.133-0.1-0.282-0.15-0.448-0.15H696.6V11.8
					c0-0.366-0.183-0.55-0.55-0.55H692.5 M748.5,40.8c-0.5,0.5-0.75,1.117-0.75,1.85c0,0.7,0.25,1.3,0.75,1.8
					c0.467,0.5,1.065,0.75,1.8,0.75c0.7,0,1.316-0.25,1.85-0.75c0.534-0.5,0.802-1.1,0.802-1.8c0-0.733-0.268-1.35-0.802-1.85
					c-0.532-0.5-1.148-0.75-1.85-0.75C749.567,40.05,748.967,40.3,748.5,40.8 M731,32.65c0-0.167-0.05-0.3-0.15-0.4
					c-0.133-0.1-0.283-0.15-0.45-0.15h-3.448c-0.4,0-0.602,0.183-0.602,0.55v6.25h-9.55v-6.25c0-0.367-0.2-0.55-0.6-0.55h-3.45
					c-0.4,0-0.602,0.183-0.602,0.55v6.25H704.2c-0.4,0-0.602,0.217-0.602,0.65v2.6c0,0.133,0.05,0.267,0.15,0.4
					c0.1,0.134,0.25,0.2,0.45,0.2H739c0.133,0,0.267-0.066,0.398-0.2c0.135-0.133,0.2-0.267,0.2-0.4v-2.6
					c0-0.167-0.065-0.316-0.2-0.45c-0.133-0.133-0.267-0.2-0.398-0.2h-8V32.65 M733.6,18.35c-0.667-1.067-1.6-1.983-2.8-2.75
					c-1.2-0.733-2.583-1.284-4.15-1.65c-1.6-0.367-3.3-0.55-5.1-0.55c-1.767,0-3.434,0.184-5,0.55
					c-1.566,0.366-2.95,0.917-4.15,1.65c-1.198,0.767-2.148,1.683-2.85,2.75c-0.667,1.1-1,2.333-1,3.7c0,1.434,0.333,2.7,1,3.8
					c0.7,1.066,1.65,1.966,2.85,2.7c1.2,0.733,2.584,1.284,4.15,1.65c1.566,0.366,3.233,0.55,5,0.55c1.8,0,3.5-0.184,5.1-0.55
					c1.567-0.367,2.95-0.917,4.15-1.65c1.2-0.733,2.133-1.633,2.8-2.7c0.7-1.1,1.05-2.367,1.05-3.8
					C734.65,20.684,734.3,19.45,733.6,18.35 M729.9,22.1c0,0.8-0.231,1.517-0.698,2.15c-0.468,0.6-1.102,1.1-1.9,1.5
					c-0.767,0.434-1.65,0.767-2.65,1c-1,0.2-2.017,0.3-3.05,0.3c-1.065,0-2.1-0.1-3.1-0.3c-1-0.233-1.884-0.566-2.65-1
					c-0.767-0.4-1.383-0.9-1.85-1.5c-0.467-0.633-0.7-1.35-0.7-2.15c0-0.767,0.233-1.45,0.7-2.05c0.467-0.633,1.083-1.15,1.85-1.55
					c0.768-0.434,1.65-0.75,2.65-0.95c1-0.233,2.033-0.35,3.1-0.35c1.033,0,2.05,0.116,3.05,0.35c1,0.2,1.885,0.517,2.65,0.95
					c0.8,0.4,1.435,0.917,1.9,1.55C729.667,20.65,729.9,21.333,729.9,22.1 M756.8,16.2c-0.733-0.667-1.616-1.184-2.65-1.55
					c-1-0.367-2.083-0.55-3.25-0.55c-0.398,0-0.865,0.033-1.398,0.1c-0.533,0.033-1.083,0.1-1.65,0.2
					c-0.533,0.1-1.065,0.217-1.6,0.35c-0.566,0.167-1.066,0.316-1.5,0.45c-0.3,0.133-0.45,0.316-0.45,0.55v3.35
					c0,0.466,0.283,0.566,0.85,0.3c0.9-0.4,1.769-0.683,2.602-0.85c0.8-0.167,1.717-0.25,2.75-0.25c1.167,0,2.167,0.333,3,1
					s1.25,1.634,1.25,2.9c0,0.966-0.3,2-0.9,3.1c-0.565,1.067-1.25,2.067-2.05,3c-0.566,0.634-1.066,1.267-1.5,1.9
					c-0.4,0.667-0.75,1.333-1.05,2c-0.268,0.6-0.483,1.333-0.65,2.2c-0.133,0.867-0.2,1.717-0.2,2.55c0,0.267,0.034,0.433,0.102,0.5
					c0.1,0.1,0.25,0.15,0.45,0.15h3c0.433,0,0.648-0.25,0.648-0.75c0-1,0.117-1.9,0.352-2.7c0.232-0.8,0.583-1.533,1.05-2.2
					c0.434-0.567,0.967-1.317,1.6-2.25c0.634-0.9,1.317-1.833,2.05-2.8c0.435-0.6,0.802-1.333,1.102-2.2
					c0.232-0.833,0.35-1.9,0.35-3.2c0-1.066-0.2-2.05-0.6-2.95C758.1,17.65,757.533,16.867,756.8,16.2 M1126.65,251.1
					c2.367,0,3.552,1.418,3.552,4.25V269.2c0,0.134,0.05,0.267,0.148,0.399c0.102,0.101,0.218,0.149,0.352,0.149h3.35
					c0.3,0,0.45-0.166,0.45-0.5v-11.601c0-0.934,0.115-1.801,0.35-2.601s0.566-1.483,1-2.05c0.4-0.6,0.917-1.05,1.55-1.35
					c0.635-0.367,1.352-0.551,2.15-0.551c1.133,0,1.983,0.399,2.55,1.199c0.602,0.801,0.9,1.817,0.9,3.051V269.2
					c0,0.134,0.05,0.267,0.148,0.399c0.102,0.101,0.218,0.149,0.352,0.149h3.35c0.102,0,0.217-0.05,0.352-0.149
					c0.065-0.101,0.1-0.218,0.1-0.351V254.85c0-2.435-0.7-4.316-2.1-5.649c-1.367-1.366-3.185-2.05-5.45-2.05
					c-1.367,0-2.65,0.315-3.851,0.949c-1.199,0.633-2.101,1.584-2.699,2.851c-0.5-1.233-1.334-2.185-2.5-2.851
					c-1.135-0.634-2.4-0.949-3.801-0.949c-1.033,0-2.018,0.217-2.949,0.648c-0.935,0.434-1.667,0.95-2.2,1.551l0.05-1.399
					c0-0.2-0.117-0.3-0.35-0.3h-3.4c-0.434,0-0.634,0.166-0.6,0.5c0.066,0.533,0.116,1.266,0.148,2.199
					c0.033,0.933,0.051,1.916,0.051,2.949v15.9c0,0.134,0.033,0.267,0.101,0.398c0.101,0.102,0.217,0.15,0.351,0.15h3.351
					c0.3,0,0.449-0.166,0.449-0.5v-13c0-1.6,0.417-2.85,1.25-3.75C1123.984,251.566,1125.15,251.1,1126.65,251.1 M1110.4,247.3
					c-0.865-0.1-1.698-0.149-2.5-0.149c-1.698,0-3.232,0.283-4.6,0.851c-1.333,0.565-2.5,1.367-3.5,2.399
					c-0.967,1-1.717,2.218-2.25,3.649c-0.533,1.4-0.8,2.95-0.8,4.65c0,1.6,0.217,3.083,0.648,4.45c0.468,1.365,1.135,2.565,2,3.6
					c0.867,1,1.95,1.816,3.25,2.45c1.302,0.6,2.783,0.966,4.45,1.1c0.533,0,1.066,0,1.602,0c0.565,0,1.082-0.032,1.55-0.1
					c0.5-0.067,0.967-0.134,1.398-0.2c0.435-0.066,0.802-0.166,1.102-0.3c0.2-0.034,0.315-0.101,0.35-0.2s0.033-0.25,0-0.45
					l-0.149-2.75c-0.033-0.167-0.084-0.282-0.149-0.35c-0.101-0.101-0.267-0.101-0.5,0c-1.467,0.466-3.117,0.583-4.95,0.35
					c-2-0.233-3.517-1.017-4.55-2.35c-1.066-1.333-1.601-3.083-1.601-5.25c0-2.267,0.566-4.101,1.699-5.5
					c1.102-1.4,2.733-2.101,4.9-2.101c0.7,0,1.434,0.051,2.2,0.149c0.8,0.065,1.5,0.217,2.1,0.45
					c0.233,0.033,0.384,0.017,0.45-0.051c0.133-0.101,0.199-0.233,0.199-0.399l0.351-2.75c0.033-0.267,0.033-0.435,0-0.5
					c-0.066-0.065-0.149-0.117-0.25-0.149C1112.05,247.584,1111.234,247.4,1110.4,247.3 M1112.75,135.25l0.35-2.75
					c0.033-0.267,0.033-0.434,0-0.5c-0.065-0.066-0.149-0.117-0.25-0.15c-0.8-0.267-1.616-0.45-2.45-0.55
					c-0.865-0.1-1.698-0.15-2.5-0.15c-1.698,0-3.232,0.284-4.6,0.85c-1.333,0.566-2.5,1.367-3.5,2.4c-0.967,1-1.717,2.217-2.25,3.65
					c-0.533,1.4-0.8,2.95-0.8,4.65c0,1.6,0.217,3.083,0.648,4.45c0.468,1.367,1.135,2.566,2,3.6c0.867,1,1.95,1.816,3.25,2.45
					c1.302,0.6,2.783,0.966,4.45,1.1c0.533,0,1.066,0,1.602,0c0.565,0,1.082-0.032,1.55-0.1c0.5-0.067,0.967-0.134,1.398-0.2
					c0.435-0.066,0.802-0.166,1.102-0.3c0.2-0.034,0.315-0.101,0.35-0.2s0.033-0.25,0-0.45l-0.149-2.75
					c-0.033-0.167-0.084-0.282-0.149-0.35c-0.101-0.101-0.267-0.101-0.5,0c-1.467,0.466-3.117,0.583-4.95,0.35
					c-2-0.233-3.517-1.017-4.55-2.35c-1.066-1.333-1.601-3.083-1.601-5.25c0-2.267,0.566-4.101,1.699-5.5
					c1.102-1.4,2.733-2.1,4.9-2.1c0.7,0,1.434,0.05,2.2,0.15c0.8,0.066,1.5,0.217,2.1,0.45c0.233,0.033,0.384,0.017,0.45-0.05
					C1112.683,135.55,1112.75,135.417,1112.75,135.25 M1103.45,23.15c-1.367,0-2.65,0.317-3.852,0.95
					c-1.201,0.633-2.1,1.583-2.7,2.85c-0.5-1.233-1.333-2.184-2.5-2.85c-1.133-0.633-2.398-0.95-3.8-0.95
					c-1.033,0-2.017,0.217-2.95,0.65c-0.933,0.434-1.666,0.95-2.198,1.55l0.05-1.4c0-0.2-0.117-0.3-0.351-0.3h-3.399
					c-0.435,0-0.634,0.167-0.601,0.5c0.066,0.534,0.116,1.267,0.149,2.2s0.05,1.917,0.05,2.95v15.9c0,0.133,0.033,0.267,0.102,0.4
					c0.1,0.1,0.216,0.15,0.35,0.15h3.35c0.302,0,0.45-0.167,0.45-0.5v-13c0-1.6,0.417-2.85,1.25-3.75c0.833-0.934,2-1.4,3.5-1.4
					c2.367,0,3.55,1.417,3.55,4.25V45.2c0,0.133,0.052,0.267,0.15,0.4c0.1,0.1,0.217,0.15,0.35,0.15h3.352
					c0.3,0,0.45-0.167,0.45-0.5v-11.6c0-0.933,0.115-1.8,0.35-2.6c0.233-0.8,0.566-1.483,1-2.05c0.4-0.6,0.917-1.05,1.55-1.35
					c0.635-0.367,1.352-0.55,2.15-0.55c1.133,0,1.982,0.4,2.55,1.2c0.601,0.8,0.9,1.817,0.9,3.05V45.2c0,0.133,0.05,0.267,0.148,0.4
					c0.102,0.1,0.218,0.15,0.352,0.15h3.35c0.101,0,0.217-0.05,0.351-0.15c0.066-0.1,0.101-0.217,0.101-0.35v-14.4
					c0-2.434-0.7-4.317-2.101-5.65C1107.532,23.833,1105.717,23.15,1103.45,23.15 M1147.3,138.85c0-2.434-0.7-4.316-2.1-5.649
					c-1.367-1.367-3.185-2.05-5.45-2.05c-1.367,0-2.65,0.317-3.851,0.95c-1.199,0.633-2.101,1.583-2.699,2.85
					c-0.5-1.233-1.334-2.184-2.5-2.85c-1.135-0.633-2.4-0.95-3.801-0.95c-1.033,0-2.018,0.217-2.949,0.65
					c-0.935,0.434-1.667,0.95-2.2,1.55l0.05-1.4c0-0.2-0.117-0.3-0.35-0.3h-3.4c-0.434,0-0.634,0.167-0.6,0.5
					c0.066,0.534,0.116,1.267,0.148,2.2c0.033,0.933,0.051,1.917,0.051,2.95v15.9c0,0.134,0.033,0.267,0.101,0.399
					c0.101,0.101,0.217,0.149,0.351,0.149h3.351c0.3,0,0.449-0.166,0.449-0.5v-13c0-1.601,0.417-2.85,1.25-3.75
					c0.834-0.934,2-1.4,3.5-1.4c2.366,0,3.551,1.417,3.551,4.25v13.85c0,0.134,0.05,0.267,0.149,0.398
					c0.101,0.102,0.217,0.15,0.351,0.15h3.35c0.3,0,0.45-0.166,0.45-0.5v-11.6c0-0.934,0.116-1.801,0.35-2.601s0.566-1.483,1-2.05
					c0.4-0.6,0.917-1.05,1.551-1.35c0.634-0.367,1.351-0.55,2.149-0.55c1.134,0,1.983,0.4,2.55,1.2c0.602,0.8,0.9,1.817,0.9,3.05
					v13.851c0,0.134,0.05,0.267,0.149,0.399c0.101,0.101,0.217,0.149,0.351,0.149h3.35c0.102,0,0.218-0.05,0.352-0.149
					c0.066-0.101,0.1-0.218,0.1-0.351V138.85 M1139.75,23.15c-1.367,0-2.65,0.317-3.852,0.95c-1.198,0.633-2.1,1.583-2.698,2.85
					c-0.5-1.233-1.334-2.184-2.5-2.85c-1.135-0.633-2.4-0.95-3.802-0.95c-1.032,0-2.017,0.217-2.948,0.65
					c-0.935,0.434-1.667,0.95-2.2,1.55l0.05-1.4c0-0.2-0.117-0.3-0.35-0.3h-3.4c-0.434,0-0.634,0.167-0.6,0.5
					c0.065,0.534,0.115,1.267,0.148,2.2s0.051,1.917,0.051,2.95v15.9c0,0.133,0.032,0.267,0.101,0.4c0.1,0.1,0.217,0.15,0.35,0.15
					h3.352c0.3,0,0.448-0.167,0.448-0.5v-13c0-1.6,0.418-2.85,1.25-3.75c0.834-0.934,2-1.4,3.5-1.4c2.367,0,3.552,1.417,3.552,4.25
					V45.2c0,0.133,0.05,0.267,0.148,0.4c0.102,0.1,0.218,0.15,0.352,0.15h3.35c0.3,0,0.45-0.167,0.45-0.5v-11.6
					c0-0.933,0.116-1.8,0.35-2.6c0.233-0.8,0.566-1.483,1-2.05c0.4-0.6,0.917-1.05,1.551-1.35c0.634-0.367,1.351-0.55,2.149-0.55
					c1.133,0,1.983,0.4,2.55,1.2c0.602,0.8,0.9,1.817,0.9,3.05V45.2c0,0.133,0.05,0.267,0.149,0.4c0.101,0.1,0.217,0.15,0.351,0.15
					h3.35c0.102,0,0.218-0.05,0.352-0.15c0.065-0.1,0.1-0.217,0.1-0.35v-14.4c0-2.434-0.7-4.317-2.1-5.65
					C1143.833,23.833,1142.017,23.15,1139.75,23.15z"/>
			</g>
		</g>
	</g>
	<g transform="matrix( 1, 0, 0, 1, 10.15,30.25) ">
		<g transform="matrix( 1, 0, 0, 1, 0,0) ">
			<g>
				<g id="bfdbdfbdfndfn_0_Layer1_0_FILL">
					<path fill="#C1EBFF" d="M7.2-7.15c-1.931-1.998-4.314-2.998-7.15-3c-2.782-0.007-5.182,0.959-7.2,2.9
						c-0.02,0.041-0.053,0.074-0.1,0.1c-1.941,2.018-2.908,4.418-2.9,7.2c0.001,2.804,0.985,5.188,2.95,7.15l0.05,0.05
						c2.018,1.974,4.418,2.957,7.2,2.95c2.799-0.003,5.166-0.986,7.1-2.95C7.175,7.242,7.192,7.225,7.2,7.2
						c2.008-1.978,3.008-4.361,3-7.15c0.009-2.793-1.007-5.21-3.05-7.25L7.2-7.15 M1.45-1.55H1.5c0.458,0.46,0.691,0.993,0.7,1.6
						C2.191,0.626,1.975,1.109,1.55,1.5c-0.025,0.047-0.059,0.08-0.1,0.1c-0.368,0.402-0.835,0.603-1.4,0.6
						c-0.618-0.008-1.151-0.241-1.6-0.7v0.05c-0.402-0.404-0.602-0.904-0.6-1.5c0.007-0.583,0.207-1.1,0.6-1.55
						c0.025-0.008,0.042-0.024,0.05-0.05c0.45-0.394,0.967-0.593,1.55-0.6C0.615-2.152,1.082-1.953,1.45-1.55z"/>
				</g>
			</g>
		</g>
		<g transform="matrix( 1, 0, 0, 1, 0,0) ">
			<g>
				<g id="bfdbdfbdfndfn_0_Layer0_0_FILL">
					<path fill="#4CB6E6" d="M4.2-4.2C3.066-5.333,1.683-5.9,0.05-5.9C-1.583-5.9-3-5.333-4.2-4.2C-5.333-3-5.9-1.583-5.9,0.05
						c0,1.634,0.566,3.017,1.7,4.15C-3,5.367-1.583,5.95,0.05,5.95c1.633,0,3.016-0.583,4.15-1.75c1.167-1.134,1.75-2.517,1.75-4.15
						C5.95-1.583,5.367-3,4.2-4.2z"/>
				</g>
			</g>
		</g>
	</g>
	<g transform="matrix( 1, 0, 0, 1, 10.15,142.25) ">
		<g transform="matrix( 1, 0, 0, 1, 0,0) ">
			<g>
				<g id="bfdbdfbdfndfn_0_Layer1_0_FILL_1_">
					<path fill="#C1EBFF" d="M7.2-7.15c-1.931-1.998-4.314-2.998-7.15-3c-2.782-0.007-5.182,0.959-7.2,2.9
						c-0.02,0.041-0.053,0.074-0.1,0.1c-1.941,2.018-2.908,4.418-2.9,7.2c0.001,2.804,0.985,5.188,2.95,7.15l0.05,0.05
						c2.018,1.975,4.418,2.957,7.2,2.95c2.799-0.003,5.166-0.985,7.1-2.95C7.175,7.242,7.192,7.225,7.2,7.2
						c2.008-1.978,3.008-4.361,3-7.15c0.009-2.793-1.007-5.21-3.05-7.25L7.2-7.15 M1.45-1.55H1.5c0.458,0.46,0.691,0.993,0.7,1.6
						C2.191,0.626,1.975,1.109,1.55,1.5c-0.025,0.047-0.059,0.08-0.1,0.1C1.082,2.002,0.615,2.203,0.05,2.2
						c-0.618-0.009-1.151-0.241-1.6-0.7v0.05c-0.402-0.403-0.602-0.903-0.6-1.5c0.007-0.583,0.207-1.1,0.6-1.55
						c0.025-0.008,0.042-0.024,0.05-0.05c0.45-0.394,0.967-0.593,1.55-0.6C0.615-2.152,1.082-1.953,1.45-1.55z"/>
				</g>
			</g>
		</g>
		<g transform="matrix( 1, 0, 0, 1, 0,0) ">
			<g>
				<g id="bfdbdfbdfndfn_0_Layer0_0_FILL_1_">
					<path fill="#4CB6E6" d="M4.2-4.2C3.066-5.333,1.683-5.9,0.05-5.9C-1.583-5.9-3-5.333-4.2-4.2C-5.333-3-5.9-1.583-5.9,0.05
						c0,1.634,0.566,3.017,1.7,4.15C-3,5.367-1.583,5.95,0.05,5.95c1.633,0,3.016-0.583,4.15-1.75c1.167-1.134,1.75-2.517,1.75-4.15
						C5.95-1.583,5.367-3,4.2-4.2z"/>
				</g>
			</g>
		</g>
	</g>
	<g transform="matrix( 1, 0, 0, 1, 10.15,254.25) ">
		<g transform="matrix( 1, 0, 0, 1, 0,0) ">
			<g>
				<g id="bfdbdfbdfndfn_0_Layer1_0_FILL_2_">
					<path fill="#C1EBFF" d="M7.2-7.15c-1.931-1.996-4.314-2.996-7.15-3c-2.782-0.007-5.182,0.959-7.2,2.9
						c-0.02,0.041-0.053,0.074-0.1,0.1c-1.941,2.02-2.908,4.418-2.9,7.2c0.001,2.804,0.985,5.188,2.95,7.15l0.05,0.05
						c2.018,1.975,4.418,2.957,7.2,2.95c2.799-0.003,5.166-0.985,7.1-2.95C7.175,7.242,7.192,7.225,7.2,7.2
						c2.008-1.978,3.008-4.361,3-7.15c0.009-2.793-1.007-5.21-3.05-7.25L7.2-7.15 M1.45-1.55H1.5c0.458,0.46,0.691,0.993,0.7,1.6
						C2.191,0.626,1.975,1.109,1.55,1.5c-0.025,0.047-0.059,0.08-0.1,0.1C1.082,2.002,0.615,2.203,0.05,2.2
						c-0.618-0.009-1.151-0.241-1.6-0.7v0.05c-0.402-0.403-0.602-0.903-0.6-1.5c0.007-0.583,0.207-1.1,0.6-1.55
						c0.025-0.008,0.042-0.023,0.05-0.05c0.45-0.394,0.967-0.593,1.55-0.601C0.615-2.152,1.082-1.953,1.45-1.55z"/>
				</g>
			</g>
		</g>
		<g transform="matrix( 1, 0, 0, 1, 0,0) ">
			<g>
				<g id="bfdbdfbdfndfn_0_Layer0_0_FILL_2_">
					<path fill="#4CB6E6" d="M4.2-4.2C3.066-5.334,1.683-5.9,0.05-5.9C-1.583-5.9-3-5.334-4.2-4.2C-5.333-3-5.9-1.584-5.9,0.05
						s0.566,3.017,1.7,4.15C-3,5.367-1.583,5.95,0.05,5.95c1.633,0,3.016-0.583,4.15-1.75c1.167-1.134,1.75-2.517,1.75-4.15
						C5.95-1.583,5.367-3,4.2-4.2z"/>
				</g>
			</g>
		</g>
	</g>
	<g transform="matrix( 1, 0, 0, 1, 1006.15,30) ">
		<g transform="matrix( 1, 0, 0, 1, 0,0) ">
			<g>
				<g id="Duplicate_Items_Folder_fnfmf343434_copy_15_0_Layer1_0_FILL">
					<path fill="#FFFFFF" d="M60-15c0-10-5-15-15-15h-90c-10,0-15,5-15,15v30.05c0,2.434,0.25,4.417,0.75,5.95
						c1.834,6.033,6.584,9.05,14.25,9.05h90c7.802,0,12.552-3.017,14.25-9.05c0.5-1.8,0.75-3.783,0.75-5.95V-15z"/>
				</g>
			</g>
			<g>
				
					<path id="Duplicate_Items_Folder_fnfmf343434_copy_15_0_Layer1_0_1_STROKES" fill="none" stroke="#DBDBDB" stroke-width="3" stroke-linecap="round" stroke-linejoin="round" d="
					M-45-30h90c10,0,15,5,15,15v30.05c0,2.167-0.25,4.15-0.75,5.95C57.55,27.033,52.8,30.05,45,30.05h-90
					c-7.666,0-12.416-3.017-14.25-9.05c-0.5-1.533-0.75-3.517-0.75-5.95V-15C-60-25-55-30-45-30z"/>
			</g>
		</g>
	</g>
	<g transform="matrix( 1, 0, 0, 1, 1022.15,142) ">
		<g transform="matrix( 1, 0, 0, 1, 0,0) ">
			<g>
				<g id="Duplicate_Items_Folder_fnfmf343434_copy_14_0_Layer1_0_FILL">
					<path fill="#FFFFFF" d="M60-15c0-10-5-15-15-15h-90c-10,0-15,5-15,15v30.05c0,2.435,0.25,4.417,0.75,5.95
						c1.834,6.033,6.584,9.05,14.25,9.05h90c7.802,0,12.552-3.017,14.25-9.05c0.5-1.8,0.75-3.783,0.75-5.95V-15z"/>
				</g>
			</g>
			<g>
				
					<path id="Duplicate_Items_Folder_fnfmf343434_copy_14_0_Layer1_0_1_STROKES" fill="none" stroke="#DBDBDB" stroke-width="3" stroke-linecap="round" stroke-linejoin="round" d="
					M-45-30h90c10,0,15,5,15,15v30.05c0,2.167-0.25,4.15-0.75,5.95C57.55,27.033,52.8,30.05,45,30.05h-90
					c-7.666,0-12.416-3.017-14.25-9.05c-0.5-1.533-0.75-3.518-0.75-5.95V-15C-60-25-55-30-45-30z"/>
			</g>
		</g>
	</g>
	<g transform="matrix( 1, 0, 0, 1, 1022.15,254) ">
		<g transform="matrix( 1, 0, 0, 1, 0,0) ">
			<g>
				<g id="Duplicate_Items_Folder_fnfmf343434_copy_13_0_Layer1_0_FILL">
					<path fill="#FFFFFF" d="M60-15c0-10-5-15-15-15h-90c-10,0-15,5-15,15v30.05c0,2.435,0.25,4.417,0.75,5.95
						c1.834,6.033,6.584,9.05,14.25,9.05h90c7.802,0,12.552-3.017,14.25-9.05c0.5-1.8,0.75-3.783,0.75-5.95V-15z"/>
				</g>
			</g>
			<g>
				
					<path id="Duplicate_Items_Folder_fnfmf343434_copy_13_0_Layer1_0_1_STROKES" fill="none" stroke="#DBDBDB" stroke-width="3" stroke-linecap="round" stroke-linejoin="round" d="
					M-45-30h90c10,0,15,5,15,15v30.05c0,2.167-0.25,4.15-0.75,5.95C57.55,27.033,52.8,30.05,45,30.05h-90
					c-7.666,0-12.416-3.017-14.25-9.05c-0.5-1.533-0.75-3.518-0.75-5.95V-15C-60-25-55-30-45-30z"/>
			</g>
		</g>
	</g>
</g>
</svg>
