<svg xmlns="http://www.w3.org/2000/svg" xmlns:xlink="http://www.w3.org/1999/xlink" viewBox="0 0 170.08 85.44"><defs><style>.cls-1,.cls-3,.cls-4{fill:none;}.cls-2{clip-path:url(#clip-path);}.cls-3{stroke:#000;stroke-linejoin:round;stroke-width:0.8px;}.cls-4{stroke:#e4007f;stroke-width:0.3px;}.cls-5{font-size:12px;fill:#231815;font-family:NanumSquareRoundB, NanumSquareRound;font-weight:700;}.cls-6{fill:#e4007f;}</style><clipPath id="clip-path" transform="translate(0)"><rect class="cls-1" width="170.08" height="85.44"/></clipPath></defs><title>자산 2</title><g id="레이어_2" data-name="레이어 2"><g id="레이어_1-2" data-name="레이어 1"><g class="cls-2"><path class="cls-3" d="M153,33.85,85,85m85,0H85V0m0,85H0" transform="translate(0)"/><path class="cls-4" d="M97.2,76a8.19,8.19,0,0,1,3.61,6.79,8,8,0,0,1-.32,2.25M85.12,72.31A8.43,8.43,0,0,1,87.43,72a8.21,8.21,0,0,1,7.78,5.62M77.44,85.26V77.44h7.82" transform="translate(0)"/></g><g class="cls-2"><text class="cls-5" transform="translate(103.77 81.32)">37°</text><line class="cls-4" x1="92.67" y1="69.9" x2="96.06" y2="62.28"/><path class="cls-6" d="M92.81,69.59l1.36-.17v0L92.7,70.91c-.4.55-.81,1.1-1.21,1.66.13-.68.27-1.35.41-2L92,68.49l0,0Z" transform="translate(0)"/></g></g></g></svg>