<?xml version="1.0" encoding="utf-8"?>
<!-- Generator: Adobe Illustrator 16.0.0, SVG Export Plug-In . SVG Version: 6.00 Build 0)  -->
<!DOCTYPE svg PUBLIC "-//W3C//DTD SVG 1.1//EN" "http://www.w3.org/Graphics/SVG/1.1/DTD/svg11.dtd" [
	<!ENTITY ns_flows "http://ns.adobe.com/Flows/1.0/">
	<!ENTITY ns_extend "http://ns.adobe.com/Extensibility/1.0/">
	<!ENTITY ns_ai "http://ns.adobe.com/AdobeIllustrator/10.0/">
	<!ENTITY ns_graphs "http://ns.adobe.com/Graphs/1.0/">
	<!ENTITY ns_vars "http://ns.adobe.com/Variables/1.0/">
	<!ENTITY ns_imrep "http://ns.adobe.com/ImageReplacement/1.0/">
	<!ENTITY ns_sfw "http://ns.adobe.com/SaveForWeb/1.0/">
	<!ENTITY ns_custom "http://ns.adobe.com/GenericCustomNamespace/1.0/">
	<!ENTITY ns_adobe_xpath "http://ns.adobe.com/XPath/1.0/">
]>
<svg version="1.1" id="Layer_1" xmlns:x="&ns_extend;" xmlns:i="&ns_ai;" xmlns:graph="&ns_graphs;"
	 xmlns="http://www.w3.org/2000/svg" xmlns:xlink="http://www.w3.org/1999/xlink" xmlns:a="http://ns.adobe.com/AdobeSVGViewerExtensions/3.0/"
	 x="0px" y="0px" width="820px" height="160px" viewBox="0 0 820 160" enable-background="new 0 0 820 160" xml:space="preserve">
<metadata>
	<sfw  xmlns="&ns_sfw;">
		<slices></slices>
		<sliceSourceBounds  height="132.646" width="802" x="21" y="-364.206" bottomLeftOrigin="true"></sliceSourceBounds>
	</sfw>
</metadata>
<g>
	<path fill="#040000" d="M764.077,94.806c-1.12,1.261-2.443,2.234-3.969,2.92c-1.527,0.686-3.129,1.057-4.81,1.113
		c-1.68,0.055-3.27-0.225-4.767-0.841c-1.498-0.616-2.821-1.554-3.969-2.813c-1.148-1.26-2.059-2.836-2.73-4.726
		s-1.008-4.081-1.008-6.573c0-2.239,0.287-4.283,0.861-6.131c0.573-1.848,1.399-3.444,2.478-4.788
		c1.077-1.344,2.387-2.415,3.927-3.213c1.54-0.798,3.276-1.267,5.208-1.407c1.876-0.14,3.584,0.12,5.124,0.777
		c1.54,0.658,2.856,1.659,3.948,3.003c1.092,1.344,1.938,3.01,2.541,4.998c0.602,1.988,0.903,4.242,0.903,6.762
		c0,2.353-0.336,4.445-1.008,6.279C766.135,91.999,765.225,93.546,764.077,94.806z M758.365,94.218
		c1.008-0.504,1.883-1.231,2.625-2.184c0.741-0.951,1.329-2.127,1.764-3.527c0.434-1.4,0.651-3.053,0.651-4.957
		c0-1.959-0.218-3.675-0.651-5.145c-0.435-1.47-1.022-2.674-1.764-3.612c-0.742-0.938-1.604-1.624-2.583-2.058
		c-0.98-0.434-2.016-0.609-3.108-0.525c-2.408,0.168-4.354,1.225-5.838,3.171c-1.484,1.946-2.226,4.752-2.226,8.42
		c0,1.961,0.217,3.654,0.65,5.082s1.015,2.598,1.743,3.508c0.728,0.91,1.567,1.582,2.521,2.016c0.951,0.435,1.945,0.623,2.981,0.566
		C756.278,94.946,757.356,94.694,758.365,94.218z"/>
	<path fill="#040000" d="M777.685,97.452c0,0.813-0.28,1.498-0.84,2.059c-0.561,0.559-1.26,0.84-2.1,0.84
		c-0.813,0-1.499-0.281-2.059-0.84c-0.561-0.561-0.84-1.246-0.84-2.059c0-0.84,0.279-1.539,0.84-2.1
		c0.56-0.561,1.246-0.84,2.059-0.84c0.84,0,1.539,0.279,2.1,0.84C777.404,95.913,777.685,96.612,777.685,97.452z"/>
	<path fill="#040000" d="M803.725,95.058c0.027,0.813-0.168,1.373-0.588,1.681c-0.421,0.309-0.952,0.518-1.597,0.63
		c-1.316,0.195-2.59,0.371-3.822,0.525c-1.232,0.153-2.478,0.279-3.737,0.377c-1.26,0.099-2.556,0.183-3.885,0.253
		c-1.331,0.069-2.751,0.118-4.264,0.147c-0.896,0.027-1.526-0.141-1.89-0.505c-0.364-0.364-0.588-0.896-0.672-1.596
		c-0.084-0.644,0.014-1.231,0.294-1.765c0.279-0.531,0.615-1.008,1.008-1.428c0.111-0.14,0.385-0.392,0.819-0.756
		c0.434-0.363,0.959-0.805,1.574-1.322c0.616-0.519,1.281-1.078,1.996-1.681c0.713-0.602,1.42-1.196,2.12-1.785
		c0.7-0.588,1.351-1.14,1.953-1.659c0.603-0.518,1.099-0.959,1.491-1.322c1.371-1.316,2.563-2.576,3.57-3.78
		s1.554-2.421,1.638-3.654c0.111-1.651-0.393-2.954-1.512-3.906c-1.12-0.952-2.955-1.372-5.502-1.26
		c-0.841,0.028-1.646,0.217-2.415,0.567c-0.771,0.35-1.471,0.792-2.101,1.323c-0.63,0.532-1.169,1.127-1.616,1.785
		c-0.449,0.658-0.771,1.309-0.967,1.953c-0.195,0.729-0.482,1.211-0.86,1.449c-0.378,0.238-0.974,0.246-1.785,0.021
		c-0.7-0.195-1.134-0.497-1.302-0.903c-0.168-0.406-0.196-0.903-0.084-1.491c0.168-0.896,0.518-1.82,1.05-2.772
		c0.531-0.952,1.267-1.841,2.205-2.667c0.938-0.826,2.064-1.526,3.381-2.1c1.315-0.573,2.841-0.945,4.578-1.113
		c1.596-0.14,3.087-0.042,4.473,0.294s2.583,0.875,3.591,1.617c1.008,0.742,1.799,1.666,2.373,2.772
		c0.574,1.106,0.861,2.345,0.861,3.717c0,1.68-0.414,3.255-1.239,4.725c-0.826,1.471-2.052,2.961-3.675,4.474
		c-0.672,0.645-1.506,1.4-2.499,2.269c-0.994,0.867-2.01,1.729-3.045,2.582c-1.036,0.854-2.023,1.659-2.961,2.415
		c-0.938,0.757-1.688,1.345-2.247,1.765c0.951-0.084,2.029-0.189,3.234-0.315c1.203-0.126,2.414-0.252,3.633-0.378
		c1.218-0.126,2.387-0.244,3.507-0.357c1.119-0.111,2.058-0.182,2.813-0.209c0.616-0.028,1.113,0.049,1.491,0.23
		S803.696,94.47,803.725,95.058z"/>
</g>
<g>
	<path fill="#040000" d="M33.771,94.806c-1.12,1.261-2.443,2.234-3.969,2.92c-1.526,0.686-3.129,1.057-4.809,1.113
		c-1.68,0.055-3.27-0.225-4.768-0.841s-2.821-1.554-3.969-2.813c-1.148-1.26-2.058-2.836-2.73-4.726
		c-0.672-1.89-1.008-4.081-1.008-6.573c0-2.239,0.287-4.283,0.861-6.131c0.573-1.848,1.399-3.444,2.478-4.788
		c1.078-1.344,2.387-2.415,3.927-3.213c1.539-0.798,3.275-1.267,5.208-1.407c1.875-0.14,3.583,0.12,5.124,0.777
		c1.539,0.658,2.855,1.659,3.948,3.003c1.092,1.344,1.938,3.01,2.541,4.998c0.602,1.988,0.903,4.242,0.903,6.762
		c0,2.353-0.336,4.445-1.008,6.279S34.919,93.546,33.771,94.806z M28.059,94.218c1.008-0.504,1.883-1.231,2.625-2.184
		c0.742-0.951,1.33-2.127,1.764-3.527s0.651-3.053,0.651-4.957c0-1.959-0.217-3.675-0.651-5.145
		c-0.434-1.47-1.022-2.674-1.764-3.612c-0.742-0.938-1.603-1.624-2.583-2.058c-0.98-0.434-2.016-0.609-3.107-0.525
		c-2.409,0.168-4.354,1.225-5.838,3.171c-1.484,1.946-2.226,4.752-2.226,8.42c0,1.961,0.217,3.654,0.651,5.082
		c0.434,1.428,1.015,2.598,1.743,3.508s1.568,1.582,2.52,2.016c0.952,0.435,1.946,0.623,2.982,0.566
		C25.973,94.946,27.051,94.694,28.059,94.218z"/>
	<path fill="#040000" d="M47.378,97.452c0,0.813-0.28,1.498-0.84,2.059c-0.561,0.559-1.26,0.84-2.1,0.84
		c-0.813,0-1.498-0.281-2.058-0.84c-0.56-0.561-0.84-1.246-0.84-2.059c0-0.84,0.28-1.539,0.84-2.1s1.246-0.84,2.058-0.84
		c0.84,0,1.54,0.279,2.1,0.84C47.098,95.913,47.378,96.612,47.378,97.452z"/>
	<path fill="#040000" d="M64.137,68.346c0.924,0.168,1.413,0.63,1.47,1.386c0.056,1.68,0.098,3.591,0.126,5.733
		c0.027,2.142,0.049,4.354,0.063,6.635c0.014,2.283,0.006,4.537-0.021,6.763c-0.028,2.226-0.057,4.263-0.084,6.11
		c0,0.617-0.007,1.156-0.021,1.617c-0.014,0.463-0.084,0.854-0.21,1.176s-0.343,0.574-0.651,0.757
		c-0.309,0.182-0.784,0.286-1.428,0.315c-0.672,0.027-1.148-0.036-1.428-0.189c-0.28-0.154-0.462-0.399-0.546-0.735
		s-0.112-0.756-0.084-1.26c0.028-0.504,0.028-1.077,0-1.722c-0.056-1.512-0.098-3.206-0.126-5.082
		c-0.028-1.876-0.049-3.78-0.063-5.713c-0.015-1.932-0.036-3.836-0.063-5.711c-0.028-1.875-0.057-3.584-0.084-5.124
		c-0.336,0.225-0.819,0.525-1.449,0.903c-0.63,0.378-1.302,0.777-2.016,1.197S56.1,76.221,55.4,76.599
		c-0.7,0.378-1.274,0.693-1.722,0.945c-0.477,0.252-0.918,0.35-1.323,0.294c-0.406-0.056-0.763-0.322-1.071-0.798
		c-0.252-0.392-0.378-0.846-0.378-1.365c0-0.518,0.154-0.889,0.462-1.113c0.504-0.336,1.141-0.756,1.911-1.26
		c0.77-0.504,1.575-1.029,2.415-1.575c0.84-0.546,1.652-1.063,2.436-1.554c0.784-0.49,1.428-0.903,1.932-1.239
		c0.56-0.363,1.155-0.588,1.785-0.672S63.24,68.207,64.137,68.346z"/>
	<path fill="#040000" d="M71.528,87.582c0.783-1.119,1.806-2.001,3.065-2.646c-0.56-0.225-1.141-0.567-1.743-1.029
		c-0.603-0.462-1.148-1.001-1.638-1.617c-0.49-0.615-0.903-1.309-1.239-2.078c-0.336-0.771-0.519-1.589-0.546-2.458
		c-0.056-1.484,0.21-2.8,0.798-3.948c0.588-1.148,1.42-2.121,2.499-2.919c1.078-0.798,2.358-1.414,3.843-1.848
		c1.483-0.434,3.093-0.678,4.83-0.735c1.652-0.056,3.206,0.12,4.662,0.525c1.456,0.406,2.723,1.015,3.801,1.827
		c1.077,0.813,1.917,1.792,2.52,2.94c0.602,1.148,0.875,2.422,0.819,3.822c-0.028,0.896-0.196,1.737-0.504,2.521
		c-0.309,0.784-0.714,1.498-1.218,2.142c-0.504,0.645-1.085,1.197-1.743,1.659c-0.658,0.462-1.338,0.791-2.037,0.986
		c0.615,0.197,1.218,0.49,1.806,0.883s1.099,0.854,1.533,1.386c0.434,0.532,0.783,1.12,1.05,1.765
		c0.266,0.645,0.399,1.316,0.399,2.016c0,1.344-0.294,2.527-0.882,3.549c-0.588,1.022-1.393,1.869-2.415,2.541
		c-1.022,0.672-2.205,1.183-3.549,1.533c-1.344,0.35-2.772,0.525-4.284,0.525c-1.428,0-2.814-0.147-4.158-0.441
		c-1.344-0.295-2.541-0.756-3.591-1.387c-1.05-0.629-1.883-1.441-2.499-2.436c-0.616-0.994-0.896-2.19-0.84-3.591
		C70.324,89.864,70.744,88.702,71.528,87.582z M78.332,82.332c0.896,0.252,1.862,0.351,2.898,0.294
		c1.148-0.027,2.184-0.203,3.108-0.525c0.924-0.32,1.715-0.72,2.373-1.196c0.658-0.476,1.169-1.015,1.533-1.617
		c0.363-0.602,0.546-1.21,0.546-1.827c0-0.84-0.183-1.596-0.546-2.268c-0.364-0.672-0.882-1.246-1.554-1.722
		c-0.672-0.476-1.477-0.833-2.415-1.071s-1.967-0.343-3.087-0.315c-2.38,0.084-4.208,0.645-5.481,1.68
		c-1.274,1.036-1.897,2.352-1.869,3.948c0,0.7,0.196,1.359,0.588,1.974s0.917,1.148,1.575,1.596
		C76.659,81.73,77.436,82.08,78.332,82.332z M86.438,93.589c1.12-0.925,1.68-1.961,1.68-3.109c0-1.26-0.554-2.33-1.659-3.213
		c-1.106-0.881-2.821-1.28-5.145-1.196c-1.12,0.056-2.086,0.224-2.898,0.504c-0.813,0.28-1.491,0.63-2.037,1.05
		s-0.959,0.89-1.239,1.407c-0.28,0.519-0.448,1.028-0.504,1.533c-0.112,1.512,0.448,2.674,1.68,3.485
		c1.232,0.813,2.926,1.176,5.082,1.092C83.666,95.03,85.346,94.513,86.438,93.589z"/>
</g>
<g>
	<path fill="#040000" d="M394.483,94.806c-1.12,1.261-2.443,2.234-3.969,2.92c-1.526,0.686-3.129,1.057-4.809,1.113
		c-1.68,0.055-3.27-0.225-4.768-0.841s-2.821-1.554-3.969-2.813c-1.148-1.26-2.058-2.836-2.73-4.726
		c-0.672-1.89-1.008-4.081-1.008-6.573c0-2.239,0.287-4.283,0.861-6.131c0.573-1.848,1.399-3.444,2.478-4.788
		c1.078-1.344,2.387-2.415,3.927-3.213c1.539-0.798,3.275-1.267,5.208-1.407c1.875-0.14,3.583,0.12,5.124,0.777
		c1.539,0.658,2.855,1.659,3.948,3.003c1.092,1.344,1.938,3.01,2.541,4.998c0.602,1.988,0.903,4.242,0.903,6.762
		c0,2.353-0.336,4.445-1.008,6.279S395.632,93.546,394.483,94.806z M388.771,94.218c1.008-0.504,1.883-1.231,2.625-2.184
		c0.742-0.951,1.33-2.127,1.764-3.527s0.651-3.053,0.651-4.957c0-1.959-0.217-3.675-0.651-5.145
		c-0.434-1.47-1.022-2.674-1.764-3.612c-0.742-0.938-1.603-1.624-2.583-2.058c-0.98-0.434-2.016-0.609-3.107-0.525
		c-2.409,0.168-4.354,1.225-5.838,3.171c-1.484,1.946-2.226,4.752-2.226,8.42c0,1.961,0.217,3.654,0.651,5.082
		c0.434,1.428,1.015,2.598,1.743,3.508s1.568,1.582,2.52,2.016c0.952,0.435,1.946,0.623,2.982,0.566
		C386.686,94.946,387.764,94.694,388.771,94.218z"/>
	<path fill="#040000" d="M408.091,97.452c0,0.813-0.28,1.498-0.84,2.059c-0.561,0.559-1.26,0.84-2.1,0.84
		c-0.813,0-1.498-0.281-2.058-0.84c-0.56-0.561-0.84-1.246-0.84-2.059c0-0.84,0.28-1.539,0.84-2.1s1.246-0.84,2.058-0.84
		c0.84,0,1.54,0.279,2.1,0.84C407.811,95.913,408.091,96.612,408.091,97.452z"/>
	<path fill="#040000" d="M424.85,68.346c0.924,0.168,1.413,0.63,1.47,1.386c0.056,1.68,0.098,3.591,0.126,5.733
		c0.027,2.142,0.049,4.354,0.063,6.635c0.014,2.283,0.006,4.537-0.021,6.763c-0.028,2.226-0.057,4.263-0.084,6.11
		c0,0.617-0.007,1.156-0.021,1.617c-0.014,0.463-0.084,0.854-0.209,1.176c-0.127,0.322-0.344,0.574-0.651,0.757
		c-0.309,0.182-0.784,0.286-1.429,0.315c-0.672,0.027-1.148-0.036-1.428-0.189c-0.279-0.154-0.462-0.399-0.546-0.735
		s-0.112-0.756-0.084-1.26s0.028-1.077,0-1.722c-0.056-1.512-0.099-3.206-0.126-5.082c-0.028-1.876-0.049-3.78-0.063-5.713
		c-0.015-1.932-0.035-3.836-0.063-5.711s-0.057-3.584-0.084-5.124c-0.336,0.225-0.819,0.525-1.449,0.903s-1.302,0.777-2.016,1.197
		s-1.421,0.819-2.121,1.197s-1.274,0.693-1.722,0.945c-0.477,0.252-0.918,0.35-1.323,0.294c-0.406-0.056-0.763-0.322-1.071-0.798
		c-0.252-0.392-0.378-0.846-0.378-1.365c0-0.518,0.154-0.889,0.462-1.113c0.504-0.336,1.141-0.756,1.911-1.26
		s1.575-1.029,2.415-1.575c0.84-0.546,1.652-1.063,2.436-1.554c0.784-0.49,1.429-0.903,1.933-1.239
		c0.56-0.363,1.155-0.588,1.785-0.672S423.953,68.207,424.85,68.346z"/>
	<path fill="#040000" d="M448.705,97.746c-0.225,0.588-0.638,0.959-1.239,1.113c-0.603,0.153-1.281,0.077-2.037-0.231
		c-0.561-0.225-0.854-0.531-0.882-0.924c-0.028-0.393,0.069-0.966,0.294-1.722c0.168-0.532,0.363-1.231,0.588-2.101
		c0.224-0.867,0.447-1.77,0.672-2.709c0.225-0.938,0.441-1.848,0.651-2.729s0.385-1.603,0.524-2.163
		c-0.84,1.008-2.002,1.792-3.485,2.352c-1.484,0.561-3.024,0.813-4.62,0.756c-1.26-0.027-2.472-0.307-3.633-0.84
		c-1.162-0.531-2.163-1.273-3.003-2.226c-0.841-0.952-1.47-2.093-1.89-3.423c-0.421-1.33-0.547-2.82-0.379-4.473
		c0.168-1.596,0.595-3.024,1.281-4.284c0.686-1.26,1.547-2.324,2.583-3.192c1.036-0.868,2.219-1.512,3.549-1.932
		s2.751-0.615,4.263-0.588c1.624,0.057,3.102,0.385,4.432,0.987c1.329,0.603,2.457,1.449,3.381,2.541
		c0.924,1.092,1.617,2.415,2.079,3.969s0.637,3.296,0.524,5.229c-0.084,1.484-0.272,3.031-0.566,4.642
		c-0.294,1.609-0.623,3.17-0.987,4.682c-0.364,1.513-0.735,2.906-1.112,4.18C449.313,95.934,448.984,96.963,448.705,97.746z
		 M445.933,83.845c0.645-0.561,1.169-1.219,1.575-1.975c0.405-0.756,0.637-1.582,0.693-2.479c0.056-1.007-0.07-1.931-0.378-2.771
		c-0.309-0.84-0.75-1.568-1.323-2.184c-0.574-0.615-1.239-1.105-1.995-1.47c-0.756-0.364-1.554-0.574-2.395-0.63
		c-0.98-0.056-1.918,0.07-2.813,0.378c-0.896,0.308-1.694,0.756-2.394,1.344c-0.701,0.588-1.268,1.302-1.701,2.142
		c-0.435,0.84-0.68,1.764-0.735,2.771c-0.057,1.064,0.069,2.017,0.378,2.856c0.308,0.84,0.77,1.54,1.387,2.101
		c0.615,0.561,1.35,0.986,2.204,1.28s1.799,0.441,2.835,0.441c0.868,0,1.708-0.161,2.521-0.483
		C444.603,84.846,445.316,84.405,445.933,83.845z"/>
</g>
<line fill="none" stroke="#040000" stroke-width="4" stroke-linecap="round" stroke-linejoin="round" x1="14.249" y1="33.819" x2="810.839" y2="33.819"/>
<path fill="none" stroke="#000000" stroke-width="4" stroke-linecap="round" stroke-linejoin="round" d="M775.311,54.204V13.445
	 M412.544,54.204V13.445 M49.783,54.204V13.445"/>
<path fill="none" stroke="#000000" stroke-width="2" stroke-linecap="round" stroke-linejoin="round" d="M666.48,21.085v25.479
	 M739.035,21.085v25.479 M557.651,21.085v25.479 M593.931,21.085v25.479 M630.205,21.085v25.479 M702.756,21.085v25.479
	 M122.336,21.085v25.479 M86.058,21.085v25.479 M194.887,21.085v25.479 M376.271,21.085v25.479 M303.717,21.085v25.479
	 M485.097,21.085v25.479 M231.163,21.085v25.479 M267.441,21.085v25.479 M448.821,21.085v25.479 M158.612,21.085v25.479
	 M339.996,21.085v25.479 M521.376,21.085v25.479"/>
<g>
	
		<line fill="none" stroke="#D31577" stroke-width="3" stroke-linecap="round" stroke-linejoin="round" x1="231.63" y1="60.544" x2="231.63" y2="142.592"/>
	<path fill="#D31577" d="M231.63,61.745l-7.231,2.571c0,0,6.703-11.854,7.231-14.262c0.532,2.409,7.253,14.262,7.253,14.262
		L231.63,61.745z"/>
</g>
<g>
	
		<line fill="none" stroke="#D31577" stroke-width="3" stroke-linecap="round" stroke-linejoin="round" x1="521.086" y1="60.544" x2="521.086" y2="142.592"/>
	<path fill="#D31577" d="M521.086,61.745l-7.231,2.571c0,0,6.703-11.854,7.231-14.262c0.532,2.409,7.253,14.262,7.253,14.262
		L521.086,61.745z"/>
</g>
<g>
</g>
<g>
</g>
<g>
</g>
<g>
</g>
<g>
</g>
<g>
</g>
</svg>
