
<svg xmlns="http://www.w3.org/2000/svg" version="1.1" xmlns:xlink="http://www.w3.org/1999/xlink" preserveAspectRatio="none" x="0px" y="0px" width="1280px" height="720px" viewBox="0 0 1280 720">
<defs>
<g id="Layer1_0_FILL">
<path fill="#4BAEF3" stroke="none" d="
M 138.65 352.9
Q 128.15 352.9 128.15 363.4
L 128.15 383.4
Q 128.15 393.9 138.65 393.9
L 162.45 393.9
Q 172.95 393.9 172.95 383.4
L 172.95 363.4
Q 172.95 352.9 162.45 352.9
L 138.65 352.9
M 144.95 364.35
Q 145.4 364.25 145.9 364.25 147 364.25 147.85 364.7 148.25 364.95 148.65 365.3 149.05 365.65 149.35 366.05 149.5 366.25 149.6 366.5 149.75 366.75 149.85 367
L 152.1 367 152.1 364.3
Q 152.1 363.65 152.5 363.45 152.7 363.35 152.95 363.3 153.15 363.2 153.4 363.2 153.7 363.2 153.95 363.3 154.25 363.35 154.45 363.45 154.85 363.65 154.85 364.3
L 154.85 381.3
Q 154.85 381.55 154.75 381.8 154.65 382 154.45 382.15 154.25 382.25 153.95 382.35 153.7 382.4 153.4 382.4 153.15 382.4 152.95 382.35 152.7 382.25 152.5 382.15 152.3 382 152.2 381.8 152.1 381.55 152.1 381.3
L 152.1 374.75 149.95 374.75
Q 149.8 375.05 149.65 375.35 149.5 375.6 149.35 375.85 148.7 376.7 147.85 377.15 147 377.65 145.9 377.65 145.4 377.65 144.95 377.5 144.45 377.4 144 377.15 143.6 376.95 143.25 376.6 142.9 376.3 142.6 375.85 142.3 375.4 142.05 374.9 141.8 374.4 141.65 373.75 141.45 373.15 141.4 372.45 141.3 371.75 141.3 370.95 141.3 370.15 141.4 369.45 141.45 368.75 141.65 368.1 141.8 367.5 142.05 367 142.3 366.5 142.6 366.05 142.9 365.65 143.25 365.3 143.6 364.95 144 364.7 144.45 364.5 144.95 364.35
M 158.25 363.4
Q 158.35 363.6 158.35 363.9
L 158.35 381.9
Q 158.35 382.5 157.95 382.75 157.75 382.85 157.5 382.9 157.2 382.95 156.9 382.95 156.65 382.95 156.45 382.9 156.2 382.85 156.05 382.75 155.65 382.5 155.65 381.9
L 155.65 363.9
Q 155.65 363.6 155.75 363.4 155.85 363.2 156.05 363.05 156.2 362.95 156.45 362.9 156.65 362.8 156.9 362.8 157.2 362.8 157.5 362.9 157.75 362.95 157.95 363.05 158.15 363.2 158.25 363.4
M 150.5 369.55
Q 150.5 369.9 150.55 370.25 150.55 370.6 150.55 370.95 150.55 371.25 150.55 371.55 150.55 371.85 150.5 372.15
L 152.1 372.15 152.1 369.55 150.5 369.55
M 144.5 367.9
Q 144 369 144 370.95 144 371.9 144.1 372.65 144.25 373.4 144.5 373.95 144.75 374.5 145.1 374.75 145.5 375.05 145.95 375.05 146.35 375.05 146.7 374.75 147.05 374.5 147.35 373.95 147.6 373.4 147.7 372.65 147.85 371.9 147.85 370.95 147.85 370 147.7 369.2 147.6 368.45 147.35 367.9 147.05 367.4 146.7 367.1 146.35 366.85 145.95 366.85 145.5 366.85 145.1 367.1 144.75 367.4 144.5 367.9 Z"/>

<path fill="#FFFFFF" stroke="none" d="
M 158.35 363.9
Q 158.35 363.6 158.25 363.4 158.15 363.2 157.95 363.05 157.75 362.95 157.5 362.9 157.2 362.8 156.9 362.8 156.65 362.8 156.45 362.9 156.2 362.95 156.05 363.05 155.85 363.2 155.75 363.4 155.65 363.6 155.65 363.9
L 155.65 381.9
Q 155.65 382.5 156.05 382.75 156.2 382.85 156.45 382.9 156.65 382.95 156.9 382.95 157.2 382.95 157.5 382.9 157.75 382.85 157.95 382.75 158.35 382.5 158.35 381.9
L 158.35 363.9
M 145.9 364.25
Q 145.4 364.25 144.95 364.35 144.45 364.5 144 364.7 143.6 364.95 143.25 365.3 142.9 365.65 142.6 366.05 142.3 366.5 142.05 367 141.8 367.5 141.65 368.1 141.45 368.75 141.4 369.45 141.3 370.15 141.3 370.95 141.3 371.75 141.4 372.45 141.45 373.15 141.65 373.75 141.8 374.4 142.05 374.9 142.3 375.4 142.6 375.85 142.9 376.3 143.25 376.6 143.6 376.95 144 377.15 144.45 377.4 144.95 377.5 145.4 377.65 145.9 377.65 147 377.65 147.85 377.15 148.7 376.7 149.35 375.85 149.5 375.6 149.65 375.35 149.8 375.05 149.95 374.75
L 152.1 374.75 152.1 381.3
Q 152.1 381.55 152.2 381.8 152.3 382 152.5 382.15 152.7 382.25 152.95 382.35 153.15 382.4 153.4 382.4 153.7 382.4 153.95 382.35 154.25 382.25 154.45 382.15 154.65 382 154.75 381.8 154.85 381.55 154.85 381.3
L 154.85 364.3
Q 154.85 363.65 154.45 363.45 154.25 363.35 153.95 363.3 153.7 363.2 153.4 363.2 153.15 363.2 152.95 363.3 152.7 363.35 152.5 363.45 152.1 363.65 152.1 364.3
L 152.1 367 149.85 367
Q 149.75 366.75 149.6 366.5 149.5 366.25 149.35 366.05 149.05 365.65 148.65 365.3 148.25 364.95 147.85 364.7 147 364.25 145.9 364.25
M 144 370.95
Q 144 369 144.5 367.9 144.75 367.4 145.1 367.1 145.5 366.85 145.95 366.85 146.35 366.85 146.7 367.1 147.05 367.4 147.35 367.9 147.6 368.45 147.7 369.2 147.85 370 147.85 370.95 147.85 371.9 147.7 372.65 147.6 373.4 147.35 373.95 147.05 374.5 146.7 374.75 146.35 375.05 145.95 375.05 145.5 375.05 145.1 374.75 144.75 374.5 144.5 373.95 144.25 373.4 144.1 372.65 144 371.9 144 370.95
M 150.55 370.25
Q 150.5 369.9 150.5 369.55
L 152.1 369.55 152.1 372.15 150.5 372.15
Q 150.55 371.85 150.55 371.55 150.55 371.25 150.55 370.95 150.55 370.6 150.55 370.25 Z"/>
</g>

<path id="Layer1_0_1_STROKES" stroke="#3567D7" stroke-width="3" stroke-linejoin="round" stroke-linecap="butt" fill="none" d="
M 198.4 551.8
L 350.95 350.2"/>

<path id="Layer1_0_2_STROKES" stroke="#332D2B" stroke-width="3" stroke-linejoin="round" stroke-linecap="butt" fill="none" d="
M 449.55 582.65
L 198.4 551.8 197.4 551.65"/>
</defs>

<g transform="matrix( 1, 0, 0, 1, 0,0) ">
<use xlink:href="#Layer1_0_FILL"/>

<use xlink:href="#Layer1_0_1_STROKES"/>

<use xlink:href="#Layer1_0_2_STROKES"/>
</g>
</svg>
