<?xml version="1.0" encoding="utf-8"?>
<!-- Generator: Adobe Illustrator 23.1.0, SVG Export Plug-In . SVG Version: 6.00 Build 0)  -->
<svg version="1.1" id="레이어_1" xmlns="http://www.w3.org/2000/svg" xmlns:xlink="http://www.w3.org/1999/xlink" x="0px"
	 y="0px" width="172px" height="115px" viewBox="0 0 172 115" style="enable-background:new 0 0 172 115;" xml:space="preserve">
<g>
	<path style="fill:#DBDCDD;" d="M31.9,109.1c1.4,0.1,2.6,0.1,3.5,0.1C43,109.2,169,114,169,114s0-1.6-0.1-4c-1.8,0-13.1,0-18.3,0
		h-0.2c-7.8,0-30.5-0.4-38.4-0.4C104.6,109.6,43.9,109.3,31.9,109.1 M168.6,8.6c-0.5,0-1.1,0-1.7,0c0.3,5.6,0.5,13.3,0.5,17.4
		c0,0.3,0,0.5,0,0.8c0,3.5-0.5,21.5-0.5,31.7c0,1.6,0,3.1,0,4.2c0,1.1,0.1,2,0.1,2.4c0.1,1,0.4,4.2,0.6,8.6c0.1,2.2,0.3,4.6,0.4,7.2
		c0.2-9.5,1.8-34.3,2-38.1c0.3-5.9,1.5-33.1,0.9-34C170.9,8.6,170,8.6,168.6,8.6"/>
	<path style="fill:#FFFFFF;" d="M28.9,77.8c0.3,0,0.7,0,1,0c1.5,0,2.4-0.1,2.6-0.1c0.2-0.1,0.3-0.1,0.4-0.1H33c0.1,0,0.2,0,0.3,0
		c0.3,0.1,0.4,0.2,0.3,0.3c-0.1,0.1-0.1,0.3-0.1,0.5v3c0,0.6,0,1.1-0.1,1.5s-0.2,0.5-0.4,0.5c-0.1,0-0.2-0.1-0.2-0.4
		s-0.1-0.7-0.1-1.2v-3.6l-3.8,0.1c-0.4,0-0.7,0.1-1,0.3c-0.1,0-0.2,0.1-0.3,0.1c-0.3,0-0.7-0.2-1.2-0.5c-0.1-0.1-0.2-0.1-0.2-0.2
		s0.1-0.1,0.3-0.1c0.1,0,0.2,0,0.4,0C27.3,77.8,27.9,77.8,28.9,77.8 M96.7,82.9c-0.3,0-0.6,0-0.9-0.2c-0.3-0.1-0.4-0.4-0.4-0.8v-3.4
		c0-0.3,0-0.5-0.2-0.5c-0.1-0.1-0.3-0.2-0.6-0.2c-0.1,0-0.2-0.1-0.3-0.2c-0.1-0.1,0.1-0.2,0.5-0.2c0.2,0,0.4,0,0.5,0
		c0.2,0,0.3,0,0.5,0.1c0.3,0,0.4,0.1,0.4,0.2s-0.1,0.3-0.1,0.5V82c0,0.2,0,0.3,0.2,0.3c0.1,0.1,0.2,0.1,0.3,0.1h3
		c0.2,0,0.4,0,0.5-0.1c0.1,0,0.3-0.1,0.4-0.2s0.3-0.1,0.6-0.2c0.3,0,0.5,0,0.7,0.1c0.4,0.1,0.5,0.2,0.5,0.4c0,0.2-0.2,0.3-0.6,0.3
		h-5 M30.8,74.5c-0.8,0-1.4-0.6-1.4-1.4s0.6-1.4,1.4-1.4s1.4,0.6,1.4,1.4S31.6,74.5,30.8,74.5 M98.1,74.5c-0.8,0-1.4-0.6-1.4-1.4
		s0.6-1.4,1.4-1.4s1.4,0.6,1.4,1.4S98.9,74.5,98.1,74.5 M130.3,32.8c-0.8,0-1.4-0.6-1.4-1.4c0-0.8,0.6-1.4,1.4-1.4
		c0.8,0,1.4,0.6,1.4,1.4C131.7,32.2,131.1,32.8,130.3,32.8 M137.1,28.5c0.2,0,0.3,0,0.5,0c0.8,0,1.2,0,1.2,0c0.2,0,0.4,0,0.5-0.1
		c0.1,0,0.2-0.1,0.4-0.2c0.1-0.1,0.3-0.1,0.6-0.1c0.1,0,0.1,0,0.2,0c0.2,0,0.4,0,0.5,0.1c0.4,0.1,0.5,0.2,0.5,0.4
		c-0.1,0.2-0.3,0.3-0.6,0.3h-5v3.9c0,0.2,0,0.3,0.1,0.3c0.1,0.1,0.2,0.1,0.3,0.1h2.9c0.2,0,0.3,0,0.4-0.1c0.1,0,0.2-0.1,0.3-0.2
		c0.1-0.1,0.3-0.1,0.6-0.2c0.3,0,0.5,0,0.7,0.1c0.4,0.1,0.5,0.2,0.5,0.4s-0.2,0.3-0.6,0.3h-4.8c-0.3,0-0.6,0-0.9-0.2
		c-0.3-0.1-0.4-0.4-0.4-0.7v-3.3c0-0.3-0.1-0.5-0.3-0.6s-0.4-0.1-0.5-0.2c-0.1,0-0.2-0.1-0.2-0.1c0-0.1,0.1-0.1,0.5-0.2
		c0.1,0,0.2,0,0.3,0c0.2,0,0.3,0,0.4,0.1c0.2,0.1,0.4,0.1,0.6,0.1C136.2,28.5,136.6,28.5,137.1,28.5 M163.4,2
		c-4.1,0-13.1,0.4-22,0.9c-9,0.4-17.8,0.9-21.7,0.9c-0.5,0-1,0-1.3,0c-2.3-0.1-6.3-0.2-10.7-0.2c-6.9,0-14.9,0.1-18.9,0.1
		c-1.8,0-6.3,0-12.2,0c-9.8,0-23.5,0-35.1-0.1c-5.8,0-11.1,0-15.1-0.1c-4,0-6.7-0.1-7.5-0.2C17,3.2,12.8,3.1,9,2.9
		C7.2,2.8,5.4,2.8,4.1,2.7c-0.7,0-1.2,0-1.6-0.1c0,0.5,0,1.5-0.1,2.6C2.2,11,1.9,22.9,1.8,25.9c0,0.1,0,0.3,0,0.4
		c0,6.1,1,45.4,1.2,50.8c0,1.1,0,2.8,0,4.9c0,4.2-0.1,9.7-0.3,14.7c-0.1,2.5-0.2,4.8-0.3,6.8c-0.1,1.6-0.2,2.9-0.4,3.8
		c0.6,0,1.6,0.1,3,0.1c6.5,0.2,20.2,0.7,26.1,0.8c9.9,0.2,73.3,0.5,80.8,0.5c8,0,30.7,0.4,38.4,0.4h0.2c2.8,0,7.5,0,11.4,0
		c2,0,3.7,0,5,0c0.7,0,1.2,0,1.6,0c0-0.3,0-0.7-0.1-1.2c-0.2-3.9-0.7-13.7-1.3-23c-0.3-4.6-0.5-9.1-0.8-12.7
		c-0.2-3.5-0.4-6.1-0.5-6.9c-0.1-0.5-0.1-1.4-0.1-2.5c0-1.2,0-2.6,0-4.2c0-10.2,0.5-28.2,0.5-31.7c0-0.2,0-0.5,0-0.8
		c0-3.4-0.1-9.2-0.3-14.4c-0.1-2.6-0.2-4.9-0.4-6.7c-0.1-0.9-0.1-1.6-0.2-2.2c0-0.3-0.1-0.5-0.1-0.6l0,0c-0.1,0-0.3,0-0.5,0
		C164.4,2,163.9,2,163.4,2"/>
	<path style="fill:#E3BEA2;" d="M168.1,80.8c0,1.6,0,2.8,0,3.3c0.2,1.8,0.4,9.3,0.6,16.3c0.3,5.3,0.5,9,0.5,9s-0.1,0-0.3,0
		c0,0.2,0,0.3,0,0.5c0.2,0,0.2,0,0.2,0c0.1,0,0.3-0.1,0.4-0.2c0.1-0.1,0.1-0.2,0.1-0.4C169.7,109.4,168.8,93.6,168.1,80.8 M163.4,1
		c-4.1,0-13.1,0.4-22.1,0.9c-8.9,0.4-17.8,0.9-21.6,0.9c-0.5,0-0.9,0-1.2,0c-2.3-0.1-6.3-0.2-10.7-0.2c-6.9,0-14.9,0.1-18.9,0.1
		c-1.8,0-6.3,0-12.2,0c-14.7,0-38.1,0-50.2-0.1c-4,0-6.8-0.1-7.4-0.2c-4-0.3-17-0.7-17-0.7l0,0l0,0c-0.3,0-0.5,0.2-0.5,0.5
		c0,0-0.7,19.7-0.7,23.8c0,0.1,0,0.3,0,0.4c0,6.2,1,45.4,1.2,50.8C2,78.2,2,79.9,2,82c0,6.2-0.2,15.6-0.6,21.4
		c-0.1,1.9-0.3,3.4-0.4,4.3c0,0.1,0,0.3,0.1,0.4s0.2,0.2,0.4,0.2c0,0,21.8,0.7,29.7,0.9c0.2,0,0.5,0,0.7,0c-2.3-0.1-5-0.4-7.8-0.7
		c-9.6-0.3-22.6-0.7-22.6-0.7c0.9-4.4,1.2-24.9,1-30.6C2.3,71.7,1.3,30.5,1.4,26C1.4,21.8,2,2.2,2,2.2l0,0c0,0,13.1,0.4,16.9,0.7
		c3,0.3,38.1,0.3,57.7,0.3c5.9,0,10.4,0,12.2,0c4,0,11.9-0.1,18.9-0.1c4.4,0,8.4,0,10.7,0.2c0.3,0,0.8,0,1.3,0
		c3.8,0,12.7-0.4,21.7-0.9c9-0.4,18-0.9,22.1-0.9c1.4,0,2.2,0,2.3,0.2c0.3,0.3,0.5,3.2,0.7,6.9c0.2,0,0.3,0,0.5,0
		c-0.1-2.3-0.3-4.3-0.4-5.6c-0.1-0.6-0.1-1.1-0.3-1.4c0-0.1-0.1-0.2-0.1-0.3c-0.1-0.1-0.2-0.2-0.3-0.2L165.7,1c-0.1,0-0.3,0-0.5-0.1
		C164.6,1,164.1,1,163.4,1"/>
	<path style="fill:#C4A68E;" d="M24.1,108.4c2.8,0.3,5.5,0.5,7.8,0.7c12,0.2,72.7,0.5,80,0.5c8,0,30.7,0.4,38.4,0.4h0.2
		c5.2,0,16.5,0,18.3,0c0-0.2,0-0.3,0-0.5c-1.8,0-13.1,0-18.3,0c-0.1,0-0.2,0-0.2,0c-7.8,0-30.5-0.4-38.5-0.4
		c-7.5,0-70.9-0.4-80.8-0.5C29.4,108.6,26.9,108.5,24.1,108.4 M166.9,8.6c-0.2,0-0.3,0-0.5,0c0.3,6,0.5,14.3,0.5,18.1
		c0,4.6-0.8,34.6-0.3,38.4c0.4,2.7,1.5,23.1,2.2,35.3c-0.2-7-0.4-14.4-0.6-16.3c-0.1-0.5,0-1.7,0-3.3c-0.2-2.6-0.3-5-0.4-7.2
		c-0.3-4.3-0.5-7.6-0.6-8.6c-0.1-0.4-0.1-1.3-0.1-2.4c0-1.1,0-2.6,0-4.2c0-10.2,0.5-28.2,0.5-31.7c0-0.2,0-0.5,0-0.8
		C167.3,21.9,167.2,14.2,166.9,8.6"/>
	<path style="fill:#E2BEA2;" d="M119.6,3.8c3.9,0,12.7-0.4,21.7-0.9c8.9-0.4,18-0.9,22-0.9c0.6,0,1,0,1.4,0c0.2,0,0.4,0,0.5,0l0,0
		c0,0.1,0.1,0.4,0.1,0.6c0.1,0.5,0.2,1.3,0.2,2.2c0.1,1.8,0.3,4.1,0.4,6.7c0.2,5.1,0.3,11,0.3,14.4c0,0.3,0,0.5,0,0.8
		c0,3.5-0.5,21.5-0.5,31.7c0,1.6,0,3.1,0,4.2c0,1.2,0.1,2,0.1,2.5c0.1,0.8,0.3,3.4,0.5,6.9s0.5,8,0.8,12.7c0.5,9.3,1.1,19.1,1.3,23
		c0,0.5,0,0.9,0.1,1.2c-0.4,0-0.9,0-1.6,0c-1.3,0-3.1,0-5,0c-3.9,0-8.6,0-11.4,0h-0.2c-7.8,0-30.5-0.4-38.4-0.4
		c-7.5,0-70.9-0.4-80.8-0.5c-5.9-0.1-19.6-0.5-26.1-0.8c-1.3,0-2.4-0.1-3-0.1c0.1-0.9,0.3-2.2,0.4-3.8c0.1-1.9,0.2-4.3,0.3-6.8
		C2.9,91.7,3,86.1,3,82c0-2,0-3.7-0.1-4.9c-0.2-5.4-1.2-44.6-1.2-50.8c0-0.2,0-0.3,0-0.4c0-3,0.4-14.9,0.6-20.6
		c0-1.2,0.1-2.1,0.1-2.6c0.4,0,0.9,0,1.6,0.1c1.3,0,3,0.1,4.9,0.2c3.7,0.1,8,0.3,9.9,0.5c0.8,0.1,3.5,0.1,7.5,0.2
		c4,0,9.3,0.1,15.1,0.1c11.6,0,25.3,0.1,35.1,0.1c5.9,0,10.4,0,12.2,0c4,0,11.9-0.1,18.9-0.1c4.4,0,8.4,0,10.7,0.2
		C118.7,3.8,119.1,3.8,119.6,3.8 M165.4,1.8L165.4,1.8 M165.4,1.8L165.4,1.8 M165.5,1.8L165.5,1.8 M165.5,1.8L165.5,1.8 M163.4,1.5
		c-4.1,0-13.1,0.4-22.1,0.9c-9,0.4-17.8,0.9-21.7,0.9c-0.5,0-1,0-1.3,0c-2.3-0.1-6.3-0.2-10.7-0.2c-6.9,0-14.9,0.1-18.9,0.1
		c-1.8,0-6.3,0-12.2,0c-19.6,0-54.7,0-57.7-0.3C15.1,2.6,2,2.2,2,2.2h0.5H2l0,0c0,0-0.7,19.7-0.7,23.7c-0.1,4.5,0.9,45.7,1.1,51.2
		c0.2,5.7-0.1,26.2-1,30.6c0,0,13.1,0.4,22.6,0.7c2.8,0.1,5.3,0.1,7.1,0.2c9.9,0.2,73.3,0.5,80.8,0.5c8,0,30.7,0.4,38.5,0.4
		c0.1,0,0.2,0,0.2,0c5.2,0,16.4,0,18.3,0c0.2,0,0.3,0,0.3,0s-0.2-3.7-0.5-9c-0.7-12.2-1.8-32.7-2.2-35.3c-0.5-3.8,0.3-33.8,0.3-38.4
		c0-3.8-0.2-12.1-0.5-18.1c-0.2-3.7-0.4-6.6-0.7-6.9C165.6,1.5,164.7,1.5,163.4,1.5"/>
</g>
</svg>
