
<svg xmlns="http://www.w3.org/2000/svg" version="1.1" xmlns:xlink="http://www.w3.org/1999/xlink" preserveAspectRatio="none" x="0px" y="0px" width="1280px" height="720px" viewBox="0 0 1280 720">
<defs>
<g id="Layer0_0_FILL">
<path fill="#FFFFFF" stroke="none" d="
M 1143.65 566.9
Q 1143.65 560.25 1140.7 556.55 1137 551.9 1128.65 551.9
L 1021.65 551.9
Q 1006.65 551.9 1006.65 566.9
L 1006.65 596.95
Q 1006.65 611.95 1021.65 611.95
L 1128.65 611.95
Q 1137 611.95 1140.7 607.3 1143.65 603.6 1143.65 596.95
L 1143.65 566.9 Z"/>

<path fill="#1E1E1E" stroke="none" d="
M 1173.7 576
Q 1171.9 576.95 1171 578.85 1170.25 577 1168.5 576 1166.8 575.05 1164.7 575.05 1163.15 575.05 1161.75 575.7 1160.35 576.35 1159.55 577.25
L 1159.6 575.85
Q 1159.6 575.55 1159.25 575.55
L 1155.85 575.55
Q 1155.2 575.55 1155.25 576.05 1155.35 576.85 1155.4 578.25 1155.45 579.65 1155.45 581.2
L 1155.45 597.1
Q 1155.45 597.3 1155.55 597.5 1155.7 597.65 1155.9 597.65
L 1159.25 597.65
Q 1159.7 597.65 1159.7 597.15
L 1159.7 584.15
Q 1159.7 581.75 1160.95 580.4 1162.2 579 1164.45 579 1168 579 1168 583.25
L 1168 597.1
Q 1168 597.3 1168.15 597.5 1168.3 597.65 1168.5 597.65
L 1171.85 597.65
Q 1172.3 597.65 1172.3 597.15
L 1172.3 585.55
Q 1172.3 584.15 1172.65 582.95 1173 581.75 1173.65 580.9 1174.25 580 1175.2 579.55 1176.15 579 1177.35 579 1179.05 579 1179.9 580.2 1180.8 581.4 1180.8 583.25
L 1180.8 597.1
Q 1180.8 597.3 1180.95 597.5 1181.1 597.65 1181.3 597.65
L 1184.65 597.65
Q 1184.8 597.65 1185 597.5 1185.1 597.35 1185.1 597.15
L 1185.1 582.75
Q 1185.1 579.1 1183 577.1 1180.95 575.05 1177.55 575.05 1175.5 575.05 1173.7 576 Z"/>
</g>

<path id="Layer0_0_1_STROKES" stroke="#DBDBDB" stroke-width="3" stroke-linejoin="round" stroke-linecap="round" fill="none" d="
M 1128.65 551.9
Q 1137 551.9 1140.7 556.55 1143.65 560.25 1143.65 566.9
L 1143.65 596.95
Q 1143.65 603.6 1140.7 607.3 1137 611.95 1128.65 611.95
L 1021.65 611.95
Q 1006.65 611.95 1006.65 596.95
L 1006.65 566.9
Q 1006.65 551.9 1021.65 551.9
L 1128.65 551.9 Z"/>
</defs>

<g transform="matrix( 1, 0, 0, 1, 0,0) ">
<use xlink:href="#Layer0_0_FILL"/>

<use xlink:href="#Layer0_0_1_STROKES"/>
</g>
</svg>
