
<svg xmlns="http://www.w3.org/2000/svg" version="1.1" xmlns:xlink="http://www.w3.org/1999/xlink" preserveAspectRatio="none" x="0px" y="0px" width="1280px" height="720px" viewBox="0 0 1280 720">
<defs>
<g id="Layer8_0_FILL">
<path fill="#FEE096" stroke="none" d="
M 307 166.05
Q 307 161.05 302 161.05
L 140 161.05
Q 135 161.05 135 166.05
L 135 203.05
Q 135 208.05 140 208.05
L 302 208.05
Q 307 208.05 307 203.05
L 307 166.05 Z"/>
</g>

<g id="Layer7_0_FILL">
<path fill="#3567D7" stroke="none" d="
M 1097.05 621.4
Q 1098.65 619.15 1099.35 616.15 1100 613.1 1100 609.75 1100 602.3 1097.45 598.75 1094.9 595.2 1090.2 595.2 1087.9 595.2 1086.1 596 1084.25 596.8 1082.95 598.2 1081.65 599.6 1080.95 601.5 1080.3 603.4 1080.3 605.6 1080.3 607.9 1081 609.7 1081.65 611.5 1082.95 612.8 1084.25 614.1 1086.05 614.8 1087.8 615.5 1089.95 615.5 1090.7 615.5 1091.5 615.3 1092.3 615.1 1093.05 614.75 1093.8 614.4 1094.45 613.95 1095.05 613.5 1095.4 613 1095.15 614.9 1094.55 616.6 1093.95 618.25 1092.95 619.5 1091.95 620.75 1090.5 621.45 1089.05 622.15 1086.95 622.15 1085.55 622.15 1084.4 622.05 1083.2 621.95 1082.15 621.5 1081.6 621.3 1081.5 621.85
L 1081.4 625.05
Q 1081.35 625.45 1081.7 625.55 1082.65 625.9 1084.05 626.1 1085.5 626.3 1086.65 626.3 1090.35 626.3 1092.9 624.95 1095.5 623.65 1097.05 621.4
M 1093.85 601.1
Q 1094.55 602 1094.95 603.2 1095.35 604.4 1095.35 605.75 1095.35 608.2 1093.9 609.8 1092.4 611.35 1089.8 611.35 1087.35 611.35 1086.05 609.75 1084.7 608.15 1084.7 605.4 1084.7 602.5 1086.2 600.85 1087.75 599.15 1090.15 599.15 1091.25 599.15 1092.2 599.7 1093.15 600.2 1093.85 601.1 Z"/>

<path fill="#1E1E1E" stroke="none" d="
M 990.45 522.2
Q 988.75 522.2 987.35 522.8 985.95 523.4 985 524.45 984 525.5 983.55 526.9 983 528.35 983 530 983 531.7 983.55 533.05 984.05 534.45 985 535.4 985.95 536.4 987.3 536.9 988.65 537.45 990.25 537.45 990.85 537.45 991.45 537.3 992.05 537.1 992.6 536.85 993.15 536.6 993.6 536.25 994.05 535.9 994.35 535.55 994.15 537 993.7 538.25 993.25 539.5 992.5 540.45 991.75 541.35 990.7 541.9 989.6 542.4 988 542.4 986.95 542.4 986.1 542.35 985.2 542.25 984.4 541.95 984 541.75 983.95 542.2
L 983.85 544.55
Q 983.8 544.9 984.1 544.95 984.8 545.2 985.85 545.35 986.9 545.5 987.75 545.5 990.55 545.5 992.5 544.5 994.4 543.55 995.6 541.85 996.8 540.15 997.3 537.9 997.8 535.65 997.8 533.1 997.8 527.5 995.9 524.85 994 522.2 990.45 522.2
M 990.4 525.15
Q 991.25 525.15 991.95 525.55 992.65 525.95 993.2 526.65 993.7 527.3 994 528.2 994.3 529.1 994.3 530.1 994.3 531.95 993.2 533.15 992.1 534.3 990.15 534.3 988.3 534.3 987.3 533.1 986.3 531.9 986.3 529.85 986.3 527.7 987.45 526.4 988.6 525.15 990.4 525.15 Z"/>
</g>
</defs>

<g transform="matrix( 1, 0, 0, 1, 769,350) ">
<use xlink:href="#Layer8_0_FILL"/>
</g>

<g transform="matrix( 1, 0, 0, 1, 0,0) ">
<use xlink:href="#Layer7_0_FILL"/>
</g>
</svg>
