<svg xmlns="http://www.w3.org/2000/svg" viewBox="0 0 192.76 136.56"><defs><style>.cls-1{fill:#efe9d6;}.cls-2{fill:#f6f3e7;}.cls-3,.cls-4,.cls-5{fill:none;}.cls-3,.cls-4{stroke:#595757;stroke-linecap:round;stroke-linejoin:round;stroke-width:0.3px;}.cls-3{stroke-dasharray:0 0.6;}.cls-5{stroke:#d0c395;stroke-miterlimit:10;}.cls-6{fill:#231815;}</style></defs><title>자산 3</title><g id="레이어_2" data-name="레이어 2"><g id="레이어_1-2" data-name="레이어 1"><path class="cls-1" d="M4.25,0S0,0,0,4.25V17.58s0,4.25,4.25,4.25H51.59s4.25,0,4.25-4.25V4.25S55.84,0,51.59,0Z"/><path class="cls-1" d="M61.8,0s-4.26,0-4.26,4.25V17.58s0,4.25,4.26,4.25H188.5s4.26,0,4.26-4.25V4.25S192.76,0,188.5,0Z"/><path class="cls-2" d="M4.25,23.53S0,23.53,0,27.78V40.25S0,44.5,4.25,44.5H51.59s4.25,0,4.25-4.25V27.78s0-4.25-4.25-4.25Z"/><path class="cls-2" d="M4.25,46.2S0,46.2,0,50.46V62.93s0,4.25,4.25,4.25H51.59s4.25,0,4.25-4.25V50.46s0-4.26-4.25-4.26Z"/><path class="cls-2" d="M4.25,68.88S0,68.88,0,73.13V85.61s0,4.25,4.25,4.25H51.59s4.25,0,4.25-4.25V73.13s0-4.25-4.25-4.25Z"/><path class="cls-2" d="M4.25,91.56S0,91.56,0,95.81v12.4s0,4.26,4.25,4.26H51.59s4.25,0,4.25-4.26V95.81s0-4.25-4.25-4.25Z"/><path class="cls-2" d="M4.25,114.24S0,114.24,0,118.49v13.82s0,4.25,4.25,4.25H51.59s4.25,0,4.25-4.25V118.49s0-4.25-4.25-4.25Z"/><line class="cls-3" x1="57.44" y1="45.35" x2="192.31" y2="45.35"/><path class="cls-4" d="M192.61,45.35h0m-135.77,0h0"/><line class="cls-3" x1="57.44" y1="68.03" x2="192.31" y2="68.03"/><path class="cls-4" d="M192.61,68h0M56.84,68h0"/><line class="cls-3" x1="57.44" y1="90.71" x2="192.31" y2="90.71"/><path class="cls-4" d="M192.61,90.71h0m-135.77,0h0"/><line class="cls-3" x1="57.44" y1="113.39" x2="192.31" y2="113.39"/><path class="cls-4" d="M192.61,113.39h0m-135.77,0h0"/><line class="cls-5" x1="56.69" y1="136.06" x2="192.76" y2="136.06"/><path class="cls-6" d="M29.43,12.59c0,.28-.14.54-.44.54H24.9V15c0,.34-.28.5-.63.5s-.62-.16-.62-.5V13.13H19.28c-.3,0-.44-.26-.44-.54S19,12,19.28,12H29C29.29,12,29.43,12.29,29.43,12.59ZM24.78,6.78v.53c0,.8.42,1.28,1.29,1.7s1.49.69,2.21,1a.55.55,0,0,1,.2.73.54.54,0,0,1-.72.33c-.63-.28-1.35-.6-2-.93-1.16-.56-1.53-1-1.6-1.26h0c-.09.35-.45.73-1.61,1.29-.67.32-1.39.65-2,.92a.52.52,0,0,1-.71-.32A.57.57,0,0,1,20,10c.71-.31,1.38-.61,2.2-1s1.3-.9,1.3-1.7V6.78c0-.4.3-.56.64-.56S24.78,6.38,24.78,6.78Zm-3.24,8V16.5c0,.19.07.27.26.27h6c.3,0,.44.25.44.55s-.14.56-.44.56H21.23c-.73,0-.95-.24-.95-1V14.73c0-.38.3-.54.63-.54S21.54,14.35,21.54,14.73Z"/><path class="cls-6" d="M34.17,7.15v2a3.28,3.28,0,0,0,1,2.55c.5.55,1,1.07,1.45,1.48a.57.57,0,0,1,0,.8.54.54,0,0,1-.77.07c-.39-.37-.82-.81-1.3-1.33-.73-.79-.91-1.1-1-1.38h0c-.07.3-.24.62-1,1.41-.48.52-.92,1-1.47,1.48a.53.53,0,0,1-.79-.1.58.58,0,0,1,0-.81q.84-.79,1.59-1.62a3.32,3.32,0,0,0,1-2.55v-2c0-.37.3-.54.63-.54S34.17,6.78,34.17,7.15Zm5.36-.61V16.68a.56.56,0,0,1-.63.55.55.55,0,0,1-.62-.55V10.6H36.36c-.31,0-.45-.25-.45-.55s.14-.56.45-.56h1.92V6.54A.55.55,0,0,1,38.9,6C39.22,6,39.53,6.16,39.53,6.54Z"/><path class="cls-6" d="M115.47,9.65v1.71h5c.31,0,.44.25.44.54s-.13.56-.44.56h-9.7c-.3,0-.44-.26-.44-.56s.14-.54.44-.54h3.44V9.65c0-.37.3-.53.62-.53S115.47,9.28,115.47,9.65Zm3-3.17c.74,0,1,.23,1,1v.83a6.61,6.61,0,0,1-.23,1.89.61.61,0,0,1-.77.4.51.51,0,0,1-.44-.66,7.31,7.31,0,0,0,.18-1.67V7.87c0-.2-.07-.26-.26-.26h-5.87c-.31,0-.43-.26-.43-.56s.12-.57.43-.57ZM113,13.89v.85h5.26v-.85a.55.55,0,0,1,.61-.54.57.57,0,0,1,.63.54V17c0,.74-.24,1-1,1h-5.8c-.73,0-1-.23-1-1V13.89a.62.62,0,0,1,1.23,0Zm0,2.79c0,.14.06.21.2.21h4.86c.14,0,.2-.07.2-.21v-.9H113Z"/><path class="cls-6" d="M125,7V8.18a2.36,2.36,0,0,0,.67,1.9c.49.49.89.87,1.26,1.18a.61.61,0,0,1,0,.82.56.56,0,0,1-.8.08c-.33-.29-.62-.56-1-1s-.71-.8-.76-1h0c0,.29-.19.55-.76,1.1s-.82.77-1.26,1.14a.52.52,0,0,1-.77-.1.58.58,0,0,1,0-.81c.49-.42,1-.88,1.47-1.37a2.38,2.38,0,0,0,.67-1.9V7A.64.64,0,0,1,125,7Zm5.39,6.32c.74,0,1,.23,1,1v2.64c0,.74-.24,1-1,1h-5.73c-.73,0-1-.24-1-1V14.3c0-.74.24-1,1-1Zm-5.45,1.36v1.86c0,.2.07.27.26.27h4.65c.19,0,.27-.07.27-.27V14.69c0-.19-.08-.27-.27-.27h-4.65C125,14.42,124.89,14.5,124.89,14.69Zm4.16-8.12V12.2a.53.53,0,0,1-.58.5.53.53,0,0,1-.6-.5V9.49h-1.26c-.3,0-.44-.26-.44-.56s.14-.56.44-.56h1.26V6.57c0-.35.29-.51.6-.51A.52.52,0,0,1,129.05,6.57Zm2.27-.07v5.76a.54.54,0,0,1-.6.51.53.53,0,0,1-.58-.51V6.5a.52.52,0,0,1,.58-.5C131,6,131.32,6.15,131.32,6.5Z"/><path class="cls-6" d="M136.9,6.93V8.11a2.34,2.34,0,0,0,.85,1.93c.59.51,1.12.92,1.54,1.23a.56.56,0,0,1,.08.8.52.52,0,0,1-.76.15c-.34-.24-.86-.65-1.39-1.1s-.87-.85-.93-1.12h0c-.06.3-.34.66-1,1.17s-1,.87-1.58,1.26a.55.55,0,0,1-.78-.16.59.59,0,0,1,.1-.83c.59-.44,1.12-.86,1.71-1.36a2.31,2.31,0,0,0,.85-1.93V6.93a.57.57,0,0,1,.64-.55C136.6,6.38,136.9,6.55,136.9,6.93Zm4.19,6.66c.73,0,1,.23,1,1v3a.64.64,0,0,1-1.26,0V15c0-.2-.08-.26-.27-.26h-5.61c-.31,0-.45-.26-.45-.56s.14-.56.45-.56Zm1-7v5.94a.64.64,0,0,1-1.26,0V6.54c0-.38.3-.54.63-.54S142.06,6.16,142.06,6.54Z"/><path class="cls-6" d="M23.52,29.47v.89h1.93c.28,0,.41.24.41.52s-.13.5-.41.5H23.52V32a1.68,1.68,0,0,0,.73,1.53c.55.42,1,.75,1.37,1a.5.5,0,0,1,.13.73.49.49,0,0,1-.71.15c-.27-.16-.72-.49-1.2-.85s-.84-.73-.88-1h0c-.06.28-.31.58-.92,1s-1,.7-1.41,1a.5.5,0,0,1-.69-.18.53.53,0,0,1,.12-.75c.51-.34,1-.69,1.57-1.11A1.72,1.72,0,0,0,22.35,32v-.62h-2c-.29,0-.42-.23-.42-.5s.13-.52.42-.52h2v-.89a.52.52,0,0,1,.58-.5C23.24,29,23.52,29.13,23.52,29.47Zm2.06,6.83v.23a1.56,1.56,0,0,0,1,1.54c.67.36,1.33.67,2,1a.49.49,0,0,1,.18.66.5.5,0,0,1-.66.28c-.66-.28-1.24-.58-1.82-.89-.91-.5-1.23-.82-1.31-1.13h0c-.09.32-.42.66-1.33,1.15-.58.31-1.15.61-1.82.9a.5.5,0,0,1-.66-.29.51.51,0,0,1,.17-.68c.73-.33,1.38-.64,2-1a1.55,1.55,0,0,0,1-1.54V36.3c0-.34.28-.49.59-.49S25.58,36,25.58,36.3Zm2.84-6.71v6.29a.51.51,0,0,1-.57.5c-.3,0-.58-.15-.58-.5V33.3H25.62c-.28,0-.4-.24-.4-.52s.12-.51.4-.51h1.65V29.59a.58.58,0,0,1,1.15,0Z"/><path class="cls-6" d="M35.63,30.56c0,.28-.12.51-.4.51h-.71v1.11a4.17,4.17,0,0,0,.38,2.15c.25.48.52,1,.77,1.39a.51.51,0,0,1-.14.69.45.45,0,0,1-.65-.12c-.21-.34-.37-.65-.58-1a2.43,2.43,0,0,1-.31-.82h0a2.7,2.7,0,0,1-.31.87c-.17.33-.34.67-.56,1a.4.4,0,0,1-.75,0,10.17,10.17,0,0,1-.54-1,2.84,2.84,0,0,1-.33-.87h0a2.68,2.68,0,0,1-.3.84c-.21.38-.39.7-.63,1.07a.44.44,0,0,1-.65.13.5.5,0,0,1-.14-.69c.26-.44.57-1,.81-1.45A4.13,4.13,0,0,0,31,32.18V31.07h-.68c-.29,0-.42-.23-.42-.51s.13-.51.42-.51h5C35.51,30.05,35.63,30.29,35.63,30.56ZM32.22,34c.13.32.24.58.39.87s.15.22.27,0,.25-.55.38-.87a5.26,5.26,0,0,0,.21-1.83V31.07H32v1.11A5.21,5.21,0,0,0,32.22,34Zm6.9-4.46V39c0,.31-.25.45-.53.45a.45.45,0,0,1-.51-.45V33.79h-1v4.7a.47.47,0,0,1-.52.46.46.46,0,0,1-.52-.46V29.67a.46.46,0,0,1,.52-.46.46.46,0,0,1,.52.46v3.1h1V29.55a.45.45,0,0,1,.51-.46C38.87,29.09,39.12,29.23,39.12,29.55Z"/><path class="cls-6" d="M105.1,30.82v.06a1.87,1.87,0,0,1-1.36,1.82,1.78,1.78,0,0,1,1.68,1.79v.11c0,1.21-.91,2.29-2.77,2.29a4,4,0,0,1-2.26-.64.5.5,0,0,1-.15-.72.45.45,0,0,1,.68-.17,2.8,2.8,0,0,0,1.67.54c1.25,0,1.72-.62,1.72-1.33v-.09c0-1-.75-1.27-1.74-1.27h-.63c-.27,0-.39-.22-.39-.49s.12-.47.39-.47h.54c.89,0,1.54-.4,1.54-1.3v0c0-.67-.47-1.12-1.44-1.12a1.81,1.81,0,0,0-1.42.65.45.45,0,0,1-.67,0,.5.5,0,0,1,0-.67,2.64,2.64,0,0,1,2.09-.91C104.25,28.83,105.1,29.72,105.1,30.82Z"/><path class="cls-6" d="M111.81,30.82v.06a1.87,1.87,0,0,1-1.36,1.82,1.78,1.78,0,0,1,1.68,1.79v.11c0,1.21-.91,2.29-2.77,2.29a4,4,0,0,1-2.26-.64.5.5,0,0,1-.15-.72.45.45,0,0,1,.68-.17,2.8,2.8,0,0,0,1.67.54c1.25,0,1.72-.62,1.72-1.33v-.09c0-1-.75-1.27-1.74-1.27h-.63c-.27,0-.39-.22-.39-.49s.12-.47.39-.47h.54c.89,0,1.54-.4,1.54-1.3v0c0-.67-.47-1.12-1.44-1.12a1.81,1.81,0,0,0-1.42.65.45.45,0,0,1-.67,0,.5.5,0,0,1,0-.67,2.64,2.64,0,0,1,2.09-.91C111,28.83,111.81,29.72,111.81,30.82Z"/><path class="cls-6" d="M119.23,31a.4.4,0,0,1,.07.59l-1.75,1.84,1.74,1.84a.46.46,0,0,1-.65.63L117,34l-1.7,1.81a.4.4,0,0,1-.58,0,.4.4,0,0,1-.08-.59l1.73-1.84-1.73-1.84a.4.4,0,0,1,.07-.59.38.38,0,0,1,.58,0l1.71,1.8,1.69-1.8A.39.39,0,0,1,119.23,31Z"/><path class="cls-6" d="M126.52,29.37v7c0,.32-.25.47-.55.47s-.55-.15-.55-.47V30.19l-1.65,1a.5.5,0,0,1-.7-.23.48.48,0,0,1,.17-.67l2-1.17a1.5,1.5,0,0,1,.74-.25C126.28,28.89,126.52,29,126.52,29.37Z"/><path class="cls-6" d="M135.69,31.71c0,.25-.12.46-.38.46h-4.43c-.26,0-.39-.21-.39-.46a.4.4,0,0,1,.39-.45h4.43C135.57,31.26,135.69,31.47,135.69,31.71Zm0,2.33c0,.25-.12.45-.38.45h-4.43c-.26,0-.39-.2-.39-.45s.13-.46.39-.46h4.43C135.57,33.58,135.69,33.79,135.69,34Z"/><path class="cls-6" d="M144.26,30.82v.06a1.87,1.87,0,0,1-1.36,1.82,1.78,1.78,0,0,1,1.68,1.79v.11c0,1.21-.91,2.29-2.77,2.29a4,4,0,0,1-2.26-.64.5.5,0,0,1-.15-.72.45.45,0,0,1,.68-.17,2.8,2.8,0,0,0,1.67.54c1.25,0,1.72-.62,1.72-1.33v-.09c0-1-.75-1.27-1.74-1.27h-.63c-.27,0-.39-.22-.39-.49s.12-.47.39-.47h.54c.89,0,1.54-.4,1.54-1.3v0c0-.67-.47-1.12-1.44-1.12a1.81,1.81,0,0,0-1.42.65.45.45,0,0,1-.67,0,.49.49,0,0,1,0-.67,2.64,2.64,0,0,1,2.09-.91C143.41,28.83,144.26,29.72,144.26,30.82Z"/><path class="cls-6" d="M151,30.82v.06a1.87,1.87,0,0,1-1.36,1.82,1.78,1.78,0,0,1,1.68,1.79v.11c0,1.21-.91,2.29-2.77,2.29a4,4,0,0,1-2.26-.64.5.5,0,0,1-.15-.72.45.45,0,0,1,.68-.17,2.8,2.8,0,0,0,1.67.54c1.25,0,1.72-.62,1.72-1.33v-.09c0-1-.75-1.27-1.74-1.27h-.63c-.27,0-.39-.22-.39-.49s.12-.47.39-.47h.54c.89,0,1.54-.4,1.54-1.3v0c0-.67-.47-1.12-1.44-1.12a1.81,1.81,0,0,0-1.42.65.45.45,0,0,1-.67,0,.49.49,0,0,1,0-.67,2.64,2.64,0,0,1,2.09-.91C150.12,28.83,151,29.72,151,30.82Z"/><path class="cls-6" d="M28,59.3v.89c0,.68-.22.9-.89.9H22.2c-.13,0-.18,0-.18.17v.5c0,.12.05.18.18.18h5.69a.41.41,0,0,1,.39.46c0,.26-.13.47-.39.47H21.78c-.67,0-.89-.21-.89-.9v-.88c0-.69.22-.9.89-.9h4.93c.13,0,.18-.06.18-.18v-.48c0-.14-.05-.2-.18-.2H21.24c-.26,0-.38-.21-.38-.46s.12-.47.38-.47h2.65v-1H20c-.27,0-.4-.22-.4-.5s.13-.48.4-.48h9c.27,0,.4.22.4.48s-.13.5-.4.5H25v1h2.1C27.8,58.4,28,58.61,28,59.3ZM28,52.51c0,.28-.12.49-.38.49H22.33c-.18,0-.24.06-.24.25v1.09c0,.2.06.26.24.26H27.7c.25,0,.38.21.38.48s-.13.5-.38.5H21.81c-.68,0-.89-.22-.89-.9V52.92c0-.69.21-.9.89-.9h5.77C27.84,52,28,52.25,28,52.51Z"/><path class="cls-6" d="M35.63,53.24c0,.28-.12.51-.4.51h-.71v1.11A4.19,4.19,0,0,0,34.9,57c.25.48.52,1,.77,1.39a.5.5,0,0,1-.14.68.45.45,0,0,1-.65-.12c-.21-.33-.37-.65-.58-1A2.47,2.47,0,0,1,34,57.1h0a2.82,2.82,0,0,1-.31.88c-.17.32-.34.67-.56,1a.41.41,0,0,1-.75,0,11.38,11.38,0,0,1-.54-1,3,3,0,0,1-.33-.88h0a2.6,2.6,0,0,1-.3.84c-.21.39-.39.71-.63,1.08a.43.43,0,0,1-.65.12.49.49,0,0,1-.14-.68c.26-.45.57-1,.81-1.45A4.15,4.15,0,0,0,31,54.86V53.75h-.68c-.29,0-.42-.23-.42-.51s.13-.51.42-.51h5C35.51,52.73,35.63,53,35.63,53.24Zm-3.41,3.44a9,9,0,0,0,.39.88c.1.21.15.21.27,0s.25-.55.38-.88a5.16,5.16,0,0,0,.21-1.82V53.75H32v1.11A5.11,5.11,0,0,0,32.22,56.68Zm6.9-4.46v9.45a.47.47,0,0,1-.53.46.46.46,0,0,1-.51-.46v-5.2h-1v4.7a.46.46,0,0,1-.52.45c-.28,0-.52-.14-.52-.45V52.34c0-.31.24-.45.52-.45a.46.46,0,0,1,.52.45v3.11h1V52.22a.45.45,0,0,1,.51-.45C38.87,51.77,39.12,51.91,39.12,52.22Z"/><path class="cls-6" d="M93.66,53.5v0a1.88,1.88,0,0,1-1.36,1.83A1.77,1.77,0,0,1,94,57.17v.11c0,1.21-.91,2.29-2.77,2.29A4,4,0,0,1,89,58.93a.5.5,0,0,1-.15-.72.45.45,0,0,1,.68-.17,2.87,2.87,0,0,0,1.67.54c1.25,0,1.72-.63,1.72-1.33v-.09c0-1-.75-1.28-1.74-1.28H90.5c-.27,0-.39-.21-.39-.48s.12-.47.39-.47H91c.89,0,1.54-.4,1.54-1.3v0c0-.67-.47-1.13-1.44-1.13a1.84,1.84,0,0,0-1.42.65.44.44,0,0,1-.67,0,.49.49,0,0,1,0-.67,2.64,2.64,0,0,1,2.09-.91C92.81,51.51,93.66,52.4,93.66,53.5Z"/><path class="cls-6" d="M100.37,53.5v0A1.88,1.88,0,0,1,99,55.38a1.77,1.77,0,0,1,1.68,1.79v.11c0,1.21-.91,2.29-2.77,2.29a4,4,0,0,1-2.26-.64.5.5,0,0,1-.15-.72.45.45,0,0,1,.68-.17,2.87,2.87,0,0,0,1.67.54c1.25,0,1.72-.63,1.72-1.33v-.09c0-1-.75-1.28-1.74-1.28h-.63c-.27,0-.39-.21-.39-.48s.12-.47.39-.47h.54c.89,0,1.54-.4,1.54-1.3v0c0-.67-.47-1.13-1.44-1.13a1.84,1.84,0,0,0-1.42.65.44.44,0,0,1-.67,0,.49.49,0,0,1,0-.67,2.64,2.64,0,0,1,2.09-.91C99.52,51.51,100.37,52.4,100.37,53.5Z"/><path class="cls-6" d="M107.79,53.63a.39.39,0,0,1,.07.58l-1.75,1.85,1.74,1.84a.41.41,0,0,1-.06.59.4.4,0,0,1-.59,0l-1.69-1.8-1.7,1.8a.39.39,0,0,1-.58,0,.4.4,0,0,1-.08-.59l1.73-1.84-1.73-1.85a.39.39,0,0,1,.07-.58.37.37,0,0,1,.58,0l1.71,1.8,1.69-1.8A.38.38,0,0,1,107.79,53.63Z"/><path class="cls-6" d="M113.24,52.05v7c0,.32-.25.46-.55.46s-.55-.14-.55-.46V52.87l-1.65,1a.48.48,0,0,1-.69-.22A.47.47,0,0,1,110,53l2-1.18a1.58,1.58,0,0,1,.74-.24C113,51.57,113.24,51.72,113.24,52.05Z"/><path class="cls-6" d="M121.47,55.27v.54c0,2.43-.83,3.76-2.81,3.76s-2.82-1.33-2.82-3.76v-.54c0-2.43.84-3.76,2.82-3.76S121.47,52.84,121.47,55.27Zm-4.52.09v.36c0,2,.41,2.82,1.71,2.82s1.7-.86,1.7-2.82v-.36c0-2-.41-2.82-1.7-2.82S117,53.4,117,55.36Z"/><path class="cls-6" d="M126.66,52.05v7c0,.32-.25.46-.55.46s-.55-.14-.55-.46V52.87l-1.65,1a.52.52,0,0,1-.53-.89l2-1.18a1.58,1.58,0,0,1,.74-.24C126.42,51.57,126.66,51.72,126.66,52.05Z"/><path class="cls-6" d="M135.69,54.88c0,.26-.12.46-.38.46h-4.43c-.26,0-.39-.2-.39-.46a.4.4,0,0,1,.39-.45h4.43C135.57,54.43,135.69,54.64,135.69,54.88Zm0,2.34c0,.24-.12.45-.38.45h-4.43a.4.4,0,0,1-.39-.45c0-.26.13-.47.39-.47h4.43C135.57,56.75,135.69,57,135.69,57.22Z"/><path class="cls-6" d="M144.26,53.5v0a1.88,1.88,0,0,1-1.36,1.83,1.77,1.77,0,0,1,1.68,1.79v.11c0,1.21-.91,2.29-2.77,2.29a4,4,0,0,1-2.26-.64.5.5,0,0,1-.15-.72.45.45,0,0,1,.68-.17,2.87,2.87,0,0,0,1.67.54c1.25,0,1.72-.63,1.72-1.33v-.09c0-1-.75-1.28-1.74-1.28h-.63c-.27,0-.39-.21-.39-.48s.12-.47.39-.47h.54c.89,0,1.54-.4,1.54-1.3v0c0-.67-.47-1.13-1.44-1.13a1.84,1.84,0,0,0-1.42.65.44.44,0,0,1-.67,0,.5.5,0,0,1,0-.67,2.64,2.64,0,0,1,2.09-.91C143.41,51.51,144.26,52.4,144.26,53.5Z"/><path class="cls-6" d="M151,53.5v0a1.88,1.88,0,0,1-1.36,1.83,1.77,1.77,0,0,1,1.68,1.79v.11c0,1.21-.91,2.29-2.77,2.29a4,4,0,0,1-2.26-.64.5.5,0,0,1-.15-.72.45.45,0,0,1,.68-.17,2.87,2.87,0,0,0,1.67.54c1.25,0,1.72-.63,1.72-1.33v-.09c0-1-.75-1.28-1.74-1.28h-.63c-.27,0-.39-.21-.39-.48s.12-.47.39-.47h.54c.89,0,1.54-.4,1.54-1.3v0c0-.67-.47-1.13-1.44-1.13a1.84,1.84,0,0,0-1.42.65.44.44,0,0,1-.67,0,.5.5,0,0,1,0-.67,2.64,2.64,0,0,1,2.09-.91C150.12,51.51,151,52.4,151,53.5Z"/><path class="cls-6" d="M157.68,53.5v0a1.88,1.88,0,0,1-1.36,1.83A1.77,1.77,0,0,1,158,57.17v.11c0,1.21-.91,2.29-2.77,2.29a4,4,0,0,1-2.26-.64.5.5,0,0,1-.15-.72.45.45,0,0,1,.68-.17,2.87,2.87,0,0,0,1.67.54c1.25,0,1.72-.63,1.72-1.33v-.09c0-1-.75-1.28-1.74-1.28h-.63c-.27,0-.39-.21-.39-.48s.12-.47.39-.47h.54c.89,0,1.54-.4,1.54-1.3v0c0-.67-.47-1.13-1.44-1.13a1.84,1.84,0,0,0-1.42.65.44.44,0,0,1-.67,0,.49.49,0,0,1,0-.67,2.64,2.64,0,0,1,2.09-.91C156.83,51.51,157.68,52.4,157.68,53.5Z"/><path class="cls-6" d="M164.39,53.5v0A1.88,1.88,0,0,1,163,55.38a1.77,1.77,0,0,1,1.68,1.79v.11c0,1.21-.91,2.29-2.77,2.29a4,4,0,0,1-2.26-.64.5.5,0,0,1-.15-.72.45.45,0,0,1,.68-.17,2.87,2.87,0,0,0,1.67.54c1.25,0,1.72-.63,1.72-1.33v-.09c0-1-.75-1.28-1.74-1.28h-.63c-.27,0-.39-.21-.39-.48s.12-.47.39-.47h.54c.89,0,1.54-.4,1.54-1.3v0c0-.67-.47-1.13-1.44-1.13a1.84,1.84,0,0,0-1.42.65.44.44,0,0,1-.67,0,.49.49,0,0,1,0-.67,2.64,2.64,0,0,1,2.09-.91C163.54,51.51,164.39,52.4,164.39,53.5Z"/><path class="cls-6" d="M22.81,75.38v1.14a2.22,2.22,0,0,0,.63,1.78c.41.45.79.8,1.16,1.14a.54.54,0,0,1,0,.75.5.5,0,0,1-.73,0c-.28-.26-.61-.56-.93-.88a2.24,2.24,0,0,1-.71-1h0c0,.27-.18.53-.71,1.06s-.73.71-1.12,1.06a.51.51,0,0,1-.73-.09.55.55,0,0,1,0-.75c.43-.38.93-.86,1.37-1.3a2.36,2.36,0,0,0,.61-1.8V75.38a.59.59,0,0,1,1.17,0Zm2.79,6v.44a1.57,1.57,0,0,0,1,1.57c.66.36,1.32.7,2,1a.48.48,0,0,1,.16.68.47.47,0,0,1-.65.27c-.65-.3-1.24-.6-1.81-.91-.92-.51-1.23-.82-1.32-1.13h0c-.08.32-.41.65-1.33,1.15-.56.31-1.15.61-1.81.91a.49.49,0,0,1-.66-.26.53.53,0,0,1,.18-.71c.71-.32,1.38-.66,2-1a1.57,1.57,0,0,0,1-1.57v-.44a.58.58,0,0,1,1.16,0Zm1-6.42v5a.49.49,0,0,1-.53.47.5.5,0,0,1-.55-.47V77.73H24.34c-.28,0-.4-.24-.4-.52s.12-.51.4-.51h1.17V75a.49.49,0,0,1,.55-.47A.48.48,0,0,1,26.59,75Zm2.1-.06v6.24a.55.55,0,0,1-1.09,0V74.91a.55.55,0,0,1,1.09,0Z"/><path class="cls-6" d="M35.63,75.92c0,.27-.12.5-.4.5h-.71v1.12a4.13,4.13,0,0,0,.38,2.14c.25.48.52,1,.77,1.4a.5.5,0,0,1-.14.68.45.45,0,0,1-.65-.12c-.21-.34-.37-.65-.58-1a2.47,2.47,0,0,1-.31-.83h0a2.82,2.82,0,0,1-.31.88c-.17.32-.34.67-.56,1a.41.41,0,0,1-.75,0,11.38,11.38,0,0,1-.54-1,3,3,0,0,1-.33-.88h0a2.6,2.6,0,0,1-.3.84c-.21.38-.39.71-.63,1.08a.44.44,0,0,1-.65.12.5.5,0,0,1-.14-.69c.26-.44.57-1,.81-1.45A4.11,4.11,0,0,0,31,77.54V76.42h-.68c-.29,0-.42-.23-.42-.5s.13-.52.42-.52h5C35.51,75.4,35.63,75.64,35.63,75.92Zm-3.41,3.44c.13.32.24.59.39.88s.15.21.27,0,.25-.56.38-.88a5.19,5.19,0,0,0,.21-1.82V76.42H32v1.12A5.14,5.14,0,0,0,32.22,79.36Zm6.9-4.46v9.45c0,.31-.25.45-.53.45a.45.45,0,0,1-.51-.45V79.14h-1v4.71a.46.46,0,0,1-.52.45c-.28,0-.52-.14-.52-.45V75a.46.46,0,0,1,.52-.46.47.47,0,0,1,.52.46v3.11h1V74.9a.46.46,0,0,1,.51-.46A.47.47,0,0,1,39.12,74.9Z"/><path class="cls-6" d="M82.22,76.17v.06a1.88,1.88,0,0,1-1.36,1.83,1.77,1.77,0,0,1,1.68,1.79V80c0,1.21-.91,2.29-2.77,2.29a4,4,0,0,1-2.26-.64.51.51,0,0,1-.15-.73.45.45,0,0,1,.68-.16,2.87,2.87,0,0,0,1.67.54c1.25,0,1.72-.63,1.72-1.33v-.09c0-1-.75-1.28-1.74-1.28h-.63c-.27,0-.39-.22-.39-.48s.12-.48.39-.48h.54c.89,0,1.54-.39,1.54-1.29v0c0-.67-.47-1.12-1.44-1.12a1.81,1.81,0,0,0-1.42.65.44.44,0,0,1-.67,0,.5.5,0,0,1,0-.67,2.65,2.65,0,0,1,2.09-.92C81.37,74.18,82.22,75.07,82.22,76.17Z"/><path class="cls-6" d="M88.93,76.17v.06a1.88,1.88,0,0,1-1.36,1.83,1.77,1.77,0,0,1,1.68,1.79V80c0,1.21-.91,2.29-2.77,2.29a4,4,0,0,1-2.26-.64.51.51,0,0,1-.15-.73.45.45,0,0,1,.68-.16,2.87,2.87,0,0,0,1.67.54c1.25,0,1.72-.63,1.72-1.33v-.09c0-1-.75-1.28-1.74-1.28h-.63c-.27,0-.39-.22-.39-.48s.12-.48.39-.48h.54c.89,0,1.54-.39,1.54-1.29v0c0-.67-.47-1.12-1.44-1.12A1.81,1.81,0,0,0,85,75.8a.44.44,0,0,1-.67,0,.5.5,0,0,1,0-.67,2.65,2.65,0,0,1,2.09-.92C88.08,74.18,88.93,75.07,88.93,76.17Z"/><path class="cls-6" d="M96.35,76.31a.39.39,0,0,1,.07.58l-1.75,1.85,1.74,1.84a.45.45,0,0,1-.65.62l-1.69-1.8-1.7,1.8a.39.39,0,0,1-.58,0,.4.4,0,0,1-.08-.59l1.73-1.84-1.73-1.85a.39.39,0,0,1,.07-.58.38.38,0,0,1,.58,0l1.71,1.81,1.69-1.81A.39.39,0,0,1,96.35,76.31Z"/><path class="cls-6" d="M102.11,74.72v7c0,.32-.25.46-.55.46S101,82,101,81.72V75.55l-1.65,1a.49.49,0,0,1-.69-.22.48.48,0,0,1,.16-.67l2-1.18a1.58,1.58,0,0,1,.74-.24C101.87,74.25,102.11,74.39,102.11,74.72Z"/><path class="cls-6" d="M110.34,78v.53c0,2.44-.84,3.77-2.82,3.77s-2.81-1.33-2.81-3.77V78c0-2.44.83-3.77,2.81-3.77S110.34,75.51,110.34,78Zm-4.52.08v.37c0,1.95.4,2.81,1.7,2.81s1.71-.86,1.71-2.81V78c0-2-.41-2.81-1.71-2.81S105.82,76.08,105.82,78Z"/><path class="cls-6" d="M115.53,74.72v7c0,.32-.25.46-.55.46s-.55-.14-.55-.46V75.55l-1.65,1a.49.49,0,0,1-.69-.22.48.48,0,0,1,.16-.67l2-1.18a1.58,1.58,0,0,1,.74-.24C115.29,74.25,115.53,74.39,115.53,74.72Z"/><path class="cls-6" d="M123.76,78v.53c0,2.44-.84,3.77-2.82,3.77s-2.82-1.33-2.82-3.77V78c0-2.44.84-3.77,2.82-3.77S123.76,75.51,123.76,78Zm-4.52.08v.37c0,1.95.4,2.81,1.7,2.81s1.71-.86,1.71-2.81V78c0-2-.41-2.81-1.71-2.81S119.24,76.08,119.24,78Z"/><path class="cls-6" d="M129,74.72v7c0,.32-.25.46-.55.46s-.55-.14-.55-.46V75.55l-1.65,1a.49.49,0,0,1-.69-.22.47.47,0,0,1,.16-.67l2-1.18a1.58,1.58,0,0,1,.74-.24C128.71,74.25,129,74.39,129,74.72Z"/><path class="cls-6" d="M138.13,77.07c0,.25-.12.46-.37.46h-4.43c-.27,0-.39-.21-.39-.46s.12-.46.39-.46h4.43C138,76.61,138.13,76.82,138.13,77.07Zm0,2.33c0,.24-.12.45-.37.45h-4.43c-.27,0-.39-.21-.39-.45s.12-.46.39-.46h4.43C138,78.94,138.13,79.14,138.13,79.4Z"/><path class="cls-6" d="M144.26,76.17v.06a1.88,1.88,0,0,1-1.36,1.83,1.77,1.77,0,0,1,1.68,1.79V80c0,1.21-.91,2.29-2.77,2.29a4,4,0,0,1-2.26-.64.51.51,0,0,1-.15-.73.45.45,0,0,1,.68-.16,2.87,2.87,0,0,0,1.67.54c1.25,0,1.72-.63,1.72-1.33v-.09c0-1-.75-1.28-1.74-1.28h-.63c-.27,0-.39-.22-.39-.48s.12-.48.39-.48h.54c.89,0,1.54-.39,1.54-1.29v0c0-.67-.47-1.12-1.44-1.12a1.81,1.81,0,0,0-1.42.65.44.44,0,0,1-.67,0,.5.5,0,0,1,0-.67,2.65,2.65,0,0,1,2.09-.92C143.41,74.18,144.26,75.07,144.26,76.17Z"/><path class="cls-6" d="M151,76.17v.06a1.88,1.88,0,0,1-1.36,1.83,1.77,1.77,0,0,1,1.68,1.79V80c0,1.21-.91,2.29-2.77,2.29a4,4,0,0,1-2.26-.64.51.51,0,0,1-.15-.73.45.45,0,0,1,.68-.16,2.87,2.87,0,0,0,1.67.54c1.25,0,1.72-.63,1.72-1.33v-.09c0-1-.75-1.28-1.74-1.28h-.63c-.27,0-.39-.22-.39-.48s.12-.48.39-.48h.54c.89,0,1.54-.39,1.54-1.29v0c0-.67-.47-1.12-1.44-1.12a1.81,1.81,0,0,0-1.42.65.44.44,0,0,1-.67,0,.5.5,0,0,1,0-.67,2.65,2.65,0,0,1,2.09-.92C150.12,74.18,151,75.07,151,76.17Z"/><path class="cls-6" d="M157.68,76.17v.06a1.88,1.88,0,0,1-1.36,1.83A1.77,1.77,0,0,1,158,79.85V80c0,1.21-.91,2.29-2.77,2.29a4,4,0,0,1-2.26-.64.51.51,0,0,1-.15-.73.45.45,0,0,1,.68-.16,2.87,2.87,0,0,0,1.67.54c1.25,0,1.72-.63,1.72-1.33v-.09c0-1-.75-1.28-1.74-1.28h-.63c-.27,0-.39-.22-.39-.48s.12-.48.39-.48h.54c.89,0,1.54-.39,1.54-1.29v0c0-.67-.47-1.12-1.44-1.12a1.81,1.81,0,0,0-1.42.65.44.44,0,0,1-.67,0,.49.49,0,0,1,0-.67,2.65,2.65,0,0,1,2.09-.92C156.83,74.18,157.68,75.07,157.68,76.17Z"/><path class="cls-6" d="M164.39,76.17v.06A1.88,1.88,0,0,1,163,78.06a1.77,1.77,0,0,1,1.68,1.79V80c0,1.21-.91,2.29-2.77,2.29a4,4,0,0,1-2.26-.64.51.51,0,0,1-.15-.73.45.45,0,0,1,.68-.16,2.87,2.87,0,0,0,1.67.54c1.25,0,1.72-.63,1.72-1.33v-.09c0-1-.75-1.28-1.74-1.28h-.63c-.27,0-.39-.22-.39-.48s.12-.48.39-.48h.54c.89,0,1.54-.39,1.54-1.29v0c0-.67-.47-1.12-1.44-1.12a1.81,1.81,0,0,0-1.42.65.44.44,0,0,1-.67,0,.49.49,0,0,1,0-.67,2.65,2.65,0,0,1,2.09-.92C163.54,74.18,164.39,75.07,164.39,76.17Z"/><path class="cls-6" d="M171.1,76.17v.06a1.88,1.88,0,0,1-1.36,1.83,1.77,1.77,0,0,1,1.68,1.79V80c0,1.21-.91,2.29-2.77,2.29a4,4,0,0,1-2.26-.64.51.51,0,0,1-.15-.73.45.45,0,0,1,.68-.16,2.87,2.87,0,0,0,1.67.54c1.25,0,1.72-.63,1.72-1.33v-.09c0-1-.75-1.28-1.74-1.28h-.63c-.27,0-.39-.22-.39-.48s.12-.48.39-.48h.54c.89,0,1.54-.39,1.54-1.29v0c0-.67-.47-1.12-1.44-1.12a1.81,1.81,0,0,0-1.42.65.44.44,0,0,1-.67,0,.49.49,0,0,1,0-.67,2.65,2.65,0,0,1,2.09-.92C170.25,74.18,171.1,75.07,171.1,76.17Z"/><path class="cls-6" d="M177.81,76.17v.06a1.88,1.88,0,0,1-1.36,1.83,1.77,1.77,0,0,1,1.68,1.79V80c0,1.21-.91,2.29-2.77,2.29a4,4,0,0,1-2.26-.64.51.51,0,0,1-.15-.73.45.45,0,0,1,.68-.16,2.87,2.87,0,0,0,1.67.54c1.25,0,1.72-.63,1.72-1.33v-.09c0-1-.75-1.28-1.74-1.28h-.63c-.27,0-.39-.22-.39-.48s.12-.48.39-.48h.54c.89,0,1.54-.39,1.54-1.29v0c0-.67-.47-1.12-1.44-1.12a1.81,1.81,0,0,0-1.42.65.44.44,0,0,1-.67,0,.49.49,0,0,1,0-.67,2.65,2.65,0,0,1,2.09-.92C177,74.18,177.81,75.07,177.81,76.17Z"/><path class="cls-6" d="M21.08,98.2v3.42c0,.19.07.25.25.25a20.15,20.15,0,0,0,2.77-.19c.26,0,.43.15.45.44a.47.47,0,0,1-.32.58,26.35,26.35,0,0,1-3.43.19c-.67,0-.89-.22-.89-.9V98.2a.59.59,0,0,1,1.17,0Zm4.52,5.86v.45a1.58,1.58,0,0,0,1,1.57c.66.36,1.32.7,2,1a.54.54,0,0,1-.49,1c-.65-.3-1.24-.6-1.81-.92-.92-.5-1.23-.81-1.32-1.12h0c-.08.32-.41.65-1.33,1.15-.56.31-1.15.61-1.81.91a.49.49,0,0,1-.66-.26.53.53,0,0,1,.18-.71c.71-.32,1.38-.66,2-1a1.58,1.58,0,0,0,1-1.57v-.45a.59.59,0,0,1,1.16,0Zm.92-6.41v5a.49.49,0,0,1-.53.47.5.5,0,0,1-.55-.47v-2.28H23.53c-.28,0-.41-.24-.41-.52s.13-.51.41-.51h1.91V97.65c0-.33.27-.47.55-.47A.48.48,0,0,1,26.52,97.65Zm2.17-.06v6.23a.55.55,0,0,1-1.09,0V97.59a.48.48,0,0,1,.54-.47C28.42,97.12,28.69,97.26,28.69,97.59Z"/><path class="cls-6" d="M35.63,98.6c0,.27-.12.5-.4.5h-.71v1.12a4.13,4.13,0,0,0,.38,2.14c.25.48.52,1,.77,1.39a.51.51,0,0,1-.14.69.45.45,0,0,1-.65-.12c-.21-.34-.37-.65-.58-1a2.55,2.55,0,0,1-.31-.83h0a2.7,2.7,0,0,1-.31.87,11.57,11.57,0,0,1-.56,1,.4.4,0,0,1-.75,0,9.19,9.19,0,0,1-.54-1,2.84,2.84,0,0,1-.33-.87h0a2.6,2.6,0,0,1-.3.84c-.21.38-.39.71-.63,1.08a.44.44,0,0,1-.65.12.5.5,0,0,1-.14-.69c.26-.44.57-1,.81-1.45a4.11,4.11,0,0,0,.38-2.14V99.1h-.68c-.29,0-.42-.23-.42-.5s.13-.52.42-.52h5C35.51,98.08,35.63,98.32,35.63,98.6ZM32.22,102a8.76,8.76,0,0,0,.39.87c.1.22.15.22.27,0s.25-.55.38-.87a5.19,5.19,0,0,0,.21-1.82V99.1H32v1.12A5.14,5.14,0,0,0,32.22,102Zm6.9-4.46V107c0,.31-.25.45-.53.45a.45.45,0,0,1-.51-.45v-5.21h-1v4.7a.46.46,0,0,1-.52.46.46.46,0,0,1-.52-.46V97.7a.46.46,0,0,1,.52-.46.46.46,0,0,1,.52.46v3.1h1V97.58a.45.45,0,0,1,.51-.46C38.87,97.12,39.12,97.26,39.12,97.58Z"/><path class="cls-6" d="M70.78,98.85v.06a1.86,1.86,0,0,1-1.36,1.82,1.79,1.79,0,0,1,1.68,1.8v.11c0,1.21-.91,2.29-2.77,2.29a4,4,0,0,1-2.26-.64.52.52,0,0,1-.15-.73.45.45,0,0,1,.68-.16,2.85,2.85,0,0,0,1.67.53c1.25,0,1.72-.62,1.72-1.33v-.08c0-1-.75-1.28-1.74-1.28h-.62c-.28,0-.4-.22-.4-.48s.12-.48.4-.48h.53c.9,0,1.54-.39,1.54-1.3v0c0-.67-.47-1.12-1.44-1.12a1.81,1.81,0,0,0-1.42.65.44.44,0,0,1-.67,0,.5.5,0,0,1,0-.67,2.67,2.67,0,0,1,2.09-.91C69.94,96.86,70.78,97.75,70.78,98.85Z"/><path class="cls-6" d="M77.49,98.85v.06a1.86,1.86,0,0,1-1.36,1.82,1.79,1.79,0,0,1,1.68,1.8v.11c0,1.21-.91,2.29-2.77,2.29a4,4,0,0,1-2.26-.64.52.52,0,0,1-.15-.73.45.45,0,0,1,.68-.16,2.85,2.85,0,0,0,1.67.53c1.25,0,1.72-.62,1.72-1.33v-.08c0-1-.75-1.28-1.74-1.28h-.62c-.28,0-.4-.22-.4-.48s.12-.48.4-.48h.53c.9,0,1.54-.39,1.54-1.3v0c0-.67-.47-1.12-1.44-1.12a1.81,1.81,0,0,0-1.42.65.44.44,0,0,1-.67,0,.5.5,0,0,1,0-.67A2.67,2.67,0,0,1,75,96.86C76.65,96.86,77.49,97.75,77.49,98.85Z"/><path class="cls-6" d="M84.91,99a.4.4,0,0,1,.07.59l-1.75,1.84L85,103.25a.42.42,0,0,1-.06.6.41.41,0,0,1-.59,0l-1.69-1.81-1.7,1.81a.4.4,0,0,1-.58,0,.42.42,0,0,1-.08-.6L82,101.41l-1.73-1.84a.4.4,0,0,1,.07-.59.38.38,0,0,1,.58,0l1.71,1.8L84.32,99A.39.39,0,0,1,84.91,99Z"/><path class="cls-6" d="M89.14,97.4v7c0,.32-.25.46-.55.46s-.55-.14-.55-.46V98.22l-1.65,1A.49.49,0,0,1,85.7,99a.48.48,0,0,1,.16-.67l2-1.18a1.48,1.48,0,0,1,.74-.24C88.9,96.93,89.14,97.07,89.14,97.4Z"/><path class="cls-6" d="M97.37,100.62v.54c0,2.43-.84,3.77-2.82,3.77s-2.81-1.34-2.81-3.77v-.54c0-2.43.83-3.76,2.81-3.76S97.37,98.19,97.37,100.62Zm-4.52.09v.36c0,2,.41,2.82,1.7,2.82s1.71-.86,1.71-2.82v-.36c0-2-.41-2.82-1.71-2.82S92.85,98.75,92.85,100.71Z"/><path class="cls-6" d="M102.56,97.4v7c0,.32-.25.46-.55.46s-.55-.14-.55-.46V98.22l-1.65,1a.49.49,0,0,1-.69-.22.48.48,0,0,1,.16-.67l2-1.18a1.48,1.48,0,0,1,.74-.24C102.32,96.93,102.56,97.07,102.56,97.4Z"/><path class="cls-6" d="M110.79,100.62v.54c0,2.43-.84,3.77-2.82,3.77s-2.81-1.34-2.81-3.77v-.54c0-2.43.83-3.76,2.81-3.76S110.79,98.19,110.79,100.62Zm-4.52.09v.36c0,2,.4,2.82,1.7,2.82s1.71-.86,1.71-2.82v-.36c0-2-.41-2.82-1.71-2.82S106.27,98.75,106.27,100.71Z"/><path class="cls-6" d="M116,97.4v7c0,.32-.25.46-.55.46s-.55-.14-.55-.46V98.22l-1.65,1a.49.49,0,0,1-.69-.22.48.48,0,0,1,.16-.67l2-1.18a1.48,1.48,0,0,1,.74-.24C115.74,96.93,116,97.07,116,97.4Z"/><path class="cls-6" d="M124.21,100.62v.54c0,2.43-.84,3.77-2.82,3.77s-2.81-1.34-2.81-3.77v-.54c0-2.43.83-3.76,2.81-3.76S124.21,98.19,124.21,100.62Zm-4.52.09v.36c0,2,.4,2.82,1.7,2.82s1.71-.86,1.71-2.82v-.36c0-2-.41-2.82-1.71-2.82S119.69,98.75,119.69,100.71Z"/><path class="cls-6" d="M129.4,97.4v7c0,.32-.25.46-.55.46s-.55-.14-.55-.46V98.22l-1.65,1A.49.49,0,0,1,126,99a.48.48,0,0,1,.16-.67l2-1.18a1.48,1.48,0,0,1,.74-.24C129.16,96.93,129.4,97.07,129.4,97.4Z"/><path class="cls-6" d="M138.13,99.74c0,.26-.12.47-.37.47h-4.43c-.27,0-.39-.21-.39-.47s.12-.45.39-.45h4.43C138,99.29,138.13,99.5,138.13,99.74Zm0,2.34c0,.24-.12.45-.37.45h-4.43c-.27,0-.39-.21-.39-.45s.12-.47.39-.47h4.43C138,101.61,138.13,101.82,138.13,102.08Z"/><path class="cls-6" d="M144.26,98.85v.06a1.86,1.86,0,0,1-1.36,1.82,1.79,1.79,0,0,1,1.68,1.8v.11c0,1.21-.91,2.29-2.77,2.29a4,4,0,0,1-2.26-.64.52.52,0,0,1-.15-.73.45.45,0,0,1,.68-.16,2.85,2.85,0,0,0,1.67.53c1.25,0,1.72-.62,1.72-1.33v-.08c0-1-.75-1.28-1.74-1.28h-.62c-.28,0-.4-.22-.4-.48s.12-.48.4-.48h.53c.9,0,1.54-.39,1.54-1.3v0c0-.67-.47-1.12-1.44-1.12a1.81,1.81,0,0,0-1.42.65.44.44,0,0,1-.67,0,.5.5,0,0,1,0-.67,2.67,2.67,0,0,1,2.09-.91C143.42,96.86,144.26,97.75,144.26,98.85Z"/><path class="cls-6" d="M151,98.85v.06a1.86,1.86,0,0,1-1.36,1.82,1.79,1.79,0,0,1,1.68,1.8v.11c0,1.21-.91,2.29-2.77,2.29a4,4,0,0,1-2.26-.64.52.52,0,0,1-.15-.73.45.45,0,0,1,.68-.16,2.85,2.85,0,0,0,1.67.53c1.25,0,1.72-.62,1.72-1.33v-.08c0-1-.75-1.28-1.74-1.28h-.62c-.28,0-.4-.22-.4-.48s.12-.48.4-.48h.53c.9,0,1.54-.39,1.54-1.3v0c0-.67-.47-1.12-1.44-1.12a1.81,1.81,0,0,0-1.42.65.44.44,0,0,1-.67,0,.5.5,0,0,1,0-.67,2.67,2.67,0,0,1,2.09-.91C150.13,96.86,151,97.75,151,98.85Z"/><path class="cls-6" d="M157.68,98.85v.06a1.86,1.86,0,0,1-1.36,1.82,1.79,1.79,0,0,1,1.68,1.8v.11c0,1.21-.91,2.29-2.77,2.29a4,4,0,0,1-2.26-.64.52.52,0,0,1-.15-.73.45.45,0,0,1,.68-.16,2.85,2.85,0,0,0,1.67.53c1.25,0,1.72-.62,1.72-1.33v-.08c0-1-.75-1.28-1.74-1.28h-.62c-.28,0-.4-.22-.4-.48s.12-.48.4-.48h.53c.9,0,1.54-.39,1.54-1.3v0c0-.67-.47-1.12-1.44-1.12a1.81,1.81,0,0,0-1.42.65.44.44,0,0,1-.67,0,.5.5,0,0,1,0-.67,2.67,2.67,0,0,1,2.09-.91C156.84,96.86,157.68,97.75,157.68,98.85Z"/><path class="cls-6" d="M164.39,98.85v.06a1.86,1.86,0,0,1-1.36,1.82,1.79,1.79,0,0,1,1.68,1.8v.11c0,1.21-.91,2.29-2.77,2.29a4,4,0,0,1-2.26-.64.52.52,0,0,1-.15-.73.45.45,0,0,1,.68-.16,2.85,2.85,0,0,0,1.67.53c1.25,0,1.72-.62,1.72-1.33v-.08c0-1-.75-1.28-1.74-1.28h-.63c-.27,0-.39-.22-.39-.48s.12-.48.39-.48h.54c.89,0,1.54-.39,1.54-1.3v0c0-.67-.47-1.12-1.44-1.12a1.81,1.81,0,0,0-1.42.65.44.44,0,0,1-.67,0,.5.5,0,0,1,0-.67,2.67,2.67,0,0,1,2.09-.91C163.54,96.86,164.39,97.75,164.39,98.85Z"/><path class="cls-6" d="M171.1,98.85v.06a1.86,1.86,0,0,1-1.36,1.82,1.79,1.79,0,0,1,1.68,1.8v.11c0,1.21-.91,2.29-2.77,2.29a4,4,0,0,1-2.26-.64.52.52,0,0,1-.15-.73.45.45,0,0,1,.68-.16,2.85,2.85,0,0,0,1.67.53c1.25,0,1.72-.62,1.72-1.33v-.08c0-1-.75-1.28-1.74-1.28h-.63c-.27,0-.39-.22-.39-.48s.12-.48.39-.48h.54c.89,0,1.54-.39,1.54-1.3v0c0-.67-.47-1.12-1.44-1.12a1.81,1.81,0,0,0-1.42.65.44.44,0,0,1-.67,0,.5.5,0,0,1,0-.67,2.67,2.67,0,0,1,2.09-.91C170.25,96.86,171.1,97.75,171.1,98.85Z"/><path class="cls-6" d="M177.81,98.85v.06a1.86,1.86,0,0,1-1.36,1.82,1.79,1.79,0,0,1,1.68,1.8v.11c0,1.21-.91,2.29-2.77,2.29a4,4,0,0,1-2.26-.64.52.52,0,0,1-.15-.73.45.45,0,0,1,.68-.16,2.85,2.85,0,0,0,1.67.53c1.25,0,1.72-.62,1.72-1.33v-.08c0-1-.75-1.28-1.74-1.28h-.63c-.27,0-.39-.22-.39-.48s.12-.48.39-.48h.54c.89,0,1.54-.39,1.54-1.3v0c0-.67-.47-1.12-1.44-1.12a1.81,1.81,0,0,0-1.42.65.44.44,0,0,1-.67,0,.5.5,0,0,1,0-.67,2.67,2.67,0,0,1,2.09-.91C177,96.86,177.81,97.75,177.81,98.85Z"/><path class="cls-6" d="M184.52,98.85v.06a1.86,1.86,0,0,1-1.36,1.82,1.79,1.79,0,0,1,1.68,1.8v.11c0,1.21-.91,2.29-2.77,2.29a4,4,0,0,1-2.26-.64.51.51,0,0,1-.15-.73.45.45,0,0,1,.68-.16,2.85,2.85,0,0,0,1.67.53c1.25,0,1.72-.62,1.72-1.33v-.08c0-1-.75-1.28-1.74-1.28h-.63c-.27,0-.39-.22-.39-.48s.12-.48.39-.48h.54c.89,0,1.54-.39,1.54-1.3v0c0-.67-.47-1.12-1.44-1.12a1.81,1.81,0,0,0-1.42.65.44.44,0,0,1-.67,0,.49.49,0,0,1,0-.67,2.67,2.67,0,0,1,2.09-.91C183.67,96.86,184.52,97.75,184.52,98.85Z"/><path class="cls-6" d="M191.23,98.85v.06a1.86,1.86,0,0,1-1.36,1.82,1.79,1.79,0,0,1,1.68,1.8v.11c0,1.21-.91,2.29-2.77,2.29a4,4,0,0,1-2.26-.64.51.51,0,0,1-.15-.73.45.45,0,0,1,.68-.16,2.85,2.85,0,0,0,1.67.53c1.25,0,1.72-.62,1.72-1.33v-.08c0-1-.75-1.28-1.74-1.28h-.63c-.27,0-.39-.22-.39-.48s.12-.48.39-.48h.54c.89,0,1.54-.39,1.54-1.3v0c0-.67-.47-1.12-1.44-1.12a1.81,1.81,0,0,0-1.42.65.44.44,0,0,1-.67,0,.49.49,0,0,1,0-.67,2.67,2.67,0,0,1,2.09-.91C190.38,96.86,191.23,97.75,191.23,98.85Z"/><path class="cls-6" d="M20.57,122.13c0,.27-.13.5-.41.5H16.9c-.17,0-.24.07-.24.25v4.25c0,.18.07.25.24.25a28.28,28.28,0,0,0,4.08-.26c.27,0,.44.17.47.44s-.07.55-.33.59a33.71,33.71,0,0,1-4.73.26c-.67,0-.89-.21-.89-.9v-5c0-.68.22-.9.89-.9h3.77C20.44,121.6,20.57,121.84,20.57,122.13Zm2.77-.83v3.12h1.28c.31,0,.43.23.43.51s-.12.53-.43.53H23.34v5.2a.59.59,0,0,1-1.16,0V121.3c0-.35.28-.5.58-.5S23.34,121,23.34,121.3Z"/><path class="cls-6" d="M29.22,121.66v1.18a2.1,2.1,0,0,0,.76,1.75c.54.46,1,.85,1.41,1.13a.51.51,0,0,1,.08.73.51.51,0,0,1-.72.14c-.3-.22-.77-.6-1.26-1s-.78-.76-.84-1h0c-.06.26-.29.57-.85,1s-1,.8-1.46,1.15a.52.52,0,0,1-.72-.14.55.55,0,0,1,.09-.77c.55-.4,1-.79,1.59-1.25a2.08,2.08,0,0,0,.75-1.76v-1.2c0-.35.28-.5.59-.5S29.22,121.31,29.22,121.66Zm2.11,6.08v.44a1.58,1.58,0,0,0,1,1.58c.65.36,1.33.69,2,1a.49.49,0,0,1,.17.68.48.48,0,0,1-.65.26c-.66-.3-1.26-.6-1.82-.91-.92-.5-1.23-.81-1.31-1.13h0c-.09.33-.41.65-1.33,1.16-.56.31-1.15.61-1.82.91a.48.48,0,0,1-.65-.27.52.52,0,0,1,.16-.7c.73-.33,1.39-.66,2-1a1.58,1.58,0,0,0,1-1.58v-.44c0-.35.28-.5.59-.5S31.33,127.39,31.33,127.74Zm2.84-6.44v6.17a.58.58,0,0,1-1.15,0V124H31.25c-.29,0-.42-.23-.42-.51s.13-.51.42-.51H33V121.3c0-.35.28-.5.58-.5A.51.51,0,0,1,34.17,121.3Z"/><path class="cls-6" d="M41.38,122.27c0,.28-.12.51-.4.51h-.71v1.11a4.17,4.17,0,0,0,.38,2.15c.25.48.52,1,.77,1.39a.5.5,0,0,1-.14.68.45.45,0,0,1-.65-.12c-.21-.33-.37-.64-.58-1a2.47,2.47,0,0,1-.31-.83h0a2.74,2.74,0,0,1-.31.88c-.17.32-.34.67-.56,1a.4.4,0,0,1-.75,0,11.38,11.38,0,0,1-.54-1,2.64,2.64,0,0,1-.33-.88h0a2.37,2.37,0,0,1-.31.84,11.59,11.59,0,0,1-.62,1.08.44.44,0,0,1-.66.12.5.5,0,0,1-.14-.68c.27-.44.58-1,.82-1.45a4.13,4.13,0,0,0,.38-2.15v-1.11H36c-.29,0-.42-.23-.42-.51s.13-.51.42-.51h5C41.26,121.76,41.38,122,41.38,122.27ZM38,125.72c.13.32.24.58.39.87s.15.22.27,0,.25-.55.38-.87a5.26,5.26,0,0,0,.21-1.83v-1.11H37.75v1.11A5.21,5.21,0,0,0,38,125.72Zm6.9-4.47v9.45c0,.32-.25.46-.53.46a.45.45,0,0,1-.51-.46v-5.2h-1v4.7a.52.52,0,0,1-1,0v-8.83c0-.31.24-.45.52-.45a.45.45,0,0,1,.51.45v3.11h1v-3.23a.45.45,0,0,1,.51-.45C44.62,120.8,44.87,120.94,44.87,121.25Z"/></g></g></svg>