<svg xmlns="http://www.w3.org/2000/svg" xmlns:xlink="http://www.w3.org/1999/xlink" viewBox="0 0 192.69 63.19"><defs><style>.cls-1,.cls-5{fill:none;}.cls-2{fill:#231815;}.cls-3{fill:#f2e19d;}.cls-4{clip-path:url(#clip-path);}.cls-5{stroke:#e6a600;stroke-linejoin:bevel;stroke-width:0.8px;}.cls-6{clip-path:url(#clip-path-5);}.cls-7{clip-path:url(#clip-path-11);}.cls-8{fill:#f5a53b;}.cls-9{fill:#fff;}</style><clipPath id="clip-path"><rect class="cls-1" y="17.04" width="34.81" height="23.48"/></clipPath><clipPath id="clip-path-5"><rect class="cls-1" x="44.95" y="17.03" width="57.49" height="34.82"/></clipPath><clipPath id="clip-path-11"><rect class="cls-1" x="112.53" y="17.03" width="80.17" height="46.16"/></clipPath></defs><title>자산 1</title><g id="레이어_2" data-name="레이어 2"><g id="레이어_1-2" data-name="레이어 1"><path class="cls-2" d="M11.43.48v.85h1.85c.27,0,.39.23.39.5s-.12.48-.39.48H11.43v.57a1.62,1.62,0,0,0,.7,1.47c.52.4,1,.71,1.32.94a.49.49,0,0,1,.12.7.46.46,0,0,1-.68.15c-.26-.16-.69-.47-1.15-.81s-.8-.7-.85-.93h0c-.05.26-.29.55-.88,1s-.91.67-1.35,1A.47.47,0,0,1,8,6.17a.52.52,0,0,1,.11-.72c.5-.33,1-.66,1.51-1.07a1.63,1.63,0,0,0,.7-1.47v-.6H8.38c-.28,0-.4-.22-.4-.48s.12-.5.4-.5h1.93V.48A.5.5,0,0,1,10.87,0,.5.5,0,0,1,11.43.48ZM13.4,7v.22a1.5,1.5,0,0,0,1,1.48c.65.35,1.27.65,1.95,1a.46.46,0,0,1,.18.63.48.48,0,0,1-.63.28c-.64-.28-1.19-.57-1.74-.87-.87-.47-1.19-.78-1.26-1.08h0c-.07.31-.4.63-1.27,1.11-.55.3-1.1.58-1.74.86a.48.48,0,0,1-.63-.28.49.49,0,0,1,.16-.65c.7-.31,1.32-.61,2-1a1.5,1.5,0,0,0,1-1.48V7c0-.32.26-.47.55-.47S13.4,6.71,13.4,7ZM16.12.6v6a.48.48,0,0,1-.54.48A.5.5,0,0,1,15,6.63V4.15H13.45c-.27,0-.39-.23-.39-.49s.12-.5.39-.5H15V.6a.5.5,0,0,1,.56-.49A.49.49,0,0,1,16.12.6Z"/><path class="cls-2" d="M23.14,1.53c0,.26-.12.48-.39.48h-.68V3.08a3.93,3.93,0,0,0,.37,2.06c.23.46.5,1,.73,1.34a.47.47,0,0,1-.13.65A.43.43,0,0,1,22.42,7c-.21-.32-.36-.62-.56-1a2.24,2.24,0,0,1-.29-.8h0a2.68,2.68,0,0,1-.3.84,10.71,10.71,0,0,1-.54,1,.38.38,0,0,1-.71,0,10.55,10.55,0,0,1-.53-1,2.51,2.51,0,0,1-.31-.84h0a2.35,2.35,0,0,1-.29.81c-.2.37-.37.68-.6,1a.42.42,0,0,1-.63.11.48.48,0,0,1-.13-.66c.25-.42.54-.93.78-1.39a4,4,0,0,0,.37-2.06V2H18c-.28,0-.4-.22-.4-.48S17.72,1,18,1h4.75C23,1,23.14,1.27,23.14,1.53Zm-3.27,3.3a8.16,8.16,0,0,0,.37.84c.1.21.15.21.26,0s.24-.53.36-.84a4.75,4.75,0,0,0,.21-1.75V2H19.66V3.08A5,5,0,0,0,19.87,4.83ZM26.48.55V9.62a.45.45,0,0,1-.51.44.44.44,0,0,1-.49-.44v-5h-1v4.5a.5.5,0,0,1-1,0V.67a.5.5,0,0,1,1,0v3h1V.55A.44.44,0,0,1,26,.11.45.45,0,0,1,26.48.55Z"/><rect class="cls-3" x="0.4" y="28.77" width="11.34" height="11.34"/><g class="cls-4"><rect class="cls-5" x="0.4" y="28.77" width="11.34" height="11.34"/></g><rect class="cls-3" x="11.74" y="28.77" width="11.34" height="11.34"/><g class="cls-4"><rect class="cls-5" x="11.74" y="28.77" width="11.34" height="11.34"/></g><rect class="cls-3" x="23.08" y="28.77" width="11.34" height="11.34"/><g class="cls-4"><rect class="cls-5" x="23.08" y="28.77" width="11.34" height="11.34"/></g><rect class="cls-3" x="11.74" y="17.44" width="11.34" height="11.34"/><g class="cls-4"><rect class="cls-5" x="11.74" y="17.44" width="11.34" height="11.34"/></g><path class="cls-2" d="M72,7.34v.85c0,.66-.21.86-.86.86H66.46c-.12,0-.18,0-.18.18V9.7c0,.11.06.17.18.17h5.46c.24,0,.36.22.36.45s-.12.45-.36.45H66.06c-.65,0-.86-.21-.86-.86V9.05c0-.65.21-.86.86-.86h4.72c.12,0,.18-.06.18-.17V7.56c0-.13-.06-.19-.18-.19H65.54c-.25,0-.36-.2-.36-.44s.11-.45.36-.45h2.54v-1H64.32c-.26,0-.38-.2-.38-.47s.12-.46.38-.46h8.61c.26,0,.38.21.38.46s-.12.47-.38.47H69.17v1h2C71.83,6.48,72,6.68,72,7.34ZM72,.83c0,.26-.12.47-.37.47h-5c-.16,0-.23.06-.23.24v1c0,.18.07.24.23.24h5.15c.24,0,.36.21.36.46s-.12.48-.36.48H66.08c-.64,0-.84-.2-.84-.86V1.22c0-.66.2-.86.84-.86h5.53C71.86.36,72,.58,72,.83Z"/><path class="cls-2" d="M79.43,1.53c0,.26-.12.48-.39.48h-.68V3.08a4,4,0,0,0,.37,2.06c.24.46.5,1,.74,1.34a.48.48,0,0,1-.14.65A.43.43,0,0,1,78.71,7c-.2-.32-.36-.62-.56-1a2.46,2.46,0,0,1-.29-.8h0a2.45,2.45,0,0,1-.3.84,8.75,8.75,0,0,1-.54,1,.38.38,0,0,1-.71,0,8.5,8.5,0,0,1-.52-1,2.83,2.83,0,0,1-.32-.84h0a2.15,2.15,0,0,1-.29.81c-.2.37-.37.68-.6,1a.41.41,0,0,1-.62.11.49.49,0,0,1-.14-.66c.26-.42.55-.93.78-1.39A3.91,3.91,0,0,0,75,3.08V2h-.66c-.28,0-.4-.22-.4-.48S74,1,74.29,1H79C79.31,1,79.43,1.27,79.43,1.53Zm-3.26,3.3a8.16,8.16,0,0,0,.36.84c.1.21.15.21.26,0s.25-.53.37-.84a4.8,4.8,0,0,0,.2-1.75V2H76V3.08A4.71,4.71,0,0,0,76.17,4.83ZM82.77.55V9.62a.5.5,0,0,1-1,0v-5h-1v4.5a.5.5,0,0,1-1,0V.67a.5.5,0,0,1,1,0v3h1V.55a.5.5,0,0,1,1,0Z"/><rect class="cls-3" x="45.36" y="40.11" width="11.34" height="11.34"/><g class="cls-6"><rect class="cls-5" x="45.36" y="40.11" width="11.34" height="11.34"/></g><rect class="cls-3" x="56.69" y="40.11" width="11.34" height="11.34"/><g class="cls-6"><rect class="cls-5" x="56.69" y="40.11" width="11.34" height="11.34"/></g><rect class="cls-3" x="68.03" y="40.11" width="11.34" height="11.34"/><g class="cls-6"><rect class="cls-5" x="68.03" y="40.11" width="11.34" height="11.34"/></g><rect class="cls-3" x="79.37" y="40.11" width="11.34" height="11.34"/><g class="cls-6"><rect class="cls-5" x="79.37" y="40.11" width="11.34" height="11.34"/></g><rect class="cls-3" x="90.71" y="40.11" width="11.34" height="11.34"/><g class="cls-6"><rect class="cls-5" x="90.71" y="40.11" width="11.34" height="11.34"/></g><rect class="cls-3" x="56.69" y="28.77" width="11.34" height="11.34"/><rect class="cls-5" x="56.69" y="28.77" width="11.34" height="11.34"/><rect class="cls-3" x="68.03" y="28.77" width="11.34" height="11.34"/><rect class="cls-5" x="68.03" y="28.77" width="11.34" height="11.34"/><rect class="cls-3" x="79.37" y="28.77" width="11.34" height="11.34"/><rect class="cls-5" x="79.37" y="28.77" width="11.34" height="11.34"/><rect class="cls-3" x="68.03" y="17.44" width="11.34" height="11.34"/><g class="cls-6"><rect class="cls-5" x="68.03" y="17.44" width="11.34" height="11.34"/></g><path class="cls-2" d="M146,1v1.1a2.18,2.18,0,0,0,.6,1.71c.4.43.76.76,1.12,1.09a.53.53,0,0,1,0,.72.47.47,0,0,1-.7,0c-.27-.24-.58-.53-.9-.84a2.35,2.35,0,0,1-.68-1h0c0,.25-.18.5-.68,1s-.7.68-1.08,1a.47.47,0,0,1-.69-.08.53.53,0,0,1,0-.72c.41-.36.89-.82,1.3-1.25a2.23,2.23,0,0,0,.6-1.72V1A.56.56,0,0,1,146,1Zm2.68,5.77V7.2a1.51,1.51,0,0,0,1,1.51c.62.34,1.26.67,2,1a.52.52,0,0,1-.47.91c-.62-.29-1.19-.58-1.74-.88-.88-.48-1.17-.78-1.26-1.08h0c-.08.31-.39.62-1.27,1.1-.54.3-1.11.59-1.74.88a.48.48,0,0,1-.63-.25.51.51,0,0,1,.17-.68c.68-.31,1.33-.64,2-1a1.52,1.52,0,0,0,1-1.51V6.78a.57.57,0,0,1,1.12,0Zm1-6.16v4.8a.53.53,0,0,1-1,0V3.27h-1.12c-.26,0-.39-.23-.39-.5s.13-.49.39-.49h1.12V.62a.53.53,0,0,1,1,0Zm2-.06v6a.52.52,0,0,1-1,0v-6a.52.52,0,0,1,1,0Z"/><path class="cls-2" d="M158.34,1.53c0,.26-.12.48-.39.48h-.68V3.08a4,4,0,0,0,.37,2.06c.24.46.5,1,.74,1.34a.48.48,0,0,1-.14.65.43.43,0,0,1-.62-.11c-.2-.32-.36-.62-.56-1a2.24,2.24,0,0,1-.29-.8h0a2.45,2.45,0,0,1-.3.84,8.75,8.75,0,0,1-.54,1,.38.38,0,0,1-.71,0,8.5,8.5,0,0,1-.52-1,2.83,2.83,0,0,1-.32-.84h0a2.15,2.15,0,0,1-.29.81c-.2.37-.37.68-.6,1a.42.42,0,0,1-.63.11.49.49,0,0,1-.13-.66c.26-.42.55-.93.78-1.39a3.91,3.91,0,0,0,.37-2.06V2h-.66c-.28,0-.4-.22-.4-.48s.12-.49.4-.49H158C158.22,1,158.34,1.27,158.34,1.53Zm-3.26,3.3a8.16,8.16,0,0,0,.36.84c.1.21.15.21.26,0s.25-.53.37-.84a5,5,0,0,0,.2-1.75V2h-1.41V3.08A4.71,4.71,0,0,0,155.08,4.83Zm6.6-4.28V9.62a.5.5,0,0,1-1,0v-5h-1v4.5a.44.44,0,0,1-.49.44.45.45,0,0,1-.5-.44V.67a.45.45,0,0,1,.5-.44.44.44,0,0,1,.49.44v3h1V.55a.5.5,0,0,1,1,0Z"/><rect class="cls-3" x="112.93" y="51.45" width="11.34" height="11.34"/><g class="cls-7"><rect class="cls-5" x="112.93" y="51.45" width="11.34" height="11.34"/></g><rect class="cls-3" x="124.26" y="51.45" width="11.34" height="11.34"/><g class="cls-7"><rect class="cls-5" x="124.26" y="51.45" width="11.34" height="11.34"/></g><rect class="cls-3" x="135.6" y="51.45" width="11.34" height="11.34"/><g class="cls-7"><rect class="cls-5" x="135.6" y="51.45" width="11.34" height="11.34"/></g><rect class="cls-3" x="146.94" y="51.45" width="11.34" height="11.34"/><g class="cls-7"><rect class="cls-5" x="146.94" y="51.45" width="11.34" height="11.34"/></g><rect class="cls-3" x="158.28" y="51.45" width="11.34" height="11.34"/><g class="cls-7"><rect class="cls-5" x="158.28" y="51.45" width="11.34" height="11.34"/></g><rect class="cls-3" x="169.62" y="51.45" width="11.34" height="11.34"/><g class="cls-7"><rect class="cls-5" x="169.62" y="51.45" width="11.34" height="11.34"/></g><rect class="cls-3" x="124.26" y="40.11" width="11.34" height="11.34"/><rect class="cls-5" x="124.26" y="40.11" width="11.34" height="11.34"/><rect class="cls-3" x="135.6" y="40.11" width="11.34" height="11.34"/><rect class="cls-5" x="135.6" y="40.11" width="11.34" height="11.34"/><rect class="cls-3" x="146.94" y="40.11" width="11.34" height="11.34"/><rect class="cls-5" x="146.94" y="40.11" width="11.34" height="11.34"/><rect class="cls-3" x="158.28" y="40.11" width="11.34" height="11.34"/><rect class="cls-5" x="158.28" y="40.11" width="11.34" height="11.34"/><rect class="cls-3" x="135.6" y="28.77" width="11.34" height="11.34"/><rect class="cls-5" x="135.6" y="28.77" width="11.34" height="11.34"/><rect class="cls-3" x="146.94" y="28.77" width="11.34" height="11.34"/><rect class="cls-5" x="146.94" y="28.77" width="11.34" height="11.34"/><rect class="cls-3" x="146.94" y="17.44" width="11.34" height="11.34"/><g class="cls-7"><rect class="cls-5" x="146.94" y="17.44" width="11.34" height="11.34"/></g><rect class="cls-3" x="158.28" y="28.77" width="11.34" height="11.34"/><rect class="cls-5" x="158.28" y="28.77" width="11.34" height="11.34"/><rect class="cls-3" x="169.62" y="40.11" width="11.34" height="11.34"/><rect class="cls-5" x="169.62" y="40.11" width="11.34" height="11.34"/><rect class="cls-3" x="180.96" y="51.45" width="11.34" height="11.34"/><g class="cls-7"><rect class="cls-5" x="180.96" y="51.45" width="11.34" height="11.34"/></g><path class="cls-8" d="M51.89,21.43a2,2,0,0,0-.83-1.1,12.58,12.58,0,0,0-1.4-1.13c-.61-.41-1.21-.83-1.84-1.2l-.56-.29-.16-.08c-.32-.19-.82-.38-1.09-.11s-.14,1.13,0,1.38c0,.05.1.34.17.59-.46-.08-.92-.2-1.36-.32a14.6,14.6,0,0,0-1.62-.36,28,28,0,0,0-3.29-.19h-.38a18.44,18.44,0,0,0-2,.06c-.33,0-.67.08-1,.14l-.13,0a1.07,1.07,0,0,0-.69.28,1.63,1.63,0,0,0-.24,1.2c0,.32,0,.63,0,.95,0,.53.08,1.05.12,1.59s.05,1.19.57,1.49a1.82,1.82,0,0,0,1.46-.06c.47-.17.92-.42,1.39-.6a12.54,12.54,0,0,1,1.48-.43c.38-.11.77-.21,1.15-.3a12.25,12.25,0,0,1,4.08-.41c.2,0,.35,0,.48,0s0,.13,0,.2a2.8,2.8,0,0,0-.11.92,1.16,1.16,0,0,0,.39.64,4.42,4.42,0,0,0,.78.72c.17.12.46.31.68.24.48-.13.84-.62,1.18-1s.49-.52.74-.77a7.71,7.71,0,0,1,1.35-1.08,1.53,1.53,0,0,0,.73-.69.69.69,0,0,0,0-.35h0"/><path class="cls-9" d="M50.84,20.53a.5.5,0,0,1-.05.44,1.29,1.29,0,0,1-.54.44l-.34.19a7.09,7.09,0,0,0-1.27,1,7.57,7.57,0,0,1-1.12,1.07c-.28.18-.78.41-1.07.12a.78.78,0,0,1-.11-.65c0-.28.14-.55.18-.83.08-.51-.45-.7-.86-.79a9.07,9.07,0,0,0-3.48.11c-.59.1-1.17.23-1.74.38a11.93,11.93,0,0,0-1.67.51c-.73.3-2.09,1.13-2.74.27a2.27,2.27,0,0,1-.28-1.36c0-.3,0-.6,0-.9a3.06,3.06,0,0,1,0-.8c.1-.57.66-.57,1.13-.63A18.15,18.15,0,0,1,38.66,19q1.81,0,3.63.09a22.08,22.08,0,0,1,3.5.68,1.75,1.75,0,0,0,.75.1c0-.36-.92-2.12,0-2.05a1.55,1.55,0,0,1,.59.21l.61.33c.42.24.82.49,1.23.74l1,.61a4.14,4.14,0,0,1,.76.56,1.06,1.06,0,0,1,.17.26"/><path class="cls-8" d="M121.34,21.43a2,2,0,0,0-.83-1.1,13.57,13.57,0,0,0-1.4-1.13c-.61-.41-1.21-.83-1.84-1.2-.19-.1-.37-.2-.57-.29l-.15-.08c-.33-.19-.82-.38-1.09-.11s-.14,1.13-.06,1.38c0,.05.11.34.18.59-.46-.08-.92-.2-1.36-.32a14.6,14.6,0,0,0-1.62-.36,28.17,28.17,0,0,0-3.29-.19h-.38a18.44,18.44,0,0,0-2,.06c-.33,0-.67.08-1,.14l-.13,0a1.07,1.07,0,0,0-.69.28,1.63,1.63,0,0,0-.24,1.2c0,.32,0,.63,0,.95,0,.53.08,1.05.12,1.59s0,1.19.57,1.49a1.82,1.82,0,0,0,1.46-.06c.47-.17.92-.42,1.39-.6a12.54,12.54,0,0,1,1.48-.43c.38-.11.76-.21,1.15-.3a12.25,12.25,0,0,1,4.08-.41c.2,0,.35,0,.48,0s0,.13,0,.2a2.8,2.8,0,0,0-.11.92,1.1,1.1,0,0,0,.39.64,4.36,4.36,0,0,0,.77.72c.18.12.46.31.69.24.48-.13.84-.62,1.18-1s.49-.52.74-.77a7.71,7.71,0,0,1,1.35-1.08,1.53,1.53,0,0,0,.73-.69.69.69,0,0,0,0-.35h0"/><path class="cls-9" d="M120.28,20.53a.46.46,0,0,1,0,.44,1.29,1.29,0,0,1-.54.44l-.34.19a7.09,7.09,0,0,0-1.27,1A7.57,7.57,0,0,1,117,23.72c-.28.18-.78.41-1.07.12a.78.78,0,0,1-.11-.65c0-.28.14-.55.18-.83.07-.51-.45-.7-.86-.79a9.06,9.06,0,0,0-3.48.11c-.59.1-1.17.23-1.75.38a12.22,12.22,0,0,0-1.66.51c-.73.3-2.09,1.13-2.74.27a2.2,2.2,0,0,1-.28-1.36c0-.3,0-.6,0-.9a3.06,3.06,0,0,1,0-.8c.1-.57.66-.57,1.13-.63a18.15,18.15,0,0,1,1.81-.15q1.81,0,3.63.09a22.08,22.08,0,0,1,3.5.68,1.75,1.75,0,0,0,.75.1c0-.36-.92-2.12,0-2.05a1.55,1.55,0,0,1,.59.21l.61.33c.42.24.82.49,1.23.74l1,.61a3.76,3.76,0,0,1,.75.56.69.69,0,0,1,.17.26"/></g></g></svg>