
<svg xmlns="http://www.w3.org/2000/svg" version="1.1" xmlns:xlink="http://www.w3.org/1999/xlink" preserveAspectRatio="none" x="0px" y="0px" width="1280px" height="720px" viewBox="0 0 1280 720">
<defs>
<path id="Layer1_0_1_STROKES" stroke="#BBDECB" stroke-width="5" stroke-linejoin="round" stroke-linecap="butt" fill="none" d="
M 740.85 297.6
L 1086.85 297.6
Q 1090.25 297.6 1092.85 298.35 1101.55 300.9 1101.85 311.9
L 1101.85 608.6
Q 1101.85 623.6 1086.85 623.6
L 740.85 623.6
Q 725.85 623.6 725.85 608.6
L 725.85 312.6
Q 725.85 297.6 740.85 297.6 Z"/>

<path id="Layer1_1_1_STROKES" stroke="#BBDECB" stroke-width="5" stroke-linejoin="round" stroke-linecap="butt" fill="none" d="
M 740.85 297.6
L 1086.85 297.6
Q 1090.25 297.6 1092.85 298.35 1101.55 300.9 1101.85 311.9
L 1101.85 608.6
Q 1101.85 623.6 1086.85 623.6
L 740.85 623.6
Q 725.85 623.6 725.85 608.6
L 725.85 312.6
Q 725.85 297.6 740.85 297.6 Z"/>

<path id="Layer1_2_1_STROKES" stroke="#1E1E1E" stroke-width="3" stroke-linejoin="round" stroke-linecap="butt" fill="none" d="
M 849.2183471679687 336.3698028564453
L 849.2183471679687 594.7689727783204"/>

<path id="Layer1_3_1_STROKES" stroke="#1E1E1E" stroke-width="3" stroke-linejoin="round" stroke-linecap="butt" fill="none" d="
M 274.6997375488281 564.3089782714844
L 489.3990478515625 493.43920593261714"/>
</defs>

<g transform="matrix( 1, 0, 0, 1, 0,5) ">
<use xlink:href="#Layer1_0_1_STROKES"/>
</g>

<g transform="matrix( 1, 0, 0, 1, -547.65,5) ">
<use xlink:href="#Layer1_1_1_STROKES"/>
</g>

<g transform="matrix( 3.79998779296875, 0, 0, 3.79998779296875, 334.7,275) ">
<use xlink:href="#Layer1_2_1_STROKES" transform="matrix( 0.263153076171875, 0, 0, 0.263153076171875, -88.05,-72.35) "/>
</g>

<g transform="matrix( 3.79998779296875, 0, 0, 3.79998779296875, 193,246.25) ">
<use xlink:href="#Layer1_3_1_STROKES" transform="matrix( 0.263153076171875, 0, 0, 0.263153076171875, -50.75,-64.8) "/>
</g>
</svg>
