
<svg xmlns="http://www.w3.org/2000/svg" version="1.1" xmlns:xlink="http://www.w3.org/1999/xlink" preserveAspectRatio="none" x="0px" y="0px" width="1280px" height="720px" viewBox="0 0 1280 720">
<defs>
<g id="Layer0_0_FILL">
<path fill="#3567D7" stroke="none" d="
M 926.15 555.7
Q 925.55 555.1 924.05 555.1
L 903.3 555.1
Q 903.1 555.1 902.9 555.2 902.75 555.3 902.75 555.6
L 902.75 558.45
Q 902.75 558.65 902.9 558.8 903.1 558.9 903.3 558.9
L 921.35 558.9
Q 921.8 558.9 921.95 559.05 922.1 559.15 922.1 559.6
L 922.1 568.7
Q 922.1 568.9 922.3 569.05 922.5 569.25 922.75 569.25
L 926.15 569.25
Q 926.35 569.25 926.55 569.05 926.75 568.9 926.75 568.7
L 926.75 557.9
Q 926.75 556.35 926.15 555.7
M 899.4 533.15
Q 898.85 533.15 898.85 533.7
L 898.85 536.35
Q 898.85 536.6 899 536.8 899.1 536.95 899.4 536.95
L 910.25 536.95
Q 911 536.95 911 537.2 911 537.45 910.8 538.1 909.7 541.75 906.35 544.75 902.95 547.75 898.05 549.9 897.6 550.1 897.55 550.4 897.5 550.7 897.65 551.05
L 898.7 553.1
Q 899 553.9 899.95 553.5 906.3 550.85 910.25 547 914.25 543.1 915.75 537.6 915.8 537.45 915.9 537.2 915.95 536.95 916 536.65 916.05 536.3 916.1 536.05 916.15 535.7 916.15 535.55 916.15 534.3 915.45 533.7 914.75 533.15 912.95 533.15
L 899.4 533.15
M 932.75 544.3
L 932.75 541.5
Q 932.75 541.3 932.6 541.15 932.4 540.95 932.15 540.95
L 926.8 540.95 926.8 531.9
Q 926.8 531.35 926.2 531.35
L 922.7 531.35
Q 922.5 531.35 922.3 531.5 922.15 531.65 922.15 531.9
L 922.15 552.5
Q 922.15 552.75 922.3 552.9 922.5 553.1 922.7 553.1
L 926.2 553.1
Q 926.8 553.1 926.8 552.55
L 926.8 544.8 932.15 544.8
Q 932.4 544.8 932.6 544.65 932.75 544.5 932.75 544.3
M 869.4 556.8
Q 869.2 556.6 868.95 556.6
L 865.55 556.6
Q 865.35 556.6 865.15 556.8 864.95 556.95 864.95 557.15
L 864.95 565.5
Q 864.95 567.05 865.6 567.7 866.2 568.35 868 568.35
L 890.65 568.35
Q 890.9 568.35 891.1 568.25 891.25 568.1 891.25 567.9
L 891.25 565
Q 891.25 564.8 891.05 564.65 890.85 564.5 890.65 564.5
L 870.3 564.5
Q 869.9 564.5 869.75 564.4 869.55 564.3 869.55 563.9
L 869.55 557.15
Q 869.55 556.95 869.4 556.8
M 880.2 560.7
L 880.2 553.55 895 553.55
Q 895.2 553.55 895.4 553.35 895.6 553.1 895.6 552.9
L 895.6 550.3
Q 895.6 550.15 895.4 549.9 895.2 549.7 895 549.7
L 860.2 549.7
Q 859.9 549.7 859.75 549.9 859.6 550.1 859.6 550.3
L 859.6 552.9
Q 859.6 553.1 859.75 553.35 859.9 553.55 860.2 553.55
L 875.6 553.55 875.6 560.7
Q 875.6 561.25 876.15 561.25
L 879.65 561.25
Q 880.2 561.25 880.2 560.7
M 870.2 542.2
Q 870.05 542.05 870.05 541.7
L 870.05 536.95
Q 870.05 536.3 870.8 536.3
L 889.35 536.3
Q 889.9 536.3 889.9 535.75
L 889.9 533
Q 889.9 532.45 889.35 532.45
L 868.3 532.45
Q 866.8 532.45 866.1 533 865.4 533.55 865.4 535.1
L 865.4 543.35
Q 865.4 544.75 866.05 545.5 866.7 546.2 868.3 546.2
L 889.7 546.2
Q 889.9 546.2 890 546.05 890.2 545.95 890.2 545.6
L 890.2 542.9
Q 890.2 542.55 890 542.45 889.85 542.4 889.55 542.4
L 870.8 542.4
Q 870.35 542.4 870.2 542.2 Z"/>
</g>

<g id="fbd3425_0_Layer0_0_MEMBER_0_FILL">
<path fill="#E50182" stroke="none" d="
M 180 382.1
L 179.05 381.55 195.75 371.85 196.25 370.85 195.15 370.8 178.4 380.5 178.45 379.4 174.45 383.5 180 382.1 Z"/>
</g>

<g id="Duplicate_Items_Folder_fdbd4546_copy_5_0_Layer0_0_FILL">
<path fill="#17A242" stroke="none" d="
M 184.65 362.75
L 185.25 361.3 194.9 370.95 196.2 370.9 196.2 369.6 186.6 359.95 188.05 359.35 182.45 357.15 184.65 362.75 Z"/>
</g>

<g id="fgnfmf_copy_4_Layer0_0_FILL">
<path fill="#FFFFFF" stroke="none" d="
M 197.8 370.9
Q 197.8 370.25 197.35 369.8 196.9 369.35 196.25 369.35 195.6 369.35 195.2 369.8 194.75 370.25 194.75 370.9 194.75 371.55 195.2 372 195.6 372.45 196.25 372.45 196.9 372.45 197.35 372 197.8 371.55 197.8 370.9 Z"/>
</g>

<path id="fgnfmf_copy_4_Layer3_0_1_STROKES" stroke="#3567D7" stroke-width="2" stroke-linejoin="round" stroke-linecap="butt" fill="none" d="
M 1 -18.825
Q 8.1431640625 -18.5099609375 13.35 -13.35 18.85 -7.8 18.85 -0.05 18.85 4.2197265625 17.2 7.8"/>

<path id="fgnfmf_copy_4_Layer0_0_1_STROKES" stroke="#FFCC00" stroke-width="4" stroke-linejoin="miter" stroke-linecap="butt" stroke-miterlimit="10" fill="none" d="
M 4.619528198242165 0.0366683959960028
Q 4.619528198242165 1.9880470275879816 3.2685737609862144 3.3390014648437045 1.9176193237304915 4.6899559020994275 -0.0337593078613736 4.6899559020994275 -1.9851379394532387 4.6899559020994275 -3.185986328125068 3.3390014648437045 -4.536940765380905 1.9880470275879816 -4.536940765380905 0.0366683959960028 -4.536940765380905 -1.9147102355957486 -3.185986328125068 -3.2656646728514716 -1.9851379394532387 -4.616619110107422 -0.0337593078613736 -4.616619110107422 1.9176193237304915 -4.616619110107422 3.2685737609862144 -3.2656646728514716 4.619528198242165 -1.9147102355957486 4.619528198242165 0.0366683959960028 Z"/>
</defs>

<g transform="matrix( 1, 0, 0, 1, 0,0) ">
<use xlink:href="#Layer0_0_FILL"/>
</g>

<g transform="matrix( 1, 0, 0, 1, 640,480) ">
<g transform="matrix( 1, 0, 0, 1, 0,0) ">
<use xlink:href="#fgnfmf_copy_4_Layer3_0_1_STROKES"/>
</g>

<g transform="matrix( -0.50689697265625, 0.8619842529296875, -0.8619842529296875, -0.50689697265625, 0.45,-37.85) ">
<g transform="matrix( 2.9997711181640625, 0, 0, 2.9997711181640625, -556.35,-1132) ">
<use xlink:href="#fbd3425_0_Layer0_0_MEMBER_0_FILL"/>
</g>
</g>

<g transform="matrix( -0.9652099609375, 0.26123046875, -0.26123046875, -0.9652099609375, 25.25,14.3) ">
<g transform="matrix( 3.0021209716796875, 0, 0, 3.0021209716796875, -568.4,-1092.95) ">
<use xlink:href="#Duplicate_Items_Folder_fdbd4546_copy_5_0_Layer0_0_FILL"/>
</g>
</g>

<g transform="matrix( 3.0021209716796875, 0, 0, 3.0021209716796875, -589.2,-1113.45) ">
<use xlink:href="#fgnfmf_copy_4_Layer0_0_FILL"/>

<use xlink:href="#fgnfmf_copy_4_Layer0_0_1_STROKES" transform="matrix( 0.3330841064453125, 0, 0, 0.3330841064453125, 196.25,370.85) "/>
</g>
</g>
</svg>
