
<svg xmlns="http://www.w3.org/2000/svg" version="1.1" xmlns:xlink="http://www.w3.org/1999/xlink" preserveAspectRatio="none" x="0px" y="0px" width="1280px" height="720px" viewBox="0 0 1280 720">
<defs>
<g id="Layer0_0_FILL">
<path fill="#1E1E1E" stroke="none" d="
M 272.2 366.4
Q 272.05 366.5 272.05 366.9
L 272.05 399.15
Q 272.05 399.55 272.2 399.7 272.35 399.8 272.75 399.8
L 276.3 399.8
Q 276.7 399.8 276.8 399.7 276.9 399.55 276.9 399.15
L 276.9 382.85 281.25 382.85
Q 281.55 382.85 281.75 382.7 281.95 382.6 281.95 382.15
L 281.95 379.5
Q 281.95 379 281.75 378.9 281.55 378.85 281.25 378.85
L 276.9 378.85 276.9 366.9
Q 276.9 366.5 276.8 366.4 276.7 366.25 276.3 366.25
L 272.75 366.25
Q 272.35 366.25 272.2 366.4
M 267.75 369.55
Q 267.2 368.85 265.45 368.85
L 252.7 368.85
Q 252.3 368.85 252.15 368.95 252.05 369.1 252.05 369.5
L 252.05 372.1
Q 252.05 372.5 252.15 372.65 252.25 372.8 252.7 372.8
L 262.45 372.8
Q 263.1 372.8 263 373.55 262.35 378.15 259.3 382 256.25 385.9 250.95 388.9 250.65 389.05 250.6 389.4 250.5 389.7 250.75 390.05
L 252.4 392.5
Q 252.65 392.85 252.9 392.85 253.2 392.85 253.65 392.6 256.9 390.8 259.5 388.5 262.1 386.2 264 383.55 265.85 380.9 266.9 377.95 268 374.95 268.2 371.8 268.3 370.25 267.75 369.55
M 460.05 422.35
Q 459.4 422.35 459.4 423.1
L 459.4 441.5
Q 459.4 442.9 459.95 443.45 460.55 444 462.05 444.1 463.4 444.2 465.25 444.2 467.15 444.15 469.2 443.95 471.25 443.8 473.3 443.5 475.35 443.2 477.1 442.8 477.7 442.65 477.65 442.1
L 477.15 439.2
Q 477.05 439.05 476.95 438.9 476.8 438.75 476.4 438.85 475.15 439.15 473.65 439.35 472.2 439.6 470.65 439.75 469.15 439.9 467.7 440 466.25 440.05 465.05 440 464.25 439.95 464.25 439.2
L 464.25 423.1
Q 464.25 422.35 463.5 422.35
L 460.05 422.35
M 488.25 436.85
Q 488.55 436.85 488.75 436.75 488.95 436.6 488.95 436.2
L 488.95 433.55
Q 488.95 433.05 488.75 432.95 488.55 432.85 488.25 432.85
L 483.9 432.85 483.9 420.9
Q 483.9 420.5 483.8 420.4 483.7 420.25 483.3 420.25
L 479.75 420.25
Q 479.35 420.25 479.2 420.4 479.05 420.5 479.05 420.9
L 479.05 453.15
Q 479.05 453.55 479.2 453.7 479.35 453.8 479.75 453.8
L 483.3 453.8
Q 483.7 453.8 483.8 453.7 483.9 453.55 483.9 453.15
L 483.9 436.85 488.25 436.85
M 1002.85 401.15
Q 1002.85 400.45 1002.75 400 1002.65 399.55 1002.4 399.25 1002.15 399 1001.7 398.85 1001.25 398.7 1000.45 398.7
L 988.15 398.7
Q 987.75 398.7 987.6 398.85 987.45 399 987.45 399.4
L 987.45 402.05
Q 987.45 402.7 988.15 402.7
L 997.5 402.7
Q 997.85 402.7 997.9 402.8 998 402.9 998 403.2
L 998 407.45
Q 998 407.8 997.9 407.9 997.85 407.95 997.5 407.95
L 989.3 407.95
Q 988.2 407.95 987.7 408.45 987.25 408.85 987.25 410
L 987.25 419.3
Q 987.25 420.65 987.75 421.2 988.3 421.75 989.85 421.8 991.65 421.85 993.7 421.85 995.7 421.8 997.75 421.65 999.75 421.45 1001.65 421.25 1003.55 421 1005.15 420.65 1005.55 420.6 1005.65 420.5 1005.75 420.35 1005.7 419.95
L 1005.3 417.4
Q 1005.25 417.1 1005.15 416.95 1005.05 416.85 1004.7 416.9 1001.9 417.4 998.75 417.65 995.6 417.9 992.55 417.85 992 417.85 992 417.4
L 992 412.15
Q 992 411.7 992.5 411.7
L 1000.4 411.7
Q 1001.65 411.7 1002.25 411.2 1002.85 410.7 1002.85 409.25
L 1002.85 401.15
M 1016.55 412.85
Q 1016.85 412.85 1017.05 412.7 1017.25 412.6 1017.25 412.15
L 1017.25 409.5
Q 1017.25 409 1017.05 408.9 1016.85 408.85 1016.55 408.85
L 1012.2 408.85 1012.2 396.9
Q 1012.2 396.5 1012.1 396.4 1012 396.25 1011.6 396.25
L 1008.05 396.25
Q 1007.65 396.25 1007.5 396.4 1007.35 396.5 1007.35 396.9
L 1007.35 429.15
Q 1007.35 429.55 1007.5 429.7 1007.65 429.8 1008.05 429.8
L 1011.6 429.8
Q 1012 429.8 1012.1 429.7 1012.2 429.55 1012.2 429.15
L 1012.2 412.85 1016.55 412.85
M 748.95 442.25
Q 747.5 442.3 746.25 442.25 745.7 442.25 745.7 441.7
L 745.7 429.35
Q 745.7 429.15 745.75 429 745.85 428.85 746.15 428.85
L 755.85 428.85
Q 756.2 428.85 756.35 428.75 756.55 428.65 756.55 428.25
L 756.55 425.5
Q 756.55 425.1 756.35 425 756.2 424.85 755.85 424.85
L 743.2 424.85
Q 741.75 424.85 741.3 425.3 740.8 425.7 740.8 427.1
L 740.8 444
Q 740.8 445.45 741.45 445.85 742.05 446.3 743.3 446.3 744.8 446.4 746.8 446.35 748.75 446.3 750.85 446.15 752.95 446 754.9 445.75 756.85 445.5 758.3 445.15 758.7 445 758.85 444.9 759 444.75 758.9 444.35
L 758.5 441.8
Q 758.4 441.5 758.3 441.4 758.15 441.3 757.75 441.35 756.4 441.6 754.9 441.8 753.4 442 751.9 442.1 750.35 442.2 748.95 442.25
M 769.9 438.85
Q 770.2 438.85 770.4 438.7 770.6 438.6 770.6 438.15
L 770.6 435.5
Q 770.6 435 770.4 434.9 770.2 434.85 769.9 434.85
L 765.55 434.85 765.55 422.9
Q 765.55 422.5 765.45 422.4 765.35 422.25 764.95 422.25
L 761.4 422.25
Q 761 422.25 760.85 422.4 760.7 422.5 760.7 422.9
L 760.7 455.15
Q 760.7 455.55 760.85 455.7 761 455.8 761.4 455.8
L 764.95 455.8
Q 765.35 455.8 765.45 455.7 765.55 455.55 765.55 455.15
L 765.55 438.85 769.9 438.85 Z"/>
</g>

<g id="Duplicate_Items_Folder_fbd54454d34_1_Layer1_0_FILL">
<path fill="#7A94C2" stroke="none" d="
M 29.05 -10
Q 29.05 -20 19.05 -20
L -26 -20
Q -36 -20 -36 -10
L -36 9.05
Q -36 19.05 -26 19.05
L 19.05 19.05
Q 29.05 19.05 29.05 9.05
L 29.05 -10 Z"/>
</g>

<g id="Duplicate_Items_Folder_fbd54454d34_1_Layer0_0_FILL">
<path fill="#FFFFFF" stroke="none" d="
M 5.5 0.75
Q 5.35 0.7 5.3 0.7 5 0.7 4.8 0.8 4.55 0.85 4.3 1 4.1 1.15 4 1.3 3.9 1.5 3.9 1.75
L 3.9 2.8 -1.85 2.8 -1.85 1.75
Q -1.85 1.65 -1.9 1.5 -1.9 1.4 -2 1.3 -2.1 1.2 -2.2 1.15 -2.3 1.05 -2.4 1 -2.5 0.95 -2.6 0.9 -2.7 0.85 -2.8 0.8 -3 0.75 -3.1 0.75 -3.25 0.7 -3.35 0.7 -3.4 0.7 -3.55 0.75 -3.65 0.75 -3.8 0.8 -3.95 0.85 -4.05 0.9 -4.15 0.95 -4.25 1 -4.35 1.05 -4.4 1.15 -4.5 1.2 -4.55 1.3 -4.6 1.4 -4.65 1.5 -4.65 1.65 -4.65 1.75
L -4.65 7.3
Q -4.65 7.7 -4.55 8.05 -4.5 8.35 -4.25 8.6 -4.1 8.85 -3.8 8.95 -3.5 9.1 -3.05 9.1
L 4.95 9.1
Q 5.3 9.1 5.6 8.95 5.95 8.85 6.25 8.6 6.5 8.35 6.65 8.05 6.75 7.7 6.75 7.3
L 6.75 1.75
Q 6.75 1.65 6.75 1.5 6.7 1.4 6.6 1.3 6.5 1.2 6.4 1.15 6.35 1.05 6.25 1 6 0.9 5.75 0.8 5.6 0.75 5.5 0.75
M 3.45 5.1
Q 3.55 5.1 3.6 5.15 3.7 5.2 3.75 5.2 3.8 5.25 3.85 5.35 3.9 5.4 3.9 5.55
L 3.9 6.45
Q 3.9 6.6 3.85 6.65 3.8 6.75 3.75 6.75 3.7 6.8 3.6 6.8 3.55 6.8 3.45 6.8
L -1.4 6.8
Q -1.5 6.8 -1.6 6.8 -1.7 6.8 -1.75 6.75 -1.8 6.75 -1.8 6.65 -1.85 6.6 -1.85 6.45
L -1.85 5.55
Q -1.85 5.4 -1.8 5.35 -1.8 5.25 -1.75 5.2 -1.7 5.2 -1.6 5.15 -1.5 5.1 -1.4 5.1
L 3.45 5.1
M 1.4 -9.35
Q 1.2 -9.4 0.9 -9.4
L -4.25 -9.4
Q -4.65 -9.4 -5 -9.4 -5.3 -9.4 -5.55 -9.35 -5.8 -9.35 -6.05 -9.25 -6.25 -9.2 -6.4 -9.1 -6.65 -8.95 -6.75 -8.75 -6.9 -8.6 -6.95 -8.35 -7 -8.1 -7.05 -7.8 -7.1 -7.5 -7.1 -7.1
L -7.1 -3.3
Q -7.1 -2.5 -6.95 -2.05 -6.9 -1.8 -6.75 -1.65 -6.65 -1.5 -6.4 -1.4 -6.25 -1.25 -6.05 -1.2 -5.8 -1.15 -5.55 -1.1 -5.3 -1.1 -5 -1.1 -4.65 -1.05 -4.25 -1.05 -3.4 -1.1 -2.6 -1.15 -1.8 -1.2 -1 -1.3 -0.2 -1.35 0.6 -1.45 1.4 -1.55 2.2 -1.7 2.85 -1.75 3.1 -2.1 3.2 -2.3 3.2 -2.55 3.2 -2.8 3.1 -3.15 3.05 -3.35 3 -3.5 3 -3.65 2.95 -3.75 2.85 -3.85 2.85 -3.9 2.75 -4 2.75 -4.05 2.65 -4.05 2.55 -4.1 2.5 -4.1 2.35 -4.1 2.25 -4.1 2.1 -4.1 2 -4.1 1.9 -4.1 1.15 -3.95 0.4 -3.9 -0.35 -3.8 -1.15 -3.75 -1.95 -3.65 -2.75 -3.65 -3.5 -3.6 -4.25 -3.6 -4.25 -3.72734375 -4.25 -4.05
L -4.25 -6.95 0.9 -6.95
Q 1.2 -6.95 1.4 -7 1.6 -7.05 1.7 -7.2 1.8 -7.35 1.85 -7.6 1.9 -7.85 1.9 -8.15 1.9 -8.55 1.85 -8.85 1.8 -9.1 1.7 -9.2 1.6 -9.3 1.4 -9.35
M 5.35 -10.3
Q 5.25 -10.25 5.1 -10.25 5 -10.2 4.85 -10.2 4.75 -10.15 4.65 -10.1 4.55 -10.05 4.45 -9.95 4.4 -9.9 4.35 -9.8 4.25 -9.7 4.25 -9.55 4.2 -9.45 4.2 -9.3
L 4.2 -1.7
Q 4.2 -1.55 4.25 -1.45 4.25 -1.35 4.35 -1.25 4.4 -1.15 4.45 -1.05 4.55 -0.95 4.65 -0.9 4.75 -0.85 4.85 -0.8 5 -0.75 5.1 -0.75 5.25 -0.75 5.35 -0.7 5.5 -0.7 5.65 -0.7 5.9 -0.7 6.15 -0.75 6.4 -0.8 6.6 -0.9 6.8 -1 6.9 -1.2 7 -1.4 7 -1.7
L 7 -4.15 8.9 -4.15
Q 9.55 -4.15 9.7 -4.55 9.75 -4.75 9.8 -4.95 9.8 -5.15 9.8 -5.4 9.8 -5.9 9.7 -6.3 9.6 -6.45 9.4 -6.55 9.2 -6.65 8.9 -6.65
L 7 -6.65 7 -9.3
Q 7 -9.9 6.6 -10.1 6.4 -10.2 6.15 -10.25 5.9 -10.3 5.65 -10.3 5.5 -10.3 5.35 -10.3 Z"/>
</g>

<path id="Layer0_0_1_STROKES" stroke="#BBDECB" stroke-width="5" stroke-linejoin="round" stroke-linecap="round" fill="none" d="
M 130.5 267.1
L 1149.5 267.1
Q 1164.5 267.1 1164.5 282.1
L 1164.5 494.15
Q 1164.5 502.45 1159.95 506.15 1156.2 509.15 1149.5 509.15
L 130.5 509.15
Q 115.5 509.15 115.5 494.15
L 115.5 282.1
Q 115.5 267.1 130.5 267.1 Z"/>

<path id="Layer0_0_2_STROKES" stroke="#1E1E1E" stroke-width="3" stroke-linejoin="round" stroke-linecap="round" fill="none" d="
M 753.75 374.25
L 651.75 476 856.5 476 753.75 374.25 Z
M 898 476.75
L 1103.5 476.75 1000.25 299.5 898 476.75 Z
M 388 346.25
L 440.25 473.5 610.75 473.5 388 346.25 Z
M 176.5 335.5
L 346.25 323 272.5 476.25 176.5 335.5 Z"/>

<path id="Layer0_1_1_STROKES" stroke="#CCCCCC" stroke-width="3" stroke-linejoin="round" stroke-linecap="round" fill="none" d="
M 848.95 478.6
L 1191.45 478.6"/>
</defs>

<g transform="matrix( 1, 0, 0, 1, 0,0) ">
<use xlink:href="#Layer0_0_FILL"/>

<use xlink:href="#Layer0_0_1_STROKES"/>

<use xlink:href="#Layer0_0_2_STROKES"/>
</g>

<g transform="matrix( 1, 0, 0, 1, -6.45,124) ">
<use xlink:href="#Layer0_1_1_STROKES"/>
</g>

<g transform="matrix( 1, 0, 0, 1, 801.15,578.05) ">
<g transform="matrix( 1, 0, 0, 1, 3.5,0.45) ">
<use xlink:href="#Duplicate_Items_Folder_fbd54454d34_1_Layer1_0_FILL"/>
</g>

<g transform="matrix( 1, 0, 0, 1, 0,0) ">
<use xlink:href="#Duplicate_Items_Folder_fbd54454d34_1_Layer0_0_FILL"/>
</g>
</g>
</svg>
