
<svg xmlns="http://www.w3.org/2000/svg" version="1.1" xmlns:xlink="http://www.w3.org/1999/xlink" preserveAspectRatio="none" x="0px" y="0px" width="104px" height="44px" viewBox="0 0 104 44">
<defs>
<g id="fbfdnddm_copy_2_1_Layer3_0_FILL">
<path fill="#FF7555" stroke="none" d="
M -51.2 -5.9
L -51.2 -2.9 -51.2 8.25
Q -51.2 21.25 -38.2 21.25
L -10.65 21.25 -3.65 21.25 -0.65 21.25 6.35 21.25 38.2 21.25
Q 51.2 21.25 51.2 8.25
L 51.2 -2.9 51.2 -5.9 51.2 -8.2
Q 51.2 -21.2 38.2 -21.2
L -38.2 -21.2
Q -51.2 -21.2 -51.2 -8.2
L -51.2 -5.9 Z"/>
</g>

<g id="fbfdnddm_copy_2_1_Layer2_0_FILL">
<path fill="#FFFFFF" fill-opacity="0.4980392156862745" stroke="none" d="
M 1047.35 671.9
Q 1048.4 670.9 1048.4 669.45 1048.4 668 1047.35 666.95 1046.35 665.95 1044.9 665.95 1043.45 665.95 1042.4 666.95 1041.4 668 1041.4 669.45 1041.4 670.9 1042.4 671.9 1043.45 672.95 1044.9 672.95 1046.35 672.95 1047.35 671.9 Z"/>
</g>

<g id="fbfdnddm_copy_2_1_Layer1_0_FILL">
<path fill="#FFFFFF" stroke="none" d="
M -16.75 -7
Q -16.8 -6.95 -16.85 -6.9 -16.95 -6.75 -16.95 -6.6
L -16.95 -5.75
Q -16.95 -5.45 -17.05 -5.1 -17.1 -4.8 -17.25 -4.5 -17.55 -3.85 -18.05 -3.25 -18.2 -2.95 -18.4 -2.75 -18.65 -2.5 -18.85 -2.3 -19.3 -1.85 -19.55 -1.7 -19.7 -1.5 -19.8 -1.3 -19.9 -1.15 -19.9 -1 -19.9 -0.85 -19.8 -0.7 -19.75 -0.55 -19.6 -0.4 -19.5 -0.3 -19.3 -0.2 -19.15 -0.15 -18.9 -0.15
L -18.85 -0.15
Q -18.8 -0.15 -18.75 -0.15 -18.6 -0.15 -18.45 -0.2 -18.3 -0.35 -18.15 -0.5 -18 -0.6 -17.8 -0.8 -17.65 -0.95 -17.5 -1.1 -17.35 -1.3 -17.2 -1.5 -17.05 -1.65 -16.85 -1.85 -16.7 -2.05 -16.55 -2.25 -16.4 -2.45 -16.25 -2.65 -16.15 -2.85 -16.05 -3.05 -15.9 -2.85 -15.75 -2.65 -15.6 -2.4 -15.45 -2.15 -15.1 -1.65 -14.65 -1.25 -14.55 -1.05 -14.35 -0.85 -14.2 -0.7 -14 -0.55 -13.8 -0.4 -13.65 -0.3 -13.45 -0.25 -13.3 -0.25 -13.2 -0.25 -13.15 -0.3 -13.05 -0.3 -12.95 -0.35 -12.85 -0.4 -12.75 -0.5 -12.65 -0.55 -12.6 -0.6 -12.55 -0.7 -12.5 -0.75 -12.45 -0.85 -12.45 -0.95 -12.4 -1.1 -12.4 -1.25 -12.4 -1.55 -12.6 -1.75 -12.75 -1.85 -12.95 -2 -13.1 -2.15 -13.3 -2.4 -13.7 -2.8 -14.05 -3.35 -14.25 -3.6 -14.45 -3.9 -14.6 -4.15 -14.75 -4.45 -14.9 -4.75 -15 -5 -15.1 -5.3 -15.15 -5.55
L -15.15 -6.5
Q -15.15 -6.7 -15.2 -6.85 -15.25 -7 -15.35 -7.1 -15.65 -7.3 -16.05 -7.3 -16.1 -7.3 -16.2 -7.3 -16.25 -7.3 -16.35 -7.25 -16.45 -7.25 -16.55 -7.2 -16.6 -7.15 -16.7 -7.1 -16.75 -7.05 -16.75 -7
M -11.55 -7.5
Q -11.6 -7.35 -11.6 -7.1
L -11.6 1.95
Q -11.8 2 -12.05 2.05 -12.25 2.1 -12.5 2.1 -12.75 2.15 -12.95 2.2 -13.2 2.2 -13.4 2.25 -13.65 2.25 -13.9 2.3 -14.15 2.3 -14.35 2.3 -14.55 2.3 -14.75 2.3 -15 2.3 -15.2 2.3
L -15.2 0.15
Q -15.2 0.05 -15.2 -0.05 -15.25 -0.15 -15.25 -0.2 -15.3 -0.3 -15.35 -0.35 -15.4 -0.4 -15.45 -0.4 -15.5 -0.45 -15.6 -0.45 -15.7 -0.5 -15.75 -0.5 -15.85 -0.5 -15.95 -0.5 -16.05 -0.55 -16.1 -0.55 -16.3 -0.55 -16.45 -0.5 -16.6 -0.5 -16.75 -0.4 -16.85 -0.35 -16.9 -0.2 -17 -0.05 -17 0.15
L -17 2.35
Q -17.9 2.35 -18.4 2.35 -18.7 2.35 -18.9 2.35 -19.1 2.35 -19.3 2.35 -19.45 2.35 -19.55 2.35 -19.65 2.35 -19.7 2.35 -19.8 2.35 -19.85 2.35 -19.9 2.35 -19.95 2.35 -20.05 2.35 -20.1 2.4 -20.2 2.4 -20.2 2.45 -20.25 2.45 -20.3 2.5
L -20.35 2.55
Q -20.4 2.6 -20.4 2.7 -20.45 2.75 -20.45 2.8 -20.5 2.9 -20.5 3 -20.5 3.1 -20.5 3.2 -20.5 3.3 -20.45 3.45 -20.45 3.55 -20.35 3.7 -20.25 4 -19.85 4.1
L -16.6 4.1
Q -15.95 4.1 -15.25 4.1 -14.6 4.1 -13.95 4.05 -13.25 4 -12.7 3.95 -12.1 3.85 -11.65 3.75 -11.65 4.05 -11.65 4.4 -11.65 4.75 -11.6 5.05 -11.6 5.35 -11.6 5.65 -11.6 5.95 -11.6 6.3 -11.6 6.5 -11.55 6.65 -11.5 6.8 -11.35 6.85 -11.2 6.95 -11 6.95 -10.85 7 -10.6 7 -10.45 7 -10.3 6.95 -10.15 6.95 -10 6.85 -9.85 6.8 -9.75 6.65 -9.7 6.5 -9.7 6.3
L -9.7 -0.55 -8.45 -0.55 -8.45 6.75
Q -8.45 7 -8.4 7.15 -8.35 7.3 -8.2 7.35 -8.1 7.4 -7.9 7.45 -7.75 7.45 -7.55 7.45 -7.35 7.45 -7.2 7.45 -7 7.4 -6.9 7.35 -6.75 7.3 -6.7 7.15 -6.65 7 -6.65 6.75
L -6.65 -7.4
Q -6.65 -7.6 -6.7 -7.75 -6.8 -7.95 -6.9 -8 -7.05 -8.05 -7.2 -8.1 -7.35 -8.15 -7.55 -8.15 -7.75 -8.15 -7.95 -8.1 -8.1 -8.05 -8.25 -8 -8.35 -7.95 -8.4 -7.75 -8.45 -7.6 -8.45 -7.4
L -8.45 -2.4 -9.7 -2.4 -9.7 -7.1
Q -9.7 -7.35 -9.75 -7.5 -9.85 -7.6 -10 -7.7 -10.15 -7.75 -10.3 -7.8 -10.45 -7.85 -10.6 -7.85 -10.85 -7.85 -11 -7.8 -11.2 -7.75 -11.35 -7.7 -11.5 -7.6 -11.55 -7.5
M -22.45 5.75
Q -22.55 5.6 -22.7 5.55 -22.85 5.5 -23 5.5
L -28.65 5.5
Q -28.95 5.5 -29.15 5.45 -29.4 5.45 -29.6 5.4
L -29.6 2.2
Q -29.6 2.1 -29.65 2.05 -29.7 1.95 -29.75 1.9 -29.85 1.8 -29.9 1.75 -29.95 1.7 -30 1.65 -30.1 1.6 -30.15 1.6 -30.25 1.55 -30.35 1.5 -30.5 1.5 -30.55 1.5 -30.65 1.45 -30.7 1.45 -30.9 1.45 -31.1 1.5 -31.25 1.55 -31.35 1.65 -31.5 1.75 -31.6 1.9 -31.65 2.05 -31.65 2.2
L -31.65 5.85
Q -31.65 6.2 -31.55 6.5 -31.45 6.75 -31.2 6.95 -30.95 7.1 -30.65 7.2 -30.4 7.25 -30.05 7.25
L -23 7.25
Q -22.85 7.25 -22.7 7.2 -22.55 7.1 -22.45 7 -22.35 6.85 -22.3 6.7 -22.25 6.5 -22.25 6.35 -22.25 6 -22.45 5.75
M -24.3 -7.7
Q -24.4 -7.5 -24.4 -7.3
L -24.4 1.8
Q -24.4 2.05 -24.3 2.2 -24.25 2.35 -24.05 2.45 -23.9 2.5 -23.75 2.55 -23.6 2.6 -23.45 2.6 -23 2.6 -22.65 2.45 -22.5 2.35 -22.45 2.2 -22.35 2.05 -22.35 1.8
L -22.35 -7.3
Q -22.35 -7.75 -22.65 -7.95 -22.85 -8.05 -23 -8.1 -23.2 -8.15 -23.45 -8.15 -23.6 -8.15 -23.75 -8.1 -23.9 -8.05 -24.05 -7.95 -24.25 -7.85 -24.3 -7.7
M -30.95 -7.55
Q -31.4 -7.55 -31.85 -7.5 -32.25 -7.45 -32.6 -7.3 -33 -7.15 -33.3 -7 -33.6 -6.8 -33.85 -6.6 -34.1 -6.3 -34.3 -6 -34.5 -5.75 -34.65 -5.4 -34.8 -5 -34.85 -4.65 -34.95 -4.25 -34.95 -3.8 -34.95 -3.35 -34.85 -2.95 -34.8 -2.6 -34.65 -2.25 -34.35 -1.55 -33.85 -1.05 -33.6 -0.8 -33.3 -0.6 -33 -0.45 -32.6 -0.3 -32.25 -0.2 -31.85 -0.15 -31.4 -0.05 -30.95 -0.05 -30.45 -0.05 -30.05 -0.15 -29.65 -0.2 -29.3 -0.3 -28.9 -0.45 -28.6 -0.6 -28.3 -0.8 -28 -1.05 -27.8 -1.3 -27.6 -1.6 -27.45 -1.9 -27.25 -2.25 -27.15 -2.6 -27.05 -2.95 -27 -3.35 -27 -3.8 -27 -4.25 -27.05 -4.65 -27.15 -5 -27.25 -5.4 -27.45 -5.75 -27.6 -6 -27.8 -6.3 -28 -6.6 -28.3 -6.8 -28.6 -7 -28.9 -7.15 -29.3 -7.3 -29.65 -7.45 -30.05 -7.5 -30.45 -7.55 -30.95 -7.55
M -32.9 -4.65
Q -32.8 -5 -32.5 -5.25 -32.25 -5.5 -31.85 -5.65 -31.45 -5.8 -30.9 -5.8 -30 -5.8 -29.4 -5.25 -29.1 -5 -28.95 -4.65 -28.8 -4.3 -28.8 -3.8 -28.8 -3.35 -28.95 -3 -29.1 -2.65 -29.4 -2.4 -29.7 -2.1 -30.05 -2 -30.45 -1.85 -30.9 -1.85 -31.45 -1.85 -31.85 -2 -32.25 -2.1 -32.5 -2.4 -32.8 -2.65 -32.9 -3 -33.05 -3.35 -33.05 -3.8 -33.05 -4.3 -32.9 -4.65
M 5.35 -9.2
Q 2.55 -9.2 2.55 -6.4
L 2.55 5.6
Q 2.55 8.4 5.35 8.4
L 6.9 8.4 6.9 8.85
Q 6.9 11.4 9.45 11.4
L 27.45 11.4
Q 30 11.4 30 8.85
L 30 8.4 31.65 8.4
Q 34.45 8.4 34.45 5.6
L 34.45 -6.4
Q 34.45 -9.2 31.65 -9.2
L 5.35 -9.2
M 4.55 -6.4
Q 4.55 -7.2 5.35 -7.2
L 31.65 -7.2
Q 32.45 -7.2 32.45 -6.4
L 32.45 5.6
Q 32.45 6.4 31.65 6.4
L 30 6.4 30 1.45
Q 30 -1.1 27.45 -1.1
L 9.45 -1.1
Q 6.9 -1.1 6.9 1.45
L 6.9 6.4 5.35 6.4
Q 4.55 6.4 4.55 5.6
L 4.55 -6.4
M 27.45 0.4
Q 28.5 0.4 28.5 1.45
L 28.5 8.85
Q 28.5 9.9 27.45 9.9
L 9.45 9.9
Q 8.4 9.9 8.4 8.85
L 8.4 1.45
Q 8.4 0.4 9.45 0.4
L 27.45 0.4
M 25.9 7.4
Q 26.1 7.4 26.25 7.25 26.4 7.1 26.4 6.9 26.4 6.7 26.25 6.55 26.1046875 6.4046875 25.9 6.4
L 10.95 6.4
Q 10.7453125 6.4046875 10.6 6.55 10.45 6.7 10.45 6.9 10.45 7.1 10.6 7.25 10.75 7.4 10.95 7.4
L 25.9 7.4
M 26.4 3.3
Q 26.4 3.1 26.25 2.95 26.1 2.8 25.9 2.8
L 10.95 2.8
Q 10.75 2.8 10.6 2.95 10.45 3.1 10.45 3.3 10.45 3.5 10.6 3.65 10.75 3.8 10.95 3.8
L 25.9 3.8
Q 26.1 3.8 26.25 3.65 26.4 3.5 26.4 3.3
M 25.6 -4.75
L 25.6 -4.65
Q 25.6 -4.25 25.9 -3.95 26.2 -3.65 26.6 -3.65
L 29.85 -3.65
Q 30.25 -3.65 30.55 -3.95 30.85 -4.25 30.85 -4.65
L 30.85 -4.75
Q 30.85 -5.15 30.55 -5.45 30.25 -5.75 29.85 -5.75
L 26.6 -5.75
Q 26.2 -5.75 25.9 -5.45 25.6 -5.15 25.6 -4.75
M 22.85 -3.65
Q 23.25 -3.65 23.55 -3.95 23.85 -4.25 23.85 -4.65
L 23.85 -4.75
Q 23.85 -5.15 23.55 -5.45 23.25 -5.75 22.85 -5.75
L 21.6 -5.75
Q 21.2 -5.75 20.9 -5.45 20.6 -5.15 20.6 -4.75
L 20.6 -4.65
Q 20.6 -4.25 20.9 -3.95 21.2 -3.65 21.6 -3.65
L 22.85 -3.65 Z"/>

<path fill="#FF7555" stroke="none" d="
M 28.5 1.45
Q 28.5 0.4 27.45 0.4
L 9.45 0.4
Q 8.4 0.4 8.4 1.45
L 8.4 8.85
Q 8.4 9.9 9.45 9.9
L 27.45 9.9
Q 28.5 9.9 28.5 8.85
L 28.5 1.45
M 26.25 2.95
Q 26.4 3.1 26.4 3.3 26.4 3.5 26.25 3.65 26.1 3.8 25.9 3.8
L 10.95 3.8
Q 10.75 3.8 10.6 3.65 10.45 3.5 10.45 3.3 10.45 3.1 10.6 2.95 10.75 2.8 10.95 2.8
L 25.9 2.8
Q 26.1 2.8 26.25 2.95
M 26.25 7.25
Q 26.1 7.4 25.9 7.4
L 10.95 7.4
Q 10.75 7.4 10.6 7.25 10.45 7.1 10.45 6.9 10.45 6.7 10.6 6.55 10.7453125 6.4046875 10.95 6.4
L 25.9 6.4
Q 26.1046875 6.4046875 26.25 6.55 26.4 6.7 26.4 6.9 26.4 7.1 26.25 7.25
M 5.35 -7.2
Q 4.55 -7.2 4.55 -6.4
L 4.55 5.6
Q 4.55 6.4 5.35 6.4
L 6.9 6.4 6.9 1.45
Q 6.9 -1.1 9.45 -1.1
L 27.45 -1.1
Q 30 -1.1 30 1.45
L 30 6.4 31.65 6.4
Q 32.45 6.4 32.45 5.6
L 32.45 -6.4
Q 32.45 -7.2 31.65 -7.2
L 5.35 -7.2
M 23.55 -3.95
Q 23.25 -3.65 22.85 -3.65
L 21.6 -3.65
Q 21.2 -3.65 20.9 -3.95 20.6 -4.25 20.6 -4.65
L 20.6 -4.75
Q 20.6 -5.15 20.9 -5.45 21.2 -5.75 21.6 -5.75
L 22.85 -5.75
Q 23.25 -5.75 23.55 -5.45 23.85 -5.15 23.85 -4.75
L 23.85 -4.65
Q 23.85 -4.25 23.55 -3.95
M 25.6 -4.65
L 25.6 -4.75
Q 25.6 -5.15 25.9 -5.45 26.2 -5.75 26.6 -5.75
L 29.85 -5.75
Q 30.25 -5.75 30.55 -5.45 30.85 -5.15 30.85 -4.75
L 30.85 -4.65
Q 30.85 -4.25 30.55 -3.95 30.25 -3.65 29.85 -3.65
L 26.6 -3.65
Q 26.2 -3.65 25.9 -3.95 25.6 -4.25 25.6 -4.65 Z"/>
</g>
</defs>

<g transform="matrix( 1, 0, 0, 1, 52,22) ">
<g transform="matrix( 1, 0, 0, 1, 0,0) ">
<use xlink:href="#fbfdnddm_copy_2_1_Layer3_0_FILL"/>
</g>

<g transform="matrix( 0.7999725341796875, 0, 0, 0.79998779296875, -879.6,-549.25) ">
<use xlink:href="#fbfdnddm_copy_2_1_Layer2_0_FILL"/>
</g>

<g transform="matrix( 1, 0, 0, 1, 0,0) ">
<use xlink:href="#fbfdnddm_copy_2_1_Layer1_0_FILL"/>
</g>
</g>
</svg>
