<?xml version="1.0" encoding="utf-8"?>
<!-- Generator: Adobe Illustrator 23.0.0, SVG Export Plug-In . SVG Version: 6.00 Build 0)  -->
<svg version="1.1" id="Layer_1" xmlns="http://www.w3.org/2000/svg" xmlns:xlink="http://www.w3.org/1999/xlink" x="0px" y="0px"
	 width="1053.7px" height="414.7px" viewBox="0 0 1053.7 414.7" style="enable-background:new 0 0 1053.7 414.7;"
	 xml:space="preserve">
<g>
	<path style="fill:#D2C6A6;" d="M430.4,228.1c-11.1,4-20.1,11.7-23.9,24.3c-3.9,12.9-3.5,95.9-2.3,109.4c0.9,11,2.6,22.6,8.1,32.1
		c3.1,5.3,7.4,9.5,12.7,12c12.7,6.1,28,6.1,42.3,6c3.7,0,7.4,0,11,0.1c18.6,0.5,464.7,1.4,483.4,1.7c17.6,0.3,36.2-0.1,53.1-5.6
		c12.4-4,23-12.6,28.5-25.5c6.4-15,4.2-103.2,1.3-119.2c-2.9-16.2-10.6-28.5-25.1-34.3c-15.1-6-32.5-6.4-48.4-6.9
		c-19.1-0.7-500.9,0-520,0.3c-17.8,0.3,1-0.2-16.4,4.4C433.3,227.2,431.8,227.6,430.4,228.1"/>
	<path style="fill:#FFFFFF;" d="M426.7,224.1c-11,3.9-20,11.7-23.8,24.3c-3.9,12.9-3.5,95.3-2.3,108.8c0.9,10.9,2.6,22.6,8.1,32
		c3.1,5.3,7.4,9.5,12.6,12c12.7,6.1,27.9,6,42.2,6c3.7,0,7.4,0,11,0.1c18.6,0.5,463.7,1.4,482.3,1.7c17.5,0.3,36.1-0.1,53-5.6
		c12.4-4,23-12.5,28.5-25.4c6.4-14.9,4.2-102.6,1.3-118.6c-2.9-16.2-10.6-28.5-25-34.2c-15.1-6-32.5-6.4-48.3-6.9
		c-19-0.7-461.9,0-480.9,0.3c-17.7,0.3-36.9-0.2-54.2,4.4C429.5,223.2,428.1,223.7,426.7,224.1"/>
	<path style="fill:#D2C6A6;" d="M426.7,224.1l-0.4-1.1c-11.3,4-20.6,12-24.5,25c-0.6,2.1-1.1,5.7-1.5,10.3
		c-1.2,13.8-1.6,37.4-1.6,58.4c0,18.6,0.3,35.1,0.8,40.5c0.9,11,2.6,22.8,8.2,32.5c3.2,5.5,7.7,9.9,13.1,12.4
		c12.3,5.8,26.6,6.1,40,6.1c1.8,0,3.5,0,5.3,0c2.8,0,5.6,0,8.3,0.1c9.4,0.3,74.9,0.6,178.6,0.9s294.4,0.6,303.6,0.7
		c2.5,0,5.1,0.1,7.6,0.1c15.2,0,31.1-0.9,45.7-5.7c12.5-4.1,23.5-12.8,29.2-26.1c0.8-2,1.5-4.9,2-8.5c1.6-11,2.2-28.9,2.2-47.3
		c0-13.4-0.3-27.2-0.8-38.6c-0.5-11.5-1.2-20.5-2-24.8c-1.5-8.3-4.2-15.5-8.4-21.5c-4.2-6-10-10.7-17.3-13.5
		c-15.4-6.1-32.9-6.4-48.7-7c-6.3-0.2-138.5-0.3-197.7-0.3c-123.8,0-270.4,0.4-283.3,0.6c-17.7,0.3-36.9-0.2-54.5,4.5
		c-1.5,0.4-3,0.8-4.4,1.4L426.7,224.1l0.4,1.1c1.4-0.5,2.8-0.9,4.2-1.3c17.1-4.5,36.2-4.1,53.9-4.4c12.8-0.2,159.5-0.6,283.3-0.6
		c59.1,0,191.5,0.1,197.6,0.3c15.8,0.6,33.1,0.9,47.9,6.8c7.1,2.8,12.4,7.2,16.3,12.7c4,5.7,6.6,12.5,8,20.5
		c0.7,4.1,1.4,13.1,2,24.5c0.5,11.4,0.8,25.1,0.8,38.5c0,12.3-0.3,24.3-0.9,34.2c-0.3,4.9-0.7,9.3-1.3,12.8c-0.5,3.6-1.2,6.3-1.8,8
		c-5.4,12.7-15.6,20.8-27.7,24.8c-14.3,4.7-29.9,5.6-45,5.6c-2.5,0-5.1,0-7.6-0.1c-9.4-0.1-200.1-0.4-303.7-0.7
		c-103.6-0.3-169.3-0.7-178.5-0.9c-2.7-0.1-5.5-0.1-8.3-0.1c-1.8,0-3.5,0-5.3,0c-13.4,0-27.5-0.4-39-5.9c-5-2.4-9.2-6.4-12.2-11.5
		c-5.4-9.1-7-20.6-7.9-31.5c-0.5-5.3-0.8-21.7-0.8-40.3c0-13.9,0.2-29.1,0.7-41.6c0.2-6.3,0.6-12,1-16.5c0.4-4.6,0.9-8.1,1.4-9.8
		c3.7-12.3,12.4-19.6,23.1-23.5L426.7,224.1"/>
</g>
<g>
	<g>
		<g>
			<path style="fill:#111111;" d="M575.7,272.9h-18.9c-1.4,0-2.5-1.1-2.5-2.5l0,0c0-1.4,1.1-2.5,2.5-2.5h18.9c1.4,0,2.5,1.1,2.5,2.5
				l0,0C578.2,271.8,577.1,272.9,575.7,272.9z"/>
		</g>
		<g>
			<path style="fill:#111111;" d="M575.7,284.8h-18.9c-1.4,0-2.5-1.1-2.5-2.5l0,0c0-1.4,1.1-2.5,2.5-2.5h18.9c1.4,0,2.5,1.1,2.5,2.5
				l0,0C578.2,283.7,577.1,284.8,575.7,284.8z"/>
		</g>
	</g>
</g>
<g>
	<g>
		<g>
			<path style="fill:#111111;" d="M883.3,272.9h-18.9c-1.4,0-2.5-1.1-2.5-2.5l0,0c0-1.4,1.1-2.5,2.5-2.5h18.9c1.4,0,2.5,1.1,2.5,2.5
				l0,0C885.8,271.8,884.7,272.9,883.3,272.9z"/>
		</g>
		<g>
			<path style="fill:#111111;" d="M883.3,284.8h-18.9c-1.4,0-2.5-1.1-2.5-2.5l0,0c0-1.4,1.1-2.5,2.5-2.5h18.9c1.4,0,2.5,1.1,2.5,2.5
				l0,0C885.8,283.7,884.7,284.8,883.3,284.8z"/>
		</g>
	</g>
</g>
<path style="fill:#6EAEDF;" d="M655,341.6v2.5c0,0.8,0.7,1.5,1.5,1.5s1.5-0.7,1.5-1.5v-2.5c0-0.8-0.7-1.5-1.5-1.5
	C655.7,340.1,655,340.8,655,341.6 M655,333.5v2.5c0,0.8,0.7,1.5,1.5,1.5s1.5-0.7,1.5-1.5v-2.5c0-0.8-0.7-1.5-1.5-1.5
	C655.7,332,655,332.7,655,333.5 M655,325.5v2.5c0,0.8,0.7,1.5,1.5,1.5s1.5-0.7,1.5-1.5v-2.5c0-0.8-0.7-1.5-1.5-1.5
	C655.7,324,655,324.6,655,325.5 M655,317.5v2.5c0,0.8,0.7,1.5,1.5,1.5s1.5-0.7,1.5-1.5v-2.5c0-0.8-0.7-1.5-1.5-1.5
	C655.7,316,655,316.7,655,317.5 M655,309.4v2.5c0,0.8,0.7,1.5,1.5,1.5s1.5-0.7,1.5-1.5v-2.5c0-0.8-0.7-1.5-1.5-1.5
	C655.7,307.9,655,308.6,655,309.4"/>
<g>
	<path style="fill:#FFFFFF;" d="M605.1,337.6c0,0-8.5,0-8.5,8.5v40.8c0,0,0,8.5,8.5,8.5h110.1c0,0,8.5,0,8.5-8.5v-40.8
		c0,0,0-8.5-8.5-8.5H605.1z"/>
	<path style="fill:#008CCF;" d="M715.2,396.2H593.1c-9.1,0-9.3-9.2-9.3-9.3v-40.8c0-9.1,9.2-9.3,9.3-9.3h122.2
		c9.1,0,9.3,9.2,9.3,9.3v40.8C724.5,396.1,715.3,396.2,715.2,396.2z M593.1,338.3c-0.3,0-7.8,0.1-7.8,7.8v40.8
		c0,0.3,0.1,7.8,7.8,7.8h122.2c0.3,0,7.8-0.1,7.8-7.8v-40.8c0-0.3-0.1-7.8-7.8-7.8H593.1L593.1,338.3z"/>
	<g style="enable-background:new    ;">
		<path style="fill:#008CCF;" d="M605.1,352.3c0.2-0.1,0.3-0.1,0.5-0.1s0.3-0.1,0.5-0.1c0.2-0.1,0.4-0.1,0.7-0.1s0.5,0,0.8,0
			c0.2,0,0.5,0.1,0.7,0.2s0.4,0.3,0.5,0.5c0.1,0.3,0.2,0.5,0.2,0.9c0,0.3,0.1,0.7,0.1,1c0,0.4,0,0.7,0,1s0,0.7,0,0.9v19.3
			c0,0.3,0,0.6,0,0.9s0,0.6,0,0.9s-0.1,0.6-0.2,0.9c-0.1,0.3-0.3,0.5-0.6,0.7c-0.4,0.3-0.8,0.4-1.4,0.4c-0.6,0-1.1-0.1-1.5-0.2
			c-0.5-0.2-0.7-0.4-0.8-0.9c-0.1-0.4-0.1-0.9-0.1-1.3c-0.2-3.3-0.3-6.6-0.2-9.8c0-3.2,0-6.5,0-9.9c-0.1,0.1-0.2,0.2-0.5,0.3
			c-0.3,0.1-0.6,0.2-1,0.3c-0.4,0.1-0.7,0.1-1,0.2s-0.5,0.1-0.6,0.1c-0.7,0.1-1.3,0-1.8-0.2s-0.9-0.7-0.9-1.5
			c-0.1-0.8,0.1-1.4,0.5-1.9c0.5-0.5,1.1-0.8,1.8-1c0.8-0.3,1.6-0.6,2.4-0.9S604.3,352.6,605.1,352.3z"/>
		<path style="fill:#008CCF;" d="M627.4,379.5c-0.5,0-0.9,0-1.4-0.1s-0.9-0.2-1.4-0.4c-0.7-0.3-1.3-0.7-1.9-1.1s-1.2-1-1.7-1.6
			c-1.2-1.4-2.1-3-2.8-4.8c-0.6-1.9-0.9-3.7-0.9-5.7c0-2.6,0.5-5.2,1.5-7.6c0.2-0.4,0.4-0.9,0.7-1.4s0.6-0.9,1-1.4
			c0.4-0.4,0.7-0.8,1.1-1.2c0.4-0.4,0.8-0.6,1.2-0.8c0.6-0.3,1.2-0.5,1.8-0.8c0.8-0.3,1.7-0.4,2.7-0.3c1,0,1.9,0.1,2.8,0.3
			c1.2,0.3,2.2,0.8,3,1.5s1.5,1.6,2.1,2.6s1,2.1,1.4,3.3c0.3,1.2,0.6,2.4,0.7,3.6c0.1,0.8,0.1,1.6,0.1,2.4s-0.1,1.6-0.2,2.4
			c-0.1,0.7-0.2,1.5-0.4,2.2c-0.1,0.7-0.3,1.4-0.5,2.1s-0.5,1.3-0.9,1.9s-0.8,1.2-1.3,1.7c-1,0.9-2,1.7-3.1,2.2
			C629.9,379.2,628.7,379.5,627.4,379.5z M627.4,357.5c-0.4,0-0.7,0-1,0.1s-0.7,0.2-1,0.4c-0.4,0.2-0.7,0.5-0.9,0.8s-0.5,0.7-0.7,1
			c-0.5,0.9-0.9,1.9-1.1,2.9s-0.3,2.1-0.3,3.1c0,1.1,0.1,2.2,0.4,3.4c0.2,1.2,0.7,2.2,1.3,3.2c0.3,0.5,0.7,0.9,1.1,1.2
			c0.4,0.3,0.9,0.6,1.5,0.7c0.5,0.1,1,0.2,1.5,0.1c0.5,0,1-0.2,1.5-0.5c0.7-0.5,1.3-1.1,1.7-1.8c0.4-0.8,0.8-1.6,1-2.5
			s0.3-1.8,0.4-2.7c0-0.9,0-1.8,0-2.5c-0.1-0.8-0.2-1.6-0.4-2.4s-0.5-1.6-0.9-2.3c-0.4-0.7-0.9-1.2-1.6-1.7S628.3,357.5,627.4,357.5
			z"/>
	</g>
	<g style="enable-background:new    ;">
		<path style="fill:#111111;" d="M685.5,356.5c-0.3-0.3-0.5-0.8-0.5-1.4c0-0.3,0.1-0.5,0.2-0.8c0.1-0.3,0.2-0.5,0.4-0.7
			c0.6-0.5,1.1-0.8,1.8-0.9c0.6-0.1,1.3-0.1,2-0.2c0.6,0,1.1,0,1.6,0s1,0,1.6,0c0.9,0,1.8,0,2.9,0c1,0,2,0.1,3,0.1
			c0.4,0,0.8,0.1,1.1,0.2c0.4,0.1,0.7,0.2,1,0.4c0.3,0.2,0.5,0.4,0.7,0.7c0.2,0.3,0.3,0.7,0.3,1.1c0,0.5,0,1-0.2,1.4
			c-0.2,0.5-0.4,0.9-0.7,1.3s-0.6,0.8-0.9,1.2c-0.3,0.4-0.7,0.7-1,1c-0.6,0.6-1.2,1.2-1.9,1.9c-0.7,0.7-1.3,1.3-1.9,1.9
			c1,0.1,1.9,0.4,2.9,0.7c0.9,0.3,1.7,0.8,2.4,1.4s1.3,1.3,1.7,2.2c0.4,0.9,0.6,1.9,0.6,3.1s-0.2,2.3-0.7,3.4
			c-0.5,1-1.1,1.9-1.9,2.7c-0.8,0.8-1.8,1.4-3,1.8c-1.1,0.4-2.4,0.6-3.7,0.6c-0.6,0-1.2-0.1-1.9-0.2s-1.3-0.3-2-0.5
			s-1.3-0.5-1.9-0.8s-1.1-0.7-1.5-1.2c-0.3-0.3-0.6-0.7-0.8-1.1s-0.3-0.8-0.4-1.3c0-0.4,0-0.8,0.2-1.2c0.2-0.4,0.6-0.6,1.1-0.8
			c0.4-0.1,0.7-0.2,1.1-0.2c0.4,0,0.7,0.1,1,0.2s0.6,0.3,1,0.5c0.3,0.2,0.6,0.4,0.9,0.5c0.9,0.6,1.9,0.9,2.9,1s2-0.1,3-0.7
			c0.6-0.3,1-0.7,1.2-1.2c0.3-0.5,0.4-1,0.3-1.5c0-0.5-0.2-1-0.5-1.4c-0.3-0.5-0.7-0.8-1.2-1.1c-0.5-0.3-1-0.5-1.6-0.6
			s-1.2-0.2-1.7-0.3s-1.1-0.2-1.7-0.4c-0.5-0.2-1-0.5-1.4-0.9c-0.4-0.5-0.6-1-0.4-1.6c0.2-0.6,0.4-1.1,0.9-1.6
			c0.4-0.5,0.9-1,1.4-1.5s0.9-0.9,1.2-1.2c0.2-0.2,0.4-0.4,0.6-0.6c0.2-0.3,0.5-0.5,0.7-0.8s0.4-0.5,0.6-0.7
			c0.2-0.2,0.3-0.5,0.3-0.7c0.1-0.2,0-0.3-0.1-0.4c-0.2-0.1-0.3-0.1-0.6-0.2c-0.2,0-0.5,0-0.7,0c-0.3,0-0.5,0-0.6,0h-2.5
			c-0.4,0-0.7,0-1.2,0c-0.4,0-0.9,0-1.3,0c-0.4,0-0.9-0.1-1.3-0.2C686.1,357,685.7,356.8,685.5,356.5z"/>
	</g>
	<path style="fill:#111111;" d="M663.8,366.9l7.1-7.1c1-1,1-2.6,0-3.5s-2.6-1-3.5,0l-7.1,7.1l-7.1-7.1c-1-1-2.6-1-3.5,0
		s-1,2.6,0,3.5l7.1,7.1l-7.1,7.1c-1,1-1,2.6,0,3.5s2.6,1,3.5,0l7.1-7.1l7.1,7.1c1,1,2.6,1,3.5,0s1-2.6,0-3.5L663.8,366.9z"/>
</g>
<path style="fill:#DA8593;" d="M804.8,345.7c-0.8,0-1.5-0.7-1.5-1.5v-2.5c0-0.8,0.7-1.5,1.5-1.5s1.5,0.7,1.5,1.5v2.5
	C806.3,345,805.6,345.7,804.8,345.7z M804.8,337.6c-0.8,0-1.5-0.7-1.5-1.5v-2.5c0-0.8,0.7-1.5,1.5-1.5s1.5,0.7,1.5,1.5v2.5
	C806.3,336.9,805.6,337.6,804.8,337.6z M804.8,329.5c-0.8,0-1.5-0.7-1.5-1.5v-2.5c0-0.8,0.7-1.5,1.5-1.5s1.5,0.7,1.5,1.5v2.5
	C806.3,328.8,805.6,329.5,804.8,329.5z M804.8,321.5c-0.8,0-1.5-0.7-1.5-1.5v-2.5c0-0.8,0.7-1.5,1.5-1.5s1.5,0.7,1.5,1.5v2.5
	C806.3,320.9,805.6,321.5,804.8,321.5z M804.8,313.4c-0.8,0-1.5-0.7-1.5-1.5v-2.5c0-0.8,0.7-1.5,1.5-1.5s1.5,0.7,1.5,1.5v2.5
	C806.3,312.8,805.6,313.4,804.8,313.4z"/>
<g>
	<path style="fill:#FFFFFF;" d="M758.2,337.6c0,0-8.5,0-8.5,8.5v40.8c0,0,0,8.5,8.5,8.5h93.1c0,0,8.5,0,8.5-8.5v-40.8
		c0,0,0-8.5-8.5-8.5H758.2z"/>
	<path style="fill:#C83164;" d="M851.3,396.2h-93.1c-9.1,0-9.3-9.2-9.3-9.3v-40.8c0-9.1,9.2-9.3,9.3-9.3h93.1c9.1,0,9.3,9.2,9.3,9.3
		v40.8C860.6,396.1,851.4,396.2,851.3,396.2z M758.2,338.3c-0.3,0-7.8,0.1-7.8,7.8v40.8c0,0.3,0.1,7.8,7.8,7.8h93.1
		c0.3,0,7.8-0.1,7.8-7.8v-40.8c0-0.3-0.1-7.8-7.8-7.8H758.2L758.2,338.3z"/>
	<path style="fill:#111111;" d="M807,366.7l7.1-7.1c1-1,1-2.6,0-3.5s-2.6-1-3.5,0l-7.1,7.1l-7.1-7.1c-1-1-2.6-1-3.5,0s-1,2.6,0,3.5
		l7.1,7.1l-7.1,7.1c-1,1-1,2.6,0,3.5s2.6,1,3.5,0l7.1-7.1l7.1,7.1c1,1,2.6,1,3.5,0s1-2.6,0-3.5L807,366.7z"/>
	<g style="enable-background:new    ;">
		<path style="fill:#C83164;" d="M776.7,354.6c0.2,0.3,0.3,0.6,0.3,1.1c0.1,0.9,0.2,1.8,0.2,2.7c0,0.9,0,1.8,0,2.7c0,1,0,2.1,0,3.1
			s0,2,0,3.1v3.2h1.6c0.3,0,0.6,0,0.9,0.1c0.3,0.1,0.6,0.2,0.8,0.3s0.5,0.3,0.6,0.6c0.2,0.2,0.3,0.5,0.3,0.8c0,0.8-0.3,1.4-0.8,1.6
			c-0.5,0.3-1.1,0.5-1.8,0.5c-0.1,0-0.2,0-0.3,0s-0.3,0-0.5,0s-0.4,0-0.5,0s-0.3,0-0.3-0.1v2.6c0,0.3,0,0.6,0,0.9c0,0.4,0,0.7-0.1,1
			s-0.1,0.7-0.3,1c-0.1,0.3-0.3,0.5-0.6,0.7c-0.1,0.1-0.3,0.1-0.5,0.2c-0.2,0-0.4,0.1-0.6,0.1s-0.4,0-0.7,0c-0.2,0-0.4,0-0.5-0.1
			c-0.5-0.2-0.7-0.5-0.9-1s-0.2-1-0.3-1.4c0-0.1,0-0.3,0-0.7s0-0.9,0-1.3c0-0.5,0-0.9,0-1.3s-0.1-0.6-0.1-0.6h-6.7
			c-0.7,0-1.5,0-2.3,0s-1.5-0.3-2.1-0.7c-0.5-0.3-0.7-0.7-0.8-1.1s0-0.8,0.1-1.2s0.3-0.8,0.6-1.2c0.3-0.4,0.5-0.8,0.8-1.1
			c1-1.3,1.9-2.6,2.8-3.9c0.9-1.3,1.8-2.7,2.7-4c0.5-0.7,1-1.3,1.6-2c0.5-0.6,1.1-1.3,1.5-2c0.4-0.5,0.7-1.1,1.2-1.6
			c0.4-0.6,0.9-1,1.6-1.3c0.6-0.3,1.2-0.4,1.7-0.4S776.4,354.1,776.7,354.6z M772.9,361.4l-6.3,8.9h6.3V361.4z"/>
	</g>
	<g style="enable-background:new    ;">
		<path style="fill:#111111;" d="M828.7,357.9c-0.3-0.3-0.5-0.8-0.5-1.4c0-0.3,0.1-0.5,0.2-0.8c0.1-0.3,0.2-0.5,0.4-0.7
			c0.6-0.5,1.1-0.8,1.8-0.9c0.6-0.1,1.3-0.1,2-0.2c0.6,0,1.1,0,1.6,0s1,0,1.6,0c0.9,0,1.8,0,2.9,0s2,0.1,3,0.1
			c0.4,0,0.8,0.1,1.1,0.2c0.4,0.1,0.7,0.2,1,0.4s0.5,0.4,0.7,0.7c0.2,0.3,0.3,0.7,0.3,1.1c0,0.5,0,1-0.2,1.4
			c-0.2,0.5-0.4,0.9-0.7,1.3s-0.6,0.8-0.9,1.2c-0.3,0.4-0.7,0.7-1,1c-0.6,0.6-1.2,1.2-1.9,1.9c-0.7,0.7-1.3,1.3-1.9,1.9
			c1,0.1,1.9,0.4,2.9,0.7c0.9,0.3,1.7,0.8,2.4,1.4s1.3,1.3,1.7,2.2c0.4,0.9,0.6,1.9,0.6,3.1s-0.2,2.3-0.7,3.4
			c-0.5,1-1.1,1.9-1.9,2.7s-1.8,1.4-3,1.8c-1.1,0.4-2.4,0.6-3.7,0.6c-0.6,0-1.2-0.1-1.9-0.2s-1.3-0.3-2-0.5s-1.3-0.5-1.9-0.8
			c-0.6-0.3-1.1-0.7-1.5-1.2c-0.3-0.3-0.6-0.7-0.8-1.1s-0.3-0.8-0.4-1.3c0-0.4,0-0.8,0.2-1.2c0.2-0.4,0.6-0.6,1.1-0.8
			c0.4-0.1,0.7-0.2,1.1-0.2c0.4,0,0.7,0.1,1,0.2s0.6,0.3,1,0.5c0.3,0.2,0.6,0.4,0.9,0.5c0.9,0.6,1.9,0.9,2.9,1s2-0.1,3-0.7
			c0.6-0.3,1-0.7,1.2-1.2c0.3-0.5,0.4-1,0.3-1.5c0-0.5-0.2-1-0.5-1.4c-0.3-0.5-0.7-0.8-1.2-1.1c-0.5-0.3-1-0.5-1.6-0.6
			s-1.2-0.2-1.7-0.3s-1.1-0.2-1.7-0.4c-0.5-0.2-1-0.5-1.4-0.9c-0.4-0.5-0.6-1-0.4-1.6c0.2-0.6,0.4-1.1,0.9-1.6
			c0.4-0.5,0.9-1,1.4-1.5s0.9-0.9,1.2-1.2c0.2-0.2,0.4-0.4,0.6-0.6c0.2-0.3,0.5-0.5,0.7-0.8s0.4-0.5,0.6-0.7
			c0.2-0.2,0.3-0.5,0.3-0.7c0.1-0.2,0-0.3-0.1-0.4c-0.2-0.1-0.3-0.1-0.6-0.2c-0.2,0-0.5,0-0.7,0c-0.3,0-0.5,0-0.6,0h-2.5
			c-0.4,0-0.7,0-1.2,0c-0.4,0-0.9,0-1.3,0c-0.4,0-0.9-0.1-1.3-0.2C829.3,358.3,829,358.1,828.7,357.9z"/>
	</g>
</g>
<path style="fill:#111111;" d="M744.7,274.8h-9v-9c0-1.4-1.1-2.5-2.5-2.5s-2.5,1.1-2.5,2.5v9h-9c-1.4,0-2.5,1.1-2.5,2.5
	s1.1,2.5,2.5,2.5h9v9c0,1.4,1.1,2.5,2.5,2.5s2.5-1.1,2.5-2.5v-9h9c1.4,0,2.5-1.1,2.5-2.5S746.1,274.8,744.7,274.8z"/>
<path style="fill:#E9BCC1;" d="M841.7,241.5h-74.8c0,0-8.5,0-8.5,8.5v50.8c0,0,0,8.5,8.5,8.5h74.8c0,0,8.5,0,8.5-8.5V250
	C850.1,250,850.1,241.5,841.7,241.5"/>
<path style="fill:#B2D7F2;" d="M615.6,309.1h83.6c5.1,0,9.2-4.1,9.2-9.2v-49.6c0-5.1-4.1-9.2-9.2-9.2h-83.6c-5.1,0-9.2,4.1-9.2,9.2
	v49.6C606.3,305,610.5,309.1,615.6,309.1z"/>
<g style="enable-background:new    ;">
	<path style="fill:#008CCF;" d="M441.1,261.4c0.2-0.1,0.3-0.1,0.5-0.1s0.3-0.1,0.5-0.1c0.2-0.1,0.4-0.1,0.7-0.1c0.3,0,0.5,0,0.8,0
		c0.2,0,0.5,0.1,0.7,0.2s0.4,0.3,0.5,0.5c0.1,0.3,0.2,0.5,0.2,0.9c0,0.3,0.1,0.7,0.1,1c0,0.4,0,0.7,0,1s0,0.7,0,0.9v19.3
		c0,0.3,0,0.6,0,0.9s0,0.6,0,0.9s-0.1,0.6-0.2,0.9s-0.3,0.5-0.6,0.7c-0.4,0.3-0.8,0.4-1.4,0.4s-1.1-0.1-1.5-0.2
		c-0.5-0.2-0.7-0.4-0.8-0.9c-0.1-0.4-0.1-0.9-0.1-1.3c-0.2-3.3-0.3-6.6-0.2-9.8c0-3.2,0-6.5,0-9.9c-0.1,0.1-0.2,0.2-0.5,0.3
		c-0.3,0.1-0.6,0.2-1,0.3c-0.4,0.1-0.7,0.1-1,0.2s-0.5,0.1-0.6,0.1c-0.7,0.1-1.3,0-1.8-0.2s-0.9-0.7-0.9-1.5
		c-0.1-0.8,0.1-1.4,0.5-1.9c0.5-0.5,1.1-0.8,1.8-1c0.8-0.3,1.6-0.6,2.4-0.9C439.5,261.9,440.3,261.6,441.1,261.4z"/>
</g>
<g style="enable-background:new    ;">
	<path style="fill:#C83164;" d="M470,262.3c0.2,0.3,0.3,0.6,0.3,1.1c0.1,0.9,0.2,1.8,0.2,2.7c0,0.9,0,1.8,0,2.7c0,1,0,2.1,0,3.1
		s0,2,0,3.1v3.2h1.6c0.3,0,0.6,0,0.9,0.1s0.6,0.2,0.8,0.3c0.3,0.2,0.5,0.3,0.6,0.6c0.2,0.2,0.3,0.5,0.3,0.8c0,0.8-0.3,1.4-0.8,1.6
		c-0.5,0.3-1.1,0.5-1.8,0.5c-0.1,0-0.2,0-0.3,0s-0.3,0-0.5,0s-0.4,0-0.5,0c-0.2,0-0.3,0-0.3-0.1v2.6c0,0.3,0,0.6,0,0.9
		c0,0.4,0,0.7-0.1,1s-0.1,0.7-0.3,1c-0.1,0.3-0.3,0.5-0.6,0.7c-0.1,0.1-0.3,0.1-0.5,0.2c-0.2,0-0.4,0.1-0.6,0.1s-0.4,0-0.7,0
		s-0.4,0-0.5-0.1c-0.5-0.2-0.7-0.5-0.9-1c-0.1-0.5-0.2-1-0.3-1.4c0-0.1,0-0.3,0-0.7s0-0.9,0-1.3c0-0.5,0-0.9,0-1.3s-0.1-0.6-0.1-0.6
		h-6.7c-0.7,0-1.5,0-2.3,0s-1.5-0.3-2.1-0.7c-0.5-0.3-0.7-0.7-0.8-1.1s0-0.8,0.1-1.2c0.1-0.4,0.3-0.8,0.6-1.2
		c0.3-0.4,0.5-0.8,0.8-1.1c1-1.3,1.9-2.6,2.8-3.9s1.8-2.7,2.7-4c0.5-0.7,1-1.3,1.6-2c0.5-0.6,1.1-1.3,1.5-2c0.4-0.5,0.7-1.1,1.2-1.6
		c0.4-0.6,0.9-1,1.6-1.3c0.6-0.3,1.2-0.4,1.7-0.4C469.3,261.6,469.7,261.8,470,262.3z M466.3,269.1L460,278h6.3V269.1z"/>
</g>
<g style="enable-background:new    ;">
	<path style="fill:#111111;" d="M522,265.6c-0.3-0.3-0.5-0.8-0.5-1.4c0-0.3,0.1-0.5,0.2-0.8c0.1-0.3,0.2-0.5,0.4-0.7
		c0.6-0.5,1.1-0.8,1.8-0.9c0.6-0.1,1.3-0.1,2-0.2c0.6,0,1.1,0,1.6,0s1,0,1.6,0c0.9,0,1.8,0,2.9,0c1,0,2,0.1,3,0.1
		c0.4,0,0.8,0.1,1.1,0.2c0.4,0.1,0.7,0.2,1,0.4c0.3,0.2,0.5,0.4,0.7,0.7c0.2,0.3,0.3,0.7,0.3,1.1c0,0.5,0,1-0.2,1.4
		c-0.2,0.5-0.4,0.9-0.7,1.3c-0.3,0.4-0.6,0.8-0.9,1.2c-0.3,0.4-0.7,0.7-1,1c-0.6,0.6-1.2,1.2-1.9,1.9c-0.7,0.7-1.3,1.3-1.9,1.9
		c1,0.1,1.9,0.4,2.9,0.7c0.9,0.3,1.7,0.8,2.4,1.4s1.3,1.3,1.7,2.2c0.4,0.9,0.6,1.9,0.6,3.1s-0.2,2.3-0.7,3.4c-0.5,1-1.1,1.9-1.9,2.7
		c-0.8,0.8-1.8,1.4-3,1.8c-1.1,0.4-2.4,0.6-3.7,0.6c-0.6,0-1.2-0.1-1.9-0.2s-1.3-0.3-2-0.5s-1.3-0.5-1.9-0.8
		c-0.6-0.3-1.1-0.7-1.5-1.2c-0.3-0.3-0.6-0.7-0.8-1.1c-0.2-0.4-0.3-0.8-0.4-1.3c0-0.4,0-0.8,0.2-1.2c0.2-0.4,0.6-0.6,1.1-0.8
		c0.4-0.1,0.7-0.2,1.1-0.2c0.4,0,0.7,0.1,1,0.2s0.6,0.3,1,0.5c0.3,0.2,0.6,0.4,0.9,0.5c0.9,0.6,1.9,0.9,2.9,1s2-0.1,3-0.7
		c0.6-0.3,1-0.7,1.2-1.2c0.3-0.5,0.4-1,0.3-1.5c0-0.5-0.2-1-0.5-1.4s-0.7-0.8-1.2-1.1c-0.5-0.3-1-0.5-1.6-0.6
		c-0.6-0.1-1.2-0.2-1.7-0.3s-1.1-0.2-1.7-0.4c-0.5-0.2-1-0.5-1.4-0.9c-0.4-0.5-0.6-1-0.4-1.6s0.4-1.1,0.9-1.6c0.4-0.5,0.9-1,1.4-1.5
		s0.9-0.9,1.2-1.2c0.2-0.2,0.4-0.4,0.6-0.6c0.2-0.3,0.5-0.5,0.7-0.8s0.4-0.5,0.6-0.7s0.3-0.5,0.3-0.7c0.1-0.2,0-0.3-0.1-0.4
		c-0.2-0.1-0.3-0.1-0.6-0.2c-0.2,0-0.5,0-0.7,0c-0.3,0-0.5,0-0.6,0h-2.5c-0.4,0-0.7,0-1.2,0c-0.4,0-0.9,0-1.3,0
		c-0.4,0-0.9-0.1-1.3-0.2C522.7,266,522.3,265.8,522,265.6z"/>
</g>
<path style="fill:#111111;" d="M500.3,275.9l7.1-7.1c1-1,1-2.6,0-3.5s-2.6-1-3.5,0l-7.1,7.1l-7.1-7.1c-1-1-2.6-1-3.5,0s-1,2.6,0,3.5
	l7.1,7.1l-7.1,7.1c-1,1-1,2.6,0,3.5s2.6,1,3.5,0l7.1-7.1l7.1,7.1c1,1,2.6,1,3.5,0s1-2.6,0-3.5L500.3,275.9z"/>
</svg>
