<?xml version="1.0" encoding="utf-8"?>
<!-- Generator: Adobe Illustrator 23.0.0, SVG Export Plug-In . SVG Version: 6.00 Build 0)  -->
<svg version="1.1" id="Layer_1" xmlns="http://www.w3.org/2000/svg" xmlns:xlink="http://www.w3.org/1999/xlink" x="0px" y="0px"
	 width="922px" height="528px" viewBox="0 0 922 528" style="enable-background:new 0 0 922 528;" xml:space="preserve">
<g>
	<rect x="64.4" y="227.8" style="fill:#C1DEF4;" width="7.5" height="74.5"/>
	<polygon style="fill:#A3D1F0;" points="71.8,302.3 75.3,298.9 75.3,224.4 71.8,227.8 	"/>
	<polygon style="fill:#DEECF8;" points="71.8,227.8 75.3,224.3 67.8,224.3 64.4,227.8 	"/>
	<path style="fill:#008CCF;" d="M71.8,302.7h-7.5c-0.2,0-0.4-0.2-0.4-0.4v-74.5c0-0.1,0-0.2,0.1-0.3l3.4-3.5
		c0.1-0.1,0.2-0.1,0.3-0.1l0,0h7.5c0.2,0,0.4,0.2,0.4,0.4v74.5c0,0.1,0,0.2-0.1,0.3l-3.4,3.5C72,302.7,71.9,302.7,71.8,302.7z
		 M64.8,301.9h6.7v-6.7h-6.7V301.9z M72.2,295v6.3l2.6-2.7v-6.3L72.2,295z M64.8,294.5h6.7v-6.7h-6.7V294.5z M72.2,287.6v6.3
		l2.6-2.7v-6.3L72.2,287.6z M64.8,287h6.7v-6.7h-6.7V287z M72.2,280.1v6.3l2.6-2.7v-6.3L72.2,280.1z M64.8,279.6h6.7v-6.7h-6.7
		V279.6z M72.2,272.7v6.3l2.6-2.7V270L72.2,272.7z M64.8,272.1h6.7v-6.7h-6.7V272.1z M72.2,265.2v6.3l2.6-2.7v-6.3L72.2,265.2z
		 M64.8,264.7h6.7V258h-6.7V264.7z M72.2,257.8v6.3l2.6-2.7v-6.3L72.2,257.8z M64.8,257.2h6.7v-6.7h-6.7V257.2z M72.2,250.3v6.3
		l2.6-2.7v-6.3L72.2,250.3z M64.8,249.8h6.7v-6.7h-6.7V249.8z M72.2,242.9v6.3l2.6-2.7v-6.3L72.2,242.9z M64.8,242.3h6.7v-6.7h-6.7
		V242.3z M72.2,235.4v6.3l2.6-2.7v-6.3L72.2,235.4z M64.8,234.9h6.7v-6.7h-6.7V234.9z M72.2,228v6.3l2.6-2.7v-6.3L72.2,228z
		 M65.3,227.4h6.3l2.7-2.7H68L65.3,227.4z"/>
</g>
<g>
	<rect x="184.6" y="228.7" style="fill:#E9BDC2;" width="7.5" height="7.4"/>
	<polygon style="fill:#E19FA9;" points="192,236.1 195.5,232.6 195.5,225.2 192,228.7 	"/>
	<polygon style="fill:#F2DBDC;" points="192,228.7 195.5,225.2 188,225.2 184.6,228.7 	"/>
	<path style="fill:#C83164;" d="M192,236.5L192,236.5h-7.5c-0.2,0-0.4-0.2-0.4-0.4v-7.4l0,0l0,0l0,0c0-0.1,0-0.1,0.1-0.2l0,0l0,0
		l0,0l0,0l3.4-3.5c0.1-0.1,0.2-0.1,0.3-0.1h7.4c0,0,0.1,0,0.2,0c0.1,0,0.1,0.1,0.1,0.1l0,0l0,0l0,0l0,0c0,0,0,0.1,0.1,0.1l0,0l0,0
		l0,0l0,0v0.1l0,0l0,0l0,0l0,0v0.1v7.4c0,0.1,0,0.2-0.1,0.3l-3.4,3.4l0,0C192.2,236.4,192.1,236.5,192,236.5L192,236.5L192,236.5z
		 M185,235.7h6.7v-6.6H185V235.7z M192.4,228.8v6.3l2.6-2.7v-6.3L192.4,228.8z M185.5,228.3h6.3l2.6-2.7h-6.3L185.5,228.3z"/>
	<g>
		<polygon style="fill:#E19FA9;" points="207.9,236.1 211.3,232.6 211.3,225.2 207.9,228.7 		"/>
		<rect x="200.4" y="228.7" style="fill:#E9BDC2;" width="7.5" height="7.4"/>
		<polygon style="fill:#F2DBDC;" points="207.9,228.7 211.3,225.2 203.9,225.2 200.4,228.7 		"/>
		<path style="fill:#C83164;" d="M207.9,236.5L207.9,236.5h-7.5c-0.2,0-0.4-0.2-0.4-0.4v-7.4l0,0c0-0.1,0-0.2,0.1-0.2l0,0l0,0l0,0
			l0,0l0,0l0,0l0,0l0,0l0,0l3.4-3.5c0.1-0.1,0.2-0.1,0.3-0.1h7.5c0,0,0,0,0.1,0l0,0l0,0l0,0l0,0h0.1l0,0l0,0l0,0l0,0
			c0,0,0.1,0,0.1,0.1l0,0l0,0l0,0l0,0l0.1,0.1l0,0l0,0v0.1l0,0l0,0l0,0l0,0l0,0v0.1v7.4c0,0.1,0,0.2-0.1,0.3l-3.4,3.4l0,0l0,0l0,0
			C208,236.4,208,236.5,207.9,236.5L207.9,236.5z M200.8,235.7h6.7v-6.6h-6.7V235.7z M208.3,228.8v6.3l2.6-2.7v-6.3L208.3,228.8z
			 M201.4,228.3h6.3l2.6-2.7H204L201.4,228.3z"/>
	</g>
</g>
<g>
	<rect x="184.6" y="245.1" style="fill:#E9BDC2;" width="7.5" height="7.4"/>
	<polygon style="fill:#E19FA9;" points="192,252.5 195.5,249 195.5,241.6 192,245.1 	"/>
	<polygon style="fill:#F2DBDC;" points="192,245.1 195.5,241.6 188,241.6 184.6,245.1 	"/>
	<path style="fill:#C83164;" d="M192,252.9L192,252.9h-7.5c-0.2,0-0.4-0.2-0.4-0.4v-7.4l0,0l0,0l0,0c0-0.1,0-0.1,0.1-0.2l0,0l0,0
		l0,0l0,0l3.4-3.5c0.1-0.1,0.2-0.1,0.3-0.1h7.4c0,0,0.1,0,0.2,0c0.1,0,0.1,0.1,0.1,0.1l0,0l0,0l0,0l0,0c0,0,0,0.1,0.1,0.1l0,0l0,0
		l0,0l0,0v0.1l0,0l0,0l0,0l0,0v0.1v7.4c0,0.1,0,0.2-0.1,0.3l-3.4,3.4l0,0C192.2,252.8,192.1,252.9,192,252.9L192,252.9L192,252.9z
		 M185,252.1h6.7v-6.6H185V252.1z M192.4,245.2v6.3l2.6-2.7v-6.3L192.4,245.2z M185.5,244.7h6.3l2.6-2.7h-6.3L185.5,244.7z"/>
	<g>
		<polygon style="fill:#E19FA9;" points="207.9,252.5 211.3,249 211.3,241.6 207.9,245.1 		"/>
		<rect x="200.4" y="245.1" style="fill:#E9BDC2;" width="7.5" height="7.4"/>
		<polygon style="fill:#F2DBDC;" points="207.9,245.1 211.3,241.6 203.9,241.6 200.4,245.1 		"/>
		<path style="fill:#C83164;" d="M207.9,252.9L207.9,252.9h-7.5c-0.2,0-0.4-0.2-0.4-0.4v-7.4l0,0c0-0.1,0-0.2,0.1-0.2l0,0l0,0l0,0
			l0,0l0,0l0,0l0,0l0,0l0,0l3.4-3.5c0.1-0.1,0.2-0.1,0.3-0.1h7.5c0,0,0,0,0.1,0l0,0l0,0l0,0l0,0h0.1l0,0l0,0l0,0l0,0
			c0,0,0.1,0,0.1,0.1l0,0l0,0l0,0l0,0l0.1,0.1l0,0l0,0v0.1l0,0l0,0l0,0l0,0l0,0v0.1v7.4c0,0.1,0,0.2-0.1,0.3l-3.4,3.4l0,0l0,0l0,0
			C208,252.8,208,252.9,207.9,252.9L207.9,252.9z M200.8,252.1h6.7v-6.6h-6.7V252.1z M208.3,245.2v6.3l2.6-2.7v-6.3L208.3,245.2z
			 M201.4,244.7h6.3l2.6-2.7H204L201.4,244.7z"/>
	</g>
</g>
<g>
	<rect x="184.6" y="261.6" style="fill:#E9BDC2;" width="7.5" height="7.4"/>
	<polygon style="fill:#E19FA9;" points="192,269 195.5,265.5 195.5,258.1 192,261.6 	"/>
	<polygon style="fill:#F2DBDC;" points="192,261.6 195.5,258.1 188,258.1 184.6,261.6 	"/>
	<path style="fill:#C83164;" d="M192,269.4L192,269.4h-7.5c-0.2,0-0.4-0.2-0.4-0.4v-7.4l0,0l0,0l0,0c0-0.1,0-0.1,0.1-0.2l0,0l0,0
		l0,0l0,0l3.4-3.5c0.1-0.1,0.2-0.1,0.3-0.1h7.4c0,0,0.1,0,0.2,0c0.1,0,0.1,0.1,0.1,0.1l0,0l0,0l0,0l0,0c0,0,0,0.1,0.1,0.1l0,0l0,0
		l0,0l0,0v0.1l0,0l0,0l0,0l0,0v0.1v7.4c0,0.1,0,0.2-0.1,0.3l-3.4,3.4l0,0C192.2,269.3,192.1,269.4,192,269.4L192,269.4L192,269.4z
		 M185,268.6h6.7V262H185V268.6z M192.4,261.6v6.3l2.6-2.7v-6.3L192.4,261.6z M185.5,261.1h6.3l2.6-2.7h-6.3L185.5,261.1z"/>
	<g>
		<polygon style="fill:#E19FA9;" points="207.9,269 211.3,265.5 211.3,258.1 207.9,261.6 		"/>
		<rect x="200.4" y="261.6" style="fill:#E9BDC2;" width="7.5" height="7.4"/>
		<polygon style="fill:#F2DBDC;" points="207.9,261.6 211.3,258.1 203.9,258.1 200.4,261.6 		"/>
		<path style="fill:#C83164;" d="M207.9,269.4L207.9,269.4h-7.5c-0.2,0-0.4-0.2-0.4-0.4v-7.4l0,0c0-0.1,0-0.2,0.1-0.2l0,0l0,0l0,0
			l0,0l0,0l0,0l0,0l0,0l0,0l3.4-3.5c0.1-0.1,0.2-0.1,0.3-0.1h7.5c0,0,0,0,0.1,0l0,0l0,0l0,0l0,0h0.1l0,0l0,0l0,0l0,0
			c0,0,0.1,0,0.1,0.1l0,0l0,0l0,0l0,0l0.1,0.1l0,0l0,0v0.1l0,0l0,0l0,0l0,0l0,0v0.1v7.4c0,0.1,0,0.2-0.1,0.3l-3.4,3.4l0,0l0,0l0,0
			C208,269.3,208,269.4,207.9,269.4L207.9,269.4z M200.8,268.6h6.7V262h-6.7V268.6z M208.3,261.6v6.3l2.6-2.7v-6.3L208.3,261.6z
			 M201.4,261.1h6.3l2.6-2.7H204L201.4,261.1z"/>
	</g>
</g>
<g>
	<rect x="184.6" y="278" style="fill:#E9BDC2;" width="7.5" height="7.4"/>
	<polygon style="fill:#E19FA9;" points="192,285.4 195.5,281.9 195.5,274.5 192,278 	"/>
	<polygon style="fill:#F2DBDC;" points="192,278 195.5,274.5 188,274.5 184.6,278 	"/>
	<path style="fill:#C83164;" d="M192,285.8L192,285.8h-7.5c-0.2,0-0.4-0.2-0.4-0.4V278l0,0l0,0l0,0c0-0.1,0-0.1,0.1-0.2l0,0l0,0l0,0
		l0,0l3.4-3.5c0.1-0.1,0.2-0.1,0.3-0.1h7.4c0,0,0.1,0,0.2,0c0.1,0,0.1,0.1,0.1,0.1l0,0l0,0l0,0l0,0c0,0,0,0.1,0.1,0.1l0,0l0,0l0,0
		l0,0v0.1l0,0l0,0l0,0l0,0v0.1v7.4c0,0.1,0,0.2-0.1,0.3l-3.4,3.4l0,0C192.2,285.7,192.1,285.8,192,285.8L192,285.8L192,285.8z
		 M185,285h6.7v-6.6H185V285z M192.4,278.1v6.3l2.6-2.7v-6.3L192.4,278.1z M185.5,277.6h6.3l2.6-2.7h-6.3L185.5,277.6z"/>
	<g>
		<polygon style="fill:#E19FA9;" points="207.9,285.4 211.3,281.9 211.3,274.5 207.9,278 		"/>
		<rect x="200.4" y="278" style="fill:#E9BDC2;" width="7.5" height="7.4"/>
		<polygon style="fill:#F2DBDC;" points="207.9,278 211.3,274.5 203.9,274.5 200.4,278 		"/>
		<path style="fill:#C83164;" d="M207.9,285.8L207.9,285.8h-7.5c-0.2,0-0.4-0.2-0.4-0.4V278l0,0c0-0.1,0-0.2,0.1-0.2l0,0l0,0l0,0
			l0,0l0,0l0,0l0,0l0,0l0,0l3.4-3.5c0.1-0.1,0.2-0.1,0.3-0.1h7.5c0,0,0,0,0.1,0l0,0l0,0l0,0l0,0h0.1l0,0l0,0l0,0l0,0
			c0,0,0.1,0,0.1,0.1l0,0l0,0l0,0l0,0l0.1,0.1l0,0l0,0v0.1l0,0l0,0l0,0l0,0l0,0v0.1v7.4c0,0.1,0,0.2-0.1,0.3l-3.4,3.4l0,0l0,0l0,0
			C208,285.7,208,285.8,207.9,285.8L207.9,285.8z M200.8,285h6.7v-6.6h-6.7V285z M208.3,278.1v6.3l2.6-2.7v-6.3L208.3,278.1z
			 M201.4,277.6h6.3l2.6-2.7H204L201.4,277.6z"/>
	</g>
</g>
<g>
	<rect x="184.6" y="294.4" style="fill:#E9BDC2;" width="7.5" height="7.4"/>
	<polygon style="fill:#E19FA9;" points="192,301.8 195.5,298.3 195.5,290.9 192,294.4 	"/>
	<polygon style="fill:#F2DBDC;" points="192,294.4 195.5,290.9 188,290.9 184.6,294.4 	"/>
	<path style="fill:#C83164;" d="M192,302.2L192,302.2h-7.5c-0.2,0-0.4-0.2-0.4-0.4v-7.4l0,0l0,0l0,0c0-0.1,0-0.1,0.1-0.2l0,0l0,0
		l0,0l0,0l3.4-3.5c0.1-0.1,0.2-0.1,0.3-0.1h7.4c0,0,0.1,0,0.2,0c0.1,0,0.1,0.1,0.1,0.1l0,0l0,0l0,0l0,0c0,0,0,0.1,0.1,0.1l0,0l0,0
		l0,0l0,0v0.1l0,0l0,0l0,0l0,0v0.1v7.4c0,0.1,0,0.2-0.1,0.3l-3.4,3.4l0,0C192.2,302.1,192.1,302.2,192,302.2L192,302.2L192,302.2z
		 M185,301.4h6.7v-6.6H185V301.4z M192.4,294.5v6.3l2.6-2.7v-6.3L192.4,294.5z M185.5,294h6.3l2.6-2.7h-6.3L185.5,294z"/>
	<g>
		<polygon style="fill:#E19FA9;" points="207.9,301.8 211.3,298.3 211.3,290.9 207.9,294.4 		"/>
		<rect x="200.4" y="294.4" style="fill:#E9BDC2;" width="7.5" height="7.4"/>
		<polygon style="fill:#F2DBDC;" points="207.9,294.4 211.3,290.9 203.9,290.9 200.4,294.4 		"/>
		<path style="fill:#C83164;" d="M207.9,302.2L207.9,302.2h-7.5c-0.2,0-0.4-0.2-0.4-0.4v-7.4l0,0c0-0.1,0-0.2,0.1-0.2l0,0l0,0l0,0
			l0,0l0,0l0,0l0,0l0,0l0,0l3.4-3.5c0.1-0.1,0.2-0.1,0.3-0.1h7.5c0,0,0,0,0.1,0l0,0l0,0l0,0l0,0h0.1l0,0l0,0l0,0l0,0
			c0,0,0.1,0,0.1,0.1l0,0l0,0l0,0l0,0l0.1,0.1l0,0l0,0v0.1l0,0l0,0l0,0l0,0l0,0v0.1v7.4c0,0.1,0,0.2-0.1,0.3l-3.4,3.4l0,0l0,0l0,0
			C208,302.1,208,302.2,207.9,302.2L207.9,302.2z M200.8,301.4h6.7v-6.6h-6.7V301.4z M208.3,294.5v6.3l2.6-2.7v-6.3L208.3,294.5z
			 M201.4,294h6.3l2.6-2.7H204L201.4,294z"/>
	</g>
</g>
<g>
	<rect x="225.5" y="271.8" style="fill:#E9BDC2;" width="7.5" height="7.4"/>
	<polygon style="fill:#E19FA9;" points="232.9,279.2 236.4,275.7 236.4,268.3 232.9,271.8 	"/>
	<polygon style="fill:#F2DBDC;" points="232.9,271.8 236.4,268.3 228.9,268.3 225.5,271.8 	"/>
	<path style="fill:#C83164;" d="M232.9,279.6L232.9,279.6h-7.5c-0.2,0-0.4-0.2-0.4-0.4v-7.4l0,0l0,0l0,0c0-0.1,0-0.1,0.1-0.2l0,0
		l0,0l0,0l0,0l3.4-3.5c0.1-0.1,0.2-0.1,0.3-0.1h7.4c0,0,0.1,0,0.2,0s0.1,0.1,0.1,0.1l0,0l0,0l0,0l0,0c0,0,0,0.1,0.1,0.1l0,0l0,0l0,0
		l0,0v0.1l0,0l0,0l0,0l0,0v0.1v7.4c0,0.1,0,0.2-0.1,0.3l-3.4,3.4l0,0C233.1,279.5,233,279.6,232.9,279.6L232.9,279.6L232.9,279.6z
		 M225.9,278.8h6.7v-6.6h-6.7V278.8z M233.3,271.9v6.3l2.6-2.7v-6.3L233.3,271.9z M226.4,271.4h6.3l2.6-2.7H229L226.4,271.4z"/>
</g>
<g>
	<rect x="225.5" y="293.4" style="fill:#E9BDC2;" width="7.5" height="7.4"/>
	<polygon style="fill:#E19FA9;" points="232.9,300.8 236.4,297.3 236.4,289.9 232.9,293.4 	"/>
	<polygon style="fill:#F2DBDC;" points="232.9,293.4 236.4,289.9 228.9,289.9 225.5,293.4 	"/>
	<path style="fill:#C83164;" d="M232.9,301.2L232.9,301.2h-7.5c-0.2,0-0.4-0.2-0.4-0.4v-7.4l0,0l0,0l0,0c0-0.1,0-0.1,0.1-0.2l0,0
		l0,0l0,0l0,0l3.4-3.5c0.1-0.1,0.2-0.1,0.3-0.1h7.4c0,0,0.1,0,0.2,0s0.1,0.1,0.1,0.1l0,0l0,0l0,0l0,0c0,0,0,0.1,0.1,0.1l0,0l0,0l0,0
		l0,0v0.1l0,0l0,0l0,0l0,0v0.1v7.4c0,0.1,0,0.2-0.1,0.3l-3.4,3.4l0,0C233.1,301.1,233,301.2,232.9,301.2L232.9,301.2L232.9,301.2z
		 M225.9,300.4h6.7v-6.6h-6.7V300.4z M233.3,293.5v6.3l2.6-2.7v-6.3L233.3,293.5z M226.4,293h6.3l2.6-2.7H229L226.4,293z"/>
</g>
<path style="fill:none;stroke:#C83164;stroke-miterlimit:10;" d="M81.3,300.3c0,3.3-1.7,6.3-5,6.3H64.7c-3.2,0-6.4-3-6.4-6.3v-74
	c0-3.3,3.1-5.7,6.4-5.7h11.6c3.2,0,5,2.4,5,5.7V300.3z"/>
<path style="fill:#C83164;" d="M171.8,270.1H94.4c-0.2,0-0.6-0.2-0.6-0.7v-3.7c0-0.9-1.1-1.4-1.7-0.7l-2.3,2.5l-3.4,3.5
	c-0.4,0.5-0.4,1.2,0,1.6l3.4,3.5l2.3,2.5c0.7,0.7,1.7,0.2,1.7-0.7v-3.5c0-0.6,1-0.3,1-0.3l-0.4,0.1h77.4c1.1,0,2-0.9,2-2
	C173.8,271,172.9,270.1,171.8,270.1z"/>
<path style="fill:none;stroke:#C83164;stroke-miterlimit:10;stroke-dasharray:4,2;" d="M216.3,300.3c0,3.3-1.7,6.3-5,6.3h-26.6
	c-3.2,0-6.4-3-6.4-6.3v-74c0-3.3,3.1-5.7,6.4-5.7h26.6c3.2,0,5,2.4,5,5.7V300.3z"/>
<path style="fill:#C8245B;" d="M130.4,244.7c0-0.5,0.2-1,0.5-1.4c0.4-0.4,0.8-0.6,1.5-0.7h0c0.5,0,1.1,0,1.6-0.2
	c0.5-0.1,1-0.3,1.4-0.6c0.3-0.2,0.5-0.6,0.6-1.1c0.1-0.5,0.2-0.9,0.4-1.3c0.1-0.5,0.3-0.9,0.5-1.2c0.2-0.3,0.7-0.5,1.4-0.5
	c0.4,0,0.8,0.2,1.3,0.5c0.5,0.4,0.7,0.8,0.7,1.2c0,3.9,0,7.7,0,11.4c0,3.8,0,7.6,0,11.4v1.6c0,0.3-0.1,0.5-0.2,0.8
	c-0.2,0.2-0.4,0.5-0.7,0.7c-0.2,0.2-0.5,0.3-0.7,0.4c-0.2,0.1-0.5,0.2-0.7,0.2c-0.6,0-1.2-0.2-1.6-0.6c-0.5-0.4-0.7-0.8-0.7-1.4
	v-8.6c0-2.8,0-5.7,0-8.6h-3.6c-0.6,0-1.1-0.2-1.4-0.7C130.6,245.7,130.4,245.3,130.4,244.7"/>
<path style="fill:#C8245B;" d="M249,297.5c-0.7,0-1.3-0.2-1.8-0.5c-0.5-0.3-0.8-0.9-0.8-1.7c0,0,0-0.2,0-0.4v-0.2
	c0-0.1,0-0.3,0.1-0.5c0-0.2,0.1-0.3,0.1-0.4c0.1-0.9,0.3-1.8,0.5-2.5c0.2-0.7,0.6-1.4,1.1-2.1c0.4-0.6,0.9-1.3,1.6-2
	c0.7-0.6,1.5-1.3,2.4-2.1c0.7-0.5,1.3-1,2-1.5c0.7-0.5,1.3-1,2-1.5c0.3-0.2,0.6-0.5,1-0.9c0.4-0.3,0.7-0.8,0.9-1.2
	c0.2-0.4,0.5-0.9,0.7-1.4c0.2-0.5,0.3-0.9,0.3-1.3c0-0.5-0.1-1-0.3-1.5c-0.2-0.5-0.5-0.9-0.9-1.3c-0.4-0.4-0.8-0.7-1.3-1
	c-0.5-0.2-1.2-0.3-1.9-0.3c-0.5,0-1,0.1-1.5,0.3c-0.5,0.2-1,0.5-1.4,0.7c-0.3,0.3-0.6,0.6-0.8,1c-0.2,0.4-0.4,0.7-0.4,1
	c0,0.8-0.3,1.4-0.7,1.8c-0.5,0.5-1.2,0.7-1.9,0.7c-0.5,0-0.9-0.2-1.3-0.5c-0.4-0.3-0.6-0.7-0.6-1.3c0-0.9,0.2-1.8,0.6-2.8
	c0.4-0.9,1-1.8,1.7-2.6c0.8-0.8,1.7-1.4,2.7-2c1-0.5,2.1-0.7,3.4-0.7h0.1c1.2,0,2.4,0.3,3.5,0.7c1,0.5,2,1.1,2.8,1.9
	c0.7,0.8,1.3,1.7,1.8,2.7c0.4,1,0.6,2,0.6,3c0,1.2-0.1,2.2-0.4,3c-0.3,0.9-0.7,1.6-1.2,2.3c-0.5,0.7-1,1.4-1.6,2
	c-0.7,0.6-1.4,1.2-2.2,1.7c-0.5,0.4-1.1,0.9-1.9,1.3c-0.8,0.5-1.6,1.1-2.2,1.6c-0.7,0.6-1.4,1.3-1.8,2c-0.5,0.7-0.7,1.5-0.7,2.3
	h10.1c0.9,0,1.5,0.1,1.9,0.4c0.4,0.3,0.6,0.7,0.6,1.4c0,1.5-0.8,2.2-2.3,2.2H249z"/>
</svg>
