<?xml version="1.0" encoding="utf-8"?>
<!-- Generator: Adobe Illustrator 23.0.0, SVG Export Plug-In . SVG Version: 6.00 Build 0)  -->
<svg version="1.1" id="Layer_1" xmlns="http://www.w3.org/2000/svg" xmlns:xlink="http://www.w3.org/1999/xlink" x="0px" y="0px"
	 width="922px" height="528px" viewBox="0 0 922 528" style="enable-background:new 0 0 922 528;" xml:space="preserve">
<g>
	<g>
		<rect x="63.8" y="324.6" style="fill:#C1DEF4;" width="7.5" height="74.5"/>
		<polygon style="fill:#A3D1F0;" points="71.2,399.1 74.7,395.7 74.7,321.2 71.2,324.6 		"/>
		<polygon style="fill:#DEECF8;" points="71.2,324.6 74.7,321.1 67.2,321.1 63.8,324.6 		"/>
		<path style="fill:#008CCF;" d="M71.2,399.5h-7.5c-0.2,0-0.4-0.2-0.4-0.4v-74.5c0-0.1,0-0.2,0.1-0.3l3.4-3.5
			c0.1-0.1,0.2-0.1,0.3-0.1l0,0h7.5c0.2,0,0.4,0.2,0.4,0.4v74.5c0,0.1,0,0.2-0.1,0.3l-3.4,3.5C71.4,399.5,71.3,399.5,71.2,399.5z
			 M64.2,398.7h6.7V392h-6.7V398.7z M71.7,391.8v6.3l2.6-2.7v-6.3L71.7,391.8z M64.2,391.3h6.7v-6.7h-6.7V391.3z M71.7,384.4v6.3
			l2.6-2.7v-6.3L71.7,384.4z M64.2,383.8h6.7v-6.7h-6.7V383.8z M71.7,376.9v6.3l2.6-2.7v-6.3L71.7,376.9z M64.2,376.4h6.7v-6.7h-6.7
			V376.4z M71.7,369.5v6.3l2.6-2.7v-6.3L71.7,369.5z M64.2,368.9h6.7v-6.7h-6.7V368.9z M71.7,362v6.3l2.6-2.7v-6.3L71.7,362z
			 M64.2,361.5h6.7v-6.7h-6.7V361.5z M71.7,354.6v6.3l2.6-2.7v-6.3L71.7,354.6z M64.2,354h6.7v-6.7h-6.7V354z M71.7,347.1v6.3
			l2.6-2.7v-6.3L71.7,347.1z M64.2,346.6h6.7v-6.7h-6.7V346.6z M71.7,339.7v6.3l2.6-2.7V337L71.7,339.7z M64.2,339.1h6.7v-6.7h-6.7
			V339.1z M71.7,332.2v6.3l2.6-2.7v-6.3L71.7,332.2z M64.2,331.7h6.7V325h-6.7V331.7z M71.7,324.8v6.3l2.6-2.7v-6.3L71.7,324.8z
			 M64.7,324.2H71l2.7-2.7h-6.3L64.7,324.2z"/>
	</g>
	<g>
		<rect x="102.4" y="324.6" style="fill:#C1DEF4;" width="7.5" height="74.5"/>
		<polygon style="fill:#A3D1F0;" points="109.8,399.1 113.3,395.7 113.3,321.2 109.8,324.6 		"/>
		<polygon style="fill:#DEECF8;" points="109.8,324.6 113.3,321.1 105.8,321.1 102.4,324.6 		"/>
		<path style="fill:#008CCF;" d="M109.8,399.5h-7.5c-0.2,0-0.4-0.2-0.4-0.4v-74.5c0-0.1,0-0.2,0.1-0.3l3.4-3.5
			c0.1-0.1,0.2-0.1,0.3-0.1l0,0h7.5c0.2,0,0.4,0.2,0.4,0.4v74.5c0,0.1,0,0.2-0.1,0.3l-3.4,3.5C110,399.5,109.9,399.5,109.8,399.5z
			 M102.8,398.7h6.7V392h-6.7V398.7z M110.2,391.8v6.3l2.6-2.7v-6.3L110.2,391.8z M102.8,391.3h6.7v-6.7h-6.7V391.3z M110.2,384.4
			v6.3l2.6-2.7v-6.3L110.2,384.4z M102.8,383.8h6.7v-6.7h-6.7V383.8z M110.2,376.9v6.3l2.6-2.7v-6.3L110.2,376.9z M102.8,376.4h6.7
			v-6.7h-6.7V376.4z M110.2,369.5v6.3l2.6-2.7v-6.3L110.2,369.5z M102.8,368.9h6.7v-6.7h-6.7V368.9z M110.2,362v6.3l2.6-2.7v-6.3
			L110.2,362z M102.8,361.5h6.7v-6.7h-6.7V361.5z M110.2,354.6v6.3l2.6-2.7v-6.3L110.2,354.6z M102.8,354h6.7v-6.7h-6.7V354z
			 M110.2,347.1v6.3l2.6-2.7v-6.3L110.2,347.1z M102.8,346.6h6.7v-6.7h-6.7V346.6z M110.2,339.7v6.3l2.6-2.7V337L110.2,339.7z
			 M102.8,339.1h6.7v-6.7h-6.7V339.1z M110.2,332.2v6.3l2.6-2.7v-6.3L110.2,332.2z M102.8,331.7h6.7V325h-6.7V331.7z M110.2,324.8
			v6.3l2.6-2.7v-6.3L110.2,324.8z M103.3,324.2h6.3l2.7-2.7H106L103.3,324.2z"/>
	</g>
	<rect x="83.7" y="324.6" style="fill:#C1DEF4;" width="7.5" height="74.5"/>
	<polygon style="fill:#A3D1F0;" points="91,399.1 94.5,395.7 94.5,321.2 91,324.6 	"/>
	<polygon style="fill:#DEECF8;" points="91,324.6 94.5,321.1 87,321.1 83.7,324.6 	"/>
	<path style="fill:#008CCF;" d="M91,399.5h-7.4c-0.2,0-0.4-0.2-0.4-0.4v-74.5c0-0.1,0-0.2,0.1-0.3l3.4-3.5c0.1-0.1,0.2-0.1,0.3-0.1
		l0,0h7.5c0.2,0,0.4,0.2,0.4,0.4v74.5c0,0.1,0,0.2-0.1,0.3l-3.4,3.5C91.2,399.5,91.2,399.5,91,399.5z M84,398.7h6.7V392H84V398.7z
		 M91.4,391.8v6.3l2.6-2.7v-6.3L91.4,391.8z M84,391.3h6.7v-6.7H84V391.3z M91.4,384.4v6.3L94,388v-6.3L91.4,384.4z M84,383.8h6.7
		v-6.7H84V383.8z M91.4,376.9v6.3l2.6-2.7v-6.3L91.4,376.9z M84,376.4h6.7v-6.7H84V376.4z M91.4,369.5v6.3l2.6-2.7v-6.3L91.4,369.5z
		 M84,368.9h6.7v-6.7H84V368.9z M91.4,362v6.3l2.6-2.7v-6.3L91.4,362z M84,361.5h6.7v-6.7H84V361.5z M91.4,354.6v6.3l2.6-2.7v-6.3
		L91.4,354.6z M84,354h6.7v-6.7H84V354z M91.4,347.1v6.3l2.6-2.7v-6.3L91.4,347.1z M84,346.6h6.7v-6.7H84V346.6z M91.4,339.7v6.3
		l2.6-2.7V337L91.4,339.7z M84,339.1h6.7v-6.7H84V339.1z M91.4,332.2v6.3l2.6-2.7v-6.3L91.4,332.2z M84,331.7h6.7V325H84V331.7z
		 M91.4,324.8v6.3l2.6-2.7v-6.3L91.4,324.8z M84.5,324.2h6.3l2.7-2.7h-6.3L84.5,324.2z"/>
</g>
<path style="fill:#0086CD;" d="M146.2,358.8c-0.4,0.4-0.7,0.8-1,1.1c-0.3,0.3-0.6,0.5-0.9,0.7c0.5,0.3,1,0.7,1.5,1.1
	c0.4,0.4,0.8,0.9,1.1,1.4c0.3,0.5,0.6,1.1,0.9,1.7c0.2,0.6,0.3,1.3,0.3,1.9c0,1.2-0.2,2.2-0.7,3.2c-0.5,1-1.1,1.9-1.8,2.6
	c-0.7,0.7-1.6,1.3-2.7,1.7c-1.1,0.4-2.3,0.7-3.5,0.7c-1.1,0-2.1-0.1-3-0.5c-1-0.3-1.8-0.8-2.5-1.4c-0.8-0.5-1.4-1.2-1.9-2.1
	c-0.5-0.8-0.9-1.8-1-2.9v-0.3c0-0.6,0.1-1.1,0.5-1.5c0.3-0.4,0.8-0.6,1.6-0.6c0.3,0,0.6,0.1,0.9,0.1c0.3,0.1,0.5,0.3,0.8,0.5
	c0.2,0.7,0.5,1.3,0.8,1.8c0.2,0.6,0.5,1.1,0.8,1.4c0.3,0.4,0.7,0.7,1.2,0.9c0.5,0.2,1.1,0.3,2,0.3c1.3,0,2.3-0.4,3.2-1.1
	c0.8-0.7,1.2-1.7,1.3-2.8c0-0.8-0.1-1.4-0.4-1.9c-0.3-0.5-0.6-0.9-1.1-1.2c-0.4-0.3-0.8-0.5-1.3-0.6c-0.5-0.1-1-0.1-1.5-0.3
	c-0.4,0-0.9-0.1-1.3-0.1c-0.4,0-0.7-0.1-0.8-0.2c0-0.6,0-1.3,0.1-1.9c0-0.6,0-1.3,0.1-2c0.7,0,1.3,0,1.9-0.1
	c0.6-0.1,1.2-0.3,1.6-0.6c0.5-0.3,1-0.6,1.4-1.1c0.3-0.4,0.5-1.1,0.5-1.8c0-0.4-0.1-0.8-0.2-1.2c-0.1-0.4-0.4-0.8-0.7-1.2
	c-0.3-0.3-0.6-0.6-1.1-0.9c-0.5-0.2-1.1-0.3-1.8-0.3c-0.8,0-1.3,0.1-1.8,0.3c-0.4,0.3-0.8,0.5-1.1,0.9c-0.2,0.4-0.4,0.7-0.5,1.1
	c-0.1,0.4-0.3,0.8-0.4,1.1c-0.2,0.4-0.4,0.7-0.6,0.9c-0.2,0.2-0.5,0.3-1,0.3c-0.7,0-1.3-0.1-1.7-0.4c-0.4-0.3-0.6-0.7-0.6-1.5
	c0.1-1,0.3-1.9,0.8-2.7c0.4-0.8,1.1-1.5,1.8-2.1c0.6-0.6,1.4-1.1,2.3-1.4c0.9-0.3,1.8-0.5,2.8-0.5c1.2,0,2.3,0.2,3.2,0.6
	c0.9,0.4,1.8,1,2.6,1.6c0.7,0.7,1.2,1.5,1.6,2.4c0.3,0.9,0.5,1.8,0.5,2.7C147.3,356.5,146.9,357.8,146.2,358.8"/>
</svg>
