
<svg xmlns="http://www.w3.org/2000/svg" version="1.1" xmlns:xlink="http://www.w3.org/1999/xlink" preserveAspectRatio="none" x="0px" y="0px" width="1280px" height="720px" viewBox="0 0 1280 720">
<defs>
<g id="Layer0_0_FILL">
<path fill="#1E1E1E" stroke="none" d="
M 930.3 492.4
Q 928.6 492.4 927.2 493 925.8 493.6 924.85 494.65 923.85 495.7 923.4 497.1 922.85 498.55 922.85 500.2 922.85 501.9 923.4 503.25 923.9 504.65 924.85 505.6 925.8 506.6 927.15 507.1 928.5 507.65 930.1 507.65 930.7 507.65 931.3 507.5 931.9 507.3 932.45 507.05 933 506.8 933.45 506.45 933.9 506.1 934.2 505.75 934 507.2 933.55 508.45 933.1 509.7 932.35 510.65 931.6 511.55 930.55 512.1 929.45 512.6 927.85 512.6 926.8 512.6 925.95 512.55 925.05 512.45 924.25 512.15 923.85 511.95 923.8 512.4
L 923.7 514.75
Q 923.65 515.1 923.95 515.15 924.65 515.4 925.7 515.55 926.75 515.7 927.6 515.7 930.4 515.7 932.35 514.7 934.25 513.75 935.45 512.05 936.65 510.35 937.15 508.1 937.65 505.85 937.65 503.3 937.65 497.7 935.75 495.05 933.85 492.4 930.3 492.4
M 931.8 495.75
Q 932.5 496.15 933.05 496.85 933.55 497.5 933.85 498.4 934.15 499.3 934.15 500.3 934.15 502.15 933.05 503.35 931.95 504.5 930 504.5 928.15 504.5 927.15 503.3 926.15 502.1 926.15 500.05 926.15 497.9 927.3 496.6 928.45 495.35 930.25 495.35 931.1 495.35 931.8 495.75
M 917.1 493.75
Q 916.1 493.05 914.8 492.75 913.5 492.4 912.1 492.4 910.85 492.4 909.6 492.65 908.35 492.95 907 493.4 906.7 493.55 906.6 493.7 906.5 493.85 906.6 494
L 906.85 496.2
Q 906.9 496.5 907.05 496.55 907.2 496.6 907.55 496.5 908.05 496.3 908.65 496.15 909.25 495.95 909.85 495.8 910.4 495.65 910.95 495.6 911.5 495.5 911.95 495.5 912.55 495.5 913.3 495.65 914 495.8 914.6 496.2 915.25 496.55 915.65 497.1 916.05 497.7 916.05 498.45 916.05 499.45 915.4 500.15 914.8 500.85 913.9 501.3 913.05 501.75 912.1 501.95 911.2 502.1 910.55 502.1
L 909.1 502.1
Q 908.85 502.1 908.75 502.2 908.7 502.25 908.7 502.5
L 908.7 504.7
Q 908.7 504.95 908.75 505.05 908.85 505.1 909.1 505.1
L 910.6 505.1
Q 912.05 505.1 913.05 505.4 914.1 505.7 914.75 506.2 915.4 506.7 915.75 507.35 916.05 508 916.05 508.65 916.05 510.65 914.6 511.65 914.1 512 913.5 512.2 912.95 512.4 912.3 512.5 911.65 512.55 911 512.55 910.35 512.5 909.7 512.45 908.9 512.4 908.1 512.15 907.3 511.95 906.55 511.7 906.1 511.55 906 511.6 905.8 511.75 905.8 512
L 905.5 514.25
Q 905.5 514.5 905.6 514.65 905.75 514.75 906.05 514.9 907.15 515.25 908.45 515.5 909.75 515.7 911.05 515.7 912.75 515.7 914.4 515.25 916 514.85 917.1 513.9 918.25 513 918.9 511.65 919.5 510.35 919.5 508.75 919.5 507.1 918.5 505.75 917.45 504.45 915.5 503.55 916.3 503.2 917.05 502.65 917.75 502.05 918.25 501.35 918.8 500.6 919.05 499.8 919.35 499 919.35 498.2 919.35 496.65 918.7 495.55 918.1 494.45 917.1 493.75
M 898.55 516.65
Q 899.25 517.35 900.2 517.35 901.15 517.35 901.8 516.65 902.45 515.95 902.45 515 902.45 514.05 901.8 513.4 901.15 512.75 900.2 512.75 899.25 512.75 898.55 513.4 897.9 514.05 897.9 515 897.9 515.95 898.55 516.65
M 889.4 493.45
Q 889.4 492.85 889.3 492.75 889.2 492.65 888.7 492.65
L 887.1 492.65
Q 887 492.65 886.85 492.75 886.7 492.8 886.65 492.85
L 882.05 497.1
Q 881.9 497.2 881.9 497.4 881.9 497.55 882 497.7
L 883.3 499.3
Q 883.45 499.4 883.65 499.4 883.85 499.35 884 499.25
L 886.2 497.35 886.2 515.1
Q 886.2 515.5 886.65 515.5
L 889.05 515.5
Q 889.4 515.5 889.4 515.1
L 889.4 493.45
M 400.8 493.9
Q 399.85 493.2 398.6 492.8 397.3 492.4 395.8 492.4 394.35 492.4 393.1 492.8 391.8 493.25 390.9 494 389.95 494.75 389.35 495.8 388.85 496.85 388.85 498.1 388.85 499.8 389.85 501.2 390.9 502.55 392.7 503.55 391.8 504 391 504.55 390.15 505.1 389.55 505.75 388.95 506.45 388.55 507.3 388.2 508.15 388.2 509.25 388.2 510.9 388.9 512.1 389.55 513.3 390.65 514.1 391.75 514.9 393.1 515.3 394.45 515.7 395.8 515.7 397.3 515.7 398.65 515.3 400.05 514.9 401.1 514.1 402.15 513.3 402.8 512.1 403.45 510.9 403.45 509.25 403.45 508.25 403.15 507.45 402.85 506.7 402.25 506 401.65 505.3 400.8 504.75 399.95 504.15 398.9 503.5 400.85 502.2 401.8 500.85 402.75 499.55 402.75 498 402.75 496.7 402.2 495.65 401.7 494.6 400.8 493.9
M 399.35 498.25
Q 399.35 498.8 399 499.4 398.6 500 398.05 500.55 397.5 501.1 396.9 501.45 396.3 501.9 395.85 502.05 395.45 501.9 394.85 501.55 394.25 501.2 393.65 500.7 393.05 500.15 392.65 499.55 392.25 498.95 392.25 498.35 392.25 497.6 392.6 497.05 392.9 496.5 393.4 496.15 393.9 495.75 394.55 495.55 395.2 495.35 395.8 495.35 396.55 495.35 397.2 495.55 397.8 495.8 398.3 496.2 398.75 496.6 399.05 497.1 399.35 497.65 399.35 498.25
M 395.85 505.2
Q 396.6 505.5 397.35 505.95 398.1 506.4 398.7 506.9 399.3 507.45 399.7 508.1 400.1 508.7 400.1 509.25 400.1 510.05 399.7 510.7 399.3 511.35 398.7 511.8 398.1 512.2 397.35 512.45 396.6 512.7 395.8 512.7 395.1 512.7 394.3 512.45 393.55 512.2 392.95 511.75 392.35 511.3 391.95 510.65 391.55 510.05 391.55 509.25 391.55 508.35 392 507.65 392.45 507 393.1 506.5 393.75 506 394.5 505.7 395.25 505.4 395.85 505.2
M 382.55 493.75
Q 381.55 493.05 380.25 492.75 378.95 492.4 377.55 492.4 376.3 492.4 375.05 492.65 373.8 492.95 372.45 493.4 372.15 493.55 372.05 493.7 371.95 493.85 372.05 494
L 372.3 496.2
Q 372.35 496.5 372.5 496.55 372.65 496.6 373 496.5 373.5 496.3 374.1 496.15 374.7 495.95 375.3 495.8 375.85 495.65 376.4 495.6 376.95 495.5 377.4 495.5 378 495.5 378.75 495.65 379.45 495.8 380.05 496.2 380.7 496.55 381.1 497.1 381.5 497.7 381.5 498.45 381.5 499.45 380.85 500.15 380.25 500.85 379.35 501.3 378.5 501.75 377.55 501.95 376.65 502.1 376 502.1
L 374.55 502.1
Q 374.3 502.1 374.2 502.2 374.15 502.25 374.15 502.5
L 374.15 504.7
Q 374.15 504.95 374.2 505.05 374.3 505.1 374.55 505.1
L 376.05 505.1
Q 377.5 505.1 378.5 505.4 379.55 505.7 380.2 506.2 380.85 506.7 381.2 507.35 381.5 508 381.5 508.65 381.5 510.65 380.05 511.65 379.55 512 378.95 512.2 378.4 512.4 377.75 512.5 377.1 512.55 376.45 512.55 375.8 512.5 375.15 512.45 374.35 512.4 373.55 512.15 372.75 511.95 372 511.7 371.55 511.55 371.45 511.6 371.25 511.75 371.25 512
L 370.95 514.25
Q 370.95 514.5 371.05 514.65 371.2 514.75 371.5 514.9 372.6 515.25 373.9 515.5 375.2 515.7 376.5 515.7 378.2 515.7 379.85 515.25 381.45 514.85 382.55 513.9 383.7 513 384.35 511.65 384.95 510.35 384.95 508.75 384.95 507.1 383.95 505.75 382.9 504.45 380.95 503.55 381.75 503.2 382.5 502.65 383.2 502.05 383.7 501.35 384.25 500.6 384.5 499.8 384.8 499 384.8 498.2 384.8 496.65 384.15 495.55 383.55 494.45 382.55 493.75
M 365.65 517.35
Q 366.6 517.35 367.25 516.65 367.9 515.95 367.9 515 367.9 514.05 367.25 513.4 366.6 512.75 365.65 512.75 364.7 512.75 364 513.4 363.35 514.05 363.35 515 363.35 515.95 364 516.65 364.7 517.35 365.65 517.35
M 354.85 493.45
Q 354.85 492.85 354.75 492.75 354.65 492.65 354.15 492.65
L 352.55 492.65
Q 352.45 492.65 352.3 492.75 352.15 492.8 352.1 492.85
L 347.5 497.1
Q 347.35 497.2 347.35 497.4 347.35 497.55 347.45 497.7
L 348.75 499.3
Q 348.9 499.4 349.1 499.4 349.3 499.35 349.45 499.25
L 351.65 497.35 351.65 515.1
Q 351.65 515.5 352.1 515.5
L 354.5 515.5
Q 354.85 515.5 354.85 515.1
L 354.85 493.45 Z"/>
</g>

<path id="Layer0_1_MEMBER_0_1_STROKES" stroke="#332D2B" stroke-width="3" stroke-linejoin="miter" stroke-linecap="butt" stroke-miterlimit="4" fill="none" d="
M 373.45416793823244 454.941796875
L 373.45416793823244 484.7911895751953"/>

<path id="Layer0_1_MEMBER_1_1_STROKES" stroke="#332D2B" stroke-width="2" stroke-linejoin="miter" stroke-linecap="butt" stroke-miterlimit="4" fill="none" d="
M 159.8682914733887 461.3916656494141
L 159.8682914733887 478.3413208007812"/>

<path id="Layer0_1_MEMBER_2_1_STROKES" stroke="#332D2B" stroke-width="2" stroke-linejoin="miter" stroke-linecap="butt" stroke-miterlimit="4" fill="none" d="
M 213.26476058959963 461.3916656494141
L 213.26476058959963 478.3413208007812"/>

<path id="Layer0_1_MEMBER_3_1_STROKES" stroke="#332D2B" stroke-width="2" stroke-linejoin="miter" stroke-linecap="butt" stroke-miterlimit="4" fill="none" d="
M 266.66122970581057 461.3916656494141
L 266.66122970581057 478.3413208007812"/>

<path id="Layer0_1_MEMBER_4_1_STROKES" stroke="#332D2B" stroke-width="2" stroke-linejoin="miter" stroke-linecap="butt" stroke-miterlimit="4" fill="none" d="
M 320.0576988220215 461.3916656494141
L 320.0576988220215 478.3413208007812"/>

<path id="Layer0_1_MEMBER_5_1_STROKES" stroke="#332D2B" stroke-width="3" stroke-linejoin="miter" stroke-linecap="butt" stroke-miterlimit="4" fill="none" d="
M 907.2688690185547 454.941796875
L 907.2688690185547 484.7911895751953"/>

<path id="Layer0_1_MEMBER_6_1_STROKES" stroke="#332D2B" stroke-width="2" stroke-linejoin="miter" stroke-linecap="butt" stroke-miterlimit="4" fill="none" d="
M 426.7006469726563 461.3916656494141
L 426.7006469726563 478.3413208007812"/>

<path id="Layer0_1_MEMBER_7_1_STROKES" stroke="#332D2B" stroke-width="2" stroke-linejoin="miter" stroke-linecap="butt" stroke-miterlimit="4" fill="none" d="
M 480.0971160888673 461.3916656494141
L 480.0971160888673 478.3413208007812"/>

<path id="Layer0_1_MEMBER_8_1_STROKES" stroke="#332D2B" stroke-width="2" stroke-linejoin="miter" stroke-linecap="butt" stroke-miterlimit="4" fill="none" d="
M 533.493585205078 461.3916656494141
L 533.493585205078 478.3413208007812"/>

<path id="Layer0_1_MEMBER_9_1_STROKES" stroke="#332D2B" stroke-width="2" stroke-linejoin="miter" stroke-linecap="butt" stroke-miterlimit="4" fill="none" d="
M 586.8900543212891 461.3916656494141
L 586.8900543212891 478.3413208007812"/>

<path id="Layer0_1_MEMBER_10_1_STROKES" stroke="#332D2B" stroke-width="3" stroke-linejoin="miter" stroke-linecap="butt" stroke-miterlimit="4" fill="none" d="
M 640.2865234375 459.1417114257813
L 640.2865234375 480.4412780761719"/>

<path id="Layer0_1_MEMBER_11_1_STROKES" stroke="#332D2B" stroke-width="2" stroke-linejoin="miter" stroke-linecap="butt" stroke-miterlimit="4" fill="none" d="
M 693.682992553711 461.3916656494141
L 693.682992553711 478.3413208007812"/>

<path id="Layer0_1_MEMBER_12_1_STROKES" stroke="#332D2B" stroke-width="2" stroke-linejoin="miter" stroke-linecap="butt" stroke-miterlimit="4" fill="none" d="
M 747.0794616699219 461.3916656494141
L 747.0794616699219 478.3413208007812"/>

<path id="Layer0_1_MEMBER_13_1_STROKES" stroke="#332D2B" stroke-width="2" stroke-linejoin="miter" stroke-linecap="butt" stroke-miterlimit="4" fill="none" d="
M 800.4759307861328 461.3916656494141
L 800.4759307861328 478.3413208007812"/>

<path id="Layer0_1_MEMBER_14_1_STROKES" stroke="#332D2B" stroke-width="2" stroke-linejoin="miter" stroke-linecap="butt" stroke-miterlimit="4" fill="none" d="
M 853.8723999023438 461.3916656494141
L 853.8723999023438 478.3413208007812"/>

<path id="Layer0_1_MEMBER_15_1_STROKES" stroke="#332D2B" stroke-width="2" stroke-linejoin="miter" stroke-linecap="butt" stroke-miterlimit="4" fill="none" d="
M 960.6653381347656 461.3916656494141
L 960.6653381347656 478.3413208007812"/>

<path id="Layer0_1_MEMBER_16_1_STROKES" stroke="#332D2B" stroke-width="2" stroke-linejoin="miter" stroke-linecap="butt" stroke-miterlimit="4" fill="none" d="
M 1013.9118171691895 461.3916656494141
L 1013.9118171691895 478.3413208007812"/>

<path id="Layer0_1_MEMBER_17_1_STROKES" stroke="#332D2B" stroke-width="2" stroke-linejoin="miter" stroke-linecap="butt" stroke-miterlimit="4" fill="none" d="
M 1067.3082862854003 461.3916656494141
L 1067.3082862854003 478.3413208007812"/>

<path id="Layer0_1_MEMBER_18_1_STROKES" stroke="#332D2B" stroke-width="3" stroke-linejoin="miter" stroke-linecap="butt" stroke-miterlimit="4" fill="none" d="
M 138.18668518066409 469.79999999999995
L 1141.576244354248 469.79999999999995"/>

<path id="Layer0_1_MEMBER_19_1_STROKES" stroke="#332D2B" stroke-width="2" stroke-linejoin="miter" stroke-linecap="butt" stroke-miterlimit="4" fill="none" d="
M 1120.8082862854003 461.3916656494141
L 1120.8082862854003 478.3413208007812"/>
</defs>

<g transform="matrix( 1, 0, 0, 1, 0,0) ">
<use xlink:href="#Layer0_0_FILL"/>
</g>

<g transform="matrix( 2.9998016357421875, 0, 0, 2.99993896484375, -319.65,51.75) ">
<use xlink:href="#Layer0_1_MEMBER_0_1_STROKES" transform="matrix( 0.333343505859375, 0, 0, 0.3333282470703125, 106.55,-17.25) "/>
</g>

<g transform="matrix( 2.9998016357421875, 0, 0, 2.99993896484375, -319.65,51.75) ">
<use xlink:href="#Layer0_1_MEMBER_1_1_STROKES" transform="matrix( 0.333343505859375, 0, 0, 0.3333282470703125, 106.55,-17.25) "/>
</g>

<g transform="matrix( 2.9998016357421875, 0, 0, 2.99993896484375, -319.65,51.75) ">
<use xlink:href="#Layer0_1_MEMBER_2_1_STROKES" transform="matrix( 0.333343505859375, 0, 0, 0.3333282470703125, 106.55,-17.25) "/>
</g>

<g transform="matrix( 2.9998016357421875, 0, 0, 2.99993896484375, -319.65,51.75) ">
<use xlink:href="#Layer0_1_MEMBER_3_1_STROKES" transform="matrix( 0.333343505859375, 0, 0, 0.3333282470703125, 106.55,-17.25) "/>
</g>

<g transform="matrix( 2.9998016357421875, 0, 0, 2.99993896484375, -319.65,51.75) ">
<use xlink:href="#Layer0_1_MEMBER_4_1_STROKES" transform="matrix( 0.333343505859375, 0, 0, 0.3333282470703125, 106.55,-17.25) "/>
</g>

<g transform="matrix( 2.9998016357421875, 0, 0, 2.99993896484375, -319.65,51.75) ">
<use xlink:href="#Layer0_1_MEMBER_5_1_STROKES" transform="matrix( 0.333343505859375, 0, 0, 0.3333282470703125, 106.55,-17.25) "/>
</g>

<g transform="matrix( 2.9998016357421875, 0, 0, 2.99993896484375, -319.65,51.75) ">
<use xlink:href="#Layer0_1_MEMBER_6_1_STROKES" transform="matrix( 0.333343505859375, 0, 0, 0.3333282470703125, 106.55,-17.25) "/>
</g>

<g transform="matrix( 2.9998016357421875, 0, 0, 2.99993896484375, -319.65,51.75) ">
<use xlink:href="#Layer0_1_MEMBER_7_1_STROKES" transform="matrix( 0.333343505859375, 0, 0, 0.3333282470703125, 106.55,-17.25) "/>
</g>

<g transform="matrix( 2.9998016357421875, 0, 0, 2.99993896484375, -319.65,51.75) ">
<use xlink:href="#Layer0_1_MEMBER_8_1_STROKES" transform="matrix( 0.333343505859375, 0, 0, 0.3333282470703125, 106.55,-17.25) "/>
</g>

<g transform="matrix( 2.9998016357421875, 0, 0, 2.99993896484375, -319.65,51.75) ">
<use xlink:href="#Layer0_1_MEMBER_9_1_STROKES" transform="matrix( 0.333343505859375, 0, 0, 0.3333282470703125, 106.55,-17.25) "/>
</g>

<g transform="matrix( 2.9998016357421875, 0, 0, 2.99993896484375, -319.65,51.75) ">
<use xlink:href="#Layer0_1_MEMBER_10_1_STROKES" transform="matrix( 0.333343505859375, 0, 0, 0.3333282470703125, 106.55,-17.25) "/>
</g>

<g transform="matrix( 2.9998016357421875, 0, 0, 2.99993896484375, -319.65,51.75) ">
<use xlink:href="#Layer0_1_MEMBER_11_1_STROKES" transform="matrix( 0.333343505859375, 0, 0, 0.3333282470703125, 106.55,-17.25) "/>
</g>

<g transform="matrix( 2.9998016357421875, 0, 0, 2.99993896484375, -319.65,51.75) ">
<use xlink:href="#Layer0_1_MEMBER_12_1_STROKES" transform="matrix( 0.333343505859375, 0, 0, 0.3333282470703125, 106.55,-17.25) "/>
</g>

<g transform="matrix( 2.9998016357421875, 0, 0, 2.99993896484375, -319.65,51.75) ">
<use xlink:href="#Layer0_1_MEMBER_13_1_STROKES" transform="matrix( 0.333343505859375, 0, 0, 0.3333282470703125, 106.55,-17.25) "/>
</g>

<g transform="matrix( 2.9998016357421875, 0, 0, 2.99993896484375, -319.65,51.75) ">
<use xlink:href="#Layer0_1_MEMBER_14_1_STROKES" transform="matrix( 0.333343505859375, 0, 0, 0.3333282470703125, 106.55,-17.25) "/>
</g>

<g transform="matrix( 2.9998016357421875, 0, 0, 2.99993896484375, -319.65,51.75) ">
<use xlink:href="#Layer0_1_MEMBER_15_1_STROKES" transform="matrix( 0.333343505859375, 0, 0, 0.3333282470703125, 106.55,-17.25) "/>
</g>

<g transform="matrix( 2.9998016357421875, 0, 0, 2.99993896484375, -319.65,51.75) ">
<use xlink:href="#Layer0_1_MEMBER_16_1_STROKES" transform="matrix( 0.333343505859375, 0, 0, 0.3333282470703125, 106.55,-17.25) "/>
</g>

<g transform="matrix( 2.9998016357421875, 0, 0, 2.99993896484375, -319.65,51.75) ">
<use xlink:href="#Layer0_1_MEMBER_17_1_STROKES" transform="matrix( 0.333343505859375, 0, 0, 0.3333282470703125, 106.55,-17.25) "/>
</g>

<g transform="matrix( 2.9498443603515625, 0, 0, 1, -303.7,330.45) ">
<use xlink:href="#Layer0_1_MEMBER_18_1_STROKES" transform="matrix( 0.3389892578125, 0, 0, 1, 102.95,-330.45) "/>
</g>

<g transform="matrix( 2.9998016357421875, 0, 0, 2.99993896484375, -266.15,51.75) ">
<use xlink:href="#Layer0_1_MEMBER_19_1_STROKES" transform="matrix( 0.333343505859375, 0, 0, 0.3333282470703125, 88.7,-17.25) "/>
</g>
</svg>
