
<svg xmlns="http://www.w3.org/2000/svg" version="1.1" xmlns:xlink="http://www.w3.org/1999/xlink" preserveAspectRatio="none" x="0px" y="0px" width="1280px" height="70px" viewBox="0 0 1280 70">
<defs>
<g id="Layer0_0_FILL">
<path fill="#FFFFFF" stroke="none" d="
M 1181.75 50.05
L 1181.75 20
Q 1181.75 5 1166.75 5
L 926.75 5
Q 911.75 5 911.75 20
L 911.75 50.05
Q 911.75 65.05 926.75 65.05
L 1166.75 65.05
Q 1181.75 65.05 1181.75 50.05 Z"/>
</g>

<path id="Layer0_0_1_STROKES" stroke="#DBDBDB" stroke-width="3" stroke-linejoin="round" stroke-linecap="round" fill="none" d="
M 926.75 5
L 1166.75 5
Q 1181.75 5 1181.75 20
L 1181.75 50.05
Q 1181.75 65.05 1166.75 65.05
L 926.75 65.05
Q 911.75 65.05 911.75 50.05
L 911.75 20
Q 911.75 5 926.75 5 Z"/>
</defs>

<g transform="matrix( 1, 0, 0, 1, 0,0) ">
<use xlink:href="#Layer0_0_FILL"/>

<use xlink:href="#Layer0_0_1_STROKES"/>
</g>
</svg>
