
<svg xmlns="http://www.w3.org/2000/svg" version="1.1" xmlns:xlink="http://www.w3.org/1999/xlink" preserveAspectRatio="none" x="0px" y="0px" width="1280px" height="210px" viewBox="0 0 1280 210">
<defs>
<g id="Layer0_0_FILL">
<path fill="#FFFFFF" stroke="none" d="
M 1135.4 122.35
L 1135.4 92.3
Q 1135.4 77.3 1120.4 77.3
L 990.4 77.3
Q 975.4 77.3 975.4 92.3
L 975.4 122.35
Q 975.4 137.35 990.4 137.35
L 1120.4 137.35
Q 1135.4 137.35 1135.4 122.35 Z"/>

<path fill="#1E1E1E" stroke="none" d="
M 1171.8 98.8
Q 1170.45 97.8 1168.8 97.25 1167.15 96.8 1165.3 96.8 1162.8 96.8 1160.75 97.75 1158.7 98.75 1157.25 100.5 1155.8 102.25 1155 104.65 1154.2 107.1 1154.2 109.95 1154.2 112.9 1154.95 115.3 1155.75 117.75 1157.15 119.5 1158.6 121.2 1160.65 122.15 1162.7 123.15 1165.3 123.15 1167.4 123.15 1169.15 122.55 1170.9 121.95 1172.3 120.7 1173.65 119.4 1174.5 117.55 1175.3 115.65 1175.55 113.05
L 1171.65 113.05
Q 1171.25 116.45 1169.7 118 1168.15 119.5 1165.3 119.5 1161.8 119.5 1159.95 116.95 1158.15 114.4 1158.15 109.95 1158.15 107.7 1158.65 105.9 1159.15 104.15 1160.1 102.9 1161.1 101.7 1162.45 101.05 1163.75 100.4 1165.35 100.4 1167.7 100.4 1169.25 101.45 1170.85 102.6 1171.35 105.1
L 1175.2 105.1
Q 1174.9 103 1174 101.4 1173.15 99.8 1171.8 98.8
M 1148.25 95.35
Q 1147.9 96.15 1147.9 97 1147.9 97.95 1148.25 98.7 1148.6 99.5 1149.2 100.1 1149.8 100.65 1150.6 101 1151.35 101.35 1152.3 101.35 1153.2 101.35 1154 101 1154.8 100.65 1155.4 100.05 1155.95 99.45 1156.3 98.7 1156.65 97.9 1156.65 97 1156.65 96.15 1156.3 95.35 1155.95 94.6 1155.35 93.95 1154.75 93.4 1153.95 93.05 1153.15 92.7 1152.25 92.7 1151.3 92.7 1150.55 93.05 1149.75 93.4 1149.2 93.95 1148.6 94.55 1148.25 95.35
M 1152.3 95.2
Q 1153 95.2 1153.5 95.8 1154 96.35 1154 97
L 1153.95 97
Q 1153.95 97.7 1153.45 98.25 1152.95 98.8 1152.25 98.8 1151.55 98.8 1151.05 98.25 1150.5 97.7 1150.5 97 1150.5 96.35 1151.05 95.8 1151.6 95.2 1152.3 95.2 Z"/>
</g>

<path id="Layer0_0_1_STROKES" stroke="#DBDBDB" stroke-width="3" stroke-linejoin="round" stroke-linecap="round" fill="none" d="
M 990.4 77.3
L 1120.4 77.3
Q 1135.4 77.3 1135.4 92.3
L 1135.4 122.35
Q 1135.4 137.35 1120.4 137.35
L 990.4 137.35
Q 975.4 137.35 975.4 122.35
L 975.4 92.3
Q 975.4 77.3 990.4 77.3 Z"/>

<path id="Layer0_0_2_STROKES" stroke="#CCCCCC" stroke-width="3" stroke-linejoin="round" stroke-linecap="round" fill="none" d="
M 120.55 272.95
L 1159.5 272.95
M 120.55 212.95
L 1159.5 212.95"/>
</defs>

<g transform="matrix( 1, 0, 0, 1, 0,-70.1) ">
<use xlink:href="#Layer0_0_FILL"/>

<use xlink:href="#Layer0_0_1_STROKES"/>

<use xlink:href="#Layer0_0_2_STROKES"/>
</g>
</svg>
