<?xml version="1.0" encoding="utf-8"?>
<!-- Generator: Adobe Illustrator 24.1.1, SVG Export Plug-In . SVG Version: 6.00 Build 0)  -->
<svg version="1.1" id="레이어_1" xmlns="http://www.w3.org/2000/svg" xmlns:xlink="http://www.w3.org/1999/xlink" x="0px"
	 y="0px" width="32px" height="32px" viewBox="0 0 32 32" style="enable-background:new 0 0 32 32;" xml:space="preserve">
<g>
	<linearGradient id="SVGID_1_" gradientUnits="userSpaceOnUse" x1="3.7413" y1="16.208" x2="28.0275" y2="16.208">
		<stop  offset="0" style="stop-color:#E09C43"/>
		<stop  offset="0.9472" style="stop-color:#E67F4E"/>
	</linearGradient>
	<path style="fill:url(#SVGID_1_);" d="M28,16.2c-0.2,6.6-4,12.1-12.1,12c-6.7-0.1-12.1-4.8-12.1-12C3.7,9.6,8.5,4.3,15.9,4.2
		C17.1,4.2,28.3,4.5,28,16.2z"/>
	<g>
		<linearGradient id="SVGID_2_" gradientUnits="userSpaceOnUse" x1="21.0461" y1="24.76" x2="21.5852" y2="27.817">
			<stop  offset="0" style="stop-color:#E08E3C"/>
			<stop  offset="0.9472" style="stop-color:#D47548"/>
		</linearGradient>
		<path style="fill:url(#SVGID_2_);" d="M23.8,25.2c-1-1.2-4.2-0.4-4.8,1c-0.1,0.4-0.3,0.7-0.2,1.1c0.3,1.9,4.1-0.1,4.8-0.7
			C24,26.3,24.1,25.6,23.8,25.2z"/>
		<linearGradient id="SVGID_3_" gradientUnits="userSpaceOnUse" x1="10.4921" y1="20.3644" x2="14.5481" y2="25.1982">
			<stop  offset="0" style="stop-color:#E09C43"/>
			<stop  offset="0.9472" style="stop-color:#E67F4E"/>
		</linearGradient>
		<path style="fill:url(#SVGID_3_);" d="M13.1,19.9c-0.8-0.3-1.7-0.3-2.5,0.3c-0.1,0-0.1,0.1-0.2,0.1c0,0,0,0-0.1,0
			c-1.3,1.1-0.8,3.3,0.3,4.4c1.2,1.2,3.7,1.3,4.5-0.4C16,22.7,14.8,20.6,13.1,19.9z"/>
		<linearGradient id="SVGID_4_" gradientUnits="userSpaceOnUse" x1="3.4933" y1="15.9099" x2="6.4635" y2="21.0544">
			<stop  offset="0" style="stop-color:#E09C43"/>
			<stop  offset="0.9472" style="stop-color:#E67F4E"/>
		</linearGradient>
		<path style="fill:url(#SVGID_4_);" d="M6.3,17.3c-0.3-0.9-0.9-1.7-1.9-1.8c0,0-0.1,0-0.1,0c-1.6,0-0.9,6.3,1.2,6
			C7.2,21.3,6.7,18.5,6.3,17.3z"/>
		<linearGradient id="SVGID_5_" gradientUnits="userSpaceOnUse" x1="10.3657" y1="8.8954" x2="13.4883" y2="14.3039">
			<stop  offset="0" style="stop-color:#E09C43"/>
			<stop  offset="0.9472" style="stop-color:#E67F4E"/>
		</linearGradient>
		<path style="fill:url(#SVGID_5_);" d="M14.3,9.3c-1.4-1.6-4.3-0.9-5.1,1C8.8,11.2,8.7,12.1,9,13c0.7,1.8,3.3,2.3,4.7,1.1
			C15.2,12.9,15.6,10.7,14.3,9.3z"/>
		<linearGradient id="SVGID_6_" gradientUnits="userSpaceOnUse" x1="6.9041" y1="7.0045" x2="7.8189" y2="8.5891">
			<stop  offset="0" style="stop-color:#E09C43"/>
			<stop  offset="0.9472" style="stop-color:#E67F4E"/>
		</linearGradient>
		<path style="fill:url(#SVGID_6_);" d="M5.6,9.3c0.3,0.4,0.8,0.1,1.1-0.1c0.6-0.3,1.2-0.8,1.7-1.3c0.3-0.4,0.8-1,0.7-1.5
			C9,5.6,7.9,6.4,7.6,6.6C7.5,6.7,5.2,8.7,5.6,9.3z"/>
		<linearGradient id="SVGID_7_" gradientUnits="userSpaceOnUse" x1="15.7559" y1="3.7964" x2="15.7559" y2="6.1191">
			<stop  offset="0" style="stop-color:#E09C43"/>
			<stop  offset="0.9472" style="stop-color:#E67F4E"/>
		</linearGradient>
		<path style="fill:url(#SVGID_7_);" d="M17.9,4.5c-0.6-1-4-0.8-4.3,0.1c0,0,0,0,0,0.1c0,0.1-0.1,0.1-0.1,0.2
			c-0.1,0.4,0.3,0.7,0.6,0.9c0.5,0.2,1.2,0.3,1.7,0.3c0.7,0,1.4,0,1.9-0.4C18.1,5.4,18.1,4.9,17.9,4.5z"/>
		<linearGradient id="SVGID_8_" gradientUnits="userSpaceOnUse" x1="19.9039" y1="10.1017" x2="25.3913" y2="10.1017">
			<stop  offset="0" style="stop-color:#E08E3C"/>
			<stop  offset="0.9472" style="stop-color:#D47548"/>
		</linearGradient>
		<path style="fill:url(#SVGID_8_);" d="M24.3,8.2c-1.4-1.1-3.8-1.7-4.3,0.6c-0.2,0.9,0.1,1.7,0.7,2.5c0.4,0.7,1,1.2,1.8,1.5
			c0.9,0.3,1.6,0.2,2.3-0.4C25.9,11.3,25.4,9.1,24.3,8.2z"/>
		<linearGradient id="SVGID_9_" gradientUnits="userSpaceOnUse" x1="26.8109" y1="10.7318" x2="28.1183" y2="18.1464">
			<stop  offset="0" style="stop-color:#E08E3C"/>
			<stop  offset="0.9472" style="stop-color:#D47548"/>
		</linearGradient>
		<path style="fill:url(#SVGID_9_);" d="M28.6,15.8c0-1.6-0.4-4-0.9-4.9c-0.2-0.4-0.8-0.3-1,0.1c-0.5,0.9-0.3,2.2-0.2,3.2
			c0.1,1,0.1,2.9,0.8,3.7c0.9,1,1.1-0.5,1.2-1.3C28.6,16.4,28.6,16.1,28.6,15.8z"/>
		<linearGradient id="SVGID_10_" gradientUnits="userSpaceOnUse" x1="18.972" y1="17.5759" x2="24.5882" y2="17.5759">
			<stop  offset="0" style="stop-color:#E08E3C"/>
			<stop  offset="0.9472" style="stop-color:#D47548"/>
		</linearGradient>
		<path style="fill:url(#SVGID_10_);" d="M24.5,17.5c-0.5-1.7-2.6-3-4.2-2.4c-0.3,0.1-0.5,0.2-0.6,0.3c-0.1,0-0.1,0.1-0.2,0.2
			c-0.7,0.6-0.6,1.8-0.3,2.6c0.7,1.4,3,2.7,4.4,1.7C24.4,19.4,24.8,18.3,24.5,17.5z"/>
	</g>
	<g>
		<path style="fill:#B05E29;" d="M19.1,26.6c0.6-1.4,3.8-2.2,4.8-1c0,0,0,0,0,0c0-0.2-0.1-0.3-0.2-0.4c-1-1.2-4.2-0.4-4.8,1
			c-0.1,0.4-0.3,0.7-0.2,1.1c0,0.2,0.1,0.3,0.2,0.5c0,0,0,0,0-0.1C18.9,27.3,19,27,19.1,26.6z"/>
		<path style="fill:#B05E29;" d="M10.6,20.8C10.6,20.8,10.7,20.8,10.6,20.8c0.1-0.1,0.2-0.1,0.2-0.2c0.8-0.6,1.7-0.6,2.5-0.3
			c0.8,0.3,1.5,1,1.9,1.8c-0.4-1-1.2-1.9-2.1-2.3c-0.8-0.3-1.7-0.3-2.5,0.3c-0.1,0-0.1,0.1-0.2,0.1c0,0,0,0-0.1,0
			c-1,0.8-1,2.3-0.4,3.4C9.6,22.8,9.7,21.6,10.6,20.8z"/>
		<path style="fill:#B05E29;" d="M4.4,16c0,0,0.1,0,0.1,0c0.8,0,1.4,0.5,1.7,1.2c-0.3-0.9-0.9-1.6-1.9-1.6c0,0-0.1,0-0.1,0
			c-1.1,0-1.1,3.1-0.2,4.9C3.4,18.7,3.4,16,4.4,16z"/>
		<path style="fill:#B05E29;" d="M9.3,10.7c0.8-1.9,3.7-2.6,5.1-1c0.2,0.2,0.3,0.4,0.4,0.7c-0.1-0.4-0.3-0.7-0.6-1.1
			c-1.4-1.6-4.3-0.9-5.1,1C8.8,11.2,8.7,12.1,9,13c0,0.1,0.1,0.2,0.1,0.3C8.9,12.4,9,11.6,9.3,10.7z"/>
		<path style="fill:#B05E29;" d="M7.8,7c0.3-0.2,1-0.7,1.4-0.5c0,0,0-0.1,0-0.1C9,5.6,7.9,6.4,7.6,6.6c-0.1,0.1-2.4,2.1-2,2.7
			c0,0.1,0.1,0.1,0.1,0.1C5.9,8.7,7.7,7.1,7.8,7z"/>
		<path style="fill:#B05E29;" d="M13.7,5.3c0-0.1,0-0.2,0.1-0.2c0,0,0,0,0-0.1c0.4-0.9,3.7-1.1,4.3-0.2c0-0.1-0.1-0.3-0.2-0.4
			c-0.6-1-4-0.8-4.3,0.1c0,0,0,0,0,0.1c0,0.1-0.1,0.1-0.1,0.2c0,0.2,0,0.4,0.2,0.6C13.6,5.4,13.6,5.4,13.7,5.3z"/>
		<path style="fill:#B05E29;" d="M20.1,9.3C20.6,7,23,7.5,24.4,8.6c0.3,0.2,0.6,0.6,0.7,1C25,9,24.7,8.5,24.3,8.2
			c-1.4-1.1-3.8-1.7-4.3,0.6c-0.1,0.7,0,1.3,0.3,1.8C20.1,10.2,20,9.8,20.1,9.3z"/>
		<path style="fill:#B05E29;" d="M19.7,16c0.1-0.1,0.1-0.1,0.2-0.2c0.1-0.2,0.3-0.3,0.6-0.3c1.5-0.6,3.3,0.5,4,1.9
			c-0.5-1.6-2.6-2.9-4.2-2.3c-0.3,0.1-0.5,0.2-0.6,0.3c-0.1,0-0.1,0.1-0.2,0.2c-0.7,0.6-0.6,1.8-0.3,2.6c0,0,0,0.1,0.1,0.1
			C19,17.5,19.1,16.6,19.7,16z"/>
		<path style="fill:#B05E29;" d="M26.9,11.4c0.2-0.4,0.8-0.5,1-0.1c0,0,0.1,0.1,0.1,0.2c-0.1-0.2-0.2-0.4-0.3-0.6
			c-0.2-0.4-0.8-0.3-1,0.1c-0.5,0.9-0.3,2.2-0.2,3.2c0.1,0.9,0.1,2.4,0.6,3.3c-0.3-0.9-0.3-2.1-0.4-2.9
			C26.5,13.6,26.3,12.3,26.9,11.4z"/>
	</g>
</g>
<g>
</g>
<g>
</g>
<g>
</g>
<g>
</g>
<g>
</g>
<g>
</g>
<g>
</g>
<g>
</g>
<g>
</g>
<g>
</g>
<g>
</g>
<g>
</g>
<g>
</g>
<g>
</g>
<g>
</g>
</svg>
