
<svg xmlns="http://www.w3.org/2000/svg" version="1.1" xmlns:xlink="http://www.w3.org/1999/xlink" preserveAspectRatio="none" x="0px" y="0px" width="1280px" height="720px" viewBox="0 0 1280 720">
<defs>
<g id="fbd54454d34_0_Layer1_0_FILL">
<path fill="#7AA5C4" stroke="none" d="
M 42.55 -9.55
Q 42.55 -19.55 32.55 -19.55
L -32.5 -19.55
Q -42.5 -19.55 -42.5 -9.55
L -42.5 9.5
Q -42.5 19.5 -32.5 19.5
L 32.55 19.5
Q 42.55 19.5 42.55 9.5
L 42.55 -9.55 Z"/>
</g>

<g id="fbd54454d34_0_Layer0_0_FILL">
<path fill="#FFFFFF" stroke="none" d="
M -15 3.3
Q -15 3.15 -15.05 2.95 -15.1 2.75 -15.2 2.55 -15.4 2.2 -15.65 1.9 -15.75 1.8 -15.9 1.7 -16.05 1.6 -16.2 1.5 -16.4 1.4 -16.6 1.4 -16.8 1.35 -17 1.35
L -25.25 1.35
Q -25.45 1.35 -25.65 1.45 -25.8 1.55 -25.95 1.7 -26.1 1.9 -26.15 2.1 -26.2 2.35 -26.2 2.6 -26.2 3.05 -25.95 3.45 -25.8 3.65 -25.65 3.75 -25.45 3.8 -25.25 3.8
L -17.8 3.8 -17.8 8.65
Q -17.8 9.1 -17.35 9.4 -17.15 9.55 -16.95 9.6 -16.75 9.7 -16.5 9.7 -16.4 9.7 -16.3 9.65 -16.15 9.65 -16 9.6 -15.85 9.55 -15.75 9.5 -15.65 9.45 -15.55 9.4 -15.35 9.25 -15.2 9.05 -15.1 9 -15.05 8.85 -15 8.75 -15 8.65
L -15 3.3
M -13.05 -6.2
L -14.95 -6.2 -14.95 -9.3
Q -14.95 -9.9 -15.35 -10.1 -15.55 -10.2 -15.8 -10.25 -16.05 -10.3 -16.35 -10.3 -16.45 -10.3 -16.6 -10.3 -16.75 -10.25 -16.85 -10.25 -17 -10.2 -17.1 -10.2 -17.25 -10.15 -17.35 -10.1 -17.45 -10.05 -17.5 -9.95 -17.55 -9.9 -17.65 -9.8 -17.7 -9.7 -17.75 -9.55 -17.8 -9.45 -17.8 -9.3
L -17.8 -0.75
Q -17.8 -0.6 -17.75 -0.45 -17.7 -0.3 -17.65 -0.2 -17.55 -0.1 -17.5 0 -17.45 0.05 -17.35 0.1 -17.25 0.15 -17.15 0.2 -17 0.25 -16.85 0.25 -16.75 0.3 -16.6 0.3 -16.5 0.3 -16.4 0.3 -16.25 0.3 -16.1 0.3 -16 0.3 -15.9 0.25 -15.8 0.25 -15.7 0.2 -15.6 0.15 -15.45 0.1 -15.35 0.05 -15.25 0 -15.15 -0.1 -15.1 -0.2 -15 -0.3 -15 -0.45 -14.95 -0.6 -14.95 -0.75
L -14.95 -3.75 -13.05 -3.75
Q -12.4 -3.75 -12.25 -4.1 -12.2 -4.3 -12.15 -4.5 -12.15 -4.7 -12.15 -4.95 -12.15 -5.2 -12.15 -5.45 -12.2 -5.65 -12.25 -5.85 -12.35 -6.05 -12.55 -6.1 -12.75 -6.2 -13.05 -6.2
M -21.05 -6.2
Q -20.9 -6.75 -20.85 -7.25 -20.8 -7.75 -20.9 -8.15 -21 -8.55 -21.25 -8.85 -21.5 -9.15 -21.85 -9.3 -22.25 -9.45 -22.65 -9.45
L -28.15 -9.45
Q -28.45 -9.45 -28.65 -9.35 -28.9 -9.25 -28.95 -9.1 -29.1 -8.9 -29.15 -8.7 -29.2 -8.45 -29.2 -8.2 -29.2 -7.95 -29.15 -7.75 -29.1 -7.5 -28.95 -7.35 -28.8 -6.95 -28.15 -6.95
L -23.7 -6.95
Q -23.75 -6.8 -23.8 -6.7 -23.8 -6.55 -23.85 -6.45 -23.95 -6.2 -24.1 -5.95 -24.15 -5.85 -24.25 -5.7 -24.3 -5.55 -24.35 -5.4 -24.45 -5.25 -24.6 -5.1 -24.7 -4.95 -24.85 -4.75 -25.05 -4.5 -25.25 -4.3 -25.45 -4.1 -25.6 -3.95 -25.8 -3.75 -25.95 -3.6 -26.15 -3.4 -26.3 -3.25 -26.55 -3.1 -26.8 -2.95 -27.05 -2.8 -27.3 -2.65 -27.6 -2.5 -27.9 -2.35 -28.2 -2.2 -28.55 -2 -28.7 -1.95 -28.8 -1.9 -28.9 -1.85 -28.95 -1.75 -29 -1.65 -29.05 -1.55 -29.1 -1.5 -29.1 -1.4 -29.15 -1.25 -29.15 -1.15 -29.15 -1.05 -29.15 -0.95 -29.15 -0.8 -29.1 -0.7 -29.1 -0.6 -29.05 -0.5 -28.95 -0.2 -28.8 0 -28.7 0.15 -28.55 0.3 -28.4 0.4 -28.2 0.45 -28 0.45 -27.8 0.4 -27.4 0.25 -27.05 0.1 -26.65 -0.05 -26.25 -0.25 -25.9 -0.4 -25.55 -0.6 -25.25 -0.8 -24.95 -1.05 -24.65 -1.25 -24.35 -1.5 -24.1 -1.75 -23.85 -2 -23.55 -2.25 -23.35 -2.5 -23.1 -2.75 -22.85 -3 -22.45 -3.5 -22.1 -4 -21.75 -4.55 -21.45 -5.15 -21.2 -5.65 -21.05 -6.2
M 27.4 -9.2
Q 27.4 -9.5 27.3 -9.7 27.2 -9.9 27 -10 26.55 -10.2 26.1 -10.2 25.45 -10.2 25.1 -10 24.85 -9.9 24.75 -9.7 24.65 -9.5 24.65 -9.2
L 24.65 8.55
Q 24.65 8.85 24.75 9 24.85 9.25 25.1 9.3 25.45 9.5 26.1 9.5 26.55 9.5 27 9.3 27.2 9.25 27.3 9 27.4 8.85 27.4 8.55
L 27.4 -9.2
M 20.15 -8.35
Q 19.95 -8.4 19.7 -8.45 19.4 -8.5 19.05 -8.5
L 13.9 -8.5
Q 13.6 -8.5 13.4 -8.4 13.2 -8.3 13.05 -8.1 12.8 -7.75 12.8 -7.25 12.8 -7 12.85 -6.8 12.95 -6.55 13.05 -6.4 13.2 -6.2 13.4 -6.1 13.6 -6 13.9 -6
L 18.15 -6
Q 18.1 -5.5 18.05 -5.05 18 -4.6 17.95 -4.2 17.85 -3.8 17.75 -3.5 17.65 -3.15 17.55 -2.85 17.45 -2.55 17.3 -2.3 17.15 -2.05 17 -1.85 16.85 -1.6 16.65 -1.4 16.5 -1.15 16.4 -0.95 16.15 -0.7 15.95 -0.55 15.8 -0.35 15.7 -0.2 15.55 -0.05 15.4 0.1 15.25 0.25 15.05 0.35 14.9 0.5 14.75 0.6 14.6 0.75 14.4 0.85 14.15 1 13.85 1.15 13.6 1.3 13.2 1.45 12.95 1.6 12.85 1.75 12.7 1.9 12.65 2.1 12.6 2.3 12.6 2.5 12.65 2.75 12.75 3 12.85 3.25 13 3.45 13.1 3.65 13.3 3.75 13.45 3.9 13.65 3.95 13.85 3.95 14.1 3.85 14.55 3.65 14.95 3.45 15.35 3.25 15.65 3.05 16 2.9 16.2 2.75 16.5 2.55 16.7 2.35 16.95 2.2 17.15 2 17.4 1.75 17.6 1.55 17.8 1.35 18 1.05 18.2 0.8 18.45 0.5 18.8 0.2 19.05 -0.2 19.35 -0.55 19.55 -0.95 19.8 -1.35 19.95 -1.75 20.15 -2.2 20.25 -2.65 20.45 -3.15 20.6 -3.6 20.75 -4.05 20.85 -4.55 20.9 -5.05 20.95 -5.5 20.95 -6 20.95 -6.45 20.95 -6.65 20.95 -6.9 20.95 -7.1 20.95 -7.3 20.95 -7.5 20.9 -7.65 20.85 -7.8 20.75 -7.9 20.65 -8.05 20.5 -8.15 20.35 -8.25 20.15 -8.35
M 5.4 -7.95
Q 5.3 -8.15 5.25 -8.35 5.1 -8.5 4.9 -8.6 4.7 -8.7 4.45 -8.7
L -4.35 -8.7
Q -4.95 -8.7 -5.4 -8.6 -5.85 -8.5 -6.15 -8.3 -6.45 -8.1 -6.6 -7.75 -6.8 -7.35 -6.8 -6.8
L -6.8 -1.55
Q -6.8 -0.95 -6.6 -0.6 -6.5 -0.4 -6.4 -0.25 -6.3 -0.1 -6.15 0 -5.9 0.2 -5.45 0.25 -5.2 0.3 -4.95 0.35 -4.7 0.35 -4.35 0.35
L -1.9 0.35
Q -1.95 0.4 -1.95 0.45 -1.95 0.5 -1.95 0.55
L -1.95 4.05 -8.8 4.05
Q -9.1 4.05 -9.3 4.15 -9.5 4.25 -9.6 4.45 -9.65 4.6 -9.7 4.85 -9.75 5.1 -9.75 5.35 -9.75 5.6 -9.7 5.8 -9.65 6 -9.6 6.2 -9.5 6.4 -9.3 6.5 -9.1 6.55 -8.8 6.55
L 7.7 6.55
Q 8 6.55 8.2 6.5 8.4 6.4 8.5 6.2 8.6 6 8.65 5.8 8.7 5.6 8.7 5.35 8.7 5.1 8.65 4.85 8.6 4.6 8.5 4.45 8.4 4.25 8.2 4.15 8 4.05 7.7 4.05
L 0.9 4.05 0.9 0.35 4.85 0.35
Q 5.05 0.35 5.25 0.25 5.4 0.15 5.55 0 5.7 -0.2 5.8 -0.4 5.85 -0.6 5.85 -0.85 5.85 -1.1 5.8 -1.35 5.7 -1.55 5.55 -1.75 5.4 -1.95 5.25 -2.05 5.05 -2.1 4.85 -2.1
L -3.9 -2.1 -3.9 -6.25 4.45 -6.25
Q 4.7 -6.25 4.9 -6.3 5.1 -6.4 5.25 -6.6 5.3 -6.75 5.4 -7 5.45 -7.2 5.45 -7.45 5.45 -7.7 5.4 -7.95 Z"/>
</g>

<g id="fbd54454d34_1_Layer1_0_FILL">
<path fill="#7AA5C4" stroke="none" d="
M 42.55 -9.55
Q 42.55 -19.55 32.55 -19.55
L -32.5 -19.55
Q -42.5 -19.55 -42.5 -9.55
L -42.5 9.5
Q -42.5 19.5 -32.5 19.5
L 32.55 19.5
Q 42.55 19.5 42.55 9.5
L 42.55 -9.55 Z"/>
</g>

<g id="fbd54454d34_1_Layer0_0_FILL">
<path fill="#FFFFFF" stroke="none" d="
M -15.2 2.75
Q -15.2 2.35 -15.3 2.05 -15.45 1.75 -15.7 1.55 -16 1.35 -16.35 1.25 -16.65 1.15 -17.1 1.15
L -24.75 1.15
Q -25.2 1.15 -25.55 1.25 -25.85 1.35 -26.1 1.55 -26.35 1.75 -26.5 2.05 -26.6 2.35 -26.6 2.75
L -26.6 7.15
Q -26.6 8 -26.1 8.35 -25.85 8.5 -25.55 8.6 -25.2 8.65 -24.75 8.65
L -17.1 8.65
Q -16.25 8.65 -15.7 8.35 -15.45 8.2 -15.3 7.9 -15.2 7.6 -15.2 7.15
L -15.2 2.75
M -18.6 3.65
Q -18.5 3.65 -18.4 3.7 -18.25 3.75 -18.2 3.8 -18.15 3.9 -18.1 4.05 -18.05 4.15 -18.05 4.3
L -18.05 5.6
Q -18.05 5.9 -18.2 6.05 -18.25 6.1 -18.4 6.15 -18.5 6.2 -18.6 6.2
L -23.25 6.2
Q -23.4 6.2 -23.5 6.15 -23.55 6.1 -23.65 6.05 -23.7 5.95 -23.75 5.85 -23.8 5.75 -23.8 5.6
L -23.8 4.3
Q -23.8 4.15 -23.75 4.05 -23.7 3.9 -23.65 3.8 -23.55 3.75 -23.5 3.7 -23.4 3.65 -23.25 3.65
L -18.6 3.65
M -13.05 -6.2
L -14.95 -6.2 -14.95 -9.3
Q -14.95 -9.9 -15.35 -10.1 -15.55 -10.2 -15.8 -10.25 -16.05 -10.3 -16.35 -10.3 -16.45 -10.3 -16.6 -10.3 -16.75 -10.25 -16.85 -10.25 -17 -10.2 -17.1 -10.2 -17.25 -10.15 -17.35 -10.1 -17.45 -10.05 -17.5 -9.95 -17.55 -9.9 -17.65 -9.8 -17.7 -9.7 -17.75 -9.55 -17.8 -9.45 -17.8 -9.3
L -17.8 -0.8
Q -17.8 -0.6 -17.75 -0.5 -17.7 -0.35 -17.65 -0.25 -17.55 -0.1 -17.5 0 -17.45 0.05 -17.35 0.1 -17.25 0.15 -17.15 0.2 -17 0.2 -16.85 0.25 -16.75 0.25 -16.6 0.25 -16.5 0.3 -16.4 0.3 -16.1 0.3 -15.9 0.25 -15.8 0.2 -15.7 0.2 -15.6 0.15 -15.45 0.1 -15.2 0 -15.1 -0.25 -15 -0.35 -15 -0.5 -14.95 -0.6 -14.95 -0.8
L -14.95 -3.75 -13.05 -3.75
Q -12.75 -3.75 -12.55 -3.85 -12.35 -3.95 -12.3 -4.1 -12.2 -4.3 -12.15 -4.5 -12.15 -4.7 -12.15 -4.95 -12.15 -5.2 -12.15 -5.45 -12.2 -5.65 -12.3 -5.85 -12.35 -6.05 -12.55 -6.1 -12.75 -6.2 -13.05 -6.2
M -24.9 -9.55
Q -25.05 -9.55 -25.15 -9.55 -25.3 -9.55 -25.4 -9.55 -25.5 -9.5 -25.6 -9.45 -25.75 -9.45 -25.85 -9.4 -26 -9.3 -26.05 -9.25 -26.15 -9.15 -26.2 -9.1 -26.25 -8.95 -26.3 -8.85 -26.3 -8.75 -26.3 -8.6
L -26.3 -7.75
Q -26.3 -7.45 -26.4 -7.05 -26.45 -6.7 -26.6 -6.35 -26.7 -5.95 -26.85 -5.6 -27 -5.25 -27.15 -4.9 -27.4 -4.55 -27.7 -4.2 -27.95 -3.9 -28.25 -3.6 -28.55 -3.25 -28.85 -3.05 -29.2 -2.75 -29.55 -2.55 -29.65 -2.5 -29.7 -2.4 -29.8 -2.35 -29.85 -2.25 -29.9 -2.15 -29.95 -2.05 -29.95 -2 -29.95 -1.9 -29.95 -1.8 -29.95 -1.7 -29.9 -1.65 -29.85 -1.55 -29.85 -1.45 -29.8 -1.4 -29.75 -1.3 -29.7 -1.2 -29.6 -0.9 -29.45 -0.7 -29.25 -0.55 -29 -0.45 -28.75 -0.35 -28.55 -0.35 -28.25 -0.35 -28 -0.5 -27.8 -0.6 -27.6 -0.8 -27.35 -0.95 -27.15 -1.15 -26.95 -1.35 -26.7 -1.55 -26.5 -1.75 -26.25 -2 -26.1 -2.2 -25.95 -2.45 -25.75 -2.65 -25.55 -2.9 -25.4 -3.15 -25.2 -3.4 -25 -3.6 -24.85 -3.85 -24.5 -3.4 -24.15 -2.9 -23.8 -2.5 -23.4 -2.05 -23 -1.6 -22.45 -1.25 -21.95 -0.9 -21.35 -0.65 -21.15 -0.55 -20.95 -0.55 -20.75 -0.6 -20.55 -0.7 -20.35 -0.85 -20.2 -1.05 -20.05 -1.2 -19.95 -1.45 -19.85 -1.65 -19.8 -1.85 -19.75 -2.05 -19.75 -2.25 -19.75 -2.4 -19.85 -2.55 -19.95 -2.7 -20.15 -2.85 -20.45 -3.05 -20.75 -3.3 -21.05 -3.5 -21.3 -3.8 -21.6 -4.05 -21.85 -4.35 -22.15 -4.65 -22.4 -4.95 -22.6 -5.25 -22.75 -5.6 -22.95 -5.95 -23.1 -6.3 -23.3 -6.65 -23.4 -7 -23.5 -7.35 -23.5 -7.75
L -23.55 -8.6
Q -23.55 -8.9 -23.65 -9.1 -23.75 -9.25 -23.95 -9.35 -24.15 -9.45 -24.4 -9.5 -24.65 -9.55 -24.9 -9.55
M 5.95 3.3
Q 5.95 3.15 5.9 2.95 5.85 2.75 5.75 2.55 5.55 2.2 5.3 1.9 5.2 1.8 5.05 1.7 4.9 1.6 4.75 1.5 4.55 1.4 4.35 1.4 4.15 1.35 3.95 1.35
L -4.3 1.35
Q -4.5 1.35 -4.7 1.45 -4.85 1.55 -5 1.7 -5.15 1.9 -5.2 2.1 -5.25 2.35 -5.25 2.6 -5.25 3.05 -5 3.45 -4.85 3.65 -4.7 3.75 -4.5 3.8 -4.3 3.8
L 3.15 3.8 3.15 8.65
Q 3.15 9.1 3.6 9.4 3.8 9.55 4 9.6 4.2 9.7 4.45 9.7 4.55 9.7 4.65 9.65 4.8 9.65 4.95 9.6 5.1 9.55 5.2 9.5 5.3 9.45 5.4 9.4 5.6 9.25 5.75 9.05 5.85 9 5.9 8.85 5.95 8.75 5.95 8.65
L 5.95 3.3
M 26.7 -9
Q 26.7 -9.25 26.6 -9.5 26.5 -9.75 26.25 -9.9 26.05 -10.05 25.8 -10.15 25.55 -10.2 25.3 -10.2 24.95 -10.2 24.7 -10.15 24.45 -10.05 24.25 -9.9 24.05 -9.75 23.9 -9.5 23.8 -9.25 23.85 -9
L 23.85 8.3
Q 23.8 8.6 23.9 8.85 24.05 9.05 24.25 9.2 24.45 9.35 24.7 9.45 24.95 9.5 25.3 9.5 25.55 9.5 25.8 9.45 26.05 9.35 26.25 9.2 26.5 9.05 26.6 8.85 26.7 8.6 26.7 8.3
L 26.7 -0.65 28.6 -0.65
Q 28.9 -0.65 29.1 -0.75 29.3 -0.85 29.45 -1.05 29.55 -1.2 29.65 -1.45 29.7 -1.65 29.7 -1.9 29.7 -2.15 29.65 -2.35 29.55 -2.6 29.45 -2.75 29.3 -2.95 29.1 -3.05 28.9 -3.15 28.6 -3.15
L 26.7 -3.15 26.7 -9
M 12.15 -7.15
Q 12.15 -6.6 12.35 -6.25 12.55 -5.9 13.1 -5.9
L 15.6 -5.9 15.6 -4.95
Q 15.6 -3.95 15.4 -3.1 15.2 -2.2 14.8 -1.45 14.4 -0.65 13.75 0.05 13.15 0.75 12.4 1.35
L 12.45 1.3 12.15 1.55
Q 11.65 1.9 11.75 2.3 11.8 2.5 11.9 2.65 12 2.9 12.15 3.05 12.2 3.15 12.3 3.25 12.35 3.35 12.5 3.4 12.6 3.5 12.7 3.55 12.8 3.6 12.95 3.65 13 3.7 13.1 3.7 13.25 3.7 13.35 3.7 13.5 3.7 13.6 3.65 13.7 3.65 13.8 3.55
L 13.75 3.55
Q 14.8 2.7 15.65 1.8 16.05 1.35 16.4 0.85 16.8 0.35 17.1 -0.3 17.35 0.25 17.7 0.75 18.05 1.3 18.45 1.8 18.85 2.3 19.35 2.7 19.8 3.15 20.4 3.4 20.6 3.6 20.85 3.65 21.05 3.7 21.25 3.65 21.45 3.6 21.6 3.5 21.75 3.35 21.85 3.15 21.9 3.05 22 2.95 22.1 2.9 22.15 2.75 22.25 2.65 22.3 2.55 22.35 2.4 22.4 2.3 22.4 2.2 22.4 2.05 22.4 1.95 22.35 1.8 22.3 1.75 22.2 1.65 22.1 1.5 21.95 1.4 21.05 0.75 20.4 0.05 19.75 -0.7 19.3 -1.45 18.85 -2.25 18.65 -3.15 18.45 -4 18.45 -4.95
L 18.45 -5.9 20.85 -5.9
Q 21.1 -5.9 21.35 -6 21.5 -6.05 21.65 -6.25 21.8 -6.6 21.8 -7.15 21.8 -7.35 21.75 -7.6 21.7 -7.8 21.65 -8 21.5 -8.15 21.35 -8.25 21.1 -8.35 20.85 -8.35
L 13.1 -8.35
Q 12.85 -8.35 12.65 -8.25 12.45 -8.15 12.35 -8 12.25 -7.8 12.2 -7.6 12.15 -7.35 12.15 -7.15
M 0.1 -7.25
Q 0.15 -7.75 0.05 -8.15 -0.05 -8.55 -0.3 -8.85 -0.55 -9.15 -0.9 -9.3 -1.3 -9.45 -1.7 -9.45
L -7.2 -9.45
Q -7.5 -9.45 -7.7 -9.35 -7.95 -9.25 -8 -9.1 -8.15 -8.9 -8.2 -8.7 -8.25 -8.45 -8.25 -8.2 -8.25 -7.95 -8.2 -7.75 -8.15 -7.5 -8 -7.35 -7.85 -6.95 -7.2 -6.95
L -2.75 -6.95
Q -2.8 -6.8 -2.85 -6.7 -2.85 -6.55 -2.9 -6.45 -3 -6.2 -3.15 -5.95 -3.2 -5.85 -3.3 -5.7 -3.35 -5.55 -3.4 -5.4 -3.5 -5.25 -3.65 -5.1 -3.75 -4.95 -3.9 -4.75 -4.1 -4.5 -4.3 -4.3 -4.5 -4.1 -4.65 -3.95 -4.85 -3.75 -5 -3.6 -5.2 -3.4 -5.35 -3.25 -5.6 -3.1 -5.85 -2.95 -6.1 -2.8 -6.35 -2.65 -6.65 -2.5 -6.95 -2.35 -7.25 -2.2 -7.6 -2 -7.75 -1.95 -7.85 -1.9 -7.95 -1.85 -8 -1.75 -8.05 -1.65 -8.1 -1.55 -8.15 -1.5 -8.15 -1.4 -8.2 -1.25 -8.2 -1.15 -8.2 -1.05 -8.2 -0.95 -8.2 -0.8 -8.15 -0.7 -8.15 -0.6 -8.1 -0.5 -8 -0.2 -7.85 0 -7.75 0.15 -7.6 0.3 -7.45 0.4 -7.25 0.45 -7.05 0.45 -6.85 0.4 -6.45 0.25 -6.1 0.1 -5.7 -0.05 -5.3 -0.25 -4.95 -0.4 -4.6 -0.6 -4.3 -0.8 -4 -1.05 -3.7 -1.25 -3.4 -1.5 -3.15 -1.75 -2.9 -2 -2.6 -2.25 -2.4 -2.5 -2.15 -2.75 -1.9 -3 -1.5 -3.5 -1.15 -4 -0.8 -4.55 -0.5 -5.15 -0.25 -5.65 -0.1 -6.2 0.05 -6.75 0.1 -7.25
M 7.9 -6.2
L 6 -6.2 6 -9.3
Q 6 -9.9 5.6 -10.1 5.4 -10.2 5.15 -10.25 4.9 -10.3 4.6 -10.3 4.5 -10.3 4.35 -10.3 4.2 -10.25 4.1 -10.25 3.95 -10.2 3.85 -10.2 3.7 -10.15 3.6 -10.1 3.5 -10.05 3.45 -9.95 3.4 -9.9 3.3 -9.8 3.25 -9.7 3.2 -9.55 3.15 -9.45 3.15 -9.3
L 3.15 -0.75
Q 3.15 -0.6 3.2 -0.45 3.25 -0.3 3.3 -0.2 3.4 -0.1 3.45 0 3.5 0.05 3.6 0.1 3.7 0.15 3.8 0.2 3.95 0.25 4.1 0.25 4.2 0.3 4.35 0.3 4.45 0.3 4.55 0.3 4.7 0.3 4.85 0.3 4.95 0.3 5.05 0.25 5.15 0.25 5.25 0.2 5.35 0.15 5.5 0.1 5.6 0.05 5.7 0 5.8 -0.1 5.85 -0.2 5.95 -0.3 5.95 -0.45 6 -0.6 6 -0.75
L 6 -3.75 7.9 -3.75
Q 8.55 -3.75 8.7 -4.1 8.75 -4.3 8.8 -4.5 8.8 -4.7 8.8 -4.95 8.8 -5.2 8.8 -5.45 8.75 -5.65 8.7 -5.85 8.6 -6.05 8.4 -6.1 8.2 -6.2 7.9 -6.2 Z"/>
</g>

<path id="Layer0_0_1_STROKES" stroke="#7AA5C4" stroke-width="5" stroke-linejoin="round" stroke-linecap="butt" fill="none" d="
M 150.95 241.6
L 496.95 241.6
Q 500.35 241.6 502.95 242.35 511.65 244.9 511.95 255.9
L 511.95 602.6
Q 511.95 617.6 496.95 617.6
L 150.95 617.6
Q 135.95 617.6 135.95 602.6
L 135.95 256.6
Q 135.95 241.6 150.95 241.6 Z"/>

<path id="Layer0_2_1_STROKES" stroke="#7AA5C4" stroke-width="5" stroke-linejoin="round" stroke-linecap="butt" fill="none" d="
M 150.95 241.6
L 496.95 241.6
Q 500.35 241.6 502.95 242.35 511.65 244.9 511.95 255.9
L 511.95 602.6
Q 511.95 617.6 496.95 617.6
L 150.95 617.6
Q 135.95 617.6 135.95 602.6
L 135.95 256.6
Q 135.95 241.6 150.95 241.6 Z"/>

<path id="Layer0_4_1_STROKES" stroke="#332D2B" stroke-width="3" stroke-linejoin="round" stroke-linecap="butt" fill="none" d="
M 753.5138122558594 560.7980834960938
L 753.5138122558594 320.45"/>

<path id="Layer0_5_1_STROKES" stroke="#332D2B" stroke-width="3" stroke-linejoin="round" stroke-linecap="butt" fill="none" d="
M 206 320.45
L 526.45 320.45"/>
</defs>

<g transform="matrix( 1, 0, 0, 1, 42.25,1) ">
<use xlink:href="#Layer0_0_1_STROKES"/>
</g>

<g transform="matrix( 1, 0, 0, 1, 256.75,242.6) ">
<g transform="matrix( 1, 0, 0, 1, 0,0) ">
<use xlink:href="#fbd54454d34_0_Layer1_0_FILL"/>
</g>

<g transform="matrix( 1, 0, 0, 1, 0,0) ">
<use xlink:href="#fbd54454d34_0_Layer0_0_FILL"/>
</g>
</g>

<g transform="matrix( 1, 0, 0, 1, 589.9,1) ">
<use xlink:href="#Layer0_2_1_STROKES"/>
</g>

<g transform="matrix( 1, 0, 0, 1, 804.4,242.6) ">
<g transform="matrix( 1, 0, 0, 1, 0,0) ">
<use xlink:href="#fbd54454d34_1_Layer1_0_FILL"/>
</g>

<g transform="matrix( 1, 0, 0, 1, 0,0) ">
<use xlink:href="#fbd54454d34_1_Layer0_0_FILL"/>
</g>
</g>

<g transform="matrix( 4.71270751953125, 0, 0, 4.71270751953125, 752.1,320.45) ">
<use xlink:href="#Layer0_4_1_STROKES" transform="matrix( 0.212188720703125, 0, 0, 0.212188720703125, -159.55,-67.95) "/>
</g>

<g transform="matrix( 1, 0, 0, 1, 0,0) ">
<use xlink:href="#Layer0_5_1_STROKES"/>
</g>
</svg>
