<?xml version="1.0" encoding="utf-8"?>
<!-- Generator: Adobe Illustrator 23.1.0, SVG Export Plug-In . SVG Version: 6.00 Build 0)  -->
<svg version="1.1" id="레이어_1" xmlns="http://www.w3.org/2000/svg" xmlns:xlink="http://www.w3.org/1999/xlink" x="0px"
	 y="0px" width="1280px" height="580px" viewBox="0 0 1280 580" style="enable-background:new 0 0 1280 580;" xml:space="preserve">
<path style="opacity:0.5;fill:#FFFFFF;enable-background:new    ;" d="M1280,1.1c-41.9,0.5-64.8,3.1-88.9,5.8
	c-28.1,3.2-57.1,6.4-114.8,6.4c-57.7,0-86.7-3.3-114.8-6.4c-26.7-3-52-5.8-103.3-5.8c-51.4,0-76.6,2.8-103.3,5.8
	c-28.1,3.2-57.1,6.4-114.8,6.4c-57.6,0-86.6-3.3-114.7-6.4l0,0h-0.1C498.6,3.8,473.4,1,422,1s-76.6,2.8-103.3,5.8
	c-28.1,3.2-57.1,6.4-114.8,6.4S117.2,9.9,89.1,6.8C65,4.1,42,1.6,0,1.1V580h448.9l0,0H1280V1.1z"/>
</svg>
