
<svg xmlns="http://www.w3.org/2000/svg" version="1.1" xmlns:xlink="http://www.w3.org/1999/xlink" preserveAspectRatio="none" x="0px" y="0px" width="1280px" height="720px" viewBox="0 0 1280 720">
<defs>
<g id="Layer0_0_FILL">
<path fill="#1E1E1E" stroke="none" d="
M 726.45 507.9
Q 724.2 508.45 722.7 509.35 721.15 510.3 720.3 511.65 719.5 512.95 719.5 514.5 719.5 516.05 720.3 517.35 721.15 518.7 722.7 519.6 724.2 520.55 726.45 521.05 728.65 521.6 731.5 521.6 734.35 521.6 736.55 521.05 738.8 520.55 740.3 519.6 741.8 518.7 742.6 517.35 743.4 516.05 743.4 514.5 743.4 512.95 742.6 511.65 741.8 510.3 740.3 509.35 738.8 508.45 736.55 507.9 734.35 507.4 731.5 507.4 728.65 507.4 726.45 507.9
M 726.25 517.05
Q 724.4 516.15 724.4 514.5 724.4 512.85 726.25 511.95 728.1 511 731.5 511 734.9 511 736.75 511.95 738.6 512.85 738.6 514.5 738.6 516.15 736.75 517.05 734.9 518 731.5 518 728.1 518 726.25 517.05
M 732.25 493.95
L 732.25 487.95
Q 732.25 486.55 731.7 485.95 731.15 485.3 729.55 485.3
L 716.2 485.3
Q 716 485.3 715.85 485.45 715.65 485.55 715.65 485.8
L 715.65 488.4
Q 715.65 488.6 715.85 488.75 716 488.9 716.2 488.9
L 727.1 488.9
Q 727.55 488.9 727.6 488.95 727.7 489.05 727.7 489.5
L 727.7 492.6
Q 727.7 493 727.6 493.1 727.55 493.15 727.1 493.15
L 717.85 493.15
Q 716.6 493.15 716.05 493.7 715.5 494.25 715.5 495.4
L 715.5 502.2
Q 715.5 503.45 716.05 504 716.6 504.6 718.2 504.65 720.3 504.75 722.7 504.7 725.05 504.6 727.4 504.45 729.8 504.3 732 504 734.25 503.75 736.15 503.4 736.35 503.35 736.5 503.15 736.65 503 736.6 502.8
L 736.2 500.35
Q 736.15 500.1 735.95 500.05 735.75 500 735.55 500.05 732.25 500.55 728.35 500.85 724.4 501.1 720.8 501 720.05 501 720.05 500.35
L 720.05 497.15
Q 720.05 496.8 720.2 496.7 720.3 496.6 720.65 496.6
L 729.75 496.6
Q 731 496.6 731.65 496 732.25 495.45 732.25 493.95
M 738.9 483.65
Q 738.4 483.65 738.4 484.2
L 738.4 506.2
Q 738.4 506.8 738.9 506.8
L 742.45 506.8
Q 743 506.8 743 506.25
L 743 501.75 748.4 501.75
Q 748.6 501.75 748.8 501.55 749 501.35 749 501.2
L 749 498.4
Q 749 498.15 748.8 498.05 748.6 497.9 748.4 497.9
L 743 497.9 743 493.95 748.4 493.95
Q 748.6 493.95 748.8 493.8 749 493.6 749 493.4
L 749 490.55
Q 749 490.4 748.8 490.25 748.6 490.1 748.4 490.1
L 743 490.1 743 484.2
Q 743 483.65 742.45 483.65
L 738.9 483.65
M 710.85 503.75
L 710.85 501.3
Q 710.85 501.1 710.65 500.9 710.45 500.7 710.25 500.7
L 675.45 500.7
Q 675.15 500.7 675 500.9 674.85 501.05 674.85 501.3
L 674.85 503.75
Q 674.85 504.3 675.45 504.3
L 690.6 504.3 690.6 507.1 681.15 507.1
Q 680.95 507.1 680.75 507.25 680.6 507.45 680.6 507.65
L 680.6 510.25
Q 680.6 510.45 680.75 510.6 680.95 510.75 681.15 510.75
L 700.2 510.75
Q 700.6 510.75 700.65 510.85 700.75 510.9 700.75 511.35
L 700.75 512.2
Q 700.75 512.55 700.65 512.6 700.6 512.65 700.25 512.65
L 683.3 512.65
Q 681.75 512.65 681.2 513.25 680.65 513.8 680.65 515.05
L 680.65 519.1
Q 680.65 520.4 681.25 520.95 681.8 521.5 683.35 521.5
L 705.6 521.5
Q 705.8 521.5 706 521.3 706.2 521.15 706.2 520.95
L 706.2 518.45
Q 706.2 518.15 706 518.05 705.8 517.9 705.6 517.9
L 685.7 517.9
Q 685.35 517.9 685.25 517.85 685.15 517.8 685.15 517.4
L 685.15 516.5
Q 685.15 516.2 685.25 516.1 685.35 516 685.65 516
L 702.5 516
Q 704.15 516 704.7 515.5 705.2 515 705.2 513.6
L 705.2 509.45
Q 705.2 508.1 704.7 507.6 704.15 507.1 702.5 507.1
L 695 507.1 695 504.3 710.25 504.3
Q 710.45 504.3 710.65 504.15 710.85 503.95 710.85 503.75
M 681.7 488.25
Q 681.15 488.25 681.15 488.7
L 681.15 490.95
Q 681.15 491.5 681.7 491.5
L 695.45 491.5
Q 695.55 491.5 695.7 491.55 695.85 491.6 695.9 491.65 696 491.7 695.9 491.8 695.8 491.9 695.45 492 692.05 493.25 688 494.2 683.95 495.15 679.15 495.85 678.85 495.85 678.7 496.1 678.55 496.35 678.6 496.65
L 679.3 498.8
Q 679.35 499 679.75 499.15 680.1 499.25 680.4 499.2 683.55 498.75 686.8 498.1 690 497.45 692.95 496.6 694.35 496.9 696.15 497.25 697.9 497.6 699.65 497.95 701.4 498.3 702.95 498.55 704.55 498.8 705.65 498.9 706.05 498.95 706.3 498.75 706.55 498.6 706.6 498.35
L 707.25 496.35
Q 707.3 496.1 707.15 495.85 707.05 495.6 706.7 495.55 704.65 495.4 702.65 495.05 700.7 494.75 698.9 494.4 700.75 493.55 701.9 492.45 702.5 491.95 702.9 491.3 703.3 490.7 703.3 490.05 703.3 489.25 702.45 488.75 701.6 488.25 699.85 488.25
L 681.7 488.25
M 687.3 483.4
Q 687.15 483.4 686.9 483.55 686.7 483.7 686.7 483.95
L 686.7 486
Q 686.7 486.3 686.9 486.45 687.15 486.65 687.3 486.65
L 697.55 486.65
Q 697.8 486.65 698.05 486.4 698.2 486.2 698.2 486
L 698.2 484
Q 698.2 483.8 698 483.6 697.75 483.4 697.55 483.4
L 687.3 483.4
M 673.05 504.05
Q 672.85 503.85 672.65 503.85
L 637.85 503.85
Q 637.55 503.85 637.4 504.05 637.25 504.25 637.25 504.45
L 637.25 507.05
Q 637.25 507.25 637.4 507.5 637.55 507.7 637.85 507.7
L 652.9 507.7 652.9 520.8
Q 652.9 521.35 653.45 521.35
L 656.95 521.35
Q 657.5 521.35 657.5 520.8
L 657.5 507.7 672.65 507.7
Q 672.85 507.7 673.05 507.5 673.25 507.25 673.25 507.05
L 673.25 504.45
Q 673.25 504.25 673.05 504.05
M 655.55 491.6
Q 656.4 493 657.85 494.25 659.3 495.55 661.05 496.65 662.85 497.7 664.8 498.5 666.75 499.25 668.7 499.6 669.35 499.75 669.55 499.25
L 670.75 496.6
Q 670.85 496.3 670.7 496.1 670.55 495.9 670.25 495.85 668.1 495.3 666.05 494.4 664 493.5 662.3 492.25 660.6 491.05 659.3 489.6 658.05 488.15 657.5 486.5 657.65 485.5 657.75 484.3 657.75 483.65 657.2 483.65
L 653.8 483.55
Q 653.5 483.55 653.3 483.75 653.15 483.95 653.1 484.25 652.85 486.75 651.9 488.7 650.95 490.6 649.3 492.1 647.65 493.6 645.4 494.7 643.15 495.8 640.3 496.6 640 496.65 639.85 496.9 639.75 497.2 639.85 497.45
L 641.25 500.05
Q 641.35 500.2 641.6 500.25 641.9 500.25 642.2 500.2 646.75 499 650.2 496.85 653.65 494.65 655.55 491.6
M 619.05 484.2
Q 619.05 483.65 618.5 483.65
L 614.95 483.65
Q 614.4 483.65 614.4 484.2
L 614.4 521.1
Q 614.4 521.65 614.95 521.65
L 618.5 521.65
Q 619.05 521.65 619.05 521.1
L 619.05 502.15 624.45 502.15
Q 624.65 502.15 624.85 502 625 501.8 625 501.6
L 625 498.8
Q 625 498.6 624.85 498.45 624.65 498.3 624.45 498.3
L 619.05 498.3 619.05 484.2
M 591.75 491.8
Q 591.15 491.8 591.15 492.4
L 591.15 495.05
Q 591.15 495.25 591.25 495.45 591.4 495.65 591.7 495.65
L 602 495.65
Q 602.95 495.65 602.9 495.95 602.85 496.2 602.6 496.75 601.85 498.6 600.55 500.4 599.2 502.2 597.5 503.8 595.85 505.45 593.75 506.9 591.7 508.35 589.5 509.55 589.25 509.65 589.15 510.05 589 510.4 589.25 510.85
L 590.5 512.8
Q 590.7 513.05 591.05 513.05 591.35 513.1 591.7 512.95 594.65 511.4 597.2 509.55 599.75 507.7 601.8 505.55 602.55 506.35 603.5 507.25 604.45 508.15 605.45 509 606.4 509.8 607.35 510.5 608.3 511.2 609.05 511.65 609.4 511.95 609.7 511.9 610 511.8 610.2 511.6
L 611.65 509.45
Q 611.85 509.15 611.9 508.85 611.95 508.55 611.65 508.35 610.8 507.8 609.85 507.1 608.9 506.4 607.95 505.65 607 504.85 606.1 504 605.2 503.15 604.4 502.4 606.55 499.4 607.9 495.85 608.3 494.8 608.3 493.8 608.3 493.1 607.6 492.45 606.95 491.8 605.2 491.8
L 591.75 491.8
M 594.15 486.05
L 594.15 488.5
Q 594.15 488.8 594.35 488.95 594.6 489.1 594.75 489.1
L 605.15 489.1
Q 605.4 489.1 605.6 488.9 605.8 488.7 605.8 488.45
L 605.8 486.1
Q 605.8 485.85 605.55 485.65 605.4 485.45 605.15 485.45
L 594.75 485.45
Q 594.6 485.45 594.35 485.6 594.15 485.8 594.15 486.05
M 559.5 509.7
Q 556.2 511.55 556.2 514.75 556.2 518.05 559.5 519.85 562.75 521.65 568.8 521.65 574.9 521.65 578.15 519.85 581.45 518.05 581.45 514.75 581.45 511.55 578.15 509.7 574.9 507.9 568.8 507.9 562.75 507.9 559.5 509.7
M 562.8 517.2
Q 560.8 516.2 560.8 514.8 560.8 513.4 562.8 512.4 564.85 511.4 568.8 511.4 572.8 511.4 574.85 512.4 576.85 513.4 576.85 514.8 576.85 516.2 574.85 517.2 572.8 518.15 568.8 518.15 564.85 518.15 562.8 517.2
M 581.45 494.35
Q 581.45 494 581.25 493.95 581.1 493.85 580.8 493.85
L 562.05 493.85
Q 561.6 493.85 561.45 493.65 561.3 493.45 561.3 493.15
L 561.3 488.8
Q 561.3 488.15 562.05 488.15
L 580.6 488.15
Q 581.15 488.15 581.15 487.6
L 581.15 484.85
Q 581.15 484.35 580.6 484.35
L 559.55 484.35
Q 558.05 484.35 557.35 484.85 556.65 485.4 556.65 486.95
L 556.65 494.75
Q 556.65 496.2 557.3 496.9 557.95 497.6 559.55 497.6
L 566.55 497.6 566.55 501.75 551.45 501.75
Q 551.15 501.75 551 501.9 550.85 502.1 550.85 502.35
L 550.85 505
Q 550.85 505.2 551 505.4 551.15 505.55 551.45 505.55
L 586.2 505.55
Q 586.45 505.55 586.6 505.4 586.8 505.2 586.8 505
L 586.8 502.35
Q 586.8 502.15 586.6 501.95 586.45 501.75 586.2 501.75
L 571.15 501.75 571.15 497.6 580.95 497.6
Q 581.15 497.6 581.25 497.5 581.45 497.35 581.45 497
L 581.45 494.35
M 543.85 484.2
Q 543.85 483.65 543.3 483.65
L 539.75 483.65
Q 539.2 483.65 539.2 484.2
L 539.2 521.1
Q 539.2 521.65 539.75 521.65
L 543.3 521.65
Q 543.85 521.65 543.85 521.1
L 543.85 502.2 549.25 502.2
Q 549.45 502.2 549.65 502 549.8 501.85 549.8 501.65
L 549.8 498.8
Q 549.8 498.6 549.65 498.5 549.45 498.35 549.25 498.35
L 543.85 498.35 543.85 484.2
M 516 490.3
Q 516.15 490.5 516.45 490.5
L 526.75 490.5
Q 527.4 490.5 527.55 490.7 527.65 490.9 527.5 491.6 526.95 493.75 525.65 496.1 524.4 498.45 522.55 500.65 520.7 502.95 518.4 505 516.15 507 513.6 508.6 513.4 508.75 513.2 509.05 513.05 509.4 513.3 509.75
L 514.85 511.8
Q 515.05 512.1 515.4 512.15 515.75 512.2 516.05 512 522.15 508.1 526.2 503 527 504.05 528.05 505.2 529.05 506.35 530.1 507.4 531.1 508.45 532.05 509.25 533.05 510.1 533.75 510.55 534.55 511.1 535.05 510.5
L 536.8 508.55
Q 537 508.25 536.9 507.9 536.8 507.6 536.55 507.4 535.7 506.8 534.65 505.9 533.6 505 532.6 503.9 531.55 502.85 530.55 501.75 529.55 500.55 528.8 499.55 530.15 497.4 531.05 495.2 531.95 493 532.55 490.85 532.65 490.4 532.75 489.85 532.8 489.35 532.8 488.8 532.8 487.85 531.95 487.25 531.05 486.65 529.5 486.65
L 516.45 486.65
Q 516.2 486.65 516.05 486.8 515.85 487 515.85 487.2
L 515.85 489.9
Q 515.85 490.15 516 490.3
M 486.1 499.1
Q 486.85 497.4 486.85 495.25 486.85 493.15 486.1 491.45 485.35 489.75 484 488.5 482.7 487.3 480.95 486.65 479.15 486 477.1 486 475.05 486 473.25 486.65 471.5 487.3 470.2 488.5 468.9 489.75 468.15 491.45 467.35 493.15 467.35 495.25 467.35 497.4 468.15 499.1 468.9 500.8 470.2 501.95 471.5 503.15 473.25 503.8 475.05 504.4 477.05 504.4 479.15 504.4 480.95 503.8 482.7 503.15 484 501.95 485.35 500.8 486.1 499.1
M 473.35 491.25
Q 474.8 489.75 477.1 489.75 479.45 489.75 480.95 491.25 482.4 492.75 482.4 495.25 482.4 497.8 480.95 499.3 479.45 500.8 477.1 500.8 474.8 500.8 473.35 499.3 471.85 497.8 471.85 495.25 471.85 492.75 473.35 491.25
M 489.95 512.05
Q 490.15 512 490.3 511.85 490.5 511.65 490.45 511.35
L 490.2 508.75
Q 490.2 508.45 489.9 508.35 489.65 508.3 489.45 508.35 487 508.65 484 508.9 481.05 509.2 477.9 509.35 474.75 509.5 471.65 509.6 468.45 509.65 465.6 509.6 465.35 509.6 465.2 509.75 465.05 509.95 465.05 510.2
L 465.05 512.9
Q 465.05 513.15 465.2 513.35 465.35 513.5 465.6 513.5 468.45 513.55 471.8 513.45 475.1 513.35 478.4 513.15 481.7 512.95 484.7 512.65 487.7 512.4 489.95 512.05
M 496.7 484.2
Q 496.7 483.65 496.15 483.65
L 492.65 483.65
Q 492.4 483.65 492.25 483.8 492.05 483.95 492.05 484.2
L 492.05 521.1
Q 492.05 521.35 492.25 521.45 492.4 521.65 492.65 521.65
L 496.15 521.65
Q 496.7 521.65 496.7 521.1
L 496.7 484.2
M 458.95 517.6
Q 458.95 517.45 458.75 517.25 458.6 517.1 458.4 517.1
L 439.55 517.1
Q 439.1 517.1 438.95 517 438.8 516.85 438.8 516.45
L 438.8 509.3
Q 438.8 509.1 438.6 508.9 438.4 508.75 438.2 508.75
L 434.75 508.75
Q 434.55 508.75 434.35 508.9 434.2 509.1 434.2 509.3
L 434.2 518.1
Q 434.2 519.65 434.8 520.3 435.4 520.95 437.25 520.95
L 458.4 520.95
Q 458.6 520.95 458.75 520.85 458.95 520.7 458.95 520.45
L 458.95 517.6
M 457.4 484.2
Q 457.4 483.65 456.85 483.65
L 453.3 483.65
Q 452.8 483.65 452.8 484.2
L 452.8 510.1
Q 452.8 510.6 453.3 510.6
L 456.85 510.6
Q 457.4 510.6 457.4 510.1
L 457.4 499.5 462.8 499.5
Q 463 499.5 463.2 499.35 463.4 499.2 463.4 498.95
L 463.4 496.15
Q 463.4 495.95 463.2 495.8 463 495.65 462.8 495.65
L 457.4 495.65 457.4 484.2
M 434.65 486.1
Q 432.9 486.9 431.65 488.25 430.4 489.55 429.65 491.3 428.95 493 428.95 494.95 428.95 496.95 429.65 498.7 430.4 500.45 431.65 501.75 432.9 503.05 434.65 503.8 436.4 504.55 438.6 504.55 440.75 504.55 442.55 503.8 444.35 503.05 445.65 501.75 446.95 500.45 447.65 498.7 448.4 496.95 448.4 494.95 448.4 493 447.65 491.3 446.95 489.55 445.65 488.25 444.35 486.9 442.55 486.1 440.75 485.35 438.6 485.35 436.4 485.35 434.65 486.1
M 433.8 492.85
Q 434.2 491.8 434.85 491.1 435.55 490.35 436.45 489.9 437.45 489.45 438.6 489.45 439.75 489.45 440.7 489.9 441.65 490.35 442.35 491.1 443.05 491.8 443.45 492.85 443.8 493.85 443.8 495.05 443.8 496.2 443.45 497.25 443.05 498.3 442.35 499.05 441.65 499.75 440.7 500.2 439.75 500.65 438.6 500.65 437.45 500.65 436.45 500.2 435.55 499.75 434.85 499.05 434.2 498.3 433.8 497.25 433.4 496.2 433.4 495.05 433.4 493.85 433.8 492.85
M 397.9 509.7
Q 394.6 511.55 394.6 514.75 394.6 518.05 397.9 519.85 401.15 521.65 407.2 521.65 413.3 521.65 416.55 519.85 419.85 518.05 419.85 514.75 419.85 511.55 416.55 509.7 413.3 507.9 407.2 507.9 401.15 507.9 397.9 509.7
M 401.2 517.2
Q 399.2 516.2 399.2 514.8 399.2 513.4 401.2 512.4 403.25 511.4 407.2 511.4 411.2 511.4 413.25 512.4 415.25 513.4 415.25 514.8 415.25 516.2 413.25 517.2 411.2 518.15 407.2 518.15 403.25 518.15 401.2 517.2
M 419.85 494.35
Q 419.85 494 419.65 493.95 419.5 493.85 419.2 493.85
L 400.45 493.85
Q 400 493.85 399.85 493.65 399.7 493.45 399.7 493.15
L 399.7 488.8
Q 399.7 488.15 400.45 488.15
L 419 488.15
Q 419.55 488.15 419.55 487.6
L 419.55 484.85
Q 419.55 484.35 419 484.35
L 397.95 484.35
Q 396.45 484.35 395.75 484.85 395.05 485.4 395.05 486.95
L 395.05 494.75
Q 395.05 496.2 395.7 496.9 396.35 497.6 397.95 497.6
L 404.95 497.6 404.95 501.75 389.85 501.75
Q 389.55 501.75 389.4 501.9 389.25 502.1 389.25 502.35
L 389.25 505
Q 389.25 505.2 389.4 505.4 389.55 505.55 389.85 505.55
L 424.6 505.55
Q 424.85 505.55 425 505.4 425.2 505.2 425.2 505
L 425.2 502.35
Q 425.2 502.15 425 501.95 424.85 501.75 424.6 501.75
L 409.55 501.75 409.55 497.6 419.35 497.6
Q 419.55 497.6 419.65 497.5 419.85 497.35 419.85 497
L 419.85 494.35
M 372.1 508.45
Q 371.6 507.95 369.95 507.95
L 348.65 507.95
Q 348.4 507.95 348.2 508.1 348 508.25 348 508.45
L 348 510.85
Q 348 511.05 348.2 511.2 348.4 511.35 348.65 511.35
L 367.65 511.35
Q 368 511.35 368.05 511.45 368.15 511.55 368.15 512
L 368.15 512.6
Q 368.15 513 368.05 513.05 368 513.15 367.65 513.15
L 350.75 513.15
Q 349.2 513.15 348.65 513.75 348.1 514.3 348.1 515.55
L 348.1 519.4
Q 348.1 520.65 348.7 521.2 349.25 521.8 350.8 521.8
L 373.1 521.8
Q 373.25 521.8 373.45 521.6 373.65 521.4 373.65 521.2
L 373.65 518.85
Q 373.65 518.6 373.45 518.5 373.25 518.35 373.05 518.35
L 353.2 518.35
Q 352.85 518.35 352.75 518.3 352.65 518.25 352.65 517.8
L 352.65 517
Q 352.65 516.7 352.75 516.6 352.85 516.5 353.15 516.5
L 369.95 516.5
Q 371.6 516.5 372.1 516 372.65 515.55 372.65 514.15
L 372.65 510.3
Q 372.65 508.95 372.1 508.45
M 366.55 500
Q 366.75 499.75 366.7 499.5
L 366.4 497.4
Q 366.4 497.2 366.15 497.05 365.95 496.9 365.75 496.95 361.6 497.5 355.75 497.8 349.9 498.1 341.8 498 341.2 498 341.2 498.6
L 341.2 500.95
Q 341.2 501.2 341.4 501.35 341.55 501.6 341.8 501.6 342.55 501.65 343.65 501.65 344.75 501.65 345.95 501.6 347.15 501.6 348.4 501.55 349.65 501.55 350.85 501.5
L 350.85 505.8
Q 350.85 506 351.05 506.2 351.2 506.35 351.45 506.35
L 354.8 506.35
Q 355 506.35 355.2 506.2 355.4 506 355.4 505.8
L 355.4 501.2
Q 356.4 501.15 357.8 501.05 359.15 501 360.65 500.85 362.15 500.75 363.6 500.6 365 500.45 366.2 500.25 366.4 500.2 366.55 500
M 372.65 484.15
Q 372.65 483.6 372.15 483.6
L 368.6 483.6
Q 368.05 483.6 368.05 484.15
L 368.05 502.2 361.2 502.2
Q 361.05 502.2 360.85 502.3 360.65 502.45 360.65 502.65
L 360.65 504.95
Q 360.65 505.15 360.85 505.3 361.05 505.45 361.2 505.45
L 368.05 505.45 368.05 506.2
Q 368.05 506.7 368.6 506.7
L 372.15 506.7
Q 372.65 506.7 372.65 506.2
L 372.65 484.15
M 344.9 492.55
Q 345.55 493.7 346.75 494.55 347.95 495.4 349.6 495.95 351.3 496.4 353.35 496.4 355.4 496.4 357.1 495.95 358.8 495.4 359.95 494.55 361.2 493.7 361.85 492.55 362.5 491.35 362.5 490.05 362.5 488.75 361.85 487.6 361.2 486.45 359.95 485.6 358.8 484.75 357.1 484.25 355.4 483.75 353.35 483.75 351.3 483.75 349.6 484.25 347.95 484.75 346.75 485.6 345.55 486.45 344.9 487.6 344.2 488.75 344.2 490.05 344.2 491.35 344.9 492.55
M 349.9 492.25
Q 348.55 491.4 348.55 490.05 348.55 488.75 349.9 487.85 351.2 487 353.35 487 355.5 487 356.85 487.85 358.2 488.75 358.2 490.05 358.2 491.4 356.85 492.25 355.5 493.15 353.35 493.15 351.2 493.15 349.9 492.25
M 328.6 484.9
Q 328.6 484.4 328.05 484.4
L 324.8 484.4
Q 324.25 484.4 324.25 484.9
L 324.25 519.6
Q 324.25 520.15 324.8 520.15
L 328.05 520.15
Q 328.6 520.15 328.6 519.6
L 328.6 502.2 332.3 502.2 332.3 521.1
Q 332.3 521.65 332.8 521.65
L 336.3 521.65
Q 336.85 521.65 336.85 521.1
L 336.85 484.2
Q 336.85 483.65 336.3 483.65
L 332.85 483.65
Q 332.3 483.65 332.3 484.2
L 332.3 498.35 328.6 498.35 328.6 484.9
M 305.6 490.05
Q 305.6 490.55 306.2 490.55
L 315.05 490.55
Q 315.85 490.55 316.05 490.85 316.25 491.15 316.2 492 316.15 493.95 315.3 496.3 314.45 498.6 312.9 500.9 311.4 503.15 309.2 505.3 307 507.45 304.3 509.1 304.1 509.25 303.95 509.55 303.8 509.85 304.05 510.2
L 305.65 512.45
Q 305.85 512.7 306.2 512.65 306.5 512.6 306.85 512.45 309.95 510.4 312.55 507.9 315.1 505.4 316.9 502.5 318.7 499.6 319.7 496.35 320.7 493.15 320.75 489.65 320.8 488.1 320.2 487.45 319.55 486.8 317.8 486.8
L 306.2 486.8
Q 306 486.8 305.8 486.95 305.6 487.1 305.6 487.3
L 305.6 490.05
M 287.4 493.45
Q 288.4 492.2 289.85 491.5 291.35 490.85 293.4 490.85 294.8 490.85 296 490.95 297.15 491.05 298.2 491.45 298.75 491.7 298.85 491.15
L 298.95 487.95
Q 299 487.55 298.65 487.45 297.75 487.1 296.3 486.9 294.9 486.7 293.75 486.7 290 486.7 287.45 488 284.9 489.35 283.3 491.6 281.75 493.8 281.05 496.85 280.35 499.85 280.35 503.25 280.35 510.7 282.9 514.25 285.45 517.8 290.15 517.8 292.45 517.8 294.3 517 296.15 516.2 297.45 514.75 298.75 513.4 299.4 511.45 300.1 509.6 300.1 507.4 300.1 505.1 299.4 503.3 298.7 501.45 297.4 500.15 296.15 498.85 294.35 498.15 292.6 497.45 290.4 497.45 289.65 497.45 288.85 497.7 288.05 497.9 287.3 498.25 286.55 498.6 285.95 499.05 285.35 499.5 285 500 285.25 498.05 285.85 496.35 286.4 494.7 287.4 493.45
M 285 507.2
Q 285 504.75 286.5 503.2 287.95 501.65 290.55 501.65 293 501.65 294.35 503.25 295.7 504.8 295.7 507.6 295.7 510.45 294.2 512.15 292.65 513.8 290.25 513.8 289.15 513.8 288.15 513.3 287.2 512.8 286.5 511.9 285.8 511 285.4 509.75 285 508.6 285 507.2
M 241.75 509.05
Q 241.75 508.85 241.55 508.7 241.35 508.5 241.15 508.5
L 237.7 508.5
Q 237.5 508.5 237.3 508.7 237.15 508.85 237.15 509.05
L 237.15 518.1
Q 237.15 519.65 237.75 520.3 238.35 520.95 240.15 520.95
L 261.35 520.95
Q 261.55 520.95 261.7 520.85 261.9 520.7 261.9 520.45
L 261.9 517.6
Q 261.9 517.45 261.7 517.25 261.55 517.1 261.35 517.1
L 242.45 517.1
Q 242.05 517.1 241.9 517 241.75 516.85 241.75 516.45
L 241.75 509.05
M 237.85 486.2
Q 237.85 486 237.65 485.8 237.5 485.6 237.25 485.6
L 233.8 485.6
Q 233.6 485.6 233.45 485.8 233.25 486 233.25 486.2
L 233.25 501.3
Q 233.25 502.65 233.85 503.4 234.4 504.1 236.15 504.2 237.9 504.25 240.1 504.2 242.35 504.15 244.7 503.95 247.05 503.75 249.3 503.45 251.6 503.1 253.4 502.6 253.6 502.6 253.75 502.45 253.9 502.3 253.85 502.05
L 253.45 499.4
Q 253.4 499.2 253.15 499.1 252.95 498.95 252.7 499 250.85 499.4 248.9 499.7 247 500 245.1 500.1 243.25 500.25 241.55 500.3 239.9 500.4 238.6 500.3 238.15 500.25 238 500.15 237.85 500.05 237.85 499.65
L 237.85 486.2
M 260.35 484.2
Q 260.35 483.65 259.8 483.65
L 256.25 483.65
Q 255.75 483.65 255.75 484.2
L 255.75 510.1
Q 255.75 510.6 256.25 510.6
L 259.8 510.6
Q 260.35 510.6 260.35 510.1
L 260.35 499.55 265.75 499.55
Q 265.95 499.55 266.15 499.4 266.35 499.25 266.35 499
L 266.35 496.2
Q 266.35 496 266.15 495.85 265.95 495.7 265.75 495.7
L 260.35 495.7 260.35 484.2
M 220 483.8
Q 219.8 483.95 219.8 484.2
L 219.8 521.1
Q 219.8 521.35 220 521.45 220.15 521.65 220.4 521.65
L 223.9 521.65
Q 224.45 521.65 224.45 521.1
L 224.45 484.2
Q 224.45 483.65 223.9 483.65
L 220.4 483.65
Q 220.15 483.65 220 483.8
M 195.85 490.3
Q 196 490.5 196.25 490.5
L 206.55 490.5
Q 207.25 490.5 207.35 490.7 207.5 490.9 207.35 491.6 206.75 493.75 205.5 496.1 204.2 498.45 202.4 500.65 200.55 502.9 198.3 504.95 196 507 193.5 508.55 193.2 508.7 193.05 509 192.85 509.35 193.15 509.7
L 194.7 511.8
Q 194.9 512.1 195.25 512.15 195.6 512.2 195.9 512 198.95 510.05 201.5 507.75 204 505.45 206.05 502.95 206.85 503.95 207.85 505.15 208.85 506.3 209.9 507.35 210.9 508.4 211.9 509.25 212.9 510.1 213.6 510.55 214.4 511.05 214.95 510.5
L 216.65 508.55
Q 216.9 508.25 216.8 507.9 216.7 507.6 216.4 507.4 215.55 506.8 214.55 505.85 213.5 504.9 212.4 503.8 211.35 502.75 210.35 501.6 209.3 500.45 208.6 499.4 209.95 497.25 210.85 495.1 211.8 493 212.35 490.85 212.5 490.4 212.55 489.85 212.65 489.35 212.65 488.8 212.65 487.85 211.75 487.25 210.9 486.65 209.3 486.65
L 196.3 486.65
Q 195.75 486.65 195.75 487.2
L 195.75 489.9
Q 195.75 490.15 195.85 490.3
M 137.2 484
Q 133.45 488.7 131.75 493.45 130.05 498.15 130.05 503.25 130.05 508.3 131.75 513.05 133.45 517.8 137.2 522.45 137.45 522.8 137.75 522.8
L 140.7 522.8
Q 141 522.8 141.05 522.65 141.1 522.5 140.95 522.35 137.7 517.3 136.2 512.6 134.7 507.95 134.7 503.25 134.7 498.55 136.25 493.85 137.75 489.15 140.95 484.1 141.25 483.65 140.7 483.65
L 137.75 483.65
Q 137.45 483.65 137.2 484
M 162.15 516.8
L 162.15 514
Q 162.15 513.4 161.6 513.4
L 149.85 513.4
Q 150.85 512.25 151.85 511.1 152.85 509.9 153.7 508.8 154.8 507.5 156.2 505.9 157.55 504.25 158.75 502.5 159.95 500.7 160.75 498.85 161.55 497 161.55 495.2 161.55 493.1 160.85 491.5 160.15 489.9 159 488.85 157.85 487.8 156.2 487.25 154.6 486.7 152.65 486.7 150.8 486.7 148.8 487.35 146.85 488 145.35 488.8 144.95 489 144.8 489.25 144.7 489.4 144.8 489.6
L 145.35 492.65
Q 145.45 493 145.75 493.05 146.05 493.05 146.4 492.85 148.2 491.8 149.7 491.35 151.25 490.9 152.9 490.9 154.65 490.9 155.8 492.15 157 493.4 157 495.3 157 497 155.4 499.6 153.8 502.25 150.45 506.2
L 144.35 513.45
Q 144.15 513.75 143.95 514.05 143.8 514.4 143.8 514.7
L 143.8 517
Q 143.8 517.5 144.55 517.5
L 161.6 517.5
Q 162.15 517.5 162.15 516.8
M 166.5 484.1
Q 169.7 489.15 171.25 493.85 172.75 498.55 172.75 503.25 172.75 507.95 171.25 512.6 169.75 517.3 166.5 522.35 166.4 522.5 166.45 522.65 166.45 522.8 166.75 522.8
L 169.7 522.8
Q 170.05 522.8 170.25 522.45 174.05 517.8 175.75 513.05 177.45 508.3 177.45 503.25 177.45 498.15 175.75 493.45 174.05 488.7 170.25 484 170.05 483.65 169.7 483.65
L 166.75 483.65
Q 166.25 483.65 166.5 484.1
M 629.05 353.75
Q 628.9 353.95 628.85 354.25 628.6 356.75 627.65 358.7 626.7 360.6 625.05 362.1 623.4 363.6 621.15 364.7 618.9 365.8 616.05 366.6 615.75 366.65 615.6 366.9 615.5 367.2 615.6 367.45
L 617 370.05
Q 617.1 370.2 617.35 370.25 617.65 370.25 617.95 370.2 622.5 369 625.95 366.85 629.4 364.65 631.3 361.6 632.15 363 633.6 364.25 635.05 365.55 636.8 366.65 638.6 367.7 640.55 368.5 642.5 369.25 644.45 369.6 645.1 369.75 645.3 369.25
L 646.5 366.6
Q 646.6 366.3 646.45 366.1 646.3 365.9 646 365.85 643.85 365.3 641.8 364.4 639.75 363.5 638.05 362.25 636.35 361.05 635.05 359.6 633.8 358.15 633.25 356.5 633.4 355.5 633.5 354.3 633.5 353.65 632.95 353.65
L 629.55 353.55
Q 629.25 353.55 629.05 353.75
M 649 377.05
L 649 374.45
Q 649 374.25 648.8 374.05 648.6 373.85 648.4 373.85
L 613.6 373.85
Q 613.3 373.85 613.15 374.05 613 374.25 613 374.45
L 613 377.05
Q 613 377.25 613.15 377.5 613.3 377.7 613.6 377.7
L 628.65 377.7 628.65 390.8
Q 628.65 391.35 629.2 391.35
L 632.7 391.35
Q 633.25 391.35 633.25 390.8
L 633.25 377.7 648.4 377.7
Q 648.6 377.7 648.8 377.5 649 377.25 649 377.05
M 572.3 378.95
L 572.3 381.8
Q 572.3 382 572.5 382.15 572.7 382.3 572.9 382.3
L 592.75 382.3
Q 593.2 382.3 593.35 382.45 593.55 382.55 593.55 382.95
L 593.55 391
Q 593.55 391.2 593.7 391.35 593.9 391.55 594.15 391.55
L 597.55 391.55
Q 597.75 391.55 597.95 391.35 598.15 391.2 598.15 391
L 598.15 381.2
Q 598.15 379.7 597.55 379.1 597 378.45 595.5 378.45
L 572.9 378.45
Q 572.7 378.45 572.5 378.6 572.3 378.7 572.3 378.95
M 579.45 357.7
L 579.45 355.6
Q 579.45 355.4 579.25 355.15 579.05 354.95 578.8 354.95
L 570.4 354.95
Q 570.25 354.95 570.05 355.1 569.8 355.25 569.8 355.55
L 569.8 357.75
Q 569.8 358 570.05 358.15 570.25 358.35 570.4 358.35
L 578.8 358.35
Q 579.1 358.35 579.25 358.15 579.45 357.95 579.45 357.7
M 593.6 354.2
L 593.6 363.85 590.15 363.85 590.15 354.8
Q 590.15 354.3 589.6 354.3
L 586.3 354.3
Q 585.75 354.3 585.75 354.8
L 585.75 376.1
Q 585.75 376.65 586.3 376.65
L 589.6 376.65
Q 590.15 376.65 590.15 376.1
L 590.15 367.7 593.6 367.7 593.6 376.35
Q 593.6 376.9 594.15 376.9
L 597.6 376.9
Q 598.15 376.9 598.15 376.35
L 598.15 354.2
Q 598.15 353.65 597.6 353.65
L 594.15 353.65
Q 593.6 353.65 593.6 354.2
M 566.95 360.9
L 566.95 363.25
Q 566.95 363.55 567.1 363.75 567.25 363.95 567.5 363.95
L 576 363.95
Q 576.6 363.95 576.5 364.2 576.45 364.4 576.3 364.65 575.85 365.6 574.8 366.8 573.7 368 572.25 369.2 570.75 370.4 569.1 371.45 567.4 372.55 565.75 373.3 565.45 373.45 565.35 373.8 565.2 374.2 565.4 374.45
L 566.7 376.35
Q 566.9 376.7 567.25 376.7 567.6 376.7 567.75 376.65 570.15 375.55 572.25 374.15 574.35 372.7 576.15 371 577.45 372.3 578.95 373.45 580.4 374.6 581.7 375.3 582 375.5 582.3 375.45 582.6 375.4 582.8 375.2
L 584.25 373.15
Q 584.65 372.6 583.95 372.15 582.75 371.4 581.4 370.45 580.05 369.45 578.85 368.3 579.8 367.2 580.45 366.2 581.15 365.2 581.6 364.25 581.8 363.8 582 363.25 582.15 362.65 582.15 362.25 582.15 361.2 581.3 360.8 580.5 360.4 578.9 360.4
L 567.55 360.4
Q 566.95 360.4 566.95 360.9
M 524.35 375.5
Q 524.1 375.5 523.95 375.65 523.75 375.85 523.75 376.05
L 523.75 378.7
Q 523.75 378.9 523.95 379.05 524.1 379.2 524.35 379.2
L 542.5 379.2
Q 542.95 379.2 543 379.3 543.1 379.4 543.1 379.8
L 543.1 381.2
Q 543.1 381.6 543 381.7 542.95 381.8 542.6 381.8
L 526.55 381.8
Q 524.9 381.8 524.4 382.4 523.85 382.95 523.85 384.25
L 523.85 389.05
Q 523.85 390.35 524.45 390.95 525 391.55 526.55 391.55
L 548.05 391.55
Q 548.2 391.55 548.4 391.35 548.6 391.2 548.6 391
L 548.6 388.45
Q 548.6 388.15 548.4 388 548.2 387.85 548 387.85
L 528.95 387.85
Q 528.55 387.85 528.45 387.8 528.35 387.75 528.35 387.4
L 528.35 385.75
Q 528.35 385.4 528.45 385.3 528.55 385.2 528.9 385.2
L 544.8 385.2
Q 546.5 385.2 547.05 384.7 547.6 384.2 547.6 382.8
L 547.6 378
Q 547.6 376.6 547.05 376.05 546.5 375.5 544.8 375.5
L 524.35 375.5
M 523.15 354.9
Q 523.15 354.7 523 354.55 522.8 354.4 522.6 354.4
L 519.15 354.4
Q 518.95 354.4 518.8 354.55 518.65 354.7 518.65 354.9
L 518.65 369.45
Q 518.65 371.1 519.3 371.7 519.9 372.3 521.7 372.3
L 533.25 372.3
Q 534.95 372.3 535.6 371.65 536.25 370.95 536.25 369.6
L 536.25 369.1 543.05 369.1 543.05 373.15
Q 543.05 373.7 543.6 373.7
L 547.15 373.7
Q 547.65 373.7 547.65 373.15
L 547.65 354.2
Q 547.65 353.65 547.15 353.65
L 543.6 353.65
Q 543.05 353.65 543.05 354.2
L 543.05 358 536.25 358 536.25 354.85
Q 536.25 354.65 536.1 354.5 535.95 354.35 535.7 354.35
L 532.25 354.35
Q 532.05 354.35 531.9 354.5 531.75 354.65 531.75 354.85
L 531.75 360.15 523.15 360.15 523.15 354.9
M 523.15 367.85
L 523.15 363.85 531.75 363.85 531.75 367.85
Q 531.75 368.55 531 368.55
L 523.9 368.55
Q 523.15 368.55 523.15 367.85
M 536.25 365.4
L 536.25 361.7 543.05 361.7 543.05 365.4 536.25 365.4
M 477.95 376.05
Q 477.8 376.25 477.8 376.5
L 477.8 379.1
Q 477.8 379.3 477.95 379.5 478.1 379.7 478.4 379.7
L 487 379.7 487 390.8
Q 487 391.35 487.6 391.35
L 491.05 391.35
Q 491.6 391.35 491.6 390.8
L 491.6 379.7 500 379.7 500 390.8
Q 500 391.35 500.55 391.35
L 504 391.35
Q 504.55 391.35 504.55 390.8
L 504.55 379.7 513.2 379.7
Q 513.4 379.7 513.6 379.5 513.8 379.3 513.8 379.1
L 513.8 376.5
Q 513.8 376.3 513.6 376.1 513.4 375.85 513.2 375.85
L 478.4 375.85
Q 478.1 375.85 477.95 376.05
M 483.35 354.6
Q 483.15 354.75 483.15 355
L 483.15 357.75
Q 483.15 357.95 483.35 358.05 483.55 358.25 483.75 358.25
L 503.35 358.25
Q 503.7 358.25 503.75 358.3 503.85 358.35 503.85 358.65
L 503.85 360.65
Q 503.85 361 503.75 361.25 503.7 361.5 503.4 361.5
L 485.8 361.5
Q 484.25 361.5 483.7 362.1 483.15 362.65 483.15 363.95
L 483.15 369.75
Q 483.15 371.05 483.75 371.65 484.3 372.2 485.85 372.2
L 508.65 372.2
Q 508.8 372.2 509 372.05 509.2 371.85 509.2 371.65
L 509.2 368.95
Q 509.2 368.75 509 368.6 508.8 368.45 508.6 368.45
L 488.2 368.45
Q 487.85 368.45 487.75 368.4 487.7 368.35 487.7 368
L 487.7 365.6
Q 487.7 365.3 487.75 365.2 487.85 365.1 488.15 365.1
L 505.6 365.1
Q 507.25 365.1 507.8 364.6 508.35 364.15 508.35 362.75
L 508.35 356.8
Q 508.35 355.45 507.8 354.95 507.25 354.45 505.6 354.45
L 483.75 354.45
Q 483.55 354.45 483.35 354.6
M 463.55 378.45
Q 461.15 377.95 458.15 377.95 455.15 377.95 452.8 378.45 450.45 378.95 448.85 379.9 447.2 380.8 446.35 382.05 445.5 383.35 445.5 384.8 445.5 386.35 446.35 387.6 447.2 388.9 448.85 389.8 450.45 390.75 452.8 391.25 455.15 391.75 458.15 391.75 461.15 391.75 463.55 391.25 465.9 390.75 467.5 389.8 469.15 388.9 470 387.6 470.8 386.35 470.8 384.8 470.8 383.35 470 382.05 469.15 380.8 467.5 379.9 465.9 378.95 463.55 378.45
M 458.15 381.4
Q 462.15 381.4 464.2 382.5 466.25 383.55 466.25 384.85 466.25 386.2 464.2 387.2 462.15 388.25 458.15 388.25 454.2 388.25 452.15 387.2 450.1 386.2 450.1 384.85 450.1 383.55 452.15 382.5 454.2 381.4 458.15 381.4
M 440.35 375.2
Q 440.5 375.4 440.8 375.4
L 475.55 375.4
Q 475.8 375.4 475.95 375.2 476.15 375 476.15 374.75
L 476.15 372.25
Q 476.15 372 475.9 371.8 475.6 371.65 475.4 371.65
L 460.5 371.65 460.5 367.45
Q 460.5 366.9 459.95 366.9
L 456.45 366.9
Q 455.9 366.9 455.9 367.45
L 455.9 371.65 440.8 371.65
Q 440.2 371.65 440.2 372.25
L 440.2 374.75
Q 440.2 375 440.35 375.2
M 443.6 364.65
Q 443.4 364.7 443.25 364.95 443.05 365.2 443.1 365.4
L 443.9 367.75
Q 444.1 368.35 444.8 368.25 448.45 367.55 451.8 366.6 455.15 365.6 458.05 364.45 459.6 364.95 461.4 365.4 463.25 365.85 465.1 366.3 466.95 366.75 468.75 367.1 470.5 367.45 472 367.65 472.3 367.75 472.6 367.55 472.8 367.4 472.9 367.2
L 473.7 365
Q 473.8 364.65 473.65 364.45 473.5 364.25 473.15 364.25 472.05 364.05 470.75 363.8 469.4 363.6 468.05 363.3 466.7 363 465.4 362.75 464.15 362.45 463.1 362.2 464.55 361.35 465.75 360.6 466.95 359.8 467.75 359 468.1 358.65 468.7 357.95 469.25 357.2 469.25 356.35 469.25 355.4 468.25 354.95 467.25 354.4 465.7 354.4
L 446.7 354.4
Q 446.15 354.4 446.15 354.9
L 446.15 357.55
Q 446.15 358.1 446.7 358.1
L 461.15 358.1
Q 461.95 358.1 461.8 358.4 461.6 358.65 461.1 358.9 459.35 359.8 457.2 360.65 455.05 361.55 452.75 362.3 450.4 363.05 448.05 363.7 445.7 364.3 443.6 364.65
M 391.55 375.6
Q 391.7 375.85 392 375.85
L 426.75 375.85
Q 427 375.85 427.15 375.6 427.35 375.4 427.35 375.2
L 427.35 372.55
Q 427.35 372.35 427.15 372.15 427 372 426.75 372
L 392 372
Q 391.4 372 391.4 372.55
L 391.4 375.2
Q 391.4 375.4 391.55 375.6
M 397.4 378.8
Q 397.2 378.95 397.2 379.2
L 397.2 387.85
Q 397.2 389.4 397.85 390.05 398.45 390.7 400.3 390.7
L 422.3 390.7
Q 422.5 390.7 422.7 390.55 422.9 390.45 422.9 390.2
L 422.9 387.35
Q 422.9 387.15 422.7 387 422.5 386.85 422.3 386.85
L 402.55 386.85
Q 402.15 386.85 402 386.75 401.8 386.65 401.8 386.2
L 401.8 379.2
Q 401.8 378.95 401.65 378.8 401.45 378.6 401.2 378.6
L 397.8 378.6
Q 397.55 378.6 397.4 378.8
M 402 354.95
Q 402 354.75 401.8 354.55 401.6 354.4 401.35 354.4
L 397.9 354.4
Q 397.7 354.4 397.5 354.55 397.35 354.75 397.35 354.95
L 397.35 365
Q 397.35 366.55 397.95 367.2 398.6 367.85 400.4 367.85
L 421.85 367.85
Q 422.05 367.85 422.25 367.75 422.4 367.6 422.4 367.35
L 422.4 364.5
Q 422.4 364.3 422.25 364.15 422.05 364 421.85 364
L 402.75 364
Q 402.3 364 402.15 363.9 402 363.8 402 363.4
L 402 354.95
M 385.6 354.2
Q 385.6 353.65 385.1 353.65
L 381.55 353.65
Q 381 353.65 381 354.2
L 381 374.3
Q 381 374.85 381.55 374.85
L 385.1 374.85
Q 385.6 374.85 385.6 374.35
L 385.6 354.2
M 358.4 388.45
Q 357.95 388.65 357.95 388.9 357.95 389.15 358.15 389.4
L 359.65 391.55
Q 359.95 391.9 360.25 391.85 360.55 391.8 360.85 391.6 362.9 390.55 364.5 389 366.15 387.45 367.25 385.55 368.2 387.45 369.9 389 371.55 390.55 373.25 391.25 374.1 391.65 374.85 391.25 376.75 390.2 378.35 388.8 379.95 387.4 381.05 385.5 381.55 386.45 382.35 387.35 383.1 388.3 383.95 389.1 384.75 389.85 385.65 390.45 386.55 391.05 387.35 391.35 388 391.65 388.25 391.3
L 389.85 389
Q 390 388.8 389.95 388.55 389.95 388.3 389.6 388.1 388.5 387.55 387.45 386.7 386.35 385.85 385.45 384.75 384.55 383.7 383.9 382.45 383.25 381.15 382.95 379.75 383.05 379.1 383.1 378.45 383.15 377.8 383.15 377.1 383.15 376.85 383 376.75 382.8 376.65 382.55 376.65
L 379.4 376.65
Q 378.9 376.65 378.9 377.2 378.9 380.2 377.85 382.6 376.8 385.05 374.65 386.65 374.3 387 374.05 386.9 373.8 386.85 373.5 386.65 372.8 386.2 372.15 385.5 371.45 384.75 370.85 383.85 370.3 382.95 369.85 381.9 369.4 380.85 369.2 379.65 369.3 379.05 369.35 378.45 369.4 377.8 369.4 377.1 369.4 376.65 368.8 376.65
L 365.65 376.65
Q 365.15 376.65 365.15 377.2 365.15 380.75 363.55 383.6 361.95 386.5 358.4 388.45
M 361.7 355.8
Q 359.95 356.5 358.7 357.75 357.4 358.95 356.7 360.65 356.05 362.35 356.05 364.25 356.05 366.25 356.7 367.95 357.4 369.6 358.7 370.85 359.95 372 361.7 372.7 363.45 373.4 365.55 373.4 367.75 373.4 369.5 372.7 371.3 372 372.6 370.85 373.9 369.6 374.6 367.95 375.3 366.25 375.3 364.25 375.3 362.35 374.6 360.65 373.9 358.95 372.6 357.75 371.3 356.5 369.5 355.8 367.75 355.05 365.55 355.05 363.45 355.05 361.7 355.8
M 360.5 364.35
Q 360.5 361.95 361.9 360.55 363.3 359.2 365.55 359.2 367.95 359.2 369.35 360.55 370.75 361.95 370.75 364.35 370.75 366.75 369.35 368.1 367.95 369.5 365.55 369.5 363.3 369.5 361.9 368.1 360.5 366.75 360.5 364.35
M 326.85 354.85
L 326.85 367.15 323.3 367.15
Q 323.15 364.4 322.4 362.35 321.7 360.3 320.55 358.95 319.35 357.6 317.85 356.95 316.35 356.3 314.55 356.3 312.75 356.3 311.2 357.05 309.65 357.8 308.55 359.4 307.4 360.95 306.75 363.3 306.15 365.65 306.15 368.8 306.15 371.75 306.75 374.05 307.35 376.35 308.45 378 309.5 379.6 311.1 380.5 312.65 381.35 314.55 381.35 316.3 381.35 317.75 380.65 319.25 379.95 320.4 378.6 321.55 377.25 322.3 375.35 323 373.45 323.2 371
L 326.85 371 326.85 389.75
Q 326.85 390.35 327.4 390.35
L 330.7 390.35
Q 331.2 390.35 331.2 389.75
L 331.2 354.85
Q 331.2 354.35 330.7 354.35
L 327.4 354.35
Q 326.85 354.35 326.85 354.85
M 311.55 363.1
Q 312.05 361.85 312.8 361.1 313.55 360.3 314.6 360.3 315.75 360.3 316.55 361.05 317.4 361.8 317.9 363.05 318.4 364.3 318.65 365.85 318.9 367.35 318.9 368.85 318.9 370.35 318.65 371.85 318.35 373.4 317.85 374.6 317.35 375.85 316.55 376.65 315.75 377.45 314.6 377.45 313.55 377.45 312.8 376.65 312.05 375.85 311.55 374.6 311.1 373.35 310.85 371.8 310.6 370.3 310.6 368.85 310.6 367.4 310.85 365.85 311.1 364.35 311.55 363.1
M 338.95 354.2
Q 338.95 353.65 338.4 353.65
L 334.95 353.65
Q 334.4 353.65 334.4 354.2
L 334.4 391.15
Q 334.4 391.65 334.95 391.65
L 338.4 391.65
Q 338.95 391.65 338.95 391.15
L 338.95 354.2
M 303.95 370.4
L 303.95 367.6
Q 303.95 367.4 303.8 367.2 303.6 367.05 303.4 367.05
L 298.15 367.05 298.15 354.2
Q 298.15 353.65 297.65 353.65
L 294.1 353.65
Q 293.55 353.65 293.55 354.2
L 293.55 380.85
Q 293.55 381.35 294.1 381.35
L 297.65 381.35
Q 298.15 381.35 298.15 380.85
L 298.15 370.9 303.4 370.9
Q 303.6 370.9 303.8 370.75 303.95 370.55 303.95 370.4
M 278.95 380.3
Q 278.95 380.1 278.8 379.95 278.55 379.75 278.35 379.75
L 274.9 379.75
Q 274.65 379.75 274.45 379.95 274.3 380.1 274.3 380.3
L 274.3 387.95
Q 274.3 389.5 274.95 390.15 275.6 390.8 277.35 390.8
L 299 390.8
Q 299.25 390.8 299.4 390.65 299.6 390.55 299.6 390.3
L 299.6 387.45
Q 299.6 387.2 299.4 387.1 299.2 386.95 299 386.95
L 279.7 386.95
Q 279.3 386.95 279.15 386.8 278.95 386.7 278.95 386.3
L 278.95 380.3
M 271 359.5
Q 271.2 359.65 271.4 359.65
L 284 359.65
Q 284.6 359.65 284.85 359.8 285.15 359.95 285.15 360.5 285.15 361.05 285.05 362 285 363 284.9 364.05 284.8 365.15 284.6 366.2 284.45 367.25 284.3 368 284.15 368.75 284.7 368.8
L 287.8 369.05
Q 288.1 369.1 288.3 368.85 288.55 368.6 288.6 368.3 288.85 367.35 289.05 366.15 289.2 365 289.35 363.7 289.45 362.45 289.5 361.15 289.6 359.9 289.6 358.75 289.6 357.25 288.9 356.6 288.2 355.9 286.9 355.9
L 271.4 355.9
Q 271.2 355.9 271 356 270.8 356.15 270.8 356.35
L 270.8 359.2
Q 270.8 359.4 271 359.5
M 276.45 364.6
Q 275.9 364.6 275.9 365.2
L 275.9 372.8
Q 273.95 372.8 272.15 372.8 270.3 372.8 268.5 372.7 267.95 372.7 267.95 373.3
L 267.95 375.85
Q 267.95 376.1 268.1 376.3 268.25 376.45 268.5 376.45 270.95 376.55 273.8 376.5 276.65 376.45 279.7 376.35 282.7 376.2 285.75 376 288.8 375.85 291.55 375.5 291.75 375.45 291.9 375.25 292.05 375.05 292 374.75
L 291.8 372.35
Q 291.75 372.05 291.55 372 291.35 371.9 291.1 371.95 288.7 372.2 285.95 372.4 283.25 372.6 280.4 372.65
L 280.4 365.2
Q 280.4 364.6 279.85 364.6
L 276.45 364.6
M 262.7 354.2
Q 262.7 353.65 262.2 353.65
L 258.6 353.65
Q 258.1 353.65 258.1 354.2
L 258.1 366.1 249.85 366.1
Q 249.65 366.1 249.5 366.25 249.3 366.35 249.3 366.6
L 249.3 369.4
Q 249.3 369.6 249.5 369.75 249.65 369.95 249.85 369.95
L 258.1 369.95 258.1 391.1
Q 258.1 391.65 258.6 391.65
L 262.2 391.65
Q 262.7 391.65 262.7 391.1
L 262.7 354.2
M 240.55 355.6
Q 240.35 355.6 240.15 355.8 239.95 356 239.95 356.2 240.05 359.75 239.7 362.8 239.3 365.85 238.3 368.75 237.2 372 235.35 374.9 233.5 377.8 230.9 380.2 230.2 380.85 230.75 381.35
L 232.65 383.15
Q 233.3 383.8 234.05 383.15 235.1 382.3 236.25 381.1 237.35 379.95 238.35 378.5 239.35 377.1 240.3 375.55 241.2 373.95 241.9 372.3 242.4 373.6 243.25 375.05 244.1 376.45 245.1 377.8 246.1 379.15 247.2 380.3 248.3 381.45 249.3 382.2 249.7 382.5 250.05 382.45 250.4 382.45 250.55 382.15
L 252.25 380.1
Q 252.8 379.3 252.2 378.8 250.85 377.8 249.55 376.25 248.2 374.75 247.1 372.95 245.95 371.2 245.1 369.25 244.25 367.3 243.9 365.4 244.6 361.25 244.6 356.35 244.6 356.1 244.45 355.95 244.3 355.75 244.1 355.75
L 240.55 355.6
M 198.15 356.85
Q 197.45 357.4 197.45 358.9
L 197.45 370.55
Q 197.45 372 198.15 372.8 198.9 373.6 200.5 373.6
L 207.95 373.6 207.95 381.3 192.8 381.3
Q 192.5 381.3 192.35 381.45 192.2 381.65 192.2 381.9
L 192.2 384.55
Q 192.2 384.75 192.35 384.95 192.5 385.15 192.8 385.15
L 227.6 385.15
Q 227.8 385.15 228 384.95 228.2 384.75 228.2 384.55
L 228.2 381.9
Q 228.2 381.7 228 381.5 227.8 381.3 227.6 381.3
L 212.5 381.3 212.5 373.6 222.65 373.6
Q 222.85 373.6 223 373.45 223.15 373.3 223.15 373
L 223.15 370.25
Q 223.15 369.95 222.95 369.85 222.8 369.75 222.5 369.75
L 202.8 369.75
Q 202.35 369.75 202.2 369.6 202.05 369.4 202.05 369.05
L 202.05 360.85
Q 202.05 360.15 202.8 360.15
L 222.3 360.15
Q 222.85 360.15 222.85 359.6
L 222.85 356.8
Q 222.85 356.3 222.3 356.3
L 200.35 356.3
Q 198.8 356.3 198.15 356.85
M 175.75 363.45
Q 174.05 358.7 170.25 354 170.05 353.65 169.7 353.65
L 166.75 353.65
Q 166.25 353.65 166.5 354.1 169.7 359.15 171.25 363.85 172.75 368.55 172.75 373.25 172.75 377.95 171.25 382.6 169.75 387.3 166.5 392.35 166.4 392.5 166.45 392.65 166.45 392.8 166.75 392.8
L 169.7 392.8
Q 170.05 392.8 170.25 392.45 174.05 387.8 175.75 383.05 177.45 378.3 177.45 373.25 177.45 368.15 175.75 363.45
M 153.6 357.05
Q 153.45 357.05 153.25 357.15 153.05 357.2 153 357.3
L 146.85 362.95
Q 146.65 363.15 146.65 363.35 146.6 363.6 146.75 363.75
L 148.55 365.9
Q 148.7 366.05 148.95 366 149.2 366 149.45 365.85
L 152.4 363.25 152.4 386.95
Q 152.4 387.45 152.95 387.45
L 156.15 387.45
Q 156.65 387.45 156.65 386.95
L 156.65 358.15
Q 156.65 357.35 156.5 357.2 156.4 357.05 155.7 357.05
L 153.6 357.05
M 137.2 354
Q 133.45 358.7 131.75 363.45 130.05 368.15 130.05 373.25 130.05 378.3 131.75 383.05 133.45 387.8 137.2 392.45 137.45 392.8 137.75 392.8
L 140.7 392.8
Q 141 392.8 141.05 392.65 141.1 392.5 140.95 392.35 137.7 387.3 136.2 382.6 134.7 377.95 134.7 373.25 134.7 368.55 136.25 363.85 137.75 359.15 140.95 354.1 141.25 353.65 140.7 353.65
L 137.75 353.65
Q 137.45 353.65 137.2 354 Z"/>

<path fill="#FFFFFF" stroke="none" d="
M 1219.35 523.85
Q 1220.1 521.15 1220.1 517.9
L 1220.1 487.85
Q 1220.1 472.85 1205.1 472.85
L 1055.1 472.85
Q 1040.1 472.85 1040.1 487.85
L 1040.1 517.9
Q 1040.1 521.55 1040.85 523.85 1043.6 532.9 1055.1 532.9
L 1205.1 532.9
Q 1216.8 532.9 1219.35 523.85
M 1040.1 357.85
L 1040.1 387.9
Q 1040.1 391.55 1040.85 393.85 1043.6 402.9 1055.1 402.9
L 1205.1 402.9
Q 1216.8 402.9 1219.35 393.85 1220.1 391.15 1220.1 387.9
L 1220.1 357.85
Q 1220.1 342.85 1205.1 342.85
L 1055.1 342.85
Q 1040.1 342.85 1040.1 357.85 Z"/>
</g>

<path id="Layer0_0_1_STROKES" stroke="#DBDBDB" stroke-width="3" stroke-linejoin="round" stroke-linecap="round" fill="none" d="
M 1055.1 342.85
L 1205.1 342.85
Q 1220.1 342.85 1220.1 357.85
L 1220.1 387.9
Q 1220.1 391.15 1219.35 393.85 1216.8 402.9 1205.1 402.9
L 1055.1 402.9
Q 1043.6 402.9 1040.85 393.85 1040.1 391.55 1040.1 387.9
L 1040.1 357.85
Q 1040.1 342.85 1055.1 342.85 Z
M 1055.1 472.85
L 1205.1 472.85
Q 1220.1 472.85 1220.1 487.85
L 1220.1 517.9
Q 1220.1 521.15 1219.35 523.85 1216.8 532.9 1205.1 532.9
L 1055.1 532.9
Q 1043.6 532.9 1040.85 523.85 1040.1 521.55 1040.1 517.9
L 1040.1 487.85
Q 1040.1 472.85 1055.1 472.85 Z"/>
</defs>

<g transform="matrix( 1, 0, 0, 1, 0,0) ">
<use xlink:href="#Layer0_0_FILL"/>

<use xlink:href="#Layer0_0_1_STROKES"/>
</g>
</svg>
