<svg xmlns="http://www.w3.org/2000/svg" xmlns:xlink="http://www.w3.org/1999/xlink" viewBox="0 0 312.21 156.31"><defs><style>.cls-1,.cls-3,.cls-4,.cls-5{fill:none;}.cls-2{clip-path:url(#clip-path);}.cls-3{stroke:#00a0e9;}.cls-3,.cls-4{stroke-width:0.4px;stroke-dasharray:1.5 1;}.cls-4{stroke:#7ecef4;}.cls-5{stroke:#000;stroke-linejoin:round;stroke-width:0.8px;}</style><clipPath id="clip-path" transform="translate(0 0)"><rect class="cls-1" width="312.21" height="156.31"/></clipPath></defs><title>자산 2</title><g id="레이어_2" data-name="레이어 2"><g id="레이어_1-2" data-name="레이어 1"><g class="cls-2"><line class="cls-3" x1="0.2" y1="0.2" x2="312.01" y2="0.2"/><path class="cls-4" d="M.2,127.76H312M.2,141.93H312M.2,113.59H312M.2,99.41H312M.2,71.07H312M.2,42.72H312M.2,85.24H312M.2,56.89H312M.2,28.55H312M.2,14.37H312" transform="translate(0 0)"/><path class="cls-3" d="M312,.2V156.11m0,0H.2" transform="translate(0 0)"/></g><path class="cls-4" d="M14.37.2V156.11M127.76.2V156.11M42.72.2V156.11M71.07.2V156.11M85.24.2V156.11M99.41.2V156.11M113.59.2V156.11M170.28.2V156.11M212.8.2V156.11M255.32.2V156.11M28.55.2V156.11M141.93.2V156.11M184.45.2V156.11M227,.2V156.11M269.49.2V156.11M297.84.2V156.11M56.89.2V156.11M156.11.2V156.11M198.63.2V156.11M241.14.2V156.11M283.66.2V156.11" transform="translate(0 0)"/><line class="cls-3" x1="0.2" y1="156.11" x2="0.2" y2="0.2"/><path class="cls-5" d="M184.28,85.24,155.89,99.65l-28.1,42.26h56.49ZM298,113.49,255.47,142,213,113.49,255.47,85Zm-212.82,0L56.72,142,28.26,113.49,56.72,85ZM283.6,42.66,226.91,14.38V71.05H283.6ZM170.26,14.38H141.94L127.83,71.05h56.54ZM99.2,14.33H28.33l-14,42.5H85.2Z" transform="translate(0 0)"/><g class="cls-2"><path d="M59.78,30.54v11h.88V36h1.72v-.8H60.66v-4.7Zm-7.1,1.3v.77H56.6a8.38,8.38,0,0,1-.39,1.74,7.71,7.71,0,0,1-2.51,3.58A10.13,10.13,0,0,1,52,39l.69.56a9.43,9.43,0,0,0,1.7-1.18A9.1,9.1,0,0,0,56,36.64a7.53,7.53,0,0,0,1.16-2.42,11,11,0,0,0,.44-2.38Z" transform="translate(0 0)"/><path d="M161.33,42.35h-1.7V38h-.89V49h.89V43.15h1.7ZM158,45.08c-.39.09-.94.17-1.62.27a17,17,0,0,1-1.85.16l-2,0V39.09h-.9v7.25l2.85,0a14.74,14.74,0,0,0,1.94-.18l1.56-.24Z" transform="translate(0 0)"/><path d="M260.15,49h-1.68V44.54h-.9v11h.9V49.81h1.68Zm-3.33,2.84c-.26,0-.7.11-1.32.17s-1.2.11-1.74.13l-2.32,0V46.66h4.22v-.78h-5.11V53h1c.63,0,1.28,0,1.93,0s1.36-.06,2-.13,1.08-.12,1.34-.17Z" transform="translate(0 0)"/><path d="M59.73,107.54v11h.9v-5.65h1.68v-.81H60.63v-4.54ZM59,115.21c-.31.05-.81.11-1.5.17s-1.3.11-1.84.12l-2.16,0v-2.69h4v-4.17H52.6v.77h4v2.63h-4v4.25h1c.62,0,1.26,0,1.94,0s1.25-.06,1.94-.12S58.64,116,59,116Z" transform="translate(0 0)"/><path d="M159.41,118.22h3.26v5.62h-3.26Zm8.94,2.2h-1.71V116h-.88v11h.88v-5.8h1.71Zm-4.8-3h-5v7.16h5Z" transform="translate(0 0)"/><path d="M251.87,112.13h3.35v3.26h-3.35Zm8.93-.21h-1.71v-4.38h-.88v11h.88v-5.8h1.71Zm-4.71-3.32h-.87v2.74h-3.35V108.6H251v7.56h5.11Z" transform="translate(0 0)"/></g></g></g></svg>