
<svg xmlns="http://www.w3.org/2000/svg" version="1.1" xmlns:xlink="http://www.w3.org/1999/xlink" preserveAspectRatio="none" x="0px" y="0px" width="319px" height="141px" viewBox="0 0 319 141">
<defs>
<filter id="Filter_1" x="-20%" y="-20%" width="140%" height="140%" color-interpolation-filters="sRGB">
<feColorMatrix in="SourceGraphic" type="matrix" values="1 0 0 0 0 0 1 0 0 0 0 0 1 0 0 0 0 0 0.7 0" result="result1"/>
</filter>

<g id="Duplicate_Items_Folder_bs43434_0_Layer4_0_FILL">
<path fill="#569ECC" fill-opacity="0.14901960784313725" stroke="none" d="
M 141.6 -23.65
Q 126.4 -38.85 104.95 -38.85
L -104.95 -38.85
Q -126.4 -38.85 -141.6 -23.65 -156.8 -8.5 -156.8 13
L -156.8 13.05
Q -156.8 34.5 -141.6 49.7 -126.4 64.9 -104.95 64.9
L 104.95 64.9
Q 126.4 64.9 141.6 49.7 156.8 34.5 156.8 13.05
L 156.8 13
Q 156.8 -8.5 141.6 -23.65 Z"/>
</g>

<g id="Duplicate_Items_Folder_bs43434_0_Layer3_0_FILL">
<path fill="#FFFFFF" stroke="none" d="
M 141.6 -36.65
Q 126.4 -51.85 104.95 -51.85
L -104.95 -51.85
Q -126.4 -51.85 -141.6 -36.65 -156.8 -21.5 -156.8 0
L -156.8 0.05
Q -156.8 21.5 -141.6 36.7 -126.4 51.9 -104.95 51.9
L 104.95 51.9
Q 126.4 51.9 141.6 36.7 156.8 21.5 156.8 0.05
L 156.8 0
Q 156.8 -21.5 141.6 -36.65 Z"/>
</g>

<g id="Mask_Duplicate_Items_Folder_bs43434_0_2_MASK_0_FILL">
<path fill="#FFFFFF" stroke="none" d="
M 141.6 -36.65
Q 126.4 -51.85 104.95 -51.85
L -104.95 -51.85
Q -126.4 -51.85 -141.6 -36.65 -156.8 -21.5 -156.8 0
L -156.8 0.05
Q -156.8 21.5 -141.6 36.7 -126.4 51.9 -104.95 51.9
L 104.95 51.9
Q 126.4 51.9 141.6 36.7 156.8 21.5 156.8 0.05
L 156.8 0
Q 156.8 -21.5 141.6 -36.65 Z"/>
</g>

<g id="Duplicate_Items_Folder_fbd33535_0_Layer0_0_FILL">
<path fill="#D2E4F0" stroke="none" d="
M 410.75 133.75
Q 411.5 136.45 413.95 137.8 416.4 139.3 419.15 138.6 421.85 137.9 423.25 135.35 424.65 132.9 423.9 130.2 423.2 127.4 420.8 126.05 418.35 124.7 415.6 125.35 412.9 126.1 411.45 128.5 410.05 130.95 410.75 133.75
M 388.25 112.6
Q 387.85 113.35 388.1 114.25
L 390.5 123.3
Q 390.75 124.2 391.5 124.7 392.2 125.05 393.1 124.85
L 434.8 113.65
Q 435.7 113.4 436.15 112.7 436.55 111.95 436.35 111.05
L 433.9 102
Q 433.65 101.1 432.95 100.65 432.2 100.25 431.3 100.5
L 389.6 111.7
Q 388.7 111.95 388.25 112.6
M 413.05 97.25
Q 414.45 94.8 413.75 92.1 413 89.35 410.55 87.95 408.15 86.55 405.4 87.25 402.7 88 401.25 90.45 399.85 92.9 400.6 95.6 401.3 98.3 403.75 99.75 406.25 101.25 408.95 100.55 411.7 99.85 413.05 97.25 Z"/>
</g>

<g id="Duplicate_Items_Folder_fbd33535_0_Layer0_1_FILL">
<path fill="#D2E4F0" stroke="none" d="
M 116.85 -32.35
L 111 -38.25
Q 110.55 -38.65 109.9 -38.65 109.2 -38.65 108.7 -38.25
L 105.35 -34.8
Q 104.95 -34.3 104.95 -33.65 104.95 -33.05 105.35 -32.6
L 111.2 -26.75 105.35 -20.8
Q 104.95 -20.3 104.95 -19.65 104.95 -19 105.35 -18.5
L 108.7 -15.25
Q 109.2 -14.75 109.9 -14.75 110.55 -14.75 111 -15.25
L 116.85 -21.1 122.7 -15.25
Q 123.3 -14.75 123.85 -14.75 124.55 -14.75 125 -15.25
L 128.3 -18.5
Q 128.85 -19 128.85 -19.65 128.85 -20.3 128.3 -20.8
L 122.5 -26.75 128.3 -32.6
Q 128.85 -33.05 128.85 -33.65 128.85 -34.3 128.3 -34.8
L 125 -38.25
Q 124.55 -38.65 123.85 -38.65 123.3 -38.65 122.7 -38.25
L 116.85 -32.35 Z"/>
</g>

<g id="Duplicate_Items_Folder_fbd33535_0_Layer0_2_FILL">
<path fill="#D2E4F0" stroke="none" d="
M -211.85 69.05
L -211.85 57
Q -211.85 56 -212.45 55.45 -213 54.85 -213.8 54.75 -213.95 54.75 -214.05 54.75
L -220.85 54.75
Q -221.7 54.75 -222.4 55.45 -223.1 56.15 -223.1 57
L -223.1 69.05 -235.2 69.05
Q -236 69.05 -236.7 69.75 -237.4 70.45 -237.4 71.3
L -237.4 78.1
Q -237.4 79.15 -236.7 79.75 -236.1 80.35 -235.2 80.35
L -223.1 80.35 -223.1 92.4
Q -223.1 93.5 -222.4 94.05 -221.7 94.65 -220.85 94.65
L -214.05 94.65
Q -213.95 94.65 -213.8 94.65 -213 94.5 -212.45 94.05 -211.85 93.5 -211.85 92.4
L -211.85 80.35 -199.75 80.35
Q -198.8 80.35 -198.1 79.75 -197.5 79.15 -197.5 78.1
L -197.5 71.3
Q -197.5 70.35 -198.1 69.75 -198.8 69.05 -199.75 69.05
L -211.85 69.05 Z"/>
</g>

<g id="Duplicate_Items_Folder_fbd33535_0_Layer0_3_FILL">
<path fill="#D2E4F0" stroke="none" d="
M -102.2 -27
Q -100.1 -29.1 -100.1 -32.05 -100.1 -34.95 -102.2 -37.05 -104.3 -39.2 -107.25 -39.2 -110.2 -39.2 -112.3 -37.05 -114.4 -34.95 -114.4 -32.05 -114.4 -29.1 -112.3 -27 -110.2 -24.9 -107.25 -24.9 -104.3 -24.9 -102.2 -27 Z"/>
</g>

<g id="Duplicate_Items_Folder_fbd33535_0_Layer0_4_FILL">
<path fill="#D2E4F0" stroke="none" d="
M -102.2 -27
Q -100.1 -29.1 -100.1 -32.05 -100.1 -34.95 -102.2 -37.05 -104.3 -39.2 -107.25 -39.2 -110.2 -39.2 -112.3 -37.05 -114.4 -34.95 -114.4 -32.05 -114.4 -29.1 -112.3 -27 -110.2 -24.9 -107.25 -24.9 -104.3 -24.9 -102.2 -27 Z"/>
</g>

<g id="Duplicate_Items_Folder_fbd33535_0_Layer0_5_FILL">
<path fill="#D2E4F0" stroke="none" d="
M -102.2 -27
Q -100.1 -29.1 -100.1 -32.05 -100.1 -34.95 -102.2 -37.05 -104.3 -39.2 -107.25 -39.2 -110.2 -39.2 -112.3 -37.05 -114.4 -34.95 -114.4 -32.05 -114.4 -29.1 -112.3 -27 -110.2 -24.9 -107.25 -24.9 -104.3 -24.9 -102.2 -27 Z"/>
</g>

<g id="Duplicate_Items_Folder_fbd343434_0_Layer0_0_FILL">
<path fill="#234F6B" stroke="none" d="
M 123.15 8.65
Q 123.05 8.55 122.7 8.5
L 119.8 8.35
Q 119.35 8.3 119.25 8.45 119.15 8.55 119.15 9 119.15 10.65 118.8 12.35 118.5 14 117.8 15.6 117.1 17.15 116 18.6 114.85 20.05 113.15 21.25 113.0953125 21.2978515625 113.05 21.35
L 113.05 7.9
Q 113.05 7.55 112.95 7.45 112.8 7.35 112.45 7.35
L 109.85 7.35
Q 109.5 7.35 109.4 7.45 109.25 7.55 109.25 7.9
L 109.25 13.5 107.5 13.5 107.5 8.4
Q 107.5 7.85 106.9 7.85
L 104.45 7.85
Q 104.05 7.85 103.9 7.95 103.8 8.05 103.8 8.4
L 103.8 21.85
Q 103.8 22.3 103.95 22.4 104.1 22.5 104.45 22.5
L 106.9 22.5
Q 107.2 22.5 107.35 22.4 107.5 22.3 107.5 21.85
L 107.5 16.95 109.25 16.95 109.25 22.2
Q 109.25 22.55 109.35 22.7 109.5 22.8 109.8 22.8
L 112.45 22.8
Q 113.05 22.8 113.05 22.2
L 113.05 22.1
Q 113.12109375 22.231640625 113.2 22.35
L 114.7 24.05
Q 114.95 24.3 115.1 24.4 115.25 24.5 115.7 24.2 118.9 22.15 120.85 18.75 121.3 19.45 121.85 20.15 122.45 20.85 123.05 21.45 123.7 22.05 124.3 22.5 124.9 23 125.4 23.3 125.75 23.5 125.95 23.5 126.2 23.5 126.45 23.15
L 127.85 21.1
Q 128 20.85 128.05 20.65 128.05 20.45 127.7 20.2 126.2 19.1 124.85 17.65 123.5 16.2 122.7 14.1 123 12.9 123.15 11.7 123.3 10.45 123.3 9.15 123.3 8.8 123.15 8.65
M 138.1 25.6
Q 137.6 25.5 136.85 25.5
L 121.6 25.5
Q 120.3 25.5 119.85 25.95 119.35 26.4 119.35 27.8
L 119.35 34.35
Q 119.35 35 119.45 35.45 119.55 35.9 119.8 36.15 120.1 36.4 120.55 36.5 121 36.6 121.8 36.6
L 137 36.6
Q 137.65 36.6 138.1 36.5 138.55 36.4 138.8 36.15 139.1 35.9 139.2 35.45 139.3 35.05 139.3 34.35
L 139.3 27.8
Q 139.3 27.15 139.2 26.7 139.1 26.25 138.85 26 138.6 25.7 138.1 25.6
M 134.65 29
Q 135 29 135 29.35
L 135 32.7
Q 135 33 134.9 33.05 134.85 33.1 134.6 33.1
L 124.05 33.1
Q 123.65 33.1 123.65 32.7
L 123.65 29.4
Q 123.65 29 124.05 29
L 134.65 29
M 133.3 8.4
Q 133.3 8.05 133.15 7.95 133.05 7.85 132.7 7.85
L 129.8 7.85
Q 129.45 7.85 129.3 7.95 129.15 8.05 129.15 8.4
L 129.15 13.15 126.05 13.15
Q 125.75 13.15 125.6 13.25 125.45 13.3 125.45 13.75
L 125.45 15.95
Q 125.45 16.6 126.05 16.6
L 129.15 16.6 129.15 23.2
Q 129.15 23.6 129.3 23.7 129.5 23.8 129.8 23.8
L 132.7 23.8
Q 133.05 23.8 133.15 23.7 133.3 23.6 133.3 23.2
L 133.3 8.4
M 139.3 7.9
Q 139.3 7.55 139.2 7.45 139.05 7.35 138.7 7.35
L 135.65 7.35
Q 135.05 7.35 135.05 7.9
L 135.05 23.4
Q 135.05 23.7 135.15 23.85 135.3 24 135.65 24
L 138.7 24
Q 139.05 24 139.2 23.85 139.3 23.7 139.3 23.4
L 139.3 7.9
M 93.65 8.9
Q 93.65 8.3 93.05 8.3
L 91.05 8.3
Q 90.5 8.3 90.5 8.9
L 90.5 12 88.95 12 88.95 8.95
Q 88.95 8.35 88.3 8.35
L 86.3 8.35
Q 85.75 8.35 85.75 8.95
L 85.75 19.7
Q 85.75 20.4 85.8 20.8 85.9 21.2 86.15 21.45 86.4 21.7 86.9 21.75 87.3 21.85 88.05 21.85
L 91.35 21.85
Q 92.75 21.85 93.2 21.4 93.65 20.95 93.65 19.8
L 93.65 8.9
M 90.5 15.3
L 90.5 18.1
Q 90.5 18.35 90.4 18.4 90.35 18.5 90.1 18.5
L 89.3 18.5
Q 89.05 18.5 89 18.4 88.95 18.35 88.95 18.1
L 88.95 15.3 90.5 15.3
M 111.95 24.4
Q 111.55 24.3 110.8 24.3
L 92.45 24.3
Q 91.85 24.3 91.85 24.9
L 91.85 27.05
Q 91.85 27.4 92 27.55 92.15 27.65 92.45 27.65
L 108.5 27.65
Q 108.85 27.65 108.85 28.05
L 108.85 28.8
Q 108.85 29.15 108.5 29.15
L 94 29.15
Q 93.35 29.15 92.95 29.25 92.5 29.35 92.3 29.55 92.05 29.8 92 30.15 91.9 30.55 91.9 31.15
L 91.9 35.2
Q 91.9 35.75 92 36.15 92.05 36.55 92.3 36.75 92.5 37 92.95 37.1 93.35 37.2 94.05 37.2
L 113.25 37.2
Q 113.8 37.2 113.8 36.6
L 113.8 34.45
Q 113.8 34.05 113.7 33.95 113.55 33.85 113.2 33.85
L 96.55 33.85
Q 96.15 33.85 96.15 33.5
L 96.15 32.65
Q 96.15 32.35 96.5 32.35
L 110.9 32.35
Q 111.6 32.35 112 32.25 112.45 32.2 112.65 31.95 112.9 31.75 112.95 31.35 113.05 30.95 113.05 30.35
L 113.05 26.3
Q 113.05 25.75 112.95 25.4 112.9 25 112.65 24.75 112.4 24.5 111.95 24.4
M 102.6 8.9
Q 102.6 8.3 102 8.3
L 100 8.3
Q 99.4 8.3 99.4 8.9
L 99.4 12 97.85 12 97.85 8.95
Q 97.85 8.35 97.25 8.35
L 95.25 8.35
Q 94.65 8.35 94.65 8.95
L 94.65 19.7
Q 94.65 20.4 94.75 20.8 94.8 21.2 95.1 21.45 95.35 21.7 95.8 21.75 96.3 21.85 97 21.85
L 100.25 21.85
Q 101.7 21.85 102.15 21.4 102.6 20.95 102.6 19.8
L 102.6 8.9
M 99.4 15.3
L 99.4 18.1
Q 99.4 18.35 99.35 18.4 99.3 18.5 99.05 18.5
L 98.25 18.5
Q 98 18.5 97.95 18.4 97.85 18.35 97.85 18.1
L 97.85 15.3 99.4 15.3
M 61.7 19.35
Q 61.55 19.2 61.15 19.2
L 58.15 19.2
Q 57.75 19.2 57.65 19.35 57.5 19.5 57.5 19.8
L 57.5 27.65
Q 56.2 27.65 54.9 27.6 53.65 27.6 52.35 27.55 52 27.55 51.85 27.7 51.75 27.9 51.75 28.2
L 51.75 30.45
Q 51.75 30.8 51.85 30.95 51.95 31.1 52.35 31.1 56.75 31.2 61.2 31.05 65.6 30.9 69.9 30.15 70.2 30.1 70.35 30.05 70.5 29.95 70.45 29.5
L 70.2 27.3
Q 70.15 26.9 70 26.85 69.85 26.75 69.4 26.8 67.45 27.15 65.55 27.3 63.7 27.45 61.8 27.55
L 61.8 19.8
Q 61.8 19.5 61.7 19.35
M 68.75 10.2
Q 68.2 9.7 67.05 9.7
L 54.4 9.7
Q 54.1 9.7 53.9 9.8 53.7 9.9 53.7 10.25
L 53.7 12.7
Q 53.7 13.1 53.9 13.15 54.1 13.25 54.4 13.25
L 64.05 13.25
Q 64.75 13.25 64.9 13.45 65.05 13.65 65.05 14.1 65.05 15.3 65 16.35 64.95 17.35 64.9 18.25 64.8 19.2 64.65 20.15 64.5 21.1 64.3 22.2 64.25 22.55 64.25 22.75 64.3 23 64.8 23.05
L 67.5 23.35
Q 68 23.4 68.15 23.3 68.3 23.2 68.35 22.75 68.6 21.65 68.75 20.55 68.9 19.4 69.05 18.15 69.15 16.9 69.2 15.4 69.3 13.95 69.3 12.05 69.3 10.75 68.75 10.2
M 75.95 7.9
Q 75.95 7.55 75.8 7.45 75.7 7.35 75.35 7.35
L 72.2 7.35
Q 71.9 7.35 71.75 7.45 71.65 7.55 71.65 7.9
L 71.65 36.45
Q 71.65 36.85 71.75 36.95 71.9 37.05 72.2 37.05
L 75.35 37.05
Q 75.7 37.05 75.8 36.95 75.95 36.85 75.95 36.45
L 75.95 22.85 79.65 22.85
Q 79.9 22.85 80.05 22.75 80.25 22.65 80.25 22.25
L 80.25 19.9
Q 80.25 19.55 80.05 19.45 79.9 19.3 79.65 19.3
L 75.95 19.3 75.95 7.9
M 31 9
Q 31 10.65 30.65 12.35 30.35 14 29.65 15.6 28.95 17.15 27.85 18.6 26.7 20.05 25 21.25 24.6 21.6 24.7 21.8 24.85 22.05 25.05 22.35
L 26.55 24.05
Q 26.8 24.3 26.95 24.4 27.1 24.5 27.55 24.2 30.75 22.15 32.7 18.75 33.15 19.45 33.7 20.15 34.3 20.85 34.9 21.45 35.55 22.05 36.15 22.5 36.75 23 37.25 23.3 37.6 23.5 37.8 23.5 38.05 23.5 38.3 23.15
L 39.7 21.1
Q 39.85 20.85 39.9 20.65 39.9 20.45 39.55 20.2 38.05 19.1 36.7 17.65 35.35 16.2 34.55 14.1 34.85 12.9 35 11.7 35.15 10.45 35.15 9.15 35.15 8.8 35 8.65 34.9 8.55 34.55 8.5
L 31.65 8.35
Q 31.2 8.3 31.1 8.45 31 8.55 31 9
M 50.65 36.15
Q 50.95 35.9 51.05 35.45 51.15 35.05 51.15 34.35
L 51.15 27.8
Q 51.15 27.15 51.05 26.7 50.95 26.25 50.7 26 50.45 25.7 49.95 25.6 49.45 25.5 48.7 25.5
L 33.45 25.5
Q 32.15 25.5 31.7 25.95 31.2 26.4 31.2 27.8
L 31.2 34.35
Q 31.2 35 31.3 35.45 31.4 35.9 31.65 36.15 31.95 36.4 32.4 36.5 32.85 36.6 33.65 36.6
L 48.85 36.6
Q 49.5 36.6 49.95 36.5 50.4 36.4 50.65 36.15
M 46.5 29
Q 46.85 29 46.85 29.35
L 46.85 32.7
Q 46.85 33 46.75 33.05 46.7 33.1 46.45 33.1
L 35.9 33.1
Q 35.5 33.1 35.5 32.7
L 35.5 29.4
Q 35.5 29 35.9 29
L 46.5 29
M 41.15 7.95
Q 41 8.05 41 8.4
L 41 13.15 37.9 13.15
Q 37.6 13.15 37.45 13.25 37.3 13.3 37.3 13.75
L 37.3 15.95
Q 37.3 16.6 37.9 16.6
L 41 16.6 41 23.2
Q 41 23.6 41.15 23.7 41.35 23.8 41.65 23.8
L 44.55 23.8
Q 44.9 23.8 45 23.7 45.15 23.6 45.15 23.2
L 45.15 8.4
Q 45.15 8.05 45 7.95 44.9 7.85 44.55 7.85
L 41.65 7.85
Q 41.3 7.85 41.15 7.95
M 51.15 7.9
Q 51.15 7.55 51.05 7.45 50.9 7.35 50.55 7.35
L 47.5 7.35
Q 46.9 7.35 46.9 7.9
L 46.9 23.4
Q 46.9 23.7 47 23.85 47.15 24 47.5 24
L 50.55 24
Q 50.9 24 51.05 23.85 51.15 23.7 51.15 23.4
L 51.15 7.9
M 15.6 25.95
Q 15.7 25.25 15.2 25.15
L 12 25
Q 11.75 25 11.6 25.15 11.4 25.35 11.4 25.5 11.1 28.4 8.65 30.6 6.15 32.75 2.1 33.9 1.45 34.05 1.65 34.55
L 2.7 37.1
Q 2.8 37.35 2.95 37.4 3.05 37.5 3.5 37.35 6.8 36.55 9.35 34.95 11.9 33.4 13.45 31.25 14.25 32.35 15.35 33.3 16.45 34.25 17.7 35 18.95 35.75 20.25 36.3 21.6 36.8 22.8 37.1 23.55 37.25 23.75 36.8
L 24.8 34.25
Q 24.85 34 24.85 33.8 24.8 33.55 24.35 33.5 23.1 33.25 21.75 32.7 20.4 32.2 19.15 31.4 17.9 30.65 16.85 29.7 15.85 28.7 15.3 27.5 15.4 27.15 15.5 26.75 15.55 26.35 15.6 25.95
M 13.15 12.15
Q 13.75 12.15 13.75 11.65
L 13.75 9.2
Q 13.75 8.65 13.15 8.65
L 2.35 8.65
Q 1.7 8.65 1.25 8.7 0.85 8.8 0.6 9 0.35 9.2 0.25 9.55 0.15 9.95 0.15 10.6
L 0.15 21.65
Q 0.15 22.9 0.7 23.35 1.3 23.7 2.35 23.75 3.7 23.8 5.45 23.8 7.2 23.75 9 23.65 10.8 23.55 12.55 23.35 14.25 23.1 15.55 22.85 15.9 22.75 16 22.6 16.1 22.5 16.05 22.05
L 15.7 20.05
Q 15.65 19.8 15.5 19.7 15.4 19.55 14.9 19.65 12.25 20.05 9.75 20.2 7.25 20.35 4.95 20.35 4.5 20.3 4.5 19.85
L 4.5 12.6
Q 4.5 12.4 4.55 12.3 4.6 12.15 4.9 12.15
L 13.15 12.15
M 22.7 7.9
Q 22.7 7.65 22.65 7.5 22.55 7.35 22.1 7.35
L 19.05 7.35
Q 18.8 7.35 18.6 7.4 18.4 7.5 18.4 7.9
L 18.4 14.1 12.55 14.1
Q 12.25 14.1 12.1 14.2 11.95 14.35 11.95 14.7
L 11.95 16.85
Q 11.95 17.2 12.1 17.3 12.25 17.4 12.55 17.4
L 18.4 17.4 18.4 25.3
Q 18.4 25.9 19 25.9
L 22.1 25.9
Q 22.7 25.9 22.7 25.3
L 22.7 7.9
M -21.75 26.65
Q -24 26.85 -26.3 26.95 -28.6 27.05 -30.9 27.1 -33.2 27.15 -35.4 27.05 -36 27.05 -36 27.7
L -36 29.95
Q -36 30.3 -35.9 30.45 -35.75 30.6 -35.4 30.6 -33.2 30.65 -30.85 30.65 -28.5 30.6 -26.15 30.5 -23.8 30.4 -21.5 30.15 -19.2 29.95 -17.05 29.6 -16.5 29.5 -16.6 28.95
L -16.9 26.65
Q -16.9 26.3 -17.05 26.2 -17.15 26.1 -17.6 26.15 -19.55 26.45 -21.75 26.65
M -18.8 16.3
Q -18.8 14.75 -19.45 13.4 -20.1 12.05 -21.15 11.1 -22.2 10.1 -23.65 9.55 -25.05 9 -26.7 9 -28.25 9 -29.7 9.55 -31.1 10.1 -32.2 11.1 -33.25 12.05 -33.85 13.4 -34.5 14.75 -34.5 16.3 -34.5 17.9 -33.85 19.2 -33.25 20.55 -32.2 21.5 -31.1 22.4 -29.7 22.95 -28.3 23.45 -26.7 23.45 -25.15 23.45 -23.7 22.95 -22.25 22.4 -21.15 21.5 -20.1 20.55 -19.45 19.2 -18.8 17.9 -18.8 16.3
M -23.35 14.85
Q -23.1 15.55 -23.1 16.3 -23.1 18 -24.1 18.95 -25.15 19.95 -26.7 19.95 -28.25 19.95 -29.2 18.95 -30.2 18 -30.2 16.3 -30.2 14.7 -29.2 13.7 -28.2 12.65 -26.7 12.65 -25.95 12.65 -25.25 12.9 -24.6 13.2 -24.1 13.7 -23.65 14.15 -23.35 14.85
M -11.2 7.9
Q -11.2 7.55 -11.3 7.45 -11.45 7.35 -11.75 7.35
L -14.85 7.35
Q -15.2 7.35 -15.35 7.45 -15.45 7.55 -15.45 7.9
L -15.45 36.45
Q -15.45 36.85 -15.35 36.95 -15.2 37.05 -14.85 37.05
L -11.75 37.05
Q -11.45 37.05 -11.3 36.95 -11.2 36.85 -11.2 36.45
L -11.2 7.9
M -35.5 23.45
Q -35.5 22.75 -36.15 22.75
L -62.65 22.75 -62.65 22.5
Q -62.65 21.85 -63.3 21.85
L -89.95 21.85
Q -90.35 21.85 -90.45 22 -90.55 22.2 -90.55 22.5
L -90.55 24.7
Q -90.55 25 -90.45 25.2 -90.35 25.4 -89.95 25.4
L -78.55 25.4 -78.55 30.1
Q -78.55 30.45 -78.4 30.55 -78.3 30.65 -77.9 30.65
L -74.9 30.65
Q -74.5 30.65 -74.35 30.55 -74.25 30.45 -74.25 30.1
L -74.25 25.4 -63.4 25.4 -63.4 25.6
Q -63.4 25.95 -63.3 26.1 -63.2 26.3 -62.8 26.3
L -51.65 26.3 -51.65 36.2
Q -51.65 36.85 -51 36.85
L -47.95 36.85
Q -47.3 36.85 -47.3 36.2
L -47.3 26.3 -36.15 26.3
Q -35.5 26.3 -35.5 25.6
L -35.5 23.45
M -39.3 20.2
Q -39.05 20.3 -38.95 20.25 -38.85 20.25 -38.8 20.2 -38.75 20.15 -38.7 20.05 -38.65 19.9 -38.6 19.85
L -37.55 17.7
Q -37.4 17.3 -37.4 17.1 -37.45 16.9 -37.85 16.75 -39.45 16.3 -40.95 15.55 -42.45 14.8 -43.75 13.9 -45 12.95 -45.95 11.85 -46.95 10.75 -47.45 9.55 -47.4 9.2 -47.4 8.8 -47.35 8.45 -47.3 8.05 -47.3 7.4 -48 7.4
L -50.85 7.25
Q -51.25 7.25 -51.35 7.35 -51.5 7.4 -51.55 7.85 -51.9 11.1 -54.2 13.5 -56.45 15.95 -60.95 17.45 -61.6 17.7 -61.35 18.2
L -60.2 20.45
Q -60.15 20.55 -60.1 20.7 -60 20.85 -59.9 20.9 -59.75 21 -59.3 20.85 -56.15 19.9 -53.5 18.2 -50.85 16.45 -49.25 13.95 -48.4 15.1 -47.25 16.1 -46.1 17.1 -44.75 17.95 -43.4 18.8 -42 19.4 -40.6 19.95 -39.3 20.2
M -66.5 36.55
Q -66.25 36.55 -66.05 36.5 -65.85 36.45 -65.85 36
L -65.85 33.55
Q -65.85 33.25 -66.05 33.15 -66.25 33.05 -66.5 33.05
L -81.8 33.05
Q -82.3 33.05 -82.3 32.55
L -82.3 27.8
Q -82.3 27.15 -82.9 27.15
L -85.95 27.15
Q -86.55 27.15 -86.55 27.8
L -86.55 34.35
Q -86.55 35 -86.45 35.4 -86.4 35.85 -86.15 36.1 -85.9 36.35 -85.5 36.45 -85.1 36.55 -84.45 36.55
L -66.5 36.55
M -67 8.55
Q -67 7.95 -67.55 7.95
L -70.65 7.95
Q -71.3 7.95 -71.3 8.55
L -71.3 10.65 -82 10.65 -82 8.6
Q -82 8.25 -82.15 8.15 -82.35 8 -82.65 8
L -85.75 8
Q -86.3 8 -86.3 8.6
L -86.3 17.5
Q -86.3 18.2 -86.2 18.65 -86.1 19.05 -85.85 19.3 -85.6 19.55 -85.15 19.65 -84.65 19.7 -83.95 19.7
L -69.3 19.7
Q -67.9 19.7 -67.45 19.25 -67 18.8 -67 17.6
L -67 8.55
M -71.3 14.15
L -71.3 15.8
Q -71.3 16.25 -71.7 16.25
L -81.55 16.25
Q -82 16.25 -82 15.8
L -82 14.15 -71.3 14.15 Z"/>

<path fill="#FF6989" stroke="none" d="
M -106.55 24.45
L -106.55 18.3
Q -106.55 11.05 -111.7 5.85 -116.8 0.75 -124.1 0.75 -131.35 0.75 -136.5 5.85 -141.65 11.05 -141.65 18.3
L -141.65 25.15
Q -141.65 32.45 -136.5 37.6 -131.35 42.7 -124.1 42.7
L -95.15 42.7
Q -97.5 41.85 -100.1 39.9 -105.1 35.9 -106.1 30.05 -106.45 27.95 -106.5 25.15 -106.55 24.8 -106.55 24.45
M -121.3 10.75
Q -120.7 10.75 -120.6 10.9 -120.5 11 -120.5 11.7
L -120.5 31.3
Q -120.5 31.6 -120.6 31.7 -120.7 31.85 -121 31.85
L -123.7 31.85
Q -124 31.85 -124.1 31.75 -124.2 31.6 -124.2 31.3
L -124.2 15.75 -125.9 17.35
Q -126.3 17.75 -126.55 17.45
L -128.15 15.6
Q -128.3 15.45 -128.25 15.3 -128.2 15.1 -127.95 14.9
L -123.75 11
Q -123.45 10.75 -123.1 10.75
L -121.3 10.75 Z"/>

<path fill="#FFFFFF" stroke="none" d="
M -120.6 10.9
Q -120.7 10.75 -121.3 10.75
L -123.1 10.75
Q -123.45 10.75 -123.75 11
L -127.95 14.9
Q -128.2 15.1 -128.25 15.3 -128.3 15.45 -128.15 15.6
L -126.55 17.45
Q -126.3 17.75 -125.9 17.35
L -124.2 15.75 -124.2 31.3
Q -124.2 31.6 -124.1 31.75 -124 31.85 -123.7 31.85
L -121 31.85
Q -120.7 31.85 -120.6 31.7 -120.5 31.6 -120.5 31.3
L -120.5 11.7
Q -120.5 11 -120.6 10.9 Z"/>
</g>

<path id="Duplicate_Items_Folder_bs43434_0_Layer0_0_1_STROKES" stroke="#569ECC" stroke-width="6" stroke-linejoin="round" stroke-linecap="round" fill="none" d="
M -104.95 -51.85
L 104.95 -51.85
Q 126.4 -51.85 141.6 -36.65 156.8 -21.5 156.8 0
L 156.8 0.05
Q 156.8 21.5 141.6 36.7 126.4 51.9 104.95 51.9
L -104.95 51.9
Q -126.4 51.9 -141.6 36.7 -156.8 21.5 -156.8 0.05
L -156.8 0
Q -156.8 -21.5 -141.6 -36.65 -126.4 -51.85 -104.95 -51.85 Z"/>
</defs>

<g transform="matrix( 1, 0, 0, 1, 159.8,32) ">
<g transform="matrix( 1, 0, 0, 1, 0,22.85) ">
<g transform="matrix( 1, 0, 0, 1, 0,0) ">
<use xlink:href="#Duplicate_Items_Folder_bs43434_0_Layer4_0_FILL"/>
</g>

<g transform="matrix( 1, 0, 0, 1, 0,0) ">
<use xlink:href="#Duplicate_Items_Folder_bs43434_0_Layer3_0_FILL"/>
</g>

<mask id="Mask_Mask_1">
<g transform="matrix( 1, 0, 0, 1, 0,0) ">
<use xlink:href="#Mask_Duplicate_Items_Folder_bs43434_0_2_MASK_0_FILL"/>
</g>
</mask>

<g mask="url(#Mask_Mask_1)">
<g transform="matrix( 1, 0, 0, 1, -3.25,24.2) ">
<g transform="matrix( 0.7107391357421875, 0, 0, 0.7107391357421875, -334.95,-70.95) ">
<use filter="url(#Filter_1)" xlink:href="#Duplicate_Items_Folder_fbd33535_0_Layer0_0_FILL"/>
</g>

<g transform="matrix( 1, 0, 0, 1, 3.25,-24.2) ">
<use filter="url(#Filter_1)" xlink:href="#Duplicate_Items_Folder_fbd33535_0_Layer0_1_FILL"/>
</g>

<g transform="matrix( 0.0501251220703125, 0, 0, 0.0501251220703125, -68.3,58.1) ">
<use filter="url(#Filter_1)" xlink:href="#Duplicate_Items_Folder_fbd33535_0_Layer0_2_FILL"/>
</g>

<g transform="matrix( 1, 0, 0, 1, -17.75,-17.9) ">
<use filter="url(#Filter_1)" xlink:href="#Duplicate_Items_Folder_fbd33535_0_Layer0_3_FILL"/>
</g>

<g transform="matrix( 0.7902069091796875, 0, 0, 0.7902069091796875, 113.7,-29.1) ">
<use filter="url(#Filter_1)" xlink:href="#Duplicate_Items_Folder_fbd33535_0_Layer0_4_FILL"/>
</g>

<g transform="matrix( 0.7902069091796875, 0, 0, 0.7902069091796875, 189.7,32.9) ">
<use filter="url(#Filter_1)" xlink:href="#Duplicate_Items_Folder_fbd33535_0_Layer0_5_FILL"/>
</g>
</g>
</g>

<g transform="matrix( 1, 0, 0, 1, 0,0) ">
<use xlink:href="#Duplicate_Items_Folder_bs43434_0_Layer0_0_1_STROKES"/>
</g>
</g>

<g transform="matrix( 1, 0, 0, 1, 0,0) ">
<use xlink:href="#Duplicate_Items_Folder_fbd343434_0_Layer0_0_FILL"/>
</g>
</g>
</svg>
