
<svg xmlns="http://www.w3.org/2000/svg" version="1.1" xmlns:xlink="http://www.w3.org/1999/xlink" preserveAspectRatio="none" x="0px" y="0px" width="300px" height="220px" viewBox="0 0 300 220">
<defs>
<g id="Symbol_5_1_Layer0_0_FILL">
<path fill="#FFA800" stroke="none" d="
M 639.8 377
L 639.8 452.15 766.95 377 639.8 377
M 512.8 527.5
L 576.2 527.5 512.8 377 512.8 527.5
M 576.2 527.5
L 639.8 527.5 639.8 452.15 639.8 377 576.2 527.5
M 512.8 377
L 639.8 377 639.8 233.55 444 377 512.8 377
M 766.95 527.5
L 766.95 527.3 639.8 452.15 639.8 527.5 766.95 527.5
M 766.95 377
L 835.75 377 639.8 233.55 639.8 377 766.95 377 Z"/>

<path fill="#FFFFFF" stroke="none" d="
M 639.8 377
L 512.8 377 576.2 527.5 639.8 377
M 766.95 527.3
L 766.95 377 639.8 452.15 766.95 527.3 Z"/>
</g>

<path id="Symbol_5_1_Layer0_0_1_STROKES" stroke="#332D2B" stroke-width="3" stroke-linejoin="round" stroke-linecap="round" fill="none" d="
M 766.95 527.3
L 766.95 527.5 639.8 527.5 576.2 527.5 512.8 527.5 512.8 377 444 377 639.8 233.55 835.75 377 766.95 377 766.95 527.3 639.8 452.15 639.8 527.5
M 639.8 377
L 512.8 377 576.2 527.5 639.8 377 639.8 233.55
M 766.95 377
L 639.8 377 639.8 452.15 766.95 377 Z"/>

<path id="Layer0_0_MEMBER_1_1_STROKES" stroke="#E50182" stroke-width="3" stroke-linejoin="round" stroke-linecap="butt" fill="none" d="
M 59.50172271728519 196.96935272216794
L 77.38522644042968 196.96935272216794 77.38522644042968 214.85285644531254"/>

<path id="Layer0_0_MEMBER_2_1_STROKES" stroke="#E50182" stroke-width="3" stroke-linejoin="round" stroke-linecap="butt" fill="none" d="
M 148.8982772827148 196.96935272216794
L 131.0147735595703 196.96935272216794 131.0147735595703 214.85285644531254"/>

<path id="Layer0_0_MEMBER_3_1_STROKES" stroke="#E50182" stroke-width="3" stroke-linejoin="round" stroke-linecap="butt" fill="none" d="
M 151.0017227172852 196.96935272216794
L 168.88522644042968 196.96935272216794 168.88522644042968 214.85285644531254"/>

<path id="Layer0_0_MEMBER_4_1_STROKES" stroke="#E50182" stroke-width="3" stroke-linejoin="round" stroke-linecap="butt" fill="none" d="
M 148.8982772827148 88.71935272216794
L 131.0147735595703 88.71935272216794 131.0147735595703 106.60285644531254"/>

<path id="Layer0_0_MEMBER_5_1_STROKES" stroke="#E50182" stroke-width="3" stroke-linejoin="round" stroke-linecap="butt" fill="none" d="
M 640.95 449.15
L 658.85 449.15 658.85 467.05"/>

<path id="Layer0_0_MEMBER_6_1_STROKES" stroke="#E50182" stroke-width="3" stroke-linejoin="round" stroke-linecap="butt" fill="none" d="
M 640.95 449.15
L 658.85 449.15 658.85 467.05"/>
</defs>

<g transform="matrix( 0.719970703125, 0, 0, 0.719970703125, 150,110) ">
<g transform="matrix( 1, 0, 0, 1, -639.85,-380.5) ">
<use xlink:href="#Symbol_5_1_Layer0_0_FILL"/>

<use xlink:href="#Symbol_5_1_Layer0_0_1_STROKES"/>
</g>
</g>

<g transform="matrix( 0.575958251953125, 0, 0, 0.575958251953125, -236.8,-93.4) ">
<use xlink:href="#Layer0_0_MEMBER_1_1_STROKES" transform="matrix( 1.736236572265625, 0, 0, 1.736236572265625, 411.1,162.15) "/>
</g>

<g transform="matrix( -0.575958251953125, 0, 0, 0.575958251953125, 445.2,-93.4) ">
<use xlink:href="#Layer0_0_MEMBER_2_1_STROKES" transform="matrix( -1.736236572265625, 0, 0, 1.736236572265625, 772.95,162.15) "/>
</g>

<g transform="matrix( 0.575958251953125, 0, 0, 0.575958251953125, -145.3,-93.4) ">
<use xlink:href="#Layer0_0_MEMBER_3_1_STROKES" transform="matrix( 1.736236572265625, 0, 0, 1.736236572265625, 252.25,162.15) "/>
</g>

<g transform="matrix( -0.575958251953125, 0, 0, 0.575958251953125, 445.2,-201.65) ">
<use xlink:href="#Layer0_0_MEMBER_4_1_STROKES" transform="matrix( -1.736236572265625, 0, 0, 1.736236572265625, 772.95,350.1) "/>
</g>

<g transform="matrix( 1, 0, 0, 1, -489.95,-360.45) ">
<use xlink:href="#Layer0_0_MEMBER_5_1_STROKES"/>
</g>

<g transform="matrix( 1, 0, 0, -1, -489.95,575.5) ">
<use xlink:href="#Layer0_0_MEMBER_6_1_STROKES"/>
</g>
</svg>
