
<svg xmlns="http://www.w3.org/2000/svg" version="1.1" xmlns:xlink="http://www.w3.org/1999/xlink" preserveAspectRatio="none" x="0px" y="0px" width="1280px" height="720px" viewBox="0 0 1280 720">
<defs>
<g id="Layer0_0_FILL">
<path fill="#7A94C2" stroke="none" d="
M 78.65 542.5
L 78.65 561.55
Q 78.65 571.55 88.65 571.55
L 133.7 571.55
Q 143.7 571.55 143.7 561.55
L 143.7 542.5
Q 143.7 532.5 133.7 532.5
L 88.65 532.5
Q 78.65 532.5 78.65 542.5
M 93 544.35
Q 93.1 544.1 93.2 543.95 93.35 543.75 93.5 543.65 93.7 543.55 93.95 543.55
L 96.15 543.55
Q 96.45 543.55 96.75 543.6 97 543.65 97.2 543.7 97.35 543.8 97.55 543.9 97.7 544 97.85 544.15 98.05 544.4 98.1 544.75 98.1 544.95 98.1 545.15 98.15 545.4 98.15 545.6 98.15 546.15 98.1 546.75 98.05 547.3 97.95 547.95 97.85 548.6 97.7 549.25 97.55 549.9 97.35 550.5 97.2 551.15 96.95 551.75 96.7 552.35 96.35 552.9 96 553.45 95.6 553.9 95.25 554.3 94.75 554.65 94.65 554.7 94.5 554.75 94.35 554.8 94.1 554.75 93.9 554.75 93.7 554.65 93.45 554.5 93.25 554.3
L 93.3 554.3
Q 93.15 554.15 93.05 553.95 92.95 553.75 92.95 553.55 92.95 553.3 93.05 553.1 93.1 552.9 93.3 552.7 93.6 552.4 93.85 552.1 94.1 551.75 94.3 551.4 94.45 551 94.6 550.6 94.75 550.2 94.85 549.75 95 549.35 95.1 548.9 95.2 548.45 95.25 547.95 95.35 547.5 95.4 547 95.45 546.55 95.5 546.05
L 93.95 546.05
Q 93.7 546.05 93.5 545.95 93.35 545.85 93.2 545.65 93.1 545.5 93 545.25 92.95 545.05 92.95 544.8 92.95 544.55 93 544.35
M 99.1 543.65
Q 99.3 543.55 99.6 543.55
L 101.55 543.55
Q 101.85 543.55 102.1 543.6 102.4 543.65 102.55 543.7 102.75 543.8 102.9 543.9 103.05 544 103.2 544.15 103.3 544.3 103.35 544.45 103.4 544.6 103.4 544.8 103.4 544.95 103.45 545.2 103.45 545.4 103.45 545.6 103.45 546.35 103.4 547.05 103.35 547.8 103.25 548.5 103.15 549.2 103 549.9 102.85 550.55 102.6 551.25 102.45 551.9 102.2 552.5 102 553.1 101.65 553.7 101.35 554.3 100.95 554.8 100.6 555.35 100.15 555.85 100.05 556 99.85 556.1 99.7 556.15 99.45 556.1 99.25 556.1 99 556 98.8 555.95 98.55 555.8 98.4 555.7 98.25 555.5 98.15 555.35 98.05 555.1 97.95 554.9 98 554.65 98.05 554.45 98.2 554.2 98.5 553.8 98.8 553.4 99.05 552.95 99.3 552.5 99.5 552.05 99.65 551.55 99.85 551.05 99.95 550.5 100.1 550 100.2 549.45 100.35 548.9 100.4 548.35 100.5 547.8 100.55 547.2 100.6 546.65 100.65 546.05
L 99.6 546.05
Q 99.3 546.05 99.1 545.95 98.9 545.9 98.8 545.7 98.6 545.5 98.55 545.3 98.5 545.1 98.5 544.85 98.5 544.55 98.55 544.35 98.6 544.1 98.8 543.95 98.9 543.75 99.1 543.65
M 105.6 542.05
Q 105.8 541.95 106 541.9 106.25 541.85 106.55 541.85 106.95 541.85 107.4 542.05 107.6 542.15 107.75 542.35 107.85 542.55 107.85 542.85
L 107.85 548.85 109.6 548.85
Q 109.95 548.85 110.15 548.95 110.4 549.05 110.5 549.2 110.6 549.4 110.65 549.65 110.75 549.85 110.75 550.1 110.75 550.35 110.65 550.55 110.6 550.8 110.5 551 110.4 551.2 110.15 551.3 109.95 551.4 109.6 551.4
L 107.85 551.4 107.85 560.6
Q 107.85 560.9 107.75 561.05 107.6 561.3 107.4 561.35 106.95 561.55 106.55 561.55 106.25 561.55 106 561.5 105.8 561.45 105.6 561.35 105.4 561.3 105.3 561.05 105.2 560.9 105.2 560.6
L 105.2 542.85
Q 105.2 542.55 105.3 542.35 105.4 542.15 105.6 542.05
M 126.3 541.95
Q 126.4 541.9 126.5 541.85 126.65 541.85 126.75 541.8 126.9 541.8 127 541.75 127.15 541.75 127.3 541.75 127.55 541.75 127.8 541.8 128.05 541.85 128.25 541.95 128.65 542.15 128.65 542.75
L 128.65 545.4 130.55 545.4
Q 130.85 545.4 131.05 545.5 131.25 545.6 131.35 545.75 131.45 546.15 131.45 546.65 131.45 546.9 131.45 547.1 131.4 547.3 131.35 547.5 131.2 547.9 130.55 547.9
L 128.65 547.9 128.65 550.35
Q 128.65 550.65 128.55 550.85 128.45 551.05 128.25 551.15 128.05 551.25 127.8 551.3 127.55 551.35 127.3 551.35 127.15 551.35 127 551.35 126.9 551.3 126.75 551.3 126.65 551.3 126.5 551.25 126.4 551.2 126.3 551.15 126.2 551.1 126.1 551 126.05 550.9 126 550.8 125.9 550.7 125.9 550.6 125.85 550.5 125.85 550.35
L 125.85 542.75
Q 125.85 542.6 125.9 542.5 125.9 542.35 126 542.25 126.05 542.15 126.1 542.1 126.2 542 126.3 541.95
M 116.35 553.35
Q 116.35 553.1 116.4 552.9 116.5 552.65 116.6 552.45 116.7 552.3 116.9 552.2 117.1 552.15 117.4 552.15
L 120.5 552.15
Q 120.9 552.15 121.2 552.25 121.55 552.3 121.85 552.5 122.15 552.7 122.35 553 122.5 553.3 122.5 553.7
L 122.5 556.1
Q 122.5 556.55 122.35 556.85 122.15 557.15 121.85 557.35 121.55 557.55 121.2 557.65 120.9 557.75 120.5 557.75
L 118.6 557.75 118.6 558.85
Q 119.05 558.85 119.45 558.85 119.85 558.8 120.25 558.75 120.6 558.75 121 558.7 121.4 558.65 121.85 558.55 122.15 558.55 122.35 558.6 122.55 558.65 122.7 558.8 122.85 558.95 122.95 559.15 123.05 559.3 123.1 559.55 123.15 559.8 123.1 560.05 123.05 560.25 122.95 560.45 122.85 560.6 122.65 560.7 122.4 560.8 122.15 560.85
L 122.25 560.85
Q 121.75 560.9 121.35 560.95 121.1 560.95 120.85 561 120.65 561 120.4 561.05 120.2 561.05 119.95 561.05 119.75 561.1 119.5 561.1 119.25 561.1 119 561.1 118.7 561.1 118.35 561.15 118.15 561.15 118 561.15 117.8 561.1 117.65 561.1 117.45 561.1 117.3 561.05 117.1 561 117 560.95 116.85 560.9 116.7 560.8 116.6 560.7 116.55 560.6 116.4 560.3 116.4 559.9
L 116.4 556.9
Q 116.4 556.5 116.55 556.2 116.65 555.95 116.95 555.75 117.5 555.45 118.35 555.45
L 120.1 555.45 120.1 554.45 117.4 554.45
Q 117.1 554.45 116.9 554.4 116.7 554.3 116.6 554.15 116.5 554 116.4 553.8 116.35 553.65 116.35 553.35
M 123.6 552.45
Q 123.7 552.3 123.9 552.2 124.1 552.15 124.4 552.15
L 126.95 552.15
Q 127.35 552.15 127.65 552.25 128 552.4 128.2 552.6 128.4 552.85 128.55 553.2 128.65 553.5 128.65 553.9
L 128.65 560.1
Q 128.65 560.35 128.55 560.55 128.4 560.7 128.25 560.85 128.05 561 127.8 561.05 127.55 561.15 127.3 561.15 127.1 561.15 126.85 561.05 126.65 561 126.45 560.85 126 560.6 126 560.1
L 126 554.55 124.4 554.55
Q 124.1 554.55 123.9 554.5 123.7 554.4 123.6 554.2 123.5 554.05 123.45 553.85 123.4 553.65 123.4 553.35 123.4 553.1 123.45 552.9 123.5 552.65 123.6 552.45
M 123.55 543.9
Q 123.55 544.2 123.5 544.45 123.45 544.7 123.35 544.85 123.25 545 123.05 545.05 122.85 545.1 122.55 545.1
L 117.4 545.1 117.4 548
Q 117.4 548.32265625 117.4 548.45 118.15 548.45 118.9 548.4 119.7 548.4 120.5 548.3 121.3 548.25 122.05 548.15 122.8 548.1 123.55 547.95 123.65 547.95 123.75 547.95 123.9 547.95 124 547.95 124.15 547.95 124.2 547.95 124.3 548 124.4 548 124.4 548.05 124.5 548.15 124.5 548.2 124.6 548.3 124.65 548.4 124.65 548.55 124.7 548.7 124.75 548.9 124.85 549.25 124.85 549.5 124.85 549.75 124.75 549.95 124.5 550.3 123.85 550.35 123.05 550.5 122.25 550.6 121.45 550.7 120.65 550.75 119.85 550.85 119.05 550.9 118.25 550.95 117.4 551 117 551 116.65 550.95 116.35 550.95 116.1 550.95 115.85 550.9 115.6 550.85 115.4 550.8 115.25 550.65 115 550.55 114.9 550.4 114.75 550.25 114.7 550 114.55 549.55 114.55 548.75
L 114.55 544.95
Q 114.55 544.55 114.6 544.25 114.65 543.95 114.7 543.7 114.75 543.45 114.9 543.3 115 543.1 115.25 542.95 115.4 542.85 115.6 542.8 115.85 542.7 116.1 542.7 116.35 542.65 116.65 542.65 117 542.65 117.4 542.65
L 122.55 542.65
Q 122.85 542.65 123.05 542.7 123.25 542.75 123.35 542.85 123.45 542.95 123.5 543.2 123.55 543.5 123.55 543.9 Z"/>

<path fill="#FFFFFF" stroke="none" d="
M 123.5 544.45
Q 123.55 544.2 123.55 543.9 123.55 543.5 123.5 543.2 123.45 542.95 123.35 542.85 123.25 542.75 123.05 542.7 122.85 542.65 122.55 542.65
L 117.4 542.65
Q 117 542.65 116.65 542.65 116.35 542.65 116.1 542.7 115.85 542.7 115.6 542.8 115.4 542.85 115.25 542.95 115 543.1 114.9 543.3 114.75 543.45 114.7 543.7 114.65 543.95 114.6 544.25 114.55 544.55 114.55 544.95
L 114.55 548.75
Q 114.55 549.55 114.7 550 114.75 550.25 114.9 550.4 115 550.55 115.25 550.65 115.4 550.8 115.6 550.85 115.85 550.9 116.1 550.95 116.35 550.95 116.65 550.95 117 551 117.4 551 118.25 550.95 119.05 550.9 119.85 550.85 120.65 550.75 121.45 550.7 122.25 550.6 123.05 550.5 123.85 550.35 124.5 550.3 124.75 549.95 124.85 549.75 124.85 549.5 124.85 549.25 124.75 548.9 124.7 548.7 124.65 548.55 124.65 548.4 124.6 548.3 124.5 548.2 124.5 548.15 124.4 548.05 124.4 548 124.3 548 124.2 547.95 124.15 547.95 124 547.95 123.9 547.95 123.75 547.95 123.65 547.95 123.55 547.95 122.8 548.1 122.05 548.15 121.3 548.25 120.5 548.3 119.7 548.4 118.9 548.4 118.15 548.45 117.4 548.45 117.4 548.32265625 117.4 548
L 117.4 545.1 122.55 545.1
Q 122.85 545.1 123.05 545.05 123.25 545 123.35 544.85 123.45 544.7 123.5 544.45
M 123.9 552.2
Q 123.7 552.3 123.6 552.45 123.5 552.65 123.45 552.9 123.4 553.1 123.4 553.35 123.4 553.65 123.45 553.85 123.5 554.05 123.6 554.2 123.7 554.4 123.9 554.5 124.1 554.55 124.4 554.55
L 126 554.55 126 560.1
Q 126 560.6 126.45 560.85 126.65 561 126.85 561.05 127.1 561.15 127.3 561.15 127.55 561.15 127.8 561.05 128.05 561 128.25 560.85 128.4 560.7 128.55 560.55 128.65 560.35 128.65 560.1
L 128.65 553.9
Q 128.65 553.5 128.55 553.2 128.4 552.85 128.2 552.6 128 552.4 127.65 552.25 127.35 552.15 126.95 552.15
L 124.4 552.15
Q 124.1 552.15 123.9 552.2
M 116.4 552.9
Q 116.35 553.1 116.35 553.35 116.35 553.65 116.4 553.8 116.5 554 116.6 554.15 116.7 554.3 116.9 554.4 117.1 554.45 117.4 554.45
L 120.1 554.45 120.1 555.45 118.35 555.45
Q 117.5 555.45 116.95 555.75 116.65 555.95 116.55 556.2 116.4 556.5 116.4 556.9
L 116.4 559.9
Q 116.4 560.3 116.55 560.6 116.6 560.7 116.7 560.8 116.85 560.9 117 560.95 117.1 561 117.3 561.05 117.45 561.1 117.65 561.1 117.8 561.1 118 561.15 118.15 561.15 118.35 561.15 118.7 561.1 119 561.1 119.25 561.1 119.5 561.1 119.75 561.1 119.95 561.05 120.2 561.05 120.4 561.05 120.65 561 120.85 561 121.1 560.95 121.35 560.95 121.75 560.9 122.25 560.85
L 122.15 560.85
Q 122.4 560.8 122.65 560.7 122.85 560.6 122.95 560.45 123.05 560.25 123.1 560.05 123.15 559.8 123.1 559.55 123.05 559.3 122.95 559.15 122.85 558.95 122.7 558.8 122.55 558.65 122.35 558.6 122.15 558.55 121.85 558.55 121.4 558.65 121 558.7 120.6 558.75 120.25 558.75 119.85 558.8 119.45 558.85 119.05 558.85 118.6 558.85
L 118.6 557.75 120.5 557.75
Q 120.9 557.75 121.2 557.65 121.55 557.55 121.85 557.35 122.15 557.15 122.35 556.85 122.5 556.55 122.5 556.1
L 122.5 553.7
Q 122.5 553.3 122.35 553 122.15 552.7 121.85 552.5 121.55 552.3 121.2 552.25 120.9 552.15 120.5 552.15
L 117.4 552.15
Q 117.1 552.15 116.9 552.2 116.7 552.3 116.6 552.45 116.5 552.65 116.4 552.9
M 126.5 541.85
Q 126.4 541.9 126.3 541.95 126.2 542 126.1 542.1 126.05 542.15 126 542.25 125.9 542.35 125.9 542.5 125.85 542.6 125.85 542.75
L 125.85 550.35
Q 125.85 550.5 125.9 550.6 125.9 550.7 126 550.8 126.05 550.9 126.1 551 126.2 551.1 126.3 551.15 126.4 551.2 126.5 551.25 126.65 551.3 126.75 551.3 126.9 551.3 127 551.35 127.15 551.35 127.3 551.35 127.55 551.35 127.8 551.3 128.05 551.25 128.25 551.15 128.45 551.05 128.55 550.85 128.65 550.65 128.65 550.35
L 128.65 547.9 130.55 547.9
Q 131.2 547.9 131.35 547.5 131.4 547.3 131.45 547.1 131.45 546.9 131.45 546.65 131.45 546.15 131.35 545.75 131.25 545.6 131.05 545.5 130.85 545.4 130.55 545.4
L 128.65 545.4 128.65 542.75
Q 128.65 542.15 128.25 541.95 128.05 541.85 127.8 541.8 127.55 541.75 127.3 541.75 127.15 541.75 127 541.75 126.9 541.8 126.75 541.8 126.65 541.85 126.5 541.85
M 106 541.9
Q 105.8 541.95 105.6 542.05 105.4 542.15 105.3 542.35 105.2 542.55 105.2 542.85
L 105.2 560.6
Q 105.2 560.9 105.3 561.05 105.4 561.3 105.6 561.35 105.8 561.45 106 561.5 106.25 561.55 106.55 561.55 106.95 561.55 107.4 561.35 107.6 561.3 107.75 561.05 107.85 560.9 107.85 560.6
L 107.85 551.4 109.6 551.4
Q 109.95 551.4 110.15 551.3 110.4 551.2 110.5 551 110.6 550.8 110.65 550.55 110.75 550.35 110.75 550.1 110.75 549.85 110.65 549.65 110.6 549.4 110.5 549.2 110.4 549.05 110.15 548.95 109.95 548.85 109.6 548.85
L 107.85 548.85 107.85 542.85
Q 107.85 542.55 107.75 542.35 107.6 542.15 107.4 542.05 106.95 541.85 106.55 541.85 106.25 541.85 106 541.9
M 99.6 543.55
Q 99.3 543.55 99.1 543.65 98.9 543.75 98.8 543.95 98.6 544.1 98.55 544.35 98.5 544.55 98.5 544.85 98.5 545.1 98.55 545.3 98.6 545.5 98.8 545.7 98.9 545.9 99.1 545.95 99.3 546.05 99.6 546.05
L 100.65 546.05
Q 100.6 546.65 100.55 547.2 100.5 547.8 100.4 548.35 100.35 548.9 100.2 549.45 100.1 550 99.95 550.5 99.85 551.05 99.65 551.55 99.5 552.05 99.3 552.5 99.05 552.95 98.8 553.4 98.5 553.8 98.2 554.2 98.05 554.45 98 554.65 97.95 554.9 98.05 555.1 98.15 555.35 98.25 555.5 98.4 555.7 98.55 555.8 98.8 555.95 99 556 99.25 556.1 99.45 556.1 99.7 556.15 99.85 556.1 100.05 556 100.15 555.85 100.6 555.35 100.95 554.8 101.35 554.3 101.65 553.7 102 553.1 102.2 552.5 102.45 551.9 102.6 551.25 102.85 550.55 103 549.9 103.15 549.2 103.25 548.5 103.35 547.8 103.4 547.05 103.45 546.35 103.45 545.6 103.45 545.4 103.45 545.2 103.4 544.95 103.4 544.8 103.4 544.6 103.35 544.45 103.3 544.3 103.2 544.15 103.05 544 102.9 543.9 102.75 543.8 102.55 543.7 102.4 543.65 102.1 543.6 101.85 543.55 101.55 543.55
L 99.6 543.55
M 93.2 543.95
Q 93.1 544.1 93 544.35 92.95 544.55 92.95 544.8 92.95 545.05 93 545.25 93.1 545.5 93.2 545.65 93.35 545.85 93.5 545.95 93.7 546.05 93.95 546.05
L 95.5 546.05
Q 95.45 546.55 95.4 547 95.35 547.5 95.25 547.95 95.2 548.45 95.1 548.9 95 549.35 94.85 549.75 94.75 550.2 94.6 550.6 94.45 551 94.3 551.4 94.1 551.75 93.85 552.1 93.6 552.4 93.3 552.7 93.1 552.9 93.05 553.1 92.95 553.3 92.95 553.55 92.95 553.75 93.05 553.95 93.15 554.15 93.3 554.3
L 93.25 554.3
Q 93.45 554.5 93.7 554.65 93.9 554.75 94.1 554.75 94.35 554.8 94.5 554.75 94.65 554.7 94.75 554.65 95.25 554.3 95.6 553.9 96 553.45 96.35 552.9 96.7 552.35 96.95 551.75 97.2 551.15 97.35 550.5 97.55 549.9 97.7 549.25 97.85 548.6 97.95 547.95 98.05 547.3 98.1 546.75 98.15 546.15 98.15 545.6 98.15 545.4 98.1 545.15 98.1 544.95 98.1 544.75 98.05 544.4 97.85 544.15 97.7 544 97.55 543.9 97.35 543.8 97.2 543.7 97 543.65 96.75 543.6 96.45 543.55 96.15 543.55
L 93.95 543.55
Q 93.7 543.55 93.5 543.65 93.35 543.75 93.2 543.95
M 1166.15 437.85
Q 1166.15 422.85 1151.15 422.85
L 1041.15 422.85
Q 1026.15 422.85 1026.15 437.85
L 1026.15 467.9
Q 1026.15 482.9 1041.15 482.9
L 1151.15 482.9
Q 1166.15 482.9 1166.15 467.9
L 1166.15 437.85 Z"/>

<path fill="#1E1E1E" stroke="none" d="
M 1184.6 437.75
Q 1184.25 436.85 1183.6 436.25 1182.95 435.6 1182.1 435.2 1181.2 434.85 1180.2 434.85 1179.2 434.85 1178.3 435.2 1177.45 435.6 1176.8 436.25 1176.15 436.85 1175.75 437.75 1175.4 438.65 1175.4 439.6 1175.4 440.65 1175.75 441.5 1176.15 442.4 1176.8 443 1177.45 443.65 1178.3 444.05 1179.2 444.45 1180.2 444.45 1181.2 444.45 1182.1 444.05 1182.95 443.65 1183.6 443 1184.25 442.4 1184.6 441.5 1185 440.65 1185 439.6 1185 438.65 1184.6 437.75
M 1180.2 437.5
Q 1181.05 437.5 1181.65 438.15 1182.3 438.8 1182.3 439.6 1182.3 440.45 1181.65 441.1 1181.05 441.75 1180.2 441.75 1179.35 441.75 1178.75 441.1 1178.1 440.45 1178.1 439.6 1178.1 438.8 1178.75 438.15 1179.35 437.5 1180.2 437.5 Z"/>
</g>

<path id="Layer0_0_1_STROKES" stroke="#DBDBDB" stroke-width="3" stroke-linejoin="round" stroke-linecap="round" fill="none" d="
M 1041.15 422.85
L 1151.15 422.85
Q 1166.15 422.85 1166.15 437.85
L 1166.15 467.9
Q 1166.15 482.9 1151.15 482.9
L 1041.15 482.9
Q 1026.15 482.9 1026.15 467.9
L 1026.15 437.85
Q 1026.15 422.85 1041.15 422.85 Z"/>

<path id="Layer0_0_2_STROKES" stroke="#1E1E1E" stroke-width="3" stroke-linejoin="round" stroke-linecap="round" fill="none" d="
M 560.45 309
L 812.95 353.05 662.55 503.4 467.85 503.4 560.45 309 Z"/>

<path id="Duplicate_Items_Folder_fdbdfbd3434_copy_7_0_Layer1_0_1_STROKES" stroke="#CCCCCC" stroke-width="3" stroke-linejoin="round" stroke-linecap="round" fill="none" d="
M -519.4328376770019 -3.949999999999932
L 519.5123939514159 -3.949999999999932"/>

<path id="Duplicate_Items_Folder_fdbdfbd3434_copy_7_0_Layer1_1_1_STROKES" stroke="#CCCCCC" stroke-width="3" stroke-linejoin="round" stroke-linecap="round" fill="none" d="
M -519.4328376770019 57
L 519.5123939514159 57"/>
</defs>

<g transform="matrix( 1, 0, 0, 1, 0,0) ">
<use xlink:href="#Layer0_0_FILL"/>

<use xlink:href="#Layer0_0_1_STROKES"/>

<use xlink:href="#Layer0_0_2_STROKES"/>
</g>

<g transform="matrix( 1, 0, 0, 1, 671.95,580.55) ">
<g transform="matrix( 0.9332122802734375, 0, 0, 1, -618.4,-627.05) ">
<use xlink:href="#Duplicate_Items_Folder_fdbdfbd3434_copy_7_0_Layer1_0_1_STROKES" transform="matrix( 1.071563720703125, 0, 0, 1, 662.65,627.05) "/>
</g>

<g transform="matrix( 0.9332122802734375, 0, 0, 1, -618.4,-566.1) ">
<use xlink:href="#Duplicate_Items_Folder_fdbdfbd3434_copy_7_0_Layer1_1_1_STROKES" transform="matrix( 1.071563720703125, 0, 0, 1, 662.65,566.05) "/>
</g>
</g>
</svg>
