
<svg xmlns="http://www.w3.org/2000/svg" version="1.1" xmlns:xlink="http://www.w3.org/1999/xlink" preserveAspectRatio="none" x="0px" y="0px" width="1280px" height="720px" viewBox="0 0 1280 720">
<defs>
<g id="fbdfbdn47_0_Layer0_0_FILL">
<path fill="#FFFFFF" stroke="none" d="
M 0 0
L 0 -50 -50 -50 -50 0 0 0 Z"/>

<path fill="#D4E6A9" stroke="none" d="
M 50 -50
L 0 -50 0 0 -50 0 -50 50 50 50 50 -50 Z"/>
</g>

<g id="fbdfbdn47_2_Layer0_0_FILL">
<path fill="#FFFFFF" stroke="none" d="
M 0 0
L 0 -50 -50 -50 -50 0 0 0 Z"/>

<path fill="#D4E6A9" stroke="none" d="
M 50 -50
L 0 -50 0 0 -50 0 -50 50 50 50 50 -50 Z"/>
</g>

<path id="fbdfbdn47_0_Layer0_0_1_STROKES" stroke="#A3D062" stroke-width="2.5" stroke-linejoin="round" stroke-linecap="round" fill="none" d="
M 0 -50
L 50 -50 50 50 -50 50 -50 0 -50 -50 0 -50 0 0 -50 0"/>

<path id="fbdfbdn47_2_Layer0_0_1_STROKES" stroke="#A3D062" stroke-width="2.5" stroke-linejoin="round" stroke-linecap="round" fill="none" d="
M 0 -50
L 50 -50 50 50 -50 50 -50 0 -50 -50 0 -50 0 0 -50 0"/>
</defs>

<g transform="matrix( 1, 0, 0, 1, 290,391) ">
<g transform="matrix( 1, 0, 0, 1, 0,0) ">
<use xlink:href="#fbdfbdn47_0_Layer0_0_FILL"/>

<use xlink:href="#fbdfbdn47_0_Layer0_0_1_STROKES"/>
</g>
</g>

<g transform="matrix( 1, 0, 0, 1, 390,391) ">
<g transform="matrix( 1, 0, 0, 1, 0,0) ">
<use xlink:href="#fbdfbdn47_2_Layer0_0_FILL"/>

<use xlink:href="#fbdfbdn47_2_Layer0_0_1_STROKES"/>
</g>
</g>

<g transform="matrix( 1, 0, 0, 1, 490,391) ">
<g transform="matrix( 1, 0, 0, 1, 0,0) ">
<use xlink:href="#fbdfbdn47_2_Layer0_0_FILL"/>

<use xlink:href="#fbdfbdn47_2_Layer0_0_1_STROKES"/>
</g>
</g>

<g transform="matrix( 1, 0, 0, 1, 590,391) ">
<g transform="matrix( 1, 0, 0, 1, 0,0) ">
<use xlink:href="#fbdfbdn47_2_Layer0_0_FILL"/>

<use xlink:href="#fbdfbdn47_2_Layer0_0_1_STROKES"/>
</g>
</g>

<g transform="matrix( 1, 0, 0, 1, 690,391) ">
<g transform="matrix( 1, 0, 0, 1, 0,0) ">
<use xlink:href="#fbdfbdn47_2_Layer0_0_FILL"/>

<use xlink:href="#fbdfbdn47_2_Layer0_0_1_STROKES"/>
</g>
</g>

<g transform="matrix( 1, 0, 0, 1, 790,391) ">
<g transform="matrix( 1, 0, 0, 1, 0,0) ">
<use xlink:href="#fbdfbdn47_2_Layer0_0_FILL"/>

<use xlink:href="#fbdfbdn47_2_Layer0_0_1_STROKES"/>
</g>
</g>

<g transform="matrix( 1, 0, 0, 1, 890,391) ">
<g transform="matrix( 1, 0, 0, 1, 0,0) ">
<use xlink:href="#fbdfbdn47_2_Layer0_0_FILL"/>

<use xlink:href="#fbdfbdn47_2_Layer0_0_1_STROKES"/>
</g>
</g>

<g transform="matrix( 1, 0, 0, 1, 990,391) ">
<g transform="matrix( 1, 0, 0, 1, 0,0) ">
<use xlink:href="#fbdfbdn47_2_Layer0_0_FILL"/>

<use xlink:href="#fbdfbdn47_2_Layer0_0_1_STROKES"/>
</g>
</g>

<g transform="matrix( 1, 0, 0, 1, 290,491) ">
<g transform="matrix( 1, 0, 0, 1, 0,0) ">
<use xlink:href="#fbdfbdn47_2_Layer0_0_FILL"/>

<use xlink:href="#fbdfbdn47_2_Layer0_0_1_STROKES"/>
</g>
</g>

<g transform="matrix( 1, 0, 0, 1, 390,491) ">
<g transform="matrix( 1, 0, 0, 1, 0,0) ">
<use xlink:href="#fbdfbdn47_2_Layer0_0_FILL"/>

<use xlink:href="#fbdfbdn47_2_Layer0_0_1_STROKES"/>
</g>
</g>

<g transform="matrix( 1, 0, 0, 1, 490,491) ">
<g transform="matrix( 1, 0, 0, 1, 0,0) ">
<use xlink:href="#fbdfbdn47_2_Layer0_0_FILL"/>

<use xlink:href="#fbdfbdn47_2_Layer0_0_1_STROKES"/>
</g>
</g>

<g transform="matrix( 1, 0, 0, 1, 590,491) ">
<g transform="matrix( 1, 0, 0, 1, 0,0) ">
<use xlink:href="#fbdfbdn47_2_Layer0_0_FILL"/>

<use xlink:href="#fbdfbdn47_2_Layer0_0_1_STROKES"/>
</g>
</g>

<g transform="matrix( 1, 0, 0, 1, 690,491) ">
<g transform="matrix( 1, 0, 0, 1, 0,0) ">
<use xlink:href="#fbdfbdn47_2_Layer0_0_FILL"/>

<use xlink:href="#fbdfbdn47_2_Layer0_0_1_STROKES"/>
</g>
</g>

<g transform="matrix( 1, 0, 0, 1, 790,491) ">
<g transform="matrix( 1, 0, 0, 1, 0,0) ">
<use xlink:href="#fbdfbdn47_2_Layer0_0_FILL"/>

<use xlink:href="#fbdfbdn47_2_Layer0_0_1_STROKES"/>
</g>
</g>

<g transform="matrix( 1, 0, 0, 1, 890,491) ">
<g transform="matrix( 1, 0, 0, 1, 0,0) ">
<use xlink:href="#fbdfbdn47_2_Layer0_0_FILL"/>

<use xlink:href="#fbdfbdn47_2_Layer0_0_1_STROKES"/>
</g>
</g>

<g transform="matrix( 1, 0, 0, 1, 990,491) ">
<g transform="matrix( 1, 0, 0, 1, 0,0) ">
<use xlink:href="#fbdfbdn47_2_Layer0_0_FILL"/>

<use xlink:href="#fbdfbdn47_2_Layer0_0_1_STROKES"/>
</g>
</g>
</svg>
