
<svg xmlns="http://www.w3.org/2000/svg" version="1.1" xmlns:xlink="http://www.w3.org/1999/xlink" preserveAspectRatio="none" x="0px" y="0px" width="1280px" height="720px" viewBox="0 0 1280 720">
<defs>
<g id="Layer0_0_FILL">
<path fill="#1E1E1E" stroke="none" d="
M 288.65 590.45
Q 288.65 589.95 288.1 589.95
L 284.85 589.95
Q 284.3 589.95 284.3 590.45
L 284.3 625.15
Q 284.3 625.7 284.85 625.7
L 288.1 625.7
Q 288.65 625.7 288.65 625.15
L 288.65 607.75 292.35 607.75 292.35 626.65
Q 292.35 627.2 292.85 627.2
L 296.35 627.2
Q 296.9 627.2 296.9 626.65
L 296.9 589.75
Q 296.9 589.2 296.35 589.2
L 292.9 589.2
Q 292.35 589.2 292.35 589.75
L 292.35 603.9 288.65 603.9 288.65 590.45
M 280.25 593
Q 279.6 592.35 277.85 592.35
L 266.25 592.35
Q 266.05 592.35 265.85 592.5 265.65 592.65 265.65 592.85
L 265.65 595.6
Q 265.65 596.1 266.25 596.1
L 275.1 596.1
Q 275.9 596.1 276.1 596.4 276.3 596.7 276.25 597.55 276.2 599.5 275.35 601.85 274.5 604.15 272.95 606.45 271.45 608.7 269.25 610.85 267.05 613 264.35 614.65 264.15 614.8 264 615.1 263.85 615.4 264.1 615.75
L 265.7 618
Q 265.9 618.25 266.25 618.2 266.55 618.15 266.9 618 270 615.95 272.6 613.45 275.15 610.95 276.95 608.05 278.75 605.15 279.75 601.9 280.75 598.7 280.8 595.2 280.85 593.65 280.25 593 Z"/>

<path fill="#FFFFFF" stroke="none" d="
M 238.65 577.05
L 208.65 577.05
Q 193.65 577.05 193.65 592.05
L 193.65 622.1
Q 193.65 625.75 194.4 628.05 197.15 637.1 208.65 637.1
L 238.65 637.1
Q 250.35 637.1 252.9 628.05 253.65 625.35 253.65 622.1
L 253.65 592.05
Q 253.65 577.05 238.65 577.05
M 225.25 592
Q 226.9 592.55 228.05 593.6 229.2 594.65 229.9 596.25 230.6 597.85 230.6 599.95 230.6 601.75 229.8 603.6 229 605.45 227.8 607.25 226.6 609 225.25 610.65 223.85 612.25 222.75 613.55 221.9 614.65 220.9 615.85 219.9 617 218.9 618.15
L 230.65 618.15
Q 231.2 618.15 231.2 618.75
L 231.2 621.55
Q 231.2 622.25 230.65 622.25
L 213.6 622.25
Q 212.85 622.25 212.85 621.75
L 212.85 619.45
Q 212.85 619.15 213 618.8 213.2 618.5 213.4 618.2
L 219.5 610.95
Q 222.85 607 224.45 604.35 226.05 601.75 226.05 600.05 226.05 598.15 224.85 596.9 223.7 595.65 221.95 595.65 220.3 595.65 218.75 596.1 217.25 596.55 215.45 597.6 215.1 597.8 214.8 597.8 214.5 597.75 214.4 597.4
L 213.85 594.35
Q 213.75 594.15 213.85 594 214 593.75 214.4 593.55 215.9 592.75 217.85 592.1 219.85 591.45 221.7 591.45 223.65 591.45 225.25 592 Z"/>

<path fill="#3567D7" stroke="none" d="
M 228.05 593.6
Q 226.9 592.55 225.25 592 223.65 591.45 221.7 591.45 219.85 591.45 217.85 592.1 215.9 592.75 214.4 593.55 214 593.75 213.85 594 213.75 594.15 213.85 594.35
L 214.4 597.4
Q 214.5 597.75 214.8 597.8 215.1 597.8 215.45 597.6 217.25 596.55 218.75 596.1 220.3 595.65 221.95 595.65 223.7 595.65 224.85 596.9 226.05 598.15 226.05 600.05 226.05 601.75 224.45 604.35 222.85 607 219.5 610.95
L 213.4 618.2
Q 213.2 618.5 213 618.8 212.85 619.15 212.85 619.45
L 212.85 621.75
Q 212.85 622.25 213.6 622.25
L 230.65 622.25
Q 231.2 622.25 231.2 621.55
L 231.2 618.75
Q 231.2 618.15 230.65 618.15
L 218.9 618.15
Q 219.9 617 220.9 615.85 221.9 614.65 222.75 613.55 223.85 612.25 225.25 610.65 226.6 609 227.8 607.25 229 605.45 229.8 603.6 230.6 601.75 230.6 599.95 230.6 597.85 229.9 596.25 229.2 594.65 228.05 593.6 Z"/>
</g>

<path id="Layer0_0_1_STROKES" stroke="#DBDBDB" stroke-width="3" stroke-linejoin="round" stroke-linecap="round" fill="none" d="
M 208.65 577.05
L 238.65 577.05
Q 253.65 577.05 253.65 592.05
L 253.65 622.1
Q 253.65 625.35 252.9 628.05 250.35 637.1 238.65 637.1
L 208.65 637.1
Q 197.15 637.1 194.4 628.05 193.65 625.75 193.65 622.1
L 193.65 592.05
Q 193.65 577.05 208.65 577.05 Z"/>

<path id="Layer0_0_2_STROKES" stroke="#3567D7" stroke-width="3" stroke-linejoin="round" stroke-linecap="round" fill="none" d="
M 92.85 525.1
L 248.45 434.1 92.85 343.1
M 404.05 343.1
L 248.45 434.1 404.05 525.1"/>

<path id="Layer0_0_3_STROKES" stroke="#000000" stroke-width="3" stroke-linejoin="round" stroke-linecap="butt" fill="none" d="
M 91.7 341.35
L 405.4 341.35 405.4 526.7 91.7 526.7 91.7 341.35 Z"/>
</defs>

<g transform="matrix( 1, 0, 0, 1, 0,0) ">
<use xlink:href="#Layer0_0_FILL"/>

<use xlink:href="#Layer0_0_1_STROKES"/>

<use xlink:href="#Layer0_0_2_STROKES"/>

<use xlink:href="#Layer0_0_3_STROKES"/>
</g>
</svg>
