
<svg xmlns="http://www.w3.org/2000/svg" version="1.1" xmlns:xlink="http://www.w3.org/1999/xlink" preserveAspectRatio="none" x="0px" y="0px" width="1280px" height="720px" viewBox="0 0 1280 720">
<defs>
<g id="Layer0_0_FILL">
<path fill="#1E1E1E" stroke="none" d="
M 909.65 592.5
Q 909.45 592.65 909.45 592.85
L 909.45 595.6
Q 909.45 596.1 910.05 596.1
L 918.9 596.1
Q 919.7 596.1 919.9 596.4 920.1 596.7 920.05 597.55 920 599.5 919.15 601.85 918.3 604.15 916.75 606.45 915.25 608.7 913.05 610.85 910.85 613 908.15 614.65 907.95 614.8 907.8 615.1 907.65 615.4 907.9 615.75
L 909.5 618
Q 909.7 618.25 910.05 618.2 910.35 618.15 910.7 618 913.8 615.95 916.4 613.45 918.95 610.95 920.75 608.05 922.55 605.15 923.55 601.9 924.55 598.7 924.6 595.2 924.65 593.65 924.05 593 923.4 592.35 921.65 592.35
L 910.05 592.35
Q 909.85 592.35 909.65 592.5
M 928.65 589.95
Q 928.1 589.95 928.1 590.45
L 928.1 625.15
Q 928.1 625.7 928.65 625.7
L 931.9 625.7
Q 932.45 625.7 932.45 625.15
L 932.45 607.75 936.15 607.75 936.15 626.65
Q 936.15 627.2 936.65 627.2
L 940.15 627.2
Q 940.7 627.2 940.7 626.65
L 940.7 589.75
Q 940.7 589.2 940.15 589.2
L 936.7 589.2
Q 936.15 589.2 936.15 589.75
L 936.15 603.9 932.45 603.9 932.45 590.45
Q 932.45 589.95 931.9 589.95
L 928.65 589.95 Z"/>

<path fill="#FFFFFF" stroke="none" d="
M 882.45 577.05
L 852.45 577.05
Q 837.45 577.05 837.45 592.05
L 837.45 622.1
Q 837.45 625.75 838.2 628.05 840.95 637.1 852.45 637.1
L 882.45 637.1
Q 894.15 637.1 896.7 628.05 897.45 625.35 897.45 622.1
L 897.45 592.05
Q 897.45 577.05 882.45 577.05
M 862.45 592.25
Q 864.25 591.45 866.55 591.45 871.25 591.45 873.8 595 876.35 598.55 876.35 606 876.35 609.35 875.7 612.4 875 615.4 873.4 617.65 871.85 619.9 869.25 621.2 866.7 622.55 863 622.55 861.85 622.55 860.4 622.35 859 622.15 858.05 621.8 857.7 621.7 857.75 621.3
L 857.85 618.1
Q 857.95 617.55 858.5 617.75 859.55 618.2 860.75 618.3 861.9 618.4 863.3 618.4 865.4 618.4 866.85 617.7 868.3 617 869.3 615.75 870.3 614.5 870.9 612.85 871.5 611.15 871.75 609.25 871.4 609.75 870.8 610.2 870.15 610.65 869.4 611 868.65 611.35 867.85 611.55 867.05 611.75 866.3 611.75 864.15 611.75 862.4 611.05 860.6 610.35 859.3 609.05 858 607.75 857.35 605.95 856.65 604.15 856.65 601.85 856.65 599.65 857.3 597.75 858 595.85 859.3 594.45 860.6 593.05 862.45 592.25
M 871.7 602
Q 871.7 600.65 871.3 599.45 870.9 598.25 870.2 597.35 869.5 596.45 868.55 595.95 867.6 595.4 866.5 595.4 864.1 595.4 862.55 597.1 861.05 598.75 861.05 601.65 861.05 604.4 862.4 606 863.7 607.6 866.15 607.6 868.75 607.6 870.25 606.05 871.7 604.45 871.7 602 Z"/>

<path fill="#3567D7" stroke="none" d="
M 866.55 591.45
Q 864.25 591.45 862.45 592.25 860.6 593.05 859.3 594.45 858 595.85 857.3 597.75 856.65 599.65 856.65 601.85 856.65 604.15 857.35 605.95 858 607.75 859.3 609.05 860.6 610.35 862.4 611.05 864.15 611.75 866.3 611.75 867.05 611.75 867.85 611.55 868.65 611.35 869.4 611 870.15 610.65 870.8 610.2 871.4 609.75 871.75 609.25 871.5 611.15 870.9 612.85 870.3 614.5 869.3 615.75 868.3 617 866.85 617.7 865.4 618.4 863.3 618.4 861.9 618.4 860.75 618.3 859.55 618.2 858.5 617.75 857.95 617.55 857.85 618.1
L 857.75 621.3
Q 857.7 621.7 858.05 621.8 859 622.15 860.4 622.35 861.85 622.55 863 622.55 866.7 622.55 869.25 621.2 871.85 619.9 873.4 617.65 875 615.4 875.7 612.4 876.35 609.35 876.35 606 876.35 598.55 873.8 595 871.25 591.45 866.55 591.45
M 871.3 599.45
Q 871.7 600.65 871.7 602 871.7 604.45 870.25 606.05 868.75 607.6 866.15 607.6 863.7 607.6 862.4 606 861.05 604.4 861.05 601.65 861.05 598.75 862.55 597.1 864.1 595.4 866.5 595.4 867.6 595.4 868.55 595.95 869.5 596.45 870.2 597.35 870.9 598.25 871.3 599.45 Z"/>
</g>

<path id="Layer0_0_1_STROKES" stroke="#DBDBDB" stroke-width="3" stroke-linejoin="round" stroke-linecap="round" fill="none" d="
M 852.45 577.05
L 882.45 577.05
Q 897.45 577.05 897.45 592.05
L 897.45 622.1
Q 897.45 625.35 896.7 628.05 894.15 637.1 882.45 637.1
L 852.45 637.1
Q 840.95 637.1 838.2 628.05 837.45 625.75 837.45 622.1
L 837.45 592.05
Q 837.45 577.05 852.45 577.05 Z"/>

<path id="Layer0_0_2_STROKES" stroke="#332D2B" stroke-width="3" stroke-linejoin="bevel" stroke-linecap="butt" fill="none" d="
M 999.6 362.075
L 999.625 362.1 999.65 362.1 999.65 485.95 999.65 486 892.4 548.1 785 486 785 485.95 785 362.1 785.025 362.1
M 785.1 362.05
L 892.4 300 999.55 362.05 999.6 362.075
M 785.025 362.1
L 785.05 362.075 785.1 362.05"/>

<path id="Layer0_0_3_STROKES" stroke="#3567D7" stroke-width="3" stroke-linejoin="bevel" stroke-linecap="butt" fill="none" d="
M 999.625 362.1
L 999.65 362.05 999.6 362.075
M 785.025 362.1
L 785 362.05 785.1 362.05
M 999.65 362.05
L 999.55 362.05
M 999.6 362.075
L 946.05 393 963.9 424 999.625 362.1
M 785 362.05
L 785.05 362.075
M 785.1 362.05
L 856.55 362.05 892.4 300 928.2 362.05 999.55 362.05
M 785.05 362.075
L 838.65 393.05 856.55 362.05 892.4 362.05 892.4 300
M 928.2 362.05
L 892.4 362.05 892.4 424 946.05 393 928.2 362.05 Z
M 892.4 424
L 892.35 424 892.4 424.05 892.4 424 Z
M 928.2 485.95
L 892.4 485.95 892.4 548.05 928.2 485.95 946.05 455 892.4 424.05 892.4 485.95 856.55 485.95 892.4 548.05
M 946.05 455
L 963.9 424 999.65 485.95 946.05 455 Z
M 892.35 424
L 838.65 455 856.55 485.95 785 485.95 820.75 424 785.025 362.1
M 892.35 424
L 838.65 393.05 820.75 424 838.65 455 785 485.95
M 999.65 485.95
L 928.2 485.95"/>
</defs>

<g transform="matrix( 1, 0, 0, 1, 0,0) ">
<use xlink:href="#Layer0_0_FILL"/>

<use xlink:href="#Layer0_0_1_STROKES"/>

<use xlink:href="#Layer0_0_2_STROKES"/>

<use xlink:href="#Layer0_0_3_STROKES"/>
</g>
</svg>
