<?xml version="1.0" encoding="utf-8"?>
<!-- Generator: Adobe Illustrator 23.1.0, SVG Export Plug-In . SVG Version: 6.00 Build 0)  -->
<svg version="1.1" id="레이어_1" xmlns="http://www.w3.org/2000/svg" xmlns:xlink="http://www.w3.org/1999/xlink" x="0px"
	 y="0px" width="362px" height="212px" viewBox="0 0 362 212" style="enable-background:new 0 0 362 212;" xml:space="preserve">
<g>
	<path style="fill:#DCDDDD;" d="M31.8,12.5c-17.3,5.7-14.8,25.9-15,40.7c-0.3,16.4-0.4,14.3-0.5,30.7c-0.2,35.3-0.2,35.2,0,70.5
		c0,8.7-0.5,17.7,0.3,26.4v0c0.5,5.8,1.5,12.1,4.7,17.1c1.8,2.8,4.3,5.1,7.3,6.4c9.3,4.1,21,3,30.9,3.3
		c10.8,0.3,237.8,0.7,248.7,0.9c10.2,0.1,21,0,30.8-3c18.7-5.6,17.8-22.2,18.2-38c0.5-16.7,0.6-33.4,0.7-50.1
		c0.2-37,0.8-20.3,0.1-57.3c-0.2-9.3,0.1-19.6-1.7-28.8l0,0c-1.7-8.7-6.1-15.3-14.6-18.3c-8.8-3.2-18.9-3.4-28.1-3.7
		c-11.1-0.4-236.7,0-247.8,0.2c-10.3,0.2-21.4-0.1-31.6,2.4C33.4,12,32.6,12.2,31.8,12.5L31.8,12.5"/>
	<path style="fill:#FFFFFF;" d="M25.7,7.4c-17.3,5.7-14.8,25.9-15,40.7c-0.3,16.4-0.4,14.3-0.5,30.7c-0.2,35.3-0.2,35.2,0,70.5
		c0,8.7-0.5,17.7,0.3,26.4v0c0.5,5.8,1.5,12.1,4.7,17.1c1.8,2.8,4.3,5.1,7.3,6.4c9.3,4.1,21,3,30.9,3.3
		c10.8,0.3,237.8,0.7,248.7,0.9c10.2,0.1,21,0,30.8-3c18.7-5.6,17.8-22.2,18.2-38c0.5-16.7,0.6-33.4,0.7-50.1
		c0.2-37,0.8-20.3,0.1-57.3c-0.2-9.3,0.1-19.6-1.7-28.8l0,0c-1.7-8.7-6.1-15.3-14.6-18.3c-8.8-3.2-18.9-3.4-28.1-3.7
		c-11.1-0.4-236.7,0-247.8,0.2C49.4,4.5,38.3,4.2,28.2,6.7C27.3,6.9,26.5,7.1,25.7,7.4L25.7,7.4"/>
	<path style="fill:none;stroke:#A5A1CF;stroke-width:2;stroke-linecap:round;stroke-linejoin:round;" d="M25.7,7.4
		c-17.3,5.7-14.8,25.9-15,40.7c-0.3,16.4-0.4,14.3-0.5,30.7c-0.2,35.3-0.2,35.2,0,70.5c0,8.7-0.5,17.7,0.3,26.4v0
		c0.5,5.8,1.5,12.1,4.7,17.1c1.8,2.8,4.3,5.1,7.3,6.4c9.3,4.1,21,3,30.9,3.3c10.8,0.3,237.8,0.7,248.7,0.9c10.2,0.1,21,0,30.8-3
		c18.7-5.6,17.8-22.2,18.2-38c0.5-16.7,0.6-33.4,0.7-50.1c0.2-37,0.8-20.3,0.1-57.3c-0.2-9.3,0.1-19.6-1.7-28.8l0,0
		c-1.7-8.7-6.1-15.3-14.6-18.3c-8.8-3.2-18.9-3.4-28.1-3.7c-11.1-0.4-236.7,0-247.8,0.2C49.4,4.5,38.3,4.2,28.2,6.7
		C27.3,6.9,26.5,7.1,25.7,7.4L25.7,7.4z"/>
	<path style="fill:#C9CACA;" d="M17.9,68.5c2.6,0,4.8,2.1,4.8,4.8c0,2.6-2.1,4.8-4.8,4.8c-2.6,0-4.8-2.1-4.8-4.8
		C13.1,70.6,15.3,68.5,17.9,68.5"/>
	<path style="fill:#C9CACA;" d="M17.9,46.1c2.6,0,4.8,2.1,4.8,4.8c0,2.6-2.1,4.8-4.8,4.8c-2.6,0-4.8-2.1-4.8-4.8
		C13.1,48.2,15.3,46.1,17.9,46.1"/>
	<path style="fill:#C9CACA;" d="M17.9,23.7c2.6,0,4.8,2.1,4.8,4.8c0,2.6-2.1,4.8-4.8,4.8c-2.6,0-4.8-2.1-4.8-4.8
		C13.1,25.8,15.3,23.7,17.9,23.7"/>
	<path style="fill:#A28D81;" d="M8.6,68.2C7.1,68.7,4.2,69.1,4,71c-0.3,2.7,2.9,3.5,4.9,3.8c2.6,0.4,5.8,0.3,8.3-0.7
		c2-0.8,3.7-3.3,2.3-5.3c-0.6-0.9-2.2-0.1-1.5,0.9c1.4,2.1-2,3.2-3.2,3.5c-1.2,0.3-2.4,0.3-3.6,0.4c-1.4,0.1-2.7,0-4-0.3
		c-1.3-0.3-1.8-1.2-1.3-2.8c0.7-0.5,1.9-0.8,2.7-0.6C10.1,70.2,10,67.7,8.6,68.2"/>
	<path style="fill:#A28D81;" d="M8.6,45.8c-1.5,0.5-4.4,0.9-4.6,2.9c-0.3,2.7,2.9,3.5,4.9,3.8c2.6,0.4,5.8,0.3,8.3-0.7
		c2-0.8,3.7-3.3,2.3-5.3c-0.6-0.9-2.2-0.1-1.5,0.9c1.4,2.1-2,3.2-3.2,3.5c-1.2,0.3-2.4,0.3-3.6,0.4c-1.4,0.1-2.7,0-4-0.3
		c-1.3-0.3-1.8-1.2-1.3-2.8c0.7-0.5,1.9-0.8,2.7-0.6C10.1,47.8,10,45.3,8.6,45.8"/>
	<path style="fill:#A28D81;" d="M9.9,23.4c-1.5,0.5-4.4,0.9-4.6,2.9C5,28.9,8.2,29.8,10.2,30c2.6,0.4,4.6,0.3,7-0.7
		c2-0.8,3.7-3.3,2.3-5.3c-0.6-0.9-2.2-0.1-1.5,0.9c1.4,2.1-2,3.2-3.2,3.5c-1.2,0.3-2.4,0.3-3.6,0.4c-1.4,0.1-1.4,0-2.7-0.3
		c-1.3-0.3-1.8-1.2-1.3-2.8c0.7-0.5,1.9-0.8,2.7-0.6C11.4,25.4,11.2,22.9,9.9,23.4"/>
</g>
<g>
	<defs>
		<rect id="SVGID_1_" x="85.6" y="176.8" width="198.4" height="1.5"/>
	</defs>
	<clipPath id="SVGID_2_">
		<use xlink:href="#SVGID_1_"  style="overflow:visible;"/>
	</clipPath>
	<line style="clip-path:url(#SVGID_2_);fill:none;stroke:#000000;stroke-width:2;" x1="85.6" y1="177.6" x2="284.1" y2="177.6"/>
</g>
<path style="fill:none;stroke:#000000;stroke-width:2;stroke-miterlimit:10;" d="M284.4,177.6"/>
<path style="fill:none;stroke:#000000;stroke-width:2;stroke-miterlimit:10;" d="M85.3,177.6"/>
<g>
</g>
<g>
</g>
<g>
</g>
<g>
</g>
<g>
</g>
<g>
</g>
<g>
</g>
<g>
</g>
<g>
</g>
<g>
</g>
<g>
</g>
<g>
</g>
<g>
</g>
<g>
</g>
<g>
</g>
</svg>
