<svg xmlns="http://www.w3.org/2000/svg" viewBox="0 0 337.62 127.66"><defs><style>.cls-1{fill:#f1deca;}.cls-2{fill:#fff;}.cls-3,.cls-4,.cls-7{fill:none;}.cls-3,.cls-4{stroke:#f1deca;stroke-linecap:round;stroke-linejoin:round;}.cls-3{stroke-width:1.87px;}.cls-4{stroke-width:2.8px;}.cls-5{font-size:12.5px;fill:#231815;font-family:NanumSquareRoundB, NanumSquareRound;font-weight:700;}.cls-6{fill:#f8b500;}.cls-7{stroke:#000;stroke-miterlimit:10;stroke-width:0.42px;}</style></defs><title>자산 1</title><g id="레이어_2" data-name="레이어 2"><g id="레이어_1-2" data-name="레이어 1"><path class="cls-1" d="M114.81,34.7,99.7,5.31S97.66,0,92,0H56.46C50.74,0,48.7,5.31,48.7,5.31L33.6,34.7Z"/><path class="cls-2" d="M3.72,63.86V123s0,3.73,3.62,3.73H143.86a3.57,3.57,0,0,0,3.61-3.73V26.37s0-3.72-3.61-3.72H7.34a3.58,3.58,0,0,0-3.62,3.72v4.25m0,8.69v4.1m0,7.75v4.25"/><path class="cls-3" d="M3.72,63.86V123s0,3.73,3.62,3.73H143.86a3.57,3.57,0,0,0,3.61-3.73V26.37s0-3.72-3.61-3.72H7.34a3.58,3.58,0,0,0-3.62,3.72v4.25m0,8.69v4.1m0,7.75v4.25"/><path class="cls-4" d="M1.4,34.89H6.13M1.4,47.39H6.13M1.4,59.58H6.13"/><text class="cls-5" transform="translate(59.6 16.25)">85˚</text><path class="cls-2" d="M80.44,16.93l1.8,1m1.31-9.32,4.31,2.49m-3.13,5.63,3.64-6.3a1.66,1.66,0,0,0-.61-2.27l-1.44-.83A1.67,1.67,0,0,0,84.05,8l-3.64,6.3a.43.43,0,0,0,.16.57l3.6,2.08a.41.41,0,0,0,.56-.16m-.63.06-2.6,1.64a.79.79,0,0,1-1.12-.65l.12-3.07"/><path class="cls-6" d="M87.93,11.23l.44-.76a1.66,1.66,0,0,0-.61-2.27l-1.44-.83A1.67,1.67,0,0,0,84.05,8l-.44.76Z"/><path class="cls-6" d="M80.41,17l0,.82a.79.79,0,0,0,1.12.65l.86-.53Z"/><path class="cls-7" d="M80.44,16.93l1.8,1m1.31-9.32,4.31,2.49m-3.13,5.63,3.64-6.3a1.66,1.66,0,0,0-.61-2.27l-1.44-.83A1.67,1.67,0,0,0,84.05,8l-3.64,6.3a.43.43,0,0,0,.16.57l3.6,2.08A.41.41,0,0,0,84.73,16.77Zm-.63.06-2.6,1.64a.79.79,0,0,1-1.12-.65l.12-3.07"/><path class="cls-1" d="M304,34.7,288.92,5.31S286.88,0,281.16,0H245.67c-5.71,0-7.75,5.31-7.75,5.31L222.81,34.7Z"/><path class="cls-2" d="M192.93,63.86V123s0,3.73,3.62,3.73H333.07a3.57,3.57,0,0,0,3.61-3.73V26.37s0-3.72-3.61-3.72H196.55a3.58,3.58,0,0,0-3.62,3.72v4.25m0,8.69v4.1m0,7.75v4.25"/><path class="cls-3" d="M192.93,63.86V123s0,3.73,3.62,3.73H333.07a3.57,3.57,0,0,0,3.61-3.73V26.37s0-3.72-3.61-3.72H196.55a3.58,3.58,0,0,0-3.62,3.72v4.25m0,8.69v4.1m0,7.75v4.25"/><path class="cls-4" d="M190.61,34.89h4.74m-4.74,12.5h4.74m-4.74,12.19h4.74"/><text class="cls-5" transform="translate(245.57 16.25)">105˚</text><path class="cls-2" d="M272.9,16.93l1.8,1M276,8.65l4.32,2.49m-3.13,5.63,3.63-6.3a1.66,1.66,0,0,0-.61-2.27l-1.44-.83a1.67,1.67,0,0,0-2.27.61l-3.63,6.3a.41.41,0,0,0,.15.57l3.6,2.08a.43.43,0,0,0,.57-.16m-.64.06L274,18.47a.78.78,0,0,1-1.12-.65l.11-3.07"/><path class="cls-6" d="M280.4,11.23l.43-.76a1.66,1.66,0,0,0-.61-2.27l-1.44-.83a1.67,1.67,0,0,0-2.27.61l-.43.76Z"/><path class="cls-6" d="M272.87,17l0,.82a.78.78,0,0,0,1.12.65l.85-.53Z"/><path class="cls-7" d="M272.9,16.93l1.8,1M276,8.65l4.32,2.49m-3.13,5.63,3.63-6.3a1.66,1.66,0,0,0-.61-2.27l-1.44-.83a1.67,1.67,0,0,0-2.27.61l-3.63,6.3a.41.41,0,0,0,.15.57l3.6,2.08A.43.43,0,0,0,277.2,16.77Zm-.64.06L274,18.47a.78.78,0,0,1-1.12-.65l.11-3.07"/></g></g></svg>