<svg xmlns="http://www.w3.org/2000/svg" xmlns:xlink="http://www.w3.org/1999/xlink" viewBox="0 0 183.9 127.67"><defs><style>.cls-1,.cls-11,.cls-4,.cls-5,.cls-9{fill:none;}.cls-2{fill:#f1deca;}.cls-3{fill:#fff;}.cls-4,.cls-5{stroke:#f1deca;stroke-linecap:round;}.cls-11,.cls-4,.cls-5{stroke-linejoin:round;}.cls-4{stroke-width:1.87px;}.cls-5{stroke-width:2.8px;}.cls-6{isolation:isolate;}.cls-7{fill:#231815;}.cls-8{fill:#f8b500;}.cls-9{stroke:#030000;stroke-miterlimit:10;stroke-width:0.42px;}.cls-10{clip-path:url(#clip-path);}.cls-11{stroke:#231815;stroke-width:0.8px;}</style><clipPath id="clip-path"><rect class="cls-1" x="65.91" y="86.56" width="106.39" height="30.4"/></clipPath></defs><title>자산 2</title><g id="레이어_2" data-name="레이어 2"><g id="레이어_1-2" data-name="레이어 1"><g id="레이어_1-2-2" data-name="레이어 1-2"><g class="cls-6"></g><g class="cls-10"><line class="cls-11" x1="74.53" y1="88.01" x2="172.23" y2="105.24"/><path class="cls-7" d="M69.17,93c0-.27,0-.45-.16-.53a1.39,1.39,0,0,0-.62-.24.44.44,0,0,1-.31-.17c-.07-.1.09-.16.49-.21h.54l.49.06c.3,0,.43.13.39.25a1.79,1.79,0,0,0-.07.51v3.84a.4.4,0,0,0,.15.34.63.63,0,0,0,.33.09h3a1.29,1.29,0,0,0,.48-.06,1.35,1.35,0,0,0,.38-.19.91.91,0,0,1,.58-.16,2.8,2.8,0,0,1,.71.06c.38.07.54.22.5.44s-.25.32-.59.32h-5a2.3,2.3,0,0,1-.86-.16.76.76,0,0,1-.38-.76Z"/><path class="cls-7" d="M152.69,107.57a2,2,0,0,0-1,.26c-.28.16-.78,0-1.51-.39a.59.59,0,0,1-.22-.25c0-.09.21-.12.72-.08a23.12,23.12,0,0,0,3,.07,18.36,18.36,0,0,0,2.57-.12,1.49,1.49,0,0,0,.4-.15.77.77,0,0,1,.37,0c.31.06.43.16.35.27a.72.72,0,0,0-.13.45v3a6.86,6.86,0,0,1-.13,1.5c-.08.35-.21.54-.36.54s-.15-.15-.18-.43a8.24,8.24,0,0,1-.06-1.22v-3.6Z"/><path class="cls-7" d="M75.8,88a1.42,1.42,0,1,1-1.42-1.42A1.43,1.43,0,0,1,75.8,88h0"/><path class="cls-7" d="M156.13,102a1.42,1.42,0,1,1-1.42-1.42h0a1.41,1.41,0,0,1,1.41,1.41h0"/></g></g></g></g></svg>