<svg xmlns="http://www.w3.org/2000/svg" xmlns:xlink="http://www.w3.org/1999/xlink" viewBox="0 0 142.74 127.67"><defs><style>.cls-1,.cls-11,.cls-4,.cls-5,.cls-9{fill:none;}.cls-2{fill:#f1deca;}.cls-3{fill:#fff;}.cls-4,.cls-5{stroke:#f1deca;stroke-linecap:round;}.cls-11,.cls-4,.cls-5{stroke-linejoin:round;}.cls-4{stroke-width:1.87px;}.cls-5{stroke-width:2.8px;}.cls-6{isolation:isolate;}.cls-7{fill:#231815;}.cls-8{fill:#f8b500;}.cls-9{stroke:#030000;stroke-miterlimit:10;stroke-width:0.42px;}.cls-10{clip-path:url(#clip-path);}.cls-11{stroke:#231815;stroke-width:0.8px;}</style><clipPath id="clip-path"><rect class="cls-1" x="19.13" y="99.31" width="105.75" height="17.07"/></clipPath></defs><title>자산 1</title><g id="레이어_2" data-name="레이어 2"><g id="레이어_1-2" data-name="레이어 1"><g id="레이어_1-2-2" data-name="레이어 1-2"><path class="cls-3" d="M3.72,63.86V123s0,3.73,3.62,3.73H138.19a3.57,3.57,0,0,0,3.61-3.53V26.37s0-3.72-3.61-3.72H7.34a3.58,3.58,0,0,0-3.62,3.54v4.43m0,8.69v4.1m0,7.75v4.25"/><g class="cls-6"></g><g class="cls-10"><line class="cls-11" x1="25.67" y1="100.73" x2="124.88" y2="100.73"/><path class="cls-7" d="M22.39,107.39c0-.27,0-.45-.16-.54a1.46,1.46,0,0,0-.61-.23.46.46,0,0,1-.32-.17c-.07-.1.1-.16.49-.21h.55a1.32,1.32,0,0,1,.48.06c.16.06.43.12.4.25a1.46,1.46,0,0,0-.07.51v3.83a.42.42,0,0,0,.15.35.62.62,0,0,0,.32.09h3a1.24,1.24,0,0,0,.47-.06,1.41,1.41,0,0,0,.39-.19.86.86,0,0,1,.58-.16,2.8,2.8,0,0,1,.71.06c.38.07.54.22.49.44s-.24.32-.59.32h-5a2.12,2.12,0,0,1-.86-.16.75.75,0,0,1-.39-.76Z"/><path class="cls-7" d="M104.07,111.75a2.3,2.3,0,0,1-.86-.16c-.25-.09-.39-.35-.39-.74v-3.31a.53.53,0,0,0-.31-.56,3.27,3.27,0,0,0-.53-.17.33.33,0,0,1-.24-.15c0-.07.13-.14.51-.2a1.47,1.47,0,0,1,.75.05,1.83,1.83,0,0,0,.57.14,15.14,15.14,0,0,0,1.65,0h1.24a1.21,1.21,0,0,0,.89-.26,1.51,1.51,0,0,1,.63-.13,2.89,2.89,0,0,1,.72,0c.38.08.54.23.5.43s-.26.29-.6.29h-5v3.87a.38.38,0,0,0,.15.34.57.57,0,0,0,.31.1H107a1,1,0,0,0,.41-.06,1.38,1.38,0,0,0,.33-.2,1.05,1.05,0,0,1,.6-.15,3,3,0,0,1,.73.06c.38.07.55.22.49.42s-.24.32-.59.32Z"/><path class="cls-7" d="M27.36,100.73a1.42,1.42,0,1,1-1.42-1.42h0a1.44,1.44,0,0,1,1.42,1.42"/><path class="cls-7" d="M107,100.73a1.42,1.42,0,1,1-1.42-1.42h0a1.44,1.44,0,0,1,1.42,1.42"/></g></g></g></g></svg>