<svg xmlns="http://www.w3.org/2000/svg" viewBox="0 0 89.32 84.21"><defs><style>.cls-1,.cls-2{fill:none;}.cls-1{stroke:#00a0e9;stroke-linejoin:round;stroke-width:0.8px;}.cls-2{stroke:#e4007f;stroke-width:0.3px;}.cls-3{font-size:9px;fill:#231815;font-family:NanumSquareRoundB, NanumSquareRound;font-weight:700;}</style></defs><title>자산 5</title><g id="레이어_2" data-name="레이어 2"><g id="레이어_1-2" data-name="레이어 1"><path class="cls-1" d="M41.14,43.33.23,71.69m41-28.62L69.62,84M66,.2,41.26,43.07l48-12.79"/><path class="cls-2" d="M33.17,48.87A9.36,9.36,0,0,1,39.5,32.62a9,9,0,0,1,1.74.16M47.8,52.46a9.57,9.57,0,0,1-15.39-2.92M53.6,39.79A9.46,9.46,0,0,1,48.31,53.1m0-22.24a8.24,8.24,0,0,1,6.38,8,5.72,5.72,0,0,1,0,.59m-13.57-13a6.55,6.55,0,0,1,3.14-.81,6.48,6.48,0,0,1,5.39,2.87"/><text class="cls-3" transform="translate(42.15 21.63)">30˚</text><text class="cls-3" transform="translate(54.65 33.62)">45˚</text><text class="cls-3" transform="translate(56.9 51.5)">70˚</text><text class="cls-3" transform="translate(32.77 64.12)">90˚</text><text class="cls-3" transform="translate(13.36 39.75)">125˚</text></g></g></svg>