
<svg xmlns="http://www.w3.org/2000/svg" version="1.1" xmlns:xlink="http://www.w3.org/1999/xlink" preserveAspectRatio="none" x="0px" y="0px" width="1169px" height="649px" viewBox="0 0 1169 649">
<defs>
<g id="fdbfdbdndnm_0_Layer0_0_FILL">
<path fill="#FFDB1E" stroke="none" d="
M -70.2 0
L -34.85 60.6 34.8 60.6 70.15 0 34.8 -60.6 -34.85 -60.6 -70.2 0 Z"/>
</g>

<g id="fdbfdbdndnm_1_Layer0_0_FILL">
<path fill="#FC6637" stroke="none" d="
M -34.45 -34.45
L -34.45 34.5 34.45 34.5 34.45 -34.45 -34.45 -34.45 Z"/>
</g>

<g id="fdbfdbdndnm_3_Layer0_0_FILL">
<path fill="#06A5EC" stroke="none" d="
M -17 -30
L -52 30 16.95 30 51.95 -30 -17 -30 Z"/>
</g>

<g id="fdbfdbdndnm_2_Layer0_0_FILL">
<path fill="#EC2524" stroke="none" d="
M -34.5 -30
L -69.5 30 69.45 30 34.45 -30 -34.5 -30 Z"/>
</g>

<path id="fdbfdbdndnm_0_Layer1_0_1_STROKES" stroke="#DBBB0E" stroke-width="3" stroke-linejoin="round" stroke-linecap="round" fill="none" d="
M -34.84428405761719 -60.5987548828125
L 34.793785095214844 -60.5987548828125 70.14305877685547 0 34.793785095214844 60.5987548828125 -34.84428405761719 60.5987548828125 -70.19355773925781 0 -34.84428405761719 -60.5987548828125 Z"/>

<path id="fdbfdbdndnm_1_Layer1_0_1_STROKES" stroke="#E04F23" stroke-width="3" stroke-linejoin="round" stroke-linecap="round" fill="none" d="
M -34.45 -34.45
L 34.45 -34.45 34.45 34.5 -34.45 34.5 -34.45 -34.45 Z"/>

<path id="fdbfdbdndnm_3_Layer1_0_1_STROKES" stroke="#098CC6" stroke-width="3" stroke-linejoin="round" stroke-linecap="round" fill="none" d="
M -17 -30
L 51.95 -30 16.95 30 -52 30 -17 -30 Z"/>

<path id="fdbfdbdndnm_2_Layer1_0_1_STROKES" stroke="#C41D1C" stroke-width="3" stroke-linejoin="round" stroke-linecap="round" fill="none" d="
M -34.5 -30
L 34.45 -30 69.45 30 -69.5 30 -34.5 -30 Z"/>
</defs>

<g transform="matrix( 1, 0, 0, 1, 584.95,325) ">
<g transform="matrix( 1.2999420166015625, 0, 0, 1.2999267578125, -1,-158.65) ">
<g transform="matrix( 1.009979248046875, 0, 0, 1.009979248046875, 0,0) ">
<use xlink:href="#fdbfdbdndnm_0_Layer1_0_1_STROKES" transform="matrix( 0.9901123046875, 0, 0, 0.9901123046875, 0,0) "/>
</g>

<g transform="matrix( 1, 0, 0, 1, 0,0) ">
<use xlink:href="#fdbfdbdndnm_0_Layer0_0_FILL"/>
</g>
</g>

<g transform="matrix( 1.2999420166015625, 0, 0, 1.2999267578125, -1,-32.2) ">
<g transform="matrix( 1, 0, 0, 1, 0,0) ">
<use xlink:href="#fdbfdbdndnm_1_Layer1_0_1_STROKES"/>
</g>

<g transform="matrix( 1, 0, 0, 1, 0,0) ">
<use xlink:href="#fdbfdbdndnm_1_Layer0_0_FILL"/>
</g>
</g>

<g transform="matrix( 1.2999420166015625, 0, 0, 1.2999267578125, -1,59.3) ">
<g transform="matrix( 1, 0, 0, 1, 0,0) ">
<use xlink:href="#fdbfdbdndnm_1_Layer1_0_1_STROKES"/>
</g>

<g transform="matrix( 1, 0, 0, 1, 0,0) ">
<use xlink:href="#fdbfdbdndnm_1_Layer0_0_FILL"/>
</g>
</g>

<g transform="matrix( 1.2999420166015625, 0, 0, 1.2999267578125, -70.5,225.3) ">
<g transform="matrix( 1, 0, 0, 1, 0,0) ">
<use xlink:href="#fdbfdbdndnm_3_Layer1_0_1_STROKES"/>
</g>

<g transform="matrix( 1, 0, 0, 1, 0,0) ">
<use xlink:href="#fdbfdbdndnm_3_Layer0_0_FILL"/>
</g>
</g>

<g transform="matrix( -1.2999420166015625, 0, 0, 1.2999267578125, 67.9,225.3) ">
<g transform="matrix( 1, 0, 0, 1, 0,0) ">
<use xlink:href="#fdbfdbdndnm_3_Layer1_0_1_STROKES"/>
</g>

<g transform="matrix( 1, 0, 0, 1, 0,0) ">
<use xlink:href="#fdbfdbdndnm_3_Layer0_0_FILL"/>
</g>
</g>

<g transform="matrix( 1.2999420166015625, 0, 0, 1.2999267578125, -1,145.3) ">
<g transform="matrix( 1, 0, 0, 1, 0,0) ">
<use xlink:href="#fdbfdbdndnm_2_Layer1_0_1_STROKES"/>
</g>

<g transform="matrix( 1, 0, 0, 1, 0,0) ">
<use xlink:href="#fdbfdbdndnm_2_Layer0_0_FILL"/>
</g>
</g>

<g transform="matrix( 1.125732421875, -0.64996337890625, 0.649932861328125, 1.125732421875, 104.55,-65.85) ">
<g transform="matrix( 1, 0, 0, 1, 0,0) ">
<use xlink:href="#fdbfdbdndnm_2_Layer1_0_1_STROKES"/>
</g>

<g transform="matrix( 1, 0, 0, 1, 0,0) ">
<use xlink:href="#fdbfdbdndnm_2_Layer0_0_FILL"/>
</g>
</g>

<g transform="matrix( -1.125732421875, -0.64996337890625, -0.649932861328125, 1.125732421875, -106.45,-65.85) ">
<g transform="matrix( 1, 0, 0, 1, 0,0) ">
<use xlink:href="#fdbfdbdndnm_2_Layer1_0_1_STROKES"/>
</g>

<g transform="matrix( 1, 0, 0, 1, 0,0) ">
<use xlink:href="#fdbfdbdndnm_2_Layer0_0_FILL"/>
</g>
</g>
</g>
</svg>
