<?xml version="1.0" encoding="utf-8"?>
<!-- Generator: Adobe Illustrator 23.0.0, SVG Export Plug-In . SVG Version: 6.00 Build 0)  -->
<svg version="1.1" id="Layer_4" xmlns="http://www.w3.org/2000/svg" xmlns:xlink="http://www.w3.org/1999/xlink" x="0px" y="0px"
	 width="1000px" height="319px" viewBox="0 0 1000 319" style="enable-background:new 0 0 1000 319;" xml:space="preserve">
<g>
	<path d="M57.6,260.5c0.3,0.4,0.4,0.9,0.4,1.4s-0.1,1-0.4,1.4c-0.3,0.4-0.6,0.6-1.3,0.6H49v2.4c0,1.5,0.3,2.7,0.6,3.7
		c0.5,1,1.3,1.9,2.3,2.8s2.1,1.7,3.1,2.4c0.9,0.8,1.8,1.3,2.4,1.8c0.5,0.4,0.8,0.9,0.8,1.4c0,0.5-0.1,1-0.5,1.4
		c-0.3,0.4-0.8,0.6-1.3,0.9c-0.5,0.3-1,0.1-1.7-0.3c-0.5-0.4-1.3-0.9-2.1-1.5c-0.9-0.6-1.8-1.4-2.8-2.2c-1.2-0.9-2.1-1.7-2.4-2.3
		c-0.5-0.6-0.8-1.2-0.9-1.5l0,0c-0.1,0.5-0.4,1.2-0.9,1.7c-0.5,0.6-1.4,1.4-2.6,2.3c-1,0.8-2.1,1.5-3,2.3c-0.9,0.8-1.9,1.4-2.8,1.9
		c-0.5,0.4-1,0.5-1.5,0.4c-0.5-0.1-0.9-0.5-1.3-0.9c-0.4-0.5-0.5-1-0.5-1.5c0-0.5,0.3-1,0.8-1.4c1-0.8,2.2-1.5,3.1-2.3
		c0.9-0.8,2.1-1.5,3.1-2.4c1-0.9,1.8-1.8,2.3-2.8c0.5-1,0.6-2.3,0.6-3.9v-2.6h-7.7c-0.6,0-1-0.1-1.3-0.6c-0.3-0.4-0.4-0.9-0.4-1.4
		c0-0.5,0.1-1,0.4-1.4c0.3-0.4,0.6-0.6,1.3-0.6h19.8C57,259.8,57.3,259.9,57.6,260.5z M55.3,283.3c4.4,0,7.7,0.8,10,2.2
		c2.3,1.4,3.6,3.6,3.6,6.6c0,3-1.2,5.2-3.6,6.6c-2.3,1.4-5.7,2.2-10,2.2s-7.7-0.8-10-2.2c-2.3-1.4-3.6-3.6-3.6-6.6
		c0-3,1.2-5.2,3.6-6.6C47.6,283.9,50.9,283.3,55.3,283.3z M55.3,287c-3.1,0-5.4,0.5-6.8,1.4c-1.4,0.9-2.2,2.2-2.2,3.6
		c0,1.5,0.8,2.7,2.2,3.6c1.4,0.9,3.7,1.3,6.8,1.3c3.1,0,5.4-0.4,6.8-1.3c1.4-0.9,2.2-2.1,2.2-3.6c0-1.5-0.8-2.7-2.2-3.6
		C60.7,287.4,58.4,287,55.3,287z M66.4,257.4c0.6,0,1.2,0.1,1.5,0.5c0.5,0.3,0.6,0.8,0.6,1.5v21.5c0,0.6-0.3,1.2-0.6,1.4
		c-0.4,0.3-1,0.5-1.5,0.5c-0.6,0-1.2-0.1-1.7-0.5c-0.5-0.3-0.6-0.8-0.6-1.4v-9h-6.7c-0.6,0-1-0.3-1.3-0.6c-0.3-0.4-0.4-0.9-0.4-1.4
		c0-0.5,0.1-1,0.4-1.4c0.3-0.4,0.6-0.6,1.3-0.6H64v-8.6c0-0.6,0.3-1.2,0.6-1.5C65.2,257.5,65.7,257.4,66.4,257.4z"/>
	<path d="M87.1,258.8c0.6,0,1.2,0.1,1.7,0.5c0.5,0.3,0.8,0.8,0.8,1.5v4.1c0,1.4,0.3,2.7,0.6,3.7s1.3,2.1,2.3,3
		c1,0.9,2.1,1.7,3.1,2.4c0.9,0.8,1.8,1.3,2.7,1.9c0.5,0.4,0.8,0.8,0.8,1.4c0,0.5-0.1,1-0.5,1.4c-0.3,0.4-0.8,0.6-1.3,0.9
		c-0.5,0.3-1,0.1-1.7-0.3c-0.6-0.4-1.4-1-2.2-1.7c-0.9-0.6-1.8-1.4-2.8-2.2c-1.2-0.9-2.1-1.7-2.4-2.3c-0.5-0.5-0.8-1-0.9-1.5l0,0
		c-0.1,0.5-0.4,1.2-0.9,1.7c-0.5,0.6-1.4,1.4-2.6,2.3c-1,0.8-2.1,1.5-3,2.3c-1,0.8-1.9,1.4-3,2.1c-0.5,0.4-1,0.5-1.5,0.3
		c-0.5-0.1-0.9-0.5-1.3-0.9s-0.5-0.9-0.4-1.5c0-0.5,0.3-1,0.9-1.4c1.2-0.8,2.2-1.5,3.2-2.3c1-0.8,2.1-1.5,3.2-2.4
		c1-0.9,1.8-1.9,2.3-3c0.4-1,0.6-2.3,0.6-3.7V261c0-0.6,0.3-1.2,0.8-1.5C85.9,258.9,86.5,258.8,87.1,258.8z M103.9,283.5
		c1.4,0,2.3,0.3,2.8,0.8c0.5,0.5,0.8,1.4,0.8,2.7v9.4c0,1.3-0.3,2.2-0.8,2.7c-0.5,0.5-1.4,0.8-2.8,0.8H84.4c-1.4,0-2.3-0.3-2.8-0.8
		c-0.5-0.5-0.8-1.4-0.8-2.7V287c0-1.3,0.3-2.2,0.8-2.7c0.5-0.5,1.4-0.8,2.8-0.8H103.9z M86.3,287.4c-0.6,0-1,0.4-1,1v6.6
		c0,0.6,0.4,1,1,1h15.5c0.6,0,1-0.4,1-1v-6.6c0-0.6-0.4-1-1-1H86.3z M105,257.4c0.6,0,1.2,0.1,1.7,0.5c0.5,0.3,0.6,0.8,0.6,1.5v7.9
		h5.2c0.6,0,1,0.3,1.3,0.6s0.4,0.9,0.4,1.4c0,0.6-0.1,1-0.4,1.4c-0.3,0.4-0.6,0.6-1.3,0.6h-5.2v8.4c0,0.6-0.3,1.2-0.6,1.5
		c-0.5,0.3-1,0.5-1.7,0.5c-0.6,0-1.2-0.1-1.7-0.5c-0.5-0.3-0.6-0.8-0.6-1.5v-20.2c0-0.6,0.3-1.2,0.6-1.5
		C103.9,257.5,104.5,257.4,105,257.4z"/>
	<path d="M132.7,259.7c1.4,0,2.3,0.3,2.8,0.8c0.5,0.5,0.8,1.4,0.8,2.7v3.5c0,1.7-0.3,3.1-0.6,4.3c-0.4,1.2-1.3,2.3-2.4,3.3
		c-1.2,1-3,2.2-5,3.3c-2.2,1.2-5,2.6-8.5,4.3c-0.5,0.3-1,0.3-1.5,0c-0.5-0.3-0.9-0.6-1.2-1c-0.3-0.5-0.3-1-0.3-1.5
		c0-0.5,0.4-1,1-1.3c2.2-1,4-1.8,5.5-2.6c1.5-0.8,2.8-1.4,3.9-2.1c1-0.6,1.8-1.2,2.4-1.7s1-1,1.4-1.5c0.4-0.5,0.5-1,0.6-1.5
		c0.1-0.5,0.1-1.2,0.1-1.9v-1.8c0-0.4-0.1-0.6-0.3-0.8c-0.1-0.1-0.4-0.3-0.8-0.3h-12c-0.5,0-1-0.1-1.3-0.6c-0.3-0.4-0.4-0.9-0.4-1.4
		s0.1-1,0.4-1.4c0.3-0.4,0.6-0.6,1.3-0.6L132.7,259.7L132.7,259.7z M144.8,284.4c1.4,0,2.3,0.3,2.8,0.8c0.5,0.5,0.8,1.4,0.8,2.7
		v10.6c0,0.6-0.3,1.2-0.6,1.5c-0.5,0.3-1,0.5-1.7,0.5s-1.2-0.1-1.7-0.5c-0.5-0.3-0.6-0.8-0.6-1.5v-9.1c0-0.6-0.4-0.9-1-0.9h-20.2
		c-0.6,0-1-0.3-1.3-0.6s-0.4-0.9-0.4-1.4c0-0.5,0.1-1,0.4-1.4c0.3-0.4,0.6-0.6,1.3-0.6h22.3V284.4z M146.1,257.4
		c0.6,0,1.2,0.1,1.7,0.5c0.5,0.3,0.6,0.8,0.6,1.5v8.1h5.2c0.6,0,1,0.3,1.3,0.6s0.4,0.9,0.4,1.4c0,0.6-0.1,1-0.4,1.4
		c-0.3,0.4-0.6,0.6-1.3,0.6h-5.2v9.1c0,0.6-0.3,1.2-0.6,1.5c-0.4,0.4-1,0.5-1.7,0.5s-1.2-0.1-1.7-0.5c-0.5-0.4-0.6-0.8-0.6-1.5
		v-21.3c0-0.6,0.3-1.2,0.6-1.5C144.9,257.5,145.5,257.4,146.1,257.4z"/>
	<path d="M169.4,257c0.6,0,1.2,0.1,1.7,0.5c0.5,0.4,0.6,0.8,0.6,1.5v3h8.1c0.5,0,0.9,0.3,1.3,0.6c0.3,0.4,0.4,0.9,0.4,1.4
		s-0.1,1-0.4,1.4c-0.3,0.4-0.6,0.5-1.3,0.5h-21.3c-0.5,0-1-0.1-1.3-0.5s-0.4-0.9-0.4-1.4s0.1-1,0.4-1.4c0.3-0.4,0.6-0.6,1.3-0.6h8.5
		v-3c0-0.6,0.3-1.2,0.8-1.5C168.3,257.1,168.9,257,169.4,257z M169.4,268.1c3.1,0,5.4,0.6,7.1,1.9c1.7,1.3,2.6,3.1,2.6,5.4
		c0,2.3-0.9,4.1-2.6,5.4c-1.7,1.3-4.1,1.9-7.1,1.9c-3.1,0-5.4-0.6-7.1-1.9c-1.7-1.3-2.6-3.1-2.6-5.4c0-2.3,0.9-4.1,2.6-5.4
		C164,268.7,166.5,268.1,169.4,268.1z M169.4,271.7c-1.8,0-3.2,0.4-4.1,1c-0.9,0.8-1.4,1.7-1.4,2.7c0,1.2,0.5,2.1,1.4,2.7
		c0.9,0.8,2.3,1,4.1,1c1.8,0,3.2-0.4,4.1-1c0.9-0.8,1.4-1.7,1.4-2.7c0-1.2-0.5-2.1-1.4-2.7C172.6,272.1,171.2,271.7,169.4,271.7z
		 M178.4,285.1c4.3,0,7.6,0.6,9.9,1.9c2.3,1.3,3.6,3.2,3.6,5.9s-1.2,4.6-3.6,5.9c-2.3,1.3-5.7,1.9-9.9,1.9s-7.6-0.6-9.9-1.9
		c-2.3-1.3-3.6-3.2-3.6-5.9s1.2-4.6,3.6-5.9C170.8,285.7,174.2,285.1,178.4,285.1z M178.4,288.7c-3.1,0-5.4,0.4-6.8,1.2
		c-1.4,0.8-2.1,1.8-2.1,3.1s0.6,2.3,2.1,3.1s3.7,1,6.8,1s5.4-0.4,6.8-1c1.4-0.8,2.1-1.7,2.1-3.1c0-1.3-0.6-2.3-2.1-3.1
		C183.9,289.1,181.5,288.7,178.4,288.7z M189.5,257.4c0.6,0,1.2,0.1,1.5,0.5c0.5,0.3,0.6,0.8,0.6,1.4v23.6c0,0.6-0.3,1.2-0.6,1.4
		c-0.5,0.3-1,0.5-1.5,0.5c-0.6,0-1.2-0.1-1.5-0.5c-0.5-0.3-0.6-0.8-0.6-1.4v-3.2h-4.6c-0.5,0-0.9-0.3-1.2-0.6
		c-0.3-0.4-0.4-0.9-0.4-1.4c0-0.5,0.1-1,0.4-1.3c0.3-0.4,0.6-0.5,1.2-0.5h4.6v-3.9h-4.9c-0.5,0-0.9-0.1-1.2-0.5
		c-0.3-0.4-0.4-0.8-0.4-1.3s0.1-1,0.4-1.3c0.3-0.4,0.6-0.5,1.2-0.5h4.9v-8.9c0-0.6,0.3-1.2,0.6-1.4
		C188.4,257.5,188.9,257.4,189.5,257.4z"/>
</g>
<g>
	<path d="M317.6,260.5c0.3,0.4,0.4,0.9,0.4,1.4s-0.1,1-0.4,1.4c-0.3,0.4-0.6,0.6-1.3,0.6h-7.5v2.4c0,1.5,0.3,2.7,0.6,3.7
		c0.5,1,1.3,1.9,2.3,2.8c1,0.9,2.1,1.7,3.1,2.4c0.9,0.8,1.8,1.3,2.4,1.8c0.5,0.4,0.8,0.9,0.8,1.4c0,0.5-0.1,1-0.5,1.4
		c-0.3,0.4-0.8,0.6-1.3,0.9c-0.5,0.3-1,0.1-1.7-0.3c-0.5-0.4-1.3-0.9-2.1-1.5c-0.9-0.6-1.8-1.4-2.8-2.2c-1.2-0.9-2.1-1.7-2.4-2.3
		c-0.5-0.6-0.8-1.2-0.9-1.5l0,0c-0.1,0.5-0.4,1.2-0.9,1.7c-0.5,0.6-1.4,1.4-2.6,2.3c-1,0.8-2.1,1.5-3,2.3c-0.9,0.8-1.9,1.4-2.8,1.9
		c-0.5,0.4-1,0.5-1.5,0.4c-0.5-0.1-0.9-0.5-1.3-0.9c-0.4-0.5-0.5-1-0.5-1.5c0-0.5,0.3-1,0.8-1.4c1-0.8,2.2-1.5,3.1-2.3
		c0.9-0.8,2.1-1.5,3.1-2.4c1-0.9,1.8-1.8,2.3-2.8c0.5-1,0.6-2.3,0.6-3.9v-2.6h-7.7c-0.6,0-1-0.1-1.3-0.6c-0.3-0.4-0.4-0.9-0.4-1.4
		c0-0.5,0.1-1,0.4-1.4c0.3-0.4,0.6-0.6,1.3-0.6h19.8C316.9,259.8,317.3,259.9,317.6,260.5z M315.3,283.3c4.4,0,7.7,0.8,10,2.2
		s3.6,3.6,3.6,6.6c0,3-1.2,5.2-3.6,6.6c-2.3,1.4-5.7,2.2-10,2.2s-7.7-0.8-10-2.2s-3.6-3.6-3.6-6.6c0-3,1.2-5.2,3.6-6.6
		C307.5,283.9,310.9,283.3,315.3,283.3z M315.3,287c-3.1,0-5.4,0.5-6.8,1.4s-2.2,2.2-2.2,3.6c0,1.5,0.8,2.7,2.2,3.6
		c1.4,0.9,3.7,1.3,6.8,1.3s5.4-0.4,6.8-1.3c1.4-0.9,2.2-2.1,2.2-3.6c0-1.5-0.8-2.7-2.2-3.6C320.7,287.4,318.4,287,315.3,287z
		 M326.3,257.4c0.6,0,1.2,0.1,1.5,0.5c0.5,0.3,0.6,0.8,0.6,1.5v21.5c0,0.6-0.3,1.2-0.6,1.4c-0.4,0.3-1,0.5-1.5,0.5
		c-0.6,0-1.2-0.1-1.7-0.5c-0.5-0.3-0.6-0.8-0.6-1.4v-9h-6.7c-0.6,0-1-0.3-1.3-0.6c-0.3-0.4-0.4-0.9-0.4-1.4c0-0.5,0.1-1,0.4-1.4
		c0.3-0.4,0.6-0.6,1.3-0.6h6.7v-8.6c0-0.6,0.3-1.2,0.6-1.5C325.2,257.5,325.7,257.4,326.3,257.4z"/>
	<path d="M347.1,259.6c0.6,0,1.2,0.1,1.7,0.5c0.5,0.3,0.8,0.8,0.8,1.5v7c0,1,0,1.9,0.1,2.7c0.1,0.8,0.4,1.5,0.6,2.2
		c0.3,0.8,0.6,1.4,1.2,2.1c0.5,0.6,1,1.4,1.8,2.2c0.9,1,1.8,1.9,2.7,2.8c0.9,0.9,1.8,1.7,2.6,2.4c0.5,0.4,0.6,0.9,0.6,1.4
		c-0.1,0.5-0.3,1-0.6,1.4c-0.4,0.4-0.8,0.6-1.4,0.6c-0.5,0.1-1,0-1.5-0.5c-1.4-1.3-3-3-4.8-4.8c-0.6-0.6-1.3-1.3-1.7-1.8
		s-0.8-1-1-1.4c-0.3-0.4-0.5-0.8-0.6-1s-0.3-0.5-0.3-0.8l0,0c0,0.3-0.1,0.5-0.3,0.9c-0.1,0.3-0.4,0.6-0.6,1c-0.3,0.4-0.6,0.9-1,1.4
		s-1,1.2-1.7,1.8c-0.9,0.9-1.8,1.8-2.7,2.7c-0.9,0.9-1.8,1.8-2.8,2.7c-0.5,0.4-1,0.6-1.5,0.4c-0.5-0.1-1-0.4-1.3-0.8
		c-0.4-0.4-0.5-0.9-0.6-1.4c0-0.5,0.1-1,0.6-1.4c1-1,2.1-1.9,3.1-3c1-0.9,1.9-1.9,2.8-3c0.6-0.8,1.3-1.4,1.7-2.2
		c0.5-0.6,0.9-1.4,1.2-2.1c0.3-0.8,0.5-1.4,0.6-2.2s0.1-1.7,0.1-2.7v-7c0-0.6,0.3-1.2,0.8-1.5C345.9,259.7,346.4,259.6,347.1,259.6z
		 M365,257.4c0.6,0,1.2,0.1,1.7,0.5c0.5,0.3,0.6,0.8,0.6,1.5v12.1h5.2c0.6,0,1,0.3,1.3,0.6c0.3,0.4,0.4,0.9,0.4,1.4
		c0,0.5-0.1,1-0.4,1.4c-0.3,0.4-0.6,0.6-1.3,0.6h-5.2v20.1c0,0.6-0.3,1.2-0.6,1.5c-0.5,0.3-1,0.5-1.7,0.5c-0.6,0-1.2-0.1-1.7-0.5
		c-0.5-0.3-0.6-0.8-0.6-1.5v-36.2c0-0.6,0.3-1.2,0.6-1.5C363.8,257.5,364.3,257.4,365,257.4z"/>
	<path d="M392.6,259.7c1.4,0,2.3,0.3,2.8,0.8c0.5,0.5,0.8,1.4,0.8,2.7v3.5c0,1.7-0.3,3.1-0.6,4.3c-0.4,1.2-1.3,2.3-2.4,3.3
		c-1.2,1-3,2.2-5,3.3c-2.1,1.2-5,2.6-8.5,4.3c-0.5,0.3-1,0.3-1.5,0c-0.5-0.3-0.9-0.6-1.2-1c-0.3-0.5-0.3-1-0.3-1.5
		c0-0.5,0.4-1,1-1.3c2.2-1,4-1.8,5.5-2.6c1.5-0.8,2.8-1.4,3.9-2.1c1-0.6,1.8-1.2,2.4-1.7c0.6-0.5,1-1,1.4-1.5c0.4-0.5,0.5-1,0.6-1.5
		c0.1-0.5,0.1-1.2,0.1-1.9v-1.8c0-0.4-0.1-0.6-0.3-0.8c-0.1-0.1-0.4-0.3-0.8-0.3h-12c-0.5,0-1-0.1-1.3-0.6c-0.3-0.4-0.4-0.9-0.4-1.4
		s0.1-1,0.4-1.4c0.3-0.4,0.6-0.6,1.3-0.6L392.6,259.7L392.6,259.7z M404.8,284.4c1.4,0,2.3,0.3,2.8,0.8c0.5,0.5,0.8,1.4,0.8,2.7
		v10.6c0,0.6-0.3,1.2-0.6,1.5c-0.5,0.3-1,0.5-1.7,0.5c-0.6,0-1.2-0.1-1.7-0.5c-0.5-0.3-0.6-0.8-0.6-1.5v-9.1c0-0.6-0.4-0.9-1-0.9
		h-20.1c-0.6,0-1-0.3-1.3-0.6s-0.4-0.9-0.4-1.4c0-0.5,0.1-1,0.4-1.4c0.3-0.4,0.6-0.6,1.3-0.6h22.2V284.4z M406.1,257.4
		c0.6,0,1.2,0.1,1.7,0.5c0.5,0.3,0.6,0.8,0.6,1.5v8.1h5.2c0.6,0,1,0.3,1.3,0.6c0.3,0.4,0.4,0.9,0.4,1.4c0,0.6-0.1,1-0.4,1.4
		c-0.3,0.4-0.6,0.6-1.3,0.6h-5.2v9.1c0,0.6-0.3,1.2-0.6,1.5c-0.5,0.3-1,0.5-1.7,0.5c-0.6,0-1.2-0.1-1.7-0.5
		c-0.5-0.3-0.6-0.8-0.6-1.5v-21.3c0-0.6,0.3-1.2,0.6-1.5C404.9,257.5,405.4,257.4,406.1,257.4z"/>
	<path d="M429.4,257c0.6,0,1.2,0.1,1.7,0.5c0.5,0.3,0.6,0.8,0.6,1.5v3h8.1c0.5,0,1,0.3,1.3,0.6c0.3,0.4,0.4,0.9,0.4,1.4
		s-0.1,1-0.4,1.4c-0.3,0.4-0.6,0.5-1.3,0.5h-21.3c-0.5,0-1-0.1-1.3-0.5c-0.3-0.4-0.4-0.9-0.4-1.4s0.1-1,0.4-1.4
		c0.3-0.4,0.6-0.6,1.3-0.6h8.5v-3c0-0.6,0.3-1.2,0.8-1.5C428.2,257.1,428.8,257,429.4,257z M429.4,268.1c3.1,0,5.4,0.6,7.1,1.9
		s2.6,3.1,2.6,5.4c0,2.3-0.9,4.1-2.6,5.4s-4.1,1.9-7.1,1.9c-3.1,0-5.4-0.6-7.1-1.9s-2.6-3.1-2.6-5.4c0-2.3,0.9-4.1,2.6-5.4
		S426.3,268.1,429.4,268.1z M429.4,271.7c-1.8,0-3.2,0.4-4.1,1c-0.9,0.6-1.4,1.7-1.4,2.7c0,1.2,0.5,2.1,1.4,2.7c0.9,0.6,2.3,1,4.1,1
		c1.8,0,3.2-0.4,4.1-1c0.9-0.6,1.4-1.7,1.4-2.7c0-1.2-0.5-2.1-1.4-2.7C432.6,272.1,431.2,271.7,429.4,271.7z M438.4,285.1
		c4.3,0,7.6,0.6,9.9,1.9s3.6,3.2,3.6,5.9s-1.2,4.6-3.6,5.9c-2.3,1.3-5.7,1.9-9.9,1.9c-4.3,0-7.6-0.6-9.9-1.9
		c-2.3-1.3-3.6-3.2-3.6-5.9s1.2-4.6,3.6-5.9C430.8,285.7,434.2,285.1,438.4,285.1z M438.4,288.7c-3.1,0-5.4,0.4-6.8,1.2
		c-1.4,0.8-2.1,1.8-2.1,3.1s0.6,2.3,2.1,3.1c1.4,0.8,3.7,1,6.8,1s5.4-0.4,6.8-1c1.4-0.8,2.1-1.7,2.1-3.1c0-1.3-0.6-2.3-2.1-3.1
		C443.8,289.1,441.5,288.7,438.4,288.7z M449.4,257.4c0.6,0,1.2,0.1,1.5,0.5c0.5,0.3,0.6,0.8,0.6,1.4v23.6c0,0.6-0.3,1.2-0.6,1.4
		c-0.5,0.3-1,0.5-1.5,0.5c-0.6,0-1.2-0.1-1.5-0.5c-0.5-0.3-0.6-0.8-0.6-1.4v-3.2h-4.6c-0.5,0-0.9-0.3-1.2-0.6
		c-0.3-0.4-0.4-0.9-0.4-1.4c0-0.5,0.1-1,0.4-1.3c0.3-0.3,0.6-0.5,1.2-0.5h4.6v-3.9h-4.9c-0.5,0-0.9-0.1-1.2-0.5
		c-0.3-0.4-0.4-0.8-0.4-1.3s0.1-1,0.4-1.3c0.3-0.3,0.6-0.5,1.2-0.5h4.9v-8.9c0-0.6,0.3-1.2,0.6-1.4
		C448.3,257.5,448.9,257.4,449.4,257.4z"/>
</g>
<g>
	<path d="M579.6,260.5c0.3,0.4,0.4,0.9,0.4,1.4s-0.1,1-0.4,1.4c-0.3,0.4-0.6,0.6-1.3,0.6h-7.5v2.4c0,1.5,0.3,2.7,0.6,3.7
		c0.4,1,1.3,1.9,2.3,2.8s2.1,1.7,3.1,2.4c0.9,0.8,1.8,1.3,2.4,1.8c0.5,0.4,0.8,0.9,0.8,1.4c0,0.5-0.1,1-0.5,1.4
		c-0.3,0.4-0.8,0.6-1.3,0.9c-0.5,0.3-1,0.1-1.7-0.3c-0.5-0.4-1.3-0.9-2.1-1.5c-0.9-0.6-1.8-1.4-2.8-2.2c-1.2-0.9-2.1-1.7-2.4-2.3
		c-0.5-0.6-0.8-1.2-0.9-1.5l0,0c-0.1,0.5-0.4,1.2-0.9,1.7c-0.5,0.6-1.3,1.4-2.6,2.3c-1,0.8-2.1,1.5-3,2.3c-0.9,0.8-1.9,1.4-2.8,1.9
		c-0.5,0.4-1,0.5-1.5,0.4c-0.5-0.1-0.9-0.5-1.3-0.9c-0.4-0.5-0.5-1-0.5-1.5c0-0.5,0.3-1,0.8-1.4c1-0.8,2.2-1.5,3.1-2.3
		c0.9-0.8,2.1-1.5,3.1-2.4c1-0.9,1.8-1.8,2.3-2.8c0.5-1,0.6-2.3,0.6-3.9v-2.6H558c-0.6,0-1-0.1-1.3-0.6c-0.3-0.4-0.4-0.9-0.4-1.4
		c0-0.5,0.1-1,0.4-1.4c0.3-0.4,0.6-0.6,1.3-0.6h19.8C579,259.8,579.4,259.9,579.6,260.5z M577.3,283.3c4.4,0,7.7,0.8,10,2.2
		c2.3,1.4,3.6,3.6,3.6,6.6c0,3-1.2,5.2-3.6,6.6c-2.3,1.4-5.7,2.2-10,2.2c-4.4,0-7.7-0.8-10-2.2c-2.3-1.4-3.6-3.6-3.6-6.6
		c0-3,1.2-5.2,3.6-6.6C569.6,283.9,572.9,283.3,577.3,283.3z M577.3,287c-3.1,0-5.4,0.5-6.8,1.4s-2.2,2.2-2.2,3.6
		c0,1.5,0.8,2.7,2.2,3.6c1.4,0.9,3.7,1.3,6.8,1.3c3.1,0,5.4-0.4,6.8-1.3c1.4-0.9,2.2-2.1,2.2-3.6c0-1.5-0.8-2.7-2.2-3.6
		C582.7,287.4,580.4,287,577.3,287z M588.4,257.4c0.6,0,1.2,0.1,1.5,0.5c0.5,0.3,0.6,0.8,0.6,1.5v21.5c0,0.6-0.3,1.2-0.6,1.4
		c-0.5,0.3-1,0.5-1.5,0.5c-0.6,0-1.2-0.1-1.7-0.5s-0.6-0.8-0.6-1.4v-9h-6.7c-0.6,0-1-0.3-1.3-0.6s-0.4-0.9-0.4-1.4
		c0-0.5,0.1-1,0.4-1.4c0.3-0.4,0.6-0.6,1.3-0.6h6.7v-8.6c0-0.6,0.3-1.2,0.6-1.5C587.2,257.5,587.7,257.4,588.4,257.4z"/>
	<path d="M618.3,289.4h15.6c0.5,0,0.9,0.1,1.3,0.5c0.3,0.4,0.4,0.9,0.4,1.4c0,0.5-0.1,1-0.4,1.4c-0.3,0.4-0.6,0.6-1.3,0.6h-35.7
		c-0.5,0-1-0.3-1.3-0.6s-0.4-0.9-0.4-1.4c0-0.5,0.1-1,0.4-1.4c0.3-0.4,0.6-0.5,1.3-0.5h15.6v-10.8h4.6v10.8H618.3z M616,259
		c2.2,0,4.3,0.3,6.1,0.8c1.8,0.5,3.2,1.3,4.5,2.2c1.2,1,2.2,2.2,2.8,3.6c0.6,1.4,1,3,1,4.8c0,1.8-0.4,3.3-1,4.8
		c-0.6,1.4-1.5,2.6-2.8,3.6c-1.2,1-2.7,1.7-4.5,2.2c-1.8,0.5-3.7,0.8-6.1,0.8c-4.5,0-8-1-10.4-3c-2.4-1.9-3.7-4.8-3.7-8.4
		s1.3-6.3,3.7-8.4C608,259.9,611.4,259,616,259z M616,262.9c-1.7,0-3.1,0.1-4.3,0.5s-2.2,0.9-3,1.5c-0.8,0.6-1.4,1.4-1.8,2.3
		c-0.4,0.9-0.5,1.9-0.5,3c0,1,0.1,2.1,0.5,3c0.4,0.9,0.9,1.7,1.8,2.3c0.8,0.6,1.8,1.2,3,1.5c1.2,0.4,2.7,0.5,4.3,0.5
		c1.5,0,3.1-0.1,4.3-0.5c1.2-0.4,2.2-0.9,3-1.5c0.8-0.6,1.4-1.4,1.7-2.3c0.4-0.9,0.5-1.9,0.5-3c0-1-0.1-2.1-0.5-3
		c-0.4-0.9-0.9-1.7-1.7-2.3c-0.8-0.6-1.8-1.2-3-1.5C619,263.2,617.6,262.9,616,262.9z"/>
	<path d="M654.7,259.7c1.4,0,2.3,0.3,2.8,0.8c0.5,0.5,0.8,1.4,0.8,2.7v3.5c0,1.7-0.3,3.1-0.6,4.3c-0.4,1.2-1.3,2.3-2.4,3.3
		c-1.2,1-3,2.2-5,3.3c-2.1,1.2-5,2.6-8.5,4.3c-0.5,0.3-1,0.3-1.5,0c-0.5-0.3-0.9-0.6-1.2-1c-0.3-0.5-0.3-1-0.3-1.5
		c0-0.5,0.4-1,1-1.3c2.2-1,4-1.8,5.5-2.6c1.5-0.8,2.8-1.4,3.9-2.1c1-0.6,1.8-1.2,2.4-1.7c0.6-0.5,1-1,1.4-1.5c0.4-0.5,0.5-1,0.6-1.5
		c0.1-0.5,0.1-1.2,0.1-1.9v-1.8c0-0.4-0.1-0.6-0.3-0.8c-0.1-0.1-0.4-0.3-0.8-0.3h-12c-0.5,0-1-0.1-1.3-0.6c-0.3-0.4-0.4-0.9-0.4-1.4
		s0.1-1,0.4-1.4c0.3-0.4,0.6-0.6,1.3-0.6L654.7,259.7L654.7,259.7z M666.8,284.4c1.4,0,2.3,0.3,2.8,0.8c0.5,0.5,0.8,1.4,0.8,2.7
		v10.6c0,0.6-0.3,1.2-0.6,1.5c-0.5,0.3-1,0.5-1.7,0.5c-0.6,0-1.2-0.1-1.7-0.5c-0.5-0.3-0.6-0.8-0.6-1.5v-9.1c0-0.6-0.4-0.9-1-0.9
		h-20.2c-0.6,0-1-0.3-1.3-0.6c-0.3-0.4-0.4-0.9-0.4-1.4c0-0.5,0.1-1,0.4-1.4c0.3-0.4,0.6-0.6,1.3-0.6h22.3V284.4z M668.1,257.4
		c0.6,0,1.2,0.1,1.7,0.5c0.5,0.3,0.6,0.8,0.6,1.5v8.1h5.2c0.6,0,1,0.3,1.3,0.6s0.4,0.9,0.4,1.4c0,0.6-0.1,1-0.4,1.4
		s-0.6,0.6-1.3,0.6h-5.2v9.1c0,0.6-0.3,1.2-0.6,1.5c-0.5,0.3-1,0.5-1.7,0.5c-0.6,0-1.2-0.1-1.7-0.5c-0.5-0.3-0.6-0.8-0.6-1.5v-21.3
		c0-0.6,0.3-1.2,0.6-1.5C667,257.5,667.5,257.4,668.1,257.4z"/>
	<path d="M691.4,257c0.6,0,1.2,0.1,1.7,0.5c0.5,0.3,0.6,0.8,0.6,1.5v3h8.1c0.5,0,1,0.3,1.3,0.6s0.4,0.9,0.4,1.4s-0.1,1-0.4,1.4
		c-0.3,0.4-0.6,0.5-1.3,0.5h-21.3c-0.5,0-1-0.1-1.3-0.5s-0.4-0.9-0.4-1.4s0.1-1,0.4-1.4c0.3-0.4,0.6-0.6,1.3-0.6h8.5v-3
		c0-0.6,0.3-1.2,0.8-1.5C690.3,257.1,690.8,257,691.4,257z M691.4,268.1c3.1,0,5.4,0.6,7.1,1.9c1.7,1.3,2.6,3.1,2.6,5.4
		c0,2.3-0.9,4.1-2.6,5.4c-1.7,1.3-4.1,1.9-7.1,1.9c-3.1,0-5.4-0.6-7.1-1.9s-2.6-3.1-2.6-5.4c0-2.3,0.9-4.1,2.6-5.4
		S688.5,268.1,691.4,268.1z M691.4,271.7c-1.8,0-3.2,0.4-4.1,1c-0.9,0.6-1.4,1.7-1.4,2.7c0,1.2,0.5,2.1,1.4,2.7c0.9,0.6,2.3,1,4.1,1
		s3.2-0.4,4.1-1c0.9-0.6,1.4-1.7,1.4-2.7c0-1.2-0.5-2.1-1.4-2.7S693.3,271.7,691.4,271.7z M700.5,285.1c4.3,0,7.6,0.6,9.9,1.9
		c2.3,1.3,3.6,3.2,3.6,5.9s-1.2,4.6-3.6,5.9c-2.3,1.3-5.7,1.9-9.9,1.9s-7.6-0.6-9.9-1.9s-3.6-3.2-3.6-5.9s1.2-4.6,3.6-5.9
		C692.9,285.7,696.2,285.1,700.5,285.1z M700.5,288.7c-3.1,0-5.4,0.4-6.8,1.2c-1.4,0.8-2.1,1.8-2.1,3.1s0.6,2.3,2.1,3.1s3.7,1,6.8,1
		c3.1,0,5.4-0.4,6.8-1c1.4-0.8,2.1-1.7,2.1-3.1c0-1.3-0.6-2.3-2.1-3.1C705.9,289.1,703.6,288.7,700.5,288.7z M711.5,257.4
		c0.6,0,1.2,0.1,1.5,0.5c0.5,0.3,0.6,0.8,0.6,1.4v23.6c0,0.6-0.3,1.2-0.6,1.4c-0.5,0.3-1,0.5-1.5,0.5c-0.6,0-1.2-0.1-1.5-0.5
		c-0.5-0.3-0.6-0.8-0.6-1.4v-3.2h-4.6c-0.5,0-0.9-0.3-1.2-0.6s-0.4-0.9-0.4-1.4c0-0.5,0.1-1,0.4-1.3c0.3-0.3,0.6-0.5,1.2-0.5h4.6
		v-3.9h-4.9c-0.5,0-0.9-0.1-1.2-0.5c-0.3-0.4-0.4-0.8-0.4-1.3s0.1-1,0.4-1.3c0.3-0.3,0.6-0.5,1.2-0.5h4.9v-8.9
		c0-0.6,0.3-1.2,0.6-1.4C710.4,257.5,710.9,257.4,711.5,257.4z"/>
</g>
<g>
	<path d="M819.8,260.5c0.3,0.4,0.4,0.9,0.4,1.4s-0.1,1-0.4,1.4c-0.3,0.4-0.6,0.6-1.3,0.6H811v2.4c0,1.5,0.3,2.7,0.6,3.7
		c0.5,1,1.3,1.9,2.3,2.8s2.1,1.7,3.1,2.4c0.9,0.8,1.8,1.3,2.4,1.8c0.5,0.4,0.8,0.9,0.8,1.4c0,0.5-0.1,1-0.5,1.4
		c-0.3,0.4-0.8,0.6-1.3,0.9c-0.5,0.3-1,0.1-1.7-0.3c-0.5-0.4-1.3-0.9-2.1-1.5c-0.9-0.6-1.8-1.4-2.8-2.2c-1.2-0.9-2.1-1.7-2.4-2.3
		c-0.4-0.6-0.8-1.2-0.9-1.5l0,0c-0.1,0.5-0.4,1.2-0.9,1.7c-0.5,0.6-1.4,1.4-2.6,2.3c-1,0.8-2.1,1.5-3,2.3s-1.9,1.4-2.8,1.9
		c-0.5,0.4-1,0.5-1.5,0.4c-0.5-0.1-0.9-0.5-1.3-0.9c-0.4-0.5-0.5-1-0.5-1.5c0-0.5,0.3-1,0.8-1.4c1-0.8,2.2-1.5,3.1-2.3
		c0.9-0.8,2.1-1.5,3.1-2.4s1.8-1.8,2.3-2.8c0.5-1,0.6-2.3,0.6-3.9v-2.6h-7.7c-0.6,0-1-0.1-1.3-0.6c-0.3-0.4-0.4-0.9-0.4-1.4
		c0-0.5,0.1-1,0.4-1.4c0.3-0.4,0.6-0.6,1.3-0.6H818C819.1,259.8,819.5,259.9,819.8,260.5z M817.4,283.3c4.4,0,7.7,0.8,10,2.2
		c2.3,1.4,3.6,3.6,3.6,6.6c0,3-1.2,5.2-3.6,6.6c-2.3,1.4-5.7,2.2-10,2.2s-7.7-0.8-10-2.2c-2.3-1.4-3.6-3.6-3.6-6.6
		c0-3,1.2-5.2,3.6-6.6C809.7,283.9,813.1,283.3,817.4,283.3z M817.4,287c-3.1,0-5.4,0.5-6.8,1.4s-2.2,2.2-2.2,3.6
		c0,1.5,0.8,2.7,2.2,3.6c1.4,0.9,3.7,1.3,6.8,1.3s5.4-0.4,6.8-1.3s2.2-2.1,2.2-3.6c0-1.5-0.8-2.7-2.2-3.6
		C822.9,287.4,820.5,287,817.4,287z M828.5,257.4c0.6,0,1.2,0.1,1.5,0.5c0.5,0.3,0.6,0.8,0.6,1.5v21.5c0,0.6-0.3,1.2-0.6,1.4
		c-0.5,0.3-1,0.5-1.5,0.5c-0.6,0-1.2-0.1-1.7-0.5c-0.5-0.3-0.6-0.8-0.6-1.4v-9h-6.7c-0.6,0-1-0.3-1.3-0.6s-0.4-0.9-0.4-1.4
		c0-0.5,0.1-1,0.4-1.4c0.3-0.4,0.6-0.6,1.3-0.6h6.7v-8.6c0-0.6,0.3-1.2,0.6-1.5C827.4,257.5,827.9,257.4,828.5,257.4z"/>
	<path d="M875.2,278.2c0.3,0.4,0.4,0.9,0.4,1.4s-0.1,1-0.4,1.3c-0.3,0.4-0.6,0.5-1.2,0.5h-9.8v6.7h-4.4v-6.7h-7.5v6.7H848v-6.7h-9.8
		c-0.5,0-0.9-0.1-1.2-0.5s-0.4-0.8-0.4-1.3s0.1-1,0.4-1.4c0.3-0.4,0.6-0.5,1.2-0.5H874C874.5,277.6,874.9,277.9,875.2,278.2z
		 M869.5,287.1c0.5,0.5,0.8,1.4,0.8,2.7v8.9c0,0.6-0.3,1.2-0.8,1.5c-0.5,0.4-1,0.5-1.7,0.5s-1.2-0.1-1.5-0.5
		c-0.5-0.3-0.6-0.8-0.6-1.5v-7.5c0-0.4-0.1-0.6-0.3-0.8c-0.1-0.1-0.4-0.3-0.8-0.3h-21.8c-0.5,0-0.9-0.1-1.2-0.6
		c-0.3-0.4-0.4-0.9-0.4-1.4s0.1-1,0.4-1.4c0.3-0.4,0.6-0.5,1.2-0.5h23.8C868.1,286.4,869,286.6,869.5,287.1z M856.1,258.3
		c4.5,0,7.9,0.6,10.4,1.9c2.4,1.3,3.7,3.3,3.7,6.2c0,2.7-1.3,4.8-3.7,6.2c-2.4,1.3-5.9,1.9-10.4,1.9c-4.5,0-7.9-0.6-10.4-1.9
		c-2.4-1.3-3.7-3.3-3.7-6.2c0-2.7,1.3-4.8,3.7-6.2C848.1,258.9,851.6,258.3,856.1,258.3z M856.1,262c-3.3,0-5.8,0.4-7.2,1.2
		c-1.4,0.8-2.2,1.8-2.2,3.2s0.8,2.4,2.2,3.2c1.5,0.8,3.9,1.2,7.2,1.2c3.3,0,5.8-0.4,7.2-1.2c1.5-0.8,2.2-1.8,2.2-3.2
		s-0.8-2.4-2.2-3.2C861.8,262.4,859.4,262,856.1,262z"/>
	<path d="M894.9,259.7c1.4,0,2.3,0.3,2.8,0.8c0.5,0.5,0.8,1.4,0.8,2.7v3.5c0,1.7-0.3,3.1-0.6,4.3c-0.4,1.2-1.3,2.3-2.4,3.3
		c-1.2,1-3,2.2-5,3.3c-2.2,1.2-5,2.6-8.5,4.3c-0.5,0.3-1,0.3-1.5,0c-0.5-0.3-0.9-0.6-1.2-1c-0.3-0.5-0.3-1-0.3-1.5
		c0-0.5,0.4-1,1-1.3c2.2-1,4-1.8,5.5-2.6c1.5-0.8,2.8-1.4,3.9-2.1s1.8-1.2,2.4-1.7s1-1,1.4-1.5c0.4-0.5,0.5-1,0.6-1.5
		c0.1-0.5,0.1-1.2,0.1-1.9v-1.8c0-0.4-0.1-0.6-0.3-0.8c-0.1-0.1-0.4-0.3-0.8-0.3h-12c-0.5,0-1-0.1-1.3-0.6c-0.3-0.4-0.4-0.9-0.4-1.4
		s0.1-1,0.4-1.4c0.3-0.4,0.6-0.6,1.3-0.6L894.9,259.7L894.9,259.7z M907,284.4c1.4,0,2.3,0.3,2.8,0.8s0.8,1.4,0.8,2.7v10.6
		c0,0.6-0.3,1.2-0.6,1.5c-0.5,0.3-1,0.5-1.7,0.5c-0.6,0-1.2-0.1-1.7-0.5c-0.5-0.3-0.6-0.8-0.6-1.5v-9.1c0-0.6-0.4-0.9-1-0.9h-20.2
		c-0.6,0-1-0.3-1.3-0.6c-0.3-0.4-0.4-0.9-0.4-1.4c0-0.5,0.1-1,0.4-1.4c0.3-0.4,0.6-0.6,1.3-0.6H907V284.4z M908.3,257.4
		c0.6,0,1.2,0.1,1.7,0.5c0.5,0.3,0.6,0.8,0.6,1.5v8.1h5.2c0.6,0,1,0.3,1.3,0.6s0.4,0.9,0.4,1.4c0,0.6-0.1,1-0.4,1.4
		c-0.3,0.4-0.6,0.6-1.3,0.6h-5.2v9.1c0,0.6-0.3,1.2-0.6,1.5c-0.5,0.3-1,0.5-1.7,0.5c-0.6,0-1.2-0.1-1.7-0.5
		c-0.5-0.3-0.6-0.8-0.6-1.5v-21.3c0-0.6,0.3-1.2,0.6-1.5C907.1,257.5,907.6,257.4,908.3,257.4z"/>
	<path d="M931.6,257c0.6,0,1.2,0.1,1.7,0.5c0.5,0.3,0.6,0.8,0.6,1.5v3h8.1c0.5,0,0.9,0.3,1.3,0.6c0.3,0.4,0.4,0.9,0.4,1.4
		s-0.1,1-0.4,1.4s-0.6,0.5-1.3,0.5h-21.3c-0.5,0-1-0.1-1.3-0.5c-0.3-0.4-0.4-0.9-0.4-1.4s0.1-1,0.4-1.4c0.3-0.4,0.6-0.6,1.3-0.6h8.5
		v-3c0-0.6,0.3-1.2,0.8-1.5C930.6,257.1,930.9,257,931.6,257z M931.6,268.1c3.1,0,5.4,0.6,7.1,1.9c1.7,1.3,2.6,3.1,2.6,5.4
		c0,2.3-0.9,4.1-2.6,5.4c-1.7,1.3-4.1,1.9-7.1,1.9c-3.1,0-5.4-0.6-7.1-1.9c-1.7-1.3-2.6-3.1-2.6-5.4c0-2.3,0.9-4.1,2.6-5.4
		C926.2,268.7,928.6,268.1,931.6,268.1z M931.6,271.7c-1.8,0-3.2,0.4-4.1,1c-0.9,0.8-1.4,1.7-1.4,2.7c0,1.2,0.5,2.1,1.4,2.7
		c0.9,0.8,2.3,1,4.1,1c1.8,0,3.2-0.4,4.1-1c0.9-0.8,1.4-1.7,1.4-2.7c0-1.2-0.5-2.1-1.4-2.7C934.8,272.1,933.4,271.7,931.6,271.7z
		 M940.6,285.1c4.3,0,7.6,0.6,9.9,1.9c2.3,1.3,3.6,3.2,3.6,5.9s-1.2,4.6-3.6,5.9c-2.3,1.3-5.7,1.9-9.9,1.9c-4.3,0-7.6-0.6-9.9-1.9
		s-3.6-3.2-3.6-5.9s1.2-4.6,3.6-5.9C933,285.7,936.4,285.1,940.6,285.1z M940.6,288.7c-3.1,0-5.4,0.4-6.8,1.2
		c-1.4,0.8-2.1,1.8-2.1,3.1s0.6,2.3,2.1,3.1c1.4,0.8,3.7,1,6.8,1s5.4-0.4,6.8-1c1.4-0.8,2.1-1.7,2.1-3.1c0-1.3-0.6-2.3-2.1-3.1
		C946,289.1,943.7,288.7,940.6,288.7z M951.7,257.4c0.6,0,1.2,0.1,1.5,0.5c0.5,0.3,0.6,0.8,0.6,1.4v23.6c0,0.6-0.3,1.2-0.6,1.4
		c-0.5,0.3-1,0.5-1.5,0.5c-0.6,0-1.2-0.1-1.5-0.5c-0.5-0.3-0.6-0.8-0.6-1.4v-3.2h-4.6c-0.5,0-0.9-0.3-1.2-0.6
		c-0.3-0.4-0.4-0.9-0.4-1.4c0-0.5,0.1-1,0.4-1.3c0.3-0.4,0.6-0.5,1.2-0.5h4.6v-3.9h-4.9c-0.5,0-0.9-0.1-1.2-0.5
		c-0.3-0.4-0.4-0.8-0.4-1.3s0.1-1,0.4-1.3c0.3-0.4,0.6-0.5,1.2-0.5h4.9v-8.9c0-0.6,0.3-1.2,0.6-1.4
		C950.5,257.5,951,257.4,951.7,257.4z"/>
</g>
<rect x="297.2" y="51.4" style="fill:#FFFFFF;stroke:#1D1D1B;stroke-width:3.8649;stroke-linecap:round;stroke-linejoin:round;stroke-miterlimit:10;" width="153.2" height="153.2"/>
<polygon style="fill:#FFFFFF;stroke:#1D1D1B;stroke-width:3.8649;stroke-linecap:round;stroke-linejoin:round;stroke-miterlimit:10;" points="
	633.2,12.4 535.9,85.7 571.6,204.7 694.8,204.7 733.8,86.7 "/>
<path style="fill:#FFFFFF;stroke:#1D1D1B;stroke-width:3.8649;stroke-linecap:round;stroke-linejoin:round;stroke-miterlimit:10;" d="
	M833,25.5h104.1l50.4,91.2c0,0-50.4,88.6-51.4,87.9c-1.2-0.8-103.3,0-103.3,0l-50.8-89L833,25.5z"/>
<polygon style="fill:#FFFFFF;stroke:#1D1D1B;stroke-width:3.8649;stroke-linecap:round;stroke-linejoin:round;stroke-miterlimit:10;" points="
	109.3,28.9 7.1,204.7 211.7,204.7 "/>
</svg>
