<?xml version="1.0" encoding="utf-8"?>
<!-- Generator: Adobe Illustrator 23.0.0, SVG Export Plug-In . SVG Version: 6.00 Build 0)  -->
<svg version="1.1" id="Layer_4" xmlns="http://www.w3.org/2000/svg" xmlns:xlink="http://www.w3.org/1999/xlink" x="0px" y="0px"
	 width="1000px" height="286px" viewBox="0 0 1000 286" style="enable-background:new 0 0 1000 286;" xml:space="preserve">
<g>
	<path style="fill:#E7296E;" d="M222.6,23.9c0.4,0.4,0.7,1.2,0.7,2.4v2.5c0,1.3-0.2,2.4-0.5,3.3s-1,1.8-2.1,2.6
		c-1,0.9-2.5,1.8-4.4,2.7s-4.4,2.1-7.5,3.5c-0.5,0.2-0.9,0.2-1.3,0c-0.4-0.2-0.8-0.5-1-1c-0.2-0.4-0.2-0.8-0.2-1.3s0.4-0.9,0.9-1.1
		c1.9-0.8,3.5-1.5,4.8-2.1c1.3-0.6,2.4-1.2,3.3-1.6c0.9-0.5,1.6-0.9,2.1-1.3c0.5-0.4,0.9-0.8,1.2-1.2c0.3-0.4,0.4-0.8,0.5-1.2
		c0.1-0.4,0.1-0.9,0.1-1.4v-1.2c0-0.3-0.1-0.5-0.2-0.6c-0.1-0.1-0.3-0.2-0.7-0.2H208c-0.5,0-0.8-0.2-1.1-0.5
		c-0.2-0.3-0.3-0.7-0.3-1.2s0.1-0.9,0.3-1.2c0.2-0.3,0.6-0.5,1.1-0.5h12.2C221.4,23.2,222.2,23.4,222.6,23.9z M234,42.8
		c0.4,0.4,0.7,1.2,0.7,2.4v3.7c0,1.1-0.2,1.9-0.7,2.4c-0.4,0.4-1.2,0.6-2.4,0.6h-15.5c-0.3,0-0.5,0.1-0.6,0.2
		c-0.1,0.1-0.2,0.3-0.2,0.7v1.7c0,0.6,0.3,0.8,0.8,0.8h18.1c0.5,0,0.8,0.2,1,0.5c0.2,0.3,0.3,0.7,0.3,1.1c0,0.4-0.1,0.8-0.3,1.1
		c-0.2,0.3-0.5,0.5-1,0.5h-19.8c-1.2,0-2-0.2-2.4-0.6c-0.4-0.4-0.7-1.2-0.7-2.4v-3.7c0-1.1,0.2-1.9,0.7-2.4c0.4-0.4,1.2-0.6,2.4-0.6
		h15.4c0.3,0,0.5-0.1,0.7-0.2c0.1-0.1,0.2-0.3,0.2-0.7v-1.7c0-0.3-0.1-0.5-0.2-0.6c-0.1-0.1-0.3-0.2-0.7-0.2h-17.3
		c-0.5,0-0.8-0.2-1-0.5c-0.2-0.3-0.3-0.7-0.3-1.2c0-0.4,0.1-0.8,0.3-1.1c0.2-0.3,0.5-0.5,1-0.5h19C232.7,42.2,233.5,42.4,234,42.8z
		 M232.6,21.6c0.5,0,1,0.1,1.4,0.4s0.6,0.7,0.6,1.3v15.5c0,0.6-0.2,1-0.6,1.3s-0.9,0.4-1.4,0.4s-1-0.1-1.4-0.4
		c-0.4-0.3-0.6-0.7-0.6-1.3V23.3c0-0.6,0.2-1,0.6-1.3C231.6,21.7,232.1,21.6,232.6,21.6z"/>
	<path style="fill:#E7296E;" d="M250.6,23.6c3.1,0,5.5,1,7,3.1c1.6,2,2.4,5,2.4,8.9c0,3.9-0.8,6.9-2.4,8.9c-1.6,2-3.9,3.1-7,3.1
		s-5.5-1-7-3.1c-1.6-2-2.3-5-2.3-8.9c0-3.9,0.8-6.9,2.3-8.9C245.2,24.6,247.5,23.6,250.6,23.6z M250.6,27.1c-2,0-3.4,0.7-4.2,2.2
		c-0.8,1.4-1.3,3.5-1.3,6.3c0,2.7,0.4,4.8,1.3,6.3c0.8,1.4,2.2,2.2,4.2,2.2c2,0,3.4-0.7,4.3-2.2c0.8-1.4,1.3-3.5,1.3-6.3
		c0-2.7-0.4-4.8-1.3-6.3C254.1,27.9,252.6,27.1,250.6,27.1z M268,21.6c0.5,0,1,0.1,1.4,0.4c0.4,0.3,0.6,0.7,0.6,1.3v31.2
		c0,0.6-0.2,1-0.6,1.3c-0.4,0.3-0.9,0.4-1.4,0.4c-0.5,0-1-0.1-1.4-0.4S266,55,266,54.5V23.3c0-0.6,0.2-1,0.6-1.3
		S267.5,21.6,268,21.6z"/>
	<path style="fill:#E7296E;" d="M290.1,24.3c1.2,0,2,0.2,2.4,0.6c0.4,0.4,0.7,1.2,0.7,2.4v4.4c0,1.1-0.1,2.1-0.2,3
		c-0.1,0.9-0.4,1.7-0.8,2.5c-0.4,0.8-0.9,1.6-1.5,2.3c-0.7,0.8-1.5,1.6-2.6,2.4s-2.3,1.8-3.8,2.7c-1.5,1-3.3,2.1-5.3,3.4
		c-0.5,0.3-0.9,0.3-1.4,0.1c-0.5-0.2-0.8-0.4-1.1-0.8c-0.3-0.4-0.4-0.8-0.4-1.3s0.2-0.9,0.7-1.2c1.9-1.1,3.5-2.2,4.8-3
		c1.3-0.9,2.5-1.7,3.4-2.4c0.9-0.7,1.6-1.4,2.2-2c0.5-0.6,0.9-1.2,1.2-1.8c0.3-0.6,0.5-1.2,0.6-1.9c0.1-0.7,0.1-1.4,0.1-2.3v-3
		c0-0.3-0.1-0.5-0.2-0.6s-0.3-0.2-0.7-0.2H278c-0.5,0-0.9-0.2-1.1-0.5c-0.2-0.3-0.3-0.7-0.3-1.2c0-0.5,0.1-0.9,0.3-1.2
		s0.6-0.5,1.1-0.5H290.1z M301.7,21.6c0.5,0,1,0.1,1.4,0.4c0.4,0.3,0.6,0.7,0.6,1.3v10.4h4.4c0.5,0,0.9,0.2,1.1,0.5
		c0.2,0.3,0.3,0.7,0.3,1.2c0,0.5-0.1,0.9-0.3,1.2c-0.2,0.3-0.6,0.5-1.1,0.5h-4.4v17.3c0,0.6-0.2,1-0.6,1.3c-0.4,0.3-0.9,0.4-1.4,0.4
		s-1-0.1-1.4-0.4c-0.4-0.3-0.6-0.7-0.6-1.3V23.3c0-0.6,0.2-1,0.6-1.3C300.7,21.7,301.2,21.6,301.7,21.6z"/>
	<path style="fill:#E7296E;" d="M334.5,23.2c1.2,0,2,0.2,2.4,0.6c0.4,0.4,0.7,1.2,0.7,2.4v2.5c0,0.9-0.1,1.7-0.2,2.3
		c-0.1,0.7-0.4,1.3-0.8,1.9s-0.9,1.2-1.6,1.7c-0.7,0.6-1.5,1.1-2.6,1.7c-1.1,0.6-2.4,1.3-3.9,2c-1.5,0.7-3.3,1.5-5.4,2.5
		c-0.5,0.2-0.9,0.2-1.3,0c-0.4-0.2-0.8-0.5-1-1c-0.2-0.4-0.2-0.8-0.2-1.3s0.4-0.9,0.9-1.1c2.8-1.2,5-2.2,6.6-3
		c1.6-0.8,2.8-1.5,3.6-2.1c0.8-0.6,1.3-1.2,1.5-1.8c0.2-0.6,0.3-1.3,0.3-2.1v-1.2c0-0.3-0.1-0.5-0.2-0.6s-0.3-0.2-0.7-0.2h-10.4
		c-0.5,0-0.8-0.2-1.1-0.5s-0.3-0.7-0.3-1.2s0.1-0.9,0.3-1.2s0.6-0.5,1.1-0.5H334.5z M347.3,42.4c0.5,0,0.8,0.2,1,0.5
		c0.2,0.3,0.3,0.7,0.3,1.1c0,0.5-0.1,0.8-0.3,1.2c-0.2,0.3-0.5,0.5-1,0.5h-17.4c-0.6,0-0.8,0.3-0.8,0.8v2.4h17.8
		c0.5,0,0.8,0.2,1,0.5s0.3,0.7,0.3,1.1c0,0.4-0.1,0.8-0.3,1.1s-0.5,0.5-1,0.5h-17.8v2.4c0,0.6,0.3,0.8,0.8,0.8h17.8
		c0.5,0,0.8,0.2,1,0.5c0.2,0.3,0.3,0.7,0.3,1.1c0,0.4-0.1,0.8-0.3,1.1c-0.2,0.3-0.5,0.5-1,0.5h-19.4c-1.2,0-2-0.2-2.4-0.6
		c-0.4-0.4-0.7-1.2-0.7-2.4v-10c0-1.1,0.2-1.9,0.7-2.4c0.4-0.4,1.2-0.6,2.4-0.6H347.3z M346.1,21.6c0.5,0,1,0.1,1.4,0.4
		c0.4,0.3,0.6,0.7,0.6,1.3v5.9h4.4c0.5,0,0.9,0.2,1.1,0.5s0.3,0.7,0.3,1.2c0,0.5-0.1,0.9-0.3,1.3c-0.2,0.3-0.6,0.5-1.1,0.5h-4.4v6.2
		c0,0.6-0.2,1-0.6,1.3c-0.4,0.3-0.9,0.4-1.4,0.4s-1-0.1-1.4-0.4c-0.4-0.3-0.6-0.7-0.6-1.3V23.3c0-0.6,0.2-1,0.6-1.3
		C345.1,21.7,345.6,21.6,346.1,21.6z"/>
	<path style="fill:#E7296E;" d="M388.3,39.3c0.2,0.3,0.3,0.7,0.3,1.2c0,0.5-0.1,0.8-0.3,1.2c-0.2,0.3-0.6,0.5-1.1,0.5h-30.8
		c-0.5,0-0.8-0.2-1.1-0.5c-0.2-0.3-0.3-0.7-0.3-1.2c0-0.5,0.1-0.9,0.3-1.2c0.2-0.3,0.6-0.5,1.1-0.5h30.8
		C387.7,38.8,388.1,39,388.3,39.3z M371.9,22.1c0.5,0,1,0.1,1.4,0.4c0.4,0.3,0.6,0.7,0.6,1.3v1.3c0,1.1,0.3,2,0.9,2.8s1.6,1.4,3.1,2
		c1.3,0.6,2.5,1.1,3.6,1.6s2.3,0.9,3.5,1.4c0.4,0.2,0.6,0.5,0.7,0.9c0.1,0.5,0.1,0.9-0.1,1.3c-0.2,0.4-0.4,0.8-0.8,1
		c-0.4,0.2-0.8,0.2-1.3,0.1c-1.1-0.4-2.2-0.8-3.3-1.3c-1.1-0.5-2.2-0.9-3.3-1.4c-1.8-0.8-3-1.5-3.7-2.1c-0.7-0.6-1.1-1.1-1.3-1.6h0
		c-0.1,0.3-0.2,0.5-0.4,0.8c-0.2,0.3-0.5,0.6-0.9,0.9c-0.4,0.3-0.9,0.6-1.5,1c-0.6,0.3-1.4,0.7-2.2,1.1c-1.1,0.5-2.2,0.9-3.3,1.4
		c-1.1,0.5-2.2,0.9-3.3,1.3c-0.5,0.2-1,0.2-1.4,0c-0.4-0.2-0.7-0.6-0.8-1c-0.2-0.4-0.2-0.8-0.2-1.3c0.1-0.5,0.3-0.8,0.8-1
		c1.2-0.5,2.4-0.9,3.5-1.4c1.1-0.5,2.3-1,3.6-1.6c1.4-0.6,2.4-1.3,3.1-2s0.9-1.6,0.9-2.8v-1.3c0-0.6,0.2-1.1,0.6-1.3
		C370.9,22.2,371.3,22.1,371.9,22.1z M361.5,44.6c0.5,0,1,0.1,1.4,0.4c0.4,0.3,0.6,0.7,0.6,1.2v2.5h16.7v-2.5c0-0.6,0.2-1,0.6-1.2
		c0.4-0.3,0.8-0.4,1.3-0.4c0.5,0,1,0.1,1.4,0.4c0.4,0.3,0.6,0.7,0.6,1.2v9.2c0,1.1-0.2,1.9-0.7,2.4c-0.4,0.4-1.2,0.6-2.4,0.6h-18.4
		c-1.2,0-2-0.2-2.4-0.6c-0.4-0.4-0.6-1.2-0.6-2.4v-9.2c0-0.6,0.2-1,0.6-1.2C360.6,44.8,361.1,44.6,361.5,44.6z M363.5,54.6
		c0,0.4,0.2,0.6,0.6,0.6h15.4c0.4,0,0.6-0.2,0.6-0.6v-2.6h-16.7V54.6z"/>
	<path style="fill:#E7296E;" d="M394.9,23.9c0.5,0,1,0.1,1.4,0.4c0.4,0.3,0.6,0.7,0.6,1.3v17c0,0.6,0.3,0.8,0.8,0.8
		c2.8,0,5.3-0.1,7.6-0.2c2.3-0.1,4.5-0.4,6.7-0.7c0.5-0.1,0.8,0.1,1.1,0.4c0.3,0.3,0.4,0.7,0.5,1.1c0.1,0.5,0,0.9-0.2,1.3
		c-0.2,0.4-0.5,0.6-0.9,0.7c-0.9,0.1-1.9,0.3-3,0.4c-1.1,0.1-2.3,0.2-3.6,0.3c-1.3,0.1-2.8,0.1-4.4,0.2c-1.6,0-3.5,0.1-5.5,0.1
		c-1.2,0-2-0.2-2.4-0.6c-0.4-0.4-0.6-1.2-0.6-2.4V25.6c0-0.6,0.2-1.1,0.6-1.3C393.9,24,394.3,23.9,394.9,23.9z M418.6,21.6
		c0.5,0,1,0.1,1.4,0.4c0.4,0.3,0.6,0.7,0.6,1.3v31.2c0,0.6-0.2,1-0.6,1.3c-0.4,0.3-0.9,0.4-1.4,0.4c-0.5,0-1-0.1-1.4-0.4
		s-0.6-0.7-0.6-1.3V23.3c0-0.6,0.2-1,0.6-1.3S418.1,21.6,418.6,21.6z"/>
	<path style="fill:#E7296E;" d="M444.4,24.8c0.2,0.3,0.3,0.8,0.3,1.2c0,0.5-0.1,0.8-0.3,1.2c-0.2,0.3-0.6,0.5-1.1,0.5h-11.2
		c-0.6,0-0.8,0.3-0.8,0.8v14.2c0,0.6,0.3,0.8,0.8,0.8c2.6,0,5.1-0.1,7.4-0.2s4.5-0.4,6.6-0.7c0.5-0.1,0.8,0.1,1.1,0.4
		c0.3,0.3,0.4,0.7,0.5,1.1c0.1,0.5,0,0.9-0.2,1.3s-0.5,0.6-0.9,0.7c-0.9,0.1-1.9,0.3-3,0.4c-1.1,0.1-2.3,0.2-3.6,0.3
		s-2.8,0.1-4.3,0.2s-3.4,0.1-5.3,0.1c-1.2,0-2-0.2-2.4-0.6c-0.4-0.4-0.7-1.2-0.7-2.4V27.3c0-1.1,0.2-1.9,0.7-2.4s1.2-0.6,2.4-0.6h13
		C443.9,24.3,444.2,24.4,444.4,24.8z M452.3,21.6c0.5,0,1,0.1,1.4,0.4c0.4,0.3,0.6,0.7,0.6,1.3v10.4h4.4c0.5,0,0.9,0.2,1.1,0.5
		c0.2,0.3,0.3,0.7,0.3,1.2c0,0.5-0.1,0.9-0.3,1.2c-0.2,0.3-0.6,0.5-1.1,0.5h-4.4v17.3c0,0.6-0.2,1-0.6,1.3c-0.4,0.3-0.9,0.4-1.4,0.4
		s-1-0.1-1.4-0.4c-0.4-0.3-0.6-0.7-0.6-1.3V23.3c0-0.6,0.2-1,0.6-1.3C451.3,21.7,451.8,21.6,452.3,21.6z"/>
	<path style="fill:#E7296E;" d="M464.8,48.7c0.8,0,1.4,0.3,1.9,0.8c0.5,0.5,0.8,1.1,0.8,1.9c0,0.8-0.3,1.4-0.8,1.9
		c-0.5,0.5-1.2,0.8-1.9,0.8s-1.4-0.3-1.9-0.8c-0.5-0.5-0.8-1.2-0.8-1.9c0-0.8,0.3-1.4,0.8-1.9C463.4,49,464.1,48.7,464.8,48.7z"/>
</g>
<g>
	<g>
		<polyline style="fill:none;stroke:#E4007F;stroke-width:1.2;stroke-linecap:round;stroke-miterlimit:10;" points="68,156.7 
			274.4,65.8 212.7,135.7 		"/>
		<g>
			<path style="fill:#E4007F;" d="M70,155.8l0.7-5l-0.2,0l-5.3,5.4c-2,1.5-4.1,3-6.1,4.5c2.5-0.5,4.9-1,7.4-1.5l7.6-0.3l0.1-0.1
				L70,155.8z"/>
		</g>
		<g>
			<path style="fill:#E4007F;" d="M214.1,134.1l5,0.9l0,0.2l-6.8,3.4c-2,1.5-4.1,3-6.1,4.4c1.2-2.2,2.4-4.4,3.7-6.6l2.6-7.1l0.2-0.1
				L214.1,134.1z"/>
		</g>
	</g>
</g>
<path d="M270,255.9H3.5l-0.7-1.2L136.2,24.1h1.4l133.1,230.6L270,255.9z M4.9,254.3h263.7L136.9,26.2L4.9,254.3z"/>
<g>
	<g>
		
			<line style="fill:none;stroke:#E4007F;stroke-width:1.2;stroke-linecap:round;stroke-miterlimit:10;" x1="274.4" y1="65.8" x2="163.7" y2="246"/>
		<g>
			<path style="fill:#E4007F;" d="M164.9,244.1l5.1,0l0,0.2l-6.1,4.5c-1.7,1.8-3.5,3.6-5.2,5.4c0.8-2.4,1.7-4.8,2.5-7.1l1.3-7.5
				l0.1-0.1L164.9,244.1z"/>
		</g>
	</g>
</g>
<g>
</g>
</svg>
