<?xml version="1.0" encoding="utf-8"?>
<!-- Generator: Adobe Illustrator 24.3.0, SVG Export Plug-In . SVG Version: 6.00 Build 0)  -->
<svg version="1.1" id="Layer_1" xmlns="http://www.w3.org/2000/svg" xmlns:xlink="http://www.w3.org/1999/xlink" x="0px" y="0px"
	 width="273px" height="237px" viewBox="0 0 273 237" style="enable-background:new 0 0 273 237;" xml:space="preserve">
<style type="text/css">
	.st0{fill:#E4007F;}
</style>
<g>
	<g>
		<path d="M270.2,234.9H3.7L3,233.6L136.4,3.1h1.4l133.1,230.6L270.2,234.9z M5.1,233.2h263.7L137.1,5.1L5.1,233.2z"/>
		<path class="st0" d="M244.4,234.5c-0.2-1.1-0.3-2.3-0.3-3.4c0-8.6,6.1-16,14.4-17.7l0.1,0.6c-8.1,1.6-13.9,8.8-13.9,17.1
			c0,1.1,0.1,2.2,0.3,3.3L244.4,234.5z M29.6,234.5l-0.6-0.1c0.2-1.1,0.3-2.2,0.3-3.3c0-8.3-5.9-15.5-13.9-17.1l0.1-0.6
			c8.4,1.7,14.4,9.2,14.4,17.7C29.9,232.2,29.8,233.3,29.6,234.5z M136.1,30.7c-3.1,0-6.2-0.8-9-2.4c-1-0.6-1.9-1.2-2.8-2l0.4-0.5
			c0.8,0.7,1.7,1.4,2.7,1.9c7.2,4.1,16.3,2.7,21.8-3.5l0.5,0.4C146.2,28.6,141.2,30.7,136.1,30.7z"/>
	</g>
	<g>
		<path d="M126.6,38c0.8,0,1.5,0.1,2.2,0.2s1.2,0.4,1.7,0.6c0.3,0.2,0.5,0.4,0.5,0.6c0.1,0.3,0,0.5-0.1,0.8
			c-0.1,0.3-0.3,0.5-0.6,0.6c-0.3,0.1-0.5,0.1-0.9,0c-0.4-0.2-0.9-0.4-1.4-0.5c-0.5-0.1-1-0.2-1.6-0.2c-2.6,0-4,2-4.3,6
			c0.4-0.6,1-1.1,1.8-1.5c0.8-0.3,1.6-0.5,2.5-0.5c0.8,0,1.6,0.1,2.3,0.4c0.7,0.3,1.2,0.6,1.7,1.1c0.5,0.5,0.8,1.1,1.1,1.8
			c0.3,0.7,0.4,1.4,0.4,2.3v0.4c0,0.8-0.1,1.6-0.4,2.3s-0.7,1.3-1.2,1.8s-1.2,0.9-1.9,1.2c-0.7,0.3-1.6,0.4-2.4,0.4
			c-2,0-3.5-0.6-4.6-1.9c-1-1.3-1.6-3.1-1.6-5.5v-0.7c0-1.9,0.2-3.5,0.5-4.7c0.3-1.2,0.8-2.3,1.4-3c0.6-0.8,1.3-1.3,2.1-1.6
			C124.7,38.1,125.6,38,126.6,38z M125.9,46.4c-0.6,0-1.1,0.1-1.6,0.3s-0.8,0.4-1.1,0.7c-0.3,0.3-0.5,0.7-0.7,1.1
			c-0.2,0.4-0.2,0.8-0.2,1.3v0.2c0,1.1,0.3,2,0.9,2.7s1.5,1,2.6,1c1.1,0,2-0.3,2.7-0.9c0.6-0.6,1-1.5,1-2.6v-0.2
			C129.5,47.5,128.3,46.4,125.9,46.4z"/>
		<path d="M140.5,38c2.2,0,3.8,0.7,4.8,2.1c1,1.4,1.5,3.5,1.5,6.2v1.2c0,2.7-0.5,4.8-1.5,6.2c-1,1.4-2.6,2.1-4.8,2.1
			s-3.8-0.7-4.8-2.1c-1-1.4-1.5-3.5-1.5-6.2v-1.2c0-2.7,0.5-4.8,1.5-6.2S138.3,38,140.5,38z M140.5,40.2c-0.7,0-1.3,0.1-1.8,0.4
			c-0.5,0.2-0.9,0.6-1.2,1.1c-0.3,0.5-0.5,1.2-0.6,1.9c-0.1,0.8-0.2,1.7-0.2,2.8v0.8c0,1.1,0.1,2,0.2,2.8c0.1,0.8,0.3,1.4,0.6,1.9
			s0.7,0.9,1.2,1.1c0.5,0.2,1.1,0.4,1.8,0.4s1.3-0.1,1.8-0.4c0.5-0.2,0.9-0.6,1.2-1.1s0.5-1.2,0.6-1.9c0.1-0.8,0.2-1.7,0.2-2.8v-0.8
			c0-1.1-0.1-2-0.2-2.8c-0.1-0.8-0.3-1.4-0.6-1.9c-0.3-0.5-0.7-0.9-1.2-1.1C141.8,40.4,141.2,40.2,140.5,40.2z"/>
		<path d="M151.7,37.5c0.5,0,0.9,0.1,1.2,0.2c0.4,0.2,0.7,0.4,0.9,0.6s0.5,0.6,0.6,1c0.1,0.4,0.2,0.8,0.2,1.2c0,0.4-0.1,0.8-0.2,1.2
			c-0.1,0.4-0.3,0.7-0.6,0.9c-0.3,0.3-0.6,0.5-0.9,0.6c-0.4,0.2-0.8,0.2-1.2,0.2c-0.5,0-0.9-0.1-1.2-0.2c-0.4-0.2-0.7-0.4-0.9-0.6
			c-0.3-0.3-0.5-0.6-0.6-0.9c-0.1-0.4-0.2-0.8-0.2-1.2c0-0.4,0.1-0.8,0.2-1.2c0.1-0.4,0.3-0.7,0.6-1c0.3-0.3,0.6-0.5,0.9-0.6
			C150.9,37.6,151.3,37.5,151.7,37.5z M151.7,38.9c-0.5,0-0.8,0.2-1.1,0.5c-0.3,0.3-0.4,0.7-0.4,1.1c0,0.4,0.1,0.8,0.4,1.1
			c0.3,0.3,0.6,0.5,1.1,0.5c0.5,0,0.8-0.2,1.1-0.5c0.3-0.3,0.4-0.7,0.4-1.1c0-0.4-0.1-0.8-0.4-1.1C152.6,39,152.2,38.9,151.7,38.9z"
			/>
	</g>
	<g>
		<path d="M39.4,204.3c0.8,0,1.5,0.1,2.2,0.2s1.2,0.4,1.7,0.6c0.3,0.2,0.5,0.4,0.5,0.6c0.1,0.3,0,0.5-0.1,0.8
			c-0.1,0.3-0.3,0.5-0.6,0.6c-0.3,0.1-0.5,0.1-0.9,0c-0.4-0.2-0.9-0.4-1.4-0.5c-0.5-0.1-1-0.2-1.6-0.2c-2.6,0-4,2-4.3,6
			c0.4-0.6,1-1.1,1.8-1.5c0.8-0.3,1.6-0.5,2.5-0.5c0.8,0,1.6,0.1,2.3,0.4c0.7,0.3,1.2,0.6,1.7,1.1c0.5,0.5,0.8,1.1,1.1,1.8
			c0.3,0.7,0.4,1.4,0.4,2.3v0.4c0,0.8-0.1,1.6-0.4,2.3s-0.7,1.3-1.2,1.8s-1.2,0.9-1.9,1.2c-0.7,0.3-1.6,0.4-2.4,0.4
			c-2,0-3.5-0.6-4.6-1.9c-1-1.3-1.6-3.1-1.6-5.5V214c0-1.9,0.2-3.5,0.5-4.7c0.3-1.2,0.8-2.3,1.4-3c0.6-0.8,1.3-1.3,2.1-1.6
			C37.5,204.4,38.4,204.3,39.4,204.3z M38.7,212.7c-0.6,0-1.1,0.1-1.6,0.3s-0.8,0.4-1.1,0.7c-0.3,0.3-0.5,0.7-0.7,1.1
			c-0.2,0.4-0.2,0.8-0.2,1.3v0.2c0,1.1,0.3,2,0.9,2.7s1.5,1,2.6,1c1.1,0,2-0.3,2.7-0.9c0.6-0.6,1-1.5,1-2.6v-0.2
			C42.3,213.8,41.1,212.7,38.7,212.7z"/>
		<path d="M53.3,204.3c2.2,0,3.8,0.7,4.8,2.1c1,1.4,1.5,3.5,1.5,6.2v1.2c0,2.7-0.5,4.8-1.5,6.2c-1,1.4-2.6,2.1-4.8,2.1
			s-3.8-0.7-4.8-2.1c-1-1.4-1.5-3.5-1.5-6.2v-1.2c0-2.7,0.5-4.8,1.5-6.2S51.1,204.3,53.3,204.3z M53.3,206.5c-0.7,0-1.3,0.1-1.8,0.4
			c-0.5,0.2-0.9,0.6-1.2,1.1c-0.3,0.5-0.5,1.2-0.6,1.9c-0.1,0.8-0.2,1.7-0.2,2.8v0.8c0,1.1,0.1,2,0.2,2.8c0.1,0.8,0.3,1.4,0.6,1.9
			s0.7,0.9,1.2,1.1c0.5,0.2,1.1,0.4,1.8,0.4s1.3-0.1,1.8-0.4c0.5-0.2,0.9-0.6,1.2-1.1s0.5-1.2,0.6-1.9c0.1-0.8,0.2-1.7,0.2-2.8v-0.8
			c0-1.1-0.1-2-0.2-2.8c-0.1-0.8-0.3-1.4-0.6-1.9c-0.3-0.5-0.7-0.9-1.2-1.1C54.6,206.7,54,206.5,53.3,206.5z"/>
		<path d="M64.5,203.8c0.5,0,0.9,0.1,1.2,0.2c0.4,0.2,0.7,0.4,0.9,0.6s0.5,0.6,0.6,1c0.1,0.4,0.2,0.8,0.2,1.2c0,0.4-0.1,0.8-0.2,1.2
			c-0.1,0.4-0.3,0.7-0.6,0.9c-0.3,0.3-0.6,0.5-0.9,0.6c-0.4,0.2-0.8,0.2-1.2,0.2c-0.5,0-0.9-0.1-1.2-0.2c-0.4-0.2-0.7-0.4-0.9-0.6
			c-0.3-0.3-0.5-0.6-0.6-0.9c-0.1-0.4-0.2-0.8-0.2-1.2c0-0.4,0.1-0.8,0.2-1.2c0.1-0.4,0.3-0.7,0.6-1c0.3-0.3,0.6-0.5,0.9-0.6
			C63.6,203.8,64.1,203.8,64.5,203.8z M64.5,205.2c-0.5,0-0.8,0.2-1.1,0.5c-0.3,0.3-0.4,0.7-0.4,1.1c0,0.4,0.1,0.8,0.4,1.1
			c0.3,0.3,0.6,0.5,1.1,0.5c0.5,0,0.8-0.2,1.1-0.5c0.3-0.3,0.4-0.7,0.4-1.1c0-0.4-0.1-0.8-0.4-1.1C65.4,205.3,65,205.2,64.5,205.2z"
			/>
	</g>
	<g>
		<path d="M222,204.3c0.8,0,1.5,0.1,2.2,0.2s1.2,0.4,1.7,0.6c0.3,0.2,0.5,0.4,0.5,0.6c0.1,0.3,0,0.5-0.1,0.8
			c-0.1,0.3-0.3,0.5-0.6,0.6c-0.3,0.1-0.5,0.1-0.9,0c-0.4-0.2-0.9-0.4-1.4-0.5c-0.5-0.1-1-0.2-1.6-0.2c-2.6,0-4,2-4.3,6
			c0.4-0.6,1-1.1,1.8-1.5c0.8-0.3,1.6-0.5,2.5-0.5c0.8,0,1.6,0.1,2.3,0.4c0.7,0.3,1.2,0.6,1.7,1.1c0.5,0.5,0.8,1.1,1.1,1.8
			c0.3,0.7,0.4,1.4,0.4,2.3v0.4c0,0.8-0.1,1.6-0.4,2.3s-0.7,1.3-1.2,1.8s-1.2,0.9-1.9,1.2c-0.7,0.3-1.6,0.4-2.4,0.4
			c-2,0-3.5-0.6-4.6-1.9c-1-1.3-1.6-3.1-1.6-5.5V214c0-1.9,0.2-3.5,0.5-4.7c0.3-1.2,0.8-2.3,1.4-3c0.6-0.8,1.3-1.3,2.1-1.6
			C220.1,204.4,221,204.3,222,204.3z M221.4,212.7c-0.6,0-1.1,0.1-1.6,0.3s-0.8,0.4-1.1,0.7c-0.3,0.3-0.5,0.7-0.7,1.1
			c-0.2,0.4-0.2,0.8-0.2,1.3v0.2c0,1.1,0.3,2,0.9,2.7s1.5,1,2.6,1c1.1,0,2-0.3,2.7-0.9c0.6-0.6,1-1.5,1-2.6v-0.2
			C224.9,213.8,223.7,212.7,221.4,212.7z"/>
		<path d="M235.9,204.3c2.2,0,3.8,0.7,4.8,2.1c1,1.4,1.5,3.5,1.5,6.2v1.2c0,2.7-0.5,4.8-1.5,6.2c-1,1.4-2.6,2.1-4.8,2.1
			s-3.8-0.7-4.8-2.1c-1-1.4-1.5-3.5-1.5-6.2v-1.2c0-2.7,0.5-4.8,1.5-6.2S233.7,204.3,235.9,204.3z M235.9,206.5
			c-0.7,0-1.3,0.1-1.8,0.4c-0.5,0.2-0.9,0.6-1.2,1.1c-0.3,0.5-0.5,1.2-0.6,1.9c-0.1,0.8-0.2,1.7-0.2,2.8v0.8c0,1.1,0.1,2,0.2,2.8
			c0.1,0.8,0.3,1.4,0.6,1.9s0.7,0.9,1.2,1.1c0.5,0.2,1.1,0.4,1.8,0.4s1.3-0.1,1.8-0.4c0.5-0.2,0.9-0.6,1.2-1.1s0.5-1.2,0.6-1.9
			c0.1-0.8,0.2-1.7,0.2-2.8v-0.8c0-1.1-0.1-2-0.2-2.8c-0.1-0.8-0.3-1.4-0.6-1.9c-0.3-0.5-0.7-0.9-1.2-1.1
			C237.2,206.7,236.6,206.5,235.9,206.5z"/>
		<path d="M247.1,203.8c0.5,0,0.9,0.1,1.2,0.2c0.4,0.2,0.7,0.4,0.9,0.6s0.5,0.6,0.6,1c0.1,0.4,0.2,0.8,0.2,1.2
			c0,0.4-0.1,0.8-0.2,1.2c-0.1,0.4-0.3,0.7-0.6,0.9c-0.3,0.3-0.6,0.5-0.9,0.6c-0.4,0.2-0.8,0.2-1.2,0.2c-0.5,0-0.9-0.1-1.2-0.2
			c-0.4-0.2-0.7-0.4-0.9-0.6c-0.3-0.3-0.5-0.6-0.6-0.9c-0.1-0.4-0.2-0.8-0.2-1.2c0-0.4,0.1-0.8,0.2-1.2c0.1-0.4,0.3-0.7,0.6-1
			c0.3-0.3,0.6-0.5,0.9-0.6C246.3,203.8,246.7,203.8,247.1,203.8z M247.1,205.2c-0.5,0-0.8,0.2-1.1,0.5c-0.3,0.3-0.4,0.7-0.4,1.1
			c0,0.4,0.1,0.8,0.4,1.1c0.3,0.3,0.6,0.5,1.1,0.5c0.5,0,0.8-0.2,1.1-0.5c0.3-0.3,0.4-0.7,0.4-1.1c0-0.4-0.1-0.8-0.4-1.1
			C248,205.3,247.6,205.2,247.1,205.2z"/>
	</g>
</g>
<g>
</g>
<g>
</g>
<g>
</g>
<g>
</g>
<g>
</g>
<g>
</g>
<g>
</g>
<g>
</g>
<g>
</g>
<g>
</g>
<g>
</g>
<g>
</g>
<g>
</g>
<g>
</g>
<g>
</g>
</svg>
