
<svg xmlns="http://www.w3.org/2000/svg" version="1.1" xmlns:xlink="http://www.w3.org/1999/xlink" preserveAspectRatio="none" x="0px" y="0px" width="1280px" height="70px" viewBox="0 0 1280 70">
<defs>
<g id="Layer0_0_FILL">
<path fill="#FFFFFF" stroke="none" d="
M 1165.2 45.05
L 1165.2 15
Q 1165.2 0 1150.2 0
L 1006.2 0
Q 991.2 0 991.2 15
L 991.2 45.05
Q 991.2 60.05 1006.2 60.05
L 1150.2 60.05
Q 1165.2 60.05 1165.2 45.05 Z"/>
</g>

<path id="Layer0_0_1_STROKES" stroke="#DBDBDB" stroke-width="3" stroke-linejoin="round" stroke-linecap="round" fill="none" d="
M 1006.2 0
L 1150.2 0
Q 1165.2 0 1165.2 15
L 1165.2 45.05
Q 1165.2 60.05 1150.2 60.05
L 1006.2 60.05
Q 991.2 60.05 991.2 45.05
L 991.2 15
Q 991.2 0 1006.2 0 Z"/>
</defs>

<g transform="matrix( 1, 0, 0, 1, 0,5) ">
<use xlink:href="#Layer0_0_FILL"/>

<use xlink:href="#Layer0_0_1_STROKES"/>
</g>
</svg>
