
<svg xmlns="http://www.w3.org/2000/svg" version="1.1" xmlns:xlink="http://www.w3.org/1999/xlink" preserveAspectRatio="none" x="0px" y="0px" width="952px" height="552px" viewBox="0 0 952 552">
<defs>
<g id="Layer0_0_FILL">
<path fill="#569ECC" stroke="none" d="
M 582.85 44.95
L 582.85 2.95 54.75 2.95 54.75 44.95
Q 54.75 55.3 62.05 62.6 69.4 69.95 79.75 69.95
L 557.85 69.95
Q 568.25 69.95 575.5 62.6 582.85 55.35 582.85 44.95 Z"/>

<path fill="#FFFFFF" stroke="none" d="
M 952 27.95
Q 952 17.6 944.65 10.25 937.35 2.95 927 2.95
L 582.85 2.95 582.85 44.95
Q 582.85 55.35 575.5 62.6 568.25 69.95 557.85 69.95
L 79.75 69.95
Q 69.4 69.95 62.05 62.6 54.75 55.3 54.75 44.95
L 54.75 2.95 32 2.95
Q 21.7 2.95 14.3 10.25 7 17.65 7 27.95
L 7 524.1
Q 7 534.45 14.3 541.75 21.65 549.1 32 549.1
L 927 549.1
Q 937.4 549.1 944.65 541.75 952 534.5 952 524.1
L 952 27.95 Z"/>
</g>

<g id="Layer0_1_FILL">
<path fill="#FFFFFF" stroke="none" d="
M 549.7 23.7
Q 549.25 23.1 548.65 22.65 548.05 22.2 547.3 21.8 546.55 21.45 545.75 21.2 544.9 20.95 544 20.8 543.1 20.7 542.15 20.7 541.1 20.7 540.2 20.8 539.3 20.95 538.5 21.2 537.65 21.45 536.95 21.8 536.25 22.2 535.65 22.65 535.05 23.1 534.6 23.7 534.15 24.25 533.8 24.9 533.45 25.6 533.3 26.35 533.15 27.05 533.15 27.9 533.15 28.55 533.25 29.2 533.4 29.8 533.65 30.4 533.85 31 534.2 31.55 534.5 32.1 535 32.55 535.4 32.95 535.85 33.3 536.3 33.65 536.8 33.9 536.7 34.05 536.65 34.25 536.6 34.45 536.6 34.65
L 536.6 39.25 530.3 39.25
Q 529.9 39.25 529.6 39.35 529.35 39.5 529.2 39.7 529.05 39.95 529 40.25 528.9 40.55 528.9 40.85 528.9 41.2 529 41.45 529.05 41.7 529.2 41.95 529.35 42.2 529.6 42.3 529.9 42.4 530.3 42.4
L 553.85 42.4
Q 554.35 42.4 554.6 42.3 554.9 42.2 555 41.95 555.15 41.7 555.2 41.45 555.25 41.2 555.25 40.85 555.25 40.55 555.2 40.25 555.15 39.95 555 39.7 554.9 39.5 554.6 39.35 554.35 39.25 553.85 39.25
L 547.9 39.25 547.9 34.65
Q 547.9 34.35 547.8 34.1 547.75 33.9 547.6 33.75 547.85 33.6 548.1 33.45 548.4 33.3 548.65 33.1 549.9 32.15 550.5 30.85 551.15 29.55 551.15 27.9 551.15 26.25 550.5 24.9 550.2 24.25 549.7 23.7
M 542.15 23.9
Q 543.45 23.9 544.45 24.15 545.45 24.45 546.15 24.95 546.85 25.55 547.2 26.25 547.5 27 547.5 27.9 547.5 29.75 546.15 30.75 545.45 31.3 544.45 31.55 543.45 31.85 542.15 31.85 540.85 31.85 539.85 31.55 538.85 31.3 538.15 30.75 536.7 29.75 536.7 27.9 536.7 27 537.05 26.25 537.4 25.55 538.15 24.95 538.85 24.45 539.85 24.15 540.85 23.9 542.15 23.9
M 540 34.95
Q 540.55 35.05 541.05 35.05 541.3 35.05 541.6 35.05 541.85 35.1 542.2 35.1 542.7 35.05 543.2 35 543.7 34.95 544.15 34.9 544.25 34.9 544.35 34.9 544.45 34.85 544.6 34.85
L 544.6 39.25 540 39.25 540 34.95
M 512.1 21.65
Q 511.9 21.75 511.75 22 511.6 22.25 511.55 22.5 511.45 22.8 511.45 23.05 511.45 23.35 511.5 23.65 511.6 23.95 511.75 24.2 511.95 24.75 512.7 24.75
L 514.55 24.75
Q 514.6 25.2 514.6 25.6 514.6 25.75 514.6 25.8 514.6 25.85 514.6 25.95 514.6 26 514.6 26.1 514.6 26.15 514.6 26.2 514.5 26.95 514.4 27.75 514.35 28.5 514.2 29.25 514.1 30 513.9 30.7 513.75 31.45 513.55 32.1 513.25 32.85 512.95 33.5 512.65 34.2 512.35 34.8 512 35.4 511.6 35.95 511.2 36.5 510.75 37 510.65 37.2 510.6 37.35 510.55 37.5 510.55 37.7 510.55 38.1 510.7 38.45 510.85 38.75 511.15 39 511.5 39.25 511.8 39.35 512.15 39.45 512.5 39.45 512.75 39.45 512.95 39.35 513.15 39.3 513.3 39.05 513.95 38.4 514.5 37.6 515.05 36.85 515.55 35.95 516 35.1 516.4 34.2 516.8 33.3 517.05 32.3 517.4 31.3 517.65 30.3 517.85 29.25 518 28.2 518.1 27.2 518.15 26.15 518.25 25.1 518.25 24.05 518.25 23.75 518.2 23.5 518.2 23.25 518.15 23 518.1 22.75 518 22.55 517.9 22.35 517.8 22.2 517.65 22.05 517.45 21.9 517.2 21.8 516.95 21.7 516.65 21.65 516.25 21.6 515.9 21.55 515.4 21.55
L 512.7 21.55
Q 512.35 21.55 512.1 21.65
M 510.6 23.85
Q 510.6 23.3 510.5 22.85 510.4 22.45 510.15 22.15 509.95 22 509.75 21.9 509.55 21.8 509.25 21.7 508.95 21.65 508.6 21.6 508.25 21.55 507.8 21.55
L 504.7 21.55
Q 504.4 21.55 504.15 21.7 503.9 21.8 503.75 22.05 503.55 22.3 503.5 22.55 503.4 22.85 503.4 23.2 503.4 23.5 503.5 23.75 503.6 24 503.75 24.2 503.95 24.45 504.2 24.55 504.4 24.65 504.7 24.65
L 507.15 24.65
Q 507.15 24.75 507.15 24.85 507.15 24.9 507.2 24.95 507.2 25.05 507.2 25.15 507.2 25.2 507.2 25.25 507.2 25.4 507.2 25.5 507.2 25.55 507.2 25.65 507.15 25.75 507.15 25.9 507.15 26 507.15 26.1 507.05 26.75 507 27.35 506.9 28 506.8 28.6 506.7 29.25 506.55 29.85 506.4 30.45 506.2 31.05 506 31.55 505.7 32.1 505.45 32.6 505.15 33.05 504.85 33.55 504.5 34 504.15 34.45 503.75 34.8 503.3 35.25 503.3 35.8 503.3 36.1 503.4 36.35 503.5 36.6 503.75 36.8 503.85 37 504 37.1 504.15 37.25 504.25 37.3 504.4 37.35 504.55 37.35 504.75 37.4 504.9 37.4 505.1 37.4 505.3 37.35 505.45 37.35 505.6 37.25 506.3 36.75 506.9 36.15 507.5 35.45 508 34.65 508.5 33.8 508.85 32.95 509.25 32.05 509.5 31.1 509.8 30.15 510.05 29.2 510.25 28.25 510.4 27.3 510.45 26.35 510.55 25.5 510.6 24.65 510.6 23.85
M 527.5 32.45
Q 527.85 32.45 528.15 32.3 528.4 32.2 528.6 31.95 528.75 31.7 528.85 31.4 528.95 31.15 528.95 30.8 528.95 30.5 528.85 30.2 528.75 29.95 528.6 29.7 528.25 29.25 527.5 29.25
L 524.6 29.25 524.6 20.3
Q 524.6 19.9 524.45 19.65 524.35 19.4 524.1 19.25 523.85 19.15 523.55 19.05 523.25 19 522.9 19 522.5 19 522.25 19.05 521.95 19.15 521.75 19.25 521.55 19.4 521.4 19.65 521.3 19.9 521.3 20.3
L 521.3 46.05
Q 521.3 46.4 521.4 46.65 521.55 46.9 521.75 47.05 521.95 47.15 522.25 47.25 522.5 47.3 522.9 47.3 523.25 47.3 523.55 47.25 523.85 47.15 524.1 47.05 524.35 46.9 524.45 46.65 524.6 46.4 524.6 46.05
L 524.6 32.45 527.5 32.45
M 494.5 35.55
Q 494.1 35.45 493.5 35.45
L 481.1 35.45
Q 480.75 35.45 480.45 35.6 480.2 35.7 480.05 35.9 479.8 36.1 479.7 36.4 479.6 36.65 479.6 37 479.6 37.65 479.95 37.95 480.35 38.25 481.1 38.25
L 492.9 38.25
Q 493 38.4 493.05 38.55 493.05 38.65 493.05 38.8
L 493.05 39.05
Q 493.05 39.25 493.05 39.4 493 39.5 492.9 39.6
L 482.25 39.6
Q 481.65 39.6 481.2 39.7 480.75 39.85 480.4 40.05 480.05 40.25 479.85 40.65 479.65 41.05 479.65 41.6
L 479.65 41.8
Q 479.65 42.1 479.65 42.35 479.65 42.6 479.7 42.8 479.7 43.05 479.7 43.3 479.7 43.55 479.7 43.8 479.7 44.35 479.9 44.8 480.15 45.25 480.55 45.6 480.95 45.95 481.45 46.2 481.95 46.45 482.6 46.65 483.2 46.8 483.85 46.95 484.5 47.05 485.25 47.15 485.95 47.2 486.6 47.25 487.25 47.3 487.85 47.3 489.45 47.3 490.9 47.1 491.6 47 492.25 46.9 492.85 46.8 493.45 46.7 494.7 46.45 495.85 46.15 496.35 46.05 496.65 45.65 496.8 45.4 496.9 45.2 496.95 44.95 496.95 44.75 496.95 44.2 496.6 43.85 496.45 43.7 496.2 43.6 495.95 43.55 495.65 43.55 495.45 43.55 495.3 43.55 495.1 43.55 494.85 43.6 494.4 43.75 493.9 43.85 493.35 43.95 492.85 44.1 492.35 44.15 491.8 44.25 491.3 44.35 490.65 44.4 490.05 44.5 489.35 44.5 488.7 44.55 487.95 44.55 487.4 44.55 486.8 44.5 486.25 44.5 485.65 44.45 484.4 44.25 483.4 43.9 483.35 43.75 483.3 43.55 483.3 43.35 483.3 43.1
L 483.3 42.95
Q 483.3 42.85 483.3 42.8 483.3 42.7 483.3 42.6 483.3 42.55 483.35 42.45 483.35 42.4 483.4 42.3
L 493.5 42.3
Q 493.85 42.3 494.15 42.3 494.4 42.25 494.7 42.2 494.9 42.15 495.15 42.05 495.4 41.95 495.65 41.8 495.8 41.7 495.95 41.5 496.1 41.35 496.25 41.1 496.35 40.85 496.4 40.55 496.45 40.25 496.45 39.9
L 496.55 39.9
Q 496.55 38.8 496.45 37.95 496.4 37.5 496.3 37.15 496.2 36.85 496.05 36.55 495.8 36.05 495.25 35.75 494.95 35.6 494.5 35.55
M 493.2 20.8
L 493.2 21.7 482.85 21.7 482.85 20.8
Q 482.85 20.65 482.8 20.5 482.75 20.35 482.65 20.2 482.55 20.1 482.45 20 482.35 19.9 482.2 19.8 482 19.7 481.65 19.65 481.5 19.6 481.35 19.6 481.15 19.55 481.05 19.55 480.75 19.55 480.5 19.65 480.2 19.7 479.9 19.8 479.6 19.95 479.45 20.2 479.3 20.45 479.3 20.8
L 479.3 25.5
Q 479.3 26.35 479.45 26.95 479.6 27.55 479.9 27.9 480.15 28.3 480.55 28.6 480.9 28.85 481.35 28.95 482.2 29.2 483.05 29.35 483.85 29.5 484.65 29.6 485.1 29.7 485.5 29.75 485.9 29.75 486.3 29.75
L 486.3 31.05 475.95 31.05
Q 475.65 31.05 475.4 31.2 475.15 31.3 475 31.5 474.85 31.75 474.8 32.05 474.7 32.35 474.7 32.65 474.7 32.95 474.8 33.25 474.85 33.5 475 33.7 475.15 33.95 475.4 34.1 475.65 34.2 475.95 34.2
L 500.15 34.2
Q 500.55 34.2 500.8 34.1 501.05 33.95 501.25 33.7 501.35 33.5 501.45 33.25 501.55 32.95 501.55 32.65 501.55 32.35 501.45 32.05 501.35 31.75 501.25 31.5 500.9 31.05 500.15 31.05
L 489.9 31.05 489.9 29.75
Q 490.3 29.75 490.7 29.7 491.05 29.65 491.5 29.55 492.35 29.45 493.15 29.3 494 29.15 494.75 28.95 495.2 28.9 495.6 28.65 496 28.4 496.25 28.05 496.8 27.3 496.8 25.85
L 496.8 20.8
Q 496.8 20.65 496.7 20.5 496.65 20.35 496.6 20.2 496.45 20.1 496.35 20 496.25 19.9 496.1 19.8 495.85 19.7 495.55 19.65 495.4 19.6 495.2 19.6 495.05 19.55 494.9 19.55 494.65 19.55 494.4 19.65 494.1 19.7 493.8 19.8 493.5 19.95 493.35 20.2 493.2 20.45 493.2 20.8
M 493.2 25.75
L 493.1 25.85
Q 493 25.9 492.85 25.95 492.5 26.15 491.95 26.2 491.6 26.3 491.15 26.35 490.75 26.45 490.3 26.45 489.8 26.55 489.2 26.55 488.55 26.6 487.85 26.6 487.25 26.6 486.7 26.55 486.1 26.55 485.45 26.45 484.8 26.35 484.2 26.25 483.55 26.15 482.95 25.95 482.9 25.85 482.9 25.8 482.9 25.7 482.9 25.6 482.9 25.5 482.85 25.45 482.85 25.35 482.85 25.25
L 482.85 24.55 493.2 24.55 493.2 25.75
M 460.4 23.55
Q 460 22.95 459.5 22.55 458.95 22.1 458.35 21.75 457.65 21.45 456.95 21.3 456.2 21.15 455.4 21.15 453.85 21.15 452.6 21.75 451.3 22.4 450.35 23.55 449.45 24.8 449 26.45 448.8 27.3 448.65 28.25 448.55 29.2 448.55 30.25 448.55 31.35 448.65 32.25 448.8 33.25 449 34.05 449.25 34.9 449.55 35.6 449.9 36.35 450.35 36.9 450.85 37.5 451.4 37.95 451.95 38.4 452.6 38.65 453.85 39.3 455.4 39.3 456.2 39.3 456.95 39.15 457.65 39 458.35 38.65 458.95 38.4 459.5 37.95 460 37.5 460.4 36.9 460.9 36.35 461.25 35.6 461.6 34.9 461.85 34.05 462.1 33.25 462.2 32.25 462.35 31.35 462.35 30.25 462.35 29.2 462.2 28.25 462.1 27.3 461.85 26.45 461.35 24.8 460.4 23.55
M 453.95 24.65
Q 454.6 24.3 455.4 24.3 456.3 24.3 456.95 24.65 457.6 25.05 458.1 25.85 458.55 26.65 458.8 27.75 459 28.85 459 30.25 459 31.65 458.8 32.75 458.55 33.85 458.1 34.6 457.6 35.4 456.95 35.75 456.3 36.15 455.4 36.15 454.6 36.15 453.95 35.75 453.25 35.4 452.8 34.6 452.25 33.85 452 32.75 451.75 31.65 451.75 30.25 451.75 28.85 452 27.75 452.25 26.65 452.8 25.85 453.25 25.05 453.95 24.65
M 466.65 19.55
Q 466.5 19.8 466.5 20.2
L 466.5 46.05
Q 466.5 46.4 466.65 46.65 466.8 46.9 467.1 47 467.35 47.15 467.7 47.25 468 47.3 468.4 47.3 468.95 47.3 469.55 47 470.1 46.75 470.1 46.05
L 470.1 32.45 473.4 32.45
Q 473.75 32.45 474 32.35 474.25 32.25 474.4 32 474.5 31.75 474.55 31.5 474.6 31.2 474.6 30.9 474.6 30.55 474.55 30.3 474.5 30 474.4 29.75 474.1 29.3 473.4 29.3
L 470.1 29.3 470.1 20.2
Q 470.1 19.8 469.95 19.55 469.8 19.3 469.55 19.15 469.25 19.05 468.95 18.95 468.65 18.9 468.4 18.9 468 18.9 467.7 18.95 467.35 19.05 467.1 19.15 466.8 19.3 466.65 19.55
M 439.3 36.95
Q 439.35 37.05 439.35 37.1 439.35 37.2 439.4 37.25 439.4 37.35 439.4 37.4 439.4 37.5 439.4 37.6
L 439.4 37.85
Q 439.4 38.05 439.35 38.2 439.35 38.35 439.3 38.55
L 429.85 38.55
Q 429.6 38.55 429.3 38.55 429.05 38.55 428.75 38.6 428.45 38.65 428.2 38.75 427.95 38.85 427.8 38.95 427.6 39.1 427.4 39.25 427.25 39.45 427.1 39.65 427 39.85 426.95 40.15 426.9 40.4 426.9 40.75 426.9 41.1 426.9 41.45 426.9 41.8 426.9 42.1 426.9 42.8 426.9 43.55 426.9 44.5 427.35 45.15 427.55 45.45 428 45.75 428.45 46.05 429.1 46.35 429.85 46.55 430.55 46.7 431.3 46.85 432.05 46.95 432.8 47.05 433.5 47.1 434.2 47.15 434.85 47.15 435.7 47.15 436.45 47.15 437.2 47.1 437.9 47 439.25 46.85 440.25 46.65 440.8 46.55 441.35 46.4 441.85 46.3 442.3 46.15 442.6 46.1 442.8 45.95 443.05 45.8 443.2 45.55 443.3 45.35 443.35 45.1 443.4 44.85 443.4 44.6 443.4 44.15 443.35 43.85 443.25 43.55 443.1 43.4 442.9 43.25 442.65 43.15 442.4 43.05 442.1 43.05 441.85 43.05 441.4 43.15
L 441.25 43.2
Q 441.15 43.25 440.9 43.25 440.65 43.35 440.3 43.4 439.95 43.5 439.5 43.55 439.1 43.6 438.55 43.7 438.05 43.75 437.5 43.8 436.9 43.85 436.25 43.9 435.6 43.95 434.85 43.95 434.35 43.95 433.85 43.9 433.3 43.85 432.75 43.8 432.2 43.7 431.65 43.55 431.15 43.45 430.65 43.25 430.6 43.2 430.6 43.1 430.55 43 430.55 42.9 430.5 42.8 430.5 42.7 430.5 42.6 430.5 42.45
L 430.5 42.15
Q 430.5 41.95 430.5 41.8 430.55 41.65 430.65 41.45
L 440.05 41.45
Q 440.7 41.45 441.2 41.3 441.75 41.15 442.2 40.8 442.6 40.5 442.85 40 443.05 39.5 443.05 38.8
L 443.05 36.6
Q 443.05 35.9 442.85 35.4 442.6 34.85 442.2 34.5 441.75 34.2 441.2 34 440.65 33.85 440.05 33.85
L 428.3 33.85
Q 427.6 33.85 427.25 34.3 427 34.55 426.9 34.8 426.8 35.1 426.8 35.4 426.8 35.75 426.9 36 427 36.3 427.25 36.5 427.6 36.95 428.3 36.95
L 439.3 36.95
M 427.25 19.8
Q 426.5 19.95 425.9 20.15 425.25 20.35 424.7 20.65 424.15 20.95 423.7 21.4 423.25 21.8 422.9 22.35 422.6 22.85 422.35 23.4 422.1 24 421.95 24.65 421.85 25.3 421.85 26.05 421.85 26.75 421.95 27.45 422.1 28.05 422.35 28.65 422.8 29.85 423.7 30.65 424.15 31.05 424.7 31.4 425.25 31.7 425.9 31.9 427.15 32.35 428.85 32.35 429.65 32.35 430.4 32.25 431.15 32.15 431.8 31.9 432.45 31.7 433 31.4 433.55 31.05 434 30.65 434.85 29.85 435.4 28.65 435.6 28.05 435.75 27.45 435.85 26.75 435.85 26.05 435.85 25.3 435.75 24.65 435.6 24 435.4 23.4 435.1 22.85 434.75 22.35 434.45 21.8 434 21.4 433.55 20.95 433 20.65 432.45 20.35 431.8 20.15 431.15 19.95 430.4 19.8 429.65 19.7 428.85 19.7 428 19.7 427.25 19.8
M 426.1 23.65
Q 427.1 22.85 428.9 22.85 429.75 22.85 430.45 23.05 431.1 23.25 431.65 23.65 432.1 24.1 432.4 24.7 432.65 25.3 432.65 26.05 432.65 26.8 432.4 27.4 432.1 27.95 431.65 28.35 431.1 28.8 430.45 29 429.75 29.25 428.9 29.25 428 29.25 427.3 29 426.6 28.8 426.1 28.35 425.6 27.95 425.35 27.4 425.1 26.8 425.1 26.05 425.1 25.3 425.35 24.7 425.6 24.1 426.1 23.65
M 446.4 27.45
Q 446.8 27.45 447.05 27.35 447.3 27.2 447.4 27 447.55 26.75 447.6 26.5 447.65 26.2 447.65 25.9 447.65 25.6 447.6 25.3 447.55 25 447.4 24.75 447.15 24.3 446.4 24.3
L 443.3 24.3 443.3 20.2
Q 443.3 19.8 443.2 19.55 443.1 19.3 442.85 19.15 442.6 19.05 442.35 18.95 442.05 18.9 441.75 18.9 441 18.9 440.4 19.2 440.1 19.35 439.95 19.55 439.8 19.85 439.8 20.2
L 439.8 31.3
Q 439.8 31.5 439.85 31.65 439.9 31.8 440 31.95 440.1 32.1 440.2 32.2 440.35 32.3 440.5 32.35 440.55 32.45 440.7 32.5 440.9 32.55 441.1 32.55 441.25 32.6 441.4 32.6 441.6 32.65 441.75 32.65 442.35 32.65 442.85 32.35 443.1 32.2 443.2 31.95 443.3 31.7 443.3 31.3
L 443.3 27.45 446.4 27.45
M 411.05 32.95
Q 411.1 32.7 411.1 32.4 411.1 32.05 411.05 31.8 410.95 31.55 410.85 31.35 410.7 31.15 410.45 31.05 410.2 30.95 409.8 30.95
L 385.65 30.95
Q 384.95 30.95 384.65 31.35 384.5 31.55 384.45 31.8 384.4 32.05 384.4 32.4 384.4 33 384.65 33.45 384.95 33.9 385.65 33.9
L 409.8 33.9
Q 410.2 33.9 410.45 33.8 410.7 33.7 410.85 33.45 410.95 33.25 411.05 32.95
M 406 36.9
Q 405.75 36.45 405.35 36.15 404.9 35.9 404.45 35.75 403.95 35.65 403.4 35.65
L 390.75 35.65
Q 390 35.65 389.6 36 389.25 36.35 389.25 37 389.25 37.35 389.35 37.55 389.45 37.8 389.7 37.95 390.05 38.2 390.75 38.2
L 402.55 38.2
Q 402.6 38.4 402.65 38.55 402.65 38.65 402.65 38.75 402.7 38.85 402.7 38.95
L 402.7 39.2
Q 402.7 39.35 402.65 39.4 402.65 39.5 402.65 39.6 402.6 39.85 402.55 39.95
L 391.9 39.95
Q 391.35 39.95 390.9 40.05 390.4 40.15 390.05 40.3 389.7 40.5 389.5 40.85 389.3 41.25 389.3 41.8
L 389.3 43.85 389.35 43.85
Q 389.35 44.4 389.55 44.85 389.75 45.25 390.15 45.6 390.6 45.95 391.1 46.2 391.6 46.45 392.2 46.65 392.8 46.8 393.45 46.95 394.1 47.05 394.85 47.15 395.5 47.2 396.15 47.25 396.75 47.3 397.3 47.3 398.15 47.3 398.9 47.25 399.7 47.2 400.4 47.1 401.15 47 401.8 46.9 402.45 46.8 403.05 46.7 404.15 46.45 404.85 46.35 405.15 46.25 405.35 46.2
L 405.5 46.15
Q 405.75 46.1 405.95 46 406.15 45.85 406.3 45.7 406.45 45.45 406.55 45.25 406.6 45.05 406.6 44.85 406.6 44.3 406.25 43.95 406.1 43.75 405.85 43.65 405.6 43.55 405.35 43.55 405.15 43.55 404.9 43.6 404.7 43.65 404.5 43.7
L 404.35 43.7
Q 404.2 43.75 403.95 43.85 403.65 43.9 403.3 43.95 402.95 44.05 402.5 44.15 402 44.25 401.45 44.3 400.9 44.4 400.3 44.5 399.65 44.55 399 44.6 398.35 44.6 397.65 44.6 397.1 44.6 396.5 44.6 395.95 44.55 395.35 44.5 394.75 44.45 394.15 44.3 393.6 44.15 393.05 43.95 393.05 43.85 393.05 43.8 393.05 43.7 393.05 43.65 393 43.5 392.95 43.4 392.95 43.3 392.95 43.2
L 392.95 43.05
Q 392.95 42.85 392.95 42.7 393 42.55 393.05 42.4
L 403.4 42.4
Q 403.95 42.4 404.45 42.3 404.9 42.15 405.35 41.95 405.75 41.7 406 41.25 406.2 40.85 406.2 40.15
L 406.2 38
Q 406.2 37.35 406 36.9
M 406 22.05
Q 405.7 21.6 405.25 21.2 404.8 20.8 404.25 20.5 403.65 20.2 402.95 20 402.25 19.75 401.4 19.55 400.6 19.4 399.7 19.35 398.8 19.25 397.8 19.25 396.75 19.25 395.85 19.35 394.95 19.4 394.15 19.55 393.35 19.75 392.65 20 392 20.2 391.4 20.5 390.8 20.8 390.4 21.2 389.95 21.6 389.65 22.05 389 22.95 389 24.1 389 24.7 389.15 25.2 389.3 25.7 389.65 26.15 389.95 26.6 390.4 26.95 390.85 27.35 391.45 27.65 392 27.95 392.7 28.2 393.45 28.4 394.25 28.55 395.05 28.75 395.95 28.85 396.9 28.95 397.9 29 399.9 28.9 401.55 28.55 402.3 28.4 403 28.15 403.65 27.9 404.3 27.6 404.8 27.3 405.25 26.95 405.7 26.6 406 26.15 406.3 25.7 406.45 25.2 406.6 24.7 406.6 24.1 406.6 23.5 406.45 23 406.3 22.45 406 22.05
M 392.95 23.4
Q 393.3 23.05 394.05 22.85 394.7 22.65 395.65 22.55 396.6 22.4 397.8 22.4 399 22.4 399.95 22.55 400.95 22.65 401.65 22.85 402.3 23.05 402.65 23.4 403 23.7 403 24.1 403 24.5 402.65 24.8 402.3 25.1 401.65 25.3 400.95 25.5 399.95 25.6 399 25.75 397.8 25.75 396.6 25.75 395.65 25.6 394.7 25.5 394.05 25.3 393.3 25.1 392.95 24.8 392.6 24.5 392.6 24.1 392.6 23.7 392.95 23.4
M 379.1 34.8
Q 378.8 34.8 378.5 34.85 378.25 34.95 377.95 35.1 377.65 35.25 377.5 35.5 377.35 35.75 377.35 36.05
L 377.35 37.7 368.25 37.7 368.25 36.05
Q 368.25 35.9 368.2 35.75 368.1 35.6 368.05 35.45 367.95 35.35 367.8 35.25 367.7 35.15 367.55 35.05 367.4 35 367.3 34.95 367.15 34.9 367.05 34.85 366.85 34.8 366.7 34.8 366.55 34.8 366.4 34.8 366.1 34.8 365.85 34.85 365.55 34.95 365.3 35.1 364.95 35.25 364.85 35.5 364.7 35.75 364.7 36.05
L 364.7 43.1
Q 364.7 43.7 364.85 44.15 365 44.65 365.35 44.95 365.7 45.25 366.2 45.5 366.65 45.75 367.3 45.9 367.35 45.95 367.55 46 367.7 46.05 368 46.1 368.25 46.15 368.6 46.2 368.9 46.25 369.3 46.3 369.65 46.35 370.05 46.4 370.5 46.45 371 46.5 371.5 46.55 372 46.6 372.55 46.6 373.1 46.6 373.55 46.6 374.15 46.6 374.75 46.55 375.5 46.5 376.85 46.4 378.1 46.05 379.25 45.65 380.15 44.95 380.55 44.6 380.8 44.15 381 43.7 381 43.1
L 381 36.05
Q 381 35.9 380.95 35.75 380.9 35.6 380.8 35.45 380.7 35.35 380.6 35.25 380.45 35.15 380.3 35.05 380.15 35 380 34.95 379.85 34.9 379.7 34.85 379.55 34.8 379.4 34.8 379.25 34.8 379.1 34.8
M 368.25 42.15
L 368.25 40.6 377.35 40.6 377.35 42.15
Q 377.35 42.35 377.3 42.5 377.2 42.65 377.05 42.75 376.85 42.85 376.7 42.95 376.55 43.05 376.4 43.1 376.15 43.15 375.9 43.2 375.65 43.3 375.35 43.35 375.05 43.4 374.75 43.4 374.5 43.45 374.2 43.5 373.85 43.55 373.45 43.55 373.1 43.55 372.65 43.55 372.2 43.55 371.5 43.55 371.1 43.55 370.7 43.5 370.35 43.4 369.95 43.35 369.3 43.2 368.8 42.9 368.5 42.75 368.4 42.55 368.25 42.4 368.25 42.15
M 369.55 20.9
L 369.55 23.4 363.55 23.4 363.55 20.9
Q 363.55 20.75 363.5 20.6 363.45 20.45 363.35 20.3 363.25 20.25 363.15 20.15 363 20.05 362.85 19.95 362.7 19.9 362.55 19.85 362.45 19.8 362.3 19.75 362.2 19.75 362.05 19.75 361.9 19.7 361.8 19.7 361.45 19.7 361.15 19.8 360.85 19.85 360.55 19.95 360.25 20.1 360.15 20.35 360 20.55 360 20.9
L 360 28.25
Q 360 28.65 360 29 360.05 29.3 360.1 29.55 360.15 29.85 360.25 30.05 360.35 30.3 360.5 30.45 360.65 30.65 360.85 30.8 361 30.95 361.25 31.1 361.7 31.35 362.45 31.65 362.9 31.8 363.4 31.9 363.9 32.05 364.45 32.1 365 32.2 365.5 32.25 366.05 32.3 366.55 32.3 367.15 32.3 367.75 32.25 368.35 32.2 368.95 32.1 369.5 32 369.95 31.9 370.45 31.8 370.85 31.6 371.15 31.45 371.45 31.3 371.75 31.15 371.95 31.05 372.15 30.9 372.35 30.75 372.5 30.6 372.65 30.45 372.7 30.25 372.8 30.05 372.9 29.85 372.95 29.55 373 29.3 373.05 29 373.05 28.65 373.05 28.25
L 373.05 27.15
Q 373.1 27.2 373.2 27.2 373.25 27.2 373.35 27.2
L 377.8 27.2 377.8 31.3
Q 377.8 31.45 377.85 31.65 377.9 31.8 378 31.9 378.1 32.05 378.2 32.15 378.3 32.25 378.45 32.3 378.55 32.4 378.7 32.45 378.85 32.5 379.05 32.5 379.25 32.55 379.4 32.55 379.55 32.55 379.75 32.55 380.35 32.55 380.8 32.3 381.05 32.2 381.2 31.9 381.3 31.65 381.3 31.3
L 381.3 20.3
Q 381.3 19.9 381.2 19.65 381.05 19.4 380.8 19.25 380.6 19.15 380.3 19.05 380.05 19 379.75 19 379 19 378.4 19.25 378.05 19.4 377.95 19.65 377.8 19.95 377.8 20.3
L 377.8 24.05 373.35 24.05
Q 373.25 24.05 373.2 24.1 373.1 24.1 373.05 24.1
L 373.05 20.9
Q 373.05 20.75 373 20.6 372.95 20.45 372.85 20.3 372.7 20.2 372.6 20.1 372.5 20 372.4 19.95 372.15 19.85 371.85 19.75 371.65 19.75 371.5 19.75 371.35 19.7 371.2 19.7 370.95 19.7 370.65 19.8 370.4 19.85 370.1 19.95 369.8 20.1 369.7 20.35 369.55 20.55 369.55 20.9
M 369.5 26.35
L 369.5 27.7
Q 369.5 28 369.45 28.2 369.4 28.45 369.25 28.55 369.05 28.65 368.85 28.7 368.65 28.75 368.45 28.8 368.25 28.85 368.05 28.9 367.8 28.95 367.55 28.95 367.05 29.05 366.4 29.05 366.2 29.05 366 29.05 365.8 29.05 365.55 29 365.3 29 365.05 29 364.85 28.95 364.65 28.9 364.4 28.8 364.25 28.7 364 28.6 363.9 28.5 363.7 28.35 363.6 28.15 363.55 27.95 363.55 27.7
L 363.55 26.35 369.5 26.35
M 338.05 36.1
Q 337.5 36.5 337.05 37.05 336.6 37.55 336.3 38.15 336 38.75 335.8 39.4 335.7 40.1 335.7 40.85 335.7 41.65 335.8 42.3 336 43 336.3 43.6 336.6 44.2 337.05 44.7 337.5 45.15 338.05 45.55 338.65 45.95 339.3 46.3 340 46.6 340.85 46.85 341.65 47.05 342.5 47.15 343.35 47.3 344.3 47.3 345.3 47.3 346.2 47.15 347.15 47.05 347.95 46.8 348.75 46.55 349.4 46.25 350.1 45.95 350.65 45.5 351.25 45.1 351.65 44.6 352.15 44.1 352.45 43.5 352.75 42.9 352.9 42.25 353.05 41.6 353.05 40.85 353.05 40.1 352.9 39.45 352.75 38.8 352.45 38.2 352.15 37.6 351.7 37.1 351.25 36.55 350.7 36.15 350.1 35.75 349.45 35.4 348.75 35.1 347.95 34.85 347.15 34.65 346.25 34.55 345.35 34.45 344.3 34.45 343.35 34.45 342.5 34.55 341.65 34.65 340.85 34.85 340 35.05 339.3 35.4 338.65 35.7 338.05 36.1
M 340.65 43.2
Q 339.9 42.8 339.6 42.2 339.25 41.65 339.25 40.85 339.25 40.1 339.6 39.5 339.9 38.9 340.65 38.45 341.3 38.05 342.25 37.8 343.15 37.6 344.35 37.6 345.5 37.6 346.45 37.8 347.4 38.05 348.1 38.45 348.75 38.9 349.1 39.5 349.45 40.1 349.45 40.85 349.45 41.65 349.1 42.2 348.75 42.8 348.1 43.2 347.4 43.6 346.45 43.85 345.5 44.05 344.35 44.05 343.15 44.05 342.25 43.85 341.3 43.6 340.65 43.2
M 351.95 19
Q 351.7 18.95 351.4 18.95 351 18.95 350.65 19 350.35 19.05 350.05 19.2 349.7 19.35 349.6 19.55 349.45 19.85 349.45 20.2
L 349.45 32.7
Q 349.45 33.1 349.55 33.35 349.7 33.6 349.95 33.7 350.4 33.95 351.05 33.95 351.3 33.95 351.65 33.9 351.8 33.85 352 33.8 352.15 33.75 352.35 33.65 352.5 33.6 352.6 33.45 352.75 33.35 352.85 33.15 352.9 33 352.95 32.8 352.95 32.6 352.95 32.35
L 352.95 28.05 356.05 28.05
Q 356.45 28.05 356.65 27.95 356.9 27.8 357.05 27.6 357.15 27.35 357.2 27.1 357.25 26.85 357.25 26.55 357.25 26.2 357.2 25.9 357.15 25.6 357.05 25.4 356.9 25.15 356.65 25.05 356.45 24.95 356.05 24.95
L 352.95 24.95 352.95 20.2
Q 352.95 19.8 352.85 19.55 352.75 19.3 352.5 19.2 352.25 19.05 351.95 19
M 345.45 20.9
Q 345.45 20.75 345.45 20.6 345.4 20.45 345.35 20.3 345.25 20.2 345.15 20.1 345.05 20 344.9 19.95 344.55 19.85 344.25 19.75 344.15 19.75 344 19.75 343.85 19.7 343.7 19.7 343.35 19.7 343.05 19.8 342.8 19.85 342.5 19.95 342.25 20.1 342.1 20.35 341.95 20.55 341.95 20.9
L 341.95 23.7 336.05 23.7 336.05 20.9
Q 336.05 20.75 336 20.6 335.95 20.45 335.85 20.3 335.75 20.2 335.6 20.1 335.5 20 335.35 19.95 335.15 19.85 334.85 19.75 334.65 19.75 334.5 19.75 334.35 19.7 334.25 19.7 333.95 19.7 333.65 19.8 333.4 19.85 333.15 19.95 332.85 20.1 332.7 20.35 332.55 20.55 332.55 20.9
L 332.55 29.1
Q 332.55 29.5 332.55 29.85 332.6 30.15 332.65 30.45 332.7 30.7 332.75 30.95 332.85 31.15 332.95 31.3 333.05 31.5 333.25 31.65 333.45 31.8 333.7 31.9 333.9 32.05 334.25 32.2 334.6 32.35 334.95 32.45 335.4 32.65 335.85 32.75 336.35 32.9 336.9 32.95 337.45 33.05 338 33.1 338.55 33.1 339.1 33.1 339.7 33.1 340.3 33.1 340.9 33.05 341.45 32.95 342 32.9 342.45 32.75 342.95 32.65 343.3 32.45 343.65 32.35 343.95 32.2 344.25 32.05 344.5 31.9 344.7 31.8 344.85 31.65 345.05 31.5 345.2 31.3 345.25 31.15 345.3 30.95 345.35 30.7 345.4 30.45 345.45 30.15 345.45 29.85 345.45 29.5 345.45 29.1
L 345.45 20.9
M 341.7 29.4
Q 341.55 29.5 341.35 29.6 341.15 29.65 340.95 29.7 340.75 29.75 340.5 29.8 340.25 29.85 340 29.85 339.7 29.9 339.45 29.9 339.2 29.9 338.9 29.9 338.6 29.9 338.25 29.9 337.9 29.85 337.6 29.85 337.25 29.8 336.95 29.7 336.65 29.6 336.35 29.4 336.1 28.9 336.1 28.05
L 336.1 26.65 341.95 26.65 341.95 28.05
Q 341.95 28.5 341.85 28.85 341.8 29.15 341.7 29.4
M 302.5 39.85
Q 302.5 39.5 302.55 39.3 302.55 39.15 302.6 39.05 302.6 38.95 302.6 38.9 302.6 38.45 302.45 38.2 302.3 37.9 302 37.7 301.75 37.6 301.45 37.5 301.2 37.4 300.9 37.4 300.25 37.4 299.75 37.7 299.45 37.85 299.3 38.15 299.15 38.45 299.15 38.85 299.15 38.9 299.1 39 299.1 39.05 299.1 39.2 299.05 39.35 299.05 39.55 299 39.75 299 40.05 299 40.75 299.1 41.65 299.15 42.1 299.2 42.45 299.25 42.8 299.3 43.05 299.3 43.35 299.35 43.55 299.45 43.8 299.55 44.05 299.6 44.25 299.7 44.5 299.8 44.7 299.95 44.9 300.05 45.1 300.25 45.3 300.4 45.5 300.65 45.7 300.85 45.9 301.1 46.05 301.35 46.15 301.65 46.3 302.35 46.55 303.2 46.7 304 46.85 304.9 46.95 305.75 47 306.55 47.05 307.3 47.1 308.05 47.1 308.85 47.1 309.6 47.05 310.3 47 311 46.9 311.65 46.8 312.2 46.65 312.75 46.55 313.2 46.45 313.7 46.3 314.05 46.2 314.45 46.1 314.7 46.05 314.95 45.95 315.1 45.85
L 315.2 45.8
Q 315.55 45.65 315.8 45.45 316.05 45.25 316.2 45.05 316.3 44.8 316.35 44.6 316.4 44.35 316.4 44.1 316.4 43.3 316.1 42.95 315.8 42.55 315.2 42.55 315.1 42.55 315.05 42.55 315 42.55 314.95 42.55 314.85 42.55 314.8 42.6 314.7 42.6 314.65 42.6 314.65 42.65 314.5 42.7 314.35 42.75 314.05 42.8 313.75 42.9 313.35 43 312.9 43.1 312.45 43.2 311.9 43.3 311.3 43.4 310.75 43.5 310.1 43.6 309.4 43.65 308.75 43.7 308.05 43.75 307.3 43.75 307 43.75 306.7 43.75 306.4 43.75 306.1 43.7 305.75 43.7 305.45 43.65 305.15 43.65 304.85 43.6 304.5 43.55 304.2 43.5 303.9 43.4 303.65 43.35 303.1 43.15 302.75 42.9 302.65 42.65 302.6 42.4 302.6 42.1 302.55 41.8 302.5 41.55 302.5 41.3 302.5 41 302.5 40.75 302.5 40.2 302.5 39.85
M 294.1 32.7
Q 294 33 294 33.3 294 33.6 294.1 33.85 294.15 34.15 294.35 34.3 294.5 34.55 294.75 34.65 295 34.8 295.35 34.8
L 319.5 34.8
Q 320.25 34.8 320.55 34.3 320.7 34.15 320.75 33.85 320.85 33.6 320.85 33.3 320.85 32.7 320.55 32.15 320.4 31.9 320.15 31.8 319.85 31.65 319.5 31.65
L 295.35 31.65
Q 295 31.65 294.75 31.8 294.5 31.9 294.35 32.15 294.15 32.4 294.1 32.7
M 302.2 20.9
Q 302.2 20.75 302.15 20.55 302.1 20.4 302 20.25 301.85 20.15 301.75 20.05 301.65 19.95 301.5 19.85 301.4 19.8 301.25 19.75 301.15 19.7 300.95 19.65 300.6 19.55 300.35 19.55 300.05 19.55 299.8 19.6 299.5 19.7 299.2 19.85 298.9 20.05 298.75 20.3 298.6 20.55 298.6 20.9
L 298.6 24.8
Q 298.6 25.15 298.65 25.5 298.7 25.8 298.75 26.1 298.75 26.35 298.8 26.6 298.85 26.8 298.95 27 299.2 27.4 299.7 27.6 299.9 27.75 300.2 27.9 300.45 28 300.75 28.1 301.65 28.35 302.55 28.55 303.45 28.7 304.3 28.8 305.15 28.9 306 29 306.85 29 307.65 29 308.4 29 309.1 29 309.85 28.95 310.5 28.9 311.2 28.8 311.8 28.75 312.35 28.65 312.85 28.55 313.45 28.5 314 28.35 314.55 28.25 315.1 28.1 315.5 27.95 315.8 27.75 316.1 27.6 316.25 27.4 316.4 27.2 316.45 27 316.55 26.75 316.55 26.45 316.55 26.1 316.45 25.75 316.35 25.45 316.2 25.25 316 25.05 315.8 24.95 315.55 24.8 315.25 24.8 315.15 24.8 315.05 24.85 314.95 24.85 314.8 24.9 314.3 25 313.8 25.15 313.25 25.25 312.7 25.35 312.2 25.45 311.65 25.55 311.1 25.6 310.55 25.65 309.9 25.75 309.25 25.8 308.6 25.8 307.9 25.8 307.2 25.8 306.45 25.75 305.75 25.7 305 25.6 304.2 25.5 303.55 25.3 302.85 25.1 302.25 24.8 302.2 24.65 302.2 24.5 302.2 24.35 302.2 24.2 302.2 24.05 302.2 23.9 302.2 23.8 302.2 23.6
L 302.2 20.9
M 278.2 21.25
Q 278 21.2 277.7 21.2 277.35 21.2 277.1 21.25 276.85 21.3 276.7 21.45 276.5 21.55 276.45 21.8 276.35 22.05 276.35 22.4
L 276.35 35.9
Q 276.35 36.5 276.45 37 276.55 37.45 276.75 37.7 276.95 38.05 277.2 38.25 277.45 38.45 277.8 38.6 277.85 38.6 278 38.65 278.2 38.7 278.45 38.8 278.7 38.85 279.05 38.9 279.35 38.9 279.7 38.9 280.55 38.9 281.1 38.75 281.7 38.6 282.05 38.25 282.4 37.9 282.55 37.3 282.75 36.75 282.75 35.9
L 282.75 22.4
Q 282.75 22.05 282.65 21.8 282.55 21.55 282.4 21.45 282.2 21.3 282 21.25 281.75 21.2 281.5 21.2 281.15 21.2 280.95 21.25 280.7 21.3 280.55 21.45 280.4 21.55 280.35 21.8 280.25 22.05 280.25 22.4
L 280.25 27.45 278.9 27.45 278.9 22.4
Q 278.9 22.05 278.8 21.8 278.75 21.55 278.6 21.45 278.4 21.3 278.2 21.25
M 278.9 30.55
L 280.25 30.55 280.25 34.3
Q 280.25 34.8 280.25 35.2 280.25 35.4 280.25 35.65 280.2 35.85 280.15 36.05 280.1 36.05 280.05 36.05 280 36.05 279.95 36.05 279.85 36.1 279.75 36.15 279.65 36.15 279.5 36.15 279.4 36.15 279.3 36.15 279.2 36.1 279.15 36 279.05 35.95 279 35.9 279 35.8 278.95 35.7 278.9 35.6 278.9 35.45 278.9 35.35 278.9 35.2 278.9 35.1 278.9 34.95 278.9 34.85 278.9 34.7
L 278.9 30.55
M 270.75 21.25
Q 270.5 21.2 270.25 21.2 269.9 21.2 269.65 21.25 269.4 21.3 269.25 21.45 269.05 21.55 268.95 21.8 268.9 22.05 268.9 22.4
L 268.9 35.9
Q 268.9 36.5 269 37 269.1 37.45 269.3 37.7 269.45 38.05 269.75 38.25 270 38.45 270.35 38.6 270.45 38.65 270.95 38.8 271.2 38.85 271.5 38.9 271.8 38.9 272.15 38.9 273 38.9 273.6 38.75 274.2 38.6 274.55 38.25 274.85 37.9 275 37.3 275.2 36.75 275.2 35.9
L 275.2 22.4
Q 275.2 22.05 275.1 21.8 275 21.55 274.85 21.45 274.7 21.3 274.45 21.25 274.25 21.2 273.95 21.2 273.65 21.2 273.4 21.25 273.2 21.3 273.05 21.45 272.75 21.7 272.75 22.4
L 272.75 27.45 271.4 27.45 271.4 22.4
Q 271.4 22.05 271.35 21.8 271.25 21.55 271.1 21.45 270.95 21.3 270.75 21.25
M 271.4 30.55
L 272.75 30.55 272.75 34.3
Q 272.75 34.85 272.75 35.2 272.75 35.4 272.7 35.65 272.7 35.85 272.65 36.05 272.6 36.05 272.55 36.05 272.5 36.05 272.45 36.05 272.35 36.1 272.25 36.15 272.15 36.15 272.05 36.15 271.9 36.15 271.85 36.15 271.75 36.1 271.65 36 271.55 35.95 271.5 35.9 271.5 35.8 271.5 35.7 271.45 35.6 271.45 35.45 271.4 35.35 271.4 35.2 271.4 35.05 271.4 34.95 271.4 34.85 271.4 34.7
L 271.4 30.55
M 287 20.85
Q 287 20.4 286.9 20.15 286.8 19.9 286.6 19.8 286.35 19.7 286.1 19.65 285.85 19.6 285.6 19.6 285.2 19.6 284.9 19.65 284.65 19.7 284.45 19.8 284.25 19.85 284.2 20.15 284.05 20.4 284.05 20.85
L 284.05 45.1
Q 284.05 45.45 284.2 45.7 284.25 46 284.45 46.1 284.65 46.25 284.9 46.3 285.2 46.35 285.6 46.35 285.85 46.35 286.1 46.3 286.35 46.25 286.6 46.1 286.8 46 286.9 45.7 287 45.45 287 45.1
L 287 32.45 288.65 32.45 288.65 46.05
Q 288.65 46.4 288.75 46.65 288.85 46.9 289.05 47.05 289.25 47.15 289.5 47.25 289.8 47.3 290.15 47.3 290.5 47.3 290.75 47.25 291 47.15 291.2 47.05 291.45 46.9 291.55 46.65 291.65 46.4 291.65 46.05
L 291.65 20.25
Q 291.65 19.8 291.55 19.55 291.45 19.3 291.2 19.2 291 19.1 290.7 19.05 290.45 19 290.15 19 289.8 19 289.5 19.05 289.25 19.1 289.05 19.2 288.85 19.3 288.75 19.55 288.65 19.8 288.65 20.25
L 288.65 29.3 287 29.3 287 20.85
M 243.9 32.55
Q 243.9 32.25 243.75 32 243.6 31.75 243.35 31.55 242.85 31.3 242.1 31.3 241.5 31.3 240.95 31.55 240.65 31.75 240.5 32 240.4 32.25 240.4 32.55
L 240.4 39.75 232.2 39.75
Q 231.9 39.75 231.7 39.85 231.45 39.95 231.3 40.15 231.1 40.35 231 40.65 230.95 40.95 230.95 41.25 230.95 41.9 231.3 42.35 231.45 42.6 231.7 42.7 231.9 42.8 232.2 42.8
L 255.95 42.8
Q 256.3 42.8 256.55 42.7 256.8 42.6 256.9 42.35 257 42.1 257.1 41.85 257.15 41.6 257.15 41.25 257.15 40.95 257.1 40.65 257 40.35 256.9 40.15 256.8 39.95 256.55 39.85 256.3 39.75 255.95 39.75
L 243.9 39.75 243.9 32.55
M 252.95 23.65
Q 252.85 23.15 252.55 22.75 252.3 22.35 251.85 22.15 251.45 21.95 250.85 21.95
L 235.8 21.95
Q 235.5 22 235.3 22.1 235.1 22.25 234.95 22.4 234.8 22.65 234.7 22.95 234.65 23.2 234.65 23.55 234.65 23.85 234.7 24.1 234.8 24.4 234.95 24.6 235.1 24.8 235.3 24.9 235.5 25.05 235.8 25.05
L 248.1 25.05
Q 248.3 25.05 248.5 25.1 248.75 25.1 248.95 25.1 249.15 25.15 249.35 25.15 249.55 25.2 249.8 25.2 249.75 26.4 249.75 27.65 249.7 28.9 249.6 30.2 249.5 31.5 249.4 32.8 249.3 34.15 249.1 35.45
L 249.1 35.6
Q 249.1 36.3 249.65 36.6 249.9 36.75 250.2 36.85 250.5 36.9 250.85 36.9 251.15 36.9 251.45 36.85 251.7 36.75 251.95 36.65 252.15 36.5 252.25 36.35 252.4 36.15 252.5 35.85 252.7 34.4 252.85 33 253 31.55 253.05 30.15 253.1 28.75 253.1 27.4 253.15 26.05 253.15 24.75 253.1 24.15 252.95 23.65
M 218.4 30.9
Q 218.1 30.3 217.8 29.75 217.45 29.25 217.1 28.8 216.6 28.35 216.05 28 215.5 27.65 214.95 27.4 214.3 27.2 213.65 27.05 213 26.95 212.3 26.95 211.55 26.95 210.9 27.05 210.2 27.2 209.65 27.45 209 27.7 208.45 28.05 207.9 28.4 207.45 28.8 207.05 29.25 206.7 29.8 206.35 30.3 206.15 30.9 205.95 31.5 205.8 32.15 205.7 32.8 205.7 33.5 205.7 34.2 205.8 34.8 205.95 35.4 206.15 36 206.35 36.6 206.7 37.15 207.05 37.65 207.45 38.05 207.9 38.5 208.45 38.85 209 39.2 209.65 39.45 210.2 39.7 210.9 39.8 211.55 39.95 212.3 39.95 213 39.95 213.65 39.8 214.3 39.7 214.95 39.45 215.5 39.2 216.05 38.85 216.6 38.55 217.1 38.05 217.45 37.7 217.8 37.15 218.1 36.65 218.4 36.05 218.6 35.45 218.75 34.8 218.85 34.2 218.85 33.5 218.85 32.8 218.75 32.15 218.6 31.5 218.4 30.9
M 215.25 33.5
Q 215.25 34.2 215.05 34.8 214.85 35.35 214.4 35.8 214 36.25 213.45 36.5 212.95 36.75 212.3 36.75 211.6 36.75 211.05 36.5 210.5 36.25 210.05 35.75 209.25 34.8 209.25 33.5 209.25 32.1 210.05 31.1 210.5 30.6 211.05 30.35 211.6 30.15 212.3 30.15 212.95 30.15 213.45 30.35 214 30.6 214.4 31.05 214.85 31.55 215.05 32.15 215.25 32.75 215.25 33.5
M 204.5 22.8
Q 204.4 23.1 204.35 23.4 204.25 23.7 204.25 24 204.25 24.65 204.5 25.1 204.65 25.35 204.9 25.45 205.15 25.55 205.5 25.55 207.15 25.55 208.85 25.55 210.5 25.55 212.2 25.55 213.9 25.6 215.55 25.6 217.25 25.6 218.9 25.6
L 219.1 25.6
Q 219.45 25.6 219.75 25.5 220 25.35 220.1 25.15 220.25 24.9 220.3 24.65 220.35 24.35 220.35 24 220.35 23.7 220.3 23.4 220.25 23.1 220.1 22.85 220 22.6 219.75 22.45 219.45 22.35 219.1 22.35
L 214.05 22.35 214.05 20.25
Q 214.05 19.9 213.9 19.6 213.8 19.35 213.55 19.2 213.25 19.05 212.95 18.95 212.7 18.9 212.35 18.9 212 18.9 211.65 18.95 211.35 19.05 211.05 19.2 210.8 19.35 210.65 19.6 210.5 19.9 210.5 20.25
L 210.5 22.35
Q 209.85 22.35 209.25 22.35 208.6 22.35 208 22.35 206.75 22.35 205.5 22.35 205.15 22.35 204.9 22.45 204.65 22.6 204.5 22.8
M 226.05 20.2
Q 226.05 19.8 225.9 19.55 225.75 19.3 225.5 19.15 225.2 19.05 224.9 18.95 224.6 18.9 224.35 18.9 223.95 18.9 223.65 18.95 223.3 19.05 223.05 19.15 222.75 19.3 222.6 19.55 222.45 19.8 222.45 20.2
L 222.45 45.9
Q 222.45 46.3 222.6 46.55 222.75 46.85 223.05 47 223.3 47.15 223.65 47.2 223.95 47.3 224.35 47.3 224.6 47.3 224.9 47.2 225.2 47.15 225.5 47 226.05 46.65 226.05 45.9
L 226.05 32.45 229.35 32.45
Q 229.7 32.45 229.95 32.35 230.2 32.25 230.35 32 230.45 31.75 230.5 31.5 230.55 31.2 230.55 30.9 230.55 30.55 230.5 30.3 230.45 30 230.35 29.75 230.05 29.3 229.35 29.3
L 226.05 29.3 226.05 20.2
M 197.95 18.95
Q 197.65 19.05 197.35 19.15 197.05 19.3 196.9 19.55 196.75 19.8 196.75 20.2
L 196.75 27.7 191.2 27.7
Q 190.8 27.7 190.55 27.8 190.35 27.9 190.3 28.15 190.2 28.4 190.15 28.65 190.15 28.95 190.15 29.3 190.15 29.6 190.15 29.85 190.2 30.1 190.3 30.35 190.35 30.6 190.55 30.7 190.8 30.8 191.2 30.8
L 196.75 30.8 196.75 45.95
Q 196.75 46.15 196.8 46.3 196.85 46.45 196.95 46.55 197 46.7 197.1 46.8 197.25 46.9 197.4 46.95 197.55 47 197.7 47.1 197.85 47.15 198 47.2 198.15 47.25 198.3 47.25 198.45 47.3 198.65 47.3 198.95 47.3 199.25 47.25 199.5 47.15 199.8 47 200.05 46.85 200.15 46.6 200.3 46.35 200.3 45.95
L 200.3 20.2
Q 200.3 19.8 200.15 19.55 200.05 19.3 199.8 19.15 199.5 19.05 199.25 18.95 198.95 18.9 198.65 18.9 198.3 18.9 197.95 18.95
M 184.1 21.6
Q 183.5 21.6 183.05 21.6 182.55 21.65 182.2 21.65 181.75 21.7 181.45 21.8 181.1 21.9 180.85 22.05 180.6 22.2 180.4 22.45 180.25 22.7 180.15 23 180.05 23.3 180 23.8 179.95 24.25 179.95 24.8
L 179.95 35.1
Q 179.95 35.5 180 35.85 180.05 36.2 180.15 36.45 180.25 36.75 180.35 37 180.5 37.2 180.65 37.4 180.85 37.6 181.05 37.7 181.25 37.85 181.5 37.95 181.7 38.1 182 38.2 182.2 38.3 182.55 38.4 183.55 38.7 184.65 38.85 185.75 39 186.9 39 187.35 39 187.9 38.95 188.4 38.9 189 38.85 189.6 38.8 190.15 38.7 190.7 38.6 191.25 38.45 191.75 38.35 192.2 38.15 192.65 37.95 193.05 37.7 193.4 37.45 193.6 37.15 193.75 36.8 193.75 36.4 193.75 36.25 193.7 36.05 193.65 35.9 193.6 35.7 193.5 35.55 193.4 35.4 193.3 35.3 193.2 35.2 193.1 35.1 192.95 35.05 192.85 34.95 192.75 34.95 192.5 34.85 192.3 34.85 192.05 34.85 191.8 34.9 191.55 34.95 191.35 35.05 190.9 35.25 190.4 35.4 189.9 35.55 189.35 35.6 188.8 35.75 188.25 35.8 187.7 35.85 187.15 35.85 186.7 35.85 186.25 35.8 185.8 35.75 185.35 35.7 184.9 35.6 184.5 35.45 184.05 35.3 183.75 35.1 183.7 34.9 183.65 34.7 183.6 34.5 183.6 34.25 183.55 34.05 183.55 33.8 183.5 33.6 183.5 33.3
L 183.5 25
Q 183.8 24.85 184.15 24.75 184.55 24.65 185.05 24.65
L 190.35 24.65
Q 190.7 24.65 191 24.6 191.3 24.55 191.5 24.35 191.85 24.1 191.85 23.2 191.85 22.7 191.75 22.4 191.65 22.05 191.5 21.9 191.3 21.75 191 21.7 190.7 21.6 190.35 21.6
L 184.1 21.6
M 162.25 45.7
Q 162.4 45.45 162.5 45.25 162.55 45.05 162.55 44.85 162.55 44.3 162.2 43.95 162.05 43.75 161.8 43.65 161.55 43.55 161.3 43.55 161.1 43.55 160.85 43.6 160.65 43.65 160.45 43.7
L 160.3 43.7
Q 160.15 43.75 159.9 43.85 159.6 43.9 159.25 43.95 158.9 44.05 158.45 44.15 157.95 44.25 157.4 44.3 156.85 44.4 156.25 44.5 155.6 44.55 154.95 44.6 154.3 44.6 153.6 44.6 153.05 44.6 152.45 44.6 151.9 44.55 151.3 44.5 150.7 44.45 150.1 44.3 149.55 44.15 149 43.95 149 43.85 149 43.8 149 43.7 149 43.65 148.95 43.5 148.9 43.4 148.9 43.3 148.9 43.2
L 148.9 43.05
Q 148.9 42.85 148.9 42.7 148.95 42.55 149 42.4
L 159.35 42.4
Q 159.9 42.4 160.4 42.3 160.85 42.15 161.3 41.95 161.7 41.7 161.95 41.25 162.15 40.85 162.15 40.15
L 162.15 38
Q 162.15 37.35 161.95 36.9 161.7 36.45 161.3 36.15 160.85 35.9 160.4 35.75 159.9 35.65 159.35 35.65
L 146.7 35.65
Q 145.95 35.65 145.55 36 145.2 36.35 145.2 37 145.2 37.35 145.3 37.55 145.4 37.8 145.65 37.95 146 38.2 146.7 38.2
L 158.5 38.2
Q 158.55 38.4 158.6 38.55 158.6 38.65 158.6 38.75 158.65 38.85 158.65 38.95
L 158.65 39.2
Q 158.65 39.35 158.6 39.4 158.6 39.5 158.6 39.6 158.55 39.85 158.5 39.95
L 147.85 39.95
Q 147.3 39.95 146.85 40.05 146.35 40.15 146 40.3 145.65 40.5 145.45 40.85 145.25 41.25 145.25 41.8
L 145.25 43.85 145.3 43.85
Q 145.3 44.4 145.5 44.85 145.7 45.25 146.1 45.6 146.55 45.95 147.05 46.2 147.55 46.45 148.15 46.65 148.75 46.8 149.4 46.95 150.05 47.05 150.8 47.15 151.45 47.2 152.1 47.25 152.7 47.3 153.25 47.3 154.1 47.3 154.85 47.25 155.65 47.2 156.35 47.1 157.1 47 157.75 46.9 158.4 46.8 159 46.7 160.1 46.45 160.8 46.35 161.1 46.25 161.3 46.2
L 161.45 46.15
Q 161.7 46.1 161.9 46 162.1 45.85 162.25 45.7
M 166.4 33.8
Q 166.65 33.7 166.8 33.45 166.9 33.25 167 32.95 167.05 32.7 167.05 32.4 167.05 32.05 167 31.8 166.9 31.55 166.8 31.35 166.65 31.15 166.4 31.05 166.15 30.95 165.75 30.95
L 141.6 30.95
Q 140.9 30.95 140.6 31.35 140.45 31.55 140.4 31.8 140.35 32.05 140.35 32.4 140.35 33 140.6 33.45 140.9 33.9 141.6 33.9
L 165.75 33.9
Q 166.15 33.9 166.4 33.8
M 162.55 24.1
Q 162.55 23.5 162.4 23 162.25 22.45 161.95 22.05 161.65 21.6 161.2 21.2 160.75 20.8 160.2 20.5 159.6 20.2 158.9 20 158.2 19.75 157.35 19.55 156.55 19.4 155.65 19.35 154.75 19.25 153.75 19.25 152.7 19.25 151.8 19.35 150.9 19.4 150.1 19.55 149.3 19.75 148.6 20 147.95 20.2 147.35 20.5 146.75 20.8 146.35 21.2 145.9 21.6 145.6 22.05 144.95 22.95 144.95 24.1 144.95 24.7 145.1 25.2 145.25 25.7 145.6 26.15 145.9 26.6 146.35 26.95 146.8 27.35 147.4 27.65 147.95 27.95 148.65 28.2 149.4 28.4 150.2 28.55 151 28.75 151.9 28.85 152.85 28.95 153.85 29 155.85 28.9 157.5 28.55 158.25 28.4 158.95 28.15 159.6 27.9 160.25 27.6 160.75 27.3 161.2 26.95 161.65 26.6 161.95 26.15 162.25 25.7 162.4 25.2 162.55 24.7 162.55 24.1
M 148.55 24.1
Q 148.55 23.7 148.9 23.4 149.25 23.05 150 22.85 150.65 22.65 151.6 22.55 152.55 22.4 153.75 22.4 154.95 22.4 155.9 22.55 156.9 22.65 157.6 22.85 158.25 23.05 158.6 23.4 158.95 23.7 158.95 24.1 158.95 24.5 158.6 24.8 158.25 25.1 157.6 25.3 156.9 25.5 155.9 25.6 154.95 25.75 153.75 25.75 152.55 25.75 151.6 25.6 150.65 25.5 150 25.3 149.25 25.1 148.9 24.8 148.55 24.5 148.55 24.1
M 122.6 37
Q 122.5 36.85 122.4 36.7 122.3 36.6 122.2 36.5 122.1 36.4 121.95 36.35 121.85 36.25 121.7 36.2 121.55 36.2 121.4 36.2 121.25 36.15 121.05 36.15 120.8 36.15 120.5 36.25 120.25 36.3 120 36.45 119.7 36.6 119.6 36.85 119.4 37.15 119.4 37.6
L 119.4 37.65 119.35 37.65
Q 119.35 37.7 119.35 37.8 119.35 37.95 119.35 38.1 119.3 38.35 119.3 38.7 119.3 39.1 119.3 39.65 119.3 40.05 119.3 40.5 119.35 40.9 119.35 41.35 119.35 41.8 119.4 42.25 119.45 42.65 119.5 43.05 119.55 43.55 119.7 44 119.85 44.5 120.1 44.9 120.35 45.35 120.8 45.7 121.25 46.05 121.9 46.3 122.55 46.5 123.25 46.65 123.95 46.8 124.7 46.9 125.4 46.95 126.1 47 126.8 47.05 127.45 47.05 128.3 47.05 129.1 47 129.9 46.95 130.6 46.85 131.25 46.8 131.85 46.65 132.45 46.55 132.9 46.5 133.4 46.35 133.75 46.25 134.1 46.15 134.4 46.05 134.6 45.95 134.75 45.9 134.85 45.8 134.9 45.8 135.2 45.65 135.4 45.45 135.65 45.25 135.8 45.05 135.9 44.8 135.95 44.6 136 44.35 136 44.1 136 43.7 135.95 43.4 135.9 43.15 135.8 42.95 135.65 42.75 135.4 42.65 135.1 42.55 134.75 42.55 134.7 42.55 134.65 42.55 134.6 42.55 134.55 42.55 134.45 42.55 134.4 42.6 134.35 42.6 134.3 42.6 134.3 42.65 134.15 42.7 134 42.75 133.75 42.8 133.45 42.9 133.05 43 132.65 43.1 132.15 43.2 131.65 43.3 131.1 43.4 130.55 43.5 129.95 43.6 129.25 43.65 128.6 43.7 127.9 43.75 127.2 43.75 126.7 43.75 126.15 43.75 125.65 43.7 125.15 43.65 124.6 43.6 124.1 43.5 123.65 43.35 123.2 43.15 123 43.05 122.9 42.7 122.85 42.55 122.8 42.35 122.75 42.15 122.75 41.9 122.7 41.65 122.7 41.4 122.7 41.15 122.7 40.9 122.7 40.65 122.7 40.4 122.7 40.15 122.7 39.9 122.7 39.4 122.7 39.05 122.7 38.7 122.75 38.45 122.75 38.2 122.75 38.05 122.8 37.95 122.8 37.9 122.8 37.35 122.6 37
M 135.9 20.45
Q 135.9 20.1 135.8 19.85 135.7 19.55 135.45 19.45 135.2 19.3 134.9 19.2 134.65 19.15 134.35 19.15 133.95 19.15 133.6 19.25 133.3 19.3 133 19.45 132.65 19.65 132.5 19.9 132.35 20.15 132.35 20.45
L 132.35 36.4
Q 132.35 36.55 132.4 36.7 132.45 36.85 132.55 37 132.65 37.15 132.8 37.25 132.9 37.35 133.05 37.4 133.15 37.45 133.3 37.55 133.45 37.6 133.65 37.6 133.85 37.65 134 37.65 134.15 37.65 134.35 37.65 134.65 37.65 134.9 37.6 135.2 37.55 135.45 37.4 135.7 37.25 135.8 37 135.9 36.75 135.9 36.4
L 135.9 29.5 138.9 29.5
Q 139.25 29.5 139.5 29.4 139.75 29.25 139.9 29 140.05 28.8 140.15 28.5 140.25 28.25 140.25 27.95 140.25 27.65 140.15 27.35 140.05 27.05 139.9 26.8 139.75 26.6 139.5 26.5 139.25 26.4 138.9 26.4
L 135.9 26.4 135.9 20.45
M 127.75 22.8
Q 127.75 22.15 127.6 21.65 127.35 21.2 127 20.85 126.6 20.5 126.1 20.35 125.6 20.15 125 20.15
L 117 20.15
Q 116.3 20.15 116 20.6 115.85 20.85 115.8 21.15 115.7 21.4 115.7 21.75 115.7 22.1 115.8 22.35 115.85 22.6 116 22.8 116.15 23.05 116.4 23.2 116.65 23.3 117 23.3
L 123.95 23.3
Q 123.85 23.75 123.75 24.15 123.65 24.55 123.45 24.95 123.3 25.4 122.95 25.9 122.6 26.4 122.05 27 121.8 27.35 121.55 27.65 121.25 27.95 121 28.2 120.4 28.7 119.7 29.15 119.45 29.4 119.1 29.6 118.75 29.85 118.35 30.05 117.9 30.25 117.45 30.45 117 30.7 116.5 30.9 116.2 31 116.05 31.1 115.9 31.2 115.85 31.35 115.75 31.55 115.7 31.7 115.7 31.9 115.7 32.1 115.7 32.5 115.8 32.85 115.85 33.15 116.1 33.45 116.3 33.7 116.55 33.85 116.75 34 117.05 34
L 117.1 34
Q 117.15 34 117.2 33.95 117.25 33.95 117.3 33.95 117.35 33.95 117.4 33.95 118.55 33.6 119.6 33.1 120.65 32.65 121.6 31.95 122.55 31.3 123.35 30.6 124.15 29.85 124.85 29.05 125.55 28.25 126.05 27.45 126.6 26.65 127 25.8 127.35 24.95 127.6 24.2 127.75 23.45 127.75 22.8
M 94.9 20.6
Q 94.5 20.65 94.15 20.7 93.85 20.8 93.55 20.95 93.25 21.15 93.1 21.4 92.95 21.6 92.95 21.9
L 92.95 25.5
Q 92.95 27.05 92.6 28.45 92.2 29.85 91.45 31.15 90.65 32.45 89.6 33.65 88.55 34.8 87.25 35.85 87.1 36 87 36.1 86.9 36.2 86.9 36.3 86.8 36.4 86.8 36.5 86.75 36.6 86.75 36.65 86.75 36.8 86.8 36.95 86.85 37.1 86.95 37.25 87.05 37.4 87.15 37.55 87.25 37.7 87.4 37.85 87.5 37.95 87.65 38.1 87.8 38.25 88 38.3 88.15 38.45 88.35 38.5 88.55 38.55 88.75 38.55 88.95 38.55 89.15 38.45 89.35 38.4 89.55 38.2 90.4 37.55 91.2 36.8 91.95 36.05 92.65 35.2 93.3 34.4 93.9 33.5 94.45 32.65 94.9 31.7 95.4 32.6 95.9 33.4 96.45 34.25 97.1 35.05 97.75 35.8 98.5 36.5 99.25 37.25 100.15 37.85
L 100.1 37.85
Q 100.3 38.05 100.55 38.1 100.8 38.2 101.1 38.2 101.4 38.2 101.7 38.05 102 37.9 102.25 37.6 102.5 37.35 102.65 37.05 102.75 36.75 102.75 36.45 102.75 36.35 102.75 36.2 102.7 36.05 102.65 35.9 102.55 35.75 102.45 35.65 102.35 35.5 102.2 35.4 100.95 34.45 99.9 33.35 98.9 32.25 98.15 31 97.4 29.8 97.05 28.5 96.65 27.15 96.65 25.75
L 96.65 21.9
Q 96.65 21.6 96.55 21.4 96.4 21.15 96.2 20.95 95.95 20.8 95.6 20.7 95.3 20.65 94.9 20.6
M 106.3 19.95
Q 106.25 20.1 106.25 20.3
L 106.25 46.05
Q 106.25 46.2 106.3 46.35 106.3 46.5 106.4 46.65 106.5 46.75 106.6 46.85 106.7 46.95 106.9 47 107 47.05 107.15 47.15 107.25 47.2 107.45 47.25 107.55 47.25 107.7 47.25 107.9 47.3 108.05 47.3 108.25 47.3 108.4 47.25 108.6 47.25 108.75 47.25 108.9 47.2 109 47.15 109.15 47.05 109.3 47 109.4 46.95 109.55 46.85 109.65 46.75 109.75 46.65 109.8 46.5 109.85 46.35 109.9 46.2 109.9 46.05
L 109.9 20.3
Q 109.9 20.1 109.85 19.95 109.8 19.75 109.75 19.65 109.65 19.5 109.55 19.45 109.4 19.35 109.3 19.25 109 19.15 108.75 19.05 108.6 19.05 108.4 19.05 108.25 19.05 108.05 19.05 107.9 19.05 107.7 19.05 107.55 19.05 107.45 19.05 107.1 19.15 106.9 19.25 106.7 19.35 106.6 19.45 106.5 19.5 106.4 19.65 106.3 19.75 106.3 19.95 Z"/>
</g>

<path id="Layer0_0_1_STROKES" stroke="#569ECC" stroke-width="5" stroke-linejoin="round" stroke-linecap="round" fill="none" d="
M 582.85 2.95
L 927 2.95
Q 937.35 2.95 944.65 10.25 952 17.6 952 27.95
L 952 524.1
Q 952 534.5 944.65 541.75 937.4 549.1 927 549.1
L 32 549.1
Q 21.65 549.1 14.3 541.75 7 534.45 7 524.1
L 7 27.95
Q 7 17.65 14.3 10.25 21.7 2.95 32 2.95
L 54.75 2.95 582.85 2.95 Z"/>
</defs>

<g transform="matrix( 1, 0, 0, 1, 0,0) ">
<use xlink:href="#Layer0_0_FILL"/>

<use xlink:href="#Layer0_0_1_STROKES"/>
</g>

<g transform="matrix( 1, 0, 0, 1, 0,0) ">
<use xlink:href="#Layer0_1_FILL"/>
</g>
</svg>
