
<svg xmlns="http://www.w3.org/2000/svg" version="1.1" xmlns:xlink="http://www.w3.org/1999/xlink" preserveAspectRatio="none" x="0px" y="0px" width="430px" height="130px" viewBox="0 0 430 130">
<defs>
<g id="Layer0_0_FILL">
<path fill="#3567D7" stroke="none" d="
M 299.2 92.15
Q 299.75 91.95 300.45 91.7 301.15 91.5 301.85 91.35 302.55 91.2 303.2 91.1 303.8 91 304.3 91 305.05 91 305.9 91.15 306.7 91.35 307.45 91.8 308.15 92.2 308.6 92.85 309.05 93.55 309.05 94.45 309.05 95.6 308.35 96.4 307.65 97.2 306.6 97.75 305.6 98.25 304.5 98.5 303.45 98.7 302.65 98.7
L 301 98.7
Q 300.7 98.7 300.6 98.8 300.55 98.85 300.55 99.15
L 300.55 101.75
Q 300.55 102.05 300.6 102.15 300.7 102.2 301 102.2
L 302.75 102.2
Q 304.4 102.2 305.6 102.55 306.85 102.9 307.6 103.45 308.35 104.05 308.75 104.8 309.1 105.55 309.1 106.35 309.1 108.7 307.4 109.85 306.85 110.25 306.15 110.5 305.45 110.75 304.7 110.8 303.95 110.9 303.2 110.85 302.4 110.85 301.7 110.75 300.75 110.7 299.85 110.4 298.9 110.15 298 109.9 297.5 109.7 297.35 109.8 297.15 109.9 297.15 110.25
L 296.8 112.85
Q 296.8 113.15 296.9 113.3 297.05 113.5 297.4 113.6 298.7 114.05 300.25 114.3 301.75 114.55 303.25 114.55 305.3 114.55 307.15 114.05 309.05 113.55 310.35 112.45 311.7 111.4 312.4 109.85 313.1 108.3 313.1 106.45 313.1 104.5 311.95 102.95 310.75 101.4 308.45 100.4 309.4 100 310.25 99.3 311.1 98.65 311.7 97.8 312.3 96.95 312.65 96.05 312.95 95.05 312.95 94.15 312.95 92.35 312.2 91.05 311.5 89.75 310.3 88.95 309.15 88.15 307.6 87.75 306.1 87.4 304.5 87.4 303.05 87.4 301.55 87.7 300.1 88 298.55 88.55 298.2 88.7 298.1 88.9 297.95 89.05 298.05 89.25
L 298.35 91.8
Q 298.4 92.15 298.6 92.2 298.8 92.3 299.2 92.15
M 343.65 87.8
Q 343.05 87.25 342.3 86.9 341.55 86.6 340.65 86.6 339.75 86.6 339 86.9 338.25 87.25 337.7 87.8 337.1 88.35 336.8 89.1 336.45 89.9 336.45 90.75 336.45 91.65 336.8 92.4 337.1 93.2 337.7 93.75 338.25 94.3 339 94.65 339.75 94.95 340.65 94.95 341.55 94.95 342.3 94.65 343.05 94.3 343.65 93.75 344.2 93.2 344.5 92.4 344.85 91.65 344.85 90.75 344.85 89.9 344.5 89.1 344.2 88.35 343.65 87.8
M 341.9 89.5
Q 342.45 90.05 342.45 90.75 342.45 91.5 341.9 92.05 341.4 92.65 340.65 92.65 339.9 92.65 339.35 92.05 338.85 91.5 338.85 90.75 338.85 90.05 339.35 89.5 339.9 88.9 340.65 88.9 341.4 88.9 341.9 89.5
M 333.75 94.9
Q 333.35 93.4 332.75 92.05 332.15 90.7 331.15 89.65 330.2 88.65 328.85 88.05 327.45 87.45 325.65 87.45 322.9 87.45 321.15 88.75 319.45 90.05 318.5 92.05 317.55 94.05 317.2 96.4 316.85 98.8 316.85 100.95 316.85 107.35 319 110.9 321.15 114.45 325.65 114.45 327.9 114.45 329.5 113.55 331.15 112.65 332.25 110.9 333.3 109.2 333.85 106.65 334.35 104.15 334.35 100.95 334.35 99.5 334.2 97.95 334.05 96.4 333.75 94.9
M 325.65 91.25
Q 326.75 91.25 327.6 91.75 328.5 92.25 329.15 93.45 329.75 94.6 330.1 96.45 330.45 98.3 330.45 100.95 330.45 103.65 330.1 105.5 329.75 107.35 329.15 108.5 328.5 109.65 327.6 110.2 326.75 110.7 325.65 110.7 324.5 110.7 323.65 110.2 322.8 109.65 322.15 108.5 321.5 107.35 321.2 105.5 320.85 103.65 320.85 100.95 320.85 98.3 321.2 96.45 321.5 94.6 322.15 93.45 322.8 92.25 323.65 91.75 324.5 91.25 325.65 91.25 Z"/>
</g>

<path id="Layer0_0_1_STROKES" stroke="#3567D7" stroke-width="3" stroke-linejoin="round" stroke-linecap="butt" fill="none" d="
M 372.6 124.2
L 372.3 118.8
Q 372.3 106.8 379.4 96.825"/>

<path id="Layer0_0_2_STROKES" stroke="#3567D7" stroke-width="3" stroke-linejoin="round" stroke-linecap="round" fill="none" d="
M 379.4 96.825
L 215.3 1.5
M 426.55 124.2
L 379.4 96.825"/>

<path id="Layer0_0_3_STROKES" stroke="#3567D7" stroke-width="3" stroke-linejoin="miter" stroke-linecap="round" stroke-miterlimit="10" fill="none" d="
M 1.5 124.2
L 215.3 1.5"/>
</defs>

<g transform="matrix( 1, 0, 0, 1, 1,2.15) ">
<use xlink:href="#Layer0_0_FILL"/>

<use xlink:href="#Layer0_0_1_STROKES"/>

<use xlink:href="#Layer0_0_2_STROKES"/>

<use xlink:href="#Layer0_0_3_STROKES"/>
</g>
</svg>
