
<svg xmlns="http://www.w3.org/2000/svg" version="1.1" xmlns:xlink="http://www.w3.org/1999/xlink" preserveAspectRatio="none" x="0px" y="0px" width="1280px" height="600px" viewBox="0 0 1280 600">
<defs>
<g id="fbdbfdbdmn_3_Layer0_0_FILL">
<path fill="#D3EDFB" stroke="none" d="
M -112.35 -2.2
L -112.4 -2.2 -296.65 45.7 -297 46.75 -296.5 47.05 -237.5 66.85 -112.35 -2.2
M -134.75 -50.7
L -136.5 -49.95 -275.9 -21.8 -296.3 44.5 -134.4 -50.2 -134.5 -50.45 -134.75 -50.7
M -240.45 -139.5
L -240.85 -139.25 -134.75 -50.7 -58.45 -82.25 -240.45 -139.5
M -407.1 -22.1
L -405.4 -21.05 -277.5 -21.45 -275.9 -21.8 -241.55 -139.85 -241.6 -139.9 -407.1 -22.1 Z"/>
</g>
</defs>

<g transform="matrix( 1, 0, 0, 1, 639.6,300) ">
<g transform="matrix( 1, 0, 0, 1, 0,0) ">
<use xlink:href="#fbdbfdbdmn_3_Layer0_0_FILL"/>
</g>
</g>
</svg>
