
<svg xmlns="http://www.w3.org/2000/svg" version="1.1" xmlns:xlink="http://www.w3.org/1999/xlink" preserveAspectRatio="none" x="0px" y="0px" width="1280px" height="720px" viewBox="0 0 1280 720">
<defs>
<g id="Layer0_0_FILL">
<path fill="#FFFFFF" stroke="none" d="
M 1120.45 280.6
Q 1119.1 278.6 1117.7 277 1112.0904296875 270.7625 1101.35 266.1 1085.562890625 259.25078125 1058.7 255.8 1032.2 252.5 991.7 252.5 979.65 252.5 968.85 252.8 943.35 253.5 924.75 255.8 879.6 261.6 865.75 277 864.35 278.5 863 280.6 854 294.7 850.55 331.45 849.5548828125 341.9232421875 849.1 351.75 849.85 351.86640625 850.6 352 849.85 351.86640625 849.1 351.75 830.13828125 349.0998046875 823.35 367.25 836.95234375 363.075390625 848.8 370.6 849.576171875 371.1021484375 850.35 371.65 849.576171875 371.1021484375 848.8 370.6 848.797265625 370.8029296875 848.8 371
L 848.95 382.85
Q 849.35 397.45 850.55 410.6 854 447.25 863 461.4 864.35 463.4 865.75 465.05 875.0076171875 475.2435546875 898.25 481.2 909.7794921875 484.176953125 924.75 486.1 943.35 488.4 968.85 489.15 979.65 489.45 991.7 489.45 1032.2 489.45 1058.7 486.1 1103.85 480.3 1117.7 465.05 1119.1 463.4 1120.45 461.4 1121.25 460.1 1122.05 458.65 1129.75 443.9 1132.85 410.6 1134.85 389.55 1134.6 371 1134.85 352.5 1132.85 331.45 1129.75 298.05 1122.05 283.45 1121.25 281.95 1120.45 280.6
M 936 289
Q 935.6 289 935.35 288.85 935.1 288.75 934.95 288.5 934.85 288.3 934.8 288.05 934.75 287.75 934.75 287.45 934.75 287.15 934.8 286.85 934.85 286.55 934.95 286.3 935.1 286.1 935.35 286 935.6 285.85 936 285.85
L 952.05 285.85
Q 952.4 285.85 952.65 286 952.9 286.1 953.05 286.3 953.15 286.55 953.2 286.85 953.3 287.15 953.3 287.45 953.3 287.75 953.2 288.05 953.15 288.3 953.05 288.5 952.9 288.75 952.65 288.85 952.4 289 952.05 289
L 945.6 289
Q 945.7 289.65 945.95 290.25 946.2 290.9 946.6 291.4 947 291.95 947.45 292.4 947.95 292.85 948.5 293.2 949.1 293.6 949.65 293.95 950.25 294.3 950.9 294.55 951.5 294.85 952.05 295.1 952.65 295.3 953.15 295.5 953.35 295.6 953.45 295.7 953.55 295.8 953.65 295.9 953.65 296.1 953.7 296.25 953.7 296.4 953.7 296.5 953.7 296.9 953.6 297.25 953.45 297.55 953.25 297.85 952.75 298.5 952.25 298.5 952.1 298.5 951.95 298.5 951.8 298.45 951.7 298.4 951.15 298.15 950.6 297.95 950.05 297.7 949.5 297.4 948.9 297.15 948.35 296.85 947.8 296.55 947.25 296.2 946.7 295.9 946.25 295.55 945.8 295.2 945.4 294.85 944.95 294.5 944.6 294.15 944.2 293.8 943.9 293.45 943.65 293.8 943.3 294.15 942.95 294.55 942.5 294.9 942.05 295.25 941.55 295.6 941.1 295.95 940.6 296.3 940.1 296.6 939.5 296.9 939 297.2 938.4 297.5 937.85 297.75 937.25 298 936.7 298.25 936.1 298.45 936 298.5 935.95 298.5 935.85 298.5 935.75 298.5 935.35 298.5 935 298.35 934.7 298.2 934.5 297.9 934.25 297.65 934.15 297.3 934 296.95 934 296.6 934 296.45 934.05 296.3 934.1 296.15 934.2 295.95 934.3 295.85 934.4 295.75 934.55 295.6 934.75 295.55 935.55 295.25 936.35 294.9 937.1 294.6 937.8 294.2 939.25 293.5 940.15 292.6 940.65 292.15 941.05 291.7 941.4 291.25 941.7 290.8 942.25 289.9 942.25 289
L 936 289
M 956.5 306.7
Q 956.25 306.8 955.85 306.8
L 932.1 306.8
Q 931.7 306.8 931.4 306.7 931.15 306.6 931.05 306.35 930.95 306.15 930.9 305.85 930.85 305.6 930.85 305.3 930.85 304.95 930.9 304.7 930.95 304.4 931.05 304.15 931.15 303.9 931.4 303.8 931.7 303.65 932.1 303.65
L 942.2 303.65 942.2 298.85
Q 942.2 298.65 942.25 298.5 942.25 298.3 942.3 298.15 942.35 298.05 942.45 297.95 942.55 297.85 942.7 297.75 942.85 297.7 943 297.65 943.2 297.6 943.35 297.55 943.5 297.55 943.6 297.55 943.75 297.5 943.95 297.5 944.35 297.5 944.65 297.55 945 297.65 945.25 297.75 945.8 298.05 945.8 298.85
L 945.8 303.65 955.85 303.65
Q 956.25 303.65 956.5 303.8 956.75 303.9 956.85 304.15 957 304.4 957.05 304.7 957.1 304.95 957.1 305.3 957.1 305.6 957.05 305.85 957 306.15 956.85 306.35 956.75 306.6 956.5 306.7
M 980.45 283.75
Q 980.7 283.9 980.8 284.1 980.95 284.35 980.95 284.75
L 980.95 289.55 983.85 289.55
Q 984.25 289.55 984.55 289.65 984.8 289.75 984.9 289.95 985 290.15 985.05 290.45 985.1 290.75 985.1 291.1 985.1 291.75 984.9 292.15 984.8 292.4 984.55 292.55 984.25 292.65 983.85 292.65
L 980.95 292.65 980.95 297.1
Q 980.95 297.3 980.85 297.5 980.8 297.65 980.7 297.8 980.55 297.95 980.45 298.1 980.3 298.25 980.15 298.3 980.05 298.4 979.9 298.45 979.75 298.45 979.55 298.45 979.35 298.5 979.15 298.5 978.95 298.55 978.8 298.5 978.6 298.5 978.35 298.45 978.1 298.4 977.9 298.25 977.6 298.15 977.5 297.9 977.35 297.65 977.35 297.25
L 977.35 284.75
Q 977.35 284.35 977.55 284.1 977.7 283.9 978 283.75 978.3 283.65 978.6 283.55 978.9 283.5 979.2 283.5 979.55 283.5 979.9 283.55 980.2 283.65 980.45 283.75
M 977.85 300.2
Q 978.45 300.2 978.95 300.4 979.5 300.55 980 300.9 980.45 301.25 980.65 301.75 980.85 302.25 980.85 302.85
L 980.85 310.65
Q 980.85 310.8 980.8 310.9 980.75 311.05 980.65 311.2 980.55 311.3 980.45 311.4 980.35 311.5 980.2 311.6 980.05 311.7 979.9 311.75 979.8 311.8 979.65 311.85 979.5 311.9 979.3 311.9 979.15 311.95 978.95 311.95 978.7 311.95 978.45 311.85 978.2 311.75 977.9 311.6 977.6 311.45 977.45 311.2 977.35 310.95 977.35 310.65
L 977.35 303.45
Q 976.85 303.45 976.45 303.4 976.05 303.35 975.7 303.35
L 966.2 303.35
Q 965.8 303.35 965.55 303.25 965.3 303.1 965.15 302.85 965 302.65 964.95 302.4 964.85 302.1 964.85 301.8 964.85 301.45 964.95 301.15 965 300.9 965.15 300.65 965.3 300.45 965.55 300.35 965.8 300.2 966.2 300.2
L 977.85 300.2
M 972.65 287.4
Q 972.65 288.05 972.45 288.8 972.25 289.55 971.9 290.4 971.2 292.1 969.85 293.65 969.15 294.45 968.35 295.15 967.5 295.9 966.6 296.55 965.6 297.2 964.55 297.7 963.55 298.2 962.4 298.5 962.35 298.55 962.3 298.55 962.25 298.55 962.2 298.55
L 962 298.55
Q 961.65 298.55 961.4 298.4 961.15 298.25 961 298 960.8 297.7 960.7 297.4 960.6 297.1 960.6 296.7 960.6 296.5 960.65 296.3 960.7 296.15 960.8 295.95 960.85 295.8 961 295.7 961.15 295.55 961.3 295.5 961.9 295.25 962.35 295 962.85 294.8 963.25 294.55 963.6 294.35 964 294.15 964.35 293.9 964.75 293.7 965 293.5 965.3 293.25 965.55 293 965.85 292.75 966.1 292.5 966.4 292.2 966.7 291.9 967.05 291.55 967.55 291 967.9 290.5 968.25 290 968.4 289.55 968.55 289.15 968.65 288.75 968.75 288.3 968.8 287.85
L 961.95 287.85
Q 961.55 287.85 961.3 287.75 961.05 287.65 960.95 287.4 960.8 287.15 960.7 286.9 960.65 286.65 960.65 286.3 960.65 286 960.7 285.7 960.8 285.4 960.95 285.2 961.05 284.95 961.3 284.85 961.55 284.7 961.95 284.7
L 969.95 284.7
Q 970.6 284.7 971.05 284.9 971.55 285.1 971.9 285.4 972.65 286.05 972.65 287.4
M 995.75 292.2
Q 996.7 289.7 998.65 287.7 1000.55 285.7 1002.8 284.65 1005.1 283.65 1007.7 283.65 1010.5 283.65 1012.9 284.65 1015.3 285.7 1017.25 287.7 1019.2 289.7 1020.15 292.2 1021.1 294.65 1021.1 297.5 1021.1 300.35 1020.15 302.8 1019.2 305.25 1017.25 307.25 1013.35 311.3 1007.7 311.3 1005.1 311.3 1002.8 310.3 1000.55 309.3 998.65 307.25 996.7 305.25 995.75 302.8 994.8 300.35 994.8 297.5 994.8 294.65 995.75 292.2
M 1030.45 284.55
Q 1031.15 284.3 1032 284.1 1032.8 284 1033.7 283.9 1034.6 283.8 1035.55 283.8 1036.6 283.8 1037.55 283.9 1038.5 284 1039.3 284.1 1040.1 284.3 1040.8 284.55 1041.5 284.75 1042.1 285.05 1042.65 285.35 1043.05 285.75 1043.45 286.15 1043.8 286.6 1044.1 287.05 1044.2 287.55 1044.4 288.1 1044.4 288.65 1044.4 289.25 1044.2 289.75 1044.1 290.3 1043.8 290.7 1043.45 291.15 1043.05 291.5 1042.65 291.85 1042.15 292.15 1041.55 292.5 1040.85 292.7 1040.15 292.95 1039.35 293.1 1038.5 293.3 1037.6 293.4 1036.65 293.5 1035.7 293.55 1034.7 293.5 1033.8 293.4 1032.9 293.3 1032.1 293.15 1031.25 292.95 1030.5 292.75 1029.8 292.5 1029.2 292.2 1028.6 291.9 1028.15 291.5 1027.7 291.15 1027.4 290.7 1027.1 290.3 1026.9 289.75 1026.8 289.25 1026.8 288.65 1026.8 287.5 1027.4 286.6 1027.7 286.15 1028.15 285.75 1028.6 285.35 1029.15 285.05 1029.75 284.75 1030.45 284.55
M 1022.3 296.2
Q 1022.35 295.9 1022.5 295.7 1022.55 295.5 1022.8 295.35 1023.05 295.25 1023.5 295.25
L 1047.75 295.25
Q 1048.2 295.25 1048.45 295.35 1048.7 295.5 1048.8 295.7 1048.85 295.9 1048.85 296.2 1048.9 296.5 1048.9 296.8 1048.9 297.15 1048.85 297.4 1048.85 297.65 1048.8 297.85 1048.7 298.05 1048.45 298.15 1048.2 298.25 1047.75 298.25
L 1023.5 298.25
Q 1023.05 298.25 1022.8 298.15 1022.55 298.05 1022.5 297.85 1022.35 297.65 1022.3 297.4 1022.25 297.15 1022.25 296.8 1022.25 296.5 1022.3 296.2
M 1042.9 300.4
Q 1043.35 300.7 1043.65 301.05 1043.75 301.25 1043.8 301.55 1043.85 301.8 1043.85 302.15
L 1043.85 305.25
Q 1043.85 305.8 1043.65 306.15 1043.5 306.5 1043.1 306.6 1042.7 306.8 1042.25 306.9 1041.75 306.95 1041.25 306.95
L 1031.1 306.95
Q 1031 307.1 1030.95 307.3 1030.95 307.45 1030.95 307.65
L 1030.95 308
Q 1030.95 308.2 1030.95 308.35 1031 308.5 1031.1 308.65
L 1042.85 308.65
Q 1043.5 308.65 1043.8 309 1044.15 309.35 1044.15 310.1 1044.15 310.8 1043.8 311.1 1043.5 311.45 1042.85 311.45
L 1030.3 311.45
Q 1030 311.45 1029.75 311.45 1029.5 311.45 1029.25 311.4 1029 311.35 1028.75 311.25 1028.5 311.2 1028.35 311.1 1028.05 311 1027.9 310.85 1027.75 310.7 1027.65 310.55 1027.5 310.35 1027.5 310.1 1027.45 309.9 1027.45 309.6
L 1027.45 306.4
Q 1027.45 306.15 1027.5 305.9 1027.5 305.65 1027.65 305.4 1027.75 305.15 1027.9 305 1028.05 304.8 1028.35 304.7 1028.5 304.55 1028.75 304.45 1029 304.4 1029.25 304.3 1029.5 304.3 1029.75 304.25 1030 304.25 1030.3 304.25
L 1040.15 304.25
Q 1040.2 304.15 1040.2 304 1040.25 303.9 1040.25 303.65
L 1040.25 303.4
Q 1040.25 303.2 1040.2 303.05 1040.2 302.95 1040.15 302.8
L 1028.65 302.8
Q 1027.9 302.8 1027.65 302.45 1027.5 302.3 1027.4 302.05 1027.35 301.8 1027.35 301.5 1027.35 301.2 1027.4 300.9 1027.5 300.65 1027.65 300.4 1027.75 300.2 1028 300.1 1028.25 300 1028.65 300
L 1040.95 300
Q 1041.4 300 1042 300.1 1042.25 300.15 1042.5 300.2 1042.75 300.3 1042.9 300.4
M 1017.25 345.9
Q 1017.35 346 1017.45 346.1 1017.55 346.2 1017.65 346.3
L 1017.75 346.2
Q 1018.05 345.95 1018.25 345.7 1018.5 345.45 1018.7 345.15 1019.25 344.6 1019.5 343.95 1019.6 343.7 1019.7 343.45 1019.8 343.15 1019.85 342.9
L 1019.3 342.9
Q 1018.95 342.9 1018.65 342.85 1018.4 342.75 1018.25 342.6 1018.05 342.45 1017.95 342.15 1017.9 341.9 1017.9 341.55 1017.9 340.8 1018.25 340.45 1018.6 340.1 1019.3 340.1
L 1025.95 340.1
Q 1026.3 340.1 1026.55 340.2 1026.8 340.3 1026.95 340.5 1027.1 340.7 1027.15 340.95 1027.2 341.25 1027.2 341.55 1027.2 342.25 1026.85 342.6 1026.5 342.9 1025.85 342.9
L 1023.45 342.9
Q 1023.55 343.35 1023.7 343.7 1023.85 344 1024.05 344.35 1024.3 344.65 1024.5 345 1024.75 345.3 1025 345.6 1025.15 345.75 1025.4 345.95 1025.55 346.1 1025.8 346.25 1026 346.45 1026.2 346.6 1026.45 346.75 1026.7 346.9 1026.85 347.1 1027.05 347.25 1027.2 347.45 1027.35 347.55 1027.45 347.75 1027.5 347.9 1027.6 348.05 1027.6 348.15 1027.6 348.3 1027.55 348.45 1027.5 348.6 1027.4 348.75 1027.25 349.1 1027.15 349.3 1027 349.4 1026.85 349.5 1026.75 349.65 1026.6 349.7 1026.4 349.8 1026.25 349.8 1026.1 349.85 1025.95 349.85 1025.75 349.85 1025.45 349.75 1025.2 349.65 1024.9 349.45 1024.6 349.25 1024.25 349 1023.95 348.75 1023.6 348.45 1023.35 348.15 1023.1 347.85 1022.85 347.55 1022.6 347.2 1022.05 346.6 1021.7 346.05 1021.4 346.35 1021.15 346.65 1020.9 346.95 1020.7 347.25 1020.45 347.55 1020.2 347.85 1019.95 348.15 1019.7 348.45 1019.55 348.65 1019.35 348.85 1019.1 349.05 1018.9 349.2 1019.05 349.3 1019.15 349.35 1019.25 349.45 1019.35 349.55 1019.4 349.7 1019.45 349.85 1019.5 350 1019.5 350.2
L 1019.5 352.15 1029.65 352.15
Q 1030.05 352.15 1030.3 352.25 1030.55 352.35 1030.7 352.6 1030.95 353.1 1030.95 353.75 1030.95 354.4 1030.7 354.8 1030.55 355.05 1030.3 355.2 1030.05 355.3 1029.65 355.3
L 1005.7 355.3
Q 1005.2 355.3 1004.95 355.2 1004.65 355.05 1004.55 354.8 1004.45 354.6 1004.35 354.35 1004.3 354.05 1004.3 353.75 1004.3 353.4 1004.35 353.1 1004.45 352.85 1004.55 352.6 1004.65 352.35 1004.95 352.25 1005.2 352.15 1005.7 352.15
L 1015.8 352.15 1015.8 350.2
Q 1015.8 349.95 1015.85 349.75 1015.9 349.55 1016 349.45 1015.9 349.25 1015.8 349 1015.7 348.8 1015.7 348.55 1015.6 348.55 1015.55 348.5 1015.5 348.45 1015.45 348.4 1015.25 348.3 1015.05 348.2 1014.85 348.05 1014.7 347.85 1014.55 347.75 1014.4 347.55 1014.25 347.4 1014.05 347.2 1013.9 347 1013.8 346.85 1013.65 346.7 1013.55 346.55 1013.45 346.85 1012.95 347.35 1012.65 347.65 1012.4 347.95 1012.15 348.25 1011.9 348.5 1011.55 348.8 1011.2 349.05 1010.85 349.3 1010.55 349.5 1010.15 349.75 1009.9 349.85 1009.6 349.95 1009.35 349.95 1009.2 349.95 1009.1 349.9 1008.95 349.85 1008.8 349.75 1008.6 349.65 1008.5 349.55 1008.35 349.45 1008.3 349.3 1008.2 349.2 1008.1 349.05 1008 348.9 1007.9 348.75 1007.75 348.6 1007.75 348.4 1007.7 348.25 1007.7 348.1 1007.7 348 1007.75 347.85 1007.75 347.75 1007.9 347.6 1008.05 347.3 1008.45 347.15 1008.6 347.05 1008.85 346.85 1009.1 346.7 1009.35 346.45 1009.65 346.25 1009.9 346 1010.2 345.75 1010.5 345.45 1010.75 345.2 1010.95 344.9 1011.15 344.6 1011.35 344.25 1011.5 343.95 1011.65 343.6 1011.8 343.3 1011.85 342.9
L 1009.55 342.9
Q 1009.15 342.9 1008.9 342.85 1008.6 342.75 1008.45 342.6 1008.3 342.45 1008.2 342.15 1008.1 341.9 1008.1 341.55 1008.1 341.25 1008.15 340.95 1008.25 340.7 1008.4 340.5 1008.55 340.3 1008.8 340.2 1009.05 340.1 1009.4 340.1
L 1015.75 340.1
Q 1017.2 340.1 1017.2 341.55 1017.2 342.25 1016.85 342.6 1016.45 342.9 1015.8 342.9
L 1015.15 342.9
Q 1015.3 343.35 1015.5 343.75 1015.7 344.15 1016 344.55 1016.3 344.95 1016.6 345.3 1016.9 345.65 1017.25 345.9
M 1009.2 358.45
Q 1009.2 358.15 1009.25 357.85 1009.3 357.6 1009.5 357.3 1009.6 357.1 1009.85 356.95 1010.1 356.85 1010.5 356.85
L 1023.35 356.85
Q 1023.95 356.85 1024.35 357.05 1024.75 357.25 1025.05 357.6 1025.25 358.05 1025.4 358.5 1025.55 358.95 1025.55 359.5
L 1025.55 366.2
Q 1025.55 366.5 1025.4 366.75 1025.25 367 1025 367.15 1024.7 367.3 1024.4 367.4 1024.1 367.5 1023.75 367.5 1023.5 367.5 1023.25 367.4 1023.05 367.35 1022.9 367.3 1022.75 367.25 1022.55 367.15 1022.4 367.05 1022.3 366.95 1022.2 366.85 1022.15 366.8 1022.05 366.65 1022 366.5 1022 366.4 1022 366.2
L 1022 360.1
Q 1021.6 360.05 1021.15 360 1020.95 360 1020.75 360 1020.55 360 1020.35 360
L 1010.5 360
Q 1010.1 360 1009.85 359.9 1009.6 359.75 1009.5 359.55 1009.3 359.3 1009.25 359.05 1009.2 358.8 1009.2 358.45
M 1036.95 345.2
Q 1037.3 344.55 1037.75 343.95 1038.25 343.4 1038.85 342.9 1040 342 1041.7 341.45 1042.55 341.2 1043.45 341.05 1044.35 340.95 1045.3 340.95 1046.35 340.95 1047.3 341.05 1048.2 341.2 1049.05 341.45 1049.85 341.7 1050.6 342.1 1051.3 342.45 1051.9 342.9 1052.5 343.4 1052.95 343.95 1053.45 344.55 1053.75 345.2 1054.1 345.85 1054.25 346.6 1054.45 347.35 1054.45 348.15 1054.45 351.45 1051.9 353.35 1051.55 353.6 1051.2 353.85 1050.85 354.05 1050.55 354.2 1050.2 354.4 1049.8 354.55 1049.45 354.7 1049 354.75 1048.65 354.9 1048.25 355 1047.85 355.1 1047.4 355.15 1046.9 355.25 1046.4 355.3 1045.85 355.35 1045.35 355.35 1045.1 355.35 1044.85 355.35 1044.6 355.35 1044.3 355.3 1044 355.3 1043.7 355.3 1043.45 355.25 1043.25 355.2 1042.45 355.1 1041.7 354.85 1041 354.65 1040.35 354.35 1039.75 354.05 1039.2 353.65 1038.7 353.25 1038.3 352.8 1037.4 351.9 1036.85 350.65 1036.3 349.5 1036.3 348.15 1036.3 347.35 1036.45 346.65 1036.65 345.9 1036.95 345.2
M 1033.5 363
Q 1033.05 363 1032.8 362.85 1032.55 362.75 1032.45 362.5 1032.35 362.25 1032.3 361.95 1032.25 361.7 1032.25 361.35 1032.25 361.05 1032.3 360.75 1032.35 360.45 1032.45 360.2 1032.55 360 1032.8 359.85 1033.05 359.7 1033.5 359.7
L 1057.2 359.7
Q 1057.6 359.7 1057.9 359.85 1058.15 360 1058.25 360.2 1058.4 360.45 1058.45 360.75 1058.5 361.05 1058.5 361.35 1058.5 361.7 1058.45 361.95 1058.4 362.25 1058.25 362.5 1058.15 362.75 1057.9 362.85 1057.6 363 1057.2 363
L 1033.5 363
M 1065.15 341.55
Q 1065.45 341.4 1065.85 341.4
L 1078.9 341.4
Q 1079.2 341.4 1079.45 341.5 1079.7 341.55 1079.95 341.65 1080.15 341.75 1080.35 341.85 1080.6 342 1080.8 342.2 1081 342.4 1081.15 342.6 1081.25 342.8 1081.35 343.05 1081.55 343.55 1081.55 344.1
L 1081.55 347.95
Q 1081.5 348.55 1081.3 349 1081.1 349.45 1080.8 349.75 1080.45 350.1 1079.95 350.3 1079.5 350.45 1078.9 350.45
L 1067.95 350.45
Q 1067.9 350.6 1067.85 350.75 1067.85 350.9 1067.85 351.05 1067.85 351.25 1067.85 351.4 1067.8 351.55 1067.8 351.7
L 1067.8 352.3
Q 1067.8 352.45 1067.85 352.65 1067.85 352.8 1067.85 352.95 1067.85 353.1 1067.85 353.25 1067.9 353.4 1067.95 353.5
L 1080.5 353.5
Q 1080.85 353.5 1081.15 353.6 1081.5 353.75 1081.7 353.95 1081.9 354.15 1082 354.45 1082.15 354.75 1082.15 355.05 1082.15 355.4 1082 355.7 1081.9 355.95 1081.7 356.1 1081.5 356.3 1081.15 356.4 1080.85 356.5 1080.5 356.5
L 1074.75 356.5
Q 1074.95 356.75 1074.95 357.2
L 1074.95 360.25 1084.95 360.25
Q 1085.2 360.25 1085.45 360.35 1085.7 360.45 1085.9 360.65 1086.1 360.85 1086.2 361.15 1086.25 361.45 1086.25 361.8 1086.25 362.45 1085.9 362.85 1085.7 363.1 1085.45 363.25 1085.2 363.35 1084.95 363.35
L 1061.3 363.35
Q 1060.9 363.35 1060.65 363.25 1060.45 363.1 1060.3 362.85 1060.15 362.65 1060.05 362.35 1060 362.1 1060 361.8 1060 361.45 1060.05 361.15 1060.15 360.85 1060.3 360.65 1060.45 360.45 1060.65 360.35 1060.9 360.25 1061.3 360.25
L 1071.2 360.25 1071.2 357.2
Q 1071.2 357 1071.2 356.8 1071.25 356.65 1071.35 356.5
L 1067.05 356.5
Q 1066.5 356.5 1066.05 356.3 1065.55 356.15 1065.15 355.8 1064.7 355.45 1064.5 355.05 1064.3 354.6 1064.3 354.05
L 1064.3 350
Q 1064.3 349.45 1064.5 348.95 1064.7 348.5 1065.1 348.15 1065.55 347.8 1066 347.6 1066.5 347.45 1067.05 347.45
L 1077.8 347.45
Q 1077.9 347.15 1077.9 346.85 1077.95 346.55 1077.95 346.25
L 1077.95 345.75
Q 1077.95 345.45 1077.9 345.15 1077.9 344.85 1077.8 344.55
L 1065.85 344.55
Q 1065.45 344.55 1065.15 344.4 1064.85 344.3 1064.65 344.1 1064.2 343.65 1064.2 343 1064.2 342.7 1064.3 342.4 1064.4 342.1 1064.65 341.85 1064.85 341.65 1065.15 341.55
M 964.65 417.2
Q 965.35 416.85 966.1 416.65 966.85 416.5 967.7 416.5 968.75 416.5 969.7 416.75 970.65 417 971.45 417.5 972.2 418 972.85 418.6 973.45 419.3 973.85 420.1 973.9 420.2 974 420.35 974.05 420.45 974.1 420.55 974.15 420.7 974.2 420.85 974.25 420.95 974.25 421.1 974.25 421.35 974.2 421.6 974.15 421.8 974.05 422.05 973.9 422.25 973.8 422.45 973.65 422.6 973.5 422.7 973.45 422.7 973.4 422.7
L 973.4 422.65
Q 973.1 422.75 972.9 422.8 972.65 422.85 972.45 422.85 972.25 422.85 972.05 422.8 971.85 422.8 971.65 422.7 971.45 422.65 971.3 422.6 971.2 422.5 971.1 422.35 971 422.3 970.95 422.2 970.9 422.1 970.9 422.05 970.85 422 970.8 421.95
L 970.75 421.9
Q 970.35 421.25 969.7 420.65 969.35 420.35 968.85 420.2 968.4 420.05 967.75 420.05 967.3 420.05 966.9 420.15 966.5 420.25 966.15 420.4 965.75 420.65 965.45 420.9 965.15 421.15 964.9 421.5 964.7 421.85 964.5 422.25 964.35 422.65 964.2 423.1 964.05 423.55 964 424.05 963.9 424.55 963.9 425.05 963.9 425.55 964 426 964.05 426.5 964.2 426.95 964.35 427.4 964.5 427.8 964.65 428.2 964.85 428.55 965.1 428.9 965.4 429.2 965.7 429.5 966.15 429.7 966.5 429.9 966.9 430 967.3 430.1 967.75 430.1 968.3 430.1 968.7 430 969.1 429.9 969.45 429.65 969.7 429.45 969.95 429.2 970.25 429 970.5 428.75 970.7 428.45 970.9 428.15 971.1 427.9 971.35 427.65 971.75 427.25 972.45 427.25 972.8 427.25 973.15 427.4 973.5 427.55 973.75 427.8 974 428.1 974.15 428.4 974.3 428.75 974.3 429.1 974.3 429.25 974.2 429.4 974.15 429.55 974 429.7 973.7 430.2 973.4 430.65 973.1 431.05 972.8 431.4 972.45 431.8 972.1 432.15 971.75 432.45 971.3 432.65 971 432.9 970.6 433.05 970.2 433.25 969.75 433.3 969.25 433.45 968.75 433.5 968.2 433.55 967.7 433.55 966.85 433.55 966.1 433.4 965.35 433.25 964.65 432.85 963.95 432.55 963.4 432.05 962.8 431.6 962.3 431 961.8 430.45 961.4 429.75 961 429.05 960.75 428.25 960.5 427.5 960.35 426.7 960.25 425.95 960.25 425.05 960.25 424.2 960.35 423.4 960.5 422.55 960.75 421.75 961 421 961.4 420.35 961.8 419.65 962.3 419.05 963.25 417.9 964.65 417.2
M 993.15 416.55
Q 993.7 416.55 994.2 416.65 994.7 416.8 995.15 417 995.6 417.3 996 417.65 996.35 418 996.7 418.4 996.95 418.85 997.2 419.3 997.45 419.8 997.65 420.3 998 421.35 998 422.35
L 998 431.35
Q 998 431.75 997.85 432 997.75 432.3 997.5 432.55 997.25 432.8 996.9 432.95 996.55 433.05 996.1 433.05 995.8 433.05 995.55 432.95 995.25 432.8 995.05 432.55 994.8 432.3 994.7 432 994.55 431.75 994.55 431.35 994.55 429.25 994.55 427.15 994.55 426.1 994.55 425.05 994.55 423.95 994.55 422.9 994.55 422.25 994.4 421.75 994.2 421.25 993.9 420.85 993.6 420.5 993.2 420.3 992.8 420.1 992.3 420.1 992.05 420.1 991.8 420.15 991.55 420.2 991.35 420.3 991.1 420.45 990.9 420.6 990.7 420.75 990.55 420.95 990.3 421.15 990.2 421.35 990.05 421.6 990 421.85 989.9 422.1 989.85 422.35 989.8 422.6 989.8 422.9
L 989.8 431.35
Q 989.8 431.75 989.7 432 989.55 432.3 989.35 432.55 989.05 432.8 988.75 432.95 988.45 433.05 988.15 433.05 987.7 433.05 987.4 432.95 987.05 432.8 986.85 432.55 986.55 432.3 986.45 432 986.3 431.75 986.3 431.35 986.3 429.25 986.3 427.15 986.3 426.1 986.3 425.05 986.3 423.95 986.3 422.9 986.3 422.25 986.15 421.75 986.05 421.25 985.8 420.85 985.55 420.5 985.2 420.3 984.8 420.1 984.35 420.1 984 420.1 983.75 420.15 983.45 420.2 983.25 420.3 982.8 420.55 982.45 420.95 982.1 421.35 982 421.85 981.9 422.1 981.9 422.35 981.85 422.6 981.85 422.9
L 981.85 431.2
Q 981.85 431.55 981.7 431.8 981.6 432.1 981.35 432.35 981.1 432.6 980.75 432.75 980.4 432.85 980 432.85 979.7 432.85 979.4 432.75 979.15 432.6 978.9 432.35 978.35 431.9 978.35 431.1
L 978.35 418.5
Q 978.35 418.15 978.45 417.85 978.6 417.55 978.9 417.3 979.15 417.05 979.45 416.95 979.75 416.8 980.05 416.8 980.25 416.8 980.25 416.9 980.4 416.95 980.6 417 980.75 417 980.9 417.15 981 417.2 981.15 417.3 981.3 417.4 981.5 417.55 981.6 417.6 981.65 417.75 981.75 417.85 981.85 417.95 981.85 418.05 981.9 418.1 981.95 418.2 981.95 418.25 982.05 418.1 982.2 417.95 982.35 417.8 982.55 417.65 982.85 417.4 983.25 417.15 983.4 417 983.6 416.9 983.85 416.8 984.1 416.75 984.4 416.65 984.75 416.65 985.1 416.6 985.6 416.6 986 416.6 986.45 416.65 986.8 416.7 987.15 416.85 987.5 417 987.75 417.2 988 417.35 988.25 417.55 988.4 417.75 988.55 417.9 988.7 418.1 988.85 418.25 988.95 418.4 989 418.55 989.1 418.65 989.1 418.75 989.35 418.3 989.8 417.95 990.2 417.55 990.8 417.2 991.4 416.85 991.95 416.7 992.55 416.55 993.15 416.55
M 1033.1 410
Q 1033.2 410.2 1033.2 410.35
L 1033.2 421.7
Q 1033.2 422.1 1033.05 422.4 1032.9 422.65 1032.65 422.75 1032.3 422.9 1031.95 422.95 1031.6 423 1031.25 423 1030.95 423 1030.65 422.95 1030.35 422.9 1030.15 422.75 1029.85 422.65 1029.75 422.4 1029.6 422.1 1029.6 421.7
L 1029.6 410.35
Q 1029.6 409.95 1029.75 409.7 1029.85 409.45 1030.15 409.3 1030.35 409.25 1030.65 409.2 1030.95 409.15 1031.25 409.15 1031.45 409.15 1031.65 409.15 1031.85 409.15 1032 409.15 1032.15 409.2 1032.25 409.25 1032.4 409.3 1032.5 409.3 1032.65 409.4 1032.75 409.5 1032.85 409.6 1033 409.7 1033.05 409.85 1033.1 410
M 1021.95 410.15
Q 1022.25 410.2 1022.55 410.25 1022.8 410.35 1023.05 410.45 1023.3 410.6 1023.5 410.75 1023.65 410.9 1023.8 411.1 1023.95 411.3 1024.15 411.5 1024.25 411.75 1024.35 412.05 1024.4 412.3 1024.4 412.6
L 1024.4 419.15
Q 1024.4 419.75 1024.2 420.2 1024 420.65 1023.6 420.95 1023.15 421.3 1022.65 421.45 1022.2 421.6 1021.65 421.6
L 1014.7 421.6
Q 1014.4 421.6 1014.15 421.6 1013.9 421.55 1013.6 421.5 1013 421.35 1012.5 421 1012.35 420.9 1012.2 420.7 1012.05 420.5 1011.9 420.25 1011.65 419.8 1011.65 419.15
L 1011.65 412.6
Q 1011.65 412.05 1011.85 411.6 1012.05 411.15 1012.5 410.8 1012.9 410.45 1013.4 410.25 1013.85 410.1 1014.45 410.1
L 1021.25 410.1
Q 1021.6 410.1 1021.95 410.15
M 1030.15 423.85
Q 1031.2 423.85 1032.05 424.4 1032.45 424.65 1032.65 425.05 1032.9 425.5 1032.9 426.05
L 1032.9 429.45
Q 1032.9 429.75 1032.8 430.05 1032.75 430.3 1032.65 430.45 1032.45 430.7 1032.3 430.8 1032.15 431 1032.05 431.1 1031.75 431.25 1031.5 431.35 1031.25 431.45 1031.05 431.5 1030.75 431.55 1030.45 431.6 1030.15 431.6 1029.85 431.6
L 1020.25 431.6
Q 1020.2 431.7 1020.2 431.8 1020.15 431.85 1020.15 431.95 1020.15 432.05 1020.15 432.15 1020.15 432.25 1020.15 432.35
L 1020.15 432.85
Q 1020.15 433 1020.15 433.1 1020.15 433.2 1020.15 433.3 1020.15 433.4 1020.2 433.5 1020.2 433.6 1020.25 433.7
L 1031.95 433.7
Q 1032.6 433.7 1032.9 434 1033.25 434.35 1033.25 435.05 1033.25 435.35 1033.15 435.6 1033.1 435.9 1032.9 436.1 1032.75 436.35 1032.5 436.45 1032.25 436.55 1031.95 436.55
L 1019.35 436.55
Q 1018.85 436.55 1018.35 436.45 1017.9 436.3 1017.5 436.1 1017.15 435.8 1016.9 435.4 1016.7 435 1016.7 434.45
L 1016.7 430.7
Q 1016.7 430.15 1016.9 429.75 1017.1 429.35 1017.5 429.15 1017.85 428.95 1018.35 428.85 1018.8 428.75 1019.35 428.75
L 1029.2 428.75
Q 1029.25 428.5 1029.3 428.3 1029.35 428.15 1029.35 427.9
L 1029.35 427.55
Q 1029.35 427.35 1029.3 427.15 1029.25 426.95 1029.2 426.8
L 1017.9 426.8
Q 1017.6 426.8 1017.35 426.7 1017.1 426.6 1016.95 426.4 1016.8 426.25 1016.7 426 1016.65 425.75 1016.65 425.45 1016.65 425.1 1016.7 424.85 1016.8 424.55 1016.95 424.3 1017.1 424.05 1017.35 423.95 1017.6 423.85 1017.9 423.85
L 1030.15 423.85
M 1060.7 409.8
Q 1060.8 410.1 1060.8 410.45
L 1060.8 422.85
Q 1060.8 423.25 1060.7 423.55 1060.6 423.8 1060.35 423.9 1059.85 424.15 1059.1 424.15 1058.75 424.15 1058.5 424.1 1058.25 424.05 1058 423.9 1057.7 423.8 1057.6 423.55 1057.45 423.25 1057.45 422.85
L 1057.45 418.05 1053.1 418.05
Q 1053.05 418.45 1052.95 418.85 1052.85 419.2 1052.7 419.55 1052.45 420.15 1052.1 420.7 1051.75 421.2 1051.25 421.6 1050.75 422.1 1050.2 422.4 1049.65 422.75 1049 422.95 1048.35 423.15 1047.65 423.3 1046.9 423.4 1046.15 423.4 1045.35 423.4 1044.6 423.3 1043.9 423.15 1043.25 422.95 1042.6 422.75 1042.05 422.4 1041.5 422.1 1041.05 421.6 1040.55 421.2 1040.15 420.7 1039.8 420.15 1039.55 419.55 1039.3 418.95 1039.15 418.25 1039.05 417.55 1039.05 416.8 1039.05 416.05 1039.15 415.3 1039.3 414.65 1039.55 414 1039.8 413.4 1040.15 412.9 1040.55 412.35 1041.05 411.9 1041.5 411.5 1042.05 411.15 1042.6 410.85 1043.25 410.6 1043.9 410.4 1044.6 410.25 1045.35 410.15 1046.15 410.15 1046.9 410.15 1047.65 410.25 1048.35 410.4 1049 410.6 1049.65 410.85 1050.2 411.15 1050.75 411.5 1051.25 411.9 1051.75 412.35 1052.1 412.9 1052.45 413.4 1052.7 414 1052.75 414.25 1052.85 414.45 1052.9 414.7 1052.95 414.95
L 1057.45 414.95 1057.45 410.45
Q 1057.45 410.1 1057.6 409.8 1057.7 409.55 1058 409.4 1058.25 409.3 1058.5 409.2 1058.75 409.15 1059.1 409.15 1059.8 409.15 1060.35 409.4 1060.6 409.55 1060.7 409.8
M 1048.25 425
Q 1048.6 425.1 1048.8 425.3 1049 425.45 1049.1 425.75 1049.2 426.05 1049.2 426.4
L 1049.2 427.9
Q 1049.2 428.25 1049.3 428.6 1049.35 428.95 1049.5 429.3 1049.6 429.65 1049.7 429.95 1049.85 430.2 1049.95 430.35 1050.1 430.6 1050.3 430.8 1050.45 431.05 1050.65 431.2 1050.8 431.45 1050.9 431.65 1050.95 431.85 1050.95 432.05 1050.95 432.4 1050.85 432.6 1050.7 432.85 1050.45 433.1 1050.15 433.3 1049.9 433.4 1049.65 433.55 1049.35 433.55 1049.1 433.55 1048.95 433.45 1048.7 433.4 1048.6 433.3 1048.25 433.15 1047.85 432.8 1047.85 432.75 1047.8 432.7 1047.75 432.65 1047.75 432.6 1047.7 432.55 1047.65 432.5
L 1047.6 432.5
Q 1047.5 432.65 1047.35 432.9 1047.15 433.15 1046.9 433.45 1046.65 433.8 1046.4 434.1 1046.1 434.4 1045.85 434.75 1045.5 435.05 1045.15 435.3 1044.8 435.6 1044.45 435.85 1044.1 436.05 1043.75 436.2 1043.45 436.3 1043.15 436.3 1042.85 436.25 1042.6 436.15 1042.35 436.05 1042.2 435.9 1041.95 435.65 1041.85 435.4 1041.7 435.15 1041.7 434.85 1041.7 434.35 1041.95 433.95 1042.2 433.55 1042.75 433.25 1043.1 433 1043.4 432.75 1043.65 432.5 1043.85 432.3 1044 432.05 1044.3 431.8 1044.55 431.55 1044.9 431.2
L 1044.95 431.05
Q 1045.45 430.4 1045.75 429.55 1046 428.7 1046 427.65
L 1046 426.35
Q 1046 425.95 1046.15 425.7 1046.25 425.45 1046.55 425.25 1046.75 425.1 1047.05 425 1047.3 424.9 1047.55 424.9 1047.95 424.9 1048.25 425
M 1055.15 425.65
Q 1055.25 425.4 1055.5 425.25 1055.8 425.05 1056.25 425
L 1056.3 425
Q 1056.35 425 1056.4 425
L 1056.5 425
Q 1056.85 425 1057.15 425.05 1057.45 425.15 1057.6 425.3 1057.8 425.5 1057.9 425.75 1058 426 1058 426.35
L 1058 427.6
Q 1058.05 428.55 1058.3 429.4 1058.55 430.2 1059 430.95 1059.25 431.25 1059.5 431.5 1059.75 431.8 1060.05 432 1060.3 432.3 1060.6 432.55 1060.85 432.8 1061.1 433 1061.3 433.25 1061.5 433.5 1061.7 433.7 1061.95 433.9 1062.15 434.1 1062.25 434.3 1062.35 434.55 1062.35 434.75 1062.35 435.1 1062.25 435.4 1062.1 435.65 1061.8 435.9 1061.3 436.35 1060.8 436.35 1060.6 436.35 1060.3 436.25 1060 436.1 1059.65 435.9 1059.3 435.65 1058.95 435.35 1058.65 435.05 1058.35 434.75 1057.95 434.4 1057.6 434.05 1057.25 433.7 1056.95 433.35 1056.35 432.65 1056.25 432.2 1056.05 432.5 1055.8 432.8 1055.6 433.1 1055.3 433.45 1054.95 433.8 1054.65 434.1 1054.3 434.4 1053.9 434.75 1053.6 435 1053.3 435.25 1053 435.5 1052.65 435.7 1052.3 435.9 1051.95 436 1051.6 436.1 1051.3 436.1 1051 436.1 1050.5 435.7 1050.2 435.55 1050.05 435.3 1049.95 435 1049.95 434.7 1049.95 434.5 1049.95 434.4 1050 434.25 1050.05 434.15 1050.1 434.05 1050.15 433.95 1050.2 433.85 1050.3 433.85 1050.35 433.75 1050.5 433.7 1050.6 433.6 1050.7 433.55 1050.85 433.45 1050.95 433.35 1051.05 433.25 1051.2 433.15 1051.55 432.9 1051.85 432.65 1052.2 432.4 1052.45 432.15 1052.7 431.9 1052.95 431.6 1053.25 431.3 1053.55 430.9 1053.95 430.35 1054.25 429.8 1054.5 429.3 1054.6 428.75 1054.75 427.8 1054.85 426.95 1054.9 426.6 1055 426.3 1055.05 425.95 1055.15 425.65
M 1074.5 411.25
Q 1075.2 411.4 1075.85 411.7 1076.45 412.05 1076.95 412.5 1077.45 412.95 1077.85 413.5 1078.35 414.1 1078.7 414.85 1079.05 415.55 1079.25 416.35 1079.4 416.9 1079.55 417.45 1079.65 418 1079.7 418.6
L 1084.8 418.6 1084.8 410.2
Q 1084.8 409.8 1084.95 409.55 1085.1 409.3 1085.4 409.15 1085.7 409.05 1086 408.95 1086.3 408.9 1086.6 408.9 1087 408.9 1087.3 408.95 1087.6 409.05 1087.85 409.15 1088.1 409.3 1088.2 409.55 1088.35 409.8 1088.35 410.2
L 1088.35 435.85
Q 1088.35 436.25 1088.2 436.5 1088.1 436.75 1087.85 436.9 1087.6 437 1087.3 437.05 1087 437.15 1086.6 437.15 1086.3 437.15 1086 437.05 1085.7 437 1085.4 436.9 1085.1 436.75 1084.95 436.5 1084.8 436.25 1084.8 435.85
L 1084.8 421.75 1079.7 421.75
Q 1079.65 422.35 1079.55 422.95 1079.4 423.5 1079.25 424.05 1079.05 424.9 1078.7 425.6 1078.35 426.3 1077.85 426.85 1077.45 427.45 1076.95 427.9 1076.45 428.35 1075.85 428.65 1075.2 428.95 1074.5 429.1 1073.75 429.25 1072.9 429.25 1072.15 429.25 1071.45 429.1 1070.8 428.95 1070.15 428.65 1069.55 428.35 1069 427.9 1068.45 427.45 1068 426.85 1067.6 426.3 1067.25 425.6 1066.95 424.9 1066.75 424.05 1066.5 423.2 1066.35 422.25 1066.25 421.3 1066.25 420.2 1066.25 419.15 1066.35 418.2 1066.5 417.25 1066.75 416.35 1066.95 415.55 1067.25 414.85 1067.6 414.1 1068 413.5 1068.45 412.95 1069 412.5 1069.55 412.05 1070.15 411.7 1070.8 411.4 1071.45 411.25 1072.15 411.1 1072.9 411.1 1073.75 411.1 1074.5 411.25
M 983.4 323.6
Q 998.4 323.6 998.4 338.6
L 998.4 368.65
Q 998.4 383.65 983.4 383.65
L 903.4 383.65
Q 888.4 383.65 888.4 368.65
L 888.4 338.6
Q 888.4 323.6 903.4 323.6
L 983.4 323.6
M 903.4 393.6
L 938.4 393.6
Q 953.4 393.6 953.4 408.6
L 953.4 438.65
Q 953.4 453.65 938.4 453.65
L 903.4 453.65
Q 888.4 453.65 888.4 438.65
L 888.4 408.6
Q 888.4 393.6 903.4 393.6
M 1094.6 432.85
Q 1094.6 432.45 1094.7 432.15 1094.8 431.8 1095 431.65 1095.15 431.45 1095.5 431.35 1095.8 431.3 1096.25 431.3
L 1097.45 431.3
Q 1097.85 431.3 1098.15 431.4 1098.45 431.5 1098.7 431.65 1098.9 431.9 1099 432.15 1099.1 432.45 1099.1 432.85
L 1099.1 434.15
Q 1099.1 434.9 1098.7 435.3 1098.3 435.7 1097.5 435.7
L 1096.25 435.7
Q 1095.8 435.7 1095.5 435.6 1095.15 435.55 1095 435.35 1094.8 435.2 1094.7 434.9 1094.6 434.6 1094.6 434.15
L 1094.6 432.85
M 938.4 393.6
L 903.4 393.6
Q 888.4 393.6 888.4 408.6
L 888.4 438.65
Q 888.4 453.65 903.4 453.65
L 938.4 453.65
Q 953.4 453.65 953.4 438.65
L 953.4 408.6
Q 953.4 393.6 938.4 393.6
M 998.4 338.6
Q 998.4 323.6 983.4 323.6
L 903.4 323.6
Q 888.4 323.6 888.4 338.6
L 888.4 368.65
Q 888.4 383.65 903.4 383.65
L 983.4 383.65
Q 998.4 383.65 998.4 368.65
L 998.4 338.6
M 1076.2 417.75
Q 1075.95 416.65 1075.55 415.8 1075.1 415.05 1074.45 414.65 1073.8 414.25 1072.95 414.25 1072.2 414.25 1071.55 414.65 1070.9 415.05 1070.4 415.8 1069.9 416.65 1069.65 417.75 1069.4 418.8 1069.4 420.2 1069.4 421.6 1069.65 422.7 1069.9 423.8 1070.4 424.6 1070.9 425.4 1071.55 425.8 1072.2 426.2 1072.95 426.2 1073.8 426.2 1074.45 425.8 1075.1 425.4 1075.55 424.6 1075.95 423.8 1076.2 422.7 1076.4 421.6 1076.4 420.2 1076.4 418.8 1076.2 417.75
M 1042.7 415.3
Q 1042.45 415.95 1042.45 416.8 1042.45 417.6 1042.7 418.25 1042.95 418.85 1043.45 419.3 1043.95 419.8 1044.65 420 1045.3 420.25 1046.2 420.25 1047 420.25 1047.65 420 1048.35 419.8 1048.9 419.3 1049.4 418.85 1049.7 418.25 1049.95 417.6 1049.95 416.8 1049.95 415.95 1049.7 415.3 1049.4 414.65 1048.9 414.2 1047.8 413.3 1046.2 413.3 1045.3 413.3 1044.65 413.55 1043.95 413.75 1043.45 414.2 1042.95 414.65 1042.7 415.3
M 1020.9 414.35
Q 1020.85 414.15 1020.85 413.9 1020.85 413.65 1020.85 413.4 1020.5 413.4 1020.25 413.35 1019.95 413.35 1019.7 413.35 1019.45 413.35 1019.2 413.35 1018.9 413.35 1018.6 413.35
L 1017.25 413.35
Q 1017 413.35 1016.75 413.35 1016.5 413.35 1016.25 413.4 1015.95 413.4 1015.7 413.45 1015.4 413.45 1015.1 413.5
L 1015.1 416.4
Q 1015.1 416.95 1015.1 417.4 1015.1 417.65 1015.1 417.9 1015.1 418.15 1015.15 418.4 1015.45 418.4 1015.7 418.4 1016 418.4 1016.25 418.4 1016.8 418.4 1017.25 418.4
L 1018.6 418.4
Q 1018.9 418.4 1019.2 418.4 1019.45 418.4 1019.7 418.4 1019.95 418.4 1020.25 418.4 1020.5 418.4 1020.85 418.4 1020.85 418.15 1020.85 417.9 1020.85 417.65 1020.9 417.4 1020.9 416.95 1020.9 416.4
L 1020.9 415.35
Q 1020.9 414.85 1020.9 414.35
M 1045.3 344.15
Q 1044 344.15 1043 344.4 1042 344.7 1041.3 345.25 1040.6 345.75 1040.25 346.5 1039.9 347.25 1039.9 348.15 1039.9 349.05 1040.25 349.75 1040.6 350.45 1041.3 351 1042 351.55 1043 351.85 1044 352.1 1045.3 352.1 1048 352.1 1049.45 351 1050.1 350.45 1050.45 349.75 1050.8 349.05 1050.8 348.15 1050.8 347.25 1050.45 346.5 1050.1 345.75 1049.45 345.25 1048 344.15 1045.3 344.15
M 1030.75 289.35
Q 1031.1 289.65 1031.85 289.85 1032.55 290.1 1033.5 290.2 1034.4 290.3 1035.55 290.3 1036.8 290.3 1037.75 290.2 1038.7 290.1 1039.45 289.85 1040.15 289.65 1040.5 289.35 1040.85 289.05 1040.85 288.65 1040.85 288.25 1040.5 287.95 1040.15 287.65 1039.45 287.45 1038.7 287.25 1037.75 287.1 1036.8 287 1035.55 287 1034.4 287 1033.5 287.1 1032.55 287.25 1031.85 287.45 1031.1 287.65 1030.75 287.95 1030.35 288.25 1030.35 288.65 1030.35 289.05 1030.75 289.35
M 999.85 288.9
Q 998.1 290.65 997.2 292.8 996.3 294.95 996.3 297.5 996.3 300 997.2 302.15 998.1 304.3 999.85 306.05 1001.5 307.85 1003.45 308.75 1005.4 309.65 1007.7 309.65 1010.1 309.65 1012.15 308.75 1014.25 307.85 1016 306.05 1017.7 304.3 1018.5 302.15 1019.35 300 1019.35 297.5 1019.35 295 1018.5 292.85 1017.7 290.7 1016 288.9 1014.25 287.15 1012.15 286.25 1010.1 285.35 1007.7 285.35 1005.4 285.35 1003.45 286.25 1001.5 287.15 999.85 288.9
M 1001.2 293.8
L 1001.2 291.2 1013.95 291.2 1013.95 303.8 1011.2 303.8 1011.2 293.8 1001.2 293.8 Z"/>

<path fill="#1E1E1E" stroke="none" d="
M 1094.7 432.15
Q 1094.6 432.45 1094.6 432.85
L 1094.6 434.15
Q 1094.6 434.6 1094.7 434.9 1094.8 435.2 1095 435.35 1095.15 435.55 1095.5 435.6 1095.8 435.7 1096.25 435.7
L 1097.5 435.7
Q 1098.3 435.7 1098.7 435.3 1099.1 434.9 1099.1 434.15
L 1099.1 432.85
Q 1099.1 432.45 1099 432.15 1098.9 431.9 1098.7 431.65 1098.45 431.5 1098.15 431.4 1097.85 431.3 1097.45 431.3
L 1096.25 431.3
Q 1095.8 431.3 1095.5 431.35 1095.15 431.45 1095 431.65 1094.8 431.8 1094.7 432.15
M 1075.85 411.7
Q 1075.2 411.4 1074.5 411.25 1073.75 411.1 1072.9 411.1 1072.15 411.1 1071.45 411.25 1070.8 411.4 1070.15 411.7 1069.55 412.05 1069 412.5 1068.45 412.95 1068 413.5 1067.6 414.1 1067.25 414.85 1066.95 415.55 1066.75 416.35 1066.5 417.25 1066.35 418.2 1066.25 419.15 1066.25 420.2 1066.25 421.3 1066.35 422.25 1066.5 423.2 1066.75 424.05 1066.95 424.9 1067.25 425.6 1067.6 426.3 1068 426.85 1068.45 427.45 1069 427.9 1069.55 428.35 1070.15 428.65 1070.8 428.95 1071.45 429.1 1072.15 429.25 1072.9 429.25 1073.75 429.25 1074.5 429.1 1075.2 428.95 1075.85 428.65 1076.45 428.35 1076.95 427.9 1077.45 427.45 1077.85 426.85 1078.35 426.3 1078.7 425.6 1079.05 424.9 1079.25 424.05 1079.4 423.5 1079.55 422.95 1079.65 422.35 1079.7 421.75
L 1084.8 421.75 1084.8 435.85
Q 1084.8 436.25 1084.95 436.5 1085.1 436.75 1085.4 436.9 1085.7 437 1086 437.05 1086.3 437.15 1086.6 437.15 1087 437.15 1087.3 437.05 1087.6 437 1087.85 436.9 1088.1 436.75 1088.2 436.5 1088.35 436.25 1088.35 435.85
L 1088.35 410.2
Q 1088.35 409.8 1088.2 409.55 1088.1 409.3 1087.85 409.15 1087.6 409.05 1087.3 408.95 1087 408.9 1086.6 408.9 1086.3 408.9 1086 408.95 1085.7 409.05 1085.4 409.15 1085.1 409.3 1084.95 409.55 1084.8 409.8 1084.8 410.2
L 1084.8 418.6 1079.7 418.6
Q 1079.65 418 1079.55 417.45 1079.4 416.9 1079.25 416.35 1079.05 415.55 1078.7 414.85 1078.35 414.1 1077.85 413.5 1077.45 412.95 1076.95 412.5 1076.45 412.05 1075.85 411.7
M 1075.55 415.8
Q 1075.95 416.65 1076.2 417.75 1076.4 418.8 1076.4 420.2 1076.4 421.6 1076.2 422.7 1075.95 423.8 1075.55 424.6 1075.1 425.4 1074.45 425.8 1073.8 426.2 1072.95 426.2 1072.2 426.2 1071.55 425.8 1070.9 425.4 1070.4 424.6 1069.9 423.8 1069.65 422.7 1069.4 421.6 1069.4 420.2 1069.4 418.8 1069.65 417.75 1069.9 416.65 1070.4 415.8 1070.9 415.05 1071.55 414.65 1072.2 414.25 1072.95 414.25 1073.8 414.25 1074.45 414.65 1075.1 415.05 1075.55 415.8
M 1055.5 425.25
Q 1055.25 425.4 1055.15 425.65 1055.05 425.95 1055 426.3 1054.9 426.6 1054.85 426.95 1054.75 427.8 1054.6 428.75 1054.5 429.3 1054.25 429.8 1053.95 430.35 1053.55 430.9 1053.25 431.3 1052.95 431.6 1052.7 431.9 1052.45 432.15 1052.2 432.4 1051.85 432.65 1051.55 432.9 1051.2 433.15 1051.05 433.25 1050.95 433.35 1050.85 433.45 1050.7 433.55 1050.6 433.6 1050.5 433.7 1050.35 433.75 1050.3 433.85 1050.2 433.85 1050.15 433.95 1050.1 434.05 1050.05 434.15 1050 434.25 1049.95 434.4 1049.95 434.5 1049.95 434.7 1049.95 435 1050.05 435.3 1050.2 435.55 1050.5 435.7 1051 436.1 1051.3 436.1 1051.6 436.1 1051.95 436 1052.3 435.9 1052.65 435.7 1053 435.5 1053.3 435.25 1053.6 435 1053.9 434.75 1054.3 434.4 1054.65 434.1 1054.95 433.8 1055.3 433.45 1055.6 433.1 1055.8 432.8 1056.05 432.5 1056.25 432.2 1056.35 432.65 1056.95 433.35 1057.25 433.7 1057.6 434.05 1057.95 434.4 1058.35 434.75 1058.65 435.05 1058.95 435.35 1059.3 435.65 1059.65 435.9 1060 436.1 1060.3 436.25 1060.6 436.35 1060.8 436.35 1061.3 436.35 1061.8 435.9 1062.1 435.65 1062.25 435.4 1062.35 435.1 1062.35 434.75 1062.35 434.55 1062.25 434.3 1062.15 434.1 1061.95 433.9 1061.7 433.7 1061.5 433.5 1061.3 433.25 1061.1 433 1060.85 432.8 1060.6 432.55 1060.3 432.3 1060.05 432 1059.75 431.8 1059.5 431.5 1059.25 431.25 1059 430.95 1058.55 430.2 1058.3 429.4 1058.05 428.55 1058 427.6
L 1058 426.35
Q 1058 426 1057.9 425.75 1057.8 425.5 1057.6 425.3 1057.45 425.15 1057.15 425.05 1056.85 425 1056.5 425
L 1056.4 425
Q 1056.35 425 1056.3 425
L 1056.25 425
Q 1055.8 425.05 1055.5 425.25
M 1048.8 425.3
Q 1048.6 425.1 1048.25 425 1047.95 424.9 1047.55 424.9 1047.3 424.9 1047.05 425 1046.75 425.1 1046.55 425.25 1046.25 425.45 1046.15 425.7 1046 425.95 1046 426.35
L 1046 427.65
Q 1046 428.7 1045.75 429.55 1045.45 430.4 1044.95 431.05
L 1044.9 431.2
Q 1044.55 431.55 1044.3 431.8 1044 432.05 1043.85 432.3 1043.65 432.5 1043.4 432.75 1043.1 433 1042.75 433.25 1042.2 433.55 1041.95 433.95 1041.7 434.35 1041.7 434.85 1041.7 435.15 1041.85 435.4 1041.95 435.65 1042.2 435.9 1042.35 436.05 1042.6 436.15 1042.85 436.25 1043.15 436.3 1043.45 436.3 1043.75 436.2 1044.1 436.05 1044.45 435.85 1044.8 435.6 1045.15 435.3 1045.5 435.05 1045.85 434.75 1046.1 434.4 1046.4 434.1 1046.65 433.8 1046.9 433.45 1047.15 433.15 1047.35 432.9 1047.5 432.65 1047.6 432.5
L 1047.65 432.5
Q 1047.7 432.55 1047.75 432.6 1047.75 432.65 1047.8 432.7 1047.85 432.75 1047.85 432.8 1048.25 433.15 1048.6 433.3 1048.7 433.4 1048.95 433.45 1049.1 433.55 1049.35 433.55 1049.65 433.55 1049.9 433.4 1050.15 433.3 1050.45 433.1 1050.7 432.85 1050.85 432.6 1050.95 432.4 1050.95 432.05 1050.95 431.85 1050.9 431.65 1050.8 431.45 1050.65 431.2 1050.45 431.05 1050.3 430.8 1050.1 430.6 1049.95 430.35 1049.85 430.2 1049.7 429.95 1049.6 429.65 1049.5 429.3 1049.35 428.95 1049.3 428.6 1049.2 428.25 1049.2 427.9
L 1049.2 426.4
Q 1049.2 426.05 1049.1 425.75 1049 425.45 1048.8 425.3
M 1060.8 410.45
Q 1060.8 410.1 1060.7 409.8 1060.6 409.55 1060.35 409.4 1059.8 409.15 1059.1 409.15 1058.75 409.15 1058.5 409.2 1058.25 409.3 1058 409.4 1057.7 409.55 1057.6 409.8 1057.45 410.1 1057.45 410.45
L 1057.45 414.95 1052.95 414.95
Q 1052.9 414.7 1052.85 414.45 1052.75 414.25 1052.7 414 1052.45 413.4 1052.1 412.9 1051.75 412.35 1051.25 411.9 1050.75 411.5 1050.2 411.15 1049.65 410.85 1049 410.6 1048.35 410.4 1047.65 410.25 1046.9 410.15 1046.15 410.15 1045.35 410.15 1044.6 410.25 1043.9 410.4 1043.25 410.6 1042.6 410.85 1042.05 411.15 1041.5 411.5 1041.05 411.9 1040.55 412.35 1040.15 412.9 1039.8 413.4 1039.55 414 1039.3 414.65 1039.15 415.3 1039.05 416.05 1039.05 416.8 1039.05 417.55 1039.15 418.25 1039.3 418.95 1039.55 419.55 1039.8 420.15 1040.15 420.7 1040.55 421.2 1041.05 421.6 1041.5 422.1 1042.05 422.4 1042.6 422.75 1043.25 422.95 1043.9 423.15 1044.6 423.3 1045.35 423.4 1046.15 423.4 1046.9 423.4 1047.65 423.3 1048.35 423.15 1049 422.95 1049.65 422.75 1050.2 422.4 1050.75 422.1 1051.25 421.6 1051.75 421.2 1052.1 420.7 1052.45 420.15 1052.7 419.55 1052.85 419.2 1052.95 418.85 1053.05 418.45 1053.1 418.05
L 1057.45 418.05 1057.45 422.85
Q 1057.45 423.25 1057.6 423.55 1057.7 423.8 1058 423.9 1058.25 424.05 1058.5 424.1 1058.75 424.15 1059.1 424.15 1059.85 424.15 1060.35 423.9 1060.6 423.8 1060.7 423.55 1060.8 423.25 1060.8 422.85
L 1060.8 410.45
M 1042.45 416.8
Q 1042.45 415.95 1042.7 415.3 1042.95 414.65 1043.45 414.2 1043.95 413.75 1044.65 413.55 1045.3 413.3 1046.2 413.3 1047.8 413.3 1048.9 414.2 1049.4 414.65 1049.7 415.3 1049.95 415.95 1049.95 416.8 1049.95 417.6 1049.7 418.25 1049.4 418.85 1048.9 419.3 1048.35 419.8 1047.65 420 1047 420.25 1046.2 420.25 1045.3 420.25 1044.65 420 1043.95 419.8 1043.45 419.3 1042.95 418.85 1042.7 418.25 1042.45 417.6 1042.45 416.8
M 1032.05 424.4
Q 1031.2 423.85 1030.15 423.85
L 1017.9 423.85
Q 1017.6 423.85 1017.35 423.95 1017.1 424.05 1016.95 424.3 1016.8 424.55 1016.7 424.85 1016.65 425.1 1016.65 425.45 1016.65 425.75 1016.7 426 1016.8 426.25 1016.95 426.4 1017.1 426.6 1017.35 426.7 1017.6 426.8 1017.9 426.8
L 1029.2 426.8
Q 1029.25 426.95 1029.3 427.15 1029.35 427.35 1029.35 427.55
L 1029.35 427.9
Q 1029.35 428.15 1029.3 428.3 1029.25 428.5 1029.2 428.75
L 1019.35 428.75
Q 1018.8 428.75 1018.35 428.85 1017.85 428.95 1017.5 429.15 1017.1 429.35 1016.9 429.75 1016.7 430.15 1016.7 430.7
L 1016.7 434.45
Q 1016.7 435 1016.9 435.4 1017.15 435.8 1017.5 436.1 1017.9 436.3 1018.35 436.45 1018.85 436.55 1019.35 436.55
L 1031.95 436.55
Q 1032.25 436.55 1032.5 436.45 1032.75 436.35 1032.9 436.1 1033.1 435.9 1033.15 435.6 1033.25 435.35 1033.25 435.05 1033.25 434.35 1032.9 434 1032.6 433.7 1031.95 433.7
L 1020.25 433.7
Q 1020.2 433.6 1020.2 433.5 1020.15 433.4 1020.15 433.3 1020.15 433.2 1020.15 433.1 1020.15 433 1020.15 432.85
L 1020.15 432.35
Q 1020.15 432.25 1020.15 432.15 1020.15 432.05 1020.15 431.95 1020.15 431.85 1020.2 431.8 1020.2 431.7 1020.25 431.6
L 1029.85 431.6
Q 1030.15 431.6 1030.45 431.6 1030.75 431.55 1031.05 431.5 1031.25 431.45 1031.5 431.35 1031.75 431.25 1032.05 431.1 1032.15 431 1032.3 430.8 1032.45 430.7 1032.65 430.45 1032.75 430.3 1032.8 430.05 1032.9 429.75 1032.9 429.45
L 1032.9 426.05
Q 1032.9 425.5 1032.65 425.05 1032.45 424.65 1032.05 424.4
M 1022.55 410.25
Q 1022.25 410.2 1021.95 410.15 1021.6 410.1 1021.25 410.1
L 1014.45 410.1
Q 1013.85 410.1 1013.4 410.25 1012.9 410.45 1012.5 410.8 1012.05 411.15 1011.85 411.6 1011.65 412.05 1011.65 412.6
L 1011.65 419.15
Q 1011.65 419.8 1011.9 420.25 1012.05 420.5 1012.2 420.7 1012.35 420.9 1012.5 421 1013 421.35 1013.6 421.5 1013.9 421.55 1014.15 421.6 1014.4 421.6 1014.7 421.6
L 1021.65 421.6
Q 1022.2 421.6 1022.65 421.45 1023.15 421.3 1023.6 420.95 1024 420.65 1024.2 420.2 1024.4 419.75 1024.4 419.15
L 1024.4 412.6
Q 1024.4 412.3 1024.35 412.05 1024.25 411.75 1024.15 411.5 1023.95 411.3 1023.8 411.1 1023.65 410.9 1023.5 410.75 1023.3 410.6 1023.05 410.45 1022.8 410.35 1022.55 410.25
M 1020.85 413.9
Q 1020.85 414.15 1020.9 414.35 1020.9 414.85 1020.9 415.35
L 1020.9 416.4
Q 1020.9 416.95 1020.9 417.4 1020.85 417.65 1020.85 417.9 1020.85 418.15 1020.85 418.4 1020.5 418.4 1020.25 418.4 1019.95 418.4 1019.7 418.4 1019.45 418.4 1019.2 418.4 1018.9 418.4 1018.6 418.4
L 1017.25 418.4
Q 1016.8 418.4 1016.25 418.4 1016 418.4 1015.7 418.4 1015.45 418.4 1015.15 418.4 1015.1 418.15 1015.1 417.9 1015.1 417.65 1015.1 417.4 1015.1 416.95 1015.1 416.4
L 1015.1 413.5
Q 1015.4 413.45 1015.7 413.45 1015.95 413.4 1016.25 413.4 1016.5 413.35 1016.75 413.35 1017 413.35 1017.25 413.35
L 1018.6 413.35
Q 1018.9 413.35 1019.2 413.35 1019.45 413.35 1019.7 413.35 1019.95 413.35 1020.25 413.35 1020.5 413.4 1020.85 413.4 1020.85 413.65 1020.85 413.9
M 1033.2 410.35
Q 1033.2 410.2 1033.1 410 1033.05 409.85 1033 409.7 1032.85 409.6 1032.75 409.5 1032.65 409.4 1032.5 409.3 1032.4 409.3 1032.25 409.25 1032.15 409.2 1032 409.15 1031.85 409.15 1031.65 409.15 1031.45 409.15 1031.25 409.15 1030.95 409.15 1030.65 409.2 1030.35 409.25 1030.15 409.3 1029.85 409.45 1029.75 409.7 1029.6 409.95 1029.6 410.35
L 1029.6 421.7
Q 1029.6 422.1 1029.75 422.4 1029.85 422.65 1030.15 422.75 1030.35 422.9 1030.65 422.95 1030.95 423 1031.25 423 1031.6 423 1031.95 422.95 1032.3 422.9 1032.65 422.75 1032.9 422.65 1033.05 422.4 1033.2 422.1 1033.2 421.7
L 1033.2 410.35
M 994.2 416.65
Q 993.7 416.55 993.15 416.55 992.55 416.55 991.95 416.7 991.4 416.85 990.8 417.2 990.2 417.55 989.8 417.95 989.35 418.3 989.1 418.75 989.1 418.65 989 418.55 988.95 418.4 988.85 418.25 988.7 418.1 988.55 417.9 988.4 417.75 988.25 417.55 988 417.35 987.75 417.2 987.5 417 987.15 416.85 986.8 416.7 986.45 416.65 986 416.6 985.6 416.6 985.1 416.6 984.75 416.65 984.4 416.65 984.1 416.75 983.85 416.8 983.6 416.9 983.4 417 983.25 417.15 982.85 417.4 982.55 417.65 982.35 417.8 982.2 417.95 982.05 418.1 981.95 418.25 981.95 418.2 981.9 418.1 981.85 418.05 981.85 417.95 981.75 417.85 981.65 417.75 981.6 417.6 981.5 417.55 981.3 417.4 981.15 417.3 981 417.2 980.9 417.15 980.75 417 980.6 417 980.4 416.95 980.25 416.9 980.25 416.8 980.05 416.8 979.75 416.8 979.45 416.95 979.15 417.05 978.9 417.3 978.6 417.55 978.45 417.85 978.35 418.15 978.35 418.5
L 978.35 431.1
Q 978.35 431.9 978.9 432.35 979.15 432.6 979.4 432.75 979.7 432.85 980 432.85 980.4 432.85 980.75 432.75 981.1 432.6 981.35 432.35 981.6 432.1 981.7 431.8 981.85 431.55 981.85 431.2
L 981.85 422.9
Q 981.85 422.6 981.9 422.35 981.9 422.1 982 421.85 982.1 421.35 982.45 420.95 982.8 420.55 983.25 420.3 983.45 420.2 983.75 420.15 984 420.1 984.35 420.1 984.8 420.1 985.2 420.3 985.55 420.5 985.8 420.85 986.05 421.25 986.15 421.75 986.3 422.25 986.3 422.9 986.3 423.95 986.3 425.05 986.3 426.1 986.3 427.15 986.3 429.25 986.3 431.35 986.3 431.75 986.45 432 986.55 432.3 986.85 432.55 987.05 432.8 987.4 432.95 987.7 433.05 988.15 433.05 988.45 433.05 988.75 432.95 989.05 432.8 989.35 432.55 989.55 432.3 989.7 432 989.8 431.75 989.8 431.35
L 989.8 422.9
Q 989.8 422.6 989.85 422.35 989.9 422.1 990 421.85 990.05 421.6 990.2 421.35 990.3 421.15 990.55 420.95 990.7 420.75 990.9 420.6 991.1 420.45 991.35 420.3 991.55 420.2 991.8 420.15 992.05 420.1 992.3 420.1 992.8 420.1 993.2 420.3 993.6 420.5 993.9 420.85 994.2 421.25 994.4 421.75 994.55 422.25 994.55 422.9 994.55 423.95 994.55 425.05 994.55 426.1 994.55 427.15 994.55 429.25 994.55 431.35 994.55 431.75 994.7 432 994.8 432.3 995.05 432.55 995.25 432.8 995.55 432.95 995.8 433.05 996.1 433.05 996.55 433.05 996.9 432.95 997.25 432.8 997.5 432.55 997.75 432.3 997.85 432 998 431.75 998 431.35
L 998 422.35
Q 998 421.35 997.65 420.3 997.45 419.8 997.2 419.3 996.95 418.85 996.7 418.4 996.35 418 996 417.65 995.6 417.3 995.15 417 994.7 416.8 994.2 416.65
M 966.1 416.65
Q 965.35 416.85 964.65 417.2 963.25 417.9 962.3 419.05 961.8 419.65 961.4 420.35 961 421 960.75 421.75 960.5 422.55 960.35 423.4 960.25 424.2 960.25 425.05 960.25 425.95 960.35 426.7 960.5 427.5 960.75 428.25 961 429.05 961.4 429.75 961.8 430.45 962.3 431 962.8 431.6 963.4 432.05 963.95 432.55 964.65 432.85 965.35 433.25 966.1 433.4 966.85 433.55 967.7 433.55 968.2 433.55 968.75 433.5 969.25 433.45 969.75 433.3 970.2 433.25 970.6 433.05 971 432.9 971.3 432.65 971.75 432.45 972.1 432.15 972.45 431.8 972.8 431.4 973.1 431.05 973.4 430.65 973.7 430.2 974 429.7 974.15 429.55 974.2 429.4 974.3 429.25 974.3 429.1 974.3 428.75 974.15 428.4 974 428.1 973.75 427.8 973.5 427.55 973.15 427.4 972.8 427.25 972.45 427.25 971.75 427.25 971.35 427.65 971.1 427.9 970.9 428.15 970.7 428.45 970.5 428.75 970.25 429 969.95 429.2 969.7 429.45 969.45 429.65 969.1 429.9 968.7 430 968.3 430.1 967.75 430.1 967.3 430.1 966.9 430 966.5 429.9 966.15 429.7 965.7 429.5 965.4 429.2 965.1 428.9 964.85 428.55 964.65 428.2 964.5 427.8 964.35 427.4 964.2 426.95 964.05 426.5 964 426 963.9 425.55 963.9 425.05 963.9 424.55 964 424.05 964.05 423.55 964.2 423.1 964.35 422.65 964.5 422.25 964.7 421.85 964.9 421.5 965.15 421.15 965.45 420.9 965.75 420.65 966.15 420.4 966.5 420.25 966.9 420.15 967.3 420.05 967.75 420.05 968.4 420.05 968.85 420.2 969.35 420.35 969.7 420.65 970.35 421.25 970.75 421.9
L 970.8 421.95
Q 970.85 422 970.9 422.05 970.9 422.1 970.95 422.2 971 422.3 971.1 422.35 971.2 422.5 971.3 422.6 971.45 422.65 971.65 422.7 971.85 422.8 972.05 422.8 972.25 422.85 972.45 422.85 972.65 422.85 972.9 422.8 973.1 422.75 973.4 422.65
L 973.4 422.7
Q 973.45 422.7 973.5 422.7 973.65 422.6 973.8 422.45 973.9 422.25 974.05 422.05 974.15 421.8 974.2 421.6 974.25 421.35 974.25 421.1 974.25 420.95 974.2 420.85 974.15 420.7 974.1 420.55 974.05 420.45 974 420.35 973.9 420.2 973.85 420.1 973.45 419.3 972.85 418.6 972.2 418 971.45 417.5 970.65 417 969.7 416.75 968.75 416.5 967.7 416.5 966.85 416.5 966.1 416.65
M 1065.85 341.4
Q 1065.45 341.4 1065.15 341.55 1064.85 341.65 1064.65 341.85 1064.4 342.1 1064.3 342.4 1064.2 342.7 1064.2 343 1064.2 343.65 1064.65 344.1 1064.85 344.3 1065.15 344.4 1065.45 344.55 1065.85 344.55
L 1077.8 344.55
Q 1077.9 344.85 1077.9 345.15 1077.95 345.45 1077.95 345.75
L 1077.95 346.25
Q 1077.95 346.55 1077.9 346.85 1077.9 347.15 1077.8 347.45
L 1067.05 347.45
Q 1066.5 347.45 1066 347.6 1065.55 347.8 1065.1 348.15 1064.7 348.5 1064.5 348.95 1064.3 349.45 1064.3 350
L 1064.3 354.05
Q 1064.3 354.6 1064.5 355.05 1064.7 355.45 1065.15 355.8 1065.55 356.15 1066.05 356.3 1066.5 356.5 1067.05 356.5
L 1071.35 356.5
Q 1071.25 356.65 1071.2 356.8 1071.2 357 1071.2 357.2
L 1071.2 360.25 1061.3 360.25
Q 1060.9 360.25 1060.65 360.35 1060.45 360.45 1060.3 360.65 1060.15 360.85 1060.05 361.15 1060 361.45 1060 361.8 1060 362.1 1060.05 362.35 1060.15 362.65 1060.3 362.85 1060.45 363.1 1060.65 363.25 1060.9 363.35 1061.3 363.35
L 1084.95 363.35
Q 1085.2 363.35 1085.45 363.25 1085.7 363.1 1085.9 362.85 1086.25 362.45 1086.25 361.8 1086.25 361.45 1086.2 361.15 1086.1 360.85 1085.9 360.65 1085.7 360.45 1085.45 360.35 1085.2 360.25 1084.95 360.25
L 1074.95 360.25 1074.95 357.2
Q 1074.95 356.75 1074.75 356.5
L 1080.5 356.5
Q 1080.85 356.5 1081.15 356.4 1081.5 356.3 1081.7 356.1 1081.9 355.95 1082 355.7 1082.15 355.4 1082.15 355.05 1082.15 354.75 1082 354.45 1081.9 354.15 1081.7 353.95 1081.5 353.75 1081.15 353.6 1080.85 353.5 1080.5 353.5
L 1067.95 353.5
Q 1067.9 353.4 1067.85 353.25 1067.85 353.1 1067.85 352.95 1067.85 352.8 1067.85 352.65 1067.8 352.45 1067.8 352.3
L 1067.8 351.7
Q 1067.8 351.55 1067.85 351.4 1067.85 351.25 1067.85 351.05 1067.85 350.9 1067.85 350.75 1067.9 350.6 1067.95 350.45
L 1078.9 350.45
Q 1079.5 350.45 1079.95 350.3 1080.45 350.1 1080.8 349.75 1081.1 349.45 1081.3 349 1081.5 348.55 1081.55 347.95
L 1081.55 344.1
Q 1081.55 343.55 1081.35 343.05 1081.25 342.8 1081.15 342.6 1081 342.4 1080.8 342.2 1080.6 342 1080.35 341.85 1080.15 341.75 1079.95 341.65 1079.7 341.55 1079.45 341.5 1079.2 341.4 1078.9 341.4
L 1065.85 341.4
M 1032.8 362.85
Q 1033.05 363 1033.5 363
L 1057.2 363
Q 1057.6 363 1057.9 362.85 1058.15 362.75 1058.25 362.5 1058.4 362.25 1058.45 361.95 1058.5 361.7 1058.5 361.35 1058.5 361.05 1058.45 360.75 1058.4 360.45 1058.25 360.2 1058.15 360 1057.9 359.85 1057.6 359.7 1057.2 359.7
L 1033.5 359.7
Q 1033.05 359.7 1032.8 359.85 1032.55 360 1032.45 360.2 1032.35 360.45 1032.3 360.75 1032.25 361.05 1032.25 361.35 1032.25 361.7 1032.3 361.95 1032.35 362.25 1032.45 362.5 1032.55 362.75 1032.8 362.85
M 1037.75 343.95
Q 1037.3 344.55 1036.95 345.2 1036.65 345.9 1036.45 346.65 1036.3 347.35 1036.3 348.15 1036.3 349.5 1036.85 350.65 1037.4 351.9 1038.3 352.8 1038.7 353.25 1039.2 353.65 1039.75 354.05 1040.35 354.35 1041 354.65 1041.7 354.85 1042.45 355.1 1043.25 355.2 1043.45 355.25 1043.7 355.3 1044 355.3 1044.3 355.3 1044.6 355.35 1044.85 355.35 1045.1 355.35 1045.35 355.35 1045.85 355.35 1046.4 355.3 1046.9 355.25 1047.4 355.15 1047.85 355.1 1048.25 355 1048.65 354.9 1049 354.75 1049.45 354.7 1049.8 354.55 1050.2 354.4 1050.55 354.2 1050.85 354.05 1051.2 353.85 1051.55 353.6 1051.9 353.35 1054.45 351.45 1054.45 348.15 1054.45 347.35 1054.25 346.6 1054.1 345.85 1053.75 345.2 1053.45 344.55 1052.95 343.95 1052.5 343.4 1051.9 342.9 1051.3 342.45 1050.6 342.1 1049.85 341.7 1049.05 341.45 1048.2 341.2 1047.3 341.05 1046.35 340.95 1045.3 340.95 1044.35 340.95 1043.45 341.05 1042.55 341.2 1041.7 341.45 1040 342 1038.85 342.9 1038.25 343.4 1037.75 343.95
M 1043 344.4
Q 1044 344.15 1045.3 344.15 1048 344.15 1049.45 345.25 1050.1 345.75 1050.45 346.5 1050.8 347.25 1050.8 348.15 1050.8 349.05 1050.45 349.75 1050.1 350.45 1049.45 351 1048 352.1 1045.3 352.1 1044 352.1 1043 351.85 1042 351.55 1041.3 351 1040.6 350.45 1040.25 349.75 1039.9 349.05 1039.9 348.15 1039.9 347.25 1040.25 346.5 1040.6 345.75 1041.3 345.25 1042 344.7 1043 344.4
M 1009.25 357.85
Q 1009.2 358.15 1009.2 358.45 1009.2 358.8 1009.25 359.05 1009.3 359.3 1009.5 359.55 1009.6 359.75 1009.85 359.9 1010.1 360 1010.5 360
L 1020.35 360
Q 1020.55 360 1020.75 360 1020.95 360 1021.15 360 1021.6 360.05 1022 360.1
L 1022 366.2
Q 1022 366.4 1022 366.5 1022.05 366.65 1022.15 366.8 1022.2 366.85 1022.3 366.95 1022.4 367.05 1022.55 367.15 1022.75 367.25 1022.9 367.3 1023.05 367.35 1023.25 367.4 1023.5 367.5 1023.75 367.5 1024.1 367.5 1024.4 367.4 1024.7 367.3 1025 367.15 1025.25 367 1025.4 366.75 1025.55 366.5 1025.55 366.2
L 1025.55 359.5
Q 1025.55 358.95 1025.4 358.5 1025.25 358.05 1025.05 357.6 1024.75 357.25 1024.35 357.05 1023.95 356.85 1023.35 356.85
L 1010.5 356.85
Q 1010.1 356.85 1009.85 356.95 1009.6 357.1 1009.5 357.3 1009.3 357.6 1009.25 357.85
M 1017.45 346.1
Q 1017.35 346 1017.25 345.9 1016.9 345.65 1016.6 345.3 1016.3 344.95 1016 344.55 1015.7 344.15 1015.5 343.75 1015.3 343.35 1015.15 342.9
L 1015.8 342.9
Q 1016.45 342.9 1016.85 342.6 1017.2 342.25 1017.2 341.55 1017.2 340.1 1015.75 340.1
L 1009.4 340.1
Q 1009.05 340.1 1008.8 340.2 1008.55 340.3 1008.4 340.5 1008.25 340.7 1008.15 340.95 1008.1 341.25 1008.1 341.55 1008.1 341.9 1008.2 342.15 1008.3 342.45 1008.45 342.6 1008.6 342.75 1008.9 342.85 1009.15 342.9 1009.55 342.9
L 1011.85 342.9
Q 1011.8 343.3 1011.65 343.6 1011.5 343.95 1011.35 344.25 1011.15 344.6 1010.95 344.9 1010.75 345.2 1010.5 345.45 1010.2 345.75 1009.9 346 1009.65 346.25 1009.35 346.45 1009.1 346.7 1008.85 346.85 1008.6 347.05 1008.45 347.15 1008.05 347.3 1007.9 347.6 1007.75 347.75 1007.75 347.85 1007.7 348 1007.7 348.1 1007.7 348.25 1007.75 348.4 1007.75 348.6 1007.9 348.75 1008 348.9 1008.1 349.05 1008.2 349.2 1008.3 349.3 1008.35 349.45 1008.5 349.55 1008.6 349.65 1008.8 349.75 1008.95 349.85 1009.1 349.9 1009.2 349.95 1009.35 349.95 1009.6 349.95 1009.9 349.85 1010.15 349.75 1010.55 349.5 1010.85 349.3 1011.2 349.05 1011.55 348.8 1011.9 348.5 1012.15 348.25 1012.4 347.95 1012.65 347.65 1012.95 347.35 1013.45 346.85 1013.55 346.55 1013.65 346.7 1013.8 346.85 1013.9 347 1014.05 347.2 1014.25 347.4 1014.4 347.55 1014.55 347.75 1014.7 347.85 1014.85 348.05 1015.05 348.2 1015.25 348.3 1015.45 348.4 1015.5 348.45 1015.55 348.5 1015.6 348.55 1015.7 348.55 1015.7 348.8 1015.8 349 1015.9 349.25 1016 349.45 1015.9 349.55 1015.85 349.75 1015.8 349.95 1015.8 350.2
L 1015.8 352.15 1005.7 352.15
Q 1005.2 352.15 1004.95 352.25 1004.65 352.35 1004.55 352.6 1004.45 352.85 1004.35 353.1 1004.3 353.4 1004.3 353.75 1004.3 354.05 1004.35 354.35 1004.45 354.6 1004.55 354.8 1004.65 355.05 1004.95 355.2 1005.2 355.3 1005.7 355.3
L 1029.65 355.3
Q 1030.05 355.3 1030.3 355.2 1030.55 355.05 1030.7 354.8 1030.95 354.4 1030.95 353.75 1030.95 353.1 1030.7 352.6 1030.55 352.35 1030.3 352.25 1030.05 352.15 1029.65 352.15
L 1019.5 352.15 1019.5 350.2
Q 1019.5 350 1019.45 349.85 1019.4 349.7 1019.35 349.55 1019.25 349.45 1019.15 349.35 1019.05 349.3 1018.9 349.2 1019.1 349.05 1019.35 348.85 1019.55 348.65 1019.7 348.45 1019.95 348.15 1020.2 347.85 1020.45 347.55 1020.7 347.25 1020.9 346.95 1021.15 346.65 1021.4 346.35 1021.7 346.05 1022.05 346.6 1022.6 347.2 1022.85 347.55 1023.1 347.85 1023.35 348.15 1023.6 348.45 1023.95 348.75 1024.25 349 1024.6 349.25 1024.9 349.45 1025.2 349.65 1025.45 349.75 1025.75 349.85 1025.95 349.85 1026.1 349.85 1026.25 349.8 1026.4 349.8 1026.6 349.7 1026.75 349.65 1026.85 349.5 1027 349.4 1027.15 349.3 1027.25 349.1 1027.4 348.75 1027.5 348.6 1027.55 348.45 1027.6 348.3 1027.6 348.15 1027.6 348.05 1027.5 347.9 1027.45 347.75 1027.35 347.55 1027.2 347.45 1027.05 347.25 1026.85 347.1 1026.7 346.9 1026.45 346.75 1026.2 346.6 1026 346.45 1025.8 346.25 1025.55 346.1 1025.4 345.95 1025.15 345.75 1025 345.6 1024.75 345.3 1024.5 345 1024.3 344.65 1024.05 344.35 1023.85 344 1023.7 343.7 1023.55 343.35 1023.45 342.9
L 1025.85 342.9
Q 1026.5 342.9 1026.85 342.6 1027.2 342.25 1027.2 341.55 1027.2 341.25 1027.15 340.95 1027.1 340.7 1026.95 340.5 1026.8 340.3 1026.55 340.2 1026.3 340.1 1025.95 340.1
L 1019.3 340.1
Q 1018.6 340.1 1018.25 340.45 1017.9 340.8 1017.9 341.55 1017.9 341.9 1017.95 342.15 1018.05 342.45 1018.25 342.6 1018.4 342.75 1018.65 342.85 1018.95 342.9 1019.3 342.9
L 1019.85 342.9
Q 1019.8 343.15 1019.7 343.45 1019.6 343.7 1019.5 343.95 1019.25 344.6 1018.7 345.15 1018.5 345.45 1018.25 345.7 1018.05 345.95 1017.75 346.2
L 1017.65 346.3
Q 1017.55 346.2 1017.45 346.1
M 1043.65 301.05
Q 1043.35 300.7 1042.9 300.4 1042.75 300.3 1042.5 300.2 1042.25 300.15 1042 300.1 1041.4 300 1040.95 300
L 1028.65 300
Q 1028.25 300 1028 300.1 1027.75 300.2 1027.65 300.4 1027.5 300.65 1027.4 300.9 1027.35 301.2 1027.35 301.5 1027.35 301.8 1027.4 302.05 1027.5 302.3 1027.65 302.45 1027.9 302.8 1028.65 302.8
L 1040.15 302.8
Q 1040.2 302.95 1040.2 303.05 1040.25 303.2 1040.25 303.4
L 1040.25 303.65
Q 1040.25 303.9 1040.2 304 1040.2 304.15 1040.15 304.25
L 1030.3 304.25
Q 1030 304.25 1029.75 304.25 1029.5 304.3 1029.25 304.3 1029 304.4 1028.75 304.45 1028.5 304.55 1028.35 304.7 1028.05 304.8 1027.9 305 1027.75 305.15 1027.65 305.4 1027.5 305.65 1027.5 305.9 1027.45 306.15 1027.45 306.4
L 1027.45 309.6
Q 1027.45 309.9 1027.5 310.1 1027.5 310.35 1027.65 310.55 1027.75 310.7 1027.9 310.85 1028.05 311 1028.35 311.1 1028.5 311.2 1028.75 311.25 1029 311.35 1029.25 311.4 1029.5 311.45 1029.75 311.45 1030 311.45 1030.3 311.45
L 1042.85 311.45
Q 1043.5 311.45 1043.8 311.1 1044.15 310.8 1044.15 310.1 1044.15 309.35 1043.8 309 1043.5 308.65 1042.85 308.65
L 1031.1 308.65
Q 1031 308.5 1030.95 308.35 1030.95 308.2 1030.95 308
L 1030.95 307.65
Q 1030.95 307.45 1030.95 307.3 1031 307.1 1031.1 306.95
L 1041.25 306.95
Q 1041.75 306.95 1042.25 306.9 1042.7 306.8 1043.1 306.6 1043.5 306.5 1043.65 306.15 1043.85 305.8 1043.85 305.25
L 1043.85 302.15
Q 1043.85 301.8 1043.8 301.55 1043.75 301.25 1043.65 301.05
M 1022.5 295.7
Q 1022.35 295.9 1022.3 296.2 1022.25 296.5 1022.25 296.8 1022.25 297.15 1022.3 297.4 1022.35 297.65 1022.5 297.85 1022.55 298.05 1022.8 298.15 1023.05 298.25 1023.5 298.25
L 1047.75 298.25
Q 1048.2 298.25 1048.45 298.15 1048.7 298.05 1048.8 297.85 1048.85 297.65 1048.85 297.4 1048.9 297.15 1048.9 296.8 1048.9 296.5 1048.85 296.2 1048.85 295.9 1048.8 295.7 1048.7 295.5 1048.45 295.35 1048.2 295.25 1047.75 295.25
L 1023.5 295.25
Q 1023.05 295.25 1022.8 295.35 1022.55 295.5 1022.5 295.7
M 1032 284.1
Q 1031.15 284.3 1030.45 284.55 1029.75 284.75 1029.15 285.05 1028.6 285.35 1028.15 285.75 1027.7 286.15 1027.4 286.6 1026.8 287.5 1026.8 288.65 1026.8 289.25 1026.9 289.75 1027.1 290.3 1027.4 290.7 1027.7 291.15 1028.15 291.5 1028.6 291.9 1029.2 292.2 1029.8 292.5 1030.5 292.75 1031.25 292.95 1032.1 293.15 1032.9 293.3 1033.8 293.4 1034.7 293.5 1035.7 293.55 1036.65 293.5 1037.6 293.4 1038.5 293.3 1039.35 293.1 1040.15 292.95 1040.85 292.7 1041.55 292.5 1042.15 292.15 1042.65 291.85 1043.05 291.5 1043.45 291.15 1043.8 290.7 1044.1 290.3 1044.2 289.75 1044.4 289.25 1044.4 288.65 1044.4 288.1 1044.2 287.55 1044.1 287.05 1043.8 286.6 1043.45 286.15 1043.05 285.75 1042.65 285.35 1042.1 285.05 1041.5 284.75 1040.8 284.55 1040.1 284.3 1039.3 284.1 1038.5 284 1037.55 283.9 1036.6 283.8 1035.55 283.8 1034.6 283.8 1033.7 283.9 1032.8 284 1032 284.1
M 1031.85 289.85
Q 1031.1 289.65 1030.75 289.35 1030.35 289.05 1030.35 288.65 1030.35 288.25 1030.75 287.95 1031.1 287.65 1031.85 287.45 1032.55 287.25 1033.5 287.1 1034.4 287 1035.55 287 1036.8 287 1037.75 287.1 1038.7 287.25 1039.45 287.45 1040.15 287.65 1040.5 287.95 1040.85 288.25 1040.85 288.65 1040.85 289.05 1040.5 289.35 1040.15 289.65 1039.45 289.85 1038.7 290.1 1037.75 290.2 1036.8 290.3 1035.55 290.3 1034.4 290.3 1033.5 290.2 1032.55 290.1 1031.85 289.85
M 998.65 287.7
Q 996.7 289.7 995.75 292.2 994.8 294.65 994.8 297.5 994.8 300.35 995.75 302.8 996.7 305.25 998.65 307.25 1000.55 309.3 1002.8 310.3 1005.1 311.3 1007.7 311.3 1013.35 311.3 1017.25 307.25 1019.2 305.25 1020.15 302.8 1021.1 300.35 1021.1 297.5 1021.1 294.65 1020.15 292.2 1019.2 289.7 1017.25 287.7 1015.3 285.7 1012.9 284.65 1010.5 283.65 1007.7 283.65 1005.1 283.65 1002.8 284.65 1000.55 285.7 998.65 287.7
M 997.2 292.8
Q 998.1 290.65 999.85 288.9 1001.5 287.15 1003.45 286.25 1005.4 285.35 1007.7 285.35 1010.1 285.35 1012.15 286.25 1014.25 287.15 1016 288.9 1017.7 290.7 1018.5 292.85 1019.35 295 1019.35 297.5 1019.35 300 1018.5 302.15 1017.7 304.3 1016 306.05 1014.25 307.85 1012.15 308.75 1010.1 309.65 1007.7 309.65 1005.4 309.65 1003.45 308.75 1001.5 307.85 999.85 306.05 998.1 304.3 997.2 302.15 996.3 300 996.3 297.5 996.3 294.95 997.2 292.8
M 1001.2 291.2
L 1001.2 293.8 1011.2 293.8 1011.2 303.8 1013.95 303.8 1013.95 291.2 1001.2 291.2
M 972.45 288.8
Q 972.65 288.05 972.65 287.4 972.65 286.05 971.9 285.4 971.55 285.1 971.05 284.9 970.6 284.7 969.95 284.7
L 961.95 284.7
Q 961.55 284.7 961.3 284.85 961.05 284.95 960.95 285.2 960.8 285.4 960.7 285.7 960.65 286 960.65 286.3 960.65 286.65 960.7 286.9 960.8 287.15 960.95 287.4 961.05 287.65 961.3 287.75 961.55 287.85 961.95 287.85
L 968.8 287.85
Q 968.75 288.3 968.65 288.75 968.55 289.15 968.4 289.55 968.25 290 967.9 290.5 967.55 291 967.05 291.55 966.7 291.9 966.4 292.2 966.1 292.5 965.85 292.75 965.55 293 965.3 293.25 965 293.5 964.75 293.7 964.35 293.9 964 294.15 963.6 294.35 963.25 294.55 962.85 294.8 962.35 295 961.9 295.25 961.3 295.5 961.15 295.55 961 295.7 960.85 295.8 960.8 295.95 960.7 296.15 960.65 296.3 960.6 296.5 960.6 296.7 960.6 297.1 960.7 297.4 960.8 297.7 961 298 961.15 298.25 961.4 298.4 961.65 298.55 962 298.55
L 962.2 298.55
Q 962.25 298.55 962.3 298.55 962.35 298.55 962.4 298.5 963.55 298.2 964.55 297.7 965.6 297.2 966.6 296.55 967.5 295.9 968.35 295.15 969.15 294.45 969.85 293.65 971.2 292.1 971.9 290.4 972.25 289.55 972.45 288.8
M 978.95 300.4
Q 978.45 300.2 977.85 300.2
L 966.2 300.2
Q 965.8 300.2 965.55 300.35 965.3 300.45 965.15 300.65 965 300.9 964.95 301.15 964.85 301.45 964.85 301.8 964.85 302.1 964.95 302.4 965 302.65 965.15 302.85 965.3 303.1 965.55 303.25 965.8 303.35 966.2 303.35
L 975.7 303.35
Q 976.05 303.35 976.45 303.4 976.85 303.45 977.35 303.45
L 977.35 310.65
Q 977.35 310.95 977.45 311.2 977.6 311.45 977.9 311.6 978.2 311.75 978.45 311.85 978.7 311.95 978.95 311.95 979.15 311.95 979.3 311.9 979.5 311.9 979.65 311.85 979.8 311.8 979.9 311.75 980.05 311.7 980.2 311.6 980.35 311.5 980.45 311.4 980.55 311.3 980.65 311.2 980.75 311.05 980.8 310.9 980.85 310.8 980.85 310.65
L 980.85 302.85
Q 980.85 302.25 980.65 301.75 980.45 301.25 980 300.9 979.5 300.55 978.95 300.4
M 980.8 284.1
Q 980.7 283.9 980.45 283.75 980.2 283.65 979.9 283.55 979.55 283.5 979.2 283.5 978.9 283.5 978.6 283.55 978.3 283.65 978 283.75 977.7 283.9 977.55 284.1 977.35 284.35 977.35 284.75
L 977.35 297.25
Q 977.35 297.65 977.5 297.9 977.6 298.15 977.9 298.25 978.1 298.4 978.35 298.45 978.6 298.5 978.8 298.5 978.95 298.55 979.15 298.5 979.35 298.5 979.55 298.45 979.75 298.45 979.9 298.45 980.05 298.4 980.15 298.3 980.3 298.25 980.45 298.1 980.55 297.95 980.7 297.8 980.8 297.65 980.85 297.5 980.95 297.3 980.95 297.1
L 980.95 292.65 983.85 292.65
Q 984.25 292.65 984.55 292.55 984.8 292.4 984.9 292.15 985.1 291.75 985.1 291.1 985.1 290.75 985.05 290.45 985 290.15 984.9 289.95 984.8 289.75 984.55 289.65 984.25 289.55 983.85 289.55
L 980.95 289.55 980.95 284.75
Q 980.95 284.35 980.8 284.1
M 955.85 306.8
Q 956.25 306.8 956.5 306.7 956.75 306.6 956.85 306.35 957 306.15 957.05 305.85 957.1 305.6 957.1 305.3 957.1 304.95 957.05 304.7 957 304.4 956.85 304.15 956.75 303.9 956.5 303.8 956.25 303.65 955.85 303.65
L 945.8 303.65 945.8 298.85
Q 945.8 298.05 945.25 297.75 945 297.65 944.65 297.55 944.35 297.5 943.95 297.5 943.75 297.5 943.6 297.55 943.5 297.55 943.35 297.55 943.2 297.6 943 297.65 942.85 297.7 942.7 297.75 942.55 297.85 942.45 297.95 942.35 298.05 942.3 298.15 942.25 298.3 942.25 298.5 942.2 298.65 942.2 298.85
L 942.2 303.65 932.1 303.65
Q 931.7 303.65 931.4 303.8 931.15 303.9 931.05 304.15 930.95 304.4 930.9 304.7 930.85 304.95 930.85 305.3 930.85 305.6 930.9 305.85 930.95 306.15 931.05 306.35 931.15 306.6 931.4 306.7 931.7 306.8 932.1 306.8
L 955.85 306.8
M 935.35 288.85
Q 935.6 289 936 289
L 942.25 289
Q 942.25 289.9 941.7 290.8 941.4 291.25 941.05 291.7 940.65 292.15 940.15 292.6 939.25 293.5 937.8 294.2 937.1 294.6 936.35 294.9 935.55 295.25 934.75 295.55 934.55 295.6 934.4 295.75 934.3 295.85 934.2 295.95 934.1 296.15 934.05 296.3 934 296.45 934 296.6 934 296.95 934.15 297.3 934.25 297.65 934.5 297.9 934.7 298.2 935 298.35 935.35 298.5 935.75 298.5 935.85 298.5 935.95 298.5 936 298.5 936.1 298.45 936.7 298.25 937.25 298 937.85 297.75 938.4 297.5 939 297.2 939.5 296.9 940.1 296.6 940.6 296.3 941.1 295.95 941.55 295.6 942.05 295.25 942.5 294.9 942.95 294.55 943.3 294.15 943.65 293.8 943.9 293.45 944.2 293.8 944.6 294.15 944.95 294.5 945.4 294.85 945.8 295.2 946.25 295.55 946.7 295.9 947.25 296.2 947.8 296.55 948.35 296.85 948.9 297.15 949.5 297.4 950.05 297.7 950.6 297.95 951.15 298.15 951.7 298.4 951.8 298.45 951.95 298.5 952.1 298.5 952.25 298.5 952.75 298.5 953.25 297.85 953.45 297.55 953.6 297.25 953.7 296.9 953.7 296.5 953.7 296.4 953.7 296.25 953.65 296.1 953.65 295.9 953.55 295.8 953.45 295.7 953.35 295.6 953.15 295.5 952.65 295.3 952.05 295.1 951.5 294.85 950.9 294.55 950.25 294.3 949.65 293.95 949.1 293.6 948.5 293.2 947.95 292.85 947.45 292.4 947 291.95 946.6 291.4 946.2 290.9 945.95 290.25 945.7 289.65 945.6 289
L 952.05 289
Q 952.4 289 952.65 288.85 952.9 288.75 953.05 288.5 953.15 288.3 953.2 288.05 953.3 287.75 953.3 287.45 953.3 287.15 953.2 286.85 953.15 286.55 953.05 286.3 952.9 286.1 952.65 286 952.4 285.85 952.05 285.85
L 936 285.85
Q 935.6 285.85 935.35 286 935.1 286.1 934.95 286.3 934.85 286.55 934.8 286.85 934.75 287.15 934.75 287.45 934.75 287.75 934.8 288.05 934.85 288.3 934.95 288.5 935.1 288.75 935.35 288.85 Z"/>
</g>

<path id="Layer0_0_1_STROKES" stroke="#000000" stroke-width="2" stroke-linejoin="round" stroke-linecap="round" fill="none" d="
M 848.8 370.6
Q 848.797265625 370.8029296875 848.8 371
L 848.95 382.85
Q 849.35 397.45 850.55 410.6 854 447.25 863 461.4 864.35 463.4 865.75 465.05 875.0076171875 475.2435546875 898.25 481.225 909.7794921875 484.176953125 924.75 486.1 943.35 488.4 968.85 489.15 979.65 489.45 991.7 489.45 1032.2 489.45 1058.7 486.1 1103.85 480.3 1117.7 465.05 1119.1 463.4 1120.45 461.4 1121.25 460.1 1122.05 458.65 1129.75 443.9 1132.85 410.6 1134.85 389.55 1134.6 371 1134.85 352.5 1132.85 331.45 1129.75 298.05 1122.05 283.45 1121.25 281.95 1120.45 280.6 1119.1 278.6 1117.7 277 1112.0904296875 270.7625 1101.35 266.1 1085.562890625 259.25078125 1058.7 255.8 1032.2 252.5 991.7 252.5 979.65 252.5 968.85 252.8 943.35 253.5 924.75 255.8 879.6 261.6 865.75 277 864.35 278.5 863 280.6 854 294.7 850.55 331.45 849.5548828125 341.9232421875 849.125 351.775 849.85 351.86640625 850.6 352
M 848.8 370.6
Q 836.95234375 363.075390625 823.35 367.25 830.13828125 349.0998046875 849.125 351.775
M 850.35 371.65
Q 849.576171875 371.1021484375 848.8 370.6"/>

<path id="Layer0_0_2_STROKES" stroke="#DBDBDB" stroke-width="3" stroke-linejoin="round" stroke-linecap="round" fill="none" d="
M 903.4 323.6
L 983.4 323.6
Q 998.4 323.6 998.4 338.6
L 998.4 368.65
Q 998.4 383.65 983.4 383.65
L 903.4 383.65
Q 888.4 383.65 888.4 368.65
L 888.4 338.6
Q 888.4 323.6 903.4 323.6 Z
M 903.4 393.6
L 938.4 393.6
Q 953.4 393.6 953.4 408.6
L 953.4 438.65
Q 953.4 453.65 938.4 453.65
L 903.4 453.65
Q 888.4 453.65 888.4 438.65
L 888.4 408.6
Q 888.4 393.6 903.4 393.6 Z"/>
</defs>

<g transform="matrix( 1, 0, 0, 1, 0,0) ">
<use xlink:href="#Layer0_0_FILL"/>

<use xlink:href="#Layer0_0_1_STROKES"/>

<use xlink:href="#Layer0_0_2_STROKES"/>
</g>
</svg>
