<?xml version="1.0" encoding="utf-8"?>
<!-- Generator: Adobe Illustrator 23.1.0, SVG Export Plug-In . SVG Version: 6.00 Build 0)  -->
<svg version="1.1" id="레이어_1" xmlns="http://www.w3.org/2000/svg" xmlns:xlink="http://www.w3.org/1999/xlink" x="0px"
	 y="0px" width="30px" height="30px" viewBox="0 0 30 30" style="enable-background:new 0 0 30 30;" xml:space="preserve">
<g>
	<path style="fill:#FFFFFF;" d="M3,23.4V8c0.8-0.6,2.6-1.8,5.1-1.8c3.2,0,5.5,2.1,5.5,2.1l0.2,0.2v15.2c-1.3-0.8-3.2-1.7-5.7-1.7
		C6,22.1,4.3,22.7,3,23.4"/>
	<path style="fill:#FFFFFF;" d="M27,8c-0.8-0.6-2.7-1.8-5.1-1.8c-3.3,0-5.5,2.1-5.5,2.1l-0.2,0.2v15.2c1.3-0.8,3.2-1.7,5.7-1.7
		c2.1,0,3.9,0.7,5.1,1.3V8z"/>
</g>
<g>
</g>
<g>
</g>
<g>
</g>
<g>
</g>
<g>
</g>
<g>
</g>
<g>
</g>
<g>
</g>
<g>
</g>
<g>
</g>
<g>
</g>
<g>
</g>
<g>
</g>
<g>
</g>
<g>
</g>
</svg>
