
<svg xmlns="http://www.w3.org/2000/svg" version="1.1" xmlns:xlink="http://www.w3.org/1999/xlink" preserveAspectRatio="none" x="0px" y="0px" width="460px" height="70px" viewBox="0 0 460 70">
<defs>
<g id="__________fnfmf343434_copy_2_____0_Layer1_0_FILL">
<path fill="#FFFFFF" stroke="none" d="
M 230 -15
Q 230 -30 215 -30
L -205 -30
Q -220 -30 -220 -15
L -220 15.05
Q -220 18.7 -219.25 21 -216.5 30.05 -205 30.05
L 215 30.05
Q 226.7 30.05 229.25 21 230 18.3 230 15.05
L 230 -15 Z"/>
</g>

<path id="__________fnfmf343434_copy_2_____0_Layer1_0_1_STROKES" stroke="#DBDBDB" stroke-width="3" stroke-linejoin="round" stroke-linecap="round" fill="none" d="
M 215 -30
Q 230 -30 230 -15
L 230 15.05
Q 230 18.3 229.25 21 226.7 30.05 215 30.05
L -205 30.05
Q -216.5 30.05 -219.25 21 -220 18.7 -220 15.05
L -220 -15
Q -220 -30 -205 -30
L 215 -30 Z"/>
</defs>

<g transform="matrix( 1, 0, 0, 1, 230,34.95) ">
<g transform="matrix( 1, 0, 0, 1, -5,0) ">
<use xlink:href="#__________fnfmf343434_copy_2_____0_Layer1_0_FILL"/>

<use xlink:href="#__________fnfmf343434_copy_2_____0_Layer1_0_1_STROKES"/>
</g>
</g>
</svg>
