<?xml version="1.0" encoding="utf-8"?>
<!-- Generator: Adobe Illustrator 16.0.0, SVG Export Plug-In . SVG Version: 6.00 Build 0)  -->
<!DOCTYPE svg PUBLIC "-//W3C//DTD SVG 1.1//EN" "http://www.w3.org/Graphics/SVG/1.1/DTD/svg11.dtd">
<svg version="1.1" id="Layer_1" xmlns="http://www.w3.org/2000/svg" xmlns:xlink="http://www.w3.org/1999/xlink" x="0px" y="0px"
	 width="1280px" height="720px" viewBox="0 0 1280 720" enable-background="new 0 0 1280 720" xml:space="preserve">
<g transform="matrix( 1, 0, 0, 1, 640,336.25) ">
	<g transform="matrix( 1, 0, 0, 1, 0,0) ">
		<g>
			<g id="gnf544546_0_Layer0_0_FILL">
				<path d="M223.55-84.3c0-1.067-0.166-1.833-0.5-2.3c-0.3-0.4-0.983-0.6-2.05-0.6h-16.5c-0.5,0-0.75,0.284-0.75,0.85v3
					c0,0.333,0.066,0.567,0.2,0.7c0.1,0.133,0.283,0.2,0.55,0.2h13.75c0.267,0,0.4,0.184,0.4,0.55v2.2c0,0.333-0.117,0.5-0.351,0.5
					h-12c-0.533,0-0.967,0.034-1.3,0.1c-0.3,0.1-0.533,0.267-0.7,0.5c-0.2,0.2-0.316,0.483-0.35,0.85
					c-0.066,0.367-0.101,0.833-0.101,1.4v6.45c0,0.533,0.034,1,0.101,1.4c0.033,0.367,0.149,0.667,0.35,0.9
					c0.167,0.2,0.417,0.35,0.75,0.45c0.334,0.1,0.75,0.15,1.25,0.15h17.45c0.467,0,0.7-0.3,0.7-0.9v-3c0-0.367-0.05-0.6-0.15-0.7
					c-0.133-0.1-0.333-0.15-0.6-0.15h-14.55c-0.267,0-0.4-0.167-0.4-0.5v-1.95c0-0.3,0.134-0.45,0.4-0.45h11.899
					c0.533,0,0.967-0.05,1.3-0.15c0.334-0.067,0.584-0.2,0.75-0.4c0.167-0.233,0.284-0.533,0.351-0.9s0.1-0.85,0.1-1.45V-84.3
					 M217.35-57.05c-0.966-0.967-2.133-1.45-3.5-1.45c-1.366,0-2.55,0.483-3.55,1.45c-0.967,1-1.45,2.183-1.45,3.55
					s0.483,2.533,1.45,3.5c1,1,2.184,1.5,3.55,1.5c1.367,0,2.534-0.5,3.5-1.5c1-0.967,1.5-2.133,1.5-3.5S218.35-56.05,217.35-57.05
					 M327.25,49.3c0.333-0.433,0.5-1.25,0.5-2.45V31.9c0-0.334-0.05-0.566-0.15-0.7c-0.1-0.101-0.267-0.15-0.5-0.15h-3.6
					c-0.233,0-0.417,0.05-0.55,0.15c-0.134,0.134-0.2,0.366-0.2,0.7v4.149h-9.9v-4c0-0.3-0.05-0.5-0.149-0.6
					c-0.101-0.134-0.283-0.2-0.55-0.2H308.6c-0.467,0-0.699,0.267-0.699,0.8v14.7c0,0.666,0.033,1.217,0.1,1.65
					c0.1,0.434,0.25,0.766,0.45,1c0.2,0.199,0.483,0.35,0.85,0.449c0.367,0.066,0.833,0.101,1.4,0.101h14.35
					C326.15,49.95,326.883,49.733,327.25,49.3 M313.2,44.9c-0.233,0-0.351-0.134-0.351-0.4v-3.45h9.9v3.45c0,0.267-0.1,0.4-0.3,0.4
					H313.2 M317.55,60.3c-1.366,0-2.55,0.483-3.55,1.45c-0.967,1-1.45,2.184-1.45,3.55s0.483,2.534,1.45,3.5c1,1,2.184,1.5,3.55,1.5
					c1.367,0,2.533-0.5,3.5-1.5c1-0.966,1.5-2.134,1.5-3.5s-0.5-2.55-1.5-3.55C320.083,60.783,318.917,60.3,317.55,60.3
					 M114.45,86.5c-1,0-1.684,0.217-2.05,0.65c-0.367,0.466-0.551,1.366-0.551,2.699v10.75c0,0.667,0.051,1.217,0.15,1.65
					c0.066,0.434,0.2,0.767,0.4,1c0.199,0.267,0.482,0.45,0.85,0.55c0.367,0.066,0.85,0.101,1.45,0.101h14.649
					c0.5,0,0.917-0.034,1.25-0.101c0.334-0.1,0.601-0.267,0.801-0.5c0.199-0.267,0.35-0.6,0.449-1
					c0.067-0.434,0.101-0.983,0.101-1.649V89.85c0-0.633-0.033-1.183-0.101-1.649c-0.066-0.434-0.199-0.767-0.399-1
					c-0.2-0.267-0.483-0.45-0.851-0.55c-0.366-0.101-0.85-0.15-1.449-0.15H114.45 M117.25,98.8c-0.3,0-0.45-0.166-0.45-0.5V92.15
					c0-0.367,0.15-0.551,0.45-0.551h9.3c0.267,0,0.4,0.167,0.4,0.5v6.15c0,0.3-0.033,0.467-0.101,0.5
					c-0.033,0.033-0.133,0.05-0.3,0.05H117.25 M126.6,119.9c0-1.367-0.5-2.551-1.5-3.551c-0.967-0.966-2.133-1.449-3.5-1.449
					c-1.366,0-2.55,0.483-3.55,1.449c-0.967,1-1.45,2.184-1.45,3.551c0,1.366,0.483,2.533,1.45,3.5c1,1,2.184,1.5,3.55,1.5
					c1.367,0,2.533-0.5,3.5-1.5C126.1,122.434,126.6,121.267,126.6,119.9 M-203.85,57.55c-0.4,0.333-0.601,1.167-0.601,2.5v11.5
					c0,1.233,0.184,2.101,0.55,2.601c0.334,0.5,1.051,0.75,2.15,0.75h17c0.267,0,0.434-0.051,0.5-0.15c0.1-0.1,0.15-0.367,0.15-0.8
					V70.6c0-0.566-0.267-0.85-0.801-0.85H-199.1c-0.233,0-0.351-0.184-0.351-0.55V62.6c0-0.333,0.134-0.5,0.4-0.5h13.6
					c0.467,0,0.7-0.3,0.7-0.899v-3.3c0-0.601-0.233-0.9-0.7-0.9h-16.3C-202.717,57-203.417,57.184-203.85,57.55 M-194.6,85.3
					c-1.367,0-2.551,0.483-3.551,1.45c-0.966,1-1.449,2.184-1.449,3.55c0,1.367,0.483,2.533,1.449,3.5c1,1,2.184,1.5,3.551,1.5
					c1.366,0,2.533-0.5,3.5-1.5c1-0.967,1.5-2.133,1.5-3.5c0-1.366-0.5-2.55-1.5-3.55C-192.066,85.783-193.233,85.3-194.6,85.3
					 M-51.2-117.8h-3.5c-0.5,0-0.75,0.316-0.75,0.95v13.6c0,0.633,0.033,1.167,0.101,1.6c0.1,0.4,0.232,0.716,0.399,0.95
					s0.417,0.417,0.75,0.55c0.333,0.1,0.75,0.15,1.25,0.15h17c0.167,0,0.333-0.033,0.5-0.1c0.167-0.066,0.25-0.3,0.25-0.7v-3.55
					c0-0.3-0.083-0.517-0.25-0.65c-0.167-0.1-0.333-0.15-0.5-0.15H-49.9c-0.333,0-0.5-0.217-0.5-0.65v-11.05
					C-50.4-117.483-50.667-117.8-51.2-117.8 M-45.65-89.1c-1.366,0-2.55,0.483-3.55,1.45c-0.967,1-1.45,2.183-1.45,3.55
					s0.483,2.534,1.45,3.5c1,1,2.184,1.5,3.55,1.5c1.367,0,2.533-0.5,3.5-1.5c1-0.966,1.5-2.133,1.5-3.5s-0.5-2.55-1.5-3.55
					C-43.117-88.617-44.283-89.1-45.65-89.1 M-326.6-43.5c-0.167,0-0.334,0.033-0.5,0.1c-0.134,0.066-0.2,0.316-0.2,0.75v3.5
					c0,0.333,0.066,0.55,0.2,0.65c0.166,0.1,0.333,0.15,0.5,0.15h13.899c0.334,0,0.5,0.217,0.5,0.65v11.3c0,0.6,0.267,0.9,0.8,0.9
					h3.551c0.433,0,0.649-0.3,0.649-0.9v-13.7c0-0.633-0.033-1.183-0.1-1.65c-0.066-0.434-0.2-0.783-0.4-1.05
					c-0.166-0.267-0.416-0.45-0.75-0.55c-0.3-0.1-0.717-0.15-1.25-0.15H-326.6 M-317.6-15.05c-1.367,0-2.551,0.483-3.551,1.45
					c-0.966,1-1.449,2.184-1.449,3.55s0.483,2.533,1.449,3.5c1,1,2.184,1.5,3.551,1.5c1.366,0,2.533-0.5,3.5-1.5
					c1-0.967,1.5-2.133,1.5-3.5s-0.5-2.55-1.5-3.55C-315.066-14.567-316.233-15.05-317.6-15.05z"/>
			</g>
		</g>
		<g>
			
				<path id="gnf544546_0_Layer0_0_1_STROKES" fill="none" stroke="#BBDECB" stroke-width="5" stroke-linecap="round" stroke-linejoin="round" d="
				M-551.55-166h181.05h922.1c10,0,15,5,15,15v302.05c0,10-5,15-15,15h-90.35H-452.7h-98.85c-10,0-15-5-15-15V-151
				c0-6.367,2.017-10.7,6.05-13C-558.167-165.333-555.184-166-551.55-166z"/>
		</g>
	</g>
</g>
</svg>
